0, 0, Header, 0, 1, 480
1, 0, Start_track
1, 0, Tempo, 616079
1, 0, Time_signature, 4, 2, 24, 8
1, 0, System_exclusive, 5, 126, 127, 9, 1, 247
1, 0, Control_c, 6, 11, 0
1, 0, Control_c, 6, 7, 70
1, 0, Note_on_c, 9, 42, 70
1, 0, Title_t, "Pieces of a dream"
1, 15, System_exclusive, 10, 65, 16, 66, 18, 64, 1, 52, 93, 46, 247
1, 30, System_exclusive, 25, 65, 16, 66, 18, 64, 1, 16, 2, 0, 2, 2, 2, 2, 2, 2, 2, 1, 1, 1, 1, 1, 1, 0, 25, 247
1, 45, System_exclusive, 38, 65, 16, 69, 18, 16, 0, 0, 40, 99, 41, 32, 50, 48, 48, 53, 32, 98, 121, 32, 71, 69, 69, 82, 68, 69, 83, 32, 109, 105, 100, 105, 109, 117, 115, 105, 99, 87, 247
1, 116, Note_off_c, 9, 42, 17
1, 480, Note_on_c, 9, 42, 70
1, 596, Note_off_c, 9, 42, 17
1, 960, Note_on_c, 9, 42, 70
1, 1009, Program_c, 14, 119
1, 1009, Program_c, 15, 28
1, 1010, Program_c, 10, 48
1, 1010, Program_c, 11, 18
1, 1010, Program_c, 12, 30
1, 1010, Program_c, 13, 30
1, 1011, Program_c, 5, 0
1, 1011, Program_c, 6, 90
1, 1011, Program_c, 7, 49
1, 1011, Program_c, 8, 81
1, 1012, Program_c, 1, 35
1, 1012, Program_c, 2, 0
1, 1012, Program_c, 3, 65
1, 1012, Program_c, 4, 52
1, 1013, Program_c, 9, 0
1, 1019, Control_c, 15, 93, 40
1, 1020, Control_c, 11, 93, 40
1, 1020, Control_c, 12, 93, 30
1, 1020, Control_c, 13, 93, 30
1, 1020, Control_c, 14, 93, 10
1, 1021, Control_c, 5, 93, 10
1, 1021, Control_c, 6, 93, 20
1, 1021, Control_c, 7, 93, 30
1, 1021, Control_c, 8, 93, 30
1, 1021, Control_c, 10, 93, 30
1, 1022, Control_c, 1, 93, 15
1, 1022, Control_c, 2, 93, 10
1, 1022, Control_c, 3, 93, 15
1, 1022, Control_c, 4, 93, 30
1, 1023, Control_c, 9, 93, 30
1, 1024, Control_c, 15, 91, 67
1, 1025, Control_c, 10, 91, 67
1, 1025, Control_c, 11, 91, 67
1, 1025, Control_c, 12, 91, 67
1, 1025, Control_c, 13, 91, 60
1, 1025, Control_c, 14, 91, 67
1, 1026, Control_c, 5, 91, 67
1, 1026, Control_c, 6, 91, 67
1, 1026, Control_c, 7, 91, 67
1, 1026, Control_c, 8, 91, 67
1, 1027, Control_c, 1, 91, 52
1, 1027, Control_c, 2, 91, 67
1, 1027, Control_c, 3, 91, 67
1, 1027, Control_c, 4, 91, 60
1, 1028, Control_c, 9, 91, 60
1, 1029, Control_c, 15, 7, 84
1, 1030, Control_c, 10, 7, 60
1, 1030, Control_c, 11, 7, 75
1, 1030, Control_c, 12, 7, 76
1, 1030, Control_c, 13, 7, 65
1, 1030, Control_c, 14, 7, 89
1, 1031, Control_c, 5, 7, 108
1, 1031, Control_c, 6, 7, 70
1, 1031, Control_c, 7, 7, 72
1, 1031, Control_c, 8, 7, 75
1, 1032, Control_c, 1, 7, 100
1, 1032, Control_c, 2, 7, 105
1, 1032, Control_c, 3, 7, 120
1, 1032, Control_c, 4, 7, 80
1, 1032, Control_c, 9, 7, 100
1, 1034, Control_c, 15, 10, 64
1, 1035, Control_c, 10, 10, 64
1, 1035, Control_c, 11, 10, 64
1, 1035, Control_c, 12, 10, 64
1, 1035, Control_c, 13, 10, 64
1, 1035, Control_c, 14, 10, 64
1, 1036, Control_c, 5, 10, 89
1, 1036, Control_c, 6, 10, 34
1, 1036, Control_c, 7, 10, 64
1, 1036, Control_c, 8, 10, 94
1, 1037, Control_c, 1, 10, 64
1, 1037, Control_c, 2, 10, 49
1, 1037, Control_c, 3, 10, 64
1, 1037, Control_c, 4, 10, 64
1, 1038, Control_c, 9, 10, 64
1, 1043, Control_c, 9, 7, 100
1, 1076, Note_off_c, 9, 42, 17
1, 1440, Note_on_c, 9, 42, 70
1, 1556, Note_off_c, 9, 42, 17
1, 1912, Note_on_c, 7, 65, 73
1, 1913, Note_on_c, 7, 62, 71
1, 1913, Note_on_c, 7, 57, 65
1, 1914, Note_on_c, 2, 62, 100
1, 1914, Note_on_c, 7, 50, 65
1, 1918, Note_on_c, 5, 86, 92
1, 1919, Control_c, 5, 7, 108
1, 1919, Control_c, 7, 7, 72
1, 1920, Tempo, 616062
1, 1920, Control_c, 7, 7, 72
1, 2018, Control_c, 5, 64, 127
1, 2040, Note_on_c, 8, 76, 1
1, 2076, Control_c, 2, 64, 127
1, 2137, Note_off_c, 5, 86, 64
1, 2151, Note_on_c, 2, 69, 100
1, 2156, Note_off_c, 8, 76, 17
1, 2205, Note_off_c, 2, 62, 64
1, 2307, Note_off_c, 2, 69, 64
1, 2389, Note_on_c, 6, 67, 96
1, 2393, Note_on_c, 5, 86, 92
1, 2400, Control_c, 6, 7, 20
1, 2460, Control_c, 6, 7, 22
1, 2509, Note_off_c, 5, 86, 64
1, 2520, Control_c, 6, 7, 24
1, 2580, Control_c, 6, 7, 26
1, 2624, Note_on_c, 2, 77, 100
1, 2629, Note_on_c, 6, 69, 86
1, 2640, Control_c, 6, 7, 28
1, 2645, Note_off_c, 6, 67, 64
1, 2700, Control_c, 6, 7, 30
1, 2760, Control_c, 6, 7, 31
1, 2762, Note_off_c, 2, 77, 64
1, 2820, Control_c, 6, 7, 33
1, 2864, Note_on_c, 6, 67, 92
1, 2875, Note_on_c, 7, 64, 69
1, 2878, Note_on_c, 5, 86, 77
1, 2880, Control_c, 6, 7, 34
1, 2888, Note_off_c, 6, 69, 64
1, 2903, Note_off_c, 7, 65, 64
1, 2940, Control_c, 6, 7, 36
1, 2963, Note_off_c, 5, 86, 64
1, 3000, Control_c, 6, 7, 37
1, 3060, Control_c, 6, 7, 38
1, 3110, Note_on_c, 2, 76, 110
1, 3110, Note_on_c, 6, 69, 92
1, 3120, Control_c, 6, 7, 40
1, 3145, Note_off_c, 6, 67, 64
1, 3180, Control_c, 6, 7, 41
1, 3240, Control_c, 6, 7, 42
1, 3264, Note_off_c, 2, 76, 64
1, 3300, Control_c, 6, 7, 43
1, 3346, Note_on_c, 6, 67, 92
1, 3351, Note_on_c, 5, 88, 71
1, 3360, Control_c, 6, 7, 44
1, 3364, Note_on_c, 8, 76, 89
1, 3373, Note_off_c, 6, 69, 64
1, 3420, Control_c, 6, 7, 45
1, 3445, Note_off_c, 5, 88, 64
1, 3480, Control_c, 6, 7, 46
1, 3540, Control_c, 6, 7, 47
1, 3592, Note_on_c, 6, 69, 92
1, 3595, Note_on_c, 2, 69, 100
1, 3600, Control_c, 6, 7, 48
1, 3625, Note_off_c, 6, 67, 64
1, 3660, Control_c, 6, 7, 49
1, 3720, Control_c, 6, 7, 50
1, 3750, Note_off_c, 2, 69, 64
1, 3780, Control_c, 6, 7, 51
1, 3823, Note_on_c, 7, 65, 73
1, 3827, Note_on_c, 6, 67, 89
1, 3834, Note_on_c, 5, 88, 83
1, 3840, Control_c, 6, 7, 52
1, 3847, Note_off_c, 7, 64, 64
1, 3854, Note_off_c, 6, 69, 64
1, 3900, Control_c, 6, 7, 52
1, 3928, Note_off_c, 5, 88, 64
1, 3960, Control_c, 6, 7, 54
1, 4020, Control_c, 6, 7, 54
1, 4066, Note_on_c, 6, 69, 89
1, 4080, Control_c, 6, 7, 55
1, 4092, Note_off_c, 6, 67, 64
1, 4140, Control_c, 6, 7, 56
1, 4200, Control_c, 6, 7, 56
1, 4260, Control_c, 6, 7, 57
1, 4305, Note_on_c, 6, 67, 89
1, 4305, Note_off_c, 8, 76, 64
1, 4314, Note_on_c, 5, 88, 83
1, 4317, Note_on_c, 8, 77, 92
1, 4320, Control_c, 6, 7, 57
1, 4327, Note_off_c, 6, 69, 64
1, 4380, Control_c, 6, 7, 58
1, 4395, Note_off_c, 5, 88, 64
1, 4440, Control_c, 6, 7, 59
1, 4500, Control_c, 6, 7, 60
1, 4543, Note_on_c, 6, 69, 89
1, 4560, Control_c, 6, 7, 60
1, 4561, Note_on_c, 8, 79, 89
1, 4562, Note_off_c, 6, 67, 64
1, 4562, Note_off_c, 8, 77, 64
1, 4620, Control_c, 6, 7, 61
1, 4680, Control_c, 6, 7, 61
1, 4740, Control_c, 6, 7, 62
1, 4780, Note_on_c, 6, 67, 89
1, 4792, Note_on_c, 7, 67, 73
1, 4795, Note_on_c, 5, 88, 55
1, 4800, Control_c, 6, 7, 62
1, 4811, Note_off_c, 6, 69, 64
1, 4828, Note_off_c, 7, 65, 64
1, 4860, Control_c, 6, 7, 63
1, 4882, Note_off_c, 5, 88, 64
1, 4920, Control_c, 6, 7, 63
1, 4980, Control_c, 6, 7, 64
1, 5023, Note_on_c, 6, 69, 92
1, 5050, Note_off_c, 6, 67, 64
1, 5100, Control_c, 6, 7, 65
1, 5160, Control_c, 6, 7, 65
1, 5220, Control_c, 6, 7, 66
1, 5257, Note_on_c, 6, 67, 89
1, 5262, Note_on_c, 5, 88, 57
1, 5280, Control_c, 6, 7, 66
1, 5286, Note_off_c, 6, 69, 64
1, 5340, Control_c, 6, 7, 67
1, 5359, Note_off_c, 5, 88, 64
1, 5460, Control_c, 6, 7, 67
1, 5499, Note_on_c, 6, 69, 92
1, 5520, Control_c, 6, 7, 68
1, 5525, Note_off_c, 6, 67, 64
1, 5640, Control_c, 6, 7, 68
1, 5700, Control_c, 6, 7, 69
1, 5739, Note_on_c, 6, 67, 89
1, 5745, Note_on_c, 7, 65, 73
1, 5753, Note_on_c, 5, 86, 96
1, 5756, Note_on_c, 2, 62, 100
1, 5760, Tempo, 620562
1, 5760, Control_c, 6, 7, 70
1, 5769, Note_off_c, 7, 67, 64
1, 5772, Note_off_c, 6, 69, 64
1, 5833, Note_off_c, 5, 86, 64
1, 5880, Control_c, 6, 7, 69
1, 5940, Control_c, 6, 7, 68
1, 5954, Note_off_c, 2, 62, 64
1, 5979, Note_on_c, 6, 69, 86
1, 5991, Note_off_c, 8, 79, 64
1, 5998, Note_on_c, 8, 81, 92
1, 5999, Note_on_c, 2, 69, 83
1, 6000, Control_c, 6, 7, 67
1, 6004, Note_off_c, 6, 67, 64
1, 6060, Control_c, 6, 7, 67
1, 6118, Note_off_c, 2, 69, 64
1, 6120, Control_c, 6, 7, 66
1, 6180, Control_c, 6, 7, 66
1, 6220, Note_on_c, 6, 67, 89
1, 6228, Note_on_c, 5, 86, 83
1, 6234, Note_on_c, 2, 74, 71
1, 6240, Control_c, 6, 7, 65
1, 6251, Note_off_c, 6, 69, 64
1, 6300, Control_c, 6, 7, 64
1, 6304, Note_off_c, 2, 74, 64
1, 6311, Note_off_c, 5, 86, 64
1, 6360, Control_c, 6, 7, 63
1, 6420, Control_c, 6, 7, 62
1, 6465, Note_on_c, 6, 69, 89
1, 6474, Note_on_c, 2, 77, 96
1, 6480, Control_c, 6, 7, 62
1, 6503, Note_off_c, 6, 67, 64
1, 6540, Control_c, 6, 7, 61
1, 6600, Control_c, 6, 7, 60
1, 6603, Note_off_c, 2, 77, 64
1, 6660, Control_c, 6, 7, 59
1, 6704, Note_on_c, 6, 67, 89
1, 6716, Note_on_c, 5, 86, 83
1, 6720, Control_c, 6, 7, 58
1, 6724, Note_on_c, 7, 64, 69
1, 6738, Note_off_c, 6, 69, 64
1, 6774, Note_off_c, 7, 65, 64
1, 6780, Control_c, 6, 7, 57
1, 6792, Note_off_c, 5, 86, 64
1, 6840, Control_c, 6, 7, 56
1, 6900, Control_c, 6, 7, 54
1, 6949, Note_on_c, 2, 76, 105
1, 6950, Note_on_c, 6, 69, 89
1, 6960, Control_c, 6, 7, 53
1, 6985, Note_off_c, 6, 67, 64
1, 7020, Control_c, 6, 7, 51
1, 7080, Control_c, 6, 7, 50
1, 7122, Note_off_c, 2, 76, 64
1, 7140, Control_c, 6, 7, 49
1, 7186, Note_on_c, 6, 67, 86
1, 7193, Note_off_c, 8, 81, 64
1, 7194, Note_on_c, 5, 88, 100
1, 7198, Note_on_c, 8, 76, 86
1, 7200, Control_c, 6, 7, 47
1, 7202, Note_on_c, 1, 45, 105
1, 7215, Note_off_c, 6, 69, 64
1, 7260, Control_c, 6, 7, 45
1, 7280, Note_off_c, 5, 88, 64
1, 7320, Control_c, 6, 7, 43
1, 7380, Control_c, 6, 7, 41
1, 7430, Note_on_c, 6, 69, 89
1, 7440, Note_on_c, 2, 69, 100
1, 7440, Control_c, 6, 7, 39
1, 7468, Note_off_c, 6, 67, 64
1, 7500, Control_c, 6, 7, 36
1, 7560, Control_c, 6, 7, 33
1, 7620, Control_c, 6, 7, 30
1, 7628, Note_off_c, 2, 69, 64
1, 7662, Note_off_c, 1, 45, 64
1, 7672, Note_on_c, 6, 67, 89
1, 7674, Note_on_c, 7, 65, 69
1, 7675, Note_on_c, 5, 88, 77
1, 7680, Control_c, 6, 7, 27
1, 7683, Note_on_c, 1, 50, 96
1, 7701, Note_off_c, 7, 64, 64
1, 7705, Note_off_c, 6, 69, 64
1, 7710, Control_c, 6, 7, 29
1, 7740, Control_c, 6, 7, 33
1, 7748, Note_off_c, 5, 88, 64
1, 7770, Control_c, 6, 7, 35
1, 7800, Control_c, 6, 7, 38
1, 7830, Control_c, 6, 7, 39
1, 7860, Control_c, 6, 7, 41
1, 7890, Control_c, 6, 7, 43
1, 7911, Note_on_c, 6, 69, 89
1, 7920, Control_c, 6, 7, 45
1, 7945, Note_off_c, 6, 67, 64
1, 7950, Control_c, 6, 7, 46
1, 7980, Control_c, 6, 7, 48
1, 8010, Control_c, 6, 7, 49
1, 8040, Control_c, 6, 7, 50
1, 8070, Control_c, 6, 7, 51
1, 8100, Control_c, 6, 7, 52
1, 8130, Control_c, 6, 7, 54
1, 8146, Note_on_c, 6, 67, 89
1, 8151, Note_on_c, 5, 88, 67
1, 8160, Control_c, 6, 7, 55
1, 8160, Note_off_c, 8, 76, 64
1, 8161, Note_on_c, 8, 77, 89
1, 8175, Note_off_c, 6, 69, 64
1, 8190, Control_c, 6, 7, 55
1, 8220, Control_c, 6, 7, 56
1, 8223, Note_off_c, 5, 88, 64
1, 8250, Control_c, 6, 7, 57
1, 8280, Control_c, 6, 7, 58
1, 8310, Control_c, 6, 7, 58
1, 8340, Control_c, 6, 7, 59
1, 8370, Control_c, 6, 7, 60
1, 8386, Note_on_c, 6, 69, 86
1, 8396, Note_on_c, 2, 67, 89
1, 8400, Control_c, 6, 7, 60
1, 8409, Note_on_c, 8, 79, 83
1, 8413, Note_off_c, 8, 77, 64
1, 8415, Note_off_c, 6, 67, 64
1, 8430, Control_c, 6, 7, 61
1, 8460, Control_c, 6, 7, 61
1, 8487, Note_off_c, 2, 67, 64
1, 8490, Control_c, 6, 7, 62
1, 8520, Control_c, 6, 7, 62
1, 8550, Control_c, 6, 7, 63
1, 8580, Control_c, 6, 7, 63
1, 8610, Control_c, 6, 7, 64
1, 8626, Note_on_c, 6, 67, 89
1, 8631, Note_on_c, 7, 67, 71
1, 8632, Note_on_c, 5, 88, 48
1, 8654, Note_off_c, 7, 65, 64
1, 8661, Note_off_c, 6, 69, 64
1, 8670, Control_c, 6, 7, 65
1, 8697, Note_off_c, 5, 88, 64
1, 8700, Control_c, 6, 7, 65
1, 8730, Control_c, 6, 7, 66
1, 8790, Control_c, 6, 7, 66
1, 8850, Control_c, 6, 7, 67
1, 8870, Note_on_c, 6, 69, 86
1, 8880, Control_c, 6, 7, 67
1, 8906, Note_off_c, 6, 67, 64
1, 8940, Control_c, 6, 7, 68
1, 9000, Control_c, 6, 7, 68
1, 9060, Control_c, 6, 7, 69
1, 9078, Note_off_c, 1, 50, 64
1, 9101, Note_on_c, 6, 67, 86
1, 9116, Note_on_c, 1, 45, 115
1, 9117, Note_on_c, 5, 88, 47
1, 9120, Control_c, 6, 7, 70
1, 9131, Note_off_c, 6, 69, 64
1, 9173, Note_off_c, 5, 88, 64
1, 9180, Control_c, 6, 7, 69
1, 9210, Control_c, 6, 7, 68
1, 9240, Control_c, 6, 7, 68
1, 9270, Control_c, 6, 7, 67
1, 9300, Control_c, 6, 7, 66
1, 9330, Control_c, 6, 7, 65
1, 9360, Control_c, 6, 7, 64
1, 9390, Control_c, 6, 7, 62
1, 9420, Control_c, 6, 7, 61
1, 9438, Pitch_bend_c, 1, 8116
1, 9449, Pitch_bend_c, 1, 7812
1, 9450, Control_c, 6, 7, 59
1, 9460, Pitch_bend_c, 1, 7509
1, 9471, Pitch_bend_c, 1, 7130
1, 9480, Control_c, 6, 7, 56
1, 9483, Pitch_bend_c, 1, 6826
1, 9494, Pitch_bend_c, 1, 6523
1, 9503, Note_off_c, 6, 67, 64
1, 9505, Pitch_bend_c, 1, 5992
1, 9510, Control_c, 6, 7, 53
1, 9516, Pitch_bend_c, 1, 5385
1, 9527, Pitch_bend_c, 1, 4626
1, 9538, Pitch_bend_c, 1, 3792
1, 9540, Control_c, 6, 7, 49
1, 9549, Pitch_bend_c, 1, 2730
1, 9560, Pitch_bend_c, 1, 1441
1, 9570, Control_c, 6, 7, 42
1, 9571, Pitch_bend_c, 1, 151
1, 9583, Pitch_bend_c, 1, 0
1, 9585, Control_c, 6, 7, 40
1, 9586, Control_c, 2, 64, 0
1, 9587, Note_off_c, 8, 79, 64
1, 9589, Note_off_c, 1, 45, 64
1, 9592, Control_c, 5, 64, 0
1, 9594, Note_on_c, 7, 65, 75
1, 9594, Note_off_c, 7, 57, 64
1, 9594, Note_on_c, 7, 50, 69
1, 9595, Note_on_c, 2, 62, 92
1, 9595, Note_on_c, 9, 36, 71
1, 9596, Pitch_bend_c, 1, 8192
1, 9596, Note_on_c, 7, 57, 67
1, 9599, Control_c, 6, 7, 38
1, 9599, Control_c, 7, 7, 72
1, 9599, Control_c, 8, 7, 75
1, 9599, Note_on_c, 9, 42, 92
1, 9600, Note_on_c, 1, 38, 115
1, 9600, Control_c, 6, 7, 34
1, 9600, Control_c, 7, 7, 72
1, 9604, Note_off_c, 7, 67, 64
1, 9612, Note_off_c, 7, 50, 64
1, 9613, Control_c, 2, 64, 127
1, 9653, Note_off_c, 9, 42, 64
1, 9676, Note_off_c, 9, 36, 64
1, 9718, Note_on_c, 9, 27, 71
1, 9720, Note_on_c, 9, 42, 64
1, 9766, Note_off_c, 9, 27, 64
1, 9786, Note_off_c, 9, 42, 64
1, 9836, Note_on_c, 9, 36, 69
1, 9840, Note_on_c, 2, 69, 77
1, 9840, Note_on_c, 9, 42, 80
1, 9875, Note_off_c, 2, 62, 64
1, 9909, Note_off_c, 9, 36, 64
1, 9916, Note_off_c, 9, 42, 64
1, 10053, Note_off_c, 2, 69, 64
1, 10077, Note_on_c, 2, 74, 96
1, 10078, Note_on_c, 9, 42, 96
1, 10078, Note_on_c, 9, 37, 105
1, 10079, Note_on_c, 9, 27, 77
1, 10103, Note_off_c, 9, 27, 64
1, 10124, Note_off_c, 9, 37, 64
1, 10136, Note_off_c, 9, 42, 64
1, 10173, Note_off_c, 2, 74, 64
1, 10314, Note_on_c, 2, 77, 100
1, 10317, Note_on_c, 9, 42, 86
1, 10318, Note_on_c, 3, 55, 100
1, 10318, Lyric_t, "I "
1, 10372, Note_off_c, 9, 42, 64
1, 10438, Note_on_c, 9, 42, 63
1, 10440, Note_on_c, 9, 36, 60
1, 10442, Note_on_c, 9, 27, 74
1, 10465, Note_off_c, 9, 27, 64
1, 10493, Note_off_c, 9, 42, 64
1, 10505, Note_off_c, 3, 55, 64
1, 10518, Note_off_c, 9, 36, 64
1, 10527, Note_off_c, 2, 77, 64
1, 10559, Note_on_c, 7, 64, 75
1, 10559, Note_on_c, 9, 42, 80
1, 10565, Note_on_c, 3, 57, 110
1, 10565, Lyric_t, "thought "
1, 10592, Note_off_c, 7, 65, 64
1, 10609, Note_off_c, 9, 42, 64
1, 10678, Note_on_c, 9, 27, 68
1, 10678, Note_on_c, 9, 32, 59
1, 10680, Note_on_c, 9, 42, 60
1, 10719, Note_off_c, 9, 27, 64
1, 10720, Note_off_c, 9, 42, 64
1, 10740, Note_off_c, 9, 32, 64
1, 10778, Control_c, 3, 1, 9
1, 10786, Note_on_c, 2, 76, 110
1, 10798, Note_on_c, 9, 42, 92
1, 10800, Note_on_c, 9, 36, 69
1, 10834, Control_c, 3, 1, 19
1, 10853, Note_off_c, 9, 42, 64
1, 10867, Control_c, 3, 1, 32
1, 10873, Note_off_c, 9, 36, 64
1, 10911, Control_c, 3, 1, 58
1, 10945, Control_c, 3, 1, 68
1, 10989, Control_c, 3, 1, 56
1, 11022, Control_c, 3, 1, 0
1, 11024, Note_off_c, 3, 57, 64
1, 11037, Note_on_c, 9, 42, 92
1, 11039, Note_on_c, 9, 27, 74
1, 11040, Note_on_c, 9, 37, 100
1, 11041, Note_off_c, 2, 76, 64
1, 11045, Note_on_c, 3, 55, 105
1, 11045, Lyric_t, "I "
1, 11067, Note_off_c, 9, 27, 64
1, 11086, Note_off_c, 9, 37, 64
1, 11087, Note_off_c, 9, 42, 64
1, 11248, Note_off_c, 3, 55, 64
1, 11277, Note_on_c, 9, 42, 83
1, 11278, Note_on_c, 2, 69, 100
1, 11287, Note_on_c, 3, 57, 105
1, 11287, Lyric_t, "saw \015"
1, 11329, Note_off_c, 9, 42, 64
1, 11396, Note_on_c, 9, 32, 71
1, 11397, Note_on_c, 9, 42, 67
1, 11401, Note_on_c, 9, 27, 71
1, 11435, Note_off_c, 9, 27, 64
1, 11445, Note_off_c, 9, 42, 64
1, 11462, Note_off_c, 9, 32, 64
1, 11491, Note_off_c, 2, 69, 64
1, 11500, Control_c, 3, 1, 2
1, 11514, Note_on_c, 7, 65, 80
1, 11518, Note_on_c, 9, 36, 67
1, 11518, Note_on_c, 9, 42, 83
1, 11536, Note_off_c, 7, 64, 64
1, 11544, Control_c, 3, 1, 12
1, 11575, Note_off_c, 9, 42, 64
1, 11577, Control_c, 3, 1, 19
1, 11594, Note_off_c, 9, 36, 64
1, 11611, Control_c, 3, 1, 26
1, 11640, Note_on_c, 9, 42, 69
1, 11640, Note_on_c, 9, 27, 74
1, 11655, Control_c, 3, 1, 36
1, 11686, Note_off_c, 9, 27, 64
1, 11699, Control_c, 3, 1, 41
1, 11699, Note_off_c, 9, 42, 64
1, 11744, Control_c, 3, 1, 46
1, 11759, Note_on_c, 9, 36, 64
1, 11760, Note_on_c, 9, 42, 89
1, 11800, Control_c, 3, 1, 58
1, 11815, Note_off_c, 9, 42, 64
1, 11821, Note_off_c, 9, 36, 64
1, 11844, Control_c, 3, 1, 76
1, 11877, Control_c, 3, 1, 86
1, 11910, Control_c, 3, 1, 68
1, 11943, Control_c, 3, 1, 0
1, 11962, Note_off_c, 3, 57, 64
1, 11990, Note_on_c, 3, 55, 100
1, 11990, Lyric_t, "you "
1, 11997, Note_on_c, 9, 37, 105
1, 11998, Note_on_c, 9, 42, 89
1, 11999, Note_on_c, 9, 27, 81
1, 12042, Note_off_c, 9, 27, 64
1, 12045, Note_off_c, 9, 37, 64
1, 12047, Note_off_c, 9, 42, 64
1, 12222, Note_off_c, 3, 55, 64
1, 12235, Note_on_c, 9, 42, 83
1, 12239, Note_on_c, 3, 57, 100
1, 12239, Lyric_t, "late "
1, 12287, Note_off_c, 9, 42, 64
1, 12356, Note_on_c, 9, 42, 71
1, 12358, Note_on_c, 9, 27, 71
1, 12359, Note_on_c, 9, 36, 69
1, 12376, Control_c, 3, 1, 9
1, 12397, Note_off_c, 9, 27, 64
1, 12407, Note_off_c, 9, 42, 64
1, 12421, Control_c, 3, 1, 27
1, 12434, Note_off_c, 9, 36, 64
1, 12454, Control_c, 3, 1, 41
1, 12472, Note_on_c, 7, 67, 80
1, 12478, Note_on_c, 9, 42, 86
1, 12497, Control_c, 3, 1, 51
1, 12504, Note_off_c, 7, 65, 64
1, 12546, Note_off_c, 9, 42, 64
1, 12553, Control_c, 3, 1, 51
1, 12586, Control_c, 3, 1, 0
1, 12596, Note_on_c, 9, 27, 71
1, 12597, Note_on_c, 9, 32, 60
1, 12600, Note_on_c, 9, 42, 69
1, 12640, Note_off_c, 9, 27, 64
1, 12656, Note_off_c, 9, 42, 64
1, 12671, Note_off_c, 9, 32, 64
1, 12681, Note_off_c, 3, 57, 64
1, 12707, Pitch_bend_c, 3, 6978
1, 12718, Pitch_bend_c, 3, 4551
1, 12719, Note_on_c, 9, 36, 65
1, 12720, Note_on_c, 9, 42, 92
1, 12722, Note_on_c, 3, 58, 105
1, 12722, Lyric_t, "last "
1, 12729, Pitch_bend_c, 3, 3034
1, 12740, Pitch_bend_c, 3, 2654
1, 12773, Pitch_bend_c, 3, 3185
1, 12779, Note_off_c, 9, 42, 64
1, 12784, Pitch_bend_c, 3, 4551
1, 12785, Note_off_c, 9, 36, 64
1, 12796, Pitch_bend_c, 3, 7509
1, 12807, Pitch_bend_c, 3, 8192
1, 12888, Note_off_c, 1, 38, 64
1, 12957, Note_on_c, 1, 50, 105
1, 12958, Note_on_c, 9, 27, 77
1, 12959, Note_on_c, 9, 37, 105
1, 12959, Note_on_c, 9, 42, 89
1, 13005, Note_off_c, 9, 27, 64
1, 13005, Note_off_c, 9, 42, 64
1, 13013, Note_off_c, 9, 37, 64
1, 13144, Note_off_c, 3, 58, 64
1, 13198, Note_on_c, 9, 42, 89
1, 13203, Note_on_c, 3, 57, 110
1, 13203, Lyric_t, "night\015"
1, 13255, Note_off_c, 9, 42, 64
1, 13319, Note_on_c, 9, 42, 64
1, 13321, Note_on_c, 9, 27, 71
1, 13322, Note_on_c, 9, 32, 55
1, 13355, Control_c, 2, 64, 0
1, 13363, Note_off_c, 9, 27, 64
1, 13367, Note_off_c, 9, 42, 64
1, 13377, Note_off_c, 1, 50, 64
1, 13387, Note_off_c, 9, 32, 64
1, 13430, Note_on_c, 7, 48, 61
1, 13432, Note_on_c, 7, 62, 73
1, 13433, Note_on_c, 7, 69, 80
1, 13435, Note_on_c, 7, 57, 65
1, 13436, Note_on_c, 1, 48, 110
1, 13436, Note_off_c, 7, 57, 64
1, 13437, Note_on_c, 2, 62, 92
1, 13437, Note_off_c, 7, 62, 64
1, 13440, Tempo, 618937
1, 13441, Note_on_c, 9, 42, 89
1, 13441, Note_on_c, 9, 36, 64
1, 13444, Note_off_c, 7, 50, 64
1, 13447, Note_off_c, 7, 67, 64
1, 13474, Control_c, 3, 1, 11
1, 13492, Note_off_c, 9, 42, 64
1, 13512, Note_off_c, 9, 36, 64
1, 13518, Control_c, 3, 1, 21
1, 13551, Control_c, 3, 1, 34
1, 13559, Note_on_c, 9, 27, 60
1, 13561, Note_on_c, 9, 42, 67
1, 13593, Control_c, 2, 64, 127
1, 13596, Control_c, 3, 1, 46
1, 13602, Note_off_c, 9, 27, 64
1, 13610, Note_off_c, 9, 42, 64
1, 13640, Control_c, 3, 1, 56
1, 13675, Note_on_c, 2, 69, 96
1, 13679, Note_on_c, 9, 36, 64
1, 13679, Note_on_c, 9, 42, 92
1, 13697, Note_off_c, 3, 57, 64
1, 13710, Note_off_c, 2, 62, 64
1, 13719, Control_c, 3, 1, 0
1, 13732, Note_off_c, 9, 42, 64
1, 13751, Note_off_c, 9, 36, 64
1, 13901, Note_off_c, 2, 69, 64
1, 13912, Note_on_c, 2, 74, 86
1, 13914, Note_on_c, 7, 65, 77
1, 13918, Note_on_c, 9, 27, 77
1, 13918, Note_on_c, 9, 42, 92
1, 13920, Note_on_c, 9, 37, 105
1, 13953, Note_off_c, 7, 69, 64
1, 13964, Note_off_c, 9, 42, 64
1, 13967, Note_off_c, 9, 27, 64
1, 13972, Note_off_c, 9, 37, 64
1, 13993, Note_off_c, 2, 74, 64
1, 14143, Note_on_c, 2, 77, 96
1, 14155, Note_on_c, 9, 42, 83
1, 14156, Note_on_c, 3, 50, 92
1, 14156, Lyric_t, "but "
1, 14207, Note_off_c, 9, 42, 64
1, 14276, Note_on_c, 9, 42, 67
1, 14278, Note_on_c, 9, 36, 65
1, 14280, Note_on_c, 9, 27, 68
1, 14319, Note_off_c, 9, 27, 64
1, 14331, Note_off_c, 9, 42, 64
1, 14348, Note_off_c, 2, 77, 64
1, 14349, Note_off_c, 9, 36, 64
1, 14359, Note_off_c, 3, 50, 64
1, 14396, Note_on_c, 3, 57, 110
1, 14396, Lyric_t, "it "
1, 14397, Note_on_c, 9, 42, 86
1, 14404, Note_on_c, 7, 64, 71
1, 14459, Note_off_c, 7, 65, 64
1, 14463, Note_off_c, 9, 42, 64
1, 14516, Note_on_c, 9, 32, 58
1, 14516, Note_on_c, 9, 27, 71
1, 14519, Note_on_c, 9, 42, 64
1, 14562, Note_off_c, 9, 27, 64
1, 14568, Note_off_c, 9, 42, 64
1, 14590, Note_off_c, 9, 32, 64
1, 14629, Note_on_c, 2, 76, 110
1, 14633, Control_c, 3, 1, 2
1, 14636, Note_on_c, 9, 42, 92
1, 14638, Note_on_c, 9, 36, 64
1, 14678, Control_c, 3, 1, 17
1, 14695, Note_off_c, 9, 42, 64
1, 14707, Note_off_c, 9, 36, 64
1, 14711, Control_c, 3, 1, 32
1, 14744, Control_c, 3, 1, 48
1, 14778, Control_c, 3, 1, 58
1, 14811, Control_c, 3, 1, 48
1, 14837, Note_off_c, 3, 57, 64
1, 14845, Control_c, 3, 1, 0
1, 14860, Note_off_c, 2, 76, 64
1, 14873, Note_on_c, 3, 58, 96
1, 14873, Lyric_t, "was "
1, 14877, Note_on_c, 9, 42, 96
1, 14877, Note_on_c, 9, 27, 77
1, 14879, Note_on_c, 9, 37, 100
1, 14931, Note_off_c, 9, 37, 64
1, 14931, Note_off_c, 9, 27, 64
1, 14934, Note_off_c, 9, 42, 64
1, 15096, Note_off_c, 3, 58, 64
1, 15112, Note_on_c, 2, 69, 105
1, 15115, Note_on_c, 9, 42, 86
1, 15121, Note_on_c, 3, 60, 100
1, 15121, Lyric_t, "just \015"
1, 15176, Note_off_c, 9, 42, 64
1, 15237, Note_on_c, 9, 42, 62
1, 15238, Note_on_c, 9, 32, 58
1, 15240, Note_on_c, 9, 27, 65
1, 15288, Note_off_c, 9, 27, 64
1, 15290, Note_off_c, 9, 42, 64
1, 15300, Note_off_c, 9, 32, 64
1, 15334, Control_c, 3, 1, 1
1, 15356, Note_on_c, 9, 42, 86
1, 15357, Note_on_c, 9, 36, 64
1, 15367, Control_c, 3, 1, 6
1, 15393, Note_off_c, 2, 69, 64
1, 15401, Control_c, 3, 1, 11
1, 15416, Note_off_c, 9, 42, 64
1, 15428, Note_off_c, 9, 36, 64
1, 15445, Control_c, 3, 1, 16
1, 15477, Note_on_c, 9, 27, 62
1, 15479, Control_c, 3, 1, 21
1, 15479, Note_on_c, 9, 42, 71
1, 15523, Note_off_c, 9, 27, 64
1, 15529, Note_off_c, 9, 42, 64
1, 15534, Control_c, 3, 1, 31
1, 15568, Control_c, 3, 1, 36
1, 15596, Note_on_c, 9, 36, 61
1, 15597, Note_on_c, 9, 42, 92
1, 15623, Control_c, 3, 1, 41
1, 15645, Note_off_c, 9, 42, 64
1, 15669, Note_off_c, 9, 36, 64
1, 15679, Control_c, 3, 1, 51
1, 15723, Control_c, 3, 1, 63
1, 15812, Control_c, 3, 1, 0
1, 15822, Note_on_c, 7, 65, 80
1, 15823, Note_off_c, 7, 64, 64
1, 15829, Note_off_c, 3, 60, 64
1, 15838, Note_on_c, 9, 42, 92
1, 15839, Note_on_c, 9, 27, 77
1, 15840, Note_on_c, 3, 62, 96
1, 15840, Lyric_t, "a "
1, 15841, Note_on_c, 9, 37, 100
1, 15887, Note_off_c, 9, 42, 64
1, 15893, Note_off_c, 9, 37, 64
1, 15903, Note_off_c, 9, 27, 64
1, 16075, Note_on_c, 2, 67, 100
1, 16075, Note_on_c, 9, 42, 80
1, 16077, Note_off_c, 3, 62, 64
1, 16086, Note_on_c, 3, 57, 105
1, 16086, Lyric_t, "flash "
1, 16126, Note_off_c, 9, 42, 64
1, 16190, Note_off_c, 2, 67, 64
1, 16196, Note_on_c, 9, 36, 60
1, 16196, Note_on_c, 9, 42, 67
1, 16201, Note_on_c, 9, 27, 65
1, 16239, Note_off_c, 9, 27, 64
1, 16248, Note_off_c, 9, 42, 64
1, 16278, Note_off_c, 9, 36, 64
1, 16280, Control_c, 3, 1, 12
1, 16313, Control_c, 3, 1, 19
1, 16316, Note_on_c, 9, 42, 86
1, 16347, Control_c, 3, 1, 31
1, 16378, Note_off_c, 9, 42, 64
1, 16391, Control_c, 3, 1, 41
1, 16424, Control_c, 3, 1, 56
1, 16435, Note_on_c, 9, 32, 57
1, 16438, Note_on_c, 9, 42, 71
1, 16439, Note_on_c, 9, 27, 68
1, 16458, Control_c, 3, 1, 66
1, 16483, Note_off_c, 9, 27, 64
1, 16490, Note_off_c, 9, 42, 64
1, 16502, Control_c, 3, 1, 48
1, 16521, Note_off_c, 9, 32, 64
1, 16530, Note_off_c, 3, 57, 64
1, 16536, Control_c, 3, 1, 0
1, 16557, Note_on_c, 9, 36, 61
1, 16559, Note_on_c, 9, 42, 89
1, 16562, Note_on_c, 3, 55, 100
1, 16562, Lyric_t, "of "
1, 16631, Note_off_c, 9, 36, 64
1, 16637, Note_off_c, 9, 42, 64
1, 16782, Note_on_c, 7, 67, 75
1, 16796, Note_on_c, 9, 42, 96
1, 16798, Note_on_c, 9, 37, 100
1, 16799, Note_on_c, 9, 27, 74
1, 16810, Note_off_c, 7, 65, 64
1, 16845, Note_off_c, 9, 37, 64
1, 16853, Note_off_c, 9, 27, 64
1, 16854, Note_off_c, 9, 42, 64
1, 17016, Note_off_c, 3, 55, 64
1, 17035, Pitch_bend_c, 3, 6750
1, 17036, Note_on_c, 9, 42, 89
1, 17044, Note_on_c, 3, 57, 110
1, 17044, Lyric_t, "light.\015"
1, 17046, Pitch_bend_c, 3, 5309
1, 17057, Pitch_bend_c, 3, 4551
1, 17091, Pitch_bend_c, 3, 5537
1, 17101, Note_off_c, 9, 42, 64
1, 17102, Pitch_bend_c, 3, 7661
1, 17113, Pitch_bend_c, 3, 8192
1, 17157, Note_on_c, 9, 42, 65
1, 17158, Note_on_c, 9, 32, 59
1, 17164, Note_on_c, 9, 27, 62
1, 17207, Note_off_c, 9, 42, 64
1, 17208, Note_off_c, 9, 27, 64
1, 17226, Note_off_c, 1, 48, 64
1, 17229, Note_off_c, 9, 32, 64
1, 17233, Control_c, 2, 64, 0
1, 17275, Note_on_c, 10, 86, 89
1, 17277, Note_on_c, 7, 58, 61
1, 17278, Note_on_c, 7, 46, 65
1, 17278, Note_on_c, 9, 42, 89
1, 17279, Note_on_c, 7, 67, 75
1, 17279, Note_on_c, 9, 36, 58
1, 17280, Note_on_c, 7, 62, 77
1, 17280, Control_c, 10, 7, 0
1, 17281, Note_on_c, 1, 46, 110
1, 17282, Note_on_c, 2, 57, 89
1, 17285, Note_off_c, 7, 57, 64
1, 17290, Note_off_c, 7, 62, 64
1, 17310, Note_off_c, 7, 48, 64
1, 17314, Note_off_c, 7, 67, 64
1, 17340, Control_c, 10, 7, 3
1, 17341, Note_off_c, 9, 42, 64
1, 17360, Note_off_c, 9, 36, 64
1, 17398, Note_on_c, 9, 42, 73
1, 17400, Control_c, 10, 7, 6
1, 17403, Control_c, 3, 1, 12
1, 17403, Note_on_c, 9, 27, 68
1, 17437, Control_c, 3, 1, 22
1, 17448, Note_off_c, 9, 27, 64
1, 17452, Note_off_c, 9, 42, 64
1, 17460, Control_c, 10, 7, 9
1, 17481, Control_c, 3, 1, 34
1, 17517, Note_on_c, 9, 36, 64
1, 17518, Note_on_c, 9, 42, 92
1, 17520, Note_on_c, 2, 58, 100
1, 17520, Control_c, 10, 7, 12
1, 17526, Control_c, 3, 1, 44
1, 17529, Note_off_c, 2, 57, 64
1, 17570, Control_c, 3, 1, 56
1, 17580, Control_c, 10, 7, 14
1, 17594, Note_off_c, 9, 36, 64
1, 17605, Note_off_c, 9, 42, 64
1, 17615, Control_c, 3, 1, 66
1, 17640, Control_c, 10, 7, 17
1, 17665, Note_off_c, 3, 57, 64
1, 17682, Control_c, 3, 1, 0
1, 17700, Control_c, 10, 7, 19
1, 17731, Control_c, 2, 64, 127
1, 17757, Note_on_c, 9, 42, 100
1, 17758, Note_on_c, 9, 37, 100
1, 17760, Control_c, 10, 7, 21
1, 17761, Note_on_c, 9, 27, 77
1, 17811, Note_off_c, 9, 42, 64
1, 17813, Note_off_c, 9, 37, 64
1, 17814, Note_off_c, 9, 27, 64
1, 17820, Control_c, 10, 7, 23
1, 17880, Control_c, 10, 7, 25
1, 17940, Control_c, 10, 7, 26
1, 17996, Note_on_c, 9, 42, 77
1, 18000, Control_c, 10, 7, 28
1, 18003, Note_on_c, 2, 79, 115
1, 18052, Note_off_c, 9, 42, 64
1, 18060, Control_c, 10, 7, 29
1, 18116, Note_on_c, 9, 42, 61
1, 18118, Note_on_c, 9, 36, 60
1, 18120, Note_on_c, 9, 27, 60
1, 18120, Control_c, 10, 7, 31
1, 18163, Note_off_c, 9, 27, 64
1, 18168, Note_off_c, 9, 42, 64
1, 18180, Control_c, 8, 7, 75
1, 18180, Control_c, 10, 7, 32
1, 18192, Note_off_c, 9, 36, 64
1, 18210, Control_c, 8, 7, 73
1, 18215, Note_off_c, 7, 67, 64
1, 18233, Note_off_c, 2, 79, 64
1, 18236, Note_on_c, 9, 42, 89
1, 18240, Control_c, 8, 7, 70
1, 18240, Control_c, 10, 7, 34
1, 18270, Control_c, 8, 7, 68
1, 18290, Note_off_c, 9, 42, 64
1, 18300, Control_c, 8, 7, 66
1, 18300, Control_c, 10, 7, 34
1, 18330, Control_c, 8, 7, 64
1, 18355, Note_on_c, 9, 32, 57
1, 18356, Note_on_c, 9, 42, 69
1, 18358, Note_on_c, 9, 27, 56
1, 18360, Control_c, 8, 7, 62
1, 18360, Control_c, 10, 7, 35
1, 18390, Control_c, 8, 7, 59
1, 18407, Note_off_c, 9, 27, 64
1, 18411, Note_off_c, 9, 42, 64
1, 18420, Control_c, 8, 7, 57
1, 18420, Control_c, 10, 7, 37
1, 18434, Note_off_c, 9, 32, 64
1, 18450, Control_c, 8, 7, 55
1, 18475, Note_on_c, 9, 42, 96
1, 18477, Note_on_c, 2, 77, 110
1, 18477, Note_on_c, 9, 36, 59
1, 18480, Control_c, 8, 7, 53
1, 18480, Control_c, 10, 7, 38
1, 18510, Control_c, 8, 7, 50
1, 18527, Note_off_c, 9, 42, 64
1, 18540, Control_c, 8, 7, 49
1, 18540, Control_c, 10, 7, 39
1, 18549, Note_off_c, 9, 36, 64
1, 18570, Control_c, 8, 7, 46
1, 18600, Control_c, 8, 7, 44
1, 18600, Control_c, 10, 7, 40
1, 18630, Control_c, 8, 7, 42
1, 18632, Note_off_c, 2, 77, 64
1, 18660, Control_c, 8, 7, 40
1, 18660, Control_c, 10, 7, 41
1, 18690, Control_c, 8, 7, 37
1, 18708, Note_off_c, 2, 58, 64
1, 18716, Note_on_c, 9, 42, 86
1, 18718, Note_on_c, 9, 27, 71
1, 18720, Control_c, 8, 7, 35
1, 18720, Control_c, 10, 7, 41
1, 18721, Note_on_c, 3, 50, 89
1, 18721, Note_on_c, 9, 37, 100
1, 18721, Lyric_t, "An "
1, 18750, Control_c, 8, 7, 33
1, 18762, Note_off_c, 9, 42, 64
1, 18773, Note_off_c, 9, 27, 64
1, 18775, Note_off_c, 9, 37, 64
1, 18780, Control_c, 8, 7, 31
1, 18780, Control_c, 10, 7, 42
1, 18810, Control_c, 8, 7, 28
1, 18840, Control_c, 8, 7, 26
1, 18840, Control_c, 10, 7, 43
1, 18870, Control_c, 8, 7, 24
1, 18900, Control_c, 8, 7, 22
1, 18900, Control_c, 10, 7, 43
1, 18930, Control_c, 8, 7, 20
1, 18957, Note_on_c, 9, 42, 83
1, 18960, Control_c, 8, 7, 18
1, 18960, Control_c, 10, 7, 44
1, 18965, Note_off_c, 3, 50, 64
1, 18967, Pitch_bend_c, 3, 5992
1, 18974, Note_on_c, 3, 57, 105
1, 18974, Lyric_t, "an"
1, 18979, Pitch_bend_c, 3, 3489
1, 18990, Pitch_bend_c, 3, 2427
1, 18990, Control_c, 8, 7, 15
1, 19004, Note_off_c, 9, 42, 64
1, 19020, Control_c, 8, 7, 13
1, 19020, Control_c, 10, 7, 45
1, 19023, Pitch_bend_c, 3, 3185
1, 19034, Pitch_bend_c, 3, 4247
1, 19045, Pitch_bend_c, 3, 6371
1, 19050, Control_c, 8, 7, 11
1, 19056, Pitch_bend_c, 3, 8192
1, 19077, Note_on_c, 9, 42, 63
1, 19078, Note_on_c, 9, 32, 55
1, 19079, Note_on_c, 9, 27, 68
1, 19080, Control_c, 8, 7, 9
1, 19080, Control_c, 10, 7, 46
1, 19110, Control_c, 8, 7, 7
1, 19123, Note_off_c, 9, 42, 64
1, 19130, Note_off_c, 9, 27, 64
1, 19140, Control_c, 8, 7, 4
1, 19140, Control_c, 10, 7, 46
1, 19152, Note_off_c, 9, 32, 64
1, 19164, Note_off_c, 1, 46, 64
1, 19170, Control_c, 8, 7, 2
1, 19177, Control_c, 2, 64, 0
1, 19180, Note_off_c, 7, 58, 64
1, 19194, Note_on_c, 7, 65, 75
1, 19197, Note_on_c, 9, 36, 63
1, 19198, Note_on_c, 7, 45, 69
1, 19198, Note_on_c, 9, 42, 92
1, 19199, Note_on_c, 7, 57, 57
1, 19199, Note_on_c, 8, 79, 100
1, 19200, Control_c, 8, 7, 0
1, 19200, Control_c, 10, 7, 47
1, 19203, Note_on_c, 1, 45, 115
1, 19205, Note_on_c, 2, 57, 96
1, 19210, Note_off_c, 7, 46, 64
1, 19230, Control_c, 8, 7, 0
1, 19259, Note_off_c, 9, 42, 64
1, 19260, Control_c, 8, 7, 1
1, 19260, Control_c, 10, 7, 48
1, 19279, Note_off_c, 9, 36, 64
1, 19290, Control_c, 8, 7, 2
1, 19314, Control_c, 3, 1, 26
1, 19319, Note_on_c, 9, 27, 52
1, 19319, Note_on_c, 9, 42, 71
1, 19320, Control_c, 8, 7, 4
1, 19320, Control_c, 10, 7, 48
1, 19347, Control_c, 3, 1, 51
1, 19350, Control_c, 8, 7, 5
1, 19361, Note_off_c, 9, 27, 64
1, 19377, Note_off_c, 9, 42, 64
1, 19380, Control_c, 8, 7, 6
1, 19380, Control_c, 10, 7, 49
1, 19391, Control_c, 3, 1, 44
1, 19410, Control_c, 8, 7, 7
1, 19425, Control_c, 3, 1, 0
1, 19435, Note_off_c, 3, 57, 64
1, 19436, Note_on_c, 9, 36, 63
1, 19438, Note_on_c, 9, 42, 92
1, 19440, Control_c, 8, 7, 8
1, 19440, Control_c, 10, 7, 49
1, 19466, Note_on_c, 3, 55, 100
1, 19466, Lyric_t, "gel "
1, 19470, Control_c, 8, 7, 10
1, 19474, Control_c, 2, 64, 127
1, 19496, Note_off_c, 9, 42, 64
1, 19500, Control_c, 8, 7, 11
1, 19500, Control_c, 10, 7, 50
1, 19514, Note_off_c, 9, 36, 64
1, 19530, Control_c, 8, 7, 12
1, 19560, Control_c, 8, 7, 13
1, 19560, Control_c, 10, 7, 50
1, 19590, Control_c, 8, 7, 14
1, 19620, Control_c, 8, 7, 15
1, 19620, Control_c, 10, 7, 51
1, 19650, Control_c, 8, 7, 17
1, 19677, Note_on_c, 9, 42, 92
1, 19678, Note_on_c, 9, 37, 100
1, 19680, Control_c, 8, 7, 18
1, 19680, Control_c, 10, 7, 51
1, 19682, Note_on_c, 9, 27, 77
1, 19710, Control_c, 8, 7, 19
1, 19730, Note_off_c, 9, 27, 64
1, 19734, Note_off_c, 9, 42, 64
1, 19735, Note_off_c, 9, 37, 64
1, 19740, Control_c, 8, 7, 20
1, 19740, Control_c, 10, 7, 51
1, 19770, Control_c, 8, 7, 21
1, 19781, Control_c, 3, 1, 34
1, 19800, Control_c, 8, 7, 23
1, 19800, Control_c, 10, 7, 52
1, 19814, Control_c, 3, 1, 61
1, 19830, Control_c, 8, 7, 24
1, 19859, Control_c, 3, 1, 49
1, 19860, Control_c, 8, 7, 25
1, 19860, Control_c, 10, 7, 52
1, 19890, Control_c, 8, 7, 26
1, 19893, Control_c, 3, 1, 0
1, 19916, Note_off_c, 3, 55, 64
1, 19917, Note_on_c, 9, 42, 89
1, 19920, Control_c, 8, 7, 27
1, 19920, Control_c, 10, 7, 53
1, 19923, Note_on_c, 2, 77, 115
1, 19939, Note_off_c, 2, 57, 64
1, 19942, Note_on_c, 3, 53, 110
1, 19942, Lyric_t, "pass"
1, 19950, Control_c, 8, 7, 28
1, 19980, Control_c, 8, 7, 30
1, 19980, Note_off_c, 9, 42, 64
1, 20010, Control_c, 8, 7, 31
1, 20038, Note_on_c, 9, 36, 63
1, 20038, Note_on_c, 9, 42, 63
1, 20040, Control_c, 8, 7, 32
1, 20040, Control_c, 10, 7, 53
1, 20043, Note_on_c, 9, 27, 62
1, 20070, Control_c, 8, 7, 33
1, 20077, Note_off_c, 9, 27, 64
1, 20087, Note_off_c, 9, 42, 64
1, 20100, Control_c, 8, 7, 34
1, 20100, Control_c, 10, 7, 54
1, 20123, Note_off_c, 9, 36, 64
1, 20128, Note_off_c, 2, 77, 64
1, 20130, Control_c, 8, 7, 36
1, 20133, Note_off_c, 7, 65, 64
1, 20145, Note_on_c, 7, 64, 75
1, 20157, Note_on_c, 9, 42, 86
1, 20159, Note_on_c, 10, 88, 80
1, 20160, Control_c, 8, 7, 37
1, 20160, Control_c, 10, 7, 54
1, 20190, Control_c, 8, 7, 38
1, 20199, Note_off_c, 10, 86, 64
1, 20217, Note_off_c, 9, 42, 64
1, 20220, Control_c, 8, 7, 39
1, 20220, Control_c, 10, 7, 55
1, 20250, Control_c, 8, 7, 40
1, 20278, Note_on_c, 9, 32, 57
1, 20279, Note_on_c, 9, 42, 67
1, 20280, Control_c, 8, 7, 41
1, 20281, Note_on_c, 9, 27, 60
1, 20310, Control_c, 8, 7, 43
1, 20316, Note_off_c, 9, 27, 64
1, 20332, Note_off_c, 9, 42, 64
1, 20340, Control_c, 8, 7, 44
1, 20340, Control_c, 10, 7, 55
1, 20370, Control_c, 8, 7, 45
1, 20374, Note_off_c, 9, 32, 64
1, 20383, Note_off_c, 3, 53, 64
1, 20392, Pitch_bend_c, 3, 6902
1, 20395, Note_on_c, 2, 76, 115
1, 20398, Note_on_c, 9, 42, 92
1, 20398, Note_on_c, 9, 36, 60
1, 20400, Control_c, 8, 7, 46
1, 20400, Control_c, 10, 7, 56
1, 20403, Pitch_bend_c, 3, 4551
1, 20407, Note_on_c, 3, 55, 100
1, 20407, Lyric_t, "ing.\012"
1, 20414, Pitch_bend_c, 3, 3109
1, 20425, Pitch_bend_c, 3, 2806
1, 20430, Control_c, 8, 7, 47
1, 20436, Pitch_bend_c, 3, 3109
1, 20447, Pitch_bend_c, 3, 3868
1, 20451, Note_off_c, 9, 42, 64
1, 20459, Pitch_bend_c, 3, 5385
1, 20460, Control_c, 8, 7, 49
1, 20470, Pitch_bend_c, 3, 8192
1, 20470, Note_off_c, 9, 36, 64
1, 20490, Control_c, 8, 7, 50
1, 20493, Note_off_c, 2, 76, 64
1, 20520, Control_c, 8, 7, 51
1, 20520, Control_c, 10, 7, 56
1, 20550, Control_c, 8, 7, 52
1, 20580, Control_c, 8, 7, 53
1, 20580, Control_c, 10, 7, 57
1, 20610, Control_c, 8, 7, 54
1, 20640, Control_c, 8, 7, 56
1, 20641, Note_on_c, 9, 37, 100
1, 20641, Note_on_c, 9, 42, 83
1, 20643, Note_on_c, 9, 27, 74
1, 20670, Control_c, 8, 7, 57
1, 20687, Note_off_c, 9, 42, 64
1, 20688, Note_off_c, 9, 37, 64
1, 20693, Note_off_c, 9, 27, 64
1, 20700, Control_c, 8, 7, 58
1, 20700, Control_c, 10, 7, 57
1, 20730, Control_c, 8, 7, 59
1, 20760, Control_c, 8, 7, 60
1, 20782, Control_c, 3, 1, 7
1, 20790, Control_c, 8, 7, 62
1, 20820, Control_c, 8, 7, 63
1, 20820, Control_c, 10, 7, 58
1, 20827, Control_c, 3, 1, 24
1, 20850, Control_c, 8, 7, 64
1, 20860, Control_c, 3, 1, 42
1, 20879, Note_on_c, 9, 42, 89
1, 20880, Control_c, 8, 7, 65
1, 20894, Control_c, 3, 1, 54
1, 20910, Control_c, 8, 7, 66
1, 20936, Pitch_bend_c, 1, 8116
1, 20940, Control_c, 8, 7, 67
1, 20940, Control_c, 10, 7, 58
1, 20946, Note_off_c, 3, 55, 64
1, 20946, Note_off_c, 9, 42, 64
1, 20947, Pitch_bend_c, 1, 7888
1, 20949, Control_c, 3, 1, 0
1, 20958, Pitch_bend_c, 1, 7509
1, 20969, Pitch_bend_c, 1, 7130
1, 20970, Control_c, 8, 7, 69
1, 20980, Pitch_bend_c, 1, 6674
1, 20992, Pitch_bend_c, 1, 5992
1, 20995, Note_on_c, 9, 32, 63
1, 20999, Note_on_c, 9, 42, 75
1, 21000, Control_c, 8, 7, 70
1, 21002, Note_on_c, 9, 27, 65
1, 21003, Pitch_bend_c, 1, 5157
1, 21014, Pitch_bend_c, 1, 4096
1, 21025, Pitch_bend_c, 1, 2730
1, 21028, Note_off_c, 9, 27, 64
1, 21030, Control_c, 8, 7, 71
1, 21036, Pitch_bend_c, 1, 1137
1, 21036, Note_off_c, 9, 42, 64
1, 21038, Note_off_c, 1, 45, 64
1, 21044, Note_off_c, 9, 32, 64
1, 21048, Pitch_bend_c, 1, 0
1, 21060, Control_c, 8, 7, 72
1, 21060, Control_c, 10, 7, 59
1, 21090, Control_c, 8, 7, 73
1, 21103, Control_c, 2, 64, 0
1, 21103, Note_off_c, 10, 88, 64
1, 21105, Note_off_c, 7, 62, 64
1, 21107, Note_off_c, 7, 57, 64
1, 21110, Note_on_c, 7, 64, 80
1, 21111, Pitch_bend_c, 1, 8192
1, 21111, Note_on_c, 2, 38, 80
1, 21111, Note_on_c, 7, 62, 77
1, 21112, Note_on_c, 2, 50, 89
1, 21112, Note_on_c, 7, 57, 69
1, 21112, Note_on_c, 7, 50, 73
1, 21113, Note_on_c, 1, 38, 115
1, 21119, Control_c, 7, 7, 72
1, 21119, Note_on_c, 9, 36, 110
1, 21119, Control_c, 10, 7, 59
1, 21120, Tempo, 619292
1, 21120, Control_c, 8, 7, 75
1, 21120, Note_on_c, 10, 86, 86
1, 21120, Control_c, 10, 7, 60
1, 21121, Note_on_c, 9, 42, 105
1, 21124, Note_off_c, 7, 45, 64
1, 21129, Note_off_c, 7, 64, 64
1, 21182, Note_off_c, 9, 42, 64
1, 21185, Note_off_c, 9, 36, 64
1, 21236, Note_on_c, 9, 27, 90
1, 21239, Note_on_c, 9, 24, 51
1, 21239, Note_on_c, 9, 42, 71
1, 21240, Control_c, 8, 7, 74
1, 21258, Note_off_c, 9, 27, 64
1, 21296, Note_off_c, 9, 42, 64
1, 21307, Note_off_c, 9, 24, 64
1, 21347, Note_on_c, 2, 57, 89
1, 21357, Note_on_c, 9, 24, 43
1, 21358, Note_on_c, 9, 42, 96
1, 21359, Note_on_c, 9, 36, 110
1, 21360, Control_c, 8, 7, 73
1, 21411, Note_off_c, 9, 42, 64
1, 21417, Note_off_c, 9, 24, 64
1, 21419, Control_c, 2, 64, 127
1, 21420, Note_off_c, 9, 36, 64
1, 21480, Control_c, 8, 7, 73
1, 21540, Control_c, 8, 7, 72
1, 21595, Note_on_c, 2, 62, 96
1, 21596, Note_on_c, 9, 24, 51
1, 21599, Note_on_c, 7, 65, 80
1, 21600, Note_on_c, 9, 37, 122
1, 21601, Note_on_c, 9, 27, 95
1, 21602, Note_on_c, 9, 42, 96
1, 21621, Note_off_c, 7, 64, 64
1, 21631, Note_off_c, 9, 27, 64
1, 21647, Note_off_c, 9, 24, 64
1, 21651, Note_off_c, 9, 37, 64
1, 21657, Note_off_c, 9, 42, 64
1, 21660, Control_c, 8, 7, 72
1, 21720, Control_c, 8, 7, 71
1, 21835, Note_on_c, 9, 36, 65
1, 21837, Note_on_c, 9, 24, 41
1, 21838, Note_on_c, 2, 65, 105
1, 21840, Control_c, 8, 7, 70
1, 21840, Note_on_c, 9, 42, 92
1, 21869, Note_off_c, 9, 36, 64
1, 21886, Note_off_c, 9, 24, 64
1, 21888, Note_off_c, 9, 42, 64
1, 21900, Control_c, 8, 7, 70
1, 21958, Note_on_c, 9, 42, 75
1, 21959, Note_on_c, 9, 27, 90
1, 21959, Note_on_c, 9, 36, 105
1, 21960, Control_c, 8, 7, 69
1, 21960, Note_on_c, 9, 24, 45
1, 21963, Note_on_c, 3, 50, 96
1, 21963, Lyric_t, "But "
1, 21986, Note_off_c, 9, 27, 64
1, 22007, Note_off_c, 9, 42, 64
1, 22021, Note_off_c, 9, 24, 64
1, 22026, Note_off_c, 9, 36, 64
1, 22035, Note_off_c, 3, 50, 64
1, 22077, Note_on_c, 3, 57, 115
1, 22077, Lyric_t, "I "
1, 22079, Note_on_c, 9, 42, 96
1, 22080, Control_c, 8, 7, 69
1, 22140, Control_c, 8, 7, 68
1, 22140, Note_off_c, 9, 42, 64
1, 22196, Note_on_c, 9, 27, 85
1, 22198, Note_on_c, 9, 36, 65
1, 22199, Note_on_c, 9, 42, 80
1, 22200, Control_c, 8, 7, 67
1, 22200, Note_on_c, 9, 24, 51
1, 22221, Note_off_c, 2, 65, 64
1, 22234, Note_off_c, 9, 36, 64
1, 22235, Note_off_c, 9, 27, 64
1, 22253, Note_off_c, 9, 24, 64
1, 22254, Note_off_c, 9, 42, 64
1, 22260, Control_c, 8, 7, 67
1, 22305, Note_on_c, 2, 64, 100
1, 22319, Note_on_c, 9, 36, 110
1, 22320, Control_c, 8, 7, 66
1, 22320, Note_on_c, 9, 42, 96
1, 22377, Note_off_c, 9, 36, 64
1, 22380, Control_c, 8, 7, 66
1, 22385, Note_off_c, 9, 42, 64
1, 22411, Control_c, 3, 1, 12
1, 22440, Control_c, 8, 7, 65
1, 22441, Note_on_c, 9, 24, 40
1, 22444, Control_c, 3, 1, 31
1, 22477, Control_c, 3, 1, 49
1, 22491, Note_off_c, 9, 24, 64
1, 22500, Control_c, 8, 7, 64
1, 22511, Control_c, 3, 1, 44
1, 22544, Control_c, 3, 1, 0
1, 22556, Note_on_c, 9, 27, 95
1, 22557, Note_on_c, 7, 64, 73
1, 22560, Control_c, 8, 7, 64
1, 22561, Note_on_c, 9, 24, 53
1, 22561, Note_on_c, 9, 37, 115
1, 22562, Note_on_c, 9, 42, 96
1, 22570, Note_on_c, 3, 58, 100
1, 22570, Lyric_t, "re"
1, 22586, Note_off_c, 3, 57, 64
1, 22588, Note_off_c, 7, 65, 64
1, 22593, Note_off_c, 9, 27, 64
1, 22607, Note_off_c, 9, 42, 64
1, 22614, Note_off_c, 9, 24, 64
1, 22619, Note_off_c, 9, 37, 64
1, 22620, Control_c, 8, 7, 63
1, 22680, Control_c, 8, 7, 63
1, 22740, Control_c, 8, 7, 62
1, 22750, Note_off_c, 1, 38, 64
1, 22793, Note_on_c, 1, 33, 96
1, 22798, Note_on_c, 9, 24, 42
1, 22798, Note_on_c, 9, 42, 100
1, 22800, Control_c, 8, 7, 62
1, 22808, Note_on_c, 3, 60, 105
1, 22808, Lyric_t, "mem"
1, 22819, Note_off_c, 3, 58, 64
1, 22856, Note_off_c, 9, 24, 64
1, 22859, Note_off_c, 9, 42, 64
1, 22860, Control_c, 8, 7, 61
1, 22913, Note_on_c, 1, 36, 96
1, 22916, Note_off_c, 1, 33, 64
1, 22918, Note_on_c, 9, 36, 80
1, 22918, Note_on_c, 9, 42, 80
1, 22919, Note_on_c, 9, 24, 49
1, 22920, Control_c, 8, 7, 60
1, 22920, Note_on_c, 9, 27, 90
1, 22950, Note_off_c, 9, 27, 64
1, 22967, Note_off_c, 9, 36, 64
1, 22969, Note_off_c, 9, 42, 64
1, 22976, Note_off_c, 9, 24, 64
1, 22980, Control_c, 8, 7, 59
1, 22995, Note_off_c, 1, 36, 64
1, 23035, Note_on_c, 1, 38, 110
1, 23039, Note_on_c, 9, 42, 96
1, 23040, Control_c, 8, 7, 59
1, 23040, Note_on_c, 9, 36, 110
1, 23100, Control_c, 8, 7, 58
1, 23100, Note_off_c, 9, 36, 64
1, 23111, Control_c, 3, 1, 2
1, 23112, Note_off_c, 9, 42, 64
1, 23156, Control_c, 3, 1, 12
1, 23157, Note_on_c, 9, 24, 49
1, 23160, Control_c, 8, 7, 57
1, 23160, Note_on_c, 9, 27, 85
1, 23160, Note_on_c, 9, 42, 75
1, 23189, Control_c, 3, 1, 17
1, 23190, Note_off_c, 2, 57, 64
1, 23196, Note_off_c, 9, 27, 64
1, 23207, Note_off_c, 9, 42, 64
1, 23217, Note_off_c, 9, 24, 64
1, 23220, Control_c, 8, 7, 56
1, 23270, Note_off_c, 2, 62, 64
1, 23272, Note_on_c, 2, 57, 57
1, 23277, Note_on_c, 9, 24, 45
1, 23279, Note_on_c, 9, 42, 96
1, 23279, Note_on_c, 9, 36, 110
1, 23280, Control_c, 8, 7, 55
1, 23333, Control_c, 3, 1, 0
1, 23340, Control_c, 8, 7, 54
1, 23343, Note_off_c, 9, 24, 64
1, 23344, Note_off_c, 9, 36, 64
1, 23349, Note_off_c, 9, 42, 64
1, 23400, Control_c, 8, 7, 53
1, 23460, Control_c, 8, 7, 52
1, 23466, Pitch_bend_c, 3, 6902
1, 23470, Note_off_c, 3, 60, 64
1, 23477, Pitch_bend_c, 3, 4171
1, 23488, Pitch_bend_c, 3, 3109
1, 23494, Note_off_c, 2, 64, 64
1, 23499, Pitch_bend_c, 3, 3489
1, 23505, Note_on_c, 2, 62, 67
1, 23508, Note_on_c, 3, 62, 92
1, 23508, Lyric_t, "ber "
1, 23509, Note_on_c, 7, 65, 77
1, 23510, Pitch_bend_c, 3, 5764
1, 23519, Note_on_c, 9, 37, 122
1, 23520, Control_c, 8, 7, 51
1, 23520, Note_on_c, 9, 24, 47
1, 23520, Note_on_c, 9, 27, 95
1, 23520, Note_on_c, 9, 42, 105
1, 23521, Pitch_bend_c, 3, 8192
1, 23523, Note_off_c, 7, 64, 64
1, 23562, Note_off_c, 9, 27, 64
1, 23567, Note_off_c, 9, 24, 64
1, 23573, Note_off_c, 9, 37, 64
1, 23577, Note_off_c, 9, 42, 64
1, 23580, Control_c, 8, 7, 50
1, 23640, Control_c, 8, 7, 49
1, 23700, Control_c, 8, 7, 47
1, 23740, Note_off_c, 3, 62, 64
1, 23754, Note_on_c, 3, 57, 110
1, 23754, Note_on_c, 9, 36, 64
1, 23754, Lyric_t, "yes"
1, 23757, Note_on_c, 2, 65, 75
1, 23758, Note_on_c, 9, 42, 96
1, 23759, Note_on_c, 9, 24, 44
1, 23760, Control_c, 8, 7, 46
1, 23792, Note_off_c, 9, 36, 64
1, 23816, Note_off_c, 9, 42, 64
1, 23817, Note_off_c, 9, 24, 64
1, 23820, Control_c, 8, 7, 45
1, 23877, Note_on_c, 9, 36, 105
1, 23877, Note_on_c, 9, 42, 80
1, 23880, Control_c, 8, 7, 44
1, 23880, Note_on_c, 9, 24, 51
1, 23882, Note_on_c, 9, 27, 90
1, 23905, Note_off_c, 9, 27, 64
1, 23922, Note_off_c, 9, 42, 64
1, 23935, Note_off_c, 9, 24, 64
1, 23940, Control_c, 8, 7, 42
1, 23948, Note_off_c, 9, 36, 64
1, 23998, Note_on_c, 9, 42, 96
1, 24000, Control_c, 8, 7, 41
1, 24045, Control_c, 3, 1, 7
1, 24060, Control_c, 8, 7, 39
1, 24061, Note_off_c, 9, 42, 64
1, 24079, Control_c, 3, 1, 32
1, 24112, Control_c, 3, 1, 58
1, 24117, Note_on_c, 9, 24, 45
1, 24118, Note_on_c, 9, 36, 63
1, 24118, Note_on_c, 9, 27, 90
1, 24118, Note_on_c, 9, 42, 83
1, 24120, Control_c, 8, 7, 37
1, 24129, Note_off_c, 2, 65, 64
1, 24155, Note_off_c, 9, 27, 64
1, 24157, Note_off_c, 9, 36, 64
1, 24169, Note_off_c, 9, 42, 64
1, 24176, Note_off_c, 9, 24, 64
1, 24179, Control_c, 3, 1, 0
1, 24180, Control_c, 8, 7, 36
1, 24227, Note_off_c, 3, 57, 64
1, 24237, Note_on_c, 2, 64, 75
1, 24238, Note_on_c, 9, 36, 110
1, 24238, Note_on_c, 9, 42, 100
1, 24240, Control_c, 8, 7, 34
1, 24246, Note_on_c, 3, 55, 110
1, 24246, Lyric_t, "ter"
1, 24300, Control_c, 8, 7, 32
1, 24302, Note_off_c, 9, 42, 64
1, 24303, Note_off_c, 9, 36, 64
1, 24356, Note_on_c, 9, 24, 44
1, 24360, Control_c, 8, 7, 30
1, 24405, Note_off_c, 2, 64, 64
1, 24410, Note_off_c, 9, 24, 64
1, 24420, Note_off_c, 2, 57, 64
1, 24420, Control_c, 8, 7, 28
1, 24424, Note_off_c, 2, 62, 64
1, 24438, Note_off_c, 1, 38, 64
1, 24441, Note_off_c, 2, 50, 64
1, 24450, Note_off_c, 2, 38, 64
1, 24477, Note_on_c, 9, 24, 55
1, 24478, Note_on_c, 1, 41, 105
1, 24479, Note_on_c, 9, 42, 96
1, 24480, Control_c, 8, 7, 25
1, 24480, Note_on_c, 9, 27, 95
1, 24480, Note_on_c, 9, 37, 122
1, 24490, Control_c, 3, 1, 11
1, 24521, Note_off_c, 9, 27, 64
1, 24524, Control_c, 3, 1, 42
1, 24535, Note_off_c, 9, 37, 64
1, 24540, Control_c, 8, 7, 23
1, 24542, Note_off_c, 9, 24, 64
1, 24543, Note_off_c, 9, 42, 64
1, 24557, Control_c, 3, 1, 69
1, 24590, Control_c, 3, 1, 69
1, 24600, Control_c, 8, 7, 20
1, 24624, Control_c, 3, 1, 0
1, 24660, Control_c, 8, 7, 17
1, 24703, Note_off_c, 3, 55, 64
1, 24717, Note_on_c, 9, 24, 44
1, 24717, Note_on_c, 9, 42, 92
1, 24720, Control_c, 8, 7, 14
1, 24726, Note_on_c, 3, 57, 105
1, 24726, Lyric_t, "day.\015"
1, 24773, Note_off_c, 9, 24, 64
1, 24773, Note_off_c, 9, 42, 64
1, 24780, Control_c, 8, 7, 11
1, 24836, Note_on_c, 9, 42, 77
1, 24839, Note_on_c, 9, 24, 47
1, 24839, Note_on_c, 9, 36, 73
1, 24840, Control_c, 8, 7, 8
1, 24842, Note_on_c, 9, 27, 90
1, 24856, Pitch_bend_c, 3, 8911
1, 24867, Pitch_bend_c, 3, 11284
1, 24869, Note_off_c, 9, 36, 64
1, 24871, Note_off_c, 9, 27, 64
1, 24878, Pitch_bend_c, 3, 13227
1, 24889, Pitch_bend_c, 3, 14234
1, 24891, Note_off_c, 9, 42, 64
1, 24897, Control_c, 2, 64, 0
1, 24900, Control_c, 8, 7, 4
1, 24906, Note_off_c, 9, 24, 64
1, 24911, Pitch_bend_c, 3, 13658
1, 24922, Pitch_bend_c, 3, 12220
1, 24933, Pitch_bend_c, 3, 9630
1, 24940, Note_off_c, 7, 62, 64
1, 24943, Note_off_c, 7, 57, 64
1, 24944, Pitch_bend_c, 3, 8192
1, 24948, Note_off_c, 7, 50, 64
1, 24949, Note_off_c, 7, 65, 64
1, 24952, Note_on_c, 7, 64, 83
1, 24952, Note_on_c, 7, 57, 67
1, 24953, Note_on_c, 7, 60, 73
1, 24954, Note_off_c, 1, 41, 64
1, 24954, Note_on_c, 7, 48, 65
1, 24958, Note_on_c, 1, 36, 115
1, 24958, Note_on_c, 2, 48, 92
1, 24958, Note_on_c, 9, 42, 100
1, 24959, Note_on_c, 9, 36, 105
1, 24960, Note_on_c, 2, 36, 83
1, 24960, Note_off_c, 8, 79, 64
1, 24960, Control_c, 8, 7, 0
1, 24963, Note_on_c, 8, 77, 92
1, 25018, Note_off_c, 9, 42, 64
1, 25030, Note_off_c, 9, 36, 64
1, 25077, Note_on_c, 9, 24, 51
1, 25078, Note_on_c, 9, 42, 83
1, 25080, Note_on_c, 9, 27, 90
1, 25125, Note_off_c, 9, 27, 64
1, 25131, Note_off_c, 9, 42, 64
1, 25138, Note_off_c, 9, 24, 64
1, 25198, Note_on_c, 9, 36, 110
1, 25198, Note_on_c, 9, 24, 44
1, 25199, Note_on_c, 9, 42, 96
1, 25206, Note_on_c, 2, 57, 75
1, 25224, Control_c, 3, 1, 14
1, 25237, Control_c, 2, 64, 127
1, 25250, Note_off_c, 9, 42, 64
1, 25257, Control_c, 3, 1, 32
1, 25265, Note_off_c, 9, 36, 64
1, 25276, Note_off_c, 9, 24, 64
1, 25291, Control_c, 3, 1, 49
1, 25324, Control_c, 3, 1, 66
1, 25358, Note_off_c, 3, 57, 64
1, 25368, Control_c, 3, 1, 0
1, 25435, Note_on_c, 7, 65, 75
1, 25438, Note_on_c, 9, 37, 127
1, 25439, Note_on_c, 9, 24, 55
1, 25440, Note_on_c, 2, 62, 100
1, 25440, Note_on_c, 9, 27, 95
1, 25441, Note_on_c, 9, 42, 100
1, 25468, Note_off_c, 7, 64, 64
1, 25487, Note_off_c, 9, 27, 64
1, 25489, Note_off_c, 9, 37, 64
1, 25496, Note_off_c, 9, 42, 64
1, 25499, Note_off_c, 9, 24, 64
1, 25674, Note_on_c, 9, 36, 67
1, 25677, Note_on_c, 9, 24, 43
1, 25677, Note_on_c, 9, 42, 96
1, 25679, Note_on_c, 2, 65, 105
1, 25713, Note_off_c, 9, 36, 64
1, 25741, Note_off_c, 9, 42, 64
1, 25746, Note_off_c, 9, 24, 64
1, 25795, Note_on_c, 9, 42, 80
1, 25797, Note_on_c, 9, 36, 110
1, 25799, Note_on_c, 9, 24, 42
1, 25799, Note_on_c, 9, 27, 90
1, 25827, Note_off_c, 9, 27, 64
1, 25846, Note_off_c, 9, 42, 64
1, 25850, Note_off_c, 9, 24, 64
1, 25865, Note_off_c, 9, 36, 64
1, 25914, Note_on_c, 8, 76, 86
1, 25916, Note_on_c, 9, 42, 100
1, 25927, Note_on_c, 3, 57, 115
1, 25927, Lyric_t, "Life "
1, 25941, Note_off_c, 8, 77, 64
1, 25982, Note_off_c, 9, 42, 64
1, 26037, Note_on_c, 9, 42, 83
1, 26037, Note_on_c, 9, 24, 47
1, 26037, Note_on_c, 9, 36, 65
1, 26039, Note_on_c, 9, 27, 85
1, 26053, Note_off_c, 2, 65, 64
1, 26076, Note_off_c, 9, 27, 64
1, 26087, Note_off_c, 9, 36, 64
1, 26089, Note_off_c, 9, 42, 64
1, 26094, Note_off_c, 9, 24, 64
1, 26137, Note_on_c, 2, 64, 100
1, 26157, Note_on_c, 9, 42, 100
1, 26158, Note_on_c, 9, 36, 110
1, 26173, Note_on_c, 7, 64, 71
1, 26191, Control_c, 3, 1, 2
1, 26220, Note_off_c, 9, 36, 64
1, 26224, Control_c, 3, 1, 14
1, 26227, Note_off_c, 7, 65, 64
1, 26227, Note_off_c, 9, 42, 64
1, 26257, Control_c, 3, 1, 36
1, 26278, Note_on_c, 9, 24, 41
1, 26291, Control_c, 3, 1, 54
1, 26330, Note_off_c, 9, 24, 64
1, 26336, Control_c, 3, 1, 46
1, 26366, Note_off_c, 3, 57, 64
1, 26369, Control_c, 3, 1, 0
1, 26398, Note_on_c, 9, 24, 57
1, 26398, Note_on_c, 9, 42, 105
1, 26399, Note_on_c, 9, 27, 95
1, 26400, Note_on_c, 3, 58, 100
1, 26400, Note_on_c, 9, 37, 122
1, 26400, Lyric_t, "be"
1, 26441, Note_off_c, 9, 27, 64
1, 26452, Note_off_c, 9, 37, 64
1, 26462, Note_off_c, 9, 24, 64
1, 26464, Note_off_c, 9, 42, 64
1, 26588, Note_off_c, 1, 36, 64
1, 26624, Note_off_c, 3, 58, 64
1, 26634, Note_on_c, 1, 31, 96
1, 26636, Note_on_c, 9, 42, 96
1, 26637, Note_on_c, 9, 24, 45
1, 26641, Note_on_c, 3, 60, 105
1, 26641, Lyric_t, "fore "
1, 26692, Note_off_c, 9, 42, 64
1, 26694, Note_off_c, 9, 24, 64
1, 26732, Note_off_c, 1, 31, 64
1, 26752, Note_on_c, 1, 33, 110
1, 26755, Note_on_c, 9, 42, 86
1, 26758, Note_on_c, 9, 24, 44
1, 26758, Note_on_c, 9, 36, 75
1, 26762, Note_on_c, 9, 27, 90
1, 26793, Note_off_c, 9, 27, 64
1, 26801, Note_off_c, 9, 36, 64
1, 26812, Note_off_c, 9, 42, 64
1, 26819, Note_off_c, 9, 24, 64
1, 26840, Note_off_c, 1, 33, 64
1, 26869, Control_c, 3, 1, 2
1, 26874, Note_on_c, 1, 36, 110
1, 26876, Note_on_c, 8, 74, 80
1, 26878, Note_on_c, 9, 42, 100
1, 26879, Note_on_c, 9, 36, 105
1, 26904, Note_off_c, 8, 76, 64
1, 26914, Control_c, 3, 1, 14
1, 26938, Note_off_c, 9, 36, 64
1, 26943, Note_off_c, 9, 42, 64
1, 26958, Control_c, 3, 1, 26
1, 26987, Note_off_c, 2, 57, 64
1, 26995, Note_on_c, 9, 24, 49
1, 26999, Note_on_c, 9, 42, 80
1, 26999, Note_on_c, 9, 27, 85
1, 27003, Control_c, 3, 1, 37
1, 27040, Note_off_c, 9, 27, 64
1, 27047, Control_c, 3, 1, 48
1, 27049, Note_off_c, 9, 42, 64
1, 27049, Note_off_c, 9, 24, 64
1, 27081, Control_c, 3, 1, 53
1, 27105, Note_on_c, 2, 57, 75
1, 27114, Control_c, 3, 1, 58
1, 27116, Note_on_c, 9, 36, 100
1, 27119, Note_on_c, 9, 42, 96
1, 27120, Note_on_c, 9, 24, 40
1, 27147, Control_c, 3, 1, 63
1, 27168, Note_off_c, 9, 24, 64
1, 27179, Note_off_c, 9, 36, 64
1, 27189, Note_off_c, 9, 42, 64
1, 27236, Control_c, 3, 1, 51
1, 27269, Control_c, 3, 1, 0
1, 27327, Note_off_c, 3, 60, 64
1, 27344, Note_on_c, 7, 65, 83
1, 27346, Pitch_bend_c, 3, 8116
1, 27347, Note_off_c, 7, 64, 64
1, 27353, Note_on_c, 9, 24, 66
1, 27357, Pitch_bend_c, 3, 6295
1, 27358, Note_on_c, 9, 27, 95
1, 27359, Note_on_c, 9, 42, 100
1, 27361, Note_on_c, 9, 37, 122
1, 27362, Note_on_c, 3, 62, 92
1, 27362, Lyric_t, "you "
1, 27368, Pitch_bend_c, 3, 5082
1, 27380, Pitch_bend_c, 3, 4702
1, 27402, Pitch_bend_c, 3, 5840
1, 27410, Note_off_c, 9, 27, 64
1, 27413, Pitch_bend_c, 3, 8192
1, 27415, Note_off_c, 9, 24, 64
1, 27415, Note_off_c, 9, 37, 64
1, 27420, Note_off_c, 9, 42, 64
1, 27509, Note_off_c, 2, 62, 64
1, 27582, Note_off_c, 3, 62, 64
1, 27593, Note_on_c, 2, 62, 73
1, 27596, Note_on_c, 9, 24, 42
1, 27597, Note_on_c, 9, 36, 65
1, 27598, Note_on_c, 9, 42, 96
1, 27599, Note_on_c, 3, 57, 110
1, 27599, Lyric_t, "went "
1, 27630, Note_off_c, 9, 36, 64
1, 27648, Note_off_c, 9, 24, 64
1, 27662, Note_off_c, 9, 42, 64
1, 27718, Note_on_c, 9, 36, 105
1, 27718, Note_on_c, 9, 24, 55
1, 27719, Note_on_c, 9, 42, 80
1, 27721, Note_on_c, 9, 27, 85
1, 27752, Note_off_c, 9, 27, 64
1, 27768, Note_off_c, 9, 24, 64
1, 27769, Note_off_c, 9, 42, 64
1, 27786, Note_off_c, 9, 36, 64
1, 27840, Note_on_c, 9, 42, 96
1, 27903, Control_c, 3, 1, 16
1, 27906, Note_off_c, 9, 42, 64
1, 27937, Control_c, 3, 1, 41
1, 27958, Note_on_c, 9, 24, 47
1, 27959, Note_on_c, 9, 27, 81
1, 27959, Note_on_c, 9, 36, 71
1, 27961, Note_on_c, 9, 42, 80
1, 27970, Control_c, 3, 1, 63
1, 27991, Note_off_c, 9, 27, 64
1, 28004, Note_off_c, 9, 36, 64
1, 28010, Note_off_c, 9, 24, 64
1, 28014, Note_off_c, 9, 42, 64
1, 28037, Control_c, 3, 1, 0
1, 28059, Note_off_c, 3, 57, 64
1, 28076, Note_on_c, 7, 67, 83
1, 28081, Note_on_c, 9, 36, 100
1, 28083, Note_on_c, 9, 42, 100
1, 28087, Note_on_c, 3, 55, 110
1, 28087, Lyric_t, "a"
1, 28114, Note_off_c, 7, 65, 64
1, 28149, Note_off_c, 9, 36, 64
1, 28150, Note_off_c, 9, 42, 64
1, 28196, Note_on_c, 9, 24, 40
1, 28218, Note_off_c, 2, 48, 64
1, 28219, Note_off_c, 2, 36, 64
1, 28244, Note_off_c, 9, 24, 64
1, 28245, Note_off_c, 2, 62, 64
1, 28252, Note_off_c, 2, 57, 64
1, 28267, Note_off_c, 2, 64, 64
1, 28316, Note_on_c, 9, 24, 55
1, 28317, Note_on_c, 9, 27, 95
1, 28318, Note_on_c, 9, 37, 122
1, 28320, Note_on_c, 9, 42, 100
1, 28366, Note_off_c, 9, 27, 64
1, 28373, Note_off_c, 9, 37, 64
1, 28379, Note_off_c, 9, 24, 64
1, 28383, Note_off_c, 9, 42, 64
1, 28547, Pitch_bend_c, 3, 8116
1, 28552, Note_off_c, 3, 55, 64
1, 28555, Note_on_c, 9, 24, 51
1, 28558, Pitch_bend_c, 3, 5688
1, 28558, Note_on_c, 9, 42, 96
1, 28569, Pitch_bend_c, 3, 2882
1, 28570, Note_on_c, 3, 57, 115
1, 28570, Lyric_t, "way.\015"
1, 28580, Pitch_bend_c, 3, 1517
1, 28603, Pitch_bend_c, 3, 2275
1, 28606, Note_off_c, 9, 24, 64
1, 28614, Pitch_bend_c, 3, 4475
1, 28621, Note_off_c, 9, 42, 64
1, 28625, Pitch_bend_c, 3, 8192
1, 28677, Note_on_c, 9, 24, 44
1, 28678, Note_on_c, 9, 42, 80
1, 28681, Note_on_c, 9, 36, 73
1, 28685, Note_on_c, 9, 27, 85
1, 28706, Note_off_c, 9, 27, 64
1, 28723, Note_off_c, 9, 36, 64
1, 28725, Note_off_c, 9, 42, 64
1, 28736, Note_off_c, 9, 24, 64
1, 28771, Control_c, 2, 64, 0
1, 28775, Note_off_c, 1, 36, 64
1, 28786, Note_off_c, 7, 60, 64
1, 28788, Note_off_c, 7, 57, 64
1, 28794, Note_on_c, 2, 34, 77
1, 28795, Note_on_c, 2, 46, 86
1, 28795, Note_on_c, 8, 67, 100
1, 28796, Note_on_c, 1, 34, 110
1, 28796, Note_off_c, 7, 67, 64
1, 28797, Note_on_c, 7, 58, 63
1, 28798, Note_on_c, 7, 46, 65
1, 28799, Note_on_c, 7, 67, 83
1, 28799, Note_on_c, 9, 42, 96
1, 28800, Note_on_c, 7, 62, 77
1, 28801, Note_on_c, 9, 36, 105
1, 28803, Note_off_c, 7, 48, 64
1, 28805, Note_off_c, 8, 74, 64
1, 28862, Note_off_c, 9, 42, 64
1, 28870, Note_off_c, 9, 36, 64
1, 28914, Note_on_c, 9, 24, 53
1, 28920, Note_on_c, 9, 42, 80
1, 28922, Note_on_c, 9, 27, 85
1, 28947, Note_off_c, 9, 27, 64
1, 28970, Note_off_c, 9, 42, 64
1, 28980, Note_off_c, 9, 24, 64
1, 28982, Control_c, 3, 1, 7
1, 29015, Control_c, 3, 1, 21
1, 29035, Note_on_c, 2, 55, 89
1, 29036, Note_on_c, 9, 24, 42
1, 29039, Note_on_c, 9, 36, 100
1, 29040, Control_c, 2, 64, 127
1, 29040, Note_on_c, 9, 42, 100
1, 29049, Control_c, 3, 1, 39
1, 29082, Control_c, 3, 1, 58
1, 29099, Note_off_c, 9, 42, 64
1, 29101, Note_off_c, 9, 36, 64
1, 29136, Note_off_c, 9, 24, 64
1, 29137, Note_off_c, 3, 57, 64
1, 29149, Control_c, 3, 1, 0
1, 29276, Note_on_c, 9, 24, 60
1, 29277, Note_on_c, 2, 62, 96
1, 29278, Note_on_c, 9, 27, 95
1, 29278, Note_on_c, 9, 42, 100
1, 29279, Note_on_c, 9, 37, 122
1, 29325, Note_off_c, 9, 27, 64
1, 29331, Note_off_c, 9, 24, 64
1, 29333, Note_off_c, 9, 42, 64
1, 29340, Note_off_c, 9, 37, 64
1, 29514, Note_on_c, 2, 67, 105
1, 29515, Note_on_c, 9, 36, 73
1, 29516, Note_on_c, 9, 42, 92
1, 29517, Note_on_c, 9, 24, 38
1, 29561, Note_off_c, 9, 36, 64
1, 29570, Note_off_c, 9, 24, 64
1, 29575, Note_off_c, 9, 42, 64
1, 29636, Note_on_c, 9, 36, 100
1, 29636, Note_on_c, 9, 42, 83
1, 29637, Note_on_c, 9, 24, 53
1, 29641, Note_on_c, 9, 27, 85
1, 29668, Note_off_c, 9, 27, 64
1, 29684, Note_off_c, 9, 24, 64
1, 29689, Note_off_c, 9, 36, 64
1, 29690, Note_off_c, 9, 42, 64
1, 29752, Note_off_c, 7, 67, 64
1, 29758, Note_on_c, 9, 42, 100
1, 29823, Note_off_c, 9, 42, 64
1, 29877, Note_on_c, 9, 24, 57
1, 29877, Note_on_c, 9, 36, 75
1, 29877, Note_on_c, 9, 27, 81
1, 29879, Note_on_c, 9, 42, 77
1, 29905, Note_off_c, 2, 67, 64
1, 29917, Note_off_c, 9, 27, 64
1, 29918, Note_off_c, 9, 36, 64
1, 29922, Note_off_c, 9, 24, 64
1, 29926, Note_off_c, 9, 42, 64
1, 29992, Note_on_c, 8, 65, 89
1, 29994, Note_on_c, 2, 65, 105
1, 29998, Note_on_c, 9, 42, 100
1, 29999, Note_on_c, 9, 36, 100
1, 30017, Note_off_c, 8, 67, 64
1, 30059, Note_off_c, 9, 42, 64
1, 30064, Note_off_c, 9, 36, 64
1, 30117, Note_on_c, 9, 24, 43
1, 30168, Note_off_c, 9, 24, 64
1, 30238, Note_on_c, 9, 24, 55
1, 30238, Note_on_c, 9, 27, 100
1, 30238, Note_on_c, 9, 37, 122
1, 30238, Note_on_c, 9, 42, 105
1, 30244, Note_on_c, 3, 53, 105
1, 30244, Lyric_t, "And "
1, 30286, Note_off_c, 9, 27, 64
1, 30290, Note_off_c, 9, 37, 64
1, 30290, Note_off_c, 9, 24, 64
1, 30293, Note_off_c, 2, 46, 64
1, 30303, Note_off_c, 2, 34, 64
1, 30308, Note_off_c, 9, 42, 64
1, 30353, Note_off_c, 2, 62, 64
1, 30458, Note_off_c, 3, 53, 64
1, 30459, Pitch_bend_c, 3, 7433
1, 30468, Note_on_c, 2, 62, 100
1, 30470, Pitch_bend_c, 3, 4626
1, 30476, Note_on_c, 9, 42, 100
1, 30479, Note_on_c, 9, 24, 41
1, 30481, Pitch_bend_c, 3, 2730
1, 30484, Note_on_c, 3, 57, 110
1, 30484, Lyric_t, "we "
1, 30493, Pitch_bend_c, 3, 2351
1, 30504, Pitch_bend_c, 3, 2730
1, 30515, Pitch_bend_c, 3, 3489
1, 30526, Pitch_bend_c, 3, 4626
1, 30528, Note_off_c, 9, 24, 64
1, 30537, Pitch_bend_c, 3, 6674
1, 30538, Note_off_c, 9, 42, 64
1, 30548, Pitch_bend_c, 3, 8192
1, 30579, Control_c, 2, 64, 0
1, 30596, Note_on_c, 9, 42, 80
1, 30598, Note_on_c, 9, 24, 47
1, 30600, Note_on_c, 9, 36, 73
1, 30603, Note_on_c, 9, 27, 90
1, 30612, Note_off_c, 2, 55, 64
1, 30641, Note_off_c, 9, 27, 64
1, 30642, Note_off_c, 9, 42, 64
1, 30643, Note_off_c, 9, 36, 64
1, 30656, Note_off_c, 9, 24, 64
1, 30672, Note_off_c, 1, 34, 64
1, 30678, Note_off_c, 7, 58, 64
1, 30690, Note_off_c, 7, 46, 64
1, 30701, Note_on_c, 7, 45, 71
1, 30704, Note_on_c, 2, 33, 71
1, 30706, Note_on_c, 2, 45, 71
1, 30708, Note_on_c, 7, 57, 69
1, 30710, Note_on_c, 8, 62, 83
1, 30711, Note_off_c, 8, 65, 64
1, 30714, Note_on_c, 1, 33, 115
1, 30717, Note_on_c, 9, 42, 100
1, 30721, Note_on_c, 9, 36, 100
1, 30775, Note_off_c, 9, 36, 64
1, 30784, Note_off_c, 9, 42, 64
1, 30836, Note_on_c, 9, 24, 43
1, 30837, Note_on_c, 9, 42, 80
1, 30839, Note_on_c, 9, 27, 81
1, 30879, Note_off_c, 9, 27, 64
1, 30885, Control_c, 2, 64, 127
1, 30887, Note_off_c, 9, 24, 64
1, 30894, Note_off_c, 9, 42, 64
1, 30905, Control_c, 3, 1, 9
1, 30950, Control_c, 3, 1, 19
1, 30954, Note_on_c, 9, 24, 43
1, 30956, Note_on_c, 2, 57, 73
1, 30957, Note_on_c, 9, 36, 105
1, 30959, Note_on_c, 9, 42, 105
1, 30983, Control_c, 3, 1, 29
1, 31016, Note_off_c, 2, 62, 64
1, 31022, Note_off_c, 9, 36, 64
1, 31028, Control_c, 3, 1, 48
1, 31030, Note_off_c, 9, 24, 64
1, 31030, Note_off_c, 9, 42, 64
1, 31061, Control_c, 3, 1, 64
1, 31106, Control_c, 3, 1, 64
1, 31139, Control_c, 3, 1, 0
1, 31169, Note_off_c, 3, 57, 64
1, 31194, Note_on_c, 9, 24, 60
1, 31196, Note_on_c, 2, 62, 92
1, 31198, Note_on_c, 9, 27, 100
1, 31198, Note_on_c, 9, 37, 127
1, 31198, Note_on_c, 9, 42, 105
1, 31206, Note_on_c, 3, 55, 110
1, 31206, Lyric_t, "were "
1, 31245, Note_off_c, 9, 27, 64
1, 31254, Note_off_c, 9, 24, 64
1, 31256, Note_off_c, 9, 37, 64
1, 31267, Note_off_c, 9, 42, 64
1, 31323, Note_off_c, 2, 65, 64
1, 31433, Note_on_c, 2, 65, 105
1, 31435, Note_on_c, 9, 24, 41
1, 31436, Note_on_c, 9, 36, 71
1, 31436, Note_on_c, 9, 42, 96
1, 31449, Note_on_c, 3, 53, 110
1, 31449, Lyric_t, "laugh"
1, 31454, Note_off_c, 3, 55, 64
1, 31473, Note_off_c, 9, 36, 64
1, 31494, Note_off_c, 9, 24, 64
1, 31502, Note_off_c, 9, 42, 64
1, 31557, Note_on_c, 9, 24, 51
1, 31557, Note_on_c, 9, 42, 80
1, 31559, Note_on_c, 9, 36, 100
1, 31561, Note_on_c, 9, 27, 90
1, 31603, Note_off_c, 9, 27, 64
1, 31607, Note_off_c, 9, 24, 64
1, 31618, Note_off_c, 9, 42, 64
1, 31624, Note_off_c, 9, 36, 64
1, 31677, Note_on_c, 7, 64, 83
1, 31677, Note_on_c, 8, 64, 83
1, 31678, Note_on_c, 9, 42, 96
1, 31678, Note_on_c, 10, 88, 75
1, 31679, Note_off_c, 1, 33, 64
1, 31681, Note_on_c, 1, 45, 105
1, 31701, Note_off_c, 8, 62, 64
1, 31704, Note_off_c, 10, 86, 64
1, 31741, Note_off_c, 9, 42, 64
1, 31795, Note_on_c, 9, 24, 45
1, 31797, Note_on_c, 9, 27, 85
1, 31798, Note_on_c, 9, 42, 75
1, 31799, Note_on_c, 9, 36, 73
1, 31842, Note_off_c, 9, 24, 64
1, 31847, Note_off_c, 2, 65, 64
1, 31847, Note_off_c, 9, 27, 64
1, 31851, Note_off_c, 9, 36, 64
1, 31854, Note_off_c, 9, 42, 64
1, 31858, Note_off_c, 2, 62, 64
1, 31880, Note_off_c, 3, 53, 64
1, 31894, Pitch_bend_c, 3, 8116
1, 31905, Pitch_bend_c, 3, 6295
1, 31916, Pitch_bend_c, 3, 4399
1, 31917, Note_on_c, 9, 42, 96
1, 31920, Note_on_c, 2, 64, 105
1, 31921, Note_on_c, 9, 36, 105
1, 31924, Note_on_c, 3, 55, 110
1, 31924, Lyric_t, "ing.\012"
1, 31938, Pitch_bend_c, 3, 3034
1, 31949, Pitch_bend_c, 3, 3261
1, 31960, Pitch_bend_c, 3, 4096
1, 31970, Note_off_c, 9, 42, 64
1, 31971, Pitch_bend_c, 3, 5764
1, 31983, Pitch_bend_c, 3, 8192
1, 31983, Note_off_c, 9, 36, 64
1, 32037, Note_on_c, 9, 24, 45
1, 32090, Note_off_c, 9, 24, 64
1, 32157, Note_on_c, 9, 24, 57
1, 32159, Note_on_c, 9, 42, 105
1, 32160, Note_on_c, 9, 37, 127
1, 32162, Note_on_c, 9, 27, 100
1, 32210, Note_off_c, 9, 24, 64
1, 32210, Note_off_c, 9, 37, 64
1, 32211, Note_off_c, 9, 27, 64
1, 32216, Note_off_c, 9, 42, 64
1, 32232, Note_off_c, 2, 45, 64
1, 32238, Note_off_c, 2, 33, 64
1, 32240, Control_c, 3, 1, 2
1, 32245, Note_off_c, 2, 57, 64
1, 32245, Note_off_c, 2, 64, 64
1, 32273, Control_c, 3, 1, 32
1, 32307, Control_c, 3, 1, 56
1, 32351, Control_c, 3, 1, 51
1, 32366, Note_off_c, 3, 55, 64
1, 32384, Control_c, 3, 1, 0
1, 32391, Pitch_bend_c, 1, 8116
1, 32397, Note_on_c, 9, 42, 96
1, 32398, Note_on_c, 9, 24, 53
1, 32414, Pitch_bend_c, 1, 7736
1, 32425, Pitch_bend_c, 1, 7509
1, 32436, Pitch_bend_c, 1, 7205
1, 32447, Pitch_bend_c, 1, 6978
1, 32453, Note_off_c, 9, 24, 64
1, 32458, Pitch_bend_c, 1, 6599
1, 32466, Note_off_c, 9, 42, 64
1, 32469, Pitch_bend_c, 1, 6295
1, 32480, Pitch_bend_c, 1, 5916
1, 32491, Pitch_bend_c, 1, 5537
1, 32503, Pitch_bend_c, 1, 5233
1, 32514, Pitch_bend_c, 1, 4778
1, 32516, Note_on_c, 9, 36, 77
1, 32517, Note_on_c, 9, 42, 96
1, 32520, Note_on_c, 9, 24, 49
1, 32522, Note_on_c, 9, 27, 95
1, 32525, Pitch_bend_c, 1, 4247
1, 32536, Pitch_bend_c, 1, 3640
1, 32547, Pitch_bend_c, 1, 2806
1, 32548, Note_off_c, 9, 27, 64
1, 32548, Note_off_c, 9, 36, 64
1, 32556, Note_off_c, 9, 24, 64
1, 32558, Pitch_bend_c, 1, 1896
1, 32559, Note_off_c, 9, 42, 64
1, 32566, Note_off_c, 1, 45, 64
1, 32569, Pitch_bend_c, 1, 758
1, 32580, Pitch_bend_c, 1, 0
1, 32602, Note_off_c, 10, 88, 64
1, 32616, Note_off_c, 8, 64, 64
1, 32631, Control_c, 2, 64, 0
1, 32632, Note_on_c, 1, 31, 115
1, 32634, Note_on_c, 7, 43, 69
1, 32634, Note_on_c, 7, 67, 80
1, 32635, Note_on_c, 7, 58, 73
1, 32637, Note_on_c, 7, 62, 86
1, 32639, Pitch_bend_c, 1, 8192
1, 32639, Control_c, 8, 7, 0
1, 32639, Note_on_c, 9, 36, 110
1, 32639, Control_c, 10, 7, 60
1, 32640, Tempo, 619359
1, 32640, Note_on_c, 2, 58, 80
1, 32640, Control_c, 10, 7, 60
1, 32641, Note_on_c, 3, 62, 115
1, 32641, Note_on_c, 9, 42, 105
1, 32641, Note_on_c, 10, 67, 67
1, 32641, Note_on_c, 11, 70, 73
1, 32641, Lyric_t, "We "
1, 32642, Note_on_c, 2, 55, 67
1, 32642, Note_on_c, 11, 67, 75
1, 32643, Note_on_c, 2, 43, 73
1, 32643, Note_on_c, 2, 62, 86
1, 32643, Note_on_c, 11, 79, 83
1, 32643, Note_on_c, 11, 74, 86
1, 32644, Note_on_c, 2, 65, 86
1, 32644, Note_off_c, 7, 62, 64
1, 32644, Note_on_c, 12, 43, 122
1, 32645, Note_on_c, 10, 79, 89
1, 32650, Note_off_c, 7, 64, 64
1, 32653, Note_off_c, 7, 57, 64
1, 32664, Note_off_c, 7, 45, 64
1, 32702, Note_off_c, 9, 42, 64
1, 32705, Note_off_c, 9, 36, 64
1, 32756, Note_on_c, 9, 27, 90
1, 32759, Note_on_c, 9, 24, 51
1, 32759, Note_on_c, 9, 42, 71
1, 32778, Note_off_c, 9, 27, 64
1, 32816, Note_off_c, 9, 42, 64
1, 32827, Note_off_c, 9, 24, 64
1, 32852, Control_c, 2, 64, 127
1, 32877, Note_on_c, 9, 24, 43
1, 32878, Note_on_c, 9, 42, 96
1, 32879, Note_on_c, 9, 36, 110
1, 32891, Note_on_c, 2, 69, 89
1, 32931, Note_off_c, 9, 42, 64
1, 32937, Note_off_c, 9, 24, 64
1, 32940, Note_off_c, 9, 36, 64
1, 32969, Control_c, 3, 1, 9
1, 33001, Control_c, 3, 1, 14
1, 33035, Control_c, 3, 1, 19
1, 33080, Control_c, 3, 1, 26
1, 33113, Control_c, 3, 1, 32
1, 33116, Note_on_c, 9, 24, 51
1, 33120, Note_on_c, 9, 37, 122
1, 33121, Note_on_c, 9, 27, 95
1, 33122, Note_on_c, 9, 42, 96
1, 33151, Note_off_c, 9, 27, 64
1, 33157, Control_c, 3, 1, 37
1, 33167, Note_off_c, 9, 24, 64
1, 33171, Note_off_c, 9, 37, 64
1, 33177, Note_off_c, 9, 42, 64
1, 33191, Control_c, 3, 1, 42
1, 33224, Control_c, 3, 1, 48
1, 33258, Control_c, 3, 1, 53
1, 33290, Note_off_c, 2, 69, 64
1, 33302, Control_c, 3, 1, 58
1, 33333, Note_off_c, 2, 65, 64
1, 33355, Note_on_c, 9, 36, 65
1, 33357, Control_c, 3, 1, 63
1, 33357, Note_on_c, 9, 24, 41
1, 33360, Note_on_c, 9, 42, 92
1, 33371, Note_on_c, 2, 67, 86
1, 33389, Note_off_c, 9, 36, 64
1, 33406, Note_off_c, 9, 24, 64
1, 33408, Note_off_c, 9, 42, 64
1, 33413, Control_c, 3, 1, 68
1, 33457, Control_c, 3, 1, 81
1, 33478, Note_on_c, 9, 42, 75
1, 33479, Note_on_c, 9, 27, 90
1, 33479, Note_on_c, 9, 36, 105
1, 33480, Note_on_c, 9, 24, 45
1, 33491, Control_c, 3, 1, 91
1, 33506, Note_off_c, 9, 27, 64
1, 33527, Note_off_c, 9, 42, 64
1, 33535, Control_c, 3, 1, 69
1, 33541, Note_off_c, 9, 24, 64
1, 33546, Note_off_c, 9, 36, 64
1, 33569, Control_c, 3, 1, 0
1, 33586, Note_off_c, 3, 62, 64
1, 33599, Note_on_c, 9, 42, 96
1, 33604, Note_on_c, 3, 65, 110
1, 33604, Lyric_t, "had "
1, 33660, Note_off_c, 9, 42, 64
1, 33716, Note_on_c, 9, 27, 85
1, 33718, Note_on_c, 9, 36, 65
1, 33719, Note_on_c, 9, 42, 80
1, 33720, Note_on_c, 9, 24, 51
1, 33754, Note_off_c, 9, 36, 64
1, 33755, Note_off_c, 9, 27, 64
1, 33773, Note_off_c, 9, 24, 64
1, 33774, Note_off_c, 9, 42, 64
1, 33839, Note_on_c, 9, 36, 110
1, 33840, Note_on_c, 9, 42, 96
1, 33841, Note_off_c, 2, 67, 64
1, 33850, Note_on_c, 2, 69, 92
1, 33897, Note_off_c, 9, 36, 64
1, 33905, Note_off_c, 9, 42, 64
1, 33961, Note_on_c, 9, 24, 40
1, 34002, Control_c, 3, 1, 9
1, 34011, Note_off_c, 9, 24, 64
1, 34036, Control_c, 3, 1, 14
1, 34060, Control_c, 11, 7, 59
1, 34076, Note_on_c, 9, 27, 95
1, 34081, Note_on_c, 9, 24, 53
1, 34081, Note_on_c, 9, 37, 115
1, 34082, Note_on_c, 9, 42, 96
1, 34091, Control_c, 3, 1, 24
1, 34113, Note_off_c, 9, 27, 64
1, 34125, Control_c, 3, 1, 31
1, 34127, Note_off_c, 9, 42, 64
1, 34134, Note_off_c, 9, 24, 64
1, 34139, Note_off_c, 9, 37, 64
1, 34169, Control_c, 3, 1, 36
1, 34225, Control_c, 3, 1, 41
1, 34284, Note_off_c, 2, 69, 64
1, 34302, Control_c, 3, 1, 51
1, 34318, Note_on_c, 9, 24, 42
1, 34318, Note_on_c, 9, 42, 100
1, 34321, Note_on_c, 2, 65, 86
1, 34347, Control_c, 3, 1, 64
1, 34376, Note_off_c, 9, 24, 64
1, 34379, Note_off_c, 9, 42, 64
1, 34380, Control_c, 3, 1, 76
1, 34436, Control_c, 3, 1, 61
1, 34438, Note_on_c, 9, 36, 80
1, 34438, Note_on_c, 9, 42, 80
1, 34439, Note_on_c, 9, 24, 49
1, 34440, Note_on_c, 9, 27, 90
1, 34469, Control_c, 3, 1, 0
1, 34470, Note_off_c, 9, 27, 64
1, 34487, Note_off_c, 9, 36, 64
1, 34489, Note_off_c, 9, 42, 64
1, 34496, Note_off_c, 9, 24, 64
1, 34505, Note_off_c, 3, 65, 64
1, 34559, Note_on_c, 9, 42, 96
1, 34560, Note_on_c, 9, 36, 110
1, 34566, Note_on_c, 3, 64, 115
1, 34566, Lyric_t, "hope "
1, 34620, Note_off_c, 9, 36, 64
1, 34632, Note_off_c, 9, 42, 64
1, 34677, Note_on_c, 9, 24, 49
1, 34680, Note_on_c, 9, 27, 85
1, 34680, Note_on_c, 9, 42, 75
1, 34716, Note_off_c, 9, 27, 64
1, 34727, Note_off_c, 9, 42, 64
1, 34737, Note_off_c, 9, 24, 64
1, 34781, Control_c, 3, 1, 2
1, 34797, Note_on_c, 2, 69, 92
1, 34797, Note_on_c, 9, 24, 45
1, 34799, Note_on_c, 9, 42, 96
1, 34799, Note_on_c, 9, 36, 110
1, 34814, Note_off_c, 2, 65, 64
1, 34825, Control_c, 3, 1, 16
1, 34863, Note_off_c, 9, 24, 64
1, 34864, Note_off_c, 9, 36, 64
1, 34869, Note_off_c, 9, 42, 64
1, 34870, Control_c, 3, 1, 29
1, 34912, Control_c, 11, 7, 59
1, 34914, Control_c, 3, 1, 39
1, 34958, Control_c, 3, 1, 49
1, 35003, Control_c, 3, 1, 63
1, 35039, Note_on_c, 9, 37, 122
1, 35040, Note_on_c, 9, 24, 47
1, 35040, Note_on_c, 9, 27, 95
1, 35040, Note_on_c, 9, 42, 105
1, 35047, Control_c, 3, 1, 73
1, 35082, Note_off_c, 9, 27, 64
1, 35087, Note_off_c, 9, 24, 64
1, 35092, Control_c, 3, 1, 66
1, 35093, Note_off_c, 9, 37, 64
1, 35097, Note_off_c, 9, 42, 64
1, 35125, Control_c, 3, 1, 0
1, 35231, Note_off_c, 2, 69, 64
1, 35250, Note_off_c, 3, 64, 64
1, 35257, Pitch_bend_c, 3, 5233
1, 35268, Pitch_bend_c, 3, 1517
1, 35274, Note_on_c, 9, 36, 64
1, 35278, Note_on_c, 9, 42, 96
1, 35279, Pitch_bend_c, 3, 0
1, 35279, Note_on_c, 9, 24, 44
1, 35282, Note_on_c, 3, 65, 110
1, 35282, Lyric_t, "and \015"
1, 35283, Note_on_c, 2, 67, 86
1, 35302, Pitch_bend_c, 3, 455
1, 35312, Note_off_c, 9, 36, 64
1, 35313, Pitch_bend_c, 3, 1289
1, 35324, Pitch_bend_c, 3, 2882
1, 35335, Pitch_bend_c, 3, 6371
1, 35336, Note_off_c, 9, 42, 64
1, 35337, Note_off_c, 9, 24, 64
1, 35346, Pitch_bend_c, 3, 8192
1, 35397, Note_on_c, 9, 36, 105
1, 35397, Note_on_c, 9, 42, 80
1, 35400, Note_on_c, 9, 24, 51
1, 35402, Note_on_c, 9, 27, 90
1, 35425, Note_off_c, 9, 27, 64
1, 35442, Note_off_c, 9, 42, 64
1, 35455, Note_off_c, 9, 24, 64
1, 35468, Note_off_c, 9, 36, 64
1, 35480, Control_c, 11, 7, 60
1, 35518, Note_on_c, 9, 42, 96
1, 35581, Note_off_c, 9, 42, 64
1, 35637, Control_c, 3, 1, 12
1, 35637, Note_on_c, 9, 24, 45
1, 35638, Note_on_c, 9, 36, 63
1, 35638, Note_on_c, 9, 27, 90
1, 35638, Note_on_c, 9, 42, 83
1, 35670, Control_c, 3, 1, 26
1, 35675, Note_off_c, 9, 27, 64
1, 35677, Note_off_c, 9, 36, 64
1, 35689, Note_off_c, 9, 42, 64
1, 35696, Note_off_c, 9, 24, 64
1, 35714, Control_c, 3, 1, 39
1, 35757, Note_on_c, 2, 69, 92
1, 35758, Note_on_c, 9, 36, 110
1, 35758, Note_on_c, 9, 42, 100
1, 35759, Control_c, 3, 1, 51
1, 35803, Control_c, 3, 1, 64
1, 35822, Note_off_c, 9, 42, 64
1, 35823, Note_off_c, 9, 36, 64
1, 35848, Control_c, 3, 1, 78
1, 35876, Note_on_c, 9, 24, 44
1, 35889, Note_off_c, 3, 65, 64
1, 35892, Control_c, 3, 1, 0
1, 35930, Note_off_c, 9, 24, 64
1, 35997, Note_on_c, 9, 24, 55
1, 35999, Note_on_c, 9, 42, 96
1, 36000, Note_on_c, 9, 27, 95
1, 36000, Note_on_c, 9, 37, 122
1, 36031, Note_off_c, 2, 67, 64
1, 36031, Note_off_c, 2, 62, 64
1, 36041, Note_off_c, 9, 27, 64
1, 36052, Note_off_c, 2, 69, 64
1, 36055, Note_off_c, 2, 58, 64
1, 36055, Note_off_c, 9, 37, 64
1, 36057, Note_off_c, 2, 55, 64
1, 36062, Note_off_c, 2, 43, 64
1, 36062, Note_off_c, 9, 24, 64
1, 36063, Note_off_c, 9, 42, 64
1, 36237, Note_on_c, 9, 24, 44
1, 36237, Note_on_c, 9, 42, 92
1, 36293, Note_off_c, 9, 24, 64
1, 36293, Note_off_c, 9, 42, 64
1, 36332, Control_c, 11, 7, 60
1, 36356, Note_on_c, 9, 42, 77
1, 36359, Note_on_c, 9, 24, 47
1, 36359, Note_on_c, 9, 36, 73
1, 36362, Note_on_c, 9, 27, 90
1, 36389, Note_off_c, 9, 36, 64
1, 36391, Note_off_c, 9, 27, 64
1, 36411, Note_off_c, 9, 42, 64
1, 36423, Control_c, 2, 64, 0
1, 36426, Note_off_c, 9, 24, 64
1, 36447, Note_off_c, 1, 31, 64
1, 36450, Note_off_c, 11, 70, 64
1, 36462, Note_off_c, 12, 43, 64
1, 36465, Note_off_c, 11, 79, 64
1, 36469, Note_off_c, 7, 58, 64
1, 36473, Note_off_c, 7, 67, 64
1, 36477, Note_on_c, 7, 65, 83
1, 36477, Note_on_c, 11, 77, 80
1, 36478, Note_on_c, 9, 42, 100
1, 36479, Note_on_c, 7, 57, 75
1, 36479, Note_on_c, 9, 36, 105
1, 36480, Note_on_c, 7, 41, 73
1, 36480, Note_on_c, 11, 65, 77
1, 36480, Note_on_c, 11, 69, 80
1, 36482, Note_on_c, 1, 29, 115
1, 36482, Note_off_c, 7, 43, 64
1, 36485, Note_on_c, 2, 57, 83
1, 36485, Note_on_c, 2, 65, 100
1, 36486, Note_on_c, 2, 53, 83
1, 36487, Note_on_c, 2, 62, 96
1, 36487, Note_on_c, 2, 41, 77
1, 36487, Note_off_c, 10, 79, 64
1, 36487, Note_off_c, 11, 67, 64
1, 36488, Note_on_c, 10, 81, 86
1, 36488, Note_on_c, 12, 41, 115
1, 36489, Note_on_c, 10, 69, 80
1, 36491, Note_off_c, 10, 67, 64
1, 36495, Note_on_c, 3, 62, 110
1, 36495, Lyric_t, "now "
1, 36538, Note_off_c, 9, 42, 64
1, 36550, Note_off_c, 9, 36, 64
1, 36597, Note_on_c, 9, 24, 51
1, 36598, Note_on_c, 9, 42, 83
1, 36600, Note_on_c, 9, 27, 90
1, 36616, Control_c, 11, 7, 61
1, 36645, Note_off_c, 9, 27, 64
1, 36651, Note_off_c, 9, 42, 64
1, 36658, Note_off_c, 9, 24, 64
1, 36718, Note_on_c, 9, 36, 110
1, 36718, Note_on_c, 9, 24, 44
1, 36719, Note_on_c, 9, 42, 96
1, 36735, Note_on_c, 2, 69, 96
1, 36758, Control_c, 2, 64, 127
1, 36770, Note_off_c, 9, 42, 64
1, 36778, Control_c, 3, 1, 2
1, 36785, Note_off_c, 9, 36, 64
1, 36796, Note_off_c, 9, 24, 64
1, 36823, Control_c, 3, 1, 12
1, 36890, Control_c, 3, 1, 22
1, 36934, Control_c, 3, 1, 32
1, 36958, Note_on_c, 9, 37, 127
1, 36959, Note_on_c, 9, 24, 55
1, 36960, Note_on_c, 9, 27, 95
1, 36961, Note_on_c, 9, 42, 100
1, 36967, Control_c, 3, 1, 37
1, 37007, Note_off_c, 9, 27, 64
1, 37009, Note_off_c, 9, 37, 64
1, 37012, Control_c, 3, 1, 49
1, 37016, Note_off_c, 9, 42, 64
1, 37019, Note_off_c, 9, 24, 64
1, 37045, Control_c, 3, 1, 63
1, 37079, Control_c, 3, 1, 76
1, 37081, Note_off_c, 2, 69, 64
1, 37145, Control_c, 3, 1, 64
1, 37179, Control_c, 3, 1, 0
1, 37184, Control_c, 11, 7, 62
1, 37194, Note_on_c, 9, 36, 67
1, 37197, Note_off_c, 3, 62, 64
1, 37197, Note_on_c, 9, 24, 43
1, 37197, Note_on_c, 9, 42, 96
1, 37205, Note_on_c, 3, 65, 110
1, 37205, Lyric_t, "it's "
1, 37215, Note_on_c, 2, 67, 100
1, 37233, Note_off_c, 9, 36, 64
1, 37261, Note_off_c, 9, 42, 64
1, 37266, Note_off_c, 9, 24, 64
1, 37315, Note_on_c, 9, 42, 80
1, 37317, Note_on_c, 9, 36, 110
1, 37319, Note_on_c, 9, 24, 42
1, 37319, Note_on_c, 9, 27, 90
1, 37347, Note_off_c, 9, 27, 64
1, 37366, Note_off_c, 9, 42, 64
1, 37370, Note_off_c, 9, 24, 64
1, 37385, Note_off_c, 9, 36, 64
1, 37436, Note_on_c, 9, 42, 100
1, 37468, Control_c, 11, 7, 62
1, 37502, Note_off_c, 9, 42, 64
1, 37534, Control_c, 3, 1, 2
1, 37557, Note_on_c, 9, 42, 83
1, 37557, Note_on_c, 9, 24, 47
1, 37557, Note_on_c, 9, 36, 65
1, 37559, Note_on_c, 9, 27, 85
1, 37568, Control_c, 3, 1, 9
1, 37589, Note_off_c, 2, 67, 64
1, 37596, Note_off_c, 9, 27, 64
1, 37601, Control_c, 3, 1, 14
1, 37607, Note_off_c, 9, 36, 64
1, 37609, Note_off_c, 9, 42, 64
1, 37614, Note_off_c, 9, 24, 64
1, 37634, Control_c, 3, 1, 21
1, 37677, Note_on_c, 9, 42, 100
1, 37678, Note_on_c, 9, 36, 110
1, 37679, Control_c, 3, 1, 32
1, 37686, Note_on_c, 2, 69, 100
1, 37712, Control_c, 3, 1, 37
1, 37740, Note_off_c, 9, 36, 64
1, 37745, Control_c, 3, 1, 42
1, 37747, Note_off_c, 9, 42, 64
1, 37752, Control_c, 11, 7, 63
1, 37790, Control_c, 3, 1, 48
1, 37798, Note_on_c, 9, 24, 41
1, 37834, Control_c, 3, 1, 53
1, 37850, Note_off_c, 9, 24, 64
1, 37879, Control_c, 3, 1, 58
1, 37918, Note_on_c, 9, 24, 57
1, 37918, Note_on_c, 9, 42, 105
1, 37919, Note_on_c, 9, 27, 95
1, 37920, Note_on_c, 9, 37, 122
1, 37923, Control_c, 3, 1, 63
1, 37934, Note_off_c, 2, 69, 64
1, 37944, Note_off_c, 2, 57, 64
1, 37950, Note_off_c, 2, 41, 64
1, 37957, Control_c, 3, 1, 69
1, 37958, Note_off_c, 2, 62, 64
1, 37960, Note_off_c, 2, 65, 64
1, 37961, Note_off_c, 9, 27, 64
1, 37972, Note_off_c, 9, 37, 64
1, 37976, Note_off_c, 2, 53, 64
1, 37982, Note_off_c, 9, 24, 64
1, 37984, Note_off_c, 9, 42, 64
1, 38001, Control_c, 3, 1, 81
1, 38036, Control_c, 11, 7, 63
1, 38046, Control_c, 3, 1, 93
1, 38135, Control_c, 3, 1, 76
1, 38156, Note_on_c, 9, 42, 96
1, 38157, Note_on_c, 9, 24, 45
1, 38168, Control_c, 3, 1, 0
1, 38185, Note_off_c, 3, 65, 64
1, 38212, Note_off_c, 9, 42, 64
1, 38214, Note_off_c, 9, 24, 64
1, 38275, Note_on_c, 9, 42, 86
1, 38278, Note_on_c, 9, 24, 44
1, 38278, Note_on_c, 9, 36, 75
1, 38282, Note_on_c, 9, 27, 90
1, 38313, Note_off_c, 9, 27, 64
1, 38320, Control_c, 11, 7, 64
1, 38321, Note_off_c, 9, 36, 64
1, 38332, Note_off_c, 9, 42, 64
1, 38339, Note_off_c, 9, 24, 64
1, 38340, Note_off_c, 1, 29, 64
1, 38342, Note_off_c, 7, 57, 64
1, 38344, Note_off_c, 12, 41, 64
1, 38345, Pitch_bend_c, 3, 6902
1, 38346, Note_off_c, 11, 69, 64
1, 38356, Pitch_bend_c, 3, 4930
1, 38367, Pitch_bend_c, 3, 3261
1, 38368, Note_off_c, 7, 62, 64
1, 38378, Pitch_bend_c, 3, 2730
1, 38392, Note_on_c, 2, 58, 83
1, 38392, Note_on_c, 3, 67, 115
1, 38392, Lyric_t, "bro"
1, 38393, Note_on_c, 7, 67, 86
1, 38394, Note_on_c, 2, 67, 89
1, 38394, Note_on_c, 7, 62, 77
1, 38395, Control_c, 2, 64, 0
1, 38395, Note_on_c, 2, 55, 73
1, 38395, Note_on_c, 11, 79, 86
1, 38395, Note_on_c, 12, 43, 115
1, 38396, Note_on_c, 1, 31, 115
1, 38396, Note_on_c, 2, 62, 92
1, 38396, Note_on_c, 2, 43, 75
1, 38396, Note_on_c, 7, 43, 71
1, 38397, Note_on_c, 7, 58, 83
1, 38397, Note_off_c, 7, 65, 64
1, 38398, Note_on_c, 9, 42, 100
1, 38399, Note_on_c, 9, 36, 105
1, 38399, Note_on_c, 11, 70, 80
1, 38399, Note_on_c, 11, 67, 77
1, 38400, Pitch_bend_c, 3, 3413
1, 38400, Note_off_c, 7, 41, 64
1, 38400, Control_c, 12, 7, 29
1, 38404, Note_off_c, 11, 65, 64
1, 38411, Pitch_bend_c, 3, 4778
1, 38422, Pitch_bend_c, 3, 7357
1, 38434, Pitch_bend_c, 3, 8192
1, 38458, Note_off_c, 9, 36, 64
1, 38460, Control_c, 12, 7, 30
1, 38463, Note_off_c, 9, 42, 64
1, 38515, Note_on_c, 9, 24, 49
1, 38519, Note_on_c, 9, 42, 80
1, 38519, Note_on_c, 9, 27, 85
1, 38520, Control_c, 12, 7, 31
1, 38560, Note_off_c, 9, 27, 64
1, 38569, Note_off_c, 9, 42, 64
1, 38569, Note_off_c, 9, 24, 64
1, 38580, Control_c, 12, 7, 33
1, 38604, Control_c, 11, 7, 64
1, 38636, Note_on_c, 9, 36, 100
1, 38639, Note_on_c, 9, 42, 96
1, 38640, Control_c, 2, 64, 127
1, 38640, Note_on_c, 9, 24, 40
1, 38640, Control_c, 12, 7, 34
1, 38648, Note_on_c, 2, 69, 89
1, 38688, Note_off_c, 9, 24, 64
1, 38699, Note_off_c, 9, 36, 64
1, 38700, Control_c, 12, 7, 35
1, 38702, Control_c, 3, 1, 2
1, 38709, Note_off_c, 9, 42, 64
1, 38746, Control_c, 3, 1, 14
1, 38760, Control_c, 12, 7, 37
1, 38791, Control_c, 3, 1, 24
1, 38820, Control_c, 12, 7, 38
1, 38824, Control_c, 3, 1, 34
1, 38869, Control_c, 3, 1, 46
1, 38873, Note_on_c, 9, 24, 66
1, 38875, Note_off_c, 2, 69, 64
1, 38878, Note_on_c, 9, 27, 95
1, 38879, Note_on_c, 9, 42, 100
1, 38880, Control_c, 12, 7, 40
1, 38881, Note_on_c, 9, 37, 122
1, 38888, Control_c, 11, 7, 66
1, 38913, Control_c, 3, 1, 58
1, 38930, Note_off_c, 9, 27, 64
1, 38935, Note_off_c, 9, 24, 64
1, 38935, Note_off_c, 9, 37, 64
1, 38940, Note_off_c, 9, 42, 64
1, 38940, Control_c, 12, 7, 41
1, 38957, Control_c, 3, 1, 69
1, 38991, Control_c, 3, 1, 74
1, 39000, Control_c, 12, 7, 43
1, 39058, Control_c, 3, 1, 48
1, 39060, Control_c, 12, 7, 44
1, 39091, Control_c, 3, 1, 0
1, 39105, Note_off_c, 3, 67, 64
1, 39116, Note_on_c, 9, 24, 42
1, 39117, Note_on_c, 9, 36, 65
1, 39118, Note_on_c, 2, 69, 96
1, 39118, Note_on_c, 9, 42, 96
1, 39120, Control_c, 12, 7, 46
1, 39131, Note_on_c, 3, 69, 110
1, 39131, Lyric_t, "ken.\015"
1, 39150, Note_off_c, 9, 36, 64
1, 39168, Note_off_c, 9, 24, 64
1, 39172, Control_c, 11, 7, 66
1, 39180, Control_c, 12, 7, 47
1, 39182, Note_off_c, 9, 42, 64
1, 39238, Note_on_c, 9, 36, 105
1, 39238, Note_on_c, 9, 24, 55
1, 39239, Note_on_c, 9, 42, 80
1, 39240, Control_c, 12, 7, 48
1, 39241, Note_on_c, 9, 27, 85
1, 39272, Note_off_c, 9, 27, 64
1, 39288, Note_off_c, 9, 24, 64
1, 39289, Note_off_c, 9, 42, 64
1, 39300, Control_c, 12, 7, 50
1, 39306, Note_off_c, 9, 36, 64
1, 39360, Note_on_c, 9, 42, 96
1, 39360, Control_c, 12, 7, 51
1, 39420, Control_c, 12, 7, 52
1, 39424, Control_c, 3, 1, 1
1, 39426, Note_off_c, 9, 42, 64
1, 39456, Control_c, 11, 7, 68
1, 39469, Control_c, 3, 1, 11
1, 39477, Note_on_c, 14, 60, 122
1, 39478, Note_on_c, 9, 24, 47
1, 39479, Note_on_c, 9, 27, 81
1, 39479, Note_on_c, 9, 36, 71
1, 39480, Control_c, 12, 7, 54
1, 39481, Note_on_c, 9, 42, 80
1, 39502, Control_c, 3, 1, 17
1, 39511, Note_off_c, 9, 27, 64
1, 39524, Note_off_c, 9, 36, 64
1, 39530, Note_off_c, 9, 24, 64
1, 39534, Note_off_c, 9, 42, 64
1, 39540, Control_c, 12, 7, 55
1, 39547, Control_c, 3, 1, 27
1, 39580, Control_c, 3, 1, 32
1, 39584, Note_off_c, 2, 69, 64
1, 39585, Note_off_c, 2, 62, 64
1, 39590, Note_off_c, 2, 67, 64
1, 39600, Control_c, 12, 7, 56
1, 39601, Note_on_c, 9, 36, 100
1, 39603, Note_on_c, 9, 42, 100
1, 39613, Control_c, 3, 1, 37
1, 39626, Note_off_c, 2, 58, 64
1, 39647, Control_c, 3, 1, 42
1, 39660, Control_c, 12, 7, 58
1, 39669, Note_off_c, 9, 36, 64
1, 39670, Note_off_c, 9, 42, 64
1, 39691, Control_c, 3, 1, 48
1, 39716, Note_on_c, 9, 24, 40
1, 39720, Control_c, 12, 7, 59
1, 39740, Control_c, 11, 7, 69
1, 39758, Control_c, 3, 1, 53
1, 39764, Note_off_c, 9, 24, 64
1, 39780, Control_c, 12, 7, 61
1, 39802, Control_c, 3, 1, 58
1, 39836, Note_on_c, 9, 24, 55
1, 39837, Note_on_c, 9, 27, 95
1, 39838, Note_on_c, 9, 37, 122
1, 39840, Note_on_c, 9, 42, 100
1, 39840, Control_c, 12, 7, 62
1, 39847, Control_c, 3, 1, 63
1, 39880, Control_c, 3, 1, 68
1, 39886, Note_off_c, 9, 27, 64
1, 39893, Note_off_c, 9, 37, 64
1, 39899, Note_off_c, 9, 24, 64
1, 39900, Control_c, 12, 7, 64
1, 39903, Note_off_c, 9, 42, 64
1, 39960, Control_c, 12, 7, 65
1, 40020, Control_c, 12, 7, 67
1, 40024, Control_c, 11, 7, 71
1, 40075, Note_on_c, 9, 24, 51
1, 40078, Note_on_c, 9, 42, 96
1, 40080, Control_c, 12, 7, 68
1, 40083, Note_on_c, 2, 69, 92
1, 40086, Note_off_c, 3, 69, 64
1, 40091, Control_c, 3, 1, 0
1, 40126, Note_off_c, 9, 24, 64
1, 40139, Note_off_c, 2, 69, 64
1, 40140, Control_c, 12, 7, 69
1, 40141, Note_off_c, 9, 42, 64
1, 40166, Note_off_c, 2, 55, 64
1, 40170, Note_off_c, 2, 43, 64
1, 40197, Note_on_c, 9, 24, 44
1, 40198, Note_on_c, 9, 42, 80
1, 40200, Control_c, 12, 7, 71
1, 40201, Note_on_c, 9, 36, 73
1, 40205, Note_on_c, 9, 27, 85
1, 40226, Note_off_c, 9, 27, 64
1, 40243, Note_off_c, 9, 36, 64
1, 40245, Note_off_c, 9, 42, 64
1, 40256, Note_off_c, 9, 24, 64
1, 40260, Control_c, 12, 7, 72
1, 40290, Note_off_c, 11, 74, 64
1, 40294, Note_off_c, 1, 31, 64
1, 40294, Note_off_c, 7, 58, 64
1, 40296, Note_off_c, 11, 70, 64
1, 40298, Note_off_c, 7, 62, 64
1, 40301, Note_off_c, 11, 79, 64
1, 40303, Note_off_c, 11, 77, 64
1, 40304, Note_off_c, 7, 67, 64
1, 40307, Note_off_c, 10, 69, 64
1, 40308, Note_off_c, 10, 81, 64
1, 40308, Control_c, 11, 7, 73
1, 40313, Note_on_c, 7, 65, 92
1, 40313, Note_on_c, 11, 77, 83
1, 40314, Note_on_c, 7, 69, 92
1, 40314, Note_on_c, 7, 62, 86
1, 40314, Note_on_c, 11, 81, 92
1, 40314, Note_on_c, 11, 69, 75
1, 40315, Note_off_c, 7, 43, 64
1, 40315, Note_off_c, 11, 67, 64
1, 40315, Note_on_c, 11, 62, 83
1, 40315, Note_on_c, 12, 38, 115
1, 40315, Note_on_c, 13, 57, 105
1, 40316, Control_c, 2, 64, 0
1, 40316, Note_on_c, 7, 57, 77
1, 40316, Note_on_c, 9, 35, 122
1, 40316, Note_on_c, 11, 86, 92
1, 40316, Note_on_c, 13, 50, 105
1, 40317, Note_on_c, 7, 50, 77
1, 40317, Note_on_c, 10, 86, 96
1, 40318, Note_on_c, 10, 74, 80
1, 40319, Control_c, 10, 7, 60
1, 40319, Control_c, 11, 7, 74
1, 40319, Control_c, 12, 7, 74
1, 40320, Note_on_c, 9, 49, 115
1, 40320, Control_c, 10, 7, 60
1, 40320, Control_c, 11, 7, 75
1, 40320, Control_c, 12, 7, 76
1, 40320, Control_c, 13, 7, 65
1, 40321, Note_off_c, 12, 43, 64
1, 40322, Note_on_c, 1, 26, 110
1, 40325, Note_on_c, 2, 81, 100
1, 40325, Note_on_c, 2, 50, 89
1, 40326, Note_on_c, 2, 69, 100
1, 40326, Note_on_c, 2, 77, 110
1, 40327, Note_on_c, 2, 38, 83
1, 40328, Note_on_c, 2, 74, 105
1, 40376, Note_off_c, 9, 35, 64
1, 40378, Note_off_c, 9, 49, 64
1, 40474, Note_off_c, 14, 60, 64
1, 40515, Note_off_c, 1, 26, 64
1, 40529, Control_c, 2, 64, 127
1, 40555, Note_off_c, 13, 50, 64
1, 40556, Note_on_c, 9, 35, 122
1, 40556, Note_off_c, 13, 57, 64
1, 40558, Note_on_c, 9, 51, 100
1, 40558, Note_on_c, 13, 50, 100
1, 40558, Note_on_c, 13, 57, 96
1, 40561, Note_on_c, 1, 26, 110
1, 40607, Note_off_c, 9, 51, 64
1, 40614, Note_off_c, 9, 35, 64
1, 40750, Note_off_c, 1, 26, 64
1, 40793, Note_off_c, 13, 57, 64
1, 40794, Note_off_c, 13, 50, 64
1, 40796, Note_on_c, 9, 51, 115
1, 40798, Note_on_c, 13, 50, 96
1, 40799, Note_on_c, 13, 57, 96
1, 40800, Note_on_c, 3, 62, 105
1, 40800, Note_on_c, 9, 38, 122
1, 40800, Lyric_t, "And "
1, 40801, Note_on_c, 1, 26, 110
1, 40842, Note_off_c, 9, 51, 64
1, 40854, Note_off_c, 9, 38, 64
1, 40940, Note_off_c, 2, 69, 64
1, 40994, Note_off_c, 1, 26, 64
1, 41001, Pitch_bend_c, 3, 7433
1, 41009, Note_off_c, 3, 62, 64
1, 41013, Pitch_bend_c, 3, 5006
1, 41024, Pitch_bend_c, 3, 3261
1, 41034, Note_on_c, 3, 69, 115
1, 41034, Lyric_t, "I "
1, 41035, Pitch_bend_c, 3, 2882
1, 41036, Note_on_c, 9, 51, 100
1, 41036, Note_off_c, 13, 57, 64
1, 41036, Note_off_c, 13, 50, 64
1, 41039, Note_on_c, 13, 50, 92
1, 41040, Note_on_c, 2, 69, 105
1, 41040, Note_on_c, 13, 57, 96
1, 41041, Note_on_c, 1, 26, 105
1, 41044, Note_on_c, 4, 65, 110
1, 41057, Pitch_bend_c, 3, 3413
1, 41068, Pitch_bend_c, 3, 4399
1, 41079, Pitch_bend_c, 3, 6144
1, 41091, Pitch_bend_c, 3, 8192
1, 41095, Note_off_c, 9, 51, 64
1, 41161, Note_on_c, 9, 35, 127
1, 41226, Note_off_c, 9, 35, 64
1, 41228, Note_off_c, 1, 26, 64
1, 41269, Note_off_c, 13, 57, 64
1, 41270, Note_off_c, 13, 50, 64
1, 41277, Note_on_c, 13, 50, 96
1, 41277, Note_on_c, 13, 57, 96
1, 41279, Note_on_c, 1, 26, 105
1, 41279, Note_on_c, 9, 51, 110
1, 41329, Note_off_c, 9, 51, 64
1, 41386, Note_off_c, 2, 81, 64
1, 41477, Note_off_c, 1, 26, 64
1, 41517, Note_off_c, 13, 57, 64
1, 41518, Note_off_c, 13, 50, 64
1, 41519, Note_on_c, 13, 50, 100
1, 41520, Note_on_c, 9, 51, 92
1, 41520, Note_on_c, 9, 35, 122
1, 41520, Note_on_c, 13, 57, 96
1, 41524, Note_on_c, 1, 26, 105
1, 41537, Control_c, 3, 1, 1
1, 41570, Control_c, 3, 1, 7
1, 41576, Note_off_c, 9, 51, 64
1, 41584, Note_off_c, 9, 35, 64
1, 41604, Control_c, 3, 1, 12
1, 41659, Control_c, 3, 1, 17
1, 41703, Control_c, 3, 1, 22
1, 41722, Note_off_c, 1, 26, 64
1, 41737, Control_c, 3, 1, 27
1, 41755, Note_off_c, 13, 57, 64
1, 41756, Note_off_c, 13, 50, 64
1, 41757, Note_on_c, 2, 81, 105
1, 41758, Note_on_c, 9, 38, 122
1, 41760, Note_on_c, 9, 51, 110
1, 41760, Note_on_c, 13, 50, 100
1, 41760, Note_on_c, 13, 57, 100
1, 41767, Note_on_c, 1, 26, 105
1, 41770, Control_c, 3, 1, 32
1, 41804, Control_c, 3, 1, 37
1, 41813, Note_off_c, 9, 38, 64
1, 41816, Note_off_c, 9, 51, 64
1, 41870, Control_c, 3, 1, 42
1, 41888, Note_off_c, 2, 69, 64
1, 41921, Note_off_c, 2, 50, 64
1, 41929, Note_off_c, 2, 38, 64
1, 41937, Control_c, 3, 1, 48
1, 41943, Note_off_c, 1, 26, 64
1, 41961, Note_off_c, 2, 74, 64
1, 41965, Note_off_c, 2, 81, 64
1, 41978, Note_off_c, 2, 77, 64
1, 41995, Note_on_c, 2, 69, 92
1, 41998, Note_off_c, 13, 57, 64
1, 41999, Note_on_c, 1, 26, 105
1, 41999, Note_off_c, 13, 50, 64
1, 42000, Note_on_c, 9, 51, 92
1, 42001, Note_on_c, 13, 50, 92
1, 42002, Note_on_c, 13, 57, 96
1, 42004, Control_c, 3, 1, 53
1, 42049, Note_off_c, 9, 51, 64
1, 42090, Note_off_c, 2, 69, 64
1, 42093, Control_c, 3, 1, 58
1, 42122, Note_on_c, 9, 36, 110
1, 42188, Note_off_c, 11, 86, 64
1, 42191, Note_off_c, 1, 26, 64
1, 42191, Note_off_c, 9, 36, 64
1, 42201, Note_off_c, 7, 69, 64
1, 42201, Note_off_c, 7, 62, 64
1, 42206, Note_off_c, 11, 77, 64
1, 42215, Control_c, 3, 1, 63
1, 42224, Note_off_c, 7, 50, 64
1, 42226, Note_off_c, 13, 57, 64
1, 42226, Note_off_c, 13, 50, 64
1, 42228, Control_c, 2, 64, 0
1, 42228, Note_on_c, 2, 72, 96
1, 42229, Note_on_c, 2, 76, 110
1, 42230, Note_on_c, 2, 79, 110
1, 42230, Note_on_c, 2, 36, 83
1, 42231, Note_on_c, 1, 36, 110
1, 42231, Note_on_c, 2, 48, 92
1, 42231, Note_on_c, 7, 67, 89
1, 42232, Note_on_c, 7, 64, 86
1, 42232, Note_on_c, 7, 48, 92
1, 42232, Note_off_c, 12, 38, 64
1, 42233, Note_on_c, 7, 60, 80
1, 42235, Note_on_c, 11, 60, 73
1, 42236, Note_on_c, 11, 84, 86
1, 42236, Note_on_c, 13, 55, 92
1, 42236, Note_on_c, 13, 48, 105
1, 42237, Note_on_c, 11, 79, 89
1, 42237, Note_on_c, 11, 76, 77
1, 42238, Note_on_c, 12, 48, 115
1, 42239, Note_on_c, 9, 35, 122
1, 42239, Note_on_c, 9, 51, 110
1, 42248, Note_off_c, 11, 62, 64
1, 42253, Note_off_c, 7, 65, 64
1, 42261, Note_off_c, 11, 81, 64
1, 42291, Note_off_c, 9, 51, 64
1, 42293, Control_c, 3, 1, 68
1, 42329, Note_off_c, 9, 35, 64
1, 42419, Note_off_c, 1, 36, 64
1, 42443, Control_c, 2, 64, 127
1, 42448, Control_c, 3, 1, 78
1, 42476, Note_on_c, 1, 36, 105
1, 42477, Note_on_c, 9, 51, 86
1, 42480, Note_on_c, 9, 35, 127
1, 42481, Note_on_c, 13, 55, 89
1, 42481, Note_off_c, 13, 48, 64
1, 42482, Control_c, 3, 1, 83
1, 42482, Note_on_c, 13, 48, 100
1, 42482, Note_off_c, 13, 55, 64
1, 42531, Note_off_c, 9, 51, 64
1, 42556, Note_off_c, 9, 35, 64
1, 42571, Control_c, 3, 1, 56
1, 42604, Control_c, 3, 1, 0
1, 42643, Note_off_c, 3, 69, 64
1, 42653, Note_off_c, 1, 36, 64
1, 42693, Note_off_c, 4, 65, 64
1, 42711, Note_on_c, 3, 67, 100
1, 42711, Lyric_t, "could "
1, 42716, Note_on_c, 1, 36, 105
1, 42716, Note_on_c, 4, 64, 105
1, 42716, Note_on_c, 9, 38, 122
1, 42717, Note_on_c, 9, 51, 110
1, 42719, Note_off_c, 13, 48, 64
1, 42719, Note_off_c, 13, 55, 64
1, 42722, Note_on_c, 13, 55, 92
1, 42723, Note_on_c, 13, 48, 105
1, 42771, Note_off_c, 9, 51, 64
1, 42775, Note_off_c, 9, 38, 64
1, 42899, Note_off_c, 1, 36, 64
1, 42939, Note_off_c, 3, 67, 64
1, 42952, Note_off_c, 13, 48, 64
1, 42953, Note_off_c, 13, 55, 64
1, 42954, Note_on_c, 3, 65, 110
1, 42954, Lyric_t, "see "
1, 42955, Note_on_c, 1, 36, 100
1, 42955, Note_on_c, 2, 69, 105
1, 42956, Note_on_c, 4, 62, 100
1, 42958, Note_off_c, 4, 64, 64
1, 42958, Note_on_c, 9, 51, 89
1, 42960, Note_on_c, 13, 55, 89
1, 42960, Note_on_c, 13, 48, 96
1, 43012, Note_off_c, 9, 51, 64
1, 43077, Note_on_c, 9, 35, 122
1, 43140, Note_off_c, 1, 36, 64
1, 43141, Note_off_c, 9, 35, 64
1, 43182, Control_c, 3, 1, 7
1, 43195, Note_on_c, 1, 36, 100
1, 43197, Note_off_c, 13, 48, 64
1, 43198, Note_on_c, 9, 51, 110
1, 43198, Note_off_c, 13, 55, 64
1, 43201, Note_on_c, 13, 48, 105
1, 43201, Note_on_c, 13, 55, 96
1, 43227, Control_c, 3, 1, 22
1, 43246, Note_off_c, 9, 51, 64
1, 43260, Control_c, 3, 1, 42
1, 43293, Control_c, 3, 1, 58
1, 43360, Control_c, 3, 1, 51
1, 43369, Note_off_c, 1, 36, 64
1, 43393, Control_c, 3, 1, 0
1, 43433, Note_on_c, 1, 36, 105
1, 43435, Note_off_c, 3, 65, 64
1, 43435, Note_off_c, 4, 62, 64
1, 43435, Note_off_c, 13, 55, 64
1, 43436, Note_off_c, 13, 48, 64
1, 43437, Note_on_c, 9, 51, 89
1, 43439, Note_on_c, 9, 35, 122
1, 43440, Note_on_c, 13, 55, 96
1, 43441, Note_on_c, 13, 48, 105
1, 43442, Note_on_c, 4, 60, 96
1, 43443, Note_on_c, 3, 64, 115
1, 43443, Lyric_t, "it "
1, 43488, Note_off_c, 9, 51, 64
1, 43499, Note_off_c, 9, 35, 64
1, 43561, Note_off_c, 2, 79, 64
1, 43618, Note_off_c, 1, 36, 64
1, 43673, Note_on_c, 1, 36, 96
1, 43676, Note_on_c, 9, 38, 122
1, 43678, Note_on_c, 9, 51, 105
1, 43680, Note_off_c, 13, 48, 64
1, 43680, Note_off_c, 13, 55, 64
1, 43682, Note_on_c, 13, 55, 96
1, 43683, Note_on_c, 2, 79, 110
1, 43683, Note_on_c, 13, 48, 105
1, 43730, Note_off_c, 9, 38, 64
1, 43736, Note_off_c, 9, 51, 64
1, 43832, Note_off_c, 2, 69, 64
1, 43854, Note_off_c, 1, 36, 64
1, 43870, Pitch_bend_c, 3, 7661
1, 43875, Note_off_c, 3, 64, 64
1, 43881, Pitch_bend_c, 3, 5764
1, 43892, Pitch_bend_c, 3, 4171
1, 43904, Pitch_bend_c, 3, 3413
1, 43912, Note_on_c, 1, 36, 100
1, 43915, Pitch_bend_c, 3, 3185
1, 43915, Note_on_c, 3, 67, 115
1, 43915, Lyric_t, "clear"
1, 43917, Note_on_c, 9, 51, 96
1, 43918, Note_on_c, 2, 69, 89
1, 43921, Note_off_c, 13, 48, 64
1, 43921, Note_off_c, 13, 55, 64
1, 43924, Note_on_c, 13, 48, 105
1, 43925, Note_on_c, 13, 55, 100
1, 43929, Note_on_c, 4, 64, 89
1, 43937, Pitch_bend_c, 3, 3868
1, 43943, Note_off_c, 4, 60, 64
1, 43948, Pitch_bend_c, 3, 5157
1, 43959, Pitch_bend_c, 3, 7661
1, 43970, Pitch_bend_c, 3, 8192
1, 43976, Note_off_c, 9, 51, 64
1, 43993, Note_off_c, 2, 48, 64
1, 43993, Note_off_c, 2, 36, 64
1, 44040, Note_on_c, 9, 36, 105
1, 44046, Note_off_c, 2, 69, 64
1, 44051, Note_off_c, 2, 72, 64
1, 44051, Note_off_c, 2, 76, 64
1, 44052, Note_off_c, 2, 79, 64
1, 44089, Note_off_c, 9, 36, 64
1, 44092, Note_off_c, 1, 36, 64
1, 44125, Control_c, 2, 64, 0
1, 44125, Note_off_c, 11, 76, 64
1, 44130, Note_off_c, 7, 64, 64
1, 44132, Note_off_c, 7, 60, 64
1, 44138, Note_off_c, 7, 57, 64
1, 44141, Note_off_c, 7, 48, 64
1, 44141, Note_off_c, 7, 67, 64
1, 44148, Note_on_c, 1, 34, 110
1, 44149, Note_on_c, 7, 65, 86
1, 44150, Note_on_c, 7, 46, 77
1, 44151, Note_on_c, 7, 53, 77
1, 44152, Note_on_c, 7, 58, 77
1, 44152, Note_on_c, 12, 46, 115
1, 44153, Note_on_c, 2, 46, 89
1, 44153, Note_on_c, 7, 60, 89
1, 44153, Note_on_c, 11, 58, 73
1, 44154, Note_on_c, 7, 62, 83
1, 44154, Note_on_c, 11, 82, 69
1, 44154, Note_on_c, 11, 65, 73
1, 44155, Note_on_c, 2, 34, 86
1, 44155, Note_on_c, 11, 77, 92
1, 44156, Note_on_c, 2, 65, 89
1, 44156, Note_off_c, 13, 55, 64
1, 44157, Note_on_c, 2, 74, 100
1, 44157, Note_on_c, 2, 77, 100
1, 44157, Note_on_c, 9, 51, 105
1, 44157, Note_off_c, 11, 69, 64
1, 44157, Note_on_c, 11, 74, 73
1, 44157, Note_off_c, 13, 48, 64
1, 44158, Note_on_c, 2, 70, 100
1, 44158, Note_on_c, 9, 35, 115
1, 44162, Note_off_c, 11, 84, 64
1, 44162, Note_off_c, 12, 48, 64
1, 44162, Note_on_c, 13, 53, 96
1, 44163, Note_on_c, 13, 46, 105
1, 44174, Note_off_c, 11, 60, 64
1, 44183, Note_off_c, 11, 79, 64
1, 44216, Note_off_c, 9, 51, 64
1, 44230, Note_off_c, 9, 35, 64
1, 44283, Control_c, 3, 1, 34
1, 44316, Control_c, 3, 1, 54
1, 44351, Note_off_c, 1, 34, 64
1, 44361, Control_c, 3, 1, 48
1, 44368, Note_off_c, 4, 64, 64
1, 44370, Control_c, 2, 64, 127
1, 44394, Control_c, 3, 1, 0
1, 44396, Note_on_c, 4, 62, 89
1, 44397, Note_on_c, 1, 34, 105
1, 44397, Note_on_c, 9, 51, 86
1, 44399, Note_on_c, 9, 35, 122
1, 44400, Note_off_c, 3, 67, 64
1, 44404, Note_off_c, 13, 46, 64
1, 44405, Note_off_c, 13, 53, 64
1, 44406, Note_on_c, 13, 53, 100
1, 44406, Note_on_c, 13, 46, 100
1, 44409, Note_on_c, 3, 65, 105
1, 44409, Lyric_t, "ly\015"
1, 44457, Note_off_c, 9, 51, 64
1, 44465, Note_off_c, 9, 35, 64
1, 44592, Note_off_c, 1, 34, 64
1, 44636, Note_on_c, 9, 38, 122
1, 44638, Note_on_c, 9, 51, 105
1, 44642, Note_on_c, 1, 34, 110
1, 44645, Note_off_c, 13, 46, 64
1, 44645, Note_off_c, 13, 53, 64
1, 44648, Note_on_c, 13, 46, 100
1, 44648, Note_on_c, 13, 53, 96
1, 44691, Note_off_c, 9, 38, 64
1, 44699, Note_off_c, 9, 51, 64
1, 44705, Control_c, 3, 1, 34
1, 44739, Control_c, 3, 1, 49
1, 44783, Control_c, 3, 1, 42
1, 44792, Note_off_c, 2, 65, 64
1, 44816, Control_c, 3, 1, 0
1, 44831, Note_off_c, 1, 34, 64
1, 44858, Note_off_c, 3, 65, 64
1, 44868, Note_on_c, 2, 65, 96
1, 44879, Note_on_c, 4, 60, 96
1, 44879, Note_on_c, 9, 51, 92
1, 44881, Note_off_c, 13, 53, 64
1, 44881, Note_off_c, 13, 46, 64
1, 44882, Note_on_c, 3, 64, 110
1, 44882, Lyric_t, "once "
1, 44884, Note_on_c, 1, 34, 110
1, 44886, Note_on_c, 13, 46, 96
1, 44887, Note_on_c, 13, 53, 96
1, 44906, Note_off_c, 4, 62, 64
1, 44936, Note_off_c, 9, 51, 64
1, 44997, Note_on_c, 9, 35, 122
1, 45060, Note_off_c, 9, 35, 64
1, 45065, Note_off_c, 1, 34, 64
1, 45119, Note_on_c, 9, 51, 105
1, 45120, Note_off_c, 13, 53, 64
1, 45121, Note_off_c, 13, 46, 64
1, 45122, Note_on_c, 1, 34, 105
1, 45126, Note_on_c, 13, 53, 96
1, 45126, Note_on_c, 13, 46, 100
1, 45128, Control_c, 3, 1, 12
1, 45161, Control_c, 3, 1, 42
1, 45177, Note_off_c, 9, 51, 64
1, 45195, Control_c, 3, 1, 54
1, 45239, Control_c, 3, 1, 34
1, 45273, Control_c, 3, 1, 0
1, 45280, Note_off_c, 2, 70, 64
1, 45302, Note_off_c, 2, 77, 64
1, 45303, Note_off_c, 1, 34, 64
1, 45311, Note_off_c, 2, 74, 64
1, 45331, Note_off_c, 3, 64, 64
1, 45345, Note_off_c, 4, 60, 64
1, 45349, Note_on_c, 4, 58, 100
1, 45356, Note_on_c, 3, 62, 100
1, 45356, Lyric_t, "when "
1, 45359, Note_off_c, 13, 46, 64
1, 45360, Note_on_c, 1, 34, 110
1, 45360, Note_on_c, 9, 51, 89
1, 45360, Note_off_c, 13, 53, 64
1, 45361, Note_on_c, 9, 35, 122
1, 45365, Note_on_c, 13, 46, 96
1, 45366, Note_on_c, 13, 53, 96
1, 45411, Note_off_c, 9, 51, 64
1, 45428, Note_off_c, 9, 35, 64
1, 45554, Note_off_c, 1, 34, 64
1, 45588, Note_on_c, 2, 77, 110
1, 45588, Note_on_c, 2, 74, 110
1, 45589, Note_on_c, 2, 70, 96
1, 45597, Note_on_c, 9, 38, 122
1, 45601, Note_on_c, 9, 51, 105
1, 45603, Note_off_c, 13, 53, 64
1, 45604, Note_off_c, 13, 46, 64
1, 45605, Note_on_c, 1, 34, 110
1, 45606, Note_on_c, 13, 53, 96
1, 45607, Note_on_c, 13, 46, 96
1, 45634, Note_off_c, 2, 34, 64
1, 45647, Note_off_c, 2, 46, 64
1, 45651, Note_off_c, 9, 38, 64
1, 45654, Note_off_c, 9, 51, 64
1, 45740, Note_off_c, 2, 74, 64
1, 45742, Note_off_c, 2, 77, 64
1, 45757, Note_off_c, 2, 70, 64
1, 45770, Note_off_c, 4, 58, 64
1, 45783, Pitch_bend_c, 3, 7585
1, 45785, Note_off_c, 2, 65, 64
1, 45786, Note_off_c, 3, 62, 64
1, 45792, Note_off_c, 1, 34, 64
1, 45793, Pitch_bend_c, 3, 5764
1, 45805, Pitch_bend_c, 3, 4551
1, 45816, Pitch_bend_c, 3, 4323
1, 45830, Note_on_c, 3, 65, 105
1, 45830, Lyric_t, "you "
1, 45838, Pitch_bend_c, 3, 4702
1, 45839, Note_off_c, 13, 46, 64
1, 45839, Note_off_c, 13, 53, 64
1, 45840, Note_on_c, 9, 51, 86
1, 45845, Note_on_c, 13, 53, 96
1, 45846, Note_on_c, 13, 46, 96
1, 45848, Note_on_c, 1, 34, 110
1, 45849, Pitch_bend_c, 3, 5688
1, 45860, Pitch_bend_c, 3, 8116
1, 45871, Pitch_bend_c, 3, 8192
1, 45901, Note_off_c, 9, 51, 64
1, 45958, Note_on_c, 9, 36, 110
1, 46007, Note_off_c, 9, 36, 64
1, 46024, Note_off_c, 1, 34, 64
1, 46042, Note_off_c, 11, 77, 64
1, 46043, Note_off_c, 7, 53, 64
1, 46049, Note_off_c, 11, 82, 64
1, 46057, Note_off_c, 7, 60, 64
1, 46061, Note_off_c, 7, 65, 64
1, 46062, Note_off_c, 7, 58, 64
1, 46068, Note_off_c, 12, 46, 64
1, 46073, Note_on_c, 7, 64, 86
1, 46074, Note_on_c, 7, 45, 83
1, 46074, Note_on_c, 7, 57, 83
1, 46075, Note_on_c, 9, 35, 115
1, 46075, Note_off_c, 13, 46, 64
1, 46076, Note_off_c, 7, 46, 64
1, 46076, Note_off_c, 13, 53, 64
1, 46077, Note_off_c, 11, 58, 64
1, 46077, Note_on_c, 12, 45, 122
1, 46080, Note_on_c, 1, 33, 115
1, 46080, Note_on_c, 7, 52, 89
1, 46080, Note_on_c, 9, 51, 105
1, 46081, Note_on_c, 2, 76, 100
1, 46081, Note_on_c, 2, 74, 105
1, 46081, Note_on_c, 11, 57, 73
1, 46082, Note_on_c, 13, 52, 100
1, 46083, Note_on_c, 2, 69, 100
1, 46083, Note_on_c, 2, 33, 80
1, 46083, Note_on_c, 11, 64, 71
1, 46083, Note_on_c, 11, 76, 83
1, 46083, Note_on_c, 13, 45, 100
1, 46084, Note_on_c, 2, 64, 105
1, 46084, Note_on_c, 11, 81, 100
1, 46085, Note_on_c, 2, 45, 83
1, 46091, Control_c, 2, 64, 0
1, 46095, Note_off_c, 11, 65, 64
1, 46132, Note_off_c, 9, 35, 64
1, 46135, Note_off_c, 9, 51, 64
1, 46139, Control_c, 3, 1, 12
1, 46173, Control_c, 3, 1, 34
1, 46217, Control_c, 3, 1, 26
1, 46251, Control_c, 3, 1, 0
1, 46265, Note_off_c, 1, 33, 64
1, 46278, Note_off_c, 3, 65, 64
1, 46292, Control_c, 2, 64, 127
1, 46313, Note_on_c, 9, 35, 122
1, 46316, Note_on_c, 3, 64, 115
1, 46316, Lyric_t, "were \015"
1, 46319, Note_on_c, 9, 51, 83
1, 46320, Note_on_c, 1, 33, 115
1, 46325, Note_off_c, 13, 45, 64
1, 46325, Note_off_c, 13, 52, 64
1, 46326, Note_on_c, 13, 45, 100
1, 46327, Note_on_c, 13, 52, 100
1, 46376, Note_off_c, 9, 35, 64
1, 46379, Note_off_c, 9, 51, 64
1, 46505, Note_off_c, 1, 33, 64
1, 46556, Note_on_c, 9, 38, 122
1, 46558, Note_on_c, 1, 33, 115
1, 46559, Note_on_c, 9, 51, 110
1, 46559, Note_off_c, 13, 52, 64
1, 46559, Note_off_c, 13, 45, 64
1, 46565, Note_on_c, 13, 52, 96
1, 46565, Note_on_c, 13, 45, 100
1, 46607, Control_c, 3, 1, 26
1, 46611, Note_off_c, 9, 38, 64
1, 46620, Note_off_c, 9, 51, 64
1, 46640, Control_c, 3, 1, 41
1, 46686, Note_off_c, 2, 76, 64
1, 46696, Control_c, 3, 1, 29
1, 46699, Note_off_c, 2, 74, 64
1, 46702, Note_off_c, 2, 64, 64
1, 46704, Note_off_c, 2, 69, 64
1, 46729, Control_c, 3, 1, 0
1, 46733, Note_off_c, 11, 74, 64
1, 46742, Note_off_c, 1, 33, 64
1, 46788, Note_on_c, 2, 76, 100
1, 46789, Note_off_c, 3, 64, 64
1, 46791, Note_on_c, 2, 69, 96
1, 46791, Note_on_c, 2, 73, 105
1, 46792, Note_on_c, 2, 64, 96
1, 46792, Note_on_c, 7, 61, 83
1, 46792, Note_on_c, 10, 85, 83
1, 46793, Note_on_c, 10, 73, 77
1, 46795, Note_on_c, 1, 33, 115
1, 46796, Note_on_c, 11, 73, 80
1, 46798, Note_off_c, 13, 45, 64
1, 46799, Note_on_c, 9, 51, 80
1, 46799, Note_off_c, 13, 52, 64
1, 46802, Note_on_c, 3, 62, 105
1, 46802, Lyric_t, "here "
1, 46804, Note_on_c, 13, 52, 96
1, 46804, Note_on_c, 13, 45, 105
1, 46811, Note_off_c, 10, 74, 64
1, 46821, Note_off_c, 10, 86, 64
1, 46825, Note_off_c, 7, 62, 64
1, 46837, Control_c, 2, 64, 0
1, 46857, Note_off_c, 9, 51, 64
1, 46917, Note_on_c, 9, 35, 122
1, 46972, Note_off_c, 1, 33, 64
1, 46983, Note_off_c, 9, 35, 64
1, 47018, Control_c, 2, 64, 127
1, 47029, Note_on_c, 1, 33, 110
1, 47033, Note_off_c, 13, 45, 64
1, 47033, Note_off_c, 13, 52, 64
1, 47037, Note_on_c, 9, 51, 105
1, 47040, Note_on_c, 13, 52, 100
1, 47041, Note_on_c, 13, 45, 105
1, 47063, Control_c, 3, 1, 14
1, 47096, Control_c, 3, 1, 39
1, 47099, Note_off_c, 9, 51, 64
1, 47152, Control_c, 3, 1, 32
1, 47185, Control_c, 3, 1, 0
1, 47223, Note_off_c, 1, 33, 64
1, 47264, Note_off_c, 3, 62, 64
1, 47272, Note_on_c, 1, 33, 110
1, 47276, Note_off_c, 13, 45, 64
1, 47277, Note_off_c, 13, 52, 64
1, 47279, Note_on_c, 9, 51, 83
1, 47281, Note_on_c, 3, 61, 110
1, 47281, Note_on_c, 9, 35, 122
1, 47281, Note_on_c, 13, 52, 100
1, 47281, Note_on_c, 13, 45, 110
1, 47281, Lyric_t, "with "
1, 47335, Note_off_c, 9, 51, 64
1, 47346, Note_off_c, 9, 35, 64
1, 47433, Note_off_c, 2, 64, 64
1, 47464, Note_off_c, 1, 33, 64
1, 47512, Note_on_c, 2, 64, 92
1, 47515, Note_on_c, 1, 33, 115
1, 47518, Control_c, 3, 1, 4
1, 47518, Note_on_c, 9, 38, 122
1, 47518, Note_off_c, 13, 45, 64
1, 47519, Note_on_c, 9, 51, 110
1, 47519, Note_off_c, 13, 52, 64
1, 47522, Note_on_c, 13, 52, 105
1, 47522, Note_on_c, 13, 45, 105
1, 47552, Control_c, 3, 1, 26
1, 47573, Note_off_c, 9, 38, 64
1, 47580, Note_off_c, 9, 51, 64
1, 47585, Control_c, 3, 1, 42
1, 47629, Control_c, 3, 1, 36
1, 47663, Control_c, 3, 1, 0
1, 47677, Note_off_c, 2, 45, 64
1, 47681, Note_off_c, 2, 33, 64
1, 47700, Note_off_c, 1, 33, 64
1, 47711, Note_off_c, 2, 69, 64
1, 47712, Note_off_c, 2, 73, 64
1, 47722, Note_off_c, 3, 61, 64
1, 47726, Note_off_c, 2, 64, 64
1, 47743, Note_off_c, 2, 76, 64
1, 47757, Note_on_c, 1, 33, 115
1, 47758, Note_on_c, 9, 51, 96
1, 47761, Note_on_c, 3, 57, 115
1, 47761, Lyric_t, "me.\015"
1, 47765, Note_off_c, 13, 45, 64
1, 47765, Note_off_c, 13, 52, 64
1, 47765, Note_on_c, 13, 45, 105
1, 47766, Note_on_c, 13, 52, 100
1, 47835, Note_off_c, 9, 51, 64
1, 47879, Note_on_c, 9, 36, 110
1, 47923, Note_off_c, 9, 36, 64
1, 47945, Note_off_c, 1, 33, 64
1, 47965, Note_off_c, 12, 45, 64
1, 47981, Control_c, 2, 64, 0
1, 47990, Note_on_c, 11, 77, 89
1, 47990, Note_on_c, 11, 81, 96
1, 47991, Note_off_c, 7, 61, 64
1, 47991, Note_off_c, 10, 73, 64
1, 47991, Note_on_c, 11, 69, 77
1, 47992, Note_off_c, 7, 57, 64
1, 47992, Note_on_c, 11, 86, 92
1, 47992, Note_off_c, 11, 76, 64
1, 47992, Note_on_c, 11, 62, 89
1, 47993, Note_on_c, 1, 26, 110
1, 47993, Note_on_c, 7, 65, 92
1, 47993, Note_on_c, 10, 86, 92
1, 47993, Note_on_c, 12, 38, 115
1, 47993, Note_off_c, 13, 52, 64
1, 47994, Note_on_c, 7, 69, 92
1, 47994, Note_on_c, 7, 62, 86
1, 47994, Note_off_c, 13, 45, 64
1, 47995, Note_on_c, 9, 57, 105
1, 47995, Note_on_c, 10, 74, 86
1, 47996, Note_on_c, 7, 57, 77
1, 47996, Note_on_c, 9, 35, 122
1, 47997, Note_on_c, 7, 50, 77
1, 47998, Note_off_c, 11, 64, 64
1, 47999, Note_off_c, 7, 52, 64
1, 47999, Note_off_c, 11, 81, 64
1, 48000, Tempo, 619229
1, 48001, Note_off_c, 7, 64, 64
1, 48001, Note_off_c, 11, 73, 64
1, 48002, Note_on_c, 13, 50, 100
1, 48002, Note_on_c, 13, 57, 96
1, 48003, Note_off_c, 11, 57, 64
1, 48004, Note_off_c, 7, 45, 64
1, 48005, Note_on_c, 2, 81, 100
1, 48005, Note_on_c, 2, 50, 89
1, 48006, Note_on_c, 2, 69, 100
1, 48006, Note_on_c, 2, 77, 110
1, 48006, Note_off_c, 10, 85, 64
1, 48007, Note_on_c, 2, 38, 83
1, 48008, Note_on_c, 2, 74, 105
1, 48052, Control_c, 3, 1, 4
1, 48060, Note_off_c, 9, 35, 64
1, 48070, Note_off_c, 9, 57, 64
1, 48096, Control_c, 3, 1, 19
1, 48141, Control_c, 3, 1, 32
1, 48174, Control_c, 3, 1, 39
1, 48198, Note_off_c, 1, 26, 64
1, 48207, Control_c, 3, 1, 44
1, 48209, Control_c, 2, 64, 127
1, 48237, Note_on_c, 9, 35, 127
1, 48237, Note_off_c, 13, 57, 64
1, 48238, Note_off_c, 13, 50, 64
1, 48239, Note_on_c, 1, 26, 110
1, 48239, Note_on_c, 9, 51, 89
1, 48241, Control_c, 3, 1, 51
1, 48242, Note_on_c, 13, 57, 96
1, 48242, Note_on_c, 13, 50, 96
1, 48274, Control_c, 3, 1, 56
1, 48300, Note_off_c, 9, 35, 64
1, 48308, Note_off_c, 9, 51, 64
1, 48330, Control_c, 3, 1, 48
1, 48338, Note_off_c, 3, 57, 64
1, 48363, Control_c, 3, 1, 0
1, 48433, Note_off_c, 1, 26, 64
1, 48476, Note_on_c, 3, 62, 105
1, 48476, Lyric_t, "And "
1, 48478, Note_on_c, 9, 51, 105
1, 48478, Note_off_c, 13, 50, 64
1, 48478, Note_off_c, 13, 57, 64
1, 48479, Note_on_c, 1, 26, 110
1, 48479, Note_on_c, 9, 38, 122
1, 48482, Note_on_c, 13, 57, 100
1, 48483, Note_on_c, 13, 50, 100
1, 48533, Note_off_c, 9, 38, 64
1, 48534, Note_off_c, 9, 51, 64
1, 48620, Note_off_c, 2, 69, 64
1, 48667, Note_off_c, 1, 26, 64
1, 48702, Note_off_c, 3, 62, 64
1, 48715, Note_off_c, 13, 50, 64
1, 48716, Note_off_c, 13, 57, 64
1, 48717, Note_on_c, 4, 65, 110
1, 48718, Note_on_c, 1, 26, 105
1, 48720, Note_on_c, 2, 69, 105
1, 48720, Note_on_c, 3, 69, 122
1, 48720, Note_on_c, 9, 51, 69
1, 48720, Lyric_t, "now "
1, 48721, Note_on_c, 13, 57, 96
1, 48722, Note_on_c, 13, 50, 100
1, 48727, Pitch_bend_c, 3, 8116
1, 48738, Pitch_bend_c, 3, 7130
1, 48749, Pitch_bend_c, 3, 6674
1, 48760, Pitch_bend_c, 3, 6447
1, 48780, Note_off_c, 9, 51, 64
1, 48793, Pitch_bend_c, 3, 7281
1, 48805, Pitch_bend_c, 3, 8192
1, 48835, Note_on_c, 9, 35, 127
1, 48898, Note_off_c, 9, 35, 64
1, 48901, Note_off_c, 1, 26, 64
1, 48955, Note_on_c, 1, 26, 105
1, 48958, Note_off_c, 13, 50, 64
1, 48959, Note_on_c, 9, 51, 105
1, 48959, Note_off_c, 13, 57, 64
1, 48962, Note_on_c, 13, 50, 100
1, 48963, Note_on_c, 13, 57, 96
1, 49016, Note_off_c, 9, 51, 64
1, 49066, Note_off_c, 2, 81, 64
1, 49148, Note_off_c, 1, 26, 64
1, 49198, Note_on_c, 1, 26, 105
1, 49199, Note_on_c, 9, 51, 77
1, 49200, Note_on_c, 9, 35, 122
1, 49210, Note_on_c, 13, 57, 96
1, 49210, Note_on_c, 13, 50, 100
1, 49213, Note_off_c, 13, 57, 64
1, 49213, Note_off_c, 13, 50, 64
1, 49265, Note_off_c, 9, 35, 64
1, 49267, Note_off_c, 9, 51, 64
1, 49385, Note_off_c, 1, 26, 64
1, 49418, Control_c, 3, 1, 1
1, 49437, Note_on_c, 2, 81, 105
1, 49439, Note_on_c, 1, 26, 110
1, 49440, Note_on_c, 9, 38, 122
1, 49440, Note_on_c, 9, 51, 110
1, 49449, Note_off_c, 13, 50, 64
1, 49450, Note_off_c, 13, 57, 64
1, 49452, Note_on_c, 13, 57, 96
1, 49453, Note_on_c, 13, 50, 100
1, 49473, Control_c, 3, 1, 6
1, 49494, Note_off_c, 9, 38, 64
1, 49504, Note_off_c, 9, 51, 64
1, 49540, Control_c, 3, 1, 11
1, 49568, Note_off_c, 2, 69, 64
1, 49596, Control_c, 3, 1, 16
1, 49601, Note_off_c, 2, 50, 64
1, 49609, Note_off_c, 2, 38, 64
1, 49622, Note_off_c, 1, 26, 64
1, 49641, Note_off_c, 2, 74, 64
1, 49645, Note_off_c, 2, 81, 64
1, 49658, Note_off_c, 2, 77, 64
1, 49673, Control_c, 3, 1, 21
1, 49675, Note_on_c, 2, 69, 92
1, 49677, Note_on_c, 1, 26, 115
1, 49682, Note_on_c, 9, 51, 80
1, 49683, Note_off_c, 13, 50, 64
1, 49683, Note_off_c, 13, 57, 64
1, 49690, Note_on_c, 13, 50, 96
1, 49690, Note_on_c, 13, 57, 96
1, 49729, Control_c, 3, 1, 26
1, 49736, Note_off_c, 9, 51, 64
1, 49770, Note_off_c, 2, 69, 64
1, 49773, Control_c, 3, 1, 31
1, 49800, Note_on_c, 9, 36, 110
1, 49851, Control_c, 3, 1, 36
1, 49853, Note_off_c, 9, 36, 64
1, 49873, Note_off_c, 1, 26, 64
1, 49878, Note_off_c, 11, 86, 64
1, 49881, Note_off_c, 7, 69, 64
1, 49881, Note_off_c, 7, 62, 64
1, 49904, Note_off_c, 7, 50, 64
1, 49905, Note_off_c, 11, 77, 64
1, 49907, Note_off_c, 12, 38, 64
1, 49908, Control_c, 2, 64, 0
1, 49908, Note_on_c, 2, 72, 96
1, 49909, Note_on_c, 2, 76, 110
1, 49910, Note_on_c, 1, 36, 110
1, 49910, Note_on_c, 2, 79, 110
1, 49910, Note_on_c, 2, 36, 83
1, 49911, Note_on_c, 2, 48, 92
1, 49911, Note_on_c, 7, 67, 89
1, 49912, Note_on_c, 7, 64, 86
1, 49912, Note_on_c, 7, 48, 92
1, 49913, Note_on_c, 7, 60, 80
1, 49915, Note_on_c, 12, 48, 122
1, 49918, Note_on_c, 9, 35, 122
1, 49920, Note_on_c, 9, 51, 105
1, 49922, Note_off_c, 13, 57, 64
1, 49922, Note_off_c, 13, 50, 64
1, 49924, Note_on_c, 11, 84, 92
1, 49926, Note_on_c, 11, 60, 96
1, 49926, Note_on_c, 11, 79, 96
1, 49927, Note_on_c, 11, 76, 77
1, 49928, Note_on_c, 13, 55, 92
1, 49928, Note_on_c, 13, 48, 100
1, 49933, Note_off_c, 7, 65, 64
1, 49946, Note_off_c, 11, 62, 64
1, 49951, Control_c, 3, 1, 41
1, 49961, Note_off_c, 11, 81, 64
1, 49976, Note_off_c, 9, 35, 64
1, 49985, Note_off_c, 9, 51, 64
1, 50040, Control_c, 3, 1, 46
1, 50092, Note_off_c, 1, 36, 64
1, 50118, Control_c, 3, 1, 51
1, 50123, Control_c, 2, 64, 127
1, 50155, Note_on_c, 1, 36, 105
1, 50157, Note_on_c, 9, 35, 127
1, 50159, Note_on_c, 9, 51, 80
1, 50170, Note_off_c, 13, 48, 64
1, 50170, Note_off_c, 13, 55, 64
1, 50171, Note_on_c, 13, 55, 89
1, 50172, Note_on_c, 13, 48, 100
1, 50185, Control_c, 3, 1, 56
1, 50207, Note_off_c, 9, 51, 64
1, 50223, Note_off_c, 9, 35, 64
1, 50229, Control_c, 3, 1, 61
1, 50274, Control_c, 3, 1, 66
1, 50331, Note_off_c, 1, 36, 64
1, 50363, Control_c, 3, 1, 71
1, 50394, Note_on_c, 1, 36, 105
1, 50398, Note_on_c, 9, 38, 122
1, 50398, Note_on_c, 9, 51, 105
1, 50402, Note_off_c, 13, 48, 64
1, 50402, Note_off_c, 13, 55, 64
1, 50409, Note_on_c, 13, 55, 89
1, 50409, Note_on_c, 13, 48, 100
1, 50419, Control_c, 3, 1, 81
1, 50453, Note_off_c, 9, 38, 64
1, 50461, Note_off_c, 9, 51, 64
1, 50463, Control_c, 3, 1, 91
1, 50507, Control_c, 3, 1, 86
1, 50541, Control_c, 3, 1, 0
1, 50571, Note_off_c, 1, 36, 64
1, 50620, Note_off_c, 3, 69, 64
1, 50622, Note_off_c, 4, 65, 64
1, 50629, Pitch_bend_c, 3, 6750
1, 50635, Note_on_c, 1, 36, 100
1, 50635, Note_on_c, 2, 69, 105
1, 50639, Note_on_c, 4, 62, 100
1, 50639, Note_on_c, 9, 51, 75
1, 50640, Pitch_bend_c, 3, 5082
1, 50645, Note_off_c, 13, 48, 64
1, 50645, Note_off_c, 13, 55, 64
1, 50649, Note_on_c, 13, 55, 92
1, 50649, Note_on_c, 13, 48, 105
1, 50651, Pitch_bend_c, 3, 4171
1, 50652, Note_on_c, 3, 65, 115
1, 50652, Lyric_t, "some"
1, 50662, Pitch_bend_c, 3, 3944
1, 50684, Pitch_bend_c, 3, 4399
1, 50688, Note_off_c, 9, 51, 64
1, 50695, Pitch_bend_c, 3, 5309
1, 50706, Pitch_bend_c, 3, 7130
1, 50717, Pitch_bend_c, 3, 8192
1, 50753, Note_on_c, 9, 35, 122
1, 50808, Note_off_c, 1, 36, 64
1, 50820, Note_off_c, 9, 35, 64
1, 50871, Note_on_c, 1, 36, 100
1, 50877, Note_on_c, 9, 51, 105
1, 50879, Note_off_c, 13, 48, 64
1, 50880, Note_off_c, 13, 55, 64
1, 50886, Note_on_c, 13, 55, 96
1, 50887, Note_on_c, 13, 48, 105
1, 50936, Note_off_c, 9, 51, 64
1, 50953, Control_c, 3, 1, 11
1, 50985, Control_c, 3, 1, 36
1, 51041, Control_c, 3, 1, 0
1, 51067, Note_off_c, 1, 36, 64
1, 51086, Note_off_c, 3, 65, 64
1, 51117, Note_off_c, 4, 62, 64
1, 51118, Note_on_c, 1, 36, 100
1, 51118, Note_on_c, 9, 51, 77
1, 51118, Note_on_c, 9, 35, 122
1, 51123, Note_on_c, 3, 64, 115
1, 51123, Lyric_t, "how "
1, 51124, Note_off_c, 13, 48, 64
1, 51125, Note_off_c, 13, 55, 64
1, 51128, Note_on_c, 4, 60, 92
1, 51128, Note_on_c, 13, 48, 105
1, 51128, Note_on_c, 13, 55, 96
1, 51173, Note_off_c, 9, 51, 64
1, 51188, Note_off_c, 9, 35, 64
1, 51241, Note_off_c, 2, 79, 64
1, 51297, Note_off_c, 1, 36, 64
1, 51331, Control_c, 3, 1, 22
1, 51356, Note_on_c, 1, 36, 100
1, 51357, Note_on_c, 9, 38, 122
1, 51357, Note_on_c, 9, 51, 105
1, 51362, Note_off_c, 13, 55, 64
1, 51363, Note_on_c, 2, 79, 110
1, 51363, Note_off_c, 13, 48, 64
1, 51364, Control_c, 3, 1, 42
1, 51367, Note_on_c, 13, 48, 105
1, 51368, Note_on_c, 13, 55, 96
1, 51410, Note_off_c, 9, 38, 64
1, 51419, Control_c, 3, 1, 0
1, 51419, Note_off_c, 9, 51, 64
1, 51438, Note_off_c, 3, 64, 64
1, 51512, Note_off_c, 2, 69, 64
1, 51540, Note_off_c, 1, 36, 64
1, 51540, Note_off_c, 4, 60, 64
1, 51564, Pitch_bend_c, 3, 7812
1, 51575, Pitch_bend_c, 3, 5461
1, 51587, Pitch_bend_c, 3, 2503
1, 51596, Note_on_c, 1, 36, 100
1, 51596, Note_off_c, 13, 55, 64
1, 51596, Note_off_c, 13, 48, 64
1, 51598, Note_on_c, 2, 69, 89
1, 51598, Pitch_bend_c, 3, 1289
1, 51598, Note_on_c, 9, 51, 80
1, 51601, Note_on_c, 4, 64, 100
1, 51604, Note_on_c, 3, 67, 115
1, 51604, Note_on_c, 13, 55, 96
1, 51604, Lyric_t, "all "
1, 51605, Note_on_c, 13, 48, 100
1, 51620, Pitch_bend_c, 3, 1592
1, 51631, Pitch_bend_c, 3, 2427
1, 51642, Pitch_bend_c, 3, 3716
1, 51653, Pitch_bend_c, 3, 5613
1, 51656, Note_off_c, 9, 51, 64
1, 51664, Pitch_bend_c, 3, 8192
1, 51673, Note_off_c, 2, 48, 64
1, 51673, Note_off_c, 2, 36, 64
1, 51719, Note_on_c, 9, 36, 110
1, 51726, Note_off_c, 2, 69, 64
1, 51731, Note_off_c, 2, 72, 64
1, 51731, Note_off_c, 2, 76, 64
1, 51732, Note_off_c, 2, 79, 64
1, 51768, Note_off_c, 1, 36, 64
1, 51771, Note_off_c, 9, 36, 64
1, 51783, Note_off_c, 11, 76, 64
1, 51786, Note_off_c, 11, 79, 64
1, 51805, Control_c, 2, 64, 0
1, 51810, Note_off_c, 7, 64, 64
1, 51812, Note_off_c, 7, 60, 64
1, 51816, Note_off_c, 11, 69, 64
1, 51818, Note_off_c, 7, 57, 64
1, 51821, Note_off_c, 7, 48, 64
1, 51821, Note_off_c, 7, 67, 64
1, 51822, Note_off_c, 11, 60, 64
1, 51825, Note_on_c, 7, 46, 73
1, 51825, Note_on_c, 7, 53, 75
1, 51827, Note_on_c, 7, 65, 83
1, 51829, Note_on_c, 7, 58, 77
1, 51830, Note_on_c, 11, 58, 73
1, 51831, Note_on_c, 2, 46, 83
1, 51832, Note_on_c, 7, 60, 89
1, 51832, Note_on_c, 12, 46, 110
1, 51833, Note_on_c, 7, 62, 86
1, 51833, Note_on_c, 11, 65, 77
1, 51834, Note_on_c, 11, 82, 80
1, 51835, Note_on_c, 1, 34, 110
1, 51835, Note_on_c, 2, 34, 86
1, 51835, Note_on_c, 2, 65, 86
1, 51835, Note_on_c, 11, 74, 77
1, 51836, Note_on_c, 2, 74, 105
1, 51836, Note_on_c, 11, 77, 86
1, 51836, Note_off_c, 12, 48, 64
1, 51837, Note_on_c, 2, 70, 110
1, 51837, Note_on_c, 2, 77, 105
1, 51838, Note_off_c, 13, 48, 64
1, 51838, Note_off_c, 13, 55, 64
1, 51839, Note_on_c, 9, 51, 105
1, 51840, Note_on_c, 9, 35, 115
1, 51843, Note_on_c, 13, 53, 92
1, 51844, Note_on_c, 13, 46, 100
1, 51860, Note_off_c, 11, 84, 64
1, 51897, Note_off_c, 9, 35, 64
1, 51903, Note_off_c, 9, 51, 64
1, 51933, Control_c, 3, 1, 2
1, 51966, Control_c, 3, 1, 24
1, 52022, Control_c, 3, 1, 0
1, 52030, Note_off_c, 4, 64, 64
1, 52041, Note_off_c, 1, 34, 64
1, 52061, Note_off_c, 3, 67, 64
1, 52064, Control_c, 2, 64, 127
1, 52075, Note_off_c, 13, 46, 64
1, 52076, Note_off_c, 13, 53, 64
1, 52078, Note_on_c, 9, 51, 75
1, 52079, Note_on_c, 9, 35, 122
1, 52082, Note_on_c, 4, 62, 105
1, 52082, Note_on_c, 13, 53, 100
1, 52082, Note_on_c, 13, 46, 100
1, 52084, Note_on_c, 1, 34, 110
1, 52091, Note_on_c, 3, 65, 110
1, 52091, Lyric_t, "that's\015"
1, 52138, Note_off_c, 9, 51, 64
1, 52147, Note_off_c, 9, 35, 64
1, 52264, Note_off_c, 1, 34, 64
1, 52313, Note_off_c, 13, 46, 64
1, 52313, Note_off_c, 13, 53, 64
1, 52316, Note_on_c, 9, 38, 122
1, 52317, Note_on_c, 9, 51, 105
1, 52319, Note_on_c, 13, 46, 96
1, 52320, Note_on_c, 13, 53, 96
1, 52322, Note_on_c, 1, 34, 110
1, 52366, Control_c, 3, 1, 21
1, 52371, Note_off_c, 9, 38, 64
1, 52378, Note_off_c, 9, 51, 64
1, 52400, Control_c, 3, 1, 42
1, 52445, Control_c, 3, 1, 34
1, 52457, Note_off_c, 2, 65, 64
1, 52478, Control_c, 3, 1, 0
1, 52511, Note_off_c, 1, 34, 64
1, 52530, Note_off_c, 3, 65, 64
1, 52541, Note_off_c, 4, 62, 64
1, 52547, Note_on_c, 2, 65, 100
1, 52558, Note_on_c, 9, 51, 75
1, 52559, Note_on_c, 3, 64, 115
1, 52559, Lyric_t, "left "
1, 52561, Note_off_c, 13, 53, 64
1, 52561, Note_off_c, 13, 46, 64
1, 52562, Note_on_c, 13, 46, 100
1, 52563, Note_on_c, 13, 53, 100
1, 52564, Note_on_c, 1, 34, 110
1, 52565, Note_on_c, 4, 60, 100
1, 52615, Note_off_c, 9, 51, 64
1, 52677, Note_on_c, 9, 35, 127
1, 52741, Note_off_c, 1, 34, 64
1, 52743, Note_off_c, 9, 35, 64
1, 52796, Note_off_c, 13, 53, 64
1, 52796, Note_off_c, 13, 46, 64
1, 52797, Note_on_c, 9, 51, 105
1, 52801, Note_on_c, 1, 34, 110
1, 52801, Note_on_c, 13, 53, 96
1, 52803, Note_on_c, 13, 46, 100
1, 52811, Control_c, 3, 1, 16
1, 52845, Control_c, 3, 1, 39
1, 52860, Note_off_c, 9, 51, 64
1, 52889, Control_c, 3, 1, 39
1, 52922, Control_c, 3, 1, 0
1, 52985, Note_off_c, 1, 34, 64
1, 52993, Note_off_c, 2, 70, 64
1, 52994, Note_off_c, 3, 64, 64
1, 53005, Note_off_c, 2, 77, 64
1, 53025, Note_off_c, 2, 74, 64
1, 53031, Note_off_c, 4, 60, 64
1, 53032, Note_on_c, 3, 62, 105
1, 53032, Note_off_c, 13, 46, 64
1, 53032, Lyric_t, "are "
1, 53033, Note_off_c, 13, 53, 64
1, 53038, Note_on_c, 9, 35, 122
1, 53039, Note_on_c, 9, 51, 77
1, 53039, Note_on_c, 13, 53, 100
1, 53040, Note_on_c, 1, 34, 105
1, 53040, Note_on_c, 13, 46, 105
1, 53042, Note_on_c, 4, 58, 100
1, 53098, Note_off_c, 9, 51, 64
1, 53103, Note_off_c, 9, 35, 64
1, 53228, Note_off_c, 1, 34, 64
1, 53267, Control_c, 3, 1, 14
1, 53272, Note_on_c, 2, 74, 105
1, 53273, Note_on_c, 2, 77, 110
1, 53274, Note_on_c, 2, 70, 96
1, 53279, Note_on_c, 1, 34, 110
1, 53279, Note_on_c, 9, 38, 122
1, 53279, Note_off_c, 13, 46, 64
1, 53280, Note_on_c, 9, 51, 105
1, 53280, Note_off_c, 13, 53, 64
1, 53281, Note_on_c, 13, 46, 100
1, 53282, Note_on_c, 13, 53, 100
1, 53299, Note_off_c, 2, 34, 64
1, 53301, Control_c, 3, 1, 36
1, 53315, Note_off_c, 2, 46, 64
1, 53332, Note_off_c, 9, 38, 64
1, 53334, Control_c, 3, 1, 48
1, 53343, Note_off_c, 9, 51, 64
1, 53388, Note_off_c, 3, 62, 64
1, 53390, Control_c, 3, 1, 0
1, 53431, Note_off_c, 2, 65, 64
1, 53442, Note_off_c, 4, 58, 64
1, 53458, Note_off_c, 1, 34, 64
1, 53488, Note_off_c, 2, 77, 64
1, 53494, Note_off_c, 2, 70, 64
1, 53499, Note_off_c, 2, 74, 64
1, 53514, Note_off_c, 13, 53, 64
1, 53515, Note_on_c, 2, 65, 77
1, 53515, Note_off_c, 13, 46, 64
1, 53519, Note_on_c, 9, 51, 75
1, 53520, Note_on_c, 1, 34, 110
1, 53520, Note_on_c, 13, 53, 96
1, 53521, Note_on_c, 13, 46, 100
1, 53576, Note_off_c, 9, 51, 64
1, 53635, Note_off_c, 2, 65, 64
1, 53640, Note_on_c, 9, 36, 110
1, 53689, Note_off_c, 1, 34, 64
1, 53701, Note_off_c, 9, 36, 64
1, 53707, Note_off_c, 11, 77, 64
1, 53714, Note_off_c, 11, 82, 64
1, 53718, Note_off_c, 7, 53, 64
1, 53731, Note_off_c, 7, 60, 64
1, 53737, Note_off_c, 7, 58, 64
1, 53741, Note_off_c, 11, 58, 64
1, 53748, Note_on_c, 2, 74, 100
1, 53749, Note_on_c, 2, 76, 100
1, 53749, Note_on_c, 7, 45, 80
1, 53750, Note_on_c, 7, 64, 89
1, 53751, Note_on_c, 2, 64, 96
1, 53751, Note_on_c, 2, 69, 96
1, 53751, Note_off_c, 13, 46, 64
1, 53752, Note_on_c, 1, 33, 115
1, 53752, Note_on_c, 2, 45, 80
1, 53752, Note_on_c, 2, 33, 83
1, 53752, Note_off_c, 7, 46, 64
1, 53752, Note_on_c, 7, 57, 77
1, 53752, Note_off_c, 13, 53, 64
1, 53754, Note_on_c, 7, 52, 83
1, 53756, Note_on_c, 11, 57, 77
1, 53756, Note_on_c, 11, 76, 89
1, 53756, Note_off_c, 12, 46, 64
1, 53757, Note_on_c, 9, 51, 105
1, 53757, Note_on_c, 11, 64, 77
1, 53758, Note_on_c, 9, 35, 122
1, 53758, Note_on_c, 11, 81, 96
1, 53758, Note_on_c, 13, 52, 100
1, 53759, Note_on_c, 12, 45, 115
1, 53759, Note_on_c, 13, 45, 105
1, 53764, Control_c, 2, 64, 0
1, 53769, Note_off_c, 7, 65, 64
1, 53777, Note_off_c, 11, 65, 64
1, 53814, Note_off_c, 9, 51, 64
1, 53818, Note_off_c, 9, 35, 64
1, 53926, Pitch_bend_c, 3, 7281
1, 53937, Pitch_bend_c, 3, 4626
1, 53943, Note_off_c, 1, 33, 64
1, 53948, Pitch_bend_c, 3, 2730
1, 53959, Pitch_bend_c, 3, 2427
1, 53974, Control_c, 2, 64, 127
1, 53981, Pitch_bend_c, 3, 3792
1, 53985, Note_on_c, 3, 65, 110
1, 53985, Lyric_t, "pie"
1, 53992, Pitch_bend_c, 3, 5082
1, 53996, Note_on_c, 1, 33, 115
1, 53997, Note_on_c, 9, 51, 75
1, 53997, Note_on_c, 9, 35, 127
1, 53999, Note_off_c, 13, 45, 64
1, 53999, Note_off_c, 13, 52, 64
1, 54001, Note_on_c, 13, 52, 100
1, 54002, Note_on_c, 13, 45, 100
1, 54003, Pitch_bend_c, 3, 7054
1, 54015, Pitch_bend_c, 3, 8192
1, 54058, Note_off_c, 9, 51, 64
1, 54063, Note_off_c, 9, 35, 64
1, 54178, Note_off_c, 1, 33, 64
1, 54231, Note_on_c, 3, 64, 105
1, 54231, Lyric_t, "ces "
1, 54234, Note_on_c, 1, 33, 110
1, 54234, Note_off_c, 13, 45, 64
1, 54235, Note_off_c, 13, 52, 64
1, 54237, Note_on_c, 9, 51, 100
1, 54238, Note_on_c, 9, 38, 122
1, 54240, Note_on_c, 13, 52, 100
1, 54240, Note_on_c, 13, 45, 105
1, 54254, Note_off_c, 3, 65, 64
1, 54295, Note_off_c, 9, 38, 64
1, 54298, Note_off_c, 9, 51, 64
1, 54427, Note_off_c, 1, 33, 64
1, 54461, Control_c, 3, 1, 2
1, 54470, Note_on_c, 3, 62, 105
1, 54470, Lyric_t, "of "
1, 54475, Note_on_c, 1, 33, 110
1, 54476, Note_on_c, 9, 51, 75
1, 54478, Note_off_c, 3, 64, 64
1, 54478, Note_off_c, 13, 45, 64
1, 54479, Note_off_c, 13, 52, 64
1, 54481, Note_on_c, 13, 52, 100
1, 54482, Note_on_c, 13, 45, 105
1, 54505, Control_c, 3, 1, 0
1, 54543, Note_off_c, 9, 51, 64
1, 54598, Note_on_c, 9, 35, 122
1, 54658, Note_off_c, 1, 33, 64
1, 54664, Note_off_c, 2, 76, 64
1, 54664, Note_off_c, 11, 74, 64
1, 54665, Note_off_c, 9, 35, 64
1, 54684, Note_off_c, 2, 69, 64
1, 54684, Note_off_c, 2, 64, 64
1, 54685, Note_off_c, 2, 74, 64
1, 54710, Note_on_c, 7, 61, 92
1, 54712, Note_on_c, 1, 33, 110
1, 54714, Note_on_c, 10, 85, 80
1, 54714, Note_off_c, 13, 45, 64
1, 54715, Note_on_c, 9, 51, 100
1, 54715, Note_on_c, 10, 73, 71
1, 54715, Note_off_c, 13, 52, 64
1, 54717, Note_on_c, 11, 73, 77
1, 54719, Note_off_c, 10, 74, 64
1, 54720, Note_on_c, 13, 52, 96
1, 54721, Note_on_c, 13, 45, 100
1, 54722, Note_on_c, 2, 64, 80
1, 54722, Note_on_c, 2, 69, 100
1, 54723, Note_on_c, 2, 76, 96
1, 54724, Note_on_c, 2, 73, 100
1, 54735, Note_off_c, 7, 62, 64
1, 54753, Note_off_c, 10, 86, 64
1, 54760, Control_c, 2, 64, 0
1, 54775, Note_off_c, 9, 51, 64
1, 54780, Control_c, 6, 7, 34
1, 54805, Control_c, 3, 1, 9
1, 54810, Control_c, 6, 7, 33
1, 54839, Control_c, 3, 1, 22
1, 54840, Control_c, 6, 7, 32
1, 54870, Control_c, 6, 7, 31
1, 54894, Control_c, 3, 1, 0
1, 54900, Control_c, 6, 7, 30
1, 54900, Control_c, 8, 7, 0
1, 54910, Note_off_c, 1, 33, 64
1, 54930, Control_c, 6, 7, 29
1, 54930, Control_c, 8, 7, 2
1, 54953, Control_c, 2, 64, 127
1, 54953, Note_off_c, 3, 62, 64
1, 54954, Note_on_c, 9, 51, 80
1, 54956, Note_on_c, 3, 61, 105
1, 54956, Lyric_t, "a "
1, 54958, Note_on_c, 1, 33, 115
1, 54958, Note_on_c, 9, 35, 122
1, 54960, Control_c, 6, 7, 28
1, 54960, Control_c, 8, 7, 5
1, 54960, Note_off_c, 13, 45, 64
1, 54961, Note_off_c, 13, 52, 64
1, 54962, Note_on_c, 13, 52, 96
1, 54963, Note_on_c, 13, 45, 105
1, 54990, Control_c, 6, 7, 27
1, 54990, Control_c, 8, 7, 8
1, 55020, Control_c, 6, 7, 25
1, 55020, Control_c, 8, 7, 11
1, 55022, Note_off_c, 9, 51, 64
1, 55031, Note_off_c, 9, 35, 64
1, 55050, Control_c, 6, 7, 24
1, 55050, Control_c, 8, 7, 14
1, 55080, Control_c, 6, 7, 23
1, 55080, Control_c, 8, 7, 17
1, 55110, Control_c, 6, 7, 22
1, 55110, Control_c, 8, 7, 20
1, 55140, Control_c, 6, 7, 20
1, 55140, Control_c, 8, 7, 23
1, 55170, Control_c, 6, 7, 19
1, 55170, Control_c, 8, 7, 25
1, 55177, Note_off_c, 1, 33, 64
1, 55194, Note_off_c, 13, 45, 64
1, 55195, Note_off_c, 13, 52, 64
1, 55197, Note_on_c, 9, 52, 105
1, 55198, Note_on_c, 9, 38, 122
1, 55200, Note_on_c, 1, 31, 105
1, 55200, Control_c, 6, 7, 18
1, 55200, Control_c, 8, 7, 28
1, 55201, Note_on_c, 13, 52, 96
1, 55202, Note_on_c, 13, 45, 105
1, 55230, Control_c, 6, 7, 17
1, 55230, Control_c, 8, 7, 31
1, 55257, Note_off_c, 9, 52, 64
1, 55260, Control_c, 6, 7, 16
1, 55260, Control_c, 8, 7, 34
1, 55272, Note_off_c, 9, 38, 64
1, 55284, Control_c, 3, 1, 9
1, 55290, Control_c, 6, 7, 15
1, 55290, Control_c, 8, 7, 37
1, 55300, Note_off_c, 2, 45, 64
1, 55304, Note_off_c, 2, 33, 64
1, 55317, Control_c, 3, 1, 16
1, 55319, Note_on_c, 1, 33, 96
1, 55320, Control_c, 6, 7, 14
1, 55320, Control_c, 8, 7, 40
1, 55325, Note_off_c, 2, 64, 64
1, 55326, Note_off_c, 2, 69, 64
1, 55327, Note_off_c, 1, 31, 64
1, 55327, Note_off_c, 2, 73, 64
1, 55334, Note_off_c, 2, 76, 64
1, 55350, Control_c, 6, 7, 13
1, 55350, Control_c, 8, 7, 43
1, 55351, Control_c, 3, 1, 22
1, 55380, Control_c, 6, 7, 11
1, 55380, Control_c, 8, 7, 46
1, 55395, Control_c, 3, 1, 32
1, 55405, Note_off_c, 1, 33, 64
1, 55410, Control_c, 6, 7, 10
1, 55410, Control_c, 8, 7, 49
1, 55428, Control_c, 3, 1, 37
1, 55432, Note_on_c, 1, 29, 110
1, 55436, Note_off_c, 13, 45, 64
1, 55437, Note_on_c, 9, 51, 77
1, 55438, Note_off_c, 13, 52, 64
1, 55439, Note_on_c, 9, 43, 110
1, 55440, Control_c, 6, 7, 9
1, 55440, Control_c, 8, 7, 51
1, 55441, Note_on_c, 13, 52, 100
1, 55442, Note_on_c, 13, 45, 105
1, 55470, Control_c, 6, 7, 8
1, 55470, Control_c, 8, 7, 54
1, 55473, Control_c, 3, 1, 49
1, 55491, Note_off_c, 9, 51, 64
1, 55500, Control_c, 6, 7, 7
1, 55500, Control_c, 8, 7, 57
1, 55506, Control_c, 3, 1, 61
1, 55511, Note_off_c, 9, 43, 64
1, 55530, Control_c, 6, 7, 6
1, 55530, Control_c, 8, 7, 60
1, 55556, Note_on_c, 9, 36, 110
1, 55559, Note_on_c, 9, 41, 110
1, 55560, Control_c, 6, 7, 4
1, 55560, Control_c, 8, 7, 63
1, 55570, Note_off_c, 3, 61, 64
1, 55573, Control_c, 3, 1, 0
1, 55582, Note_off_c, 9, 36, 64
1, 55590, Control_c, 6, 7, 3
1, 55590, Control_c, 8, 7, 66
1, 55597, Note_off_c, 9, 41, 64
1, 55620, Control_c, 6, 7, 2
1, 55620, Control_c, 8, 7, 69
1, 55650, Control_c, 6, 7, 1
1, 55650, Control_c, 8, 7, 72
1, 55660, Note_off_c, 10, 85, 64
1, 55663, Note_off_c, 10, 73, 64
1, 55673, Note_off_c, 7, 57, 64
1, 55674, Note_off_c, 7, 61, 64
1, 55674, Note_off_c, 11, 76, 64
1, 55674, Note_off_c, 13, 45, 64
1, 55675, Note_on_c, 2, 62, 110
1, 55675, Note_off_c, 11, 73, 64
1, 55675, Note_on_c, 11, 74, 73
1, 55675, Note_off_c, 13, 52, 64
1, 55676, Note_on_c, 11, 77, 83
1, 55677, Note_on_c, 1, 26, 122
1, 55677, Note_on_c, 2, 62, 92
1, 55677, Note_on_c, 7, 62, 75
1, 55677, Note_off_c, 11, 57, 64
1, 55677, Note_on_c, 11, 81, 75
1, 55677, Note_off_c, 12, 45, 64
1, 55677, Note_on_c, 13, 50, 105
1, 55677, Note_on_c, 13, 57, 105
1, 55678, Control_c, 2, 64, 0
1, 55678, Note_on_c, 5, 86, 92
1, 55678, Note_on_c, 7, 65, 67
1, 55678, Note_off_c, 11, 64, 64
1, 55678, Note_on_c, 11, 69, 69
1, 55678, Note_on_c, 11, 62, 65
1, 55679, Note_on_c, 7, 57, 63
1, 55679, Control_c, 10, 7, 60
1, 55679, Control_c, 11, 7, 75
1, 55679, Note_on_c, 12, 38, 115
1, 55679, Control_c, 12, 7, 76
1, 55679, Control_c, 13, 7, 65
1, 55680, Note_on_c, 2, 62, 92
1, 55680, Control_c, 6, 7, 0
1, 55680, Control_c, 7, 7, 72
1, 55680, Control_c, 8, 7, 75
1, 55680, Note_on_c, 10, 86, 73
1, 55680, Control_c, 10, 7, 60
1, 55680, Note_off_c, 11, 81, 64
1, 55680, Control_c, 11, 7, 75
1, 55680, Control_c, 12, 7, 76
1, 55680, Control_c, 13, 7, 65
1, 55681, Note_off_c, 7, 64, 64
1, 55681, Note_on_c, 9, 49, 103
1, 55681, Note_on_c, 9, 36, 64
1, 55682, Note_on_c, 10, 74, 73
1, 55683, Note_off_c, 2, 62, 64
1, 55684, Note_off_c, 1, 29, 64
1, 55687, Note_off_c, 7, 52, 64
1, 55692, Note_off_c, 7, 45, 64
1, 55732, Note_off_c, 9, 49, 64
1, 55740, Control_c, 6, 7, 2
1, 55740, Control_c, 8, 7, 74
1, 55752, Note_off_c, 9, 36, 64
1, 55778, Control_c, 5, 64, 127
1, 55800, Control_c, 6, 7, 6
1, 55800, Note_on_c, 8, 76, 1
1, 55800, Control_c, 8, 7, 73
1, 55833, Control_c, 2, 64, 127
1, 55860, Control_c, 6, 7, 8
1, 55860, Control_c, 8, 7, 73
1, 55897, Note_off_c, 5, 86, 64
1, 55914, Control_c, 10, 7, 59
1, 55914, Control_c, 12, 7, 75
1, 55914, Control_c, 13, 7, 64
1, 55915, Note_on_c, 2, 69, 96
1, 55916, Note_off_c, 8, 76, 17
1, 55920, Control_c, 6, 7, 11
1, 55920, Control_c, 8, 7, 72
1, 55946, Note_off_c, 2, 62, 64
1, 55980, Control_c, 6, 7, 13
1, 55980, Control_c, 8, 7, 71
1, 56040, Control_c, 6, 7, 16
1, 56040, Control_c, 8, 7, 70
1, 56100, Control_c, 6, 7, 18
1, 56100, Control_c, 8, 7, 69
1, 56141, Note_off_c, 2, 69, 64
1, 56148, Control_c, 10, 7, 59
1, 56148, Control_c, 12, 7, 74
1, 56148, Control_c, 13, 7, 63
1, 56149, Note_on_c, 6, 67, 96
1, 56150, Pitch_bend_c, 3, 7433
1, 56152, Note_on_c, 2, 74, 86
1, 56153, Note_on_c, 5, 86, 92
1, 56160, Control_c, 6, 7, 20
1, 56160, Control_c, 8, 7, 69
1, 56161, Pitch_bend_c, 3, 4930
1, 56168, Note_on_c, 3, 57, 110
1, 56168, Lyric_t, "dream.\012"
1, 56172, Pitch_bend_c, 3, 2806
1, 56183, Pitch_bend_c, 3, 2048
1, 56205, Pitch_bend_c, 3, 2654
1, 56217, Pitch_bend_c, 3, 3716
1, 56220, Control_c, 6, 7, 22
1, 56220, Control_c, 8, 7, 68
1, 56228, Pitch_bend_c, 3, 5233
1, 56233, Note_off_c, 2, 74, 64
1, 56239, Pitch_bend_c, 3, 7585
1, 56250, Pitch_bend_c, 3, 8192
1, 56269, Note_off_c, 5, 86, 64
1, 56280, Control_c, 6, 7, 24
1, 56280, Control_c, 8, 7, 67
1, 56304, Control_c, 10, 7, 58
1, 56304, Control_c, 12, 7, 74
1, 56304, Control_c, 13, 7, 63
1, 56340, Control_c, 6, 7, 26
1, 56340, Control_c, 8, 7, 66
1, 56383, Note_on_c, 2, 77, 96
1, 56389, Note_on_c, 6, 69, 86
1, 56400, Control_c, 6, 7, 28
1, 56400, Control_c, 8, 7, 66
1, 56405, Note_off_c, 6, 67, 64
1, 56460, Control_c, 6, 7, 30
1, 56460, Control_c, 8, 7, 64
1, 56460, Control_c, 10, 7, 58
1, 56460, Control_c, 12, 7, 73
1, 56460, Control_c, 13, 7, 62
1, 56520, Control_c, 6, 7, 31
1, 56520, Control_c, 8, 7, 64
1, 56580, Control_c, 6, 7, 33
1, 56580, Control_c, 8, 7, 63
1, 56588, Note_off_c, 2, 77, 64
1, 56624, Note_on_c, 6, 67, 92
1, 56638, Note_on_c, 5, 86, 77
1, 56640, Control_c, 6, 7, 34
1, 56640, Control_c, 8, 7, 62
1, 56648, Note_off_c, 6, 69, 64
1, 56694, Control_c, 10, 7, 57
1, 56694, Control_c, 12, 7, 73
1, 56694, Control_c, 13, 7, 62
1, 56700, Control_c, 6, 7, 36
1, 56700, Control_c, 8, 7, 62
1, 56723, Note_off_c, 5, 86, 64
1, 56760, Control_c, 6, 7, 37
1, 56760, Control_c, 8, 7, 61
1, 56820, Control_c, 6, 7, 38
1, 56820, Control_c, 8, 7, 60
1, 56850, Control_c, 10, 7, 57
1, 56850, Control_c, 12, 7, 72
1, 56850, Control_c, 13, 7, 61
1, 56869, Note_on_c, 2, 76, 110
1, 56870, Note_on_c, 6, 69, 92
1, 56880, Control_c, 6, 7, 40
1, 56880, Control_c, 8, 7, 59
1, 56905, Note_off_c, 6, 67, 64
1, 56930, Control_c, 3, 1, 1
1, 56940, Control_c, 6, 7, 41
1, 56940, Control_c, 8, 7, 59
1, 56974, Control_c, 3, 1, 6
1, 57000, Control_c, 6, 7, 42
1, 57000, Control_c, 8, 7, 57
1, 57006, Control_c, 10, 7, 56
1, 57006, Control_c, 12, 7, 71
1, 57006, Control_c, 13, 7, 61
1, 57019, Control_c, 3, 1, 11
1, 57060, Control_c, 6, 7, 43
1, 57060, Control_c, 8, 7, 57
1, 57100, Note_off_c, 2, 76, 64
1, 57106, Note_on_c, 6, 67, 92
1, 57108, Control_c, 3, 1, 16
1, 57111, Note_on_c, 5, 88, 71
1, 57120, Control_c, 6, 7, 44
1, 57120, Control_c, 8, 7, 56
1, 57124, Note_on_c, 8, 76, 89
1, 57133, Note_off_c, 6, 69, 64
1, 57162, Control_c, 10, 7, 56
1, 57162, Control_c, 12, 7, 71
1, 57162, Control_c, 13, 7, 60
1, 57163, Control_c, 3, 1, 21
1, 57180, Control_c, 6, 7, 45
1, 57180, Control_c, 8, 7, 55
1, 57197, Control_c, 3, 1, 26
1, 57205, Note_off_c, 5, 88, 64
1, 57230, Control_c, 3, 1, 31
1, 57240, Control_c, 6, 7, 46
1, 57240, Control_c, 8, 7, 54
1, 57263, Control_c, 3, 1, 36
1, 57300, Control_c, 6, 7, 47
1, 57300, Control_c, 8, 7, 54
1, 57318, Control_c, 10, 7, 55
1, 57318, Control_c, 12, 7, 70
1, 57318, Control_c, 13, 7, 60
1, 57341, Control_c, 3, 1, 41
1, 57352, Note_on_c, 2, 69, 105
1, 57352, Note_on_c, 6, 69, 92
1, 57360, Control_c, 6, 7, 48
1, 57360, Control_c, 8, 7, 53
1, 57385, Note_off_c, 6, 67, 64
1, 57386, Control_c, 3, 1, 48
1, 57419, Control_c, 3, 1, 53
1, 57420, Control_c, 6, 7, 49
1, 57420, Control_c, 8, 7, 52
1, 57474, Control_c, 10, 7, 55
1, 57474, Control_c, 12, 7, 70
1, 57474, Control_c, 13, 7, 59
1, 57480, Control_c, 6, 7, 50
1, 57480, Control_c, 8, 7, 51
1, 57518, Note_off_c, 3, 57, 64
1, 57519, Control_c, 3, 1, 0
1, 57540, Control_c, 6, 7, 51
1, 57540, Control_c, 8, 7, 50
1, 57584, Note_off_c, 2, 62, 64
1, 57587, Note_on_c, 6, 67, 89
1, 57594, Note_on_c, 5, 88, 83
1, 57595, Note_on_c, 11, 79, 80
1, 57596, Note_on_c, 9, 42, 86
1, 57597, Note_on_c, 9, 36, 64
1, 57598, Note_on_c, 7, 64, 71
1, 57599, Note_on_c, 11, 76, 67
1, 57600, Control_c, 6, 7, 52
1, 57600, Control_c, 8, 7, 50
1, 57601, Note_on_c, 7, 60, 63
1, 57603, Note_on_c, 11, 72, 73
1, 57611, Note_on_c, 2, 60, 110
1, 57614, Note_off_c, 6, 69, 64
1, 57628, Note_off_c, 11, 77, 64
1, 57630, Control_c, 10, 7, 54
1, 57630, Control_c, 12, 7, 69
1, 57630, Control_c, 13, 7, 59
1, 57633, Note_off_c, 2, 69, 64
1, 57638, Note_off_c, 7, 65, 64
1, 57656, Note_off_c, 9, 42, 64
1, 57660, Control_c, 6, 7, 52
1, 57660, Control_c, 8, 7, 49
1, 57668, Note_off_c, 9, 36, 64
1, 57688, Note_off_c, 5, 88, 64
1, 57717, Note_on_c, 9, 27, 62
1, 57719, Note_on_c, 9, 42, 71
1, 57720, Control_c, 6, 7, 54
1, 57720, Control_c, 8, 7, 49
1, 57763, Note_off_c, 9, 27, 64
1, 57769, Note_off_c, 9, 42, 64
1, 57780, Control_c, 6, 7, 54
1, 57780, Control_c, 8, 7, 47
1, 57786, Control_c, 10, 7, 54
1, 57786, Control_c, 12, 7, 68
1, 57786, Control_c, 13, 7, 58
1, 57826, Note_on_c, 6, 69, 89
1, 57836, Note_on_c, 9, 36, 61
1, 57837, Note_on_c, 9, 42, 92
1, 57840, Control_c, 6, 7, 55
1, 57840, Control_c, 8, 7, 47
1, 57852, Note_off_c, 6, 67, 64
1, 57885, Note_off_c, 9, 42, 64
1, 57900, Control_c, 6, 7, 56
1, 57900, Control_c, 8, 7, 46
1, 57909, Note_off_c, 9, 36, 64
1, 57942, Control_c, 10, 7, 53
1, 57942, Control_c, 12, 7, 68
1, 57942, Control_c, 13, 7, 58
1, 57960, Control_c, 6, 7, 56
1, 57960, Control_c, 8, 7, 45
1, 58020, Control_c, 6, 7, 57
1, 58020, Control_c, 8, 7, 44
1, 58020, Control_c, 10, 7, 53
1, 58020, Control_c, 12, 7, 67
1, 58020, Control_c, 13, 7, 57
1, 58065, Note_on_c, 6, 67, 89
1, 58065, Note_off_c, 8, 76, 64
1, 58074, Note_on_c, 5, 88, 83
1, 58077, Note_on_c, 8, 77, 92
1, 58078, Note_on_c, 9, 42, 92
1, 58079, Note_on_c, 9, 27, 77
1, 58080, Control_c, 6, 7, 57
1, 58080, Control_c, 8, 7, 44
1, 58081, Note_on_c, 9, 37, 100
1, 58087, Note_off_c, 6, 69, 64
1, 58127, Note_off_c, 9, 42, 64
1, 58133, Note_off_c, 9, 37, 64
1, 58140, Control_c, 6, 7, 58
1, 58140, Control_c, 8, 7, 43
1, 58143, Note_off_c, 9, 27, 64
1, 58155, Note_off_c, 5, 88, 64
1, 58176, Control_c, 10, 7, 52
1, 58176, Control_c, 12, 7, 67
1, 58176, Control_c, 13, 7, 57
1, 58200, Control_c, 6, 7, 59
1, 58200, Control_c, 8, 7, 42
1, 58260, Control_c, 6, 7, 60
1, 58260, Control_c, 8, 7, 41
1, 58303, Note_on_c, 6, 69, 89
1, 58315, Note_on_c, 2, 67, 100
1, 58315, Note_on_c, 9, 42, 80
1, 58320, Control_c, 6, 7, 60
1, 58320, Control_c, 8, 7, 40
1, 58321, Note_on_c, 8, 79, 89
1, 58322, Note_off_c, 6, 67, 64
1, 58322, Note_off_c, 8, 77, 64
1, 58332, Control_c, 10, 7, 52
1, 58332, Control_c, 12, 7, 66
1, 58332, Control_c, 13, 7, 56
1, 58366, Note_off_c, 9, 42, 64
1, 58380, Control_c, 6, 7, 61
1, 58380, Control_c, 8, 7, 40
1, 58410, Control_c, 10, 7, 51
1, 58410, Control_c, 12, 7, 65
1, 58410, Control_c, 13, 7, 56
1, 58430, Note_off_c, 2, 67, 64
1, 58436, Note_on_c, 9, 36, 60
1, 58436, Note_on_c, 9, 42, 67
1, 58440, Control_c, 6, 7, 61
1, 58440, Control_c, 8, 7, 39
1, 58441, Note_on_c, 9, 27, 65
1, 58479, Note_off_c, 9, 27, 64
1, 58488, Note_off_c, 9, 42, 64
1, 58500, Control_c, 6, 7, 62
1, 58500, Control_c, 8, 7, 38
1, 58518, Note_off_c, 9, 36, 64
1, 58540, Note_on_c, 6, 67, 89
1, 58555, Note_on_c, 5, 88, 55
1, 58556, Note_on_c, 9, 42, 86
1, 58560, Control_c, 6, 7, 62
1, 58560, Control_c, 8, 7, 37
1, 58566, Control_c, 10, 7, 51
1, 58566, Control_c, 12, 7, 65
1, 58566, Control_c, 13, 7, 55
1, 58571, Note_off_c, 6, 69, 64
1, 58618, Note_off_c, 9, 42, 64
1, 58620, Control_c, 6, 7, 63
1, 58620, Control_c, 8, 7, 37
1, 58642, Note_off_c, 5, 88, 64
1, 58644, Control_c, 10, 7, 51
1, 58644, Control_c, 12, 7, 64
1, 58644, Control_c, 13, 7, 55
1, 58675, Note_on_c, 9, 32, 57
1, 58678, Note_on_c, 9, 42, 71
1, 58679, Note_on_c, 9, 27, 68
1, 58680, Control_c, 6, 7, 63
1, 58680, Control_c, 8, 7, 36
1, 58723, Note_off_c, 9, 27, 64
1, 58730, Note_off_c, 9, 42, 64
1, 58740, Control_c, 6, 7, 64
1, 58740, Control_c, 8, 7, 35
1, 58761, Note_off_c, 9, 32, 64
1, 58783, Note_on_c, 6, 69, 92
1, 58797, Note_on_c, 9, 36, 61
1, 58799, Note_on_c, 9, 42, 89
1, 58800, Control_c, 8, 7, 34
1, 58800, Control_c, 10, 7, 50
1, 58800, Control_c, 12, 7, 64
1, 58800, Control_c, 13, 7, 54
1, 58810, Note_off_c, 6, 67, 64
1, 58860, Control_c, 6, 7, 65
1, 58860, Control_c, 8, 7, 33
1, 58871, Note_off_c, 9, 36, 64
1, 58877, Note_off_c, 9, 42, 64
1, 58878, Control_c, 10, 7, 50
1, 58878, Control_c, 12, 7, 63
1, 58878, Control_c, 13, 7, 54
1, 58920, Control_c, 6, 7, 65
1, 58920, Control_c, 8, 7, 33
1, 58980, Control_c, 6, 7, 66
1, 58980, Control_c, 8, 7, 32
1, 59017, Note_on_c, 6, 67, 89
1, 59022, Note_on_c, 5, 88, 57
1, 59034, Control_c, 10, 7, 49
1, 59034, Control_c, 12, 7, 62
1, 59034, Control_c, 13, 7, 53
1, 59036, Note_on_c, 9, 42, 96
1, 59038, Note_on_c, 9, 37, 100
1, 59039, Note_on_c, 9, 27, 74
1, 59040, Control_c, 6, 7, 66
1, 59040, Control_c, 8, 7, 31
1, 59046, Note_off_c, 6, 69, 64
1, 59085, Note_off_c, 9, 37, 64
1, 59093, Note_off_c, 9, 27, 64
1, 59094, Note_off_c, 9, 42, 64
1, 59100, Control_c, 6, 7, 67
1, 59100, Control_c, 8, 7, 30
1, 59112, Control_c, 10, 7, 49
1, 59112, Control_c, 12, 7, 62
1, 59112, Control_c, 13, 7, 53
1, 59119, Note_off_c, 5, 88, 64
1, 59160, Control_c, 8, 7, 30
1, 59220, Control_c, 6, 7, 67
1, 59220, Control_c, 8, 7, 28
1, 59259, Note_on_c, 6, 69, 92
1, 59268, Control_c, 10, 7, 48
1, 59268, Control_c, 12, 7, 61
1, 59268, Control_c, 13, 7, 52
1, 59276, Note_on_c, 9, 42, 89
1, 59280, Control_c, 6, 7, 68
1, 59280, Control_c, 8, 7, 28
1, 59285, Note_off_c, 6, 67, 64
1, 59340, Control_c, 8, 7, 27
1, 59341, Note_off_c, 9, 42, 64
1, 59346, Control_c, 10, 7, 48
1, 59346, Control_c, 12, 7, 61
1, 59346, Control_c, 13, 7, 52
1, 59397, Note_on_c, 9, 42, 65
1, 59398, Note_on_c, 9, 32, 59
1, 59400, Control_c, 6, 7, 68
1, 59400, Control_c, 8, 7, 26
1, 59404, Note_on_c, 9, 27, 62
1, 59424, Control_c, 10, 7, 47
1, 59424, Control_c, 12, 7, 60
1, 59424, Control_c, 13, 7, 51
1, 59447, Note_off_c, 9, 42, 64
1, 59448, Note_off_c, 9, 27, 64
1, 59455, Note_off_c, 11, 72, 64
1, 59459, Note_off_c, 7, 57, 64
1, 59460, Control_c, 6, 7, 69
1, 59460, Control_c, 8, 7, 25
1, 59469, Note_off_c, 9, 32, 64
1, 59473, Control_c, 2, 64, 0
1, 59483, Note_off_c, 2, 60, 64
1, 59499, Note_on_c, 6, 67, 89
1, 59502, Control_c, 10, 7, 47
1, 59502, Control_c, 12, 7, 59
1, 59502, Control_c, 13, 7, 51
1, 59513, Note_on_c, 5, 86, 96
1, 59518, Note_on_c, 9, 42, 89
1, 59519, Note_on_c, 9, 36, 58
1, 59520, Tempo, 619305
1, 59520, Control_c, 6, 7, 70
1, 59520, Control_c, 8, 7, 25
1, 59520, Note_off_c, 11, 69, 64
1, 59521, Note_on_c, 7, 55, 57
1, 59521, Note_on_c, 11, 77, 73
1, 59522, Note_on_c, 2, 57, 89
1, 59522, Note_on_c, 2, 58, 110
1, 59523, Note_on_c, 7, 58, 59
1, 59528, Note_on_c, 11, 70, 80
1, 59531, Note_off_c, 11, 81, 64
1, 59532, Note_off_c, 6, 69, 64
1, 59567, Note_off_c, 7, 64, 64
1, 59574, Note_off_c, 11, 76, 64
1, 59580, Control_c, 8, 7, 24
1, 59581, Note_off_c, 9, 42, 64
1, 59593, Note_off_c, 5, 86, 64
1, 59600, Note_off_c, 9, 36, 64
1, 59638, Note_on_c, 9, 42, 73
1, 59640, Control_c, 6, 7, 69
1, 59640, Control_c, 8, 7, 23
1, 59643, Note_on_c, 9, 27, 68
1, 59658, Control_c, 10, 7, 46
1, 59658, Control_c, 12, 7, 59
1, 59658, Control_c, 13, 7, 50
1, 59688, Note_off_c, 9, 27, 64
1, 59692, Note_off_c, 9, 42, 64
1, 59700, Control_c, 6, 7, 68
1, 59700, Control_c, 8, 7, 23
1, 59736, Control_c, 10, 7, 46
1, 59736, Control_c, 12, 7, 58
1, 59736, Control_c, 13, 7, 50
1, 59739, Note_on_c, 6, 69, 86
1, 59751, Note_off_c, 8, 79, 64
1, 59757, Note_on_c, 9, 36, 64
1, 59758, Note_on_c, 8, 81, 92
1, 59758, Note_on_c, 9, 42, 92
1, 59760, Note_on_c, 2, 58, 100
1, 59760, Control_c, 6, 7, 67
1, 59760, Control_c, 8, 7, 22
1, 59764, Note_off_c, 6, 67, 64
1, 59769, Note_off_c, 2, 57, 64
1, 59814, Control_c, 10, 7, 45
1, 59814, Control_c, 12, 7, 58
1, 59814, Control_c, 13, 7, 49
1, 59820, Control_c, 6, 7, 67
1, 59820, Control_c, 8, 7, 21
1, 59834, Note_off_c, 9, 36, 64
1, 59845, Note_off_c, 9, 42, 64
1, 59880, Control_c, 6, 7, 66
1, 59880, Control_c, 8, 7, 20
1, 59892, Control_c, 10, 7, 45
1, 59892, Control_c, 12, 7, 57
1, 59892, Control_c, 13, 7, 49
1, 59940, Control_c, 6, 7, 66
1, 59940, Control_c, 8, 7, 20
1, 59970, Control_c, 10, 7, 44
1, 59970, Control_c, 12, 7, 56
1, 59970, Control_c, 13, 7, 48
1, 59971, Control_c, 2, 64, 127
1, 59980, Note_on_c, 6, 67, 89
1, 59988, Note_on_c, 5, 86, 83
1, 59997, Note_on_c, 9, 42, 100
1, 59998, Note_on_c, 9, 37, 100
1, 60000, Control_c, 6, 7, 65
1, 60000, Control_c, 8, 7, 18
1, 60001, Note_on_c, 9, 27, 77
1, 60011, Note_off_c, 6, 69, 64
1, 60051, Note_off_c, 9, 42, 64
1, 60053, Note_off_c, 9, 37, 64
1, 60054, Note_off_c, 9, 27, 64
1, 60060, Control_c, 6, 7, 64
1, 60060, Control_c, 8, 7, 18
1, 60071, Note_off_c, 5, 86, 64
1, 60120, Control_c, 6, 7, 63
1, 60120, Control_c, 8, 7, 17
1, 60126, Control_c, 10, 7, 44
1, 60126, Control_c, 12, 7, 56
1, 60126, Control_c, 13, 7, 48
1, 60180, Control_c, 6, 7, 62
1, 60180, Control_c, 8, 7, 16
1, 60204, Control_c, 10, 7, 43
1, 60204, Control_c, 12, 7, 55
1, 60204, Control_c, 13, 7, 47
1, 60225, Note_on_c, 6, 69, 89
1, 60236, Note_on_c, 9, 42, 77
1, 60240, Control_c, 6, 7, 62
1, 60240, Control_c, 8, 7, 15
1, 60243, Note_on_c, 2, 79, 115
1, 60263, Note_off_c, 6, 67, 64
1, 60282, Control_c, 10, 7, 43
1, 60282, Control_c, 12, 7, 55
1, 60282, Control_c, 13, 7, 47
1, 60292, Note_off_c, 9, 42, 64
1, 60300, Control_c, 6, 7, 61
1, 60300, Control_c, 8, 7, 15
1, 60356, Note_on_c, 9, 42, 61
1, 60358, Note_on_c, 9, 36, 60
1, 60360, Control_c, 6, 7, 60
1, 60360, Control_c, 8, 7, 14
1, 60360, Note_on_c, 9, 27, 60
1, 60360, Control_c, 10, 7, 42
1, 60360, Control_c, 12, 7, 54
1, 60360, Control_c, 13, 7, 46
1, 60403, Note_off_c, 9, 27, 64
1, 60408, Note_off_c, 9, 42, 64
1, 60420, Control_c, 6, 7, 59
1, 60420, Control_c, 8, 7, 13
1, 60432, Note_off_c, 9, 36, 64
1, 60438, Control_c, 10, 7, 42
1, 60438, Control_c, 12, 7, 53
1, 60438, Control_c, 13, 7, 46
1, 60464, Note_on_c, 6, 67, 89
1, 60473, Note_off_c, 2, 79, 64
1, 60476, Note_on_c, 5, 86, 83
1, 60476, Note_on_c, 9, 42, 89
1, 60480, Control_c, 6, 7, 58
1, 60480, Control_c, 8, 7, 12
1, 60498, Note_off_c, 6, 69, 64
1, 60516, Control_c, 10, 7, 42
1, 60516, Control_c, 12, 7, 53
1, 60516, Control_c, 13, 7, 45
1, 60530, Note_off_c, 9, 42, 64
1, 60540, Control_c, 6, 7, 57
1, 60540, Control_c, 8, 7, 11
1, 60552, Note_off_c, 5, 86, 64
1, 60594, Control_c, 10, 7, 41
1, 60594, Control_c, 12, 7, 52
1, 60594, Control_c, 13, 7, 45
1, 60595, Note_on_c, 9, 32, 57
1, 60596, Note_on_c, 9, 42, 69
1, 60598, Note_on_c, 9, 27, 56
1, 60600, Control_c, 6, 7, 56
1, 60600, Control_c, 8, 7, 11
1, 60647, Note_off_c, 9, 27, 64
1, 60651, Note_off_c, 9, 42, 64
1, 60660, Control_c, 6, 7, 54
1, 60660, Control_c, 8, 7, 10
1, 60672, Control_c, 10, 7, 41
1, 60672, Control_c, 12, 7, 52
1, 60672, Control_c, 13, 7, 44
1, 60674, Note_off_c, 9, 32, 64
1, 60710, Note_on_c, 6, 69, 89
1, 60715, Note_on_c, 9, 42, 96
1, 60717, Note_on_c, 2, 77, 110
1, 60717, Note_on_c, 9, 36, 59
1, 60720, Control_c, 6, 7, 53
1, 60720, Control_c, 8, 7, 9
1, 60745, Note_off_c, 6, 67, 64
1, 60750, Control_c, 10, 7, 40
1, 60750, Control_c, 12, 7, 51
1, 60750, Control_c, 13, 7, 44
1, 60767, Note_off_c, 9, 42, 64
1, 60780, Control_c, 6, 7, 51
1, 60780, Control_c, 8, 7, 8
1, 60789, Note_off_c, 9, 36, 64
1, 60828, Control_c, 10, 7, 39
1, 60828, Control_c, 12, 7, 50
1, 60828, Control_c, 13, 7, 42
1, 60840, Control_c, 6, 7, 50
1, 60840, Control_c, 8, 7, 8
1, 60872, Note_off_c, 2, 77, 64
1, 60900, Control_c, 6, 7, 49
1, 60900, Control_c, 8, 7, 7
1, 60906, Control_c, 10, 7, 39
1, 60906, Control_c, 12, 7, 49
1, 60906, Control_c, 13, 7, 42
1, 60946, Note_on_c, 6, 67, 86
1, 60948, Note_off_c, 2, 58, 64
1, 60953, Note_off_c, 8, 81, 64
1, 60954, Note_on_c, 5, 88, 100
1, 60956, Note_on_c, 9, 42, 86
1, 60958, Note_on_c, 8, 76, 86
1, 60958, Note_on_c, 9, 27, 71
1, 60960, Control_c, 6, 7, 47
1, 60960, Control_c, 8, 7, 6
1, 60961, Note_on_c, 9, 37, 100
1, 60975, Note_off_c, 6, 69, 64
1, 60984, Control_c, 10, 7, 38
1, 60984, Control_c, 12, 7, 49
1, 60984, Control_c, 13, 7, 41
1, 61002, Note_off_c, 9, 42, 64
1, 61013, Note_off_c, 9, 27, 64
1, 61015, Note_off_c, 9, 37, 64
1, 61020, Control_c, 6, 7, 45
1, 61020, Control_c, 8, 7, 5
1, 61040, Note_off_c, 5, 88, 64
1, 61062, Control_c, 10, 7, 38
1, 61062, Control_c, 12, 7, 48
1, 61062, Control_c, 13, 7, 41
1, 61080, Control_c, 6, 7, 43
1, 61080, Control_c, 8, 7, 4
1, 61140, Control_c, 6, 7, 41
1, 61140, Control_c, 8, 7, 4
1, 61140, Control_c, 10, 7, 37
1, 61140, Control_c, 12, 7, 47
1, 61140, Control_c, 13, 7, 40
1, 61190, Note_on_c, 6, 69, 89
1, 61197, Note_on_c, 9, 42, 83
1, 61200, Control_c, 6, 7, 39
1, 61200, Control_c, 8, 7, 3
1, 61218, Control_c, 10, 7, 37
1, 61218, Control_c, 12, 7, 47
1, 61218, Control_c, 13, 7, 40
1, 61228, Note_off_c, 6, 67, 64
1, 61244, Note_off_c, 9, 42, 64
1, 61260, Control_c, 6, 7, 36
1, 61260, Control_c, 8, 7, 2
1, 61296, Control_c, 10, 7, 36
1, 61296, Control_c, 12, 7, 46
1, 61296, Control_c, 13, 7, 39
1, 61317, Note_on_c, 9, 42, 63
1, 61318, Note_on_c, 9, 32, 55
1, 61319, Note_on_c, 9, 27, 68
1, 61320, Control_c, 6, 7, 33
1, 61320, Control_c, 8, 7, 1
1, 61363, Note_off_c, 9, 42, 64
1, 61370, Note_off_c, 9, 27, 64
1, 61374, Control_c, 10, 7, 35
1, 61374, Control_c, 12, 7, 45
1, 61374, Control_c, 13, 7, 38
1, 61380, Control_c, 6, 7, 30
1, 61380, Control_c, 8, 7, 1
1, 61392, Note_off_c, 9, 32, 64
1, 61408, Note_off_c, 2, 58, 64
1, 61417, Control_c, 2, 64, 0
1, 61423, Note_off_c, 7, 58, 64
1, 61432, Note_on_c, 6, 67, 89
1, 61435, Note_on_c, 5, 88, 77
1, 61436, Note_off_c, 11, 70, 64
1, 61437, Note_on_c, 9, 36, 63
1, 61438, Note_on_c, 9, 42, 92
1, 61439, Note_on_c, 8, 79, 100
1, 61440, Control_c, 6, 7, 27
1, 61440, Control_c, 8, 7, 0
1, 61440, Note_on_c, 11, 69, 69
1, 61443, Note_on_c, 7, 57, 61
1, 61445, Note_on_c, 2, 57, 96
1, 61445, Note_on_c, 7, 53, 64
1, 61446, Note_on_c, 2, 57, 100
1, 61447, Note_off_c, 7, 55, 64
1, 61452, Control_c, 10, 7, 35
1, 61452, Control_c, 12, 7, 44
1, 61452, Control_c, 13, 7, 38
1, 61465, Note_off_c, 6, 69, 64
1, 61470, Control_c, 6, 7, 29
1, 61470, Control_c, 8, 7, 0
1, 61499, Note_off_c, 9, 42, 64
1, 61500, Control_c, 6, 7, 33
1, 61500, Control_c, 8, 7, 1
1, 61508, Note_off_c, 5, 88, 64
1, 61519, Note_off_c, 9, 36, 64
1, 61530, Control_c, 6, 7, 35
1, 61530, Control_c, 8, 7, 2
1, 61530, Control_c, 10, 7, 34
1, 61530, Control_c, 12, 7, 43
1, 61530, Control_c, 13, 7, 37
1, 61559, Note_on_c, 9, 27, 52
1, 61559, Note_on_c, 9, 42, 71
1, 61560, Control_c, 6, 7, 38
1, 61560, Control_c, 8, 7, 4
1, 61590, Control_c, 6, 7, 39
1, 61590, Control_c, 8, 7, 5
1, 61601, Note_off_c, 9, 27, 64
1, 61608, Control_c, 10, 7, 34
1, 61608, Control_c, 12, 7, 43
1, 61608, Control_c, 13, 7, 36
1, 61617, Note_off_c, 9, 42, 64
1, 61620, Control_c, 6, 7, 41
1, 61620, Control_c, 8, 7, 6
1, 61650, Control_c, 6, 7, 43
1, 61650, Control_c, 8, 7, 7
1, 61671, Note_on_c, 6, 69, 89
1, 61676, Note_on_c, 9, 36, 63
1, 61678, Note_on_c, 9, 42, 92
1, 61680, Control_c, 6, 7, 45
1, 61680, Control_c, 8, 7, 8
1, 61686, Control_c, 10, 7, 33
1, 61686, Control_c, 12, 7, 42
1, 61686, Control_c, 13, 7, 36
1, 61705, Note_off_c, 6, 67, 64
1, 61710, Control_c, 6, 7, 46
1, 61710, Control_c, 8, 7, 10
1, 61714, Control_c, 2, 64, 127
1, 61736, Note_off_c, 9, 42, 64
1, 61740, Control_c, 6, 7, 48
1, 61740, Control_c, 8, 7, 11
1, 61754, Note_off_c, 9, 36, 64
1, 61764, Control_c, 10, 7, 32
1, 61764, Control_c, 12, 7, 41
1, 61764, Control_c, 13, 7, 35
1, 61770, Control_c, 6, 7, 49
1, 61770, Control_c, 8, 7, 12
1, 61800, Control_c, 6, 7, 50
1, 61800, Control_c, 8, 7, 13
1, 61830, Control_c, 6, 7, 51
1, 61830, Control_c, 8, 7, 14
1, 61842, Control_c, 10, 7, 32
1, 61842, Control_c, 12, 7, 40
1, 61842, Control_c, 13, 7, 34
1, 61860, Control_c, 6, 7, 52
1, 61860, Control_c, 8, 7, 15
1, 61890, Control_c, 6, 7, 54
1, 61890, Control_c, 8, 7, 17
1, 61906, Note_on_c, 6, 67, 89
1, 61911, Note_on_c, 5, 88, 67
1, 61917, Note_on_c, 9, 42, 92
1, 61918, Note_on_c, 9, 37, 100
1, 61920, Control_c, 6, 7, 55
1, 61920, Note_off_c, 8, 76, 64
1, 61920, Control_c, 8, 7, 18
1, 61920, Control_c, 10, 7, 31
1, 61920, Control_c, 12, 7, 39
1, 61920, Control_c, 13, 7, 33
1, 61921, Note_on_c, 8, 77, 89
1, 61922, Note_on_c, 9, 27, 77
1, 61935, Note_off_c, 6, 69, 64
1, 61950, Control_c, 6, 7, 55
1, 61950, Control_c, 8, 7, 19
1, 61970, Note_off_c, 9, 27, 64
1, 61974, Note_off_c, 9, 42, 64
1, 61975, Note_off_c, 9, 37, 64
1, 61980, Control_c, 6, 7, 56
1, 61980, Control_c, 8, 7, 20
1, 61983, Note_off_c, 5, 88, 64
1, 61998, Control_c, 10, 7, 30
1, 61998, Control_c, 12, 7, 38
1, 61998, Control_c, 13, 7, 33
1, 62010, Control_c, 6, 7, 57
1, 62010, Control_c, 8, 7, 21
1, 62040, Control_c, 6, 7, 58
1, 62040, Control_c, 8, 7, 23
1, 62070, Control_c, 6, 7, 58
1, 62070, Control_c, 8, 7, 24
1, 62076, Control_c, 10, 7, 29
1, 62076, Control_c, 12, 7, 37
1, 62076, Control_c, 13, 7, 32
1, 62100, Control_c, 6, 7, 59
1, 62100, Control_c, 8, 7, 24
1, 62130, Control_c, 6, 7, 60
1, 62130, Control_c, 8, 7, 25
1, 62146, Note_on_c, 6, 69, 86
1, 62154, Control_c, 10, 7, 28
1, 62154, Control_c, 12, 7, 36
1, 62154, Control_c, 13, 7, 31
1, 62157, Note_on_c, 9, 42, 89
1, 62160, Control_c, 6, 7, 60
1, 62160, Control_c, 8, 7, 27
1, 62163, Note_on_c, 2, 77, 115
1, 62169, Note_on_c, 8, 79, 83
1, 62173, Note_off_c, 8, 77, 64
1, 62175, Note_off_c, 6, 67, 64
1, 62179, Note_off_c, 2, 57, 64
1, 62190, Control_c, 6, 7, 61
1, 62190, Control_c, 8, 7, 28
1, 62220, Control_c, 6, 7, 61
1, 62220, Control_c, 8, 7, 29
1, 62220, Note_off_c, 9, 42, 64
1, 62232, Control_c, 10, 7, 28
1, 62232, Control_c, 12, 7, 35
1, 62232, Control_c, 13, 7, 30
1, 62250, Control_c, 6, 7, 62
1, 62250, Control_c, 8, 7, 30
1, 62278, Note_on_c, 9, 36, 63
1, 62278, Note_on_c, 9, 42, 63
1, 62280, Control_c, 6, 7, 62
1, 62280, Control_c, 8, 7, 31
1, 62283, Note_on_c, 9, 27, 62
1, 62310, Control_c, 6, 7, 63
1, 62310, Control_c, 8, 7, 33
1, 62310, Control_c, 10, 7, 27
1, 62310, Control_c, 12, 7, 34
1, 62310, Control_c, 13, 7, 29
1, 62317, Note_off_c, 9, 27, 64
1, 62327, Note_off_c, 9, 42, 64
1, 62340, Control_c, 6, 7, 63
1, 62340, Control_c, 8, 7, 34
1, 62363, Note_off_c, 9, 36, 64
1, 62368, Note_off_c, 2, 77, 64
1, 62370, Control_c, 6, 7, 64
1, 62370, Control_c, 8, 7, 35
1, 62386, Note_on_c, 6, 67, 89
1, 62388, Control_c, 10, 7, 26
1, 62388, Control_c, 12, 7, 33
1, 62388, Control_c, 13, 7, 28
1, 62392, Note_on_c, 5, 88, 48
1, 62397, Note_on_c, 9, 42, 86
1, 62400, Control_c, 8, 7, 36
1, 62421, Note_off_c, 6, 69, 64
1, 62430, Control_c, 6, 7, 65
1, 62430, Control_c, 8, 7, 37
1, 62457, Note_off_c, 5, 88, 64
1, 62457, Note_off_c, 9, 42, 64
1, 62460, Control_c, 6, 7, 65
1, 62460, Control_c, 8, 7, 38
1, 62466, Control_c, 10, 7, 25
1, 62466, Control_c, 12, 7, 32
1, 62466, Control_c, 13, 7, 27
1, 62490, Control_c, 6, 7, 66
1, 62490, Control_c, 8, 7, 40
1, 62518, Note_on_c, 9, 32, 57
1, 62519, Note_on_c, 9, 42, 67
1, 62520, Control_c, 8, 7, 41
1, 62521, Note_on_c, 9, 27, 60
1, 62544, Control_c, 10, 7, 25
1, 62544, Control_c, 12, 7, 31
1, 62544, Control_c, 13, 7, 27
1, 62550, Control_c, 6, 7, 66
1, 62550, Control_c, 8, 7, 42
1, 62556, Note_off_c, 9, 27, 64
1, 62572, Note_off_c, 9, 42, 64
1, 62580, Control_c, 8, 7, 43
1, 62610, Control_c, 6, 7, 67
1, 62610, Control_c, 8, 7, 44
1, 62614, Note_off_c, 9, 32, 64
1, 62622, Control_c, 10, 7, 24
1, 62622, Control_c, 12, 7, 30
1, 62622, Control_c, 13, 7, 26
1, 62630, Note_on_c, 6, 69, 86
1, 62635, Note_on_c, 2, 76, 115
1, 62638, Note_on_c, 9, 42, 92
1, 62638, Note_on_c, 9, 36, 60
1, 62640, Control_c, 6, 7, 67
1, 62640, Control_c, 8, 7, 46
1, 62666, Note_off_c, 6, 67, 64
1, 62670, Control_c, 8, 7, 47
1, 62691, Note_off_c, 9, 42, 64
1, 62700, Control_c, 6, 7, 68
1, 62700, Control_c, 8, 7, 48
1, 62700, Control_c, 10, 7, 23
1, 62700, Control_c, 12, 7, 29
1, 62700, Control_c, 13, 7, 25
1, 62710, Note_off_c, 9, 36, 64
1, 62730, Control_c, 8, 7, 49
1, 62733, Note_off_c, 2, 76, 64
1, 62760, Control_c, 6, 7, 68
1, 62760, Control_c, 8, 7, 50
1, 62778, Control_c, 10, 7, 22
1, 62778, Control_c, 12, 7, 28
1, 62778, Control_c, 13, 7, 24
1, 62790, Control_c, 8, 7, 51
1, 62820, Control_c, 6, 7, 69
1, 62820, Control_c, 8, 7, 52
1, 62850, Control_c, 8, 7, 53
1, 62856, Control_c, 10, 7, 21
1, 62856, Control_c, 12, 7, 26
1, 62856, Control_c, 13, 7, 23
1, 62861, Note_on_c, 6, 67, 86
1, 62877, Note_on_c, 5, 88, 47
1, 62880, Control_c, 6, 7, 70
1, 62880, Control_c, 8, 7, 54
1, 62881, Note_on_c, 9, 42, 83
1, 62882, Note_on_c, 9, 38, 115
1, 62883, Note_on_c, 9, 27, 74
1, 62891, Note_off_c, 6, 69, 64
1, 62910, Control_c, 8, 7, 56
1, 62927, Note_off_c, 9, 42, 64
1, 62933, Note_off_c, 5, 88, 64
1, 62933, Note_off_c, 9, 27, 64
1, 62934, Control_c, 10, 7, 19
1, 62934, Control_c, 12, 7, 25
1, 62934, Control_c, 13, 7, 21
1, 62940, Control_c, 6, 7, 69
1, 62940, Control_c, 8, 7, 57
1, 62960, Note_off_c, 9, 38, 64
1, 62970, Control_c, 6, 7, 68
1, 62970, Control_c, 8, 7, 58
1, 63000, Control_c, 6, 7, 68
1, 63000, Control_c, 8, 7, 59
1, 63001, Note_on_c, 9, 38, 105
1, 63012, Control_c, 10, 7, 18
1, 63012, Control_c, 12, 7, 23
1, 63012, Control_c, 13, 7, 20
1, 63030, Control_c, 6, 7, 67
1, 63030, Control_c, 8, 7, 60
1, 63060, Control_c, 6, 7, 66
1, 63060, Control_c, 8, 7, 62
1, 63060, Note_off_c, 9, 38, 64
1, 63090, Control_c, 6, 7, 65
1, 63090, Control_c, 8, 7, 63
1, 63090, Control_c, 10, 7, 17
1, 63090, Control_c, 12, 7, 22
1, 63090, Control_c, 13, 7, 19
1, 63119, Note_on_c, 9, 42, 89
1, 63120, Control_c, 6, 7, 64
1, 63120, Control_c, 8, 7, 64
1, 63120, Note_on_c, 9, 41, 115
1, 63150, Control_c, 6, 7, 62
1, 63150, Control_c, 8, 7, 65
1, 63168, Control_c, 10, 7, 17
1, 63168, Control_c, 12, 7, 21
1, 63168, Control_c, 13, 7, 18
1, 63173, Note_off_c, 9, 41, 64
1, 63180, Control_c, 6, 7, 61
1, 63180, Control_c, 8, 7, 66
1, 63186, Note_off_c, 9, 42, 64
1, 63210, Control_c, 6, 7, 59
1, 63210, Control_c, 8, 7, 67
1, 63235, Note_on_c, 9, 32, 63
1, 63239, Note_on_c, 9, 42, 75
1, 63240, Control_c, 6, 7, 56
1, 63240, Control_c, 8, 7, 69
1, 63242, Note_on_c, 9, 27, 65
1, 63246, Control_c, 10, 7, 15
1, 63246, Control_c, 12, 7, 19
1, 63246, Control_c, 13, 7, 16
1, 63254, Note_off_c, 1, 26, 64
1, 63263, Note_off_c, 6, 67, 64
1, 63268, Note_off_c, 9, 27, 64
1, 63270, Control_c, 6, 7, 53
1, 63270, Control_c, 8, 7, 70
1, 63276, Note_off_c, 9, 42, 64
1, 63279, Note_off_c, 2, 57, 64
1, 63284, Note_off_c, 9, 32, 64
1, 63300, Control_c, 6, 7, 49
1, 63300, Control_c, 8, 7, 71
1, 63308, Note_off_c, 7, 57, 64
1, 63312, Note_off_c, 7, 60, 64
1, 63320, Note_off_c, 7, 62, 64
1, 63322, Note_off_c, 10, 74, 64
1, 63323, Note_off_c, 7, 53, 64
1, 63324, Control_c, 10, 7, 14
1, 63324, Control_c, 12, 7, 18
1, 63324, Control_c, 13, 7, 15
1, 63330, Control_c, 6, 7, 42
1, 63330, Control_c, 8, 7, 72
1, 63330, Note_off_c, 10, 86, 64
1, 63334, Note_off_c, 11, 77, 64
1, 63343, Control_c, 2, 64, 0
1, 63345, Note_off_c, 11, 74, 64
1, 63346, Note_off_c, 11, 79, 64
1, 63347, Note_off_c, 8, 79, 64
1, 63348, Note_off_c, 11, 69, 64
1, 63348, Note_off_c, 13, 50, 64
1, 63349, Note_off_c, 11, 62, 64
1, 63350, Note_on_c, 7, 64, 80
1, 63351, Note_on_c, 2, 38, 80
1, 63351, Note_on_c, 7, 62, 77
1, 63352, Note_on_c, 2, 50, 89
1, 63352, Control_c, 5, 64, 0
1, 63352, Note_on_c, 7, 57, 69
1, 63352, Note_on_c, 7, 50, 73
1, 63354, Note_off_c, 13, 57, 64
1, 63355, Note_on_c, 15, 50, 89
1, 63355, Note_on_c, 15, 57, 105
1, 63356, Note_on_c, 9, 35, 122
1, 63356, Note_off_c, 12, 38, 64
1, 63359, Note_on_c, 1, 38, 110
1, 63359, Control_c, 6, 7, 42
1, 63359, Control_c, 7, 7, 72
1, 63359, Control_c, 8, 7, 73
1, 63359, Control_c, 10, 7, 13
1, 63359, Control_c, 11, 7, 75
1, 63359, Control_c, 12, 7, 17
1, 63359, Control_c, 13, 7, 14
1, 63360, Control_c, 7, 7, 72
1, 63360, Control_c, 8, 7, 75
1, 63360, Note_on_c, 9, 49, 110
1, 63360, Note_on_c, 10, 86, 86
1, 63360, Control_c, 10, 7, 60
1, 63360, Control_c, 12, 7, 16
1, 63360, Control_c, 13, 7, 14
1, 63416, Note_off_c, 9, 35, 64
1, 63418, Note_off_c, 15, 50, 64
1, 63435, Note_off_c, 15, 57, 64
1, 63436, Note_off_c, 9, 49, 64
1, 63479, Note_on_c, 9, 24, 51
1, 63480, Control_c, 8, 7, 74
1, 63547, Note_off_c, 9, 24, 64
1, 63555, Note_off_c, 1, 38, 64
1, 63587, Note_on_c, 2, 57, 89
1, 63594, Note_on_c, 15, 57, 100
1, 63595, Note_on_c, 15, 50, 89
1, 63596, Note_on_c, 9, 35, 122
1, 63597, Note_on_c, 9, 24, 43
1, 63600, Note_on_c, 1, 38, 96
1, 63600, Control_c, 8, 7, 73
1, 63600, Note_on_c, 9, 42, 89
1, 63654, Note_off_c, 9, 42, 64
1, 63654, Note_off_c, 9, 35, 64
1, 63657, Note_off_c, 9, 24, 64
1, 63657, Note_off_c, 15, 50, 64
1, 63659, Control_c, 2, 64, 127
1, 63681, Note_off_c, 15, 57, 64
1, 63720, Control_c, 8, 7, 73
1, 63780, Control_c, 8, 7, 72
1, 63792, Note_off_c, 1, 38, 64
1, 63834, Note_on_c, 15, 50, 96
1, 63835, Note_on_c, 2, 62, 96
1, 63835, Note_on_c, 15, 57, 100
1, 63836, Note_on_c, 9, 24, 51
1, 63839, Note_on_c, 7, 65, 80
1, 63839, Note_on_c, 9, 42, 105
1, 63840, Note_on_c, 9, 38, 122
1, 63841, Note_on_c, 1, 38, 100
1, 63861, Note_off_c, 7, 64, 64
1, 63887, Note_off_c, 9, 24, 64
1, 63894, Note_off_c, 9, 38, 64
1, 63900, Control_c, 8, 7, 72
1, 63902, Note_off_c, 15, 50, 64
1, 63903, Note_off_c, 15, 57, 64
1, 63910, Note_off_c, 9, 42, 64
1, 63960, Control_c, 8, 7, 71
1, 64029, Note_off_c, 1, 38, 64
1, 64077, Note_on_c, 9, 24, 41
1, 64078, Note_on_c, 2, 65, 105
1, 64080, Control_c, 8, 7, 70
1, 64080, Note_on_c, 9, 42, 96
1, 64081, Note_on_c, 1, 38, 100
1, 64084, Note_on_c, 15, 57, 92
1, 64086, Note_on_c, 15, 50, 77
1, 64087, Note_on_c, 3, 53, 100
1, 64087, Lyric_t, "And "
1, 64126, Note_off_c, 9, 24, 64
1, 64133, Note_off_c, 9, 42, 64
1, 64138, Note_off_c, 15, 50, 64
1, 64138, Note_off_c, 15, 57, 64
1, 64140, Control_c, 8, 7, 70
1, 64200, Control_c, 8, 7, 69
1, 64200, Note_on_c, 9, 24, 45
1, 64201, Note_on_c, 9, 35, 127
1, 64201, Note_on_c, 9, 42, 83
1, 64205, Note_on_c, 15, 57, 92
1, 64206, Note_on_c, 15, 50, 77
1, 64255, Note_off_c, 9, 42, 64
1, 64258, Note_off_c, 15, 57, 64
1, 64259, Note_off_c, 15, 50, 64
1, 64261, Note_off_c, 9, 24, 64
1, 64266, Note_off_c, 9, 35, 64
1, 64271, Note_off_c, 1, 38, 64
1, 64291, Note_off_c, 3, 53, 64
1, 64320, Control_c, 8, 7, 69
1, 64321, Note_on_c, 9, 42, 110
1, 64322, Note_on_c, 1, 38, 96
1, 64324, Note_on_c, 15, 57, 92
1, 64326, Note_on_c, 15, 50, 80
1, 64327, Note_on_c, 3, 57, 105
1, 64327, Lyric_t, "now "
1, 64380, Control_c, 8, 7, 68
1, 64390, Note_off_c, 15, 50, 64
1, 64394, Note_off_c, 9, 42, 64
1, 64401, Note_off_c, 15, 57, 64
1, 64440, Control_c, 8, 7, 67
1, 64440, Note_on_c, 9, 24, 51
1, 64461, Note_off_c, 2, 65, 64
1, 64493, Note_off_c, 9, 24, 64
1, 64500, Control_c, 8, 7, 67
1, 64525, Note_off_c, 1, 38, 64
1, 64525, Control_c, 3, 1, 4
1, 64545, Note_on_c, 2, 64, 100
1, 64560, Control_c, 8, 7, 66
1, 64560, Note_on_c, 9, 35, 122
1, 64560, Note_on_c, 9, 42, 96
1, 64560, Note_on_c, 15, 50, 92
1, 64560, Note_on_c, 15, 57, 100
1, 64566, Note_on_c, 1, 38, 96
1, 64570, Control_c, 3, 1, 14
1, 64609, Note_off_c, 9, 42, 64
1, 64614, Control_c, 3, 1, 26
1, 64615, Note_off_c, 15, 57, 64
1, 64620, Control_c, 8, 7, 66
1, 64624, Note_off_c, 9, 35, 64
1, 64624, Note_off_c, 15, 50, 64
1, 64648, Control_c, 3, 1, 37
1, 64680, Control_c, 8, 7, 65
1, 64681, Control_c, 3, 1, 53
1, 64681, Note_on_c, 9, 24, 40
1, 64714, Control_c, 3, 1, 63
1, 64731, Note_off_c, 9, 24, 64
1, 64740, Control_c, 8, 7, 64
1, 64757, Note_off_c, 1, 38, 64
1, 64770, Control_c, 3, 1, 39
1, 64777, Note_off_c, 3, 57, 64
1, 64797, Note_on_c, 7, 64, 73
1, 64798, Note_on_c, 9, 38, 122
1, 64800, Control_c, 8, 7, 64
1, 64800, Note_on_c, 9, 42, 105
1, 64801, Note_on_c, 9, 24, 53
1, 64801, Note_on_c, 15, 57, 100
1, 64802, Note_on_c, 15, 50, 89
1, 64803, Note_on_c, 1, 38, 96
1, 64803, Control_c, 3, 1, 0
1, 64804, Note_on_c, 3, 58, 92
1, 64804, Lyric_t, "I'm "
1, 64828, Note_off_c, 7, 65, 64
1, 64850, Note_off_c, 9, 42, 64
1, 64853, Note_off_c, 9, 38, 64
1, 64854, Note_off_c, 9, 24, 64
1, 64860, Control_c, 8, 7, 63
1, 64861, Note_off_c, 15, 50, 64
1, 64863, Note_off_c, 15, 57, 64
1, 64920, Control_c, 8, 7, 63
1, 64980, Control_c, 8, 7, 62
1, 65004, Note_off_c, 1, 38, 64
1, 65037, Note_off_c, 3, 58, 64
1, 65038, Note_on_c, 9, 24, 42
1, 65039, Note_on_c, 9, 42, 96
1, 65040, Control_c, 8, 7, 62
1, 65044, Note_on_c, 1, 38, 89
1, 65044, Note_on_c, 15, 57, 96
1, 65045, Note_on_c, 15, 50, 86
1, 65046, Note_on_c, 3, 60, 96
1, 65046, Lyric_t, "lost \015"
1, 65095, Note_off_c, 15, 57, 64
1, 65096, Note_off_c, 9, 24, 64
1, 65099, Note_off_c, 15, 50, 64
1, 65100, Control_c, 8, 7, 61
1, 65100, Note_off_c, 9, 42, 64
1, 65159, Note_on_c, 9, 24, 49
1, 65160, Control_c, 8, 7, 60
1, 65161, Note_on_c, 9, 42, 86
1, 65162, Note_on_c, 9, 36, 110
1, 65165, Note_on_c, 15, 57, 92
1, 65167, Note_on_c, 15, 50, 80
1, 65212, Note_off_c, 15, 50, 64
1, 65213, Note_off_c, 15, 57, 64
1, 65216, Note_off_c, 9, 24, 64
1, 65216, Note_off_c, 9, 42, 64
1, 65220, Control_c, 8, 7, 59
1, 65231, Note_off_c, 9, 36, 64
1, 65238, Note_off_c, 1, 38, 64
1, 65279, Note_on_c, 9, 35, 122
1, 65279, Note_on_c, 9, 42, 105
1, 65279, Note_on_c, 15, 50, 89
1, 65280, Control_c, 8, 7, 59
1, 65280, Note_on_c, 15, 57, 100
1, 65285, Note_on_c, 1, 38, 92
1, 65337, Control_c, 3, 1, 9
1, 65340, Control_c, 8, 7, 58
1, 65340, Note_off_c, 15, 57, 64
1, 65341, Note_off_c, 15, 50, 64
1, 65347, Note_off_c, 9, 42, 64
1, 65369, Note_off_c, 9, 35, 64
1, 65393, Control_c, 3, 1, 19
1, 65397, Note_on_c, 9, 24, 49
1, 65400, Control_c, 8, 7, 57
1, 65430, Note_off_c, 2, 57, 64
1, 65437, Control_c, 3, 1, 31
1, 65457, Note_off_c, 9, 24, 64
1, 65460, Control_c, 8, 7, 56
1, 65471, Control_c, 3, 1, 36
1, 65473, Note_off_c, 1, 38, 64
1, 65510, Note_off_c, 2, 62, 64
1, 65512, Note_on_c, 2, 57, 57
1, 65515, Control_c, 3, 1, 41
1, 65517, Note_on_c, 9, 24, 45
1, 65518, Note_on_c, 9, 42, 92
1, 65520, Control_c, 8, 7, 55
1, 65520, Note_on_c, 9, 35, 127
1, 65520, Note_on_c, 15, 57, 100
1, 65521, Note_on_c, 15, 50, 86
1, 65522, Note_on_c, 1, 38, 92
1, 65559, Control_c, 3, 1, 48
1, 65575, Note_off_c, 9, 42, 64
1, 65580, Control_c, 8, 7, 54
1, 65582, Note_off_c, 15, 50, 64
1, 65583, Note_off_c, 9, 24, 64
1, 65593, Control_c, 3, 1, 59
1, 65596, Note_off_c, 9, 35, 64
1, 65600, Note_off_c, 15, 57, 64
1, 65637, Control_c, 3, 1, 73
1, 65640, Control_c, 8, 7, 53
1, 65693, Control_c, 3, 1, 53
1, 65700, Control_c, 8, 7, 52
1, 65709, Note_off_c, 1, 38, 64
1, 65709, Note_off_c, 3, 60, 64
1, 65726, Control_c, 3, 1, 0
1, 65734, Note_off_c, 2, 64, 64
1, 65745, Note_on_c, 2, 62, 67
1, 65749, Note_on_c, 7, 65, 77
1, 65754, Note_on_c, 3, 62, 96
1, 65754, Lyric_t, "in "
1, 65756, Note_on_c, 9, 38, 122
1, 65758, Note_on_c, 9, 42, 100
1, 65760, Note_on_c, 1, 38, 100
1, 65760, Control_c, 8, 7, 51
1, 65760, Note_on_c, 9, 24, 47
1, 65762, Note_on_c, 15, 57, 100
1, 65762, Note_on_c, 15, 50, 86
1, 65763, Note_off_c, 7, 64, 64
1, 65807, Note_off_c, 9, 24, 64
1, 65815, Note_off_c, 9, 38, 64
1, 65815, Note_off_c, 9, 42, 64
1, 65820, Control_c, 8, 7, 50
1, 65823, Note_off_c, 15, 57, 64
1, 65829, Note_off_c, 15, 50, 64
1, 65880, Control_c, 8, 7, 49
1, 65940, Control_c, 8, 7, 47
1, 65951, Note_off_c, 1, 38, 64
1, 65981, Pitch_bend_c, 3, 7433
1, 65992, Pitch_bend_c, 3, 6371
1, 65994, Note_off_c, 3, 62, 64
1, 65997, Note_on_c, 2, 65, 75
1, 65999, Note_on_c, 9, 24, 44
1, 66000, Control_c, 8, 7, 46
1, 66001, Note_on_c, 1, 38, 100
1, 66001, Note_on_c, 3, 57, 105
1, 66001, Note_on_c, 9, 42, 96
1, 66001, Lyric_t, "rest"
1, 66004, Pitch_bend_c, 3, 5916
1, 66005, Note_on_c, 15, 57, 80
1, 66006, Note_on_c, 15, 50, 71
1, 66025, Pitch_bend_c, 3, 6599
1, 66036, Pitch_bend_c, 3, 7585
1, 66047, Pitch_bend_c, 3, 8192
1, 66048, Note_off_c, 9, 42, 64
1, 66053, Note_off_c, 15, 57, 64
1, 66057, Note_off_c, 9, 24, 64
1, 66059, Note_off_c, 15, 50, 64
1, 66060, Control_c, 8, 7, 45
1, 66117, Note_on_c, 9, 35, 122
1, 66120, Control_c, 8, 7, 44
1, 66120, Note_on_c, 9, 24, 51
1, 66121, Note_on_c, 9, 42, 80
1, 66122, Note_on_c, 15, 57, 89
1, 66124, Note_on_c, 15, 50, 73
1, 66169, Note_off_c, 9, 42, 64
1, 66175, Note_off_c, 9, 24, 64
1, 66176, Note_off_c, 15, 57, 64
1, 66177, Note_off_c, 15, 50, 64
1, 66180, Control_c, 8, 7, 42
1, 66181, Note_off_c, 9, 35, 64
1, 66191, Note_off_c, 1, 38, 64
1, 66238, Note_on_c, 1, 38, 96
1, 66240, Control_c, 8, 7, 41
1, 66241, Note_on_c, 9, 42, 100
1, 66244, Note_on_c, 15, 57, 89
1, 66246, Note_on_c, 15, 50, 77
1, 66296, Note_off_c, 15, 57, 64
1, 66299, Note_off_c, 15, 50, 64
1, 66300, Control_c, 8, 7, 39
1, 66305, Control_c, 3, 1, 19
1, 66317, Note_off_c, 9, 42, 64
1, 66338, Control_c, 3, 1, 49
1, 66357, Note_on_c, 9, 24, 45
1, 66360, Control_c, 8, 7, 37
1, 66369, Note_off_c, 2, 65, 64
1, 66371, Control_c, 3, 1, 49
1, 66372, Note_on_c, 15, 57, 96
1, 66372, Note_on_c, 15, 50, 80
1, 66405, Control_c, 3, 1, 0
1, 66416, Note_off_c, 9, 24, 64
1, 66420, Control_c, 8, 7, 36
1, 66421, Note_off_c, 15, 57, 64
1, 66424, Note_off_c, 1, 38, 64
1, 66427, Note_off_c, 15, 50, 64
1, 66448, Note_off_c, 3, 57, 64
1, 66477, Note_on_c, 1, 38, 96
1, 66477, Note_on_c, 2, 64, 75
1, 66479, Note_on_c, 9, 35, 122
1, 66480, Control_c, 8, 7, 34
1, 66482, Note_on_c, 9, 42, 92
1, 66484, Note_on_c, 3, 55, 105
1, 66484, Lyric_t, "less "
1, 66491, Note_on_c, 15, 57, 89
1, 66492, Note_on_c, 15, 50, 77
1, 66534, Note_off_c, 9, 42, 64
1, 66539, Note_off_c, 9, 35, 64
1, 66540, Control_c, 8, 7, 32
1, 66554, Note_off_c, 15, 50, 64
1, 66554, Note_off_c, 15, 57, 64
1, 66596, Note_on_c, 9, 24, 44
1, 66600, Control_c, 8, 7, 30
1, 66645, Note_off_c, 2, 64, 64
1, 66650, Note_off_c, 9, 24, 64
1, 66660, Note_off_c, 2, 57, 64
1, 66660, Control_c, 8, 7, 28
1, 66664, Note_off_c, 2, 62, 64
1, 66668, Note_off_c, 1, 38, 64
1, 66681, Note_off_c, 2, 50, 64
1, 66690, Note_off_c, 2, 38, 64
1, 66705, Control_c, 3, 1, 2
1, 66716, Note_on_c, 1, 38, 92
1, 66716, Note_on_c, 9, 38, 122
1, 66717, Note_on_c, 9, 24, 55
1, 66720, Control_c, 8, 7, 25
1, 66722, Note_on_c, 9, 42, 105
1, 66729, Note_on_c, 15, 57, 105
1, 66731, Note_on_c, 15, 50, 86
1, 66738, Control_c, 3, 1, 21
1, 66770, Note_off_c, 9, 38, 64
1, 66772, Control_c, 3, 1, 51
1, 66780, Control_c, 8, 7, 23
1, 66782, Note_off_c, 9, 24, 64
1, 66784, Note_off_c, 15, 57, 64
1, 66790, Note_off_c, 15, 50, 64
1, 66791, Note_off_c, 9, 42, 64
1, 66805, Control_c, 3, 1, 66
1, 66838, Control_c, 3, 1, 56
1, 66840, Control_c, 8, 7, 20
1, 66872, Control_c, 3, 1, 0
1, 66900, Control_c, 8, 7, 17
1, 66907, Note_off_c, 1, 38, 64
1, 66921, Note_off_c, 3, 55, 64
1, 66957, Note_on_c, 1, 38, 96
1, 66957, Note_on_c, 9, 24, 44
1, 66958, Note_on_c, 3, 57, 110
1, 66958, Lyric_t, "nights.\015"
1, 66960, Control_c, 8, 7, 14
1, 66961, Note_on_c, 9, 42, 92
1, 66965, Note_on_c, 15, 57, 92
1, 66966, Note_on_c, 15, 50, 80
1, 67013, Note_off_c, 9, 24, 64
1, 67015, Note_off_c, 15, 57, 64
1, 67018, Note_off_c, 15, 50, 64
1, 67019, Note_off_c, 9, 42, 64
1, 67020, Control_c, 8, 7, 11
1, 67079, Note_on_c, 9, 24, 47
1, 67080, Control_c, 8, 7, 8
1, 67080, Note_on_c, 9, 36, 105
1, 67081, Pitch_bend_c, 3, 8479
1, 67082, Note_on_c, 9, 42, 86
1, 67086, Note_on_c, 15, 57, 100
1, 67086, Note_on_c, 15, 50, 86
1, 67093, Pitch_bend_c, 3, 10062
1, 67104, Pitch_bend_c, 3, 11284
1, 67115, Pitch_bend_c, 3, 12148
1, 67125, Note_off_c, 9, 42, 64
1, 67126, Pitch_bend_c, 3, 12435
1, 67129, Note_off_c, 9, 36, 64
1, 67130, Note_off_c, 15, 57, 64
1, 67134, Note_off_c, 15, 50, 64
1, 67137, Control_c, 2, 64, 0
1, 67140, Control_c, 8, 7, 4
1, 67146, Note_off_c, 9, 24, 64
1, 67148, Pitch_bend_c, 3, 12651
1, 67149, Note_off_c, 1, 38, 64
1, 67159, Pitch_bend_c, 3, 12867
1, 67180, Note_off_c, 7, 62, 64
1, 67183, Note_off_c, 7, 57, 64
1, 67188, Note_off_c, 7, 50, 64
1, 67189, Note_off_c, 7, 65, 64
1, 67192, Note_on_c, 7, 64, 83
1, 67192, Note_on_c, 7, 57, 67
1, 67193, Note_on_c, 7, 60, 73
1, 67194, Note_on_c, 7, 48, 65
1, 67196, Note_on_c, 1, 36, 100
1, 67196, Note_on_c, 15, 48, 86
1, 67197, Note_on_c, 15, 57, 96
1, 67198, Note_on_c, 2, 48, 92
1, 67198, Note_on_c, 9, 35, 115
1, 67198, Note_on_c, 15, 55, 100
1, 67200, Note_on_c, 2, 36, 83
1, 67200, Note_off_c, 8, 79, 64
1, 67200, Control_c, 8, 7, 0
1, 67203, Note_on_c, 8, 77, 92
1, 67203, Note_on_c, 9, 42, 100
1, 67204, Pitch_bend_c, 3, 11572
1, 67215, Pitch_bend_c, 3, 9199
1, 67226, Pitch_bend_c, 3, 8192
1, 67246, Note_off_c, 15, 55, 64
1, 67247, Note_off_c, 15, 57, 64
1, 67260, Note_off_c, 15, 48, 64
1, 67270, Note_off_c, 9, 35, 64
1, 67284, Note_off_c, 9, 42, 64
1, 67317, Note_on_c, 9, 24, 51
1, 67378, Note_off_c, 9, 24, 64
1, 67389, Note_off_c, 1, 36, 64
1, 67437, Note_on_c, 1, 36, 96
1, 67438, Note_on_c, 9, 24, 44
1, 67438, Note_on_c, 15, 48, 86
1, 67439, Note_on_c, 9, 35, 122
1, 67439, Note_on_c, 15, 57, 100
1, 67439, Note_on_c, 15, 55, 96
1, 67442, Note_on_c, 9, 42, 92
1, 67446, Note_on_c, 2, 57, 75
1, 67477, Control_c, 2, 64, 127
1, 67488, Note_off_c, 15, 57, 64
1, 67494, Note_off_c, 15, 55, 64
1, 67501, Note_off_c, 15, 48, 64
1, 67502, Note_off_c, 9, 42, 64
1, 67505, Note_off_c, 9, 35, 64
1, 67516, Control_c, 3, 1, 14
1, 67516, Note_off_c, 9, 24, 64
1, 67561, Control_c, 3, 1, 34
1, 67594, Control_c, 3, 1, 51
1, 67621, Note_off_c, 1, 36, 64
1, 67628, Control_c, 3, 1, 61
1, 67658, Note_off_c, 3, 57, 64
1, 67661, Control_c, 3, 1, 0
1, 67675, Note_on_c, 1, 36, 96
1, 67675, Note_on_c, 7, 65, 75
1, 67676, Note_on_c, 9, 38, 122
1, 67679, Note_on_c, 9, 24, 55
1, 67680, Note_on_c, 2, 62, 100
1, 67680, Note_on_c, 9, 42, 105
1, 67683, Note_on_c, 15, 57, 100
1, 67684, Note_on_c, 15, 55, 100
1, 67685, Note_on_c, 15, 48, 89
1, 67708, Note_off_c, 7, 64, 64
1, 67730, Note_off_c, 15, 55, 64
1, 67731, Note_off_c, 9, 38, 64
1, 67734, Note_off_c, 15, 57, 64
1, 67737, Note_off_c, 15, 48, 64
1, 67739, Note_off_c, 9, 24, 64
1, 67741, Note_off_c, 9, 42, 64
1, 67860, Note_off_c, 1, 36, 64
1, 67911, Note_on_c, 1, 36, 92
1, 67917, Note_on_c, 9, 24, 43
1, 67919, Note_on_c, 2, 65, 105
1, 67921, Note_on_c, 9, 42, 96
1, 67923, Note_on_c, 15, 57, 86
1, 67924, Note_on_c, 15, 48, 86
1, 67925, Note_on_c, 15, 55, 89
1, 67959, Note_off_c, 15, 55, 64
1, 67965, Note_off_c, 15, 57, 64
1, 67968, Note_off_c, 15, 48, 64
1, 67980, Note_off_c, 9, 42, 64
1, 67986, Note_off_c, 9, 24, 64
1, 68037, Note_on_c, 9, 35, 122
1, 68039, Note_on_c, 9, 24, 42
1, 68042, Note_on_c, 9, 42, 89
1, 68042, Note_on_c, 15, 57, 80
1, 68043, Note_on_c, 15, 55, 86
1, 68044, Note_on_c, 15, 48, 75
1, 68086, Note_off_c, 15, 55, 64
1, 68087, Note_off_c, 15, 48, 64
1, 68087, Note_off_c, 15, 57, 64
1, 68090, Note_off_c, 9, 24, 64
1, 68091, Note_off_c, 9, 42, 64
1, 68100, Note_off_c, 9, 35, 64
1, 68101, Note_off_c, 1, 36, 64
1, 68151, Note_on_c, 1, 36, 100
1, 68154, Note_on_c, 8, 76, 86
1, 68161, Note_on_c, 9, 42, 105
1, 68163, Note_on_c, 15, 57, 86
1, 68164, Note_on_c, 15, 55, 89
1, 68164, Note_on_c, 15, 48, 80
1, 68181, Note_off_c, 8, 77, 64
1, 68206, Note_off_c, 15, 55, 64
1, 68209, Note_off_c, 15, 57, 64
1, 68213, Note_off_c, 15, 48, 64
1, 68236, Note_off_c, 9, 42, 64
1, 68277, Note_on_c, 9, 24, 47
1, 68281, Note_on_c, 15, 57, 89
1, 68282, Note_on_c, 15, 55, 92
1, 68282, Note_on_c, 15, 48, 77
1, 68293, Note_off_c, 2, 65, 64
1, 68331, Note_off_c, 15, 55, 64
1, 68333, Note_off_c, 15, 57, 64
1, 68334, Note_off_c, 9, 24, 64
1, 68335, Note_off_c, 15, 48, 64
1, 68338, Note_off_c, 1, 36, 64
1, 68377, Note_on_c, 2, 64, 100
1, 68392, Note_on_c, 1, 36, 100
1, 68401, Note_on_c, 3, 57, 100
1, 68401, Note_on_c, 9, 35, 122
1, 68401, Lyric_t, "Just "
1, 68402, Note_on_c, 9, 42, 100
1, 68404, Note_on_c, 15, 55, 92
1, 68405, Note_on_c, 15, 48, 80
1, 68406, Note_on_c, 15, 57, 89
1, 68413, Note_on_c, 7, 64, 71
1, 68453, Note_off_c, 15, 57, 64
1, 68454, Note_off_c, 9, 42, 64
1, 68461, Note_off_c, 15, 55, 64
1, 68465, Note_off_c, 15, 48, 64
1, 68467, Note_off_c, 7, 65, 64
1, 68468, Note_off_c, 9, 35, 64
1, 68518, Note_on_c, 9, 24, 41
1, 68570, Note_off_c, 9, 24, 64
1, 68576, Note_off_c, 1, 36, 64
1, 68624, Note_off_c, 3, 57, 64
1, 68628, Note_on_c, 1, 36, 92
1, 68637, Note_on_c, 9, 38, 122
1, 68638, Note_on_c, 9, 24, 57
1, 68642, Note_on_c, 3, 58, 100
1, 68642, Note_on_c, 9, 42, 100
1, 68642, Lyric_t, "a "
1, 68644, Note_on_c, 15, 57, 92
1, 68645, Note_on_c, 15, 55, 100
1, 68645, Note_on_c, 15, 48, 86
1, 68691, Note_off_c, 9, 38, 64
1, 68692, Note_off_c, 15, 55, 64
1, 68695, Note_off_c, 15, 57, 64
1, 68702, Note_off_c, 9, 24, 64
1, 68702, Note_off_c, 15, 48, 64
1, 68704, Note_off_c, 9, 42, 64
1, 68824, Note_off_c, 1, 36, 64
1, 68852, Note_off_c, 3, 58, 64
1, 68874, Note_on_c, 1, 36, 100
1, 68877, Note_on_c, 9, 24, 45
1, 68879, Note_on_c, 3, 60, 92
1, 68879, Lyric_t, "whis"
1, 68884, Note_on_c, 9, 42, 100
1, 68887, Note_on_c, 15, 48, 80
1, 68888, Note_on_c, 15, 57, 89
1, 68888, Note_on_c, 15, 55, 89
1, 68932, Note_off_c, 15, 57, 64
1, 68933, Note_off_c, 15, 55, 64
1, 68934, Note_off_c, 9, 24, 64
1, 68934, Note_off_c, 9, 42, 64
1, 68940, Note_off_c, 15, 48, 64
1, 68998, Note_on_c, 9, 24, 44
1, 68998, Note_on_c, 9, 36, 110
1, 69005, Note_on_c, 9, 42, 89
1, 69005, Note_on_c, 15, 57, 89
1, 69006, Note_on_c, 15, 48, 80
1, 69007, Note_on_c, 15, 55, 89
1, 69047, Note_off_c, 9, 36, 64
1, 69049, Note_off_c, 9, 42, 64
1, 69051, Note_off_c, 15, 55, 64
1, 69056, Note_off_c, 1, 36, 64
1, 69056, Note_off_c, 15, 57, 64
1, 69057, Note_off_c, 15, 48, 64
1, 69059, Note_off_c, 9, 24, 64
1, 69109, Pitch_bend_c, 3, 6447
1, 69114, Note_on_c, 1, 36, 100
1, 69114, Note_on_c, 15, 48, 83
1, 69115, Note_on_c, 9, 35, 115
1, 69115, Note_on_c, 15, 57, 96
1, 69116, Note_on_c, 8, 74, 80
1, 69116, Note_on_c, 15, 55, 92
1, 69119, Note_off_c, 3, 60, 64
1, 69120, Pitch_bend_c, 3, 3337
1, 69124, Note_on_c, 9, 42, 105
1, 69127, Note_on_c, 3, 62, 105
1, 69127, Lyric_t, "per "
1, 69131, Pitch_bend_c, 3, 1365
1, 69144, Note_off_c, 8, 76, 64
1, 69153, Pitch_bend_c, 3, 1668
1, 69159, Note_off_c, 15, 55, 64
1, 69164, Pitch_bend_c, 3, 2806
1, 69164, Note_off_c, 15, 57, 64
1, 69172, Note_off_c, 9, 35, 64
1, 69175, Note_off_c, 15, 48, 64
1, 69176, Pitch_bend_c, 3, 4930
1, 69185, Note_off_c, 9, 42, 64
1, 69187, Pitch_bend_c, 3, 8192
1, 69227, Note_off_c, 2, 57, 64
1, 69235, Note_on_c, 9, 24, 49
1, 69289, Note_off_c, 9, 24, 64
1, 69305, Note_off_c, 1, 36, 64
1, 69345, Note_on_c, 2, 57, 75
1, 69353, Note_on_c, 9, 35, 122
1, 69356, Note_on_c, 1, 36, 100
1, 69360, Note_on_c, 9, 24, 40
1, 69360, Note_on_c, 15, 57, 89
1, 69361, Note_on_c, 15, 48, 86
1, 69362, Note_on_c, 9, 42, 96
1, 69362, Note_on_c, 15, 55, 96
1, 69403, Note_off_c, 15, 57, 64
1, 69404, Note_off_c, 15, 55, 64
1, 69408, Note_off_c, 9, 24, 64
1, 69416, Note_off_c, 9, 35, 64
1, 69418, Note_off_c, 15, 48, 64
1, 69421, Note_off_c, 9, 42, 64
1, 69550, Note_off_c, 1, 36, 64
1, 69584, Note_on_c, 7, 65, 83
1, 69587, Note_off_c, 7, 64, 64
1, 69593, Note_on_c, 9, 24, 66
1, 69596, Note_on_c, 1, 36, 96
1, 69596, Note_on_c, 9, 38, 122
1, 69599, Note_on_c, 15, 57, 96
1, 69600, Note_on_c, 9, 42, 105
1, 69601, Note_on_c, 15, 48, 83
1, 69602, Note_on_c, 15, 55, 100
1, 69633, Control_c, 3, 1, 11
1, 69642, Note_off_c, 15, 55, 64
1, 69646, Note_off_c, 15, 57, 64
1, 69651, Note_off_c, 9, 38, 64
1, 69652, Note_off_c, 15, 48, 64
1, 69655, Note_off_c, 9, 24, 64
1, 69666, Control_c, 3, 1, 24
1, 69677, Note_off_c, 9, 42, 64
1, 69700, Control_c, 3, 1, 46
1, 69733, Control_c, 3, 1, 66
1, 69749, Note_off_c, 2, 62, 64
1, 69784, Note_off_c, 1, 36, 64
1, 69811, Control_c, 3, 1, 0
1, 69827, Note_off_c, 3, 62, 64
1, 69833, Note_on_c, 2, 62, 73
1, 69834, Note_on_c, 1, 36, 92
1, 69836, Note_on_c, 9, 24, 42
1, 69837, Note_on_c, 15, 57, 92
1, 69838, Note_on_c, 15, 55, 96
1, 69839, Note_on_c, 9, 42, 96
1, 69839, Note_on_c, 15, 48, 83
1, 69844, Note_on_c, 3, 57, 105
1, 69844, Lyric_t, "of "
1, 69886, Note_off_c, 15, 57, 64
1, 69887, Note_off_c, 15, 55, 64
1, 69888, Note_off_c, 9, 24, 64
1, 69895, Note_off_c, 15, 48, 64
1, 69901, Note_off_c, 9, 42, 64
1, 69957, Note_on_c, 9, 35, 122
1, 69958, Note_on_c, 9, 24, 55
1, 69960, Note_on_c, 9, 42, 89
1, 70008, Note_off_c, 9, 24, 64
1, 70012, Note_off_c, 9, 42, 64
1, 70017, Note_off_c, 1, 36, 64
1, 70023, Note_off_c, 9, 35, 64
1, 70075, Note_on_c, 1, 36, 89
1, 70081, Note_on_c, 9, 42, 105
1, 70085, Note_on_c, 15, 57, 92
1, 70085, Note_on_c, 15, 48, 83
1, 70086, Note_on_c, 15, 55, 96
1, 70126, Note_off_c, 15, 55, 64
1, 70126, Note_off_c, 15, 57, 64
1, 70133, Note_off_c, 15, 48, 64
1, 70144, Control_c, 3, 1, 6
1, 70161, Note_off_c, 9, 42, 64
1, 70189, Control_c, 3, 1, 19
1, 70198, Note_on_c, 9, 24, 47
1, 70199, Note_on_c, 15, 57, 89
1, 70199, Note_on_c, 15, 55, 89
1, 70200, Note_on_c, 15, 48, 73
1, 70233, Control_c, 3, 1, 32
1, 70245, Note_off_c, 15, 57, 64
1, 70248, Note_off_c, 15, 55, 64
1, 70250, Note_off_c, 9, 24, 64
1, 70250, Note_off_c, 15, 48, 64
1, 70265, Note_off_c, 1, 36, 64
1, 70267, Control_c, 3, 1, 37
1, 70311, Control_c, 3, 1, 53
1, 70313, Note_on_c, 1, 36, 92
1, 70316, Note_on_c, 7, 67, 83
1, 70318, Note_on_c, 15, 55, 89
1, 70318, Note_on_c, 15, 48, 77
1, 70319, Note_on_c, 15, 57, 89
1, 70321, Note_on_c, 9, 35, 122
1, 70321, Note_on_c, 9, 42, 96
1, 70354, Note_off_c, 7, 65, 64
1, 70355, Control_c, 3, 1, 69
1, 70364, Note_off_c, 15, 57, 64
1, 70375, Note_off_c, 15, 48, 64
1, 70375, Note_off_c, 15, 55, 64
1, 70383, Note_off_c, 9, 42, 64
1, 70386, Note_off_c, 9, 35, 64
1, 70422, Control_c, 3, 1, 0
1, 70436, Note_on_c, 9, 24, 40
1, 70458, Note_off_c, 2, 48, 64
1, 70459, Note_off_c, 2, 36, 64
1, 70484, Note_off_c, 9, 24, 64
1, 70485, Note_off_c, 2, 62, 64
1, 70491, Note_off_c, 3, 57, 64
1, 70492, Note_off_c, 2, 57, 64
1, 70507, Note_off_c, 2, 64, 64
1, 70509, Note_off_c, 1, 36, 64
1, 70550, Note_on_c, 3, 55, 96
1, 70550, Lyric_t, "the "
1, 70554, Note_on_c, 15, 57, 96
1, 70555, Note_on_c, 1, 36, 96
1, 70556, Note_on_c, 9, 24, 55
1, 70556, Note_on_c, 15, 55, 96
1, 70557, Note_on_c, 15, 48, 80
1, 70558, Note_on_c, 9, 38, 122
1, 70559, Note_on_c, 9, 42, 105
1, 70605, Note_off_c, 15, 55, 64
1, 70609, Note_off_c, 15, 57, 64
1, 70611, Note_off_c, 15, 48, 64
1, 70613, Note_off_c, 9, 38, 64
1, 70619, Note_off_c, 9, 24, 64
1, 70629, Note_off_c, 9, 42, 64
1, 70754, Note_off_c, 1, 36, 64
1, 70766, Pitch_bend_c, 3, 7736
1, 70777, Pitch_bend_c, 3, 5916
1, 70788, Pitch_bend_c, 3, 3565
1, 70793, Note_off_c, 3, 55, 64
1, 70795, Note_on_c, 9, 24, 51
1, 70798, Note_on_c, 1, 36, 96
1, 70799, Pitch_bend_c, 3, 2048
1, 70799, Note_on_c, 9, 42, 100
1, 70800, Note_on_c, 15, 48, 80
1, 70801, Note_on_c, 3, 57, 110
1, 70801, Note_on_c, 15, 57, 92
1, 70801, Lyric_t, "life\015"
1, 70802, Note_on_c, 15, 55, 89
1, 70821, Pitch_bend_c, 3, 2503
1, 70832, Pitch_bend_c, 3, 3868
1, 70844, Pitch_bend_c, 3, 6750
1, 70846, Note_off_c, 9, 24, 64
1, 70846, Note_off_c, 15, 55, 64
1, 70846, Note_off_c, 15, 57, 64
1, 70854, Note_off_c, 15, 48, 64
1, 70855, Pitch_bend_c, 3, 8192
1, 70870, Note_off_c, 9, 42, 64
1, 70917, Note_on_c, 9, 24, 44
1, 70919, Note_on_c, 9, 36, 110
1, 70919, Note_on_c, 15, 48, 77
1, 70920, Note_on_c, 15, 57, 89
1, 70920, Note_on_c, 15, 55, 89
1, 70921, Note_on_c, 9, 42, 89
1, 70963, Note_off_c, 9, 36, 64
1, 70965, Note_off_c, 1, 36, 64
1, 70966, Note_off_c, 9, 42, 64
1, 70969, Note_off_c, 15, 55, 64
1, 70969, Note_off_c, 15, 57, 64
1, 70972, Note_off_c, 15, 48, 64
1, 70976, Note_off_c, 9, 24, 64
1, 71011, Control_c, 2, 64, 0
1, 71026, Note_off_c, 7, 60, 64
1, 71028, Note_off_c, 7, 57, 64
1, 71028, Note_on_c, 15, 46, 86
1, 71033, Note_on_c, 15, 55, 73
1, 71034, Note_on_c, 2, 34, 77
1, 71034, Note_on_c, 15, 53, 83
1, 71035, Note_on_c, 1, 34, 100
1, 71035, Note_on_c, 2, 46, 86
1, 71035, Note_on_c, 8, 67, 100
1, 71036, Note_off_c, 7, 67, 64
1, 71036, Note_on_c, 9, 35, 122
1, 71037, Note_on_c, 7, 58, 63
1, 71038, Note_on_c, 7, 46, 65
1, 71039, Note_on_c, 7, 67, 83
1, 71040, Note_on_c, 7, 62, 77
1, 71040, Note_on_c, 9, 42, 105
1, 71043, Note_off_c, 7, 48, 64
1, 71045, Note_off_c, 8, 74, 64
1, 71074, Note_off_c, 15, 53, 64
1, 71083, Note_off_c, 15, 46, 64
1, 71090, Note_off_c, 15, 55, 64
1, 71100, Note_off_c, 9, 35, 64
1, 71106, Note_off_c, 9, 42, 64
1, 71154, Note_on_c, 9, 24, 53
1, 71167, Control_c, 3, 1, 4
1, 71201, Control_c, 3, 1, 16
1, 71220, Note_off_c, 9, 24, 64
1, 71228, Note_off_c, 1, 34, 64
1, 71234, Control_c, 3, 1, 29
1, 71267, Control_c, 3, 1, 42
1, 71272, Note_on_c, 15, 46, 83
1, 71275, Note_on_c, 2, 55, 89
1, 71275, Note_on_c, 15, 55, 75
1, 71276, Note_on_c, 1, 34, 92
1, 71276, Note_on_c, 9, 24, 42
1, 71277, Note_on_c, 9, 35, 127
1, 71277, Note_on_c, 15, 53, 83
1, 71279, Note_on_c, 9, 42, 96
1, 71280, Control_c, 2, 64, 127
1, 71301, Control_c, 3, 1, 54
1, 71323, Note_off_c, 15, 53, 64
1, 71325, Note_off_c, 15, 46, 64
1, 71333, Note_off_c, 9, 42, 64
1, 71340, Note_off_c, 9, 35, 64
1, 71342, Note_off_c, 15, 55, 64
1, 71345, Control_c, 3, 1, 66
1, 71376, Note_off_c, 9, 24, 64
1, 71401, Control_c, 3, 1, 54
1, 71434, Control_c, 3, 1, 0
1, 71439, Note_off_c, 3, 57, 64
1, 71465, Note_off_c, 1, 34, 64
1, 71510, Note_on_c, 15, 46, 86
1, 71514, Note_on_c, 15, 55, 73
1, 71514, Note_on_c, 15, 53, 86
1, 71515, Note_on_c, 1, 34, 96
1, 71516, Note_on_c, 9, 24, 60
1, 71517, Note_on_c, 2, 62, 96
1, 71519, Note_on_c, 9, 38, 122
1, 71520, Note_on_c, 9, 42, 105
1, 71559, Note_off_c, 15, 53, 64
1, 71566, Note_off_c, 15, 46, 64
1, 71571, Note_off_c, 9, 24, 64
1, 71573, Note_off_c, 9, 38, 64
1, 71579, Note_off_c, 15, 55, 64
1, 71590, Note_off_c, 9, 42, 64
1, 71707, Note_off_c, 1, 34, 64
1, 71754, Note_on_c, 2, 67, 105
1, 71755, Note_on_c, 15, 46, 86
1, 71757, Note_on_c, 1, 34, 96
1, 71757, Note_on_c, 9, 24, 38
1, 71758, Note_on_c, 15, 55, 73
1, 71759, Note_on_c, 15, 53, 86
1, 71760, Note_on_c, 9, 42, 96
1, 71800, Note_off_c, 15, 53, 64
1, 71810, Note_off_c, 9, 24, 64
1, 71814, Note_off_c, 15, 46, 64
1, 71816, Note_off_c, 9, 42, 64
1, 71816, Note_off_c, 15, 55, 64
1, 71875, Note_on_c, 9, 35, 127
1, 71877, Note_on_c, 9, 24, 53
1, 71881, Note_on_c, 9, 42, 92
1, 71924, Note_off_c, 9, 24, 64
1, 71930, Note_off_c, 9, 42, 64
1, 71938, Note_off_c, 9, 35, 64
1, 71949, Note_off_c, 1, 34, 64
1, 71992, Note_off_c, 7, 67, 64
1, 71996, Note_on_c, 1, 34, 96
1, 72000, Note_on_c, 9, 42, 105
1, 72000, Note_on_c, 15, 46, 75
1, 72004, Note_on_c, 15, 53, 80
1, 72005, Note_on_c, 15, 55, 69
1, 72067, Note_off_c, 15, 53, 64
1, 72068, Note_off_c, 9, 42, 64
1, 72070, Note_off_c, 15, 55, 64
1, 72074, Note_off_c, 15, 46, 64
1, 72117, Note_on_c, 9, 24, 57
1, 72119, Note_on_c, 15, 46, 65
1, 72122, Note_on_c, 15, 55, 67
1, 72123, Note_on_c, 15, 53, 75
1, 72145, Note_off_c, 2, 67, 64
1, 72162, Note_off_c, 9, 24, 64
1, 72175, Note_off_c, 15, 53, 64
1, 72180, Note_off_c, 15, 55, 64
1, 72181, Note_off_c, 15, 46, 64
1, 72188, Note_off_c, 1, 34, 64
1, 72232, Note_on_c, 8, 65, 89
1, 72234, Note_on_c, 2, 65, 105
1, 72234, Note_on_c, 15, 46, 67
1, 72235, Note_on_c, 15, 53, 77
1, 72236, Note_on_c, 15, 55, 67
1, 72237, Note_on_c, 1, 34, 96
1, 72240, Note_on_c, 9, 42, 100
1, 72240, Note_on_c, 9, 35, 122
1, 72257, Note_off_c, 8, 67, 64
1, 72298, Note_off_c, 15, 53, 64
1, 72299, Note_off_c, 9, 42, 64
1, 72299, Note_off_c, 15, 55, 64
1, 72300, Note_off_c, 15, 46, 64
1, 72305, Note_off_c, 9, 35, 64
1, 72357, Note_on_c, 9, 24, 43
1, 72408, Note_off_c, 9, 24, 64
1, 72424, Note_off_c, 1, 34, 64
1, 72476, Note_on_c, 1, 34, 100
1, 72477, Note_on_c, 15, 46, 86
1, 72478, Note_on_c, 9, 24, 55
1, 72479, Note_on_c, 15, 53, 83
1, 72480, Note_on_c, 9, 38, 122
1, 72480, Note_on_c, 9, 42, 110
1, 72480, Note_on_c, 15, 55, 75
1, 72481, Note_on_c, 3, 53, 105
1, 72481, Lyric_t, "that "
1, 72530, Note_off_c, 9, 24, 64
1, 72531, Note_off_c, 15, 53, 64
1, 72533, Note_off_c, 2, 46, 64
1, 72534, Note_off_c, 9, 38, 64
1, 72534, Note_off_c, 15, 46, 64
1, 72542, Note_off_c, 15, 55, 64
1, 72543, Note_off_c, 2, 34, 64
1, 72548, Note_off_c, 9, 42, 64
1, 72593, Note_off_c, 2, 62, 64
1, 72644, Note_off_c, 1, 34, 64
1, 72684, Note_off_c, 3, 53, 64
1, 72694, Pitch_bend_c, 3, 6599
1, 72706, Pitch_bend_c, 3, 4096
1, 72708, Note_on_c, 2, 62, 100
1, 72713, Note_on_c, 1, 31, 92
1, 72717, Pitch_bend_c, 3, 2427
1, 72719, Note_on_c, 9, 24, 41
1, 72719, Note_on_c, 9, 42, 100
1, 72719, Note_on_c, 15, 46, 77
1, 72722, Note_on_c, 3, 57, 110
1, 72722, Note_on_c, 15, 55, 75
1, 72722, Lyric_t, "we "
1, 72723, Note_on_c, 15, 53, 83
1, 72728, Pitch_bend_c, 3, 1972
1, 72750, Pitch_bend_c, 3, 2654
1, 72761, Pitch_bend_c, 3, 3565
1, 72768, Note_off_c, 9, 24, 64
1, 72772, Pitch_bend_c, 3, 5157
1, 72781, Note_off_c, 9, 42, 64
1, 72782, Note_off_c, 15, 53, 64
1, 72783, Pitch_bend_c, 3, 7964
1, 72785, Note_off_c, 15, 46, 64
1, 72787, Note_off_c, 15, 55, 64
1, 72795, Pitch_bend_c, 3, 8192
1, 72819, Control_c, 2, 64, 0
1, 72836, Note_on_c, 15, 46, 62
1, 72837, Note_on_c, 15, 55, 77
1, 72838, Note_on_c, 9, 24, 47
1, 72839, Note_on_c, 15, 53, 80
1, 72840, Note_on_c, 9, 36, 110
1, 72840, Note_on_c, 9, 42, 96
1, 72852, Note_off_c, 2, 55, 64
1, 72884, Note_off_c, 15, 53, 64
1, 72893, Note_off_c, 9, 36, 64
1, 72894, Note_off_c, 9, 42, 64
1, 72896, Note_off_c, 9, 24, 64
1, 72896, Note_off_c, 15, 46, 64
1, 72897, Note_off_c, 15, 55, 64
1, 72899, Note_off_c, 1, 31, 64
1, 72918, Note_off_c, 7, 58, 64
1, 72930, Note_off_c, 7, 46, 64
1, 72941, Note_on_c, 7, 45, 71
1, 72944, Note_on_c, 2, 33, 71
1, 72946, Note_on_c, 2, 45, 71
1, 72948, Note_on_c, 7, 57, 69
1, 72950, Note_on_c, 1, 33, 105
1, 72950, Note_on_c, 8, 62, 83
1, 72951, Note_off_c, 8, 65, 64
1, 72958, Note_on_c, 9, 35, 122
1, 72960, Note_on_c, 15, 45, 83
1, 72961, Note_on_c, 9, 42, 105
1, 72961, Note_on_c, 15, 53, 96
1, 72961, Note_on_c, 15, 57, 92
1, 73010, Note_off_c, 15, 53, 64
1, 73014, Note_off_c, 15, 45, 64
1, 73016, Note_off_c, 9, 35, 64
1, 73027, Note_off_c, 15, 57, 64
1, 73029, Note_off_c, 9, 42, 64
1, 73076, Note_on_c, 9, 24, 43
1, 73125, Control_c, 2, 64, 127
1, 73127, Note_off_c, 9, 24, 64
1, 73151, Note_off_c, 1, 33, 64
1, 73152, Control_c, 3, 1, 4
1, 73194, Note_on_c, 9, 24, 43
1, 73196, Note_on_c, 2, 57, 73
1, 73196, Control_c, 3, 1, 16
1, 73197, Note_on_c, 9, 35, 127
1, 73198, Note_on_c, 1, 33, 100
1, 73198, Note_on_c, 9, 42, 100
1, 73202, Note_on_c, 15, 53, 92
1, 73203, Note_on_c, 15, 57, 86
1, 73203, Note_on_c, 15, 45, 86
1, 73241, Control_c, 3, 1, 34
1, 73246, Note_off_c, 9, 42, 64
1, 73253, Note_off_c, 15, 53, 64
1, 73256, Note_off_c, 2, 62, 64
1, 73260, Note_off_c, 15, 45, 64
1, 73263, Note_off_c, 9, 35, 64
1, 73267, Note_off_c, 15, 57, 64
1, 73270, Note_off_c, 9, 24, 64
1, 73274, Control_c, 3, 1, 49
1, 73307, Control_c, 3, 1, 59
1, 73341, Control_c, 3, 1, 46
1, 73367, Note_off_c, 1, 33, 64
1, 73374, Control_c, 3, 1, 0
1, 73430, Note_off_c, 3, 57, 64
1, 73431, Note_on_c, 1, 33, 96
1, 73434, Note_on_c, 9, 24, 60
1, 73436, Note_on_c, 2, 62, 92
1, 73438, Note_on_c, 9, 38, 122
1, 73439, Note_on_c, 9, 42, 105
1, 73446, Note_on_c, 15, 45, 83
1, 73447, Note_on_c, 15, 57, 86
1, 73447, Note_on_c, 15, 53, 96
1, 73449, Note_on_c, 3, 55, 105
1, 73449, Lyric_t, "cre"
1, 73493, Note_off_c, 9, 38, 64
1, 73494, Note_off_c, 9, 24, 64
1, 73497, Note_off_c, 15, 53, 64
1, 73502, Note_off_c, 15, 45, 64
1, 73505, Note_off_c, 9, 42, 64
1, 73510, Note_off_c, 15, 57, 64
1, 73563, Note_off_c, 2, 65, 64
1, 73619, Note_off_c, 1, 33, 64
1, 73671, Note_on_c, 1, 33, 105
1, 73673, Note_on_c, 2, 65, 105
1, 73675, Note_on_c, 9, 24, 41
1, 73680, Note_on_c, 9, 42, 100
1, 73688, Note_on_c, 15, 45, 77
1, 73689, Note_on_c, 3, 53, 110
1, 73689, Note_on_c, 15, 57, 80
1, 73689, Lyric_t, "at"
1, 73690, Note_on_c, 15, 53, 86
1, 73694, Note_off_c, 3, 55, 64
1, 73722, Note_off_c, 15, 53, 64
1, 73733, Note_off_c, 15, 57, 64
1, 73734, Note_off_c, 9, 24, 64
1, 73740, Note_off_c, 15, 45, 64
1, 73747, Note_off_c, 9, 42, 64
1, 73793, Note_on_c, 9, 35, 122
1, 73797, Note_on_c, 9, 24, 51
1, 73800, Note_on_c, 9, 42, 89
1, 73801, Note_on_c, 15, 57, 71
1, 73803, Note_on_c, 15, 45, 75
1, 73804, Note_on_c, 15, 53, 89
1, 73847, Note_off_c, 9, 24, 64
1, 73848, Note_off_c, 15, 53, 64
1, 73850, Note_off_c, 15, 57, 64
1, 73855, Note_off_c, 15, 45, 64
1, 73858, Note_off_c, 1, 33, 64
1, 73858, Note_off_c, 9, 42, 64
1, 73860, Note_off_c, 9, 35, 64
1, 73860, Control_c, 11, 7, 75
1, 73860, Control_c, 12, 7, 17
1, 73913, Note_on_c, 1, 33, 105
1, 73917, Note_on_c, 7, 64, 83
1, 73917, Note_on_c, 8, 64, 83
1, 73918, Note_on_c, 10, 88, 75
1, 73919, Control_c, 3, 1, 9
1, 73920, Note_on_c, 9, 42, 105
1, 73920, Control_c, 11, 7, 74
1, 73920, Control_c, 12, 7, 17
1, 73925, Note_on_c, 15, 52, 86
1, 73926, Note_on_c, 15, 45, 77
1, 73927, Note_on_c, 15, 57, 77
1, 73941, Note_off_c, 8, 62, 64
1, 73944, Note_off_c, 10, 86, 64
1, 73961, Note_off_c, 15, 57, 64
1, 73963, Control_c, 3, 1, 24
1, 73967, Note_off_c, 15, 52, 64
1, 73975, Note_off_c, 15, 45, 64
1, 73980, Control_c, 11, 7, 73
1, 73980, Control_c, 12, 7, 18
1, 73996, Note_off_c, 9, 42, 64
1, 73997, Control_c, 3, 1, 41
1, 74030, Control_c, 3, 1, 54
1, 74035, Note_on_c, 9, 24, 45
1, 74040, Control_c, 11, 7, 72
1, 74040, Control_c, 12, 7, 19
1, 74042, Note_on_c, 15, 52, 92
1, 74043, Note_on_c, 15, 57, 80
1, 74043, Note_on_c, 15, 45, 83
1, 74082, Note_off_c, 9, 24, 64
1, 74085, Note_off_c, 15, 52, 64
1, 74086, Control_c, 3, 1, 39
1, 74087, Note_off_c, 2, 65, 64
1, 74087, Note_off_c, 15, 57, 64
1, 74092, Note_off_c, 15, 45, 64
1, 74098, Note_off_c, 2, 62, 64
1, 74100, Control_c, 11, 7, 71
1, 74100, Control_c, 12, 7, 19
1, 74103, Note_off_c, 1, 33, 64
1, 74119, Control_c, 3, 1, 0
1, 74153, Note_on_c, 1, 33, 105
1, 74158, Note_on_c, 9, 35, 122
1, 74160, Note_on_c, 2, 64, 105
1, 74160, Note_on_c, 9, 42, 100
1, 74160, Control_c, 11, 7, 70
1, 74160, Control_c, 12, 7, 20
1, 74161, Note_on_c, 15, 57, 80
1, 74162, Note_on_c, 15, 52, 92
1, 74162, Note_on_c, 15, 45, 83
1, 74164, Note_on_c, 3, 55, 100
1, 74164, Lyric_t, "ed.\015"
1, 74172, Note_off_c, 3, 53, 64
1, 74214, Note_off_c, 9, 42, 64
1, 74220, Control_c, 11, 7, 69
1, 74220, Control_c, 12, 7, 21
1, 74225, Note_off_c, 15, 45, 64
1, 74225, Note_off_c, 15, 52, 64
1, 74228, Note_off_c, 9, 35, 64
1, 74235, Note_off_c, 15, 57, 64
1, 74277, Note_on_c, 9, 24, 45
1, 74280, Control_c, 11, 7, 68
1, 74280, Control_c, 12, 7, 22
1, 74330, Note_off_c, 9, 24, 64
1, 74337, Note_off_c, 1, 33, 64
1, 74340, Control_c, 11, 7, 67
1, 74340, Control_c, 12, 7, 22
1, 74391, Note_on_c, 1, 33, 105
1, 74397, Note_on_c, 9, 24, 57
1, 74397, Note_on_c, 9, 38, 122
1, 74400, Note_on_c, 9, 42, 105
1, 74400, Control_c, 11, 7, 66
1, 74400, Control_c, 12, 7, 23
1, 74406, Note_on_c, 15, 57, 89
1, 74407, Note_on_c, 15, 45, 86
1, 74408, Note_on_c, 15, 52, 96
1, 74420, Control_c, 3, 1, 1
1, 74447, Note_off_c, 15, 52, 64
1, 74450, Note_off_c, 9, 24, 64
1, 74450, Note_off_c, 9, 38, 64
1, 74453, Control_c, 3, 1, 16
1, 74457, Note_off_c, 9, 42, 64
1, 74459, Note_off_c, 15, 45, 64
1, 74460, Control_c, 11, 7, 65
1, 74460, Control_c, 12, 7, 23
1, 74472, Note_off_c, 2, 45, 64
1, 74478, Note_off_c, 2, 33, 64
1, 74480, Note_off_c, 15, 57, 64
1, 74485, Note_off_c, 2, 57, 64
1, 74485, Note_off_c, 2, 64, 64
1, 74486, Control_c, 3, 1, 34
1, 74520, Control_c, 3, 1, 44
1, 74520, Control_c, 11, 7, 64
1, 74520, Control_c, 12, 7, 24
1, 74560, Note_off_c, 3, 55, 64
1, 74565, Control_c, 3, 1, 36
1, 74580, Control_c, 11, 7, 63
1, 74580, Control_c, 12, 7, 25
1, 74590, Note_off_c, 1, 33, 64
1, 74597, Control_c, 3, 1, 0
1, 74634, Note_on_c, 1, 33, 96
1, 74638, Note_on_c, 9, 24, 53
1, 74640, Control_c, 11, 7, 62
1, 74640, Control_c, 12, 7, 26
1, 74641, Note_on_c, 9, 42, 100
1, 74646, Note_on_c, 15, 45, 86
1, 74647, Note_on_c, 15, 52, 96
1, 74648, Note_on_c, 15, 57, 92
1, 74693, Note_off_c, 9, 24, 64
1, 74695, Note_off_c, 15, 52, 64
1, 74698, Note_off_c, 9, 42, 64
1, 74700, Control_c, 11, 7, 61
1, 74700, Control_c, 12, 7, 26
1, 74700, Note_off_c, 15, 45, 64
1, 74709, Note_off_c, 15, 57, 64
1, 74759, Note_on_c, 9, 36, 110
1, 74759, Note_on_c, 9, 42, 105
1, 74760, Note_on_c, 9, 24, 49
1, 74760, Control_c, 11, 7, 60
1, 74760, Control_c, 12, 7, 27
1, 74792, Note_off_c, 9, 42, 64
1, 74796, Note_off_c, 9, 24, 64
1, 74811, Note_off_c, 9, 36, 64
1, 74820, Control_c, 11, 7, 59
1, 74820, Control_c, 12, 7, 28
1, 74829, Note_off_c, 1, 33, 64
1, 74842, Note_off_c, 10, 88, 64
1, 74856, Note_off_c, 8, 64, 64
1, 74871, Control_c, 2, 64, 0
1, 74872, Note_on_c, 1, 31, 115
1, 74874, Note_on_c, 7, 43, 69
1, 74874, Note_on_c, 7, 67, 80
1, 74875, Note_on_c, 7, 58, 73
1, 74876, Note_on_c, 9, 35, 122
1, 74877, Note_on_c, 7, 62, 86
1, 74879, Control_c, 7, 7, 72
1, 74879, Control_c, 8, 7, 0
1, 74879, Note_on_c, 9, 42, 110
1, 74879, Control_c, 10, 7, 60
1, 74880, Note_on_c, 2, 58, 80
1, 74880, Control_c, 10, 7, 60
1, 74880, Control_c, 11, 7, 58
1, 74880, Control_c, 12, 7, 29
1, 74880, Note_on_c, 15, 50, 86
1, 74881, Note_on_c, 3, 62, 110
1, 74881, Note_on_c, 10, 67, 67
1, 74881, Note_on_c, 11, 70, 73
1, 74881, Lyric_t, "Shad"
1, 74882, Note_on_c, 2, 55, 67
1, 74882, Note_on_c, 11, 67, 75
1, 74882, Note_on_c, 15, 57, 92
1, 74883, Note_on_c, 2, 43, 73
1, 74883, Note_on_c, 2, 62, 86
1, 74883, Note_on_c, 11, 79, 83
1, 74883, Note_on_c, 11, 74, 86
1, 74883, Note_on_c, 15, 55, 100
1, 74884, Note_on_c, 2, 65, 86
1, 74884, Note_off_c, 7, 62, 64
1, 74884, Note_on_c, 12, 43, 122
1, 74885, Note_on_c, 10, 79, 89
1, 74890, Note_off_c, 7, 64, 64
1, 74893, Note_off_c, 7, 57, 64
1, 74904, Note_off_c, 7, 45, 64
1, 74926, Note_off_c, 15, 57, 64
1, 74931, Note_off_c, 15, 55, 64
1, 74936, Note_off_c, 9, 35, 64
1, 74944, Note_off_c, 15, 50, 64
1, 74953, Note_off_c, 9, 42, 64
1, 74999, Note_on_c, 9, 24, 51
1, 75067, Note_off_c, 9, 24, 64
1, 75092, Control_c, 2, 64, 127
1, 75103, Control_c, 3, 1, 7
1, 75116, Note_on_c, 9, 35, 122
1, 75117, Note_on_c, 9, 24, 43
1, 75120, Note_on_c, 9, 42, 96
1, 75127, Note_on_c, 15, 57, 96
1, 75129, Note_on_c, 15, 50, 83
1, 75129, Note_on_c, 15, 55, 92
1, 75131, Note_on_c, 2, 69, 89
1, 75158, Control_c, 3, 1, 17
1, 75170, Note_off_c, 15, 55, 64
1, 75174, Note_off_c, 9, 35, 64
1, 75175, Note_off_c, 15, 57, 64
1, 75176, Note_off_c, 9, 42, 64
1, 75177, Note_off_c, 9, 24, 64
1, 75186, Note_off_c, 15, 50, 64
1, 75214, Control_c, 3, 1, 29
1, 75258, Control_c, 3, 1, 39
1, 75303, Control_c, 3, 1, 49
1, 75336, Control_c, 3, 1, 59
1, 75356, Note_on_c, 9, 24, 51
1, 75360, Note_on_c, 9, 38, 122
1, 75361, Note_on_c, 9, 42, 100
1, 75370, Control_c, 3, 1, 64
1, 75372, Note_on_c, 15, 57, 89
1, 75373, Note_on_c, 15, 55, 89
1, 75373, Note_on_c, 15, 50, 83
1, 75407, Note_off_c, 9, 24, 64
1, 75414, Note_off_c, 9, 38, 64
1, 75414, Note_off_c, 15, 55, 64
1, 75415, Note_off_c, 15, 57, 64
1, 75416, Note_off_c, 9, 42, 64
1, 75419, Note_off_c, 15, 50, 64
1, 75481, Control_c, 3, 1, 51
1, 75490, Note_on_c, 15, 57, 89
1, 75491, Note_on_c, 15, 55, 89
1, 75492, Note_on_c, 15, 50, 71
1, 75514, Control_c, 3, 1, 16
1, 75530, Note_off_c, 2, 69, 64
1, 75531, Note_off_c, 15, 55, 64
1, 75534, Note_off_c, 15, 57, 64
1, 75540, Note_off_c, 15, 50, 64
1, 75547, Control_c, 3, 1, 0
1, 75573, Note_off_c, 2, 65, 64
1, 75597, Note_on_c, 9, 24, 41
1, 75601, Note_on_c, 9, 42, 89
1, 75602, Pitch_bend_c, 3, 8116
1, 75606, Note_on_c, 15, 57, 89
1, 75607, Note_on_c, 15, 50, 67
1, 75607, Note_on_c, 15, 55, 89
1, 75609, Note_on_c, 3, 65, 110
1, 75609, Lyric_t, "ows "
1, 75611, Note_on_c, 2, 67, 86
1, 75613, Pitch_bend_c, 3, 6750
1, 75624, Pitch_bend_c, 3, 5840
1, 75633, Note_off_c, 3, 62, 64
1, 75646, Pitch_bend_c, 3, 6371
1, 75646, Note_off_c, 9, 24, 64
1, 75655, Note_off_c, 9, 42, 64
1, 75657, Pitch_bend_c, 3, 7964
1, 75658, Note_off_c, 15, 55, 64
1, 75661, Note_off_c, 15, 57, 64
1, 75665, Note_off_c, 15, 50, 64
1, 75669, Pitch_bend_c, 3, 8192
1, 75720, Note_on_c, 9, 24, 45
1, 75721, Note_on_c, 9, 35, 127
1, 75721, Note_on_c, 9, 42, 86
1, 75775, Note_off_c, 9, 42, 64
1, 75781, Note_off_c, 9, 24, 64
1, 75786, Note_off_c, 9, 35, 64
1, 75840, Note_on_c, 15, 57, 96
1, 75841, Note_on_c, 9, 42, 105
1, 75841, Note_on_c, 15, 50, 86
1, 75841, Note_on_c, 15, 55, 100
1, 75882, Note_off_c, 15, 55, 64
1, 75882, Note_off_c, 15, 57, 64
1, 75894, Note_off_c, 15, 50, 64
1, 75921, Note_off_c, 9, 42, 64
1, 75960, Note_on_c, 9, 24, 51
1, 76013, Note_off_c, 9, 24, 64
1, 76025, Control_c, 3, 1, 7
1, 76059, Control_c, 3, 1, 14
1, 76080, Note_on_c, 9, 35, 122
1, 76081, Note_off_c, 2, 67, 64
1, 76082, Note_on_c, 9, 42, 96
1, 76084, Note_on_c, 15, 57, 80
1, 76085, Note_on_c, 15, 55, 86
1, 76085, Note_on_c, 15, 50, 77
1, 76090, Note_on_c, 2, 69, 92
1, 76123, Note_off_c, 15, 57, 64
1, 76124, Note_off_c, 15, 55, 64
1, 76126, Control_c, 3, 1, 24
1, 76127, Note_off_c, 15, 50, 64
1, 76137, Note_off_c, 9, 42, 64
1, 76144, Note_off_c, 9, 35, 64
1, 76159, Control_c, 3, 1, 29
1, 76192, Control_c, 3, 1, 34
1, 76201, Note_on_c, 9, 24, 40
1, 76204, Note_on_c, 15, 57, 89
1, 76205, Note_on_c, 15, 55, 89
1, 76205, Note_on_c, 15, 50, 71
1, 76243, Note_off_c, 15, 55, 64
1, 76246, Note_off_c, 15, 57, 64
1, 76248, Control_c, 3, 1, 39
1, 76251, Note_off_c, 9, 24, 64
1, 76252, Note_off_c, 15, 50, 64
1, 76293, Control_c, 3, 1, 44
1, 76300, Control_c, 11, 7, 59
1, 76318, Note_on_c, 9, 38, 122
1, 76320, Note_on_c, 15, 57, 92
1, 76321, Note_on_c, 9, 24, 53
1, 76322, Note_on_c, 9, 42, 105
1, 76322, Note_on_c, 15, 50, 69
1, 76322, Note_on_c, 15, 55, 92
1, 76337, Control_c, 3, 1, 49
1, 76369, Note_off_c, 15, 55, 64
1, 76370, Control_c, 3, 1, 54
1, 76373, Note_off_c, 9, 38, 64
1, 76374, Note_off_c, 9, 24, 64
1, 76377, Note_off_c, 15, 57, 64
1, 76380, Note_off_c, 15, 50, 64
1, 76388, Note_off_c, 9, 42, 64
1, 76415, Control_c, 3, 1, 61
1, 76459, Control_c, 3, 1, 68
1, 76493, Control_c, 3, 1, 73
1, 76524, Note_off_c, 2, 69, 64
1, 76537, Control_c, 3, 1, 84
1, 76557, Note_on_c, 15, 50, 75
1, 76558, Note_on_c, 9, 24, 42
1, 76558, Note_on_c, 15, 57, 89
1, 76558, Note_on_c, 15, 55, 89
1, 76561, Note_on_c, 2, 65, 86
1, 76561, Note_on_c, 9, 42, 92
1, 76582, Control_c, 3, 1, 76
1, 76604, Note_off_c, 15, 57, 64
1, 76606, Note_off_c, 15, 55, 64
1, 76613, Note_off_c, 9, 42, 64
1, 76615, Control_c, 3, 1, 0
1, 76616, Note_off_c, 9, 24, 64
1, 76617, Note_off_c, 3, 65, 64
1, 76624, Note_off_c, 15, 50, 64
1, 76679, Note_on_c, 9, 24, 49
1, 76681, Note_on_c, 9, 42, 89
1, 76682, Note_on_c, 9, 36, 110
1, 76732, Note_off_c, 9, 42, 64
1, 76736, Note_off_c, 9, 24, 64
1, 76751, Note_off_c, 9, 36, 64
1, 76796, Note_on_c, 15, 57, 89
1, 76797, Note_on_c, 15, 50, 77
1, 76797, Note_on_c, 15, 55, 89
1, 76799, Note_on_c, 9, 35, 122
1, 76800, Tempo, 619337
1, 76800, Note_on_c, 3, 64, 115
1, 76800, Lyric_t, "fal"
1, 76801, Note_on_c, 9, 42, 105
1, 76838, Note_off_c, 15, 55, 64
1, 76843, Note_off_c, 15, 57, 64
1, 76844, Note_off_c, 15, 50, 64
1, 76881, Note_off_c, 9, 42, 64
1, 76889, Note_off_c, 9, 35, 64
1, 76915, Note_on_c, 15, 50, 71
1, 76916, Note_on_c, 15, 57, 92
1, 76916, Note_on_c, 15, 55, 89
1, 76917, Note_on_c, 9, 24, 49
1, 76956, Note_off_c, 15, 55, 64
1, 76961, Note_off_c, 15, 57, 64
1, 76966, Note_off_c, 15, 50, 64
1, 76977, Note_off_c, 9, 24, 64
1, 77026, Control_c, 3, 1, 1
1, 77033, Note_on_c, 15, 57, 86
1, 77034, Note_on_c, 15, 55, 86
1, 77035, Note_on_c, 15, 50, 73
1, 77037, Note_on_c, 2, 69, 92
1, 77037, Note_on_c, 9, 24, 45
1, 77040, Note_on_c, 9, 35, 127
1, 77041, Note_on_c, 9, 42, 92
1, 77054, Note_off_c, 2, 65, 64
1, 77071, Control_c, 3, 1, 11
1, 77088, Note_off_c, 15, 55, 64
1, 77089, Note_off_c, 15, 57, 64
1, 77090, Note_off_c, 9, 42, 64
1, 77096, Note_off_c, 15, 50, 64
1, 77103, Note_off_c, 9, 24, 64
1, 77104, Control_c, 3, 1, 17
1, 77116, Note_off_c, 9, 35, 64
1, 77137, Control_c, 3, 1, 22
1, 77152, Control_c, 11, 7, 59
1, 77182, Control_c, 3, 1, 32
1, 77226, Control_c, 3, 1, 37
1, 77259, Control_c, 3, 1, 42
1, 77273, Note_on_c, 15, 57, 92
1, 77273, Note_on_c, 15, 55, 100
1, 77274, Note_on_c, 15, 50, 86
1, 77276, Note_on_c, 9, 38, 122
1, 77280, Note_on_c, 9, 24, 47
1, 77281, Note_on_c, 9, 42, 105
1, 77293, Control_c, 3, 1, 48
1, 77319, Note_off_c, 15, 57, 64
1, 77326, Note_off_c, 15, 55, 64
1, 77326, Note_off_c, 15, 50, 64
1, 77327, Note_off_c, 9, 24, 64
1, 77335, Note_off_c, 9, 38, 64
1, 77348, Control_c, 3, 1, 58
1, 77357, Note_off_c, 9, 42, 64
1, 77393, Control_c, 3, 1, 71
1, 77471, Note_off_c, 2, 69, 64
1, 77471, Control_c, 3, 1, 53
1, 77504, Control_c, 3, 1, 0
1, 77516, Note_on_c, 15, 50, 75
1, 77517, Note_on_c, 15, 57, 77
1, 77517, Note_on_c, 15, 55, 83
1, 77519, Note_on_c, 9, 24, 44
1, 77520, Note_on_c, 9, 42, 86
1, 77522, Note_on_c, 3, 65, 105
1, 77522, Lyric_t, "ling.\012"
1, 77523, Note_on_c, 2, 67, 86
1, 77533, Note_off_c, 3, 64, 64
1, 77557, Note_off_c, 15, 57, 64
1, 77558, Note_off_c, 15, 55, 64
1, 77563, Note_off_c, 15, 50, 64
1, 77577, Note_off_c, 9, 24, 64
1, 77577, Note_off_c, 9, 42, 64
1, 77637, Note_on_c, 9, 35, 122
1, 77638, Note_on_c, 15, 55, 83
1, 77639, Note_on_c, 15, 50, 73
1, 77639, Note_on_c, 15, 57, 80
1, 77640, Note_on_c, 9, 24, 51
1, 77641, Note_on_c, 9, 42, 89
1, 77677, Note_off_c, 15, 57, 64
1, 77681, Note_off_c, 15, 55, 64
1, 77688, Note_off_c, 15, 50, 64
1, 77695, Note_off_c, 9, 24, 64
1, 77695, Note_off_c, 9, 42, 64
1, 77701, Note_off_c, 9, 35, 64
1, 77720, Control_c, 11, 7, 60
1, 77758, Note_on_c, 15, 57, 80
1, 77758, Note_on_c, 15, 55, 77
1, 77759, Note_on_c, 15, 50, 69
1, 77763, Note_on_c, 9, 42, 105
1, 77805, Note_off_c, 15, 57, 64
1, 77810, Note_off_c, 15, 55, 64
1, 77813, Note_off_c, 15, 50, 64
1, 77840, Note_off_c, 9, 42, 64
1, 77849, Control_c, 3, 1, 11
1, 77877, Note_on_c, 9, 24, 45
1, 77878, Note_on_c, 15, 55, 77
1, 77878, Note_on_c, 15, 57, 77
1, 77879, Note_on_c, 15, 50, 64
1, 77904, Control_c, 3, 1, 21
1, 77925, Note_off_c, 15, 57, 64
1, 77929, Note_off_c, 15, 55, 64
1, 77931, Note_off_c, 15, 50, 64
1, 77936, Note_off_c, 9, 24, 64
1, 77960, Control_c, 3, 1, 31
1, 77993, Control_c, 3, 1, 36
1, 77997, Note_on_c, 2, 69, 92
1, 77998, Note_on_c, 15, 50, 71
1, 77999, Note_on_c, 9, 35, 122
1, 77999, Note_on_c, 15, 57, 89
1, 78000, Note_on_c, 15, 55, 92
1, 78001, Note_on_c, 9, 42, 96
1, 78038, Control_c, 3, 1, 41
1, 78049, Note_off_c, 15, 55, 64
1, 78049, Note_off_c, 15, 57, 64
1, 78059, Note_off_c, 9, 35, 64
1, 78061, Note_off_c, 15, 50, 64
1, 78065, Note_off_c, 9, 42, 64
1, 78071, Control_c, 3, 1, 46
1, 78116, Note_on_c, 9, 24, 44
1, 78127, Control_c, 3, 1, 58
1, 78170, Note_off_c, 9, 24, 64
1, 78171, Control_c, 3, 1, 63
1, 78236, Note_on_c, 9, 38, 122
1, 78237, Note_on_c, 9, 24, 55
1, 78240, Note_on_c, 9, 42, 105
1, 78240, Note_on_c, 15, 57, 92
1, 78241, Note_on_c, 15, 55, 92
1, 78241, Note_on_c, 15, 50, 80
1, 78249, Control_c, 3, 1, 53
1, 78255, Note_off_c, 3, 65, 64
1, 78271, Note_off_c, 2, 67, 64
1, 78271, Note_off_c, 2, 62, 64
1, 78282, Control_c, 3, 1, 0
1, 78290, Note_off_c, 9, 38, 64
1, 78291, Note_off_c, 15, 55, 64
1, 78292, Note_off_c, 2, 69, 64
1, 78294, Note_off_c, 15, 50, 64
1, 78294, Note_off_c, 15, 57, 64
1, 78295, Note_off_c, 2, 58, 64
1, 78297, Note_off_c, 2, 55, 64
1, 78302, Note_off_c, 2, 43, 64
1, 78302, Note_off_c, 9, 24, 64
1, 78308, Note_off_c, 9, 42, 64
1, 78477, Note_on_c, 9, 24, 44
1, 78477, Note_on_c, 15, 50, 77
1, 78478, Note_on_c, 15, 57, 86
1, 78479, Note_on_c, 15, 55, 83
1, 78480, Note_on_c, 9, 42, 86
1, 78515, Note_off_c, 15, 57, 64
1, 78518, Note_off_c, 15, 55, 64
1, 78533, Note_off_c, 9, 24, 64
1, 78533, Note_off_c, 15, 50, 64
1, 78537, Note_off_c, 9, 42, 64
1, 78572, Control_c, 11, 7, 60
1, 78595, Note_on_c, 15, 55, 75
1, 78596, Note_on_c, 15, 57, 73
1, 78597, Note_on_c, 15, 50, 64
1, 78599, Note_on_c, 9, 24, 47
1, 78600, Note_on_c, 9, 36, 105
1, 78602, Note_on_c, 9, 42, 86
1, 78640, Note_off_c, 15, 57, 64
1, 78647, Note_off_c, 15, 50, 64
1, 78649, Note_off_c, 9, 36, 64
1, 78651, Note_off_c, 9, 42, 64
1, 78652, Note_off_c, 15, 55, 64
1, 78663, Control_c, 2, 64, 0
1, 78666, Note_off_c, 9, 24, 64
1, 78687, Note_off_c, 1, 31, 64
1, 78690, Note_off_c, 11, 70, 64
1, 78702, Note_off_c, 12, 43, 64
1, 78705, Note_off_c, 11, 79, 64
1, 78709, Note_off_c, 7, 58, 64
1, 78713, Note_off_c, 7, 67, 64
1, 78717, Note_on_c, 7, 65, 83
1, 78717, Note_on_c, 11, 77, 80
1, 78718, Note_on_c, 9, 35, 115
1, 78718, Note_on_c, 15, 50, 73
1, 78719, Note_on_c, 7, 57, 75
1, 78719, Note_on_c, 15, 53, 77
1, 78720, Note_on_c, 7, 41, 73
1, 78720, Note_on_c, 11, 65, 77
1, 78720, Note_on_c, 11, 69, 80
1, 78720, Note_on_c, 15, 57, 89
1, 78722, Note_on_c, 1, 29, 115
1, 78722, Note_off_c, 7, 43, 64
1, 78722, Note_on_c, 9, 42, 105
1, 78724, Note_on_c, 3, 62, 110
1, 78724, Lyric_t, "I "
1, 78725, Note_on_c, 2, 57, 83
1, 78725, Note_on_c, 2, 65, 100
1, 78726, Note_on_c, 2, 53, 83
1, 78727, Note_on_c, 2, 62, 96
1, 78727, Note_on_c, 2, 41, 77
1, 78727, Note_off_c, 10, 79, 64
1, 78727, Note_off_c, 11, 67, 64
1, 78728, Note_on_c, 10, 81, 86
1, 78728, Note_on_c, 12, 41, 115
1, 78729, Note_on_c, 10, 69, 80
1, 78731, Note_off_c, 10, 67, 64
1, 78766, Note_off_c, 15, 53, 64
1, 78775, Note_off_c, 15, 50, 64
1, 78778, Note_off_c, 15, 57, 64
1, 78790, Note_off_c, 9, 35, 64
1, 78796, Note_off_c, 9, 42, 64
1, 78837, Note_on_c, 9, 24, 51
1, 78856, Control_c, 11, 7, 61
1, 78898, Note_off_c, 9, 24, 64
1, 78958, Note_on_c, 9, 24, 44
1, 78959, Note_on_c, 9, 35, 122
1, 78960, Note_on_c, 9, 42, 96
1, 78964, Note_on_c, 15, 50, 80
1, 78965, Note_on_c, 15, 53, 86
1, 78966, Note_on_c, 15, 57, 86
1, 78975, Note_on_c, 2, 69, 96
1, 78998, Control_c, 2, 64, 127
1, 79017, Note_off_c, 15, 53, 64
1, 79017, Note_off_c, 15, 57, 64
1, 79019, Note_off_c, 9, 42, 64
1, 79023, Note_off_c, 15, 50, 64
1, 79025, Note_off_c, 9, 35, 64
1, 79027, Control_c, 3, 1, 1
1, 79036, Note_off_c, 9, 24, 64
1, 79071, Control_c, 3, 1, 11
1, 79127, Control_c, 3, 1, 16
1, 79182, Control_c, 3, 1, 26
1, 79196, Note_on_c, 9, 38, 122
1, 79199, Note_on_c, 9, 24, 55
1, 79201, Note_on_c, 9, 42, 105
1, 79204, Note_on_c, 15, 50, 83
1, 79205, Note_on_c, 15, 57, 92
1, 79205, Note_on_c, 15, 53, 86
1, 79227, Control_c, 3, 1, 36
1, 79251, Note_off_c, 9, 38, 64
1, 79251, Note_off_c, 15, 53, 64
1, 79258, Note_off_c, 15, 50, 64
1, 79259, Note_off_c, 9, 24, 64
1, 79260, Control_c, 3, 1, 48
1, 79261, Note_off_c, 15, 57, 64
1, 79266, Note_off_c, 9, 42, 64
1, 79305, Control_c, 3, 1, 61
1, 79321, Note_off_c, 2, 69, 64
1, 79383, Control_c, 3, 1, 49
1, 79416, Control_c, 3, 1, 0
1, 79424, Control_c, 11, 7, 62
1, 79437, Note_on_c, 9, 24, 43
1, 79440, Note_on_c, 9, 42, 89
1, 79442, Note_on_c, 15, 57, 92
1, 79443, Note_on_c, 15, 53, 86
1, 79443, Note_on_c, 15, 50, 80
1, 79444, Note_on_c, 3, 65, 115
1, 79444, Lyric_t, "am "
1, 79455, Note_on_c, 2, 67, 100
1, 79464, Note_off_c, 3, 62, 64
1, 79486, Note_off_c, 15, 53, 64
1, 79494, Note_off_c, 15, 50, 64
1, 79496, Note_off_c, 15, 57, 64
1, 79506, Note_off_c, 9, 24, 64
1, 79507, Note_off_c, 9, 42, 64
1, 79557, Note_on_c, 9, 35, 122
1, 79559, Note_on_c, 9, 24, 42
1, 79561, Note_on_c, 9, 42, 89
1, 79610, Note_off_c, 9, 24, 64
1, 79617, Note_off_c, 9, 42, 64
1, 79620, Note_off_c, 9, 35, 64
1, 79683, Note_on_c, 9, 42, 105
1, 79686, Note_on_c, 15, 57, 89
1, 79687, Note_on_c, 15, 50, 77
1, 79687, Note_on_c, 15, 53, 83
1, 79708, Control_c, 11, 7, 62
1, 79727, Note_off_c, 15, 53, 64
1, 79733, Note_off_c, 15, 57, 64
1, 79737, Note_off_c, 15, 50, 64
1, 79763, Note_off_c, 9, 42, 64
1, 79797, Note_on_c, 9, 24, 47
1, 79805, Note_on_c, 15, 50, 75
1, 79806, Note_on_c, 15, 53, 86
1, 79807, Note_on_c, 15, 57, 83
1, 79827, Control_c, 3, 1, 4
1, 79829, Note_off_c, 2, 67, 64
1, 79845, Note_off_c, 15, 57, 64
1, 79847, Note_off_c, 15, 53, 64
1, 79854, Note_off_c, 9, 24, 64
1, 79855, Note_off_c, 15, 50, 64
1, 79861, Control_c, 3, 1, 9
1, 79905, Control_c, 3, 1, 14
1, 79921, Note_on_c, 9, 35, 122
1, 79921, Note_on_c, 15, 57, 92
1, 79922, Note_on_c, 15, 53, 86
1, 79923, Note_on_c, 9, 42, 96
1, 79923, Note_on_c, 15, 50, 77
1, 79926, Note_on_c, 2, 69, 100
1, 79938, Control_c, 3, 1, 19
1, 79972, Control_c, 3, 1, 24
1, 79972, Note_off_c, 15, 53, 64
1, 79977, Note_off_c, 15, 50, 64
1, 79982, Note_off_c, 15, 57, 64
1, 79985, Note_off_c, 9, 42, 64
1, 79988, Note_off_c, 9, 35, 64
1, 79992, Control_c, 11, 7, 63
1, 80006, Control_c, 3, 1, 29
1, 80038, Note_on_c, 9, 24, 41
1, 80039, Control_c, 3, 1, 34
1, 80090, Note_off_c, 9, 24, 64
1, 80095, Control_c, 3, 1, 39
1, 80150, Control_c, 3, 1, 44
1, 80153, Note_on_c, 15, 50, 80
1, 80154, Note_on_c, 15, 57, 96
1, 80155, Note_on_c, 15, 53, 86
1, 80157, Note_on_c, 9, 38, 122
1, 80158, Note_on_c, 9, 24, 57
1, 80161, Note_on_c, 9, 42, 110
1, 80174, Note_off_c, 2, 69, 64
1, 80184, Note_off_c, 2, 57, 64
1, 80190, Note_off_c, 2, 41, 64
1, 80194, Control_c, 3, 1, 49
1, 80198, Note_off_c, 2, 62, 64
1, 80200, Note_off_c, 2, 65, 64
1, 80206, Note_off_c, 15, 53, 64
1, 80208, Note_off_c, 15, 57, 64
1, 80211, Note_off_c, 9, 38, 64
1, 80216, Note_off_c, 2, 53, 64
1, 80216, Note_off_c, 15, 50, 64
1, 80222, Note_off_c, 9, 24, 64
1, 80228, Control_c, 3, 1, 54
1, 80233, Note_off_c, 9, 42, 64
1, 80261, Control_c, 3, 1, 61
1, 80276, Control_c, 11, 7, 63
1, 80295, Control_c, 3, 1, 66
1, 80339, Control_c, 3, 1, 71
1, 80397, Note_on_c, 9, 24, 45
1, 80400, Note_on_c, 9, 42, 96
1, 80400, Note_on_c, 15, 50, 75
1, 80401, Note_on_c, 15, 53, 77
1, 80403, Note_on_c, 15, 57, 77
1, 80428, Control_c, 3, 1, 58
1, 80429, Note_off_c, 3, 65, 64
1, 80436, Note_off_c, 15, 57, 64
1, 80440, Note_off_c, 15, 53, 64
1, 80450, Note_off_c, 15, 50, 64
1, 80454, Note_off_c, 9, 24, 64
1, 80459, Note_off_c, 9, 42, 64
1, 80461, Control_c, 3, 1, 0
1, 80516, Note_on_c, 15, 53, 80
1, 80518, Note_on_c, 9, 24, 44
1, 80518, Note_on_c, 9, 36, 110
1, 80519, Note_on_c, 15, 50, 65
1, 80521, Note_on_c, 9, 42, 83
1, 80521, Note_on_c, 15, 57, 75
1, 80555, Note_off_c, 15, 57, 64
1, 80560, Control_c, 11, 7, 64
1, 80567, Note_off_c, 9, 36, 64
1, 80567, Note_off_c, 15, 50, 64
1, 80568, Note_off_c, 15, 53, 64
1, 80575, Note_off_c, 9, 42, 64
1, 80579, Note_off_c, 9, 24, 64
1, 80580, Note_off_c, 1, 29, 64
1, 80582, Note_off_c, 7, 57, 64
1, 80584, Note_off_c, 12, 41, 64
1, 80586, Note_off_c, 11, 69, 64
1, 80608, Note_off_c, 7, 62, 64
1, 80615, Pitch_bend_c, 3, 7054
1, 80627, Pitch_bend_c, 3, 4930
1, 80632, Note_on_c, 2, 58, 83
1, 80633, Note_on_c, 7, 67, 86
1, 80634, Note_on_c, 2, 67, 89
1, 80634, Note_on_c, 7, 62, 77
1, 80635, Control_c, 2, 64, 0
1, 80635, Note_on_c, 2, 55, 73
1, 80635, Note_on_c, 9, 35, 115
1, 80635, Note_on_c, 11, 79, 86
1, 80635, Note_on_c, 12, 43, 115
1, 80636, Note_on_c, 1, 31, 115
1, 80636, Note_on_c, 2, 62, 92
1, 80636, Note_on_c, 2, 43, 75
1, 80636, Note_on_c, 7, 43, 71
1, 80637, Note_on_c, 7, 58, 83
1, 80637, Note_off_c, 7, 65, 64
1, 80638, Pitch_bend_c, 3, 3640
1, 80639, Note_on_c, 11, 70, 80
1, 80639, Note_on_c, 11, 67, 77
1, 80639, Note_on_c, 15, 57, 80
1, 80640, Note_off_c, 7, 41, 64
1, 80640, Control_c, 12, 7, 29
1, 80641, Note_on_c, 3, 67, 115
1, 80641, Note_on_c, 9, 42, 105
1, 80641, Lyric_t, "call"
1, 80642, Note_on_c, 15, 50, 73
1, 80644, Note_off_c, 11, 65, 64
1, 80644, Note_on_c, 15, 55, 86
1, 80649, Pitch_bend_c, 3, 3261
1, 80660, Pitch_bend_c, 3, 3565
1, 80671, Pitch_bend_c, 3, 4247
1, 80682, Pitch_bend_c, 3, 5385
1, 80692, Note_off_c, 9, 35, 64
1, 80693, Pitch_bend_c, 3, 7736
1, 80694, Note_off_c, 15, 55, 64
1, 80696, Note_off_c, 15, 57, 64
1, 80700, Control_c, 12, 7, 30
1, 80704, Pitch_bend_c, 3, 8192
1, 80704, Note_off_c, 15, 50, 64
1, 80715, Note_off_c, 9, 42, 64
1, 80755, Note_on_c, 9, 24, 49
1, 80760, Control_c, 12, 7, 31
1, 80809, Note_off_c, 9, 24, 64
1, 80820, Control_c, 12, 7, 33
1, 80844, Control_c, 11, 7, 64
1, 80873, Note_on_c, 9, 35, 122
1, 80878, Note_on_c, 15, 50, 77
1, 80879, Note_on_c, 15, 55, 92
1, 80879, Note_on_c, 15, 57, 89
1, 80880, Control_c, 2, 64, 127
1, 80880, Note_on_c, 9, 24, 40
1, 80880, Control_c, 12, 7, 34
1, 80881, Note_on_c, 9, 42, 92
1, 80888, Note_on_c, 2, 69, 89
1, 80922, Note_off_c, 15, 57, 64
1, 80925, Note_off_c, 15, 55, 64
1, 80928, Note_off_c, 9, 24, 64
1, 80934, Note_off_c, 15, 50, 64
1, 80936, Note_off_c, 9, 35, 64
1, 80940, Control_c, 12, 7, 35
1, 80950, Note_off_c, 9, 42, 64
1, 81000, Control_c, 12, 7, 37
1, 81028, Control_c, 3, 1, 2
1, 81060, Control_c, 12, 7, 38
1, 81084, Control_c, 3, 1, 12
1, 81113, Note_on_c, 9, 24, 66
1, 81114, Note_on_c, 15, 50, 80
1, 81115, Note_off_c, 2, 69, 64
1, 81115, Note_on_c, 15, 57, 92
1, 81116, Note_on_c, 9, 38, 122
1, 81116, Note_on_c, 15, 55, 92
1, 81119, Note_on_c, 9, 42, 110
1, 81120, Control_c, 12, 7, 40
1, 81128, Control_c, 11, 7, 66
1, 81139, Control_c, 3, 1, 22
1, 81160, Note_off_c, 15, 57, 64
1, 81163, Note_off_c, 15, 55, 64
1, 81171, Note_off_c, 9, 38, 64
1, 81171, Note_off_c, 15, 50, 64
1, 81175, Note_off_c, 9, 24, 64
1, 81180, Control_c, 12, 7, 41
1, 81183, Note_off_c, 9, 42, 64
1, 81184, Control_c, 3, 1, 36
1, 81217, Control_c, 3, 1, 46
1, 81240, Control_c, 12, 7, 43
1, 81262, Control_c, 3, 1, 61
1, 81300, Control_c, 12, 7, 44
1, 81306, Control_c, 3, 1, 53
1, 81340, Control_c, 3, 1, 0
1, 81353, Note_on_c, 15, 57, 86
1, 81354, Note_on_c, 15, 50, 80
1, 81355, Note_on_c, 15, 55, 92
1, 81356, Note_on_c, 9, 24, 42
1, 81357, Note_on_c, 9, 42, 86
1, 81358, Note_on_c, 2, 69, 96
1, 81360, Control_c, 12, 7, 46
1, 81362, Note_on_c, 3, 65, 105
1, 81362, Lyric_t, "ing.\015"
1, 81374, Note_off_c, 3, 67, 64
1, 81398, Note_off_c, 15, 57, 64
1, 81403, Note_off_c, 15, 55, 64
1, 81407, Note_off_c, 9, 42, 64
1, 81408, Note_off_c, 9, 24, 64
1, 81410, Note_off_c, 15, 50, 64
1, 81412, Control_c, 11, 7, 66
1, 81420, Control_c, 12, 7, 47
1, 81477, Note_on_c, 9, 35, 122
1, 81478, Note_on_c, 9, 42, 92
1, 81478, Note_on_c, 9, 24, 55
1, 81480, Control_c, 12, 7, 48
1, 81528, Note_off_c, 9, 24, 64
1, 81540, Control_c, 12, 7, 50
1, 81543, Note_off_c, 9, 35, 64
1, 81548, Note_off_c, 9, 42, 64
1, 81599, Note_on_c, 15, 57, 83
1, 81599, Note_on_c, 15, 55, 83
1, 81600, Control_c, 12, 7, 51
1, 81600, Note_on_c, 15, 50, 73
1, 81601, Note_on_c, 9, 46, 96
1, 81641, Note_off_c, 15, 57, 64
1, 81642, Note_off_c, 15, 55, 64
1, 81646, Note_off_c, 15, 50, 64
1, 81651, Control_c, 3, 1, 1
1, 81660, Note_off_c, 9, 46, 64
1, 81660, Control_c, 12, 7, 52
1, 81684, Control_c, 3, 1, 6
1, 81696, Control_c, 11, 7, 68
1, 81717, Note_on_c, 14, 60, 122
1, 81718, Note_on_c, 9, 24, 47
1, 81720, Control_c, 12, 7, 54
1, 81720, Note_on_c, 15, 57, 83
1, 81721, Note_on_c, 15, 55, 83
1, 81722, Note_on_c, 15, 50, 71
1, 81729, Control_c, 3, 1, 16
1, 81762, Control_c, 3, 1, 21
1, 81766, Note_off_c, 15, 57, 64
1, 81766, Note_off_c, 15, 55, 64
1, 81770, Note_off_c, 9, 24, 64
1, 81773, Note_off_c, 15, 50, 64
1, 81780, Control_c, 12, 7, 55
1, 81780, Control_c, 13, 7, 14
1, 81806, Control_c, 3, 1, 31
1, 81810, Control_c, 13, 7, 16
1, 81824, Note_off_c, 2, 69, 64
1, 81825, Note_off_c, 2, 62, 64
1, 81830, Note_off_c, 2, 67, 64
1, 81839, Note_on_c, 9, 46, 83
1, 81839, Note_on_c, 15, 55, 77
1, 81840, Control_c, 3, 1, 36
1, 81840, Control_c, 12, 7, 56
1, 81840, Control_c, 13, 7, 18
1, 81840, Note_on_c, 15, 57, 80
1, 81841, Note_on_c, 9, 35, 122
1, 81841, Note_on_c, 15, 50, 65
1, 81866, Note_off_c, 2, 58, 64
1, 81870, Control_c, 13, 7, 20
1, 81887, Note_off_c, 9, 46, 64
1, 81893, Note_off_c, 15, 57, 64
1, 81895, Control_c, 3, 1, 42
1, 81898, Note_off_c, 15, 50, 64
1, 81900, Control_c, 12, 7, 58
1, 81900, Control_c, 13, 7, 22
1, 81900, Note_off_c, 15, 55, 64
1, 81906, Note_off_c, 9, 35, 64
1, 81930, Control_c, 13, 7, 24
1, 81940, Control_c, 3, 1, 48
1, 81956, Note_on_c, 9, 24, 40
1, 81960, Control_c, 12, 7, 59
1, 81960, Control_c, 13, 7, 26
1, 81980, Control_c, 11, 7, 69
1, 81984, Control_c, 3, 1, 53
1, 81990, Control_c, 13, 7, 27
1, 82004, Note_off_c, 9, 24, 64
1, 82020, Control_c, 12, 7, 61
1, 82020, Control_c, 13, 7, 29
1, 82040, Control_c, 3, 1, 64
1, 82050, Control_c, 13, 7, 31
1, 82074, Note_on_c, 15, 50, 80
1, 82075, Note_on_c, 15, 57, 89
1, 82076, Note_on_c, 9, 24, 55
1, 82076, Note_on_c, 15, 55, 89
1, 82078, Note_on_c, 9, 38, 122
1, 82080, Control_c, 12, 7, 62
1, 82080, Control_c, 13, 7, 33
1, 82082, Note_on_c, 9, 46, 110
1, 82093, Note_off_c, 3, 65, 64
1, 82096, Control_c, 3, 1, 0
1, 82110, Control_c, 13, 7, 35
1, 82119, Note_off_c, 15, 57, 64
1, 82122, Note_off_c, 15, 55, 64
1, 82133, Note_off_c, 9, 38, 64
1, 82134, Note_off_c, 15, 50, 64
1, 82139, Note_off_c, 9, 24, 64
1, 82139, Note_off_c, 9, 46, 64
1, 82140, Control_c, 12, 7, 64
1, 82140, Control_c, 13, 7, 37
1, 82170, Control_c, 13, 7, 39
1, 82200, Control_c, 12, 7, 65
1, 82200, Control_c, 13, 7, 41
1, 82230, Control_c, 13, 7, 43
1, 82260, Control_c, 12, 7, 67
1, 82260, Control_c, 13, 7, 45
1, 82264, Control_c, 11, 7, 71
1, 82290, Control_c, 13, 7, 47
1, 82315, Note_on_c, 9, 24, 51
1, 82315, Note_on_c, 15, 57, 92
1, 82315, Note_on_c, 15, 50, 80
1, 82316, Note_on_c, 15, 55, 92
1, 82320, Control_c, 12, 7, 68
1, 82320, Control_c, 13, 7, 49
1, 82323, Note_on_c, 2, 69, 92
1, 82350, Control_c, 13, 7, 51
1, 82363, Note_off_c, 15, 55, 64
1, 82364, Note_off_c, 15, 57, 64
1, 82365, Note_off_c, 15, 50, 64
1, 82366, Note_off_c, 9, 24, 64
1, 82379, Note_off_c, 2, 69, 64
1, 82380, Control_c, 12, 7, 69
1, 82380, Control_c, 13, 7, 53
1, 82406, Note_off_c, 2, 55, 64
1, 82410, Note_off_c, 2, 43, 64
1, 82410, Control_c, 13, 7, 54
1, 82437, Note_on_c, 9, 24, 44
1, 82439, Note_on_c, 9, 36, 110
1, 82440, Control_c, 12, 7, 71
1, 82440, Control_c, 13, 7, 56
1, 82470, Control_c, 13, 7, 58
1, 82483, Note_off_c, 9, 36, 64
1, 82496, Note_off_c, 9, 24, 64
1, 82500, Control_c, 12, 7, 72
1, 82500, Control_c, 13, 7, 60
1, 82530, Note_off_c, 11, 74, 64
1, 82530, Control_c, 13, 7, 62
1, 82534, Note_off_c, 1, 31, 64
1, 82534, Note_off_c, 7, 58, 64
1, 82536, Note_off_c, 11, 70, 64
1, 82538, Note_off_c, 7, 62, 64
1, 82541, Note_off_c, 11, 79, 64
1, 82543, Note_off_c, 11, 77, 64
1, 82544, Note_off_c, 7, 67, 64
1, 82547, Note_off_c, 10, 69, 64
1, 82548, Note_off_c, 10, 81, 64
1, 82548, Control_c, 11, 7, 73
1, 82553, Note_on_c, 7, 65, 92
1, 82553, Note_on_c, 11, 77, 83
1, 82554, Note_on_c, 7, 69, 92
1, 82554, Note_on_c, 7, 62, 86
1, 82554, Note_on_c, 11, 81, 92
1, 82554, Note_on_c, 11, 69, 75
1, 82555, Note_off_c, 7, 43, 64
1, 82555, Note_off_c, 11, 67, 64
1, 82555, Note_on_c, 11, 62, 83
1, 82555, Note_on_c, 12, 38, 115
1, 82555, Note_on_c, 13, 57, 105
1, 82556, Control_c, 2, 64, 0
1, 82556, Note_on_c, 7, 57, 77
1, 82556, Note_on_c, 9, 35, 122
1, 82556, Note_on_c, 11, 86, 92
1, 82556, Note_on_c, 13, 50, 105
1, 82557, Note_on_c, 7, 50, 77
1, 82557, Note_on_c, 10, 86, 96
1, 82558, Note_on_c, 10, 74, 80
1, 82559, Control_c, 10, 7, 60
1, 82559, Control_c, 11, 7, 74
1, 82559, Control_c, 12, 7, 74
1, 82560, Control_c, 7, 7, 72
1, 82560, Note_on_c, 9, 49, 115
1, 82560, Control_c, 10, 7, 60
1, 82560, Control_c, 11, 7, 75
1, 82560, Control_c, 12, 7, 76
1, 82560, Control_c, 13, 7, 65
1, 82561, Note_off_c, 12, 43, 64
1, 82562, Note_on_c, 1, 26, 110
1, 82565, Note_on_c, 2, 81, 100
1, 82565, Note_on_c, 2, 50, 89
1, 82566, Note_on_c, 2, 69, 100
1, 82566, Note_on_c, 2, 77, 110
1, 82567, Note_on_c, 2, 38, 83
1, 82568, Note_on_c, 2, 74, 105
1, 82616, Note_off_c, 9, 35, 64
1, 82618, Note_off_c, 9, 49, 64
1, 82714, Note_off_c, 14, 60, 64
1, 82755, Note_off_c, 1, 26, 64
1, 82769, Control_c, 2, 64, 127
1, 82795, Note_off_c, 13, 50, 64
1, 82796, Note_on_c, 9, 35, 122
1, 82796, Note_off_c, 13, 57, 64
1, 82798, Note_on_c, 9, 51, 100
1, 82798, Note_on_c, 13, 50, 100
1, 82798, Note_on_c, 13, 57, 96
1, 82801, Note_on_c, 1, 26, 110
1, 82847, Note_off_c, 9, 51, 64
1, 82854, Note_off_c, 9, 35, 64
1, 82990, Note_off_c, 1, 26, 64
1, 83033, Note_off_c, 13, 57, 64
1, 83034, Note_off_c, 13, 50, 64
1, 83036, Note_on_c, 9, 51, 115
1, 83038, Note_on_c, 13, 50, 96
1, 83039, Note_on_c, 13, 57, 96
1, 83040, Note_on_c, 3, 62, 105
1, 83040, Note_on_c, 9, 38, 122
1, 83040, Lyric_t, "And "
1, 83041, Note_on_c, 1, 26, 110
1, 83082, Note_off_c, 9, 51, 64
1, 83094, Note_off_c, 9, 38, 64
1, 83180, Note_off_c, 2, 69, 64
1, 83234, Note_off_c, 1, 26, 64
1, 83241, Pitch_bend_c, 3, 7433
1, 83249, Note_off_c, 3, 62, 64
1, 83253, Pitch_bend_c, 3, 5006
1, 83264, Pitch_bend_c, 3, 3261
1, 83274, Note_on_c, 3, 69, 115
1, 83274, Lyric_t, "I "
1, 83275, Pitch_bend_c, 3, 2882
1, 83276, Note_on_c, 9, 51, 100
1, 83276, Note_off_c, 13, 57, 64
1, 83276, Note_off_c, 13, 50, 64
1, 83279, Note_on_c, 13, 50, 92
1, 83280, Note_on_c, 2, 69, 105
1, 83280, Note_on_c, 13, 57, 96
1, 83281, Note_on_c, 1, 26, 105
1, 83284, Note_on_c, 4, 65, 110
1, 83297, Pitch_bend_c, 3, 3413
1, 83308, Pitch_bend_c, 3, 4399
1, 83319, Pitch_bend_c, 3, 6144
1, 83331, Pitch_bend_c, 3, 8192
1, 83335, Note_off_c, 9, 51, 64
1, 83401, Note_on_c, 9, 35, 127
1, 83466, Note_off_c, 9, 35, 64
1, 83468, Note_off_c, 1, 26, 64
1, 83509, Note_off_c, 13, 57, 64
1, 83510, Note_off_c, 13, 50, 64
1, 83517, Note_on_c, 13, 50, 96
1, 83517, Note_on_c, 13, 57, 96
1, 83519, Note_on_c, 1, 26, 105
1, 83519, Note_on_c, 9, 51, 110
1, 83569, Note_off_c, 9, 51, 64
1, 83626, Note_off_c, 2, 81, 64
1, 83717, Note_off_c, 1, 26, 64
1, 83757, Note_off_c, 13, 57, 64
1, 83758, Note_off_c, 13, 50, 64
1, 83759, Note_on_c, 13, 50, 100
1, 83760, Note_on_c, 9, 51, 92
1, 83760, Note_on_c, 9, 35, 122
1, 83760, Note_on_c, 13, 57, 96
1, 83764, Note_on_c, 1, 26, 105
1, 83777, Control_c, 3, 1, 1
1, 83810, Control_c, 3, 1, 7
1, 83816, Note_off_c, 9, 51, 64
1, 83824, Note_off_c, 9, 35, 64
1, 83844, Control_c, 3, 1, 12
1, 83899, Control_c, 3, 1, 17
1, 83943, Control_c, 3, 1, 22
1, 83962, Note_off_c, 1, 26, 64
1, 83977, Control_c, 3, 1, 27
1, 83995, Note_off_c, 13, 57, 64
1, 83996, Note_off_c, 13, 50, 64
1, 83997, Note_on_c, 2, 81, 105
1, 83998, Note_on_c, 9, 38, 122
1, 84000, Note_on_c, 9, 51, 110
1, 84000, Note_on_c, 13, 50, 100
1, 84000, Note_on_c, 13, 57, 100
1, 84007, Note_on_c, 1, 26, 105
1, 84010, Control_c, 3, 1, 32
1, 84044, Control_c, 3, 1, 37
1, 84053, Note_off_c, 9, 38, 64
1, 84056, Note_off_c, 9, 51, 64
1, 84110, Control_c, 3, 1, 42
1, 84128, Note_off_c, 2, 69, 64
1, 84161, Note_off_c, 2, 50, 64
1, 84169, Note_off_c, 2, 38, 64
1, 84177, Control_c, 3, 1, 48
1, 84183, Note_off_c, 1, 26, 64
1, 84201, Note_off_c, 2, 74, 64
1, 84205, Note_off_c, 2, 81, 64
1, 84218, Note_off_c, 2, 77, 64
1, 84235, Note_on_c, 2, 69, 92
1, 84238, Note_off_c, 13, 57, 64
1, 84239, Note_on_c, 1, 26, 105
1, 84239, Note_off_c, 13, 50, 64
1, 84240, Note_on_c, 9, 51, 92
1, 84241, Note_on_c, 13, 50, 92
1, 84242, Note_on_c, 13, 57, 96
1, 84244, Control_c, 3, 1, 53
1, 84289, Note_off_c, 9, 51, 64
1, 84330, Note_off_c, 2, 69, 64
1, 84333, Control_c, 3, 1, 58
1, 84362, Note_on_c, 9, 36, 110
1, 84428, Note_off_c, 11, 86, 64
1, 84431, Note_off_c, 1, 26, 64
1, 84431, Note_off_c, 9, 36, 64
1, 84441, Note_off_c, 7, 69, 64
1, 84441, Note_off_c, 7, 62, 64
1, 84446, Note_off_c, 11, 77, 64
1, 84455, Control_c, 3, 1, 63
1, 84464, Note_off_c, 7, 50, 64
1, 84466, Note_off_c, 13, 57, 64
1, 84466, Note_off_c, 13, 50, 64
1, 84468, Control_c, 2, 64, 0
1, 84468, Note_on_c, 2, 72, 96
1, 84469, Note_on_c, 2, 76, 110
1, 84470, Note_on_c, 2, 79, 110
1, 84470, Note_on_c, 2, 36, 83
1, 84471, Note_on_c, 1, 36, 110
1, 84471, Note_on_c, 2, 48, 92
1, 84471, Note_on_c, 7, 67, 89
1, 84472, Note_on_c, 7, 64, 86
1, 84472, Note_on_c, 7, 48, 92
1, 84472, Note_off_c, 12, 38, 64
1, 84473, Note_on_c, 7, 60, 80
1, 84475, Note_on_c, 11, 60, 73
1, 84476, Note_on_c, 11, 84, 86
1, 84476, Note_on_c, 13, 55, 92
1, 84476, Note_on_c, 13, 48, 105
1, 84477, Note_on_c, 11, 79, 89
1, 84477, Note_on_c, 11, 76, 77
1, 84478, Note_on_c, 12, 48, 115
1, 84479, Note_on_c, 9, 35, 122
1, 84479, Note_on_c, 9, 51, 110
1, 84488, Note_off_c, 11, 62, 64
1, 84493, Note_off_c, 7, 65, 64
1, 84501, Note_off_c, 11, 81, 64
1, 84531, Note_off_c, 9, 51, 64
1, 84533, Control_c, 3, 1, 68
1, 84569, Note_off_c, 9, 35, 64
1, 84659, Note_off_c, 1, 36, 64
1, 84683, Control_c, 2, 64, 127
1, 84688, Control_c, 3, 1, 78
1, 84716, Note_on_c, 1, 36, 105
1, 84717, Note_on_c, 9, 51, 86
1, 84720, Note_on_c, 9, 35, 127
1, 84721, Note_on_c, 13, 55, 89
1, 84721, Note_off_c, 13, 48, 64
1, 84722, Control_c, 3, 1, 83
1, 84722, Note_on_c, 13, 48, 100
1, 84722, Note_off_c, 13, 55, 64
1, 84771, Note_off_c, 9, 51, 64
1, 84796, Note_off_c, 9, 35, 64
1, 84811, Control_c, 3, 1, 56
1, 84844, Control_c, 3, 1, 0
1, 84883, Note_off_c, 3, 69, 64
1, 84893, Note_off_c, 1, 36, 64
1, 84933, Note_off_c, 4, 65, 64
1, 84951, Note_on_c, 3, 67, 100
1, 84951, Lyric_t, "could "
1, 84956, Note_on_c, 1, 36, 105
1, 84956, Note_on_c, 4, 64, 105
1, 84956, Note_on_c, 9, 38, 122
1, 84957, Note_on_c, 9, 51, 110
1, 84959, Note_off_c, 13, 48, 64
1, 84959, Note_off_c, 13, 55, 64
1, 84962, Note_on_c, 13, 55, 92
1, 84963, Note_on_c, 13, 48, 105
1, 85011, Note_off_c, 9, 51, 64
1, 85015, Note_off_c, 9, 38, 64
1, 85139, Note_off_c, 1, 36, 64
1, 85179, Note_off_c, 3, 67, 64
1, 85192, Note_off_c, 13, 48, 64
1, 85193, Note_off_c, 13, 55, 64
1, 85194, Note_on_c, 3, 65, 110
1, 85194, Lyric_t, "see "
1, 85195, Note_on_c, 1, 36, 100
1, 85195, Note_on_c, 2, 69, 105
1, 85196, Note_on_c, 4, 62, 100
1, 85198, Note_off_c, 4, 64, 64
1, 85198, Note_on_c, 9, 51, 89
1, 85200, Note_on_c, 13, 55, 89
1, 85200, Note_on_c, 13, 48, 96
1, 85252, Note_off_c, 9, 51, 64
1, 85317, Note_on_c, 9, 35, 122
1, 85380, Note_off_c, 1, 36, 64
1, 85381, Note_off_c, 9, 35, 64
1, 85422, Control_c, 3, 1, 7
1, 85435, Note_on_c, 1, 36, 100
1, 85437, Note_off_c, 13, 48, 64
1, 85438, Note_on_c, 9, 51, 110
1, 85438, Note_off_c, 13, 55, 64
1, 85441, Note_on_c, 13, 48, 105
1, 85441, Note_on_c, 13, 55, 96
1, 85467, Control_c, 3, 1, 22
1, 85486, Note_off_c, 9, 51, 64
1, 85500, Control_c, 3, 1, 42
1, 85533, Control_c, 3, 1, 58
1, 85600, Control_c, 3, 1, 51
1, 85609, Note_off_c, 1, 36, 64
1, 85633, Control_c, 3, 1, 0
1, 85673, Note_on_c, 1, 36, 105
1, 85675, Note_off_c, 3, 65, 64
1, 85675, Note_off_c, 4, 62, 64
1, 85675, Note_off_c, 13, 55, 64
1, 85676, Note_off_c, 13, 48, 64
1, 85677, Note_on_c, 9, 51, 89
1, 85679, Note_on_c, 9, 35, 122
1, 85680, Note_on_c, 13, 55, 96
1, 85681, Note_on_c, 13, 48, 105
1, 85682, Note_on_c, 4, 60, 96
1, 85683, Note_on_c, 3, 64, 115
1, 85683, Lyric_t, "it "
1, 85728, Note_off_c, 9, 51, 64
1, 85739, Note_off_c, 9, 35, 64
1, 85801, Note_off_c, 2, 79, 64
1, 85858, Note_off_c, 1, 36, 64
1, 85913, Note_on_c, 1, 36, 96
1, 85916, Note_on_c, 9, 38, 122
1, 85918, Note_on_c, 9, 51, 105
1, 85920, Note_off_c, 13, 48, 64
1, 85920, Note_off_c, 13, 55, 64
1, 85922, Note_on_c, 13, 55, 96
1, 85923, Note_on_c, 2, 79, 110
1, 85923, Note_on_c, 13, 48, 105
1, 85970, Note_off_c, 9, 38, 64
1, 85976, Note_off_c, 9, 51, 64
1, 86072, Note_off_c, 2, 69, 64
1, 86094, Note_off_c, 1, 36, 64
1, 86110, Pitch_bend_c, 3, 7661
1, 86115, Note_off_c, 3, 64, 64
1, 86121, Pitch_bend_c, 3, 5764
1, 86132, Pitch_bend_c, 3, 4171
1, 86144, Pitch_bend_c, 3, 3413
1, 86152, Note_on_c, 1, 36, 100
1, 86155, Pitch_bend_c, 3, 3185
1, 86155, Note_on_c, 3, 67, 115
1, 86155, Lyric_t, "clear"
1, 86157, Note_on_c, 9, 51, 96
1, 86158, Note_on_c, 2, 69, 89
1, 86161, Note_off_c, 13, 48, 64
1, 86161, Note_off_c, 13, 55, 64
1, 86164, Note_on_c, 13, 48, 105
1, 86165, Note_on_c, 13, 55, 100
1, 86169, Note_on_c, 4, 64, 89
1, 86177, Pitch_bend_c, 3, 3868
1, 86183, Note_off_c, 4, 60, 64
1, 86188, Pitch_bend_c, 3, 5157
1, 86199, Pitch_bend_c, 3, 7661
1, 86210, Pitch_bend_c, 3, 8192
1, 86216, Note_off_c, 9, 51, 64
1, 86233, Note_off_c, 2, 48, 64
1, 86233, Note_off_c, 2, 36, 64
1, 86280, Note_on_c, 9, 36, 105
1, 86286, Note_off_c, 2, 69, 64
1, 86291, Note_off_c, 2, 72, 64
1, 86291, Note_off_c, 2, 76, 64
1, 86292, Note_off_c, 2, 79, 64
1, 86329, Note_off_c, 9, 36, 64
1, 86332, Note_off_c, 1, 36, 64
1, 86365, Control_c, 2, 64, 0
1, 86365, Note_off_c, 11, 76, 64
1, 86370, Note_off_c, 7, 64, 64
1, 86372, Note_off_c, 7, 60, 64
1, 86378, Note_off_c, 7, 57, 64
1, 86381, Note_off_c, 7, 48, 64
1, 86381, Note_off_c, 7, 67, 64
1, 86388, Note_on_c, 1, 34, 110
1, 86389, Note_on_c, 7, 65, 86
1, 86390, Note_on_c, 7, 46, 77
1, 86391, Note_on_c, 7, 53, 77
1, 86392, Note_on_c, 7, 58, 77
1, 86392, Note_on_c, 12, 46, 115
1, 86393, Note_on_c, 2, 46, 89
1, 86393, Note_on_c, 7, 60, 89
1, 86393, Note_on_c, 11, 58, 73
1, 86394, Note_on_c, 7, 62, 83
1, 86394, Note_on_c, 11, 82, 69
1, 86394, Note_on_c, 11, 65, 73
1, 86395, Note_on_c, 2, 34, 86
1, 86395, Note_on_c, 11, 77, 92
1, 86396, Note_on_c, 2, 65, 89
1, 86396, Note_off_c, 13, 55, 64
1, 86397, Note_on_c, 2, 74, 100
1, 86397, Note_on_c, 2, 77, 100
1, 86397, Note_on_c, 9, 51, 105
1, 86397, Note_off_c, 11, 69, 64
1, 86397, Note_on_c, 11, 74, 73
1, 86397, Note_off_c, 13, 48, 64
1, 86398, Note_on_c, 2, 70, 100
1, 86398, Note_on_c, 9, 35, 115
1, 86402, Note_off_c, 11, 84, 64
1, 86402, Note_off_c, 12, 48, 64
1, 86402, Note_on_c, 13, 53, 96
1, 86403, Note_on_c, 13, 46, 105
1, 86414, Note_off_c, 11, 60, 64
1, 86423, Note_off_c, 11, 79, 64
1, 86456, Note_off_c, 9, 51, 64
1, 86470, Note_off_c, 9, 35, 64
1, 86523, Control_c, 3, 1, 34
1, 86556, Control_c, 3, 1, 54
1, 86591, Note_off_c, 1, 34, 64
1, 86601, Control_c, 3, 1, 48
1, 86608, Note_off_c, 4, 64, 64
1, 86610, Control_c, 2, 64, 127
1, 86634, Control_c, 3, 1, 0
1, 86636, Note_on_c, 4, 62, 89
1, 86637, Note_on_c, 1, 34, 105
1, 86637, Note_on_c, 9, 51, 86
1, 86639, Note_on_c, 9, 35, 122
1, 86640, Note_off_c, 3, 67, 64
1, 86644, Note_off_c, 13, 46, 64
1, 86645, Note_off_c, 13, 53, 64
1, 86646, Note_on_c, 13, 53, 100
1, 86646, Note_on_c, 13, 46, 100
1, 86649, Note_on_c, 3, 65, 105
1, 86649, Lyric_t, "ly\015"
1, 86697, Note_off_c, 9, 51, 64
1, 86705, Note_off_c, 9, 35, 64
1, 86832, Note_off_c, 1, 34, 64
1, 86876, Note_on_c, 9, 38, 122
1, 86878, Note_on_c, 9, 51, 105
1, 86882, Note_on_c, 1, 34, 110
1, 86885, Note_off_c, 13, 46, 64
1, 86885, Note_off_c, 13, 53, 64
1, 86888, Note_on_c, 13, 46, 100
1, 86888, Note_on_c, 13, 53, 96
1, 86931, Note_off_c, 9, 38, 64
1, 86939, Note_off_c, 9, 51, 64
1, 86945, Control_c, 3, 1, 34
1, 86979, Control_c, 3, 1, 49
1, 87023, Control_c, 3, 1, 42
1, 87032, Note_off_c, 2, 65, 64
1, 87056, Control_c, 3, 1, 0
1, 87071, Note_off_c, 1, 34, 64
1, 87098, Note_off_c, 3, 65, 64
1, 87108, Note_on_c, 2, 65, 96
1, 87119, Note_on_c, 4, 60, 96
1, 87119, Note_on_c, 9, 51, 92
1, 87121, Note_off_c, 13, 53, 64
1, 87121, Note_off_c, 13, 46, 64
1, 87122, Note_on_c, 3, 64, 110
1, 87122, Lyric_t, "once "
1, 87124, Note_on_c, 1, 34, 110
1, 87126, Note_on_c, 13, 46, 96
1, 87127, Note_on_c, 13, 53, 96
1, 87146, Note_off_c, 4, 62, 64
1, 87176, Note_off_c, 9, 51, 64
1, 87237, Note_on_c, 9, 35, 122
1, 87300, Note_off_c, 9, 35, 64
1, 87305, Note_off_c, 1, 34, 64
1, 87359, Note_on_c, 9, 51, 105
1, 87360, Note_off_c, 13, 53, 64
1, 87361, Note_off_c, 13, 46, 64
1, 87362, Note_on_c, 1, 34, 105
1, 87366, Note_on_c, 13, 53, 96
1, 87366, Note_on_c, 13, 46, 100
1, 87368, Control_c, 3, 1, 12
1, 87401, Control_c, 3, 1, 42
1, 87417, Note_off_c, 9, 51, 64
1, 87435, Control_c, 3, 1, 54
1, 87479, Control_c, 3, 1, 34
1, 87513, Control_c, 3, 1, 0
1, 87520, Note_off_c, 2, 70, 64
1, 87542, Note_off_c, 2, 77, 64
1, 87543, Note_off_c, 1, 34, 64
1, 87551, Note_off_c, 2, 74, 64
1, 87571, Note_off_c, 3, 64, 64
1, 87585, Note_off_c, 4, 60, 64
1, 87589, Note_on_c, 4, 58, 100
1, 87596, Note_on_c, 3, 62, 100
1, 87596, Lyric_t, "when "
1, 87599, Note_off_c, 13, 46, 64
1, 87600, Note_on_c, 1, 34, 110
1, 87600, Note_on_c, 9, 51, 89
1, 87600, Note_off_c, 13, 53, 64
1, 87601, Note_on_c, 9, 35, 122
1, 87605, Note_on_c, 13, 46, 96
1, 87606, Note_on_c, 13, 53, 96
1, 87651, Note_off_c, 9, 51, 64
1, 87668, Note_off_c, 9, 35, 64
1, 87794, Note_off_c, 1, 34, 64
1, 87828, Note_on_c, 2, 77, 110
1, 87828, Note_on_c, 2, 74, 110
1, 87829, Note_on_c, 2, 70, 96
1, 87837, Note_on_c, 9, 38, 122
1, 87841, Note_on_c, 9, 51, 105
1, 87843, Note_off_c, 13, 53, 64
1, 87844, Note_off_c, 13, 46, 64
1, 87845, Note_on_c, 1, 34, 110
1, 87846, Note_on_c, 13, 53, 96
1, 87847, Note_on_c, 13, 46, 96
1, 87874, Note_off_c, 2, 34, 64
1, 87887, Note_off_c, 2, 46, 64
1, 87891, Note_off_c, 9, 38, 64
1, 87894, Note_off_c, 9, 51, 64
1, 87980, Note_off_c, 2, 74, 64
1, 87982, Note_off_c, 2, 77, 64
1, 87997, Note_off_c, 2, 70, 64
1, 88010, Note_off_c, 4, 58, 64
1, 88023, Pitch_bend_c, 3, 7585
1, 88025, Note_off_c, 2, 65, 64
1, 88026, Note_off_c, 3, 62, 64
1, 88032, Note_off_c, 1, 34, 64
1, 88033, Pitch_bend_c, 3, 5764
1, 88045, Pitch_bend_c, 3, 4551
1, 88056, Pitch_bend_c, 3, 4323
1, 88070, Note_on_c, 3, 65, 105
1, 88070, Lyric_t, "you "
1, 88078, Pitch_bend_c, 3, 4702
1, 88079, Note_off_c, 13, 46, 64
1, 88079, Note_off_c, 13, 53, 64
1, 88080, Note_on_c, 9, 51, 86
1, 88085, Note_on_c, 13, 53, 96
1, 88086, Note_on_c, 13, 46, 96
1, 88088, Note_on_c, 1, 34, 110
1, 88089, Pitch_bend_c, 3, 5688
1, 88100, Pitch_bend_c, 3, 8116
1, 88111, Pitch_bend_c, 3, 8192
1, 88141, Note_off_c, 9, 51, 64
1, 88198, Note_on_c, 9, 36, 110
1, 88247, Note_off_c, 9, 36, 64
1, 88264, Note_off_c, 1, 34, 64
1, 88282, Note_off_c, 11, 77, 64
1, 88283, Note_off_c, 7, 53, 64
1, 88289, Note_off_c, 11, 82, 64
1, 88297, Note_off_c, 7, 60, 64
1, 88301, Note_off_c, 7, 65, 64
1, 88302, Note_off_c, 7, 58, 64
1, 88308, Note_off_c, 12, 46, 64
1, 88313, Note_on_c, 7, 64, 86
1, 88314, Note_on_c, 7, 45, 83
1, 88314, Note_on_c, 7, 57, 83
1, 88315, Note_on_c, 9, 35, 115
1, 88315, Note_off_c, 13, 46, 64
1, 88316, Note_off_c, 7, 46, 64
1, 88316, Note_off_c, 13, 53, 64
1, 88317, Note_off_c, 11, 58, 64
1, 88317, Note_on_c, 12, 45, 122
1, 88320, Note_on_c, 1, 33, 115
1, 88320, Note_on_c, 7, 52, 89
1, 88320, Note_on_c, 9, 51, 105
1, 88321, Note_on_c, 2, 76, 100
1, 88321, Note_on_c, 2, 74, 105
1, 88321, Note_on_c, 11, 57, 73
1, 88322, Note_on_c, 13, 52, 100
1, 88323, Note_on_c, 2, 69, 100
1, 88323, Note_on_c, 2, 33, 80
1, 88323, Note_on_c, 11, 64, 71
1, 88323, Note_on_c, 11, 76, 83
1, 88323, Note_on_c, 13, 45, 100
1, 88324, Note_on_c, 2, 64, 105
1, 88324, Note_on_c, 11, 81, 100
1, 88325, Note_on_c, 2, 45, 83
1, 88331, Control_c, 2, 64, 0
1, 88335, Note_off_c, 11, 65, 64
1, 88372, Note_off_c, 9, 35, 64
1, 88375, Note_off_c, 9, 51, 64
1, 88379, Control_c, 3, 1, 12
1, 88413, Control_c, 3, 1, 34
1, 88457, Control_c, 3, 1, 26
1, 88491, Control_c, 3, 1, 0
1, 88505, Note_off_c, 1, 33, 64
1, 88518, Note_off_c, 3, 65, 64
1, 88532, Control_c, 2, 64, 127
1, 88553, Note_on_c, 9, 35, 122
1, 88556, Note_on_c, 3, 64, 115
1, 88556, Lyric_t, "were \015"
1, 88559, Note_on_c, 9, 51, 83
1, 88560, Note_on_c, 1, 33, 115
1, 88565, Note_off_c, 13, 45, 64
1, 88565, Note_off_c, 13, 52, 64
1, 88566, Note_on_c, 13, 45, 100
1, 88567, Note_on_c, 13, 52, 100
1, 88616, Note_off_c, 9, 35, 64
1, 88619, Note_off_c, 9, 51, 64
1, 88745, Note_off_c, 1, 33, 64
1, 88796, Note_on_c, 9, 38, 122
1, 88798, Note_on_c, 1, 33, 115
1, 88799, Note_on_c, 9, 51, 110
1, 88799, Note_off_c, 13, 52, 64
1, 88799, Note_off_c, 13, 45, 64
1, 88805, Note_on_c, 13, 52, 96
1, 88805, Note_on_c, 13, 45, 100
1, 88847, Control_c, 3, 1, 26
1, 88851, Note_off_c, 9, 38, 64
1, 88860, Note_off_c, 9, 51, 64
1, 88880, Control_c, 3, 1, 41
1, 88926, Note_off_c, 2, 76, 64
1, 88936, Control_c, 3, 1, 29
1, 88939, Note_off_c, 2, 74, 64
1, 88942, Note_off_c, 2, 64, 64
1, 88944, Note_off_c, 2, 69, 64
1, 88969, Control_c, 3, 1, 0
1, 88973, Note_off_c, 11, 74, 64
1, 88982, Note_off_c, 1, 33, 64
1, 89028, Note_on_c, 2, 76, 100
1, 89029, Note_off_c, 3, 64, 64
1, 89031, Note_on_c, 2, 69, 96
1, 89031, Note_on_c, 2, 73, 105
1, 89032, Note_on_c, 2, 64, 96
1, 89032, Note_on_c, 7, 61, 83
1, 89032, Note_on_c, 10, 85, 83
1, 89033, Note_on_c, 10, 73, 77
1, 89035, Note_on_c, 1, 33, 115
1, 89036, Note_on_c, 11, 73, 80
1, 89038, Note_off_c, 13, 45, 64
1, 89039, Note_on_c, 9, 51, 80
1, 89039, Note_off_c, 13, 52, 64
1, 89042, Note_on_c, 3, 62, 105
1, 89042, Lyric_t, "here "
1, 89044, Note_on_c, 13, 52, 96
1, 89044, Note_on_c, 13, 45, 105
1, 89051, Note_off_c, 10, 74, 64
1, 89061, Note_off_c, 10, 86, 64
1, 89065, Note_off_c, 7, 62, 64
1, 89077, Control_c, 2, 64, 0
1, 89097, Note_off_c, 9, 51, 64
1, 89157, Note_on_c, 9, 35, 122
1, 89212, Note_off_c, 1, 33, 64
1, 89223, Note_off_c, 9, 35, 64
1, 89258, Control_c, 2, 64, 127
1, 89269, Note_on_c, 1, 33, 110
1, 89273, Note_off_c, 13, 45, 64
1, 89273, Note_off_c, 13, 52, 64
1, 89277, Note_on_c, 9, 51, 105
1, 89280, Note_on_c, 13, 52, 100
1, 89281, Note_on_c, 13, 45, 105
1, 89303, Control_c, 3, 1, 14
1, 89336, Control_c, 3, 1, 39
1, 89339, Note_off_c, 9, 51, 64
1, 89392, Control_c, 3, 1, 32
1, 89425, Control_c, 3, 1, 0
1, 89463, Note_off_c, 1, 33, 64
1, 89504, Note_off_c, 3, 62, 64
1, 89512, Note_on_c, 1, 33, 110
1, 89516, Note_off_c, 13, 45, 64
1, 89517, Note_off_c, 13, 52, 64
1, 89519, Note_on_c, 9, 51, 83
1, 89521, Note_on_c, 3, 61, 110
1, 89521, Note_on_c, 9, 35, 122
1, 89521, Note_on_c, 13, 52, 100
1, 89521, Note_on_c, 13, 45, 110
1, 89521, Lyric_t, "with "
1, 89575, Note_off_c, 9, 51, 64
1, 89586, Note_off_c, 9, 35, 64
1, 89673, Note_off_c, 2, 64, 64
1, 89704, Note_off_c, 1, 33, 64
1, 89752, Note_on_c, 2, 64, 92
1, 89755, Note_on_c, 1, 33, 115
1, 89758, Control_c, 3, 1, 4
1, 89758, Note_on_c, 9, 38, 122
1, 89758, Note_off_c, 13, 45, 64
1, 89759, Note_on_c, 9, 51, 110
1, 89759, Note_off_c, 13, 52, 64
1, 89762, Note_on_c, 13, 52, 105
1, 89762, Note_on_c, 13, 45, 105
1, 89792, Control_c, 3, 1, 26
1, 89813, Note_off_c, 9, 38, 64
1, 89820, Note_off_c, 9, 51, 64
1, 89825, Control_c, 3, 1, 42
1, 89869, Control_c, 3, 1, 36
1, 89903, Control_c, 3, 1, 0
1, 89917, Note_off_c, 2, 45, 64
1, 89921, Note_off_c, 2, 33, 64
1, 89940, Note_off_c, 1, 33, 64
1, 89951, Note_off_c, 2, 69, 64
1, 89952, Note_off_c, 2, 73, 64
1, 89962, Note_off_c, 3, 61, 64
1, 89966, Note_off_c, 2, 64, 64
1, 89983, Note_off_c, 2, 76, 64
1, 89997, Note_on_c, 1, 33, 115
1, 89998, Note_on_c, 9, 51, 96
1, 90001, Note_on_c, 3, 57, 115
1, 90001, Lyric_t, "me.\015"
1, 90005, Note_off_c, 13, 45, 64
1, 90005, Note_off_c, 13, 52, 64
1, 90005, Note_on_c, 13, 45, 105
1, 90006, Note_on_c, 13, 52, 100
1, 90075, Note_off_c, 9, 51, 64
1, 90119, Note_on_c, 9, 36, 110
1, 90163, Note_off_c, 9, 36, 64
1, 90185, Note_off_c, 1, 33, 64
1, 90205, Note_off_c, 12, 45, 64
1, 90221, Control_c, 2, 64, 0
1, 90230, Note_on_c, 11, 77, 89
1, 90230, Note_on_c, 11, 81, 96
1, 90231, Note_off_c, 7, 61, 64
1, 90231, Note_off_c, 10, 73, 64
1, 90231, Note_on_c, 11, 69, 77
1, 90232, Note_off_c, 7, 57, 64
1, 90232, Note_on_c, 11, 86, 92
1, 90232, Note_off_c, 11, 76, 64
1, 90232, Note_on_c, 11, 62, 89
1, 90233, Note_on_c, 1, 26, 110
1, 90233, Note_on_c, 7, 65, 92
1, 90233, Note_on_c, 10, 86, 92
1, 90233, Note_on_c, 12, 38, 115
1, 90233, Note_off_c, 13, 52, 64
1, 90234, Note_on_c, 7, 69, 92
1, 90234, Note_on_c, 7, 62, 86
1, 90234, Note_off_c, 13, 45, 64
1, 90235, Note_on_c, 9, 57, 105
1, 90235, Note_on_c, 10, 74, 86
1, 90236, Note_on_c, 7, 57, 77
1, 90236, Note_on_c, 9, 35, 122
1, 90237, Note_on_c, 7, 50, 77
1, 90238, Note_off_c, 11, 64, 64
1, 90239, Note_off_c, 7, 52, 64
1, 90239, Note_off_c, 11, 81, 64
1, 90241, Note_off_c, 7, 64, 64
1, 90241, Note_off_c, 11, 73, 64
1, 90242, Note_on_c, 13, 50, 100
1, 90242, Note_on_c, 13, 57, 96
1, 90243, Note_off_c, 11, 57, 64
1, 90244, Note_off_c, 7, 45, 64
1, 90245, Note_on_c, 2, 81, 100
1, 90245, Note_on_c, 2, 50, 89
1, 90246, Note_on_c, 2, 69, 100
1, 90246, Note_on_c, 2, 77, 110
1, 90246, Note_off_c, 10, 85, 64
1, 90247, Note_on_c, 2, 38, 83
1, 90248, Note_on_c, 2, 74, 105
1, 90292, Control_c, 3, 1, 4
1, 90300, Note_off_c, 9, 35, 64
1, 90310, Note_off_c, 9, 57, 64
1, 90336, Control_c, 3, 1, 19
1, 90381, Control_c, 3, 1, 32
1, 90414, Control_c, 3, 1, 39
1, 90438, Note_off_c, 1, 26, 64
1, 90447, Control_c, 3, 1, 44
1, 90449, Control_c, 2, 64, 127
1, 90477, Note_on_c, 9, 35, 127
1, 90477, Note_off_c, 13, 57, 64
1, 90478, Note_off_c, 13, 50, 64
1, 90479, Note_on_c, 1, 26, 110
1, 90479, Note_on_c, 9, 51, 89
1, 90481, Control_c, 3, 1, 51
1, 90482, Note_on_c, 13, 57, 96
1, 90482, Note_on_c, 13, 50, 96
1, 90514, Control_c, 3, 1, 56
1, 90540, Note_off_c, 9, 35, 64
1, 90548, Note_off_c, 9, 51, 64
1, 90570, Control_c, 3, 1, 48
1, 90578, Note_off_c, 3, 57, 64
1, 90603, Control_c, 3, 1, 0
1, 90673, Note_off_c, 1, 26, 64
1, 90716, Note_on_c, 3, 62, 105
1, 90716, Lyric_t, "And "
1, 90718, Note_on_c, 9, 51, 105
1, 90718, Note_off_c, 13, 50, 64
1, 90718, Note_off_c, 13, 57, 64
1, 90719, Note_on_c, 1, 26, 110
1, 90719, Note_on_c, 9, 38, 122
1, 90722, Note_on_c, 13, 57, 100
1, 90723, Note_on_c, 13, 50, 100
1, 90773, Note_off_c, 9, 38, 64
1, 90774, Note_off_c, 9, 51, 64
1, 90860, Note_off_c, 2, 69, 64
1, 90907, Note_off_c, 1, 26, 64
1, 90942, Note_off_c, 3, 62, 64
1, 90955, Note_off_c, 13, 50, 64
1, 90956, Note_off_c, 13, 57, 64
1, 90957, Note_on_c, 4, 65, 110
1, 90958, Note_on_c, 1, 26, 105
1, 90960, Note_on_c, 2, 69, 105
1, 90960, Note_on_c, 3, 69, 122
1, 90960, Note_on_c, 9, 51, 69
1, 90960, Lyric_t, "now "
1, 90961, Note_on_c, 13, 57, 96
1, 90962, Note_on_c, 13, 50, 100
1, 90967, Pitch_bend_c, 3, 8116
1, 90978, Pitch_bend_c, 3, 7130
1, 90989, Pitch_bend_c, 3, 6674
1, 91000, Pitch_bend_c, 3, 6447
1, 91020, Note_off_c, 9, 51, 64
1, 91033, Pitch_bend_c, 3, 7281
1, 91045, Pitch_bend_c, 3, 8192
1, 91075, Note_on_c, 9, 35, 127
1, 91138, Note_off_c, 9, 35, 64
1, 91141, Note_off_c, 1, 26, 64
1, 91195, Note_on_c, 1, 26, 105
1, 91198, Note_off_c, 13, 50, 64
1, 91199, Note_on_c, 9, 51, 105
1, 91199, Note_off_c, 13, 57, 64
1, 91202, Note_on_c, 13, 50, 100
1, 91203, Note_on_c, 13, 57, 96
1, 91256, Note_off_c, 9, 51, 64
1, 91306, Note_off_c, 2, 81, 64
1, 91388, Note_off_c, 1, 26, 64
1, 91438, Note_on_c, 1, 26, 105
1, 91439, Note_on_c, 9, 51, 77
1, 91440, Note_on_c, 9, 35, 122
1, 91450, Note_on_c, 13, 57, 96
1, 91450, Note_on_c, 13, 50, 100
1, 91453, Note_off_c, 13, 57, 64
1, 91453, Note_off_c, 13, 50, 64
1, 91505, Note_off_c, 9, 35, 64
1, 91507, Note_off_c, 9, 51, 64
1, 91625, Note_off_c, 1, 26, 64
1, 91658, Control_c, 3, 1, 1
1, 91677, Note_on_c, 2, 81, 105
1, 91679, Note_on_c, 1, 26, 110
1, 91680, Note_on_c, 9, 38, 122
1, 91680, Note_on_c, 9, 51, 110
1, 91689, Note_off_c, 13, 50, 64
1, 91690, Note_off_c, 13, 57, 64
1, 91692, Note_on_c, 13, 57, 96
1, 91693, Note_on_c, 13, 50, 100
1, 91713, Control_c, 3, 1, 6
1, 91734, Note_off_c, 9, 38, 64
1, 91744, Note_off_c, 9, 51, 64
1, 91780, Control_c, 3, 1, 11
1, 91808, Note_off_c, 2, 69, 64
1, 91836, Control_c, 3, 1, 16
1, 91841, Note_off_c, 2, 50, 64
1, 91849, Note_off_c, 2, 38, 64
1, 91862, Note_off_c, 1, 26, 64
1, 91881, Note_off_c, 2, 74, 64
1, 91885, Note_off_c, 2, 81, 64
1, 91898, Note_off_c, 2, 77, 64
1, 91913, Control_c, 3, 1, 21
1, 91915, Note_on_c, 2, 69, 92
1, 91917, Note_on_c, 1, 26, 115
1, 91922, Note_on_c, 9, 51, 80
1, 91923, Note_off_c, 13, 50, 64
1, 91923, Note_off_c, 13, 57, 64
1, 91930, Note_on_c, 13, 50, 96
1, 91930, Note_on_c, 13, 57, 96
1, 91969, Control_c, 3, 1, 26
1, 91976, Note_off_c, 9, 51, 64
1, 92010, Note_off_c, 2, 69, 64
1, 92013, Control_c, 3, 1, 31
1, 92040, Note_on_c, 9, 36, 110
1, 92091, Control_c, 3, 1, 36
1, 92093, Note_off_c, 9, 36, 64
1, 92113, Note_off_c, 1, 26, 64
1, 92118, Note_off_c, 11, 86, 64
1, 92121, Note_off_c, 7, 69, 64
1, 92121, Note_off_c, 7, 62, 64
1, 92144, Note_off_c, 7, 50, 64
1, 92145, Note_off_c, 11, 77, 64
1, 92147, Note_off_c, 12, 38, 64
1, 92148, Control_c, 2, 64, 0
1, 92148, Note_on_c, 2, 72, 96
1, 92149, Note_on_c, 2, 76, 110
1, 92150, Note_on_c, 1, 36, 110
1, 92150, Note_on_c, 2, 79, 110
1, 92150, Note_on_c, 2, 36, 83
1, 92151, Note_on_c, 2, 48, 92
1, 92151, Note_on_c, 7, 67, 89
1, 92152, Note_on_c, 7, 64, 86
1, 92152, Note_on_c, 7, 48, 92
1, 92153, Note_on_c, 7, 60, 80
1, 92155, Note_on_c, 12, 48, 122
1, 92158, Note_on_c, 9, 35, 122
1, 92160, Note_on_c, 9, 51, 105
1, 92162, Note_off_c, 13, 57, 64
1, 92162, Note_off_c, 13, 50, 64
1, 92164, Note_on_c, 11, 84, 92
1, 92166, Note_on_c, 11, 60, 96
1, 92166, Note_on_c, 11, 79, 96
1, 92167, Note_on_c, 11, 76, 77
1, 92168, Note_on_c, 13, 55, 92
1, 92168, Note_on_c, 13, 48, 100
1, 92173, Note_off_c, 7, 65, 64
1, 92186, Note_off_c, 11, 62, 64
1, 92191, Control_c, 3, 1, 41
1, 92201, Note_off_c, 11, 81, 64
1, 92216, Note_off_c, 9, 35, 64
1, 92225, Note_off_c, 9, 51, 64
1, 92280, Control_c, 3, 1, 46
1, 92332, Note_off_c, 1, 36, 64
1, 92358, Control_c, 3, 1, 51
1, 92363, Control_c, 2, 64, 127
1, 92395, Note_on_c, 1, 36, 105
1, 92397, Note_on_c, 9, 35, 127
1, 92399, Note_on_c, 9, 51, 80
1, 92410, Note_off_c, 13, 48, 64
1, 92410, Note_off_c, 13, 55, 64
1, 92411, Note_on_c, 13, 55, 89
1, 92412, Note_on_c, 13, 48, 100
1, 92425, Control_c, 3, 1, 56
1, 92447, Note_off_c, 9, 51, 64
1, 92463, Note_off_c, 9, 35, 64
1, 92469, Control_c, 3, 1, 61
1, 92514, Control_c, 3, 1, 66
1, 92571, Note_off_c, 1, 36, 64
1, 92603, Control_c, 3, 1, 71
1, 92634, Note_on_c, 1, 36, 105
1, 92638, Note_on_c, 9, 38, 122
1, 92638, Note_on_c, 9, 51, 105
1, 92642, Note_off_c, 13, 48, 64
1, 92642, Note_off_c, 13, 55, 64
1, 92649, Note_on_c, 13, 55, 89
1, 92649, Note_on_c, 13, 48, 100
1, 92659, Control_c, 3, 1, 81
1, 92693, Note_off_c, 9, 38, 64
1, 92701, Note_off_c, 9, 51, 64
1, 92703, Control_c, 3, 1, 91
1, 92747, Control_c, 3, 1, 86
1, 92781, Control_c, 3, 1, 0
1, 92811, Note_off_c, 1, 36, 64
1, 92860, Note_off_c, 3, 69, 64
1, 92862, Note_off_c, 4, 65, 64
1, 92869, Pitch_bend_c, 3, 6750
1, 92875, Note_on_c, 1, 36, 100
1, 92875, Note_on_c, 2, 69, 105
1, 92879, Note_on_c, 4, 62, 100
1, 92879, Note_on_c, 9, 51, 75
1, 92880, Pitch_bend_c, 3, 5082
1, 92885, Note_off_c, 13, 48, 64
1, 92885, Note_off_c, 13, 55, 64
1, 92889, Note_on_c, 13, 55, 92
1, 92889, Note_on_c, 13, 48, 105
1, 92891, Pitch_bend_c, 3, 4171
1, 92892, Note_on_c, 3, 65, 115
1, 92892, Lyric_t, "some"
1, 92902, Pitch_bend_c, 3, 3944
1, 92924, Pitch_bend_c, 3, 4399
1, 92928, Note_off_c, 9, 51, 64
1, 92935, Pitch_bend_c, 3, 5309
1, 92946, Pitch_bend_c, 3, 7130
1, 92957, Pitch_bend_c, 3, 8192
1, 92993, Note_on_c, 9, 35, 122
1, 93048, Note_off_c, 1, 36, 64
1, 93060, Note_off_c, 9, 35, 64
1, 93111, Note_on_c, 1, 36, 100
1, 93117, Note_on_c, 9, 51, 105
1, 93119, Note_off_c, 13, 48, 64
1, 93120, Note_off_c, 13, 55, 64
1, 93126, Note_on_c, 13, 55, 96
1, 93127, Note_on_c, 13, 48, 105
1, 93176, Note_off_c, 9, 51, 64
1, 93193, Control_c, 3, 1, 11
1, 93225, Control_c, 3, 1, 36
1, 93281, Control_c, 3, 1, 0
1, 93307, Note_off_c, 1, 36, 64
1, 93326, Note_off_c, 3, 65, 64
1, 93357, Note_off_c, 4, 62, 64
1, 93358, Note_on_c, 1, 36, 100
1, 93358, Note_on_c, 9, 51, 77
1, 93358, Note_on_c, 9, 35, 122
1, 93363, Note_on_c, 3, 64, 115
1, 93363, Lyric_t, "how "
1, 93364, Note_off_c, 13, 48, 64
1, 93365, Note_off_c, 13, 55, 64
1, 93368, Note_on_c, 4, 60, 92
1, 93368, Note_on_c, 13, 48, 105
1, 93368, Note_on_c, 13, 55, 96
1, 93413, Note_off_c, 9, 51, 64
1, 93428, Note_off_c, 9, 35, 64
1, 93481, Note_off_c, 2, 79, 64
1, 93537, Note_off_c, 1, 36, 64
1, 93571, Control_c, 3, 1, 22
1, 93596, Note_on_c, 1, 36, 100
1, 93597, Note_on_c, 9, 38, 122
1, 93597, Note_on_c, 9, 51, 105
1, 93602, Note_off_c, 13, 55, 64
1, 93603, Note_on_c, 2, 79, 110
1, 93603, Note_off_c, 13, 48, 64
1, 93604, Control_c, 3, 1, 42
1, 93607, Note_on_c, 13, 48, 105
1, 93608, Note_on_c, 13, 55, 96
1, 93650, Note_off_c, 9, 38, 64
1, 93659, Control_c, 3, 1, 0
1, 93659, Note_off_c, 9, 51, 64
1, 93678, Note_off_c, 3, 64, 64
1, 93752, Note_off_c, 2, 69, 64
1, 93780, Note_off_c, 1, 36, 64
1, 93780, Note_off_c, 4, 60, 64
1, 93804, Pitch_bend_c, 3, 7812
1, 93815, Pitch_bend_c, 3, 5461
1, 93827, Pitch_bend_c, 3, 2503
1, 93836, Note_on_c, 1, 36, 100
1, 93836, Note_off_c, 13, 55, 64
1, 93836, Note_off_c, 13, 48, 64
1, 93838, Note_on_c, 2, 69, 89
1, 93838, Pitch_bend_c, 3, 1289
1, 93838, Note_on_c, 9, 51, 80
1, 93841, Note_on_c, 4, 64, 100
1, 93844, Note_on_c, 3, 67, 115
1, 93844, Note_on_c, 13, 55, 96
1, 93844, Lyric_t, "all "
1, 93845, Note_on_c, 13, 48, 100
1, 93860, Pitch_bend_c, 3, 1592
1, 93871, Pitch_bend_c, 3, 2427
1, 93882, Pitch_bend_c, 3, 3716
1, 93893, Pitch_bend_c, 3, 5613
1, 93896, Note_off_c, 9, 51, 64
1, 93904, Pitch_bend_c, 3, 8192
1, 93913, Note_off_c, 2, 48, 64
1, 93913, Note_off_c, 2, 36, 64
1, 93959, Note_on_c, 9, 36, 110
1, 93966, Note_off_c, 2, 69, 64
1, 93971, Note_off_c, 2, 72, 64
1, 93971, Note_off_c, 2, 76, 64
1, 93972, Note_off_c, 2, 79, 64
1, 94008, Note_off_c, 1, 36, 64
1, 94011, Note_off_c, 9, 36, 64
1, 94023, Note_off_c, 11, 76, 64
1, 94026, Note_off_c, 11, 79, 64
1, 94045, Control_c, 2, 64, 0
1, 94050, Note_off_c, 7, 64, 64
1, 94052, Note_off_c, 7, 60, 64
1, 94056, Note_off_c, 11, 69, 64
1, 94058, Note_off_c, 7, 57, 64
1, 94061, Note_off_c, 7, 48, 64
1, 94061, Note_off_c, 7, 67, 64
1, 94062, Note_off_c, 11, 60, 64
1, 94065, Note_on_c, 7, 46, 73
1, 94065, Note_on_c, 7, 53, 75
1, 94067, Note_on_c, 7, 65, 83
1, 94069, Note_on_c, 7, 58, 77
1, 94070, Note_on_c, 11, 58, 73
1, 94071, Note_on_c, 2, 46, 83
1, 94072, Note_on_c, 7, 60, 89
1, 94072, Note_on_c, 12, 46, 110
1, 94073, Note_on_c, 7, 62, 86
1, 94073, Note_on_c, 11, 65, 77
1, 94074, Note_on_c, 11, 82, 80
1, 94075, Note_on_c, 1, 34, 110
1, 94075, Note_on_c, 2, 34, 86
1, 94075, Note_on_c, 2, 65, 86
1, 94075, Note_on_c, 11, 74, 77
1, 94076, Note_on_c, 2, 74, 105
1, 94076, Note_on_c, 11, 77, 86
1, 94076, Note_off_c, 12, 48, 64
1, 94077, Note_on_c, 2, 70, 110
1, 94077, Note_on_c, 2, 77, 105
1, 94078, Note_off_c, 13, 48, 64
1, 94078, Note_off_c, 13, 55, 64
1, 94079, Note_on_c, 9, 51, 105
1, 94080, Note_on_c, 9, 35, 115
1, 94083, Note_on_c, 13, 53, 92
1, 94084, Note_on_c, 13, 46, 100
1, 94100, Note_off_c, 11, 84, 64
1, 94137, Note_off_c, 9, 35, 64
1, 94143, Note_off_c, 9, 51, 64
1, 94173, Control_c, 3, 1, 2
1, 94206, Control_c, 3, 1, 24
1, 94262, Control_c, 3, 1, 0
1, 94270, Note_off_c, 4, 64, 64
1, 94281, Note_off_c, 1, 34, 64
1, 94301, Note_off_c, 3, 67, 64
1, 94304, Control_c, 2, 64, 127
1, 94315, Note_off_c, 13, 46, 64
1, 94316, Note_off_c, 13, 53, 64
1, 94318, Note_on_c, 9, 51, 75
1, 94319, Note_on_c, 9, 35, 122
1, 94322, Note_on_c, 4, 62, 105
1, 94322, Note_on_c, 13, 53, 100
1, 94322, Note_on_c, 13, 46, 100
1, 94324, Note_on_c, 1, 34, 110
1, 94331, Note_on_c, 3, 65, 110
1, 94331, Lyric_t, "that's\015"
1, 94378, Note_off_c, 9, 51, 64
1, 94387, Note_off_c, 9, 35, 64
1, 94504, Note_off_c, 1, 34, 64
1, 94553, Note_off_c, 13, 46, 64
1, 94553, Note_off_c, 13, 53, 64
1, 94556, Note_on_c, 9, 38, 122
1, 94557, Note_on_c, 9, 51, 105
1, 94559, Note_on_c, 13, 46, 96
1, 94560, Note_on_c, 13, 53, 96
1, 94562, Note_on_c, 1, 34, 110
1, 94606, Control_c, 3, 1, 21
1, 94611, Note_off_c, 9, 38, 64
1, 94618, Note_off_c, 9, 51, 64
1, 94640, Control_c, 3, 1, 42
1, 94685, Control_c, 3, 1, 34
1, 94697, Note_off_c, 2, 65, 64
1, 94718, Control_c, 3, 1, 0
1, 94751, Note_off_c, 1, 34, 64
1, 94770, Note_off_c, 3, 65, 64
1, 94781, Note_off_c, 4, 62, 64
1, 94787, Note_on_c, 2, 65, 100
1, 94798, Note_on_c, 9, 51, 75
1, 94799, Note_on_c, 3, 64, 115
1, 94799, Lyric_t, "left "
1, 94801, Note_off_c, 13, 53, 64
1, 94801, Note_off_c, 13, 46, 64
1, 94802, Note_on_c, 13, 46, 100
1, 94803, Note_on_c, 13, 53, 100
1, 94804, Note_on_c, 1, 34, 110
1, 94805, Note_on_c, 4, 60, 100
1, 94855, Note_off_c, 9, 51, 64
1, 94917, Note_on_c, 9, 35, 127
1, 94981, Note_off_c, 1, 34, 64
1, 94983, Note_off_c, 9, 35, 64
1, 95036, Note_off_c, 13, 53, 64
1, 95036, Note_off_c, 13, 46, 64
1, 95037, Note_on_c, 9, 51, 105
1, 95041, Note_on_c, 1, 34, 110
1, 95041, Note_on_c, 13, 53, 96
1, 95043, Note_on_c, 13, 46, 100
1, 95051, Control_c, 3, 1, 16
1, 95085, Control_c, 3, 1, 39
1, 95100, Note_off_c, 9, 51, 64
1, 95129, Control_c, 3, 1, 39
1, 95162, Control_c, 3, 1, 0
1, 95225, Note_off_c, 1, 34, 64
1, 95233, Note_off_c, 2, 70, 64
1, 95234, Note_off_c, 3, 64, 64
1, 95245, Note_off_c, 2, 77, 64
1, 95265, Note_off_c, 2, 74, 64
1, 95271, Note_off_c, 4, 60, 64
1, 95272, Note_on_c, 3, 62, 105
1, 95272, Note_off_c, 13, 46, 64
1, 95272, Lyric_t, "are "
1, 95273, Note_off_c, 13, 53, 64
1, 95278, Note_on_c, 9, 35, 122
1, 95279, Note_on_c, 9, 51, 77
1, 95279, Note_on_c, 13, 53, 100
1, 95280, Note_on_c, 1, 34, 105
1, 95280, Note_on_c, 13, 46, 105
1, 95282, Note_on_c, 4, 58, 100
1, 95338, Note_off_c, 9, 51, 64
1, 95343, Note_off_c, 9, 35, 64
1, 95468, Note_off_c, 1, 34, 64
1, 95507, Control_c, 3, 1, 14
1, 95512, Note_on_c, 2, 74, 105
1, 95513, Note_on_c, 2, 77, 110
1, 95514, Note_on_c, 2, 70, 96
1, 95519, Note_on_c, 1, 34, 110
1, 95519, Note_on_c, 9, 38, 122
1, 95519, Note_off_c, 13, 46, 64
1, 95520, Note_on_c, 9, 51, 105
1, 95520, Note_off_c, 13, 53, 64
1, 95521, Note_on_c, 13, 46, 100
1, 95522, Note_on_c, 13, 53, 100
1, 95539, Note_off_c, 2, 34, 64
1, 95541, Control_c, 3, 1, 36
1, 95555, Note_off_c, 2, 46, 64
1, 95572, Note_off_c, 9, 38, 64
1, 95574, Control_c, 3, 1, 48
1, 95583, Note_off_c, 9, 51, 64
1, 95628, Note_off_c, 3, 62, 64
1, 95630, Control_c, 3, 1, 0
1, 95671, Note_off_c, 2, 65, 64
1, 95682, Note_off_c, 4, 58, 64
1, 95698, Note_off_c, 1, 34, 64
1, 95728, Note_off_c, 2, 77, 64
1, 95734, Note_off_c, 2, 70, 64
1, 95739, Note_off_c, 2, 74, 64
1, 95754, Note_off_c, 13, 53, 64
1, 95755, Note_on_c, 2, 65, 77
1, 95755, Note_off_c, 13, 46, 64
1, 95759, Note_on_c, 9, 51, 75
1, 95760, Note_on_c, 1, 34, 110
1, 95760, Note_on_c, 13, 53, 96
1, 95761, Note_on_c, 13, 46, 100
1, 95816, Note_off_c, 9, 51, 64
1, 95875, Note_off_c, 2, 65, 64
1, 95880, Note_on_c, 9, 36, 110
1, 95929, Note_off_c, 1, 34, 64
1, 95941, Note_off_c, 9, 36, 64
1, 95947, Note_off_c, 11, 77, 64
1, 95954, Note_off_c, 11, 82, 64
1, 95958, Note_off_c, 7, 53, 64
1, 95971, Note_off_c, 7, 60, 64
1, 95977, Note_off_c, 7, 58, 64
1, 95981, Note_off_c, 11, 58, 64
1, 95988, Note_on_c, 2, 74, 100
1, 95989, Note_on_c, 2, 76, 100
1, 95989, Note_on_c, 7, 45, 80
1, 95990, Note_on_c, 7, 64, 89
1, 95991, Note_on_c, 2, 64, 96
1, 95991, Note_on_c, 2, 69, 96
1, 95991, Note_off_c, 13, 46, 64
1, 95992, Note_on_c, 1, 33, 115
1, 95992, Note_on_c, 2, 45, 80
1, 95992, Note_on_c, 2, 33, 83
1, 95992, Note_off_c, 7, 46, 64
1, 95992, Note_on_c, 7, 57, 77
1, 95992, Note_off_c, 13, 53, 64
1, 95994, Note_on_c, 7, 52, 83
1, 95996, Note_on_c, 11, 57, 77
1, 95996, Note_on_c, 11, 76, 89
1, 95996, Note_off_c, 12, 46, 64
1, 95997, Note_on_c, 9, 51, 105
1, 95997, Note_on_c, 11, 64, 77
1, 95998, Note_on_c, 9, 35, 122
1, 95998, Note_on_c, 11, 81, 96
1, 95998, Note_on_c, 13, 52, 100
1, 95999, Note_on_c, 12, 45, 115
1, 95999, Note_on_c, 13, 45, 105
1, 96000, Tempo, 619336
1, 96004, Control_c, 2, 64, 0
1, 96009, Note_off_c, 7, 65, 64
1, 96017, Note_off_c, 11, 65, 64
1, 96054, Note_off_c, 9, 51, 64
1, 96058, Note_off_c, 9, 35, 64
1, 96166, Pitch_bend_c, 3, 7281
1, 96177, Pitch_bend_c, 3, 4626
1, 96183, Note_off_c, 1, 33, 64
1, 96188, Pitch_bend_c, 3, 2730
1, 96199, Pitch_bend_c, 3, 2427
1, 96214, Control_c, 2, 64, 127
1, 96221, Pitch_bend_c, 3, 3792
1, 96225, Note_on_c, 3, 65, 110
1, 96225, Lyric_t, "pie"
1, 96232, Pitch_bend_c, 3, 5082
1, 96236, Note_on_c, 1, 33, 115
1, 96237, Note_on_c, 9, 51, 75
1, 96237, Note_on_c, 9, 35, 127
1, 96239, Note_off_c, 13, 45, 64
1, 96239, Note_off_c, 13, 52, 64
1, 96241, Note_on_c, 13, 52, 100
1, 96242, Note_on_c, 13, 45, 100
1, 96243, Pitch_bend_c, 3, 7054
1, 96255, Pitch_bend_c, 3, 8192
1, 96298, Note_off_c, 9, 51, 64
1, 96303, Note_off_c, 9, 35, 64
1, 96418, Note_off_c, 1, 33, 64
1, 96471, Note_on_c, 3, 64, 105
1, 96471, Lyric_t, "ces "
1, 96474, Note_on_c, 1, 33, 110
1, 96474, Note_off_c, 13, 45, 64
1, 96475, Note_off_c, 13, 52, 64
1, 96477, Note_on_c, 9, 51, 100
1, 96478, Note_on_c, 9, 38, 122
1, 96480, Note_on_c, 13, 52, 100
1, 96480, Note_on_c, 13, 45, 105
1, 96494, Note_off_c, 3, 65, 64
1, 96535, Note_off_c, 9, 38, 64
1, 96538, Note_off_c, 9, 51, 64
1, 96667, Note_off_c, 1, 33, 64
1, 96701, Control_c, 3, 1, 2
1, 96710, Note_on_c, 3, 62, 105
1, 96710, Lyric_t, "of "
1, 96715, Note_on_c, 1, 33, 110
1, 96716, Note_on_c, 9, 51, 75
1, 96718, Note_off_c, 3, 64, 64
1, 96718, Note_off_c, 13, 45, 64
1, 96719, Note_off_c, 13, 52, 64
1, 96721, Note_on_c, 13, 52, 100
1, 96722, Note_on_c, 13, 45, 105
1, 96745, Control_c, 3, 1, 0
1, 96783, Note_off_c, 9, 51, 64
1, 96838, Note_on_c, 9, 35, 122
1, 96898, Note_off_c, 1, 33, 64
1, 96904, Note_off_c, 2, 76, 64
1, 96904, Note_off_c, 11, 74, 64
1, 96905, Note_off_c, 9, 35, 64
1, 96924, Note_off_c, 2, 69, 64
1, 96924, Note_off_c, 2, 64, 64
1, 96925, Note_off_c, 2, 74, 64
1, 96950, Note_on_c, 7, 61, 92
1, 96952, Note_on_c, 1, 33, 110
1, 96954, Note_on_c, 10, 85, 80
1, 96954, Note_off_c, 13, 45, 64
1, 96955, Note_on_c, 9, 51, 100
1, 96955, Note_on_c, 10, 73, 71
1, 96955, Note_off_c, 13, 52, 64
1, 96957, Note_on_c, 11, 73, 77
1, 96959, Note_off_c, 10, 74, 64
1, 96960, Note_on_c, 13, 52, 96
1, 96961, Note_on_c, 13, 45, 100
1, 96962, Note_on_c, 2, 64, 80
1, 96962, Note_on_c, 2, 69, 100
1, 96963, Note_on_c, 2, 76, 96
1, 96964, Note_on_c, 2, 73, 100
1, 96975, Note_off_c, 7, 62, 64
1, 96993, Note_off_c, 10, 86, 64
1, 97000, Control_c, 2, 64, 0
1, 97015, Note_off_c, 9, 51, 64
1, 97045, Control_c, 3, 1, 9
1, 97079, Control_c, 3, 1, 22
1, 97134, Control_c, 3, 1, 0
1, 97150, Note_off_c, 1, 33, 64
1, 97193, Control_c, 2, 64, 127
1, 97193, Note_off_c, 3, 62, 64
1, 97194, Note_on_c, 9, 51, 80
1, 97196, Note_on_c, 3, 61, 105
1, 97196, Lyric_t, "a...\012"
1, 97198, Note_on_c, 1, 33, 115
1, 97198, Note_on_c, 9, 35, 122
1, 97200, Note_off_c, 13, 45, 64
1, 97201, Note_off_c, 13, 52, 64
1, 97202, Note_on_c, 13, 52, 96
1, 97203, Note_on_c, 13, 45, 105
1, 97262, Note_off_c, 9, 51, 64
1, 97271, Note_off_c, 9, 35, 64
1, 97417, Note_off_c, 1, 33, 64
1, 97434, Note_off_c, 13, 45, 64
1, 97435, Note_off_c, 13, 52, 64
1, 97437, Note_on_c, 9, 52, 105
1, 97438, Note_on_c, 9, 38, 122
1, 97440, Note_on_c, 1, 31, 105
1, 97441, Note_on_c, 13, 52, 96
1, 97442, Note_on_c, 13, 45, 105
1, 97497, Note_off_c, 9, 52, 64
1, 97512, Note_off_c, 9, 38, 64
1, 97524, Control_c, 3, 1, 9
1, 97540, Note_off_c, 2, 45, 64
1, 97544, Note_off_c, 2, 33, 64
1, 97557, Control_c, 3, 1, 16
1, 97559, Note_on_c, 1, 33, 96
1, 97565, Note_off_c, 2, 64, 64
1, 97566, Note_off_c, 2, 69, 64
1, 97567, Note_off_c, 1, 31, 64
1, 97567, Note_off_c, 2, 73, 64
1, 97574, Note_off_c, 2, 76, 64
1, 97591, Control_c, 3, 1, 22
1, 97635, Control_c, 3, 1, 32
1, 97645, Note_off_c, 1, 33, 64
1, 97668, Control_c, 3, 1, 37
1, 97672, Note_on_c, 1, 29, 110
1, 97676, Note_off_c, 13, 45, 64
1, 97677, Note_on_c, 9, 51, 77
1, 97678, Note_off_c, 13, 52, 64
1, 97679, Note_on_c, 9, 43, 110
1, 97681, Note_on_c, 13, 52, 100
1, 97682, Note_on_c, 13, 45, 105
1, 97713, Control_c, 3, 1, 49
1, 97731, Note_off_c, 9, 51, 64
1, 97746, Control_c, 3, 1, 61
1, 97751, Note_off_c, 9, 43, 64
1, 97796, Note_on_c, 9, 36, 110
1, 97799, Note_on_c, 9, 41, 110
1, 97810, Note_off_c, 3, 61, 64
1, 97813, Control_c, 3, 1, 0
1, 97822, Note_off_c, 9, 36, 64
1, 97837, Note_off_c, 9, 41, 64
1, 97900, Note_off_c, 10, 85, 64
1, 97903, Note_off_c, 10, 73, 64
1, 97910, Note_on_c, 10, 76, 100
1, 97911, Note_on_c, 12, 45, 115
1, 97912, Note_on_c, 10, 64, 83
1, 97913, Note_off_c, 7, 57, 64
1, 97913, Note_on_c, 11, 76, 96
1, 97913, Note_on_c, 11, 69, 83
1, 97914, Note_off_c, 7, 61, 64
1, 97914, Note_on_c, 11, 73, 100
1, 97914, Note_off_c, 11, 76, 64
1, 97914, Note_off_c, 13, 45, 64
1, 97915, Note_off_c, 11, 73, 64
1, 97915, Note_off_c, 13, 52, 64
1, 97916, Note_on_c, 2, 61, 115
1, 97916, Note_on_c, 9, 35, 122
1, 97916, Note_on_c, 11, 45, 96
1, 97917, Note_on_c, 2, 64, 105
1, 97917, Note_on_c, 7, 64, 96
1, 97917, Note_off_c, 11, 57, 64
1, 97917, Note_off_c, 12, 45, 64
1, 97918, Note_on_c, 2, 57, 96
1, 97918, Control_c, 2, 64, 0
1, 97918, Note_on_c, 2, 45, 89
1, 97918, Note_on_c, 7, 55, 77
1, 97918, Note_on_c, 7, 61, 92
1, 97918, Note_off_c, 11, 64, 64
1, 97919, Note_on_c, 2, 52, 92
1, 97919, Control_c, 7, 7, 72
1, 97919, Control_c, 10, 7, 60
1, 97919, Control_c, 11, 7, 75
1, 97919, Control_c, 12, 7, 76
1, 97919, Control_c, 13, 7, 65
1, 97920, Note_on_c, 7, 45, 89
1, 97920, Note_on_c, 7, 52, 77
1, 97920, Control_c, 7, 7, 72
1, 97920, Note_on_c, 9, 49, 115
1, 97920, Control_c, 10, 7, 60
1, 97920, Note_off_c, 11, 81, 64
1, 97920, Control_c, 11, 7, 75
1, 97920, Control_c, 12, 7, 76
1, 97921, Note_off_c, 7, 64, 64
1, 97924, Note_off_c, 1, 29, 64
1, 97924, Note_on_c, 1, 33, 122
1, 97927, Note_off_c, 7, 52, 64
1, 97932, Note_off_c, 7, 45, 64
1, 97976, Note_off_c, 9, 35, 64
1, 97978, Note_off_c, 9, 49, 64
1, 98036, Control_c, 2, 64, 127
1, 98127, Note_off_c, 1, 33, 64
1, 98152, Note_on_c, 3, 61, 100
1, 98152, Lyric_t, "The "
1, 98156, Note_on_c, 9, 35, 122
1, 98158, Note_on_c, 9, 51, 100
1, 98169, Note_on_c, 1, 33, 110
1, 98207, Note_off_c, 9, 51, 64
1, 98214, Note_off_c, 9, 35, 64
1, 98301, Note_off_c, 2, 64, 64
1, 98304, Note_off_c, 2, 57, 64
1, 98321, Note_off_c, 2, 61, 64
1, 98354, Note_off_c, 1, 33, 64
1, 98361, Note_off_c, 3, 61, 64
1, 98396, Note_on_c, 9, 51, 115
1, 98399, Note_on_c, 2, 64, 105
1, 98399, Note_on_c, 2, 57, 100
1, 98399, Note_on_c, 3, 61, 92
1, 98399, Lyric_t, "fad"
1, 98400, Note_on_c, 2, 61, 110
1, 98400, Note_on_c, 9, 38, 122
1, 98407, Note_on_c, 1, 33, 110
1, 98442, Note_off_c, 9, 51, 64
1, 98454, Note_off_c, 9, 38, 64
1, 98495, Note_off_c, 2, 52, 64
1, 98531, Note_off_c, 2, 45, 64
1, 98600, Note_off_c, 3, 61, 64
1, 98606, Note_off_c, 1, 33, 64
1, 98636, Note_on_c, 9, 51, 100
1, 98639, Note_on_c, 3, 61, 92
1, 98639, Lyric_t, "ed "
1, 98645, Note_on_c, 2, 52, 80
1, 98645, Note_on_c, 2, 45, 80
1, 98653, Note_on_c, 1, 33, 115
1, 98695, Note_off_c, 9, 51, 64
1, 98761, Note_on_c, 9, 35, 127
1, 98772, Note_off_c, 2, 64, 64
1, 98785, Note_off_c, 2, 57, 64
1, 98794, Note_off_c, 2, 61, 64
1, 98826, Note_off_c, 9, 35, 64
1, 98835, Note_off_c, 1, 33, 64
1, 98842, Note_off_c, 3, 61, 64
1, 98879, Note_on_c, 9, 51, 110
1, 98882, Note_on_c, 2, 55, 86
1, 98883, Note_on_c, 2, 57, 100
1, 98883, Note_on_c, 2, 64, 100
1, 98884, Note_on_c, 2, 61, 110
1, 98884, Note_on_c, 3, 61, 96
1, 98884, Lyric_t, "pho"
1, 98891, Note_on_c, 1, 33, 115
1, 98929, Note_off_c, 9, 51, 64
1, 98996, Note_off_c, 2, 52, 64
1, 98997, Note_off_c, 2, 45, 64
1, 99078, Note_off_c, 1, 33, 64
1, 99104, Note_off_c, 3, 61, 64
1, 99120, Note_on_c, 9, 51, 92
1, 99120, Note_on_c, 9, 35, 122
1, 99124, Note_on_c, 2, 52, 89
1, 99125, Note_on_c, 2, 45, 86
1, 99125, Note_on_c, 3, 62, 96
1, 99125, Lyric_t, "to"
1, 99132, Note_on_c, 1, 33, 110
1, 99176, Note_off_c, 9, 51, 64
1, 99184, Note_off_c, 9, 35, 64
1, 99235, Note_off_c, 2, 55, 64
1, 99240, Note_off_c, 2, 57, 64
1, 99241, Note_off_c, 2, 64, 64
1, 99253, Note_off_c, 2, 61, 64
1, 99325, Note_off_c, 1, 33, 64
1, 99356, Note_off_c, 3, 62, 64
1, 99357, Note_on_c, 2, 64, 105
1, 99357, Note_on_c, 2, 57, 100
1, 99358, Note_on_c, 2, 61, 105
1, 99358, Note_on_c, 9, 38, 122
1, 99360, Note_on_c, 9, 51, 110
1, 99361, Note_on_c, 3, 64, 110
1, 99361, Lyric_t, "graphs.\015"
1, 99371, Note_on_c, 1, 33, 105
1, 99413, Note_off_c, 9, 38, 64
1, 99416, Note_off_c, 9, 51, 64
1, 99459, Note_off_c, 2, 45, 64
1, 99473, Note_off_c, 2, 52, 64
1, 99523, Note_off_c, 2, 61, 64
1, 99542, Note_off_c, 2, 57, 64
1, 99545, Note_off_c, 2, 64, 64
1, 99553, Note_off_c, 1, 33, 64
1, 99557, Control_c, 3, 1, 2
1, 99594, Note_on_c, 2, 45, 73
1, 99595, Note_on_c, 2, 52, 73
1, 99600, Note_on_c, 9, 51, 92
1, 99601, Control_c, 3, 1, 14
1, 99608, Note_on_c, 1, 33, 105
1, 99634, Control_c, 3, 1, 22
1, 99649, Note_off_c, 9, 51, 64
1, 99679, Control_c, 3, 1, 36
1, 99712, Control_c, 3, 1, 42
1, 99722, Note_on_c, 9, 36, 110
1, 99737, Note_off_c, 2, 52, 64
1, 99750, Note_off_c, 2, 45, 64
1, 99757, Control_c, 3, 1, 61
1, 99770, Note_off_c, 1, 33, 64
1, 99772, Note_off_c, 11, 73, 64
1, 99789, Note_off_c, 7, 52, 64
1, 99790, Control_c, 3, 1, 73
1, 99791, Note_off_c, 9, 36, 64
1, 99799, Note_off_c, 11, 76, 64
1, 99800, Note_off_c, 7, 55, 64
1, 99805, Note_off_c, 7, 64, 64
1, 99807, Note_off_c, 7, 61, 64
1, 99824, Control_c, 2, 64, 0
1, 99824, Control_c, 3, 1, 64
1, 99824, Note_off_c, 3, 64, 64
1, 99827, Note_off_c, 7, 45, 64
1, 99832, Note_on_c, 7, 65, 80
1, 99832, Note_on_c, 10, 77, 86
1, 99832, Note_off_c, 12, 45, 64
1, 99834, Note_on_c, 2, 62, 100
1, 99834, Note_on_c, 7, 62, 80
1, 99834, Note_on_c, 11, 46, 86
1, 99835, Note_on_c, 2, 65, 100
1, 99835, Note_on_c, 10, 65, 77
1, 99836, Note_on_c, 2, 57, 96
1, 99836, Note_on_c, 2, 46, 105
1, 99836, Note_on_c, 11, 74, 92
1, 99837, Note_on_c, 2, 58, 100
1, 99837, Note_on_c, 7, 53, 67
1, 99837, Note_on_c, 7, 57, 86
1, 99837, Note_on_c, 12, 46, 115
1, 99838, Note_on_c, 2, 53, 75
1, 99838, Note_on_c, 7, 46, 92
1, 99839, Note_on_c, 1, 34, 115
1, 99839, Note_on_c, 9, 35, 122
1, 99839, Note_on_c, 9, 51, 110
1, 99839, Note_on_c, 11, 70, 80
1, 99839, Note_on_c, 11, 77, 96
1, 99844, Note_off_c, 11, 45, 64
1, 99856, Note_off_c, 10, 64, 64
1, 99857, Control_c, 3, 1, 0
1, 99866, Note_off_c, 10, 76, 64
1, 99891, Note_off_c, 9, 51, 64
1, 99929, Note_off_c, 9, 35, 64
1, 100019, Control_c, 2, 64, 127
1, 100030, Note_off_c, 1, 34, 64
1, 100077, Note_on_c, 9, 51, 86
1, 100078, Note_on_c, 3, 62, 92
1, 100078, Lyric_t, "The "
1, 100080, Note_on_c, 9, 35, 127
1, 100081, Note_on_c, 1, 34, 110
1, 100131, Note_off_c, 9, 51, 64
1, 100156, Note_off_c, 9, 35, 64
1, 100199, Note_off_c, 2, 65, 64
1, 100205, Note_off_c, 2, 58, 64
1, 100211, Note_off_c, 2, 57, 64
1, 100220, Note_off_c, 2, 62, 64
1, 100273, Note_off_c, 1, 34, 64
1, 100276, Note_off_c, 3, 62, 64
1, 100310, Note_on_c, 2, 65, 100
1, 100310, Note_on_c, 2, 62, 105
1, 100311, Note_on_c, 2, 57, 96
1, 100312, Note_on_c, 2, 58, 100
1, 100316, Note_on_c, 3, 62, 86
1, 100316, Note_on_c, 9, 38, 122
1, 100316, Lyric_t, "frames "
1, 100317, Note_on_c, 9, 51, 110
1, 100322, Note_on_c, 1, 34, 110
1, 100371, Note_off_c, 9, 51, 64
1, 100375, Note_off_c, 9, 38, 64
1, 100406, Note_off_c, 2, 53, 64
1, 100422, Note_off_c, 2, 46, 64
1, 100506, Note_off_c, 1, 34, 64
1, 100518, Note_off_c, 3, 62, 64
1, 100555, Note_on_c, 2, 53, 80
1, 100557, Note_on_c, 2, 46, 100
1, 100558, Note_on_c, 3, 62, 89
1, 100558, Note_on_c, 9, 51, 89
1, 100558, Lyric_t, "of "
1, 100559, Note_on_c, 1, 34, 105
1, 100612, Note_off_c, 9, 51, 64
1, 100677, Note_on_c, 9, 35, 122
1, 100693, Note_off_c, 2, 65, 64
1, 100696, Note_off_c, 2, 57, 64
1, 100696, Note_off_c, 2, 58, 64
1, 100711, Note_off_c, 2, 62, 64
1, 100741, Note_off_c, 9, 35, 64
1, 100752, Note_off_c, 1, 34, 64
1, 100753, Note_off_c, 3, 62, 64
1, 100795, Note_on_c, 2, 65, 100
1, 100796, Note_on_c, 2, 62, 100
1, 100797, Note_on_c, 2, 55, 89
1, 100797, Note_on_c, 2, 58, 96
1, 100798, Note_on_c, 9, 51, 110
1, 100799, Note_on_c, 1, 34, 105
1, 100799, Note_on_c, 3, 62, 96
1, 100799, Lyric_t, "bro"
1, 100846, Note_off_c, 9, 51, 64
1, 100894, Note_off_c, 2, 46, 64
1, 100895, Note_off_c, 2, 53, 64
1, 100998, Note_off_c, 1, 34, 64
1, 101024, Note_off_c, 3, 62, 64
1, 101037, Note_on_c, 9, 51, 89
1, 101039, Note_on_c, 9, 35, 122
1, 101040, Note_on_c, 1, 34, 100
1, 101040, Note_on_c, 2, 46, 100
1, 101041, Note_on_c, 2, 53, 86
1, 101042, Note_on_c, 3, 64, 100
1, 101042, Lyric_t, "ken "
1, 101088, Note_off_c, 9, 51, 64
1, 101099, Note_off_c, 9, 35, 64
1, 101157, Note_off_c, 2, 58, 64
1, 101158, Note_off_c, 2, 65, 64
1, 101163, Note_off_c, 2, 55, 64
1, 101169, Note_off_c, 2, 62, 64
1, 101239, Note_off_c, 1, 34, 64
1, 101273, Note_on_c, 2, 65, 105
1, 101273, Note_on_c, 2, 62, 100
1, 101274, Note_on_c, 2, 57, 100
1, 101275, Note_on_c, 2, 58, 105
1, 101276, Note_on_c, 9, 38, 122
1, 101278, Note_on_c, 9, 51, 105
1, 101279, Note_on_c, 3, 65, 100
1, 101279, Lyric_t, "glass.\015"
1, 101285, Note_on_c, 1, 34, 110
1, 101299, Note_off_c, 3, 64, 64
1, 101330, Note_off_c, 9, 38, 64
1, 101336, Note_off_c, 9, 51, 64
1, 101368, Note_off_c, 2, 46, 64
1, 101370, Note_off_c, 2, 53, 64
1, 101472, Note_off_c, 2, 58, 64
1, 101473, Note_off_c, 1, 34, 64
1, 101474, Note_off_c, 2, 62, 64
1, 101480, Control_c, 3, 1, 9
1, 101484, Note_off_c, 2, 57, 64
1, 101487, Note_off_c, 2, 65, 64
1, 101513, Note_on_c, 2, 46, 75
1, 101517, Note_on_c, 9, 51, 96
1, 101519, Note_on_c, 2, 53, 83
1, 101525, Note_on_c, 1, 34, 105
1, 101525, Control_c, 3, 1, 21
1, 101558, Control_c, 3, 1, 36
1, 101576, Note_off_c, 9, 51, 64
1, 101591, Control_c, 3, 1, 48
1, 101625, Control_c, 3, 1, 58
1, 101632, Note_off_c, 2, 53, 64
1, 101640, Note_on_c, 9, 36, 105
1, 101658, Note_off_c, 2, 46, 64
1, 101670, Note_off_c, 3, 65, 64
1, 101689, Note_off_c, 9, 36, 64
1, 101691, Control_c, 3, 1, 0
1, 101693, Note_off_c, 7, 53, 64
1, 101696, Note_off_c, 11, 77, 64
1, 101698, Note_off_c, 11, 70, 64
1, 101706, Note_off_c, 7, 65, 64
1, 101711, Note_off_c, 7, 57, 64
1, 101715, Note_off_c, 1, 34, 64
1, 101725, Note_off_c, 11, 74, 64
1, 101730, Note_off_c, 11, 46, 64
1, 101731, Note_off_c, 7, 46, 64
1, 101736, Note_off_c, 7, 62, 64
1, 101743, Note_off_c, 12, 46, 64
1, 101747, Note_on_c, 10, 64, 75
1, 101748, Note_on_c, 10, 76, 92
1, 101753, Note_on_c, 7, 52, 86
1, 101754, Note_on_c, 2, 57, 100
1, 101754, Note_on_c, 7, 45, 73
1, 101755, Note_on_c, 2, 61, 105
1, 101756, Note_on_c, 2, 64, 100
1, 101756, Note_on_c, 7, 64, 80
1, 101757, Note_on_c, 7, 55, 83
1, 101757, Note_on_c, 9, 51, 105
1, 101757, Note_off_c, 10, 65, 64
1, 101758, Note_on_c, 7, 61, 89
1, 101758, Note_on_c, 9, 35, 115
1, 101759, Note_on_c, 2, 52, 86
1, 101759, Note_on_c, 11, 45, 86
1, 101760, Note_on_c, 2, 45, 96
1, 101760, Note_on_c, 11, 76, 86
1, 101760, Note_on_c, 11, 73, 92
1, 101761, Note_on_c, 12, 45, 115
1, 101762, Note_on_c, 1, 33, 115
1, 101765, Control_c, 2, 64, 0
1, 101774, Note_off_c, 10, 77, 64
1, 101816, Note_off_c, 9, 51, 64
1, 101830, Note_off_c, 9, 35, 64
1, 101956, Note_off_c, 1, 33, 64
1, 101965, Control_c, 2, 64, 127
1, 101990, Note_on_c, 3, 61, 100
1, 101990, Lyric_t, "The "
1, 101997, Note_on_c, 9, 51, 86
1, 101999, Note_on_c, 9, 35, 122
1, 102004, Note_on_c, 1, 33, 105
1, 102057, Note_off_c, 9, 51, 64
1, 102065, Note_off_c, 9, 35, 64
1, 102141, Note_off_c, 2, 64, 64
1, 102147, Note_off_c, 2, 57, 64
1, 102152, Note_off_c, 2, 61, 64
1, 102185, Note_off_c, 1, 33, 64
1, 102200, Note_off_c, 3, 61, 64
1, 102235, Note_on_c, 2, 57, 96
1, 102236, Note_on_c, 2, 64, 105
1, 102236, Note_on_c, 2, 61, 115
1, 102236, Note_on_c, 3, 61, 92
1, 102236, Note_on_c, 9, 38, 122
1, 102236, Lyric_t, "shat"
1, 102238, Note_on_c, 9, 51, 105
1, 102243, Note_on_c, 1, 33, 110
1, 102291, Note_off_c, 9, 38, 64
1, 102299, Note_off_c, 9, 51, 64
1, 102321, Note_off_c, 2, 52, 64
1, 102348, Note_off_c, 2, 45, 64
1, 102432, Note_off_c, 1, 33, 64
1, 102439, Note_off_c, 3, 61, 64
1, 102474, Note_on_c, 2, 52, 83
1, 102475, Note_on_c, 2, 45, 89
1, 102479, Note_on_c, 3, 61, 96
1, 102479, Note_on_c, 9, 51, 92
1, 102479, Lyric_t, "tered "
1, 102481, Note_on_c, 1, 33, 110
1, 102536, Note_off_c, 9, 51, 64
1, 102597, Note_on_c, 9, 35, 122
1, 102612, Note_off_c, 2, 64, 64
1, 102627, Note_off_c, 2, 57, 64
1, 102629, Note_off_c, 2, 61, 64
1, 102660, Note_off_c, 9, 35, 64
1, 102678, Note_off_c, 1, 33, 64
1, 102683, Note_off_c, 3, 61, 64
1, 102718, Note_on_c, 2, 64, 110
1, 102719, Note_on_c, 2, 61, 110
1, 102719, Note_on_c, 9, 51, 105
1, 102720, Note_on_c, 1, 33, 105
1, 102720, Note_on_c, 2, 55, 92
1, 102720, Note_on_c, 2, 57, 105
1, 102726, Note_on_c, 3, 61, 92
1, 102726, Lyric_t, "mem"
1, 102777, Note_off_c, 9, 51, 64
1, 102842, Note_off_c, 2, 52, 64
1, 102856, Note_off_c, 2, 45, 64
1, 102917, Note_off_c, 1, 33, 64
1, 102947, Note_off_c, 3, 61, 64
1, 102960, Note_on_c, 9, 51, 89
1, 102961, Note_on_c, 9, 35, 122
1, 102962, Note_on_c, 1, 33, 110
1, 102964, Note_on_c, 2, 52, 89
1, 102967, Note_on_c, 2, 45, 89
1, 102968, Note_on_c, 3, 62, 92
1, 102968, Lyric_t, "o"
1, 103011, Note_off_c, 9, 51, 64
1, 103028, Note_off_c, 9, 35, 64
1, 103082, Note_off_c, 2, 55, 64
1, 103092, Note_off_c, 2, 57, 64
1, 103092, Note_off_c, 2, 64, 64
1, 103103, Note_off_c, 2, 61, 64
1, 103164, Note_off_c, 1, 33, 64
1, 103197, Note_on_c, 9, 38, 122
1, 103199, Note_on_c, 2, 64, 105
1, 103201, Note_on_c, 2, 61, 110
1, 103201, Note_on_c, 2, 57, 96
1, 103201, Note_on_c, 9, 51, 105
1, 103206, Note_on_c, 1, 33, 105
1, 103216, Note_on_c, 3, 64, 105
1, 103216, Lyric_t, "ries.\012"
1, 103223, Note_off_c, 3, 62, 64
1, 103251, Note_off_c, 9, 38, 64
1, 103254, Note_off_c, 9, 51, 64
1, 103304, Note_off_c, 2, 52, 64
1, 103310, Note_off_c, 2, 45, 64
1, 103368, Note_off_c, 2, 61, 64
1, 103379, Note_off_c, 2, 57, 64
1, 103389, Note_off_c, 1, 33, 64
1, 103392, Note_off_c, 2, 64, 64
1, 103426, Note_off_c, 3, 64, 64
1, 103437, Note_on_c, 2, 52, 83
1, 103439, Note_on_c, 2, 45, 83
1, 103440, Note_on_c, 9, 51, 86
1, 103444, Note_on_c, 1, 33, 105
1, 103456, Note_on_c, 3, 65, 105
1, 103456, Lyric_t, "Time "
1, 103501, Note_off_c, 9, 51, 64
1, 103558, Note_on_c, 9, 36, 110
1, 103574, Note_off_c, 2, 45, 64
1, 103574, Note_off_c, 2, 52, 64
1, 103607, Note_off_c, 9, 36, 64
1, 103617, Note_off_c, 1, 33, 64
1, 103619, Note_off_c, 11, 73, 64
1, 103621, Note_off_c, 7, 52, 64
1, 103630, Note_off_c, 7, 55, 64
1, 103636, Note_off_c, 7, 61, 64
1, 103637, Note_off_c, 7, 64, 64
1, 103645, Note_off_c, 11, 76, 64
1, 103648, Note_off_c, 7, 45, 64
1, 103668, Note_on_c, 7, 65, 75
1, 103669, Control_c, 2, 64, 0
1, 103670, Note_on_c, 7, 57, 83
1, 103670, Note_on_c, 7, 62, 80
1, 103671, Note_on_c, 7, 53, 77
1, 103672, Note_on_c, 10, 77, 92
1, 103673, Note_on_c, 7, 46, 92
1, 103673, Note_on_c, 10, 65, 80
1, 103674, Note_on_c, 2, 65, 105
1, 103675, Note_on_c, 2, 62, 105
1, 103675, Note_on_c, 9, 35, 115
1, 103676, Note_on_c, 2, 57, 100
1, 103676, Note_on_c, 2, 58, 96
1, 103679, Note_on_c, 2, 46, 105
1, 103679, Note_off_c, 11, 45, 64
1, 103680, Note_on_c, 2, 53, 83
1, 103680, Note_on_c, 9, 51, 105
1, 103682, Note_on_c, 1, 34, 110
1, 103682, Note_on_c, 11, 46, 96
1, 103682, Note_off_c, 12, 45, 64
1, 103683, Note_on_c, 11, 74, 92
1, 103684, Note_on_c, 11, 77, 96
1, 103686, Note_on_c, 11, 70, 86
1, 103688, Note_on_c, 12, 46, 115
1, 103698, Note_off_c, 10, 64, 64
1, 103709, Note_off_c, 10, 76, 64
1, 103732, Note_off_c, 9, 35, 64
1, 103734, Control_c, 3, 1, 7
1, 103735, Note_off_c, 9, 51, 64
1, 103778, Control_c, 3, 1, 24
1, 103812, Control_c, 3, 1, 41
1, 103845, Control_c, 3, 1, 61
1, 103870, Control_c, 2, 64, 127
1, 103878, Note_off_c, 1, 34, 64
1, 103912, Control_c, 3, 1, 48
1, 103913, Note_on_c, 9, 35, 122
1, 103919, Note_on_c, 9, 51, 83
1, 103922, Note_on_c, 1, 34, 110
1, 103934, Note_on_c, 3, 67, 100
1, 103934, Lyric_t, "will "
1, 103945, Control_c, 3, 1, 0
1, 103959, Note_off_c, 3, 65, 64
1, 103976, Note_off_c, 9, 35, 64
1, 103979, Note_off_c, 9, 51, 64
1, 104055, Note_off_c, 2, 57, 64
1, 104055, Note_off_c, 2, 58, 64
1, 104059, Note_off_c, 2, 65, 64
1, 104072, Note_off_c, 2, 62, 64
1, 104116, Note_off_c, 1, 34, 64
1, 104156, Note_on_c, 9, 38, 122
1, 104159, Note_on_c, 9, 51, 110
1, 104162, Note_on_c, 2, 62, 105
1, 104163, Note_on_c, 2, 57, 96
1, 104163, Note_on_c, 2, 65, 105
1, 104164, Note_on_c, 2, 58, 100
1, 104166, Note_on_c, 1, 34, 110
1, 104211, Note_off_c, 9, 38, 64
1, 104220, Note_off_c, 9, 51, 64
1, 104223, Control_c, 3, 1, 7
1, 104245, Note_off_c, 2, 53, 64
1, 104256, Control_c, 3, 1, 29
1, 104262, Note_off_c, 2, 46, 64
1, 104290, Control_c, 3, 1, 44
1, 104358, Note_off_c, 1, 34, 64
1, 104367, Control_c, 3, 1, 0
1, 104373, Note_off_c, 3, 67, 64
1, 104396, Note_on_c, 2, 46, 96
1, 104396, Note_on_c, 2, 53, 80
1, 104399, Note_on_c, 9, 51, 80
1, 104404, Note_on_c, 3, 65, 105
1, 104404, Lyric_t, "soon "
1, 104408, Note_on_c, 1, 34, 105
1, 104457, Note_off_c, 9, 51, 64
1, 104492, Note_off_c, 2, 65, 64
1, 104509, Note_off_c, 2, 58, 64
1, 104509, Note_off_c, 2, 57, 64
1, 104515, Note_off_c, 2, 62, 64
1, 104517, Note_on_c, 9, 35, 122
1, 104583, Note_off_c, 9, 35, 64
1, 104598, Note_off_c, 1, 34, 64
1, 104631, Note_on_c, 2, 65, 100
1, 104631, Note_on_c, 2, 62, 100
1, 104632, Note_on_c, 2, 55, 92
1, 104633, Note_on_c, 2, 58, 96
1, 104634, Control_c, 3, 1, 1
1, 104637, Note_on_c, 9, 51, 105
1, 104648, Note_on_c, 1, 34, 110
1, 104668, Control_c, 3, 1, 22
1, 104699, Note_off_c, 9, 51, 64
1, 104701, Control_c, 3, 1, 46
1, 104722, Note_off_c, 2, 53, 64
1, 104732, Note_off_c, 2, 46, 64
1, 104734, Control_c, 3, 1, 56
1, 104779, Control_c, 3, 1, 41
1, 104812, Control_c, 3, 1, 0
1, 104848, Note_off_c, 1, 34, 64
1, 104873, Note_on_c, 2, 53, 86
1, 104874, Note_on_c, 2, 46, 100
1, 104878, Note_on_c, 3, 67, 105
1, 104878, Lyric_t, "e"
1, 104879, Note_on_c, 9, 51, 83
1, 104881, Note_on_c, 9, 35, 122
1, 104887, Note_off_c, 3, 65, 64
1, 104893, Note_on_c, 1, 34, 110
1, 104935, Note_off_c, 9, 51, 64
1, 104946, Note_off_c, 9, 35, 64
1, 104991, Note_off_c, 2, 65, 64
1, 105005, Note_off_c, 2, 58, 64
1, 105009, Note_off_c, 2, 55, 64
1, 105013, Note_off_c, 2, 62, 64
1, 105061, Note_off_c, 1, 34, 64
1, 105112, Note_on_c, 2, 65, 100
1, 105112, Note_on_c, 2, 55, 92
1, 105113, Note_on_c, 2, 62, 100
1, 105114, Note_on_c, 2, 58, 100
1, 105118, Note_on_c, 9, 38, 122
1, 105119, Note_on_c, 9, 51, 110
1, 105135, Note_on_c, 1, 36, 110
1, 105173, Note_off_c, 9, 38, 64
1, 105180, Note_off_c, 9, 51, 64
1, 105210, Note_off_c, 2, 46, 64
1, 105214, Note_off_c, 2, 53, 64
1, 105259, Note_on_c, 1, 38, 105
1, 105273, Note_off_c, 1, 36, 64
1, 105290, Note_off_c, 2, 62, 64
1, 105292, Note_off_c, 2, 58, 64
1, 105294, Note_off_c, 2, 65, 64
1, 105299, Note_off_c, 2, 55, 64
1, 105333, Pitch_bend_c, 3, 8040
1, 105345, Pitch_bend_c, 3, 6219
1, 105353, Note_on_c, 2, 46, 77
1, 105356, Pitch_bend_c, 3, 3792
1, 105356, Note_off_c, 3, 67, 64
1, 105358, Note_on_c, 2, 53, 83
1, 105358, Note_on_c, 9, 38, 115
1, 105358, Note_on_c, 9, 51, 96
1, 105365, Note_on_c, 3, 69, 100
1, 105365, Lyric_t, "rase.\015"
1, 105367, Pitch_bend_c, 3, 2578
1, 105372, Note_on_c, 1, 36, 100
1, 105389, Pitch_bend_c, 3, 2806
1, 105391, Note_off_c, 1, 38, 64
1, 105400, Pitch_bend_c, 3, 3868
1, 105411, Pitch_bend_c, 3, 6599
1, 105422, Pitch_bend_c, 3, 8192
1, 105422, Note_off_c, 9, 38, 64
1, 105435, Note_off_c, 9, 51, 64
1, 105477, Note_on_c, 9, 38, 105
1, 105479, Note_on_c, 9, 36, 110
1, 105485, Note_off_c, 2, 53, 64
1, 105493, Note_on_c, 1, 34, 110
1, 105504, Note_off_c, 2, 46, 64
1, 105508, Note_off_c, 1, 36, 64
1, 105510, Note_off_c, 9, 38, 64
1, 105511, Note_off_c, 11, 70, 64
1, 105519, Note_off_c, 11, 77, 64
1, 105523, Note_off_c, 9, 36, 64
1, 105540, Note_off_c, 11, 46, 64
1, 105541, Note_off_c, 11, 74, 64
1, 105546, Note_off_c, 7, 53, 64
1, 105553, Note_off_c, 7, 57, 64
1, 105558, Note_off_c, 7, 65, 64
1, 105560, Note_off_c, 12, 46, 64
1, 105573, Note_off_c, 10, 65, 64
1, 105576, Note_off_c, 7, 46, 64
1, 105579, Note_off_c, 1, 34, 64
1, 105580, Note_off_c, 7, 62, 64
1, 105587, Control_c, 2, 64, 0
1, 105587, Note_on_c, 10, 76, 92
1, 105588, Note_on_c, 11, 76, 86
1, 105589, Note_on_c, 2, 61, 105
1, 105589, Note_on_c, 2, 57, 100
1, 105589, Note_on_c, 10, 64, 75
1, 105590, Note_on_c, 2, 64, 105
1, 105591, Note_on_c, 2, 52, 73
1, 105591, Note_on_c, 11, 73, 89
1, 105593, Note_on_c, 7, 52, 83
1, 105593, Note_on_c, 7, 61, 83
1, 105593, Note_on_c, 11, 45, 89
1, 105594, Note_on_c, 2, 45, 92
1, 105594, Note_on_c, 7, 55, 80
1, 105595, Note_on_c, 7, 45, 80
1, 105595, Note_on_c, 7, 64, 80
1, 105595, Note_on_c, 9, 57, 105
1, 105596, Note_on_c, 9, 35, 122
1, 105596, Note_on_c, 12, 45, 115
1, 105608, Note_on_c, 1, 33, 115
1, 105612, Note_off_c, 10, 77, 64
1, 105657, Control_c, 3, 1, 11
1, 105660, Note_off_c, 9, 35, 64
1, 105670, Note_off_c, 9, 57, 64
1, 105691, Control_c, 3, 1, 42
1, 105724, Control_c, 3, 1, 66
1, 105757, Note_off_c, 3, 69, 64
1, 105779, Control_c, 3, 1, 0
1, 105780, Control_c, 2, 64, 127
1, 105801, Note_off_c, 1, 33, 64
1, 105837, Note_on_c, 9, 35, 127
1, 105839, Note_on_c, 9, 51, 89
1, 105846, Note_on_c, 1, 33, 105
1, 105900, Note_off_c, 9, 35, 64
1, 105908, Note_off_c, 9, 51, 64
1, 105968, Note_off_c, 2, 64, 64
1, 105977, Note_off_c, 2, 57, 64
1, 105989, Note_off_c, 2, 61, 64
1, 106030, Note_off_c, 1, 33, 64
1, 106071, Note_on_c, 2, 57, 96
1, 106071, Note_on_c, 2, 64, 110
1, 106072, Note_on_c, 2, 61, 115
1, 106075, Note_on_c, 3, 61, 105
1, 106075, Lyric_t, "All "
1, 106078, Note_on_c, 9, 51, 105
1, 106079, Note_on_c, 9, 38, 122
1, 106083, Note_on_c, 1, 33, 105
1, 106133, Note_off_c, 9, 38, 64
1, 106134, Note_off_c, 9, 51, 64
1, 106163, Note_off_c, 2, 52, 64
1, 106189, Note_off_c, 2, 45, 64
1, 106281, Note_off_c, 1, 33, 64
1, 106284, Note_off_c, 3, 61, 64
1, 106313, Note_on_c, 2, 52, 83
1, 106314, Note_on_c, 2, 45, 83
1, 106320, Note_on_c, 9, 51, 69
1, 106323, Note_on_c, 3, 61, 100
1, 106323, Lyric_t, "these "
1, 106326, Note_on_c, 1, 33, 110
1, 106380, Note_off_c, 9, 51, 64
1, 106435, Note_on_c, 9, 35, 127
1, 106444, Note_off_c, 2, 64, 64
1, 106460, Note_off_c, 2, 57, 64
1, 106461, Note_off_c, 2, 61, 64
1, 106498, Note_off_c, 9, 35, 64
1, 106512, Note_off_c, 1, 33, 64
1, 106521, Note_off_c, 3, 61, 64
1, 106555, Note_on_c, 2, 55, 86
1, 106556, Note_on_c, 2, 64, 105
1, 106557, Note_on_c, 2, 61, 105
1, 106557, Note_on_c, 2, 57, 96
1, 106559, Note_on_c, 9, 51, 105
1, 106564, Note_on_c, 1, 33, 110
1, 106568, Note_on_c, 3, 61, 96
1, 106568, Lyric_t, "sou"
1, 106616, Note_off_c, 9, 51, 64
1, 106659, Note_off_c, 2, 52, 64
1, 106664, Note_off_c, 2, 45, 64
1, 106751, Note_off_c, 1, 33, 64
1, 106779, Note_off_c, 3, 61, 64
1, 106794, Note_on_c, 2, 52, 83
1, 106798, Note_on_c, 2, 45, 89
1, 106799, Note_on_c, 9, 51, 77
1, 106800, Note_on_c, 9, 35, 122
1, 106802, Note_on_c, 1, 33, 110
1, 106807, Note_on_c, 3, 62, 96
1, 106807, Lyric_t, "ve"
1, 106865, Note_off_c, 9, 35, 64
1, 106867, Note_off_c, 9, 51, 64
1, 106890, Note_off_c, 2, 57, 64
1, 106908, Note_off_c, 2, 55, 64
1, 106912, Note_off_c, 2, 64, 64
1, 106924, Note_off_c, 2, 61, 64
1, 106994, Note_off_c, 1, 33, 64
1, 107014, Note_off_c, 3, 62, 64
1, 107034, Note_on_c, 2, 57, 96
1, 107035, Note_on_c, 2, 64, 110
1, 107035, Note_on_c, 2, 61, 110
1, 107040, Note_on_c, 3, 64, 105
1, 107040, Note_on_c, 9, 38, 122
1, 107040, Note_on_c, 9, 51, 110
1, 107040, Lyric_t, "nirs.\015"
1, 107042, Note_on_c, 1, 33, 110
1, 107094, Note_off_c, 9, 38, 64
1, 107104, Note_off_c, 9, 51, 64
1, 107122, Note_off_c, 2, 52, 64
1, 107127, Note_off_c, 2, 45, 64
1, 107175, Control_c, 3, 1, 11
1, 107208, Note_off_c, 2, 61, 64
1, 107219, Control_c, 3, 1, 24
1, 107223, Note_off_c, 1, 33, 64
1, 107228, Note_off_c, 2, 57, 64
1, 107229, Note_off_c, 2, 64, 64
1, 107264, Control_c, 3, 1, 34
1, 107265, Note_on_c, 2, 52, 73
1, 107270, Note_on_c, 2, 45, 75
1, 107282, Note_on_c, 9, 51, 80
1, 107283, Note_on_c, 1, 33, 110
1, 107297, Control_c, 3, 1, 39
1, 107336, Note_off_c, 9, 51, 64
1, 107341, Control_c, 3, 1, 53
1, 107375, Control_c, 3, 1, 66
1, 107400, Note_on_c, 9, 36, 110
1, 107408, Note_off_c, 3, 64, 64
1, 107417, Note_off_c, 2, 52, 64
1, 107419, Control_c, 3, 1, 59
1, 107428, Note_off_c, 2, 45, 64
1, 107452, Control_c, 3, 1, 0
1, 107453, Note_off_c, 9, 36, 64
1, 107457, Note_off_c, 1, 33, 64
1, 107468, Note_off_c, 11, 73, 64
1, 107472, Note_off_c, 7, 52, 64
1, 107476, Note_off_c, 7, 55, 64
1, 107487, Control_c, 2, 64, 0
1, 107489, Note_off_c, 7, 64, 64
1, 107490, Note_off_c, 11, 76, 64
1, 107491, Note_off_c, 7, 61, 64
1, 107511, Note_on_c, 2, 62, 105
1, 107512, Note_on_c, 2, 57, 96
1, 107513, Note_on_c, 2, 65, 105
1, 107513, Note_on_c, 2, 58, 100
1, 107513, Note_on_c, 7, 65, 80
1, 107514, Note_on_c, 2, 46, 96
1, 107514, Note_on_c, 7, 57, 89
1, 107515, Note_on_c, 2, 53, 77
1, 107515, Note_on_c, 10, 77, 92
1, 107516, Note_off_c, 7, 45, 64
1, 107516, Note_on_c, 7, 62, 89
1, 107516, Note_on_c, 7, 46, 92
1, 107516, Note_on_c, 10, 65, 83
1, 107518, Note_on_c, 7, 53, 71
1, 107518, Note_on_c, 9, 35, 122
1, 107519, Note_on_c, 1, 34, 110
1, 107519, Note_on_c, 11, 46, 92
1, 107520, Note_on_c, 9, 51, 105
1, 107521, Note_on_c, 12, 46, 115
1, 107522, Note_on_c, 11, 74, 92
1, 107523, Note_on_c, 11, 70, 86
1, 107524, Note_on_c, 11, 77, 96
1, 107530, Note_off_c, 12, 45, 64
1, 107537, Note_off_c, 10, 64, 64
1, 107540, Note_off_c, 11, 45, 64
1, 107555, Note_off_c, 10, 76, 64
1, 107576, Note_off_c, 9, 35, 64
1, 107585, Note_off_c, 9, 51, 64
1, 107653, Note_on_c, 3, 62, 86
1, 107653, Lyric_t, "It's "
1, 107690, Control_c, 2, 64, 127
1, 107699, Note_off_c, 3, 62, 64
1, 107712, Note_off_c, 1, 34, 64
1, 107757, Note_on_c, 9, 35, 127
1, 107759, Note_on_c, 9, 51, 80
1, 107760, Note_on_c, 1, 34, 110
1, 107763, Note_on_c, 3, 62, 105
1, 107763, Lyric_t, "all "
1, 107807, Note_off_c, 9, 51, 64
1, 107823, Note_off_c, 9, 35, 64
1, 107889, Note_off_c, 2, 57, 64
1, 107889, Note_off_c, 2, 65, 64
1, 107890, Note_off_c, 2, 58, 64
1, 107901, Note_off_c, 2, 62, 64
1, 107940, Note_off_c, 1, 34, 64
1, 107954, Note_off_c, 3, 62, 64
1, 107992, Note_on_c, 2, 65, 105
1, 107993, Note_on_c, 2, 62, 105
1, 107994, Note_on_c, 2, 57, 96
1, 107994, Note_on_c, 2, 58, 96
1, 107998, Note_on_c, 1, 34, 110
1, 107998, Note_on_c, 9, 38, 122
1, 107998, Note_on_c, 9, 51, 105
1, 108006, Note_on_c, 3, 62, 100
1, 108006, Lyric_t, "from \015"
1, 108053, Note_off_c, 9, 38, 64
1, 108061, Note_off_c, 9, 51, 64
1, 108066, Note_off_c, 2, 53, 64
1, 108076, Note_off_c, 2, 46, 64
1, 108186, Note_off_c, 1, 34, 64
1, 108208, Note_off_c, 3, 62, 64
1, 108227, Note_on_c, 2, 53, 83
1, 108227, Note_on_c, 2, 46, 96
1, 108239, Note_on_c, 9, 51, 75
1, 108241, Note_on_c, 1, 34, 110
1, 108248, Note_on_c, 3, 62, 96
1, 108248, Lyric_t, "a "
1, 108288, Note_off_c, 9, 51, 64
1, 108353, Note_on_c, 9, 35, 122
1, 108354, Note_off_c, 2, 58, 64
1, 108356, Note_off_c, 2, 65, 64
1, 108363, Note_off_c, 2, 57, 64
1, 108369, Note_off_c, 2, 62, 64
1, 108420, Note_off_c, 9, 35, 64
1, 108431, Note_off_c, 1, 34, 64
1, 108440, Note_off_c, 3, 62, 64
1, 108474, Note_on_c, 2, 55, 92
1, 108475, Note_on_c, 2, 62, 100
1, 108475, Note_on_c, 2, 65, 100
1, 108476, Note_on_c, 2, 58, 100
1, 108477, Note_on_c, 9, 51, 105
1, 108484, Note_on_c, 1, 34, 110
1, 108491, Note_on_c, 3, 62, 100
1, 108491, Lyric_t, "thou"
1, 108536, Note_off_c, 9, 51, 64
1, 108586, Note_off_c, 2, 53, 64
1, 108601, Note_off_c, 2, 46, 64
1, 108672, Note_off_c, 1, 34, 64
1, 108707, Note_off_c, 3, 62, 64
1, 108718, Note_on_c, 9, 51, 77
1, 108718, Note_on_c, 9, 35, 122
1, 108719, Note_on_c, 2, 46, 96
1, 108719, Note_on_c, 2, 53, 89
1, 108727, Note_on_c, 1, 34, 110
1, 108733, Note_on_c, 3, 64, 100
1, 108733, Lyric_t, "sand "
1, 108773, Note_off_c, 9, 51, 64
1, 108788, Note_off_c, 9, 35, 64
1, 108824, Note_off_c, 2, 65, 64
1, 108828, Note_off_c, 2, 58, 64
1, 108836, Note_off_c, 2, 55, 64
1, 108838, Note_off_c, 2, 62, 64
1, 108911, Note_off_c, 1, 34, 64
1, 108951, Note_on_c, 2, 65, 100
1, 108952, Note_on_c, 2, 55, 92
1, 108952, Note_on_c, 2, 62, 105
1, 108954, Note_on_c, 2, 58, 96
1, 108957, Note_on_c, 9, 38, 122
1, 108957, Note_on_c, 9, 51, 105
1, 108967, Note_on_c, 1, 34, 105
1, 108968, Note_on_c, 3, 65, 110
1, 108968, Lyric_t, "tears.\012"
1, 108975, Note_off_c, 3, 64, 64
1, 109010, Note_off_c, 9, 38, 64
1, 109019, Note_off_c, 9, 51, 64
1, 109031, Note_off_c, 2, 53, 64
1, 109052, Note_off_c, 2, 46, 64
1, 109083, Note_off_c, 2, 58, 64
1, 109092, Note_off_c, 2, 55, 64
1, 109100, Note_off_c, 2, 62, 64
1, 109110, Note_off_c, 2, 65, 64
1, 109150, Note_off_c, 1, 34, 64
1, 109153, Control_c, 3, 1, 19
1, 109186, Control_c, 3, 1, 41
1, 109198, Note_on_c, 2, 53, 80
1, 109198, Note_on_c, 9, 51, 80
1, 109199, Note_on_c, 2, 46, 86
1, 109208, Note_on_c, 1, 34, 110
1, 109219, Control_c, 3, 1, 51
1, 109253, Control_c, 3, 1, 46
1, 109256, Note_off_c, 9, 51, 64
1, 109281, Note_off_c, 3, 65, 64
1, 109285, Note_off_c, 2, 53, 64
1, 109286, Control_c, 3, 1, 0
1, 109287, Note_off_c, 2, 46, 64
1, 109319, Note_on_c, 9, 36, 110
1, 109362, Note_off_c, 1, 34, 64
1, 109371, Note_off_c, 9, 36, 64
1, 109371, Note_off_c, 11, 70, 64
1, 109383, Note_off_c, 7, 57, 64
1, 109383, Note_off_c, 11, 69, 64
1, 109384, Note_off_c, 11, 77, 64
1, 109385, Note_off_c, 7, 53, 64
1, 109386, Note_off_c, 11, 74, 64
1, 109389, Note_off_c, 12, 46, 64
1, 109401, Note_off_c, 7, 62, 64
1, 109409, Note_off_c, 7, 65, 64
1, 109415, Note_off_c, 7, 46, 64
1, 109420, Control_c, 2, 64, 0
1, 109425, Note_on_c, 2, 67, 105
1, 109426, Note_on_c, 2, 60, 96
1, 109426, Note_on_c, 2, 64, 110
1, 109427, Note_off_c, 10, 65, 64
1, 109429, Note_on_c, 10, 79, 89
1, 109430, Note_on_c, 2, 48, 96
1, 109430, Note_off_c, 11, 46, 64
1, 109431, Note_on_c, 2, 55, 89
1, 109431, Note_on_c, 10, 67, 77
1, 109434, Note_on_c, 12, 48, 110
1, 109435, Note_on_c, 11, 48, 86
1, 109437, Note_on_c, 7, 67, 86
1, 109437, Note_on_c, 11, 76, 96
1, 109438, Note_on_c, 7, 64, 86
1, 109438, Note_on_c, 11, 79, 96
1, 109439, Note_on_c, 7, 55, 80
1, 109439, Note_on_c, 9, 51, 105
1, 109440, Note_on_c, 9, 35, 115
1, 109440, Note_on_c, 11, 72, 89
1, 109441, Note_on_c, 7, 60, 80
1, 109441, Note_off_c, 10, 77, 64
1, 109442, Note_on_c, 7, 48, 75
1, 109443, Note_on_c, 1, 36, 110
1, 109497, Note_off_c, 9, 35, 64
1, 109503, Note_off_c, 9, 51, 64
1, 109630, Control_c, 2, 64, 127
1, 109631, Note_off_c, 1, 36, 64
1, 109678, Note_on_c, 9, 51, 75
1, 109679, Note_on_c, 9, 35, 122
1, 109685, Note_on_c, 3, 67, 110
1, 109685, Lyric_t, "But "
1, 109687, Note_on_c, 1, 36, 105
1, 109738, Note_off_c, 9, 51, 64
1, 109747, Note_off_c, 9, 35, 64
1, 109818, Note_off_c, 2, 60, 64
1, 109819, Note_off_c, 2, 67, 64
1, 109835, Note_off_c, 2, 64, 64
1, 109861, Note_off_c, 1, 36, 64
1, 109881, Note_off_c, 3, 67, 64
1, 109909, Note_on_c, 2, 60, 96
1, 109910, Note_on_c, 2, 64, 115
1, 109911, Note_on_c, 2, 67, 105
1, 109916, Note_on_c, 9, 38, 122
1, 109917, Note_on_c, 9, 51, 105
1, 109924, Note_on_c, 1, 36, 100
1, 109924, Note_on_c, 3, 67, 96
1, 109924, Lyric_t, "when "
1, 109971, Note_off_c, 9, 38, 64
1, 109978, Note_off_c, 9, 51, 64
1, 110020, Note_off_c, 2, 55, 64
1, 110032, Note_off_c, 2, 48, 64
1, 110108, Note_off_c, 1, 36, 64
1, 110110, Note_off_c, 3, 67, 64
1, 110154, Note_on_c, 2, 48, 86
1, 110154, Note_on_c, 2, 55, 80
1, 110158, Note_on_c, 9, 51, 75
1, 110161, Note_on_c, 3, 67, 96
1, 110161, Lyric_t, "I "
1, 110167, Note_on_c, 1, 36, 100
1, 110215, Note_off_c, 9, 51, 64
1, 110277, Note_on_c, 9, 35, 127
1, 110283, Note_off_c, 2, 67, 64
1, 110287, Note_off_c, 2, 60, 64
1, 110306, Note_off_c, 2, 64, 64
1, 110340, Note_off_c, 1, 36, 64
1, 110343, Note_off_c, 9, 35, 64
1, 110348, Note_off_c, 3, 67, 64
1, 110390, Note_on_c, 2, 60, 100
1, 110391, Note_on_c, 2, 67, 105
1, 110391, Note_on_c, 2, 64, 110
1, 110397, Note_on_c, 9, 51, 105
1, 110400, Note_on_c, 10, 77, 100
1, 110404, Note_on_c, 1, 36, 100
1, 110405, Note_on_c, 11, 77, 89
1, 110408, Note_on_c, 3, 67, 100
1, 110408, Lyric_t, "wake "
1, 110442, Note_off_c, 11, 76, 64
1, 110460, Note_off_c, 9, 51, 64
1, 110520, Note_off_c, 2, 55, 64
1, 110528, Note_off_c, 2, 48, 64
1, 110584, Note_off_c, 1, 36, 64
1, 110601, Control_c, 3, 1, 16
1, 110635, Control_c, 3, 1, 34
1, 110638, Note_on_c, 9, 35, 122
1, 110639, Note_on_c, 2, 48, 89
1, 110639, Note_on_c, 9, 51, 77
1, 110640, Note_on_c, 2, 55, 83
1, 110646, Note_on_c, 1, 36, 105
1, 110698, Note_off_c, 9, 51, 64
1, 110701, Control_c, 3, 1, 0
1, 110703, Note_off_c, 9, 35, 64
1, 110716, Note_off_c, 3, 67, 64
1, 110756, Note_on_c, 3, 65, 105
1, 110756, Lyric_t, "up \015"
1, 110771, Note_off_c, 2, 67, 64
1, 110781, Note_off_c, 2, 60, 64
1, 110795, Note_off_c, 2, 64, 64
1, 110835, Note_off_c, 1, 36, 64
1, 110877, Note_on_c, 2, 60, 100
1, 110877, Note_on_c, 2, 64, 110
1, 110878, Note_on_c, 2, 67, 105
1, 110879, Note_on_c, 9, 38, 122
1, 110880, Note_on_c, 9, 51, 105
1, 110889, Note_on_c, 1, 36, 105
1, 110932, Note_off_c, 9, 38, 64
1, 110943, Note_off_c, 9, 51, 64
1, 111012, Note_off_c, 2, 55, 64
1, 111024, Note_off_c, 2, 48, 64
1, 111066, Note_off_c, 1, 36, 64
1, 111083, Note_off_c, 3, 65, 64
1, 111089, Pitch_bend_c, 3, 7509
1, 111100, Pitch_bend_c, 3, 5613
1, 111111, Pitch_bend_c, 3, 3944
1, 111118, Note_on_c, 3, 72, 105
1, 111118, Lyric_t, "you "
1, 111119, Note_on_c, 9, 51, 75
1, 111122, Pitch_bend_c, 3, 2958
1, 111128, Note_on_c, 2, 55, 80
1, 111128, Note_on_c, 2, 48, 89
1, 111130, Note_on_c, 1, 36, 100
1, 111133, Pitch_bend_c, 3, 2654
1, 111144, Pitch_bend_c, 3, 2882
1, 111156, Pitch_bend_c, 3, 3413
1, 111167, Pitch_bend_c, 3, 4702
1, 111176, Note_off_c, 9, 51, 64
1, 111178, Pitch_bend_c, 3, 7357
1, 111189, Pitch_bend_c, 3, 8192
1, 111209, Note_off_c, 2, 48, 64
1, 111215, Note_off_c, 2, 55, 64
1, 111240, Note_on_c, 9, 36, 110
1, 111248, Note_off_c, 2, 67, 64
1, 111257, Note_off_c, 2, 60, 64
1, 111267, Note_off_c, 2, 64, 64
1, 111300, Note_off_c, 1, 36, 64
1, 111301, Note_off_c, 9, 36, 64
1, 111345, Note_on_c, 10, 76, 92
1, 111349, Note_on_c, 11, 76, 96
1, 111354, Note_on_c, 2, 60, 96
1, 111354, Note_off_c, 10, 77, 64
1, 111355, Note_on_c, 2, 48, 96
1, 111355, Note_on_c, 2, 55, 89
1, 111355, Note_off_c, 11, 77, 64
1, 111356, Note_on_c, 2, 64, 115
1, 111357, Note_on_c, 2, 67, 110
1, 111357, Note_on_c, 9, 51, 105
1, 111358, Note_on_c, 9, 35, 122
1, 111365, Note_on_c, 1, 36, 100
1, 111414, Note_off_c, 9, 51, 64
1, 111418, Note_off_c, 9, 35, 64
1, 111424, Control_c, 3, 1, 2
1, 111457, Control_c, 3, 1, 27
1, 111491, Control_c, 3, 1, 41
1, 111537, Note_off_c, 1, 36, 64
1, 111546, Control_c, 3, 1, 0
1, 111579, Note_off_c, 3, 72, 64
1, 111597, Note_on_c, 9, 51, 75
1, 111597, Note_on_c, 9, 35, 127
1, 111602, Note_on_c, 1, 36, 105
1, 111611, Note_on_c, 3, 70, 105
1, 111611, Lyric_t, "are "
1, 111658, Note_off_c, 9, 51, 64
1, 111663, Note_off_c, 9, 35, 64
1, 111720, Note_off_c, 2, 67, 64
1, 111726, Note_off_c, 2, 60, 64
1, 111739, Note_off_c, 2, 64, 64
1, 111783, Note_off_c, 1, 36, 64
1, 111831, Note_on_c, 2, 60, 100
1, 111833, Note_on_c, 2, 64, 110
1, 111833, Note_on_c, 2, 67, 100
1, 111837, Note_on_c, 9, 51, 100
1, 111838, Note_on_c, 9, 38, 122
1, 111844, Note_on_c, 1, 36, 105
1, 111869, Control_c, 3, 1, 21
1, 111895, Note_off_c, 9, 38, 64
1, 111898, Note_off_c, 9, 51, 64
1, 111902, Control_c, 3, 1, 46
1, 111969, Control_c, 3, 1, 31
1, 111973, Note_off_c, 2, 48, 64
1, 111973, Note_off_c, 2, 55, 64
1, 112002, Control_c, 3, 1, 0
1, 112022, Note_off_c, 1, 36, 64
1, 112028, Note_off_c, 3, 70, 64
1, 112076, Note_on_c, 9, 51, 75
1, 112077, Note_on_c, 3, 69, 105
1, 112077, Lyric_t, "nev"
1, 112085, Note_on_c, 2, 55, 83
1, 112085, Note_on_c, 2, 48, 86
1, 112086, Note_on_c, 1, 36, 105
1, 112143, Note_off_c, 9, 51, 64
1, 112198, Note_on_c, 9, 35, 122
1, 112214, Note_off_c, 2, 67, 64
1, 112226, Note_off_c, 2, 60, 64
1, 112235, Note_off_c, 2, 64, 64
1, 112265, Note_off_c, 9, 35, 64
1, 112267, Note_off_c, 1, 36, 64
1, 112315, Note_on_c, 9, 51, 100
1, 112320, Note_on_c, 11, 74, 92
1, 112322, Note_on_c, 10, 74, 89
1, 112323, Note_on_c, 2, 60, 100
1, 112324, Note_on_c, 2, 64, 115
1, 112324, Note_on_c, 2, 67, 105
1, 112327, Note_on_c, 1, 36, 105
1, 112336, Control_c, 3, 1, 11
1, 112362, Note_off_c, 11, 76, 64
1, 112366, Note_off_c, 10, 76, 64
1, 112369, Control_c, 3, 1, 31
1, 112375, Note_off_c, 9, 51, 64
1, 112402, Control_c, 3, 1, 41
1, 112439, Note_off_c, 2, 48, 64
1, 112439, Note_on_c, 9, 38, 105
1, 112440, Note_off_c, 2, 55, 64
1, 112447, Control_c, 3, 1, 27
1, 112480, Control_c, 3, 1, 0
1, 112500, Note_off_c, 9, 38, 64
1, 112506, Note_off_c, 1, 36, 64
1, 112554, Note_on_c, 9, 51, 80
1, 112558, Note_on_c, 9, 38, 105
1, 112558, Note_on_c, 9, 35, 122
1, 112561, Note_on_c, 3, 70, 105
1, 112561, Lyric_t, "er "
1, 112563, Note_on_c, 2, 55, 86
1, 112564, Note_on_c, 1, 36, 100
1, 112565, Note_on_c, 2, 48, 92
1, 112589, Note_off_c, 3, 69, 64
1, 112622, Note_off_c, 9, 51, 64
1, 112623, Note_off_c, 9, 38, 64
1, 112631, Note_off_c, 9, 35, 64
1, 112678, Note_on_c, 9, 48, 100
1, 112687, Note_off_c, 2, 67, 64
1, 112698, Note_off_c, 2, 60, 64
1, 112711, Note_off_c, 2, 64, 64
1, 112733, Note_off_c, 9, 48, 64
1, 112749, Note_off_c, 1, 36, 64
1, 112795, Note_on_c, 2, 64, 115
1, 112796, Note_on_c, 2, 67, 110
1, 112797, Note_on_c, 2, 60, 100
1, 112797, Note_on_c, 9, 52, 105
1, 112798, Note_on_c, 9, 47, 105
1, 112805, Note_on_c, 1, 36, 105
1, 112825, Control_c, 3, 1, 6
1, 112857, Note_off_c, 9, 52, 64
1, 112858, Control_c, 3, 1, 0
1, 112863, Note_off_c, 9, 47, 64
1, 112893, Note_off_c, 2, 48, 64
1, 112895, Note_off_c, 2, 55, 64
1, 112921, Note_on_c, 9, 45, 115
1, 112987, Note_off_c, 9, 45, 64
1, 112994, Note_off_c, 1, 36, 64
1, 113004, Note_off_c, 2, 64, 64
1, 113008, Note_off_c, 2, 67, 64
1, 113011, Note_off_c, 2, 60, 64
1, 113016, Note_off_c, 3, 70, 64
1, 113033, Note_on_c, 2, 55, 77
1, 113034, Note_on_c, 2, 48, 86
1, 113037, Note_on_c, 9, 51, 77
1, 113041, Note_on_c, 9, 43, 110
1, 113049, Note_on_c, 1, 36, 110
1, 113049, Note_on_c, 3, 69, 115
1, 113049, Lyric_t, "there.\015"
1, 113091, Note_off_c, 9, 51, 64
1, 113094, Note_off_c, 2, 48, 64
1, 113097, Note_off_c, 2, 55, 64
1, 113112, Note_off_c, 9, 43, 64
1, 113156, Note_on_c, 9, 36, 110
1, 113161, Note_on_c, 9, 41, 110
1, 113182, Note_off_c, 9, 36, 64
1, 113210, Note_off_c, 9, 41, 64
1, 113252, Note_off_c, 7, 60, 64
1, 113254, Note_off_c, 1, 36, 64
1, 113254, Note_off_c, 7, 64, 64
1, 113254, Note_off_c, 10, 74, 64
1, 113261, Note_off_c, 7, 48, 64
1, 113261, Note_off_c, 7, 55, 64
1, 113261, Note_off_c, 7, 67, 64
1, 113262, Note_off_c, 11, 74, 64
1, 113264, Note_off_c, 11, 72, 64
1, 113267, Note_off_c, 11, 79, 64
1, 113269, Control_c, 2, 64, 0
1, 113272, Note_on_c, 1, 31, 110
1, 113272, Note_off_c, 10, 79, 64
1, 113275, Note_on_c, 2, 43, 89
1, 113275, Note_off_c, 11, 48, 64
1, 113277, Note_on_c, 2, 55, 110
1, 113278, Note_on_c, 11, 67, 71
1, 113279, Control_c, 7, 7, 72
1, 113279, Note_on_c, 9, 35, 127
1, 113279, Control_c, 10, 7, 60
1, 113279, Control_c, 11, 7, 75
1, 113279, Control_c, 12, 7, 76
1, 113280, Control_c, 7, 7, 72
1, 113280, Note_on_c, 11, 70, 69
1, 113280, Note_on_c, 12, 43, 110
1, 113281, Note_on_c, 9, 49, 114
1, 113281, Note_on_c, 11, 79, 80
1, 113282, Note_off_c, 12, 48, 64
1, 113284, Note_on_c, 11, 74, 80
1, 113285, Note_on_c, 7, 58, 80
1, 113286, Note_on_c, 7, 55, 65
1, 113287, Note_on_c, 7, 62, 73
1, 113292, Note_off_c, 10, 67, 64
1, 113342, Note_off_c, 9, 49, 64
1, 113345, Note_off_c, 9, 35, 64
1, 113396, Note_on_c, 9, 27, 90
1, 113399, Note_on_c, 9, 24, 51
1, 113399, Note_on_c, 9, 42, 71
1, 113418, Note_off_c, 9, 27, 64
1, 113448, Control_c, 3, 1, 1
1, 113456, Note_off_c, 9, 42, 64
1, 113467, Note_off_c, 9, 24, 64
1, 113475, Control_c, 12, 7, 75
1, 113514, Control_c, 3, 1, 11
1, 113517, Note_on_c, 9, 24, 43
1, 113518, Note_on_c, 9, 42, 96
1, 113519, Note_on_c, 9, 36, 110
1, 113521, Note_on_c, 2, 57, 110
1, 113528, Control_c, 2, 64, 127
1, 113544, Note_off_c, 2, 55, 64
1, 113544, Control_c, 7, 7, 71
1, 113571, Note_off_c, 9, 42, 64
1, 113573, Control_c, 12, 7, 74
1, 113577, Note_off_c, 9, 24, 64
1, 113580, Note_off_c, 9, 36, 64
1, 113581, Control_c, 3, 1, 16
1, 113637, Control_c, 3, 1, 21
1, 113671, Control_c, 12, 7, 74
1, 113681, Control_c, 3, 1, 26
1, 113683, Control_c, 11, 7, 74
1, 113714, Control_c, 3, 1, 31
1, 113731, Note_off_c, 2, 57, 64
1, 113756, Note_on_c, 9, 24, 51
1, 113759, Control_c, 3, 1, 36
1, 113760, Note_on_c, 9, 37, 122
1, 113761, Note_on_c, 9, 27, 95
1, 113762, Note_on_c, 9, 42, 96
1, 113763, Note_on_c, 2, 58, 100
1, 113769, Control_c, 12, 7, 73
1, 113791, Note_off_c, 9, 27, 64
1, 113807, Note_off_c, 9, 24, 64
1, 113808, Control_c, 7, 7, 70
1, 113811, Note_off_c, 9, 37, 64
1, 113817, Note_off_c, 9, 42, 64
1, 113843, Note_off_c, 2, 58, 64
1, 113848, Control_c, 3, 1, 41
1, 113867, Control_c, 12, 7, 73
1, 113914, Control_c, 3, 1, 46
1, 113965, Control_c, 12, 7, 72
1, 113995, Note_on_c, 9, 36, 65
1, 113997, Note_on_c, 9, 24, 41
1, 113998, Note_on_c, 2, 67, 105
1, 114000, Note_on_c, 9, 42, 92
1, 114029, Note_off_c, 9, 36, 64
1, 114037, Control_c, 3, 1, 51
1, 114046, Note_off_c, 9, 24, 64
1, 114048, Note_off_c, 9, 42, 64
1, 114063, Control_c, 12, 7, 71
1, 114072, Control_c, 7, 7, 70
1, 114081, Control_c, 3, 1, 56
1, 114086, Control_c, 11, 7, 73
1, 114118, Note_on_c, 9, 42, 75
1, 114119, Note_on_c, 9, 27, 90
1, 114119, Note_on_c, 9, 36, 105
1, 114120, Note_on_c, 9, 24, 45
1, 114128, Note_off_c, 2, 67, 64
1, 114137, Control_c, 3, 1, 61
1, 114146, Note_off_c, 9, 27, 64
1, 114161, Control_c, 12, 7, 71
1, 114167, Note_off_c, 9, 42, 64
1, 114181, Note_off_c, 9, 24, 64
1, 114186, Note_off_c, 9, 36, 64
1, 114237, Control_c, 3, 1, 66
1, 114239, Note_on_c, 9, 42, 96
1, 114259, Control_c, 12, 7, 70
1, 114300, Note_off_c, 9, 42, 64
1, 114336, Control_c, 7, 7, 69
1, 114355, Control_c, 11, 7, 73
1, 114356, Note_on_c, 9, 27, 85
1, 114357, Control_c, 12, 7, 70
1, 114358, Note_on_c, 9, 36, 65
1, 114359, Note_on_c, 9, 42, 80
1, 114360, Note_on_c, 9, 24, 51
1, 114392, Control_c, 3, 1, 46
1, 114394, Note_off_c, 9, 36, 64
1, 114395, Note_off_c, 9, 27, 64
1, 114413, Note_off_c, 9, 24, 64
1, 114414, Note_off_c, 9, 42, 64
1, 114426, Control_c, 3, 1, 0
1, 114455, Control_c, 12, 7, 69
1, 114473, Note_on_c, 2, 57, 105
1, 114479, Note_on_c, 9, 36, 110
1, 114480, Note_on_c, 9, 42, 96
1, 114537, Note_off_c, 9, 36, 64
1, 114545, Note_off_c, 9, 42, 64
1, 114553, Control_c, 12, 7, 68
1, 114600, Control_c, 7, 7, 69
1, 114601, Note_on_c, 9, 24, 40
1, 114617, Note_off_c, 3, 69, 64
1, 114624, Control_c, 11, 7, 72
1, 114651, Note_off_c, 9, 24, 64
1, 114651, Control_c, 12, 7, 68
1, 114672, Note_off_c, 2, 57, 64
1, 114711, Note_on_c, 2, 58, 105
1, 114716, Note_on_c, 9, 27, 95
1, 114721, Note_on_c, 9, 24, 53
1, 114721, Note_on_c, 9, 37, 115
1, 114722, Note_on_c, 9, 42, 96
1, 114732, Control_c, 7, 7, 68
1, 114749, Control_c, 12, 7, 67
1, 114753, Note_off_c, 9, 27, 64
1, 114767, Note_off_c, 9, 42, 64
1, 114774, Note_off_c, 9, 24, 64
1, 114779, Note_off_c, 9, 37, 64
1, 114847, Control_c, 12, 7, 67
1, 114870, Note_off_c, 2, 58, 64
1, 114893, Control_c, 11, 7, 72
1, 114945, Control_c, 12, 7, 66
1, 114953, Note_on_c, 2, 65, 105
1, 114958, Note_on_c, 9, 24, 42
1, 114958, Note_on_c, 9, 42, 100
1, 114996, Control_c, 7, 7, 68
1, 115016, Note_off_c, 9, 24, 64
1, 115019, Note_off_c, 9, 42, 64
1, 115028, Control_c, 11, 7, 71
1, 115043, Control_c, 12, 7, 65
1, 115078, Note_on_c, 9, 36, 80
1, 115078, Note_on_c, 9, 42, 80
1, 115079, Note_on_c, 9, 24, 49
1, 115080, Note_on_c, 9, 27, 90
1, 115109, Note_off_c, 2, 65, 64
1, 115110, Note_off_c, 9, 27, 64
1, 115127, Note_off_c, 9, 36, 64
1, 115129, Note_off_c, 9, 42, 64
1, 115136, Note_off_c, 9, 24, 64
1, 115141, Control_c, 12, 7, 65
1, 115199, Note_on_c, 9, 42, 96
1, 115200, Note_on_c, 9, 36, 110
1, 115239, Control_c, 12, 7, 64
1, 115260, Control_c, 7, 7, 67
1, 115260, Note_off_c, 9, 36, 64
1, 115272, Note_off_c, 9, 42, 64
1, 115297, Control_c, 11, 7, 70
1, 115317, Note_on_c, 9, 24, 49
1, 115320, Note_on_c, 9, 27, 85
1, 115320, Note_on_c, 9, 42, 75
1, 115337, Control_c, 12, 7, 64
1, 115356, Note_off_c, 9, 27, 64
1, 115367, Note_off_c, 9, 42, 64
1, 115377, Note_off_c, 9, 24, 64
1, 115392, Control_c, 7, 7, 66
1, 115431, Control_c, 11, 7, 70
1, 115433, Note_on_c, 2, 57, 96
1, 115435, Control_c, 12, 7, 63
1, 115437, Note_on_c, 9, 24, 45
1, 115439, Note_on_c, 9, 42, 96
1, 115439, Note_on_c, 9, 36, 110
1, 115503, Note_off_c, 9, 24, 64
1, 115504, Note_off_c, 9, 36, 64
1, 115509, Note_off_c, 9, 42, 64
1, 115533, Control_c, 12, 7, 62
1, 115566, Control_c, 11, 7, 69
1, 115629, Note_off_c, 2, 57, 64
1, 115631, Control_c, 12, 7, 62
1, 115656, Control_c, 7, 7, 66
1, 115675, Note_on_c, 2, 58, 110
1, 115679, Note_on_c, 9, 37, 122
1, 115680, Note_on_c, 9, 24, 47
1, 115680, Note_on_c, 9, 27, 95
1, 115680, Note_on_c, 9, 42, 105
1, 115700, Control_c, 11, 7, 69
1, 115722, Note_off_c, 9, 27, 64
1, 115727, Note_off_c, 9, 24, 64
1, 115729, Control_c, 12, 7, 61
1, 115733, Note_off_c, 9, 37, 64
1, 115737, Note_off_c, 9, 42, 64
1, 115788, Control_c, 7, 7, 65
1, 115827, Control_c, 12, 7, 61
1, 115835, Control_c, 11, 7, 68
1, 115871, Note_off_c, 2, 58, 64
1, 115914, Note_on_c, 9, 36, 64
1, 115918, Note_on_c, 2, 64, 110
1, 115918, Note_on_c, 9, 42, 96
1, 115919, Note_on_c, 9, 24, 44
1, 115920, Control_c, 7, 7, 65
1, 115925, Control_c, 12, 7, 60
1, 115952, Note_off_c, 9, 36, 64
1, 115969, Control_c, 11, 7, 67
1, 115976, Note_off_c, 9, 42, 64
1, 115977, Note_off_c, 9, 24, 64
1, 116023, Control_c, 12, 7, 59
1, 116037, Note_on_c, 9, 36, 105
1, 116037, Note_on_c, 9, 42, 80
1, 116040, Note_on_c, 9, 24, 51
1, 116042, Note_on_c, 9, 27, 90
1, 116065, Note_off_c, 9, 27, 64
1, 116082, Note_off_c, 9, 42, 64
1, 116095, Note_off_c, 9, 24, 64
1, 116104, Control_c, 11, 7, 67
1, 116108, Note_off_c, 9, 36, 64
1, 116121, Control_c, 12, 7, 59
1, 116158, Note_on_c, 9, 42, 96
1, 116184, Control_c, 7, 7, 64
1, 116219, Control_c, 12, 7, 58
1, 116221, Note_off_c, 9, 42, 64
1, 116236, Note_off_c, 2, 64, 64
1, 116238, Control_c, 11, 7, 66
1, 116277, Note_on_c, 9, 24, 45
1, 116278, Note_on_c, 9, 36, 63
1, 116278, Note_on_c, 9, 27, 90
1, 116278, Note_on_c, 9, 42, 83
1, 116315, Note_off_c, 9, 27, 64
1, 116316, Control_c, 7, 7, 64
1, 116317, Note_off_c, 9, 36, 64
1, 116317, Control_c, 12, 7, 58
1, 116329, Note_off_c, 9, 42, 64
1, 116336, Note_off_c, 9, 24, 64
1, 116373, Control_c, 11, 7, 65
1, 116398, Note_on_c, 9, 36, 110
1, 116398, Note_on_c, 9, 42, 100
1, 116399, Note_on_c, 2, 58, 86
1, 116415, Control_c, 12, 7, 57
1, 116448, Control_c, 7, 7, 63
1, 116462, Note_off_c, 9, 42, 64
1, 116463, Note_off_c, 9, 36, 64
1, 116507, Control_c, 11, 7, 64
1, 116513, Control_c, 12, 7, 56
1, 116516, Note_on_c, 9, 24, 44
1, 116570, Note_off_c, 9, 24, 64
1, 116572, Note_off_c, 2, 58, 64
1, 116611, Control_c, 12, 7, 56
1, 116637, Note_on_c, 9, 24, 55
1, 116639, Note_on_c, 9, 42, 96
1, 116640, Note_on_c, 9, 27, 95
1, 116640, Note_on_c, 9, 37, 122
1, 116641, Note_on_c, 2, 62, 110
1, 116642, Control_c, 11, 7, 63
1, 116681, Note_off_c, 9, 27, 64
1, 116695, Note_off_c, 9, 37, 64
1, 116702, Note_off_c, 9, 24, 64
1, 116703, Note_off_c, 9, 42, 64
1, 116709, Control_c, 12, 7, 55
1, 116712, Control_c, 7, 7, 62
1, 116776, Control_c, 11, 7, 62
1, 116780, Note_off_c, 2, 62, 64
1, 116807, Control_c, 12, 7, 55
1, 116844, Control_c, 7, 7, 62
1, 116868, Note_off_c, 2, 43, 64
1, 116877, Note_on_c, 9, 24, 44
1, 116877, Note_on_c, 9, 42, 92
1, 116881, Note_on_c, 2, 58, 77
1, 116905, Control_c, 12, 7, 54
1, 116911, Control_c, 11, 7, 60
1, 116933, Note_off_c, 9, 24, 64
1, 116933, Note_off_c, 9, 42, 64
1, 116940, Note_off_c, 2, 58, 64
1, 116976, Control_c, 7, 7, 61
1, 116996, Note_on_c, 9, 42, 77
1, 116999, Note_on_c, 9, 24, 47
1, 116999, Note_on_c, 9, 36, 73
1, 117002, Note_on_c, 9, 27, 90
1, 117003, Control_c, 12, 7, 53
1, 117029, Note_off_c, 9, 36, 64
1, 117031, Note_off_c, 9, 27, 64
1, 117045, Control_c, 11, 7, 59
1, 117051, Note_off_c, 9, 42, 64
1, 117059, Note_off_c, 7, 55, 64
1, 117066, Note_off_c, 9, 24, 64
1, 117078, Note_off_c, 1, 31, 64
1, 117087, Note_off_c, 11, 70, 64
1, 117101, Control_c, 12, 7, 53
1, 117104, Control_c, 2, 64, 0
1, 117105, Note_off_c, 11, 79, 64
1, 117108, Control_c, 7, 7, 61
1, 117111, Note_on_c, 11, 77, 75
1, 117112, Note_on_c, 2, 41, 92
1, 117112, Note_off_c, 12, 43, 64
1, 117114, Note_on_c, 12, 41, 92
1, 117115, Note_on_c, 11, 65, 75
1, 117116, Note_on_c, 2, 53, 110
1, 117116, Note_on_c, 7, 57, 69
1, 117116, Note_on_c, 11, 69, 71
1, 117118, Note_off_c, 7, 58, 64
1, 117118, Note_on_c, 7, 53, 67
1, 117118, Note_on_c, 9, 42, 100
1, 117119, Note_on_c, 9, 36, 105
1, 117124, Note_on_c, 1, 41, 77
1, 117124, Note_off_c, 11, 67, 64
1, 117178, Note_off_c, 9, 42, 64
1, 117180, Control_c, 11, 7, 57
1, 117190, Note_off_c, 9, 36, 64
1, 117199, Control_c, 12, 7, 52
1, 117237, Note_on_c, 9, 24, 51
1, 117238, Note_on_c, 9, 42, 83
1, 117240, Control_c, 7, 7, 60
1, 117240, Note_on_c, 9, 27, 90
1, 117282, Control_c, 2, 64, 127
1, 117285, Note_off_c, 9, 27, 64
1, 117291, Note_off_c, 9, 42, 64
1, 117297, Control_c, 12, 7, 52
1, 117298, Note_off_c, 9, 24, 64
1, 117314, Control_c, 11, 7, 56
1, 117354, Note_on_c, 2, 57, 96
1, 117358, Note_on_c, 9, 36, 110
1, 117358, Note_on_c, 9, 24, 44
1, 117359, Note_on_c, 9, 42, 96
1, 117372, Control_c, 7, 7, 60
1, 117395, Control_c, 12, 7, 51
1, 117410, Note_off_c, 9, 42, 64
1, 117425, Note_off_c, 9, 36, 64
1, 117433, Note_off_c, 2, 53, 64
1, 117436, Note_off_c, 9, 24, 64
1, 117449, Control_c, 11, 7, 54
1, 117493, Control_c, 12, 7, 50
1, 117504, Control_c, 7, 7, 59
1, 117575, Note_off_c, 2, 57, 64
1, 117583, Control_c, 11, 7, 53
1, 117591, Control_c, 12, 7, 50
1, 117593, Note_on_c, 2, 62, 89
1, 117598, Note_on_c, 9, 37, 127
1, 117599, Note_on_c, 9, 24, 55
1, 117600, Note_on_c, 9, 27, 95
1, 117601, Note_on_c, 9, 42, 100
1, 117647, Note_off_c, 9, 27, 64
1, 117649, Note_off_c, 9, 37, 64
1, 117656, Note_off_c, 9, 42, 64
1, 117659, Note_off_c, 9, 24, 64
1, 117689, Control_c, 12, 7, 49
1, 117718, Control_c, 11, 7, 52
1, 117768, Note_off_c, 2, 62, 64
1, 117768, Control_c, 7, 7, 58
1, 117787, Control_c, 12, 7, 49
1, 117834, Note_on_c, 2, 65, 105
1, 117834, Note_on_c, 9, 36, 67
1, 117837, Note_on_c, 9, 24, 43
1, 117837, Note_on_c, 9, 42, 96
1, 117852, Control_c, 11, 7, 51
1, 117873, Note_off_c, 9, 36, 64
1, 117885, Control_c, 12, 7, 48
1, 117900, Control_c, 7, 7, 58
1, 117901, Note_off_c, 9, 42, 64
1, 117906, Note_off_c, 9, 24, 64
1, 117955, Note_on_c, 9, 42, 80
1, 117957, Note_on_c, 9, 36, 110
1, 117959, Note_on_c, 9, 24, 42
1, 117959, Note_on_c, 9, 27, 90
1, 117983, Control_c, 12, 7, 47
1, 117987, Note_off_c, 9, 27, 64
1, 117987, Control_c, 11, 7, 50
1, 118006, Note_off_c, 9, 42, 64
1, 118010, Note_off_c, 9, 24, 64
1, 118025, Note_off_c, 9, 36, 64
1, 118032, Control_c, 7, 7, 57
1, 118076, Note_on_c, 9, 42, 100
1, 118081, Control_c, 12, 7, 47
1, 118121, Control_c, 11, 7, 49
1, 118142, Note_off_c, 9, 42, 64
1, 118164, Control_c, 7, 7, 56
1, 118179, Control_c, 12, 7, 46
1, 118197, Note_on_c, 9, 42, 83
1, 118197, Note_on_c, 9, 24, 47
1, 118197, Note_on_c, 9, 36, 65
1, 118199, Note_on_c, 9, 27, 85
1, 118236, Note_off_c, 9, 27, 64
1, 118247, Note_off_c, 9, 36, 64
1, 118249, Note_off_c, 9, 42, 64
1, 118254, Note_off_c, 9, 24, 64
1, 118256, Control_c, 11, 7, 49
1, 118257, Note_off_c, 2, 65, 64
1, 118277, Control_c, 12, 7, 46
1, 118296, Control_c, 7, 7, 56
1, 118317, Note_on_c, 9, 42, 100
1, 118318, Note_on_c, 9, 36, 110
1, 118320, Note_on_c, 2, 57, 96
1, 118375, Control_c, 12, 7, 45
1, 118380, Note_off_c, 9, 36, 64
1, 118387, Note_off_c, 9, 42, 64
1, 118390, Control_c, 11, 7, 48
1, 118428, Control_c, 7, 7, 55
1, 118438, Note_on_c, 9, 24, 41
1, 118473, Control_c, 12, 7, 44
1, 118490, Note_off_c, 9, 24, 64
1, 118525, Control_c, 11, 7, 47
1, 118557, Note_on_c, 2, 62, 100
1, 118558, Note_on_c, 9, 24, 57
1, 118558, Note_on_c, 9, 42, 105
1, 118559, Note_on_c, 9, 27, 95
1, 118560, Control_c, 7, 7, 54
1, 118560, Note_on_c, 9, 37, 122
1, 118571, Control_c, 12, 7, 44
1, 118601, Note_off_c, 9, 27, 64
1, 118612, Note_off_c, 9, 37, 64
1, 118622, Note_off_c, 9, 24, 64
1, 118624, Note_off_c, 9, 42, 64
1, 118659, Control_c, 11, 7, 47
1, 118669, Control_c, 12, 7, 43
1, 118692, Control_c, 7, 7, 54
1, 118767, Control_c, 12, 7, 43
1, 118794, Control_c, 11, 7, 46
1, 118796, Note_on_c, 9, 42, 96
1, 118797, Note_on_c, 2, 64, 110
1, 118797, Note_on_c, 9, 24, 45
1, 118824, Control_c, 7, 7, 53
1, 118852, Note_off_c, 9, 42, 64
1, 118854, Note_off_c, 9, 24, 64
1, 118865, Control_c, 12, 7, 42
1, 118915, Note_on_c, 9, 42, 86
1, 118918, Note_on_c, 9, 24, 44
1, 118918, Note_on_c, 9, 36, 75
1, 118922, Note_on_c, 9, 27, 90
1, 118928, Control_c, 11, 7, 46
1, 118953, Note_off_c, 9, 27, 64
1, 118956, Control_c, 7, 7, 53
1, 118961, Note_off_c, 9, 36, 64
1, 118963, Control_c, 12, 7, 41
1, 118972, Note_off_c, 9, 42, 64
1, 118979, Note_off_c, 9, 24, 64
1, 119038, Note_on_c, 9, 42, 100
1, 119039, Note_on_c, 9, 36, 105
1, 119061, Control_c, 12, 7, 41
1, 119063, Control_c, 11, 7, 45
1, 119088, Control_c, 7, 7, 52
1, 119098, Note_off_c, 9, 36, 64
1, 119103, Note_off_c, 9, 42, 64
1, 119118, Note_off_c, 2, 57, 64
1, 119126, Note_off_c, 2, 64, 64
1, 119127, Note_off_c, 2, 62, 64
1, 119155, Note_on_c, 9, 24, 49
1, 119159, Note_on_c, 9, 42, 80
1, 119159, Note_on_c, 9, 27, 85
1, 119159, Control_c, 12, 7, 40
1, 119200, Note_off_c, 9, 27, 64
1, 119209, Note_off_c, 9, 42, 64
1, 119209, Note_off_c, 9, 24, 64
1, 119220, Control_c, 7, 7, 51
1, 119257, Control_c, 12, 7, 40
1, 119270, Note_on_c, 2, 55, 80
1, 119276, Note_on_c, 9, 36, 100
1, 119279, Note_on_c, 9, 42, 96
1, 119280, Note_on_c, 9, 24, 40
1, 119328, Note_off_c, 9, 24, 64
1, 119332, Control_c, 11, 7, 44
1, 119339, Note_off_c, 9, 36, 64
1, 119349, Note_off_c, 9, 42, 64
1, 119352, Control_c, 7, 7, 51
1, 119355, Control_c, 12, 7, 39
1, 119453, Control_c, 12, 7, 38
1, 119466, Control_c, 11, 7, 44
1, 119484, Control_c, 7, 7, 49
1, 119508, Note_on_c, 2, 57, 100
1, 119513, Note_on_c, 9, 24, 66
1, 119518, Note_on_c, 9, 27, 95
1, 119519, Note_on_c, 9, 42, 100
1, 119521, Note_on_c, 9, 37, 122
1, 119551, Control_c, 12, 7, 38
1, 119570, Note_off_c, 9, 27, 64
1, 119575, Note_off_c, 9, 24, 64
1, 119575, Note_off_c, 9, 37, 64
1, 119580, Note_off_c, 9, 42, 64
1, 119616, Control_c, 7, 7, 49
1, 119649, Control_c, 12, 7, 37
1, 119735, Control_c, 11, 7, 43
1, 119747, Note_on_c, 2, 62, 105
1, 119747, Control_c, 12, 7, 37
1, 119748, Control_c, 7, 7, 48
1, 119756, Note_on_c, 9, 24, 42
1, 119757, Note_on_c, 9, 36, 65
1, 119758, Note_on_c, 9, 42, 96
1, 119790, Note_off_c, 9, 36, 64
1, 119808, Note_off_c, 9, 24, 64
1, 119822, Note_off_c, 9, 42, 64
1, 119845, Control_c, 12, 7, 36
1, 119878, Note_on_c, 9, 36, 105
1, 119878, Note_on_c, 9, 24, 55
1, 119879, Note_on_c, 9, 42, 80
1, 119880, Control_c, 7, 7, 47
1, 119881, Note_on_c, 9, 27, 85
1, 119912, Note_off_c, 9, 27, 64
1, 119928, Note_off_c, 9, 24, 64
1, 119929, Note_off_c, 9, 42, 64
1, 119943, Control_c, 12, 7, 35
1, 119946, Note_off_c, 9, 36, 64
1, 120000, Note_on_c, 9, 42, 96
1, 120000, Control_c, 10, 7, 60
1, 120004, Control_c, 11, 7, 43
1, 120012, Control_c, 7, 7, 46
1, 120030, Control_c, 10, 7, 59
1, 120041, Control_c, 12, 7, 35
1, 120060, Control_c, 10, 7, 57
1, 120066, Note_off_c, 9, 42, 64
1, 120090, Control_c, 10, 7, 56
1, 120103, Note_off_c, 2, 55, 64
1, 120118, Note_on_c, 9, 24, 47
1, 120119, Note_on_c, 9, 27, 81
1, 120119, Note_on_c, 9, 36, 71
1, 120120, Control_c, 10, 7, 54
1, 120121, Note_on_c, 9, 42, 80
1, 120139, Control_c, 12, 7, 34
1, 120144, Control_c, 7, 7, 45
1, 120150, Control_c, 10, 7, 53
1, 120151, Note_off_c, 9, 27, 64
1, 120164, Note_off_c, 9, 36, 64
1, 120170, Note_off_c, 9, 24, 64
1, 120174, Note_off_c, 9, 42, 64
1, 120180, Control_c, 10, 7, 51
1, 120210, Control_c, 10, 7, 51
1, 120237, Control_c, 12, 7, 34
1, 120240, Note_on_c, 2, 55, 73
1, 120240, Control_c, 10, 7, 49
1, 120241, Note_on_c, 9, 36, 100
1, 120243, Note_off_c, 2, 57, 64
1, 120243, Note_on_c, 9, 42, 100
1, 120270, Control_c, 10, 7, 48
1, 120273, Control_c, 11, 7, 42
1, 120276, Control_c, 7, 7, 44
1, 120300, Control_c, 10, 7, 46
1, 120309, Note_off_c, 9, 36, 64
1, 120310, Note_off_c, 9, 42, 64
1, 120330, Control_c, 10, 7, 45
1, 120335, Control_c, 12, 7, 33
1, 120356, Note_on_c, 9, 24, 40
1, 120360, Control_c, 10, 7, 43
1, 120390, Control_c, 10, 7, 42
1, 120404, Note_off_c, 9, 24, 64
1, 120408, Control_c, 7, 7, 43
1, 120420, Control_c, 10, 7, 41
1, 120433, Control_c, 12, 7, 32
1, 120450, Control_c, 10, 7, 40
1, 120476, Note_on_c, 9, 24, 55
1, 120477, Note_on_c, 2, 57, 110
1, 120477, Note_on_c, 9, 27, 95
1, 120478, Note_on_c, 9, 37, 122
1, 120479, Note_off_c, 2, 55, 64
1, 120480, Note_on_c, 9, 42, 100
1, 120480, Control_c, 10, 7, 38
1, 120510, Control_c, 10, 7, 37
1, 120526, Note_off_c, 9, 27, 64
1, 120531, Control_c, 12, 7, 32
1, 120533, Note_off_c, 9, 37, 64
1, 120539, Note_off_c, 9, 24, 64
1, 120540, Control_c, 7, 7, 43
1, 120540, Control_c, 10, 7, 35
1, 120543, Note_off_c, 9, 42, 64
1, 120570, Control_c, 10, 7, 34
1, 120600, Control_c, 10, 7, 33
1, 120629, Control_c, 12, 7, 31
1, 120630, Control_c, 10, 7, 32
1, 120660, Control_c, 10, 7, 30
1, 120672, Control_c, 7, 7, 41
1, 120677, Control_c, 11, 7, 41
1, 120690, Control_c, 10, 7, 29
1, 120715, Note_on_c, 2, 55, 64
1, 120715, Note_on_c, 9, 24, 51
1, 120718, Note_on_c, 9, 42, 96
1, 120720, Control_c, 10, 7, 27
1, 120721, Note_off_c, 2, 57, 64
1, 120727, Control_c, 12, 7, 31
1, 120735, Note_off_c, 2, 41, 64
1, 120750, Control_c, 10, 7, 26
1, 120766, Note_off_c, 9, 24, 64
1, 120780, Control_c, 10, 7, 25
1, 120781, Note_off_c, 9, 42, 64
1, 120804, Control_c, 7, 7, 40
1, 120810, Control_c, 10, 7, 24
1, 120825, Control_c, 12, 7, 30
1, 120826, Note_off_c, 2, 62, 64
1, 120828, Note_off_c, 2, 55, 64
1, 120837, Note_on_c, 9, 24, 44
1, 120838, Note_on_c, 9, 42, 80
1, 120840, Control_c, 10, 7, 22
1, 120841, Note_on_c, 9, 36, 73
1, 120845, Note_on_c, 9, 27, 85
1, 120866, Note_off_c, 9, 27, 64
1, 120870, Control_c, 10, 7, 21
1, 120883, Note_off_c, 9, 36, 64
1, 120885, Note_off_c, 9, 42, 64
1, 120896, Note_off_c, 9, 24, 64
1, 120900, Control_c, 10, 7, 19
1, 120919, Control_c, 2, 64, 0
1, 120923, Control_c, 12, 7, 29
1, 120930, Control_c, 10, 7, 18
1, 120931, Note_off_c, 1, 41, 64
1, 120936, Control_c, 7, 7, 39
1, 120943, Note_off_c, 7, 62, 64
1, 120943, Note_off_c, 11, 74, 64
1, 120948, Note_off_c, 7, 53, 64
1, 120949, Note_off_c, 7, 57, 64
1, 120952, Note_on_c, 1, 31, 115
1, 120954, Note_on_c, 7, 43, 69
1, 120954, Note_on_c, 7, 67, 80
1, 120954, Note_off_c, 11, 69, 64
1, 120955, Note_on_c, 7, 58, 73
1, 120957, Note_on_c, 7, 62, 86
1, 120959, Note_on_c, 3, 62, 110
1, 120959, Note_on_c, 9, 36, 110
1, 120959, Lyric_t, "We "
1, 120960, Note_on_c, 2, 58, 80
1, 120960, Control_c, 7, 7, 39
1, 120960, Control_c, 10, 7, 17
1, 120960, Control_c, 11, 7, 41
1, 120960, Control_c, 12, 7, 29
1, 120961, Note_on_c, 9, 42, 105
1, 120961, Note_on_c, 10, 67, 67
1, 120961, Note_on_c, 11, 70, 73
1, 120962, Note_on_c, 2, 55, 67
1, 120962, Note_off_c, 11, 77, 64
1, 120962, Note_on_c, 11, 67, 75
1, 120962, Note_off_c, 12, 41, 64
1, 120963, Note_on_c, 2, 43, 73
1, 120963, Note_on_c, 2, 62, 86
1, 120963, Note_on_c, 11, 79, 83
1, 120963, Note_on_c, 11, 74, 86
1, 120964, Note_on_c, 2, 65, 86
1, 120964, Note_on_c, 12, 43, 122
1, 120965, Note_on_c, 10, 79, 89
1, 120966, Note_off_c, 11, 65, 64
1, 121022, Note_off_c, 9, 42, 64
1, 121025, Note_off_c, 9, 36, 64
1, 121044, Control_c, 10, 7, 18
1, 121076, Note_on_c, 9, 27, 90
1, 121079, Note_on_c, 9, 24, 51
1, 121079, Note_on_c, 9, 42, 71
1, 121094, Control_c, 7, 7, 40
1, 121098, Note_off_c, 9, 27, 64
1, 121128, Control_c, 10, 7, 19
1, 121136, Note_off_c, 9, 42, 64
1, 121147, Note_off_c, 9, 24, 64
1, 121172, Control_c, 2, 64, 127
1, 121197, Note_on_c, 9, 24, 43
1, 121198, Note_on_c, 9, 42, 96
1, 121199, Note_on_c, 9, 36, 110
1, 121211, Note_on_c, 2, 69, 89
1, 121212, Control_c, 10, 7, 20
1, 121229, Control_c, 7, 7, 41
1, 121251, Note_off_c, 9, 42, 64
1, 121257, Note_off_c, 9, 24, 64
1, 121260, Note_off_c, 9, 36, 64
1, 121266, Control_c, 12, 7, 29
1, 121296, Control_c, 10, 7, 22
1, 121350, Control_c, 3, 1, 4
1, 121363, Control_c, 7, 7, 42
1, 121380, Control_c, 10, 7, 23
1, 121395, Control_c, 3, 1, 9
1, 121436, Note_on_c, 9, 24, 51
1, 121440, Note_on_c, 9, 37, 122
1, 121441, Note_on_c, 9, 27, 95
1, 121442, Note_on_c, 9, 42, 96
1, 121464, Control_c, 10, 7, 24
1, 121470, Control_c, 12, 7, 30
1, 121471, Note_off_c, 9, 27, 64
1, 121473, Control_c, 3, 1, 14
1, 121487, Note_off_c, 9, 24, 64
1, 121491, Note_off_c, 9, 37, 64
1, 121497, Note_off_c, 9, 42, 64
1, 121498, Control_c, 7, 7, 43
1, 121517, Control_c, 3, 1, 19
1, 121548, Control_c, 10, 7, 25
1, 121561, Control_c, 3, 1, 24
1, 121610, Note_off_c, 2, 69, 64
1, 121617, Control_c, 3, 1, 29
1, 121632, Control_c, 7, 7, 44
1, 121632, Control_c, 10, 7, 26
1, 121645, Control_c, 11, 7, 41
1, 121650, Control_c, 3, 1, 34
1, 121653, Note_off_c, 2, 65, 64
1, 121674, Control_c, 12, 7, 31
1, 121675, Note_on_c, 9, 36, 65
1, 121677, Note_on_c, 9, 24, 41
1, 121680, Note_on_c, 9, 42, 92
1, 121691, Note_on_c, 2, 67, 86
1, 121706, Control_c, 3, 1, 44
1, 121709, Note_off_c, 9, 36, 64
1, 121716, Control_c, 10, 7, 27
1, 121726, Note_off_c, 9, 24, 64
1, 121728, Note_off_c, 9, 42, 64
1, 121751, Control_c, 3, 1, 56
1, 121767, Control_c, 7, 7, 45
1, 121795, Control_c, 3, 1, 66
1, 121798, Note_on_c, 9, 42, 75
1, 121799, Note_on_c, 9, 27, 90
1, 121799, Note_on_c, 9, 36, 105
1, 121800, Note_on_c, 9, 24, 45
1, 121800, Control_c, 10, 7, 28
1, 121826, Note_off_c, 9, 27, 64
1, 121847, Note_off_c, 9, 42, 64
1, 121861, Note_off_c, 9, 24, 64
1, 121866, Note_off_c, 9, 36, 64
1, 121873, Control_c, 3, 1, 53
1, 121878, Control_c, 12, 7, 31
1, 121884, Control_c, 10, 7, 29
1, 121901, Control_c, 7, 7, 47
1, 121906, Control_c, 3, 1, 0
1, 121919, Note_on_c, 9, 42, 96
1, 121922, Note_on_c, 3, 65, 110
1, 121922, Lyric_t, "had "
1, 121940, Note_off_c, 3, 62, 64
1, 121968, Control_c, 10, 7, 30
1, 121980, Note_off_c, 9, 42, 64
1, 122036, Control_c, 7, 7, 48
1, 122036, Note_on_c, 9, 27, 85
1, 122038, Note_on_c, 9, 36, 65
1, 122039, Note_on_c, 9, 42, 80
1, 122040, Note_on_c, 9, 24, 51
1, 122052, Control_c, 10, 7, 31
1, 122074, Note_off_c, 9, 36, 64
1, 122075, Note_off_c, 9, 27, 64
1, 122082, Control_c, 12, 7, 32
1, 122093, Note_off_c, 9, 24, 64
1, 122094, Note_off_c, 9, 42, 64
1, 122136, Control_c, 10, 7, 32
1, 122159, Note_on_c, 9, 36, 110
1, 122160, Note_on_c, 9, 42, 96
1, 122161, Note_off_c, 2, 67, 64
1, 122170, Note_on_c, 2, 69, 92
1, 122170, Control_c, 7, 7, 48
1, 122193, Control_c, 11, 7, 42
1, 122217, Note_off_c, 9, 36, 64
1, 122220, Control_c, 10, 7, 33
1, 122225, Note_off_c, 9, 42, 64
1, 122281, Note_on_c, 9, 24, 40
1, 122286, Control_c, 12, 7, 32
1, 122304, Control_c, 10, 7, 34
1, 122305, Control_c, 7, 7, 49
1, 122329, Control_c, 3, 1, 1
1, 122331, Note_off_c, 9, 24, 64
1, 122362, Control_c, 3, 1, 6
1, 122388, Control_c, 10, 7, 34
1, 122388, Control_c, 12, 7, 33
1, 122395, Control_c, 3, 1, 11
1, 122396, Note_on_c, 9, 27, 95
1, 122401, Note_on_c, 9, 24, 53
1, 122401, Note_on_c, 9, 37, 115
1, 122402, Note_on_c, 9, 42, 96
1, 122429, Control_c, 3, 1, 16
1, 122433, Note_off_c, 9, 27, 64
1, 122439, Control_c, 7, 7, 50
1, 122447, Note_off_c, 9, 42, 64
1, 122454, Note_off_c, 9, 24, 64
1, 122459, Note_off_c, 9, 37, 64
1, 122472, Control_c, 10, 7, 35
1, 122495, Control_c, 3, 1, 26
1, 122529, Control_c, 3, 1, 31
1, 122556, Control_c, 10, 7, 36
1, 122562, Control_c, 3, 1, 36
1, 122574, Control_c, 7, 7, 51
1, 122592, Control_c, 12, 7, 34
1, 122595, Control_c, 3, 1, 41
1, 122604, Note_off_c, 2, 69, 64
1, 122604, Control_c, 11, 7, 43
1, 122638, Note_on_c, 9, 24, 42
1, 122638, Note_on_c, 9, 42, 100
1, 122640, Control_c, 10, 7, 37
1, 122641, Note_on_c, 2, 65, 86
1, 122651, Control_c, 3, 1, 51
1, 122696, Control_c, 3, 1, 61
1, 122696, Note_off_c, 9, 24, 64
1, 122699, Note_off_c, 9, 42, 64
1, 122708, Control_c, 7, 7, 52
1, 122724, Control_c, 10, 7, 37
1, 122758, Note_on_c, 9, 36, 80
1, 122758, Note_on_c, 9, 42, 80
1, 122759, Note_on_c, 9, 24, 49
1, 122760, Note_on_c, 9, 27, 90
1, 122785, Control_c, 3, 1, 44
1, 122790, Note_off_c, 9, 27, 64
1, 122796, Control_c, 12, 7, 34
1, 122807, Note_off_c, 9, 36, 64
1, 122808, Control_c, 10, 7, 38
1, 122809, Note_off_c, 9, 42, 64
1, 122816, Note_off_c, 9, 24, 64
1, 122818, Control_c, 3, 1, 0
1, 122843, Control_c, 7, 7, 52
1, 122866, Note_off_c, 3, 65, 64
1, 122879, Note_on_c, 9, 42, 96
1, 122880, Note_on_c, 9, 36, 110
1, 122881, Note_on_c, 3, 64, 105
1, 122881, Lyric_t, "hope "
1, 122892, Control_c, 10, 7, 39
1, 122940, Note_off_c, 9, 36, 64
1, 122952, Note_off_c, 9, 42, 64
1, 122976, Control_c, 10, 7, 39
1, 122977, Control_c, 7, 7, 53
1, 122997, Note_on_c, 9, 24, 49
1, 123000, Note_on_c, 9, 27, 85
1, 123000, Note_on_c, 9, 42, 75
1, 123000, Control_c, 12, 7, 35
1, 123015, Control_c, 11, 7, 43
1, 123036, Note_off_c, 9, 27, 64
1, 123047, Note_off_c, 9, 42, 64
1, 123057, Note_off_c, 9, 24, 64
1, 123060, Control_c, 10, 7, 40
1, 123102, Control_c, 12, 7, 35
1, 123112, Control_c, 7, 7, 54
1, 123117, Note_on_c, 2, 69, 92
1, 123117, Note_on_c, 9, 24, 45
1, 123119, Note_on_c, 9, 42, 96
1, 123119, Note_on_c, 9, 36, 110
1, 123129, Control_c, 3, 1, 1
1, 123134, Note_off_c, 2, 65, 64
1, 123144, Control_c, 10, 7, 40
1, 123162, Control_c, 3, 1, 7
1, 123183, Note_off_c, 9, 24, 64
1, 123184, Note_off_c, 9, 36, 64
1, 123189, Note_off_c, 9, 42, 64
1, 123196, Control_c, 3, 1, 12
1, 123228, Control_c, 10, 7, 41
1, 123246, Control_c, 7, 7, 54
1, 123251, Control_c, 3, 1, 22
1, 123306, Control_c, 12, 7, 36
1, 123307, Control_c, 3, 1, 32
1, 123312, Control_c, 10, 7, 42
1, 123341, Control_c, 3, 1, 37
1, 123359, Note_on_c, 9, 37, 122
1, 123360, Note_on_c, 9, 24, 47
1, 123360, Note_on_c, 9, 27, 95
1, 123360, Note_on_c, 9, 42, 105
1, 123381, Control_c, 7, 7, 55
1, 123396, Control_c, 3, 1, 53
1, 123396, Control_c, 10, 7, 42
1, 123402, Note_off_c, 9, 27, 64
1, 123407, Note_off_c, 9, 24, 64
1, 123408, Control_c, 12, 7, 37
1, 123413, Note_off_c, 9, 37, 64
1, 123417, Note_off_c, 9, 42, 64
1, 123426, Control_c, 11, 7, 44
1, 123441, Control_c, 3, 1, 66
1, 123474, Control_c, 3, 1, 71
1, 123480, Control_c, 10, 7, 42
1, 123508, Control_c, 3, 1, 58
1, 123515, Control_c, 7, 7, 56
1, 123541, Control_c, 3, 1, 0
1, 123551, Note_off_c, 2, 69, 64
1, 123564, Control_c, 10, 7, 43
1, 123594, Note_on_c, 9, 36, 64
1, 123595, Note_on_c, 3, 65, 100
1, 123595, Lyric_t, "and \015"
1, 123598, Note_on_c, 9, 42, 96
1, 123599, Note_on_c, 9, 24, 44
1, 123600, Note_off_c, 3, 64, 64
1, 123603, Note_on_c, 2, 67, 86
1, 123612, Control_c, 12, 7, 37
1, 123632, Note_off_c, 9, 36, 64
1, 123648, Control_c, 10, 7, 43
1, 123650, Control_c, 7, 7, 57
1, 123656, Note_off_c, 9, 42, 64
1, 123657, Note_off_c, 9, 24, 64
1, 123700, Control_c, 11, 7, 44
1, 123714, Control_c, 12, 7, 38
1, 123717, Note_on_c, 9, 36, 105
1, 123717, Note_on_c, 9, 42, 80
1, 123720, Note_on_c, 9, 24, 51
1, 123722, Note_on_c, 9, 27, 90
1, 123732, Control_c, 10, 7, 44
1, 123745, Note_off_c, 9, 27, 64
1, 123762, Note_off_c, 9, 42, 64
1, 123775, Note_off_c, 9, 24, 64
1, 123784, Control_c, 7, 7, 57
1, 123788, Note_off_c, 9, 36, 64
1, 123816, Control_c, 10, 7, 44
1, 123838, Note_on_c, 9, 42, 96
1, 123900, Control_c, 10, 7, 45
1, 123901, Note_off_c, 9, 42, 64
1, 123918, Control_c, 12, 7, 38
1, 123919, Control_c, 3, 1, 9
1, 123919, Control_c, 7, 7, 58
1, 123957, Note_on_c, 9, 24, 45
1, 123958, Note_on_c, 9, 36, 63
1, 123958, Note_on_c, 9, 27, 90
1, 123958, Note_on_c, 9, 42, 83
1, 123963, Control_c, 3, 1, 16
1, 123984, Control_c, 10, 7, 45
1, 123995, Note_off_c, 9, 27, 64
1, 123997, Note_off_c, 9, 36, 64
1, 124009, Note_off_c, 9, 42, 64
1, 124016, Note_off_c, 9, 24, 64
1, 124019, Control_c, 3, 1, 26
1, 124020, Control_c, 12, 7, 39
1, 124053, Control_c, 7, 7, 58
1, 124063, Control_c, 3, 1, 36
1, 124068, Control_c, 10, 7, 46
1, 124077, Note_on_c, 2, 69, 92
1, 124078, Note_on_c, 9, 36, 110
1, 124078, Note_on_c, 9, 42, 100
1, 124097, Control_c, 3, 1, 42
1, 124111, Control_c, 11, 7, 45
1, 124122, Control_c, 12, 7, 40
1, 124130, Control_c, 3, 1, 49
1, 124142, Note_off_c, 9, 42, 64
1, 124143, Note_off_c, 9, 36, 64
1, 124152, Control_c, 10, 7, 46
1, 124174, Control_c, 3, 1, 54
1, 124188, Control_c, 7, 7, 59
1, 124196, Note_on_c, 9, 24, 44
1, 124230, Control_c, 3, 1, 59
1, 124236, Control_c, 10, 7, 47
1, 124250, Note_off_c, 9, 24, 64
1, 124274, Control_c, 3, 1, 42
1, 124293, Note_off_c, 3, 65, 64
1, 124308, Control_c, 3, 1, 0
1, 124317, Note_on_c, 9, 24, 55
1, 124319, Note_on_c, 9, 42, 96
1, 124320, Note_on_c, 9, 27, 95
1, 124320, Note_on_c, 9, 37, 122
1, 124322, Control_c, 7, 7, 60
1, 124326, Control_c, 12, 7, 40
1, 124351, Note_off_c, 2, 67, 64
1, 124351, Note_off_c, 2, 62, 64
1, 124361, Note_off_c, 9, 27, 64
1, 124372, Note_off_c, 2, 69, 64
1, 124375, Note_off_c, 2, 58, 64
1, 124375, Note_off_c, 9, 37, 64
1, 124377, Note_off_c, 2, 55, 64
1, 124382, Note_off_c, 2, 43, 64
1, 124382, Note_off_c, 9, 24, 64
1, 124383, Note_off_c, 9, 42, 64
1, 124385, Control_c, 11, 7, 46
1, 124404, Control_c, 10, 7, 47
1, 124428, Control_c, 12, 7, 41
1, 124457, Control_c, 7, 7, 60
1, 124488, Control_c, 10, 7, 48
1, 124530, Control_c, 12, 7, 41
1, 124557, Note_on_c, 9, 24, 44
1, 124557, Note_on_c, 9, 42, 92
1, 124572, Control_c, 10, 7, 48
1, 124613, Note_off_c, 9, 24, 64
1, 124613, Note_off_c, 9, 42, 64
1, 124632, Control_c, 12, 7, 42
1, 124656, Control_c, 10, 7, 49
1, 124659, Control_c, 11, 7, 46
1, 124676, Note_on_c, 9, 42, 77
1, 124679, Note_on_c, 9, 24, 47
1, 124679, Note_on_c, 9, 36, 73
1, 124682, Note_on_c, 9, 27, 90
1, 124709, Note_off_c, 9, 36, 64
1, 124711, Note_off_c, 9, 27, 64
1, 124726, Control_c, 7, 7, 61
1, 124731, Note_off_c, 9, 42, 64
1, 124743, Control_c, 2, 64, 0
1, 124746, Note_off_c, 9, 24, 64
1, 124767, Note_off_c, 1, 31, 64
1, 124770, Note_off_c, 11, 70, 64
1, 124782, Note_off_c, 12, 43, 64
1, 124785, Note_off_c, 11, 79, 64
1, 124789, Note_off_c, 7, 58, 64
1, 124793, Note_off_c, 7, 67, 64
1, 124797, Note_on_c, 7, 65, 83
1, 124797, Note_on_c, 11, 77, 80
1, 124798, Note_on_c, 3, 62, 100
1, 124798, Note_on_c, 9, 42, 100
1, 124798, Lyric_t, "now "
1, 124799, Note_on_c, 7, 57, 75
1, 124799, Note_on_c, 9, 36, 105
1, 124800, Note_on_c, 7, 41, 73
1, 124800, Note_on_c, 11, 65, 77
1, 124800, Note_on_c, 11, 69, 80
1, 124802, Note_on_c, 1, 29, 115
1, 124802, Note_off_c, 7, 43, 64
1, 124805, Note_on_c, 2, 57, 83
1, 124805, Note_on_c, 2, 65, 100
1, 124806, Note_on_c, 2, 53, 83
1, 124807, Note_on_c, 2, 62, 96
1, 124807, Note_on_c, 2, 41, 77
1, 124807, Note_off_c, 10, 79, 64
1, 124807, Note_off_c, 11, 67, 64
1, 124808, Note_on_c, 10, 81, 86
1, 124808, Note_on_c, 12, 41, 115
1, 124809, Note_on_c, 10, 69, 80
1, 124811, Note_off_c, 10, 67, 64
1, 124824, Control_c, 10, 7, 49
1, 124836, Control_c, 12, 7, 43
1, 124858, Note_off_c, 9, 42, 64
1, 124860, Control_c, 7, 7, 61
1, 124870, Note_off_c, 9, 36, 64
1, 124908, Control_c, 10, 7, 50
1, 124917, Note_on_c, 9, 24, 51
1, 124918, Note_on_c, 9, 42, 83
1, 124920, Note_on_c, 9, 27, 90
1, 124933, Control_c, 11, 7, 47
1, 124938, Control_c, 12, 7, 43
1, 124965, Note_off_c, 9, 27, 64
1, 124971, Note_off_c, 9, 42, 64
1, 124978, Note_off_c, 9, 24, 64
1, 124995, Control_c, 7, 7, 62
1, 125038, Note_on_c, 9, 36, 110
1, 125038, Note_on_c, 9, 24, 44
1, 125039, Note_on_c, 9, 42, 96
1, 125040, Control_c, 12, 7, 44
1, 125055, Note_on_c, 2, 69, 96
1, 125070, Control_c, 11, 7, 47
1, 125076, Control_c, 10, 7, 50
1, 125078, Control_c, 2, 64, 127
1, 125090, Note_off_c, 9, 42, 64
1, 125105, Note_off_c, 9, 36, 64
1, 125116, Note_off_c, 9, 24, 64
1, 125129, Control_c, 7, 7, 62
1, 125142, Control_c, 12, 7, 44
1, 125154, Control_c, 3, 1, 1
1, 125160, Control_c, 10, 7, 51
1, 125187, Control_c, 3, 1, 6
1, 125221, Control_c, 3, 1, 12
1, 125244, Control_c, 12, 7, 45
1, 125254, Control_c, 3, 1, 19
1, 125278, Note_on_c, 9, 37, 127
1, 125279, Note_on_c, 9, 24, 55
1, 125280, Note_on_c, 9, 27, 95
1, 125281, Note_on_c, 9, 42, 100
1, 125299, Control_c, 3, 1, 36
1, 125327, Note_off_c, 9, 27, 64
1, 125328, Control_c, 10, 7, 51
1, 125329, Note_off_c, 9, 37, 64
1, 125336, Note_off_c, 9, 42, 64
1, 125339, Note_off_c, 9, 24, 64
1, 125343, Control_c, 3, 1, 56
1, 125344, Control_c, 11, 7, 48
1, 125346, Control_c, 12, 7, 46
1, 125377, Control_c, 3, 1, 66
1, 125398, Control_c, 7, 7, 63
1, 125401, Note_off_c, 2, 69, 64
1, 125412, Control_c, 10, 7, 51
1, 125448, Control_c, 12, 7, 46
1, 125454, Control_c, 3, 1, 44
1, 125481, Control_c, 11, 7, 49
1, 125488, Control_c, 3, 1, 0
1, 125511, Note_off_c, 3, 62, 64
1, 125514, Note_on_c, 9, 36, 67
1, 125515, Note_on_c, 3, 65, 105
1, 125515, Lyric_t, "it's "
1, 125517, Note_on_c, 9, 24, 43
1, 125517, Note_on_c, 9, 42, 96
1, 125533, Control_c, 7, 7, 64
1, 125535, Note_on_c, 2, 67, 100
1, 125550, Control_c, 12, 7, 47
1, 125553, Note_off_c, 9, 36, 64
1, 125580, Control_c, 10, 7, 52
1, 125581, Note_off_c, 9, 42, 64
1, 125586, Note_off_c, 9, 24, 64
1, 125618, Control_c, 11, 7, 49
1, 125635, Note_on_c, 9, 42, 80
1, 125637, Note_on_c, 9, 36, 110
1, 125639, Note_on_c, 9, 24, 42
1, 125639, Note_on_c, 9, 27, 90
1, 125652, Control_c, 12, 7, 47
1, 125667, Control_c, 7, 7, 64
1, 125667, Note_off_c, 9, 27, 64
1, 125686, Note_off_c, 9, 42, 64
1, 125690, Note_off_c, 9, 24, 64
1, 125705, Note_off_c, 9, 36, 64
1, 125748, Control_c, 10, 7, 52
1, 125754, Control_c, 12, 7, 48
1, 125756, Note_on_c, 9, 42, 100
1, 125822, Note_off_c, 9, 42, 64
1, 125832, Control_c, 10, 7, 53
1, 125856, Control_c, 12, 7, 49
1, 125866, Control_c, 3, 1, 4
1, 125877, Note_on_c, 9, 42, 83
1, 125877, Note_on_c, 9, 24, 47
1, 125877, Note_on_c, 9, 36, 65
1, 125879, Note_on_c, 9, 27, 85
1, 125892, Control_c, 11, 7, 50
1, 125909, Note_off_c, 2, 67, 64
1, 125910, Control_c, 3, 1, 14
1, 125916, Note_off_c, 9, 27, 64
1, 125927, Note_off_c, 9, 36, 64
1, 125929, Note_off_c, 9, 42, 64
1, 125934, Note_off_c, 9, 24, 64
1, 125936, Control_c, 7, 7, 65
1, 125955, Control_c, 3, 1, 24
1, 125958, Control_c, 12, 7, 49
1, 125988, Control_c, 3, 1, 29
1, 125997, Note_on_c, 9, 42, 100
1, 125998, Note_on_c, 9, 36, 110
1, 126000, Control_c, 10, 7, 53
1, 126006, Note_on_c, 2, 69, 100
1, 126021, Control_c, 3, 1, 34
1, 126029, Control_c, 11, 7, 50
1, 126060, Note_off_c, 9, 36, 64
1, 126060, Control_c, 12, 7, 50
1, 126066, Control_c, 3, 1, 39
1, 126067, Note_off_c, 9, 42, 64
1, 126071, Control_c, 7, 7, 65
1, 126110, Control_c, 3, 1, 44
1, 126118, Note_on_c, 9, 24, 41
1, 126162, Control_c, 12, 7, 50
1, 126166, Control_c, 3, 1, 49
1, 126166, Control_c, 11, 7, 51
1, 126168, Control_c, 10, 7, 54
1, 126170, Note_off_c, 9, 24, 64
1, 126222, Control_c, 3, 1, 54
1, 126238, Note_on_c, 9, 24, 57
1, 126238, Note_on_c, 9, 42, 105
1, 126239, Note_on_c, 9, 27, 95
1, 126240, Note_on_c, 9, 37, 122
1, 126254, Note_off_c, 2, 69, 64
1, 126264, Note_off_c, 2, 57, 64
1, 126264, Control_c, 12, 7, 51
1, 126270, Note_off_c, 2, 41, 64
1, 126277, Control_c, 3, 1, 59
1, 126278, Note_off_c, 2, 62, 64
1, 126280, Note_off_c, 2, 65, 64
1, 126281, Note_off_c, 9, 27, 64
1, 126292, Note_off_c, 9, 37, 64
1, 126296, Note_off_c, 2, 53, 64
1, 126302, Note_off_c, 9, 24, 64
1, 126303, Control_c, 11, 7, 51
1, 126304, Note_off_c, 9, 42, 64
1, 126336, Control_c, 10, 7, 54
1, 126340, Control_c, 7, 7, 66
1, 126366, Control_c, 3, 1, 64
1, 126366, Control_c, 12, 7, 52
1, 126410, Control_c, 3, 1, 76
1, 126440, Control_c, 11, 7, 52
1, 126455, Control_c, 3, 1, 90
1, 126468, Control_c, 12, 7, 53
1, 126476, Note_on_c, 9, 42, 96
1, 126477, Note_on_c, 9, 24, 45
1, 126504, Control_c, 10, 7, 55
1, 126511, Control_c, 3, 1, 76
1, 126532, Note_off_c, 9, 42, 64
1, 126534, Note_off_c, 9, 24, 64
1, 126544, Control_c, 3, 1, 0
1, 126570, Control_c, 12, 7, 53
1, 126577, Control_c, 11, 7, 53
1, 126590, Note_off_c, 3, 65, 64
1, 126595, Note_on_c, 9, 42, 86
1, 126598, Note_on_c, 9, 24, 44
1, 126598, Note_on_c, 9, 36, 75
1, 126602, Note_on_c, 9, 27, 90
1, 126609, Control_c, 7, 7, 66
1, 126633, Note_off_c, 9, 27, 64
1, 126641, Note_off_c, 9, 36, 64
1, 126652, Note_off_c, 9, 42, 64
1, 126659, Note_off_c, 9, 24, 64
1, 126660, Note_off_c, 1, 29, 64
1, 126662, Note_off_c, 7, 57, 64
1, 126664, Note_off_c, 12, 41, 64
1, 126666, Note_off_c, 11, 69, 64
1, 126672, Control_c, 10, 7, 55
1, 126672, Control_c, 12, 7, 54
1, 126687, Pitch_bend_c, 3, 7130
1, 126688, Note_off_c, 7, 62, 64
1, 126698, Pitch_bend_c, 3, 4171
1, 126708, Note_on_c, 3, 74, 110
1, 126708, Lyric_t, "bro"
1, 126709, Pitch_bend_c, 3, 1896
1, 126712, Note_on_c, 2, 58, 83
1, 126713, Note_on_c, 7, 67, 86
1, 126714, Note_on_c, 2, 67, 89
1, 126714, Note_on_c, 7, 62, 77
1, 126714, Control_c, 11, 7, 54
1, 126715, Control_c, 2, 64, 0
1, 126715, Note_on_c, 2, 55, 73
1, 126715, Note_on_c, 11, 79, 86
1, 126715, Note_on_c, 12, 43, 115
1, 126716, Note_on_c, 1, 31, 115
1, 126716, Note_on_c, 2, 62, 92
1, 126716, Note_on_c, 2, 43, 75
1, 126716, Note_on_c, 7, 43, 71
1, 126716, Note_on_c, 9, 41, 75
1, 126716, Note_on_c, 9, 38, 71
1, 126717, Note_on_c, 7, 58, 83
1, 126717, Note_off_c, 7, 65, 64
1, 126718, Note_on_c, 9, 42, 100
1, 126719, Note_on_c, 9, 36, 105
1, 126719, Note_on_c, 11, 70, 80
1, 126719, Note_on_c, 11, 67, 77
1, 126720, Tempo, 619319
1, 126720, Pitch_bend_c, 3, 910
1, 126720, Note_off_c, 7, 41, 64
1, 126724, Note_off_c, 11, 65, 64
1, 126742, Pitch_bend_c, 3, 1441
1, 126743, Control_c, 7, 7, 67
1, 126754, Pitch_bend_c, 3, 2503
1, 126765, Pitch_bend_c, 3, 4475
1, 126774, Control_c, 12, 7, 55
1, 126775, Note_off_c, 9, 41, 64
1, 126776, Pitch_bend_c, 3, 8192
1, 126778, Note_off_c, 9, 36, 64
1, 126779, Note_off_c, 9, 38, 64
1, 126783, Note_off_c, 9, 42, 64
1, 126835, Note_on_c, 9, 24, 49
1, 126839, Note_on_c, 9, 42, 80
1, 126839, Note_on_c, 9, 27, 85
1, 126840, Control_c, 10, 7, 56
1, 126851, Control_c, 11, 7, 54
1, 126876, Control_c, 12, 7, 56
1, 126880, Note_off_c, 9, 27, 64
1, 126889, Note_off_c, 9, 42, 64
1, 126889, Note_off_c, 9, 24, 64
1, 126956, Note_on_c, 9, 36, 100
1, 126957, Note_on_c, 9, 38, 73
1, 126958, Note_on_c, 9, 41, 80
1, 126959, Note_on_c, 9, 42, 96
1, 126960, Control_c, 2, 64, 127
1, 126960, Note_on_c, 9, 24, 40
1, 126968, Note_on_c, 2, 69, 89
1, 126978, Control_c, 12, 7, 56
1, 126988, Control_c, 11, 7, 55
1, 127008, Note_off_c, 9, 24, 64
1, 127012, Control_c, 7, 7, 68
1, 127016, Note_off_c, 9, 41, 64
1, 127018, Note_off_c, 9, 38, 64
1, 127019, Note_off_c, 9, 36, 64
1, 127029, Note_off_c, 9, 42, 64
1, 127080, Control_c, 12, 7, 58
1, 127092, Control_c, 10, 7, 56
1, 127111, Control_c, 3, 1, 9
1, 127125, Control_c, 11, 7, 56
1, 127155, Control_c, 3, 1, 21
1, 127182, Control_c, 12, 7, 58
1, 127188, Control_c, 3, 1, 32
1, 127193, Note_on_c, 9, 24, 66
1, 127195, Note_off_c, 2, 69, 64
1, 127198, Note_on_c, 9, 27, 95
1, 127198, Note_on_c, 9, 41, 83
1, 127199, Note_on_c, 9, 38, 77
1, 127199, Note_on_c, 9, 42, 100
1, 127244, Control_c, 3, 1, 46
1, 127250, Note_off_c, 9, 27, 64
1, 127255, Note_off_c, 9, 24, 64
1, 127256, Note_off_c, 9, 41, 64
1, 127259, Note_off_c, 9, 38, 64
1, 127260, Note_off_c, 9, 42, 64
1, 127260, Control_c, 10, 7, 57
1, 127262, Control_c, 11, 7, 57
1, 127281, Control_c, 7, 7, 68
1, 127284, Control_c, 12, 7, 59
1, 127289, Control_c, 3, 1, 66
1, 127322, Control_c, 3, 1, 86
1, 127366, Control_c, 3, 1, 78
1, 127386, Control_c, 12, 7, 60
1, 127399, Control_c, 11, 7, 58
1, 127400, Control_c, 3, 1, 0
1, 127436, Note_on_c, 9, 24, 42
1, 127437, Note_on_c, 9, 36, 65
1, 127438, Note_on_c, 2, 69, 96
1, 127438, Note_on_c, 9, 42, 96
1, 127438, Note_on_c, 9, 41, 92
1, 127439, Note_on_c, 9, 38, 86
1, 127443, Note_off_c, 3, 74, 64
1, 127448, Note_on_c, 3, 69, 110
1, 127448, Lyric_t, "ken.\015"
1, 127470, Note_off_c, 9, 36, 64
1, 127488, Note_off_c, 9, 24, 64
1, 127488, Control_c, 12, 7, 61
1, 127499, Note_off_c, 9, 38, 64
1, 127500, Note_off_c, 9, 41, 64
1, 127502, Note_off_c, 9, 42, 64
1, 127512, Control_c, 10, 7, 57
1, 127536, Control_c, 11, 7, 59
1, 127550, Control_c, 7, 7, 69
1, 127558, Note_on_c, 9, 36, 105
1, 127558, Note_on_c, 9, 24, 55
1, 127559, Note_on_c, 9, 42, 80
1, 127561, Note_on_c, 9, 27, 85
1, 127590, Control_c, 12, 7, 62
1, 127592, Note_off_c, 9, 27, 64
1, 127608, Note_off_c, 9, 24, 64
1, 127609, Note_off_c, 9, 42, 64
1, 127626, Note_off_c, 9, 36, 64
1, 127673, Control_c, 11, 7, 60
1, 127677, Note_on_c, 9, 41, 100
1, 127678, Note_on_c, 9, 38, 89
1, 127680, Note_on_c, 9, 42, 96
1, 127680, Control_c, 10, 7, 58
1, 127692, Control_c, 12, 7, 63
1, 127740, Note_off_c, 9, 38, 64
1, 127742, Note_off_c, 9, 41, 64
1, 127746, Note_off_c, 9, 42, 64
1, 127794, Control_c, 12, 7, 64
1, 127797, Note_on_c, 14, 60, 122
1, 127798, Note_on_c, 9, 24, 47
1, 127799, Note_on_c, 9, 27, 81
1, 127799, Note_on_c, 9, 36, 71
1, 127801, Note_on_c, 9, 42, 80
1, 127810, Control_c, 11, 7, 62
1, 127819, Control_c, 7, 7, 69
1, 127831, Note_off_c, 9, 27, 64
1, 127833, Control_c, 3, 1, 7
1, 127844, Note_off_c, 9, 36, 64
1, 127850, Note_off_c, 9, 24, 64
1, 127854, Note_off_c, 9, 42, 64
1, 127867, Control_c, 3, 1, 12
1, 127896, Control_c, 12, 7, 65
1, 127904, Note_off_c, 2, 69, 64
1, 127905, Note_off_c, 2, 62, 64
1, 127910, Note_off_c, 2, 67, 64
1, 127918, Note_on_c, 9, 41, 110
1, 127918, Note_on_c, 9, 38, 100
1, 127921, Note_on_c, 9, 36, 100
1, 127923, Note_on_c, 9, 42, 100
1, 127932, Control_c, 10, 7, 58
1, 127933, Control_c, 3, 1, 22
1, 127946, Note_off_c, 2, 58, 64
1, 127947, Control_c, 11, 7, 63
1, 127978, Control_c, 3, 1, 32
1, 127984, Note_off_c, 9, 38, 64
1, 127985, Note_off_c, 9, 41, 64
1, 127989, Note_off_c, 9, 36, 64
1, 127990, Note_off_c, 9, 42, 64
1, 127998, Control_c, 12, 7, 66
1, 128011, Control_c, 3, 1, 39
1, 128036, Note_on_c, 9, 24, 40
1, 128045, Control_c, 3, 1, 44
1, 128084, Note_off_c, 9, 24, 64
1, 128084, Control_c, 11, 7, 65
1, 128088, Control_c, 7, 7, 70
1, 128100, Control_c, 12, 7, 67
1, 128112, Control_c, 3, 1, 54
1, 128145, Control_c, 3, 1, 61
1, 128156, Note_on_c, 9, 24, 55
1, 128157, Note_on_c, 9, 38, 105
1, 128157, Note_on_c, 9, 41, 115
1, 128157, Note_on_c, 9, 27, 95
1, 128160, Note_on_c, 9, 42, 100
1, 128178, Control_c, 3, 1, 66
1, 128184, Control_c, 10, 7, 59
1, 128202, Control_c, 12, 7, 68
1, 128206, Note_off_c, 9, 27, 64
1, 128207, Note_off_c, 9, 41, 64
1, 128216, Note_off_c, 9, 38, 64
1, 128219, Note_off_c, 9, 24, 64
1, 128221, Control_c, 11, 7, 67
1, 128222, Control_c, 3, 1, 76
1, 128223, Note_off_c, 9, 42, 64
1, 128277, Note_on_c, 9, 43, 92
1, 128295, Note_off_c, 3, 69, 64
1, 128301, Control_c, 3, 1, 0
1, 128304, Control_c, 12, 7, 70
1, 128332, Note_off_c, 9, 43, 64
1, 128357, Control_c, 7, 7, 70
1, 128358, Control_c, 11, 7, 69
1, 128395, Note_on_c, 9, 24, 51
1, 128395, Note_on_c, 9, 41, 115
1, 128396, Note_on_c, 9, 38, 105
1, 128398, Note_on_c, 9, 42, 96
1, 128403, Note_on_c, 2, 69, 92
1, 128406, Control_c, 12, 7, 71
1, 128436, Control_c, 10, 7, 59
1, 128439, Note_off_c, 9, 41, 64
1, 128443, Note_off_c, 9, 38, 64
1, 128446, Note_off_c, 9, 24, 64
1, 128459, Note_off_c, 2, 69, 64
1, 128461, Note_off_c, 9, 42, 64
1, 128486, Note_off_c, 2, 55, 64
1, 128490, Note_off_c, 2, 43, 64
1, 128495, Control_c, 11, 7, 71
1, 128508, Control_c, 12, 7, 72
1, 128517, Note_on_c, 9, 24, 44
1, 128518, Note_on_c, 9, 42, 80
1, 128521, Note_on_c, 9, 36, 73
1, 128525, Note_on_c, 9, 27, 85
1, 128546, Note_off_c, 9, 27, 64
1, 128563, Note_off_c, 9, 36, 64
1, 128565, Note_off_c, 9, 42, 64
1, 128576, Note_off_c, 9, 24, 64
1, 128610, Note_off_c, 11, 74, 64
1, 128610, Control_c, 12, 7, 73
1, 128614, Note_off_c, 1, 31, 64
1, 128614, Note_off_c, 7, 58, 64
1, 128616, Note_off_c, 11, 70, 64
1, 128618, Note_off_c, 7, 62, 64
1, 128621, Note_off_c, 11, 79, 64
1, 128623, Note_off_c, 11, 77, 64
1, 128624, Note_off_c, 7, 67, 64
1, 128627, Note_off_c, 10, 69, 64
1, 128628, Note_off_c, 10, 81, 64
1, 128632, Control_c, 11, 7, 73
1, 128633, Note_on_c, 7, 65, 92
1, 128633, Note_on_c, 11, 77, 83
1, 128634, Note_on_c, 7, 69, 92
1, 128634, Note_on_c, 7, 62, 86
1, 128634, Note_on_c, 11, 81, 92
1, 128634, Note_on_c, 11, 69, 75
1, 128635, Note_off_c, 7, 43, 64
1, 128635, Note_off_c, 11, 67, 64
1, 128635, Note_on_c, 11, 62, 83
1, 128635, Note_on_c, 12, 38, 115
1, 128635, Note_on_c, 13, 57, 105
1, 128636, Control_c, 2, 64, 0
1, 128636, Note_on_c, 7, 57, 77
1, 128636, Note_on_c, 9, 35, 122
1, 128636, Note_on_c, 11, 86, 92
1, 128636, Note_on_c, 13, 50, 105
1, 128637, Note_on_c, 7, 50, 77
1, 128637, Note_on_c, 10, 86, 96
1, 128638, Note_on_c, 10, 74, 80
1, 128639, Control_c, 7, 7, 71
1, 128639, Control_c, 10, 7, 60
1, 128639, Control_c, 11, 7, 74
1, 128639, Control_c, 12, 7, 74
1, 128640, Control_c, 7, 7, 72
1, 128640, Note_on_c, 9, 49, 115
1, 128640, Control_c, 10, 7, 60
1, 128640, Control_c, 11, 7, 75
1, 128640, Control_c, 12, 7, 76
1, 128640, Control_c, 13, 7, 65
1, 128641, Note_off_c, 12, 43, 64
1, 128642, Note_on_c, 1, 26, 110
1, 128645, Note_on_c, 2, 81, 100
1, 128645, Note_on_c, 2, 50, 89
1, 128646, Note_on_c, 2, 69, 100
1, 128646, Note_on_c, 2, 77, 110
1, 128647, Note_on_c, 2, 38, 83
1, 128648, Note_on_c, 2, 74, 105
1, 128696, Note_off_c, 9, 35, 64
1, 128698, Note_off_c, 9, 49, 64
1, 128794, Note_off_c, 14, 60, 64
1, 128835, Note_off_c, 1, 26, 64
1, 128849, Control_c, 2, 64, 127
1, 128875, Note_off_c, 13, 50, 64
1, 128876, Note_on_c, 9, 35, 122
1, 128876, Note_off_c, 13, 57, 64
1, 128878, Note_on_c, 9, 51, 100
1, 128878, Note_on_c, 13, 50, 100
1, 128878, Note_on_c, 13, 57, 96
1, 128881, Note_on_c, 1, 26, 110
1, 128927, Note_off_c, 9, 51, 64
1, 128934, Note_off_c, 9, 35, 64
1, 129070, Note_off_c, 1, 26, 64
1, 129113, Note_off_c, 13, 57, 64
1, 129114, Note_off_c, 13, 50, 64
1, 129116, Note_on_c, 9, 51, 115
1, 129118, Note_on_c, 13, 50, 96
1, 129119, Note_on_c, 13, 57, 96
1, 129120, Note_on_c, 3, 62, 105
1, 129120, Note_on_c, 9, 38, 122
1, 129120, Lyric_t, "And "
1, 129121, Note_on_c, 1, 26, 110
1, 129162, Note_off_c, 9, 51, 64
1, 129174, Note_off_c, 9, 38, 64
1, 129260, Note_off_c, 2, 69, 64
1, 129314, Note_off_c, 1, 26, 64
1, 129321, Pitch_bend_c, 3, 7433
1, 129329, Note_off_c, 3, 62, 64
1, 129333, Pitch_bend_c, 3, 5006
1, 129344, Pitch_bend_c, 3, 3261
1, 129354, Note_on_c, 3, 69, 115
1, 129354, Lyric_t, "I "
1, 129355, Pitch_bend_c, 3, 2882
1, 129356, Note_on_c, 9, 51, 100
1, 129356, Note_off_c, 13, 57, 64
1, 129356, Note_off_c, 13, 50, 64
1, 129359, Note_on_c, 13, 50, 92
1, 129360, Note_on_c, 2, 69, 105
1, 129360, Note_on_c, 13, 57, 96
1, 129361, Note_on_c, 1, 26, 105
1, 129364, Note_on_c, 4, 65, 110
1, 129377, Pitch_bend_c, 3, 3413
1, 129388, Pitch_bend_c, 3, 4399
1, 129399, Pitch_bend_c, 3, 6144
1, 129411, Pitch_bend_c, 3, 8192
1, 129415, Note_off_c, 9, 51, 64
1, 129481, Note_on_c, 9, 35, 127
1, 129546, Note_off_c, 9, 35, 64
1, 129548, Note_off_c, 1, 26, 64
1, 129589, Note_off_c, 13, 57, 64
1, 129590, Note_off_c, 13, 50, 64
1, 129597, Note_on_c, 13, 50, 96
1, 129597, Note_on_c, 13, 57, 96
1, 129599, Note_on_c, 1, 26, 105
1, 129599, Note_on_c, 9, 51, 110
1, 129649, Note_off_c, 9, 51, 64
1, 129706, Note_off_c, 2, 81, 64
1, 129797, Note_off_c, 1, 26, 64
1, 129837, Note_off_c, 13, 57, 64
1, 129838, Note_off_c, 13, 50, 64
1, 129839, Note_on_c, 13, 50, 100
1, 129840, Note_on_c, 9, 51, 92
1, 129840, Note_on_c, 9, 35, 122
1, 129840, Note_on_c, 13, 57, 96
1, 129844, Note_on_c, 1, 26, 105
1, 129857, Control_c, 3, 1, 1
1, 129890, Control_c, 3, 1, 7
1, 129896, Note_off_c, 9, 51, 64
1, 129904, Note_off_c, 9, 35, 64
1, 129924, Control_c, 3, 1, 12
1, 129979, Control_c, 3, 1, 17
1, 130023, Control_c, 3, 1, 22
1, 130042, Note_off_c, 1, 26, 64
1, 130057, Control_c, 3, 1, 27
1, 130075, Note_off_c, 13, 57, 64
1, 130076, Note_off_c, 13, 50, 64
1, 130077, Note_on_c, 2, 81, 105
1, 130078, Note_on_c, 9, 38, 122
1, 130080, Note_on_c, 9, 51, 110
1, 130080, Note_on_c, 13, 50, 100
1, 130080, Note_on_c, 13, 57, 100
1, 130087, Note_on_c, 1, 26, 105
1, 130090, Control_c, 3, 1, 32
1, 130124, Control_c, 3, 1, 37
1, 130133, Note_off_c, 9, 38, 64
1, 130136, Note_off_c, 9, 51, 64
1, 130190, Control_c, 3, 1, 42
1, 130208, Note_off_c, 2, 69, 64
1, 130241, Note_off_c, 2, 50, 64
1, 130249, Note_off_c, 2, 38, 64
1, 130257, Control_c, 3, 1, 48
1, 130263, Note_off_c, 1, 26, 64
1, 130281, Note_off_c, 2, 74, 64
1, 130285, Note_off_c, 2, 81, 64
1, 130298, Note_off_c, 2, 77, 64
1, 130315, Note_on_c, 2, 69, 92
1, 130318, Note_off_c, 13, 57, 64
1, 130319, Note_on_c, 1, 26, 105
1, 130319, Note_off_c, 13, 50, 64
1, 130320, Note_on_c, 9, 51, 92
1, 130321, Note_on_c, 13, 50, 92
1, 130322, Note_on_c, 13, 57, 96
1, 130324, Control_c, 3, 1, 53
1, 130369, Note_off_c, 9, 51, 64
1, 130410, Note_off_c, 2, 69, 64
1, 130413, Control_c, 3, 1, 58
1, 130442, Note_on_c, 9, 36, 110
1, 130508, Note_off_c, 11, 86, 64
1, 130511, Note_off_c, 1, 26, 64
1, 130511, Note_off_c, 9, 36, 64
1, 130521, Note_off_c, 7, 69, 64
1, 130521, Note_off_c, 7, 62, 64
1, 130526, Note_off_c, 11, 77, 64
1, 130535, Control_c, 3, 1, 63
1, 130544, Note_off_c, 7, 50, 64
1, 130546, Note_off_c, 13, 57, 64
1, 130546, Note_off_c, 13, 50, 64
1, 130548, Control_c, 2, 64, 0
1, 130548, Note_on_c, 2, 72, 96
1, 130549, Note_on_c, 2, 76, 110
1, 130550, Note_on_c, 2, 79, 110
1, 130550, Note_on_c, 2, 36, 83
1, 130551, Note_on_c, 1, 36, 110
1, 130551, Note_on_c, 2, 48, 92
1, 130551, Note_on_c, 7, 67, 89
1, 130552, Note_on_c, 7, 64, 86
1, 130552, Note_on_c, 7, 48, 92
1, 130552, Note_off_c, 12, 38, 64
1, 130553, Note_on_c, 7, 60, 80
1, 130555, Note_on_c, 11, 60, 73
1, 130556, Note_on_c, 11, 84, 86
1, 130556, Note_on_c, 13, 55, 92
1, 130556, Note_on_c, 13, 48, 105
1, 130557, Note_on_c, 11, 79, 89
1, 130557, Note_on_c, 11, 76, 77
1, 130558, Note_on_c, 12, 48, 115
1, 130559, Note_on_c, 9, 35, 122
1, 130559, Note_on_c, 9, 51, 110
1, 130568, Note_off_c, 11, 62, 64
1, 130573, Note_off_c, 7, 65, 64
1, 130581, Note_off_c, 11, 81, 64
1, 130611, Note_off_c, 9, 51, 64
1, 130613, Control_c, 3, 1, 68
1, 130649, Note_off_c, 9, 35, 64
1, 130739, Note_off_c, 1, 36, 64
1, 130763, Control_c, 2, 64, 127
1, 130768, Control_c, 3, 1, 78
1, 130796, Note_on_c, 1, 36, 105
1, 130797, Note_on_c, 9, 51, 86
1, 130800, Note_on_c, 9, 35, 127
1, 130801, Note_on_c, 13, 55, 89
1, 130801, Note_off_c, 13, 48, 64
1, 130802, Control_c, 3, 1, 83
1, 130802, Note_on_c, 13, 48, 100
1, 130802, Note_off_c, 13, 55, 64
1, 130851, Note_off_c, 9, 51, 64
1, 130876, Note_off_c, 9, 35, 64
1, 130891, Control_c, 3, 1, 56
1, 130924, Control_c, 3, 1, 0
1, 130963, Note_off_c, 3, 69, 64
1, 130973, Note_off_c, 1, 36, 64
1, 131013, Note_off_c, 4, 65, 64
1, 131031, Note_on_c, 3, 67, 100
1, 131031, Lyric_t, "could "
1, 131036, Note_on_c, 1, 36, 105
1, 131036, Note_on_c, 4, 64, 105
1, 131036, Note_on_c, 9, 38, 122
1, 131037, Note_on_c, 9, 51, 110
1, 131039, Note_off_c, 13, 48, 64
1, 131039, Note_off_c, 13, 55, 64
1, 131042, Note_on_c, 13, 55, 92
1, 131043, Note_on_c, 13, 48, 105
1, 131091, Note_off_c, 9, 51, 64
1, 131095, Note_off_c, 9, 38, 64
1, 131219, Note_off_c, 1, 36, 64
1, 131259, Note_off_c, 3, 67, 64
1, 131272, Note_off_c, 13, 48, 64
1, 131273, Note_off_c, 13, 55, 64
1, 131274, Note_on_c, 3, 65, 110
1, 131274, Lyric_t, "see "
1, 131275, Note_on_c, 1, 36, 100
1, 131275, Note_on_c, 2, 69, 105
1, 131276, Note_on_c, 4, 62, 100
1, 131278, Note_off_c, 4, 64, 64
1, 131278, Note_on_c, 9, 51, 89
1, 131280, Note_on_c, 13, 55, 89
1, 131280, Note_on_c, 13, 48, 96
1, 131332, Note_off_c, 9, 51, 64
1, 131397, Note_on_c, 9, 35, 122
1, 131460, Note_off_c, 1, 36, 64
1, 131461, Note_off_c, 9, 35, 64
1, 131502, Control_c, 3, 1, 7
1, 131515, Note_on_c, 1, 36, 100
1, 131517, Note_off_c, 13, 48, 64
1, 131518, Note_on_c, 9, 51, 110
1, 131518, Note_off_c, 13, 55, 64
1, 131521, Note_on_c, 13, 48, 105
1, 131521, Note_on_c, 13, 55, 96
1, 131547, Control_c, 3, 1, 22
1, 131566, Note_off_c, 9, 51, 64
1, 131580, Control_c, 3, 1, 42
1, 131613, Control_c, 3, 1, 58
1, 131680, Control_c, 3, 1, 51
1, 131689, Note_off_c, 1, 36, 64
1, 131713, Control_c, 3, 1, 0
1, 131753, Note_on_c, 1, 36, 105
1, 131755, Note_off_c, 3, 65, 64
1, 131755, Note_off_c, 4, 62, 64
1, 131755, Note_off_c, 13, 55, 64
1, 131756, Note_off_c, 13, 48, 64
1, 131757, Note_on_c, 9, 51, 89
1, 131759, Note_on_c, 9, 35, 122
1, 131760, Note_on_c, 13, 55, 96
1, 131761, Note_on_c, 13, 48, 105
1, 131762, Note_on_c, 4, 60, 96
1, 131763, Note_on_c, 3, 64, 115
1, 131763, Lyric_t, "it "
1, 131808, Note_off_c, 9, 51, 64
1, 131819, Note_off_c, 9, 35, 64
1, 131881, Note_off_c, 2, 79, 64
1, 131938, Note_off_c, 1, 36, 64
1, 131993, Note_on_c, 1, 36, 96
1, 131996, Note_on_c, 9, 38, 122
1, 131998, Note_on_c, 9, 51, 105
1, 132000, Note_off_c, 13, 48, 64
1, 132000, Note_off_c, 13, 55, 64
1, 132002, Note_on_c, 13, 55, 96
1, 132003, Note_on_c, 2, 79, 110
1, 132003, Note_on_c, 13, 48, 105
1, 132050, Note_off_c, 9, 38, 64
1, 132056, Note_off_c, 9, 51, 64
1, 132152, Note_off_c, 2, 69, 64
1, 132174, Note_off_c, 1, 36, 64
1, 132190, Pitch_bend_c, 3, 7661
1, 132195, Note_off_c, 3, 64, 64
1, 132201, Pitch_bend_c, 3, 5764
1, 132212, Pitch_bend_c, 3, 4171
1, 132224, Pitch_bend_c, 3, 3413
1, 132232, Note_on_c, 1, 36, 100
1, 132235, Pitch_bend_c, 3, 3185
1, 132235, Note_on_c, 3, 67, 115
1, 132235, Lyric_t, "clear"
1, 132237, Note_on_c, 9, 51, 96
1, 132238, Note_on_c, 2, 69, 89
1, 132241, Note_off_c, 13, 48, 64
1, 132241, Note_off_c, 13, 55, 64
1, 132244, Note_on_c, 13, 48, 105
1, 132245, Note_on_c, 13, 55, 100
1, 132249, Note_on_c, 4, 64, 89
1, 132257, Pitch_bend_c, 3, 3868
1, 132263, Note_off_c, 4, 60, 64
1, 132268, Pitch_bend_c, 3, 5157
1, 132279, Pitch_bend_c, 3, 7661
1, 132290, Pitch_bend_c, 3, 8192
1, 132296, Note_off_c, 9, 51, 64
1, 132313, Note_off_c, 2, 48, 64
1, 132313, Note_off_c, 2, 36, 64
1, 132360, Note_on_c, 9, 36, 105
1, 132366, Note_off_c, 2, 69, 64
1, 132371, Note_off_c, 2, 72, 64
1, 132371, Note_off_c, 2, 76, 64
1, 132372, Note_off_c, 2, 79, 64
1, 132409, Note_off_c, 9, 36, 64
1, 132412, Note_off_c, 1, 36, 64
1, 132445, Control_c, 2, 64, 0
1, 132445, Note_off_c, 11, 76, 64
1, 132450, Note_off_c, 7, 64, 64
1, 132452, Note_off_c, 7, 60, 64
1, 132458, Note_off_c, 7, 57, 64
1, 132461, Note_off_c, 7, 48, 64
1, 132461, Note_off_c, 7, 67, 64
1, 132468, Note_on_c, 1, 34, 110
1, 132469, Note_on_c, 7, 65, 86
1, 132470, Note_on_c, 7, 46, 77
1, 132471, Note_on_c, 7, 53, 77
1, 132472, Note_on_c, 7, 58, 77
1, 132472, Note_on_c, 12, 46, 115
1, 132473, Note_on_c, 2, 46, 89
1, 132473, Note_on_c, 7, 60, 89
1, 132473, Note_on_c, 11, 58, 73
1, 132474, Note_on_c, 7, 62, 83
1, 132474, Note_on_c, 11, 82, 69
1, 132474, Note_on_c, 11, 65, 73
1, 132475, Note_on_c, 2, 34, 86
1, 132475, Note_on_c, 11, 77, 92
1, 132476, Note_on_c, 2, 65, 89
1, 132476, Note_off_c, 13, 55, 64
1, 132477, Note_on_c, 2, 74, 100
1, 132477, Note_on_c, 2, 77, 100
1, 132477, Note_on_c, 9, 51, 105
1, 132477, Note_off_c, 11, 69, 64
1, 132477, Note_on_c, 11, 74, 73
1, 132477, Note_off_c, 13, 48, 64
1, 132478, Note_on_c, 2, 70, 100
1, 132478, Note_on_c, 9, 35, 115
1, 132482, Note_off_c, 11, 84, 64
1, 132482, Note_off_c, 12, 48, 64
1, 132482, Note_on_c, 13, 53, 96
1, 132483, Note_on_c, 13, 46, 105
1, 132494, Note_off_c, 11, 60, 64
1, 132503, Note_off_c, 11, 79, 64
1, 132536, Note_off_c, 9, 51, 64
1, 132550, Note_off_c, 9, 35, 64
1, 132603, Control_c, 3, 1, 34
1, 132636, Control_c, 3, 1, 54
1, 132671, Note_off_c, 1, 34, 64
1, 132681, Control_c, 3, 1, 48
1, 132688, Note_off_c, 4, 64, 64
1, 132690, Control_c, 2, 64, 127
1, 132714, Control_c, 3, 1, 0
1, 132716, Note_on_c, 4, 62, 89
1, 132717, Note_on_c, 1, 34, 105
1, 132717, Note_on_c, 9, 51, 86
1, 132719, Note_on_c, 9, 35, 122
1, 132720, Note_off_c, 3, 67, 64
1, 132724, Note_off_c, 13, 46, 64
1, 132725, Note_off_c, 13, 53, 64
1, 132726, Note_on_c, 13, 53, 100
1, 132726, Note_on_c, 13, 46, 100
1, 132729, Note_on_c, 3, 65, 105
1, 132729, Lyric_t, "ly\015"
1, 132777, Note_off_c, 9, 51, 64
1, 132785, Note_off_c, 9, 35, 64
1, 132912, Note_off_c, 1, 34, 64
1, 132956, Note_on_c, 9, 38, 122
1, 132958, Note_on_c, 9, 51, 105
1, 132962, Note_on_c, 1, 34, 110
1, 132965, Note_off_c, 13, 46, 64
1, 132965, Note_off_c, 13, 53, 64
1, 132968, Note_on_c, 13, 46, 100
1, 132968, Note_on_c, 13, 53, 96
1, 133011, Note_off_c, 9, 38, 64
1, 133019, Note_off_c, 9, 51, 64
1, 133025, Control_c, 3, 1, 34
1, 133059, Control_c, 3, 1, 49
1, 133103, Control_c, 3, 1, 42
1, 133112, Note_off_c, 2, 65, 64
1, 133136, Control_c, 3, 1, 0
1, 133151, Note_off_c, 1, 34, 64
1, 133178, Note_off_c, 3, 65, 64
1, 133188, Note_on_c, 2, 65, 96
1, 133199, Note_on_c, 4, 60, 96
1, 133199, Note_on_c, 9, 51, 92
1, 133201, Note_off_c, 13, 53, 64
1, 133201, Note_off_c, 13, 46, 64
1, 133202, Note_on_c, 3, 64, 110
1, 133202, Lyric_t, "once "
1, 133204, Note_on_c, 1, 34, 110
1, 133206, Note_on_c, 13, 46, 96
1, 133207, Note_on_c, 13, 53, 96
1, 133226, Note_off_c, 4, 62, 64
1, 133256, Note_off_c, 9, 51, 64
1, 133317, Note_on_c, 9, 35, 122
1, 133380, Note_off_c, 9, 35, 64
1, 133385, Note_off_c, 1, 34, 64
1, 133439, Note_on_c, 9, 51, 105
1, 133440, Note_off_c, 13, 53, 64
1, 133441, Note_off_c, 13, 46, 64
1, 133442, Note_on_c, 1, 34, 105
1, 133446, Note_on_c, 13, 53, 96
1, 133446, Note_on_c, 13, 46, 100
1, 133448, Control_c, 3, 1, 12
1, 133481, Control_c, 3, 1, 42
1, 133497, Note_off_c, 9, 51, 64
1, 133515, Control_c, 3, 1, 54
1, 133559, Control_c, 3, 1, 34
1, 133593, Control_c, 3, 1, 0
1, 133600, Note_off_c, 2, 70, 64
1, 133622, Note_off_c, 2, 77, 64
1, 133623, Note_off_c, 1, 34, 64
1, 133631, Note_off_c, 2, 74, 64
1, 133651, Note_off_c, 3, 64, 64
1, 133665, Note_off_c, 4, 60, 64
1, 133669, Note_on_c, 4, 58, 100
1, 133676, Note_on_c, 3, 62, 100
1, 133676, Lyric_t, "when "
1, 133679, Note_off_c, 13, 46, 64
1, 133680, Note_on_c, 1, 34, 110
1, 133680, Note_on_c, 9, 51, 89
1, 133680, Note_off_c, 13, 53, 64
1, 133681, Note_on_c, 9, 35, 122
1, 133685, Note_on_c, 13, 46, 96
1, 133686, Note_on_c, 13, 53, 96
1, 133731, Note_off_c, 9, 51, 64
1, 133748, Note_off_c, 9, 35, 64
1, 133874, Note_off_c, 1, 34, 64
1, 133908, Note_on_c, 2, 77, 110
1, 133908, Note_on_c, 2, 74, 110
1, 133909, Note_on_c, 2, 70, 96
1, 133917, Note_on_c, 9, 38, 122
1, 133921, Note_on_c, 9, 51, 105
1, 133923, Note_off_c, 13, 53, 64
1, 133924, Note_off_c, 13, 46, 64
1, 133925, Note_on_c, 1, 34, 110
1, 133926, Note_on_c, 13, 53, 96
1, 133927, Note_on_c, 13, 46, 96
1, 133954, Note_off_c, 2, 34, 64
1, 133967, Note_off_c, 2, 46, 64
1, 133971, Note_off_c, 9, 38, 64
1, 133974, Note_off_c, 9, 51, 64
1, 134060, Note_off_c, 2, 74, 64
1, 134062, Note_off_c, 2, 77, 64
1, 134077, Note_off_c, 2, 70, 64
1, 134090, Note_off_c, 4, 58, 64
1, 134103, Pitch_bend_c, 3, 7585
1, 134105, Note_off_c, 2, 65, 64
1, 134106, Note_off_c, 3, 62, 64
1, 134112, Note_off_c, 1, 34, 64
1, 134113, Pitch_bend_c, 3, 5764
1, 134125, Pitch_bend_c, 3, 4551
1, 134136, Pitch_bend_c, 3, 4323
1, 134150, Note_on_c, 3, 65, 105
1, 134150, Lyric_t, "you "
1, 134158, Pitch_bend_c, 3, 4702
1, 134159, Note_off_c, 13, 46, 64
1, 134159, Note_off_c, 13, 53, 64
1, 134160, Note_on_c, 9, 51, 86
1, 134165, Note_on_c, 13, 53, 96
1, 134166, Note_on_c, 13, 46, 96
1, 134168, Note_on_c, 1, 34, 110
1, 134169, Pitch_bend_c, 3, 5688
1, 134180, Pitch_bend_c, 3, 8116
1, 134191, Pitch_bend_c, 3, 8192
1, 134221, Note_off_c, 9, 51, 64
1, 134278, Note_on_c, 9, 36, 110
1, 134327, Note_off_c, 9, 36, 64
1, 134344, Note_off_c, 1, 34, 64
1, 134362, Note_off_c, 11, 77, 64
1, 134363, Note_off_c, 7, 53, 64
1, 134369, Note_off_c, 11, 82, 64
1, 134377, Note_off_c, 7, 60, 64
1, 134381, Note_off_c, 7, 65, 64
1, 134382, Note_off_c, 7, 58, 64
1, 134388, Note_off_c, 12, 46, 64
1, 134393, Note_on_c, 7, 64, 86
1, 134394, Note_on_c, 7, 45, 83
1, 134394, Note_on_c, 7, 57, 83
1, 134395, Note_on_c, 9, 35, 115
1, 134395, Note_off_c, 13, 46, 64
1, 134396, Note_off_c, 7, 46, 64
1, 134396, Note_off_c, 13, 53, 64
1, 134397, Note_off_c, 11, 58, 64
1, 134397, Note_on_c, 12, 45, 122
1, 134400, Note_on_c, 1, 33, 115
1, 134400, Note_on_c, 7, 52, 89
1, 134400, Note_on_c, 9, 51, 105
1, 134401, Note_on_c, 2, 76, 100
1, 134401, Note_on_c, 2, 74, 105
1, 134401, Note_on_c, 11, 57, 73
1, 134402, Note_on_c, 13, 52, 100
1, 134403, Note_on_c, 2, 69, 100
1, 134403, Note_on_c, 2, 33, 80
1, 134403, Note_on_c, 11, 64, 71
1, 134403, Note_on_c, 11, 76, 83
1, 134403, Note_on_c, 13, 45, 100
1, 134404, Note_on_c, 2, 64, 105
1, 134404, Note_on_c, 11, 81, 100
1, 134405, Note_on_c, 2, 45, 83
1, 134411, Control_c, 2, 64, 0
1, 134415, Note_off_c, 11, 65, 64
1, 134452, Note_off_c, 9, 35, 64
1, 134455, Note_off_c, 9, 51, 64
1, 134459, Control_c, 3, 1, 12
1, 134493, Control_c, 3, 1, 34
1, 134537, Control_c, 3, 1, 26
1, 134571, Control_c, 3, 1, 0
1, 134585, Note_off_c, 1, 33, 64
1, 134598, Note_off_c, 3, 65, 64
1, 134612, Control_c, 2, 64, 127
1, 134633, Note_on_c, 9, 35, 122
1, 134636, Note_on_c, 3, 64, 115
1, 134636, Lyric_t, "were \015"
1, 134639, Note_on_c, 9, 51, 83
1, 134640, Note_on_c, 1, 33, 115
1, 134645, Note_off_c, 13, 45, 64
1, 134645, Note_off_c, 13, 52, 64
1, 134646, Note_on_c, 13, 45, 100
1, 134647, Note_on_c, 13, 52, 100
1, 134696, Note_off_c, 9, 35, 64
1, 134699, Note_off_c, 9, 51, 64
1, 134825, Note_off_c, 1, 33, 64
1, 134876, Note_on_c, 9, 38, 122
1, 134878, Note_on_c, 1, 33, 115
1, 134879, Note_on_c, 9, 51, 110
1, 134879, Note_off_c, 13, 52, 64
1, 134879, Note_off_c, 13, 45, 64
1, 134885, Note_on_c, 13, 52, 96
1, 134885, Note_on_c, 13, 45, 100
1, 134927, Control_c, 3, 1, 26
1, 134931, Note_off_c, 9, 38, 64
1, 134940, Note_off_c, 9, 51, 64
1, 134960, Control_c, 3, 1, 41
1, 135006, Note_off_c, 2, 76, 64
1, 135016, Control_c, 3, 1, 29
1, 135019, Note_off_c, 2, 74, 64
1, 135022, Note_off_c, 2, 64, 64
1, 135024, Note_off_c, 2, 69, 64
1, 135049, Control_c, 3, 1, 0
1, 135053, Note_off_c, 11, 74, 64
1, 135062, Note_off_c, 1, 33, 64
1, 135108, Note_on_c, 2, 76, 100
1, 135109, Note_off_c, 3, 64, 64
1, 135111, Note_on_c, 2, 69, 96
1, 135111, Note_on_c, 2, 73, 105
1, 135112, Note_on_c, 2, 64, 96
1, 135112, Note_on_c, 7, 61, 83
1, 135112, Note_on_c, 10, 85, 83
1, 135113, Note_on_c, 10, 73, 77
1, 135115, Note_on_c, 1, 33, 115
1, 135116, Note_on_c, 11, 73, 80
1, 135118, Note_off_c, 13, 45, 64
1, 135119, Note_on_c, 9, 51, 80
1, 135119, Note_off_c, 13, 52, 64
1, 135122, Note_on_c, 3, 62, 105
1, 135122, Lyric_t, "here "
1, 135124, Note_on_c, 13, 52, 96
1, 135124, Note_on_c, 13, 45, 105
1, 135131, Note_off_c, 10, 74, 64
1, 135141, Note_off_c, 10, 86, 64
1, 135145, Note_off_c, 7, 62, 64
1, 135157, Control_c, 2, 64, 0
1, 135177, Note_off_c, 9, 51, 64
1, 135237, Note_on_c, 9, 35, 122
1, 135292, Note_off_c, 1, 33, 64
1, 135303, Note_off_c, 9, 35, 64
1, 135338, Control_c, 2, 64, 127
1, 135349, Note_on_c, 1, 33, 110
1, 135353, Note_off_c, 13, 45, 64
1, 135353, Note_off_c, 13, 52, 64
1, 135357, Note_on_c, 9, 51, 105
1, 135360, Note_on_c, 13, 52, 100
1, 135361, Note_on_c, 13, 45, 105
1, 135383, Control_c, 3, 1, 14
1, 135416, Control_c, 3, 1, 39
1, 135419, Note_off_c, 9, 51, 64
1, 135472, Control_c, 3, 1, 32
1, 135505, Control_c, 3, 1, 0
1, 135543, Note_off_c, 1, 33, 64
1, 135584, Note_off_c, 3, 62, 64
1, 135592, Note_on_c, 1, 33, 110
1, 135596, Note_off_c, 13, 45, 64
1, 135597, Note_off_c, 13, 52, 64
1, 135599, Note_on_c, 9, 51, 83
1, 135601, Note_on_c, 3, 61, 110
1, 135601, Note_on_c, 9, 35, 122
1, 135601, Note_on_c, 13, 52, 100
1, 135601, Note_on_c, 13, 45, 110
1, 135601, Lyric_t, "with "
1, 135655, Note_off_c, 9, 51, 64
1, 135666, Note_off_c, 9, 35, 64
1, 135753, Note_off_c, 2, 64, 64
1, 135784, Note_off_c, 1, 33, 64
1, 135832, Note_on_c, 2, 64, 92
1, 135835, Note_on_c, 1, 33, 115
1, 135838, Control_c, 3, 1, 4
1, 135838, Note_on_c, 9, 38, 122
1, 135838, Note_off_c, 13, 45, 64
1, 135839, Note_on_c, 9, 51, 110
1, 135839, Note_off_c, 13, 52, 64
1, 135842, Note_on_c, 13, 52, 105
1, 135842, Note_on_c, 13, 45, 105
1, 135872, Control_c, 3, 1, 26
1, 135893, Note_off_c, 9, 38, 64
1, 135900, Note_off_c, 9, 51, 64
1, 135905, Control_c, 3, 1, 42
1, 135949, Control_c, 3, 1, 36
1, 135983, Control_c, 3, 1, 0
1, 135997, Note_off_c, 2, 45, 64
1, 136001, Note_off_c, 2, 33, 64
1, 136020, Note_off_c, 1, 33, 64
1, 136031, Note_off_c, 2, 69, 64
1, 136032, Note_off_c, 2, 73, 64
1, 136042, Note_off_c, 3, 61, 64
1, 136046, Note_off_c, 2, 64, 64
1, 136063, Note_off_c, 2, 76, 64
1, 136077, Note_on_c, 1, 33, 115
1, 136078, Note_on_c, 9, 51, 96
1, 136081, Note_on_c, 3, 57, 115
1, 136081, Lyric_t, "me.\012"
1, 136085, Note_off_c, 13, 45, 64
1, 136085, Note_off_c, 13, 52, 64
1, 136085, Note_on_c, 13, 45, 105
1, 136086, Note_on_c, 13, 52, 100
1, 136155, Note_off_c, 9, 51, 64
1, 136199, Note_on_c, 9, 36, 110
1, 136243, Note_off_c, 9, 36, 64
1, 136265, Note_off_c, 1, 33, 64
1, 136285, Note_off_c, 12, 45, 64
1, 136301, Control_c, 2, 64, 0
1, 136310, Note_on_c, 11, 77, 89
1, 136310, Note_on_c, 11, 81, 96
1, 136311, Note_off_c, 7, 61, 64
1, 136311, Note_off_c, 10, 73, 64
1, 136311, Note_on_c, 11, 69, 77
1, 136312, Note_off_c, 7, 57, 64
1, 136312, Note_on_c, 11, 86, 92
1, 136312, Note_off_c, 11, 76, 64
1, 136312, Note_on_c, 11, 62, 89
1, 136313, Note_on_c, 1, 26, 110
1, 136313, Note_on_c, 7, 65, 92
1, 136313, Note_on_c, 10, 86, 92
1, 136313, Note_on_c, 12, 38, 115
1, 136313, Note_off_c, 13, 52, 64
1, 136314, Note_on_c, 7, 69, 92
1, 136314, Note_on_c, 7, 62, 86
1, 136314, Note_off_c, 13, 45, 64
1, 136315, Note_on_c, 9, 57, 105
1, 136315, Note_on_c, 10, 74, 86
1, 136316, Note_on_c, 7, 57, 77
1, 136316, Note_on_c, 9, 35, 122
1, 136317, Note_on_c, 7, 50, 77
1, 136318, Note_off_c, 11, 64, 64
1, 136319, Note_off_c, 7, 52, 64
1, 136319, Note_off_c, 11, 81, 64
1, 136321, Note_off_c, 7, 64, 64
1, 136321, Note_off_c, 11, 73, 64
1, 136322, Note_on_c, 13, 50, 100
1, 136322, Note_on_c, 13, 57, 96
1, 136323, Note_off_c, 11, 57, 64
1, 136324, Note_off_c, 7, 45, 64
1, 136325, Note_on_c, 2, 81, 100
1, 136325, Note_on_c, 2, 50, 89
1, 136326, Note_on_c, 2, 69, 100
1, 136326, Note_on_c, 2, 77, 110
1, 136326, Note_off_c, 10, 85, 64
1, 136327, Note_on_c, 2, 38, 83
1, 136328, Note_on_c, 2, 74, 105
1, 136372, Control_c, 3, 1, 4
1, 136380, Note_off_c, 9, 35, 64
1, 136390, Note_off_c, 9, 57, 64
1, 136416, Control_c, 3, 1, 19
1, 136461, Control_c, 3, 1, 32
1, 136494, Control_c, 3, 1, 39
1, 136518, Note_off_c, 1, 26, 64
1, 136527, Control_c, 3, 1, 44
1, 136529, Control_c, 2, 64, 127
1, 136557, Note_on_c, 9, 35, 127
1, 136557, Note_off_c, 13, 57, 64
1, 136558, Note_off_c, 13, 50, 64
1, 136559, Note_on_c, 1, 26, 110
1, 136559, Note_on_c, 9, 51, 89
1, 136561, Control_c, 3, 1, 51
1, 136562, Note_on_c, 13, 57, 96
1, 136562, Note_on_c, 13, 50, 96
1, 136594, Control_c, 3, 1, 56
1, 136620, Note_off_c, 9, 35, 64
1, 136628, Note_off_c, 9, 51, 64
1, 136650, Control_c, 3, 1, 48
1, 136658, Note_off_c, 3, 57, 64
1, 136683, Control_c, 3, 1, 0
1, 136753, Note_off_c, 1, 26, 64
1, 136796, Note_on_c, 3, 62, 105
1, 136796, Lyric_t, "And "
1, 136798, Note_on_c, 9, 51, 105
1, 136798, Note_off_c, 13, 50, 64
1, 136798, Note_off_c, 13, 57, 64
1, 136799, Note_on_c, 1, 26, 110
1, 136799, Note_on_c, 9, 38, 122
1, 136802, Note_on_c, 13, 57, 100
1, 136803, Note_on_c, 13, 50, 100
1, 136853, Note_off_c, 9, 38, 64
1, 136854, Note_off_c, 9, 51, 64
1, 136940, Note_off_c, 2, 69, 64
1, 136987, Note_off_c, 1, 26, 64
1, 137022, Note_off_c, 3, 62, 64
1, 137035, Note_off_c, 13, 50, 64
1, 137036, Note_off_c, 13, 57, 64
1, 137037, Note_on_c, 4, 65, 110
1, 137038, Note_on_c, 1, 26, 105
1, 137040, Note_on_c, 2, 69, 105
1, 137040, Note_on_c, 3, 69, 122
1, 137040, Note_on_c, 9, 51, 69
1, 137040, Lyric_t, "now "
1, 137041, Note_on_c, 13, 57, 96
1, 137042, Note_on_c, 13, 50, 100
1, 137047, Pitch_bend_c, 3, 8116
1, 137058, Pitch_bend_c, 3, 7130
1, 137069, Pitch_bend_c, 3, 6674
1, 137080, Pitch_bend_c, 3, 6447
1, 137100, Note_off_c, 9, 51, 64
1, 137113, Pitch_bend_c, 3, 7281
1, 137125, Pitch_bend_c, 3, 8192
1, 137155, Note_on_c, 9, 35, 127
1, 137218, Note_off_c, 9, 35, 64
1, 137221, Note_off_c, 1, 26, 64
1, 137275, Note_on_c, 1, 26, 105
1, 137278, Note_off_c, 13, 50, 64
1, 137279, Note_on_c, 9, 51, 105
1, 137279, Note_off_c, 13, 57, 64
1, 137282, Note_on_c, 13, 50, 100
1, 137283, Note_on_c, 13, 57, 96
1, 137336, Note_off_c, 9, 51, 64
1, 137386, Note_off_c, 2, 81, 64
1, 137468, Note_off_c, 1, 26, 64
1, 137518, Note_on_c, 1, 26, 105
1, 137519, Note_on_c, 9, 51, 77
1, 137520, Note_on_c, 9, 35, 122
1, 137530, Note_on_c, 13, 57, 96
1, 137530, Note_on_c, 13, 50, 100
1, 137533, Note_off_c, 13, 57, 64
1, 137533, Note_off_c, 13, 50, 64
1, 137585, Note_off_c, 9, 35, 64
1, 137587, Note_off_c, 9, 51, 64
1, 137705, Note_off_c, 1, 26, 64
1, 137738, Control_c, 3, 1, 1
1, 137757, Note_on_c, 2, 81, 105
1, 137759, Note_on_c, 1, 26, 110
1, 137760, Note_on_c, 9, 38, 122
1, 137760, Note_on_c, 9, 51, 110
1, 137769, Note_off_c, 13, 50, 64
1, 137770, Note_off_c, 13, 57, 64
1, 137772, Note_on_c, 13, 57, 96
1, 137773, Note_on_c, 13, 50, 100
1, 137793, Control_c, 3, 1, 6
1, 137814, Note_off_c, 9, 38, 64
1, 137824, Note_off_c, 9, 51, 64
1, 137860, Control_c, 3, 1, 11
1, 137888, Note_off_c, 2, 69, 64
1, 137916, Control_c, 3, 1, 16
1, 137921, Note_off_c, 2, 50, 64
1, 137929, Note_off_c, 2, 38, 64
1, 137942, Note_off_c, 1, 26, 64
1, 137961, Note_off_c, 2, 74, 64
1, 137965, Note_off_c, 2, 81, 64
1, 137978, Note_off_c, 2, 77, 64
1, 137993, Control_c, 3, 1, 21
1, 137995, Note_on_c, 2, 69, 92
1, 137997, Note_on_c, 1, 26, 115
1, 138002, Note_on_c, 9, 51, 80
1, 138003, Note_off_c, 13, 50, 64
1, 138003, Note_off_c, 13, 57, 64
1, 138010, Note_on_c, 13, 50, 96
1, 138010, Note_on_c, 13, 57, 96
1, 138049, Control_c, 3, 1, 26
1, 138056, Note_off_c, 9, 51, 64
1, 138090, Note_off_c, 2, 69, 64
1, 138093, Control_c, 3, 1, 31
1, 138120, Note_on_c, 9, 36, 110
1, 138171, Control_c, 3, 1, 36
1, 138173, Note_off_c, 9, 36, 64
1, 138193, Note_off_c, 1, 26, 64
1, 138198, Note_off_c, 11, 86, 64
1, 138201, Note_off_c, 7, 69, 64
1, 138201, Note_off_c, 7, 62, 64
1, 138224, Note_off_c, 7, 50, 64
1, 138225, Note_off_c, 11, 77, 64
1, 138227, Note_off_c, 12, 38, 64
1, 138228, Control_c, 2, 64, 0
1, 138228, Note_on_c, 2, 72, 96
1, 138229, Note_on_c, 2, 76, 110
1, 138230, Note_on_c, 1, 36, 110
1, 138230, Note_on_c, 2, 79, 110
1, 138230, Note_on_c, 2, 36, 83
1, 138231, Note_on_c, 2, 48, 92
1, 138231, Note_on_c, 7, 67, 89
1, 138232, Note_on_c, 7, 64, 86
1, 138232, Note_on_c, 7, 48, 92
1, 138233, Note_on_c, 7, 60, 80
1, 138235, Note_on_c, 12, 48, 122
1, 138238, Note_on_c, 9, 35, 122
1, 138240, Note_on_c, 9, 51, 105
1, 138242, Note_off_c, 13, 57, 64
1, 138242, Note_off_c, 13, 50, 64
1, 138244, Note_on_c, 11, 84, 92
1, 138246, Note_on_c, 11, 60, 96
1, 138246, Note_on_c, 11, 79, 96
1, 138247, Note_on_c, 11, 76, 77
1, 138248, Note_on_c, 13, 55, 92
1, 138248, Note_on_c, 13, 48, 100
1, 138253, Note_off_c, 7, 65, 64
1, 138266, Note_off_c, 11, 62, 64
1, 138271, Control_c, 3, 1, 41
1, 138281, Note_off_c, 11, 81, 64
1, 138296, Note_off_c, 9, 35, 64
1, 138305, Note_off_c, 9, 51, 64
1, 138360, Control_c, 3, 1, 46
1, 138412, Note_off_c, 1, 36, 64
1, 138438, Control_c, 3, 1, 51
1, 138443, Control_c, 2, 64, 127
1, 138475, Note_on_c, 1, 36, 105
1, 138477, Note_on_c, 9, 35, 127
1, 138479, Note_on_c, 9, 51, 80
1, 138490, Note_off_c, 13, 48, 64
1, 138490, Note_off_c, 13, 55, 64
1, 138491, Note_on_c, 13, 55, 89
1, 138492, Note_on_c, 13, 48, 100
1, 138505, Control_c, 3, 1, 56
1, 138527, Note_off_c, 9, 51, 64
1, 138543, Note_off_c, 9, 35, 64
1, 138549, Control_c, 3, 1, 61
1, 138594, Control_c, 3, 1, 66
1, 138651, Note_off_c, 1, 36, 64
1, 138683, Control_c, 3, 1, 71
1, 138714, Note_on_c, 1, 36, 105
1, 138718, Note_on_c, 9, 38, 122
1, 138718, Note_on_c, 9, 51, 105
1, 138722, Note_off_c, 13, 48, 64
1, 138722, Note_off_c, 13, 55, 64
1, 138729, Note_on_c, 13, 55, 89
1, 138729, Note_on_c, 13, 48, 100
1, 138739, Control_c, 3, 1, 81
1, 138773, Note_off_c, 9, 38, 64
1, 138781, Note_off_c, 9, 51, 64
1, 138783, Control_c, 3, 1, 91
1, 138827, Control_c, 3, 1, 86
1, 138861, Control_c, 3, 1, 0
1, 138891, Note_off_c, 1, 36, 64
1, 138940, Note_off_c, 3, 69, 64
1, 138942, Note_off_c, 4, 65, 64
1, 138949, Pitch_bend_c, 3, 6750
1, 138955, Note_on_c, 1, 36, 100
1, 138955, Note_on_c, 2, 69, 105
1, 138959, Note_on_c, 4, 62, 100
1, 138959, Note_on_c, 9, 51, 75
1, 138960, Pitch_bend_c, 3, 5082
1, 138965, Note_off_c, 13, 48, 64
1, 138965, Note_off_c, 13, 55, 64
1, 138969, Note_on_c, 13, 55, 92
1, 138969, Note_on_c, 13, 48, 105
1, 138971, Pitch_bend_c, 3, 4171
1, 138972, Note_on_c, 3, 65, 115
1, 138972, Lyric_t, "some"
1, 138982, Pitch_bend_c, 3, 3944
1, 139004, Pitch_bend_c, 3, 4399
1, 139008, Note_off_c, 9, 51, 64
1, 139015, Pitch_bend_c, 3, 5309
1, 139026, Pitch_bend_c, 3, 7130
1, 139037, Pitch_bend_c, 3, 8192
1, 139073, Note_on_c, 9, 35, 122
1, 139128, Note_off_c, 1, 36, 64
1, 139140, Note_off_c, 9, 35, 64
1, 139191, Note_on_c, 1, 36, 100
1, 139197, Note_on_c, 9, 51, 105
1, 139199, Note_off_c, 13, 48, 64
1, 139200, Note_off_c, 13, 55, 64
1, 139206, Note_on_c, 13, 55, 96
1, 139207, Note_on_c, 13, 48, 105
1, 139256, Note_off_c, 9, 51, 64
1, 139273, Control_c, 3, 1, 11
1, 139305, Control_c, 3, 1, 36
1, 139361, Control_c, 3, 1, 0
1, 139387, Note_off_c, 1, 36, 64
1, 139406, Note_off_c, 3, 65, 64
1, 139437, Note_off_c, 4, 62, 64
1, 139438, Note_on_c, 1, 36, 100
1, 139438, Note_on_c, 9, 51, 77
1, 139438, Note_on_c, 9, 35, 122
1, 139443, Note_on_c, 3, 64, 115
1, 139443, Lyric_t, "how "
1, 139444, Note_off_c, 13, 48, 64
1, 139445, Note_off_c, 13, 55, 64
1, 139448, Note_on_c, 4, 60, 92
1, 139448, Note_on_c, 13, 48, 105
1, 139448, Note_on_c, 13, 55, 96
1, 139493, Note_off_c, 9, 51, 64
1, 139508, Note_off_c, 9, 35, 64
1, 139561, Note_off_c, 2, 79, 64
1, 139617, Note_off_c, 1, 36, 64
1, 139651, Control_c, 3, 1, 22
1, 139676, Note_on_c, 1, 36, 100
1, 139677, Note_on_c, 9, 38, 122
1, 139677, Note_on_c, 9, 51, 105
1, 139682, Note_off_c, 13, 55, 64
1, 139683, Note_on_c, 2, 79, 110
1, 139683, Note_off_c, 13, 48, 64
1, 139684, Control_c, 3, 1, 42
1, 139687, Note_on_c, 13, 48, 105
1, 139688, Note_on_c, 13, 55, 96
1, 139730, Note_off_c, 9, 38, 64
1, 139739, Control_c, 3, 1, 0
1, 139739, Note_off_c, 9, 51, 64
1, 139758, Note_off_c, 3, 64, 64
1, 139832, Note_off_c, 2, 69, 64
1, 139860, Note_off_c, 1, 36, 64
1, 139860, Note_off_c, 4, 60, 64
1, 139884, Pitch_bend_c, 3, 7812
1, 139895, Pitch_bend_c, 3, 5461
1, 139907, Pitch_bend_c, 3, 2503
1, 139916, Note_on_c, 1, 36, 100
1, 139916, Note_off_c, 13, 55, 64
1, 139916, Note_off_c, 13, 48, 64
1, 139918, Note_on_c, 2, 69, 89
1, 139918, Pitch_bend_c, 3, 1289
1, 139918, Note_on_c, 9, 51, 80
1, 139921, Note_on_c, 4, 64, 100
1, 139924, Note_on_c, 3, 67, 115
1, 139924, Note_on_c, 13, 55, 96
1, 139924, Lyric_t, "all "
1, 139925, Note_on_c, 13, 48, 100
1, 139940, Pitch_bend_c, 3, 1592
1, 139951, Pitch_bend_c, 3, 2427
1, 139962, Pitch_bend_c, 3, 3716
1, 139973, Pitch_bend_c, 3, 5613
1, 139976, Note_off_c, 9, 51, 64
1, 139984, Pitch_bend_c, 3, 8192
1, 139993, Note_off_c, 2, 48, 64
1, 139993, Note_off_c, 2, 36, 64
1, 140039, Note_on_c, 9, 36, 110
1, 140046, Note_off_c, 2, 69, 64
1, 140051, Note_off_c, 2, 72, 64
1, 140051, Note_off_c, 2, 76, 64
1, 140052, Note_off_c, 2, 79, 64
1, 140088, Note_off_c, 1, 36, 64
1, 140091, Note_off_c, 9, 36, 64
1, 140103, Note_off_c, 11, 76, 64
1, 140106, Note_off_c, 11, 79, 64
1, 140125, Control_c, 2, 64, 0
1, 140130, Note_off_c, 7, 64, 64
1, 140132, Note_off_c, 7, 60, 64
1, 140136, Note_off_c, 11, 69, 64
1, 140138, Note_off_c, 7, 57, 64
1, 140141, Note_off_c, 7, 48, 64
1, 140141, Note_off_c, 7, 67, 64
1, 140142, Note_off_c, 11, 60, 64
1, 140145, Note_on_c, 7, 46, 73
1, 140145, Note_on_c, 7, 53, 75
1, 140147, Note_on_c, 7, 65, 83
1, 140149, Note_on_c, 7, 58, 77
1, 140150, Note_on_c, 11, 58, 73
1, 140151, Note_on_c, 2, 46, 83
1, 140152, Note_on_c, 7, 60, 89
1, 140152, Note_on_c, 12, 46, 110
1, 140153, Note_on_c, 7, 62, 86
1, 140153, Note_on_c, 11, 65, 77
1, 140154, Note_on_c, 11, 82, 80
1, 140155, Note_on_c, 1, 34, 110
1, 140155, Note_on_c, 2, 34, 86
1, 140155, Note_on_c, 2, 65, 86
1, 140155, Note_on_c, 11, 74, 77
1, 140156, Note_on_c, 2, 74, 105
1, 140156, Note_on_c, 11, 77, 86
1, 140156, Note_off_c, 12, 48, 64
1, 140157, Note_on_c, 2, 70, 110
1, 140157, Note_on_c, 2, 77, 105
1, 140158, Note_off_c, 13, 48, 64
1, 140158, Note_off_c, 13, 55, 64
1, 140159, Note_on_c, 9, 51, 105
1, 140160, Note_on_c, 9, 35, 115
1, 140163, Note_on_c, 13, 53, 92
1, 140164, Note_on_c, 13, 46, 100
1, 140180, Note_off_c, 11, 84, 64
1, 140217, Note_off_c, 9, 35, 64
1, 140223, Note_off_c, 9, 51, 64
1, 140253, Control_c, 3, 1, 2
1, 140286, Control_c, 3, 1, 24
1, 140342, Control_c, 3, 1, 0
1, 140350, Note_off_c, 4, 64, 64
1, 140361, Note_off_c, 1, 34, 64
1, 140381, Note_off_c, 3, 67, 64
1, 140384, Control_c, 2, 64, 127
1, 140395, Note_off_c, 13, 46, 64
1, 140396, Note_off_c, 13, 53, 64
1, 140398, Note_on_c, 9, 51, 75
1, 140399, Note_on_c, 9, 35, 122
1, 140402, Note_on_c, 4, 62, 105
1, 140402, Note_on_c, 13, 53, 100
1, 140402, Note_on_c, 13, 46, 100
1, 140404, Note_on_c, 1, 34, 110
1, 140411, Note_on_c, 3, 65, 110
1, 140411, Lyric_t, "that's\015"
1, 140458, Note_off_c, 9, 51, 64
1, 140467, Note_off_c, 9, 35, 64
1, 140584, Note_off_c, 1, 34, 64
1, 140633, Note_off_c, 13, 46, 64
1, 140633, Note_off_c, 13, 53, 64
1, 140636, Note_on_c, 9, 38, 122
1, 140637, Note_on_c, 9, 51, 105
1, 140639, Note_on_c, 13, 46, 96
1, 140640, Note_on_c, 13, 53, 96
1, 140642, Note_on_c, 1, 34, 110
1, 140686, Control_c, 3, 1, 21
1, 140691, Note_off_c, 9, 38, 64
1, 140698, Note_off_c, 9, 51, 64
1, 140720, Control_c, 3, 1, 42
1, 140765, Control_c, 3, 1, 34
1, 140777, Note_off_c, 2, 65, 64
1, 140798, Control_c, 3, 1, 0
1, 140831, Note_off_c, 1, 34, 64
1, 140850, Note_off_c, 3, 65, 64
1, 140861, Note_off_c, 4, 62, 64
1, 140867, Note_on_c, 2, 65, 100
1, 140878, Note_on_c, 9, 51, 75
1, 140879, Note_on_c, 3, 64, 115
1, 140879, Lyric_t, "left "
1, 140881, Note_off_c, 13, 53, 64
1, 140881, Note_off_c, 13, 46, 64
1, 140882, Note_on_c, 13, 46, 100
1, 140883, Note_on_c, 13, 53, 100
1, 140884, Note_on_c, 1, 34, 110
1, 140885, Note_on_c, 4, 60, 100
1, 140935, Note_off_c, 9, 51, 64
1, 140997, Note_on_c, 9, 35, 127
1, 141061, Note_off_c, 1, 34, 64
1, 141063, Note_off_c, 9, 35, 64
1, 141116, Note_off_c, 13, 53, 64
1, 141116, Note_off_c, 13, 46, 64
1, 141117, Note_on_c, 9, 51, 105
1, 141121, Note_on_c, 1, 34, 110
1, 141121, Note_on_c, 13, 53, 96
1, 141123, Note_on_c, 13, 46, 100
1, 141131, Control_c, 3, 1, 16
1, 141165, Control_c, 3, 1, 39
1, 141180, Note_off_c, 9, 51, 64
1, 141209, Control_c, 3, 1, 39
1, 141242, Control_c, 3, 1, 0
1, 141305, Note_off_c, 1, 34, 64
1, 141313, Note_off_c, 2, 70, 64
1, 141314, Note_off_c, 3, 64, 64
1, 141325, Note_off_c, 2, 77, 64
1, 141345, Note_off_c, 2, 74, 64
1, 141351, Note_off_c, 4, 60, 64
1, 141352, Note_on_c, 3, 62, 105
1, 141352, Note_off_c, 13, 46, 64
1, 141352, Lyric_t, "are "
1, 141353, Note_off_c, 13, 53, 64
1, 141358, Note_on_c, 9, 35, 122
1, 141359, Note_on_c, 9, 51, 77
1, 141359, Note_on_c, 13, 53, 100
1, 141360, Note_on_c, 1, 34, 105
1, 141360, Note_on_c, 13, 46, 105
1, 141362, Note_on_c, 4, 58, 100
1, 141418, Note_off_c, 9, 51, 64
1, 141423, Note_off_c, 9, 35, 64
1, 141548, Note_off_c, 1, 34, 64
1, 141587, Control_c, 3, 1, 14
1, 141592, Note_on_c, 2, 74, 105
1, 141593, Note_on_c, 2, 77, 110
1, 141594, Note_on_c, 2, 70, 96
1, 141599, Note_on_c, 1, 34, 110
1, 141599, Note_on_c, 9, 38, 122
1, 141599, Note_off_c, 13, 46, 64
1, 141600, Note_on_c, 9, 51, 105
1, 141600, Note_off_c, 13, 53, 64
1, 141601, Note_on_c, 13, 46, 100
1, 141602, Note_on_c, 13, 53, 100
1, 141619, Note_off_c, 2, 34, 64
1, 141621, Control_c, 3, 1, 36
1, 141635, Note_off_c, 2, 46, 64
1, 141652, Note_off_c, 9, 38, 64
1, 141654, Control_c, 3, 1, 48
1, 141663, Note_off_c, 9, 51, 64
1, 141708, Note_off_c, 3, 62, 64
1, 141710, Control_c, 3, 1, 0
1, 141751, Note_off_c, 2, 65, 64
1, 141762, Note_off_c, 4, 58, 64
1, 141778, Note_off_c, 1, 34, 64
1, 141808, Note_off_c, 2, 77, 64
1, 141814, Note_off_c, 2, 70, 64
1, 141819, Note_off_c, 2, 74, 64
1, 141834, Note_off_c, 13, 53, 64
1, 141835, Note_on_c, 2, 65, 77
1, 141835, Note_off_c, 13, 46, 64
1, 141839, Note_on_c, 9, 51, 75
1, 141840, Note_on_c, 1, 34, 110
1, 141840, Note_on_c, 13, 53, 96
1, 141841, Note_on_c, 13, 46, 100
1, 141896, Note_off_c, 9, 51, 64
1, 141955, Note_off_c, 2, 65, 64
1, 141960, Note_on_c, 9, 36, 110
1, 142009, Note_off_c, 1, 34, 64
1, 142021, Note_off_c, 9, 36, 64
1, 142027, Note_off_c, 11, 77, 64
1, 142034, Note_off_c, 11, 82, 64
1, 142038, Note_off_c, 7, 53, 64
1, 142051, Note_off_c, 7, 60, 64
1, 142057, Note_off_c, 7, 58, 64
1, 142061, Note_off_c, 11, 58, 64
1, 142068, Note_on_c, 2, 74, 100
1, 142069, Note_on_c, 2, 76, 100
1, 142069, Note_on_c, 7, 45, 80
1, 142070, Note_on_c, 7, 64, 89
1, 142071, Note_on_c, 2, 64, 96
1, 142071, Note_on_c, 2, 69, 96
1, 142071, Note_off_c, 13, 46, 64
1, 142072, Note_on_c, 1, 33, 115
1, 142072, Note_on_c, 2, 45, 80
1, 142072, Note_on_c, 2, 33, 83
1, 142072, Note_off_c, 7, 46, 64
1, 142072, Note_on_c, 7, 57, 77
1, 142072, Note_off_c, 13, 53, 64
1, 142074, Note_on_c, 7, 52, 83
1, 142076, Note_on_c, 11, 57, 77
1, 142076, Note_on_c, 11, 76, 89
1, 142076, Note_off_c, 12, 46, 64
1, 142077, Note_on_c, 9, 51, 105
1, 142077, Note_on_c, 11, 64, 77
1, 142078, Note_on_c, 9, 35, 122
1, 142078, Note_on_c, 11, 81, 96
1, 142078, Note_on_c, 13, 52, 100
1, 142079, Note_on_c, 12, 45, 115
1, 142079, Note_on_c, 13, 45, 105
1, 142084, Control_c, 2, 64, 0
1, 142089, Note_off_c, 7, 65, 64
1, 142097, Note_off_c, 11, 65, 64
1, 142134, Note_off_c, 9, 51, 64
1, 142138, Note_off_c, 9, 35, 64
1, 142246, Pitch_bend_c, 3, 7281
1, 142257, Pitch_bend_c, 3, 4626
1, 142263, Note_off_c, 1, 33, 64
1, 142268, Pitch_bend_c, 3, 2730
1, 142279, Pitch_bend_c, 3, 2427
1, 142294, Control_c, 2, 64, 127
1, 142301, Pitch_bend_c, 3, 3792
1, 142305, Note_on_c, 3, 65, 110
1, 142305, Lyric_t, "pie"
1, 142312, Pitch_bend_c, 3, 5082
1, 142316, Note_on_c, 1, 33, 115
1, 142317, Note_on_c, 9, 51, 75
1, 142317, Note_on_c, 9, 35, 127
1, 142319, Note_off_c, 13, 45, 64
1, 142319, Note_off_c, 13, 52, 64
1, 142321, Note_on_c, 13, 52, 100
1, 142322, Note_on_c, 13, 45, 100
1, 142323, Pitch_bend_c, 3, 7054
1, 142335, Pitch_bend_c, 3, 8192
1, 142378, Note_off_c, 9, 51, 64
1, 142383, Note_off_c, 9, 35, 64
1, 142498, Note_off_c, 1, 33, 64
1, 142551, Note_on_c, 3, 64, 105
1, 142551, Lyric_t, "ces "
1, 142554, Note_on_c, 1, 33, 110
1, 142554, Note_off_c, 13, 45, 64
1, 142555, Note_off_c, 13, 52, 64
1, 142557, Note_on_c, 9, 51, 100
1, 142558, Note_on_c, 9, 38, 122
1, 142560, Note_on_c, 13, 52, 100
1, 142560, Note_on_c, 13, 45, 105
1, 142574, Note_off_c, 3, 65, 64
1, 142615, Note_off_c, 9, 38, 64
1, 142618, Note_off_c, 9, 51, 64
1, 142747, Note_off_c, 1, 33, 64
1, 142781, Control_c, 3, 1, 2
1, 142790, Note_on_c, 3, 62, 105
1, 142790, Lyric_t, "of "
1, 142795, Note_on_c, 1, 33, 110
1, 142796, Note_on_c, 9, 51, 75
1, 142798, Note_off_c, 3, 64, 64
1, 142798, Note_off_c, 13, 45, 64
1, 142799, Note_off_c, 13, 52, 64
1, 142801, Note_on_c, 13, 52, 100
1, 142802, Note_on_c, 13, 45, 105
1, 142825, Control_c, 3, 1, 0
1, 142863, Note_off_c, 9, 51, 64
1, 142918, Note_on_c, 9, 35, 122
1, 142978, Note_off_c, 1, 33, 64
1, 142984, Note_off_c, 2, 76, 64
1, 142984, Note_off_c, 11, 74, 64
1, 142985, Note_off_c, 9, 35, 64
1, 143004, Note_off_c, 2, 69, 64
1, 143004, Note_off_c, 2, 64, 64
1, 143005, Note_off_c, 2, 74, 64
1, 143030, Note_on_c, 7, 61, 92
1, 143032, Note_on_c, 1, 33, 110
1, 143034, Note_on_c, 10, 85, 80
1, 143034, Note_off_c, 13, 45, 64
1, 143035, Note_on_c, 9, 51, 100
1, 143035, Note_on_c, 10, 73, 71
1, 143035, Note_off_c, 13, 52, 64
1, 143037, Note_on_c, 11, 73, 77
1, 143039, Note_off_c, 10, 74, 64
1, 143040, Note_on_c, 13, 52, 96
1, 143041, Note_on_c, 13, 45, 100
1, 143042, Note_on_c, 2, 64, 80
1, 143042, Note_on_c, 2, 69, 100
1, 143043, Note_on_c, 2, 76, 96
1, 143044, Note_on_c, 2, 73, 100
1, 143055, Note_off_c, 7, 62, 64
1, 143073, Note_off_c, 10, 86, 64
1, 143080, Control_c, 2, 64, 0
1, 143095, Note_off_c, 9, 51, 64
1, 143125, Control_c, 3, 1, 9
1, 143159, Control_c, 3, 1, 22
1, 143214, Control_c, 3, 1, 0
1, 143230, Note_off_c, 1, 33, 64
1, 143273, Control_c, 2, 64, 127
1, 143273, Note_off_c, 3, 62, 64
1, 143274, Note_on_c, 9, 51, 80
1, 143276, Note_on_c, 3, 61, 105
1, 143276, Lyric_t, "a...\015"
1, 143278, Note_on_c, 1, 33, 115
1, 143278, Note_on_c, 9, 35, 122
1, 143280, Note_off_c, 13, 45, 64
1, 143281, Note_off_c, 13, 52, 64
1, 143282, Note_on_c, 13, 52, 96
1, 143283, Note_on_c, 13, 45, 105
1, 143342, Note_off_c, 9, 51, 64
1, 143351, Note_off_c, 9, 35, 64
1, 143497, Note_off_c, 1, 33, 64
1, 143514, Note_off_c, 13, 45, 64
1, 143515, Note_off_c, 13, 52, 64
1, 143517, Note_on_c, 9, 52, 105
1, 143518, Note_on_c, 9, 38, 122
1, 143520, Note_on_c, 1, 31, 105
1, 143521, Note_on_c, 13, 52, 96
1, 143522, Note_on_c, 13, 45, 105
1, 143577, Note_off_c, 9, 52, 64
1, 143592, Note_off_c, 9, 38, 64
1, 143604, Control_c, 3, 1, 9
1, 143620, Note_off_c, 2, 45, 64
1, 143624, Note_off_c, 2, 33, 64
1, 143637, Control_c, 3, 1, 16
1, 143639, Note_on_c, 1, 33, 96
1, 143645, Note_off_c, 2, 64, 64
1, 143646, Note_off_c, 2, 69, 64
1, 143647, Note_off_c, 1, 31, 64
1, 143647, Note_off_c, 2, 73, 64
1, 143654, Note_off_c, 2, 76, 64
1, 143671, Control_c, 3, 1, 22
1, 143715, Control_c, 3, 1, 32
1, 143725, Note_off_c, 1, 33, 64
1, 143748, Control_c, 3, 1, 37
1, 143752, Note_on_c, 1, 29, 110
1, 143756, Note_off_c, 13, 45, 64
1, 143757, Note_on_c, 9, 51, 77
1, 143758, Note_off_c, 13, 52, 64
1, 143759, Note_on_c, 9, 43, 110
1, 143761, Note_on_c, 13, 52, 100
1, 143762, Note_on_c, 13, 45, 105
1, 143793, Control_c, 3, 1, 49
1, 143811, Note_off_c, 9, 51, 64
1, 143826, Control_c, 3, 1, 61
1, 143831, Note_off_c, 9, 43, 64
1, 143876, Note_on_c, 9, 36, 110
1, 143879, Note_on_c, 9, 41, 110
1, 143890, Note_off_c, 3, 61, 64
1, 143893, Control_c, 3, 1, 0
1, 143902, Note_off_c, 9, 36, 64
1, 143917, Note_off_c, 9, 41, 64
1, 143980, Note_off_c, 10, 85, 64
1, 143983, Note_off_c, 10, 73, 64
1, 143993, Note_on_c, 7, 65, 92
1, 143993, Note_off_c, 7, 57, 64
1, 143993, Note_on_c, 11, 77, 83
1, 143994, Note_on_c, 7, 69, 92
1, 143994, Note_off_c, 7, 61, 64
1, 143994, Note_on_c, 7, 62, 86
1, 143994, Note_on_c, 11, 81, 92
1, 143994, Note_off_c, 11, 76, 64
1, 143994, Note_on_c, 11, 69, 75
1, 143994, Note_off_c, 13, 45, 64
1, 143995, Note_off_c, 11, 73, 64
1, 143995, Note_on_c, 11, 62, 83
1, 143995, Note_on_c, 12, 38, 115
1, 143995, Note_off_c, 13, 52, 64
1, 143995, Note_on_c, 13, 57, 105
1, 143996, Note_on_c, 7, 57, 77
1, 143996, Note_on_c, 9, 35, 122
1, 143996, Note_on_c, 11, 86, 92
1, 143996, Note_on_c, 13, 50, 105
1, 143997, Note_on_c, 7, 50, 77
1, 143997, Note_on_c, 10, 86, 96
1, 143997, Note_off_c, 11, 57, 64
1, 143997, Note_off_c, 12, 45, 64
1, 143998, Control_c, 2, 64, 0
1, 143998, Note_on_c, 10, 74, 80
1, 143998, Note_off_c, 11, 64, 64
1, 143999, Control_c, 7, 7, 72
1, 143999, Control_c, 10, 7, 60
1, 143999, Control_c, 11, 7, 75
1, 143999, Control_c, 12, 7, 76
1, 143999, Control_c, 13, 7, 65
1, 144000, Tempo, 619188
1, 144000, Control_c, 7, 7, 72
1, 144000, Note_on_c, 9, 49, 115
1, 144000, Control_c, 10, 7, 60
1, 144000, Note_off_c, 11, 81, 64
1, 144000, Control_c, 11, 7, 75
1, 144000, Control_c, 12, 7, 76
1, 144000, Control_c, 13, 7, 65
1, 144001, Note_off_c, 7, 64, 64
1, 144002, Note_on_c, 1, 26, 110
1, 144004, Note_off_c, 1, 29, 64
1, 144005, Note_on_c, 2, 81, 100
1, 144005, Note_on_c, 2, 50, 89
1, 144006, Note_on_c, 2, 69, 100
1, 144006, Note_on_c, 2, 77, 110
1, 144007, Note_on_c, 2, 38, 83
1, 144007, Note_off_c, 7, 52, 64
1, 144008, Note_on_c, 2, 74, 105
1, 144012, Note_off_c, 7, 45, 64
1, 144056, Note_off_c, 9, 35, 64
1, 144058, Note_off_c, 9, 49, 64
1, 144195, Note_off_c, 1, 26, 64
1, 144209, Control_c, 2, 64, 127
1, 144235, Note_off_c, 13, 50, 64
1, 144236, Note_on_c, 9, 35, 122
1, 144236, Note_off_c, 13, 57, 64
1, 144238, Note_on_c, 9, 51, 100
1, 144238, Note_on_c, 13, 50, 100
1, 144238, Note_on_c, 13, 57, 96
1, 144241, Note_on_c, 1, 26, 110
1, 144287, Note_off_c, 9, 51, 64
1, 144294, Note_off_c, 9, 35, 64
1, 144430, Note_off_c, 1, 26, 64
1, 144473, Note_off_c, 13, 57, 64
1, 144474, Note_off_c, 13, 50, 64
1, 144476, Note_on_c, 9, 51, 115
1, 144478, Note_on_c, 13, 50, 96
1, 144479, Note_on_c, 13, 57, 96
1, 144480, Note_on_c, 3, 62, 105
1, 144480, Note_on_c, 9, 38, 122
1, 144480, Lyric_t, "And "
1, 144481, Note_on_c, 1, 26, 110
1, 144522, Note_off_c, 9, 51, 64
1, 144534, Note_off_c, 9, 38, 64
1, 144620, Note_off_c, 2, 69, 64
1, 144674, Note_off_c, 1, 26, 64
1, 144681, Pitch_bend_c, 3, 7433
1, 144689, Note_off_c, 3, 62, 64
1, 144693, Pitch_bend_c, 3, 5006
1, 144704, Pitch_bend_c, 3, 3261
1, 144714, Note_on_c, 3, 69, 115
1, 144714, Lyric_t, "I "
1, 144715, Pitch_bend_c, 3, 2882
1, 144716, Note_on_c, 9, 51, 100
1, 144716, Note_off_c, 13, 57, 64
1, 144716, Note_off_c, 13, 50, 64
1, 144719, Note_on_c, 13, 50, 92
1, 144720, Note_on_c, 2, 69, 105
1, 144720, Note_on_c, 13, 57, 96
1, 144721, Note_on_c, 1, 26, 105
1, 144724, Note_on_c, 4, 65, 110
1, 144737, Pitch_bend_c, 3, 3413
1, 144748, Pitch_bend_c, 3, 4399
1, 144759, Pitch_bend_c, 3, 6144
1, 144771, Pitch_bend_c, 3, 8192
1, 144775, Note_off_c, 9, 51, 64
1, 144841, Note_on_c, 9, 35, 127
1, 144906, Note_off_c, 9, 35, 64
1, 144908, Note_off_c, 1, 26, 64
1, 144949, Note_off_c, 13, 57, 64
1, 144950, Note_off_c, 13, 50, 64
1, 144957, Note_on_c, 13, 50, 96
1, 144957, Note_on_c, 13, 57, 96
1, 144959, Note_on_c, 1, 26, 105
1, 144959, Note_on_c, 9, 51, 110
1, 145009, Note_off_c, 9, 51, 64
1, 145066, Note_off_c, 2, 81, 64
1, 145157, Note_off_c, 1, 26, 64
1, 145197, Note_off_c, 13, 57, 64
1, 145198, Note_off_c, 13, 50, 64
1, 145199, Note_on_c, 13, 50, 100
1, 145200, Note_on_c, 9, 51, 92
1, 145200, Note_on_c, 9, 35, 122
1, 145200, Note_on_c, 13, 57, 96
1, 145204, Note_on_c, 1, 26, 105
1, 145217, Control_c, 3, 1, 1
1, 145250, Control_c, 3, 1, 7
1, 145256, Note_off_c, 9, 51, 64
1, 145264, Note_off_c, 9, 35, 64
1, 145284, Control_c, 3, 1, 12
1, 145339, Control_c, 3, 1, 17
1, 145383, Control_c, 3, 1, 22
1, 145402, Note_off_c, 1, 26, 64
1, 145417, Control_c, 3, 1, 27
1, 145435, Note_off_c, 13, 57, 64
1, 145436, Note_off_c, 13, 50, 64
1, 145437, Note_on_c, 2, 81, 105
1, 145438, Note_on_c, 9, 38, 122
1, 145440, Note_on_c, 9, 51, 110
1, 145440, Note_on_c, 13, 50, 100
1, 145440, Note_on_c, 13, 57, 100
1, 145447, Note_on_c, 1, 26, 105
1, 145450, Control_c, 3, 1, 32
1, 145484, Control_c, 3, 1, 37
1, 145493, Note_off_c, 9, 38, 64
1, 145496, Note_off_c, 9, 51, 64
1, 145550, Control_c, 3, 1, 42
1, 145568, Note_off_c, 2, 69, 64
1, 145601, Note_off_c, 2, 50, 64
1, 145609, Note_off_c, 2, 38, 64
1, 145617, Control_c, 3, 1, 48
1, 145623, Note_off_c, 1, 26, 64
1, 145641, Note_off_c, 2, 74, 64
1, 145645, Note_off_c, 2, 81, 64
1, 145658, Note_off_c, 2, 77, 64
1, 145675, Note_on_c, 2, 69, 92
1, 145678, Note_off_c, 13, 57, 64
1, 145679, Note_on_c, 1, 26, 105
1, 145679, Note_off_c, 13, 50, 64
1, 145680, Note_on_c, 9, 51, 92
1, 145681, Note_on_c, 13, 50, 92
1, 145682, Note_on_c, 13, 57, 96
1, 145684, Control_c, 3, 1, 53
1, 145729, Note_off_c, 9, 51, 64
1, 145770, Note_off_c, 2, 69, 64
1, 145773, Control_c, 3, 1, 58
1, 145802, Note_on_c, 9, 36, 110
1, 145868, Note_off_c, 11, 86, 64
1, 145871, Note_off_c, 1, 26, 64
1, 145871, Note_off_c, 9, 36, 64
1, 145881, Note_off_c, 7, 69, 64
1, 145881, Note_off_c, 7, 62, 64
1, 145886, Note_off_c, 11, 77, 64
1, 145895, Control_c, 3, 1, 63
1, 145904, Note_off_c, 7, 50, 64
1, 145906, Note_off_c, 13, 57, 64
1, 145906, Note_off_c, 13, 50, 64
1, 145908, Control_c, 2, 64, 0
1, 145908, Note_on_c, 2, 72, 96
1, 145909, Note_on_c, 2, 76, 110
1, 145910, Note_on_c, 2, 79, 110
1, 145910, Note_on_c, 2, 36, 83
1, 145911, Note_on_c, 1, 36, 110
1, 145911, Note_on_c, 2, 48, 92
1, 145911, Note_on_c, 7, 67, 89
1, 145912, Note_on_c, 7, 64, 86
1, 145912, Note_on_c, 7, 48, 92
1, 145912, Note_off_c, 12, 38, 64
1, 145913, Note_on_c, 7, 60, 80
1, 145915, Note_on_c, 11, 60, 73
1, 145916, Note_on_c, 11, 84, 86
1, 145916, Note_on_c, 13, 55, 92
1, 145916, Note_on_c, 13, 48, 105
1, 145917, Note_on_c, 11, 79, 89
1, 145917, Note_on_c, 11, 76, 77
1, 145918, Note_on_c, 12, 48, 115
1, 145919, Note_on_c, 9, 35, 122
1, 145919, Note_on_c, 9, 51, 110
1, 145928, Note_off_c, 11, 62, 64
1, 145933, Note_off_c, 7, 65, 64
1, 145941, Note_off_c, 11, 81, 64
1, 145971, Note_off_c, 9, 51, 64
1, 145973, Control_c, 3, 1, 68
1, 146009, Note_off_c, 9, 35, 64
1, 146099, Note_off_c, 1, 36, 64
1, 146123, Control_c, 2, 64, 127
1, 146128, Control_c, 3, 1, 78
1, 146156, Note_on_c, 1, 36, 105
1, 146157, Note_on_c, 9, 51, 86
1, 146160, Note_on_c, 9, 35, 127
1, 146161, Note_on_c, 13, 55, 89
1, 146161, Note_off_c, 13, 48, 64
1, 146162, Control_c, 3, 1, 83
1, 146162, Note_on_c, 13, 48, 100
1, 146162, Note_off_c, 13, 55, 64
1, 146211, Note_off_c, 9, 51, 64
1, 146236, Note_off_c, 9, 35, 64
1, 146251, Control_c, 3, 1, 56
1, 146284, Control_c, 3, 1, 0
1, 146323, Note_off_c, 3, 69, 64
1, 146333, Note_off_c, 1, 36, 64
1, 146373, Note_off_c, 4, 65, 64
1, 146391, Note_on_c, 3, 67, 100
1, 146391, Lyric_t, "could "
1, 146396, Note_on_c, 1, 36, 105
1, 146396, Note_on_c, 4, 64, 105
1, 146396, Note_on_c, 9, 38, 122
1, 146397, Note_on_c, 9, 51, 110
1, 146399, Note_off_c, 13, 48, 64
1, 146399, Note_off_c, 13, 55, 64
1, 146402, Note_on_c, 13, 55, 92
1, 146403, Note_on_c, 13, 48, 105
1, 146451, Note_off_c, 9, 51, 64
1, 146455, Note_off_c, 9, 38, 64
1, 146579, Note_off_c, 1, 36, 64
1, 146619, Note_off_c, 3, 67, 64
1, 146632, Note_off_c, 13, 48, 64
1, 146633, Note_off_c, 13, 55, 64
1, 146634, Note_on_c, 3, 65, 110
1, 146634, Lyric_t, "see "
1, 146635, Note_on_c, 1, 36, 100
1, 146635, Note_on_c, 2, 69, 105
1, 146636, Note_on_c, 4, 62, 100
1, 146638, Note_off_c, 4, 64, 64
1, 146638, Note_on_c, 9, 51, 89
1, 146640, Note_on_c, 13, 55, 89
1, 146640, Note_on_c, 13, 48, 96
1, 146692, Note_off_c, 9, 51, 64
1, 146757, Note_on_c, 9, 35, 122
1, 146820, Note_off_c, 1, 36, 64
1, 146821, Note_off_c, 9, 35, 64
1, 146862, Control_c, 3, 1, 7
1, 146875, Note_on_c, 1, 36, 100
1, 146877, Note_off_c, 13, 48, 64
1, 146878, Note_on_c, 9, 51, 110
1, 146878, Note_off_c, 13, 55, 64
1, 146881, Note_on_c, 13, 48, 105
1, 146881, Note_on_c, 13, 55, 96
1, 146907, Control_c, 3, 1, 22
1, 146926, Note_off_c, 9, 51, 64
1, 146940, Control_c, 3, 1, 42
1, 146973, Control_c, 3, 1, 58
1, 147040, Control_c, 3, 1, 51
1, 147049, Note_off_c, 1, 36, 64
1, 147073, Control_c, 3, 1, 0
1, 147113, Note_on_c, 1, 36, 105
1, 147115, Note_off_c, 3, 65, 64
1, 147115, Note_off_c, 4, 62, 64
1, 147115, Note_off_c, 13, 55, 64
1, 147116, Note_off_c, 13, 48, 64
1, 147117, Note_on_c, 9, 51, 89
1, 147119, Note_on_c, 9, 35, 122
1, 147120, Note_on_c, 13, 55, 96
1, 147121, Note_on_c, 13, 48, 105
1, 147122, Note_on_c, 4, 60, 96
1, 147123, Note_on_c, 3, 64, 115
1, 147123, Lyric_t, "it "
1, 147168, Note_off_c, 9, 51, 64
1, 147179, Note_off_c, 9, 35, 64
1, 147241, Note_off_c, 2, 79, 64
1, 147298, Note_off_c, 1, 36, 64
1, 147353, Note_on_c, 1, 36, 96
1, 147356, Note_on_c, 9, 38, 122
1, 147358, Note_on_c, 9, 51, 105
1, 147360, Note_off_c, 13, 48, 64
1, 147360, Note_off_c, 13, 55, 64
1, 147362, Note_on_c, 13, 55, 96
1, 147363, Note_on_c, 2, 79, 110
1, 147363, Note_on_c, 13, 48, 105
1, 147410, Note_off_c, 9, 38, 64
1, 147416, Note_off_c, 9, 51, 64
1, 147512, Note_off_c, 2, 69, 64
1, 147534, Note_off_c, 1, 36, 64
1, 147550, Pitch_bend_c, 3, 7661
1, 147555, Note_off_c, 3, 64, 64
1, 147561, Pitch_bend_c, 3, 5764
1, 147572, Pitch_bend_c, 3, 4171
1, 147584, Pitch_bend_c, 3, 3413
1, 147592, Note_on_c, 1, 36, 100
1, 147595, Pitch_bend_c, 3, 3185
1, 147595, Note_on_c, 3, 67, 115
1, 147595, Lyric_t, "clear"
1, 147597, Note_on_c, 9, 51, 96
1, 147598, Note_on_c, 2, 69, 89
1, 147601, Note_off_c, 13, 48, 64
1, 147601, Note_off_c, 13, 55, 64
1, 147604, Note_on_c, 13, 48, 105
1, 147605, Note_on_c, 13, 55, 100
1, 147609, Note_on_c, 4, 64, 89
1, 147617, Pitch_bend_c, 3, 3868
1, 147623, Note_off_c, 4, 60, 64
1, 147628, Pitch_bend_c, 3, 5157
1, 147639, Pitch_bend_c, 3, 7661
1, 147650, Pitch_bend_c, 3, 8192
1, 147656, Note_off_c, 9, 51, 64
1, 147673, Note_off_c, 2, 48, 64
1, 147673, Note_off_c, 2, 36, 64
1, 147720, Note_on_c, 9, 36, 105
1, 147726, Note_off_c, 2, 69, 64
1, 147731, Note_off_c, 2, 72, 64
1, 147731, Note_off_c, 2, 76, 64
1, 147732, Note_off_c, 2, 79, 64
1, 147769, Note_off_c, 9, 36, 64
1, 147772, Note_off_c, 1, 36, 64
1, 147805, Control_c, 2, 64, 0
1, 147805, Note_off_c, 11, 76, 64
1, 147810, Note_off_c, 7, 64, 64
1, 147812, Note_off_c, 7, 60, 64
1, 147818, Note_off_c, 7, 57, 64
1, 147821, Note_off_c, 7, 48, 64
1, 147821, Note_off_c, 7, 67, 64
1, 147828, Note_on_c, 1, 34, 110
1, 147829, Note_on_c, 7, 65, 86
1, 147830, Note_on_c, 7, 46, 77
1, 147831, Note_on_c, 7, 53, 77
1, 147832, Note_on_c, 7, 58, 77
1, 147832, Note_on_c, 12, 46, 115
1, 147833, Note_on_c, 2, 46, 89
1, 147833, Note_on_c, 7, 60, 89
1, 147833, Note_on_c, 11, 58, 73
1, 147834, Note_on_c, 7, 62, 83
1, 147834, Note_on_c, 11, 82, 69
1, 147834, Note_on_c, 11, 65, 73
1, 147835, Note_on_c, 2, 34, 86
1, 147835, Note_on_c, 11, 77, 92
1, 147836, Note_on_c, 2, 65, 89
1, 147836, Note_off_c, 13, 55, 64
1, 147837, Note_on_c, 2, 74, 100
1, 147837, Note_on_c, 2, 77, 100
1, 147837, Note_on_c, 9, 51, 105
1, 147837, Note_off_c, 11, 69, 64
1, 147837, Note_on_c, 11, 74, 73
1, 147837, Note_off_c, 13, 48, 64
1, 147838, Note_on_c, 2, 70, 100
1, 147838, Note_on_c, 9, 35, 115
1, 147842, Note_off_c, 11, 84, 64
1, 147842, Note_off_c, 12, 48, 64
1, 147842, Note_on_c, 13, 53, 96
1, 147843, Note_on_c, 13, 46, 105
1, 147854, Note_off_c, 11, 60, 64
1, 147863, Note_off_c, 11, 79, 64
1, 147896, Note_off_c, 9, 51, 64
1, 147910, Note_off_c, 9, 35, 64
1, 147963, Control_c, 3, 1, 34
1, 147996, Control_c, 3, 1, 54
1, 148031, Note_off_c, 1, 34, 64
1, 148041, Control_c, 3, 1, 48
1, 148048, Note_off_c, 4, 64, 64
1, 148050, Control_c, 2, 64, 127
1, 148074, Control_c, 3, 1, 0
1, 148076, Note_on_c, 4, 62, 89
1, 148077, Note_on_c, 1, 34, 105
1, 148077, Note_on_c, 9, 51, 86
1, 148079, Note_on_c, 9, 35, 122
1, 148080, Note_off_c, 3, 67, 64
1, 148084, Note_off_c, 13, 46, 64
1, 148085, Note_off_c, 13, 53, 64
1, 148086, Note_on_c, 13, 53, 100
1, 148086, Note_on_c, 13, 46, 100
1, 148089, Note_on_c, 3, 65, 105
1, 148089, Lyric_t, "ly\015"
1, 148137, Note_off_c, 9, 51, 64
1, 148145, Note_off_c, 9, 35, 64
1, 148272, Note_off_c, 1, 34, 64
1, 148316, Note_on_c, 9, 38, 122
1, 148318, Note_on_c, 9, 51, 105
1, 148322, Note_on_c, 1, 34, 110
1, 148325, Note_off_c, 13, 46, 64
1, 148325, Note_off_c, 13, 53, 64
1, 148328, Note_on_c, 13, 46, 100
1, 148328, Note_on_c, 13, 53, 96
1, 148371, Note_off_c, 9, 38, 64
1, 148379, Note_off_c, 9, 51, 64
1, 148385, Control_c, 3, 1, 34
1, 148419, Control_c, 3, 1, 49
1, 148463, Control_c, 3, 1, 42
1, 148472, Note_off_c, 2, 65, 64
1, 148496, Control_c, 3, 1, 0
1, 148511, Note_off_c, 1, 34, 64
1, 148538, Note_off_c, 3, 65, 64
1, 148548, Note_on_c, 2, 65, 96
1, 148559, Note_on_c, 4, 60, 96
1, 148559, Note_on_c, 9, 51, 92
1, 148561, Note_off_c, 13, 53, 64
1, 148561, Note_off_c, 13, 46, 64
1, 148562, Note_on_c, 3, 64, 110
1, 148562, Lyric_t, "once "
1, 148564, Note_on_c, 1, 34, 110
1, 148566, Note_on_c, 13, 46, 96
1, 148567, Note_on_c, 13, 53, 96
1, 148586, Note_off_c, 4, 62, 64
1, 148616, Note_off_c, 9, 51, 64
1, 148677, Note_on_c, 9, 35, 122
1, 148740, Note_off_c, 9, 35, 64
1, 148745, Note_off_c, 1, 34, 64
1, 148799, Note_on_c, 9, 51, 105
1, 148800, Note_off_c, 13, 53, 64
1, 148801, Note_off_c, 13, 46, 64
1, 148802, Note_on_c, 1, 34, 105
1, 148806, Note_on_c, 13, 53, 96
1, 148806, Note_on_c, 13, 46, 100
1, 148808, Control_c, 3, 1, 12
1, 148841, Control_c, 3, 1, 42
1, 148857, Note_off_c, 9, 51, 64
1, 148875, Control_c, 3, 1, 54
1, 148919, Control_c, 3, 1, 34
1, 148953, Control_c, 3, 1, 0
1, 148960, Note_off_c, 2, 70, 64
1, 148982, Note_off_c, 2, 77, 64
1, 148983, Note_off_c, 1, 34, 64
1, 148991, Note_off_c, 2, 74, 64
1, 149011, Note_off_c, 3, 64, 64
1, 149025, Note_off_c, 4, 60, 64
1, 149029, Note_on_c, 4, 58, 100
1, 149036, Note_on_c, 3, 62, 100
1, 149036, Lyric_t, "when "
1, 149039, Note_off_c, 13, 46, 64
1, 149040, Note_on_c, 1, 34, 110
1, 149040, Note_on_c, 9, 51, 89
1, 149040, Note_off_c, 13, 53, 64
1, 149041, Note_on_c, 9, 35, 122
1, 149045, Note_on_c, 13, 46, 96
1, 149046, Note_on_c, 13, 53, 96
1, 149091, Note_off_c, 9, 51, 64
1, 149108, Note_off_c, 9, 35, 64
1, 149234, Note_off_c, 1, 34, 64
1, 149268, Note_on_c, 2, 77, 110
1, 149268, Note_on_c, 2, 74, 110
1, 149269, Note_on_c, 2, 70, 96
1, 149277, Note_on_c, 9, 38, 122
1, 149281, Note_on_c, 9, 51, 105
1, 149283, Note_off_c, 13, 53, 64
1, 149284, Note_off_c, 13, 46, 64
1, 149285, Note_on_c, 1, 34, 110
1, 149286, Note_on_c, 13, 53, 96
1, 149287, Note_on_c, 13, 46, 96
1, 149314, Note_off_c, 2, 34, 64
1, 149327, Note_off_c, 2, 46, 64
1, 149331, Note_off_c, 9, 38, 64
1, 149334, Note_off_c, 9, 51, 64
1, 149420, Note_off_c, 2, 74, 64
1, 149422, Note_off_c, 2, 77, 64
1, 149437, Note_off_c, 2, 70, 64
1, 149450, Note_off_c, 4, 58, 64
1, 149463, Pitch_bend_c, 3, 7585
1, 149465, Note_off_c, 2, 65, 64
1, 149466, Note_off_c, 3, 62, 64
1, 149472, Note_off_c, 1, 34, 64
1, 149473, Pitch_bend_c, 3, 5764
1, 149485, Pitch_bend_c, 3, 4551
1, 149496, Pitch_bend_c, 3, 4323
1, 149510, Note_on_c, 3, 65, 105
1, 149510, Lyric_t, "you "
1, 149518, Pitch_bend_c, 3, 4702
1, 149519, Note_off_c, 13, 46, 64
1, 149519, Note_off_c, 13, 53, 64
1, 149520, Note_on_c, 9, 51, 86
1, 149525, Note_on_c, 13, 53, 96
1, 149526, Note_on_c, 13, 46, 96
1, 149528, Note_on_c, 1, 34, 110
1, 149529, Pitch_bend_c, 3, 5688
1, 149540, Pitch_bend_c, 3, 8116
1, 149551, Pitch_bend_c, 3, 8192
1, 149581, Note_off_c, 9, 51, 64
1, 149638, Note_on_c, 9, 36, 110
1, 149687, Note_off_c, 9, 36, 64
1, 149704, Note_off_c, 1, 34, 64
1, 149722, Note_off_c, 11, 77, 64
1, 149723, Note_off_c, 7, 53, 64
1, 149729, Note_off_c, 11, 82, 64
1, 149737, Note_off_c, 7, 60, 64
1, 149741, Note_off_c, 7, 65, 64
1, 149742, Note_off_c, 7, 58, 64
1, 149748, Note_off_c, 12, 46, 64
1, 149753, Note_on_c, 7, 64, 86
1, 149754, Note_on_c, 7, 45, 83
1, 149754, Note_on_c, 7, 57, 83
1, 149755, Note_on_c, 9, 35, 115
1, 149755, Note_off_c, 13, 46, 64
1, 149756, Note_off_c, 7, 46, 64
1, 149756, Note_off_c, 13, 53, 64
1, 149757, Note_off_c, 11, 58, 64
1, 149757, Note_on_c, 12, 45, 122
1, 149760, Note_on_c, 1, 33, 115
1, 149760, Note_on_c, 7, 52, 89
1, 149760, Note_on_c, 9, 51, 105
1, 149761, Note_on_c, 2, 76, 100
1, 149761, Note_on_c, 2, 74, 105
1, 149761, Note_on_c, 11, 57, 73
1, 149762, Note_on_c, 13, 52, 100
1, 149763, Note_on_c, 2, 69, 100
1, 149763, Note_on_c, 2, 33, 80
1, 149763, Note_on_c, 11, 64, 71
1, 149763, Note_on_c, 11, 76, 83
1, 149763, Note_on_c, 13, 45, 100
1, 149764, Note_on_c, 2, 64, 105
1, 149764, Note_on_c, 11, 81, 100
1, 149765, Note_on_c, 2, 45, 83
1, 149771, Control_c, 2, 64, 0
1, 149775, Note_off_c, 11, 65, 64
1, 149812, Note_off_c, 9, 35, 64
1, 149815, Note_off_c, 9, 51, 64
1, 149819, Control_c, 3, 1, 12
1, 149853, Control_c, 3, 1, 34
1, 149897, Control_c, 3, 1, 26
1, 149931, Control_c, 3, 1, 0
1, 149945, Note_off_c, 1, 33, 64
1, 149958, Note_off_c, 3, 65, 64
1, 149972, Control_c, 2, 64, 127
1, 149993, Note_on_c, 9, 35, 122
1, 149996, Note_on_c, 3, 64, 115
1, 149996, Lyric_t, "were \015"
1, 149999, Note_on_c, 9, 51, 83
1, 150000, Note_on_c, 1, 33, 115
1, 150005, Note_off_c, 13, 45, 64
1, 150005, Note_off_c, 13, 52, 64
1, 150006, Note_on_c, 13, 45, 100
1, 150007, Note_on_c, 13, 52, 100
1, 150056, Note_off_c, 9, 35, 64
1, 150059, Note_off_c, 9, 51, 64
1, 150185, Note_off_c, 1, 33, 64
1, 150236, Note_on_c, 9, 38, 122
1, 150238, Note_on_c, 1, 33, 115
1, 150239, Note_on_c, 9, 51, 110
1, 150239, Note_off_c, 13, 52, 64
1, 150239, Note_off_c, 13, 45, 64
1, 150245, Note_on_c, 13, 52, 96
1, 150245, Note_on_c, 13, 45, 100
1, 150287, Control_c, 3, 1, 26
1, 150291, Note_off_c, 9, 38, 64
1, 150300, Note_off_c, 9, 51, 64
1, 150320, Control_c, 3, 1, 41
1, 150366, Note_off_c, 2, 76, 64
1, 150376, Control_c, 3, 1, 29
1, 150379, Note_off_c, 2, 74, 64
1, 150382, Note_off_c, 2, 64, 64
1, 150384, Note_off_c, 2, 69, 64
1, 150409, Control_c, 3, 1, 0
1, 150413, Note_off_c, 11, 74, 64
1, 150422, Note_off_c, 1, 33, 64
1, 150468, Note_on_c, 2, 76, 100
1, 150469, Note_off_c, 3, 64, 64
1, 150471, Note_on_c, 2, 69, 96
1, 150471, Note_on_c, 2, 73, 105
1, 150472, Note_on_c, 2, 64, 96
1, 150472, Note_on_c, 7, 61, 83
1, 150472, Note_on_c, 10, 85, 83
1, 150473, Note_on_c, 10, 73, 77
1, 150475, Note_on_c, 1, 33, 115
1, 150476, Note_on_c, 11, 73, 80
1, 150478, Note_off_c, 13, 45, 64
1, 150479, Note_on_c, 9, 51, 80
1, 150479, Note_off_c, 13, 52, 64
1, 150482, Note_on_c, 3, 62, 105
1, 150482, Lyric_t, "here "
1, 150484, Note_on_c, 13, 52, 96
1, 150484, Note_on_c, 13, 45, 105
1, 150491, Note_off_c, 10, 74, 64
1, 150501, Note_off_c, 10, 86, 64
1, 150505, Note_off_c, 7, 62, 64
1, 150517, Control_c, 2, 64, 0
1, 150537, Note_off_c, 9, 51, 64
1, 150597, Note_on_c, 9, 35, 122
1, 150652, Note_off_c, 1, 33, 64
1, 150663, Note_off_c, 9, 35, 64
1, 150698, Control_c, 2, 64, 127
1, 150709, Note_on_c, 1, 33, 110
1, 150713, Note_off_c, 13, 45, 64
1, 150713, Note_off_c, 13, 52, 64
1, 150717, Note_on_c, 9, 51, 105
1, 150720, Note_on_c, 13, 52, 100
1, 150721, Note_on_c, 13, 45, 105
1, 150743, Control_c, 3, 1, 14
1, 150776, Control_c, 3, 1, 39
1, 150779, Note_off_c, 9, 51, 64
1, 150832, Control_c, 3, 1, 32
1, 150865, Control_c, 3, 1, 0
1, 150903, Note_off_c, 1, 33, 64
1, 150944, Note_off_c, 3, 62, 64
1, 150952, Note_on_c, 1, 33, 110
1, 150956, Note_off_c, 13, 45, 64
1, 150957, Note_off_c, 13, 52, 64
1, 150959, Note_on_c, 9, 51, 83
1, 150961, Note_on_c, 3, 61, 110
1, 150961, Note_on_c, 9, 35, 122
1, 150961, Note_on_c, 13, 52, 100
1, 150961, Note_on_c, 13, 45, 110
1, 150961, Lyric_t, "with "
1, 151015, Note_off_c, 9, 51, 64
1, 151026, Note_off_c, 9, 35, 64
1, 151113, Note_off_c, 2, 64, 64
1, 151144, Note_off_c, 1, 33, 64
1, 151192, Note_on_c, 2, 64, 92
1, 151195, Note_on_c, 1, 33, 115
1, 151198, Control_c, 3, 1, 4
1, 151198, Note_on_c, 9, 38, 122
1, 151198, Note_off_c, 13, 45, 64
1, 151199, Note_on_c, 9, 51, 110
1, 151199, Note_off_c, 13, 52, 64
1, 151202, Note_on_c, 13, 52, 105
1, 151202, Note_on_c, 13, 45, 105
1, 151232, Control_c, 3, 1, 26
1, 151253, Note_off_c, 9, 38, 64
1, 151260, Note_off_c, 9, 51, 64
1, 151265, Control_c, 3, 1, 42
1, 151309, Control_c, 3, 1, 36
1, 151343, Control_c, 3, 1, 0
1, 151357, Note_off_c, 2, 45, 64
1, 151361, Note_off_c, 2, 33, 64
1, 151380, Note_off_c, 1, 33, 64
1, 151391, Note_off_c, 2, 69, 64
1, 151392, Note_off_c, 2, 73, 64
1, 151402, Note_off_c, 3, 61, 64
1, 151406, Note_off_c, 2, 64, 64
1, 151423, Note_off_c, 2, 76, 64
1, 151437, Note_on_c, 1, 33, 115
1, 151438, Note_on_c, 9, 51, 96
1, 151441, Note_on_c, 3, 57, 115
1, 151441, Note_on_c, 9, 38, 115
1, 151441, Lyric_t, "me.\015"
1, 151445, Note_off_c, 13, 45, 64
1, 151445, Note_off_c, 13, 52, 64
1, 151445, Note_on_c, 13, 45, 105
1, 151446, Note_on_c, 13, 52, 100
1, 151504, Note_off_c, 9, 38, 64
1, 151515, Note_off_c, 9, 51, 64
1, 151559, Note_on_c, 9, 36, 110
1, 151560, Note_on_c, 9, 38, 105
1, 151597, Note_off_c, 9, 38, 64
1, 151603, Note_off_c, 9, 36, 64
1, 151625, Note_off_c, 1, 33, 64
1, 151645, Note_off_c, 12, 45, 64
1, 151661, Control_c, 2, 64, 0
1, 151670, Note_on_c, 11, 77, 89
1, 151670, Note_on_c, 11, 81, 96
1, 151671, Note_off_c, 7, 61, 64
1, 151671, Note_off_c, 10, 73, 64
1, 151671, Note_on_c, 11, 69, 77
1, 151672, Note_off_c, 7, 57, 64
1, 151672, Note_on_c, 11, 86, 92
1, 151672, Note_off_c, 11, 76, 64
1, 151672, Note_on_c, 11, 62, 89
1, 151673, Note_on_c, 1, 26, 110
1, 151673, Note_on_c, 7, 65, 92
1, 151673, Note_on_c, 10, 86, 92
1, 151673, Note_on_c, 12, 38, 115
1, 151673, Note_off_c, 13, 52, 64
1, 151674, Note_on_c, 7, 69, 92
1, 151674, Note_on_c, 7, 62, 86
1, 151674, Note_off_c, 13, 45, 64
1, 151675, Note_on_c, 9, 57, 105
1, 151675, Note_on_c, 10, 74, 86
1, 151676, Note_on_c, 7, 57, 77
1, 151676, Note_on_c, 9, 35, 122
1, 151677, Note_on_c, 7, 50, 77
1, 151678, Note_off_c, 11, 64, 64
1, 151679, Note_off_c, 7, 52, 64
1, 151679, Note_off_c, 11, 81, 64
1, 151680, Tempo, 619312
1, 151681, Note_off_c, 7, 64, 64
1, 151681, Note_off_c, 11, 73, 64
1, 151682, Note_on_c, 13, 50, 100
1, 151682, Note_on_c, 13, 57, 96
1, 151683, Note_off_c, 11, 57, 64
1, 151684, Note_off_c, 7, 45, 64
1, 151685, Note_on_c, 2, 81, 100
1, 151685, Note_on_c, 2, 50, 89
1, 151686, Note_on_c, 2, 69, 100
1, 151686, Note_on_c, 2, 77, 110
1, 151686, Note_off_c, 10, 85, 64
1, 151687, Note_on_c, 2, 38, 83
1, 151688, Note_on_c, 2, 74, 105
1, 151732, Control_c, 3, 1, 4
1, 151740, Note_off_c, 9, 35, 64
1, 151750, Note_off_c, 9, 57, 64
1, 151776, Control_c, 3, 1, 19
1, 151821, Control_c, 3, 1, 32
1, 151854, Control_c, 3, 1, 39
1, 151878, Note_off_c, 1, 26, 64
1, 151887, Control_c, 3, 1, 44
1, 151889, Control_c, 2, 64, 127
1, 151917, Note_on_c, 9, 35, 127
1, 151917, Note_off_c, 13, 57, 64
1, 151918, Note_off_c, 13, 50, 64
1, 151919, Note_on_c, 1, 26, 110
1, 151919, Note_on_c, 9, 51, 89
1, 151921, Control_c, 3, 1, 51
1, 151922, Note_on_c, 13, 57, 96
1, 151922, Note_on_c, 13, 50, 96
1, 151954, Control_c, 3, 1, 56
1, 151980, Note_off_c, 9, 35, 64
1, 151988, Note_off_c, 9, 51, 64
1, 152010, Control_c, 3, 1, 48
1, 152018, Note_off_c, 3, 57, 64
1, 152043, Control_c, 3, 1, 0
1, 152113, Note_off_c, 1, 26, 64
1, 152156, Note_on_c, 3, 62, 105
1, 152156, Lyric_t, "And "
1, 152158, Note_on_c, 9, 51, 105
1, 152158, Note_off_c, 13, 50, 64
1, 152158, Note_off_c, 13, 57, 64
1, 152159, Note_on_c, 1, 26, 110
1, 152159, Note_on_c, 9, 38, 122
1, 152162, Note_on_c, 13, 57, 100
1, 152163, Note_on_c, 13, 50, 100
1, 152213, Note_off_c, 9, 38, 64
1, 152214, Note_off_c, 9, 51, 64
1, 152300, Note_off_c, 2, 69, 64
1, 152347, Note_off_c, 1, 26, 64
1, 152382, Note_off_c, 3, 62, 64
1, 152395, Note_off_c, 13, 50, 64
1, 152396, Note_off_c, 13, 57, 64
1, 152397, Note_on_c, 4, 65, 110
1, 152398, Note_on_c, 1, 26, 105
1, 152400, Note_on_c, 2, 69, 105
1, 152400, Note_on_c, 3, 69, 122
1, 152400, Note_on_c, 9, 51, 69
1, 152400, Lyric_t, "now "
1, 152401, Note_on_c, 13, 57, 96
1, 152402, Note_on_c, 13, 50, 100
1, 152407, Pitch_bend_c, 3, 8116
1, 152418, Pitch_bend_c, 3, 7130
1, 152429, Pitch_bend_c, 3, 6674
1, 152440, Pitch_bend_c, 3, 6447
1, 152460, Note_off_c, 9, 51, 64
1, 152473, Pitch_bend_c, 3, 7281
1, 152485, Pitch_bend_c, 3, 8192
1, 152515, Note_on_c, 9, 35, 127
1, 152578, Note_off_c, 9, 35, 64
1, 152581, Note_off_c, 1, 26, 64
1, 152635, Note_on_c, 1, 26, 105
1, 152638, Note_off_c, 13, 50, 64
1, 152639, Note_on_c, 9, 51, 105
1, 152639, Note_off_c, 13, 57, 64
1, 152642, Note_on_c, 13, 50, 100
1, 152643, Note_on_c, 13, 57, 96
1, 152696, Note_off_c, 9, 51, 64
1, 152746, Note_off_c, 2, 81, 64
1, 152828, Note_off_c, 1, 26, 64
1, 152878, Note_on_c, 1, 26, 105
1, 152879, Note_on_c, 9, 51, 77
1, 152880, Note_on_c, 9, 35, 122
1, 152890, Note_on_c, 13, 57, 96
1, 152890, Note_on_c, 13, 50, 100
1, 152893, Note_off_c, 13, 57, 64
1, 152893, Note_off_c, 13, 50, 64
1, 152945, Note_off_c, 9, 35, 64
1, 152947, Note_off_c, 9, 51, 64
1, 153065, Note_off_c, 1, 26, 64
1, 153098, Control_c, 3, 1, 1
1, 153117, Note_on_c, 2, 81, 105
1, 153119, Note_on_c, 1, 26, 110
1, 153120, Note_on_c, 9, 38, 122
1, 153120, Note_on_c, 9, 51, 110
1, 153129, Note_off_c, 13, 50, 64
1, 153130, Note_off_c, 13, 57, 64
1, 153132, Note_on_c, 13, 57, 96
1, 153133, Note_on_c, 13, 50, 100
1, 153153, Control_c, 3, 1, 6
1, 153174, Note_off_c, 9, 38, 64
1, 153184, Note_off_c, 9, 51, 64
1, 153220, Control_c, 3, 1, 11
1, 153248, Note_off_c, 2, 69, 64
1, 153276, Control_c, 3, 1, 16
1, 153281, Note_off_c, 2, 50, 64
1, 153289, Note_off_c, 2, 38, 64
1, 153302, Note_off_c, 1, 26, 64
1, 153321, Note_off_c, 2, 74, 64
1, 153325, Note_off_c, 2, 81, 64
1, 153338, Note_off_c, 2, 77, 64
1, 153353, Control_c, 3, 1, 21
1, 153355, Note_on_c, 2, 69, 92
1, 153357, Note_on_c, 1, 26, 115
1, 153362, Note_on_c, 9, 51, 80
1, 153363, Note_off_c, 13, 50, 64
1, 153363, Note_off_c, 13, 57, 64
1, 153370, Note_on_c, 13, 50, 96
1, 153370, Note_on_c, 13, 57, 96
1, 153409, Control_c, 3, 1, 26
1, 153416, Note_off_c, 9, 51, 64
1, 153450, Note_off_c, 2, 69, 64
1, 153453, Control_c, 3, 1, 31
1, 153480, Note_on_c, 9, 36, 110
1, 153531, Control_c, 3, 1, 36
1, 153533, Note_off_c, 9, 36, 64
1, 153553, Note_off_c, 1, 26, 64
1, 153558, Note_off_c, 11, 86, 64
1, 153561, Note_off_c, 7, 69, 64
1, 153561, Note_off_c, 7, 62, 64
1, 153584, Note_off_c, 7, 50, 64
1, 153585, Note_off_c, 11, 77, 64
1, 153587, Note_off_c, 12, 38, 64
1, 153588, Control_c, 2, 64, 0
1, 153588, Note_on_c, 2, 72, 96
1, 153589, Note_on_c, 2, 76, 110
1, 153590, Note_on_c, 1, 36, 110
1, 153590, Note_on_c, 2, 79, 110
1, 153590, Note_on_c, 2, 36, 83
1, 153591, Note_on_c, 2, 48, 92
1, 153591, Note_on_c, 7, 67, 89
1, 153592, Note_on_c, 7, 64, 86
1, 153592, Note_on_c, 7, 48, 92
1, 153593, Note_on_c, 7, 60, 80
1, 153595, Note_on_c, 12, 48, 122
1, 153598, Note_on_c, 9, 35, 122
1, 153600, Note_on_c, 9, 51, 105
1, 153602, Note_off_c, 13, 57, 64
1, 153602, Note_off_c, 13, 50, 64
1, 153604, Note_on_c, 11, 84, 92
1, 153606, Note_on_c, 11, 60, 96
1, 153606, Note_on_c, 11, 79, 96
1, 153607, Note_on_c, 11, 76, 77
1, 153608, Note_on_c, 13, 55, 92
1, 153608, Note_on_c, 13, 48, 100
1, 153613, Note_off_c, 7, 65, 64
1, 153626, Note_off_c, 11, 62, 64
1, 153631, Control_c, 3, 1, 41
1, 153641, Note_off_c, 11, 81, 64
1, 153656, Note_off_c, 9, 35, 64
1, 153665, Note_off_c, 9, 51, 64
1, 153720, Control_c, 3, 1, 46
1, 153772, Note_off_c, 1, 36, 64
1, 153798, Control_c, 3, 1, 51
1, 153803, Control_c, 2, 64, 127
1, 153835, Note_on_c, 1, 36, 105
1, 153837, Note_on_c, 9, 35, 127
1, 153839, Note_on_c, 9, 51, 80
1, 153850, Note_off_c, 13, 48, 64
1, 153850, Note_off_c, 13, 55, 64
1, 153851, Note_on_c, 13, 55, 89
1, 153852, Note_on_c, 13, 48, 100
1, 153865, Control_c, 3, 1, 56
1, 153887, Note_off_c, 9, 51, 64
1, 153903, Note_off_c, 9, 35, 64
1, 153909, Control_c, 3, 1, 61
1, 153954, Control_c, 3, 1, 66
1, 154011, Note_off_c, 1, 36, 64
1, 154043, Control_c, 3, 1, 71
1, 154074, Note_on_c, 1, 36, 105
1, 154078, Note_on_c, 9, 38, 122
1, 154078, Note_on_c, 9, 51, 105
1, 154082, Note_off_c, 13, 48, 64
1, 154082, Note_off_c, 13, 55, 64
1, 154089, Note_on_c, 13, 55, 89
1, 154089, Note_on_c, 13, 48, 100
1, 154099, Control_c, 3, 1, 81
1, 154133, Note_off_c, 9, 38, 64
1, 154141, Note_off_c, 9, 51, 64
1, 154143, Control_c, 3, 1, 91
1, 154187, Control_c, 3, 1, 86
1, 154221, Control_c, 3, 1, 0
1, 154251, Note_off_c, 1, 36, 64
1, 154300, Note_off_c, 3, 69, 64
1, 154302, Note_off_c, 4, 65, 64
1, 154309, Pitch_bend_c, 3, 6750
1, 154315, Note_on_c, 1, 36, 100
1, 154315, Note_on_c, 2, 69, 105
1, 154319, Note_on_c, 4, 62, 100
1, 154319, Note_on_c, 9, 51, 75
1, 154320, Pitch_bend_c, 3, 5082
1, 154325, Note_off_c, 13, 48, 64
1, 154325, Note_off_c, 13, 55, 64
1, 154329, Note_on_c, 13, 55, 92
1, 154329, Note_on_c, 13, 48, 105
1, 154331, Pitch_bend_c, 3, 4171
1, 154332, Note_on_c, 3, 65, 115
1, 154332, Lyric_t, "some"
1, 154342, Pitch_bend_c, 3, 3944
1, 154364, Pitch_bend_c, 3, 4399
1, 154368, Note_off_c, 9, 51, 64
1, 154375, Pitch_bend_c, 3, 5309
1, 154386, Pitch_bend_c, 3, 7130
1, 154397, Pitch_bend_c, 3, 8192
1, 154433, Note_on_c, 9, 35, 122
1, 154488, Note_off_c, 1, 36, 64
1, 154500, Note_off_c, 9, 35, 64
1, 154551, Note_on_c, 1, 36, 100
1, 154557, Note_on_c, 9, 51, 105
1, 154559, Note_off_c, 13, 48, 64
1, 154560, Note_off_c, 13, 55, 64
1, 154566, Note_on_c, 13, 55, 96
1, 154567, Note_on_c, 13, 48, 105
1, 154616, Note_off_c, 9, 51, 64
1, 154633, Control_c, 3, 1, 11
1, 154665, Control_c, 3, 1, 36
1, 154721, Control_c, 3, 1, 0
1, 154747, Note_off_c, 1, 36, 64
1, 154766, Note_off_c, 3, 65, 64
1, 154797, Note_off_c, 4, 62, 64
1, 154798, Note_on_c, 1, 36, 100
1, 154798, Note_on_c, 9, 51, 77
1, 154798, Note_on_c, 9, 35, 122
1, 154803, Note_on_c, 3, 64, 115
1, 154803, Lyric_t, "how "
1, 154804, Note_off_c, 13, 48, 64
1, 154805, Note_off_c, 13, 55, 64
1, 154808, Note_on_c, 4, 60, 92
1, 154808, Note_on_c, 13, 48, 105
1, 154808, Note_on_c, 13, 55, 96
1, 154853, Note_off_c, 9, 51, 64
1, 154868, Note_off_c, 9, 35, 64
1, 154921, Note_off_c, 2, 79, 64
1, 154977, Note_off_c, 1, 36, 64
1, 155011, Control_c, 3, 1, 22
1, 155036, Note_on_c, 1, 36, 100
1, 155037, Note_on_c, 9, 38, 122
1, 155037, Note_on_c, 9, 51, 105
1, 155042, Note_off_c, 13, 55, 64
1, 155043, Note_on_c, 2, 79, 110
1, 155043, Note_off_c, 13, 48, 64
1, 155044, Control_c, 3, 1, 42
1, 155047, Note_on_c, 13, 48, 105
1, 155048, Note_on_c, 13, 55, 96
1, 155090, Note_off_c, 9, 38, 64
1, 155099, Control_c, 3, 1, 0
1, 155099, Note_off_c, 9, 51, 64
1, 155118, Note_off_c, 3, 64, 64
1, 155192, Note_off_c, 2, 69, 64
1, 155220, Note_off_c, 1, 36, 64
1, 155220, Note_off_c, 4, 60, 64
1, 155244, Pitch_bend_c, 3, 7812
1, 155255, Pitch_bend_c, 3, 5461
1, 155267, Pitch_bend_c, 3, 2503
1, 155276, Note_on_c, 1, 36, 100
1, 155276, Note_off_c, 13, 55, 64
1, 155276, Note_off_c, 13, 48, 64
1, 155278, Note_on_c, 2, 69, 89
1, 155278, Pitch_bend_c, 3, 1289
1, 155278, Note_on_c, 9, 51, 80
1, 155281, Note_on_c, 4, 64, 100
1, 155284, Note_on_c, 3, 67, 115
1, 155284, Note_on_c, 13, 55, 96
1, 155284, Lyric_t, "all "
1, 155285, Note_on_c, 13, 48, 100
1, 155300, Pitch_bend_c, 3, 1592
1, 155311, Pitch_bend_c, 3, 2427
1, 155322, Pitch_bend_c, 3, 3716
1, 155333, Pitch_bend_c, 3, 5613
1, 155336, Note_off_c, 9, 51, 64
1, 155344, Pitch_bend_c, 3, 8192
1, 155353, Note_off_c, 2, 48, 64
1, 155353, Note_off_c, 2, 36, 64
1, 155399, Note_on_c, 9, 36, 110
1, 155406, Note_off_c, 2, 69, 64
1, 155411, Note_off_c, 2, 72, 64
1, 155411, Note_off_c, 2, 76, 64
1, 155412, Note_off_c, 2, 79, 64
1, 155448, Note_off_c, 1, 36, 64
1, 155451, Note_off_c, 9, 36, 64
1, 155463, Note_off_c, 11, 76, 64
1, 155466, Note_off_c, 11, 79, 64
1, 155485, Control_c, 2, 64, 0
1, 155490, Note_off_c, 7, 64, 64
1, 155492, Note_off_c, 7, 60, 64
1, 155496, Note_off_c, 11, 69, 64
1, 155498, Note_off_c, 7, 57, 64
1, 155501, Note_off_c, 7, 48, 64
1, 155501, Note_off_c, 7, 67, 64
1, 155502, Note_off_c, 11, 60, 64
1, 155505, Note_on_c, 7, 46, 73
1, 155505, Note_on_c, 7, 53, 75
1, 155507, Note_on_c, 7, 65, 83
1, 155509, Note_on_c, 7, 58, 77
1, 155510, Note_on_c, 11, 58, 73
1, 155511, Note_on_c, 2, 46, 83
1, 155512, Note_on_c, 7, 60, 89
1, 155512, Note_on_c, 12, 46, 110
1, 155513, Note_on_c, 7, 62, 86
1, 155513, Note_on_c, 11, 65, 77
1, 155514, Note_on_c, 11, 82, 80
1, 155515, Note_on_c, 1, 34, 110
1, 155515, Note_on_c, 2, 34, 86
1, 155515, Note_on_c, 2, 65, 86
1, 155515, Note_on_c, 11, 74, 77
1, 155516, Note_on_c, 2, 74, 105
1, 155516, Note_on_c, 11, 77, 86
1, 155516, Note_off_c, 12, 48, 64
1, 155517, Note_on_c, 2, 70, 110
1, 155517, Note_on_c, 2, 77, 105
1, 155518, Note_off_c, 13, 48, 64
1, 155518, Note_off_c, 13, 55, 64
1, 155519, Note_on_c, 9, 51, 105
1, 155520, Note_on_c, 9, 35, 115
1, 155523, Note_on_c, 13, 53, 92
1, 155524, Note_on_c, 13, 46, 100
1, 155540, Note_off_c, 11, 84, 64
1, 155577, Note_off_c, 9, 35, 64
1, 155583, Note_off_c, 9, 51, 64
1, 155613, Control_c, 3, 1, 2
1, 155646, Control_c, 3, 1, 24
1, 155702, Control_c, 3, 1, 0
1, 155710, Note_off_c, 4, 64, 64
1, 155721, Note_off_c, 1, 34, 64
1, 155741, Note_off_c, 3, 67, 64
1, 155744, Control_c, 2, 64, 127
1, 155755, Note_off_c, 13, 46, 64
1, 155756, Note_off_c, 13, 53, 64
1, 155758, Note_on_c, 9, 51, 75
1, 155759, Note_on_c, 9, 35, 122
1, 155762, Note_on_c, 4, 62, 105
1, 155762, Note_on_c, 13, 53, 100
1, 155762, Note_on_c, 13, 46, 100
1, 155764, Note_on_c, 1, 34, 110
1, 155771, Note_on_c, 3, 65, 110
1, 155771, Lyric_t, "that's\015"
1, 155818, Note_off_c, 9, 51, 64
1, 155827, Note_off_c, 9, 35, 64
1, 155944, Note_off_c, 1, 34, 64
1, 155993, Note_off_c, 13, 46, 64
1, 155993, Note_off_c, 13, 53, 64
1, 155996, Note_on_c, 9, 38, 122
1, 155997, Note_on_c, 9, 51, 105
1, 155999, Note_on_c, 13, 46, 96
1, 156000, Note_on_c, 13, 53, 96
1, 156002, Note_on_c, 1, 34, 110
1, 156046, Control_c, 3, 1, 21
1, 156051, Note_off_c, 9, 38, 64
1, 156058, Note_off_c, 9, 51, 64
1, 156080, Control_c, 3, 1, 42
1, 156125, Control_c, 3, 1, 34
1, 156137, Note_off_c, 2, 65, 64
1, 156158, Control_c, 3, 1, 0
1, 156191, Note_off_c, 1, 34, 64
1, 156210, Note_off_c, 3, 65, 64
1, 156221, Note_off_c, 4, 62, 64
1, 156227, Note_on_c, 2, 65, 100
1, 156238, Note_on_c, 9, 51, 75
1, 156239, Note_on_c, 3, 64, 115
1, 156239, Lyric_t, "left "
1, 156241, Note_off_c, 13, 53, 64
1, 156241, Note_off_c, 13, 46, 64
1, 156242, Note_on_c, 13, 46, 100
1, 156243, Note_on_c, 13, 53, 100
1, 156244, Note_on_c, 1, 34, 110
1, 156245, Note_on_c, 4, 60, 100
1, 156295, Note_off_c, 9, 51, 64
1, 156357, Note_on_c, 9, 35, 127
1, 156421, Note_off_c, 1, 34, 64
1, 156423, Note_off_c, 9, 35, 64
1, 156476, Note_off_c, 13, 53, 64
1, 156476, Note_off_c, 13, 46, 64
1, 156477, Note_on_c, 9, 51, 105
1, 156481, Note_on_c, 1, 34, 110
1, 156481, Note_on_c, 13, 53, 96
1, 156483, Note_on_c, 13, 46, 100
1, 156491, Control_c, 3, 1, 16
1, 156525, Control_c, 3, 1, 39
1, 156540, Note_off_c, 9, 51, 64
1, 156569, Control_c, 3, 1, 39
1, 156602, Control_c, 3, 1, 0
1, 156665, Note_off_c, 1, 34, 64
1, 156673, Note_off_c, 2, 70, 64
1, 156674, Note_off_c, 3, 64, 64
1, 156685, Note_off_c, 2, 77, 64
1, 156705, Note_off_c, 2, 74, 64
1, 156711, Note_off_c, 4, 60, 64
1, 156712, Note_on_c, 3, 62, 105
1, 156712, Note_off_c, 13, 46, 64
1, 156712, Lyric_t, "are "
1, 156713, Note_off_c, 13, 53, 64
1, 156718, Note_on_c, 9, 35, 122
1, 156719, Note_on_c, 9, 51, 77
1, 156719, Note_on_c, 13, 53, 100
1, 156720, Note_on_c, 1, 34, 105
1, 156720, Note_on_c, 13, 46, 105
1, 156722, Note_on_c, 4, 58, 100
1, 156778, Note_off_c, 9, 51, 64
1, 156783, Note_off_c, 9, 35, 64
1, 156908, Note_off_c, 1, 34, 64
1, 156947, Control_c, 3, 1, 14
1, 156952, Note_on_c, 2, 74, 105
1, 156953, Note_on_c, 2, 77, 110
1, 156954, Note_on_c, 2, 70, 96
1, 156959, Note_on_c, 1, 34, 110
1, 156959, Note_on_c, 9, 38, 122
1, 156959, Note_off_c, 13, 46, 64
1, 156960, Note_on_c, 9, 51, 105
1, 156960, Note_off_c, 13, 53, 64
1, 156961, Note_on_c, 13, 46, 100
1, 156962, Note_on_c, 13, 53, 100
1, 156979, Note_off_c, 2, 34, 64
1, 156981, Control_c, 3, 1, 36
1, 156995, Note_off_c, 2, 46, 64
1, 157012, Note_off_c, 9, 38, 64
1, 157014, Control_c, 3, 1, 48
1, 157023, Note_off_c, 9, 51, 64
1, 157068, Note_off_c, 3, 62, 64
1, 157070, Control_c, 3, 1, 0
1, 157111, Note_off_c, 2, 65, 64
1, 157122, Note_off_c, 4, 58, 64
1, 157138, Note_off_c, 1, 34, 64
1, 157168, Note_off_c, 2, 77, 64
1, 157174, Note_off_c, 2, 70, 64
1, 157179, Note_off_c, 2, 74, 64
1, 157194, Note_off_c, 13, 53, 64
1, 157195, Note_on_c, 2, 65, 77
1, 157195, Note_off_c, 13, 46, 64
1, 157199, Note_on_c, 9, 51, 75
1, 157200, Note_on_c, 1, 34, 110
1, 157200, Note_on_c, 13, 53, 96
1, 157201, Note_on_c, 13, 46, 100
1, 157256, Note_off_c, 9, 51, 64
1, 157315, Note_off_c, 2, 65, 64
1, 157320, Note_on_c, 9, 36, 110
1, 157369, Note_off_c, 1, 34, 64
1, 157381, Note_off_c, 9, 36, 64
1, 157387, Note_off_c, 11, 77, 64
1, 157394, Note_off_c, 11, 82, 64
1, 157398, Note_off_c, 7, 53, 64
1, 157411, Note_off_c, 7, 60, 64
1, 157417, Note_off_c, 7, 58, 64
1, 157421, Note_off_c, 11, 58, 64
1, 157428, Note_on_c, 2, 74, 100
1, 157429, Note_on_c, 2, 76, 100
1, 157429, Note_on_c, 7, 45, 80
1, 157430, Note_on_c, 7, 64, 89
1, 157431, Note_on_c, 2, 64, 96
1, 157431, Note_on_c, 2, 69, 96
1, 157431, Note_off_c, 13, 46, 64
1, 157432, Note_on_c, 1, 33, 115
1, 157432, Note_on_c, 2, 45, 80
1, 157432, Note_on_c, 2, 33, 83
1, 157432, Note_off_c, 7, 46, 64
1, 157432, Note_on_c, 7, 57, 77
1, 157432, Note_off_c, 13, 53, 64
1, 157434, Note_on_c, 7, 52, 83
1, 157436, Note_on_c, 11, 57, 77
1, 157436, Note_on_c, 11, 76, 89
1, 157436, Note_off_c, 12, 46, 64
1, 157437, Note_on_c, 9, 51, 105
1, 157437, Note_on_c, 11, 64, 77
1, 157438, Note_on_c, 9, 35, 122
1, 157438, Note_on_c, 11, 81, 96
1, 157438, Note_on_c, 13, 52, 100
1, 157439, Note_on_c, 12, 45, 115
1, 157439, Note_on_c, 13, 45, 105
1, 157444, Control_c, 2, 64, 0
1, 157449, Note_off_c, 7, 65, 64
1, 157457, Note_off_c, 11, 65, 64
1, 157494, Note_off_c, 9, 51, 64
1, 157498, Note_off_c, 9, 35, 64
1, 157606, Pitch_bend_c, 3, 7281
1, 157617, Pitch_bend_c, 3, 4626
1, 157623, Note_off_c, 1, 33, 64
1, 157628, Pitch_bend_c, 3, 2730
1, 157639, Pitch_bend_c, 3, 2427
1, 157654, Control_c, 2, 64, 127
1, 157661, Pitch_bend_c, 3, 3792
1, 157665, Note_on_c, 3, 65, 110
1, 157665, Lyric_t, "pie"
1, 157672, Pitch_bend_c, 3, 5082
1, 157676, Note_on_c, 1, 33, 115
1, 157677, Note_on_c, 9, 51, 75
1, 157677, Note_on_c, 9, 35, 127
1, 157679, Note_off_c, 13, 45, 64
1, 157679, Note_off_c, 13, 52, 64
1, 157681, Note_on_c, 13, 52, 100
1, 157682, Note_on_c, 13, 45, 100
1, 157683, Pitch_bend_c, 3, 7054
1, 157695, Pitch_bend_c, 3, 8192
1, 157738, Note_off_c, 9, 51, 64
1, 157743, Note_off_c, 9, 35, 64
1, 157858, Note_off_c, 1, 33, 64
1, 157911, Note_on_c, 3, 64, 105
1, 157911, Lyric_t, "ces "
1, 157914, Note_on_c, 1, 33, 110
1, 157914, Note_off_c, 13, 45, 64
1, 157915, Note_off_c, 13, 52, 64
1, 157917, Note_on_c, 9, 51, 100
1, 157918, Note_on_c, 9, 38, 122
1, 157920, Note_on_c, 13, 52, 100
1, 157920, Note_on_c, 13, 45, 105
1, 157934, Note_off_c, 3, 65, 64
1, 157975, Note_off_c, 9, 38, 64
1, 157978, Note_off_c, 9, 51, 64
1, 158100, Control_c, 8, 7, 0
1, 158107, Note_off_c, 1, 33, 64
1, 158130, Control_c, 8, 7, 1
1, 158141, Control_c, 3, 1, 2
1, 158150, Note_on_c, 3, 62, 105
1, 158150, Lyric_t, "of "
1, 158155, Note_on_c, 1, 33, 110
1, 158156, Note_on_c, 9, 51, 75
1, 158158, Note_off_c, 3, 64, 64
1, 158158, Note_off_c, 13, 45, 64
1, 158159, Note_off_c, 13, 52, 64
1, 158160, Control_c, 8, 7, 3
1, 158161, Note_on_c, 13, 52, 100
1, 158162, Note_on_c, 13, 45, 105
1, 158185, Control_c, 3, 1, 0
1, 158190, Control_c, 8, 7, 5
1, 158220, Control_c, 8, 7, 7
1, 158223, Note_off_c, 9, 51, 64
1, 158250, Control_c, 8, 7, 8
1, 158278, Note_on_c, 9, 35, 122
1, 158280, Control_c, 8, 7, 10
1, 158310, Control_c, 8, 7, 12
1, 158338, Note_off_c, 1, 33, 64
1, 158340, Control_c, 8, 7, 14
1, 158344, Note_off_c, 2, 76, 64
1, 158344, Note_off_c, 11, 74, 64
1, 158345, Note_off_c, 9, 35, 64
1, 158364, Note_off_c, 2, 69, 64
1, 158364, Note_off_c, 2, 64, 64
1, 158365, Note_off_c, 2, 74, 64
1, 158370, Control_c, 8, 7, 15
1, 158390, Note_on_c, 7, 61, 92
1, 158392, Note_on_c, 1, 33, 110
1, 158394, Note_on_c, 10, 85, 80
1, 158394, Note_off_c, 13, 45, 64
1, 158395, Note_on_c, 9, 51, 100
1, 158395, Note_on_c, 10, 73, 71
1, 158395, Note_off_c, 13, 52, 64
1, 158397, Note_on_c, 11, 73, 77
1, 158399, Note_off_c, 10, 74, 64
1, 158400, Control_c, 8, 7, 17
1, 158400, Note_on_c, 13, 52, 96
1, 158401, Note_on_c, 13, 45, 100
1, 158402, Note_on_c, 2, 64, 80
1, 158402, Note_on_c, 2, 69, 100
1, 158403, Note_on_c, 2, 76, 96
1, 158404, Note_on_c, 2, 73, 100
1, 158415, Note_off_c, 7, 62, 64
1, 158430, Control_c, 8, 7, 19
1, 158433, Note_off_c, 10, 86, 64
1, 158440, Control_c, 2, 64, 0
1, 158455, Note_off_c, 9, 51, 64
1, 158460, Control_c, 8, 7, 21
1, 158485, Control_c, 3, 1, 9
1, 158490, Control_c, 8, 7, 23
1, 158519, Control_c, 3, 1, 22
1, 158520, Control_c, 8, 7, 24
1, 158550, Control_c, 8, 7, 26
1, 158574, Control_c, 3, 1, 0
1, 158580, Control_c, 8, 7, 28
1, 158590, Note_off_c, 1, 33, 64
1, 158610, Control_c, 8, 7, 30
1, 158633, Control_c, 2, 64, 127
1, 158633, Note_off_c, 3, 62, 64
1, 158634, Note_on_c, 9, 51, 80
1, 158636, Note_on_c, 3, 61, 105
1, 158636, Lyric_t, "a "
1, 158638, Note_on_c, 1, 33, 115
1, 158638, Note_on_c, 9, 35, 122
1, 158640, Control_c, 8, 7, 31
1, 158640, Note_off_c, 13, 45, 64
1, 158641, Note_off_c, 13, 52, 64
1, 158642, Note_on_c, 13, 52, 96
1, 158643, Note_on_c, 13, 45, 105
1, 158670, Control_c, 8, 7, 33
1, 158700, Control_c, 8, 7, 35
1, 158702, Note_off_c, 9, 51, 64
1, 158711, Note_off_c, 9, 35, 64
1, 158730, Control_c, 8, 7, 37
1, 158760, Control_c, 8, 7, 38
1, 158790, Control_c, 8, 7, 40
1, 158820, Control_c, 8, 7, 42
1, 158850, Control_c, 8, 7, 44
1, 158857, Note_off_c, 1, 33, 64
1, 158874, Note_off_c, 13, 45, 64
1, 158875, Note_off_c, 13, 52, 64
1, 158877, Note_on_c, 9, 52, 105
1, 158878, Note_on_c, 9, 38, 122
1, 158880, Note_on_c, 1, 31, 105
1, 158880, Control_c, 8, 7, 46
1, 158881, Note_on_c, 13, 52, 96
1, 158882, Note_on_c, 13, 45, 105
1, 158910, Control_c, 8, 7, 47
1, 158937, Note_off_c, 9, 52, 64
1, 158940, Control_c, 8, 7, 49
1, 158952, Note_off_c, 9, 38, 64
1, 158964, Control_c, 3, 1, 9
1, 158970, Control_c, 8, 7, 51
1, 158980, Note_off_c, 2, 45, 64
1, 158984, Note_off_c, 2, 33, 64
1, 158997, Control_c, 3, 1, 16
1, 158998, Note_on_c, 9, 35, 122
1, 158999, Note_on_c, 1, 33, 96
1, 159000, Control_c, 8, 7, 53
1, 159005, Note_off_c, 2, 64, 64
1, 159006, Note_off_c, 2, 69, 64
1, 159007, Note_off_c, 1, 31, 64
1, 159007, Note_off_c, 2, 73, 64
1, 159014, Note_off_c, 2, 76, 64
1, 159030, Control_c, 8, 7, 54
1, 159031, Control_c, 3, 1, 22
1, 159060, Control_c, 8, 7, 56
1, 159071, Note_off_c, 9, 35, 64
1, 159075, Control_c, 3, 1, 32
1, 159085, Note_off_c, 1, 33, 64
1, 159090, Control_c, 8, 7, 58
1, 159108, Control_c, 3, 1, 37
1, 159112, Note_on_c, 1, 29, 110
1, 159116, Note_off_c, 13, 45, 64
1, 159117, Note_on_c, 9, 51, 77
1, 159118, Note_off_c, 13, 52, 64
1, 159119, Note_on_c, 9, 43, 110
1, 159120, Control_c, 8, 7, 60
1, 159121, Note_on_c, 13, 52, 100
1, 159122, Note_on_c, 13, 45, 105
1, 159150, Control_c, 8, 7, 62
1, 159153, Control_c, 3, 1, 49
1, 159171, Note_off_c, 9, 51, 64
1, 159180, Control_c, 8, 7, 63
1, 159186, Control_c, 3, 1, 61
1, 159191, Note_off_c, 9, 43, 64
1, 159210, Control_c, 8, 7, 65
1, 159236, Note_on_c, 9, 36, 110
1, 159239, Note_on_c, 9, 41, 110
1, 159240, Control_c, 8, 7, 67
1, 159250, Note_off_c, 3, 61, 64
1, 159253, Control_c, 3, 1, 0
1, 159262, Note_off_c, 9, 36, 64
1, 159270, Control_c, 8, 7, 69
1, 159277, Note_off_c, 9, 41, 64
1, 159300, Control_c, 8, 7, 70
1, 159330, Control_c, 8, 7, 72
1, 159340, Note_off_c, 10, 85, 64
1, 159343, Note_off_c, 10, 73, 64
1, 159352, Note_on_c, 7, 65, 73
1, 159353, Note_on_c, 7, 62, 71
1, 159353, Note_off_c, 7, 57, 64
1, 159353, Note_on_c, 7, 57, 65
1, 159354, Note_on_c, 2, 62, 100
1, 159354, Note_on_c, 7, 50, 65
1, 159354, Note_off_c, 7, 61, 64
1, 159354, Note_off_c, 11, 76, 64
1, 159354, Note_off_c, 13, 45, 64
1, 159355, Note_off_c, 11, 73, 64
1, 159355, Note_off_c, 13, 52, 64
1, 159357, Note_off_c, 11, 57, 64
1, 159357, Note_off_c, 12, 45, 64
1, 159357, Note_on_c, 12, 38, 115
1, 159358, Control_c, 2, 64, 0
1, 159358, Note_on_c, 5, 86, 92
1, 159358, Note_off_c, 11, 64, 64
1, 159359, Control_c, 7, 7, 72
1, 159359, Control_c, 10, 7, 60
1, 159359, Control_c, 11, 7, 75
1, 159359, Control_c, 12, 7, 76
1, 159359, Control_c, 13, 7, 65
1, 159360, Control_c, 7, 7, 72
1, 159360, Control_c, 8, 7, 75
1, 159360, Note_off_c, 11, 81, 64
1, 159361, Note_off_c, 7, 64, 64
1, 159361, Note_on_c, 9, 35, 122
1, 159361, Note_on_c, 10, 86, 83
1, 159362, Note_on_c, 1, 26, 115
1, 159362, Note_on_c, 9, 49, 122
1, 159362, Note_on_c, 10, 74, 77
1, 159364, Note_off_c, 1, 29, 64
1, 159365, Note_on_c, 11, 77, 83
1, 159366, Note_on_c, 11, 62, 89
1, 159366, Note_on_c, 11, 81, 92
1, 159367, Note_off_c, 7, 52, 64
1, 159367, Note_on_c, 11, 86, 86
1, 159372, Note_off_c, 7, 45, 64
1, 159398, Note_off_c, 9, 49, 64
1, 159406, Note_off_c, 9, 35, 64
1, 159458, Control_c, 5, 64, 127
1, 159480, Note_on_c, 8, 76, 1
1, 159516, Control_c, 2, 64, 127
1, 159577, Note_off_c, 5, 86, 64
1, 159591, Note_on_c, 2, 69, 100
1, 159596, Note_off_c, 8, 76, 17
1, 159608, Control_c, 11, 7, 74
1, 159608, Control_c, 12, 7, 75
1, 159645, Note_off_c, 2, 62, 64
1, 159747, Note_off_c, 2, 69, 64
1, 159774, Control_c, 11, 7, 73
1, 159774, Control_c, 12, 7, 74
1, 159830, Pitch_bend_c, 3, 7433
1, 159833, Note_on_c, 5, 86, 92
1, 159841, Pitch_bend_c, 3, 4930
1, 159848, Note_on_c, 3, 57, 110
1, 159848, Lyric_t, "dream.\012"
1, 159852, Pitch_bend_c, 3, 2806
1, 159863, Pitch_bend_c, 3, 2048
1, 159885, Pitch_bend_c, 3, 2654
1, 159897, Pitch_bend_c, 3, 3716
1, 159908, Pitch_bend_c, 3, 5233
1, 159919, Pitch_bend_c, 3, 7585
1, 159930, Pitch_bend_c, 3, 8192
1, 159940, Control_c, 11, 7, 73
1, 159940, Control_c, 12, 7, 74
1, 159949, Note_off_c, 5, 86, 64
1, 160064, Note_on_c, 2, 77, 100
1, 160106, Control_c, 11, 7, 72
1, 160106, Control_c, 12, 7, 73
1, 160202, Note_off_c, 2, 77, 64
1, 160272, Control_c, 11, 7, 72
1, 160272, Control_c, 12, 7, 73
1, 160315, Note_on_c, 7, 64, 69
1, 160318, Note_on_c, 5, 86, 77
1, 160343, Note_off_c, 7, 65, 64
1, 160403, Note_off_c, 5, 86, 64
1, 160438, Control_c, 11, 7, 71
1, 160438, Control_c, 12, 7, 72
1, 160550, Note_on_c, 2, 76, 110
1, 160604, Control_c, 11, 7, 70
1, 160604, Control_c, 12, 7, 71
1, 160610, Control_c, 3, 1, 1
1, 160654, Control_c, 3, 1, 6
1, 160699, Control_c, 3, 1, 11
1, 160704, Note_off_c, 2, 76, 64
1, 160770, Control_c, 11, 7, 70
1, 160770, Control_c, 12, 7, 71
1, 160788, Control_c, 3, 1, 16
1, 160791, Note_on_c, 5, 88, 71
1, 160804, Note_on_c, 8, 76, 89
1, 160843, Control_c, 3, 1, 21
1, 160877, Control_c, 3, 1, 26
1, 160885, Note_off_c, 5, 88, 64
1, 160910, Control_c, 3, 1, 31
1, 160936, Control_c, 11, 7, 69
1, 160936, Control_c, 12, 7, 70
1, 160943, Control_c, 3, 1, 36
1, 161021, Control_c, 3, 1, 41
1, 161035, Note_on_c, 2, 69, 100
1, 161066, Control_c, 3, 1, 48
1, 161099, Control_c, 3, 1, 53
1, 161102, Control_c, 11, 7, 69
1, 161102, Control_c, 12, 7, 70
1, 161185, Control_c, 11, 7, 68
1, 161185, Control_c, 12, 7, 69
1, 161190, Note_off_c, 2, 69, 64
1, 161198, Note_off_c, 3, 57, 64
1, 161199, Control_c, 3, 1, 0
1, 161263, Note_on_c, 7, 65, 73
1, 161274, Note_on_c, 5, 88, 83
1, 161287, Note_off_c, 7, 64, 64
1, 161351, Control_c, 11, 7, 67
1, 161351, Control_c, 12, 7, 68
1, 161368, Note_off_c, 5, 88, 64
1, 161517, Control_c, 11, 7, 67
1, 161517, Control_c, 12, 7, 68
1, 161683, Control_c, 11, 7, 66
1, 161683, Control_c, 12, 7, 67
1, 161745, Note_off_c, 8, 76, 64
1, 161754, Note_on_c, 5, 88, 83
1, 161757, Note_on_c, 8, 77, 92
1, 161766, Control_c, 11, 7, 66
1, 161766, Control_c, 12, 7, 67
1, 161835, Note_off_c, 5, 88, 64
1, 161932, Control_c, 11, 7, 65
1, 161932, Control_c, 12, 7, 66
1, 162001, Note_on_c, 8, 79, 89
1, 162002, Note_off_c, 8, 77, 64
1, 162098, Control_c, 11, 7, 64
1, 162098, Control_c, 12, 7, 65
1, 162181, Control_c, 11, 7, 64
1, 162181, Control_c, 12, 7, 65
1, 162232, Note_on_c, 7, 67, 73
1, 162235, Note_on_c, 5, 88, 55
1, 162268, Note_off_c, 7, 65, 64
1, 162322, Note_off_c, 5, 88, 64
1, 162347, Control_c, 11, 7, 63
1, 162347, Control_c, 12, 7, 64
1, 162513, Control_c, 11, 7, 63
1, 162513, Control_c, 12, 7, 64
1, 162596, Control_c, 11, 7, 62
1, 162596, Control_c, 12, 7, 63
1, 162702, Note_on_c, 5, 88, 57
1, 162762, Control_c, 11, 7, 62
1, 162762, Control_c, 12, 7, 62
1, 162799, Note_off_c, 5, 88, 64
1, 162845, Control_c, 11, 7, 61
1, 162845, Control_c, 12, 7, 62
1, 163011, Control_c, 11, 7, 60
1, 163011, Control_c, 12, 7, 61
1, 163094, Control_c, 11, 7, 60
1, 163094, Control_c, 12, 7, 61
1, 163185, Note_on_c, 7, 65, 73
1, 163193, Note_on_c, 5, 86, 96
1, 163196, Note_on_c, 2, 62, 100
1, 163200, Control_c, 8, 7, 75
1, 163209, Note_off_c, 7, 67, 64
1, 163260, Control_c, 11, 7, 59
1, 163260, Control_c, 12, 7, 60
1, 163273, Note_off_c, 5, 86, 64
1, 163343, Control_c, 11, 7, 59
1, 163343, Control_c, 12, 7, 59
1, 163380, Control_c, 8, 7, 74
1, 163394, Note_off_c, 2, 62, 64
1, 163426, Control_c, 11, 7, 58
1, 163426, Control_c, 12, 7, 59
1, 163431, Note_off_c, 8, 79, 64
1, 163438, Note_on_c, 8, 81, 92
1, 163439, Note_on_c, 2, 69, 83
1, 163558, Note_off_c, 2, 69, 64
1, 163560, Control_c, 8, 7, 73
1, 163592, Control_c, 11, 7, 57
1, 163592, Control_c, 12, 7, 58
1, 163668, Note_on_c, 5, 86, 83
1, 163674, Note_on_c, 2, 74, 71
1, 163675, Control_c, 11, 7, 57
1, 163675, Control_c, 12, 7, 58
1, 163680, Control_c, 8, 7, 73
1, 163744, Note_off_c, 2, 74, 64
1, 163751, Note_off_c, 5, 86, 64
1, 163758, Control_c, 11, 7, 56
1, 163758, Control_c, 12, 7, 57
1, 163860, Control_c, 8, 7, 72
1, 163914, Note_on_c, 2, 77, 96
1, 163924, Control_c, 11, 7, 56
1, 163924, Control_c, 12, 7, 56
1, 163980, Control_c, 8, 7, 72
1, 164007, Control_c, 11, 7, 55
1, 164007, Control_c, 12, 7, 56
1, 164043, Note_off_c, 2, 77, 64
1, 164090, Control_c, 11, 7, 54
1, 164090, Control_c, 12, 7, 55
1, 164100, Control_c, 8, 7, 71
1, 164156, Note_on_c, 5, 86, 83
1, 164164, Note_on_c, 7, 64, 69
1, 164173, Control_c, 11, 7, 54
1, 164173, Control_c, 12, 7, 55
1, 164214, Note_off_c, 7, 65, 64
1, 164220, Control_c, 8, 7, 70
1, 164232, Note_off_c, 5, 86, 64
1, 164280, Control_c, 8, 7, 70
1, 164339, Control_c, 11, 7, 53
1, 164339, Control_c, 12, 7, 54
1, 164389, Note_on_c, 2, 76, 105
1, 164400, Control_c, 8, 7, 69
1, 164422, Control_c, 11, 7, 53
1, 164422, Control_c, 12, 7, 53
1, 164505, Control_c, 11, 7, 52
1, 164505, Control_c, 12, 7, 53
1, 164520, Control_c, 8, 7, 69
1, 164562, Note_off_c, 2, 76, 64
1, 164580, Control_c, 8, 7, 68
1, 164588, Control_c, 11, 7, 51
1, 164588, Control_c, 12, 7, 52
1, 164633, Note_off_c, 8, 81, 64
1, 164634, Note_on_c, 5, 88, 100
1, 164638, Note_on_c, 8, 76, 86
1, 164671, Control_c, 11, 7, 51
1, 164671, Control_c, 12, 7, 52
1, 164700, Control_c, 8, 7, 67
1, 164720, Note_off_c, 5, 88, 64
1, 164760, Control_c, 8, 7, 67
1, 164820, Control_c, 8, 7, 66
1, 164837, Control_c, 11, 7, 50
1, 164837, Control_c, 12, 7, 51
1, 164880, Note_on_c, 2, 69, 100
1, 164880, Control_c, 8, 7, 66
1, 164920, Control_c, 11, 7, 50
1, 164920, Control_c, 12, 7, 50
1, 165000, Control_c, 8, 7, 65
1, 165003, Control_c, 11, 7, 49
1, 165003, Control_c, 12, 7, 50
1, 165060, Control_c, 8, 7, 64
1, 165068, Note_off_c, 2, 69, 64
1, 165086, Control_c, 11, 7, 49
1, 165086, Control_c, 12, 7, 49
1, 165114, Note_on_c, 7, 65, 69
1, 165115, Note_on_c, 5, 88, 77
1, 165120, Control_c, 8, 7, 64
1, 165141, Note_off_c, 7, 64, 64
1, 165169, Control_c, 11, 7, 48
1, 165169, Control_c, 12, 7, 49
1, 165180, Control_c, 8, 7, 63
1, 165188, Note_off_c, 5, 88, 64
1, 165240, Control_c, 8, 7, 63
1, 165252, Control_c, 11, 7, 47
1, 165252, Control_c, 12, 7, 48
1, 165300, Control_c, 8, 7, 62
1, 165335, Control_c, 11, 7, 47
1, 165335, Control_c, 12, 7, 47
1, 165360, Control_c, 8, 7, 61
1, 165418, Control_c, 11, 7, 46
1, 165418, Control_c, 12, 7, 47
1, 165420, Control_c, 8, 7, 60
1, 165480, Control_c, 8, 7, 60
1, 165501, Control_c, 11, 7, 46
1, 165501, Control_c, 12, 7, 46
1, 165540, Control_c, 8, 7, 59
1, 165584, Control_c, 11, 7, 45
1, 165584, Control_c, 12, 7, 46
1, 165591, Note_on_c, 5, 88, 67
1, 165600, Note_off_c, 8, 76, 64
1, 165600, Control_c, 8, 7, 58
1, 165601, Note_on_c, 8, 77, 89
1, 165660, Control_c, 8, 7, 57
1, 165663, Note_off_c, 5, 88, 64
1, 165667, Control_c, 11, 7, 44
1, 165667, Control_c, 12, 7, 45
1, 165720, Control_c, 8, 7, 56
1, 165750, Control_c, 11, 7, 44
1, 165750, Control_c, 12, 7, 44
1, 165780, Control_c, 8, 7, 55
1, 165813, Pitch_bend_c, 3, 7433
1, 165825, Pitch_bend_c, 3, 5233
1, 165833, Control_c, 11, 7, 43
1, 165833, Control_c, 12, 7, 44
1, 165836, Note_on_c, 2, 67, 89
1, 165836, Pitch_bend_c, 3, 3261
1, 165839, Note_on_c, 3, 65, 105
1, 165839, Lyric_t, "Pie"
1, 165840, Control_c, 8, 7, 54
1, 165847, Pitch_bend_c, 3, 2654
1, 165849, Note_on_c, 8, 79, 83
1, 165853, Note_off_c, 8, 77, 64
1, 165869, Pitch_bend_c, 3, 2882
1, 165880, Pitch_bend_c, 3, 3565
1, 165891, Pitch_bend_c, 3, 4475
1, 165900, Control_c, 8, 7, 53
1, 165902, Pitch_bend_c, 3, 6219
1, 165913, Pitch_bend_c, 3, 8192
1, 165916, Control_c, 11, 7, 43
1, 165916, Control_c, 12, 7, 43
1, 165927, Note_off_c, 2, 67, 64
1, 165960, Control_c, 8, 7, 52
1, 165999, Control_c, 11, 7, 42
1, 165999, Control_c, 12, 7, 43
1, 166020, Control_c, 8, 7, 51
1, 166071, Note_on_c, 7, 67, 71
1, 166072, Note_on_c, 5, 88, 48
1, 166080, Control_c, 8, 7, 49
1, 166082, Control_c, 11, 7, 41
1, 166082, Control_c, 12, 7, 42
1, 166094, Note_off_c, 7, 65, 64
1, 166137, Control_c, 3, 1, 26
1, 166137, Note_off_c, 5, 88, 64
1, 166140, Control_c, 8, 7, 48
1, 166165, Control_c, 11, 7, 41
1, 166165, Control_c, 12, 7, 41
1, 166171, Control_c, 3, 1, 42
1, 166200, Control_c, 8, 7, 46
1, 166215, Control_c, 3, 1, 41
1, 166248, Control_c, 11, 7, 40
1, 166248, Control_c, 12, 7, 41
1, 166249, Control_c, 3, 1, 0
1, 166260, Control_c, 8, 7, 44
1, 166320, Control_c, 8, 7, 43
1, 166323, Note_on_c, 3, 64, 92
1, 166323, Lyric_t, "ces "
1, 166331, Control_c, 11, 7, 40
1, 166331, Control_c, 12, 7, 40
1, 166354, Note_off_c, 3, 65, 64
1, 166380, Control_c, 8, 7, 41
1, 166414, Control_c, 11, 7, 39
1, 166414, Control_c, 12, 7, 40
1, 166440, Control_c, 8, 7, 38
1, 166497, Control_c, 11, 7, 38
1, 166497, Control_c, 12, 7, 39
1, 166500, Control_c, 8, 7, 36
1, 166538, Note_off_c, 3, 64, 64
1, 166557, Note_on_c, 5, 88, 47
1, 166558, Note_on_c, 3, 62, 89
1, 166558, Lyric_t, "of "
1, 166560, Control_c, 8, 7, 34
1, 166580, Control_c, 11, 7, 38
1, 166580, Control_c, 12, 7, 38
1, 166613, Note_off_c, 5, 88, 64
1, 166620, Control_c, 8, 7, 31
1, 166663, Control_c, 11, 7, 37
1, 166663, Control_c, 12, 7, 37
1, 166680, Control_c, 8, 7, 28
1, 166740, Control_c, 8, 7, 24
1, 166746, Control_c, 11, 7, 36
1, 166746, Control_c, 12, 7, 37
1, 166760, Control_c, 3, 1, 6
1, 166800, Control_c, 8, 7, 21
1, 166805, Control_c, 3, 1, 17
1, 166829, Control_c, 11, 7, 36
1, 166829, Control_c, 12, 7, 36
1, 166849, Control_c, 3, 1, 32
1, 166860, Control_c, 8, 7, 17
1, 166882, Control_c, 3, 1, 44
1, 166912, Control_c, 11, 7, 35
1, 166912, Control_c, 12, 7, 35
1, 166916, Control_c, 3, 1, 56
1, 166920, Control_c, 8, 7, 12
1, 166949, Control_c, 3, 1, 48
1, 166980, Control_c, 8, 7, 6
1, 166982, Control_c, 3, 1, 0
1, 166995, Control_c, 11, 7, 34
1, 166995, Control_c, 12, 7, 35
1, 167021, Note_off_c, 3, 62, 64
1, 167026, Control_c, 2, 64, 0
1, 167027, Note_off_c, 8, 79, 64
1, 167031, Note_on_c, 7, 67, 80
1, 167031, Note_on_c, 7, 58, 63
1, 167032, Control_c, 5, 64, 0
1, 167032, Note_on_c, 7, 46, 67
1, 167033, Note_on_c, 7, 62, 75
1, 167034, Note_off_c, 7, 57, 64
1, 167034, Note_off_c, 10, 74, 64
1, 167035, Note_off_c, 7, 62, 64
1, 167035, Note_off_c, 10, 86, 64
1, 167037, Note_on_c, 2, 58, 100
1, 167039, Control_c, 7, 7, 72
1, 167040, Note_on_c, 3, 61, 96
1, 167040, Lyric_t, "a "
1, 167044, Note_off_c, 7, 67, 64
1, 167052, Note_off_c, 7, 50, 64
1, 167078, Control_c, 11, 7, 33
1, 167078, Control_c, 12, 7, 34
1, 167161, Control_c, 11, 7, 33
1, 167161, Control_c, 12, 7, 33
1, 167244, Control_c, 11, 7, 32
1, 167244, Control_c, 12, 7, 32
1, 167282, Note_on_c, 2, 70, 100
1, 167289, Control_c, 2, 64, 127
1, 167327, Control_c, 11, 7, 31
1, 167327, Control_c, 12, 7, 31
1, 167361, Control_c, 3, 1, 7
1, 167394, Control_c, 3, 1, 12
1, 167410, Control_c, 11, 7, 30
1, 167410, Control_c, 12, 7, 31
1, 167438, Control_c, 3, 1, 22
1, 167493, Control_c, 11, 7, 30
1, 167493, Control_c, 12, 7, 30
1, 167494, Control_c, 3, 1, 34
1, 167549, Control_c, 3, 1, 44
1, 167576, Control_c, 11, 7, 28
1, 167576, Control_c, 12, 7, 29
1, 167605, Control_c, 3, 1, 54
1, 167659, Control_c, 11, 7, 28
1, 167659, Control_c, 12, 7, 28
1, 167665, Note_off_c, 3, 61, 64
1, 167672, Control_c, 3, 1, 42
1, 167705, Control_c, 3, 1, 0
1, 167736, Note_off_c, 2, 70, 64
1, 167742, Control_c, 11, 7, 27
1, 167742, Control_c, 12, 7, 28
1, 167760, Note_on_c, 2, 79, 105
1, 167825, Control_c, 11, 7, 26
1, 167825, Control_c, 12, 7, 26
1, 167907, Note_off_c, 2, 79, 64
1, 167908, Control_c, 11, 7, 25
1, 167908, Control_c, 12, 7, 26
1, 167991, Control_c, 11, 7, 24
1, 167991, Control_c, 12, 7, 25
1, 167994, Note_off_c, 7, 67, 64
1, 168074, Control_c, 11, 7, 24
1, 168074, Control_c, 12, 7, 24
1, 168157, Control_c, 11, 7, 23
1, 168157, Control_c, 12, 7, 23
1, 168235, Note_on_c, 2, 77, 115
1, 168240, Control_c, 11, 7, 22
1, 168240, Control_c, 12, 7, 22
1, 168323, Control_c, 11, 7, 21
1, 168323, Control_c, 12, 7, 21
1, 168374, Note_off_c, 2, 77, 64
1, 168406, Control_c, 11, 7, 20
1, 168406, Control_c, 12, 7, 20
1, 168421, Pitch_bend_c, 3, 7888
1, 168432, Pitch_bend_c, 3, 6523
1, 168444, Pitch_bend_c, 3, 4626
1, 168455, Pitch_bend_c, 3, 3034
1, 168466, Pitch_bend_c, 3, 2199
1, 168477, Note_on_c, 3, 62, 92
1, 168477, Lyric_t, "dream.\015"
1, 168489, Control_c, 11, 7, 19
1, 168489, Control_c, 12, 7, 19
1, 168499, Pitch_bend_c, 3, 2503
1, 168510, Pitch_bend_c, 3, 3185
1, 168521, Pitch_bend_c, 3, 4323
1, 168523, Note_off_c, 2, 58, 64
1, 168533, Pitch_bend_c, 3, 5916
1, 168544, Pitch_bend_c, 3, 7964
1, 168554, Pitch_bend_c, 3, 8192
1, 168572, Control_c, 11, 7, 18
1, 168572, Control_c, 12, 7, 18
1, 168655, Control_c, 11, 7, 17
1, 168655, Control_c, 12, 7, 17
1, 168738, Control_c, 11, 7, 16
1, 168738, Control_c, 12, 7, 16
1, 168821, Control_c, 11, 7, 15
1, 168821, Control_c, 12, 7, 15
1, 168904, Control_c, 11, 7, 14
1, 168904, Control_c, 12, 7, 14
1, 168915, Control_c, 2, 64, 0
1, 168950, Note_on_c, 2, 57, 89
1, 168953, Note_off_c, 7, 58, 64
1, 168955, Note_on_c, 7, 65, 75
1, 168956, Note_on_c, 7, 45, 69
1, 168959, Note_on_c, 7, 57, 65
1, 168977, Note_off_c, 7, 46, 64
1, 168987, Control_c, 11, 7, 13
1, 168987, Control_c, 12, 7, 13
1, 169070, Control_c, 11, 7, 12
1, 169070, Control_c, 12, 7, 12
1, 169153, Control_c, 11, 7, 11
1, 169153, Control_c, 12, 7, 11
1, 169201, Note_on_c, 2, 69, 105
1, 169215, Control_c, 2, 64, 127
1, 169236, Control_c, 11, 7, 10
1, 169236, Control_c, 12, 7, 10
1, 169319, Control_c, 11, 7, 8
1, 169319, Control_c, 12, 7, 8
1, 169402, Control_c, 11, 7, 7
1, 169402, Control_c, 12, 7, 7
1, 169412, Control_c, 3, 1, 1
1, 169485, Control_c, 11, 7, 6
1, 169485, Control_c, 12, 7, 6
1, 169534, Control_c, 3, 1, 6
1, 169568, Control_c, 11, 7, 5
1, 169568, Control_c, 12, 7, 5
1, 169646, Control_c, 3, 1, 11
1, 169651, Control_c, 11, 7, 4
1, 169651, Control_c, 12, 7, 4
1, 169680, Note_on_c, 2, 77, 100
1, 169734, Control_c, 11, 7, 2
1, 169734, Control_c, 12, 7, 2
1, 169779, Control_c, 3, 1, 16
1, 169817, Control_c, 11, 7, 1
1, 169817, Control_c, 12, 7, 1
1, 169900, Control_c, 11, 7, 0
1, 169900, Control_c, 12, 7, 0
1, 169901, Control_c, 3, 1, 21
1, 169901, Note_on_c, 7, 64, 75
1, 169909, Note_off_c, 11, 86, 64
1, 169909, Note_off_c, 11, 81, 64
1, 169910, Note_off_c, 11, 62, 64
1, 169911, Note_off_c, 11, 77, 64
1, 169917, Note_off_c, 7, 65, 64
1, 169919, Note_off_c, 12, 38, 64
1, 169920, Control_c, 11, 7, 0
1, 169920, Control_c, 12, 7, 0
1, 169939, Note_off_c, 2, 77, 64
1, 169950, Control_c, 11, 7, 1
1, 169950, Control_c, 12, 7, 1
1, 169980, Control_c, 11, 7, 4
1, 169980, Control_c, 12, 7, 3
1, 170002, Control_c, 3, 1, 26
1, 170010, Control_c, 11, 7, 6
1, 170010, Control_c, 12, 7, 5
1, 170037, Note_on_c, 14, 60, 122
1, 170040, Control_c, 11, 7, 8
1, 170040, Control_c, 12, 7, 7
1, 170070, Control_c, 11, 7, 11
1, 170070, Control_c, 12, 7, 8
1, 170100, Control_c, 11, 7, 13
1, 170100, Control_c, 12, 7, 10
1, 170124, Control_c, 3, 1, 31
1, 170130, Control_c, 11, 7, 15
1, 170130, Control_c, 12, 7, 12
1, 170157, Note_on_c, 2, 76, 115
1, 170160, Control_c, 11, 7, 18
1, 170160, Control_c, 12, 7, 14
1, 170190, Control_c, 11, 7, 20
1, 170190, Control_c, 12, 7, 16
1, 170220, Control_c, 11, 7, 23
1, 170220, Control_c, 12, 7, 17
1, 170224, Control_c, 3, 1, 36
1, 170250, Control_c, 11, 7, 25
1, 170250, Control_c, 12, 7, 19
1, 170280, Control_c, 11, 7, 27
1, 170280, Control_c, 12, 7, 21
1, 170310, Control_c, 11, 7, 30
1, 170310, Control_c, 12, 7, 23
1, 170340, Control_c, 11, 7, 32
1, 170340, Control_c, 12, 7, 25
1, 170357, Control_c, 3, 1, 41
1, 170370, Control_c, 11, 7, 34
1, 170370, Control_c, 12, 7, 26
1, 170372, Note_off_c, 2, 76, 64
1, 170398, Note_off_c, 2, 69, 64
1, 170400, Control_c, 11, 7, 37
1, 170400, Control_c, 12, 7, 28
1, 170430, Control_c, 11, 7, 39
1, 170430, Control_c, 12, 7, 30
1, 170446, Control_c, 3, 1, 46
1, 170460, Control_c, 11, 7, 41
1, 170460, Control_c, 12, 7, 32
1, 170490, Control_c, 11, 7, 44
1, 170490, Control_c, 12, 7, 34
1, 170520, Control_c, 11, 7, 46
1, 170520, Control_c, 12, 7, 35
1, 170550, Control_c, 11, 7, 49
1, 170550, Control_c, 12, 7, 37
1, 170580, Control_c, 11, 7, 51
1, 170580, Control_c, 12, 7, 39
1, 170610, Control_c, 11, 7, 53
1, 170610, Control_c, 12, 7, 41
1, 170640, Control_c, 11, 7, 56
1, 170640, Control_c, 12, 7, 43
1, 170670, Control_c, 11, 7, 58
1, 170670, Control_c, 12, 7, 44
1, 170700, Control_c, 11, 7, 60
1, 170700, Control_c, 12, 7, 46
1, 170730, Control_c, 11, 7, 63
1, 170730, Control_c, 12, 7, 48
1, 170760, Control_c, 11, 7, 65
1, 170760, Control_c, 12, 7, 50
1, 170789, Note_off_c, 1, 26, 64
1, 170790, Control_c, 11, 7, 67
1, 170790, Control_c, 12, 7, 52
1, 170802, Control_c, 3, 1, 41
1, 170820, Control_c, 11, 7, 70
1, 170820, Control_c, 12, 7, 53
1, 170837, Note_off_c, 2, 57, 64
1, 170850, Control_c, 11, 7, 72
1, 170850, Control_c, 12, 7, 55
1, 170872, Note_on_c, 1, 26, 122
1, 170872, Note_off_c, 7, 57, 64
1, 170877, Note_off_c, 7, 62, 64
1, 170877, Note_on_c, 9, 49, 110
1, 170878, Note_on_c, 2, 57, 64
1, 170879, Note_on_c, 12, 38, 115
1, 170880, Control_c, 5, 7, 108
1, 170880, Note_on_c, 7, 38, 83
1, 170880, Control_c, 7, 7, 72
1, 170880, Control_c, 11, 7, 75
1, 170880, Control_c, 12, 7, 58
1, 170881, Note_on_c, 2, 74, 89
1, 170881, Note_on_c, 7, 57, 80
1, 170882, Note_on_c, 2, 65, 86
1, 170882, Note_on_c, 2, 50, 73
1, 170882, Note_on_c, 7, 50, 75
1, 170882, Note_on_c, 7, 62, 75
1, 170883, Note_on_c, 2, 69, 89
1, 170883, Note_on_c, 11, 65, 75
1, 170883, Note_on_c, 11, 69, 86
1, 170884, Note_on_c, 2, 62, 73
1, 170884, Note_on_c, 5, 74, 110
1, 170884, Note_on_c, 11, 62, 83
1, 170885, Note_on_c, 11, 74, 77
1, 170888, Note_off_c, 7, 45, 64
1, 170891, Control_c, 2, 64, 0
1, 170893, Note_off_c, 7, 64, 64
1, 170909, Note_off_c, 9, 49, 64
1, 170935, Control_c, 3, 1, 36
1, 171024, Control_c, 3, 1, 31
1, 171034, Note_off_c, 14, 60, 64
1, 171092, Control_c, 3, 1, 26
1, 171126, Control_c, 2, 64, 127
1, 171147, Control_c, 3, 1, 21
1, 171152, Control_c, 11, 7, 74
1, 171180, Control_c, 3, 1, 16
1, 171214, Control_c, 3, 1, 11
1, 171236, Control_c, 12, 7, 57
1, 171258, Control_c, 3, 1, 0
1, 171288, Control_c, 7, 7, 71
1, 171288, Control_c, 11, 7, 73
1, 171296, Note_off_c, 5, 74, 64
1, 171384, Note_on_c, 5, 74, 89
1, 171424, Control_c, 5, 7, 107
1, 171424, Control_c, 11, 7, 73
1, 171488, Note_off_c, 2, 62, 64
1, 171494, Note_off_c, 2, 50, 64
1, 171502, Note_off_c, 2, 69, 64
1, 171504, Note_off_c, 2, 57, 64
1, 171505, Note_off_c, 2, 65, 64
1, 171512, Note_off_c, 2, 74, 64
1, 171560, Control_c, 11, 7, 72
1, 171592, Control_c, 12, 7, 56
1, 171696, Control_c, 7, 7, 70
1, 171696, Control_c, 11, 7, 72
1, 171730, Note_off_c, 5, 74, 64
1, 171832, Control_c, 11, 7, 71
1, 171854, Note_on_c, 5, 74, 65
1, 171948, Control_c, 12, 7, 56
1, 171960, Control_c, 6, 7, 42
1, 171968, Control_c, 5, 7, 106
1, 171968, Control_c, 11, 7, 70
1, 171990, Control_c, 6, 7, 41
1, 172020, Control_c, 6, 7, 39
1, 172050, Control_c, 6, 7, 38
1, 172080, Control_c, 6, 7, 36
1, 172104, Control_c, 7, 7, 70
1, 172104, Control_c, 11, 7, 70
1, 172110, Control_c, 6, 7, 35
1, 172126, Control_c, 12, 7, 55
1, 172140, Control_c, 6, 7, 33
1, 172170, Control_c, 6, 7, 31
1, 172200, Control_c, 6, 7, 30
1, 172221, Note_off_c, 5, 74, 64
1, 172230, Control_c, 6, 7, 29
1, 172240, Control_c, 11, 7, 69
1, 172260, Control_c, 6, 7, 27
1, 172290, Control_c, 6, 7, 25
1, 172316, Note_off_c, 3, 62, 64
1, 172320, Control_c, 6, 7, 24
1, 172350, Control_c, 6, 7, 23
1, 172376, Control_c, 5, 7, 105
1, 172376, Control_c, 11, 7, 69
1, 172380, Control_c, 6, 7, 21
1, 172410, Control_c, 6, 7, 19
1, 172440, Control_c, 6, 7, 18
1, 172470, Control_c, 6, 7, 17
1, 172482, Control_c, 12, 7, 55
1, 172500, Control_c, 6, 7, 15
1, 172512, Control_c, 7, 7, 69
1, 172512, Control_c, 11, 7, 68
1, 172530, Control_c, 6, 7, 13
1, 172560, Control_c, 6, 7, 12
1, 172590, Control_c, 6, 7, 11
1, 172620, Control_c, 6, 7, 9
1, 172648, Control_c, 11, 7, 67
1, 172650, Control_c, 6, 7, 7
1, 172660, Control_c, 12, 7, 54
1, 172680, Control_c, 6, 7, 6
1, 172710, Control_c, 6, 7, 4
1, 172740, Control_c, 6, 7, 3
1, 172770, Control_c, 6, 7, 1
1, 172784, Control_c, 5, 7, 104
1, 172784, Control_c, 7, 7, 69
1, 172784, Control_c, 11, 7, 67
1, 172800, Control_c, 6, 7, 0
1, 172860, Control_c, 6, 11, 2
1, 172860, Control_c, 6, 7, 70
1, 172920, Control_c, 6, 7, 2
1, 172920, Control_c, 11, 7, 66
1, 172980, Control_c, 6, 7, 3
1, 173016, Control_c, 12, 7, 53
1, 173040, Control_c, 6, 7, 5
1, 173056, Control_c, 11, 7, 66
1, 173100, Control_c, 6, 7, 6
1, 173160, Control_c, 6, 7, 8
1, 173192, Control_c, 7, 7, 68
1, 173192, Control_c, 11, 7, 65
1, 173194, Control_c, 12, 7, 53
1, 173220, Control_c, 6, 7, 9
1, 173269, Note_on_c, 6, 67, 96
1, 173280, Control_c, 6, 7, 11
1, 173328, Control_c, 5, 7, 103
1, 173328, Control_c, 11, 7, 64
1, 173340, Control_c, 6, 7, 12
1, 173400, Control_c, 6, 7, 13
1, 173460, Control_c, 6, 7, 15
1, 173464, Control_c, 7, 7, 68
1, 173464, Control_c, 11, 7, 64
1, 173509, Note_on_c, 6, 69, 86
1, 173515, Control_c, 6, 7, 69
1, 173520, Control_c, 6, 7, 17
1, 173525, Note_off_c, 6, 67, 64
1, 173550, Control_c, 12, 7, 52
1, 173580, Control_c, 6, 7, 18
1, 173600, Control_c, 11, 7, 63
1, 173640, Control_c, 6, 7, 19
1, 173700, Control_c, 6, 7, 20
1, 173728, Control_c, 12, 7, 52
1, 173736, Control_c, 5, 7, 102
1, 173736, Control_c, 11, 7, 63
1, 173744, Note_on_c, 6, 67, 92
1, 173760, Control_c, 6, 7, 22
1, 173768, Note_off_c, 6, 69, 64
1, 173820, Control_c, 6, 7, 24
1, 173872, Control_c, 7, 7, 67
1, 173872, Control_c, 11, 7, 62
1, 173880, Control_c, 6, 7, 25
1, 173906, Control_c, 12, 7, 51
1, 173940, Control_c, 6, 7, 27
1, 173990, Note_on_c, 6, 69, 92
1, 174000, Control_c, 6, 7, 28
1, 174008, Control_c, 11, 7, 62
1, 174025, Note_off_c, 6, 67, 64
1, 174060, Control_c, 6, 7, 29
1, 174120, Control_c, 6, 7, 31
1, 174144, Control_c, 5, 7, 102
1, 174144, Control_c, 7, 7, 66
1, 174144, Control_c, 11, 7, 61
1, 174171, Control_c, 6, 7, 68
1, 174180, Control_c, 6, 7, 32
1, 174226, Note_on_c, 6, 67, 92
1, 174240, Control_c, 6, 7, 34
1, 174253, Note_off_c, 6, 69, 64
1, 174262, Control_c, 12, 7, 50
1, 174280, Control_c, 11, 7, 60
1, 174300, Control_c, 6, 7, 35
1, 174360, Control_c, 6, 7, 36
1, 174416, Control_c, 5, 7, 101
1, 174416, Control_c, 7, 7, 66
1, 174416, Control_c, 11, 7, 60
1, 174420, Control_c, 6, 7, 38
1, 174440, Control_c, 12, 7, 50
1, 174472, Note_on_c, 6, 69, 92
1, 174480, Control_c, 6, 7, 39
1, 174505, Note_off_c, 6, 67, 64
1, 174540, Control_c, 6, 7, 41
1, 174552, Control_c, 11, 7, 59
1, 174600, Control_c, 6, 7, 42
1, 174608, Control_c, 6, 7, 67
1, 174618, Control_c, 12, 7, 49
1, 174660, Control_c, 6, 7, 44
1, 174688, Control_c, 11, 7, 59
1, 174707, Note_on_c, 6, 67, 89
1, 174719, Note_on_c, 5, 86, 100
1, 174720, Control_c, 6, 7, 45
1, 174734, Note_off_c, 6, 69, 64
1, 174780, Control_c, 6, 7, 46
1, 174796, Control_c, 12, 7, 49
1, 174824, Control_c, 5, 7, 100
1, 174824, Control_c, 7, 7, 65
1, 174824, Control_c, 11, 7, 58
1, 174840, Control_c, 6, 7, 48
1, 174900, Control_c, 6, 7, 49
1, 174946, Note_on_c, 6, 69, 89
1, 174960, Control_c, 6, 7, 51
1, 174960, Control_c, 11, 7, 57
1, 174972, Note_off_c, 6, 67, 64
1, 174974, Control_c, 12, 7, 48
1, 175020, Control_c, 6, 7, 52
1, 175080, Control_c, 6, 7, 54
1, 175085, Note_off_c, 5, 86, 64
1, 175096, Control_c, 7, 7, 65
1, 175096, Control_c, 11, 7, 57
1, 175140, Control_c, 6, 7, 55
1, 175152, Control_c, 12, 7, 47
1, 175185, Note_on_c, 6, 67, 89
1, 175195, Note_on_c, 5, 86, 83
1, 175200, Control_c, 6, 7, 56
1, 175207, Note_off_c, 6, 69, 64
1, 175232, Control_c, 5, 7, 99
1, 175232, Control_c, 11, 7, 56
1, 175260, Control_c, 6, 7, 58
1, 175263, Control_c, 6, 7, 66
1, 175320, Control_c, 6, 7, 59
1, 175368, Control_c, 7, 7, 64
1, 175368, Control_c, 11, 7, 56
1, 175380, Control_c, 6, 7, 61
1, 175423, Note_on_c, 6, 69, 89
1, 175440, Control_c, 6, 7, 62
1, 175442, Note_off_c, 6, 67, 64
1, 175500, Control_c, 6, 7, 63
1, 175504, Control_c, 5, 7, 98
1, 175504, Control_c, 11, 7, 55
1, 175508, Control_c, 12, 7, 47
1, 175544, Note_off_c, 5, 86, 64
1, 175560, Control_c, 6, 7, 65
1, 175620, Control_c, 6, 7, 66
1, 175640, Control_c, 7, 7, 64
1, 175640, Control_c, 11, 7, 54
1, 175660, Note_on_c, 6, 67, 89
1, 175677, Note_on_c, 5, 88, 100
1, 175680, Control_c, 6, 7, 68
1, 175686, Control_c, 12, 7, 46
1, 175691, Note_off_c, 6, 69, 64
1, 175700, Control_c, 6, 7, 65
1, 175740, Control_c, 6, 7, 70
1, 175776, Control_c, 11, 7, 54
1, 175800, Control_c, 6, 7, 68
1, 175860, Control_c, 6, 7, 67
1, 175864, Control_c, 12, 7, 46
1, 175903, Note_on_c, 6, 69, 92
1, 175912, Control_c, 5, 7, 97
1, 175912, Control_c, 7, 7, 63
1, 175912, Control_c, 11, 7, 53
1, 175920, Control_c, 6, 7, 66
1, 175930, Note_off_c, 6, 67, 64
1, 175980, Control_c, 6, 7, 65
1, 176040, Control_c, 6, 7, 63
1, 176042, Control_c, 12, 7, 45
1, 176048, Control_c, 11, 7, 53
1, 176068, Note_off_c, 5, 88, 64
1, 176100, Control_c, 6, 7, 62
1, 176137, Note_on_c, 6, 67, 89
1, 176137, Control_c, 6, 7, 64
1, 176160, Control_c, 6, 7, 61
1, 176161, Note_on_c, 5, 88, 60
1, 176166, Note_off_c, 6, 69, 64
1, 176184, Control_c, 5, 7, 96
1, 176184, Control_c, 7, 7, 62
1, 176184, Control_c, 11, 7, 52
1, 176220, Control_c, 6, 7, 59
1, 176220, Control_c, 12, 7, 44
1, 176280, Control_c, 6, 7, 58
1, 176320, Control_c, 11, 7, 51
1, 176340, Control_c, 6, 7, 56
1, 176379, Note_on_c, 6, 69, 92
1, 176398, Control_c, 12, 7, 43
1, 176400, Control_c, 6, 7, 55
1, 176405, Note_off_c, 6, 67, 64
1, 176449, Note_off_c, 5, 88, 64
1, 176456, Control_c, 5, 7, 96
1, 176456, Control_c, 7, 7, 62
1, 176456, Control_c, 11, 7, 51
1, 176460, Control_c, 6, 7, 54
1, 176520, Control_c, 6, 7, 52
1, 176574, Control_c, 6, 7, 63
1, 176576, Control_c, 12, 7, 43
1, 176580, Control_c, 6, 7, 51
1, 176592, Control_c, 11, 7, 50
1, 176619, Note_on_c, 6, 67, 89
1, 176636, Note_on_c, 5, 88, 100
1, 176640, Control_c, 6, 7, 50
1, 176652, Note_off_c, 6, 69, 64
1, 176700, Control_c, 6, 7, 49
1, 176728, Control_c, 5, 7, 95
1, 176728, Control_c, 7, 7, 61
1, 176728, Control_c, 11, 7, 50
1, 176754, Control_c, 12, 7, 42
1, 176760, Control_c, 6, 7, 47
1, 176817, Note_off_c, 5, 88, 64
1, 176820, Control_c, 6, 7, 46
1, 176859, Note_on_c, 6, 69, 86
1, 176864, Control_c, 7, 7, 61
1, 176864, Control_c, 11, 7, 49
1, 176879, Note_on_c, 5, 81, 59
1, 176880, Control_c, 6, 7, 45
1, 176884, Note_off_c, 6, 67, 64
1, 176932, Control_c, 12, 7, 41
1, 176940, Control_c, 6, 7, 43
1, 177000, Control_c, 5, 7, 94
1, 177000, Control_c, 6, 7, 42
1, 177000, Control_c, 11, 7, 49
1, 177011, Control_c, 6, 7, 62
1, 177019, Note_off_c, 5, 81, 64
1, 177060, Control_c, 6, 7, 40
1, 177100, Note_on_c, 6, 67, 89
1, 177110, Control_c, 12, 7, 41
1, 177113, Note_on_c, 5, 88, 100
1, 177120, Control_c, 6, 7, 39
1, 177131, Note_off_c, 6, 69, 64
1, 177136, Control_c, 7, 7, 60
1, 177136, Control_c, 11, 7, 48
1, 177180, Control_c, 6, 7, 38
1, 177240, Control_c, 6, 7, 36
1, 177272, Control_c, 11, 7, 47
1, 177288, Control_c, 12, 7, 40
1, 177300, Control_c, 6, 7, 35
1, 177329, Note_off_c, 5, 88, 64
1, 177345, Note_on_c, 6, 69, 89
1, 177354, Note_on_c, 5, 81, 63
1, 177360, Control_c, 6, 7, 34
1, 177383, Note_off_c, 6, 67, 64
1, 177408, Control_c, 5, 7, 93
1, 177408, Control_c, 7, 7, 60
1, 177408, Control_c, 11, 7, 47
1, 177420, Control_c, 6, 7, 33
1, 177448, Control_c, 6, 7, 61
1, 177466, Control_c, 12, 7, 39
1, 177480, Control_c, 6, 7, 31
1, 177498, Note_off_c, 5, 81, 64
1, 177540, Control_c, 6, 7, 30
1, 177544, Control_c, 5, 7, 92
1, 177544, Control_c, 11, 7, 46
1, 177584, Note_on_c, 6, 67, 89
1, 177588, Note_on_c, 5, 88, 100
1, 177600, Control_c, 6, 7, 29
1, 177618, Note_off_c, 6, 69, 64
1, 177644, Control_c, 12, 7, 38
1, 177660, Control_c, 6, 7, 27
1, 177680, Control_c, 7, 7, 59
1, 177680, Control_c, 11, 7, 46
1, 177720, Control_c, 6, 7, 26
1, 177780, Control_c, 6, 7, 25
1, 177816, Control_c, 5, 7, 91
1, 177816, Control_c, 7, 7, 58
1, 177816, Control_c, 11, 7, 45
1, 177822, Note_off_c, 5, 88, 64
1, 177822, Control_c, 12, 7, 38
1, 177830, Note_on_c, 6, 69, 89
1, 177840, Control_c, 6, 7, 23
1, 177843, Note_on_c, 5, 81, 57
1, 177865, Note_off_c, 6, 67, 64
1, 177885, Control_c, 6, 7, 60
1, 177900, Control_c, 6, 7, 22
1, 177952, Control_c, 11, 7, 44
1, 177960, Control_c, 6, 7, 20
1, 178000, Control_c, 12, 7, 37
1, 178020, Control_c, 6, 7, 19
1, 178021, Note_off_c, 5, 81, 64
1, 178066, Note_on_c, 6, 67, 86
1, 178075, Note_on_c, 5, 89, 86
1, 178080, Control_c, 6, 7, 18
1, 178088, Control_c, 5, 7, 90
1, 178088, Control_c, 7, 7, 58
1, 178088, Control_c, 11, 7, 44
1, 178095, Note_off_c, 6, 69, 64
1, 178140, Control_c, 6, 7, 19
1, 178178, Control_c, 12, 7, 36
1, 178200, Control_c, 6, 7, 20
1, 178224, Control_c, 7, 7, 57
1, 178224, Control_c, 11, 7, 43
1, 178260, Control_c, 6, 7, 22
1, 178282, Note_off_c, 5, 89, 64
1, 178310, Note_on_c, 6, 69, 89
1, 178318, Note_on_c, 5, 81, 60
1, 178320, Control_c, 6, 7, 23
1, 178322, Control_c, 6, 7, 59
1, 178348, Note_off_c, 6, 67, 64
1, 178356, Control_c, 12, 7, 35
1, 178360, Control_c, 5, 7, 90
1, 178360, Control_c, 11, 7, 43
1, 178380, Control_c, 6, 7, 25
1, 178440, Control_c, 6, 7, 27
1, 178483, Note_off_c, 5, 81, 64
1, 178496, Control_c, 7, 7, 57
1, 178496, Control_c, 11, 7, 42
1, 178500, Control_c, 6, 7, 28
1, 178534, Control_c, 12, 7, 34
1, 178541, Control_c, 6, 7, 58
1, 178552, Note_on_c, 6, 67, 89
1, 178555, Note_on_c, 5, 86, 96
1, 178560, Control_c, 6, 7, 29
1, 178585, Note_off_c, 6, 69, 64
1, 178620, Control_c, 6, 7, 31
1, 178632, Control_c, 5, 7, 89
1, 178632, Control_c, 7, 7, 56
1, 178632, Control_c, 11, 7, 41
1, 178680, Control_c, 6, 7, 32
1, 178712, Control_c, 12, 7, 34
1, 178740, Control_c, 6, 7, 34
1, 178768, Control_c, 11, 7, 41
1, 178773, Note_off_c, 5, 86, 64
1, 178791, Note_on_c, 6, 69, 89
1, 178800, Control_c, 6, 7, 35
1, 178805, Note_on_c, 5, 81, 67
1, 178825, Note_off_c, 6, 67, 64
1, 178860, Control_c, 6, 7, 36
1, 178890, Control_c, 12, 7, 32
1, 178904, Control_c, 5, 7, 88
1, 178904, Control_c, 7, 7, 56
1, 178904, Control_c, 11, 7, 40
1, 178920, Control_c, 6, 7, 38
1, 178957, Note_off_c, 5, 81, 64
1, 178978, Control_c, 6, 7, 57
1, 178980, Control_c, 6, 7, 40
1, 179026, Note_on_c, 6, 67, 89
1, 179040, Note_on_c, 5, 86, 96
1, 179040, Control_c, 5, 7, 87
1, 179040, Control_c, 6, 7, 41
1, 179040, Control_c, 7, 7, 55
1, 179040, Control_c, 11, 7, 40
1, 179055, Note_off_c, 6, 69, 64
1, 179068, Control_c, 12, 7, 31
1, 179100, Control_c, 6, 7, 42
1, 179160, Control_c, 6, 7, 44
1, 179176, Control_c, 11, 7, 39
1, 179196, Control_c, 6, 7, 56
1, 179220, Control_c, 6, 7, 46
1, 179246, Control_c, 12, 7, 31
1, 179248, Note_off_c, 5, 86, 64
1, 179266, Note_on_c, 6, 69, 86
1, 179280, Control_c, 6, 7, 47
1, 179288, Note_on_c, 5, 81, 62
1, 179295, Note_off_c, 6, 67, 64
1, 179312, Control_c, 5, 7, 86
1, 179312, Control_c, 7, 7, 54
1, 179312, Control_c, 11, 7, 38
1, 179340, Control_c, 6, 7, 49
1, 179400, Control_c, 6, 7, 50
1, 179410, Note_off_c, 5, 81, 64
1, 179424, Control_c, 12, 7, 29
1, 179448, Control_c, 5, 7, 85
1, 179448, Control_c, 7, 7, 54
1, 179448, Control_c, 11, 7, 38
1, 179460, Control_c, 6, 7, 51
1, 179512, Note_on_c, 6, 67, 89
1, 179520, Control_c, 6, 7, 53
1, 179521, Note_on_c, 5, 88, 92
1, 179541, Note_off_c, 6, 69, 64
1, 179580, Control_c, 6, 7, 55
1, 179584, Control_c, 7, 7, 53
1, 179584, Control_c, 11, 7, 37
1, 179602, Control_c, 12, 7, 28
1, 179633, Control_c, 6, 7, 55
1, 179640, Control_c, 6, 7, 56
1, 179700, Control_c, 6, 7, 57
1, 179710, Note_off_c, 5, 88, 64
1, 179720, Control_c, 5, 7, 85
1, 179720, Control_c, 11, 7, 37
1, 179751, Note_on_c, 6, 69, 89
1, 179760, Control_c, 6, 7, 59
1, 179764, Note_on_c, 5, 81, 63
1, 179780, Control_c, 12, 7, 27
1, 179785, Note_off_c, 6, 67, 64
1, 179820, Control_c, 6, 7, 60
1, 179852, Control_c, 6, 7, 54
1, 179856, Control_c, 5, 7, 84
1, 179856, Control_c, 7, 7, 53
1, 179856, Control_c, 11, 7, 36
1, 179880, Control_c, 6, 7, 62
1, 179935, Note_off_c, 5, 81, 64
1, 179940, Control_c, 6, 7, 63
1, 179958, Control_c, 12, 7, 26
1, 179986, Note_on_c, 6, 67, 89
1, 179992, Control_c, 7, 7, 52
1, 179992, Control_c, 11, 7, 36
1, 180000, Note_on_c, 5, 88, 89
1, 180000, Control_c, 6, 7, 65
1, 180015, Note_off_c, 6, 69, 64
1, 180060, Control_c, 6, 7, 66
1, 180120, Control_c, 6, 7, 68
1, 180128, Control_c, 5, 7, 83
1, 180128, Control_c, 7, 7, 52
1, 180128, Control_c, 11, 7, 35
1, 180136, Control_c, 12, 7, 25
1, 180180, Control_c, 6, 7, 70
1, 180208, Note_off_c, 5, 88, 64
1, 180226, Note_on_c, 6, 69, 86
1, 180239, Note_on_c, 5, 81, 61
1, 180240, Control_c, 6, 7, 68
1, 180255, Note_off_c, 6, 67, 64
1, 180264, Control_c, 5, 7, 82
1, 180264, Control_c, 7, 7, 51
1, 180264, Control_c, 11, 7, 34
1, 180289, Control_c, 6, 7, 53
1, 180300, Control_c, 6, 7, 67
1, 180314, Control_c, 12, 7, 25
1, 180360, Control_c, 6, 7, 66
1, 180400, Control_c, 11, 7, 34
1, 180420, Control_c, 6, 7, 65
1, 180422, Note_off_c, 5, 81, 64
1, 180469, Note_on_c, 6, 67, 96
1, 180480, Note_on_c, 5, 88, 83
1, 180480, Control_c, 6, 7, 64
1, 180492, Control_c, 12, 7, 23
1, 180501, Note_off_c, 6, 69, 64
1, 180507, Control_c, 6, 7, 52
1, 180536, Control_c, 5, 7, 81
1, 180536, Control_c, 7, 7, 51
1, 180536, Control_c, 11, 7, 33
1, 180540, Control_c, 6, 7, 63
1, 180600, Control_c, 6, 7, 62
1, 180660, Control_c, 6, 7, 61
1, 180670, Control_c, 12, 7, 22
1, 180672, Control_c, 5, 7, 80
1, 180672, Control_c, 7, 7, 50
1, 180672, Control_c, 11, 7, 33
1, 180691, Note_off_c, 5, 88, 64
1, 180709, Note_on_c, 6, 69, 86
1, 180720, Control_c, 6, 7, 60
1, 180724, Note_on_c, 5, 81, 60
1, 180725, Note_off_c, 6, 67, 64
1, 180726, Control_c, 6, 7, 51
1, 180780, Control_c, 6, 7, 58
1, 180808, Control_c, 5, 7, 79
1, 180808, Control_c, 7, 7, 49
1, 180808, Control_c, 11, 7, 32
1, 180840, Control_c, 6, 7, 57
1, 180848, Control_c, 12, 7, 22
1, 180884, Note_off_c, 5, 81, 64
1, 180900, Control_c, 6, 7, 56
1, 180944, Control_c, 5, 7, 79
1, 180944, Control_c, 6, 7, 50
1, 180944, Control_c, 7, 7, 49
1, 180944, Control_c, 11, 7, 31
1, 180949, Note_on_c, 6, 67, 96
1, 180957, Note_on_c, 5, 88, 80
1, 180960, Control_c, 6, 7, 55
1, 180968, Note_off_c, 6, 69, 64
1, 181020, Control_c, 6, 7, 54
1, 181026, Control_c, 12, 7, 21
1, 181080, Control_c, 6, 7, 53
1, 181080, Control_c, 7, 7, 48
1, 181080, Control_c, 11, 7, 31
1, 181140, Control_c, 6, 7, 52
1, 181168, Note_off_c, 5, 88, 64
1, 181189, Note_on_c, 6, 69, 86
1, 181200, Control_c, 6, 7, 51
1, 181201, Note_on_c, 5, 81, 57
1, 181204, Control_c, 12, 7, 20
1, 181205, Note_off_c, 6, 67, 64
1, 181216, Control_c, 5, 7, 78
1, 181216, Control_c, 7, 7, 48
1, 181216, Control_c, 11, 7, 30
1, 181260, Control_c, 6, 7, 50
1, 181320, Control_c, 6, 7, 49
1, 181352, Control_c, 5, 7, 77
1, 181352, Control_c, 7, 7, 47
1, 181352, Control_c, 11, 7, 30
1, 181380, Control_c, 6, 7, 47
1, 181381, Control_c, 6, 7, 49
1, 181382, Control_c, 12, 7, 19
1, 181389, Note_off_c, 5, 81, 64
1, 181424, Note_on_c, 6, 67, 92
1, 181439, Note_on_c, 5, 88, 67
1, 181440, Control_c, 6, 7, 46
1, 181448, Note_off_c, 6, 69, 64
1, 181488, Control_c, 5, 7, 76
1, 181488, Control_c, 11, 7, 29
1, 181500, Control_c, 6, 7, 45
1, 181560, Control_c, 6, 7, 44
1, 181560, Control_c, 12, 7, 19
1, 181600, Control_c, 6, 7, 48
1, 181620, Control_c, 6, 7, 43
1, 181624, Control_c, 5, 7, 75
1, 181624, Control_c, 7, 7, 47
1, 181624, Control_c, 11, 7, 28
1, 181643, Note_off_c, 5, 88, 64
1, 181670, Note_on_c, 6, 69, 92
1, 181680, Control_c, 6, 7, 42
1, 181681, Note_on_c, 5, 81, 60
1, 181705, Note_off_c, 6, 67, 64
1, 181738, Control_c, 12, 7, 17
1, 181740, Control_c, 6, 7, 41
1, 181760, Control_c, 5, 7, 74
1, 181760, Control_c, 7, 7, 46
1, 181760, Control_c, 11, 7, 28
1, 181800, Control_c, 6, 7, 40
1, 181818, Control_c, 6, 7, 47
1, 181860, Control_c, 6, 7, 39
1, 181876, Note_off_c, 5, 81, 64
1, 181896, Control_c, 5, 7, 73
1, 181896, Control_c, 7, 7, 45
1, 181896, Control_c, 11, 7, 27
1, 181906, Note_on_c, 6, 67, 92
1, 181916, Control_c, 12, 7, 17
1, 181920, Control_c, 6, 7, 38
1, 181921, Note_on_c, 5, 89, 63
1, 181933, Note_off_c, 6, 69, 64
1, 181980, Control_c, 6, 7, 36
1, 182032, Control_c, 5, 7, 73
1, 182032, Control_c, 7, 7, 45
1, 182032, Control_c, 11, 7, 27
1, 182037, Control_c, 6, 7, 46
1, 182040, Control_c, 6, 7, 35
1, 182094, Control_c, 12, 7, 16
1, 182100, Control_c, 6, 7, 34
1, 182132, Note_off_c, 5, 89, 64
1, 182152, Note_on_c, 6, 69, 92
1, 182160, Control_c, 6, 7, 33
1, 182161, Note_on_c, 5, 81, 58
1, 182168, Control_c, 5, 7, 72
1, 182168, Control_c, 7, 7, 44
1, 182168, Control_c, 11, 7, 26
1, 182185, Note_off_c, 6, 67, 64
1, 182220, Control_c, 6, 7, 32
1, 182255, Control_c, 6, 7, 45
1, 182272, Control_c, 12, 7, 16
1, 182280, Control_c, 6, 7, 31
1, 182304, Control_c, 5, 7, 71
1, 182304, Control_c, 7, 7, 43
1, 182304, Control_c, 11, 7, 25
1, 182318, Note_off_c, 5, 81, 64
1, 182340, Control_c, 6, 7, 30
1, 182387, Note_on_c, 6, 67, 89
1, 182398, Note_on_c, 5, 89, 100
1, 182400, Control_c, 6, 7, 29
1, 182414, Note_off_c, 6, 69, 64
1, 182440, Control_c, 5, 7, 70
1, 182440, Control_c, 7, 7, 43
1, 182440, Control_c, 11, 7, 25
1, 182450, Control_c, 12, 7, 15
1, 182460, Control_c, 6, 7, 28
1, 182474, Control_c, 6, 7, 44
1, 182520, Control_c, 6, 7, 27
1, 182576, Control_c, 5, 7, 69
1, 182576, Control_c, 7, 7, 42
1, 182576, Control_c, 11, 7, 24
1, 182580, Control_c, 6, 7, 25
1, 182608, Note_off_c, 5, 89, 64
1, 182626, Note_on_c, 6, 69, 89
1, 182628, Control_c, 12, 7, 14
1, 182640, Control_c, 6, 7, 24
1, 182642, Note_on_c, 5, 81, 75
1, 182652, Note_off_c, 6, 67, 64
1, 182692, Control_c, 6, 7, 43
1, 182700, Control_c, 6, 7, 23
1, 182712, Control_c, 5, 7, 68
1, 182712, Control_c, 7, 7, 41
1, 182712, Control_c, 11, 7, 24
1, 182760, Control_c, 6, 7, 22
1, 182806, Control_c, 12, 7, 14
1, 182820, Control_c, 6, 7, 21
1, 182845, Note_off_c, 5, 81, 64
1, 182848, Control_c, 5, 7, 68
1, 182848, Control_c, 7, 7, 41
1, 182848, Control_c, 11, 7, 23
1, 182865, Note_on_c, 6, 67, 89
1, 182879, Note_on_c, 5, 91, 96
1, 182880, Control_c, 6, 7, 19
1, 182887, Note_off_c, 6, 69, 64
1, 182911, Control_c, 6, 7, 42
1, 182940, Control_c, 6, 7, 20
1, 182984, Control_c, 5, 7, 67
1, 182984, Control_c, 7, 7, 40
1, 182984, Control_c, 11, 7, 23
1, 182984, Control_c, 12, 7, 13
1, 183000, Control_c, 6, 7, 22
1, 183060, Control_c, 6, 7, 23
1, 183103, Note_on_c, 6, 69, 89
1, 183104, Note_off_c, 5, 91, 64
1, 183120, Control_c, 5, 7, 66
1, 183120, Control_c, 6, 7, 24
1, 183120, Control_c, 7, 7, 40
1, 183120, Control_c, 11, 7, 22
1, 183122, Note_off_c, 6, 67, 64
1, 183123, Note_on_c, 5, 81, 71
1, 183129, Control_c, 6, 7, 41
1, 183162, Control_c, 12, 7, 12
1, 183180, Control_c, 6, 7, 25
1, 183240, Control_c, 6, 7, 26
1, 183256, Control_c, 5, 7, 65
1, 183256, Control_c, 7, 7, 39
1, 183256, Control_c, 11, 7, 21
1, 183300, Control_c, 6, 7, 27
1, 183313, Note_off_c, 5, 81, 64
1, 183340, Note_on_c, 6, 67, 89
1, 183340, Control_c, 12, 7, 11
1, 183348, Control_c, 6, 7, 40
1, 183358, Note_on_c, 5, 88, 96
1, 183360, Control_c, 6, 7, 28
1, 183371, Note_off_c, 6, 69, 64
1, 183392, Control_c, 5, 7, 64
1, 183392, Control_c, 7, 7, 38
1, 183392, Control_c, 11, 7, 21
1, 183420, Control_c, 6, 7, 29
1, 183480, Control_c, 6, 7, 30
1, 183528, Control_c, 5, 7, 62
1, 183528, Control_c, 7, 7, 37
1, 183528, Control_c, 11, 7, 20
1, 183540, Control_c, 6, 7, 31
1, 183566, Control_c, 6, 7, 39
1, 183583, Note_on_c, 6, 69, 92
1, 183590, Note_off_c, 5, 88, 64
1, 183600, Control_c, 6, 7, 33
1, 183602, Note_on_c, 5, 81, 73
1, 183610, Note_off_c, 6, 67, 64
1, 183660, Control_c, 6, 7, 34
1, 183664, Control_c, 5, 7, 62
1, 183664, Control_c, 7, 7, 37
1, 183664, Control_c, 11, 7, 20
1, 183696, Control_c, 12, 7, 11
1, 183720, Control_c, 6, 7, 35
1, 183780, Note_off_c, 5, 81, 64
1, 183780, Control_c, 6, 7, 36
1, 183785, Control_c, 6, 7, 38
1, 183800, Control_c, 5, 7, 61
1, 183800, Control_c, 7, 7, 36
1, 183800, Control_c, 11, 7, 19
1, 183817, Note_on_c, 6, 67, 89
1, 183835, Note_on_c, 5, 88, 96
1, 183840, Control_c, 6, 7, 37
1, 183846, Note_off_c, 6, 69, 64
1, 183874, Control_c, 12, 7, 10
1, 183900, Control_c, 6, 7, 38
1, 183936, Control_c, 5, 7, 60
1, 183936, Control_c, 7, 7, 35
1, 183936, Control_c, 11, 7, 18
1, 183960, Control_c, 6, 7, 39
1, 184003, Control_c, 6, 7, 36
1, 184020, Control_c, 6, 7, 40
1, 184052, Control_c, 12, 7, 10
1, 184059, Note_on_c, 6, 69, 92
1, 184060, Note_off_c, 5, 88, 64
1, 184072, Control_c, 5, 7, 58
1, 184072, Control_c, 7, 7, 35
1, 184072, Control_c, 11, 7, 18
1, 184078, Note_on_c, 5, 81, 65
1, 184080, Control_c, 6, 7, 41
1, 184085, Note_off_c, 6, 67, 64
1, 184140, Control_c, 6, 7, 42
1, 184200, Control_c, 6, 7, 44
1, 184208, Control_c, 5, 7, 57
1, 184208, Control_c, 7, 7, 34
1, 184208, Control_c, 11, 7, 17
1, 184222, Control_c, 6, 7, 35
1, 184230, Control_c, 12, 7, 9
1, 184260, Control_c, 6, 7, 45
1, 184269, Note_off_c, 5, 81, 64
1, 184299, Note_on_c, 6, 67, 89
1, 184316, Note_on_c, 5, 88, 92
1, 184320, Control_c, 6, 7, 46
1, 184332, Note_off_c, 6, 69, 64
1, 184344, Control_c, 5, 7, 56
1, 184344, Control_c, 7, 7, 33
1, 184344, Control_c, 11, 7, 17
1, 184380, Control_c, 6, 7, 47
1, 184408, Control_c, 12, 7, 8
1, 184440, Control_c, 6, 7, 34
1, 184440, Control_c, 6, 7, 48
1, 184480, Control_c, 5, 7, 55
1, 184480, Control_c, 7, 7, 32
1, 184480, Control_c, 11, 7, 16
1, 184500, Control_c, 6, 7, 49
1, 184536, Note_off_c, 5, 88, 64
1, 184539, Note_on_c, 6, 69, 86
1, 184560, Control_c, 6, 7, 50
1, 184563, Note_on_c, 5, 81, 71
1, 184564, Note_off_c, 6, 67, 64
1, 184586, Control_c, 12, 7, 8
1, 184616, Control_c, 5, 7, 53
1, 184616, Control_c, 7, 7, 31
1, 184616, Control_c, 11, 7, 15
1, 184620, Control_c, 6, 7, 51
1, 184659, Control_c, 6, 7, 32
1, 184680, Control_c, 6, 7, 52
1, 184740, Control_c, 6, 7, 54
1, 184752, Control_c, 5, 7, 52
1, 184752, Control_c, 7, 7, 30
1, 184752, Control_c, 11, 7, 15
1, 184754, Note_off_c, 5, 81, 64
1, 184764, Control_c, 12, 7, 7
1, 184780, Note_on_c, 6, 67, 89
1, 184799, Note_on_c, 5, 88, 86
1, 184800, Control_c, 6, 7, 55
1, 184811, Note_off_c, 6, 69, 64
1, 184860, Control_c, 6, 7, 56
1, 184877, Control_c, 6, 7, 31
1, 184888, Control_c, 5, 7, 51
1, 184888, Control_c, 7, 7, 30
1, 184888, Control_c, 11, 7, 14
1, 184920, Control_c, 6, 7, 57
1, 184980, Control_c, 6, 7, 58
1, 185007, Note_off_c, 5, 88, 64
1, 185024, Control_c, 5, 7, 50
1, 185024, Control_c, 7, 7, 28
1, 185024, Control_c, 11, 7, 14
1, 185025, Note_on_c, 6, 69, 89
1, 185038, Note_on_c, 5, 81, 61
1, 185040, Control_c, 6, 7, 59
1, 185063, Note_off_c, 6, 67, 64
1, 185096, Control_c, 6, 7, 29
1, 185100, Control_c, 6, 7, 60
1, 185120, Control_c, 12, 7, 7
1, 185160, Control_c, 5, 7, 48
1, 185160, Control_c, 6, 7, 61
1, 185160, Control_c, 7, 7, 28
1, 185160, Control_c, 11, 7, 13
1, 185220, Control_c, 6, 7, 62
1, 185224, Note_off_c, 5, 81, 64
1, 185264, Note_on_c, 6, 67, 89
1, 185272, Note_on_c, 5, 88, 80
1, 185280, Control_c, 6, 7, 63
1, 185296, Control_c, 5, 7, 46
1, 185296, Control_c, 7, 7, 27
1, 185296, Control_c, 11, 7, 12
1, 185298, Note_off_c, 6, 69, 64
1, 185298, Control_c, 12, 7, 6
1, 185314, Control_c, 6, 7, 28
1, 185340, Control_c, 6, 7, 65
1, 185400, Control_c, 6, 7, 66
1, 185432, Control_c, 5, 7, 45
1, 185432, Control_c, 7, 7, 26
1, 185432, Control_c, 11, 7, 12
1, 185460, Control_c, 6, 7, 67
1, 185476, Control_c, 12, 7, 5
1, 185496, Note_off_c, 5, 88, 64
1, 185510, Note_on_c, 6, 69, 89
1, 185520, Note_on_c, 5, 81, 62
1, 185520, Control_c, 6, 7, 68
1, 185533, Control_c, 6, 7, 26
1, 185545, Note_off_c, 6, 67, 64
1, 185568, Control_c, 5, 7, 43
1, 185568, Control_c, 7, 7, 24
1, 185568, Control_c, 11, 7, 11
1, 185580, Control_c, 6, 7, 70
1, 185640, Control_c, 6, 7, 69
1, 185654, Control_c, 12, 7, 5
1, 185700, Control_c, 6, 7, 68
1, 185704, Control_c, 5, 7, 42
1, 185704, Control_c, 7, 7, 24
1, 185704, Control_c, 11, 7, 11
1, 185715, Note_off_c, 5, 81, 64
1, 185746, Note_on_c, 6, 67, 86
1, 185751, Control_c, 6, 7, 25
1, 185757, Note_on_c, 5, 88, 80
1, 185760, Control_c, 6, 7, 67
1, 185775, Note_off_c, 6, 69, 64
1, 185820, Control_c, 6, 7, 66
1, 185840, Control_c, 5, 7, 40
1, 185840, Control_c, 7, 7, 23
1, 185840, Control_c, 11, 7, 10
1, 185880, Control_c, 6, 7, 65
1, 185940, Control_c, 6, 7, 63
1, 185969, Note_off_c, 5, 88, 64
1, 185970, Control_c, 6, 7, 23
1, 185976, Control_c, 5, 7, 39
1, 185976, Control_c, 7, 7, 22
1, 185976, Control_c, 11, 7, 10
1, 185990, Note_on_c, 6, 69, 89
1, 186000, Note_on_c, 5, 81, 59
1, 186000, Control_c, 6, 7, 62
1, 186010, Control_c, 12, 7, 4
1, 186028, Note_off_c, 6, 67, 64
1, 186060, Control_c, 6, 7, 61
1, 186112, Control_c, 5, 7, 36
1, 186112, Control_c, 7, 7, 20
1, 186112, Control_c, 11, 7, 9
1, 186120, Control_c, 6, 7, 60
1, 186180, Control_c, 6, 7, 59
1, 186184, Note_off_c, 5, 81, 64
1, 186188, Control_c, 6, 7, 21
1, 186188, Control_c, 12, 7, 4
1, 186232, Note_on_c, 6, 67, 89
1, 186235, Note_on_c, 5, 88, 69
1, 186240, Control_c, 6, 7, 58
1, 186248, Control_c, 5, 7, 34
1, 186248, Control_c, 7, 7, 19
1, 186248, Control_c, 11, 7, 8
1, 186265, Note_off_c, 6, 69, 64
1, 186300, Control_c, 6, 7, 57
1, 186360, Control_c, 6, 7, 56
1, 186384, Control_c, 5, 7, 33
1, 186384, Control_c, 7, 7, 18
1, 186384, Control_c, 11, 7, 8
1, 186407, Control_c, 6, 7, 19
1, 186420, Control_c, 6, 7, 55
1, 186449, Note_off_c, 5, 88, 64
1, 186471, Note_on_c, 6, 69, 89
1, 186479, Note_on_c, 5, 81, 59
1, 186480, Control_c, 6, 7, 54
1, 186505, Note_off_c, 6, 67, 64
1, 186520, Control_c, 5, 7, 31
1, 186520, Control_c, 7, 7, 17
1, 186520, Control_c, 11, 7, 7
1, 186540, Control_c, 6, 7, 52
1, 186544, Control_c, 12, 7, 3
1, 186600, Control_c, 6, 7, 51
1, 186625, Control_c, 6, 7, 17
1, 186656, Control_c, 5, 7, 28
1, 186656, Control_c, 7, 7, 16
1, 186656, Control_c, 11, 7, 7
1, 186660, Control_c, 6, 7, 50
1, 186683, Note_off_c, 5, 81, 64
1, 186706, Note_on_c, 6, 67, 89
1, 186715, Note_on_c, 5, 88, 69
1, 186720, Control_c, 6, 7, 49
1, 186722, Control_c, 12, 7, 2
1, 186735, Note_off_c, 6, 69, 64
1, 186780, Control_c, 6, 7, 48
1, 186792, Control_c, 5, 7, 27
1, 186792, Control_c, 7, 7, 15
1, 186792, Control_c, 11, 7, 6
1, 186840, Control_c, 6, 7, 47
1, 186844, Control_c, 6, 7, 15
1, 186900, Control_c, 6, 7, 46
1, 186928, Note_off_c, 5, 88, 64
1, 186928, Control_c, 5, 7, 24
1, 186928, Control_c, 7, 7, 13
1, 186928, Control_c, 11, 7, 5
1, 186946, Note_on_c, 6, 69, 86
1, 186954, Note_on_c, 5, 81, 57
1, 186960, Control_c, 6, 7, 45
1, 186975, Note_off_c, 6, 67, 64
1, 187020, Control_c, 6, 7, 44
1, 187062, Control_c, 6, 7, 13
1, 187064, Control_c, 5, 7, 22
1, 187064, Control_c, 7, 7, 12
1, 187064, Control_c, 11, 7, 5
1, 187078, Control_c, 12, 7, 2
1, 187080, Control_c, 6, 7, 43
1, 187140, Control_c, 6, 7, 42
1, 187168, Note_off_c, 5, 81, 64
1, 187186, Note_on_c, 6, 67, 89
1, 187196, Note_on_c, 5, 88, 53
1, 187200, Control_c, 5, 7, 20
1, 187200, Control_c, 6, 7, 41
1, 187200, Control_c, 7, 7, 11
1, 187200, Control_c, 11, 7, 4
1, 187221, Note_off_c, 6, 69, 64
1, 187256, Control_c, 12, 7, 1
1, 187260, Control_c, 6, 7, 40
1, 187281, Control_c, 6, 7, 11
1, 187320, Control_c, 6, 7, 39
1, 187336, Control_c, 5, 7, 17
1, 187336, Control_c, 7, 7, 9
1, 187336, Control_c, 11, 7, 4
1, 187380, Control_c, 6, 7, 38
1, 187416, Note_off_c, 5, 88, 64
1, 187430, Note_on_c, 6, 69, 86
1, 187440, Control_c, 6, 7, 36
1, 187442, Note_on_c, 5, 81, 50
1, 187466, Note_off_c, 6, 67, 64
1, 187472, Control_c, 5, 7, 15
1, 187472, Control_c, 7, 7, 8
1, 187472, Control_c, 11, 7, 3
1, 187499, Control_c, 6, 7, 8
1, 187500, Control_c, 6, 7, 35
1, 187560, Control_c, 6, 7, 34
1, 187608, Control_c, 5, 7, 12
1, 187608, Control_c, 7, 7, 6
1, 187608, Control_c, 11, 7, 2
1, 187612, Control_c, 12, 7, 1
1, 187620, Control_c, 6, 7, 33
1, 187652, Note_off_c, 5, 81, 64
1, 187661, Note_on_c, 6, 67, 86
1, 187680, Control_c, 6, 7, 32
1, 187681, Note_on_c, 5, 88, 52
1, 187691, Note_off_c, 6, 69, 64
1, 187718, Control_c, 6, 7, 6
1, 187740, Control_c, 6, 7, 31
1, 187744, Control_c, 5, 7, 9
1, 187744, Control_c, 7, 7, 5
1, 187744, Control_c, 11, 7, 2
1, 187800, Control_c, 6, 7, 30
1, 187860, Control_c, 6, 7, 29
1, 187880, Control_c, 5, 7, 6
1, 187880, Control_c, 7, 7, 3
1, 187880, Control_c, 11, 7, 1
1, 187894, Note_off_c, 5, 88, 64
1, 187919, Note_on_c, 5, 81, 50
1, 187920, Control_c, 6, 7, 28
1, 187936, Control_c, 6, 7, 3
1, 187968, Control_c, 12, 7, 0
1, 187980, Control_c, 6, 7, 27
1, 188016, Control_c, 5, 7, 3
1, 188016, Control_c, 7, 7, 2
1, 188016, Control_c, 11, 7, 1
1, 188040, Control_c, 6, 7, 25
1, 188062, Control_c, 2, 64, 0
1, 188063, Note_off_c, 6, 67, 64
1, 188066, Note_off_c, 5, 81, 64
1, 188097, Note_off_c, 1, 26, 64
1, 188100, Control_c, 6, 7, 24
1, 188107, Note_off_c, 7, 50, 64
1, 188109, Note_off_c, 7, 57, 64
1, 188117, Note_off_c, 7, 62, 64
1, 188118, Note_off_c, 7, 38, 64
1, 188151, Note_off_c, 11, 74, 64
1, 188152, Control_c, 5, 7, 0
1, 188152, Control_c, 7, 7, 0
1, 188152, Note_off_c, 11, 62, 64
1, 188152, Note_off_c, 11, 69, 64
1, 188152, Control_c, 11, 7, 0
1, 188153, Note_off_c, 11, 65, 64
1, 188155, Control_c, 6, 7, 1
1, 188157, Note_off_c, 12, 38, 64
1, 190077, End_track
0, 0, End_of_file
