0, 0, Header, 1, 7, 960
1, 0, Start_track
1, 0, Control_c, 0, 101, 0
1, 0, Control_c, 0, 100, 0
1, 0, Control_c, 0, 6, 12
1, 0, Control_c, 0, 38, 0
1, 0, Control_c, 1, 101, 0
1, 0, Control_c, 1, 100, 0
1, 0, Control_c, 1, 6, 12
1, 0, Control_c, 1, 38, 0
1, 0, Control_c, 2, 101, 0
1, 0, Control_c, 2, 100, 0
1, 0, Control_c, 2, 6, 12
1, 0, Control_c, 2, 38, 0
1, 0, Control_c, 3, 101, 0
1, 0, Control_c, 3, 100, 0
1, 0, Control_c, 3, 6, 12
1, 0, Control_c, 3, 38, 0
1, 0, Control_c, 4, 101, 0
1, 0, Control_c, 4, 100, 0
1, 0, Control_c, 4, 6, 12
1, 0, Control_c, 4, 38, 0
1, 0, Control_c, 5, 101, 0
1, 0, Control_c, 5, 100, 0
1, 0, Control_c, 5, 6, 12
1, 0, Control_c, 5, 38, 0
1, 0, Control_c, 6, 101, 0
1, 0, Control_c, 6, 100, 0
1, 0, Control_c, 6, 6, 12
1, 0, Control_c, 6, 38, 0
1, 0, Control_c, 7, 101, 0
1, 0, Control_c, 7, 100, 0
1, 0, Control_c, 7, 6, 12
1, 0, Control_c, 7, 38, 0
1, 0, Control_c, 8, 101, 0
1, 0, Control_c, 8, 100, 0
1, 0, Control_c, 8, 6, 12
1, 0, Control_c, 8, 38, 0
1, 0, Control_c, 9, 101, 0
1, 0, Control_c, 9, 100, 0
1, 0, Control_c, 9, 6, 12
1, 0, Control_c, 9, 38, 0
1, 0, Control_c, 10, 101, 0
1, 0, Control_c, 10, 100, 0
1, 0, Control_c, 10, 6, 12
1, 0, Control_c, 10, 38, 0
1, 0, Control_c, 11, 101, 0
1, 0, Control_c, 11, 100, 0
1, 0, Control_c, 11, 6, 12
1, 0, Control_c, 11, 38, 0
1, 0, Control_c, 12, 101, 0
1, 0, Control_c, 12, 100, 0
1, 0, Control_c, 12, 6, 12
1, 0, Control_c, 12, 38, 0
1, 0, Control_c, 13, 101, 0
1, 0, Control_c, 13, 100, 0
1, 0, Control_c, 13, 6, 12
1, 0, Control_c, 13, 38, 0
1, 0, Control_c, 14, 101, 0
1, 0, Control_c, 14, 100, 0
1, 0, Control_c, 14, 6, 12
1, 0, Control_c, 14, 38, 0
1, 0, Control_c, 15, 101, 0
1, 0, Control_c, 15, 100, 0
1, 0, Control_c, 15, 6, 12
1, 0, Control_c, 15, 38, 0
1, 0, Time_signature, 4, 2, 24, 8
1, 0, Tempo, 500000
1, 0, End_track
2, 0, Start_track
2, 0, Pitch_bend_c, 0, 8192
2, 0, Control_c, 0, 7, 103
2, 0, Control_c, 0, 10, 63
2, 0, Control_c, 0, 93, 0
2, 0, Control_c, 0, 91, 0
2, 0, Control_c, 0, 95, 0
2, 0, Control_c, 0, 92, 0
2, 0, Control_c, 0, 11, 127
2, 0, Program_c, 0, 30
2, 0, Control_c, 1, 7, 103
2, 0, Control_c, 1, 10, 63
2, 0, Control_c, 1, 93, 0
2, 0, Control_c, 1, 91, 0
2, 0, Control_c, 1, 95, 0
2, 0, Control_c, 1, 92, 0
2, 0, Control_c, 1, 11, 127
2, 0, Program_c, 1, 30
2, 0, Note_on_c, 0, 47, 95
2, 120, Note_off_c, 0, 47, 95
2, 240, Note_on_c, 0, 47, 95
2, 360, Note_off_c, 0, 47, 95
2, 480, Note_on_c, 0, 47, 95
2, 600, Note_off_c, 0, 47, 95
2, 720, Note_on_c, 0, 47, 95
2, 840, Note_off_c, 0, 47, 95
2, 960, Note_on_c, 0, 45, 95
2, 1080, Note_off_c, 0, 45, 95
2, 1200, Note_on_c, 0, 45, 95
2, 1320, Note_off_c, 0, 45, 95
2, 1440, Note_on_c, 0, 45, 95
2, 1560, Note_off_c, 0, 45, 95
2, 1680, Note_on_c, 0, 45, 95
2, 1800, Note_off_c, 0, 45, 95
2, 1920, Note_on_c, 0, 43, 95
2, 2040, Note_off_c, 0, 43, 95
2, 2160, Note_on_c, 0, 43, 95
2, 2280, Note_off_c, 0, 43, 95
2, 2400, Note_on_c, 0, 43, 95
2, 2520, Note_off_c, 0, 43, 95
2, 2640, Note_on_c, 0, 43, 95
2, 2760, Note_off_c, 0, 43, 95
2, 2880, Note_on_c, 0, 42, 95
2, 3000, Note_off_c, 0, 42, 95
2, 3120, Note_on_c, 0, 42, 95
2, 3240, Note_off_c, 0, 42, 95
2, 3360, Note_on_c, 0, 42, 95
2, 3480, Note_off_c, 0, 42, 95
2, 3600, Note_on_c, 0, 42, 95
2, 3720, Note_off_c, 0, 42, 95
2, 3840, Note_on_c, 0, 47, 95
2, 3960, Note_off_c, 0, 47, 95
2, 4080, Note_on_c, 0, 47, 95
2, 4200, Note_off_c, 0, 47, 95
2, 4320, Note_on_c, 0, 47, 95
2, 4440, Note_off_c, 0, 47, 95
2, 4560, Note_on_c, 0, 47, 95
2, 4680, Note_off_c, 0, 47, 95
2, 4800, Note_on_c, 0, 45, 95
2, 4920, Note_off_c, 0, 45, 95
2, 5040, Note_on_c, 0, 45, 95
2, 5160, Note_off_c, 0, 45, 95
2, 5280, Note_on_c, 0, 45, 95
2, 5400, Note_off_c, 0, 45, 95
2, 5520, Note_on_c, 0, 45, 95
2, 5640, Note_off_c, 0, 45, 95
2, 5760, Note_on_c, 0, 43, 95
2, 5880, Note_off_c, 0, 43, 95
2, 6000, Note_on_c, 0, 43, 95
2, 6120, Note_off_c, 0, 43, 95
2, 6240, Note_on_c, 0, 43, 95
2, 6360, Note_off_c, 0, 43, 95
2, 6480, Note_on_c, 0, 43, 95
2, 6600, Note_off_c, 0, 43, 95
2, 6720, Note_on_c, 0, 42, 95
2, 6840, Note_off_c, 0, 42, 95
2, 6960, Note_on_c, 0, 42, 95
2, 7080, Note_off_c, 0, 42, 95
2, 7200, Note_on_c, 0, 42, 95
2, 7320, Note_off_c, 0, 42, 95
2, 7440, Note_on_c, 0, 42, 95
2, 7560, Note_off_c, 0, 42, 95
2, 7680, Note_on_c, 0, 52, 95
2, 7680, Note_on_c, 0, 47, 95
2, 7800, Note_off_c, 0, 52, 95
2, 7800, Note_off_c, 0, 47, 95
2, 7920, Note_on_c, 0, 52, 95
2, 7920, Note_on_c, 0, 47, 95
2, 8040, Note_off_c, 0, 52, 95
2, 8040, Note_off_c, 0, 47, 95
2, 8160, Note_on_c, 0, 52, 95
2, 8160, Note_on_c, 0, 47, 95
2, 8280, Note_off_c, 0, 52, 95
2, 8280, Note_off_c, 0, 47, 95
2, 8400, Note_on_c, 0, 52, 95
2, 8400, Note_on_c, 0, 47, 95
2, 8520, Note_off_c, 0, 52, 95
2, 8520, Note_off_c, 0, 47, 95
2, 8640, Note_on_c, 0, 50, 95
2, 8640, Note_on_c, 0, 45, 95
2, 8760, Note_off_c, 0, 50, 95
2, 8760, Note_off_c, 0, 45, 95
2, 8880, Note_on_c, 0, 50, 95
2, 8880, Note_on_c, 0, 45, 95
2, 9000, Note_off_c, 0, 50, 95
2, 9000, Note_off_c, 0, 45, 95
2, 9120, Note_on_c, 0, 50, 95
2, 9120, Note_on_c, 0, 45, 95
2, 9240, Note_off_c, 0, 50, 95
2, 9240, Note_off_c, 0, 45, 95
2, 9360, Note_on_c, 0, 50, 95
2, 9360, Note_on_c, 0, 45, 95
2, 9480, Note_off_c, 0, 50, 95
2, 9480, Note_off_c, 0, 45, 95
2, 9600, Note_on_c, 0, 48, 95
2, 9600, Note_on_c, 0, 43, 95
2, 9720, Note_off_c, 0, 48, 95
2, 9720, Note_off_c, 0, 43, 95
2, 9840, Note_on_c, 0, 48, 95
2, 9840, Note_on_c, 0, 43, 95
2, 9960, Note_off_c, 0, 48, 95
2, 9960, Note_off_c, 0, 43, 95
2, 10080, Note_on_c, 0, 48, 95
2, 10080, Note_on_c, 0, 43, 95
2, 10200, Note_off_c, 0, 48, 95
2, 10200, Note_off_c, 0, 43, 95
2, 10320, Note_on_c, 0, 48, 95
2, 10320, Note_on_c, 0, 43, 95
2, 10440, Note_off_c, 0, 48, 95
2, 10440, Note_off_c, 0, 43, 95
2, 10560, Note_on_c, 0, 47, 95
2, 10560, Note_on_c, 0, 42, 95
2, 10680, Note_off_c, 0, 47, 95
2, 10680, Note_off_c, 0, 42, 95
2, 10800, Note_on_c, 0, 47, 95
2, 10800, Note_on_c, 0, 42, 95
2, 10920, Note_off_c, 0, 47, 95
2, 10920, Note_off_c, 0, 42, 95
2, 11040, Note_on_c, 0, 47, 95
2, 11040, Note_on_c, 0, 42, 95
2, 11160, Note_off_c, 0, 47, 95
2, 11160, Note_off_c, 0, 42, 95
2, 11280, Note_on_c, 0, 47, 95
2, 11280, Note_on_c, 0, 42, 95
2, 11400, Note_off_c, 0, 47, 95
2, 11400, Note_off_c, 0, 42, 95
2, 11520, Note_on_c, 0, 52, 95
2, 11520, Note_on_c, 0, 47, 95
2, 11640, Note_off_c, 0, 52, 95
2, 11640, Note_off_c, 0, 47, 95
2, 11760, Note_on_c, 0, 52, 95
2, 11760, Note_on_c, 0, 47, 95
2, 11880, Note_off_c, 0, 52, 95
2, 11880, Note_off_c, 0, 47, 95
2, 12000, Note_on_c, 0, 52, 95
2, 12000, Note_on_c, 0, 47, 95
2, 12120, Note_off_c, 0, 52, 95
2, 12120, Note_off_c, 0, 47, 95
2, 12240, Note_on_c, 0, 52, 95
2, 12240, Note_on_c, 0, 47, 95
2, 12360, Note_off_c, 0, 52, 95
2, 12360, Note_off_c, 0, 47, 95
2, 12480, Note_on_c, 0, 50, 95
2, 12480, Note_on_c, 0, 45, 95
2, 12600, Note_off_c, 0, 50, 95
2, 12600, Note_off_c, 0, 45, 95
2, 12720, Note_on_c, 0, 50, 95
2, 12720, Note_on_c, 0, 45, 95
2, 12840, Note_off_c, 0, 50, 95
2, 12840, Note_off_c, 0, 45, 95
2, 12960, Note_on_c, 0, 50, 95
2, 12960, Note_on_c, 0, 45, 95
2, 13080, Note_off_c, 0, 50, 95
2, 13080, Note_off_c, 0, 45, 95
2, 13200, Note_on_c, 0, 50, 95
2, 13200, Note_on_c, 0, 45, 95
2, 13320, Note_off_c, 0, 50, 95
2, 13320, Note_off_c, 0, 45, 95
2, 13440, Note_on_c, 0, 48, 95
2, 13440, Note_on_c, 0, 43, 95
2, 13560, Note_off_c, 0, 48, 95
2, 13560, Note_off_c, 0, 43, 95
2, 13680, Note_on_c, 0, 48, 95
2, 13680, Note_on_c, 0, 43, 95
2, 13800, Note_off_c, 0, 48, 95
2, 13800, Note_off_c, 0, 43, 95
2, 13920, Note_on_c, 0, 48, 95
2, 13920, Note_on_c, 0, 43, 95
2, 14040, Note_off_c, 0, 48, 95
2, 14040, Note_off_c, 0, 43, 95
2, 14160, Note_on_c, 0, 48, 95
2, 14160, Note_on_c, 0, 43, 95
2, 14280, Note_off_c, 0, 48, 95
2, 14280, Note_off_c, 0, 43, 95
2, 14400, Note_on_c, 0, 47, 95
2, 14400, Note_on_c, 0, 42, 95
2, 14520, Note_off_c, 0, 47, 95
2, 14520, Note_off_c, 0, 42, 95
2, 14640, Note_on_c, 0, 47, 95
2, 14640, Note_on_c, 0, 42, 95
2, 14760, Note_off_c, 0, 47, 95
2, 14760, Note_off_c, 0, 42, 95
2, 14880, Note_on_c, 0, 47, 95
2, 14880, Note_on_c, 0, 42, 95
2, 15000, Note_off_c, 0, 47, 95
2, 15000, Note_off_c, 0, 42, 95
2, 15120, Note_on_c, 0, 47, 95
2, 15120, Note_on_c, 0, 42, 95
2, 15240, Note_off_c, 0, 47, 95
2, 15240, Note_off_c, 0, 42, 95
2, 15360, Note_on_c, 0, 40, 95
2, 15480, Note_off_c, 0, 40, 95
2, 15600, Note_on_c, 0, 43, 95
2, 15720, Note_off_c, 0, 43, 95
2, 15840, Note_on_c, 0, 42, 95
2, 15960, Note_off_c, 0, 42, 95
2, 16080, Note_on_c, 0, 40, 95
2, 16200, Note_off_c, 0, 40, 95
2, 16320, Note_on_c, 0, 47, 95
2, 16440, Note_off_c, 0, 47, 95
2, 16560, Note_on_c, 0, 45, 95
2, 16680, Note_off_c, 0, 45, 95
2, 16800, Note_on_c, 0, 43, 95
2, 16920, Note_off_c, 0, 43, 95
2, 17040, Note_on_c, 0, 42, 95
2, 17160, Note_off_c, 0, 42, 95
2, 17280, Note_on_c, 0, 40, 95
2, 17400, Note_off_c, 0, 40, 95
2, 17520, Note_on_c, 0, 43, 95
2, 17640, Note_off_c, 0, 43, 95
2, 17760, Note_on_c, 0, 42, 95
2, 17880, Note_off_c, 0, 42, 95
2, 18000, Note_on_c, 0, 40, 95
2, 18120, Note_off_c, 0, 40, 95
2, 18240, Note_on_c, 0, 47, 95
2, 18360, Note_off_c, 0, 47, 95
2, 18480, Note_on_c, 0, 45, 95
2, 18600, Note_off_c, 0, 45, 95
2, 18720, Note_on_c, 0, 43, 95
2, 18840, Note_off_c, 0, 43, 95
2, 18960, Note_on_c, 0, 42, 95
2, 19080, Note_off_c, 0, 42, 95
2, 19200, Note_on_c, 0, 40, 95
2, 19320, Note_off_c, 0, 40, 95
2, 19440, Note_on_c, 0, 43, 95
2, 19560, Note_off_c, 0, 43, 95
2, 19680, Note_on_c, 0, 42, 95
2, 19800, Note_off_c, 0, 42, 95
2, 19920, Note_on_c, 0, 40, 95
2, 20040, Note_off_c, 0, 40, 95
2, 20160, Note_on_c, 0, 47, 95
2, 20280, Note_off_c, 0, 47, 95
2, 20400, Note_on_c, 0, 45, 95
2, 20520, Note_off_c, 0, 45, 95
2, 20640, Note_on_c, 0, 43, 95
2, 20760, Note_off_c, 0, 43, 95
2, 20880, Note_on_c, 0, 42, 95
2, 21000, Note_off_c, 0, 42, 95
2, 21120, Note_on_c, 0, 40, 95
2, 21240, Note_off_c, 0, 40, 95
2, 21360, Note_on_c, 0, 43, 95
2, 21480, Note_off_c, 0, 43, 95
2, 21600, Note_on_c, 0, 42, 95
2, 21720, Note_off_c, 0, 42, 95
2, 21840, Note_on_c, 0, 40, 95
2, 21960, Note_off_c, 0, 40, 95
2, 22080, Note_on_c, 0, 47, 95
2, 22200, Note_off_c, 0, 47, 95
2, 22320, Note_on_c, 0, 45, 95
2, 22440, Note_off_c, 0, 45, 95
2, 22560, Note_on_c, 0, 43, 95
2, 22680, Note_off_c, 0, 43, 95
2, 22800, Note_on_c, 0, 42, 95
2, 22920, Note_off_c, 0, 42, 95
2, 23040, Note_on_c, 0, 40, 95
2, 23160, Note_off_c, 0, 40, 95
2, 23280, Note_on_c, 0, 43, 95
2, 23400, Note_off_c, 0, 43, 95
2, 23520, Note_on_c, 0, 42, 95
2, 23640, Note_off_c, 0, 42, 95
2, 23760, Note_on_c, 0, 40, 95
2, 23880, Note_off_c, 0, 40, 95
2, 24000, Note_on_c, 0, 47, 95
2, 24120, Note_off_c, 0, 47, 95
2, 24240, Note_on_c, 0, 45, 95
2, 24360, Note_off_c, 0, 45, 95
2, 24480, Note_on_c, 0, 43, 95
2, 24600, Note_off_c, 0, 43, 95
2, 24720, Note_on_c, 0, 42, 95
2, 24840, Note_off_c, 0, 42, 95
2, 24960, Note_on_c, 0, 40, 95
2, 25080, Note_off_c, 0, 40, 95
2, 25200, Note_on_c, 0, 43, 95
2, 25320, Note_off_c, 0, 43, 95
2, 25440, Note_on_c, 0, 42, 95
2, 25560, Note_off_c, 0, 42, 95
2, 25680, Note_on_c, 0, 40, 95
2, 25800, Note_off_c, 0, 40, 95
2, 25920, Note_on_c, 0, 47, 95
2, 26040, Note_off_c, 0, 47, 95
2, 26160, Note_on_c, 0, 45, 95
2, 26280, Note_off_c, 0, 45, 95
2, 26400, Note_on_c, 0, 43, 95
2, 26520, Note_off_c, 0, 43, 95
2, 26640, Note_on_c, 0, 42, 95
2, 26760, Note_off_c, 0, 42, 95
2, 26880, Note_on_c, 0, 40, 95
2, 27000, Note_off_c, 0, 40, 95
2, 27120, Note_on_c, 0, 43, 95
2, 27240, Note_off_c, 0, 43, 95
2, 27360, Note_on_c, 0, 42, 95
2, 27480, Note_off_c, 0, 42, 95
2, 27600, Note_on_c, 0, 40, 95
2, 27720, Note_off_c, 0, 40, 95
2, 27840, Note_on_c, 0, 47, 95
2, 27960, Note_off_c, 0, 47, 95
2, 28080, Note_on_c, 0, 45, 95
2, 28200, Note_off_c, 0, 45, 95
2, 28320, Note_on_c, 0, 43, 95
2, 28440, Note_off_c, 0, 43, 95
2, 28560, Note_on_c, 0, 42, 95
2, 28680, Note_off_c, 0, 42, 95
2, 28800, Note_on_c, 0, 40, 95
2, 28920, Note_off_c, 0, 40, 95
2, 29040, Note_on_c, 0, 43, 95
2, 29160, Note_off_c, 0, 43, 95
2, 29280, Note_on_c, 0, 42, 95
2, 29400, Note_off_c, 0, 42, 95
2, 29520, Note_on_c, 0, 40, 95
2, 29640, Note_off_c, 0, 40, 95
2, 29760, Note_on_c, 0, 47, 95
2, 29880, Note_off_c, 0, 47, 95
2, 30000, Note_on_c, 0, 45, 95
2, 30120, Note_off_c, 0, 45, 95
2, 30240, Note_on_c, 0, 43, 95
2, 30360, Note_off_c, 0, 43, 95
2, 30480, Note_on_c, 0, 42, 95
2, 30600, Note_off_c, 0, 42, 95
2, 30720, Note_on_c, 0, 40, 95
2, 30840, Note_off_c, 0, 40, 95
2, 30960, Note_on_c, 0, 43, 95
2, 31080, Note_off_c, 0, 43, 95
2, 31200, Note_on_c, 0, 42, 95
2, 31320, Note_off_c, 0, 42, 95
2, 31440, Note_on_c, 0, 40, 95
2, 31560, Note_off_c, 0, 40, 95
2, 31680, Note_on_c, 0, 47, 95
2, 31800, Note_off_c, 0, 47, 95
2, 31920, Note_on_c, 0, 45, 95
2, 32040, Note_off_c, 0, 45, 95
2, 32160, Note_on_c, 0, 43, 95
2, 32280, Note_off_c, 0, 43, 95
2, 32400, Note_on_c, 0, 42, 95
2, 32520, Note_off_c, 0, 42, 95
2, 32640, Note_on_c, 0, 40, 95
2, 32760, Note_off_c, 0, 40, 95
2, 32880, Note_on_c, 0, 43, 95
2, 33000, Note_off_c, 0, 43, 95
2, 33120, Note_on_c, 0, 42, 95
2, 33240, Note_off_c, 0, 42, 95
2, 33360, Note_on_c, 0, 40, 95
2, 33480, Note_off_c, 0, 40, 95
2, 33600, Note_on_c, 0, 47, 95
2, 33720, Note_off_c, 0, 47, 95
2, 33840, Note_on_c, 0, 45, 95
2, 33960, Note_off_c, 0, 45, 95
2, 34080, Note_on_c, 0, 43, 95
2, 34200, Note_off_c, 0, 43, 95
2, 34320, Note_on_c, 0, 42, 95
2, 34440, Note_off_c, 0, 42, 95
2, 34560, Note_on_c, 0, 40, 95
2, 34680, Note_off_c, 0, 40, 95
2, 34800, Note_on_c, 0, 43, 95
2, 34920, Note_off_c, 0, 43, 95
2, 35040, Note_on_c, 0, 42, 95
2, 35160, Note_off_c, 0, 42, 95
2, 35280, Note_on_c, 0, 40, 95
2, 35400, Note_off_c, 0, 40, 95
2, 35520, Note_on_c, 0, 47, 95
2, 35640, Note_off_c, 0, 47, 95
2, 35760, Note_on_c, 0, 45, 95
2, 35880, Note_off_c, 0, 45, 95
2, 36000, Note_on_c, 0, 43, 95
2, 36120, Note_off_c, 0, 43, 95
2, 36240, Note_on_c, 0, 42, 95
2, 36360, Note_off_c, 0, 42, 95
2, 36480, Note_on_c, 0, 40, 95
2, 36600, Note_off_c, 0, 40, 95
2, 36720, Note_on_c, 0, 43, 95
2, 36840, Note_off_c, 0, 43, 95
2, 36960, Note_on_c, 0, 42, 95
2, 37080, Note_off_c, 0, 42, 95
2, 37200, Note_on_c, 0, 40, 95
2, 37320, Note_off_c, 0, 40, 95
2, 37440, Note_on_c, 0, 47, 95
2, 37560, Note_off_c, 0, 47, 95
2, 37680, Note_on_c, 0, 45, 95
2, 37800, Note_off_c, 0, 45, 95
2, 37920, Note_on_c, 0, 43, 95
2, 38040, Note_off_c, 0, 43, 95
2, 38160, Note_on_c, 0, 42, 95
2, 38280, Note_off_c, 0, 42, 95
2, 38400, Note_on_c, 0, 40, 95
2, 38520, Note_off_c, 0, 40, 95
2, 38640, Note_on_c, 0, 43, 95
2, 38760, Note_off_c, 0, 43, 95
2, 38880, Note_on_c, 0, 42, 95
2, 39000, Note_off_c, 0, 42, 95
2, 39120, Note_on_c, 0, 40, 95
2, 39240, Note_off_c, 0, 40, 95
2, 39360, Note_on_c, 0, 47, 95
2, 39480, Note_off_c, 0, 47, 95
2, 39600, Note_on_c, 0, 45, 95
2, 39720, Note_off_c, 0, 45, 95
2, 39840, Note_on_c, 0, 43, 95
2, 39960, Note_off_c, 0, 43, 95
2, 40080, Note_on_c, 0, 42, 95
2, 40200, Note_off_c, 0, 42, 95
2, 40320, Note_on_c, 0, 40, 95
2, 40440, Note_off_c, 0, 40, 95
2, 40560, Note_on_c, 0, 43, 95
2, 40680, Note_off_c, 0, 43, 95
2, 40800, Note_on_c, 0, 42, 95
2, 40920, Note_off_c, 0, 42, 95
2, 41040, Note_on_c, 0, 40, 95
2, 41160, Note_off_c, 0, 40, 95
2, 41280, Note_on_c, 0, 47, 95
2, 41400, Note_off_c, 0, 47, 95
2, 41520, Note_on_c, 0, 45, 95
2, 41640, Note_off_c, 0, 45, 95
2, 41760, Note_on_c, 0, 43, 95
2, 41880, Note_off_c, 0, 43, 95
2, 42000, Note_on_c, 0, 42, 95
2, 42120, Note_off_c, 0, 42, 95
2, 42240, Note_on_c, 0, 40, 95
2, 42360, Note_off_c, 0, 40, 95
2, 42480, Note_on_c, 0, 43, 95
2, 42600, Note_off_c, 0, 43, 95
2, 42720, Note_on_c, 0, 42, 95
2, 42840, Note_off_c, 0, 42, 95
2, 42960, Note_on_c, 0, 40, 95
2, 43080, Note_off_c, 0, 40, 95
2, 43200, Note_on_c, 0, 47, 95
2, 43320, Note_off_c, 0, 47, 95
2, 43440, Note_on_c, 0, 45, 95
2, 43560, Note_off_c, 0, 45, 95
2, 43680, Note_on_c, 0, 43, 95
2, 43800, Note_off_c, 0, 43, 95
2, 43920, Note_on_c, 0, 42, 95
2, 44040, Note_off_c, 0, 42, 95
2, 44160, Note_on_c, 0, 40, 95
2, 44280, Note_off_c, 0, 40, 95
2, 44400, Note_on_c, 0, 43, 95
2, 44520, Note_off_c, 0, 43, 95
2, 44640, Note_on_c, 0, 42, 95
2, 44760, Note_off_c, 0, 42, 95
2, 44880, Note_on_c, 0, 40, 95
2, 45000, Note_off_c, 0, 40, 95
2, 45120, Note_on_c, 0, 47, 95
2, 45240, Note_off_c, 0, 47, 95
2, 45360, Note_on_c, 0, 45, 95
2, 45480, Note_off_c, 0, 45, 95
2, 45600, Note_on_c, 0, 43, 95
2, 45720, Note_off_c, 0, 43, 95
2, 45840, Note_on_c, 0, 42, 95
2, 45960, Note_off_c, 0, 42, 95
2, 46080, Note_on_c, 0, 40, 95
2, 46200, Note_off_c, 0, 40, 95
2, 46320, Note_on_c, 0, 43, 95
2, 46440, Note_off_c, 0, 43, 95
2, 46560, Note_on_c, 0, 42, 95
2, 46680, Note_off_c, 0, 42, 95
2, 46800, Note_on_c, 0, 40, 95
2, 46920, Note_off_c, 0, 40, 95
2, 47040, Note_on_c, 0, 47, 95
2, 47160, Note_off_c, 0, 47, 95
2, 47280, Note_on_c, 0, 45, 95
2, 47400, Note_off_c, 0, 45, 95
2, 47520, Note_on_c, 0, 43, 95
2, 47640, Note_off_c, 0, 43, 95
2, 47760, Note_on_c, 0, 42, 95
2, 47880, Note_off_c, 0, 42, 95
2, 48000, Note_on_c, 0, 40, 95
2, 48120, Note_off_c, 0, 40, 95
2, 48240, Note_on_c, 0, 43, 95
2, 48360, Note_off_c, 0, 43, 95
2, 48480, Note_on_c, 0, 42, 95
2, 48600, Note_off_c, 0, 42, 95
2, 48720, Note_on_c, 0, 40, 95
2, 48840, Note_off_c, 0, 40, 95
2, 48960, Note_on_c, 0, 47, 95
2, 49080, Note_off_c, 0, 47, 95
2, 49200, Note_on_c, 0, 45, 95
2, 49320, Note_off_c, 0, 45, 95
2, 49440, Note_on_c, 0, 43, 95
2, 49560, Note_off_c, 0, 43, 95
2, 49680, Note_on_c, 0, 42, 95
2, 49800, Note_off_c, 0, 42, 95
2, 49920, Note_on_c, 0, 40, 95
2, 50040, Note_off_c, 0, 40, 95
2, 50160, Note_on_c, 0, 43, 95
2, 50280, Note_off_c, 0, 43, 95
2, 50400, Note_on_c, 0, 42, 95
2, 50520, Note_off_c, 0, 42, 95
2, 50640, Note_on_c, 0, 40, 95
2, 50760, Note_off_c, 0, 40, 95
2, 50880, Note_on_c, 0, 47, 95
2, 51000, Note_off_c, 0, 47, 95
2, 51120, Note_on_c, 0, 45, 95
2, 51240, Note_off_c, 0, 45, 95
2, 51360, Note_on_c, 0, 43, 95
2, 51480, Note_off_c, 0, 43, 95
2, 51600, Note_on_c, 0, 42, 95
2, 51720, Note_off_c, 0, 42, 95
2, 51840, Note_on_c, 0, 40, 95
2, 51960, Note_off_c, 0, 40, 95
2, 52080, Note_on_c, 0, 43, 95
2, 52200, Note_off_c, 0, 43, 95
2, 52320, Note_on_c, 0, 42, 95
2, 52440, Note_off_c, 0, 42, 95
2, 52560, Note_on_c, 0, 40, 95
2, 52680, Note_off_c, 0, 40, 95
2, 52800, Note_on_c, 0, 47, 95
2, 52920, Note_off_c, 0, 47, 95
2, 53040, Note_on_c, 0, 45, 95
2, 53160, Note_off_c, 0, 45, 95
2, 53280, Note_on_c, 0, 43, 95
2, 53400, Note_off_c, 0, 43, 95
2, 53520, Note_on_c, 0, 42, 95
2, 53640, Note_off_c, 0, 42, 95
2, 53760, Note_on_c, 0, 40, 95
2, 53880, Note_off_c, 0, 40, 95
2, 54000, Note_on_c, 0, 43, 95
2, 54120, Note_off_c, 0, 43, 95
2, 54240, Note_on_c, 0, 42, 95
2, 54360, Note_off_c, 0, 42, 95
2, 54480, Note_on_c, 0, 40, 95
2, 54600, Note_off_c, 0, 40, 95
2, 54720, Note_on_c, 0, 47, 95
2, 54840, Note_off_c, 0, 47, 95
2, 54960, Note_on_c, 0, 45, 95
2, 55080, Note_off_c, 0, 45, 95
2, 55200, Note_on_c, 0, 43, 95
2, 55320, Note_off_c, 0, 43, 95
2, 55440, Note_on_c, 0, 42, 95
2, 55560, Note_off_c, 0, 42, 95
2, 55680, Note_on_c, 0, 40, 95
2, 55800, Note_off_c, 0, 40, 95
2, 55920, Note_on_c, 0, 43, 95
2, 56040, Note_off_c, 0, 43, 95
2, 56160, Note_on_c, 0, 42, 95
2, 56280, Note_off_c, 0, 42, 95
2, 56400, Note_on_c, 0, 40, 95
2, 56520, Note_off_c, 0, 40, 95
2, 56640, Note_on_c, 0, 47, 95
2, 56760, Note_off_c, 0, 47, 95
2, 56880, Note_on_c, 0, 45, 95
2, 57000, Note_off_c, 0, 45, 95
2, 57120, Note_on_c, 0, 43, 95
2, 57240, Note_off_c, 0, 43, 95
2, 57360, Note_on_c, 0, 42, 95
2, 57480, Note_off_c, 0, 42, 95
2, 57600, Note_on_c, 0, 40, 95
2, 57720, Note_off_c, 0, 40, 95
2, 57840, Note_on_c, 0, 43, 95
2, 57960, Note_off_c, 0, 43, 95
2, 58080, Note_on_c, 0, 42, 95
2, 58200, Note_off_c, 0, 42, 95
2, 58320, Note_on_c, 0, 40, 95
2, 58440, Note_off_c, 0, 40, 95
2, 58560, Note_on_c, 0, 47, 95
2, 58680, Note_off_c, 0, 47, 95
2, 58800, Note_on_c, 0, 45, 95
2, 58920, Note_off_c, 0, 45, 95
2, 59040, Note_on_c, 0, 43, 95
2, 59160, Note_off_c, 0, 43, 95
2, 59280, Note_on_c, 0, 42, 95
2, 59400, Note_off_c, 0, 42, 95
2, 59520, Note_on_c, 0, 40, 95
2, 59640, Note_off_c, 0, 40, 95
2, 59760, Note_on_c, 0, 43, 95
2, 59880, Note_off_c, 0, 43, 95
2, 60000, Note_on_c, 0, 42, 95
2, 60120, Note_off_c, 0, 42, 95
2, 60240, Note_on_c, 0, 40, 95
2, 60360, Note_off_c, 0, 40, 95
2, 60480, Note_on_c, 0, 47, 95
2, 60600, Note_off_c, 0, 47, 95
2, 60720, Note_on_c, 0, 45, 95
2, 60840, Note_off_c, 0, 45, 95
2, 60960, Note_on_c, 0, 43, 95
2, 61080, Note_off_c, 0, 43, 95
2, 61200, Note_on_c, 0, 42, 95
2, 61320, Note_off_c, 0, 42, 95
2, 122880, Note_on_c, 0, 40, 95
2, 123000, Note_off_c, 0, 40, 95
2, 123120, Note_on_c, 0, 43, 95
2, 123240, Note_off_c, 0, 43, 95
2, 123360, Note_on_c, 0, 42, 95
2, 123480, Note_off_c, 0, 42, 95
2, 123600, Note_on_c, 0, 40, 95
2, 123720, Note_off_c, 0, 40, 95
2, 123840, Note_on_c, 0, 47, 95
2, 123960, Note_off_c, 0, 47, 95
2, 124080, Note_on_c, 0, 45, 95
2, 124200, Note_off_c, 0, 45, 95
2, 124320, Note_on_c, 0, 43, 95
2, 124440, Note_off_c, 0, 43, 95
2, 124560, Note_on_c, 0, 42, 95
2, 124680, Note_off_c, 0, 42, 95
2, 124800, Note_on_c, 0, 40, 95
2, 124920, Note_off_c, 0, 40, 95
2, 125040, Note_on_c, 0, 43, 95
2, 125160, Note_off_c, 0, 43, 95
2, 125280, Note_on_c, 0, 42, 95
2, 125400, Note_off_c, 0, 42, 95
2, 125520, Note_on_c, 0, 40, 95
2, 125640, Note_off_c, 0, 40, 95
2, 125760, Note_on_c, 0, 47, 95
2, 125880, Note_off_c, 0, 47, 95
2, 126000, Note_on_c, 0, 45, 95
2, 126120, Note_off_c, 0, 45, 95
2, 126240, Note_on_c, 0, 43, 95
2, 126360, Note_off_c, 0, 43, 95
2, 126480, Note_on_c, 0, 42, 95
2, 126600, Note_off_c, 0, 42, 95
2, 126720, Note_on_c, 0, 40, 95
2, 126840, Note_off_c, 0, 40, 95
2, 126960, Note_on_c, 0, 43, 95
2, 127080, Note_off_c, 0, 43, 95
2, 127200, Note_on_c, 0, 42, 95
2, 127320, Note_off_c, 0, 42, 95
2, 127440, Note_on_c, 0, 40, 95
2, 127560, Note_off_c, 0, 40, 95
2, 127680, Note_on_c, 0, 47, 95
2, 127800, Note_off_c, 0, 47, 95
2, 127920, Note_on_c, 0, 45, 95
2, 128040, Note_off_c, 0, 45, 95
2, 128160, Note_on_c, 0, 43, 95
2, 128280, Note_off_c, 0, 43, 95
2, 128400, Note_on_c, 0, 42, 95
2, 128520, Note_off_c, 0, 42, 95
2, 128640, Note_on_c, 0, 40, 95
2, 128760, Note_off_c, 0, 40, 95
2, 128880, Note_on_c, 0, 43, 95
2, 129000, Note_off_c, 0, 43, 95
2, 129120, Note_on_c, 0, 42, 95
2, 129240, Note_off_c, 0, 42, 95
2, 129360, Note_on_c, 0, 40, 95
2, 129480, Note_off_c, 0, 40, 95
2, 129600, Note_on_c, 0, 47, 95
2, 129720, Note_off_c, 0, 47, 95
2, 129840, Note_on_c, 0, 45, 95
2, 129960, Note_off_c, 0, 45, 95
2, 130080, Note_on_c, 0, 43, 95
2, 130200, Note_off_c, 0, 43, 95
2, 130320, Note_on_c, 0, 42, 95
2, 130440, Note_off_c, 0, 42, 95
2, 130560, Note_on_c, 0, 40, 95
2, 130680, Note_off_c, 0, 40, 95
2, 130800, Note_on_c, 0, 43, 95
2, 130920, Note_off_c, 0, 43, 95
2, 131040, Note_on_c, 0, 42, 95
2, 131160, Note_off_c, 0, 42, 95
2, 131280, Note_on_c, 0, 40, 95
2, 131400, Note_off_c, 0, 40, 95
2, 131520, Note_on_c, 0, 47, 95
2, 131640, Note_off_c, 0, 47, 95
2, 131760, Note_on_c, 0, 45, 95
2, 131880, Note_off_c, 0, 45, 95
2, 132000, Note_on_c, 0, 43, 95
2, 132120, Note_off_c, 0, 43, 95
2, 132240, Note_on_c, 0, 42, 95
2, 132360, Note_off_c, 0, 42, 95
2, 132480, Note_on_c, 0, 40, 95
2, 132600, Note_off_c, 0, 40, 95
2, 132720, Note_on_c, 0, 43, 95
2, 132840, Note_off_c, 0, 43, 95
2, 132960, Note_on_c, 0, 42, 95
2, 133080, Note_off_c, 0, 42, 95
2, 133200, Note_on_c, 0, 40, 95
2, 133320, Note_off_c, 0, 40, 95
2, 133440, Note_on_c, 0, 47, 95
2, 133560, Note_off_c, 0, 47, 95
2, 133680, Note_on_c, 0, 45, 95
2, 133800, Note_off_c, 0, 45, 95
2, 133920, Note_on_c, 0, 43, 95
2, 134040, Note_off_c, 0, 43, 95
2, 134160, Note_on_c, 0, 42, 95
2, 134280, Note_off_c, 0, 42, 95
2, 138240, Note_on_c, 0, 40, 95
2, 138360, Note_off_c, 0, 40, 95
2, 138480, Note_on_c, 0, 43, 95
2, 138600, Note_off_c, 0, 43, 95
2, 138720, Note_on_c, 0, 42, 95
2, 138840, Note_off_c, 0, 42, 95
2, 138960, Note_on_c, 0, 40, 95
2, 139080, Note_off_c, 0, 40, 95
2, 139200, Note_on_c, 0, 47, 95
2, 139320, Note_off_c, 0, 47, 95
2, 139440, Note_on_c, 0, 45, 95
2, 139560, Note_off_c, 0, 45, 95
2, 139680, Note_on_c, 0, 43, 95
2, 139800, Note_off_c, 0, 43, 95
2, 139920, Note_on_c, 0, 42, 95
2, 140040, Note_off_c, 0, 42, 95
2, 140160, Note_on_c, 0, 40, 95
2, 140280, Note_off_c, 0, 40, 95
2, 140400, Note_on_c, 0, 43, 95
2, 140520, Note_off_c, 0, 43, 95
2, 140640, Note_on_c, 0, 42, 95
2, 140760, Note_off_c, 0, 42, 95
2, 140880, Note_on_c, 0, 40, 95
2, 141000, Note_off_c, 0, 40, 95
2, 141120, Note_on_c, 0, 47, 95
2, 141240, Note_off_c, 0, 47, 95
2, 141360, Note_on_c, 0, 45, 95
2, 141480, Note_off_c, 0, 45, 95
2, 141600, Note_on_c, 0, 43, 95
2, 141720, Note_off_c, 0, 43, 95
2, 141840, Note_on_c, 0, 42, 95
2, 141960, Note_off_c, 0, 42, 95
2, 142080, Note_on_c, 0, 40, 95
2, 142200, Note_off_c, 0, 40, 95
2, 142320, Note_on_c, 0, 43, 95
2, 142440, Note_off_c, 0, 43, 95
2, 142560, Note_on_c, 0, 42, 95
2, 142680, Note_off_c, 0, 42, 95
2, 142800, Note_on_c, 0, 40, 95
2, 142920, Note_off_c, 0, 40, 95
2, 143040, Note_on_c, 0, 47, 95
2, 143160, Note_off_c, 0, 47, 95
2, 143280, Note_on_c, 0, 45, 95
2, 143400, Note_off_c, 0, 45, 95
2, 143520, Note_on_c, 0, 43, 95
2, 143640, Note_off_c, 0, 43, 95
2, 143760, Note_on_c, 0, 42, 95
2, 143880, Note_off_c, 0, 42, 95
2, 144000, Note_on_c, 0, 40, 95
2, 144120, Note_off_c, 0, 40, 95
2, 144240, Note_on_c, 0, 43, 95
2, 144360, Note_off_c, 0, 43, 95
2, 144480, Note_on_c, 0, 42, 95
2, 144600, Note_off_c, 0, 42, 95
2, 144720, Note_on_c, 0, 40, 95
2, 144840, Note_off_c, 0, 40, 95
2, 144960, Note_on_c, 0, 47, 95
2, 145080, Note_off_c, 0, 47, 95
2, 145200, Note_on_c, 0, 45, 95
2, 145320, Note_off_c, 0, 45, 95
2, 145440, Note_on_c, 0, 43, 95
2, 145560, Note_off_c, 0, 43, 95
2, 145680, Note_on_c, 0, 42, 95
2, 145800, Note_off_c, 0, 42, 95
2, 145920, Note_on_c, 0, 40, 95
2, 146040, Note_off_c, 0, 40, 95
2, 146160, Note_on_c, 0, 43, 95
2, 146280, Note_off_c, 0, 43, 95
2, 146400, Note_on_c, 0, 42, 95
2, 146520, Note_off_c, 0, 42, 95
2, 146640, Note_on_c, 0, 40, 95
2, 146760, Note_off_c, 0, 40, 95
2, 146880, Note_on_c, 0, 47, 95
2, 147000, Note_off_c, 0, 47, 95
2, 147120, Note_on_c, 0, 45, 95
2, 147240, Note_off_c, 0, 45, 95
2, 147360, Note_on_c, 0, 43, 95
2, 147480, Note_off_c, 0, 43, 95
2, 147600, Note_on_c, 0, 42, 95
2, 147720, Note_off_c, 0, 42, 95
2, 147840, Note_on_c, 0, 40, 95
2, 147960, Note_off_c, 0, 40, 95
2, 148080, Note_on_c, 0, 43, 95
2, 148200, Note_off_c, 0, 43, 95
2, 148320, Note_on_c, 0, 42, 95
2, 148440, Note_off_c, 0, 42, 95
2, 148560, Note_on_c, 0, 40, 95
2, 148680, Note_off_c, 0, 40, 95
2, 148800, Note_on_c, 0, 47, 95
2, 148920, Note_off_c, 0, 47, 95
2, 149040, Note_on_c, 0, 45, 95
2, 149160, Note_off_c, 0, 45, 95
2, 149280, Note_on_c, 0, 43, 95
2, 149400, Note_off_c, 0, 43, 95
2, 149520, Note_on_c, 0, 42, 95
2, 149640, Note_off_c, 0, 42, 95
2, 153600, Note_on_c, 0, 40, 95
2, 153720, Note_off_c, 0, 40, 95
2, 153840, Note_on_c, 0, 43, 95
2, 153960, Note_off_c, 0, 43, 95
2, 154080, Note_on_c, 0, 42, 95
2, 154200, Note_off_c, 0, 42, 95
2, 154320, Note_on_c, 0, 40, 95
2, 154440, Note_off_c, 0, 40, 95
2, 154560, Note_on_c, 0, 47, 95
2, 154680, Note_off_c, 0, 47, 95
2, 154800, Note_on_c, 0, 45, 95
2, 154920, Note_off_c, 0, 45, 95
2, 155040, Note_on_c, 0, 43, 95
2, 155160, Note_off_c, 0, 43, 95
2, 155280, Note_on_c, 0, 42, 95
2, 155400, Note_off_c, 0, 42, 95
2, 155520, Note_on_c, 0, 40, 95
2, 155640, Note_off_c, 0, 40, 95
2, 155760, Note_on_c, 0, 43, 95
2, 155880, Note_off_c, 0, 43, 95
2, 156000, Note_on_c, 0, 42, 95
2, 156120, Note_off_c, 0, 42, 95
2, 156240, Note_on_c, 0, 40, 95
2, 156360, Note_off_c, 0, 40, 95
2, 156480, Note_on_c, 0, 47, 95
2, 156600, Note_off_c, 0, 47, 95
2, 156720, Note_on_c, 0, 45, 95
2, 156840, Note_off_c, 0, 45, 95
2, 156960, Note_on_c, 0, 43, 95
2, 157080, Note_off_c, 0, 43, 95
2, 157200, Note_on_c, 0, 42, 95
2, 157320, Note_off_c, 0, 42, 95
2, 157440, Note_on_c, 0, 40, 95
2, 157560, Note_off_c, 0, 40, 95
2, 157680, Note_on_c, 0, 43, 95
2, 157800, Note_off_c, 0, 43, 95
2, 157920, Note_on_c, 0, 42, 95
2, 158040, Note_off_c, 0, 42, 95
2, 158160, Note_on_c, 0, 40, 95
2, 158280, Note_off_c, 0, 40, 95
2, 158400, Note_on_c, 0, 47, 95
2, 158520, Note_off_c, 0, 47, 95
2, 158640, Note_on_c, 0, 45, 95
2, 158760, Note_off_c, 0, 45, 95
2, 158880, Note_on_c, 0, 43, 95
2, 159000, Note_off_c, 0, 43, 95
2, 159120, Note_on_c, 0, 42, 95
2, 159240, Note_off_c, 0, 42, 95
2, 159360, Note_on_c, 0, 40, 95
2, 159480, Note_off_c, 0, 40, 95
2, 159600, Note_on_c, 0, 43, 95
2, 159720, Note_off_c, 0, 43, 95
2, 159840, Note_on_c, 0, 42, 95
2, 159960, Note_off_c, 0, 42, 95
2, 160080, Note_on_c, 0, 40, 95
2, 160200, Note_off_c, 0, 40, 95
2, 160320, Note_on_c, 0, 47, 95
2, 160440, Note_off_c, 0, 47, 95
2, 160560, Note_on_c, 0, 45, 95
2, 160680, Note_off_c, 0, 45, 95
2, 160800, Note_on_c, 0, 43, 95
2, 160920, Note_off_c, 0, 43, 95
2, 161040, Note_on_c, 0, 42, 95
2, 161160, Note_off_c, 0, 42, 95
2, 161280, Note_on_c, 0, 40, 95
2, 161400, Note_off_c, 0, 40, 95
2, 161520, Note_on_c, 0, 43, 95
2, 161640, Note_off_c, 0, 43, 95
2, 161760, Note_on_c, 0, 42, 95
2, 161880, Note_off_c, 0, 42, 95
2, 162000, Note_on_c, 0, 40, 95
2, 162120, Note_off_c, 0, 40, 95
2, 162240, Note_on_c, 0, 47, 95
2, 162360, Note_off_c, 0, 47, 95
2, 162480, Note_on_c, 0, 45, 95
2, 162600, Note_off_c, 0, 45, 95
2, 162720, Note_on_c, 0, 43, 95
2, 162840, Note_off_c, 0, 43, 95
2, 162960, Note_on_c, 0, 42, 95
2, 163080, Note_off_c, 0, 42, 95
2, 163200, Note_on_c, 0, 40, 95
2, 163320, Note_off_c, 0, 40, 95
2, 163440, Note_on_c, 0, 43, 95
2, 163560, Note_off_c, 0, 43, 95
2, 163680, Note_on_c, 0, 42, 95
2, 163800, Note_off_c, 0, 42, 95
2, 163920, Note_on_c, 0, 40, 95
2, 164040, Note_off_c, 0, 40, 95
2, 164160, Note_on_c, 0, 47, 95
2, 164280, Note_off_c, 0, 47, 95
2, 164400, Note_on_c, 0, 45, 95
2, 164520, Note_off_c, 0, 45, 95
2, 164640, Note_on_c, 0, 43, 95
2, 164760, Note_off_c, 0, 43, 95
2, 164880, Note_on_c, 0, 42, 95
2, 165000, Note_off_c, 0, 42, 95
2, 165120, Note_on_c, 0, 40, 95
2, 165240, Note_off_c, 0, 40, 95
2, 165360, Note_on_c, 0, 43, 95
2, 165480, Note_off_c, 0, 43, 95
2, 165600, Note_on_c, 0, 42, 95
2, 165720, Note_off_c, 0, 42, 95
2, 165840, Note_on_c, 0, 40, 95
2, 165960, Note_off_c, 0, 40, 95
2, 166080, Note_on_c, 0, 47, 95
2, 166200, Note_off_c, 0, 47, 95
2, 166320, Note_on_c, 0, 45, 95
2, 166440, Note_off_c, 0, 45, 95
2, 166560, Note_on_c, 0, 43, 95
2, 166680, Note_off_c, 0, 43, 95
2, 166800, Note_on_c, 0, 42, 95
2, 166920, Note_off_c, 0, 42, 95
2, 167040, Note_on_c, 0, 40, 95
2, 167160, Note_off_c, 0, 40, 95
2, 167280, Note_on_c, 0, 43, 95
2, 167400, Note_off_c, 0, 43, 95
2, 167520, Note_on_c, 0, 42, 95
2, 167640, Note_off_c, 0, 42, 95
2, 167760, Note_on_c, 0, 40, 95
2, 167880, Note_off_c, 0, 40, 95
2, 168000, Note_on_c, 0, 47, 95
2, 168120, Note_off_c, 0, 47, 95
2, 168240, Note_on_c, 0, 45, 95
2, 168360, Note_off_c, 0, 45, 95
2, 168480, Note_on_c, 0, 43, 95
2, 168600, Note_off_c, 0, 43, 95
2, 168720, Note_on_c, 0, 42, 95
2, 168840, Note_off_c, 0, 42, 95
2, 168960, Note_on_c, 0, 40, 95
2, 169080, Note_off_c, 0, 40, 95
2, 169200, Note_on_c, 0, 43, 95
2, 169320, Note_off_c, 0, 43, 95
2, 169440, Note_on_c, 0, 42, 95
2, 169560, Note_off_c, 0, 42, 95
2, 169680, Note_on_c, 0, 40, 95
2, 169800, Note_off_c, 0, 40, 95
2, 169920, Note_on_c, 0, 47, 95
2, 170040, Note_off_c, 0, 47, 95
2, 170160, Note_on_c, 0, 45, 95
2, 170280, Note_off_c, 0, 45, 95
2, 170400, Note_on_c, 0, 43, 95
2, 170520, Note_off_c, 0, 43, 95
2, 170640, Note_on_c, 0, 42, 95
2, 170760, Note_off_c, 0, 42, 95
2, 170880, Note_on_c, 0, 40, 95
2, 171000, Note_off_c, 0, 40, 95
2, 171120, Note_on_c, 0, 43, 95
2, 171240, Note_off_c, 0, 43, 95
2, 171360, Note_on_c, 0, 42, 95
2, 171480, Note_off_c, 0, 42, 95
2, 171600, Note_on_c, 0, 40, 95
2, 171720, Note_off_c, 0, 40, 95
2, 171840, Note_on_c, 0, 47, 95
2, 171960, Note_off_c, 0, 47, 95
2, 172080, Note_on_c, 0, 45, 95
2, 172200, Note_off_c, 0, 45, 95
2, 172320, Note_on_c, 0, 43, 95
2, 172440, Note_off_c, 0, 43, 95
2, 172560, Note_on_c, 0, 42, 95
2, 172680, Note_off_c, 0, 42, 95
2, 172800, Note_on_c, 0, 40, 95
2, 172920, Note_off_c, 0, 40, 95
2, 173040, Note_on_c, 0, 43, 95
2, 173160, Note_off_c, 0, 43, 95
2, 173280, Note_on_c, 0, 42, 95
2, 173400, Note_off_c, 0, 42, 95
2, 173520, Note_on_c, 0, 40, 95
2, 173640, Note_off_c, 0, 40, 95
2, 173760, Note_on_c, 0, 47, 95
2, 173880, Note_off_c, 0, 47, 95
2, 174000, Note_on_c, 0, 45, 95
2, 174120, Note_off_c, 0, 45, 95
2, 174240, Note_on_c, 0, 43, 95
2, 174360, Note_off_c, 0, 43, 95
2, 174480, Note_on_c, 0, 42, 95
2, 174600, Note_off_c, 0, 42, 95
2, 174720, Note_on_c, 0, 40, 95
2, 174840, Note_off_c, 0, 40, 95
2, 174960, Note_on_c, 0, 43, 95
2, 175080, Note_off_c, 0, 43, 95
2, 175200, Note_on_c, 0, 42, 95
2, 175320, Note_off_c, 0, 42, 95
2, 175440, Note_on_c, 0, 40, 95
2, 175560, Note_off_c, 0, 40, 95
2, 175680, Note_on_c, 0, 47, 95
2, 175800, Note_off_c, 0, 47, 95
2, 175920, Note_on_c, 0, 45, 95
2, 176040, Note_off_c, 0, 45, 95
2, 176160, Note_on_c, 0, 43, 95
2, 176280, Note_off_c, 0, 43, 95
2, 176400, Note_on_c, 0, 42, 95
2, 176520, Note_off_c, 0, 42, 95
2, 176640, Note_on_c, 0, 40, 95
2, 176760, Note_off_c, 0, 40, 95
2, 176880, Note_on_c, 0, 43, 95
2, 177000, Note_off_c, 0, 43, 95
2, 177120, Note_on_c, 0, 42, 95
2, 177240, Note_off_c, 0, 42, 95
2, 177360, Note_on_c, 0, 40, 95
2, 177480, Note_off_c, 0, 40, 95
2, 177600, Note_on_c, 0, 47, 95
2, 177720, Note_off_c, 0, 47, 95
2, 177840, Note_on_c, 0, 45, 95
2, 177960, Note_off_c, 0, 45, 95
2, 178080, Note_on_c, 0, 43, 95
2, 178200, Note_off_c, 0, 43, 95
2, 178320, Note_on_c, 0, 42, 95
2, 178440, Note_off_c, 0, 42, 95
2, 178560, Note_on_c, 0, 40, 95
2, 178680, Note_off_c, 0, 40, 95
2, 178800, Note_on_c, 0, 43, 95
2, 178920, Note_off_c, 0, 43, 95
2, 179040, Note_on_c, 0, 42, 95
2, 179160, Note_off_c, 0, 42, 95
2, 179280, Note_on_c, 0, 40, 95
2, 179400, Note_off_c, 0, 40, 95
2, 179520, Note_on_c, 0, 47, 95
2, 179640, Note_off_c, 0, 47, 95
2, 179760, Note_on_c, 0, 45, 95
2, 179880, Note_off_c, 0, 45, 95
2, 180000, Note_on_c, 0, 43, 95
2, 180120, Note_off_c, 0, 43, 95
2, 180240, Note_on_c, 0, 42, 95
2, 180360, Note_off_c, 0, 42, 95
2, 180480, Note_on_c, 0, 40, 95
2, 180600, Note_off_c, 0, 40, 95
2, 180720, Note_on_c, 0, 43, 95
2, 180840, Note_off_c, 0, 43, 95
2, 180960, Note_on_c, 0, 42, 95
2, 181080, Note_off_c, 0, 42, 95
2, 181200, Note_on_c, 0, 40, 95
2, 181320, Note_off_c, 0, 40, 95
2, 181440, Note_on_c, 0, 47, 95
2, 181560, Note_off_c, 0, 47, 95
2, 181680, Note_on_c, 0, 45, 95
2, 181800, Note_off_c, 0, 45, 95
2, 181920, Note_on_c, 0, 43, 95
2, 182040, Note_off_c, 0, 43, 95
2, 182160, Note_on_c, 0, 42, 95
2, 182280, Note_off_c, 0, 42, 95
2, 182400, Note_on_c, 0, 40, 95
2, 182520, Note_off_c, 0, 40, 95
2, 182640, Note_on_c, 0, 43, 95
2, 182760, Note_off_c, 0, 43, 95
2, 182880, Note_on_c, 0, 42, 95
2, 183000, Note_off_c, 0, 42, 95
2, 183120, Note_on_c, 0, 40, 95
2, 183240, Note_off_c, 0, 40, 95
2, 183360, Note_on_c, 0, 47, 95
2, 183480, Note_off_c, 0, 47, 95
2, 183600, Note_on_c, 0, 45, 95
2, 183720, Note_off_c, 0, 45, 95
2, 183840, Note_on_c, 0, 43, 95
2, 183960, Note_off_c, 0, 43, 95
2, 184080, Note_on_c, 0, 42, 95
2, 184200, Note_off_c, 0, 42, 95
2, 245760, Note_on_c, 0, 40, 95
2, 245880, Note_off_c, 0, 40, 95
2, 246000, Note_on_c, 0, 43, 95
2, 246120, Note_off_c, 0, 43, 95
2, 246240, Note_on_c, 0, 42, 95
2, 246360, Note_off_c, 0, 42, 95
2, 246480, Note_on_c, 0, 40, 95
2, 246600, Note_off_c, 0, 40, 95
2, 246720, Note_on_c, 0, 47, 95
2, 246840, Note_off_c, 0, 47, 95
2, 246960, Note_on_c, 0, 45, 95
2, 247080, Note_off_c, 0, 45, 95
2, 247200, Note_on_c, 0, 43, 95
2, 247320, Note_off_c, 0, 43, 95
2, 247440, Note_on_c, 0, 42, 95
2, 247560, Note_off_c, 0, 42, 95
2, 247680, Note_on_c, 0, 40, 95
2, 247800, Note_off_c, 0, 40, 95
2, 247920, Note_on_c, 0, 43, 95
2, 248040, Note_off_c, 0, 43, 95
2, 248160, Note_on_c, 0, 42, 95
2, 248280, Note_off_c, 0, 42, 95
2, 248400, Note_on_c, 0, 40, 95
2, 248520, Note_off_c, 0, 40, 95
2, 248640, Note_on_c, 0, 47, 95
2, 248760, Note_off_c, 0, 47, 95
2, 248880, Note_on_c, 0, 45, 95
2, 249000, Note_off_c, 0, 45, 95
2, 249120, Note_on_c, 0, 43, 95
2, 249240, Note_off_c, 0, 43, 95
2, 249360, Note_on_c, 0, 42, 95
2, 249480, Note_off_c, 0, 42, 95
2, 249600, Note_on_c, 0, 40, 95
2, 249720, Note_off_c, 0, 40, 95
2, 249840, Note_on_c, 0, 43, 95
2, 249960, Note_off_c, 0, 43, 95
2, 250080, Note_on_c, 0, 42, 95
2, 250200, Note_off_c, 0, 42, 95
2, 250320, Note_on_c, 0, 40, 95
2, 250440, Note_off_c, 0, 40, 95
2, 250560, Note_on_c, 0, 47, 95
2, 250680, Note_off_c, 0, 47, 95
2, 250800, Note_on_c, 0, 45, 95
2, 250920, Note_off_c, 0, 45, 95
2, 251040, Note_on_c, 0, 43, 95
2, 251160, Note_off_c, 0, 43, 95
2, 251280, Note_on_c, 0, 42, 95
2, 251400, Note_off_c, 0, 42, 95
2, 251520, Note_on_c, 0, 40, 95
2, 251640, Note_off_c, 0, 40, 95
2, 251760, Note_on_c, 0, 43, 95
2, 251880, Note_off_c, 0, 43, 95
2, 252000, Note_on_c, 0, 42, 95
2, 252120, Note_off_c, 0, 42, 95
2, 252240, Note_on_c, 0, 40, 95
2, 252360, Note_off_c, 0, 40, 95
2, 252480, Note_on_c, 0, 47, 95
2, 252600, Note_off_c, 0, 47, 95
2, 252720, Note_on_c, 0, 45, 95
2, 252840, Note_off_c, 0, 45, 95
2, 252960, Note_on_c, 0, 43, 95
2, 253080, Note_off_c, 0, 43, 95
2, 253200, Note_on_c, 0, 42, 95
2, 253320, Note_off_c, 0, 42, 95
2, 253440, Note_on_c, 0, 40, 95
2, 253560, Note_off_c, 0, 40, 95
2, 253680, Note_on_c, 0, 43, 95
2, 253800, Note_off_c, 0, 43, 95
2, 253920, Note_on_c, 0, 42, 95
2, 254040, Note_off_c, 0, 42, 95
2, 254160, Note_on_c, 0, 40, 95
2, 254280, Note_off_c, 0, 40, 95
2, 254400, Note_on_c, 0, 47, 95
2, 254520, Note_off_c, 0, 47, 95
2, 254640, Note_on_c, 0, 45, 95
2, 254760, Note_off_c, 0, 45, 95
2, 254880, Note_on_c, 0, 43, 95
2, 255000, Note_off_c, 0, 43, 95
2, 255120, Note_on_c, 0, 42, 95
2, 255240, Note_off_c, 0, 42, 95
2, 255360, Note_on_c, 0, 40, 95
2, 255480, Note_off_c, 0, 40, 95
2, 255600, Note_on_c, 0, 43, 95
2, 255720, Note_off_c, 0, 43, 95
2, 255840, Note_on_c, 0, 42, 95
2, 255960, Note_off_c, 0, 42, 95
2, 256080, Note_on_c, 0, 40, 95
2, 256200, Note_off_c, 0, 40, 95
2, 256320, Note_on_c, 0, 47, 95
2, 256440, Note_off_c, 0, 47, 95
2, 256560, Note_on_c, 0, 45, 95
2, 256680, Note_off_c, 0, 45, 95
2, 256800, Note_on_c, 0, 43, 95
2, 256920, Note_off_c, 0, 43, 95
2, 257040, Note_on_c, 0, 42, 95
2, 257160, Note_off_c, 0, 42, 95
2, 261120, Note_on_c, 0, 40, 95
2, 261240, Note_off_c, 0, 40, 95
2, 261360, Note_on_c, 0, 43, 95
2, 261480, Note_off_c, 0, 43, 95
2, 261600, Note_on_c, 0, 42, 95
2, 261720, Note_off_c, 0, 42, 95
2, 261840, Note_on_c, 0, 40, 95
2, 261960, Note_off_c, 0, 40, 95
2, 262080, Note_on_c, 0, 47, 95
2, 262200, Note_off_c, 0, 47, 95
2, 262320, Note_on_c, 0, 45, 95
2, 262440, Note_off_c, 0, 45, 95
2, 262560, Note_on_c, 0, 43, 95
2, 262680, Note_off_c, 0, 43, 95
2, 262800, Note_on_c, 0, 42, 95
2, 262920, Note_off_c, 0, 42, 95
2, 263040, Note_on_c, 0, 40, 95
2, 263160, Note_off_c, 0, 40, 95
2, 263280, Note_on_c, 0, 43, 95
2, 263400, Note_off_c, 0, 43, 95
2, 263520, Note_on_c, 0, 42, 95
2, 263640, Note_off_c, 0, 42, 95
2, 263760, Note_on_c, 0, 40, 95
2, 263880, Note_off_c, 0, 40, 95
2, 264000, Note_on_c, 0, 47, 95
2, 264120, Note_off_c, 0, 47, 95
2, 264240, Note_on_c, 0, 45, 95
2, 264360, Note_off_c, 0, 45, 95
2, 264480, Note_on_c, 0, 43, 95
2, 264600, Note_off_c, 0, 43, 95
2, 264720, Note_on_c, 0, 42, 95
2, 264840, Note_off_c, 0, 42, 95
2, 264960, Note_on_c, 0, 40, 95
2, 265080, Note_off_c, 0, 40, 95
2, 265200, Note_on_c, 0, 43, 95
2, 265320, Note_off_c, 0, 43, 95
2, 265440, Note_on_c, 0, 42, 95
2, 265560, Note_off_c, 0, 42, 95
2, 265680, Note_on_c, 0, 40, 95
2, 265800, Note_off_c, 0, 40, 95
2, 265920, Note_on_c, 0, 47, 95
2, 266040, Note_off_c, 0, 47, 95
2, 266160, Note_on_c, 0, 45, 95
2, 266280, Note_off_c, 0, 45, 95
2, 266400, Note_on_c, 0, 43, 95
2, 266520, Note_off_c, 0, 43, 95
2, 266640, Note_on_c, 0, 42, 95
2, 266760, Note_off_c, 0, 42, 95
2, 266880, Note_on_c, 0, 40, 95
2, 267000, Note_off_c, 0, 40, 95
2, 267120, Note_on_c, 0, 43, 95
2, 267240, Note_off_c, 0, 43, 95
2, 267360, Note_on_c, 0, 42, 95
2, 267480, Note_off_c, 0, 42, 95
2, 267600, Note_on_c, 0, 40, 95
2, 267720, Note_off_c, 0, 40, 95
2, 267840, Note_on_c, 0, 47, 95
2, 267960, Note_off_c, 0, 47, 95
2, 268080, Note_on_c, 0, 45, 95
2, 268200, Note_off_c, 0, 45, 95
2, 268320, Note_on_c, 0, 43, 95
2, 268440, Note_off_c, 0, 43, 95
2, 268560, Note_on_c, 0, 42, 95
2, 268680, Note_off_c, 0, 42, 95
2, 268800, Note_on_c, 0, 40, 95
2, 268920, Note_off_c, 0, 40, 95
2, 269040, Note_on_c, 0, 43, 95
2, 269160, Note_off_c, 0, 43, 95
2, 269280, Note_on_c, 0, 42, 95
2, 269400, Note_off_c, 0, 42, 95
2, 269520, Note_on_c, 0, 40, 95
2, 269640, Note_off_c, 0, 40, 95
2, 269760, Note_on_c, 0, 47, 95
2, 269880, Note_off_c, 0, 47, 95
2, 270000, Note_on_c, 0, 45, 95
2, 270120, Note_off_c, 0, 45, 95
2, 270240, Note_on_c, 0, 43, 95
2, 270360, Note_off_c, 0, 43, 95
2, 270480, Note_on_c, 0, 42, 95
2, 270600, Note_off_c, 0, 42, 95
2, 270720, Note_on_c, 0, 40, 95
2, 270840, Note_off_c, 0, 40, 95
2, 270960, Note_on_c, 0, 43, 95
2, 271080, Note_off_c, 0, 43, 95
2, 271200, Note_on_c, 0, 42, 95
2, 271320, Note_off_c, 0, 42, 95
2, 271440, Note_on_c, 0, 40, 95
2, 271560, Note_off_c, 0, 40, 95
2, 271680, Note_on_c, 0, 47, 95
2, 271800, Note_off_c, 0, 47, 95
2, 271920, Note_on_c, 0, 45, 95
2, 272040, Note_off_c, 0, 45, 95
2, 272160, Note_on_c, 0, 43, 95
2, 272280, Note_off_c, 0, 43, 95
2, 272400, Note_on_c, 0, 42, 95
2, 272520, Note_off_c, 0, 42, 95
2, 272520, End_track
3, 0, Start_track
3, 0, Pitch_bend_c, 2, 8192
3, 0, Control_c, 2, 7, 71
3, 0, Control_c, 2, 10, 63
3, 0, Control_c, 2, 93, 0
3, 0, Control_c, 2, 91, 0
3, 0, Control_c, 2, 95, 0
3, 0, Control_c, 2, 92, 0
3, 0, Control_c, 2, 11, 127
3, 0, Program_c, 2, 73
3, 0, Control_c, 3, 7, 71
3, 0, Control_c, 3, 10, 63
3, 0, Control_c, 3, 93, 0
3, 0, Control_c, 3, 91, 0
3, 0, Control_c, 3, 95, 0
3, 0, Control_c, 3, 92, 0
3, 0, Control_c, 3, 11, 127
3, 0, Program_c, 3, 73
3, 15360, Note_on_c, 2, 64, 95
3, 15480, Note_off_c, 2, 64, 95
3, 15600, Note_on_c, 2, 67, 95
3, 15720, Note_off_c, 2, 67, 95
3, 15840, Note_on_c, 2, 66, 95
3, 15960, Note_off_c, 2, 66, 95
3, 16080, Note_on_c, 2, 64, 95
3, 16200, Note_off_c, 2, 64, 95
3, 16320, Note_on_c, 2, 71, 95
3, 16440, Note_off_c, 2, 71, 95
3, 16560, Note_on_c, 2, 69, 95
3, 16680, Note_off_c, 2, 69, 95
3, 16800, Note_on_c, 2, 67, 95
3, 16920, Note_off_c, 2, 67, 95
3, 17040, Note_on_c, 2, 66, 95
3, 17160, Note_off_c, 2, 66, 95
3, 17280, Note_on_c, 2, 64, 95
3, 17400, Note_off_c, 2, 64, 95
3, 17520, Note_on_c, 2, 67, 95
3, 17640, Note_off_c, 2, 67, 95
3, 17760, Note_on_c, 2, 66, 95
3, 17880, Note_off_c, 2, 66, 95
3, 18000, Note_on_c, 2, 64, 95
3, 18120, Note_off_c, 2, 64, 95
3, 18240, Note_on_c, 2, 71, 95
3, 18360, Note_off_c, 2, 71, 95
3, 18480, Note_on_c, 2, 69, 95
3, 18600, Note_off_c, 2, 69, 95
3, 18720, Note_on_c, 2, 67, 95
3, 18840, Note_off_c, 2, 67, 95
3, 18960, Note_on_c, 2, 66, 95
3, 19080, Note_off_c, 2, 66, 95
3, 19200, Note_on_c, 2, 64, 95
3, 19320, Note_off_c, 2, 64, 95
3, 19440, Note_on_c, 2, 67, 95
3, 19560, Note_off_c, 2, 67, 95
3, 19680, Note_on_c, 2, 66, 95
3, 19800, Note_off_c, 2, 66, 95
3, 19920, Note_on_c, 2, 64, 95
3, 20040, Note_off_c, 2, 64, 95
3, 20160, Note_on_c, 2, 71, 95
3, 20280, Note_off_c, 2, 71, 95
3, 20400, Note_on_c, 2, 69, 95
3, 20520, Note_off_c, 2, 69, 95
3, 20640, Note_on_c, 2, 67, 95
3, 20760, Note_off_c, 2, 67, 95
3, 20880, Note_on_c, 2, 66, 95
3, 21000, Note_off_c, 2, 66, 95
3, 21120, Note_on_c, 2, 64, 95
3, 21240, Note_off_c, 2, 64, 95
3, 21360, Note_on_c, 2, 67, 95
3, 21480, Note_off_c, 2, 67, 95
3, 21600, Note_on_c, 2, 66, 95
3, 21720, Note_off_c, 2, 66, 95
3, 21840, Note_on_c, 2, 64, 95
3, 21960, Note_off_c, 2, 64, 95
3, 22080, Note_on_c, 2, 71, 95
3, 22200, Note_off_c, 2, 71, 95
3, 22320, Note_on_c, 2, 69, 95
3, 22440, Note_off_c, 2, 69, 95
3, 22560, Note_on_c, 2, 67, 95
3, 22680, Note_off_c, 2, 67, 95
3, 22800, Note_on_c, 2, 66, 95
3, 22920, Note_off_c, 2, 66, 95
3, 23040, Note_on_c, 2, 64, 95
3, 23160, Note_off_c, 2, 64, 95
3, 23280, Note_on_c, 2, 67, 95
3, 23400, Note_off_c, 2, 67, 95
3, 23520, Note_on_c, 2, 66, 95
3, 23640, Note_off_c, 2, 66, 95
3, 23760, Note_on_c, 2, 64, 95
3, 23880, Note_off_c, 2, 64, 95
3, 24000, Note_on_c, 2, 71, 95
3, 24120, Note_off_c, 2, 71, 95
3, 24240, Note_on_c, 2, 69, 95
3, 24360, Note_off_c, 2, 69, 95
3, 24480, Note_on_c, 2, 67, 95
3, 24600, Note_off_c, 2, 67, 95
3, 24720, Note_on_c, 2, 66, 95
3, 24840, Note_off_c, 2, 66, 95
3, 24960, Note_on_c, 2, 64, 95
3, 25080, Note_off_c, 2, 64, 95
3, 25200, Note_on_c, 2, 67, 95
3, 25320, Note_off_c, 2, 67, 95
3, 25440, Note_on_c, 2, 66, 95
3, 25560, Note_off_c, 2, 66, 95
3, 25680, Note_on_c, 2, 64, 95
3, 25800, Note_off_c, 2, 64, 95
3, 25920, Note_on_c, 2, 71, 95
3, 26040, Note_off_c, 2, 71, 95
3, 26160, Note_on_c, 2, 69, 95
3, 26280, Note_off_c, 2, 69, 95
3, 26400, Note_on_c, 2, 67, 95
3, 26520, Note_off_c, 2, 67, 95
3, 26640, Note_on_c, 2, 66, 95
3, 26760, Note_off_c, 2, 66, 95
3, 26880, Note_on_c, 2, 64, 95
3, 27000, Note_off_c, 2, 64, 95
3, 27120, Note_on_c, 2, 67, 95
3, 27240, Note_off_c, 2, 67, 95
3, 27360, Note_on_c, 2, 66, 95
3, 27480, Note_off_c, 2, 66, 95
3, 27600, Note_on_c, 2, 64, 95
3, 27720, Note_off_c, 2, 64, 95
3, 27840, Note_on_c, 2, 71, 95
3, 27960, Note_off_c, 2, 71, 95
3, 28080, Note_on_c, 2, 69, 95
3, 28200, Note_off_c, 2, 69, 95
3, 28320, Note_on_c, 2, 67, 95
3, 28440, Note_off_c, 2, 67, 95
3, 28560, Note_on_c, 2, 66, 95
3, 28680, Note_off_c, 2, 66, 95
3, 28800, Note_on_c, 2, 64, 95
3, 28920, Note_off_c, 2, 64, 95
3, 29040, Note_on_c, 2, 67, 95
3, 29160, Note_off_c, 2, 67, 95
3, 29280, Note_on_c, 2, 66, 95
3, 29400, Note_off_c, 2, 66, 95
3, 29520, Note_on_c, 2, 64, 95
3, 29640, Note_off_c, 2, 64, 95
3, 29760, Note_on_c, 2, 71, 95
3, 29880, Note_off_c, 2, 71, 95
3, 30000, Note_on_c, 2, 69, 95
3, 30120, Note_off_c, 2, 69, 95
3, 30240, Note_on_c, 2, 67, 95
3, 30360, Note_off_c, 2, 67, 95
3, 30480, Note_on_c, 2, 66, 95
3, 30600, Note_off_c, 2, 66, 95
3, 30720, Note_on_c, 2, 64, 95
3, 30840, Note_off_c, 2, 64, 95
3, 30960, Note_on_c, 2, 67, 95
3, 31080, Note_off_c, 2, 67, 95
3, 31200, Note_on_c, 2, 66, 95
3, 31320, Note_off_c, 2, 66, 95
3, 31440, Note_on_c, 2, 64, 95
3, 31560, Note_off_c, 2, 64, 95
3, 31680, Note_on_c, 2, 71, 95
3, 31800, Note_off_c, 2, 71, 95
3, 31920, Note_on_c, 2, 69, 95
3, 32040, Note_off_c, 2, 69, 95
3, 32160, Note_on_c, 2, 67, 95
3, 32280, Note_off_c, 2, 67, 95
3, 32400, Note_on_c, 2, 66, 95
3, 32520, Note_off_c, 2, 66, 95
3, 32640, Note_on_c, 2, 64, 95
3, 32760, Note_off_c, 2, 64, 95
3, 32880, Note_on_c, 2, 67, 95
3, 33000, Note_off_c, 2, 67, 95
3, 33120, Note_on_c, 2, 66, 95
3, 33240, Note_off_c, 2, 66, 95
3, 33360, Note_on_c, 2, 64, 95
3, 33480, Note_off_c, 2, 64, 95
3, 33600, Note_on_c, 2, 71, 95
3, 33720, Note_off_c, 2, 71, 95
3, 33840, Note_on_c, 2, 69, 95
3, 33960, Note_off_c, 2, 69, 95
3, 34080, Note_on_c, 2, 67, 95
3, 34200, Note_off_c, 2, 67, 95
3, 34320, Note_on_c, 2, 66, 95
3, 34440, Note_off_c, 2, 66, 95
3, 34560, Note_on_c, 2, 64, 95
3, 34680, Note_off_c, 2, 64, 95
3, 34800, Note_on_c, 2, 67, 95
3, 34920, Note_off_c, 2, 67, 95
3, 35040, Note_on_c, 2, 66, 95
3, 35160, Note_off_c, 2, 66, 95
3, 35280, Note_on_c, 2, 64, 95
3, 35400, Note_off_c, 2, 64, 95
3, 35520, Note_on_c, 2, 71, 95
3, 35640, Note_off_c, 2, 71, 95
3, 35760, Note_on_c, 2, 69, 95
3, 35880, Note_off_c, 2, 69, 95
3, 36000, Note_on_c, 2, 67, 95
3, 36120, Note_off_c, 2, 67, 95
3, 36240, Note_on_c, 2, 66, 95
3, 36360, Note_off_c, 2, 66, 95
3, 36480, Note_on_c, 2, 64, 95
3, 36600, Note_off_c, 2, 64, 95
3, 36720, Note_on_c, 2, 67, 95
3, 36840, Note_off_c, 2, 67, 95
3, 36960, Note_on_c, 2, 66, 95
3, 37080, Note_off_c, 2, 66, 95
3, 37200, Note_on_c, 2, 64, 95
3, 37320, Note_off_c, 2, 64, 95
3, 37440, Note_on_c, 2, 71, 95
3, 37560, Note_off_c, 2, 71, 95
3, 37680, Note_on_c, 2, 69, 95
3, 37800, Note_off_c, 2, 69, 95
3, 37920, Note_on_c, 2, 67, 95
3, 38040, Note_off_c, 2, 67, 95
3, 38160, Note_on_c, 2, 66, 95
3, 38280, Note_off_c, 2, 66, 95
3, 38400, Note_on_c, 2, 64, 95
3, 38520, Note_off_c, 2, 64, 95
3, 38640, Note_on_c, 2, 67, 95
3, 38760, Note_off_c, 2, 67, 95
3, 38880, Note_on_c, 2, 66, 95
3, 39000, Note_off_c, 2, 66, 95
3, 39120, Note_on_c, 2, 64, 95
3, 39240, Note_off_c, 2, 64, 95
3, 39360, Note_on_c, 2, 71, 95
3, 39480, Note_off_c, 2, 71, 95
3, 39600, Note_on_c, 2, 69, 95
3, 39720, Note_off_c, 2, 69, 95
3, 39840, Note_on_c, 2, 67, 95
3, 39960, Note_off_c, 2, 67, 95
3, 40080, Note_on_c, 2, 66, 95
3, 40200, Note_off_c, 2, 66, 95
3, 40320, Note_on_c, 2, 64, 95
3, 40440, Note_off_c, 2, 64, 95
3, 40560, Note_on_c, 2, 67, 95
3, 40680, Note_off_c, 2, 67, 95
3, 40800, Note_on_c, 2, 66, 95
3, 40920, Note_off_c, 2, 66, 95
3, 41040, Note_on_c, 2, 64, 95
3, 41160, Note_off_c, 2, 64, 95
3, 41280, Note_on_c, 2, 71, 95
3, 41400, Note_off_c, 2, 71, 95
3, 41520, Note_on_c, 2, 69, 95
3, 41640, Note_off_c, 2, 69, 95
3, 41760, Note_on_c, 2, 67, 95
3, 41880, Note_off_c, 2, 67, 95
3, 42000, Note_on_c, 2, 66, 95
3, 42120, Note_off_c, 2, 66, 95
3, 42240, Note_on_c, 2, 64, 95
3, 42360, Note_off_c, 2, 64, 95
3, 42480, Note_on_c, 2, 67, 95
3, 42600, Note_off_c, 2, 67, 95
3, 42720, Note_on_c, 2, 66, 95
3, 42840, Note_off_c, 2, 66, 95
3, 42960, Note_on_c, 2, 64, 95
3, 43080, Note_off_c, 2, 64, 95
3, 43200, Note_on_c, 2, 71, 95
3, 43320, Note_off_c, 2, 71, 95
3, 43440, Note_on_c, 2, 69, 95
3, 43560, Note_off_c, 2, 69, 95
3, 43680, Note_on_c, 2, 67, 95
3, 43800, Note_off_c, 2, 67, 95
3, 43920, Note_on_c, 2, 66, 95
3, 44040, Note_off_c, 2, 66, 95
3, 44160, Note_on_c, 2, 64, 95
3, 44280, Note_off_c, 2, 64, 95
3, 44400, Note_on_c, 2, 67, 95
3, 44520, Note_off_c, 2, 67, 95
3, 44640, Note_on_c, 2, 66, 95
3, 44760, Note_off_c, 2, 66, 95
3, 44880, Note_on_c, 2, 64, 95
3, 45000, Note_off_c, 2, 64, 95
3, 45120, Note_on_c, 2, 71, 95
3, 45240, Note_off_c, 2, 71, 95
3, 45360, Note_on_c, 2, 69, 95
3, 45480, Note_off_c, 2, 69, 95
3, 45600, Note_on_c, 2, 67, 95
3, 45720, Note_off_c, 2, 67, 95
3, 45840, Note_on_c, 2, 66, 95
3, 45960, Note_off_c, 2, 66, 95
3, 46080, Note_on_c, 2, 64, 95
3, 46200, Note_off_c, 2, 64, 95
3, 46320, Note_on_c, 2, 67, 95
3, 46440, Note_off_c, 2, 67, 95
3, 46560, Note_on_c, 2, 66, 95
3, 46680, Note_off_c, 2, 66, 95
3, 46800, Note_on_c, 2, 64, 95
3, 46920, Note_off_c, 2, 64, 95
3, 47040, Note_on_c, 2, 71, 95
3, 47160, Note_off_c, 2, 71, 95
3, 47280, Note_on_c, 2, 69, 95
3, 47400, Note_off_c, 2, 69, 95
3, 47520, Note_on_c, 2, 67, 95
3, 47640, Note_off_c, 2, 67, 95
3, 47760, Note_on_c, 2, 66, 95
3, 47880, Note_off_c, 2, 66, 95
3, 48000, Note_on_c, 2, 64, 95
3, 48120, Note_off_c, 2, 64, 95
3, 48240, Note_on_c, 2, 67, 95
3, 48360, Note_off_c, 2, 67, 95
3, 48480, Note_on_c, 2, 66, 95
3, 48600, Note_off_c, 2, 66, 95
3, 48720, Note_on_c, 2, 64, 95
3, 48840, Note_off_c, 2, 64, 95
3, 48960, Note_on_c, 2, 71, 95
3, 49080, Note_off_c, 2, 71, 95
3, 49200, Note_on_c, 2, 69, 95
3, 49320, Note_off_c, 2, 69, 95
3, 49440, Note_on_c, 2, 67, 95
3, 49560, Note_off_c, 2, 67, 95
3, 49680, Note_on_c, 2, 66, 95
3, 49800, Note_off_c, 2, 66, 95
3, 49920, Note_on_c, 2, 64, 95
3, 50040, Note_off_c, 2, 64, 95
3, 50160, Note_on_c, 2, 67, 95
3, 50280, Note_off_c, 2, 67, 95
3, 50400, Note_on_c, 2, 66, 95
3, 50520, Note_off_c, 2, 66, 95
3, 50640, Note_on_c, 2, 64, 95
3, 50760, Note_off_c, 2, 64, 95
3, 50880, Note_on_c, 2, 71, 95
3, 51000, Note_off_c, 2, 71, 95
3, 51120, Note_on_c, 2, 69, 95
3, 51240, Note_off_c, 2, 69, 95
3, 51360, Note_on_c, 2, 67, 95
3, 51480, Note_off_c, 2, 67, 95
3, 51600, Note_on_c, 2, 66, 95
3, 51720, Note_off_c, 2, 66, 95
3, 51840, Note_on_c, 2, 64, 95
3, 51960, Note_off_c, 2, 64, 95
3, 52080, Note_on_c, 2, 67, 95
3, 52200, Note_off_c, 2, 67, 95
3, 52320, Note_on_c, 2, 66, 95
3, 52440, Note_off_c, 2, 66, 95
3, 52560, Note_on_c, 2, 64, 95
3, 52680, Note_off_c, 2, 64, 95
3, 52800, Note_on_c, 2, 71, 95
3, 52920, Note_off_c, 2, 71, 95
3, 53040, Note_on_c, 2, 69, 95
3, 53160, Note_off_c, 2, 69, 95
3, 53280, Note_on_c, 2, 67, 95
3, 53400, Note_off_c, 2, 67, 95
3, 53520, Note_on_c, 2, 66, 95
3, 53640, Note_off_c, 2, 66, 95
3, 53760, Note_on_c, 2, 64, 95
3, 53880, Note_off_c, 2, 64, 95
3, 54000, Note_on_c, 2, 67, 95
3, 54120, Note_off_c, 2, 67, 95
3, 54240, Note_on_c, 2, 66, 95
3, 54360, Note_off_c, 2, 66, 95
3, 54480, Note_on_c, 2, 64, 95
3, 54600, Note_off_c, 2, 64, 95
3, 54720, Note_on_c, 2, 71, 95
3, 54840, Note_off_c, 2, 71, 95
3, 54960, Note_on_c, 2, 69, 95
3, 55080, Note_off_c, 2, 69, 95
3, 55200, Note_on_c, 2, 67, 95
3, 55320, Note_off_c, 2, 67, 95
3, 55440, Note_on_c, 2, 66, 95
3, 55560, Note_off_c, 2, 66, 95
3, 55680, Note_on_c, 2, 64, 95
3, 55800, Note_off_c, 2, 64, 95
3, 55920, Note_on_c, 2, 67, 95
3, 56040, Note_off_c, 2, 67, 95
3, 56160, Note_on_c, 2, 66, 95
3, 56280, Note_off_c, 2, 66, 95
3, 56400, Note_on_c, 2, 64, 95
3, 56520, Note_off_c, 2, 64, 95
3, 56640, Note_on_c, 2, 71, 95
3, 56760, Note_off_c, 2, 71, 95
3, 56880, Note_on_c, 2, 69, 95
3, 57000, Note_off_c, 2, 69, 95
3, 57120, Note_on_c, 2, 67, 95
3, 57240, Note_off_c, 2, 67, 95
3, 57360, Note_on_c, 2, 66, 95
3, 57480, Note_off_c, 2, 66, 95
3, 57600, Note_on_c, 2, 64, 95
3, 57840, Note_off_c, 2, 64, 95
3, 57840, Note_on_c, 2, 67, 95
3, 58080, Note_off_c, 2, 67, 95
3, 58080, Note_on_c, 2, 66, 95
3, 58320, Note_off_c, 2, 66, 95
3, 58320, Pitch_bend_c, 3, 8192
3, 58320, Note_on_c, 3, 71, 95
3, 58536, Pitch_bend_c, 3, 8320
3, 58752, Pitch_bend_c, 3, 8448
3, 58968, Pitch_bend_c, 3, 8576
3, 59184, Pitch_bend_c, 3, 8704
3, 59400, Pitch_bend_c, 3, 8832
3, 59400, Pitch_bend_c, 3, 8832
3, 60480, Pitch_bend_c, 3, 8832
3, 60480, Pitch_bend_c, 3, 8192
3, 60480, Note_off_c, 3, 71, 95
3, 60480, Note_on_c, 2, 71, 95
3, 60720, Note_off_c, 2, 71, 95
3, 60720, Note_on_c, 2, 69, 95
3, 60960, Note_off_c, 2, 69, 95
3, 60960, Note_on_c, 2, 67, 95
3, 61200, Note_off_c, 2, 67, 95
3, 61200, Note_on_c, 2, 66, 95
3, 61440, Note_off_c, 2, 66, 95
3, 122880, Note_on_c, 2, 64, 95
3, 123000, Note_off_c, 2, 64, 95
3, 123120, Note_on_c, 2, 67, 95
3, 123240, Note_off_c, 2, 67, 95
3, 123360, Note_on_c, 2, 66, 95
3, 123480, Note_off_c, 2, 66, 95
3, 123600, Note_on_c, 2, 64, 95
3, 123720, Note_off_c, 2, 64, 95
3, 123840, Note_on_c, 2, 71, 95
3, 123960, Note_off_c, 2, 71, 95
3, 124080, Note_on_c, 2, 69, 95
3, 124200, Note_off_c, 2, 69, 95
3, 124320, Note_on_c, 2, 67, 95
3, 124440, Note_off_c, 2, 67, 95
3, 124560, Note_on_c, 2, 66, 95
3, 124680, Note_off_c, 2, 66, 95
3, 124800, Note_on_c, 2, 64, 95
3, 124920, Note_off_c, 2, 64, 95
3, 125040, Note_on_c, 2, 67, 95
3, 125160, Note_off_c, 2, 67, 95
3, 125280, Note_on_c, 2, 66, 95
3, 125400, Note_off_c, 2, 66, 95
3, 125520, Note_on_c, 2, 64, 95
3, 125640, Note_off_c, 2, 64, 95
3, 125760, Note_on_c, 2, 71, 95
3, 125880, Note_off_c, 2, 71, 95
3, 126000, Note_on_c, 2, 69, 95
3, 126120, Note_off_c, 2, 69, 95
3, 126240, Note_on_c, 2, 67, 95
3, 126360, Note_off_c, 2, 67, 95
3, 126480, Note_on_c, 2, 66, 95
3, 126600, Note_off_c, 2, 66, 95
3, 126720, Note_on_c, 2, 64, 95
3, 126840, Note_off_c, 2, 64, 95
3, 126960, Note_on_c, 2, 67, 95
3, 127080, Note_off_c, 2, 67, 95
3, 127200, Note_on_c, 2, 66, 95
3, 127320, Note_off_c, 2, 66, 95
3, 127440, Note_on_c, 2, 64, 95
3, 127560, Note_off_c, 2, 64, 95
3, 127680, Note_on_c, 2, 71, 95
3, 127800, Note_off_c, 2, 71, 95
3, 127920, Note_on_c, 2, 69, 95
3, 128040, Note_off_c, 2, 69, 95
3, 128160, Note_on_c, 2, 67, 95
3, 128280, Note_off_c, 2, 67, 95
3, 128400, Note_on_c, 2, 66, 95
3, 128520, Note_off_c, 2, 66, 95
3, 128640, Note_on_c, 2, 64, 95
3, 128760, Note_off_c, 2, 64, 95
3, 128880, Note_on_c, 2, 67, 95
3, 129000, Note_off_c, 2, 67, 95
3, 129120, Note_on_c, 2, 66, 95
3, 129240, Note_off_c, 2, 66, 95
3, 129360, Note_on_c, 2, 64, 95
3, 129480, Note_off_c, 2, 64, 95
3, 129600, Note_on_c, 2, 71, 95
3, 129720, Note_off_c, 2, 71, 95
3, 129840, Note_on_c, 2, 69, 95
3, 129960, Note_off_c, 2, 69, 95
3, 130080, Note_on_c, 2, 67, 95
3, 130200, Note_off_c, 2, 67, 95
3, 130320, Note_on_c, 2, 66, 95
3, 130440, Note_off_c, 2, 66, 95
3, 130560, Note_on_c, 2, 64, 95
3, 130680, Note_off_c, 2, 64, 95
3, 130800, Note_on_c, 2, 67, 95
3, 130920, Note_off_c, 2, 67, 95
3, 131040, Note_on_c, 2, 66, 95
3, 131160, Note_off_c, 2, 66, 95
3, 131280, Note_on_c, 2, 64, 95
3, 131400, Note_off_c, 2, 64, 95
3, 131520, Note_on_c, 2, 71, 95
3, 131640, Note_off_c, 2, 71, 95
3, 131760, Note_on_c, 2, 69, 95
3, 131880, Note_off_c, 2, 69, 95
3, 132000, Note_on_c, 2, 67, 95
3, 132120, Note_off_c, 2, 67, 95
3, 132240, Note_on_c, 2, 66, 95
3, 132360, Note_off_c, 2, 66, 95
3, 132480, Note_on_c, 2, 64, 95
3, 132600, Note_off_c, 2, 64, 95
3, 132720, Note_on_c, 2, 67, 95
3, 132840, Note_off_c, 2, 67, 95
3, 132960, Note_on_c, 2, 66, 95
3, 133080, Note_off_c, 2, 66, 95
3, 133200, Note_on_c, 2, 64, 95
3, 133320, Note_off_c, 2, 64, 95
3, 133440, Note_on_c, 2, 71, 95
3, 133560, Note_off_c, 2, 71, 95
3, 133680, Note_on_c, 2, 69, 95
3, 133800, Note_off_c, 2, 69, 95
3, 133920, Note_on_c, 2, 67, 95
3, 134040, Note_off_c, 2, 67, 95
3, 134160, Note_on_c, 2, 66, 95
3, 134280, Note_off_c, 2, 66, 95
3, 138240, Note_on_c, 2, 64, 95
3, 138360, Note_off_c, 2, 64, 95
3, 138480, Note_on_c, 2, 67, 95
3, 138600, Note_off_c, 2, 67, 95
3, 138720, Note_on_c, 2, 66, 95
3, 138840, Note_off_c, 2, 66, 95
3, 138960, Note_on_c, 2, 64, 95
3, 139080, Note_off_c, 2, 64, 95
3, 139200, Note_on_c, 2, 71, 95
3, 139320, Note_off_c, 2, 71, 95
3, 139440, Note_on_c, 2, 69, 95
3, 139560, Note_off_c, 2, 69, 95
3, 139680, Note_on_c, 2, 67, 95
3, 139800, Note_off_c, 2, 67, 95
3, 139920, Note_on_c, 2, 66, 95
3, 140040, Note_off_c, 2, 66, 95
3, 140160, Note_on_c, 2, 64, 95
3, 140280, Note_off_c, 2, 64, 95
3, 140400, Note_on_c, 2, 67, 95
3, 140520, Note_off_c, 2, 67, 95
3, 140640, Note_on_c, 2, 66, 95
3, 140760, Note_off_c, 2, 66, 95
3, 140880, Note_on_c, 2, 64, 95
3, 141000, Note_off_c, 2, 64, 95
3, 141120, Note_on_c, 2, 71, 95
3, 141240, Note_off_c, 2, 71, 95
3, 141360, Note_on_c, 2, 69, 95
3, 141480, Note_off_c, 2, 69, 95
3, 141600, Note_on_c, 2, 67, 95
3, 141720, Note_off_c, 2, 67, 95
3, 141840, Note_on_c, 2, 66, 95
3, 141960, Note_off_c, 2, 66, 95
3, 142080, Note_on_c, 2, 64, 95
3, 142200, Note_off_c, 2, 64, 95
3, 142320, Note_on_c, 2, 67, 95
3, 142440, Note_off_c, 2, 67, 95
3, 142560, Note_on_c, 2, 66, 95
3, 142680, Note_off_c, 2, 66, 95
3, 142800, Note_on_c, 2, 64, 95
3, 142920, Note_off_c, 2, 64, 95
3, 143040, Note_on_c, 2, 71, 95
3, 143160, Note_off_c, 2, 71, 95
3, 143280, Note_on_c, 2, 69, 95
3, 143400, Note_off_c, 2, 69, 95
3, 143520, Note_on_c, 2, 67, 95
3, 143640, Note_off_c, 2, 67, 95
3, 143760, Note_on_c, 2, 66, 95
3, 143880, Note_off_c, 2, 66, 95
3, 144000, Note_on_c, 2, 64, 95
3, 144120, Note_off_c, 2, 64, 95
3, 144240, Note_on_c, 2, 67, 95
3, 144360, Note_off_c, 2, 67, 95
3, 144480, Note_on_c, 2, 66, 95
3, 144600, Note_off_c, 2, 66, 95
3, 144720, Note_on_c, 2, 64, 95
3, 144840, Note_off_c, 2, 64, 95
3, 144960, Note_on_c, 2, 71, 95
3, 145080, Note_off_c, 2, 71, 95
3, 145200, Note_on_c, 2, 69, 95
3, 145320, Note_off_c, 2, 69, 95
3, 145440, Note_on_c, 2, 67, 95
3, 145560, Note_off_c, 2, 67, 95
3, 145680, Note_on_c, 2, 66, 95
3, 145800, Note_off_c, 2, 66, 95
3, 145920, Note_on_c, 2, 64, 95
3, 146040, Note_off_c, 2, 64, 95
3, 146160, Note_on_c, 2, 67, 95
3, 146280, Note_off_c, 2, 67, 95
3, 146400, Note_on_c, 2, 66, 95
3, 146520, Note_off_c, 2, 66, 95
3, 146640, Note_on_c, 2, 64, 95
3, 146760, Note_off_c, 2, 64, 95
3, 146880, Note_on_c, 2, 71, 95
3, 147000, Note_off_c, 2, 71, 95
3, 147120, Note_on_c, 2, 69, 95
3, 147240, Note_off_c, 2, 69, 95
3, 147360, Note_on_c, 2, 67, 95
3, 147480, Note_off_c, 2, 67, 95
3, 147600, Note_on_c, 2, 66, 95
3, 147720, Note_off_c, 2, 66, 95
3, 147840, Note_on_c, 2, 64, 95
3, 147960, Note_off_c, 2, 64, 95
3, 148080, Note_on_c, 2, 67, 95
3, 148200, Note_off_c, 2, 67, 95
3, 148320, Note_on_c, 2, 66, 95
3, 148440, Note_off_c, 2, 66, 95
3, 148560, Note_on_c, 2, 64, 95
3, 148680, Note_off_c, 2, 64, 95
3, 148800, Note_on_c, 2, 71, 95
3, 148920, Note_off_c, 2, 71, 95
3, 149040, Note_on_c, 2, 69, 95
3, 149160, Note_off_c, 2, 69, 95
3, 149280, Note_on_c, 2, 67, 95
3, 149400, Note_off_c, 2, 67, 95
3, 149520, Note_on_c, 2, 66, 95
3, 149640, Note_off_c, 2, 66, 95
3, 153600, Note_on_c, 2, 64, 95
3, 153720, Note_off_c, 2, 64, 95
3, 153840, Note_on_c, 2, 67, 95
3, 153960, Note_off_c, 2, 67, 95
3, 154080, Note_on_c, 2, 66, 95
3, 154200, Note_off_c, 2, 66, 95
3, 154320, Note_on_c, 2, 64, 95
3, 154440, Note_off_c, 2, 64, 95
3, 154560, Note_on_c, 2, 71, 95
3, 154680, Note_off_c, 2, 71, 95
3, 154800, Note_on_c, 2, 69, 95
3, 154920, Note_off_c, 2, 69, 95
3, 155040, Note_on_c, 2, 67, 95
3, 155160, Note_off_c, 2, 67, 95
3, 155280, Note_on_c, 2, 66, 95
3, 155400, Note_off_c, 2, 66, 95
3, 155520, Note_on_c, 2, 64, 95
3, 155640, Note_off_c, 2, 64, 95
3, 155760, Note_on_c, 2, 67, 95
3, 155880, Note_off_c, 2, 67, 95
3, 156000, Note_on_c, 2, 66, 95
3, 156120, Note_off_c, 2, 66, 95
3, 156240, Note_on_c, 2, 64, 95
3, 156360, Note_off_c, 2, 64, 95
3, 156480, Note_on_c, 2, 71, 95
3, 156600, Note_off_c, 2, 71, 95
3, 156720, Note_on_c, 2, 69, 95
3, 156840, Note_off_c, 2, 69, 95
3, 156960, Note_on_c, 2, 67, 95
3, 157080, Note_off_c, 2, 67, 95
3, 157200, Note_on_c, 2, 66, 95
3, 157320, Note_off_c, 2, 66, 95
3, 157440, Note_on_c, 2, 64, 95
3, 157560, Note_off_c, 2, 64, 95
3, 157680, Note_on_c, 2, 67, 95
3, 157800, Note_off_c, 2, 67, 95
3, 157920, Note_on_c, 2, 66, 95
3, 158040, Note_off_c, 2, 66, 95
3, 158160, Note_on_c, 2, 64, 95
3, 158280, Note_off_c, 2, 64, 95
3, 158400, Note_on_c, 2, 71, 95
3, 158520, Note_off_c, 2, 71, 95
3, 158640, Note_on_c, 2, 69, 95
3, 158760, Note_off_c, 2, 69, 95
3, 158880, Note_on_c, 2, 67, 95
3, 159000, Note_off_c, 2, 67, 95
3, 159120, Note_on_c, 2, 66, 95
3, 159240, Note_off_c, 2, 66, 95
3, 159360, Note_on_c, 2, 64, 95
3, 159480, Note_off_c, 2, 64, 95
3, 159600, Note_on_c, 2, 67, 95
3, 159720, Note_off_c, 2, 67, 95
3, 159840, Note_on_c, 2, 66, 95
3, 159960, Note_off_c, 2, 66, 95
3, 160080, Note_on_c, 2, 64, 95
3, 160200, Note_off_c, 2, 64, 95
3, 160320, Note_on_c, 2, 71, 95
3, 160440, Note_off_c, 2, 71, 95
3, 160560, Note_on_c, 2, 69, 95
3, 160680, Note_off_c, 2, 69, 95
3, 160800, Note_on_c, 2, 67, 95
3, 160920, Note_off_c, 2, 67, 95
3, 161040, Note_on_c, 2, 66, 95
3, 161160, Note_off_c, 2, 66, 95
3, 161280, Note_on_c, 2, 64, 95
3, 161400, Note_off_c, 2, 64, 95
3, 161520, Note_on_c, 2, 67, 95
3, 161640, Note_off_c, 2, 67, 95
3, 161760, Note_on_c, 2, 66, 95
3, 161880, Note_off_c, 2, 66, 95
3, 162000, Note_on_c, 2, 64, 95
3, 162120, Note_off_c, 2, 64, 95
3, 162240, Note_on_c, 2, 71, 95
3, 162360, Note_off_c, 2, 71, 95
3, 162480, Note_on_c, 2, 69, 95
3, 162600, Note_off_c, 2, 69, 95
3, 162720, Note_on_c, 2, 67, 95
3, 162840, Note_off_c, 2, 67, 95
3, 162960, Note_on_c, 2, 66, 95
3, 163080, Note_off_c, 2, 66, 95
3, 163200, Note_on_c, 2, 64, 95
3, 163320, Note_off_c, 2, 64, 95
3, 163440, Note_on_c, 2, 67, 95
3, 163560, Note_off_c, 2, 67, 95
3, 163680, Note_on_c, 2, 66, 95
3, 163800, Note_off_c, 2, 66, 95
3, 163920, Note_on_c, 2, 64, 95
3, 164040, Note_off_c, 2, 64, 95
3, 164160, Note_on_c, 2, 71, 95
3, 164280, Note_off_c, 2, 71, 95
3, 164400, Note_on_c, 2, 69, 95
3, 164520, Note_off_c, 2, 69, 95
3, 164640, Note_on_c, 2, 67, 95
3, 164760, Note_off_c, 2, 67, 95
3, 164880, Note_on_c, 2, 66, 95
3, 165000, Note_off_c, 2, 66, 95
3, 165120, Note_on_c, 2, 64, 95
3, 165240, Note_off_c, 2, 64, 95
3, 165360, Note_on_c, 2, 67, 95
3, 165480, Note_off_c, 2, 67, 95
3, 165600, Note_on_c, 2, 66, 95
3, 165720, Note_off_c, 2, 66, 95
3, 165840, Note_on_c, 2, 64, 95
3, 165960, Note_off_c, 2, 64, 95
3, 166080, Note_on_c, 2, 71, 95
3, 166200, Note_off_c, 2, 71, 95
3, 166320, Note_on_c, 2, 69, 95
3, 166440, Note_off_c, 2, 69, 95
3, 166560, Note_on_c, 2, 67, 95
3, 166680, Note_off_c, 2, 67, 95
3, 166800, Note_on_c, 2, 66, 95
3, 166920, Note_off_c, 2, 66, 95
3, 167040, Note_on_c, 2, 64, 95
3, 167160, Note_off_c, 2, 64, 95
3, 167280, Note_on_c, 2, 67, 95
3, 167400, Note_off_c, 2, 67, 95
3, 167520, Note_on_c, 2, 66, 95
3, 167640, Note_off_c, 2, 66, 95
3, 167760, Note_on_c, 2, 64, 95
3, 167880, Note_off_c, 2, 64, 95
3, 168000, Note_on_c, 2, 71, 95
3, 168120, Note_off_c, 2, 71, 95
3, 168240, Note_on_c, 2, 69, 95
3, 168360, Note_off_c, 2, 69, 95
3, 168480, Note_on_c, 2, 67, 95
3, 168600, Note_off_c, 2, 67, 95
3, 168720, Note_on_c, 2, 66, 95
3, 168840, Note_off_c, 2, 66, 95
3, 168960, Note_on_c, 2, 64, 95
3, 169080, Note_off_c, 2, 64, 95
3, 169200, Note_on_c, 2, 67, 95
3, 169320, Note_off_c, 2, 67, 95
3, 169440, Note_on_c, 2, 66, 95
3, 169560, Note_off_c, 2, 66, 95
3, 169680, Note_on_c, 2, 64, 95
3, 169800, Note_off_c, 2, 64, 95
3, 169920, Note_on_c, 2, 71, 95
3, 170040, Note_off_c, 2, 71, 95
3, 170160, Note_on_c, 2, 69, 95
3, 170280, Note_off_c, 2, 69, 95
3, 170400, Note_on_c, 2, 67, 95
3, 170520, Note_off_c, 2, 67, 95
3, 170640, Note_on_c, 2, 66, 95
3, 170760, Note_off_c, 2, 66, 95
3, 170880, Note_on_c, 2, 64, 95
3, 171000, Note_off_c, 2, 64, 95
3, 171120, Note_on_c, 2, 67, 95
3, 171240, Note_off_c, 2, 67, 95
3, 171360, Note_on_c, 2, 66, 95
3, 171480, Note_off_c, 2, 66, 95
3, 171600, Note_on_c, 2, 64, 95
3, 171720, Note_off_c, 2, 64, 95
3, 171840, Note_on_c, 2, 71, 95
3, 171960, Note_off_c, 2, 71, 95
3, 172080, Note_on_c, 2, 69, 95
3, 172200, Note_off_c, 2, 69, 95
3, 172320, Note_on_c, 2, 67, 95
3, 172440, Note_off_c, 2, 67, 95
3, 172560, Note_on_c, 2, 66, 95
3, 172680, Note_off_c, 2, 66, 95
3, 172800, Note_on_c, 2, 64, 95
3, 172920, Note_off_c, 2, 64, 95
3, 173040, Note_on_c, 2, 67, 95
3, 173160, Note_off_c, 2, 67, 95
3, 173280, Note_on_c, 2, 66, 95
3, 173400, Note_off_c, 2, 66, 95
3, 173520, Note_on_c, 2, 64, 95
3, 173640, Note_off_c, 2, 64, 95
3, 173760, Note_on_c, 2, 71, 95
3, 173880, Note_off_c, 2, 71, 95
3, 174000, Note_on_c, 2, 69, 95
3, 174120, Note_off_c, 2, 69, 95
3, 174240, Note_on_c, 2, 67, 95
3, 174360, Note_off_c, 2, 67, 95
3, 174480, Note_on_c, 2, 66, 95
3, 174600, Note_off_c, 2, 66, 95
3, 174720, Note_on_c, 2, 64, 95
3, 174840, Note_off_c, 2, 64, 95
3, 174960, Note_on_c, 2, 67, 95
3, 175080, Note_off_c, 2, 67, 95
3, 175200, Note_on_c, 2, 66, 95
3, 175320, Note_off_c, 2, 66, 95
3, 175440, Note_on_c, 2, 64, 95
3, 175560, Note_off_c, 2, 64, 95
3, 175680, Note_on_c, 2, 71, 95
3, 175800, Note_off_c, 2, 71, 95
3, 175920, Note_on_c, 2, 69, 95
3, 176040, Note_off_c, 2, 69, 95
3, 176160, Note_on_c, 2, 67, 95
3, 176280, Note_off_c, 2, 67, 95
3, 176400, Note_on_c, 2, 66, 95
3, 176520, Note_off_c, 2, 66, 95
3, 176640, Note_on_c, 2, 64, 95
3, 176760, Note_off_c, 2, 64, 95
3, 176880, Note_on_c, 2, 67, 95
3, 177000, Note_off_c, 2, 67, 95
3, 177120, Note_on_c, 2, 66, 95
3, 177240, Note_off_c, 2, 66, 95
3, 177360, Note_on_c, 2, 64, 95
3, 177480, Note_off_c, 2, 64, 95
3, 177600, Note_on_c, 2, 71, 95
3, 177720, Note_off_c, 2, 71, 95
3, 177840, Note_on_c, 2, 69, 95
3, 177960, Note_off_c, 2, 69, 95
3, 178080, Note_on_c, 2, 67, 95
3, 178200, Note_off_c, 2, 67, 95
3, 178320, Note_on_c, 2, 66, 95
3, 178440, Note_off_c, 2, 66, 95
3, 178560, Note_on_c, 2, 64, 95
3, 178680, Note_off_c, 2, 64, 95
3, 178800, Note_on_c, 2, 67, 95
3, 178920, Note_off_c, 2, 67, 95
3, 179040, Note_on_c, 2, 66, 95
3, 179160, Note_off_c, 2, 66, 95
3, 179280, Note_on_c, 2, 64, 95
3, 179400, Note_off_c, 2, 64, 95
3, 179520, Note_on_c, 2, 71, 95
3, 179640, Note_off_c, 2, 71, 95
3, 179760, Note_on_c, 2, 69, 95
3, 179880, Note_off_c, 2, 69, 95
3, 180000, Note_on_c, 2, 67, 95
3, 180120, Note_off_c, 2, 67, 95
3, 180240, Note_on_c, 2, 66, 95
3, 180360, Note_off_c, 2, 66, 95
3, 180480, Note_on_c, 2, 64, 95
3, 180600, Note_off_c, 2, 64, 95
3, 180720, Note_on_c, 2, 67, 95
3, 180840, Note_off_c, 2, 67, 95
3, 180960, Note_on_c, 2, 66, 95
3, 181080, Note_off_c, 2, 66, 95
3, 181200, Note_on_c, 2, 64, 95
3, 181320, Note_off_c, 2, 64, 95
3, 181440, Note_on_c, 2, 71, 95
3, 181560, Note_off_c, 2, 71, 95
3, 181680, Note_on_c, 2, 69, 95
3, 181800, Note_off_c, 2, 69, 95
3, 181920, Note_on_c, 2, 67, 95
3, 182040, Note_off_c, 2, 67, 95
3, 182160, Note_on_c, 2, 66, 95
3, 182280, Note_off_c, 2, 66, 95
3, 182400, Note_on_c, 2, 64, 95
3, 182520, Note_off_c, 2, 64, 95
3, 182640, Note_on_c, 2, 67, 95
3, 182760, Note_off_c, 2, 67, 95
3, 182880, Note_on_c, 2, 66, 95
3, 183000, Note_off_c, 2, 66, 95
3, 183120, Note_on_c, 2, 64, 95
3, 183240, Note_off_c, 2, 64, 95
3, 183360, Note_on_c, 2, 71, 95
3, 183480, Note_off_c, 2, 71, 95
3, 183600, Note_on_c, 2, 69, 95
3, 183720, Note_off_c, 2, 69, 95
3, 183840, Note_on_c, 2, 67, 95
3, 183960, Note_off_c, 2, 67, 95
3, 184080, Note_on_c, 2, 66, 95
3, 184200, Note_off_c, 2, 66, 95
3, 245760, Note_on_c, 2, 64, 95
3, 245880, Note_off_c, 2, 64, 95
3, 246000, Note_on_c, 2, 67, 95
3, 246120, Note_off_c, 2, 67, 95
3, 246240, Note_on_c, 2, 66, 95
3, 246360, Note_off_c, 2, 66, 95
3, 246480, Note_on_c, 2, 64, 95
3, 246600, Note_off_c, 2, 64, 95
3, 246720, Note_on_c, 2, 71, 95
3, 246840, Note_off_c, 2, 71, 95
3, 246960, Note_on_c, 2, 69, 95
3, 247080, Note_off_c, 2, 69, 95
3, 247200, Note_on_c, 2, 67, 95
3, 247320, Note_off_c, 2, 67, 95
3, 247440, Note_on_c, 2, 66, 95
3, 247560, Note_off_c, 2, 66, 95
3, 247680, Note_on_c, 2, 64, 95
3, 247800, Note_off_c, 2, 64, 95
3, 247920, Note_on_c, 2, 67, 95
3, 248040, Note_off_c, 2, 67, 95
3, 248160, Note_on_c, 2, 66, 95
3, 248280, Note_off_c, 2, 66, 95
3, 248400, Note_on_c, 2, 64, 95
3, 248520, Note_off_c, 2, 64, 95
3, 248640, Note_on_c, 2, 71, 95
3, 248760, Note_off_c, 2, 71, 95
3, 248880, Note_on_c, 2, 69, 95
3, 249000, Note_off_c, 2, 69, 95
3, 249120, Note_on_c, 2, 67, 95
3, 249240, Note_off_c, 2, 67, 95
3, 249360, Note_on_c, 2, 66, 95
3, 249480, Note_off_c, 2, 66, 95
3, 249600, Note_on_c, 2, 64, 95
3, 249720, Note_off_c, 2, 64, 95
3, 249840, Note_on_c, 2, 67, 95
3, 249960, Note_off_c, 2, 67, 95
3, 250080, Note_on_c, 2, 66, 95
3, 250200, Note_off_c, 2, 66, 95
3, 250320, Note_on_c, 2, 64, 95
3, 250440, Note_off_c, 2, 64, 95
3, 250560, Note_on_c, 2, 71, 95
3, 250680, Note_off_c, 2, 71, 95
3, 250800, Note_on_c, 2, 69, 95
3, 250920, Note_off_c, 2, 69, 95
3, 251040, Note_on_c, 2, 67, 95
3, 251160, Note_off_c, 2, 67, 95
3, 251280, Note_on_c, 2, 66, 95
3, 251400, Note_off_c, 2, 66, 95
3, 251520, Note_on_c, 2, 64, 95
3, 251640, Note_off_c, 2, 64, 95
3, 251760, Note_on_c, 2, 67, 95
3, 251880, Note_off_c, 2, 67, 95
3, 252000, Note_on_c, 2, 66, 95
3, 252120, Note_off_c, 2, 66, 95
3, 252240, Note_on_c, 2, 64, 95
3, 252360, Note_off_c, 2, 64, 95
3, 252480, Note_on_c, 2, 71, 95
3, 252600, Note_off_c, 2, 71, 95
3, 252720, Note_on_c, 2, 69, 95
3, 252840, Note_off_c, 2, 69, 95
3, 252960, Note_on_c, 2, 67, 95
3, 253080, Note_off_c, 2, 67, 95
3, 253200, Note_on_c, 2, 66, 95
3, 253320, Note_off_c, 2, 66, 95
3, 253440, Note_on_c, 2, 64, 95
3, 253560, Note_off_c, 2, 64, 95
3, 253680, Note_on_c, 2, 67, 95
3, 253800, Note_off_c, 2, 67, 95
3, 253920, Note_on_c, 2, 66, 95
3, 254040, Note_off_c, 2, 66, 95
3, 254160, Note_on_c, 2, 64, 95
3, 254280, Note_off_c, 2, 64, 95
3, 254400, Note_on_c, 2, 71, 95
3, 254520, Note_off_c, 2, 71, 95
3, 254640, Note_on_c, 2, 69, 95
3, 254760, Note_off_c, 2, 69, 95
3, 254880, Note_on_c, 2, 67, 95
3, 255000, Note_off_c, 2, 67, 95
3, 255120, Note_on_c, 2, 66, 95
3, 255240, Note_off_c, 2, 66, 95
3, 255360, Note_on_c, 2, 64, 95
3, 255480, Note_off_c, 2, 64, 95
3, 255600, Note_on_c, 2, 67, 95
3, 255720, Note_off_c, 2, 67, 95
3, 255840, Note_on_c, 2, 66, 95
3, 255960, Note_off_c, 2, 66, 95
3, 256080, Note_on_c, 2, 64, 95
3, 256200, Note_off_c, 2, 64, 95
3, 256320, Note_on_c, 2, 71, 95
3, 256440, Note_off_c, 2, 71, 95
3, 256560, Note_on_c, 2, 69, 95
3, 256680, Note_off_c, 2, 69, 95
3, 256800, Note_on_c, 2, 67, 95
3, 256920, Note_off_c, 2, 67, 95
3, 257040, Note_on_c, 2, 66, 95
3, 257160, Note_off_c, 2, 66, 95
3, 261120, Note_on_c, 2, 64, 95
3, 261240, Note_off_c, 2, 64, 95
3, 261360, Note_on_c, 2, 67, 95
3, 261480, Note_off_c, 2, 67, 95
3, 261600, Note_on_c, 2, 66, 95
3, 261720, Note_off_c, 2, 66, 95
3, 261840, Note_on_c, 2, 64, 95
3, 261960, Note_off_c, 2, 64, 95
3, 262080, Note_on_c, 2, 71, 95
3, 262200, Note_off_c, 2, 71, 95
3, 262320, Note_on_c, 2, 69, 95
3, 262440, Note_off_c, 2, 69, 95
3, 262560, Note_on_c, 2, 67, 95
3, 262680, Note_off_c, 2, 67, 95
3, 262800, Note_on_c, 2, 66, 95
3, 262920, Note_off_c, 2, 66, 95
3, 263040, Note_on_c, 2, 64, 95
3, 263160, Note_off_c, 2, 64, 95
3, 263280, Note_on_c, 2, 67, 95
3, 263400, Note_off_c, 2, 67, 95
3, 263520, Note_on_c, 2, 66, 95
3, 263640, Note_off_c, 2, 66, 95
3, 263760, Note_on_c, 2, 64, 95
3, 263880, Note_off_c, 2, 64, 95
3, 264000, Note_on_c, 2, 71, 95
3, 264120, Note_off_c, 2, 71, 95
3, 264240, Note_on_c, 2, 69, 95
3, 264360, Note_off_c, 2, 69, 95
3, 264480, Note_on_c, 2, 67, 95
3, 264600, Note_off_c, 2, 67, 95
3, 264720, Note_on_c, 2, 66, 95
3, 264840, Note_off_c, 2, 66, 95
3, 264960, Note_on_c, 2, 64, 95
3, 265080, Note_off_c, 2, 64, 95
3, 265200, Note_on_c, 2, 67, 95
3, 265320, Note_off_c, 2, 67, 95
3, 265440, Note_on_c, 2, 66, 95
3, 265560, Note_off_c, 2, 66, 95
3, 265680, Note_on_c, 2, 64, 95
3, 265800, Note_off_c, 2, 64, 95
3, 265920, Note_on_c, 2, 71, 95
3, 266040, Note_off_c, 2, 71, 95
3, 266160, Note_on_c, 2, 69, 95
3, 266280, Note_off_c, 2, 69, 95
3, 266400, Note_on_c, 2, 67, 95
3, 266520, Note_off_c, 2, 67, 95
3, 266640, Note_on_c, 2, 66, 95
3, 266760, Note_off_c, 2, 66, 95
3, 266880, Note_on_c, 2, 64, 95
3, 267000, Note_off_c, 2, 64, 95
3, 267120, Note_on_c, 2, 67, 95
3, 267240, Note_off_c, 2, 67, 95
3, 267360, Note_on_c, 2, 66, 95
3, 267480, Note_off_c, 2, 66, 95
3, 267600, Note_on_c, 2, 64, 95
3, 267720, Note_off_c, 2, 64, 95
3, 267840, Note_on_c, 2, 71, 95
3, 267960, Note_off_c, 2, 71, 95
3, 268080, Note_on_c, 2, 69, 95
3, 268200, Note_off_c, 2, 69, 95
3, 268320, Note_on_c, 2, 67, 95
3, 268440, Note_off_c, 2, 67, 95
3, 268560, Note_on_c, 2, 66, 95
3, 268680, Note_off_c, 2, 66, 95
3, 268800, Note_on_c, 2, 64, 95
3, 268920, Note_off_c, 2, 64, 95
3, 269040, Note_on_c, 2, 67, 95
3, 269160, Note_off_c, 2, 67, 95
3, 269280, Note_on_c, 2, 66, 95
3, 269400, Note_off_c, 2, 66, 95
3, 269520, Note_on_c, 2, 64, 95
3, 269640, Note_off_c, 2, 64, 95
3, 269760, Note_on_c, 2, 71, 95
3, 269880, Note_off_c, 2, 71, 95
3, 270000, Note_on_c, 2, 69, 95
3, 270120, Note_off_c, 2, 69, 95
3, 270240, Note_on_c, 2, 67, 95
3, 270360, Note_off_c, 2, 67, 95
3, 270480, Note_on_c, 2, 66, 95
3, 270600, Note_off_c, 2, 66, 95
3, 270720, Note_on_c, 2, 64, 95
3, 270840, Note_off_c, 2, 64, 95
3, 270960, Note_on_c, 2, 67, 95
3, 271080, Note_off_c, 2, 67, 95
3, 271200, Note_on_c, 2, 66, 95
3, 271320, Note_off_c, 2, 66, 95
3, 271440, Note_on_c, 2, 64, 95
3, 271560, Note_off_c, 2, 64, 95
3, 271680, Note_on_c, 2, 71, 95
3, 271800, Note_off_c, 2, 71, 95
3, 271920, Note_on_c, 2, 69, 95
3, 272040, Note_off_c, 2, 69, 95
3, 272160, Note_on_c, 2, 67, 95
3, 272280, Note_off_c, 2, 67, 95
3, 272400, Note_on_c, 2, 66, 95
3, 272520, Note_off_c, 2, 66, 95
3, 272520, End_track
4, 0, Start_track
4, 0, Pitch_bend_c, 9, 8192
4, 0, Control_c, 9, 7, 103
4, 0, Control_c, 9, 10, 63
4, 0, Control_c, 9, 93, 0
4, 0, Control_c, 9, 91, 0
4, 0, Control_c, 9, 95, 0
4, 0, Control_c, 9, 92, 0
4, 0, Control_c, 9, 11, 127
4, 0, Program_c, 9, 0
4, 0, Note_on_c, 9, 42, 95
4, 0, Note_on_c, 9, 36, 95
4, 480, Note_off_c, 9, 42, 95
4, 480, Note_off_c, 9, 36, 95
4, 480, Note_on_c, 9, 42, 95
4, 720, Note_off_c, 9, 42, 95
4, 720, Note_on_c, 9, 35, 95
4, 960, Note_off_c, 9, 35, 95
4, 960, Note_on_c, 9, 42, 95
4, 960, Note_on_c, 9, 38, 95
4, 1440, Note_off_c, 9, 42, 95
4, 1440, Note_off_c, 9, 38, 95
4, 1440, Note_on_c, 9, 42, 95
4, 1920, Note_off_c, 9, 42, 95
4, 1920, Note_on_c, 9, 42, 95
4, 1920, Note_on_c, 9, 36, 95
4, 2400, Note_off_c, 9, 42, 95
4, 2400, Note_off_c, 9, 36, 95
4, 2400, Note_on_c, 9, 42, 95
4, 2880, Note_off_c, 9, 42, 95
4, 2880, Note_on_c, 9, 42, 95
4, 2880, Note_on_c, 9, 38, 95
4, 3360, Note_off_c, 9, 42, 95
4, 3360, Note_off_c, 9, 38, 95
4, 3360, Note_on_c, 9, 42, 95
4, 3840, Note_off_c, 9, 42, 95
4, 3840, Note_on_c, 9, 42, 95
4, 3840, Note_on_c, 9, 36, 95
4, 4320, Note_off_c, 9, 42, 95
4, 4320, Note_off_c, 9, 36, 95
4, 4320, Note_on_c, 9, 42, 95
4, 4560, Note_off_c, 9, 42, 95
4, 4560, Note_on_c, 9, 35, 95
4, 4800, Note_off_c, 9, 35, 95
4, 4800, Note_on_c, 9, 42, 95
4, 4800, Note_on_c, 9, 38, 95
4, 5280, Note_off_c, 9, 42, 95
4, 5280, Note_off_c, 9, 38, 95
4, 5280, Note_on_c, 9, 42, 95
4, 5760, Note_off_c, 9, 42, 95
4, 5760, Note_on_c, 9, 42, 95
4, 5760, Note_on_c, 9, 36, 95
4, 6240, Note_off_c, 9, 42, 95
4, 6240, Note_off_c, 9, 36, 95
4, 6240, Note_on_c, 9, 42, 95
4, 6720, Note_off_c, 9, 42, 95
4, 6720, Note_on_c, 9, 42, 95
4, 6720, Note_on_c, 9, 38, 95
4, 7200, Note_off_c, 9, 42, 95
4, 7200, Note_off_c, 9, 38, 95
4, 7200, Note_on_c, 9, 42, 95
4, 7680, Note_off_c, 9, 42, 95
4, 7680, Note_on_c, 9, 42, 95
4, 7680, Note_on_c, 9, 36, 95
4, 8160, Note_off_c, 9, 42, 95
4, 8160, Note_off_c, 9, 36, 95
4, 8160, Note_on_c, 9, 42, 95
4, 8400, Note_off_c, 9, 42, 95
4, 8400, Note_on_c, 9, 35, 95
4, 8640, Note_off_c, 9, 35, 95
4, 8640, Note_on_c, 9, 42, 95
4, 8640, Note_on_c, 9, 38, 95
4, 9120, Note_off_c, 9, 42, 95
4, 9120, Note_off_c, 9, 38, 95
4, 9120, Note_on_c, 9, 42, 95
4, 9600, Note_off_c, 9, 42, 95
4, 9600, Note_on_c, 9, 42, 95
4, 9600, Note_on_c, 9, 36, 95
4, 10080, Note_off_c, 9, 42, 95
4, 10080, Note_off_c, 9, 36, 95
4, 10080, Note_on_c, 9, 42, 95
4, 10560, Note_off_c, 9, 42, 95
4, 10560, Note_on_c, 9, 42, 95
4, 10560, Note_on_c, 9, 38, 95
4, 11040, Note_off_c, 9, 42, 95
4, 11040, Note_off_c, 9, 38, 95
4, 11040, Note_on_c, 9, 42, 95
4, 11520, Note_off_c, 9, 42, 95
4, 11520, Note_on_c, 9, 42, 95
4, 11520, Note_on_c, 9, 36, 95
4, 12000, Note_off_c, 9, 42, 95
4, 12000, Note_off_c, 9, 36, 95
4, 12000, Note_on_c, 9, 42, 95
4, 12240, Note_off_c, 9, 42, 95
4, 12240, Note_on_c, 9, 35, 95
4, 12480, Note_off_c, 9, 35, 95
4, 12480, Note_on_c, 9, 42, 95
4, 12480, Note_on_c, 9, 38, 95
4, 12720, Note_off_c, 9, 42, 95
4, 12720, Note_off_c, 9, 38, 95
4, 12720, Note_on_c, 9, 38, 31
4, 12960, Note_off_c, 9, 38, 31
4, 12960, Note_on_c, 9, 38, 31
4, 13200, Note_off_c, 9, 38, 31
4, 13200, Note_on_c, 9, 38, 47
4, 13440, Note_off_c, 9, 38, 47
4, 13440, Note_on_c, 9, 38, 47
4, 13680, Note_off_c, 9, 38, 47
4, 13680, Note_on_c, 9, 38, 63
4, 13920, Note_off_c, 9, 38, 63
4, 13920, Note_on_c, 9, 38, 63
4, 14160, Note_off_c, 9, 38, 63
4, 14160, Note_on_c, 9, 38, 79
4, 14400, Note_off_c, 9, 38, 79
4, 14400, Note_on_c, 9, 38, 95
4, 14640, Note_off_c, 9, 38, 95
4, 14640, Note_on_c, 9, 38, 95
4, 14880, Note_off_c, 9, 38, 95
4, 14880, Note_on_c, 9, 38, 95
4, 15120, Note_off_c, 9, 38, 95
4, 15120, Note_on_c, 9, 38, 95
4, 15360, Note_off_c, 9, 38, 95
4, 15360, Note_on_c, 9, 49, 95
4, 15360, Note_on_c, 9, 36, 95
4, 17280, Note_off_c, 9, 49, 95
4, 17280, Note_off_c, 9, 36, 95
4, 18720, Note_on_c, 9, 49, 95
4, 18720, Note_on_c, 9, 36, 95
4, 19200, Note_off_c, 9, 49, 95
4, 19200, Note_off_c, 9, 36, 95
4, 23040, Note_on_c, 9, 49, 95
4, 23040, Note_on_c, 9, 36, 95
4, 24960, Note_off_c, 9, 49, 95
4, 24960, Note_off_c, 9, 36, 95
4, 26400, Note_on_c, 9, 49, 95
4, 26400, Note_on_c, 9, 36, 95
4, 26880, Note_off_c, 9, 49, 95
4, 26880, Note_off_c, 9, 36, 95
4, 30720, Note_on_c, 9, 49, 95
4, 30720, Note_on_c, 9, 36, 95
4, 32640, Note_off_c, 9, 49, 95
4, 32640, Note_off_c, 9, 36, 95
4, 34080, Note_on_c, 9, 49, 95
4, 34080, Note_on_c, 9, 36, 95
4, 34560, Note_off_c, 9, 49, 95
4, 34560, Note_off_c, 9, 36, 95
4, 38400, Note_on_c, 9, 49, 95
4, 38400, Note_on_c, 9, 36, 95
4, 40320, Note_off_c, 9, 49, 95
4, 40320, Note_off_c, 9, 36, 95
4, 41760, Note_on_c, 9, 49, 95
4, 41760, Note_on_c, 9, 36, 95
4, 42240, Note_off_c, 9, 49, 95
4, 42240, Note_off_c, 9, 36, 95
4, 43200, Note_on_c, 9, 55, 95
4, 44160, Note_off_c, 9, 55, 95
4, 44160, Note_on_c, 9, 38, 95
4, 44880, Note_off_c, 9, 38, 95
4, 44880, Note_on_c, 9, 47, 95
4, 45120, Note_off_c, 9, 47, 95
4, 45120, Note_on_c, 9, 36, 95
4, 45120, Note_on_c, 9, 47, 95
4, 45600, Note_off_c, 9, 36, 95
4, 45600, Note_off_c, 9, 47, 95
4, 45600, Note_on_c, 9, 45, 95
4, 45840, Note_off_c, 9, 45, 95
4, 45840, Note_on_c, 9, 45, 95
4, 46080, Note_off_c, 9, 45, 95
4, 46080, Note_on_c, 9, 49, 95
4, 46080, Note_on_c, 9, 36, 95
4, 46560, Note_off_c, 9, 49, 95
4, 46560, Note_off_c, 9, 36, 95
4, 46560, Note_on_c, 9, 44, 95
4, 47040, Note_off_c, 9, 44, 95
4, 47040, Note_on_c, 9, 44, 95
4, 47040, Note_on_c, 9, 38, 95
4, 47520, Note_off_c, 9, 44, 95
4, 47520, Note_off_c, 9, 38, 95
4, 47520, Note_on_c, 9, 51, 95
4, 47760, Note_off_c, 9, 51, 95
4, 47760, Note_on_c, 9, 44, 95
4, 48000, Note_off_c, 9, 44, 95
4, 48000, Note_on_c, 9, 44, 95
4, 48000, Note_on_c, 9, 36, 95
4, 48480, Note_off_c, 9, 44, 95
4, 48480, Note_off_c, 9, 36, 95
4, 48480, Note_on_c, 9, 44, 95
4, 48960, Note_off_c, 9, 44, 95
4, 48960, Note_on_c, 9, 44, 95
4, 48960, Note_on_c, 9, 38, 95
4, 49440, Note_off_c, 9, 44, 95
4, 49440, Note_off_c, 9, 38, 95
4, 49440, Note_on_c, 9, 51, 95
4, 49680, Note_off_c, 9, 51, 95
4, 49680, Note_on_c, 9, 44, 95
4, 49920, Note_off_c, 9, 44, 95
4, 49920, Note_on_c, 9, 49, 95
4, 49920, Note_on_c, 9, 36, 95
4, 50400, Note_off_c, 9, 49, 95
4, 50400, Note_off_c, 9, 36, 95
4, 50400, Note_on_c, 9, 44, 95
4, 50880, Note_off_c, 9, 44, 95
4, 50880, Note_on_c, 9, 44, 95
4, 50880, Note_on_c, 9, 38, 95
4, 51360, Note_off_c, 9, 44, 95
4, 51360, Note_off_c, 9, 38, 95
4, 51360, Note_on_c, 9, 51, 95
4, 51600, Note_off_c, 9, 51, 95
4, 51600, Note_on_c, 9, 44, 95
4, 51840, Note_off_c, 9, 44, 95
4, 51840, Note_on_c, 9, 44, 95
4, 51840, Note_on_c, 9, 36, 95
4, 52320, Note_off_c, 9, 44, 95
4, 52320, Note_off_c, 9, 36, 95
4, 52320, Note_on_c, 9, 44, 95
4, 52800, Note_off_c, 9, 44, 95
4, 52800, Note_on_c, 9, 44, 95
4, 52800, Note_on_c, 9, 38, 95
4, 53280, Note_off_c, 9, 44, 95
4, 53280, Note_off_c, 9, 38, 95
4, 53280, Note_on_c, 9, 51, 95
4, 53520, Note_off_c, 9, 51, 95
4, 53520, Note_on_c, 9, 44, 95
4, 53760, Note_off_c, 9, 44, 95
4, 53760, Note_on_c, 9, 49, 95
4, 53760, Note_on_c, 9, 36, 95
4, 54240, Note_off_c, 9, 49, 95
4, 54240, Note_off_c, 9, 36, 95
4, 54240, Note_on_c, 9, 44, 95
4, 54720, Note_off_c, 9, 44, 95
4, 54720, Note_on_c, 9, 44, 95
4, 54720, Note_on_c, 9, 38, 95
4, 55200, Note_off_c, 9, 44, 95
4, 55200, Note_off_c, 9, 38, 95
4, 55200, Note_on_c, 9, 51, 95
4, 55440, Note_off_c, 9, 51, 95
4, 55440, Note_on_c, 9, 44, 95
4, 55680, Note_off_c, 9, 44, 95
4, 55680, Note_on_c, 9, 44, 95
4, 55680, Note_on_c, 9, 36, 95
4, 56160, Note_off_c, 9, 44, 95
4, 56160, Note_off_c, 9, 36, 95
4, 56160, Note_on_c, 9, 44, 95
4, 56640, Note_off_c, 9, 44, 95
4, 56640, Note_on_c, 9, 44, 95
4, 56640, Note_on_c, 9, 38, 95
4, 57120, Note_off_c, 9, 44, 95
4, 57120, Note_off_c, 9, 38, 95
4, 57120, Note_on_c, 9, 51, 95
4, 57360, Note_off_c, 9, 51, 95
4, 57360, Note_on_c, 9, 44, 95
4, 57600, Note_off_c, 9, 44, 95
4, 57600, Note_on_c, 9, 49, 95
4, 57600, Note_on_c, 9, 36, 95
4, 58080, Note_off_c, 9, 49, 95
4, 58080, Note_off_c, 9, 36, 95
4, 58080, Note_on_c, 9, 44, 95
4, 58560, Note_off_c, 9, 44, 95
4, 58560, Note_on_c, 9, 44, 95
4, 58560, Note_on_c, 9, 38, 95
4, 59040, Note_off_c, 9, 44, 95
4, 59040, Note_off_c, 9, 38, 95
4, 59040, Note_on_c, 9, 51, 95
4, 59280, Note_off_c, 9, 51, 95
4, 59280, Note_on_c, 9, 44, 95
4, 59520, Note_off_c, 9, 44, 95
4, 59520, Note_on_c, 9, 44, 95
4, 59520, Note_on_c, 9, 36, 95
4, 60000, Note_off_c, 9, 44, 95
4, 60000, Note_off_c, 9, 36, 95
4, 60000, Note_on_c, 9, 44, 95
4, 60480, Note_off_c, 9, 44, 95
4, 60480, Note_on_c, 9, 44, 95
4, 60480, Note_on_c, 9, 38, 95
4, 60960, Note_off_c, 9, 44, 95
4, 60960, Note_off_c, 9, 38, 95
4, 60960, Note_on_c, 9, 51, 95
4, 61200, Note_off_c, 9, 51, 95
4, 61200, Note_on_c, 9, 44, 95
4, 61440, Note_off_c, 9, 44, 95
4, 61440, Note_on_c, 9, 49, 95
4, 61440, Note_on_c, 9, 36, 95
4, 61920, Note_off_c, 9, 49, 95
4, 61920, Note_off_c, 9, 36, 95
4, 61920, Note_on_c, 9, 44, 95
4, 62400, Note_off_c, 9, 44, 95
4, 62400, Note_on_c, 9, 44, 95
4, 62400, Note_on_c, 9, 38, 95
4, 62880, Note_off_c, 9, 44, 95
4, 62880, Note_off_c, 9, 38, 95
4, 62880, Note_on_c, 9, 51, 95
4, 63120, Note_off_c, 9, 51, 95
4, 63120, Note_on_c, 9, 44, 95
4, 63360, Note_off_c, 9, 44, 95
4, 63360, Note_on_c, 9, 44, 95
4, 63360, Note_on_c, 9, 36, 95
4, 63840, Note_off_c, 9, 44, 95
4, 63840, Note_off_c, 9, 36, 95
4, 63840, Note_on_c, 9, 44, 95
4, 64320, Note_off_c, 9, 44, 95
4, 64320, Note_on_c, 9, 44, 95
4, 64320, Note_on_c, 9, 38, 95
4, 64800, Note_off_c, 9, 44, 95
4, 64800, Note_off_c, 9, 38, 95
4, 64800, Note_on_c, 9, 51, 95
4, 65040, Note_off_c, 9, 51, 95
4, 65040, Note_on_c, 9, 44, 95
4, 65280, Note_off_c, 9, 44, 95
4, 65280, Note_on_c, 9, 49, 95
4, 65280, Note_on_c, 9, 36, 95
4, 65760, Note_off_c, 9, 49, 95
4, 65760, Note_off_c, 9, 36, 95
4, 65760, Note_on_c, 9, 44, 95
4, 66240, Note_off_c, 9, 44, 95
4, 66240, Note_on_c, 9, 44, 95
4, 66240, Note_on_c, 9, 38, 95
4, 66720, Note_off_c, 9, 44, 95
4, 66720, Note_off_c, 9, 38, 95
4, 66720, Note_on_c, 9, 51, 95
4, 66960, Note_off_c, 9, 51, 95
4, 66960, Note_on_c, 9, 44, 95
4, 67200, Note_off_c, 9, 44, 95
4, 67200, Note_on_c, 9, 44, 95
4, 67200, Note_on_c, 9, 36, 95
4, 67680, Note_off_c, 9, 44, 95
4, 67680, Note_off_c, 9, 36, 95
4, 67680, Note_on_c, 9, 44, 95
4, 68160, Note_off_c, 9, 44, 95
4, 68160, Note_on_c, 9, 44, 95
4, 68160, Note_on_c, 9, 38, 95
4, 68640, Note_off_c, 9, 44, 95
4, 68640, Note_off_c, 9, 38, 95
4, 68640, Note_on_c, 9, 51, 95
4, 68880, Note_off_c, 9, 51, 95
4, 68880, Note_on_c, 9, 44, 95
4, 69120, Note_off_c, 9, 44, 95
4, 69120, Note_on_c, 9, 49, 95
4, 69120, Note_on_c, 9, 36, 95
4, 69600, Note_off_c, 9, 49, 95
4, 69600, Note_off_c, 9, 36, 95
4, 69600, Note_on_c, 9, 44, 95
4, 70080, Note_off_c, 9, 44, 95
4, 70080, Note_on_c, 9, 44, 95
4, 70080, Note_on_c, 9, 38, 95
4, 70560, Note_off_c, 9, 44, 95
4, 70560, Note_off_c, 9, 38, 95
4, 70560, Note_on_c, 9, 51, 95
4, 70800, Note_off_c, 9, 51, 95
4, 70800, Note_on_c, 9, 44, 95
4, 71040, Note_off_c, 9, 44, 95
4, 71040, Note_on_c, 9, 44, 95
4, 71040, Note_on_c, 9, 36, 95
4, 71520, Note_off_c, 9, 44, 95
4, 71520, Note_off_c, 9, 36, 95
4, 71520, Note_on_c, 9, 44, 95
4, 72000, Note_off_c, 9, 44, 95
4, 72000, Note_on_c, 9, 44, 95
4, 72000, Note_on_c, 9, 38, 95
4, 72480, Note_off_c, 9, 44, 95
4, 72480, Note_off_c, 9, 38, 95
4, 72480, Note_on_c, 9, 51, 95
4, 72720, Note_off_c, 9, 51, 95
4, 72720, Note_on_c, 9, 44, 95
4, 72960, Note_off_c, 9, 44, 95
4, 72960, Note_on_c, 9, 49, 95
4, 72960, Note_on_c, 9, 36, 95
4, 73440, Note_off_c, 9, 49, 95
4, 73440, Note_off_c, 9, 36, 95
4, 73440, Note_on_c, 9, 44, 95
4, 73920, Note_off_c, 9, 44, 95
4, 73920, Note_on_c, 9, 44, 95
4, 73920, Note_on_c, 9, 38, 95
4, 74400, Note_off_c, 9, 44, 95
4, 74400, Note_off_c, 9, 38, 95
4, 74400, Note_on_c, 9, 51, 95
4, 74640, Note_off_c, 9, 51, 95
4, 74640, Note_on_c, 9, 44, 95
4, 74880, Note_off_c, 9, 44, 95
4, 74880, Note_on_c, 9, 44, 95
4, 74880, Note_on_c, 9, 36, 95
4, 75360, Note_off_c, 9, 44, 95
4, 75360, Note_off_c, 9, 36, 95
4, 75360, Note_on_c, 9, 44, 95
4, 75840, Note_off_c, 9, 44, 95
4, 75840, Note_on_c, 9, 44, 95
4, 75840, Note_on_c, 9, 38, 95
4, 76320, Note_off_c, 9, 44, 95
4, 76320, Note_off_c, 9, 38, 95
4, 76320, Note_on_c, 9, 51, 95
4, 76560, Note_off_c, 9, 51, 95
4, 76560, Note_on_c, 9, 44, 95
4, 76800, Note_off_c, 9, 44, 95
4, 76800, Note_on_c, 9, 49, 95
4, 76800, Note_on_c, 9, 36, 95
4, 77280, Note_off_c, 9, 49, 95
4, 77280, Note_off_c, 9, 36, 95
4, 77280, Note_on_c, 9, 44, 95
4, 77760, Note_off_c, 9, 44, 95
4, 77760, Note_on_c, 9, 44, 95
4, 77760, Note_on_c, 9, 38, 95
4, 78240, Note_off_c, 9, 44, 95
4, 78240, Note_off_c, 9, 38, 95
4, 78240, Note_on_c, 9, 51, 95
4, 78480, Note_off_c, 9, 51, 95
4, 78480, Note_on_c, 9, 44, 95
4, 78720, Note_off_c, 9, 44, 95
4, 78720, Note_on_c, 9, 44, 95
4, 78720, Note_on_c, 9, 36, 95
4, 79200, Note_off_c, 9, 44, 95
4, 79200, Note_off_c, 9, 36, 95
4, 79200, Note_on_c, 9, 44, 95
4, 79680, Note_off_c, 9, 44, 95
4, 79680, Note_on_c, 9, 44, 95
4, 79680, Note_on_c, 9, 38, 95
4, 80160, Note_off_c, 9, 44, 95
4, 80160, Note_off_c, 9, 38, 95
4, 80160, Note_on_c, 9, 51, 95
4, 80400, Note_off_c, 9, 51, 95
4, 80400, Note_on_c, 9, 44, 95
4, 80640, Note_off_c, 9, 44, 95
4, 80640, Note_on_c, 9, 49, 95
4, 80640, Note_on_c, 9, 36, 95
4, 81120, Note_off_c, 9, 49, 95
4, 81120, Note_off_c, 9, 36, 95
4, 81120, Note_on_c, 9, 44, 95
4, 81600, Note_off_c, 9, 44, 95
4, 81600, Note_on_c, 9, 44, 95
4, 81600, Note_on_c, 9, 38, 95
4, 82080, Note_off_c, 9, 44, 95
4, 82080, Note_off_c, 9, 38, 95
4, 82080, Note_on_c, 9, 51, 95
4, 82320, Note_off_c, 9, 51, 95
4, 82320, Note_on_c, 9, 44, 95
4, 82560, Note_off_c, 9, 44, 95
4, 82560, Note_on_c, 9, 44, 95
4, 82560, Note_on_c, 9, 36, 95
4, 83040, Note_off_c, 9, 44, 95
4, 83040, Note_off_c, 9, 36, 95
4, 83040, Note_on_c, 9, 44, 95
4, 83520, Note_off_c, 9, 44, 95
4, 83520, Note_on_c, 9, 44, 95
4, 83520, Note_on_c, 9, 38, 95
4, 84000, Note_off_c, 9, 44, 95
4, 84000, Note_off_c, 9, 38, 95
4, 84000, Note_on_c, 9, 51, 95
4, 84240, Note_off_c, 9, 51, 95
4, 84240, Note_on_c, 9, 44, 95
4, 84480, Note_off_c, 9, 44, 95
4, 84480, Note_on_c, 9, 49, 95
4, 84480, Note_on_c, 9, 36, 95
4, 84960, Note_off_c, 9, 49, 95
4, 84960, Note_off_c, 9, 36, 95
4, 84960, Note_on_c, 9, 44, 95
4, 85440, Note_off_c, 9, 44, 95
4, 85440, Note_on_c, 9, 44, 95
4, 85440, Note_on_c, 9, 38, 95
4, 85920, Note_off_c, 9, 44, 95
4, 85920, Note_off_c, 9, 38, 95
4, 85920, Note_on_c, 9, 51, 95
4, 86160, Note_off_c, 9, 51, 95
4, 86160, Note_on_c, 9, 44, 95
4, 86400, Note_off_c, 9, 44, 95
4, 86400, Note_on_c, 9, 44, 95
4, 86400, Note_on_c, 9, 36, 95
4, 86880, Note_off_c, 9, 44, 95
4, 86880, Note_off_c, 9, 36, 95
4, 86880, Note_on_c, 9, 44, 95
4, 87360, Note_off_c, 9, 44, 95
4, 87360, Note_on_c, 9, 44, 95
4, 87360, Note_on_c, 9, 38, 95
4, 87840, Note_off_c, 9, 44, 95
4, 87840, Note_off_c, 9, 38, 95
4, 87840, Note_on_c, 9, 51, 95
4, 88080, Note_off_c, 9, 51, 95
4, 88080, Note_on_c, 9, 44, 95
4, 88320, Note_off_c, 9, 44, 95
4, 88320, Note_on_c, 9, 49, 95
4, 88320, Note_on_c, 9, 36, 95
4, 88800, Note_off_c, 9, 49, 95
4, 88800, Note_off_c, 9, 36, 95
4, 88800, Note_on_c, 9, 44, 95
4, 89280, Note_off_c, 9, 44, 95
4, 89280, Note_on_c, 9, 44, 95
4, 89280, Note_on_c, 9, 38, 95
4, 89760, Note_off_c, 9, 44, 95
4, 89760, Note_off_c, 9, 38, 95
4, 89760, Note_on_c, 9, 51, 95
4, 90000, Note_off_c, 9, 51, 95
4, 90000, Note_on_c, 9, 44, 95
4, 90240, Note_off_c, 9, 44, 95
4, 90240, Note_on_c, 9, 44, 95
4, 90240, Note_on_c, 9, 36, 95
4, 90720, Note_off_c, 9, 44, 95
4, 90720, Note_off_c, 9, 36, 95
4, 90720, Note_on_c, 9, 44, 95
4, 91200, Note_off_c, 9, 44, 95
4, 91200, Note_on_c, 9, 44, 95
4, 91200, Note_on_c, 9, 38, 95
4, 91680, Note_off_c, 9, 44, 95
4, 91680, Note_off_c, 9, 38, 95
4, 91680, Note_on_c, 9, 51, 95
4, 91920, Note_off_c, 9, 51, 95
4, 91920, Note_on_c, 9, 44, 95
4, 92160, Note_off_c, 9, 44, 95
4, 92160, Note_on_c, 9, 49, 95
4, 92160, Note_on_c, 9, 36, 95
4, 92640, Note_off_c, 9, 49, 95
4, 92640, Note_off_c, 9, 36, 95
4, 92640, Note_on_c, 9, 44, 95
4, 93120, Note_off_c, 9, 44, 95
4, 93120, Note_on_c, 9, 44, 95
4, 93120, Note_on_c, 9, 38, 95
4, 93600, Note_off_c, 9, 44, 95
4, 93600, Note_off_c, 9, 38, 95
4, 93600, Note_on_c, 9, 51, 95
4, 93840, Note_off_c, 9, 51, 95
4, 93840, Note_on_c, 9, 44, 95
4, 94080, Note_off_c, 9, 44, 95
4, 94080, Note_on_c, 9, 44, 95
4, 94080, Note_on_c, 9, 36, 95
4, 94560, Note_off_c, 9, 44, 95
4, 94560, Note_off_c, 9, 36, 95
4, 94560, Note_on_c, 9, 44, 95
4, 95040, Note_off_c, 9, 44, 95
4, 95040, Note_on_c, 9, 44, 95
4, 95040, Note_on_c, 9, 38, 95
4, 95520, Note_off_c, 9, 44, 95
4, 95520, Note_off_c, 9, 38, 95
4, 95520, Note_on_c, 9, 51, 95
4, 95760, Note_off_c, 9, 51, 95
4, 95760, Note_on_c, 9, 44, 95
4, 96000, Note_off_c, 9, 44, 95
4, 96000, Note_on_c, 9, 49, 95
4, 96000, Note_on_c, 9, 36, 95
4, 96480, Note_off_c, 9, 49, 95
4, 96480, Note_off_c, 9, 36, 95
4, 96480, Note_on_c, 9, 44, 95
4, 96960, Note_off_c, 9, 44, 95
4, 96960, Note_on_c, 9, 44, 95
4, 96960, Note_on_c, 9, 38, 95
4, 97440, Note_off_c, 9, 44, 95
4, 97440, Note_off_c, 9, 38, 95
4, 97440, Note_on_c, 9, 51, 95
4, 97680, Note_off_c, 9, 51, 95
4, 97680, Note_on_c, 9, 44, 95
4, 97920, Note_off_c, 9, 44, 95
4, 97920, Note_on_c, 9, 44, 95
4, 97920, Note_on_c, 9, 36, 95
4, 98400, Note_off_c, 9, 44, 95
4, 98400, Note_off_c, 9, 36, 95
4, 98400, Note_on_c, 9, 44, 95
4, 98880, Note_off_c, 9, 44, 95
4, 98880, Note_on_c, 9, 44, 95
4, 98880, Note_on_c, 9, 38, 95
4, 99360, Note_off_c, 9, 44, 95
4, 99360, Note_off_c, 9, 38, 95
4, 99360, Note_on_c, 9, 51, 95
4, 99600, Note_off_c, 9, 51, 95
4, 99600, Note_on_c, 9, 44, 95
4, 99840, Note_off_c, 9, 44, 95
4, 99840, Note_on_c, 9, 49, 95
4, 99840, Note_on_c, 9, 36, 95
4, 100320, Note_off_c, 9, 49, 95
4, 100320, Note_off_c, 9, 36, 95
4, 100320, Note_on_c, 9, 44, 95
4, 100800, Note_off_c, 9, 44, 95
4, 100800, Note_on_c, 9, 44, 95
4, 100800, Note_on_c, 9, 38, 95
4, 101280, Note_off_c, 9, 44, 95
4, 101280, Note_off_c, 9, 38, 95
4, 101280, Note_on_c, 9, 51, 95
4, 101520, Note_off_c, 9, 51, 95
4, 101520, Note_on_c, 9, 44, 95
4, 101760, Note_off_c, 9, 44, 95
4, 101760, Note_on_c, 9, 44, 95
4, 101760, Note_on_c, 9, 36, 95
4, 102240, Note_off_c, 9, 44, 95
4, 102240, Note_off_c, 9, 36, 95
4, 102240, Note_on_c, 9, 44, 95
4, 102720, Note_off_c, 9, 44, 95
4, 102720, Note_on_c, 9, 44, 95
4, 102720, Note_on_c, 9, 38, 95
4, 103200, Note_off_c, 9, 44, 95
4, 103200, Note_off_c, 9, 38, 95
4, 103200, Note_on_c, 9, 51, 95
4, 103440, Note_off_c, 9, 51, 95
4, 103440, Note_on_c, 9, 44, 95
4, 103680, Note_off_c, 9, 44, 95
4, 103680, Note_on_c, 9, 49, 95
4, 103680, Note_on_c, 9, 36, 95
4, 104160, Note_off_c, 9, 49, 95
4, 104160, Note_off_c, 9, 36, 95
4, 104160, Note_on_c, 9, 44, 95
4, 104640, Note_off_c, 9, 44, 95
4, 104640, Note_on_c, 9, 44, 95
4, 104640, Note_on_c, 9, 38, 95
4, 105120, Note_off_c, 9, 44, 95
4, 105120, Note_off_c, 9, 38, 95
4, 105120, Note_on_c, 9, 51, 95
4, 105360, Note_off_c, 9, 51, 95
4, 105360, Note_on_c, 9, 44, 95
4, 105600, Note_off_c, 9, 44, 95
4, 105600, Note_on_c, 9, 44, 95
4, 105600, Note_on_c, 9, 36, 95
4, 106080, Note_off_c, 9, 44, 95
4, 106080, Note_off_c, 9, 36, 95
4, 106080, Note_on_c, 9, 44, 95
4, 106560, Note_off_c, 9, 44, 95
4, 106560, Note_on_c, 9, 44, 95
4, 106560, Note_on_c, 9, 38, 95
4, 107040, Note_off_c, 9, 44, 95
4, 107040, Note_off_c, 9, 38, 95
4, 107040, Note_on_c, 9, 51, 95
4, 107280, Note_off_c, 9, 51, 95
4, 107280, Note_on_c, 9, 44, 95
4, 107520, Note_off_c, 9, 44, 95
4, 107520, Note_on_c, 9, 49, 95
4, 107520, Note_on_c, 9, 36, 95
4, 108000, Note_off_c, 9, 49, 95
4, 108000, Note_off_c, 9, 36, 95
4, 108000, Note_on_c, 9, 44, 95
4, 108480, Note_off_c, 9, 44, 95
4, 108480, Note_on_c, 9, 44, 95
4, 108480, Note_on_c, 9, 38, 95
4, 108960, Note_off_c, 9, 44, 95
4, 108960, Note_off_c, 9, 38, 95
4, 108960, Note_on_c, 9, 51, 95
4, 109200, Note_off_c, 9, 51, 95
4, 109200, Note_on_c, 9, 44, 95
4, 109440, Note_off_c, 9, 44, 95
4, 109440, Note_on_c, 9, 44, 95
4, 109440, Note_on_c, 9, 36, 95
4, 109920, Note_off_c, 9, 44, 95
4, 109920, Note_off_c, 9, 36, 95
4, 109920, Note_on_c, 9, 44, 95
4, 110400, Note_off_c, 9, 44, 95
4, 110400, Note_on_c, 9, 44, 95
4, 110400, Note_on_c, 9, 38, 95
4, 110880, Note_off_c, 9, 44, 95
4, 110880, Note_off_c, 9, 38, 95
4, 110880, Note_on_c, 9, 51, 95
4, 111120, Note_off_c, 9, 51, 95
4, 111120, Note_on_c, 9, 44, 95
4, 111360, Note_off_c, 9, 44, 95
4, 111360, Note_on_c, 9, 49, 95
4, 111360, Note_on_c, 9, 36, 95
4, 111840, Note_off_c, 9, 49, 95
4, 111840, Note_off_c, 9, 36, 95
4, 111840, Note_on_c, 9, 44, 95
4, 112320, Note_off_c, 9, 44, 95
4, 112320, Note_on_c, 9, 44, 95
4, 112320, Note_on_c, 9, 38, 95
4, 112800, Note_off_c, 9, 44, 95
4, 112800, Note_off_c, 9, 38, 95
4, 112800, Note_on_c, 9, 51, 95
4, 113040, Note_off_c, 9, 51, 95
4, 113040, Note_on_c, 9, 44, 95
4, 113280, Note_off_c, 9, 44, 95
4, 113280, Note_on_c, 9, 44, 95
4, 113280, Note_on_c, 9, 36, 95
4, 113760, Note_off_c, 9, 44, 95
4, 113760, Note_off_c, 9, 36, 95
4, 113760, Note_on_c, 9, 44, 95
4, 114240, Note_off_c, 9, 44, 95
4, 114240, Note_on_c, 9, 44, 95
4, 114240, Note_on_c, 9, 38, 95
4, 114720, Note_off_c, 9, 44, 95
4, 114720, Note_off_c, 9, 38, 95
4, 114720, Note_on_c, 9, 51, 95
4, 114960, Note_off_c, 9, 51, 95
4, 114960, Note_on_c, 9, 44, 95
4, 115200, Note_off_c, 9, 44, 95
4, 115200, Note_on_c, 9, 49, 95
4, 115200, Note_on_c, 9, 36, 95
4, 115680, Note_off_c, 9, 49, 95
4, 115680, Note_off_c, 9, 36, 95
4, 115680, Note_on_c, 9, 44, 95
4, 116160, Note_off_c, 9, 44, 95
4, 116160, Note_on_c, 9, 44, 95
4, 116160, Note_on_c, 9, 38, 95
4, 116640, Note_off_c, 9, 44, 95
4, 116640, Note_off_c, 9, 38, 95
4, 116640, Note_on_c, 9, 51, 95
4, 116880, Note_off_c, 9, 51, 95
4, 116880, Note_on_c, 9, 44, 95
4, 117120, Note_off_c, 9, 44, 95
4, 117120, Note_on_c, 9, 44, 95
4, 117120, Note_on_c, 9, 36, 95
4, 117600, Note_off_c, 9, 44, 95
4, 117600, Note_off_c, 9, 36, 95
4, 117600, Note_on_c, 9, 44, 95
4, 118080, Note_off_c, 9, 44, 95
4, 118080, Note_on_c, 9, 44, 95
4, 118080, Note_on_c, 9, 38, 95
4, 118560, Note_off_c, 9, 44, 95
4, 118560, Note_off_c, 9, 38, 95
4, 118560, Note_on_c, 9, 51, 95
4, 118800, Note_off_c, 9, 51, 95
4, 118800, Note_on_c, 9, 44, 95
4, 119040, Note_off_c, 9, 44, 95
4, 119040, Note_on_c, 9, 49, 95
4, 119040, Note_on_c, 9, 36, 95
4, 119520, Note_off_c, 9, 49, 95
4, 119520, Note_off_c, 9, 36, 95
4, 119520, Note_on_c, 9, 44, 95
4, 120000, Note_off_c, 9, 44, 95
4, 120000, Note_on_c, 9, 44, 95
4, 120000, Note_on_c, 9, 38, 95
4, 120480, Note_off_c, 9, 44, 95
4, 120480, Note_off_c, 9, 38, 95
4, 120480, Note_on_c, 9, 51, 95
4, 120720, Note_off_c, 9, 51, 95
4, 120720, Note_on_c, 9, 44, 95
4, 120960, Note_off_c, 9, 44, 95
4, 120960, Note_on_c, 9, 44, 95
4, 120960, Note_on_c, 9, 36, 95
4, 121440, Note_off_c, 9, 44, 95
4, 121440, Note_off_c, 9, 36, 95
4, 121440, Note_on_c, 9, 44, 95
4, 121920, Note_off_c, 9, 44, 95
4, 121920, Note_on_c, 9, 44, 95
4, 121920, Note_on_c, 9, 38, 95
4, 122400, Note_off_c, 9, 44, 95
4, 122400, Note_off_c, 9, 38, 95
4, 122400, Note_on_c, 9, 51, 95
4, 122640, Note_off_c, 9, 51, 95
4, 122640, Note_on_c, 9, 44, 95
4, 122880, Note_off_c, 9, 44, 95
4, 122880, Note_on_c, 9, 49, 95
4, 122880, Note_on_c, 9, 36, 95
4, 123360, Note_off_c, 9, 49, 95
4, 123360, Note_off_c, 9, 36, 95
4, 123360, Note_on_c, 9, 44, 95
4, 123840, Note_off_c, 9, 44, 95
4, 123840, Note_on_c, 9, 44, 95
4, 123840, Note_on_c, 9, 38, 95
4, 124320, Note_off_c, 9, 44, 95
4, 124320, Note_off_c, 9, 38, 95
4, 124320, Note_on_c, 9, 51, 95
4, 124560, Note_off_c, 9, 51, 95
4, 124560, Note_on_c, 9, 44, 95
4, 124800, Note_off_c, 9, 44, 95
4, 124800, Note_on_c, 9, 44, 95
4, 124800, Note_on_c, 9, 36, 95
4, 125280, Note_off_c, 9, 44, 95
4, 125280, Note_off_c, 9, 36, 95
4, 125280, Note_on_c, 9, 44, 95
4, 125760, Note_off_c, 9, 44, 95
4, 125760, Note_on_c, 9, 44, 95
4, 125760, Note_on_c, 9, 38, 95
4, 126240, Note_off_c, 9, 44, 95
4, 126240, Note_off_c, 9, 38, 95
4, 126240, Note_on_c, 9, 51, 95
4, 126480, Note_off_c, 9, 51, 95
4, 126480, Note_on_c, 9, 44, 95
4, 126720, Note_off_c, 9, 44, 95
4, 126720, Note_on_c, 9, 49, 95
4, 126720, Note_on_c, 9, 36, 95
4, 127200, Note_off_c, 9, 49, 95
4, 127200, Note_off_c, 9, 36, 95
4, 127200, Note_on_c, 9, 44, 95
4, 127680, Note_off_c, 9, 44, 95
4, 127680, Note_on_c, 9, 44, 95
4, 127680, Note_on_c, 9, 38, 95
4, 128160, Note_off_c, 9, 44, 95
4, 128160, Note_off_c, 9, 38, 95
4, 128160, Note_on_c, 9, 51, 95
4, 128400, Note_off_c, 9, 51, 95
4, 128400, Note_on_c, 9, 44, 95
4, 128640, Note_off_c, 9, 44, 95
4, 128640, Note_on_c, 9, 44, 95
4, 128640, Note_on_c, 9, 36, 95
4, 129120, Note_off_c, 9, 44, 95
4, 129120, Note_off_c, 9, 36, 95
4, 129120, Note_on_c, 9, 44, 95
4, 129600, Note_off_c, 9, 44, 95
4, 129600, Note_on_c, 9, 44, 95
4, 129600, Note_on_c, 9, 38, 95
4, 130080, Note_off_c, 9, 44, 95
4, 130080, Note_off_c, 9, 38, 95
4, 130080, Note_on_c, 9, 51, 95
4, 130320, Note_off_c, 9, 51, 95
4, 130320, Note_on_c, 9, 44, 95
4, 130560, Note_off_c, 9, 44, 95
4, 130560, Note_on_c, 9, 49, 95
4, 130560, Note_on_c, 9, 36, 95
4, 131040, Note_off_c, 9, 49, 95
4, 131040, Note_off_c, 9, 36, 95
4, 131040, Note_on_c, 9, 44, 95
4, 131520, Note_off_c, 9, 44, 95
4, 131520, Note_on_c, 9, 44, 95
4, 131520, Note_on_c, 9, 38, 95
4, 132000, Note_off_c, 9, 44, 95
4, 132000, Note_off_c, 9, 38, 95
4, 132000, Note_on_c, 9, 51, 95
4, 132240, Note_off_c, 9, 51, 95
4, 132240, Note_on_c, 9, 44, 95
4, 132480, Note_off_c, 9, 44, 95
4, 132480, Note_on_c, 9, 44, 95
4, 132480, Note_on_c, 9, 36, 95
4, 132960, Note_off_c, 9, 44, 95
4, 132960, Note_off_c, 9, 36, 95
4, 132960, Note_on_c, 9, 44, 95
4, 133440, Note_off_c, 9, 44, 95
4, 133440, Note_on_c, 9, 44, 95
4, 133440, Note_on_c, 9, 38, 95
4, 133920, Note_off_c, 9, 44, 95
4, 133920, Note_off_c, 9, 38, 95
4, 133920, Note_on_c, 9, 51, 95
4, 134160, Note_off_c, 9, 51, 95
4, 134160, Note_on_c, 9, 44, 95
4, 134160, Note_on_c, 9, 38, 95
4, 134400, Note_off_c, 9, 44, 95
4, 134400, Note_off_c, 9, 38, 95
4, 134400, Note_on_c, 9, 38, 95
4, 134880, Note_off_c, 9, 38, 95
4, 134880, Note_on_c, 9, 49, 95
4, 134880, Note_on_c, 9, 36, 95
4, 136320, Note_off_c, 9, 49, 95
4, 136320, Note_off_c, 9, 36, 95
4, 136320, Note_on_c, 9, 57, 95
4, 136320, Note_on_c, 9, 36, 95
4, 137040, Note_off_c, 9, 57, 95
4, 137040, Note_off_c, 9, 36, 95
4, 137040, Note_on_c, 9, 57, 95
4, 137040, Note_on_c, 9, 36, 95
4, 137760, Note_off_c, 9, 57, 95
4, 137760, Note_off_c, 9, 36, 95
4, 137760, Note_on_c, 9, 49, 95
4, 137760, Note_on_c, 9, 36, 95
4, 138240, Note_off_c, 9, 49, 95
4, 138240, Note_off_c, 9, 36, 95
4, 138240, Note_on_c, 9, 49, 95
4, 138240, Note_on_c, 9, 36, 95
4, 138720, Note_off_c, 9, 49, 95
4, 138720, Note_off_c, 9, 36, 95
4, 138720, Note_on_c, 9, 44, 95
4, 139200, Note_off_c, 9, 44, 95
4, 139200, Note_on_c, 9, 44, 95
4, 139200, Note_on_c, 9, 38, 95
4, 139680, Note_off_c, 9, 44, 95
4, 139680, Note_off_c, 9, 38, 95
4, 139680, Note_on_c, 9, 51, 95
4, 139920, Note_off_c, 9, 51, 95
4, 139920, Note_on_c, 9, 44, 95
4, 140160, Note_off_c, 9, 44, 95
4, 140160, Note_on_c, 9, 44, 95
4, 140160, Note_on_c, 9, 36, 95
4, 140640, Note_off_c, 9, 44, 95
4, 140640, Note_off_c, 9, 36, 95
4, 140640, Note_on_c, 9, 44, 95
4, 141120, Note_off_c, 9, 44, 95
4, 141120, Note_on_c, 9, 44, 95
4, 141120, Note_on_c, 9, 38, 95
4, 141600, Note_off_c, 9, 44, 95
4, 141600, Note_off_c, 9, 38, 95
4, 141600, Note_on_c, 9, 51, 95
4, 141840, Note_off_c, 9, 51, 95
4, 141840, Note_on_c, 9, 44, 95
4, 142080, Note_off_c, 9, 44, 95
4, 142080, Note_on_c, 9, 49, 95
4, 142080, Note_on_c, 9, 36, 95
4, 142560, Note_off_c, 9, 49, 95
4, 142560, Note_off_c, 9, 36, 95
4, 142560, Note_on_c, 9, 44, 95
4, 143040, Note_off_c, 9, 44, 95
4, 143040, Note_on_c, 9, 44, 95
4, 143040, Note_on_c, 9, 38, 95
4, 143520, Note_off_c, 9, 44, 95
4, 143520, Note_off_c, 9, 38, 95
4, 143520, Note_on_c, 9, 51, 95
4, 143760, Note_off_c, 9, 51, 95
4, 143760, Note_on_c, 9, 44, 95
4, 144000, Note_off_c, 9, 44, 95
4, 144000, Note_on_c, 9, 44, 95
4, 144000, Note_on_c, 9, 36, 95
4, 144480, Note_off_c, 9, 44, 95
4, 144480, Note_off_c, 9, 36, 95
4, 144480, Note_on_c, 9, 44, 95
4, 144960, Note_off_c, 9, 44, 95
4, 144960, Note_on_c, 9, 44, 95
4, 144960, Note_on_c, 9, 38, 95
4, 145440, Note_off_c, 9, 44, 95
4, 145440, Note_off_c, 9, 38, 95
4, 145440, Note_on_c, 9, 51, 95
4, 145680, Note_off_c, 9, 51, 95
4, 145680, Note_on_c, 9, 44, 95
4, 145920, Note_off_c, 9, 44, 95
4, 145920, Note_on_c, 9, 49, 95
4, 145920, Note_on_c, 9, 36, 95
4, 146400, Note_off_c, 9, 49, 95
4, 146400, Note_off_c, 9, 36, 95
4, 146400, Note_on_c, 9, 44, 95
4, 146880, Note_off_c, 9, 44, 95
4, 146880, Note_on_c, 9, 44, 95
4, 146880, Note_on_c, 9, 38, 95
4, 147360, Note_off_c, 9, 44, 95
4, 147360, Note_off_c, 9, 38, 95
4, 147360, Note_on_c, 9, 51, 95
4, 147600, Note_off_c, 9, 51, 95
4, 147600, Note_on_c, 9, 44, 95
4, 147840, Note_off_c, 9, 44, 95
4, 147840, Note_on_c, 9, 44, 95
4, 147840, Note_on_c, 9, 36, 95
4, 148320, Note_off_c, 9, 44, 95
4, 148320, Note_off_c, 9, 36, 95
4, 148320, Note_on_c, 9, 44, 95
4, 148800, Note_off_c, 9, 44, 95
4, 148800, Note_on_c, 9, 44, 95
4, 148800, Note_on_c, 9, 38, 95
4, 149280, Note_off_c, 9, 44, 95
4, 149280, Note_off_c, 9, 38, 95
4, 149280, Note_on_c, 9, 51, 95
4, 149520, Note_off_c, 9, 51, 95
4, 149520, Note_on_c, 9, 44, 95
4, 149520, Note_on_c, 9, 38, 95
4, 149760, Note_off_c, 9, 44, 95
4, 149760, Note_off_c, 9, 38, 95
4, 149760, Note_on_c, 9, 38, 95
4, 150240, Note_off_c, 9, 38, 95
4, 150240, Note_on_c, 9, 49, 95
4, 150240, Note_on_c, 9, 36, 95
4, 151680, Note_off_c, 9, 49, 95
4, 151680, Note_off_c, 9, 36, 95
4, 151680, Note_on_c, 9, 57, 95
4, 151680, Note_on_c, 9, 36, 95
4, 152400, Note_off_c, 9, 57, 95
4, 152400, Note_off_c, 9, 36, 95
4, 152400, Note_on_c, 9, 57, 95
4, 152400, Note_on_c, 9, 36, 95
4, 153120, Note_off_c, 9, 57, 95
4, 153120, Note_off_c, 9, 36, 95
4, 153120, Note_on_c, 9, 49, 95
4, 153120, Note_on_c, 9, 36, 95
4, 153600, Note_off_c, 9, 49, 95
4, 153600, Note_off_c, 9, 36, 95
4, 153600, Note_on_c, 9, 49, 95
4, 153600, Note_on_c, 9, 36, 95
4, 155520, Note_off_c, 9, 49, 95
4, 155520, Note_off_c, 9, 36, 95
4, 156960, Note_on_c, 9, 49, 95
4, 156960, Note_on_c, 9, 36, 95
4, 157440, Note_off_c, 9, 49, 95
4, 157440, Note_off_c, 9, 36, 95
4, 161280, Note_on_c, 9, 49, 95
4, 161280, Note_on_c, 9, 36, 95
4, 163200, Note_off_c, 9, 49, 95
4, 163200, Note_off_c, 9, 36, 95
4, 164640, Note_on_c, 9, 49, 95
4, 164640, Note_on_c, 9, 36, 95
4, 165120, Note_off_c, 9, 49, 95
4, 165120, Note_off_c, 9, 36, 95
4, 168960, Note_on_c, 9, 49, 95
4, 168960, Note_on_c, 9, 36, 95
4, 170880, Note_off_c, 9, 49, 95
4, 170880, Note_off_c, 9, 36, 95
4, 172320, Note_on_c, 9, 49, 95
4, 172320, Note_on_c, 9, 36, 95
4, 172800, Note_off_c, 9, 49, 95
4, 172800, Note_off_c, 9, 36, 95
4, 176640, Note_on_c, 9, 49, 95
4, 176640, Note_on_c, 9, 36, 95
4, 178560, Note_off_c, 9, 49, 95
4, 178560, Note_off_c, 9, 36, 95
4, 180000, Note_on_c, 9, 49, 95
4, 180000, Note_on_c, 9, 36, 95
4, 180480, Note_off_c, 9, 49, 95
4, 180480, Note_off_c, 9, 36, 95
4, 181440, Note_on_c, 9, 55, 95
4, 182400, Note_off_c, 9, 55, 95
4, 182400, Note_on_c, 9, 38, 95
4, 183120, Note_off_c, 9, 38, 95
4, 183120, Note_on_c, 9, 47, 95
4, 183360, Note_off_c, 9, 47, 95
4, 183360, Note_on_c, 9, 36, 95
4, 183360, Note_on_c, 9, 47, 95
4, 183840, Note_off_c, 9, 36, 95
4, 183840, Note_off_c, 9, 47, 95
4, 183840, Note_on_c, 9, 45, 95
4, 184080, Note_off_c, 9, 45, 95
4, 184080, Note_on_c, 9, 45, 95
4, 184320, Note_off_c, 9, 45, 95
4, 184320, Note_on_c, 9, 49, 95
4, 184320, Note_on_c, 9, 36, 95
4, 184800, Note_off_c, 9, 49, 95
4, 184800, Note_off_c, 9, 36, 95
4, 184800, Note_on_c, 9, 44, 95
4, 185280, Note_off_c, 9, 44, 95
4, 185280, Note_on_c, 9, 44, 95
4, 185280, Note_on_c, 9, 38, 95
4, 185760, Note_off_c, 9, 44, 95
4, 185760, Note_off_c, 9, 38, 95
4, 185760, Note_on_c, 9, 51, 95
4, 186000, Note_off_c, 9, 51, 95
4, 186000, Note_on_c, 9, 44, 95
4, 186240, Note_off_c, 9, 44, 95
4, 186240, Note_on_c, 9, 44, 95
4, 186240, Note_on_c, 9, 36, 95
4, 186720, Note_off_c, 9, 44, 95
4, 186720, Note_off_c, 9, 36, 95
4, 186720, Note_on_c, 9, 44, 95
4, 187200, Note_off_c, 9, 44, 95
4, 187200, Note_on_c, 9, 44, 95
4, 187200, Note_on_c, 9, 38, 95
4, 187680, Note_off_c, 9, 44, 95
4, 187680, Note_off_c, 9, 38, 95
4, 187680, Note_on_c, 9, 51, 95
4, 187920, Note_off_c, 9, 51, 95
4, 187920, Note_on_c, 9, 44, 95
4, 188160, Note_off_c, 9, 44, 95
4, 188160, Note_on_c, 9, 49, 95
4, 188160, Note_on_c, 9, 36, 95
4, 188640, Note_off_c, 9, 49, 95
4, 188640, Note_off_c, 9, 36, 95
4, 188640, Note_on_c, 9, 44, 95
4, 189120, Note_off_c, 9, 44, 95
4, 189120, Note_on_c, 9, 44, 95
4, 189120, Note_on_c, 9, 38, 95
4, 189600, Note_off_c, 9, 44, 95
4, 189600, Note_off_c, 9, 38, 95
4, 189600, Note_on_c, 9, 51, 95
4, 189840, Note_off_c, 9, 51, 95
4, 189840, Note_on_c, 9, 44, 95
4, 190080, Note_off_c, 9, 44, 95
4, 190080, Note_on_c, 9, 44, 95
4, 190080, Note_on_c, 9, 36, 95
4, 190560, Note_off_c, 9, 44, 95
4, 190560, Note_off_c, 9, 36, 95
4, 190560, Note_on_c, 9, 44, 95
4, 191040, Note_off_c, 9, 44, 95
4, 191040, Note_on_c, 9, 44, 95
4, 191040, Note_on_c, 9, 38, 95
4, 191520, Note_off_c, 9, 44, 95
4, 191520, Note_off_c, 9, 38, 95
4, 191520, Note_on_c, 9, 51, 95
4, 191760, Note_off_c, 9, 51, 95
4, 191760, Note_on_c, 9, 44, 95
4, 192000, Note_off_c, 9, 44, 95
4, 192000, Note_on_c, 9, 49, 95
4, 192000, Note_on_c, 9, 36, 95
4, 192480, Note_off_c, 9, 49, 95
4, 192480, Note_off_c, 9, 36, 95
4, 192480, Note_on_c, 9, 44, 95
4, 192960, Note_off_c, 9, 44, 95
4, 192960, Note_on_c, 9, 44, 95
4, 192960, Note_on_c, 9, 38, 95
4, 193440, Note_off_c, 9, 44, 95
4, 193440, Note_off_c, 9, 38, 95
4, 193440, Note_on_c, 9, 51, 95
4, 193680, Note_off_c, 9, 51, 95
4, 193680, Note_on_c, 9, 44, 95
4, 193920, Note_off_c, 9, 44, 95
4, 193920, Note_on_c, 9, 44, 95
4, 193920, Note_on_c, 9, 36, 95
4, 194400, Note_off_c, 9, 44, 95
4, 194400, Note_off_c, 9, 36, 95
4, 194400, Note_on_c, 9, 44, 95
4, 194880, Note_off_c, 9, 44, 95
4, 194880, Note_on_c, 9, 44, 95
4, 194880, Note_on_c, 9, 38, 95
4, 195360, Note_off_c, 9, 44, 95
4, 195360, Note_off_c, 9, 38, 95
4, 195360, Note_on_c, 9, 51, 95
4, 195600, Note_off_c, 9, 51, 95
4, 195600, Note_on_c, 9, 44, 95
4, 195840, Note_off_c, 9, 44, 95
4, 195840, Note_on_c, 9, 49, 95
4, 195840, Note_on_c, 9, 36, 95
4, 196320, Note_off_c, 9, 49, 95
4, 196320, Note_off_c, 9, 36, 95
4, 196320, Note_on_c, 9, 44, 95
4, 196800, Note_off_c, 9, 44, 95
4, 196800, Note_on_c, 9, 44, 95
4, 196800, Note_on_c, 9, 38, 95
4, 197280, Note_off_c, 9, 44, 95
4, 197280, Note_off_c, 9, 38, 95
4, 197280, Note_on_c, 9, 51, 95
4, 197520, Note_off_c, 9, 51, 95
4, 197520, Note_on_c, 9, 44, 95
4, 197760, Note_off_c, 9, 44, 95
4, 197760, Note_on_c, 9, 44, 95
4, 197760, Note_on_c, 9, 36, 95
4, 198240, Note_off_c, 9, 44, 95
4, 198240, Note_off_c, 9, 36, 95
4, 198240, Note_on_c, 9, 44, 95
4, 198720, Note_off_c, 9, 44, 95
4, 198720, Note_on_c, 9, 44, 95
4, 198720, Note_on_c, 9, 38, 95
4, 199200, Note_off_c, 9, 44, 95
4, 199200, Note_off_c, 9, 38, 95
4, 199200, Note_on_c, 9, 51, 95
4, 199440, Note_off_c, 9, 51, 95
4, 199440, Note_on_c, 9, 44, 95
4, 199680, Note_off_c, 9, 44, 95
4, 199680, Note_on_c, 9, 49, 95
4, 199680, Note_on_c, 9, 36, 95
4, 200160, Note_off_c, 9, 49, 95
4, 200160, Note_off_c, 9, 36, 95
4, 200160, Note_on_c, 9, 44, 95
4, 200640, Note_off_c, 9, 44, 95
4, 200640, Note_on_c, 9, 44, 95
4, 200640, Note_on_c, 9, 38, 95
4, 201120, Note_off_c, 9, 44, 95
4, 201120, Note_off_c, 9, 38, 95
4, 201120, Note_on_c, 9, 51, 95
4, 201360, Note_off_c, 9, 51, 95
4, 201360, Note_on_c, 9, 44, 95
4, 201600, Note_off_c, 9, 44, 95
4, 201600, Note_on_c, 9, 44, 95
4, 201600, Note_on_c, 9, 36, 95
4, 202080, Note_off_c, 9, 44, 95
4, 202080, Note_off_c, 9, 36, 95
4, 202080, Note_on_c, 9, 44, 95
4, 202560, Note_off_c, 9, 44, 95
4, 202560, Note_on_c, 9, 44, 95
4, 202560, Note_on_c, 9, 38, 95
4, 203040, Note_off_c, 9, 44, 95
4, 203040, Note_off_c, 9, 38, 95
4, 203040, Note_on_c, 9, 51, 95
4, 203280, Note_off_c, 9, 51, 95
4, 203280, Note_on_c, 9, 44, 95
4, 203520, Note_off_c, 9, 44, 95
4, 203520, Note_on_c, 9, 49, 95
4, 203520, Note_on_c, 9, 36, 95
4, 204000, Note_off_c, 9, 49, 95
4, 204000, Note_off_c, 9, 36, 95
4, 204000, Note_on_c, 9, 44, 95
4, 204480, Note_off_c, 9, 44, 95
4, 204480, Note_on_c, 9, 44, 95
4, 204480, Note_on_c, 9, 38, 95
4, 204960, Note_off_c, 9, 44, 95
4, 204960, Note_off_c, 9, 38, 95
4, 204960, Note_on_c, 9, 51, 95
4, 205200, Note_off_c, 9, 51, 95
4, 205200, Note_on_c, 9, 44, 95
4, 205440, Note_off_c, 9, 44, 95
4, 205440, Note_on_c, 9, 44, 95
4, 205440, Note_on_c, 9, 36, 95
4, 205920, Note_off_c, 9, 44, 95
4, 205920, Note_off_c, 9, 36, 95
4, 205920, Note_on_c, 9, 44, 95
4, 206400, Note_off_c, 9, 44, 95
4, 206400, Note_on_c, 9, 44, 95
4, 206400, Note_on_c, 9, 38, 95
4, 206880, Note_off_c, 9, 44, 95
4, 206880, Note_off_c, 9, 38, 95
4, 206880, Note_on_c, 9, 51, 95
4, 207120, Note_off_c, 9, 51, 95
4, 207120, Note_on_c, 9, 44, 95
4, 207360, Note_off_c, 9, 44, 95
4, 207360, Note_on_c, 9, 49, 95
4, 207360, Note_on_c, 9, 36, 95
4, 207840, Note_off_c, 9, 49, 95
4, 207840, Note_off_c, 9, 36, 95
4, 207840, Note_on_c, 9, 44, 95
4, 208320, Note_off_c, 9, 44, 95
4, 208320, Note_on_c, 9, 44, 95
4, 208320, Note_on_c, 9, 38, 95
4, 208800, Note_off_c, 9, 44, 95
4, 208800, Note_off_c, 9, 38, 95
4, 208800, Note_on_c, 9, 51, 95
4, 209040, Note_off_c, 9, 51, 95
4, 209040, Note_on_c, 9, 44, 95
4, 209280, Note_off_c, 9, 44, 95
4, 209280, Note_on_c, 9, 44, 95
4, 209280, Note_on_c, 9, 36, 95
4, 209760, Note_off_c, 9, 44, 95
4, 209760, Note_off_c, 9, 36, 95
4, 209760, Note_on_c, 9, 44, 95
4, 210240, Note_off_c, 9, 44, 95
4, 210240, Note_on_c, 9, 44, 95
4, 210240, Note_on_c, 9, 38, 95
4, 210720, Note_off_c, 9, 44, 95
4, 210720, Note_off_c, 9, 38, 95
4, 210720, Note_on_c, 9, 51, 95
4, 210960, Note_off_c, 9, 51, 95
4, 210960, Note_on_c, 9, 44, 95
4, 211200, Note_off_c, 9, 44, 95
4, 211200, Note_on_c, 9, 49, 95
4, 211200, Note_on_c, 9, 36, 95
4, 211680, Note_off_c, 9, 49, 95
4, 211680, Note_off_c, 9, 36, 95
4, 211680, Note_on_c, 9, 44, 95
4, 212160, Note_off_c, 9, 44, 95
4, 212160, Note_on_c, 9, 44, 95
4, 212160, Note_on_c, 9, 38, 95
4, 212640, Note_off_c, 9, 44, 95
4, 212640, Note_off_c, 9, 38, 95
4, 212640, Note_on_c, 9, 51, 95
4, 212880, Note_off_c, 9, 51, 95
4, 212880, Note_on_c, 9, 44, 95
4, 213120, Note_off_c, 9, 44, 95
4, 213120, Note_on_c, 9, 44, 95
4, 213120, Note_on_c, 9, 36, 95
4, 213600, Note_off_c, 9, 44, 95
4, 213600, Note_off_c, 9, 36, 95
4, 213600, Note_on_c, 9, 44, 95
4, 214080, Note_off_c, 9, 44, 95
4, 214080, Note_on_c, 9, 44, 95
4, 214080, Note_on_c, 9, 38, 95
4, 214560, Note_off_c, 9, 44, 95
4, 214560, Note_off_c, 9, 38, 95
4, 214560, Note_on_c, 9, 51, 95
4, 214800, Note_off_c, 9, 51, 95
4, 214800, Note_on_c, 9, 44, 95
4, 215040, Note_off_c, 9, 44, 95
4, 215040, Note_on_c, 9, 49, 95
4, 215040, Note_on_c, 9, 36, 95
4, 215520, Note_off_c, 9, 49, 95
4, 215520, Note_off_c, 9, 36, 95
4, 215520, Note_on_c, 9, 44, 95
4, 216000, Note_off_c, 9, 44, 95
4, 216000, Note_on_c, 9, 44, 95
4, 216000, Note_on_c, 9, 38, 95
4, 216480, Note_off_c, 9, 44, 95
4, 216480, Note_off_c, 9, 38, 95
4, 216480, Note_on_c, 9, 51, 95
4, 216720, Note_off_c, 9, 51, 95
4, 216720, Note_on_c, 9, 44, 95
4, 216960, Note_off_c, 9, 44, 95
4, 216960, Note_on_c, 9, 44, 95
4, 216960, Note_on_c, 9, 36, 95
4, 217440, Note_off_c, 9, 44, 95
4, 217440, Note_off_c, 9, 36, 95
4, 217440, Note_on_c, 9, 44, 95
4, 217920, Note_off_c, 9, 44, 95
4, 217920, Note_on_c, 9, 44, 95
4, 217920, Note_on_c, 9, 38, 95
4, 218400, Note_off_c, 9, 44, 95
4, 218400, Note_off_c, 9, 38, 95
4, 218400, Note_on_c, 9, 51, 95
4, 218640, Note_off_c, 9, 51, 95
4, 218640, Note_on_c, 9, 44, 95
4, 218880, Note_off_c, 9, 44, 95
4, 218880, Note_on_c, 9, 49, 95
4, 218880, Note_on_c, 9, 36, 95
4, 219360, Note_off_c, 9, 49, 95
4, 219360, Note_off_c, 9, 36, 95
4, 219360, Note_on_c, 9, 44, 95
4, 219840, Note_off_c, 9, 44, 95
4, 219840, Note_on_c, 9, 44, 95
4, 219840, Note_on_c, 9, 38, 95
4, 220320, Note_off_c, 9, 44, 95
4, 220320, Note_off_c, 9, 38, 95
4, 220320, Note_on_c, 9, 51, 95
4, 220560, Note_off_c, 9, 51, 95
4, 220560, Note_on_c, 9, 44, 95
4, 220800, Note_off_c, 9, 44, 95
4, 220800, Note_on_c, 9, 44, 95
4, 220800, Note_on_c, 9, 36, 95
4, 221280, Note_off_c, 9, 44, 95
4, 221280, Note_off_c, 9, 36, 95
4, 221280, Note_on_c, 9, 44, 95
4, 221760, Note_off_c, 9, 44, 95
4, 221760, Note_on_c, 9, 44, 95
4, 221760, Note_on_c, 9, 38, 95
4, 222240, Note_off_c, 9, 44, 95
4, 222240, Note_off_c, 9, 38, 95
4, 222240, Note_on_c, 9, 51, 95
4, 222480, Note_off_c, 9, 51, 95
4, 222480, Note_on_c, 9, 44, 95
4, 222720, Note_off_c, 9, 44, 95
4, 222720, Note_on_c, 9, 49, 95
4, 222720, Note_on_c, 9, 36, 95
4, 223200, Note_off_c, 9, 49, 95
4, 223200, Note_off_c, 9, 36, 95
4, 223200, Note_on_c, 9, 44, 95
4, 223680, Note_off_c, 9, 44, 95
4, 223680, Note_on_c, 9, 44, 95
4, 223680, Note_on_c, 9, 38, 95
4, 224160, Note_off_c, 9, 44, 95
4, 224160, Note_off_c, 9, 38, 95
4, 224160, Note_on_c, 9, 51, 95
4, 224400, Note_off_c, 9, 51, 95
4, 224400, Note_on_c, 9, 44, 95
4, 224640, Note_off_c, 9, 44, 95
4, 224640, Note_on_c, 9, 44, 95
4, 224640, Note_on_c, 9, 36, 95
4, 225120, Note_off_c, 9, 44, 95
4, 225120, Note_off_c, 9, 36, 95
4, 225120, Note_on_c, 9, 44, 95
4, 225600, Note_off_c, 9, 44, 95
4, 225600, Note_on_c, 9, 44, 95
4, 225600, Note_on_c, 9, 38, 95
4, 226080, Note_off_c, 9, 44, 95
4, 226080, Note_off_c, 9, 38, 95
4, 226080, Note_on_c, 9, 51, 95
4, 226320, Note_off_c, 9, 51, 95
4, 226320, Note_on_c, 9, 44, 95
4, 226560, Note_off_c, 9, 44, 95
4, 226560, Note_on_c, 9, 49, 95
4, 226560, Note_on_c, 9, 36, 95
4, 227040, Note_off_c, 9, 49, 95
4, 227040, Note_off_c, 9, 36, 95
4, 227040, Note_on_c, 9, 44, 95
4, 227520, Note_off_c, 9, 44, 95
4, 227520, Note_on_c, 9, 44, 95
4, 227520, Note_on_c, 9, 38, 95
4, 228000, Note_off_c, 9, 44, 95
4, 228000, Note_off_c, 9, 38, 95
4, 228000, Note_on_c, 9, 51, 95
4, 228240, Note_off_c, 9, 51, 95
4, 228240, Note_on_c, 9, 44, 95
4, 228480, Note_off_c, 9, 44, 95
4, 228480, Note_on_c, 9, 44, 95
4, 228480, Note_on_c, 9, 36, 95
4, 228960, Note_off_c, 9, 44, 95
4, 228960, Note_off_c, 9, 36, 95
4, 228960, Note_on_c, 9, 44, 95
4, 229440, Note_off_c, 9, 44, 95
4, 229440, Note_on_c, 9, 44, 95
4, 229440, Note_on_c, 9, 38, 95
4, 229920, Note_off_c, 9, 44, 95
4, 229920, Note_off_c, 9, 38, 95
4, 229920, Note_on_c, 9, 51, 95
4, 230160, Note_off_c, 9, 51, 95
4, 230160, Note_on_c, 9, 44, 95
4, 230400, Note_off_c, 9, 44, 95
4, 230400, Note_on_c, 9, 49, 95
4, 230400, Note_on_c, 9, 36, 95
4, 230880, Note_off_c, 9, 49, 95
4, 230880, Note_off_c, 9, 36, 95
4, 230880, Note_on_c, 9, 44, 95
4, 231360, Note_off_c, 9, 44, 95
4, 231360, Note_on_c, 9, 44, 95
4, 231360, Note_on_c, 9, 38, 95
4, 231840, Note_off_c, 9, 44, 95
4, 231840, Note_off_c, 9, 38, 95
4, 231840, Note_on_c, 9, 51, 95
4, 232080, Note_off_c, 9, 51, 95
4, 232080, Note_on_c, 9, 44, 95
4, 232320, Note_off_c, 9, 44, 95
4, 232320, Note_on_c, 9, 44, 95
4, 232320, Note_on_c, 9, 36, 95
4, 232800, Note_off_c, 9, 44, 95
4, 232800, Note_off_c, 9, 36, 95
4, 232800, Note_on_c, 9, 44, 95
4, 233280, Note_off_c, 9, 44, 95
4, 233280, Note_on_c, 9, 44, 95
4, 233280, Note_on_c, 9, 38, 95
4, 233760, Note_off_c, 9, 44, 95
4, 233760, Note_off_c, 9, 38, 95
4, 233760, Note_on_c, 9, 51, 95
4, 234000, Note_off_c, 9, 51, 95
4, 234000, Note_on_c, 9, 44, 95
4, 234240, Note_off_c, 9, 44, 95
4, 234240, Note_on_c, 9, 49, 95
4, 234240, Note_on_c, 9, 36, 95
4, 234720, Note_off_c, 9, 49, 95
4, 234720, Note_off_c, 9, 36, 95
4, 234720, Note_on_c, 9, 44, 95
4, 235200, Note_off_c, 9, 44, 95
4, 235200, Note_on_c, 9, 44, 95
4, 235200, Note_on_c, 9, 38, 95
4, 235680, Note_off_c, 9, 44, 95
4, 235680, Note_off_c, 9, 38, 95
4, 235680, Note_on_c, 9, 51, 95
4, 235920, Note_off_c, 9, 51, 95
4, 235920, Note_on_c, 9, 44, 95
4, 236160, Note_off_c, 9, 44, 95
4, 236160, Note_on_c, 9, 44, 95
4, 236160, Note_on_c, 9, 36, 95
4, 236640, Note_off_c, 9, 44, 95
4, 236640, Note_off_c, 9, 36, 95
4, 236640, Note_on_c, 9, 44, 95
4, 237120, Note_off_c, 9, 44, 95
4, 237120, Note_on_c, 9, 44, 95
4, 237120, Note_on_c, 9, 38, 95
4, 237600, Note_off_c, 9, 44, 95
4, 237600, Note_off_c, 9, 38, 95
4, 237600, Note_on_c, 9, 51, 95
4, 237840, Note_off_c, 9, 51, 95
4, 237840, Note_on_c, 9, 44, 95
4, 238080, Note_off_c, 9, 44, 95
4, 238080, Note_on_c, 9, 49, 95
4, 238080, Note_on_c, 9, 36, 95
4, 238560, Note_off_c, 9, 49, 95
4, 238560, Note_off_c, 9, 36, 95
4, 238560, Note_on_c, 9, 44, 95
4, 239040, Note_off_c, 9, 44, 95
4, 239040, Note_on_c, 9, 44, 95
4, 239040, Note_on_c, 9, 38, 95
4, 239520, Note_off_c, 9, 44, 95
4, 239520, Note_off_c, 9, 38, 95
4, 239520, Note_on_c, 9, 51, 95
4, 239760, Note_off_c, 9, 51, 95
4, 239760, Note_on_c, 9, 44, 95
4, 240000, Note_off_c, 9, 44, 95
4, 240000, Note_on_c, 9, 44, 95
4, 240000, Note_on_c, 9, 36, 95
4, 240480, Note_off_c, 9, 44, 95
4, 240480, Note_off_c, 9, 36, 95
4, 240480, Note_on_c, 9, 44, 95
4, 240960, Note_off_c, 9, 44, 95
4, 240960, Note_on_c, 9, 44, 95
4, 240960, Note_on_c, 9, 38, 95
4, 241440, Note_off_c, 9, 44, 95
4, 241440, Note_off_c, 9, 38, 95
4, 241440, Note_on_c, 9, 51, 95
4, 241680, Note_off_c, 9, 51, 95
4, 241680, Note_on_c, 9, 44, 95
4, 241920, Note_off_c, 9, 44, 95
4, 241920, Note_on_c, 9, 49, 95
4, 241920, Note_on_c, 9, 36, 95
4, 242400, Note_off_c, 9, 49, 95
4, 242400, Note_off_c, 9, 36, 95
4, 242400, Note_on_c, 9, 44, 95
4, 242880, Note_off_c, 9, 44, 95
4, 242880, Note_on_c, 9, 44, 95
4, 242880, Note_on_c, 9, 38, 95
4, 243360, Note_off_c, 9, 44, 95
4, 243360, Note_off_c, 9, 38, 95
4, 243360, Note_on_c, 9, 51, 95
4, 243600, Note_off_c, 9, 51, 95
4, 243600, Note_on_c, 9, 44, 95
4, 243840, Note_off_c, 9, 44, 95
4, 243840, Note_on_c, 9, 44, 95
4, 243840, Note_on_c, 9, 36, 95
4, 244320, Note_off_c, 9, 44, 95
4, 244320, Note_off_c, 9, 36, 95
4, 244320, Note_on_c, 9, 44, 95
4, 244800, Note_off_c, 9, 44, 95
4, 244800, Note_on_c, 9, 44, 95
4, 244800, Note_on_c, 9, 38, 95
4, 245280, Note_off_c, 9, 44, 95
4, 245280, Note_off_c, 9, 38, 95
4, 245280, Note_on_c, 9, 51, 95
4, 245520, Note_off_c, 9, 51, 95
4, 245520, Note_on_c, 9, 44, 95
4, 245760, Note_off_c, 9, 44, 95
4, 245760, Note_on_c, 9, 49, 95
4, 245760, Note_on_c, 9, 36, 95
4, 246240, Note_off_c, 9, 49, 95
4, 246240, Note_off_c, 9, 36, 95
4, 246240, Note_on_c, 9, 44, 95
4, 246720, Note_off_c, 9, 44, 95
4, 246720, Note_on_c, 9, 44, 95
4, 246720, Note_on_c, 9, 38, 95
4, 247200, Note_off_c, 9, 44, 95
4, 247200, Note_off_c, 9, 38, 95
4, 247200, Note_on_c, 9, 51, 95
4, 247440, Note_off_c, 9, 51, 95
4, 247440, Note_on_c, 9, 44, 95
4, 247680, Note_off_c, 9, 44, 95
4, 247680, Note_on_c, 9, 44, 95
4, 247680, Note_on_c, 9, 36, 95
4, 248160, Note_off_c, 9, 44, 95
4, 248160, Note_off_c, 9, 36, 95
4, 248160, Note_on_c, 9, 44, 95
4, 248640, Note_off_c, 9, 44, 95
4, 248640, Note_on_c, 9, 44, 95
4, 248640, Note_on_c, 9, 38, 95
4, 249120, Note_off_c, 9, 44, 95
4, 249120, Note_off_c, 9, 38, 95
4, 249120, Note_on_c, 9, 51, 95
4, 249360, Note_off_c, 9, 51, 95
4, 249360, Note_on_c, 9, 44, 95
4, 249600, Note_off_c, 9, 44, 95
4, 249600, Note_on_c, 9, 49, 95
4, 249600, Note_on_c, 9, 36, 95
4, 250080, Note_off_c, 9, 49, 95
4, 250080, Note_off_c, 9, 36, 95
4, 250080, Note_on_c, 9, 44, 95
4, 250560, Note_off_c, 9, 44, 95
4, 250560, Note_on_c, 9, 44, 95
4, 250560, Note_on_c, 9, 38, 95
4, 251040, Note_off_c, 9, 44, 95
4, 251040, Note_off_c, 9, 38, 95
4, 251040, Note_on_c, 9, 51, 95
4, 251280, Note_off_c, 9, 51, 95
4, 251280, Note_on_c, 9, 44, 95
4, 251520, Note_off_c, 9, 44, 95
4, 251520, Note_on_c, 9, 44, 95
4, 251520, Note_on_c, 9, 36, 95
4, 252000, Note_off_c, 9, 44, 95
4, 252000, Note_off_c, 9, 36, 95
4, 252000, Note_on_c, 9, 44, 95
4, 252480, Note_off_c, 9, 44, 95
4, 252480, Note_on_c, 9, 44, 95
4, 252480, Note_on_c, 9, 38, 95
4, 252960, Note_off_c, 9, 44, 95
4, 252960, Note_off_c, 9, 38, 95
4, 252960, Note_on_c, 9, 51, 95
4, 253200, Note_off_c, 9, 51, 95
4, 253200, Note_on_c, 9, 44, 95
4, 253440, Note_off_c, 9, 44, 95
4, 253440, Note_on_c, 9, 49, 95
4, 253440, Note_on_c, 9, 36, 95
4, 253920, Note_off_c, 9, 49, 95
4, 253920, Note_off_c, 9, 36, 95
4, 253920, Note_on_c, 9, 44, 95
4, 254400, Note_off_c, 9, 44, 95
4, 254400, Note_on_c, 9, 44, 95
4, 254400, Note_on_c, 9, 38, 95
4, 254880, Note_off_c, 9, 44, 95
4, 254880, Note_off_c, 9, 38, 95
4, 254880, Note_on_c, 9, 51, 95
4, 255120, Note_off_c, 9, 51, 95
4, 255120, Note_on_c, 9, 44, 95
4, 255360, Note_off_c, 9, 44, 95
4, 255360, Note_on_c, 9, 44, 95
4, 255360, Note_on_c, 9, 36, 95
4, 255840, Note_off_c, 9, 44, 95
4, 255840, Note_off_c, 9, 36, 95
4, 255840, Note_on_c, 9, 44, 95
4, 256320, Note_off_c, 9, 44, 95
4, 256320, Note_on_c, 9, 44, 95
4, 256320, Note_on_c, 9, 38, 95
4, 256800, Note_off_c, 9, 44, 95
4, 256800, Note_off_c, 9, 38, 95
4, 256800, Note_on_c, 9, 51, 95
4, 257040, Note_off_c, 9, 51, 95
4, 257040, Note_on_c, 9, 44, 95
4, 257040, Note_on_c, 9, 38, 95
4, 257280, Note_off_c, 9, 44, 95
4, 257280, Note_off_c, 9, 38, 95
4, 257280, Note_on_c, 9, 38, 95
4, 257760, Note_off_c, 9, 38, 95
4, 257760, Note_on_c, 9, 49, 95
4, 257760, Note_on_c, 9, 36, 95
4, 259200, Note_off_c, 9, 49, 95
4, 259200, Note_off_c, 9, 36, 95
4, 259200, Note_on_c, 9, 57, 95
4, 259200, Note_on_c, 9, 36, 95
4, 259920, Note_off_c, 9, 57, 95
4, 259920, Note_off_c, 9, 36, 95
4, 259920, Note_on_c, 9, 57, 95
4, 259920, Note_on_c, 9, 36, 95
4, 260640, Note_off_c, 9, 57, 95
4, 260640, Note_off_c, 9, 36, 95
4, 260640, Note_on_c, 9, 49, 95
4, 260640, Note_on_c, 9, 36, 95
4, 261120, Note_off_c, 9, 49, 95
4, 261120, Note_off_c, 9, 36, 95
4, 261120, Note_on_c, 9, 49, 95
4, 261120, Note_on_c, 9, 36, 95
4, 261600, Note_off_c, 9, 49, 95
4, 261600, Note_off_c, 9, 36, 95
4, 261600, Note_on_c, 9, 44, 95
4, 262080, Note_off_c, 9, 44, 95
4, 262080, Note_on_c, 9, 44, 95
4, 262080, Note_on_c, 9, 38, 95
4, 262560, Note_off_c, 9, 44, 95
4, 262560, Note_off_c, 9, 38, 95
4, 262560, Note_on_c, 9, 51, 95
4, 262800, Note_off_c, 9, 51, 95
4, 262800, Note_on_c, 9, 44, 95
4, 263040, Note_off_c, 9, 44, 95
4, 263040, Note_on_c, 9, 44, 95
4, 263040, Note_on_c, 9, 36, 95
4, 263520, Note_off_c, 9, 44, 95
4, 263520, Note_off_c, 9, 36, 95
4, 263520, Note_on_c, 9, 44, 95
4, 264000, Note_off_c, 9, 44, 95
4, 264000, Note_on_c, 9, 44, 95
4, 264000, Note_on_c, 9, 38, 95
4, 264480, Note_off_c, 9, 44, 95
4, 264480, Note_off_c, 9, 38, 95
4, 264480, Note_on_c, 9, 51, 95
4, 264720, Note_off_c, 9, 51, 95
4, 264720, Note_on_c, 9, 44, 95
4, 264960, Note_off_c, 9, 44, 95
4, 264960, Note_on_c, 9, 49, 95
4, 264960, Note_on_c, 9, 36, 95
4, 265440, Note_off_c, 9, 49, 95
4, 265440, Note_off_c, 9, 36, 95
4, 265440, Note_on_c, 9, 44, 95
4, 265920, Note_off_c, 9, 44, 95
4, 265920, Note_on_c, 9, 44, 95
4, 265920, Note_on_c, 9, 38, 95
4, 266400, Note_off_c, 9, 44, 95
4, 266400, Note_off_c, 9, 38, 95
4, 266400, Note_on_c, 9, 51, 95
4, 266640, Note_off_c, 9, 51, 95
4, 266640, Note_on_c, 9, 44, 95
4, 266880, Note_off_c, 9, 44, 95
4, 266880, Note_on_c, 9, 44, 95
4, 266880, Note_on_c, 9, 36, 95
4, 267360, Note_off_c, 9, 44, 95
4, 267360, Note_off_c, 9, 36, 95
4, 267360, Note_on_c, 9, 44, 95
4, 267840, Note_off_c, 9, 44, 95
4, 267840, Note_on_c, 9, 44, 95
4, 267840, Note_on_c, 9, 38, 95
4, 268320, Note_off_c, 9, 44, 95
4, 268320, Note_off_c, 9, 38, 95
4, 268320, Note_on_c, 9, 51, 95
4, 268560, Note_off_c, 9, 51, 95
4, 268560, Note_on_c, 9, 44, 95
4, 268800, Note_off_c, 9, 44, 95
4, 268800, Note_on_c, 9, 49, 95
4, 268800, Note_on_c, 9, 36, 95
4, 269280, Note_off_c, 9, 49, 95
4, 269280, Note_off_c, 9, 36, 95
4, 269280, Note_on_c, 9, 44, 95
4, 269760, Note_off_c, 9, 44, 95
4, 269760, Note_on_c, 9, 44, 95
4, 269760, Note_on_c, 9, 38, 95
4, 270240, Note_off_c, 9, 44, 95
4, 270240, Note_off_c, 9, 38, 95
4, 270240, Note_on_c, 9, 51, 95
4, 270480, Note_off_c, 9, 51, 95
4, 270480, Note_on_c, 9, 44, 95
4, 270720, Note_off_c, 9, 44, 95
4, 270720, Note_on_c, 9, 44, 95
4, 270720, Note_on_c, 9, 36, 95
4, 271200, Note_off_c, 9, 44, 95
4, 271200, Note_off_c, 9, 36, 95
4, 271200, Note_on_c, 9, 44, 95
4, 271680, Note_off_c, 9, 44, 95
4, 271680, Note_on_c, 9, 44, 95
4, 271680, Note_on_c, 9, 38, 95
4, 272160, Note_off_c, 9, 44, 95
4, 272160, Note_off_c, 9, 38, 95
4, 272160, Note_on_c, 9, 51, 95
4, 272400, Note_off_c, 9, 51, 95
4, 272400, Note_on_c, 9, 44, 95
4, 272400, Note_on_c, 9, 38, 95
4, 272640, Note_off_c, 9, 44, 95
4, 272640, Note_off_c, 9, 38, 95
4, 272640, Note_on_c, 9, 38, 95
4, 273120, Note_off_c, 9, 38, 95
4, 273120, Note_on_c, 9, 49, 95
4, 273120, Note_on_c, 9, 36, 95
4, 274560, Note_off_c, 9, 49, 95
4, 274560, Note_off_c, 9, 36, 95
4, 274560, Note_on_c, 9, 57, 95
4, 274560, Note_on_c, 9, 36, 95
4, 275280, Note_off_c, 9, 57, 95
4, 275280, Note_off_c, 9, 36, 95
4, 275280, Note_on_c, 9, 57, 95
4, 275280, Note_on_c, 9, 36, 95
4, 276000, Note_off_c, 9, 57, 95
4, 276000, Note_off_c, 9, 36, 95
4, 276000, Note_on_c, 9, 49, 95
4, 276000, Note_on_c, 9, 36, 95
4, 276480, Note_off_c, 9, 49, 95
4, 276480, Note_off_c, 9, 36, 95
4, 276480, End_track
5, 0, Start_track
5, 0, Pitch_bend_c, 4, 8192
5, 0, Control_c, 4, 7, 103
5, 0, Control_c, 4, 10, 63
5, 0, Control_c, 4, 93, 0
5, 0, Control_c, 4, 91, 0
5, 0, Control_c, 4, 95, 0
5, 0, Control_c, 4, 92, 0
5, 0, Control_c, 4, 11, 127
5, 0, Program_c, 4, 30
5, 0, Control_c, 5, 7, 103
5, 0, Control_c, 5, 10, 63
5, 0, Control_c, 5, 93, 0
5, 0, Control_c, 5, 91, 0
5, 0, Control_c, 5, 95, 0
5, 0, Control_c, 5, 92, 0
5, 0, Control_c, 5, 11, 127
5, 0, Program_c, 5, 30
5, 15360, Note_on_c, 4, 52, 95
5, 15360, Note_on_c, 4, 47, 95
5, 15360, Note_on_c, 4, 40, 95
5, 15840, Note_off_c, 4, 52, 95
5, 15840, Note_off_c, 4, 47, 95
5, 15840, Note_off_c, 4, 40, 95
5, 18720, Note_on_c, 4, 55, 95
5, 18720, Note_on_c, 4, 50, 95
5, 18720, Note_on_c, 4, 43, 95
5, 19200, Note_off_c, 4, 55, 95
5, 19200, Note_off_c, 4, 50, 95
5, 19200, Note_off_c, 4, 43, 95
5, 23040, Note_on_c, 4, 60, 95
5, 23040, Note_on_c, 4, 55, 95
5, 23040, Note_on_c, 4, 48, 95
5, 23520, Note_off_c, 4, 60, 95
5, 23520, Note_off_c, 4, 55, 95
5, 23520, Note_off_c, 4, 48, 95
5, 26400, Note_on_c, 4, 59, 95
5, 26400, Note_on_c, 4, 54, 95
5, 26400, Note_on_c, 4, 47, 95
5, 26880, Note_off_c, 4, 59, 95
5, 26880, Note_off_c, 4, 54, 95
5, 26880, Note_off_c, 4, 47, 95
5, 30720, Note_on_c, 4, 52, 95
5, 30720, Note_on_c, 4, 47, 95
5, 30720, Note_on_c, 4, 40, 95
5, 31200, Note_off_c, 4, 52, 95
5, 31200, Note_off_c, 4, 47, 95
5, 31200, Note_off_c, 4, 40, 95
5, 34080, Note_on_c, 4, 55, 95
5, 34080, Note_on_c, 4, 50, 95
5, 34080, Note_on_c, 4, 43, 95
5, 34560, Note_off_c, 4, 55, 95
5, 34560, Note_off_c, 4, 50, 95
5, 34560, Note_off_c, 4, 43, 95
5, 38400, Note_on_c, 4, 60, 95
5, 38400, Note_on_c, 4, 55, 95
5, 38400, Note_on_c, 4, 48, 95
5, 38880, Note_off_c, 4, 60, 95
5, 38880, Note_off_c, 4, 55, 95
5, 38880, Note_off_c, 4, 48, 95
5, 41760, Note_on_c, 4, 59, 95
5, 41760, Note_on_c, 4, 54, 95
5, 41760, Note_on_c, 4, 47, 95
5, 46080, Note_off_c, 4, 59, 95
5, 46080, Note_off_c, 4, 54, 95
5, 46080, Note_off_c, 4, 47, 95
5, 46080, Note_on_c, 4, 52, 95
5, 46080, Note_on_c, 4, 47, 95
5, 46080, Note_on_c, 4, 40, 95
5, 47040, Note_off_c, 4, 52, 95
5, 47040, Note_off_c, 4, 47, 95
5, 47040, Note_off_c, 4, 40, 95
5, 49920, Note_on_c, 4, 55, 95
5, 49920, Note_on_c, 4, 50, 95
5, 49920, Note_on_c, 4, 43, 95
5, 50880, Note_off_c, 4, 55, 95
5, 50880, Note_off_c, 4, 50, 95
5, 50880, Note_off_c, 4, 43, 95
5, 53760, Note_on_c, 4, 60, 95
5, 53760, Note_on_c, 4, 55, 95
5, 53760, Note_on_c, 4, 48, 95
5, 54720, Note_off_c, 4, 60, 95
5, 54720, Note_off_c, 4, 55, 95
5, 54720, Note_off_c, 4, 48, 95
5, 57600, Note_on_c, 4, 59, 95
5, 57600, Note_on_c, 4, 54, 95
5, 57600, Note_on_c, 4, 47, 95
5, 58560, Note_off_c, 4, 59, 95
5, 58560, Note_off_c, 4, 54, 95
5, 58560, Note_off_c, 4, 47, 95
5, 61440, Note_on_c, 4, 52, 95
5, 61440, Note_on_c, 4, 47, 95
5, 61440, Note_on_c, 4, 40, 95
5, 62400, Note_off_c, 4, 52, 95
5, 62400, Note_off_c, 4, 47, 95
5, 62400, Note_off_c, 4, 40, 95
5, 65280, Note_on_c, 4, 55, 95
5, 65280, Note_on_c, 4, 50, 95
5, 65280, Note_on_c, 4, 43, 95
5, 66240, Note_off_c, 4, 55, 95
5, 66240, Note_off_c, 4, 50, 95
5, 66240, Note_off_c, 4, 43, 95
5, 69120, Note_on_c, 4, 60, 95
5, 69120, Note_on_c, 4, 55, 95
5, 69120, Note_on_c, 4, 48, 95
5, 70080, Note_off_c, 4, 60, 95
5, 70080, Note_off_c, 4, 55, 95
5, 70080, Note_off_c, 4, 48, 95
5, 72960, Note_on_c, 4, 59, 95
5, 72960, Note_on_c, 4, 54, 95
5, 72960, Note_on_c, 4, 47, 95
5, 73920, Note_off_c, 4, 59, 95
5, 73920, Note_off_c, 4, 54, 95
5, 73920, Note_off_c, 4, 47, 95
5, 76800, Note_on_c, 4, 52, 95
5, 76800, Note_on_c, 4, 47, 95
5, 76800, Note_on_c, 4, 40, 95
5, 77760, Note_off_c, 4, 52, 95
5, 77760, Note_off_c, 4, 47, 95
5, 77760, Note_off_c, 4, 40, 95
5, 80640, Note_on_c, 4, 55, 95
5, 80640, Note_on_c, 4, 50, 95
5, 80640, Note_on_c, 4, 43, 95
5, 81600, Note_off_c, 4, 55, 95
5, 81600, Note_off_c, 4, 50, 95
5, 81600, Note_off_c, 4, 43, 95
5, 84480, Note_on_c, 4, 60, 95
5, 84480, Note_on_c, 4, 55, 95
5, 84480, Note_on_c, 4, 48, 95
5, 85440, Note_off_c, 4, 60, 95
5, 85440, Note_off_c, 4, 55, 95
5, 85440, Note_off_c, 4, 48, 95
5, 88320, Note_on_c, 4, 59, 95
5, 88320, Note_on_c, 4, 54, 95
5, 88320, Note_on_c, 4, 47, 95
5, 89280, Note_off_c, 4, 59, 95
5, 89280, Note_off_c, 4, 54, 95
5, 89280, Note_off_c, 4, 47, 95
5, 92160, Note_on_c, 4, 52, 95
5, 92160, Note_on_c, 4, 47, 95
5, 92160, Note_on_c, 4, 40, 95
5, 93120, Note_off_c, 4, 52, 95
5, 93120, Note_off_c, 4, 47, 95
5, 93120, Note_off_c, 4, 40, 95
5, 96000, Note_on_c, 4, 55, 95
5, 96000, Note_on_c, 4, 50, 95
5, 96000, Note_on_c, 4, 43, 95
5, 96960, Note_off_c, 4, 55, 95
5, 96960, Note_off_c, 4, 50, 95
5, 96960, Note_off_c, 4, 43, 95
5, 99840, Note_on_c, 4, 60, 95
5, 99840, Note_on_c, 4, 55, 95
5, 99840, Note_on_c, 4, 48, 95
5, 100800, Note_off_c, 4, 60, 95
5, 100800, Note_off_c, 4, 55, 95
5, 100800, Note_off_c, 4, 48, 95
5, 103680, Note_on_c, 4, 59, 95
5, 103680, Note_on_c, 4, 54, 95
5, 103680, Note_on_c, 4, 47, 95
5, 104640, Note_off_c, 4, 59, 95
5, 104640, Note_off_c, 4, 54, 95
5, 104640, Note_off_c, 4, 47, 95
5, 107520, Note_on_c, 4, 52, 95
5, 107520, Note_on_c, 4, 47, 95
5, 107520, Note_on_c, 4, 40, 95
5, 108480, Note_off_c, 4, 52, 95
5, 108480, Note_off_c, 4, 47, 95
5, 108480, Note_off_c, 4, 40, 95
5, 111360, Note_on_c, 4, 55, 95
5, 111360, Note_on_c, 4, 50, 95
5, 111360, Note_on_c, 4, 43, 95
5, 112320, Note_off_c, 4, 55, 95
5, 112320, Note_off_c, 4, 50, 95
5, 112320, Note_off_c, 4, 43, 95
5, 115200, Note_on_c, 4, 60, 95
5, 115200, Note_on_c, 4, 55, 95
5, 115200, Note_on_c, 4, 48, 95
5, 116160, Note_off_c, 4, 60, 95
5, 116160, Note_off_c, 4, 55, 95
5, 116160, Note_off_c, 4, 48, 95
5, 119040, Note_on_c, 4, 59, 95
5, 119040, Note_on_c, 4, 54, 95
5, 119040, Note_on_c, 4, 47, 95
5, 120000, Note_off_c, 4, 59, 95
5, 120000, Note_off_c, 4, 54, 95
5, 120000, Note_off_c, 4, 47, 95
5, 122880, Note_on_c, 4, 52, 95
5, 122880, Note_on_c, 4, 47, 95
5, 122880, Note_on_c, 4, 40, 95
5, 123840, Note_off_c, 4, 52, 95
5, 123840, Note_off_c, 4, 47, 95
5, 123840, Note_off_c, 4, 40, 95
5, 126720, Note_on_c, 4, 55, 95
5, 126720, Note_on_c, 4, 50, 95
5, 126720, Note_on_c, 4, 43, 95
5, 127680, Note_off_c, 4, 55, 95
5, 127680, Note_off_c, 4, 50, 95
5, 127680, Note_off_c, 4, 43, 95
5, 130560, Note_on_c, 4, 60, 95
5, 130560, Note_on_c, 4, 55, 95
5, 130560, Note_on_c, 4, 48, 95
5, 131520, Note_off_c, 4, 60, 95
5, 131520, Note_off_c, 4, 55, 95
5, 131520, Note_off_c, 4, 48, 95
5, 134880, Note_on_c, 4, 59, 95
5, 134880, Note_on_c, 4, 54, 95
5, 134880, Note_on_c, 4, 47, 95
5, 136320, Note_off_c, 4, 59, 95
5, 136320, Note_off_c, 4, 54, 95
5, 136320, Note_off_c, 4, 47, 95
5, 136320, Note_on_c, 4, 57, 95
5, 136320, Note_on_c, 4, 52, 95
5, 136320, Note_on_c, 4, 45, 95
5, 137040, Note_off_c, 4, 57, 95
5, 137040, Note_off_c, 4, 52, 95
5, 137040, Note_off_c, 4, 45, 95
5, 137040, Note_on_c, 4, 55, 95
5, 137040, Note_on_c, 4, 50, 95
5, 137040, Note_on_c, 4, 43, 95
5, 137760, Note_off_c, 4, 55, 95
5, 137760, Note_off_c, 4, 50, 95
5, 137760, Note_off_c, 4, 43, 95
5, 137760, Note_on_c, 4, 54, 95
5, 137760, Note_on_c, 4, 49, 95
5, 137760, Note_on_c, 4, 42, 95
5, 138240, Note_off_c, 4, 54, 95
5, 138240, Note_off_c, 4, 49, 95
5, 138240, Note_off_c, 4, 42, 95
5, 138240, Note_on_c, 4, 52, 95
5, 138240, Note_on_c, 4, 47, 95
5, 138240, Note_on_c, 4, 40, 95
5, 139200, Note_off_c, 4, 52, 95
5, 139200, Note_off_c, 4, 47, 95
5, 139200, Note_off_c, 4, 40, 95
5, 142080, Note_on_c, 4, 55, 95
5, 142080, Note_on_c, 4, 50, 95
5, 142080, Note_on_c, 4, 43, 95
5, 143040, Note_off_c, 4, 55, 95
5, 143040, Note_off_c, 4, 50, 95
5, 143040, Note_off_c, 4, 43, 95
5, 145920, Note_on_c, 4, 60, 95
5, 145920, Note_on_c, 4, 55, 95
5, 145920, Note_on_c, 4, 48, 95
5, 146880, Note_off_c, 4, 60, 95
5, 146880, Note_off_c, 4, 55, 95
5, 146880, Note_off_c, 4, 48, 95
5, 150240, Note_on_c, 4, 59, 95
5, 150240, Note_on_c, 4, 54, 95
5, 150240, Note_on_c, 4, 47, 95
5, 151680, Note_off_c, 4, 59, 95
5, 151680, Note_off_c, 4, 54, 95
5, 151680, Note_off_c, 4, 47, 95
5, 151680, Note_on_c, 4, 57, 95
5, 151680, Note_on_c, 4, 52, 95
5, 151680, Note_on_c, 4, 45, 95
5, 152400, Note_off_c, 4, 57, 95
5, 152400, Note_off_c, 4, 52, 95
5, 152400, Note_off_c, 4, 45, 95
5, 152400, Note_on_c, 4, 55, 95
5, 152400, Note_on_c, 4, 50, 95
5, 152400, Note_on_c, 4, 43, 95
5, 153120, Note_off_c, 4, 55, 95
5, 153120, Note_off_c, 4, 50, 95
5, 153120, Note_off_c, 4, 43, 95
5, 153120, Note_on_c, 4, 54, 95
5, 153120, Note_on_c, 4, 49, 95
5, 153120, Note_on_c, 4, 42, 95
5, 153600, Note_off_c, 4, 54, 95
5, 153600, Note_off_c, 4, 49, 95
5, 153600, Note_off_c, 4, 42, 95
5, 153600, Note_on_c, 4, 52, 95
5, 153600, Note_on_c, 4, 47, 95
5, 153600, Note_on_c, 4, 40, 95
5, 154080, Note_off_c, 4, 52, 95
5, 154080, Note_off_c, 4, 47, 95
5, 154080, Note_off_c, 4, 40, 95
5, 156960, Note_on_c, 4, 55, 95
5, 156960, Note_on_c, 4, 50, 95
5, 156960, Note_on_c, 4, 43, 95
5, 157440, Note_off_c, 4, 55, 95
5, 157440, Note_off_c, 4, 50, 95
5, 157440, Note_off_c, 4, 43, 95
5, 161280, Note_on_c, 4, 60, 95
5, 161280, Note_on_c, 4, 55, 95
5, 161280, Note_on_c, 4, 48, 95
5, 161760, Note_off_c, 4, 60, 95
5, 161760, Note_off_c, 4, 55, 95
5, 161760, Note_off_c, 4, 48, 95
5, 164640, Note_on_c, 4, 59, 95
5, 164640, Note_on_c, 4, 54, 95
5, 164640, Note_on_c, 4, 47, 95
5, 165120, Note_off_c, 4, 59, 95
5, 165120, Note_off_c, 4, 54, 95
5, 165120, Note_off_c, 4, 47, 95
5, 168960, Note_on_c, 4, 52, 95
5, 168960, Note_on_c, 4, 47, 95
5, 168960, Note_on_c, 4, 40, 95
5, 169440, Note_off_c, 4, 52, 95
5, 169440, Note_off_c, 4, 47, 95
5, 169440, Note_off_c, 4, 40, 95
5, 172320, Note_on_c, 4, 55, 95
5, 172320, Note_on_c, 4, 50, 95
5, 172320, Note_on_c, 4, 43, 95
5, 172800, Note_off_c, 4, 55, 95
5, 172800, Note_off_c, 4, 50, 95
5, 172800, Note_off_c, 4, 43, 95
5, 176640, Note_on_c, 4, 60, 95
5, 176640, Note_on_c, 4, 55, 95
5, 176640, Note_on_c, 4, 48, 95
5, 177120, Note_off_c, 4, 60, 95
5, 177120, Note_off_c, 4, 55, 95
5, 177120, Note_off_c, 4, 48, 95
5, 180000, Note_on_c, 4, 59, 95
5, 180000, Note_on_c, 4, 54, 95
5, 180000, Note_on_c, 4, 47, 95
5, 184320, Note_off_c, 4, 59, 95
5, 184320, Note_off_c, 4, 54, 95
5, 184320, Note_off_c, 4, 47, 95
5, 184320, Note_on_c, 4, 52, 95
5, 184320, Note_on_c, 4, 47, 95
5, 184320, Note_on_c, 4, 40, 95
5, 185280, Note_off_c, 4, 52, 95
5, 185280, Note_off_c, 4, 47, 95
5, 185280, Note_off_c, 4, 40, 95
5, 188160, Note_on_c, 4, 55, 95
5, 188160, Note_on_c, 4, 50, 95
5, 188160, Note_on_c, 4, 43, 95
5, 189120, Note_off_c, 4, 55, 95
5, 189120, Note_off_c, 4, 50, 95
5, 189120, Note_off_c, 4, 43, 95
5, 192000, Note_on_c, 4, 60, 95
5, 192000, Note_on_c, 4, 55, 95
5, 192000, Note_on_c, 4, 48, 95
5, 192960, Note_off_c, 4, 60, 95
5, 192960, Note_off_c, 4, 55, 95
5, 192960, Note_off_c, 4, 48, 95
5, 195840, Note_on_c, 4, 59, 95
5, 195840, Note_on_c, 4, 54, 95
5, 195840, Note_on_c, 4, 47, 95
5, 196800, Note_off_c, 4, 59, 95
5, 196800, Note_off_c, 4, 54, 95
5, 196800, Note_off_c, 4, 47, 95
5, 199680, Note_on_c, 4, 52, 95
5, 199680, Note_on_c, 4, 47, 95
5, 199680, Note_on_c, 4, 40, 95
5, 200640, Note_off_c, 4, 52, 95
5, 200640, Note_off_c, 4, 47, 95
5, 200640, Note_off_c, 4, 40, 95
5, 203520, Note_on_c, 4, 55, 95
5, 203520, Note_on_c, 4, 50, 95
5, 203520, Note_on_c, 4, 43, 95
5, 204480, Note_off_c, 4, 55, 95
5, 204480, Note_off_c, 4, 50, 95
5, 204480, Note_off_c, 4, 43, 95
5, 207360, Note_on_c, 4, 60, 95
5, 207360, Note_on_c, 4, 55, 95
5, 207360, Note_on_c, 4, 48, 95
5, 208320, Note_off_c, 4, 60, 95
5, 208320, Note_off_c, 4, 55, 95
5, 208320, Note_off_c, 4, 48, 95
5, 211200, Note_on_c, 4, 59, 95
5, 211200, Note_on_c, 4, 54, 95
5, 211200, Note_on_c, 4, 47, 95
5, 212160, Note_off_c, 4, 59, 95
5, 212160, Note_off_c, 4, 54, 95
5, 212160, Note_off_c, 4, 47, 95
5, 215040, Note_on_c, 4, 52, 95
5, 215040, Note_on_c, 4, 47, 95
5, 215040, Note_on_c, 4, 40, 95
5, 216000, Note_off_c, 4, 52, 95
5, 216000, Note_off_c, 4, 47, 95
5, 216000, Note_off_c, 4, 40, 95
5, 218880, Note_on_c, 4, 55, 95
5, 218880, Note_on_c, 4, 50, 95
5, 218880, Note_on_c, 4, 43, 95
5, 219840, Note_off_c, 4, 55, 95
5, 219840, Note_off_c, 4, 50, 95
5, 219840, Note_off_c, 4, 43, 95
5, 222720, Note_on_c, 4, 60, 95
5, 222720, Note_on_c, 4, 55, 95
5, 222720, Note_on_c, 4, 48, 95
5, 223680, Note_off_c, 4, 60, 95
5, 223680, Note_off_c, 4, 55, 95
5, 223680, Note_off_c, 4, 48, 95
5, 226560, Note_on_c, 4, 59, 95
5, 226560, Note_on_c, 4, 54, 95
5, 226560, Note_on_c, 4, 47, 95
5, 227520, Note_off_c, 4, 59, 95
5, 227520, Note_off_c, 4, 54, 95
5, 227520, Note_off_c, 4, 47, 95
5, 230400, Note_on_c, 4, 52, 95
5, 230400, Note_on_c, 4, 47, 95
5, 230400, Note_on_c, 4, 40, 95
5, 231360, Note_off_c, 4, 52, 95
5, 231360, Note_off_c, 4, 47, 95
5, 231360, Note_off_c, 4, 40, 95
5, 234240, Note_on_c, 4, 55, 95
5, 234240, Note_on_c, 4, 50, 95
5, 234240, Note_on_c, 4, 43, 95
5, 235200, Note_off_c, 4, 55, 95
5, 235200, Note_off_c, 4, 50, 95
5, 235200, Note_off_c, 4, 43, 95
5, 238080, Note_on_c, 4, 60, 95
5, 238080, Note_on_c, 4, 55, 95
5, 238080, Note_on_c, 4, 48, 95
5, 239040, Note_off_c, 4, 60, 95
5, 239040, Note_off_c, 4, 55, 95
5, 239040, Note_off_c, 4, 48, 95
5, 241920, Note_on_c, 4, 59, 95
5, 241920, Note_on_c, 4, 54, 95
5, 241920, Note_on_c, 4, 47, 95
5, 242880, Note_off_c, 4, 59, 95
5, 242880, Note_off_c, 4, 54, 95
5, 242880, Note_off_c, 4, 47, 95
5, 245760, Note_on_c, 4, 52, 95
5, 245760, Note_on_c, 4, 47, 95
5, 245760, Note_on_c, 4, 40, 95
5, 246720, Note_off_c, 4, 52, 95
5, 246720, Note_off_c, 4, 47, 95
5, 246720, Note_off_c, 4, 40, 95
5, 249600, Note_on_c, 4, 55, 95
5, 249600, Note_on_c, 4, 50, 95
5, 249600, Note_on_c, 4, 43, 95
5, 250560, Note_off_c, 4, 55, 95
5, 250560, Note_off_c, 4, 50, 95
5, 250560, Note_off_c, 4, 43, 95
5, 253440, Note_on_c, 4, 60, 95
5, 253440, Note_on_c, 4, 55, 95
5, 253440, Note_on_c, 4, 48, 95
5, 254400, Note_off_c, 4, 60, 95
5, 254400, Note_off_c, 4, 55, 95
5, 254400, Note_off_c, 4, 48, 95
5, 257760, Note_on_c, 4, 59, 95
5, 257760, Note_on_c, 4, 54, 95
5, 257760, Note_on_c, 4, 47, 95
5, 259200, Note_off_c, 4, 59, 95
5, 259200, Note_off_c, 4, 54, 95
5, 259200, Note_off_c, 4, 47, 95
5, 259200, Note_on_c, 4, 57, 95
5, 259200, Note_on_c, 4, 52, 95
5, 259200, Note_on_c, 4, 45, 95
5, 259920, Note_off_c, 4, 57, 95
5, 259920, Note_off_c, 4, 52, 95
5, 259920, Note_off_c, 4, 45, 95
5, 259920, Note_on_c, 4, 55, 95
5, 259920, Note_on_c, 4, 50, 95
5, 259920, Note_on_c, 4, 43, 95
5, 260640, Note_off_c, 4, 55, 95
5, 260640, Note_off_c, 4, 50, 95
5, 260640, Note_off_c, 4, 43, 95
5, 260640, Note_on_c, 4, 54, 95
5, 260640, Note_on_c, 4, 49, 95
5, 260640, Note_on_c, 4, 42, 95
5, 261120, Note_off_c, 4, 54, 95
5, 261120, Note_off_c, 4, 49, 95
5, 261120, Note_off_c, 4, 42, 95
5, 261120, Note_on_c, 4, 52, 95
5, 261120, Note_on_c, 4, 47, 95
5, 261120, Note_on_c, 4, 40, 95
5, 262080, Note_off_c, 4, 52, 95
5, 262080, Note_off_c, 4, 47, 95
5, 262080, Note_off_c, 4, 40, 95
5, 264960, Note_on_c, 4, 55, 95
5, 264960, Note_on_c, 4, 50, 95
5, 264960, Note_on_c, 4, 43, 95
5, 265920, Note_off_c, 4, 55, 95
5, 265920, Note_off_c, 4, 50, 95
5, 265920, Note_off_c, 4, 43, 95
5, 268800, Note_on_c, 4, 60, 95
5, 268800, Note_on_c, 4, 55, 95
5, 268800, Note_on_c, 4, 48, 95
5, 269760, Note_off_c, 4, 60, 95
5, 269760, Note_off_c, 4, 55, 95
5, 269760, Note_off_c, 4, 48, 95
5, 273120, Note_on_c, 4, 59, 95
5, 273120, Note_on_c, 4, 54, 95
5, 273120, Note_on_c, 4, 47, 95
5, 274560, Note_off_c, 4, 59, 95
5, 274560, Note_off_c, 4, 54, 95
5, 274560, Note_off_c, 4, 47, 95
5, 274560, Note_on_c, 4, 57, 95
5, 274560, Note_on_c, 4, 52, 95
5, 274560, Note_on_c, 4, 45, 95
5, 275280, Note_off_c, 4, 57, 95
5, 275280, Note_off_c, 4, 52, 95
5, 275280, Note_off_c, 4, 45, 95
5, 275280, Note_on_c, 4, 55, 95
5, 275280, Note_on_c, 4, 50, 95
5, 275280, Note_on_c, 4, 43, 95
5, 276000, Note_off_c, 4, 55, 95
5, 276000, Note_off_c, 4, 50, 95
5, 276000, Note_off_c, 4, 43, 95
5, 276000, Note_on_c, 4, 54, 95
5, 276000, Note_on_c, 4, 49, 95
5, 276000, Note_on_c, 4, 42, 95
5, 276480, Note_off_c, 4, 54, 95
5, 276480, Note_off_c, 4, 49, 95
5, 276480, Note_off_c, 4, 42, 95
5, 276480, Note_on_c, 4, 52, 95
5, 276480, Note_on_c, 4, 47, 95
5, 276480, Note_on_c, 4, 40, 95
5, 284160, Note_off_c, 4, 52, 95
5, 284160, Note_off_c, 4, 47, 95
5, 284160, Note_off_c, 4, 40, 95
5, 284160, End_track
6, 0, Start_track
6, 0, Pitch_bend_c, 6, 8192
6, 0, Control_c, 6, 7, 103
6, 0, Control_c, 6, 10, 63
6, 0, Control_c, 6, 93, 0
6, 0, Control_c, 6, 91, 0
6, 0, Control_c, 6, 95, 0
6, 0, Control_c, 6, 92, 0
6, 0, Control_c, 6, 11, 127
6, 0, Program_c, 6, 73
6, 0, Control_c, 7, 7, 103
6, 0, Control_c, 7, 10, 63
6, 0, Control_c, 7, 93, 0
6, 0, Control_c, 7, 91, 0
6, 0, Control_c, 7, 95, 0
6, 0, Control_c, 7, 92, 0
6, 0, Control_c, 7, 11, 127
6, 0, Program_c, 7, 73
6, 30720, Note_on_c, 6, 64, 95
6, 30960, Note_off_c, 6, 64, 95
6, 30960, Note_on_c, 6, 67, 95
6, 31200, Note_off_c, 6, 67, 95
6, 31200, Note_on_c, 6, 66, 95
6, 31440, Note_off_c, 6, 66, 95
6, 31440, Note_on_c, 6, 64, 95
6, 31680, Note_off_c, 6, 64, 95
6, 31680, Note_on_c, 6, 71, 95
6, 31920, Note_off_c, 6, 71, 95
6, 31920, Note_on_c, 6, 69, 95
6, 32160, Note_off_c, 6, 69, 95
6, 32160, Note_on_c, 6, 67, 95
6, 32400, Note_off_c, 6, 67, 95
6, 32400, Note_on_c, 6, 66, 95
6, 32640, Note_off_c, 6, 66, 95
6, 32640, Note_on_c, 6, 64, 95
6, 32880, Note_off_c, 6, 64, 95
6, 32880, Note_on_c, 6, 67, 95
6, 33120, Note_off_c, 6, 67, 95
6, 33120, Note_on_c, 6, 66, 95
6, 33360, Note_off_c, 6, 66, 95
6, 33360, Note_on_c, 6, 64, 95
6, 33600, Note_off_c, 6, 64, 95
6, 33600, Note_on_c, 6, 71, 95
6, 33840, Note_off_c, 6, 71, 95
6, 33840, Note_on_c, 6, 69, 95
6, 34080, Note_off_c, 6, 69, 95
6, 34080, Note_on_c, 6, 67, 95
6, 34320, Note_off_c, 6, 67, 95
6, 34320, Note_on_c, 6, 66, 95
6, 34560, Note_off_c, 6, 66, 95
6, 34560, Note_on_c, 6, 64, 95
6, 34800, Note_off_c, 6, 64, 95
6, 34800, Note_on_c, 6, 67, 95
6, 35040, Note_off_c, 6, 67, 95
6, 35040, Note_on_c, 6, 66, 95
6, 35280, Note_off_c, 6, 66, 95
6, 35280, Note_on_c, 6, 64, 95
6, 35520, Note_off_c, 6, 64, 95
6, 35520, Note_on_c, 6, 71, 95
6, 35760, Note_off_c, 6, 71, 95
6, 35760, Note_on_c, 6, 69, 95
6, 36000, Note_off_c, 6, 69, 95
6, 36000, Note_on_c, 6, 67, 95
6, 36240, Note_off_c, 6, 67, 95
6, 36240, Note_on_c, 6, 66, 95
6, 36480, Note_off_c, 6, 66, 95
6, 36480, Note_on_c, 6, 64, 95
6, 36720, Note_off_c, 6, 64, 95
6, 36720, Note_on_c, 6, 67, 95
6, 36960, Note_off_c, 6, 67, 95
6, 36960, Note_on_c, 6, 66, 95
6, 37200, Note_off_c, 6, 66, 95
6, 37200, Note_on_c, 6, 64, 95
6, 37440, Note_off_c, 6, 64, 95
6, 37440, Note_on_c, 6, 71, 95
6, 37680, Note_off_c, 6, 71, 95
6, 37680, Note_on_c, 6, 69, 95
6, 37920, Note_off_c, 6, 69, 95
6, 37920, Note_on_c, 6, 67, 95
6, 38160, Note_off_c, 6, 67, 95
6, 38160, Note_on_c, 6, 66, 95
6, 38400, Note_off_c, 6, 66, 95
6, 38400, Note_on_c, 6, 64, 95
6, 38640, Note_off_c, 6, 64, 95
6, 38640, Note_on_c, 6, 67, 95
6, 38880, Note_off_c, 6, 67, 95
6, 38880, Note_on_c, 6, 66, 95
6, 39120, Note_off_c, 6, 66, 95
6, 39120, Note_on_c, 6, 64, 95
6, 39360, Note_off_c, 6, 64, 95
6, 39360, Note_on_c, 6, 71, 95
6, 39600, Note_off_c, 6, 71, 95
6, 39600, Note_on_c, 6, 69, 95
6, 39840, Note_off_c, 6, 69, 95
6, 39840, Note_on_c, 6, 67, 95
6, 40080, Note_off_c, 6, 67, 95
6, 40080, Note_on_c, 6, 66, 95
6, 40320, Note_off_c, 6, 66, 95
6, 40320, Note_on_c, 6, 64, 95
6, 40560, Note_off_c, 6, 64, 95
6, 40560, Note_on_c, 6, 67, 95
6, 40800, Note_off_c, 6, 67, 95
6, 40800, Note_on_c, 6, 66, 95
6, 41040, Note_off_c, 6, 66, 95
6, 41040, Note_on_c, 6, 64, 95
6, 41280, Note_off_c, 6, 64, 95
6, 41280, Note_on_c, 6, 71, 95
6, 41520, Note_off_c, 6, 71, 95
6, 41520, Note_on_c, 6, 69, 95
6, 41760, Note_off_c, 6, 69, 95
6, 41760, Note_on_c, 6, 67, 95
6, 42000, Note_off_c, 6, 67, 95
6, 42000, Note_on_c, 6, 66, 95
6, 42240, Note_off_c, 6, 66, 95
6, 42240, Note_on_c, 6, 64, 95
6, 42480, Note_off_c, 6, 64, 95
6, 42480, Note_on_c, 6, 67, 95
6, 42720, Note_off_c, 6, 67, 95
6, 42720, Note_on_c, 6, 66, 95
6, 42960, Note_off_c, 6, 66, 95
6, 42960, Pitch_bend_c, 7, 8192
6, 42960, Note_on_c, 7, 71, 95
6, 43176, Pitch_bend_c, 7, 8320
6, 43392, Pitch_bend_c, 7, 8448
6, 43608, Pitch_bend_c, 7, 8576
6, 43824, Pitch_bend_c, 7, 8704
6, 44040, Pitch_bend_c, 7, 8832
6, 44040, Pitch_bend_c, 7, 8832
6, 45120, Pitch_bend_c, 7, 8832
6, 45120, Pitch_bend_c, 7, 8192
6, 45120, Note_off_c, 7, 71, 95
6, 45120, Note_on_c, 6, 71, 95
6, 45360, Note_off_c, 6, 71, 95
6, 45360, Note_on_c, 6, 69, 95
6, 45600, Note_off_c, 6, 69, 95
6, 45600, Note_on_c, 6, 67, 95
6, 45840, Note_off_c, 6, 67, 95
6, 45840, Note_on_c, 6, 66, 95
6, 46080, Note_off_c, 6, 66, 95
6, 168960, Note_on_c, 6, 64, 95
6, 169200, Note_off_c, 6, 64, 95
6, 169200, Note_on_c, 6, 67, 95
6, 169440, Note_off_c, 6, 67, 95
6, 169440, Note_on_c, 6, 66, 95
6, 169680, Note_off_c, 6, 66, 95
6, 169680, Note_on_c, 6, 64, 95
6, 169920, Note_off_c, 6, 64, 95
6, 169920, Note_on_c, 6, 71, 95
6, 170160, Note_off_c, 6, 71, 95
6, 170160, Note_on_c, 6, 69, 95
6, 170400, Note_off_c, 6, 69, 95
6, 170400, Note_on_c, 6, 67, 95
6, 170640, Note_off_c, 6, 67, 95
6, 170640, Note_on_c, 6, 66, 95
6, 170880, Note_off_c, 6, 66, 95
6, 170880, Note_on_c, 6, 64, 95
6, 171120, Note_off_c, 6, 64, 95
6, 171120, Note_on_c, 6, 67, 95
6, 171360, Note_off_c, 6, 67, 95
6, 171360, Note_on_c, 6, 66, 95
6, 171600, Note_off_c, 6, 66, 95
6, 171600, Note_on_c, 6, 64, 95
6, 171840, Note_off_c, 6, 64, 95
6, 171840, Note_on_c, 6, 71, 95
6, 172080, Note_off_c, 6, 71, 95
6, 172080, Note_on_c, 6, 69, 95
6, 172320, Note_off_c, 6, 69, 95
6, 172320, Note_on_c, 6, 67, 95
6, 172560, Note_off_c, 6, 67, 95
6, 172560, Note_on_c, 6, 66, 95
6, 172800, Note_off_c, 6, 66, 95
6, 172800, Note_on_c, 6, 64, 95
6, 173040, Note_off_c, 6, 64, 95
6, 173040, Note_on_c, 6, 67, 95
6, 173280, Note_off_c, 6, 67, 95
6, 173280, Note_on_c, 6, 66, 95
6, 173520, Note_off_c, 6, 66, 95
6, 173520, Note_on_c, 6, 64, 95
6, 173760, Note_off_c, 6, 64, 95
6, 173760, Note_on_c, 6, 71, 95
6, 174000, Note_off_c, 6, 71, 95
6, 174000, Note_on_c, 6, 69, 95
6, 174240, Note_off_c, 6, 69, 95
6, 174240, Note_on_c, 6, 67, 95
6, 174480, Note_off_c, 6, 67, 95
6, 174480, Note_on_c, 6, 66, 95
6, 174720, Note_off_c, 6, 66, 95
6, 174720, Note_on_c, 6, 64, 95
6, 174960, Note_off_c, 6, 64, 95
6, 174960, Note_on_c, 6, 67, 95
6, 175200, Note_off_c, 6, 67, 95
6, 175200, Note_on_c, 6, 66, 95
6, 175440, Note_off_c, 6, 66, 95
6, 175440, Note_on_c, 6, 64, 95
6, 175680, Note_off_c, 6, 64, 95
6, 175680, Note_on_c, 6, 71, 95
6, 175920, Note_off_c, 6, 71, 95
6, 175920, Note_on_c, 6, 69, 95
6, 176160, Note_off_c, 6, 69, 95
6, 176160, Note_on_c, 6, 67, 95
6, 176400, Note_off_c, 6, 67, 95
6, 176400, Note_on_c, 6, 66, 95
6, 176640, Note_off_c, 6, 66, 95
6, 176640, Note_on_c, 6, 64, 95
6, 176880, Note_off_c, 6, 64, 95
6, 176880, Note_on_c, 6, 67, 95
6, 177120, Note_off_c, 6, 67, 95
6, 177120, Note_on_c, 6, 66, 95
6, 177360, Note_off_c, 6, 66, 95
6, 177360, Note_on_c, 6, 64, 95
6, 177600, Note_off_c, 6, 64, 95
6, 177600, Note_on_c, 6, 71, 95
6, 177840, Note_off_c, 6, 71, 95
6, 177840, Note_on_c, 6, 69, 95
6, 178080, Note_off_c, 6, 69, 95
6, 178080, Note_on_c, 6, 67, 95
6, 178320, Note_off_c, 6, 67, 95
6, 178320, Note_on_c, 6, 66, 95
6, 178560, Note_off_c, 6, 66, 95
6, 178560, Note_on_c, 6, 64, 95
6, 178800, Note_off_c, 6, 64, 95
6, 178800, Note_on_c, 6, 67, 95
6, 179040, Note_off_c, 6, 67, 95
6, 179040, Note_on_c, 6, 66, 95
6, 179280, Note_off_c, 6, 66, 95
6, 179280, Note_on_c, 6, 64, 95
6, 179520, Note_off_c, 6, 64, 95
6, 179520, Note_on_c, 6, 71, 95
6, 179760, Note_off_c, 6, 71, 95
6, 179760, Note_on_c, 6, 69, 95
6, 180000, Note_off_c, 6, 69, 95
6, 180000, Note_on_c, 6, 67, 95
6, 180240, Note_off_c, 6, 67, 95
6, 180240, Note_on_c, 6, 66, 95
6, 180480, Note_off_c, 6, 66, 95
6, 180480, Note_on_c, 6, 64, 95
6, 180720, Note_off_c, 6, 64, 95
6, 180720, Note_on_c, 6, 67, 95
6, 180960, Note_off_c, 6, 67, 95
6, 180960, Note_on_c, 6, 66, 95
6, 181200, Note_off_c, 6, 66, 95
6, 181200, Pitch_bend_c, 7, 8192
6, 181200, Note_on_c, 7, 71, 95
6, 181416, Pitch_bend_c, 7, 8320
6, 181632, Pitch_bend_c, 7, 8448
6, 181848, Pitch_bend_c, 7, 8576
6, 182064, Pitch_bend_c, 7, 8704
6, 182280, Pitch_bend_c, 7, 8832
6, 182280, Pitch_bend_c, 7, 8832
6, 183360, Pitch_bend_c, 7, 8832
6, 183360, Pitch_bend_c, 7, 8192
6, 183360, Note_off_c, 7, 71, 95
6, 183360, Note_on_c, 6, 71, 95
6, 183600, Note_off_c, 6, 71, 95
6, 183600, Note_on_c, 6, 69, 95
6, 183840, Note_off_c, 6, 69, 95
6, 183840, Note_on_c, 6, 67, 95
6, 184080, Note_off_c, 6, 67, 95
6, 184080, Note_on_c, 6, 66, 95
6, 184320, Note_off_c, 6, 66, 95
6, 184320, End_track
7, 0, Start_track
7, 0, Pitch_bend_c, 8, 8192
7, 0, Control_c, 8, 7, 63
7, 0, Control_c, 8, 10, 63
7, 0, Control_c, 8, 93, 0
7, 0, Control_c, 8, 91, 0
7, 0, Control_c, 8, 95, 0
7, 0, Control_c, 8, 92, 0
7, 0, Control_c, 8, 11, 127
7, 0, Program_c, 8, 30
7, 0, Control_c, 10, 7, 63
7, 0, Control_c, 10, 10, 63
7, 0, Control_c, 10, 93, 0
7, 0, Control_c, 10, 91, 0
7, 0, Control_c, 10, 95, 0
7, 0, Control_c, 10, 92, 0
7, 0, Control_c, 10, 11, 127
7, 0, Program_c, 10, 30
7, 46080, Note_on_c, 8, 52, 95
7, 46080, Note_on_c, 8, 47, 95
7, 46080, Note_on_c, 8, 40, 95
7, 46200, Note_off_c, 8, 52, 95
7, 46200, Note_off_c, 8, 47, 95
7, 46200, Note_off_c, 8, 40, 95
7, 46560, Note_on_c, 8, 52, 95
7, 46560, Note_on_c, 8, 47, 95
7, 46560, Note_on_c, 8, 40, 95
7, 46680, Note_off_c, 8, 52, 95
7, 46680, Note_off_c, 8, 47, 95
7, 46680, Note_off_c, 8, 40, 95
7, 46800, Note_on_c, 8, 52, 95
7, 46800, Note_on_c, 8, 47, 95
7, 46800, Note_on_c, 8, 40, 95
7, 46920, Note_off_c, 8, 52, 95
7, 46920, Note_off_c, 8, 47, 95
7, 46920, Note_off_c, 8, 40, 95
7, 47040, Note_on_c, 8, 52, 95
7, 47040, Note_on_c, 8, 47, 95
7, 47040, Note_on_c, 8, 40, 95
7, 47160, Note_off_c, 8, 52, 95
7, 47160, Note_off_c, 8, 47, 95
7, 47160, Note_off_c, 8, 40, 95
7, 47520, Note_on_c, 8, 52, 95
7, 47520, Note_on_c, 8, 47, 95
7, 47520, Note_on_c, 8, 40, 95
7, 47640, Note_off_c, 8, 52, 95
7, 47640, Note_off_c, 8, 47, 95
7, 47640, Note_off_c, 8, 40, 95
7, 47760, Note_on_c, 8, 52, 95
7, 47760, Note_on_c, 8, 47, 95
7, 47760, Note_on_c, 8, 40, 95
7, 47880, Note_off_c, 8, 52, 95
7, 47880, Note_off_c, 8, 47, 95
7, 47880, Note_off_c, 8, 40, 95
7, 48000, Note_on_c, 8, 52, 95
7, 48000, Note_on_c, 8, 47, 95
7, 48000, Note_on_c, 8, 40, 95
7, 48120, Note_off_c, 8, 52, 95
7, 48120, Note_off_c, 8, 47, 95
7, 48120, Note_off_c, 8, 40, 95
7, 48480, Note_on_c, 8, 52, 95
7, 48480, Note_on_c, 8, 47, 95
7, 48480, Note_on_c, 8, 40, 95
7, 48600, Note_off_c, 8, 52, 95
7, 48600, Note_off_c, 8, 47, 95
7, 48600, Note_off_c, 8, 40, 95
7, 48720, Note_on_c, 8, 52, 95
7, 48720, Note_on_c, 8, 47, 95
7, 48720, Note_on_c, 8, 40, 95
7, 48840, Note_off_c, 8, 52, 95
7, 48840, Note_off_c, 8, 47, 95
7, 48840, Note_off_c, 8, 40, 95
7, 48960, Note_on_c, 8, 52, 95
7, 48960, Note_on_c, 8, 47, 95
7, 48960, Note_on_c, 8, 40, 95
7, 49080, Note_off_c, 8, 52, 95
7, 49080, Note_off_c, 8, 47, 95
7, 49080, Note_off_c, 8, 40, 95
7, 49440, Note_on_c, 8, 52, 95
7, 49440, Note_on_c, 8, 47, 95
7, 49440, Note_on_c, 8, 40, 95
7, 49560, Note_off_c, 8, 52, 95
7, 49560, Note_off_c, 8, 47, 95
7, 49560, Note_off_c, 8, 40, 95
7, 49680, Note_on_c, 8, 52, 95
7, 49680, Note_on_c, 8, 47, 95
7, 49680, Note_on_c, 8, 40, 95
7, 49800, Note_off_c, 8, 52, 95
7, 49800, Note_off_c, 8, 47, 95
7, 49800, Note_off_c, 8, 40, 95
7, 49920, Note_on_c, 8, 55, 95
7, 49920, Note_on_c, 8, 50, 95
7, 49920, Note_on_c, 8, 43, 95
7, 50040, Note_off_c, 8, 55, 95
7, 50040, Note_off_c, 8, 50, 95
7, 50040, Note_off_c, 8, 43, 95
7, 50400, Note_on_c, 8, 55, 95
7, 50400, Note_on_c, 8, 50, 95
7, 50400, Note_on_c, 8, 43, 95
7, 50520, Note_off_c, 8, 55, 95
7, 50520, Note_off_c, 8, 50, 95
7, 50520, Note_off_c, 8, 43, 95
7, 50640, Note_on_c, 8, 55, 95
7, 50640, Note_on_c, 8, 50, 95
7, 50640, Note_on_c, 8, 43, 95
7, 50760, Note_off_c, 8, 55, 95
7, 50760, Note_off_c, 8, 50, 95
7, 50760, Note_off_c, 8, 43, 95
7, 50880, Note_on_c, 8, 55, 95
7, 50880, Note_on_c, 8, 50, 95
7, 50880, Note_on_c, 8, 43, 95
7, 51000, Note_off_c, 8, 55, 95
7, 51000, Note_off_c, 8, 50, 95
7, 51000, Note_off_c, 8, 43, 95
7, 51360, Note_on_c, 8, 55, 95
7, 51360, Note_on_c, 8, 50, 95
7, 51360, Note_on_c, 8, 43, 95
7, 51480, Note_off_c, 8, 55, 95
7, 51480, Note_off_c, 8, 50, 95
7, 51480, Note_off_c, 8, 43, 95
7, 51600, Note_on_c, 8, 55, 95
7, 51600, Note_on_c, 8, 50, 95
7, 51600, Note_on_c, 8, 43, 95
7, 51720, Note_off_c, 8, 55, 95
7, 51720, Note_off_c, 8, 50, 95
7, 51720, Note_off_c, 8, 43, 95
7, 51840, Note_on_c, 8, 55, 95
7, 51840, Note_on_c, 8, 50, 95
7, 51840, Note_on_c, 8, 43, 95
7, 51960, Note_off_c, 8, 55, 95
7, 51960, Note_off_c, 8, 50, 95
7, 51960, Note_off_c, 8, 43, 95
7, 52320, Note_on_c, 8, 55, 95
7, 52320, Note_on_c, 8, 50, 95
7, 52320, Note_on_c, 8, 43, 95
7, 52440, Note_off_c, 8, 55, 95
7, 52440, Note_off_c, 8, 50, 95
7, 52440, Note_off_c, 8, 43, 95
7, 52560, Note_on_c, 8, 55, 95
7, 52560, Note_on_c, 8, 50, 95
7, 52560, Note_on_c, 8, 43, 95
7, 52680, Note_off_c, 8, 55, 95
7, 52680, Note_off_c, 8, 50, 95
7, 52680, Note_off_c, 8, 43, 95
7, 52800, Note_on_c, 8, 55, 95
7, 52800, Note_on_c, 8, 50, 95
7, 52800, Note_on_c, 8, 43, 95
7, 52920, Note_off_c, 8, 55, 95
7, 52920, Note_off_c, 8, 50, 95
7, 52920, Note_off_c, 8, 43, 95
7, 53280, Note_on_c, 8, 55, 95
7, 53280, Note_on_c, 8, 50, 95
7, 53280, Note_on_c, 8, 43, 95
7, 53400, Note_off_c, 8, 55, 95
7, 53400, Note_off_c, 8, 50, 95
7, 53400, Note_off_c, 8, 43, 95
7, 53520, Note_on_c, 8, 55, 95
7, 53520, Note_on_c, 8, 50, 95
7, 53520, Note_on_c, 8, 43, 95
7, 53640, Note_off_c, 8, 55, 95
7, 53640, Note_off_c, 8, 50, 95
7, 53640, Note_off_c, 8, 43, 95
7, 53760, Note_on_c, 8, 60, 95
7, 53760, Note_on_c, 8, 55, 95
7, 53760, Note_on_c, 8, 48, 95
7, 53880, Note_off_c, 8, 60, 95
7, 53880, Note_off_c, 8, 55, 95
7, 53880, Note_off_c, 8, 48, 95
7, 54240, Note_on_c, 8, 60, 95
7, 54240, Note_on_c, 8, 55, 95
7, 54240, Note_on_c, 8, 48, 95
7, 54360, Note_off_c, 8, 60, 95
7, 54360, Note_off_c, 8, 55, 95
7, 54360, Note_off_c, 8, 48, 95
7, 54480, Note_on_c, 8, 60, 95
7, 54480, Note_on_c, 8, 55, 95
7, 54480, Note_on_c, 8, 48, 95
7, 54600, Note_off_c, 8, 60, 95
7, 54600, Note_off_c, 8, 55, 95
7, 54600, Note_off_c, 8, 48, 95
7, 54720, Note_on_c, 8, 60, 95
7, 54720, Note_on_c, 8, 55, 95
7, 54720, Note_on_c, 8, 48, 95
7, 54840, Note_off_c, 8, 60, 95
7, 54840, Note_off_c, 8, 55, 95
7, 54840, Note_off_c, 8, 48, 95
7, 55200, Note_on_c, 8, 60, 95
7, 55200, Note_on_c, 8, 55, 95
7, 55200, Note_on_c, 8, 48, 95
7, 55320, Note_off_c, 8, 60, 95
7, 55320, Note_off_c, 8, 55, 95
7, 55320, Note_off_c, 8, 48, 95
7, 55440, Note_on_c, 8, 60, 95
7, 55440, Note_on_c, 8, 55, 95
7, 55440, Note_on_c, 8, 48, 95
7, 55560, Note_off_c, 8, 60, 95
7, 55560, Note_off_c, 8, 55, 95
7, 55560, Note_off_c, 8, 48, 95
7, 55680, Note_on_c, 8, 60, 95
7, 55680, Note_on_c, 8, 55, 95
7, 55680, Note_on_c, 8, 48, 95
7, 55800, Note_off_c, 8, 60, 95
7, 55800, Note_off_c, 8, 55, 95
7, 55800, Note_off_c, 8, 48, 95
7, 56160, Note_on_c, 8, 60, 95
7, 56160, Note_on_c, 8, 55, 95
7, 56160, Note_on_c, 8, 48, 95
7, 56280, Note_off_c, 8, 60, 95
7, 56280, Note_off_c, 8, 55, 95
7, 56280, Note_off_c, 8, 48, 95
7, 56400, Note_on_c, 8, 60, 95
7, 56400, Note_on_c, 8, 55, 95
7, 56400, Note_on_c, 8, 48, 95
7, 56520, Note_off_c, 8, 60, 95
7, 56520, Note_off_c, 8, 55, 95
7, 56520, Note_off_c, 8, 48, 95
7, 56640, Note_on_c, 8, 60, 95
7, 56640, Note_on_c, 8, 55, 95
7, 56640, Note_on_c, 8, 48, 95
7, 56760, Note_off_c, 8, 60, 95
7, 56760, Note_off_c, 8, 55, 95
7, 56760, Note_off_c, 8, 48, 95
7, 57120, Note_on_c, 8, 60, 95
7, 57120, Note_on_c, 8, 55, 95
7, 57120, Note_on_c, 8, 48, 95
7, 57240, Note_off_c, 8, 60, 95
7, 57240, Note_off_c, 8, 55, 95
7, 57240, Note_off_c, 8, 48, 95
7, 57360, Note_on_c, 8, 60, 95
7, 57360, Note_on_c, 8, 55, 95
7, 57360, Note_on_c, 8, 48, 95
7, 57480, Note_off_c, 8, 60, 95
7, 57480, Note_off_c, 8, 55, 95
7, 57480, Note_off_c, 8, 48, 95
7, 57600, Note_on_c, 8, 59, 95
7, 57600, Note_on_c, 8, 54, 95
7, 57600, Note_on_c, 8, 47, 95
7, 57720, Note_off_c, 8, 59, 95
7, 57720, Note_off_c, 8, 54, 95
7, 57720, Note_off_c, 8, 47, 95
7, 58080, Note_on_c, 8, 59, 95
7, 58080, Note_on_c, 8, 54, 95
7, 58080, Note_on_c, 8, 47, 95
7, 58200, Note_off_c, 8, 59, 95
7, 58200, Note_off_c, 8, 54, 95
7, 58200, Note_off_c, 8, 47, 95
7, 58320, Note_on_c, 8, 59, 95
7, 58320, Note_on_c, 8, 54, 95
7, 58320, Note_on_c, 8, 47, 95
7, 58440, Note_off_c, 8, 59, 95
7, 58440, Note_off_c, 8, 54, 95
7, 58440, Note_off_c, 8, 47, 95
7, 58560, Note_on_c, 8, 59, 95
7, 58560, Note_on_c, 8, 54, 95
7, 58560, Note_on_c, 8, 47, 95
7, 58680, Note_off_c, 8, 59, 95
7, 58680, Note_off_c, 8, 54, 95
7, 58680, Note_off_c, 8, 47, 95
7, 59040, Note_on_c, 8, 59, 95
7, 59040, Note_on_c, 8, 54, 95
7, 59040, Note_on_c, 8, 47, 95
7, 59160, Note_off_c, 8, 59, 95
7, 59160, Note_off_c, 8, 54, 95
7, 59160, Note_off_c, 8, 47, 95
7, 59280, Note_on_c, 8, 59, 95
7, 59280, Note_on_c, 8, 54, 95
7, 59280, Note_on_c, 8, 47, 95
7, 59400, Note_off_c, 8, 59, 95
7, 59400, Note_off_c, 8, 54, 95
7, 59400, Note_off_c, 8, 47, 95
7, 59520, Note_on_c, 8, 59, 95
7, 59520, Note_on_c, 8, 54, 95
7, 59520, Note_on_c, 8, 47, 95
7, 59640, Note_off_c, 8, 59, 95
7, 59640, Note_off_c, 8, 54, 95
7, 59640, Note_off_c, 8, 47, 95
7, 60000, Note_on_c, 8, 59, 95
7, 60000, Note_on_c, 8, 54, 95
7, 60000, Note_on_c, 8, 47, 95
7, 60120, Note_off_c, 8, 59, 95
7, 60120, Note_off_c, 8, 54, 95
7, 60120, Note_off_c, 8, 47, 95
7, 60240, Note_on_c, 8, 59, 95
7, 60240, Note_on_c, 8, 54, 95
7, 60240, Note_on_c, 8, 47, 95
7, 60360, Note_off_c, 8, 59, 95
7, 60360, Note_off_c, 8, 54, 95
7, 60360, Note_off_c, 8, 47, 95
7, 60480, Note_on_c, 8, 59, 95
7, 60480, Note_on_c, 8, 54, 95
7, 60480, Note_on_c, 8, 47, 95
7, 60600, Note_off_c, 8, 59, 95
7, 60600, Note_off_c, 8, 54, 95
7, 60600, Note_off_c, 8, 47, 95
7, 60960, Note_on_c, 8, 59, 95
7, 60960, Note_on_c, 8, 54, 95
7, 60960, Note_on_c, 8, 47, 95
7, 61080, Note_off_c, 8, 59, 95
7, 61080, Note_off_c, 8, 54, 95
7, 61080, Note_off_c, 8, 47, 95
7, 61200, Note_on_c, 8, 59, 95
7, 61200, Note_on_c, 8, 54, 95
7, 61200, Note_on_c, 8, 47, 95
7, 61320, Note_off_c, 8, 59, 95
7, 61320, Note_off_c, 8, 54, 95
7, 61320, Note_off_c, 8, 47, 95
7, 61440, Note_on_c, 8, 52, 95
7, 61440, Note_on_c, 8, 47, 95
7, 61440, Note_on_c, 8, 40, 95
7, 61560, Note_off_c, 8, 52, 95
7, 61560, Note_off_c, 8, 47, 95
7, 61560, Note_off_c, 8, 40, 95
7, 61920, Note_on_c, 8, 52, 95
7, 61920, Note_on_c, 8, 47, 95
7, 61920, Note_on_c, 8, 40, 95
7, 62040, Note_off_c, 8, 52, 95
7, 62040, Note_off_c, 8, 47, 95
7, 62040, Note_off_c, 8, 40, 95
7, 62160, Note_on_c, 8, 52, 95
7, 62160, Note_on_c, 8, 47, 95
7, 62160, Note_on_c, 8, 40, 95
7, 62280, Note_off_c, 8, 52, 95
7, 62280, Note_off_c, 8, 47, 95
7, 62280, Note_off_c, 8, 40, 95
7, 62400, Note_on_c, 8, 52, 95
7, 62400, Note_on_c, 8, 47, 95
7, 62400, Note_on_c, 8, 40, 95
7, 62520, Note_off_c, 8, 52, 95
7, 62520, Note_off_c, 8, 47, 95
7, 62520, Note_off_c, 8, 40, 95
7, 62880, Note_on_c, 8, 52, 95
7, 62880, Note_on_c, 8, 47, 95
7, 62880, Note_on_c, 8, 40, 95
7, 63000, Note_off_c, 8, 52, 95
7, 63000, Note_off_c, 8, 47, 95
7, 63000, Note_off_c, 8, 40, 95
7, 63120, Note_on_c, 8, 52, 95
7, 63120, Note_on_c, 8, 47, 95
7, 63120, Note_on_c, 8, 40, 95
7, 63240, Note_off_c, 8, 52, 95
7, 63240, Note_off_c, 8, 47, 95
7, 63240, Note_off_c, 8, 40, 95
7, 63360, Note_on_c, 8, 52, 95
7, 63360, Note_on_c, 8, 47, 95
7, 63360, Note_on_c, 8, 40, 95
7, 63480, Note_off_c, 8, 52, 95
7, 63480, Note_off_c, 8, 47, 95
7, 63480, Note_off_c, 8, 40, 95
7, 63840, Note_on_c, 8, 52, 95
7, 63840, Note_on_c, 8, 47, 95
7, 63840, Note_on_c, 8, 40, 95
7, 63960, Note_off_c, 8, 52, 95
7, 63960, Note_off_c, 8, 47, 95
7, 63960, Note_off_c, 8, 40, 95
7, 64080, Note_on_c, 8, 52, 95
7, 64080, Note_on_c, 8, 47, 95
7, 64080, Note_on_c, 8, 40, 95
7, 64200, Note_off_c, 8, 52, 95
7, 64200, Note_off_c, 8, 47, 95
7, 64200, Note_off_c, 8, 40, 95
7, 64320, Note_on_c, 8, 52, 95
7, 64320, Note_on_c, 8, 47, 95
7, 64320, Note_on_c, 8, 40, 95
7, 64440, Note_off_c, 8, 52, 95
7, 64440, Note_off_c, 8, 47, 95
7, 64440, Note_off_c, 8, 40, 95
7, 64800, Note_on_c, 8, 52, 95
7, 64800, Note_on_c, 8, 47, 95
7, 64800, Note_on_c, 8, 40, 95
7, 64920, Note_off_c, 8, 52, 95
7, 64920, Note_off_c, 8, 47, 95
7, 64920, Note_off_c, 8, 40, 95
7, 65040, Note_on_c, 8, 52, 95
7, 65040, Note_on_c, 8, 47, 95
7, 65040, Note_on_c, 8, 40, 95
7, 65160, Note_off_c, 8, 52, 95
7, 65160, Note_off_c, 8, 47, 95
7, 65160, Note_off_c, 8, 40, 95
7, 65280, Note_on_c, 8, 55, 95
7, 65280, Note_on_c, 8, 50, 95
7, 65280, Note_on_c, 8, 43, 95
7, 65400, Note_off_c, 8, 55, 95
7, 65400, Note_off_c, 8, 50, 95
7, 65400, Note_off_c, 8, 43, 95
7, 65760, Note_on_c, 8, 55, 95
7, 65760, Note_on_c, 8, 50, 95
7, 65760, Note_on_c, 8, 43, 95
7, 65880, Note_off_c, 8, 55, 95
7, 65880, Note_off_c, 8, 50, 95
7, 65880, Note_off_c, 8, 43, 95
7, 66000, Note_on_c, 8, 55, 95
7, 66000, Note_on_c, 8, 50, 95
7, 66000, Note_on_c, 8, 43, 95
7, 66120, Note_off_c, 8, 55, 95
7, 66120, Note_off_c, 8, 50, 95
7, 66120, Note_off_c, 8, 43, 95
7, 66240, Note_on_c, 8, 55, 95
7, 66240, Note_on_c, 8, 50, 95
7, 66240, Note_on_c, 8, 43, 95
7, 66360, Note_off_c, 8, 55, 95
7, 66360, Note_off_c, 8, 50, 95
7, 66360, Note_off_c, 8, 43, 95
7, 66720, Note_on_c, 8, 55, 95
7, 66720, Note_on_c, 8, 50, 95
7, 66720, Note_on_c, 8, 43, 95
7, 66840, Note_off_c, 8, 55, 95
7, 66840, Note_off_c, 8, 50, 95
7, 66840, Note_off_c, 8, 43, 95
7, 66960, Note_on_c, 8, 55, 95
7, 66960, Note_on_c, 8, 50, 95
7, 66960, Note_on_c, 8, 43, 95
7, 67080, Note_off_c, 8, 55, 95
7, 67080, Note_off_c, 8, 50, 95
7, 67080, Note_off_c, 8, 43, 95
7, 67200, Note_on_c, 8, 55, 95
7, 67200, Note_on_c, 8, 50, 95
7, 67200, Note_on_c, 8, 43, 95
7, 67320, Note_off_c, 8, 55, 95
7, 67320, Note_off_c, 8, 50, 95
7, 67320, Note_off_c, 8, 43, 95
7, 67680, Note_on_c, 8, 55, 95
7, 67680, Note_on_c, 8, 50, 95
7, 67680, Note_on_c, 8, 43, 95
7, 67800, Note_off_c, 8, 55, 95
7, 67800, Note_off_c, 8, 50, 95
7, 67800, Note_off_c, 8, 43, 95
7, 67920, Note_on_c, 8, 55, 95
7, 67920, Note_on_c, 8, 50, 95
7, 67920, Note_on_c, 8, 43, 95
7, 68040, Note_off_c, 8, 55, 95
7, 68040, Note_off_c, 8, 50, 95
7, 68040, Note_off_c, 8, 43, 95
7, 68160, Note_on_c, 8, 55, 95
7, 68160, Note_on_c, 8, 50, 95
7, 68160, Note_on_c, 8, 43, 95
7, 68280, Note_off_c, 8, 55, 95
7, 68280, Note_off_c, 8, 50, 95
7, 68280, Note_off_c, 8, 43, 95
7, 68640, Note_on_c, 8, 55, 95
7, 68640, Note_on_c, 8, 50, 95
7, 68640, Note_on_c, 8, 43, 95
7, 68760, Note_off_c, 8, 55, 95
7, 68760, Note_off_c, 8, 50, 95
7, 68760, Note_off_c, 8, 43, 95
7, 68880, Note_on_c, 8, 55, 95
7, 68880, Note_on_c, 8, 50, 95
7, 68880, Note_on_c, 8, 43, 95
7, 69000, Note_off_c, 8, 55, 95
7, 69000, Note_off_c, 8, 50, 95
7, 69000, Note_off_c, 8, 43, 95
7, 69120, Note_on_c, 8, 60, 95
7, 69120, Note_on_c, 8, 55, 95
7, 69120, Note_on_c, 8, 48, 95
7, 69240, Note_off_c, 8, 60, 95
7, 69240, Note_off_c, 8, 55, 95
7, 69240, Note_off_c, 8, 48, 95
7, 69600, Note_on_c, 8, 60, 95
7, 69600, Note_on_c, 8, 55, 95
7, 69600, Note_on_c, 8, 48, 95
7, 69720, Note_off_c, 8, 60, 95
7, 69720, Note_off_c, 8, 55, 95
7, 69720, Note_off_c, 8, 48, 95
7, 69840, Note_on_c, 8, 60, 95
7, 69840, Note_on_c, 8, 55, 95
7, 69840, Note_on_c, 8, 48, 95
7, 69960, Note_off_c, 8, 60, 95
7, 69960, Note_off_c, 8, 55, 95
7, 69960, Note_off_c, 8, 48, 95
7, 70080, Note_on_c, 8, 60, 95
7, 70080, Note_on_c, 8, 55, 95
7, 70080, Note_on_c, 8, 48, 95
7, 70200, Note_off_c, 8, 60, 95
7, 70200, Note_off_c, 8, 55, 95
7, 70200, Note_off_c, 8, 48, 95
7, 70560, Note_on_c, 8, 60, 95
7, 70560, Note_on_c, 8, 55, 95
7, 70560, Note_on_c, 8, 48, 95
7, 70680, Note_off_c, 8, 60, 95
7, 70680, Note_off_c, 8, 55, 95
7, 70680, Note_off_c, 8, 48, 95
7, 70800, Note_on_c, 8, 60, 95
7, 70800, Note_on_c, 8, 55, 95
7, 70800, Note_on_c, 8, 48, 95
7, 70920, Note_off_c, 8, 60, 95
7, 70920, Note_off_c, 8, 55, 95
7, 70920, Note_off_c, 8, 48, 95
7, 71040, Note_on_c, 8, 60, 95
7, 71040, Note_on_c, 8, 55, 95
7, 71040, Note_on_c, 8, 48, 95
7, 71160, Note_off_c, 8, 60, 95
7, 71160, Note_off_c, 8, 55, 95
7, 71160, Note_off_c, 8, 48, 95
7, 71520, Note_on_c, 8, 60, 95
7, 71520, Note_on_c, 8, 55, 95
7, 71520, Note_on_c, 8, 48, 95
7, 71640, Note_off_c, 8, 60, 95
7, 71640, Note_off_c, 8, 55, 95
7, 71640, Note_off_c, 8, 48, 95
7, 71760, Note_on_c, 8, 60, 95
7, 71760, Note_on_c, 8, 55, 95
7, 71760, Note_on_c, 8, 48, 95
7, 71880, Note_off_c, 8, 60, 95
7, 71880, Note_off_c, 8, 55, 95
7, 71880, Note_off_c, 8, 48, 95
7, 72000, Note_on_c, 8, 60, 95
7, 72000, Note_on_c, 8, 55, 95
7, 72000, Note_on_c, 8, 48, 95
7, 72120, Note_off_c, 8, 60, 95
7, 72120, Note_off_c, 8, 55, 95
7, 72120, Note_off_c, 8, 48, 95
7, 72480, Note_on_c, 8, 60, 95
7, 72480, Note_on_c, 8, 55, 95
7, 72480, Note_on_c, 8, 48, 95
7, 72600, Note_off_c, 8, 60, 95
7, 72600, Note_off_c, 8, 55, 95
7, 72600, Note_off_c, 8, 48, 95
7, 72720, Note_on_c, 8, 60, 95
7, 72720, Note_on_c, 8, 55, 95
7, 72720, Note_on_c, 8, 48, 95
7, 72840, Note_off_c, 8, 60, 95
7, 72840, Note_off_c, 8, 55, 95
7, 72840, Note_off_c, 8, 48, 95
7, 72960, Note_on_c, 8, 59, 95
7, 72960, Note_on_c, 8, 54, 95
7, 72960, Note_on_c, 8, 47, 95
7, 73080, Note_off_c, 8, 59, 95
7, 73080, Note_off_c, 8, 54, 95
7, 73080, Note_off_c, 8, 47, 95
7, 73440, Note_on_c, 8, 59, 95
7, 73440, Note_on_c, 8, 54, 95
7, 73440, Note_on_c, 8, 47, 95
7, 73560, Note_off_c, 8, 59, 95
7, 73560, Note_off_c, 8, 54, 95
7, 73560, Note_off_c, 8, 47, 95
7, 73680, Note_on_c, 8, 59, 95
7, 73680, Note_on_c, 8, 54, 95
7, 73680, Note_on_c, 8, 47, 95
7, 73800, Note_off_c, 8, 59, 95
7, 73800, Note_off_c, 8, 54, 95
7, 73800, Note_off_c, 8, 47, 95
7, 73920, Note_on_c, 8, 59, 95
7, 73920, Note_on_c, 8, 54, 95
7, 73920, Note_on_c, 8, 47, 95
7, 74040, Note_off_c, 8, 59, 95
7, 74040, Note_off_c, 8, 54, 95
7, 74040, Note_off_c, 8, 47, 95
7, 74400, Note_on_c, 8, 59, 95
7, 74400, Note_on_c, 8, 54, 95
7, 74400, Note_on_c, 8, 47, 95
7, 74520, Note_off_c, 8, 59, 95
7, 74520, Note_off_c, 8, 54, 95
7, 74520, Note_off_c, 8, 47, 95
7, 74640, Note_on_c, 8, 59, 95
7, 74640, Note_on_c, 8, 54, 95
7, 74640, Note_on_c, 8, 47, 95
7, 74760, Note_off_c, 8, 59, 95
7, 74760, Note_off_c, 8, 54, 95
7, 74760, Note_off_c, 8, 47, 95
7, 74880, Note_on_c, 8, 59, 95
7, 74880, Note_on_c, 8, 54, 95
7, 74880, Note_on_c, 8, 47, 95
7, 75000, Note_off_c, 8, 59, 95
7, 75000, Note_off_c, 8, 54, 95
7, 75000, Note_off_c, 8, 47, 95
7, 75360, Note_on_c, 8, 59, 95
7, 75360, Note_on_c, 8, 54, 95
7, 75360, Note_on_c, 8, 47, 95
7, 75480, Note_off_c, 8, 59, 95
7, 75480, Note_off_c, 8, 54, 95
7, 75480, Note_off_c, 8, 47, 95
7, 75600, Note_on_c, 8, 59, 95
7, 75600, Note_on_c, 8, 54, 95
7, 75600, Note_on_c, 8, 47, 95
7, 75720, Note_off_c, 8, 59, 95
7, 75720, Note_off_c, 8, 54, 95
7, 75720, Note_off_c, 8, 47, 95
7, 75840, Note_on_c, 8, 59, 95
7, 75840, Note_on_c, 8, 54, 95
7, 75840, Note_on_c, 8, 47, 95
7, 75960, Note_off_c, 8, 59, 95
7, 75960, Note_off_c, 8, 54, 95
7, 75960, Note_off_c, 8, 47, 95
7, 76320, Note_on_c, 8, 59, 95
7, 76320, Note_on_c, 8, 54, 95
7, 76320, Note_on_c, 8, 47, 95
7, 76440, Note_off_c, 8, 59, 95
7, 76440, Note_off_c, 8, 54, 95
7, 76440, Note_off_c, 8, 47, 95
7, 76560, Note_on_c, 8, 59, 95
7, 76560, Note_on_c, 8, 54, 95
7, 76560, Note_on_c, 8, 47, 95
7, 76680, Note_off_c, 8, 59, 95
7, 76680, Note_off_c, 8, 54, 95
7, 76680, Note_off_c, 8, 47, 95
7, 76800, Note_on_c, 8, 52, 95
7, 76800, Note_on_c, 8, 47, 95
7, 76800, Note_on_c, 8, 40, 95
7, 76920, Note_off_c, 8, 52, 95
7, 76920, Note_off_c, 8, 47, 95
7, 76920, Note_off_c, 8, 40, 95
7, 77280, Note_on_c, 8, 52, 95
7, 77280, Note_on_c, 8, 47, 95
7, 77280, Note_on_c, 8, 40, 95
7, 77400, Note_off_c, 8, 52, 95
7, 77400, Note_off_c, 8, 47, 95
7, 77400, Note_off_c, 8, 40, 95
7, 77520, Note_on_c, 8, 52, 95
7, 77520, Note_on_c, 8, 47, 95
7, 77520, Note_on_c, 8, 40, 95
7, 77640, Note_off_c, 8, 52, 95
7, 77640, Note_off_c, 8, 47, 95
7, 77640, Note_off_c, 8, 40, 95
7, 77760, Note_on_c, 8, 52, 95
7, 77760, Note_on_c, 8, 47, 95
7, 77760, Note_on_c, 8, 40, 95
7, 77880, Note_off_c, 8, 52, 95
7, 77880, Note_off_c, 8, 47, 95
7, 77880, Note_off_c, 8, 40, 95
7, 78240, Note_on_c, 8, 52, 95
7, 78240, Note_on_c, 8, 47, 95
7, 78240, Note_on_c, 8, 40, 95
7, 78360, Note_off_c, 8, 52, 95
7, 78360, Note_off_c, 8, 47, 95
7, 78360, Note_off_c, 8, 40, 95
7, 78480, Note_on_c, 8, 52, 95
7, 78480, Note_on_c, 8, 47, 95
7, 78480, Note_on_c, 8, 40, 95
7, 78600, Note_off_c, 8, 52, 95
7, 78600, Note_off_c, 8, 47, 95
7, 78600, Note_off_c, 8, 40, 95
7, 78720, Note_on_c, 8, 52, 95
7, 78720, Note_on_c, 8, 47, 95
7, 78720, Note_on_c, 8, 40, 95
7, 78840, Note_off_c, 8, 52, 95
7, 78840, Note_off_c, 8, 47, 95
7, 78840, Note_off_c, 8, 40, 95
7, 79200, Note_on_c, 8, 52, 95
7, 79200, Note_on_c, 8, 47, 95
7, 79200, Note_on_c, 8, 40, 95
7, 79320, Note_off_c, 8, 52, 95
7, 79320, Note_off_c, 8, 47, 95
7, 79320, Note_off_c, 8, 40, 95
7, 79440, Note_on_c, 8, 52, 95
7, 79440, Note_on_c, 8, 47, 95
7, 79440, Note_on_c, 8, 40, 95
7, 79560, Note_off_c, 8, 52, 95
7, 79560, Note_off_c, 8, 47, 95
7, 79560, Note_off_c, 8, 40, 95
7, 79680, Note_on_c, 8, 52, 95
7, 79680, Note_on_c, 8, 47, 95
7, 79680, Note_on_c, 8, 40, 95
7, 79800, Note_off_c, 8, 52, 95
7, 79800, Note_off_c, 8, 47, 95
7, 79800, Note_off_c, 8, 40, 95
7, 80160, Note_on_c, 8, 52, 95
7, 80160, Note_on_c, 8, 47, 95
7, 80160, Note_on_c, 8, 40, 95
7, 80280, Note_off_c, 8, 52, 95
7, 80280, Note_off_c, 8, 47, 95
7, 80280, Note_off_c, 8, 40, 95
7, 80400, Note_on_c, 8, 52, 95
7, 80400, Note_on_c, 8, 47, 95
7, 80400, Note_on_c, 8, 40, 95
7, 80520, Note_off_c, 8, 52, 95
7, 80520, Note_off_c, 8, 47, 95
7, 80520, Note_off_c, 8, 40, 95
7, 80640, Note_on_c, 8, 55, 95
7, 80640, Note_on_c, 8, 50, 95
7, 80640, Note_on_c, 8, 43, 95
7, 80760, Note_off_c, 8, 55, 95
7, 80760, Note_off_c, 8, 50, 95
7, 80760, Note_off_c, 8, 43, 95
7, 81120, Note_on_c, 8, 55, 95
7, 81120, Note_on_c, 8, 50, 95
7, 81120, Note_on_c, 8, 43, 95
7, 81240, Note_off_c, 8, 55, 95
7, 81240, Note_off_c, 8, 50, 95
7, 81240, Note_off_c, 8, 43, 95
7, 81360, Note_on_c, 8, 55, 95
7, 81360, Note_on_c, 8, 50, 95
7, 81360, Note_on_c, 8, 43, 95
7, 81480, Note_off_c, 8, 55, 95
7, 81480, Note_off_c, 8, 50, 95
7, 81480, Note_off_c, 8, 43, 95
7, 81600, Note_on_c, 8, 55, 95
7, 81600, Note_on_c, 8, 50, 95
7, 81600, Note_on_c, 8, 43, 95
7, 81720, Note_off_c, 8, 55, 95
7, 81720, Note_off_c, 8, 50, 95
7, 81720, Note_off_c, 8, 43, 95
7, 82080, Note_on_c, 8, 55, 95
7, 82080, Note_on_c, 8, 50, 95
7, 82080, Note_on_c, 8, 43, 95
7, 82200, Note_off_c, 8, 55, 95
7, 82200, Note_off_c, 8, 50, 95
7, 82200, Note_off_c, 8, 43, 95
7, 82320, Note_on_c, 8, 55, 95
7, 82320, Note_on_c, 8, 50, 95
7, 82320, Note_on_c, 8, 43, 95
7, 82440, Note_off_c, 8, 55, 95
7, 82440, Note_off_c, 8, 50, 95
7, 82440, Note_off_c, 8, 43, 95
7, 82560, Note_on_c, 8, 55, 95
7, 82560, Note_on_c, 8, 50, 95
7, 82560, Note_on_c, 8, 43, 95
7, 82680, Note_off_c, 8, 55, 95
7, 82680, Note_off_c, 8, 50, 95
7, 82680, Note_off_c, 8, 43, 95
7, 83040, Note_on_c, 8, 55, 95
7, 83040, Note_on_c, 8, 50, 95
7, 83040, Note_on_c, 8, 43, 95
7, 83160, Note_off_c, 8, 55, 95
7, 83160, Note_off_c, 8, 50, 95
7, 83160, Note_off_c, 8, 43, 95
7, 83280, Note_on_c, 8, 55, 95
7, 83280, Note_on_c, 8, 50, 95
7, 83280, Note_on_c, 8, 43, 95
7, 83400, Note_off_c, 8, 55, 95
7, 83400, Note_off_c, 8, 50, 95
7, 83400, Note_off_c, 8, 43, 95
7, 83520, Note_on_c, 8, 55, 95
7, 83520, Note_on_c, 8, 50, 95
7, 83520, Note_on_c, 8, 43, 95
7, 83640, Note_off_c, 8, 55, 95
7, 83640, Note_off_c, 8, 50, 95
7, 83640, Note_off_c, 8, 43, 95
7, 84000, Note_on_c, 8, 55, 95
7, 84000, Note_on_c, 8, 50, 95
7, 84000, Note_on_c, 8, 43, 95
7, 84120, Note_off_c, 8, 55, 95
7, 84120, Note_off_c, 8, 50, 95
7, 84120, Note_off_c, 8, 43, 95
7, 84240, Note_on_c, 8, 55, 95
7, 84240, Note_on_c, 8, 50, 95
7, 84240, Note_on_c, 8, 43, 95
7, 84360, Note_off_c, 8, 55, 95
7, 84360, Note_off_c, 8, 50, 95
7, 84360, Note_off_c, 8, 43, 95
7, 84480, Note_on_c, 8, 60, 95
7, 84480, Note_on_c, 8, 55, 95
7, 84480, Note_on_c, 8, 48, 95
7, 84600, Note_off_c, 8, 60, 95
7, 84600, Note_off_c, 8, 55, 95
7, 84600, Note_off_c, 8, 48, 95
7, 84960, Note_on_c, 8, 60, 95
7, 84960, Note_on_c, 8, 55, 95
7, 84960, Note_on_c, 8, 48, 95
7, 85080, Note_off_c, 8, 60, 95
7, 85080, Note_off_c, 8, 55, 95
7, 85080, Note_off_c, 8, 48, 95
7, 85200, Note_on_c, 8, 60, 95
7, 85200, Note_on_c, 8, 55, 95
7, 85200, Note_on_c, 8, 48, 95
7, 85320, Note_off_c, 8, 60, 95
7, 85320, Note_off_c, 8, 55, 95
7, 85320, Note_off_c, 8, 48, 95
7, 85440, Note_on_c, 8, 60, 95
7, 85440, Note_on_c, 8, 55, 95
7, 85440, Note_on_c, 8, 48, 95
7, 85560, Note_off_c, 8, 60, 95
7, 85560, Note_off_c, 8, 55, 95
7, 85560, Note_off_c, 8, 48, 95
7, 85920, Note_on_c, 8, 60, 95
7, 85920, Note_on_c, 8, 55, 95
7, 85920, Note_on_c, 8, 48, 95
7, 86040, Note_off_c, 8, 60, 95
7, 86040, Note_off_c, 8, 55, 95
7, 86040, Note_off_c, 8, 48, 95
7, 86160, Note_on_c, 8, 60, 95
7, 86160, Note_on_c, 8, 55, 95
7, 86160, Note_on_c, 8, 48, 95
7, 86280, Note_off_c, 8, 60, 95
7, 86280, Note_off_c, 8, 55, 95
7, 86280, Note_off_c, 8, 48, 95
7, 86400, Note_on_c, 8, 60, 95
7, 86400, Note_on_c, 8, 55, 95
7, 86400, Note_on_c, 8, 48, 95
7, 86520, Note_off_c, 8, 60, 95
7, 86520, Note_off_c, 8, 55, 95
7, 86520, Note_off_c, 8, 48, 95
7, 86880, Note_on_c, 8, 60, 95
7, 86880, Note_on_c, 8, 55, 95
7, 86880, Note_on_c, 8, 48, 95
7, 87000, Note_off_c, 8, 60, 95
7, 87000, Note_off_c, 8, 55, 95
7, 87000, Note_off_c, 8, 48, 95
7, 87120, Note_on_c, 8, 60, 95
7, 87120, Note_on_c, 8, 55, 95
7, 87120, Note_on_c, 8, 48, 95
7, 87240, Note_off_c, 8, 60, 95
7, 87240, Note_off_c, 8, 55, 95
7, 87240, Note_off_c, 8, 48, 95
7, 87360, Note_on_c, 8, 60, 95
7, 87360, Note_on_c, 8, 55, 95
7, 87360, Note_on_c, 8, 48, 95
7, 87480, Note_off_c, 8, 60, 95
7, 87480, Note_off_c, 8, 55, 95
7, 87480, Note_off_c, 8, 48, 95
7, 87840, Note_on_c, 8, 60, 95
7, 87840, Note_on_c, 8, 55, 95
7, 87840, Note_on_c, 8, 48, 95
7, 87960, Note_off_c, 8, 60, 95
7, 87960, Note_off_c, 8, 55, 95
7, 87960, Note_off_c, 8, 48, 95
7, 88080, Note_on_c, 8, 60, 95
7, 88080, Note_on_c, 8, 55, 95
7, 88080, Note_on_c, 8, 48, 95
7, 88200, Note_off_c, 8, 60, 95
7, 88200, Note_off_c, 8, 55, 95
7, 88200, Note_off_c, 8, 48, 95
7, 88320, Note_on_c, 8, 59, 95
7, 88320, Note_on_c, 8, 54, 95
7, 88320, Note_on_c, 8, 47, 95
7, 88440, Note_off_c, 8, 59, 95
7, 88440, Note_off_c, 8, 54, 95
7, 88440, Note_off_c, 8, 47, 95
7, 88800, Note_on_c, 8, 59, 95
7, 88800, Note_on_c, 8, 54, 95
7, 88800, Note_on_c, 8, 47, 95
7, 88920, Note_off_c, 8, 59, 95
7, 88920, Note_off_c, 8, 54, 95
7, 88920, Note_off_c, 8, 47, 95
7, 89040, Note_on_c, 8, 59, 95
7, 89040, Note_on_c, 8, 54, 95
7, 89040, Note_on_c, 8, 47, 95
7, 89160, Note_off_c, 8, 59, 95
7, 89160, Note_off_c, 8, 54, 95
7, 89160, Note_off_c, 8, 47, 95
7, 89280, Note_on_c, 8, 59, 95
7, 89280, Note_on_c, 8, 54, 95
7, 89280, Note_on_c, 8, 47, 95
7, 89400, Note_off_c, 8, 59, 95
7, 89400, Note_off_c, 8, 54, 95
7, 89400, Note_off_c, 8, 47, 95
7, 89760, Note_on_c, 8, 59, 95
7, 89760, Note_on_c, 8, 54, 95
7, 89760, Note_on_c, 8, 47, 95
7, 89880, Note_off_c, 8, 59, 95
7, 89880, Note_off_c, 8, 54, 95
7, 89880, Note_off_c, 8, 47, 95
7, 90000, Note_on_c, 8, 59, 95
7, 90000, Note_on_c, 8, 54, 95
7, 90000, Note_on_c, 8, 47, 95
7, 90120, Note_off_c, 8, 59, 95
7, 90120, Note_off_c, 8, 54, 95
7, 90120, Note_off_c, 8, 47, 95
7, 90240, Note_on_c, 8, 59, 95
7, 90240, Note_on_c, 8, 54, 95
7, 90240, Note_on_c, 8, 47, 95
7, 90360, Note_off_c, 8, 59, 95
7, 90360, Note_off_c, 8, 54, 95
7, 90360, Note_off_c, 8, 47, 95
7, 90720, Note_on_c, 8, 59, 95
7, 90720, Note_on_c, 8, 54, 95
7, 90720, Note_on_c, 8, 47, 95
7, 90840, Note_off_c, 8, 59, 95
7, 90840, Note_off_c, 8, 54, 95
7, 90840, Note_off_c, 8, 47, 95
7, 90960, Note_on_c, 8, 59, 95
7, 90960, Note_on_c, 8, 54, 95
7, 90960, Note_on_c, 8, 47, 95
7, 91080, Note_off_c, 8, 59, 95
7, 91080, Note_off_c, 8, 54, 95
7, 91080, Note_off_c, 8, 47, 95
7, 91200, Note_on_c, 8, 59, 95
7, 91200, Note_on_c, 8, 54, 95
7, 91200, Note_on_c, 8, 47, 95
7, 91320, Note_off_c, 8, 59, 95
7, 91320, Note_off_c, 8, 54, 95
7, 91320, Note_off_c, 8, 47, 95
7, 91680, Note_on_c, 8, 59, 95
7, 91680, Note_on_c, 8, 54, 95
7, 91680, Note_on_c, 8, 47, 95
7, 91800, Note_off_c, 8, 59, 95
7, 91800, Note_off_c, 8, 54, 95
7, 91800, Note_off_c, 8, 47, 95
7, 91920, Note_on_c, 8, 59, 95
7, 91920, Note_on_c, 8, 54, 95
7, 91920, Note_on_c, 8, 47, 95
7, 92040, Note_off_c, 8, 59, 95
7, 92040, Note_off_c, 8, 54, 95
7, 92040, Note_off_c, 8, 47, 95
7, 92160, Note_on_c, 8, 52, 95
7, 92160, Note_on_c, 8, 47, 95
7, 92160, Note_on_c, 8, 40, 95
7, 92280, Note_off_c, 8, 52, 95
7, 92280, Note_off_c, 8, 47, 95
7, 92280, Note_off_c, 8, 40, 95
7, 92640, Note_on_c, 8, 52, 95
7, 92640, Note_on_c, 8, 47, 95
7, 92640, Note_on_c, 8, 40, 95
7, 92760, Note_off_c, 8, 52, 95
7, 92760, Note_off_c, 8, 47, 95
7, 92760, Note_off_c, 8, 40, 95
7, 92880, Note_on_c, 8, 52, 95
7, 92880, Note_on_c, 8, 47, 95
7, 92880, Note_on_c, 8, 40, 95
7, 93000, Note_off_c, 8, 52, 95
7, 93000, Note_off_c, 8, 47, 95
7, 93000, Note_off_c, 8, 40, 95
7, 93120, Note_on_c, 8, 52, 95
7, 93120, Note_on_c, 8, 47, 95
7, 93120, Note_on_c, 8, 40, 95
7, 93240, Note_off_c, 8, 52, 95
7, 93240, Note_off_c, 8, 47, 95
7, 93240, Note_off_c, 8, 40, 95
7, 93600, Note_on_c, 8, 52, 95
7, 93600, Note_on_c, 8, 47, 95
7, 93600, Note_on_c, 8, 40, 95
7, 93720, Note_off_c, 8, 52, 95
7, 93720, Note_off_c, 8, 47, 95
7, 93720, Note_off_c, 8, 40, 95
7, 93840, Note_on_c, 8, 52, 95
7, 93840, Note_on_c, 8, 47, 95
7, 93840, Note_on_c, 8, 40, 95
7, 93960, Note_off_c, 8, 52, 95
7, 93960, Note_off_c, 8, 47, 95
7, 93960, Note_off_c, 8, 40, 95
7, 94080, Note_on_c, 8, 52, 95
7, 94080, Note_on_c, 8, 47, 95
7, 94080, Note_on_c, 8, 40, 95
7, 94200, Note_off_c, 8, 52, 95
7, 94200, Note_off_c, 8, 47, 95
7, 94200, Note_off_c, 8, 40, 95
7, 94560, Note_on_c, 8, 52, 95
7, 94560, Note_on_c, 8, 47, 95
7, 94560, Note_on_c, 8, 40, 95
7, 94680, Note_off_c, 8, 52, 95
7, 94680, Note_off_c, 8, 47, 95
7, 94680, Note_off_c, 8, 40, 95
7, 94800, Note_on_c, 8, 52, 95
7, 94800, Note_on_c, 8, 47, 95
7, 94800, Note_on_c, 8, 40, 95
7, 94920, Note_off_c, 8, 52, 95
7, 94920, Note_off_c, 8, 47, 95
7, 94920, Note_off_c, 8, 40, 95
7, 95040, Note_on_c, 8, 52, 95
7, 95040, Note_on_c, 8, 47, 95
7, 95040, Note_on_c, 8, 40, 95
7, 95160, Note_off_c, 8, 52, 95
7, 95160, Note_off_c, 8, 47, 95
7, 95160, Note_off_c, 8, 40, 95
7, 95520, Note_on_c, 8, 52, 95
7, 95520, Note_on_c, 8, 47, 95
7, 95520, Note_on_c, 8, 40, 95
7, 95640, Note_off_c, 8, 52, 95
7, 95640, Note_off_c, 8, 47, 95
7, 95640, Note_off_c, 8, 40, 95
7, 95760, Note_on_c, 8, 52, 95
7, 95760, Note_on_c, 8, 47, 95
7, 95760, Note_on_c, 8, 40, 95
7, 95880, Note_off_c, 8, 52, 95
7, 95880, Note_off_c, 8, 47, 95
7, 95880, Note_off_c, 8, 40, 95
7, 96000, Note_on_c, 8, 55, 95
7, 96000, Note_on_c, 8, 50, 95
7, 96000, Note_on_c, 8, 43, 95
7, 96120, Note_off_c, 8, 55, 95
7, 96120, Note_off_c, 8, 50, 95
7, 96120, Note_off_c, 8, 43, 95
7, 96480, Note_on_c, 8, 55, 95
7, 96480, Note_on_c, 8, 50, 95
7, 96480, Note_on_c, 8, 43, 95
7, 96600, Note_off_c, 8, 55, 95
7, 96600, Note_off_c, 8, 50, 95
7, 96600, Note_off_c, 8, 43, 95
7, 96720, Note_on_c, 8, 55, 95
7, 96720, Note_on_c, 8, 50, 95
7, 96720, Note_on_c, 8, 43, 95
7, 96840, Note_off_c, 8, 55, 95
7, 96840, Note_off_c, 8, 50, 95
7, 96840, Note_off_c, 8, 43, 95
7, 96960, Note_on_c, 8, 55, 95
7, 96960, Note_on_c, 8, 50, 95
7, 96960, Note_on_c, 8, 43, 95
7, 97080, Note_off_c, 8, 55, 95
7, 97080, Note_off_c, 8, 50, 95
7, 97080, Note_off_c, 8, 43, 95
7, 97440, Note_on_c, 8, 55, 95
7, 97440, Note_on_c, 8, 50, 95
7, 97440, Note_on_c, 8, 43, 95
7, 97560, Note_off_c, 8, 55, 95
7, 97560, Note_off_c, 8, 50, 95
7, 97560, Note_off_c, 8, 43, 95
7, 97680, Note_on_c, 8, 55, 95
7, 97680, Note_on_c, 8, 50, 95
7, 97680, Note_on_c, 8, 43, 95
7, 97800, Note_off_c, 8, 55, 95
7, 97800, Note_off_c, 8, 50, 95
7, 97800, Note_off_c, 8, 43, 95
7, 97920, Note_on_c, 8, 55, 95
7, 97920, Note_on_c, 8, 50, 95
7, 97920, Note_on_c, 8, 43, 95
7, 98040, Note_off_c, 8, 55, 95
7, 98040, Note_off_c, 8, 50, 95
7, 98040, Note_off_c, 8, 43, 95
7, 98400, Note_on_c, 8, 55, 95
7, 98400, Note_on_c, 8, 50, 95
7, 98400, Note_on_c, 8, 43, 95
7, 98520, Note_off_c, 8, 55, 95
7, 98520, Note_off_c, 8, 50, 95
7, 98520, Note_off_c, 8, 43, 95
7, 98640, Note_on_c, 8, 55, 95
7, 98640, Note_on_c, 8, 50, 95
7, 98640, Note_on_c, 8, 43, 95
7, 98760, Note_off_c, 8, 55, 95
7, 98760, Note_off_c, 8, 50, 95
7, 98760, Note_off_c, 8, 43, 95
7, 98880, Note_on_c, 8, 55, 95
7, 98880, Note_on_c, 8, 50, 95
7, 98880, Note_on_c, 8, 43, 95
7, 99000, Note_off_c, 8, 55, 95
7, 99000, Note_off_c, 8, 50, 95
7, 99000, Note_off_c, 8, 43, 95
7, 99360, Note_on_c, 8, 55, 95
7, 99360, Note_on_c, 8, 50, 95
7, 99360, Note_on_c, 8, 43, 95
7, 99480, Note_off_c, 8, 55, 95
7, 99480, Note_off_c, 8, 50, 95
7, 99480, Note_off_c, 8, 43, 95
7, 99600, Note_on_c, 8, 55, 95
7, 99600, Note_on_c, 8, 50, 95
7, 99600, Note_on_c, 8, 43, 95
7, 99720, Note_off_c, 8, 55, 95
7, 99720, Note_off_c, 8, 50, 95
7, 99720, Note_off_c, 8, 43, 95
7, 99840, Note_on_c, 8, 60, 95
7, 99840, Note_on_c, 8, 55, 95
7, 99840, Note_on_c, 8, 48, 95
7, 99960, Note_off_c, 8, 60, 95
7, 99960, Note_off_c, 8, 55, 95
7, 99960, Note_off_c, 8, 48, 95
7, 100320, Note_on_c, 8, 60, 95
7, 100320, Note_on_c, 8, 55, 95
7, 100320, Note_on_c, 8, 48, 95
7, 100440, Note_off_c, 8, 60, 95
7, 100440, Note_off_c, 8, 55, 95
7, 100440, Note_off_c, 8, 48, 95
7, 100560, Note_on_c, 8, 60, 95
7, 100560, Note_on_c, 8, 55, 95
7, 100560, Note_on_c, 8, 48, 95
7, 100680, Note_off_c, 8, 60, 95
7, 100680, Note_off_c, 8, 55, 95
7, 100680, Note_off_c, 8, 48, 95
7, 100800, Note_on_c, 8, 60, 95
7, 100800, Note_on_c, 8, 55, 95
7, 100800, Note_on_c, 8, 48, 95
7, 100920, Note_off_c, 8, 60, 95
7, 100920, Note_off_c, 8, 55, 95
7, 100920, Note_off_c, 8, 48, 95
7, 101280, Note_on_c, 8, 60, 95
7, 101280, Note_on_c, 8, 55, 95
7, 101280, Note_on_c, 8, 48, 95
7, 101400, Note_off_c, 8, 60, 95
7, 101400, Note_off_c, 8, 55, 95
7, 101400, Note_off_c, 8, 48, 95
7, 101520, Note_on_c, 8, 60, 95
7, 101520, Note_on_c, 8, 55, 95
7, 101520, Note_on_c, 8, 48, 95
7, 101640, Note_off_c, 8, 60, 95
7, 101640, Note_off_c, 8, 55, 95
7, 101640, Note_off_c, 8, 48, 95
7, 101760, Note_on_c, 8, 60, 95
7, 101760, Note_on_c, 8, 55, 95
7, 101760, Note_on_c, 8, 48, 95
7, 101880, Note_off_c, 8, 60, 95
7, 101880, Note_off_c, 8, 55, 95
7, 101880, Note_off_c, 8, 48, 95
7, 102240, Note_on_c, 8, 60, 95
7, 102240, Note_on_c, 8, 55, 95
7, 102240, Note_on_c, 8, 48, 95
7, 102360, Note_off_c, 8, 60, 95
7, 102360, Note_off_c, 8, 55, 95
7, 102360, Note_off_c, 8, 48, 95
7, 102480, Note_on_c, 8, 60, 95
7, 102480, Note_on_c, 8, 55, 95
7, 102480, Note_on_c, 8, 48, 95
7, 102600, Note_off_c, 8, 60, 95
7, 102600, Note_off_c, 8, 55, 95
7, 102600, Note_off_c, 8, 48, 95
7, 102720, Note_on_c, 8, 60, 95
7, 102720, Note_on_c, 8, 55, 95
7, 102720, Note_on_c, 8, 48, 95
7, 102840, Note_off_c, 8, 60, 95
7, 102840, Note_off_c, 8, 55, 95
7, 102840, Note_off_c, 8, 48, 95
7, 103200, Note_on_c, 8, 60, 95
7, 103200, Note_on_c, 8, 55, 95
7, 103200, Note_on_c, 8, 48, 95
7, 103320, Note_off_c, 8, 60, 95
7, 103320, Note_off_c, 8, 55, 95
7, 103320, Note_off_c, 8, 48, 95
7, 103440, Note_on_c, 8, 60, 95
7, 103440, Note_on_c, 8, 55, 95
7, 103440, Note_on_c, 8, 48, 95
7, 103560, Note_off_c, 8, 60, 95
7, 103560, Note_off_c, 8, 55, 95
7, 103560, Note_off_c, 8, 48, 95
7, 103680, Note_on_c, 8, 59, 95
7, 103680, Note_on_c, 8, 54, 95
7, 103680, Note_on_c, 8, 47, 95
7, 103800, Note_off_c, 8, 59, 95
7, 103800, Note_off_c, 8, 54, 95
7, 103800, Note_off_c, 8, 47, 95
7, 104160, Note_on_c, 8, 59, 95
7, 104160, Note_on_c, 8, 54, 95
7, 104160, Note_on_c, 8, 47, 95
7, 104280, Note_off_c, 8, 59, 95
7, 104280, Note_off_c, 8, 54, 95
7, 104280, Note_off_c, 8, 47, 95
7, 104400, Note_on_c, 8, 59, 95
7, 104400, Note_on_c, 8, 54, 95
7, 104400, Note_on_c, 8, 47, 95
7, 104520, Note_off_c, 8, 59, 95
7, 104520, Note_off_c, 8, 54, 95
7, 104520, Note_off_c, 8, 47, 95
7, 104640, Note_on_c, 8, 59, 95
7, 104640, Note_on_c, 8, 54, 95
7, 104640, Note_on_c, 8, 47, 95
7, 104760, Note_off_c, 8, 59, 95
7, 104760, Note_off_c, 8, 54, 95
7, 104760, Note_off_c, 8, 47, 95
7, 105120, Note_on_c, 8, 59, 95
7, 105120, Note_on_c, 8, 54, 95
7, 105120, Note_on_c, 8, 47, 95
7, 105240, Note_off_c, 8, 59, 95
7, 105240, Note_off_c, 8, 54, 95
7, 105240, Note_off_c, 8, 47, 95
7, 105360, Note_on_c, 8, 59, 95
7, 105360, Note_on_c, 8, 54, 95
7, 105360, Note_on_c, 8, 47, 95
7, 105480, Note_off_c, 8, 59, 95
7, 105480, Note_off_c, 8, 54, 95
7, 105480, Note_off_c, 8, 47, 95
7, 105600, Note_on_c, 8, 59, 95
7, 105600, Note_on_c, 8, 54, 95
7, 105600, Note_on_c, 8, 47, 95
7, 105720, Note_off_c, 8, 59, 95
7, 105720, Note_off_c, 8, 54, 95
7, 105720, Note_off_c, 8, 47, 95
7, 106080, Note_on_c, 8, 59, 95
7, 106080, Note_on_c, 8, 54, 95
7, 106080, Note_on_c, 8, 47, 95
7, 106200, Note_off_c, 8, 59, 95
7, 106200, Note_off_c, 8, 54, 95
7, 106200, Note_off_c, 8, 47, 95
7, 106320, Note_on_c, 8, 59, 95
7, 106320, Note_on_c, 8, 54, 95
7, 106320, Note_on_c, 8, 47, 95
7, 106440, Note_off_c, 8, 59, 95
7, 106440, Note_off_c, 8, 54, 95
7, 106440, Note_off_c, 8, 47, 95
7, 106560, Note_on_c, 8, 59, 95
7, 106560, Note_on_c, 8, 54, 95
7, 106560, Note_on_c, 8, 47, 95
7, 106680, Note_off_c, 8, 59, 95
7, 106680, Note_off_c, 8, 54, 95
7, 106680, Note_off_c, 8, 47, 95
7, 107040, Note_on_c, 8, 59, 95
7, 107040, Note_on_c, 8, 54, 95
7, 107040, Note_on_c, 8, 47, 95
7, 107160, Note_off_c, 8, 59, 95
7, 107160, Note_off_c, 8, 54, 95
7, 107160, Note_off_c, 8, 47, 95
7, 107280, Note_on_c, 8, 59, 95
7, 107280, Note_on_c, 8, 54, 95
7, 107280, Note_on_c, 8, 47, 95
7, 107400, Note_off_c, 8, 59, 95
7, 107400, Note_off_c, 8, 54, 95
7, 107400, Note_off_c, 8, 47, 95
7, 107520, Note_on_c, 8, 52, 95
7, 107520, Note_on_c, 8, 47, 95
7, 107520, Note_on_c, 8, 40, 95
7, 107640, Note_off_c, 8, 52, 95
7, 107640, Note_off_c, 8, 47, 95
7, 107640, Note_off_c, 8, 40, 95
7, 108000, Note_on_c, 8, 52, 95
7, 108000, Note_on_c, 8, 47, 95
7, 108000, Note_on_c, 8, 40, 95
7, 108120, Note_off_c, 8, 52, 95
7, 108120, Note_off_c, 8, 47, 95
7, 108120, Note_off_c, 8, 40, 95
7, 108240, Note_on_c, 8, 52, 95
7, 108240, Note_on_c, 8, 47, 95
7, 108240, Note_on_c, 8, 40, 95
7, 108360, Note_off_c, 8, 52, 95
7, 108360, Note_off_c, 8, 47, 95
7, 108360, Note_off_c, 8, 40, 95
7, 108480, Note_on_c, 8, 52, 95
7, 108480, Note_on_c, 8, 47, 95
7, 108480, Note_on_c, 8, 40, 95
7, 108600, Note_off_c, 8, 52, 95
7, 108600, Note_off_c, 8, 47, 95
7, 108600, Note_off_c, 8, 40, 95
7, 108960, Note_on_c, 8, 52, 95
7, 108960, Note_on_c, 8, 47, 95
7, 108960, Note_on_c, 8, 40, 95
7, 109080, Note_off_c, 8, 52, 95
7, 109080, Note_off_c, 8, 47, 95
7, 109080, Note_off_c, 8, 40, 95
7, 109200, Note_on_c, 8, 52, 95
7, 109200, Note_on_c, 8, 47, 95
7, 109200, Note_on_c, 8, 40, 95
7, 109320, Note_off_c, 8, 52, 95
7, 109320, Note_off_c, 8, 47, 95
7, 109320, Note_off_c, 8, 40, 95
7, 109440, Note_on_c, 8, 52, 95
7, 109440, Note_on_c, 8, 47, 95
7, 109440, Note_on_c, 8, 40, 95
7, 109560, Note_off_c, 8, 52, 95
7, 109560, Note_off_c, 8, 47, 95
7, 109560, Note_off_c, 8, 40, 95
7, 109920, Note_on_c, 8, 52, 95
7, 109920, Note_on_c, 8, 47, 95
7, 109920, Note_on_c, 8, 40, 95
7, 110040, Note_off_c, 8, 52, 95
7, 110040, Note_off_c, 8, 47, 95
7, 110040, Note_off_c, 8, 40, 95
7, 110160, Note_on_c, 8, 52, 95
7, 110160, Note_on_c, 8, 47, 95
7, 110160, Note_on_c, 8, 40, 95
7, 110280, Note_off_c, 8, 52, 95
7, 110280, Note_off_c, 8, 47, 95
7, 110280, Note_off_c, 8, 40, 95
7, 110400, Note_on_c, 8, 52, 95
7, 110400, Note_on_c, 8, 47, 95
7, 110400, Note_on_c, 8, 40, 95
7, 110520, Note_off_c, 8, 52, 95
7, 110520, Note_off_c, 8, 47, 95
7, 110520, Note_off_c, 8, 40, 95
7, 110880, Note_on_c, 8, 52, 95
7, 110880, Note_on_c, 8, 47, 95
7, 110880, Note_on_c, 8, 40, 95
7, 111000, Note_off_c, 8, 52, 95
7, 111000, Note_off_c, 8, 47, 95
7, 111000, Note_off_c, 8, 40, 95
7, 111120, Note_on_c, 8, 52, 95
7, 111120, Note_on_c, 8, 47, 95
7, 111120, Note_on_c, 8, 40, 95
7, 111240, Note_off_c, 8, 52, 95
7, 111240, Note_off_c, 8, 47, 95
7, 111240, Note_off_c, 8, 40, 95
7, 111360, Note_on_c, 8, 55, 95
7, 111360, Note_on_c, 8, 50, 95
7, 111360, Note_on_c, 8, 43, 95
7, 111480, Note_off_c, 8, 55, 95
7, 111480, Note_off_c, 8, 50, 95
7, 111480, Note_off_c, 8, 43, 95
7, 111840, Note_on_c, 8, 55, 95
7, 111840, Note_on_c, 8, 50, 95
7, 111840, Note_on_c, 8, 43, 95
7, 111960, Note_off_c, 8, 55, 95
7, 111960, Note_off_c, 8, 50, 95
7, 111960, Note_off_c, 8, 43, 95
7, 112080, Note_on_c, 8, 55, 95
7, 112080, Note_on_c, 8, 50, 95
7, 112080, Note_on_c, 8, 43, 95
7, 112200, Note_off_c, 8, 55, 95
7, 112200, Note_off_c, 8, 50, 95
7, 112200, Note_off_c, 8, 43, 95
7, 112320, Note_on_c, 8, 55, 95
7, 112320, Note_on_c, 8, 50, 95
7, 112320, Note_on_c, 8, 43, 95
7, 112440, Note_off_c, 8, 55, 95
7, 112440, Note_off_c, 8, 50, 95
7, 112440, Note_off_c, 8, 43, 95
7, 112800, Note_on_c, 8, 55, 95
7, 112800, Note_on_c, 8, 50, 95
7, 112800, Note_on_c, 8, 43, 95
7, 112920, Note_off_c, 8, 55, 95
7, 112920, Note_off_c, 8, 50, 95
7, 112920, Note_off_c, 8, 43, 95
7, 113040, Note_on_c, 8, 55, 95
7, 113040, Note_on_c, 8, 50, 95
7, 113040, Note_on_c, 8, 43, 95
7, 113160, Note_off_c, 8, 55, 95
7, 113160, Note_off_c, 8, 50, 95
7, 113160, Note_off_c, 8, 43, 95
7, 113280, Note_on_c, 8, 55, 95
7, 113280, Note_on_c, 8, 50, 95
7, 113280, Note_on_c, 8, 43, 95
7, 113400, Note_off_c, 8, 55, 95
7, 113400, Note_off_c, 8, 50, 95
7, 113400, Note_off_c, 8, 43, 95
7, 113760, Note_on_c, 8, 55, 95
7, 113760, Note_on_c, 8, 50, 95
7, 113760, Note_on_c, 8, 43, 95
7, 113880, Note_off_c, 8, 55, 95
7, 113880, Note_off_c, 8, 50, 95
7, 113880, Note_off_c, 8, 43, 95
7, 114000, Note_on_c, 8, 55, 95
7, 114000, Note_on_c, 8, 50, 95
7, 114000, Note_on_c, 8, 43, 95
7, 114120, Note_off_c, 8, 55, 95
7, 114120, Note_off_c, 8, 50, 95
7, 114120, Note_off_c, 8, 43, 95
7, 114240, Note_on_c, 8, 55, 95
7, 114240, Note_on_c, 8, 50, 95
7, 114240, Note_on_c, 8, 43, 95
7, 114360, Note_off_c, 8, 55, 95
7, 114360, Note_off_c, 8, 50, 95
7, 114360, Note_off_c, 8, 43, 95
7, 114720, Note_on_c, 8, 55, 95
7, 114720, Note_on_c, 8, 50, 95
7, 114720, Note_on_c, 8, 43, 95
7, 114840, Note_off_c, 8, 55, 95
7, 114840, Note_off_c, 8, 50, 95
7, 114840, Note_off_c, 8, 43, 95
7, 114960, Note_on_c, 8, 55, 95
7, 114960, Note_on_c, 8, 50, 95
7, 114960, Note_on_c, 8, 43, 95
7, 115080, Note_off_c, 8, 55, 95
7, 115080, Note_off_c, 8, 50, 95
7, 115080, Note_off_c, 8, 43, 95
7, 115200, Note_on_c, 8, 60, 95
7, 115200, Note_on_c, 8, 55, 95
7, 115200, Note_on_c, 8, 48, 95
7, 115320, Note_off_c, 8, 60, 95
7, 115320, Note_off_c, 8, 55, 95
7, 115320, Note_off_c, 8, 48, 95
7, 115680, Note_on_c, 8, 60, 95
7, 115680, Note_on_c, 8, 55, 95
7, 115680, Note_on_c, 8, 48, 95
7, 115800, Note_off_c, 8, 60, 95
7, 115800, Note_off_c, 8, 55, 95
7, 115800, Note_off_c, 8, 48, 95
7, 115920, Note_on_c, 8, 60, 95
7, 115920, Note_on_c, 8, 55, 95
7, 115920, Note_on_c, 8, 48, 95
7, 116040, Note_off_c, 8, 60, 95
7, 116040, Note_off_c, 8, 55, 95
7, 116040, Note_off_c, 8, 48, 95
7, 116160, Note_on_c, 8, 60, 95
7, 116160, Note_on_c, 8, 55, 95
7, 116160, Note_on_c, 8, 48, 95
7, 116280, Note_off_c, 8, 60, 95
7, 116280, Note_off_c, 8, 55, 95
7, 116280, Note_off_c, 8, 48, 95
7, 116640, Note_on_c, 8, 60, 95
7, 116640, Note_on_c, 8, 55, 95
7, 116640, Note_on_c, 8, 48, 95
7, 116760, Note_off_c, 8, 60, 95
7, 116760, Note_off_c, 8, 55, 95
7, 116760, Note_off_c, 8, 48, 95
7, 116880, Note_on_c, 8, 60, 95
7, 116880, Note_on_c, 8, 55, 95
7, 116880, Note_on_c, 8, 48, 95
7, 117000, Note_off_c, 8, 60, 95
7, 117000, Note_off_c, 8, 55, 95
7, 117000, Note_off_c, 8, 48, 95
7, 117120, Note_on_c, 8, 60, 95
7, 117120, Note_on_c, 8, 55, 95
7, 117120, Note_on_c, 8, 48, 95
7, 117240, Note_off_c, 8, 60, 95
7, 117240, Note_off_c, 8, 55, 95
7, 117240, Note_off_c, 8, 48, 95
7, 117600, Note_on_c, 8, 60, 95
7, 117600, Note_on_c, 8, 55, 95
7, 117600, Note_on_c, 8, 48, 95
7, 117720, Note_off_c, 8, 60, 95
7, 117720, Note_off_c, 8, 55, 95
7, 117720, Note_off_c, 8, 48, 95
7, 117840, Note_on_c, 8, 60, 95
7, 117840, Note_on_c, 8, 55, 95
7, 117840, Note_on_c, 8, 48, 95
7, 117960, Note_off_c, 8, 60, 95
7, 117960, Note_off_c, 8, 55, 95
7, 117960, Note_off_c, 8, 48, 95
7, 118080, Note_on_c, 8, 60, 95
7, 118080, Note_on_c, 8, 55, 95
7, 118080, Note_on_c, 8, 48, 95
7, 118200, Note_off_c, 8, 60, 95
7, 118200, Note_off_c, 8, 55, 95
7, 118200, Note_off_c, 8, 48, 95
7, 118560, Note_on_c, 8, 60, 95
7, 118560, Note_on_c, 8, 55, 95
7, 118560, Note_on_c, 8, 48, 95
7, 118680, Note_off_c, 8, 60, 95
7, 118680, Note_off_c, 8, 55, 95
7, 118680, Note_off_c, 8, 48, 95
7, 118800, Note_on_c, 8, 60, 95
7, 118800, Note_on_c, 8, 55, 95
7, 118800, Note_on_c, 8, 48, 95
7, 118920, Note_off_c, 8, 60, 95
7, 118920, Note_off_c, 8, 55, 95
7, 118920, Note_off_c, 8, 48, 95
7, 119040, Note_on_c, 8, 59, 95
7, 119040, Note_on_c, 8, 54, 95
7, 119040, Note_on_c, 8, 47, 95
7, 119160, Note_off_c, 8, 59, 95
7, 119160, Note_off_c, 8, 54, 95
7, 119160, Note_off_c, 8, 47, 95
7, 119520, Note_on_c, 8, 59, 95
7, 119520, Note_on_c, 8, 54, 95
7, 119520, Note_on_c, 8, 47, 95
7, 119640, Note_off_c, 8, 59, 95
7, 119640, Note_off_c, 8, 54, 95
7, 119640, Note_off_c, 8, 47, 95
7, 119760, Note_on_c, 8, 59, 95
7, 119760, Note_on_c, 8, 54, 95
7, 119760, Note_on_c, 8, 47, 95
7, 119880, Note_off_c, 8, 59, 95
7, 119880, Note_off_c, 8, 54, 95
7, 119880, Note_off_c, 8, 47, 95
7, 120000, Note_on_c, 8, 59, 95
7, 120000, Note_on_c, 8, 54, 95
7, 120000, Note_on_c, 8, 47, 95
7, 120120, Note_off_c, 8, 59, 95
7, 120120, Note_off_c, 8, 54, 95
7, 120120, Note_off_c, 8, 47, 95
7, 120480, Note_on_c, 8, 59, 95
7, 120480, Note_on_c, 8, 54, 95
7, 120480, Note_on_c, 8, 47, 95
7, 120600, Note_off_c, 8, 59, 95
7, 120600, Note_off_c, 8, 54, 95
7, 120600, Note_off_c, 8, 47, 95
7, 120720, Note_on_c, 8, 59, 95
7, 120720, Note_on_c, 8, 54, 95
7, 120720, Note_on_c, 8, 47, 95
7, 120840, Note_off_c, 8, 59, 95
7, 120840, Note_off_c, 8, 54, 95
7, 120840, Note_off_c, 8, 47, 95
7, 120960, Note_on_c, 8, 59, 95
7, 120960, Note_on_c, 8, 54, 95
7, 120960, Note_on_c, 8, 47, 95
7, 121080, Note_off_c, 8, 59, 95
7, 121080, Note_off_c, 8, 54, 95
7, 121080, Note_off_c, 8, 47, 95
7, 121440, Note_on_c, 8, 59, 95
7, 121440, Note_on_c, 8, 54, 95
7, 121440, Note_on_c, 8, 47, 95
7, 121560, Note_off_c, 8, 59, 95
7, 121560, Note_off_c, 8, 54, 95
7, 121560, Note_off_c, 8, 47, 95
7, 121680, Note_on_c, 8, 59, 95
7, 121680, Note_on_c, 8, 54, 95
7, 121680, Note_on_c, 8, 47, 95
7, 121800, Note_off_c, 8, 59, 95
7, 121800, Note_off_c, 8, 54, 95
7, 121800, Note_off_c, 8, 47, 95
7, 121920, Note_on_c, 8, 59, 95
7, 121920, Note_on_c, 8, 54, 95
7, 121920, Note_on_c, 8, 47, 95
7, 122040, Note_off_c, 8, 59, 95
7, 122040, Note_off_c, 8, 54, 95
7, 122040, Note_off_c, 8, 47, 95
7, 122400, Note_on_c, 8, 59, 95
7, 122400, Note_on_c, 8, 54, 95
7, 122400, Note_on_c, 8, 47, 95
7, 122520, Note_off_c, 8, 59, 95
7, 122520, Note_off_c, 8, 54, 95
7, 122520, Note_off_c, 8, 47, 95
7, 122640, Note_on_c, 8, 59, 95
7, 122640, Note_on_c, 8, 54, 95
7, 122640, Note_on_c, 8, 47, 95
7, 122760, Note_off_c, 8, 59, 95
7, 122760, Note_off_c, 8, 54, 95
7, 122760, Note_off_c, 8, 47, 95
7, 122880, Note_on_c, 8, 52, 95
7, 122880, Note_on_c, 8, 47, 95
7, 122880, Note_on_c, 8, 40, 95
7, 123000, Note_off_c, 8, 52, 95
7, 123000, Note_off_c, 8, 47, 95
7, 123000, Note_off_c, 8, 40, 95
7, 123360, Note_on_c, 8, 52, 95
7, 123360, Note_on_c, 8, 47, 95
7, 123360, Note_on_c, 8, 40, 95
7, 123480, Note_off_c, 8, 52, 95
7, 123480, Note_off_c, 8, 47, 95
7, 123480, Note_off_c, 8, 40, 95
7, 123600, Note_on_c, 8, 52, 95
7, 123600, Note_on_c, 8, 47, 95
7, 123600, Note_on_c, 8, 40, 95
7, 123720, Note_off_c, 8, 52, 95
7, 123720, Note_off_c, 8, 47, 95
7, 123720, Note_off_c, 8, 40, 95
7, 123840, Note_on_c, 8, 52, 95
7, 123840, Note_on_c, 8, 47, 95
7, 123840, Note_on_c, 8, 40, 95
7, 123960, Note_off_c, 8, 52, 95
7, 123960, Note_off_c, 8, 47, 95
7, 123960, Note_off_c, 8, 40, 95
7, 124320, Note_on_c, 8, 52, 95
7, 124320, Note_on_c, 8, 47, 95
7, 124320, Note_on_c, 8, 40, 95
7, 124440, Note_off_c, 8, 52, 95
7, 124440, Note_off_c, 8, 47, 95
7, 124440, Note_off_c, 8, 40, 95
7, 124560, Note_on_c, 8, 52, 95
7, 124560, Note_on_c, 8, 47, 95
7, 124560, Note_on_c, 8, 40, 95
7, 124680, Note_off_c, 8, 52, 95
7, 124680, Note_off_c, 8, 47, 95
7, 124680, Note_off_c, 8, 40, 95
7, 124800, Note_on_c, 8, 52, 95
7, 124800, Note_on_c, 8, 47, 95
7, 124800, Note_on_c, 8, 40, 95
7, 124920, Note_off_c, 8, 52, 95
7, 124920, Note_off_c, 8, 47, 95
7, 124920, Note_off_c, 8, 40, 95
7, 125280, Note_on_c, 8, 52, 95
7, 125280, Note_on_c, 8, 47, 95
7, 125280, Note_on_c, 8, 40, 95
7, 125400, Note_off_c, 8, 52, 95
7, 125400, Note_off_c, 8, 47, 95
7, 125400, Note_off_c, 8, 40, 95
7, 125520, Note_on_c, 8, 52, 95
7, 125520, Note_on_c, 8, 47, 95
7, 125520, Note_on_c, 8, 40, 95
7, 125640, Note_off_c, 8, 52, 95
7, 125640, Note_off_c, 8, 47, 95
7, 125640, Note_off_c, 8, 40, 95
7, 125760, Note_on_c, 8, 52, 95
7, 125760, Note_on_c, 8, 47, 95
7, 125760, Note_on_c, 8, 40, 95
7, 125880, Note_off_c, 8, 52, 95
7, 125880, Note_off_c, 8, 47, 95
7, 125880, Note_off_c, 8, 40, 95
7, 126240, Note_on_c, 8, 52, 95
7, 126240, Note_on_c, 8, 47, 95
7, 126240, Note_on_c, 8, 40, 95
7, 126360, Note_off_c, 8, 52, 95
7, 126360, Note_off_c, 8, 47, 95
7, 126360, Note_off_c, 8, 40, 95
7, 126480, Note_on_c, 8, 52, 95
7, 126480, Note_on_c, 8, 47, 95
7, 126480, Note_on_c, 8, 40, 95
7, 126600, Note_off_c, 8, 52, 95
7, 126600, Note_off_c, 8, 47, 95
7, 126600, Note_off_c, 8, 40, 95
7, 126720, Note_on_c, 8, 55, 95
7, 126720, Note_on_c, 8, 50, 95
7, 126720, Note_on_c, 8, 43, 95
7, 126840, Note_off_c, 8, 55, 95
7, 126840, Note_off_c, 8, 50, 95
7, 126840, Note_off_c, 8, 43, 95
7, 127200, Note_on_c, 8, 55, 95
7, 127200, Note_on_c, 8, 50, 95
7, 127200, Note_on_c, 8, 43, 95
7, 127320, Note_off_c, 8, 55, 95
7, 127320, Note_off_c, 8, 50, 95
7, 127320, Note_off_c, 8, 43, 95
7, 127440, Note_on_c, 8, 55, 95
7, 127440, Note_on_c, 8, 50, 95
7, 127440, Note_on_c, 8, 43, 95
7, 127560, Note_off_c, 8, 55, 95
7, 127560, Note_off_c, 8, 50, 95
7, 127560, Note_off_c, 8, 43, 95
7, 127680, Note_on_c, 8, 55, 95
7, 127680, Note_on_c, 8, 50, 95
7, 127680, Note_on_c, 8, 43, 95
7, 127800, Note_off_c, 8, 55, 95
7, 127800, Note_off_c, 8, 50, 95
7, 127800, Note_off_c, 8, 43, 95
7, 128160, Note_on_c, 8, 55, 95
7, 128160, Note_on_c, 8, 50, 95
7, 128160, Note_on_c, 8, 43, 95
7, 128280, Note_off_c, 8, 55, 95
7, 128280, Note_off_c, 8, 50, 95
7, 128280, Note_off_c, 8, 43, 95
7, 128400, Note_on_c, 8, 55, 95
7, 128400, Note_on_c, 8, 50, 95
7, 128400, Note_on_c, 8, 43, 95
7, 128520, Note_off_c, 8, 55, 95
7, 128520, Note_off_c, 8, 50, 95
7, 128520, Note_off_c, 8, 43, 95
7, 128640, Note_on_c, 8, 55, 95
7, 128640, Note_on_c, 8, 50, 95
7, 128640, Note_on_c, 8, 43, 95
7, 128760, Note_off_c, 8, 55, 95
7, 128760, Note_off_c, 8, 50, 95
7, 128760, Note_off_c, 8, 43, 95
7, 129120, Note_on_c, 8, 55, 95
7, 129120, Note_on_c, 8, 50, 95
7, 129120, Note_on_c, 8, 43, 95
7, 129240, Note_off_c, 8, 55, 95
7, 129240, Note_off_c, 8, 50, 95
7, 129240, Note_off_c, 8, 43, 95
7, 129360, Note_on_c, 8, 55, 95
7, 129360, Note_on_c, 8, 50, 95
7, 129360, Note_on_c, 8, 43, 95
7, 129480, Note_off_c, 8, 55, 95
7, 129480, Note_off_c, 8, 50, 95
7, 129480, Note_off_c, 8, 43, 95
7, 129600, Note_on_c, 8, 55, 95
7, 129600, Note_on_c, 8, 50, 95
7, 129600, Note_on_c, 8, 43, 95
7, 129720, Note_off_c, 8, 55, 95
7, 129720, Note_off_c, 8, 50, 95
7, 129720, Note_off_c, 8, 43, 95
7, 130080, Note_on_c, 8, 55, 95
7, 130080, Note_on_c, 8, 50, 95
7, 130080, Note_on_c, 8, 43, 95
7, 130200, Note_off_c, 8, 55, 95
7, 130200, Note_off_c, 8, 50, 95
7, 130200, Note_off_c, 8, 43, 95
7, 130320, Note_on_c, 8, 55, 95
7, 130320, Note_on_c, 8, 50, 95
7, 130320, Note_on_c, 8, 43, 95
7, 130440, Note_off_c, 8, 55, 95
7, 130440, Note_off_c, 8, 50, 95
7, 130440, Note_off_c, 8, 43, 95
7, 130560, Note_on_c, 8, 60, 95
7, 130560, Note_on_c, 8, 55, 95
7, 130560, Note_on_c, 8, 48, 95
7, 130680, Note_off_c, 8, 60, 95
7, 130680, Note_off_c, 8, 55, 95
7, 130680, Note_off_c, 8, 48, 95
7, 131040, Note_on_c, 8, 60, 95
7, 131040, Note_on_c, 8, 55, 95
7, 131040, Note_on_c, 8, 48, 95
7, 131160, Note_off_c, 8, 60, 95
7, 131160, Note_off_c, 8, 55, 95
7, 131160, Note_off_c, 8, 48, 95
7, 131280, Note_on_c, 8, 60, 95
7, 131280, Note_on_c, 8, 55, 95
7, 131280, Note_on_c, 8, 48, 95
7, 131400, Note_off_c, 8, 60, 95
7, 131400, Note_off_c, 8, 55, 95
7, 131400, Note_off_c, 8, 48, 95
7, 131520, Note_on_c, 8, 60, 95
7, 131520, Note_on_c, 8, 55, 95
7, 131520, Note_on_c, 8, 48, 95
7, 131640, Note_off_c, 8, 60, 95
7, 131640, Note_off_c, 8, 55, 95
7, 131640, Note_off_c, 8, 48, 95
7, 132000, Note_on_c, 8, 60, 95
7, 132000, Note_on_c, 8, 55, 95
7, 132000, Note_on_c, 8, 48, 95
7, 132120, Note_off_c, 8, 60, 95
7, 132120, Note_off_c, 8, 55, 95
7, 132120, Note_off_c, 8, 48, 95
7, 132240, Note_on_c, 8, 60, 95
7, 132240, Note_on_c, 8, 55, 95
7, 132240, Note_on_c, 8, 48, 95
7, 132360, Note_off_c, 8, 60, 95
7, 132360, Note_off_c, 8, 55, 95
7, 132360, Note_off_c, 8, 48, 95
7, 132480, Note_on_c, 8, 60, 95
7, 132480, Note_on_c, 8, 55, 95
7, 132480, Note_on_c, 8, 48, 95
7, 132600, Note_off_c, 8, 60, 95
7, 132600, Note_off_c, 8, 55, 95
7, 132600, Note_off_c, 8, 48, 95
7, 132960, Note_on_c, 8, 60, 95
7, 132960, Note_on_c, 8, 55, 95
7, 132960, Note_on_c, 8, 48, 95
7, 133080, Note_off_c, 8, 60, 95
7, 133080, Note_off_c, 8, 55, 95
7, 133080, Note_off_c, 8, 48, 95
7, 133200, Note_on_c, 8, 60, 95
7, 133200, Note_on_c, 8, 55, 95
7, 133200, Note_on_c, 8, 48, 95
7, 133320, Note_off_c, 8, 60, 95
7, 133320, Note_off_c, 8, 55, 95
7, 133320, Note_off_c, 8, 48, 95
7, 133440, Note_on_c, 8, 60, 95
7, 133440, Note_on_c, 8, 55, 95
7, 133440, Note_on_c, 8, 48, 95
7, 133560, Note_off_c, 8, 60, 95
7, 133560, Note_off_c, 8, 55, 95
7, 133560, Note_off_c, 8, 48, 95
7, 133920, Note_on_c, 8, 60, 95
7, 133920, Note_on_c, 8, 55, 95
7, 133920, Note_on_c, 8, 48, 95
7, 134040, Note_off_c, 8, 60, 95
7, 134040, Note_off_c, 8, 55, 95
7, 134040, Note_off_c, 8, 48, 95
7, 134160, Note_on_c, 8, 60, 95
7, 134160, Note_on_c, 8, 55, 95
7, 134160, Note_on_c, 8, 48, 95
7, 134280, Note_off_c, 8, 60, 95
7, 134280, Note_off_c, 8, 55, 95
7, 134280, Note_off_c, 8, 48, 95
7, 184320, Note_on_c, 8, 52, 95
7, 184320, Note_on_c, 8, 47, 95
7, 184320, Note_on_c, 8, 40, 95
7, 184440, Note_off_c, 8, 52, 95
7, 184440, Note_off_c, 8, 47, 95
7, 184440, Note_off_c, 8, 40, 95
7, 184800, Note_on_c, 8, 52, 95
7, 184800, Note_on_c, 8, 47, 95
7, 184800, Note_on_c, 8, 40, 95
7, 184920, Note_off_c, 8, 52, 95
7, 184920, Note_off_c, 8, 47, 95
7, 184920, Note_off_c, 8, 40, 95
7, 185040, Note_on_c, 8, 52, 95
7, 185040, Note_on_c, 8, 47, 95
7, 185040, Note_on_c, 8, 40, 95
7, 185160, Note_off_c, 8, 52, 95
7, 185160, Note_off_c, 8, 47, 95
7, 185160, Note_off_c, 8, 40, 95
7, 185280, Note_on_c, 8, 52, 95
7, 185280, Note_on_c, 8, 47, 95
7, 185280, Note_on_c, 8, 40, 95
7, 185400, Note_off_c, 8, 52, 95
7, 185400, Note_off_c, 8, 47, 95
7, 185400, Note_off_c, 8, 40, 95
7, 185760, Note_on_c, 8, 52, 95
7, 185760, Note_on_c, 8, 47, 95
7, 185760, Note_on_c, 8, 40, 95
7, 185880, Note_off_c, 8, 52, 95
7, 185880, Note_off_c, 8, 47, 95
7, 185880, Note_off_c, 8, 40, 95
7, 186000, Note_on_c, 8, 52, 95
7, 186000, Note_on_c, 8, 47, 95
7, 186000, Note_on_c, 8, 40, 95
7, 186120, Note_off_c, 8, 52, 95
7, 186120, Note_off_c, 8, 47, 95
7, 186120, Note_off_c, 8, 40, 95
7, 186240, Note_on_c, 8, 52, 95
7, 186240, Note_on_c, 8, 47, 95
7, 186240, Note_on_c, 8, 40, 95
7, 186360, Note_off_c, 8, 52, 95
7, 186360, Note_off_c, 8, 47, 95
7, 186360, Note_off_c, 8, 40, 95
7, 186720, Note_on_c, 8, 52, 95
7, 186720, Note_on_c, 8, 47, 95
7, 186720, Note_on_c, 8, 40, 95
7, 186840, Note_off_c, 8, 52, 95
7, 186840, Note_off_c, 8, 47, 95
7, 186840, Note_off_c, 8, 40, 95
7, 186960, Note_on_c, 8, 52, 95
7, 186960, Note_on_c, 8, 47, 95
7, 186960, Note_on_c, 8, 40, 95
7, 187080, Note_off_c, 8, 52, 95
7, 187080, Note_off_c, 8, 47, 95
7, 187080, Note_off_c, 8, 40, 95
7, 187200, Note_on_c, 8, 52, 95
7, 187200, Note_on_c, 8, 47, 95
7, 187200, Note_on_c, 8, 40, 95
7, 187320, Note_off_c, 8, 52, 95
7, 187320, Note_off_c, 8, 47, 95
7, 187320, Note_off_c, 8, 40, 95
7, 187680, Note_on_c, 8, 52, 95
7, 187680, Note_on_c, 8, 47, 95
7, 187680, Note_on_c, 8, 40, 95
7, 187800, Note_off_c, 8, 52, 95
7, 187800, Note_off_c, 8, 47, 95
7, 187800, Note_off_c, 8, 40, 95
7, 187920, Note_on_c, 8, 52, 95
7, 187920, Note_on_c, 8, 47, 95
7, 187920, Note_on_c, 8, 40, 95
7, 188040, Note_off_c, 8, 52, 95
7, 188040, Note_off_c, 8, 47, 95
7, 188040, Note_off_c, 8, 40, 95
7, 188160, Note_on_c, 8, 55, 95
7, 188160, Note_on_c, 8, 50, 95
7, 188160, Note_on_c, 8, 43, 95
7, 188280, Note_off_c, 8, 55, 95
7, 188280, Note_off_c, 8, 50, 95
7, 188280, Note_off_c, 8, 43, 95
7, 188640, Note_on_c, 8, 55, 95
7, 188640, Note_on_c, 8, 50, 95
7, 188640, Note_on_c, 8, 43, 95
7, 188760, Note_off_c, 8, 55, 95
7, 188760, Note_off_c, 8, 50, 95
7, 188760, Note_off_c, 8, 43, 95
7, 188880, Note_on_c, 8, 55, 95
7, 188880, Note_on_c, 8, 50, 95
7, 188880, Note_on_c, 8, 43, 95
7, 189000, Note_off_c, 8, 55, 95
7, 189000, Note_off_c, 8, 50, 95
7, 189000, Note_off_c, 8, 43, 95
7, 189120, Note_on_c, 8, 55, 95
7, 189120, Note_on_c, 8, 50, 95
7, 189120, Note_on_c, 8, 43, 95
7, 189240, Note_off_c, 8, 55, 95
7, 189240, Note_off_c, 8, 50, 95
7, 189240, Note_off_c, 8, 43, 95
7, 189600, Note_on_c, 8, 55, 95
7, 189600, Note_on_c, 8, 50, 95
7, 189600, Note_on_c, 8, 43, 95
7, 189720, Note_off_c, 8, 55, 95
7, 189720, Note_off_c, 8, 50, 95
7, 189720, Note_off_c, 8, 43, 95
7, 189840, Note_on_c, 8, 55, 95
7, 189840, Note_on_c, 8, 50, 95
7, 189840, Note_on_c, 8, 43, 95
7, 189960, Note_off_c, 8, 55, 95
7, 189960, Note_off_c, 8, 50, 95
7, 189960, Note_off_c, 8, 43, 95
7, 190080, Note_on_c, 8, 55, 95
7, 190080, Note_on_c, 8, 50, 95
7, 190080, Note_on_c, 8, 43, 95
7, 190200, Note_off_c, 8, 55, 95
7, 190200, Note_off_c, 8, 50, 95
7, 190200, Note_off_c, 8, 43, 95
7, 190560, Note_on_c, 8, 55, 95
7, 190560, Note_on_c, 8, 50, 95
7, 190560, Note_on_c, 8, 43, 95
7, 190680, Note_off_c, 8, 55, 95
7, 190680, Note_off_c, 8, 50, 95
7, 190680, Note_off_c, 8, 43, 95
7, 190800, Note_on_c, 8, 55, 95
7, 190800, Note_on_c, 8, 50, 95
7, 190800, Note_on_c, 8, 43, 95
7, 190920, Note_off_c, 8, 55, 95
7, 190920, Note_off_c, 8, 50, 95
7, 190920, Note_off_c, 8, 43, 95
7, 191040, Note_on_c, 8, 55, 95
7, 191040, Note_on_c, 8, 50, 95
7, 191040, Note_on_c, 8, 43, 95
7, 191160, Note_off_c, 8, 55, 95
7, 191160, Note_off_c, 8, 50, 95
7, 191160, Note_off_c, 8, 43, 95
7, 191520, Note_on_c, 8, 55, 95
7, 191520, Note_on_c, 8, 50, 95
7, 191520, Note_on_c, 8, 43, 95
7, 191640, Note_off_c, 8, 55, 95
7, 191640, Note_off_c, 8, 50, 95
7, 191640, Note_off_c, 8, 43, 95
7, 191760, Note_on_c, 8, 55, 95
7, 191760, Note_on_c, 8, 50, 95
7, 191760, Note_on_c, 8, 43, 95
7, 191880, Note_off_c, 8, 55, 95
7, 191880, Note_off_c, 8, 50, 95
7, 191880, Note_off_c, 8, 43, 95
7, 192000, Note_on_c, 8, 60, 95
7, 192000, Note_on_c, 8, 55, 95
7, 192000, Note_on_c, 8, 48, 95
7, 192120, Note_off_c, 8, 60, 95
7, 192120, Note_off_c, 8, 55, 95
7, 192120, Note_off_c, 8, 48, 95
7, 192480, Note_on_c, 8, 60, 95
7, 192480, Note_on_c, 8, 55, 95
7, 192480, Note_on_c, 8, 48, 95
7, 192600, Note_off_c, 8, 60, 95
7, 192600, Note_off_c, 8, 55, 95
7, 192600, Note_off_c, 8, 48, 95
7, 192720, Note_on_c, 8, 60, 95
7, 192720, Note_on_c, 8, 55, 95
7, 192720, Note_on_c, 8, 48, 95
7, 192840, Note_off_c, 8, 60, 95
7, 192840, Note_off_c, 8, 55, 95
7, 192840, Note_off_c, 8, 48, 95
7, 192960, Note_on_c, 8, 60, 95
7, 192960, Note_on_c, 8, 55, 95
7, 192960, Note_on_c, 8, 48, 95
7, 193080, Note_off_c, 8, 60, 95
7, 193080, Note_off_c, 8, 55, 95
7, 193080, Note_off_c, 8, 48, 95
7, 193440, Note_on_c, 8, 60, 95
7, 193440, Note_on_c, 8, 55, 95
7, 193440, Note_on_c, 8, 48, 95
7, 193560, Note_off_c, 8, 60, 95
7, 193560, Note_off_c, 8, 55, 95
7, 193560, Note_off_c, 8, 48, 95
7, 193680, Note_on_c, 8, 60, 95
7, 193680, Note_on_c, 8, 55, 95
7, 193680, Note_on_c, 8, 48, 95
7, 193800, Note_off_c, 8, 60, 95
7, 193800, Note_off_c, 8, 55, 95
7, 193800, Note_off_c, 8, 48, 95
7, 193920, Note_on_c, 8, 60, 95
7, 193920, Note_on_c, 8, 55, 95
7, 193920, Note_on_c, 8, 48, 95
7, 194040, Note_off_c, 8, 60, 95
7, 194040, Note_off_c, 8, 55, 95
7, 194040, Note_off_c, 8, 48, 95
7, 194400, Note_on_c, 8, 60, 95
7, 194400, Note_on_c, 8, 55, 95
7, 194400, Note_on_c, 8, 48, 95
7, 194520, Note_off_c, 8, 60, 95
7, 194520, Note_off_c, 8, 55, 95
7, 194520, Note_off_c, 8, 48, 95
7, 194640, Note_on_c, 8, 60, 95
7, 194640, Note_on_c, 8, 55, 95
7, 194640, Note_on_c, 8, 48, 95
7, 194760, Note_off_c, 8, 60, 95
7, 194760, Note_off_c, 8, 55, 95
7, 194760, Note_off_c, 8, 48, 95
7, 194880, Note_on_c, 8, 60, 95
7, 194880, Note_on_c, 8, 55, 95
7, 194880, Note_on_c, 8, 48, 95
7, 195000, Note_off_c, 8, 60, 95
7, 195000, Note_off_c, 8, 55, 95
7, 195000, Note_off_c, 8, 48, 95
7, 195360, Note_on_c, 8, 60, 95
7, 195360, Note_on_c, 8, 55, 95
7, 195360, Note_on_c, 8, 48, 95
7, 195480, Note_off_c, 8, 60, 95
7, 195480, Note_off_c, 8, 55, 95
7, 195480, Note_off_c, 8, 48, 95
7, 195600, Note_on_c, 8, 60, 95
7, 195600, Note_on_c, 8, 55, 95
7, 195600, Note_on_c, 8, 48, 95
7, 195720, Note_off_c, 8, 60, 95
7, 195720, Note_off_c, 8, 55, 95
7, 195720, Note_off_c, 8, 48, 95
7, 195840, Note_on_c, 8, 59, 95
7, 195840, Note_on_c, 8, 54, 95
7, 195840, Note_on_c, 8, 47, 95
7, 195960, Note_off_c, 8, 59, 95
7, 195960, Note_off_c, 8, 54, 95
7, 195960, Note_off_c, 8, 47, 95
7, 196320, Note_on_c, 8, 59, 95
7, 196320, Note_on_c, 8, 54, 95
7, 196320, Note_on_c, 8, 47, 95
7, 196440, Note_off_c, 8, 59, 95
7, 196440, Note_off_c, 8, 54, 95
7, 196440, Note_off_c, 8, 47, 95
7, 196560, Note_on_c, 8, 59, 95
7, 196560, Note_on_c, 8, 54, 95
7, 196560, Note_on_c, 8, 47, 95
7, 196680, Note_off_c, 8, 59, 95
7, 196680, Note_off_c, 8, 54, 95
7, 196680, Note_off_c, 8, 47, 95
7, 196800, Note_on_c, 8, 59, 95
7, 196800, Note_on_c, 8, 54, 95
7, 196800, Note_on_c, 8, 47, 95
7, 196920, Note_off_c, 8, 59, 95
7, 196920, Note_off_c, 8, 54, 95
7, 196920, Note_off_c, 8, 47, 95
7, 197280, Note_on_c, 8, 59, 95
7, 197280, Note_on_c, 8, 54, 95
7, 197280, Note_on_c, 8, 47, 95
7, 197400, Note_off_c, 8, 59, 95
7, 197400, Note_off_c, 8, 54, 95
7, 197400, Note_off_c, 8, 47, 95
7, 197520, Note_on_c, 8, 59, 95
7, 197520, Note_on_c, 8, 54, 95
7, 197520, Note_on_c, 8, 47, 95
7, 197640, Note_off_c, 8, 59, 95
7, 197640, Note_off_c, 8, 54, 95
7, 197640, Note_off_c, 8, 47, 95
7, 197760, Note_on_c, 8, 59, 95
7, 197760, Note_on_c, 8, 54, 95
7, 197760, Note_on_c, 8, 47, 95
7, 197880, Note_off_c, 8, 59, 95
7, 197880, Note_off_c, 8, 54, 95
7, 197880, Note_off_c, 8, 47, 95
7, 198240, Note_on_c, 8, 59, 95
7, 198240, Note_on_c, 8, 54, 95
7, 198240, Note_on_c, 8, 47, 95
7, 198360, Note_off_c, 8, 59, 95
7, 198360, Note_off_c, 8, 54, 95
7, 198360, Note_off_c, 8, 47, 95
7, 198480, Note_on_c, 8, 59, 95
7, 198480, Note_on_c, 8, 54, 95
7, 198480, Note_on_c, 8, 47, 95
7, 198600, Note_off_c, 8, 59, 95
7, 198600, Note_off_c, 8, 54, 95
7, 198600, Note_off_c, 8, 47, 95
7, 198720, Note_on_c, 8, 59, 95
7, 198720, Note_on_c, 8, 54, 95
7, 198720, Note_on_c, 8, 47, 95
7, 198840, Note_off_c, 8, 59, 95
7, 198840, Note_off_c, 8, 54, 95
7, 198840, Note_off_c, 8, 47, 95
7, 199200, Note_on_c, 8, 59, 95
7, 199200, Note_on_c, 8, 54, 95
7, 199200, Note_on_c, 8, 47, 95
7, 199320, Note_off_c, 8, 59, 95
7, 199320, Note_off_c, 8, 54, 95
7, 199320, Note_off_c, 8, 47, 95
7, 199440, Note_on_c, 8, 59, 95
7, 199440, Note_on_c, 8, 54, 95
7, 199440, Note_on_c, 8, 47, 95
7, 199560, Note_off_c, 8, 59, 95
7, 199560, Note_off_c, 8, 54, 95
7, 199560, Note_off_c, 8, 47, 95
7, 199680, Note_on_c, 8, 52, 95
7, 199680, Note_on_c, 8, 47, 95
7, 199680, Note_on_c, 8, 40, 95
7, 199800, Note_off_c, 8, 52, 95
7, 199800, Note_off_c, 8, 47, 95
7, 199800, Note_off_c, 8, 40, 95
7, 200160, Note_on_c, 8, 52, 95
7, 200160, Note_on_c, 8, 47, 95
7, 200160, Note_on_c, 8, 40, 95
7, 200280, Note_off_c, 8, 52, 95
7, 200280, Note_off_c, 8, 47, 95
7, 200280, Note_off_c, 8, 40, 95
7, 200400, Note_on_c, 8, 52, 95
7, 200400, Note_on_c, 8, 47, 95
7, 200400, Note_on_c, 8, 40, 95
7, 200520, Note_off_c, 8, 52, 95
7, 200520, Note_off_c, 8, 47, 95
7, 200520, Note_off_c, 8, 40, 95
7, 200640, Note_on_c, 8, 52, 95
7, 200640, Note_on_c, 8, 47, 95
7, 200640, Note_on_c, 8, 40, 95
7, 200760, Note_off_c, 8, 52, 95
7, 200760, Note_off_c, 8, 47, 95
7, 200760, Note_off_c, 8, 40, 95
7, 201120, Note_on_c, 8, 52, 95
7, 201120, Note_on_c, 8, 47, 95
7, 201120, Note_on_c, 8, 40, 95
7, 201240, Note_off_c, 8, 52, 95
7, 201240, Note_off_c, 8, 47, 95
7, 201240, Note_off_c, 8, 40, 95
7, 201360, Note_on_c, 8, 52, 95
7, 201360, Note_on_c, 8, 47, 95
7, 201360, Note_on_c, 8, 40, 95
7, 201480, Note_off_c, 8, 52, 95
7, 201480, Note_off_c, 8, 47, 95
7, 201480, Note_off_c, 8, 40, 95
7, 201600, Note_on_c, 8, 52, 95
7, 201600, Note_on_c, 8, 47, 95
7, 201600, Note_on_c, 8, 40, 95
7, 201720, Note_off_c, 8, 52, 95
7, 201720, Note_off_c, 8, 47, 95
7, 201720, Note_off_c, 8, 40, 95
7, 202080, Note_on_c, 8, 52, 95
7, 202080, Note_on_c, 8, 47, 95
7, 202080, Note_on_c, 8, 40, 95
7, 202200, Note_off_c, 8, 52, 95
7, 202200, Note_off_c, 8, 47, 95
7, 202200, Note_off_c, 8, 40, 95
7, 202320, Note_on_c, 8, 52, 95
7, 202320, Note_on_c, 8, 47, 95
7, 202320, Note_on_c, 8, 40, 95
7, 202440, Note_off_c, 8, 52, 95
7, 202440, Note_off_c, 8, 47, 95
7, 202440, Note_off_c, 8, 40, 95
7, 202560, Note_on_c, 8, 52, 95
7, 202560, Note_on_c, 8, 47, 95
7, 202560, Note_on_c, 8, 40, 95
7, 202680, Note_off_c, 8, 52, 95
7, 202680, Note_off_c, 8, 47, 95
7, 202680, Note_off_c, 8, 40, 95
7, 203040, Note_on_c, 8, 52, 95
7, 203040, Note_on_c, 8, 47, 95
7, 203040, Note_on_c, 8, 40, 95
7, 203160, Note_off_c, 8, 52, 95
7, 203160, Note_off_c, 8, 47, 95
7, 203160, Note_off_c, 8, 40, 95
7, 203280, Note_on_c, 8, 52, 95
7, 203280, Note_on_c, 8, 47, 95
7, 203280, Note_on_c, 8, 40, 95
7, 203400, Note_off_c, 8, 52, 95
7, 203400, Note_off_c, 8, 47, 95
7, 203400, Note_off_c, 8, 40, 95
7, 203520, Note_on_c, 8, 55, 95
7, 203520, Note_on_c, 8, 50, 95
7, 203520, Note_on_c, 8, 43, 95
7, 203640, Note_off_c, 8, 55, 95
7, 203640, Note_off_c, 8, 50, 95
7, 203640, Note_off_c, 8, 43, 95
7, 204000, Note_on_c, 8, 55, 95
7, 204000, Note_on_c, 8, 50, 95
7, 204000, Note_on_c, 8, 43, 95
7, 204120, Note_off_c, 8, 55, 95
7, 204120, Note_off_c, 8, 50, 95
7, 204120, Note_off_c, 8, 43, 95
7, 204240, Note_on_c, 8, 55, 95
7, 204240, Note_on_c, 8, 50, 95
7, 204240, Note_on_c, 8, 43, 95
7, 204360, Note_off_c, 8, 55, 95
7, 204360, Note_off_c, 8, 50, 95
7, 204360, Note_off_c, 8, 43, 95
7, 204480, Note_on_c, 8, 55, 95
7, 204480, Note_on_c, 8, 50, 95
7, 204480, Note_on_c, 8, 43, 95
7, 204600, Note_off_c, 8, 55, 95
7, 204600, Note_off_c, 8, 50, 95
7, 204600, Note_off_c, 8, 43, 95
7, 204960, Note_on_c, 8, 55, 95
7, 204960, Note_on_c, 8, 50, 95
7, 204960, Note_on_c, 8, 43, 95
7, 205080, Note_off_c, 8, 55, 95
7, 205080, Note_off_c, 8, 50, 95
7, 205080, Note_off_c, 8, 43, 95
7, 205200, Note_on_c, 8, 55, 95
7, 205200, Note_on_c, 8, 50, 95
7, 205200, Note_on_c, 8, 43, 95
7, 205320, Note_off_c, 8, 55, 95
7, 205320, Note_off_c, 8, 50, 95
7, 205320, Note_off_c, 8, 43, 95
7, 205440, Note_on_c, 8, 55, 95
7, 205440, Note_on_c, 8, 50, 95
7, 205440, Note_on_c, 8, 43, 95
7, 205560, Note_off_c, 8, 55, 95
7, 205560, Note_off_c, 8, 50, 95
7, 205560, Note_off_c, 8, 43, 95
7, 205920, Note_on_c, 8, 55, 95
7, 205920, Note_on_c, 8, 50, 95
7, 205920, Note_on_c, 8, 43, 95
7, 206040, Note_off_c, 8, 55, 95
7, 206040, Note_off_c, 8, 50, 95
7, 206040, Note_off_c, 8, 43, 95
7, 206160, Note_on_c, 8, 55, 95
7, 206160, Note_on_c, 8, 50, 95
7, 206160, Note_on_c, 8, 43, 95
7, 206280, Note_off_c, 8, 55, 95
7, 206280, Note_off_c, 8, 50, 95
7, 206280, Note_off_c, 8, 43, 95
7, 206400, Note_on_c, 8, 55, 95
7, 206400, Note_on_c, 8, 50, 95
7, 206400, Note_on_c, 8, 43, 95
7, 206520, Note_off_c, 8, 55, 95
7, 206520, Note_off_c, 8, 50, 95
7, 206520, Note_off_c, 8, 43, 95
7, 206880, Note_on_c, 8, 55, 95
7, 206880, Note_on_c, 8, 50, 95
7, 206880, Note_on_c, 8, 43, 95
7, 207000, Note_off_c, 8, 55, 95
7, 207000, Note_off_c, 8, 50, 95
7, 207000, Note_off_c, 8, 43, 95
7, 207120, Note_on_c, 8, 55, 95
7, 207120, Note_on_c, 8, 50, 95
7, 207120, Note_on_c, 8, 43, 95
7, 207240, Note_off_c, 8, 55, 95
7, 207240, Note_off_c, 8, 50, 95
7, 207240, Note_off_c, 8, 43, 95
7, 207360, Note_on_c, 8, 60, 95
7, 207360, Note_on_c, 8, 55, 95
7, 207360, Note_on_c, 8, 48, 95
7, 207480, Note_off_c, 8, 60, 95
7, 207480, Note_off_c, 8, 55, 95
7, 207480, Note_off_c, 8, 48, 95
7, 207840, Note_on_c, 8, 60, 95
7, 207840, Note_on_c, 8, 55, 95
7, 207840, Note_on_c, 8, 48, 95
7, 207960, Note_off_c, 8, 60, 95
7, 207960, Note_off_c, 8, 55, 95
7, 207960, Note_off_c, 8, 48, 95
7, 208080, Note_on_c, 8, 60, 95
7, 208080, Note_on_c, 8, 55, 95
7, 208080, Note_on_c, 8, 48, 95
7, 208200, Note_off_c, 8, 60, 95
7, 208200, Note_off_c, 8, 55, 95
7, 208200, Note_off_c, 8, 48, 95
7, 208320, Note_on_c, 8, 60, 95
7, 208320, Note_on_c, 8, 55, 95
7, 208320, Note_on_c, 8, 48, 95
7, 208440, Note_off_c, 8, 60, 95
7, 208440, Note_off_c, 8, 55, 95
7, 208440, Note_off_c, 8, 48, 95
7, 208800, Note_on_c, 8, 60, 95
7, 208800, Note_on_c, 8, 55, 95
7, 208800, Note_on_c, 8, 48, 95
7, 208920, Note_off_c, 8, 60, 95
7, 208920, Note_off_c, 8, 55, 95
7, 208920, Note_off_c, 8, 48, 95
7, 209040, Note_on_c, 8, 60, 95
7, 209040, Note_on_c, 8, 55, 95
7, 209040, Note_on_c, 8, 48, 95
7, 209160, Note_off_c, 8, 60, 95
7, 209160, Note_off_c, 8, 55, 95
7, 209160, Note_off_c, 8, 48, 95
7, 209280, Note_on_c, 8, 60, 95
7, 209280, Note_on_c, 8, 55, 95
7, 209280, Note_on_c, 8, 48, 95
7, 209400, Note_off_c, 8, 60, 95
7, 209400, Note_off_c, 8, 55, 95
7, 209400, Note_off_c, 8, 48, 95
7, 209760, Note_on_c, 8, 60, 95
7, 209760, Note_on_c, 8, 55, 95
7, 209760, Note_on_c, 8, 48, 95
7, 209880, Note_off_c, 8, 60, 95
7, 209880, Note_off_c, 8, 55, 95
7, 209880, Note_off_c, 8, 48, 95
7, 210000, Note_on_c, 8, 60, 95
7, 210000, Note_on_c, 8, 55, 95
7, 210000, Note_on_c, 8, 48, 95
7, 210120, Note_off_c, 8, 60, 95
7, 210120, Note_off_c, 8, 55, 95
7, 210120, Note_off_c, 8, 48, 95
7, 210240, Note_on_c, 8, 60, 95
7, 210240, Note_on_c, 8, 55, 95
7, 210240, Note_on_c, 8, 48, 95
7, 210360, Note_off_c, 8, 60, 95
7, 210360, Note_off_c, 8, 55, 95
7, 210360, Note_off_c, 8, 48, 95
7, 210720, Note_on_c, 8, 60, 95
7, 210720, Note_on_c, 8, 55, 95
7, 210720, Note_on_c, 8, 48, 95
7, 210840, Note_off_c, 8, 60, 95
7, 210840, Note_off_c, 8, 55, 95
7, 210840, Note_off_c, 8, 48, 95
7, 210960, Note_on_c, 8, 60, 95
7, 210960, Note_on_c, 8, 55, 95
7, 210960, Note_on_c, 8, 48, 95
7, 211080, Note_off_c, 8, 60, 95
7, 211080, Note_off_c, 8, 55, 95
7, 211080, Note_off_c, 8, 48, 95
7, 211200, Note_on_c, 8, 59, 95
7, 211200, Note_on_c, 8, 54, 95
7, 211200, Note_on_c, 8, 47, 95
7, 211320, Note_off_c, 8, 59, 95
7, 211320, Note_off_c, 8, 54, 95
7, 211320, Note_off_c, 8, 47, 95
7, 211680, Note_on_c, 8, 59, 95
7, 211680, Note_on_c, 8, 54, 95
7, 211680, Note_on_c, 8, 47, 95
7, 211800, Note_off_c, 8, 59, 95
7, 211800, Note_off_c, 8, 54, 95
7, 211800, Note_off_c, 8, 47, 95
7, 211920, Note_on_c, 8, 59, 95
7, 211920, Note_on_c, 8, 54, 95
7, 211920, Note_on_c, 8, 47, 95
7, 212040, Note_off_c, 8, 59, 95
7, 212040, Note_off_c, 8, 54, 95
7, 212040, Note_off_c, 8, 47, 95
7, 212160, Note_on_c, 8, 59, 95
7, 212160, Note_on_c, 8, 54, 95
7, 212160, Note_on_c, 8, 47, 95
7, 212280, Note_off_c, 8, 59, 95
7, 212280, Note_off_c, 8, 54, 95
7, 212280, Note_off_c, 8, 47, 95
7, 212640, Note_on_c, 8, 59, 95
7, 212640, Note_on_c, 8, 54, 95
7, 212640, Note_on_c, 8, 47, 95
7, 212760, Note_off_c, 8, 59, 95
7, 212760, Note_off_c, 8, 54, 95
7, 212760, Note_off_c, 8, 47, 95
7, 212880, Note_on_c, 8, 59, 95
7, 212880, Note_on_c, 8, 54, 95
7, 212880, Note_on_c, 8, 47, 95
7, 213000, Note_off_c, 8, 59, 95
7, 213000, Note_off_c, 8, 54, 95
7, 213000, Note_off_c, 8, 47, 95
7, 213120, Note_on_c, 8, 59, 95
7, 213120, Note_on_c, 8, 54, 95
7, 213120, Note_on_c, 8, 47, 95
7, 213240, Note_off_c, 8, 59, 95
7, 213240, Note_off_c, 8, 54, 95
7, 213240, Note_off_c, 8, 47, 95
7, 213600, Note_on_c, 8, 59, 95
7, 213600, Note_on_c, 8, 54, 95
7, 213600, Note_on_c, 8, 47, 95
7, 213720, Note_off_c, 8, 59, 95
7, 213720, Note_off_c, 8, 54, 95
7, 213720, Note_off_c, 8, 47, 95
7, 213840, Note_on_c, 8, 59, 95
7, 213840, Note_on_c, 8, 54, 95
7, 213840, Note_on_c, 8, 47, 95
7, 213960, Note_off_c, 8, 59, 95
7, 213960, Note_off_c, 8, 54, 95
7, 213960, Note_off_c, 8, 47, 95
7, 214080, Note_on_c, 8, 59, 95
7, 214080, Note_on_c, 8, 54, 95
7, 214080, Note_on_c, 8, 47, 95
7, 214200, Note_off_c, 8, 59, 95
7, 214200, Note_off_c, 8, 54, 95
7, 214200, Note_off_c, 8, 47, 95
7, 214560, Note_on_c, 8, 59, 95
7, 214560, Note_on_c, 8, 54, 95
7, 214560, Note_on_c, 8, 47, 95
7, 214680, Note_off_c, 8, 59, 95
7, 214680, Note_off_c, 8, 54, 95
7, 214680, Note_off_c, 8, 47, 95
7, 214800, Note_on_c, 8, 59, 95
7, 214800, Note_on_c, 8, 54, 95
7, 214800, Note_on_c, 8, 47, 95
7, 214920, Note_off_c, 8, 59, 95
7, 214920, Note_off_c, 8, 54, 95
7, 214920, Note_off_c, 8, 47, 95
7, 215040, Note_on_c, 8, 52, 95
7, 215040, Note_on_c, 8, 47, 95
7, 215040, Note_on_c, 8, 40, 95
7, 215160, Note_off_c, 8, 52, 95
7, 215160, Note_off_c, 8, 47, 95
7, 215160, Note_off_c, 8, 40, 95
7, 215520, Note_on_c, 8, 52, 95
7, 215520, Note_on_c, 8, 47, 95
7, 215520, Note_on_c, 8, 40, 95
7, 215640, Note_off_c, 8, 52, 95
7, 215640, Note_off_c, 8, 47, 95
7, 215640, Note_off_c, 8, 40, 95
7, 215760, Note_on_c, 8, 52, 95
7, 215760, Note_on_c, 8, 47, 95
7, 215760, Note_on_c, 8, 40, 95
7, 215880, Note_off_c, 8, 52, 95
7, 215880, Note_off_c, 8, 47, 95
7, 215880, Note_off_c, 8, 40, 95
7, 216000, Note_on_c, 8, 52, 95
7, 216000, Note_on_c, 8, 47, 95
7, 216000, Note_on_c, 8, 40, 95
7, 216120, Note_off_c, 8, 52, 95
7, 216120, Note_off_c, 8, 47, 95
7, 216120, Note_off_c, 8, 40, 95
7, 216480, Note_on_c, 8, 52, 95
7, 216480, Note_on_c, 8, 47, 95
7, 216480, Note_on_c, 8, 40, 95
7, 216600, Note_off_c, 8, 52, 95
7, 216600, Note_off_c, 8, 47, 95
7, 216600, Note_off_c, 8, 40, 95
7, 216720, Note_on_c, 8, 52, 95
7, 216720, Note_on_c, 8, 47, 95
7, 216720, Note_on_c, 8, 40, 95
7, 216840, Note_off_c, 8, 52, 95
7, 216840, Note_off_c, 8, 47, 95
7, 216840, Note_off_c, 8, 40, 95
7, 216960, Note_on_c, 8, 52, 95
7, 216960, Note_on_c, 8, 47, 95
7, 216960, Note_on_c, 8, 40, 95
7, 217080, Note_off_c, 8, 52, 95
7, 217080, Note_off_c, 8, 47, 95
7, 217080, Note_off_c, 8, 40, 95
7, 217440, Note_on_c, 8, 52, 95
7, 217440, Note_on_c, 8, 47, 95
7, 217440, Note_on_c, 8, 40, 95
7, 217560, Note_off_c, 8, 52, 95
7, 217560, Note_off_c, 8, 47, 95
7, 217560, Note_off_c, 8, 40, 95
7, 217680, Note_on_c, 8, 52, 95
7, 217680, Note_on_c, 8, 47, 95
7, 217680, Note_on_c, 8, 40, 95
7, 217800, Note_off_c, 8, 52, 95
7, 217800, Note_off_c, 8, 47, 95
7, 217800, Note_off_c, 8, 40, 95
7, 217920, Note_on_c, 8, 52, 95
7, 217920, Note_on_c, 8, 47, 95
7, 217920, Note_on_c, 8, 40, 95
7, 218040, Note_off_c, 8, 52, 95
7, 218040, Note_off_c, 8, 47, 95
7, 218040, Note_off_c, 8, 40, 95
7, 218400, Note_on_c, 8, 52, 95
7, 218400, Note_on_c, 8, 47, 95
7, 218400, Note_on_c, 8, 40, 95
7, 218520, Note_off_c, 8, 52, 95
7, 218520, Note_off_c, 8, 47, 95
7, 218520, Note_off_c, 8, 40, 95
7, 218640, Note_on_c, 8, 52, 95
7, 218640, Note_on_c, 8, 47, 95
7, 218640, Note_on_c, 8, 40, 95
7, 218760, Note_off_c, 8, 52, 95
7, 218760, Note_off_c, 8, 47, 95
7, 218760, Note_off_c, 8, 40, 95
7, 218880, Note_on_c, 8, 55, 95
7, 218880, Note_on_c, 8, 50, 95
7, 218880, Note_on_c, 8, 43, 95
7, 219000, Note_off_c, 8, 55, 95
7, 219000, Note_off_c, 8, 50, 95
7, 219000, Note_off_c, 8, 43, 95
7, 219360, Note_on_c, 8, 55, 95
7, 219360, Note_on_c, 8, 50, 95
7, 219360, Note_on_c, 8, 43, 95
7, 219480, Note_off_c, 8, 55, 95
7, 219480, Note_off_c, 8, 50, 95
7, 219480, Note_off_c, 8, 43, 95
7, 219600, Note_on_c, 8, 55, 95
7, 219600, Note_on_c, 8, 50, 95
7, 219600, Note_on_c, 8, 43, 95
7, 219720, Note_off_c, 8, 55, 95
7, 219720, Note_off_c, 8, 50, 95
7, 219720, Note_off_c, 8, 43, 95
7, 219840, Note_on_c, 8, 55, 95
7, 219840, Note_on_c, 8, 50, 95
7, 219840, Note_on_c, 8, 43, 95
7, 219960, Note_off_c, 8, 55, 95
7, 219960, Note_off_c, 8, 50, 95
7, 219960, Note_off_c, 8, 43, 95
7, 220320, Note_on_c, 8, 55, 95
7, 220320, Note_on_c, 8, 50, 95
7, 220320, Note_on_c, 8, 43, 95
7, 220440, Note_off_c, 8, 55, 95
7, 220440, Note_off_c, 8, 50, 95
7, 220440, Note_off_c, 8, 43, 95
7, 220560, Note_on_c, 8, 55, 95
7, 220560, Note_on_c, 8, 50, 95
7, 220560, Note_on_c, 8, 43, 95
7, 220680, Note_off_c, 8, 55, 95
7, 220680, Note_off_c, 8, 50, 95
7, 220680, Note_off_c, 8, 43, 95
7, 220800, Note_on_c, 8, 55, 95
7, 220800, Note_on_c, 8, 50, 95
7, 220800, Note_on_c, 8, 43, 95
7, 220920, Note_off_c, 8, 55, 95
7, 220920, Note_off_c, 8, 50, 95
7, 220920, Note_off_c, 8, 43, 95
7, 221280, Note_on_c, 8, 55, 95
7, 221280, Note_on_c, 8, 50, 95
7, 221280, Note_on_c, 8, 43, 95
7, 221400, Note_off_c, 8, 55, 95
7, 221400, Note_off_c, 8, 50, 95
7, 221400, Note_off_c, 8, 43, 95
7, 221520, Note_on_c, 8, 55, 95
7, 221520, Note_on_c, 8, 50, 95
7, 221520, Note_on_c, 8, 43, 95
7, 221640, Note_off_c, 8, 55, 95
7, 221640, Note_off_c, 8, 50, 95
7, 221640, Note_off_c, 8, 43, 95
7, 221760, Note_on_c, 8, 55, 95
7, 221760, Note_on_c, 8, 50, 95
7, 221760, Note_on_c, 8, 43, 95
7, 221880, Note_off_c, 8, 55, 95
7, 221880, Note_off_c, 8, 50, 95
7, 221880, Note_off_c, 8, 43, 95
7, 222240, Note_on_c, 8, 55, 95
7, 222240, Note_on_c, 8, 50, 95
7, 222240, Note_on_c, 8, 43, 95
7, 222360, Note_off_c, 8, 55, 95
7, 222360, Note_off_c, 8, 50, 95
7, 222360, Note_off_c, 8, 43, 95
7, 222480, Note_on_c, 8, 55, 95
7, 222480, Note_on_c, 8, 50, 95
7, 222480, Note_on_c, 8, 43, 95
7, 222600, Note_off_c, 8, 55, 95
7, 222600, Note_off_c, 8, 50, 95
7, 222600, Note_off_c, 8, 43, 95
7, 222720, Note_on_c, 8, 60, 95
7, 222720, Note_on_c, 8, 55, 95
7, 222720, Note_on_c, 8, 48, 95
7, 222840, Note_off_c, 8, 60, 95
7, 222840, Note_off_c, 8, 55, 95
7, 222840, Note_off_c, 8, 48, 95
7, 223200, Note_on_c, 8, 60, 95
7, 223200, Note_on_c, 8, 55, 95
7, 223200, Note_on_c, 8, 48, 95
7, 223320, Note_off_c, 8, 60, 95
7, 223320, Note_off_c, 8, 55, 95
7, 223320, Note_off_c, 8, 48, 95
7, 223440, Note_on_c, 8, 60, 95
7, 223440, Note_on_c, 8, 55, 95
7, 223440, Note_on_c, 8, 48, 95
7, 223560, Note_off_c, 8, 60, 95
7, 223560, Note_off_c, 8, 55, 95
7, 223560, Note_off_c, 8, 48, 95
7, 223680, Note_on_c, 8, 60, 95
7, 223680, Note_on_c, 8, 55, 95
7, 223680, Note_on_c, 8, 48, 95
7, 223800, Note_off_c, 8, 60, 95
7, 223800, Note_off_c, 8, 55, 95
7, 223800, Note_off_c, 8, 48, 95
7, 224160, Note_on_c, 8, 60, 95
7, 224160, Note_on_c, 8, 55, 95
7, 224160, Note_on_c, 8, 48, 95
7, 224280, Note_off_c, 8, 60, 95
7, 224280, Note_off_c, 8, 55, 95
7, 224280, Note_off_c, 8, 48, 95
7, 224400, Note_on_c, 8, 60, 95
7, 224400, Note_on_c, 8, 55, 95
7, 224400, Note_on_c, 8, 48, 95
7, 224520, Note_off_c, 8, 60, 95
7, 224520, Note_off_c, 8, 55, 95
7, 224520, Note_off_c, 8, 48, 95
7, 224640, Note_on_c, 8, 60, 95
7, 224640, Note_on_c, 8, 55, 95
7, 224640, Note_on_c, 8, 48, 95
7, 224760, Note_off_c, 8, 60, 95
7, 224760, Note_off_c, 8, 55, 95
7, 224760, Note_off_c, 8, 48, 95
7, 225120, Note_on_c, 8, 60, 95
7, 225120, Note_on_c, 8, 55, 95
7, 225120, Note_on_c, 8, 48, 95
7, 225240, Note_off_c, 8, 60, 95
7, 225240, Note_off_c, 8, 55, 95
7, 225240, Note_off_c, 8, 48, 95
7, 225360, Note_on_c, 8, 60, 95
7, 225360, Note_on_c, 8, 55, 95
7, 225360, Note_on_c, 8, 48, 95
7, 225480, Note_off_c, 8, 60, 95
7, 225480, Note_off_c, 8, 55, 95
7, 225480, Note_off_c, 8, 48, 95
7, 225600, Note_on_c, 8, 60, 95
7, 225600, Note_on_c, 8, 55, 95
7, 225600, Note_on_c, 8, 48, 95
7, 225720, Note_off_c, 8, 60, 95
7, 225720, Note_off_c, 8, 55, 95
7, 225720, Note_off_c, 8, 48, 95
7, 226080, Note_on_c, 8, 60, 95
7, 226080, Note_on_c, 8, 55, 95
7, 226080, Note_on_c, 8, 48, 95
7, 226200, Note_off_c, 8, 60, 95
7, 226200, Note_off_c, 8, 55, 95
7, 226200, Note_off_c, 8, 48, 95
7, 226320, Note_on_c, 8, 60, 95
7, 226320, Note_on_c, 8, 55, 95
7, 226320, Note_on_c, 8, 48, 95
7, 226440, Note_off_c, 8, 60, 95
7, 226440, Note_off_c, 8, 55, 95
7, 226440, Note_off_c, 8, 48, 95
7, 226560, Note_on_c, 8, 59, 95
7, 226560, Note_on_c, 8, 54, 95
7, 226560, Note_on_c, 8, 47, 95
7, 226680, Note_off_c, 8, 59, 95
7, 226680, Note_off_c, 8, 54, 95
7, 226680, Note_off_c, 8, 47, 95
7, 227040, Note_on_c, 8, 59, 95
7, 227040, Note_on_c, 8, 54, 95
7, 227040, Note_on_c, 8, 47, 95
7, 227160, Note_off_c, 8, 59, 95
7, 227160, Note_off_c, 8, 54, 95
7, 227160, Note_off_c, 8, 47, 95
7, 227280, Note_on_c, 8, 59, 95
7, 227280, Note_on_c, 8, 54, 95
7, 227280, Note_on_c, 8, 47, 95
7, 227400, Note_off_c, 8, 59, 95
7, 227400, Note_off_c, 8, 54, 95
7, 227400, Note_off_c, 8, 47, 95
7, 227520, Note_on_c, 8, 59, 95
7, 227520, Note_on_c, 8, 54, 95
7, 227520, Note_on_c, 8, 47, 95
7, 227640, Note_off_c, 8, 59, 95
7, 227640, Note_off_c, 8, 54, 95
7, 227640, Note_off_c, 8, 47, 95
7, 228000, Note_on_c, 8, 59, 95
7, 228000, Note_on_c, 8, 54, 95
7, 228000, Note_on_c, 8, 47, 95
7, 228120, Note_off_c, 8, 59, 95
7, 228120, Note_off_c, 8, 54, 95
7, 228120, Note_off_c, 8, 47, 95
7, 228240, Note_on_c, 8, 59, 95
7, 228240, Note_on_c, 8, 54, 95
7, 228240, Note_on_c, 8, 47, 95
7, 228360, Note_off_c, 8, 59, 95
7, 228360, Note_off_c, 8, 54, 95
7, 228360, Note_off_c, 8, 47, 95
7, 228480, Note_on_c, 8, 59, 95
7, 228480, Note_on_c, 8, 54, 95
7, 228480, Note_on_c, 8, 47, 95
7, 228600, Note_off_c, 8, 59, 95
7, 228600, Note_off_c, 8, 54, 95
7, 228600, Note_off_c, 8, 47, 95
7, 228960, Note_on_c, 8, 59, 95
7, 228960, Note_on_c, 8, 54, 95
7, 228960, Note_on_c, 8, 47, 95
7, 229080, Note_off_c, 8, 59, 95
7, 229080, Note_off_c, 8, 54, 95
7, 229080, Note_off_c, 8, 47, 95
7, 229200, Note_on_c, 8, 59, 95
7, 229200, Note_on_c, 8, 54, 95
7, 229200, Note_on_c, 8, 47, 95
7, 229320, Note_off_c, 8, 59, 95
7, 229320, Note_off_c, 8, 54, 95
7, 229320, Note_off_c, 8, 47, 95
7, 229440, Note_on_c, 8, 59, 95
7, 229440, Note_on_c, 8, 54, 95
7, 229440, Note_on_c, 8, 47, 95
7, 229560, Note_off_c, 8, 59, 95
7, 229560, Note_off_c, 8, 54, 95
7, 229560, Note_off_c, 8, 47, 95
7, 229920, Note_on_c, 8, 59, 95
7, 229920, Note_on_c, 8, 54, 95
7, 229920, Note_on_c, 8, 47, 95
7, 230040, Note_off_c, 8, 59, 95
7, 230040, Note_off_c, 8, 54, 95
7, 230040, Note_off_c, 8, 47, 95
7, 230160, Note_on_c, 8, 59, 95
7, 230160, Note_on_c, 8, 54, 95
7, 230160, Note_on_c, 8, 47, 95
7, 230280, Note_off_c, 8, 59, 95
7, 230280, Note_off_c, 8, 54, 95
7, 230280, Note_off_c, 8, 47, 95
7, 230400, Note_on_c, 8, 52, 95
7, 230400, Note_on_c, 8, 47, 95
7, 230400, Note_on_c, 8, 40, 95
7, 230520, Note_off_c, 8, 52, 95
7, 230520, Note_off_c, 8, 47, 95
7, 230520, Note_off_c, 8, 40, 95
7, 230880, Note_on_c, 8, 52, 95
7, 230880, Note_on_c, 8, 47, 95
7, 230880, Note_on_c, 8, 40, 95
7, 231000, Note_off_c, 8, 52, 95
7, 231000, Note_off_c, 8, 47, 95
7, 231000, Note_off_c, 8, 40, 95
7, 231120, Note_on_c, 8, 52, 95
7, 231120, Note_on_c, 8, 47, 95
7, 231120, Note_on_c, 8, 40, 95
7, 231240, Note_off_c, 8, 52, 95
7, 231240, Note_off_c, 8, 47, 95
7, 231240, Note_off_c, 8, 40, 95
7, 231360, Note_on_c, 8, 52, 95
7, 231360, Note_on_c, 8, 47, 95
7, 231360, Note_on_c, 8, 40, 95
7, 231480, Note_off_c, 8, 52, 95
7, 231480, Note_off_c, 8, 47, 95
7, 231480, Note_off_c, 8, 40, 95
7, 231840, Note_on_c, 8, 52, 95
7, 231840, Note_on_c, 8, 47, 95
7, 231840, Note_on_c, 8, 40, 95
7, 231960, Note_off_c, 8, 52, 95
7, 231960, Note_off_c, 8, 47, 95
7, 231960, Note_off_c, 8, 40, 95
7, 232080, Note_on_c, 8, 52, 95
7, 232080, Note_on_c, 8, 47, 95
7, 232080, Note_on_c, 8, 40, 95
7, 232200, Note_off_c, 8, 52, 95
7, 232200, Note_off_c, 8, 47, 95
7, 232200, Note_off_c, 8, 40, 95
7, 232320, Note_on_c, 8, 52, 95
7, 232320, Note_on_c, 8, 47, 95
7, 232320, Note_on_c, 8, 40, 95
7, 232440, Note_off_c, 8, 52, 95
7, 232440, Note_off_c, 8, 47, 95
7, 232440, Note_off_c, 8, 40, 95
7, 232800, Note_on_c, 8, 52, 95
7, 232800, Note_on_c, 8, 47, 95
7, 232800, Note_on_c, 8, 40, 95
7, 232920, Note_off_c, 8, 52, 95
7, 232920, Note_off_c, 8, 47, 95
7, 232920, Note_off_c, 8, 40, 95
7, 233040, Note_on_c, 8, 52, 95
7, 233040, Note_on_c, 8, 47, 95
7, 233040, Note_on_c, 8, 40, 95
7, 233160, Note_off_c, 8, 52, 95
7, 233160, Note_off_c, 8, 47, 95
7, 233160, Note_off_c, 8, 40, 95
7, 233280, Note_on_c, 8, 52, 95
7, 233280, Note_on_c, 8, 47, 95
7, 233280, Note_on_c, 8, 40, 95
7, 233400, Note_off_c, 8, 52, 95
7, 233400, Note_off_c, 8, 47, 95
7, 233400, Note_off_c, 8, 40, 95
7, 233760, Note_on_c, 8, 52, 95
7, 233760, Note_on_c, 8, 47, 95
7, 233760, Note_on_c, 8, 40, 95
7, 233880, Note_off_c, 8, 52, 95
7, 233880, Note_off_c, 8, 47, 95
7, 233880, Note_off_c, 8, 40, 95
7, 234000, Note_on_c, 8, 52, 95
7, 234000, Note_on_c, 8, 47, 95
7, 234000, Note_on_c, 8, 40, 95
7, 234120, Note_off_c, 8, 52, 95
7, 234120, Note_off_c, 8, 47, 95
7, 234120, Note_off_c, 8, 40, 95
7, 234240, Note_on_c, 8, 55, 95
7, 234240, Note_on_c, 8, 50, 95
7, 234240, Note_on_c, 8, 43, 95
7, 234360, Note_off_c, 8, 55, 95
7, 234360, Note_off_c, 8, 50, 95
7, 234360, Note_off_c, 8, 43, 95
7, 234720, Note_on_c, 8, 55, 95
7, 234720, Note_on_c, 8, 50, 95
7, 234720, Note_on_c, 8, 43, 95
7, 234840, Note_off_c, 8, 55, 95
7, 234840, Note_off_c, 8, 50, 95
7, 234840, Note_off_c, 8, 43, 95
7, 234960, Note_on_c, 8, 55, 95
7, 234960, Note_on_c, 8, 50, 95
7, 234960, Note_on_c, 8, 43, 95
7, 235080, Note_off_c, 8, 55, 95
7, 235080, Note_off_c, 8, 50, 95
7, 235080, Note_off_c, 8, 43, 95
7, 235200, Note_on_c, 8, 55, 95
7, 235200, Note_on_c, 8, 50, 95
7, 235200, Note_on_c, 8, 43, 95
7, 235320, Note_off_c, 8, 55, 95
7, 235320, Note_off_c, 8, 50, 95
7, 235320, Note_off_c, 8, 43, 95
7, 235680, Note_on_c, 8, 55, 95
7, 235680, Note_on_c, 8, 50, 95
7, 235680, Note_on_c, 8, 43, 95
7, 235800, Note_off_c, 8, 55, 95
7, 235800, Note_off_c, 8, 50, 95
7, 235800, Note_off_c, 8, 43, 95
7, 235920, Note_on_c, 8, 55, 95
7, 235920, Note_on_c, 8, 50, 95
7, 235920, Note_on_c, 8, 43, 95
7, 236040, Note_off_c, 8, 55, 95
7, 236040, Note_off_c, 8, 50, 95
7, 236040, Note_off_c, 8, 43, 95
7, 236160, Note_on_c, 8, 55, 95
7, 236160, Note_on_c, 8, 50, 95
7, 236160, Note_on_c, 8, 43, 95
7, 236280, Note_off_c, 8, 55, 95
7, 236280, Note_off_c, 8, 50, 95
7, 236280, Note_off_c, 8, 43, 95
7, 236640, Note_on_c, 8, 55, 95
7, 236640, Note_on_c, 8, 50, 95
7, 236640, Note_on_c, 8, 43, 95
7, 236760, Note_off_c, 8, 55, 95
7, 236760, Note_off_c, 8, 50, 95
7, 236760, Note_off_c, 8, 43, 95
7, 236880, Note_on_c, 8, 55, 95
7, 236880, Note_on_c, 8, 50, 95
7, 236880, Note_on_c, 8, 43, 95
7, 237000, Note_off_c, 8, 55, 95
7, 237000, Note_off_c, 8, 50, 95
7, 237000, Note_off_c, 8, 43, 95
7, 237120, Note_on_c, 8, 55, 95
7, 237120, Note_on_c, 8, 50, 95
7, 237120, Note_on_c, 8, 43, 95
7, 237240, Note_off_c, 8, 55, 95
7, 237240, Note_off_c, 8, 50, 95
7, 237240, Note_off_c, 8, 43, 95
7, 237600, Note_on_c, 8, 55, 95
7, 237600, Note_on_c, 8, 50, 95
7, 237600, Note_on_c, 8, 43, 95
7, 237720, Note_off_c, 8, 55, 95
7, 237720, Note_off_c, 8, 50, 95
7, 237720, Note_off_c, 8, 43, 95
7, 237840, Note_on_c, 8, 55, 95
7, 237840, Note_on_c, 8, 50, 95
7, 237840, Note_on_c, 8, 43, 95
7, 237960, Note_off_c, 8, 55, 95
7, 237960, Note_off_c, 8, 50, 95
7, 237960, Note_off_c, 8, 43, 95
7, 238080, Note_on_c, 8, 60, 95
7, 238080, Note_on_c, 8, 55, 95
7, 238080, Note_on_c, 8, 48, 95
7, 238200, Note_off_c, 8, 60, 95
7, 238200, Note_off_c, 8, 55, 95
7, 238200, Note_off_c, 8, 48, 95
7, 238560, Note_on_c, 8, 60, 95
7, 238560, Note_on_c, 8, 55, 95
7, 238560, Note_on_c, 8, 48, 95
7, 238680, Note_off_c, 8, 60, 95
7, 238680, Note_off_c, 8, 55, 95
7, 238680, Note_off_c, 8, 48, 95
7, 238800, Note_on_c, 8, 60, 95
7, 238800, Note_on_c, 8, 55, 95
7, 238800, Note_on_c, 8, 48, 95
7, 238920, Note_off_c, 8, 60, 95
7, 238920, Note_off_c, 8, 55, 95
7, 238920, Note_off_c, 8, 48, 95
7, 239040, Note_on_c, 8, 60, 95
7, 239040, Note_on_c, 8, 55, 95
7, 239040, Note_on_c, 8, 48, 95
7, 239160, Note_off_c, 8, 60, 95
7, 239160, Note_off_c, 8, 55, 95
7, 239160, Note_off_c, 8, 48, 95
7, 239520, Note_on_c, 8, 60, 95
7, 239520, Note_on_c, 8, 55, 95
7, 239520, Note_on_c, 8, 48, 95
7, 239640, Note_off_c, 8, 60, 95
7, 239640, Note_off_c, 8, 55, 95
7, 239640, Note_off_c, 8, 48, 95
7, 239760, Note_on_c, 8, 60, 95
7, 239760, Note_on_c, 8, 55, 95
7, 239760, Note_on_c, 8, 48, 95
7, 239880, Note_off_c, 8, 60, 95
7, 239880, Note_off_c, 8, 55, 95
7, 239880, Note_off_c, 8, 48, 95
7, 240000, Note_on_c, 8, 60, 95
7, 240000, Note_on_c, 8, 55, 95
7, 240000, Note_on_c, 8, 48, 95
7, 240120, Note_off_c, 8, 60, 95
7, 240120, Note_off_c, 8, 55, 95
7, 240120, Note_off_c, 8, 48, 95
7, 240480, Note_on_c, 8, 60, 95
7, 240480, Note_on_c, 8, 55, 95
7, 240480, Note_on_c, 8, 48, 95
7, 240600, Note_off_c, 8, 60, 95
7, 240600, Note_off_c, 8, 55, 95
7, 240600, Note_off_c, 8, 48, 95
7, 240720, Note_on_c, 8, 60, 95
7, 240720, Note_on_c, 8, 55, 95
7, 240720, Note_on_c, 8, 48, 95
7, 240840, Note_off_c, 8, 60, 95
7, 240840, Note_off_c, 8, 55, 95
7, 240840, Note_off_c, 8, 48, 95
7, 240960, Note_on_c, 8, 60, 95
7, 240960, Note_on_c, 8, 55, 95
7, 240960, Note_on_c, 8, 48, 95
7, 241080, Note_off_c, 8, 60, 95
7, 241080, Note_off_c, 8, 55, 95
7, 241080, Note_off_c, 8, 48, 95
7, 241440, Note_on_c, 8, 60, 95
7, 241440, Note_on_c, 8, 55, 95
7, 241440, Note_on_c, 8, 48, 95
7, 241560, Note_off_c, 8, 60, 95
7, 241560, Note_off_c, 8, 55, 95
7, 241560, Note_off_c, 8, 48, 95
7, 241680, Note_on_c, 8, 60, 95
7, 241680, Note_on_c, 8, 55, 95
7, 241680, Note_on_c, 8, 48, 95
7, 241800, Note_off_c, 8, 60, 95
7, 241800, Note_off_c, 8, 55, 95
7, 241800, Note_off_c, 8, 48, 95
7, 241920, Note_on_c, 8, 59, 95
7, 241920, Note_on_c, 8, 54, 95
7, 241920, Note_on_c, 8, 47, 95
7, 242040, Note_off_c, 8, 59, 95
7, 242040, Note_off_c, 8, 54, 95
7, 242040, Note_off_c, 8, 47, 95
7, 242400, Note_on_c, 8, 59, 95
7, 242400, Note_on_c, 8, 54, 95
7, 242400, Note_on_c, 8, 47, 95
7, 242520, Note_off_c, 8, 59, 95
7, 242520, Note_off_c, 8, 54, 95
7, 242520, Note_off_c, 8, 47, 95
7, 242640, Note_on_c, 8, 59, 95
7, 242640, Note_on_c, 8, 54, 95
7, 242640, Note_on_c, 8, 47, 95
7, 242760, Note_off_c, 8, 59, 95
7, 242760, Note_off_c, 8, 54, 95
7, 242760, Note_off_c, 8, 47, 95
7, 242880, Note_on_c, 8, 59, 95
7, 242880, Note_on_c, 8, 54, 95
7, 242880, Note_on_c, 8, 47, 95
7, 243000, Note_off_c, 8, 59, 95
7, 243000, Note_off_c, 8, 54, 95
7, 243000, Note_off_c, 8, 47, 95
7, 243360, Note_on_c, 8, 59, 95
7, 243360, Note_on_c, 8, 54, 95
7, 243360, Note_on_c, 8, 47, 95
7, 243480, Note_off_c, 8, 59, 95
7, 243480, Note_off_c, 8, 54, 95
7, 243480, Note_off_c, 8, 47, 95
7, 243600, Note_on_c, 8, 59, 95
7, 243600, Note_on_c, 8, 54, 95
7, 243600, Note_on_c, 8, 47, 95
7, 243720, Note_off_c, 8, 59, 95
7, 243720, Note_off_c, 8, 54, 95
7, 243720, Note_off_c, 8, 47, 95
7, 243840, Note_on_c, 8, 59, 95
7, 243840, Note_on_c, 8, 54, 95
7, 243840, Note_on_c, 8, 47, 95
7, 243960, Note_off_c, 8, 59, 95
7, 243960, Note_off_c, 8, 54, 95
7, 243960, Note_off_c, 8, 47, 95
7, 244320, Note_on_c, 8, 59, 95
7, 244320, Note_on_c, 8, 54, 95
7, 244320, Note_on_c, 8, 47, 95
7, 244440, Note_off_c, 8, 59, 95
7, 244440, Note_off_c, 8, 54, 95
7, 244440, Note_off_c, 8, 47, 95
7, 244560, Note_on_c, 8, 59, 95
7, 244560, Note_on_c, 8, 54, 95
7, 244560, Note_on_c, 8, 47, 95
7, 244680, Note_off_c, 8, 59, 95
7, 244680, Note_off_c, 8, 54, 95
7, 244680, Note_off_c, 8, 47, 95
7, 244800, Note_on_c, 8, 59, 95
7, 244800, Note_on_c, 8, 54, 95
7, 244800, Note_on_c, 8, 47, 95
7, 244920, Note_off_c, 8, 59, 95
7, 244920, Note_off_c, 8, 54, 95
7, 244920, Note_off_c, 8, 47, 95
7, 245280, Note_on_c, 8, 59, 95
7, 245280, Note_on_c, 8, 54, 95
7, 245280, Note_on_c, 8, 47, 95
7, 245400, Note_off_c, 8, 59, 95
7, 245400, Note_off_c, 8, 54, 95
7, 245400, Note_off_c, 8, 47, 95
7, 245520, Note_on_c, 8, 59, 95
7, 245520, Note_on_c, 8, 54, 95
7, 245520, Note_on_c, 8, 47, 95
7, 245640, Note_off_c, 8, 59, 95
7, 245640, Note_off_c, 8, 54, 95
7, 245640, Note_off_c, 8, 47, 95
7, 245760, Note_on_c, 8, 52, 95
7, 245760, Note_on_c, 8, 47, 95
7, 245760, Note_on_c, 8, 40, 95
7, 245880, Note_off_c, 8, 52, 95
7, 245880, Note_off_c, 8, 47, 95
7, 245880, Note_off_c, 8, 40, 95
7, 246240, Note_on_c, 8, 52, 95
7, 246240, Note_on_c, 8, 47, 95
7, 246240, Note_on_c, 8, 40, 95
7, 246360, Note_off_c, 8, 52, 95
7, 246360, Note_off_c, 8, 47, 95
7, 246360, Note_off_c, 8, 40, 95
7, 246480, Note_on_c, 8, 52, 95
7, 246480, Note_on_c, 8, 47, 95
7, 246480, Note_on_c, 8, 40, 95
7, 246600, Note_off_c, 8, 52, 95
7, 246600, Note_off_c, 8, 47, 95
7, 246600, Note_off_c, 8, 40, 95
7, 246720, Note_on_c, 8, 52, 95
7, 246720, Note_on_c, 8, 47, 95
7, 246720, Note_on_c, 8, 40, 95
7, 246840, Note_off_c, 8, 52, 95
7, 246840, Note_off_c, 8, 47, 95
7, 246840, Note_off_c, 8, 40, 95
7, 247200, Note_on_c, 8, 52, 95
7, 247200, Note_on_c, 8, 47, 95
7, 247200, Note_on_c, 8, 40, 95
7, 247320, Note_off_c, 8, 52, 95
7, 247320, Note_off_c, 8, 47, 95
7, 247320, Note_off_c, 8, 40, 95
7, 247440, Note_on_c, 8, 52, 95
7, 247440, Note_on_c, 8, 47, 95
7, 247440, Note_on_c, 8, 40, 95
7, 247560, Note_off_c, 8, 52, 95
7, 247560, Note_off_c, 8, 47, 95
7, 247560, Note_off_c, 8, 40, 95
7, 247680, Note_on_c, 8, 52, 95
7, 247680, Note_on_c, 8, 47, 95
7, 247680, Note_on_c, 8, 40, 95
7, 247800, Note_off_c, 8, 52, 95
7, 247800, Note_off_c, 8, 47, 95
7, 247800, Note_off_c, 8, 40, 95
7, 248160, Note_on_c, 8, 52, 95
7, 248160, Note_on_c, 8, 47, 95
7, 248160, Note_on_c, 8, 40, 95
7, 248280, Note_off_c, 8, 52, 95
7, 248280, Note_off_c, 8, 47, 95
7, 248280, Note_off_c, 8, 40, 95
7, 248400, Note_on_c, 8, 52, 95
7, 248400, Note_on_c, 8, 47, 95
7, 248400, Note_on_c, 8, 40, 95
7, 248520, Note_off_c, 8, 52, 95
7, 248520, Note_off_c, 8, 47, 95
7, 248520, Note_off_c, 8, 40, 95
7, 248640, Note_on_c, 8, 52, 95
7, 248640, Note_on_c, 8, 47, 95
7, 248640, Note_on_c, 8, 40, 95
7, 248760, Note_off_c, 8, 52, 95
7, 248760, Note_off_c, 8, 47, 95
7, 248760, Note_off_c, 8, 40, 95
7, 249120, Note_on_c, 8, 52, 95
7, 249120, Note_on_c, 8, 47, 95
7, 249120, Note_on_c, 8, 40, 95
7, 249240, Note_off_c, 8, 52, 95
7, 249240, Note_off_c, 8, 47, 95
7, 249240, Note_off_c, 8, 40, 95
7, 249360, Note_on_c, 8, 52, 95
7, 249360, Note_on_c, 8, 47, 95
7, 249360, Note_on_c, 8, 40, 95
7, 249480, Note_off_c, 8, 52, 95
7, 249480, Note_off_c, 8, 47, 95
7, 249480, Note_off_c, 8, 40, 95
7, 249600, Note_on_c, 8, 55, 95
7, 249600, Note_on_c, 8, 50, 95
7, 249600, Note_on_c, 8, 43, 95
7, 249720, Note_off_c, 8, 55, 95
7, 249720, Note_off_c, 8, 50, 95
7, 249720, Note_off_c, 8, 43, 95
7, 250080, Note_on_c, 8, 55, 95
7, 250080, Note_on_c, 8, 50, 95
7, 250080, Note_on_c, 8, 43, 95
7, 250200, Note_off_c, 8, 55, 95
7, 250200, Note_off_c, 8, 50, 95
7, 250200, Note_off_c, 8, 43, 95
7, 250320, Note_on_c, 8, 55, 95
7, 250320, Note_on_c, 8, 50, 95
7, 250320, Note_on_c, 8, 43, 95
7, 250440, Note_off_c, 8, 55, 95
7, 250440, Note_off_c, 8, 50, 95
7, 250440, Note_off_c, 8, 43, 95
7, 250560, Note_on_c, 8, 55, 95
7, 250560, Note_on_c, 8, 50, 95
7, 250560, Note_on_c, 8, 43, 95
7, 250680, Note_off_c, 8, 55, 95
7, 250680, Note_off_c, 8, 50, 95
7, 250680, Note_off_c, 8, 43, 95
7, 251040, Note_on_c, 8, 55, 95
7, 251040, Note_on_c, 8, 50, 95
7, 251040, Note_on_c, 8, 43, 95
7, 251160, Note_off_c, 8, 55, 95
7, 251160, Note_off_c, 8, 50, 95
7, 251160, Note_off_c, 8, 43, 95
7, 251280, Note_on_c, 8, 55, 95
7, 251280, Note_on_c, 8, 50, 95
7, 251280, Note_on_c, 8, 43, 95
7, 251400, Note_off_c, 8, 55, 95
7, 251400, Note_off_c, 8, 50, 95
7, 251400, Note_off_c, 8, 43, 95
7, 251520, Note_on_c, 8, 55, 95
7, 251520, Note_on_c, 8, 50, 95
7, 251520, Note_on_c, 8, 43, 95
7, 251640, Note_off_c, 8, 55, 95
7, 251640, Note_off_c, 8, 50, 95
7, 251640, Note_off_c, 8, 43, 95
7, 252000, Note_on_c, 8, 55, 95
7, 252000, Note_on_c, 8, 50, 95
7, 252000, Note_on_c, 8, 43, 95
7, 252120, Note_off_c, 8, 55, 95
7, 252120, Note_off_c, 8, 50, 95
7, 252120, Note_off_c, 8, 43, 95
7, 252240, Note_on_c, 8, 55, 95
7, 252240, Note_on_c, 8, 50, 95
7, 252240, Note_on_c, 8, 43, 95
7, 252360, Note_off_c, 8, 55, 95
7, 252360, Note_off_c, 8, 50, 95
7, 252360, Note_off_c, 8, 43, 95
7, 252480, Note_on_c, 8, 55, 95
7, 252480, Note_on_c, 8, 50, 95
7, 252480, Note_on_c, 8, 43, 95
7, 252600, Note_off_c, 8, 55, 95
7, 252600, Note_off_c, 8, 50, 95
7, 252600, Note_off_c, 8, 43, 95
7, 252960, Note_on_c, 8, 55, 95
7, 252960, Note_on_c, 8, 50, 95
7, 252960, Note_on_c, 8, 43, 95
7, 253080, Note_off_c, 8, 55, 95
7, 253080, Note_off_c, 8, 50, 95
7, 253080, Note_off_c, 8, 43, 95
7, 253200, Note_on_c, 8, 55, 95
7, 253200, Note_on_c, 8, 50, 95
7, 253200, Note_on_c, 8, 43, 95
7, 253320, Note_off_c, 8, 55, 95
7, 253320, Note_off_c, 8, 50, 95
7, 253320, Note_off_c, 8, 43, 95
7, 253440, Note_on_c, 8, 60, 95
7, 253440, Note_on_c, 8, 55, 95
7, 253440, Note_on_c, 8, 48, 95
7, 253560, Note_off_c, 8, 60, 95
7, 253560, Note_off_c, 8, 55, 95
7, 253560, Note_off_c, 8, 48, 95
7, 253920, Note_on_c, 8, 60, 95
7, 253920, Note_on_c, 8, 55, 95
7, 253920, Note_on_c, 8, 48, 95
7, 254040, Note_off_c, 8, 60, 95
7, 254040, Note_off_c, 8, 55, 95
7, 254040, Note_off_c, 8, 48, 95
7, 254160, Note_on_c, 8, 60, 95
7, 254160, Note_on_c, 8, 55, 95
7, 254160, Note_on_c, 8, 48, 95
7, 254280, Note_off_c, 8, 60, 95
7, 254280, Note_off_c, 8, 55, 95
7, 254280, Note_off_c, 8, 48, 95
7, 254400, Note_on_c, 8, 60, 95
7, 254400, Note_on_c, 8, 55, 95
7, 254400, Note_on_c, 8, 48, 95
7, 254520, Note_off_c, 8, 60, 95
7, 254520, Note_off_c, 8, 55, 95
7, 254520, Note_off_c, 8, 48, 95
7, 254880, Note_on_c, 8, 60, 95
7, 254880, Note_on_c, 8, 55, 95
7, 254880, Note_on_c, 8, 48, 95
7, 255000, Note_off_c, 8, 60, 95
7, 255000, Note_off_c, 8, 55, 95
7, 255000, Note_off_c, 8, 48, 95
7, 255120, Note_on_c, 8, 60, 95
7, 255120, Note_on_c, 8, 55, 95
7, 255120, Note_on_c, 8, 48, 95
7, 255240, Note_off_c, 8, 60, 95
7, 255240, Note_off_c, 8, 55, 95
7, 255240, Note_off_c, 8, 48, 95
7, 255360, Note_on_c, 8, 60, 95
7, 255360, Note_on_c, 8, 55, 95
7, 255360, Note_on_c, 8, 48, 95
7, 255480, Note_off_c, 8, 60, 95
7, 255480, Note_off_c, 8, 55, 95
7, 255480, Note_off_c, 8, 48, 95
7, 255840, Note_on_c, 8, 60, 95
7, 255840, Note_on_c, 8, 55, 95
7, 255840, Note_on_c, 8, 48, 95
7, 255960, Note_off_c, 8, 60, 95
7, 255960, Note_off_c, 8, 55, 95
7, 255960, Note_off_c, 8, 48, 95
7, 256080, Note_on_c, 8, 60, 95
7, 256080, Note_on_c, 8, 55, 95
7, 256080, Note_on_c, 8, 48, 95
7, 256200, Note_off_c, 8, 60, 95
7, 256200, Note_off_c, 8, 55, 95
7, 256200, Note_off_c, 8, 48, 95
7, 256320, Note_on_c, 8, 60, 95
7, 256320, Note_on_c, 8, 55, 95
7, 256320, Note_on_c, 8, 48, 95
7, 256440, Note_off_c, 8, 60, 95
7, 256440, Note_off_c, 8, 55, 95
7, 256440, Note_off_c, 8, 48, 95
7, 256800, Note_on_c, 8, 60, 95
7, 256800, Note_on_c, 8, 55, 95
7, 256800, Note_on_c, 8, 48, 95
7, 256920, Note_off_c, 8, 60, 95
7, 256920, Note_off_c, 8, 55, 95
7, 256920, Note_off_c, 8, 48, 95
7, 257040, Note_on_c, 8, 60, 95
7, 257040, Note_on_c, 8, 55, 95
7, 257040, Note_on_c, 8, 48, 95
7, 257160, Note_off_c, 8, 60, 95
7, 257160, Note_off_c, 8, 55, 95
7, 257160, Note_off_c, 8, 48, 95
7, 284160, Note_on_c, 8, 40, 95
7, 284640, Note_off_c, 8, 40, 95
7, 284640, Note_on_c, 8, 47, 95
7, 285120, Note_off_c, 8, 47, 95
7, 285120, Note_on_c, 8, 54, 95
7, 285600, Note_off_c, 8, 54, 95
7, 285600, Note_on_c, 8, 47, 95
7, 286080, Note_off_c, 8, 47, 95
7, 286080, Note_on_c, 8, 55, 95
7, 286560, Note_off_c, 8, 55, 95
7, 286560, Note_on_c, 8, 47, 95
7, 287040, Note_off_c, 8, 47, 95
7, 287040, Note_on_c, 8, 54, 95
7, 287520, Note_off_c, 8, 54, 95
7, 287520, Note_on_c, 8, 47, 95
7, 288000, Note_off_c, 8, 47, 95
7, 288000, Note_on_c, 8, 40, 95
7, 288480, Note_off_c, 8, 40, 95
7, 288480, Note_on_c, 8, 47, 95
7, 288960, Note_off_c, 8, 47, 95
7, 288960, Note_on_c, 8, 54, 95
7, 289440, Note_off_c, 8, 54, 95
7, 289440, Note_on_c, 8, 47, 95
7, 289920, Note_off_c, 8, 47, 95
7, 289920, Note_on_c, 8, 55, 95
7, 290400, Note_off_c, 8, 55, 95
7, 290400, Note_on_c, 8, 47, 95
7, 290880, Note_off_c, 8, 47, 95
7, 290880, Note_on_c, 8, 54, 95
7, 291360, Note_off_c, 8, 54, 95
7, 291360, Note_on_c, 8, 47, 95
7, 291840, Note_off_c, 8, 47, 95
7, 291840, Note_on_c, 8, 48, 95
7, 292320, Note_off_c, 8, 48, 95
7, 292320, Note_on_c, 8, 52, 95
7, 292800, Note_off_c, 8, 52, 95
7, 292800, Note_on_c, 8, 55, 95
7, 293280, Note_off_c, 8, 55, 95
7, 293280, Note_on_c, 8, 52, 95
7, 293760, Note_off_c, 8, 52, 95
7, 293760, Note_on_c, 8, 62, 95
7, 294240, Note_off_c, 8, 62, 95
7, 294240, Note_on_c, 8, 52, 95
7, 294720, Note_off_c, 8, 52, 95
7, 294720, Note_on_c, 8, 55, 95
7, 295200, Note_off_c, 8, 55, 95
7, 295200, Note_on_c, 8, 52, 95
7, 295680, Note_off_c, 8, 52, 95
7, 295680, Note_on_c, 8, 48, 95
7, 296160, Note_off_c, 8, 48, 95
7, 296160, Note_on_c, 8, 52, 95
7, 296640, Note_off_c, 8, 52, 95
7, 296640, Note_on_c, 8, 55, 95
7, 297120, Note_off_c, 8, 55, 95
7, 297120, Note_on_c, 8, 52, 95
7, 297600, Note_off_c, 8, 52, 95
7, 297600, Note_on_c, 8, 62, 95
7, 298080, Note_off_c, 8, 62, 95
7, 298080, Note_on_c, 8, 52, 95
7, 298560, Note_off_c, 8, 52, 95
7, 298560, Note_on_c, 8, 55, 95
7, 299040, Note_off_c, 8, 55, 95
7, 299040, Note_on_c, 8, 52, 95
7, 299520, Note_off_c, 8, 52, 95
7, 299520, Note_on_c, 8, 40, 95
7, 300000, Note_off_c, 8, 40, 95
7, 300000, Note_on_c, 8, 47, 95
7, 300480, Note_off_c, 8, 47, 95
7, 300480, Note_on_c, 8, 54, 95
7, 300960, Note_off_c, 8, 54, 95
7, 300960, Note_on_c, 8, 47, 95
7, 301440, Note_off_c, 8, 47, 95
7, 301440, Note_on_c, 8, 55, 95
7, 301920, Note_off_c, 8, 55, 95
7, 301920, Note_on_c, 8, 47, 95
7, 302400, Note_off_c, 8, 47, 95
7, 302400, Note_on_c, 8, 54, 95
7, 302880, Note_off_c, 8, 54, 95
7, 302880, Note_on_c, 8, 47, 95
7, 303360, Note_off_c, 8, 47, 95
7, 303360, Note_on_c, 8, 40, 95
7, 303840, Note_off_c, 8, 40, 95
7, 303840, Note_on_c, 8, 47, 95
7, 304320, Note_off_c, 8, 47, 95
7, 304320, Note_on_c, 8, 54, 95
7, 304800, Note_off_c, 8, 54, 95
7, 304800, Note_on_c, 8, 47, 95
7, 305280, Note_off_c, 8, 47, 95
7, 305280, Note_on_c, 8, 55, 95
7, 305760, Note_off_c, 8, 55, 95
7, 305760, Note_on_c, 8, 47, 95
7, 306240, Note_off_c, 8, 47, 95
7, 306240, Note_on_c, 8, 54, 95
7, 306720, Note_off_c, 8, 54, 95
7, 306720, Note_on_c, 8, 47, 95
7, 307200, Note_off_c, 8, 47, 95
7, 307200, Note_on_c, 8, 48, 95
7, 307680, Note_off_c, 8, 48, 95
7, 307680, Note_on_c, 8, 52, 95
7, 308160, Note_off_c, 8, 52, 95
7, 308160, Note_on_c, 8, 55, 95
7, 308640, Note_off_c, 8, 55, 95
7, 308640, Note_on_c, 8, 52, 95
7, 309120, Note_off_c, 8, 52, 95
7, 309120, Note_on_c, 8, 62, 95
7, 309600, Note_off_c, 8, 62, 95
7, 309600, Note_on_c, 8, 52, 95
7, 310080, Note_off_c, 8, 52, 95
7, 310080, Note_on_c, 8, 55, 95
7, 310560, Note_off_c, 8, 55, 95
7, 310560, Note_on_c, 8, 52, 95
7, 311040, Note_off_c, 8, 52, 95
7, 311040, Note_on_c, 8, 48, 95
7, 311520, Note_off_c, 8, 48, 95
7, 311520, Note_on_c, 8, 52, 95
7, 312000, Note_off_c, 8, 52, 95
7, 312000, Note_on_c, 8, 55, 95
7, 312480, Note_off_c, 8, 55, 95
7, 312480, Note_on_c, 8, 52, 95
7, 312960, Note_off_c, 8, 52, 95
7, 312960, Note_on_c, 8, 62, 95
7, 313440, Note_off_c, 8, 62, 95
7, 313440, Note_on_c, 8, 52, 95
7, 313920, Note_off_c, 8, 52, 95
7, 313920, Note_on_c, 8, 55, 95
7, 314400, Note_off_c, 8, 55, 95
7, 314400, Note_on_c, 8, 52, 95
7, 314880, Note_off_c, 8, 52, 95
7, 314880, Note_on_c, 8, 40, 95
7, 315360, Note_off_c, 8, 40, 95
7, 315360, Note_on_c, 8, 47, 95
7, 315840, Note_off_c, 8, 47, 95
7, 315840, Note_on_c, 8, 54, 95
7, 316320, Note_off_c, 8, 54, 95
7, 316320, Note_on_c, 8, 47, 95
7, 316800, Note_off_c, 8, 47, 95
7, 316800, Note_on_c, 8, 55, 95
7, 317280, Note_off_c, 8, 55, 95
7, 317280, Note_on_c, 8, 47, 95
7, 317760, Note_off_c, 8, 47, 95
7, 317760, Note_on_c, 8, 54, 95
7, 318240, Note_off_c, 8, 54, 95
7, 318240, Note_on_c, 8, 47, 95
7, 318720, Note_off_c, 8, 47, 95
7, 318720, Note_on_c, 8, 40, 95
7, 319200, Note_off_c, 8, 40, 95
7, 319200, Note_on_c, 8, 47, 95
7, 319680, Note_off_c, 8, 47, 95
7, 319680, Note_on_c, 8, 54, 95
7, 320160, Note_off_c, 8, 54, 95
7, 320160, Note_on_c, 8, 47, 95
7, 320640, Note_off_c, 8, 47, 95
7, 320640, Note_on_c, 8, 55, 95
7, 321120, Note_off_c, 8, 55, 95
7, 321120, Note_on_c, 8, 47, 95
7, 321600, Note_off_c, 8, 47, 95
7, 321600, Note_on_c, 8, 54, 95
7, 322080, Note_off_c, 8, 54, 95
7, 322080, Note_on_c, 8, 47, 95
7, 322560, Note_off_c, 8, 47, 95
7, 322560, Note_on_c, 8, 48, 95
7, 323040, Note_off_c, 8, 48, 95
7, 323040, Note_on_c, 8, 52, 95
7, 323520, Note_off_c, 8, 52, 95
7, 323520, Note_on_c, 8, 55, 95
7, 324000, Note_off_c, 8, 55, 95
7, 324000, Note_on_c, 8, 52, 95
7, 324480, Note_off_c, 8, 52, 95
7, 324480, Note_on_c, 8, 62, 95
7, 324960, Note_off_c, 8, 62, 95
7, 324960, Note_on_c, 8, 52, 95
7, 325440, Note_off_c, 8, 52, 95
7, 325440, Note_on_c, 8, 55, 95
7, 325920, Note_off_c, 8, 55, 95
7, 325920, Note_on_c, 8, 52, 95
7, 326400, Note_off_c, 8, 52, 95
7, 326400, Note_on_c, 8, 48, 95
7, 326880, Note_off_c, 8, 48, 95
7, 326880, Note_on_c, 8, 52, 95
7, 327360, Note_off_c, 8, 52, 95
7, 327360, Note_on_c, 8, 55, 95
7, 327840, Note_off_c, 8, 55, 95
7, 327840, Note_on_c, 8, 52, 95
7, 328320, Note_off_c, 8, 52, 95
7, 328320, Note_on_c, 8, 62, 95
7, 328800, Note_off_c, 8, 62, 95
7, 328800, Note_on_c, 8, 52, 95
7, 329280, Note_off_c, 8, 52, 95
7, 329280, Note_on_c, 8, 55, 95
7, 329760, Note_off_c, 8, 55, 95
7, 329760, Note_on_c, 8, 52, 95
7, 330240, Note_off_c, 8, 52, 95
7, 330240, End_track
0, 0, End_of_file
