0, 0, Header, 1, 17, 192
1, 0, Start_track
1, 0, Time_signature, 4, 2, 24, 8
1, 0, Tempo, 821917
1, 0, Key_signature, 0, "major"
1, 0, Text_t, "THE POWER OF LOVE"
1, 0, End_track
2, 0, Start_track
2, 0, MIDI_port, 1
2, 0, Title_t, "POWER OF LOVE       "
2, 24, Control_c, 15, 0, 0
2, 48, Program_c, 15, 0
2, 72, Pitch_bend_c, 15, 8192
2, 96, Control_c, 15, 7, 80
2, 120, Control_c, 15, 10, 64
2, 144, Control_c, 15, 91, 20
2, 168, Control_c, 15, 93, 0
2, 192, Control_c, 15, 100, 0
2, 240, Control_c, 15, 101, 0
2, 288, Control_c, 15, 6, 2
2, 288, End_track
3, 0, Start_track
3, 0, MIDI_port, 1
3, 0, Title_t, "Slap Bass 1         "
3, 0, Control_c, 0, 0, 0
3, 48, Program_c, 0, 36
3, 48, Pitch_bend_c, 0, 8192
3, 48, Control_c, 0, 7, 120
3, 48, Control_c, 0, 10, 54
3, 96, Control_c, 0, 91, 60
3, 96, Control_c, 0, 93, 10
3, 96, Control_c, 0, 100, 0
3, 96, Control_c, 0, 101, 0
3, 144, Control_c, 0, 6, 2
3, 3840, Note_on_c, 0, 19, 101
3, 5354, Note_off_c, 0, 19, 64
3, 6912, Note_on_c, 0, 31, 84
3, 8448, Note_on_c, 0, 28, 60
3, 8462, Note_off_c, 0, 31, 64
3, 9984, Note_on_c, 0, 24, 74
3, 9985, Note_off_c, 0, 28, 64
3, 10752, Note_on_c, 0, 35, 69
3, 10762, Note_off_c, 0, 24, 64
3, 11520, Note_on_c, 0, 26, 71
3, 11538, Note_off_c, 0, 35, 64
3, 13056, Note_off_c, 0, 26, 64
3, 13056, Note_on_c, 0, 31, 115
3, 13165, Note_off_c, 0, 31, 64
3, 13440, Note_on_c, 0, 31, 115
3, 13518, Note_off_c, 0, 31, 64
3, 13728, Note_on_c, 0, 31, 115
3, 13776, Note_off_c, 0, 31, 64
3, 13824, Note_on_c, 0, 31, 115
3, 13863, Note_off_c, 0, 31, 64
3, 13872, Note_on_c, 0, 31, 115
3, 13920, Note_off_c, 0, 31, 64
3, 14208, Note_on_c, 0, 31, 115
3, 14289, Note_off_c, 0, 31, 64
3, 14592, Note_on_c, 0, 36, 115
3, 14640, Note_off_c, 0, 36, 64
3, 14640, Note_on_c, 0, 24, 71
3, 14688, Note_off_c, 0, 24, 64
3, 14976, Note_on_c, 0, 36, 115
3, 15039, Note_off_c, 0, 36, 64
3, 15264, Note_on_c, 0, 36, 115
3, 15307, Note_off_c, 0, 36, 64
3, 15312, Note_on_c, 0, 24, 71
3, 15360, Note_off_c, 0, 24, 64
3, 15360, Note_on_c, 0, 36, 115
3, 15408, Note_off_c, 0, 36, 64
3, 15408, Note_on_c, 0, 24, 86
3, 15450, Note_off_c, 0, 24, 64
3, 15744, Note_on_c, 0, 36, 113
3, 15794, Note_off_c, 0, 36, 64
3, 15888, Note_on_c, 0, 35, 115
3, 16030, Note_off_c, 0, 35, 64
3, 16032, Note_on_c, 0, 33, 115
3, 16080, Note_off_c, 0, 33, 64
3, 16080, Note_on_c, 0, 31, 84
3, 16128, Note_on_c, 0, 33, 115
3, 16132, Note_off_c, 0, 31, 64
3, 16205, Note_off_c, 0, 33, 64
3, 16512, Note_on_c, 0, 33, 115
3, 16575, Note_off_c, 0, 33, 64
3, 16800, Note_on_c, 0, 33, 115
3, 16845, Note_off_c, 0, 33, 64
3, 16896, Note_on_c, 0, 33, 115
3, 16936, Note_off_c, 0, 33, 64
3, 16944, Note_on_c, 0, 33, 90
3, 16990, Note_off_c, 0, 33, 64
3, 17280, Note_on_c, 0, 33, 115
3, 17350, Note_off_c, 0, 33, 64
3, 17664, Note_on_c, 0, 38, 115
3, 17712, Note_on_c, 0, 26, 115
3, 17715, Note_off_c, 0, 38, 64
3, 17765, Note_off_c, 0, 26, 64
3, 18048, Note_on_c, 0, 26, 115
3, 18119, Note_off_c, 0, 26, 64
3, 18336, Note_on_c, 0, 26, 115
3, 18385, Note_off_c, 0, 26, 64
3, 18432, Note_on_c, 0, 26, 115
3, 18466, Note_off_c, 0, 26, 64
3, 18480, Note_on_c, 0, 26, 115
3, 18530, Note_off_c, 0, 26, 64
3, 18816, Note_on_c, 0, 26, 115
3, 18898, Note_off_c, 0, 26, 64
3, 19200, Note_on_c, 0, 31, 115
3, 19243, Note_off_c, 0, 31, 64
3, 19248, Note_on_c, 0, 31, 96
3, 19304, Note_off_c, 0, 31, 64
3, 19584, Note_on_c, 0, 31, 115
3, 19661, Note_off_c, 0, 31, 64
3, 19872, Note_on_c, 0, 31, 115
3, 19921, Note_off_c, 0, 31, 64
3, 19968, Note_on_c, 0, 31, 115
3, 20008, Note_off_c, 0, 31, 64
3, 20016, Note_on_c, 0, 31, 89
3, 20068, Note_off_c, 0, 31, 64
3, 20352, Note_on_c, 0, 31, 115
3, 20429, Note_off_c, 0, 31, 64
3, 20640, Note_on_c, 0, 30, 115
3, 20688, Note_on_c, 0, 26, 69
3, 20689, Note_off_c, 0, 30, 64
3, 20736, Note_on_c, 0, 28, 115
3, 20737, Note_off_c, 0, 26, 64
3, 20779, Note_off_c, 0, 28, 64
3, 20784, Note_on_c, 0, 28, 98
3, 20835, Note_off_c, 0, 28, 64
3, 21120, Note_on_c, 0, 28, 115
3, 21186, Note_off_c, 0, 28, 64
3, 21408, Note_on_c, 0, 28, 115
3, 21444, Note_off_c, 0, 28, 64
3, 21456, Note_on_c, 0, 28, 115
3, 21495, Note_off_c, 0, 28, 64
3, 21504, Note_on_c, 0, 28, 101
3, 21543, Note_off_c, 0, 28, 64
3, 21552, Note_on_c, 0, 28, 115
3, 21600, Note_off_c, 0, 28, 64
3, 21840, Note_on_c, 0, 40, 115
3, 21886, Note_off_c, 0, 40, 64
3, 21888, Note_on_c, 0, 28, 115
3, 21979, Note_off_c, 0, 28, 64
3, 22272, Note_on_c, 0, 24, 115
3, 22314, Note_off_c, 0, 24, 64
3, 22320, Note_on_c, 0, 24, 91
3, 22380, Note_off_c, 0, 24, 64
3, 22608, Note_on_c, 0, 36, 115
3, 22654, Note_off_c, 0, 36, 64
3, 22656, Note_on_c, 0, 24, 115
3, 22723, Note_off_c, 0, 24, 64
3, 22944, Note_on_c, 0, 24, 115
3, 23040, Note_on_c, 0, 35, 115
3, 23041, Note_off_c, 0, 24, 65
3, 23084, Note_off_c, 0, 35, 64
3, 23088, Note_on_c, 0, 35, 101
3, 23140, Note_off_c, 0, 35, 64
3, 23376, Note_on_c, 0, 47, 115
3, 23424, Note_on_c, 0, 35, 115
3, 23432, Note_off_c, 0, 47, 64
3, 23519, Note_off_c, 0, 35, 64
3, 23808, Note_on_c, 0, 38, 115
3, 23856, Note_on_c, 0, 26, 115
3, 23863, Note_off_c, 0, 38, 64
3, 23919, Note_off_c, 0, 26, 64
3, 24144, Note_on_c, 0, 38, 115
3, 24192, Note_on_c, 0, 26, 115
3, 24199, Note_off_c, 0, 38, 64
3, 24269, Note_off_c, 0, 26, 64
3, 24480, Note_on_c, 0, 26, 115
3, 24577, Note_off_c, 0, 26, 64
3, 24624, Note_on_c, 0, 26, 115
3, 24702, Note_off_c, 0, 26, 64
3, 25344, Note_on_c, 0, 31, 115
3, 25384, Note_off_c, 0, 31, 64
3, 25392, Note_on_c, 0, 31, 115
3, 25451, Note_off_c, 0, 31, 64
3, 25728, Note_on_c, 0, 31, 115
3, 25800, Note_off_c, 0, 31, 64
3, 26016, Note_on_c, 0, 31, 115
3, 26060, Note_off_c, 0, 31, 64
3, 26112, Note_on_c, 0, 31, 115
3, 26148, Note_off_c, 0, 31, 64
3, 26160, Note_on_c, 0, 31, 113
3, 26223, Note_off_c, 0, 31, 64
3, 26496, Note_on_c, 0, 31, 115
3, 26590, Note_off_c, 0, 31, 64
3, 26880, Note_on_c, 0, 24, 115
3, 26919, Note_off_c, 0, 24, 64
3, 26928, Note_on_c, 0, 24, 115
3, 26977, Note_off_c, 0, 24, 64
3, 27264, Note_on_c, 0, 24, 115
3, 27338, Note_off_c, 0, 24, 64
3, 27552, Note_on_c, 0, 24, 115
3, 27600, Note_off_c, 0, 24, 64
3, 27648, Note_on_c, 0, 24, 115
3, 27687, Note_off_c, 0, 24, 64
3, 27696, Note_on_c, 0, 24, 115
3, 27744, Note_off_c, 0, 24, 64
3, 28032, Note_on_c, 0, 24, 115
3, 28089, Note_off_c, 0, 24, 64
3, 28176, Note_on_c, 0, 35, 115
3, 28320, Note_off_c, 0, 35, 64
3, 28416, Note_on_c, 0, 33, 115
3, 28455, Note_off_c, 0, 33, 64
3, 28464, Note_on_c, 0, 33, 101
3, 28516, Note_off_c, 0, 33, 64
3, 28800, Note_on_c, 0, 33, 115
3, 28856, Note_off_c, 0, 33, 64
3, 29088, Note_on_c, 0, 33, 115
3, 29125, Note_off_c, 0, 33, 64
3, 29136, Note_on_c, 0, 33, 94
3, 29175, Note_off_c, 0, 33, 64
3, 29184, Note_on_c, 0, 33, 101
3, 29222, Note_off_c, 0, 33, 64
3, 29232, Note_on_c, 0, 33, 115
3, 29278, Note_off_c, 0, 33, 64
3, 29568, Note_on_c, 0, 33, 115
3, 29655, Note_off_c, 0, 33, 64
3, 29952, Note_on_c, 0, 26, 115
3, 29993, Note_off_c, 0, 26, 64
3, 30000, Note_on_c, 0, 26, 94
3, 30058, Note_off_c, 0, 26, 64
3, 30336, Note_on_c, 0, 26, 115
3, 30401, Note_off_c, 0, 26, 64
3, 30624, Note_on_c, 0, 26, 115
3, 30668, Note_off_c, 0, 26, 64
3, 30720, Note_on_c, 0, 26, 115
3, 30754, Note_off_c, 0, 26, 64
3, 30768, Note_on_c, 0, 26, 115
3, 30825, Note_off_c, 0, 26, 64
3, 31104, Note_on_c, 0, 26, 115
3, 31189, Note_off_c, 0, 26, 64
3, 31488, Note_on_c, 0, 31, 115
3, 31524, Note_off_c, 0, 31, 64
3, 31536, Note_on_c, 0, 31, 115
3, 31601, Note_off_c, 0, 31, 64
3, 31872, Note_on_c, 0, 31, 115
3, 31945, Note_off_c, 0, 31, 64
3, 32160, Note_on_c, 0, 31, 115
3, 32208, Note_off_c, 0, 31, 64
3, 32256, Note_on_c, 0, 31, 115
3, 32294, Note_off_c, 0, 31, 64
3, 32304, Note_on_c, 0, 31, 115
3, 32358, Note_off_c, 0, 31, 64
3, 32640, Note_on_c, 0, 31, 115
3, 32726, Note_off_c, 0, 31, 64
3, 33024, Note_on_c, 0, 24, 115
3, 33063, Note_off_c, 0, 24, 64
3, 33072, Note_on_c, 0, 24, 115
3, 33133, Note_off_c, 0, 24, 64
3, 33408, Note_on_c, 0, 24, 115
3, 33481, Note_off_c, 0, 24, 64
3, 33696, Note_on_c, 0, 24, 115
3, 33741, Note_off_c, 0, 24, 64
3, 33792, Note_on_c, 0, 24, 115
3, 33827, Note_off_c, 0, 24, 64
3, 33840, Note_on_c, 0, 24, 98
3, 33896, Note_off_c, 0, 24, 64
3, 34176, Note_on_c, 0, 24, 115
3, 34224, Note_on_c, 0, 31, 94
3, 34229, Note_off_c, 0, 24, 64
3, 34272, Note_on_c, 0, 36, 82
3, 34277, Note_off_c, 0, 31, 64
3, 34311, Note_off_c, 0, 36, 64
3, 34320, Note_on_c, 0, 35, 115
3, 34478, Note_off_c, 0, 35, 64
3, 34560, Note_on_c, 0, 33, 115
3, 34602, Note_off_c, 0, 33, 64
3, 34608, Note_on_c, 0, 33, 89
3, 34661, Note_off_c, 0, 33, 64
3, 34944, Note_on_c, 0, 33, 115
3, 35015, Note_off_c, 0, 33, 64
3, 35232, Note_on_c, 0, 33, 115
3, 35280, Note_on_c, 0, 30, 82
3, 35296, Note_off_c, 0, 33, 64
3, 35328, Note_on_c, 0, 26, 115
3, 35330, Note_off_c, 0, 30, 64
3, 35368, Note_off_c, 0, 26, 64
3, 35376, Note_on_c, 0, 26, 115
3, 35430, Note_off_c, 0, 26, 64
3, 35712, Note_on_c, 0, 24, 115
3, 35785, Note_off_c, 0, 24, 64
3, 36000, Note_on_c, 0, 26, 115
3, 36048, Note_on_c, 0, 28, 79
3, 36062, Note_off_c, 0, 26, 64
3, 36090, Note_off_c, 0, 28, 64
3, 36096, Note_on_c, 0, 31, 115
3, 36134, Note_off_c, 0, 31, 64
3, 36144, Note_on_c, 0, 31, 115
3, 36207, Note_off_c, 0, 31, 64
3, 36480, Note_on_c, 0, 31, 115
3, 36542, Note_off_c, 0, 31, 64
3, 36768, Note_on_c, 0, 31, 115
3, 36814, Note_off_c, 0, 31, 64
3, 36864, Note_on_c, 0, 31, 115
3, 36899, Note_off_c, 0, 31, 64
3, 36912, Note_on_c, 0, 31, 115
3, 36969, Note_off_c, 0, 31, 64
3, 37248, Note_on_c, 0, 31, 115
3, 37327, Note_off_c, 0, 31, 64
3, 37632, Note_on_c, 0, 24, 115
3, 37674, Note_off_c, 0, 24, 64
3, 37680, Note_on_c, 0, 24, 107
3, 37727, Note_off_c, 0, 24, 64
3, 37920, Note_on_c, 0, 24, 115
3, 37969, Note_off_c, 0, 24, 64
3, 38016, Note_on_c, 0, 26, 115
3, 38075, Note_off_c, 0, 26, 64
3, 38304, Note_on_c, 0, 26, 115
3, 38349, Note_off_c, 0, 26, 64
3, 38400, Note_on_c, 0, 31, 115
3, 38438, Note_off_c, 0, 31, 64
3, 38448, Note_on_c, 0, 31, 110
3, 38494, Note_off_c, 0, 31, 64
3, 38784, Note_on_c, 0, 31, 115
3, 38865, Note_off_c, 0, 31, 64
3, 39168, Note_on_c, 0, 24, 115
3, 39211, Note_off_c, 0, 24, 64
3, 39216, Note_on_c, 0, 24, 91
3, 39270, Note_off_c, 0, 24, 64
3, 39456, Note_on_c, 0, 24, 115
3, 39503, Note_off_c, 0, 24, 64
3, 39552, Note_on_c, 0, 26, 115
3, 39607, Note_off_c, 0, 26, 64
3, 39840, Note_on_c, 0, 26, 115
3, 39888, Note_on_c, 0, 27, 63
3, 39891, Note_off_c, 0, 26, 64
3, 39936, Note_off_c, 0, 27, 64
3, 39936, Note_on_c, 0, 28, 115
3, 39979, Note_off_c, 0, 28, 64
3, 39984, Note_on_c, 0, 28, 92
3, 40020, Note_off_c, 0, 28, 64
3, 40224, Note_on_c, 0, 28, 115
3, 40272, Note_off_c, 0, 28, 64
3, 40320, Note_on_c, 0, 28, 115
3, 40378, Note_off_c, 0, 28, 64
3, 40512, Note_on_c, 0, 26, 115
3, 40703, Note_off_c, 0, 26, 64
3, 40704, Note_on_c, 0, 24, 115
3, 40746, Note_off_c, 0, 24, 64
3, 40752, Note_on_c, 0, 24, 107
3, 40799, Note_off_c, 0, 24, 64
3, 40992, Note_on_c, 0, 24, 115
3, 41041, Note_off_c, 0, 24, 64
3, 41088, Note_on_c, 0, 26, 115
3, 41147, Note_off_c, 0, 26, 64
3, 41376, Note_on_c, 0, 26, 115
3, 41421, Note_off_c, 0, 26, 64
3, 41472, Note_on_c, 0, 31, 115
3, 41510, Note_off_c, 0, 31, 64
3, 41520, Note_on_c, 0, 31, 110
3, 41566, Note_off_c, 0, 31, 64
3, 41856, Note_on_c, 0, 31, 115
3, 41937, Note_off_c, 0, 31, 64
3, 42240, Note_on_c, 0, 24, 115
3, 42278, Note_off_c, 0, 24, 64
3, 42288, Note_on_c, 0, 24, 107
3, 42340, Note_off_c, 0, 24, 64
3, 42624, Note_on_c, 0, 24, 115
3, 42688, Note_off_c, 0, 24, 64
3, 42912, Note_on_c, 0, 24, 115
3, 42969, Note_off_c, 0, 24, 64
3, 43008, Note_on_c, 0, 26, 115
3, 43046, Note_off_c, 0, 26, 64
3, 43056, Note_on_c, 0, 26, 115
3, 43098, Note_off_c, 0, 26, 64
3, 43296, Note_on_c, 0, 24, 115
3, 43334, Note_off_c, 0, 24, 64
3, 43344, Note_on_c, 0, 24, 107
3, 43381, Note_off_c, 0, 24, 64
3, 43392, Note_on_c, 0, 26, 115
3, 43430, Note_off_c, 0, 26, 64
3, 43440, Note_on_c, 0, 26, 115
3, 43477, Note_off_c, 0, 26, 64
3, 43776, Note_on_c, 0, 26, 115
3, 43812, Note_off_c, 0, 26, 64
3, 43824, Note_on_c, 0, 26, 115
3, 43870, Note_off_c, 0, 26, 64
3, 44064, Note_on_c, 0, 24, 115
3, 44099, Note_off_c, 0, 24, 64
3, 44112, Note_on_c, 0, 24, 89
3, 44150, Note_off_c, 0, 24, 64
3, 44160, Note_on_c, 0, 26, 115
3, 44198, Note_off_c, 0, 26, 64
3, 44208, Note_on_c, 0, 26, 115
3, 44247, Note_off_c, 0, 26, 64
3, 44544, Note_on_c, 0, 31, 115
3, 44584, Note_off_c, 0, 31, 64
3, 44592, Note_on_c, 0, 31, 115
3, 44651, Note_off_c, 0, 31, 64
3, 44928, Note_on_c, 0, 31, 115
3, 45000, Note_off_c, 0, 31, 64
3, 45216, Note_on_c, 0, 31, 115
3, 45260, Note_off_c, 0, 31, 64
3, 45312, Note_on_c, 0, 31, 115
3, 45348, Note_off_c, 0, 31, 64
3, 45360, Note_on_c, 0, 31, 113
3, 45423, Note_off_c, 0, 31, 64
3, 45696, Note_on_c, 0, 31, 115
3, 45790, Note_off_c, 0, 31, 64
3, 46080, Note_on_c, 0, 24, 115
3, 46119, Note_off_c, 0, 24, 64
3, 46128, Note_on_c, 0, 24, 115
3, 46177, Note_off_c, 0, 24, 64
3, 46464, Note_on_c, 0, 24, 115
3, 46538, Note_off_c, 0, 24, 64
3, 46752, Note_on_c, 0, 24, 115
3, 46800, Note_off_c, 0, 24, 64
3, 46848, Note_on_c, 0, 24, 115
3, 46890, Note_off_c, 0, 24, 64
3, 46896, Note_on_c, 0, 24, 113
3, 46943, Note_off_c, 0, 24, 64
3, 47232, Note_on_c, 0, 24, 115
3, 47288, Note_off_c, 0, 24, 64
3, 47376, Note_on_c, 0, 36, 115
3, 47424, Note_on_c, 0, 35, 89
3, 47437, Note_off_c, 0, 36, 64
3, 47520, Note_on_c, 0, 33, 115
3, 47532, Note_off_c, 0, 35, 64
3, 47568, Note_on_c, 0, 31, 115
3, 47576, Note_off_c, 0, 33, 64
3, 47616, Note_on_c, 0, 33, 115
3, 47619, Note_off_c, 0, 31, 64
3, 47655, Note_off_c, 0, 33, 64
3, 47664, Note_on_c, 0, 33, 101
3, 47716, Note_off_c, 0, 33, 64
3, 48000, Note_on_c, 0, 33, 115
3, 48056, Note_off_c, 0, 33, 64
3, 48288, Note_on_c, 0, 33, 115
3, 48325, Note_off_c, 0, 33, 64
3, 48384, Note_on_c, 0, 33, 101
3, 48422, Note_off_c, 0, 33, 64
3, 48432, Note_on_c, 0, 33, 115
3, 48478, Note_off_c, 0, 33, 64
3, 48768, Note_on_c, 0, 33, 115
3, 48855, Note_off_c, 0, 33, 64
3, 49152, Note_on_c, 0, 26, 115
3, 49193, Note_off_c, 0, 26, 64
3, 49200, Note_on_c, 0, 26, 94
3, 49258, Note_off_c, 0, 26, 64
3, 49536, Note_on_c, 0, 26, 115
3, 49601, Note_off_c, 0, 26, 64
3, 49824, Note_on_c, 0, 26, 115
3, 49868, Note_off_c, 0, 26, 64
3, 49920, Note_on_c, 0, 26, 115
3, 49954, Note_off_c, 0, 26, 64
3, 49968, Note_on_c, 0, 26, 115
3, 50025, Note_off_c, 0, 26, 64
3, 50304, Note_on_c, 0, 26, 115
3, 50389, Note_off_c, 0, 26, 64
3, 50688, Note_on_c, 0, 31, 115
3, 50724, Note_off_c, 0, 31, 64
3, 50736, Note_on_c, 0, 31, 115
3, 50801, Note_off_c, 0, 31, 64
3, 51072, Note_on_c, 0, 31, 115
3, 51145, Note_off_c, 0, 31, 64
3, 51360, Note_on_c, 0, 31, 115
3, 51408, Note_off_c, 0, 31, 64
3, 51456, Note_on_c, 0, 31, 115
3, 51494, Note_off_c, 0, 31, 64
3, 51504, Note_on_c, 0, 31, 115
3, 51558, Note_off_c, 0, 31, 64
3, 51840, Note_on_c, 0, 31, 115
3, 51926, Note_off_c, 0, 31, 64
3, 52224, Note_on_c, 0, 24, 115
3, 52263, Note_off_c, 0, 24, 64
3, 52272, Note_on_c, 0, 24, 115
3, 52333, Note_off_c, 0, 24, 64
3, 52608, Note_on_c, 0, 24, 115
3, 52681, Note_off_c, 0, 24, 64
3, 52896, Note_on_c, 0, 24, 115
3, 52941, Note_off_c, 0, 24, 64
3, 52992, Note_on_c, 0, 24, 115
3, 53034, Note_off_c, 0, 24, 64
3, 53040, Note_on_c, 0, 24, 113
3, 53087, Note_off_c, 0, 24, 64
3, 53376, Note_on_c, 0, 24, 115
3, 53432, Note_off_c, 0, 24, 64
3, 53520, Note_on_c, 0, 36, 115
3, 53568, Note_on_c, 0, 35, 89
3, 53581, Note_off_c, 0, 36, 64
3, 53664, Note_on_c, 0, 33, 115
3, 53676, Note_off_c, 0, 35, 64
3, 53712, Note_on_c, 0, 31, 115
3, 53720, Note_off_c, 0, 33, 64
3, 53758, Note_off_c, 0, 31, 64
3, 53760, Note_on_c, 0, 33, 115
3, 53802, Note_off_c, 0, 33, 64
3, 53808, Note_on_c, 0, 33, 89
3, 53861, Note_off_c, 0, 33, 64
3, 54144, Note_on_c, 0, 33, 115
3, 54215, Note_off_c, 0, 33, 64
3, 54432, Note_on_c, 0, 33, 115
3, 54480, Note_on_c, 0, 30, 82
3, 54496, Note_off_c, 0, 33, 64
3, 54528, Note_on_c, 0, 26, 115
3, 54530, Note_off_c, 0, 30, 64
3, 54568, Note_off_c, 0, 26, 64
3, 54576, Note_on_c, 0, 26, 115
3, 54630, Note_off_c, 0, 26, 64
3, 54912, Note_on_c, 0, 24, 115
3, 54985, Note_off_c, 0, 24, 64
3, 55296, Note_on_c, 0, 31, 115
3, 55338, Note_off_c, 0, 31, 64
3, 55344, Note_on_c, 0, 31, 115
3, 55394, Note_off_c, 0, 31, 64
3, 55680, Note_on_c, 0, 31, 115
3, 55741, Note_off_c, 0, 31, 64
3, 55968, Note_on_c, 0, 31, 115
3, 56013, Note_off_c, 0, 31, 64
3, 56064, Note_on_c, 0, 31, 115
3, 56102, Note_off_c, 0, 31, 64
3, 56112, Note_on_c, 0, 31, 115
3, 56169, Note_off_c, 0, 31, 64
3, 56448, Note_on_c, 0, 31, 115
3, 56515, Note_off_c, 0, 31, 64
3, 56832, Note_on_c, 0, 31, 115
3, 56874, Note_off_c, 0, 31, 64
3, 56880, Note_on_c, 0, 31, 115
3, 56930, Note_off_c, 0, 31, 64
3, 57216, Note_on_c, 0, 31, 115
3, 57277, Note_off_c, 0, 31, 64
3, 57504, Note_on_c, 0, 31, 115
3, 57549, Note_off_c, 0, 31, 64
3, 57600, Note_on_c, 0, 31, 115
3, 57638, Note_off_c, 0, 31, 64
3, 57648, Note_on_c, 0, 31, 115
3, 57705, Note_off_c, 0, 31, 64
3, 57984, Note_on_c, 0, 31, 115
3, 58051, Note_off_c, 0, 31, 64
3, 58368, Note_on_c, 0, 31, 115
3, 58410, Note_off_c, 0, 31, 64
3, 58416, Note_on_c, 0, 31, 115
3, 58466, Note_off_c, 0, 31, 64
3, 58752, Note_on_c, 0, 31, 115
3, 58813, Note_off_c, 0, 31, 64
3, 59040, Note_on_c, 0, 31, 115
3, 59085, Note_off_c, 0, 31, 64
3, 59136, Note_on_c, 0, 31, 115
3, 59174, Note_off_c, 0, 31, 64
3, 59184, Note_on_c, 0, 31, 115
3, 59241, Note_off_c, 0, 31, 64
3, 59520, Note_on_c, 0, 31, 115
3, 59587, Note_off_c, 0, 31, 64
3, 59904, Note_on_c, 0, 31, 115
3, 59946, Note_off_c, 0, 31, 64
3, 59952, Note_on_c, 0, 31, 115
3, 60002, Note_off_c, 0, 31, 64
3, 60288, Note_on_c, 0, 31, 115
3, 60349, Note_off_c, 0, 31, 64
3, 60576, Note_on_c, 0, 31, 115
3, 60621, Note_off_c, 0, 31, 64
3, 60672, Note_on_c, 0, 31, 115
3, 60710, Note_off_c, 0, 31, 64
3, 60720, Note_on_c, 0, 31, 115
3, 60777, Note_off_c, 0, 31, 64
3, 61056, Note_on_c, 0, 31, 115
3, 61123, Note_off_c, 0, 31, 64
3, 61440, Note_on_c, 0, 31, 115
3, 61482, Note_off_c, 0, 31, 64
3, 61488, Note_on_c, 0, 31, 115
3, 61538, Note_off_c, 0, 31, 64
3, 61824, Note_on_c, 0, 31, 115
3, 61885, Note_off_c, 0, 31, 64
3, 62112, Note_on_c, 0, 31, 115
3, 62157, Note_off_c, 0, 31, 64
3, 62208, Note_on_c, 0, 31, 115
3, 62246, Note_off_c, 0, 31, 64
3, 62256, Note_on_c, 0, 31, 115
3, 62313, Note_off_c, 0, 31, 64
3, 62592, Note_on_c, 0, 31, 115
3, 62659, Note_off_c, 0, 31, 64
3, 62976, Note_on_c, 0, 31, 115
3, 63018, Note_off_c, 0, 31, 64
3, 63024, Note_on_c, 0, 31, 115
3, 63074, Note_off_c, 0, 31, 64
3, 63360, Note_on_c, 0, 31, 115
3, 63421, Note_off_c, 0, 31, 64
3, 63648, Note_on_c, 0, 31, 115
3, 63693, Note_off_c, 0, 31, 64
3, 63744, Note_on_c, 0, 31, 115
3, 63782, Note_off_c, 0, 31, 64
3, 63792, Note_on_c, 0, 31, 115
3, 63849, Note_off_c, 0, 31, 64
3, 64128, Note_on_c, 0, 31, 115
3, 64195, Note_off_c, 0, 31, 64
3, 64512, Note_on_c, 0, 31, 115
3, 65892, Note_off_c, 0, 31, 64
3, 65892, End_track
4, 0, Start_track
4, 0, MIDI_port, 1
4, 0, Title_t, "Polysynth           "
4, 12, Control_c, 1, 0, 0
4, 24, Program_c, 1, 90
4, 36, Pitch_bend_c, 1, 8192
4, 48, Control_c, 1, 7, 110
4, 60, Control_c, 1, 10, 94
4, 72, Control_c, 1, 91, 90
4, 84, Control_c, 1, 93, 15
4, 96, Control_c, 1, 100, 0
4, 108, Control_c, 1, 101, 0
4, 120, Control_c, 1, 6, 2
4, 768, Note_on_c, 1, 67, 70
4, 768, Note_on_c, 1, 71, 70
4, 768, Note_on_c, 1, 62, 70
4, 783, Note_off_c, 1, 67, 64
4, 783, Note_off_c, 1, 71, 64
4, 785, Note_off_c, 1, 62, 64
4, 864, Note_on_c, 1, 67, 70
4, 864, Note_on_c, 1, 62, 70
4, 864, Note_on_c, 1, 71, 70
4, 879, Note_off_c, 1, 71, 64
4, 880, Note_off_c, 1, 67, 64
4, 881, Note_off_c, 1, 62, 64
4, 960, Note_on_c, 1, 71, 70
4, 960, Note_on_c, 1, 67, 70
4, 960, Note_on_c, 1, 62, 70
4, 972, Note_off_c, 1, 62, 64
4, 974, Note_off_c, 1, 67, 64
4, 975, Note_off_c, 1, 71, 64
4, 1056, Note_on_c, 1, 71, 70
4, 1056, Note_on_c, 1, 67, 70
4, 1056, Note_on_c, 1, 62, 70
4, 1070, Note_off_c, 1, 71, 64
4, 1070, Note_off_c, 1, 67, 64
4, 1070, Note_off_c, 1, 62, 64
4, 1152, Note_on_c, 1, 71, 70
4, 1152, Note_on_c, 1, 67, 70
4, 1152, Note_on_c, 1, 62, 70
4, 1165, Note_off_c, 1, 62, 64
4, 1166, Note_off_c, 1, 71, 64
4, 1166, Note_off_c, 1, 67, 64
4, 1248, Note_on_c, 1, 71, 70
4, 1248, Note_on_c, 1, 62, 70
4, 1248, Note_on_c, 1, 67, 70
4, 1262, Note_off_c, 1, 67, 64
4, 1264, Note_off_c, 1, 71, 64
4, 1264, Note_off_c, 1, 62, 64
4, 1344, Note_on_c, 1, 71, 70
4, 1344, Note_on_c, 1, 67, 70
4, 1344, Note_on_c, 1, 62, 70
4, 1358, Note_off_c, 1, 67, 64
4, 1359, Note_off_c, 1, 71, 64
4, 1359, Note_off_c, 1, 62, 64
4, 1440, Note_on_c, 1, 62, 70
4, 1440, Note_on_c, 1, 71, 70
4, 1440, Note_on_c, 1, 67, 70
4, 1454, Note_off_c, 1, 71, 64
4, 1454, Note_off_c, 1, 67, 64
4, 1456, Note_off_c, 1, 62, 64
4, 1536, Note_on_c, 1, 71, 70
4, 1536, Note_on_c, 1, 67, 70
4, 1536, Note_on_c, 1, 62, 70
4, 1552, Note_off_c, 1, 71, 64
4, 1552, Note_off_c, 1, 67, 64
4, 1554, Note_off_c, 1, 62, 64
4, 1632, Note_on_c, 1, 71, 70
4, 1632, Note_on_c, 1, 67, 70
4, 1632, Note_on_c, 1, 62, 70
4, 1647, Note_off_c, 1, 71, 64
4, 1647, Note_off_c, 1, 67, 64
4, 1648, Note_off_c, 1, 62, 64
4, 1728, Note_on_c, 1, 71, 70
4, 1728, Note_on_c, 1, 67, 70
4, 1728, Note_on_c, 1, 62, 70
4, 1741, Note_off_c, 1, 62, 64
4, 1742, Note_off_c, 1, 71, 64
4, 1742, Note_off_c, 1, 67, 64
4, 1824, Note_on_c, 1, 67, 70
4, 1824, Note_on_c, 1, 62, 70
4, 1824, Note_on_c, 1, 71, 70
4, 1839, Note_off_c, 1, 67, 64
4, 1839, Note_off_c, 1, 62, 64
4, 1839, Note_off_c, 1, 71, 64
4, 1920, Note_on_c, 1, 71, 70
4, 1920, Note_on_c, 1, 67, 70
4, 1920, Note_on_c, 1, 62, 70
4, 1933, Note_off_c, 1, 67, 64
4, 1934, Note_off_c, 1, 71, 64
4, 1935, Note_off_c, 1, 62, 64
4, 2016, Note_on_c, 1, 71, 70
4, 2016, Note_on_c, 1, 67, 70
4, 2016, Note_on_c, 1, 62, 70
4, 2030, Note_off_c, 1, 71, 64
4, 2030, Note_off_c, 1, 67, 64
4, 2032, Note_off_c, 1, 62, 64
4, 2112, Note_on_c, 1, 71, 70
4, 2112, Note_on_c, 1, 67, 70
4, 2112, Note_on_c, 1, 62, 70
4, 2126, Note_off_c, 1, 71, 64
4, 2126, Note_off_c, 1, 67, 64
4, 2126, Note_off_c, 1, 62, 64
4, 2208, Note_on_c, 1, 67, 70
4, 2208, Note_on_c, 1, 62, 70
4, 2208, Note_on_c, 1, 71, 70
4, 2221, Note_off_c, 1, 71, 64
4, 2223, Note_off_c, 1, 67, 64
4, 2223, Note_off_c, 1, 62, 64
4, 2304, Note_on_c, 1, 71, 70
4, 2304, Note_on_c, 1, 64, 70
4, 2304, Note_on_c, 1, 67, 70
4, 2317, Note_off_c, 1, 67, 64
4, 2319, Note_off_c, 1, 71, 64
4, 2320, Note_off_c, 1, 64, 64
4, 2400, Note_on_c, 1, 71, 70
4, 2400, Note_on_c, 1, 67, 70
4, 2400, Note_on_c, 1, 64, 70
4, 2414, Note_off_c, 1, 67, 64
4, 2415, Note_off_c, 1, 71, 64
4, 2417, Note_off_c, 1, 64, 64
4, 2496, Note_on_c, 1, 71, 70
4, 2496, Note_on_c, 1, 64, 70
4, 2496, Note_on_c, 1, 67, 70
4, 2509, Note_off_c, 1, 67, 64
4, 2511, Note_off_c, 1, 71, 64
4, 2513, Note_off_c, 1, 64, 64
4, 2592, Note_on_c, 1, 71, 70
4, 2592, Note_on_c, 1, 67, 70
4, 2592, Note_on_c, 1, 64, 70
4, 2605, Note_off_c, 1, 67, 64
4, 2606, Note_off_c, 1, 71, 64
4, 2606, Note_off_c, 1, 64, 64
4, 2688, Note_on_c, 1, 71, 70
4, 2688, Note_on_c, 1, 64, 70
4, 2688, Note_on_c, 1, 67, 70
4, 2701, Note_off_c, 1, 67, 64
4, 2702, Note_off_c, 1, 71, 64
4, 2705, Note_off_c, 1, 64, 64
4, 2784, Note_on_c, 1, 71, 70
4, 2784, Note_on_c, 1, 67, 70
4, 2784, Note_on_c, 1, 64, 70
4, 2798, Note_off_c, 1, 67, 64
4, 2799, Note_off_c, 1, 71, 64
4, 2799, Note_off_c, 1, 64, 64
4, 2880, Note_on_c, 1, 71, 70
4, 2880, Note_on_c, 1, 67, 70
4, 2880, Note_on_c, 1, 64, 70
4, 2893, Note_off_c, 1, 67, 64
4, 2894, Note_off_c, 1, 71, 64
4, 2895, Note_off_c, 1, 64, 64
4, 2976, Note_on_c, 1, 71, 70
4, 2976, Note_on_c, 1, 64, 70
4, 2976, Note_on_c, 1, 67, 70
4, 2989, Note_off_c, 1, 64, 64
4, 2989, Note_off_c, 1, 67, 64
4, 2990, Note_off_c, 1, 71, 64
4, 3072, Note_on_c, 1, 71, 70
4, 3072, Note_on_c, 1, 67, 70
4, 3072, Note_on_c, 1, 64, 70
4, 3084, Note_off_c, 1, 67, 64
4, 3085, Note_off_c, 1, 71, 64
4, 3086, Note_off_c, 1, 64, 64
4, 3168, Note_on_c, 1, 71, 70
4, 3168, Note_on_c, 1, 67, 70
4, 3168, Note_on_c, 1, 64, 70
4, 3182, Note_off_c, 1, 67, 64
4, 3183, Note_off_c, 1, 71, 64
4, 3184, Note_off_c, 1, 64, 64
4, 3264, Note_on_c, 1, 71, 70
4, 3264, Note_on_c, 1, 67, 70
4, 3264, Note_on_c, 1, 64, 70
4, 3279, Note_off_c, 1, 67, 64
4, 3280, Note_off_c, 1, 71, 64
4, 3280, Note_off_c, 1, 64, 64
4, 3360, Note_on_c, 1, 71, 70
4, 3360, Note_on_c, 1, 67, 70
4, 3360, Note_on_c, 1, 64, 70
4, 3374, Note_off_c, 1, 71, 64
4, 3374, Note_off_c, 1, 67, 64
4, 3377, Note_off_c, 1, 64, 64
4, 3456, Note_on_c, 1, 71, 70
4, 3456, Note_on_c, 1, 67, 70
4, 3456, Note_on_c, 1, 64, 70
4, 3471, Note_off_c, 1, 71, 64
4, 3471, Note_off_c, 1, 67, 64
4, 3474, Note_off_c, 1, 64, 64
4, 3552, Note_on_c, 1, 71, 70
4, 3552, Note_on_c, 1, 67, 70
4, 3552, Note_on_c, 1, 64, 70
4, 3566, Note_off_c, 1, 67, 64
4, 3567, Note_off_c, 1, 71, 64
4, 3567, Note_off_c, 1, 64, 64
4, 3648, Note_on_c, 1, 71, 70
4, 3648, Note_on_c, 1, 67, 70
4, 3648, Note_on_c, 1, 64, 70
4, 3661, Note_off_c, 1, 67, 64
4, 3662, Note_off_c, 1, 71, 64
4, 3663, Note_off_c, 1, 64, 64
4, 3744, Note_on_c, 1, 71, 70
4, 3744, Note_on_c, 1, 67, 70
4, 3744, Note_on_c, 1, 64, 70
4, 3756, Note_off_c, 1, 67, 64
4, 3758, Note_off_c, 1, 71, 64
4, 3760, Note_off_c, 1, 64, 64
4, 3840, Note_on_c, 1, 67, 70
4, 3840, Note_on_c, 1, 62, 70
4, 3840, Note_on_c, 1, 71, 70
4, 3853, Note_off_c, 1, 71, 64
4, 3857, Note_off_c, 1, 67, 64
4, 3859, Note_off_c, 1, 62, 64
4, 3936, Note_on_c, 1, 67, 70
4, 3936, Note_on_c, 1, 71, 70
4, 3936, Note_on_c, 1, 62, 70
4, 3951, Note_off_c, 1, 71, 64
4, 3952, Note_off_c, 1, 67, 64
4, 3953, Note_off_c, 1, 62, 64
4, 4032, Note_on_c, 1, 71, 70
4, 4032, Note_on_c, 1, 67, 70
4, 4032, Note_on_c, 1, 62, 70
4, 4047, Note_off_c, 1, 71, 64
4, 4047, Note_off_c, 1, 67, 64
4, 4047, Note_off_c, 1, 62, 64
4, 4128, Note_on_c, 1, 71, 70
4, 4128, Note_on_c, 1, 67, 70
4, 4128, Note_on_c, 1, 62, 70
4, 4141, Note_off_c, 1, 71, 64
4, 4141, Note_off_c, 1, 67, 64
4, 4144, Note_off_c, 1, 62, 64
4, 4224, Note_on_c, 1, 71, 70
4, 4224, Note_on_c, 1, 67, 70
4, 4224, Note_on_c, 1, 62, 70
4, 4238, Note_off_c, 1, 67, 64
4, 4239, Note_off_c, 1, 71, 64
4, 4242, Note_off_c, 1, 62, 64
4, 4320, Note_on_c, 1, 71, 70
4, 4320, Note_on_c, 1, 67, 70
4, 4320, Note_on_c, 1, 62, 70
4, 4335, Note_off_c, 1, 71, 64
4, 4335, Note_off_c, 1, 67, 64
4, 4336, Note_off_c, 1, 62, 64
4, 4416, Note_on_c, 1, 71, 70
4, 4416, Note_on_c, 1, 67, 70
4, 4416, Note_on_c, 1, 62, 70
4, 4431, Note_off_c, 1, 71, 64
4, 4431, Note_off_c, 1, 67, 64
4, 4433, Note_off_c, 1, 62, 64
4, 4512, Note_on_c, 1, 71, 70
4, 4512, Note_on_c, 1, 67, 70
4, 4512, Note_on_c, 1, 62, 70
4, 4526, Note_off_c, 1, 67, 64
4, 4527, Note_off_c, 1, 71, 64
4, 4528, Note_off_c, 1, 62, 64
4, 4608, Note_on_c, 1, 71, 70
4, 4608, Note_on_c, 1, 67, 70
4, 4608, Note_on_c, 1, 62, 70
4, 4621, Note_off_c, 1, 71, 64
4, 4621, Note_off_c, 1, 67, 64
4, 4623, Note_off_c, 1, 62, 64
4, 4704, Note_on_c, 1, 71, 70
4, 4704, Note_on_c, 1, 67, 70
4, 4704, Note_on_c, 1, 62, 70
4, 4718, Note_off_c, 1, 71, 64
4, 4719, Note_off_c, 1, 67, 64
4, 4719, Note_off_c, 1, 62, 64
4, 4800, Note_on_c, 1, 71, 70
4, 4800, Note_on_c, 1, 67, 70
4, 4800, Note_on_c, 1, 62, 70
4, 4815, Note_off_c, 1, 67, 64
4, 4816, Note_off_c, 1, 71, 64
4, 4817, Note_off_c, 1, 62, 64
4, 4896, Note_on_c, 1, 71, 70
4, 4896, Note_on_c, 1, 67, 70
4, 4896, Note_on_c, 1, 62, 70
4, 4910, Note_off_c, 1, 71, 64
4, 4910, Note_off_c, 1, 67, 64
4, 4911, Note_off_c, 1, 62, 64
4, 4992, Note_on_c, 1, 71, 70
4, 4992, Note_on_c, 1, 67, 70
4, 4992, Note_on_c, 1, 62, 70
4, 5006, Note_off_c, 1, 71, 64
4, 5006, Note_off_c, 1, 67, 64
4, 5008, Note_off_c, 1, 62, 64
4, 5088, Note_on_c, 1, 62, 70
4, 5088, Note_on_c, 1, 71, 70
4, 5088, Note_on_c, 1, 67, 70
4, 5101, Note_off_c, 1, 71, 64
4, 5101, Note_off_c, 1, 67, 64
4, 5104, Note_off_c, 1, 62, 64
4, 5184, Note_on_c, 1, 71, 70
4, 5184, Note_on_c, 1, 67, 70
4, 5184, Note_on_c, 1, 62, 70
4, 5197, Note_off_c, 1, 71, 64
4, 5197, Note_off_c, 1, 67, 64
4, 5199, Note_off_c, 1, 62, 64
4, 5280, Note_on_c, 1, 71, 70
4, 5280, Note_on_c, 1, 67, 70
4, 5280, Note_on_c, 1, 62, 70
4, 5294, Note_off_c, 1, 71, 64
4, 5294, Note_off_c, 1, 67, 64
4, 5297, Note_off_c, 1, 62, 64
4, 5376, Note_on_c, 1, 66, 70
4, 5376, Note_on_c, 1, 69, 70
4, 5376, Note_on_c, 1, 62, 70
4, 5390, Note_off_c, 1, 69, 64
4, 5390, Note_off_c, 1, 62, 64
4, 5392, Note_off_c, 1, 66, 64
4, 5472, Note_on_c, 1, 69, 70
4, 5472, Note_on_c, 1, 66, 70
4, 5472, Note_on_c, 1, 62, 70
4, 5487, Note_off_c, 1, 69, 64
4, 5487, Note_off_c, 1, 66, 64
4, 5487, Note_off_c, 1, 62, 64
4, 5568, Note_on_c, 1, 69, 70
4, 5568, Note_on_c, 1, 66, 70
4, 5568, Note_on_c, 1, 62, 70
4, 5582, Note_off_c, 1, 69, 64
4, 5582, Note_off_c, 1, 66, 64
4, 5582, Note_off_c, 1, 62, 64
4, 5664, Note_on_c, 1, 69, 70
4, 5664, Note_on_c, 1, 66, 70
4, 5664, Note_on_c, 1, 62, 70
4, 5678, Note_off_c, 1, 62, 64
4, 5679, Note_off_c, 1, 69, 64
4, 5679, Note_off_c, 1, 66, 64
4, 5760, Note_on_c, 1, 69, 70
4, 5760, Note_on_c, 1, 66, 70
4, 5760, Note_on_c, 1, 62, 70
4, 5773, Note_off_c, 1, 62, 64
4, 5774, Note_off_c, 1, 66, 64
4, 5775, Note_off_c, 1, 69, 64
4, 5856, Note_on_c, 1, 69, 70
4, 5856, Note_on_c, 1, 66, 70
4, 5856, Note_on_c, 1, 62, 70
4, 5869, Note_off_c, 1, 66, 64
4, 5870, Note_off_c, 1, 62, 64
4, 5871, Note_off_c, 1, 69, 64
4, 5952, Note_on_c, 1, 69, 70
4, 5952, Note_on_c, 1, 66, 70
4, 5952, Note_on_c, 1, 62, 70
4, 5965, Note_off_c, 1, 66, 64
4, 5966, Note_off_c, 1, 69, 64
4, 5966, Note_off_c, 1, 62, 64
4, 6048, Note_on_c, 1, 69, 70
4, 6048, Note_on_c, 1, 66, 70
4, 6048, Note_on_c, 1, 62, 70
4, 6061, Note_off_c, 1, 66, 64
4, 6062, Note_off_c, 1, 62, 64
4, 6064, Note_off_c, 1, 69, 64
4, 6144, Note_on_c, 1, 69, 70
4, 6144, Note_on_c, 1, 66, 70
4, 6144, Note_on_c, 1, 62, 70
4, 6158, Note_off_c, 1, 66, 64
4, 6160, Note_off_c, 1, 69, 64
4, 6161, Note_off_c, 1, 62, 64
4, 6240, Note_on_c, 1, 69, 70
4, 6240, Note_on_c, 1, 66, 70
4, 6240, Note_on_c, 1, 62, 70
4, 6252, Note_off_c, 1, 66, 64
4, 6254, Note_off_c, 1, 69, 64
4, 6254, Note_off_c, 1, 62, 64
4, 6336, Note_on_c, 1, 69, 70
4, 6336, Note_on_c, 1, 66, 70
4, 6336, Note_on_c, 1, 62, 70
4, 6350, Note_off_c, 1, 66, 64
4, 6352, Note_off_c, 1, 69, 64
4, 6352, Note_off_c, 1, 62, 64
4, 6432, Note_on_c, 1, 69, 70
4, 6432, Note_on_c, 1, 66, 70
4, 6432, Note_on_c, 1, 62, 70
4, 6445, Note_off_c, 1, 69, 64
4, 6445, Note_off_c, 1, 66, 64
4, 6446, Note_off_c, 1, 62, 64
4, 6528, Note_on_c, 1, 69, 70
4, 6528, Note_on_c, 1, 66, 70
4, 6528, Note_on_c, 1, 62, 70
4, 6541, Note_off_c, 1, 66, 64
4, 6542, Note_off_c, 1, 69, 64
4, 6542, Note_off_c, 1, 62, 64
4, 6624, Note_on_c, 1, 69, 70
4, 6624, Note_on_c, 1, 66, 70
4, 6624, Note_on_c, 1, 62, 70
4, 6637, Note_off_c, 1, 66, 64
4, 6637, Note_off_c, 1, 62, 64
4, 6638, Note_off_c, 1, 69, 64
4, 6720, Note_on_c, 1, 69, 70
4, 6720, Note_on_c, 1, 66, 70
4, 6720, Note_on_c, 1, 62, 70
4, 6733, Note_off_c, 1, 66, 64
4, 6733, Note_off_c, 1, 62, 64
4, 6734, Note_off_c, 1, 69, 64
4, 6816, Note_on_c, 1, 69, 70
4, 6816, Note_on_c, 1, 66, 70
4, 6816, Note_on_c, 1, 62, 70
4, 6829, Note_off_c, 1, 62, 64
4, 6831, Note_off_c, 1, 69, 64
4, 6831, Note_off_c, 1, 66, 64
4, 6912, Note_on_c, 1, 71, 70
4, 6912, Note_on_c, 1, 67, 70
4, 6912, Note_on_c, 1, 62, 70
4, 6927, Note_off_c, 1, 71, 64
4, 6927, Note_off_c, 1, 67, 64
4, 6927, Note_off_c, 1, 62, 64
4, 7008, Note_on_c, 1, 71, 70
4, 7008, Note_on_c, 1, 67, 70
4, 7008, Note_on_c, 1, 62, 70
4, 7023, Note_off_c, 1, 71, 64
4, 7023, Note_off_c, 1, 62, 64
4, 7024, Note_off_c, 1, 67, 64
4, 7104, Note_on_c, 1, 71, 70
4, 7104, Note_on_c, 1, 67, 70
4, 7104, Note_on_c, 1, 62, 70
4, 7117, Note_off_c, 1, 71, 64
4, 7117, Note_off_c, 1, 67, 64
4, 7119, Note_off_c, 1, 62, 64
4, 7200, Note_on_c, 1, 71, 70
4, 7200, Note_on_c, 1, 67, 70
4, 7200, Note_on_c, 1, 62, 70
4, 7215, Note_off_c, 1, 71, 64
4, 7215, Note_off_c, 1, 67, 64
4, 7217, Note_off_c, 1, 62, 64
4, 7296, Note_on_c, 1, 71, 70
4, 7296, Note_on_c, 1, 67, 70
4, 7296, Note_on_c, 1, 62, 70
4, 7309, Note_off_c, 1, 67, 64
4, 7310, Note_off_c, 1, 62, 64
4, 7312, Note_off_c, 1, 71, 64
4, 7392, Note_on_c, 1, 71, 70
4, 7392, Note_on_c, 1, 67, 70
4, 7392, Note_on_c, 1, 62, 70
4, 7406, Note_off_c, 1, 71, 64
4, 7406, Note_off_c, 1, 67, 64
4, 7406, Note_off_c, 1, 62, 64
4, 7488, Note_on_c, 1, 71, 70
4, 7488, Note_on_c, 1, 62, 70
4, 7488, Note_on_c, 1, 67, 70
4, 7498, Note_off_c, 1, 67, 64
4, 7500, Note_off_c, 1, 71, 64
4, 7500, Note_off_c, 1, 62, 64
4, 7584, Note_on_c, 1, 71, 70
4, 7584, Note_on_c, 1, 67, 70
4, 7584, Note_on_c, 1, 62, 70
4, 7596, Note_off_c, 1, 67, 64
4, 7597, Note_off_c, 1, 71, 64
4, 7600, Note_off_c, 1, 62, 64
4, 7680, Note_on_c, 1, 71, 70
4, 7680, Note_on_c, 1, 62, 70
4, 7680, Note_on_c, 1, 67, 70
4, 7693, Note_off_c, 1, 67, 64
4, 7695, Note_off_c, 1, 71, 64
4, 7697, Note_off_c, 1, 62, 64
4, 7776, Note_on_c, 1, 71, 70
4, 7776, Note_on_c, 1, 67, 70
4, 7776, Note_on_c, 1, 62, 70
4, 7790, Note_off_c, 1, 71, 64
4, 7791, Note_off_c, 1, 67, 64
4, 7792, Note_off_c, 1, 62, 64
4, 7872, Note_on_c, 1, 71, 70
4, 7872, Note_on_c, 1, 67, 70
4, 7872, Note_on_c, 1, 62, 70
4, 7887, Note_off_c, 1, 67, 64
4, 7888, Note_off_c, 1, 71, 64
4, 7890, Note_off_c, 1, 62, 64
4, 7968, Note_on_c, 1, 71, 70
4, 7968, Note_on_c, 1, 67, 70
4, 7968, Note_on_c, 1, 62, 70
4, 7982, Note_off_c, 1, 71, 64
4, 7982, Note_off_c, 1, 62, 64
4, 7983, Note_off_c, 1, 67, 64
4, 8064, Note_on_c, 1, 71, 70
4, 8064, Note_on_c, 1, 67, 70
4, 8064, Note_on_c, 1, 62, 70
4, 8078, Note_off_c, 1, 62, 64
4, 8079, Note_off_c, 1, 71, 64
4, 8080, Note_off_c, 1, 67, 64
4, 8160, Note_on_c, 1, 71, 70
4, 8160, Note_on_c, 1, 67, 70
4, 8160, Note_on_c, 1, 62, 70
4, 8174, Note_off_c, 1, 62, 64
4, 8175, Note_off_c, 1, 71, 64
4, 8175, Note_off_c, 1, 67, 64
4, 8256, Note_on_c, 1, 71, 70
4, 8256, Note_on_c, 1, 67, 70
4, 8256, Note_on_c, 1, 62, 70
4, 8272, Note_off_c, 1, 71, 64
4, 8272, Note_off_c, 1, 67, 64
4, 8273, Note_off_c, 1, 62, 64
4, 8352, Note_on_c, 1, 71, 70
4, 8352, Note_on_c, 1, 67, 70
4, 8352, Note_on_c, 1, 62, 70
4, 8366, Note_off_c, 1, 71, 64
4, 8366, Note_off_c, 1, 67, 64
4, 8369, Note_off_c, 1, 62, 64
4, 8448, Note_on_c, 1, 71, 70
4, 8448, Note_on_c, 1, 67, 70
4, 8448, Note_on_c, 1, 64, 70
4, 8462, Note_off_c, 1, 67, 64
4, 8463, Note_off_c, 1, 71, 64
4, 8464, Note_off_c, 1, 64, 64
4, 8544, Note_on_c, 1, 71, 70
4, 8544, Note_on_c, 1, 67, 70
4, 8544, Note_on_c, 1, 64, 70
4, 8557, Note_off_c, 1, 67, 64
4, 8559, Note_off_c, 1, 71, 64
4, 8559, Note_off_c, 1, 64, 64
4, 8640, Note_on_c, 1, 71, 70
4, 8640, Note_on_c, 1, 67, 70
4, 8640, Note_on_c, 1, 64, 70
4, 8653, Note_off_c, 1, 64, 64
4, 8654, Note_off_c, 1, 67, 64
4, 8656, Note_off_c, 1, 71, 64
4, 8736, Note_on_c, 1, 71, 70
4, 8736, Note_on_c, 1, 67, 70
4, 8736, Note_on_c, 1, 64, 70
4, 8748, Note_off_c, 1, 67, 64
4, 8748, Note_off_c, 1, 64, 64
4, 8750, Note_off_c, 1, 71, 64
4, 8832, Note_on_c, 1, 71, 70
4, 8832, Note_on_c, 1, 67, 70
4, 8832, Note_on_c, 1, 64, 70
4, 8843, Note_off_c, 1, 64, 64
4, 8846, Note_off_c, 1, 67, 64
4, 8847, Note_off_c, 1, 71, 64
4, 8928, Note_on_c, 1, 71, 70
4, 8928, Note_on_c, 1, 67, 70
4, 8928, Note_on_c, 1, 64, 70
4, 8941, Note_off_c, 1, 71, 64
4, 8941, Note_off_c, 1, 67, 64
4, 8944, Note_off_c, 1, 64, 64
4, 9024, Note_on_c, 1, 71, 70
4, 9024, Note_on_c, 1, 64, 70
4, 9024, Note_on_c, 1, 67, 70
4, 9037, Note_off_c, 1, 67, 64
4, 9038, Note_off_c, 1, 71, 64
4, 9040, Note_off_c, 1, 64, 64
4, 9120, Note_on_c, 1, 71, 70
4, 9120, Note_on_c, 1, 64, 70
4, 9120, Note_on_c, 1, 67, 70
4, 9133, Note_off_c, 1, 67, 64
4, 9134, Note_off_c, 1, 71, 64
4, 9137, Note_off_c, 1, 64, 64
4, 9216, Note_on_c, 1, 71, 70
4, 9216, Note_on_c, 1, 64, 70
4, 9216, Note_on_c, 1, 67, 70
4, 9229, Note_off_c, 1, 67, 64
4, 9231, Note_off_c, 1, 71, 64
4, 9232, Note_off_c, 1, 64, 64
4, 9312, Note_on_c, 1, 71, 70
4, 9312, Note_on_c, 1, 64, 70
4, 9312, Note_on_c, 1, 67, 70
4, 9325, Note_off_c, 1, 67, 64
4, 9326, Note_off_c, 1, 71, 64
4, 9327, Note_off_c, 1, 64, 64
4, 9408, Note_on_c, 1, 71, 70
4, 9408, Note_on_c, 1, 64, 70
4, 9408, Note_on_c, 1, 67, 70
4, 9420, Note_off_c, 1, 67, 64
4, 9423, Note_off_c, 1, 71, 64
4, 9424, Note_off_c, 1, 64, 64
4, 9504, Note_on_c, 1, 71, 70
4, 9504, Note_on_c, 1, 67, 70
4, 9504, Note_on_c, 1, 64, 70
4, 9516, Note_off_c, 1, 67, 64
4, 9518, Note_off_c, 1, 64, 64
4, 9519, Note_off_c, 1, 71, 64
4, 9600, Note_on_c, 1, 71, 70
4, 9600, Note_on_c, 1, 67, 70
4, 9600, Note_on_c, 1, 64, 70
4, 9615, Note_off_c, 1, 71, 64
4, 9615, Note_off_c, 1, 67, 64
4, 9616, Note_off_c, 1, 64, 64
4, 9696, Note_on_c, 1, 71, 70
4, 9696, Note_on_c, 1, 67, 70
4, 9696, Note_on_c, 1, 64, 70
4, 9709, Note_off_c, 1, 67, 64
4, 9711, Note_off_c, 1, 71, 64
4, 9712, Note_off_c, 1, 64, 64
4, 9792, Note_on_c, 1, 71, 70
4, 9792, Note_on_c, 1, 67, 70
4, 9792, Note_on_c, 1, 64, 70
4, 9802, Note_off_c, 1, 64, 64
4, 9803, Note_off_c, 1, 67, 64
4, 9806, Note_off_c, 1, 71, 64
4, 9888, Note_on_c, 1, 71, 70
4, 9888, Note_on_c, 1, 67, 70
4, 9888, Note_on_c, 1, 64, 70
4, 9897, Note_off_c, 1, 64, 64
4, 9901, Note_off_c, 1, 67, 64
4, 9902, Note_off_c, 1, 71, 64
4, 9984, Note_on_c, 1, 72, 70
4, 9984, Note_on_c, 1, 67, 70
4, 9984, Note_on_c, 1, 64, 70
4, 10000, Note_off_c, 1, 64, 64
4, 10001, Note_off_c, 1, 72, 64
4, 10001, Note_off_c, 1, 67, 64
4, 10080, Note_on_c, 1, 72, 70
4, 10080, Note_on_c, 1, 64, 70
4, 10080, Note_on_c, 1, 67, 70
4, 10095, Note_off_c, 1, 72, 64
4, 10096, Note_off_c, 1, 67, 64
4, 10097, Note_off_c, 1, 64, 64
4, 10176, Note_on_c, 1, 72, 70
4, 10176, Note_on_c, 1, 67, 70
4, 10176, Note_on_c, 1, 64, 70
4, 10189, Note_off_c, 1, 64, 64
4, 10191, Note_off_c, 1, 72, 64
4, 10191, Note_off_c, 1, 67, 64
4, 10272, Note_on_c, 1, 72, 70
4, 10272, Note_on_c, 1, 67, 70
4, 10272, Note_on_c, 1, 64, 70
4, 10286, Note_off_c, 1, 64, 64
4, 10287, Note_off_c, 1, 67, 64
4, 10288, Note_off_c, 1, 72, 64
4, 10368, Note_on_c, 1, 72, 70
4, 10368, Note_on_c, 1, 64, 70
4, 10368, Note_on_c, 1, 67, 70
4, 10381, Note_off_c, 1, 67, 64
4, 10383, Note_off_c, 1, 72, 64
4, 10383, Note_off_c, 1, 64, 64
4, 10464, Note_on_c, 1, 72, 70
4, 10464, Note_on_c, 1, 64, 70
4, 10464, Note_on_c, 1, 67, 70
4, 10479, Note_off_c, 1, 72, 64
4, 10479, Note_off_c, 1, 67, 64
4, 10480, Note_off_c, 1, 64, 64
4, 10560, Note_on_c, 1, 72, 70
4, 10560, Note_on_c, 1, 64, 70
4, 10560, Note_on_c, 1, 67, 70
4, 10573, Note_off_c, 1, 67, 64
4, 10574, Note_off_c, 1, 72, 64
4, 10575, Note_off_c, 1, 64, 64
4, 10656, Note_on_c, 1, 72, 70
4, 10656, Note_on_c, 1, 67, 70
4, 10656, Note_on_c, 1, 64, 70
4, 10670, Note_off_c, 1, 72, 64
4, 10672, Note_off_c, 1, 67, 64
4, 10675, Note_off_c, 1, 64, 64
4, 10752, Note_on_c, 1, 67, 70
4, 10752, Note_on_c, 1, 62, 70
4, 10752, Note_on_c, 1, 71, 70
4, 10768, Note_off_c, 1, 67, 64
4, 10768, Note_off_c, 1, 71, 64
4, 10769, Note_off_c, 1, 62, 64
4, 10848, Note_on_c, 1, 67, 70
4, 10848, Note_on_c, 1, 71, 70
4, 10848, Note_on_c, 1, 62, 70
4, 10862, Note_off_c, 1, 67, 64
4, 10863, Note_off_c, 1, 62, 64
4, 10865, Note_off_c, 1, 71, 64
4, 10944, Note_on_c, 1, 67, 70
4, 10944, Note_on_c, 1, 71, 70
4, 10944, Note_on_c, 1, 62, 70
4, 10957, Note_off_c, 1, 62, 64
4, 10958, Note_off_c, 1, 67, 64
4, 10960, Note_off_c, 1, 71, 64
4, 11040, Note_on_c, 1, 71, 70
4, 11040, Note_on_c, 1, 67, 70
4, 11040, Note_on_c, 1, 62, 70
4, 11053, Note_off_c, 1, 67, 64
4, 11053, Note_off_c, 1, 62, 64
4, 11055, Note_off_c, 1, 71, 64
4, 11136, Note_on_c, 1, 71, 70
4, 11136, Note_on_c, 1, 67, 70
4, 11136, Note_on_c, 1, 62, 70
4, 11149, Note_off_c, 1, 62, 64
4, 11151, Note_off_c, 1, 67, 64
4, 11154, Note_off_c, 1, 71, 64
4, 11232, Note_on_c, 1, 71, 70
4, 11232, Note_on_c, 1, 67, 70
4, 11232, Note_on_c, 1, 62, 70
4, 11244, Note_off_c, 1, 62, 64
4, 11245, Note_off_c, 1, 67, 64
4, 11247, Note_off_c, 1, 71, 64
4, 11328, Note_on_c, 1, 67, 70
4, 11328, Note_on_c, 1, 71, 70
4, 11328, Note_on_c, 1, 62, 70
4, 11339, Note_off_c, 1, 62, 64
4, 11342, Note_off_c, 1, 67, 64
4, 11343, Note_off_c, 1, 71, 64
4, 11424, Note_on_c, 1, 67, 70
4, 11424, Note_on_c, 1, 71, 70
4, 11424, Note_on_c, 1, 62, 70
4, 11438, Note_off_c, 1, 71, 64
4, 11439, Note_off_c, 1, 62, 64
4, 11440, Note_off_c, 1, 67, 64
4, 11520, Note_on_c, 1, 66, 70
4, 11520, Note_on_c, 1, 69, 70
4, 11520, Note_on_c, 1, 62, 70
4, 11534, Note_off_c, 1, 66, 64
4, 11535, Note_off_c, 1, 69, 64
4, 11536, Note_off_c, 1, 62, 64
4, 11616, Note_on_c, 1, 69, 70
4, 11616, Note_on_c, 1, 66, 70
4, 11616, Note_on_c, 1, 62, 70
4, 11630, Note_off_c, 1, 66, 64
4, 11630, Note_off_c, 1, 62, 64
4, 11633, Note_off_c, 1, 69, 64
4, 11712, Note_on_c, 1, 66, 70
4, 11712, Note_on_c, 1, 69, 70
4, 11712, Note_on_c, 1, 62, 70
4, 11726, Note_off_c, 1, 66, 64
4, 11728, Note_off_c, 1, 69, 64
4, 11728, Note_off_c, 1, 62, 64
4, 11808, Note_on_c, 1, 66, 70
4, 11808, Note_on_c, 1, 69, 70
4, 11808, Note_on_c, 1, 62, 70
4, 11819, Note_off_c, 1, 62, 64
4, 11823, Note_off_c, 1, 69, 64
4, 11824, Note_off_c, 1, 66, 64
4, 11904, Note_on_c, 1, 69, 70
4, 11904, Note_on_c, 1, 66, 70
4, 11904, Note_on_c, 1, 62, 70
4, 11920, Note_off_c, 1, 66, 64
4, 11920, Note_off_c, 1, 62, 64
4, 11922, Note_off_c, 1, 69, 64
4, 12000, Note_on_c, 1, 69, 70
4, 12000, Note_on_c, 1, 66, 70
4, 12000, Note_on_c, 1, 62, 70
4, 12013, Note_off_c, 1, 66, 64
4, 12014, Note_off_c, 1, 62, 64
4, 12015, Note_off_c, 1, 69, 64
4, 12096, Note_on_c, 1, 69, 70
4, 12096, Note_on_c, 1, 66, 70
4, 12096, Note_on_c, 1, 62, 70
4, 12108, Note_off_c, 1, 66, 64
4, 12110, Note_off_c, 1, 62, 64
4, 12111, Note_off_c, 1, 69, 64
4, 12192, Note_on_c, 1, 69, 70
4, 12192, Note_on_c, 1, 66, 70
4, 12192, Note_on_c, 1, 62, 70
4, 12203, Note_off_c, 1, 62, 64
4, 12204, Note_off_c, 1, 66, 64
4, 12206, Note_off_c, 1, 69, 64
4, 12288, Note_on_c, 1, 69, 70
4, 12288, Note_on_c, 1, 66, 70
4, 12288, Note_on_c, 1, 62, 70
4, 12301, Note_off_c, 1, 66, 64
4, 12303, Note_off_c, 1, 69, 64
4, 12303, Note_off_c, 1, 62, 64
4, 12384, Note_on_c, 1, 69, 70
4, 12384, Note_on_c, 1, 66, 70
4, 12384, Note_on_c, 1, 62, 70
4, 12397, Note_off_c, 1, 66, 64
4, 12399, Note_off_c, 1, 69, 64
4, 12399, Note_off_c, 1, 62, 64
4, 12480, Note_on_c, 1, 66, 70
4, 12480, Note_on_c, 1, 69, 70
4, 12480, Note_on_c, 1, 62, 70
4, 12494, Note_off_c, 1, 66, 64
4, 12494, Note_off_c, 1, 69, 64
4, 12496, Note_off_c, 1, 62, 64
4, 12576, Note_on_c, 1, 69, 70
4, 12576, Note_on_c, 1, 66, 70
4, 12576, Note_on_c, 1, 62, 70
4, 12588, Note_off_c, 1, 66, 64
4, 12590, Note_off_c, 1, 62, 64
4, 12592, Note_off_c, 1, 69, 64
4, 12672, Note_on_c, 1, 69, 70
4, 12672, Note_on_c, 1, 66, 70
4, 12672, Note_on_c, 1, 62, 70
4, 12685, Note_off_c, 1, 66, 64
4, 12686, Note_off_c, 1, 62, 64
4, 12688, Note_off_c, 1, 69, 64
4, 12768, Note_on_c, 1, 69, 70
4, 12768, Note_on_c, 1, 66, 70
4, 12768, Note_on_c, 1, 62, 70
4, 12780, Note_off_c, 1, 66, 64
4, 12783, Note_off_c, 1, 69, 64
4, 12783, Note_off_c, 1, 62, 64
4, 12864, Note_on_c, 1, 69, 70
4, 12864, Note_on_c, 1, 66, 70
4, 12864, Note_on_c, 1, 62, 70
4, 12875, Note_off_c, 1, 66, 64
4, 12878, Note_off_c, 1, 69, 64
4, 12879, Note_off_c, 1, 62, 64
4, 12960, Note_on_c, 1, 69, 70
4, 12960, Note_on_c, 1, 66, 70
4, 12960, Note_on_c, 1, 62, 70
4, 12974, Note_off_c, 1, 66, 64
4, 12974, Note_off_c, 1, 62, 64
4, 12976, Note_off_c, 1, 69, 64
4, 13056, Note_on_c, 1, 67, 89
4, 13056, Note_on_c, 1, 71, 89
4, 13056, Note_on_c, 1, 74, 66
4, 14581, Note_off_c, 1, 67, 64
4, 14593, Note_on_c, 1, 76, 74
4, 14596, Note_off_c, 1, 74, 64
4, 14597, Note_off_c, 1, 71, 64
4, 14598, Note_on_c, 1, 72, 72
4, 14600, Note_on_c, 1, 67, 89
4, 16119, Note_off_c, 1, 72, 64
4, 16119, Note_off_c, 1, 76, 64
4, 16127, Note_off_c, 1, 67, 64
4, 16133, Note_on_c, 1, 69, 79
4, 16134, Note_on_c, 1, 72, 79
4, 16135, Note_on_c, 1, 76, 79
4, 17652, Note_off_c, 1, 69, 64
4, 17658, Note_off_c, 1, 72, 64
4, 17664, Note_on_c, 1, 74, 58
4, 17665, Note_on_c, 1, 69, 74
4, 17665, Note_on_c, 1, 66, 64
4, 17671, Note_off_c, 1, 76, 64
4, 19200, Note_off_c, 1, 66, 65
4, 19200, Note_off_c, 1, 69, 65
4, 19200, Note_off_c, 1, 74, 65
4, 19205, Note_on_c, 1, 71, 66
4, 19208, Note_on_c, 1, 79, 66
4, 19208, Note_on_c, 1, 74, 64
4, 20717, Note_off_c, 1, 79, 64
4, 20720, Note_off_c, 1, 71, 64
4, 20736, Note_on_c, 1, 79, 58
4, 20736, Note_on_c, 1, 71, 72
4, 20736, Note_on_c, 1, 76, 72
4, 20742, Note_off_c, 1, 74, 64
4, 22245, Note_off_c, 1, 76, 64
4, 22261, Note_on_c, 1, 76, 61
4, 22262, Note_on_c, 1, 67, 69
4, 22264, Note_off_c, 1, 71, 64
4, 22264, Note_on_c, 1, 72, 72
4, 22278, Note_off_c, 1, 79, 64
4, 23011, Note_off_c, 1, 72, 64
4, 23034, Note_off_c, 1, 67, 64
4, 23035, Note_on_c, 1, 71, 64
4, 23036, Note_on_c, 1, 79, 66
4, 23038, Note_on_c, 1, 74, 64
4, 23049, Note_off_c, 1, 76, 64
4, 23779, Note_off_c, 1, 74, 64
4, 23806, Note_off_c, 1, 71, 64
4, 23806, Note_on_c, 1, 78, 64
4, 23807, Note_on_c, 1, 69, 58
4, 23808, Note_on_c, 1, 74, 69
4, 23816, Note_off_c, 1, 79, 64
4, 25344, Note_off_c, 1, 74, 64
4, 25344, Note_off_c, 1, 69, 64
4, 25344, Note_off_c, 1, 78, 64
4, 25344, Note_on_c, 1, 43, 108
4, 25344, Note_on_c, 1, 59, 93
4, 25344, Note_on_c, 1, 67, 102
4, 25344, Note_on_c, 1, 62, 93
4, 26854, Note_off_c, 1, 59, 64
4, 26855, Note_off_c, 1, 67, 64
4, 26881, Note_off_c, 1, 43, 64
4, 26881, Note_on_c, 1, 48, 84
4, 26881, Note_on_c, 1, 64, 64
4, 26881, Note_on_c, 1, 67, 77
4, 26883, Note_on_c, 1, 60, 74
4, 26890, Note_off_c, 1, 62, 64
4, 28386, Note_off_c, 1, 64, 64
4, 28394, Note_off_c, 1, 60, 64
4, 28412, Note_on_c, 1, 69, 72
4, 28413, Note_off_c, 1, 67, 64
4, 28413, Note_on_c, 1, 45, 74
4, 28414, Note_on_c, 1, 64, 74
4, 28414, Note_on_c, 1, 60, 84
4, 28415, Note_off_c, 1, 48, 64
4, 29924, Note_off_c, 1, 69, 64
4, 29949, Note_off_c, 1, 60, 64
4, 29950, Note_off_c, 1, 45, 64
4, 29951, Note_on_c, 1, 50, 102
4, 29951, Note_on_c, 1, 66, 96
4, 29953, Note_on_c, 1, 69, 74
4, 29954, Note_on_c, 1, 62, 79
4, 29959, Note_off_c, 1, 64, 64
4, 31464, Note_off_c, 1, 62, 64
4, 31472, Note_off_c, 1, 66, 64
4, 31481, Note_off_c, 1, 69, 64
4, 31484, Note_off_c, 1, 50, 64
4, 31484, Note_on_c, 1, 67, 84
4, 31484, Note_on_c, 1, 62, 84
4, 31485, Note_on_c, 1, 59, 69
4, 31485, Note_on_c, 1, 43, 69
4, 32999, Note_off_c, 1, 59, 64
4, 33002, Note_off_c, 1, 67, 64
4, 33024, Note_on_c, 1, 48, 66
4, 33025, Note_on_c, 1, 64, 55
4, 33026, Note_on_c, 1, 67, 66
4, 33029, Note_off_c, 1, 43, 64
4, 33029, Note_on_c, 1, 60, 64
4, 33036, Note_off_c, 1, 62, 64
4, 34540, Note_off_c, 1, 67, 64
4, 34543, Note_off_c, 1, 60, 64
4, 34544, Note_off_c, 1, 64, 64
4, 34560, Note_on_c, 1, 64, 66
4, 34561, Note_on_c, 1, 45, 77
4, 34561, Note_on_c, 1, 60, 58
4, 34561, Note_on_c, 1, 69, 89
4, 34565, Note_off_c, 1, 48, 64
4, 35300, Note_off_c, 1, 69, 64
4, 35324, Note_off_c, 1, 60, 64
4, 35325, Note_off_c, 1, 45, 64
4, 35325, Note_on_c, 1, 66, 84
4, 35325, Note_on_c, 1, 69, 72
4, 35325, Note_on_c, 1, 50, 72
4, 35325, Note_on_c, 1, 62, 84
4, 35330, Note_off_c, 1, 64, 64
4, 35683, Note_off_c, 1, 66, 64
4, 35706, Note_on_c, 1, 67, 72
4, 35707, Note_off_c, 1, 62, 64
4, 35707, Note_on_c, 1, 64, 51
4, 35708, Note_on_c, 1, 60, 58
4, 35709, Note_on_c, 1, 48, 79
4, 35713, Note_off_c, 1, 69, 64
4, 35720, Note_off_c, 1, 50, 64
4, 36072, Note_off_c, 1, 67, 64
4, 36076, Note_off_c, 1, 60, 64
4, 36097, Note_on_c, 1, 67, 72
4, 36097, Note_on_c, 1, 62, 79
4, 36098, Note_on_c, 1, 43, 72
4, 36099, Note_on_c, 1, 59, 55
4, 36101, Note_off_c, 1, 48, 64
4, 36108, Note_off_c, 1, 64, 64
4, 37632, Note_off_c, 1, 59, 64
4, 37632, Note_off_c, 1, 43, 64
4, 37632, Note_off_c, 1, 62, 64
4, 37632, Note_off_c, 1, 67, 64
4, 37632, Note_on_c, 1, 64, 102
4, 37632, Note_on_c, 1, 60, 110
4, 37632, Note_on_c, 1, 55, 110
4, 37996, Note_off_c, 1, 55, 64
4, 38015, Note_off_c, 1, 60, 64
4, 38016, Note_on_c, 1, 66, 110
4, 38016, Note_on_c, 1, 62, 74
4, 38016, Note_on_c, 1, 57, 79
4, 38018, Note_off_c, 1, 64, 64
4, 38381, Note_off_c, 1, 62, 64
4, 38398, Note_off_c, 1, 57, 64
4, 38400, Note_on_c, 1, 67, 84
4, 38400, Note_on_c, 1, 59, 84
4, 38400, Note_on_c, 1, 62, 84
4, 38406, Note_off_c, 1, 66, 64
4, 39147, Note_off_c, 1, 62, 64
4, 39167, Note_off_c, 1, 59, 64
4, 39168, Note_on_c, 1, 64, 58
4, 39168, Note_on_c, 1, 60, 84
4, 39168, Note_on_c, 1, 55, 72
4, 39180, Note_off_c, 1, 67, 64
4, 39532, Note_off_c, 1, 55, 64
4, 39552, Note_on_c, 1, 66, 91
4, 39552, Note_on_c, 1, 62, 58
4, 39552, Note_on_c, 1, 57, 79
4, 39562, Note_off_c, 1, 64, 64
4, 39564, Note_off_c, 1, 60, 64
4, 39936, Note_on_c, 1, 67, 79
4, 39936, Note_on_c, 1, 64, 77
4, 39936, Note_on_c, 1, 59, 84
4, 39941, Note_off_c, 1, 62, 64
4, 39946, Note_off_c, 1, 57, 64
4, 39948, Note_off_c, 1, 66, 64
4, 40512, Note_on_c, 1, 66, 110
4, 40512, Note_on_c, 1, 62, 64
4, 40512, Note_on_c, 1, 57, 74
4, 40519, Note_off_c, 1, 64, 64
4, 40521, Note_off_c, 1, 59, 64
4, 40525, Note_off_c, 1, 67, 64
4, 40702, Note_off_c, 1, 62, 64
4, 40704, Note_on_c, 1, 64, 102
4, 40704, Note_on_c, 1, 60, 110
4, 40704, Note_on_c, 1, 55, 110
4, 40705, Note_off_c, 1, 57, 64
4, 40710, Note_off_c, 1, 66, 64
4, 41068, Note_off_c, 1, 55, 64
4, 41087, Note_off_c, 1, 60, 64
4, 41088, Note_on_c, 1, 66, 110
4, 41088, Note_on_c, 1, 62, 74
4, 41088, Note_on_c, 1, 57, 79
4, 41090, Note_off_c, 1, 64, 64
4, 41453, Note_off_c, 1, 62, 64
4, 41470, Note_off_c, 1, 57, 64
4, 41472, Note_on_c, 1, 67, 84
4, 41472, Note_on_c, 1, 59, 84
4, 41472, Note_on_c, 1, 62, 84
4, 41478, Note_off_c, 1, 66, 64
4, 42219, Note_off_c, 1, 62, 64
4, 42239, Note_off_c, 1, 59, 64
4, 42240, Note_off_c, 1, 67, 64
4, 42240, Note_on_c, 1, 60, 96
4, 42240, Note_on_c, 1, 64, 110
4, 42240, Note_on_c, 1, 67, 110
4, 42997, Note_off_c, 1, 64, 64
4, 43000, Note_off_c, 1, 60, 64
4, 43008, Note_on_c, 1, 62, 102
4, 43008, Note_on_c, 1, 69, 77
4, 43008, Note_on_c, 1, 66, 110
4, 43014, Note_off_c, 1, 67, 64
4, 43040, Note_off_c, 1, 66, 64
4, 43044, Note_off_c, 1, 69, 64
4, 43045, Note_off_c, 1, 62, 64
4, 43056, Note_on_c, 1, 69, 72
4, 43056, Note_on_c, 1, 66, 105
4, 43056, Note_on_c, 1, 62, 93
4, 43097, Note_off_c, 1, 62, 64
4, 43098, Note_off_c, 1, 66, 64
4, 43101, Note_off_c, 1, 69, 64
4, 43296, Note_on_c, 1, 67, 110
4, 43296, Note_on_c, 1, 60, 84
4, 43296, Note_on_c, 1, 64, 102
4, 43326, Note_off_c, 1, 64, 64
4, 43329, Note_off_c, 1, 67, 64
4, 43329, Note_off_c, 1, 60, 64
4, 43344, Note_on_c, 1, 60, 84
4, 43344, Note_on_c, 1, 67, 84
4, 43344, Note_on_c, 1, 64, 66
4, 43377, Note_off_c, 1, 67, 64
4, 43380, Note_off_c, 1, 60, 64
4, 43380, Note_off_c, 1, 64, 64
4, 43392, Note_on_c, 1, 62, 93
4, 43392, Note_on_c, 1, 69, 93
4, 43392, Note_on_c, 1, 66, 89
4, 43420, Note_off_c, 1, 66, 64
4, 43422, Note_off_c, 1, 62, 64
4, 43424, Note_off_c, 1, 69, 64
4, 43440, Note_on_c, 1, 69, 77
4, 43440, Note_on_c, 1, 62, 89
4, 43440, Note_on_c, 1, 66, 84
4, 43473, Note_off_c, 1, 66, 64
4, 43474, Note_off_c, 1, 62, 64
4, 43477, Note_off_c, 1, 69, 64
4, 43776, Note_on_c, 1, 66, 110
4, 43776, Note_on_c, 1, 69, 96
4, 43776, Note_on_c, 1, 62, 110
4, 43810, Note_off_c, 1, 66, 64
4, 43811, Note_off_c, 1, 69, 64
4, 43814, Note_off_c, 1, 62, 64
4, 43824, Note_on_c, 1, 69, 89
4, 43824, Note_on_c, 1, 66, 105
4, 43824, Note_on_c, 1, 62, 66
4, 43863, Note_off_c, 1, 69, 64
4, 43863, Note_off_c, 1, 62, 64
4, 43864, Note_off_c, 1, 66, 64
4, 44064, Note_on_c, 1, 60, 110
4, 44064, Note_on_c, 1, 67, 110
4, 44064, Note_on_c, 1, 64, 72
4, 44092, Note_off_c, 1, 64, 64
4, 44093, Note_off_c, 1, 67, 64
4, 44098, Note_off_c, 1, 60, 64
4, 44112, Note_on_c, 1, 60, 66
4, 44112, Note_on_c, 1, 67, 93
4, 44112, Note_on_c, 1, 64, 74
4, 44146, Note_off_c, 1, 67, 64
4, 44147, Note_off_c, 1, 60, 64
4, 44147, Note_off_c, 1, 64, 64
4, 44160, Note_on_c, 1, 69, 99
4, 44160, Note_on_c, 1, 66, 110
4, 44160, Note_on_c, 1, 62, 108
4, 44190, Note_off_c, 1, 66, 64
4, 44192, Note_off_c, 1, 69, 64
4, 44192, Note_off_c, 1, 62, 64
4, 44208, Note_on_c, 1, 62, 102
4, 44208, Note_on_c, 1, 69, 86
4, 44208, Note_on_c, 1, 66, 108
4, 44246, Note_off_c, 1, 62, 64
4, 44246, Note_off_c, 1, 69, 64
4, 44246, Note_off_c, 1, 66, 64
4, 44544, Note_on_c, 1, 43, 108
4, 44544, Note_on_c, 1, 59, 93
4, 44544, Note_on_c, 1, 67, 102
4, 44544, Note_on_c, 1, 62, 93
4, 46054, Note_off_c, 1, 59, 64
4, 46055, Note_off_c, 1, 67, 64
4, 46081, Note_off_c, 1, 43, 64
4, 46081, Note_on_c, 1, 48, 84
4, 46081, Note_on_c, 1, 64, 64
4, 46081, Note_on_c, 1, 67, 77
4, 46083, Note_on_c, 1, 60, 74
4, 46090, Note_off_c, 1, 62, 64
4, 47586, Note_off_c, 1, 64, 64
4, 47594, Note_off_c, 1, 60, 64
4, 47612, Note_on_c, 1, 69, 72
4, 47613, Note_off_c, 1, 67, 64
4, 47613, Note_on_c, 1, 45, 74
4, 47614, Note_on_c, 1, 64, 74
4, 47614, Note_on_c, 1, 60, 84
4, 47615, Note_off_c, 1, 48, 64
4, 49124, Note_off_c, 1, 69, 64
4, 49149, Note_off_c, 1, 60, 64
4, 49150, Note_off_c, 1, 45, 64
4, 49151, Note_on_c, 1, 50, 102
4, 49151, Note_on_c, 1, 66, 96
4, 49153, Note_on_c, 1, 69, 74
4, 49154, Note_on_c, 1, 62, 79
4, 49159, Note_off_c, 1, 64, 64
4, 50664, Note_off_c, 1, 62, 64
4, 50672, Note_off_c, 1, 66, 64
4, 50681, Note_off_c, 1, 69, 64
4, 50684, Note_off_c, 1, 50, 64
4, 50684, Note_on_c, 1, 67, 84
4, 50684, Note_on_c, 1, 62, 84
4, 50685, Note_on_c, 1, 59, 69
4, 50685, Note_on_c, 1, 43, 69
4, 52199, Note_off_c, 1, 59, 64
4, 52202, Note_off_c, 1, 67, 64
4, 52224, Note_on_c, 1, 48, 66
4, 52225, Note_on_c, 1, 64, 55
4, 52226, Note_on_c, 1, 67, 66
4, 52229, Note_off_c, 1, 43, 64
4, 52229, Note_on_c, 1, 60, 64
4, 52236, Note_off_c, 1, 62, 64
4, 53740, Note_off_c, 1, 67, 64
4, 53743, Note_off_c, 1, 60, 64
4, 53744, Note_off_c, 1, 64, 64
4, 53760, Note_on_c, 1, 64, 66
4, 53761, Note_on_c, 1, 45, 77
4, 53761, Note_on_c, 1, 60, 58
4, 53761, Note_on_c, 1, 69, 89
4, 53765, Note_off_c, 1, 48, 64
4, 54500, Note_off_c, 1, 69, 64
4, 54524, Note_off_c, 1, 60, 64
4, 54525, Note_off_c, 1, 45, 64
4, 54525, Note_on_c, 1, 66, 84
4, 54525, Note_on_c, 1, 69, 72
4, 54525, Note_on_c, 1, 50, 72
4, 54525, Note_on_c, 1, 62, 84
4, 54530, Note_off_c, 1, 64, 64
4, 54883, Note_off_c, 1, 66, 64
4, 54906, Note_on_c, 1, 67, 72
4, 54907, Note_off_c, 1, 62, 64
4, 54907, Note_on_c, 1, 64, 51
4, 54908, Note_on_c, 1, 60, 58
4, 54909, Note_on_c, 1, 48, 79
4, 54913, Note_off_c, 1, 69, 64
4, 54920, Note_off_c, 1, 50, 64
4, 55272, Note_off_c, 1, 67, 64
4, 55276, Note_off_c, 1, 60, 64
4, 55296, Note_off_c, 1, 64, 64
4, 55296, Note_off_c, 1, 48, 64
4, 55296, Note_on_c, 1, 55, 110
4, 55391, Note_on_c, 1, 57, 110
4, 55402, Note_off_c, 1, 55, 64
4, 55583, Note_on_c, 1, 59, 89
4, 55590, Note_off_c, 1, 57, 64
4, 56063, Note_on_c, 1, 67, 96
4, 56089, Note_off_c, 1, 59, 64
4, 56159, Note_on_c, 1, 69, 84
4, 56175, Note_off_c, 1, 67, 64
4, 56351, Note_on_c, 1, 71, 79
4, 56367, Note_off_c, 1, 69, 64
4, 56832, Note_off_c, 1, 71, 64
4, 56832, Note_on_c, 1, 55, 110
4, 56927, Note_on_c, 1, 57, 110
4, 56938, Note_off_c, 1, 55, 64
4, 57119, Note_on_c, 1, 59, 89
4, 57126, Note_off_c, 1, 57, 64
4, 57599, Note_on_c, 1, 67, 96
4, 57625, Note_off_c, 1, 59, 64
4, 57695, Note_on_c, 1, 69, 84
4, 57711, Note_off_c, 1, 67, 64
4, 57887, Note_on_c, 1, 71, 79
4, 57903, Note_off_c, 1, 69, 64
4, 58368, Note_off_c, 1, 71, 64
4, 58368, Note_on_c, 1, 55, 110
4, 58463, Note_on_c, 1, 57, 110
4, 58474, Note_off_c, 1, 55, 64
4, 58655, Note_on_c, 1, 59, 89
4, 58662, Note_off_c, 1, 57, 64
4, 59135, Note_on_c, 1, 67, 96
4, 59161, Note_off_c, 1, 59, 64
4, 59231, Note_on_c, 1, 69, 84
4, 59247, Note_off_c, 1, 67, 64
4, 59423, Note_on_c, 1, 71, 79
4, 59439, Note_off_c, 1, 69, 64
4, 59904, Note_off_c, 1, 71, 64
4, 59904, Note_on_c, 1, 55, 110
4, 59999, Note_on_c, 1, 57, 110
4, 60010, Note_off_c, 1, 55, 64
4, 60191, Note_on_c, 1, 59, 89
4, 60198, Note_off_c, 1, 57, 64
4, 60671, Note_on_c, 1, 67, 96
4, 60697, Note_off_c, 1, 59, 64
4, 60767, Note_on_c, 1, 69, 84
4, 60783, Note_off_c, 1, 67, 64
4, 60959, Note_on_c, 1, 71, 79
4, 60975, Note_off_c, 1, 69, 64
4, 61440, Note_off_c, 1, 71, 64
4, 61440, Note_on_c, 1, 55, 110
4, 61535, Note_on_c, 1, 57, 110
4, 61546, Note_off_c, 1, 55, 64
4, 61727, Note_on_c, 1, 59, 89
4, 61734, Note_off_c, 1, 57, 64
4, 62207, Note_on_c, 1, 67, 96
4, 62233, Note_off_c, 1, 59, 64
4, 62303, Note_on_c, 1, 69, 84
4, 62319, Note_off_c, 1, 67, 64
4, 62495, Note_on_c, 1, 71, 79
4, 62511, Note_off_c, 1, 69, 64
4, 62976, Note_off_c, 1, 71, 64
4, 62976, Note_on_c, 1, 55, 110
4, 63071, Note_on_c, 1, 57, 110
4, 63082, Note_off_c, 1, 55, 64
4, 63263, Note_on_c, 1, 59, 89
4, 63270, Note_off_c, 1, 57, 64
4, 63743, Note_on_c, 1, 67, 96
4, 63769, Note_off_c, 1, 59, 64
4, 63839, Note_on_c, 1, 69, 84
4, 63855, Note_off_c, 1, 67, 64
4, 64031, Note_on_c, 1, 71, 79
4, 64047, Note_off_c, 1, 69, 64
4, 65856, Note_off_c, 1, 71, 64
4, 65856, End_track
5, 0, Start_track
5, 0, MIDI_port, 1
5, 0, Title_t, "Clarinet            "
5, 10, Control_c, 2, 0, 0
5, 22, Program_c, 2, 71
5, 34, Pitch_bend_c, 2, 8192
5, 46, Control_c, 2, 7, 100
5, 58, Control_c, 2, 10, 44
5, 70, Control_c, 2, 91, 80
5, 82, Control_c, 2, 93, 40
5, 94, Control_c, 2, 100, 0
5, 106, Control_c, 2, 101, 0
5, 118, Control_c, 2, 6, 2
5, 766, Note_on_c, 2, 71, 70
5, 766, Note_on_c, 2, 62, 70
5, 766, Note_on_c, 2, 67, 70
5, 780, Note_off_c, 2, 67, 64
5, 783, Note_off_c, 2, 71, 64
5, 784, Note_off_c, 2, 62, 64
5, 814, Note_on_c, 2, 62, 70
5, 814, Note_on_c, 2, 71, 70
5, 814, Note_on_c, 2, 67, 70
5, 827, Note_off_c, 2, 67, 64
5, 829, Note_off_c, 2, 71, 64
5, 832, Note_off_c, 2, 62, 64
5, 862, Note_on_c, 2, 62, 70
5, 862, Note_on_c, 2, 71, 70
5, 862, Note_on_c, 2, 67, 70
5, 878, Note_off_c, 2, 67, 64
5, 879, Note_off_c, 2, 71, 64
5, 881, Note_off_c, 2, 62, 64
5, 910, Note_on_c, 2, 62, 70
5, 910, Note_on_c, 2, 71, 70
5, 910, Note_on_c, 2, 67, 70
5, 927, Note_off_c, 2, 62, 64
5, 927, Note_off_c, 2, 71, 64
5, 927, Note_off_c, 2, 67, 64
5, 958, Note_on_c, 2, 71, 70
5, 958, Note_on_c, 2, 67, 70
5, 958, Note_on_c, 2, 62, 70
5, 975, Note_off_c, 2, 71, 64
5, 975, Note_off_c, 2, 67, 64
5, 975, Note_off_c, 2, 62, 64
5, 1006, Note_on_c, 2, 71, 70
5, 1006, Note_on_c, 2, 67, 70
5, 1006, Note_on_c, 2, 62, 70
5, 1018, Note_off_c, 2, 62, 64
5, 1020, Note_off_c, 2, 67, 64
5, 1022, Note_off_c, 2, 71, 64
5, 1054, Note_on_c, 2, 62, 70
5, 1054, Note_on_c, 2, 71, 70
5, 1054, Note_on_c, 2, 67, 70
5, 1068, Note_off_c, 2, 67, 64
5, 1071, Note_off_c, 2, 71, 64
5, 1072, Note_off_c, 2, 62, 64
5, 1102, Note_on_c, 2, 71, 70
5, 1102, Note_on_c, 2, 62, 70
5, 1102, Note_on_c, 2, 67, 70
5, 1115, Note_off_c, 2, 67, 64
5, 1116, Note_off_c, 2, 62, 64
5, 1118, Note_off_c, 2, 71, 64
5, 1150, Note_on_c, 2, 62, 70
5, 1150, Note_on_c, 2, 71, 70
5, 1150, Note_on_c, 2, 67, 70
5, 1166, Note_off_c, 2, 71, 64
5, 1166, Note_off_c, 2, 67, 64
5, 1167, Note_off_c, 2, 62, 64
5, 1198, Note_on_c, 2, 71, 70
5, 1198, Note_on_c, 2, 62, 70
5, 1198, Note_on_c, 2, 67, 70
5, 1212, Note_off_c, 2, 67, 64
5, 1214, Note_off_c, 2, 71, 64
5, 1214, Note_off_c, 2, 62, 64
5, 1246, Note_on_c, 2, 71, 70
5, 1246, Note_on_c, 2, 67, 70
5, 1246, Note_on_c, 2, 62, 70
5, 1264, Note_off_c, 2, 71, 64
5, 1264, Note_off_c, 2, 67, 64
5, 1264, Note_off_c, 2, 62, 64
5, 1294, Note_on_c, 2, 71, 70
5, 1294, Note_on_c, 2, 67, 70
5, 1294, Note_on_c, 2, 62, 70
5, 1308, Note_off_c, 2, 67, 64
5, 1308, Note_off_c, 2, 62, 64
5, 1311, Note_off_c, 2, 71, 64
5, 1342, Note_on_c, 2, 71, 70
5, 1342, Note_on_c, 2, 67, 70
5, 1342, Note_on_c, 2, 62, 70
5, 1357, Note_off_c, 2, 67, 64
5, 1358, Note_off_c, 2, 62, 64
5, 1359, Note_off_c, 2, 71, 64
5, 1390, Note_on_c, 2, 71, 70
5, 1390, Note_on_c, 2, 67, 70
5, 1390, Note_on_c, 2, 62, 70
5, 1403, Note_off_c, 2, 62, 64
5, 1404, Note_off_c, 2, 67, 64
5, 1406, Note_off_c, 2, 71, 64
5, 1438, Note_on_c, 2, 71, 70
5, 1438, Note_on_c, 2, 62, 70
5, 1438, Note_on_c, 2, 67, 70
5, 1453, Note_off_c, 2, 67, 64
5, 1454, Note_off_c, 2, 71, 64
5, 1455, Note_off_c, 2, 62, 64
5, 1486, Note_on_c, 2, 71, 70
5, 1486, Note_on_c, 2, 67, 70
5, 1486, Note_on_c, 2, 62, 70
5, 1503, Note_off_c, 2, 67, 64
5, 1504, Note_off_c, 2, 71, 64
5, 1504, Note_off_c, 2, 62, 64
5, 1534, Note_on_c, 2, 71, 70
5, 1534, Note_on_c, 2, 67, 70
5, 1534, Note_on_c, 2, 62, 70
5, 1551, Note_off_c, 2, 67, 64
5, 1553, Note_off_c, 2, 62, 64
5, 1554, Note_off_c, 2, 71, 64
5, 1582, Note_on_c, 2, 71, 70
5, 1582, Note_on_c, 2, 62, 70
5, 1582, Note_on_c, 2, 67, 70
5, 1596, Note_off_c, 2, 67, 64
5, 1600, Note_off_c, 2, 62, 64
5, 1601, Note_off_c, 2, 71, 64
5, 1630, Note_on_c, 2, 71, 70
5, 1630, Note_on_c, 2, 67, 70
5, 1630, Note_on_c, 2, 62, 70
5, 1648, Note_off_c, 2, 67, 64
5, 1648, Note_off_c, 2, 62, 64
5, 1650, Note_off_c, 2, 71, 64
5, 1678, Note_on_c, 2, 71, 70
5, 1678, Note_on_c, 2, 62, 70
5, 1678, Note_on_c, 2, 67, 70
5, 1692, Note_off_c, 2, 67, 64
5, 1695, Note_off_c, 2, 71, 64
5, 1695, Note_off_c, 2, 62, 64
5, 1726, Note_on_c, 2, 71, 70
5, 1726, Note_on_c, 2, 67, 70
5, 1726, Note_on_c, 2, 62, 70
5, 1741, Note_off_c, 2, 67, 64
5, 1741, Note_off_c, 2, 62, 64
5, 1745, Note_off_c, 2, 71, 64
5, 1774, Note_on_c, 2, 71, 70
5, 1774, Note_on_c, 2, 67, 70
5, 1774, Note_on_c, 2, 62, 70
5, 1791, Note_off_c, 2, 67, 64
5, 1792, Note_off_c, 2, 71, 64
5, 1793, Note_off_c, 2, 62, 64
5, 1822, Note_on_c, 2, 62, 70
5, 1822, Note_on_c, 2, 71, 70
5, 1822, Note_on_c, 2, 67, 70
5, 1839, Note_off_c, 2, 67, 64
5, 1841, Note_off_c, 2, 71, 64
5, 1843, Note_off_c, 2, 62, 64
5, 1870, Note_on_c, 2, 62, 70
5, 1870, Note_on_c, 2, 71, 70
5, 1870, Note_on_c, 2, 67, 70
5, 1886, Note_off_c, 2, 67, 64
5, 1888, Note_off_c, 2, 71, 64
5, 1890, Note_off_c, 2, 62, 64
5, 1918, Note_on_c, 2, 71, 70
5, 1918, Note_on_c, 2, 62, 70
5, 1918, Note_on_c, 2, 67, 70
5, 1935, Note_off_c, 2, 67, 64
5, 1937, Note_off_c, 2, 71, 64
5, 1937, Note_off_c, 2, 62, 64
5, 1966, Note_on_c, 2, 71, 70
5, 1966, Note_on_c, 2, 62, 70
5, 1966, Note_on_c, 2, 67, 70
5, 1982, Note_off_c, 2, 67, 64
5, 1984, Note_off_c, 2, 71, 64
5, 1985, Note_off_c, 2, 62, 64
5, 2014, Note_on_c, 2, 71, 70
5, 2014, Note_on_c, 2, 62, 70
5, 2014, Note_on_c, 2, 67, 70
5, 2029, Note_off_c, 2, 67, 64
5, 2031, Note_off_c, 2, 71, 64
5, 2032, Note_off_c, 2, 62, 64
5, 2062, Note_on_c, 2, 71, 70
5, 2062, Note_on_c, 2, 62, 70
5, 2062, Note_on_c, 2, 67, 70
5, 2078, Note_off_c, 2, 67, 64
5, 2079, Note_off_c, 2, 62, 64
5, 2080, Note_off_c, 2, 71, 64
5, 2110, Note_on_c, 2, 71, 70
5, 2110, Note_on_c, 2, 67, 70
5, 2110, Note_on_c, 2, 62, 70
5, 2126, Note_off_c, 2, 62, 64
5, 2127, Note_off_c, 2, 67, 64
5, 2129, Note_off_c, 2, 71, 64
5, 2158, Note_on_c, 2, 71, 70
5, 2158, Note_on_c, 2, 62, 70
5, 2158, Note_on_c, 2, 67, 70
5, 2174, Note_off_c, 2, 67, 64
5, 2176, Note_off_c, 2, 71, 64
5, 2176, Note_off_c, 2, 62, 64
5, 2206, Note_on_c, 2, 71, 70
5, 2206, Note_on_c, 2, 67, 70
5, 2206, Note_on_c, 2, 62, 70
5, 2223, Note_off_c, 2, 67, 64
5, 2223, Note_off_c, 2, 62, 64
5, 2225, Note_off_c, 2, 71, 64
5, 2254, Note_on_c, 2, 62, 70
5, 2254, Note_on_c, 2, 71, 70
5, 2254, Note_on_c, 2, 67, 70
5, 2270, Note_off_c, 2, 62, 64
5, 2271, Note_off_c, 2, 71, 64
5, 2271, Note_off_c, 2, 67, 64
5, 2302, Note_on_c, 2, 71, 70
5, 2302, Note_on_c, 2, 67, 70
5, 2302, Note_on_c, 2, 64, 70
5, 2318, Note_off_c, 2, 67, 64
5, 2318, Note_off_c, 2, 71, 64
5, 2321, Note_off_c, 2, 64, 64
5, 2350, Note_on_c, 2, 71, 70
5, 2350, Note_on_c, 2, 64, 70
5, 2350, Note_on_c, 2, 67, 70
5, 2364, Note_off_c, 2, 67, 64
5, 2365, Note_off_c, 2, 64, 64
5, 2368, Note_off_c, 2, 71, 64
5, 2398, Note_on_c, 2, 64, 70
5, 2398, Note_on_c, 2, 71, 70
5, 2398, Note_on_c, 2, 67, 70
5, 2414, Note_off_c, 2, 67, 64
5, 2416, Note_off_c, 2, 71, 64
5, 2418, Note_off_c, 2, 64, 64
5, 2446, Note_on_c, 2, 64, 70
5, 2446, Note_on_c, 2, 71, 70
5, 2446, Note_on_c, 2, 67, 70
5, 2460, Note_off_c, 2, 67, 64
5, 2463, Note_off_c, 2, 71, 64
5, 2464, Note_off_c, 2, 64, 64
5, 2494, Note_on_c, 2, 64, 70
5, 2494, Note_on_c, 2, 71, 70
5, 2494, Note_on_c, 2, 67, 70
5, 2509, Note_off_c, 2, 67, 64
5, 2512, Note_off_c, 2, 71, 64
5, 2513, Note_off_c, 2, 64, 64
5, 2542, Note_on_c, 2, 71, 70
5, 2542, Note_on_c, 2, 64, 70
5, 2542, Note_on_c, 2, 67, 70
5, 2556, Note_off_c, 2, 67, 64
5, 2558, Note_off_c, 2, 64, 64
5, 2559, Note_off_c, 2, 71, 64
5, 2590, Note_on_c, 2, 71, 70
5, 2590, Note_on_c, 2, 64, 70
5, 2590, Note_on_c, 2, 67, 70
5, 2605, Note_off_c, 2, 67, 64
5, 2606, Note_off_c, 2, 64, 64
5, 2608, Note_off_c, 2, 71, 64
5, 2638, Note_on_c, 2, 71, 70
5, 2638, Note_on_c, 2, 64, 70
5, 2638, Note_on_c, 2, 67, 70
5, 2651, Note_off_c, 2, 67, 64
5, 2655, Note_off_c, 2, 71, 64
5, 2656, Note_off_c, 2, 64, 64
5, 2686, Note_on_c, 2, 64, 70
5, 2686, Note_on_c, 2, 71, 70
5, 2686, Note_on_c, 2, 67, 70
5, 2700, Note_off_c, 2, 67, 64
5, 2704, Note_off_c, 2, 71, 64
5, 2705, Note_off_c, 2, 64, 64
5, 2734, Note_on_c, 2, 71, 70
5, 2734, Note_on_c, 2, 64, 70
5, 2734, Note_on_c, 2, 67, 70
5, 2749, Note_off_c, 2, 67, 64
5, 2751, Note_off_c, 2, 71, 64
5, 2751, Note_off_c, 2, 64, 64
5, 2782, Note_on_c, 2, 64, 70
5, 2782, Note_on_c, 2, 71, 70
5, 2782, Note_on_c, 2, 67, 70
5, 2797, Note_off_c, 2, 67, 64
5, 2799, Note_off_c, 2, 71, 64
5, 2800, Note_off_c, 2, 64, 64
5, 2830, Note_on_c, 2, 71, 70
5, 2830, Note_on_c, 2, 64, 70
5, 2830, Note_on_c, 2, 67, 70
5, 2841, Note_off_c, 2, 67, 64
5, 2845, Note_off_c, 2, 71, 64
5, 2846, Note_off_c, 2, 64, 64
5, 2878, Note_on_c, 2, 71, 70
5, 2878, Note_on_c, 2, 64, 70
5, 2878, Note_on_c, 2, 67, 70
5, 2895, Note_off_c, 2, 67, 64
5, 2896, Note_off_c, 2, 64, 64
5, 2897, Note_off_c, 2, 71, 64
5, 2926, Note_on_c, 2, 64, 70
5, 2926, Note_on_c, 2, 71, 70
5, 2926, Note_on_c, 2, 67, 70
5, 2942, Note_off_c, 2, 67, 64
5, 2944, Note_off_c, 2, 71, 64
5, 2946, Note_off_c, 2, 64, 64
5, 2974, Note_on_c, 2, 71, 70
5, 2974, Note_on_c, 2, 64, 70
5, 2974, Note_on_c, 2, 67, 70
5, 2988, Note_off_c, 2, 67, 64
5, 2990, Note_off_c, 2, 64, 64
5, 2992, Note_off_c, 2, 71, 64
5, 3022, Note_on_c, 2, 71, 70
5, 3022, Note_on_c, 2, 64, 70
5, 3022, Note_on_c, 2, 67, 70
5, 3039, Note_off_c, 2, 67, 64
5, 3040, Note_off_c, 2, 71, 64
5, 3041, Note_off_c, 2, 64, 64
5, 3070, Note_on_c, 2, 64, 70
5, 3070, Note_on_c, 2, 71, 70
5, 3070, Note_on_c, 2, 67, 70
5, 3087, Note_off_c, 2, 67, 64
5, 3087, Note_off_c, 2, 71, 64
5, 3090, Note_off_c, 2, 64, 64
5, 3118, Note_on_c, 2, 71, 70
5, 3118, Note_on_c, 2, 64, 70
5, 3118, Note_on_c, 2, 67, 70
5, 3134, Note_off_c, 2, 67, 64
5, 3138, Note_off_c, 2, 71, 64
5, 3138, Note_off_c, 2, 64, 64
5, 3166, Note_on_c, 2, 71, 70
5, 3166, Note_on_c, 2, 64, 70
5, 3166, Note_on_c, 2, 67, 70
5, 3183, Note_off_c, 2, 71, 64
5, 3183, Note_off_c, 2, 67, 64
5, 3185, Note_off_c, 2, 64, 64
5, 3214, Note_on_c, 2, 64, 70
5, 3214, Note_on_c, 2, 71, 70
5, 3214, Note_on_c, 2, 67, 70
5, 3231, Note_off_c, 2, 67, 64
5, 3233, Note_off_c, 2, 71, 64
5, 3238, Note_off_c, 2, 64, 64
5, 3262, Note_on_c, 2, 64, 70
5, 3262, Note_on_c, 2, 71, 70
5, 3262, Note_on_c, 2, 67, 70
5, 3279, Note_off_c, 2, 67, 64
5, 3282, Note_off_c, 2, 71, 64
5, 3283, Note_off_c, 2, 64, 64
5, 3310, Note_on_c, 2, 71, 70
5, 3310, Note_on_c, 2, 67, 70
5, 3310, Note_on_c, 2, 64, 70
5, 3328, Note_off_c, 2, 67, 64
5, 3329, Note_off_c, 2, 64, 64
5, 3330, Note_off_c, 2, 71, 64
5, 3358, Note_on_c, 2, 64, 70
5, 3358, Note_on_c, 2, 71, 70
5, 3358, Note_on_c, 2, 67, 70
5, 3376, Note_off_c, 2, 67, 64
5, 3378, Note_off_c, 2, 71, 64
5, 3380, Note_off_c, 2, 64, 64
5, 3406, Note_on_c, 2, 71, 70
5, 3406, Note_on_c, 2, 64, 70
5, 3406, Note_on_c, 2, 67, 70
5, 3423, Note_off_c, 2, 67, 64
5, 3424, Note_off_c, 2, 64, 64
5, 3425, Note_off_c, 2, 71, 64
5, 3454, Note_on_c, 2, 71, 70
5, 3454, Note_on_c, 2, 64, 70
5, 3454, Note_on_c, 2, 67, 70
5, 3471, Note_off_c, 2, 67, 64
5, 3475, Note_off_c, 2, 71, 64
5, 3475, Note_off_c, 2, 64, 64
5, 3502, Note_on_c, 2, 64, 70
5, 3502, Note_on_c, 2, 71, 70
5, 3502, Note_on_c, 2, 67, 70
5, 3514, Note_off_c, 2, 67, 64
5, 3520, Note_off_c, 2, 71, 64
5, 3521, Note_off_c, 2, 64, 64
5, 3550, Note_on_c, 2, 71, 70
5, 3550, Note_on_c, 2, 64, 70
5, 3550, Note_on_c, 2, 67, 70
5, 3566, Note_off_c, 2, 67, 64
5, 3568, Note_off_c, 2, 71, 64
5, 3568, Note_off_c, 2, 64, 64
5, 3598, Note_on_c, 2, 64, 70
5, 3598, Note_on_c, 2, 71, 70
5, 3598, Note_on_c, 2, 67, 70
5, 3613, Note_off_c, 2, 67, 64
5, 3616, Note_off_c, 2, 64, 64
5, 3616, Note_off_c, 2, 71, 64
5, 3646, Note_on_c, 2, 71, 70
5, 3646, Note_on_c, 2, 64, 70
5, 3646, Note_on_c, 2, 67, 70
5, 3659, Note_off_c, 2, 67, 64
5, 3663, Note_off_c, 2, 64, 64
5, 3665, Note_off_c, 2, 71, 64
5, 3694, Note_on_c, 2, 64, 70
5, 3694, Note_on_c, 2, 71, 70
5, 3694, Note_on_c, 2, 67, 70
5, 3707, Note_off_c, 2, 67, 64
5, 3711, Note_off_c, 2, 71, 64
5, 3712, Note_off_c, 2, 64, 64
5, 3742, Note_on_c, 2, 71, 70
5, 3742, Note_on_c, 2, 64, 70
5, 3742, Note_on_c, 2, 67, 70
5, 3756, Note_off_c, 2, 67, 64
5, 3758, Note_off_c, 2, 64, 64
5, 3759, Note_off_c, 2, 71, 64
5, 3790, Note_on_c, 2, 64, 70
5, 3790, Note_on_c, 2, 71, 70
5, 3790, Note_on_c, 2, 67, 70
5, 3805, Note_off_c, 2, 67, 64
5, 3807, Note_off_c, 2, 71, 64
5, 3809, Note_off_c, 2, 64, 64
5, 3838, Note_on_c, 2, 67, 70
5, 3838, Note_on_c, 2, 71, 70
5, 3838, Note_on_c, 2, 62, 70
5, 3851, Note_off_c, 2, 62, 64
5, 3856, Note_off_c, 2, 71, 64
5, 3858, Note_off_c, 2, 67, 64
5, 3886, Note_on_c, 2, 71, 70
5, 3886, Note_on_c, 2, 62, 70
5, 3886, Note_on_c, 2, 67, 70
5, 3899, Note_off_c, 2, 67, 64
5, 3906, Note_off_c, 2, 71, 64
5, 3906, Note_off_c, 2, 62, 64
5, 3934, Note_on_c, 2, 62, 70
5, 3934, Note_on_c, 2, 71, 70
5, 3934, Note_on_c, 2, 67, 70
5, 3948, Note_off_c, 2, 67, 64
5, 3953, Note_off_c, 2, 62, 64
5, 3953, Note_off_c, 2, 71, 64
5, 3982, Note_on_c, 2, 71, 70
5, 3982, Note_on_c, 2, 62, 70
5, 3982, Note_on_c, 2, 67, 70
5, 3998, Note_off_c, 2, 62, 64
5, 3999, Note_off_c, 2, 67, 64
5, 4002, Note_off_c, 2, 71, 64
5, 4030, Note_on_c, 2, 71, 70
5, 4030, Note_on_c, 2, 62, 70
5, 4030, Note_on_c, 2, 67, 70
5, 4047, Note_off_c, 2, 67, 64
5, 4048, Note_off_c, 2, 71, 64
5, 4048, Note_off_c, 2, 62, 64
5, 4078, Note_on_c, 2, 71, 70
5, 4078, Note_on_c, 2, 67, 70
5, 4078, Note_on_c, 2, 62, 70
5, 4094, Note_off_c, 2, 62, 64
5, 4096, Note_off_c, 2, 67, 64
5, 4097, Note_off_c, 2, 71, 64
5, 4126, Note_on_c, 2, 71, 70
5, 4126, Note_on_c, 2, 67, 70
5, 4126, Note_on_c, 2, 62, 70
5, 4143, Note_off_c, 2, 62, 64
5, 4145, Note_off_c, 2, 67, 64
5, 4146, Note_off_c, 2, 71, 64
5, 4174, Note_on_c, 2, 71, 70
5, 4174, Note_on_c, 2, 62, 70
5, 4174, Note_on_c, 2, 67, 70
5, 4191, Note_off_c, 2, 67, 64
5, 4193, Note_off_c, 2, 62, 64
5, 4196, Note_off_c, 2, 71, 64
5, 4222, Note_on_c, 2, 71, 70
5, 4222, Note_on_c, 2, 62, 70
5, 4222, Note_on_c, 2, 67, 70
5, 4238, Note_off_c, 2, 67, 64
5, 4241, Note_off_c, 2, 62, 64
5, 4243, Note_off_c, 2, 71, 64
5, 4270, Note_on_c, 2, 62, 70
5, 4270, Note_on_c, 2, 71, 70
5, 4270, Note_on_c, 2, 67, 70
5, 4285, Note_off_c, 2, 67, 64
5, 4287, Note_off_c, 2, 71, 64
5, 4288, Note_off_c, 2, 62, 64
5, 4318, Note_on_c, 2, 71, 70
5, 4318, Note_on_c, 2, 62, 70
5, 4318, Note_on_c, 2, 67, 70
5, 4336, Note_off_c, 2, 71, 64
5, 4336, Note_off_c, 2, 62, 64
5, 4336, Note_off_c, 2, 67, 64
5, 4366, Note_on_c, 2, 71, 70
5, 4366, Note_on_c, 2, 62, 70
5, 4366, Note_on_c, 2, 67, 70
5, 4382, Note_off_c, 2, 67, 64
5, 4384, Note_off_c, 2, 62, 64
5, 4386, Note_off_c, 2, 71, 64
5, 4414, Note_on_c, 2, 62, 70
5, 4414, Note_on_c, 2, 71, 70
5, 4414, Note_on_c, 2, 67, 70
5, 4430, Note_off_c, 2, 67, 64
5, 4431, Note_off_c, 2, 71, 64
5, 4433, Note_off_c, 2, 62, 64
5, 4462, Note_on_c, 2, 71, 70
5, 4462, Note_on_c, 2, 62, 70
5, 4462, Note_on_c, 2, 67, 70
5, 4479, Note_off_c, 2, 67, 64
5, 4480, Note_off_c, 2, 62, 64
5, 4482, Note_off_c, 2, 71, 64
5, 4510, Note_on_c, 2, 71, 70
5, 4510, Note_on_c, 2, 62, 70
5, 4510, Note_on_c, 2, 67, 70
5, 4528, Note_off_c, 2, 67, 64
5, 4530, Note_off_c, 2, 62, 64
5, 4532, Note_off_c, 2, 71, 64
5, 4558, Note_on_c, 2, 71, 70
5, 4558, Note_on_c, 2, 62, 70
5, 4558, Note_on_c, 2, 67, 70
5, 4575, Note_off_c, 2, 67, 64
5, 4577, Note_off_c, 2, 62, 64
5, 4578, Note_off_c, 2, 71, 64
5, 4606, Note_on_c, 2, 71, 70
5, 4606, Note_on_c, 2, 62, 70
5, 4606, Note_on_c, 2, 67, 70
5, 4625, Note_off_c, 2, 67, 64
5, 4626, Note_off_c, 2, 62, 64
5, 4627, Note_off_c, 2, 71, 64
5, 4654, Note_on_c, 2, 62, 70
5, 4654, Note_on_c, 2, 71, 70
5, 4654, Note_on_c, 2, 67, 70
5, 4671, Note_off_c, 2, 67, 64
5, 4673, Note_off_c, 2, 62, 64
5, 4673, Note_off_c, 2, 71, 64
5, 4702, Note_on_c, 2, 71, 70
5, 4702, Note_on_c, 2, 62, 70
5, 4702, Note_on_c, 2, 67, 70
5, 4720, Note_off_c, 2, 67, 64
5, 4721, Note_off_c, 2, 62, 64
5, 4722, Note_off_c, 2, 71, 64
5, 4750, Note_on_c, 2, 62, 70
5, 4750, Note_on_c, 2, 71, 70
5, 4750, Note_on_c, 2, 67, 70
5, 4767, Note_off_c, 2, 67, 64
5, 4769, Note_off_c, 2, 62, 64
5, 4769, Note_off_c, 2, 71, 64
5, 4798, Note_on_c, 2, 71, 70
5, 4798, Note_on_c, 2, 67, 70
5, 4798, Note_on_c, 2, 62, 70
5, 4815, Note_off_c, 2, 67, 64
5, 4815, Note_off_c, 2, 62, 64
5, 4817, Note_off_c, 2, 71, 64
5, 4846, Note_on_c, 2, 71, 70
5, 4846, Note_on_c, 2, 67, 70
5, 4846, Note_on_c, 2, 62, 70
5, 4863, Note_off_c, 2, 67, 64
5, 4863, Note_off_c, 2, 62, 64
5, 4865, Note_off_c, 2, 71, 64
5, 4894, Note_on_c, 2, 71, 70
5, 4894, Note_on_c, 2, 62, 70
5, 4894, Note_on_c, 2, 67, 70
5, 4911, Note_off_c, 2, 67, 64
5, 4914, Note_off_c, 2, 62, 64
5, 4915, Note_off_c, 2, 71, 64
5, 4942, Note_on_c, 2, 71, 70
5, 4942, Note_on_c, 2, 62, 70
5, 4942, Note_on_c, 2, 67, 70
5, 4958, Note_off_c, 2, 67, 64
5, 4961, Note_off_c, 2, 62, 64
5, 4963, Note_off_c, 2, 71, 64
5, 4990, Note_on_c, 2, 71, 70
5, 4990, Note_on_c, 2, 62, 70
5, 4990, Note_on_c, 2, 67, 70
5, 5007, Note_off_c, 2, 67, 64
5, 5008, Note_off_c, 2, 62, 64
5, 5011, Note_off_c, 2, 71, 64
5, 5038, Note_on_c, 2, 71, 70
5, 5038, Note_on_c, 2, 62, 70
5, 5038, Note_on_c, 2, 67, 70
5, 5055, Note_off_c, 2, 67, 64
5, 5056, Note_off_c, 2, 62, 64
5, 5059, Note_off_c, 2, 71, 64
5, 5086, Note_on_c, 2, 62, 70
5, 5086, Note_on_c, 2, 71, 70
5, 5086, Note_on_c, 2, 67, 70
5, 5103, Note_off_c, 2, 67, 64
5, 5105, Note_off_c, 2, 71, 64
5, 5106, Note_off_c, 2, 62, 64
5, 5134, Note_on_c, 2, 71, 70
5, 5134, Note_on_c, 2, 62, 70
5, 5134, Note_on_c, 2, 67, 70
5, 5151, Note_off_c, 2, 67, 64
5, 5153, Note_off_c, 2, 71, 64
5, 5153, Note_off_c, 2, 62, 64
5, 5182, Note_on_c, 2, 71, 70
5, 5182, Note_on_c, 2, 62, 70
5, 5182, Note_on_c, 2, 67, 70
5, 5199, Note_off_c, 2, 67, 64
5, 5200, Note_off_c, 2, 62, 64
5, 5202, Note_off_c, 2, 71, 64
5, 5230, Note_on_c, 2, 71, 70
5, 5230, Note_on_c, 2, 62, 70
5, 5230, Note_on_c, 2, 67, 70
5, 5246, Note_off_c, 2, 62, 64
5, 5247, Note_off_c, 2, 67, 64
5, 5249, Note_off_c, 2, 71, 64
5, 5278, Note_on_c, 2, 71, 70
5, 5278, Note_on_c, 2, 62, 70
5, 5278, Note_on_c, 2, 67, 70
5, 5295, Note_off_c, 2, 62, 64
5, 5295, Note_off_c, 2, 67, 64
5, 5297, Note_off_c, 2, 71, 64
5, 5326, Note_on_c, 2, 71, 70
5, 5326, Note_on_c, 2, 67, 70
5, 5326, Note_on_c, 2, 62, 70
5, 5342, Note_off_c, 2, 67, 64
5, 5344, Note_off_c, 2, 62, 64
5, 5346, Note_off_c, 2, 71, 64
5, 5374, Note_on_c, 2, 66, 70
5, 5374, Note_on_c, 2, 69, 70
5, 5374, Note_on_c, 2, 62, 70
5, 5391, Note_off_c, 2, 62, 64
5, 5393, Note_off_c, 2, 69, 64
5, 5393, Note_off_c, 2, 66, 64
5, 5422, Note_on_c, 2, 69, 70
5, 5422, Note_on_c, 2, 62, 70
5, 5422, Note_on_c, 2, 66, 70
5, 5437, Note_off_c, 2, 66, 64
5, 5440, Note_off_c, 2, 69, 64
5, 5442, Note_off_c, 2, 62, 64
5, 5470, Note_on_c, 2, 62, 70
5, 5470, Note_on_c, 2, 69, 70
5, 5470, Note_on_c, 2, 66, 70
5, 5487, Note_off_c, 2, 66, 64
5, 5489, Note_off_c, 2, 69, 64
5, 5490, Note_off_c, 2, 62, 64
5, 5518, Note_on_c, 2, 66, 70
5, 5518, Note_on_c, 2, 62, 70
5, 5518, Note_on_c, 2, 69, 70
5, 5536, Note_off_c, 2, 69, 64
5, 5537, Note_off_c, 2, 66, 64
5, 5537, Note_off_c, 2, 62, 64
5, 5566, Note_on_c, 2, 62, 70
5, 5566, Note_on_c, 2, 69, 70
5, 5566, Note_on_c, 2, 66, 70
5, 5583, Note_off_c, 2, 66, 64
5, 5584, Note_off_c, 2, 62, 64
5, 5584, Note_off_c, 2, 69, 64
5, 5614, Note_on_c, 2, 62, 70
5, 5614, Note_on_c, 2, 69, 70
5, 5614, Note_on_c, 2, 66, 70
5, 5630, Note_off_c, 2, 66, 64
5, 5631, Note_off_c, 2, 62, 64
5, 5631, Note_off_c, 2, 69, 64
5, 5662, Note_on_c, 2, 66, 70
5, 5662, Note_on_c, 2, 62, 70
5, 5662, Note_on_c, 2, 69, 70
5, 5680, Note_off_c, 2, 66, 64
5, 5680, Note_off_c, 2, 69, 64
5, 5681, Note_off_c, 2, 62, 64
5, 5710, Note_on_c, 2, 66, 70
5, 5710, Note_on_c, 2, 69, 70
5, 5710, Note_on_c, 2, 62, 70
5, 5727, Note_off_c, 2, 62, 64
5, 5728, Note_off_c, 2, 66, 64
5, 5728, Note_off_c, 2, 69, 64
5, 5758, Note_on_c, 2, 69, 70
5, 5758, Note_on_c, 2, 66, 70
5, 5758, Note_on_c, 2, 62, 70
5, 5772, Note_off_c, 2, 62, 64
5, 5773, Note_off_c, 2, 66, 64
5, 5775, Note_off_c, 2, 69, 64
5, 5806, Note_on_c, 2, 62, 70
5, 5806, Note_on_c, 2, 69, 70
5, 5806, Note_on_c, 2, 66, 70
5, 5822, Note_off_c, 2, 66, 64
5, 5824, Note_off_c, 2, 69, 64
5, 5826, Note_off_c, 2, 62, 64
5, 5854, Note_on_c, 2, 62, 70
5, 5854, Note_on_c, 2, 69, 70
5, 5854, Note_on_c, 2, 66, 70
5, 5871, Note_off_c, 2, 66, 64
5, 5873, Note_off_c, 2, 69, 64
5, 5876, Note_off_c, 2, 62, 64
5, 5902, Note_on_c, 2, 62, 70
5, 5902, Note_on_c, 2, 69, 70
5, 5902, Note_on_c, 2, 66, 70
5, 5920, Note_off_c, 2, 66, 64
5, 5921, Note_off_c, 2, 69, 64
5, 5922, Note_off_c, 2, 62, 64
5, 5950, Note_on_c, 2, 62, 70
5, 5950, Note_on_c, 2, 69, 70
5, 5950, Note_on_c, 2, 66, 70
5, 5968, Note_off_c, 2, 69, 64
5, 5968, Note_off_c, 2, 66, 64
5, 5969, Note_off_c, 2, 62, 64
5, 5998, Note_on_c, 2, 62, 70
5, 5998, Note_on_c, 2, 66, 70
5, 5998, Note_on_c, 2, 69, 70
5, 6014, Note_off_c, 2, 66, 64
5, 6014, Note_off_c, 2, 69, 64
5, 6018, Note_off_c, 2, 62, 64
5, 6046, Note_on_c, 2, 69, 70
5, 6046, Note_on_c, 2, 66, 70
5, 6046, Note_on_c, 2, 62, 70
5, 6062, Note_off_c, 2, 66, 64
5, 6063, Note_off_c, 2, 62, 64
5, 6065, Note_off_c, 2, 69, 64
5, 6094, Note_on_c, 2, 69, 70
5, 6094, Note_on_c, 2, 66, 70
5, 6094, Note_on_c, 2, 62, 70
5, 6113, Note_off_c, 2, 66, 64
5, 6113, Note_off_c, 2, 62, 64
5, 6114, Note_off_c, 2, 69, 64
5, 6142, Note_on_c, 2, 69, 70
5, 6142, Note_on_c, 2, 66, 70
5, 6142, Note_on_c, 2, 62, 70
5, 6159, Note_off_c, 2, 62, 64
5, 6159, Note_off_c, 2, 66, 64
5, 6159, Note_off_c, 2, 69, 64
5, 6190, Note_on_c, 2, 69, 70
5, 6190, Note_on_c, 2, 66, 70
5, 6190, Note_on_c, 2, 62, 70
5, 6208, Note_off_c, 2, 69, 64
5, 6208, Note_off_c, 2, 66, 64
5, 6209, Note_off_c, 2, 62, 64
5, 6238, Note_on_c, 2, 69, 70
5, 6238, Note_on_c, 2, 66, 70
5, 6238, Note_on_c, 2, 62, 70
5, 6254, Note_off_c, 2, 66, 64
5, 6255, Note_off_c, 2, 69, 64
5, 6255, Note_off_c, 2, 62, 64
5, 6286, Note_on_c, 2, 69, 70
5, 6286, Note_on_c, 2, 66, 70
5, 6286, Note_on_c, 2, 62, 70
5, 6305, Note_off_c, 2, 66, 64
5, 6305, Note_off_c, 2, 62, 64
5, 6306, Note_off_c, 2, 69, 64
5, 6334, Note_on_c, 2, 62, 70
5, 6334, Note_on_c, 2, 69, 70
5, 6334, Note_on_c, 2, 66, 70
5, 6351, Note_off_c, 2, 62, 64
5, 6351, Note_off_c, 2, 69, 64
5, 6351, Note_off_c, 2, 66, 64
5, 6382, Note_on_c, 2, 62, 70
5, 6382, Note_on_c, 2, 69, 70
5, 6382, Note_on_c, 2, 66, 70
5, 6400, Note_off_c, 2, 66, 64
5, 6401, Note_off_c, 2, 69, 64
5, 6402, Note_off_c, 2, 62, 64
5, 6430, Note_on_c, 2, 69, 70
5, 6430, Note_on_c, 2, 66, 70
5, 6430, Note_on_c, 2, 62, 70
5, 6448, Note_off_c, 2, 69, 64
5, 6448, Note_off_c, 2, 66, 64
5, 6448, Note_off_c, 2, 62, 64
5, 6478, Note_on_c, 2, 62, 70
5, 6478, Note_on_c, 2, 69, 70
5, 6478, Note_on_c, 2, 66, 70
5, 6496, Note_off_c, 2, 66, 64
5, 6497, Note_off_c, 2, 69, 64
5, 6498, Note_off_c, 2, 62, 64
5, 6526, Note_on_c, 2, 69, 70
5, 6526, Note_on_c, 2, 62, 70
5, 6526, Note_on_c, 2, 66, 70
5, 6543, Note_off_c, 2, 66, 64
5, 6544, Note_off_c, 2, 69, 64
5, 6545, Note_off_c, 2, 62, 64
5, 6574, Note_on_c, 2, 69, 70
5, 6574, Note_on_c, 2, 66, 70
5, 6574, Note_on_c, 2, 62, 70
5, 6591, Note_off_c, 2, 66, 64
5, 6591, Note_off_c, 2, 62, 64
5, 6593, Note_off_c, 2, 69, 64
5, 6622, Note_on_c, 2, 69, 70
5, 6622, Note_on_c, 2, 66, 70
5, 6622, Note_on_c, 2, 62, 70
5, 6641, Note_off_c, 2, 69, 64
5, 6641, Note_off_c, 2, 66, 64
5, 6643, Note_off_c, 2, 62, 64
5, 6670, Note_on_c, 2, 69, 70
5, 6670, Note_on_c, 2, 66, 70
5, 6670, Note_on_c, 2, 62, 70
5, 6689, Note_off_c, 2, 66, 64
5, 6689, Note_off_c, 2, 62, 64
5, 6690, Note_off_c, 2, 69, 64
5, 6718, Note_on_c, 2, 69, 70
5, 6718, Note_on_c, 2, 66, 70
5, 6718, Note_on_c, 2, 62, 70
5, 6734, Note_off_c, 2, 62, 64
5, 6735, Note_off_c, 2, 66, 64
5, 6736, Note_off_c, 2, 69, 64
5, 6766, Note_on_c, 2, 69, 70
5, 6766, Note_on_c, 2, 66, 70
5, 6766, Note_on_c, 2, 62, 70
5, 6781, Note_off_c, 2, 62, 64
5, 6783, Note_off_c, 2, 69, 64
5, 6783, Note_off_c, 2, 66, 64
5, 6814, Note_on_c, 2, 66, 70
5, 6814, Note_on_c, 2, 69, 70
5, 6814, Note_on_c, 2, 62, 70
5, 6828, Note_off_c, 2, 62, 64
5, 6831, Note_off_c, 2, 69, 64
5, 6834, Note_off_c, 2, 66, 64
5, 6862, Note_on_c, 2, 66, 70
5, 6862, Note_on_c, 2, 69, 70
5, 6862, Note_on_c, 2, 62, 70
5, 6876, Note_off_c, 2, 62, 64
5, 6879, Note_off_c, 2, 69, 64
5, 6881, Note_off_c, 2, 66, 64
5, 6910, Note_on_c, 2, 71, 70
5, 6910, Note_on_c, 2, 67, 70
5, 6910, Note_on_c, 2, 62, 70
5, 6929, Note_off_c, 2, 62, 64
5, 6930, Note_off_c, 2, 67, 64
5, 6930, Note_off_c, 2, 71, 64
5, 6958, Note_on_c, 2, 71, 70
5, 6958, Note_on_c, 2, 67, 70
5, 6958, Note_on_c, 2, 62, 70
5, 6973, Note_off_c, 2, 67, 64
5, 6975, Note_off_c, 2, 62, 64
5, 6977, Note_off_c, 2, 71, 64
5, 7006, Note_on_c, 2, 71, 70
5, 7006, Note_on_c, 2, 62, 70
5, 7006, Note_on_c, 2, 67, 70
5, 7018, Note_off_c, 2, 67, 64
5, 7024, Note_off_c, 2, 71, 64
5, 7024, Note_off_c, 2, 62, 64
5, 7054, Note_on_c, 2, 71, 70
5, 7054, Note_on_c, 2, 62, 70
5, 7054, Note_on_c, 2, 67, 70
5, 7067, Note_off_c, 2, 67, 64
5, 7070, Note_off_c, 2, 62, 64
5, 7071, Note_off_c, 2, 71, 64
5, 7102, Note_on_c, 2, 62, 70
5, 7102, Note_on_c, 2, 71, 70
5, 7102, Note_on_c, 2, 67, 70
5, 7119, Note_off_c, 2, 67, 64
5, 7120, Note_off_c, 2, 71, 64
5, 7121, Note_off_c, 2, 62, 64
5, 7150, Note_on_c, 2, 62, 70
5, 7150, Note_on_c, 2, 71, 70
5, 7150, Note_on_c, 2, 67, 70
5, 7164, Note_off_c, 2, 67, 64
5, 7167, Note_off_c, 2, 71, 64
5, 7169, Note_off_c, 2, 62, 64
5, 7198, Note_on_c, 2, 71, 70
5, 7198, Note_on_c, 2, 62, 70
5, 7198, Note_on_c, 2, 67, 70
5, 7214, Note_off_c, 2, 67, 64
5, 7215, Note_off_c, 2, 62, 64
5, 7218, Note_off_c, 2, 71, 64
5, 7246, Note_on_c, 2, 71, 70
5, 7246, Note_on_c, 2, 62, 70
5, 7246, Note_on_c, 2, 67, 70
5, 7262, Note_off_c, 2, 67, 64
5, 7263, Note_off_c, 2, 62, 64
5, 7265, Note_off_c, 2, 71, 64
5, 7294, Note_on_c, 2, 71, 70
5, 7294, Note_on_c, 2, 62, 70
5, 7294, Note_on_c, 2, 67, 70
5, 7310, Note_off_c, 2, 67, 64
5, 7312, Note_off_c, 2, 62, 64
5, 7315, Note_off_c, 2, 71, 64
5, 7342, Note_on_c, 2, 71, 70
5, 7342, Note_on_c, 2, 62, 70
5, 7342, Note_on_c, 2, 67, 70
5, 7357, Note_off_c, 2, 67, 64
5, 7358, Note_off_c, 2, 62, 64
5, 7362, Note_off_c, 2, 71, 64
5, 7390, Note_on_c, 2, 71, 70
5, 7390, Note_on_c, 2, 67, 70
5, 7390, Note_on_c, 2, 62, 70
5, 7404, Note_off_c, 2, 67, 64
5, 7404, Note_off_c, 2, 62, 64
5, 7409, Note_off_c, 2, 71, 64
5, 7438, Note_on_c, 2, 71, 70
5, 7438, Note_on_c, 2, 62, 70
5, 7438, Note_on_c, 2, 67, 70
5, 7453, Note_off_c, 2, 67, 64
5, 7454, Note_off_c, 2, 62, 64
5, 7458, Note_off_c, 2, 71, 64
5, 7486, Note_on_c, 2, 71, 70
5, 7486, Note_on_c, 2, 62, 70
5, 7486, Note_on_c, 2, 67, 70
5, 7500, Note_off_c, 2, 67, 64
5, 7502, Note_off_c, 2, 62, 64
5, 7504, Note_off_c, 2, 71, 64
5, 7534, Note_on_c, 2, 71, 70
5, 7534, Note_on_c, 2, 67, 70
5, 7534, Note_on_c, 2, 62, 70
5, 7551, Note_off_c, 2, 67, 64
5, 7551, Note_off_c, 2, 62, 64
5, 7554, Note_off_c, 2, 71, 64
5, 7582, Note_on_c, 2, 71, 70
5, 7582, Note_on_c, 2, 62, 70
5, 7582, Note_on_c, 2, 67, 70
5, 7594, Note_off_c, 2, 67, 64
5, 7599, Note_off_c, 2, 62, 64
5, 7601, Note_off_c, 2, 71, 64
5, 7630, Note_on_c, 2, 71, 70
5, 7630, Note_on_c, 2, 67, 70
5, 7630, Note_on_c, 2, 62, 70
5, 7647, Note_off_c, 2, 67, 64
5, 7647, Note_off_c, 2, 62, 64
5, 7651, Note_off_c, 2, 71, 64
5, 7678, Note_on_c, 2, 71, 70
5, 7678, Note_on_c, 2, 62, 70
5, 7678, Note_on_c, 2, 67, 70
5, 7693, Note_off_c, 2, 67, 64
5, 7696, Note_off_c, 2, 62, 64
5, 7697, Note_off_c, 2, 71, 64
5, 7726, Note_on_c, 2, 71, 70
5, 7726, Note_on_c, 2, 62, 70
5, 7726, Note_on_c, 2, 67, 70
5, 7742, Note_off_c, 2, 67, 64
5, 7745, Note_off_c, 2, 62, 64
5, 7746, Note_off_c, 2, 71, 64
5, 7774, Note_on_c, 2, 71, 70
5, 7774, Note_on_c, 2, 62, 70
5, 7774, Note_on_c, 2, 67, 70
5, 7791, Note_off_c, 2, 67, 64
5, 7794, Note_off_c, 2, 62, 64
5, 7797, Note_off_c, 2, 71, 64
5, 7822, Note_on_c, 2, 71, 70
5, 7822, Note_on_c, 2, 62, 70
5, 7822, Note_on_c, 2, 67, 70
5, 7838, Note_off_c, 2, 67, 64
5, 7842, Note_off_c, 2, 62, 64
5, 7844, Note_off_c, 2, 71, 64
5, 7870, Note_on_c, 2, 71, 70
5, 7870, Note_on_c, 2, 62, 70
5, 7870, Note_on_c, 2, 67, 70
5, 7887, Note_off_c, 2, 62, 64
5, 7887, Note_off_c, 2, 67, 64
5, 7891, Note_off_c, 2, 71, 64
5, 7918, Note_on_c, 2, 71, 70
5, 7918, Note_on_c, 2, 62, 70
5, 7918, Note_on_c, 2, 67, 70
5, 7936, Note_off_c, 2, 67, 64
5, 7937, Note_off_c, 2, 62, 64
5, 7938, Note_off_c, 2, 71, 64
5, 7966, Note_on_c, 2, 62, 70
5, 7966, Note_on_c, 2, 71, 70
5, 7966, Note_on_c, 2, 67, 70
5, 7982, Note_off_c, 2, 67, 64
5, 7984, Note_off_c, 2, 62, 64
5, 7985, Note_off_c, 2, 71, 64
5, 8014, Note_on_c, 2, 71, 70
5, 8014, Note_on_c, 2, 62, 70
5, 8014, Note_on_c, 2, 67, 70
5, 8029, Note_off_c, 2, 67, 64
5, 8030, Note_off_c, 2, 62, 64
5, 8034, Note_off_c, 2, 71, 64
5, 8062, Note_on_c, 2, 71, 70
5, 8062, Note_on_c, 2, 62, 70
5, 8062, Note_on_c, 2, 67, 70
5, 8078, Note_off_c, 2, 67, 64
5, 8079, Note_off_c, 2, 62, 64
5, 8080, Note_off_c, 2, 71, 64
5, 8110, Note_on_c, 2, 71, 70
5, 8110, Note_on_c, 2, 62, 70
5, 8110, Note_on_c, 2, 67, 70
5, 8126, Note_off_c, 2, 67, 64
5, 8128, Note_off_c, 2, 62, 64
5, 8130, Note_off_c, 2, 71, 64
5, 8158, Note_on_c, 2, 71, 70
5, 8158, Note_on_c, 2, 62, 70
5, 8158, Note_on_c, 2, 67, 70
5, 8174, Note_off_c, 2, 67, 64
5, 8175, Note_off_c, 2, 62, 64
5, 8177, Note_off_c, 2, 71, 64
5, 8206, Note_on_c, 2, 71, 70
5, 8206, Note_on_c, 2, 62, 70
5, 8206, Note_on_c, 2, 67, 70
5, 8222, Note_off_c, 2, 67, 64
5, 8224, Note_off_c, 2, 62, 64
5, 8225, Note_off_c, 2, 71, 64
5, 8254, Note_on_c, 2, 71, 70
5, 8254, Note_on_c, 2, 62, 70
5, 8254, Note_on_c, 2, 67, 70
5, 8271, Note_off_c, 2, 67, 64
5, 8272, Note_off_c, 2, 62, 64
5, 8275, Note_off_c, 2, 71, 64
5, 8302, Note_on_c, 2, 71, 70
5, 8302, Note_on_c, 2, 62, 70
5, 8302, Note_on_c, 2, 67, 70
5, 8318, Note_off_c, 2, 67, 64
5, 8320, Note_off_c, 2, 62, 64
5, 8322, Note_off_c, 2, 71, 64
5, 8350, Note_on_c, 2, 71, 70
5, 8350, Note_on_c, 2, 62, 70
5, 8350, Note_on_c, 2, 67, 70
5, 8368, Note_off_c, 2, 67, 64
5, 8370, Note_off_c, 2, 62, 64
5, 8371, Note_off_c, 2, 71, 64
5, 8398, Note_on_c, 2, 62, 70
5, 8398, Note_on_c, 2, 71, 70
5, 8398, Note_on_c, 2, 67, 70
5, 8414, Note_off_c, 2, 62, 64
5, 8415, Note_off_c, 2, 67, 64
5, 8416, Note_off_c, 2, 71, 64
5, 8446, Note_on_c, 2, 71, 70
5, 8446, Note_on_c, 2, 67, 70
5, 8446, Note_on_c, 2, 64, 70
5, 8463, Note_off_c, 2, 67, 64
5, 8464, Note_off_c, 2, 64, 64
5, 8464, Note_off_c, 2, 71, 64
5, 8494, Note_on_c, 2, 71, 70
5, 8494, Note_on_c, 2, 67, 70
5, 8494, Note_on_c, 2, 64, 70
5, 8508, Note_off_c, 2, 67, 64
5, 8509, Note_off_c, 2, 64, 64
5, 8513, Note_off_c, 2, 71, 64
5, 8542, Note_on_c, 2, 71, 70
5, 8542, Note_on_c, 2, 64, 70
5, 8542, Note_on_c, 2, 67, 70
5, 8556, Note_off_c, 2, 67, 64
5, 8562, Note_off_c, 2, 64, 64
5, 8563, Note_off_c, 2, 71, 64
5, 8590, Note_on_c, 2, 71, 70
5, 8590, Note_on_c, 2, 64, 70
5, 8590, Note_on_c, 2, 67, 70
5, 8604, Note_off_c, 2, 67, 64
5, 8610, Note_off_c, 2, 64, 64
5, 8611, Note_off_c, 2, 71, 64
5, 8638, Note_on_c, 2, 71, 70
5, 8638, Note_on_c, 2, 64, 70
5, 8638, Note_on_c, 2, 67, 70
5, 8654, Note_off_c, 2, 67, 64
5, 8656, Note_off_c, 2, 64, 64
5, 8657, Note_off_c, 2, 71, 64
5, 8686, Note_on_c, 2, 71, 70
5, 8686, Note_on_c, 2, 64, 70
5, 8686, Note_on_c, 2, 67, 70
5, 8700, Note_off_c, 2, 67, 64
5, 8702, Note_off_c, 2, 64, 64
5, 8706, Note_off_c, 2, 71, 64
5, 8734, Note_on_c, 2, 71, 70
5, 8734, Note_on_c, 2, 64, 70
5, 8734, Note_on_c, 2, 67, 70
5, 8749, Note_off_c, 2, 67, 64
5, 8751, Note_off_c, 2, 64, 64
5, 8753, Note_off_c, 2, 71, 64
5, 8782, Note_on_c, 2, 71, 70
5, 8782, Note_on_c, 2, 64, 70
5, 8782, Note_on_c, 2, 67, 70
5, 8799, Note_off_c, 2, 67, 64
5, 8800, Note_off_c, 2, 64, 64
5, 8802, Note_off_c, 2, 71, 64
5, 8830, Note_on_c, 2, 71, 70
5, 8830, Note_on_c, 2, 64, 70
5, 8830, Note_on_c, 2, 67, 70
5, 8846, Note_off_c, 2, 67, 64
5, 8848, Note_off_c, 2, 64, 64
5, 8851, Note_off_c, 2, 71, 64
5, 8878, Note_on_c, 2, 71, 70
5, 8878, Note_on_c, 2, 67, 70
5, 8878, Note_on_c, 2, 64, 70
5, 8895, Note_off_c, 2, 67, 64
5, 8896, Note_off_c, 2, 71, 64
5, 8896, Note_off_c, 2, 64, 64
5, 8926, Note_on_c, 2, 71, 70
5, 8926, Note_on_c, 2, 64, 70
5, 8926, Note_on_c, 2, 67, 70
5, 8941, Note_off_c, 2, 67, 64
5, 8944, Note_off_c, 2, 71, 64
5, 8945, Note_off_c, 2, 64, 64
5, 8974, Note_on_c, 2, 64, 70
5, 8974, Note_on_c, 2, 71, 70
5, 8974, Note_on_c, 2, 67, 70
5, 8993, Note_off_c, 2, 71, 64
5, 8993, Note_off_c, 2, 67, 64
5, 8995, Note_off_c, 2, 64, 64
5, 9022, Note_on_c, 2, 71, 70
5, 9022, Note_on_c, 2, 67, 70
5, 9022, Note_on_c, 2, 64, 70
5, 9038, Note_off_c, 2, 67, 64
5, 9040, Note_off_c, 2, 71, 64
5, 9040, Note_off_c, 2, 64, 64
5, 9070, Note_on_c, 2, 71, 70
5, 9070, Note_on_c, 2, 67, 70
5, 9070, Note_on_c, 2, 64, 70
5, 9087, Note_off_c, 2, 67, 64
5, 9087, Note_off_c, 2, 64, 64
5, 9089, Note_off_c, 2, 71, 64
5, 9118, Note_on_c, 2, 64, 70
5, 9118, Note_on_c, 2, 71, 70
5, 9118, Note_on_c, 2, 67, 70
5, 9133, Note_off_c, 2, 67, 64
5, 9137, Note_off_c, 2, 71, 64
5, 9140, Note_off_c, 2, 64, 64
5, 9166, Note_on_c, 2, 71, 70
5, 9166, Note_on_c, 2, 64, 70
5, 9166, Note_on_c, 2, 67, 70
5, 9181, Note_off_c, 2, 67, 64
5, 9185, Note_off_c, 2, 71, 64
5, 9185, Note_off_c, 2, 64, 64
5, 9214, Note_on_c, 2, 64, 70
5, 9214, Note_on_c, 2, 71, 70
5, 9214, Note_on_c, 2, 67, 70
5, 9231, Note_off_c, 2, 67, 64
5, 9231, Note_off_c, 2, 71, 64
5, 9234, Note_off_c, 2, 64, 64
5, 9262, Note_on_c, 2, 71, 70
5, 9262, Note_on_c, 2, 67, 70
5, 9262, Note_on_c, 2, 64, 70
5, 9278, Note_off_c, 2, 67, 64
5, 9278, Note_off_c, 2, 64, 64
5, 9279, Note_off_c, 2, 71, 64
5, 9310, Note_on_c, 2, 64, 70
5, 9310, Note_on_c, 2, 71, 70
5, 9310, Note_on_c, 2, 67, 70
5, 9325, Note_off_c, 2, 67, 64
5, 9327, Note_off_c, 2, 71, 64
5, 9328, Note_off_c, 2, 64, 64
5, 9358, Note_on_c, 2, 71, 70
5, 9358, Note_on_c, 2, 64, 70
5, 9358, Note_on_c, 2, 67, 70
5, 9374, Note_off_c, 2, 67, 64
5, 9377, Note_off_c, 2, 64, 64
5, 9378, Note_off_c, 2, 71, 64
5, 9406, Note_on_c, 2, 71, 70
5, 9406, Note_on_c, 2, 64, 70
5, 9406, Note_on_c, 2, 67, 70
5, 9422, Note_off_c, 2, 67, 64
5, 9425, Note_off_c, 2, 64, 64
5, 9426, Note_off_c, 2, 71, 64
5, 9454, Note_on_c, 2, 64, 70
5, 9454, Note_on_c, 2, 71, 70
5, 9454, Note_on_c, 2, 67, 70
5, 9471, Note_off_c, 2, 67, 64
5, 9474, Note_off_c, 2, 71, 64
5, 9478, Note_off_c, 2, 64, 64
5, 9502, Note_on_c, 2, 71, 70
5, 9502, Note_on_c, 2, 64, 70
5, 9502, Note_on_c, 2, 67, 70
5, 9517, Note_off_c, 2, 67, 64
5, 9521, Note_off_c, 2, 71, 64
5, 9521, Note_off_c, 2, 64, 64
5, 9550, Note_on_c, 2, 64, 70
5, 9550, Note_on_c, 2, 71, 70
5, 9550, Note_on_c, 2, 67, 70
5, 9567, Note_off_c, 2, 67, 64
5, 9569, Note_off_c, 2, 71, 64
5, 9570, Note_off_c, 2, 64, 64
5, 9598, Note_on_c, 2, 64, 70
5, 9598, Note_on_c, 2, 71, 70
5, 9598, Note_on_c, 2, 67, 70
5, 9616, Note_off_c, 2, 67, 64
5, 9617, Note_off_c, 2, 71, 64
5, 9621, Note_off_c, 2, 64, 64
5, 9646, Note_on_c, 2, 71, 70
5, 9646, Note_on_c, 2, 64, 70
5, 9646, Note_on_c, 2, 67, 70
5, 9662, Note_off_c, 2, 67, 64
5, 9665, Note_off_c, 2, 71, 64
5, 9666, Note_off_c, 2, 64, 64
5, 9694, Note_on_c, 2, 71, 70
5, 9694, Note_on_c, 2, 64, 70
5, 9694, Note_on_c, 2, 67, 70
5, 9710, Note_off_c, 2, 67, 64
5, 9713, Note_off_c, 2, 71, 64
5, 9715, Note_off_c, 2, 64, 64
5, 9742, Note_on_c, 2, 71, 70
5, 9742, Note_on_c, 2, 64, 70
5, 9742, Note_on_c, 2, 67, 70
5, 9757, Note_off_c, 2, 67, 64
5, 9760, Note_off_c, 2, 64, 64
5, 9762, Note_off_c, 2, 71, 64
5, 9790, Note_on_c, 2, 71, 70
5, 9790, Note_on_c, 2, 67, 70
5, 9790, Note_on_c, 2, 64, 70
5, 9807, Note_off_c, 2, 67, 64
5, 9807, Note_off_c, 2, 64, 64
5, 9810, Note_off_c, 2, 71, 64
5, 9838, Note_on_c, 2, 71, 70
5, 9838, Note_on_c, 2, 64, 70
5, 9838, Note_on_c, 2, 67, 70
5, 9851, Note_off_c, 2, 67, 64
5, 9854, Note_off_c, 2, 64, 64
5, 9856, Note_off_c, 2, 71, 64
5, 9886, Note_on_c, 2, 71, 70
5, 9886, Note_on_c, 2, 67, 70
5, 9886, Note_on_c, 2, 64, 70
5, 9903, Note_off_c, 2, 64, 64
5, 9905, Note_off_c, 2, 67, 64
5, 9906, Note_off_c, 2, 71, 64
5, 9934, Note_on_c, 2, 71, 70
5, 9934, Note_on_c, 2, 67, 70
5, 9934, Note_on_c, 2, 64, 70
5, 9947, Note_off_c, 2, 64, 64
5, 9951, Note_off_c, 2, 71, 64
5, 9953, Note_off_c, 2, 67, 64
5, 9982, Note_on_c, 2, 67, 70
5, 9982, Note_on_c, 2, 72, 70
5, 9982, Note_on_c, 2, 64, 70
5, 10000, Note_off_c, 2, 72, 64
5, 10000, Note_off_c, 2, 67, 64
5, 10002, Note_off_c, 2, 64, 64
5, 10030, Note_on_c, 2, 72, 70
5, 10030, Note_on_c, 2, 64, 70
5, 10030, Note_on_c, 2, 67, 70
5, 10047, Note_off_c, 2, 67, 64
5, 10051, Note_off_c, 2, 72, 64
5, 10051, Note_off_c, 2, 64, 64
5, 10078, Note_on_c, 2, 72, 70
5, 10078, Note_on_c, 2, 64, 70
5, 10078, Note_on_c, 2, 67, 70
5, 10097, Note_off_c, 2, 67, 64
5, 10098, Note_off_c, 2, 72, 64
5, 10098, Note_off_c, 2, 64, 64
5, 10126, Note_on_c, 2, 72, 70
5, 10126, Note_on_c, 2, 64, 70
5, 10126, Note_on_c, 2, 67, 70
5, 10143, Note_off_c, 2, 67, 64
5, 10146, Note_off_c, 2, 64, 64
5, 10147, Note_off_c, 2, 72, 64
5, 10174, Note_on_c, 2, 64, 70
5, 10174, Note_on_c, 2, 72, 70
5, 10174, Note_on_c, 2, 67, 70
5, 10192, Note_off_c, 2, 67, 64
5, 10193, Note_off_c, 2, 72, 64
5, 10197, Note_off_c, 2, 64, 64
5, 10222, Note_on_c, 2, 64, 70
5, 10222, Note_on_c, 2, 72, 70
5, 10222, Note_on_c, 2, 67, 70
5, 10238, Note_off_c, 2, 67, 64
5, 10240, Note_off_c, 2, 72, 64
5, 10243, Note_off_c, 2, 64, 64
5, 10270, Note_on_c, 2, 72, 70
5, 10270, Note_on_c, 2, 64, 70
5, 10270, Note_on_c, 2, 67, 70
5, 10283, Note_off_c, 2, 67, 64
5, 10288, Note_off_c, 2, 72, 64
5, 10290, Note_off_c, 2, 64, 64
5, 10318, Note_on_c, 2, 72, 70
5, 10318, Note_on_c, 2, 64, 70
5, 10318, Note_on_c, 2, 67, 70
5, 10334, Note_off_c, 2, 67, 64
5, 10337, Note_off_c, 2, 72, 64
5, 10337, Note_off_c, 2, 64, 64
5, 10366, Note_on_c, 2, 72, 70
5, 10366, Note_on_c, 2, 67, 70
5, 10366, Note_on_c, 2, 64, 70
5, 10384, Note_off_c, 2, 64, 64
5, 10386, Note_off_c, 2, 67, 64
5, 10387, Note_off_c, 2, 72, 64
5, 10414, Note_on_c, 2, 72, 70
5, 10414, Note_on_c, 2, 67, 70
5, 10414, Note_on_c, 2, 64, 70
5, 10433, Note_off_c, 2, 67, 64
5, 10434, Note_off_c, 2, 72, 64
5, 10434, Note_off_c, 2, 64, 64
5, 10462, Note_on_c, 2, 72, 70
5, 10462, Note_on_c, 2, 64, 70
5, 10462, Note_on_c, 2, 67, 70
5, 10480, Note_off_c, 2, 67, 64
5, 10481, Note_off_c, 2, 72, 64
5, 10483, Note_off_c, 2, 64, 64
5, 10510, Note_on_c, 2, 64, 70
5, 10510, Note_on_c, 2, 72, 70
5, 10510, Note_on_c, 2, 67, 70
5, 10528, Note_off_c, 2, 67, 64
5, 10529, Note_off_c, 2, 72, 64
5, 10531, Note_off_c, 2, 64, 64
5, 10558, Note_on_c, 2, 72, 70
5, 10558, Note_on_c, 2, 64, 70
5, 10558, Note_on_c, 2, 67, 70
5, 10574, Note_off_c, 2, 67, 64
5, 10578, Note_off_c, 2, 72, 64
5, 10578, Note_off_c, 2, 64, 64
5, 10606, Note_on_c, 2, 72, 70
5, 10606, Note_on_c, 2, 64, 70
5, 10606, Note_on_c, 2, 67, 70
5, 10623, Note_off_c, 2, 67, 64
5, 10625, Note_off_c, 2, 72, 64
5, 10627, Note_off_c, 2, 64, 64
5, 10654, Note_on_c, 2, 72, 70
5, 10654, Note_on_c, 2, 64, 70
5, 10654, Note_on_c, 2, 67, 70
5, 10669, Note_off_c, 2, 67, 64
5, 10672, Note_off_c, 2, 64, 64
5, 10673, Note_off_c, 2, 72, 64
5, 10702, Note_on_c, 2, 72, 70
5, 10702, Note_on_c, 2, 64, 70
5, 10702, Note_on_c, 2, 67, 70
5, 10722, Note_off_c, 2, 72, 64
5, 10723, Note_off_c, 2, 67, 64
5, 10726, Note_off_c, 2, 64, 64
5, 10750, Note_on_c, 2, 67, 70
5, 10750, Note_on_c, 2, 71, 70
5, 10750, Note_on_c, 2, 62, 70
5, 10770, Note_off_c, 2, 62, 64
5, 10771, Note_off_c, 2, 71, 64
5, 10774, Note_off_c, 2, 67, 64
5, 10798, Note_on_c, 2, 71, 70
5, 10798, Note_on_c, 2, 62, 70
5, 10798, Note_on_c, 2, 67, 70
5, 10816, Note_off_c, 2, 67, 64
5, 10817, Note_off_c, 2, 62, 64
5, 10819, Note_off_c, 2, 71, 64
5, 10846, Note_on_c, 2, 71, 70
5, 10846, Note_on_c, 2, 62, 70
5, 10846, Note_on_c, 2, 67, 70
5, 10860, Note_off_c, 2, 67, 64
5, 10864, Note_off_c, 2, 71, 64
5, 10866, Note_off_c, 2, 62, 64
5, 10894, Note_on_c, 2, 71, 70
5, 10894, Note_on_c, 2, 62, 70
5, 10894, Note_on_c, 2, 67, 70
5, 10909, Note_off_c, 2, 67, 64
5, 10912, Note_off_c, 2, 62, 64
5, 10913, Note_off_c, 2, 71, 64
5, 10942, Note_on_c, 2, 71, 70
5, 10942, Note_on_c, 2, 62, 70
5, 10942, Note_on_c, 2, 67, 70
5, 10958, Note_off_c, 2, 67, 64
5, 10961, Note_off_c, 2, 71, 64
5, 10961, Note_off_c, 2, 62, 64
5, 10990, Note_on_c, 2, 71, 70
5, 10990, Note_on_c, 2, 62, 70
5, 10990, Note_on_c, 2, 67, 70
5, 11006, Note_off_c, 2, 67, 64
5, 11009, Note_off_c, 2, 62, 64
5, 11010, Note_off_c, 2, 71, 64
5, 11038, Note_on_c, 2, 71, 70
5, 11038, Note_on_c, 2, 62, 70
5, 11038, Note_on_c, 2, 67, 70
5, 11052, Note_off_c, 2, 67, 64
5, 11056, Note_off_c, 2, 71, 64
5, 11059, Note_off_c, 2, 62, 64
5, 11086, Note_on_c, 2, 71, 70
5, 11086, Note_on_c, 2, 62, 70
5, 11086, Note_on_c, 2, 67, 70
5, 11102, Note_off_c, 2, 67, 64
5, 11105, Note_off_c, 2, 62, 64
5, 11106, Note_off_c, 2, 71, 64
5, 11134, Note_on_c, 2, 71, 70
5, 11134, Note_on_c, 2, 67, 70
5, 11134, Note_on_c, 2, 62, 70
5, 11149, Note_off_c, 2, 67, 64
5, 11152, Note_off_c, 2, 62, 64
5, 11154, Note_off_c, 2, 71, 64
5, 11182, Note_on_c, 2, 71, 70
5, 11182, Note_on_c, 2, 62, 70
5, 11182, Note_on_c, 2, 67, 70
5, 11196, Note_off_c, 2, 67, 64
5, 11202, Note_off_c, 2, 71, 64
5, 11202, Note_off_c, 2, 62, 64
5, 11230, Note_on_c, 2, 71, 70
5, 11230, Note_on_c, 2, 62, 70
5, 11230, Note_on_c, 2, 67, 70
5, 11246, Note_off_c, 2, 67, 64
5, 11248, Note_off_c, 2, 62, 64
5, 11249, Note_off_c, 2, 71, 64
5, 11278, Note_on_c, 2, 71, 70
5, 11278, Note_on_c, 2, 62, 70
5, 11278, Note_on_c, 2, 67, 70
5, 11294, Note_off_c, 2, 67, 64
5, 11298, Note_off_c, 2, 71, 64
5, 11298, Note_off_c, 2, 62, 64
5, 11326, Note_on_c, 2, 62, 70
5, 11326, Note_on_c, 2, 71, 70
5, 11326, Note_on_c, 2, 67, 70
5, 11341, Note_off_c, 2, 67, 64
5, 11345, Note_off_c, 2, 71, 64
5, 11348, Note_off_c, 2, 62, 64
5, 11374, Note_on_c, 2, 71, 70
5, 11374, Note_on_c, 2, 62, 70
5, 11374, Note_on_c, 2, 67, 70
5, 11391, Note_off_c, 2, 67, 64
5, 11393, Note_off_c, 2, 62, 64
5, 11395, Note_off_c, 2, 71, 64
5, 11422, Note_on_c, 2, 71, 70
5, 11422, Note_on_c, 2, 67, 70
5, 11422, Note_on_c, 2, 62, 70
5, 11437, Note_off_c, 2, 67, 64
5, 11439, Note_off_c, 2, 62, 64
5, 11441, Note_off_c, 2, 71, 64
5, 11470, Note_on_c, 2, 71, 70
5, 11470, Note_on_c, 2, 67, 70
5, 11470, Note_on_c, 2, 62, 70
5, 11485, Note_off_c, 2, 67, 64
5, 11488, Note_off_c, 2, 71, 64
5, 11488, Note_off_c, 2, 62, 64
5, 11518, Note_on_c, 2, 66, 70
5, 11518, Note_on_c, 2, 69, 70
5, 11518, Note_on_c, 2, 62, 70
5, 11535, Note_off_c, 2, 62, 64
5, 11536, Note_off_c, 2, 69, 64
5, 11536, Note_off_c, 2, 66, 64
5, 11566, Note_on_c, 2, 69, 70
5, 11566, Note_on_c, 2, 66, 70
5, 11566, Note_on_c, 2, 62, 70
5, 11584, Note_off_c, 2, 66, 64
5, 11585, Note_off_c, 2, 62, 64
5, 11586, Note_off_c, 2, 69, 64
5, 11614, Note_on_c, 2, 69, 70
5, 11614, Note_on_c, 2, 62, 70
5, 11614, Note_on_c, 2, 66, 70
5, 11627, Note_off_c, 2, 66, 64
5, 11632, Note_off_c, 2, 69, 64
5, 11633, Note_off_c, 2, 62, 64
5, 11662, Note_on_c, 2, 69, 70
5, 11662, Note_on_c, 2, 66, 70
5, 11662, Note_on_c, 2, 62, 70
5, 11676, Note_off_c, 2, 66, 64
5, 11681, Note_off_c, 2, 62, 64
5, 11682, Note_off_c, 2, 69, 64
5, 11710, Note_on_c, 2, 69, 70
5, 11710, Note_on_c, 2, 62, 70
5, 11710, Note_on_c, 2, 66, 70
5, 11724, Note_off_c, 2, 66, 64
5, 11731, Note_off_c, 2, 69, 64
5, 11731, Note_off_c, 2, 62, 64
5, 11758, Note_on_c, 2, 69, 70
5, 11758, Note_on_c, 2, 62, 70
5, 11758, Note_on_c, 2, 66, 70
5, 11772, Note_off_c, 2, 66, 64
5, 11777, Note_off_c, 2, 62, 64
5, 11778, Note_off_c, 2, 69, 64
5, 11806, Note_on_c, 2, 69, 70
5, 11806, Note_on_c, 2, 66, 70
5, 11806, Note_on_c, 2, 62, 70
5, 11820, Note_off_c, 2, 66, 64
5, 11821, Note_off_c, 2, 62, 64
5, 11823, Note_off_c, 2, 69, 64
5, 11854, Note_on_c, 2, 69, 70
5, 11854, Note_on_c, 2, 62, 70
5, 11854, Note_on_c, 2, 66, 70
5, 11867, Note_off_c, 2, 66, 64
5, 11872, Note_off_c, 2, 69, 64
5, 11872, Note_off_c, 2, 62, 64
5, 11902, Note_on_c, 2, 69, 70
5, 11902, Note_on_c, 2, 66, 70
5, 11902, Note_on_c, 2, 62, 70
5, 11918, Note_off_c, 2, 66, 64
5, 11920, Note_off_c, 2, 62, 64
5, 11921, Note_off_c, 2, 69, 64
5, 11950, Note_on_c, 2, 69, 70
5, 11950, Note_on_c, 2, 62, 70
5, 11950, Note_on_c, 2, 66, 70
5, 11964, Note_off_c, 2, 66, 64
5, 11968, Note_off_c, 2, 62, 64
5, 11969, Note_off_c, 2, 69, 64
5, 11998, Note_on_c, 2, 69, 70
5, 11998, Note_on_c, 2, 66, 70
5, 11998, Note_on_c, 2, 62, 70
5, 12012, Note_off_c, 2, 66, 64
5, 12014, Note_off_c, 2, 62, 64
5, 12017, Note_off_c, 2, 69, 64
5, 12046, Note_on_c, 2, 69, 70
5, 12046, Note_on_c, 2, 62, 70
5, 12046, Note_on_c, 2, 66, 70
5, 12059, Note_off_c, 2, 66, 64
5, 12063, Note_off_c, 2, 62, 64
5, 12066, Note_off_c, 2, 69, 64
5, 12094, Note_on_c, 2, 69, 70
5, 12094, Note_on_c, 2, 62, 70
5, 12094, Note_on_c, 2, 66, 70
5, 12111, Note_off_c, 2, 66, 64
5, 12115, Note_off_c, 2, 69, 64
5, 12115, Note_off_c, 2, 62, 64
5, 12142, Note_on_c, 2, 69, 70
5, 12142, Note_on_c, 2, 62, 70
5, 12142, Note_on_c, 2, 66, 70
5, 12157, Note_off_c, 2, 66, 64
5, 12162, Note_off_c, 2, 69, 64
5, 12163, Note_off_c, 2, 62, 64
5, 12190, Note_on_c, 2, 69, 70
5, 12190, Note_on_c, 2, 66, 70
5, 12190, Note_on_c, 2, 62, 70
5, 12207, Note_off_c, 2, 66, 64
5, 12207, Note_off_c, 2, 62, 64
5, 12210, Note_off_c, 2, 69, 64
5, 12238, Note_on_c, 2, 69, 70
5, 12238, Note_on_c, 2, 66, 70
5, 12238, Note_on_c, 2, 62, 70
5, 12256, Note_off_c, 2, 66, 64
5, 12258, Note_off_c, 2, 69, 64
5, 12259, Note_off_c, 2, 62, 64
5, 12286, Note_on_c, 2, 62, 70
5, 12286, Note_on_c, 2, 69, 70
5, 12286, Note_on_c, 2, 66, 70
5, 12302, Note_off_c, 2, 66, 64
5, 12304, Note_off_c, 2, 69, 64
5, 12306, Note_off_c, 2, 62, 64
5, 12334, Note_on_c, 2, 69, 70
5, 12334, Note_on_c, 2, 62, 70
5, 12334, Note_on_c, 2, 66, 70
5, 12350, Note_off_c, 2, 66, 64
5, 12353, Note_off_c, 2, 69, 64
5, 12355, Note_off_c, 2, 62, 64
5, 12382, Note_on_c, 2, 62, 70
5, 12382, Note_on_c, 2, 69, 70
5, 12382, Note_on_c, 2, 66, 70
5, 12396, Note_off_c, 2, 66, 64
5, 12400, Note_off_c, 2, 69, 64
5, 12401, Note_off_c, 2, 62, 64
5, 12430, Note_on_c, 2, 69, 70
5, 12430, Note_on_c, 2, 62, 70
5, 12430, Note_on_c, 2, 66, 70
5, 12447, Note_off_c, 2, 66, 64
5, 12448, Note_off_c, 2, 69, 64
5, 12448, Note_off_c, 2, 62, 64
5, 12478, Note_on_c, 2, 69, 70
5, 12478, Note_on_c, 2, 66, 70
5, 12478, Note_on_c, 2, 62, 70
5, 12494, Note_off_c, 2, 66, 64
5, 12495, Note_off_c, 2, 69, 64
5, 12498, Note_off_c, 2, 62, 64
5, 12526, Note_on_c, 2, 69, 70
5, 12526, Note_on_c, 2, 62, 70
5, 12526, Note_on_c, 2, 66, 70
5, 12542, Note_off_c, 2, 66, 64
5, 12545, Note_off_c, 2, 62, 64
5, 12546, Note_off_c, 2, 69, 64
5, 12574, Note_on_c, 2, 69, 70
5, 12574, Note_on_c, 2, 66, 70
5, 12574, Note_on_c, 2, 62, 70
5, 12590, Note_off_c, 2, 66, 64
5, 12592, Note_off_c, 2, 69, 64
5, 12593, Note_off_c, 2, 62, 64
5, 12622, Note_on_c, 2, 69, 70
5, 12622, Note_on_c, 2, 62, 70
5, 12622, Note_on_c, 2, 66, 70
5, 12637, Note_off_c, 2, 66, 64
5, 12642, Note_off_c, 2, 69, 64
5, 12643, Note_off_c, 2, 62, 64
5, 12670, Note_on_c, 2, 69, 70
5, 12670, Note_on_c, 2, 66, 70
5, 12670, Note_on_c, 2, 62, 70
5, 12687, Note_off_c, 2, 66, 64
5, 12689, Note_off_c, 2, 62, 64
5, 12691, Note_off_c, 2, 69, 64
5, 12718, Note_on_c, 2, 69, 70
5, 12718, Note_on_c, 2, 62, 70
5, 12718, Note_on_c, 2, 66, 70
5, 12731, Note_off_c, 2, 66, 64
5, 12735, Note_off_c, 2, 69, 64
5, 12736, Note_off_c, 2, 62, 64
5, 12766, Note_on_c, 2, 69, 70
5, 12766, Note_on_c, 2, 62, 70
5, 12766, Note_on_c, 2, 66, 70
5, 12781, Note_off_c, 2, 66, 64
5, 12785, Note_off_c, 2, 62, 64
5, 12786, Note_off_c, 2, 69, 64
5, 12814, Note_on_c, 2, 69, 70
5, 12814, Note_on_c, 2, 62, 70
5, 12814, Note_on_c, 2, 66, 70
5, 12831, Note_off_c, 2, 66, 64
5, 12833, Note_off_c, 2, 69, 64
5, 12834, Note_off_c, 2, 62, 64
5, 12862, Note_on_c, 2, 69, 70
5, 12862, Note_on_c, 2, 66, 70
5, 12862, Note_on_c, 2, 62, 70
5, 12881, Note_off_c, 2, 66, 64
5, 12882, Note_off_c, 2, 69, 64
5, 12882, Note_off_c, 2, 62, 64
5, 12910, Note_on_c, 2, 69, 70
5, 12910, Note_on_c, 2, 66, 70
5, 12910, Note_on_c, 2, 62, 70
5, 12927, Note_off_c, 2, 66, 64
5, 12927, Note_off_c, 2, 62, 64
5, 12928, Note_off_c, 2, 69, 64
5, 12958, Note_on_c, 2, 69, 70
5, 12958, Note_on_c, 2, 66, 70
5, 12958, Note_on_c, 2, 62, 70
5, 12972, Note_off_c, 2, 62, 64
5, 12976, Note_off_c, 2, 66, 64
5, 12977, Note_off_c, 2, 69, 64
5, 13006, Note_on_c, 2, 69, 70
5, 13006, Note_on_c, 2, 66, 70
5, 13006, Note_on_c, 2, 62, 70
5, 13020, Note_off_c, 2, 62, 64
5, 13024, Note_off_c, 2, 69, 64
5, 13024, Note_off_c, 2, 66, 64
5, 13054, Note_on_c, 2, 79, 55
5, 13054, Note_on_c, 2, 74, 55
5, 13054, Note_on_c, 2, 71, 55
5, 13069, Note_off_c, 2, 71, 64
5, 13069, Note_off_c, 2, 74, 64
5, 13069, Note_off_c, 2, 79, 64
5, 13102, Note_on_c, 2, 74, 72
5, 13102, Note_on_c, 2, 71, 51
5, 13102, Note_on_c, 2, 79, 55
5, 13116, Note_off_c, 2, 74, 64
5, 13116, Note_off_c, 2, 71, 64
5, 13117, Note_off_c, 2, 79, 64
5, 13150, Note_on_c, 2, 74, 72
5, 13150, Note_on_c, 2, 71, 61
5, 13150, Note_on_c, 2, 79, 48
5, 13165, Note_off_c, 2, 71, 64
5, 13166, Note_off_c, 2, 74, 64
5, 13166, Note_off_c, 2, 79, 64
5, 13198, Note_on_c, 2, 74, 58
5, 13198, Note_on_c, 2, 71, 58
5, 13198, Note_on_c, 2, 79, 51
5, 13212, Note_off_c, 2, 74, 64
5, 13212, Note_off_c, 2, 71, 64
5, 13212, Note_off_c, 2, 79, 64
5, 13246, Note_on_c, 2, 74, 55
5, 13246, Note_on_c, 2, 71, 61
5, 13246, Note_on_c, 2, 79, 51
5, 13260, Note_off_c, 2, 74, 64
5, 13260, Note_off_c, 2, 71, 64
5, 13260, Note_off_c, 2, 79, 64
5, 13294, Note_on_c, 2, 74, 69
5, 13294, Note_on_c, 2, 71, 64
5, 13294, Note_on_c, 2, 79, 48
5, 13309, Note_off_c, 2, 74, 64
5, 13309, Note_off_c, 2, 79, 64
5, 13310, Note_off_c, 2, 71, 64
5, 13342, Note_on_c, 2, 74, 58
5, 13342, Note_on_c, 2, 71, 58
5, 13342, Note_on_c, 2, 79, 55
5, 13356, Note_off_c, 2, 79, 64
5, 13357, Note_off_c, 2, 74, 64
5, 13357, Note_off_c, 2, 71, 64
5, 13390, Note_on_c, 2, 74, 64
5, 13390, Note_on_c, 2, 71, 58
5, 13390, Note_on_c, 2, 79, 43
5, 13404, Note_off_c, 2, 79, 64
5, 13406, Note_off_c, 2, 74, 64
5, 13406, Note_off_c, 2, 71, 64
5, 13438, Note_on_c, 2, 74, 72
5, 13438, Note_on_c, 2, 71, 72
5, 13438, Note_on_c, 2, 79, 55
5, 13452, Note_off_c, 2, 79, 64
5, 13453, Note_off_c, 2, 74, 64
5, 13454, Note_off_c, 2, 71, 64
5, 13486, Note_on_c, 2, 71, 64
5, 13486, Note_on_c, 2, 74, 69
5, 13486, Note_on_c, 2, 79, 55
5, 13500, Note_off_c, 2, 74, 64
5, 13500, Note_off_c, 2, 79, 64
5, 13502, Note_off_c, 2, 71, 64
5, 13534, Note_on_c, 2, 71, 58
5, 13534, Note_on_c, 2, 74, 69
5, 13534, Note_on_c, 2, 79, 35
5, 13548, Note_off_c, 2, 79, 64
5, 13549, Note_off_c, 2, 74, 64
5, 13552, Note_off_c, 2, 71, 64
5, 13582, Note_on_c, 2, 74, 69
5, 13582, Note_on_c, 2, 71, 66
5, 13582, Note_on_c, 2, 79, 35
5, 13595, Note_off_c, 2, 79, 64
5, 13597, Note_off_c, 2, 74, 64
5, 13598, Note_off_c, 2, 71, 64
5, 13630, Note_on_c, 2, 74, 64
5, 13630, Note_on_c, 2, 71, 55
5, 13630, Note_on_c, 2, 79, 39
5, 13643, Note_off_c, 2, 71, 64
5, 13644, Note_off_c, 2, 79, 64
5, 13645, Note_off_c, 2, 74, 64
5, 13678, Note_on_c, 2, 74, 55
5, 13678, Note_on_c, 2, 71, 58
5, 13678, Note_on_c, 2, 79, 35
5, 13691, Note_off_c, 2, 79, 64
5, 13692, Note_off_c, 2, 74, 64
5, 13692, Note_off_c, 2, 71, 64
5, 13726, Note_on_c, 2, 71, 61
5, 13726, Note_on_c, 2, 74, 51
5, 13726, Note_on_c, 2, 79, 35
5, 13739, Note_off_c, 2, 79, 64
5, 13740, Note_off_c, 2, 74, 64
5, 13741, Note_off_c, 2, 71, 64
5, 13774, Note_on_c, 2, 71, 48
5, 13774, Note_on_c, 2, 74, 48
5, 13774, Note_on_c, 2, 79, 48
5, 13787, Note_off_c, 2, 74, 64
5, 13789, Note_off_c, 2, 79, 64
5, 13790, Note_off_c, 2, 71, 64
5, 13822, Note_on_c, 2, 74, 58
5, 13822, Note_on_c, 2, 71, 58
5, 13822, Note_on_c, 2, 79, 55
5, 13836, Note_off_c, 2, 79, 64
5, 13836, Note_off_c, 2, 74, 64
5, 13837, Note_off_c, 2, 71, 64
5, 13870, Note_on_c, 2, 74, 55
5, 13870, Note_on_c, 2, 71, 69
5, 13870, Note_on_c, 2, 79, 51
5, 13883, Note_off_c, 2, 74, 64
5, 13883, Note_off_c, 2, 71, 64
5, 13884, Note_off_c, 2, 79, 64
5, 13918, Note_on_c, 2, 71, 58
5, 13918, Note_on_c, 2, 79, 48
5, 13918, Note_on_c, 2, 74, 64
5, 13934, Note_off_c, 2, 71, 64
5, 13934, Note_off_c, 2, 79, 64
5, 13934, Note_off_c, 2, 74, 64
5, 13966, Note_on_c, 2, 74, 64
5, 13966, Note_on_c, 2, 79, 58
5, 13966, Note_on_c, 2, 71, 58
5, 13981, Note_off_c, 2, 74, 64
5, 13981, Note_off_c, 2, 71, 64
5, 13982, Note_off_c, 2, 79, 64
5, 14014, Note_on_c, 2, 74, 61
5, 14014, Note_on_c, 2, 71, 58
5, 14014, Note_on_c, 2, 79, 58
5, 14029, Note_off_c, 2, 74, 64
5, 14029, Note_off_c, 2, 71, 64
5, 14030, Note_off_c, 2, 79, 64
5, 14062, Note_on_c, 2, 74, 55
5, 14062, Note_on_c, 2, 71, 58
5, 14062, Note_on_c, 2, 79, 43
5, 14076, Note_off_c, 2, 71, 64
5, 14076, Note_off_c, 2, 79, 64
5, 14077, Note_off_c, 2, 74, 64
5, 14110, Note_on_c, 2, 71, 61
5, 14110, Note_on_c, 2, 74, 51
5, 14110, Note_on_c, 2, 79, 43
5, 14126, Note_off_c, 2, 79, 64
5, 14127, Note_off_c, 2, 74, 64
5, 14128, Note_off_c, 2, 71, 64
5, 14158, Note_on_c, 2, 71, 58
5, 14158, Note_on_c, 2, 74, 48
5, 14158, Note_on_c, 2, 79, 35
5, 14173, Note_off_c, 2, 74, 64
5, 14173, Note_off_c, 2, 79, 64
5, 14175, Note_off_c, 2, 71, 64
5, 14206, Note_on_c, 2, 74, 61
5, 14206, Note_on_c, 2, 71, 51
5, 14206, Note_on_c, 2, 79, 51
5, 14220, Note_off_c, 2, 74, 64
5, 14221, Note_off_c, 2, 79, 64
5, 14222, Note_off_c, 2, 71, 64
5, 14254, Note_on_c, 2, 74, 48
5, 14254, Note_on_c, 2, 71, 58
5, 14254, Note_on_c, 2, 79, 55
5, 14269, Note_off_c, 2, 74, 64
5, 14269, Note_off_c, 2, 71, 64
5, 14269, Note_off_c, 2, 79, 64
5, 14302, Note_on_c, 2, 71, 69
5, 14302, Note_on_c, 2, 79, 58
5, 14302, Note_on_c, 2, 74, 58
5, 14317, Note_off_c, 2, 74, 64
5, 14318, Note_off_c, 2, 79, 64
5, 14319, Note_off_c, 2, 71, 64
5, 14350, Note_on_c, 2, 71, 66
5, 14350, Note_on_c, 2, 74, 51
5, 14350, Note_on_c, 2, 79, 55
5, 14364, Note_off_c, 2, 74, 64
5, 14364, Note_off_c, 2, 79, 64
5, 14366, Note_off_c, 2, 71, 64
5, 14398, Note_on_c, 2, 74, 69
5, 14398, Note_on_c, 2, 71, 55
5, 14398, Note_on_c, 2, 79, 48
5, 14412, Note_off_c, 2, 74, 64
5, 14413, Note_off_c, 2, 79, 64
5, 14414, Note_off_c, 2, 71, 64
5, 14446, Note_on_c, 2, 74, 58
5, 14446, Note_on_c, 2, 71, 58
5, 14446, Note_on_c, 2, 79, 48
5, 14460, Note_off_c, 2, 74, 64
5, 14461, Note_off_c, 2, 79, 64
5, 14463, Note_off_c, 2, 71, 64
5, 14494, Note_on_c, 2, 74, 58
5, 14494, Note_on_c, 2, 71, 64
5, 14494, Note_on_c, 2, 79, 58
5, 14509, Note_off_c, 2, 74, 64
5, 14509, Note_off_c, 2, 79, 64
5, 14511, Note_off_c, 2, 71, 64
5, 14542, Note_on_c, 2, 74, 51
5, 14542, Note_on_c, 2, 71, 58
5, 14542, Note_on_c, 2, 79, 35
5, 14557, Note_off_c, 2, 79, 64
5, 14558, Note_off_c, 2, 74, 64
5, 14558, Note_off_c, 2, 71, 64
5, 14590, Note_on_c, 2, 76, 72
5, 14590, Note_on_c, 2, 72, 66
5, 14590, Note_on_c, 2, 79, 58
5, 14604, Note_off_c, 2, 72, 64
5, 14605, Note_off_c, 2, 76, 64
5, 14606, Note_off_c, 2, 79, 64
5, 14638, Note_on_c, 2, 76, 58
5, 14638, Note_on_c, 2, 72, 43
5, 14638, Note_on_c, 2, 79, 39
5, 14652, Note_off_c, 2, 72, 64
5, 14653, Note_off_c, 2, 79, 64
5, 14655, Note_off_c, 2, 76, 64
5, 14686, Note_on_c, 2, 76, 69
5, 14686, Note_on_c, 2, 79, 58
5, 14686, Note_on_c, 2, 72, 61
5, 14700, Note_off_c, 2, 72, 64
5, 14702, Note_off_c, 2, 76, 64
5, 14702, Note_off_c, 2, 79, 64
5, 14734, Note_on_c, 2, 76, 58
5, 14734, Note_on_c, 2, 72, 35
5, 14734, Note_on_c, 2, 79, 39
5, 14748, Note_off_c, 2, 72, 64
5, 14748, Note_off_c, 2, 79, 64
5, 14750, Note_off_c, 2, 76, 64
5, 14782, Note_on_c, 2, 76, 61
5, 14782, Note_on_c, 2, 79, 43
5, 14782, Note_on_c, 2, 72, 43
5, 14795, Note_off_c, 2, 72, 64
5, 14796, Note_off_c, 2, 79, 64
5, 14797, Note_off_c, 2, 76, 64
5, 14830, Note_on_c, 2, 72, 58
5, 14830, Note_on_c, 2, 76, 51
5, 14830, Note_on_c, 2, 79, 51
5, 14844, Note_off_c, 2, 76, 64
5, 14845, Note_off_c, 2, 72, 64
5, 14845, Note_off_c, 2, 79, 64
5, 14878, Note_on_c, 2, 76, 55
5, 14878, Note_on_c, 2, 72, 61
5, 14878, Note_on_c, 2, 79, 48
5, 14892, Note_off_c, 2, 72, 64
5, 14892, Note_off_c, 2, 79, 64
5, 14893, Note_off_c, 2, 76, 64
5, 14926, Note_on_c, 2, 76, 64
5, 14926, Note_on_c, 2, 79, 48
5, 14926, Note_on_c, 2, 72, 48
5, 14942, Note_off_c, 2, 76, 64
5, 14942, Note_off_c, 2, 72, 64
5, 14943, Note_off_c, 2, 79, 64
5, 14974, Note_on_c, 2, 76, 61
5, 14974, Note_on_c, 2, 72, 51
5, 14974, Note_on_c, 2, 79, 51
5, 14989, Note_off_c, 2, 72, 64
5, 14990, Note_off_c, 2, 76, 64
5, 14990, Note_off_c, 2, 79, 64
5, 15022, Note_on_c, 2, 76, 64
5, 15022, Note_on_c, 2, 72, 61
5, 15022, Note_on_c, 2, 79, 48
5, 15037, Note_off_c, 2, 76, 64
5, 15037, Note_off_c, 2, 72, 64
5, 15037, Note_off_c, 2, 79, 64
5, 15070, Note_on_c, 2, 76, 39
5, 15070, Note_on_c, 2, 79, 43
5, 15070, Note_on_c, 2, 72, 39
5, 15083, Note_off_c, 2, 72, 64
5, 15085, Note_off_c, 2, 76, 64
5, 15086, Note_off_c, 2, 79, 64
5, 15118, Note_on_c, 2, 76, 58
5, 15118, Note_on_c, 2, 79, 55
5, 15118, Note_on_c, 2, 72, 55
5, 15133, Note_off_c, 2, 72, 64
5, 15134, Note_off_c, 2, 76, 64
5, 15135, Note_off_c, 2, 79, 64
5, 15166, Note_on_c, 2, 76, 58
5, 15166, Note_on_c, 2, 79, 48
5, 15166, Note_on_c, 2, 72, 48
5, 15179, Note_off_c, 2, 72, 64
5, 15181, Note_off_c, 2, 76, 64
5, 15182, Note_off_c, 2, 79, 64
5, 15214, Note_on_c, 2, 76, 64
5, 15214, Note_on_c, 2, 72, 58
5, 15214, Note_on_c, 2, 79, 43
5, 15228, Note_off_c, 2, 72, 64
5, 15229, Note_off_c, 2, 76, 64
5, 15230, Note_off_c, 2, 79, 64
5, 15262, Note_on_c, 2, 76, 58
5, 15262, Note_on_c, 2, 72, 58
5, 15262, Note_on_c, 2, 79, 48
5, 15277, Note_off_c, 2, 76, 64
5, 15277, Note_off_c, 2, 72, 64
5, 15278, Note_off_c, 2, 79, 64
5, 15310, Note_on_c, 2, 76, 58
5, 15310, Note_on_c, 2, 72, 58
5, 15310, Note_on_c, 2, 79, 55
5, 15326, Note_off_c, 2, 76, 64
5, 15326, Note_off_c, 2, 72, 64
5, 15326, Note_off_c, 2, 79, 64
5, 15358, Note_on_c, 2, 76, 55
5, 15358, Note_on_c, 2, 72, 51
5, 15358, Note_on_c, 2, 79, 55
5, 15372, Note_off_c, 2, 79, 64
5, 15373, Note_off_c, 2, 72, 64
5, 15373, Note_off_c, 2, 76, 64
5, 15406, Note_on_c, 2, 72, 61
5, 15406, Note_on_c, 2, 79, 48
5, 15406, Note_on_c, 2, 76, 51
5, 15419, Note_off_c, 2, 76, 64
5, 15420, Note_off_c, 2, 72, 64
5, 15420, Note_off_c, 2, 79, 64
5, 15454, Note_on_c, 2, 72, 55
5, 15454, Note_on_c, 2, 76, 48
5, 15454, Note_on_c, 2, 79, 39
5, 15468, Note_off_c, 2, 76, 64
5, 15469, Note_off_c, 2, 79, 64
5, 15470, Note_off_c, 2, 72, 64
5, 15502, Note_on_c, 2, 76, 64
5, 15502, Note_on_c, 2, 72, 55
5, 15502, Note_on_c, 2, 79, 48
5, 15517, Note_off_c, 2, 76, 64
5, 15517, Note_off_c, 2, 79, 64
5, 15520, Note_off_c, 2, 72, 64
5, 15550, Note_on_c, 2, 76, 61
5, 15550, Note_on_c, 2, 72, 58
5, 15550, Note_on_c, 2, 79, 48
5, 15565, Note_off_c, 2, 76, 64
5, 15565, Note_off_c, 2, 79, 64
5, 15567, Note_off_c, 2, 72, 64
5, 15598, Note_on_c, 2, 76, 58
5, 15598, Note_on_c, 2, 72, 64
5, 15598, Note_on_c, 2, 79, 51
5, 15613, Note_off_c, 2, 76, 64
5, 15613, Note_off_c, 2, 79, 64
5, 15614, Note_off_c, 2, 72, 64
5, 15646, Note_on_c, 2, 76, 61
5, 15646, Note_on_c, 2, 72, 64
5, 15646, Note_on_c, 2, 79, 58
5, 15662, Note_off_c, 2, 76, 64
5, 15662, Note_off_c, 2, 72, 64
5, 15662, Note_off_c, 2, 79, 64
5, 15694, Note_on_c, 2, 76, 58
5, 15694, Note_on_c, 2, 72, 58
5, 15694, Note_on_c, 2, 79, 48
5, 15707, Note_off_c, 2, 72, 64
5, 15707, Note_off_c, 2, 79, 64
5, 15708, Note_off_c, 2, 76, 64
5, 15742, Note_on_c, 2, 76, 58
5, 15742, Note_on_c, 2, 72, 61
5, 15742, Note_on_c, 2, 79, 58
5, 15756, Note_off_c, 2, 79, 64
5, 15757, Note_off_c, 2, 76, 64
5, 15758, Note_off_c, 2, 72, 64
5, 15790, Note_on_c, 2, 76, 58
5, 15790, Note_on_c, 2, 72, 64
5, 15790, Note_on_c, 2, 79, 39
5, 15803, Note_off_c, 2, 79, 64
5, 15804, Note_off_c, 2, 72, 64
5, 15805, Note_off_c, 2, 76, 64
5, 15838, Note_on_c, 2, 76, 69
5, 15838, Note_on_c, 2, 72, 61
5, 15838, Note_on_c, 2, 79, 55
5, 15852, Note_off_c, 2, 79, 64
5, 15854, Note_off_c, 2, 76, 64
5, 15854, Note_off_c, 2, 72, 64
5, 15886, Note_on_c, 2, 76, 64
5, 15886, Note_on_c, 2, 72, 55
5, 15886, Note_on_c, 2, 79, 43
5, 15901, Note_off_c, 2, 76, 64
5, 15901, Note_off_c, 2, 72, 64
5, 15901, Note_off_c, 2, 79, 64
5, 15934, Note_on_c, 2, 76, 69
5, 15934, Note_on_c, 2, 72, 51
5, 15934, Note_on_c, 2, 79, 48
5, 15948, Note_off_c, 2, 72, 64
5, 15948, Note_off_c, 2, 79, 64
5, 15951, Note_off_c, 2, 76, 64
5, 15982, Note_on_c, 2, 76, 61
5, 15982, Note_on_c, 2, 72, 61
5, 15982, Note_on_c, 2, 79, 58
5, 15997, Note_off_c, 2, 79, 64
5, 15998, Note_off_c, 2, 72, 64
5, 15999, Note_off_c, 2, 76, 64
5, 16030, Note_on_c, 2, 76, 64
5, 16030, Note_on_c, 2, 72, 58
5, 16030, Note_on_c, 2, 79, 51
5, 16045, Note_off_c, 2, 72, 64
5, 16045, Note_off_c, 2, 79, 64
5, 16048, Note_off_c, 2, 76, 64
5, 16078, Note_on_c, 2, 76, 61
5, 16078, Note_on_c, 2, 72, 61
5, 16078, Note_on_c, 2, 79, 51
5, 16092, Note_off_c, 2, 79, 64
5, 16093, Note_off_c, 2, 72, 64
5, 16096, Note_off_c, 2, 76, 64
5, 16126, Note_on_c, 2, 76, 72
5, 16126, Note_on_c, 2, 72, 72
5, 16126, Note_on_c, 2, 81, 51
5, 16141, Note_off_c, 2, 81, 64
5, 16143, Note_off_c, 2, 72, 64
5, 16143, Note_off_c, 2, 76, 64
5, 16174, Note_on_c, 2, 76, 55
5, 16174, Note_on_c, 2, 81, 48
5, 16174, Note_on_c, 2, 72, 55
5, 16189, Note_off_c, 2, 72, 64
5, 16190, Note_off_c, 2, 81, 64
5, 16191, Note_off_c, 2, 76, 64
5, 16222, Note_on_c, 2, 76, 64
5, 16222, Note_on_c, 2, 72, 48
5, 16222, Note_on_c, 2, 81, 39
5, 16237, Note_off_c, 2, 81, 64
5, 16238, Note_off_c, 2, 72, 64
5, 16241, Note_off_c, 2, 76, 64
5, 16270, Note_on_c, 2, 76, 48
5, 16270, Note_on_c, 2, 72, 43
5, 16270, Note_on_c, 2, 81, 35
5, 16285, Note_off_c, 2, 81, 64
5, 16286, Note_off_c, 2, 72, 64
5, 16288, Note_off_c, 2, 76, 64
5, 16318, Note_on_c, 2, 76, 58
5, 16318, Note_on_c, 2, 81, 43
5, 16318, Note_on_c, 2, 72, 35
5, 16333, Note_off_c, 2, 72, 64
5, 16335, Note_off_c, 2, 81, 64
5, 16337, Note_off_c, 2, 76, 64
5, 16366, Note_on_c, 2, 76, 55
5, 16366, Note_on_c, 2, 72, 58
5, 16366, Note_on_c, 2, 81, 39
5, 16380, Note_off_c, 2, 81, 64
5, 16382, Note_off_c, 2, 72, 64
5, 16384, Note_off_c, 2, 76, 64
5, 16414, Note_on_c, 2, 76, 58
5, 16414, Note_on_c, 2, 72, 39
5, 16414, Note_on_c, 2, 81, 39
5, 16428, Note_off_c, 2, 81, 64
5, 16429, Note_off_c, 2, 72, 64
5, 16431, Note_off_c, 2, 76, 64
5, 16462, Note_on_c, 2, 76, 48
5, 16462, Note_on_c, 2, 72, 55
5, 16462, Note_on_c, 2, 81, 39
5, 16476, Note_off_c, 2, 72, 64
5, 16476, Note_off_c, 2, 81, 64
5, 16478, Note_off_c, 2, 76, 64
5, 16510, Note_on_c, 2, 76, 58
5, 16510, Note_on_c, 2, 72, 61
5, 16510, Note_on_c, 2, 81, 43
5, 16524, Note_off_c, 2, 81, 64
5, 16527, Note_off_c, 2, 72, 64
5, 16528, Note_off_c, 2, 76, 64
5, 16558, Note_on_c, 2, 76, 58
5, 16558, Note_on_c, 2, 81, 39
5, 16558, Note_on_c, 2, 72, 43
5, 16572, Note_off_c, 2, 72, 64
5, 16573, Note_off_c, 2, 81, 64
5, 16575, Note_off_c, 2, 76, 64
5, 16606, Note_on_c, 2, 76, 61
5, 16606, Note_on_c, 2, 72, 58
5, 16606, Note_on_c, 2, 81, 48
5, 16620, Note_off_c, 2, 81, 64
5, 16622, Note_off_c, 2, 72, 64
5, 16623, Note_off_c, 2, 76, 64
5, 16654, Note_on_c, 2, 76, 64
5, 16654, Note_on_c, 2, 72, 51
5, 16654, Note_on_c, 2, 81, 51
5, 16669, Note_off_c, 2, 72, 64
5, 16669, Note_off_c, 2, 81, 64
5, 16670, Note_off_c, 2, 76, 64
5, 16702, Note_on_c, 2, 76, 61
5, 16702, Note_on_c, 2, 81, 43
5, 16702, Note_on_c, 2, 72, 43
5, 16715, Note_off_c, 2, 72, 64
5, 16718, Note_off_c, 2, 81, 64
5, 16719, Note_off_c, 2, 76, 64
5, 16750, Note_on_c, 2, 72, 51
5, 16750, Note_on_c, 2, 76, 55
5, 16750, Note_on_c, 2, 81, 58
5, 16765, Note_off_c, 2, 81, 64
5, 16767, Note_off_c, 2, 72, 64
5, 16767, Note_off_c, 2, 76, 64
5, 16798, Note_on_c, 2, 76, 64
5, 16798, Note_on_c, 2, 72, 64
5, 16798, Note_on_c, 2, 81, 43
5, 16812, Note_off_c, 2, 81, 64
5, 16814, Note_off_c, 2, 72, 64
5, 16815, Note_off_c, 2, 76, 64
5, 16846, Note_on_c, 2, 76, 51
5, 16846, Note_on_c, 2, 81, 48
5, 16846, Note_on_c, 2, 72, 55
5, 16860, Note_off_c, 2, 81, 64
5, 16860, Note_off_c, 2, 72, 64
5, 16861, Note_off_c, 2, 76, 64
5, 16894, Note_on_c, 2, 76, 64
5, 16894, Note_on_c, 2, 72, 51
5, 16894, Note_on_c, 2, 81, 48
5, 16908, Note_off_c, 2, 81, 64
5, 16908, Note_off_c, 2, 72, 64
5, 16908, Note_off_c, 2, 76, 64
5, 16942, Note_on_c, 2, 76, 55
5, 16942, Note_on_c, 2, 72, 61
5, 16942, Note_on_c, 2, 81, 48
5, 16958, Note_off_c, 2, 76, 64
5, 16958, Note_off_c, 2, 72, 64
5, 16958, Note_off_c, 2, 81, 64
5, 16990, Note_on_c, 2, 76, 58
5, 16990, Note_on_c, 2, 72, 55
5, 16990, Note_on_c, 2, 81, 39
5, 17004, Note_off_c, 2, 81, 64
5, 17006, Note_off_c, 2, 76, 64
5, 17008, Note_off_c, 2, 72, 64
5, 17038, Note_on_c, 2, 76, 61
5, 17038, Note_on_c, 2, 72, 61
5, 17038, Note_on_c, 2, 81, 58
5, 17052, Note_off_c, 2, 76, 64
5, 17052, Note_off_c, 2, 72, 64
5, 17053, Note_off_c, 2, 81, 64
5, 17086, Note_on_c, 2, 72, 64
5, 17086, Note_on_c, 2, 81, 58
5, 17086, Note_on_c, 2, 76, 64
5, 17102, Note_off_c, 2, 72, 64
5, 17102, Note_off_c, 2, 81, 64
5, 17102, Note_off_c, 2, 76, 64
5, 17134, Note_on_c, 2, 72, 69
5, 17134, Note_on_c, 2, 76, 55
5, 17134, Note_on_c, 2, 81, 43
5, 17148, Note_off_c, 2, 76, 64
5, 17149, Note_off_c, 2, 81, 64
5, 17150, Note_off_c, 2, 72, 64
5, 17182, Note_on_c, 2, 76, 64
5, 17182, Note_on_c, 2, 72, 64
5, 17182, Note_on_c, 2, 81, 51
5, 17197, Note_off_c, 2, 81, 64
5, 17198, Note_off_c, 2, 76, 64
5, 17198, Note_off_c, 2, 72, 64
5, 17230, Note_on_c, 2, 76, 48
5, 17230, Note_on_c, 2, 72, 58
5, 17230, Note_on_c, 2, 81, 48
5, 17244, Note_off_c, 2, 81, 64
5, 17245, Note_off_c, 2, 76, 64
5, 17245, Note_off_c, 2, 72, 64
5, 17278, Note_on_c, 2, 76, 58
5, 17278, Note_on_c, 2, 72, 55
5, 17278, Note_on_c, 2, 81, 51
5, 17293, Note_off_c, 2, 72, 64
5, 17294, Note_off_c, 2, 81, 64
5, 17295, Note_off_c, 2, 76, 64
5, 17326, Note_on_c, 2, 72, 64
5, 17326, Note_on_c, 2, 76, 64
5, 17326, Note_on_c, 2, 81, 43
5, 17341, Note_off_c, 2, 76, 64
5, 17342, Note_off_c, 2, 72, 64
5, 17342, Note_off_c, 2, 81, 64
5, 17374, Note_on_c, 2, 76, 64
5, 17374, Note_on_c, 2, 72, 55
5, 17374, Note_on_c, 2, 81, 48
5, 17388, Note_off_c, 2, 76, 64
5, 17389, Note_off_c, 2, 81, 64
5, 17390, Note_off_c, 2, 72, 64
5, 17422, Note_on_c, 2, 76, 58
5, 17422, Note_on_c, 2, 72, 58
5, 17422, Note_on_c, 2, 81, 51
5, 17436, Note_off_c, 2, 76, 64
5, 17436, Note_off_c, 2, 81, 64
5, 17437, Note_off_c, 2, 72, 64
5, 17470, Note_on_c, 2, 76, 79
5, 17470, Note_on_c, 2, 72, 69
5, 17470, Note_on_c, 2, 81, 58
5, 17485, Note_off_c, 2, 76, 64
5, 17486, Note_off_c, 2, 81, 64
5, 17487, Note_off_c, 2, 72, 64
5, 17518, Note_on_c, 2, 72, 64
5, 17518, Note_on_c, 2, 81, 48
5, 17518, Note_on_c, 2, 76, 64
5, 17532, Note_off_c, 2, 76, 64
5, 17533, Note_off_c, 2, 72, 64
5, 17533, Note_off_c, 2, 81, 64
5, 17566, Note_on_c, 2, 72, 64
5, 17566, Note_on_c, 2, 81, 48
5, 17566, Note_on_c, 2, 76, 64
5, 17580, Note_off_c, 2, 81, 64
5, 17580, Note_off_c, 2, 76, 64
5, 17583, Note_off_c, 2, 72, 64
5, 17614, Note_on_c, 2, 72, 64
5, 17614, Note_on_c, 2, 76, 64
5, 17614, Note_on_c, 2, 81, 51
5, 17629, Note_off_c, 2, 76, 64
5, 17630, Note_off_c, 2, 81, 64
5, 17631, Note_off_c, 2, 72, 64
5, 17662, Note_on_c, 2, 78, 81
5, 17662, Note_on_c, 2, 81, 64
5, 17662, Note_on_c, 2, 74, 61
5, 17674, Note_off_c, 2, 74, 64
5, 17677, Note_off_c, 2, 78, 64
5, 17678, Note_off_c, 2, 81, 64
5, 17710, Note_on_c, 2, 81, 48
5, 17710, Note_on_c, 2, 78, 51
5, 17710, Note_on_c, 2, 74, 55
5, 17723, Note_off_c, 2, 78, 64
5, 17726, Note_off_c, 2, 81, 64
5, 17726, Note_off_c, 2, 74, 64
5, 17758, Note_on_c, 2, 78, 61
5, 17758, Note_on_c, 2, 74, 69
5, 17758, Note_on_c, 2, 81, 51
5, 17772, Note_off_c, 2, 78, 64
5, 17774, Note_off_c, 2, 74, 64
5, 17774, Note_off_c, 2, 81, 64
5, 17806, Note_on_c, 2, 78, 58
5, 17806, Note_on_c, 2, 74, 51
5, 17806, Note_on_c, 2, 81, 39
5, 17819, Note_off_c, 2, 81, 64
5, 17820, Note_off_c, 2, 78, 64
5, 17821, Note_off_c, 2, 74, 64
5, 17854, Note_on_c, 2, 78, 77
5, 17854, Note_on_c, 2, 74, 51
5, 17854, Note_on_c, 2, 81, 48
5, 17869, Note_off_c, 2, 78, 64
5, 17870, Note_off_c, 2, 74, 64
5, 17870, Note_off_c, 2, 81, 64
5, 17902, Note_on_c, 2, 78, 43
5, 17902, Note_on_c, 2, 74, 43
5, 17902, Note_on_c, 2, 81, 39
5, 17917, Note_off_c, 2, 78, 64
5, 17917, Note_off_c, 2, 81, 64
5, 17919, Note_off_c, 2, 74, 64
5, 17950, Note_on_c, 2, 78, 72
5, 17950, Note_on_c, 2, 74, 48
5, 17950, Note_on_c, 2, 81, 39
5, 17965, Note_off_c, 2, 78, 64
5, 17965, Note_off_c, 2, 81, 64
5, 17967, Note_off_c, 2, 74, 64
5, 17998, Note_on_c, 2, 78, 48
5, 17998, Note_on_c, 2, 74, 39
5, 17998, Note_on_c, 2, 81, 51
5, 18012, Note_off_c, 2, 74, 64
5, 18013, Note_off_c, 2, 78, 64
5, 18013, Note_off_c, 2, 81, 64
5, 18046, Note_on_c, 2, 78, 66
5, 18046, Note_on_c, 2, 74, 72
5, 18046, Note_on_c, 2, 81, 51
5, 18061, Note_off_c, 2, 78, 64
5, 18062, Note_off_c, 2, 81, 64
5, 18063, Note_off_c, 2, 74, 64
5, 18094, Note_on_c, 2, 78, 51
5, 18094, Note_on_c, 2, 74, 43
5, 18094, Note_on_c, 2, 81, 55
5, 18109, Note_off_c, 2, 78, 64
5, 18109, Note_off_c, 2, 74, 64
5, 18109, Note_off_c, 2, 81, 64
5, 18142, Note_on_c, 2, 78, 64
5, 18142, Note_on_c, 2, 81, 55
5, 18142, Note_on_c, 2, 74, 51
5, 18156, Note_off_c, 2, 74, 64
5, 18157, Note_off_c, 2, 78, 64
5, 18158, Note_off_c, 2, 81, 64
5, 18190, Note_on_c, 2, 78, 72
5, 18190, Note_on_c, 2, 74, 55
5, 18190, Note_on_c, 2, 81, 48
5, 18205, Note_off_c, 2, 74, 64
5, 18206, Note_off_c, 2, 78, 64
5, 18206, Note_off_c, 2, 81, 64
5, 18238, Note_on_c, 2, 78, 61
5, 18238, Note_on_c, 2, 74, 61
5, 18238, Note_on_c, 2, 81, 43
5, 18253, Note_off_c, 2, 74, 64
5, 18253, Note_off_c, 2, 81, 64
5, 18254, Note_off_c, 2, 78, 64
5, 18286, Note_on_c, 2, 78, 66
5, 18286, Note_on_c, 2, 74, 51
5, 18286, Note_on_c, 2, 81, 55
5, 18300, Note_off_c, 2, 78, 64
5, 18300, Note_off_c, 2, 81, 64
5, 18301, Note_off_c, 2, 74, 64
5, 18334, Note_on_c, 2, 78, 61
5, 18334, Note_on_c, 2, 74, 64
5, 18334, Note_on_c, 2, 81, 43
5, 18347, Note_off_c, 2, 78, 64
5, 18348, Note_off_c, 2, 81, 64
5, 18349, Note_off_c, 2, 74, 64
5, 18382, Note_on_c, 2, 78, 72
5, 18382, Note_on_c, 2, 74, 61
5, 18382, Note_on_c, 2, 81, 43
5, 18395, Note_off_c, 2, 78, 64
5, 18396, Note_off_c, 2, 81, 64
5, 18397, Note_off_c, 2, 74, 64
5, 18430, Note_on_c, 2, 78, 66
5, 18430, Note_on_c, 2, 74, 58
5, 18430, Note_on_c, 2, 81, 51
5, 18442, Note_off_c, 2, 78, 64
5, 18444, Note_off_c, 2, 81, 64
5, 18446, Note_off_c, 2, 74, 64
5, 18478, Note_on_c, 2, 74, 69
5, 18478, Note_on_c, 2, 78, 72
5, 18478, Note_on_c, 2, 81, 55
5, 18492, Note_off_c, 2, 78, 64
5, 18494, Note_off_c, 2, 81, 64
5, 18496, Note_off_c, 2, 74, 64
5, 18526, Note_on_c, 2, 78, 58
5, 18526, Note_on_c, 2, 74, 58
5, 18526, Note_on_c, 2, 81, 35
5, 18541, Note_off_c, 2, 78, 64
5, 18541, Note_off_c, 2, 81, 64
5, 18543, Note_off_c, 2, 74, 64
5, 18574, Note_on_c, 2, 78, 55
5, 18574, Note_on_c, 2, 74, 55
5, 18574, Note_on_c, 2, 81, 30
5, 18588, Note_off_c, 2, 81, 64
5, 18590, Note_off_c, 2, 78, 64
5, 18590, Note_off_c, 2, 74, 64
5, 18622, Note_on_c, 2, 78, 72
5, 18622, Note_on_c, 2, 74, 55
5, 18622, Note_on_c, 2, 81, 39
5, 18637, Note_off_c, 2, 78, 64
5, 18637, Note_off_c, 2, 81, 64
5, 18638, Note_off_c, 2, 74, 64
5, 18670, Note_on_c, 2, 78, 51
5, 18670, Note_on_c, 2, 74, 55
5, 18670, Note_on_c, 2, 81, 35
5, 18686, Note_off_c, 2, 78, 64
5, 18686, Note_off_c, 2, 74, 64
5, 18686, Note_off_c, 2, 81, 64
5, 18718, Note_on_c, 2, 78, 77
5, 18718, Note_on_c, 2, 81, 58
5, 18718, Note_on_c, 2, 74, 72
5, 18731, Note_off_c, 2, 78, 64
5, 18731, Note_off_c, 2, 74, 64
5, 18734, Note_off_c, 2, 81, 64
5, 18766, Note_on_c, 2, 78, 61
5, 18766, Note_on_c, 2, 74, 48
5, 18766, Note_on_c, 2, 81, 39
5, 18778, Note_off_c, 2, 78, 64
5, 18779, Note_off_c, 2, 81, 64
5, 18780, Note_off_c, 2, 74, 64
5, 18814, Note_on_c, 2, 78, 51
5, 18814, Note_on_c, 2, 74, 48
5, 18814, Note_on_c, 2, 81, 43
5, 18827, Note_off_c, 2, 78, 64
5, 18827, Note_off_c, 2, 81, 64
5, 18828, Note_off_c, 2, 74, 64
5, 18862, Note_on_c, 2, 78, 72
5, 18862, Note_on_c, 2, 74, 69
5, 18862, Note_on_c, 2, 81, 55
5, 18875, Note_off_c, 2, 74, 64
5, 18875, Note_off_c, 2, 81, 64
5, 18876, Note_off_c, 2, 78, 64
5, 18910, Note_on_c, 2, 78, 72
5, 18910, Note_on_c, 2, 74, 58
5, 18910, Note_on_c, 2, 81, 51
5, 18922, Note_off_c, 2, 74, 64
5, 18922, Note_off_c, 2, 81, 64
5, 18923, Note_off_c, 2, 78, 64
5, 18958, Note_on_c, 2, 78, 51
5, 18958, Note_on_c, 2, 74, 55
5, 18958, Note_on_c, 2, 81, 43
5, 18971, Note_off_c, 2, 74, 64
5, 18971, Note_off_c, 2, 81, 64
5, 18972, Note_off_c, 2, 78, 64
5, 19006, Note_on_c, 2, 78, 61
5, 19006, Note_on_c, 2, 74, 61
5, 19006, Note_on_c, 2, 81, 48
5, 19018, Note_off_c, 2, 78, 64
5, 19019, Note_off_c, 2, 81, 64
5, 19020, Note_off_c, 2, 74, 64
5, 19054, Note_on_c, 2, 78, 77
5, 19054, Note_on_c, 2, 74, 69
5, 19054, Note_on_c, 2, 81, 55
5, 19067, Note_off_c, 2, 78, 64
5, 19067, Note_off_c, 2, 74, 64
5, 19068, Note_off_c, 2, 81, 64
5, 19102, Note_on_c, 2, 78, 72
5, 19102, Note_on_c, 2, 74, 64
5, 19102, Note_on_c, 2, 81, 35
5, 19113, Note_off_c, 2, 74, 64
5, 19113, Note_off_c, 2, 81, 64
5, 19116, Note_off_c, 2, 78, 64
5, 19150, Note_on_c, 2, 78, 74
5, 19150, Note_on_c, 2, 74, 74
5, 19150, Note_on_c, 2, 81, 39
5, 19164, Note_off_c, 2, 81, 64
5, 19166, Note_off_c, 2, 78, 64
5, 19166, Note_off_c, 2, 74, 64
5, 19198, Note_on_c, 2, 74, 96
5, 19198, Note_on_c, 2, 71, 74
5, 19198, Note_on_c, 2, 79, 55
5, 19210, Note_off_c, 2, 79, 64
5, 19212, Note_off_c, 2, 74, 64
5, 19214, Note_off_c, 2, 71, 64
5, 19246, Note_on_c, 2, 71, 48
5, 19246, Note_on_c, 2, 74, 72
5, 19246, Note_on_c, 2, 79, 8
5, 19253, Note_off_c, 2, 79, 64
5, 19261, Note_off_c, 2, 74, 64
5, 19263, Note_off_c, 2, 71, 64
5, 19294, Note_on_c, 2, 74, 64
5, 19294, Note_on_c, 2, 71, 58
5, 19294, Note_on_c, 2, 79, 48
5, 19308, Note_off_c, 2, 79, 64
5, 19309, Note_off_c, 2, 74, 64
5, 19310, Note_off_c, 2, 71, 64
5, 19342, Note_on_c, 2, 74, 51
5, 19342, Note_on_c, 2, 71, 51
5, 19342, Note_on_c, 2, 79, 43
5, 19354, Note_off_c, 2, 79, 64
5, 19356, Note_off_c, 2, 74, 64
5, 19356, Note_off_c, 2, 71, 64
5, 19390, Note_on_c, 2, 74, 61
5, 19390, Note_on_c, 2, 71, 61
5, 19390, Note_on_c, 2, 79, 48
5, 19405, Note_off_c, 2, 74, 64
5, 19405, Note_off_c, 2, 79, 64
5, 19407, Note_off_c, 2, 71, 64
5, 19438, Note_on_c, 2, 74, 55
5, 19438, Note_on_c, 2, 71, 48
5, 19438, Note_on_c, 2, 79, 48
5, 19452, Note_off_c, 2, 74, 64
5, 19453, Note_off_c, 2, 71, 64
5, 19453, Note_off_c, 2, 79, 64
5, 19486, Note_on_c, 2, 71, 51
5, 19486, Note_on_c, 2, 74, 51
5, 19486, Note_on_c, 2, 79, 39
5, 19499, Note_off_c, 2, 74, 64
5, 19500, Note_off_c, 2, 79, 64
5, 19501, Note_off_c, 2, 71, 64
5, 19534, Note_on_c, 2, 71, 61
5, 19534, Note_on_c, 2, 74, 61
5, 19534, Note_on_c, 2, 79, 48
5, 19548, Note_off_c, 2, 74, 64
5, 19548, Note_off_c, 2, 79, 64
5, 19549, Note_off_c, 2, 71, 64
5, 19582, Note_on_c, 2, 74, 55
5, 19582, Note_on_c, 2, 79, 48
5, 19582, Note_on_c, 2, 71, 48
5, 19595, Note_off_c, 2, 71, 64
5, 19596, Note_off_c, 2, 74, 64
5, 19596, Note_off_c, 2, 79, 64
5, 19630, Note_on_c, 2, 79, 48
5, 19630, Note_on_c, 2, 74, 74
5, 19630, Note_on_c, 2, 71, 61
5, 19644, Note_off_c, 2, 74, 64
5, 19645, Note_off_c, 2, 71, 64
5, 19647, Note_off_c, 2, 79, 64
5, 19678, Note_on_c, 2, 74, 64
5, 19678, Note_on_c, 2, 71, 55
5, 19678, Note_on_c, 2, 79, 43
5, 19691, Note_off_c, 2, 74, 64
5, 19692, Note_off_c, 2, 71, 64
5, 19692, Note_off_c, 2, 79, 64
5, 19726, Note_on_c, 2, 71, 61
5, 19726, Note_on_c, 2, 74, 55
5, 19726, Note_on_c, 2, 79, 39
5, 19740, Note_off_c, 2, 74, 64
5, 19741, Note_off_c, 2, 79, 64
5, 19742, Note_off_c, 2, 71, 64
5, 19774, Note_on_c, 2, 71, 69
5, 19774, Note_on_c, 2, 74, 64
5, 19774, Note_on_c, 2, 79, 43
5, 19788, Note_off_c, 2, 74, 64
5, 19790, Note_off_c, 2, 71, 64
5, 19790, Note_off_c, 2, 79, 64
5, 19822, Note_on_c, 2, 71, 51
5, 19822, Note_on_c, 2, 74, 55
5, 19822, Note_on_c, 2, 79, 48
5, 19836, Note_off_c, 2, 74, 64
5, 19836, Note_off_c, 2, 79, 64
5, 19837, Note_off_c, 2, 71, 64
5, 19870, Note_on_c, 2, 71, 55
5, 19870, Note_on_c, 2, 79, 55
5, 19870, Note_on_c, 2, 74, 51
5, 19883, Note_off_c, 2, 74, 64
5, 19885, Note_off_c, 2, 71, 64
5, 19885, Note_off_c, 2, 79, 64
5, 19918, Note_on_c, 2, 74, 48
5, 19918, Note_on_c, 2, 71, 51
5, 19918, Note_on_c, 2, 79, 48
5, 19931, Note_off_c, 2, 74, 64
5, 19931, Note_off_c, 2, 71, 64
5, 19932, Note_off_c, 2, 79, 64
5, 19966, Note_on_c, 2, 71, 51
5, 19966, Note_on_c, 2, 74, 55
5, 19966, Note_on_c, 2, 79, 35
5, 19979, Note_off_c, 2, 74, 64
5, 19980, Note_off_c, 2, 79, 64
5, 19982, Note_off_c, 2, 71, 64
5, 20014, Note_on_c, 2, 71, 55
5, 20014, Note_on_c, 2, 79, 58
5, 20014, Note_on_c, 2, 74, 64
5, 20029, Note_off_c, 2, 74, 64
5, 20030, Note_off_c, 2, 71, 64
5, 20031, Note_off_c, 2, 79, 64
5, 20062, Note_on_c, 2, 71, 48
5, 20062, Note_on_c, 2, 79, 48
5, 20062, Note_on_c, 2, 74, 58
5, 20076, Note_off_c, 2, 74, 64
5, 20078, Note_off_c, 2, 71, 64
5, 20078, Note_off_c, 2, 79, 64
5, 20110, Note_on_c, 2, 71, 51
5, 20110, Note_on_c, 2, 79, 43
5, 20110, Note_on_c, 2, 74, 39
5, 20122, Note_off_c, 2, 74, 64
5, 20124, Note_off_c, 2, 71, 64
5, 20125, Note_off_c, 2, 79, 64
5, 20158, Note_on_c, 2, 74, 69
5, 20158, Note_on_c, 2, 71, 51
5, 20158, Note_on_c, 2, 79, 48
5, 20171, Note_off_c, 2, 74, 64
5, 20173, Note_off_c, 2, 71, 64
5, 20173, Note_off_c, 2, 79, 64
5, 20206, Note_on_c, 2, 71, 58
5, 20206, Note_on_c, 2, 74, 61
5, 20206, Note_on_c, 2, 79, 48
5, 20220, Note_off_c, 2, 74, 64
5, 20221, Note_off_c, 2, 71, 64
5, 20222, Note_off_c, 2, 79, 64
5, 20254, Note_on_c, 2, 74, 64
5, 20254, Note_on_c, 2, 71, 55
5, 20254, Note_on_c, 2, 79, 48
5, 20268, Note_off_c, 2, 71, 64
5, 20269, Note_off_c, 2, 74, 64
5, 20270, Note_off_c, 2, 79, 64
5, 20302, Note_on_c, 2, 74, 69
5, 20302, Note_on_c, 2, 71, 58
5, 20302, Note_on_c, 2, 79, 48
5, 20316, Note_off_c, 2, 74, 64
5, 20317, Note_off_c, 2, 71, 64
5, 20318, Note_off_c, 2, 79, 64
5, 20350, Note_on_c, 2, 79, 48
5, 20350, Note_on_c, 2, 71, 64
5, 20350, Note_on_c, 2, 74, 58
5, 20364, Note_off_c, 2, 74, 64
5, 20365, Note_off_c, 2, 71, 64
5, 20367, Note_off_c, 2, 79, 64
5, 20398, Note_on_c, 2, 71, 64
5, 20398, Note_on_c, 2, 79, 48
5, 20398, Note_on_c, 2, 74, 74
5, 20411, Note_off_c, 2, 74, 64
5, 20414, Note_off_c, 2, 79, 64
5, 20416, Note_off_c, 2, 71, 64
5, 20446, Note_on_c, 2, 71, 72
5, 20446, Note_on_c, 2, 74, 74
5, 20446, Note_on_c, 2, 79, 51
5, 20462, Note_off_c, 2, 71, 64
5, 20462, Note_off_c, 2, 74, 64
5, 20463, Note_off_c, 2, 79, 64
5, 20494, Note_on_c, 2, 74, 69
5, 20494, Note_on_c, 2, 71, 48
5, 20494, Note_on_c, 2, 79, 51
5, 20507, Note_off_c, 2, 71, 64
5, 20508, Note_off_c, 2, 79, 64
5, 20510, Note_off_c, 2, 74, 64
5, 20542, Note_on_c, 2, 74, 69
5, 20542, Note_on_c, 2, 71, 55
5, 20542, Note_on_c, 2, 79, 51
5, 20556, Note_off_c, 2, 71, 64
5, 20556, Note_off_c, 2, 79, 64
5, 20557, Note_off_c, 2, 74, 64
5, 20590, Note_on_c, 2, 74, 64
5, 20590, Note_on_c, 2, 71, 64
5, 20590, Note_on_c, 2, 79, 48
5, 20604, Note_off_c, 2, 74, 64
5, 20604, Note_off_c, 2, 79, 64
5, 20605, Note_off_c, 2, 71, 64
5, 20638, Note_on_c, 2, 74, 58
5, 20638, Note_on_c, 2, 79, 43
5, 20638, Note_on_c, 2, 71, 64
5, 20651, Note_off_c, 2, 74, 64
5, 20651, Note_off_c, 2, 79, 64
5, 20651, Note_off_c, 2, 71, 64
5, 20686, Note_on_c, 2, 71, 72
5, 20686, Note_on_c, 2, 74, 61
5, 20686, Note_on_c, 2, 79, 39
5, 20699, Note_off_c, 2, 74, 64
5, 20699, Note_off_c, 2, 79, 64
5, 20703, Note_off_c, 2, 71, 64
5, 20734, Note_on_c, 2, 71, 66
5, 20734, Note_on_c, 2, 76, 64
5, 20734, Note_on_c, 2, 79, 55
5, 20748, Note_off_c, 2, 79, 64
5, 20748, Note_off_c, 2, 76, 64
5, 20751, Note_off_c, 2, 71, 64
5, 20782, Note_on_c, 2, 79, 55
5, 20782, Note_on_c, 2, 71, 55
5, 20782, Note_on_c, 2, 76, 51
5, 20796, Note_off_c, 2, 76, 64
5, 20798, Note_off_c, 2, 71, 64
5, 20800, Note_off_c, 2, 79, 64
5, 20830, Note_on_c, 2, 76, 61
5, 20830, Note_on_c, 2, 71, 48
5, 20830, Note_on_c, 2, 79, 55
5, 20844, Note_off_c, 2, 71, 64
5, 20845, Note_off_c, 2, 79, 64
5, 20847, Note_off_c, 2, 76, 64
5, 20878, Note_on_c, 2, 76, 64
5, 20878, Note_on_c, 2, 71, 69
5, 20878, Note_on_c, 2, 79, 35
5, 20893, Note_off_c, 2, 79, 64
5, 20894, Note_off_c, 2, 76, 64
5, 20897, Note_off_c, 2, 71, 64
5, 20926, Note_on_c, 2, 71, 61
5, 20926, Note_on_c, 2, 76, 51
5, 20926, Note_on_c, 2, 79, 26
5, 20939, Note_off_c, 2, 79, 64
5, 20940, Note_off_c, 2, 76, 64
5, 20943, Note_off_c, 2, 71, 64
5, 20974, Note_on_c, 2, 76, 61
5, 20974, Note_on_c, 2, 71, 64
5, 20974, Note_on_c, 2, 79, 61
5, 20989, Note_off_c, 2, 76, 64
5, 20990, Note_off_c, 2, 71, 64
5, 20990, Note_off_c, 2, 79, 64
5, 21022, Note_on_c, 2, 71, 58
5, 21022, Note_on_c, 2, 79, 48
5, 21022, Note_on_c, 2, 76, 58
5, 21037, Note_off_c, 2, 76, 64
5, 21040, Note_off_c, 2, 79, 64
5, 21042, Note_off_c, 2, 71, 64
5, 21070, Note_on_c, 2, 71, 35
5, 21070, Note_on_c, 2, 76, 55
5, 21070, Note_on_c, 2, 79, 39
5, 21084, Note_off_c, 2, 76, 64
5, 21085, Note_off_c, 2, 79, 64
5, 21086, Note_off_c, 2, 71, 64
5, 21118, Note_on_c, 2, 76, 64
5, 21118, Note_on_c, 2, 71, 64
5, 21118, Note_on_c, 2, 79, 43
5, 21134, Note_off_c, 2, 79, 64
5, 21135, Note_off_c, 2, 76, 64
5, 21135, Note_off_c, 2, 71, 64
5, 21166, Note_on_c, 2, 76, 64
5, 21166, Note_on_c, 2, 71, 66
5, 21166, Note_on_c, 2, 79, 43
5, 21181, Note_off_c, 2, 76, 64
5, 21181, Note_off_c, 2, 71, 64
5, 21181, Note_off_c, 2, 79, 64
5, 21214, Note_on_c, 2, 76, 61
5, 21214, Note_on_c, 2, 71, 74
5, 21214, Note_on_c, 2, 79, 48
5, 21229, Note_off_c, 2, 76, 64
5, 21230, Note_off_c, 2, 71, 64
5, 21231, Note_off_c, 2, 79, 64
5, 21262, Note_on_c, 2, 76, 51
5, 21262, Note_on_c, 2, 71, 69
5, 21262, Note_on_c, 2, 79, 43
5, 21275, Note_off_c, 2, 76, 64
5, 21276, Note_off_c, 2, 71, 64
5, 21277, Note_off_c, 2, 79, 64
5, 21310, Note_on_c, 2, 76, 61
5, 21310, Note_on_c, 2, 71, 66
5, 21310, Note_on_c, 2, 79, 43
5, 21325, Note_off_c, 2, 76, 64
5, 21326, Note_off_c, 2, 71, 64
5, 21327, Note_off_c, 2, 79, 64
5, 21358, Note_on_c, 2, 76, 66
5, 21358, Note_on_c, 2, 71, 64
5, 21358, Note_on_c, 2, 79, 58
5, 21372, Note_off_c, 2, 76, 64
5, 21373, Note_off_c, 2, 71, 64
5, 21374, Note_off_c, 2, 79, 64
5, 21406, Note_on_c, 2, 76, 64
5, 21406, Note_on_c, 2, 71, 69
5, 21406, Note_on_c, 2, 79, 48
5, 21422, Note_off_c, 2, 76, 64
5, 21422, Note_off_c, 2, 79, 64
5, 21423, Note_off_c, 2, 71, 64
5, 21454, Note_on_c, 2, 76, 61
5, 21454, Note_on_c, 2, 71, 58
5, 21454, Note_on_c, 2, 79, 43
5, 21469, Note_off_c, 2, 76, 64
5, 21469, Note_off_c, 2, 71, 64
5, 21469, Note_off_c, 2, 79, 64
5, 21502, Note_on_c, 2, 79, 55
5, 21502, Note_on_c, 2, 76, 74
5, 21502, Note_on_c, 2, 71, 66
5, 21517, Note_off_c, 2, 71, 64
5, 21518, Note_off_c, 2, 76, 64
5, 21519, Note_off_c, 2, 79, 64
5, 21550, Note_on_c, 2, 76, 55
5, 21550, Note_on_c, 2, 71, 64
5, 21550, Note_on_c, 2, 79, 30
5, 21565, Note_off_c, 2, 76, 64
5, 21565, Note_off_c, 2, 79, 64
5, 21567, Note_off_c, 2, 71, 64
5, 21598, Note_on_c, 2, 76, 64
5, 21598, Note_on_c, 2, 79, 39
5, 21598, Note_on_c, 2, 71, 72
5, 21613, Note_off_c, 2, 71, 64
5, 21614, Note_off_c, 2, 76, 64
5, 21615, Note_off_c, 2, 79, 64
5, 21646, Note_on_c, 2, 76, 55
5, 21646, Note_on_c, 2, 79, 48
5, 21646, Note_on_c, 2, 71, 64
5, 21659, Note_off_c, 2, 71, 64
5, 21660, Note_off_c, 2, 76, 64
5, 21661, Note_off_c, 2, 79, 64
5, 21694, Note_on_c, 2, 76, 69
5, 21694, Note_on_c, 2, 71, 64
5, 21694, Note_on_c, 2, 79, 51
5, 21710, Note_off_c, 2, 71, 64
5, 21710, Note_off_c, 2, 79, 64
5, 21711, Note_off_c, 2, 76, 64
5, 21742, Note_on_c, 2, 76, 51
5, 21742, Note_on_c, 2, 71, 61
5, 21742, Note_on_c, 2, 79, 48
5, 21757, Note_off_c, 2, 76, 64
5, 21758, Note_off_c, 2, 71, 64
5, 21758, Note_off_c, 2, 79, 64
5, 21790, Note_on_c, 2, 76, 64
5, 21790, Note_on_c, 2, 79, 43
5, 21790, Note_on_c, 2, 71, 64
5, 21805, Note_off_c, 2, 71, 64
5, 21806, Note_off_c, 2, 76, 64
5, 21807, Note_off_c, 2, 79, 64
5, 21838, Note_on_c, 2, 71, 69
5, 21838, Note_on_c, 2, 76, 51
5, 21838, Note_on_c, 2, 79, 35
5, 21852, Note_off_c, 2, 76, 64
5, 21854, Note_off_c, 2, 79, 64
5, 21857, Note_off_c, 2, 71, 64
5, 21886, Note_on_c, 2, 71, 66
5, 21886, Note_on_c, 2, 79, 55
5, 21886, Note_on_c, 2, 76, 61
5, 21900, Note_off_c, 2, 76, 64
5, 21903, Note_off_c, 2, 71, 64
5, 21903, Note_off_c, 2, 79, 64
5, 21934, Note_on_c, 2, 71, 51
5, 21934, Note_on_c, 2, 79, 51
5, 21934, Note_on_c, 2, 76, 64
5, 21947, Note_off_c, 2, 76, 64
5, 21950, Note_off_c, 2, 79, 64
5, 21952, Note_off_c, 2, 71, 64
5, 21982, Note_on_c, 2, 76, 64
5, 21982, Note_on_c, 2, 71, 64
5, 21982, Note_on_c, 2, 79, 48
5, 21997, Note_off_c, 2, 76, 64
5, 21998, Note_off_c, 2, 79, 64
5, 21999, Note_off_c, 2, 71, 64
5, 22030, Note_on_c, 2, 76, 55
5, 22030, Note_on_c, 2, 71, 55
5, 22030, Note_on_c, 2, 79, 43
5, 22044, Note_off_c, 2, 76, 64
5, 22045, Note_off_c, 2, 79, 64
5, 22047, Note_off_c, 2, 71, 64
5, 22078, Note_on_c, 2, 76, 64
5, 22078, Note_on_c, 2, 79, 51
5, 22078, Note_on_c, 2, 71, 64
5, 22092, Note_off_c, 2, 71, 64
5, 22093, Note_off_c, 2, 76, 64
5, 22094, Note_off_c, 2, 79, 64
5, 22126, Note_on_c, 2, 76, 51
5, 22126, Note_on_c, 2, 71, 58
5, 22126, Note_on_c, 2, 79, 48
5, 22139, Note_off_c, 2, 76, 64
5, 22140, Note_off_c, 2, 71, 64
5, 22140, Note_off_c, 2, 79, 64
5, 22174, Note_on_c, 2, 71, 69
5, 22174, Note_on_c, 2, 79, 55
5, 22174, Note_on_c, 2, 76, 64
5, 22188, Note_off_c, 2, 76, 64
5, 22191, Note_off_c, 2, 71, 64
5, 22191, Note_off_c, 2, 79, 64
5, 22222, Note_on_c, 2, 71, 55
5, 22222, Note_on_c, 2, 76, 64
5, 22222, Note_on_c, 2, 79, 48
5, 22238, Note_off_c, 2, 76, 64
5, 22238, Note_off_c, 2, 79, 64
5, 22239, Note_off_c, 2, 71, 64
5, 22270, Note_on_c, 2, 79, 55
5, 22270, Note_on_c, 2, 76, 66
5, 22270, Note_on_c, 2, 72, 77
5, 22282, Note_off_c, 2, 76, 64
5, 22285, Note_off_c, 2, 72, 64
5, 22286, Note_off_c, 2, 79, 64
5, 22318, Note_on_c, 2, 72, 48
5, 22318, Note_on_c, 2, 76, 58
5, 22318, Note_on_c, 2, 79, 43
5, 22331, Note_off_c, 2, 76, 64
5, 22333, Note_off_c, 2, 79, 64
5, 22335, Note_off_c, 2, 72, 64
5, 22366, Note_on_c, 2, 72, 48
5, 22366, Note_on_c, 2, 76, 55
5, 22366, Note_on_c, 2, 79, 48
5, 22379, Note_off_c, 2, 76, 64
5, 22380, Note_off_c, 2, 79, 64
5, 22381, Note_off_c, 2, 72, 64
5, 22414, Note_on_c, 2, 76, 64
5, 22414, Note_on_c, 2, 72, 58
5, 22414, Note_on_c, 2, 79, 51
5, 22428, Note_off_c, 2, 76, 64
5, 22428, Note_off_c, 2, 72, 64
5, 22429, Note_off_c, 2, 79, 64
5, 22462, Note_on_c, 2, 72, 61
5, 22462, Note_on_c, 2, 79, 51
5, 22462, Note_on_c, 2, 76, 58
5, 22475, Note_off_c, 2, 76, 64
5, 22476, Note_off_c, 2, 72, 64
5, 22476, Note_off_c, 2, 79, 64
5, 22510, Note_on_c, 2, 72, 69
5, 22510, Note_on_c, 2, 76, 64
5, 22510, Note_on_c, 2, 79, 43
5, 22524, Note_off_c, 2, 76, 64
5, 22525, Note_off_c, 2, 72, 64
5, 22525, Note_off_c, 2, 79, 64
5, 22558, Note_on_c, 2, 76, 51
5, 22558, Note_on_c, 2, 72, 55
5, 22558, Note_on_c, 2, 79, 51
5, 22571, Note_off_c, 2, 76, 64
5, 22572, Note_off_c, 2, 72, 64
5, 22573, Note_off_c, 2, 79, 64
5, 22606, Note_on_c, 2, 76, 64
5, 22606, Note_on_c, 2, 72, 61
5, 22606, Note_on_c, 2, 79, 51
5, 22620, Note_off_c, 2, 76, 64
5, 22621, Note_off_c, 2, 72, 64
5, 22622, Note_off_c, 2, 79, 64
5, 22654, Note_on_c, 2, 76, 58
5, 22654, Note_on_c, 2, 72, 61
5, 22654, Note_on_c, 2, 79, 51
5, 22669, Note_off_c, 2, 76, 64
5, 22669, Note_off_c, 2, 72, 64
5, 22669, Note_off_c, 2, 79, 64
5, 22702, Note_on_c, 2, 72, 64
5, 22702, Note_on_c, 2, 76, 64
5, 22702, Note_on_c, 2, 79, 48
5, 22716, Note_off_c, 2, 76, 64
5, 22717, Note_off_c, 2, 72, 64
5, 22717, Note_off_c, 2, 79, 64
5, 22750, Note_on_c, 2, 76, 61
5, 22750, Note_on_c, 2, 72, 69
5, 22750, Note_on_c, 2, 79, 61
5, 22766, Note_off_c, 2, 76, 64
5, 22768, Note_off_c, 2, 72, 64
5, 22768, Note_off_c, 2, 79, 64
5, 22798, Note_on_c, 2, 72, 64
5, 22798, Note_on_c, 2, 76, 64
5, 22798, Note_on_c, 2, 79, 55
5, 22811, Note_off_c, 2, 76, 64
5, 22813, Note_off_c, 2, 79, 64
5, 22815, Note_off_c, 2, 72, 64
5, 22846, Note_on_c, 2, 76, 61
5, 22846, Note_on_c, 2, 72, 55
5, 22846, Note_on_c, 2, 79, 43
5, 22860, Note_off_c, 2, 76, 64
5, 22861, Note_off_c, 2, 72, 64
5, 22861, Note_off_c, 2, 79, 64
5, 22894, Note_on_c, 2, 76, 58
5, 22894, Note_on_c, 2, 72, 58
5, 22894, Note_on_c, 2, 79, 43
5, 22907, Note_off_c, 2, 76, 64
5, 22907, Note_off_c, 2, 79, 64
5, 22908, Note_off_c, 2, 72, 64
5, 22942, Note_on_c, 2, 76, 58
5, 22942, Note_on_c, 2, 72, 74
5, 22942, Note_on_c, 2, 79, 43
5, 22956, Note_off_c, 2, 76, 64
5, 22956, Note_off_c, 2, 72, 64
5, 22956, Note_off_c, 2, 79, 64
5, 22990, Note_on_c, 2, 76, 51
5, 22990, Note_on_c, 2, 72, 61
5, 22990, Note_on_c, 2, 79, 39
5, 23003, Note_off_c, 2, 79, 64
5, 23004, Note_off_c, 2, 76, 64
5, 23005, Note_off_c, 2, 72, 64
5, 23038, Note_on_c, 2, 74, 84
5, 23038, Note_on_c, 2, 71, 79
5, 23038, Note_on_c, 2, 79, 51
5, 23055, Note_off_c, 2, 79, 64
5, 23056, Note_off_c, 2, 71, 64
5, 23056, Note_off_c, 2, 74, 64
5, 23086, Note_on_c, 2, 74, 55
5, 23086, Note_on_c, 2, 71, 61
5, 23086, Note_on_c, 2, 79, 51
5, 23101, Note_off_c, 2, 74, 64
5, 23102, Note_off_c, 2, 71, 64
5, 23102, Note_off_c, 2, 79, 64
5, 23134, Note_on_c, 2, 74, 58
5, 23134, Note_on_c, 2, 71, 55
5, 23134, Note_on_c, 2, 79, 55
5, 23149, Note_off_c, 2, 79, 64
5, 23150, Note_off_c, 2, 74, 64
5, 23150, Note_off_c, 2, 71, 64
5, 23182, Note_on_c, 2, 74, 48
5, 23182, Note_on_c, 2, 71, 51
5, 23182, Note_on_c, 2, 79, 30
5, 23196, Note_off_c, 2, 79, 64
5, 23198, Note_off_c, 2, 74, 64
5, 23198, Note_off_c, 2, 71, 64
5, 23230, Note_on_c, 2, 74, 55
5, 23230, Note_on_c, 2, 71, 48
5, 23230, Note_on_c, 2, 79, 35
5, 23245, Note_off_c, 2, 79, 64
5, 23247, Note_off_c, 2, 74, 64
5, 23247, Note_off_c, 2, 71, 64
5, 23278, Note_on_c, 2, 74, 48
5, 23278, Note_on_c, 2, 71, 61
5, 23278, Note_on_c, 2, 79, 39
5, 23292, Note_off_c, 2, 74, 64
5, 23292, Note_off_c, 2, 71, 64
5, 23293, Note_off_c, 2, 79, 64
5, 23326, Note_on_c, 2, 74, 43
5, 23326, Note_on_c, 2, 71, 51
5, 23326, Note_on_c, 2, 79, 35
5, 23341, Note_off_c, 2, 74, 64
5, 23341, Note_off_c, 2, 79, 64
5, 23342, Note_off_c, 2, 71, 64
5, 23374, Note_on_c, 2, 74, 61
5, 23374, Note_on_c, 2, 71, 51
5, 23374, Note_on_c, 2, 79, 51
5, 23388, Note_off_c, 2, 71, 64
5, 23388, Note_off_c, 2, 79, 64
5, 23389, Note_off_c, 2, 74, 64
5, 23422, Note_on_c, 2, 74, 55
5, 23422, Note_on_c, 2, 71, 61
5, 23422, Note_on_c, 2, 79, 51
5, 23436, Note_off_c, 2, 79, 64
5, 23437, Note_off_c, 2, 74, 64
5, 23438, Note_off_c, 2, 71, 64
5, 23470, Note_on_c, 2, 74, 72
5, 23470, Note_on_c, 2, 79, 55
5, 23470, Note_on_c, 2, 71, 69
5, 23485, Note_off_c, 2, 74, 64
5, 23486, Note_off_c, 2, 79, 64
5, 23486, Note_off_c, 2, 71, 64
5, 23518, Note_on_c, 2, 74, 64
5, 23518, Note_on_c, 2, 71, 72
5, 23518, Note_on_c, 2, 79, 51
5, 23532, Note_off_c, 2, 74, 64
5, 23533, Note_off_c, 2, 71, 64
5, 23533, Note_off_c, 2, 79, 64
5, 23566, Note_on_c, 2, 74, 58
5, 23566, Note_on_c, 2, 71, 51
5, 23566, Note_on_c, 2, 79, 39
5, 23580, Note_off_c, 2, 71, 64
5, 23580, Note_off_c, 2, 79, 64
5, 23581, Note_off_c, 2, 74, 64
5, 23614, Note_on_c, 2, 74, 55
5, 23614, Note_on_c, 2, 71, 69
5, 23614, Note_on_c, 2, 79, 51
5, 23628, Note_off_c, 2, 74, 64
5, 23629, Note_off_c, 2, 71, 64
5, 23629, Note_off_c, 2, 79, 64
5, 23662, Note_on_c, 2, 74, 64
5, 23662, Note_on_c, 2, 71, 69
5, 23662, Note_on_c, 2, 79, 51
5, 23675, Note_off_c, 2, 74, 64
5, 23676, Note_off_c, 2, 79, 64
5, 23677, Note_off_c, 2, 71, 64
5, 23710, Note_on_c, 2, 74, 58
5, 23710, Note_on_c, 2, 71, 64
5, 23710, Note_on_c, 2, 79, 51
5, 23724, Note_off_c, 2, 74, 64
5, 23725, Note_off_c, 2, 71, 64
5, 23725, Note_off_c, 2, 79, 64
5, 23758, Note_on_c, 2, 74, 64
5, 23758, Note_on_c, 2, 79, 55
5, 23758, Note_on_c, 2, 71, 51
5, 23772, Note_off_c, 2, 71, 64
5, 23774, Note_off_c, 2, 79, 64
5, 23776, Note_off_c, 2, 74, 64
5, 23806, Note_on_c, 2, 74, 74
5, 23806, Note_on_c, 2, 78, 66
5, 23806, Note_on_c, 2, 69, 51
5, 23822, Note_off_c, 2, 69, 64
5, 23826, Note_off_c, 2, 78, 64
5, 23829, Note_off_c, 2, 74, 64
5, 23854, Note_on_c, 2, 78, 26
5, 23854, Note_on_c, 2, 74, 58
5, 23854, Note_on_c, 2, 69, 35
5, 23870, Note_off_c, 2, 78, 64
5, 23870, Note_off_c, 2, 69, 64
5, 23872, Note_off_c, 2, 74, 64
5, 23902, Note_on_c, 2, 69, 18
5, 23902, Note_on_c, 2, 78, 55
5, 23902, Note_on_c, 2, 74, 39
5, 23918, Note_off_c, 2, 78, 64
5, 23919, Note_off_c, 2, 74, 64
5, 23921, Note_off_c, 2, 69, 64
5, 23950, Note_on_c, 2, 78, 48
5, 23950, Note_on_c, 2, 74, 51
5, 23950, Note_on_c, 2, 69, 18
5, 23968, Note_off_c, 2, 69, 64
5, 23969, Note_off_c, 2, 78, 64
5, 23969, Note_off_c, 2, 74, 64
5, 23998, Note_on_c, 2, 78, 39
5, 23998, Note_on_c, 2, 74, 58
5, 23998, Note_on_c, 2, 69, 18
5, 24015, Note_off_c, 2, 78, 64
5, 24015, Note_off_c, 2, 69, 64
5, 24018, Note_off_c, 2, 74, 64
5, 24046, Note_on_c, 2, 78, 55
5, 24046, Note_on_c, 2, 74, 58
5, 24046, Note_on_c, 2, 69, 26
5, 24062, Note_off_c, 2, 78, 64
5, 24063, Note_off_c, 2, 69, 64
5, 24064, Note_off_c, 2, 74, 64
5, 24094, Note_on_c, 2, 74, 58
5, 24094, Note_on_c, 2, 78, 39
5, 24094, Note_on_c, 2, 69, 30
5, 24109, Note_off_c, 2, 78, 64
5, 24111, Note_off_c, 2, 69, 64
5, 24112, Note_off_c, 2, 74, 64
5, 24142, Note_on_c, 2, 78, 51
5, 24142, Note_on_c, 2, 74, 51
5, 24142, Note_on_c, 2, 69, 43
5, 24158, Note_off_c, 2, 78, 64
5, 24159, Note_off_c, 2, 74, 64
5, 24159, Note_off_c, 2, 69, 64
5, 24190, Note_on_c, 2, 69, 39
5, 24190, Note_on_c, 2, 78, 55
5, 24190, Note_on_c, 2, 74, 58
5, 24205, Note_off_c, 2, 74, 64
5, 24206, Note_off_c, 2, 78, 64
5, 24208, Note_off_c, 2, 69, 64
5, 24238, Note_on_c, 2, 74, 48
5, 24238, Note_on_c, 2, 69, 35
5, 24238, Note_on_c, 2, 78, 35
5, 24252, Note_off_c, 2, 78, 64
5, 24254, Note_off_c, 2, 74, 64
5, 24254, Note_off_c, 2, 69, 64
5, 24286, Note_on_c, 2, 78, 61
5, 24286, Note_on_c, 2, 74, 64
5, 24286, Note_on_c, 2, 69, 39
5, 24300, Note_off_c, 2, 78, 64
5, 24301, Note_off_c, 2, 74, 64
5, 24302, Note_off_c, 2, 69, 64
5, 24334, Note_on_c, 2, 69, 39
5, 24334, Note_on_c, 2, 78, 30
5, 24334, Note_on_c, 2, 74, 48
5, 24348, Note_off_c, 2, 78, 64
5, 24349, Note_off_c, 2, 69, 64
5, 24349, Note_off_c, 2, 74, 64
5, 24382, Note_on_c, 2, 78, 72
5, 24382, Note_on_c, 2, 74, 55
5, 24382, Note_on_c, 2, 69, 58
5, 24398, Note_off_c, 2, 78, 64
5, 24398, Note_off_c, 2, 69, 64
5, 24399, Note_off_c, 2, 74, 64
5, 24430, Note_on_c, 2, 74, 64
5, 24430, Note_on_c, 2, 69, 35
5, 24430, Note_on_c, 2, 78, 58
5, 24444, Note_off_c, 2, 78, 64
5, 24445, Note_off_c, 2, 74, 64
5, 24446, Note_off_c, 2, 69, 64
5, 24478, Note_on_c, 2, 78, 51
5, 24478, Note_on_c, 2, 69, 39
5, 24478, Note_on_c, 2, 74, 58
5, 24493, Note_off_c, 2, 74, 64
5, 24494, Note_off_c, 2, 78, 64
5, 24494, Note_off_c, 2, 69, 64
5, 24526, Note_on_c, 2, 78, 51
5, 24526, Note_on_c, 2, 74, 64
5, 24526, Note_on_c, 2, 69, 48
5, 24542, Note_off_c, 2, 78, 64
5, 24542, Note_off_c, 2, 74, 64
5, 24545, Note_off_c, 2, 69, 64
5, 24574, Note_on_c, 2, 69, 39
5, 24574, Note_on_c, 2, 74, 69
5, 24574, Note_on_c, 2, 78, 48
5, 24587, Note_off_c, 2, 78, 64
5, 24588, Note_off_c, 2, 74, 64
5, 24590, Note_off_c, 2, 69, 64
5, 24622, Note_on_c, 2, 78, 55
5, 24622, Note_on_c, 2, 74, 55
5, 24622, Note_on_c, 2, 69, 43
5, 24636, Note_off_c, 2, 74, 64
5, 24637, Note_off_c, 2, 78, 64
5, 24637, Note_off_c, 2, 69, 64
5, 24670, Note_on_c, 2, 69, 26
5, 24670, Note_on_c, 2, 78, 51
5, 24670, Note_on_c, 2, 74, 66
5, 24685, Note_off_c, 2, 78, 64
5, 24685, Note_off_c, 2, 74, 64
5, 24686, Note_off_c, 2, 69, 64
5, 24718, Note_on_c, 2, 78, 48
5, 24718, Note_on_c, 2, 74, 48
5, 24718, Note_on_c, 2, 69, 43
5, 24733, Note_off_c, 2, 78, 64
5, 24734, Note_off_c, 2, 74, 64
5, 24734, Note_off_c, 2, 69, 64
5, 24766, Note_on_c, 2, 78, 72
5, 24766, Note_on_c, 2, 69, 48
5, 24766, Note_on_c, 2, 74, 58
5, 24781, Note_off_c, 2, 74, 64
5, 24782, Note_off_c, 2, 78, 64
5, 24783, Note_off_c, 2, 69, 64
5, 24814, Note_on_c, 2, 78, 58
5, 24814, Note_on_c, 2, 74, 58
5, 24814, Note_on_c, 2, 69, 48
5, 24829, Note_off_c, 2, 74, 64
5, 24830, Note_off_c, 2, 78, 64
5, 24831, Note_off_c, 2, 69, 64
5, 24862, Note_on_c, 2, 69, 48
5, 24862, Note_on_c, 2, 74, 64
5, 24862, Note_on_c, 2, 78, 51
5, 24877, Note_off_c, 2, 78, 64
5, 24878, Note_off_c, 2, 74, 64
5, 24880, Note_off_c, 2, 69, 64
5, 24910, Note_on_c, 2, 78, 43
5, 24910, Note_on_c, 2, 74, 61
5, 24910, Note_on_c, 2, 69, 30
5, 24926, Note_off_c, 2, 78, 64
5, 24926, Note_off_c, 2, 74, 64
5, 24927, Note_off_c, 2, 69, 64
5, 24958, Note_on_c, 2, 69, 43
5, 24958, Note_on_c, 2, 78, 51
5, 24958, Note_on_c, 2, 74, 72
5, 24973, Note_off_c, 2, 74, 64
5, 24974, Note_off_c, 2, 78, 64
5, 24977, Note_off_c, 2, 69, 64
5, 25006, Note_on_c, 2, 78, 51
5, 25006, Note_on_c, 2, 69, 43
5, 25006, Note_on_c, 2, 74, 55
5, 25020, Note_off_c, 2, 74, 64
5, 25022, Note_off_c, 2, 78, 64
5, 25022, Note_off_c, 2, 69, 64
5, 25054, Note_on_c, 2, 78, 61
5, 25054, Note_on_c, 2, 69, 48
5, 25054, Note_on_c, 2, 74, 64
5, 25067, Note_off_c, 2, 74, 64
5, 25069, Note_off_c, 2, 78, 64
5, 25070, Note_off_c, 2, 69, 64
5, 25102, Note_on_c, 2, 69, 30
5, 25102, Note_on_c, 2, 78, 51
5, 25102, Note_on_c, 2, 74, 69
5, 25117, Note_off_c, 2, 78, 64
5, 25117, Note_off_c, 2, 74, 64
5, 25118, Note_off_c, 2, 69, 64
5, 25150, Note_on_c, 2, 78, 66
5, 25150, Note_on_c, 2, 74, 55
5, 25150, Note_on_c, 2, 69, 48
5, 25164, Note_off_c, 2, 69, 64
5, 25165, Note_off_c, 2, 74, 64
5, 25166, Note_off_c, 2, 78, 64
5, 25198, Note_on_c, 2, 78, 66
5, 25198, Note_on_c, 2, 74, 58
5, 25198, Note_on_c, 2, 69, 43
5, 25211, Note_off_c, 2, 74, 64
5, 25211, Note_off_c, 2, 69, 64
5, 25213, Note_off_c, 2, 78, 64
5, 25246, Note_on_c, 2, 78, 72
5, 25246, Note_on_c, 2, 69, 55
5, 25246, Note_on_c, 2, 74, 58
5, 25260, Note_off_c, 2, 78, 64
5, 25260, Note_off_c, 2, 74, 64
5, 25264, Note_off_c, 2, 69, 64
5, 25294, Note_on_c, 2, 78, 51
5, 25294, Note_on_c, 2, 74, 58
5, 25294, Note_on_c, 2, 69, 26
5, 25307, Note_off_c, 2, 74, 64
5, 25307, Note_off_c, 2, 69, 64
5, 25309, Note_off_c, 2, 78, 64
5, 25309, End_track
6, 0, Start_track
6, 0, MIDI_port, 1
6, 0, Title_t, "Clean Gt.           "
6, 0, Control_c, 3, 0, 0
6, 48, Program_c, 3, 27
6, 48, Pitch_bend_c, 3, 8192
6, 48, Control_c, 3, 7, 115
6, 48, Control_c, 3, 10, 34
6, 96, Control_c, 3, 91, 100
6, 96, Control_c, 3, 93, 25
6, 96, Control_c, 3, 100, 0
6, 96, Control_c, 3, 101, 0
6, 144, Control_c, 3, 6, 2
6, 13056, Pitch_bend_c, 3, 0
6, 13056, Note_on_c, 3, 57, 108
6, 13152, Pitch_bend_c, 3, 8192
6, 13344, Note_on_c, 3, 59, 112
6, 13351, Note_off_c, 3, 57, 64
6, 13971, Note_off_c, 3, 59, 64
6, 14016, Pitch_bend_c, 3, 0
6, 14016, Note_on_c, 3, 59, 105
6, 14112, Pitch_bend_c, 3, 8192
6, 14574, Note_off_c, 3, 59, 64
6, 14592, Note_on_c, 3, 60, 115
6, 14688, Note_off_c, 3, 60, 64
6, 14688, Note_on_c, 3, 60, 105
6, 14783, Note_off_c, 3, 60, 64
6, 14784, Pitch_bend_c, 3, 0
6, 14784, Note_on_c, 3, 64, 115
6, 14880, Pitch_bend_c, 3, 8192
6, 15360, Note_off_c, 3, 64, 64
6, 15360, Note_on_c, 3, 60, 115
6, 15456, Note_on_c, 3, 62, 96
6, 15471, Note_off_c, 3, 60, 64
6, 15552, Pitch_bend_c, 3, 0
6, 15552, Note_on_c, 3, 64, 112
6, 15559, Note_off_c, 3, 62, 64
6, 15648, Pitch_bend_c, 3, 8192
6, 16121, Note_off_c, 3, 64, 65
6, 16128, Note_on_c, 3, 57, 105
6, 16224, Note_on_c, 3, 59, 90
6, 16246, Note_off_c, 3, 57, 64
6, 16302, Note_off_c, 3, 59, 64
6, 16320, Note_on_c, 3, 59, 115
6, 16416, Note_on_c, 3, 60, 86
6, 16420, Note_off_c, 3, 59, 64
6, 16895, Note_off_c, 3, 60, 64
6, 16896, Pitch_bend_c, 3, 0
6, 16896, Note_on_c, 3, 59, 112
6, 16992, Pitch_bend_c, 3, 8192
6, 17083, Note_off_c, 3, 59, 64
6, 17088, Pitch_bend_c, 3, 4096
6, 17088, Note_on_c, 3, 60, 115
6, 17184, Pitch_bend_c, 3, 8192
6, 17664, Note_off_c, 3, 60, 64
6, 17664, Note_on_c, 3, 62, 115
6, 17664, Note_on_c, 3, 54, 115
6, 17760, Note_on_c, 3, 64, 84
6, 17760, Note_on_c, 3, 55, 94
6, 17774, Note_off_c, 3, 62, 64
6, 17777, Note_off_c, 3, 54, 64
6, 17837, Note_off_c, 3, 64, 64
6, 17840, Note_off_c, 3, 55, 64
6, 17856, Note_on_c, 3, 64, 115
6, 17856, Note_on_c, 3, 55, 114
6, 17951, Note_off_c, 3, 55, 64
6, 17952, Note_on_c, 3, 66, 88
6, 17952, Note_on_c, 3, 57, 97
6, 17956, Note_off_c, 3, 64, 64
6, 18336, Note_off_c, 3, 66, 64
6, 18336, Note_off_c, 3, 57, 64
6, 18336, Note_on_c, 3, 64, 103
6, 18336, Note_on_c, 3, 69, 103
6, 18409, Note_off_c, 3, 64, 64
6, 18410, Note_off_c, 3, 69, 64
6, 18432, Note_on_c, 3, 64, 103
6, 18432, Note_on_c, 3, 69, 97
6, 18480, Note_on_c, 3, 66, 103
6, 18481, Note_off_c, 3, 64, 64
6, 18519, Note_off_c, 3, 69, 64
6, 18520, Note_off_c, 3, 66, 64
6, 18528, Note_on_c, 3, 69, 84
6, 18528, Note_on_c, 3, 66, 103
6, 18613, Note_off_c, 3, 69, 64
6, 18613, Note_off_c, 3, 66, 64
6, 18624, Note_on_c, 3, 69, 96
6, 18624, Note_on_c, 3, 66, 110
6, 19172, Note_off_c, 3, 69, 64
6, 19172, Note_off_c, 3, 66, 64
6, 19584, Note_on_c, 3, 67, 115
6, 19584, Note_on_c, 3, 55, 115
6, 19728, Note_on_c, 3, 54, 115
6, 19728, Note_on_c, 3, 66, 115
6, 19738, Note_off_c, 3, 55, 64
6, 19740, Note_off_c, 3, 67, 64
6, 19872, Note_on_c, 3, 59, 94
6, 19872, Note_on_c, 3, 47, 91
6, 19875, Note_off_c, 3, 54, 64
6, 19878, Note_off_c, 3, 66, 64
6, 19968, Note_on_c, 3, 50, 115
6, 19968, Note_on_c, 3, 62, 115
6, 19970, Note_off_c, 3, 47, 64
6, 19982, Note_off_c, 3, 59, 64
6, 20640, Note_off_c, 3, 62, 64
6, 20642, Note_off_c, 3, 50, 64
6, 21024, Note_on_c, 3, 52, 105
6, 21072, Note_on_c, 3, 54, 80
6, 21082, Note_off_c, 3, 52, 64
6, 21120, Note_on_c, 3, 55, 115
6, 21124, Note_off_c, 3, 54, 64
6, 21263, Note_off_c, 3, 55, 64
6, 21264, Note_on_c, 3, 54, 112
6, 21408, Note_on_c, 3, 52, 110
6, 21409, Note_off_c, 3, 54, 64
6, 21456, Note_on_c, 3, 50, 84
6, 21458, Note_off_c, 3, 52, 64
6, 21504, Note_on_c, 3, 52, 97
6, 21509, Note_off_c, 3, 50, 64
6, 21538, Note_off_c, 3, 52, 64
6, 21552, Note_on_c, 3, 52, 94
6, 21784, Note_off_c, 3, 52, 64
6, 21792, Note_on_c, 3, 52, 84
6, 21826, Note_off_c, 3, 52, 64
6, 21840, Note_on_c, 3, 52, 91
6, 21877, Note_off_c, 3, 52, 64
6, 21888, Note_on_c, 3, 52, 115
6, 22151, Note_off_c, 3, 52, 64
6, 22272, Note_on_c, 3, 48, 115
6, 22416, Note_on_c, 3, 50, 107
6, 22432, Note_off_c, 3, 48, 64
6, 22464, Note_on_c, 3, 52, 91
6, 22480, Note_off_c, 3, 50, 64
6, 22512, Note_off_c, 3, 52, 64
6, 22512, Note_on_c, 3, 55, 105
6, 22560, Note_on_c, 3, 62, 98
6, 22582, Note_off_c, 3, 55, 64
6, 22656, Note_on_c, 3, 67, 115
6, 22668, Note_off_c, 3, 62, 64
6, 22752, Note_on_c, 3, 66, 100
6, 22780, Note_off_c, 3, 67, 64
6, 22848, Note_on_c, 3, 55, 115
6, 22853, Note_off_c, 3, 66, 64
6, 22944, Note_on_c, 3, 57, 100
6, 22956, Note_off_c, 3, 55, 64
6, 23040, Note_off_c, 3, 57, 64
6, 23184, Note_on_c, 3, 47, 115
6, 23232, Note_on_c, 3, 50, 97
6, 23252, Note_off_c, 3, 47, 64
6, 23328, Note_on_c, 3, 57, 115
6, 23343, Note_off_c, 3, 50, 64
6, 23424, Note_on_c, 3, 59, 105
6, 23429, Note_off_c, 3, 57, 64
6, 23616, Note_on_c, 3, 55, 97
6, 23630, Note_off_c, 3, 59, 64
6, 23806, Note_off_c, 3, 55, 64
6, 23808, Note_on_c, 3, 50, 105
6, 24336, Note_on_c, 3, 54, 115
6, 24341, Note_off_c, 3, 50, 64
6, 24480, Note_on_c, 3, 52, 115
6, 24486, Note_off_c, 3, 54, 64
6, 24672, Note_off_c, 3, 52, 64
6, 24672, Note_on_c, 3, 67, 115
6, 24768, Note_on_c, 3, 66, 98
6, 24803, Note_off_c, 3, 67, 64
6, 24864, Note_on_c, 3, 64, 93
6, 24874, Note_off_c, 3, 66, 64
6, 24960, Note_on_c, 3, 62, 100
6, 24980, Note_off_c, 3, 64, 64
6, 25336, Note_off_c, 3, 62, 65
6, 25344, Note_on_c, 3, 62, 104
6, 25344, Note_on_c, 3, 67, 111
6, 26112, Note_off_c, 3, 62, 64
6, 26112, Note_off_c, 3, 67, 64
6, 26208, Note_on_c, 3, 69, 115
6, 26208, Note_on_c, 3, 62, 115
6, 26487, Note_off_c, 3, 62, 64
6, 26492, Note_off_c, 3, 69, 64
6, 26496, Note_on_c, 3, 62, 114
6, 26496, Note_on_c, 3, 67, 115
6, 26873, Note_off_c, 3, 62, 65
6, 26873, Note_off_c, 3, 67, 65
6, 27264, Note_on_c, 3, 67, 115
6, 27264, Note_on_c, 3, 60, 115
6, 27360, Note_on_c, 3, 69, 111
6, 27372, Note_off_c, 3, 67, 64
6, 27456, Note_on_c, 3, 71, 113
6, 27462, Note_off_c, 3, 69, 64
6, 27552, Note_on_c, 3, 64, 111
6, 27649, Note_off_c, 3, 71, 64
6, 28405, Note_off_c, 3, 60, 64
6, 28406, Note_off_c, 3, 64, 64
6, 28512, Note_on_c, 3, 69, 115
6, 28512, Note_on_c, 3, 64, 109
6, 28800, Note_on_c, 3, 72, 115
6, 28802, Note_off_c, 3, 69, 64
6, 28848, Note_on_c, 3, 69, 101
6, 28865, Note_off_c, 3, 64, 64
6, 28869, Note_off_c, 3, 72, 64
6, 28896, Note_on_c, 3, 64, 96
6, 28944, Note_on_c, 3, 71, 107
6, 29009, Note_off_c, 3, 64, 64
6, 29040, Note_on_c, 3, 64, 101
6, 29046, Note_off_c, 3, 69, 64
6, 29082, Note_off_c, 3, 71, 64
6, 29088, Note_on_c, 3, 69, 111
6, 29184, Note_on_c, 3, 60, 107
6, 29185, Note_off_c, 3, 64, 65
6, 29199, Note_off_c, 3, 69, 65
6, 29943, Note_off_c, 3, 60, 64
6, 30336, Note_on_c, 3, 66, 115
6, 30336, Note_on_c, 3, 62, 112
6, 30480, Note_on_c, 3, 67, 108
6, 30499, Note_off_c, 3, 66, 64
6, 30624, Note_on_c, 3, 69, 108
6, 30702, Note_off_c, 3, 62, 64
6, 30712, Note_off_c, 3, 67, 64
6, 30720, Note_on_c, 3, 62, 115
6, 31488, Note_off_c, 3, 69, 64
6, 31488, Note_off_c, 3, 62, 64
6, 31488, Note_on_c, 3, 55, 111
6, 31488, Note_on_c, 3, 67, 115
6, 31488, Note_on_c, 3, 62, 115
6, 31856, Note_off_c, 3, 62, 64
6, 31857, Note_off_c, 3, 67, 64
6, 31872, Note_on_c, 3, 62, 115
6, 31872, Note_on_c, 3, 67, 115
6, 31968, Note_on_c, 3, 69, 115
6, 31979, Note_off_c, 3, 67, 64
6, 32064, Note_on_c, 3, 71, 112
6, 32070, Note_off_c, 3, 69, 64
6, 32160, Note_on_c, 3, 67, 115
6, 32174, Note_off_c, 3, 71, 64
6, 32346, Note_off_c, 3, 67, 64
6, 32352, Note_on_c, 3, 71, 111
6, 32352, Note_on_c, 3, 67, 109
6, 33017, Note_off_c, 3, 67, 64
6, 33018, Note_off_c, 3, 71, 64
6, 33024, Note_off_c, 3, 62, 64
6, 33024, Note_off_c, 3, 55, 64
6, 33024, Note_on_c, 3, 55, 115
6, 33024, Note_on_c, 3, 60, 109
6, 33024, Note_on_c, 3, 48, 115
6, 33408, Note_on_c, 3, 67, 115
6, 33504, Note_on_c, 3, 69, 115
6, 33519, Note_off_c, 3, 67, 64
6, 33600, Note_on_c, 3, 71, 115
6, 33607, Note_off_c, 3, 69, 64
6, 33696, Note_on_c, 3, 64, 115
6, 33705, Note_off_c, 3, 71, 64
6, 34474, Note_off_c, 3, 48, 64
6, 34474, Note_off_c, 3, 60, 64
6, 34475, Note_off_c, 3, 55, 64
6, 34477, Note_off_c, 3, 64, 64
6, 34560, Note_on_c, 3, 52, 111
6, 34560, Note_on_c, 3, 45, 115
6, 34704, Note_on_c, 3, 72, 101
6, 34752, Note_on_c, 3, 69, 106
6, 34800, Note_on_c, 3, 64, 101
6, 34808, Note_off_c, 3, 69, 64
6, 34812, Note_off_c, 3, 72, 64
6, 34848, Note_on_c, 3, 69, 99
6, 34896, Note_on_c, 3, 72, 108
6, 35301, Note_off_c, 3, 72, 64
6, 35304, Note_off_c, 3, 45, 64
6, 35305, Note_off_c, 3, 64, 64
6, 35305, Note_off_c, 3, 69, 64
6, 35310, Note_off_c, 3, 52, 64
6, 35328, Note_on_c, 3, 50, 115
6, 35328, Note_on_c, 3, 57, 111
6, 35472, Note_on_c, 3, 62, 107
6, 35472, Note_on_c, 3, 66, 99
6, 35510, Note_off_c, 3, 62, 64
6, 35511, Note_off_c, 3, 66, 64
6, 35520, Note_on_c, 3, 66, 113
6, 35520, Note_on_c, 3, 62, 115
6, 35692, Note_off_c, 3, 57, 64
6, 35700, Note_off_c, 3, 50, 64
6, 35712, Note_on_c, 3, 55, 111
6, 35712, Note_on_c, 3, 48, 102
6, 35837, Note_off_c, 3, 62, 64
6, 35856, Note_on_c, 3, 67, 103
6, 35856, Note_on_c, 3, 60, 102
6, 35866, Note_off_c, 3, 66, 64
6, 35891, Note_off_c, 3, 60, 64
6, 35892, Note_off_c, 3, 67, 64
6, 35904, Note_on_c, 3, 67, 115
6, 35904, Note_on_c, 3, 60, 112
6, 36093, Note_off_c, 3, 67, 64
6, 36093, Note_off_c, 3, 60, 64
6, 36095, Note_off_c, 3, 55, 64
6, 36095, Note_off_c, 3, 48, 64
6, 36096, Note_on_c, 3, 43, 115
6, 36096, Note_on_c, 3, 62, 115
6, 36096, Note_on_c, 3, 50, 115
6, 36096, Note_on_c, 3, 67, 115
6, 36702, Note_off_c, 3, 43, 64
6, 36703, Note_off_c, 3, 50, 64
6, 36720, Note_on_c, 3, 43, 111
6, 36720, Note_on_c, 3, 50, 115
6, 36748, Note_off_c, 3, 62, 64
6, 36751, Note_off_c, 3, 67, 64
6, 36768, Note_on_c, 3, 67, 115
6, 36768, Note_on_c, 3, 62, 115
6, 36768, Note_on_c, 3, 69, 115
6, 36796, Note_off_c, 3, 62, 64
6, 36816, Note_on_c, 3, 62, 115
6, 36833, Note_off_c, 3, 69, 64
6, 36840, Note_off_c, 3, 67, 64
6, 36864, Note_on_c, 3, 71, 112
6, 36864, Note_on_c, 3, 67, 113
6, 36988, Note_off_c, 3, 43, 64
6, 36991, Note_off_c, 3, 50, 64
6, 37008, Note_on_c, 3, 43, 112
6, 37008, Note_on_c, 3, 50, 111
6, 37080, Note_off_c, 3, 62, 64
6, 37104, Note_on_c, 3, 62, 115
6, 37141, Note_off_c, 3, 67, 64
6, 37152, Note_on_c, 3, 67, 107
6, 37152, Note_on_c, 3, 69, 115
6, 37162, Note_off_c, 3, 71, 64
6, 37200, Note_on_c, 3, 71, 106
6, 37225, Note_off_c, 3, 69, 64
6, 37236, Note_off_c, 3, 71, 64
6, 37237, Note_off_c, 3, 67, 64
6, 37248, Note_on_c, 3, 67, 109
6, 37248, Note_on_c, 3, 69, 115
6, 37248, Note_on_c, 3, 72, 115
6, 37281, Note_off_c, 3, 72, 64
6, 37296, Note_on_c, 3, 71, 115
6, 37344, Note_on_c, 3, 72, 115
6, 37356, Note_off_c, 3, 71, 64
6, 37358, Note_off_c, 3, 69, 64
6, 37372, Note_off_c, 3, 67, 64
6, 37375, Note_off_c, 3, 62, 64
6, 37392, Note_on_c, 3, 67, 108
6, 37392, Note_on_c, 3, 62, 99
6, 37392, Note_on_c, 3, 69, 115
6, 37402, Note_off_c, 3, 72, 64
6, 37464, Note_off_c, 3, 62, 64
6, 37468, Note_off_c, 3, 67, 64
6, 37488, Note_on_c, 3, 62, 112
6, 37488, Note_on_c, 3, 67, 113
6, 37496, Note_off_c, 3, 69, 64
6, 37634, Note_off_c, 3, 50, 64
6, 37634, Note_off_c, 3, 43, 64
6, 37635, Note_off_c, 3, 67, 64
6, 37635, Note_off_c, 3, 62, 64
6, 44544, Note_on_c, 3, 62, 104
6, 44544, Note_on_c, 3, 67, 111
6, 45312, Note_off_c, 3, 62, 64
6, 45312, Note_off_c, 3, 67, 64
6, 45408, Note_on_c, 3, 69, 115
6, 45408, Note_on_c, 3, 62, 115
6, 45687, Note_off_c, 3, 62, 64
6, 45692, Note_off_c, 3, 69, 64
6, 45696, Note_on_c, 3, 62, 114
6, 45696, Note_on_c, 3, 67, 115
6, 46073, Note_off_c, 3, 62, 65
6, 46073, Note_off_c, 3, 67, 65
6, 46464, Note_on_c, 3, 67, 115
6, 46464, Note_on_c, 3, 60, 115
6, 46560, Note_on_c, 3, 69, 111
6, 46572, Note_off_c, 3, 67, 64
6, 46656, Note_on_c, 3, 71, 113
6, 46662, Note_off_c, 3, 69, 64
6, 46752, Note_on_c, 3, 64, 111
6, 46849, Note_off_c, 3, 71, 64
6, 47605, Note_off_c, 3, 60, 64
6, 47606, Note_off_c, 3, 64, 64
6, 47712, Note_on_c, 3, 69, 115
6, 47712, Note_on_c, 3, 64, 109
6, 48000, Note_on_c, 3, 72, 115
6, 48002, Note_off_c, 3, 69, 64
6, 48048, Note_on_c, 3, 69, 101
6, 48065, Note_off_c, 3, 64, 64
6, 48069, Note_off_c, 3, 72, 64
6, 48096, Note_on_c, 3, 64, 96
6, 48144, Note_on_c, 3, 71, 107
6, 48209, Note_off_c, 3, 64, 64
6, 48240, Note_on_c, 3, 64, 101
6, 48246, Note_off_c, 3, 69, 64
6, 48282, Note_off_c, 3, 71, 64
6, 48288, Note_on_c, 3, 69, 111
6, 48375, Note_off_c, 3, 69, 65
6, 48384, Note_on_c, 3, 60, 107
6, 48385, Note_off_c, 3, 64, 65
6, 49143, Note_off_c, 3, 60, 64
6, 49536, Note_on_c, 3, 66, 115
6, 49536, Note_on_c, 3, 62, 112
6, 49680, Note_on_c, 3, 67, 108
6, 49699, Note_off_c, 3, 66, 64
6, 49824, Note_on_c, 3, 69, 108
6, 49902, Note_off_c, 3, 62, 64
6, 49912, Note_off_c, 3, 67, 64
6, 49920, Note_on_c, 3, 62, 115
6, 50688, Note_off_c, 3, 69, 64
6, 50688, Note_off_c, 3, 62, 64
6, 50688, Note_on_c, 3, 55, 111
6, 50688, Note_on_c, 3, 67, 115
6, 50688, Note_on_c, 3, 62, 115
6, 51056, Note_off_c, 3, 62, 64
6, 51057, Note_off_c, 3, 67, 64
6, 51072, Note_on_c, 3, 62, 115
6, 51072, Note_on_c, 3, 67, 115
6, 51168, Note_on_c, 3, 69, 115
6, 51179, Note_off_c, 3, 67, 64
6, 51264, Note_on_c, 3, 71, 112
6, 51270, Note_off_c, 3, 69, 64
6, 51360, Note_on_c, 3, 67, 115
6, 51374, Note_off_c, 3, 71, 64
6, 51546, Note_off_c, 3, 67, 64
6, 51552, Note_on_c, 3, 71, 111
6, 51552, Note_on_c, 3, 67, 109
6, 52217, Note_off_c, 3, 67, 64
6, 52218, Note_off_c, 3, 71, 64
6, 52224, Note_off_c, 3, 62, 64
6, 52224, Note_off_c, 3, 55, 64
6, 52224, Note_on_c, 3, 55, 115
6, 52224, Note_on_c, 3, 60, 109
6, 52224, Note_on_c, 3, 48, 115
6, 52608, Note_on_c, 3, 67, 115
6, 52704, Note_on_c, 3, 69, 115
6, 52719, Note_off_c, 3, 67, 64
6, 52800, Note_on_c, 3, 71, 115
6, 52807, Note_off_c, 3, 69, 64
6, 52896, Note_on_c, 3, 64, 115
6, 52905, Note_off_c, 3, 71, 64
6, 53674, Note_off_c, 3, 48, 64
6, 53674, Note_off_c, 3, 60, 64
6, 53675, Note_off_c, 3, 55, 64
6, 53677, Note_off_c, 3, 64, 64
6, 53760, Note_on_c, 3, 52, 111
6, 53760, Note_on_c, 3, 45, 115
6, 53904, Note_on_c, 3, 72, 101
6, 53952, Note_on_c, 3, 69, 106
6, 54000, Note_on_c, 3, 64, 101
6, 54008, Note_off_c, 3, 69, 64
6, 54012, Note_off_c, 3, 72, 64
6, 54048, Note_on_c, 3, 69, 99
6, 54096, Note_on_c, 3, 72, 108
6, 54501, Note_off_c, 3, 72, 64
6, 54504, Note_off_c, 3, 45, 64
6, 54505, Note_off_c, 3, 64, 64
6, 54505, Note_off_c, 3, 69, 64
6, 54510, Note_off_c, 3, 52, 64
6, 54528, Note_on_c, 3, 50, 115
6, 54528, Note_on_c, 3, 57, 111
6, 54672, Note_on_c, 3, 62, 107
6, 54672, Note_on_c, 3, 66, 99
6, 54710, Note_off_c, 3, 62, 64
6, 54711, Note_off_c, 3, 66, 64
6, 54720, Note_on_c, 3, 66, 113
6, 54720, Note_on_c, 3, 62, 115
6, 54892, Note_off_c, 3, 57, 64
6, 54900, Note_off_c, 3, 50, 64
6, 54912, Note_on_c, 3, 55, 111
6, 54912, Note_on_c, 3, 48, 102
6, 55037, Note_off_c, 3, 62, 64
6, 55056, Note_on_c, 3, 67, 103
6, 55056, Note_on_c, 3, 60, 102
6, 55066, Note_off_c, 3, 66, 64
6, 55091, Note_off_c, 3, 60, 64
6, 55092, Note_off_c, 3, 67, 64
6, 55104, Note_on_c, 3, 67, 115
6, 55104, Note_on_c, 3, 60, 112
6, 55293, Note_off_c, 3, 67, 64
6, 55293, Note_off_c, 3, 60, 64
6, 55295, Note_off_c, 3, 55, 64
6, 55295, Note_off_c, 3, 48, 64
6, 55680, Note_on_c, 3, 55, 109
6, 55680, Note_on_c, 3, 67, 109
6, 55824, Note_on_c, 3, 66, 109
6, 55824, Note_on_c, 3, 54, 109
6, 55832, Note_off_c, 3, 67, 64
6, 55834, Note_off_c, 3, 55, 64
6, 55963, Note_off_c, 3, 54, 64
6, 55968, Note_on_c, 3, 59, 99
6, 55968, Note_on_c, 3, 47, 99
6, 55975, Note_off_c, 3, 66, 64
6, 56064, Note_on_c, 3, 50, 108
6, 56064, Note_on_c, 3, 62, 109
6, 56067, Note_off_c, 3, 47, 64
6, 56077, Note_off_c, 3, 59, 64
6, 56832, Note_off_c, 3, 50, 65
6, 56832, Note_off_c, 3, 62, 65
6, 57216, Note_on_c, 3, 55, 109
6, 57216, Note_on_c, 3, 67, 109
6, 57360, Note_on_c, 3, 66, 109
6, 57360, Note_on_c, 3, 54, 109
6, 57368, Note_off_c, 3, 67, 64
6, 57370, Note_off_c, 3, 55, 64
6, 57499, Note_off_c, 3, 54, 64
6, 57504, Note_on_c, 3, 59, 99
6, 57504, Note_on_c, 3, 47, 99
6, 57511, Note_off_c, 3, 66, 64
6, 57600, Note_on_c, 3, 50, 108
6, 57600, Note_on_c, 3, 62, 109
6, 57603, Note_off_c, 3, 47, 64
6, 57613, Note_off_c, 3, 59, 64
6, 58368, Note_off_c, 3, 50, 65
6, 58368, Note_off_c, 3, 62, 65
6, 58752, Note_on_c, 3, 55, 109
6, 58752, Note_on_c, 3, 67, 109
6, 58896, Note_on_c, 3, 66, 109
6, 58896, Note_on_c, 3, 54, 109
6, 58904, Note_off_c, 3, 67, 64
6, 58906, Note_off_c, 3, 55, 64
6, 59035, Note_off_c, 3, 54, 64
6, 59040, Note_on_c, 3, 59, 99
6, 59040, Note_on_c, 3, 47, 99
6, 59047, Note_off_c, 3, 66, 64
6, 59136, Note_on_c, 3, 50, 108
6, 59136, Note_on_c, 3, 62, 109
6, 59139, Note_off_c, 3, 47, 64
6, 59149, Note_off_c, 3, 59, 64
6, 59904, Note_off_c, 3, 50, 65
6, 59904, Note_off_c, 3, 62, 65
6, 60288, Note_on_c, 3, 55, 109
6, 60288, Note_on_c, 3, 67, 109
6, 60432, Note_on_c, 3, 66, 109
6, 60432, Note_on_c, 3, 54, 109
6, 60440, Note_off_c, 3, 67, 64
6, 60442, Note_off_c, 3, 55, 64
6, 60571, Note_off_c, 3, 54, 64
6, 60576, Note_on_c, 3, 59, 99
6, 60576, Note_on_c, 3, 47, 99
6, 60583, Note_off_c, 3, 66, 64
6, 60672, Note_on_c, 3, 50, 108
6, 60672, Note_on_c, 3, 62, 109
6, 60675, Note_off_c, 3, 47, 64
6, 60685, Note_off_c, 3, 59, 64
6, 61440, Note_off_c, 3, 50, 65
6, 61440, Note_off_c, 3, 62, 65
6, 61824, Note_on_c, 3, 55, 109
6, 61824, Note_on_c, 3, 67, 109
6, 61968, Note_on_c, 3, 66, 109
6, 61968, Note_on_c, 3, 54, 109
6, 61976, Note_off_c, 3, 67, 64
6, 61978, Note_off_c, 3, 55, 64
6, 62107, Note_off_c, 3, 54, 64
6, 62112, Note_on_c, 3, 59, 99
6, 62112, Note_on_c, 3, 47, 99
6, 62119, Note_off_c, 3, 66, 64
6, 62208, Note_on_c, 3, 50, 108
6, 62208, Note_on_c, 3, 62, 109
6, 62211, Note_off_c, 3, 47, 64
6, 62221, Note_off_c, 3, 59, 64
6, 62976, Note_off_c, 3, 50, 65
6, 62976, Note_off_c, 3, 62, 65
6, 63360, Note_on_c, 3, 55, 109
6, 63360, Note_on_c, 3, 67, 109
6, 63504, Note_on_c, 3, 66, 109
6, 63504, Note_on_c, 3, 54, 109
6, 63512, Note_off_c, 3, 67, 64
6, 63514, Note_off_c, 3, 55, 64
6, 63643, Note_off_c, 3, 54, 64
6, 63648, Note_on_c, 3, 59, 99
6, 63648, Note_on_c, 3, 47, 99
6, 63655, Note_off_c, 3, 66, 64
6, 63744, Note_on_c, 3, 50, 108
6, 63744, Note_on_c, 3, 62, 109
6, 63747, Note_off_c, 3, 47, 64
6, 63757, Note_off_c, 3, 59, 64
6, 64512, Note_off_c, 3, 50, 65
6, 64512, Note_off_c, 3, 62, 65
6, 64512, Note_on_c, 3, 55, 114
6, 64512, Note_on_c, 3, 43, 114
6, 64512, Note_on_c, 3, 50, 115
6, 65884, Note_off_c, 3, 43, 64
6, 65886, Note_off_c, 3, 55, 64
6, 65888, Note_off_c, 3, 50, 64
6, 65888, End_track
7, 0, Start_track
7, 0, MIDI_port, 1
7, 0, Title_t, "Synth Brass2        "
7, 44, Program_c, 4, 63
7, 44, Pitch_bend_c, 4, 8192
7, 44, Control_c, 4, 7, 110
7, 44, Control_c, 4, 10, 24
7, 92, Control_c, 4, 91, 90
7, 92, Control_c, 4, 93, 20
7, 92, Control_c, 4, 100, 0
7, 92, Control_c, 4, 101, 0
7, 140, Control_c, 4, 6, 2
7, 812, Note_on_c, 4, 71, 70
7, 812, Note_on_c, 4, 67, 70
7, 812, Note_on_c, 4, 62, 70
7, 828, Note_off_c, 4, 62, 64
7, 829, Note_off_c, 4, 67, 64
7, 830, Note_off_c, 4, 71, 64
7, 908, Note_on_c, 4, 71, 70
7, 908, Note_on_c, 4, 67, 70
7, 908, Note_on_c, 4, 62, 70
7, 925, Note_off_c, 4, 62, 64
7, 926, Note_off_c, 4, 71, 64
7, 926, Note_off_c, 4, 67, 64
7, 1004, Note_on_c, 4, 71, 70
7, 1004, Note_on_c, 4, 67, 70
7, 1004, Note_on_c, 4, 62, 70
7, 1021, Note_off_c, 4, 67, 64
7, 1021, Note_off_c, 4, 62, 64
7, 1023, Note_off_c, 4, 71, 64
7, 1100, Note_on_c, 4, 71, 70
7, 1100, Note_on_c, 4, 67, 70
7, 1100, Note_on_c, 4, 62, 70
7, 1115, Note_off_c, 4, 62, 64
7, 1117, Note_off_c, 4, 67, 64
7, 1119, Note_off_c, 4, 71, 64
7, 1196, Note_on_c, 4, 71, 70
7, 1196, Note_on_c, 4, 67, 70
7, 1196, Note_on_c, 4, 62, 70
7, 1213, Note_off_c, 4, 62, 64
7, 1214, Note_off_c, 4, 71, 64
7, 1214, Note_off_c, 4, 67, 64
7, 1292, Note_on_c, 4, 71, 70
7, 1292, Note_on_c, 4, 67, 70
7, 1292, Note_on_c, 4, 62, 70
7, 1311, Note_off_c, 4, 62, 64
7, 1312, Note_off_c, 4, 71, 64
7, 1313, Note_off_c, 4, 67, 64
7, 1388, Note_on_c, 4, 67, 70
7, 1388, Note_on_c, 4, 71, 70
7, 1388, Note_on_c, 4, 62, 70
7, 1403, Note_off_c, 4, 62, 64
7, 1406, Note_off_c, 4, 67, 64
7, 1406, Note_off_c, 4, 71, 64
7, 1484, Note_on_c, 4, 71, 70
7, 1484, Note_on_c, 4, 67, 70
7, 1484, Note_on_c, 4, 62, 70
7, 1502, Note_off_c, 4, 62, 64
7, 1503, Note_off_c, 4, 71, 64
7, 1503, Note_off_c, 4, 67, 64
7, 1580, Note_on_c, 4, 71, 70
7, 1580, Note_on_c, 4, 67, 70
7, 1580, Note_on_c, 4, 62, 70
7, 1598, Note_off_c, 4, 62, 64
7, 1600, Note_off_c, 4, 71, 64
7, 1600, Note_off_c, 4, 67, 64
7, 1676, Note_on_c, 4, 71, 70
7, 1676, Note_on_c, 4, 67, 70
7, 1676, Note_on_c, 4, 62, 70
7, 1693, Note_off_c, 4, 62, 64
7, 1695, Note_off_c, 4, 67, 64
7, 1696, Note_off_c, 4, 71, 64
7, 1772, Note_on_c, 4, 71, 70
7, 1772, Note_on_c, 4, 67, 70
7, 1772, Note_on_c, 4, 62, 70
7, 1791, Note_off_c, 4, 67, 64
7, 1791, Note_off_c, 4, 62, 64
7, 1794, Note_off_c, 4, 71, 64
7, 1868, Note_on_c, 4, 62, 70
7, 1868, Note_on_c, 4, 71, 70
7, 1868, Note_on_c, 4, 67, 70
7, 1887, Note_off_c, 4, 67, 64
7, 1888, Note_off_c, 4, 62, 64
7, 1889, Note_off_c, 4, 71, 64
7, 1964, Note_on_c, 4, 71, 70
7, 1964, Note_on_c, 4, 62, 70
7, 1964, Note_on_c, 4, 67, 70
7, 1980, Note_off_c, 4, 67, 64
7, 1982, Note_off_c, 4, 62, 64
7, 1984, Note_off_c, 4, 71, 64
7, 2060, Note_on_c, 4, 71, 70
7, 2060, Note_on_c, 4, 62, 70
7, 2060, Note_on_c, 4, 67, 70
7, 2079, Note_off_c, 4, 67, 64
7, 2082, Note_off_c, 4, 71, 64
7, 2082, Note_off_c, 4, 62, 64
7, 2156, Note_on_c, 4, 71, 70
7, 2156, Note_on_c, 4, 62, 70
7, 2156, Note_on_c, 4, 67, 70
7, 2175, Note_off_c, 4, 67, 64
7, 2177, Note_off_c, 4, 71, 64
7, 2178, Note_off_c, 4, 62, 64
7, 2252, Note_on_c, 4, 62, 70
7, 2252, Note_on_c, 4, 71, 70
7, 2252, Note_on_c, 4, 67, 70
7, 2273, Note_off_c, 4, 67, 64
7, 2274, Note_off_c, 4, 71, 64
7, 2275, Note_off_c, 4, 62, 64
7, 2348, Note_on_c, 4, 64, 70
7, 2348, Note_on_c, 4, 71, 70
7, 2348, Note_on_c, 4, 67, 70
7, 2366, Note_off_c, 4, 67, 64
7, 2368, Note_off_c, 4, 64, 64
7, 2369, Note_off_c, 4, 71, 64
7, 2444, Note_on_c, 4, 71, 70
7, 2444, Note_on_c, 4, 64, 70
7, 2444, Note_on_c, 4, 67, 70
7, 2465, Note_off_c, 4, 64, 64
7, 2465, Note_off_c, 4, 67, 64
7, 2466, Note_off_c, 4, 71, 64
7, 2540, Note_on_c, 4, 71, 70
7, 2540, Note_on_c, 4, 64, 70
7, 2540, Note_on_c, 4, 67, 70
7, 2560, Note_off_c, 4, 67, 64
7, 2562, Note_off_c, 4, 71, 64
7, 2562, Note_off_c, 4, 64, 64
7, 2636, Note_on_c, 4, 64, 70
7, 2636, Note_on_c, 4, 71, 70
7, 2636, Note_on_c, 4, 67, 70
7, 2656, Note_off_c, 4, 67, 64
7, 2657, Note_off_c, 4, 64, 64
7, 2658, Note_off_c, 4, 71, 64
7, 2732, Note_on_c, 4, 71, 70
7, 2732, Note_on_c, 4, 67, 70
7, 2732, Note_on_c, 4, 64, 70
7, 2752, Note_off_c, 4, 67, 64
7, 2752, Note_off_c, 4, 64, 64
7, 2753, Note_off_c, 4, 71, 64
7, 2828, Note_on_c, 4, 71, 70
7, 2828, Note_on_c, 4, 64, 70
7, 2828, Note_on_c, 4, 67, 70
7, 2848, Note_off_c, 4, 64, 64
7, 2848, Note_off_c, 4, 67, 64
7, 2850, Note_off_c, 4, 71, 64
7, 2924, Note_on_c, 4, 71, 70
7, 2924, Note_on_c, 4, 67, 70
7, 2924, Note_on_c, 4, 64, 70
7, 2944, Note_off_c, 4, 67, 64
7, 2944, Note_off_c, 4, 64, 64
7, 2945, Note_off_c, 4, 71, 64
7, 3020, Note_on_c, 4, 64, 70
7, 3020, Note_on_c, 4, 71, 70
7, 3020, Note_on_c, 4, 67, 70
7, 3042, Note_off_c, 4, 64, 64
7, 3042, Note_off_c, 4, 71, 64
7, 3042, Note_off_c, 4, 67, 64
7, 3116, Note_on_c, 4, 71, 70
7, 3116, Note_on_c, 4, 67, 70
7, 3116, Note_on_c, 4, 64, 70
7, 3133, Note_off_c, 4, 64, 64
7, 3134, Note_off_c, 4, 67, 64
7, 3136, Note_off_c, 4, 71, 64
7, 3212, Note_on_c, 4, 71, 70
7, 3212, Note_on_c, 4, 64, 70
7, 3212, Note_on_c, 4, 67, 70
7, 3230, Note_off_c, 4, 64, 64
7, 3231, Note_off_c, 4, 67, 64
7, 3234, Note_off_c, 4, 71, 64
7, 3308, Note_on_c, 4, 71, 70
7, 3308, Note_on_c, 4, 64, 70
7, 3308, Note_on_c, 4, 67, 70
7, 3329, Note_off_c, 4, 67, 64
7, 3330, Note_off_c, 4, 71, 64
7, 3331, Note_off_c, 4, 64, 64
7, 3404, Note_on_c, 4, 71, 70
7, 3404, Note_on_c, 4, 64, 70
7, 3404, Note_on_c, 4, 67, 70
7, 3424, Note_off_c, 4, 67, 64
7, 3425, Note_off_c, 4, 64, 64
7, 3427, Note_off_c, 4, 71, 64
7, 3500, Note_on_c, 4, 71, 70
7, 3500, Note_on_c, 4, 67, 70
7, 3500, Note_on_c, 4, 64, 70
7, 3520, Note_off_c, 4, 67, 64
7, 3520, Note_off_c, 4, 64, 64
7, 3522, Note_off_c, 4, 71, 64
7, 3596, Note_on_c, 4, 71, 70
7, 3596, Note_on_c, 4, 64, 70
7, 3596, Note_on_c, 4, 67, 70
7, 3616, Note_off_c, 4, 64, 64
7, 3617, Note_off_c, 4, 67, 64
7, 3619, Note_off_c, 4, 71, 64
7, 3692, Note_on_c, 4, 71, 70
7, 3692, Note_on_c, 4, 64, 70
7, 3692, Note_on_c, 4, 67, 70
7, 3711, Note_off_c, 4, 67, 64
7, 3712, Note_off_c, 4, 64, 64
7, 3714, Note_off_c, 4, 71, 64
7, 3788, Note_on_c, 4, 71, 70
7, 3788, Note_on_c, 4, 64, 70
7, 3788, Note_on_c, 4, 67, 70
7, 3808, Note_off_c, 4, 67, 64
7, 3810, Note_off_c, 4, 71, 64
7, 3810, Note_off_c, 4, 64, 64
7, 3884, Note_on_c, 4, 71, 70
7, 3884, Note_on_c, 4, 67, 70
7, 3884, Note_on_c, 4, 62, 70
7, 3902, Note_off_c, 4, 67, 64
7, 3902, Note_off_c, 4, 62, 64
7, 3903, Note_off_c, 4, 71, 64
7, 3980, Note_on_c, 4, 62, 70
7, 3980, Note_on_c, 4, 71, 70
7, 3980, Note_on_c, 4, 67, 70
7, 4000, Note_off_c, 4, 67, 64
7, 4002, Note_off_c, 4, 62, 64
7, 4002, Note_off_c, 4, 71, 64
7, 4076, Note_on_c, 4, 62, 70
7, 4076, Note_on_c, 4, 71, 70
7, 4076, Note_on_c, 4, 67, 70
7, 4096, Note_off_c, 4, 62, 64
7, 4096, Note_off_c, 4, 71, 64
7, 4096, Note_off_c, 4, 67, 64
7, 4172, Note_on_c, 4, 62, 70
7, 4172, Note_on_c, 4, 71, 70
7, 4172, Note_on_c, 4, 67, 70
7, 4191, Note_off_c, 4, 62, 64
7, 4191, Note_off_c, 4, 67, 64
7, 4192, Note_off_c, 4, 71, 64
7, 4268, Note_on_c, 4, 71, 70
7, 4268, Note_on_c, 4, 62, 70
7, 4268, Note_on_c, 4, 67, 70
7, 4286, Note_off_c, 4, 62, 64
7, 4286, Note_off_c, 4, 67, 64
7, 4289, Note_off_c, 4, 71, 64
7, 4364, Note_on_c, 4, 71, 70
7, 4364, Note_on_c, 4, 62, 70
7, 4364, Note_on_c, 4, 67, 70
7, 4382, Note_off_c, 4, 67, 64
7, 4383, Note_off_c, 4, 71, 64
7, 4383, Note_off_c, 4, 62, 64
7, 4460, Note_on_c, 4, 71, 70
7, 4460, Note_on_c, 4, 67, 70
7, 4460, Note_on_c, 4, 62, 70
7, 4478, Note_off_c, 4, 62, 64
7, 4479, Note_off_c, 4, 67, 64
7, 4481, Note_off_c, 4, 71, 64
7, 4556, Note_on_c, 4, 71, 70
7, 4556, Note_on_c, 4, 62, 70
7, 4556, Note_on_c, 4, 67, 70
7, 4575, Note_off_c, 4, 62, 64
7, 4575, Note_off_c, 4, 67, 64
7, 4576, Note_off_c, 4, 71, 64
7, 4652, Note_on_c, 4, 62, 70
7, 4652, Note_on_c, 4, 71, 70
7, 4652, Note_on_c, 4, 67, 70
7, 4673, Note_off_c, 4, 62, 64
7, 4673, Note_off_c, 4, 71, 64
7, 4673, Note_off_c, 4, 67, 64
7, 4748, Note_on_c, 4, 62, 70
7, 4748, Note_on_c, 4, 71, 70
7, 4748, Note_on_c, 4, 67, 70
7, 4768, Note_off_c, 4, 67, 64
7, 4769, Note_off_c, 4, 71, 64
7, 4771, Note_off_c, 4, 62, 64
7, 4844, Note_on_c, 4, 62, 70
7, 4844, Note_on_c, 4, 71, 70
7, 4844, Note_on_c, 4, 67, 70
7, 4863, Note_off_c, 4, 67, 64
7, 4864, Note_off_c, 4, 71, 64
7, 4865, Note_off_c, 4, 62, 64
7, 4940, Note_on_c, 4, 62, 70
7, 4940, Note_on_c, 4, 71, 70
7, 4940, Note_on_c, 4, 67, 70
7, 4959, Note_off_c, 4, 62, 64
7, 4959, Note_off_c, 4, 71, 64
7, 4959, Note_off_c, 4, 67, 64
7, 5036, Note_on_c, 4, 62, 70
7, 5036, Note_on_c, 4, 71, 70
7, 5036, Note_on_c, 4, 67, 70
7, 5055, Note_off_c, 4, 62, 64
7, 5055, Note_off_c, 4, 71, 64
7, 5055, Note_off_c, 4, 67, 64
7, 5132, Note_on_c, 4, 71, 70
7, 5132, Note_on_c, 4, 62, 70
7, 5132, Note_on_c, 4, 67, 70
7, 5150, Note_off_c, 4, 62, 64
7, 5151, Note_off_c, 4, 67, 64
7, 5154, Note_off_c, 4, 71, 64
7, 5228, Note_on_c, 4, 71, 70
7, 5228, Note_on_c, 4, 62, 70
7, 5228, Note_on_c, 4, 67, 70
7, 5246, Note_off_c, 4, 62, 64
7, 5247, Note_off_c, 4, 67, 64
7, 5248, Note_off_c, 4, 71, 64
7, 5324, Note_on_c, 4, 71, 70
7, 5324, Note_on_c, 4, 62, 70
7, 5324, Note_on_c, 4, 67, 70
7, 5343, Note_off_c, 4, 67, 64
7, 5345, Note_off_c, 4, 71, 64
7, 5345, Note_off_c, 4, 62, 64
7, 5420, Note_on_c, 4, 66, 70
7, 5420, Note_on_c, 4, 69, 70
7, 5420, Note_on_c, 4, 62, 70
7, 5439, Note_off_c, 4, 62, 64
7, 5441, Note_off_c, 4, 69, 64
7, 5442, Note_off_c, 4, 66, 64
7, 5516, Note_on_c, 4, 69, 70
7, 5516, Note_on_c, 4, 66, 70
7, 5516, Note_on_c, 4, 62, 70
7, 5537, Note_off_c, 4, 69, 64
7, 5537, Note_off_c, 4, 66, 64
7, 5537, Note_off_c, 4, 62, 64
7, 5612, Note_on_c, 4, 69, 70
7, 5612, Note_on_c, 4, 66, 70
7, 5612, Note_on_c, 4, 62, 70
7, 5630, Note_off_c, 4, 62, 64
7, 5631, Note_off_c, 4, 69, 64
7, 5631, Note_off_c, 4, 66, 64
7, 5708, Note_on_c, 4, 66, 70
7, 5708, Note_on_c, 4, 69, 70
7, 5708, Note_on_c, 4, 62, 70
7, 5729, Note_off_c, 4, 62, 64
7, 5730, Note_off_c, 4, 66, 64
7, 5730, Note_off_c, 4, 69, 64
7, 5804, Note_on_c, 4, 69, 70
7, 5804, Note_on_c, 4, 66, 70
7, 5804, Note_on_c, 4, 62, 70
7, 5823, Note_off_c, 4, 62, 64
7, 5825, Note_off_c, 4, 66, 64
7, 5826, Note_off_c, 4, 69, 64
7, 5900, Note_on_c, 4, 66, 70
7, 5900, Note_on_c, 4, 69, 70
7, 5900, Note_on_c, 4, 62, 70
7, 5916, Note_off_c, 4, 62, 64
7, 5921, Note_off_c, 4, 66, 64
7, 5922, Note_off_c, 4, 69, 64
7, 5996, Note_on_c, 4, 66, 70
7, 5996, Note_on_c, 4, 62, 70
7, 5996, Note_on_c, 4, 69, 70
7, 6016, Note_off_c, 4, 62, 64
7, 6016, Note_off_c, 4, 69, 64
7, 6017, Note_off_c, 4, 66, 64
7, 6092, Note_on_c, 4, 66, 70
7, 6092, Note_on_c, 4, 69, 70
7, 6092, Note_on_c, 4, 62, 70
7, 6112, Note_off_c, 4, 62, 64
7, 6113, Note_off_c, 4, 69, 64
7, 6115, Note_off_c, 4, 66, 64
7, 6188, Note_on_c, 4, 66, 70
7, 6188, Note_on_c, 4, 69, 70
7, 6188, Note_on_c, 4, 62, 70
7, 6206, Note_off_c, 4, 66, 64
7, 6206, Note_off_c, 4, 62, 64
7, 6207, Note_off_c, 4, 69, 64
7, 6284, Note_on_c, 4, 66, 70
7, 6284, Note_on_c, 4, 62, 70
7, 6284, Note_on_c, 4, 69, 70
7, 6304, Note_off_c, 4, 69, 64
7, 6305, Note_off_c, 4, 66, 64
7, 6306, Note_off_c, 4, 62, 64
7, 6380, Note_on_c, 4, 66, 70
7, 6380, Note_on_c, 4, 62, 70
7, 6380, Note_on_c, 4, 69, 70
7, 6400, Note_off_c, 4, 62, 64
7, 6400, Note_off_c, 4, 69, 64
7, 6402, Note_off_c, 4, 66, 64
7, 6476, Note_on_c, 4, 66, 70
7, 6476, Note_on_c, 4, 69, 70
7, 6476, Note_on_c, 4, 62, 70
7, 6496, Note_off_c, 4, 69, 64
7, 6496, Note_off_c, 4, 62, 64
7, 6497, Note_off_c, 4, 66, 64
7, 6572, Note_on_c, 4, 66, 70
7, 6572, Note_on_c, 4, 69, 70
7, 6572, Note_on_c, 4, 62, 70
7, 6591, Note_off_c, 4, 62, 64
7, 6592, Note_off_c, 4, 69, 64
7, 6593, Note_off_c, 4, 66, 64
7, 6668, Note_on_c, 4, 66, 70
7, 6668, Note_on_c, 4, 69, 70
7, 6668, Note_on_c, 4, 62, 70
7, 6686, Note_off_c, 4, 62, 64
7, 6689, Note_off_c, 4, 66, 64
7, 6689, Note_off_c, 4, 69, 64
7, 6764, Note_on_c, 4, 66, 70
7, 6764, Note_on_c, 4, 69, 70
7, 6764, Note_on_c, 4, 62, 70
7, 6782, Note_off_c, 4, 62, 64
7, 6784, Note_off_c, 4, 69, 64
7, 6785, Note_off_c, 4, 66, 64
7, 6860, Note_on_c, 4, 66, 70
7, 6860, Note_on_c, 4, 69, 70
7, 6860, Note_on_c, 4, 62, 70
7, 6880, Note_off_c, 4, 62, 64
7, 6882, Note_off_c, 4, 66, 64
7, 6882, Note_off_c, 4, 69, 64
7, 6956, Note_on_c, 4, 62, 70
7, 6956, Note_on_c, 4, 71, 70
7, 6956, Note_on_c, 4, 67, 70
7, 6976, Note_off_c, 4, 71, 64
7, 6976, Note_off_c, 4, 67, 64
7, 6977, Note_off_c, 4, 62, 64
7, 7052, Note_on_c, 4, 71, 70
7, 7052, Note_on_c, 4, 67, 70
7, 7052, Note_on_c, 4, 62, 70
7, 7070, Note_off_c, 4, 62, 64
7, 7072, Note_off_c, 4, 67, 64
7, 7073, Note_off_c, 4, 71, 64
7, 7148, Note_on_c, 4, 71, 70
7, 7148, Note_on_c, 4, 67, 70
7, 7148, Note_on_c, 4, 62, 70
7, 7164, Note_off_c, 4, 62, 64
7, 7167, Note_off_c, 4, 67, 64
7, 7169, Note_off_c, 4, 71, 64
7, 7244, Note_on_c, 4, 71, 70
7, 7244, Note_on_c, 4, 67, 70
7, 7244, Note_on_c, 4, 62, 70
7, 7262, Note_off_c, 4, 62, 64
7, 7265, Note_off_c, 4, 71, 64
7, 7265, Note_off_c, 4, 67, 64
7, 7340, Note_on_c, 4, 71, 70
7, 7340, Note_on_c, 4, 67, 70
7, 7340, Note_on_c, 4, 62, 70
7, 7356, Note_off_c, 4, 62, 64
7, 7358, Note_off_c, 4, 67, 64
7, 7360, Note_off_c, 4, 71, 64
7, 7436, Note_on_c, 4, 71, 70
7, 7436, Note_on_c, 4, 67, 70
7, 7436, Note_on_c, 4, 62, 70
7, 7456, Note_off_c, 4, 62, 64
7, 7457, Note_off_c, 4, 67, 64
7, 7459, Note_off_c, 4, 71, 64
7, 7532, Note_on_c, 4, 71, 70
7, 7532, Note_on_c, 4, 62, 70
7, 7532, Note_on_c, 4, 67, 70
7, 7551, Note_off_c, 4, 62, 64
7, 7551, Note_off_c, 4, 67, 64
7, 7552, Note_off_c, 4, 71, 64
7, 7628, Note_on_c, 4, 71, 70
7, 7628, Note_on_c, 4, 67, 70
7, 7628, Note_on_c, 4, 62, 70
7, 7647, Note_off_c, 4, 62, 64
7, 7648, Note_off_c, 4, 67, 64
7, 7649, Note_off_c, 4, 71, 64
7, 7724, Note_on_c, 4, 71, 70
7, 7724, Note_on_c, 4, 62, 70
7, 7724, Note_on_c, 4, 67, 70
7, 7744, Note_off_c, 4, 67, 64
7, 7746, Note_off_c, 4, 71, 64
7, 7746, Note_off_c, 4, 62, 64
7, 7820, Note_on_c, 4, 71, 70
7, 7820, Note_on_c, 4, 67, 70
7, 7820, Note_on_c, 4, 62, 70
7, 7840, Note_off_c, 4, 62, 64
7, 7841, Note_off_c, 4, 67, 64
7, 7843, Note_off_c, 4, 71, 64
7, 7916, Note_on_c, 4, 71, 70
7, 7916, Note_on_c, 4, 67, 70
7, 7916, Note_on_c, 4, 62, 70
7, 7936, Note_off_c, 4, 62, 64
7, 7937, Note_off_c, 4, 67, 64
7, 7939, Note_off_c, 4, 71, 64
7, 8012, Note_on_c, 4, 71, 70
7, 8012, Note_on_c, 4, 62, 70
7, 8012, Note_on_c, 4, 67, 70
7, 8032, Note_off_c, 4, 67, 64
7, 8033, Note_off_c, 4, 62, 64
7, 8034, Note_off_c, 4, 71, 64
7, 8108, Note_on_c, 4, 71, 70
7, 8108, Note_on_c, 4, 67, 70
7, 8108, Note_on_c, 4, 62, 70
7, 8126, Note_off_c, 4, 62, 64
7, 8127, Note_off_c, 4, 67, 64
7, 8128, Note_off_c, 4, 71, 64
7, 8204, Note_on_c, 4, 71, 70
7, 8204, Note_on_c, 4, 67, 70
7, 8204, Note_on_c, 4, 62, 70
7, 8226, Note_off_c, 4, 67, 64
7, 8226, Note_off_c, 4, 62, 64
7, 8227, Note_off_c, 4, 71, 64
7, 8300, Note_on_c, 4, 71, 70
7, 8300, Note_on_c, 4, 62, 70
7, 8300, Note_on_c, 4, 67, 70
7, 8319, Note_off_c, 4, 62, 64
7, 8319, Note_off_c, 4, 67, 64
7, 8321, Note_off_c, 4, 71, 64
7, 8396, Note_on_c, 4, 62, 70
7, 8396, Note_on_c, 4, 71, 70
7, 8396, Note_on_c, 4, 67, 70
7, 8416, Note_off_c, 4, 67, 64
7, 8417, Note_off_c, 4, 71, 64
7, 8418, Note_off_c, 4, 62, 64
7, 8492, Note_on_c, 4, 64, 70
7, 8492, Note_on_c, 4, 71, 70
7, 8492, Note_on_c, 4, 67, 70
7, 8510, Note_off_c, 4, 67, 64
7, 8514, Note_off_c, 4, 64, 64
7, 8514, Note_off_c, 4, 71, 64
7, 8588, Note_on_c, 4, 64, 70
7, 8588, Note_on_c, 4, 71, 70
7, 8588, Note_on_c, 4, 67, 70
7, 8609, Note_off_c, 4, 67, 64
7, 8610, Note_off_c, 4, 64, 64
7, 8610, Note_off_c, 4, 71, 64
7, 8684, Note_on_c, 4, 71, 70
7, 8684, Note_on_c, 4, 67, 70
7, 8684, Note_on_c, 4, 64, 70
7, 8704, Note_off_c, 4, 64, 64
7, 8705, Note_off_c, 4, 67, 64
7, 8706, Note_off_c, 4, 71, 64
7, 8780, Note_on_c, 4, 71, 70
7, 8780, Note_on_c, 4, 67, 70
7, 8780, Note_on_c, 4, 64, 70
7, 8798, Note_off_c, 4, 64, 64
7, 8799, Note_off_c, 4, 67, 64
7, 8803, Note_off_c, 4, 71, 64
7, 8876, Note_on_c, 4, 71, 70
7, 8876, Note_on_c, 4, 64, 70
7, 8876, Note_on_c, 4, 67, 70
7, 8895, Note_off_c, 4, 67, 64
7, 8896, Note_off_c, 4, 64, 64
7, 8898, Note_off_c, 4, 71, 64
7, 8972, Note_on_c, 4, 71, 70
7, 8972, Note_on_c, 4, 67, 70
7, 8972, Note_on_c, 4, 64, 70
7, 8991, Note_off_c, 4, 67, 64
7, 8991, Note_off_c, 4, 64, 64
7, 8993, Note_off_c, 4, 71, 64
7, 9068, Note_on_c, 4, 71, 70
7, 9068, Note_on_c, 4, 64, 70
7, 9068, Note_on_c, 4, 67, 70
7, 9088, Note_off_c, 4, 71, 64
7, 9088, Note_off_c, 4, 64, 64
7, 9088, Note_off_c, 4, 67, 64
7, 9164, Note_on_c, 4, 71, 70
7, 9164, Note_on_c, 4, 67, 70
7, 9164, Note_on_c, 4, 64, 70
7, 9184, Note_off_c, 4, 71, 64
7, 9184, Note_off_c, 4, 67, 64
7, 9184, Note_off_c, 4, 64, 64
7, 9260, Note_on_c, 4, 71, 70
7, 9260, Note_on_c, 4, 67, 70
7, 9260, Note_on_c, 4, 64, 70
7, 9282, Note_off_c, 4, 67, 64
7, 9282, Note_off_c, 4, 64, 64
7, 9283, Note_off_c, 4, 71, 64
7, 9356, Note_on_c, 4, 71, 70
7, 9356, Note_on_c, 4, 64, 70
7, 9356, Note_on_c, 4, 67, 70
7, 9377, Note_off_c, 4, 64, 64
7, 9377, Note_off_c, 4, 67, 64
7, 9379, Note_off_c, 4, 71, 64
7, 9452, Note_on_c, 4, 71, 70
7, 9452, Note_on_c, 4, 67, 70
7, 9452, Note_on_c, 4, 64, 70
7, 9470, Note_off_c, 4, 64, 64
7, 9471, Note_off_c, 4, 67, 64
7, 9474, Note_off_c, 4, 71, 64
7, 9548, Note_on_c, 4, 71, 70
7, 9548, Note_on_c, 4, 67, 70
7, 9548, Note_on_c, 4, 64, 70
7, 9566, Note_off_c, 4, 64, 64
7, 9568, Note_off_c, 4, 71, 64
7, 9568, Note_off_c, 4, 67, 64
7, 9644, Note_on_c, 4, 71, 70
7, 9644, Note_on_c, 4, 64, 70
7, 9644, Note_on_c, 4, 67, 70
7, 9664, Note_off_c, 4, 64, 64
7, 9664, Note_off_c, 4, 67, 64
7, 9665, Note_off_c, 4, 71, 64
7, 9740, Note_on_c, 4, 71, 70
7, 9740, Note_on_c, 4, 67, 70
7, 9740, Note_on_c, 4, 64, 70
7, 9758, Note_off_c, 4, 64, 64
7, 9760, Note_off_c, 4, 67, 64
7, 9762, Note_off_c, 4, 71, 64
7, 9836, Note_on_c, 4, 71, 70
7, 9836, Note_on_c, 4, 64, 70
7, 9836, Note_on_c, 4, 67, 70
7, 9855, Note_off_c, 4, 64, 64
7, 9855, Note_off_c, 4, 67, 64
7, 9858, Note_off_c, 4, 71, 64
7, 9932, Note_on_c, 4, 71, 70
7, 9932, Note_on_c, 4, 64, 70
7, 9932, Note_on_c, 4, 67, 70
7, 9953, Note_off_c, 4, 67, 64
7, 9954, Note_off_c, 4, 64, 64
7, 9956, Note_off_c, 4, 71, 64
7, 10028, Note_on_c, 4, 67, 70
7, 10028, Note_on_c, 4, 64, 70
7, 10028, Note_on_c, 4, 72, 70
7, 10046, Note_off_c, 4, 64, 64
7, 10047, Note_off_c, 4, 72, 64
7, 10050, Note_off_c, 4, 67, 64
7, 10124, Note_on_c, 4, 72, 70
7, 10124, Note_on_c, 4, 67, 70
7, 10124, Note_on_c, 4, 64, 70
7, 10146, Note_off_c, 4, 67, 64
7, 10146, Note_off_c, 4, 64, 64
7, 10147, Note_off_c, 4, 72, 64
7, 10220, Note_on_c, 4, 72, 70
7, 10220, Note_on_c, 4, 64, 70
7, 10220, Note_on_c, 4, 67, 70
7, 10241, Note_off_c, 4, 72, 64
7, 10241, Note_off_c, 4, 67, 64
7, 10243, Note_off_c, 4, 64, 64
7, 10316, Note_on_c, 4, 64, 70
7, 10316, Note_on_c, 4, 72, 70
7, 10316, Note_on_c, 4, 67, 70
7, 10336, Note_off_c, 4, 72, 64
7, 10336, Note_off_c, 4, 67, 64
7, 10337, Note_off_c, 4, 64, 64
7, 10412, Note_on_c, 4, 72, 70
7, 10412, Note_on_c, 4, 67, 70
7, 10412, Note_on_c, 4, 64, 70
7, 10434, Note_off_c, 4, 67, 64
7, 10434, Note_off_c, 4, 64, 64
7, 10435, Note_off_c, 4, 72, 64
7, 10508, Note_on_c, 4, 72, 70
7, 10508, Note_on_c, 4, 67, 70
7, 10508, Note_on_c, 4, 64, 70
7, 10530, Note_off_c, 4, 67, 64
7, 10530, Note_off_c, 4, 64, 64
7, 10531, Note_off_c, 4, 72, 64
7, 10604, Note_on_c, 4, 72, 70
7, 10604, Note_on_c, 4, 64, 70
7, 10604, Note_on_c, 4, 67, 70
7, 10625, Note_off_c, 4, 67, 64
7, 10627, Note_off_c, 4, 64, 64
7, 10628, Note_off_c, 4, 72, 64
7, 10700, Note_on_c, 4, 72, 70
7, 10700, Note_on_c, 4, 67, 70
7, 10700, Note_on_c, 4, 64, 70
7, 10720, Note_off_c, 4, 72, 64
7, 10721, Note_off_c, 4, 67, 64
7, 10723, Note_off_c, 4, 64, 64
7, 10796, Note_on_c, 4, 71, 70
7, 10796, Note_on_c, 4, 67, 70
7, 10796, Note_on_c, 4, 62, 70
7, 10816, Note_off_c, 4, 71, 64
7, 10816, Note_off_c, 4, 67, 64
7, 10816, Note_off_c, 4, 62, 64
7, 10892, Note_on_c, 4, 62, 70
7, 10892, Note_on_c, 4, 71, 70
7, 10892, Note_on_c, 4, 67, 70
7, 10912, Note_off_c, 4, 71, 64
7, 10912, Note_off_c, 4, 67, 64
7, 10914, Note_off_c, 4, 62, 64
7, 10988, Note_on_c, 4, 62, 70
7, 10988, Note_on_c, 4, 71, 70
7, 10988, Note_on_c, 4, 67, 70
7, 11009, Note_off_c, 4, 71, 64
7, 11009, Note_off_c, 4, 67, 64
7, 11010, Note_off_c, 4, 62, 64
7, 11084, Note_on_c, 4, 62, 70
7, 11084, Note_on_c, 4, 71, 70
7, 11084, Note_on_c, 4, 67, 70
7, 11105, Note_off_c, 4, 67, 64
7, 11106, Note_off_c, 4, 62, 64
7, 11106, Note_off_c, 4, 71, 64
7, 11180, Note_on_c, 4, 62, 70
7, 11180, Note_on_c, 4, 71, 70
7, 11180, Note_on_c, 4, 67, 70
7, 11201, Note_off_c, 4, 71, 64
7, 11201, Note_off_c, 4, 67, 64
7, 11202, Note_off_c, 4, 62, 64
7, 11276, Note_on_c, 4, 71, 70
7, 11276, Note_on_c, 4, 62, 70
7, 11276, Note_on_c, 4, 67, 70
7, 11297, Note_off_c, 4, 62, 64
7, 11297, Note_off_c, 4, 67, 64
7, 11298, Note_off_c, 4, 71, 64
7, 11372, Note_on_c, 4, 71, 70
7, 11372, Note_on_c, 4, 67, 70
7, 11372, Note_on_c, 4, 62, 70
7, 11392, Note_off_c, 4, 62, 64
7, 11393, Note_off_c, 4, 71, 64
7, 11393, Note_off_c, 4, 67, 64
7, 11468, Note_on_c, 4, 71, 70
7, 11468, Note_on_c, 4, 67, 70
7, 11468, Note_on_c, 4, 62, 70
7, 11489, Note_off_c, 4, 71, 64
7, 11489, Note_off_c, 4, 67, 64
7, 11490, Note_off_c, 4, 62, 64
7, 11564, Note_on_c, 4, 66, 70
7, 11564, Note_on_c, 4, 62, 70
7, 11564, Note_on_c, 4, 69, 70
7, 11585, Note_off_c, 4, 66, 64
7, 11585, Note_off_c, 4, 62, 64
7, 11585, Note_off_c, 4, 69, 64
7, 11660, Note_on_c, 4, 69, 70
7, 11660, Note_on_c, 4, 66, 70
7, 11660, Note_on_c, 4, 62, 70
7, 11678, Note_off_c, 4, 66, 64
7, 11680, Note_off_c, 4, 62, 64
7, 11681, Note_off_c, 4, 69, 64
7, 11756, Note_on_c, 4, 69, 70
7, 11756, Note_on_c, 4, 66, 70
7, 11756, Note_on_c, 4, 62, 70
7, 11775, Note_off_c, 4, 66, 64
7, 11775, Note_off_c, 4, 62, 64
7, 11778, Note_off_c, 4, 69, 64
7, 11852, Note_on_c, 4, 66, 70
7, 11852, Note_on_c, 4, 69, 70
7, 11852, Note_on_c, 4, 62, 70
7, 11874, Note_off_c, 4, 66, 64
7, 11874, Note_off_c, 4, 69, 64
7, 11874, Note_off_c, 4, 62, 64
7, 11948, Note_on_c, 4, 69, 70
7, 11948, Note_on_c, 4, 66, 70
7, 11948, Note_on_c, 4, 62, 70
7, 11969, Note_off_c, 4, 69, 64
7, 11969, Note_off_c, 4, 66, 64
7, 11969, Note_off_c, 4, 62, 64
7, 12044, Note_on_c, 4, 66, 70
7, 12044, Note_on_c, 4, 69, 70
7, 12044, Note_on_c, 4, 62, 70
7, 12064, Note_off_c, 4, 69, 64
7, 12064, Note_off_c, 4, 62, 64
7, 12066, Note_off_c, 4, 66, 64
7, 12140, Note_on_c, 4, 62, 70
7, 12140, Note_on_c, 4, 66, 70
7, 12140, Note_on_c, 4, 69, 70
7, 12160, Note_off_c, 4, 66, 64
7, 12160, Note_off_c, 4, 69, 64
7, 12162, Note_off_c, 4, 62, 64
7, 12236, Note_on_c, 4, 69, 70
7, 12236, Note_on_c, 4, 66, 70
7, 12236, Note_on_c, 4, 62, 70
7, 12256, Note_off_c, 4, 69, 64
7, 12256, Note_off_c, 4, 66, 64
7, 12257, Note_off_c, 4, 62, 64
7, 12332, Note_on_c, 4, 69, 70
7, 12332, Note_on_c, 4, 66, 70
7, 12332, Note_on_c, 4, 62, 70
7, 12350, Note_off_c, 4, 66, 64
7, 12351, Note_off_c, 4, 69, 64
7, 12351, Note_off_c, 4, 62, 64
7, 12428, Note_on_c, 4, 66, 70
7, 12428, Note_on_c, 4, 62, 70
7, 12428, Note_on_c, 4, 69, 70
7, 12448, Note_off_c, 4, 66, 64
7, 12448, Note_off_c, 4, 62, 64
7, 12448, Note_off_c, 4, 69, 64
7, 12524, Note_on_c, 4, 66, 70
7, 12524, Note_on_c, 4, 69, 70
7, 12524, Note_on_c, 4, 62, 70
7, 12545, Note_off_c, 4, 69, 64
7, 12546, Note_off_c, 4, 66, 64
7, 12546, Note_off_c, 4, 62, 64
7, 12620, Note_on_c, 4, 66, 70
7, 12620, Note_on_c, 4, 62, 70
7, 12620, Note_on_c, 4, 69, 70
7, 12639, Note_off_c, 4, 69, 64
7, 12641, Note_off_c, 4, 66, 64
7, 12641, Note_off_c, 4, 62, 64
7, 12716, Note_on_c, 4, 66, 70
7, 12716, Note_on_c, 4, 62, 70
7, 12716, Note_on_c, 4, 69, 70
7, 12736, Note_off_c, 4, 69, 64
7, 12738, Note_off_c, 4, 62, 64
7, 12739, Note_off_c, 4, 66, 64
7, 12812, Note_on_c, 4, 66, 70
7, 12812, Note_on_c, 4, 62, 70
7, 12812, Note_on_c, 4, 69, 70
7, 12833, Note_off_c, 4, 66, 64
7, 12833, Note_off_c, 4, 69, 64
7, 12834, Note_off_c, 4, 62, 64
7, 12908, Note_on_c, 4, 66, 70
7, 12908, Note_on_c, 4, 62, 70
7, 12908, Note_on_c, 4, 69, 70
7, 12929, Note_off_c, 4, 69, 64
7, 12930, Note_off_c, 4, 66, 64
7, 12930, Note_off_c, 4, 62, 64
7, 13004, Note_on_c, 4, 66, 70
7, 13004, Note_on_c, 4, 69, 70
7, 13004, Note_on_c, 4, 62, 70
7, 13022, Note_off_c, 4, 62, 64
7, 13024, Note_off_c, 4, 66, 64
7, 13024, Note_off_c, 4, 69, 64
7, 19196, Note_on_c, 4, 79, 79
7, 19196, Note_on_c, 4, 67, 86
7, 20331, Note_off_c, 4, 79, 64
7, 20342, Note_off_c, 4, 67, 64
7, 20348, Note_on_c, 4, 79, 84
7, 20348, Note_on_c, 4, 67, 61
7, 20444, Note_on_c, 4, 66, 99
7, 20444, Note_on_c, 4, 78, 87
7, 20450, Note_off_c, 4, 67, 64
7, 20456, Note_off_c, 4, 79, 64
7, 20540, Note_on_c, 4, 59, 79
7, 20540, Note_on_c, 4, 71, 76
7, 20549, Note_off_c, 4, 78, 64
7, 20550, Note_off_c, 4, 66, 64
7, 20732, Note_off_c, 4, 71, 65
7, 20732, Note_on_c, 4, 52, 110
7, 20732, Note_on_c, 4, 64, 105
7, 20734, Note_off_c, 4, 59, 65
7, 21500, Note_on_c, 4, 67, 110
7, 21500, Note_on_c, 4, 55, 79
7, 21501, Note_off_c, 4, 52, 64
7, 21505, Note_off_c, 4, 64, 64
7, 21692, Note_on_c, 4, 66, 84
7, 21692, Note_on_c, 4, 54, 77
7, 21702, Note_off_c, 4, 55, 64
7, 21702, Note_off_c, 4, 67, 64
7, 21884, Note_on_c, 4, 64, 84
7, 21884, Note_on_c, 4, 52, 86
7, 21898, Note_off_c, 4, 54, 64
7, 21906, Note_off_c, 4, 66, 64
7, 22262, Note_off_c, 4, 52, 65
7, 22266, Note_off_c, 4, 64, 65
7, 22268, Note_on_c, 4, 55, 108
7, 22268, Note_on_c, 4, 67, 110
7, 23029, Note_off_c, 4, 55, 64
7, 23036, Note_on_c, 4, 69, 84
7, 23036, Note_on_c, 4, 57, 105
7, 23038, Note_off_c, 4, 67, 64
7, 23180, Note_on_c, 4, 67, 96
7, 23180, Note_on_c, 4, 55, 86
7, 23188, Note_off_c, 4, 69, 64
7, 23190, Note_off_c, 4, 57, 64
7, 23321, Note_off_c, 4, 55, 64
7, 23324, Note_on_c, 4, 59, 79
7, 23324, Note_on_c, 4, 47, 79
7, 23328, Note_off_c, 4, 67, 64
7, 23612, Note_off_c, 4, 59, 64
7, 23612, Note_off_c, 4, 47, 64
7, 23612, Note_on_c, 4, 50, 110
7, 23612, Note_on_c, 4, 62, 110
7, 23804, Note_off_c, 4, 50, 65
7, 23804, Note_off_c, 4, 62, 65
7, 23804, Note_on_c, 4, 54, 99
7, 23804, Note_on_c, 4, 66, 110
7, 23898, Note_off_c, 4, 54, 64
7, 23900, Note_on_c, 4, 64, 102
7, 23900, Note_on_c, 4, 52, 96
7, 23908, Note_off_c, 4, 66, 64
7, 24187, Note_off_c, 4, 52, 64
7, 24188, Note_on_c, 4, 54, 84
7, 24188, Note_on_c, 4, 66, 108
7, 24196, Note_off_c, 4, 64, 64
7, 24380, Note_on_c, 4, 52, 79
7, 24380, Note_on_c, 4, 64, 110
7, 24388, Note_off_c, 4, 54, 64
7, 24400, Note_off_c, 4, 66, 64
7, 24568, Note_off_c, 4, 52, 64
7, 24572, Note_on_c, 4, 62, 110
7, 24572, Note_on_c, 4, 50, 99
7, 24573, Note_off_c, 4, 64, 64
7, 25340, Note_off_c, 4, 50, 65
7, 25340, Note_off_c, 4, 62, 65
7, 25340, Note_on_c, 4, 71, 110
7, 25340, Note_on_c, 4, 62, 110
7, 26875, Note_off_c, 4, 62, 64
7, 26876, Note_on_c, 4, 72, 74
7, 26876, Note_on_c, 4, 64, 89
7, 26878, Note_off_c, 4, 71, 64
7, 28412, Note_on_c, 4, 69, 89
7, 28412, Note_on_c, 4, 60, 74
7, 28420, Note_off_c, 4, 64, 64
7, 28421, Note_off_c, 4, 72, 64
7, 29948, Note_on_c, 4, 74, 84
7, 29948, Note_on_c, 4, 66, 79
7, 29952, Note_off_c, 4, 60, 64
7, 29954, Note_off_c, 4, 69, 64
7, 31484, Note_on_c, 4, 71, 89
7, 31484, Note_on_c, 4, 62, 72
7, 31491, Note_off_c, 4, 66, 64
7, 31491, Note_off_c, 4, 74, 64
7, 33020, Note_on_c, 4, 72, 79
7, 33020, Note_on_c, 4, 64, 84
7, 33024, Note_off_c, 4, 62, 64
7, 33024, Note_off_c, 4, 71, 64
7, 34556, Note_off_c, 4, 64, 64
7, 34556, Note_off_c, 4, 72, 64
7, 34556, Note_on_c, 4, 69, 79
7, 34556, Note_on_c, 4, 60, 81
7, 35324, Note_on_c, 4, 74, 77
7, 35324, Note_on_c, 4, 66, 89
7, 35329, Note_off_c, 4, 60, 64
7, 35335, Note_off_c, 4, 69, 64
7, 35708, Note_on_c, 4, 72, 74
7, 35708, Note_on_c, 4, 64, 74
7, 35716, Note_off_c, 4, 66, 64
7, 35716, Note_off_c, 4, 74, 64
7, 36092, Note_on_c, 4, 71, 74
7, 36092, Note_on_c, 4, 62, 89
7, 36097, Note_off_c, 4, 64, 64
7, 36103, Note_off_c, 4, 72, 64
7, 37628, Note_off_c, 4, 62, 64
7, 37628, Note_off_c, 4, 71, 64
7, 44540, Note_on_c, 4, 71, 110
7, 44540, Note_on_c, 4, 62, 110
7, 46075, Note_off_c, 4, 62, 64
7, 46076, Note_on_c, 4, 72, 74
7, 46076, Note_on_c, 4, 64, 89
7, 46078, Note_off_c, 4, 71, 64
7, 47612, Note_on_c, 4, 69, 89
7, 47612, Note_on_c, 4, 60, 74
7, 47620, Note_off_c, 4, 64, 64
7, 47621, Note_off_c, 4, 72, 64
7, 49148, Note_on_c, 4, 74, 84
7, 49148, Note_on_c, 4, 66, 79
7, 49152, Note_off_c, 4, 60, 64
7, 49154, Note_off_c, 4, 69, 64
7, 50684, Note_on_c, 4, 71, 89
7, 50684, Note_on_c, 4, 62, 72
7, 50691, Note_off_c, 4, 66, 64
7, 50691, Note_off_c, 4, 74, 64
7, 52220, Note_on_c, 4, 72, 79
7, 52220, Note_on_c, 4, 64, 84
7, 52224, Note_off_c, 4, 62, 64
7, 52224, Note_off_c, 4, 71, 64
7, 53756, Note_off_c, 4, 64, 64
7, 53756, Note_off_c, 4, 72, 64
7, 53756, Note_on_c, 4, 69, 79
7, 53756, Note_on_c, 4, 60, 81
7, 54524, Note_on_c, 4, 74, 77
7, 54524, Note_on_c, 4, 66, 89
7, 54529, Note_off_c, 4, 60, 64
7, 54535, Note_off_c, 4, 69, 64
7, 54908, Note_on_c, 4, 72, 74
7, 54908, Note_on_c, 4, 64, 74
7, 54916, Note_off_c, 4, 66, 64
7, 54916, Note_off_c, 4, 74, 64
7, 55292, Note_on_c, 4, 55, 100
7, 55292, Note_on_c, 4, 62, 93
7, 55295, Note_off_c, 4, 72, 64
7, 55295, Note_off_c, 4, 64, 64
7, 55388, Note_on_c, 4, 57, 82
7, 55580, Note_on_c, 4, 59, 87
7, 55581, Note_off_c, 4, 57, 64
7, 56060, Note_on_c, 4, 67, 92
7, 56064, Note_off_c, 4, 55, 64
7, 56156, Note_on_c, 4, 69, 84
7, 56348, Note_on_c, 4, 71, 82
7, 56355, Note_off_c, 4, 69, 64
7, 56826, Note_off_c, 4, 67, 64
7, 56828, Note_off_c, 4, 59, 64
7, 56828, Note_off_c, 4, 62, 64
7, 56828, Note_on_c, 4, 55, 100
7, 56828, Note_on_c, 4, 62, 93
7, 56832, Note_off_c, 4, 71, 64
7, 56924, Note_on_c, 4, 57, 82
7, 57116, Note_on_c, 4, 59, 87
7, 57117, Note_off_c, 4, 57, 64
7, 57596, Note_on_c, 4, 67, 92
7, 57600, Note_off_c, 4, 55, 64
7, 57692, Note_on_c, 4, 69, 84
7, 57884, Note_on_c, 4, 71, 82
7, 57891, Note_off_c, 4, 69, 64
7, 58362, Note_off_c, 4, 67, 64
7, 58364, Note_off_c, 4, 59, 64
7, 58364, Note_off_c, 4, 62, 64
7, 58364, Note_on_c, 4, 55, 100
7, 58364, Note_on_c, 4, 62, 93
7, 58368, Note_off_c, 4, 71, 64
7, 58460, Note_on_c, 4, 57, 82
7, 58652, Note_on_c, 4, 59, 87
7, 58653, Note_off_c, 4, 57, 64
7, 59132, Note_on_c, 4, 67, 92
7, 59136, Note_off_c, 4, 55, 64
7, 59228, Note_on_c, 4, 69, 84
7, 59420, Note_on_c, 4, 71, 82
7, 59427, Note_off_c, 4, 69, 64
7, 59898, Note_off_c, 4, 67, 64
7, 59900, Note_off_c, 4, 59, 64
7, 59900, Note_off_c, 4, 62, 64
7, 59900, Note_on_c, 4, 55, 100
7, 59900, Note_on_c, 4, 62, 93
7, 59904, Note_off_c, 4, 71, 64
7, 59996, Note_on_c, 4, 57, 82
7, 60188, Note_on_c, 4, 59, 87
7, 60189, Note_off_c, 4, 57, 64
7, 60668, Note_on_c, 4, 67, 92
7, 60672, Note_off_c, 4, 55, 64
7, 60764, Note_on_c, 4, 69, 84
7, 60956, Note_on_c, 4, 71, 82
7, 60963, Note_off_c, 4, 69, 64
7, 61434, Note_off_c, 4, 67, 64
7, 61436, Note_off_c, 4, 59, 64
7, 61436, Note_off_c, 4, 62, 64
7, 61436, Note_on_c, 4, 55, 100
7, 61436, Note_on_c, 4, 62, 93
7, 61440, Note_off_c, 4, 71, 64
7, 61532, Note_on_c, 4, 57, 82
7, 61724, Note_on_c, 4, 59, 87
7, 61725, Note_off_c, 4, 57, 64
7, 62204, Note_on_c, 4, 67, 92
7, 62208, Note_off_c, 4, 55, 64
7, 62300, Note_on_c, 4, 69, 84
7, 62492, Note_on_c, 4, 71, 82
7, 62499, Note_off_c, 4, 69, 64
7, 62970, Note_off_c, 4, 67, 64
7, 62972, Note_off_c, 4, 59, 64
7, 62972, Note_off_c, 4, 62, 64
7, 62972, Note_on_c, 4, 55, 100
7, 62972, Note_on_c, 4, 62, 93
7, 62976, Note_off_c, 4, 71, 64
7, 63068, Note_on_c, 4, 57, 82
7, 63260, Note_on_c, 4, 59, 87
7, 63261, Note_off_c, 4, 57, 64
7, 63740, Note_on_c, 4, 67, 92
7, 63744, Note_off_c, 4, 55, 64
7, 63836, Note_on_c, 4, 69, 84
7, 64028, Note_on_c, 4, 71, 82
7, 64035, Note_off_c, 4, 69, 64
7, 64508, Note_off_c, 4, 59, 64
7, 65852, Note_off_c, 4, 71, 64
7, 65852, Note_off_c, 4, 67, 64
7, 65852, Note_off_c, 4, 62, 64
7, 65852, End_track
8, 0, Start_track
8, 0, MIDI_port, 1
8, 0, Title_t, "Ocarina             "
8, 13, Control_c, 5, 0, 0
8, 25, Program_c, 5, 79
8, 37, Pitch_bend_c, 5, 8192
8, 49, Control_c, 5, 7, 90
8, 61, Control_c, 5, 10, 74
8, 73, Control_c, 5, 91, 90
8, 85, Control_c, 5, 93, 30
8, 97, Control_c, 5, 100, 0
8, 109, Control_c, 5, 101, 0
8, 121, Control_c, 5, 6, 2
8, 769, Note_on_c, 5, 59, 99
8, 792, Note_off_c, 5, 59, 64
8, 817, Note_on_c, 5, 55, 64
8, 837, Note_off_c, 5, 55, 64
8, 865, Note_on_c, 5, 59, 72
8, 884, Note_off_c, 5, 59, 64
8, 913, Note_on_c, 5, 55, 64
8, 931, Note_off_c, 5, 55, 64
8, 961, Note_on_c, 5, 59, 69
8, 982, Note_off_c, 5, 59, 64
8, 1009, Note_on_c, 5, 55, 55
8, 1029, Note_off_c, 5, 55, 64
8, 1057, Note_on_c, 5, 59, 69
8, 1076, Note_off_c, 5, 59, 64
8, 1105, Note_on_c, 5, 55, 74
8, 1124, Note_off_c, 5, 55, 64
8, 1153, Note_on_c, 5, 59, 74
8, 1173, Note_off_c, 5, 59, 64
8, 1201, Note_on_c, 5, 55, 69
8, 1220, Note_off_c, 5, 55, 64
8, 1249, Note_on_c, 5, 59, 74
8, 1269, Note_off_c, 5, 59, 64
8, 1297, Note_on_c, 5, 55, 64
8, 1317, Note_off_c, 5, 55, 64
8, 1345, Note_on_c, 5, 59, 64
8, 1365, Note_off_c, 5, 59, 64
8, 1393, Note_on_c, 5, 55, 58
8, 1413, Note_off_c, 5, 55, 64
8, 1441, Note_on_c, 5, 59, 69
8, 1461, Note_off_c, 5, 59, 64
8, 1489, Note_on_c, 5, 55, 72
8, 1509, Note_off_c, 5, 55, 64
8, 1537, Note_on_c, 5, 59, 64
8, 1557, Note_off_c, 5, 59, 64
8, 1585, Note_on_c, 5, 55, 69
8, 1605, Note_off_c, 5, 55, 64
8, 1633, Note_on_c, 5, 59, 74
8, 1653, Note_off_c, 5, 59, 64
8, 1681, Note_on_c, 5, 55, 72
8, 1701, Note_off_c, 5, 55, 64
8, 1729, Note_on_c, 5, 59, 66
8, 1750, Note_off_c, 5, 59, 64
8, 1777, Note_on_c, 5, 55, 69
8, 1799, Note_off_c, 5, 55, 64
8, 1825, Note_on_c, 5, 59, 84
8, 1845, Note_off_c, 5, 59, 64
8, 1873, Note_on_c, 5, 55, 69
8, 1894, Note_off_c, 5, 55, 64
8, 1921, Note_on_c, 5, 59, 64
8, 1941, Note_off_c, 5, 59, 64
8, 1969, Note_on_c, 5, 55, 66
8, 1991, Note_off_c, 5, 55, 64
8, 2017, Note_on_c, 5, 59, 58
8, 2038, Note_off_c, 5, 59, 64
8, 2065, Note_on_c, 5, 55, 74
8, 2086, Note_off_c, 5, 55, 64
8, 2113, Note_on_c, 5, 59, 79
8, 2133, Note_off_c, 5, 59, 64
8, 2161, Note_on_c, 5, 55, 66
8, 2180, Note_off_c, 5, 55, 64
8, 2209, Note_on_c, 5, 59, 79
8, 2228, Note_off_c, 5, 59, 64
8, 2257, Note_on_c, 5, 55, 66
8, 2277, Note_off_c, 5, 55, 64
8, 2305, Note_on_c, 5, 59, 77
8, 2326, Note_off_c, 5, 59, 64
8, 2353, Note_on_c, 5, 55, 64
8, 2371, Note_off_c, 5, 55, 64
8, 2401, Note_on_c, 5, 59, 64
8, 2420, Note_off_c, 5, 59, 64
8, 2449, Note_on_c, 5, 55, 72
8, 2469, Note_off_c, 5, 55, 64
8, 2497, Note_on_c, 5, 59, 66
8, 2516, Note_off_c, 5, 59, 64
8, 2545, Note_on_c, 5, 55, 72
8, 2565, Note_off_c, 5, 55, 64
8, 2593, Note_on_c, 5, 59, 61
8, 2613, Note_off_c, 5, 59, 64
8, 2641, Note_on_c, 5, 55, 64
8, 2662, Note_off_c, 5, 55, 64
8, 2689, Note_on_c, 5, 59, 58
8, 2709, Note_off_c, 5, 59, 64
8, 2737, Note_on_c, 5, 55, 58
8, 2758, Note_off_c, 5, 55, 64
8, 2785, Note_on_c, 5, 59, 66
8, 2805, Note_off_c, 5, 59, 64
8, 2833, Note_on_c, 5, 55, 64
8, 2853, Note_off_c, 5, 55, 64
8, 2881, Note_on_c, 5, 59, 66
8, 2901, Note_off_c, 5, 59, 64
8, 2929, Note_on_c, 5, 55, 66
8, 2949, Note_off_c, 5, 55, 64
8, 2977, Note_on_c, 5, 59, 69
8, 2996, Note_off_c, 5, 59, 64
8, 3025, Note_on_c, 5, 55, 66
8, 3044, Note_off_c, 5, 55, 64
8, 3073, Note_on_c, 5, 59, 64
8, 3092, Note_off_c, 5, 59, 64
8, 3121, Note_on_c, 5, 55, 74
8, 3140, Note_off_c, 5, 55, 64
8, 3169, Note_on_c, 5, 59, 69
8, 3188, Note_off_c, 5, 59, 64
8, 3217, Note_on_c, 5, 55, 69
8, 3233, Note_off_c, 5, 55, 64
8, 3265, Note_on_c, 5, 59, 84
8, 3284, Note_off_c, 5, 59, 64
8, 3313, Note_on_c, 5, 55, 64
8, 3332, Note_off_c, 5, 55, 64
8, 3361, Note_on_c, 5, 59, 61
8, 3380, Note_off_c, 5, 59, 64
8, 3409, Note_on_c, 5, 55, 58
8, 3428, Note_off_c, 5, 55, 64
8, 3457, Note_on_c, 5, 59, 64
8, 3477, Note_off_c, 5, 59, 64
8, 3505, Note_on_c, 5, 55, 64
8, 3523, Note_off_c, 5, 55, 64
8, 3553, Note_on_c, 5, 59, 64
8, 3573, Note_off_c, 5, 59, 64
8, 3601, Note_on_c, 5, 55, 66
8, 3622, Note_off_c, 5, 55, 64
8, 3649, Note_on_c, 5, 59, 64
8, 3668, Note_off_c, 5, 59, 64
8, 3697, Note_on_c, 5, 55, 55
8, 3716, Note_off_c, 5, 55, 64
8, 3745, Note_on_c, 5, 59, 66
8, 3765, Note_off_c, 5, 59, 64
8, 3793, Note_on_c, 5, 55, 64
8, 3813, Note_off_c, 5, 55, 64
8, 3841, Note_on_c, 5, 59, 89
8, 3862, Note_off_c, 5, 59, 64
8, 3889, Note_on_c, 5, 55, 51
8, 3907, Note_off_c, 5, 55, 64
8, 3937, Note_on_c, 5, 59, 55
8, 3958, Note_off_c, 5, 59, 64
8, 3985, Note_on_c, 5, 55, 72
8, 4005, Note_off_c, 5, 55, 64
8, 4033, Note_on_c, 5, 59, 72
8, 4055, Note_off_c, 5, 59, 64
8, 4081, Note_on_c, 5, 55, 69
8, 4102, Note_off_c, 5, 55, 64
8, 4129, Note_on_c, 5, 59, 58
8, 4149, Note_off_c, 5, 59, 64
8, 4177, Note_on_c, 5, 55, 64
8, 4197, Note_off_c, 5, 55, 64
8, 4225, Note_on_c, 5, 59, 79
8, 4245, Note_off_c, 5, 59, 64
8, 4273, Note_on_c, 5, 55, 66
8, 4292, Note_off_c, 5, 55, 64
8, 4321, Note_on_c, 5, 59, 55
8, 4341, Note_off_c, 5, 59, 64
8, 4369, Note_on_c, 5, 55, 72
8, 4388, Note_off_c, 5, 55, 64
8, 4417, Note_on_c, 5, 59, 66
8, 4438, Note_off_c, 5, 59, 64
8, 4465, Note_on_c, 5, 55, 64
8, 4485, Note_off_c, 5, 55, 64
8, 4513, Note_on_c, 5, 59, 48
8, 4532, Note_off_c, 5, 59, 64
8, 4561, Note_on_c, 5, 55, 64
8, 4581, Note_off_c, 5, 55, 64
8, 4609, Note_on_c, 5, 59, 66
8, 4631, Note_off_c, 5, 59, 64
8, 4657, Note_on_c, 5, 55, 64
8, 4677, Note_off_c, 5, 55, 64
8, 4705, Note_on_c, 5, 59, 74
8, 4725, Note_off_c, 5, 59, 64
8, 4753, Note_on_c, 5, 55, 84
8, 4773, Note_off_c, 5, 55, 64
8, 4801, Note_on_c, 5, 59, 66
8, 4823, Note_off_c, 5, 59, 64
8, 4849, Note_on_c, 5, 55, 61
8, 4870, Note_off_c, 5, 55, 64
8, 4897, Note_on_c, 5, 59, 66
8, 4919, Note_off_c, 5, 59, 64
8, 4945, Note_on_c, 5, 55, 72
8, 4967, Note_off_c, 5, 55, 64
8, 4993, Note_on_c, 5, 59, 72
8, 5015, Note_off_c, 5, 59, 64
8, 5041, Note_on_c, 5, 55, 58
8, 5063, Note_off_c, 5, 55, 64
8, 5089, Note_on_c, 5, 59, 74
8, 5111, Note_off_c, 5, 59, 64
8, 5137, Note_on_c, 5, 55, 79
8, 5161, Note_off_c, 5, 55, 64
8, 5185, Note_on_c, 5, 59, 72
8, 5208, Note_off_c, 5, 59, 64
8, 5233, Note_on_c, 5, 55, 55
8, 5262, Note_off_c, 5, 55, 64
8, 5281, Note_on_c, 5, 59, 79
8, 5304, Note_off_c, 5, 59, 64
8, 5329, Note_on_c, 5, 55, 79
8, 5350, Note_off_c, 5, 55, 64
8, 5377, Note_on_c, 5, 57, 79
8, 5396, Note_off_c, 5, 57, 64
8, 5425, Note_on_c, 5, 54, 81
8, 5446, Note_off_c, 5, 54, 64
8, 5473, Note_on_c, 5, 57, 69
8, 5489, Note_off_c, 5, 57, 64
8, 5521, Note_on_c, 5, 54, 51
8, 5540, Note_off_c, 5, 54, 64
8, 5569, Note_on_c, 5, 57, 74
8, 5587, Note_off_c, 5, 57, 64
8, 5617, Note_on_c, 5, 54, 72
8, 5639, Note_off_c, 5, 54, 64
8, 5665, Note_on_c, 5, 57, 74
8, 5684, Note_off_c, 5, 57, 64
8, 5713, Note_on_c, 5, 54, 77
8, 5732, Note_off_c, 5, 54, 64
8, 5761, Note_on_c, 5, 57, 66
8, 5779, Note_off_c, 5, 57, 64
8, 5809, Note_on_c, 5, 54, 72
8, 5829, Note_off_c, 5, 54, 64
8, 5857, Note_on_c, 5, 57, 74
8, 5875, Note_off_c, 5, 57, 64
8, 5905, Note_on_c, 5, 54, 89
8, 5924, Note_off_c, 5, 54, 64
8, 5953, Note_on_c, 5, 57, 64
8, 5970, Note_off_c, 5, 57, 64
8, 6001, Note_on_c, 5, 54, 84
8, 6021, Note_off_c, 5, 54, 64
8, 6049, Note_on_c, 5, 57, 79
8, 6066, Note_off_c, 5, 57, 64
8, 6097, Note_on_c, 5, 54, 61
8, 6115, Note_off_c, 5, 54, 64
8, 6145, Note_on_c, 5, 57, 79
8, 6165, Note_off_c, 5, 57, 64
8, 6193, Note_on_c, 5, 54, 84
8, 6214, Note_off_c, 5, 54, 64
8, 6241, Note_on_c, 5, 57, 84
8, 6260, Note_off_c, 5, 57, 64
8, 6289, Note_on_c, 5, 54, 77
8, 6308, Note_off_c, 5, 54, 64
8, 6337, Note_on_c, 5, 57, 96
8, 6357, Note_off_c, 5, 57, 64
8, 6385, Note_on_c, 5, 54, 77
8, 6405, Note_off_c, 5, 54, 64
8, 6433, Note_on_c, 5, 57, 58
8, 6451, Note_off_c, 5, 57, 64
8, 6481, Note_on_c, 5, 54, 84
8, 6500, Note_off_c, 5, 54, 64
8, 6529, Note_on_c, 5, 57, 66
8, 6549, Note_off_c, 5, 57, 64
8, 6577, Note_on_c, 5, 54, 77
8, 6595, Note_off_c, 5, 54, 64
8, 6625, Note_on_c, 5, 57, 64
8, 6644, Note_off_c, 5, 57, 64
8, 6673, Note_on_c, 5, 54, 72
8, 6695, Note_off_c, 5, 54, 64
8, 6721, Note_on_c, 5, 57, 84
8, 6740, Note_off_c, 5, 57, 64
8, 6769, Note_on_c, 5, 54, 105
8, 6792, Note_off_c, 5, 54, 64
8, 6817, Note_on_c, 5, 57, 66
8, 6837, Note_off_c, 5, 57, 64
8, 6865, Note_on_c, 5, 54, 61
8, 6889, Note_off_c, 5, 54, 64
8, 6913, Note_on_c, 5, 59, 84
8, 6937, Note_off_c, 5, 59, 64
8, 6961, Note_on_c, 5, 55, 69
8, 6982, Note_off_c, 5, 55, 64
8, 7009, Note_on_c, 5, 59, 58
8, 7030, Note_off_c, 5, 59, 64
8, 7057, Note_on_c, 5, 55, 64
8, 7076, Note_off_c, 5, 55, 64
8, 7105, Note_on_c, 5, 59, 66
8, 7127, Note_off_c, 5, 59, 64
8, 7153, Note_on_c, 5, 55, 72
8, 7171, Note_off_c, 5, 55, 64
8, 7201, Note_on_c, 5, 59, 69
8, 7221, Note_off_c, 5, 59, 64
8, 7249, Note_on_c, 5, 55, 84
8, 7267, Note_off_c, 5, 55, 64
8, 7297, Note_on_c, 5, 59, 89
8, 7318, Note_off_c, 5, 59, 64
8, 7345, Note_on_c, 5, 55, 72
8, 7363, Note_off_c, 5, 55, 64
8, 7393, Note_on_c, 5, 59, 64
8, 7414, Note_off_c, 5, 59, 64
8, 7441, Note_on_c, 5, 55, 58
8, 7460, Note_off_c, 5, 55, 64
8, 7489, Note_on_c, 5, 59, 74
8, 7509, Note_off_c, 5, 59, 64
8, 7537, Note_on_c, 5, 55, 58
8, 7555, Note_off_c, 5, 55, 64
8, 7585, Note_on_c, 5, 59, 58
8, 7604, Note_off_c, 5, 59, 64
8, 7633, Note_on_c, 5, 55, 74
8, 7652, Note_off_c, 5, 55, 64
8, 7681, Note_on_c, 5, 59, 64
8, 7703, Note_off_c, 5, 59, 64
8, 7729, Note_on_c, 5, 55, 64
8, 7748, Note_off_c, 5, 55, 64
8, 7777, Note_on_c, 5, 59, 79
8, 7797, Note_off_c, 5, 59, 64
8, 7825, Note_on_c, 5, 55, 64
8, 7843, Note_off_c, 5, 55, 64
8, 7873, Note_on_c, 5, 59, 84
8, 7893, Note_off_c, 5, 59, 64
8, 7921, Note_on_c, 5, 55, 64
8, 7939, Note_off_c, 5, 55, 64
8, 7969, Note_on_c, 5, 59, 74
8, 7990, Note_off_c, 5, 59, 64
8, 8017, Note_on_c, 5, 55, 64
8, 8038, Note_off_c, 5, 55, 64
8, 8065, Note_on_c, 5, 59, 79
8, 8087, Note_off_c, 5, 59, 64
8, 8113, Note_on_c, 5, 55, 51
8, 8133, Note_off_c, 5, 55, 64
8, 8161, Note_on_c, 5, 59, 66
8, 8184, Note_off_c, 5, 59, 64
8, 8209, Note_on_c, 5, 55, 66
8, 8230, Note_off_c, 5, 55, 64
8, 8257, Note_on_c, 5, 59, 66
8, 8278, Note_off_c, 5, 59, 64
8, 8305, Note_on_c, 5, 55, 74
8, 8325, Note_off_c, 5, 55, 64
8, 8353, Note_on_c, 5, 59, 79
8, 8374, Note_off_c, 5, 59, 64
8, 8401, Note_on_c, 5, 55, 69
8, 8421, Note_off_c, 5, 55, 64
8, 8449, Note_on_c, 5, 59, 64
8, 8470, Note_off_c, 5, 59, 64
8, 8497, Note_on_c, 5, 55, 64
8, 8516, Note_off_c, 5, 55, 64
8, 8545, Note_on_c, 5, 59, 79
8, 8564, Note_off_c, 5, 59, 64
8, 8593, Note_on_c, 5, 55, 64
8, 8612, Note_off_c, 5, 55, 64
8, 8641, Note_on_c, 5, 59, 66
8, 8663, Note_off_c, 5, 59, 64
8, 8689, Note_on_c, 5, 55, 64
8, 8709, Note_off_c, 5, 55, 64
8, 8737, Note_on_c, 5, 59, 74
8, 8758, Note_off_c, 5, 59, 64
8, 8785, Note_on_c, 5, 55, 58
8, 8803, Note_off_c, 5, 55, 64
8, 8833, Note_on_c, 5, 59, 79
8, 8855, Note_off_c, 5, 59, 64
8, 8881, Note_on_c, 5, 55, 72
8, 8901, Note_off_c, 5, 55, 64
8, 8929, Note_on_c, 5, 59, 69
8, 8950, Note_off_c, 5, 59, 64
8, 8977, Note_on_c, 5, 55, 58
8, 8996, Note_off_c, 5, 55, 64
8, 9025, Note_on_c, 5, 59, 89
8, 9048, Note_off_c, 5, 59, 64
8, 9073, Note_on_c, 5, 55, 64
8, 9092, Note_off_c, 5, 55, 64
8, 9121, Note_on_c, 5, 59, 69
8, 9141, Note_off_c, 5, 59, 64
8, 9169, Note_on_c, 5, 55, 84
8, 9188, Note_off_c, 5, 55, 64
8, 9217, Note_on_c, 5, 59, 66
8, 9238, Note_off_c, 5, 59, 64
8, 9265, Note_on_c, 5, 55, 64
8, 9285, Note_off_c, 5, 55, 64
8, 9313, Note_on_c, 5, 59, 66
8, 9334, Note_off_c, 5, 59, 64
8, 9361, Note_on_c, 5, 55, 64
8, 9380, Note_off_c, 5, 55, 64
8, 9409, Note_on_c, 5, 59, 69
8, 9429, Note_off_c, 5, 59, 64
8, 9457, Note_on_c, 5, 55, 58
8, 9476, Note_off_c, 5, 55, 64
8, 9505, Note_on_c, 5, 59, 66
8, 9526, Note_off_c, 5, 59, 64
8, 9553, Note_on_c, 5, 55, 61
8, 9571, Note_off_c, 5, 55, 64
8, 9601, Note_on_c, 5, 59, 66
8, 9623, Note_off_c, 5, 59, 64
8, 9649, Note_on_c, 5, 55, 64
8, 9671, Note_off_c, 5, 55, 64
8, 9697, Note_on_c, 5, 59, 66
8, 9719, Note_off_c, 5, 59, 64
8, 9745, Note_on_c, 5, 55, 72
8, 9767, Note_off_c, 5, 55, 64
8, 9793, Note_on_c, 5, 59, 72
8, 9813, Note_off_c, 5, 59, 64
8, 9841, Note_on_c, 5, 55, 74
8, 9865, Note_off_c, 5, 55, 64
8, 9889, Note_on_c, 5, 59, 66
8, 9911, Note_off_c, 5, 59, 64
8, 9937, Note_on_c, 5, 55, 66
8, 9959, Note_off_c, 5, 55, 64
8, 9985, Note_on_c, 5, 60, 79
8, 10006, Note_off_c, 5, 60, 64
8, 10033, Note_on_c, 5, 55, 55
8, 10051, Note_off_c, 5, 55, 64
8, 10081, Note_on_c, 5, 60, 66
8, 10102, Note_off_c, 5, 60, 64
8, 10129, Note_on_c, 5, 55, 72
8, 10147, Note_off_c, 5, 55, 64
8, 10177, Note_on_c, 5, 60, 74
8, 10200, Note_off_c, 5, 60, 64
8, 10225, Note_on_c, 5, 55, 61
8, 10245, Note_off_c, 5, 55, 64
8, 10273, Note_on_c, 5, 60, 66
8, 10296, Note_off_c, 5, 60, 64
8, 10321, Note_on_c, 5, 55, 72
8, 10341, Note_off_c, 5, 55, 64
8, 10369, Note_on_c, 5, 60, 77
8, 10392, Note_off_c, 5, 60, 64
8, 10417, Note_on_c, 5, 55, 66
8, 10437, Note_off_c, 5, 55, 64
8, 10465, Note_on_c, 5, 60, 72
8, 10487, Note_off_c, 5, 60, 64
8, 10513, Note_on_c, 5, 55, 69
8, 10534, Note_off_c, 5, 55, 64
8, 10561, Note_on_c, 5, 60, 74
8, 10583, Note_off_c, 5, 60, 64
8, 10609, Note_on_c, 5, 55, 64
8, 10636, Note_off_c, 5, 55, 64
8, 10657, Note_on_c, 5, 60, 64
8, 10680, Note_off_c, 5, 60, 64
8, 10705, Note_on_c, 5, 55, 72
8, 10727, Note_off_c, 5, 55, 64
8, 10753, Note_on_c, 5, 59, 84
8, 10777, Note_off_c, 5, 59, 64
8, 10801, Note_on_c, 5, 55, 66
8, 10822, Note_off_c, 5, 55, 64
8, 10849, Note_on_c, 5, 59, 77
8, 10871, Note_off_c, 5, 59, 64
8, 10897, Note_on_c, 5, 55, 64
8, 10920, Note_off_c, 5, 55, 64
8, 10945, Note_on_c, 5, 59, 66
8, 10967, Note_off_c, 5, 59, 64
8, 10993, Note_on_c, 5, 55, 55
8, 11015, Note_off_c, 5, 55, 64
8, 11041, Note_on_c, 5, 59, 64
8, 11062, Note_off_c, 5, 59, 64
8, 11089, Note_on_c, 5, 55, 64
8, 11109, Note_off_c, 5, 55, 64
8, 11137, Note_on_c, 5, 59, 84
8, 11161, Note_off_c, 5, 59, 64
8, 11185, Note_on_c, 5, 55, 64
8, 11205, Note_off_c, 5, 55, 64
8, 11233, Note_on_c, 5, 59, 72
8, 11256, Note_off_c, 5, 59, 64
8, 11281, Note_on_c, 5, 55, 69
8, 11306, Note_off_c, 5, 55, 64
8, 11329, Note_on_c, 5, 59, 79
8, 11350, Note_off_c, 5, 59, 64
8, 11377, Note_on_c, 5, 55, 79
8, 11404, Note_off_c, 5, 55, 64
8, 11425, Note_on_c, 5, 59, 69
8, 11446, Note_off_c, 5, 59, 64
8, 11473, Note_on_c, 5, 55, 79
8, 11495, Note_off_c, 5, 55, 64
8, 11521, Note_on_c, 5, 57, 66
8, 11540, Note_off_c, 5, 57, 64
8, 11569, Note_on_c, 5, 54, 81
8, 11589, Note_off_c, 5, 54, 64
8, 11617, Note_on_c, 5, 57, 66
8, 11635, Note_off_c, 5, 57, 64
8, 11665, Note_on_c, 5, 54, 90
8, 11685, Note_off_c, 5, 54, 64
8, 11713, Note_on_c, 5, 57, 89
8, 11735, Note_off_c, 5, 57, 64
8, 11761, Note_on_c, 5, 54, 89
8, 11783, Note_off_c, 5, 54, 64
8, 11809, Note_on_c, 5, 57, 64
8, 11828, Note_off_c, 5, 57, 64
8, 11857, Note_on_c, 5, 54, 91
8, 11878, Note_off_c, 5, 54, 64
8, 11905, Note_on_c, 5, 57, 89
8, 11925, Note_off_c, 5, 57, 64
8, 11953, Note_on_c, 5, 54, 79
8, 11974, Note_off_c, 5, 54, 64
8, 12001, Note_on_c, 5, 57, 66
8, 12019, Note_off_c, 5, 57, 64
8, 12049, Note_on_c, 5, 54, 64
8, 12068, Note_off_c, 5, 54, 64
8, 12097, Note_on_c, 5, 57, 74
8, 12115, Note_off_c, 5, 57, 64
8, 12145, Note_on_c, 5, 54, 61
8, 12164, Note_off_c, 5, 54, 64
8, 12193, Note_on_c, 5, 57, 79
8, 12210, Note_off_c, 5, 57, 64
8, 12241, Note_on_c, 5, 54, 79
8, 12260, Note_off_c, 5, 54, 64
8, 12289, Note_on_c, 5, 57, 79
8, 12308, Note_off_c, 5, 57, 64
8, 12337, Note_on_c, 5, 54, 86
8, 12357, Note_off_c, 5, 54, 64
8, 12385, Note_on_c, 5, 57, 66
8, 12405, Note_off_c, 5, 57, 64
8, 12433, Note_on_c, 5, 54, 84
8, 12451, Note_off_c, 5, 54, 64
8, 12481, Note_on_c, 5, 57, 84
8, 12501, Note_off_c, 5, 57, 64
8, 12529, Note_on_c, 5, 54, 96
8, 12549, Note_off_c, 5, 54, 64
8, 12577, Note_on_c, 5, 57, 89
8, 12596, Note_off_c, 5, 57, 64
8, 12625, Note_on_c, 5, 54, 84
8, 12644, Note_off_c, 5, 54, 64
8, 12673, Note_on_c, 5, 57, 74
8, 12692, Note_off_c, 5, 57, 64
8, 12721, Note_on_c, 5, 54, 89
8, 12740, Note_off_c, 5, 54, 64
8, 12769, Note_on_c, 5, 57, 77
8, 12788, Note_off_c, 5, 57, 64
8, 12817, Note_on_c, 5, 54, 77
8, 12838, Note_off_c, 5, 54, 64
8, 12865, Note_on_c, 5, 57, 89
8, 12885, Note_off_c, 5, 57, 64
8, 12913, Note_on_c, 5, 54, 93
8, 12937, Note_off_c, 5, 54, 64
8, 12961, Note_on_c, 5, 57, 72
8, 12980, Note_off_c, 5, 57, 64
8, 13009, Note_on_c, 5, 54, 91
8, 13034, Note_off_c, 5, 54, 64
8, 13057, Note_on_c, 5, 59, 66
8, 13072, Note_off_c, 5, 59, 64
8, 13101, Note_on_c, 5, 55, 79
8, 13117, Note_off_c, 5, 55, 64
8, 13149, Note_on_c, 5, 59, 64
8, 13166, Note_off_c, 5, 59, 64
8, 13196, Note_on_c, 5, 55, 72
8, 13212, Note_off_c, 5, 55, 64
8, 13244, Note_on_c, 5, 59, 72
8, 13261, Note_off_c, 5, 59, 64
8, 13292, Note_on_c, 5, 55, 72
8, 13308, Note_off_c, 5, 55, 64
8, 13341, Note_on_c, 5, 59, 61
8, 13357, Note_off_c, 5, 59, 64
8, 13388, Note_on_c, 5, 55, 72
8, 13404, Note_off_c, 5, 55, 64
8, 13436, Note_on_c, 5, 59, 64
8, 13452, Note_off_c, 5, 59, 64
8, 13484, Note_on_c, 5, 55, 72
8, 13499, Note_off_c, 5, 55, 64
8, 13532, Note_on_c, 5, 59, 66
8, 13550, Note_off_c, 5, 59, 64
8, 13580, Note_on_c, 5, 55, 64
8, 13597, Note_off_c, 5, 55, 64
8, 13627, Note_on_c, 5, 59, 64
8, 13645, Note_off_c, 5, 59, 64
8, 13675, Note_on_c, 5, 55, 51
8, 13690, Note_off_c, 5, 55, 64
8, 13723, Note_on_c, 5, 59, 55
8, 13739, Note_off_c, 5, 59, 64
8, 13771, Note_on_c, 5, 55, 55
8, 13787, Note_off_c, 5, 55, 64
8, 13817, Note_on_c, 5, 59, 58
8, 13835, Note_off_c, 5, 59, 64
8, 13863, Note_on_c, 5, 55, 64
8, 13880, Note_off_c, 5, 55, 64
8, 13909, Note_on_c, 5, 59, 72
8, 13929, Note_off_c, 5, 59, 64
8, 13959, Note_on_c, 5, 55, 58
8, 13976, Note_off_c, 5, 55, 64
8, 14008, Note_on_c, 5, 59, 61
8, 14025, Note_off_c, 5, 59, 64
8, 14054, Note_on_c, 5, 55, 58
8, 14072, Note_off_c, 5, 55, 64
8, 14105, Note_on_c, 5, 59, 55
8, 14122, Note_off_c, 5, 59, 64
8, 14152, Note_on_c, 5, 55, 55
8, 14170, Note_off_c, 5, 55, 64
8, 14200, Note_on_c, 5, 59, 61
8, 14219, Note_off_c, 5, 59, 64
8, 14248, Note_on_c, 5, 55, 69
8, 14267, Note_off_c, 5, 55, 64
8, 14297, Note_on_c, 5, 59, 64
8, 14316, Note_off_c, 5, 59, 64
8, 14345, Note_on_c, 5, 55, 55
8, 14363, Note_off_c, 5, 55, 64
8, 14391, Note_on_c, 5, 59, 61
8, 14412, Note_off_c, 5, 59, 64
8, 14438, Note_on_c, 5, 55, 64
8, 14460, Note_off_c, 5, 55, 64
8, 14491, Note_on_c, 5, 59, 55
8, 14509, Note_off_c, 5, 59, 64
8, 14538, Note_on_c, 5, 55, 66
8, 14557, Note_off_c, 5, 55, 64
8, 14589, Note_on_c, 5, 60, 55
8, 14605, Note_off_c, 5, 60, 64
8, 14633, Note_on_c, 5, 55, 69
8, 14651, Note_off_c, 5, 55, 64
8, 14681, Note_on_c, 5, 60, 69
8, 14701, Note_off_c, 5, 60, 64
8, 14728, Note_on_c, 5, 55, 69
8, 14746, Note_off_c, 5, 55, 64
8, 14779, Note_on_c, 5, 60, 51
8, 14794, Note_off_c, 5, 60, 64
8, 14825, Note_on_c, 5, 55, 58
8, 14840, Note_off_c, 5, 55, 64
8, 14874, Note_on_c, 5, 60, 61
8, 14891, Note_off_c, 5, 60, 64
8, 14921, Note_on_c, 5, 55, 61
8, 14936, Note_off_c, 5, 55, 64
8, 14968, Note_on_c, 5, 60, 69
8, 14987, Note_off_c, 5, 60, 64
8, 15016, Note_on_c, 5, 55, 61
8, 15032, Note_off_c, 5, 55, 64
8, 15066, Note_on_c, 5, 60, 64
8, 15083, Note_off_c, 5, 60, 64
8, 15112, Note_on_c, 5, 55, 69
8, 15127, Note_off_c, 5, 55, 64
8, 15163, Note_on_c, 5, 60, 43
8, 15179, Note_off_c, 5, 60, 64
8, 15208, Note_on_c, 5, 55, 69
8, 15224, Note_off_c, 5, 55, 64
8, 15257, Note_on_c, 5, 60, 51
8, 15276, Note_off_c, 5, 60, 64
8, 15304, Note_on_c, 5, 55, 58
8, 15321, Note_off_c, 5, 55, 64
8, 15354, Note_on_c, 5, 60, 58
8, 15371, Note_off_c, 5, 60, 64
8, 15400, Note_on_c, 5, 55, 51
8, 15416, Note_off_c, 5, 55, 64
8, 15448, Note_on_c, 5, 60, 64
8, 15467, Note_off_c, 5, 60, 64
8, 15495, Note_on_c, 5, 55, 51
8, 15512, Note_off_c, 5, 55, 64
8, 15545, Note_on_c, 5, 60, 64
8, 15563, Note_off_c, 5, 60, 64
8, 15593, Note_on_c, 5, 55, 48
8, 15610, Note_off_c, 5, 55, 64
8, 15642, Note_on_c, 5, 60, 61
8, 15661, Note_off_c, 5, 60, 64
8, 15691, Note_on_c, 5, 55, 51
8, 15707, Note_off_c, 5, 55, 64
8, 15740, Note_on_c, 5, 60, 55
8, 15758, Note_off_c, 5, 60, 64
8, 15785, Note_on_c, 5, 55, 61
8, 15803, Note_off_c, 5, 55, 64
8, 15835, Note_on_c, 5, 60, 51
8, 15854, Note_off_c, 5, 60, 64
8, 15880, Note_on_c, 5, 55, 55
8, 15897, Note_off_c, 5, 55, 64
8, 15929, Note_on_c, 5, 60, 58
8, 15949, Note_off_c, 5, 60, 64
8, 15975, Note_on_c, 5, 55, 55
8, 15996, Note_off_c, 5, 55, 64
8, 16028, Note_on_c, 5, 60, 69
8, 16048, Note_off_c, 5, 60, 64
8, 16072, Note_on_c, 5, 55, 72
8, 16093, Note_off_c, 5, 55, 64
8, 16122, Note_on_c, 5, 60, 58
8, 16139, Note_off_c, 5, 60, 64
8, 16168, Note_on_c, 5, 57, 55
8, 16185, Note_off_c, 5, 57, 64
8, 16217, Note_on_c, 5, 60, 55
8, 16234, Note_off_c, 5, 60, 64
8, 16264, Note_on_c, 5, 57, 55
8, 16279, Note_off_c, 5, 57, 64
8, 16312, Note_on_c, 5, 60, 43
8, 16327, Note_off_c, 5, 60, 64
8, 16358, Note_on_c, 5, 57, 58
8, 16374, Note_off_c, 5, 57, 64
8, 16407, Note_on_c, 5, 60, 48
8, 16425, Note_off_c, 5, 60, 64
8, 16455, Note_on_c, 5, 57, 43
8, 16471, Note_off_c, 5, 57, 64
8, 16503, Note_on_c, 5, 60, 48
8, 16522, Note_off_c, 5, 60, 64
8, 16550, Note_on_c, 5, 57, 51
8, 16568, Note_off_c, 5, 57, 64
8, 16599, Note_on_c, 5, 60, 48
8, 16619, Note_off_c, 5, 60, 64
8, 16645, Note_on_c, 5, 57, 64
8, 16662, Note_off_c, 5, 57, 64
8, 16692, Note_on_c, 5, 60, 61
8, 16713, Note_off_c, 5, 60, 64
8, 16740, Note_on_c, 5, 57, 51
8, 16756, Note_off_c, 5, 57, 64
8, 16789, Note_on_c, 5, 60, 55
8, 16807, Note_off_c, 5, 60, 64
8, 16837, Note_on_c, 5, 57, 64
8, 16852, Note_off_c, 5, 57, 64
8, 16886, Note_on_c, 5, 60, 61
8, 16905, Note_off_c, 5, 60, 64
8, 16935, Note_on_c, 5, 57, 61
8, 16950, Note_off_c, 5, 57, 64
8, 16985, Note_on_c, 5, 60, 55
8, 17001, Note_off_c, 5, 60, 64
8, 17031, Note_on_c, 5, 57, 58
8, 17047, Note_off_c, 5, 57, 64
8, 17080, Note_on_c, 5, 60, 58
8, 17098, Note_off_c, 5, 60, 64
8, 17130, Note_on_c, 5, 57, 55
8, 17146, Note_off_c, 5, 57, 64
8, 17179, Note_on_c, 5, 60, 61
8, 17198, Note_off_c, 5, 60, 64
8, 17228, Note_on_c, 5, 57, 51
8, 17244, Note_off_c, 5, 57, 64
8, 17276, Note_on_c, 5, 60, 55
8, 17296, Note_off_c, 5, 60, 64
8, 17326, Note_on_c, 5, 57, 61
8, 17343, Note_off_c, 5, 57, 64
8, 17373, Note_on_c, 5, 60, 55
8, 17393, Note_off_c, 5, 60, 64
8, 17419, Note_on_c, 5, 57, 72
8, 17438, Note_off_c, 5, 57, 64
8, 17468, Note_on_c, 5, 60, 64
8, 17489, Note_off_c, 5, 60, 64
8, 17513, Note_on_c, 5, 57, 58
8, 17533, Note_off_c, 5, 57, 64
8, 17564, Note_on_c, 5, 60, 51
8, 17585, Note_off_c, 5, 60, 64
8, 17608, Note_on_c, 5, 57, 61
8, 17631, Note_off_c, 5, 57, 64
8, 17661, Note_on_c, 5, 57, 58
8, 17677, Note_off_c, 5, 57, 64
8, 17705, Note_on_c, 5, 54, 89
8, 17725, Note_off_c, 5, 54, 64
8, 17756, Note_on_c, 5, 57, 55
8, 17771, Note_off_c, 5, 57, 64
8, 17799, Note_on_c, 5, 54, 64
8, 17821, Note_off_c, 5, 54, 64
8, 17849, Note_on_c, 5, 57, 55
8, 17868, Note_off_c, 5, 57, 64
8, 17897, Note_on_c, 5, 54, 64
8, 17916, Note_off_c, 5, 54, 64
8, 17945, Note_on_c, 5, 57, 61
8, 17964, Note_off_c, 5, 57, 64
8, 17992, Note_on_c, 5, 54, 51
8, 18011, Note_off_c, 5, 54, 64
8, 18040, Note_on_c, 5, 57, 55
8, 18059, Note_off_c, 5, 57, 64
8, 18087, Note_on_c, 5, 54, 77
8, 18105, Note_off_c, 5, 54, 64
8, 18133, Note_on_c, 5, 57, 74
8, 18155, Note_off_c, 5, 57, 64
8, 18181, Note_on_c, 5, 54, 48
8, 18199, Note_off_c, 5, 54, 64
8, 18229, Note_on_c, 5, 57, 64
8, 18248, Note_off_c, 5, 57, 64
8, 18278, Note_on_c, 5, 54, 61
8, 18297, Note_off_c, 5, 54, 64
8, 18326, Note_on_c, 5, 57, 51
8, 18346, Note_off_c, 5, 57, 64
8, 18374, Note_on_c, 5, 54, 66
8, 18395, Note_off_c, 5, 54, 64
8, 18422, Note_on_c, 5, 57, 58
8, 18441, Note_off_c, 5, 57, 64
8, 18469, Note_on_c, 5, 54, 51
8, 18488, Note_off_c, 5, 54, 64
8, 18518, Note_on_c, 5, 57, 58
8, 18537, Note_off_c, 5, 57, 64
8, 18566, Note_on_c, 5, 54, 61
8, 18584, Note_off_c, 5, 54, 64
8, 18615, Note_on_c, 5, 57, 48
8, 18633, Note_off_c, 5, 57, 64
8, 18662, Note_on_c, 5, 54, 72
8, 18681, Note_off_c, 5, 54, 64
8, 18714, Note_on_c, 5, 57, 55
8, 18734, Note_off_c, 5, 57, 64
8, 18764, Note_on_c, 5, 54, 58
8, 18782, Note_off_c, 5, 54, 64
8, 18810, Note_on_c, 5, 57, 48
8, 18828, Note_off_c, 5, 57, 64
8, 18856, Note_on_c, 5, 54, 64
8, 18877, Note_off_c, 5, 54, 64
8, 18906, Note_on_c, 5, 57, 51
8, 18925, Note_off_c, 5, 57, 64
8, 18953, Note_on_c, 5, 54, 48
8, 18976, Note_off_c, 5, 54, 64
8, 19003, Note_on_c, 5, 57, 55
8, 19021, Note_off_c, 5, 57, 64
8, 19050, Note_on_c, 5, 54, 48
8, 19071, Note_off_c, 5, 54, 64
8, 19098, Note_on_c, 5, 57, 61
8, 19117, Note_off_c, 5, 57, 64
8, 19140, Note_on_c, 5, 54, 84
8, 19162, Note_off_c, 5, 54, 64
8, 19192, Note_on_c, 5, 59, 55
8, 19212, Note_off_c, 5, 59, 64
8, 19240, Note_on_c, 5, 55, 58
8, 19257, Note_off_c, 5, 55, 64
8, 19288, Note_on_c, 5, 59, 61
8, 19309, Note_off_c, 5, 59, 64
8, 19337, Note_on_c, 5, 55, 61
8, 19354, Note_off_c, 5, 55, 64
8, 19386, Note_on_c, 5, 59, 55
8, 19404, Note_off_c, 5, 59, 64
8, 19433, Note_on_c, 5, 55, 51
8, 19450, Note_off_c, 5, 55, 64
8, 19482, Note_on_c, 5, 59, 55
8, 19501, Note_off_c, 5, 59, 64
8, 19529, Note_on_c, 5, 55, 61
8, 19547, Note_off_c, 5, 55, 64
8, 19579, Note_on_c, 5, 59, 64
8, 19598, Note_off_c, 5, 59, 64
8, 19627, Note_on_c, 5, 55, 51
8, 19643, Note_off_c, 5, 55, 64
8, 19675, Note_on_c, 5, 59, 55
8, 19694, Note_off_c, 5, 59, 64
8, 19723, Note_on_c, 5, 55, 51
8, 19740, Note_off_c, 5, 55, 64
8, 19770, Note_on_c, 5, 59, 69
8, 19791, Note_off_c, 5, 59, 64
8, 19818, Note_on_c, 5, 55, 55
8, 19836, Note_off_c, 5, 55, 64
8, 19871, Note_on_c, 5, 59, 48
8, 19889, Note_off_c, 5, 59, 64
8, 19917, Note_on_c, 5, 55, 64
8, 19934, Note_off_c, 5, 55, 64
8, 19963, Note_on_c, 5, 59, 64
8, 19982, Note_off_c, 5, 59, 64
8, 20008, Note_on_c, 5, 55, 58
8, 20025, Note_off_c, 5, 55, 64
8, 20054, Note_on_c, 5, 59, 64
8, 20075, Note_off_c, 5, 59, 64
8, 20102, Note_on_c, 5, 55, 48
8, 20120, Note_off_c, 5, 55, 64
8, 20152, Note_on_c, 5, 59, 69
8, 20171, Note_off_c, 5, 59, 64
8, 20201, Note_on_c, 5, 55, 48
8, 20217, Note_off_c, 5, 55, 64
8, 20248, Note_on_c, 5, 59, 61
8, 20269, Note_off_c, 5, 59, 64
8, 20296, Note_on_c, 5, 55, 55
8, 20313, Note_off_c, 5, 55, 64
8, 20345, Note_on_c, 5, 59, 55
8, 20365, Note_off_c, 5, 59, 64
8, 20393, Note_on_c, 5, 55, 58
8, 20412, Note_off_c, 5, 55, 64
8, 20442, Note_on_c, 5, 59, 66
8, 20463, Note_off_c, 5, 59, 64
8, 20488, Note_on_c, 5, 55, 55
8, 20507, Note_off_c, 5, 55, 64
8, 20536, Note_on_c, 5, 59, 48
8, 20556, Note_off_c, 5, 59, 64
8, 20584, Note_on_c, 5, 55, 39
8, 20599, Note_off_c, 5, 55, 64
8, 20631, Note_on_c, 5, 59, 58
8, 20650, Note_off_c, 5, 59, 64
8, 20677, Note_on_c, 5, 55, 51
8, 20694, Note_off_c, 5, 55, 64
8, 20727, Note_on_c, 5, 59, 61
8, 20744, Note_off_c, 5, 59, 64
8, 20774, Note_on_c, 5, 55, 58
8, 20792, Note_off_c, 5, 55, 64
8, 20826, Note_on_c, 5, 59, 58
8, 20845, Note_off_c, 5, 59, 64
8, 20873, Note_on_c, 5, 55, 55
8, 20891, Note_off_c, 5, 55, 64
8, 20922, Note_on_c, 5, 59, 64
8, 20940, Note_off_c, 5, 59, 64
8, 20970, Note_on_c, 5, 55, 64
8, 20987, Note_off_c, 5, 55, 64
8, 21020, Note_on_c, 5, 59, 51
8, 21039, Note_off_c, 5, 59, 64
8, 21067, Note_on_c, 5, 55, 58
8, 21086, Note_off_c, 5, 55, 64
8, 21117, Note_on_c, 5, 59, 61
8, 21136, Note_off_c, 5, 59, 64
8, 21164, Note_on_c, 5, 55, 51
8, 21181, Note_off_c, 5, 55, 64
8, 21209, Note_on_c, 5, 59, 61
8, 21229, Note_off_c, 5, 59, 64
8, 21258, Note_on_c, 5, 55, 61
8, 21275, Note_off_c, 5, 55, 64
8, 21305, Note_on_c, 5, 59, 58
8, 21325, Note_off_c, 5, 59, 64
8, 21352, Note_on_c, 5, 55, 58
8, 21370, Note_off_c, 5, 55, 64
8, 21402, Note_on_c, 5, 59, 55
8, 21421, Note_off_c, 5, 59, 64
8, 21449, Note_on_c, 5, 55, 51
8, 21464, Note_off_c, 5, 55, 64
8, 21497, Note_on_c, 5, 59, 58
8, 21515, Note_off_c, 5, 59, 64
8, 21543, Note_on_c, 5, 55, 55
8, 21560, Note_off_c, 5, 55, 64
8, 21589, Note_on_c, 5, 59, 58
8, 21609, Note_off_c, 5, 59, 64
8, 21637, Note_on_c, 5, 55, 48
8, 21652, Note_off_c, 5, 55, 64
8, 21684, Note_on_c, 5, 59, 69
8, 21703, Note_off_c, 5, 59, 64
8, 21732, Note_on_c, 5, 55, 55
8, 21749, Note_off_c, 5, 55, 64
8, 21784, Note_on_c, 5, 59, 55
8, 21803, Note_off_c, 5, 59, 64
8, 21832, Note_on_c, 5, 55, 39
8, 21850, Note_off_c, 5, 55, 64
8, 21880, Note_on_c, 5, 59, 64
8, 21901, Note_off_c, 5, 59, 64
8, 21928, Note_on_c, 5, 55, 58
8, 21946, Note_off_c, 5, 55, 64
8, 21977, Note_on_c, 5, 59, 55
8, 21998, Note_off_c, 5, 59, 64
8, 22024, Note_on_c, 5, 55, 55
8, 22045, Note_off_c, 5, 55, 64
8, 22075, Note_on_c, 5, 59, 64
8, 22096, Note_off_c, 5, 59, 64
8, 22121, Note_on_c, 5, 55, 55
8, 22143, Note_off_c, 5, 55, 64
8, 22174, Note_on_c, 5, 59, 61
8, 22194, Note_off_c, 5, 59, 64
8, 22218, Note_on_c, 5, 55, 69
8, 22241, Note_off_c, 5, 55, 64
8, 22273, Note_on_c, 5, 60, 58
8, 22288, Note_off_c, 5, 60, 64
8, 22314, Note_on_c, 5, 55, 84
8, 22332, Note_off_c, 5, 55, 64
8, 22361, Note_on_c, 5, 60, 64
8, 22381, Note_off_c, 5, 60, 64
8, 22408, Note_on_c, 5, 55, 69
8, 22424, Note_off_c, 5, 55, 64
8, 22456, Note_on_c, 5, 60, 51
8, 22474, Note_off_c, 5, 60, 64
8, 22502, Note_on_c, 5, 55, 69
8, 22520, Note_off_c, 5, 55, 64
8, 22554, Note_on_c, 5, 60, 55
8, 22572, Note_off_c, 5, 60, 64
8, 22601, Note_on_c, 5, 55, 58
8, 22619, Note_off_c, 5, 55, 64
8, 22650, Note_on_c, 5, 60, 55
8, 22671, Note_off_c, 5, 60, 64
8, 22697, Note_on_c, 5, 55, 69
8, 22715, Note_off_c, 5, 55, 64
8, 22745, Note_on_c, 5, 60, 58
8, 22766, Note_off_c, 5, 60, 64
8, 22790, Note_on_c, 5, 55, 74
8, 22809, Note_off_c, 5, 55, 64
8, 22841, Note_on_c, 5, 60, 64
8, 22860, Note_off_c, 5, 60, 64
8, 22889, Note_on_c, 5, 55, 61
8, 22907, Note_off_c, 5, 55, 64
8, 22939, Note_on_c, 5, 60, 48
8, 22960, Note_off_c, 5, 60, 64
8, 22986, Note_on_c, 5, 55, 64
8, 23004, Note_off_c, 5, 55, 64
8, 23034, Note_on_c, 5, 59, 79
8, 23051, Note_off_c, 5, 59, 64
8, 23081, Note_on_c, 5, 55, 64
8, 23098, Note_off_c, 5, 55, 64
8, 23128, Note_on_c, 5, 59, 64
8, 23146, Note_off_c, 5, 59, 64
8, 23176, Note_on_c, 5, 55, 64
8, 23193, Note_off_c, 5, 55, 64
8, 23225, Note_on_c, 5, 59, 58
8, 23243, Note_off_c, 5, 59, 64
8, 23272, Note_on_c, 5, 55, 64
8, 23289, Note_off_c, 5, 55, 64
8, 23320, Note_on_c, 5, 59, 64
8, 23339, Note_off_c, 5, 59, 64
8, 23368, Note_on_c, 5, 55, 72
8, 23387, Note_off_c, 5, 55, 64
8, 23417, Note_on_c, 5, 59, 66
8, 23435, Note_off_c, 5, 59, 64
8, 23464, Note_on_c, 5, 55, 64
8, 23482, Note_off_c, 5, 55, 64
8, 23512, Note_on_c, 5, 59, 66
8, 23531, Note_off_c, 5, 59, 64
8, 23558, Note_on_c, 5, 55, 66
8, 23577, Note_off_c, 5, 55, 64
8, 23607, Note_on_c, 5, 59, 66
8, 23626, Note_off_c, 5, 59, 64
8, 23653, Note_on_c, 5, 55, 55
8, 23674, Note_off_c, 5, 55, 64
8, 23704, Note_on_c, 5, 59, 69
8, 23725, Note_off_c, 5, 59, 64
8, 23750, Note_on_c, 5, 55, 84
8, 23771, Note_off_c, 5, 55, 64
8, 23801, Note_on_c, 5, 57, 66
8, 23818, Note_off_c, 5, 57, 64
8, 23848, Note_on_c, 5, 54, 77
8, 23865, Note_off_c, 5, 54, 64
8, 23898, Note_on_c, 5, 57, 55
8, 23913, Note_off_c, 5, 57, 64
8, 23945, Note_on_c, 5, 54, 102
8, 23965, Note_off_c, 5, 54, 64
8, 23996, Note_on_c, 5, 57, 64
8, 24014, Note_off_c, 5, 57, 64
8, 24045, Note_on_c, 5, 54, 64
8, 24063, Note_off_c, 5, 54, 64
8, 24093, Note_on_c, 5, 57, 64
8, 24112, Note_off_c, 5, 57, 64
8, 24140, Note_on_c, 5, 54, 77
8, 24160, Note_off_c, 5, 54, 64
8, 24189, Note_on_c, 5, 57, 69
8, 24206, Note_off_c, 5, 57, 64
8, 24236, Note_on_c, 5, 54, 89
8, 24255, Note_off_c, 5, 54, 64
8, 24284, Note_on_c, 5, 57, 69
8, 24304, Note_off_c, 5, 57, 64
8, 24331, Note_on_c, 5, 54, 96
8, 24352, Note_off_c, 5, 54, 64
8, 24378, Note_on_c, 5, 57, 64
8, 24397, Note_off_c, 5, 57, 64
8, 24426, Note_on_c, 5, 54, 81
8, 24446, Note_off_c, 5, 54, 64
8, 24477, Note_on_c, 5, 57, 66
8, 24495, Note_off_c, 5, 57, 64
8, 24522, Note_on_c, 5, 54, 77
8, 24540, Note_off_c, 5, 54, 64
8, 24571, Note_on_c, 5, 57, 58
8, 24588, Note_off_c, 5, 57, 64
8, 24616, Note_on_c, 5, 54, 102
8, 24635, Note_off_c, 5, 54, 64
8, 24666, Note_on_c, 5, 57, 58
8, 24684, Note_off_c, 5, 57, 64
8, 24713, Note_on_c, 5, 54, 74
8, 24733, Note_off_c, 5, 54, 64
8, 24763, Note_on_c, 5, 57, 66
8, 24779, Note_off_c, 5, 57, 64
8, 24809, Note_on_c, 5, 54, 96
8, 24827, Note_off_c, 5, 54, 64
8, 24857, Note_on_c, 5, 57, 69
8, 24877, Note_off_c, 5, 57, 64
8, 24904, Note_on_c, 5, 54, 69
8, 24924, Note_off_c, 5, 54, 64
8, 24956, Note_on_c, 5, 57, 58
8, 24974, Note_off_c, 5, 57, 64
8, 25002, Note_on_c, 5, 54, 89
8, 25024, Note_off_c, 5, 54, 64
8, 25053, Note_on_c, 5, 57, 64
8, 25071, Note_off_c, 5, 57, 64
8, 25096, Note_on_c, 5, 54, 77
8, 25117, Note_off_c, 5, 54, 64
8, 25146, Note_on_c, 5, 57, 64
8, 25163, Note_off_c, 5, 57, 64
8, 25191, Note_on_c, 5, 54, 84
8, 25215, Note_off_c, 5, 54, 64
8, 25242, Note_on_c, 5, 57, 69
8, 25260, Note_off_c, 5, 57, 64
8, 25288, Note_on_c, 5, 54, 66
8, 25311, Note_off_c, 5, 54, 64
8, 55297, Note_on_c, 5, 59, 64
8, 55317, Note_off_c, 5, 59, 64
8, 55345, Note_on_c, 5, 55, 69
8, 55365, Note_off_c, 5, 55, 64
8, 55393, Note_on_c, 5, 59, 74
8, 55413, Note_off_c, 5, 59, 64
8, 55441, Note_on_c, 5, 55, 72
8, 55461, Note_off_c, 5, 55, 64
8, 55489, Note_on_c, 5, 59, 66
8, 55510, Note_off_c, 5, 59, 64
8, 55537, Note_on_c, 5, 55, 69
8, 55559, Note_off_c, 5, 55, 64
8, 55585, Note_on_c, 5, 59, 84
8, 55605, Note_off_c, 5, 59, 64
8, 55633, Note_on_c, 5, 55, 69
8, 55654, Note_off_c, 5, 55, 64
8, 55681, Note_on_c, 5, 59, 64
8, 55701, Note_off_c, 5, 59, 64
8, 55729, Note_on_c, 5, 55, 66
8, 55751, Note_off_c, 5, 55, 64
8, 55777, Note_on_c, 5, 59, 58
8, 55798, Note_off_c, 5, 59, 64
8, 55825, Note_on_c, 5, 55, 74
8, 55846, Note_off_c, 5, 55, 64
8, 55873, Note_on_c, 5, 59, 79
8, 55893, Note_off_c, 5, 59, 64
8, 55921, Note_on_c, 5, 55, 66
8, 55940, Note_off_c, 5, 55, 64
8, 55969, Note_on_c, 5, 59, 79
8, 55988, Note_off_c, 5, 59, 64
8, 56017, Note_on_c, 5, 55, 66
8, 56037, Note_off_c, 5, 55, 64
8, 56065, Note_on_c, 5, 59, 77
8, 56086, Note_off_c, 5, 59, 64
8, 56113, Note_on_c, 5, 55, 64
8, 56131, Note_off_c, 5, 55, 64
8, 56161, Note_on_c, 5, 59, 64
8, 56180, Note_off_c, 5, 59, 64
8, 56209, Note_on_c, 5, 55, 72
8, 56229, Note_off_c, 5, 55, 64
8, 56257, Note_on_c, 5, 59, 66
8, 56276, Note_off_c, 5, 59, 64
8, 56305, Note_on_c, 5, 55, 72
8, 56325, Note_off_c, 5, 55, 64
8, 56353, Note_on_c, 5, 59, 61
8, 56373, Note_off_c, 5, 59, 64
8, 56401, Note_on_c, 5, 55, 64
8, 56422, Note_off_c, 5, 55, 64
8, 56449, Note_on_c, 5, 59, 58
8, 56469, Note_off_c, 5, 59, 64
8, 56497, Note_on_c, 5, 55, 58
8, 56518, Note_off_c, 5, 55, 64
8, 56545, Note_on_c, 5, 59, 66
8, 56565, Note_off_c, 5, 59, 64
8, 56593, Note_on_c, 5, 55, 64
8, 56613, Note_off_c, 5, 55, 64
8, 56641, Note_on_c, 5, 59, 66
8, 56661, Note_off_c, 5, 59, 64
8, 56689, Note_on_c, 5, 55, 66
8, 56709, Note_off_c, 5, 55, 64
8, 56737, Note_on_c, 5, 59, 69
8, 56756, Note_off_c, 5, 59, 64
8, 56785, Note_on_c, 5, 55, 66
8, 56804, Note_off_c, 5, 55, 64
8, 56833, Note_on_c, 5, 59, 64
8, 56853, Note_off_c, 5, 59, 64
8, 56881, Note_on_c, 5, 55, 69
8, 56901, Note_off_c, 5, 55, 64
8, 56929, Note_on_c, 5, 59, 74
8, 56949, Note_off_c, 5, 59, 64
8, 56977, Note_on_c, 5, 55, 72
8, 56997, Note_off_c, 5, 55, 64
8, 57025, Note_on_c, 5, 59, 66
8, 57046, Note_off_c, 5, 59, 64
8, 57073, Note_on_c, 5, 55, 69
8, 57095, Note_off_c, 5, 55, 64
8, 57121, Note_on_c, 5, 59, 84
8, 57141, Note_off_c, 5, 59, 64
8, 57169, Note_on_c, 5, 55, 69
8, 57190, Note_off_c, 5, 55, 64
8, 57217, Note_on_c, 5, 59, 64
8, 57237, Note_off_c, 5, 59, 64
8, 57265, Note_on_c, 5, 55, 66
8, 57287, Note_off_c, 5, 55, 64
8, 57313, Note_on_c, 5, 59, 58
8, 57334, Note_off_c, 5, 59, 64
8, 57361, Note_on_c, 5, 55, 74
8, 57382, Note_off_c, 5, 55, 64
8, 57409, Note_on_c, 5, 59, 79
8, 57429, Note_off_c, 5, 59, 64
8, 57457, Note_on_c, 5, 55, 66
8, 57476, Note_off_c, 5, 55, 64
8, 57505, Note_on_c, 5, 59, 79
8, 57524, Note_off_c, 5, 59, 64
8, 57553, Note_on_c, 5, 55, 66
8, 57573, Note_off_c, 5, 55, 64
8, 57601, Note_on_c, 5, 59, 77
8, 57622, Note_off_c, 5, 59, 64
8, 57649, Note_on_c, 5, 55, 64
8, 57667, Note_off_c, 5, 55, 64
8, 57697, Note_on_c, 5, 59, 64
8, 57716, Note_off_c, 5, 59, 64
8, 57745, Note_on_c, 5, 55, 72
8, 57765, Note_off_c, 5, 55, 64
8, 57793, Note_on_c, 5, 59, 66
8, 57812, Note_off_c, 5, 59, 64
8, 57841, Note_on_c, 5, 55, 72
8, 57861, Note_off_c, 5, 55, 64
8, 57889, Note_on_c, 5, 59, 61
8, 57909, Note_off_c, 5, 59, 64
8, 57937, Note_on_c, 5, 55, 64
8, 57958, Note_off_c, 5, 55, 64
8, 57985, Note_on_c, 5, 59, 58
8, 58005, Note_off_c, 5, 59, 64
8, 58033, Note_on_c, 5, 55, 58
8, 58054, Note_off_c, 5, 55, 64
8, 58081, Note_on_c, 5, 59, 66
8, 58101, Note_off_c, 5, 59, 64
8, 58129, Note_on_c, 5, 55, 64
8, 58149, Note_off_c, 5, 55, 64
8, 58177, Note_on_c, 5, 59, 66
8, 58197, Note_off_c, 5, 59, 64
8, 58225, Note_on_c, 5, 55, 66
8, 58245, Note_off_c, 5, 55, 64
8, 58273, Note_on_c, 5, 59, 69
8, 58292, Note_off_c, 5, 59, 64
8, 58321, Note_on_c, 5, 55, 66
8, 58340, Note_off_c, 5, 55, 64
8, 58369, Note_on_c, 5, 59, 64
8, 58389, Note_off_c, 5, 59, 64
8, 58417, Note_on_c, 5, 55, 69
8, 58437, Note_off_c, 5, 55, 64
8, 58465, Note_on_c, 5, 59, 74
8, 58485, Note_off_c, 5, 59, 64
8, 58513, Note_on_c, 5, 55, 72
8, 58533, Note_off_c, 5, 55, 64
8, 58561, Note_on_c, 5, 59, 66
8, 58582, Note_off_c, 5, 59, 64
8, 58609, Note_on_c, 5, 55, 69
8, 58631, Note_off_c, 5, 55, 64
8, 58657, Note_on_c, 5, 59, 84
8, 58677, Note_off_c, 5, 59, 64
8, 58705, Note_on_c, 5, 55, 69
8, 58726, Note_off_c, 5, 55, 64
8, 58753, Note_on_c, 5, 59, 64
8, 58773, Note_off_c, 5, 59, 64
8, 58801, Note_on_c, 5, 55, 66
8, 58823, Note_off_c, 5, 55, 64
8, 58849, Note_on_c, 5, 59, 58
8, 58870, Note_off_c, 5, 59, 64
8, 58897, Note_on_c, 5, 55, 74
8, 58918, Note_off_c, 5, 55, 64
8, 58945, Note_on_c, 5, 59, 79
8, 58965, Note_off_c, 5, 59, 64
8, 58993, Note_on_c, 5, 55, 66
8, 59012, Note_off_c, 5, 55, 64
8, 59041, Note_on_c, 5, 59, 79
8, 59060, Note_off_c, 5, 59, 64
8, 59089, Note_on_c, 5, 55, 66
8, 59109, Note_off_c, 5, 55, 64
8, 59137, Note_on_c, 5, 59, 77
8, 59158, Note_off_c, 5, 59, 64
8, 59185, Note_on_c, 5, 55, 64
8, 59203, Note_off_c, 5, 55, 64
8, 59233, Note_on_c, 5, 59, 64
8, 59252, Note_off_c, 5, 59, 64
8, 59281, Note_on_c, 5, 55, 72
8, 59301, Note_off_c, 5, 55, 64
8, 59329, Note_on_c, 5, 59, 66
8, 59348, Note_off_c, 5, 59, 64
8, 59377, Note_on_c, 5, 55, 72
8, 59397, Note_off_c, 5, 55, 64
8, 59425, Note_on_c, 5, 59, 61
8, 59445, Note_off_c, 5, 59, 64
8, 59473, Note_on_c, 5, 55, 64
8, 59494, Note_off_c, 5, 55, 64
8, 59521, Note_on_c, 5, 59, 58
8, 59541, Note_off_c, 5, 59, 64
8, 59569, Note_on_c, 5, 55, 58
8, 59590, Note_off_c, 5, 55, 64
8, 59617, Note_on_c, 5, 59, 66
8, 59637, Note_off_c, 5, 59, 64
8, 59665, Note_on_c, 5, 55, 64
8, 59685, Note_off_c, 5, 55, 64
8, 59713, Note_on_c, 5, 59, 66
8, 59733, Note_off_c, 5, 59, 64
8, 59761, Note_on_c, 5, 55, 66
8, 59781, Note_off_c, 5, 55, 64
8, 59809, Note_on_c, 5, 59, 69
8, 59828, Note_off_c, 5, 59, 64
8, 59857, Note_on_c, 5, 55, 66
8, 59876, Note_off_c, 5, 55, 64
8, 59905, Note_on_c, 5, 59, 64
8, 59925, Note_off_c, 5, 59, 64
8, 59953, Note_on_c, 5, 55, 69
8, 59973, Note_off_c, 5, 55, 64
8, 60001, Note_on_c, 5, 59, 74
8, 60021, Note_off_c, 5, 59, 64
8, 60049, Note_on_c, 5, 55, 72
8, 60069, Note_off_c, 5, 55, 64
8, 60097, Note_on_c, 5, 59, 66
8, 60118, Note_off_c, 5, 59, 64
8, 60145, Note_on_c, 5, 55, 69
8, 60167, Note_off_c, 5, 55, 64
8, 60193, Note_on_c, 5, 59, 84
8, 60213, Note_off_c, 5, 59, 64
8, 60241, Note_on_c, 5, 55, 69
8, 60262, Note_off_c, 5, 55, 64
8, 60289, Note_on_c, 5, 59, 64
8, 60309, Note_off_c, 5, 59, 64
8, 60337, Note_on_c, 5, 55, 66
8, 60359, Note_off_c, 5, 55, 64
8, 60385, Note_on_c, 5, 59, 58
8, 60406, Note_off_c, 5, 59, 64
8, 60433, Note_on_c, 5, 55, 74
8, 60454, Note_off_c, 5, 55, 64
8, 60481, Note_on_c, 5, 59, 79
8, 60501, Note_off_c, 5, 59, 64
8, 60529, Note_on_c, 5, 55, 66
8, 60548, Note_off_c, 5, 55, 64
8, 60577, Note_on_c, 5, 59, 79
8, 60596, Note_off_c, 5, 59, 64
8, 60625, Note_on_c, 5, 55, 66
8, 60645, Note_off_c, 5, 55, 64
8, 60673, Note_on_c, 5, 59, 77
8, 60694, Note_off_c, 5, 59, 64
8, 60721, Note_on_c, 5, 55, 64
8, 60739, Note_off_c, 5, 55, 64
8, 60769, Note_on_c, 5, 59, 64
8, 60788, Note_off_c, 5, 59, 64
8, 60817, Note_on_c, 5, 55, 72
8, 60837, Note_off_c, 5, 55, 64
8, 60865, Note_on_c, 5, 59, 66
8, 60884, Note_off_c, 5, 59, 64
8, 60913, Note_on_c, 5, 55, 72
8, 60933, Note_off_c, 5, 55, 64
8, 60961, Note_on_c, 5, 59, 61
8, 60981, Note_off_c, 5, 59, 64
8, 61009, Note_on_c, 5, 55, 64
8, 61030, Note_off_c, 5, 55, 64
8, 61057, Note_on_c, 5, 59, 58
8, 61077, Note_off_c, 5, 59, 64
8, 61105, Note_on_c, 5, 55, 58
8, 61126, Note_off_c, 5, 55, 64
8, 61153, Note_on_c, 5, 59, 66
8, 61173, Note_off_c, 5, 59, 64
8, 61201, Note_on_c, 5, 55, 64
8, 61221, Note_off_c, 5, 55, 64
8, 61249, Note_on_c, 5, 59, 66
8, 61269, Note_off_c, 5, 59, 64
8, 61297, Note_on_c, 5, 55, 66
8, 61317, Note_off_c, 5, 55, 64
8, 61345, Note_on_c, 5, 59, 69
8, 61364, Note_off_c, 5, 59, 64
8, 61393, Note_on_c, 5, 55, 66
8, 61412, Note_off_c, 5, 55, 64
8, 61441, Note_on_c, 5, 59, 64
8, 61461, Note_off_c, 5, 59, 64
8, 61489, Note_on_c, 5, 55, 69
8, 61509, Note_off_c, 5, 55, 64
8, 61537, Note_on_c, 5, 59, 74
8, 61557, Note_off_c, 5, 59, 64
8, 61585, Note_on_c, 5, 55, 72
8, 61605, Note_off_c, 5, 55, 64
8, 61633, Note_on_c, 5, 59, 66
8, 61654, Note_off_c, 5, 59, 64
8, 61681, Note_on_c, 5, 55, 69
8, 61703, Note_off_c, 5, 55, 64
8, 61729, Note_on_c, 5, 59, 84
8, 61749, Note_off_c, 5, 59, 64
8, 61777, Note_on_c, 5, 55, 69
8, 61798, Note_off_c, 5, 55, 64
8, 61825, Note_on_c, 5, 59, 64
8, 61845, Note_off_c, 5, 59, 64
8, 61873, Note_on_c, 5, 55, 66
8, 61895, Note_off_c, 5, 55, 64
8, 61921, Note_on_c, 5, 59, 58
8, 61942, Note_off_c, 5, 59, 64
8, 61969, Note_on_c, 5, 55, 74
8, 61990, Note_off_c, 5, 55, 64
8, 62017, Note_on_c, 5, 59, 79
8, 62037, Note_off_c, 5, 59, 64
8, 62065, Note_on_c, 5, 55, 66
8, 62084, Note_off_c, 5, 55, 64
8, 62113, Note_on_c, 5, 59, 79
8, 62132, Note_off_c, 5, 59, 64
8, 62161, Note_on_c, 5, 55, 66
8, 62181, Note_off_c, 5, 55, 64
8, 62209, Note_on_c, 5, 59, 77
8, 62230, Note_off_c, 5, 59, 64
8, 62257, Note_on_c, 5, 55, 64
8, 62275, Note_off_c, 5, 55, 64
8, 62305, Note_on_c, 5, 59, 64
8, 62324, Note_off_c, 5, 59, 64
8, 62353, Note_on_c, 5, 55, 72
8, 62373, Note_off_c, 5, 55, 64
8, 62401, Note_on_c, 5, 59, 66
8, 62420, Note_off_c, 5, 59, 64
8, 62449, Note_on_c, 5, 55, 72
8, 62469, Note_off_c, 5, 55, 64
8, 62497, Note_on_c, 5, 59, 61
8, 62517, Note_off_c, 5, 59, 64
8, 62545, Note_on_c, 5, 55, 64
8, 62566, Note_off_c, 5, 55, 64
8, 62593, Note_on_c, 5, 59, 58
8, 62613, Note_off_c, 5, 59, 64
8, 62641, Note_on_c, 5, 55, 58
8, 62662, Note_off_c, 5, 55, 64
8, 62689, Note_on_c, 5, 59, 66
8, 62709, Note_off_c, 5, 59, 64
8, 62737, Note_on_c, 5, 55, 64
8, 62757, Note_off_c, 5, 55, 64
8, 62785, Note_on_c, 5, 59, 66
8, 62805, Note_off_c, 5, 59, 64
8, 62833, Note_on_c, 5, 55, 66
8, 62853, Note_off_c, 5, 55, 64
8, 62881, Note_on_c, 5, 59, 69
8, 62900, Note_off_c, 5, 59, 64
8, 62929, Note_on_c, 5, 55, 66
8, 62948, Note_off_c, 5, 55, 64
8, 62977, Note_on_c, 5, 59, 64
8, 62997, Note_off_c, 5, 59, 64
8, 63025, Note_on_c, 5, 55, 69
8, 63045, Note_off_c, 5, 55, 64
8, 63073, Note_on_c, 5, 59, 74
8, 63093, Note_off_c, 5, 59, 64
8, 63121, Note_on_c, 5, 55, 72
8, 63141, Note_off_c, 5, 55, 64
8, 63169, Note_on_c, 5, 59, 66
8, 63190, Note_off_c, 5, 59, 64
8, 63217, Note_on_c, 5, 55, 69
8, 63239, Note_off_c, 5, 55, 64
8, 63265, Note_on_c, 5, 59, 84
8, 63285, Note_off_c, 5, 59, 64
8, 63313, Note_on_c, 5, 55, 69
8, 63334, Note_off_c, 5, 55, 64
8, 63361, Note_on_c, 5, 59, 64
8, 63381, Note_off_c, 5, 59, 64
8, 63409, Note_on_c, 5, 55, 66
8, 63431, Note_off_c, 5, 55, 64
8, 63457, Note_on_c, 5, 59, 58
8, 63478, Note_off_c, 5, 59, 64
8, 63505, Note_on_c, 5, 55, 74
8, 63526, Note_off_c, 5, 55, 64
8, 63553, Note_on_c, 5, 59, 79
8, 63573, Note_off_c, 5, 59, 64
8, 63601, Note_on_c, 5, 55, 66
8, 63620, Note_off_c, 5, 55, 64
8, 63649, Note_on_c, 5, 59, 79
8, 63668, Note_off_c, 5, 59, 64
8, 63697, Note_on_c, 5, 55, 66
8, 63717, Note_off_c, 5, 55, 64
8, 63745, Note_on_c, 5, 59, 77
8, 63766, Note_off_c, 5, 59, 64
8, 63793, Note_on_c, 5, 55, 64
8, 63811, Note_off_c, 5, 55, 64
8, 63841, Note_on_c, 5, 59, 64
8, 63860, Note_off_c, 5, 59, 64
8, 63889, Note_on_c, 5, 55, 72
8, 63909, Note_off_c, 5, 55, 64
8, 63937, Note_on_c, 5, 59, 66
8, 63956, Note_off_c, 5, 59, 64
8, 63985, Note_on_c, 5, 55, 72
8, 64005, Note_off_c, 5, 55, 64
8, 64033, Note_on_c, 5, 59, 61
8, 64053, Note_off_c, 5, 59, 64
8, 64081, Note_on_c, 5, 55, 64
8, 64102, Note_off_c, 5, 55, 64
8, 64129, Note_on_c, 5, 59, 58
8, 64149, Note_off_c, 5, 59, 64
8, 64177, Note_on_c, 5, 55, 58
8, 64198, Note_off_c, 5, 55, 64
8, 64225, Note_on_c, 5, 59, 66
8, 64245, Note_off_c, 5, 59, 64
8, 64273, Note_on_c, 5, 55, 64
8, 64293, Note_off_c, 5, 55, 64
8, 64321, Note_on_c, 5, 59, 66
8, 64341, Note_off_c, 5, 59, 64
8, 64369, Note_on_c, 5, 55, 66
8, 64389, Note_off_c, 5, 55, 64
8, 64417, Note_on_c, 5, 59, 69
8, 64436, Note_off_c, 5, 59, 64
8, 64465, Note_on_c, 5, 55, 66
8, 64484, Note_off_c, 5, 55, 64
8, 64514, Note_on_c, 5, 59, 66
8, 64515, Note_on_c, 5, 55, 58
8, 65871, Note_off_c, 5, 59, 64
8, 65874, Note_off_c, 5, 55, 64
8, 65874, End_track
9, 0, Start_track
9, 0, MIDI_port, 1
9, 0, Title_t, "DistortionGt        "
9, 0, Control_c, 6, 0, 0
9, 48, Program_c, 6, 30
9, 48, Pitch_bend_c, 6, 8192
9, 48, Control_c, 6, 7, 110
9, 48, Control_c, 6, 10, 104
9, 96, Control_c, 6, 91, 90
9, 96, Control_c, 6, 93, 10
9, 96, Control_c, 6, 100, 0
9, 96, Control_c, 6, 101, 0
9, 144, Control_c, 6, 6, 2
9, 25344, Note_on_c, 6, 50, 110
9, 25344, Note_on_c, 6, 43, 110
9, 26880, Note_on_c, 6, 48, 84
9, 26880, Note_on_c, 6, 55, 110
9, 26883, Note_off_c, 6, 43, 64
9, 26887, Note_off_c, 6, 50, 64
9, 28404, Note_off_c, 6, 48, 64
9, 28416, Note_on_c, 6, 52, 110
9, 28416, Note_on_c, 6, 45, 110
9, 28418, Note_off_c, 6, 55, 64
9, 29920, Note_off_c, 6, 45, 64
9, 29947, Note_off_c, 6, 52, 64
9, 29952, Note_on_c, 6, 45, 110
9, 29952, Note_on_c, 6, 38, 110
9, 31488, Note_on_c, 6, 43, 110
9, 31488, Note_on_c, 6, 50, 102
9, 31489, Note_off_c, 6, 45, 64
9, 31491, Note_off_c, 6, 38, 64
9, 33024, Note_on_c, 6, 48, 110
9, 33024, Note_on_c, 6, 55, 93
9, 33035, Note_off_c, 6, 50, 64
9, 33035, Note_off_c, 6, 43, 64
9, 34560, Note_on_c, 6, 52, 108
9, 34560, Note_on_c, 6, 45, 86
9, 34562, Note_off_c, 6, 48, 64
9, 34566, Note_off_c, 6, 55, 64
9, 35315, Note_off_c, 6, 45, 64
9, 35328, Note_off_c, 6, 52, 64
9, 35328, Note_on_c, 6, 50, 110
9, 35328, Note_on_c, 6, 57, 86
9, 35712, Note_on_c, 6, 55, 110
9, 35712, Note_on_c, 6, 48, 81
9, 35715, Note_off_c, 6, 50, 64
9, 35715, Note_off_c, 6, 57, 64
9, 36096, Note_on_c, 6, 50, 92
9, 36096, Note_on_c, 6, 43, 89
9, 36101, Note_off_c, 6, 48, 65
9, 36101, Note_off_c, 6, 55, 65
9, 37632, Note_off_c, 6, 43, 64
9, 37632, Note_off_c, 6, 50, 64
9, 38832, Note_on_c, 6, 59, 102
9, 38875, Note_off_c, 6, 59, 64
9, 38880, Note_on_c, 6, 62, 72
9, 38927, Note_off_c, 6, 62, 64
9, 38928, Note_on_c, 6, 67, 89
9, 38976, Note_on_c, 6, 66, 110
9, 38977, Note_off_c, 6, 67, 64
9, 39020, Note_off_c, 6, 66, 64
9, 39024, Note_on_c, 6, 62, 79
9, 39072, Note_on_c, 6, 59, 89
9, 39075, Note_off_c, 6, 62, 64
9, 39120, Note_on_c, 6, 57, 77
9, 39122, Note_off_c, 6, 59, 64
9, 39168, Note_off_c, 6, 57, 64
9, 39168, Note_on_c, 6, 64, 84
9, 39600, Note_off_c, 6, 64, 64
9, 40320, Note_on_c, 6, 64, 100
9, 40416, Note_on_c, 6, 66, 100
9, 40431, Note_off_c, 6, 64, 64
9, 40512, Note_on_c, 6, 67, 100
9, 40522, Note_off_c, 6, 66, 64
9, 40608, Note_on_c, 6, 69, 102
9, 40615, Note_off_c, 6, 67, 64
9, 40704, Note_on_c, 6, 67, 93
9, 40704, Note_on_c, 6, 60, 81
9, 40710, Note_off_c, 6, 69, 64
9, 41088, Note_on_c, 6, 62, 92
9, 41088, Note_on_c, 6, 66, 90
9, 41094, Note_off_c, 6, 60, 64
9, 41100, Note_off_c, 6, 67, 64
9, 41471, Note_off_c, 6, 66, 64
9, 42240, Note_off_c, 6, 62, 64
9, 43008, Note_on_c, 6, 57, 110
9, 43008, Note_on_c, 6, 62, 102
9, 43008, Note_on_c, 6, 50, 110
9, 43055, Note_off_c, 6, 57, 64
9, 43055, Note_off_c, 6, 62, 64
9, 43055, Note_off_c, 6, 50, 64
9, 43056, Note_on_c, 6, 62, 79
9, 43056, Note_on_c, 6, 50, 84
9, 43056, Note_on_c, 6, 57, 96
9, 43094, Note_off_c, 6, 50, 64
9, 43096, Note_off_c, 6, 57, 64
9, 43103, Note_off_c, 6, 62, 64
9, 43296, Note_on_c, 6, 48, 93
9, 43296, Note_on_c, 6, 60, 105
9, 43296, Note_on_c, 6, 55, 86
9, 43335, Note_off_c, 6, 55, 64
9, 43338, Note_off_c, 6, 60, 64
9, 43339, Note_off_c, 6, 48, 64
9, 43344, Note_on_c, 6, 48, 74
9, 43344, Note_on_c, 6, 60, 79
9, 43344, Note_on_c, 6, 55, 64
9, 43375, Note_off_c, 6, 60, 64
9, 43376, Note_off_c, 6, 55, 64
9, 43383, Note_off_c, 6, 48, 64
9, 43392, Note_on_c, 6, 50, 105
9, 43392, Note_on_c, 6, 62, 102
9, 43392, Note_on_c, 6, 57, 110
9, 43432, Note_off_c, 6, 57, 64
9, 43433, Note_off_c, 6, 62, 64
9, 43436, Note_off_c, 6, 50, 64
9, 43440, Note_on_c, 6, 50, 96
9, 43440, Note_on_c, 6, 62, 89
9, 43440, Note_on_c, 6, 57, 84
9, 43478, Note_off_c, 6, 57, 64
9, 43480, Note_off_c, 6, 50, 64
9, 43481, Note_off_c, 6, 62, 64
9, 43776, Note_on_c, 6, 57, 110
9, 43776, Note_on_c, 6, 62, 102
9, 43776, Note_on_c, 6, 50, 110
9, 43823, Note_off_c, 6, 57, 64
9, 43823, Note_off_c, 6, 62, 64
9, 43823, Note_off_c, 6, 50, 64
9, 43824, Note_on_c, 6, 62, 79
9, 43824, Note_on_c, 6, 50, 84
9, 43824, Note_on_c, 6, 57, 96
9, 43862, Note_off_c, 6, 50, 64
9, 43864, Note_off_c, 6, 57, 64
9, 43871, Note_off_c, 6, 62, 64
9, 44064, Note_on_c, 6, 48, 93
9, 44064, Note_on_c, 6, 60, 105
9, 44064, Note_on_c, 6, 55, 86
9, 44103, Note_off_c, 6, 55, 64
9, 44106, Note_off_c, 6, 60, 64
9, 44107, Note_off_c, 6, 48, 64
9, 44112, Note_on_c, 6, 48, 74
9, 44112, Note_on_c, 6, 60, 79
9, 44112, Note_on_c, 6, 55, 64
9, 44143, Note_off_c, 6, 60, 64
9, 44144, Note_off_c, 6, 55, 64
9, 44151, Note_off_c, 6, 48, 64
9, 44160, Note_on_c, 6, 50, 105
9, 44160, Note_on_c, 6, 62, 102
9, 44160, Note_on_c, 6, 57, 110
9, 44200, Note_off_c, 6, 57, 64
9, 44201, Note_off_c, 6, 62, 64
9, 44204, Note_off_c, 6, 50, 64
9, 44208, Note_on_c, 6, 50, 96
9, 44208, Note_on_c, 6, 62, 89
9, 44208, Note_on_c, 6, 57, 84
9, 44246, Note_off_c, 6, 57, 64
9, 44248, Note_off_c, 6, 50, 64
9, 44249, Note_off_c, 6, 62, 64
9, 44544, Note_on_c, 6, 50, 110
9, 44544, Note_on_c, 6, 43, 110
9, 46080, Note_on_c, 6, 48, 84
9, 46080, Note_on_c, 6, 55, 110
9, 46083, Note_off_c, 6, 43, 64
9, 46087, Note_off_c, 6, 50, 64
9, 47604, Note_off_c, 6, 48, 64
9, 47616, Note_on_c, 6, 52, 110
9, 47616, Note_on_c, 6, 45, 110
9, 47618, Note_off_c, 6, 55, 64
9, 49120, Note_off_c, 6, 45, 64
9, 49147, Note_off_c, 6, 52, 64
9, 49152, Note_on_c, 6, 45, 110
9, 49152, Note_on_c, 6, 38, 110
9, 50688, Note_on_c, 6, 43, 110
9, 50688, Note_on_c, 6, 50, 102
9, 50689, Note_off_c, 6, 45, 64
9, 50691, Note_off_c, 6, 38, 64
9, 52224, Note_on_c, 6, 48, 110
9, 52224, Note_on_c, 6, 55, 93
9, 52235, Note_off_c, 6, 50, 64
9, 52235, Note_off_c, 6, 43, 64
9, 53760, Note_on_c, 6, 52, 108
9, 53760, Note_on_c, 6, 45, 86
9, 53762, Note_off_c, 6, 48, 64
9, 53766, Note_off_c, 6, 55, 64
9, 54515, Note_off_c, 6, 45, 64
9, 54528, Note_off_c, 6, 52, 64
9, 54528, Note_on_c, 6, 50, 110
9, 54528, Note_on_c, 6, 57, 86
9, 54912, Note_on_c, 6, 55, 110
9, 54912, Note_on_c, 6, 48, 81
9, 54915, Note_off_c, 6, 50, 64
9, 54915, Note_off_c, 6, 57, 64
9, 55301, Note_off_c, 6, 48, 65
9, 55301, Note_off_c, 6, 55, 65
9, 55301, End_track
10, 0, Start_track
10, 0, MIDI_port, 1
10, 0, Title_t, "Syn.Strings1        "
10, 46, Program_c, 7, 50
10, 46, Pitch_bend_c, 7, 8192
10, 46, Control_c, 7, 7, 100
10, 46, Control_c, 7, 10, 84
10, 94, Control_c, 7, 91, 90
10, 94, Control_c, 7, 93, 30
10, 94, Control_c, 7, 100, 0
10, 94, Control_c, 7, 101, 0
10, 142, Control_c, 7, 6, 2
10, 6910, Note_on_c, 7, 55, 93
10, 7006, Note_on_c, 7, 57, 81
10, 7017, Note_off_c, 7, 55, 64
10, 7198, Note_on_c, 7, 59, 81
10, 7205, Note_off_c, 7, 57, 64
10, 7678, Note_on_c, 7, 55, 87
10, 7692, Note_off_c, 7, 59, 64
10, 7774, Note_on_c, 7, 57, 85
10, 7789, Note_off_c, 7, 55, 64
10, 7966, Note_on_c, 7, 59, 80
10, 7979, Note_off_c, 7, 57, 64
10, 8441, Note_off_c, 7, 59, 64
10, 8446, Note_on_c, 7, 67, 85
10, 8541, Note_off_c, 7, 67, 64
10, 8542, Note_on_c, 7, 66, 87
10, 8734, Note_on_c, 7, 64, 78
10, 8738, Note_off_c, 7, 66, 64
10, 9214, Note_on_c, 7, 67, 85
10, 9228, Note_off_c, 7, 64, 64
10, 9310, Note_on_c, 7, 66, 84
10, 9314, Note_off_c, 7, 67, 64
10, 9502, Note_on_c, 7, 64, 80
10, 9521, Note_off_c, 7, 66, 64
10, 9976, Note_off_c, 7, 64, 64
10, 9982, Note_on_c, 7, 60, 93
10, 10078, Note_on_c, 7, 62, 79
10, 10120, Note_off_c, 7, 60, 64
10, 10270, Note_on_c, 7, 64, 85
10, 10276, Note_off_c, 7, 62, 64
10, 10750, Note_on_c, 7, 55, 85
10, 10762, Note_off_c, 7, 64, 64
10, 10846, Note_on_c, 7, 57, 85
10, 10866, Note_off_c, 7, 55, 64
10, 11038, Note_on_c, 7, 59, 83
10, 11048, Note_off_c, 7, 57, 64
10, 11514, Note_off_c, 7, 59, 64
10, 11518, Note_on_c, 7, 66, 88
10, 11614, Note_on_c, 7, 64, 76
10, 11624, Note_off_c, 7, 66, 64
10, 11806, Note_on_c, 7, 62, 82
10, 11811, Note_off_c, 7, 64, 64
10, 12286, Note_on_c, 7, 66, 81
10, 12297, Note_off_c, 7, 62, 64
10, 12382, Note_on_c, 7, 64, 82
10, 12396, Note_off_c, 7, 66, 64
10, 12574, Note_on_c, 7, 62, 77
10, 12578, Note_off_c, 7, 64, 64
10, 13054, Note_off_c, 7, 62, 65
10, 19198, Note_on_c, 7, 55, 93
10, 19294, Note_on_c, 7, 57, 77
10, 19316, Note_off_c, 7, 55, 64
10, 19377, Note_off_c, 7, 57, 64
10, 19390, Note_on_c, 7, 57, 85
10, 19486, Note_on_c, 7, 59, 83
10, 19492, Note_off_c, 7, 57, 64
10, 19966, Note_on_c, 7, 55, 86
10, 19972, Note_off_c, 7, 59, 64
10, 20062, Note_on_c, 7, 57, 77
10, 20081, Note_off_c, 7, 55, 64
10, 20147, Note_off_c, 7, 57, 64
10, 20158, Note_on_c, 7, 57, 79
10, 20254, Note_on_c, 7, 59, 82
10, 20264, Note_off_c, 7, 57, 64
10, 20732, Note_off_c, 7, 59, 65
10, 20734, Note_on_c, 7, 67, 93
10, 20830, Note_on_c, 7, 66, 79
10, 20836, Note_off_c, 7, 67, 64
10, 20912, Note_off_c, 7, 66, 64
10, 20926, Note_on_c, 7, 66, 89
10, 21022, Note_on_c, 7, 64, 80
10, 21032, Note_off_c, 7, 66, 64
10, 21492, Note_off_c, 7, 64, 64
10, 21502, Note_on_c, 7, 67, 93
10, 21598, Note_on_c, 7, 66, 72
10, 21611, Note_off_c, 7, 67, 64
10, 21684, Note_off_c, 7, 66, 64
10, 21694, Note_on_c, 7, 66, 83
10, 21790, Note_on_c, 7, 64, 82
10, 21804, Note_off_c, 7, 66, 64
10, 22265, Note_off_c, 7, 64, 65
10, 22270, Note_on_c, 7, 60, 93
10, 22414, Note_on_c, 7, 62, 83
10, 22426, Note_off_c, 7, 60, 64
10, 22558, Note_on_c, 7, 64, 83
10, 22567, Note_off_c, 7, 62, 64
10, 23038, Note_on_c, 7, 55, 90
10, 23044, Note_off_c, 7, 64, 64
10, 23182, Note_on_c, 7, 57, 77
10, 23190, Note_off_c, 7, 55, 64
10, 23326, Note_on_c, 7, 59, 76
10, 23343, Note_off_c, 7, 57, 64
10, 23806, Note_on_c, 7, 66, 93
10, 23807, Note_off_c, 7, 59, 64
10, 23902, Note_on_c, 7, 64, 85
10, 23911, Note_off_c, 7, 66, 64
10, 24142, Note_on_c, 7, 62, 85
10, 24146, Note_off_c, 7, 64, 64
10, 24190, Note_on_c, 7, 66, 85
10, 24197, Note_off_c, 7, 62, 64
10, 24382, Note_on_c, 7, 64, 82
10, 24400, Note_off_c, 7, 66, 64
10, 24573, Note_off_c, 7, 64, 64
10, 24574, Note_on_c, 7, 62, 83
10, 24670, Note_on_c, 7, 67, 79
10, 24700, Note_off_c, 7, 62, 64
10, 24766, Note_on_c, 7, 66, 88
10, 24824, Note_off_c, 7, 67, 64
10, 24862, Note_on_c, 7, 64, 82
10, 24872, Note_off_c, 7, 66, 64
10, 24958, Note_on_c, 7, 62, 77
10, 24979, Note_off_c, 7, 64, 64
10, 25054, Note_on_c, 7, 67, 80
10, 25071, Note_off_c, 7, 62, 64
10, 25150, Note_on_c, 7, 66, 81
10, 25174, Note_off_c, 7, 67, 64
10, 25246, Note_on_c, 7, 64, 76
10, 25265, Note_off_c, 7, 66, 64
10, 25343, Note_off_c, 7, 64, 64
10, 25343, End_track
11, 0, Start_track
11, 0, MIDI_port, 1
11, 0, Title_t, "Music Box           "
11, 0, Control_c, 8, 0, 0
11, 48, Program_c, 8, 10
11, 48, Pitch_bend_c, 8, 8192
11, 48, Control_c, 8, 7, 80
11, 48, Control_c, 8, 10, 34
11, 96, Control_c, 8, 91, 100
11, 96, Control_c, 8, 93, 50
11, 96, Control_c, 8, 100, 0
11, 96, Control_c, 8, 101, 0
11, 144, Control_c, 8, 6, 2
11, 5376, Note_on_c, 8, 105, 66
11, 5393, Note_off_c, 8, 105, 64
11, 5424, Note_on_c, 8, 105, 48
11, 5443, Note_off_c, 8, 105, 64
11, 5472, Note_on_c, 8, 105, 64
11, 5492, Note_off_c, 8, 105, 64
11, 6912, Note_on_c, 8, 105, 66
11, 6929, Note_off_c, 8, 105, 64
11, 6960, Note_on_c, 8, 105, 48
11, 6979, Note_off_c, 8, 105, 64
11, 7008, Note_on_c, 8, 105, 64
11, 7028, Note_off_c, 8, 105, 64
11, 8448, Note_on_c, 8, 103, 66
11, 8465, Note_off_c, 8, 103, 64
11, 8496, Note_on_c, 8, 103, 48
11, 8515, Note_off_c, 8, 103, 64
11, 8544, Note_on_c, 8, 103, 64
11, 8564, Note_off_c, 8, 103, 64
11, 9984, Note_on_c, 8, 108, 66
11, 10001, Note_off_c, 8, 108, 64
11, 10032, Note_on_c, 8, 108, 48
11, 10051, Note_off_c, 8, 108, 64
11, 10080, Note_on_c, 8, 108, 64
11, 10100, Note_off_c, 8, 108, 64
11, 10752, Note_on_c, 8, 107, 66
11, 10769, Note_off_c, 8, 107, 64
11, 10800, Note_on_c, 8, 107, 48
11, 10819, Note_off_c, 8, 107, 64
11, 10848, Note_on_c, 8, 107, 64
11, 10868, Note_off_c, 8, 107, 64
11, 11520, Note_on_c, 8, 105, 66
11, 11537, Note_off_c, 8, 105, 64
11, 11568, Note_on_c, 8, 105, 48
11, 11587, Note_off_c, 8, 105, 64
11, 11616, Note_on_c, 8, 105, 64
11, 11636, Note_off_c, 8, 105, 64
11, 19200, Note_on_c, 8, 79, 8
11, 19200, Note_on_c, 8, 74, 14
11, 19210, Note_off_c, 8, 79, 64
11, 19211, Note_off_c, 8, 74, 64
11, 19248, Note_on_c, 8, 74, 18
11, 19248, Note_on_c, 8, 79, 18
11, 19262, Note_off_c, 8, 74, 64
11, 19262, Note_off_c, 8, 79, 64
11, 19296, Note_on_c, 8, 79, 14
11, 19296, Note_on_c, 8, 74, 18
11, 19311, Note_off_c, 8, 79, 64
11, 19311, Note_off_c, 8, 74, 64
11, 19344, Note_on_c, 8, 74, 14
11, 19344, Note_on_c, 8, 79, 18
11, 19357, Note_off_c, 8, 79, 64
11, 19358, Note_off_c, 8, 74, 64
11, 19392, Note_on_c, 8, 79, 22
11, 19392, Note_on_c, 8, 74, 18
11, 19407, Note_off_c, 8, 74, 64
11, 19408, Note_off_c, 8, 79, 64
11, 19440, Note_on_c, 8, 79, 14
11, 19440, Note_on_c, 8, 74, 14
11, 19454, Note_off_c, 8, 74, 64
11, 19456, Note_off_c, 8, 79, 64
11, 19488, Note_on_c, 8, 79, 22
11, 19488, Note_on_c, 8, 74, 26
11, 19503, Note_off_c, 8, 79, 64
11, 19503, Note_off_c, 8, 74, 64
11, 19536, Note_on_c, 8, 79, 26
11, 19536, Note_on_c, 8, 74, 26
11, 19551, Note_off_c, 8, 79, 64
11, 19551, Note_off_c, 8, 74, 64
11, 19584, Note_on_c, 8, 79, 18
11, 19584, Note_on_c, 8, 74, 14
11, 19599, Note_off_c, 8, 79, 64
11, 19599, Note_off_c, 8, 74, 64
11, 19632, Note_on_c, 8, 79, 14
11, 19632, Note_on_c, 8, 74, 18
11, 19645, Note_off_c, 8, 74, 64
11, 19646, Note_off_c, 8, 79, 64
11, 19680, Note_on_c, 8, 79, 18
11, 19680, Note_on_c, 8, 74, 14
11, 19693, Note_off_c, 8, 74, 64
11, 19696, Note_off_c, 8, 79, 64
11, 19728, Note_on_c, 8, 79, 22
11, 19728, Note_on_c, 8, 74, 26
11, 19744, Note_off_c, 8, 79, 64
11, 19744, Note_off_c, 8, 74, 64
11, 19776, Note_on_c, 8, 79, 18
11, 19776, Note_on_c, 8, 74, 26
11, 19790, Note_off_c, 8, 79, 64
11, 19790, Note_off_c, 8, 74, 64
11, 19824, Note_on_c, 8, 74, 14
11, 19824, Note_on_c, 8, 79, 26
11, 19838, Note_off_c, 8, 79, 64
11, 19839, Note_off_c, 8, 74, 64
11, 19872, Note_on_c, 8, 74, 22
11, 19872, Note_on_c, 8, 79, 18
11, 19887, Note_off_c, 8, 74, 64
11, 19887, Note_off_c, 8, 79, 64
11, 19920, Note_on_c, 8, 79, 14
11, 19920, Note_on_c, 8, 74, 14
11, 19934, Note_off_c, 8, 79, 64
11, 19934, Note_off_c, 8, 74, 64
11, 19968, Note_on_c, 8, 79, 8
11, 19968, Note_on_c, 8, 74, 18
11, 19980, Note_off_c, 8, 74, 64
11, 19981, Note_off_c, 8, 79, 64
11, 20016, Note_on_c, 8, 79, 22
11, 20016, Note_on_c, 8, 74, 18
11, 20029, Note_off_c, 8, 74, 64
11, 20030, Note_off_c, 8, 79, 64
11, 20064, Note_on_c, 8, 79, 14
11, 20064, Note_on_c, 8, 74, 14
11, 20077, Note_off_c, 8, 74, 64
11, 20078, Note_off_c, 8, 79, 64
11, 20112, Note_on_c, 8, 79, 18
11, 20112, Note_on_c, 8, 74, 14
11, 20125, Note_off_c, 8, 74, 64
11, 20129, Note_off_c, 8, 79, 64
11, 20160, Note_on_c, 8, 79, 14
11, 20160, Note_on_c, 8, 74, 18
11, 20175, Note_off_c, 8, 74, 64
11, 20177, Note_off_c, 8, 79, 64
11, 20208, Note_on_c, 8, 79, 18
11, 20208, Note_on_c, 8, 74, 8
11, 20222, Note_off_c, 8, 74, 64
11, 20224, Note_off_c, 8, 79, 64
11, 20256, Note_on_c, 8, 79, 14
11, 20256, Note_on_c, 8, 74, 18
11, 20271, Note_off_c, 8, 79, 64
11, 20271, Note_off_c, 8, 74, 64
11, 20304, Note_on_c, 8, 74, 8
11, 20304, Note_on_c, 8, 79, 14
11, 20317, Note_off_c, 8, 74, 64
11, 20317, Note_off_c, 8, 79, 64
11, 20352, Note_on_c, 8, 79, 26
11, 20352, Note_on_c, 8, 74, 22
11, 20368, Note_off_c, 8, 74, 64
11, 20369, Note_off_c, 8, 79, 64
11, 20400, Note_on_c, 8, 79, 26
11, 20400, Note_on_c, 8, 74, 26
11, 20413, Note_off_c, 8, 74, 64
11, 20416, Note_off_c, 8, 79, 64
11, 20448, Note_on_c, 8, 79, 26
11, 20448, Note_on_c, 8, 74, 26
11, 20462, Note_off_c, 8, 74, 64
11, 20464, Note_off_c, 8, 79, 64
11, 20496, Note_on_c, 8, 79, 18
11, 20496, Note_on_c, 8, 74, 18
11, 20509, Note_off_c, 8, 74, 64
11, 20510, Note_off_c, 8, 79, 64
11, 20544, Note_on_c, 8, 79, 18
11, 20544, Note_on_c, 8, 74, 26
11, 20558, Note_off_c, 8, 74, 64
11, 20560, Note_off_c, 8, 79, 64
11, 20592, Note_on_c, 8, 74, 18
11, 20592, Note_on_c, 8, 79, 14
11, 20606, Note_off_c, 8, 74, 64
11, 20606, Note_off_c, 8, 79, 64
11, 20640, Note_on_c, 8, 74, 18
11, 20640, Note_on_c, 8, 79, 8
11, 20651, Note_off_c, 8, 79, 64
11, 20654, Note_off_c, 8, 74, 64
11, 20688, Note_on_c, 8, 74, 30
11, 20688, Note_on_c, 8, 79, 35
11, 20703, Note_off_c, 8, 74, 64
11, 20703, Note_off_c, 8, 79, 64
11, 20736, Note_on_c, 8, 76, 14
11, 20736, Note_on_c, 8, 79, 8
11, 20747, Note_off_c, 8, 79, 64
11, 20749, Note_off_c, 8, 76, 64
11, 20784, Note_on_c, 8, 79, 22
11, 20784, Note_on_c, 8, 76, 35
11, 20798, Note_off_c, 8, 79, 64
11, 20798, Note_off_c, 8, 76, 64
11, 20832, Note_on_c, 8, 76, 26
11, 20832, Note_on_c, 8, 79, 26
11, 20846, Note_off_c, 8, 79, 64
11, 20848, Note_off_c, 8, 76, 64
11, 20880, Note_on_c, 8, 76, 35
11, 20880, Note_on_c, 8, 79, 14
11, 20895, Note_off_c, 8, 79, 64
11, 20896, Note_off_c, 8, 76, 64
11, 20928, Note_on_c, 8, 79, 14
11, 20928, Note_on_c, 8, 76, 18
11, 20942, Note_off_c, 8, 79, 64
11, 20942, Note_off_c, 8, 76, 64
11, 20976, Note_on_c, 8, 79, 14
11, 20976, Note_on_c, 8, 76, 14
11, 20988, Note_off_c, 8, 76, 64
11, 20989, Note_off_c, 8, 79, 64
11, 21024, Note_on_c, 8, 79, 22
11, 21024, Note_on_c, 8, 76, 18
11, 21038, Note_off_c, 8, 76, 64
11, 21039, Note_off_c, 8, 79, 64
11, 21072, Note_on_c, 8, 79, 14
11, 21072, Note_on_c, 8, 76, 8
11, 21084, Note_off_c, 8, 76, 64
11, 21086, Note_off_c, 8, 79, 64
11, 21120, Note_on_c, 8, 76, 26
11, 21120, Note_on_c, 8, 79, 18
11, 21135, Note_off_c, 8, 79, 64
11, 21136, Note_off_c, 8, 76, 64
11, 21168, Note_on_c, 8, 76, 22
11, 21168, Note_on_c, 8, 79, 22
11, 21183, Note_off_c, 8, 76, 64
11, 21183, Note_off_c, 8, 79, 64
11, 21216, Note_on_c, 8, 79, 18
11, 21216, Note_on_c, 8, 76, 14
11, 21232, Note_off_c, 8, 79, 64
11, 21232, Note_off_c, 8, 76, 64
11, 21264, Note_on_c, 8, 79, 14
11, 21264, Note_on_c, 8, 76, 14
11, 21278, Note_off_c, 8, 76, 64
11, 21279, Note_off_c, 8, 79, 64
11, 21312, Note_on_c, 8, 79, 18
11, 21312, Note_on_c, 8, 76, 26
11, 21327, Note_off_c, 8, 76, 64
11, 21328, Note_off_c, 8, 79, 64
11, 21360, Note_on_c, 8, 79, 26
11, 21360, Note_on_c, 8, 76, 8
11, 21372, Note_off_c, 8, 76, 64
11, 21377, Note_off_c, 8, 79, 64
11, 21408, Note_on_c, 8, 79, 22
11, 21408, Note_on_c, 8, 76, 14
11, 21422, Note_off_c, 8, 79, 64
11, 21422, Note_off_c, 8, 76, 64
11, 21456, Note_on_c, 8, 79, 30
11, 21456, Note_on_c, 8, 76, 22
11, 21470, Note_off_c, 8, 76, 64
11, 21471, Note_off_c, 8, 79, 64
11, 21504, Note_on_c, 8, 79, 30
11, 21504, Note_on_c, 8, 76, 22
11, 21512, Note_off_c, 8, 76, 64
11, 21514, Note_off_c, 8, 79, 64
11, 21552, Note_on_c, 8, 79, 26
11, 21552, Note_on_c, 8, 76, 14
11, 21566, Note_off_c, 8, 76, 64
11, 21568, Note_off_c, 8, 79, 64
11, 21600, Note_on_c, 8, 76, 14
11, 21600, Note_on_c, 8, 79, 22
11, 21616, Note_off_c, 8, 76, 64
11, 21617, Note_off_c, 8, 79, 64
11, 21648, Note_on_c, 8, 79, 30
11, 21648, Note_on_c, 8, 76, 18
11, 21664, Note_off_c, 8, 76, 64
11, 21665, Note_off_c, 8, 79, 64
11, 21696, Note_on_c, 8, 79, 22
11, 21696, Note_on_c, 8, 76, 8
11, 21709, Note_off_c, 8, 76, 64
11, 21713, Note_off_c, 8, 79, 64
11, 21744, Note_on_c, 8, 79, 18
11, 21744, Note_on_c, 8, 76, 22
11, 21758, Note_off_c, 8, 76, 64
11, 21760, Note_off_c, 8, 79, 64
11, 21792, Note_on_c, 8, 79, 26
11, 21792, Note_on_c, 8, 76, 26
11, 21807, Note_off_c, 8, 79, 64
11, 21807, Note_off_c, 8, 76, 64
11, 21840, Note_on_c, 8, 79, 26
11, 21840, Note_on_c, 8, 76, 14
11, 21853, Note_off_c, 8, 76, 64
11, 21855, Note_off_c, 8, 79, 64
11, 21888, Note_on_c, 8, 79, 35
11, 21888, Note_on_c, 8, 76, 26
11, 21902, Note_off_c, 8, 76, 64
11, 21904, Note_off_c, 8, 79, 64
11, 21936, Note_on_c, 8, 79, 14
11, 21936, Note_on_c, 8, 76, 14
11, 21951, Note_off_c, 8, 76, 64
11, 21952, Note_off_c, 8, 79, 64
11, 21984, Note_on_c, 8, 79, 18
11, 21984, Note_on_c, 8, 76, 18
11, 21999, Note_off_c, 8, 79, 64
11, 21999, Note_off_c, 8, 76, 64
11, 22032, Note_on_c, 8, 79, 26
11, 22032, Note_on_c, 8, 76, 22
11, 22044, Note_off_c, 8, 76, 64
11, 22048, Note_off_c, 8, 79, 64
11, 22080, Note_on_c, 8, 79, 22
11, 22080, Note_on_c, 8, 76, 14
11, 22096, Note_off_c, 8, 76, 64
11, 22097, Note_off_c, 8, 79, 64
11, 22128, Note_on_c, 8, 79, 30
11, 22128, Note_on_c, 8, 76, 14
11, 22143, Note_off_c, 8, 79, 64
11, 22143, Note_off_c, 8, 76, 64
11, 22176, Note_on_c, 8, 79, 26
11, 22176, Note_on_c, 8, 76, 26
11, 22191, Note_off_c, 8, 79, 64
11, 22191, Note_off_c, 8, 76, 64
11, 22224, Note_on_c, 8, 79, 22
11, 22224, Note_on_c, 8, 76, 18
11, 22239, Note_off_c, 8, 76, 64
11, 22240, Note_off_c, 8, 79, 64
11, 22272, Note_on_c, 8, 79, 35
11, 22272, Note_on_c, 8, 76, 30
11, 22283, Note_off_c, 8, 76, 64
11, 22285, Note_off_c, 8, 79, 64
11, 22320, Note_on_c, 8, 79, 22
11, 22320, Note_on_c, 8, 76, 14
11, 22332, Note_off_c, 8, 76, 64
11, 22336, Note_off_c, 8, 79, 64
11, 22368, Note_on_c, 8, 79, 14
11, 22368, Note_on_c, 8, 76, 14
11, 22383, Note_off_c, 8, 76, 64
11, 22384, Note_off_c, 8, 79, 64
11, 22416, Note_on_c, 8, 79, 14
11, 22416, Note_on_c, 8, 76, 18
11, 22429, Note_off_c, 8, 76, 64
11, 22432, Note_off_c, 8, 79, 64
11, 22464, Note_on_c, 8, 79, 18
11, 22464, Note_on_c, 8, 76, 18
11, 22477, Note_off_c, 8, 76, 64
11, 22479, Note_off_c, 8, 79, 64
11, 22512, Note_on_c, 8, 79, 18
11, 22512, Note_on_c, 8, 76, 14
11, 22525, Note_off_c, 8, 76, 64
11, 22529, Note_off_c, 8, 79, 64
11, 22560, Note_on_c, 8, 79, 26
11, 22560, Note_on_c, 8, 76, 26
11, 22575, Note_off_c, 8, 76, 64
11, 22576, Note_off_c, 8, 79, 64
11, 22608, Note_on_c, 8, 79, 18
11, 22608, Note_on_c, 8, 76, 8
11, 22618, Note_off_c, 8, 76, 64
11, 22621, Note_off_c, 8, 79, 64
11, 22656, Note_on_c, 8, 79, 18
11, 22656, Note_on_c, 8, 76, 22
11, 22670, Note_off_c, 8, 76, 64
11, 22672, Note_off_c, 8, 79, 64
11, 22704, Note_on_c, 8, 79, 22
11, 22704, Note_on_c, 8, 76, 18
11, 22718, Note_off_c, 8, 79, 64
11, 22718, Note_off_c, 8, 76, 64
11, 22752, Note_on_c, 8, 79, 43
11, 22752, Note_on_c, 8, 76, 26
11, 22767, Note_off_c, 8, 76, 64
11, 22770, Note_off_c, 8, 79, 64
11, 22800, Note_on_c, 8, 79, 22
11, 22800, Note_on_c, 8, 76, 8
11, 22812, Note_off_c, 8, 76, 64
11, 22815, Note_off_c, 8, 79, 64
11, 22848, Note_on_c, 8, 79, 39
11, 22848, Note_on_c, 8, 76, 3
11, 22857, Note_off_c, 8, 76, 64
11, 22863, Note_off_c, 8, 79, 64
11, 22896, Note_on_c, 8, 79, 30
11, 22896, Note_on_c, 8, 76, 14
11, 22908, Note_off_c, 8, 76, 64
11, 22912, Note_off_c, 8, 79, 64
11, 22944, Note_on_c, 8, 79, 26
11, 22944, Note_on_c, 8, 76, 26
11, 22957, Note_off_c, 8, 76, 64
11, 22959, Note_off_c, 8, 79, 64
11, 22992, Note_on_c, 8, 79, 39
11, 22992, Note_on_c, 8, 76, 35
11, 23008, Note_off_c, 8, 79, 64
11, 23008, Note_off_c, 8, 76, 64
11, 23040, Note_on_c, 8, 79, 30
11, 23040, Note_on_c, 8, 74, 39
11, 23051, Note_off_c, 8, 74, 64
11, 23052, Note_off_c, 8, 79, 64
11, 23088, Note_on_c, 8, 74, 18
11, 23088, Note_on_c, 8, 79, 22
11, 23102, Note_off_c, 8, 79, 64
11, 23105, Note_off_c, 8, 74, 64
11, 23136, Note_on_c, 8, 79, 30
11, 23136, Note_on_c, 8, 74, 22
11, 23150, Note_off_c, 8, 79, 64
11, 23150, Note_off_c, 8, 74, 64
11, 23184, Note_on_c, 8, 79, 18
11, 23184, Note_on_c, 8, 74, 8
11, 23197, Note_off_c, 8, 74, 64
11, 23198, Note_off_c, 8, 79, 64
11, 23232, Note_on_c, 8, 79, 18
11, 23232, Note_on_c, 8, 74, 14
11, 23245, Note_off_c, 8, 79, 64
11, 23245, Note_off_c, 8, 74, 64
11, 23280, Note_on_c, 8, 79, 22
11, 23280, Note_on_c, 8, 74, 14
11, 23296, Note_off_c, 8, 74, 64
11, 23297, Note_off_c, 8, 79, 64
11, 23328, Note_on_c, 8, 79, 30
11, 23328, Note_on_c, 8, 74, 14
11, 23341, Note_off_c, 8, 74, 64
11, 23342, Note_off_c, 8, 79, 64
11, 23376, Note_on_c, 8, 79, 26
11, 23376, Note_on_c, 8, 74, 8
11, 23388, Note_off_c, 8, 74, 64
11, 23392, Note_off_c, 8, 79, 64
11, 23424, Note_on_c, 8, 79, 30
11, 23424, Note_on_c, 8, 74, 18
11, 23438, Note_off_c, 8, 74, 64
11, 23440, Note_off_c, 8, 79, 64
11, 23472, Note_on_c, 8, 79, 22
11, 23472, Note_on_c, 8, 74, 18
11, 23488, Note_off_c, 8, 79, 64
11, 23488, Note_off_c, 8, 74, 64
11, 23520, Note_on_c, 8, 79, 26
11, 23520, Note_on_c, 8, 74, 8
11, 23536, Note_off_c, 8, 74, 64
11, 23537, Note_off_c, 8, 79, 64
11, 23568, Note_on_c, 8, 79, 26
11, 23568, Note_on_c, 8, 74, 8
11, 23582, Note_off_c, 8, 74, 64
11, 23584, Note_off_c, 8, 79, 64
11, 23616, Note_on_c, 8, 79, 30
11, 23616, Note_on_c, 8, 74, 14
11, 23631, Note_off_c, 8, 74, 64
11, 23632, Note_off_c, 8, 79, 64
11, 23664, Note_on_c, 8, 79, 18
11, 23664, Note_on_c, 8, 74, 14
11, 23678, Note_off_c, 8, 79, 64
11, 23678, Note_off_c, 8, 74, 64
11, 23712, Note_on_c, 8, 79, 35
11, 23712, Note_on_c, 8, 74, 26
11, 23727, Note_off_c, 8, 79, 64
11, 23727, Note_off_c, 8, 74, 64
11, 23760, Note_on_c, 8, 79, 30
11, 23760, Note_on_c, 8, 74, 18
11, 23772, Note_off_c, 8, 74, 64
11, 23776, Note_off_c, 8, 79, 64
11, 23808, Note_on_c, 8, 74, 39
11, 23808, Note_on_c, 8, 78, 22
11, 23819, Note_off_c, 8, 78, 64
11, 23822, Note_off_c, 8, 74, 64
11, 23856, Note_on_c, 8, 74, 22
11, 23856, Note_on_c, 8, 78, 14
11, 23867, Note_off_c, 8, 78, 64
11, 23872, Note_off_c, 8, 74, 64
11, 23904, Note_on_c, 8, 74, 26
11, 23904, Note_on_c, 8, 78, 18
11, 23917, Note_off_c, 8, 78, 64
11, 23920, Note_off_c, 8, 74, 64
11, 23952, Note_on_c, 8, 74, 43
11, 23952, Note_on_c, 8, 78, 14
11, 23967, Note_off_c, 8, 78, 64
11, 23971, Note_off_c, 8, 74, 64
11, 24000, Note_on_c, 8, 74, 30
11, 24000, Note_on_c, 8, 78, 14
11, 24014, Note_off_c, 8, 78, 64
11, 24017, Note_off_c, 8, 74, 64
11, 24048, Note_on_c, 8, 78, 18
11, 24048, Note_on_c, 8, 74, 14
11, 24063, Note_off_c, 8, 78, 64
11, 24065, Note_off_c, 8, 74, 64
11, 24096, Note_on_c, 8, 74, 26
11, 24096, Note_on_c, 8, 78, 26
11, 24110, Note_off_c, 8, 78, 64
11, 24114, Note_off_c, 8, 74, 64
11, 24144, Note_on_c, 8, 74, 14
11, 24144, Note_on_c, 8, 78, 22
11, 24158, Note_off_c, 8, 78, 64
11, 24161, Note_off_c, 8, 74, 64
11, 24192, Note_on_c, 8, 78, 3
11, 24192, Note_on_c, 8, 74, 14
11, 24204, Note_off_c, 8, 78, 64
11, 24206, Note_off_c, 8, 74, 64
11, 24240, Note_on_c, 8, 78, 18
11, 24240, Note_on_c, 8, 74, 18
11, 24255, Note_off_c, 8, 78, 64
11, 24257, Note_off_c, 8, 74, 64
11, 24288, Note_on_c, 8, 74, 14
11, 24288, Note_on_c, 8, 78, 18
11, 24302, Note_off_c, 8, 78, 64
11, 24304, Note_off_c, 8, 74, 64
11, 24336, Note_on_c, 8, 74, 18
11, 24336, Note_on_c, 8, 78, 26
11, 24353, Note_off_c, 8, 74, 64
11, 24353, Note_off_c, 8, 78, 64
11, 24384, Note_on_c, 8, 78, 14
11, 24384, Note_on_c, 8, 74, 26
11, 24400, Note_off_c, 8, 78, 64
11, 24402, Note_off_c, 8, 74, 64
11, 24432, Note_on_c, 8, 74, 22
11, 24432, Note_on_c, 8, 78, 14
11, 24447, Note_off_c, 8, 78, 64
11, 24448, Note_off_c, 8, 74, 64
11, 24480, Note_on_c, 8, 74, 26
11, 24480, Note_on_c, 8, 78, 18
11, 24496, Note_off_c, 8, 78, 64
11, 24499, Note_off_c, 8, 74, 64
11, 24528, Note_on_c, 8, 74, 26
11, 24528, Note_on_c, 8, 78, 14
11, 24542, Note_off_c, 8, 78, 64
11, 24546, Note_off_c, 8, 74, 64
11, 24576, Note_on_c, 8, 78, 18
11, 24576, Note_on_c, 8, 74, 18
11, 24582, Note_off_c, 8, 78, 64
11, 24585, Note_off_c, 8, 74, 64
11, 24624, Note_on_c, 8, 74, 14
11, 24624, Note_on_c, 8, 78, 22
11, 24638, Note_off_c, 8, 78, 64
11, 24642, Note_off_c, 8, 74, 64
11, 24672, Note_on_c, 8, 74, 18
11, 24672, Note_on_c, 8, 78, 14
11, 24687, Note_off_c, 8, 78, 64
11, 24689, Note_off_c, 8, 74, 64
11, 24720, Note_on_c, 8, 78, 18
11, 24720, Note_on_c, 8, 74, 18
11, 24737, Note_off_c, 8, 78, 64
11, 24737, Note_off_c, 8, 74, 64
11, 24768, Note_on_c, 8, 74, 22
11, 24768, Note_on_c, 8, 78, 22
11, 24782, Note_off_c, 8, 78, 64
11, 24784, Note_off_c, 8, 74, 64
11, 24816, Note_on_c, 8, 74, 18
11, 24816, Note_on_c, 8, 78, 8
11, 24831, Note_off_c, 8, 78, 64
11, 24833, Note_off_c, 8, 74, 64
11, 24864, Note_on_c, 8, 74, 30
11, 24864, Note_on_c, 8, 78, 22
11, 24881, Note_off_c, 8, 78, 64
11, 24882, Note_off_c, 8, 74, 64
11, 24912, Note_on_c, 8, 74, 26
11, 24912, Note_on_c, 8, 78, 18
11, 24927, Note_off_c, 8, 78, 64
11, 24929, Note_off_c, 8, 74, 64
11, 24960, Note_on_c, 8, 74, 43
11, 24960, Note_on_c, 8, 78, 22
11, 24973, Note_off_c, 8, 78, 64
11, 24977, Note_off_c, 8, 74, 64
11, 25008, Note_on_c, 8, 74, 18
11, 25008, Note_on_c, 8, 78, 3
11, 25020, Note_off_c, 8, 78, 64
11, 25026, Note_off_c, 8, 74, 64
11, 25056, Note_on_c, 8, 74, 39
11, 25056, Note_on_c, 8, 78, 26
11, 25073, Note_off_c, 8, 78, 64
11, 25075, Note_off_c, 8, 74, 64
11, 25104, Note_on_c, 8, 78, 14
11, 25104, Note_on_c, 8, 74, 30
11, 25120, Note_off_c, 8, 78, 64
11, 25121, Note_off_c, 8, 74, 64
11, 25152, Note_on_c, 8, 74, 26
11, 25152, Note_on_c, 8, 78, 35
11, 25167, Note_off_c, 8, 78, 64
11, 25169, Note_off_c, 8, 74, 64
11, 25200, Note_on_c, 8, 78, 18
11, 25200, Note_on_c, 8, 74, 30
11, 25215, Note_off_c, 8, 78, 64
11, 25216, Note_off_c, 8, 74, 64
11, 25248, Note_on_c, 8, 78, 22
11, 25248, Note_on_c, 8, 74, 35
11, 25262, Note_off_c, 8, 74, 64
11, 25263, Note_off_c, 8, 78, 64
11, 25296, Note_on_c, 8, 78, 48
11, 25296, Note_on_c, 8, 74, 39
11, 25306, Note_off_c, 8, 74, 64
11, 25310, Note_off_c, 8, 78, 64
11, 44928, Note_on_c, 8, 79, 110
11, 44928, Note_on_c, 8, 91, 110
11, 44978, Note_off_c, 8, 79, 64
11, 44990, Note_off_c, 8, 91, 64
11, 45024, Note_on_c, 8, 81, 102
11, 45024, Note_on_c, 8, 93, 89
11, 45063, Note_off_c, 8, 81, 64
11, 45072, Note_off_c, 8, 93, 64
11, 45120, Note_on_c, 8, 83, 110
11, 45120, Note_on_c, 8, 95, 110
11, 45172, Note_off_c, 8, 83, 64
11, 45172, Note_off_c, 8, 95, 64
11, 45216, Note_on_c, 8, 79, 79
11, 45216, Note_on_c, 8, 91, 110
11, 45267, Note_off_c, 8, 91, 64
11, 45268, Note_off_c, 8, 79, 64
11, 45312, Note_on_c, 8, 84, 110
11, 45312, Note_on_c, 8, 96, 110
11, 45361, Note_off_c, 8, 84, 64
11, 45364, Note_off_c, 8, 96, 64
11, 45408, Note_on_c, 8, 95, 84
11, 45408, Note_on_c, 8, 83, 110
11, 45453, Note_off_c, 8, 95, 64
11, 45453, Note_off_c, 8, 83, 64
11, 46464, Note_on_c, 8, 91, 110
11, 46464, Note_on_c, 8, 79, 110
11, 46512, Note_off_c, 8, 79, 64
11, 46520, Note_off_c, 8, 91, 64
11, 46560, Note_on_c, 8, 81, 102
11, 46560, Note_on_c, 8, 93, 86
11, 46603, Note_off_c, 8, 81, 64
11, 46611, Note_off_c, 8, 93, 64
11, 46656, Note_on_c, 8, 83, 110
11, 46656, Note_on_c, 8, 95, 110
11, 46686, Note_off_c, 8, 83, 64
11, 46689, Note_off_c, 8, 95, 64
11, 46752, Note_on_c, 8, 76, 110
11, 46752, Note_on_c, 8, 88, 96
11, 46772, Note_off_c, 8, 76, 64
11, 46772, Note_off_c, 8, 88, 64
11, 47616, Note_on_c, 8, 96, 110
11, 47616, Note_on_c, 8, 84, 110
11, 47677, Note_off_c, 8, 96, 64
11, 47677, Note_off_c, 8, 84, 64
11, 48000, Note_on_c, 8, 96, 110
11, 48000, Note_on_c, 8, 84, 110
11, 48045, Note_off_c, 8, 96, 64
11, 48049, Note_off_c, 8, 84, 64
11, 48192, Note_on_c, 8, 88, 110
11, 48192, Note_on_c, 8, 76, 110
11, 48243, Note_off_c, 8, 88, 64
11, 48248, Note_off_c, 8, 76, 64
11, 48384, Note_on_c, 8, 93, 110
11, 48384, Note_on_c, 8, 81, 110
11, 48434, Note_off_c, 8, 93, 64
11, 48443, Note_off_c, 8, 81, 64
11, 49536, Note_on_c, 8, 90, 110
11, 49536, Note_on_c, 8, 78, 110
11, 49609, Note_off_c, 8, 90, 64
11, 49614, Note_off_c, 8, 78, 64
11, 49632, Note_on_c, 8, 79, 108
11, 49632, Note_on_c, 8, 91, 108
11, 49696, Note_off_c, 8, 91, 64
11, 49717, Note_off_c, 8, 79, 64
11, 49728, Note_on_c, 8, 81, 110
11, 49728, Note_on_c, 8, 93, 110
11, 49801, Note_off_c, 8, 93, 64
11, 49807, Note_off_c, 8, 81, 64
11, 49824, Note_on_c, 8, 91, 110
11, 49824, Note_on_c, 8, 79, 110
11, 49880, Note_off_c, 8, 91, 64
11, 49885, Note_off_c, 8, 79, 64
11, 50016, Note_on_c, 8, 90, 110
11, 50016, Note_on_c, 8, 78, 110
11, 50073, Note_off_c, 8, 90, 64
11, 50080, Note_off_c, 8, 78, 64
11, 51072, Note_on_c, 8, 79, 110
11, 51072, Note_on_c, 8, 91, 110
11, 51143, Note_off_c, 8, 79, 64
11, 51148, Note_off_c, 8, 91, 64
11, 51168, Note_on_c, 8, 93, 108
11, 51168, Note_on_c, 8, 81, 93
11, 51230, Note_off_c, 8, 93, 64
11, 51236, Note_off_c, 8, 81, 64
11, 51264, Note_on_c, 8, 83, 110
11, 51264, Note_on_c, 8, 95, 86
11, 51321, Note_off_c, 8, 95, 64
11, 51325, Note_off_c, 8, 83, 64
11, 51360, Note_on_c, 8, 96, 110
11, 51360, Note_on_c, 8, 84, 110
11, 51415, Note_off_c, 8, 96, 64
11, 51423, Note_off_c, 8, 84, 64
11, 51552, Note_on_c, 8, 95, 110
11, 51552, Note_on_c, 8, 83, 102
11, 51624, Note_off_c, 8, 83, 64
11, 51625, Note_off_c, 8, 95, 64
11, 52608, Note_on_c, 8, 91, 110
11, 52608, Note_on_c, 8, 79, 110
11, 52670, Note_off_c, 8, 79, 64
11, 52671, Note_off_c, 8, 91, 64
11, 52704, Note_on_c, 8, 93, 110
11, 52704, Note_on_c, 8, 81, 110
11, 52757, Note_off_c, 8, 93, 64
11, 52758, Note_off_c, 8, 81, 64
11, 52800, Note_on_c, 8, 83, 110
11, 52800, Note_on_c, 8, 95, 89
11, 52835, Note_off_c, 8, 83, 64
11, 52841, Note_off_c, 8, 95, 64
11, 52896, Note_on_c, 8, 88, 102
11, 52896, Note_on_c, 8, 76, 110
11, 52948, Note_off_c, 8, 88, 64
11, 52948, Note_off_c, 8, 76, 64
11, 53376, Note_on_c, 8, 95, 110
11, 53376, Note_on_c, 8, 83, 102
11, 53423, Note_off_c, 8, 83, 64
11, 53427, Note_off_c, 8, 95, 64
11, 53472, Note_on_c, 8, 81, 110
11, 53472, Note_on_c, 8, 93, 110
11, 53509, Note_off_c, 8, 81, 64
11, 53520, Note_off_c, 8, 93, 64
11, 53568, Note_on_c, 8, 76, 110
11, 53568, Note_on_c, 8, 88, 110
11, 53609, Note_off_c, 8, 76, 64
11, 53615, Note_off_c, 8, 88, 64
11, 53664, Note_on_c, 8, 76, 110
11, 53664, Note_on_c, 8, 88, 110
11, 53709, Note_off_c, 8, 76, 64
11, 53711, Note_off_c, 8, 88, 64
11, 53712, Note_on_c, 8, 86, 79
11, 53712, Note_on_c, 8, 74, 110
11, 53739, Note_off_c, 8, 74, 64
11, 53741, Note_off_c, 8, 86, 64
11, 54144, Note_on_c, 8, 71, 110
11, 54144, Note_on_c, 8, 83, 110
11, 54213, Note_off_c, 8, 83, 64
11, 54216, Note_off_c, 8, 71, 64
11, 54336, Note_on_c, 8, 72, 110
11, 54336, Note_on_c, 8, 84, 110
11, 54390, Note_off_c, 8, 84, 64
11, 54396, Note_off_c, 8, 72, 64
11, 54528, Note_on_c, 8, 74, 110
11, 54528, Note_on_c, 8, 86, 110
11, 54623, Note_off_c, 8, 86, 64
11, 54626, Note_off_c, 8, 74, 64
11, 54912, Note_on_c, 8, 72, 110
11, 54912, Note_on_c, 8, 84, 110
11, 55001, Note_off_c, 8, 84, 64
11, 55010, Note_off_c, 8, 72, 64
11, 55010, End_track
12, 0, Start_track
12, 0, MIDI_port, 1
12, 0, Title_t, "Drums*POWER         "
12, 0, Note_on_c, 9, 70, 51
12, 1, Note_off_c, 9, 70, 64
12, 12, Control_c, 9, 0, 0
12, 24, Program_c, 9, 16
12, 36, Pitch_bend_c, 9, 8192
12, 48, Control_c, 9, 7, 110
12, 60, Control_c, 9, 10, 64
12, 72, Control_c, 9, 91, 50
12, 84, Control_c, 9, 93, 0
12, 96, Note_on_c, 9, 70, 51
12, 96, Control_c, 9, 100, 0
12, 97, Note_off_c, 9, 70, 64
12, 108, Control_c, 9, 101, 0
12, 108, Control_c, 9, 6, 2
12, 192, Note_on_c, 9, 70, 51
12, 193, Note_off_c, 9, 70, 64
12, 384, Note_on_c, 9, 70, 51
12, 385, Note_off_c, 9, 70, 64
12, 768, Note_on_c, 9, 70, 67
12, 769, Note_off_c, 9, 70, 64
12, 864, Note_on_c, 9, 70, 51
12, 865, Note_off_c, 9, 70, 64
12, 960, Note_on_c, 9, 70, 51
12, 961, Note_off_c, 9, 70, 64
12, 1152, Note_on_c, 9, 70, 67
12, 1153, Note_off_c, 9, 70, 64
12, 1248, Note_on_c, 9, 70, 51
12, 1249, Note_off_c, 9, 70, 64
12, 1344, Note_on_c, 9, 70, 51
12, 1345, Note_off_c, 9, 70, 64
12, 1536, Note_on_c, 9, 70, 67
12, 1537, Note_off_c, 9, 70, 64
12, 1632, Note_on_c, 9, 70, 51
12, 1633, Note_off_c, 9, 70, 64
12, 1728, Note_on_c, 9, 70, 51
12, 1729, Note_off_c, 9, 70, 64
12, 1920, Note_on_c, 9, 70, 67
12, 1921, Note_off_c, 9, 70, 64
12, 2016, Note_on_c, 9, 70, 51
12, 2017, Note_off_c, 9, 70, 64
12, 2112, Note_on_c, 9, 70, 51
12, 2113, Note_off_c, 9, 70, 64
12, 2304, Note_on_c, 9, 70, 67
12, 2305, Note_off_c, 9, 70, 64
12, 2400, Note_on_c, 9, 70, 51
12, 2401, Note_off_c, 9, 70, 64
12, 2496, Note_on_c, 9, 70, 51
12, 2497, Note_off_c, 9, 70, 64
12, 2688, Note_on_c, 9, 70, 67
12, 2689, Note_off_c, 9, 70, 64
12, 2784, Note_on_c, 9, 70, 51
12, 2785, Note_off_c, 9, 70, 64
12, 2880, Note_on_c, 9, 70, 51
12, 2881, Note_off_c, 9, 70, 64
12, 3072, Note_on_c, 9, 70, 67
12, 3073, Note_off_c, 9, 70, 64
12, 3168, Note_on_c, 9, 70, 51
12, 3169, Note_off_c, 9, 70, 64
12, 3264, Note_on_c, 9, 70, 51
12, 3265, Note_off_c, 9, 70, 64
12, 3456, Note_on_c, 9, 70, 67
12, 3457, Note_off_c, 9, 70, 64
12, 3552, Note_on_c, 9, 70, 51
12, 3553, Note_off_c, 9, 70, 64
12, 3648, Note_on_c, 9, 70, 51
12, 3649, Note_off_c, 9, 70, 64
12, 3840, Note_on_c, 9, 70, 67
12, 3841, Note_off_c, 9, 70, 64
12, 3936, Note_on_c, 9, 70, 51
12, 3937, Note_off_c, 9, 70, 64
12, 4032, Note_on_c, 9, 70, 51
12, 4033, Note_off_c, 9, 70, 64
12, 4224, Note_on_c, 9, 70, 67
12, 4225, Note_off_c, 9, 70, 64
12, 4320, Note_on_c, 9, 70, 51
12, 4321, Note_off_c, 9, 70, 64
12, 4416, Note_on_c, 9, 70, 51
12, 4417, Note_off_c, 9, 70, 64
12, 4608, Note_on_c, 9, 70, 67
12, 4609, Note_off_c, 9, 70, 64
12, 4704, Note_on_c, 9, 70, 51
12, 4705, Note_off_c, 9, 70, 64
12, 4800, Note_on_c, 9, 70, 51
12, 4801, Note_off_c, 9, 70, 64
12, 4992, Note_on_c, 9, 70, 67
12, 4993, Note_off_c, 9, 70, 64
12, 5088, Note_on_c, 9, 70, 51
12, 5089, Note_off_c, 9, 70, 64
12, 5184, Note_on_c, 9, 70, 51
12, 5185, Note_off_c, 9, 70, 64
12, 5376, Note_on_c, 9, 70, 67
12, 5377, Note_off_c, 9, 70, 64
12, 5472, Note_on_c, 9, 70, 51
12, 5473, Note_off_c, 9, 70, 64
12, 5568, Note_on_c, 9, 70, 51
12, 5569, Note_off_c, 9, 70, 64
12, 5760, Note_on_c, 9, 70, 67
12, 5761, Note_off_c, 9, 70, 64
12, 5856, Note_on_c, 9, 70, 51
12, 5857, Note_off_c, 9, 70, 64
12, 5952, Note_on_c, 9, 70, 51
12, 5953, Note_off_c, 9, 70, 64
12, 6144, Note_on_c, 9, 70, 67
12, 6145, Note_off_c, 9, 70, 64
12, 6240, Note_on_c, 9, 70, 51
12, 6241, Note_off_c, 9, 70, 64
12, 6336, Note_on_c, 9, 70, 51
12, 6337, Note_off_c, 9, 70, 64
12, 6528, Note_on_c, 9, 70, 67
12, 6529, Note_off_c, 9, 70, 64
12, 6624, Note_on_c, 9, 70, 51
12, 6625, Note_off_c, 9, 70, 64
12, 6720, Note_on_c, 9, 70, 51
12, 6721, Note_off_c, 9, 70, 64
12, 6912, Note_on_c, 9, 70, 67
12, 6913, Note_off_c, 9, 70, 64
12, 7008, Note_on_c, 9, 70, 51
12, 7009, Note_off_c, 9, 70, 64
12, 7104, Note_on_c, 9, 70, 51
12, 7105, Note_off_c, 9, 70, 64
12, 7296, Note_on_c, 9, 70, 67
12, 7297, Note_off_c, 9, 70, 64
12, 7392, Note_on_c, 9, 70, 51
12, 7393, Note_off_c, 9, 70, 64
12, 7488, Note_on_c, 9, 70, 51
12, 7489, Note_off_c, 9, 70, 64
12, 7680, Note_on_c, 9, 70, 67
12, 7681, Note_off_c, 9, 70, 64
12, 7776, Note_on_c, 9, 70, 51
12, 7777, Note_off_c, 9, 70, 64
12, 7872, Note_on_c, 9, 70, 51
12, 7873, Note_off_c, 9, 70, 64
12, 8064, Note_on_c, 9, 70, 67
12, 8065, Note_off_c, 9, 70, 64
12, 8160, Note_on_c, 9, 70, 51
12, 8161, Note_off_c, 9, 70, 64
12, 8256, Note_on_c, 9, 70, 51
12, 8257, Note_off_c, 9, 70, 64
12, 8448, Note_on_c, 9, 70, 67
12, 8449, Note_off_c, 9, 70, 64
12, 8544, Note_on_c, 9, 70, 51
12, 8545, Note_off_c, 9, 70, 64
12, 8640, Note_on_c, 9, 70, 51
12, 8641, Note_off_c, 9, 70, 64
12, 8832, Note_on_c, 9, 70, 67
12, 8833, Note_off_c, 9, 70, 64
12, 8928, Note_on_c, 9, 70, 51
12, 8929, Note_off_c, 9, 70, 64
12, 9024, Note_on_c, 9, 70, 51
12, 9025, Note_off_c, 9, 70, 64
12, 9216, Note_on_c, 9, 70, 67
12, 9217, Note_off_c, 9, 70, 64
12, 9312, Note_on_c, 9, 70, 51
12, 9313, Note_off_c, 9, 70, 64
12, 9408, Note_on_c, 9, 70, 51
12, 9409, Note_off_c, 9, 70, 64
12, 9600, Note_on_c, 9, 70, 67
12, 9601, Note_off_c, 9, 70, 64
12, 9696, Note_on_c, 9, 70, 51
12, 9697, Note_off_c, 9, 70, 64
12, 9792, Note_on_c, 9, 70, 51
12, 9793, Note_off_c, 9, 70, 64
12, 9984, Note_on_c, 9, 70, 67
12, 9985, Note_off_c, 9, 70, 64
12, 10080, Note_on_c, 9, 70, 51
12, 10081, Note_off_c, 9, 70, 64
12, 10176, Note_on_c, 9, 70, 51
12, 10177, Note_off_c, 9, 70, 64
12, 10368, Note_on_c, 9, 70, 67
12, 10369, Note_off_c, 9, 70, 64
12, 10464, Note_on_c, 9, 70, 51
12, 10465, Note_off_c, 9, 70, 64
12, 10560, Note_on_c, 9, 70, 51
12, 10561, Note_off_c, 9, 70, 64
12, 10752, Note_on_c, 9, 70, 67
12, 10753, Note_off_c, 9, 70, 64
12, 10848, Note_on_c, 9, 70, 51
12, 10849, Note_off_c, 9, 70, 64
12, 10944, Note_on_c, 9, 70, 51
12, 10945, Note_off_c, 9, 70, 64
12, 11136, Note_on_c, 9, 70, 67
12, 11137, Note_off_c, 9, 70, 64
12, 11232, Note_on_c, 9, 70, 51
12, 11233, Note_off_c, 9, 70, 64
12, 11328, Note_on_c, 9, 70, 51
12, 11329, Note_off_c, 9, 70, 64
12, 11520, Note_on_c, 9, 70, 67
12, 11521, Note_off_c, 9, 70, 64
12, 11616, Note_on_c, 9, 70, 51
12, 11617, Note_off_c, 9, 70, 64
12, 11712, Note_on_c, 9, 70, 51
12, 11713, Note_off_c, 9, 70, 64
12, 11904, Note_on_c, 9, 70, 67
12, 11905, Note_off_c, 9, 70, 64
12, 12000, Note_on_c, 9, 70, 51
12, 12001, Note_off_c, 9, 70, 64
12, 12096, Note_on_c, 9, 70, 51
12, 12097, Note_off_c, 9, 70, 64
12, 12288, Note_on_c, 9, 70, 67
12, 12289, Note_off_c, 9, 70, 64
12, 12384, Note_on_c, 9, 70, 51
12, 12385, Note_off_c, 9, 70, 64
12, 12480, Note_on_c, 9, 70, 51
12, 12481, Note_off_c, 9, 70, 64
12, 12672, Note_on_c, 9, 70, 67
12, 12673, Note_off_c, 9, 70, 64
12, 12768, Note_on_c, 9, 70, 51
12, 12769, Note_off_c, 9, 70, 64
12, 12864, Note_on_c, 9, 70, 51
12, 12865, Note_off_c, 9, 70, 64
12, 13056, Note_on_c, 9, 70, 82
12, 13057, Note_off_c, 9, 70, 64
12, 13057, Note_on_c, 9, 42, 66
12, 13058, Note_off_c, 9, 42, 64
12, 13104, Note_on_c, 9, 36, 114
12, 13105, Note_off_c, 9, 36, 64
12, 13152, Note_on_c, 9, 46, 58
12, 13152, Note_on_c, 9, 70, 66
12, 13153, Note_off_c, 9, 46, 64
12, 13153, Note_off_c, 9, 70, 64
12, 13248, Note_on_c, 9, 70, 66
12, 13249, Note_off_c, 9, 70, 64
12, 13249, Note_on_c, 9, 42, 66
12, 13250, Note_off_c, 9, 42, 64
12, 13440, Note_on_c, 9, 36, 114
12, 13440, Note_on_c, 9, 70, 82
12, 13441, Note_off_c, 9, 36, 64
12, 13441, Note_off_c, 9, 70, 64
12, 13441, Note_on_c, 9, 42, 66
12, 13442, Note_off_c, 9, 42, 64
12, 13536, Note_on_c, 9, 70, 66
12, 13537, Note_off_c, 9, 70, 64
12, 13632, Note_on_c, 9, 70, 66
12, 13633, Note_off_c, 9, 70, 64
12, 13633, Note_on_c, 9, 42, 66
12, 13634, Note_off_c, 9, 42, 64
12, 13728, Note_on_c, 9, 36, 114
12, 13729, Note_off_c, 9, 36, 64
12, 13824, Note_on_c, 9, 36, 114
12, 13824, Note_on_c, 9, 70, 82
12, 13825, Note_off_c, 9, 36, 64
12, 13825, Note_off_c, 9, 70, 64
12, 13825, Note_on_c, 9, 42, 66
12, 13826, Note_off_c, 9, 42, 64
12, 13872, Note_on_c, 9, 36, 114
12, 13873, Note_off_c, 9, 36, 64
12, 13920, Note_on_c, 9, 70, 66
12, 13921, Note_off_c, 9, 70, 64
12, 13921, Note_on_c, 9, 42, 66
12, 13922, Note_off_c, 9, 42, 64
12, 14016, Note_on_c, 9, 46, 58
12, 14016, Note_on_c, 9, 70, 66
12, 14017, Note_off_c, 9, 46, 64
12, 14017, Note_off_c, 9, 70, 64
12, 14113, Note_on_c, 9, 42, 66
12, 14114, Note_off_c, 9, 42, 64
12, 14208, Note_on_c, 9, 36, 114
12, 14208, Note_on_c, 9, 70, 82
12, 14209, Note_off_c, 9, 36, 64
12, 14209, Note_off_c, 9, 70, 64
12, 14209, Note_on_c, 9, 42, 66
12, 14210, Note_off_c, 9, 42, 64
12, 14304, Note_on_c, 9, 70, 66
12, 14305, Note_off_c, 9, 70, 64
12, 14400, Note_on_c, 9, 70, 66
12, 14401, Note_off_c, 9, 70, 64
12, 14401, Note_on_c, 9, 42, 66
12, 14402, Note_off_c, 9, 42, 64
12, 14592, Note_on_c, 9, 70, 82
12, 14593, Note_off_c, 9, 70, 64
12, 14594, Note_on_c, 9, 42, 66
12, 14595, Note_off_c, 9, 42, 64
12, 14640, Note_on_c, 9, 36, 114
12, 14641, Note_off_c, 9, 36, 64
12, 14688, Note_on_c, 9, 46, 58
12, 14688, Note_on_c, 9, 70, 66
12, 14689, Note_off_c, 9, 46, 64
12, 14689, Note_off_c, 9, 70, 64
12, 14784, Note_on_c, 9, 70, 66
12, 14785, Note_off_c, 9, 70, 64
12, 14785, Note_on_c, 9, 42, 66
12, 14786, Note_off_c, 9, 42, 64
12, 14976, Note_on_c, 9, 36, 114
12, 14976, Note_on_c, 9, 70, 82
12, 14977, Note_off_c, 9, 36, 64
12, 14977, Note_off_c, 9, 70, 64
12, 14977, Note_on_c, 9, 42, 66
12, 14978, Note_off_c, 9, 42, 64
12, 15072, Note_on_c, 9, 70, 66
12, 15073, Note_off_c, 9, 70, 64
12, 15168, Note_on_c, 9, 70, 66
12, 15169, Note_off_c, 9, 70, 64
12, 15169, Note_on_c, 9, 42, 66
12, 15170, Note_off_c, 9, 42, 64
12, 15264, Note_on_c, 9, 36, 114
12, 15265, Note_off_c, 9, 36, 64
12, 15360, Note_on_c, 9, 36, 114
12, 15360, Note_on_c, 9, 70, 82
12, 15361, Note_off_c, 9, 36, 64
12, 15361, Note_off_c, 9, 70, 64
12, 15361, Note_on_c, 9, 42, 66
12, 15362, Note_off_c, 9, 42, 64
12, 15408, Note_on_c, 9, 36, 114
12, 15409, Note_off_c, 9, 36, 64
12, 15456, Note_on_c, 9, 70, 66
12, 15457, Note_off_c, 9, 70, 64
12, 15457, Note_on_c, 9, 42, 66
12, 15458, Note_off_c, 9, 42, 64
12, 15552, Note_on_c, 9, 46, 58
12, 15552, Note_on_c, 9, 70, 66
12, 15553, Note_off_c, 9, 46, 64
12, 15553, Note_off_c, 9, 70, 64
12, 15649, Note_on_c, 9, 42, 66
12, 15650, Note_off_c, 9, 42, 64
12, 15744, Note_on_c, 9, 36, 114
12, 15744, Note_on_c, 9, 70, 82
12, 15745, Note_off_c, 9, 36, 64
12, 15745, Note_off_c, 9, 70, 64
12, 15745, Note_on_c, 9, 42, 66
12, 15746, Note_off_c, 9, 42, 64
12, 15840, Note_on_c, 9, 70, 66
12, 15841, Note_off_c, 9, 70, 64
12, 15936, Note_on_c, 9, 42, 66
12, 15936, Note_on_c, 9, 70, 66
12, 15937, Note_off_c, 9, 42, 64
12, 15937, Note_off_c, 9, 70, 64
12, 16128, Note_on_c, 9, 70, 82
12, 16129, Note_off_c, 9, 70, 64
12, 16129, Note_on_c, 9, 42, 66
12, 16130, Note_off_c, 9, 42, 64
12, 16176, Note_on_c, 9, 36, 114
12, 16177, Note_off_c, 9, 36, 64
12, 16224, Note_on_c, 9, 46, 58
12, 16224, Note_on_c, 9, 70, 66
12, 16225, Note_off_c, 9, 46, 64
12, 16225, Note_off_c, 9, 70, 64
12, 16320, Note_on_c, 9, 70, 66
12, 16321, Note_off_c, 9, 70, 64
12, 16321, Note_on_c, 9, 42, 66
12, 16322, Note_off_c, 9, 42, 64
12, 16512, Note_on_c, 9, 36, 114
12, 16512, Note_on_c, 9, 70, 82
12, 16513, Note_off_c, 9, 36, 64
12, 16513, Note_off_c, 9, 70, 64
12, 16513, Note_on_c, 9, 42, 66
12, 16514, Note_off_c, 9, 42, 64
12, 16608, Note_on_c, 9, 70, 66
12, 16609, Note_off_c, 9, 70, 64
12, 16704, Note_on_c, 9, 70, 66
12, 16705, Note_off_c, 9, 70, 64
12, 16705, Note_on_c, 9, 42, 66
12, 16706, Note_off_c, 9, 42, 64
12, 16800, Note_on_c, 9, 36, 114
12, 16801, Note_off_c, 9, 36, 64
12, 16896, Note_on_c, 9, 36, 114
12, 16896, Note_on_c, 9, 70, 82
12, 16897, Note_off_c, 9, 36, 64
12, 16897, Note_off_c, 9, 70, 64
12, 16897, Note_on_c, 9, 42, 66
12, 16898, Note_off_c, 9, 42, 64
12, 16944, Note_on_c, 9, 36, 114
12, 16945, Note_off_c, 9, 36, 64
12, 16992, Note_on_c, 9, 70, 66
12, 16993, Note_off_c, 9, 70, 64
12, 16993, Note_on_c, 9, 42, 66
12, 16994, Note_off_c, 9, 42, 64
12, 17088, Note_on_c, 9, 46, 58
12, 17088, Note_on_c, 9, 70, 66
12, 17089, Note_off_c, 9, 46, 64
12, 17089, Note_off_c, 9, 70, 64
12, 17185, Note_on_c, 9, 42, 66
12, 17186, Note_off_c, 9, 42, 64
12, 17280, Note_on_c, 9, 36, 114
12, 17280, Note_on_c, 9, 70, 82
12, 17281, Note_off_c, 9, 36, 64
12, 17281, Note_off_c, 9, 70, 64
12, 17281, Note_on_c, 9, 42, 66
12, 17282, Note_off_c, 9, 42, 64
12, 17376, Note_on_c, 9, 70, 66
12, 17377, Note_off_c, 9, 70, 64
12, 17472, Note_on_c, 9, 70, 66
12, 17473, Note_off_c, 9, 70, 64
12, 17473, Note_on_c, 9, 42, 66
12, 17474, Note_off_c, 9, 42, 64
12, 17664, Note_on_c, 9, 70, 82
12, 17665, Note_off_c, 9, 70, 64
12, 17665, Note_on_c, 9, 42, 66
12, 17666, Note_off_c, 9, 42, 64
12, 17712, Note_on_c, 9, 36, 114
12, 17713, Note_off_c, 9, 36, 64
12, 17760, Note_on_c, 9, 46, 58
12, 17760, Note_on_c, 9, 70, 66
12, 17761, Note_off_c, 9, 46, 64
12, 17761, Note_off_c, 9, 70, 64
12, 17856, Note_on_c, 9, 70, 66
12, 17857, Note_off_c, 9, 70, 64
12, 17857, Note_on_c, 9, 42, 66
12, 17858, Note_off_c, 9, 42, 64
12, 18048, Note_on_c, 9, 36, 114
12, 18048, Note_on_c, 9, 70, 82
12, 18049, Note_off_c, 9, 36, 64
12, 18049, Note_off_c, 9, 70, 64
12, 18049, Note_on_c, 9, 42, 66
12, 18050, Note_off_c, 9, 42, 64
12, 18144, Note_on_c, 9, 70, 66
12, 18145, Note_off_c, 9, 70, 64
12, 18240, Note_on_c, 9, 70, 66
12, 18241, Note_off_c, 9, 70, 64
12, 18241, Note_on_c, 9, 42, 66
12, 18242, Note_off_c, 9, 42, 64
12, 18336, Note_on_c, 9, 36, 114
12, 18337, Note_off_c, 9, 36, 64
12, 18432, Note_on_c, 9, 36, 114
12, 18432, Note_on_c, 9, 42, 66
12, 18432, Note_on_c, 9, 70, 82
12, 18433, Note_off_c, 9, 36, 64
12, 18433, Note_off_c, 9, 42, 64
12, 18433, Note_off_c, 9, 70, 64
12, 18480, Note_on_c, 9, 36, 114
12, 18481, Note_off_c, 9, 36, 64
12, 18528, Note_on_c, 9, 70, 66
12, 18529, Note_off_c, 9, 70, 64
12, 18529, Note_on_c, 9, 42, 66
12, 18530, Note_off_c, 9, 42, 64
12, 18624, Note_on_c, 9, 46, 58
12, 18624, Note_on_c, 9, 70, 66
12, 18625, Note_off_c, 9, 46, 64
12, 18625, Note_off_c, 9, 70, 64
12, 18721, Note_on_c, 9, 42, 66
12, 18722, Note_off_c, 9, 42, 64
12, 18816, Note_on_c, 9, 36, 114
12, 18816, Note_on_c, 9, 70, 82
12, 18817, Note_off_c, 9, 36, 64
12, 18817, Note_off_c, 9, 70, 64
12, 18818, Note_on_c, 9, 42, 66
12, 18819, Note_off_c, 9, 42, 64
12, 18912, Note_on_c, 9, 70, 66
12, 18913, Note_off_c, 9, 70, 64
12, 19008, Note_on_c, 9, 70, 66
12, 19009, Note_off_c, 9, 70, 64
12, 19009, Note_on_c, 9, 42, 66
12, 19010, Note_off_c, 9, 42, 64
12, 19200, Note_on_c, 9, 70, 82
12, 19201, Note_off_c, 9, 70, 64
12, 19202, Note_on_c, 9, 42, 66
12, 19203, Note_off_c, 9, 42, 64
12, 19248, Note_on_c, 9, 36, 114
12, 19249, Note_off_c, 9, 36, 64
12, 19296, Note_on_c, 9, 46, 58
12, 19296, Note_on_c, 9, 70, 66
12, 19297, Note_off_c, 9, 46, 64
12, 19297, Note_off_c, 9, 70, 64
12, 19392, Note_on_c, 9, 70, 66
12, 19392, Note_on_c, 9, 37, 112
12, 19393, Note_off_c, 9, 70, 64
12, 19393, Note_off_c, 9, 37, 64
12, 19393, Note_on_c, 9, 42, 66
12, 19394, Note_off_c, 9, 42, 64
12, 19584, Note_on_c, 9, 36, 114
12, 19584, Note_on_c, 9, 70, 82
12, 19585, Note_off_c, 9, 36, 64
12, 19585, Note_off_c, 9, 70, 64
12, 19585, Note_on_c, 9, 42, 66
12, 19586, Note_off_c, 9, 42, 64
12, 19680, Note_on_c, 9, 70, 66
12, 19681, Note_off_c, 9, 70, 64
12, 19776, Note_on_c, 9, 70, 66
12, 19777, Note_off_c, 9, 70, 64
12, 19777, Note_on_c, 9, 42, 66
12, 19778, Note_off_c, 9, 42, 64
12, 19872, Note_on_c, 9, 36, 114
12, 19873, Note_off_c, 9, 36, 64
12, 19968, Note_on_c, 9, 36, 114
12, 19968, Note_on_c, 9, 70, 82
12, 19969, Note_off_c, 9, 36, 64
12, 19969, Note_off_c, 9, 70, 64
12, 19969, Note_on_c, 9, 42, 66
12, 19970, Note_off_c, 9, 42, 64
12, 20016, Note_on_c, 9, 36, 114
12, 20017, Note_off_c, 9, 36, 64
12, 20064, Note_on_c, 9, 42, 66
12, 20064, Note_on_c, 9, 70, 66
12, 20065, Note_off_c, 9, 42, 64
12, 20065, Note_off_c, 9, 70, 64
12, 20160, Note_on_c, 9, 46, 58
12, 20160, Note_on_c, 9, 70, 66
12, 20160, Note_on_c, 9, 37, 112
12, 20161, Note_off_c, 9, 46, 64
12, 20161, Note_off_c, 9, 70, 64
12, 20161, Note_off_c, 9, 37, 64
12, 20257, Note_on_c, 9, 42, 66
12, 20258, Note_off_c, 9, 42, 64
12, 20352, Note_on_c, 9, 36, 114
12, 20352, Note_on_c, 9, 70, 82
12, 20353, Note_off_c, 9, 36, 64
12, 20353, Note_off_c, 9, 70, 64
12, 20353, Note_on_c, 9, 42, 66
12, 20354, Note_off_c, 9, 42, 64
12, 20448, Note_on_c, 9, 70, 66
12, 20449, Note_off_c, 9, 70, 64
12, 20544, Note_on_c, 9, 70, 66
12, 20545, Note_off_c, 9, 70, 64
12, 20545, Note_on_c, 9, 42, 66
12, 20546, Note_off_c, 9, 42, 64
12, 20736, Note_on_c, 9, 70, 82
12, 20737, Note_off_c, 9, 70, 64
12, 20738, Note_on_c, 9, 42, 66
12, 20739, Note_off_c, 9, 42, 64
12, 20784, Note_on_c, 9, 36, 114
12, 20785, Note_off_c, 9, 36, 64
12, 20832, Note_on_c, 9, 46, 58
12, 20832, Note_on_c, 9, 70, 66
12, 20833, Note_off_c, 9, 46, 64
12, 20833, Note_off_c, 9, 70, 64
12, 20928, Note_on_c, 9, 70, 66
12, 20928, Note_on_c, 9, 37, 112
12, 20929, Note_off_c, 9, 70, 64
12, 20929, Note_off_c, 9, 37, 64
12, 20929, Note_on_c, 9, 42, 66
12, 20930, Note_off_c, 9, 42, 64
12, 21120, Note_on_c, 9, 36, 114
12, 21120, Note_on_c, 9, 70, 82
12, 21121, Note_off_c, 9, 36, 64
12, 21121, Note_off_c, 9, 70, 64
12, 21121, Note_on_c, 9, 42, 66
12, 21122, Note_off_c, 9, 42, 64
12, 21216, Note_on_c, 9, 70, 66
12, 21217, Note_off_c, 9, 70, 64
12, 21312, Note_on_c, 9, 42, 66
12, 21312, Note_on_c, 9, 70, 66
12, 21313, Note_off_c, 9, 42, 64
12, 21313, Note_off_c, 9, 70, 64
12, 21408, Note_on_c, 9, 36, 114
12, 21409, Note_off_c, 9, 36, 64
12, 21504, Note_on_c, 9, 36, 114
12, 21504, Note_on_c, 9, 70, 82
12, 21505, Note_off_c, 9, 36, 64
12, 21505, Note_off_c, 9, 70, 64
12, 21505, Note_on_c, 9, 42, 66
12, 21506, Note_off_c, 9, 42, 64
12, 21552, Note_on_c, 9, 36, 114
12, 21553, Note_off_c, 9, 36, 64
12, 21600, Note_on_c, 9, 70, 66
12, 21601, Note_off_c, 9, 70, 64
12, 21601, Note_on_c, 9, 42, 66
12, 21602, Note_off_c, 9, 42, 64
12, 21696, Note_on_c, 9, 46, 58
12, 21696, Note_on_c, 9, 70, 66
12, 21696, Note_on_c, 9, 37, 112
12, 21697, Note_off_c, 9, 46, 64
12, 21697, Note_off_c, 9, 70, 64
12, 21697, Note_off_c, 9, 37, 64
12, 21793, Note_on_c, 9, 42, 66
12, 21794, Note_off_c, 9, 42, 64
12, 21888, Note_on_c, 9, 36, 114
12, 21888, Note_on_c, 9, 70, 82
12, 21889, Note_off_c, 9, 36, 64
12, 21889, Note_off_c, 9, 70, 64
12, 21889, Note_on_c, 9, 42, 66
12, 21890, Note_off_c, 9, 42, 64
12, 21984, Note_on_c, 9, 70, 66
12, 21985, Note_off_c, 9, 70, 64
12, 22080, Note_on_c, 9, 70, 66
12, 22081, Note_off_c, 9, 70, 64
12, 22081, Note_on_c, 9, 42, 66
12, 22082, Note_off_c, 9, 42, 64
12, 22272, Note_on_c, 9, 70, 82
12, 22273, Note_off_c, 9, 70, 64
12, 22273, Note_on_c, 9, 42, 66
12, 22274, Note_off_c, 9, 42, 64
12, 22320, Note_on_c, 9, 36, 114
12, 22321, Note_off_c, 9, 36, 64
12, 22368, Note_on_c, 9, 46, 58
12, 22368, Note_on_c, 9, 70, 66
12, 22369, Note_off_c, 9, 46, 64
12, 22369, Note_off_c, 9, 70, 64
12, 22464, Note_on_c, 9, 70, 66
12, 22464, Note_on_c, 9, 37, 112
12, 22465, Note_off_c, 9, 70, 64
12, 22465, Note_off_c, 9, 37, 64
12, 22465, Note_on_c, 9, 42, 66
12, 22466, Note_off_c, 9, 42, 64
12, 22656, Note_on_c, 9, 36, 114
12, 22656, Note_on_c, 9, 70, 82
12, 22657, Note_off_c, 9, 36, 64
12, 22657, Note_off_c, 9, 70, 64
12, 22657, Note_on_c, 9, 42, 66
12, 22658, Note_off_c, 9, 42, 64
12, 22752, Note_on_c, 9, 70, 66
12, 22753, Note_off_c, 9, 70, 64
12, 22848, Note_on_c, 9, 70, 66
12, 22849, Note_off_c, 9, 70, 64
12, 22849, Note_on_c, 9, 42, 66
12, 22850, Note_off_c, 9, 42, 64
12, 22944, Note_on_c, 9, 36, 114
12, 22945, Note_off_c, 9, 36, 64
12, 23040, Note_on_c, 9, 36, 114
12, 23040, Note_on_c, 9, 70, 82
12, 23041, Note_off_c, 9, 36, 64
12, 23041, Note_off_c, 9, 70, 64
12, 23041, Note_on_c, 9, 42, 66
12, 23042, Note_off_c, 9, 42, 64
12, 23088, Note_on_c, 9, 36, 114
12, 23089, Note_off_c, 9, 36, 64
12, 23136, Note_on_c, 9, 70, 66
12, 23137, Note_off_c, 9, 70, 64
12, 23137, Note_on_c, 9, 42, 66
12, 23138, Note_off_c, 9, 42, 64
12, 23232, Note_on_c, 9, 46, 58
12, 23232, Note_on_c, 9, 70, 66
12, 23232, Note_on_c, 9, 37, 112
12, 23233, Note_off_c, 9, 46, 64
12, 23233, Note_off_c, 9, 70, 64
12, 23233, Note_off_c, 9, 37, 64
12, 23329, Note_on_c, 9, 42, 66
12, 23330, Note_off_c, 9, 42, 64
12, 23424, Note_on_c, 9, 36, 114
12, 23424, Note_on_c, 9, 42, 66
12, 23424, Note_on_c, 9, 70, 82
12, 23425, Note_off_c, 9, 36, 64
12, 23425, Note_off_c, 9, 42, 64
12, 23425, Note_off_c, 9, 70, 64
12, 23520, Note_on_c, 9, 70, 66
12, 23521, Note_off_c, 9, 70, 64
12, 23616, Note_on_c, 9, 70, 66
12, 23617, Note_off_c, 9, 70, 64
12, 23617, Note_on_c, 9, 42, 66
12, 23618, Note_off_c, 9, 42, 64
12, 23808, Note_on_c, 9, 70, 82
12, 23809, Note_off_c, 9, 70, 64
12, 23809, Note_on_c, 9, 42, 66
12, 23810, Note_off_c, 9, 42, 64
12, 23856, Note_on_c, 9, 36, 114
12, 23857, Note_off_c, 9, 36, 64
12, 23904, Note_on_c, 9, 46, 58
12, 23904, Note_on_c, 9, 70, 66
12, 23905, Note_off_c, 9, 46, 64
12, 23905, Note_off_c, 9, 70, 64
12, 24000, Note_on_c, 9, 70, 66
12, 24000, Note_on_c, 9, 37, 112
12, 24001, Note_off_c, 9, 70, 64
12, 24001, Note_off_c, 9, 37, 64
12, 24001, Note_on_c, 9, 42, 66
12, 24002, Note_off_c, 9, 42, 64
12, 24192, Note_on_c, 9, 36, 114
12, 24192, Note_on_c, 9, 70, 82
12, 24193, Note_off_c, 9, 36, 64
12, 24193, Note_off_c, 9, 70, 64
12, 24193, Note_on_c, 9, 42, 66
12, 24194, Note_off_c, 9, 42, 64
12, 24288, Note_on_c, 9, 70, 66
12, 24289, Note_off_c, 9, 70, 64
12, 24384, Note_on_c, 9, 70, 66
12, 24385, Note_off_c, 9, 70, 64
12, 24385, Note_on_c, 9, 42, 66
12, 24386, Note_off_c, 9, 42, 64
12, 24480, Note_on_c, 9, 36, 114
12, 24481, Note_off_c, 9, 36, 64
12, 24576, Note_on_c, 9, 36, 114
12, 24576, Note_on_c, 9, 70, 82
12, 24577, Note_off_c, 9, 36, 64
12, 24577, Note_off_c, 9, 70, 64
12, 24577, Note_on_c, 9, 42, 114
12, 24578, Note_off_c, 9, 42, 64
12, 24624, Note_on_c, 9, 36, 114
12, 24624, Note_on_c, 9, 45, 110
12, 24624, Note_on_c, 9, 41, 110
12, 24625, Note_off_c, 9, 36, 64
12, 24625, Note_off_c, 9, 45, 64
12, 24625, Note_off_c, 9, 41, 64
12, 24672, Note_on_c, 9, 70, 66
12, 24673, Note_off_c, 9, 70, 64
12, 24673, Note_on_c, 9, 42, 66
12, 24674, Note_off_c, 9, 42, 64
12, 24721, Note_on_c, 9, 45, 110
12, 24721, Note_on_c, 9, 41, 110
12, 24722, Note_off_c, 9, 45, 64
12, 24722, Note_off_c, 9, 41, 64
12, 24768, Note_on_c, 9, 70, 66
12, 24768, Note_on_c, 9, 37, 112
12, 24769, Note_off_c, 9, 70, 64
12, 24769, Note_off_c, 9, 37, 64
12, 24769, Note_on_c, 9, 42, 114
12, 24769, Note_on_c, 9, 45, 110
12, 24769, Note_on_c, 9, 41, 110
12, 24770, Note_off_c, 9, 42, 64
12, 24770, Note_off_c, 9, 45, 64
12, 24770, Note_off_c, 9, 41, 64
12, 24865, Note_on_c, 9, 42, 66
12, 24866, Note_off_c, 9, 42, 64
12, 24913, Note_on_c, 9, 45, 110
12, 24913, Note_on_c, 9, 41, 110
12, 24914, Note_off_c, 9, 45, 64
12, 24914, Note_off_c, 9, 41, 64
12, 24960, Note_on_c, 9, 36, 114
12, 24960, Note_on_c, 9, 70, 82
12, 24961, Note_off_c, 9, 36, 64
12, 24961, Note_off_c, 9, 70, 64
12, 24961, Note_on_c, 9, 42, 114
12, 24961, Note_on_c, 9, 45, 110
12, 24961, Note_on_c, 9, 41, 110
12, 24962, Note_off_c, 9, 42, 64
12, 24962, Note_off_c, 9, 45, 64
12, 24962, Note_off_c, 9, 41, 64
12, 25056, Note_on_c, 9, 42, 66
12, 25056, Note_on_c, 9, 70, 66
12, 25056, Note_on_c, 9, 45, 110
12, 25056, Note_on_c, 9, 41, 110
12, 25057, Note_off_c, 9, 42, 64
12, 25057, Note_off_c, 9, 70, 64
12, 25057, Note_off_c, 9, 45, 64
12, 25057, Note_off_c, 9, 41, 64
12, 25152, Note_on_c, 9, 70, 66
12, 25153, Note_off_c, 9, 70, 64
12, 25153, Note_on_c, 9, 42, 114
12, 25153, Note_on_c, 9, 45, 110
12, 25153, Note_on_c, 9, 41, 110
12, 25154, Note_off_c, 9, 42, 64
12, 25154, Note_off_c, 9, 45, 64
12, 25154, Note_off_c, 9, 41, 64
12, 25201, Note_on_c, 9, 45, 110
12, 25201, Note_on_c, 9, 41, 110
12, 25202, Note_off_c, 9, 45, 64
12, 25202, Note_off_c, 9, 41, 64
12, 25249, Note_on_c, 9, 42, 66
12, 25249, Note_on_c, 9, 45, 110
12, 25249, Note_on_c, 9, 41, 110
12, 25250, Note_off_c, 9, 42, 64
12, 25250, Note_off_c, 9, 45, 64
12, 25250, Note_off_c, 9, 41, 64
12, 25344, Note_on_c, 9, 36, 114
12, 25344, Note_on_c, 9, 49, 101
12, 25344, Note_on_c, 9, 70, 82
12, 25345, Note_off_c, 9, 36, 64
12, 25345, Note_off_c, 9, 49, 64
12, 25345, Note_off_c, 9, 70, 64
12, 25346, Note_on_c, 9, 42, 114
12, 25347, Note_off_c, 9, 42, 64
12, 25392, Note_on_c, 9, 36, 114
12, 25393, Note_off_c, 9, 36, 64
12, 25393, Note_on_c, 9, 42, 66
12, 25394, Note_off_c, 9, 42, 64
12, 25440, Note_on_c, 9, 42, 66
12, 25440, Note_on_c, 9, 70, 66
12, 25441, Note_off_c, 9, 42, 64
12, 25441, Note_off_c, 9, 70, 64
12, 25536, Note_on_c, 9, 38, 106
12, 25536, Note_on_c, 9, 42, 114
12, 25536, Note_on_c, 9, 70, 66
12, 25536, Note_on_c, 9, 54, 100
12, 25537, Note_off_c, 9, 38, 64
12, 25537, Note_off_c, 9, 42, 64
12, 25537, Note_off_c, 9, 70, 64
12, 25537, Note_off_c, 9, 54, 57
12, 25633, Note_on_c, 9, 42, 66
12, 25634, Note_off_c, 9, 42, 64
12, 25728, Note_on_c, 9, 36, 114
12, 25728, Note_on_c, 9, 70, 82
12, 25729, Note_off_c, 9, 36, 64
12, 25729, Note_off_c, 9, 70, 64
12, 25729, Note_on_c, 9, 42, 114
12, 25730, Note_off_c, 9, 42, 64
12, 25824, Note_on_c, 9, 70, 66
12, 25825, Note_off_c, 9, 70, 64
12, 25825, Note_on_c, 9, 42, 66
12, 25826, Note_off_c, 9, 42, 64
12, 25920, Note_on_c, 9, 70, 66
12, 25920, Note_on_c, 9, 54, 100
12, 25921, Note_off_c, 9, 70, 64
12, 25921, Note_off_c, 9, 54, 57
12, 25921, Note_on_c, 9, 38, 106
12, 25921, Note_on_c, 9, 42, 114
12, 25922, Note_off_c, 9, 38, 64
12, 25922, Note_off_c, 9, 42, 64
12, 26016, Note_on_c, 9, 36, 114
12, 26017, Note_off_c, 9, 36, 64
12, 26017, Note_on_c, 9, 42, 66
12, 26018, Note_off_c, 9, 42, 64
12, 26112, Note_on_c, 9, 36, 114
12, 26112, Note_on_c, 9, 70, 82
12, 26113, Note_off_c, 9, 36, 64
12, 26113, Note_off_c, 9, 70, 64
12, 26113, Note_on_c, 9, 42, 114
12, 26114, Note_off_c, 9, 42, 64
12, 26160, Note_on_c, 9, 36, 114
12, 26161, Note_off_c, 9, 36, 64
12, 26161, Note_on_c, 9, 42, 66
12, 26162, Note_off_c, 9, 42, 64
12, 26208, Note_on_c, 9, 70, 66
12, 26209, Note_off_c, 9, 70, 64
12, 26209, Note_on_c, 9, 42, 66
12, 26210, Note_off_c, 9, 42, 64
12, 26304, Note_on_c, 9, 38, 106
12, 26304, Note_on_c, 9, 42, 114
12, 26304, Note_on_c, 9, 70, 66
12, 26304, Note_on_c, 9, 54, 100
12, 26305, Note_off_c, 9, 38, 64
12, 26305, Note_off_c, 9, 42, 64
12, 26305, Note_off_c, 9, 70, 64
12, 26305, Note_off_c, 9, 54, 57
12, 26401, Note_on_c, 9, 42, 66
12, 26402, Note_off_c, 9, 42, 64
12, 26496, Note_on_c, 9, 36, 114
12, 26496, Note_on_c, 9, 70, 82
12, 26497, Note_off_c, 9, 36, 64
12, 26497, Note_off_c, 9, 70, 64
12, 26497, Note_on_c, 9, 42, 114
12, 26498, Note_off_c, 9, 42, 64
12, 26592, Note_on_c, 9, 70, 66
12, 26593, Note_off_c, 9, 70, 64
12, 26593, Note_on_c, 9, 42, 66
12, 26594, Note_off_c, 9, 42, 64
12, 26688, Note_on_c, 9, 38, 106
12, 26688, Note_on_c, 9, 42, 114
12, 26688, Note_on_c, 9, 70, 66
12, 26688, Note_on_c, 9, 54, 100
12, 26689, Note_off_c, 9, 38, 64
12, 26689, Note_off_c, 9, 42, 64
12, 26689, Note_off_c, 9, 70, 64
12, 26689, Note_off_c, 9, 54, 57
12, 26785, Note_on_c, 9, 42, 66
12, 26785, Note_on_c, 9, 41, 110
12, 26786, Note_off_c, 9, 42, 64
12, 26786, Note_off_c, 9, 41, 64
12, 26880, Note_on_c, 9, 36, 114
12, 26880, Note_on_c, 9, 70, 82
12, 26881, Note_off_c, 9, 36, 64
12, 26881, Note_off_c, 9, 70, 64
12, 26882, Note_on_c, 9, 42, 114
12, 26883, Note_off_c, 9, 42, 64
12, 26928, Note_on_c, 9, 36, 114
12, 26929, Note_off_c, 9, 36, 64
12, 26929, Note_on_c, 9, 42, 66
12, 26930, Note_off_c, 9, 42, 64
12, 26976, Note_on_c, 9, 70, 66
12, 26977, Note_off_c, 9, 70, 64
12, 26977, Note_on_c, 9, 42, 66
12, 26978, Note_off_c, 9, 42, 64
12, 27072, Note_on_c, 9, 70, 66
12, 27072, Note_on_c, 9, 54, 100
12, 27073, Note_off_c, 9, 70, 64
12, 27073, Note_off_c, 9, 54, 57
12, 27073, Note_on_c, 9, 38, 106
12, 27073, Note_on_c, 9, 42, 114
12, 27074, Note_off_c, 9, 38, 64
12, 27074, Note_off_c, 9, 42, 64
12, 27169, Note_on_c, 9, 42, 66
12, 27170, Note_off_c, 9, 42, 64
12, 27264, Note_on_c, 9, 36, 114
12, 27264, Note_on_c, 9, 70, 82
12, 27265, Note_off_c, 9, 36, 64
12, 27265, Note_off_c, 9, 70, 64
12, 27265, Note_on_c, 9, 42, 114
12, 27266, Note_off_c, 9, 42, 64
12, 27360, Note_on_c, 9, 70, 66
12, 27361, Note_off_c, 9, 70, 64
12, 27361, Note_on_c, 9, 42, 66
12, 27362, Note_off_c, 9, 42, 64
12, 27456, Note_on_c, 9, 70, 66
12, 27456, Note_on_c, 9, 54, 100
12, 27457, Note_off_c, 9, 70, 64
12, 27457, Note_off_c, 9, 54, 57
12, 27457, Note_on_c, 9, 38, 106
12, 27457, Note_on_c, 9, 42, 114
12, 27458, Note_off_c, 9, 38, 64
12, 27458, Note_off_c, 9, 42, 64
12, 27552, Note_on_c, 9, 36, 114
12, 27552, Note_on_c, 9, 42, 66
12, 27552, Note_on_c, 9, 45, 110
12, 27552, Note_on_c, 9, 41, 110
12, 27553, Note_off_c, 9, 36, 64
12, 27553, Note_off_c, 9, 42, 64
12, 27553, Note_off_c, 9, 45, 64
12, 27553, Note_off_c, 9, 41, 64
12, 27600, Note_on_c, 9, 45, 110
12, 27600, Note_on_c, 9, 41, 110
12, 27601, Note_off_c, 9, 45, 64
12, 27601, Note_off_c, 9, 41, 64
12, 27648, Note_on_c, 9, 36, 114
12, 27648, Note_on_c, 9, 70, 82
12, 27649, Note_off_c, 9, 36, 64
12, 27649, Note_off_c, 9, 70, 64
12, 27649, Note_on_c, 9, 42, 114
12, 27649, Note_on_c, 9, 45, 110
12, 27649, Note_on_c, 9, 41, 110
12, 27650, Note_off_c, 9, 42, 64
12, 27650, Note_off_c, 9, 45, 64
12, 27650, Note_off_c, 9, 41, 64
12, 27696, Note_on_c, 9, 36, 114
12, 27697, Note_off_c, 9, 36, 64
12, 27697, Note_on_c, 9, 42, 66
12, 27697, Note_on_c, 9, 45, 110
12, 27697, Note_on_c, 9, 41, 110
12, 27698, Note_off_c, 9, 42, 64
12, 27698, Note_off_c, 9, 45, 64
12, 27698, Note_off_c, 9, 41, 64
12, 27744, Note_on_c, 9, 70, 66
12, 27745, Note_off_c, 9, 70, 64
12, 27745, Note_on_c, 9, 42, 66
12, 27746, Note_off_c, 9, 42, 64
12, 27840, Note_on_c, 9, 70, 66
12, 27840, Note_on_c, 9, 54, 100
12, 27841, Note_off_c, 9, 70, 64
12, 27841, Note_off_c, 9, 54, 57
12, 27841, Note_on_c, 9, 38, 106
12, 27841, Note_on_c, 9, 42, 114
12, 27842, Note_off_c, 9, 38, 64
12, 27842, Note_off_c, 9, 42, 64
12, 27937, Note_on_c, 9, 42, 66
12, 27938, Note_off_c, 9, 42, 64
12, 28032, Note_on_c, 9, 36, 114
12, 28032, Note_on_c, 9, 70, 82
12, 28033, Note_off_c, 9, 36, 64
12, 28033, Note_off_c, 9, 70, 64
12, 28033, Note_on_c, 9, 42, 114
12, 28034, Note_off_c, 9, 42, 64
12, 28128, Note_on_c, 9, 70, 66
12, 28129, Note_off_c, 9, 70, 64
12, 28129, Note_on_c, 9, 42, 66
12, 28130, Note_off_c, 9, 42, 64
12, 28224, Note_on_c, 9, 70, 66
12, 28224, Note_on_c, 9, 54, 100
12, 28225, Note_off_c, 9, 70, 64
12, 28225, Note_off_c, 9, 54, 57
12, 28225, Note_on_c, 9, 38, 106
12, 28225, Note_on_c, 9, 42, 114
12, 28226, Note_off_c, 9, 38, 64
12, 28226, Note_off_c, 9, 42, 64
12, 28320, Note_on_c, 9, 42, 66
12, 28320, Note_on_c, 9, 41, 110
12, 28321, Note_off_c, 9, 42, 64
12, 28321, Note_off_c, 9, 41, 64
12, 28368, Note_on_c, 9, 41, 110
12, 28369, Note_off_c, 9, 41, 64
12, 28416, Note_on_c, 9, 36, 114
12, 28416, Note_on_c, 9, 70, 82
12, 28417, Note_off_c, 9, 36, 64
12, 28417, Note_off_c, 9, 70, 64
12, 28417, Note_on_c, 9, 42, 114
12, 28418, Note_off_c, 9, 42, 64
12, 28464, Note_on_c, 9, 36, 114
12, 28465, Note_off_c, 9, 36, 64
12, 28465, Note_on_c, 9, 42, 66
12, 28466, Note_off_c, 9, 42, 64
12, 28512, Note_on_c, 9, 70, 66
12, 28513, Note_off_c, 9, 70, 64
12, 28513, Note_on_c, 9, 42, 66
12, 28514, Note_off_c, 9, 42, 64
12, 28608, Note_on_c, 9, 70, 66
12, 28608, Note_on_c, 9, 54, 100
12, 28609, Note_off_c, 9, 70, 64
12, 28609, Note_off_c, 9, 54, 57
12, 28609, Note_on_c, 9, 38, 106
12, 28609, Note_on_c, 9, 42, 114
12, 28610, Note_off_c, 9, 38, 64
12, 28610, Note_off_c, 9, 42, 64
12, 28706, Note_on_c, 9, 42, 66
12, 28707, Note_off_c, 9, 42, 64
12, 28800, Note_on_c, 9, 36, 114
12, 28800, Note_on_c, 9, 70, 82
12, 28801, Note_off_c, 9, 36, 64
12, 28801, Note_off_c, 9, 70, 64
12, 28801, Note_on_c, 9, 42, 114
12, 28802, Note_off_c, 9, 42, 64
12, 28896, Note_on_c, 9, 70, 66
12, 28897, Note_off_c, 9, 70, 64
12, 28897, Note_on_c, 9, 42, 66
12, 28898, Note_off_c, 9, 42, 64
12, 28992, Note_on_c, 9, 70, 66
12, 28992, Note_on_c, 9, 54, 100
12, 28993, Note_off_c, 9, 70, 64
12, 28993, Note_off_c, 9, 54, 57
12, 28993, Note_on_c, 9, 38, 106
12, 28993, Note_on_c, 9, 42, 114
12, 28994, Note_off_c, 9, 38, 64
12, 28994, Note_off_c, 9, 42, 64
12, 29088, Note_on_c, 9, 36, 114
12, 29089, Note_off_c, 9, 36, 64
12, 29089, Note_on_c, 9, 42, 66
12, 29090, Note_off_c, 9, 42, 64
12, 29184, Note_on_c, 9, 36, 114
12, 29184, Note_on_c, 9, 70, 82
12, 29185, Note_off_c, 9, 36, 64
12, 29185, Note_off_c, 9, 70, 64
12, 29185, Note_on_c, 9, 42, 114
12, 29186, Note_off_c, 9, 42, 64
12, 29232, Note_on_c, 9, 36, 114
12, 29233, Note_off_c, 9, 36, 64
12, 29233, Note_on_c, 9, 42, 66
12, 29234, Note_off_c, 9, 42, 64
12, 29280, Note_on_c, 9, 70, 66
12, 29281, Note_off_c, 9, 70, 64
12, 29281, Note_on_c, 9, 42, 66
12, 29282, Note_off_c, 9, 42, 64
12, 29376, Note_on_c, 9, 70, 66
12, 29376, Note_on_c, 9, 54, 100
12, 29377, Note_off_c, 9, 70, 64
12, 29377, Note_off_c, 9, 54, 57
12, 29377, Note_on_c, 9, 38, 106
12, 29377, Note_on_c, 9, 42, 114
12, 29378, Note_off_c, 9, 38, 64
12, 29378, Note_off_c, 9, 42, 64
12, 29473, Note_on_c, 9, 42, 66
12, 29474, Note_off_c, 9, 42, 64
12, 29568, Note_on_c, 9, 36, 114
12, 29568, Note_on_c, 9, 70, 82
12, 29569, Note_off_c, 9, 36, 64
12, 29569, Note_off_c, 9, 70, 64
12, 29569, Note_on_c, 9, 42, 114
12, 29570, Note_off_c, 9, 42, 64
12, 29664, Note_on_c, 9, 70, 66
12, 29665, Note_off_c, 9, 70, 64
12, 29665, Note_on_c, 9, 42, 66
12, 29666, Note_off_c, 9, 42, 64
12, 29760, Note_on_c, 9, 70, 66
12, 29760, Note_on_c, 9, 54, 100
12, 29761, Note_off_c, 9, 70, 64
12, 29761, Note_off_c, 9, 54, 57
12, 29761, Note_on_c, 9, 38, 106
12, 29761, Note_on_c, 9, 42, 114
12, 29762, Note_off_c, 9, 38, 64
12, 29762, Note_off_c, 9, 42, 64
12, 29857, Note_on_c, 9, 42, 66
12, 29857, Note_on_c, 9, 41, 110
12, 29858, Note_off_c, 9, 42, 64
12, 29858, Note_off_c, 9, 41, 64
12, 29952, Note_on_c, 9, 36, 114
12, 29952, Note_on_c, 9, 70, 82
12, 29953, Note_off_c, 9, 36, 64
12, 29953, Note_off_c, 9, 70, 64
12, 29954, Note_on_c, 9, 42, 114
12, 29955, Note_off_c, 9, 42, 64
12, 30000, Note_on_c, 9, 36, 114
12, 30000, Note_on_c, 9, 42, 66
12, 30001, Note_off_c, 9, 36, 64
12, 30001, Note_off_c, 9, 42, 64
12, 30048, Note_on_c, 9, 70, 66
12, 30049, Note_off_c, 9, 70, 64
12, 30049, Note_on_c, 9, 42, 66
12, 30050, Note_off_c, 9, 42, 64
12, 30144, Note_on_c, 9, 70, 66
12, 30144, Note_on_c, 9, 54, 100
12, 30145, Note_off_c, 9, 70, 64
12, 30145, Note_off_c, 9, 54, 57
12, 30145, Note_on_c, 9, 38, 106
12, 30145, Note_on_c, 9, 42, 114
12, 30146, Note_off_c, 9, 38, 64
12, 30146, Note_off_c, 9, 42, 64
12, 30241, Note_on_c, 9, 42, 66
12, 30242, Note_off_c, 9, 42, 64
12, 30336, Note_on_c, 9, 36, 114
12, 30336, Note_on_c, 9, 70, 82
12, 30337, Note_off_c, 9, 36, 64
12, 30337, Note_off_c, 9, 70, 64
12, 30337, Note_on_c, 9, 42, 114
12, 30338, Note_off_c, 9, 42, 64
12, 30432, Note_on_c, 9, 70, 66
12, 30433, Note_off_c, 9, 70, 64
12, 30433, Note_on_c, 9, 42, 66
12, 30434, Note_off_c, 9, 42, 64
12, 30528, Note_on_c, 9, 70, 66
12, 30528, Note_on_c, 9, 54, 100
12, 30529, Note_off_c, 9, 70, 64
12, 30529, Note_off_c, 9, 54, 57
12, 30529, Note_on_c, 9, 38, 106
12, 30529, Note_on_c, 9, 42, 114
12, 30530, Note_off_c, 9, 38, 64
12, 30530, Note_off_c, 9, 42, 64
12, 30624, Note_on_c, 9, 36, 114
12, 30625, Note_off_c, 9, 36, 64
12, 30625, Note_on_c, 9, 42, 66
12, 30626, Note_off_c, 9, 42, 64
12, 30720, Note_on_c, 9, 36, 114
12, 30720, Note_on_c, 9, 70, 82
12, 30721, Note_off_c, 9, 36, 64
12, 30721, Note_off_c, 9, 70, 64
12, 30721, Note_on_c, 9, 42, 114
12, 30722, Note_off_c, 9, 42, 64
12, 30768, Note_on_c, 9, 36, 114
12, 30769, Note_off_c, 9, 36, 64
12, 30769, Note_on_c, 9, 42, 66
12, 30769, Note_on_c, 9, 45, 110
12, 30769, Note_on_c, 9, 41, 110
12, 30770, Note_off_c, 9, 42, 64
12, 30770, Note_off_c, 9, 45, 64
12, 30770, Note_off_c, 9, 41, 64
12, 30816, Note_on_c, 9, 42, 66
12, 30816, Note_on_c, 9, 70, 66
12, 30817, Note_off_c, 9, 42, 64
12, 30817, Note_off_c, 9, 70, 64
12, 30865, Note_on_c, 9, 45, 110
12, 30865, Note_on_c, 9, 41, 110
12, 30866, Note_off_c, 9, 45, 64
12, 30866, Note_off_c, 9, 41, 64
12, 30912, Note_on_c, 9, 38, 106
12, 30912, Note_on_c, 9, 42, 114
12, 30912, Note_on_c, 9, 70, 66
12, 30912, Note_on_c, 9, 45, 110
12, 30912, Note_on_c, 9, 41, 110
12, 30912, Note_on_c, 9, 54, 100
12, 30913, Note_off_c, 9, 38, 64
12, 30913, Note_off_c, 9, 42, 64
12, 30913, Note_off_c, 9, 70, 64
12, 30913, Note_off_c, 9, 45, 64
12, 30913, Note_off_c, 9, 41, 64
12, 30913, Note_off_c, 9, 54, 57
12, 31009, Note_on_c, 9, 42, 66
12, 31010, Note_off_c, 9, 42, 64
12, 31057, Note_on_c, 9, 45, 110
12, 31057, Note_on_c, 9, 41, 110
12, 31058, Note_off_c, 9, 45, 64
12, 31058, Note_off_c, 9, 41, 64
12, 31104, Note_on_c, 9, 36, 114
12, 31104, Note_on_c, 9, 70, 82
12, 31105, Note_off_c, 9, 36, 64
12, 31105, Note_off_c, 9, 70, 64
12, 31105, Note_on_c, 9, 42, 114
12, 31105, Note_on_c, 9, 45, 110
12, 31105, Note_on_c, 9, 41, 110
12, 31106, Note_off_c, 9, 42, 64
12, 31106, Note_off_c, 9, 45, 64
12, 31106, Note_off_c, 9, 41, 64
12, 31200, Note_on_c, 9, 70, 66
12, 31201, Note_off_c, 9, 70, 64
12, 31201, Note_on_c, 9, 42, 66
12, 31201, Note_on_c, 9, 45, 110
12, 31201, Note_on_c, 9, 41, 110
12, 31202, Note_off_c, 9, 42, 64
12, 31202, Note_off_c, 9, 45, 64
12, 31202, Note_off_c, 9, 41, 64
12, 31296, Note_on_c, 9, 38, 106
12, 31296, Note_on_c, 9, 42, 114
12, 31296, Note_on_c, 9, 70, 66
12, 31296, Note_on_c, 9, 45, 110
12, 31296, Note_on_c, 9, 41, 110
12, 31296, Note_on_c, 9, 54, 100
12, 31297, Note_off_c, 9, 38, 64
12, 31297, Note_off_c, 9, 42, 64
12, 31297, Note_off_c, 9, 70, 64
12, 31297, Note_off_c, 9, 45, 64
12, 31297, Note_off_c, 9, 41, 64
12, 31297, Note_off_c, 9, 54, 57
12, 31345, Note_on_c, 9, 45, 110
12, 31345, Note_on_c, 9, 41, 110
12, 31346, Note_off_c, 9, 45, 64
12, 31346, Note_off_c, 9, 41, 64
12, 31393, Note_on_c, 9, 42, 66
12, 31393, Note_on_c, 9, 45, 110
12, 31393, Note_on_c, 9, 41, 110
12, 31394, Note_off_c, 9, 42, 64
12, 31394, Note_off_c, 9, 45, 64
12, 31394, Note_off_c, 9, 41, 64
12, 31488, Note_on_c, 9, 36, 114
12, 31488, Note_on_c, 9, 49, 101
12, 31488, Note_on_c, 9, 70, 82
12, 31489, Note_off_c, 9, 36, 64
12, 31489, Note_off_c, 9, 49, 64
12, 31489, Note_off_c, 9, 70, 64
12, 31490, Note_on_c, 9, 42, 114
12, 31491, Note_off_c, 9, 42, 64
12, 31536, Note_on_c, 9, 36, 114
12, 31537, Note_off_c, 9, 36, 64
12, 31537, Note_on_c, 9, 42, 66
12, 31538, Note_off_c, 9, 42, 64
12, 31584, Note_on_c, 9, 70, 66
12, 31585, Note_off_c, 9, 70, 64
12, 31586, Note_on_c, 9, 42, 66
12, 31587, Note_off_c, 9, 42, 64
12, 31680, Note_on_c, 9, 70, 66
12, 31680, Note_on_c, 9, 54, 100
12, 31681, Note_off_c, 9, 70, 64
12, 31681, Note_off_c, 9, 54, 57
12, 31681, Note_on_c, 9, 38, 106
12, 31681, Note_on_c, 9, 42, 114
12, 31682, Note_off_c, 9, 38, 64
12, 31682, Note_off_c, 9, 42, 64
12, 31777, Note_on_c, 9, 42, 66
12, 31778, Note_off_c, 9, 42, 64
12, 31872, Note_on_c, 9, 36, 114
12, 31872, Note_on_c, 9, 70, 82
12, 31873, Note_off_c, 9, 36, 64
12, 31873, Note_off_c, 9, 70, 64
12, 31873, Note_on_c, 9, 42, 114
12, 31874, Note_off_c, 9, 42, 64
12, 31968, Note_on_c, 9, 70, 66
12, 31969, Note_off_c, 9, 70, 64
12, 31969, Note_on_c, 9, 42, 66
12, 31970, Note_off_c, 9, 42, 64
12, 32064, Note_on_c, 9, 70, 66
12, 32064, Note_on_c, 9, 54, 100
12, 32065, Note_off_c, 9, 70, 64
12, 32065, Note_off_c, 9, 54, 57
12, 32065, Note_on_c, 9, 38, 106
12, 32065, Note_on_c, 9, 42, 114
12, 32066, Note_off_c, 9, 38, 64
12, 32066, Note_off_c, 9, 42, 64
12, 32160, Note_on_c, 9, 36, 114
12, 32161, Note_off_c, 9, 36, 64
12, 32161, Note_on_c, 9, 42, 66
12, 32162, Note_off_c, 9, 42, 64
12, 32256, Note_on_c, 9, 36, 114
12, 32256, Note_on_c, 9, 70, 82
12, 32257, Note_off_c, 9, 36, 64
12, 32257, Note_off_c, 9, 70, 64
12, 32257, Note_on_c, 9, 42, 114
12, 32258, Note_off_c, 9, 42, 64
12, 32304, Note_on_c, 9, 36, 114
12, 32305, Note_off_c, 9, 36, 64
12, 32305, Note_on_c, 9, 42, 66
12, 32306, Note_off_c, 9, 42, 64
12, 32352, Note_on_c, 9, 70, 66
12, 32353, Note_off_c, 9, 70, 64
12, 32353, Note_on_c, 9, 42, 66
12, 32354, Note_off_c, 9, 42, 64
12, 32448, Note_on_c, 9, 38, 106
12, 32448, Note_on_c, 9, 42, 114
12, 32448, Note_on_c, 9, 70, 66
12, 32448, Note_on_c, 9, 54, 100
12, 32449, Note_off_c, 9, 38, 64
12, 32449, Note_off_c, 9, 42, 64
12, 32449, Note_off_c, 9, 70, 64
12, 32449, Note_off_c, 9, 54, 57
12, 32545, Note_on_c, 9, 42, 66
12, 32546, Note_off_c, 9, 42, 64
12, 32640, Note_on_c, 9, 36, 114
12, 32640, Note_on_c, 9, 70, 82
12, 32641, Note_off_c, 9, 36, 64
12, 32641, Note_off_c, 9, 70, 64
12, 32641, Note_on_c, 9, 42, 114
12, 32642, Note_off_c, 9, 42, 64
12, 32736, Note_on_c, 9, 70, 66
12, 32737, Note_off_c, 9, 70, 64
12, 32737, Note_on_c, 9, 42, 66
12, 32738, Note_off_c, 9, 42, 64
12, 32832, Note_on_c, 9, 70, 66
12, 32832, Note_on_c, 9, 54, 100
12, 32833, Note_off_c, 9, 70, 64
12, 32833, Note_off_c, 9, 54, 57
12, 32833, Note_on_c, 9, 38, 106
12, 32833, Note_on_c, 9, 42, 114
12, 32833, Note_on_c, 9, 45, 110
12, 32833, Note_on_c, 9, 41, 110
12, 32834, Note_off_c, 9, 38, 64
12, 32834, Note_off_c, 9, 42, 64
12, 32834, Note_off_c, 9, 45, 64
12, 32834, Note_off_c, 9, 41, 64
12, 32881, Note_on_c, 9, 45, 110
12, 32881, Note_on_c, 9, 41, 110
12, 32882, Note_off_c, 9, 45, 64
12, 32882, Note_off_c, 9, 41, 64
12, 32928, Note_on_c, 9, 42, 66
12, 32928, Note_on_c, 9, 45, 110
12, 32928, Note_on_c, 9, 41, 110
12, 32929, Note_off_c, 9, 42, 64
12, 32929, Note_off_c, 9, 45, 64
12, 32929, Note_off_c, 9, 41, 64
12, 32977, Note_on_c, 9, 45, 110
12, 32977, Note_on_c, 9, 41, 110
12, 32978, Note_off_c, 9, 45, 64
12, 32978, Note_off_c, 9, 41, 64
12, 33024, Note_on_c, 9, 36, 114
12, 33024, Note_on_c, 9, 70, 82
12, 33025, Note_off_c, 9, 36, 64
12, 33025, Note_off_c, 9, 70, 64
12, 33025, Note_on_c, 9, 42, 114
12, 33026, Note_off_c, 9, 42, 64
12, 33072, Note_on_c, 9, 36, 114
12, 33073, Note_off_c, 9, 36, 64
12, 33073, Note_on_c, 9, 42, 66
12, 33074, Note_off_c, 9, 42, 64
12, 33120, Note_on_c, 9, 70, 66
12, 33121, Note_off_c, 9, 70, 64
12, 33121, Note_on_c, 9, 42, 66
12, 33122, Note_off_c, 9, 42, 64
12, 33216, Note_on_c, 9, 70, 66
12, 33216, Note_on_c, 9, 54, 100
12, 33217, Note_off_c, 9, 70, 64
12, 33217, Note_off_c, 9, 54, 57
12, 33217, Note_on_c, 9, 38, 106
12, 33217, Note_on_c, 9, 42, 114
12, 33218, Note_off_c, 9, 38, 64
12, 33218, Note_off_c, 9, 42, 64
12, 33313, Note_on_c, 9, 42, 66
12, 33314, Note_off_c, 9, 42, 64
12, 33408, Note_on_c, 9, 36, 114
12, 33408, Note_on_c, 9, 70, 82
12, 33409, Note_off_c, 9, 36, 64
12, 33409, Note_off_c, 9, 70, 64
12, 33409, Note_on_c, 9, 42, 114
12, 33410, Note_off_c, 9, 42, 64
12, 33504, Note_on_c, 9, 70, 66
12, 33505, Note_off_c, 9, 70, 64
12, 33505, Note_on_c, 9, 42, 66
12, 33506, Note_off_c, 9, 42, 64
12, 33600, Note_on_c, 9, 70, 66
12, 33600, Note_on_c, 9, 54, 100
12, 33601, Note_off_c, 9, 70, 64
12, 33601, Note_off_c, 9, 54, 57
12, 33601, Note_on_c, 9, 38, 106
12, 33601, Note_on_c, 9, 42, 114
12, 33602, Note_off_c, 9, 38, 64
12, 33602, Note_off_c, 9, 42, 64
12, 33696, Note_on_c, 9, 36, 114
12, 33697, Note_off_c, 9, 36, 64
12, 33697, Note_on_c, 9, 42, 66
12, 33698, Note_off_c, 9, 42, 64
12, 33792, Note_on_c, 9, 36, 114
12, 33792, Note_on_c, 9, 70, 82
12, 33793, Note_off_c, 9, 36, 64
12, 33793, Note_off_c, 9, 70, 64
12, 33793, Note_on_c, 9, 42, 114
12, 33794, Note_off_c, 9, 42, 64
12, 33840, Note_on_c, 9, 36, 114
12, 33841, Note_off_c, 9, 36, 64
12, 33841, Note_on_c, 9, 42, 66
12, 33842, Note_off_c, 9, 42, 64
12, 33888, Note_on_c, 9, 70, 66
12, 33889, Note_off_c, 9, 70, 64
12, 33889, Note_on_c, 9, 42, 66
12, 33890, Note_off_c, 9, 42, 64
12, 33984, Note_on_c, 9, 70, 66
12, 33984, Note_on_c, 9, 54, 100
12, 33985, Note_off_c, 9, 70, 64
12, 33985, Note_off_c, 9, 54, 57
12, 33985, Note_on_c, 9, 38, 106
12, 33985, Note_on_c, 9, 42, 114
12, 33986, Note_off_c, 9, 38, 64
12, 33986, Note_off_c, 9, 42, 64
12, 34081, Note_on_c, 9, 42, 66
12, 34082, Note_off_c, 9, 42, 64
12, 34176, Note_on_c, 9, 36, 114
12, 34176, Note_on_c, 9, 70, 82
12, 34177, Note_off_c, 9, 36, 64
12, 34177, Note_off_c, 9, 70, 64
12, 34177, Note_on_c, 9, 42, 114
12, 34178, Note_off_c, 9, 42, 64
12, 34272, Note_on_c, 9, 70, 66
12, 34273, Note_off_c, 9, 70, 64
12, 34273, Note_on_c, 9, 42, 66
12, 34274, Note_off_c, 9, 42, 64
12, 34368, Note_on_c, 9, 70, 66
12, 34368, Note_on_c, 9, 54, 100
12, 34369, Note_off_c, 9, 70, 64
12, 34369, Note_off_c, 9, 54, 57
12, 34369, Note_on_c, 9, 38, 106
12, 34369, Note_on_c, 9, 42, 114
12, 34370, Note_off_c, 9, 38, 64
12, 34370, Note_off_c, 9, 42, 64
12, 34465, Note_on_c, 9, 42, 66
12, 34465, Note_on_c, 9, 45, 110
12, 34465, Note_on_c, 9, 41, 110
12, 34466, Note_off_c, 9, 42, 64
12, 34466, Note_off_c, 9, 45, 64
12, 34466, Note_off_c, 9, 41, 64
12, 34513, Note_on_c, 9, 45, 110
12, 34513, Note_on_c, 9, 41, 110
12, 34514, Note_off_c, 9, 45, 64
12, 34514, Note_off_c, 9, 41, 64
12, 34560, Note_on_c, 9, 36, 114
12, 34560, Note_on_c, 9, 70, 82
12, 34561, Note_off_c, 9, 36, 64
12, 34561, Note_off_c, 9, 70, 64
12, 34561, Note_on_c, 9, 42, 114
12, 34562, Note_off_c, 9, 42, 64
12, 34608, Note_on_c, 9, 36, 114
12, 34609, Note_off_c, 9, 36, 64
12, 34609, Note_on_c, 9, 42, 66
12, 34609, Note_on_c, 9, 41, 110
12, 34610, Note_off_c, 9, 42, 64
12, 34610, Note_off_c, 9, 41, 64
12, 34656, Note_on_c, 9, 36, 114
12, 34656, Note_on_c, 9, 70, 66
12, 34657, Note_off_c, 9, 36, 64
12, 34657, Note_off_c, 9, 70, 64
12, 34657, Note_on_c, 9, 42, 66
12, 34657, Note_on_c, 9, 41, 110
12, 34658, Note_off_c, 9, 42, 64
12, 34658, Note_off_c, 9, 41, 64
12, 34704, Note_on_c, 9, 36, 114
12, 34705, Note_off_c, 9, 36, 64
12, 34752, Note_on_c, 9, 70, 66
12, 34752, Note_on_c, 9, 54, 100
12, 34753, Note_off_c, 9, 70, 64
12, 34753, Note_off_c, 9, 54, 57
12, 34753, Note_on_c, 9, 38, 106
12, 34753, Note_on_c, 9, 42, 114
12, 34754, Note_off_c, 9, 38, 64
12, 34754, Note_off_c, 9, 42, 64
12, 34850, Note_on_c, 9, 42, 66
12, 34851, Note_off_c, 9, 42, 64
12, 34944, Note_on_c, 9, 36, 114
12, 34944, Note_on_c, 9, 70, 82
12, 34945, Note_off_c, 9, 36, 64
12, 34945, Note_off_c, 9, 70, 64
12, 34945, Note_on_c, 9, 42, 114
12, 34946, Note_off_c, 9, 42, 64
12, 35040, Note_on_c, 9, 70, 66
12, 35041, Note_off_c, 9, 70, 64
12, 35041, Note_on_c, 9, 42, 66
12, 35042, Note_off_c, 9, 42, 64
12, 35136, Note_on_c, 9, 70, 66
12, 35136, Note_on_c, 9, 54, 100
12, 35137, Note_off_c, 9, 70, 64
12, 35137, Note_off_c, 9, 54, 57
12, 35137, Note_on_c, 9, 38, 106
12, 35137, Note_on_c, 9, 42, 114
12, 35138, Note_off_c, 9, 38, 64
12, 35138, Note_off_c, 9, 42, 64
12, 35232, Note_on_c, 9, 36, 114
12, 35233, Note_off_c, 9, 36, 64
12, 35233, Note_on_c, 9, 42, 66
12, 35234, Note_off_c, 9, 42, 64
12, 35328, Note_on_c, 9, 36, 114
12, 35328, Note_on_c, 9, 70, 82
12, 35329, Note_off_c, 9, 36, 64
12, 35329, Note_off_c, 9, 70, 64
12, 35329, Note_on_c, 9, 42, 114
12, 35330, Note_off_c, 9, 42, 64
12, 35376, Note_on_c, 9, 36, 114
12, 35376, Note_on_c, 9, 42, 66
12, 35377, Note_off_c, 9, 36, 64
12, 35377, Note_off_c, 9, 42, 64
12, 35424, Note_on_c, 9, 70, 66
12, 35425, Note_off_c, 9, 70, 64
12, 35425, Note_on_c, 9, 42, 66
12, 35426, Note_off_c, 9, 42, 64
12, 35520, Note_on_c, 9, 70, 66
12, 35520, Note_on_c, 9, 54, 100
12, 35521, Note_off_c, 9, 70, 64
12, 35521, Note_off_c, 9, 54, 57
12, 35521, Note_on_c, 9, 38, 106
12, 35521, Note_on_c, 9, 42, 114
12, 35522, Note_off_c, 9, 38, 64
12, 35522, Note_off_c, 9, 42, 64
12, 35617, Note_on_c, 9, 42, 66
12, 35618, Note_off_c, 9, 42, 64
12, 35712, Note_on_c, 9, 36, 114
12, 35712, Note_on_c, 9, 70, 82
12, 35713, Note_off_c, 9, 36, 64
12, 35713, Note_off_c, 9, 70, 64
12, 35713, Note_on_c, 9, 42, 114
12, 35713, Note_on_c, 9, 41, 110
12, 35714, Note_off_c, 9, 42, 64
12, 35714, Note_off_c, 9, 41, 64
12, 35761, Note_on_c, 9, 41, 110
12, 35762, Note_off_c, 9, 41, 64
12, 35808, Note_on_c, 9, 70, 66
12, 35809, Note_off_c, 9, 70, 64
12, 35809, Note_on_c, 9, 42, 66
12, 35809, Note_on_c, 9, 41, 110
12, 35810, Note_off_c, 9, 42, 64
12, 35810, Note_off_c, 9, 41, 64
12, 35904, Note_on_c, 9, 70, 66
12, 35904, Note_on_c, 9, 54, 100
12, 35905, Note_off_c, 9, 70, 64
12, 35905, Note_off_c, 9, 54, 57
12, 35905, Note_on_c, 9, 38, 106
12, 35905, Note_on_c, 9, 42, 114
12, 35906, Note_off_c, 9, 38, 64
12, 35906, Note_off_c, 9, 42, 64
12, 35953, Note_on_c, 9, 41, 110
12, 35954, Note_off_c, 9, 41, 64
12, 36001, Note_on_c, 9, 42, 66
12, 36001, Note_on_c, 9, 41, 110
12, 36002, Note_off_c, 9, 42, 64
12, 36002, Note_off_c, 9, 41, 64
12, 36096, Note_on_c, 9, 36, 114
12, 36096, Note_on_c, 9, 70, 82
12, 36097, Note_off_c, 9, 36, 64
12, 36097, Note_off_c, 9, 70, 64
12, 36098, Note_on_c, 9, 42, 114
12, 36099, Note_off_c, 9, 42, 64
12, 36144, Note_on_c, 9, 36, 114
12, 36145, Note_off_c, 9, 36, 64
12, 36145, Note_on_c, 9, 42, 66
12, 36146, Note_off_c, 9, 42, 64
12, 36192, Note_on_c, 9, 70, 66
12, 36193, Note_off_c, 9, 70, 64
12, 36193, Note_on_c, 9, 42, 66
12, 36194, Note_off_c, 9, 42, 64
12, 36288, Note_on_c, 9, 70, 66
12, 36288, Note_on_c, 9, 54, 100
12, 36289, Note_off_c, 9, 70, 64
12, 36289, Note_off_c, 9, 54, 57
12, 36289, Note_on_c, 9, 38, 106
12, 36289, Note_on_c, 9, 42, 114
12, 36290, Note_off_c, 9, 38, 64
12, 36290, Note_off_c, 9, 42, 64
12, 36385, Note_on_c, 9, 42, 66
12, 36386, Note_off_c, 9, 42, 64
12, 36480, Note_on_c, 9, 36, 114
12, 36480, Note_on_c, 9, 70, 82
12, 36481, Note_off_c, 9, 36, 64
12, 36481, Note_off_c, 9, 70, 64
12, 36481, Note_on_c, 9, 42, 114
12, 36482, Note_off_c, 9, 42, 64
12, 36576, Note_on_c, 9, 42, 66
12, 36576, Note_on_c, 9, 70, 66
12, 36577, Note_off_c, 9, 42, 64
12, 36577, Note_off_c, 9, 70, 64
12, 36672, Note_on_c, 9, 70, 66
12, 36672, Note_on_c, 9, 54, 100
12, 36673, Note_off_c, 9, 70, 64
12, 36673, Note_off_c, 9, 54, 57
12, 36673, Note_on_c, 9, 38, 106
12, 36673, Note_on_c, 9, 42, 114
12, 36674, Note_off_c, 9, 38, 64
12, 36674, Note_off_c, 9, 42, 64
12, 36768, Note_on_c, 9, 36, 114
12, 36769, Note_off_c, 9, 36, 64
12, 36769, Note_on_c, 9, 42, 66
12, 36770, Note_off_c, 9, 42, 64
12, 36864, Note_on_c, 9, 36, 114
12, 36864, Note_on_c, 9, 70, 82
12, 36865, Note_off_c, 9, 36, 64
12, 36865, Note_off_c, 9, 70, 64
12, 36865, Note_on_c, 9, 42, 114
12, 36866, Note_off_c, 9, 42, 64
12, 36912, Note_on_c, 9, 36, 114
12, 36913, Note_off_c, 9, 36, 64
12, 36913, Note_on_c, 9, 42, 66
12, 36914, Note_off_c, 9, 42, 64
12, 36960, Note_on_c, 9, 70, 66
12, 36961, Note_off_c, 9, 70, 64
12, 36962, Note_on_c, 9, 42, 66
12, 36963, Note_off_c, 9, 42, 64
12, 37056, Note_on_c, 9, 70, 66
12, 37056, Note_on_c, 9, 54, 100
12, 37057, Note_off_c, 9, 70, 64
12, 37057, Note_off_c, 9, 54, 57
12, 37057, Note_on_c, 9, 38, 106
12, 37057, Note_on_c, 9, 42, 114
12, 37058, Note_off_c, 9, 38, 64
12, 37058, Note_off_c, 9, 42, 64
12, 37153, Note_on_c, 9, 42, 66
12, 37154, Note_off_c, 9, 42, 64
12, 37248, Note_on_c, 9, 36, 114
12, 37248, Note_on_c, 9, 70, 82
12, 37249, Note_off_c, 9, 36, 64
12, 37249, Note_off_c, 9, 70, 64
12, 37249, Note_on_c, 9, 42, 114
12, 37250, Note_off_c, 9, 42, 64
12, 37297, Note_on_c, 9, 41, 110
12, 37298, Note_off_c, 9, 41, 64
12, 37344, Note_on_c, 9, 70, 66
12, 37345, Note_off_c, 9, 70, 64
12, 37345, Note_on_c, 9, 42, 66
12, 37346, Note_off_c, 9, 42, 64
12, 37394, Note_on_c, 9, 41, 110
12, 37395, Note_off_c, 9, 41, 64
12, 37440, Note_on_c, 9, 38, 106
12, 37440, Note_on_c, 9, 42, 114
12, 37440, Note_on_c, 9, 70, 66
12, 37440, Note_on_c, 9, 54, 100
12, 37441, Note_off_c, 9, 38, 64
12, 37441, Note_off_c, 9, 42, 64
12, 37441, Note_off_c, 9, 70, 64
12, 37441, Note_off_c, 9, 54, 57
12, 37489, Note_on_c, 9, 41, 110
12, 37490, Note_off_c, 9, 41, 64
12, 37537, Note_on_c, 9, 42, 66
12, 37537, Note_on_c, 9, 41, 110
12, 37538, Note_off_c, 9, 42, 64
12, 37538, Note_off_c, 9, 41, 64
12, 37632, Note_on_c, 9, 36, 114
12, 37632, Note_on_c, 9, 49, 101
12, 37632, Note_on_c, 9, 70, 82
12, 37633, Note_off_c, 9, 36, 64
12, 37633, Note_off_c, 9, 49, 64
12, 37633, Note_off_c, 9, 70, 64
12, 37634, Note_on_c, 9, 42, 114
12, 37635, Note_off_c, 9, 42, 64
12, 37680, Note_on_c, 9, 36, 114
12, 37681, Note_off_c, 9, 36, 64
12, 37681, Note_on_c, 9, 42, 66
12, 37682, Note_off_c, 9, 42, 64
12, 37728, Note_on_c, 9, 70, 66
12, 37729, Note_off_c, 9, 70, 64
12, 37729, Note_on_c, 9, 42, 66
12, 37730, Note_off_c, 9, 42, 64
12, 37824, Note_on_c, 9, 38, 106
12, 37824, Note_on_c, 9, 42, 114
12, 37824, Note_on_c, 9, 70, 66
12, 37824, Note_on_c, 9, 54, 100
12, 37825, Note_off_c, 9, 38, 64
12, 37825, Note_off_c, 9, 42, 64
12, 37825, Note_off_c, 9, 70, 64
12, 37825, Note_off_c, 9, 54, 57
12, 37921, Note_on_c, 9, 42, 66
12, 37922, Note_off_c, 9, 42, 64
12, 38016, Note_on_c, 9, 36, 114
12, 38016, Note_on_c, 9, 70, 82
12, 38017, Note_off_c, 9, 36, 64
12, 38017, Note_off_c, 9, 70, 64
12, 38017, Note_on_c, 9, 42, 114
12, 38018, Note_off_c, 9, 42, 64
12, 38112, Note_on_c, 9, 70, 66
12, 38113, Note_off_c, 9, 70, 64
12, 38113, Note_on_c, 9, 42, 66
12, 38114, Note_off_c, 9, 42, 64
12, 38208, Note_on_c, 9, 70, 66
12, 38208, Note_on_c, 9, 54, 100
12, 38209, Note_off_c, 9, 70, 64
12, 38209, Note_off_c, 9, 54, 57
12, 38209, Note_on_c, 9, 38, 106
12, 38209, Note_on_c, 9, 42, 114
12, 38210, Note_off_c, 9, 38, 64
12, 38210, Note_off_c, 9, 42, 64
12, 38304, Note_on_c, 9, 36, 114
12, 38305, Note_off_c, 9, 36, 64
12, 38305, Note_on_c, 9, 42, 66
12, 38306, Note_off_c, 9, 42, 64
12, 38400, Note_on_c, 9, 36, 114
12, 38400, Note_on_c, 9, 70, 82
12, 38401, Note_off_c, 9, 36, 64
12, 38401, Note_off_c, 9, 70, 64
12, 38401, Note_on_c, 9, 42, 114
12, 38402, Note_off_c, 9, 42, 64
12, 38448, Note_on_c, 9, 36, 114
12, 38449, Note_off_c, 9, 36, 64
12, 38449, Note_on_c, 9, 42, 66
12, 38450, Note_off_c, 9, 42, 64
12, 38496, Note_on_c, 9, 70, 66
12, 38497, Note_off_c, 9, 70, 64
12, 38497, Note_on_c, 9, 42, 66
12, 38498, Note_off_c, 9, 42, 64
12, 38592, Note_on_c, 9, 70, 66
12, 38592, Note_on_c, 9, 54, 100
12, 38593, Note_off_c, 9, 70, 64
12, 38593, Note_off_c, 9, 54, 57
12, 38593, Note_on_c, 9, 38, 106
12, 38593, Note_on_c, 9, 42, 114
12, 38594, Note_off_c, 9, 38, 64
12, 38594, Note_off_c, 9, 42, 64
12, 38689, Note_on_c, 9, 42, 66
12, 38690, Note_off_c, 9, 42, 64
12, 38784, Note_on_c, 9, 36, 114
12, 38784, Note_on_c, 9, 70, 82
12, 38785, Note_off_c, 9, 36, 64
12, 38785, Note_off_c, 9, 70, 64
12, 38785, Note_on_c, 9, 42, 114
12, 38786, Note_off_c, 9, 42, 64
12, 38880, Note_on_c, 9, 70, 66
12, 38881, Note_off_c, 9, 70, 64
12, 38881, Note_on_c, 9, 42, 66
12, 38882, Note_off_c, 9, 42, 64
12, 38976, Note_on_c, 9, 70, 66
12, 38976, Note_on_c, 9, 54, 100
12, 38977, Note_off_c, 9, 70, 64
12, 38977, Note_off_c, 9, 54, 57
12, 38977, Note_on_c, 9, 38, 106
12, 38977, Note_on_c, 9, 42, 114
12, 38978, Note_off_c, 9, 38, 64
12, 38978, Note_off_c, 9, 42, 64
12, 39073, Note_on_c, 9, 42, 66
12, 39073, Note_on_c, 9, 45, 110
12, 39073, Note_on_c, 9, 41, 110
12, 39074, Note_off_c, 9, 42, 64
12, 39074, Note_off_c, 9, 45, 64
12, 39074, Note_off_c, 9, 41, 64
12, 39167, Note_on_c, 9, 49, 101
12, 39168, Note_off_c, 9, 49, 64
12, 39168, Note_on_c, 9, 36, 114
12, 39168, Note_on_c, 9, 70, 82
12, 39169, Note_off_c, 9, 36, 64
12, 39169, Note_off_c, 9, 70, 64
12, 39169, Note_on_c, 9, 42, 114
12, 39170, Note_off_c, 9, 42, 64
12, 39216, Note_on_c, 9, 36, 114
12, 39217, Note_off_c, 9, 36, 64
12, 39217, Note_on_c, 9, 42, 66
12, 39218, Note_off_c, 9, 42, 64
12, 39264, Note_on_c, 9, 70, 66
12, 39265, Note_off_c, 9, 70, 64
12, 39265, Note_on_c, 9, 42, 66
12, 39266, Note_off_c, 9, 42, 64
12, 39360, Note_on_c, 9, 70, 66
12, 39360, Note_on_c, 9, 54, 100
12, 39361, Note_off_c, 9, 70, 64
12, 39361, Note_off_c, 9, 54, 57
12, 39361, Note_on_c, 9, 38, 106
12, 39361, Note_on_c, 9, 42, 114
12, 39362, Note_off_c, 9, 38, 64
12, 39362, Note_off_c, 9, 42, 64
12, 39457, Note_on_c, 9, 42, 66
12, 39458, Note_off_c, 9, 42, 64
12, 39552, Note_on_c, 9, 36, 114
12, 39552, Note_on_c, 9, 70, 82
12, 39553, Note_off_c, 9, 36, 64
12, 39553, Note_off_c, 9, 70, 64
12, 39553, Note_on_c, 9, 42, 114
12, 39554, Note_off_c, 9, 42, 64
12, 39648, Note_on_c, 9, 70, 66
12, 39649, Note_off_c, 9, 70, 64
12, 39649, Note_on_c, 9, 42, 66
12, 39650, Note_off_c, 9, 42, 64
12, 39744, Note_on_c, 9, 70, 66
12, 39744, Note_on_c, 9, 54, 100
12, 39745, Note_off_c, 9, 70, 64
12, 39745, Note_off_c, 9, 54, 57
12, 39745, Note_on_c, 9, 38, 106
12, 39745, Note_on_c, 9, 42, 114
12, 39746, Note_off_c, 9, 38, 64
12, 39746, Note_off_c, 9, 42, 64
12, 39840, Note_on_c, 9, 36, 114
12, 39841, Note_off_c, 9, 36, 64
12, 39841, Note_on_c, 9, 42, 66
12, 39842, Note_off_c, 9, 42, 64
12, 39936, Note_on_c, 9, 36, 114
12, 39936, Note_on_c, 9, 70, 82
12, 39937, Note_off_c, 9, 36, 64
12, 39937, Note_off_c, 9, 70, 64
12, 39937, Note_on_c, 9, 42, 114
12, 39938, Note_off_c, 9, 42, 64
12, 39984, Note_on_c, 9, 36, 114
12, 39985, Note_off_c, 9, 36, 64
12, 39985, Note_on_c, 9, 42, 66
12, 39986, Note_off_c, 9, 42, 64
12, 40032, Note_on_c, 9, 70, 66
12, 40033, Note_off_c, 9, 70, 64
12, 40033, Note_on_c, 9, 42, 66
12, 40034, Note_off_c, 9, 42, 64
12, 40128, Note_on_c, 9, 70, 66
12, 40128, Note_on_c, 9, 54, 100
12, 40129, Note_off_c, 9, 70, 64
12, 40129, Note_off_c, 9, 54, 57
12, 40129, Note_on_c, 9, 38, 106
12, 40129, Note_on_c, 9, 42, 114
12, 40130, Note_off_c, 9, 38, 64
12, 40130, Note_off_c, 9, 42, 64
12, 40225, Note_on_c, 9, 42, 66
12, 40226, Note_off_c, 9, 42, 64
12, 40320, Note_on_c, 9, 36, 114
12, 40320, Note_on_c, 9, 42, 114
12, 40320, Note_on_c, 9, 70, 82
12, 40321, Note_off_c, 9, 36, 64
12, 40321, Note_off_c, 9, 42, 64
12, 40321, Note_off_c, 9, 70, 64
12, 40416, Note_on_c, 9, 70, 66
12, 40417, Note_off_c, 9, 70, 64
12, 40417, Note_on_c, 9, 42, 66
12, 40418, Note_off_c, 9, 42, 64
12, 40512, Note_on_c, 9, 70, 66
12, 40512, Note_on_c, 9, 54, 100
12, 40513, Note_off_c, 9, 70, 64
12, 40513, Note_off_c, 9, 54, 57
12, 40513, Note_on_c, 9, 38, 106
12, 40513, Note_on_c, 9, 42, 114
12, 40514, Note_off_c, 9, 38, 64
12, 40514, Note_off_c, 9, 42, 64
12, 40561, Note_on_c, 9, 45, 110
12, 40561, Note_on_c, 9, 41, 110
12, 40562, Note_off_c, 9, 45, 64
12, 40562, Note_off_c, 9, 41, 64
12, 40609, Note_on_c, 9, 42, 66
12, 40610, Note_off_c, 9, 42, 64
12, 40657, Note_on_c, 9, 45, 110
12, 40657, Note_on_c, 9, 41, 110
12, 40658, Note_off_c, 9, 45, 64
12, 40658, Note_off_c, 9, 41, 64
12, 40703, Note_on_c, 9, 49, 101
12, 40704, Note_off_c, 9, 49, 64
12, 40704, Note_on_c, 9, 36, 114
12, 40704, Note_on_c, 9, 70, 82
12, 40705, Note_off_c, 9, 36, 64
12, 40705, Note_off_c, 9, 70, 64
12, 40705, Note_on_c, 9, 42, 114
12, 40706, Note_off_c, 9, 42, 64
12, 40752, Note_on_c, 9, 36, 114
12, 40753, Note_off_c, 9, 36, 64
12, 40753, Note_on_c, 9, 42, 66
12, 40754, Note_off_c, 9, 42, 64
12, 40800, Note_on_c, 9, 70, 66
12, 40801, Note_off_c, 9, 70, 64
12, 40801, Note_on_c, 9, 42, 66
12, 40802, Note_off_c, 9, 42, 64
12, 40896, Note_on_c, 9, 70, 66
12, 40896, Note_on_c, 9, 54, 100
12, 40897, Note_off_c, 9, 70, 64
12, 40897, Note_off_c, 9, 54, 57
12, 40897, Note_on_c, 9, 38, 106
12, 40897, Note_on_c, 9, 42, 114
12, 40898, Note_off_c, 9, 38, 64
12, 40898, Note_off_c, 9, 42, 64
12, 40993, Note_on_c, 9, 42, 66
12, 40994, Note_off_c, 9, 42, 64
12, 41088, Note_on_c, 9, 36, 114
12, 41088, Note_on_c, 9, 70, 82
12, 41089, Note_off_c, 9, 36, 64
12, 41089, Note_off_c, 9, 70, 64
12, 41089, Note_on_c, 9, 42, 114
12, 41090, Note_off_c, 9, 42, 64
12, 41184, Note_on_c, 9, 70, 66
12, 41185, Note_off_c, 9, 70, 64
12, 41185, Note_on_c, 9, 42, 66
12, 41186, Note_off_c, 9, 42, 64
12, 41280, Note_on_c, 9, 70, 66
12, 41280, Note_on_c, 9, 54, 100
12, 41281, Note_off_c, 9, 70, 64
12, 41281, Note_off_c, 9, 54, 57
12, 41281, Note_on_c, 9, 38, 106
12, 41281, Note_on_c, 9, 42, 114
12, 41282, Note_off_c, 9, 38, 64
12, 41282, Note_off_c, 9, 42, 64
12, 41376, Note_on_c, 9, 36, 114
12, 41377, Note_off_c, 9, 36, 64
12, 41377, Note_on_c, 9, 42, 66
12, 41378, Note_off_c, 9, 42, 64
12, 41472, Note_on_c, 9, 36, 114
12, 41472, Note_on_c, 9, 70, 82
12, 41473, Note_off_c, 9, 36, 64
12, 41473, Note_off_c, 9, 70, 64
12, 41473, Note_on_c, 9, 42, 114
12, 41474, Note_off_c, 9, 42, 64
12, 41520, Note_on_c, 9, 36, 114
12, 41520, Note_on_c, 9, 42, 66
12, 41521, Note_off_c, 9, 36, 64
12, 41521, Note_off_c, 9, 42, 64
12, 41568, Note_on_c, 9, 70, 66
12, 41569, Note_off_c, 9, 70, 64
12, 41569, Note_on_c, 9, 42, 66
12, 41570, Note_off_c, 9, 42, 64
12, 41664, Note_on_c, 9, 70, 66
12, 41664, Note_on_c, 9, 54, 100
12, 41665, Note_off_c, 9, 70, 64
12, 41665, Note_off_c, 9, 54, 57
12, 41665, Note_on_c, 9, 38, 106
12, 41665, Note_on_c, 9, 42, 114
12, 41666, Note_off_c, 9, 38, 64
12, 41666, Note_off_c, 9, 42, 64
12, 41761, Note_on_c, 9, 42, 66
12, 41762, Note_off_c, 9, 42, 64
12, 41856, Note_on_c, 9, 36, 114
12, 41856, Note_on_c, 9, 70, 82
12, 41857, Note_off_c, 9, 36, 64
12, 41857, Note_off_c, 9, 70, 64
12, 41857, Note_on_c, 9, 42, 114
12, 41858, Note_off_c, 9, 42, 64
12, 41952, Note_on_c, 9, 70, 66
12, 41953, Note_off_c, 9, 70, 64
12, 41953, Note_on_c, 9, 42, 66
12, 41954, Note_off_c, 9, 42, 64
12, 42048, Note_on_c, 9, 70, 66
12, 42048, Note_on_c, 9, 54, 100
12, 42049, Note_off_c, 9, 70, 64
12, 42049, Note_off_c, 9, 54, 57
12, 42049, Note_on_c, 9, 38, 106
12, 42049, Note_on_c, 9, 42, 114
12, 42050, Note_off_c, 9, 38, 64
12, 42050, Note_off_c, 9, 42, 64
12, 42145, Note_on_c, 9, 42, 66
12, 42146, Note_off_c, 9, 42, 64
12, 42240, Note_on_c, 9, 36, 114
12, 42240, Note_on_c, 9, 49, 101
12, 42240, Note_on_c, 9, 70, 82
12, 42241, Note_off_c, 9, 36, 64
12, 42241, Note_off_c, 9, 49, 64
12, 42241, Note_off_c, 9, 70, 64
12, 42242, Note_on_c, 9, 42, 114
12, 42243, Note_off_c, 9, 42, 64
12, 42288, Note_on_c, 9, 36, 114
12, 42289, Note_off_c, 9, 36, 64
12, 42289, Note_on_c, 9, 42, 66
12, 42290, Note_off_c, 9, 42, 64
12, 42336, Note_on_c, 9, 70, 66
12, 42337, Note_off_c, 9, 70, 64
12, 42337, Note_on_c, 9, 42, 66
12, 42338, Note_off_c, 9, 42, 64
12, 42432, Note_on_c, 9, 70, 66
12, 42432, Note_on_c, 9, 54, 100
12, 42433, Note_off_c, 9, 70, 64
12, 42433, Note_off_c, 9, 54, 57
12, 42433, Note_on_c, 9, 38, 106
12, 42433, Note_on_c, 9, 42, 114
12, 42434, Note_off_c, 9, 38, 64
12, 42434, Note_off_c, 9, 42, 64
12, 42529, Note_on_c, 9, 42, 66
12, 42530, Note_off_c, 9, 42, 64
12, 42624, Note_on_c, 9, 36, 114
12, 42624, Note_on_c, 9, 70, 82
12, 42625, Note_off_c, 9, 36, 64
12, 42625, Note_off_c, 9, 70, 64
12, 42625, Note_on_c, 9, 42, 114
12, 42626, Note_off_c, 9, 42, 64
12, 42720, Note_on_c, 9, 70, 66
12, 42721, Note_off_c, 9, 70, 64
12, 42721, Note_on_c, 9, 42, 66
12, 42722, Note_off_c, 9, 42, 64
12, 42816, Note_on_c, 9, 70, 66
12, 42816, Note_on_c, 9, 54, 100
12, 42817, Note_off_c, 9, 70, 64
12, 42817, Note_off_c, 9, 54, 57
12, 42817, Note_on_c, 9, 38, 106
12, 42817, Note_on_c, 9, 42, 114
12, 42818, Note_off_c, 9, 38, 64
12, 42818, Note_off_c, 9, 42, 64
12, 42912, Note_on_c, 9, 36, 114
12, 42913, Note_off_c, 9, 36, 64
12, 42913, Note_on_c, 9, 42, 66
12, 42914, Note_off_c, 9, 42, 64
12, 43008, Note_on_c, 9, 36, 114
12, 43009, Note_off_c, 9, 36, 64
12, 43009, Note_on_c, 9, 38, 106
12, 43009, Note_on_c, 9, 42, 114
12, 43009, Note_on_c, 9, 41, 110
12, 43010, Note_off_c, 9, 38, 64
12, 43010, Note_off_c, 9, 42, 64
12, 43010, Note_off_c, 9, 41, 64
12, 43056, Note_on_c, 9, 36, 114
12, 43057, Note_off_c, 9, 36, 64
12, 43057, Note_on_c, 9, 38, 106
12, 43057, Note_on_c, 9, 42, 66
12, 43057, Note_on_c, 9, 41, 110
12, 43058, Note_off_c, 9, 38, 64
12, 43058, Note_off_c, 9, 42, 64
12, 43058, Note_off_c, 9, 41, 64
12, 43296, Note_on_c, 9, 36, 114
12, 43297, Note_off_c, 9, 36, 64
12, 43297, Note_on_c, 9, 38, 106
12, 43297, Note_on_c, 9, 42, 66
12, 43297, Note_on_c, 9, 41, 110
12, 43298, Note_off_c, 9, 38, 64
12, 43298, Note_off_c, 9, 42, 64
12, 43298, Note_off_c, 9, 41, 64
12, 43344, Note_on_c, 9, 36, 114
12, 43345, Note_off_c, 9, 36, 64
12, 43345, Note_on_c, 9, 38, 106
12, 43345, Note_on_c, 9, 42, 66
12, 43345, Note_on_c, 9, 41, 110
12, 43346, Note_off_c, 9, 38, 64
12, 43346, Note_off_c, 9, 42, 64
12, 43346, Note_off_c, 9, 41, 64
12, 43392, Note_on_c, 9, 36, 114
12, 43393, Note_off_c, 9, 36, 64
12, 43393, Note_on_c, 9, 38, 106
12, 43393, Note_on_c, 9, 42, 114
12, 43393, Note_on_c, 9, 41, 110
12, 43394, Note_off_c, 9, 38, 64
12, 43394, Note_off_c, 9, 42, 64
12, 43394, Note_off_c, 9, 41, 64
12, 43440, Note_on_c, 9, 36, 114
12, 43441, Note_off_c, 9, 36, 64
12, 43441, Note_on_c, 9, 38, 106
12, 43441, Note_on_c, 9, 42, 66
12, 43441, Note_on_c, 9, 41, 110
12, 43442, Note_off_c, 9, 38, 64
12, 43442, Note_off_c, 9, 42, 64
12, 43442, Note_off_c, 9, 41, 64
12, 43776, Note_on_c, 9, 36, 114
12, 43777, Note_off_c, 9, 36, 64
12, 43777, Note_on_c, 9, 38, 106
12, 43777, Note_on_c, 9, 42, 114
12, 43777, Note_on_c, 9, 41, 110
12, 43778, Note_off_c, 9, 38, 64
12, 43778, Note_off_c, 9, 42, 64
12, 43778, Note_off_c, 9, 41, 64
12, 43824, Note_on_c, 9, 36, 114
12, 43825, Note_off_c, 9, 36, 64
12, 43825, Note_on_c, 9, 38, 106
12, 43825, Note_on_c, 9, 42, 66
12, 43825, Note_on_c, 9, 41, 110
12, 43826, Note_off_c, 9, 38, 64
12, 43826, Note_off_c, 9, 42, 64
12, 43826, Note_off_c, 9, 41, 64
12, 44064, Note_on_c, 9, 36, 114
12, 44064, Note_on_c, 9, 38, 106
12, 44064, Note_on_c, 9, 42, 66
12, 44064, Note_on_c, 9, 41, 110
12, 44065, Note_off_c, 9, 36, 64
12, 44065, Note_off_c, 9, 38, 64
12, 44065, Note_off_c, 9, 42, 64
12, 44065, Note_off_c, 9, 41, 64
12, 44112, Note_on_c, 9, 36, 114
12, 44113, Note_off_c, 9, 36, 64
12, 44113, Note_on_c, 9, 38, 106
12, 44113, Note_on_c, 9, 42, 66
12, 44113, Note_on_c, 9, 41, 110
12, 44114, Note_off_c, 9, 38, 64
12, 44114, Note_off_c, 9, 42, 64
12, 44114, Note_off_c, 9, 41, 64
12, 44160, Note_on_c, 9, 36, 114
12, 44160, Note_on_c, 9, 38, 106
12, 44160, Note_on_c, 9, 42, 114
12, 44160, Note_on_c, 9, 41, 110
12, 44161, Note_off_c, 9, 36, 64
12, 44161, Note_off_c, 9, 38, 64
12, 44161, Note_off_c, 9, 42, 64
12, 44161, Note_off_c, 9, 41, 64
12, 44208, Note_on_c, 9, 36, 114
12, 44209, Note_off_c, 9, 36, 64
12, 44209, Note_on_c, 9, 38, 106
12, 44209, Note_on_c, 9, 42, 66
12, 44209, Note_on_c, 9, 41, 110
12, 44210, Note_off_c, 9, 38, 64
12, 44210, Note_off_c, 9, 42, 64
12, 44210, Note_off_c, 9, 41, 64
12, 44543, Note_on_c, 9, 49, 101
12, 44544, Note_off_c, 9, 49, 64
12, 44544, Note_on_c, 9, 36, 114
12, 44544, Note_on_c, 9, 70, 82
12, 44545, Note_off_c, 9, 36, 64
12, 44545, Note_off_c, 9, 70, 64
12, 44545, Note_on_c, 9, 42, 114
12, 44546, Note_off_c, 9, 42, 64
12, 44592, Note_on_c, 9, 36, 114
12, 44593, Note_off_c, 9, 36, 64
12, 44593, Note_on_c, 9, 42, 66
12, 44594, Note_off_c, 9, 42, 64
12, 44640, Note_on_c, 9, 70, 66
12, 44641, Note_off_c, 9, 70, 64
12, 44641, Note_on_c, 9, 42, 66
12, 44642, Note_off_c, 9, 42, 64
12, 44736, Note_on_c, 9, 70, 66
12, 44736, Note_on_c, 9, 54, 100
12, 44737, Note_off_c, 9, 70, 64
12, 44737, Note_off_c, 9, 54, 57
12, 44737, Note_on_c, 9, 38, 106
12, 44737, Note_on_c, 9, 42, 114
12, 44738, Note_off_c, 9, 38, 64
12, 44738, Note_off_c, 9, 42, 64
12, 44833, Note_on_c, 9, 42, 66
12, 44834, Note_off_c, 9, 42, 64
12, 44928, Note_on_c, 9, 36, 114
12, 44928, Note_on_c, 9, 70, 82
12, 44929, Note_off_c, 9, 36, 64
12, 44929, Note_off_c, 9, 70, 64
12, 44929, Note_on_c, 9, 42, 114
12, 44930, Note_off_c, 9, 42, 64
12, 45024, Note_on_c, 9, 70, 66
12, 45025, Note_off_c, 9, 70, 64
12, 45025, Note_on_c, 9, 42, 66
12, 45026, Note_off_c, 9, 42, 64
12, 45120, Note_on_c, 9, 70, 66
12, 45120, Note_on_c, 9, 54, 100
12, 45121, Note_off_c, 9, 70, 64
12, 45121, Note_off_c, 9, 54, 57
12, 45121, Note_on_c, 9, 38, 106
12, 45121, Note_on_c, 9, 42, 114
12, 45122, Note_off_c, 9, 38, 64
12, 45122, Note_off_c, 9, 42, 64
12, 45216, Note_on_c, 9, 36, 114
12, 45217, Note_off_c, 9, 36, 64
12, 45217, Note_on_c, 9, 42, 66
12, 45218, Note_off_c, 9, 42, 64
12, 45312, Note_on_c, 9, 36, 114
12, 45312, Note_on_c, 9, 70, 82
12, 45313, Note_off_c, 9, 36, 64
12, 45313, Note_off_c, 9, 70, 64
12, 45313, Note_on_c, 9, 42, 114
12, 45314, Note_off_c, 9, 42, 64
12, 45360, Note_on_c, 9, 36, 114
12, 45361, Note_off_c, 9, 36, 64
12, 45361, Note_on_c, 9, 42, 66
12, 45362, Note_off_c, 9, 42, 64
12, 45408, Note_on_c, 9, 70, 66
12, 45409, Note_off_c, 9, 70, 64
12, 45409, Note_on_c, 9, 42, 66
12, 45410, Note_off_c, 9, 42, 64
12, 45504, Note_on_c, 9, 70, 66
12, 45504, Note_on_c, 9, 54, 100
12, 45505, Note_off_c, 9, 70, 64
12, 45505, Note_off_c, 9, 54, 57
12, 45505, Note_on_c, 9, 38, 106
12, 45505, Note_on_c, 9, 42, 114
12, 45506, Note_off_c, 9, 38, 64
12, 45506, Note_off_c, 9, 42, 64
12, 45601, Note_on_c, 9, 42, 66
12, 45602, Note_off_c, 9, 42, 64
12, 45696, Note_on_c, 9, 36, 114
12, 45696, Note_on_c, 9, 70, 82
12, 45697, Note_off_c, 9, 36, 64
12, 45697, Note_off_c, 9, 70, 64
12, 45697, Note_on_c, 9, 42, 114
12, 45698, Note_off_c, 9, 42, 64
12, 45792, Note_on_c, 9, 70, 66
12, 45793, Note_off_c, 9, 70, 64
12, 45793, Note_on_c, 9, 42, 66
12, 45794, Note_off_c, 9, 42, 64
12, 45888, Note_on_c, 9, 70, 66
12, 45888, Note_on_c, 9, 54, 100
12, 45889, Note_off_c, 9, 70, 64
12, 45889, Note_off_c, 9, 54, 57
12, 45889, Note_on_c, 9, 38, 106
12, 45889, Note_on_c, 9, 42, 114
12, 45890, Note_off_c, 9, 38, 64
12, 45890, Note_off_c, 9, 42, 64
12, 45985, Note_on_c, 9, 42, 66
12, 45985, Note_on_c, 9, 41, 110
12, 45986, Note_off_c, 9, 42, 64
12, 45986, Note_off_c, 9, 41, 64
12, 46080, Note_on_c, 9, 36, 114
12, 46080, Note_on_c, 9, 70, 82
12, 46081, Note_off_c, 9, 36, 64
12, 46081, Note_off_c, 9, 70, 64
12, 46081, Note_on_c, 9, 42, 114
12, 46082, Note_off_c, 9, 42, 64
12, 46128, Note_on_c, 9, 36, 114
12, 46128, Note_on_c, 9, 42, 66
12, 46129, Note_off_c, 9, 36, 64
12, 46129, Note_off_c, 9, 42, 64
12, 46176, Note_on_c, 9, 70, 66
12, 46177, Note_off_c, 9, 70, 64
12, 46177, Note_on_c, 9, 42, 66
12, 46178, Note_off_c, 9, 42, 64
12, 46272, Note_on_c, 9, 70, 66
12, 46272, Note_on_c, 9, 54, 100
12, 46273, Note_off_c, 9, 70, 64
12, 46273, Note_off_c, 9, 54, 57
12, 46273, Note_on_c, 9, 38, 106
12, 46273, Note_on_c, 9, 42, 114
12, 46274, Note_off_c, 9, 38, 64
12, 46274, Note_off_c, 9, 42, 64
12, 46369, Note_on_c, 9, 42, 66
12, 46370, Note_off_c, 9, 42, 64
12, 46464, Note_on_c, 9, 36, 114
12, 46464, Note_on_c, 9, 70, 82
12, 46465, Note_off_c, 9, 36, 64
12, 46465, Note_off_c, 9, 70, 64
12, 46466, Note_on_c, 9, 42, 114
12, 46467, Note_off_c, 9, 42, 64
12, 46560, Note_on_c, 9, 70, 66
12, 46561, Note_off_c, 9, 70, 64
12, 46561, Note_on_c, 9, 42, 66
12, 46562, Note_off_c, 9, 42, 64
12, 46656, Note_on_c, 9, 70, 66
12, 46656, Note_on_c, 9, 54, 100
12, 46657, Note_off_c, 9, 70, 64
12, 46657, Note_off_c, 9, 54, 57
12, 46657, Note_on_c, 9, 38, 106
12, 46657, Note_on_c, 9, 42, 114
12, 46658, Note_off_c, 9, 38, 64
12, 46658, Note_off_c, 9, 42, 64
12, 46752, Note_on_c, 9, 36, 114
12, 46753, Note_off_c, 9, 36, 64
12, 46753, Note_on_c, 9, 42, 66
12, 46753, Note_on_c, 9, 45, 110
12, 46753, Note_on_c, 9, 41, 110
12, 46754, Note_off_c, 9, 42, 64
12, 46754, Note_off_c, 9, 45, 64
12, 46754, Note_off_c, 9, 41, 64
12, 46801, Note_on_c, 9, 45, 110
12, 46801, Note_on_c, 9, 41, 110
12, 46802, Note_off_c, 9, 45, 64
12, 46802, Note_off_c, 9, 41, 64
12, 46848, Note_on_c, 9, 36, 114
12, 46848, Note_on_c, 9, 70, 82
12, 46849, Note_off_c, 9, 36, 64
12, 46849, Note_off_c, 9, 70, 64
12, 46849, Note_on_c, 9, 42, 114
12, 46849, Note_on_c, 9, 45, 110
12, 46849, Note_on_c, 9, 41, 110
12, 46850, Note_off_c, 9, 42, 64
12, 46850, Note_off_c, 9, 45, 64
12, 46850, Note_off_c, 9, 41, 64
12, 46896, Note_on_c, 9, 36, 114
12, 46896, Note_on_c, 9, 42, 66
12, 46896, Note_on_c, 9, 45, 110
12, 46896, Note_on_c, 9, 41, 110
12, 46897, Note_off_c, 9, 36, 64
12, 46897, Note_off_c, 9, 42, 64
12, 46897, Note_off_c, 9, 45, 64
12, 46897, Note_off_c, 9, 41, 64
12, 46944, Note_on_c, 9, 42, 66
12, 46944, Note_on_c, 9, 70, 66
12, 46945, Note_off_c, 9, 42, 64
12, 46945, Note_off_c, 9, 70, 64
12, 47040, Note_on_c, 9, 70, 66
12, 47040, Note_on_c, 9, 54, 100
12, 47041, Note_off_c, 9, 70, 64
12, 47041, Note_off_c, 9, 54, 57
12, 47041, Note_on_c, 9, 38, 106
12, 47041, Note_on_c, 9, 42, 114
12, 47042, Note_off_c, 9, 38, 64
12, 47042, Note_off_c, 9, 42, 64
12, 47137, Note_on_c, 9, 42, 66
12, 47138, Note_off_c, 9, 42, 64
12, 47232, Note_on_c, 9, 36, 114
12, 47232, Note_on_c, 9, 70, 82
12, 47233, Note_off_c, 9, 36, 64
12, 47233, Note_off_c, 9, 70, 64
12, 47233, Note_on_c, 9, 42, 114
12, 47234, Note_off_c, 9, 42, 64
12, 47328, Note_on_c, 9, 70, 66
12, 47329, Note_off_c, 9, 70, 64
12, 47329, Note_on_c, 9, 42, 66
12, 47330, Note_off_c, 9, 42, 64
12, 47424, Note_on_c, 9, 70, 66
12, 47424, Note_on_c, 9, 54, 100
12, 47425, Note_off_c, 9, 70, 64
12, 47425, Note_off_c, 9, 54, 57
12, 47425, Note_on_c, 9, 38, 106
12, 47425, Note_on_c, 9, 42, 114
12, 47426, Note_off_c, 9, 38, 64
12, 47426, Note_off_c, 9, 42, 64
12, 47521, Note_on_c, 9, 42, 66
12, 47521, Note_on_c, 9, 41, 110
12, 47522, Note_off_c, 9, 42, 64
12, 47522, Note_off_c, 9, 41, 64
12, 47569, Note_on_c, 9, 41, 110
12, 47570, Note_off_c, 9, 41, 64
12, 47616, Note_on_c, 9, 36, 114
12, 47616, Note_on_c, 9, 70, 82
12, 47617, Note_off_c, 9, 36, 64
12, 47617, Note_off_c, 9, 70, 64
12, 47618, Note_on_c, 9, 42, 114
12, 47619, Note_off_c, 9, 42, 64
12, 47664, Note_on_c, 9, 36, 114
12, 47665, Note_off_c, 9, 36, 64
12, 47665, Note_on_c, 9, 42, 66
12, 47666, Note_off_c, 9, 42, 64
12, 47712, Note_on_c, 9, 70, 66
12, 47713, Note_off_c, 9, 70, 64
12, 47713, Note_on_c, 9, 42, 66
12, 47714, Note_off_c, 9, 42, 64
12, 47808, Note_on_c, 9, 38, 106
12, 47808, Note_on_c, 9, 42, 114
12, 47808, Note_on_c, 9, 70, 66
12, 47808, Note_on_c, 9, 54, 100
12, 47809, Note_off_c, 9, 38, 64
12, 47809, Note_off_c, 9, 42, 64
12, 47809, Note_off_c, 9, 70, 64
12, 47809, Note_off_c, 9, 54, 57
12, 47905, Note_on_c, 9, 42, 66
12, 47906, Note_off_c, 9, 42, 64
12, 48000, Note_on_c, 9, 36, 114
12, 48000, Note_on_c, 9, 70, 82
12, 48001, Note_off_c, 9, 36, 64
12, 48001, Note_off_c, 9, 70, 64
12, 48001, Note_on_c, 9, 42, 114
12, 48002, Note_off_c, 9, 42, 64
12, 48096, Note_on_c, 9, 70, 66
12, 48097, Note_off_c, 9, 70, 64
12, 48097, Note_on_c, 9, 42, 66
12, 48098, Note_off_c, 9, 42, 64
12, 48192, Note_on_c, 9, 38, 106
12, 48192, Note_on_c, 9, 42, 114
12, 48192, Note_on_c, 9, 70, 66
12, 48192, Note_on_c, 9, 54, 100
12, 48193, Note_off_c, 9, 38, 64
12, 48193, Note_off_c, 9, 42, 64
12, 48193, Note_off_c, 9, 70, 64
12, 48193, Note_off_c, 9, 54, 57
12, 48288, Note_on_c, 9, 36, 114
12, 48289, Note_off_c, 9, 36, 64
12, 48289, Note_on_c, 9, 42, 66
12, 48290, Note_off_c, 9, 42, 64
12, 48384, Note_on_c, 9, 36, 114
12, 48384, Note_on_c, 9, 70, 82
12, 48385, Note_off_c, 9, 36, 64
12, 48385, Note_off_c, 9, 70, 64
12, 48385, Note_on_c, 9, 42, 114
12, 48386, Note_off_c, 9, 42, 64
12, 48432, Note_on_c, 9, 36, 114
12, 48433, Note_off_c, 9, 36, 64
12, 48433, Note_on_c, 9, 42, 66
12, 48434, Note_off_c, 9, 42, 64
12, 48480, Note_on_c, 9, 70, 66
12, 48481, Note_off_c, 9, 70, 64
12, 48481, Note_on_c, 9, 42, 66
12, 48482, Note_off_c, 9, 42, 64
12, 48576, Note_on_c, 9, 70, 66
12, 48576, Note_on_c, 9, 54, 100
12, 48577, Note_off_c, 9, 70, 64
12, 48577, Note_off_c, 9, 54, 57
12, 48577, Note_on_c, 9, 38, 106
12, 48577, Note_on_c, 9, 42, 114
12, 48578, Note_off_c, 9, 38, 64
12, 48578, Note_off_c, 9, 42, 64
12, 48673, Note_on_c, 9, 42, 66
12, 48674, Note_off_c, 9, 42, 64
12, 48768, Note_on_c, 9, 36, 114
12, 48768, Note_on_c, 9, 70, 82
12, 48769, Note_off_c, 9, 36, 64
12, 48769, Note_off_c, 9, 70, 64
12, 48769, Note_on_c, 9, 42, 114
12, 48770, Note_off_c, 9, 42, 64
12, 48864, Note_on_c, 9, 70, 66
12, 48865, Note_off_c, 9, 70, 64
12, 48865, Note_on_c, 9, 42, 66
12, 48866, Note_off_c, 9, 42, 64
12, 48960, Note_on_c, 9, 38, 106
12, 48960, Note_on_c, 9, 42, 114
12, 48960, Note_on_c, 9, 70, 66
12, 48960, Note_on_c, 9, 54, 100
12, 48961, Note_off_c, 9, 38, 64
12, 48961, Note_off_c, 9, 42, 64
12, 48961, Note_off_c, 9, 70, 64
12, 48961, Note_off_c, 9, 54, 57
12, 49057, Note_on_c, 9, 42, 66
12, 49057, Note_on_c, 9, 41, 110
12, 49058, Note_off_c, 9, 42, 64
12, 49058, Note_off_c, 9, 41, 64
12, 49152, Note_on_c, 9, 36, 114
12, 49152, Note_on_c, 9, 70, 82
12, 49153, Note_off_c, 9, 36, 64
12, 49153, Note_off_c, 9, 70, 64
12, 49154, Note_on_c, 9, 42, 114
12, 49155, Note_off_c, 9, 42, 64
12, 49200, Note_on_c, 9, 36, 114
12, 49201, Note_off_c, 9, 36, 64
12, 49201, Note_on_c, 9, 42, 66
12, 49202, Note_off_c, 9, 42, 64
12, 49248, Note_on_c, 9, 70, 66
12, 49249, Note_off_c, 9, 70, 64
12, 49249, Note_on_c, 9, 42, 66
12, 49250, Note_off_c, 9, 42, 64
12, 49344, Note_on_c, 9, 70, 66
12, 49344, Note_on_c, 9, 54, 100
12, 49345, Note_off_c, 9, 70, 64
12, 49345, Note_off_c, 9, 54, 57
12, 49345, Note_on_c, 9, 38, 106
12, 49345, Note_on_c, 9, 42, 114
12, 49346, Note_off_c, 9, 38, 64
12, 49346, Note_off_c, 9, 42, 64
12, 49441, Note_on_c, 9, 42, 66
12, 49442, Note_off_c, 9, 42, 64
12, 49536, Note_on_c, 9, 36, 114
12, 49536, Note_on_c, 9, 70, 82
12, 49537, Note_off_c, 9, 36, 64
12, 49537, Note_off_c, 9, 70, 64
12, 49537, Note_on_c, 9, 42, 114
12, 49538, Note_off_c, 9, 42, 64
12, 49632, Note_on_c, 9, 70, 66
12, 49633, Note_off_c, 9, 70, 64
12, 49633, Note_on_c, 9, 42, 66
12, 49634, Note_off_c, 9, 42, 64
12, 49728, Note_on_c, 9, 70, 66
12, 49728, Note_on_c, 9, 54, 100
12, 49729, Note_off_c, 9, 70, 64
12, 49729, Note_off_c, 9, 54, 57
12, 49729, Note_on_c, 9, 38, 106
12, 49729, Note_on_c, 9, 42, 114
12, 49730, Note_off_c, 9, 38, 64
12, 49730, Note_off_c, 9, 42, 64
12, 49824, Note_on_c, 9, 36, 114
12, 49825, Note_off_c, 9, 36, 64
12, 49825, Note_on_c, 9, 42, 66
12, 49826, Note_off_c, 9, 42, 64
12, 49920, Note_on_c, 9, 36, 114
12, 49920, Note_on_c, 9, 70, 82
12, 49921, Note_off_c, 9, 36, 64
12, 49921, Note_off_c, 9, 70, 64
12, 49921, Note_on_c, 9, 42, 114
12, 49922, Note_off_c, 9, 42, 64
12, 49968, Note_on_c, 9, 36, 114
12, 49969, Note_off_c, 9, 36, 64
12, 49969, Note_on_c, 9, 42, 66
12, 49969, Note_on_c, 9, 45, 110
12, 49969, Note_on_c, 9, 41, 110
12, 49970, Note_off_c, 9, 42, 64
12, 49970, Note_off_c, 9, 45, 64
12, 49970, Note_off_c, 9, 41, 64
12, 50016, Note_on_c, 9, 70, 66
12, 50017, Note_off_c, 9, 70, 64
12, 50017, Note_on_c, 9, 42, 66
12, 50018, Note_off_c, 9, 42, 64
12, 50065, Note_on_c, 9, 45, 110
12, 50065, Note_on_c, 9, 41, 110
12, 50066, Note_off_c, 9, 45, 64
12, 50066, Note_off_c, 9, 41, 64
12, 50112, Note_on_c, 9, 70, 66
12, 50112, Note_on_c, 9, 54, 100
12, 50113, Note_off_c, 9, 70, 64
12, 50113, Note_off_c, 9, 54, 57
12, 50113, Note_on_c, 9, 38, 106
12, 50113, Note_on_c, 9, 42, 114
12, 50113, Note_on_c, 9, 45, 110
12, 50113, Note_on_c, 9, 41, 110
12, 50114, Note_off_c, 9, 38, 64
12, 50114, Note_off_c, 9, 42, 64
12, 50114, Note_off_c, 9, 45, 64
12, 50114, Note_off_c, 9, 41, 64
12, 50209, Note_on_c, 9, 42, 66
12, 50210, Note_off_c, 9, 42, 64
12, 50257, Note_on_c, 9, 45, 110
12, 50257, Note_on_c, 9, 41, 110
12, 50258, Note_off_c, 9, 45, 64
12, 50258, Note_off_c, 9, 41, 64
12, 50304, Note_on_c, 9, 36, 114
12, 50304, Note_on_c, 9, 42, 114
12, 50304, Note_on_c, 9, 70, 82
12, 50304, Note_on_c, 9, 45, 110
12, 50304, Note_on_c, 9, 41, 110
12, 50305, Note_off_c, 9, 36, 64
12, 50305, Note_off_c, 9, 42, 64
12, 50305, Note_off_c, 9, 70, 64
12, 50305, Note_off_c, 9, 45, 64
12, 50305, Note_off_c, 9, 41, 64
12, 50400, Note_on_c, 9, 70, 66
12, 50401, Note_off_c, 9, 70, 64
12, 50401, Note_on_c, 9, 42, 66
12, 50401, Note_on_c, 9, 45, 110
12, 50401, Note_on_c, 9, 41, 110
12, 50402, Note_off_c, 9, 42, 64
12, 50402, Note_off_c, 9, 45, 64
12, 50402, Note_off_c, 9, 41, 64
12, 50496, Note_on_c, 9, 70, 66
12, 50496, Note_on_c, 9, 54, 100
12, 50497, Note_off_c, 9, 70, 64
12, 50497, Note_off_c, 9, 54, 57
12, 50497, Note_on_c, 9, 38, 106
12, 50497, Note_on_c, 9, 42, 114
12, 50497, Note_on_c, 9, 45, 110
12, 50497, Note_on_c, 9, 41, 110
12, 50498, Note_off_c, 9, 38, 64
12, 50498, Note_off_c, 9, 42, 64
12, 50498, Note_off_c, 9, 45, 64
12, 50498, Note_off_c, 9, 41, 64
12, 50545, Note_on_c, 9, 45, 110
12, 50545, Note_on_c, 9, 41, 110
12, 50546, Note_off_c, 9, 45, 64
12, 50546, Note_off_c, 9, 41, 64
12, 50593, Note_on_c, 9, 42, 66
12, 50593, Note_on_c, 9, 45, 110
12, 50593, Note_on_c, 9, 41, 110
12, 50594, Note_off_c, 9, 42, 64
12, 50594, Note_off_c, 9, 45, 64
12, 50594, Note_off_c, 9, 41, 64
12, 50687, Note_on_c, 9, 49, 101
12, 50688, Note_off_c, 9, 49, 64
12, 50688, Note_on_c, 9, 36, 114
12, 50688, Note_on_c, 9, 70, 82
12, 50689, Note_off_c, 9, 36, 64
12, 50689, Note_off_c, 9, 70, 64
12, 50689, Note_on_c, 9, 42, 114
12, 50690, Note_off_c, 9, 42, 64
12, 50736, Note_on_c, 9, 36, 114
12, 50737, Note_off_c, 9, 36, 64
12, 50737, Note_on_c, 9, 42, 66
12, 50738, Note_off_c, 9, 42, 64
12, 50784, Note_on_c, 9, 70, 66
12, 50785, Note_off_c, 9, 70, 64
12, 50785, Note_on_c, 9, 42, 66
12, 50786, Note_off_c, 9, 42, 64
12, 50880, Note_on_c, 9, 70, 66
12, 50880, Note_on_c, 9, 54, 100
12, 50881, Note_off_c, 9, 70, 64
12, 50881, Note_off_c, 9, 54, 57
12, 50881, Note_on_c, 9, 38, 106
12, 50881, Note_on_c, 9, 42, 114
12, 50882, Note_off_c, 9, 38, 64
12, 50882, Note_off_c, 9, 42, 64
12, 50978, Note_on_c, 9, 42, 66
12, 50979, Note_off_c, 9, 42, 64
12, 51072, Note_on_c, 9, 36, 114
12, 51072, Note_on_c, 9, 42, 114
12, 51072, Note_on_c, 9, 70, 82
12, 51073, Note_off_c, 9, 36, 64
12, 51073, Note_off_c, 9, 42, 64
12, 51073, Note_off_c, 9, 70, 64
12, 51168, Note_on_c, 9, 70, 66
12, 51169, Note_off_c, 9, 70, 64
12, 51169, Note_on_c, 9, 42, 66
12, 51170, Note_off_c, 9, 42, 64
12, 51264, Note_on_c, 9, 70, 66
12, 51264, Note_on_c, 9, 54, 100
12, 51265, Note_off_c, 9, 70, 64
12, 51265, Note_off_c, 9, 54, 57
12, 51265, Note_on_c, 9, 38, 106
12, 51265, Note_on_c, 9, 42, 114
12, 51266, Note_off_c, 9, 38, 64
12, 51266, Note_off_c, 9, 42, 64
12, 51360, Note_on_c, 9, 36, 114
12, 51361, Note_off_c, 9, 36, 64
12, 51361, Note_on_c, 9, 42, 66
12, 51362, Note_off_c, 9, 42, 64
12, 51456, Note_on_c, 9, 36, 114
12, 51456, Note_on_c, 9, 70, 82
12, 51457, Note_off_c, 9, 36, 64
12, 51457, Note_off_c, 9, 70, 64
12, 51457, Note_on_c, 9, 42, 114
12, 51458, Note_off_c, 9, 42, 64
12, 51504, Note_on_c, 9, 36, 114
12, 51505, Note_off_c, 9, 36, 64
12, 51505, Note_on_c, 9, 42, 66
12, 51506, Note_off_c, 9, 42, 64
12, 51552, Note_on_c, 9, 70, 66
12, 51553, Note_off_c, 9, 70, 64
12, 51553, Note_on_c, 9, 42, 66
12, 51554, Note_off_c, 9, 42, 64
12, 51648, Note_on_c, 9, 70, 66
12, 51648, Note_on_c, 9, 54, 100
12, 51649, Note_off_c, 9, 70, 64
12, 51649, Note_off_c, 9, 54, 57
12, 51649, Note_on_c, 9, 38, 106
12, 51649, Note_on_c, 9, 42, 114
12, 51650, Note_off_c, 9, 38, 64
12, 51650, Note_off_c, 9, 42, 64
12, 51745, Note_on_c, 9, 42, 66
12, 51746, Note_off_c, 9, 42, 64
12, 51840, Note_on_c, 9, 36, 114
12, 51840, Note_on_c, 9, 70, 82
12, 51841, Note_off_c, 9, 36, 64
12, 51841, Note_off_c, 9, 70, 64
12, 51842, Note_on_c, 9, 42, 114
12, 51843, Note_off_c, 9, 42, 64
12, 51936, Note_on_c, 9, 70, 66
12, 51937, Note_off_c, 9, 70, 64
12, 51937, Note_on_c, 9, 42, 66
12, 51938, Note_off_c, 9, 42, 64
12, 52032, Note_on_c, 9, 70, 66
12, 52032, Note_on_c, 9, 54, 100
12, 52033, Note_off_c, 9, 70, 64
12, 52033, Note_off_c, 9, 54, 57
12, 52033, Note_on_c, 9, 38, 106
12, 52033, Note_on_c, 9, 42, 114
12, 52033, Note_on_c, 9, 45, 110
12, 52033, Note_on_c, 9, 41, 110
12, 52034, Note_off_c, 9, 38, 64
12, 52034, Note_off_c, 9, 42, 64
12, 52034, Note_off_c, 9, 45, 64
12, 52034, Note_off_c, 9, 41, 64
12, 52081, Note_on_c, 9, 45, 110
12, 52081, Note_on_c, 9, 41, 110
12, 52082, Note_off_c, 9, 45, 64
12, 52082, Note_off_c, 9, 41, 64
12, 52129, Note_on_c, 9, 42, 66
12, 52129, Note_on_c, 9, 45, 110
12, 52129, Note_on_c, 9, 41, 110
12, 52130, Note_off_c, 9, 42, 64
12, 52130, Note_off_c, 9, 45, 64
12, 52130, Note_off_c, 9, 41, 64
12, 52177, Note_on_c, 9, 45, 110
12, 52177, Note_on_c, 9, 41, 110
12, 52178, Note_off_c, 9, 45, 64
12, 52178, Note_off_c, 9, 41, 64
12, 52224, Note_on_c, 9, 36, 114
12, 52224, Note_on_c, 9, 70, 82
12, 52225, Note_off_c, 9, 36, 64
12, 52225, Note_off_c, 9, 70, 64
12, 52226, Note_on_c, 9, 42, 114
12, 52227, Note_off_c, 9, 42, 64
12, 52272, Note_on_c, 9, 36, 114
12, 52272, Note_on_c, 9, 42, 66
12, 52273, Note_off_c, 9, 36, 64
12, 52273, Note_off_c, 9, 42, 64
12, 52320, Note_on_c, 9, 70, 66
12, 52321, Note_off_c, 9, 70, 64
12, 52321, Note_on_c, 9, 42, 66
12, 52322, Note_off_c, 9, 42, 64
12, 52416, Note_on_c, 9, 70, 66
12, 52416, Note_on_c, 9, 54, 100
12, 52417, Note_off_c, 9, 70, 64
12, 52417, Note_off_c, 9, 54, 57
12, 52417, Note_on_c, 9, 38, 106
12, 52417, Note_on_c, 9, 42, 114
12, 52418, Note_off_c, 9, 38, 64
12, 52418, Note_off_c, 9, 42, 64
12, 52513, Note_on_c, 9, 42, 66
12, 52514, Note_off_c, 9, 42, 64
12, 52608, Note_on_c, 9, 36, 114
12, 52608, Note_on_c, 9, 70, 82
12, 52609, Note_off_c, 9, 36, 64
12, 52609, Note_off_c, 9, 70, 64
12, 52609, Note_on_c, 9, 42, 114
12, 52610, Note_off_c, 9, 42, 64
12, 52704, Note_on_c, 9, 70, 66
12, 52705, Note_off_c, 9, 70, 64
12, 52705, Note_on_c, 9, 42, 66
12, 52706, Note_off_c, 9, 42, 64
12, 52800, Note_on_c, 9, 70, 66
12, 52800, Note_on_c, 9, 54, 100
12, 52801, Note_off_c, 9, 70, 64
12, 52801, Note_off_c, 9, 54, 57
12, 52801, Note_on_c, 9, 38, 106
12, 52801, Note_on_c, 9, 42, 114
12, 52802, Note_off_c, 9, 38, 64
12, 52802, Note_off_c, 9, 42, 64
12, 52896, Note_on_c, 9, 36, 114
12, 52897, Note_off_c, 9, 36, 64
12, 52897, Note_on_c, 9, 42, 66
12, 52898, Note_off_c, 9, 42, 64
12, 52992, Note_on_c, 9, 36, 114
12, 52992, Note_on_c, 9, 70, 82
12, 52993, Note_off_c, 9, 36, 64
12, 52993, Note_off_c, 9, 70, 64
12, 52993, Note_on_c, 9, 42, 114
12, 52994, Note_off_c, 9, 42, 64
12, 53040, Note_on_c, 9, 36, 114
12, 53041, Note_off_c, 9, 36, 64
12, 53041, Note_on_c, 9, 42, 66
12, 53042, Note_off_c, 9, 42, 64
12, 53088, Note_on_c, 9, 70, 66
12, 53089, Note_off_c, 9, 70, 64
12, 53089, Note_on_c, 9, 42, 66
12, 53090, Note_off_c, 9, 42, 64
12, 53184, Note_on_c, 9, 70, 66
12, 53184, Note_on_c, 9, 54, 100
12, 53185, Note_off_c, 9, 70, 64
12, 53185, Note_off_c, 9, 54, 57
12, 53185, Note_on_c, 9, 38, 106
12, 53185, Note_on_c, 9, 42, 114
12, 53186, Note_off_c, 9, 38, 64
12, 53186, Note_off_c, 9, 42, 64
12, 53281, Note_on_c, 9, 42, 66
12, 53282, Note_off_c, 9, 42, 64
12, 53376, Note_on_c, 9, 36, 114
12, 53376, Note_on_c, 9, 70, 82
12, 53377, Note_off_c, 9, 36, 64
12, 53377, Note_off_c, 9, 70, 64
12, 53377, Note_on_c, 9, 42, 114
12, 53378, Note_off_c, 9, 42, 64
12, 53472, Note_on_c, 9, 70, 66
12, 53473, Note_off_c, 9, 70, 64
12, 53474, Note_on_c, 9, 42, 66
12, 53475, Note_off_c, 9, 42, 64
12, 53568, Note_on_c, 9, 70, 66
12, 53568, Note_on_c, 9, 54, 100
12, 53569, Note_off_c, 9, 70, 64
12, 53569, Note_off_c, 9, 54, 57
12, 53569, Note_on_c, 9, 38, 106
12, 53569, Note_on_c, 9, 42, 114
12, 53570, Note_off_c, 9, 38, 64
12, 53570, Note_off_c, 9, 42, 64
12, 53665, Note_on_c, 9, 42, 66
12, 53665, Note_on_c, 9, 45, 110
12, 53665, Note_on_c, 9, 41, 110
12, 53666, Note_off_c, 9, 42, 64
12, 53666, Note_off_c, 9, 45, 64
12, 53666, Note_off_c, 9, 41, 64
12, 53713, Note_on_c, 9, 45, 110
12, 53713, Note_on_c, 9, 41, 110
12, 53714, Note_off_c, 9, 45, 64
12, 53714, Note_off_c, 9, 41, 64
12, 53760, Note_on_c, 9, 36, 114
12, 53760, Note_on_c, 9, 70, 82
12, 53761, Note_off_c, 9, 36, 64
12, 53761, Note_off_c, 9, 70, 64
12, 53761, Note_on_c, 9, 42, 114
12, 53762, Note_off_c, 9, 42, 64
12, 53808, Note_on_c, 9, 36, 114
12, 53809, Note_off_c, 9, 36, 64
12, 53809, Note_on_c, 9, 42, 66
12, 53810, Note_off_c, 9, 42, 64
12, 53856, Note_on_c, 9, 70, 66
12, 53857, Note_off_c, 9, 70, 64
12, 53857, Note_on_c, 9, 42, 66
12, 53858, Note_off_c, 9, 42, 64
12, 53952, Note_on_c, 9, 70, 66
12, 53952, Note_on_c, 9, 54, 100
12, 53953, Note_off_c, 9, 70, 64
12, 53953, Note_off_c, 9, 54, 57
12, 53953, Note_on_c, 9, 38, 106
12, 53953, Note_on_c, 9, 42, 114
12, 53954, Note_off_c, 9, 38, 64
12, 53954, Note_off_c, 9, 42, 64
12, 54049, Note_on_c, 9, 42, 66
12, 54050, Note_off_c, 9, 42, 64
12, 54144, Note_on_c, 9, 36, 114
12, 54144, Note_on_c, 9, 70, 82
12, 54145, Note_off_c, 9, 36, 64
12, 54145, Note_off_c, 9, 70, 64
12, 54145, Note_on_c, 9, 42, 114
12, 54146, Note_off_c, 9, 42, 64
12, 54240, Note_on_c, 9, 70, 66
12, 54241, Note_off_c, 9, 70, 64
12, 54241, Note_on_c, 9, 42, 66
12, 54242, Note_off_c, 9, 42, 64
12, 54336, Note_on_c, 9, 38, 106
12, 54336, Note_on_c, 9, 42, 114
12, 54336, Note_on_c, 9, 70, 66
12, 54336, Note_on_c, 9, 54, 100
12, 54337, Note_off_c, 9, 38, 64
12, 54337, Note_off_c, 9, 42, 64
12, 54337, Note_off_c, 9, 70, 64
12, 54337, Note_off_c, 9, 54, 57
12, 54432, Note_on_c, 9, 36, 114
12, 54433, Note_off_c, 9, 36, 64
12, 54433, Note_on_c, 9, 42, 66
12, 54434, Note_off_c, 9, 42, 64
12, 54528, Note_on_c, 9, 36, 114
12, 54528, Note_on_c, 9, 70, 82
12, 54529, Note_off_c, 9, 36, 64
12, 54529, Note_off_c, 9, 70, 64
12, 54529, Note_on_c, 9, 42, 114
12, 54530, Note_off_c, 9, 42, 64
12, 54576, Note_on_c, 9, 36, 114
12, 54577, Note_off_c, 9, 36, 64
12, 54577, Note_on_c, 9, 42, 66
12, 54578, Note_off_c, 9, 42, 64
12, 54624, Note_on_c, 9, 70, 66
12, 54625, Note_off_c, 9, 70, 64
12, 54625, Note_on_c, 9, 42, 66
12, 54626, Note_off_c, 9, 42, 64
12, 54720, Note_on_c, 9, 70, 66
12, 54720, Note_on_c, 9, 54, 100
12, 54721, Note_off_c, 9, 70, 64
12, 54721, Note_off_c, 9, 54, 57
12, 54721, Note_on_c, 9, 38, 106
12, 54721, Note_on_c, 9, 42, 114
12, 54722, Note_off_c, 9, 38, 64
12, 54722, Note_off_c, 9, 42, 64
12, 54817, Note_on_c, 9, 42, 66
12, 54818, Note_off_c, 9, 42, 64
12, 54912, Note_on_c, 9, 36, 114
12, 54912, Note_on_c, 9, 70, 82
12, 54913, Note_off_c, 9, 36, 64
12, 54913, Note_off_c, 9, 70, 64
12, 54913, Note_on_c, 9, 42, 114
12, 54914, Note_off_c, 9, 42, 64
12, 55008, Note_on_c, 9, 70, 66
12, 55009, Note_off_c, 9, 70, 64
12, 55009, Note_on_c, 9, 38, 106
12, 55009, Note_on_c, 9, 42, 66
12, 55010, Note_off_c, 9, 38, 64
12, 55010, Note_off_c, 9, 42, 64
12, 55041, Note_on_c, 9, 38, 106
12, 55042, Note_off_c, 9, 38, 64
12, 55073, Note_on_c, 9, 38, 106
12, 55074, Note_off_c, 9, 38, 64
12, 55104, Note_on_c, 9, 70, 66
12, 55104, Note_on_c, 9, 54, 100
12, 55105, Note_off_c, 9, 70, 64
12, 55105, Note_off_c, 9, 54, 57
12, 55105, Note_on_c, 9, 38, 106
12, 55105, Note_on_c, 9, 42, 114
12, 55106, Note_off_c, 9, 38, 64
12, 55106, Note_off_c, 9, 42, 64
12, 55137, Note_on_c, 9, 48, 110
12, 55138, Note_off_c, 9, 48, 64
12, 55169, Note_on_c, 9, 45, 110
12, 55170, Note_off_c, 9, 45, 64
12, 55200, Note_on_c, 9, 42, 66
12, 55200, Note_on_c, 9, 41, 110
12, 55201, Note_off_c, 9, 42, 64
12, 55201, Note_off_c, 9, 41, 64
12, 55295, Note_on_c, 9, 49, 101
12, 55296, Note_off_c, 9, 49, 64
12, 55296, Note_on_c, 9, 70, 82
12, 55297, Note_off_c, 9, 70, 64
12, 55297, Note_on_c, 9, 42, 114
12, 55298, Note_off_c, 9, 42, 64
12, 55344, Note_on_c, 9, 36, 114
12, 55344, Note_on_c, 9, 70, 66
12, 55345, Note_off_c, 9, 36, 64
12, 55345, Note_off_c, 9, 70, 64
12, 55345, Note_on_c, 9, 42, 66
12, 55346, Note_off_c, 9, 42, 64
12, 55392, Note_on_c, 9, 70, 66
12, 55393, Note_off_c, 9, 70, 64
12, 55393, Note_on_c, 9, 42, 66
12, 55394, Note_off_c, 9, 42, 64
12, 55440, Note_on_c, 9, 70, 66
12, 55441, Note_off_c, 9, 70, 64
12, 55488, Note_on_c, 9, 70, 82
12, 55488, Note_on_c, 9, 37, 112
12, 55489, Note_off_c, 9, 70, 64
12, 55489, Note_off_c, 9, 37, 64
12, 55489, Note_on_c, 9, 42, 114
12, 55490, Note_off_c, 9, 42, 64
12, 55536, Note_on_c, 9, 70, 66
12, 55537, Note_off_c, 9, 70, 64
12, 55584, Note_on_c, 9, 70, 66
12, 55585, Note_off_c, 9, 70, 64
12, 55585, Note_on_c, 9, 42, 66
12, 55586, Note_off_c, 9, 42, 64
12, 55632, Note_on_c, 9, 70, 66
12, 55633, Note_off_c, 9, 70, 64
12, 55680, Note_on_c, 9, 36, 114
12, 55680, Note_on_c, 9, 70, 82
12, 55681, Note_off_c, 9, 36, 64
12, 55681, Note_off_c, 9, 70, 64
12, 55681, Note_on_c, 9, 42, 114
12, 55682, Note_off_c, 9, 42, 64
12, 55728, Note_on_c, 9, 70, 66
12, 55729, Note_off_c, 9, 70, 64
12, 55776, Note_on_c, 9, 70, 66
12, 55777, Note_off_c, 9, 70, 64
12, 55777, Note_on_c, 9, 42, 66
12, 55778, Note_off_c, 9, 42, 64
12, 55824, Note_on_c, 9, 70, 66
12, 55825, Note_off_c, 9, 70, 64
12, 55872, Note_on_c, 9, 70, 82
12, 55873, Note_off_c, 9, 70, 64
12, 55873, Note_on_c, 9, 42, 114
12, 55874, Note_off_c, 9, 42, 64
12, 55920, Note_on_c, 9, 70, 66
12, 55921, Note_off_c, 9, 70, 64
12, 55968, Note_on_c, 9, 36, 114
12, 55968, Note_on_c, 9, 70, 66
12, 55969, Note_off_c, 9, 36, 64
12, 55969, Note_off_c, 9, 70, 64
12, 55969, Note_on_c, 9, 42, 66
12, 55970, Note_off_c, 9, 42, 64
12, 56016, Note_on_c, 9, 70, 66
12, 56017, Note_off_c, 9, 70, 64
12, 56064, Note_on_c, 9, 36, 114
12, 56064, Note_on_c, 9, 70, 82
12, 56065, Note_off_c, 9, 36, 64
12, 56065, Note_off_c, 9, 70, 64
12, 56065, Note_on_c, 9, 42, 114
12, 56066, Note_off_c, 9, 42, 64
12, 56112, Note_on_c, 9, 36, 114
12, 56112, Note_on_c, 9, 70, 66
12, 56113, Note_off_c, 9, 36, 64
12, 56113, Note_off_c, 9, 70, 64
12, 56160, Note_on_c, 9, 70, 66
12, 56161, Note_off_c, 9, 70, 64
12, 56161, Note_on_c, 9, 42, 66
12, 56162, Note_off_c, 9, 42, 64
12, 56208, Note_on_c, 9, 70, 66
12, 56209, Note_off_c, 9, 70, 64
12, 56256, Note_on_c, 9, 70, 82
12, 56256, Note_on_c, 9, 37, 112
12, 56257, Note_off_c, 9, 70, 64
12, 56257, Note_off_c, 9, 37, 64
12, 56257, Note_on_c, 9, 42, 114
12, 56258, Note_off_c, 9, 42, 64
12, 56304, Note_on_c, 9, 70, 66
12, 56305, Note_off_c, 9, 70, 64
12, 56352, Note_on_c, 9, 70, 66
12, 56353, Note_off_c, 9, 70, 64
12, 56353, Note_on_c, 9, 42, 66
12, 56354, Note_off_c, 9, 42, 64
12, 56400, Note_on_c, 9, 70, 66
12, 56401, Note_off_c, 9, 70, 64
12, 56448, Note_on_c, 9, 36, 114
12, 56448, Note_on_c, 9, 42, 114
12, 56448, Note_on_c, 9, 70, 82
12, 56449, Note_off_c, 9, 36, 64
12, 56449, Note_off_c, 9, 42, 64
12, 56449, Note_off_c, 9, 70, 64
12, 56496, Note_on_c, 9, 70, 66
12, 56497, Note_off_c, 9, 70, 64
12, 56544, Note_on_c, 9, 70, 66
12, 56545, Note_off_c, 9, 70, 64
12, 56545, Note_on_c, 9, 42, 66
12, 56546, Note_off_c, 9, 42, 64
12, 56592, Note_on_c, 9, 70, 66
12, 56593, Note_off_c, 9, 70, 64
12, 56640, Note_on_c, 9, 70, 82
12, 56641, Note_off_c, 9, 70, 64
12, 56641, Note_on_c, 9, 42, 114
12, 56642, Note_off_c, 9, 42, 64
12, 56688, Note_on_c, 9, 70, 66
12, 56689, Note_off_c, 9, 70, 64
12, 56736, Note_on_c, 9, 70, 66
12, 56737, Note_off_c, 9, 70, 64
12, 56737, Note_on_c, 9, 42, 66
12, 56738, Note_off_c, 9, 42, 64
12, 56784, Note_on_c, 9, 70, 66
12, 56785, Note_off_c, 9, 70, 64
12, 56832, Note_on_c, 9, 70, 82
12, 56833, Note_off_c, 9, 70, 64
12, 56833, Note_on_c, 9, 42, 114
12, 56834, Note_off_c, 9, 42, 64
12, 56880, Note_on_c, 9, 36, 114
12, 56880, Note_on_c, 9, 42, 66
12, 56880, Note_on_c, 9, 70, 66
12, 56881, Note_off_c, 9, 36, 64
12, 56881, Note_off_c, 9, 42, 64
12, 56881, Note_off_c, 9, 70, 64
12, 56928, Note_on_c, 9, 70, 66
12, 56929, Note_off_c, 9, 70, 64
12, 56929, Note_on_c, 9, 42, 66
12, 56930, Note_off_c, 9, 42, 64
12, 56976, Note_on_c, 9, 70, 66
12, 56977, Note_off_c, 9, 70, 64
12, 57024, Note_on_c, 9, 70, 82
12, 57024, Note_on_c, 9, 37, 112
12, 57025, Note_off_c, 9, 70, 64
12, 57025, Note_off_c, 9, 37, 64
12, 57025, Note_on_c, 9, 42, 114
12, 57026, Note_off_c, 9, 42, 64
12, 57072, Note_on_c, 9, 70, 66
12, 57073, Note_off_c, 9, 70, 64
12, 57120, Note_on_c, 9, 70, 66
12, 57121, Note_off_c, 9, 70, 64
12, 57121, Note_on_c, 9, 42, 66
12, 57122, Note_off_c, 9, 42, 64
12, 57168, Note_on_c, 9, 70, 66
12, 57169, Note_off_c, 9, 70, 64
12, 57216, Note_on_c, 9, 36, 114
12, 57216, Note_on_c, 9, 70, 82
12, 57217, Note_off_c, 9, 36, 64
12, 57217, Note_off_c, 9, 70, 64
12, 57217, Note_on_c, 9, 42, 114
12, 57218, Note_off_c, 9, 42, 64
12, 57264, Note_on_c, 9, 70, 66
12, 57265, Note_off_c, 9, 70, 64
12, 57312, Note_on_c, 9, 70, 66
12, 57313, Note_off_c, 9, 70, 64
12, 57313, Note_on_c, 9, 42, 66
12, 57314, Note_off_c, 9, 42, 64
12, 57360, Note_on_c, 9, 70, 66
12, 57361, Note_off_c, 9, 70, 64
12, 57408, Note_on_c, 9, 70, 82
12, 57409, Note_off_c, 9, 70, 64
12, 57409, Note_on_c, 9, 42, 114
12, 57410, Note_off_c, 9, 42, 64
12, 57456, Note_on_c, 9, 70, 66
12, 57457, Note_off_c, 9, 70, 64
12, 57504, Note_on_c, 9, 36, 114
12, 57504, Note_on_c, 9, 70, 66
12, 57505, Note_off_c, 9, 36, 64
12, 57505, Note_off_c, 9, 70, 64
12, 57505, Note_on_c, 9, 42, 66
12, 57506, Note_off_c, 9, 42, 64
12, 57552, Note_on_c, 9, 70, 66
12, 57553, Note_off_c, 9, 70, 64
12, 57600, Note_on_c, 9, 36, 114
12, 57600, Note_on_c, 9, 70, 82
12, 57601, Note_off_c, 9, 36, 64
12, 57601, Note_off_c, 9, 70, 64
12, 57601, Note_on_c, 9, 42, 114
12, 57602, Note_off_c, 9, 42, 64
12, 57648, Note_on_c, 9, 36, 114
12, 57648, Note_on_c, 9, 70, 66
12, 57649, Note_off_c, 9, 36, 64
12, 57649, Note_off_c, 9, 70, 64
12, 57696, Note_on_c, 9, 70, 66
12, 57697, Note_off_c, 9, 70, 64
12, 57697, Note_on_c, 9, 42, 66
12, 57698, Note_off_c, 9, 42, 64
12, 57744, Note_on_c, 9, 70, 66
12, 57745, Note_off_c, 9, 70, 64
12, 57792, Note_on_c, 9, 70, 82
12, 57792, Note_on_c, 9, 37, 112
12, 57793, Note_off_c, 9, 70, 64
12, 57793, Note_off_c, 9, 37, 64
12, 57793, Note_on_c, 9, 42, 114
12, 57794, Note_off_c, 9, 42, 64
12, 57840, Note_on_c, 9, 70, 66
12, 57841, Note_off_c, 9, 70, 64
12, 57888, Note_on_c, 9, 70, 66
12, 57889, Note_off_c, 9, 70, 64
12, 57889, Note_on_c, 9, 42, 66
12, 57890, Note_off_c, 9, 42, 64
12, 57936, Note_on_c, 9, 70, 66
12, 57937, Note_off_c, 9, 70, 64
12, 57984, Note_on_c, 9, 36, 114
12, 57984, Note_on_c, 9, 70, 82
12, 57985, Note_off_c, 9, 36, 64
12, 57985, Note_off_c, 9, 70, 64
12, 57985, Note_on_c, 9, 42, 114
12, 57986, Note_off_c, 9, 42, 64
12, 58032, Note_on_c, 9, 70, 66
12, 58033, Note_off_c, 9, 70, 64
12, 58080, Note_on_c, 9, 70, 66
12, 58081, Note_off_c, 9, 70, 64
12, 58081, Note_on_c, 9, 42, 66
12, 58082, Note_off_c, 9, 42, 64
12, 58128, Note_on_c, 9, 70, 66
12, 58129, Note_off_c, 9, 70, 64
12, 58176, Note_on_c, 9, 70, 82
12, 58177, Note_off_c, 9, 70, 64
12, 58177, Note_on_c, 9, 42, 114
12, 58178, Note_off_c, 9, 42, 64
12, 58224, Note_on_c, 9, 70, 66
12, 58225, Note_off_c, 9, 70, 64
12, 58272, Note_on_c, 9, 70, 66
12, 58273, Note_off_c, 9, 70, 64
12, 58273, Note_on_c, 9, 42, 66
12, 58274, Note_off_c, 9, 42, 64
12, 58320, Note_on_c, 9, 70, 66
12, 58321, Note_off_c, 9, 70, 64
12, 58368, Note_on_c, 9, 70, 82
12, 58369, Note_off_c, 9, 70, 64
12, 58370, Note_on_c, 9, 42, 114
12, 58371, Note_off_c, 9, 42, 64
12, 58416, Note_on_c, 9, 36, 114
12, 58416, Note_on_c, 9, 70, 66
12, 58417, Note_off_c, 9, 36, 64
12, 58417, Note_off_c, 9, 70, 64
12, 58417, Note_on_c, 9, 42, 66
12, 58418, Note_off_c, 9, 42, 64
12, 58464, Note_on_c, 9, 42, 66
12, 58464, Note_on_c, 9, 70, 66
12, 58465, Note_off_c, 9, 42, 64
12, 58465, Note_off_c, 9, 70, 64
12, 58512, Note_on_c, 9, 70, 66
12, 58513, Note_off_c, 9, 70, 64
12, 58560, Note_on_c, 9, 70, 82
12, 58560, Note_on_c, 9, 37, 112
12, 58561, Note_off_c, 9, 70, 64
12, 58561, Note_off_c, 9, 37, 64
12, 58561, Note_on_c, 9, 42, 114
12, 58562, Note_off_c, 9, 42, 64
12, 58608, Note_on_c, 9, 70, 66
12, 58609, Note_off_c, 9, 70, 64
12, 58656, Note_on_c, 9, 70, 66
12, 58657, Note_off_c, 9, 70, 64
12, 58657, Note_on_c, 9, 42, 66
12, 58658, Note_off_c, 9, 42, 64
12, 58704, Note_on_c, 9, 70, 66
12, 58705, Note_off_c, 9, 70, 64
12, 58752, Note_on_c, 9, 36, 114
12, 58752, Note_on_c, 9, 70, 82
12, 58753, Note_off_c, 9, 36, 64
12, 58753, Note_off_c, 9, 70, 64
12, 58753, Note_on_c, 9, 42, 114
12, 58754, Note_off_c, 9, 42, 64
12, 58800, Note_on_c, 9, 70, 66
12, 58801, Note_off_c, 9, 70, 64
12, 58848, Note_on_c, 9, 70, 66
12, 58849, Note_off_c, 9, 70, 64
12, 58849, Note_on_c, 9, 42, 66
12, 58850, Note_off_c, 9, 42, 64
12, 58896, Note_on_c, 9, 70, 66
12, 58897, Note_off_c, 9, 70, 64
12, 58944, Note_on_c, 9, 70, 82
12, 58945, Note_off_c, 9, 70, 64
12, 58945, Note_on_c, 9, 42, 114
12, 58946, Note_off_c, 9, 42, 64
12, 58992, Note_on_c, 9, 70, 66
12, 58993, Note_off_c, 9, 70, 64
12, 59040, Note_on_c, 9, 36, 114
12, 59040, Note_on_c, 9, 70, 66
12, 59041, Note_off_c, 9, 36, 64
12, 59041, Note_off_c, 9, 70, 64
12, 59041, Note_on_c, 9, 42, 66
12, 59042, Note_off_c, 9, 42, 64
12, 59088, Note_on_c, 9, 70, 66
12, 59089, Note_off_c, 9, 70, 64
12, 59136, Note_on_c, 9, 36, 114
12, 59136, Note_on_c, 9, 70, 82
12, 59137, Note_off_c, 9, 36, 64
12, 59137, Note_off_c, 9, 70, 64
12, 59137, Note_on_c, 9, 42, 114
12, 59138, Note_off_c, 9, 42, 64
12, 59184, Note_on_c, 9, 36, 114
12, 59184, Note_on_c, 9, 70, 66
12, 59185, Note_off_c, 9, 36, 64
12, 59185, Note_off_c, 9, 70, 64
12, 59232, Note_on_c, 9, 70, 66
12, 59233, Note_off_c, 9, 70, 64
12, 59233, Note_on_c, 9, 42, 66
12, 59234, Note_off_c, 9, 42, 64
12, 59280, Note_on_c, 9, 70, 66
12, 59281, Note_off_c, 9, 70, 64
12, 59328, Note_on_c, 9, 42, 114
12, 59328, Note_on_c, 9, 70, 82
12, 59328, Note_on_c, 9, 37, 112
12, 59329, Note_off_c, 9, 42, 64
12, 59329, Note_off_c, 9, 70, 64
12, 59329, Note_off_c, 9, 37, 64
12, 59376, Note_on_c, 9, 70, 66
12, 59377, Note_off_c, 9, 70, 64
12, 59424, Note_on_c, 9, 70, 66
12, 59425, Note_off_c, 9, 70, 64
12, 59425, Note_on_c, 9, 42, 66
12, 59426, Note_off_c, 9, 42, 64
12, 59472, Note_on_c, 9, 70, 66
12, 59473, Note_off_c, 9, 70, 64
12, 59520, Note_on_c, 9, 36, 114
12, 59520, Note_on_c, 9, 70, 82
12, 59521, Note_off_c, 9, 36, 64
12, 59521, Note_off_c, 9, 70, 64
12, 59521, Note_on_c, 9, 42, 114
12, 59522, Note_off_c, 9, 42, 64
12, 59568, Note_on_c, 9, 70, 66
12, 59569, Note_off_c, 9, 70, 64
12, 59616, Note_on_c, 9, 70, 66
12, 59617, Note_off_c, 9, 70, 64
12, 59617, Note_on_c, 9, 42, 66
12, 59618, Note_off_c, 9, 42, 64
12, 59664, Note_on_c, 9, 70, 66
12, 59665, Note_off_c, 9, 70, 64
12, 59712, Note_on_c, 9, 42, 114
12, 59712, Note_on_c, 9, 70, 82
12, 59713, Note_off_c, 9, 42, 64
12, 59713, Note_off_c, 9, 70, 64
12, 59760, Note_on_c, 9, 70, 66
12, 59761, Note_off_c, 9, 70, 64
12, 59808, Note_on_c, 9, 70, 66
12, 59809, Note_off_c, 9, 70, 64
12, 59809, Note_on_c, 9, 42, 66
12, 59810, Note_off_c, 9, 42, 64
12, 59856, Note_on_c, 9, 70, 66
12, 59857, Note_off_c, 9, 70, 64
12, 59904, Note_on_c, 9, 70, 82
12, 59905, Note_off_c, 9, 70, 64
12, 59905, Note_on_c, 9, 42, 114
12, 59906, Note_off_c, 9, 42, 64
12, 59952, Note_on_c, 9, 36, 114
12, 59952, Note_on_c, 9, 70, 66
12, 59953, Note_off_c, 9, 36, 64
12, 59953, Note_off_c, 9, 70, 64
12, 59953, Note_on_c, 9, 42, 66
12, 59954, Note_off_c, 9, 42, 64
12, 60000, Note_on_c, 9, 70, 66
12, 60001, Note_off_c, 9, 70, 64
12, 60001, Note_on_c, 9, 42, 66
12, 60002, Note_off_c, 9, 42, 64
12, 60048, Note_on_c, 9, 70, 66
12, 60049, Note_off_c, 9, 70, 64
12, 60096, Note_on_c, 9, 70, 82
12, 60096, Note_on_c, 9, 37, 112
12, 60097, Note_off_c, 9, 70, 64
12, 60097, Note_off_c, 9, 37, 64
12, 60097, Note_on_c, 9, 42, 114
12, 60098, Note_off_c, 9, 42, 64
12, 60144, Note_on_c, 9, 70, 66
12, 60145, Note_off_c, 9, 70, 64
12, 60192, Note_on_c, 9, 70, 66
12, 60193, Note_off_c, 9, 70, 64
12, 60193, Note_on_c, 9, 42, 66
12, 60194, Note_off_c, 9, 42, 64
12, 60240, Note_on_c, 9, 70, 66
12, 60241, Note_off_c, 9, 70, 64
12, 60288, Note_on_c, 9, 36, 114
12, 60288, Note_on_c, 9, 70, 82
12, 60289, Note_off_c, 9, 36, 64
12, 60289, Note_off_c, 9, 70, 64
12, 60289, Note_on_c, 9, 42, 114
12, 60290, Note_off_c, 9, 42, 64
12, 60336, Note_on_c, 9, 70, 66
12, 60337, Note_off_c, 9, 70, 64
12, 60384, Note_on_c, 9, 70, 66
12, 60385, Note_off_c, 9, 70, 64
12, 60385, Note_on_c, 9, 42, 66
12, 60386, Note_off_c, 9, 42, 64
12, 60432, Note_on_c, 9, 70, 66
12, 60433, Note_off_c, 9, 70, 64
12, 60480, Note_on_c, 9, 70, 82
12, 60481, Note_off_c, 9, 70, 64
12, 60481, Note_on_c, 9, 42, 114
12, 60482, Note_off_c, 9, 42, 64
12, 60528, Note_on_c, 9, 70, 66
12, 60529, Note_off_c, 9, 70, 64
12, 60576, Note_on_c, 9, 36, 114
12, 60576, Note_on_c, 9, 42, 66
12, 60576, Note_on_c, 9, 70, 66
12, 60577, Note_off_c, 9, 36, 64
12, 60577, Note_off_c, 9, 42, 64
12, 60577, Note_off_c, 9, 70, 64
12, 60624, Note_on_c, 9, 70, 66
12, 60625, Note_off_c, 9, 70, 64
12, 60672, Note_on_c, 9, 36, 114
12, 60672, Note_on_c, 9, 70, 82
12, 60673, Note_off_c, 9, 36, 64
12, 60673, Note_off_c, 9, 70, 64
12, 60673, Note_on_c, 9, 42, 114
12, 60674, Note_off_c, 9, 42, 64
12, 60720, Note_on_c, 9, 36, 114
12, 60720, Note_on_c, 9, 70, 66
12, 60721, Note_off_c, 9, 36, 64
12, 60721, Note_off_c, 9, 70, 64
12, 60768, Note_on_c, 9, 70, 66
12, 60769, Note_off_c, 9, 70, 64
12, 60769, Note_on_c, 9, 42, 66
12, 60770, Note_off_c, 9, 42, 64
12, 60816, Note_on_c, 9, 70, 66
12, 60817, Note_off_c, 9, 70, 64
12, 60864, Note_on_c, 9, 70, 82
12, 60864, Note_on_c, 9, 37, 112
12, 60865, Note_off_c, 9, 70, 64
12, 60865, Note_off_c, 9, 37, 64
12, 60865, Note_on_c, 9, 42, 114
12, 60866, Note_off_c, 9, 42, 64
12, 60912, Note_on_c, 9, 70, 66
12, 60913, Note_off_c, 9, 70, 64
12, 60960, Note_on_c, 9, 70, 66
12, 60961, Note_off_c, 9, 70, 64
12, 60961, Note_on_c, 9, 42, 66
12, 60962, Note_off_c, 9, 42, 64
12, 61008, Note_on_c, 9, 70, 66
12, 61009, Note_off_c, 9, 70, 64
12, 61056, Note_on_c, 9, 36, 114
12, 61056, Note_on_c, 9, 70, 82
12, 61057, Note_off_c, 9, 36, 64
12, 61057, Note_off_c, 9, 70, 64
12, 61057, Note_on_c, 9, 42, 114
12, 61058, Note_off_c, 9, 42, 64
12, 61104, Note_on_c, 9, 70, 66
12, 61105, Note_off_c, 9, 70, 64
12, 61152, Note_on_c, 9, 70, 66
12, 61153, Note_off_c, 9, 70, 64
12, 61153, Note_on_c, 9, 42, 66
12, 61154, Note_off_c, 9, 42, 64
12, 61200, Note_on_c, 9, 70, 66
12, 61201, Note_off_c, 9, 70, 64
12, 61248, Note_on_c, 9, 70, 82
12, 61249, Note_off_c, 9, 70, 64
12, 61249, Note_on_c, 9, 42, 114
12, 61250, Note_off_c, 9, 42, 64
12, 61296, Note_on_c, 9, 70, 66
12, 61297, Note_off_c, 9, 70, 64
12, 61344, Note_on_c, 9, 70, 66
12, 61345, Note_off_c, 9, 70, 64
12, 61345, Note_on_c, 9, 42, 66
12, 61346, Note_off_c, 9, 42, 64
12, 61392, Note_on_c, 9, 70, 66
12, 61393, Note_off_c, 9, 70, 64
12, 61440, Note_on_c, 9, 70, 82
12, 61441, Note_off_c, 9, 70, 64
12, 61441, Note_on_c, 9, 42, 114
12, 61442, Note_off_c, 9, 42, 64
12, 61488, Note_on_c, 9, 36, 114
12, 61488, Note_on_c, 9, 70, 66
12, 61489, Note_off_c, 9, 36, 64
12, 61489, Note_off_c, 9, 70, 64
12, 61489, Note_on_c, 9, 42, 66
12, 61490, Note_off_c, 9, 42, 64
12, 61536, Note_on_c, 9, 70, 66
12, 61537, Note_off_c, 9, 70, 64
12, 61537, Note_on_c, 9, 42, 66
12, 61538, Note_off_c, 9, 42, 64
12, 61584, Note_on_c, 9, 70, 66
12, 61585, Note_off_c, 9, 70, 64
12, 61632, Note_on_c, 9, 70, 82
12, 61632, Note_on_c, 9, 37, 112
12, 61633, Note_off_c, 9, 70, 64
12, 61633, Note_off_c, 9, 37, 64
12, 61633, Note_on_c, 9, 42, 114
12, 61634, Note_off_c, 9, 42, 64
12, 61680, Note_on_c, 9, 70, 66
12, 61681, Note_off_c, 9, 70, 64
12, 61728, Note_on_c, 9, 70, 66
12, 61729, Note_off_c, 9, 70, 64
12, 61729, Note_on_c, 9, 42, 66
12, 61730, Note_off_c, 9, 42, 64
12, 61776, Note_on_c, 9, 70, 66
12, 61777, Note_off_c, 9, 70, 64
12, 61824, Note_on_c, 9, 36, 114
12, 61824, Note_on_c, 9, 42, 114
12, 61824, Note_on_c, 9, 70, 82
12, 61825, Note_off_c, 9, 36, 64
12, 61825, Note_off_c, 9, 42, 64
12, 61825, Note_off_c, 9, 70, 64
12, 61872, Note_on_c, 9, 70, 66
12, 61873, Note_off_c, 9, 70, 64
12, 61920, Note_on_c, 9, 70, 66
12, 61921, Note_off_c, 9, 70, 64
12, 61921, Note_on_c, 9, 42, 66
12, 61922, Note_off_c, 9, 42, 64
12, 61968, Note_on_c, 9, 70, 66
12, 61969, Note_off_c, 9, 70, 64
12, 62016, Note_on_c, 9, 70, 82
12, 62017, Note_off_c, 9, 70, 64
12, 62017, Note_on_c, 9, 42, 114
12, 62018, Note_off_c, 9, 42, 64
12, 62064, Note_on_c, 9, 70, 66
12, 62065, Note_off_c, 9, 70, 64
12, 62112, Note_on_c, 9, 36, 114
12, 62112, Note_on_c, 9, 70, 66
12, 62113, Note_off_c, 9, 36, 64
12, 62113, Note_off_c, 9, 70, 64
12, 62113, Note_on_c, 9, 42, 66
12, 62114, Note_off_c, 9, 42, 64
12, 62160, Note_on_c, 9, 70, 66
12, 62161, Note_off_c, 9, 70, 64
12, 62208, Note_on_c, 9, 36, 114
12, 62208, Note_on_c, 9, 42, 114
12, 62208, Note_on_c, 9, 70, 82
12, 62209, Note_off_c, 9, 36, 64
12, 62209, Note_off_c, 9, 42, 64
12, 62209, Note_off_c, 9, 70, 64
12, 62256, Note_on_c, 9, 36, 114
12, 62256, Note_on_c, 9, 70, 66
12, 62257, Note_off_c, 9, 36, 64
12, 62257, Note_off_c, 9, 70, 64
12, 62304, Note_on_c, 9, 70, 66
12, 62305, Note_off_c, 9, 70, 64
12, 62305, Note_on_c, 9, 42, 66
12, 62306, Note_off_c, 9, 42, 64
12, 62352, Note_on_c, 9, 70, 66
12, 62353, Note_off_c, 9, 70, 64
12, 62400, Note_on_c, 9, 70, 82
12, 62400, Note_on_c, 9, 37, 112
12, 62401, Note_off_c, 9, 70, 64
12, 62401, Note_off_c, 9, 37, 64
12, 62401, Note_on_c, 9, 42, 114
12, 62402, Note_off_c, 9, 42, 64
12, 62448, Note_on_c, 9, 70, 66
12, 62449, Note_off_c, 9, 70, 64
12, 62496, Note_on_c, 9, 70, 66
12, 62497, Note_off_c, 9, 70, 64
12, 62497, Note_on_c, 9, 42, 66
12, 62498, Note_off_c, 9, 42, 64
12, 62544, Note_on_c, 9, 70, 66
12, 62545, Note_off_c, 9, 70, 64
12, 62592, Note_on_c, 9, 36, 114
12, 62592, Note_on_c, 9, 42, 114
12, 62592, Note_on_c, 9, 70, 82
12, 62593, Note_off_c, 9, 36, 64
12, 62593, Note_off_c, 9, 42, 64
12, 62593, Note_off_c, 9, 70, 64
12, 62640, Note_on_c, 9, 70, 66
12, 62641, Note_off_c, 9, 70, 64
12, 62688, Note_on_c, 9, 70, 66
12, 62689, Note_off_c, 9, 70, 64
12, 62689, Note_on_c, 9, 42, 66
12, 62690, Note_off_c, 9, 42, 64
12, 62736, Note_on_c, 9, 70, 66
12, 62737, Note_off_c, 9, 70, 64
12, 62784, Note_on_c, 9, 70, 82
12, 62785, Note_off_c, 9, 70, 64
12, 62785, Note_on_c, 9, 42, 114
12, 62786, Note_off_c, 9, 42, 64
12, 62832, Note_on_c, 9, 70, 66
12, 62833, Note_off_c, 9, 70, 64
12, 62880, Note_on_c, 9, 70, 66
12, 62881, Note_off_c, 9, 70, 64
12, 62881, Note_on_c, 9, 42, 66
12, 62882, Note_off_c, 9, 42, 64
12, 62928, Note_on_c, 9, 70, 66
12, 62929, Note_off_c, 9, 70, 64
12, 62976, Note_on_c, 9, 70, 82
12, 62977, Note_off_c, 9, 70, 64
12, 62978, Note_on_c, 9, 42, 114
12, 62979, Note_off_c, 9, 42, 64
12, 63024, Note_on_c, 9, 36, 114
12, 63024, Note_on_c, 9, 70, 66
12, 63025, Note_off_c, 9, 36, 64
12, 63025, Note_off_c, 9, 70, 64
12, 63025, Note_on_c, 9, 42, 66
12, 63026, Note_off_c, 9, 42, 64
12, 63072, Note_on_c, 9, 70, 66
12, 63073, Note_off_c, 9, 70, 64
12, 63073, Note_on_c, 9, 42, 66
12, 63074, Note_off_c, 9, 42, 64
12, 63120, Note_on_c, 9, 70, 66
12, 63121, Note_off_c, 9, 70, 64
12, 63168, Note_on_c, 9, 70, 82
12, 63168, Note_on_c, 9, 37, 112
12, 63169, Note_off_c, 9, 70, 64
12, 63169, Note_off_c, 9, 37, 64
12, 63169, Note_on_c, 9, 42, 114
12, 63170, Note_off_c, 9, 42, 64
12, 63216, Note_on_c, 9, 70, 66
12, 63217, Note_off_c, 9, 70, 64
12, 63264, Note_on_c, 9, 70, 66
12, 63265, Note_off_c, 9, 70, 64
12, 63265, Note_on_c, 9, 42, 66
12, 63266, Note_off_c, 9, 42, 64
12, 63312, Note_on_c, 9, 70, 66
12, 63313, Note_off_c, 9, 70, 64
12, 63360, Note_on_c, 9, 36, 114
12, 63360, Note_on_c, 9, 70, 82
12, 63361, Note_off_c, 9, 36, 64
12, 63361, Note_off_c, 9, 70, 64
12, 63361, Note_on_c, 9, 42, 114
12, 63362, Note_off_c, 9, 42, 64
12, 63408, Note_on_c, 9, 70, 66
12, 63409, Note_off_c, 9, 70, 64
12, 63456, Note_on_c, 9, 42, 66
12, 63456, Note_on_c, 9, 70, 66
12, 63457, Note_off_c, 9, 42, 64
12, 63457, Note_off_c, 9, 70, 64
12, 63504, Note_on_c, 9, 70, 66
12, 63505, Note_off_c, 9, 70, 64
12, 63552, Note_on_c, 9, 70, 82
12, 63553, Note_off_c, 9, 70, 64
12, 63553, Note_on_c, 9, 42, 114
12, 63554, Note_off_c, 9, 42, 64
12, 63600, Note_on_c, 9, 70, 66
12, 63601, Note_off_c, 9, 70, 64
12, 63648, Note_on_c, 9, 36, 114
12, 63648, Note_on_c, 9, 70, 66
12, 63649, Note_off_c, 9, 36, 64
12, 63649, Note_off_c, 9, 70, 64
12, 63649, Note_on_c, 9, 42, 66
12, 63650, Note_off_c, 9, 42, 64
12, 63696, Note_on_c, 9, 70, 66
12, 63697, Note_off_c, 9, 70, 64
12, 63744, Note_on_c, 9, 36, 114
12, 63744, Note_on_c, 9, 70, 82
12, 63745, Note_off_c, 9, 36, 64
12, 63745, Note_off_c, 9, 70, 64
12, 63745, Note_on_c, 9, 42, 114
12, 63746, Note_off_c, 9, 42, 64
12, 63792, Note_on_c, 9, 36, 114
12, 63792, Note_on_c, 9, 70, 66
12, 63793, Note_off_c, 9, 36, 64
12, 63793, Note_off_c, 9, 70, 64
12, 63840, Note_on_c, 9, 42, 66
12, 63840, Note_on_c, 9, 70, 66
12, 63841, Note_off_c, 9, 42, 64
12, 63841, Note_off_c, 9, 70, 64
12, 63888, Note_on_c, 9, 70, 66
12, 63889, Note_off_c, 9, 70, 64
12, 63936, Note_on_c, 9, 70, 82
12, 63936, Note_on_c, 9, 37, 112
12, 63937, Note_off_c, 9, 70, 64
12, 63937, Note_off_c, 9, 37, 64
12, 63937, Note_on_c, 9, 42, 114
12, 63938, Note_off_c, 9, 42, 64
12, 63984, Note_on_c, 9, 70, 66
12, 63985, Note_off_c, 9, 70, 64
12, 64032, Note_on_c, 9, 70, 66
12, 64033, Note_off_c, 9, 70, 64
12, 64033, Note_on_c, 9, 42, 66
12, 64034, Note_off_c, 9, 42, 64
12, 64080, Note_on_c, 9, 70, 66
12, 64081, Note_off_c, 9, 70, 64
12, 64128, Note_on_c, 9, 36, 114
12, 64128, Note_on_c, 9, 70, 82
12, 64129, Note_off_c, 9, 36, 64
12, 64129, Note_off_c, 9, 70, 64
12, 64129, Note_on_c, 9, 42, 114
12, 64130, Note_off_c, 9, 42, 64
12, 64176, Note_on_c, 9, 70, 66
12, 64177, Note_off_c, 9, 70, 64
12, 64224, Note_on_c, 9, 70, 66
12, 64225, Note_off_c, 9, 70, 64
12, 64225, Note_on_c, 9, 42, 66
12, 64226, Note_off_c, 9, 42, 64
12, 64272, Note_on_c, 9, 70, 66
12, 64273, Note_off_c, 9, 70, 64
12, 64320, Note_on_c, 9, 70, 82
12, 64321, Note_off_c, 9, 70, 64
12, 64321, Note_on_c, 9, 42, 114
12, 64322, Note_off_c, 9, 42, 64
12, 64368, Note_on_c, 9, 70, 66
12, 64369, Note_off_c, 9, 70, 64
12, 64416, Note_on_c, 9, 70, 66
12, 64417, Note_off_c, 9, 70, 64
12, 64417, Note_on_c, 9, 42, 66
12, 64418, Note_off_c, 9, 42, 64
12, 64464, Note_on_c, 9, 70, 66
12, 64465, Note_off_c, 9, 70, 64
12, 64511, Note_on_c, 9, 49, 101
12, 64512, Note_off_c, 9, 49, 64
12, 64512, Note_on_c, 9, 36, 114
12, 64512, Note_on_c, 9, 46, 58
12, 64513, Note_off_c, 9, 36, 64
12, 64513, Note_off_c, 9, 46, 64
12, 64513, End_track
13, 0, Start_track
13, 0, MIDI_port, 1
13, 0, Title_t, "Kalimba             "
13, 0, Control_c, 10, 0, 0
13, 48, Pitch_bend_c, 10, 8192
13, 48, Control_c, 10, 7, 65
13, 48, Control_c, 10, 91, 90
13, 48, Control_c, 10, 93, 20
13, 96, Control_c, 10, 100, 0
13, 96, Control_c, 10, 101, 0
13, 96, Control_c, 10, 6, 2
13, 6864, Note_on_c, 10, 43, 64
13, 6904, Note_off_c, 10, 43, 64
13, 6912, Note_on_c, 10, 55, 78
13, 6958, Note_off_c, 10, 55, 64
13, 6960, Note_on_c, 10, 43, 59
13, 7008, Note_on_c, 10, 55, 81
13, 7025, Note_off_c, 10, 43, 64
13, 7065, Note_off_c, 10, 55, 64
13, 7248, Note_on_c, 10, 50, 51
13, 7296, Note_on_c, 10, 43, 69
13, 7301, Note_off_c, 10, 50, 64
13, 7344, Note_on_c, 10, 50, 51
13, 7352, Note_off_c, 10, 43, 64
13, 7392, Note_on_c, 10, 55, 78
13, 7401, Note_off_c, 10, 50, 64
13, 7452, Note_off_c, 10, 55, 64
13, 7632, Note_on_c, 10, 43, 49
13, 7672, Note_off_c, 10, 43, 64
13, 7680, Note_on_c, 10, 55, 66
13, 7716, Note_off_c, 10, 55, 64
13, 7728, Note_on_c, 10, 50, 59
13, 7769, Note_off_c, 10, 50, 64
13, 7776, Note_on_c, 10, 55, 95
13, 7817, Note_off_c, 10, 55, 64
13, 8016, Note_on_c, 10, 50, 57
13, 8053, Note_off_c, 10, 50, 64
13, 8064, Note_on_c, 10, 43, 81
13, 8111, Note_off_c, 10, 43, 64
13, 8112, Note_on_c, 10, 50, 69
13, 8155, Note_off_c, 10, 50, 64
13, 8160, Note_on_c, 10, 55, 95
13, 8205, Note_off_c, 10, 55, 64
13, 8304, Note_on_c, 10, 50, 74
13, 8340, Note_off_c, 10, 50, 64
13, 8352, Note_on_c, 10, 43, 74
13, 8400, Note_on_c, 10, 54, 95
13, 8401, Note_off_c, 10, 43, 64
13, 8439, Note_off_c, 10, 54, 64
13, 8448, Note_on_c, 10, 40, 95
13, 8481, Note_off_c, 10, 40, 64
13, 8496, Note_on_c, 10, 47, 43
13, 8535, Note_off_c, 10, 47, 64
13, 8544, Note_on_c, 10, 52, 69
13, 8584, Note_off_c, 10, 52, 64
13, 8784, Note_on_c, 10, 40, 87
13, 8846, Note_off_c, 10, 40, 64
13, 8880, Note_on_c, 10, 47, 49
13, 8921, Note_off_c, 10, 47, 64
13, 8928, Note_on_c, 10, 52, 62
13, 8984, Note_off_c, 10, 52, 64
13, 9216, Note_on_c, 10, 40, 95
13, 9254, Note_off_c, 10, 40, 64
13, 9264, Note_on_c, 10, 47, 54
13, 9304, Note_off_c, 10, 47, 64
13, 9312, Note_on_c, 10, 52, 69
13, 9355, Note_off_c, 10, 52, 64
13, 9648, Note_on_c, 10, 52, 74
13, 9688, Note_off_c, 10, 52, 64
13, 9696, Note_on_c, 10, 47, 36
13, 9736, Note_off_c, 10, 47, 64
13, 9744, Note_on_c, 10, 52, 66
13, 9777, Note_off_c, 10, 52, 64
13, 9792, Note_on_c, 10, 40, 74
13, 9837, Note_off_c, 10, 40, 64
13, 9840, Note_on_c, 10, 47, 43
13, 9885, Note_off_c, 10, 47, 64
13, 9888, Note_on_c, 10, 52, 95
13, 9932, Note_off_c, 10, 52, 64
13, 9984, Note_on_c, 10, 36, 74
13, 10018, Note_off_c, 10, 36, 64
13, 10032, Note_on_c, 10, 43, 64
13, 10069, Note_off_c, 10, 43, 64
13, 10080, Note_on_c, 10, 48, 69
13, 10116, Note_off_c, 10, 48, 64
13, 10320, Note_on_c, 10, 36, 78
13, 10350, Note_off_c, 10, 36, 64
13, 10416, Note_on_c, 10, 48, 33
13, 10455, Note_off_c, 10, 48, 64
13, 10464, Note_on_c, 10, 52, 74
13, 10504, Note_off_c, 10, 52, 64
13, 10608, Note_on_c, 10, 55, 46
13, 10639, Note_off_c, 10, 55, 64
13, 10656, Note_on_c, 10, 60, 64
13, 10684, Note_off_c, 10, 60, 64
13, 10704, Note_on_c, 10, 55, 59
13, 10742, Note_off_c, 10, 55, 64
13, 10752, Note_on_c, 10, 47, 81
13, 10783, Note_off_c, 10, 47, 64
13, 10800, Note_on_c, 10, 55, 84
13, 10849, Note_off_c, 10, 55, 64
13, 11088, Note_on_c, 10, 47, 74
13, 11131, Note_off_c, 10, 47, 64
13, 11184, Note_on_c, 10, 43, 69
13, 11216, Note_off_c, 10, 43, 64
13, 11232, Note_on_c, 10, 47, 87
13, 11276, Note_off_c, 10, 47, 64
13, 11520, Note_on_c, 10, 38, 84
13, 11551, Note_off_c, 10, 38, 64
13, 11568, Note_on_c, 10, 45, 69
13, 11601, Note_off_c, 10, 45, 64
13, 11616, Note_on_c, 10, 50, 64
13, 11654, Note_off_c, 10, 50, 64
13, 11856, Note_on_c, 10, 38, 95
13, 11906, Note_off_c, 10, 38, 64
13, 11952, Note_on_c, 10, 45, 69
13, 11992, Note_off_c, 10, 45, 64
13, 12000, Note_on_c, 10, 50, 57
13, 12041, Note_off_c, 10, 50, 64
13, 12288, Note_on_c, 10, 38, 84
13, 12319, Note_off_c, 10, 38, 64
13, 12336, Note_on_c, 10, 45, 69
13, 12369, Note_off_c, 10, 45, 64
13, 12384, Note_on_c, 10, 50, 64
13, 12422, Note_off_c, 10, 50, 64
13, 12624, Note_on_c, 10, 38, 95
13, 12674, Note_off_c, 10, 38, 64
13, 12720, Note_on_c, 10, 45, 69
13, 12760, Note_off_c, 10, 45, 64
13, 12768, Note_on_c, 10, 50, 57
13, 12809, Note_off_c, 10, 50, 64
13, 13056, Note_on_c, 10, 43, 69
13, 13094, Note_off_c, 10, 43, 64
13, 13104, Note_on_c, 10, 50, 69
13, 13140, Note_off_c, 10, 50, 64
13, 13152, Note_on_c, 10, 55, 57
13, 13187, Note_off_c, 10, 55, 64
13, 13200, Note_on_c, 10, 43, 64
13, 13247, Note_off_c, 10, 43, 64
13, 13248, Note_on_c, 10, 59, 51
13, 13284, Note_off_c, 10, 59, 64
13, 13296, Note_on_c, 10, 43, 57
13, 13340, Note_off_c, 10, 43, 64
13, 13344, Note_on_c, 10, 50, 64
13, 13390, Note_off_c, 10, 50, 64
13, 13392, Note_on_c, 10, 55, 54
13, 13431, Note_off_c, 10, 55, 64
13, 13440, Note_on_c, 10, 43, 64
13, 13485, Note_off_c, 10, 43, 64
13, 13488, Note_on_c, 10, 50, 54
13, 13529, Note_off_c, 10, 50, 64
13, 13536, Note_on_c, 10, 55, 59
13, 13565, Note_off_c, 10, 55, 64
13, 13584, Note_on_c, 10, 43, 62
13, 13628, Note_off_c, 10, 43, 64
13, 13632, Note_on_c, 10, 59, 62
13, 13665, Note_off_c, 10, 59, 64
13, 13680, Note_on_c, 10, 43, 54
13, 13726, Note_off_c, 10, 43, 64
13, 13728, Note_on_c, 10, 50, 74
13, 13776, Note_on_c, 10, 55, 51
13, 13777, Note_off_c, 10, 50, 64
13, 13814, Note_off_c, 10, 55, 64
13, 13824, Note_on_c, 10, 43, 57
13, 13862, Note_off_c, 10, 43, 64
13, 13872, Note_on_c, 10, 50, 43
13, 13920, Note_off_c, 10, 50, 64
13, 13920, Note_on_c, 10, 55, 51
13, 13956, Note_off_c, 10, 55, 64
13, 13968, Note_on_c, 10, 43, 57
13, 14015, Note_off_c, 10, 43, 64
13, 14016, Note_on_c, 10, 59, 74
13, 14047, Note_off_c, 10, 59, 64
13, 14064, Note_on_c, 10, 43, 69
13, 14104, Note_off_c, 10, 43, 64
13, 14112, Note_on_c, 10, 50, 51
13, 14160, Note_on_c, 10, 55, 46
13, 14167, Note_off_c, 10, 50, 64
13, 14196, Note_off_c, 10, 55, 64
13, 14208, Note_on_c, 10, 43, 51
13, 14249, Note_off_c, 10, 43, 64
13, 14256, Note_on_c, 10, 50, 57
13, 14304, Note_on_c, 10, 55, 51
13, 14313, Note_off_c, 10, 50, 64
13, 14340, Note_off_c, 10, 55, 64
13, 14352, Note_on_c, 10, 43, 57
13, 14400, Note_on_c, 10, 59, 64
13, 14401, Note_off_c, 10, 43, 64
13, 14447, Note_off_c, 10, 59, 64
13, 14448, Note_on_c, 10, 43, 57
13, 14488, Note_off_c, 10, 43, 64
13, 14496, Note_on_c, 10, 50, 69
13, 14544, Note_on_c, 10, 55, 43
13, 14545, Note_off_c, 10, 50, 64
13, 14581, Note_off_c, 10, 55, 64
13, 14592, Note_on_c, 10, 48, 64
13, 14640, Note_on_c, 10, 55, 51
13, 14641, Note_off_c, 10, 48, 64
13, 14685, Note_off_c, 10, 55, 64
13, 14688, Note_on_c, 10, 60, 49
13, 14718, Note_off_c, 10, 60, 64
13, 14736, Note_on_c, 10, 48, 51
13, 14784, Note_off_c, 10, 48, 64
13, 14784, Note_on_c, 10, 64, 40
13, 14815, Note_off_c, 10, 64, 64
13, 14832, Note_on_c, 10, 48, 49
13, 14879, Note_off_c, 10, 48, 64
13, 14880, Note_on_c, 10, 55, 51
13, 14928, Note_on_c, 10, 60, 36
13, 14935, Note_off_c, 10, 55, 64
13, 14964, Note_off_c, 10, 60, 64
13, 14976, Note_on_c, 10, 48, 51
13, 15023, Note_off_c, 10, 48, 64
13, 15024, Note_on_c, 10, 55, 57
13, 15072, Note_off_c, 10, 55, 64
13, 15072, Note_on_c, 10, 60, 43
13, 15103, Note_off_c, 10, 60, 64
13, 15120, Note_on_c, 10, 48, 49
13, 15168, Note_on_c, 10, 64, 40
13, 15174, Note_off_c, 10, 48, 64
13, 15200, Note_off_c, 10, 64, 64
13, 15216, Note_on_c, 10, 48, 46
13, 15260, Note_off_c, 10, 48, 64
13, 15264, Note_on_c, 10, 55, 59
13, 15312, Note_on_c, 10, 60, 49
13, 15318, Note_off_c, 10, 55, 64
13, 15347, Note_off_c, 10, 60, 64
13, 15360, Note_on_c, 10, 48, 54
13, 15408, Note_off_c, 10, 48, 64
13, 15408, Note_on_c, 10, 55, 59
13, 15456, Note_on_c, 10, 60, 54
13, 15457, Note_off_c, 10, 55, 64
13, 15491, Note_off_c, 10, 60, 64
13, 15504, Note_on_c, 10, 48, 57
13, 15551, Note_off_c, 10, 48, 64
13, 15552, Note_on_c, 10, 64, 54
13, 15583, Note_off_c, 10, 64, 64
13, 15600, Note_on_c, 10, 48, 57
13, 15643, Note_off_c, 10, 48, 64
13, 15648, Note_on_c, 10, 55, 64
13, 15696, Note_on_c, 10, 60, 43
13, 15701, Note_off_c, 10, 55, 64
13, 15732, Note_off_c, 10, 60, 64
13, 15744, Note_on_c, 10, 48, 49
13, 15790, Note_off_c, 10, 48, 64
13, 15792, Note_on_c, 10, 55, 69
13, 15839, Note_off_c, 10, 55, 64
13, 15840, Note_on_c, 10, 60, 46
13, 15873, Note_off_c, 10, 60, 64
13, 15888, Note_on_c, 10, 48, 49
13, 15931, Note_off_c, 10, 48, 64
13, 15936, Note_on_c, 10, 64, 54
13, 15974, Note_off_c, 10, 64, 64
13, 15984, Note_on_c, 10, 48, 59
13, 16020, Note_off_c, 10, 48, 64
13, 16032, Note_on_c, 10, 55, 69
13, 16074, Note_off_c, 10, 55, 64
13, 16080, Note_on_c, 10, 60, 36
13, 16119, Note_off_c, 10, 60, 64
13, 16128, Note_on_c, 10, 45, 59
13, 16165, Note_off_c, 10, 45, 64
13, 16176, Note_on_c, 10, 52, 57
13, 16214, Note_off_c, 10, 52, 64
13, 16224, Note_on_c, 10, 57, 57
13, 16257, Note_off_c, 10, 57, 64
13, 16272, Note_on_c, 10, 45, 59
13, 16319, Note_off_c, 10, 45, 64
13, 16320, Note_on_c, 10, 60, 49
13, 16354, Note_off_c, 10, 60, 64
13, 16368, Note_on_c, 10, 45, 54
13, 16413, Note_off_c, 10, 45, 64
13, 16416, Note_on_c, 10, 52, 57
13, 16464, Note_on_c, 10, 57, 46
13, 16466, Note_off_c, 10, 52, 64
13, 16500, Note_off_c, 10, 57, 64
13, 16512, Note_on_c, 10, 45, 74
13, 16556, Note_off_c, 10, 45, 64
13, 16560, Note_on_c, 10, 52, 57
13, 16602, Note_off_c, 10, 52, 64
13, 16608, Note_on_c, 10, 57, 51
13, 16641, Note_off_c, 10, 57, 64
13, 16656, Note_on_c, 10, 45, 64
13, 16704, Note_on_c, 10, 60, 74
13, 16705, Note_off_c, 10, 45, 64
13, 16739, Note_off_c, 10, 60, 64
13, 16752, Note_on_c, 10, 45, 54
13, 16794, Note_off_c, 10, 45, 64
13, 16800, Note_on_c, 10, 52, 51
13, 16848, Note_off_c, 10, 52, 64
13, 16848, Note_on_c, 10, 57, 46
13, 16885, Note_off_c, 10, 57, 64
13, 16896, Note_on_c, 10, 45, 57
13, 16938, Note_off_c, 10, 45, 64
13, 16944, Note_on_c, 10, 52, 43
13, 16983, Note_off_c, 10, 52, 64
13, 16992, Note_on_c, 10, 57, 51
13, 17026, Note_off_c, 10, 57, 64
13, 17040, Note_on_c, 10, 45, 54
13, 17083, Note_off_c, 10, 45, 64
13, 17088, Note_on_c, 10, 60, 59
13, 17125, Note_off_c, 10, 60, 64
13, 17136, Note_on_c, 10, 45, 51
13, 17179, Note_off_c, 10, 45, 64
13, 17184, Note_on_c, 10, 52, 51
13, 17232, Note_on_c, 10, 57, 49
13, 17239, Note_off_c, 10, 52, 64
13, 17270, Note_off_c, 10, 57, 64
13, 17280, Note_on_c, 10, 45, 59
13, 17325, Note_off_c, 10, 45, 64
13, 17328, Note_on_c, 10, 52, 36
13, 17376, Note_off_c, 10, 52, 64
13, 17376, Note_on_c, 10, 57, 49
13, 17411, Note_off_c, 10, 57, 64
13, 17424, Note_on_c, 10, 45, 59
13, 17472, Note_on_c, 10, 60, 49
13, 17476, Note_off_c, 10, 45, 64
13, 17507, Note_off_c, 10, 60, 64
13, 17520, Note_on_c, 10, 45, 62
13, 17562, Note_off_c, 10, 45, 64
13, 17568, Note_on_c, 10, 52, 69
13, 17608, Note_off_c, 10, 52, 64
13, 17616, Note_on_c, 10, 57, 59
13, 17656, Note_off_c, 10, 57, 64
13, 17664, Note_on_c, 10, 38, 62
13, 17711, Note_off_c, 10, 38, 64
13, 17712, Note_on_c, 10, 45, 57
13, 17751, Note_off_c, 10, 45, 64
13, 17760, Note_on_c, 10, 50, 69
13, 17789, Note_off_c, 10, 50, 64
13, 17808, Note_on_c, 10, 38, 43
13, 17851, Note_off_c, 10, 38, 64
13, 17856, Note_on_c, 10, 54, 81
13, 17890, Note_off_c, 10, 54, 64
13, 17904, Note_on_c, 10, 38, 51
13, 17948, Note_off_c, 10, 38, 64
13, 17952, Note_on_c, 10, 45, 51
13, 18000, Note_off_c, 10, 45, 64
13, 18000, Note_on_c, 10, 50, 43
13, 18038, Note_off_c, 10, 50, 64
13, 18048, Note_on_c, 10, 38, 51
13, 18093, Note_off_c, 10, 38, 64
13, 18096, Note_on_c, 10, 45, 64
13, 18140, Note_off_c, 10, 45, 64
13, 18144, Note_on_c, 10, 50, 57
13, 18178, Note_off_c, 10, 50, 64
13, 18192, Note_on_c, 10, 38, 51
13, 18236, Note_off_c, 10, 38, 64
13, 18240, Note_on_c, 10, 54, 57
13, 18273, Note_off_c, 10, 54, 64
13, 18288, Note_on_c, 10, 38, 40
13, 18331, Note_off_c, 10, 38, 64
13, 18336, Note_on_c, 10, 45, 59
13, 18384, Note_on_c, 10, 50, 64
13, 18385, Note_off_c, 10, 45, 64
13, 18419, Note_off_c, 10, 50, 64
13, 18432, Note_on_c, 10, 38, 51
13, 18472, Note_off_c, 10, 38, 64
13, 18480, Note_on_c, 10, 45, 51
13, 18523, Note_off_c, 10, 45, 64
13, 18528, Note_on_c, 10, 50, 57
13, 18560, Note_off_c, 10, 50, 64
13, 18576, Note_on_c, 10, 38, 57
13, 18618, Note_off_c, 10, 38, 64
13, 18624, Note_on_c, 10, 54, 81
13, 18658, Note_off_c, 10, 54, 64
13, 18672, Note_on_c, 10, 38, 49
13, 18714, Note_off_c, 10, 38, 64
13, 18720, Note_on_c, 10, 45, 59
13, 18766, Note_off_c, 10, 45, 64
13, 18768, Note_on_c, 10, 50, 54
13, 18804, Note_off_c, 10, 50, 64
13, 18816, Note_on_c, 10, 38, 54
13, 18857, Note_off_c, 10, 38, 64
13, 18864, Note_on_c, 10, 45, 43
13, 18910, Note_off_c, 10, 45, 64
13, 18912, Note_on_c, 10, 50, 49
13, 18944, Note_off_c, 10, 50, 64
13, 18960, Note_on_c, 10, 38, 64
13, 19008, Note_on_c, 10, 54, 69
13, 19010, Note_off_c, 10, 38, 64
13, 19045, Note_off_c, 10, 54, 64
13, 19056, Note_on_c, 10, 38, 57
13, 19096, Note_off_c, 10, 38, 64
13, 19104, Note_on_c, 10, 45, 64
13, 19139, Note_off_c, 10, 45, 64
13, 19152, Note_on_c, 10, 50, 49
13, 19187, Note_off_c, 10, 50, 64
13, 19200, Note_on_c, 10, 43, 54
13, 19248, Note_on_c, 10, 50, 49
13, 19254, Note_off_c, 10, 43, 64
13, 19287, Note_off_c, 10, 50, 64
13, 19296, Note_on_c, 10, 55, 64
13, 19327, Note_off_c, 10, 55, 64
13, 19344, Note_on_c, 10, 43, 59
13, 19392, Note_on_c, 10, 59, 69
13, 19395, Note_off_c, 10, 43, 64
13, 19427, Note_off_c, 10, 59, 64
13, 19440, Note_on_c, 10, 43, 51
13, 19487, Note_off_c, 10, 43, 64
13, 19488, Note_on_c, 10, 50, 62
13, 19536, Note_on_c, 10, 55, 43
13, 19538, Note_off_c, 10, 50, 64
13, 19571, Note_off_c, 10, 55, 64
13, 19584, Note_on_c, 10, 43, 57
13, 19628, Note_off_c, 10, 43, 64
13, 19632, Note_on_c, 10, 50, 59
13, 19680, Note_off_c, 10, 50, 64
13, 19680, Note_on_c, 10, 55, 57
13, 19714, Note_off_c, 10, 55, 64
13, 19728, Note_on_c, 10, 43, 54
13, 19774, Note_off_c, 10, 43, 64
13, 19776, Note_on_c, 10, 59, 51
13, 19809, Note_off_c, 10, 59, 64
13, 19824, Note_on_c, 10, 43, 57
13, 19867, Note_off_c, 10, 43, 64
13, 19872, Note_on_c, 10, 50, 64
13, 19919, Note_off_c, 10, 50, 64
13, 19920, Note_on_c, 10, 55, 43
13, 19955, Note_off_c, 10, 55, 64
13, 19968, Note_on_c, 10, 43, 69
13, 20007, Note_off_c, 10, 43, 64
13, 20016, Note_on_c, 10, 50, 59
13, 20061, Note_off_c, 10, 50, 64
13, 20064, Note_on_c, 10, 55, 64
13, 20099, Note_off_c, 10, 55, 64
13, 20112, Note_on_c, 10, 43, 51
13, 20160, Note_off_c, 10, 43, 64
13, 20160, Note_on_c, 10, 59, 81
13, 20195, Note_off_c, 10, 59, 64
13, 20208, Note_on_c, 10, 43, 57
13, 20248, Note_off_c, 10, 43, 64
13, 20256, Note_on_c, 10, 50, 54
13, 20304, Note_on_c, 10, 55, 49
13, 20308, Note_off_c, 10, 50, 64
13, 20343, Note_off_c, 10, 55, 64
13, 20352, Note_on_c, 10, 43, 51
13, 20394, Note_off_c, 10, 43, 64
13, 20400, Note_on_c, 10, 50, 51
13, 20448, Note_off_c, 10, 50, 64
13, 20448, Note_on_c, 10, 55, 57
13, 20482, Note_off_c, 10, 55, 64
13, 20496, Note_on_c, 10, 43, 59
13, 20544, Note_on_c, 10, 59, 49
13, 20547, Note_off_c, 10, 43, 64
13, 20583, Note_off_c, 10, 59, 64
13, 20592, Note_on_c, 10, 43, 59
13, 20629, Note_off_c, 10, 43, 64
13, 20640, Note_on_c, 10, 50, 64
13, 20680, Note_off_c, 10, 50, 64
13, 20688, Note_on_c, 10, 55, 49
13, 20727, Note_off_c, 10, 55, 64
13, 20736, Note_on_c, 10, 40, 54
13, 20779, Note_off_c, 10, 40, 64
13, 20784, Note_on_c, 10, 47, 64
13, 20824, Note_off_c, 10, 47, 64
13, 20832, Note_on_c, 10, 52, 59
13, 20863, Note_off_c, 10, 52, 64
13, 20880, Note_on_c, 10, 40, 49
13, 20926, Note_off_c, 10, 40, 64
13, 20928, Note_on_c, 10, 55, 59
13, 20964, Note_off_c, 10, 55, 64
13, 20976, Note_on_c, 10, 40, 43
13, 21018, Note_off_c, 10, 40, 64
13, 21024, Note_on_c, 10, 47, 69
13, 21072, Note_on_c, 10, 52, 49
13, 21074, Note_off_c, 10, 47, 64
13, 21109, Note_off_c, 10, 52, 64
13, 21120, Note_on_c, 10, 40, 59
13, 21162, Note_off_c, 10, 40, 64
13, 21168, Note_on_c, 10, 47, 49
13, 21207, Note_off_c, 10, 47, 64
13, 21216, Note_on_c, 10, 52, 51
13, 21249, Note_off_c, 10, 52, 64
13, 21264, Note_on_c, 10, 40, 69
13, 21307, Note_off_c, 10, 40, 64
13, 21312, Note_on_c, 10, 55, 57
13, 21350, Note_off_c, 10, 55, 64
13, 21360, Note_on_c, 10, 40, 49
13, 21403, Note_off_c, 10, 40, 64
13, 21408, Note_on_c, 10, 47, 54
13, 21455, Note_off_c, 10, 47, 64
13, 21456, Note_on_c, 10, 52, 43
13, 21492, Note_off_c, 10, 52, 64
13, 21504, Note_on_c, 10, 40, 57
13, 21538, Note_off_c, 10, 40, 64
13, 21552, Note_on_c, 10, 47, 51
13, 21600, Note_on_c, 10, 52, 74
13, 21615, Note_off_c, 10, 47, 64
13, 21625, Note_off_c, 10, 52, 64
13, 21648, Note_on_c, 10, 40, 62
13, 21684, Note_off_c, 10, 40, 64
13, 21696, Note_on_c, 10, 55, 54
13, 21728, Note_off_c, 10, 55, 64
13, 21744, Note_on_c, 10, 40, 54
13, 21781, Note_off_c, 10, 40, 64
13, 21792, Note_on_c, 10, 47, 54
13, 21839, Note_off_c, 10, 47, 64
13, 21840, Note_on_c, 10, 52, 69
13, 21875, Note_off_c, 10, 52, 64
13, 21888, Note_on_c, 10, 40, 51
13, 21927, Note_off_c, 10, 40, 64
13, 21936, Note_on_c, 10, 47, 49
13, 21976, Note_off_c, 10, 47, 64
13, 21984, Note_on_c, 10, 52, 54
13, 22016, Note_off_c, 10, 52, 64
13, 22032, Note_on_c, 10, 40, 59
13, 22072, Note_off_c, 10, 40, 64
13, 22080, Note_on_c, 10, 55, 57
13, 22116, Note_off_c, 10, 55, 64
13, 22128, Note_on_c, 10, 40, 49
13, 22163, Note_off_c, 10, 40, 64
13, 22176, Note_on_c, 10, 47, 51
13, 22213, Note_off_c, 10, 47, 64
13, 22224, Note_on_c, 10, 52, 54
13, 22260, Note_off_c, 10, 52, 64
13, 22272, Note_on_c, 10, 36, 59
13, 22304, Note_off_c, 10, 36, 64
13, 22320, Note_on_c, 10, 43, 54
13, 22359, Note_off_c, 10, 43, 64
13, 22368, Note_on_c, 10, 48, 43
13, 22401, Note_off_c, 10, 48, 64
13, 22416, Note_on_c, 10, 36, 69
13, 22461, Note_off_c, 10, 36, 64
13, 22464, Note_on_c, 10, 52, 69
13, 22498, Note_off_c, 10, 52, 64
13, 22512, Note_on_c, 10, 36, 36
13, 22554, Note_off_c, 10, 36, 64
13, 22560, Note_on_c, 10, 43, 64
13, 22605, Note_off_c, 10, 43, 64
13, 22608, Note_on_c, 10, 48, 43
13, 22644, Note_off_c, 10, 48, 64
13, 22656, Note_on_c, 10, 36, 54
13, 22699, Note_off_c, 10, 36, 64
13, 22704, Note_on_c, 10, 43, 54
13, 22743, Note_off_c, 10, 43, 64
13, 22752, Note_on_c, 10, 48, 49
13, 22783, Note_off_c, 10, 48, 64
13, 22800, Note_on_c, 10, 36, 51
13, 22847, Note_off_c, 10, 36, 64
13, 22848, Note_on_c, 10, 52, 59
13, 22883, Note_off_c, 10, 52, 64
13, 22896, Note_on_c, 10, 36, 49
13, 22938, Note_off_c, 10, 36, 64
13, 22944, Note_on_c, 10, 43, 57
13, 22978, Note_off_c, 10, 43, 64
13, 22992, Note_on_c, 10, 48, 46
13, 23025, Note_off_c, 10, 48, 64
13, 23040, Note_on_c, 10, 43, 51
13, 23088, Note_on_c, 10, 50, 43
13, 23096, Note_off_c, 10, 43, 64
13, 23122, Note_off_c, 10, 50, 64
13, 23136, Note_on_c, 10, 55, 54
13, 23167, Note_off_c, 10, 55, 64
13, 23184, Note_on_c, 10, 43, 57
13, 23232, Note_on_c, 10, 59, 57
13, 23233, Note_off_c, 10, 43, 64
13, 23267, Note_off_c, 10, 59, 64
13, 23280, Note_on_c, 10, 43, 54
13, 23325, Note_off_c, 10, 43, 64
13, 23328, Note_on_c, 10, 50, 57
13, 23376, Note_off_c, 10, 50, 64
13, 23376, Note_on_c, 10, 55, 54
13, 23412, Note_off_c, 10, 55, 64
13, 23424, Note_on_c, 10, 43, 49
13, 23465, Note_off_c, 10, 43, 64
13, 23472, Note_on_c, 10, 50, 59
13, 23517, Note_off_c, 10, 50, 64
13, 23520, Note_on_c, 10, 55, 59
13, 23554, Note_off_c, 10, 55, 64
13, 23568, Note_on_c, 10, 43, 69
13, 23610, Note_off_c, 10, 43, 64
13, 23616, Note_on_c, 10, 59, 59
13, 23652, Note_off_c, 10, 59, 64
13, 23664, Note_on_c, 10, 43, 69
13, 23702, Note_off_c, 10, 43, 64
13, 23712, Note_on_c, 10, 50, 62
13, 23751, Note_off_c, 10, 50, 64
13, 23760, Note_on_c, 10, 55, 36
13, 23799, Note_off_c, 10, 55, 64
13, 23808, Note_on_c, 10, 38, 57
13, 23843, Note_off_c, 10, 38, 64
13, 23856, Note_on_c, 10, 45, 54
13, 23893, Note_off_c, 10, 45, 64
13, 23904, Note_on_c, 10, 50, 59
13, 23936, Note_off_c, 10, 50, 64
13, 23952, Note_on_c, 10, 38, 64
13, 24000, Note_on_c, 10, 54, 57
13, 24002, Note_off_c, 10, 38, 64
13, 24032, Note_off_c, 10, 54, 64
13, 24048, Note_on_c, 10, 38, 43
13, 24090, Note_off_c, 10, 38, 64
13, 24096, Note_on_c, 10, 45, 49
13, 24142, Note_off_c, 10, 45, 64
13, 24144, Note_on_c, 10, 50, 51
13, 24179, Note_off_c, 10, 50, 64
13, 24192, Note_on_c, 10, 38, 49
13, 24232, Note_off_c, 10, 38, 64
13, 24240, Note_on_c, 10, 45, 51
13, 24278, Note_off_c, 10, 45, 64
13, 24288, Note_on_c, 10, 50, 59
13, 24319, Note_off_c, 10, 50, 64
13, 24336, Note_on_c, 10, 38, 57
13, 24376, Note_off_c, 10, 38, 64
13, 24384, Note_on_c, 10, 54, 51
13, 24416, Note_off_c, 10, 54, 64
13, 24432, Note_on_c, 10, 38, 49
13, 24472, Note_off_c, 10, 38, 64
13, 24480, Note_on_c, 10, 45, 49
13, 24525, Note_off_c, 10, 45, 64
13, 24528, Note_on_c, 10, 50, 43
13, 24564, Note_off_c, 10, 50, 64
13, 24576, Note_on_c, 10, 38, 54
13, 24614, Note_off_c, 10, 38, 64
13, 24624, Note_on_c, 10, 45, 57
13, 24661, Note_off_c, 10, 45, 64
13, 24672, Note_on_c, 10, 50, 69
13, 24705, Note_off_c, 10, 50, 64
13, 24720, Note_on_c, 10, 38, 59
13, 24757, Note_off_c, 10, 38, 64
13, 24768, Note_on_c, 10, 54, 81
13, 24800, Note_off_c, 10, 54, 64
13, 24816, Note_on_c, 10, 38, 62
13, 24856, Note_off_c, 10, 38, 64
13, 24864, Note_on_c, 10, 45, 51
13, 24906, Note_off_c, 10, 45, 64
13, 24912, Note_on_c, 10, 50, 57
13, 24948, Note_off_c, 10, 50, 64
13, 24960, Note_on_c, 10, 38, 49
13, 24996, Note_off_c, 10, 38, 64
13, 25008, Note_on_c, 10, 45, 59
13, 25047, Note_off_c, 10, 45, 64
13, 25056, Note_on_c, 10, 50, 57
13, 25091, Note_off_c, 10, 50, 64
13, 25104, Note_on_c, 10, 38, 59
13, 25141, Note_off_c, 10, 38, 64
13, 25152, Note_on_c, 10, 54, 59
13, 25186, Note_off_c, 10, 54, 64
13, 25200, Note_on_c, 10, 38, 59
13, 25239, Note_off_c, 10, 38, 64
13, 25248, Note_on_c, 10, 45, 51
13, 25285, Note_off_c, 10, 45, 64
13, 25296, Note_on_c, 10, 50, 64
13, 25336, Note_off_c, 10, 50, 64
13, 55344, Note_on_c, 10, 55, 87
13, 55367, Note_off_c, 10, 55, 64
13, 55392, Note_on_c, 10, 59, 62
13, 55415, Note_off_c, 10, 59, 64
13, 55440, Note_on_c, 10, 55, 69
13, 55465, Note_off_c, 10, 55, 64
13, 55488, Note_on_c, 10, 62, 84
13, 55513, Note_off_c, 10, 62, 64
13, 55536, Note_on_c, 10, 55, 54
13, 55560, Note_off_c, 10, 55, 64
13, 55584, Note_on_c, 10, 59, 81
13, 55606, Note_off_c, 10, 59, 64
13, 55632, Note_on_c, 10, 55, 81
13, 55652, Note_off_c, 10, 55, 64
13, 55728, Note_on_c, 10, 55, 95
13, 55747, Note_off_c, 10, 55, 64
13, 55776, Note_on_c, 10, 59, 81
13, 55797, Note_off_c, 10, 59, 64
13, 55824, Note_on_c, 10, 55, 69
13, 55847, Note_off_c, 10, 55, 64
13, 55872, Note_on_c, 10, 62, 93
13, 55894, Note_off_c, 10, 62, 64
13, 55920, Note_on_c, 10, 55, 54
13, 55943, Note_off_c, 10, 55, 64
13, 55968, Note_on_c, 10, 59, 81
13, 55990, Note_off_c, 10, 59, 64
13, 56016, Note_on_c, 10, 55, 64
13, 56034, Note_off_c, 10, 55, 64
13, 56112, Note_on_c, 10, 55, 74
13, 56133, Note_off_c, 10, 55, 64
13, 56160, Note_on_c, 10, 59, 71
13, 56182, Note_off_c, 10, 59, 64
13, 56208, Note_on_c, 10, 55, 81
13, 56233, Note_off_c, 10, 55, 64
13, 56256, Note_on_c, 10, 62, 66
13, 56282, Note_off_c, 10, 62, 64
13, 56304, Note_on_c, 10, 55, 51
13, 56328, Note_off_c, 10, 55, 64
13, 56352, Note_on_c, 10, 59, 59
13, 56375, Note_off_c, 10, 59, 64
13, 56400, Note_on_c, 10, 55, 87
13, 56418, Note_off_c, 10, 55, 64
13, 56496, Note_on_c, 10, 55, 78
13, 56517, Note_off_c, 10, 55, 64
13, 56544, Note_on_c, 10, 59, 51
13, 56565, Note_off_c, 10, 59, 64
13, 56592, Note_on_c, 10, 55, 74
13, 56617, Note_off_c, 10, 55, 64
13, 56640, Note_on_c, 10, 62, 78
13, 56664, Note_off_c, 10, 62, 64
13, 56688, Note_on_c, 10, 55, 24
13, 56712, Note_off_c, 10, 55, 64
13, 56736, Note_on_c, 10, 59, 81
13, 56760, Note_off_c, 10, 59, 64
13, 56784, Note_on_c, 10, 55, 59
13, 56807, Note_off_c, 10, 55, 64
13, 56880, Note_on_c, 10, 55, 87
13, 56903, Note_off_c, 10, 55, 64
13, 56928, Note_on_c, 10, 59, 62
13, 56951, Note_off_c, 10, 59, 64
13, 56976, Note_on_c, 10, 55, 69
13, 57001, Note_off_c, 10, 55, 64
13, 57024, Note_on_c, 10, 62, 84
13, 57049, Note_off_c, 10, 62, 64
13, 57072, Note_on_c, 10, 55, 54
13, 57096, Note_off_c, 10, 55, 64
13, 57120, Note_on_c, 10, 59, 81
13, 57142, Note_off_c, 10, 59, 64
13, 57168, Note_on_c, 10, 55, 81
13, 57188, Note_off_c, 10, 55, 64
13, 57264, Note_on_c, 10, 55, 95
13, 57283, Note_off_c, 10, 55, 64
13, 57312, Note_on_c, 10, 59, 81
13, 57333, Note_off_c, 10, 59, 64
13, 57360, Note_on_c, 10, 55, 69
13, 57383, Note_off_c, 10, 55, 64
13, 57408, Note_on_c, 10, 62, 93
13, 57430, Note_off_c, 10, 62, 64
13, 57456, Note_on_c, 10, 55, 54
13, 57479, Note_off_c, 10, 55, 64
13, 57504, Note_on_c, 10, 59, 81
13, 57526, Note_off_c, 10, 59, 64
13, 57552, Note_on_c, 10, 55, 64
13, 57570, Note_off_c, 10, 55, 64
13, 57648, Note_on_c, 10, 55, 74
13, 57669, Note_off_c, 10, 55, 64
13, 57696, Note_on_c, 10, 59, 71
13, 57718, Note_off_c, 10, 59, 64
13, 57744, Note_on_c, 10, 55, 81
13, 57769, Note_off_c, 10, 55, 64
13, 57792, Note_on_c, 10, 62, 66
13, 57818, Note_off_c, 10, 62, 64
13, 57840, Note_on_c, 10, 55, 51
13, 57864, Note_off_c, 10, 55, 64
13, 57888, Note_on_c, 10, 59, 59
13, 57911, Note_off_c, 10, 59, 64
13, 57936, Note_on_c, 10, 55, 87
13, 57954, Note_off_c, 10, 55, 64
13, 58032, Note_on_c, 10, 55, 78
13, 58053, Note_off_c, 10, 55, 64
13, 58080, Note_on_c, 10, 59, 51
13, 58101, Note_off_c, 10, 59, 64
13, 58128, Note_on_c, 10, 55, 74
13, 58153, Note_off_c, 10, 55, 64
13, 58176, Note_on_c, 10, 62, 78
13, 58200, Note_off_c, 10, 62, 64
13, 58224, Note_on_c, 10, 55, 24
13, 58248, Note_off_c, 10, 55, 64
13, 58272, Note_on_c, 10, 59, 81
13, 58296, Note_off_c, 10, 59, 64
13, 58320, Note_on_c, 10, 55, 59
13, 58343, Note_off_c, 10, 55, 64
13, 58416, Note_on_c, 10, 55, 87
13, 58439, Note_off_c, 10, 55, 64
13, 58464, Note_on_c, 10, 59, 62
13, 58487, Note_off_c, 10, 59, 64
13, 58512, Note_on_c, 10, 55, 69
13, 58537, Note_off_c, 10, 55, 64
13, 58560, Note_on_c, 10, 62, 84
13, 58585, Note_off_c, 10, 62, 64
13, 58608, Note_on_c, 10, 55, 54
13, 58632, Note_off_c, 10, 55, 64
13, 58656, Note_on_c, 10, 59, 81
13, 58678, Note_off_c, 10, 59, 64
13, 58704, Note_on_c, 10, 55, 81
13, 58724, Note_off_c, 10, 55, 64
13, 58800, Note_on_c, 10, 55, 95
13, 58819, Note_off_c, 10, 55, 64
13, 58848, Note_on_c, 10, 59, 81
13, 58869, Note_off_c, 10, 59, 64
13, 58896, Note_on_c, 10, 55, 69
13, 58919, Note_off_c, 10, 55, 64
13, 58944, Note_on_c, 10, 62, 93
13, 58966, Note_off_c, 10, 62, 64
13, 58992, Note_on_c, 10, 55, 54
13, 59015, Note_off_c, 10, 55, 64
13, 59040, Note_on_c, 10, 59, 81
13, 59062, Note_off_c, 10, 59, 64
13, 59088, Note_on_c, 10, 55, 64
13, 59106, Note_off_c, 10, 55, 64
13, 59184, Note_on_c, 10, 55, 74
13, 59205, Note_off_c, 10, 55, 64
13, 59232, Note_on_c, 10, 59, 71
13, 59254, Note_off_c, 10, 59, 64
13, 59280, Note_on_c, 10, 55, 81
13, 59305, Note_off_c, 10, 55, 64
13, 59328, Note_on_c, 10, 62, 66
13, 59354, Note_off_c, 10, 62, 64
13, 59376, Note_on_c, 10, 55, 51
13, 59400, Note_off_c, 10, 55, 64
13, 59424, Note_on_c, 10, 59, 59
13, 59447, Note_off_c, 10, 59, 64
13, 59472, Note_on_c, 10, 55, 87
13, 59490, Note_off_c, 10, 55, 64
13, 59568, Note_on_c, 10, 55, 78
13, 59589, Note_off_c, 10, 55, 64
13, 59616, Note_on_c, 10, 59, 51
13, 59637, Note_off_c, 10, 59, 64
13, 59664, Note_on_c, 10, 55, 74
13, 59689, Note_off_c, 10, 55, 64
13, 59712, Note_on_c, 10, 62, 78
13, 59736, Note_off_c, 10, 62, 64
13, 59760, Note_on_c, 10, 55, 24
13, 59784, Note_off_c, 10, 55, 64
13, 59808, Note_on_c, 10, 59, 81
13, 59832, Note_off_c, 10, 59, 64
13, 59856, Note_on_c, 10, 55, 59
13, 59879, Note_off_c, 10, 55, 64
13, 59952, Note_on_c, 10, 55, 87
13, 59975, Note_off_c, 10, 55, 64
13, 60000, Note_on_c, 10, 59, 62
13, 60023, Note_off_c, 10, 59, 64
13, 60048, Note_on_c, 10, 55, 69
13, 60073, Note_off_c, 10, 55, 64
13, 60096, Note_on_c, 10, 62, 84
13, 60121, Note_off_c, 10, 62, 64
13, 60144, Note_on_c, 10, 55, 54
13, 60168, Note_off_c, 10, 55, 64
13, 60192, Note_on_c, 10, 59, 81
13, 60214, Note_off_c, 10, 59, 64
13, 60240, Note_on_c, 10, 55, 81
13, 60260, Note_off_c, 10, 55, 64
13, 60336, Note_on_c, 10, 55, 95
13, 60355, Note_off_c, 10, 55, 64
13, 60384, Note_on_c, 10, 59, 81
13, 60405, Note_off_c, 10, 59, 64
13, 60432, Note_on_c, 10, 55, 69
13, 60455, Note_off_c, 10, 55, 64
13, 60480, Note_on_c, 10, 62, 93
13, 60502, Note_off_c, 10, 62, 64
13, 60528, Note_on_c, 10, 55, 54
13, 60551, Note_off_c, 10, 55, 64
13, 60576, Note_on_c, 10, 59, 81
13, 60598, Note_off_c, 10, 59, 64
13, 60624, Note_on_c, 10, 55, 64
13, 60642, Note_off_c, 10, 55, 64
13, 60720, Note_on_c, 10, 55, 74
13, 60741, Note_off_c, 10, 55, 64
13, 60768, Note_on_c, 10, 59, 71
13, 60790, Note_off_c, 10, 59, 64
13, 60816, Note_on_c, 10, 55, 81
13, 60841, Note_off_c, 10, 55, 64
13, 60864, Note_on_c, 10, 62, 66
13, 60890, Note_off_c, 10, 62, 64
13, 60912, Note_on_c, 10, 55, 51
13, 60936, Note_off_c, 10, 55, 64
13, 60960, Note_on_c, 10, 59, 59
13, 60983, Note_off_c, 10, 59, 64
13, 61008, Note_on_c, 10, 55, 87
13, 61026, Note_off_c, 10, 55, 64
13, 61104, Note_on_c, 10, 55, 78
13, 61125, Note_off_c, 10, 55, 64
13, 61152, Note_on_c, 10, 59, 51
13, 61173, Note_off_c, 10, 59, 64
13, 61200, Note_on_c, 10, 55, 74
13, 61225, Note_off_c, 10, 55, 64
13, 61248, Note_on_c, 10, 62, 78
13, 61272, Note_off_c, 10, 62, 64
13, 61296, Note_on_c, 10, 55, 24
13, 61320, Note_off_c, 10, 55, 64
13, 61344, Note_on_c, 10, 59, 81
13, 61368, Note_off_c, 10, 59, 64
13, 61392, Note_on_c, 10, 55, 59
13, 61415, Note_off_c, 10, 55, 64
13, 61488, Note_on_c, 10, 55, 87
13, 61511, Note_off_c, 10, 55, 64
13, 61536, Note_on_c, 10, 59, 62
13, 61559, Note_off_c, 10, 59, 64
13, 61584, Note_on_c, 10, 55, 69
13, 61609, Note_off_c, 10, 55, 64
13, 61632, Note_on_c, 10, 62, 84
13, 61657, Note_off_c, 10, 62, 64
13, 61680, Note_on_c, 10, 55, 54
13, 61704, Note_off_c, 10, 55, 64
13, 61728, Note_on_c, 10, 59, 81
13, 61750, Note_off_c, 10, 59, 64
13, 61776, Note_on_c, 10, 55, 81
13, 61796, Note_off_c, 10, 55, 64
13, 61872, Note_on_c, 10, 55, 95
13, 61891, Note_off_c, 10, 55, 64
13, 61920, Note_on_c, 10, 59, 81
13, 61941, Note_off_c, 10, 59, 64
13, 61968, Note_on_c, 10, 55, 69
13, 61991, Note_off_c, 10, 55, 64
13, 62016, Note_on_c, 10, 62, 93
13, 62038, Note_off_c, 10, 62, 64
13, 62064, Note_on_c, 10, 55, 54
13, 62087, Note_off_c, 10, 55, 64
13, 62112, Note_on_c, 10, 59, 81
13, 62134, Note_off_c, 10, 59, 64
13, 62160, Note_on_c, 10, 55, 64
13, 62178, Note_off_c, 10, 55, 64
13, 62256, Note_on_c, 10, 55, 74
13, 62277, Note_off_c, 10, 55, 64
13, 62304, Note_on_c, 10, 59, 71
13, 62326, Note_off_c, 10, 59, 64
13, 62352, Note_on_c, 10, 55, 81
13, 62377, Note_off_c, 10, 55, 64
13, 62400, Note_on_c, 10, 62, 66
13, 62426, Note_off_c, 10, 62, 64
13, 62448, Note_on_c, 10, 55, 51
13, 62472, Note_off_c, 10, 55, 64
13, 62496, Note_on_c, 10, 59, 59
13, 62519, Note_off_c, 10, 59, 64
13, 62544, Note_on_c, 10, 55, 87
13, 62562, Note_off_c, 10, 55, 64
13, 62640, Note_on_c, 10, 55, 78
13, 62661, Note_off_c, 10, 55, 64
13, 62688, Note_on_c, 10, 59, 51
13, 62709, Note_off_c, 10, 59, 64
13, 62736, Note_on_c, 10, 55, 74
13, 62761, Note_off_c, 10, 55, 64
13, 62784, Note_on_c, 10, 62, 78
13, 62808, Note_off_c, 10, 62, 64
13, 62832, Note_on_c, 10, 55, 24
13, 62856, Note_off_c, 10, 55, 64
13, 62880, Note_on_c, 10, 59, 81
13, 62904, Note_off_c, 10, 59, 64
13, 62928, Note_on_c, 10, 55, 59
13, 62951, Note_off_c, 10, 55, 64
13, 63024, Note_on_c, 10, 55, 87
13, 63047, Note_off_c, 10, 55, 64
13, 63072, Note_on_c, 10, 59, 62
13, 63095, Note_off_c, 10, 59, 64
13, 63120, Note_on_c, 10, 55, 69
13, 63145, Note_off_c, 10, 55, 64
13, 63168, Note_on_c, 10, 62, 84
13, 63193, Note_off_c, 10, 62, 64
13, 63216, Note_on_c, 10, 55, 54
13, 63240, Note_off_c, 10, 55, 64
13, 63264, Note_on_c, 10, 59, 81
13, 63286, Note_off_c, 10, 59, 64
13, 63312, Note_on_c, 10, 55, 81
13, 63332, Note_off_c, 10, 55, 64
13, 63408, Note_on_c, 10, 55, 95
13, 63427, Note_off_c, 10, 55, 64
13, 63456, Note_on_c, 10, 59, 81
13, 63477, Note_off_c, 10, 59, 64
13, 63504, Note_on_c, 10, 55, 69
13, 63527, Note_off_c, 10, 55, 64
13, 63552, Note_on_c, 10, 62, 93
13, 63574, Note_off_c, 10, 62, 64
13, 63600, Note_on_c, 10, 55, 54
13, 63623, Note_off_c, 10, 55, 64
13, 63648, Note_on_c, 10, 59, 81
13, 63670, Note_off_c, 10, 59, 64
13, 63696, Note_on_c, 10, 55, 64
13, 63714, Note_off_c, 10, 55, 64
13, 63792, Note_on_c, 10, 55, 74
13, 63813, Note_off_c, 10, 55, 64
13, 63840, Note_on_c, 10, 59, 71
13, 63862, Note_off_c, 10, 59, 64
13, 63888, Note_on_c, 10, 55, 81
13, 63913, Note_off_c, 10, 55, 64
13, 63936, Note_on_c, 10, 62, 66
13, 63962, Note_off_c, 10, 62, 64
13, 63984, Note_on_c, 10, 55, 51
13, 64008, Note_off_c, 10, 55, 64
13, 64032, Note_on_c, 10, 59, 59
13, 64055, Note_off_c, 10, 59, 64
13, 64080, Note_on_c, 10, 55, 87
13, 64098, Note_off_c, 10, 55, 64
13, 64176, Note_on_c, 10, 55, 78
13, 64197, Note_off_c, 10, 55, 64
13, 64224, Note_on_c, 10, 59, 51
13, 64245, Note_off_c, 10, 59, 64
13, 64272, Note_on_c, 10, 55, 74
13, 64297, Note_off_c, 10, 55, 64
13, 64320, Note_on_c, 10, 62, 78
13, 64344, Note_off_c, 10, 62, 64
13, 64368, Note_on_c, 10, 55, 24
13, 64392, Note_off_c, 10, 55, 64
13, 64416, Note_on_c, 10, 59, 81
13, 64440, Note_off_c, 10, 59, 64
13, 64464, Note_on_c, 10, 55, 59
13, 64487, Note_off_c, 10, 55, 64
13, 64487, End_track
14, 0, Start_track
14, 0, MIDI_port, 1
14, 0, Title_t, "Muted Gt.           "
14, 46, Program_c, 11, 28
14, 46, Pitch_bend_c, 11, 8192
14, 46, Control_c, 11, 7, 120
14, 46, Control_c, 11, 10, 54
14, 94, Control_c, 11, 91, 90
14, 94, Control_c, 11, 93, 40
14, 94, Control_c, 11, 100, 0
14, 94, Control_c, 11, 101, 0
14, 142, Control_c, 11, 6, 2
14, 37630, Note_on_c, 11, 62, 107
14, 37668, Note_off_c, 11, 62, 64
14, 37678, Note_on_c, 11, 60, 77
14, 37722, Note_off_c, 11, 60, 64
14, 37726, Note_on_c, 11, 55, 71
14, 37772, Note_off_c, 11, 55, 64
14, 37774, Note_on_c, 11, 62, 107
14, 37815, Note_off_c, 11, 62, 64
14, 37870, Note_on_c, 11, 62, 81
14, 37904, Note_off_c, 11, 62, 64
14, 37918, Note_on_c, 11, 60, 81
14, 37966, Note_on_c, 11, 55, 83
14, 37968, Note_off_c, 11, 60, 64
14, 38012, Note_off_c, 11, 55, 64
14, 38014, Note_on_c, 11, 62, 106
14, 38056, Note_off_c, 11, 62, 64
14, 38062, Note_on_c, 11, 57, 77
14, 38105, Note_off_c, 11, 57, 64
14, 38110, Note_on_c, 11, 54, 71
14, 38158, Note_on_c, 11, 62, 107
14, 38159, Note_off_c, 11, 54, 64
14, 38206, Note_off_c, 11, 62, 64
14, 38254, Note_on_c, 11, 62, 77
14, 38296, Note_off_c, 11, 62, 64
14, 38302, Note_on_c, 11, 57, 83
14, 38350, Note_on_c, 11, 54, 80
14, 38352, Note_off_c, 11, 57, 64
14, 38384, Note_off_c, 11, 54, 64
14, 38398, Note_on_c, 11, 62, 108
14, 38438, Note_off_c, 11, 62, 64
14, 38446, Note_on_c, 11, 59, 68
14, 38491, Note_off_c, 11, 59, 64
14, 38494, Note_on_c, 11, 55, 77
14, 38537, Note_off_c, 11, 55, 64
14, 38542, Note_on_c, 11, 62, 108
14, 38580, Note_off_c, 11, 62, 64
14, 38638, Note_on_c, 11, 62, 81
14, 38678, Note_off_c, 11, 62, 64
14, 38686, Note_on_c, 11, 59, 75
14, 38734, Note_on_c, 11, 55, 82
14, 38740, Note_off_c, 11, 59, 64
14, 38769, Note_off_c, 11, 55, 64
14, 38782, Note_on_c, 11, 62, 108
14, 38821, Note_off_c, 11, 62, 64
14, 38830, Note_on_c, 11, 59, 73
14, 38878, Note_on_c, 11, 55, 81
14, 38881, Note_off_c, 11, 59, 64
14, 38924, Note_off_c, 11, 55, 64
14, 38926, Note_on_c, 11, 62, 108
14, 38965, Note_off_c, 11, 62, 64
14, 39022, Note_on_c, 11, 62, 75
14, 39068, Note_off_c, 11, 62, 64
14, 39070, Note_on_c, 11, 59, 87
14, 39118, Note_on_c, 11, 57, 95
14, 39119, Note_off_c, 11, 59, 64
14, 39148, Note_off_c, 11, 57, 64
14, 39166, Note_on_c, 11, 62, 107
14, 39204, Note_off_c, 11, 62, 64
14, 39214, Note_on_c, 11, 60, 77
14, 39258, Note_off_c, 11, 60, 64
14, 39262, Note_on_c, 11, 55, 71
14, 39308, Note_off_c, 11, 55, 64
14, 39310, Note_on_c, 11, 62, 107
14, 39351, Note_off_c, 11, 62, 64
14, 39406, Note_on_c, 11, 62, 81
14, 39440, Note_off_c, 11, 62, 64
14, 39454, Note_on_c, 11, 60, 81
14, 39502, Note_on_c, 11, 55, 83
14, 39504, Note_off_c, 11, 60, 64
14, 39548, Note_off_c, 11, 55, 64
14, 39550, Note_on_c, 11, 62, 106
14, 39592, Note_off_c, 11, 62, 64
14, 39598, Note_on_c, 11, 57, 77
14, 39641, Note_off_c, 11, 57, 64
14, 39646, Note_on_c, 11, 54, 71
14, 39694, Note_on_c, 11, 62, 107
14, 39695, Note_off_c, 11, 54, 64
14, 39742, Note_off_c, 11, 62, 64
14, 39790, Note_on_c, 11, 62, 77
14, 39832, Note_off_c, 11, 62, 64
14, 39838, Note_on_c, 11, 57, 83
14, 39886, Note_on_c, 11, 54, 80
14, 39888, Note_off_c, 11, 57, 64
14, 39920, Note_off_c, 11, 54, 64
14, 39934, Note_on_c, 11, 59, 108
14, 39972, Note_off_c, 11, 59, 64
14, 39982, Note_on_c, 11, 55, 68
14, 40030, Note_on_c, 11, 52, 71
14, 40033, Note_off_c, 11, 55, 64
14, 40071, Note_off_c, 11, 52, 64
14, 40078, Note_on_c, 11, 59, 108
14, 40116, Note_off_c, 11, 59, 64
14, 40174, Note_on_c, 11, 59, 108
14, 40208, Note_off_c, 11, 59, 64
14, 40222, Note_on_c, 11, 55, 68
14, 40269, Note_off_c, 11, 55, 64
14, 40270, Note_on_c, 11, 52, 87
14, 40312, Note_off_c, 11, 52, 64
14, 40318, Note_on_c, 11, 59, 108
14, 40361, Note_off_c, 11, 59, 64
14, 40366, Note_on_c, 11, 55, 66
14, 40413, Note_off_c, 11, 55, 64
14, 40414, Note_on_c, 11, 52, 81
14, 40456, Note_off_c, 11, 52, 64
14, 40462, Note_on_c, 11, 59, 108
14, 40497, Note_off_c, 11, 59, 64
14, 40558, Note_on_c, 11, 59, 108
14, 40595, Note_off_c, 11, 59, 64
14, 40606, Note_on_c, 11, 55, 71
14, 40654, Note_off_c, 11, 55, 64
14, 40654, Note_on_c, 11, 52, 95
14, 40694, Note_off_c, 11, 52, 64
14, 40702, Note_on_c, 11, 62, 107
14, 40740, Note_off_c, 11, 62, 64
14, 40750, Note_on_c, 11, 60, 77
14, 40794, Note_off_c, 11, 60, 64
14, 40798, Note_on_c, 11, 55, 71
14, 40844, Note_off_c, 11, 55, 64
14, 40846, Note_on_c, 11, 62, 107
14, 40887, Note_off_c, 11, 62, 64
14, 40942, Note_on_c, 11, 62, 81
14, 40976, Note_off_c, 11, 62, 64
14, 40990, Note_on_c, 11, 60, 81
14, 41038, Note_on_c, 11, 55, 83
14, 41040, Note_off_c, 11, 60, 64
14, 41084, Note_off_c, 11, 55, 64
14, 41086, Note_on_c, 11, 62, 106
14, 41128, Note_off_c, 11, 62, 64
14, 41134, Note_on_c, 11, 57, 77
14, 41177, Note_off_c, 11, 57, 64
14, 41182, Note_on_c, 11, 54, 71
14, 41230, Note_on_c, 11, 62, 107
14, 41231, Note_off_c, 11, 54, 64
14, 41278, Note_off_c, 11, 62, 64
14, 41326, Note_on_c, 11, 62, 77
14, 41368, Note_off_c, 11, 62, 64
14, 41374, Note_on_c, 11, 57, 83
14, 41422, Note_on_c, 11, 54, 80
14, 41424, Note_off_c, 11, 57, 64
14, 41456, Note_off_c, 11, 54, 64
14, 41470, Note_on_c, 11, 62, 108
14, 41510, Note_off_c, 11, 62, 64
14, 41518, Note_on_c, 11, 59, 68
14, 41563, Note_off_c, 11, 59, 64
14, 41566, Note_on_c, 11, 55, 77
14, 41609, Note_off_c, 11, 55, 64
14, 41614, Note_on_c, 11, 62, 108
14, 41652, Note_off_c, 11, 62, 64
14, 41710, Note_on_c, 11, 62, 81
14, 41750, Note_off_c, 11, 62, 64
14, 41758, Note_on_c, 11, 59, 75
14, 41806, Note_on_c, 11, 55, 82
14, 41812, Note_off_c, 11, 59, 64
14, 41841, Note_off_c, 11, 55, 64
14, 41854, Note_on_c, 11, 62, 108
14, 41893, Note_off_c, 11, 62, 64
14, 41902, Note_on_c, 11, 59, 73
14, 41950, Note_on_c, 11, 55, 81
14, 41953, Note_off_c, 11, 59, 64
14, 41996, Note_off_c, 11, 55, 64
14, 41998, Note_on_c, 11, 62, 108
14, 42037, Note_off_c, 11, 62, 64
14, 42094, Note_on_c, 11, 62, 75
14, 42140, Note_off_c, 11, 62, 64
14, 42142, Note_on_c, 11, 59, 87
14, 42190, Note_on_c, 11, 57, 95
14, 42191, Note_off_c, 11, 59, 64
14, 42220, Note_off_c, 11, 57, 64
14, 42238, Note_on_c, 11, 62, 108
14, 42272, Note_off_c, 11, 62, 64
14, 42286, Note_on_c, 11, 60, 68
14, 42332, Note_off_c, 11, 60, 64
14, 42334, Note_on_c, 11, 55, 73
14, 42377, Note_off_c, 11, 55, 64
14, 42382, Note_on_c, 11, 62, 101
14, 42422, Note_off_c, 11, 62, 64
14, 42478, Note_on_c, 11, 62, 101
14, 42517, Note_off_c, 11, 62, 64
14, 42526, Note_on_c, 11, 60, 66
14, 42573, Note_off_c, 11, 60, 64
14, 42574, Note_on_c, 11, 55, 86
14, 42615, Note_off_c, 11, 55, 64
14, 42622, Note_on_c, 11, 62, 108
14, 42667, Note_off_c, 11, 62, 64
14, 42670, Note_on_c, 11, 60, 63
14, 42715, Note_off_c, 11, 60, 64
14, 42718, Note_on_c, 11, 55, 68
14, 42761, Note_off_c, 11, 55, 64
14, 42766, Note_on_c, 11, 62, 108
14, 42805, Note_off_c, 11, 62, 64
14, 42862, Note_on_c, 11, 62, 99
14, 42906, Note_off_c, 11, 62, 64
14, 42910, Note_on_c, 11, 60, 77
14, 42958, Note_on_c, 11, 55, 86
14, 42963, Note_off_c, 11, 60, 64
14, 42991, Note_off_c, 11, 55, 64
14, 43006, Note_on_c, 11, 62, 101
14, 43006, Note_on_c, 11, 57, 108
14, 43032, Note_off_c, 11, 62, 64
14, 43034, Note_off_c, 11, 57, 64
14, 43054, Note_on_c, 11, 62, 92
14, 43054, Note_on_c, 11, 57, 89
14, 43093, Note_off_c, 11, 57, 64
14, 43095, Note_off_c, 11, 62, 64
14, 43294, Note_on_c, 11, 55, 108
14, 43294, Note_on_c, 11, 60, 108
14, 43321, Note_off_c, 11, 60, 64
14, 43322, Note_off_c, 11, 55, 64
14, 43342, Note_on_c, 11, 55, 108
14, 43342, Note_on_c, 11, 60, 92
14, 43373, Note_off_c, 11, 60, 64
14, 43374, Note_off_c, 11, 55, 64
14, 43390, Note_on_c, 11, 57, 108
14, 43390, Note_on_c, 11, 62, 95
14, 43419, Note_off_c, 11, 57, 64
14, 43420, Note_off_c, 11, 62, 64
14, 43438, Note_on_c, 11, 57, 108
14, 43438, Note_on_c, 11, 62, 92
14, 43473, Note_off_c, 11, 62, 64
14, 43475, Note_off_c, 11, 57, 64
14, 43774, Note_on_c, 11, 62, 108
14, 43774, Note_on_c, 11, 57, 108
14, 43800, Note_off_c, 11, 62, 64
14, 43801, Note_off_c, 11, 57, 64
14, 43822, Note_on_c, 11, 57, 103
14, 43822, Note_on_c, 11, 62, 90
14, 43864, Note_off_c, 11, 57, 64
14, 43865, Note_off_c, 11, 62, 64
14, 44062, Note_on_c, 11, 60, 101
14, 44062, Note_on_c, 11, 55, 108
14, 44090, Note_off_c, 11, 55, 64
14, 44092, Note_off_c, 11, 60, 64
14, 44110, Note_on_c, 11, 55, 92
14, 44110, Note_on_c, 11, 60, 92
14, 44141, Note_off_c, 11, 60, 64
14, 44142, Note_off_c, 11, 55, 64
14, 44158, Note_on_c, 11, 57, 108
14, 44158, Note_on_c, 11, 62, 103
14, 44189, Note_off_c, 11, 62, 64
14, 44190, Note_off_c, 11, 57, 64
14, 44206, Note_on_c, 11, 57, 99
14, 44206, Note_on_c, 11, 62, 92
14, 44238, Note_off_c, 11, 62, 64
14, 44240, Note_off_c, 11, 57, 64
14, 44240, End_track
15, 0, Start_track
15, 0, MIDI_port, 1
15, 0, Title_t, "Halo Pad            "
15, 12, Control_c, 12, 0, 0
15, 24, Program_c, 12, 94
15, 36, Pitch_bend_c, 12, 8192
15, 48, Control_c, 12, 7, 100
15, 60, Control_c, 12, 10, 79
15, 72, Control_c, 12, 91, 80
15, 84, Control_c, 12, 93, 20
15, 96, Control_c, 12, 100, 0
15, 108, Control_c, 12, 101, 0
15, 120, Control_c, 12, 6, 2
15, 25344, Note_on_c, 12, 67, 96
15, 25344, Note_on_c, 12, 62, 84
15, 25344, Note_on_c, 12, 59, 105
15, 25344, Note_on_c, 12, 78, 58
15, 25344, Note_on_c, 12, 74, 72
15, 25353, Note_off_c, 12, 78, 64
15, 25353, Note_off_c, 12, 74, 64
15, 26867, Note_off_c, 12, 59, 64
15, 26872, Note_on_c, 12, 60, 66
15, 26872, Note_on_c, 12, 64, 84
15, 26884, Note_off_c, 12, 62, 64
15, 28410, Note_on_c, 12, 69, 74
15, 28419, Note_off_c, 12, 67, 64
15, 29948, Note_on_c, 12, 66, 58
15, 29951, Note_on_c, 12, 62, 72
15, 29960, Note_off_c, 12, 64, 64
15, 29961, Note_off_c, 12, 60, 64
15, 31486, Note_on_c, 12, 59, 84
15, 31486, Note_on_c, 12, 67, 79
15, 31487, Note_off_c, 12, 66, 64
15, 31502, Note_off_c, 12, 69, 64
15, 33021, Note_on_c, 12, 60, 74
15, 33021, Note_on_c, 12, 64, 79
15, 33027, Note_off_c, 12, 59, 64
15, 33035, Note_off_c, 12, 62, 64
15, 34560, Note_on_c, 12, 69, 84
15, 34568, Note_off_c, 12, 67, 64
15, 35326, Note_on_c, 12, 62, 77
15, 35326, Note_on_c, 12, 66, 64
15, 35334, Note_off_c, 12, 64, 64
15, 35337, Note_off_c, 12, 60, 64
15, 35709, Note_on_c, 12, 67, 64
15, 35709, Note_on_c, 12, 64, 61
15, 35710, Note_on_c, 12, 60, 64
15, 35714, Note_off_c, 12, 66, 64
15, 35725, Note_off_c, 12, 62, 64
15, 35734, Note_off_c, 12, 69, 64
15, 36096, Note_on_c, 12, 59, 66
15, 36096, Note_on_c, 12, 62, 79
15, 36105, Note_off_c, 12, 60, 64
15, 36108, Note_off_c, 12, 64, 64
15, 37632, Note_off_c, 12, 62, 65
15, 37632, Note_off_c, 12, 59, 65
15, 37632, Note_off_c, 12, 67, 65
15, 37632, Note_on_c, 12, 64, 79
15, 37632, Note_on_c, 12, 55, 74
15, 37632, Note_on_c, 12, 48, 66
15, 37995, Note_off_c, 12, 48, 64
15, 38014, Note_off_c, 12, 55, 64
15, 38015, Note_off_c, 12, 64, 64
15, 38016, Note_on_c, 12, 66, 69
15, 38016, Note_on_c, 12, 50, 69
15, 38016, Note_on_c, 12, 57, 72
15, 38400, Note_on_c, 12, 62, 64
15, 38400, Note_on_c, 12, 67, 72
15, 38400, Note_on_c, 12, 55, 72
15, 38415, Note_off_c, 12, 57, 64
15, 38416, Note_off_c, 12, 50, 64
15, 38421, Note_off_c, 12, 66, 64
15, 39146, Note_off_c, 12, 55, 64
15, 39168, Note_on_c, 12, 64, 64
15, 39168, Note_on_c, 12, 48, 58
15, 39168, Note_on_c, 12, 55, 86
15, 39174, Note_off_c, 12, 67, 64
15, 39183, Note_off_c, 12, 62, 64
15, 39538, Note_off_c, 12, 48, 64
15, 39552, Note_on_c, 12, 66, 72
15, 39552, Note_on_c, 12, 50, 74
15, 39552, Note_on_c, 12, 57, 64
15, 39553, Note_off_c, 12, 55, 64
15, 39562, Note_off_c, 12, 64, 64
15, 39914, Note_off_c, 12, 57, 64
15, 39936, Note_off_c, 12, 50, 64
15, 39936, Note_on_c, 12, 52, 84
15, 39936, Note_on_c, 12, 67, 79
15, 39936, Note_on_c, 12, 59, 69
15, 39952, Note_off_c, 12, 66, 64
15, 40489, Note_off_c, 12, 59, 64
15, 40512, Note_on_c, 12, 66, 66
15, 40512, Note_on_c, 12, 57, 55
15, 40512, Note_on_c, 12, 50, 66
15, 40516, Note_off_c, 12, 52, 64
15, 40531, Note_off_c, 12, 67, 64
15, 40699, Note_off_c, 12, 57, 64
15, 40703, Note_off_c, 12, 50, 64
15, 40704, Note_on_c, 12, 64, 69
15, 40704, Note_on_c, 12, 48, 55
15, 40704, Note_on_c, 12, 55, 96
15, 40715, Note_off_c, 12, 66, 64
15, 41084, Note_off_c, 12, 48, 64
15, 41088, Note_on_c, 12, 66, 74
15, 41088, Note_on_c, 12, 50, 72
15, 41088, Note_on_c, 12, 57, 64
15, 41096, Note_off_c, 12, 55, 64
15, 41100, Note_off_c, 12, 64, 64
15, 41472, Note_on_c, 12, 62, 69
15, 41472, Note_on_c, 12, 67, 77
15, 41472, Note_on_c, 12, 55, 79
15, 41482, Note_off_c, 12, 57, 64
15, 41482, Note_off_c, 12, 50, 64
15, 41490, Note_off_c, 12, 66, 64
15, 42221, Note_off_c, 12, 55, 64
15, 42240, Note_on_c, 12, 64, 64
15, 42240, Note_on_c, 12, 55, 77
15, 42240, Note_on_c, 12, 48, 74
15, 42246, Note_off_c, 12, 67, 64
15, 42249, Note_off_c, 12, 62, 64
15, 42990, Note_off_c, 12, 48, 64
15, 42997, Note_off_c, 12, 55, 64
15, 43008, Note_off_c, 12, 64, 64
15, 43008, Note_on_c, 12, 57, 64
15, 43008, Note_on_c, 12, 50, 72
15, 43008, Note_on_c, 12, 62, 89
15, 43035, Note_off_c, 12, 62, 64
15, 43040, Note_off_c, 12, 57, 64
15, 43041, Note_off_c, 12, 50, 64
15, 43056, Note_on_c, 12, 62, 66
15, 43056, Note_on_c, 12, 50, 79
15, 43056, Note_on_c, 12, 57, 64
15, 43100, Note_off_c, 12, 62, 64
15, 43101, Note_off_c, 12, 57, 64
15, 43104, Note_off_c, 12, 50, 64
15, 43296, Note_on_c, 12, 48, 79
15, 43296, Note_on_c, 12, 55, 79
15, 43296, Note_on_c, 12, 60, 110
15, 43328, Note_off_c, 12, 60, 64
15, 43329, Note_off_c, 12, 48, 64
15, 43329, Note_off_c, 12, 55, 64
15, 43344, Note_on_c, 12, 60, 84
15, 43344, Note_on_c, 12, 55, 84
15, 43344, Note_on_c, 12, 48, 58
15, 43368, Note_off_c, 12, 48, 64
15, 43374, Note_off_c, 12, 55, 64
15, 43375, Note_off_c, 12, 60, 64
15, 43392, Note_on_c, 12, 62, 84
15, 43392, Note_on_c, 12, 50, 86
15, 43392, Note_on_c, 12, 57, 89
15, 43419, Note_off_c, 12, 57, 64
15, 43420, Note_off_c, 12, 62, 64
15, 43422, Note_off_c, 12, 50, 64
15, 43440, Note_on_c, 12, 62, 55
15, 43440, Note_on_c, 12, 57, 66
15, 43440, Note_on_c, 12, 50, 89
15, 43480, Note_off_c, 12, 62, 64
15, 43480, Note_off_c, 12, 57, 64
15, 43480, Note_off_c, 12, 50, 64
15, 43776, Note_on_c, 12, 50, 110
15, 43776, Note_on_c, 12, 62, 84
15, 43776, Note_on_c, 12, 57, 93
15, 43810, Note_off_c, 12, 62, 64
15, 43810, Note_off_c, 12, 57, 64
15, 43812, Note_off_c, 12, 50, 64
15, 43824, Note_on_c, 12, 62, 66
15, 43824, Note_on_c, 12, 50, 79
15, 43824, Note_on_c, 12, 57, 74
15, 43866, Note_off_c, 12, 57, 64
15, 43867, Note_off_c, 12, 50, 64
15, 43868, Note_off_c, 12, 62, 64
15, 44064, Note_on_c, 12, 60, 84
15, 44064, Note_on_c, 12, 55, 89
15, 44064, Note_on_c, 12, 48, 110
15, 44094, Note_off_c, 12, 48, 64
15, 44095, Note_off_c, 12, 55, 64
15, 44098, Note_off_c, 12, 60, 64
15, 44112, Note_on_c, 12, 55, 77
15, 44112, Note_on_c, 12, 48, 64
15, 44112, Note_on_c, 12, 60, 84
15, 44135, Note_off_c, 12, 48, 64
15, 44140, Note_off_c, 12, 55, 64
15, 44142, Note_off_c, 12, 60, 64
15, 44160, Note_on_c, 12, 50, 96
15, 44160, Note_on_c, 12, 62, 72
15, 44160, Note_on_c, 12, 57, 102
15, 44189, Note_off_c, 12, 50, 64
15, 44189, Note_off_c, 12, 62, 64
15, 44189, Note_off_c, 12, 57, 64
15, 44208, Note_on_c, 12, 57, 84
15, 44208, Note_on_c, 12, 50, 93
15, 44208, Note_on_c, 12, 62, 77
15, 44245, Note_off_c, 12, 57, 64
15, 44245, Note_off_c, 12, 62, 64
15, 44249, Note_off_c, 12, 50, 64
15, 44544, Note_on_c, 12, 67, 96
15, 44544, Note_on_c, 12, 62, 84
15, 44544, Note_on_c, 12, 59, 105
15, 46067, Note_off_c, 12, 59, 64
15, 46072, Note_on_c, 12, 60, 66
15, 46072, Note_on_c, 12, 64, 84
15, 46084, Note_off_c, 12, 62, 64
15, 47610, Note_on_c, 12, 69, 74
15, 47619, Note_off_c, 12, 67, 64
15, 49148, Note_on_c, 12, 66, 58
15, 49151, Note_on_c, 12, 62, 72
15, 49160, Note_off_c, 12, 64, 64
15, 49161, Note_off_c, 12, 60, 64
15, 50686, Note_on_c, 12, 59, 84
15, 50686, Note_on_c, 12, 67, 79
15, 50687, Note_off_c, 12, 66, 64
15, 50702, Note_off_c, 12, 69, 64
15, 52221, Note_on_c, 12, 60, 74
15, 52221, Note_on_c, 12, 64, 79
15, 52227, Note_off_c, 12, 59, 64
15, 52235, Note_off_c, 12, 62, 64
15, 53760, Note_on_c, 12, 69, 84
15, 53768, Note_off_c, 12, 67, 64
15, 54526, Note_on_c, 12, 62, 77
15, 54526, Note_on_c, 12, 66, 64
15, 54534, Note_off_c, 12, 64, 64
15, 54537, Note_off_c, 12, 60, 64
15, 54909, Note_on_c, 12, 67, 64
15, 54909, Note_on_c, 12, 64, 61
15, 54910, Note_on_c, 12, 60, 64
15, 54914, Note_off_c, 12, 66, 64
15, 54925, Note_off_c, 12, 62, 64
15, 54934, Note_off_c, 12, 69, 64
15, 55296, Note_off_c, 12, 67, 65
15, 55296, Note_off_c, 12, 64, 64
15, 55296, Note_off_c, 12, 60, 64
15, 55296, Note_on_c, 12, 55, 96
15, 55296, Note_on_c, 12, 59, 93
15, 55296, Note_on_c, 12, 62, 93
15, 56832, Note_off_c, 12, 62, 65
15, 56832, Note_off_c, 12, 59, 65
15, 56832, Note_off_c, 12, 55, 64
15, 56832, Note_on_c, 12, 55, 96
15, 56832, Note_on_c, 12, 59, 93
15, 56832, Note_on_c, 12, 62, 93
15, 58368, Note_off_c, 12, 62, 65
15, 58368, Note_off_c, 12, 59, 65
15, 58368, Note_off_c, 12, 55, 64
15, 58368, Note_on_c, 12, 55, 96
15, 58368, Note_on_c, 12, 59, 93
15, 58368, Note_on_c, 12, 62, 93
15, 59904, Note_off_c, 12, 62, 65
15, 59904, Note_off_c, 12, 59, 65
15, 59904, Note_off_c, 12, 55, 64
15, 59904, Note_on_c, 12, 55, 96
15, 59904, Note_on_c, 12, 59, 93
15, 59904, Note_on_c, 12, 62, 93
15, 61440, Note_off_c, 12, 62, 65
15, 61440, Note_off_c, 12, 59, 65
15, 61440, Note_off_c, 12, 55, 64
15, 61440, Note_on_c, 12, 55, 96
15, 61440, Note_on_c, 12, 59, 93
15, 61440, Note_on_c, 12, 62, 93
15, 62976, Note_off_c, 12, 62, 65
15, 62976, Note_off_c, 12, 59, 65
15, 62976, Note_off_c, 12, 55, 64
15, 62976, Note_on_c, 12, 55, 96
15, 62976, Note_on_c, 12, 59, 93
15, 62976, Note_on_c, 12, 62, 93
15, 64512, Note_off_c, 12, 62, 65
15, 64512, Note_off_c, 12, 59, 65
15, 64512, Note_off_c, 12, 55, 64
15, 64512, Note_on_c, 12, 62, 93
15, 64512, Note_on_c, 12, 59, 93
15, 64512, Note_on_c, 12, 55, 96
15, 65856, Note_off_c, 12, 55, 64
15, 65856, Note_off_c, 12, 59, 65
15, 65856, Note_off_c, 12, 62, 65
15, 65856, End_track
16, 0, Start_track
16, 0, MIDI_port, 1
16, 0, Title_t, "(c) Copyright 1992  "
16, 24, Control_c, 13, 0, 0
16, 48, Program_c, 13, 0
16, 72, Pitch_bend_c, 13, 8192
16, 96, Control_c, 13, 7, 80
16, 120, Control_c, 13, 10, 64
16, 144, Control_c, 13, 91, 20
16, 168, Control_c, 13, 93, 0
16, 192, Control_c, 13, 100, 0
16, 240, Control_c, 13, 101, 0
16, 288, Control_c, 13, 6, 2
16, 288, End_track
17, 0, Start_track
17, 0, MIDI_port, 1
17, 0, Title_t, "TRAN TRACKS INC.    "
17, 24, Control_c, 14, 0, 0
17, 48, Program_c, 14, 0
17, 72, Pitch_bend_c, 14, 8192
17, 96, Control_c, 14, 7, 80
17, 120, Control_c, 14, 10, 64
17, 144, Control_c, 14, 91, 20
17, 168, Control_c, 14, 93, 0
17, 192, Control_c, 14, 100, 0
17, 240, Control_c, 14, 101, 0
17, 288, Control_c, 14, 6, 2
17, 288, End_track
0, 0, End_of_file
