0, 0, Header, 1, 9, 960
1, 0, Start_track
1, 0, Control_c, 0, 101, 0
1, 0, Control_c, 0, 100, 0
1, 0, Control_c, 0, 6, 12
1, 0, Control_c, 0, 38, 0
1, 0, Control_c, 1, 101, 0
1, 0, Control_c, 1, 100, 0
1, 0, Control_c, 1, 6, 12
1, 0, Control_c, 1, 38, 0
1, 0, Control_c, 2, 101, 0
1, 0, Control_c, 2, 100, 0
1, 0, Control_c, 2, 6, 12
1, 0, Control_c, 2, 38, 0
1, 0, Control_c, 3, 101, 0
1, 0, Control_c, 3, 100, 0
1, 0, Control_c, 3, 6, 12
1, 0, Control_c, 3, 38, 0
1, 0, Control_c, 4, 101, 0
1, 0, Control_c, 4, 100, 0
1, 0, Control_c, 4, 6, 12
1, 0, Control_c, 4, 38, 0
1, 0, Control_c, 5, 101, 0
1, 0, Control_c, 5, 100, 0
1, 0, Control_c, 5, 6, 12
1, 0, Control_c, 5, 38, 0
1, 0, Control_c, 6, 101, 0
1, 0, Control_c, 6, 100, 0
1, 0, Control_c, 6, 6, 12
1, 0, Control_c, 6, 38, 0
1, 0, Control_c, 7, 101, 0
1, 0, Control_c, 7, 100, 0
1, 0, Control_c, 7, 6, 12
1, 0, Control_c, 7, 38, 0
1, 0, Control_c, 8, 101, 0
1, 0, Control_c, 8, 100, 0
1, 0, Control_c, 8, 6, 12
1, 0, Control_c, 8, 38, 0
1, 0, Control_c, 9, 101, 0
1, 0, Control_c, 9, 100, 0
1, 0, Control_c, 9, 6, 12
1, 0, Control_c, 9, 38, 0
1, 0, Control_c, 10, 101, 0
1, 0, Control_c, 10, 100, 0
1, 0, Control_c, 10, 6, 12
1, 0, Control_c, 10, 38, 0
1, 0, Control_c, 11, 101, 0
1, 0, Control_c, 11, 100, 0
1, 0, Control_c, 11, 6, 12
1, 0, Control_c, 11, 38, 0
1, 0, Control_c, 12, 101, 0
1, 0, Control_c, 12, 100, 0
1, 0, Control_c, 12, 6, 12
1, 0, Control_c, 12, 38, 0
1, 0, Control_c, 13, 101, 0
1, 0, Control_c, 13, 100, 0
1, 0, Control_c, 13, 6, 12
1, 0, Control_c, 13, 38, 0
1, 0, Control_c, 14, 101, 0
1, 0, Control_c, 14, 100, 0
1, 0, Control_c, 14, 6, 12
1, 0, Control_c, 14, 38, 0
1, 0, Control_c, 15, 101, 0
1, 0, Control_c, 15, 100, 0
1, 0, Control_c, 15, 6, 12
1, 0, Control_c, 15, 38, 0
1, 0, Time_signature, 4, 2, 24, 8
1, 0, Tempo, 1000000
1, 149760, Tempo, 500000
1, 245760, Tempo, 1000000
1, 318720, Tempo, 1224489
1, 322560, Tempo, 1764705
1, 322560, End_track
2, 0, Start_track
2, 0, Pitch_bend_c, 0, 8192
2, 0, Control_c, 0, 7, 95
2, 0, Control_c, 0, 10, 63
2, 0, Control_c, 0, 93, 63
2, 0, Control_c, 0, 91, 87
2, 0, Control_c, 0, 95, 0
2, 0, Control_c, 0, 92, 0
2, 0, Control_c, 0, 11, 127
2, 0, Program_c, 0, 0
2, 3840, Note_on_c, 0, 60, 95
2, 4800, Note_off_c, 0, 60, 95
2, 4800, Note_on_c, 0, 69, 111
2, 5520, Note_off_c, 0, 69, 111
2, 5520, Note_on_c, 0, 67, 95
2, 5640, Note_off_c, 0, 67, 95
2, 5640, Note_on_c, 0, 65, 79
2, 5760, Note_off_c, 0, 65, 79
2, 5760, Note_on_c, 0, 67, 95
2, 6480, Note_off_c, 0, 67, 95
2, 6480, Note_on_c, 0, 65, 95
2, 6600, Note_off_c, 0, 65, 95
2, 6600, Note_on_c, 0, 64, 95
2, 6720, Note_off_c, 0, 64, 95
2, 6720, Note_on_c, 0, 65, 95
2, 7320, Note_off_c, 0, 65, 95
2, 7440, Note_on_c, 0, 64, 79
2, 7560, Note_off_c, 0, 64, 79
2, 7560, Note_on_c, 0, 62, 79
2, 7680, Note_off_c, 0, 62, 79
2, 7680, Note_on_c, 0, 60, 95
2, 8400, Note_off_c, 0, 60, 95
2, 8400, Note_on_c, 0, 62, 95
2, 8520, Note_off_c, 0, 62, 95
2, 8520, Note_on_c, 0, 60, 95
2, 8640, Note_off_c, 0, 60, 95
2, 8640, Note_on_c, 0, 69, 111
2, 9360, Note_off_c, 0, 69, 111
2, 9360, Note_on_c, 0, 67, 79
2, 9480, Note_off_c, 0, 67, 79
2, 9480, Note_on_c, 0, 65, 79
2, 9600, Note_off_c, 0, 65, 79
2, 9600, Note_on_c, 0, 67, 95
2, 10200, Note_off_c, 0, 67, 95
2, 10320, Note_on_c, 0, 65, 79
2, 10440, Note_off_c, 0, 65, 79
2, 10440, Note_on_c, 0, 64, 79
2, 10560, Note_off_c, 0, 64, 79
2, 10560, Note_on_c, 0, 65, 111
2, 11280, Note_off_c, 0, 65, 111
2, 11280, Note_on_c, 0, 64, 79
2, 11400, Note_off_c, 0, 64, 79
2, 11400, Note_on_c, 0, 62, 79
2, 11520, Note_off_c, 0, 62, 79
2, 11520, Note_on_c, 0, 62, 95
2, 11640, Note_off_c, 0, 62, 95
2, 11640, Note_on_c, 0, 60, 79
2, 12480, Note_off_c, 0, 60, 79
2, 12480, Note_on_c, 0, 65, 111
2, 13200, Note_off_c, 0, 65, 111
2, 13200, Note_on_c, 0, 64, 63
2, 13320, Note_off_c, 0, 64, 63
2, 13320, Note_on_c, 0, 62, 79
2, 13440, Note_off_c, 0, 62, 79
2, 13440, Note_on_c, 0, 64, 95
2, 14160, Note_off_c, 0, 64, 95
2, 14160, Note_on_c, 0, 62, 79
2, 14280, Note_off_c, 0, 62, 79
2, 14280, Note_on_c, 0, 60, 79
2, 14400, Note_off_c, 0, 60, 79
2, 14400, Note_on_c, 0, 62, 95
2, 15120, Note_off_c, 0, 62, 95
2, 15120, Note_on_c, 0, 60, 79
2, 15240, Note_off_c, 0, 60, 79
2, 15240, Note_on_c, 0, 59, 79
2, 15360, Note_off_c, 0, 59, 79
2, 15360, Note_on_c, 0, 60, 95
2, 16080, Note_off_c, 0, 60, 95
2, 16080, Note_on_c, 0, 62, 79
2, 16200, Note_off_c, 0, 62, 79
2, 16200, Note_on_c, 0, 64, 95
2, 16320, Note_off_c, 0, 64, 95
2, 16320, Note_on_c, 0, 65, 111
2, 17040, Note_off_c, 0, 65, 111
2, 17040, Note_on_c, 0, 64, 63
2, 17160, Note_off_c, 0, 64, 63
2, 17160, Note_on_c, 0, 62, 79
2, 17280, Note_off_c, 0, 62, 79
2, 17280, Note_on_c, 0, 64, 95
2, 18000, Note_off_c, 0, 64, 95
2, 18000, Note_on_c, 0, 62, 79
2, 18120, Note_off_c, 0, 62, 79
2, 18120, Note_on_c, 0, 60, 79
2, 18240, Note_off_c, 0, 60, 79
2, 18240, Note_on_c, 0, 62, 79
2, 18960, Note_off_c, 0, 62, 79
2, 18960, Note_on_c, 0, 60, 79
2, 19080, Note_off_c, 0, 60, 79
2, 19080, Note_on_c, 0, 59, 95
2, 19200, Note_off_c, 0, 59, 95
2, 19200, Note_on_c, 0, 60, 111
2, 20160, Note_off_c, 0, 60, 111
2, 20160, Note_on_c, 0, 65, 127
2, 20400, Note_off_c, 0, 65, 127
2, 20400, Note_on_c, 0, 64, 95
2, 20640, Note_off_c, 0, 64, 95
2, 20640, Note_on_c, 0, 62, 95
2, 20880, Note_off_c, 0, 62, 95
2, 20880, Note_on_c, 0, 60, 95
2, 21120, Note_off_c, 0, 60, 95
2, 21120, Note_on_c, 0, 58, 79
2, 21120, Note_on_c, 0, 54, 95
2, 21360, Note_off_c, 0, 58, 79
2, 21360, Note_off_c, 0, 54, 95
2, 21360, Note_on_c, 0, 55, 95
2, 22080, Note_off_c, 0, 55, 95
2, 22320, Note_on_c, 0, 67, 111
2, 22560, Note_off_c, 0, 67, 111
2, 22560, Note_on_c, 0, 69, 111
2, 22800, Note_off_c, 0, 69, 111
2, 22800, Note_on_c, 0, 71, 95
2, 23040, Note_off_c, 0, 71, 95
2, 23040, Note_on_c, 0, 72, 95
2, 23280, Note_off_c, 0, 72, 95
2, 23280, Note_on_c, 0, 69, 79
2, 23520, Note_off_c, 0, 69, 79
2, 23520, Note_on_c, 0, 64, 95
2, 23760, Note_off_c, 0, 64, 95
2, 23760, Note_on_c, 0, 69, 95
2, 24240, Note_off_c, 0, 69, 95
2, 24240, Note_on_c, 0, 62, 95
2, 24480, Note_off_c, 0, 62, 95
2, 24480, Note_on_c, 0, 64, 95
2, 24960, Note_off_c, 0, 64, 95
2, 24960, Note_on_c, 0, 57, 79
2, 25200, Note_off_c, 0, 57, 79
2, 25200, Note_on_c, 0, 69, 79
2, 25440, Note_off_c, 0, 69, 79
2, 25440, Note_on_c, 0, 60, 79
2, 25440, Note_on_c, 0, 57, 79
2, 25800, Note_off_c, 0, 60, 79
2, 25800, Note_off_c, 0, 57, 79
2, 25920, Note_on_c, 0, 60, 95
2, 26160, Note_off_c, 0, 60, 95
2, 26160, Note_on_c, 0, 62, 111
2, 26400, Note_off_c, 0, 62, 111
2, 26400, Note_on_c, 0, 64, 111
2, 26880, Note_off_c, 0, 64, 111
2, 26880, Note_on_c, 0, 68, 79
2, 26880, Note_on_c, 0, 60, 95
2, 26880, Note_on_c, 0, 60, 111
2, 27120, Note_off_c, 0, 68, 79
2, 27120, Note_off_c, 0, 60, 95
2, 27120, Note_off_c, 0, 60, 111
2, 27120, Note_on_c, 0, 72, 111
2, 28320, Note_off_c, 0, 72, 111
2, 28320, Note_on_c, 0, 68, 95
2, 28320, Note_on_c, 0, 60, 95
2, 28320, Note_on_c, 0, 60, 111
2, 28560, Note_off_c, 0, 68, 95
2, 28560, Note_off_c, 0, 60, 95
2, 28560, Note_off_c, 0, 60, 111
2, 28560, Note_on_c, 0, 72, 95
2, 29280, Note_off_c, 0, 72, 95
2, 29280, Note_on_c, 0, 77, 111
2, 29760, Note_off_c, 0, 77, 111
2, 29760, Note_on_c, 0, 72, 95
2, 30000, Note_off_c, 0, 72, 95
2, 30000, Note_on_c, 0, 69, 95
2, 30240, Note_off_c, 0, 69, 95
2, 30240, Note_on_c, 0, 72, 111
2, 30600, Note_off_c, 0, 72, 111
2, 30720, Note_on_c, 0, 62, 95
2, 30720, Note_on_c, 0, 60, 95
2, 30720, Note_on_c, 0, 48, 111
2, 30720, Note_on_c, 0, 46, 79
2, 31680, Note_off_c, 0, 62, 95
2, 31680, Note_off_c, 0, 60, 95
2, 31680, Note_off_c, 0, 48, 111
2, 31680, Note_off_c, 0, 46, 79
2, 31680, Note_on_c, 0, 72, 111
2, 31680, Note_on_c, 0, 69, 95
2, 31680, Note_on_c, 0, 53, 111
2, 32400, Note_off_c, 0, 72, 111
2, 32400, Note_off_c, 0, 69, 95
2, 32400, Note_off_c, 0, 53, 111
2, 32400, Note_on_c, 0, 67, 95
2, 32520, Note_off_c, 0, 67, 95
2, 32520, Note_on_c, 0, 65, 79
2, 32640, Note_off_c, 0, 65, 79
2, 32640, Note_on_c, 0, 72, 95
2, 32640, Note_on_c, 0, 58, 111
2, 32640, Note_on_c, 0, 52, 111
2, 33360, Note_off_c, 0, 72, 95
2, 33360, Note_off_c, 0, 58, 111
2, 33360, Note_off_c, 0, 52, 111
2, 33360, Note_on_c, 0, 65, 95
2, 33480, Note_off_c, 0, 65, 95
2, 33480, Note_on_c, 0, 64, 95
2, 33600, Note_off_c, 0, 64, 95
2, 33600, Note_on_c, 0, 72, 111
2, 33600, Note_on_c, 0, 65, 111
2, 33600, Note_on_c, 0, 41, 111
2, 34320, Note_off_c, 0, 72, 111
2, 34320, Note_off_c, 0, 65, 111
2, 34320, Note_off_c, 0, 41, 111
2, 34320, Note_on_c, 0, 64, 95
2, 34440, Note_off_c, 0, 64, 95
2, 34440, Note_on_c, 0, 62, 79
2, 34560, Note_off_c, 0, 62, 79
2, 34560, Note_on_c, 0, 63, 79
2, 34560, Note_on_c, 0, 62, 95
2, 34560, Note_on_c, 0, 55, 95
2, 35520, Note_off_c, 0, 63, 79
2, 35520, Note_off_c, 0, 62, 95
2, 35520, Note_off_c, 0, 55, 95
2, 35520, Note_on_c, 0, 69, 111
2, 35520, Note_on_c, 0, 65, 127
2, 35760, Note_off_c, 0, 69, 111
2, 35760, Note_off_c, 0, 65, 127
2, 35760, Note_on_c, 0, 67, 111
2, 35760, Note_on_c, 0, 64, 111
2, 36000, Note_off_c, 0, 67, 111
2, 36000, Note_off_c, 0, 64, 111
2, 36000, Note_on_c, 0, 65, 95
2, 36000, Note_on_c, 0, 62, 95
2, 36240, Note_off_c, 0, 65, 95
2, 36240, Note_off_c, 0, 62, 95
2, 36240, Note_on_c, 0, 64, 95
2, 36240, Note_on_c, 0, 60, 95
2, 36480, Note_off_c, 0, 64, 95
2, 36480, Note_off_c, 0, 60, 95
2, 36480, Note_on_c, 0, 62, 95
2, 36480, Note_on_c, 0, 59, 95
2, 37200, Note_off_c, 0, 62, 95
2, 37200, Note_off_c, 0, 59, 95
2, 37200, Note_on_c, 0, 69, 111
2, 37200, Note_on_c, 0, 62, 95
2, 37440, Note_off_c, 0, 69, 111
2, 37440, Note_off_c, 0, 62, 95
2, 37440, Note_on_c, 0, 71, 95
2, 37680, Note_off_c, 0, 71, 95
2, 37680, Note_on_c, 0, 67, 95
2, 37920, Note_off_c, 0, 67, 95
2, 37920, Note_on_c, 0, 62, 95
2, 38160, Note_off_c, 0, 62, 95
2, 38160, Note_on_c, 0, 59, 79
2, 38400, Note_off_c, 0, 59, 79
2, 38400, Note_on_c, 0, 60, 95
2, 38640, Note_off_c, 0, 60, 95
2, 38640, Note_on_c, 0, 57, 79
2, 38880, Note_off_c, 0, 57, 79
2, 38880, Note_on_c, 0, 60, 95
2, 39120, Note_off_c, 0, 60, 95
2, 39120, Note_on_c, 0, 62, 79
2, 39360, Note_off_c, 0, 62, 79
2, 39360, Note_on_c, 0, 64, 95
2, 39600, Note_off_c, 0, 64, 95
2, 39600, Note_on_c, 0, 60, 79
2, 39720, Note_off_c, 0, 60, 79
2, 39720, Note_on_c, 0, 63, 63
2, 39840, Note_off_c, 0, 63, 63
2, 39840, Note_on_c, 0, 65, 111
2, 39840, Note_on_c, 0, 60, 95
2, 39840, Note_on_c, 0, 59, 111
2, 40080, Note_off_c, 0, 65, 111
2, 40080, Note_off_c, 0, 60, 95
2, 40080, Note_off_c, 0, 59, 111
2, 40080, Note_on_c, 0, 64, 95
2, 40320, Note_off_c, 0, 64, 95
2, 40320, Note_on_c, 0, 64, 95
2, 40560, Note_off_c, 0, 64, 95
2, 40560, Note_on_c, 0, 60, 95
2, 40800, Note_off_c, 0, 60, 95
2, 40800, Note_on_c, 0, 62, 111
2, 41040, Note_off_c, 0, 62, 111
2, 41040, Note_on_c, 0, 57, 79
2, 41280, Note_off_c, 0, 57, 79
2, 41280, Note_on_c, 0, 60, 111
2, 41760, Note_off_c, 0, 60, 111
2, 41760, Note_on_c, 0, 57, 79
2, 42000, Note_off_c, 0, 57, 79
2, 42000, Note_on_c, 0, 55, 63
2, 42240, Note_off_c, 0, 55, 63
2, 42240, Note_on_c, 0, 54, 95
2, 43200, Note_off_c, 0, 54, 95
2, 43200, Note_on_c, 0, 65, 95
2, 43200, Note_on_c, 0, 61, 111
2, 43440, Note_off_c, 0, 65, 95
2, 43440, Note_off_c, 0, 61, 111
2, 43440, Note_on_c, 0, 74, 111
2, 43680, Note_off_c, 0, 74, 111
2, 43680, Note_on_c, 0, 64, 95
2, 43680, Note_on_c, 0, 67, 111
2, 44400, Note_off_c, 0, 64, 95
2, 44400, Note_off_c, 0, 67, 111
2, 44400, Note_on_c, 0, 66, 127
2, 44640, Note_off_c, 0, 66, 127
2, 44640, Note_on_c, 0, 64, 95
2, 44880, Note_off_c, 0, 64, 95
2, 44880, Note_on_c, 0, 62, 79
2, 45120, Note_off_c, 0, 62, 79
2, 45120, Note_on_c, 0, 64, 111
2, 45360, Note_off_c, 0, 64, 111
2, 45360, Note_on_c, 0, 57, 79
2, 45600, Note_off_c, 0, 57, 79
2, 45600, Note_on_c, 0, 60, 95
2, 46080, Note_off_c, 0, 60, 95
2, 46080, Note_on_c, 0, 58, 95
2, 46080, Note_on_c, 0, 54, 111
2, 46320, Note_off_c, 0, 58, 95
2, 46320, Note_off_c, 0, 54, 111
2, 46320, Note_on_c, 0, 67, 95
2, 46560, Note_off_c, 0, 67, 95
2, 46560, Note_on_c, 0, 62, 95
2, 47040, Note_off_c, 0, 62, 95
2, 47040, Note_on_c, 0, 66, 111
2, 47040, Note_on_c, 0, 62, 95
2, 47760, Note_off_c, 0, 66, 111
2, 47760, Note_off_c, 0, 62, 95
2, 47760, Note_on_c, 0, 67, 95
2, 47760, Note_on_c, 0, 64, 95
2, 47880, Note_off_c, 0, 67, 95
2, 47880, Note_off_c, 0, 64, 95
2, 48000, Note_on_c, 0, 71, 111
2, 48000, Note_on_c, 0, 57, 111
2, 48240, Note_off_c, 0, 71, 111
2, 48240, Note_off_c, 0, 57, 111
2, 48480, Note_on_c, 0, 67, 111
2, 48480, Note_on_c, 0, 64, 111
2, 48480, Note_on_c, 0, 59, 95
2, 48720, Note_off_c, 0, 67, 111
2, 48720, Note_off_c, 0, 64, 111
2, 48720, Note_off_c, 0, 59, 95
2, 48960, Note_on_c, 0, 71, 111
2, 48960, Note_on_c, 0, 67, 111
2, 48960, Note_on_c, 0, 62, 111
2, 49200, Note_off_c, 0, 71, 111
2, 49200, Note_off_c, 0, 67, 111
2, 49200, Note_off_c, 0, 62, 111
2, 49440, Note_on_c, 0, 72, 111
2, 49440, Note_on_c, 0, 64, 111
2, 49440, Note_on_c, 0, 60, 111
2, 52560, Note_off_c, 0, 72, 111
2, 52560, Note_off_c, 0, 64, 111
2, 52560, Note_off_c, 0, 60, 111
2, 52800, Note_on_c, 0, 69, 111
2, 52800, Note_on_c, 0, 67, 95
2, 52920, Note_off_c, 0, 69, 111
2, 52920, Note_off_c, 0, 67, 95
2, 52920, Note_on_c, 0, 71, 95
2, 53040, Note_off_c, 0, 71, 95
2, 53040, Note_on_c, 0, 69, 79
2, 53040, Note_on_c, 0, 62, 95
2, 53160, Note_off_c, 0, 69, 79
2, 53160, Note_off_c, 0, 62, 95
2, 53280, Note_on_c, 0, 64, 95
2, 53400, Note_off_c, 0, 64, 95
2, 53520, Note_on_c, 0, 62, 79
2, 53760, Note_off_c, 0, 62, 79
2, 53760, Note_on_c, 0, 60, 111
2, 54000, Note_off_c, 0, 60, 111
2, 54000, Note_on_c, 0, 65, 95
2, 54240, Note_off_c, 0, 65, 95
2, 54240, Note_on_c, 0, 53, 95
2, 54480, Note_off_c, 0, 53, 95
2, 54480, Note_on_c, 0, 56, 95
2, 54480, Note_on_c, 0, 52, 111
2, 54720, Note_off_c, 0, 56, 95
2, 54720, Note_off_c, 0, 52, 111
2, 54720, Note_on_c, 0, 60, 95
2, 54960, Note_off_c, 0, 60, 95
2, 54960, Note_on_c, 0, 53, 79
2, 55200, Note_off_c, 0, 53, 79
2, 55200, Note_on_c, 0, 62, 111
2, 55440, Note_off_c, 0, 62, 111
2, 55440, Note_on_c, 0, 57, 95
2, 55680, Note_off_c, 0, 57, 95
2, 55680, Note_on_c, 0, 60, 95
2, 55920, Note_off_c, 0, 60, 95
2, 56160, Note_on_c, 0, 64, 111
2, 56160, Note_on_c, 0, 59, 111
2, 56160, Note_on_c, 0, 55, 111
2, 56400, Note_off_c, 0, 64, 111
2, 56400, Note_off_c, 0, 59, 111
2, 56400, Note_off_c, 0, 55, 111
2, 56640, Note_on_c, 0, 67, 111
2, 56640, Note_on_c, 0, 62, 111
2, 56640, Note_on_c, 0, 59, 111
2, 56880, Note_off_c, 0, 67, 111
2, 56880, Note_off_c, 0, 62, 111
2, 56880, Note_off_c, 0, 59, 111
2, 57120, Note_on_c, 0, 69, 127
2, 57120, Note_on_c, 0, 64, 111
2, 57120, Note_on_c, 0, 63, 127
2, 59520, Note_off_c, 0, 69, 127
2, 59520, Note_off_c, 0, 64, 111
2, 59520, Note_off_c, 0, 63, 127
2, 59520, Note_on_c, 0, 52, 95
2, 59520, Note_on_c, 0, 45, 95
2, 59640, Note_off_c, 0, 52, 95
2, 59640, Note_off_c, 0, 45, 95
2, 60000, Note_on_c, 0, 52, 95
2, 60000, Note_on_c, 0, 45, 95
2, 60720, Note_off_c, 0, 52, 95
2, 60720, Note_off_c, 0, 45, 95
2, 60720, Note_on_c, 0, 72, 95
2, 60720, Note_on_c, 0, 68, 111
2, 60720, Note_on_c, 0, 60, 111
2, 60960, Note_off_c, 0, 72, 95
2, 60960, Note_off_c, 0, 68, 111
2, 60960, Note_off_c, 0, 60, 111
2, 60960, Note_on_c, 0, 67, 79
2, 61440, Note_off_c, 0, 67, 79
2, 61440, Note_on_c, 0, 50, 95
2, 61680, Note_off_c, 0, 50, 95
2, 61680, Note_on_c, 0, 72, 95
2, 61680, Note_on_c, 0, 69, 95
2, 62160, Note_off_c, 0, 72, 95
2, 62160, Note_off_c, 0, 69, 95
2, 62160, Note_on_c, 0, 67, 95
2, 62400, Note_off_c, 0, 67, 95
2, 62400, Note_on_c, 0, 66, 95
2, 62880, Note_off_c, 0, 66, 95
2, 62880, Note_on_c, 0, 62, 95
2, 63360, Note_off_c, 0, 62, 95
2, 63360, Note_on_c, 0, 43, 111
2, 63600, Note_off_c, 0, 43, 111
2, 63600, Note_on_c, 0, 67, 111
2, 63600, Note_on_c, 0, 62, 111
2, 63840, Note_off_c, 0, 67, 111
2, 63840, Note_off_c, 0, 62, 111
2, 63840, Note_on_c, 0, 57, 95
2, 64080, Note_off_c, 0, 57, 95
2, 64080, Note_on_c, 0, 59, 111
2, 64560, Note_off_c, 0, 59, 111
2, 64560, Note_on_c, 0, 55, 63
2, 64800, Note_off_c, 0, 55, 63
2, 64800, Note_on_c, 0, 57, 111
2, 65040, Note_off_c, 0, 57, 111
2, 65040, Note_on_c, 0, 53, 79
2, 65280, Note_off_c, 0, 53, 79
2, 65280, Note_on_c, 0, 64, 79
2, 65280, Note_on_c, 0, 60, 95
2, 65280, Note_on_c, 0, 55, 95
2, 65280, Note_on_c, 0, 48, 95
2, 66720, Note_off_c, 0, 64, 79
2, 66720, Note_off_c, 0, 60, 95
2, 66720, Note_off_c, 0, 55, 95
2, 66720, Note_off_c, 0, 48, 95
2, 66720, Note_on_c, 0, 72, 95
2, 66720, Note_on_c, 0, 67, 95
2, 66720, Note_on_c, 0, 65, 95
2, 66840, Note_off_c, 0, 72, 95
2, 66840, Note_off_c, 0, 67, 95
2, 66840, Note_off_c, 0, 65, 95
2, 66840, Note_on_c, 0, 64, 95
2, 66960, Note_off_c, 0, 64, 95
2, 66960, Note_on_c, 0, 62, 79
2, 67080, Note_off_c, 0, 62, 79
2, 67080, Note_on_c, 0, 60, 79
2, 67200, Note_off_c, 0, 60, 79
2, 67200, Note_on_c, 0, 58, 95
2, 67200, Note_on_c, 0, 53, 95
2, 68640, Note_off_c, 0, 58, 95
2, 68640, Note_off_c, 0, 53, 95
2, 68640, Note_on_c, 0, 74, 95
2, 68640, Note_on_c, 0, 69, 95
2, 68760, Note_off_c, 0, 74, 95
2, 68760, Note_off_c, 0, 69, 95
2, 68760, Note_on_c, 0, 71, 79
2, 68880, Note_off_c, 0, 71, 79
2, 68880, Note_on_c, 0, 69, 79
2, 69000, Note_off_c, 0, 69, 79
2, 69000, Note_on_c, 0, 67, 79
2, 69120, Note_off_c, 0, 67, 79
2, 69120, Note_on_c, 0, 69, 79
2, 69120, Note_on_c, 0, 67, 95
2, 69120, Note_on_c, 0, 60, 95
2, 69120, Note_on_c, 0, 47, 79
2, 69120, Note_on_c, 0, 40, 79
2, 69600, Note_off_c, 0, 69, 79
2, 69600, Note_off_c, 0, 67, 95
2, 69600, Note_off_c, 0, 60, 95
2, 69600, Note_off_c, 0, 47, 79
2, 69600, Note_off_c, 0, 40, 79
2, 69600, Note_on_c, 0, 60, 79
2, 69840, Note_off_c, 0, 60, 79
2, 69840, Note_on_c, 0, 69, 95
2, 69840, Note_on_c, 0, 64, 95
2, 70320, Note_off_c, 0, 69, 95
2, 70320, Note_off_c, 0, 64, 95
2, 70320, Note_on_c, 0, 60, 79
2, 70560, Note_off_c, 0, 60, 79
2, 70560, Note_on_c, 0, 62, 95
2, 70560, Note_on_c, 0, 62, 95
2, 71280, Note_off_c, 0, 62, 95
2, 71280, Note_off_c, 0, 62, 95
2, 71280, Note_on_c, 0, 60, 79
2, 71520, Note_off_c, 0, 60, 79
2, 71520, Note_on_c, 0, 57, 79
2, 71760, Note_off_c, 0, 57, 79
2, 71760, Note_on_c, 0, 62, 95
2, 72000, Note_off_c, 0, 62, 95
2, 72000, Note_on_c, 0, 64, 95
2, 72240, Note_off_c, 0, 64, 95
2, 72240, Note_on_c, 0, 67, 111
2, 72480, Note_off_c, 0, 67, 111
2, 72480, Note_on_c, 0, 59, 95
2, 72720, Note_off_c, 0, 59, 95
2, 72720, Note_on_c, 0, 64, 95
2, 72960, Note_off_c, 0, 64, 95
2, 72960, Note_on_c, 0, 64, 63
2, 72960, Note_on_c, 0, 60, 63
2, 72960, Note_on_c, 0, 55, 63
2, 72960, Note_on_c, 0, 41, 63
2, 73200, Note_off_c, 0, 64, 63
2, 73200, Note_off_c, 0, 60, 63
2, 73200, Note_off_c, 0, 55, 63
2, 73200, Note_off_c, 0, 41, 63
2, 73200, Note_on_c, 0, 65, 63
2, 73200, Note_on_c, 0, 60, 63
2, 73200, Note_on_c, 0, 57, 63
2, 73440, Note_off_c, 0, 65, 63
2, 73440, Note_off_c, 0, 60, 63
2, 73440, Note_off_c, 0, 57, 63
2, 73440, Note_on_c, 0, 65, 95
2, 73440, Note_on_c, 0, 60, 79
2, 73440, Note_on_c, 0, 57, 79
2, 73680, Note_off_c, 0, 65, 95
2, 73680, Note_off_c, 0, 60, 79
2, 73680, Note_off_c, 0, 57, 79
2, 73680, Note_on_c, 0, 41, 95
2, 73920, Note_off_c, 0, 41, 95
2, 73920, Note_on_c, 0, 65, 111
2, 73920, Note_on_c, 0, 63, 79
2, 73920, Note_on_c, 0, 60, 111
2, 73920, Note_on_c, 0, 57, 111
2, 74160, Note_off_c, 0, 65, 111
2, 74160, Note_off_c, 0, 63, 79
2, 74160, Note_off_c, 0, 60, 111
2, 74160, Note_off_c, 0, 57, 111
2, 74160, Note_on_c, 0, 41, 79
2, 74400, Note_off_c, 0, 41, 79
2, 74400, Note_on_c, 0, 56, 95
2, 74400, Note_on_c, 0, 52, 95
2, 74640, Note_off_c, 0, 56, 95
2, 74640, Note_off_c, 0, 52, 95
2, 74640, Note_on_c, 0, 60, 79
2, 74880, Note_off_c, 0, 60, 79
2, 74880, Note_on_c, 0, 55, 79
2, 74880, Note_on_c, 0, 50, 79
2, 75360, Note_off_c, 0, 55, 79
2, 75360, Note_off_c, 0, 50, 79
2, 75360, Note_on_c, 0, 65, 79
2, 75600, Note_off_c, 0, 65, 79
2, 75600, Note_on_c, 0, 67, 95
2, 75840, Note_off_c, 0, 67, 95
2, 75840, Note_on_c, 0, 63, 95
2, 75840, Note_on_c, 0, 59, 111
2, 76080, Note_off_c, 0, 63, 95
2, 76080, Note_off_c, 0, 59, 111
2, 76080, Note_on_c, 0, 62, 95
2, 76320, Note_off_c, 0, 62, 95
2, 76320, Note_on_c, 0, 60, 95
2, 76560, Note_off_c, 0, 60, 95
2, 76560, Note_on_c, 0, 57, 79
2, 76800, Note_off_c, 0, 57, 79
2, 76800, Note_on_c, 0, 55, 95
2, 76800, Note_on_c, 0, 52, 79
2, 77520, Note_off_c, 0, 55, 95
2, 77520, Note_off_c, 0, 52, 79
2, 77520, Note_on_c, 0, 62, 79
2, 77640, Note_off_c, 0, 62, 79
2, 77640, Note_on_c, 0, 64, 95
2, 77760, Note_off_c, 0, 64, 95
2, 77760, Note_on_c, 0, 65, 95
2, 77760, Note_on_c, 0, 60, 79
2, 77760, Note_on_c, 0, 57, 79
2, 78480, Note_off_c, 0, 65, 95
2, 78480, Note_off_c, 0, 60, 79
2, 78480, Note_off_c, 0, 57, 79
2, 78480, Note_on_c, 0, 64, 79
2, 78600, Note_off_c, 0, 64, 79
2, 78600, Note_on_c, 0, 62, 79
2, 78720, Note_off_c, 0, 62, 79
2, 78720, Note_on_c, 0, 64, 95
2, 78720, Note_on_c, 0, 59, 79
2, 78720, Note_on_c, 0, 55, 79
2, 79440, Note_off_c, 0, 64, 95
2, 79440, Note_off_c, 0, 59, 79
2, 79440, Note_off_c, 0, 55, 79
2, 79440, Note_on_c, 0, 62, 79
2, 79560, Note_off_c, 0, 62, 79
2, 79560, Note_on_c, 0, 60, 95
2, 79680, Note_off_c, 0, 60, 95
2, 79680, Note_on_c, 0, 57, 79
2, 79680, Note_on_c, 0, 53, 79
2, 79680, Note_on_c, 0, 53, 95
2, 80400, Note_off_c, 0, 57, 79
2, 80400, Note_off_c, 0, 53, 79
2, 80400, Note_off_c, 0, 53, 95
2, 80400, Note_on_c, 0, 60, 79
2, 80520, Note_off_c, 0, 60, 79
2, 80520, Note_on_c, 0, 59, 79
2, 80640, Note_off_c, 0, 59, 79
2, 80640, Note_on_c, 0, 60, 95
2, 80640, Note_on_c, 0, 55, 79
2, 80640, Note_on_c, 0, 52, 79
2, 81360, Note_off_c, 0, 60, 95
2, 81360, Note_off_c, 0, 55, 79
2, 81360, Note_off_c, 0, 52, 79
2, 81360, Note_on_c, 0, 62, 95
2, 81480, Note_off_c, 0, 62, 95
2, 81480, Note_on_c, 0, 64, 95
2, 81600, Note_off_c, 0, 64, 95
2, 81600, Note_on_c, 0, 60, 111
2, 81600, Note_on_c, 0, 57, 79
2, 81600, Note_on_c, 0, 56, 79
2, 82320, Note_off_c, 0, 60, 111
2, 82320, Note_off_c, 0, 57, 79
2, 82320, Note_off_c, 0, 56, 79
2, 82320, Note_on_c, 0, 64, 79
2, 82440, Note_off_c, 0, 64, 79
2, 82440, Note_on_c, 0, 62, 79
2, 82560, Note_off_c, 0, 62, 79
2, 82560, Note_on_c, 0, 64, 95
2, 82560, Note_on_c, 0, 59, 79
2, 82560, Note_on_c, 0, 55, 79
2, 83280, Note_off_c, 0, 64, 95
2, 83280, Note_off_c, 0, 59, 79
2, 83280, Note_off_c, 0, 55, 79
2, 83280, Note_on_c, 0, 62, 79
2, 83400, Note_off_c, 0, 62, 79
2, 83400, Note_on_c, 0, 60, 79
2, 83520, Note_off_c, 0, 60, 79
2, 83520, Note_on_c, 0, 62, 111
2, 83520, Note_on_c, 0, 57, 79
2, 83520, Note_on_c, 0, 53, 79
2, 84240, Note_off_c, 0, 62, 111
2, 84240, Note_off_c, 0, 57, 79
2, 84240, Note_off_c, 0, 53, 79
2, 84240, Note_on_c, 0, 60, 95
2, 84360, Note_off_c, 0, 60, 95
2, 84360, Note_on_c, 0, 59, 95
2, 84480, Note_off_c, 0, 59, 95
2, 84480, Note_on_c, 0, 60, 95
2, 84480, Note_on_c, 0, 55, 79
2, 84480, Note_on_c, 0, 52, 79
2, 85440, Note_off_c, 0, 60, 95
2, 85440, Note_off_c, 0, 55, 79
2, 85440, Note_off_c, 0, 52, 79
2, 85440, Note_on_c, 0, 72, 95
2, 85440, Note_on_c, 0, 65, 95
2, 85440, Note_on_c, 0, 58, 95
2, 85680, Note_off_c, 0, 72, 95
2, 85680, Note_off_c, 0, 65, 95
2, 85680, Note_off_c, 0, 58, 95
2, 85680, Note_on_c, 0, 64, 95
2, 85920, Note_off_c, 0, 64, 95
2, 85920, Note_on_c, 0, 62, 95
2, 86160, Note_off_c, 0, 62, 95
2, 86160, Note_on_c, 0, 62, 79
2, 86160, Note_on_c, 0, 60, 95
2, 86400, Note_off_c, 0, 62, 79
2, 86400, Note_off_c, 0, 60, 95
2, 86400, Note_on_c, 0, 60, 111
2, 86640, Note_off_c, 0, 60, 111
2, 86640, Note_on_c, 0, 62, 95
2, 86880, Note_off_c, 0, 62, 95
2, 86880, Note_on_c, 0, 59, 95
2, 87480, Note_off_c, 0, 59, 95
2, 87600, Note_on_c, 0, 59, 79
2, 87840, Note_off_c, 0, 59, 79
2, 87840, Note_on_c, 0, 67, 111
2, 88080, Note_off_c, 0, 67, 111
2, 88080, Note_on_c, 0, 62, 95
2, 88320, Note_off_c, 0, 62, 95
2, 88320, Note_on_c, 0, 64, 95
2, 88320, Note_on_c, 0, 57, 95
2, 88560, Note_off_c, 0, 64, 95
2, 88560, Note_off_c, 0, 57, 95
2, 88560, Note_on_c, 0, 60, 79
2, 89040, Note_off_c, 0, 60, 79
2, 89040, Note_on_c, 0, 52, 79
2, 89040, Note_on_c, 0, 45, 63
2, 89280, Note_off_c, 0, 52, 79
2, 89280, Note_off_c, 0, 45, 63
2, 89280, Note_on_c, 0, 69, 79
2, 89280, Note_on_c, 0, 60, 63
2, 89520, Note_off_c, 0, 69, 79
2, 89520, Note_off_c, 0, 60, 63
2, 89520, Note_on_c, 0, 71, 111
2, 89520, Note_on_c, 0, 62, 95
2, 89760, Note_off_c, 0, 71, 111
2, 89760, Note_off_c, 0, 62, 95
2, 89760, Note_on_c, 0, 72, 127
2, 89760, Note_on_c, 0, 64, 111
2, 90000, Note_off_c, 0, 72, 127
2, 90000, Note_off_c, 0, 64, 111
2, 90000, Note_on_c, 0, 52, 79
2, 90240, Note_off_c, 0, 52, 79
2, 90240, Note_on_c, 0, 57, 79
2, 90480, Note_off_c, 0, 57, 79
2, 90480, Note_on_c, 0, 67, 79
2, 90720, Note_off_c, 0, 67, 79
2, 90720, Note_on_c, 0, 72, 111
2, 90720, Note_on_c, 0, 69, 111
2, 91200, Note_off_c, 0, 72, 111
2, 91200, Note_off_c, 0, 69, 111
2, 91200, Note_on_c, 0, 62, 79
2, 91440, Note_off_c, 0, 62, 79
2, 91440, Note_on_c, 0, 69, 95
2, 91440, Note_on_c, 0, 64, 95
2, 91680, Note_off_c, 0, 69, 95
2, 91680, Note_off_c, 0, 64, 95
2, 91680, Note_on_c, 0, 60, 79
2, 91920, Note_off_c, 0, 60, 79
2, 91920, Note_on_c, 0, 62, 79
2, 92160, Note_off_c, 0, 62, 79
2, 92160, Note_on_c, 0, 48, 79
2, 92160, Note_on_c, 0, 41, 79
2, 92640, Note_off_c, 0, 48, 79
2, 92640, Note_off_c, 0, 41, 79
2, 92640, Note_on_c, 0, 56, 79
2, 92640, Note_on_c, 0, 52, 95
2, 92880, Note_off_c, 0, 56, 79
2, 92880, Note_off_c, 0, 52, 95
2, 92880, Note_on_c, 0, 65, 63
2, 92880, Note_on_c, 0, 60, 95
2, 93120, Note_off_c, 0, 65, 63
2, 93120, Note_off_c, 0, 60, 95
2, 93120, Note_on_c, 0, 65, 63
2, 93120, Note_on_c, 0, 60, 95
2, 93360, Note_off_c, 0, 65, 63
2, 93360, Note_off_c, 0, 60, 95
2, 93360, Note_on_c, 0, 57, 79
2, 93600, Note_off_c, 0, 57, 79
2, 93600, Note_on_c, 0, 65, 111
2, 93840, Note_off_c, 0, 65, 111
2, 93840, Note_on_c, 0, 60, 79
2, 94080, Note_off_c, 0, 60, 79
2, 94080, Note_on_c, 0, 57, 63
2, 94080, Note_on_c, 0, 48, 79
2, 94080, Note_on_c, 0, 41, 79
2, 94320, Note_off_c, 0, 57, 63
2, 94320, Note_off_c, 0, 48, 79
2, 94320, Note_off_c, 0, 41, 79
2, 94320, Note_on_c, 0, 68, 111
2, 94320, Note_on_c, 0, 64, 79
2, 94560, Note_off_c, 0, 68, 111
2, 94560, Note_off_c, 0, 64, 79
2, 94560, Note_on_c, 0, 72, 111
2, 95040, Note_off_c, 0, 72, 111
2, 95040, Note_on_c, 0, 69, 127
2, 95280, Note_off_c, 0, 69, 127
2, 95280, Note_on_c, 0, 67, 95
2, 95520, Note_off_c, 0, 67, 95
2, 95520, Note_on_c, 0, 65, 79
2, 95760, Note_off_c, 0, 65, 79
2, 95760, Note_on_c, 0, 67, 79
2, 96000, Note_off_c, 0, 67, 79
2, 96000, Note_on_c, 0, 62, 95
2, 96240, Note_off_c, 0, 62, 95
2, 96240, Note_on_c, 0, 64, 79
2, 96480, Note_off_c, 0, 64, 79
2, 96480, Note_on_c, 0, 60, 79
2, 96960, Note_off_c, 0, 60, 79
2, 96960, Note_on_c, 0, 64, 95
2, 96960, Note_on_c, 0, 72, 79
2, 97680, Note_off_c, 0, 64, 95
2, 97680, Note_off_c, 0, 72, 79
2, 97680, Note_on_c, 0, 67, 79
2, 97800, Note_off_c, 0, 67, 79
2, 97800, Note_on_c, 0, 65, 79
2, 97920, Note_off_c, 0, 65, 79
2, 97920, Note_on_c, 0, 72, 111
2, 97920, Note_on_c, 0, 67, 95
2, 98640, Note_off_c, 0, 72, 111
2, 98640, Note_off_c, 0, 67, 95
2, 98640, Note_on_c, 0, 65, 95
2, 98760, Note_off_c, 0, 65, 95
2, 98760, Note_on_c, 0, 64, 79
2, 98880, Note_off_c, 0, 64, 79
2, 98880, Note_on_c, 0, 72, 111
2, 98880, Note_on_c, 0, 65, 95
2, 99600, Note_off_c, 0, 72, 111
2, 99600, Note_off_c, 0, 65, 95
2, 99600, Note_on_c, 0, 64, 79
2, 99720, Note_off_c, 0, 64, 79
2, 99720, Note_on_c, 0, 62, 79
2, 99840, Note_off_c, 0, 62, 79
2, 99840, Note_on_c, 0, 63, 47
2, 99840, Note_on_c, 0, 55, 95
2, 100080, Note_off_c, 0, 63, 47
2, 100080, Note_off_c, 0, 55, 95
2, 100080, Note_on_c, 0, 60, 79
2, 100320, Note_off_c, 0, 60, 79
2, 100320, Note_on_c, 0, 55, 79
2, 101040, Note_off_c, 0, 55, 79
2, 101040, Note_on_c, 0, 64, 95
2, 101280, Note_off_c, 0, 64, 95
2, 101280, Note_on_c, 0, 62, 95
2, 101520, Note_off_c, 0, 62, 95
2, 101520, Note_on_c, 0, 60, 79
2, 101760, Note_off_c, 0, 60, 79
2, 101760, Note_on_c, 0, 57, 79
2, 101760, Note_on_c, 0, 43, 79
2, 102000, Note_off_c, 0, 57, 79
2, 102000, Note_off_c, 0, 43, 79
2, 102000, Note_on_c, 0, 62, 95
2, 102240, Note_off_c, 0, 62, 95
2, 102240, Note_on_c, 0, 57, 95
2, 102240, Note_on_c, 0, 50, 79
2, 102480, Note_off_c, 0, 57, 95
2, 102480, Note_off_c, 0, 50, 79
2, 102480, Note_on_c, 0, 59, 95
2, 102720, Note_off_c, 0, 59, 95
2, 102720, Note_on_c, 0, 55, 79
2, 102960, Note_off_c, 0, 55, 79
2, 102960, Note_on_c, 0, 64, 47
2, 103200, Note_off_c, 0, 64, 47
2, 103200, Note_on_c, 0, 64, 63
2, 103200, Note_on_c, 0, 60, 79
2, 103440, Note_off_c, 0, 64, 63
2, 103440, Note_off_c, 0, 60, 79
2, 103440, Note_on_c, 0, 66, 95
2, 103440, Note_on_c, 0, 62, 79
2, 103680, Note_off_c, 0, 66, 95
2, 103680, Note_off_c, 0, 62, 79
2, 103680, Note_on_c, 0, 72, 111
2, 103680, Note_on_c, 0, 64, 95
2, 103680, Note_on_c, 0, 52, 79
2, 103680, Note_on_c, 0, 45, 79
2, 103920, Note_off_c, 0, 72, 111
2, 103920, Note_off_c, 0, 64, 95
2, 103920, Note_off_c, 0, 52, 79
2, 103920, Note_off_c, 0, 45, 79
2, 103920, Note_on_c, 0, 64, 79
2, 104160, Note_off_c, 0, 64, 79
2, 104160, Note_on_c, 0, 72, 95
2, 104640, Note_off_c, 0, 72, 95
2, 104640, Note_on_c, 0, 72, 95
2, 104640, Note_on_c, 0, 69, 95
2, 105120, Note_off_c, 0, 72, 95
2, 105120, Note_off_c, 0, 69, 95
2, 105120, Note_on_c, 0, 71, 79
2, 105120, Note_on_c, 0, 62, 79
2, 105600, Note_off_c, 0, 71, 79
2, 105600, Note_off_c, 0, 62, 79
2, 105600, Note_on_c, 0, 52, 79
2, 105600, Note_on_c, 0, 45, 79
2, 105840, Note_off_c, 0, 52, 79
2, 105840, Note_off_c, 0, 45, 79
2, 105840, Note_on_c, 0, 64, 95
2, 105840, Note_on_c, 0, 64, 95
2, 106080, Note_off_c, 0, 64, 95
2, 106080, Note_off_c, 0, 64, 95
2, 106080, Note_on_c, 0, 60, 95
2, 106320, Note_off_c, 0, 60, 95
2, 106320, Note_on_c, 0, 52, 95
2, 106560, Note_off_c, 0, 52, 95
2, 106560, Note_on_c, 0, 62, 111
2, 106800, Note_off_c, 0, 62, 111
2, 106800, Note_on_c, 0, 59, 79
2, 107040, Note_off_c, 0, 59, 79
2, 107040, Note_on_c, 0, 52, 79
2, 107400, Note_off_c, 0, 52, 79
2, 107520, Note_on_c, 0, 50, 111
2, 108480, Note_off_c, 0, 50, 111
2, 108480, Note_on_c, 0, 69, 127
2, 108480, Note_on_c, 0, 64, 111
2, 108720, Note_off_c, 0, 69, 127
2, 108720, Note_off_c, 0, 64, 111
2, 108720, Note_on_c, 0, 66, 95
2, 108960, Note_off_c, 0, 66, 95
2, 108960, Note_on_c, 0, 60, 79
2, 109200, Note_off_c, 0, 60, 79
2, 109200, Note_on_c, 0, 57, 63
2, 109320, Note_off_c, 0, 57, 63
2, 109440, Note_on_c, 0, 62, 111
2, 109680, Note_off_c, 0, 62, 111
2, 109680, Note_on_c, 0, 57, 79
2, 109920, Note_off_c, 0, 57, 79
2, 109920, Note_on_c, 0, 57, 79
2, 110160, Note_off_c, 0, 57, 79
2, 110160, Note_on_c, 0, 59, 111
2, 110640, Note_off_c, 0, 59, 111
2, 110640, Note_on_c, 0, 57, 63
2, 110880, Note_off_c, 0, 57, 63
2, 110880, Note_on_c, 0, 60, 111
2, 111120, Note_off_c, 0, 60, 111
2, 111120, Note_on_c, 0, 57, 63
2, 111240, Note_off_c, 0, 57, 63
2, 111360, Note_on_c, 0, 62, 95
2, 111360, Note_on_c, 0, 57, 95
2, 111360, Note_on_c, 0, 50, 79
2, 111360, Note_on_c, 0, 43, 79
2, 111600, Note_off_c, 0, 62, 95
2, 111600, Note_off_c, 0, 57, 95
2, 111600, Note_off_c, 0, 50, 79
2, 111600, Note_off_c, 0, 43, 79
2, 111600, Note_on_c, 0, 59, 79
2, 111840, Note_off_c, 0, 59, 79
2, 111840, Note_on_c, 0, 55, 79
2, 112080, Note_off_c, 0, 55, 79
2, 112080, Note_on_c, 0, 50, 79
2, 112320, Note_off_c, 0, 50, 79
2, 112320, Note_on_c, 0, 67, 95
2, 112320, Note_on_c, 0, 59, 95
2, 112800, Note_off_c, 0, 67, 95
2, 112800, Note_off_c, 0, 59, 95
2, 112800, Note_on_c, 0, 69, 111
2, 112800, Note_on_c, 0, 60, 95
2, 113280, Note_off_c, 0, 69, 111
2, 113280, Note_off_c, 0, 60, 95
2, 113280, Note_on_c, 0, 71, 127
2, 113280, Note_on_c, 0, 62, 111
2, 113520, Note_off_c, 0, 71, 127
2, 113520, Note_off_c, 0, 62, 111
2, 113760, Note_on_c, 0, 64, 111
2, 113760, Note_on_c, 0, 59, 111
2, 113760, Note_on_c, 0, 55, 111
2, 114000, Note_off_c, 0, 64, 111
2, 114000, Note_off_c, 0, 59, 111
2, 114000, Note_off_c, 0, 55, 111
2, 114240, Note_on_c, 0, 67, 111
2, 114240, Note_on_c, 0, 62, 111
2, 114240, Note_on_c, 0, 59, 111
2, 114480, Note_off_c, 0, 67, 111
2, 114480, Note_off_c, 0, 62, 111
2, 114480, Note_off_c, 0, 59, 111
2, 114720, Note_on_c, 0, 65, 111
2, 114720, Note_on_c, 0, 60, 111
2, 114720, Note_on_c, 0, 59, 111
2, 119040, Note_off_c, 0, 65, 111
2, 119040, Note_off_c, 0, 60, 111
2, 119040, Note_off_c, 0, 59, 111
2, 119040, Note_on_c, 0, 53, 95
2, 119040, Note_on_c, 0, 48, 95
2, 119040, Note_on_c, 0, 41, 95
2, 119280, Note_off_c, 0, 53, 95
2, 119280, Note_off_c, 0, 48, 95
2, 119280, Note_off_c, 0, 41, 95
2, 119280, Note_on_c, 0, 68, 127
2, 119280, Note_on_c, 0, 64, 79
2, 119280, Note_on_c, 0, 61, 95
2, 119520, Note_off_c, 0, 68, 127
2, 119520, Note_off_c, 0, 64, 79
2, 119520, Note_off_c, 0, 61, 95
2, 119520, Note_on_c, 0, 72, 111
2, 119760, Note_off_c, 0, 72, 111
2, 119760, Note_on_c, 0, 74, 95
2, 120000, Note_off_c, 0, 74, 95
2, 120000, Note_on_c, 0, 68, 127
2, 120000, Note_on_c, 0, 64, 111
2, 120480, Note_off_c, 0, 68, 127
2, 120480, Note_off_c, 0, 64, 111
2, 120480, Note_on_c, 0, 72, 111
2, 120720, Note_off_c, 0, 72, 111
2, 120720, Note_on_c, 0, 68, 111
2, 120720, Note_on_c, 0, 65, 95
2, 120720, Note_on_c, 0, 60, 111
2, 120960, Note_off_c, 0, 68, 111
2, 120960, Note_off_c, 0, 65, 95
2, 120960, Note_off_c, 0, 60, 111
2, 120960, Note_on_c, 0, 52, 95
2, 120960, Note_on_c, 0, 49, 95
2, 120960, Note_on_c, 0, 48, 79
2, 121200, Note_off_c, 0, 52, 95
2, 121200, Note_off_c, 0, 49, 95
2, 121200, Note_off_c, 0, 48, 79
2, 121200, Note_on_c, 0, 60, 79
2, 121440, Note_off_c, 0, 60, 79
2, 121440, Note_on_c, 0, 64, 111
2, 121440, Note_on_c, 0, 59, 127
2, 121440, Note_on_c, 0, 58, 111
2, 121680, Note_off_c, 0, 64, 111
2, 121680, Note_off_c, 0, 59, 127
2, 121680, Note_off_c, 0, 58, 111
2, 121920, Note_on_c, 0, 71, 111
2, 121920, Note_on_c, 0, 67, 127
2, 121920, Note_on_c, 0, 53, 127
2, 122160, Note_off_c, 0, 71, 111
2, 122160, Note_off_c, 0, 67, 127
2, 122160, Note_off_c, 0, 53, 127
2, 122400, Note_on_c, 0, 72, 111
2, 122400, Note_on_c, 0, 64, 127
2, 122400, Note_on_c, 0, 50, 127
2, 122400, Note_on_c, 0, 52, 111
2, 122400, Note_on_c, 0, 45, 111
2, 123840, Note_off_c, 0, 72, 111
2, 123840, Note_off_c, 0, 64, 127
2, 123840, Note_off_c, 0, 50, 127
2, 123840, Note_off_c, 0, 52, 111
2, 123840, Note_off_c, 0, 45, 111
2, 123840, Note_on_c, 0, 72, 127
2, 123840, Note_on_c, 0, 69, 111
2, 124080, Note_off_c, 0, 72, 127
2, 124080, Note_off_c, 0, 69, 111
2, 124080, Note_on_c, 0, 64, 79
2, 124320, Note_off_c, 0, 64, 79
2, 124320, Note_on_c, 0, 67, 95
2, 124320, Note_on_c, 0, 67, 111
2, 124560, Note_off_c, 0, 67, 95
2, 124560, Note_off_c, 0, 67, 111
2, 124560, Note_on_c, 0, 69, 95
2, 125280, Note_off_c, 0, 69, 95
2, 125280, Note_on_c, 0, 72, 63
2, 125280, Note_on_c, 0, 69, 47
2, 125400, Note_off_c, 0, 72, 63
2, 125400, Note_off_c, 0, 69, 47
2, 125400, Note_on_c, 0, 72, 79
2, 125400, Note_on_c, 0, 69, 79
2, 125520, Note_off_c, 0, 72, 79
2, 125520, Note_off_c, 0, 69, 79
2, 125640, Note_on_c, 0, 72, 95
2, 125640, Note_on_c, 0, 64, 95
2, 125760, Note_off_c, 0, 72, 95
2, 125760, Note_off_c, 0, 64, 95
2, 125760, Note_on_c, 0, 72, 111
2, 125760, Note_on_c, 0, 64, 95
2, 125880, Note_off_c, 0, 72, 111
2, 125880, Note_off_c, 0, 64, 95
2, 125880, Note_on_c, 0, 67, 95
2, 126000, Note_off_c, 0, 67, 95
2, 126120, Note_on_c, 0, 64, 95
2, 126240, Note_off_c, 0, 64, 95
2, 126240, Note_on_c, 0, 62, 79
2, 126360, Note_off_c, 0, 62, 79
2, 126360, Note_on_c, 0, 60, 63
2, 126480, Note_off_c, 0, 60, 63
2, 126600, Note_on_c, 0, 57, 79
2, 126720, Note_off_c, 0, 57, 79
2, 126720, Note_on_c, 0, 45, 111
2, 127200, Note_off_c, 0, 45, 111
2, 127200, Note_on_c, 0, 60, 95
2, 127200, Note_on_c, 0, 57, 95
2, 127680, Note_off_c, 0, 60, 95
2, 127680, Note_off_c, 0, 57, 95
2, 127680, Note_on_c, 0, 69, 111
2, 127680, Note_on_c, 0, 66, 95
2, 127920, Note_off_c, 0, 69, 111
2, 127920, Note_off_c, 0, 66, 95
2, 127920, Note_on_c, 0, 60, 95
2, 128160, Note_off_c, 0, 60, 95
2, 128160, Note_on_c, 0, 66, 95
2, 128280, Note_off_c, 0, 66, 95
2, 128280, Note_on_c, 0, 58, 95
2, 128400, Note_off_c, 0, 58, 95
2, 128400, Note_on_c, 0, 59, 111
2, 128640, Note_off_c, 0, 59, 111
2, 128640, Note_on_c, 0, 67, 111
2, 128640, Note_on_c, 0, 46, 111
2, 128880, Note_off_c, 0, 67, 111
2, 128880, Note_off_c, 0, 46, 111
2, 128880, Note_on_c, 0, 65, 95
2, 128880, Note_on_c, 0, 57, 79
2, 129360, Note_off_c, 0, 65, 95
2, 129360, Note_off_c, 0, 57, 79
2, 129360, Note_on_c, 0, 55, 95
2, 129600, Note_off_c, 0, 55, 95
2, 129600, Note_on_c, 0, 64, 111
2, 130080, Note_off_c, 0, 64, 111
2, 130080, Note_on_c, 0, 62, 95
2, 130080, Note_on_c, 0, 53, 79
2, 130320, Note_off_c, 0, 62, 95
2, 130320, Note_off_c, 0, 53, 79
2, 130320, Note_on_c, 0, 55, 95
2, 130560, Note_off_c, 0, 55, 95
2, 130560, Note_on_c, 0, 63, 127
2, 130560, Note_on_c, 0, 50, 111
2, 130560, Note_on_c, 0, 44, 95
2, 131040, Note_off_c, 0, 63, 127
2, 131040, Note_off_c, 0, 50, 111
2, 131040, Note_off_c, 0, 44, 95
2, 131040, Note_on_c, 0, 67, 95
2, 131400, Note_off_c, 0, 67, 95
2, 131520, Note_on_c, 0, 72, 111
2, 131520, Note_on_c, 0, 67, 95
2, 131520, Note_on_c, 0, 65, 95
2, 131760, Note_off_c, 0, 72, 111
2, 131760, Note_off_c, 0, 67, 95
2, 131760, Note_off_c, 0, 65, 95
2, 131760, Note_on_c, 0, 64, 95
2, 132000, Note_off_c, 0, 64, 95
2, 132000, Note_on_c, 0, 62, 95
2, 132240, Note_off_c, 0, 62, 95
2, 132240, Note_on_c, 0, 60, 79
2, 132480, Note_off_c, 0, 60, 79
2, 132480, Note_on_c, 0, 67, 95
2, 132480, Note_on_c, 0, 62, 95
2, 132720, Note_off_c, 0, 67, 95
2, 132720, Note_off_c, 0, 62, 95
2, 132720, Note_on_c, 0, 43, 95
2, 133440, Note_off_c, 0, 43, 95
2, 133440, Note_on_c, 0, 58, 95
2, 133440, Note_on_c, 0, 54, 95
2, 133680, Note_off_c, 0, 58, 95
2, 133680, Note_off_c, 0, 54, 95
2, 133680, Note_on_c, 0, 62, 95
2, 133920, Note_off_c, 0, 62, 95
2, 133920, Note_on_c, 0, 67, 111
2, 134400, Note_off_c, 0, 67, 111
2, 134400, Note_on_c, 0, 52, 79
2, 134400, Note_on_c, 0, 45, 95
2, 134640, Note_off_c, 0, 52, 79
2, 134640, Note_off_c, 0, 45, 95
2, 134640, Note_on_c, 0, 68, 111
2, 134640, Note_on_c, 0, 64, 111
2, 134880, Note_off_c, 0, 68, 111
2, 134880, Note_off_c, 0, 64, 111
2, 134880, Note_on_c, 0, 72, 111
2, 134880, Note_on_c, 0, 59, 95
2, 135600, Note_off_c, 0, 72, 111
2, 135600, Note_off_c, 0, 59, 95
2, 135600, Note_on_c, 0, 71, 111
2, 135600, Note_on_c, 0, 62, 95
2, 136320, Note_off_c, 0, 71, 111
2, 136320, Note_off_c, 0, 62, 95
2, 136320, Note_on_c, 0, 69, 95
2, 136320, Note_on_c, 0, 60, 79
2, 136800, Note_off_c, 0, 69, 95
2, 136800, Note_off_c, 0, 60, 79
2, 136800, Note_on_c, 0, 62, 79
2, 137040, Note_off_c, 0, 62, 79
2, 137040, Note_on_c, 0, 64, 79
2, 137280, Note_off_c, 0, 64, 79
2, 137280, Note_on_c, 0, 60, 111
2, 137760, Note_off_c, 0, 60, 111
2, 137760, Note_on_c, 0, 59, 95
2, 138000, Note_off_c, 0, 59, 95
2, 138240, Note_on_c, 0, 56, 95
2, 138240, Note_on_c, 0, 52, 111
2, 138240, Note_on_c, 0, 43, 79
2, 138480, Note_off_c, 0, 56, 95
2, 138480, Note_off_c, 0, 52, 111
2, 138480, Note_off_c, 0, 43, 79
2, 138480, Note_on_c, 0, 60, 95
2, 138720, Note_off_c, 0, 60, 95
2, 138720, Note_on_c, 0, 60, 95
2, 139200, Note_off_c, 0, 60, 95
2, 139200, Note_on_c, 0, 48, 79
2, 139440, Note_off_c, 0, 48, 79
2, 139440, Note_on_c, 0, 57, 79
2, 139680, Note_off_c, 0, 57, 79
2, 139680, Note_on_c, 0, 65, 111
2, 139920, Note_off_c, 0, 65, 111
2, 139920, Note_on_c, 0, 67, 111
2, 140160, Note_off_c, 0, 67, 111
2, 140160, Note_on_c, 0, 50, 95
2, 140160, Note_on_c, 0, 43, 79
2, 140640, Note_off_c, 0, 50, 95
2, 140640, Note_off_c, 0, 43, 79
2, 140640, Note_on_c, 0, 63, 111
2, 140640, Note_on_c, 0, 63, 95
2, 140640, Note_on_c, 0, 59, 111
2, 140880, Note_off_c, 0, 63, 111
2, 140880, Note_off_c, 0, 63, 95
2, 140880, Note_off_c, 0, 59, 111
2, 140880, Note_on_c, 0, 55, 95
2, 141120, Note_off_c, 0, 55, 95
2, 141120, Note_on_c, 0, 43, 95
2, 141360, Note_off_c, 0, 43, 95
2, 141360, Note_on_c, 0, 65, 111
2, 141360, Note_on_c, 0, 57, 111
2, 141600, Note_off_c, 0, 65, 111
2, 141600, Note_off_c, 0, 57, 111
2, 141600, Note_on_c, 0, 57, 79
2, 142080, Note_off_c, 0, 57, 79
2, 142080, Note_on_c, 0, 60, 79
2, 142080, Note_on_c, 0, 55, 95
2, 142080, Note_on_c, 0, 52, 79
2, 142800, Note_off_c, 0, 60, 79
2, 142800, Note_off_c, 0, 55, 95
2, 142800, Note_off_c, 0, 52, 79
2, 142800, Note_on_c, 0, 62, 63
2, 142920, Note_off_c, 0, 62, 63
2, 142920, Note_on_c, 0, 64, 95
2, 143040, Note_off_c, 0, 64, 95
2, 143040, Note_on_c, 0, 65, 111
2, 143040, Note_on_c, 0, 60, 79
2, 143040, Note_on_c, 0, 57, 95
2, 143760, Note_off_c, 0, 65, 111
2, 143760, Note_off_c, 0, 60, 79
2, 143760, Note_off_c, 0, 57, 95
2, 143760, Note_on_c, 0, 64, 63
2, 143880, Note_off_c, 0, 64, 63
2, 143880, Note_on_c, 0, 62, 79
2, 144000, Note_off_c, 0, 62, 79
2, 144000, Note_on_c, 0, 64, 95
2, 144000, Note_on_c, 0, 59, 79
2, 144000, Note_on_c, 0, 55, 79
2, 144720, Note_off_c, 0, 64, 95
2, 144720, Note_off_c, 0, 59, 79
2, 144720, Note_off_c, 0, 55, 79
2, 144720, Note_on_c, 0, 62, 79
2, 144840, Note_off_c, 0, 62, 79
2, 144840, Note_on_c, 0, 60, 79
2, 144960, Note_off_c, 0, 60, 79
2, 144960, Note_on_c, 0, 67, 95
2, 144960, Note_on_c, 0, 57, 79
2, 144960, Note_on_c, 0, 53, 79
2, 144960, Note_on_c, 0, 48, 95
2, 145680, Note_off_c, 0, 67, 95
2, 145680, Note_off_c, 0, 57, 79
2, 145680, Note_off_c, 0, 53, 79
2, 145680, Note_off_c, 0, 48, 95
2, 145680, Note_on_c, 0, 60, 79
2, 145800, Note_off_c, 0, 60, 79
2, 145800, Note_on_c, 0, 59, 79
2, 145920, Note_off_c, 0, 59, 79
2, 145920, Note_on_c, 0, 63, 111
2, 145920, Note_on_c, 0, 56, 95
2, 145920, Note_on_c, 0, 50, 79
2, 145920, Note_on_c, 0, 47, 79
2, 145920, Note_on_c, 0, 45, 111
2, 146160, Note_off_c, 0, 63, 111
2, 146160, Note_off_c, 0, 56, 95
2, 146160, Note_off_c, 0, 50, 79
2, 146160, Note_off_c, 0, 47, 79
2, 146160, Note_off_c, 0, 45, 111
2, 146160, Note_on_c, 0, 67, 95
2, 146400, Note_off_c, 0, 67, 95
2, 146400, Note_on_c, 0, 72, 95
2, 146880, Note_off_c, 0, 72, 95
2, 146880, Note_on_c, 0, 65, 95
2, 146880, Note_on_c, 0, 63, 111
2, 146880, Note_on_c, 0, 60, 95
2, 146880, Note_on_c, 0, 60, 111
2, 147840, Note_off_c, 0, 65, 95
2, 147840, Note_off_c, 0, 63, 111
2, 147840, Note_off_c, 0, 60, 95
2, 147840, Note_off_c, 0, 60, 111
2, 147840, Note_on_c, 0, 67, 111
2, 147840, Note_on_c, 0, 64, 95
2, 147840, Note_on_c, 0, 59, 95
2, 148320, Note_off_c, 0, 67, 111
2, 148320, Note_off_c, 0, 64, 95
2, 148320, Note_off_c, 0, 59, 95
2, 148320, Note_on_c, 0, 72, 95
2, 148800, Note_off_c, 0, 72, 95
2, 148800, Note_on_c, 0, 65, 95
2, 148800, Note_on_c, 0, 57, 95
2, 148800, Note_on_c, 0, 53, 95
2, 149760, Note_off_c, 0, 65, 95
2, 149760, Note_off_c, 0, 57, 95
2, 149760, Note_off_c, 0, 53, 95
2, 149760, Note_on_c, 0, 55, 95
2, 149760, Note_on_c, 0, 49, 111
2, 153600, Note_off_c, 0, 55, 95
2, 153600, Note_off_c, 0, 49, 111
2, 164640, Note_on_c, 0, 40, 111
2, 165240, Note_off_c, 0, 40, 111
2, 165600, Note_on_c, 0, 43, 111
2, 166080, Note_off_c, 0, 43, 111
2, 166080, Note_on_c, 0, 45, 111
2, 166680, Note_off_c, 0, 45, 111
2, 169920, Note_on_c, 0, 64, 95
2, 169920, Note_on_c, 0, 72, 95
2, 169920, Note_on_c, 0, 69, 111
2, 169920, Note_on_c, 0, 67, 95
2, 171600, Note_off_c, 0, 64, 95
2, 171600, Note_off_c, 0, 72, 95
2, 171600, Note_off_c, 0, 69, 111
2, 171600, Note_off_c, 0, 67, 95
2, 171840, Note_on_c, 0, 72, 111
2, 171840, Note_on_c, 0, 69, 111
2, 171840, Note_on_c, 0, 66, 111
2, 171840, Note_on_c, 0, 62, 111
2, 172320, Note_off_c, 0, 72, 111
2, 172320, Note_off_c, 0, 69, 111
2, 172320, Note_off_c, 0, 66, 111
2, 172320, Note_off_c, 0, 62, 111
2, 172320, Note_on_c, 0, 40, 111
2, 172920, Note_off_c, 0, 40, 111
2, 173280, Note_on_c, 0, 43, 111
2, 173760, Note_off_c, 0, 43, 111
2, 173760, Note_on_c, 0, 64, 95
2, 173760, Note_on_c, 0, 72, 111
2, 173760, Note_on_c, 0, 69, 111
2, 173760, Note_on_c, 0, 67, 111
2, 173760, Note_on_c, 0, 45, 111
2, 174720, Note_off_c, 0, 45, 111
2, 175680, Note_off_c, 0, 64, 95
2, 175680, Note_off_c, 0, 72, 111
2, 175680, Note_off_c, 0, 69, 111
2, 175680, Note_off_c, 0, 67, 111
2, 175680, Note_on_c, 0, 64, 95
2, 175680, Note_on_c, 0, 69, 95
2, 175680, Note_on_c, 0, 67, 95
2, 175680, Note_on_c, 0, 60, 95
2, 176640, Note_off_c, 0, 64, 95
2, 176640, Note_off_c, 0, 69, 95
2, 176640, Note_off_c, 0, 67, 95
2, 176640, Note_off_c, 0, 60, 95
2, 177600, Note_on_c, 0, 64, 95
2, 177600, Note_on_c, 0, 72, 95
2, 177600, Note_on_c, 0, 69, 111
2, 177600, Note_on_c, 0, 67, 95
2, 179280, Note_off_c, 0, 64, 95
2, 179280, Note_off_c, 0, 72, 95
2, 179280, Note_off_c, 0, 69, 111
2, 179280, Note_off_c, 0, 67, 95
2, 179520, Note_on_c, 0, 72, 111
2, 179520, Note_on_c, 0, 69, 111
2, 179520, Note_on_c, 0, 66, 111
2, 179520, Note_on_c, 0, 62, 111
2, 180000, Note_off_c, 0, 72, 111
2, 180000, Note_off_c, 0, 69, 111
2, 180000, Note_off_c, 0, 66, 111
2, 180000, Note_off_c, 0, 62, 111
2, 180000, Note_on_c, 0, 40, 111
2, 180600, Note_off_c, 0, 40, 111
2, 180960, Note_on_c, 0, 43, 111
2, 181440, Note_off_c, 0, 43, 111
2, 181440, Note_on_c, 0, 64, 95
2, 181440, Note_on_c, 0, 72, 111
2, 181440, Note_on_c, 0, 69, 111
2, 181440, Note_on_c, 0, 67, 111
2, 181440, Note_on_c, 0, 45, 111
2, 182400, Note_off_c, 0, 45, 111
2, 183360, Note_off_c, 0, 64, 95
2, 183360, Note_off_c, 0, 72, 111
2, 183360, Note_off_c, 0, 69, 111
2, 183360, Note_off_c, 0, 67, 111
2, 183360, Note_on_c, 0, 64, 95
2, 183360, Note_on_c, 0, 69, 95
2, 183360, Note_on_c, 0, 67, 95
2, 183360, Note_on_c, 0, 60, 95
2, 184320, Note_off_c, 0, 64, 95
2, 184320, Note_off_c, 0, 69, 95
2, 184320, Note_off_c, 0, 67, 95
2, 184320, Note_off_c, 0, 60, 95
2, 185280, Note_on_c, 0, 64, 95
2, 185280, Note_on_c, 0, 72, 95
2, 185280, Note_on_c, 0, 69, 111
2, 185280, Note_on_c, 0, 67, 95
2, 186960, Note_off_c, 0, 64, 95
2, 186960, Note_off_c, 0, 72, 95
2, 186960, Note_off_c, 0, 69, 111
2, 186960, Note_off_c, 0, 67, 95
2, 187200, Note_on_c, 0, 72, 111
2, 187200, Note_on_c, 0, 69, 111
2, 187200, Note_on_c, 0, 66, 111
2, 187200, Note_on_c, 0, 62, 111
2, 187680, Note_off_c, 0, 72, 111
2, 187680, Note_off_c, 0, 69, 111
2, 187680, Note_off_c, 0, 66, 111
2, 187680, Note_off_c, 0, 62, 111
2, 187680, Note_on_c, 0, 40, 111
2, 188280, Note_off_c, 0, 40, 111
2, 188640, Note_on_c, 0, 43, 111
2, 189120, Note_off_c, 0, 43, 111
2, 189120, Note_on_c, 0, 64, 95
2, 189120, Note_on_c, 0, 72, 111
2, 189120, Note_on_c, 0, 69, 111
2, 189120, Note_on_c, 0, 67, 111
2, 189120, Note_on_c, 0, 45, 111
2, 190080, Note_off_c, 0, 45, 111
2, 191040, Note_off_c, 0, 64, 95
2, 191040, Note_off_c, 0, 72, 111
2, 191040, Note_off_c, 0, 69, 111
2, 191040, Note_off_c, 0, 67, 111
2, 191040, Note_on_c, 0, 64, 95
2, 191040, Note_on_c, 0, 69, 95
2, 191040, Note_on_c, 0, 67, 95
2, 191040, Note_on_c, 0, 60, 95
2, 192000, Note_off_c, 0, 64, 95
2, 192000, Note_off_c, 0, 69, 95
2, 192000, Note_off_c, 0, 67, 95
2, 192000, Note_off_c, 0, 60, 95
2, 192960, Note_on_c, 0, 64, 95
2, 192960, Note_on_c, 0, 72, 95
2, 192960, Note_on_c, 0, 69, 111
2, 192960, Note_on_c, 0, 67, 95
2, 194640, Note_off_c, 0, 64, 95
2, 194640, Note_off_c, 0, 72, 95
2, 194640, Note_off_c, 0, 69, 111
2, 194640, Note_off_c, 0, 67, 95
2, 194880, Note_on_c, 0, 72, 111
2, 194880, Note_on_c, 0, 69, 111
2, 194880, Note_on_c, 0, 66, 111
2, 194880, Note_on_c, 0, 62, 111
2, 195360, Note_off_c, 0, 72, 111
2, 195360, Note_off_c, 0, 69, 111
2, 195360, Note_off_c, 0, 66, 111
2, 195360, Note_off_c, 0, 62, 111
2, 195360, Note_on_c, 0, 40, 111
2, 195960, Note_off_c, 0, 40, 111
2, 196320, Note_on_c, 0, 43, 111
2, 196800, Note_off_c, 0, 43, 111
2, 196800, Note_on_c, 0, 64, 95
2, 196800, Note_on_c, 0, 72, 111
2, 196800, Note_on_c, 0, 69, 111
2, 196800, Note_on_c, 0, 67, 111
2, 196800, Note_on_c, 0, 45, 111
2, 197760, Note_off_c, 0, 45, 111
2, 198720, Note_off_c, 0, 64, 95
2, 198720, Note_off_c, 0, 72, 111
2, 198720, Note_off_c, 0, 69, 111
2, 198720, Note_off_c, 0, 67, 111
2, 198720, Note_on_c, 0, 64, 95
2, 198720, Note_on_c, 0, 69, 95
2, 198720, Note_on_c, 0, 67, 95
2, 198720, Note_on_c, 0, 60, 95
2, 199680, Note_off_c, 0, 64, 95
2, 199680, Note_off_c, 0, 69, 95
2, 199680, Note_off_c, 0, 67, 95
2, 199680, Note_off_c, 0, 60, 95
2, 200160, Note_on_c, 0, 67, 95
2, 200160, Note_on_c, 0, 65, 95
2, 200160, Note_on_c, 0, 57, 95
2, 200880, Note_off_c, 0, 67, 95
2, 200880, Note_off_c, 0, 65, 95
2, 200880, Note_off_c, 0, 57, 95
2, 200880, Note_on_c, 0, 72, 111
2, 200880, Note_on_c, 0, 69, 111
2, 200880, Note_on_c, 0, 62, 111
2, 201600, Note_off_c, 0, 72, 111
2, 201600, Note_off_c, 0, 69, 111
2, 201600, Note_off_c, 0, 62, 111
2, 201600, Note_on_c, 0, 72, 111
2, 201600, Note_on_c, 0, 69, 111
2, 201600, Note_on_c, 0, 62, 111
2, 202320, Note_off_c, 0, 72, 111
2, 202320, Note_off_c, 0, 69, 111
2, 202320, Note_off_c, 0, 62, 111
2, 202320, Note_on_c, 0, 71, 95
2, 202320, Note_on_c, 0, 67, 95
2, 202320, Note_on_c, 0, 62, 95
2, 203040, Note_off_c, 0, 71, 95
2, 203040, Note_off_c, 0, 67, 95
2, 203040, Note_off_c, 0, 62, 95
2, 203040, Note_on_c, 0, 65, 79
2, 203040, Note_on_c, 0, 60, 95
2, 203040, Note_on_c, 0, 57, 79
2, 203640, Note_off_c, 0, 65, 79
2, 203640, Note_off_c, 0, 60, 95
2, 203640, Note_off_c, 0, 57, 79
2, 204000, Note_on_c, 0, 64, 111
2, 204000, Note_on_c, 0, 67, 111
2, 204000, Note_on_c, 0, 58, 111
2, 204480, Note_off_c, 0, 64, 111
2, 204480, Note_off_c, 0, 67, 111
2, 204480, Note_off_c, 0, 58, 111
2, 204720, Note_on_c, 0, 72, 111
2, 204720, Note_on_c, 0, 69, 111
2, 204720, Note_on_c, 0, 62, 111
2, 205200, Note_off_c, 0, 72, 111
2, 205200, Note_off_c, 0, 69, 111
2, 205200, Note_off_c, 0, 62, 111
2, 205440, Note_on_c, 0, 72, 111
2, 205440, Note_on_c, 0, 69, 111
2, 205440, Note_on_c, 0, 62, 111
2, 206160, Note_off_c, 0, 72, 111
2, 206160, Note_off_c, 0, 69, 111
2, 206160, Note_off_c, 0, 62, 111
2, 206160, Note_on_c, 0, 71, 95
2, 206160, Note_on_c, 0, 67, 95
2, 206160, Note_on_c, 0, 62, 95
2, 206640, Note_off_c, 0, 71, 95
2, 206640, Note_off_c, 0, 67, 95
2, 206760, Note_off_c, 0, 62, 95
2, 206880, Note_on_c, 0, 69, 95
2, 206880, Note_on_c, 0, 65, 95
2, 206880, Note_on_c, 0, 62, 95
2, 207360, Note_off_c, 0, 69, 95
2, 207360, Note_off_c, 0, 65, 95
2, 207360, Note_off_c, 0, 62, 95
2, 207840, Note_on_c, 0, 67, 111
2, 207840, Note_on_c, 0, 65, 111
2, 207840, Note_on_c, 0, 48, 111
2, 208560, Note_off_c, 0, 67, 111
2, 208560, Note_off_c, 0, 65, 111
2, 208560, Note_off_c, 0, 48, 111
2, 208560, Note_on_c, 0, 72, 111
2, 208560, Note_on_c, 0, 69, 111
2, 208560, Note_on_c, 0, 62, 111
2, 209280, Note_off_c, 0, 72, 111
2, 209280, Note_off_c, 0, 69, 111
2, 209280, Note_off_c, 0, 62, 111
2, 209280, Note_on_c, 0, 72, 111
2, 209280, Note_on_c, 0, 69, 111
2, 209280, Note_on_c, 0, 62, 111
2, 210000, Note_off_c, 0, 72, 111
2, 210000, Note_off_c, 0, 69, 111
2, 210000, Note_off_c, 0, 62, 111
2, 210000, Note_on_c, 0, 71, 95
2, 210000, Note_on_c, 0, 63, 95
2, 210000, Note_on_c, 0, 57, 95
2, 210720, Note_off_c, 0, 71, 95
2, 210720, Note_off_c, 0, 63, 95
2, 210720, Note_off_c, 0, 57, 95
2, 210720, Note_on_c, 0, 64, 79
2, 210720, Note_on_c, 0, 61, 95
2, 211200, Note_off_c, 0, 64, 79
2, 211200, Note_off_c, 0, 61, 95
2, 211680, Note_on_c, 0, 64, 95
2, 211680, Note_on_c, 0, 67, 95
2, 211680, Note_on_c, 0, 58, 95
2, 212160, Note_off_c, 0, 64, 95
2, 212160, Note_off_c, 0, 67, 95
2, 212160, Note_off_c, 0, 58, 95
2, 212400, Note_on_c, 0, 72, 111
2, 212400, Note_on_c, 0, 69, 111
2, 212400, Note_on_c, 0, 62, 95
2, 212880, Note_off_c, 0, 72, 111
2, 212880, Note_off_c, 0, 69, 111
2, 212880, Note_off_c, 0, 62, 95
2, 213120, Note_on_c, 0, 64, 111
2, 213120, Note_on_c, 0, 68, 111
2, 213120, Note_on_c, 0, 57, 111
2, 213840, Note_off_c, 0, 64, 111
2, 213840, Note_off_c, 0, 68, 111
2, 213840, Note_off_c, 0, 57, 111
2, 213840, Note_on_c, 0, 71, 95
2, 213840, Note_on_c, 0, 67, 95
2, 213840, Note_on_c, 0, 53, 95
2, 214320, Note_off_c, 0, 71, 95
2, 214320, Note_off_c, 0, 67, 95
2, 214320, Note_off_c, 0, 53, 95
2, 214560, Note_on_c, 0, 69, 79
2, 214560, Note_on_c, 0, 65, 95
2, 214560, Note_on_c, 0, 62, 79
2, 214800, Note_off_c, 0, 69, 79
2, 214800, Note_off_c, 0, 65, 95
2, 214800, Note_off_c, 0, 62, 79
2, 215520, Note_on_c, 0, 69, 111
2, 215520, Note_on_c, 0, 67, 111
2, 215520, Note_on_c, 0, 59, 111
2, 216000, Note_off_c, 0, 69, 111
2, 216120, Note_off_c, 0, 67, 111
2, 216120, Note_off_c, 0, 59, 111
2, 216240, Note_on_c, 0, 74, 111
2, 216240, Note_on_c, 0, 71, 111
2, 216240, Note_on_c, 0, 64, 111
2, 216960, Note_off_c, 0, 74, 111
2, 216960, Note_off_c, 0, 71, 111
2, 216960, Note_off_c, 0, 64, 111
2, 216960, Note_on_c, 0, 74, 111
2, 216960, Note_on_c, 0, 71, 127
2, 216960, Note_on_c, 0, 64, 111
2, 217440, Note_off_c, 0, 71, 127
2, 217560, Note_off_c, 0, 74, 111
2, 217560, Note_off_c, 0, 64, 111
2, 217680, Note_on_c, 0, 73, 127
2, 217680, Note_on_c, 0, 69, 111
2, 217680, Note_on_c, 0, 64, 95
2, 218400, Note_off_c, 0, 73, 127
2, 218400, Note_off_c, 0, 69, 111
2, 218400, Note_off_c, 0, 64, 95
2, 218400, Note_on_c, 0, 71, 95
2, 218400, Note_on_c, 0, 62, 79
2, 218400, Note_on_c, 0, 58, 95
2, 219000, Note_off_c, 0, 71, 95
2, 219000, Note_off_c, 0, 62, 79
2, 219000, Note_off_c, 0, 58, 95
2, 219360, Note_on_c, 0, 69, 111
2, 219360, Note_on_c, 0, 66, 111
2, 219360, Note_on_c, 0, 60, 111
2, 219840, Note_off_c, 0, 69, 111
2, 219840, Note_off_c, 0, 66, 111
2, 219840, Note_off_c, 0, 60, 111
2, 219840, Note_on_c, 0, 40, 111
2, 220080, Note_off_c, 0, 40, 111
2, 220080, Note_on_c, 0, 74, 111
2, 220080, Note_on_c, 0, 71, 111
2, 220080, Note_on_c, 0, 64, 111
2, 220440, Note_off_c, 0, 74, 111
2, 220440, Note_off_c, 0, 71, 111
2, 220440, Note_off_c, 0, 64, 111
2, 220800, Note_on_c, 0, 74, 127
2, 220800, Note_on_c, 0, 71, 127
2, 220800, Note_on_c, 0, 64, 111
2, 221520, Note_off_c, 0, 74, 127
2, 221520, Note_off_c, 0, 71, 127
2, 221520, Note_off_c, 0, 64, 111
2, 221520, Note_on_c, 0, 73, 127
2, 221520, Note_on_c, 0, 69, 111
2, 221520, Note_on_c, 0, 64, 95
2, 222000, Note_off_c, 0, 73, 127
2, 222000, Note_off_c, 0, 69, 111
2, 222000, Note_off_c, 0, 64, 95
2, 222240, Note_on_c, 0, 71, 79
2, 222240, Note_on_c, 0, 62, 79
2, 222240, Note_on_c, 0, 58, 79
2, 222600, Note_off_c, 0, 71, 79
2, 222600, Note_off_c, 0, 62, 79
2, 222600, Note_off_c, 0, 58, 79
2, 223200, Note_on_c, 0, 66, 95
2, 223200, Note_on_c, 0, 62, 111
2, 223200, Note_on_c, 0, 58, 95
2, 223680, Note_off_c, 0, 66, 95
2, 223680, Note_off_c, 0, 62, 111
2, 223680, Note_off_c, 0, 58, 95
2, 223920, Note_on_c, 0, 73, 127
2, 223920, Note_on_c, 0, 69, 111
2, 223920, Note_on_c, 0, 64, 95
2, 224640, Note_off_c, 0, 73, 127
2, 224640, Note_off_c, 0, 69, 111
2, 224640, Note_off_c, 0, 64, 95
2, 224640, Note_on_c, 0, 66, 127
2, 224640, Note_on_c, 0, 62, 111
2, 224640, Note_on_c, 0, 53, 111
2, 225360, Note_off_c, 0, 66, 127
2, 225360, Note_off_c, 0, 62, 111
2, 225360, Note_off_c, 0, 53, 111
2, 225360, Note_on_c, 0, 64, 95
2, 226080, Note_off_c, 0, 64, 95
2, 226080, Note_on_c, 0, 57, 79
2, 226800, Note_off_c, 0, 57, 79
2, 227040, Note_on_c, 0, 67, 111
2, 227040, Note_on_c, 0, 57, 95
2, 227040, Note_on_c, 0, 53, 111
2, 227520, Note_off_c, 0, 67, 111
2, 227520, Note_off_c, 0, 57, 95
2, 227520, Note_off_c, 0, 53, 111
2, 227520, Note_on_c, 0, 40, 111
2, 227760, Note_off_c, 0, 40, 111
2, 227760, Note_on_c, 0, 64, 95
2, 227760, Note_on_c, 0, 68, 111
2, 227760, Note_on_c, 0, 65, 95
2, 228240, Note_off_c, 0, 64, 95
2, 228240, Note_off_c, 0, 68, 111
2, 228240, Note_off_c, 0, 65, 95
2, 228360, Note_on_c, 0, 66, 127
2, 228480, Note_off_c, 0, 66, 127
2, 228480, Note_on_c, 0, 71, 111
2, 228480, Note_on_c, 0, 62, 127
2, 229200, Note_off_c, 0, 71, 111
2, 229200, Note_off_c, 0, 62, 127
2, 229200, Note_on_c, 0, 64, 111
2, 229680, Note_off_c, 0, 64, 111
2, 229920, Note_on_c, 0, 62, 95
2, 230280, Note_off_c, 0, 62, 95
2, 230400, Note_on_c, 0, 66, 111
2, 230400, Note_on_c, 0, 62, 127
2, 230400, Note_on_c, 0, 57, 111
2, 230400, Note_on_c, 0, 50, 95
2, 233280, Note_off_c, 0, 62, 127
2, 233520, Note_off_c, 0, 66, 111
2, 233520, Note_off_c, 0, 57, 111
2, 233520, Note_off_c, 0, 50, 95
2, 233760, Note_on_c, 0, 64, 111
2, 233760, Note_on_c, 0, 55, 127
2, 233760, Note_on_c, 0, 50, 127
2, 233760, Note_on_c, 0, 43, 111
2, 237120, Note_off_c, 0, 64, 111
2, 237120, Note_off_c, 0, 55, 127
2, 237120, Note_off_c, 0, 50, 127
2, 237120, Note_off_c, 0, 43, 111
2, 237600, Note_on_c, 0, 70, 111
2, 237600, Note_on_c, 0, 62, 111
2, 237600, Note_on_c, 0, 58, 95
2, 237600, Note_on_c, 0, 46, 95
2, 237600, Note_on_c, 0, 41, 95
2, 240960, Note_off_c, 0, 70, 111
2, 240960, Note_off_c, 0, 62, 111
2, 240960, Note_off_c, 0, 58, 95
2, 240960, Note_off_c, 0, 46, 95
2, 240960, Note_off_c, 0, 41, 95
2, 241440, Note_on_c, 0, 67, 127
2, 241440, Note_on_c, 0, 62, 127
2, 241440, Note_on_c, 0, 59, 127
2, 241440, Note_on_c, 0, 55, 127
2, 241440, Note_on_c, 0, 43, 95
2, 245280, Note_off_c, 0, 62, 127
2, 245280, Note_off_c, 0, 59, 127
2, 245280, Note_off_c, 0, 55, 127
2, 245400, Note_off_c, 0, 67, 127
2, 245400, Note_off_c, 0, 43, 95
2, 245760, Note_on_c, 0, 55, 95
2, 245760, Note_on_c, 0, 52, 95
2, 246240, Note_off_c, 0, 55, 95
2, 246240, Note_off_c, 0, 52, 95
2, 246240, Note_on_c, 0, 65, 95
2, 246480, Note_off_c, 0, 65, 95
2, 246480, Note_on_c, 0, 65, 111
2, 246720, Note_off_c, 0, 65, 111
2, 246720, Note_on_c, 0, 60, 95
2, 246720, Note_on_c, 0, 57, 95
2, 246960, Note_off_c, 0, 60, 95
2, 246960, Note_off_c, 0, 57, 95
2, 246960, Note_on_c, 0, 64, 95
2, 247200, Note_off_c, 0, 64, 95
2, 247200, Note_on_c, 0, 62, 111
2, 247560, Note_off_c, 0, 62, 111
2, 247680, Note_on_c, 0, 59, 111
2, 247680, Note_on_c, 0, 55, 95
2, 247680, Note_on_c, 0, 55, 95
2, 248400, Note_off_c, 0, 59, 111
2, 248400, Note_off_c, 0, 55, 95
2, 248400, Note_off_c, 0, 55, 95
2, 248400, Note_on_c, 0, 62, 111
2, 248640, Note_off_c, 0, 62, 111
2, 248640, Note_on_c, 0, 57, 95
2, 248640, Note_on_c, 0, 53, 79
2, 248880, Note_off_c, 0, 57, 95
2, 248880, Note_off_c, 0, 53, 79
2, 248880, Note_on_c, 0, 60, 95
2, 249120, Note_off_c, 0, 60, 95
2, 249120, Note_on_c, 0, 62, 111
2, 249480, Note_off_c, 0, 62, 111
2, 249600, Note_on_c, 0, 60, 95
2, 249600, Note_on_c, 0, 55, 79
2, 249600, Note_on_c, 0, 52, 79
2, 250320, Note_off_c, 0, 60, 95
2, 250320, Note_off_c, 0, 55, 79
2, 250320, Note_off_c, 0, 52, 79
2, 250320, Note_on_c, 0, 62, 79
2, 250440, Note_off_c, 0, 62, 79
2, 250440, Note_on_c, 0, 64, 79
2, 250560, Note_off_c, 0, 64, 79
2, 250560, Note_on_c, 0, 65, 111
2, 250560, Note_on_c, 0, 60, 79
2, 250560, Note_on_c, 0, 57, 79
2, 251280, Note_off_c, 0, 65, 111
2, 251280, Note_off_c, 0, 60, 79
2, 251280, Note_off_c, 0, 57, 79
2, 251280, Note_on_c, 0, 64, 79
2, 251400, Note_off_c, 0, 64, 79
2, 251400, Note_on_c, 0, 62, 63
2, 251520, Note_off_c, 0, 62, 63
2, 251520, Note_on_c, 0, 59, 111
2, 251520, Note_on_c, 0, 55, 79
2, 251520, Note_on_c, 0, 55, 63
2, 252240, Note_off_c, 0, 59, 111
2, 252240, Note_off_c, 0, 55, 79
2, 252240, Note_off_c, 0, 55, 63
2, 252240, Note_on_c, 0, 62, 79
2, 252360, Note_off_c, 0, 62, 79
2, 252360, Note_on_c, 0, 60, 79
2, 252480, Note_off_c, 0, 60, 79
2, 252480, Note_on_c, 0, 62, 95
2, 252480, Note_on_c, 0, 57, 63
2, 252480, Note_on_c, 0, 53, 79
2, 253200, Note_off_c, 0, 62, 95
2, 253200, Note_off_c, 0, 57, 63
2, 253200, Note_off_c, 0, 53, 79
2, 253200, Note_on_c, 0, 60, 95
2, 253320, Note_off_c, 0, 60, 95
2, 253320, Note_on_c, 0, 59, 95
2, 253440, Note_off_c, 0, 59, 95
2, 253440, Note_on_c, 0, 60, 95
2, 253440, Note_on_c, 0, 55, 63
2, 253440, Note_on_c, 0, 52, 63
2, 254400, Note_off_c, 0, 60, 95
2, 254400, Note_off_c, 0, 55, 63
2, 254400, Note_off_c, 0, 52, 63
2, 254400, Note_on_c, 0, 72, 95
2, 254400, Note_on_c, 0, 67, 95
2, 254400, Note_on_c, 0, 65, 95
2, 254640, Note_off_c, 0, 72, 95
2, 254640, Note_off_c, 0, 67, 95
2, 254640, Note_off_c, 0, 65, 95
2, 254640, Note_on_c, 0, 64, 79
2, 254880, Note_off_c, 0, 64, 79
2, 254880, Note_on_c, 0, 62, 79
2, 255120, Note_off_c, 0, 62, 79
2, 255120, Note_on_c, 0, 60, 79
2, 255360, Note_off_c, 0, 60, 79
2, 255360, Note_on_c, 0, 67, 95
2, 255360, Note_on_c, 0, 62, 95
2, 255360, Note_on_c, 0, 50, 79
2, 255360, Note_on_c, 0, 43, 79
2, 255840, Note_off_c, 0, 67, 95
2, 255840, Note_off_c, 0, 62, 95
2, 255840, Note_off_c, 0, 50, 79
2, 255840, Note_off_c, 0, 43, 79
2, 255840, Note_on_c, 0, 59, 79
2, 256560, Note_off_c, 0, 59, 79
2, 256560, Note_on_c, 0, 67, 127
2, 256800, Note_off_c, 0, 67, 127
2, 256800, Note_on_c, 0, 62, 79
2, 257040, Note_off_c, 0, 62, 79
2, 257040, Note_on_c, 0, 59, 63
2, 257160, Note_off_c, 0, 59, 63
2, 257280, Note_on_c, 0, 60, 95
2, 257280, Note_on_c, 0, 52, 95
2, 257280, Note_on_c, 0, 45, 95
2, 257520, Note_off_c, 0, 60, 95
2, 257520, Note_off_c, 0, 52, 95
2, 257520, Note_off_c, 0, 45, 95
2, 257520, Note_on_c, 0, 57, 79
2, 257760, Note_off_c, 0, 57, 79
2, 257760, Note_on_c, 0, 60, 79
2, 258000, Note_off_c, 0, 60, 79
2, 258000, Note_on_c, 0, 62, 79
2, 258240, Note_off_c, 0, 62, 79
2, 258240, Note_on_c, 0, 64, 79
2, 258480, Note_off_c, 0, 64, 79
2, 258480, Note_on_c, 0, 52, 79
2, 258720, Note_off_c, 0, 52, 79
2, 258720, Note_on_c, 0, 69, 79
2, 258720, Note_on_c, 0, 60, 79
2, 258960, Note_off_c, 0, 69, 79
2, 258960, Note_off_c, 0, 60, 79
2, 258960, Note_on_c, 0, 71, 111
2, 258960, Note_on_c, 0, 62, 95
2, 259200, Note_off_c, 0, 71, 111
2, 259200, Note_off_c, 0, 62, 95
2, 259200, Note_on_c, 0, 72, 127
2, 259200, Note_on_c, 0, 64, 111
2, 259440, Note_off_c, 0, 72, 127
2, 259440, Note_off_c, 0, 64, 111
2, 259440, Note_on_c, 0, 45, 79
2, 259680, Note_off_c, 0, 45, 79
2, 259680, Note_on_c, 0, 52, 95
2, 259920, Note_off_c, 0, 52, 95
2, 259920, Note_on_c, 0, 45, 95
2, 260400, Note_off_c, 0, 45, 95
2, 260400, Note_on_c, 0, 67, 95
2, 260640, Note_off_c, 0, 67, 95
2, 260640, Note_on_c, 0, 65, 95
2, 260880, Note_off_c, 0, 65, 95
2, 260880, Note_on_c, 0, 64, 79
2, 261120, Note_off_c, 0, 64, 79
2, 261120, Note_on_c, 0, 69, 95
2, 261120, Note_on_c, 0, 65, 95
2, 261120, Note_on_c, 0, 48, 95
2, 261120, Note_on_c, 0, 41, 79
2, 261600, Note_off_c, 0, 69, 95
2, 261600, Note_off_c, 0, 65, 95
2, 261600, Note_off_c, 0, 48, 95
2, 261600, Note_off_c, 0, 41, 79
2, 261600, Note_on_c, 0, 60, 79
2, 262080, Note_off_c, 0, 60, 79
2, 262080, Note_on_c, 0, 56, 79
2, 262080, Note_on_c, 0, 52, 79
2, 262320, Note_off_c, 0, 56, 79
2, 262320, Note_off_c, 0, 52, 79
2, 262320, Note_on_c, 0, 60, 95
2, 262440, Note_off_c, 0, 60, 95
2, 262560, Note_on_c, 0, 60, 95
2, 262800, Note_off_c, 0, 60, 95
2, 262800, Note_on_c, 0, 57, 95
2, 263040, Note_off_c, 0, 57, 95
2, 263040, Note_on_c, 0, 62, 111
2, 263520, Note_off_c, 0, 62, 111
2, 263520, Note_on_c, 0, 60, 95
2, 263760, Note_off_c, 0, 60, 95
2, 263760, Note_on_c, 0, 53, 79
2, 264000, Note_off_c, 0, 53, 79
2, 264000, Note_on_c, 0, 68, 127
2, 264000, Note_on_c, 0, 67, 95
2, 264000, Note_on_c, 0, 60, 127
2, 264240, Note_off_c, 0, 68, 127
2, 264240, Note_off_c, 0, 67, 95
2, 264240, Note_off_c, 0, 60, 127
2, 264240, Note_on_c, 0, 67, 95
2, 264480, Note_off_c, 0, 67, 95
2, 264480, Note_on_c, 0, 65, 95
2, 264720, Note_off_c, 0, 65, 95
2, 264720, Note_on_c, 0, 67, 95
2, 264960, Note_off_c, 0, 67, 95
2, 264960, Note_on_c, 0, 55, 95
2, 264960, Note_on_c, 0, 52, 79
2, 265200, Note_off_c, 0, 55, 95
2, 265200, Note_off_c, 0, 52, 79
2, 265200, Note_on_c, 0, 67, 95
2, 265440, Note_off_c, 0, 67, 95
2, 265440, Note_on_c, 0, 62, 95
2, 265680, Note_off_c, 0, 62, 95
2, 265680, Note_on_c, 0, 64, 79
2, 265920, Note_off_c, 0, 64, 79
2, 265920, Note_on_c, 0, 64, 95
2, 265920, Note_on_c, 0, 60, 111
2, 265920, Note_on_c, 0, 57, 95
2, 265920, Note_on_c, 0, 56, 95
2, 266640, Note_off_c, 0, 64, 95
2, 266640, Note_off_c, 0, 60, 111
2, 266640, Note_off_c, 0, 57, 95
2, 266640, Note_off_c, 0, 56, 95
2, 266640, Note_on_c, 0, 64, 79
2, 266760, Note_off_c, 0, 64, 79
2, 266760, Note_on_c, 0, 62, 95
2, 266880, Note_off_c, 0, 62, 95
2, 266880, Note_on_c, 0, 67, 95
2, 266880, Note_on_c, 0, 64, 95
2, 266880, Note_on_c, 0, 59, 79
2, 266880, Note_on_c, 0, 55, 95
2, 267600, Note_off_c, 0, 67, 95
2, 267600, Note_off_c, 0, 64, 95
2, 267600, Note_off_c, 0, 59, 79
2, 267600, Note_off_c, 0, 55, 95
2, 267600, Note_on_c, 0, 62, 95
2, 267720, Note_off_c, 0, 62, 95
2, 267720, Note_on_c, 0, 60, 79
2, 267840, Note_off_c, 0, 60, 79
2, 267840, Note_on_c, 0, 62, 95
2, 267840, Note_on_c, 0, 57, 79
2, 267840, Note_on_c, 0, 53, 79
2, 267840, Note_on_c, 0, 51, 111
2, 268560, Note_off_c, 0, 62, 95
2, 268560, Note_off_c, 0, 57, 79
2, 268560, Note_off_c, 0, 53, 79
2, 268560, Note_off_c, 0, 51, 111
2, 268560, Note_on_c, 0, 67, 79
2, 268680, Note_off_c, 0, 67, 79
2, 268680, Note_on_c, 0, 65, 79
2, 268800, Note_off_c, 0, 65, 79
2, 268800, Note_on_c, 0, 64, 63
2, 268800, Note_on_c, 0, 56, 95
2, 268800, Note_on_c, 0, 50, 95
2, 268800, Note_on_c, 0, 47, 79
2, 269760, Note_off_c, 0, 64, 63
2, 269760, Note_off_c, 0, 56, 95
2, 269760, Note_off_c, 0, 50, 95
2, 269760, Note_off_c, 0, 47, 79
2, 269760, Note_on_c, 0, 72, 111
2, 269760, Note_on_c, 0, 69, 111
2, 270000, Note_off_c, 0, 72, 111
2, 270000, Note_off_c, 0, 69, 111
2, 270000, Note_on_c, 0, 67, 95
2, 270240, Note_off_c, 0, 67, 95
2, 270240, Note_on_c, 0, 65, 79
2, 270480, Note_off_c, 0, 65, 79
2, 270480, Note_on_c, 0, 64, 95
2, 270480, Note_on_c, 0, 67, 95
2, 270720, Note_off_c, 0, 64, 95
2, 270720, Note_off_c, 0, 67, 95
2, 270720, Note_on_c, 0, 53, 95
2, 270720, Note_on_c, 0, 50, 79
2, 270720, Note_on_c, 0, 43, 95
2, 271200, Note_off_c, 0, 53, 95
2, 271200, Note_off_c, 0, 50, 79
2, 271200, Note_off_c, 0, 43, 95
2, 271200, Note_on_c, 0, 74, 111
2, 271200, Note_on_c, 0, 69, 111
2, 271440, Note_off_c, 0, 74, 111
2, 271440, Note_off_c, 0, 69, 111
2, 271440, Note_on_c, 0, 71, 95
2, 271920, Note_off_c, 0, 71, 95
2, 271920, Note_on_c, 0, 62, 95
2, 272160, Note_off_c, 0, 62, 95
2, 272160, Note_on_c, 0, 60, 79
2, 272400, Note_off_c, 0, 60, 79
2, 272400, Note_on_c, 0, 59, 95
2, 272640, Note_off_c, 0, 59, 95
2, 272640, Note_on_c, 0, 60, 95
2, 272640, Note_on_c, 0, 48, 95
2, 272640, Note_on_c, 0, 40, 95
2, 272880, Note_off_c, 0, 60, 95
2, 272880, Note_off_c, 0, 48, 95
2, 272880, Note_off_c, 0, 40, 95
2, 272880, Note_on_c, 0, 57, 79
2, 273120, Note_off_c, 0, 57, 79
2, 273120, Note_on_c, 0, 60, 95
2, 273360, Note_off_c, 0, 60, 95
2, 273360, Note_on_c, 0, 62, 95
2, 273480, Note_off_c, 0, 62, 95
2, 273600, Note_on_c, 0, 62, 79
2, 273600, Note_on_c, 0, 58, 79
2, 273600, Note_on_c, 0, 55, 95
2, 273840, Note_off_c, 0, 62, 79
2, 273840, Note_off_c, 0, 58, 79
2, 273840, Note_off_c, 0, 55, 95
2, 273840, Note_on_c, 0, 69, 127
2, 274320, Note_off_c, 0, 69, 127
2, 274320, Note_on_c, 0, 62, 95
2, 274560, Note_off_c, 0, 62, 95
2, 274560, Note_on_c, 0, 62, 95
2, 274800, Note_off_c, 0, 62, 95
2, 274800, Note_on_c, 0, 57, 95
2, 275040, Note_off_c, 0, 57, 95
2, 275040, Note_on_c, 0, 60, 79
2, 275280, Note_off_c, 0, 60, 79
2, 275280, Note_on_c, 0, 62, 95
2, 275520, Note_off_c, 0, 62, 95
2, 275520, Note_on_c, 0, 64, 127
2, 275760, Note_off_c, 0, 64, 127
2, 275760, Note_on_c, 0, 60, 111
2, 276000, Note_off_c, 0, 60, 111
2, 276000, Note_on_c, 0, 57, 95
2, 276240, Note_off_c, 0, 57, 95
2, 276240, Note_on_c, 0, 55, 79
2, 276480, Note_off_c, 0, 55, 79
2, 276480, Note_on_c, 0, 55, 95
2, 276480, Note_on_c, 0, 45, 95
2, 276720, Note_off_c, 0, 55, 95
2, 276720, Note_off_c, 0, 45, 95
2, 276720, Note_on_c, 0, 54, 95
2, 277200, Note_off_c, 0, 54, 95
2, 277200, Note_on_c, 0, 62, 95
2, 277680, Note_off_c, 0, 62, 95
2, 277680, Note_on_c, 0, 69, 111
2, 277680, Note_on_c, 0, 64, 111
2, 277920, Note_off_c, 0, 69, 111
2, 277920, Note_off_c, 0, 64, 111
2, 277920, Note_on_c, 0, 66, 95
2, 278160, Note_off_c, 0, 66, 95
2, 278160, Note_on_c, 0, 64, 95
2, 278640, Note_off_c, 0, 64, 95
2, 278640, Note_on_c, 0, 62, 111
2, 279120, Note_off_c, 0, 62, 111
2, 279120, Note_on_c, 0, 60, 95
2, 279360, Note_off_c, 0, 60, 95
2, 279360, Note_on_c, 0, 57, 79
2, 279600, Note_off_c, 0, 57, 79
2, 279600, Note_on_c, 0, 62, 111
2, 279840, Note_off_c, 0, 62, 111
2, 279840, Note_on_c, 0, 60, 79
2, 280320, Note_off_c, 0, 60, 79
2, 280320, Note_on_c, 0, 58, 95
2, 280320, Note_on_c, 0, 50, 95
2, 280320, Note_on_c, 0, 45, 79
2, 280560, Note_off_c, 0, 58, 95
2, 280560, Note_off_c, 0, 50, 95
2, 280560, Note_off_c, 0, 45, 79
2, 280560, Note_on_c, 0, 67, 111
2, 280800, Note_off_c, 0, 67, 111
2, 280800, Note_on_c, 0, 62, 79
2, 281520, Note_off_c, 0, 62, 79
2, 281520, Note_on_c, 0, 69, 95
2, 281520, Note_on_c, 0, 60, 95
2, 281760, Note_off_c, 0, 69, 95
2, 281760, Note_off_c, 0, 60, 95
2, 281760, Note_on_c, 0, 66, 127
2, 281760, Note_on_c, 0, 62, 127
2, 282480, Note_off_c, 0, 66, 127
2, 282480, Note_off_c, 0, 62, 127
2, 282720, Note_on_c, 0, 67, 111
2, 282720, Note_on_c, 0, 64, 111
2, 282720, Note_on_c, 0, 59, 127
2, 282960, Note_off_c, 0, 67, 111
2, 282960, Note_off_c, 0, 64, 111
2, 282960, Note_off_c, 0, 59, 127
2, 283200, Note_on_c, 0, 71, 111
2, 283200, Note_on_c, 0, 67, 127
2, 283200, Note_on_c, 0, 62, 111
2, 283440, Note_off_c, 0, 71, 111
2, 283440, Note_off_c, 0, 67, 127
2, 283440, Note_off_c, 0, 62, 111
2, 283680, Note_on_c, 0, 72, 127
2, 283680, Note_on_c, 0, 69, 127
2, 283680, Note_on_c, 0, 64, 127
2, 283680, Note_on_c, 0, 52, 111
2, 288000, Note_off_c, 0, 72, 127
2, 288000, Note_off_c, 0, 69, 127
2, 288000, Note_off_c, 0, 64, 127
2, 288000, Note_off_c, 0, 52, 111
2, 288000, Note_on_c, 0, 60, 95
2, 288000, Note_on_c, 0, 57, 95
2, 288000, Note_on_c, 0, 48, 79
2, 288000, Note_on_c, 0, 41, 95
2, 288240, Note_off_c, 0, 60, 95
2, 288240, Note_off_c, 0, 57, 95
2, 288240, Note_off_c, 0, 48, 79
2, 288240, Note_off_c, 0, 41, 95
2, 288240, Note_on_c, 0, 65, 95
2, 288480, Note_off_c, 0, 65, 95
2, 288480, Note_on_c, 0, 67, 111
2, 288720, Note_off_c, 0, 67, 111
2, 288720, Note_on_c, 0, 65, 79
2, 288960, Note_off_c, 0, 65, 79
2, 288960, Note_on_c, 0, 65, 127
2, 289200, Note_off_c, 0, 65, 127
2, 289200, Note_on_c, 0, 60, 95
2, 289320, Note_off_c, 0, 60, 95
2, 289320, Note_on_c, 0, 56, 79
2, 289440, Note_off_c, 0, 56, 79
2, 289440, Note_on_c, 0, 57, 95
2, 289680, Note_off_c, 0, 57, 95
2, 289680, Note_on_c, 0, 60, 95
2, 289920, Note_off_c, 0, 60, 95
2, 289920, Note_on_c, 0, 55, 95
2, 289920, Note_on_c, 0, 53, 95
2, 290160, Note_off_c, 0, 55, 95
2, 290160, Note_off_c, 0, 53, 95
2, 290400, Note_on_c, 0, 67, 95
2, 290400, Note_on_c, 0, 64, 95
2, 290400, Note_on_c, 0, 59, 111
2, 290640, Note_off_c, 0, 67, 95
2, 290640, Note_off_c, 0, 64, 95
2, 290640, Note_off_c, 0, 59, 111
2, 290880, Note_on_c, 0, 71, 111
2, 290880, Note_on_c, 0, 67, 111
2, 290880, Note_on_c, 0, 62, 111
2, 291120, Note_off_c, 0, 71, 111
2, 291120, Note_off_c, 0, 67, 111
2, 291120, Note_off_c, 0, 62, 111
2, 291360, Note_on_c, 0, 72, 127
2, 291360, Note_on_c, 0, 69, 127
2, 291360, Note_on_c, 0, 64, 111
2, 293040, Note_off_c, 0, 72, 127
2, 293040, Note_off_c, 0, 69, 127
2, 293040, Note_off_c, 0, 64, 111
2, 293040, Note_on_c, 0, 74, 111
2, 293280, Note_off_c, 0, 74, 111
2, 293280, Note_on_c, 0, 76, 79
2, 293520, Note_off_c, 0, 76, 79
2, 293520, Note_on_c, 0, 79, 95
2, 293640, Note_off_c, 0, 79, 95
2, 293760, Note_on_c, 0, 79, 111
2, 294000, Note_off_c, 0, 79, 111
2, 294000, Note_on_c, 0, 74, 79
2, 294240, Note_off_c, 0, 74, 79
2, 294240, Note_on_c, 0, 76, 111
2, 294480, Note_off_c, 0, 76, 111
2, 294480, Note_on_c, 0, 72, 79
2, 294720, Note_off_c, 0, 72, 79
2, 294720, Note_on_c, 0, 74, 111
2, 294960, Note_off_c, 0, 74, 111
2, 294960, Note_on_c, 0, 69, 79
2, 295200, Note_off_c, 0, 69, 79
2, 295200, Note_on_c, 0, 74, 127
2, 295440, Note_off_c, 0, 74, 127
2, 295440, Note_on_c, 0, 71, 79
2, 295680, Note_off_c, 0, 71, 79
2, 295680, Note_on_c, 0, 45, 95
2, 295920, Note_off_c, 0, 45, 95
2, 295920, Note_on_c, 0, 62, 95
2, 296160, Note_off_c, 0, 62, 95
2, 296160, Note_on_c, 0, 72, 111
2, 296160, Note_on_c, 0, 64, 111
2, 296400, Note_off_c, 0, 72, 111
2, 296400, Note_off_c, 0, 64, 111
2, 296400, Note_on_c, 0, 67, 95
2, 296640, Note_off_c, 0, 67, 95
2, 296640, Note_on_c, 0, 66, 111
2, 296880, Note_off_c, 0, 66, 111
2, 296880, Note_on_c, 0, 64, 95
2, 297120, Note_off_c, 0, 64, 95
2, 297120, Note_on_c, 0, 62, 95
2, 297360, Note_off_c, 0, 62, 95
2, 297360, Note_on_c, 0, 60, 111
2, 297600, Note_off_c, 0, 60, 111
2, 297600, Note_on_c, 0, 50, 95
2, 297600, Note_on_c, 0, 43, 95
2, 297840, Note_off_c, 0, 50, 95
2, 297840, Note_off_c, 0, 43, 95
2, 297840, Note_on_c, 0, 62, 111
2, 298320, Note_off_c, 0, 62, 111
2, 298320, Note_on_c, 0, 59, 79
2, 298560, Note_off_c, 0, 59, 79
2, 298560, Note_on_c, 0, 60, 127
2, 298800, Note_off_c, 0, 60, 127
2, 298800, Note_on_c, 0, 57, 111
2, 299040, Note_off_c, 0, 57, 111
2, 299040, Note_on_c, 0, 53, 111
2, 299280, Note_off_c, 0, 53, 111
2, 299280, Note_on_c, 0, 55, 95
2, 299520, Note_off_c, 0, 55, 95
2, 299520, Note_on_c, 0, 48, 95
2, 299520, Note_on_c, 0, 43, 95
2, 300480, Note_off_c, 0, 48, 95
2, 300480, Note_off_c, 0, 43, 95
2, 300480, Note_on_c, 0, 72, 111
2, 300480, Note_on_c, 0, 65, 127
2, 300480, Note_on_c, 0, 58, 111
2, 300720, Note_off_c, 0, 72, 111
2, 300720, Note_off_c, 0, 65, 127
2, 300720, Note_off_c, 0, 58, 111
2, 300720, Note_on_c, 0, 64, 95
2, 300960, Note_off_c, 0, 64, 95
2, 300960, Note_on_c, 0, 62, 95
2, 301200, Note_off_c, 0, 62, 95
2, 301200, Note_on_c, 0, 60, 95
2, 301320, Note_off_c, 0, 60, 95
2, 301440, Note_on_c, 0, 67, 95
2, 301440, Note_on_c, 0, 62, 111
2, 301440, Note_on_c, 0, 50, 95
2, 301920, Note_off_c, 0, 67, 95
2, 301920, Note_off_c, 0, 62, 111
2, 301920, Note_off_c, 0, 50, 95
2, 301920, Note_on_c, 0, 43, 111
2, 302400, Note_off_c, 0, 43, 111
2, 302400, Note_on_c, 0, 55, 95
2, 302640, Note_off_c, 0, 55, 95
2, 302640, Note_on_c, 0, 58, 95
2, 302640, Note_on_c, 0, 54, 127
2, 302880, Note_off_c, 0, 58, 95
2, 302880, Note_off_c, 0, 54, 127
2, 302880, Note_on_c, 0, 67, 111
2, 303360, Note_off_c, 0, 67, 111
2, 303360, Note_on_c, 0, 52, 95
2, 303360, Note_on_c, 0, 45, 95
2, 303600, Note_off_c, 0, 52, 95
2, 303600, Note_off_c, 0, 45, 95
2, 303600, Note_on_c, 0, 62, 95
2, 303840, Note_off_c, 0, 62, 95
2, 303840, Note_on_c, 0, 69, 111
2, 303840, Note_on_c, 0, 64, 111
2, 304080, Note_off_c, 0, 69, 111
2, 304080, Note_off_c, 0, 64, 111
2, 304080, Note_on_c, 0, 62, 79
2, 304320, Note_off_c, 0, 62, 79
2, 304320, Note_on_c, 0, 64, 95
2, 304560, Note_off_c, 0, 64, 95
2, 304560, Note_on_c, 0, 60, 95
2, 304800, Note_off_c, 0, 60, 95
2, 304800, Note_on_c, 0, 62, 79
2, 305040, Note_off_c, 0, 62, 79
2, 305040, Note_on_c, 0, 59, 95
2, 305280, Note_off_c, 0, 59, 95
2, 305280, Note_on_c, 0, 62, 47
2, 305520, Note_off_c, 0, 62, 47
2, 305520, Note_on_c, 0, 60, 111
2, 305760, Note_off_c, 0, 60, 111
2, 305760, Note_on_c, 0, 57, 95
2, 306000, Note_off_c, 0, 57, 95
2, 306000, Note_on_c, 0, 62, 111
2, 306240, Note_off_c, 0, 62, 111
2, 306240, Note_on_c, 0, 64, 95
2, 306480, Note_off_c, 0, 64, 95
2, 306480, Note_on_c, 0, 59, 79
2, 306720, Note_off_c, 0, 59, 79
2, 306720, Note_on_c, 0, 55, 95
2, 306960, Note_off_c, 0, 55, 95
2, 306960, Note_on_c, 0, 57, 95
2, 307200, Note_off_c, 0, 57, 95
2, 307200, Note_on_c, 0, 69, 111
2, 307200, Note_on_c, 0, 60, 111
2, 307200, Note_on_c, 0, 41, 111
2, 307440, Note_off_c, 0, 69, 111
2, 307440, Note_off_c, 0, 60, 111
2, 307440, Note_off_c, 0, 41, 111
2, 307440, Note_on_c, 0, 48, 79
2, 307680, Note_off_c, 0, 48, 79
2, 307680, Note_on_c, 0, 53, 95
2, 308160, Note_off_c, 0, 53, 95
2, 308160, Note_on_c, 0, 72, 111
2, 308160, Note_on_c, 0, 65, 111
2, 309120, Note_off_c, 0, 72, 111
2, 309120, Note_off_c, 0, 65, 111
2, 309120, Note_on_c, 0, 50, 95
2, 309120, Note_on_c, 0, 43, 95
2, 309360, Note_off_c, 0, 50, 95
2, 309360, Note_off_c, 0, 43, 95
2, 309360, Note_on_c, 0, 60, 79
2, 309600, Note_off_c, 0, 60, 79
2, 309600, Note_on_c, 0, 65, 95
2, 309840, Note_off_c, 0, 65, 95
2, 309840, Note_on_c, 0, 69, 111
2, 310320, Note_off_c, 0, 69, 111
2, 310320, Note_on_c, 0, 66, 111
2, 310320, Note_on_c, 0, 62, 95
2, 310560, Note_off_c, 0, 66, 111
2, 310560, Note_off_c, 0, 62, 95
2, 310560, Note_on_c, 0, 65, 95
2, 311040, Note_off_c, 0, 65, 95
2, 311040, Note_on_c, 0, 60, 95
2, 311040, Note_on_c, 0, 55, 95
2, 311040, Note_on_c, 0, 52, 79
2, 311760, Note_off_c, 0, 60, 95
2, 311760, Note_off_c, 0, 55, 95
2, 311760, Note_off_c, 0, 52, 79
2, 311760, Note_on_c, 0, 62, 79
2, 311880, Note_off_c, 0, 62, 79
2, 311880, Note_on_c, 0, 64, 95
2, 312000, Note_off_c, 0, 64, 95
2, 312000, Note_on_c, 0, 65, 127
2, 312000, Note_on_c, 0, 60, 79
2, 312000, Note_on_c, 0, 57, 79
2, 312720, Note_off_c, 0, 65, 127
2, 312720, Note_off_c, 0, 60, 79
2, 312720, Note_off_c, 0, 57, 79
2, 312720, Note_on_c, 0, 64, 95
2, 312840, Note_off_c, 0, 64, 95
2, 312840, Note_on_c, 0, 62, 79
2, 312960, Note_off_c, 0, 62, 79
2, 312960, Note_on_c, 0, 64, 111
2, 312960, Note_on_c, 0, 59, 79
2, 312960, Note_on_c, 0, 55, 95
2, 313680, Note_off_c, 0, 64, 111
2, 313680, Note_off_c, 0, 59, 79
2, 313680, Note_off_c, 0, 55, 95
2, 313680, Note_on_c, 0, 62, 95
2, 313800, Note_off_c, 0, 62, 95
2, 313800, Note_on_c, 0, 60, 79
2, 313920, Note_off_c, 0, 60, 79
2, 313920, Note_on_c, 0, 62, 111
2, 313920, Note_on_c, 0, 57, 79
2, 313920, Note_on_c, 0, 53, 79
2, 314640, Note_off_c, 0, 62, 111
2, 314640, Note_off_c, 0, 57, 79
2, 314640, Note_off_c, 0, 53, 79
2, 314640, Note_on_c, 0, 60, 95
2, 314760, Note_off_c, 0, 60, 95
2, 314760, Note_on_c, 0, 59, 79
2, 314880, Note_off_c, 0, 59, 79
2, 314880, Note_on_c, 0, 60, 111
2, 314880, Note_on_c, 0, 51, 79
2, 314880, Note_on_c, 0, 47, 79
2, 315600, Note_off_c, 0, 60, 111
2, 315600, Note_off_c, 0, 51, 79
2, 315600, Note_off_c, 0, 47, 79
2, 315600, Note_on_c, 0, 62, 95
2, 315720, Note_off_c, 0, 62, 95
2, 315720, Note_on_c, 0, 64, 79
2, 315840, Note_off_c, 0, 64, 79
2, 315840, Note_on_c, 0, 65, 127
2, 315840, Note_on_c, 0, 55, 111
2, 315840, Note_on_c, 0, 53, 95
2, 316080, Note_off_c, 0, 65, 127
2, 316080, Note_off_c, 0, 55, 111
2, 316080, Note_off_c, 0, 53, 95
2, 316080, Note_on_c, 0, 68, 127
2, 316080, Note_on_c, 0, 64, 111
2, 316320, Note_off_c, 0, 68, 127
2, 316320, Note_off_c, 0, 64, 111
2, 316320, Note_on_c, 0, 72, 111
2, 316800, Note_off_c, 0, 72, 111
2, 316800, Note_on_c, 0, 59, 111
2, 316800, Note_on_c, 0, 55, 111
2, 317040, Note_off_c, 0, 59, 111
2, 317040, Note_off_c, 0, 55, 111
2, 317040, Note_on_c, 0, 72, 111
2, 317040, Note_on_c, 0, 64, 111
2, 317280, Note_off_c, 0, 72, 111
2, 317280, Note_off_c, 0, 64, 111
2, 317280, Note_on_c, 0, 67, 95
2, 317760, Note_off_c, 0, 67, 95
2, 317760, Note_on_c, 0, 53, 95
2, 317760, Note_on_c, 0, 52, 111
2, 318000, Note_off_c, 0, 53, 95
2, 318000, Note_off_c, 0, 52, 111
2, 318000, Note_on_c, 0, 65, 111
2, 318240, Note_off_c, 0, 65, 111
2, 318240, Note_on_c, 0, 67, 79
2, 318480, Note_off_c, 0, 67, 79
2, 318480, Note_on_c, 0, 62, 79
2, 318720, Note_off_c, 0, 62, 79
2, 318720, Note_on_c, 0, 55, 111
2, 318720, Note_on_c, 0, 47, 95
2, 319680, Note_off_c, 0, 55, 111
2, 319680, Note_off_c, 0, 47, 95
2, 319680, Note_on_c, 0, 60, 63
2, 319680, Note_on_c, 0, 57, 79
2, 319680, Note_on_c, 0, 56, 95
2, 319920, Note_off_c, 0, 60, 63
2, 319920, Note_off_c, 0, 57, 79
2, 319920, Note_off_c, 0, 56, 95
2, 319920, Note_on_c, 0, 67, 95
2, 320160, Note_off_c, 0, 67, 95
2, 320160, Note_on_c, 0, 65, 95
2, 320640, Note_off_c, 0, 65, 95
2, 320640, Note_on_c, 0, 64, 79
2, 320640, Note_on_c, 0, 59, 79
2, 320640, Note_on_c, 0, 55, 79
2, 320880, Note_off_c, 0, 64, 79
2, 320880, Note_off_c, 0, 59, 79
2, 320880, Note_off_c, 0, 55, 79
2, 320880, Note_on_c, 0, 67, 95
2, 321120, Note_off_c, 0, 67, 95
2, 321120, Note_on_c, 0, 64, 95
2, 321600, Note_off_c, 0, 64, 95
2, 321600, Note_on_c, 0, 62, 95
2, 321600, Note_on_c, 0, 57, 79
2, 321600, Note_on_c, 0, 53, 79
2, 321840, Note_off_c, 0, 62, 95
2, 321840, Note_off_c, 0, 57, 79
2, 321840, Note_off_c, 0, 53, 79
2, 321840, Note_on_c, 0, 65, 79
2, 322080, Note_off_c, 0, 65, 79
2, 322080, Note_on_c, 0, 65, 79
2, 322080, Note_on_c, 0, 62, 95
2, 322560, Note_off_c, 0, 65, 79
2, 322560, Note_off_c, 0, 62, 95
2, 322560, Note_on_c, 0, 59, 95
2, 322560, Note_on_c, 0, 54, 95
2, 322560, Note_on_c, 0, 51, 79
2, 322560, Note_on_c, 0, 47, 79
2, 323040, Note_off_c, 0, 59, 95
2, 323040, Note_off_c, 0, 54, 95
2, 323040, Note_off_c, 0, 51, 79
2, 323040, Note_off_c, 0, 47, 79
2, 323040, Note_on_c, 0, 66, 79
2, 323280, Note_off_c, 0, 66, 79
2, 323280, Note_on_c, 0, 66, 79
2, 323640, Note_off_c, 0, 66, 79
2, 323760, Note_on_c, 0, 66, 63
2, 324720, Note_off_c, 0, 66, 63
2, 324720, Note_on_c, 0, 66, 47
2, 326160, Note_off_c, 0, 66, 47
2, 326160, End_track
3, 0, Start_track
3, 0, Pitch_bend_c, 1, 8192
3, 0, Control_c, 1, 7, 103
3, 0, Control_c, 1, 10, 63
3, 0, Control_c, 1, 93, 87
3, 0, Control_c, 1, 91, 47
3, 0, Control_c, 1, 95, 0
3, 0, Control_c, 1, 92, 0
3, 0, Control_c, 1, 11, 127
3, 0, Program_c, 1, 35
3, 4800, Note_on_c, 1, 48, 111
3, 5760, Note_off_c, 1, 48, 111
3, 5760, Note_on_c, 1, 47, 111
3, 6600, Note_off_c, 1, 47, 111
3, 6720, Note_on_c, 1, 45, 111
3, 6960, Note_off_c, 1, 45, 111
3, 6960, Note_on_c, 1, 43, 111
3, 7200, Note_off_c, 1, 43, 111
3, 8640, Note_on_c, 1, 48, 111
3, 9600, Note_off_c, 1, 48, 111
3, 9600, Note_on_c, 1, 47, 111
3, 10440, Note_off_c, 1, 47, 111
3, 10560, Note_on_c, 1, 45, 111
3, 10800, Note_off_c, 1, 45, 111
3, 10800, Note_on_c, 1, 43, 111
3, 11040, Note_off_c, 1, 43, 111
3, 12480, Note_on_c, 1, 48, 111
3, 13320, Note_off_c, 1, 48, 111
3, 13440, Note_on_c, 1, 40, 95
3, 14280, Note_off_c, 1, 40, 95
3, 14400, Note_on_c, 1, 45, 111
3, 14640, Note_off_c, 1, 45, 111
3, 14640, Note_on_c, 1, 43, 111
3, 14880, Note_off_c, 1, 43, 111
3, 16320, Note_on_c, 1, 48, 111
3, 17160, Note_off_c, 1, 48, 111
3, 17280, Note_on_c, 1, 47, 111
3, 18120, Note_off_c, 1, 47, 111
3, 18240, Note_on_c, 1, 45, 111
3, 18480, Note_off_c, 1, 45, 111
3, 18480, Note_on_c, 1, 43, 111
3, 18720, Note_off_c, 1, 43, 111
3, 24240, Note_on_c, 1, 40, 95
3, 24360, Note_off_c, 1, 40, 95
3, 24480, Note_on_c, 1, 45, 111
3, 25200, Note_off_c, 1, 45, 111
3, 25440, Note_on_c, 1, 40, 111
3, 26160, Note_off_c, 1, 40, 111
3, 28800, Note_on_c, 1, 41, 111
3, 29160, Note_off_c, 1, 41, 111
3, 29280, Note_on_c, 1, 41, 95
3, 30000, Note_off_c, 1, 41, 95
3, 31680, Note_on_c, 1, 48, 111
3, 32520, Note_off_c, 1, 48, 111
3, 32640, Note_on_c, 1, 47, 111
3, 33480, Note_off_c, 1, 47, 111
3, 33600, Note_on_c, 1, 45, 111
3, 33840, Note_off_c, 1, 45, 111
3, 33840, Note_on_c, 1, 43, 111
3, 34080, Note_off_c, 1, 43, 111
3, 36240, Note_on_c, 1, 40, 111
3, 36480, Note_off_c, 1, 40, 111
3, 36480, Note_on_c, 1, 43, 111
3, 36840, Note_off_c, 1, 43, 111
3, 39600, Note_on_c, 1, 40, 95
3, 39840, Note_off_c, 1, 40, 95
3, 39840, Note_on_c, 1, 45, 111
3, 40560, Note_off_c, 1, 45, 111
3, 40800, Note_on_c, 1, 40, 111
3, 41520, Note_off_c, 1, 40, 111
3, 55680, Note_on_c, 1, 41, 111
3, 55920, Note_off_c, 1, 41, 111
3, 56160, Note_on_c, 1, 40, 111
3, 56400, Note_off_c, 1, 40, 111
3, 56640, Note_on_c, 1, 43, 111
3, 56880, Note_off_c, 1, 43, 111
3, 60720, Note_on_c, 1, 40, 111
3, 60960, Note_off_c, 1, 40, 111
3, 62640, Note_on_c, 1, 45, 111
3, 62880, Note_off_c, 1, 45, 111
3, 62880, Note_on_c, 1, 42, 111
3, 63120, Note_off_c, 1, 42, 111
3, 63120, Note_on_c, 1, 43, 111
3, 63480, Note_off_c, 1, 43, 111
3, 70320, Note_on_c, 1, 40, 95
3, 70560, Note_off_c, 1, 40, 95
3, 70560, Note_on_c, 1, 45, 111
3, 71280, Note_off_c, 1, 45, 111
3, 71280, Note_on_c, 1, 40, 95
3, 71520, Note_off_c, 1, 40, 95
3, 74400, Note_on_c, 1, 41, 111
3, 74880, Note_off_c, 1, 41, 111
3, 74880, Note_on_c, 1, 43, 111
3, 75240, Note_off_c, 1, 43, 111
3, 75360, Note_on_c, 1, 43, 111
3, 76080, Note_off_c, 1, 43, 111
3, 77760, Note_on_c, 1, 48, 111
3, 78480, Note_off_c, 1, 48, 111
3, 78720, Note_on_c, 1, 47, 111
3, 79560, Note_off_c, 1, 47, 111
3, 79680, Note_on_c, 1, 45, 111
3, 80400, Note_off_c, 1, 45, 111
3, 80400, Note_on_c, 1, 43, 95
3, 80640, Note_off_c, 1, 43, 95
3, 81600, Note_on_c, 1, 48, 111
3, 82320, Note_off_c, 1, 48, 111
3, 82560, Note_on_c, 1, 47, 111
3, 83280, Note_off_c, 1, 47, 111
3, 83520, Note_on_c, 1, 45, 111
3, 83760, Note_off_c, 1, 45, 111
3, 83760, Note_on_c, 1, 43, 111
3, 84000, Note_off_c, 1, 43, 111
3, 89520, Note_on_c, 1, 40, 95
3, 89760, Note_off_c, 1, 40, 95
3, 89760, Note_on_c, 1, 45, 111
3, 90480, Note_off_c, 1, 45, 111
3, 90720, Note_on_c, 1, 40, 95
3, 91320, Note_off_c, 1, 40, 95
3, 94080, Note_on_c, 1, 41, 95
3, 94440, Note_off_c, 1, 41, 95
3, 94560, Note_on_c, 1, 41, 111
3, 95280, Note_off_c, 1, 41, 111
3, 96960, Note_on_c, 1, 48, 111
3, 97800, Note_off_c, 1, 48, 111
3, 97920, Note_on_c, 1, 47, 111
3, 98760, Note_off_c, 1, 47, 111
3, 98880, Note_on_c, 1, 45, 111
3, 99120, Note_off_c, 1, 45, 111
3, 99120, Note_on_c, 1, 43, 111
3, 99360, Note_off_c, 1, 43, 111
3, 101520, Note_on_c, 1, 40, 111
3, 101760, Note_off_c, 1, 40, 111
3, 101760, Note_on_c, 1, 43, 111
3, 102840, Note_off_c, 1, 43, 111
3, 106080, Note_on_c, 1, 40, 111
3, 106440, Note_off_c, 1, 40, 111
3, 108720, Note_on_c, 1, 47, 111
3, 109200, Note_off_c, 1, 47, 111
3, 109200, Note_on_c, 1, 45, 111
3, 109680, Note_off_c, 1, 45, 111
3, 113280, Note_on_c, 1, 43, 111
3, 113520, Note_off_c, 1, 43, 111
3, 113760, Note_on_c, 1, 40, 111
3, 114000, Note_off_c, 1, 40, 111
3, 114240, Note_on_c, 1, 43, 111
3, 114480, Note_off_c, 1, 43, 111
3, 116400, Note_on_c, 1, 40, 95
3, 116640, Note_off_c, 1, 40, 95
3, 116640, Note_on_c, 1, 43, 95
3, 116880, Note_off_c, 1, 43, 95
3, 116880, Note_on_c, 1, 43, 111
3, 117120, Note_off_c, 1, 43, 111
3, 117120, Note_on_c, 1, 45, 111
3, 117360, Note_off_c, 1, 45, 111
3, 117360, Note_on_c, 1, 40, 111
3, 117600, Note_off_c, 1, 40, 111
3, 120960, Note_on_c, 1, 41, 111
3, 121200, Note_off_c, 1, 41, 111
3, 121440, Note_on_c, 1, 40, 111
3, 121680, Note_off_c, 1, 40, 111
3, 121920, Note_on_c, 1, 43, 111
3, 122160, Note_off_c, 1, 43, 111
3, 124320, Note_on_c, 1, 40, 111
3, 124560, Note_off_c, 1, 40, 111
3, 124560, Note_on_c, 1, 45, 111
3, 125760, Note_off_c, 1, 45, 111
3, 126000, Note_on_c, 1, 40, 111
3, 126240, Note_off_c, 1, 40, 111
3, 127920, Note_on_c, 1, 45, 111
3, 128400, Note_off_c, 1, 45, 111
3, 128400, Note_on_c, 1, 42, 111
3, 128640, Note_off_c, 1, 42, 111
3, 128640, Note_on_c, 1, 43, 111
3, 128880, Note_off_c, 1, 43, 111
3, 135360, Note_on_c, 1, 40, 95
3, 135840, Note_off_c, 1, 40, 95
3, 135840, Note_on_c, 1, 45, 95
3, 136080, Note_off_c, 1, 45, 95
3, 136080, Note_on_c, 1, 45, 111
3, 136800, Note_off_c, 1, 45, 111
3, 136800, Note_on_c, 1, 40, 95
3, 137040, Note_off_c, 1, 40, 95
3, 137040, Note_on_c, 1, 40, 95
3, 137520, Note_off_c, 1, 40, 95
3, 143040, Note_on_c, 1, 48, 111
3, 143760, Note_off_c, 1, 48, 111
3, 144000, Note_on_c, 1, 47, 111
3, 144840, Note_off_c, 1, 47, 111
3, 144960, Note_on_c, 1, 45, 111
3, 145200, Note_off_c, 1, 45, 111
3, 145200, Note_on_c, 1, 43, 111
3, 145440, Note_off_c, 1, 43, 111
3, 146880, Note_on_c, 1, 48, 111
3, 147600, Note_off_c, 1, 48, 111
3, 147840, Note_on_c, 1, 47, 111
3, 148800, Note_off_c, 1, 47, 111
3, 148800, Note_on_c, 1, 45, 111
3, 149040, Note_off_c, 1, 45, 111
3, 149040, Note_on_c, 1, 43, 111
3, 149280, Note_off_c, 1, 43, 111
3, 156960, Note_on_c, 1, 40, 111
3, 157680, Note_off_c, 1, 40, 111
3, 157920, Note_on_c, 1, 43, 111
3, 158400, Note_off_c, 1, 43, 111
3, 158400, Note_on_c, 1, 45, 111
3, 159240, Note_off_c, 1, 45, 111
3, 164640, Note_on_c, 1, 40, 111
3, 165360, Note_off_c, 1, 40, 111
3, 165600, Note_on_c, 1, 43, 111
3, 166080, Note_off_c, 1, 43, 111
3, 166080, Note_on_c, 1, 45, 111
3, 166920, Note_off_c, 1, 45, 111
3, 172320, Note_on_c, 1, 40, 111
3, 173040, Note_off_c, 1, 40, 111
3, 173280, Note_on_c, 1, 43, 111
3, 173760, Note_off_c, 1, 43, 111
3, 173760, Note_on_c, 1, 45, 111
3, 174600, Note_off_c, 1, 45, 111
3, 180000, Note_on_c, 1, 40, 111
3, 180720, Note_off_c, 1, 40, 111
3, 180960, Note_on_c, 1, 43, 111
3, 181440, Note_off_c, 1, 43, 111
3, 181440, Note_on_c, 1, 45, 111
3, 182160, Note_off_c, 1, 45, 111
3, 187680, Note_on_c, 1, 40, 111
3, 188400, Note_off_c, 1, 40, 111
3, 188640, Note_on_c, 1, 43, 111
3, 189120, Note_off_c, 1, 43, 111
3, 189120, Note_on_c, 1, 45, 111
3, 189840, Note_off_c, 1, 45, 111
3, 195360, Note_on_c, 1, 40, 111
3, 196080, Note_off_c, 1, 40, 111
3, 196320, Note_on_c, 1, 43, 111
3, 196800, Note_off_c, 1, 43, 111
3, 196800, Note_on_c, 1, 45, 111
3, 197520, Note_off_c, 1, 45, 111
3, 201120, Note_on_c, 1, 41, 111
3, 201600, Note_off_c, 1, 41, 111
3, 201600, Note_on_c, 1, 43, 111
3, 202320, Note_off_c, 1, 43, 111
3, 202560, Note_on_c, 1, 43, 111
3, 203040, Note_off_c, 1, 43, 111
3, 203040, Note_on_c, 1, 45, 111
3, 203760, Note_off_c, 1, 45, 111
3, 204000, Note_on_c, 1, 48, 111
3, 204480, Note_off_c, 1, 48, 111
3, 204480, Note_on_c, 1, 50, 111
3, 205200, Note_off_c, 1, 50, 111
3, 208800, Note_on_c, 1, 41, 111
3, 209280, Note_off_c, 1, 41, 111
3, 209280, Note_on_c, 1, 43, 111
3, 210000, Note_off_c, 1, 43, 111
3, 210240, Note_on_c, 1, 43, 111
3, 210720, Note_off_c, 1, 43, 111
3, 210720, Note_on_c, 1, 45, 111
3, 211440, Note_off_c, 1, 45, 111
3, 211680, Note_on_c, 1, 48, 111
3, 212160, Note_off_c, 1, 48, 111
3, 212160, Note_on_c, 1, 50, 111
3, 212880, Note_off_c, 1, 50, 111
3, 215040, Note_on_c, 1, 40, 111
3, 215520, Note_off_c, 1, 40, 111
3, 215520, Note_on_c, 1, 40, 111
3, 216120, Note_off_c, 1, 40, 111
3, 216480, Note_on_c, 1, 43, 111
3, 216960, Note_off_c, 1, 43, 111
3, 216960, Note_on_c, 1, 45, 111
3, 217680, Note_off_c, 1, 45, 111
3, 217920, Note_on_c, 1, 45, 111
3, 218400, Note_off_c, 1, 45, 111
3, 218400, Note_on_c, 1, 47, 111
3, 219000, Note_off_c, 1, 47, 111
3, 219360, Note_on_c, 1, 50, 111
3, 219720, Note_off_c, 1, 50, 111
3, 219840, Note_on_c, 1, 52, 111
3, 220320, Note_off_c, 1, 52, 111
3, 220560, Note_on_c, 1, 40, 95
3, 220680, Note_off_c, 1, 40, 95
3, 220800, Note_on_c, 1, 40, 111
3, 221160, Note_off_c, 1, 40, 111
3, 221280, Note_on_c, 1, 40, 111
3, 221760, Note_off_c, 1, 40, 111
3, 222000, Note_on_c, 1, 40, 95
3, 222120, Note_off_c, 1, 40, 95
3, 222240, Note_on_c, 1, 40, 95
3, 222600, Note_off_c, 1, 40, 95
3, 222720, Note_on_c, 1, 40, 111
3, 223080, Note_off_c, 1, 40, 111
3, 223200, Note_on_c, 1, 40, 111
3, 223800, Note_off_c, 1, 40, 111
3, 224160, Note_on_c, 1, 43, 111
3, 224640, Note_off_c, 1, 43, 111
3, 224640, Note_on_c, 1, 45, 111
3, 225360, Note_off_c, 1, 45, 111
3, 225600, Note_on_c, 1, 45, 111
3, 226080, Note_off_c, 1, 45, 111
3, 226080, Note_on_c, 1, 47, 111
3, 226800, Note_off_c, 1, 47, 111
3, 227040, Note_on_c, 1, 50, 111
3, 227520, Note_off_c, 1, 50, 111
3, 227520, Note_on_c, 1, 52, 111
3, 228000, Note_off_c, 1, 52, 111
3, 228240, Note_on_c, 1, 40, 95
3, 228360, Note_off_c, 1, 40, 95
3, 228480, Note_on_c, 1, 40, 111
3, 228840, Note_off_c, 1, 40, 111
3, 228960, Note_on_c, 1, 40, 95
3, 229440, Note_off_c, 1, 40, 95
3, 229680, Note_on_c, 1, 47, 111
3, 229800, Note_off_c, 1, 47, 111
3, 229920, Note_on_c, 1, 40, 95
3, 233280, Note_off_c, 1, 40, 95
3, 246720, Note_on_c, 1, 48, 111
3, 247560, Note_off_c, 1, 48, 111
3, 247680, Note_on_c, 1, 47, 95
3, 248520, Note_off_c, 1, 47, 95
3, 248640, Note_on_c, 1, 45, 111
3, 248880, Note_off_c, 1, 45, 111
3, 248880, Note_on_c, 1, 43, 111
3, 249120, Note_off_c, 1, 43, 111
3, 250560, Note_on_c, 1, 48, 111
3, 251520, Note_off_c, 1, 48, 111
3, 251520, Note_on_c, 1, 47, 111
3, 252360, Note_off_c, 1, 47, 111
3, 252480, Note_on_c, 1, 45, 111
3, 253200, Note_off_c, 1, 45, 111
3, 253200, Note_on_c, 1, 43, 95
3, 253440, Note_off_c, 1, 43, 95
3, 258480, Note_on_c, 1, 40, 95
3, 258720, Note_off_c, 1, 40, 95
3, 258720, Note_on_c, 1, 45, 111
3, 258960, Note_off_c, 1, 45, 111
3, 258960, Note_on_c, 1, 45, 95
3, 259440, Note_off_c, 1, 45, 95
3, 259680, Note_on_c, 1, 40, 95
3, 259800, Note_off_c, 1, 40, 95
3, 259920, Note_on_c, 1, 40, 111
3, 260280, Note_off_c, 1, 40, 111
3, 263040, Note_on_c, 1, 41, 111
3, 263280, Note_off_c, 1, 41, 111
3, 263520, Note_on_c, 1, 41, 111
3, 264120, Note_off_c, 1, 41, 111
3, 265920, Note_on_c, 1, 48, 111
3, 266640, Note_off_c, 1, 48, 111
3, 266880, Note_on_c, 1, 47, 111
3, 267120, Note_off_c, 1, 47, 111
3, 267120, Note_on_c, 1, 43, 111
3, 267360, Note_off_c, 1, 43, 111
3, 267360, Note_on_c, 1, 40, 95
3, 267720, Note_off_c, 1, 40, 95
3, 267840, Note_on_c, 1, 41, 111
3, 268080, Note_off_c, 1, 41, 111
3, 271200, Note_on_c, 1, 43, 95
3, 271440, Note_off_c, 1, 43, 95
3, 271440, Note_on_c, 1, 43, 111
3, 271920, Note_off_c, 1, 43, 111
3, 273600, Note_on_c, 1, 40, 111
3, 274080, Note_off_c, 1, 40, 111
3, 274080, Note_on_c, 1, 45, 95
3, 274320, Note_off_c, 1, 45, 95
3, 274320, Note_on_c, 1, 45, 111
3, 274800, Note_off_c, 1, 45, 111
3, 275040, Note_on_c, 1, 40, 111
3, 275760, Note_off_c, 1, 40, 111
3, 277920, Note_on_c, 1, 45, 95
3, 278160, Note_off_c, 1, 45, 95
3, 278160, Note_on_c, 1, 45, 95
3, 278520, Note_off_c, 1, 45, 95
3, 278640, Note_on_c, 1, 45, 111
3, 279600, Note_off_c, 1, 45, 111
3, 282240, Note_on_c, 1, 43, 111
3, 282480, Note_off_c, 1, 43, 111
3, 282720, Note_on_c, 1, 40, 111
3, 282960, Note_off_c, 1, 40, 111
3, 283200, Note_on_c, 1, 43, 111
3, 283440, Note_off_c, 1, 43, 111
3, 286320, Note_on_c, 1, 40, 111
3, 286560, Note_off_c, 1, 40, 111
3, 289440, Note_on_c, 1, 41, 111
3, 289680, Note_off_c, 1, 41, 111
3, 289680, Note_on_c, 1, 41, 111
3, 290040, Note_off_c, 1, 41, 111
3, 290400, Note_on_c, 1, 40, 111
3, 290640, Note_off_c, 1, 40, 111
3, 290880, Note_on_c, 1, 43, 111
3, 291120, Note_off_c, 1, 43, 111
3, 292800, Note_on_c, 1, 45, 111
3, 293040, Note_off_c, 1, 45, 111
3, 293040, Note_on_c, 1, 43, 95
3, 293280, Note_off_c, 1, 43, 95
3, 293280, Note_on_c, 1, 45, 111
3, 293520, Note_off_c, 1, 45, 111
3, 293520, Note_on_c, 1, 45, 95
3, 293760, Note_off_c, 1, 45, 95
3, 293760, Note_on_c, 1, 40, 111
3, 294000, Note_off_c, 1, 40, 111
3, 294240, Note_on_c, 1, 40, 111
3, 294600, Note_off_c, 1, 40, 111
3, 296880, Note_on_c, 1, 45, 111
3, 297120, Note_off_c, 1, 45, 111
3, 297120, Note_on_c, 1, 42, 111
3, 297360, Note_off_c, 1, 42, 111
3, 297360, Note_on_c, 1, 43, 111
3, 297720, Note_off_c, 1, 43, 111
3, 304320, Note_on_c, 1, 45, 111
3, 304560, Note_off_c, 1, 45, 111
3, 304560, Note_on_c, 1, 43, 95
3, 304800, Note_off_c, 1, 43, 95
3, 304800, Note_on_c, 1, 45, 111
3, 305520, Note_off_c, 1, 45, 111
3, 305520, Note_on_c, 1, 40, 111
3, 305760, Note_off_c, 1, 40, 111
3, 312000, Note_on_c, 1, 48, 111
3, 312720, Note_off_c, 1, 48, 111
3, 312960, Note_on_c, 1, 47, 111
3, 313800, Note_off_c, 1, 47, 111
3, 313920, Note_on_c, 1, 45, 111
3, 314160, Note_off_c, 1, 45, 111
3, 314160, Note_on_c, 1, 43, 111
3, 314400, Note_off_c, 1, 43, 111
3, 315600, Note_on_c, 1, 43, 95
3, 315720, Note_off_c, 1, 43, 95
3, 315720, Note_on_c, 1, 43, 95
3, 315840, Note_off_c, 1, 43, 95
3, 315840, Note_on_c, 1, 48, 111
3, 316560, Note_off_c, 1, 48, 111
3, 316560, Note_on_c, 1, 48, 95
3, 316680, Note_off_c, 1, 48, 95
3, 316680, Note_on_c, 1, 43, 95
3, 316800, Note_off_c, 1, 43, 95
3, 316800, Note_on_c, 1, 48, 111
3, 317400, Note_off_c, 1, 48, 111
3, 317520, Note_on_c, 1, 43, 95
3, 317640, Note_off_c, 1, 43, 95
3, 317760, Note_on_c, 1, 40, 111
3, 318000, Note_off_c, 1, 40, 111
3, 318000, Note_on_c, 1, 43, 95
3, 318360, Note_off_c, 1, 43, 95
3, 319680, Note_on_c, 1, 48, 111
3, 320400, Note_off_c, 1, 48, 111
3, 320640, Note_on_c, 1, 48, 111
3, 321360, Note_off_c, 1, 48, 111
3, 322080, Note_on_c, 1, 43, 95
3, 322440, Note_off_c, 1, 43, 95
3, 322440, End_track
4, 0, Start_track
4, 0, Pitch_bend_c, 2, 8192
4, 0, Control_c, 2, 7, 103
4, 0, Control_c, 2, 10, 63
4, 0, Control_c, 2, 93, 87
4, 0, Control_c, 2, 91, 87
4, 0, Control_c, 2, 95, 0
4, 0, Control_c, 2, 92, 0
4, 0, Control_c, 2, 11, 127
4, 0, Program_c, 2, 27
4, 3840, Note_on_c, 2, 52, 95
4, 4800, Note_off_c, 2, 52, 95
4, 4800, Note_on_c, 2, 53, 95
4, 5760, Note_off_c, 2, 53, 95
4, 5760, Note_on_c, 2, 52, 95
4, 5880, Pitch_bend_c, 2, 8064
4, 6000, Pitch_bend_c, 2, 7936
4, 6120, Pitch_bend_c, 2, 7680
4, 6240, Pitch_bend_c, 2, 7552
4, 6360, Pitch_bend_c, 2, 7424
4, 6480, Pitch_bend_c, 2, 7168
4, 6600, Pitch_bend_c, 2, 7040
4, 6720, Pitch_bend_c, 2, 6784
4, 6720, Pitch_bend_c, 2, 8192
4, 6720, Note_off_c, 2, 52, 95
4, 6720, Note_on_c, 2, 50, 95
4, 7680, Note_off_c, 2, 50, 95
4, 7680, Note_on_c, 2, 48, 95
4, 8640, Note_off_c, 2, 48, 95
4, 8640, Note_on_c, 2, 53, 95
4, 9600, Note_off_c, 2, 53, 95
4, 9600, Note_on_c, 2, 52, 95
4, 9720, Pitch_bend_c, 2, 8064
4, 9840, Pitch_bend_c, 2, 7936
4, 9960, Pitch_bend_c, 2, 7680
4, 10080, Pitch_bend_c, 2, 7552
4, 10200, Pitch_bend_c, 2, 7424
4, 10320, Pitch_bend_c, 2, 7168
4, 10440, Pitch_bend_c, 2, 7040
4, 10560, Pitch_bend_c, 2, 6784
4, 10560, Pitch_bend_c, 2, 8192
4, 10560, Note_off_c, 2, 52, 95
4, 10560, Note_on_c, 2, 50, 95
4, 11520, Note_off_c, 2, 50, 95
4, 11520, Note_on_c, 2, 52, 95
4, 11520, Note_on_c, 2, 48, 95
4, 12480, Note_off_c, 2, 52, 95
4, 12480, Note_off_c, 2, 48, 95
4, 12480, Note_on_c, 2, 57, 95
4, 12480, Note_on_c, 2, 53, 95
4, 13440, Note_off_c, 2, 57, 95
4, 13440, Note_off_c, 2, 53, 95
4, 13440, Note_on_c, 2, 55, 95
4, 13560, Pitch_bend_c, 2, 8064
4, 13680, Pitch_bend_c, 2, 7936
4, 13800, Pitch_bend_c, 2, 7680
4, 13920, Pitch_bend_c, 2, 7552
4, 14040, Pitch_bend_c, 2, 7424
4, 14160, Pitch_bend_c, 2, 7168
4, 14280, Pitch_bend_c, 2, 7040
4, 14400, Pitch_bend_c, 2, 6784
4, 14400, Pitch_bend_c, 2, 8192
4, 14400, Note_off_c, 2, 55, 95
4, 14400, Note_on_c, 2, 53, 95
4, 15360, Note_off_c, 2, 53, 95
4, 15360, Note_on_c, 2, 52, 95
4, 15360, Note_on_c, 2, 48, 95
4, 16320, Note_off_c, 2, 52, 95
4, 16320, Note_off_c, 2, 48, 95
4, 16320, Note_on_c, 2, 57, 95
4, 16320, Note_on_c, 2, 53, 95
4, 17280, Note_off_c, 2, 57, 95
4, 17280, Note_off_c, 2, 53, 95
4, 17280, Note_on_c, 2, 55, 95
4, 17400, Pitch_bend_c, 2, 8064
4, 17520, Pitch_bend_c, 2, 7936
4, 17640, Pitch_bend_c, 2, 7680
4, 17760, Pitch_bend_c, 2, 7552
4, 17880, Pitch_bend_c, 2, 7424
4, 18000, Pitch_bend_c, 2, 7168
4, 18120, Pitch_bend_c, 2, 7040
4, 18240, Pitch_bend_c, 2, 6784
4, 18240, Pitch_bend_c, 2, 8192
4, 18240, Note_off_c, 2, 55, 95
4, 18240, Note_on_c, 2, 53, 95
4, 19200, Note_off_c, 2, 53, 95
4, 19200, Note_on_c, 2, 57, 95
4, 19200, Note_on_c, 2, 53, 95
4, 20160, Note_off_c, 2, 57, 95
4, 20160, Note_off_c, 2, 53, 95
4, 20160, Note_on_c, 2, 57, 95
4, 20640, Note_off_c, 2, 57, 95
4, 20640, Note_on_c, 2, 60, 95
4, 21120, Note_off_c, 2, 60, 95
4, 21120, Note_on_c, 2, 43, 95
4, 22080, Note_off_c, 2, 43, 95
4, 22080, Note_on_c, 2, 47, 95
4, 22560, Note_off_c, 2, 47, 95
4, 22560, Note_on_c, 2, 50, 95
4, 23040, Note_off_c, 2, 50, 95
4, 23040, Note_on_c, 2, 45, 95
4, 24000, Note_off_c, 2, 45, 95
4, 24000, Note_on_c, 2, 52, 95
4, 24240, Note_off_c, 2, 52, 95
4, 24720, Note_on_c, 2, 52, 95
4, 24960, Note_off_c, 2, 52, 95
4, 24960, Note_on_c, 2, 45, 95
4, 25680, Note_off_c, 2, 45, 95
4, 25680, Note_on_c, 2, 52, 95
4, 25920, Note_off_c, 2, 52, 95
4, 25920, Note_on_c, 2, 45, 95
4, 26160, Note_off_c, 2, 45, 95
4, 26160, Note_on_c, 2, 52, 95
4, 26400, Note_off_c, 2, 52, 95
4, 26400, Note_on_c, 2, 43, 95
4, 26640, Note_off_c, 2, 43, 95
4, 26640, Note_on_c, 2, 50, 95
4, 26880, Note_off_c, 2, 50, 95
4, 26880, Note_on_c, 2, 41, 95
4, 28800, Note_off_c, 2, 41, 95
4, 28800, Note_on_c, 2, 41, 95
4, 29280, Note_off_c, 2, 41, 95
4, 29280, Note_on_c, 2, 41, 95
4, 30720, Note_off_c, 2, 41, 95
4, 30720, Note_on_c, 2, 52, 95
4, 31680, Note_off_c, 2, 52, 95
4, 31680, Note_on_c, 2, 57, 95
4, 32640, Note_off_c, 2, 57, 95
4, 32640, Note_on_c, 2, 55, 95
4, 32760, Pitch_bend_c, 2, 8064
4, 32880, Pitch_bend_c, 2, 7936
4, 33000, Pitch_bend_c, 2, 7680
4, 33120, Pitch_bend_c, 2, 7552
4, 33240, Pitch_bend_c, 2, 7424
4, 33360, Pitch_bend_c, 2, 7168
4, 33480, Pitch_bend_c, 2, 7040
4, 33600, Pitch_bend_c, 2, 6784
4, 33600, Pitch_bend_c, 2, 8192
4, 33600, Note_off_c, 2, 55, 95
4, 33600, Note_on_c, 2, 53, 95
4, 34560, Note_off_c, 2, 53, 95
4, 34560, Note_on_c, 2, 52, 95
4, 35520, Note_off_c, 2, 52, 95
4, 35520, Note_on_c, 2, 52, 95
4, 35760, Note_off_c, 2, 52, 95
4, 35760, Note_on_c, 2, 55, 95
4, 36000, Note_off_c, 2, 55, 95
4, 36000, Note_on_c, 2, 55, 95
4, 36480, Note_off_c, 2, 55, 95
4, 36480, Note_on_c, 2, 43, 95
4, 37440, Note_off_c, 2, 43, 95
4, 37440, Note_on_c, 2, 47, 95
4, 37680, Note_off_c, 2, 47, 95
4, 37680, Note_on_c, 2, 50, 95
4, 37920, Note_off_c, 2, 50, 95
4, 37920, Note_on_c, 2, 50, 95
4, 38400, Note_off_c, 2, 50, 95
4, 38400, Note_on_c, 2, 45, 95
4, 38880, Note_off_c, 2, 45, 95
4, 38880, Note_on_c, 2, 45, 95
4, 39360, Note_off_c, 2, 45, 95
4, 39360, Note_on_c, 2, 57, 95
4, 40080, Note_off_c, 2, 57, 95
4, 40080, Note_on_c, 2, 52, 95
4, 40320, Note_off_c, 2, 52, 95
4, 40320, Note_on_c, 2, 45, 95
4, 41040, Note_off_c, 2, 45, 95
4, 41040, Note_on_c, 2, 57, 95
4, 41280, Note_off_c, 2, 57, 95
4, 41280, Note_on_c, 2, 57, 95
4, 41520, Note_off_c, 2, 57, 95
4, 41520, Note_on_c, 2, 45, 95
4, 41760, Note_off_c, 2, 45, 95
4, 41760, Note_on_c, 2, 48, 95
4, 42000, Note_off_c, 2, 48, 95
4, 42000, Note_on_c, 2, 55, 95
4, 42240, Note_off_c, 2, 55, 95
4, 42240, Note_on_c, 2, 50, 95
4, 42720, Note_off_c, 2, 50, 95
4, 42720, Note_on_c, 2, 62, 95
4, 43200, Note_off_c, 2, 62, 95
4, 43200, Note_on_c, 2, 66, 95
4, 43440, Note_off_c, 2, 66, 95
4, 43440, Note_on_c, 2, 67, 95
4, 43680, Note_off_c, 2, 67, 95
4, 43680, Note_on_c, 2, 66, 95
4, 43920, Note_off_c, 2, 66, 95
4, 43920, Note_on_c, 2, 66, 95
4, 44400, Note_off_c, 2, 66, 95
4, 44400, Note_on_c, 2, 64, 95
4, 44880, Note_off_c, 2, 64, 95
4, 44880, Note_on_c, 2, 62, 95
4, 45120, Note_off_c, 2, 62, 95
4, 45120, Note_on_c, 2, 64, 95
4, 45360, Note_off_c, 2, 64, 95
4, 45360, Note_on_c, 2, 57, 95
4, 45600, Note_off_c, 2, 57, 95
4, 45600, Note_on_c, 2, 62, 95
4, 45840, Note_off_c, 2, 62, 95
4, 45840, Note_on_c, 2, 42, 95
4, 45960, Pitch_bend_c, 2, 8448
4, 46080, Pitch_bend_c, 2, 8832
4, 46080, Pitch_bend_c, 2, 8192
4, 46080, Note_off_c, 2, 42, 95
4, 46080, Note_on_c, 2, 43, 95
4, 46560, Note_off_c, 2, 43, 95
4, 46560, Note_on_c, 2, 43, 95
4, 46800, Note_off_c, 2, 43, 95
4, 46800, Note_on_c, 2, 55, 95
4, 47040, Note_off_c, 2, 55, 95
4, 47040, Note_on_c, 2, 47, 95
4, 47760, Note_off_c, 2, 47, 95
4, 47760, Note_on_c, 2, 55, 95
4, 48000, Note_off_c, 2, 55, 95
4, 48000, Note_on_c, 2, 55, 95
4, 48240, Note_off_c, 2, 55, 95
4, 48480, Note_on_c, 2, 47, 95
4, 48480, Note_on_c, 2, 40, 95
4, 48960, Note_off_c, 2, 47, 95
4, 48960, Note_off_c, 2, 40, 95
4, 48960, Note_on_c, 2, 50, 95
4, 48960, Note_on_c, 2, 43, 95
4, 49440, Note_off_c, 2, 50, 95
4, 49440, Note_off_c, 2, 43, 95
4, 49440, Note_on_c, 2, 57, 95
4, 49440, Note_on_c, 2, 52, 95
4, 49440, Note_on_c, 2, 45, 95
4, 50400, Note_off_c, 2, 57, 95
4, 50400, Note_off_c, 2, 52, 95
4, 50400, Note_off_c, 2, 45, 95
4, 50400, Note_on_c, 2, 45, 95
4, 50880, Note_off_c, 2, 45, 95
4, 50880, Note_on_c, 2, 60, 95
4, 50880, Note_on_c, 2, 57, 95
4, 50880, Note_on_c, 2, 52, 95
4, 51600, Note_off_c, 2, 60, 95
4, 51600, Note_off_c, 2, 57, 95
4, 51600, Note_off_c, 2, 52, 95
4, 51600, Note_on_c, 2, 60, 95
4, 51600, Note_on_c, 2, 57, 95
4, 51840, Note_off_c, 2, 60, 95
4, 51840, Note_off_c, 2, 57, 95
4, 51840, Note_on_c, 2, 52, 95
4, 51840, Note_on_c, 2, 45, 95
4, 52320, Note_off_c, 2, 52, 95
4, 52320, Note_off_c, 2, 45, 95
4, 52320, Note_on_c, 2, 52, 95
4, 52320, Note_on_c, 2, 45, 95
4, 52800, Note_off_c, 2, 52, 95
4, 52800, Note_off_c, 2, 45, 95
4, 52800, Note_on_c, 2, 60, 95
4, 52800, Note_on_c, 2, 57, 95
4, 52800, Note_on_c, 2, 52, 95
4, 53520, Note_off_c, 2, 60, 95
4, 53520, Note_off_c, 2, 57, 95
4, 53520, Note_off_c, 2, 52, 95
4, 53520, Note_on_c, 2, 60, 95
4, 53520, Note_on_c, 2, 57, 95
4, 53760, Note_off_c, 2, 60, 95
4, 53760, Note_off_c, 2, 57, 95
4, 53760, Note_on_c, 2, 41, 95
4, 54240, Note_off_c, 2, 41, 95
4, 54240, Note_on_c, 2, 41, 95
4, 54720, Note_off_c, 2, 41, 95
4, 54720, Note_on_c, 2, 57, 95
4, 54720, Note_on_c, 2, 51, 95
4, 55680, Note_off_c, 2, 57, 95
4, 55680, Note_off_c, 2, 51, 95
4, 55680, Note_on_c, 2, 51, 95
4, 56160, Note_off_c, 2, 51, 95
4, 56160, Note_on_c, 2, 47, 95
4, 56160, Note_on_c, 2, 40, 95
4, 56640, Note_off_c, 2, 47, 95
4, 56640, Note_off_c, 2, 40, 95
4, 56640, Note_on_c, 2, 50, 95
4, 56640, Note_on_c, 2, 43, 95
4, 57120, Note_off_c, 2, 50, 95
4, 57120, Note_off_c, 2, 43, 95
4, 57120, Note_on_c, 2, 57, 95
4, 57120, Note_on_c, 2, 52, 95
4, 57120, Note_on_c, 2, 45, 95
4, 58080, Note_off_c, 2, 57, 95
4, 58080, Note_off_c, 2, 52, 95
4, 58080, Note_off_c, 2, 45, 95
4, 58080, Note_on_c, 2, 52, 95
4, 58080, Note_on_c, 2, 45, 95
4, 58560, Note_off_c, 2, 52, 95
4, 58560, Note_off_c, 2, 45, 95
4, 58560, Note_on_c, 2, 60, 95
4, 58560, Note_on_c, 2, 57, 95
4, 59280, Note_off_c, 2, 60, 95
4, 59280, Note_off_c, 2, 57, 95
4, 59280, Note_on_c, 2, 60, 95
4, 59280, Note_on_c, 2, 57, 95
4, 59520, Note_off_c, 2, 60, 95
4, 59520, Note_off_c, 2, 57, 95
4, 59520, Note_on_c, 2, 52, 95
4, 59520, Note_on_c, 2, 45, 95
4, 60000, Note_off_c, 2, 52, 95
4, 60000, Note_off_c, 2, 45, 95
4, 60000, Note_on_c, 2, 52, 95
4, 60000, Note_on_c, 2, 45, 95
4, 60480, Note_off_c, 2, 52, 95
4, 60480, Note_off_c, 2, 45, 95
4, 60480, Note_on_c, 2, 60, 95
4, 60480, Note_on_c, 2, 57, 95
4, 60960, Note_off_c, 2, 60, 95
4, 60960, Note_off_c, 2, 57, 95
4, 60960, Note_on_c, 2, 52, 95
4, 61440, Note_off_c, 2, 52, 95
4, 61440, Note_on_c, 2, 50, 95
4, 61680, Note_off_c, 2, 50, 95
4, 61680, Note_on_c, 2, 57, 95
4, 61920, Note_off_c, 2, 57, 95
4, 61920, Note_on_c, 2, 50, 95
4, 62160, Note_off_c, 2, 50, 95
4, 62160, Note_on_c, 2, 67, 95
4, 62400, Note_off_c, 2, 67, 95
4, 62400, Note_on_c, 2, 66, 70
4, 62640, Note_off_c, 2, 66, 70
4, 62640, Note_on_c, 2, 61, 95
4, 62880, Note_off_c, 2, 61, 95
4, 62880, Note_on_c, 2, 50, 95
4, 63120, Note_off_c, 2, 50, 95
4, 63120, Note_on_c, 2, 57, 95
4, 63360, Note_off_c, 2, 57, 95
4, 63360, Note_on_c, 2, 43, 95
4, 63840, Note_off_c, 2, 43, 95
4, 63840, Note_on_c, 2, 42, 95
4, 64080, Note_off_c, 2, 42, 95
4, 64080, Note_on_c, 2, 55, 95
4, 64320, Note_off_c, 2, 55, 95
4, 64320, Note_on_c, 2, 47, 95
4, 64440, Pitch_bend_c, 2, 8704
4, 64560, Pitch_bend_c, 2, 9216
4, 64680, Pitch_bend_c, 2, 9728
4, 64800, Pitch_bend_c, 2, 10240
4, 64800, Pitch_bend_c, 2, 8192
4, 64800, Note_off_c, 2, 47, 95
4, 64800, Note_on_c, 2, 53, 95
4, 64800, Note_on_c, 2, 50, 95
4, 65280, Note_off_c, 2, 53, 95
4, 65280, Note_off_c, 2, 50, 95
4, 65280, Note_on_c, 2, 52, 95
4, 65280, Note_on_c, 2, 48, 95
4, 66240, Note_off_c, 2, 52, 95
4, 66240, Note_off_c, 2, 48, 95
4, 66240, Note_on_c, 2, 52, 95
4, 66720, Note_off_c, 2, 52, 95
4, 66720, Note_on_c, 2, 55, 95
4, 67200, Note_off_c, 2, 55, 95
4, 67200, Note_on_c, 2, 43, 95
4, 68160, Note_off_c, 2, 43, 95
4, 68160, Note_on_c, 2, 47, 95
4, 68640, Note_off_c, 2, 47, 95
4, 68640, Note_on_c, 2, 50, 95
4, 69120, Note_off_c, 2, 50, 95
4, 69120, Note_on_c, 2, 45, 95
4, 70080, Note_off_c, 2, 45, 95
4, 70080, Note_on_c, 2, 57, 95
4, 70080, Note_on_c, 2, 52, 95
4, 70800, Note_off_c, 2, 57, 95
4, 70800, Note_off_c, 2, 52, 95
4, 70800, Note_on_c, 2, 52, 95
4, 71040, Note_off_c, 2, 52, 95
4, 71040, Note_on_c, 2, 45, 95
4, 71760, Note_off_c, 2, 45, 95
4, 71760, Note_on_c, 2, 57, 95
4, 72000, Note_off_c, 2, 57, 95
4, 72000, Note_on_c, 2, 45, 95
4, 72240, Note_off_c, 2, 45, 95
4, 72240, Note_on_c, 2, 57, 95
4, 72480, Note_off_c, 2, 57, 95
4, 72480, Note_on_c, 2, 43, 95
4, 72720, Note_off_c, 2, 43, 95
4, 72720, Note_on_c, 2, 55, 95
4, 72960, Note_off_c, 2, 55, 95
4, 72960, Note_on_c, 2, 41, 95
4, 73440, Note_off_c, 2, 41, 95
4, 73440, Note_on_c, 2, 41, 95
4, 73920, Note_off_c, 2, 41, 95
4, 73920, Note_on_c, 2, 57, 95
4, 73920, Note_on_c, 2, 53, 95
4, 73920, Note_on_c, 2, 48, 95
4, 74640, Note_off_c, 2, 57, 95
4, 74640, Note_off_c, 2, 53, 95
4, 74640, Note_off_c, 2, 48, 95
4, 74640, Note_on_c, 2, 50, 95
4, 74880, Note_off_c, 2, 50, 95
4, 74880, Note_on_c, 2, 43, 95
4, 75360, Note_off_c, 2, 43, 95
4, 75360, Note_on_c, 2, 43, 95
4, 75840, Note_off_c, 2, 43, 95
4, 75840, Note_on_c, 2, 59, 95
4, 75840, Note_on_c, 2, 55, 95
4, 75840, Note_on_c, 2, 50, 95
4, 76560, Note_off_c, 2, 59, 95
4, 76560, Note_off_c, 2, 55, 95
4, 76560, Note_off_c, 2, 50, 95
4, 76560, Note_on_c, 2, 55, 95
4, 76800, Note_off_c, 2, 55, 95
4, 76800, Note_on_c, 2, 52, 95
4, 76800, Note_on_c, 2, 48, 95
4, 77760, Note_off_c, 2, 52, 95
4, 77760, Note_off_c, 2, 48, 95
4, 77760, Note_on_c, 2, 57, 95
4, 77760, Note_on_c, 2, 53, 95
4, 78720, Note_off_c, 2, 57, 95
4, 78720, Note_off_c, 2, 53, 95
4, 78720, Note_on_c, 2, 55, 95
4, 78840, Pitch_bend_c, 2, 8064
4, 78960, Pitch_bend_c, 2, 7936
4, 79080, Pitch_bend_c, 2, 7680
4, 79200, Pitch_bend_c, 2, 7552
4, 79320, Pitch_bend_c, 2, 7424
4, 79440, Pitch_bend_c, 2, 7168
4, 79560, Pitch_bend_c, 2, 7040
4, 79680, Pitch_bend_c, 2, 6784
4, 79680, Pitch_bend_c, 2, 8192
4, 79680, Note_off_c, 2, 55, 95
4, 79680, Note_on_c, 2, 53, 95
4, 80640, Note_off_c, 2, 53, 95
4, 80640, Note_on_c, 2, 52, 95
4, 80640, Note_on_c, 2, 48, 95
4, 81600, Note_off_c, 2, 52, 95
4, 81600, Note_off_c, 2, 48, 95
4, 81600, Note_on_c, 2, 57, 95
4, 81600, Note_on_c, 2, 53, 95
4, 82560, Note_off_c, 2, 57, 95
4, 82560, Note_off_c, 2, 53, 95
4, 82560, Note_on_c, 2, 55, 95
4, 82680, Pitch_bend_c, 2, 8064
4, 82800, Pitch_bend_c, 2, 7936
4, 82920, Pitch_bend_c, 2, 7680
4, 83040, Pitch_bend_c, 2, 7552
4, 83160, Pitch_bend_c, 2, 7424
4, 83280, Pitch_bend_c, 2, 7168
4, 83400, Pitch_bend_c, 2, 7040
4, 83520, Pitch_bend_c, 2, 6784
4, 83520, Pitch_bend_c, 2, 8192
4, 83520, Note_off_c, 2, 55, 95
4, 83520, Note_on_c, 2, 53, 95
4, 84480, Note_off_c, 2, 53, 95
4, 84480, Note_on_c, 2, 57, 95
4, 84480, Note_on_c, 2, 53, 95
4, 85440, Note_off_c, 2, 57, 95
4, 85440, Note_off_c, 2, 53, 95
4, 85440, Note_on_c, 2, 57, 95
4, 85920, Note_off_c, 2, 57, 95
4, 85920, Note_on_c, 2, 60, 95
4, 86400, Note_off_c, 2, 60, 95
4, 86400, Note_on_c, 2, 43, 95
4, 87360, Note_off_c, 2, 43, 95
4, 87360, Note_on_c, 2, 47, 95
4, 87840, Note_off_c, 2, 47, 95
4, 87840, Note_on_c, 2, 50, 95
4, 88320, Note_off_c, 2, 50, 95
4, 88320, Note_on_c, 2, 45, 95
4, 89280, Note_off_c, 2, 45, 95
4, 89280, Note_on_c, 2, 52, 95
4, 89520, Note_off_c, 2, 52, 95
4, 90000, Note_on_c, 2, 52, 95
4, 90240, Note_off_c, 2, 52, 95
4, 90240, Note_on_c, 2, 45, 95
4, 90960, Note_off_c, 2, 45, 95
4, 90960, Note_on_c, 2, 52, 95
4, 91200, Note_off_c, 2, 52, 95
4, 91200, Note_on_c, 2, 45, 95
4, 91440, Note_off_c, 2, 45, 95
4, 91440, Note_on_c, 2, 52, 95
4, 91680, Note_off_c, 2, 52, 95
4, 91680, Note_on_c, 2, 43, 95
4, 91920, Note_off_c, 2, 43, 95
4, 91920, Note_on_c, 2, 50, 95
4, 92160, Note_off_c, 2, 50, 95
4, 92160, Note_on_c, 2, 41, 95
4, 94080, Note_off_c, 2, 41, 95
4, 94080, Note_on_c, 2, 41, 95
4, 94560, Note_off_c, 2, 41, 95
4, 94560, Note_on_c, 2, 41, 95
4, 96000, Note_off_c, 2, 41, 95
4, 96000, Note_on_c, 2, 52, 95
4, 96960, Note_off_c, 2, 52, 95
4, 96960, Note_on_c, 2, 57, 95
4, 97920, Note_off_c, 2, 57, 95
4, 97920, Note_on_c, 2, 55, 95
4, 98040, Pitch_bend_c, 2, 8064
4, 98160, Pitch_bend_c, 2, 7936
4, 98280, Pitch_bend_c, 2, 7680
4, 98400, Pitch_bend_c, 2, 7552
4, 98520, Pitch_bend_c, 2, 7424
4, 98640, Pitch_bend_c, 2, 7168
4, 98760, Pitch_bend_c, 2, 7040
4, 98880, Pitch_bend_c, 2, 6784
4, 98880, Pitch_bend_c, 2, 8192
4, 98880, Note_off_c, 2, 55, 95
4, 98880, Note_on_c, 2, 53, 95
4, 99840, Note_off_c, 2, 53, 95
4, 99840, Note_on_c, 2, 52, 95
4, 100800, Note_off_c, 2, 52, 95
4, 100800, Note_on_c, 2, 52, 95
4, 101040, Note_off_c, 2, 52, 95
4, 101040, Note_on_c, 2, 55, 95
4, 101280, Note_off_c, 2, 55, 95
4, 101280, Note_on_c, 2, 55, 95
4, 101760, Note_off_c, 2, 55, 95
4, 101760, Note_on_c, 2, 43, 95
4, 102720, Note_off_c, 2, 43, 95
4, 102720, Note_on_c, 2, 47, 95
4, 102960, Note_off_c, 2, 47, 95
4, 102960, Note_on_c, 2, 50, 95
4, 103200, Note_off_c, 2, 50, 95
4, 103200, Note_on_c, 2, 50, 95
4, 103680, Note_off_c, 2, 50, 95
4, 103680, Note_on_c, 2, 45, 95
4, 104160, Note_off_c, 2, 45, 95
4, 104160, Note_on_c, 2, 45, 95
4, 104640, Note_off_c, 2, 45, 95
4, 104640, Note_on_c, 2, 57, 95
4, 105360, Note_off_c, 2, 57, 95
4, 105360, Note_on_c, 2, 52, 95
4, 105600, Note_off_c, 2, 52, 95
4, 105600, Note_on_c, 2, 45, 95
4, 106320, Note_off_c, 2, 45, 95
4, 106320, Note_on_c, 2, 57, 95
4, 106560, Note_off_c, 2, 57, 95
4, 106560, Note_on_c, 2, 57, 95
4, 106800, Note_off_c, 2, 57, 95
4, 106800, Note_on_c, 2, 45, 95
4, 107040, Note_off_c, 2, 45, 95
4, 107040, Note_on_c, 2, 48, 95
4, 107280, Note_off_c, 2, 48, 95
4, 107280, Note_on_c, 2, 55, 95
4, 107520, Note_off_c, 2, 55, 95
4, 107520, Note_on_c, 2, 50, 95
4, 108000, Note_off_c, 2, 50, 95
4, 108000, Note_on_c, 2, 62, 95
4, 108480, Note_off_c, 2, 62, 95
4, 108480, Note_on_c, 2, 66, 95
4, 108720, Note_off_c, 2, 66, 95
4, 108720, Note_on_c, 2, 67, 95
4, 108960, Note_off_c, 2, 67, 95
4, 108960, Note_on_c, 2, 66, 95
4, 109200, Note_off_c, 2, 66, 95
4, 109200, Note_on_c, 2, 66, 95
4, 109680, Note_off_c, 2, 66, 95
4, 109680, Note_on_c, 2, 64, 95
4, 110160, Note_off_c, 2, 64, 95
4, 110160, Note_on_c, 2, 62, 95
4, 110400, Note_off_c, 2, 62, 95
4, 110400, Note_on_c, 2, 64, 95
4, 110640, Note_off_c, 2, 64, 95
4, 110640, Note_on_c, 2, 57, 95
4, 110880, Note_off_c, 2, 57, 95
4, 110880, Note_on_c, 2, 62, 95
4, 111120, Note_off_c, 2, 62, 95
4, 111120, Note_on_c, 2, 42, 95
4, 111240, Pitch_bend_c, 2, 8448
4, 111360, Pitch_bend_c, 2, 8832
4, 111360, Pitch_bend_c, 2, 8192
4, 111360, Note_off_c, 2, 42, 95
4, 111360, Note_on_c, 2, 43, 95
4, 111840, Note_off_c, 2, 43, 95
4, 111840, Note_on_c, 2, 43, 95
4, 112080, Note_off_c, 2, 43, 95
4, 112080, Note_on_c, 2, 55, 95
4, 112320, Note_off_c, 2, 55, 95
4, 112320, Note_on_c, 2, 47, 95
4, 113040, Note_off_c, 2, 47, 95
4, 113040, Note_on_c, 2, 55, 95
4, 113280, Note_off_c, 2, 55, 95
4, 113280, Note_on_c, 2, 55, 95
4, 113520, Note_off_c, 2, 55, 95
4, 113760, Note_on_c, 2, 47, 95
4, 113760, Note_on_c, 2, 40, 95
4, 114240, Note_off_c, 2, 47, 95
4, 114240, Note_off_c, 2, 40, 95
4, 114240, Note_on_c, 2, 50, 95
4, 114240, Note_on_c, 2, 43, 95
4, 114720, Note_off_c, 2, 50, 95
4, 114720, Note_off_c, 2, 43, 95
4, 114720, Note_on_c, 2, 57, 95
4, 114720, Note_on_c, 2, 52, 95
4, 114720, Note_on_c, 2, 45, 95
4, 115680, Note_off_c, 2, 57, 95
4, 115680, Note_off_c, 2, 52, 95
4, 115680, Note_off_c, 2, 45, 95
4, 115680, Note_on_c, 2, 45, 95
4, 116160, Note_off_c, 2, 45, 95
4, 116160, Note_on_c, 2, 60, 95
4, 116160, Note_on_c, 2, 57, 95
4, 116160, Note_on_c, 2, 52, 95
4, 116880, Note_off_c, 2, 60, 95
4, 116880, Note_off_c, 2, 57, 95
4, 116880, Note_off_c, 2, 52, 95
4, 116880, Note_on_c, 2, 60, 95
4, 116880, Note_on_c, 2, 57, 95
4, 117120, Note_off_c, 2, 60, 95
4, 117120, Note_off_c, 2, 57, 95
4, 117120, Note_on_c, 2, 52, 95
4, 117120, Note_on_c, 2, 45, 95
4, 117600, Note_off_c, 2, 52, 95
4, 117600, Note_off_c, 2, 45, 95
4, 117600, Note_on_c, 2, 52, 95
4, 117600, Note_on_c, 2, 45, 95
4, 118080, Note_off_c, 2, 52, 95
4, 118080, Note_off_c, 2, 45, 95
4, 118080, Note_on_c, 2, 60, 95
4, 118080, Note_on_c, 2, 57, 95
4, 118080, Note_on_c, 2, 52, 95
4, 118800, Note_off_c, 2, 60, 95
4, 118800, Note_off_c, 2, 57, 95
4, 118800, Note_off_c, 2, 52, 95
4, 118800, Note_on_c, 2, 60, 95
4, 118800, Note_on_c, 2, 57, 95
4, 119040, Note_off_c, 2, 60, 95
4, 119040, Note_off_c, 2, 57, 95
4, 119040, Note_on_c, 2, 41, 95
4, 119520, Note_off_c, 2, 41, 95
4, 119520, Note_on_c, 2, 41, 95
4, 120000, Note_off_c, 2, 41, 95
4, 120000, Note_on_c, 2, 57, 95
4, 120000, Note_on_c, 2, 51, 95
4, 120960, Note_off_c, 2, 57, 95
4, 120960, Note_off_c, 2, 51, 95
4, 120960, Note_on_c, 2, 51, 95
4, 121440, Note_off_c, 2, 51, 95
4, 121440, Note_on_c, 2, 47, 95
4, 121440, Note_on_c, 2, 40, 95
4, 121920, Note_off_c, 2, 47, 95
4, 121920, Note_off_c, 2, 40, 95
4, 121920, Note_on_c, 2, 50, 95
4, 121920, Note_on_c, 2, 43, 95
4, 122400, Note_off_c, 2, 50, 95
4, 122400, Note_off_c, 2, 43, 95
4, 122400, Note_on_c, 2, 57, 95
4, 122400, Note_on_c, 2, 52, 95
4, 122400, Note_on_c, 2, 45, 95
4, 123360, Note_off_c, 2, 57, 95
4, 123360, Note_off_c, 2, 52, 95
4, 123360, Note_off_c, 2, 45, 95
4, 123360, Note_on_c, 2, 52, 95
4, 123360, Note_on_c, 2, 45, 95
4, 123840, Note_off_c, 2, 52, 95
4, 123840, Note_off_c, 2, 45, 95
4, 123840, Note_on_c, 2, 60, 95
4, 123840, Note_on_c, 2, 57, 95
4, 124560, Note_off_c, 2, 60, 95
4, 124560, Note_off_c, 2, 57, 95
4, 124560, Note_on_c, 2, 60, 95
4, 124560, Note_on_c, 2, 57, 95
4, 124800, Note_off_c, 2, 60, 95
4, 124800, Note_off_c, 2, 57, 95
4, 124800, Note_on_c, 2, 52, 95
4, 124800, Note_on_c, 2, 45, 95
4, 125280, Note_off_c, 2, 52, 95
4, 125280, Note_off_c, 2, 45, 95
4, 125280, Note_on_c, 2, 52, 95
4, 125280, Note_on_c, 2, 45, 95
4, 125760, Note_off_c, 2, 52, 95
4, 125760, Note_off_c, 2, 45, 95
4, 125760, Note_on_c, 2, 60, 95
4, 125760, Note_on_c, 2, 57, 95
4, 126240, Note_off_c, 2, 60, 95
4, 126240, Note_off_c, 2, 57, 95
4, 126240, Note_on_c, 2, 52, 95
4, 126720, Note_off_c, 2, 52, 95
4, 126720, Note_on_c, 2, 50, 95
4, 126960, Note_off_c, 2, 50, 95
4, 126960, Note_on_c, 2, 57, 95
4, 127200, Note_off_c, 2, 57, 95
4, 127200, Note_on_c, 2, 50, 95
4, 127440, Note_off_c, 2, 50, 95
4, 127440, Note_on_c, 2, 67, 95
4, 127680, Note_off_c, 2, 67, 95
4, 127680, Note_on_c, 2, 66, 70
4, 127920, Note_off_c, 2, 66, 70
4, 127920, Note_on_c, 2, 61, 95
4, 128160, Note_off_c, 2, 61, 95
4, 128160, Note_on_c, 2, 50, 95
4, 128400, Note_off_c, 2, 50, 95
4, 128400, Note_on_c, 2, 57, 95
4, 128640, Note_off_c, 2, 57, 95
4, 128640, Note_on_c, 2, 43, 95
4, 129120, Note_off_c, 2, 43, 95
4, 129120, Note_on_c, 2, 42, 95
4, 129360, Note_off_c, 2, 42, 95
4, 129360, Note_on_c, 2, 55, 95
4, 129600, Note_off_c, 2, 55, 95
4, 129600, Note_on_c, 2, 47, 95
4, 129720, Pitch_bend_c, 2, 8704
4, 129840, Pitch_bend_c, 2, 9216
4, 129960, Pitch_bend_c, 2, 9728
4, 130080, Pitch_bend_c, 2, 10240
4, 130080, Pitch_bend_c, 2, 8192
4, 130080, Note_off_c, 2, 47, 95
4, 130080, Note_on_c, 2, 53, 95
4, 130080, Note_on_c, 2, 50, 95
4, 130560, Note_off_c, 2, 53, 95
4, 130560, Note_off_c, 2, 50, 95
4, 130560, Note_on_c, 2, 52, 95
4, 130560, Note_on_c, 2, 48, 95
4, 131520, Note_off_c, 2, 52, 95
4, 131520, Note_off_c, 2, 48, 95
4, 131520, Note_on_c, 2, 52, 95
4, 132000, Note_off_c, 2, 52, 95
4, 132000, Note_on_c, 2, 55, 95
4, 132480, Note_off_c, 2, 55, 95
4, 132480, Note_on_c, 2, 43, 95
4, 133440, Note_off_c, 2, 43, 95
4, 133440, Note_on_c, 2, 47, 95
4, 133920, Note_off_c, 2, 47, 95
4, 133920, Note_on_c, 2, 50, 95
4, 134400, Note_off_c, 2, 50, 95
4, 134400, Note_on_c, 2, 45, 95
4, 135360, Note_off_c, 2, 45, 95
4, 135360, Note_on_c, 2, 57, 95
4, 135360, Note_on_c, 2, 52, 95
4, 136080, Note_off_c, 2, 57, 95
4, 136080, Note_off_c, 2, 52, 95
4, 136080, Note_on_c, 2, 52, 95
4, 136320, Note_off_c, 2, 52, 95
4, 136320, Note_on_c, 2, 45, 95
4, 137040, Note_off_c, 2, 45, 95
4, 137040, Note_on_c, 2, 57, 95
4, 137280, Note_off_c, 2, 57, 95
4, 137280, Note_on_c, 2, 45, 95
4, 137520, Note_off_c, 2, 45, 95
4, 137520, Note_on_c, 2, 57, 95
4, 137760, Note_off_c, 2, 57, 95
4, 137760, Note_on_c, 2, 43, 95
4, 138000, Note_off_c, 2, 43, 95
4, 138000, Note_on_c, 2, 55, 95
4, 138240, Note_off_c, 2, 55, 95
4, 138240, Note_on_c, 2, 41, 95
4, 138720, Note_off_c, 2, 41, 95
4, 138720, Note_on_c, 2, 41, 95
4, 139200, Note_off_c, 2, 41, 95
4, 139200, Note_on_c, 2, 57, 95
4, 139200, Note_on_c, 2, 53, 95
4, 139200, Note_on_c, 2, 48, 95
4, 139920, Note_off_c, 2, 57, 95
4, 139920, Note_off_c, 2, 53, 95
4, 139920, Note_off_c, 2, 48, 95
4, 139920, Note_on_c, 2, 50, 95
4, 140160, Note_off_c, 2, 50, 95
4, 140160, Note_on_c, 2, 43, 95
4, 140640, Note_off_c, 2, 43, 95
4, 140640, Note_on_c, 2, 43, 95
4, 141120, Note_off_c, 2, 43, 95
4, 141120, Note_on_c, 2, 59, 95
4, 141120, Note_on_c, 2, 55, 95
4, 141120, Note_on_c, 2, 50, 95
4, 141840, Note_off_c, 2, 59, 95
4, 141840, Note_off_c, 2, 55, 95
4, 141840, Note_off_c, 2, 50, 95
4, 141840, Note_on_c, 2, 55, 95
4, 142080, Note_off_c, 2, 55, 95
4, 142080, Note_on_c, 2, 52, 95
4, 142080, Note_on_c, 2, 48, 95
4, 143040, Note_off_c, 2, 52, 95
4, 143040, Note_off_c, 2, 48, 95
4, 143040, Note_on_c, 2, 57, 95
4, 143040, Note_on_c, 2, 53, 95
4, 144000, Note_off_c, 2, 57, 95
4, 144000, Note_off_c, 2, 53, 95
4, 144000, Note_on_c, 2, 55, 95
4, 144120, Pitch_bend_c, 2, 8064
4, 144240, Pitch_bend_c, 2, 7936
4, 144360, Pitch_bend_c, 2, 7680
4, 144480, Pitch_bend_c, 2, 7552
4, 144600, Pitch_bend_c, 2, 7424
4, 144720, Pitch_bend_c, 2, 7168
4, 144840, Pitch_bend_c, 2, 7040
4, 144960, Pitch_bend_c, 2, 6784
4, 144960, Pitch_bend_c, 2, 8192
4, 144960, Note_off_c, 2, 55, 95
4, 144960, Note_on_c, 2, 53, 95
4, 145920, Note_off_c, 2, 53, 95
4, 145920, Note_on_c, 2, 52, 95
4, 145920, Note_on_c, 2, 48, 95
4, 146880, Note_off_c, 2, 52, 95
4, 146880, Note_off_c, 2, 48, 95
4, 146880, Note_on_c, 2, 57, 95
4, 146880, Note_on_c, 2, 53, 95
4, 147840, Note_off_c, 2, 57, 95
4, 147840, Note_off_c, 2, 53, 95
4, 147840, Note_on_c, 2, 55, 95
4, 147960, Pitch_bend_c, 2, 8064
4, 148080, Pitch_bend_c, 2, 7936
4, 148200, Pitch_bend_c, 2, 7680
4, 148320, Pitch_bend_c, 2, 7552
4, 148440, Pitch_bend_c, 2, 7424
4, 148560, Pitch_bend_c, 2, 7168
4, 148680, Pitch_bend_c, 2, 7040
4, 148800, Pitch_bend_c, 2, 6784
4, 148800, Pitch_bend_c, 2, 8192
4, 148800, Note_off_c, 2, 55, 95
4, 148800, Note_on_c, 2, 53, 95
4, 149760, Note_off_c, 2, 53, 95
4, 245760, Note_on_c, 2, 52, 95
4, 246720, Note_off_c, 2, 52, 95
4, 246720, Note_on_c, 2, 53, 95
4, 247680, Note_off_c, 2, 53, 95
4, 247680, Note_on_c, 2, 52, 95
4, 247800, Pitch_bend_c, 2, 8064
4, 247920, Pitch_bend_c, 2, 7936
4, 248040, Pitch_bend_c, 2, 7680
4, 248160, Pitch_bend_c, 2, 7552
4, 248280, Pitch_bend_c, 2, 7424
4, 248400, Pitch_bend_c, 2, 7168
4, 248520, Pitch_bend_c, 2, 7040
4, 248640, Pitch_bend_c, 2, 6784
4, 248640, Pitch_bend_c, 2, 8192
4, 248640, Note_off_c, 2, 52, 95
4, 248640, Note_on_c, 2, 50, 95
4, 249600, Note_off_c, 2, 50, 95
4, 249600, Note_on_c, 2, 48, 95
4, 250560, Note_off_c, 2, 48, 95
4, 250560, Note_on_c, 2, 53, 95
4, 251520, Note_off_c, 2, 53, 95
4, 251520, Note_on_c, 2, 52, 95
4, 251640, Pitch_bend_c, 2, 8064
4, 251760, Pitch_bend_c, 2, 7936
4, 251880, Pitch_bend_c, 2, 7680
4, 252000, Pitch_bend_c, 2, 7552
4, 252120, Pitch_bend_c, 2, 7424
4, 252240, Pitch_bend_c, 2, 7168
4, 252360, Pitch_bend_c, 2, 7040
4, 252480, Pitch_bend_c, 2, 6784
4, 252480, Pitch_bend_c, 2, 8192
4, 252480, Note_off_c, 2, 52, 95
4, 252480, Note_on_c, 2, 50, 95
4, 253440, Note_off_c, 2, 50, 95
4, 253440, Note_on_c, 2, 57, 95
4, 253440, Note_on_c, 2, 53, 95
4, 254400, Note_off_c, 2, 57, 95
4, 254400, Note_off_c, 2, 53, 95
4, 254400, Note_on_c, 2, 57, 95
4, 254880, Note_off_c, 2, 57, 95
4, 254880, Note_on_c, 2, 60, 95
4, 255360, Note_off_c, 2, 60, 95
4, 255360, Note_on_c, 2, 43, 95
4, 256320, Note_off_c, 2, 43, 95
4, 256320, Note_on_c, 2, 47, 95
4, 256800, Note_off_c, 2, 47, 95
4, 256800, Note_on_c, 2, 50, 95
4, 257280, Note_off_c, 2, 50, 95
4, 257280, Note_on_c, 2, 45, 95
4, 258240, Note_off_c, 2, 45, 95
4, 258240, Note_on_c, 2, 52, 95
4, 258480, Note_off_c, 2, 52, 95
4, 258960, Note_on_c, 2, 52, 95
4, 259200, Note_off_c, 2, 52, 95
4, 259200, Note_on_c, 2, 45, 95
4, 259920, Note_off_c, 2, 45, 95
4, 259920, Note_on_c, 2, 52, 95
4, 260160, Note_off_c, 2, 52, 95
4, 260160, Note_on_c, 2, 45, 95
4, 260400, Note_off_c, 2, 45, 95
4, 260400, Note_on_c, 2, 52, 95
4, 260640, Note_off_c, 2, 52, 95
4, 260640, Note_on_c, 2, 43, 95
4, 260880, Note_off_c, 2, 43, 95
4, 260880, Note_on_c, 2, 50, 95
4, 261120, Note_off_c, 2, 50, 95
4, 261120, Note_on_c, 2, 41, 95
4, 263040, Note_off_c, 2, 41, 95
4, 263040, Note_on_c, 2, 41, 95
4, 263520, Note_off_c, 2, 41, 95
4, 263520, Note_on_c, 2, 41, 95
4, 264960, Note_off_c, 2, 41, 95
4, 264960, Note_on_c, 2, 52, 95
4, 265920, Note_off_c, 2, 52, 95
4, 265920, Note_on_c, 2, 57, 95
4, 266880, Note_off_c, 2, 57, 95
4, 266880, Note_on_c, 2, 55, 95
4, 267000, Pitch_bend_c, 2, 8064
4, 267120, Pitch_bend_c, 2, 7936
4, 267240, Pitch_bend_c, 2, 7680
4, 267360, Pitch_bend_c, 2, 7552
4, 267480, Pitch_bend_c, 2, 7424
4, 267600, Pitch_bend_c, 2, 7168
4, 267720, Pitch_bend_c, 2, 7040
4, 267840, Pitch_bend_c, 2, 6784
4, 267840, Pitch_bend_c, 2, 8192
4, 267840, Note_off_c, 2, 55, 95
4, 267840, Note_on_c, 2, 53, 95
4, 268800, Note_off_c, 2, 53, 95
4, 268800, Note_on_c, 2, 52, 95
4, 269760, Note_off_c, 2, 52, 95
4, 269760, Note_on_c, 2, 52, 95
4, 270000, Note_off_c, 2, 52, 95
4, 270000, Note_on_c, 2, 55, 95
4, 270240, Note_off_c, 2, 55, 95
4, 270240, Note_on_c, 2, 55, 95
4, 270720, Note_off_c, 2, 55, 95
4, 270720, Note_on_c, 2, 43, 95
4, 271680, Note_off_c, 2, 43, 95
4, 271680, Note_on_c, 2, 47, 95
4, 271920, Note_off_c, 2, 47, 95
4, 271920, Note_on_c, 2, 50, 95
4, 272160, Note_off_c, 2, 50, 95
4, 272160, Note_on_c, 2, 50, 95
4, 272640, Note_off_c, 2, 50, 95
4, 272640, Note_on_c, 2, 45, 95
4, 273120, Note_off_c, 2, 45, 95
4, 273120, Note_on_c, 2, 45, 95
4, 273600, Note_off_c, 2, 45, 95
4, 273600, Note_on_c, 2, 57, 95
4, 274320, Note_off_c, 2, 57, 95
4, 274320, Note_on_c, 2, 52, 95
4, 274560, Note_off_c, 2, 52, 95
4, 274560, Note_on_c, 2, 45, 95
4, 275280, Note_off_c, 2, 45, 95
4, 275280, Note_on_c, 2, 57, 95
4, 275520, Note_off_c, 2, 57, 95
4, 275520, Note_on_c, 2, 57, 95
4, 275760, Note_off_c, 2, 57, 95
4, 275760, Note_on_c, 2, 45, 95
4, 276000, Note_off_c, 2, 45, 95
4, 276000, Note_on_c, 2, 48, 95
4, 276240, Note_off_c, 2, 48, 95
4, 276240, Note_on_c, 2, 55, 95
4, 276480, Note_off_c, 2, 55, 95
4, 276480, Note_on_c, 2, 50, 95
4, 276960, Note_off_c, 2, 50, 95
4, 276960, Note_on_c, 2, 62, 95
4, 277440, Note_off_c, 2, 62, 95
4, 277440, Note_on_c, 2, 66, 95
4, 277680, Note_off_c, 2, 66, 95
4, 277680, Note_on_c, 2, 67, 95
4, 277920, Note_off_c, 2, 67, 95
4, 277920, Note_on_c, 2, 66, 95
4, 278160, Note_off_c, 2, 66, 95
4, 278160, Note_on_c, 2, 66, 95
4, 278640, Note_off_c, 2, 66, 95
4, 278640, Note_on_c, 2, 64, 95
4, 279120, Note_off_c, 2, 64, 95
4, 279120, Note_on_c, 2, 62, 95
4, 279360, Note_off_c, 2, 62, 95
4, 279360, Note_on_c, 2, 64, 95
4, 279600, Note_off_c, 2, 64, 95
4, 279600, Note_on_c, 2, 57, 95
4, 279840, Note_off_c, 2, 57, 95
4, 279840, Note_on_c, 2, 62, 95
4, 280080, Note_off_c, 2, 62, 95
4, 280080, Note_on_c, 2, 42, 95
4, 280200, Pitch_bend_c, 2, 8448
4, 280320, Pitch_bend_c, 2, 8832
4, 280320, Pitch_bend_c, 2, 8192
4, 280320, Note_off_c, 2, 42, 95
4, 280320, Note_on_c, 2, 43, 95
4, 280800, Note_off_c, 2, 43, 95
4, 280800, Note_on_c, 2, 43, 95
4, 281040, Note_off_c, 2, 43, 95
4, 281040, Note_on_c, 2, 55, 95
4, 281280, Note_off_c, 2, 55, 95
4, 281280, Note_on_c, 2, 47, 95
4, 282000, Note_off_c, 2, 47, 95
4, 282000, Note_on_c, 2, 55, 95
4, 282240, Note_off_c, 2, 55, 95
4, 282240, Note_on_c, 2, 55, 95
4, 282480, Note_off_c, 2, 55, 95
4, 282720, Note_on_c, 2, 47, 95
4, 282720, Note_on_c, 2, 40, 95
4, 283200, Note_off_c, 2, 47, 95
4, 283200, Note_off_c, 2, 40, 95
4, 283200, Note_on_c, 2, 50, 95
4, 283200, Note_on_c, 2, 43, 95
4, 283680, Note_off_c, 2, 50, 95
4, 283680, Note_off_c, 2, 43, 95
4, 283680, Note_on_c, 2, 57, 95
4, 283680, Note_on_c, 2, 52, 95
4, 283680, Note_on_c, 2, 45, 95
4, 284640, Note_off_c, 2, 57, 95
4, 284640, Note_off_c, 2, 52, 95
4, 284640, Note_off_c, 2, 45, 95
4, 284640, Note_on_c, 2, 45, 95
4, 285120, Note_off_c, 2, 45, 95
4, 285120, Note_on_c, 2, 60, 95
4, 285120, Note_on_c, 2, 57, 95
4, 285120, Note_on_c, 2, 52, 95
4, 285840, Note_off_c, 2, 60, 95
4, 285840, Note_off_c, 2, 57, 95
4, 285840, Note_off_c, 2, 52, 95
4, 285840, Note_on_c, 2, 60, 95
4, 285840, Note_on_c, 2, 57, 95
4, 286080, Note_off_c, 2, 60, 95
4, 286080, Note_off_c, 2, 57, 95
4, 286080, Note_on_c, 2, 52, 95
4, 286080, Note_on_c, 2, 45, 95
4, 286560, Note_off_c, 2, 52, 95
4, 286560, Note_off_c, 2, 45, 95
4, 286560, Note_on_c, 2, 52, 95
4, 286560, Note_on_c, 2, 45, 95
4, 287040, Note_off_c, 2, 52, 95
4, 287040, Note_off_c, 2, 45, 95
4, 287040, Note_on_c, 2, 60, 95
4, 287040, Note_on_c, 2, 57, 95
4, 287040, Note_on_c, 2, 52, 95
4, 287760, Note_off_c, 2, 60, 95
4, 287760, Note_off_c, 2, 57, 95
4, 287760, Note_off_c, 2, 52, 95
4, 287760, Note_on_c, 2, 60, 95
4, 287760, Note_on_c, 2, 57, 95
4, 288000, Note_off_c, 2, 60, 95
4, 288000, Note_off_c, 2, 57, 95
4, 288000, Note_on_c, 2, 41, 95
4, 288480, Note_off_c, 2, 41, 95
4, 288480, Note_on_c, 2, 41, 95
4, 288960, Note_off_c, 2, 41, 95
4, 288960, Note_on_c, 2, 57, 95
4, 288960, Note_on_c, 2, 51, 95
4, 289920, Note_off_c, 2, 57, 95
4, 289920, Note_off_c, 2, 51, 95
4, 289920, Note_on_c, 2, 51, 95
4, 290400, Note_off_c, 2, 51, 95
4, 290400, Note_on_c, 2, 47, 95
4, 290400, Note_on_c, 2, 40, 95
4, 290880, Note_off_c, 2, 47, 95
4, 290880, Note_off_c, 2, 40, 95
4, 290880, Note_on_c, 2, 50, 95
4, 290880, Note_on_c, 2, 43, 95
4, 291360, Note_off_c, 2, 50, 95
4, 291360, Note_off_c, 2, 43, 95
4, 291360, Note_on_c, 2, 57, 95
4, 291360, Note_on_c, 2, 52, 95
4, 291360, Note_on_c, 2, 45, 95
4, 292320, Note_off_c, 2, 57, 95
4, 292320, Note_off_c, 2, 52, 95
4, 292320, Note_off_c, 2, 45, 95
4, 292320, Note_on_c, 2, 52, 95
4, 292320, Note_on_c, 2, 45, 95
4, 292800, Note_off_c, 2, 52, 95
4, 292800, Note_off_c, 2, 45, 95
4, 292800, Note_on_c, 2, 60, 95
4, 292800, Note_on_c, 2, 57, 95
4, 293520, Note_off_c, 2, 60, 95
4, 293520, Note_off_c, 2, 57, 95
4, 293520, Note_on_c, 2, 60, 95
4, 293520, Note_on_c, 2, 57, 95
4, 293760, Note_off_c, 2, 60, 95
4, 293760, Note_off_c, 2, 57, 95
4, 293760, Note_on_c, 2, 52, 95
4, 293760, Note_on_c, 2, 45, 95
4, 294240, Note_off_c, 2, 52, 95
4, 294240, Note_off_c, 2, 45, 95
4, 294240, Note_on_c, 2, 52, 95
4, 294240, Note_on_c, 2, 45, 95
4, 294720, Note_off_c, 2, 52, 95
4, 294720, Note_off_c, 2, 45, 95
4, 294720, Note_on_c, 2, 60, 95
4, 294720, Note_on_c, 2, 57, 95
4, 295200, Note_off_c, 2, 60, 95
4, 295200, Note_off_c, 2, 57, 95
4, 295200, Note_on_c, 2, 52, 95
4, 295680, Note_off_c, 2, 52, 95
4, 295680, Note_on_c, 2, 50, 95
4, 295920, Note_off_c, 2, 50, 95
4, 295920, Note_on_c, 2, 57, 95
4, 296160, Note_off_c, 2, 57, 95
4, 296160, Note_on_c, 2, 50, 95
4, 296400, Note_off_c, 2, 50, 95
4, 296400, Note_on_c, 2, 67, 95
4, 296640, Note_off_c, 2, 67, 95
4, 296640, Note_on_c, 2, 66, 70
4, 296880, Note_off_c, 2, 66, 70
4, 296880, Note_on_c, 2, 61, 95
4, 297120, Note_off_c, 2, 61, 95
4, 297120, Note_on_c, 2, 50, 95
4, 297360, Note_off_c, 2, 50, 95
4, 297360, Note_on_c, 2, 57, 95
4, 297600, Note_off_c, 2, 57, 95
4, 297600, Note_on_c, 2, 43, 95
4, 298080, Note_off_c, 2, 43, 95
4, 298080, Note_on_c, 2, 42, 95
4, 298320, Note_off_c, 2, 42, 95
4, 298320, Note_on_c, 2, 55, 95
4, 298560, Note_off_c, 2, 55, 95
4, 298560, Note_on_c, 2, 47, 95
4, 298680, Pitch_bend_c, 2, 8704
4, 298800, Pitch_bend_c, 2, 9216
4, 298920, Pitch_bend_c, 2, 9728
4, 299040, Pitch_bend_c, 2, 10240
4, 299040, Pitch_bend_c, 2, 8192
4, 299040, Note_off_c, 2, 47, 95
4, 299040, Note_on_c, 2, 53, 95
4, 299040, Note_on_c, 2, 50, 95
4, 299520, Note_off_c, 2, 53, 95
4, 299520, Note_off_c, 2, 50, 95
4, 299520, Note_on_c, 2, 52, 95
4, 299520, Note_on_c, 2, 48, 95
4, 300480, Note_off_c, 2, 52, 95
4, 300480, Note_off_c, 2, 48, 95
4, 300480, Note_on_c, 2, 52, 95
4, 300960, Note_off_c, 2, 52, 95
4, 300960, Note_on_c, 2, 55, 95
4, 301440, Note_off_c, 2, 55, 95
4, 301440, Note_on_c, 2, 43, 95
4, 302400, Note_off_c, 2, 43, 95
4, 302400, Note_on_c, 2, 47, 95
4, 302880, Note_off_c, 2, 47, 95
4, 302880, Note_on_c, 2, 50, 95
4, 303360, Note_off_c, 2, 50, 95
4, 303360, Note_on_c, 2, 45, 95
4, 304320, Note_off_c, 2, 45, 95
4, 304320, Note_on_c, 2, 57, 95
4, 304320, Note_on_c, 2, 52, 95
4, 305040, Note_off_c, 2, 57, 95
4, 305040, Note_off_c, 2, 52, 95
4, 305040, Note_on_c, 2, 52, 95
4, 305280, Note_off_c, 2, 52, 95
4, 305280, Note_on_c, 2, 45, 95
4, 306000, Note_off_c, 2, 45, 95
4, 306000, Note_on_c, 2, 57, 95
4, 306240, Note_off_c, 2, 57, 95
4, 306240, Note_on_c, 2, 45, 95
4, 306480, Note_off_c, 2, 45, 95
4, 306480, Note_on_c, 2, 57, 95
4, 306720, Note_off_c, 2, 57, 95
4, 306720, Note_on_c, 2, 43, 95
4, 306960, Note_off_c, 2, 43, 95
4, 306960, Note_on_c, 2, 55, 95
4, 307200, Note_off_c, 2, 55, 95
4, 307200, Note_on_c, 2, 41, 95
4, 307680, Note_off_c, 2, 41, 95
4, 307680, Note_on_c, 2, 41, 95
4, 308160, Note_off_c, 2, 41, 95
4, 308160, Note_on_c, 2, 57, 95
4, 308160, Note_on_c, 2, 53, 95
4, 308160, Note_on_c, 2, 48, 95
4, 308880, Note_off_c, 2, 57, 95
4, 308880, Note_off_c, 2, 53, 95
4, 308880, Note_off_c, 2, 48, 95
4, 308880, Note_on_c, 2, 50, 95
4, 309120, Note_off_c, 2, 50, 95
4, 309120, Note_on_c, 2, 43, 95
4, 309600, Note_off_c, 2, 43, 95
4, 309600, Note_on_c, 2, 43, 95
4, 310080, Note_off_c, 2, 43, 95
4, 310080, Note_on_c, 2, 59, 95
4, 310080, Note_on_c, 2, 55, 95
4, 310080, Note_on_c, 2, 50, 95
4, 310800, Note_off_c, 2, 59, 95
4, 310800, Note_off_c, 2, 55, 95
4, 310800, Note_off_c, 2, 50, 95
4, 310800, Note_on_c, 2, 55, 95
4, 311040, Note_off_c, 2, 55, 95
4, 311040, Note_on_c, 2, 52, 95
4, 311040, Note_on_c, 2, 48, 95
4, 312000, Note_off_c, 2, 52, 95
4, 312000, Note_off_c, 2, 48, 95
4, 312000, Note_on_c, 2, 57, 95
4, 312000, Note_on_c, 2, 53, 95
4, 312960, Note_off_c, 2, 57, 95
4, 312960, Note_off_c, 2, 53, 95
4, 312960, Note_on_c, 2, 55, 95
4, 313080, Pitch_bend_c, 2, 8064
4, 313200, Pitch_bend_c, 2, 7936
4, 313320, Pitch_bend_c, 2, 7680
4, 313440, Pitch_bend_c, 2, 7552
4, 313560, Pitch_bend_c, 2, 7424
4, 313680, Pitch_bend_c, 2, 7168
4, 313800, Pitch_bend_c, 2, 7040
4, 313920, Pitch_bend_c, 2, 6784
4, 313920, Pitch_bend_c, 2, 8192
4, 313920, Note_off_c, 2, 55, 95
4, 313920, Note_on_c, 2, 53, 95
4, 314880, Note_off_c, 2, 53, 95
4, 314880, Note_on_c, 2, 52, 95
4, 314880, Note_on_c, 2, 48, 95
4, 315840, Note_off_c, 2, 52, 95
4, 315840, Note_off_c, 2, 48, 95
4, 315840, Note_on_c, 2, 57, 95
4, 315840, Note_on_c, 2, 53, 95
4, 316800, Note_off_c, 2, 57, 95
4, 316800, Note_off_c, 2, 53, 95
4, 316800, Note_on_c, 2, 55, 95
4, 316920, Pitch_bend_c, 2, 8064
4, 317040, Pitch_bend_c, 2, 7936
4, 317160, Pitch_bend_c, 2, 7680
4, 317280, Pitch_bend_c, 2, 7552
4, 317400, Pitch_bend_c, 2, 7424
4, 317520, Pitch_bend_c, 2, 7168
4, 317640, Pitch_bend_c, 2, 7040
4, 317760, Pitch_bend_c, 2, 6784
4, 317760, Pitch_bend_c, 2, 8192
4, 317760, Note_off_c, 2, 55, 95
4, 317760, Note_on_c, 2, 53, 95
4, 318720, Note_off_c, 2, 53, 95
4, 318720, Note_on_c, 2, 52, 95
4, 318720, Note_on_c, 2, 48, 95
4, 319680, Note_off_c, 2, 52, 95
4, 319680, Note_off_c, 2, 48, 95
4, 319680, Note_on_c, 2, 57, 95
4, 319680, Note_on_c, 2, 53, 95
4, 320640, Note_off_c, 2, 57, 95
4, 320640, Note_off_c, 2, 53, 95
4, 320640, Note_on_c, 2, 55, 95
4, 320760, Pitch_bend_c, 2, 8064
4, 320880, Pitch_bend_c, 2, 7936
4, 321000, Pitch_bend_c, 2, 7680
4, 321120, Pitch_bend_c, 2, 7552
4, 321240, Pitch_bend_c, 2, 7424
4, 321360, Pitch_bend_c, 2, 7168
4, 321480, Pitch_bend_c, 2, 7040
4, 321600, Pitch_bend_c, 2, 6784
4, 321600, Pitch_bend_c, 2, 8192
4, 321600, Note_off_c, 2, 55, 95
4, 321600, Note_on_c, 2, 53, 95
4, 322560, Note_off_c, 2, 53, 95
4, 322560, Note_on_c, 2, 52, 95
4, 322560, Note_on_c, 2, 48, 95
4, 323520, Note_off_c, 2, 52, 95
4, 323520, Note_off_c, 2, 48, 95
4, 323520, End_track
5, 0, Start_track
5, 0, Pitch_bend_c, 3, 8192
5, 0, Control_c, 3, 7, 95
5, 0, Control_c, 3, 10, 63
5, 0, Control_c, 3, 93, 71
5, 0, Control_c, 3, 91, 87
5, 0, Control_c, 3, 95, 0
5, 0, Control_c, 3, 92, 0
5, 0, Control_c, 3, 11, 127
5, 0, Program_c, 3, 73
5, 20160, Note_on_c, 3, 64, 111
5, 20400, Note_off_c, 3, 64, 111
5, 20520, Note_on_c, 3, 67, 111
5, 21360, Note_off_c, 3, 67, 111
5, 21360, Note_on_c, 3, 65, 111
5, 21720, Note_off_c, 3, 65, 111
5, 21720, Note_on_c, 3, 64, 111
5, 22080, Note_off_c, 3, 64, 111
5, 22080, Note_on_c, 3, 62, 111
5, 22560, Note_off_c, 3, 62, 111
5, 22560, Note_on_c, 3, 60, 111
5, 22800, Note_off_c, 3, 60, 111
5, 22800, Note_on_c, 3, 64, 111
5, 23280, Note_off_c, 3, 64, 111
5, 23280, Note_on_c, 3, 67, 111
5, 23520, Note_off_c, 3, 67, 111
5, 23520, Note_on_c, 3, 67, 111
5, 24240, Note_off_c, 3, 67, 111
5, 24240, Note_on_c, 3, 64, 111
5, 24360, Note_off_c, 3, 64, 111
5, 24480, Note_on_c, 3, 62, 111
5, 24600, Note_off_c, 3, 62, 111
5, 24600, Note_on_c, 3, 60, 111
5, 26280, Note_off_c, 3, 60, 111
5, 27840, Note_on_c, 3, 64, 111
5, 28320, Note_off_c, 3, 64, 111
5, 28320, Note_on_c, 3, 62, 111
5, 28800, Note_off_c, 3, 62, 111
5, 28800, Note_on_c, 3, 64, 111
5, 29280, Note_off_c, 3, 64, 111
5, 29280, Note_on_c, 3, 62, 111
5, 29520, Note_off_c, 3, 62, 111
5, 29520, Note_on_c, 3, 60, 111
5, 29760, Note_off_c, 3, 60, 111
5, 29760, Note_on_c, 3, 59, 111
5, 30240, Note_off_c, 3, 59, 111
5, 30240, Note_on_c, 3, 57, 111
5, 30480, Note_off_c, 3, 57, 111
5, 30480, Note_on_c, 3, 55, 111
5, 30960, Note_off_c, 3, 55, 111
5, 30960, Note_on_c, 3, 60, 111
5, 31920, Note_off_c, 3, 60, 111
5, 36000, Note_on_c, 3, 64, 111
5, 36480, Note_off_c, 3, 64, 111
5, 36480, Note_on_c, 3, 67, 111
5, 36960, Note_off_c, 3, 67, 111
5, 36960, Note_on_c, 3, 65, 111
5, 37200, Note_off_c, 3, 65, 111
5, 37200, Note_on_c, 3, 64, 111
5, 37440, Note_off_c, 3, 64, 111
5, 37440, Note_on_c, 3, 62, 111
5, 37920, Note_off_c, 3, 62, 111
5, 37920, Note_on_c, 3, 60, 111
5, 38880, Note_off_c, 3, 60, 111
5, 39360, Note_on_c, 3, 64, 111
5, 39840, Note_off_c, 3, 64, 111
5, 39840, Note_on_c, 3, 67, 111
5, 40080, Note_off_c, 3, 67, 111
5, 40080, Note_on_c, 3, 67, 111
5, 40560, Note_off_c, 3, 67, 111
5, 40560, Note_on_c, 3, 64, 111
5, 41040, Note_off_c, 3, 64, 111
5, 41160, Note_on_c, 3, 62, 111
5, 41280, Note_off_c, 3, 62, 111
5, 41280, Note_on_c, 3, 60, 111
5, 42240, Note_off_c, 3, 60, 111
5, 43440, Note_on_c, 3, 64, 111
5, 43680, Note_off_c, 3, 64, 111
5, 43680, Note_on_c, 3, 69, 111
5, 44160, Note_off_c, 3, 69, 111
5, 44160, Note_on_c, 3, 64, 111
5, 44520, Note_off_c, 3, 64, 111
5, 44520, Note_on_c, 3, 62, 111
5, 44760, Note_off_c, 3, 62, 111
5, 44760, Note_on_c, 3, 60, 111
5, 45120, Note_off_c, 3, 60, 111
5, 45120, Note_on_c, 3, 60, 111
5, 45480, Note_off_c, 3, 60, 111
5, 45480, Note_on_c, 3, 62, 111
5, 45720, Note_off_c, 3, 62, 111
5, 45720, Note_on_c, 3, 64, 111
5, 45960, Note_off_c, 3, 64, 111
5, 46080, Note_on_c, 3, 62, 111
5, 46560, Note_off_c, 3, 62, 111
5, 46560, Note_on_c, 3, 59, 111
5, 46920, Note_off_c, 3, 59, 111
5, 46920, Note_on_c, 3, 57, 111
5, 47040, Note_off_c, 3, 57, 111
5, 47040, Note_on_c, 3, 55, 111
5, 48120, Note_off_c, 3, 55, 111
5, 51000, Note_on_c, 3, 69, 111
5, 51720, Note_off_c, 3, 69, 111
5, 51720, Note_on_c, 3, 67, 111
5, 51960, Note_off_c, 3, 67, 111
5, 51960, Note_on_c, 3, 64, 111
5, 52320, Note_off_c, 3, 64, 111
5, 52320, Note_on_c, 3, 62, 111
5, 52680, Note_off_c, 3, 62, 111
5, 52680, Note_on_c, 3, 60, 111
5, 53040, Note_off_c, 3, 60, 111
5, 53040, Note_on_c, 3, 57, 111
5, 53280, Note_off_c, 3, 57, 111
5, 53280, Note_on_c, 3, 64, 111
5, 54000, Note_off_c, 3, 64, 111
5, 54000, Note_on_c, 3, 62, 111
5, 54360, Note_off_c, 3, 62, 111
5, 54360, Note_on_c, 3, 60, 111
5, 54480, Note_off_c, 3, 60, 111
5, 54480, Note_on_c, 3, 57, 111
5, 55440, Note_off_c, 3, 57, 111
5, 57960, Note_on_c, 3, 64, 111
5, 58200, Note_off_c, 3, 64, 111
5, 58200, Note_on_c, 3, 67, 111
5, 58920, Note_off_c, 3, 67, 111
5, 59040, Note_on_c, 3, 69, 111
5, 59760, Note_off_c, 3, 69, 111
5, 59760, Note_on_c, 3, 72, 111
5, 60000, Note_off_c, 3, 72, 111
5, 60000, Note_on_c, 3, 69, 111
5, 60480, Note_off_c, 3, 69, 111
5, 60480, Note_on_c, 3, 67, 111
5, 60840, Note_off_c, 3, 67, 111
5, 60840, Note_on_c, 3, 64, 111
5, 61080, Note_off_c, 3, 64, 111
5, 61080, Note_on_c, 3, 60, 111
5, 61440, Note_off_c, 3, 60, 111
5, 61440, Note_on_c, 3, 64, 111
5, 61680, Note_off_c, 3, 64, 111
5, 61680, Note_on_c, 3, 62, 111
5, 62400, Note_off_c, 3, 62, 111
5, 62400, Note_on_c, 3, 69, 111
5, 62880, Note_off_c, 3, 69, 111
5, 62880, Note_on_c, 3, 64, 111
5, 63360, Note_off_c, 3, 64, 111
5, 63360, Note_on_c, 3, 62, 111
5, 63840, Note_off_c, 3, 62, 111
5, 63840, Note_on_c, 3, 59, 111
5, 63960, Note_off_c, 3, 59, 111
5, 63960, Note_on_c, 3, 57, 111
5, 64080, Note_off_c, 3, 57, 111
5, 64080, Note_on_c, 3, 55, 111
5, 64920, Note_off_c, 3, 55, 111
5, 66480, Note_on_c, 3, 64, 111
5, 67200, Note_off_c, 3, 64, 111
5, 67200, Note_on_c, 3, 67, 111
5, 67560, Note_off_c, 3, 67, 111
5, 67560, Note_on_c, 3, 65, 111
5, 67920, Note_off_c, 3, 65, 111
5, 67920, Note_on_c, 3, 64, 111
5, 68160, Note_off_c, 3, 64, 111
5, 68160, Note_on_c, 3, 62, 111
5, 68640, Note_off_c, 3, 62, 111
5, 68640, Note_on_c, 3, 60, 111
5, 68880, Note_off_c, 3, 60, 111
5, 68880, Note_on_c, 3, 64, 111
5, 69360, Note_off_c, 3, 64, 111
5, 69360, Note_on_c, 3, 67, 111
5, 69600, Note_off_c, 3, 67, 111
5, 69600, Note_on_c, 3, 67, 111
5, 69840, Note_off_c, 3, 67, 111
5, 69840, Note_on_c, 3, 64, 111
5, 70320, Note_off_c, 3, 64, 111
5, 70320, Note_on_c, 3, 62, 111
5, 70440, Note_off_c, 3, 62, 111
5, 70440, Note_on_c, 3, 60, 111
5, 71640, Note_off_c, 3, 60, 111
5, 74160, Note_on_c, 3, 62, 111
5, 74640, Note_off_c, 3, 62, 111
5, 74640, Note_on_c, 3, 64, 111
5, 74880, Note_off_c, 3, 64, 111
5, 74880, Note_on_c, 3, 62, 111
5, 75240, Note_off_c, 3, 62, 111
5, 75240, Note_on_c, 3, 60, 111
5, 75480, Note_off_c, 3, 60, 111
5, 75480, Note_on_c, 3, 59, 111
5, 75960, Note_off_c, 3, 59, 111
5, 76080, Note_on_c, 3, 57, 111
5, 76320, Note_off_c, 3, 57, 111
5, 76320, Note_on_c, 3, 55, 111
5, 77040, Note_off_c, 3, 55, 111
5, 77040, Note_on_c, 3, 60, 111
5, 78720, Note_off_c, 3, 60, 111
5, 83280, Note_on_c, 3, 65, 111
5, 83760, Note_off_c, 3, 65, 111
5, 83760, Note_on_c, 3, 64, 111
5, 83760, Note_on_c, 3, 57, 111
5, 83880, Note_off_c, 3, 64, 111
5, 83880, Note_off_c, 3, 57, 111
5, 84000, Note_on_c, 3, 60, 111
5, 84480, Note_off_c, 3, 60, 111
5, 85680, Note_on_c, 3, 64, 111
5, 86400, Note_off_c, 3, 64, 111
5, 86400, Note_on_c, 3, 67, 111
5, 86760, Note_off_c, 3, 67, 111
5, 86760, Note_on_c, 3, 65, 111
5, 87000, Note_off_c, 3, 65, 111
5, 87120, Note_on_c, 3, 64, 111
5, 87360, Note_off_c, 3, 64, 111
5, 87360, Note_on_c, 3, 62, 111
5, 87960, Note_off_c, 3, 62, 111
5, 88080, Note_on_c, 3, 60, 111
5, 88320, Note_off_c, 3, 60, 111
5, 88320, Note_on_c, 3, 64, 111
5, 88800, Note_off_c, 3, 64, 111
5, 88800, Note_on_c, 3, 67, 111
5, 89040, Note_off_c, 3, 67, 111
5, 89040, Note_on_c, 3, 67, 111
5, 89520, Note_off_c, 3, 67, 111
5, 89520, Note_on_c, 3, 64, 111
5, 90000, Note_off_c, 3, 64, 111
5, 90000, Note_on_c, 3, 62, 111
5, 90120, Note_off_c, 3, 62, 111
5, 90120, Note_on_c, 3, 60, 111
5, 91560, Note_off_c, 3, 60, 111
5, 93360, Note_on_c, 3, 64, 111
5, 93840, Note_off_c, 3, 64, 111
5, 93840, Note_on_c, 3, 62, 111
5, 94200, Note_off_c, 3, 62, 111
5, 94200, Note_on_c, 3, 57, 111
5, 94560, Note_off_c, 3, 57, 111
5, 94680, Note_on_c, 3, 60, 111
5, 94920, Note_off_c, 3, 60, 111
5, 94920, Note_on_c, 3, 62, 111
5, 95280, Note_off_c, 3, 62, 111
5, 95400, Note_on_c, 3, 60, 111
5, 95640, Note_off_c, 3, 60, 111
5, 95640, Note_on_c, 3, 57, 111
5, 96000, Note_off_c, 3, 57, 111
5, 96120, Note_on_c, 3, 67, 111
5, 96360, Note_off_c, 3, 67, 111
5, 96360, Note_on_c, 3, 62, 111
5, 96480, Note_off_c, 3, 62, 111
5, 96480, Note_on_c, 3, 64, 111
5, 98400, Note_off_c, 3, 64, 111
5, 98400, Note_on_c, 3, 65, 111
5, 98880, Note_off_c, 3, 65, 111
5, 98880, Note_on_c, 3, 64, 111
5, 99240, Note_off_c, 3, 64, 111
5, 99240, Note_on_c, 3, 62, 111
5, 99360, Note_off_c, 3, 62, 111
5, 99360, Note_on_c, 3, 60, 111
5, 99840, Note_off_c, 3, 60, 111
5, 101040, Note_on_c, 3, 64, 111
5, 101400, Note_off_c, 3, 64, 111
5, 101520, Note_on_c, 3, 67, 111
5, 102000, Note_off_c, 3, 67, 111
5, 102000, Note_on_c, 3, 65, 111
5, 102120, Note_off_c, 3, 65, 111
5, 102120, Note_on_c, 3, 64, 111
5, 102360, Note_off_c, 3, 64, 111
5, 102480, Note_on_c, 3, 62, 111
5, 102960, Note_off_c, 3, 62, 111
5, 102960, Note_on_c, 3, 60, 111
5, 103440, Note_off_c, 3, 60, 111
5, 104160, Note_on_c, 3, 64, 111
5, 104880, Note_off_c, 3, 64, 111
5, 104880, Note_on_c, 3, 67, 111
5, 105360, Note_off_c, 3, 67, 111
5, 105360, Note_on_c, 3, 69, 111
5, 105840, Note_off_c, 3, 69, 111
5, 105840, Note_on_c, 3, 64, 111
5, 106320, Note_off_c, 3, 64, 111
5, 106440, Note_on_c, 3, 62, 111
5, 106560, Note_off_c, 3, 62, 111
5, 106560, Note_on_c, 3, 60, 111
5, 107520, Note_off_c, 3, 60, 111
5, 108240, Note_on_c, 3, 60, 111
5, 108480, Note_off_c, 3, 60, 111
5, 108480, Note_on_c, 3, 69, 111
5, 109560, Note_off_c, 3, 69, 111
5, 109680, Note_on_c, 3, 64, 111
5, 110040, Note_off_c, 3, 64, 111
5, 110040, Note_on_c, 3, 62, 111
5, 110400, Note_off_c, 3, 62, 111
5, 110400, Note_on_c, 3, 60, 111
5, 110760, Note_off_c, 3, 60, 111
5, 110760, Note_on_c, 3, 62, 111
5, 111000, Note_off_c, 3, 62, 111
5, 111000, Note_on_c, 3, 64, 111
5, 111240, Note_off_c, 3, 64, 111
5, 111360, Note_on_c, 3, 62, 111
5, 111720, Note_off_c, 3, 62, 111
5, 111720, Note_on_c, 3, 57, 111
5, 111840, Note_off_c, 3, 57, 111
5, 111840, Note_on_c, 3, 59, 111
5, 112200, Note_off_c, 3, 59, 111
5, 112200, Note_on_c, 3, 57, 111
5, 112320, Note_off_c, 3, 57, 111
5, 112320, Note_on_c, 3, 55, 111
5, 113280, Note_off_c, 3, 55, 111
5, 116400, Note_on_c, 3, 69, 127
5, 116760, Note_off_c, 3, 69, 127
5, 116760, Note_on_c, 3, 72, 111
5, 117120, Note_off_c, 3, 72, 111
5, 117120, Note_on_c, 3, 69, 111
5, 117480, Note_off_c, 3, 69, 111
5, 117480, Note_on_c, 3, 67, 111
5, 117840, Note_off_c, 3, 67, 111
5, 117840, Note_on_c, 3, 64, 111
5, 118320, Note_off_c, 3, 64, 111
5, 118320, Note_on_c, 3, 60, 111
5, 118680, Note_off_c, 3, 60, 111
5, 118680, Note_on_c, 3, 64, 111
5, 119160, Note_off_c, 3, 64, 111
5, 119160, Note_on_c, 3, 64, 111
5, 120240, Note_off_c, 3, 64, 111
5, 120240, Note_on_c, 3, 64, 111
5, 120480, Note_off_c, 3, 64, 111
5, 120480, Note_on_c, 3, 62, 111
5, 120720, Note_off_c, 3, 62, 111
5, 120720, Note_on_c, 3, 60, 111
5, 120840, Note_off_c, 3, 60, 111
5, 120840, Note_on_c, 3, 57, 111
5, 121320, Note_off_c, 3, 57, 111
5, 123120, Note_on_c, 3, 64, 127
5, 123480, Note_off_c, 3, 64, 127
5, 123480, Note_on_c, 3, 67, 111
5, 123840, Note_off_c, 3, 67, 111
5, 124080, Note_on_c, 3, 69, 127
5, 124440, Note_off_c, 3, 69, 127
5, 124440, Note_on_c, 3, 72, 111
5, 124800, Note_off_c, 3, 72, 111
5, 124920, Note_on_c, 3, 69, 127
5, 125280, Note_off_c, 3, 69, 127
5, 125280, Note_on_c, 3, 67, 111
5, 125520, Note_off_c, 3, 67, 111
5, 125520, Note_on_c, 3, 64, 111
5, 126000, Note_off_c, 3, 64, 111
5, 126000, Note_on_c, 3, 60, 111
5, 126240, Note_off_c, 3, 60, 111
5, 126240, Note_on_c, 3, 64, 111
5, 127920, Note_off_c, 3, 64, 111
5, 127920, Note_on_c, 3, 64, 111
5, 128280, Note_off_c, 3, 64, 111
5, 128400, Note_on_c, 3, 64, 111
5, 128760, Note_off_c, 3, 64, 111
5, 128760, Note_on_c, 3, 62, 111
5, 129120, Note_off_c, 3, 62, 111
5, 129120, Note_on_c, 3, 59, 111
5, 129360, Note_off_c, 3, 59, 111
5, 129360, Note_on_c, 3, 57, 111
5, 129840, Note_off_c, 3, 57, 111
5, 129840, Note_on_c, 3, 55, 111
5, 130560, Note_off_c, 3, 55, 111
5, 131760, Note_on_c, 3, 64, 111
5, 132120, Note_off_c, 3, 64, 111
5, 132120, Note_on_c, 3, 67, 111
5, 132720, Note_off_c, 3, 67, 111
5, 132720, Note_on_c, 3, 65, 111
5, 133080, Note_off_c, 3, 65, 111
5, 133080, Note_on_c, 3, 64, 111
5, 133440, Note_off_c, 3, 64, 111
5, 133440, Note_on_c, 3, 62, 111
5, 133920, Note_off_c, 3, 62, 111
5, 133920, Note_on_c, 3, 60, 111
5, 134160, Note_off_c, 3, 60, 111
5, 134160, Note_on_c, 3, 64, 111
5, 134520, Note_off_c, 3, 64, 111
5, 134640, Note_on_c, 3, 67, 111
5, 134880, Note_off_c, 3, 67, 111
5, 134880, Note_on_c, 3, 67, 111
5, 135360, Note_off_c, 3, 67, 111
5, 135360, Note_on_c, 3, 64, 111
5, 135720, Note_off_c, 3, 64, 111
5, 135720, Note_on_c, 3, 62, 111
5, 135840, Note_off_c, 3, 62, 111
5, 135840, Note_on_c, 3, 60, 111
5, 137040, Note_off_c, 3, 60, 111
5, 137280, Note_on_c, 3, 64, 111
5, 137520, Note_off_c, 3, 64, 111
5, 137520, Note_on_c, 3, 62, 111
5, 138000, Note_off_c, 3, 62, 111
5, 138000, Note_on_c, 3, 60, 111
5, 138120, Note_off_c, 3, 60, 111
5, 138120, Note_on_c, 3, 62, 111
5, 138240, Note_off_c, 3, 62, 111
5, 138240, Note_on_c, 3, 60, 111
5, 138960, Note_off_c, 3, 60, 111
5, 139200, Note_on_c, 3, 62, 111
5, 139680, Note_off_c, 3, 62, 111
5, 139680, Note_on_c, 3, 64, 111
5, 139920, Note_off_c, 3, 64, 111
5, 139920, Note_on_c, 3, 62, 111
5, 140400, Note_off_c, 3, 62, 111
5, 140400, Note_on_c, 3, 60, 111
5, 140880, Note_off_c, 3, 60, 111
5, 140880, Note_on_c, 3, 59, 111
5, 141360, Note_off_c, 3, 59, 111
5, 141360, Note_on_c, 3, 57, 111
5, 141840, Note_off_c, 3, 57, 111
5, 141840, Note_on_c, 3, 55, 111
5, 142320, Note_off_c, 3, 55, 111
5, 142320, Note_on_c, 3, 60, 111
5, 144240, Note_off_c, 3, 60, 111
5, 147120, Note_on_c, 3, 65, 111
5, 147480, Note_off_c, 3, 65, 111
5, 147600, Note_on_c, 3, 67, 111
5, 147840, Note_off_c, 3, 67, 111
5, 147840, Note_on_c, 3, 64, 111
5, 148320, Note_off_c, 3, 64, 111
5, 148320, Note_on_c, 3, 62, 111
5, 148680, Note_off_c, 3, 62, 111
5, 148800, Note_on_c, 3, 60, 111
5, 149280, Note_off_c, 3, 60, 111
5, 149280, Note_on_c, 3, 60, 111
5, 149760, Note_off_c, 3, 60, 111
5, 149760, Note_on_c, 3, 59, 111
5, 153840, Note_off_c, 3, 59, 111
5, 254400, Note_on_c, 3, 64, 111
5, 255360, Note_off_c, 3, 64, 111
5, 255360, Note_on_c, 3, 67, 111
5, 255720, Note_off_c, 3, 67, 111
5, 255720, Note_on_c, 3, 65, 111
5, 255960, Note_off_c, 3, 65, 111
5, 255960, Note_on_c, 3, 64, 111
5, 256200, Note_off_c, 3, 64, 111
5, 256320, Note_on_c, 3, 62, 111
5, 256680, Note_off_c, 3, 62, 111
5, 256680, Note_on_c, 3, 60, 111
5, 256920, Note_off_c, 3, 60, 111
5, 256920, Note_on_c, 3, 64, 111
5, 257400, Note_off_c, 3, 64, 111
5, 257520, Note_on_c, 3, 67, 111
5, 258000, Note_off_c, 3, 67, 111
5, 258000, Note_on_c, 3, 64, 111
5, 258480, Note_off_c, 3, 64, 111
5, 258480, Note_on_c, 3, 62, 111
5, 258600, Note_off_c, 3, 62, 111
5, 258600, Note_on_c, 3, 60, 111
5, 260040, Note_off_c, 3, 60, 111
5, 262320, Note_on_c, 3, 64, 111
5, 262680, Note_off_c, 3, 64, 111
5, 262680, Note_on_c, 3, 62, 111
5, 263040, Note_off_c, 3, 62, 111
5, 263160, Note_on_c, 3, 64, 111
5, 263520, Note_off_c, 3, 64, 111
5, 263520, Note_on_c, 3, 62, 111
5, 263760, Note_off_c, 3, 62, 111
5, 263760, Note_on_c, 3, 60, 111
5, 264000, Note_off_c, 3, 60, 111
5, 264120, Note_on_c, 3, 60, 111
5, 264360, Note_off_c, 3, 60, 111
5, 264360, Note_on_c, 3, 57, 111
5, 264720, Note_off_c, 3, 57, 111
5, 264720, Note_on_c, 3, 55, 111
5, 265080, Note_off_c, 3, 55, 111
5, 265080, Note_on_c, 3, 60, 111
5, 266760, Note_off_c, 3, 60, 111
5, 267360, Note_on_c, 3, 64, 111
5, 268320, Note_off_c, 3, 64, 111
5, 270240, Note_on_c, 3, 64, 111
5, 270600, Note_off_c, 3, 64, 111
5, 270600, Note_on_c, 3, 67, 111
5, 270960, Note_off_c, 3, 67, 111
5, 270960, Note_on_c, 3, 65, 111
5, 271200, Note_off_c, 3, 65, 111
5, 271200, Note_on_c, 3, 64, 111
5, 271440, Note_off_c, 3, 64, 111
5, 271560, Note_on_c, 3, 62, 111
5, 271920, Note_off_c, 3, 62, 111
5, 271920, Note_on_c, 3, 60, 111
5, 272280, Note_off_c, 3, 60, 111
5, 272280, Note_on_c, 3, 64, 111
5, 272880, Note_off_c, 3, 64, 111
5, 272880, Note_on_c, 3, 67, 111
5, 273240, Note_off_c, 3, 67, 111
5, 273360, Note_on_c, 3, 69, 111
5, 273840, Note_off_c, 3, 69, 111
5, 273960, Note_on_c, 3, 64, 111
5, 274320, Note_off_c, 3, 64, 111
5, 274320, Note_on_c, 3, 62, 111
5, 274440, Note_off_c, 3, 62, 111
5, 274440, Note_on_c, 3, 60, 111
5, 276120, Note_off_c, 3, 60, 111
5, 278040, Note_on_c, 3, 64, 111
5, 278280, Note_off_c, 3, 64, 111
5, 278400, Note_on_c, 3, 69, 111
5, 278640, Note_off_c, 3, 69, 111
5, 278640, Note_on_c, 3, 64, 111
5, 279120, Note_off_c, 3, 64, 111
5, 279240, Note_on_c, 3, 62, 111
5, 279480, Note_off_c, 3, 62, 111
5, 279480, Note_on_c, 3, 60, 111
5, 279720, Note_off_c, 3, 60, 111
5, 279840, Note_on_c, 3, 60, 111
5, 279960, Note_off_c, 3, 60, 111
5, 279960, Note_on_c, 3, 62, 111
5, 280080, Note_off_c, 3, 62, 111
5, 280200, Note_on_c, 3, 64, 111
5, 280560, Note_off_c, 3, 64, 111
5, 280560, Note_on_c, 3, 62, 111
5, 281040, Note_off_c, 3, 62, 111
5, 281040, Note_on_c, 3, 57, 111
5, 281160, Note_off_c, 3, 57, 111
5, 281160, Note_on_c, 3, 59, 111
5, 281640, Note_off_c, 3, 59, 111
5, 281640, Note_on_c, 3, 57, 111
5, 281880, Note_off_c, 3, 57, 111
5, 281880, Note_on_c, 3, 55, 111
5, 282600, Note_off_c, 3, 55, 111
5, 285240, Note_on_c, 3, 69, 111
5, 285840, Note_off_c, 3, 69, 111
5, 285840, Note_on_c, 3, 72, 111
5, 286200, Note_off_c, 3, 72, 111
5, 286200, Note_on_c, 3, 69, 111
5, 286800, Note_off_c, 3, 69, 111
5, 286800, Note_on_c, 3, 67, 111
5, 287160, Note_off_c, 3, 67, 111
5, 287160, Note_on_c, 3, 64, 111
5, 287520, Note_off_c, 3, 64, 111
5, 287520, Note_on_c, 3, 60, 111
5, 287760, Note_off_c, 3, 60, 111
5, 287880, Note_on_c, 3, 64, 111
5, 288360, Note_off_c, 3, 64, 111
5, 288360, Note_on_c, 3, 64, 111
5, 288960, Note_off_c, 3, 64, 111
5, 289080, Note_on_c, 3, 64, 111
5, 289560, Note_off_c, 3, 64, 111
5, 289560, Note_on_c, 3, 62, 111
5, 289680, Note_off_c, 3, 62, 111
5, 289800, Note_on_c, 3, 60, 111
5, 289920, Note_off_c, 3, 60, 111
5, 289920, Note_on_c, 3, 57, 111
5, 290520, Note_off_c, 3, 57, 111
5, 291120, Note_on_c, 3, 64, 111
5, 291360, Note_off_c, 3, 64, 111
5, 291360, Note_on_c, 3, 69, 111
5, 292320, Note_off_c, 3, 69, 111
5, 293040, Note_on_c, 3, 74, 127
5, 293400, Note_off_c, 3, 74, 127
5, 293520, Note_on_c, 3, 72, 111
5, 293880, Note_off_c, 3, 72, 111
5, 293880, Note_on_c, 3, 69, 111
5, 294240, Note_off_c, 3, 69, 111
5, 294240, Note_on_c, 3, 67, 111
5, 294480, Note_off_c, 3, 67, 111
5, 294480, Note_on_c, 3, 64, 111
5, 294840, Note_off_c, 3, 64, 111
5, 294960, Note_on_c, 3, 67, 111
5, 295200, Note_off_c, 3, 67, 111
5, 295200, Note_on_c, 3, 69, 111
5, 295920, Note_off_c, 3, 69, 111
5, 295920, Note_on_c, 3, 64, 111
5, 297600, Note_off_c, 3, 64, 111
5, 297600, Note_on_c, 3, 64, 111
5, 297840, Note_off_c, 3, 64, 111
5, 297960, Note_on_c, 3, 62, 111
5, 298320, Note_off_c, 3, 62, 111
5, 298320, Note_on_c, 3, 59, 111
5, 298440, Note_off_c, 3, 59, 111
5, 298440, Note_on_c, 3, 57, 111
5, 298560, Note_off_c, 3, 57, 111
5, 298560, Note_on_c, 3, 55, 111
5, 299280, Note_off_c, 3, 55, 111
5, 300720, Note_on_c, 3, 64, 111
5, 301080, Note_off_c, 3, 64, 111
5, 301200, Note_on_c, 3, 67, 111
5, 301680, Note_off_c, 3, 67, 111
5, 301680, Note_on_c, 3, 65, 111
5, 302040, Note_off_c, 3, 65, 111
5, 302040, Note_on_c, 3, 64, 111
5, 302400, Note_off_c, 3, 64, 111
5, 302400, Note_on_c, 3, 62, 111
5, 302880, Note_off_c, 3, 62, 111
5, 302880, Note_on_c, 3, 60, 111
5, 303120, Note_off_c, 3, 60, 111
5, 303120, Note_on_c, 3, 64, 111
5, 303600, Note_off_c, 3, 64, 111
5, 303600, Note_on_c, 3, 67, 111
5, 303960, Note_off_c, 3, 67, 111
5, 304080, Note_on_c, 3, 67, 111
5, 304440, Note_off_c, 3, 67, 111
5, 304440, Note_on_c, 3, 69, 111
5, 305160, Note_off_c, 3, 69, 111
5, 305280, Note_on_c, 3, 64, 111
5, 306240, Note_off_c, 3, 64, 111
5, 306240, Note_on_c, 3, 64, 111
5, 306480, Note_off_c, 3, 64, 111
5, 306480, Note_on_c, 3, 62, 111
5, 307440, Note_off_c, 3, 62, 111
5, 307440, Note_on_c, 3, 60, 111
5, 307560, Note_off_c, 3, 60, 111
5, 307560, Note_on_c, 3, 62, 111
5, 307560, Note_on_c, 3, 55, 111
5, 308280, Note_off_c, 3, 62, 111
5, 308280, Note_off_c, 3, 55, 111
5, 308400, Note_on_c, 3, 62, 111
5, 308760, Note_off_c, 3, 62, 111
5, 308880, Note_on_c, 3, 64, 111
5, 309360, Note_off_c, 3, 64, 111
5, 309360, Note_on_c, 3, 62, 111
5, 309720, Note_off_c, 3, 62, 111
5, 309720, Note_on_c, 3, 60, 111
5, 310080, Note_off_c, 3, 60, 111
5, 310200, Note_on_c, 3, 59, 111
5, 310560, Note_off_c, 3, 59, 111
5, 310560, Note_on_c, 3, 57, 111
5, 310920, Note_off_c, 3, 57, 111
5, 311040, Note_on_c, 3, 55, 111
5, 311400, Note_off_c, 3, 55, 111
5, 311400, Note_on_c, 3, 60, 111
5, 313800, Note_off_c, 3, 60, 111
5, 316440, Note_on_c, 3, 65, 111
5, 316920, Note_off_c, 3, 65, 111
5, 316920, Note_on_c, 3, 67, 111
5, 317400, Note_off_c, 3, 67, 111
5, 317520, Note_on_c, 3, 64, 111
5, 317880, Note_off_c, 3, 64, 111
5, 317880, Note_on_c, 3, 62, 111
5, 318240, Note_off_c, 3, 62, 111
5, 318240, Note_on_c, 3, 60, 111
5, 318600, Note_off_c, 3, 60, 111
5, 318600, Note_on_c, 3, 57, 111
5, 318720, Note_off_c, 3, 57, 111
5, 318720, Note_on_c, 3, 69, 111
5, 319440, Note_off_c, 3, 69, 111
5, 319440, Note_on_c, 3, 67, 111
5, 320160, Note_off_c, 3, 67, 111
5, 320160, Note_on_c, 3, 64, 111
5, 320760, Note_off_c, 3, 64, 111
5, 320880, Note_on_c, 3, 62, 111
5, 320880, Note_on_c, 3, 59, 111
5, 321000, Note_off_c, 3, 62, 111
5, 321000, Note_off_c, 3, 59, 111
5, 321000, Note_on_c, 3, 62, 111
5, 321120, Note_off_c, 3, 62, 111
5, 321240, Note_on_c, 3, 60, 111
5, 322440, Note_off_c, 3, 60, 111
5, 322440, End_track
6, 0, Start_track
6, 0, Pitch_bend_c, 4, 8192
6, 0, Control_c, 4, 7, 103
6, 0, Control_c, 4, 10, 63
6, 0, Control_c, 4, 93, 95
6, 0, Control_c, 4, 91, 87
6, 0, Control_c, 4, 95, 0
6, 0, Control_c, 4, 92, 0
6, 0, Control_c, 4, 11, 127
6, 0, Program_c, 4, 30
6, 165120, Note_on_c, 4, 52, 95
6, 165600, Note_off_c, 4, 52, 95
6, 165600, Note_on_c, 4, 55, 95
6, 166080, Note_off_c, 4, 55, 95
6, 166080, Note_on_c, 4, 57, 70
6, 166240, Pitch_bend_c, 4, 8192
6, 166400, Pitch_bend_c, 4, 8320
6, 166560, Pitch_bend_c, 4, 8192
6, 166720, Pitch_bend_c, 4, 8320
6, 166880, Pitch_bend_c, 4, 8192
6, 167040, Pitch_bend_c, 4, 8320
6, 167040, Pitch_bend_c, 4, 8192
6, 167040, Note_off_c, 4, 57, 70
6, 167040, Note_on_c, 4, 60, 95
6, 167520, Note_off_c, 4, 60, 95
6, 167520, Note_on_c, 4, 62, 70
6, 168000, Note_off_c, 4, 62, 70
6, 168000, Note_on_c, 4, 62, 95
6, 168120, Pitch_bend_c, 4, 8448
6, 168240, Pitch_bend_c, 4, 8832
6, 168360, Pitch_bend_c, 4, 9216
6, 168480, Pitch_bend_c, 4, 9600
6, 168480, Pitch_bend_c, 4, 8192
6, 168480, Note_off_c, 4, 62, 95
6, 168480, Note_on_c, 4, 64, 95
6, 168960, Note_off_c, 4, 64, 95
6, 168960, Note_on_c, 4, 69, 95
6, 169120, Pitch_bend_c, 4, 8192
6, 169280, Pitch_bend_c, 4, 8320
6, 169440, Pitch_bend_c, 4, 8192
6, 169600, Pitch_bend_c, 4, 8320
6, 169760, Pitch_bend_c, 4, 8192
6, 169920, Pitch_bend_c, 4, 8320
6, 170080, Pitch_bend_c, 4, 8192
6, 170240, Pitch_bend_c, 4, 8320
6, 170400, Pitch_bend_c, 4, 8192
6, 170560, Pitch_bend_c, 4, 8320
6, 170720, Pitch_bend_c, 4, 8192
6, 170880, Pitch_bend_c, 4, 8320
6, 171040, Pitch_bend_c, 4, 8192
6, 171200, Pitch_bend_c, 4, 8320
6, 171360, Pitch_bend_c, 4, 8192
6, 171520, Pitch_bend_c, 4, 8320
6, 171680, Pitch_bend_c, 4, 8192
6, 171840, Pitch_bend_c, 4, 8320
6, 171840, Pitch_bend_c, 4, 8192
6, 171840, Note_off_c, 4, 69, 95
6, 171840, Note_on_c, 4, 69, 47
6, 172800, Note_off_c, 4, 69, 47
6, 173760, Note_on_c, 4, 79, 95
6, 174000, Note_off_c, 4, 79, 95
6, 174000, Pitch_bend_c, 4, 8192
6, 174000, Note_on_c, 4, 74, 47
6, 174005, Pitch_bend_c, 4, 8320
6, 174010, Pitch_bend_c, 4, 8448
6, 174015, Pitch_bend_c, 4, 8576
6, 174020, Pitch_bend_c, 4, 8704
6, 174025, Pitch_bend_c, 4, 8832
6, 174030, Pitch_bend_c, 4, 8960
6, 174035, Pitch_bend_c, 4, 9088
6, 174040, Pitch_bend_c, 4, 9216
6, 174045, Pitch_bend_c, 4, 9344
6, 174050, Pitch_bend_c, 4, 9472
6, 174055, Pitch_bend_c, 4, 9600
6, 174060, Pitch_bend_c, 4, 9600
6, 174120, Pitch_bend_c, 4, 9600
6, 174125, Pitch_bend_c, 4, 9472
6, 174130, Pitch_bend_c, 4, 9344
6, 174135, Pitch_bend_c, 4, 9216
6, 174140, Pitch_bend_c, 4, 9088
6, 174145, Pitch_bend_c, 4, 8960
6, 174150, Pitch_bend_c, 4, 8832
6, 174155, Pitch_bend_c, 4, 8704
6, 174160, Pitch_bend_c, 4, 8576
6, 174165, Pitch_bend_c, 4, 8448
6, 174170, Pitch_bend_c, 4, 8320
6, 174175, Pitch_bend_c, 4, 8192
6, 174180, Pitch_bend_c, 4, 8192
6, 174240, Pitch_bend_c, 4, 8192
6, 174240, Pitch_bend_c, 4, 8192
6, 174240, Note_off_c, 4, 74, 47
6, 174240, Note_on_c, 4, 74, 47
6, 174480, Note_off_c, 4, 74, 47
6, 174480, Note_on_c, 4, 79, 95
6, 174720, Note_off_c, 4, 79, 95
6, 174720, Pitch_bend_c, 4, 8192
6, 174720, Note_on_c, 4, 74, 47
6, 174725, Pitch_bend_c, 4, 8320
6, 174730, Pitch_bend_c, 4, 8448
6, 174735, Pitch_bend_c, 4, 8576
6, 174740, Pitch_bend_c, 4, 8704
6, 174745, Pitch_bend_c, 4, 8832
6, 174750, Pitch_bend_c, 4, 8960
6, 174755, Pitch_bend_c, 4, 9088
6, 174760, Pitch_bend_c, 4, 9216
6, 174765, Pitch_bend_c, 4, 9344
6, 174770, Pitch_bend_c, 4, 9472
6, 174775, Pitch_bend_c, 4, 9600
6, 174780, Pitch_bend_c, 4, 9600
6, 174840, Pitch_bend_c, 4, 9600
6, 174845, Pitch_bend_c, 4, 9472
6, 174850, Pitch_bend_c, 4, 9344
6, 174855, Pitch_bend_c, 4, 9216
6, 174860, Pitch_bend_c, 4, 9088
6, 174865, Pitch_bend_c, 4, 8960
6, 174870, Pitch_bend_c, 4, 8832
6, 174875, Pitch_bend_c, 4, 8704
6, 174880, Pitch_bend_c, 4, 8576
6, 174885, Pitch_bend_c, 4, 8448
6, 174890, Pitch_bend_c, 4, 8320
6, 174895, Pitch_bend_c, 4, 8192
6, 174900, Pitch_bend_c, 4, 8192
6, 174960, Pitch_bend_c, 4, 8192
6, 174960, Pitch_bend_c, 4, 8192
6, 174960, Note_off_c, 4, 74, 47
6, 174960, Note_on_c, 4, 74, 47
6, 175200, Note_off_c, 4, 74, 47
6, 175200, Note_on_c, 4, 79, 95
6, 175440, Note_off_c, 4, 79, 95
6, 175440, Pitch_bend_c, 4, 8192
6, 175440, Note_on_c, 4, 74, 47
6, 175445, Pitch_bend_c, 4, 8320
6, 175450, Pitch_bend_c, 4, 8448
6, 175455, Pitch_bend_c, 4, 8576
6, 175460, Pitch_bend_c, 4, 8704
6, 175465, Pitch_bend_c, 4, 8832
6, 175470, Pitch_bend_c, 4, 8960
6, 175475, Pitch_bend_c, 4, 9088
6, 175480, Pitch_bend_c, 4, 9216
6, 175485, Pitch_bend_c, 4, 9344
6, 175490, Pitch_bend_c, 4, 9472
6, 175495, Pitch_bend_c, 4, 9600
6, 175500, Pitch_bend_c, 4, 9600
6, 175560, Pitch_bend_c, 4, 9600
6, 175565, Pitch_bend_c, 4, 9472
6, 175570, Pitch_bend_c, 4, 9344
6, 175575, Pitch_bend_c, 4, 9216
6, 175580, Pitch_bend_c, 4, 9088
6, 175585, Pitch_bend_c, 4, 8960
6, 175590, Pitch_bend_c, 4, 8832
6, 175595, Pitch_bend_c, 4, 8704
6, 175600, Pitch_bend_c, 4, 8576
6, 175605, Pitch_bend_c, 4, 8448
6, 175610, Pitch_bend_c, 4, 8320
6, 175615, Pitch_bend_c, 4, 8192
6, 175620, Pitch_bend_c, 4, 8192
6, 175680, Pitch_bend_c, 4, 8192
6, 175680, Pitch_bend_c, 4, 8192
6, 175680, Note_off_c, 4, 74, 47
6, 175680, Note_on_c, 4, 74, 47
6, 175920, Note_off_c, 4, 74, 47
6, 175920, Note_on_c, 4, 79, 95
6, 176160, Note_off_c, 4, 79, 95
6, 176160, Pitch_bend_c, 4, 8192
6, 176160, Note_on_c, 4, 74, 47
6, 176165, Pitch_bend_c, 4, 8320
6, 176170, Pitch_bend_c, 4, 8448
6, 176175, Pitch_bend_c, 4, 8576
6, 176180, Pitch_bend_c, 4, 8704
6, 176185, Pitch_bend_c, 4, 8832
6, 176190, Pitch_bend_c, 4, 8960
6, 176195, Pitch_bend_c, 4, 9088
6, 176200, Pitch_bend_c, 4, 9216
6, 176205, Pitch_bend_c, 4, 9344
6, 176210, Pitch_bend_c, 4, 9472
6, 176215, Pitch_bend_c, 4, 9600
6, 176220, Pitch_bend_c, 4, 9600
6, 176280, Pitch_bend_c, 4, 9600
6, 176285, Pitch_bend_c, 4, 9472
6, 176290, Pitch_bend_c, 4, 9344
6, 176295, Pitch_bend_c, 4, 9216
6, 176300, Pitch_bend_c, 4, 9088
6, 176305, Pitch_bend_c, 4, 8960
6, 176310, Pitch_bend_c, 4, 8832
6, 176315, Pitch_bend_c, 4, 8704
6, 176320, Pitch_bend_c, 4, 8576
6, 176325, Pitch_bend_c, 4, 8448
6, 176330, Pitch_bend_c, 4, 8320
6, 176335, Pitch_bend_c, 4, 8192
6, 176340, Pitch_bend_c, 4, 8192
6, 176400, Pitch_bend_c, 4, 8192
6, 176400, Pitch_bend_c, 4, 8192
6, 176400, Note_off_c, 4, 74, 47
6, 176400, Note_on_c, 4, 74, 47
6, 176640, Note_off_c, 4, 74, 47
6, 176640, Note_on_c, 4, 79, 95
6, 176880, Note_off_c, 4, 79, 95
6, 176880, Pitch_bend_c, 4, 8192
6, 176880, Note_on_c, 4, 74, 47
6, 176885, Pitch_bend_c, 4, 8320
6, 176890, Pitch_bend_c, 4, 8448
6, 176895, Pitch_bend_c, 4, 8576
6, 176900, Pitch_bend_c, 4, 8704
6, 176905, Pitch_bend_c, 4, 8832
6, 176910, Pitch_bend_c, 4, 8960
6, 176915, Pitch_bend_c, 4, 9088
6, 176920, Pitch_bend_c, 4, 9216
6, 176925, Pitch_bend_c, 4, 9344
6, 176930, Pitch_bend_c, 4, 9472
6, 176935, Pitch_bend_c, 4, 9600
6, 176940, Pitch_bend_c, 4, 9600
6, 177000, Pitch_bend_c, 4, 9600
6, 177005, Pitch_bend_c, 4, 9472
6, 177010, Pitch_bend_c, 4, 9344
6, 177015, Pitch_bend_c, 4, 9216
6, 177020, Pitch_bend_c, 4, 9088
6, 177025, Pitch_bend_c, 4, 8960
6, 177030, Pitch_bend_c, 4, 8832
6, 177035, Pitch_bend_c, 4, 8704
6, 177040, Pitch_bend_c, 4, 8576
6, 177045, Pitch_bend_c, 4, 8448
6, 177050, Pitch_bend_c, 4, 8320
6, 177055, Pitch_bend_c, 4, 8192
6, 177060, Pitch_bend_c, 4, 8192
6, 177120, Pitch_bend_c, 4, 8192
6, 177120, Pitch_bend_c, 4, 8192
6, 177120, Note_off_c, 4, 74, 47
6, 177120, Note_on_c, 4, 74, 47
6, 177360, Note_off_c, 4, 74, 47
6, 177360, Note_on_c, 4, 79, 95
6, 177600, Note_off_c, 4, 79, 95
6, 177600, Pitch_bend_c, 4, 8192
6, 177600, Note_on_c, 4, 74, 47
6, 177605, Pitch_bend_c, 4, 8320
6, 177610, Pitch_bend_c, 4, 8448
6, 177615, Pitch_bend_c, 4, 8576
6, 177620, Pitch_bend_c, 4, 8704
6, 177625, Pitch_bend_c, 4, 8832
6, 177630, Pitch_bend_c, 4, 8960
6, 177635, Pitch_bend_c, 4, 9088
6, 177640, Pitch_bend_c, 4, 9216
6, 177645, Pitch_bend_c, 4, 9344
6, 177650, Pitch_bend_c, 4, 9472
6, 177655, Pitch_bend_c, 4, 9600
6, 177660, Pitch_bend_c, 4, 9600
6, 177720, Pitch_bend_c, 4, 9600
6, 177725, Pitch_bend_c, 4, 9472
6, 177730, Pitch_bend_c, 4, 9344
6, 177735, Pitch_bend_c, 4, 9216
6, 177740, Pitch_bend_c, 4, 9088
6, 177745, Pitch_bend_c, 4, 8960
6, 177750, Pitch_bend_c, 4, 8832
6, 177755, Pitch_bend_c, 4, 8704
6, 177760, Pitch_bend_c, 4, 8576
6, 177765, Pitch_bend_c, 4, 8448
6, 177770, Pitch_bend_c, 4, 8320
6, 177775, Pitch_bend_c, 4, 8192
6, 177780, Pitch_bend_c, 4, 8192
6, 177840, Pitch_bend_c, 4, 8192
6, 177840, Pitch_bend_c, 4, 8192
6, 177840, Note_off_c, 4, 74, 47
6, 177840, Note_on_c, 4, 74, 47
6, 178080, Note_off_c, 4, 74, 47
6, 178080, Note_on_c, 4, 79, 95
6, 178320, Note_off_c, 4, 79, 95
6, 178320, Pitch_bend_c, 4, 8192
6, 178320, Note_on_c, 4, 74, 47
6, 178325, Pitch_bend_c, 4, 8320
6, 178330, Pitch_bend_c, 4, 8448
6, 178335, Pitch_bend_c, 4, 8576
6, 178340, Pitch_bend_c, 4, 8704
6, 178345, Pitch_bend_c, 4, 8832
6, 178350, Pitch_bend_c, 4, 8960
6, 178355, Pitch_bend_c, 4, 9088
6, 178360, Pitch_bend_c, 4, 9216
6, 178365, Pitch_bend_c, 4, 9344
6, 178370, Pitch_bend_c, 4, 9472
6, 178375, Pitch_bend_c, 4, 9600
6, 178380, Pitch_bend_c, 4, 9600
6, 178440, Pitch_bend_c, 4, 9600
6, 178445, Pitch_bend_c, 4, 9472
6, 178450, Pitch_bend_c, 4, 9344
6, 178455, Pitch_bend_c, 4, 9216
6, 178460, Pitch_bend_c, 4, 9088
6, 178465, Pitch_bend_c, 4, 8960
6, 178470, Pitch_bend_c, 4, 8832
6, 178475, Pitch_bend_c, 4, 8704
6, 178480, Pitch_bend_c, 4, 8576
6, 178485, Pitch_bend_c, 4, 8448
6, 178490, Pitch_bend_c, 4, 8320
6, 178495, Pitch_bend_c, 4, 8192
6, 178500, Pitch_bend_c, 4, 8192
6, 178560, Pitch_bend_c, 4, 8192
6, 178560, Pitch_bend_c, 4, 8192
6, 178560, Note_off_c, 4, 74, 47
6, 178560, Note_on_c, 4, 79, 95
6, 178800, Note_off_c, 4, 79, 95
6, 178800, Note_on_c, 4, 79, 95
6, 179040, Note_off_c, 4, 79, 95
6, 179040, Note_on_c, 4, 74, 95
6, 179280, Note_off_c, 4, 74, 95
6, 179280, Note_on_c, 4, 74, 95
6, 179520, Note_off_c, 4, 74, 95
6, 179520, Pitch_bend_c, 4, 8192
6, 179520, Note_on_c, 4, 72, 95
6, 179568, Pitch_bend_c, 4, 8320
6, 179616, Pitch_bend_c, 4, 8448
6, 179664, Pitch_bend_c, 4, 8576
6, 179712, Pitch_bend_c, 4, 8704
6, 179760, Pitch_bend_c, 4, 8832
6, 179760, Pitch_bend_c, 4, 8832
6, 180000, Pitch_bend_c, 4, 8832
6, 180000, Pitch_bend_c, 4, 8192
6, 180000, Note_off_c, 4, 72, 95
6, 180000, Note_on_c, 4, 69, 95
6, 180240, Note_off_c, 4, 69, 95
6, 180240, Note_on_c, 4, 69, 95
6, 180480, Note_off_c, 4, 69, 95
6, 180480, Note_on_c, 4, 69, 95
6, 180640, Pitch_bend_c, 4, 8192
6, 180800, Pitch_bend_c, 4, 8320
6, 180960, Pitch_bend_c, 4, 8192
6, 181120, Pitch_bend_c, 4, 8320
6, 181280, Pitch_bend_c, 4, 8192
6, 181440, Pitch_bend_c, 4, 8320
6, 181440, Pitch_bend_c, 4, 8192
6, 181440, Note_off_c, 4, 69, 95
6, 181440, Note_on_c, 4, 67, 95
6, 181680, Note_off_c, 4, 67, 95
6, 181680, Note_on_c, 4, 69, 95
6, 181920, Note_off_c, 4, 69, 95
6, 181920, Note_on_c, 4, 69, 95
6, 182160, Note_off_c, 4, 69, 95
6, 182160, Note_on_c, 4, 69, 95
6, 182400, Note_off_c, 4, 69, 95
6, 182400, Note_on_c, 4, 69, 95
6, 182640, Note_off_c, 4, 69, 95
6, 182640, Note_on_c, 4, 67, 70
6, 182880, Note_off_c, 4, 67, 70
6, 182880, Note_on_c, 4, 64, 95
6, 183120, Note_off_c, 4, 64, 95
6, 183120, Note_on_c, 4, 67, 95
6, 183360, Note_off_c, 4, 67, 95
6, 183360, Note_on_c, 4, 63, 95
6, 183840, Note_off_c, 4, 63, 95
6, 183840, Note_on_c, 4, 55, 95
6, 184320, Note_off_c, 4, 55, 95
6, 184320, Note_on_c, 4, 57, 95
6, 185280, Note_off_c, 4, 57, 95
6, 185280, Note_on_c, 4, 55, 95
6, 185520, Note_off_c, 4, 55, 95
6, 185520, Note_on_c, 4, 57, 70
6, 185760, Note_off_c, 4, 57, 70
6, 185760, Note_on_c, 4, 57, 95
6, 186000, Note_off_c, 4, 57, 95
6, 186000, Note_on_c, 4, 60, 95
6, 186480, Note_off_c, 4, 60, 95
6, 186480, Note_on_c, 4, 60, 95
6, 186720, Note_off_c, 4, 60, 95
6, 186720, Note_on_c, 4, 62, 95
6, 186960, Note_off_c, 4, 62, 95
6, 186960, Note_on_c, 4, 60, 95
6, 187200, Note_off_c, 4, 60, 95
6, 187200, Note_on_c, 4, 62, 95
6, 187320, Pitch_bend_c, 4, 8832
6, 187440, Pitch_bend_c, 4, 9600
6, 187440, Pitch_bend_c, 4, 8192
6, 187440, Note_off_c, 4, 62, 95
6, 187440, Note_on_c, 4, 64, 95
6, 187680, Note_off_c, 4, 64, 95
6, 187680, Note_on_c, 4, 67, 95
6, 188160, Note_off_c, 4, 67, 95
6, 189120, Note_on_c, 4, 67, 95
6, 189360, Note_off_c, 4, 67, 95
6, 189360, Note_on_c, 4, 69, 70
6, 189600, Note_off_c, 4, 69, 70
6, 189600, Note_on_c, 4, 69, 95
6, 189840, Note_off_c, 4, 69, 95
6, 189840, Note_on_c, 4, 69, 95
6, 190080, Note_off_c, 4, 69, 95
6, 190080, Note_on_c, 4, 69, 95
6, 190320, Note_off_c, 4, 69, 95
6, 190320, Note_on_c, 4, 69, 95
6, 190560, Note_off_c, 4, 69, 95
6, 190560, Note_on_c, 4, 69, 95
6, 190800, Note_off_c, 4, 69, 95
6, 190800, Note_on_c, 4, 67, 70
6, 191040, Note_off_c, 4, 67, 70
6, 191280, Note_on_c, 4, 69, 95
6, 191520, Note_off_c, 4, 69, 95
6, 191520, Note_on_c, 4, 67, 70
6, 191760, Note_off_c, 4, 67, 70
6, 191760, Note_on_c, 4, 64, 95
6, 192000, Note_off_c, 4, 64, 95
6, 192000, Note_on_c, 4, 69, 95
6, 192240, Note_off_c, 4, 69, 95
6, 192240, Note_on_c, 4, 67, 70
6, 192720, Note_off_c, 4, 67, 70
6, 192720, Note_on_c, 4, 69, 95
6, 192960, Note_off_c, 4, 69, 95
6, 192960, Note_on_c, 4, 67, 70
6, 193200, Note_off_c, 4, 67, 70
6, 193200, Note_on_c, 4, 69, 95
6, 193440, Note_off_c, 4, 69, 95
6, 193440, Note_on_c, 4, 69, 95
6, 193680, Note_off_c, 4, 69, 95
6, 193680, Note_on_c, 4, 67, 70
6, 193920, Note_off_c, 4, 67, 70
6, 193920, Note_on_c, 4, 64, 95
6, 194160, Note_off_c, 4, 64, 95
6, 194160, Note_on_c, 4, 69, 95
6, 194400, Note_off_c, 4, 69, 95
6, 194400, Note_on_c, 4, 67, 70
6, 194880, Note_off_c, 4, 67, 70
6, 194880, Note_on_c, 4, 69, 95
6, 195120, Note_off_c, 4, 69, 95
6, 195120, Note_on_c, 4, 67, 70
6, 195360, Note_off_c, 4, 67, 70
6, 195360, Note_on_c, 4, 62, 95
6, 195600, Note_off_c, 4, 62, 95
6, 195600, Note_on_c, 4, 69, 95
6, 195840, Note_off_c, 4, 69, 95
6, 195840, Note_on_c, 4, 67, 95
6, 196320, Note_off_c, 4, 67, 95
6, 196320, Note_on_c, 4, 69, 95
6, 196560, Note_off_c, 4, 69, 95
6, 196560, Note_on_c, 4, 67, 70
6, 196960, Note_off_c, 4, 67, 70
6, 196960, Note_on_c, 4, 69, 95
6, 197120, Note_off_c, 4, 69, 95
6, 197120, Note_on_c, 4, 67, 95
6, 197280, Note_off_c, 4, 67, 95
6, 197280, Note_on_c, 4, 62, 95
6, 197760, Note_off_c, 4, 62, 95
6, 197760, Note_on_c, 4, 60, 95
6, 197920, Note_off_c, 4, 60, 95
6, 197920, Note_on_c, 4, 62, 70
6, 198080, Note_off_c, 4, 62, 70
6, 198080, Note_on_c, 4, 60, 70
6, 198240, Note_off_c, 4, 60, 70
6, 198240, Note_on_c, 4, 57, 95
6, 198720, Note_off_c, 4, 57, 95
6, 198720, Note_on_c, 4, 60, 95
6, 199200, Note_off_c, 4, 60, 95
6, 199200, Note_on_c, 4, 57, 95
6, 199680, Note_off_c, 4, 57, 95
6, 199680, Note_on_c, 4, 66, 95
6, 200640, Note_off_c, 4, 66, 95
6, 200640, Note_on_c, 4, 74, 95
6, 201120, Note_off_c, 4, 74, 95
6, 201120, Note_on_c, 4, 66, 95
6, 201600, Note_off_c, 4, 66, 95
6, 201600, Note_on_c, 4, 74, 95
6, 202080, Note_off_c, 4, 74, 95
6, 202080, Note_on_c, 4, 72, 95
6, 202560, Note_off_c, 4, 72, 95
6, 202560, Pitch_bend_c, 4, 8192
6, 202560, Note_on_c, 4, 67, 95
6, 202570, Pitch_bend_c, 4, 8320
6, 202580, Pitch_bend_c, 4, 8448
6, 202590, Pitch_bend_c, 4, 8576
6, 202600, Pitch_bend_c, 4, 8704
6, 202610, Pitch_bend_c, 4, 8832
6, 202620, Pitch_bend_c, 4, 8960
6, 202630, Pitch_bend_c, 4, 9088
6, 202640, Pitch_bend_c, 4, 9216
6, 202650, Pitch_bend_c, 4, 9344
6, 202660, Pitch_bend_c, 4, 9472
6, 202670, Pitch_bend_c, 4, 9600
6, 202680, Pitch_bend_c, 4, 9600
6, 202800, Pitch_bend_c, 4, 9600
6, 202810, Pitch_bend_c, 4, 9472
6, 202820, Pitch_bend_c, 4, 9344
6, 202830, Pitch_bend_c, 4, 9216
6, 202840, Pitch_bend_c, 4, 9088
6, 202850, Pitch_bend_c, 4, 8960
6, 202860, Pitch_bend_c, 4, 8832
6, 202870, Pitch_bend_c, 4, 8704
6, 202880, Pitch_bend_c, 4, 8576
6, 202890, Pitch_bend_c, 4, 8448
6, 202900, Pitch_bend_c, 4, 8320
6, 202910, Pitch_bend_c, 4, 8192
6, 202920, Pitch_bend_c, 4, 8192
6, 203040, Pitch_bend_c, 4, 8192
6, 203040, Pitch_bend_c, 4, 8192
6, 203040, Note_off_c, 4, 67, 95
6, 203040, Note_on_c, 4, 67, 47
6, 203520, Note_off_c, 4, 67, 47
6, 203520, Note_on_c, 4, 65, 95
6, 203760, Note_off_c, 4, 65, 95
6, 203760, Note_on_c, 4, 66, 70
6, 204480, Note_off_c, 4, 66, 70
6, 204480, Note_on_c, 4, 62, 95
6, 205440, Note_off_c, 4, 62, 95
6, 205440, Note_on_c, 4, 62, 95
6, 205600, Pitch_bend_c, 4, 8192
6, 205760, Pitch_bend_c, 4, 8320
6, 205920, Pitch_bend_c, 4, 8192
6, 206080, Pitch_bend_c, 4, 8320
6, 206240, Pitch_bend_c, 4, 8192
6, 206400, Pitch_bend_c, 4, 8320
6, 206400, Pitch_bend_c, 4, 8192
6, 206400, Note_off_c, 4, 62, 95
6, 206400, Note_on_c, 4, 65, 95
6, 206640, Note_off_c, 4, 65, 95
6, 206640, Note_on_c, 4, 66, 70
6, 206880, Note_off_c, 4, 66, 70
6, 207840, Pitch_bend_c, 4, 8192
6, 207840, Note_on_c, 4, 72, 95
6, 207905, Pitch_bend_c, 4, 8320
6, 207970, Pitch_bend_c, 4, 8448
6, 208035, Pitch_bend_c, 4, 8576
6, 208100, Pitch_bend_c, 4, 8704
6, 208165, Pitch_bend_c, 4, 8832
6, 208230, Pitch_bend_c, 4, 8960
6, 208295, Pitch_bend_c, 4, 9088
6, 208360, Pitch_bend_c, 4, 9216
6, 208425, Pitch_bend_c, 4, 9344
6, 208490, Pitch_bend_c, 4, 9472
6, 208555, Pitch_bend_c, 4, 9600
6, 208560, Pitch_bend_c, 4, 9600
6, 209280, Pitch_bend_c, 4, 9600
6, 209280, Pitch_bend_c, 4, 8192
6, 209280, Note_off_c, 4, 72, 95
6, 209280, Note_on_c, 4, 74, 95
6, 209760, Note_off_c, 4, 74, 95
6, 209760, Note_on_c, 4, 72, 95
6, 210000, Note_off_c, 4, 72, 95
6, 210000, Note_on_c, 4, 69, 70
6, 210240, Note_off_c, 4, 69, 70
6, 210240, Note_on_c, 4, 67, 95
6, 210480, Note_off_c, 4, 67, 95
6, 210480, Note_on_c, 4, 69, 95
6, 210720, Note_off_c, 4, 69, 95
6, 210720, Note_on_c, 4, 67, 95
6, 210960, Note_off_c, 4, 67, 95
6, 210960, Note_on_c, 4, 65, 70
6, 211200, Note_off_c, 4, 65, 70
6, 211200, Note_on_c, 4, 65, 95
6, 211440, Note_off_c, 4, 65, 95
6, 211440, Note_on_c, 4, 65, 95
6, 211680, Note_off_c, 4, 65, 95
6, 211680, Note_on_c, 4, 62, 95
6, 211920, Note_off_c, 4, 62, 95
6, 211920, Note_on_c, 4, 60, 70
6, 212160, Note_off_c, 4, 60, 70
6, 212160, Note_on_c, 4, 57, 95
6, 212400, Note_off_c, 4, 57, 95
6, 212400, Note_on_c, 4, 55, 70
6, 212640, Note_off_c, 4, 55, 70
6, 212640, Note_on_c, 4, 53, 95
6, 213120, Note_off_c, 4, 53, 95
6, 213120, Note_on_c, 4, 55, 95
6, 213360, Note_off_c, 4, 55, 95
6, 213360, Note_on_c, 4, 53, 70
6, 213600, Note_off_c, 4, 53, 70
6, 213600, Note_on_c, 4, 50, 95
6, 214080, Note_off_c, 4, 50, 95
6, 214080, Note_on_c, 4, 53, 95
6, 214560, Note_off_c, 4, 53, 95
6, 214560, Note_on_c, 4, 50, 95
6, 214680, Pitch_bend_c, 4, 6528
6, 214800, Pitch_bend_c, 4, 4736
6, 214920, Pitch_bend_c, 4, 2944
6, 215040, Pitch_bend_c, 4, 1152
6, 215040, Pitch_bend_c, 4, 8192
6, 215040, Note_off_c, 4, 50, 95
6, 215040, Note_on_c, 4, 40, 95
6, 216000, Note_off_c, 4, 40, 95
6, 216240, Note_on_c, 4, 59, 95
6, 216480, Note_off_c, 4, 59, 95
6, 216480, Note_on_c, 4, 56, 95
6, 216600, Pitch_bend_c, 4, 10240
6, 216720, Pitch_bend_c, 4, 12416
6, 216840, Pitch_bend_c, 4, 14464
6, 216960, Pitch_bend_c, 4, 16256
6, 216960, Pitch_bend_c, 4, 8192
6, 216960, Note_off_c, 4, 56, 95
6, 216960, Note_on_c, 4, 68, 95
6, 217440, Note_off_c, 4, 68, 95
6, 217440, Note_on_c, 4, 76, 95
6, 218400, Note_off_c, 4, 76, 95
6, 218400, Pitch_bend_c, 4, 8192
6, 218400, Note_on_c, 4, 79, 95
6, 218443, Pitch_bend_c, 4, 8320
6, 218486, Pitch_bend_c, 4, 8448
6, 218529, Pitch_bend_c, 4, 8576
6, 218572, Pitch_bend_c, 4, 8704
6, 218615, Pitch_bend_c, 4, 8832
6, 218658, Pitch_bend_c, 4, 8960
6, 218701, Pitch_bend_c, 4, 9088
6, 218744, Pitch_bend_c, 4, 9216
6, 218787, Pitch_bend_c, 4, 9344
6, 218830, Pitch_bend_c, 4, 9472
6, 218873, Pitch_bend_c, 4, 9600
6, 218880, Pitch_bend_c, 4, 9600
6, 219360, Pitch_bend_c, 4, 9600
6, 219360, Pitch_bend_c, 4, 8192
6, 219360, Note_off_c, 4, 79, 95
6, 219360, Note_on_c, 4, 59, 95
6, 219600, Note_off_c, 4, 59, 95
6, 219600, Note_on_c, 4, 55, 95
6, 219840, Note_off_c, 4, 55, 95
6, 219840, Note_on_c, 4, 76, 95
6, 220320, Note_off_c, 4, 76, 95
6, 220320, Note_on_c, 4, 74, 95
6, 220560, Note_off_c, 4, 74, 95
6, 220560, Note_on_c, 4, 71, 70
6, 220800, Note_off_c, 4, 71, 70
6, 220800, Pitch_bend_c, 4, 8192
6, 220800, Note_on_c, 4, 69, 95
6, 220821, Pitch_bend_c, 4, 8320
6, 220842, Pitch_bend_c, 4, 8448
6, 220863, Pitch_bend_c, 4, 8576
6, 220884, Pitch_bend_c, 4, 8704
6, 220905, Pitch_bend_c, 4, 8832
6, 220926, Pitch_bend_c, 4, 8960
6, 220947, Pitch_bend_c, 4, 9088
6, 220968, Pitch_bend_c, 4, 9216
6, 220989, Pitch_bend_c, 4, 9344
6, 221010, Pitch_bend_c, 4, 9472
6, 221031, Pitch_bend_c, 4, 9600
6, 221040, Pitch_bend_c, 4, 9600
6, 221280, Pitch_bend_c, 4, 9600
6, 221280, Pitch_bend_c, 4, 8192
6, 221280, Note_off_c, 4, 69, 95
6, 221280, Note_on_c, 4, 69, 95
6, 221760, Note_off_c, 4, 69, 95
6, 221760, Note_on_c, 4, 69, 95
6, 222000, Note_off_c, 4, 69, 95
6, 222000, Note_on_c, 4, 67, 70
6, 222240, Note_off_c, 4, 67, 70
6, 222240, Note_on_c, 4, 64, 95
6, 222720, Note_off_c, 4, 64, 95
6, 222720, Note_on_c, 4, 68, 95
6, 223200, Note_off_c, 4, 68, 95
6, 223200, Note_on_c, 4, 76, 95
6, 223680, Note_off_c, 4, 76, 95
6, 223680, Note_on_c, 4, 71, 95
6, 224160, Note_off_c, 4, 71, 95
6, 224160, Pitch_bend_c, 4, 8192
6, 224160, Note_on_c, 4, 79, 95
6, 224203, Pitch_bend_c, 4, 8320
6, 224246, Pitch_bend_c, 4, 8448
6, 224289, Pitch_bend_c, 4, 8576
6, 224332, Pitch_bend_c, 4, 8704
6, 224375, Pitch_bend_c, 4, 8832
6, 224418, Pitch_bend_c, 4, 8960
6, 224461, Pitch_bend_c, 4, 9088
6, 224504, Pitch_bend_c, 4, 9216
6, 224547, Pitch_bend_c, 4, 9344
6, 224590, Pitch_bend_c, 4, 9472
6, 224633, Pitch_bend_c, 4, 9600
6, 224640, Pitch_bend_c, 4, 9600
6, 225120, Pitch_bend_c, 4, 9600
6, 225120, Pitch_bend_c, 4, 8192
6, 225120, Note_off_c, 4, 79, 95
6, 225120, Note_on_c, 4, 79, 95
6, 225600, Note_off_c, 4, 79, 95
6, 225600, Note_on_c, 4, 76, 95
6, 225760, Note_off_c, 4, 76, 95
6, 225760, Note_on_c, 4, 79, 70
6, 225920, Note_off_c, 4, 79, 70
6, 225920, Note_on_c, 4, 76, 70
6, 226080, Note_off_c, 4, 76, 70
6, 226080, Note_on_c, 4, 74, 95
6, 226560, Note_off_c, 4, 74, 95
6, 226560, Note_on_c, 4, 76, 95
6, 227040, Note_off_c, 4, 76, 95
6, 227040, Pitch_bend_c, 4, 8192
6, 227040, Note_on_c, 4, 74, 95
6, 227105, Pitch_bend_c, 4, 8320
6, 227170, Pitch_bend_c, 4, 8448
6, 227235, Pitch_bend_c, 4, 8576
6, 227300, Pitch_bend_c, 4, 8704
6, 227365, Pitch_bend_c, 4, 8832
6, 227430, Pitch_bend_c, 4, 8960
6, 227495, Pitch_bend_c, 4, 9088
6, 227560, Pitch_bend_c, 4, 9216
6, 227625, Pitch_bend_c, 4, 9344
6, 227690, Pitch_bend_c, 4, 9472
6, 227755, Pitch_bend_c, 4, 9600
6, 227760, Pitch_bend_c, 4, 9600
6, 228480, Pitch_bend_c, 4, 9600
6, 228480, Pitch_bend_c, 4, 8192
6, 228480, Note_off_c, 4, 74, 95
6, 228480, Note_on_c, 4, 74, 95
6, 228960, Note_off_c, 4, 74, 95
6, 228960, Note_on_c, 4, 71, 95
6, 229440, Note_off_c, 4, 71, 95
6, 229440, Note_on_c, 4, 74, 95
6, 229680, Note_off_c, 4, 74, 95
6, 229680, Note_on_c, 4, 71, 70
6, 229920, Note_off_c, 4, 71, 70
6, 229920, Note_on_c, 4, 69, 95
6, 230400, Note_off_c, 4, 69, 95
6, 230400, Note_on_c, 4, 66, 95
6, 230720, Note_off_c, 4, 66, 95
6, 230720, Note_on_c, 4, 67, 95
6, 231040, Note_off_c, 4, 67, 95
6, 231040, Note_on_c, 4, 66, 70
6, 231360, Note_off_c, 4, 66, 70
6, 231360, Note_on_c, 4, 74, 95
6, 232320, Note_off_c, 4, 74, 95
6, 232320, Note_on_c, 4, 74, 95
6, 232800, Note_off_c, 4, 74, 95
6, 232800, Note_on_c, 4, 72, 95
6, 233280, Note_off_c, 4, 72, 95
6, 233280, Note_on_c, 4, 74, 95
6, 233760, Note_off_c, 4, 74, 95
6, 233760, Note_on_c, 4, 72, 95
6, 234240, Note_off_c, 4, 72, 95
6, 234720, Note_on_c, 4, 64, 95
6, 235200, Note_off_c, 4, 64, 95
6, 235200, Note_on_c, 4, 72, 95
6, 235680, Note_off_c, 4, 72, 95
6, 235680, Note_on_c, 4, 70, 95
6, 236160, Note_off_c, 4, 70, 95
6, 236160, Note_on_c, 4, 70, 95
6, 236320, Pitch_bend_c, 4, 8192
6, 236480, Pitch_bend_c, 4, 8320
6, 236640, Pitch_bend_c, 4, 8192
6, 236800, Pitch_bend_c, 4, 8320
6, 236960, Pitch_bend_c, 4, 8192
6, 237120, Pitch_bend_c, 4, 8320
6, 237120, Pitch_bend_c, 4, 8192
6, 237120, Note_off_c, 4, 70, 95
6, 237120, Note_on_c, 4, 72, 95
6, 237600, Note_off_c, 4, 72, 95
6, 238560, Note_on_c, 4, 62, 95
6, 239040, Note_off_c, 4, 62, 95
6, 239040, Note_on_c, 4, 70, 95
6, 239520, Note_off_c, 4, 70, 95
6, 239520, Note_on_c, 4, 68, 95
6, 240000, Note_off_c, 4, 68, 95
6, 240000, Note_on_c, 4, 70, 95
6, 240480, Note_off_c, 4, 70, 95
6, 240480, Note_on_c, 4, 68, 95
6, 240960, Note_off_c, 4, 68, 95
6, 240960, Note_on_c, 4, 65, 95
6, 241440, Note_off_c, 4, 65, 95
6, 242400, Note_on_c, 4, 59, 95
6, 242880, Note_off_c, 4, 59, 95
6, 242880, Note_on_c, 4, 67, 95
6, 243360, Note_off_c, 4, 67, 95
6, 243360, Note_on_c, 4, 65, 95
6, 244800, Note_off_c, 4, 65, 95
6, 244800, Note_on_c, 4, 67, 95
6, 245280, Note_off_c, 4, 67, 95
6, 245760, Note_on_c, 4, 67, 95
6, 247680, Note_off_c, 4, 67, 95
6, 247920, Note_on_c, 4, 67, 95
6, 248160, Note_off_c, 4, 67, 95
6, 248160, Note_on_c, 4, 76, 95
6, 248400, Note_off_c, 4, 76, 95
6, 248400, Note_on_c, 4, 71, 95
6, 248520, Pitch_bend_c, 4, 7552
6, 248640, Pitch_bend_c, 4, 6784
6, 248640, Pitch_bend_c, 4, 8192
6, 248640, Note_off_c, 4, 71, 95
6, 248640, Note_on_c, 4, 69, 95
6, 248880, Note_off_c, 4, 69, 95
6, 248880, Note_on_c, 4, 74, 95
6, 249120, Note_off_c, 4, 74, 95
6, 249120, Note_on_c, 4, 69, 95
6, 249600, Note_off_c, 4, 69, 95
6, 249600, Note_on_c, 4, 63, 95
6, 249760, Pitch_bend_c, 4, 8192
6, 249920, Pitch_bend_c, 4, 8320
6, 250080, Pitch_bend_c, 4, 8192
6, 250240, Pitch_bend_c, 4, 8320
6, 250400, Pitch_bend_c, 4, 8192
6, 250560, Pitch_bend_c, 4, 8320
6, 250720, Pitch_bend_c, 4, 8192
6, 250880, Pitch_bend_c, 4, 8320
6, 251040, Pitch_bend_c, 4, 8192
6, 251040, Pitch_bend_c, 4, 8320
6, 251040, Pitch_bend_c, 4, 8192
6, 251040, Note_off_c, 4, 63, 95
6, 251280, Note_on_c, 4, 76, 95
6, 251520, Note_off_c, 4, 76, 95
6, 251520, Note_on_c, 4, 79, 95
6, 251760, Note_off_c, 4, 79, 95
6, 251760, Pitch_bend_c, 4, 8192
6, 251760, Note_on_c, 4, 74, 47
6, 251770, Pitch_bend_c, 4, 8320
6, 251780, Pitch_bend_c, 4, 8448
6, 251790, Pitch_bend_c, 4, 8576
6, 251800, Pitch_bend_c, 4, 8704
6, 251810, Pitch_bend_c, 4, 8832
6, 251820, Pitch_bend_c, 4, 8960
6, 251830, Pitch_bend_c, 4, 9088
6, 251840, Pitch_bend_c, 4, 9216
6, 251850, Pitch_bend_c, 4, 9344
6, 251860, Pitch_bend_c, 4, 9472
6, 251870, Pitch_bend_c, 4, 9600
6, 251880, Pitch_bend_c, 4, 9600
6, 252000, Pitch_bend_c, 4, 9600
6, 252000, Pitch_bend_c, 4, 8192
6, 252000, Note_off_c, 4, 74, 47
6, 252000, Note_on_c, 4, 79, 95
6, 252240, Note_off_c, 4, 79, 95
6, 252240, Note_on_c, 4, 74, 47
6, 252480, Note_off_c, 4, 74, 47
6, 252480, Note_on_c, 4, 72, 95
6, 252720, Note_off_c, 4, 72, 95
6, 252720, Note_on_c, 4, 69, 95
6, 252960, Note_off_c, 4, 69, 95
6, 252960, Note_on_c, 4, 72, 95
6, 253200, Note_off_c, 4, 72, 95
6, 253200, Note_on_c, 4, 69, 95
6, 253440, Note_off_c, 4, 69, 95
6, 253440, Pitch_bend_c, 4, 8192
6, 253440, Note_on_c, 4, 74, 95
6, 253549, Pitch_bend_c, 4, 8320
6, 253658, Pitch_bend_c, 4, 8448
6, 253767, Pitch_bend_c, 4, 8576
6, 253876, Pitch_bend_c, 4, 8704
6, 253985, Pitch_bend_c, 4, 8832
6, 254094, Pitch_bend_c, 4, 8960
6, 254203, Pitch_bend_c, 4, 9088
6, 254312, Pitch_bend_c, 4, 9216
6, 254421, Pitch_bend_c, 4, 9344
6, 254530, Pitch_bend_c, 4, 9472
6, 254639, Pitch_bend_c, 4, 9600
6, 254640, Pitch_bend_c, 4, 9600
6, 255840, Pitch_bend_c, 4, 9600
6, 255840, Pitch_bend_c, 4, 8192
6, 255840, Note_off_c, 4, 74, 95
6, 256080, Note_on_c, 4, 74, 47
6, 256320, Note_off_c, 4, 74, 47
6, 256800, Pitch_bend_c, 4, 8192
6, 256800, Note_on_c, 4, 74, 47
6, 256805, Pitch_bend_c, 4, 8320
6, 256810, Pitch_bend_c, 4, 8448
6, 256815, Pitch_bend_c, 4, 8576
6, 256820, Pitch_bend_c, 4, 8704
6, 256825, Pitch_bend_c, 4, 8832
6, 256830, Pitch_bend_c, 4, 8960
6, 256835, Pitch_bend_c, 4, 9088
6, 256840, Pitch_bend_c, 4, 9216
6, 256845, Pitch_bend_c, 4, 9344
6, 256850, Pitch_bend_c, 4, 9472
6, 256855, Pitch_bend_c, 4, 9600
6, 256860, Pitch_bend_c, 4, 9600
6, 256920, Pitch_bend_c, 4, 9600
6, 256925, Pitch_bend_c, 4, 9472
6, 256930, Pitch_bend_c, 4, 9344
6, 256935, Pitch_bend_c, 4, 9216
6, 256940, Pitch_bend_c, 4, 9088
6, 256945, Pitch_bend_c, 4, 8960
6, 256950, Pitch_bend_c, 4, 8832
6, 256955, Pitch_bend_c, 4, 8704
6, 256960, Pitch_bend_c, 4, 8576
6, 256965, Pitch_bend_c, 4, 8448
6, 256970, Pitch_bend_c, 4, 8320
6, 256975, Pitch_bend_c, 4, 8192
6, 256980, Pitch_bend_c, 4, 8192
6, 257040, Pitch_bend_c, 4, 8192
6, 257040, Pitch_bend_c, 4, 8192
6, 257040, Note_off_c, 4, 74, 47
6, 257040, Note_on_c, 4, 74, 47
6, 257280, Note_off_c, 4, 74, 47
6, 257280, Note_on_c, 4, 72, 95
6, 257520, Note_off_c, 4, 72, 95
6, 257520, Note_on_c, 4, 74, 70
6, 257760, Note_off_c, 4, 74, 70
6, 257760, Note_on_c, 4, 72, 95
6, 258240, Note_off_c, 4, 72, 95
6, 259920, Note_on_c, 4, 72, 95
6, 260160, Note_off_c, 4, 72, 95
6, 260160, Pitch_bend_c, 4, 8192
6, 260160, Note_on_c, 4, 74, 47
6, 260165, Pitch_bend_c, 4, 8320
6, 260170, Pitch_bend_c, 4, 8448
6, 260175, Pitch_bend_c, 4, 8576
6, 260180, Pitch_bend_c, 4, 8704
6, 260185, Pitch_bend_c, 4, 8832
6, 260190, Pitch_bend_c, 4, 8960
6, 260195, Pitch_bend_c, 4, 9088
6, 260200, Pitch_bend_c, 4, 9216
6, 260205, Pitch_bend_c, 4, 9344
6, 260210, Pitch_bend_c, 4, 9472
6, 260215, Pitch_bend_c, 4, 9600
6, 260220, Pitch_bend_c, 4, 9600
6, 260280, Pitch_bend_c, 4, 9600
6, 260285, Pitch_bend_c, 4, 9472
6, 260290, Pitch_bend_c, 4, 9344
6, 260295, Pitch_bend_c, 4, 9216
6, 260300, Pitch_bend_c, 4, 9088
6, 260305, Pitch_bend_c, 4, 8960
6, 260310, Pitch_bend_c, 4, 8832
6, 260315, Pitch_bend_c, 4, 8704
6, 260320, Pitch_bend_c, 4, 8576
6, 260325, Pitch_bend_c, 4, 8448
6, 260330, Pitch_bend_c, 4, 8320
6, 260335, Pitch_bend_c, 4, 8192
6, 260340, Pitch_bend_c, 4, 8192
6, 260400, Pitch_bend_c, 4, 8192
6, 260400, Pitch_bend_c, 4, 8192
6, 260400, Note_off_c, 4, 74, 47
6, 260400, Note_on_c, 4, 74, 47
6, 260640, Note_off_c, 4, 74, 47
6, 260640, Note_on_c, 4, 72, 95
6, 260880, Note_off_c, 4, 72, 95
6, 260880, Note_on_c, 4, 69, 95
6, 261120, Note_off_c, 4, 69, 95
6, 261120, Note_on_c, 4, 72, 95
6, 261280, Pitch_bend_c, 4, 8192
6, 261440, Pitch_bend_c, 4, 8320
6, 261600, Pitch_bend_c, 4, 8192
6, 261760, Pitch_bend_c, 4, 8320
6, 261920, Pitch_bend_c, 4, 8192
6, 262080, Pitch_bend_c, 4, 8320
6, 262240, Pitch_bend_c, 4, 8192
6, 262400, Pitch_bend_c, 4, 8320
6, 262560, Pitch_bend_c, 4, 8192
6, 262720, Pitch_bend_c, 4, 8320
6, 262880, Pitch_bend_c, 4, 8192
6, 263040, Pitch_bend_c, 4, 8320
6, 263040, Pitch_bend_c, 4, 8192
6, 263040, Note_off_c, 4, 72, 95
6, 264960, Note_on_c, 4, 74, 95
6, 265080, Pitch_bend_c, 4, 9600
6, 265080, Pitch_bend_c, 4, 8192
6, 265080, Note_off_c, 4, 74, 95
6, 265080, Note_on_c, 4, 76, 95
6, 265440, Note_off_c, 4, 76, 95
6, 265440, Note_on_c, 4, 79, 95
6, 265800, Note_off_c, 4, 79, 95
6, 265800, Note_on_c, 4, 79, 95
6, 265920, Note_off_c, 4, 79, 95
6, 265920, Note_on_c, 4, 79, 95
6, 266040, Pitch_bend_c, 4, 9600
6, 266040, Pitch_bend_c, 4, 8192
6, 266040, Note_off_c, 4, 79, 95
6, 266040, Note_on_c, 4, 81, 95
6, 266280, Note_off_c, 4, 81, 95
6, 266280, Note_on_c, 4, 79, 95
6, 266520, Note_off_c, 4, 79, 95
6, 266520, Note_on_c, 4, 76, 95
6, 266760, Note_off_c, 4, 76, 95
6, 266760, Note_on_c, 4, 79, 95
6, 267000, Note_off_c, 4, 79, 95
6, 267000, Note_on_c, 4, 76, 95
6, 267120, Pitch_bend_c, 4, 7552
6, 267240, Pitch_bend_c, 4, 6784
6, 267360, Pitch_bend_c, 4, 6144
6, 267480, Pitch_bend_c, 4, 5376
6, 267480, Pitch_bend_c, 4, 8192
6, 267480, Note_off_c, 4, 76, 95
6, 267480, Note_on_c, 4, 72, 95
6, 267960, Note_off_c, 4, 72, 95
6, 267960, Note_on_c, 4, 72, 95
6, 268120, Pitch_bend_c, 4, 8192
6, 268280, Pitch_bend_c, 4, 8320
6, 268440, Pitch_bend_c, 4, 8192
6, 268440, Pitch_bend_c, 4, 8320
6, 268440, Pitch_bend_c, 4, 8192
6, 268440, Note_off_c, 4, 72, 95
6, 268440, Note_on_c, 4, 72, 47
6, 268680, Note_off_c, 4, 72, 47
6, 268680, Note_on_c, 4, 72, 47
6, 268800, Note_off_c, 4, 72, 47
6, 268800, Note_on_c, 4, 72, 95
6, 268960, Pitch_bend_c, 4, 8192
6, 269120, Pitch_bend_c, 4, 8320
6, 269280, Pitch_bend_c, 4, 8192
6, 269440, Pitch_bend_c, 4, 8320
6, 269600, Pitch_bend_c, 4, 8192
6, 269760, Pitch_bend_c, 4, 8320
6, 269760, Pitch_bend_c, 4, 8192
6, 269760, Note_off_c, 4, 72, 95
6, 271680, Pitch_bend_c, 4, 8192
6, 271680, Note_on_c, 4, 77, 95
6, 271767, Pitch_bend_c, 4, 8320
6, 271854, Pitch_bend_c, 4, 8448
6, 271941, Pitch_bend_c, 4, 8576
6, 272028, Pitch_bend_c, 4, 8704
6, 272115, Pitch_bend_c, 4, 8832
6, 272202, Pitch_bend_c, 4, 8960
6, 272289, Pitch_bend_c, 4, 9088
6, 272376, Pitch_bend_c, 4, 9216
6, 272463, Pitch_bend_c, 4, 9344
6, 272550, Pitch_bend_c, 4, 9472
6, 272637, Pitch_bend_c, 4, 9600
6, 272640, Pitch_bend_c, 4, 9600
6, 273600, Pitch_bend_c, 4, 9600
6, 273600, Pitch_bend_c, 4, 8192
6, 273600, Note_off_c, 4, 77, 95
6, 283200, Note_on_c, 4, 79, 95
6, 283680, Note_off_c, 4, 79, 95
6, 283680, Pitch_bend_c, 4, 8192
6, 283680, Note_on_c, 4, 79, 95
6, 283745, Pitch_bend_c, 4, 8320
6, 283810, Pitch_bend_c, 4, 8448
6, 283875, Pitch_bend_c, 4, 8576
6, 283940, Pitch_bend_c, 4, 8704
6, 284005, Pitch_bend_c, 4, 8832
6, 284070, Pitch_bend_c, 4, 8960
6, 284135, Pitch_bend_c, 4, 9088
6, 284200, Pitch_bend_c, 4, 9216
6, 284265, Pitch_bend_c, 4, 9344
6, 284330, Pitch_bend_c, 4, 9472
6, 284395, Pitch_bend_c, 4, 9600
6, 284400, Pitch_bend_c, 4, 9600
6, 285120, Pitch_bend_c, 4, 9600
6, 285120, Pitch_bend_c, 4, 8192
6, 285120, Note_off_c, 4, 79, 95
6, 288480, Pitch_bend_c, 4, 8192
6, 288480, Note_on_c, 4, 84, 95
6, 288501, Pitch_bend_c, 4, 8320
6, 288522, Pitch_bend_c, 4, 8448
6, 288543, Pitch_bend_c, 4, 8576
6, 288564, Pitch_bend_c, 4, 8704
6, 288585, Pitch_bend_c, 4, 8832
6, 288606, Pitch_bend_c, 4, 8960
6, 288627, Pitch_bend_c, 4, 9088
6, 288648, Pitch_bend_c, 4, 9216
6, 288669, Pitch_bend_c, 4, 9344
6, 288690, Pitch_bend_c, 4, 9472
6, 288711, Pitch_bend_c, 4, 9600
6, 288720, Pitch_bend_c, 4, 9600
6, 288960, Pitch_bend_c, 4, 9600
6, 288960, Pitch_bend_c, 4, 8192
6, 288960, Note_off_c, 4, 84, 95
6, 288960, Pitch_bend_c, 4, 8192
6, 288960, Note_on_c, 4, 84, 47
6, 288981, Pitch_bend_c, 4, 8320
6, 289002, Pitch_bend_c, 4, 8448
6, 289023, Pitch_bend_c, 4, 8576
6, 289044, Pitch_bend_c, 4, 8704
6, 289065, Pitch_bend_c, 4, 8832
6, 289086, Pitch_bend_c, 4, 8960
6, 289107, Pitch_bend_c, 4, 9088
6, 289128, Pitch_bend_c, 4, 9216
6, 289149, Pitch_bend_c, 4, 9344
6, 289170, Pitch_bend_c, 4, 9472
6, 289191, Pitch_bend_c, 4, 9600
6, 289200, Pitch_bend_c, 4, 9600
6, 289440, Pitch_bend_c, 4, 9600
6, 289440, Pitch_bend_c, 4, 8192
6, 289440, Note_off_c, 4, 84, 47
6, 289440, Note_on_c, 4, 84, 95
6, 289920, Note_off_c, 4, 84, 95
6, 289920, Note_on_c, 4, 81, 95
6, 290160, Note_off_c, 4, 81, 95
6, 290160, Note_on_c, 4, 84, 70
6, 290400, Note_off_c, 4, 84, 70
6, 290400, Note_on_c, 4, 81, 95
6, 290880, Note_off_c, 4, 81, 95
6, 290880, Note_on_c, 4, 79, 95
6, 291360, Note_off_c, 4, 79, 95
6, 291360, Pitch_bend_c, 4, 8192
6, 291360, Note_on_c, 4, 79, 95
6, 291469, Pitch_bend_c, 4, 8320
6, 291578, Pitch_bend_c, 4, 8448
6, 291687, Pitch_bend_c, 4, 8576
6, 291796, Pitch_bend_c, 4, 8704
6, 291905, Pitch_bend_c, 4, 8832
6, 292014, Pitch_bend_c, 4, 8960
6, 292123, Pitch_bend_c, 4, 9088
6, 292232, Pitch_bend_c, 4, 9216
6, 292341, Pitch_bend_c, 4, 9344
6, 292450, Pitch_bend_c, 4, 9472
6, 292559, Pitch_bend_c, 4, 9600
6, 292560, Pitch_bend_c, 4, 9600
6, 293760, Pitch_bend_c, 4, 9600
6, 293760, Pitch_bend_c, 4, 8192
6, 293760, Note_off_c, 4, 79, 95
6, 294720, Pitch_bend_c, 4, 8192
6, 294720, Note_on_c, 4, 79, 47
6, 294725, Pitch_bend_c, 4, 8320
6, 294730, Pitch_bend_c, 4, 8448
6, 294735, Pitch_bend_c, 4, 8576
6, 294740, Pitch_bend_c, 4, 8704
6, 294745, Pitch_bend_c, 4, 8832
6, 294750, Pitch_bend_c, 4, 8960
6, 294755, Pitch_bend_c, 4, 9088
6, 294760, Pitch_bend_c, 4, 9216
6, 294765, Pitch_bend_c, 4, 9344
6, 294770, Pitch_bend_c, 4, 9472
6, 294775, Pitch_bend_c, 4, 9600
6, 294780, Pitch_bend_c, 4, 9600
6, 294840, Pitch_bend_c, 4, 9600
6, 294845, Pitch_bend_c, 4, 9472
6, 294850, Pitch_bend_c, 4, 9344
6, 294855, Pitch_bend_c, 4, 9216
6, 294860, Pitch_bend_c, 4, 9088
6, 294865, Pitch_bend_c, 4, 8960
6, 294870, Pitch_bend_c, 4, 8832
6, 294875, Pitch_bend_c, 4, 8704
6, 294880, Pitch_bend_c, 4, 8576
6, 294885, Pitch_bend_c, 4, 8448
6, 294890, Pitch_bend_c, 4, 8320
6, 294895, Pitch_bend_c, 4, 8192
6, 294900, Pitch_bend_c, 4, 8192
6, 294960, Pitch_bend_c, 4, 8192
6, 294960, Pitch_bend_c, 4, 8192
6, 294960, Note_off_c, 4, 79, 47
6, 294960, Note_on_c, 4, 79, 47
6, 295200, Note_off_c, 4, 79, 47
6, 295200, Note_on_c, 4, 76, 95
6, 295680, Note_off_c, 4, 76, 95
6, 295680, Pitch_bend_c, 4, 8192
6, 295680, Note_on_c, 4, 74, 95
6, 295701, Pitch_bend_c, 4, 8320
6, 295722, Pitch_bend_c, 4, 8448
6, 295743, Pitch_bend_c, 4, 8576
6, 295764, Pitch_bend_c, 4, 8704
6, 295785, Pitch_bend_c, 4, 8832
6, 295806, Pitch_bend_c, 4, 8960
6, 295827, Pitch_bend_c, 4, 9088
6, 295848, Pitch_bend_c, 4, 9216
6, 295869, Pitch_bend_c, 4, 9344
6, 295890, Pitch_bend_c, 4, 9472
6, 295911, Pitch_bend_c, 4, 9600
6, 295920, Pitch_bend_c, 4, 9600
6, 296160, Pitch_bend_c, 4, 9600
6, 296160, Pitch_bend_c, 4, 8192
6, 296160, Note_off_c, 4, 74, 95
6, 296160, Pitch_bend_c, 4, 8192
6, 296160, Note_on_c, 4, 74, 95
6, 296181, Pitch_bend_c, 4, 8320
6, 296202, Pitch_bend_c, 4, 8448
6, 296223, Pitch_bend_c, 4, 8576
6, 296244, Pitch_bend_c, 4, 8704
6, 296265, Pitch_bend_c, 4, 8832
6, 296286, Pitch_bend_c, 4, 8960
6, 296307, Pitch_bend_c, 4, 9088
6, 296328, Pitch_bend_c, 4, 9216
6, 296349, Pitch_bend_c, 4, 9344
6, 296370, Pitch_bend_c, 4, 9472
6, 296391, Pitch_bend_c, 4, 9600
6, 296400, Pitch_bend_c, 4, 9600
6, 296640, Pitch_bend_c, 4, 9600
6, 296640, Pitch_bend_c, 4, 8192
6, 296640, Note_off_c, 4, 74, 95
6, 296640, Pitch_bend_c, 4, 8192
6, 296640, Note_on_c, 4, 74, 95
6, 296654, Pitch_bend_c, 4, 8320
6, 296668, Pitch_bend_c, 4, 8448
6, 296682, Pitch_bend_c, 4, 8576
6, 296696, Pitch_bend_c, 4, 8704
6, 296710, Pitch_bend_c, 4, 8832
6, 296724, Pitch_bend_c, 4, 8960
6, 296738, Pitch_bend_c, 4, 9088
6, 296752, Pitch_bend_c, 4, 9216
6, 296766, Pitch_bend_c, 4, 9344
6, 296780, Pitch_bend_c, 4, 9472
6, 296794, Pitch_bend_c, 4, 9600
6, 296800, Pitch_bend_c, 4, 9600
6, 296960, Pitch_bend_c, 4, 9600
6, 296960, Pitch_bend_c, 4, 8192
6, 296960, Note_off_c, 4, 74, 95
6, 296960, Note_on_c, 4, 74, 47
6, 297120, Note_off_c, 4, 74, 47
6, 297120, Note_on_c, 4, 72, 95
6, 297600, Note_off_c, 4, 72, 95
6, 297600, Note_on_c, 4, 72, 95
6, 297840, Note_off_c, 4, 72, 95
6, 297840, Pitch_bend_c, 4, 8192
6, 297840, Note_on_c, 4, 74, 95
6, 297861, Pitch_bend_c, 4, 8320
6, 297882, Pitch_bend_c, 4, 8448
6, 297903, Pitch_bend_c, 4, 8576
6, 297924, Pitch_bend_c, 4, 8704
6, 297945, Pitch_bend_c, 4, 8832
6, 297966, Pitch_bend_c, 4, 8960
6, 297987, Pitch_bend_c, 4, 9088
6, 298008, Pitch_bend_c, 4, 9216
6, 298029, Pitch_bend_c, 4, 9344
6, 298050, Pitch_bend_c, 4, 9472
6, 298071, Pitch_bend_c, 4, 9600
6, 298080, Pitch_bend_c, 4, 9600
6, 298320, Pitch_bend_c, 4, 9600
6, 298320, Pitch_bend_c, 4, 8192
6, 298320, Note_off_c, 4, 74, 95
6, 298320, Note_on_c, 4, 79, 95
6, 298560, Note_off_c, 4, 79, 95
6, 298560, Pitch_bend_c, 4, 8192
6, 298560, Note_on_c, 4, 74, 47
6, 298565, Pitch_bend_c, 4, 8320
6, 298570, Pitch_bend_c, 4, 8448
6, 298575, Pitch_bend_c, 4, 8576
6, 298580, Pitch_bend_c, 4, 8704
6, 298585, Pitch_bend_c, 4, 8832
6, 298590, Pitch_bend_c, 4, 8960
6, 298595, Pitch_bend_c, 4, 9088
6, 298600, Pitch_bend_c, 4, 9216
6, 298605, Pitch_bend_c, 4, 9344
6, 298610, Pitch_bend_c, 4, 9472
6, 298615, Pitch_bend_c, 4, 9600
6, 298620, Pitch_bend_c, 4, 9600
6, 298680, Pitch_bend_c, 4, 9600
6, 298685, Pitch_bend_c, 4, 9472
6, 298690, Pitch_bend_c, 4, 9344
6, 298695, Pitch_bend_c, 4, 9216
6, 298700, Pitch_bend_c, 4, 9088
6, 298705, Pitch_bend_c, 4, 8960
6, 298710, Pitch_bend_c, 4, 8832
6, 298715, Pitch_bend_c, 4, 8704
6, 298720, Pitch_bend_c, 4, 8576
6, 298725, Pitch_bend_c, 4, 8448
6, 298730, Pitch_bend_c, 4, 8320
6, 298735, Pitch_bend_c, 4, 8192
6, 298740, Pitch_bend_c, 4, 8192
6, 298800, Pitch_bend_c, 4, 8192
6, 298800, Pitch_bend_c, 4, 8192
6, 298800, Note_off_c, 4, 74, 47
6, 298800, Note_on_c, 4, 74, 47
6, 299040, Note_off_c, 4, 74, 47
6, 299040, Note_on_c, 4, 72, 95
6, 299280, Note_off_c, 4, 72, 95
6, 299280, Note_on_c, 4, 69, 95
6, 299520, Note_off_c, 4, 69, 95
6, 299520, Note_on_c, 4, 72, 95
6, 299680, Pitch_bend_c, 4, 8192
6, 299840, Pitch_bend_c, 4, 8320
6, 300000, Pitch_bend_c, 4, 8192
6, 300160, Pitch_bend_c, 4, 8320
6, 300320, Pitch_bend_c, 4, 8192
6, 300480, Pitch_bend_c, 4, 8320
6, 300640, Pitch_bend_c, 4, 8192
6, 300800, Pitch_bend_c, 4, 8320
6, 300960, Pitch_bend_c, 4, 8192
6, 301120, Pitch_bend_c, 4, 8320
6, 301280, Pitch_bend_c, 4, 8192
6, 301440, Pitch_bend_c, 4, 8320
6, 301440, Pitch_bend_c, 4, 8192
6, 301440, Note_off_c, 4, 72, 95
6, 302400, Pitch_bend_c, 4, 8192
6, 302400, Note_on_c, 4, 71, 47
6, 302408, Pitch_bend_c, 4, 8320
6, 302416, Pitch_bend_c, 4, 8448
6, 302424, Pitch_bend_c, 4, 8576
6, 302432, Pitch_bend_c, 4, 8704
6, 302440, Pitch_bend_c, 4, 8832
6, 302440, Pitch_bend_c, 4, 8832
6, 302480, Pitch_bend_c, 4, 8832
6, 302488, Pitch_bend_c, 4, 8704
6, 302496, Pitch_bend_c, 4, 8576
6, 302504, Pitch_bend_c, 4, 8448
6, 302512, Pitch_bend_c, 4, 8320
6, 302520, Pitch_bend_c, 4, 8192
6, 302520, Pitch_bend_c, 4, 8192
6, 302560, Pitch_bend_c, 4, 8192
6, 302568, Pitch_bend_c, 4, 8320
6, 302576, Pitch_bend_c, 4, 8448
6, 302584, Pitch_bend_c, 4, 8576
6, 302592, Pitch_bend_c, 4, 8704
6, 302600, Pitch_bend_c, 4, 8832
6, 302600, Pitch_bend_c, 4, 8832
6, 302640, Pitch_bend_c, 4, 8832
6, 302640, Pitch_bend_c, 4, 8192
6, 302640, Note_off_c, 4, 71, 47
6, 302640, Note_on_c, 4, 71, 47
6, 303360, Note_off_c, 4, 71, 47
6, 303360, Pitch_bend_c, 4, 8192
6, 303360, Note_on_c, 4, 74, 95
6, 303381, Pitch_bend_c, 4, 8320
6, 303402, Pitch_bend_c, 4, 8448
6, 303423, Pitch_bend_c, 4, 8576
6, 303444, Pitch_bend_c, 4, 8704
6, 303465, Pitch_bend_c, 4, 8832
6, 303486, Pitch_bend_c, 4, 8960
6, 303507, Pitch_bend_c, 4, 9088
6, 303528, Pitch_bend_c, 4, 9216
6, 303549, Pitch_bend_c, 4, 9344
6, 303570, Pitch_bend_c, 4, 9472
6, 303591, Pitch_bend_c, 4, 9600
6, 303600, Pitch_bend_c, 4, 9600
6, 303840, Pitch_bend_c, 4, 9600
6, 303840, Pitch_bend_c, 4, 8192
6, 303840, Note_off_c, 4, 74, 95
6, 303840, Note_on_c, 4, 79, 95
6, 304080, Note_off_c, 4, 79, 95
6, 304080, Note_on_c, 4, 84, 95
6, 304320, Note_off_c, 4, 84, 95
6, 304320, Pitch_bend_c, 4, 8192
6, 304320, Note_on_c, 4, 74, 47
6, 304325, Pitch_bend_c, 4, 8320
6, 304330, Pitch_bend_c, 4, 8448
6, 304335, Pitch_bend_c, 4, 8576
6, 304340, Pitch_bend_c, 4, 8704
6, 304345, Pitch_bend_c, 4, 8832
6, 304350, Pitch_bend_c, 4, 8960
6, 304355, Pitch_bend_c, 4, 9088
6, 304360, Pitch_bend_c, 4, 9216
6, 304365, Pitch_bend_c, 4, 9344
6, 304370, Pitch_bend_c, 4, 9472
6, 304375, Pitch_bend_c, 4, 9600
6, 304380, Pitch_bend_c, 4, 9600
6, 304440, Pitch_bend_c, 4, 9600
6, 304445, Pitch_bend_c, 4, 9472
6, 304450, Pitch_bend_c, 4, 9344
6, 304455, Pitch_bend_c, 4, 9216
6, 304460, Pitch_bend_c, 4, 9088
6, 304465, Pitch_bend_c, 4, 8960
6, 304470, Pitch_bend_c, 4, 8832
6, 304475, Pitch_bend_c, 4, 8704
6, 304480, Pitch_bend_c, 4, 8576
6, 304485, Pitch_bend_c, 4, 8448
6, 304490, Pitch_bend_c, 4, 8320
6, 304495, Pitch_bend_c, 4, 8192
6, 304500, Pitch_bend_c, 4, 8192
6, 304560, Pitch_bend_c, 4, 8192
6, 304560, Pitch_bend_c, 4, 8192
6, 304560, Note_off_c, 4, 74, 47
6, 304560, Note_on_c, 4, 74, 47
6, 304800, Note_off_c, 4, 74, 47
6, 304800, Note_on_c, 4, 72, 95
6, 305040, Note_off_c, 4, 72, 95
6, 305040, Note_on_c, 4, 69, 95
6, 305280, Note_off_c, 4, 69, 95
6, 305280, Pitch_bend_c, 4, 8192
6, 305280, Note_on_c, 4, 74, 95
6, 305287, Pitch_bend_c, 4, 8320
6, 305294, Pitch_bend_c, 4, 8448
6, 305301, Pitch_bend_c, 4, 8576
6, 305308, Pitch_bend_c, 4, 8704
6, 305315, Pitch_bend_c, 4, 8832
6, 305322, Pitch_bend_c, 4, 8960
6, 305329, Pitch_bend_c, 4, 9088
6, 305336, Pitch_bend_c, 4, 9216
6, 305343, Pitch_bend_c, 4, 9344
6, 305350, Pitch_bend_c, 4, 9472
6, 305357, Pitch_bend_c, 4, 9600
6, 305360, Pitch_bend_c, 4, 9600
6, 305440, Pitch_bend_c, 4, 9600
6, 305447, Pitch_bend_c, 4, 9472
6, 305454, Pitch_bend_c, 4, 9344
6, 305461, Pitch_bend_c, 4, 9216
6, 305468, Pitch_bend_c, 4, 9088
6, 305475, Pitch_bend_c, 4, 8960
6, 305482, Pitch_bend_c, 4, 8832
6, 305489, Pitch_bend_c, 4, 8704
6, 305496, Pitch_bend_c, 4, 8576
6, 305503, Pitch_bend_c, 4, 8448
6, 305510, Pitch_bend_c, 4, 8320
6, 305517, Pitch_bend_c, 4, 8192
6, 305520, Pitch_bend_c, 4, 8192
6, 305600, Pitch_bend_c, 4, 8192
6, 305600, Pitch_bend_c, 4, 8192
6, 305600, Note_off_c, 4, 74, 95
6, 305600, Note_on_c, 4, 74, 47
6, 305760, Note_off_c, 4, 74, 47
6, 305760, Note_on_c, 4, 72, 95
6, 306240, Note_off_c, 4, 72, 95
6, 306240, Pitch_bend_c, 4, 8192
6, 306240, Note_on_c, 4, 74, 95
6, 306247, Pitch_bend_c, 4, 8320
6, 306254, Pitch_bend_c, 4, 8448
6, 306261, Pitch_bend_c, 4, 8576
6, 306268, Pitch_bend_c, 4, 8704
6, 306275, Pitch_bend_c, 4, 8832
6, 306282, Pitch_bend_c, 4, 8960
6, 306289, Pitch_bend_c, 4, 9088
6, 306296, Pitch_bend_c, 4, 9216
6, 306303, Pitch_bend_c, 4, 9344
6, 306310, Pitch_bend_c, 4, 9472
6, 306317, Pitch_bend_c, 4, 9600
6, 306320, Pitch_bend_c, 4, 9600
6, 306400, Pitch_bend_c, 4, 9600
6, 306407, Pitch_bend_c, 4, 9472
6, 306414, Pitch_bend_c, 4, 9344
6, 306421, Pitch_bend_c, 4, 9216
6, 306428, Pitch_bend_c, 4, 9088
6, 306435, Pitch_bend_c, 4, 8960
6, 306442, Pitch_bend_c, 4, 8832
6, 306449, Pitch_bend_c, 4, 8704
6, 306456, Pitch_bend_c, 4, 8576
6, 306463, Pitch_bend_c, 4, 8448
6, 306470, Pitch_bend_c, 4, 8320
6, 306477, Pitch_bend_c, 4, 8192
6, 306480, Pitch_bend_c, 4, 8192
6, 306560, Pitch_bend_c, 4, 8192
6, 306560, Pitch_bend_c, 4, 8192
6, 306560, Note_off_c, 4, 74, 95
6, 306560, Note_on_c, 4, 74, 47
6, 306720, Note_off_c, 4, 74, 47
6, 306720, Note_on_c, 4, 67, 95
6, 306960, Note_off_c, 4, 67, 95
6, 306960, Note_on_c, 4, 69, 95
6, 307200, Note_off_c, 4, 69, 95
6, 307200, Note_on_c, 4, 67, 95
6, 307440, Note_off_c, 4, 67, 95
6, 307440, Note_on_c, 4, 69, 70
6, 309120, Note_off_c, 4, 69, 70
6, 311040, Note_on_c, 4, 65, 95
6, 311160, Pitch_bend_c, 4, 8832
6, 311280, Pitch_bend_c, 4, 9600
6, 311280, Pitch_bend_c, 4, 8192
6, 311280, Note_off_c, 4, 65, 95
6, 311280, Note_on_c, 4, 67, 95
6, 312960, Note_off_c, 4, 67, 95
6, 312960, Note_on_c, 4, 69, 47
6, 313440, Note_off_c, 4, 69, 47
6, 313440, Note_on_c, 4, 72, 95
6, 313920, Note_off_c, 4, 72, 95
6, 313920, Note_on_c, 4, 72, 95
6, 314400, Note_off_c, 4, 72, 95
6, 314400, Note_on_c, 4, 69, 47
6, 314880, Note_off_c, 4, 69, 47
6, 314880, Pitch_bend_c, 4, 8192
6, 314880, Note_on_c, 4, 74, 95
6, 314967, Pitch_bend_c, 4, 8320
6, 315054, Pitch_bend_c, 4, 8448
6, 315141, Pitch_bend_c, 4, 8576
6, 315228, Pitch_bend_c, 4, 8704
6, 315315, Pitch_bend_c, 4, 8832
6, 315402, Pitch_bend_c, 4, 8960
6, 315489, Pitch_bend_c, 4, 9088
6, 315576, Pitch_bend_c, 4, 9216
6, 315663, Pitch_bend_c, 4, 9344
6, 315750, Pitch_bend_c, 4, 9472
6, 315837, Pitch_bend_c, 4, 9600
6, 315840, Pitch_bend_c, 4, 9600
6, 316800, Pitch_bend_c, 4, 9600
6, 316800, Pitch_bend_c, 4, 8192
6, 316800, Note_off_c, 4, 74, 95
6, 317040, Note_on_c, 4, 72, 95
6, 317280, Note_off_c, 4, 72, 95
6, 317280, Note_on_c, 4, 72, 95
6, 317520, Note_off_c, 4, 72, 95
6, 317520, Note_on_c, 4, 69, 95
6, 317760, Note_off_c, 4, 69, 95
6, 317760, Note_on_c, 4, 72, 95
6, 318000, Note_off_c, 4, 72, 95
6, 318000, Note_on_c, 4, 69, 95
6, 318240, Note_off_c, 4, 69, 95
6, 318240, Note_on_c, 4, 72, 95
6, 318480, Note_off_c, 4, 72, 95
6, 318480, Note_on_c, 4, 69, 95
6, 318720, Note_off_c, 4, 69, 95
6, 318720, Note_on_c, 4, 72, 95
6, 319200, Note_off_c, 4, 72, 95
6, 319200, Note_on_c, 4, 69, 95
6, 319360, Pitch_bend_c, 4, 8192
6, 319520, Pitch_bend_c, 4, 8320
6, 319680, Pitch_bend_c, 4, 8192
6, 319840, Pitch_bend_c, 4, 8320
6, 320000, Pitch_bend_c, 4, 8192
6, 320160, Pitch_bend_c, 4, 8320
6, 320160, Pitch_bend_c, 4, 8192
6, 320160, Note_off_c, 4, 69, 95
6, 321600, Note_on_c, 4, 72, 95
6, 322080, Note_off_c, 4, 72, 95
6, 322080, Note_on_c, 4, 69, 95
6, 322560, Note_off_c, 4, 69, 95
6, 322560, Note_on_c, 4, 70, 95
6, 322720, Pitch_bend_c, 4, 8192
6, 322880, Pitch_bend_c, 4, 8320
6, 323040, Pitch_bend_c, 4, 8192
6, 323200, Pitch_bend_c, 4, 8320
6, 323360, Pitch_bend_c, 4, 8192
6, 323520, Pitch_bend_c, 4, 8320
6, 323520, Pitch_bend_c, 4, 8192
6, 323520, Note_off_c, 4, 70, 95
6, 323520, Note_on_c, 4, 70, 95
6, 323680, Pitch_bend_c, 4, 8192
6, 323840, Pitch_bend_c, 4, 8320
6, 324000, Pitch_bend_c, 4, 8192
6, 324160, Pitch_bend_c, 4, 8320
6, 324320, Pitch_bend_c, 4, 8192
6, 324480, Pitch_bend_c, 4, 8320
6, 324480, Pitch_bend_c, 4, 8192
6, 324480, Note_off_c, 4, 70, 95
6, 324480, Pitch_bend_c, 4, 8192
6, 324480, Note_on_c, 4, 65, 47
6, 324485, Pitch_bend_c, 4, 8320
6, 324490, Pitch_bend_c, 4, 8448
6, 324495, Pitch_bend_c, 4, 8576
6, 324500, Pitch_bend_c, 4, 8704
6, 324505, Pitch_bend_c, 4, 8832
6, 324510, Pitch_bend_c, 4, 8960
6, 324515, Pitch_bend_c, 4, 9088
6, 324520, Pitch_bend_c, 4, 9216
6, 324525, Pitch_bend_c, 4, 9344
6, 324530, Pitch_bend_c, 4, 9472
6, 324535, Pitch_bend_c, 4, 9600
6, 324540, Pitch_bend_c, 4, 9600
6, 324600, Pitch_bend_c, 4, 9600
6, 324605, Pitch_bend_c, 4, 9472
6, 324610, Pitch_bend_c, 4, 9344
6, 324615, Pitch_bend_c, 4, 9216
6, 324620, Pitch_bend_c, 4, 9088
6, 324625, Pitch_bend_c, 4, 8960
6, 324630, Pitch_bend_c, 4, 8832
6, 324635, Pitch_bend_c, 4, 8704
6, 324640, Pitch_bend_c, 4, 8576
6, 324645, Pitch_bend_c, 4, 8448
6, 324650, Pitch_bend_c, 4, 8320
6, 324655, Pitch_bend_c, 4, 8192
6, 324660, Pitch_bend_c, 4, 8192
6, 324720, Pitch_bend_c, 4, 8192
6, 324720, Pitch_bend_c, 4, 8192
6, 324720, Note_off_c, 4, 65, 47
6, 324720, Note_on_c, 4, 65, 47
6, 325440, Note_off_c, 4, 65, 47
6, 325440, Note_on_c, 4, 63, 95
6, 325680, Note_off_c, 4, 63, 95
6, 325680, Note_on_c, 4, 60, 95
6, 325920, Note_off_c, 4, 60, 95
6, 325920, Note_on_c, 4, 58, 95
6, 326160, Note_off_c, 4, 58, 95
6, 326160, Note_on_c, 4, 57, 95
6, 326400, Note_off_c, 4, 57, 95
6, 326400, End_track
7, 0, Start_track
7, 0, Pitch_bend_c, 5, 8192
7, 0, Control_c, 5, 7, 95
7, 0, Control_c, 5, 10, 63
7, 0, Control_c, 5, 93, 87
7, 0, Control_c, 5, 91, 87
7, 0, Control_c, 5, 95, 0
7, 0, Control_c, 5, 92, 0
7, 0, Control_c, 5, 11, 127
7, 0, Program_c, 5, 29
7, 153600, Note_on_c, 5, 43, 95
7, 154080, Note_off_c, 5, 43, 95
7, 154080, Note_on_c, 5, 45, 70
7, 154560, Note_off_c, 5, 45, 70
7, 154560, Note_on_c, 5, 45, 95
7, 155040, Note_off_c, 5, 45, 95
7, 155040, Note_on_c, 5, 48, 95
7, 155520, Note_off_c, 5, 48, 95
7, 155520, Note_on_c, 5, 50, 70
7, 156000, Note_off_c, 5, 50, 70
7, 156000, Note_on_c, 5, 50, 95
7, 156480, Note_off_c, 5, 50, 95
7, 156480, Note_on_c, 5, 50, 95
7, 156960, Note_off_c, 5, 50, 95
7, 156960, Note_on_c, 5, 52, 70
7, 157440, Note_off_c, 5, 52, 70
7, 157440, Note_on_c, 5, 52, 95
7, 157920, Note_off_c, 5, 52, 95
7, 157920, Note_on_c, 5, 55, 95
7, 158400, Note_off_c, 5, 55, 95
7, 158400, Note_on_c, 5, 57, 70
7, 158560, Pitch_bend_c, 5, 8192
7, 158720, Pitch_bend_c, 5, 8320
7, 158880, Pitch_bend_c, 5, 8192
7, 159040, Pitch_bend_c, 5, 8320
7, 159200, Pitch_bend_c, 5, 8192
7, 159360, Pitch_bend_c, 5, 8320
7, 159360, Pitch_bend_c, 5, 8192
7, 159360, Note_off_c, 5, 57, 70
7, 159360, Note_on_c, 5, 60, 95
7, 159520, Pitch_bend_c, 5, 8192
7, 159680, Pitch_bend_c, 5, 8320
7, 159840, Pitch_bend_c, 5, 8192
7, 160000, Pitch_bend_c, 5, 8320
7, 160160, Pitch_bend_c, 5, 8192
7, 160320, Pitch_bend_c, 5, 8320
7, 160320, Pitch_bend_c, 5, 8192
7, 160320, Note_off_c, 5, 60, 95
7, 160320, Note_on_c, 5, 57, 95
7, 161280, Note_off_c, 5, 57, 95
7, 161280, Note_on_c, 5, 43, 95
7, 161760, Note_off_c, 5, 43, 95
7, 161760, Note_on_c, 5, 45, 70
7, 162240, Note_off_c, 5, 45, 70
7, 162240, Note_on_c, 5, 45, 95
7, 162720, Note_off_c, 5, 45, 95
7, 162720, Note_on_c, 5, 48, 95
7, 163200, Note_off_c, 5, 48, 95
7, 163200, Note_on_c, 5, 50, 70
7, 163680, Note_off_c, 5, 50, 70
7, 163680, Note_on_c, 5, 50, 95
7, 164160, Note_off_c, 5, 50, 95
7, 164160, Note_on_c, 5, 50, 95
7, 164640, Note_off_c, 5, 50, 95
7, 164640, Note_on_c, 5, 52, 70
7, 165120, Note_off_c, 5, 52, 70
7, 165120, Note_on_c, 5, 52, 95
7, 165600, Note_off_c, 5, 52, 95
7, 165600, Note_on_c, 5, 55, 95
7, 166080, Note_off_c, 5, 55, 95
7, 166080, Note_on_c, 5, 57, 70
7, 166240, Pitch_bend_c, 5, 8192
7, 166400, Pitch_bend_c, 5, 8320
7, 166560, Pitch_bend_c, 5, 8192
7, 166720, Pitch_bend_c, 5, 8320
7, 166880, Pitch_bend_c, 5, 8192
7, 167040, Pitch_bend_c, 5, 8320
7, 167040, Pitch_bend_c, 5, 8192
7, 167040, Note_off_c, 5, 57, 70
7, 167040, Note_on_c, 5, 60, 95
7, 167520, Note_off_c, 5, 60, 95
7, 167520, Note_on_c, 5, 62, 70
7, 168000, Note_off_c, 5, 62, 70
7, 168000, Note_on_c, 5, 62, 95
7, 168120, Pitch_bend_c, 5, 8448
7, 168240, Pitch_bend_c, 5, 8832
7, 168360, Pitch_bend_c, 5, 9216
7, 168480, Pitch_bend_c, 5, 9600
7, 168480, Pitch_bend_c, 5, 8192
7, 168480, Note_off_c, 5, 62, 95
7, 168480, Note_on_c, 5, 64, 95
7, 168960, Note_off_c, 5, 64, 95
7, 168960, Note_on_c, 5, 69, 95
7, 169120, Pitch_bend_c, 5, 8192
7, 169280, Pitch_bend_c, 5, 8320
7, 169440, Pitch_bend_c, 5, 8192
7, 169600, Pitch_bend_c, 5, 8320
7, 169760, Pitch_bend_c, 5, 8192
7, 169920, Pitch_bend_c, 5, 8320
7, 170080, Pitch_bend_c, 5, 8192
7, 170240, Pitch_bend_c, 5, 8320
7, 170400, Pitch_bend_c, 5, 8192
7, 170560, Pitch_bend_c, 5, 8320
7, 170720, Pitch_bend_c, 5, 8192
7, 170880, Pitch_bend_c, 5, 8320
7, 171040, Pitch_bend_c, 5, 8192
7, 171200, Pitch_bend_c, 5, 8320
7, 171360, Pitch_bend_c, 5, 8192
7, 171520, Pitch_bend_c, 5, 8320
7, 171680, Pitch_bend_c, 5, 8192
7, 171840, Pitch_bend_c, 5, 8320
7, 171840, Pitch_bend_c, 5, 8192
7, 171840, Note_off_c, 5, 69, 95
7, 171840, Note_on_c, 5, 69, 47
7, 172800, Note_off_c, 5, 69, 47
7, 173760, Note_on_c, 5, 79, 95
7, 174000, Note_off_c, 5, 79, 95
7, 174000, Pitch_bend_c, 5, 8192
7, 174000, Note_on_c, 5, 74, 47
7, 174005, Pitch_bend_c, 5, 8320
7, 174010, Pitch_bend_c, 5, 8448
7, 174015, Pitch_bend_c, 5, 8576
7, 174020, Pitch_bend_c, 5, 8704
7, 174025, Pitch_bend_c, 5, 8832
7, 174030, Pitch_bend_c, 5, 8960
7, 174035, Pitch_bend_c, 5, 9088
7, 174040, Pitch_bend_c, 5, 9216
7, 174045, Pitch_bend_c, 5, 9344
7, 174050, Pitch_bend_c, 5, 9472
7, 174055, Pitch_bend_c, 5, 9600
7, 174060, Pitch_bend_c, 5, 9600
7, 174120, Pitch_bend_c, 5, 9600
7, 174125, Pitch_bend_c, 5, 9472
7, 174130, Pitch_bend_c, 5, 9344
7, 174135, Pitch_bend_c, 5, 9216
7, 174140, Pitch_bend_c, 5, 9088
7, 174145, Pitch_bend_c, 5, 8960
7, 174150, Pitch_bend_c, 5, 8832
7, 174155, Pitch_bend_c, 5, 8704
7, 174160, Pitch_bend_c, 5, 8576
7, 174165, Pitch_bend_c, 5, 8448
7, 174170, Pitch_bend_c, 5, 8320
7, 174175, Pitch_bend_c, 5, 8192
7, 174180, Pitch_bend_c, 5, 8192
7, 174240, Pitch_bend_c, 5, 8192
7, 174240, Pitch_bend_c, 5, 8192
7, 174240, Note_off_c, 5, 74, 47
7, 174240, Note_on_c, 5, 74, 47
7, 174480, Note_off_c, 5, 74, 47
7, 174480, Note_on_c, 5, 79, 95
7, 174720, Note_off_c, 5, 79, 95
7, 174720, Pitch_bend_c, 5, 8192
7, 174720, Note_on_c, 5, 74, 47
7, 174725, Pitch_bend_c, 5, 8320
7, 174730, Pitch_bend_c, 5, 8448
7, 174735, Pitch_bend_c, 5, 8576
7, 174740, Pitch_bend_c, 5, 8704
7, 174745, Pitch_bend_c, 5, 8832
7, 174750, Pitch_bend_c, 5, 8960
7, 174755, Pitch_bend_c, 5, 9088
7, 174760, Pitch_bend_c, 5, 9216
7, 174765, Pitch_bend_c, 5, 9344
7, 174770, Pitch_bend_c, 5, 9472
7, 174775, Pitch_bend_c, 5, 9600
7, 174780, Pitch_bend_c, 5, 9600
7, 174840, Pitch_bend_c, 5, 9600
7, 174845, Pitch_bend_c, 5, 9472
7, 174850, Pitch_bend_c, 5, 9344
7, 174855, Pitch_bend_c, 5, 9216
7, 174860, Pitch_bend_c, 5, 9088
7, 174865, Pitch_bend_c, 5, 8960
7, 174870, Pitch_bend_c, 5, 8832
7, 174875, Pitch_bend_c, 5, 8704
7, 174880, Pitch_bend_c, 5, 8576
7, 174885, Pitch_bend_c, 5, 8448
7, 174890, Pitch_bend_c, 5, 8320
7, 174895, Pitch_bend_c, 5, 8192
7, 174900, Pitch_bend_c, 5, 8192
7, 174960, Pitch_bend_c, 5, 8192
7, 174960, Pitch_bend_c, 5, 8192
7, 174960, Note_off_c, 5, 74, 47
7, 174960, Note_on_c, 5, 74, 47
7, 175200, Note_off_c, 5, 74, 47
7, 175200, Note_on_c, 5, 79, 95
7, 175440, Note_off_c, 5, 79, 95
7, 175440, Pitch_bend_c, 5, 8192
7, 175440, Note_on_c, 5, 74, 47
7, 175445, Pitch_bend_c, 5, 8320
7, 175450, Pitch_bend_c, 5, 8448
7, 175455, Pitch_bend_c, 5, 8576
7, 175460, Pitch_bend_c, 5, 8704
7, 175465, Pitch_bend_c, 5, 8832
7, 175470, Pitch_bend_c, 5, 8960
7, 175475, Pitch_bend_c, 5, 9088
7, 175480, Pitch_bend_c, 5, 9216
7, 175485, Pitch_bend_c, 5, 9344
7, 175490, Pitch_bend_c, 5, 9472
7, 175495, Pitch_bend_c, 5, 9600
7, 175500, Pitch_bend_c, 5, 9600
7, 175560, Pitch_bend_c, 5, 9600
7, 175565, Pitch_bend_c, 5, 9472
7, 175570, Pitch_bend_c, 5, 9344
7, 175575, Pitch_bend_c, 5, 9216
7, 175580, Pitch_bend_c, 5, 9088
7, 175585, Pitch_bend_c, 5, 8960
7, 175590, Pitch_bend_c, 5, 8832
7, 175595, Pitch_bend_c, 5, 8704
7, 175600, Pitch_bend_c, 5, 8576
7, 175605, Pitch_bend_c, 5, 8448
7, 175610, Pitch_bend_c, 5, 8320
7, 175615, Pitch_bend_c, 5, 8192
7, 175620, Pitch_bend_c, 5, 8192
7, 175680, Pitch_bend_c, 5, 8192
7, 175680, Pitch_bend_c, 5, 8192
7, 175680, Note_off_c, 5, 74, 47
7, 175680, Note_on_c, 5, 74, 47
7, 175920, Note_off_c, 5, 74, 47
7, 175920, Note_on_c, 5, 79, 95
7, 176160, Note_off_c, 5, 79, 95
7, 176160, Pitch_bend_c, 5, 8192
7, 176160, Note_on_c, 5, 74, 47
7, 176165, Pitch_bend_c, 5, 8320
7, 176170, Pitch_bend_c, 5, 8448
7, 176175, Pitch_bend_c, 5, 8576
7, 176180, Pitch_bend_c, 5, 8704
7, 176185, Pitch_bend_c, 5, 8832
7, 176190, Pitch_bend_c, 5, 8960
7, 176195, Pitch_bend_c, 5, 9088
7, 176200, Pitch_bend_c, 5, 9216
7, 176205, Pitch_bend_c, 5, 9344
7, 176210, Pitch_bend_c, 5, 9472
7, 176215, Pitch_bend_c, 5, 9600
7, 176220, Pitch_bend_c, 5, 9600
7, 176280, Pitch_bend_c, 5, 9600
7, 176285, Pitch_bend_c, 5, 9472
7, 176290, Pitch_bend_c, 5, 9344
7, 176295, Pitch_bend_c, 5, 9216
7, 176300, Pitch_bend_c, 5, 9088
7, 176305, Pitch_bend_c, 5, 8960
7, 176310, Pitch_bend_c, 5, 8832
7, 176315, Pitch_bend_c, 5, 8704
7, 176320, Pitch_bend_c, 5, 8576
7, 176325, Pitch_bend_c, 5, 8448
7, 176330, Pitch_bend_c, 5, 8320
7, 176335, Pitch_bend_c, 5, 8192
7, 176340, Pitch_bend_c, 5, 8192
7, 176400, Pitch_bend_c, 5, 8192
7, 176400, Pitch_bend_c, 5, 8192
7, 176400, Note_off_c, 5, 74, 47
7, 176400, Note_on_c, 5, 74, 47
7, 176640, Note_off_c, 5, 74, 47
7, 176640, Note_on_c, 5, 79, 95
7, 176880, Note_off_c, 5, 79, 95
7, 176880, Pitch_bend_c, 5, 8192
7, 176880, Note_on_c, 5, 74, 47
7, 176885, Pitch_bend_c, 5, 8320
7, 176890, Pitch_bend_c, 5, 8448
7, 176895, Pitch_bend_c, 5, 8576
7, 176900, Pitch_bend_c, 5, 8704
7, 176905, Pitch_bend_c, 5, 8832
7, 176910, Pitch_bend_c, 5, 8960
7, 176915, Pitch_bend_c, 5, 9088
7, 176920, Pitch_bend_c, 5, 9216
7, 176925, Pitch_bend_c, 5, 9344
7, 176930, Pitch_bend_c, 5, 9472
7, 176935, Pitch_bend_c, 5, 9600
7, 176940, Pitch_bend_c, 5, 9600
7, 177000, Pitch_bend_c, 5, 9600
7, 177005, Pitch_bend_c, 5, 9472
7, 177010, Pitch_bend_c, 5, 9344
7, 177015, Pitch_bend_c, 5, 9216
7, 177020, Pitch_bend_c, 5, 9088
7, 177025, Pitch_bend_c, 5, 8960
7, 177030, Pitch_bend_c, 5, 8832
7, 177035, Pitch_bend_c, 5, 8704
7, 177040, Pitch_bend_c, 5, 8576
7, 177045, Pitch_bend_c, 5, 8448
7, 177050, Pitch_bend_c, 5, 8320
7, 177055, Pitch_bend_c, 5, 8192
7, 177060, Pitch_bend_c, 5, 8192
7, 177120, Pitch_bend_c, 5, 8192
7, 177120, Pitch_bend_c, 5, 8192
7, 177120, Note_off_c, 5, 74, 47
7, 177120, Note_on_c, 5, 74, 47
7, 177360, Note_off_c, 5, 74, 47
7, 177360, Note_on_c, 5, 79, 95
7, 177600, Note_off_c, 5, 79, 95
7, 177600, Pitch_bend_c, 5, 8192
7, 177600, Note_on_c, 5, 74, 47
7, 177605, Pitch_bend_c, 5, 8320
7, 177610, Pitch_bend_c, 5, 8448
7, 177615, Pitch_bend_c, 5, 8576
7, 177620, Pitch_bend_c, 5, 8704
7, 177625, Pitch_bend_c, 5, 8832
7, 177630, Pitch_bend_c, 5, 8960
7, 177635, Pitch_bend_c, 5, 9088
7, 177640, Pitch_bend_c, 5, 9216
7, 177645, Pitch_bend_c, 5, 9344
7, 177650, Pitch_bend_c, 5, 9472
7, 177655, Pitch_bend_c, 5, 9600
7, 177660, Pitch_bend_c, 5, 9600
7, 177720, Pitch_bend_c, 5, 9600
7, 177725, Pitch_bend_c, 5, 9472
7, 177730, Pitch_bend_c, 5, 9344
7, 177735, Pitch_bend_c, 5, 9216
7, 177740, Pitch_bend_c, 5, 9088
7, 177745, Pitch_bend_c, 5, 8960
7, 177750, Pitch_bend_c, 5, 8832
7, 177755, Pitch_bend_c, 5, 8704
7, 177760, Pitch_bend_c, 5, 8576
7, 177765, Pitch_bend_c, 5, 8448
7, 177770, Pitch_bend_c, 5, 8320
7, 177775, Pitch_bend_c, 5, 8192
7, 177780, Pitch_bend_c, 5, 8192
7, 177840, Pitch_bend_c, 5, 8192
7, 177840, Pitch_bend_c, 5, 8192
7, 177840, Note_off_c, 5, 74, 47
7, 177840, Note_on_c, 5, 74, 47
7, 178080, Note_off_c, 5, 74, 47
7, 178080, Note_on_c, 5, 79, 95
7, 178320, Note_off_c, 5, 79, 95
7, 178320, Pitch_bend_c, 5, 8192
7, 178320, Note_on_c, 5, 74, 47
7, 178325, Pitch_bend_c, 5, 8320
7, 178330, Pitch_bend_c, 5, 8448
7, 178335, Pitch_bend_c, 5, 8576
7, 178340, Pitch_bend_c, 5, 8704
7, 178345, Pitch_bend_c, 5, 8832
7, 178350, Pitch_bend_c, 5, 8960
7, 178355, Pitch_bend_c, 5, 9088
7, 178360, Pitch_bend_c, 5, 9216
7, 178365, Pitch_bend_c, 5, 9344
7, 178370, Pitch_bend_c, 5, 9472
7, 178375, Pitch_bend_c, 5, 9600
7, 178380, Pitch_bend_c, 5, 9600
7, 178440, Pitch_bend_c, 5, 9600
7, 178445, Pitch_bend_c, 5, 9472
7, 178450, Pitch_bend_c, 5, 9344
7, 178455, Pitch_bend_c, 5, 9216
7, 178460, Pitch_bend_c, 5, 9088
7, 178465, Pitch_bend_c, 5, 8960
7, 178470, Pitch_bend_c, 5, 8832
7, 178475, Pitch_bend_c, 5, 8704
7, 178480, Pitch_bend_c, 5, 8576
7, 178485, Pitch_bend_c, 5, 8448
7, 178490, Pitch_bend_c, 5, 8320
7, 178495, Pitch_bend_c, 5, 8192
7, 178500, Pitch_bend_c, 5, 8192
7, 178560, Pitch_bend_c, 5, 8192
7, 178560, Pitch_bend_c, 5, 8192
7, 178560, Note_off_c, 5, 74, 47
7, 178560, Note_on_c, 5, 79, 95
7, 178800, Note_off_c, 5, 79, 95
7, 178800, Note_on_c, 5, 79, 95
7, 179040, Note_off_c, 5, 79, 95
7, 179040, Note_on_c, 5, 74, 95
7, 179280, Note_off_c, 5, 74, 95
7, 179280, Note_on_c, 5, 74, 95
7, 179520, Note_off_c, 5, 74, 95
7, 179520, Pitch_bend_c, 5, 8192
7, 179520, Note_on_c, 5, 72, 95
7, 179568, Pitch_bend_c, 5, 8320
7, 179616, Pitch_bend_c, 5, 8448
7, 179664, Pitch_bend_c, 5, 8576
7, 179712, Pitch_bend_c, 5, 8704
7, 179760, Pitch_bend_c, 5, 8832
7, 179760, Pitch_bend_c, 5, 8832
7, 180000, Pitch_bend_c, 5, 8832
7, 180000, Pitch_bend_c, 5, 8192
7, 180000, Note_off_c, 5, 72, 95
7, 180000, Note_on_c, 5, 69, 95
7, 180240, Note_off_c, 5, 69, 95
7, 180240, Note_on_c, 5, 69, 95
7, 180480, Note_off_c, 5, 69, 95
7, 180480, Note_on_c, 5, 69, 95
7, 180640, Pitch_bend_c, 5, 8192
7, 180800, Pitch_bend_c, 5, 8320
7, 180960, Pitch_bend_c, 5, 8192
7, 181120, Pitch_bend_c, 5, 8320
7, 181280, Pitch_bend_c, 5, 8192
7, 181440, Pitch_bend_c, 5, 8320
7, 181440, Pitch_bend_c, 5, 8192
7, 181440, Note_off_c, 5, 69, 95
7, 181440, Note_on_c, 5, 67, 95
7, 181680, Note_off_c, 5, 67, 95
7, 181680, Note_on_c, 5, 69, 95
7, 181920, Note_off_c, 5, 69, 95
7, 181920, Note_on_c, 5, 69, 95
7, 182160, Note_off_c, 5, 69, 95
7, 182160, Note_on_c, 5, 69, 95
7, 182400, Note_off_c, 5, 69, 95
7, 182400, Note_on_c, 5, 69, 95
7, 182640, Note_off_c, 5, 69, 95
7, 182640, Note_on_c, 5, 67, 70
7, 182880, Note_off_c, 5, 67, 70
7, 182880, Note_on_c, 5, 64, 95
7, 183120, Note_off_c, 5, 64, 95
7, 183120, Note_on_c, 5, 67, 95
7, 183360, Note_off_c, 5, 67, 95
7, 183360, Note_on_c, 5, 63, 95
7, 183840, Note_off_c, 5, 63, 95
7, 183840, Note_on_c, 5, 55, 95
7, 184320, Note_off_c, 5, 55, 95
7, 184320, Note_on_c, 5, 57, 95
7, 185280, Note_off_c, 5, 57, 95
7, 185280, Note_on_c, 5, 55, 95
7, 185520, Note_off_c, 5, 55, 95
7, 185520, Note_on_c, 5, 57, 70
7, 185760, Note_off_c, 5, 57, 70
7, 185760, Note_on_c, 5, 57, 95
7, 186000, Note_off_c, 5, 57, 95
7, 186000, Note_on_c, 5, 60, 95
7, 186480, Note_off_c, 5, 60, 95
7, 186480, Note_on_c, 5, 60, 95
7, 186720, Note_off_c, 5, 60, 95
7, 186720, Note_on_c, 5, 62, 95
7, 186960, Note_off_c, 5, 62, 95
7, 186960, Note_on_c, 5, 60, 95
7, 187200, Note_off_c, 5, 60, 95
7, 187200, Note_on_c, 5, 62, 95
7, 187320, Pitch_bend_c, 5, 8832
7, 187440, Pitch_bend_c, 5, 9600
7, 187440, Pitch_bend_c, 5, 8192
7, 187440, Note_off_c, 5, 62, 95
7, 187440, Note_on_c, 5, 64, 95
7, 187680, Note_off_c, 5, 64, 95
7, 187680, Note_on_c, 5, 67, 95
7, 188160, Note_off_c, 5, 67, 95
7, 189120, Note_on_c, 5, 67, 95
7, 189360, Note_off_c, 5, 67, 95
7, 189360, Note_on_c, 5, 69, 70
7, 189600, Note_off_c, 5, 69, 70
7, 189600, Note_on_c, 5, 69, 95
7, 189840, Note_off_c, 5, 69, 95
7, 189840, Note_on_c, 5, 69, 95
7, 190080, Note_off_c, 5, 69, 95
7, 190080, Note_on_c, 5, 69, 95
7, 190320, Note_off_c, 5, 69, 95
7, 190320, Note_on_c, 5, 69, 95
7, 190560, Note_off_c, 5, 69, 95
7, 190560, Note_on_c, 5, 69, 95
7, 190800, Note_off_c, 5, 69, 95
7, 190800, Note_on_c, 5, 67, 70
7, 191040, Note_off_c, 5, 67, 70
7, 191280, Note_on_c, 5, 69, 95
7, 191520, Note_off_c, 5, 69, 95
7, 191520, Note_on_c, 5, 67, 70
7, 191760, Note_off_c, 5, 67, 70
7, 191760, Note_on_c, 5, 64, 95
7, 192000, Note_off_c, 5, 64, 95
7, 192000, Note_on_c, 5, 69, 95
7, 192240, Note_off_c, 5, 69, 95
7, 192240, Note_on_c, 5, 67, 70
7, 192720, Note_off_c, 5, 67, 70
7, 192720, Note_on_c, 5, 69, 95
7, 192960, Note_off_c, 5, 69, 95
7, 192960, Note_on_c, 5, 67, 70
7, 193200, Note_off_c, 5, 67, 70
7, 193200, Note_on_c, 5, 69, 95
7, 193440, Note_off_c, 5, 69, 95
7, 193440, Note_on_c, 5, 69, 95
7, 193680, Note_off_c, 5, 69, 95
7, 193680, Note_on_c, 5, 67, 70
7, 193920, Note_off_c, 5, 67, 70
7, 193920, Note_on_c, 5, 64, 95
7, 194160, Note_off_c, 5, 64, 95
7, 194160, Note_on_c, 5, 69, 95
7, 194400, Note_off_c, 5, 69, 95
7, 194400, Note_on_c, 5, 67, 70
7, 194880, Note_off_c, 5, 67, 70
7, 194880, Note_on_c, 5, 69, 95
7, 195120, Note_off_c, 5, 69, 95
7, 195120, Note_on_c, 5, 67, 70
7, 195360, Note_off_c, 5, 67, 70
7, 195360, Note_on_c, 5, 62, 95
7, 195600, Note_off_c, 5, 62, 95
7, 195600, Note_on_c, 5, 69, 95
7, 195840, Note_off_c, 5, 69, 95
7, 195840, Note_on_c, 5, 67, 95
7, 196320, Note_off_c, 5, 67, 95
7, 196320, Note_on_c, 5, 69, 95
7, 196560, Note_off_c, 5, 69, 95
7, 196560, Note_on_c, 5, 67, 70
7, 196960, Note_off_c, 5, 67, 70
7, 196960, Note_on_c, 5, 69, 95
7, 197120, Note_off_c, 5, 69, 95
7, 197120, Note_on_c, 5, 67, 95
7, 197280, Note_off_c, 5, 67, 95
7, 197280, Note_on_c, 5, 62, 95
7, 197760, Note_off_c, 5, 62, 95
7, 197760, Note_on_c, 5, 60, 95
7, 197920, Note_off_c, 5, 60, 95
7, 197920, Note_on_c, 5, 62, 70
7, 198080, Note_off_c, 5, 62, 70
7, 198080, Note_on_c, 5, 60, 70
7, 198240, Note_off_c, 5, 60, 70
7, 198240, Note_on_c, 5, 57, 95
7, 198720, Note_off_c, 5, 57, 95
7, 198720, Note_on_c, 5, 60, 95
7, 199200, Note_off_c, 5, 60, 95
7, 199200, Note_on_c, 5, 57, 95
7, 199680, Note_off_c, 5, 57, 95
7, 199680, Note_on_c, 5, 66, 95
7, 200640, Note_off_c, 5, 66, 95
7, 200640, Note_on_c, 5, 74, 95
7, 201120, Note_off_c, 5, 74, 95
7, 201120, Note_on_c, 5, 66, 95
7, 201600, Note_off_c, 5, 66, 95
7, 201600, Note_on_c, 5, 74, 95
7, 202080, Note_off_c, 5, 74, 95
7, 202080, Note_on_c, 5, 72, 95
7, 202560, Note_off_c, 5, 72, 95
7, 202560, Pitch_bend_c, 5, 8192
7, 202560, Note_on_c, 5, 67, 95
7, 202570, Pitch_bend_c, 5, 8320
7, 202580, Pitch_bend_c, 5, 8448
7, 202590, Pitch_bend_c, 5, 8576
7, 202600, Pitch_bend_c, 5, 8704
7, 202610, Pitch_bend_c, 5, 8832
7, 202620, Pitch_bend_c, 5, 8960
7, 202630, Pitch_bend_c, 5, 9088
7, 202640, Pitch_bend_c, 5, 9216
7, 202650, Pitch_bend_c, 5, 9344
7, 202660, Pitch_bend_c, 5, 9472
7, 202670, Pitch_bend_c, 5, 9600
7, 202680, Pitch_bend_c, 5, 9600
7, 202800, Pitch_bend_c, 5, 9600
7, 202810, Pitch_bend_c, 5, 9472
7, 202820, Pitch_bend_c, 5, 9344
7, 202830, Pitch_bend_c, 5, 9216
7, 202840, Pitch_bend_c, 5, 9088
7, 202850, Pitch_bend_c, 5, 8960
7, 202860, Pitch_bend_c, 5, 8832
7, 202870, Pitch_bend_c, 5, 8704
7, 202880, Pitch_bend_c, 5, 8576
7, 202890, Pitch_bend_c, 5, 8448
7, 202900, Pitch_bend_c, 5, 8320
7, 202910, Pitch_bend_c, 5, 8192
7, 202920, Pitch_bend_c, 5, 8192
7, 203040, Pitch_bend_c, 5, 8192
7, 203040, Pitch_bend_c, 5, 8192
7, 203040, Note_off_c, 5, 67, 95
7, 203040, Note_on_c, 5, 67, 47
7, 203520, Note_off_c, 5, 67, 47
7, 203520, Note_on_c, 5, 65, 95
7, 203760, Note_off_c, 5, 65, 95
7, 203760, Note_on_c, 5, 66, 70
7, 204480, Note_off_c, 5, 66, 70
7, 204480, Note_on_c, 5, 62, 95
7, 205440, Note_off_c, 5, 62, 95
7, 205440, Note_on_c, 5, 62, 95
7, 205600, Pitch_bend_c, 5, 8192
7, 205760, Pitch_bend_c, 5, 8320
7, 205920, Pitch_bend_c, 5, 8192
7, 206080, Pitch_bend_c, 5, 8320
7, 206240, Pitch_bend_c, 5, 8192
7, 206400, Pitch_bend_c, 5, 8320
7, 206400, Pitch_bend_c, 5, 8192
7, 206400, Note_off_c, 5, 62, 95
7, 206400, Note_on_c, 5, 65, 95
7, 206640, Note_off_c, 5, 65, 95
7, 206640, Note_on_c, 5, 66, 70
7, 206880, Note_off_c, 5, 66, 70
7, 207840, Pitch_bend_c, 5, 8192
7, 207840, Note_on_c, 5, 72, 95
7, 207905, Pitch_bend_c, 5, 8320
7, 207970, Pitch_bend_c, 5, 8448
7, 208035, Pitch_bend_c, 5, 8576
7, 208100, Pitch_bend_c, 5, 8704
7, 208165, Pitch_bend_c, 5, 8832
7, 208230, Pitch_bend_c, 5, 8960
7, 208295, Pitch_bend_c, 5, 9088
7, 208360, Pitch_bend_c, 5, 9216
7, 208425, Pitch_bend_c, 5, 9344
7, 208490, Pitch_bend_c, 5, 9472
7, 208555, Pitch_bend_c, 5, 9600
7, 208560, Pitch_bend_c, 5, 9600
7, 209280, Pitch_bend_c, 5, 9600
7, 209280, Pitch_bend_c, 5, 8192
7, 209280, Note_off_c, 5, 72, 95
7, 209280, Note_on_c, 5, 74, 95
7, 209760, Note_off_c, 5, 74, 95
7, 209760, Note_on_c, 5, 72, 95
7, 210000, Note_off_c, 5, 72, 95
7, 210000, Note_on_c, 5, 69, 70
7, 210240, Note_off_c, 5, 69, 70
7, 210240, Note_on_c, 5, 67, 95
7, 210480, Note_off_c, 5, 67, 95
7, 210480, Note_on_c, 5, 69, 95
7, 210720, Note_off_c, 5, 69, 95
7, 210720, Note_on_c, 5, 67, 95
7, 210960, Note_off_c, 5, 67, 95
7, 210960, Note_on_c, 5, 65, 70
7, 211200, Note_off_c, 5, 65, 70
7, 211200, Note_on_c, 5, 65, 95
7, 211440, Note_off_c, 5, 65, 95
7, 211440, Note_on_c, 5, 65, 95
7, 211680, Note_off_c, 5, 65, 95
7, 211680, Note_on_c, 5, 62, 95
7, 211920, Note_off_c, 5, 62, 95
7, 211920, Note_on_c, 5, 60, 70
7, 212160, Note_off_c, 5, 60, 70
7, 212160, Note_on_c, 5, 57, 95
7, 212400, Note_off_c, 5, 57, 95
7, 212400, Note_on_c, 5, 55, 70
7, 212640, Note_off_c, 5, 55, 70
7, 212640, Note_on_c, 5, 53, 95
7, 213120, Note_off_c, 5, 53, 95
7, 213120, Note_on_c, 5, 55, 95
7, 213360, Note_off_c, 5, 55, 95
7, 213360, Note_on_c, 5, 53, 70
7, 213600, Note_off_c, 5, 53, 70
7, 213600, Note_on_c, 5, 50, 95
7, 214080, Note_off_c, 5, 50, 95
7, 214080, Note_on_c, 5, 53, 95
7, 214560, Note_off_c, 5, 53, 95
7, 214560, Note_on_c, 5, 50, 95
7, 214680, Pitch_bend_c, 5, 6528
7, 214800, Pitch_bend_c, 5, 4736
7, 214920, Pitch_bend_c, 5, 2944
7, 215040, Pitch_bend_c, 5, 1152
7, 215040, Pitch_bend_c, 5, 8192
7, 215040, Note_off_c, 5, 50, 95
7, 215040, Note_on_c, 5, 40, 95
7, 216000, Note_off_c, 5, 40, 95
7, 216240, Note_on_c, 5, 59, 95
7, 216480, Note_off_c, 5, 59, 95
7, 216480, Note_on_c, 5, 56, 95
7, 216600, Pitch_bend_c, 5, 10240
7, 216720, Pitch_bend_c, 5, 12416
7, 216840, Pitch_bend_c, 5, 14464
7, 216960, Pitch_bend_c, 5, 16256
7, 216960, Pitch_bend_c, 5, 8192
7, 216960, Note_off_c, 5, 56, 95
7, 216960, Note_on_c, 5, 68, 95
7, 217440, Note_off_c, 5, 68, 95
7, 217440, Note_on_c, 5, 76, 95
7, 218400, Note_off_c, 5, 76, 95
7, 218400, Pitch_bend_c, 5, 8192
7, 218400, Note_on_c, 5, 79, 95
7, 218443, Pitch_bend_c, 5, 8320
7, 218486, Pitch_bend_c, 5, 8448
7, 218529, Pitch_bend_c, 5, 8576
7, 218572, Pitch_bend_c, 5, 8704
7, 218615, Pitch_bend_c, 5, 8832
7, 218658, Pitch_bend_c, 5, 8960
7, 218701, Pitch_bend_c, 5, 9088
7, 218744, Pitch_bend_c, 5, 9216
7, 218787, Pitch_bend_c, 5, 9344
7, 218830, Pitch_bend_c, 5, 9472
7, 218873, Pitch_bend_c, 5, 9600
7, 218880, Pitch_bend_c, 5, 9600
7, 219360, Pitch_bend_c, 5, 9600
7, 219360, Pitch_bend_c, 5, 8192
7, 219360, Note_off_c, 5, 79, 95
7, 219360, Note_on_c, 5, 59, 95
7, 219600, Note_off_c, 5, 59, 95
7, 219600, Note_on_c, 5, 55, 95
7, 219840, Note_off_c, 5, 55, 95
7, 219840, Note_on_c, 5, 76, 95
7, 220320, Note_off_c, 5, 76, 95
7, 220320, Note_on_c, 5, 74, 95
7, 220560, Note_off_c, 5, 74, 95
7, 220560, Note_on_c, 5, 71, 70
7, 220800, Note_off_c, 5, 71, 70
7, 220800, Pitch_bend_c, 5, 8192
7, 220800, Note_on_c, 5, 69, 95
7, 220821, Pitch_bend_c, 5, 8320
7, 220842, Pitch_bend_c, 5, 8448
7, 220863, Pitch_bend_c, 5, 8576
7, 220884, Pitch_bend_c, 5, 8704
7, 220905, Pitch_bend_c, 5, 8832
7, 220926, Pitch_bend_c, 5, 8960
7, 220947, Pitch_bend_c, 5, 9088
7, 220968, Pitch_bend_c, 5, 9216
7, 220989, Pitch_bend_c, 5, 9344
7, 221010, Pitch_bend_c, 5, 9472
7, 221031, Pitch_bend_c, 5, 9600
7, 221040, Pitch_bend_c, 5, 9600
7, 221280, Pitch_bend_c, 5, 9600
7, 221280, Pitch_bend_c, 5, 8192
7, 221280, Note_off_c, 5, 69, 95
7, 221280, Note_on_c, 5, 69, 95
7, 221760, Note_off_c, 5, 69, 95
7, 221760, Note_on_c, 5, 69, 95
7, 222000, Note_off_c, 5, 69, 95
7, 222000, Note_on_c, 5, 67, 70
7, 222240, Note_off_c, 5, 67, 70
7, 222240, Note_on_c, 5, 64, 95
7, 222720, Note_off_c, 5, 64, 95
7, 222720, Note_on_c, 5, 68, 95
7, 223200, Note_off_c, 5, 68, 95
7, 223200, Note_on_c, 5, 76, 95
7, 223680, Note_off_c, 5, 76, 95
7, 223680, Note_on_c, 5, 71, 95
7, 224160, Note_off_c, 5, 71, 95
7, 224160, Pitch_bend_c, 5, 8192
7, 224160, Note_on_c, 5, 79, 95
7, 224203, Pitch_bend_c, 5, 8320
7, 224246, Pitch_bend_c, 5, 8448
7, 224289, Pitch_bend_c, 5, 8576
7, 224332, Pitch_bend_c, 5, 8704
7, 224375, Pitch_bend_c, 5, 8832
7, 224418, Pitch_bend_c, 5, 8960
7, 224461, Pitch_bend_c, 5, 9088
7, 224504, Pitch_bend_c, 5, 9216
7, 224547, Pitch_bend_c, 5, 9344
7, 224590, Pitch_bend_c, 5, 9472
7, 224633, Pitch_bend_c, 5, 9600
7, 224640, Pitch_bend_c, 5, 9600
7, 225120, Pitch_bend_c, 5, 9600
7, 225120, Pitch_bend_c, 5, 8192
7, 225120, Note_off_c, 5, 79, 95
7, 225120, Note_on_c, 5, 79, 95
7, 225600, Note_off_c, 5, 79, 95
7, 225600, Note_on_c, 5, 76, 95
7, 225760, Note_off_c, 5, 76, 95
7, 225760, Note_on_c, 5, 79, 70
7, 225920, Note_off_c, 5, 79, 70
7, 225920, Note_on_c, 5, 76, 70
7, 226080, Note_off_c, 5, 76, 70
7, 226080, Note_on_c, 5, 74, 95
7, 226560, Note_off_c, 5, 74, 95
7, 226560, Note_on_c, 5, 76, 95
7, 227040, Note_off_c, 5, 76, 95
7, 227040, Pitch_bend_c, 5, 8192
7, 227040, Note_on_c, 5, 74, 95
7, 227105, Pitch_bend_c, 5, 8320
7, 227170, Pitch_bend_c, 5, 8448
7, 227235, Pitch_bend_c, 5, 8576
7, 227300, Pitch_bend_c, 5, 8704
7, 227365, Pitch_bend_c, 5, 8832
7, 227430, Pitch_bend_c, 5, 8960
7, 227495, Pitch_bend_c, 5, 9088
7, 227560, Pitch_bend_c, 5, 9216
7, 227625, Pitch_bend_c, 5, 9344
7, 227690, Pitch_bend_c, 5, 9472
7, 227755, Pitch_bend_c, 5, 9600
7, 227760, Pitch_bend_c, 5, 9600
7, 228480, Pitch_bend_c, 5, 9600
7, 228480, Pitch_bend_c, 5, 8192
7, 228480, Note_off_c, 5, 74, 95
7, 228480, Note_on_c, 5, 74, 95
7, 228960, Note_off_c, 5, 74, 95
7, 228960, Note_on_c, 5, 71, 95
7, 229440, Note_off_c, 5, 71, 95
7, 229440, Note_on_c, 5, 74, 95
7, 229680, Note_off_c, 5, 74, 95
7, 229680, Note_on_c, 5, 71, 70
7, 229920, Note_off_c, 5, 71, 70
7, 229920, Note_on_c, 5, 69, 95
7, 230400, Note_off_c, 5, 69, 95
7, 230400, Note_on_c, 5, 66, 95
7, 230720, Note_off_c, 5, 66, 95
7, 230720, Note_on_c, 5, 67, 95
7, 231040, Note_off_c, 5, 67, 95
7, 231040, Note_on_c, 5, 66, 70
7, 231360, Note_off_c, 5, 66, 70
7, 231360, Note_on_c, 5, 74, 95
7, 232320, Note_off_c, 5, 74, 95
7, 232320, Note_on_c, 5, 74, 95
7, 232800, Note_off_c, 5, 74, 95
7, 232800, Note_on_c, 5, 72, 95
7, 233280, Note_off_c, 5, 72, 95
7, 233280, Note_on_c, 5, 74, 95
7, 233760, Note_off_c, 5, 74, 95
7, 233760, Note_on_c, 5, 72, 95
7, 234240, Note_off_c, 5, 72, 95
7, 234720, Note_on_c, 5, 64, 95
7, 235200, Note_off_c, 5, 64, 95
7, 235200, Note_on_c, 5, 72, 95
7, 235680, Note_off_c, 5, 72, 95
7, 235680, Note_on_c, 5, 70, 95
7, 236160, Note_off_c, 5, 70, 95
7, 236160, Note_on_c, 5, 70, 95
7, 236320, Pitch_bend_c, 5, 8192
7, 236480, Pitch_bend_c, 5, 8320
7, 236640, Pitch_bend_c, 5, 8192
7, 236800, Pitch_bend_c, 5, 8320
7, 236960, Pitch_bend_c, 5, 8192
7, 237120, Pitch_bend_c, 5, 8320
7, 237120, Pitch_bend_c, 5, 8192
7, 237120, Note_off_c, 5, 70, 95
7, 237120, Note_on_c, 5, 72, 95
7, 237600, Note_off_c, 5, 72, 95
7, 238560, Note_on_c, 5, 62, 95
7, 239040, Note_off_c, 5, 62, 95
7, 239040, Note_on_c, 5, 70, 95
7, 239520, Note_off_c, 5, 70, 95
7, 239520, Note_on_c, 5, 68, 95
7, 240000, Note_off_c, 5, 68, 95
7, 240000, Note_on_c, 5, 70, 95
7, 240480, Note_off_c, 5, 70, 95
7, 240480, Note_on_c, 5, 68, 95
7, 240960, Note_off_c, 5, 68, 95
7, 240960, Note_on_c, 5, 65, 95
7, 241440, Note_off_c, 5, 65, 95
7, 242400, Note_on_c, 5, 59, 95
7, 242880, Note_off_c, 5, 59, 95
7, 242880, Note_on_c, 5, 67, 95
7, 243360, Note_off_c, 5, 67, 95
7, 243360, Note_on_c, 5, 65, 95
7, 244800, Note_off_c, 5, 65, 95
7, 244800, Note_on_c, 5, 67, 95
7, 245280, Note_off_c, 5, 67, 95
7, 245760, Note_on_c, 5, 67, 95
7, 247680, Note_off_c, 5, 67, 95
7, 247920, Note_on_c, 5, 67, 95
7, 248160, Note_off_c, 5, 67, 95
7, 248160, Note_on_c, 5, 76, 95
7, 248400, Note_off_c, 5, 76, 95
7, 248400, Note_on_c, 5, 71, 95
7, 248520, Pitch_bend_c, 5, 7552
7, 248640, Pitch_bend_c, 5, 6784
7, 248640, Pitch_bend_c, 5, 8192
7, 248640, Note_off_c, 5, 71, 95
7, 248640, Note_on_c, 5, 69, 95
7, 248880, Note_off_c, 5, 69, 95
7, 248880, Note_on_c, 5, 74, 95
7, 249120, Note_off_c, 5, 74, 95
7, 249120, Note_on_c, 5, 69, 95
7, 249600, Note_off_c, 5, 69, 95
7, 249600, Note_on_c, 5, 63, 95
7, 249760, Pitch_bend_c, 5, 8192
7, 249920, Pitch_bend_c, 5, 8320
7, 250080, Pitch_bend_c, 5, 8192
7, 250240, Pitch_bend_c, 5, 8320
7, 250400, Pitch_bend_c, 5, 8192
7, 250560, Pitch_bend_c, 5, 8320
7, 250720, Pitch_bend_c, 5, 8192
7, 250880, Pitch_bend_c, 5, 8320
7, 251040, Pitch_bend_c, 5, 8192
7, 251040, Pitch_bend_c, 5, 8320
7, 251040, Pitch_bend_c, 5, 8192
7, 251040, Note_off_c, 5, 63, 95
7, 251280, Note_on_c, 5, 76, 95
7, 251520, Note_off_c, 5, 76, 95
7, 251520, Note_on_c, 5, 79, 95
7, 251760, Note_off_c, 5, 79, 95
7, 251760, Pitch_bend_c, 5, 8192
7, 251760, Note_on_c, 5, 74, 47
7, 251770, Pitch_bend_c, 5, 8320
7, 251780, Pitch_bend_c, 5, 8448
7, 251790, Pitch_bend_c, 5, 8576
7, 251800, Pitch_bend_c, 5, 8704
7, 251810, Pitch_bend_c, 5, 8832
7, 251820, Pitch_bend_c, 5, 8960
7, 251830, Pitch_bend_c, 5, 9088
7, 251840, Pitch_bend_c, 5, 9216
7, 251850, Pitch_bend_c, 5, 9344
7, 251860, Pitch_bend_c, 5, 9472
7, 251870, Pitch_bend_c, 5, 9600
7, 251880, Pitch_bend_c, 5, 9600
7, 252000, Pitch_bend_c, 5, 9600
7, 252000, Pitch_bend_c, 5, 8192
7, 252000, Note_off_c, 5, 74, 47
7, 252000, Note_on_c, 5, 79, 95
7, 252240, Note_off_c, 5, 79, 95
7, 252240, Note_on_c, 5, 74, 47
7, 252480, Note_off_c, 5, 74, 47
7, 252480, Note_on_c, 5, 72, 95
7, 252720, Note_off_c, 5, 72, 95
7, 252720, Note_on_c, 5, 69, 95
7, 252960, Note_off_c, 5, 69, 95
7, 252960, Note_on_c, 5, 72, 95
7, 253200, Note_off_c, 5, 72, 95
7, 253200, Note_on_c, 5, 69, 95
7, 253440, Note_off_c, 5, 69, 95
7, 253440, Pitch_bend_c, 5, 8192
7, 253440, Note_on_c, 5, 74, 95
7, 253549, Pitch_bend_c, 5, 8320
7, 253658, Pitch_bend_c, 5, 8448
7, 253767, Pitch_bend_c, 5, 8576
7, 253876, Pitch_bend_c, 5, 8704
7, 253985, Pitch_bend_c, 5, 8832
7, 254094, Pitch_bend_c, 5, 8960
7, 254203, Pitch_bend_c, 5, 9088
7, 254312, Pitch_bend_c, 5, 9216
7, 254421, Pitch_bend_c, 5, 9344
7, 254530, Pitch_bend_c, 5, 9472
7, 254639, Pitch_bend_c, 5, 9600
7, 254640, Pitch_bend_c, 5, 9600
7, 255840, Pitch_bend_c, 5, 9600
7, 255840, Pitch_bend_c, 5, 8192
7, 255840, Note_off_c, 5, 74, 95
7, 256080, Note_on_c, 5, 74, 47
7, 256320, Note_off_c, 5, 74, 47
7, 256800, Pitch_bend_c, 5, 8192
7, 256800, Note_on_c, 5, 74, 47
7, 256805, Pitch_bend_c, 5, 8320
7, 256810, Pitch_bend_c, 5, 8448
7, 256815, Pitch_bend_c, 5, 8576
7, 256820, Pitch_bend_c, 5, 8704
7, 256825, Pitch_bend_c, 5, 8832
7, 256830, Pitch_bend_c, 5, 8960
7, 256835, Pitch_bend_c, 5, 9088
7, 256840, Pitch_bend_c, 5, 9216
7, 256845, Pitch_bend_c, 5, 9344
7, 256850, Pitch_bend_c, 5, 9472
7, 256855, Pitch_bend_c, 5, 9600
7, 256860, Pitch_bend_c, 5, 9600
7, 256920, Pitch_bend_c, 5, 9600
7, 256925, Pitch_bend_c, 5, 9472
7, 256930, Pitch_bend_c, 5, 9344
7, 256935, Pitch_bend_c, 5, 9216
7, 256940, Pitch_bend_c, 5, 9088
7, 256945, Pitch_bend_c, 5, 8960
7, 256950, Pitch_bend_c, 5, 8832
7, 256955, Pitch_bend_c, 5, 8704
7, 256960, Pitch_bend_c, 5, 8576
7, 256965, Pitch_bend_c, 5, 8448
7, 256970, Pitch_bend_c, 5, 8320
7, 256975, Pitch_bend_c, 5, 8192
7, 256980, Pitch_bend_c, 5, 8192
7, 257040, Pitch_bend_c, 5, 8192
7, 257040, Pitch_bend_c, 5, 8192
7, 257040, Note_off_c, 5, 74, 47
7, 257040, Note_on_c, 5, 74, 47
7, 257280, Note_off_c, 5, 74, 47
7, 257280, Note_on_c, 5, 72, 95
7, 257520, Note_off_c, 5, 72, 95
7, 257520, Note_on_c, 5, 74, 70
7, 257760, Note_off_c, 5, 74, 70
7, 257760, Note_on_c, 5, 72, 95
7, 258240, Note_off_c, 5, 72, 95
7, 259920, Note_on_c, 5, 72, 95
7, 260160, Note_off_c, 5, 72, 95
7, 260160, Pitch_bend_c, 5, 8192
7, 260160, Note_on_c, 5, 74, 47
7, 260165, Pitch_bend_c, 5, 8320
7, 260170, Pitch_bend_c, 5, 8448
7, 260175, Pitch_bend_c, 5, 8576
7, 260180, Pitch_bend_c, 5, 8704
7, 260185, Pitch_bend_c, 5, 8832
7, 260190, Pitch_bend_c, 5, 8960
7, 260195, Pitch_bend_c, 5, 9088
7, 260200, Pitch_bend_c, 5, 9216
7, 260205, Pitch_bend_c, 5, 9344
7, 260210, Pitch_bend_c, 5, 9472
7, 260215, Pitch_bend_c, 5, 9600
7, 260220, Pitch_bend_c, 5, 9600
7, 260280, Pitch_bend_c, 5, 9600
7, 260285, Pitch_bend_c, 5, 9472
7, 260290, Pitch_bend_c, 5, 9344
7, 260295, Pitch_bend_c, 5, 9216
7, 260300, Pitch_bend_c, 5, 9088
7, 260305, Pitch_bend_c, 5, 8960
7, 260310, Pitch_bend_c, 5, 8832
7, 260315, Pitch_bend_c, 5, 8704
7, 260320, Pitch_bend_c, 5, 8576
7, 260325, Pitch_bend_c, 5, 8448
7, 260330, Pitch_bend_c, 5, 8320
7, 260335, Pitch_bend_c, 5, 8192
7, 260340, Pitch_bend_c, 5, 8192
7, 260400, Pitch_bend_c, 5, 8192
7, 260400, Pitch_bend_c, 5, 8192
7, 260400, Note_off_c, 5, 74, 47
7, 260400, Note_on_c, 5, 74, 47
7, 260640, Note_off_c, 5, 74, 47
7, 260640, Note_on_c, 5, 72, 95
7, 260880, Note_off_c, 5, 72, 95
7, 260880, Note_on_c, 5, 69, 95
7, 261120, Note_off_c, 5, 69, 95
7, 261120, Note_on_c, 5, 72, 95
7, 261280, Pitch_bend_c, 5, 8192
7, 261440, Pitch_bend_c, 5, 8320
7, 261600, Pitch_bend_c, 5, 8192
7, 261760, Pitch_bend_c, 5, 8320
7, 261920, Pitch_bend_c, 5, 8192
7, 262080, Pitch_bend_c, 5, 8320
7, 262240, Pitch_bend_c, 5, 8192
7, 262400, Pitch_bend_c, 5, 8320
7, 262560, Pitch_bend_c, 5, 8192
7, 262720, Pitch_bend_c, 5, 8320
7, 262880, Pitch_bend_c, 5, 8192
7, 263040, Pitch_bend_c, 5, 8320
7, 263040, Pitch_bend_c, 5, 8192
7, 263040, Note_off_c, 5, 72, 95
7, 264960, Note_on_c, 5, 74, 95
7, 265080, Pitch_bend_c, 5, 9600
7, 265080, Pitch_bend_c, 5, 8192
7, 265080, Note_off_c, 5, 74, 95
7, 265080, Note_on_c, 5, 76, 95
7, 265440, Note_off_c, 5, 76, 95
7, 265440, Note_on_c, 5, 79, 95
7, 265800, Note_off_c, 5, 79, 95
7, 265800, Note_on_c, 5, 79, 95
7, 265920, Note_off_c, 5, 79, 95
7, 265920, Note_on_c, 5, 79, 95
7, 266040, Pitch_bend_c, 5, 9600
7, 266040, Pitch_bend_c, 5, 8192
7, 266040, Note_off_c, 5, 79, 95
7, 266040, Note_on_c, 5, 81, 95
7, 266280, Note_off_c, 5, 81, 95
7, 266280, Note_on_c, 5, 79, 95
7, 266520, Note_off_c, 5, 79, 95
7, 266520, Note_on_c, 5, 76, 95
7, 266760, Note_off_c, 5, 76, 95
7, 266760, Note_on_c, 5, 79, 95
7, 267000, Note_off_c, 5, 79, 95
7, 267000, Note_on_c, 5, 76, 95
7, 267120, Pitch_bend_c, 5, 7552
7, 267240, Pitch_bend_c, 5, 6784
7, 267360, Pitch_bend_c, 5, 6144
7, 267480, Pitch_bend_c, 5, 5376
7, 267480, Pitch_bend_c, 5, 8192
7, 267480, Note_off_c, 5, 76, 95
7, 267480, Note_on_c, 5, 72, 95
7, 267960, Note_off_c, 5, 72, 95
7, 267960, Note_on_c, 5, 72, 95
7, 268120, Pitch_bend_c, 5, 8192
7, 268280, Pitch_bend_c, 5, 8320
7, 268440, Pitch_bend_c, 5, 8192
7, 268440, Pitch_bend_c, 5, 8320
7, 268440, Pitch_bend_c, 5, 8192
7, 268440, Note_off_c, 5, 72, 95
7, 268440, Note_on_c, 5, 72, 47
7, 268680, Note_off_c, 5, 72, 47
7, 268680, Note_on_c, 5, 72, 47
7, 268800, Note_off_c, 5, 72, 47
7, 268800, Note_on_c, 5, 72, 95
7, 268960, Pitch_bend_c, 5, 8192
7, 269120, Pitch_bend_c, 5, 8320
7, 269280, Pitch_bend_c, 5, 8192
7, 269440, Pitch_bend_c, 5, 8320
7, 269600, Pitch_bend_c, 5, 8192
7, 269760, Pitch_bend_c, 5, 8320
7, 269760, Pitch_bend_c, 5, 8192
7, 269760, Note_off_c, 5, 72, 95
7, 271680, Pitch_bend_c, 5, 8192
7, 271680, Note_on_c, 5, 77, 95
7, 271767, Pitch_bend_c, 5, 8320
7, 271854, Pitch_bend_c, 5, 8448
7, 271941, Pitch_bend_c, 5, 8576
7, 272028, Pitch_bend_c, 5, 8704
7, 272115, Pitch_bend_c, 5, 8832
7, 272202, Pitch_bend_c, 5, 8960
7, 272289, Pitch_bend_c, 5, 9088
7, 272376, Pitch_bend_c, 5, 9216
7, 272463, Pitch_bend_c, 5, 9344
7, 272550, Pitch_bend_c, 5, 9472
7, 272637, Pitch_bend_c, 5, 9600
7, 272640, Pitch_bend_c, 5, 9600
7, 273600, Pitch_bend_c, 5, 9600
7, 273600, Pitch_bend_c, 5, 8192
7, 273600, Note_off_c, 5, 77, 95
7, 283200, Note_on_c, 5, 79, 95
7, 283680, Note_off_c, 5, 79, 95
7, 283680, Pitch_bend_c, 5, 8192
7, 283680, Note_on_c, 5, 79, 95
7, 283745, Pitch_bend_c, 5, 8320
7, 283810, Pitch_bend_c, 5, 8448
7, 283875, Pitch_bend_c, 5, 8576
7, 283940, Pitch_bend_c, 5, 8704
7, 284005, Pitch_bend_c, 5, 8832
7, 284070, Pitch_bend_c, 5, 8960
7, 284135, Pitch_bend_c, 5, 9088
7, 284200, Pitch_bend_c, 5, 9216
7, 284265, Pitch_bend_c, 5, 9344
7, 284330, Pitch_bend_c, 5, 9472
7, 284395, Pitch_bend_c, 5, 9600
7, 284400, Pitch_bend_c, 5, 9600
7, 285120, Pitch_bend_c, 5, 9600
7, 285120, Pitch_bend_c, 5, 8192
7, 285120, Note_off_c, 5, 79, 95
7, 288480, Pitch_bend_c, 5, 8192
7, 288480, Note_on_c, 5, 84, 95
7, 288501, Pitch_bend_c, 5, 8320
7, 288522, Pitch_bend_c, 5, 8448
7, 288543, Pitch_bend_c, 5, 8576
7, 288564, Pitch_bend_c, 5, 8704
7, 288585, Pitch_bend_c, 5, 8832
7, 288606, Pitch_bend_c, 5, 8960
7, 288627, Pitch_bend_c, 5, 9088
7, 288648, Pitch_bend_c, 5, 9216
7, 288669, Pitch_bend_c, 5, 9344
7, 288690, Pitch_bend_c, 5, 9472
7, 288711, Pitch_bend_c, 5, 9600
7, 288720, Pitch_bend_c, 5, 9600
7, 288960, Pitch_bend_c, 5, 9600
7, 288960, Pitch_bend_c, 5, 8192
7, 288960, Note_off_c, 5, 84, 95
7, 288960, Pitch_bend_c, 5, 8192
7, 288960, Note_on_c, 5, 84, 47
7, 288981, Pitch_bend_c, 5, 8320
7, 289002, Pitch_bend_c, 5, 8448
7, 289023, Pitch_bend_c, 5, 8576
7, 289044, Pitch_bend_c, 5, 8704
7, 289065, Pitch_bend_c, 5, 8832
7, 289086, Pitch_bend_c, 5, 8960
7, 289107, Pitch_bend_c, 5, 9088
7, 289128, Pitch_bend_c, 5, 9216
7, 289149, Pitch_bend_c, 5, 9344
7, 289170, Pitch_bend_c, 5, 9472
7, 289191, Pitch_bend_c, 5, 9600
7, 289200, Pitch_bend_c, 5, 9600
7, 289440, Pitch_bend_c, 5, 9600
7, 289440, Pitch_bend_c, 5, 8192
7, 289440, Note_off_c, 5, 84, 47
7, 289440, Note_on_c, 5, 84, 95
7, 289920, Note_off_c, 5, 84, 95
7, 289920, Note_on_c, 5, 81, 95
7, 290160, Note_off_c, 5, 81, 95
7, 290160, Note_on_c, 5, 84, 70
7, 290400, Note_off_c, 5, 84, 70
7, 290400, Note_on_c, 5, 81, 95
7, 290880, Note_off_c, 5, 81, 95
7, 290880, Note_on_c, 5, 79, 95
7, 291360, Note_off_c, 5, 79, 95
7, 291360, Pitch_bend_c, 5, 8192
7, 291360, Note_on_c, 5, 79, 95
7, 291469, Pitch_bend_c, 5, 8320
7, 291578, Pitch_bend_c, 5, 8448
7, 291687, Pitch_bend_c, 5, 8576
7, 291796, Pitch_bend_c, 5, 8704
7, 291905, Pitch_bend_c, 5, 8832
7, 292014, Pitch_bend_c, 5, 8960
7, 292123, Pitch_bend_c, 5, 9088
7, 292232, Pitch_bend_c, 5, 9216
7, 292341, Pitch_bend_c, 5, 9344
7, 292450, Pitch_bend_c, 5, 9472
7, 292559, Pitch_bend_c, 5, 9600
7, 292560, Pitch_bend_c, 5, 9600
7, 293760, Pitch_bend_c, 5, 9600
7, 293760, Pitch_bend_c, 5, 8192
7, 293760, Note_off_c, 5, 79, 95
7, 294720, Pitch_bend_c, 5, 8192
7, 294720, Note_on_c, 5, 79, 47
7, 294725, Pitch_bend_c, 5, 8320
7, 294730, Pitch_bend_c, 5, 8448
7, 294735, Pitch_bend_c, 5, 8576
7, 294740, Pitch_bend_c, 5, 8704
7, 294745, Pitch_bend_c, 5, 8832
7, 294750, Pitch_bend_c, 5, 8960
7, 294755, Pitch_bend_c, 5, 9088
7, 294760, Pitch_bend_c, 5, 9216
7, 294765, Pitch_bend_c, 5, 9344
7, 294770, Pitch_bend_c, 5, 9472
7, 294775, Pitch_bend_c, 5, 9600
7, 294780, Pitch_bend_c, 5, 9600
7, 294840, Pitch_bend_c, 5, 9600
7, 294845, Pitch_bend_c, 5, 9472
7, 294850, Pitch_bend_c, 5, 9344
7, 294855, Pitch_bend_c, 5, 9216
7, 294860, Pitch_bend_c, 5, 9088
7, 294865, Pitch_bend_c, 5, 8960
7, 294870, Pitch_bend_c, 5, 8832
7, 294875, Pitch_bend_c, 5, 8704
7, 294880, Pitch_bend_c, 5, 8576
7, 294885, Pitch_bend_c, 5, 8448
7, 294890, Pitch_bend_c, 5, 8320
7, 294895, Pitch_bend_c, 5, 8192
7, 294900, Pitch_bend_c, 5, 8192
7, 294960, Pitch_bend_c, 5, 8192
7, 294960, Pitch_bend_c, 5, 8192
7, 294960, Note_off_c, 5, 79, 47
7, 294960, Note_on_c, 5, 79, 47
7, 295200, Note_off_c, 5, 79, 47
7, 295200, Note_on_c, 5, 76, 95
7, 295680, Note_off_c, 5, 76, 95
7, 295680, Pitch_bend_c, 5, 8192
7, 295680, Note_on_c, 5, 74, 95
7, 295701, Pitch_bend_c, 5, 8320
7, 295722, Pitch_bend_c, 5, 8448
7, 295743, Pitch_bend_c, 5, 8576
7, 295764, Pitch_bend_c, 5, 8704
7, 295785, Pitch_bend_c, 5, 8832
7, 295806, Pitch_bend_c, 5, 8960
7, 295827, Pitch_bend_c, 5, 9088
7, 295848, Pitch_bend_c, 5, 9216
7, 295869, Pitch_bend_c, 5, 9344
7, 295890, Pitch_bend_c, 5, 9472
7, 295911, Pitch_bend_c, 5, 9600
7, 295920, Pitch_bend_c, 5, 9600
7, 296160, Pitch_bend_c, 5, 9600
7, 296160, Pitch_bend_c, 5, 8192
7, 296160, Note_off_c, 5, 74, 95
7, 296160, Pitch_bend_c, 5, 8192
7, 296160, Note_on_c, 5, 74, 95
7, 296181, Pitch_bend_c, 5, 8320
7, 296202, Pitch_bend_c, 5, 8448
7, 296223, Pitch_bend_c, 5, 8576
7, 296244, Pitch_bend_c, 5, 8704
7, 296265, Pitch_bend_c, 5, 8832
7, 296286, Pitch_bend_c, 5, 8960
7, 296307, Pitch_bend_c, 5, 9088
7, 296328, Pitch_bend_c, 5, 9216
7, 296349, Pitch_bend_c, 5, 9344
7, 296370, Pitch_bend_c, 5, 9472
7, 296391, Pitch_bend_c, 5, 9600
7, 296400, Pitch_bend_c, 5, 9600
7, 296640, Pitch_bend_c, 5, 9600
7, 296640, Pitch_bend_c, 5, 8192
7, 296640, Note_off_c, 5, 74, 95
7, 296640, Pitch_bend_c, 5, 8192
7, 296640, Note_on_c, 5, 74, 95
7, 296654, Pitch_bend_c, 5, 8320
7, 296668, Pitch_bend_c, 5, 8448
7, 296682, Pitch_bend_c, 5, 8576
7, 296696, Pitch_bend_c, 5, 8704
7, 296710, Pitch_bend_c, 5, 8832
7, 296724, Pitch_bend_c, 5, 8960
7, 296738, Pitch_bend_c, 5, 9088
7, 296752, Pitch_bend_c, 5, 9216
7, 296766, Pitch_bend_c, 5, 9344
7, 296780, Pitch_bend_c, 5, 9472
7, 296794, Pitch_bend_c, 5, 9600
7, 296800, Pitch_bend_c, 5, 9600
7, 296960, Pitch_bend_c, 5, 9600
7, 296960, Pitch_bend_c, 5, 8192
7, 296960, Note_off_c, 5, 74, 95
7, 296960, Note_on_c, 5, 74, 47
7, 297120, Note_off_c, 5, 74, 47
7, 297120, Note_on_c, 5, 72, 95
7, 297600, Note_off_c, 5, 72, 95
7, 297600, Note_on_c, 5, 72, 95
7, 297840, Note_off_c, 5, 72, 95
7, 297840, Pitch_bend_c, 5, 8192
7, 297840, Note_on_c, 5, 74, 95
7, 297861, Pitch_bend_c, 5, 8320
7, 297882, Pitch_bend_c, 5, 8448
7, 297903, Pitch_bend_c, 5, 8576
7, 297924, Pitch_bend_c, 5, 8704
7, 297945, Pitch_bend_c, 5, 8832
7, 297966, Pitch_bend_c, 5, 8960
7, 297987, Pitch_bend_c, 5, 9088
7, 298008, Pitch_bend_c, 5, 9216
7, 298029, Pitch_bend_c, 5, 9344
7, 298050, Pitch_bend_c, 5, 9472
7, 298071, Pitch_bend_c, 5, 9600
7, 298080, Pitch_bend_c, 5, 9600
7, 298320, Pitch_bend_c, 5, 9600
7, 298320, Pitch_bend_c, 5, 8192
7, 298320, Note_off_c, 5, 74, 95
7, 298320, Note_on_c, 5, 79, 95
7, 298560, Note_off_c, 5, 79, 95
7, 298560, Pitch_bend_c, 5, 8192
7, 298560, Note_on_c, 5, 74, 47
7, 298565, Pitch_bend_c, 5, 8320
7, 298570, Pitch_bend_c, 5, 8448
7, 298575, Pitch_bend_c, 5, 8576
7, 298580, Pitch_bend_c, 5, 8704
7, 298585, Pitch_bend_c, 5, 8832
7, 298590, Pitch_bend_c, 5, 8960
7, 298595, Pitch_bend_c, 5, 9088
7, 298600, Pitch_bend_c, 5, 9216
7, 298605, Pitch_bend_c, 5, 9344
7, 298610, Pitch_bend_c, 5, 9472
7, 298615, Pitch_bend_c, 5, 9600
7, 298620, Pitch_bend_c, 5, 9600
7, 298680, Pitch_bend_c, 5, 9600
7, 298685, Pitch_bend_c, 5, 9472
7, 298690, Pitch_bend_c, 5, 9344
7, 298695, Pitch_bend_c, 5, 9216
7, 298700, Pitch_bend_c, 5, 9088
7, 298705, Pitch_bend_c, 5, 8960
7, 298710, Pitch_bend_c, 5, 8832
7, 298715, Pitch_bend_c, 5, 8704
7, 298720, Pitch_bend_c, 5, 8576
7, 298725, Pitch_bend_c, 5, 8448
7, 298730, Pitch_bend_c, 5, 8320
7, 298735, Pitch_bend_c, 5, 8192
7, 298740, Pitch_bend_c, 5, 8192
7, 298800, Pitch_bend_c, 5, 8192
7, 298800, Pitch_bend_c, 5, 8192
7, 298800, Note_off_c, 5, 74, 47
7, 298800, Note_on_c, 5, 74, 47
7, 299040, Note_off_c, 5, 74, 47
7, 299040, Note_on_c, 5, 72, 95
7, 299280, Note_off_c, 5, 72, 95
7, 299280, Note_on_c, 5, 69, 95
7, 299520, Note_off_c, 5, 69, 95
7, 299520, Note_on_c, 5, 72, 95
7, 299680, Pitch_bend_c, 5, 8192
7, 299840, Pitch_bend_c, 5, 8320
7, 300000, Pitch_bend_c, 5, 8192
7, 300160, Pitch_bend_c, 5, 8320
7, 300320, Pitch_bend_c, 5, 8192
7, 300480, Pitch_bend_c, 5, 8320
7, 300640, Pitch_bend_c, 5, 8192
7, 300800, Pitch_bend_c, 5, 8320
7, 300960, Pitch_bend_c, 5, 8192
7, 301120, Pitch_bend_c, 5, 8320
7, 301280, Pitch_bend_c, 5, 8192
7, 301440, Pitch_bend_c, 5, 8320
7, 301440, Pitch_bend_c, 5, 8192
7, 301440, Note_off_c, 5, 72, 95
7, 302400, Pitch_bend_c, 5, 8192
7, 302400, Note_on_c, 5, 71, 47
7, 302408, Pitch_bend_c, 5, 8320
7, 302416, Pitch_bend_c, 5, 8448
7, 302424, Pitch_bend_c, 5, 8576
7, 302432, Pitch_bend_c, 5, 8704
7, 302440, Pitch_bend_c, 5, 8832
7, 302440, Pitch_bend_c, 5, 8832
7, 302480, Pitch_bend_c, 5, 8832
7, 302488, Pitch_bend_c, 5, 8704
7, 302496, Pitch_bend_c, 5, 8576
7, 302504, Pitch_bend_c, 5, 8448
7, 302512, Pitch_bend_c, 5, 8320
7, 302520, Pitch_bend_c, 5, 8192
7, 302520, Pitch_bend_c, 5, 8192
7, 302560, Pitch_bend_c, 5, 8192
7, 302568, Pitch_bend_c, 5, 8320
7, 302576, Pitch_bend_c, 5, 8448
7, 302584, Pitch_bend_c, 5, 8576
7, 302592, Pitch_bend_c, 5, 8704
7, 302600, Pitch_bend_c, 5, 8832
7, 302600, Pitch_bend_c, 5, 8832
7, 302640, Pitch_bend_c, 5, 8832
7, 302640, Pitch_bend_c, 5, 8192
7, 302640, Note_off_c, 5, 71, 47
7, 302640, Note_on_c, 5, 71, 47
7, 303360, Note_off_c, 5, 71, 47
7, 303360, Pitch_bend_c, 5, 8192
7, 303360, Note_on_c, 5, 74, 95
7, 303381, Pitch_bend_c, 5, 8320
7, 303402, Pitch_bend_c, 5, 8448
7, 303423, Pitch_bend_c, 5, 8576
7, 303444, Pitch_bend_c, 5, 8704
7, 303465, Pitch_bend_c, 5, 8832
7, 303486, Pitch_bend_c, 5, 8960
7, 303507, Pitch_bend_c, 5, 9088
7, 303528, Pitch_bend_c, 5, 9216
7, 303549, Pitch_bend_c, 5, 9344
7, 303570, Pitch_bend_c, 5, 9472
7, 303591, Pitch_bend_c, 5, 9600
7, 303600, Pitch_bend_c, 5, 9600
7, 303840, Pitch_bend_c, 5, 9600
7, 303840, Pitch_bend_c, 5, 8192
7, 303840, Note_off_c, 5, 74, 95
7, 303840, Note_on_c, 5, 79, 95
7, 304080, Note_off_c, 5, 79, 95
7, 304080, Note_on_c, 5, 84, 95
7, 304320, Note_off_c, 5, 84, 95
7, 304320, Pitch_bend_c, 5, 8192
7, 304320, Note_on_c, 5, 74, 47
7, 304325, Pitch_bend_c, 5, 8320
7, 304330, Pitch_bend_c, 5, 8448
7, 304335, Pitch_bend_c, 5, 8576
7, 304340, Pitch_bend_c, 5, 8704
7, 304345, Pitch_bend_c, 5, 8832
7, 304350, Pitch_bend_c, 5, 8960
7, 304355, Pitch_bend_c, 5, 9088
7, 304360, Pitch_bend_c, 5, 9216
7, 304365, Pitch_bend_c, 5, 9344
7, 304370, Pitch_bend_c, 5, 9472
7, 304375, Pitch_bend_c, 5, 9600
7, 304380, Pitch_bend_c, 5, 9600
7, 304440, Pitch_bend_c, 5, 9600
7, 304445, Pitch_bend_c, 5, 9472
7, 304450, Pitch_bend_c, 5, 9344
7, 304455, Pitch_bend_c, 5, 9216
7, 304460, Pitch_bend_c, 5, 9088
7, 304465, Pitch_bend_c, 5, 8960
7, 304470, Pitch_bend_c, 5, 8832
7, 304475, Pitch_bend_c, 5, 8704
7, 304480, Pitch_bend_c, 5, 8576
7, 304485, Pitch_bend_c, 5, 8448
7, 304490, Pitch_bend_c, 5, 8320
7, 304495, Pitch_bend_c, 5, 8192
7, 304500, Pitch_bend_c, 5, 8192
7, 304560, Pitch_bend_c, 5, 8192
7, 304560, Pitch_bend_c, 5, 8192
7, 304560, Note_off_c, 5, 74, 47
7, 304560, Note_on_c, 5, 74, 47
7, 304800, Note_off_c, 5, 74, 47
7, 304800, Note_on_c, 5, 72, 95
7, 305040, Note_off_c, 5, 72, 95
7, 305040, Note_on_c, 5, 69, 95
7, 305280, Note_off_c, 5, 69, 95
7, 305280, Pitch_bend_c, 5, 8192
7, 305280, Note_on_c, 5, 74, 95
7, 305287, Pitch_bend_c, 5, 8320
7, 305294, Pitch_bend_c, 5, 8448
7, 305301, Pitch_bend_c, 5, 8576
7, 305308, Pitch_bend_c, 5, 8704
7, 305315, Pitch_bend_c, 5, 8832
7, 305322, Pitch_bend_c, 5, 8960
7, 305329, Pitch_bend_c, 5, 9088
7, 305336, Pitch_bend_c, 5, 9216
7, 305343, Pitch_bend_c, 5, 9344
7, 305350, Pitch_bend_c, 5, 9472
7, 305357, Pitch_bend_c, 5, 9600
7, 305360, Pitch_bend_c, 5, 9600
7, 305440, Pitch_bend_c, 5, 9600
7, 305447, Pitch_bend_c, 5, 9472
7, 305454, Pitch_bend_c, 5, 9344
7, 305461, Pitch_bend_c, 5, 9216
7, 305468, Pitch_bend_c, 5, 9088
7, 305475, Pitch_bend_c, 5, 8960
7, 305482, Pitch_bend_c, 5, 8832
7, 305489, Pitch_bend_c, 5, 8704
7, 305496, Pitch_bend_c, 5, 8576
7, 305503, Pitch_bend_c, 5, 8448
7, 305510, Pitch_bend_c, 5, 8320
7, 305517, Pitch_bend_c, 5, 8192
7, 305520, Pitch_bend_c, 5, 8192
7, 305600, Pitch_bend_c, 5, 8192
7, 305600, Pitch_bend_c, 5, 8192
7, 305600, Note_off_c, 5, 74, 95
7, 305600, Note_on_c, 5, 74, 47
7, 305760, Note_off_c, 5, 74, 47
7, 305760, Note_on_c, 5, 72, 95
7, 306240, Note_off_c, 5, 72, 95
7, 306240, Pitch_bend_c, 5, 8192
7, 306240, Note_on_c, 5, 74, 95
7, 306247, Pitch_bend_c, 5, 8320
7, 306254, Pitch_bend_c, 5, 8448
7, 306261, Pitch_bend_c, 5, 8576
7, 306268, Pitch_bend_c, 5, 8704
7, 306275, Pitch_bend_c, 5, 8832
7, 306282, Pitch_bend_c, 5, 8960
7, 306289, Pitch_bend_c, 5, 9088
7, 306296, Pitch_bend_c, 5, 9216
7, 306303, Pitch_bend_c, 5, 9344
7, 306310, Pitch_bend_c, 5, 9472
7, 306317, Pitch_bend_c, 5, 9600
7, 306320, Pitch_bend_c, 5, 9600
7, 306400, Pitch_bend_c, 5, 9600
7, 306407, Pitch_bend_c, 5, 9472
7, 306414, Pitch_bend_c, 5, 9344
7, 306421, Pitch_bend_c, 5, 9216
7, 306428, Pitch_bend_c, 5, 9088
7, 306435, Pitch_bend_c, 5, 8960
7, 306442, Pitch_bend_c, 5, 8832
7, 306449, Pitch_bend_c, 5, 8704
7, 306456, Pitch_bend_c, 5, 8576
7, 306463, Pitch_bend_c, 5, 8448
7, 306470, Pitch_bend_c, 5, 8320
7, 306477, Pitch_bend_c, 5, 8192
7, 306480, Pitch_bend_c, 5, 8192
7, 306560, Pitch_bend_c, 5, 8192
7, 306560, Pitch_bend_c, 5, 8192
7, 306560, Note_off_c, 5, 74, 95
7, 306560, Note_on_c, 5, 74, 47
7, 306720, Note_off_c, 5, 74, 47
7, 306720, Note_on_c, 5, 67, 95
7, 306960, Note_off_c, 5, 67, 95
7, 306960, Note_on_c, 5, 69, 95
7, 307200, Note_off_c, 5, 69, 95
7, 307200, Note_on_c, 5, 67, 95
7, 307440, Note_off_c, 5, 67, 95
7, 307440, Note_on_c, 5, 69, 70
7, 309120, Note_off_c, 5, 69, 70
7, 311040, Note_on_c, 5, 65, 95
7, 311160, Pitch_bend_c, 5, 8832
7, 311280, Pitch_bend_c, 5, 9600
7, 311280, Pitch_bend_c, 5, 8192
7, 311280, Note_off_c, 5, 65, 95
7, 311280, Note_on_c, 5, 67, 95
7, 312960, Note_off_c, 5, 67, 95
7, 312960, Note_on_c, 5, 69, 47
7, 313440, Note_off_c, 5, 69, 47
7, 313440, Note_on_c, 5, 72, 95
7, 313920, Note_off_c, 5, 72, 95
7, 313920, Note_on_c, 5, 72, 95
7, 314400, Note_off_c, 5, 72, 95
7, 314400, Note_on_c, 5, 69, 47
7, 314880, Note_off_c, 5, 69, 47
7, 314880, Pitch_bend_c, 5, 8192
7, 314880, Note_on_c, 5, 74, 95
7, 314967, Pitch_bend_c, 5, 8320
7, 315054, Pitch_bend_c, 5, 8448
7, 315141, Pitch_bend_c, 5, 8576
7, 315228, Pitch_bend_c, 5, 8704
7, 315315, Pitch_bend_c, 5, 8832
7, 315402, Pitch_bend_c, 5, 8960
7, 315489, Pitch_bend_c, 5, 9088
7, 315576, Pitch_bend_c, 5, 9216
7, 315663, Pitch_bend_c, 5, 9344
7, 315750, Pitch_bend_c, 5, 9472
7, 315837, Pitch_bend_c, 5, 9600
7, 315840, Pitch_bend_c, 5, 9600
7, 316800, Pitch_bend_c, 5, 9600
7, 316800, Pitch_bend_c, 5, 8192
7, 316800, Note_off_c, 5, 74, 95
7, 317040, Note_on_c, 5, 72, 95
7, 317280, Note_off_c, 5, 72, 95
7, 317280, Note_on_c, 5, 72, 95
7, 317520, Note_off_c, 5, 72, 95
7, 317520, Note_on_c, 5, 69, 95
7, 317760, Note_off_c, 5, 69, 95
7, 317760, Note_on_c, 5, 72, 95
7, 318000, Note_off_c, 5, 72, 95
7, 318000, Note_on_c, 5, 69, 95
7, 318240, Note_off_c, 5, 69, 95
7, 318240, Note_on_c, 5, 72, 95
7, 318480, Note_off_c, 5, 72, 95
7, 318480, Note_on_c, 5, 69, 95
7, 318720, Note_off_c, 5, 69, 95
7, 318720, Note_on_c, 5, 72, 95
7, 319200, Note_off_c, 5, 72, 95
7, 319200, Note_on_c, 5, 69, 95
7, 319360, Pitch_bend_c, 5, 8192
7, 319520, Pitch_bend_c, 5, 8320
7, 319680, Pitch_bend_c, 5, 8192
7, 319840, Pitch_bend_c, 5, 8320
7, 320000, Pitch_bend_c, 5, 8192
7, 320160, Pitch_bend_c, 5, 8320
7, 320160, Pitch_bend_c, 5, 8192
7, 320160, Note_off_c, 5, 69, 95
7, 321600, Note_on_c, 5, 72, 95
7, 322080, Note_off_c, 5, 72, 95
7, 322080, Note_on_c, 5, 69, 95
7, 322560, Note_off_c, 5, 69, 95
7, 322560, Note_on_c, 5, 70, 95
7, 322720, Pitch_bend_c, 5, 8192
7, 322880, Pitch_bend_c, 5, 8320
7, 323040, Pitch_bend_c, 5, 8192
7, 323200, Pitch_bend_c, 5, 8320
7, 323360, Pitch_bend_c, 5, 8192
7, 323520, Pitch_bend_c, 5, 8320
7, 323520, Pitch_bend_c, 5, 8192
7, 323520, Note_off_c, 5, 70, 95
7, 323520, Note_on_c, 5, 70, 95
7, 323680, Pitch_bend_c, 5, 8192
7, 323840, Pitch_bend_c, 5, 8320
7, 324000, Pitch_bend_c, 5, 8192
7, 324160, Pitch_bend_c, 5, 8320
7, 324320, Pitch_bend_c, 5, 8192
7, 324480, Pitch_bend_c, 5, 8320
7, 324480, Pitch_bend_c, 5, 8192
7, 324480, Note_off_c, 5, 70, 95
7, 324480, Pitch_bend_c, 5, 8192
7, 324480, Note_on_c, 5, 65, 47
7, 324485, Pitch_bend_c, 5, 8320
7, 324490, Pitch_bend_c, 5, 8448
7, 324495, Pitch_bend_c, 5, 8576
7, 324500, Pitch_bend_c, 5, 8704
7, 324505, Pitch_bend_c, 5, 8832
7, 324510, Pitch_bend_c, 5, 8960
7, 324515, Pitch_bend_c, 5, 9088
7, 324520, Pitch_bend_c, 5, 9216
7, 324525, Pitch_bend_c, 5, 9344
7, 324530, Pitch_bend_c, 5, 9472
7, 324535, Pitch_bend_c, 5, 9600
7, 324540, Pitch_bend_c, 5, 9600
7, 324600, Pitch_bend_c, 5, 9600
7, 324605, Pitch_bend_c, 5, 9472
7, 324610, Pitch_bend_c, 5, 9344
7, 324615, Pitch_bend_c, 5, 9216
7, 324620, Pitch_bend_c, 5, 9088
7, 324625, Pitch_bend_c, 5, 8960
7, 324630, Pitch_bend_c, 5, 8832
7, 324635, Pitch_bend_c, 5, 8704
7, 324640, Pitch_bend_c, 5, 8576
7, 324645, Pitch_bend_c, 5, 8448
7, 324650, Pitch_bend_c, 5, 8320
7, 324655, Pitch_bend_c, 5, 8192
7, 324660, Pitch_bend_c, 5, 8192
7, 324720, Pitch_bend_c, 5, 8192
7, 324720, Pitch_bend_c, 5, 8192
7, 324720, Note_off_c, 5, 65, 47
7, 324720, Note_on_c, 5, 65, 47
7, 325440, Note_off_c, 5, 65, 47
7, 325440, Note_on_c, 5, 63, 95
7, 325680, Note_off_c, 5, 63, 95
7, 325680, Note_on_c, 5, 60, 95
7, 325920, Note_off_c, 5, 60, 95
7, 325920, Note_on_c, 5, 58, 95
7, 326160, Note_off_c, 5, 58, 95
7, 326160, Note_on_c, 5, 57, 95
7, 326400, Note_off_c, 5, 57, 95
7, 326400, End_track
8, 0, Start_track
8, 0, Pitch_bend_c, 6, 8192
8, 0, Control_c, 6, 7, 71
8, 0, Control_c, 6, 10, 63
8, 0, Control_c, 6, 93, 79
8, 0, Control_c, 6, 91, 79
8, 0, Control_c, 6, 95, 0
8, 0, Control_c, 6, 92, 0
8, 0, Control_c, 6, 11, 127
8, 0, Program_c, 6, 18
8, 3840, Note_on_c, 6, 76, 79
8, 3840, Note_on_c, 6, 72, 79
8, 3840, Note_on_c, 6, 67, 79
8, 4800, Note_off_c, 6, 76, 79
8, 4800, Note_off_c, 6, 72, 79
8, 4800, Note_off_c, 6, 67, 79
8, 4800, Note_on_c, 6, 81, 79
8, 4800, Note_on_c, 6, 77, 95
8, 4800, Note_on_c, 6, 72, 79
8, 5760, Note_off_c, 6, 81, 79
8, 5760, Note_off_c, 6, 77, 95
8, 5760, Note_off_c, 6, 72, 79
8, 5760, Note_on_c, 6, 79, 79
8, 5760, Note_on_c, 6, 76, 79
8, 5760, Note_on_c, 6, 71, 79
8, 6720, Note_off_c, 6, 79, 79
8, 6720, Note_off_c, 6, 76, 79
8, 6720, Note_off_c, 6, 71, 79
8, 6720, Note_on_c, 6, 77, 79
8, 6720, Note_on_c, 6, 74, 79
8, 6720, Note_on_c, 6, 69, 79
8, 7680, Note_off_c, 6, 77, 79
8, 7680, Note_off_c, 6, 74, 79
8, 7680, Note_off_c, 6, 69, 79
8, 7680, Note_on_c, 6, 76, 79
8, 7680, Note_on_c, 6, 72, 79
8, 7680, Note_on_c, 6, 67, 79
8, 8640, Note_off_c, 6, 76, 79
8, 8640, Note_off_c, 6, 72, 79
8, 8640, Note_off_c, 6, 67, 79
8, 8640, Note_on_c, 6, 81, 79
8, 8640, Note_on_c, 6, 77, 95
8, 8640, Note_on_c, 6, 72, 79
8, 9600, Note_off_c, 6, 81, 79
8, 9600, Note_off_c, 6, 77, 95
8, 9600, Note_off_c, 6, 72, 79
8, 9600, Note_on_c, 6, 79, 79
8, 9600, Note_on_c, 6, 76, 79
8, 9600, Note_on_c, 6, 71, 79
8, 10560, Note_off_c, 6, 79, 79
8, 10560, Note_off_c, 6, 76, 79
8, 10560, Note_off_c, 6, 71, 79
8, 10560, Note_on_c, 6, 77, 79
8, 10560, Note_on_c, 6, 74, 79
8, 10560, Note_on_c, 6, 69, 79
8, 11520, Note_off_c, 6, 77, 79
8, 11520, Note_off_c, 6, 74, 79
8, 11520, Note_off_c, 6, 69, 79
8, 11520, Note_on_c, 6, 76, 79
8, 11520, Note_on_c, 6, 72, 79
8, 11520, Note_on_c, 6, 67, 79
8, 12480, Note_off_c, 6, 76, 79
8, 12480, Note_off_c, 6, 72, 79
8, 12480, Note_off_c, 6, 67, 79
8, 12480, Note_on_c, 6, 81, 79
8, 12480, Note_on_c, 6, 77, 95
8, 12480, Note_on_c, 6, 72, 79
8, 13440, Note_off_c, 6, 81, 79
8, 13440, Note_off_c, 6, 77, 95
8, 13440, Note_off_c, 6, 72, 79
8, 13440, Note_on_c, 6, 79, 79
8, 13440, Note_on_c, 6, 76, 79
8, 13440, Note_on_c, 6, 71, 79
8, 14400, Note_off_c, 6, 79, 79
8, 14400, Note_off_c, 6, 76, 79
8, 14400, Note_off_c, 6, 71, 79
8, 14400, Note_on_c, 6, 77, 79
8, 14400, Note_on_c, 6, 74, 79
8, 14400, Note_on_c, 6, 69, 79
8, 15360, Note_off_c, 6, 77, 79
8, 15360, Note_off_c, 6, 74, 79
8, 15360, Note_off_c, 6, 69, 79
8, 15360, Note_on_c, 6, 76, 79
8, 15360, Note_on_c, 6, 72, 79
8, 15360, Note_on_c, 6, 67, 79
8, 16320, Note_off_c, 6, 76, 79
8, 16320, Note_off_c, 6, 72, 79
8, 16320, Note_off_c, 6, 67, 79
8, 16320, Note_on_c, 6, 81, 79
8, 16320, Note_on_c, 6, 77, 95
8, 16320, Note_on_c, 6, 72, 79
8, 17280, Note_off_c, 6, 81, 79
8, 17280, Note_off_c, 6, 77, 95
8, 17280, Note_off_c, 6, 72, 79
8, 17280, Note_on_c, 6, 79, 79
8, 17280, Note_on_c, 6, 76, 79
8, 17280, Note_on_c, 6, 71, 79
8, 18240, Note_off_c, 6, 79, 79
8, 18240, Note_off_c, 6, 76, 79
8, 18240, Note_off_c, 6, 71, 79
8, 18240, Note_on_c, 6, 77, 79
8, 18240, Note_on_c, 6, 74, 79
8, 18240, Note_on_c, 6, 69, 79
8, 19200, Note_off_c, 6, 77, 79
8, 19200, Note_off_c, 6, 74, 79
8, 19200, Note_off_c, 6, 69, 79
8, 19200, Note_on_c, 6, 76, 79
8, 19200, Note_on_c, 6, 72, 79
8, 19200, Note_on_c, 6, 67, 79
8, 21000, Note_off_c, 6, 76, 79
8, 21000, Note_off_c, 6, 72, 79
8, 21000, Note_off_c, 6, 67, 79
8, 21120, Note_on_c, 6, 79, 79
8, 21120, Note_on_c, 6, 74, 79
8, 21120, Note_on_c, 6, 71, 79
8, 22920, Note_off_c, 6, 79, 79
8, 22920, Note_off_c, 6, 74, 79
8, 22920, Note_off_c, 6, 71, 79
8, 23040, Note_on_c, 6, 81, 79
8, 23040, Note_on_c, 6, 76, 63
8, 23040, Note_on_c, 6, 72, 63
8, 26760, Note_off_c, 6, 81, 79
8, 26760, Note_off_c, 6, 76, 63
8, 26760, Note_off_c, 6, 72, 63
8, 26880, Note_on_c, 6, 81, 79
8, 26880, Note_on_c, 6, 77, 79
8, 26880, Note_on_c, 6, 72, 63
8, 30600, Note_off_c, 6, 81, 79
8, 30600, Note_off_c, 6, 77, 79
8, 30600, Note_off_c, 6, 72, 63
8, 30720, Note_on_c, 6, 79, 79
8, 30720, Note_on_c, 6, 76, 79
8, 30720, Note_on_c, 6, 72, 79
8, 31680, Note_off_c, 6, 79, 79
8, 31680, Note_off_c, 6, 76, 79
8, 31680, Note_off_c, 6, 72, 79
8, 31680, Note_on_c, 6, 81, 79
8, 31680, Note_on_c, 6, 77, 79
8, 31680, Note_on_c, 6, 72, 79
8, 32640, Note_off_c, 6, 81, 79
8, 32640, Note_off_c, 6, 77, 79
8, 32640, Note_off_c, 6, 72, 79
8, 32640, Note_on_c, 6, 79, 79
8, 32640, Note_on_c, 6, 76, 79
8, 32640, Note_on_c, 6, 71, 79
8, 33600, Note_off_c, 6, 79, 79
8, 33600, Note_off_c, 6, 76, 79
8, 33600, Note_off_c, 6, 71, 79
8, 33600, Note_on_c, 6, 77, 79
8, 33600, Note_on_c, 6, 74, 79
8, 33600, Note_on_c, 6, 69, 63
8, 34560, Note_off_c, 6, 77, 79
8, 34560, Note_off_c, 6, 74, 79
8, 34560, Note_off_c, 6, 69, 63
8, 34560, Note_on_c, 6, 76, 79
8, 34560, Note_on_c, 6, 68, 79
8, 34560, Note_on_c, 6, 62, 79
8, 36480, Note_off_c, 6, 76, 79
8, 36480, Note_off_c, 6, 68, 79
8, 36480, Note_off_c, 6, 62, 79
8, 36480, Note_on_c, 6, 79, 79
8, 36480, Note_on_c, 6, 74, 79
8, 36480, Note_on_c, 6, 71, 79
8, 38400, Note_off_c, 6, 79, 79
8, 38400, Note_off_c, 6, 74, 79
8, 38400, Note_off_c, 6, 71, 79
8, 38400, Note_on_c, 6, 76, 79
8, 38400, Note_on_c, 6, 72, 63
8, 38400, Note_on_c, 6, 72, 79
8, 42240, Note_off_c, 6, 76, 79
8, 42240, Note_off_c, 6, 72, 63
8, 42240, Note_off_c, 6, 72, 79
8, 42240, Note_on_c, 6, 78, 79
8, 42240, Note_on_c, 6, 74, 79
8, 42240, Note_on_c, 6, 69, 79
8, 46080, Note_off_c, 6, 78, 79
8, 46080, Note_off_c, 6, 74, 79
8, 46080, Note_off_c, 6, 69, 79
8, 46080, Note_on_c, 6, 79, 79
8, 46080, Note_on_c, 6, 74, 79
8, 46080, Note_on_c, 6, 71, 79
8, 48120, Note_off_c, 6, 79, 79
8, 48120, Note_off_c, 6, 74, 79
8, 48120, Note_off_c, 6, 71, 79
8, 48480, Note_on_c, 6, 76, 95
8, 48480, Note_on_c, 6, 71, 95
8, 48480, Note_on_c, 6, 67, 79
8, 48720, Note_off_c, 6, 76, 95
8, 48720, Note_off_c, 6, 71, 95
8, 48720, Note_off_c, 6, 67, 79
8, 48960, Note_on_c, 6, 79, 95
8, 48960, Note_on_c, 6, 74, 95
8, 48960, Note_on_c, 6, 71, 95
8, 49200, Note_off_c, 6, 79, 95
8, 49200, Note_off_c, 6, 74, 95
8, 49200, Note_off_c, 6, 71, 95
8, 49440, Note_on_c, 6, 81, 95
8, 49440, Note_on_c, 6, 76, 95
8, 49440, Note_on_c, 6, 72, 79
8, 53640, Note_off_c, 6, 81, 95
8, 53640, Note_off_c, 6, 76, 95
8, 53640, Note_off_c, 6, 72, 79
8, 53760, Note_on_c, 6, 81, 79
8, 53760, Note_on_c, 6, 77, 79
8, 53760, Note_on_c, 6, 72, 63
8, 55800, Note_off_c, 6, 81, 79
8, 55800, Note_off_c, 6, 77, 79
8, 55800, Note_off_c, 6, 72, 63
8, 56160, Note_on_c, 6, 76, 95
8, 56160, Note_on_c, 6, 71, 95
8, 56160, Note_on_c, 6, 67, 95
8, 56400, Note_off_c, 6, 76, 95
8, 56400, Note_off_c, 6, 71, 95
8, 56400, Note_off_c, 6, 67, 95
8, 56640, Note_on_c, 6, 79, 95
8, 56640, Note_on_c, 6, 74, 95
8, 56640, Note_on_c, 6, 71, 95
8, 57000, Note_off_c, 6, 79, 95
8, 57000, Note_off_c, 6, 74, 95
8, 57000, Note_off_c, 6, 71, 95
8, 57120, Note_on_c, 6, 81, 95
8, 57120, Note_on_c, 6, 76, 79
8, 57120, Note_on_c, 6, 72, 79
8, 61440, Note_off_c, 6, 81, 95
8, 61440, Note_off_c, 6, 76, 79
8, 61440, Note_off_c, 6, 72, 79
8, 61440, Note_on_c, 6, 78, 79
8, 61440, Note_on_c, 6, 74, 79
8, 61440, Note_on_c, 6, 69, 79
8, 63360, Note_off_c, 6, 78, 79
8, 63360, Note_off_c, 6, 74, 79
8, 63360, Note_off_c, 6, 69, 79
8, 63360, Note_on_c, 6, 79, 79
8, 63360, Note_on_c, 6, 74, 79
8, 63360, Note_on_c, 6, 71, 79
8, 65280, Note_off_c, 6, 79, 79
8, 65280, Note_off_c, 6, 74, 79
8, 65280, Note_off_c, 6, 71, 79
8, 65280, Note_on_c, 6, 76, 79
8, 65280, Note_on_c, 6, 72, 79
8, 65280, Note_on_c, 6, 67, 79
8, 67200, Note_off_c, 6, 76, 79
8, 67200, Note_off_c, 6, 72, 79
8, 67200, Note_off_c, 6, 67, 79
8, 67200, Note_on_c, 6, 79, 79
8, 67200, Note_on_c, 6, 74, 79
8, 67200, Note_on_c, 6, 71, 79
8, 69000, Note_off_c, 6, 79, 79
8, 69000, Note_off_c, 6, 74, 79
8, 69000, Note_off_c, 6, 71, 79
8, 69120, Note_on_c, 6, 81, 79
8, 69120, Note_on_c, 6, 76, 63
8, 69120, Note_on_c, 6, 72, 63
8, 72840, Note_off_c, 6, 81, 79
8, 72840, Note_off_c, 6, 76, 63
8, 72840, Note_off_c, 6, 72, 63
8, 72960, Note_on_c, 6, 77, 79
8, 72960, Note_on_c, 6, 72, 63
8, 72960, Note_on_c, 6, 69, 79
8, 74880, Note_off_c, 6, 77, 79
8, 74880, Note_off_c, 6, 72, 63
8, 74880, Note_off_c, 6, 69, 79
8, 74880, Note_on_c, 6, 79, 79
8, 74880, Note_on_c, 6, 74, 79
8, 74880, Note_on_c, 6, 71, 79
8, 76800, Note_off_c, 6, 79, 79
8, 76800, Note_off_c, 6, 74, 79
8, 76800, Note_off_c, 6, 71, 79
8, 76800, Note_on_c, 6, 76, 79
8, 76800, Note_on_c, 6, 72, 79
8, 76800, Note_on_c, 6, 67, 79
8, 77760, Note_off_c, 6, 76, 79
8, 77760, Note_off_c, 6, 72, 79
8, 77760, Note_off_c, 6, 67, 79
8, 77760, Note_on_c, 6, 81, 79
8, 77760, Note_on_c, 6, 77, 95
8, 77760, Note_on_c, 6, 72, 79
8, 78720, Note_off_c, 6, 81, 79
8, 78720, Note_off_c, 6, 77, 95
8, 78720, Note_off_c, 6, 72, 79
8, 78720, Note_on_c, 6, 79, 79
8, 78720, Note_on_c, 6, 76, 79
8, 78720, Note_on_c, 6, 71, 79
8, 79680, Note_off_c, 6, 79, 79
8, 79680, Note_off_c, 6, 76, 79
8, 79680, Note_off_c, 6, 71, 79
8, 79680, Note_on_c, 6, 77, 79
8, 79680, Note_on_c, 6, 74, 79
8, 79680, Note_on_c, 6, 69, 79
8, 80640, Note_off_c, 6, 77, 79
8, 80640, Note_off_c, 6, 74, 79
8, 80640, Note_off_c, 6, 69, 79
8, 80640, Note_on_c, 6, 76, 79
8, 80640, Note_on_c, 6, 72, 79
8, 80640, Note_on_c, 6, 67, 79
8, 81600, Note_off_c, 6, 76, 79
8, 81600, Note_off_c, 6, 72, 79
8, 81600, Note_off_c, 6, 67, 79
8, 81600, Note_on_c, 6, 81, 79
8, 81600, Note_on_c, 6, 77, 95
8, 81600, Note_on_c, 6, 72, 79
8, 82560, Note_off_c, 6, 81, 79
8, 82560, Note_off_c, 6, 77, 95
8, 82560, Note_off_c, 6, 72, 79
8, 82560, Note_on_c, 6, 79, 79
8, 82560, Note_on_c, 6, 76, 79
8, 82560, Note_on_c, 6, 71, 79
8, 83520, Note_off_c, 6, 79, 79
8, 83520, Note_off_c, 6, 76, 79
8, 83520, Note_off_c, 6, 71, 79
8, 83520, Note_on_c, 6, 77, 79
8, 83520, Note_on_c, 6, 74, 79
8, 83520, Note_on_c, 6, 69, 79
8, 84480, Note_off_c, 6, 77, 79
8, 84480, Note_off_c, 6, 74, 79
8, 84480, Note_off_c, 6, 69, 79
8, 84480, Note_on_c, 6, 76, 79
8, 84480, Note_on_c, 6, 72, 79
8, 84480, Note_on_c, 6, 67, 79
8, 86400, Note_off_c, 6, 76, 79
8, 86400, Note_off_c, 6, 72, 79
8, 86400, Note_off_c, 6, 67, 79
8, 86400, Note_on_c, 6, 79, 79
8, 86400, Note_on_c, 6, 74, 79
8, 86400, Note_on_c, 6, 71, 79
8, 88200, Note_off_c, 6, 79, 79
8, 88200, Note_off_c, 6, 74, 79
8, 88200, Note_off_c, 6, 71, 79
8, 88320, Note_on_c, 6, 81, 79
8, 88320, Note_on_c, 6, 76, 63
8, 88320, Note_on_c, 6, 72, 63
8, 92040, Note_off_c, 6, 81, 79
8, 92040, Note_off_c, 6, 76, 63
8, 92040, Note_off_c, 6, 72, 63
8, 92160, Note_on_c, 6, 77, 79
8, 92160, Note_on_c, 6, 72, 63
8, 92160, Note_on_c, 6, 69, 79
8, 96000, Note_off_c, 6, 77, 79
8, 96000, Note_off_c, 6, 72, 63
8, 96000, Note_off_c, 6, 69, 79
8, 96000, Note_on_c, 6, 76, 79
8, 96000, Note_on_c, 6, 72, 79
8, 96000, Note_on_c, 6, 67, 79
8, 96960, Note_off_c, 6, 76, 79
8, 96960, Note_off_c, 6, 72, 79
8, 96960, Note_off_c, 6, 67, 79
8, 96960, Note_on_c, 6, 81, 79
8, 96960, Note_on_c, 6, 77, 95
8, 96960, Note_on_c, 6, 72, 79
8, 97920, Note_off_c, 6, 81, 79
8, 97920, Note_off_c, 6, 77, 95
8, 97920, Note_off_c, 6, 72, 79
8, 97920, Note_on_c, 6, 79, 79
8, 97920, Note_on_c, 6, 76, 79
8, 97920, Note_on_c, 6, 71, 79
8, 98880, Note_off_c, 6, 79, 79
8, 98880, Note_off_c, 6, 76, 79
8, 98880, Note_off_c, 6, 71, 79
8, 98880, Note_on_c, 6, 77, 79
8, 98880, Note_on_c, 6, 74, 79
8, 98880, Note_on_c, 6, 69, 79
8, 99840, Note_off_c, 6, 77, 79
8, 99840, Note_off_c, 6, 74, 79
8, 99840, Note_off_c, 6, 69, 79
8, 99840, Note_on_c, 6, 76, 79
8, 99840, Note_on_c, 6, 68, 79
8, 99840, Note_on_c, 6, 62, 79
8, 101760, Note_off_c, 6, 76, 79
8, 101760, Note_off_c, 6, 68, 79
8, 101760, Note_off_c, 6, 62, 79
8, 101760, Note_on_c, 6, 79, 79
8, 101760, Note_on_c, 6, 74, 79
8, 101760, Note_on_c, 6, 71, 79
8, 103680, Note_off_c, 6, 79, 79
8, 103680, Note_off_c, 6, 74, 79
8, 103680, Note_off_c, 6, 71, 79
8, 103680, Note_on_c, 6, 76, 79
8, 103680, Note_on_c, 6, 72, 63
8, 103680, Note_on_c, 6, 72, 79
8, 107520, Note_off_c, 6, 76, 79
8, 107520, Note_off_c, 6, 72, 63
8, 107520, Note_off_c, 6, 72, 79
8, 107520, Note_on_c, 6, 78, 79
8, 107520, Note_on_c, 6, 74, 79
8, 107520, Note_on_c, 6, 69, 79
8, 111360, Note_off_c, 6, 78, 79
8, 111360, Note_off_c, 6, 74, 79
8, 111360, Note_off_c, 6, 69, 79
8, 111360, Note_on_c, 6, 79, 79
8, 111360, Note_on_c, 6, 74, 79
8, 111360, Note_on_c, 6, 71, 79
8, 113400, Note_off_c, 6, 79, 79
8, 113400, Note_off_c, 6, 74, 79
8, 113400, Note_off_c, 6, 71, 79
8, 113760, Note_on_c, 6, 76, 95
8, 113760, Note_on_c, 6, 71, 95
8, 113760, Note_on_c, 6, 67, 79
8, 114000, Note_off_c, 6, 76, 95
8, 114000, Note_off_c, 6, 71, 95
8, 114000, Note_off_c, 6, 67, 79
8, 114240, Note_on_c, 6, 79, 95
8, 114240, Note_on_c, 6, 74, 95
8, 114240, Note_on_c, 6, 71, 95
8, 114480, Note_off_c, 6, 79, 95
8, 114480, Note_off_c, 6, 74, 95
8, 114480, Note_off_c, 6, 71, 95
8, 114720, Note_on_c, 6, 81, 95
8, 114720, Note_on_c, 6, 76, 95
8, 114720, Note_on_c, 6, 72, 79
8, 118920, Note_off_c, 6, 81, 95
8, 118920, Note_off_c, 6, 76, 95
8, 118920, Note_off_c, 6, 72, 79
8, 119040, Note_on_c, 6, 81, 79
8, 119040, Note_on_c, 6, 77, 79
8, 119040, Note_on_c, 6, 72, 63
8, 121080, Note_off_c, 6, 81, 79
8, 121080, Note_off_c, 6, 77, 79
8, 121080, Note_off_c, 6, 72, 63
8, 121440, Note_on_c, 6, 76, 95
8, 121440, Note_on_c, 6, 71, 95
8, 121440, Note_on_c, 6, 67, 95
8, 121680, Note_off_c, 6, 76, 95
8, 121680, Note_off_c, 6, 71, 95
8, 121680, Note_off_c, 6, 67, 95
8, 121920, Note_on_c, 6, 79, 95
8, 121920, Note_on_c, 6, 74, 95
8, 121920, Note_on_c, 6, 71, 95
8, 122280, Note_off_c, 6, 79, 95
8, 122280, Note_off_c, 6, 74, 95
8, 122280, Note_off_c, 6, 71, 95
8, 122400, Note_on_c, 6, 81, 95
8, 122400, Note_on_c, 6, 76, 79
8, 122400, Note_on_c, 6, 72, 79
8, 126720, Note_off_c, 6, 81, 95
8, 126720, Note_off_c, 6, 76, 79
8, 126720, Note_off_c, 6, 72, 79
8, 126720, Note_on_c, 6, 78, 79
8, 126720, Note_on_c, 6, 74, 79
8, 126720, Note_on_c, 6, 69, 79
8, 128640, Note_off_c, 6, 78, 79
8, 128640, Note_off_c, 6, 74, 79
8, 128640, Note_off_c, 6, 69, 79
8, 128640, Note_on_c, 6, 79, 79
8, 128640, Note_on_c, 6, 74, 79
8, 128640, Note_on_c, 6, 71, 79
8, 130560, Note_off_c, 6, 79, 79
8, 130560, Note_off_c, 6, 74, 79
8, 130560, Note_off_c, 6, 71, 79
8, 130560, Note_on_c, 6, 76, 79
8, 130560, Note_on_c, 6, 72, 79
8, 130560, Note_on_c, 6, 67, 79
8, 132480, Note_off_c, 6, 76, 79
8, 132480, Note_off_c, 6, 72, 79
8, 132480, Note_off_c, 6, 67, 79
8, 132480, Note_on_c, 6, 79, 79
8, 132480, Note_on_c, 6, 74, 79
8, 132480, Note_on_c, 6, 71, 79
8, 134280, Note_off_c, 6, 79, 79
8, 134280, Note_off_c, 6, 74, 79
8, 134280, Note_off_c, 6, 71, 79
8, 134400, Note_on_c, 6, 81, 79
8, 134400, Note_on_c, 6, 76, 63
8, 134400, Note_on_c, 6, 72, 63
8, 138120, Note_off_c, 6, 81, 79
8, 138120, Note_off_c, 6, 76, 63
8, 138120, Note_off_c, 6, 72, 63
8, 138240, Note_on_c, 6, 77, 79
8, 138240, Note_on_c, 6, 72, 63
8, 138240, Note_on_c, 6, 69, 79
8, 140160, Note_off_c, 6, 77, 79
8, 140160, Note_off_c, 6, 72, 63
8, 140160, Note_off_c, 6, 69, 79
8, 140160, Note_on_c, 6, 79, 79
8, 140160, Note_on_c, 6, 74, 79
8, 140160, Note_on_c, 6, 71, 79
8, 142080, Note_off_c, 6, 79, 79
8, 142080, Note_off_c, 6, 74, 79
8, 142080, Note_off_c, 6, 71, 79
8, 142080, Note_on_c, 6, 76, 79
8, 142080, Note_on_c, 6, 72, 79
8, 142080, Note_on_c, 6, 67, 79
8, 143040, Note_off_c, 6, 76, 79
8, 143040, Note_off_c, 6, 72, 79
8, 143040, Note_off_c, 6, 67, 79
8, 143040, Note_on_c, 6, 81, 79
8, 143040, Note_on_c, 6, 77, 95
8, 143040, Note_on_c, 6, 72, 79
8, 144000, Note_off_c, 6, 81, 79
8, 144000, Note_off_c, 6, 77, 95
8, 144000, Note_off_c, 6, 72, 79
8, 144000, Note_on_c, 6, 79, 79
8, 144000, Note_on_c, 6, 76, 79
8, 144000, Note_on_c, 6, 71, 79
8, 144960, Note_off_c, 6, 79, 79
8, 144960, Note_off_c, 6, 76, 79
8, 144960, Note_off_c, 6, 71, 79
8, 144960, Note_on_c, 6, 77, 79
8, 144960, Note_on_c, 6, 74, 79
8, 144960, Note_on_c, 6, 69, 79
8, 145920, Note_off_c, 6, 77, 79
8, 145920, Note_off_c, 6, 74, 79
8, 145920, Note_off_c, 6, 69, 79
8, 145920, Note_on_c, 6, 76, 79
8, 145920, Note_on_c, 6, 72, 79
8, 145920, Note_on_c, 6, 67, 79
8, 146880, Note_off_c, 6, 76, 79
8, 146880, Note_off_c, 6, 72, 79
8, 146880, Note_off_c, 6, 67, 79
8, 146880, Note_on_c, 6, 81, 79
8, 146880, Note_on_c, 6, 77, 95
8, 146880, Note_on_c, 6, 72, 79
8, 147840, Note_off_c, 6, 81, 79
8, 147840, Note_off_c, 6, 77, 95
8, 147840, Note_off_c, 6, 72, 79
8, 147840, Note_on_c, 6, 79, 79
8, 147840, Note_on_c, 6, 76, 79
8, 147840, Note_on_c, 6, 71, 79
8, 148800, Note_off_c, 6, 79, 79
8, 148800, Note_off_c, 6, 76, 79
8, 148800, Note_off_c, 6, 71, 79
8, 148800, Note_on_c, 6, 77, 79
8, 148800, Note_on_c, 6, 74, 79
8, 148800, Note_on_c, 6, 69, 79
8, 149760, Note_off_c, 6, 77, 79
8, 149760, Note_off_c, 6, 74, 79
8, 149760, Note_off_c, 6, 69, 79
8, 149760, Note_on_c, 6, 76, 79
8, 149760, Note_on_c, 6, 71, 79
8, 149760, Note_on_c, 6, 69, 79
8, 153600, Note_off_c, 6, 76, 79
8, 153600, Note_off_c, 6, 71, 79
8, 153600, Note_off_c, 6, 69, 79
8, 245760, Note_on_c, 6, 76, 79
8, 245760, Note_on_c, 6, 72, 79
8, 245760, Note_on_c, 6, 67, 79
8, 246720, Note_off_c, 6, 76, 79
8, 246720, Note_off_c, 6, 72, 79
8, 246720, Note_off_c, 6, 67, 79
8, 246720, Note_on_c, 6, 81, 79
8, 246720, Note_on_c, 6, 77, 95
8, 246720, Note_on_c, 6, 72, 79
8, 247680, Note_off_c, 6, 81, 79
8, 247680, Note_off_c, 6, 77, 95
8, 247680, Note_off_c, 6, 72, 79
8, 247680, Note_on_c, 6, 79, 79
8, 247680, Note_on_c, 6, 76, 79
8, 247680, Note_on_c, 6, 71, 79
8, 248640, Note_off_c, 6, 79, 79
8, 248640, Note_off_c, 6, 76, 79
8, 248640, Note_off_c, 6, 71, 79
8, 248640, Note_on_c, 6, 77, 79
8, 248640, Note_on_c, 6, 74, 79
8, 248640, Note_on_c, 6, 69, 79
8, 249600, Note_off_c, 6, 77, 79
8, 249600, Note_off_c, 6, 74, 79
8, 249600, Note_off_c, 6, 69, 79
8, 249600, Note_on_c, 6, 76, 79
8, 249600, Note_on_c, 6, 72, 79
8, 249600, Note_on_c, 6, 67, 79
8, 250560, Note_off_c, 6, 76, 79
8, 250560, Note_off_c, 6, 72, 79
8, 250560, Note_off_c, 6, 67, 79
8, 250560, Note_on_c, 6, 81, 79
8, 250560, Note_on_c, 6, 77, 95
8, 250560, Note_on_c, 6, 72, 79
8, 251520, Note_off_c, 6, 81, 79
8, 251520, Note_off_c, 6, 77, 95
8, 251520, Note_off_c, 6, 72, 79
8, 251520, Note_on_c, 6, 79, 79
8, 251520, Note_on_c, 6, 76, 79
8, 251520, Note_on_c, 6, 71, 79
8, 252480, Note_off_c, 6, 79, 79
8, 252480, Note_off_c, 6, 76, 79
8, 252480, Note_off_c, 6, 71, 79
8, 252480, Note_on_c, 6, 77, 79
8, 252480, Note_on_c, 6, 74, 79
8, 252480, Note_on_c, 6, 69, 79
8, 253440, Note_off_c, 6, 77, 79
8, 253440, Note_off_c, 6, 74, 79
8, 253440, Note_off_c, 6, 69, 79
8, 253440, Note_on_c, 6, 76, 79
8, 253440, Note_on_c, 6, 72, 79
8, 253440, Note_on_c, 6, 67, 79
8, 255240, Note_off_c, 6, 76, 79
8, 255240, Note_off_c, 6, 72, 79
8, 255240, Note_off_c, 6, 67, 79
8, 255360, Note_on_c, 6, 79, 79
8, 255360, Note_on_c, 6, 74, 79
8, 255360, Note_on_c, 6, 71, 79
8, 257160, Note_off_c, 6, 79, 79
8, 257160, Note_off_c, 6, 74, 79
8, 257160, Note_off_c, 6, 71, 79
8, 257280, Note_on_c, 6, 81, 79
8, 257280, Note_on_c, 6, 76, 63
8, 257280, Note_on_c, 6, 72, 63
8, 261000, Note_off_c, 6, 81, 79
8, 261000, Note_off_c, 6, 76, 63
8, 261000, Note_off_c, 6, 72, 63
8, 261120, Note_on_c, 6, 81, 79
8, 261120, Note_on_c, 6, 77, 79
8, 261120, Note_on_c, 6, 72, 63
8, 264840, Note_off_c, 6, 81, 79
8, 264840, Note_off_c, 6, 77, 79
8, 264840, Note_off_c, 6, 72, 63
8, 264960, Note_on_c, 6, 79, 79
8, 264960, Note_on_c, 6, 76, 79
8, 264960, Note_on_c, 6, 72, 79
8, 265920, Note_off_c, 6, 79, 79
8, 265920, Note_off_c, 6, 76, 79
8, 265920, Note_off_c, 6, 72, 79
8, 265920, Note_on_c, 6, 81, 79
8, 265920, Note_on_c, 6, 77, 79
8, 265920, Note_on_c, 6, 72, 79
8, 266880, Note_off_c, 6, 81, 79
8, 266880, Note_off_c, 6, 77, 79
8, 266880, Note_off_c, 6, 72, 79
8, 266880, Note_on_c, 6, 79, 79
8, 266880, Note_on_c, 6, 76, 79
8, 266880, Note_on_c, 6, 71, 79
8, 267840, Note_off_c, 6, 79, 79
8, 267840, Note_off_c, 6, 76, 79
8, 267840, Note_off_c, 6, 71, 79
8, 267840, Note_on_c, 6, 77, 79
8, 267840, Note_on_c, 6, 74, 79
8, 267840, Note_on_c, 6, 69, 63
8, 268800, Note_off_c, 6, 77, 79
8, 268800, Note_off_c, 6, 74, 79
8, 268800, Note_off_c, 6, 69, 63
8, 268800, Note_on_c, 6, 76, 79
8, 268800, Note_on_c, 6, 67, 79
8, 268800, Note_on_c, 6, 63, 79
8, 270720, Note_off_c, 6, 76, 79
8, 270720, Note_off_c, 6, 67, 79
8, 270720, Note_off_c, 6, 63, 79
8, 270720, Note_on_c, 6, 79, 79
8, 270720, Note_on_c, 6, 74, 79
8, 270720, Note_on_c, 6, 71, 79
8, 272640, Note_off_c, 6, 79, 79
8, 272640, Note_off_c, 6, 74, 79
8, 272640, Note_off_c, 6, 71, 79
8, 272640, Note_on_c, 6, 76, 79
8, 272640, Note_on_c, 6, 72, 63
8, 272640, Note_on_c, 6, 72, 79
8, 276480, Note_off_c, 6, 76, 79
8, 276480, Note_off_c, 6, 72, 63
8, 276480, Note_off_c, 6, 72, 79
8, 276480, Note_on_c, 6, 78, 79
8, 276480, Note_on_c, 6, 74, 79
8, 276480, Note_on_c, 6, 69, 79
8, 280320, Note_off_c, 6, 78, 79
8, 280320, Note_off_c, 6, 74, 79
8, 280320, Note_off_c, 6, 69, 79
8, 280320, Note_on_c, 6, 79, 79
8, 280320, Note_on_c, 6, 74, 79
8, 280320, Note_on_c, 6, 71, 79
8, 282360, Note_off_c, 6, 79, 79
8, 282360, Note_off_c, 6, 74, 79
8, 282360, Note_off_c, 6, 71, 79
8, 282720, Note_on_c, 6, 76, 95
8, 282720, Note_on_c, 6, 71, 95
8, 282720, Note_on_c, 6, 67, 79
8, 282960, Note_off_c, 6, 76, 95
8, 282960, Note_off_c, 6, 71, 95
8, 282960, Note_off_c, 6, 67, 79
8, 283200, Note_on_c, 6, 79, 95
8, 283200, Note_on_c, 6, 74, 95
8, 283200, Note_on_c, 6, 71, 95
8, 283440, Note_off_c, 6, 79, 95
8, 283440, Note_off_c, 6, 74, 95
8, 283440, Note_off_c, 6, 71, 95
8, 283680, Note_on_c, 6, 81, 95
8, 283680, Note_on_c, 6, 76, 95
8, 283680, Note_on_c, 6, 72, 79
8, 287880, Note_off_c, 6, 81, 95
8, 287880, Note_off_c, 6, 76, 95
8, 287880, Note_off_c, 6, 72, 79
8, 288000, Note_on_c, 6, 81, 79
8, 288000, Note_on_c, 6, 77, 79
8, 288000, Note_on_c, 6, 72, 63
8, 290040, Note_off_c, 6, 81, 79
8, 290040, Note_off_c, 6, 77, 79
8, 290040, Note_off_c, 6, 72, 63
8, 290400, Note_on_c, 6, 76, 95
8, 290400, Note_on_c, 6, 71, 95
8, 290400, Note_on_c, 6, 67, 95
8, 290640, Note_off_c, 6, 76, 95
8, 290640, Note_off_c, 6, 71, 95
8, 290640, Note_off_c, 6, 67, 95
8, 290880, Note_on_c, 6, 79, 95
8, 290880, Note_on_c, 6, 74, 95
8, 290880, Note_on_c, 6, 71, 95
8, 291240, Note_off_c, 6, 79, 95
8, 291240, Note_off_c, 6, 74, 95
8, 291240, Note_off_c, 6, 71, 95
8, 291360, Note_on_c, 6, 81, 95
8, 291360, Note_on_c, 6, 76, 79
8, 291360, Note_on_c, 6, 72, 79
8, 295680, Note_off_c, 6, 81, 95
8, 295680, Note_off_c, 6, 76, 79
8, 295680, Note_off_c, 6, 72, 79
8, 295680, Note_on_c, 6, 78, 79
8, 295680, Note_on_c, 6, 74, 79
8, 295680, Note_on_c, 6, 69, 79
8, 297600, Note_off_c, 6, 78, 79
8, 297600, Note_off_c, 6, 74, 79
8, 297600, Note_off_c, 6, 69, 79
8, 297600, Note_on_c, 6, 79, 79
8, 297600, Note_on_c, 6, 74, 79
8, 297600, Note_on_c, 6, 71, 79
8, 299520, Note_off_c, 6, 79, 79
8, 299520, Note_off_c, 6, 74, 79
8, 299520, Note_off_c, 6, 71, 79
8, 299520, Note_on_c, 6, 76, 79
8, 299520, Note_on_c, 6, 72, 79
8, 299520, Note_on_c, 6, 67, 79
8, 301440, Note_off_c, 6, 76, 79
8, 301440, Note_off_c, 6, 72, 79
8, 301440, Note_off_c, 6, 67, 79
8, 301440, Note_on_c, 6, 79, 79
8, 301440, Note_on_c, 6, 74, 79
8, 301440, Note_on_c, 6, 71, 79
8, 303240, Note_off_c, 6, 79, 79
8, 303240, Note_off_c, 6, 74, 79
8, 303240, Note_off_c, 6, 71, 79
8, 303360, Note_on_c, 6, 81, 79
8, 303360, Note_on_c, 6, 76, 63
8, 303360, Note_on_c, 6, 72, 63
8, 306720, Note_off_c, 6, 81, 79
8, 306720, Note_off_c, 6, 76, 63
8, 306720, Note_off_c, 6, 72, 63
8, 306720, Note_on_c, 6, 74, 63
8, 306720, Note_on_c, 6, 71, 63
8, 307200, Note_off_c, 6, 74, 63
8, 307200, Note_off_c, 6, 71, 63
8, 307200, Note_on_c, 6, 77, 79
8, 307200, Note_on_c, 6, 72, 63
8, 307200, Note_on_c, 6, 69, 79
8, 309120, Note_off_c, 6, 77, 79
8, 309120, Note_off_c, 6, 72, 63
8, 309120, Note_off_c, 6, 69, 79
8, 309120, Note_on_c, 6, 79, 79
8, 309120, Note_on_c, 6, 74, 79
8, 309120, Note_on_c, 6, 71, 79
8, 311040, Note_off_c, 6, 79, 79
8, 311040, Note_off_c, 6, 74, 79
8, 311040, Note_off_c, 6, 71, 79
8, 311040, Note_on_c, 6, 76, 79
8, 311040, Note_on_c, 6, 72, 79
8, 311040, Note_on_c, 6, 67, 79
8, 312000, Note_off_c, 6, 76, 79
8, 312000, Note_off_c, 6, 72, 79
8, 312000, Note_off_c, 6, 67, 79
8, 312000, Note_on_c, 6, 81, 79
8, 312000, Note_on_c, 6, 77, 95
8, 312000, Note_on_c, 6, 72, 79
8, 312960, Note_off_c, 6, 81, 79
8, 312960, Note_off_c, 6, 77, 95
8, 312960, Note_off_c, 6, 72, 79
8, 312960, Note_on_c, 6, 79, 79
8, 312960, Note_on_c, 6, 76, 79
8, 312960, Note_on_c, 6, 71, 79
8, 313920, Note_off_c, 6, 79, 79
8, 313920, Note_off_c, 6, 76, 79
8, 313920, Note_off_c, 6, 71, 79
8, 313920, Note_on_c, 6, 77, 79
8, 313920, Note_on_c, 6, 74, 79
8, 313920, Note_on_c, 6, 69, 79
8, 314880, Note_off_c, 6, 77, 79
8, 314880, Note_off_c, 6, 74, 79
8, 314880, Note_off_c, 6, 69, 79
8, 314880, Note_on_c, 6, 76, 79
8, 314880, Note_on_c, 6, 72, 79
8, 314880, Note_on_c, 6, 67, 79
8, 315840, Note_off_c, 6, 76, 79
8, 315840, Note_off_c, 6, 72, 79
8, 315840, Note_off_c, 6, 67, 79
8, 315840, Note_on_c, 6, 81, 79
8, 315840, Note_on_c, 6, 77, 95
8, 315840, Note_on_c, 6, 72, 79
8, 316800, Note_off_c, 6, 81, 79
8, 316800, Note_off_c, 6, 77, 95
8, 316800, Note_off_c, 6, 72, 79
8, 316800, Note_on_c, 6, 79, 79
8, 316800, Note_on_c, 6, 76, 79
8, 316800, Note_on_c, 6, 71, 79
8, 317760, Note_off_c, 6, 79, 79
8, 317760, Note_off_c, 6, 76, 79
8, 317760, Note_off_c, 6, 71, 79
8, 317760, Note_on_c, 6, 77, 79
8, 317760, Note_on_c, 6, 74, 79
8, 317760, Note_on_c, 6, 69, 79
8, 318720, Note_off_c, 6, 77, 79
8, 318720, Note_off_c, 6, 74, 79
8, 318720, Note_off_c, 6, 69, 79
8, 318720, Note_on_c, 6, 76, 79
8, 318720, Note_on_c, 6, 72, 79
8, 318720, Note_on_c, 6, 67, 79
8, 319680, Note_off_c, 6, 76, 79
8, 319680, Note_off_c, 6, 72, 79
8, 319680, Note_off_c, 6, 67, 79
8, 319680, Note_on_c, 6, 81, 79
8, 319680, Note_on_c, 6, 77, 95
8, 319680, Note_on_c, 6, 72, 79
8, 320640, Note_off_c, 6, 81, 79
8, 320640, Note_off_c, 6, 77, 95
8, 320640, Note_off_c, 6, 72, 79
8, 320640, Note_on_c, 6, 79, 79
8, 320640, Note_on_c, 6, 76, 79
8, 320640, Note_on_c, 6, 71, 79
8, 321600, Note_off_c, 6, 79, 79
8, 321600, Note_off_c, 6, 76, 79
8, 321600, Note_off_c, 6, 71, 79
8, 321600, Note_on_c, 6, 77, 63
8, 321600, Note_on_c, 6, 74, 63
8, 321600, Note_on_c, 6, 69, 63
8, 322560, Note_off_c, 6, 77, 63
8, 322560, Note_off_c, 6, 74, 63
8, 322560, Note_off_c, 6, 69, 63
8, 322560, Note_on_c, 6, 76, 47
8, 322560, Note_on_c, 6, 72, 47
8, 322560, Note_on_c, 6, 67, 47
8, 326280, Note_off_c, 6, 76, 47
8, 326280, Note_off_c, 6, 72, 47
8, 326280, Note_off_c, 6, 67, 47
8, 326280, End_track
9, 0, Start_track
9, 0, Pitch_bend_c, 9, 8192
9, 0, Control_c, 9, 7, 103
9, 0, Control_c, 9, 10, 63
9, 0, Control_c, 9, 93, 63
9, 0, Control_c, 9, 91, 87
9, 0, Control_c, 9, 95, 0
9, 0, Control_c, 9, 92, 0
9, 0, Control_c, 9, 11, 127
9, 0, Program_c, 9, 0
9, 3840, Note_on_c, 9, 51, 95
9, 3840, Note_on_c, 9, 35, 111
9, 3960, Note_off_c, 9, 51, 95
9, 3960, Note_off_c, 9, 35, 111
9, 4080, Note_on_c, 9, 51, 63
9, 4200, Note_off_c, 9, 51, 63
9, 4320, Note_on_c, 9, 51, 95
9, 4440, Note_off_c, 9, 51, 95
9, 4560, Note_on_c, 9, 35, 95
9, 4680, Note_off_c, 9, 35, 95
9, 4800, Note_on_c, 9, 51, 95
9, 4800, Note_on_c, 9, 40, 111
9, 4800, Note_on_c, 9, 38, 79
9, 4920, Note_off_c, 9, 51, 95
9, 4920, Note_off_c, 9, 40, 111
9, 4920, Note_off_c, 9, 38, 79
9, 5040, Note_on_c, 9, 51, 63
9, 5160, Note_off_c, 9, 51, 63
9, 5280, Note_on_c, 9, 51, 111
9, 5400, Note_off_c, 9, 51, 111
9, 5520, Note_on_c, 9, 35, 95
9, 5640, Note_off_c, 9, 35, 95
9, 5760, Note_on_c, 9, 35, 95
9, 5760, Note_on_c, 9, 51, 79
9, 5880, Note_off_c, 9, 35, 95
9, 5880, Note_off_c, 9, 51, 79
9, 6000, Note_on_c, 9, 51, 63
9, 6120, Note_off_c, 9, 51, 63
9, 6240, Note_on_c, 9, 51, 95
9, 6360, Note_off_c, 9, 51, 95
9, 6480, Note_on_c, 9, 35, 95
9, 6600, Note_off_c, 9, 35, 95
9, 6720, Note_on_c, 9, 38, 79
9, 6720, Note_on_c, 9, 40, 111
9, 6720, Note_on_c, 9, 51, 79
9, 6840, Note_off_c, 9, 38, 79
9, 6840, Note_off_c, 9, 40, 111
9, 6840, Note_off_c, 9, 51, 79
9, 6960, Note_on_c, 9, 51, 63
9, 7080, Note_off_c, 9, 51, 63
9, 7200, Note_on_c, 9, 51, 95
9, 7320, Note_off_c, 9, 51, 95
9, 7440, Note_on_c, 9, 35, 95
9, 7560, Note_off_c, 9, 35, 95
9, 7680, Note_on_c, 9, 51, 95
9, 7680, Note_on_c, 9, 35, 111
9, 7800, Note_off_c, 9, 51, 95
9, 7800, Note_off_c, 9, 35, 111
9, 7920, Note_on_c, 9, 51, 63
9, 8040, Note_off_c, 9, 51, 63
9, 8160, Note_on_c, 9, 51, 95
9, 8280, Note_off_c, 9, 51, 95
9, 8400, Note_on_c, 9, 35, 95
9, 8520, Note_off_c, 9, 35, 95
9, 8640, Note_on_c, 9, 51, 95
9, 8640, Note_on_c, 9, 38, 79
9, 8640, Note_on_c, 9, 40, 111
9, 8760, Note_off_c, 9, 51, 95
9, 8760, Note_off_c, 9, 38, 79
9, 8760, Note_off_c, 9, 40, 111
9, 8880, Note_on_c, 9, 51, 63
9, 9000, Note_off_c, 9, 51, 63
9, 9120, Note_on_c, 9, 51, 111
9, 9240, Note_off_c, 9, 51, 111
9, 9360, Note_on_c, 9, 35, 95
9, 9480, Note_off_c, 9, 35, 95
9, 9600, Note_on_c, 9, 35, 95
9, 9600, Note_on_c, 9, 51, 79
9, 9720, Note_off_c, 9, 35, 95
9, 9720, Note_off_c, 9, 51, 79
9, 9840, Note_on_c, 9, 51, 63
9, 9960, Note_off_c, 9, 51, 63
9, 10080, Note_on_c, 9, 51, 95
9, 10200, Note_off_c, 9, 51, 95
9, 10320, Note_on_c, 9, 35, 95
9, 10440, Note_off_c, 9, 35, 95
9, 10560, Note_on_c, 9, 38, 79
9, 10560, Note_on_c, 9, 40, 111
9, 10560, Note_on_c, 9, 51, 79
9, 10680, Note_off_c, 9, 38, 79
9, 10680, Note_off_c, 9, 40, 111
9, 10680, Note_off_c, 9, 51, 79
9, 10800, Note_on_c, 9, 51, 63
9, 10920, Note_off_c, 9, 51, 63
9, 11040, Note_on_c, 9, 51, 95
9, 11160, Note_off_c, 9, 51, 95
9, 11280, Note_on_c, 9, 35, 95
9, 11400, Note_off_c, 9, 35, 95
9, 11520, Note_on_c, 9, 35, 111
9, 11520, Note_on_c, 9, 51, 95
9, 11640, Note_off_c, 9, 35, 111
9, 11640, Note_off_c, 9, 51, 95
9, 11760, Note_on_c, 9, 51, 63
9, 11880, Note_off_c, 9, 51, 63
9, 12000, Note_on_c, 9, 51, 95
9, 12120, Note_off_c, 9, 51, 95
9, 12240, Note_on_c, 9, 35, 95
9, 12360, Note_off_c, 9, 35, 95
9, 12480, Note_on_c, 9, 40, 111
9, 12480, Note_on_c, 9, 38, 79
9, 12480, Note_on_c, 9, 51, 95
9, 12600, Note_off_c, 9, 40, 111
9, 12600, Note_off_c, 9, 38, 79
9, 12600, Note_off_c, 9, 51, 95
9, 12720, Note_on_c, 9, 51, 63
9, 12840, Note_off_c, 9, 51, 63
9, 12960, Note_on_c, 9, 51, 111
9, 13080, Note_off_c, 9, 51, 111
9, 13200, Note_on_c, 9, 35, 95
9, 13320, Note_off_c, 9, 35, 95
9, 13440, Note_on_c, 9, 35, 95
9, 13440, Note_on_c, 9, 51, 79
9, 13560, Note_off_c, 9, 35, 95
9, 13560, Note_off_c, 9, 51, 79
9, 13680, Note_on_c, 9, 51, 63
9, 13800, Note_off_c, 9, 51, 63
9, 13920, Note_on_c, 9, 51, 95
9, 14040, Note_off_c, 9, 51, 95
9, 14160, Note_on_c, 9, 35, 95
9, 14280, Note_off_c, 9, 35, 95
9, 14400, Note_on_c, 9, 38, 79
9, 14400, Note_on_c, 9, 40, 111
9, 14400, Note_on_c, 9, 51, 79
9, 14520, Note_off_c, 9, 38, 79
9, 14520, Note_off_c, 9, 40, 111
9, 14520, Note_off_c, 9, 51, 79
9, 14640, Note_on_c, 9, 51, 63
9, 14760, Note_off_c, 9, 51, 63
9, 14880, Note_on_c, 9, 51, 95
9, 15000, Note_off_c, 9, 51, 95
9, 15120, Note_on_c, 9, 35, 95
9, 15240, Note_off_c, 9, 35, 95
9, 15360, Note_on_c, 9, 51, 95
9, 15360, Note_on_c, 9, 35, 111
9, 15480, Note_off_c, 9, 51, 95
9, 15480, Note_off_c, 9, 35, 111
9, 15600, Note_on_c, 9, 51, 63
9, 15720, Note_off_c, 9, 51, 63
9, 15840, Note_on_c, 9, 51, 95
9, 15960, Note_off_c, 9, 51, 95
9, 16080, Note_on_c, 9, 35, 95
9, 16200, Note_off_c, 9, 35, 95
9, 16320, Note_on_c, 9, 51, 95
9, 16320, Note_on_c, 9, 40, 111
9, 16320, Note_on_c, 9, 38, 79
9, 16440, Note_off_c, 9, 51, 95
9, 16440, Note_off_c, 9, 40, 111
9, 16440, Note_off_c, 9, 38, 79
9, 16560, Note_on_c, 9, 51, 63
9, 16680, Note_off_c, 9, 51, 63
9, 16800, Note_on_c, 9, 51, 111
9, 16920, Note_off_c, 9, 51, 111
9, 17040, Note_on_c, 9, 35, 95
9, 17160, Note_off_c, 9, 35, 95
9, 17280, Note_on_c, 9, 35, 95
9, 17280, Note_on_c, 9, 51, 79
9, 17400, Note_off_c, 9, 35, 95
9, 17400, Note_off_c, 9, 51, 79
9, 17520, Note_on_c, 9, 51, 63
9, 17640, Note_off_c, 9, 51, 63
9, 17760, Note_on_c, 9, 51, 95
9, 17880, Note_off_c, 9, 51, 95
9, 18000, Note_on_c, 9, 35, 95
9, 18120, Note_off_c, 9, 35, 95
9, 18240, Note_on_c, 9, 38, 79
9, 18240, Note_on_c, 9, 40, 111
9, 18240, Note_on_c, 9, 51, 79
9, 18360, Note_off_c, 9, 38, 79
9, 18360, Note_off_c, 9, 40, 111
9, 18360, Note_off_c, 9, 51, 79
9, 18480, Note_on_c, 9, 43, 79
9, 18480, Note_on_c, 9, 51, 63
9, 18600, Note_off_c, 9, 43, 79
9, 18600, Note_off_c, 9, 51, 63
9, 18720, Note_on_c, 9, 51, 95
9, 18720, Note_on_c, 9, 47, 111
9, 18840, Note_off_c, 9, 51, 95
9, 18840, Note_off_c, 9, 47, 111
9, 18960, Note_on_c, 9, 43, 63
9, 18960, Note_on_c, 9, 35, 95
9, 19080, Note_off_c, 9, 43, 63
9, 19080, Note_off_c, 9, 35, 95
9, 19200, Note_on_c, 9, 35, 111
9, 19200, Note_on_c, 9, 51, 95
9, 19320, Note_off_c, 9, 35, 111
9, 19320, Note_off_c, 9, 51, 95
9, 19680, Note_on_c, 9, 51, 79
9, 19800, Note_off_c, 9, 51, 79
9, 20160, Note_on_c, 9, 38, 79
9, 20160, Note_on_c, 9, 40, 111
9, 20160, Note_on_c, 9, 51, 95
9, 20280, Note_off_c, 9, 38, 79
9, 20280, Note_off_c, 9, 40, 111
9, 20280, Note_off_c, 9, 51, 95
9, 20640, Note_on_c, 9, 51, 63
9, 20760, Note_off_c, 9, 51, 63
9, 20880, Note_on_c, 9, 35, 95
9, 21000, Note_off_c, 9, 35, 95
9, 21120, Note_on_c, 9, 51, 95
9, 21120, Note_on_c, 9, 35, 111
9, 21240, Note_off_c, 9, 51, 95
9, 21240, Note_off_c, 9, 35, 111
9, 21600, Note_on_c, 9, 51, 79
9, 21720, Note_off_c, 9, 51, 79
9, 22080, Note_on_c, 9, 51, 95
9, 22080, Note_on_c, 9, 38, 79
9, 22080, Note_on_c, 9, 40, 111
9, 22200, Note_off_c, 9, 51, 95
9, 22200, Note_off_c, 9, 38, 79
9, 22200, Note_off_c, 9, 40, 111
9, 22560, Note_on_c, 9, 51, 79
9, 22680, Note_off_c, 9, 51, 79
9, 22800, Note_on_c, 9, 35, 95
9, 22920, Note_off_c, 9, 35, 95
9, 23040, Note_on_c, 9, 51, 95
9, 23040, Note_on_c, 9, 35, 111
9, 23160, Note_off_c, 9, 51, 95
9, 23160, Note_off_c, 9, 35, 111
9, 23520, Note_on_c, 9, 51, 79
9, 23520, Note_on_c, 9, 35, 95
9, 23640, Note_off_c, 9, 51, 79
9, 23640, Note_off_c, 9, 35, 95
9, 24000, Note_on_c, 9, 40, 111
9, 24000, Note_on_c, 9, 38, 79
9, 24000, Note_on_c, 9, 51, 95
9, 24120, Note_off_c, 9, 40, 111
9, 24120, Note_off_c, 9, 38, 79
9, 24120, Note_off_c, 9, 51, 95
9, 24480, Note_on_c, 9, 51, 79
9, 24600, Note_off_c, 9, 51, 79
9, 24720, Note_on_c, 9, 35, 95
9, 24840, Note_off_c, 9, 35, 95
9, 24960, Note_on_c, 9, 51, 79
9, 24960, Note_on_c, 9, 35, 111
9, 25080, Note_off_c, 9, 51, 79
9, 25080, Note_off_c, 9, 35, 111
9, 25440, Note_on_c, 9, 51, 63
9, 25440, Note_on_c, 9, 35, 95
9, 25560, Note_off_c, 9, 51, 63
9, 25560, Note_off_c, 9, 35, 95
9, 25680, Note_on_c, 9, 35, 95
9, 25800, Note_off_c, 9, 35, 95
9, 25920, Note_on_c, 9, 51, 95
9, 25920, Note_on_c, 9, 38, 79
9, 25920, Note_on_c, 9, 40, 111
9, 26040, Note_off_c, 9, 51, 95
9, 26040, Note_off_c, 9, 38, 79
9, 26040, Note_off_c, 9, 40, 111
9, 26400, Note_on_c, 9, 51, 63
9, 26520, Note_off_c, 9, 51, 63
9, 26640, Note_on_c, 9, 35, 95
9, 26760, Note_off_c, 9, 35, 95
9, 26880, Note_on_c, 9, 51, 95
9, 26880, Note_on_c, 9, 35, 111
9, 27000, Note_off_c, 9, 51, 95
9, 27000, Note_off_c, 9, 35, 111
9, 27360, Note_on_c, 9, 51, 63
9, 27480, Note_off_c, 9, 51, 63
9, 27600, Note_on_c, 9, 35, 95
9, 27720, Note_off_c, 9, 35, 95
9, 27840, Note_on_c, 9, 51, 79
9, 27840, Note_on_c, 9, 38, 79
9, 27840, Note_on_c, 9, 40, 111
9, 27960, Note_off_c, 9, 51, 79
9, 27960, Note_off_c, 9, 38, 79
9, 27960, Note_off_c, 9, 40, 111
9, 28320, Note_on_c, 9, 51, 79
9, 28440, Note_off_c, 9, 51, 79
9, 28560, Note_on_c, 9, 35, 95
9, 28680, Note_off_c, 9, 35, 95
9, 28800, Note_on_c, 9, 51, 79
9, 28800, Note_on_c, 9, 35, 95
9, 28920, Note_off_c, 9, 51, 79
9, 28920, Note_off_c, 9, 35, 95
9, 29280, Note_on_c, 9, 35, 95
9, 29280, Note_on_c, 9, 51, 79
9, 29400, Note_off_c, 9, 35, 95
9, 29400, Note_off_c, 9, 51, 79
9, 29760, Note_on_c, 9, 40, 111
9, 29760, Note_on_c, 9, 38, 79
9, 29760, Note_on_c, 9, 51, 95
9, 29880, Note_off_c, 9, 40, 111
9, 29880, Note_off_c, 9, 38, 79
9, 29880, Note_off_c, 9, 51, 95
9, 30240, Note_on_c, 9, 51, 79
9, 30360, Note_off_c, 9, 51, 79
9, 30480, Note_on_c, 9, 35, 95
9, 30600, Note_off_c, 9, 35, 95
9, 30720, Note_on_c, 9, 51, 95
9, 30720, Note_on_c, 9, 35, 111
9, 30840, Note_off_c, 9, 51, 95
9, 30840, Note_off_c, 9, 35, 111
9, 31200, Note_on_c, 9, 51, 79
9, 31320, Note_off_c, 9, 51, 79
9, 31440, Note_on_c, 9, 35, 95
9, 31560, Note_off_c, 9, 35, 95
9, 31680, Note_on_c, 9, 40, 111
9, 31680, Note_on_c, 9, 51, 79
9, 31680, Note_on_c, 9, 38, 79
9, 31800, Note_off_c, 9, 40, 111
9, 31800, Note_off_c, 9, 51, 79
9, 31800, Note_off_c, 9, 38, 79
9, 32160, Note_on_c, 9, 51, 79
9, 32280, Note_off_c, 9, 51, 79
9, 32400, Note_on_c, 9, 35, 95
9, 32520, Note_off_c, 9, 35, 95
9, 32640, Note_on_c, 9, 51, 95
9, 32640, Note_on_c, 9, 35, 111
9, 32760, Note_off_c, 9, 51, 95
9, 32760, Note_off_c, 9, 35, 111
9, 33120, Note_on_c, 9, 51, 63
9, 33240, Note_off_c, 9, 51, 63
9, 33360, Note_on_c, 9, 35, 95
9, 33480, Note_off_c, 9, 35, 95
9, 33600, Note_on_c, 9, 51, 95
9, 33600, Note_on_c, 9, 40, 111
9, 33600, Note_on_c, 9, 38, 79
9, 33720, Note_off_c, 9, 51, 95
9, 33720, Note_off_c, 9, 40, 111
9, 33720, Note_off_c, 9, 38, 79
9, 34080, Note_on_c, 9, 51, 63
9, 34200, Note_off_c, 9, 51, 63
9, 34320, Note_on_c, 9, 35, 95
9, 34440, Note_off_c, 9, 35, 95
9, 34560, Note_on_c, 9, 35, 111
9, 34560, Note_on_c, 9, 51, 95
9, 34680, Note_off_c, 9, 35, 111
9, 34680, Note_off_c, 9, 51, 95
9, 35040, Note_on_c, 9, 51, 63
9, 35160, Note_off_c, 9, 51, 63
9, 35280, Note_on_c, 9, 35, 95
9, 35400, Note_off_c, 9, 35, 95
9, 35520, Note_on_c, 9, 38, 79
9, 35520, Note_on_c, 9, 40, 111
9, 35520, Note_on_c, 9, 51, 95
9, 35640, Note_off_c, 9, 38, 79
9, 35640, Note_off_c, 9, 40, 111
9, 35640, Note_off_c, 9, 51, 95
9, 36000, Note_on_c, 9, 51, 79
9, 36120, Note_off_c, 9, 51, 79
9, 36240, Note_on_c, 9, 35, 95
9, 36360, Note_off_c, 9, 35, 95
9, 36480, Note_on_c, 9, 51, 79
9, 36480, Note_on_c, 9, 35, 111
9, 36600, Note_off_c, 9, 51, 79
9, 36600, Note_off_c, 9, 35, 111
9, 36960, Note_on_c, 9, 51, 63
9, 37080, Note_off_c, 9, 51, 63
9, 37200, Note_on_c, 9, 35, 95
9, 37320, Note_off_c, 9, 35, 95
9, 37440, Note_on_c, 9, 51, 95
9, 37440, Note_on_c, 9, 40, 111
9, 37440, Note_on_c, 9, 38, 79
9, 37560, Note_off_c, 9, 51, 95
9, 37560, Note_off_c, 9, 40, 111
9, 37560, Note_off_c, 9, 38, 79
9, 37920, Note_on_c, 9, 51, 79
9, 38040, Note_off_c, 9, 51, 79
9, 38400, Note_on_c, 9, 51, 95
9, 38400, Note_on_c, 9, 35, 95
9, 38520, Note_off_c, 9, 51, 95
9, 38520, Note_off_c, 9, 35, 95
9, 38880, Note_on_c, 9, 51, 63
9, 39000, Note_off_c, 9, 51, 63
9, 39120, Note_on_c, 9, 35, 95
9, 39240, Note_off_c, 9, 35, 95
9, 39360, Note_on_c, 9, 40, 111
9, 39360, Note_on_c, 9, 38, 79
9, 39360, Note_on_c, 9, 51, 95
9, 39480, Note_off_c, 9, 40, 111
9, 39480, Note_off_c, 9, 38, 79
9, 39480, Note_off_c, 9, 51, 95
9, 39840, Note_on_c, 9, 51, 63
9, 39960, Note_off_c, 9, 51, 63
9, 40080, Note_on_c, 9, 35, 95
9, 40200, Note_off_c, 9, 35, 95
9, 40320, Note_on_c, 9, 35, 111
9, 40320, Note_on_c, 9, 51, 95
9, 40440, Note_off_c, 9, 35, 111
9, 40440, Note_off_c, 9, 51, 95
9, 40800, Note_on_c, 9, 51, 79
9, 40920, Note_off_c, 9, 51, 79
9, 41040, Note_on_c, 9, 35, 95
9, 41160, Note_off_c, 9, 35, 95
9, 41280, Note_on_c, 9, 40, 111
9, 41280, Note_on_c, 9, 51, 95
9, 41280, Note_on_c, 9, 38, 79
9, 41400, Note_off_c, 9, 40, 111
9, 41400, Note_off_c, 9, 51, 95
9, 41400, Note_off_c, 9, 38, 79
9, 41520, Note_on_c, 9, 35, 95
9, 41640, Note_off_c, 9, 35, 95
9, 41760, Note_on_c, 9, 51, 63
9, 41880, Note_off_c, 9, 51, 63
9, 42000, Note_on_c, 9, 35, 95
9, 42120, Note_off_c, 9, 35, 95
9, 42240, Note_on_c, 9, 35, 111
9, 42240, Note_on_c, 9, 51, 95
9, 42360, Note_off_c, 9, 35, 111
9, 42360, Note_off_c, 9, 51, 95
9, 42720, Note_on_c, 9, 51, 63
9, 42840, Note_off_c, 9, 51, 63
9, 42960, Note_on_c, 9, 35, 95
9, 43080, Note_off_c, 9, 35, 95
9, 43200, Note_on_c, 9, 51, 79
9, 43200, Note_on_c, 9, 38, 79
9, 43200, Note_on_c, 9, 40, 111
9, 43320, Note_off_c, 9, 51, 79
9, 43320, Note_off_c, 9, 38, 79
9, 43320, Note_off_c, 9, 40, 111
9, 43680, Note_on_c, 9, 51, 79
9, 43800, Note_off_c, 9, 51, 79
9, 43920, Note_on_c, 9, 35, 95
9, 44040, Note_off_c, 9, 35, 95
9, 44160, Note_on_c, 9, 51, 79
9, 44160, Note_on_c, 9, 35, 111
9, 44280, Note_off_c, 9, 51, 79
9, 44280, Note_off_c, 9, 35, 111
9, 44640, Note_on_c, 9, 35, 111
9, 44640, Note_on_c, 9, 51, 63
9, 44760, Note_off_c, 9, 35, 111
9, 44760, Note_off_c, 9, 51, 63
9, 45120, Note_on_c, 9, 40, 111
9, 45120, Note_on_c, 9, 38, 79
9, 45120, Note_on_c, 9, 51, 95
9, 45240, Note_off_c, 9, 40, 111
9, 45240, Note_off_c, 9, 38, 79
9, 45240, Note_off_c, 9, 51, 95
9, 45600, Note_on_c, 9, 51, 63
9, 45720, Note_off_c, 9, 51, 63
9, 45840, Note_on_c, 9, 35, 95
9, 45960, Note_off_c, 9, 35, 95
9, 46080, Note_on_c, 9, 35, 111
9, 46080, Note_on_c, 9, 51, 79
9, 46200, Note_off_c, 9, 35, 111
9, 46200, Note_off_c, 9, 51, 79
9, 46560, Note_on_c, 9, 51, 63
9, 46680, Note_off_c, 9, 51, 63
9, 46800, Note_on_c, 9, 35, 95
9, 46920, Note_off_c, 9, 35, 95
9, 47040, Note_on_c, 9, 51, 95
9, 47040, Note_on_c, 9, 40, 111
9, 47040, Note_on_c, 9, 38, 79
9, 47160, Note_off_c, 9, 51, 95
9, 47160, Note_off_c, 9, 40, 111
9, 47160, Note_off_c, 9, 38, 79
9, 47520, Note_on_c, 9, 51, 63
9, 47640, Note_off_c, 9, 51, 63
9, 47760, Note_on_c, 9, 35, 95
9, 47880, Note_off_c, 9, 35, 95
9, 48000, Note_on_c, 9, 38, 47
9, 48000, Note_on_c, 9, 40, 63
9, 48000, Note_on_c, 9, 51, 95
9, 48000, Note_on_c, 9, 38, 95
9, 48000, Note_on_c, 9, 40, 111
9, 48120, Note_off_c, 9, 38, 47
9, 48120, Note_off_c, 9, 40, 63
9, 48120, Note_off_c, 9, 51, 95
9, 48120, Note_off_c, 9, 38, 95
9, 48120, Note_off_c, 9, 40, 111
9, 48480, Note_on_c, 9, 49, 79
9, 48480, Note_on_c, 9, 35, 111
9, 48600, Note_off_c, 9, 49, 79
9, 48600, Note_off_c, 9, 35, 111
9, 48960, Note_on_c, 9, 49, 95
9, 48960, Note_on_c, 9, 35, 111
9, 49080, Note_off_c, 9, 49, 95
9, 49080, Note_off_c, 9, 35, 111
9, 49440, Note_on_c, 9, 49, 95
9, 49440, Note_on_c, 9, 35, 111
9, 49560, Note_off_c, 9, 49, 95
9, 49560, Note_off_c, 9, 35, 111
9, 49920, Note_on_c, 9, 51, 95
9, 49920, Note_on_c, 9, 35, 111
9, 50040, Note_off_c, 9, 51, 95
9, 50040, Note_off_c, 9, 35, 111
9, 50400, Note_on_c, 9, 35, 111
9, 50400, Note_on_c, 9, 51, 63
9, 50520, Note_off_c, 9, 35, 111
9, 50520, Note_off_c, 9, 51, 63
9, 50880, Note_on_c, 9, 51, 79
9, 50880, Note_on_c, 9, 40, 111
9, 50880, Note_on_c, 9, 38, 79
9, 51000, Note_off_c, 9, 51, 79
9, 51000, Note_off_c, 9, 40, 111
9, 51000, Note_off_c, 9, 38, 79
9, 51360, Note_on_c, 9, 51, 79
9, 51480, Note_off_c, 9, 51, 79
9, 51600, Note_on_c, 9, 35, 95
9, 51720, Note_off_c, 9, 35, 95
9, 51840, Note_on_c, 9, 51, 79
9, 51840, Note_on_c, 9, 35, 111
9, 51960, Note_off_c, 9, 51, 79
9, 51960, Note_off_c, 9, 35, 111
9, 52320, Note_on_c, 9, 35, 111
9, 52320, Note_on_c, 9, 51, 63
9, 52440, Note_off_c, 9, 35, 111
9, 52440, Note_off_c, 9, 51, 63
9, 52560, Note_on_c, 9, 35, 95
9, 52680, Note_off_c, 9, 35, 95
9, 52800, Note_on_c, 9, 51, 95
9, 52800, Note_on_c, 9, 40, 111
9, 52800, Note_on_c, 9, 38, 79
9, 52920, Note_off_c, 9, 51, 95
9, 52920, Note_off_c, 9, 40, 111
9, 52920, Note_off_c, 9, 38, 79
9, 53280, Note_on_c, 9, 51, 63
9, 53400, Note_off_c, 9, 51, 63
9, 53520, Note_on_c, 9, 43, 79
9, 53520, Note_on_c, 9, 35, 95
9, 53640, Note_off_c, 9, 43, 79
9, 53640, Note_off_c, 9, 35, 95
9, 53760, Note_on_c, 9, 35, 111
9, 53760, Note_on_c, 9, 51, 79
9, 53880, Note_off_c, 9, 35, 111
9, 53880, Note_off_c, 9, 51, 79
9, 54240, Note_on_c, 9, 51, 63
9, 54360, Note_off_c, 9, 51, 63
9, 54480, Note_on_c, 9, 35, 95
9, 54600, Note_off_c, 9, 35, 95
9, 54720, Note_on_c, 9, 51, 95
9, 54720, Note_on_c, 9, 40, 111
9, 54720, Note_on_c, 9, 38, 79
9, 54840, Note_off_c, 9, 51, 95
9, 54840, Note_off_c, 9, 40, 111
9, 54840, Note_off_c, 9, 38, 79
9, 55200, Note_on_c, 9, 48, 95
9, 55200, Note_on_c, 9, 51, 63
9, 55320, Note_off_c, 9, 48, 95
9, 55320, Note_off_c, 9, 51, 63
9, 55440, Note_on_c, 9, 47, 79
9, 55440, Note_on_c, 9, 35, 95
9, 55560, Note_off_c, 9, 47, 79
9, 55560, Note_off_c, 9, 35, 95
9, 55680, Note_on_c, 9, 40, 63
9, 55680, Note_on_c, 9, 38, 47
9, 55680, Note_on_c, 9, 51, 95
9, 55680, Note_on_c, 9, 38, 95
9, 55680, Note_on_c, 9, 40, 111
9, 55800, Note_off_c, 9, 40, 63
9, 55800, Note_off_c, 9, 38, 47
9, 55800, Note_off_c, 9, 51, 95
9, 55800, Note_off_c, 9, 38, 95
9, 55800, Note_off_c, 9, 40, 111
9, 56160, Note_on_c, 9, 43, 95
9, 56160, Note_on_c, 9, 35, 111
9, 56160, Note_on_c, 9, 47, 95
9, 56280, Note_off_c, 9, 43, 95
9, 56280, Note_off_c, 9, 35, 111
9, 56280, Note_off_c, 9, 47, 95
9, 56640, Note_on_c, 9, 43, 95
9, 56640, Note_on_c, 9, 35, 111
9, 56640, Note_on_c, 9, 47, 95
9, 56760, Note_off_c, 9, 43, 95
9, 56760, Note_off_c, 9, 35, 111
9, 56760, Note_off_c, 9, 47, 95
9, 57120, Note_on_c, 9, 41, 95
9, 57120, Note_on_c, 9, 49, 95
9, 57120, Note_on_c, 9, 35, 111
9, 57240, Note_off_c, 9, 41, 95
9, 57240, Note_off_c, 9, 49, 95
9, 57240, Note_off_c, 9, 35, 111
9, 57600, Note_on_c, 9, 51, 79
9, 57720, Note_off_c, 9, 51, 79
9, 57840, Note_on_c, 9, 35, 95
9, 57960, Note_off_c, 9, 35, 95
9, 58080, Note_on_c, 9, 51, 63
9, 58080, Note_on_c, 9, 35, 95
9, 58200, Note_off_c, 9, 51, 63
9, 58200, Note_off_c, 9, 35, 95
9, 58320, Note_on_c, 9, 51, 47
9, 58320, Note_on_c, 9, 35, 95
9, 58440, Note_off_c, 9, 51, 47
9, 58440, Note_off_c, 9, 35, 95
9, 58560, Note_on_c, 9, 40, 111
9, 58560, Note_on_c, 9, 38, 79
9, 58560, Note_on_c, 9, 51, 79
9, 58680, Note_off_c, 9, 40, 111
9, 58680, Note_off_c, 9, 38, 79
9, 58680, Note_off_c, 9, 51, 79
9, 59040, Note_on_c, 9, 51, 79
9, 59160, Note_off_c, 9, 51, 79
9, 59280, Note_on_c, 9, 35, 95
9, 59400, Note_off_c, 9, 35, 95
9, 59520, Note_on_c, 9, 51, 79
9, 59520, Note_on_c, 9, 35, 111
9, 59640, Note_off_c, 9, 51, 79
9, 59640, Note_off_c, 9, 35, 111
9, 60000, Note_on_c, 9, 35, 111
9, 60000, Note_on_c, 9, 51, 63
9, 60120, Note_off_c, 9, 35, 111
9, 60120, Note_off_c, 9, 51, 63
9, 60480, Note_on_c, 9, 51, 95
9, 60480, Note_on_c, 9, 38, 79
9, 60480, Note_on_c, 9, 40, 111
9, 60600, Note_off_c, 9, 51, 95
9, 60600, Note_off_c, 9, 38, 79
9, 60600, Note_off_c, 9, 40, 111
9, 60720, Note_on_c, 9, 51, 47
9, 60840, Note_off_c, 9, 51, 47
9, 60960, Note_on_c, 9, 51, 63
9, 61080, Note_off_c, 9, 51, 63
9, 61200, Note_on_c, 9, 35, 95
9, 61320, Note_off_c, 9, 35, 95
9, 61440, Note_on_c, 9, 51, 79
9, 61440, Note_on_c, 9, 35, 111
9, 61560, Note_off_c, 9, 51, 79
9, 61560, Note_off_c, 9, 35, 111
9, 61920, Note_on_c, 9, 51, 63
9, 62040, Note_off_c, 9, 51, 63
9, 62160, Note_on_c, 9, 35, 95
9, 62280, Note_off_c, 9, 35, 95
9, 62400, Note_on_c, 9, 38, 79
9, 62400, Note_on_c, 9, 40, 111
9, 62400, Note_on_c, 9, 51, 95
9, 62520, Note_off_c, 9, 38, 79
9, 62520, Note_off_c, 9, 40, 111
9, 62520, Note_off_c, 9, 51, 95
9, 62880, Note_on_c, 9, 51, 63
9, 63000, Note_off_c, 9, 51, 63
9, 63120, Note_on_c, 9, 35, 95
9, 63240, Note_off_c, 9, 35, 95
9, 63360, Note_on_c, 9, 51, 95
9, 63360, Note_on_c, 9, 38, 95
9, 63360, Note_on_c, 9, 40, 111
9, 63480, Note_off_c, 9, 51, 95
9, 63480, Note_off_c, 9, 38, 95
9, 63480, Note_off_c, 9, 40, 111
9, 63840, Note_on_c, 9, 51, 63
9, 63840, Note_on_c, 9, 48, 127
9, 63960, Note_off_c, 9, 51, 63
9, 63960, Note_off_c, 9, 48, 127
9, 64080, Note_on_c, 9, 48, 95
9, 64200, Note_off_c, 9, 48, 95
9, 64320, Note_on_c, 9, 47, 111
9, 64320, Note_on_c, 9, 51, 95
9, 64440, Note_off_c, 9, 47, 111
9, 64440, Note_off_c, 9, 51, 95
9, 64560, Note_on_c, 9, 47, 79
9, 64680, Note_off_c, 9, 47, 79
9, 64800, Note_on_c, 9, 51, 63
9, 64800, Note_on_c, 9, 45, 127
9, 64920, Note_off_c, 9, 51, 63
9, 64920, Note_off_c, 9, 45, 127
9, 64920, Note_on_c, 9, 45, 79
9, 65040, Note_off_c, 9, 45, 79
9, 65040, Note_on_c, 9, 43, 127
9, 65160, Note_off_c, 9, 43, 127
9, 65280, Note_on_c, 9, 35, 111
9, 65280, Note_on_c, 9, 49, 95
9, 65400, Note_off_c, 9, 35, 111
9, 65400, Note_off_c, 9, 49, 95
9, 65760, Note_on_c, 9, 51, 79
9, 65880, Note_off_c, 9, 51, 79
9, 66000, Note_on_c, 9, 35, 95
9, 66120, Note_off_c, 9, 35, 95
9, 66240, Note_on_c, 9, 38, 79
9, 66240, Note_on_c, 9, 40, 111
9, 66240, Note_on_c, 9, 51, 95
9, 66360, Note_off_c, 9, 38, 79
9, 66360, Note_off_c, 9, 40, 111
9, 66360, Note_off_c, 9, 51, 95
9, 66720, Note_on_c, 9, 51, 63
9, 66840, Note_off_c, 9, 51, 63
9, 66960, Note_on_c, 9, 35, 95
9, 67080, Note_off_c, 9, 35, 95
9, 67200, Note_on_c, 9, 51, 95
9, 67200, Note_on_c, 9, 35, 111
9, 67320, Note_off_c, 9, 51, 95
9, 67320, Note_off_c, 9, 35, 111
9, 67680, Note_on_c, 9, 35, 95
9, 67680, Note_on_c, 9, 51, 79
9, 67800, Note_off_c, 9, 35, 95
9, 67800, Note_off_c, 9, 51, 79
9, 67920, Note_on_c, 9, 35, 95
9, 68040, Note_off_c, 9, 35, 95
9, 68160, Note_on_c, 9, 51, 95
9, 68160, Note_on_c, 9, 40, 111
9, 68160, Note_on_c, 9, 38, 79
9, 68280, Note_off_c, 9, 51, 95
9, 68280, Note_off_c, 9, 40, 111
9, 68280, Note_off_c, 9, 38, 79
9, 68640, Note_on_c, 9, 51, 79
9, 68760, Note_off_c, 9, 51, 79
9, 68880, Note_on_c, 9, 35, 95
9, 69000, Note_off_c, 9, 35, 95
9, 69120, Note_on_c, 9, 51, 95
9, 69120, Note_on_c, 9, 35, 111
9, 69240, Note_off_c, 9, 51, 95
9, 69240, Note_off_c, 9, 35, 111
9, 69600, Note_on_c, 9, 51, 79
9, 69720, Note_off_c, 9, 51, 79
9, 69840, Note_on_c, 9, 35, 95
9, 69960, Note_off_c, 9, 35, 95
9, 70080, Note_on_c, 9, 51, 95
9, 70080, Note_on_c, 9, 40, 111
9, 70080, Note_on_c, 9, 38, 79
9, 70200, Note_off_c, 9, 51, 95
9, 70200, Note_off_c, 9, 40, 111
9, 70200, Note_off_c, 9, 38, 79
9, 70320, Note_on_c, 9, 35, 95
9, 70440, Note_off_c, 9, 35, 95
9, 70560, Note_on_c, 9, 51, 79
9, 70680, Note_off_c, 9, 51, 79
9, 70800, Note_on_c, 9, 35, 95
9, 70920, Note_off_c, 9, 35, 95
9, 71040, Note_on_c, 9, 51, 79
9, 71040, Note_on_c, 9, 35, 111
9, 71160, Note_off_c, 9, 51, 79
9, 71160, Note_off_c, 9, 35, 111
9, 71520, Note_on_c, 9, 51, 63
9, 71520, Note_on_c, 9, 35, 95
9, 71640, Note_off_c, 9, 51, 63
9, 71640, Note_off_c, 9, 35, 95
9, 72000, Note_on_c, 9, 51, 111
9, 72000, Note_on_c, 9, 38, 79
9, 72000, Note_on_c, 9, 40, 111
9, 72120, Note_off_c, 9, 51, 111
9, 72120, Note_off_c, 9, 38, 79
9, 72120, Note_off_c, 9, 40, 111
9, 72480, Note_on_c, 9, 51, 63
9, 72600, Note_off_c, 9, 51, 63
9, 72720, Note_on_c, 9, 35, 95
9, 72840, Note_off_c, 9, 35, 95
9, 72960, Note_on_c, 9, 51, 95
9, 72960, Note_on_c, 9, 35, 111
9, 73080, Note_off_c, 9, 51, 95
9, 73080, Note_off_c, 9, 35, 111
9, 73200, Note_on_c, 9, 51, 47
9, 73320, Note_off_c, 9, 51, 47
9, 73440, Note_on_c, 9, 51, 63
9, 73560, Note_off_c, 9, 51, 63
9, 73920, Note_on_c, 9, 51, 79
9, 73920, Note_on_c, 9, 40, 111
9, 73920, Note_on_c, 9, 38, 79
9, 74040, Note_off_c, 9, 51, 79
9, 74040, Note_off_c, 9, 40, 111
9, 74040, Note_off_c, 9, 38, 79
9, 74160, Note_on_c, 9, 35, 95
9, 74280, Note_off_c, 9, 35, 95
9, 74400, Note_on_c, 9, 51, 79
9, 74520, Note_off_c, 9, 51, 79
9, 74640, Note_on_c, 9, 35, 95
9, 74760, Note_off_c, 9, 35, 95
9, 74880, Note_on_c, 9, 51, 79
9, 74880, Note_on_c, 9, 35, 95
9, 75000, Note_off_c, 9, 51, 79
9, 75000, Note_off_c, 9, 35, 95
9, 75120, Note_on_c, 9, 51, 47
9, 75240, Note_off_c, 9, 51, 47
9, 75360, Note_on_c, 9, 51, 79
9, 75360, Note_on_c, 9, 35, 95
9, 75480, Note_off_c, 9, 51, 79
9, 75480, Note_off_c, 9, 35, 95
9, 75600, Note_on_c, 9, 35, 95
9, 75720, Note_off_c, 9, 35, 95
9, 75840, Note_on_c, 9, 51, 95
9, 75840, Note_on_c, 9, 40, 111
9, 75840, Note_on_c, 9, 38, 79
9, 75960, Note_off_c, 9, 51, 95
9, 75960, Note_off_c, 9, 40, 111
9, 75960, Note_off_c, 9, 38, 79
9, 76320, Note_on_c, 9, 51, 79
9, 76440, Note_off_c, 9, 51, 79
9, 76560, Note_on_c, 9, 35, 95
9, 76680, Note_off_c, 9, 35, 95
9, 76800, Note_on_c, 9, 51, 95
9, 76800, Note_on_c, 9, 35, 111
9, 76920, Note_off_c, 9, 51, 95
9, 76920, Note_off_c, 9, 35, 111
9, 77040, Note_on_c, 9, 51, 63
9, 77160, Note_off_c, 9, 51, 63
9, 77280, Note_on_c, 9, 51, 79
9, 77400, Note_off_c, 9, 51, 79
9, 77520, Note_on_c, 9, 35, 95
9, 77640, Note_off_c, 9, 35, 95
9, 77760, Note_on_c, 9, 38, 79
9, 77760, Note_on_c, 9, 51, 95
9, 77760, Note_on_c, 9, 40, 111
9, 77880, Note_off_c, 9, 38, 79
9, 77880, Note_off_c, 9, 51, 95
9, 77880, Note_off_c, 9, 40, 111
9, 78000, Note_on_c, 9, 51, 63
9, 78120, Note_off_c, 9, 51, 63
9, 78240, Note_on_c, 9, 51, 79
9, 78360, Note_off_c, 9, 51, 79
9, 78480, Note_on_c, 9, 35, 95
9, 78600, Note_off_c, 9, 35, 95
9, 78720, Note_on_c, 9, 51, 95
9, 78720, Note_on_c, 9, 35, 111
9, 78840, Note_off_c, 9, 51, 95
9, 78840, Note_off_c, 9, 35, 111
9, 78960, Note_on_c, 9, 51, 63
9, 79080, Note_off_c, 9, 51, 63
9, 79200, Note_on_c, 9, 51, 63
9, 79320, Note_off_c, 9, 51, 63
9, 79440, Note_on_c, 9, 35, 95
9, 79560, Note_off_c, 9, 35, 95
9, 79680, Note_on_c, 9, 51, 95
9, 79680, Note_on_c, 9, 40, 111
9, 79680, Note_on_c, 9, 38, 79
9, 79800, Note_off_c, 9, 51, 95
9, 79800, Note_off_c, 9, 40, 111
9, 79800, Note_off_c, 9, 38, 79
9, 79920, Note_on_c, 9, 51, 63
9, 80040, Note_off_c, 9, 51, 63
9, 80160, Note_on_c, 9, 51, 63
9, 80280, Note_off_c, 9, 51, 63
9, 80400, Note_on_c, 9, 35, 95
9, 80520, Note_off_c, 9, 35, 95
9, 80640, Note_on_c, 9, 51, 95
9, 80640, Note_on_c, 9, 35, 111
9, 80760, Note_off_c, 9, 51, 95
9, 80760, Note_off_c, 9, 35, 111
9, 80880, Note_on_c, 9, 51, 63
9, 81000, Note_off_c, 9, 51, 63
9, 81120, Note_on_c, 9, 51, 79
9, 81240, Note_off_c, 9, 51, 79
9, 81360, Note_on_c, 9, 35, 95
9, 81480, Note_off_c, 9, 35, 95
9, 81600, Note_on_c, 9, 51, 95
9, 81600, Note_on_c, 9, 40, 111
9, 81600, Note_on_c, 9, 38, 79
9, 81720, Note_off_c, 9, 51, 95
9, 81720, Note_off_c, 9, 40, 111
9, 81720, Note_off_c, 9, 38, 79
9, 81840, Note_on_c, 9, 35, 95
9, 81840, Note_on_c, 9, 51, 63
9, 81960, Note_off_c, 9, 35, 95
9, 81960, Note_off_c, 9, 51, 63
9, 82080, Note_on_c, 9, 51, 79
9, 82200, Note_off_c, 9, 51, 79
9, 82320, Note_on_c, 9, 35, 95
9, 82440, Note_off_c, 9, 35, 95
9, 82560, Note_on_c, 9, 51, 95
9, 82560, Note_on_c, 9, 35, 111
9, 82680, Note_off_c, 9, 51, 95
9, 82680, Note_off_c, 9, 35, 111
9, 82800, Note_on_c, 9, 51, 63
9, 82920, Note_off_c, 9, 51, 63
9, 83040, Note_on_c, 9, 51, 63
9, 83160, Note_off_c, 9, 51, 63
9, 83280, Note_on_c, 9, 35, 95
9, 83400, Note_off_c, 9, 35, 95
9, 83520, Note_on_c, 9, 51, 95
9, 83520, Note_on_c, 9, 38, 79
9, 83520, Note_on_c, 9, 40, 111
9, 83640, Note_off_c, 9, 51, 95
9, 83640, Note_off_c, 9, 38, 79
9, 83640, Note_off_c, 9, 40, 111
9, 83760, Note_on_c, 9, 51, 63
9, 83760, Note_on_c, 9, 35, 95
9, 83880, Note_off_c, 9, 51, 63
9, 83880, Note_off_c, 9, 35, 95
9, 84000, Note_on_c, 9, 51, 63
9, 84120, Note_off_c, 9, 51, 63
9, 84240, Note_on_c, 9, 35, 95
9, 84360, Note_off_c, 9, 35, 95
9, 84480, Note_on_c, 9, 35, 111
9, 84480, Note_on_c, 9, 49, 95
9, 84600, Note_off_c, 9, 35, 111
9, 84600, Note_off_c, 9, 49, 95
9, 84960, Note_on_c, 9, 51, 63
9, 85080, Note_off_c, 9, 51, 63
9, 85200, Note_on_c, 9, 35, 95
9, 85320, Note_off_c, 9, 35, 95
9, 85440, Note_on_c, 9, 40, 111
9, 85440, Note_on_c, 9, 38, 79
9, 85440, Note_on_c, 9, 51, 95
9, 85560, Note_off_c, 9, 40, 111
9, 85560, Note_off_c, 9, 38, 79
9, 85560, Note_off_c, 9, 51, 95
9, 85920, Note_on_c, 9, 51, 63
9, 86040, Note_off_c, 9, 51, 63
9, 86160, Note_on_c, 9, 35, 95
9, 86280, Note_off_c, 9, 35, 95
9, 86400, Note_on_c, 9, 51, 95
9, 86400, Note_on_c, 9, 35, 111
9, 86520, Note_off_c, 9, 51, 95
9, 86520, Note_off_c, 9, 35, 111
9, 86880, Note_on_c, 9, 51, 79
9, 87000, Note_off_c, 9, 51, 79
9, 87120, Note_on_c, 9, 35, 95
9, 87240, Note_off_c, 9, 35, 95
9, 87360, Note_on_c, 9, 51, 95
9, 87360, Note_on_c, 9, 38, 79
9, 87360, Note_on_c, 9, 40, 111
9, 87480, Note_off_c, 9, 51, 95
9, 87480, Note_off_c, 9, 38, 79
9, 87480, Note_off_c, 9, 40, 111
9, 87840, Note_on_c, 9, 51, 63
9, 87960, Note_off_c, 9, 51, 63
9, 88080, Note_on_c, 9, 35, 95
9, 88200, Note_off_c, 9, 35, 95
9, 88320, Note_on_c, 9, 51, 79
9, 88320, Note_on_c, 9, 35, 111
9, 88440, Note_off_c, 9, 51, 79
9, 88440, Note_off_c, 9, 35, 111
9, 88800, Note_on_c, 9, 35, 95
9, 88800, Note_on_c, 9, 51, 63
9, 88920, Note_off_c, 9, 35, 95
9, 88920, Note_off_c, 9, 51, 63
9, 89280, Note_on_c, 9, 51, 79
9, 89280, Note_on_c, 9, 40, 111
9, 89280, Note_on_c, 9, 38, 79
9, 89400, Note_off_c, 9, 51, 79
9, 89400, Note_off_c, 9, 40, 111
9, 89400, Note_off_c, 9, 38, 79
9, 89760, Note_on_c, 9, 51, 79
9, 89880, Note_off_c, 9, 51, 79
9, 90000, Note_on_c, 9, 35, 95
9, 90120, Note_off_c, 9, 35, 95
9, 90240, Note_on_c, 9, 51, 79
9, 90240, Note_on_c, 9, 35, 111
9, 90360, Note_off_c, 9, 51, 79
9, 90360, Note_off_c, 9, 35, 111
9, 90720, Note_on_c, 9, 35, 95
9, 90720, Note_on_c, 9, 51, 63
9, 90840, Note_off_c, 9, 35, 95
9, 90840, Note_off_c, 9, 51, 63
9, 90960, Note_on_c, 9, 35, 95
9, 91080, Note_off_c, 9, 35, 95
9, 91200, Note_on_c, 9, 38, 79
9, 91200, Note_on_c, 9, 40, 111
9, 91200, Note_on_c, 9, 51, 95
9, 91320, Note_off_c, 9, 38, 79
9, 91320, Note_off_c, 9, 40, 111
9, 91320, Note_off_c, 9, 51, 95
9, 91680, Note_on_c, 9, 51, 63
9, 91800, Note_off_c, 9, 51, 63
9, 91920, Note_on_c, 9, 35, 95
9, 92040, Note_off_c, 9, 35, 95
9, 92160, Note_on_c, 9, 35, 111
9, 92160, Note_on_c, 9, 51, 79
9, 92280, Note_off_c, 9, 35, 111
9, 92280, Note_off_c, 9, 51, 79
9, 92640, Note_on_c, 9, 35, 111
9, 92640, Note_on_c, 9, 51, 63
9, 92760, Note_off_c, 9, 35, 111
9, 92760, Note_off_c, 9, 51, 63
9, 93120, Note_on_c, 9, 38, 79
9, 93120, Note_on_c, 9, 40, 111
9, 93120, Note_on_c, 9, 51, 95
9, 93240, Note_off_c, 9, 38, 79
9, 93240, Note_off_c, 9, 40, 111
9, 93240, Note_off_c, 9, 51, 95
9, 93600, Note_on_c, 9, 51, 63
9, 93720, Note_off_c, 9, 51, 63
9, 93840, Note_on_c, 9, 35, 95
9, 93960, Note_off_c, 9, 35, 95
9, 94080, Note_on_c, 9, 51, 95
9, 94080, Note_on_c, 9, 35, 95
9, 94200, Note_off_c, 9, 51, 95
9, 94200, Note_off_c, 9, 35, 95
9, 94560, Note_on_c, 9, 51, 79
9, 94560, Note_on_c, 9, 35, 95
9, 94680, Note_off_c, 9, 51, 79
9, 94680, Note_off_c, 9, 35, 95
9, 94800, Note_on_c, 9, 35, 95
9, 94920, Note_off_c, 9, 35, 95
9, 95040, Note_on_c, 9, 51, 79
9, 95040, Note_on_c, 9, 40, 111
9, 95040, Note_on_c, 9, 38, 95
9, 95160, Note_off_c, 9, 51, 79
9, 95160, Note_off_c, 9, 40, 111
9, 95160, Note_off_c, 9, 38, 95
9, 95280, Note_on_c, 9, 35, 95
9, 95400, Note_off_c, 9, 35, 95
9, 95520, Note_on_c, 9, 51, 79
9, 95640, Note_off_c, 9, 51, 79
9, 95760, Note_on_c, 9, 35, 95
9, 95880, Note_off_c, 9, 35, 95
9, 96000, Note_on_c, 9, 35, 111
9, 96000, Note_on_c, 9, 51, 79
9, 96120, Note_off_c, 9, 35, 111
9, 96120, Note_off_c, 9, 51, 79
9, 96480, Note_on_c, 9, 35, 95
9, 96480, Note_on_c, 9, 51, 63
9, 96600, Note_off_c, 9, 35, 95
9, 96600, Note_off_c, 9, 51, 63
9, 96720, Note_on_c, 9, 35, 95
9, 96840, Note_off_c, 9, 35, 95
9, 96960, Note_on_c, 9, 51, 111
9, 96960, Note_on_c, 9, 38, 79
9, 96960, Note_on_c, 9, 40, 111
9, 97080, Note_off_c, 9, 51, 111
9, 97080, Note_off_c, 9, 38, 79
9, 97080, Note_off_c, 9, 40, 111
9, 97440, Note_on_c, 9, 51, 63
9, 97560, Note_off_c, 9, 51, 63
9, 97680, Note_on_c, 9, 35, 95
9, 97800, Note_off_c, 9, 35, 95
9, 97920, Note_on_c, 9, 51, 95
9, 97920, Note_on_c, 9, 35, 111
9, 98040, Note_off_c, 9, 51, 95
9, 98040, Note_off_c, 9, 35, 111
9, 98400, Note_on_c, 9, 51, 79
9, 98400, Note_on_c, 9, 35, 95
9, 98520, Note_off_c, 9, 51, 79
9, 98520, Note_off_c, 9, 35, 95
9, 98640, Note_on_c, 9, 35, 95
9, 98760, Note_off_c, 9, 35, 95
9, 98880, Note_on_c, 9, 51, 95
9, 98880, Note_on_c, 9, 38, 95
9, 98880, Note_on_c, 9, 40, 111
9, 99000, Note_off_c, 9, 51, 95
9, 99000, Note_off_c, 9, 38, 95
9, 99000, Note_off_c, 9, 40, 111
9, 99120, Note_on_c, 9, 35, 95
9, 99120, Note_on_c, 9, 51, 79
9, 99240, Note_off_c, 9, 35, 95
9, 99240, Note_off_c, 9, 51, 79
9, 99360, Note_on_c, 9, 51, 79
9, 99480, Note_off_c, 9, 51, 79
9, 99600, Note_on_c, 9, 35, 95
9, 99720, Note_off_c, 9, 35, 95
9, 99840, Note_on_c, 9, 35, 111
9, 99840, Note_on_c, 9, 51, 95
9, 99960, Note_off_c, 9, 35, 111
9, 99960, Note_off_c, 9, 51, 95
9, 100320, Note_on_c, 9, 51, 63
9, 100440, Note_off_c, 9, 51, 63
9, 100560, Note_on_c, 9, 35, 95
9, 100560, Note_on_c, 9, 51, 63
9, 100680, Note_off_c, 9, 35, 95
9, 100680, Note_off_c, 9, 51, 63
9, 100800, Note_on_c, 9, 40, 111
9, 100800, Note_on_c, 9, 38, 79
9, 100800, Note_on_c, 9, 51, 95
9, 100920, Note_off_c, 9, 40, 111
9, 100920, Note_off_c, 9, 38, 79
9, 100920, Note_off_c, 9, 51, 95
9, 101280, Note_on_c, 9, 51, 79
9, 101400, Note_off_c, 9, 51, 79
9, 101520, Note_on_c, 9, 35, 95
9, 101640, Note_off_c, 9, 35, 95
9, 101760, Note_on_c, 9, 51, 79
9, 101760, Note_on_c, 9, 35, 111
9, 101880, Note_off_c, 9, 51, 79
9, 101880, Note_off_c, 9, 35, 111
9, 102240, Note_on_c, 9, 51, 63
9, 102360, Note_off_c, 9, 51, 63
9, 102480, Note_on_c, 9, 35, 95
9, 102600, Note_off_c, 9, 35, 95
9, 102720, Note_on_c, 9, 51, 95
9, 102720, Note_on_c, 9, 38, 79
9, 102720, Note_on_c, 9, 40, 111
9, 102840, Note_off_c, 9, 51, 95
9, 102840, Note_off_c, 9, 38, 79
9, 102840, Note_off_c, 9, 40, 111
9, 102960, Note_on_c, 9, 35, 95
9, 102960, Note_on_c, 9, 51, 63
9, 103080, Note_off_c, 9, 35, 95
9, 103080, Note_off_c, 9, 51, 63
9, 103200, Note_on_c, 9, 51, 79
9, 103320, Note_off_c, 9, 51, 79
9, 103440, Note_on_c, 9, 35, 95
9, 103560, Note_off_c, 9, 35, 95
9, 103680, Note_on_c, 9, 51, 95
9, 103680, Note_on_c, 9, 35, 95
9, 103800, Note_off_c, 9, 51, 95
9, 103800, Note_off_c, 9, 35, 95
9, 104160, Note_on_c, 9, 51, 63
9, 104280, Note_off_c, 9, 51, 63
9, 104400, Note_on_c, 9, 35, 95
9, 104520, Note_off_c, 9, 35, 95
9, 104640, Note_on_c, 9, 38, 79
9, 104640, Note_on_c, 9, 40, 111
9, 104640, Note_on_c, 9, 51, 95
9, 104760, Note_off_c, 9, 38, 79
9, 104760, Note_off_c, 9, 40, 111
9, 104760, Note_off_c, 9, 51, 95
9, 105120, Note_on_c, 9, 51, 63
9, 105240, Note_off_c, 9, 51, 63
9, 105360, Note_on_c, 9, 35, 95
9, 105480, Note_off_c, 9, 35, 95
9, 105600, Note_on_c, 9, 35, 111
9, 105600, Note_on_c, 9, 51, 95
9, 105720, Note_off_c, 9, 35, 111
9, 105720, Note_off_c, 9, 51, 95
9, 106080, Note_on_c, 9, 51, 79
9, 106200, Note_off_c, 9, 51, 79
9, 106560, Note_on_c, 9, 38, 79
9, 106560, Note_on_c, 9, 51, 95
9, 106560, Note_on_c, 9, 40, 111
9, 106680, Note_off_c, 9, 38, 79
9, 106680, Note_off_c, 9, 51, 95
9, 106680, Note_off_c, 9, 40, 111
9, 107040, Note_on_c, 9, 51, 63
9, 107160, Note_off_c, 9, 51, 63
9, 107280, Note_on_c, 9, 51, 63
9, 107280, Note_on_c, 9, 35, 95
9, 107400, Note_off_c, 9, 51, 63
9, 107400, Note_off_c, 9, 35, 95
9, 107520, Note_on_c, 9, 35, 111
9, 107520, Note_on_c, 9, 51, 95
9, 107640, Note_off_c, 9, 35, 111
9, 107640, Note_off_c, 9, 51, 95
9, 108000, Note_on_c, 9, 51, 63
9, 108000, Note_on_c, 9, 35, 95
9, 108120, Note_off_c, 9, 51, 63
9, 108120, Note_off_c, 9, 35, 95
9, 108480, Note_on_c, 9, 51, 79
9, 108480, Note_on_c, 9, 38, 79
9, 108480, Note_on_c, 9, 40, 111
9, 108600, Note_off_c, 9, 51, 79
9, 108600, Note_off_c, 9, 38, 79
9, 108600, Note_off_c, 9, 40, 111
9, 108960, Note_on_c, 9, 51, 79
9, 109080, Note_off_c, 9, 51, 79
9, 109200, Note_on_c, 9, 35, 95
9, 109320, Note_off_c, 9, 35, 95
9, 109440, Note_on_c, 9, 51, 79
9, 109440, Note_on_c, 9, 35, 111
9, 109560, Note_off_c, 9, 51, 79
9, 109560, Note_off_c, 9, 35, 111
9, 109920, Note_on_c, 9, 35, 111
9, 109920, Note_on_c, 9, 51, 63
9, 110040, Note_off_c, 9, 35, 111
9, 110040, Note_off_c, 9, 51, 63
9, 110160, Note_on_c, 9, 35, 95
9, 110280, Note_off_c, 9, 35, 95
9, 110400, Note_on_c, 9, 38, 79
9, 110400, Note_on_c, 9, 51, 111
9, 110400, Note_on_c, 9, 40, 111
9, 110520, Note_off_c, 9, 38, 79
9, 110520, Note_off_c, 9, 51, 111
9, 110520, Note_off_c, 9, 40, 111
9, 110880, Note_on_c, 9, 51, 63
9, 111000, Note_off_c, 9, 51, 63
9, 111120, Note_on_c, 9, 35, 95
9, 111240, Note_off_c, 9, 35, 95
9, 111360, Note_on_c, 9, 35, 111
9, 111360, Note_on_c, 9, 51, 79
9, 111480, Note_off_c, 9, 35, 111
9, 111480, Note_off_c, 9, 51, 79
9, 111840, Note_on_c, 9, 51, 63
9, 111960, Note_off_c, 9, 51, 63
9, 112080, Note_on_c, 9, 35, 95
9, 112080, Note_on_c, 9, 51, 63
9, 112200, Note_off_c, 9, 35, 95
9, 112200, Note_off_c, 9, 51, 63
9, 112320, Note_on_c, 9, 40, 111
9, 112320, Note_on_c, 9, 51, 95
9, 112320, Note_on_c, 9, 38, 79
9, 112440, Note_off_c, 9, 40, 111
9, 112440, Note_off_c, 9, 51, 95
9, 112440, Note_off_c, 9, 38, 79
9, 112800, Note_on_c, 9, 51, 63
9, 112920, Note_off_c, 9, 51, 63
9, 113280, Note_on_c, 9, 38, 47
9, 113280, Note_on_c, 9, 40, 63
9, 113280, Note_on_c, 9, 51, 95
9, 113280, Note_on_c, 9, 38, 95
9, 113280, Note_on_c, 9, 40, 111
9, 113400, Note_off_c, 9, 38, 47
9, 113400, Note_off_c, 9, 40, 63
9, 113400, Note_off_c, 9, 51, 95
9, 113400, Note_off_c, 9, 38, 95
9, 113400, Note_off_c, 9, 40, 111
9, 113760, Note_on_c, 9, 49, 79
9, 113760, Note_on_c, 9, 35, 111
9, 113880, Note_off_c, 9, 49, 79
9, 113880, Note_off_c, 9, 35, 111
9, 114240, Note_on_c, 9, 57, 95
9, 114240, Note_on_c, 9, 35, 111
9, 114360, Note_off_c, 9, 57, 95
9, 114360, Note_off_c, 9, 35, 111
9, 114720, Note_on_c, 9, 49, 95
9, 114720, Note_on_c, 9, 35, 111
9, 114840, Note_off_c, 9, 49, 95
9, 114840, Note_off_c, 9, 35, 111
9, 115200, Note_on_c, 9, 51, 95
9, 115320, Note_off_c, 9, 51, 95
9, 115440, Note_on_c, 9, 35, 111
9, 115560, Note_off_c, 9, 35, 111
9, 115680, Note_on_c, 9, 51, 63
9, 115800, Note_off_c, 9, 51, 63
9, 115920, Note_on_c, 9, 35, 111
9, 116040, Note_off_c, 9, 35, 111
9, 116160, Note_on_c, 9, 51, 79
9, 116160, Note_on_c, 9, 40, 111
9, 116160, Note_on_c, 9, 38, 79
9, 116280, Note_off_c, 9, 51, 79
9, 116280, Note_off_c, 9, 40, 111
9, 116280, Note_off_c, 9, 38, 79
9, 116640, Note_on_c, 9, 51, 79
9, 116760, Note_off_c, 9, 51, 79
9, 116880, Note_on_c, 9, 35, 95
9, 117000, Note_off_c, 9, 35, 95
9, 117120, Note_on_c, 9, 51, 79
9, 117120, Note_on_c, 9, 35, 111
9, 117240, Note_off_c, 9, 51, 79
9, 117240, Note_off_c, 9, 35, 111
9, 117600, Note_on_c, 9, 35, 111
9, 117600, Note_on_c, 9, 51, 63
9, 117720, Note_off_c, 9, 35, 111
9, 117720, Note_off_c, 9, 51, 63
9, 117840, Note_on_c, 9, 35, 95
9, 117960, Note_off_c, 9, 35, 95
9, 118080, Note_on_c, 9, 38, 79
9, 118080, Note_on_c, 9, 40, 111
9, 118080, Note_on_c, 9, 51, 95
9, 118200, Note_off_c, 9, 38, 79
9, 118200, Note_off_c, 9, 40, 111
9, 118200, Note_off_c, 9, 51, 95
9, 118320, Note_on_c, 9, 47, 79
9, 118440, Note_off_c, 9, 47, 79
9, 118560, Note_on_c, 9, 48, 111
9, 118560, Note_on_c, 9, 51, 63
9, 118680, Note_off_c, 9, 48, 111
9, 118680, Note_off_c, 9, 51, 63
9, 118800, Note_on_c, 9, 35, 95
9, 118800, Note_on_c, 9, 45, 95
9, 118920, Note_off_c, 9, 35, 95
9, 118920, Note_off_c, 9, 45, 95
9, 119040, Note_on_c, 9, 35, 111
9, 119040, Note_on_c, 9, 49, 79
9, 119160, Note_off_c, 9, 35, 111
9, 119160, Note_off_c, 9, 49, 79
9, 119520, Note_on_c, 9, 51, 63
9, 119640, Note_off_c, 9, 51, 63
9, 119760, Note_on_c, 9, 35, 95
9, 119880, Note_off_c, 9, 35, 95
9, 120000, Note_on_c, 9, 51, 95
9, 120000, Note_on_c, 9, 40, 111
9, 120000, Note_on_c, 9, 38, 79
9, 120120, Note_off_c, 9, 51, 95
9, 120120, Note_off_c, 9, 40, 111
9, 120120, Note_off_c, 9, 38, 79
9, 120480, Note_on_c, 9, 51, 63
9, 120600, Note_off_c, 9, 51, 63
9, 120720, Note_on_c, 9, 35, 95
9, 120840, Note_off_c, 9, 35, 95
9, 120960, Note_on_c, 9, 40, 63
9, 120960, Note_on_c, 9, 38, 47
9, 120960, Note_on_c, 9, 51, 95
9, 120960, Note_on_c, 9, 40, 111
9, 120960, Note_on_c, 9, 38, 95
9, 121080, Note_off_c, 9, 40, 63
9, 121080, Note_off_c, 9, 38, 47
9, 121080, Note_off_c, 9, 51, 95
9, 121080, Note_off_c, 9, 40, 111
9, 121080, Note_off_c, 9, 38, 95
9, 121440, Note_on_c, 9, 45, 95
9, 121440, Note_on_c, 9, 47, 95
9, 121440, Note_on_c, 9, 35, 111
9, 121560, Note_off_c, 9, 45, 95
9, 121560, Note_off_c, 9, 47, 95
9, 121560, Note_off_c, 9, 35, 111
9, 121920, Note_on_c, 9, 45, 95
9, 121920, Note_on_c, 9, 47, 95
9, 121920, Note_on_c, 9, 35, 111
9, 122040, Note_off_c, 9, 45, 95
9, 122040, Note_off_c, 9, 47, 95
9, 122040, Note_off_c, 9, 35, 111
9, 122400, Note_on_c, 9, 43, 95
9, 122400, Note_on_c, 9, 35, 111
9, 122400, Note_on_c, 9, 49, 95
9, 122520, Note_off_c, 9, 43, 95
9, 122520, Note_off_c, 9, 35, 111
9, 122520, Note_off_c, 9, 49, 95
9, 122880, Note_on_c, 9, 35, 111
9, 122880, Note_on_c, 9, 51, 79
9, 123000, Note_off_c, 9, 35, 111
9, 123000, Note_off_c, 9, 51, 79
9, 123360, Note_on_c, 9, 35, 111
9, 123360, Note_on_c, 9, 51, 63
9, 123480, Note_off_c, 9, 35, 111
9, 123480, Note_off_c, 9, 51, 63
9, 123840, Note_on_c, 9, 51, 79
9, 123840, Note_on_c, 9, 38, 79
9, 123840, Note_on_c, 9, 40, 111
9, 123960, Note_off_c, 9, 51, 79
9, 123960, Note_off_c, 9, 38, 79
9, 123960, Note_off_c, 9, 40, 111
9, 124320, Note_on_c, 9, 51, 79
9, 124440, Note_off_c, 9, 51, 79
9, 124560, Note_on_c, 9, 35, 95
9, 124680, Note_off_c, 9, 35, 95
9, 124800, Note_on_c, 9, 51, 79
9, 124800, Note_on_c, 9, 35, 111
9, 124920, Note_off_c, 9, 51, 79
9, 124920, Note_off_c, 9, 35, 111
9, 125280, Note_on_c, 9, 35, 111
9, 125280, Note_on_c, 9, 51, 63
9, 125400, Note_off_c, 9, 35, 111
9, 125400, Note_off_c, 9, 51, 63
9, 125520, Note_on_c, 9, 35, 95
9, 125640, Note_off_c, 9, 35, 95
9, 125760, Note_on_c, 9, 38, 79
9, 125760, Note_on_c, 9, 51, 95
9, 125760, Note_on_c, 9, 40, 111
9, 125880, Note_off_c, 9, 38, 79
9, 125880, Note_off_c, 9, 51, 95
9, 125880, Note_off_c, 9, 40, 111
9, 126000, Note_on_c, 9, 51, 47
9, 126120, Note_off_c, 9, 51, 47
9, 126240, Note_on_c, 9, 51, 63
9, 126360, Note_off_c, 9, 51, 63
9, 126480, Note_on_c, 9, 35, 95
9, 126600, Note_off_c, 9, 35, 95
9, 126720, Note_on_c, 9, 35, 111
9, 126720, Note_on_c, 9, 49, 63
9, 126840, Note_off_c, 9, 35, 111
9, 126840, Note_off_c, 9, 49, 63
9, 127200, Note_on_c, 9, 51, 63
9, 127320, Note_off_c, 9, 51, 63
9, 127440, Note_on_c, 9, 35, 95
9, 127560, Note_off_c, 9, 35, 95
9, 127680, Note_on_c, 9, 38, 79
9, 127680, Note_on_c, 9, 51, 95
9, 127680, Note_on_c, 9, 40, 111
9, 127800, Note_off_c, 9, 38, 79
9, 127800, Note_off_c, 9, 51, 95
9, 127800, Note_off_c, 9, 40, 111
9, 128160, Note_on_c, 9, 51, 63
9, 128280, Note_off_c, 9, 51, 63
9, 128400, Note_on_c, 9, 35, 95
9, 128520, Note_off_c, 9, 35, 95
9, 128640, Note_on_c, 9, 51, 95
9, 128640, Note_on_c, 9, 38, 95
9, 128640, Note_on_c, 9, 40, 111
9, 128760, Note_off_c, 9, 51, 95
9, 128760, Note_off_c, 9, 38, 95
9, 128760, Note_off_c, 9, 40, 111
9, 129120, Note_on_c, 9, 48, 127
9, 129240, Note_off_c, 9, 48, 127
9, 129240, Note_on_c, 9, 48, 127
9, 129360, Note_off_c, 9, 48, 127
9, 129360, Note_on_c, 9, 48, 95
9, 129480, Note_off_c, 9, 48, 95
9, 129600, Note_on_c, 9, 47, 111
9, 129720, Note_off_c, 9, 47, 111
9, 129840, Note_on_c, 9, 47, 79
9, 129960, Note_off_c, 9, 47, 79
9, 130080, Note_on_c, 9, 47, 127
9, 130200, Note_off_c, 9, 47, 127
9, 130200, Note_on_c, 9, 47, 95
9, 130320, Note_off_c, 9, 47, 95
9, 130320, Note_on_c, 9, 45, 79
9, 130440, Note_off_c, 9, 45, 79
9, 130560, Note_on_c, 9, 49, 79
9, 130560, Note_on_c, 9, 35, 111
9, 130680, Note_off_c, 9, 49, 79
9, 130680, Note_off_c, 9, 35, 111
9, 131040, Note_on_c, 9, 51, 79
9, 131160, Note_off_c, 9, 51, 79
9, 131280, Note_on_c, 9, 35, 95
9, 131400, Note_off_c, 9, 35, 95
9, 131520, Note_on_c, 9, 38, 79
9, 131520, Note_on_c, 9, 40, 111
9, 131520, Note_on_c, 9, 51, 95
9, 131640, Note_off_c, 9, 38, 79
9, 131640, Note_off_c, 9, 40, 111
9, 131640, Note_off_c, 9, 51, 95
9, 132000, Note_on_c, 9, 51, 63
9, 132120, Note_off_c, 9, 51, 63
9, 132240, Note_on_c, 9, 35, 95
9, 132360, Note_off_c, 9, 35, 95
9, 132480, Note_on_c, 9, 51, 95
9, 132480, Note_on_c, 9, 35, 111
9, 132600, Note_off_c, 9, 51, 95
9, 132600, Note_off_c, 9, 35, 111
9, 132960, Note_on_c, 9, 51, 79
9, 133080, Note_off_c, 9, 51, 79
9, 133440, Note_on_c, 9, 51, 95
9, 133440, Note_on_c, 9, 40, 111
9, 133440, Note_on_c, 9, 38, 79
9, 133560, Note_off_c, 9, 51, 95
9, 133560, Note_off_c, 9, 40, 111
9, 133560, Note_off_c, 9, 38, 79
9, 133920, Note_on_c, 9, 51, 79
9, 134040, Note_off_c, 9, 51, 79
9, 134160, Note_on_c, 9, 35, 95
9, 134280, Note_off_c, 9, 35, 95
9, 134400, Note_on_c, 9, 51, 95
9, 134400, Note_on_c, 9, 35, 111
9, 134520, Note_off_c, 9, 51, 95
9, 134520, Note_off_c, 9, 35, 111
9, 134880, Note_on_c, 9, 35, 95
9, 134880, Note_on_c, 9, 51, 79
9, 135000, Note_off_c, 9, 35, 95
9, 135000, Note_off_c, 9, 51, 79
9, 135360, Note_on_c, 9, 40, 111
9, 135360, Note_on_c, 9, 51, 95
9, 135360, Note_on_c, 9, 38, 79
9, 135480, Note_off_c, 9, 40, 111
9, 135480, Note_off_c, 9, 51, 95
9, 135480, Note_off_c, 9, 38, 79
9, 135600, Note_on_c, 9, 35, 95
9, 135720, Note_off_c, 9, 35, 95
9, 135840, Note_on_c, 9, 51, 79
9, 135960, Note_off_c, 9, 51, 79
9, 136080, Note_on_c, 9, 35, 95
9, 136200, Note_off_c, 9, 35, 95
9, 136320, Note_on_c, 9, 51, 79
9, 136320, Note_on_c, 9, 35, 111
9, 136440, Note_off_c, 9, 51, 79
9, 136440, Note_off_c, 9, 35, 111
9, 136800, Note_on_c, 9, 51, 63
9, 136800, Note_on_c, 9, 35, 95
9, 136920, Note_off_c, 9, 51, 63
9, 136920, Note_off_c, 9, 35, 95
9, 137040, Note_on_c, 9, 35, 95
9, 137160, Note_off_c, 9, 35, 95
9, 137280, Note_on_c, 9, 51, 95
9, 137280, Note_on_c, 9, 40, 111
9, 137280, Note_on_c, 9, 38, 79
9, 137400, Note_off_c, 9, 51, 95
9, 137400, Note_off_c, 9, 40, 111
9, 137400, Note_off_c, 9, 38, 79
9, 137760, Note_on_c, 9, 51, 63
9, 137880, Note_off_c, 9, 51, 63
9, 138000, Note_on_c, 9, 35, 95
9, 138120, Note_off_c, 9, 35, 95
9, 138240, Note_on_c, 9, 51, 95
9, 138240, Note_on_c, 9, 35, 111
9, 138360, Note_off_c, 9, 51, 95
9, 138360, Note_off_c, 9, 35, 111
9, 138720, Note_on_c, 9, 51, 63
9, 138840, Note_off_c, 9, 51, 63
9, 138960, Note_on_c, 9, 35, 95
9, 139080, Note_off_c, 9, 35, 95
9, 139200, Note_on_c, 9, 51, 79
9, 139200, Note_on_c, 9, 38, 79
9, 139200, Note_on_c, 9, 40, 111
9, 139320, Note_off_c, 9, 51, 79
9, 139320, Note_off_c, 9, 38, 79
9, 139320, Note_off_c, 9, 40, 111
9, 139440, Note_on_c, 9, 51, 47
9, 139560, Note_off_c, 9, 51, 47
9, 139680, Note_on_c, 9, 51, 79
9, 139800, Note_off_c, 9, 51, 79
9, 139920, Note_on_c, 9, 35, 95
9, 140040, Note_off_c, 9, 35, 95
9, 140160, Note_on_c, 9, 51, 79
9, 140160, Note_on_c, 9, 35, 95
9, 140280, Note_off_c, 9, 51, 79
9, 140280, Note_off_c, 9, 35, 95
9, 140400, Note_on_c, 9, 51, 47
9, 140520, Note_off_c, 9, 51, 47
9, 140640, Note_on_c, 9, 51, 79
9, 140760, Note_off_c, 9, 51, 79
9, 140880, Note_on_c, 9, 35, 95
9, 141000, Note_off_c, 9, 35, 95
9, 141120, Note_on_c, 9, 38, 79
9, 141120, Note_on_c, 9, 51, 95
9, 141120, Note_on_c, 9, 40, 111
9, 141240, Note_off_c, 9, 38, 79
9, 141240, Note_off_c, 9, 51, 95
9, 141240, Note_off_c, 9, 40, 111
9, 141600, Note_on_c, 9, 51, 79
9, 141720, Note_off_c, 9, 51, 79
9, 141840, Note_on_c, 9, 35, 95
9, 141960, Note_off_c, 9, 35, 95
9, 142080, Note_on_c, 9, 51, 95
9, 142080, Note_on_c, 9, 35, 111
9, 142200, Note_off_c, 9, 51, 95
9, 142200, Note_off_c, 9, 35, 111
9, 142320, Note_on_c, 9, 51, 63
9, 142440, Note_off_c, 9, 51, 63
9, 142560, Note_on_c, 9, 51, 79
9, 142680, Note_off_c, 9, 51, 79
9, 142800, Note_on_c, 9, 35, 95
9, 142920, Note_off_c, 9, 35, 95
9, 143040, Note_on_c, 9, 51, 95
9, 143040, Note_on_c, 9, 40, 111
9, 143040, Note_on_c, 9, 38, 79
9, 143160, Note_off_c, 9, 51, 95
9, 143160, Note_off_c, 9, 40, 111
9, 143160, Note_off_c, 9, 38, 79
9, 143280, Note_on_c, 9, 51, 63
9, 143400, Note_off_c, 9, 51, 63
9, 143520, Note_on_c, 9, 51, 79
9, 143640, Note_off_c, 9, 51, 79
9, 143760, Note_on_c, 9, 35, 95
9, 143880, Note_off_c, 9, 35, 95
9, 144000, Note_on_c, 9, 51, 95
9, 144000, Note_on_c, 9, 35, 111
9, 144120, Note_off_c, 9, 51, 95
9, 144120, Note_off_c, 9, 35, 111
9, 144240, Note_on_c, 9, 35, 95
9, 144240, Note_on_c, 9, 51, 63
9, 144360, Note_off_c, 9, 35, 95
9, 144360, Note_off_c, 9, 51, 63
9, 144480, Note_on_c, 9, 51, 63
9, 144600, Note_off_c, 9, 51, 63
9, 144720, Note_on_c, 9, 35, 95
9, 144840, Note_off_c, 9, 35, 95
9, 144960, Note_on_c, 9, 51, 95
9, 144960, Note_on_c, 9, 38, 79
9, 144960, Note_on_c, 9, 40, 111
9, 145080, Note_off_c, 9, 51, 95
9, 145080, Note_off_c, 9, 38, 79
9, 145080, Note_off_c, 9, 40, 111
9, 145200, Note_on_c, 9, 51, 63
9, 145320, Note_off_c, 9, 51, 63
9, 145440, Note_on_c, 9, 51, 63
9, 145560, Note_off_c, 9, 51, 63
9, 145680, Note_on_c, 9, 35, 95
9, 145800, Note_off_c, 9, 35, 95
9, 145920, Note_on_c, 9, 35, 111
9, 145920, Note_on_c, 9, 51, 95
9, 146040, Note_off_c, 9, 35, 111
9, 146040, Note_off_c, 9, 51, 95
9, 146160, Note_on_c, 9, 51, 63
9, 146280, Note_off_c, 9, 51, 63
9, 146400, Note_on_c, 9, 51, 79
9, 146520, Note_off_c, 9, 51, 79
9, 146640, Note_on_c, 9, 35, 95
9, 146760, Note_off_c, 9, 35, 95
9, 146880, Note_on_c, 9, 51, 95
9, 146880, Note_on_c, 9, 38, 79
9, 146880, Note_on_c, 9, 40, 111
9, 147000, Note_off_c, 9, 51, 95
9, 147000, Note_off_c, 9, 38, 79
9, 147000, Note_off_c, 9, 40, 111
9, 147120, Note_on_c, 9, 51, 63
9, 147240, Note_off_c, 9, 51, 63
9, 147360, Note_on_c, 9, 51, 79
9, 147480, Note_off_c, 9, 51, 79
9, 147600, Note_on_c, 9, 35, 95
9, 147720, Note_off_c, 9, 35, 95
9, 147840, Note_on_c, 9, 51, 95
9, 147960, Note_off_c, 9, 51, 95
9, 148080, Note_on_c, 9, 35, 95
9, 148080, Note_on_c, 9, 51, 63
9, 148200, Note_off_c, 9, 35, 95
9, 148200, Note_off_c, 9, 51, 63
9, 148320, Note_on_c, 9, 51, 63
9, 148440, Note_off_c, 9, 51, 63
9, 148560, Note_on_c, 9, 35, 95
9, 148680, Note_off_c, 9, 35, 95
9, 148800, Note_on_c, 9, 51, 95
9, 148800, Note_on_c, 9, 40, 111
9, 148800, Note_on_c, 9, 38, 79
9, 148920, Note_off_c, 9, 51, 95
9, 148920, Note_off_c, 9, 40, 111
9, 148920, Note_off_c, 9, 38, 79
9, 149040, Note_on_c, 9, 51, 63
9, 149160, Note_off_c, 9, 51, 63
9, 149280, Note_on_c, 9, 51, 63
9, 149400, Note_off_c, 9, 51, 63
9, 149520, Note_on_c, 9, 35, 95
9, 149640, Note_off_c, 9, 35, 95
9, 149760, Note_on_c, 9, 51, 95
9, 149760, Note_on_c, 9, 35, 111
9, 149880, Note_off_c, 9, 51, 95
9, 149880, Note_off_c, 9, 35, 111
9, 160080, Note_on_c, 9, 38, 63
9, 160080, Note_on_c, 9, 40, 95
9, 160200, Note_off_c, 9, 38, 63
9, 160200, Note_off_c, 9, 40, 95
9, 160320, Note_on_c, 9, 40, 111
9, 160320, Note_on_c, 9, 38, 95
9, 160440, Note_off_c, 9, 40, 111
9, 160440, Note_off_c, 9, 38, 95
9, 160800, Note_on_c, 9, 40, 95
9, 160800, Note_on_c, 9, 38, 79
9, 160920, Note_off_c, 9, 40, 95
9, 160920, Note_off_c, 9, 38, 79
9, 161280, Note_on_c, 9, 38, 63
9, 161280, Note_on_c, 9, 40, 79
9, 161280, Note_on_c, 9, 42, 111
9, 161280, Note_on_c, 9, 40, 127
9, 161280, Note_on_c, 9, 38, 95
9, 161400, Note_off_c, 9, 38, 63
9, 161400, Note_off_c, 9, 40, 79
9, 161400, Note_off_c, 9, 42, 111
9, 161400, Note_off_c, 9, 40, 127
9, 161400, Note_off_c, 9, 38, 95
9, 162240, Note_on_c, 9, 42, 95
9, 162360, Note_off_c, 9, 42, 95
9, 163200, Note_on_c, 9, 42, 95
9, 163320, Note_off_c, 9, 42, 95
9, 164160, Note_on_c, 9, 42, 95
9, 164280, Note_off_c, 9, 42, 95
9, 165120, Note_on_c, 9, 42, 95
9, 165240, Note_off_c, 9, 42, 95
9, 166080, Note_on_c, 9, 40, 95
9, 166080, Note_on_c, 9, 38, 79
9, 166200, Note_off_c, 9, 40, 95
9, 166200, Note_off_c, 9, 38, 79
9, 166320, Note_on_c, 9, 38, 63
9, 166320, Note_on_c, 9, 40, 95
9, 166440, Note_off_c, 9, 38, 63
9, 166440, Note_off_c, 9, 40, 95
9, 166560, Note_on_c, 9, 38, 79
9, 166560, Note_on_c, 9, 40, 111
9, 166680, Note_off_c, 9, 38, 79
9, 166680, Note_off_c, 9, 40, 111
9, 167040, Note_on_c, 9, 47, 111
9, 167160, Note_off_c, 9, 47, 111
9, 167280, Note_on_c, 9, 47, 95
9, 167400, Note_off_c, 9, 47, 95
9, 167520, Note_on_c, 9, 47, 95
9, 167640, Note_off_c, 9, 47, 95
9, 168000, Note_on_c, 9, 45, 79
9, 168120, Note_off_c, 9, 45, 79
9, 168240, Note_on_c, 9, 45, 95
9, 168360, Note_off_c, 9, 45, 95
9, 168480, Note_on_c, 9, 45, 111
9, 168600, Note_off_c, 9, 45, 111
9, 168720, Note_on_c, 9, 45, 127
9, 168840, Note_off_c, 9, 45, 127
9, 168960, Note_on_c, 9, 49, 95
9, 168960, Note_on_c, 9, 35, 111
9, 169080, Note_off_c, 9, 49, 95
9, 169080, Note_off_c, 9, 35, 111
9, 169440, Note_on_c, 9, 51, 95
9, 169560, Note_off_c, 9, 51, 95
9, 169920, Note_on_c, 9, 40, 127
9, 169920, Note_on_c, 9, 38, 95
9, 169920, Note_on_c, 9, 51, 111
9, 170040, Note_off_c, 9, 40, 127
9, 170040, Note_off_c, 9, 38, 95
9, 170040, Note_off_c, 9, 51, 111
9, 170400, Note_on_c, 9, 51, 79
9, 170520, Note_off_c, 9, 51, 79
9, 170640, Note_on_c, 9, 38, 63
9, 170640, Note_on_c, 9, 40, 95
9, 170760, Note_off_c, 9, 38, 63
9, 170760, Note_off_c, 9, 40, 95
9, 170880, Note_on_c, 9, 51, 111
9, 170880, Note_on_c, 9, 35, 111
9, 171000, Note_off_c, 9, 51, 111
9, 171000, Note_off_c, 9, 35, 111
9, 171120, Note_on_c, 9, 38, 63
9, 171120, Note_on_c, 9, 40, 95
9, 171240, Note_off_c, 9, 38, 63
9, 171240, Note_off_c, 9, 40, 95
9, 171360, Note_on_c, 9, 51, 95
9, 171360, Note_on_c, 9, 35, 95
9, 171480, Note_off_c, 9, 51, 95
9, 171480, Note_off_c, 9, 35, 95
9, 171600, Note_on_c, 9, 35, 95
9, 171720, Note_off_c, 9, 35, 95
9, 171840, Note_on_c, 9, 51, 111
9, 171840, Note_on_c, 9, 40, 127
9, 171840, Note_on_c, 9, 38, 95
9, 171960, Note_off_c, 9, 51, 111
9, 171960, Note_off_c, 9, 40, 127
9, 171960, Note_off_c, 9, 38, 95
9, 172320, Note_on_c, 9, 51, 79
9, 172440, Note_off_c, 9, 51, 79
9, 172560, Note_on_c, 9, 38, 79
9, 172560, Note_on_c, 9, 40, 111
9, 172680, Note_off_c, 9, 38, 79
9, 172680, Note_off_c, 9, 40, 111
9, 172800, Note_on_c, 9, 51, 95
9, 172920, Note_off_c, 9, 51, 95
9, 173280, Note_on_c, 9, 35, 111
9, 173280, Note_on_c, 9, 51, 95
9, 173400, Note_off_c, 9, 35, 111
9, 173400, Note_off_c, 9, 51, 95
9, 173760, Note_on_c, 9, 40, 127
9, 173760, Note_on_c, 9, 38, 95
9, 173760, Note_on_c, 9, 51, 111
9, 173880, Note_off_c, 9, 40, 127
9, 173880, Note_off_c, 9, 38, 95
9, 173880, Note_off_c, 9, 51, 111
9, 174240, Note_on_c, 9, 51, 79
9, 174360, Note_off_c, 9, 51, 79
9, 174480, Note_on_c, 9, 38, 47
9, 174480, Note_on_c, 9, 40, 63
9, 174600, Note_off_c, 9, 38, 47
9, 174600, Note_off_c, 9, 40, 63
9, 174720, Note_on_c, 9, 51, 111
9, 174720, Note_on_c, 9, 35, 111
9, 174840, Note_off_c, 9, 51, 111
9, 174840, Note_off_c, 9, 35, 111
9, 175200, Note_on_c, 9, 51, 95
9, 175200, Note_on_c, 9, 35, 95
9, 175320, Note_off_c, 9, 51, 95
9, 175320, Note_off_c, 9, 35, 95
9, 175680, Note_on_c, 9, 51, 111
9, 175680, Note_on_c, 9, 38, 95
9, 175680, Note_on_c, 9, 40, 127
9, 175800, Note_off_c, 9, 51, 111
9, 175800, Note_off_c, 9, 38, 95
9, 175800, Note_off_c, 9, 40, 127
9, 176160, Note_on_c, 9, 51, 79
9, 176280, Note_off_c, 9, 51, 79
9, 176400, Note_on_c, 9, 40, 95
9, 176400, Note_on_c, 9, 38, 63
9, 176520, Note_off_c, 9, 40, 95
9, 176520, Note_off_c, 9, 38, 63
9, 176640, Note_on_c, 9, 51, 95
9, 176640, Note_on_c, 9, 35, 111
9, 176760, Note_off_c, 9, 51, 95
9, 176760, Note_off_c, 9, 35, 111
9, 177120, Note_on_c, 9, 35, 111
9, 177120, Note_on_c, 9, 51, 95
9, 177240, Note_off_c, 9, 35, 111
9, 177240, Note_off_c, 9, 51, 95
9, 177600, Note_on_c, 9, 40, 127
9, 177600, Note_on_c, 9, 38, 95
9, 177600, Note_on_c, 9, 51, 111
9, 177720, Note_off_c, 9, 40, 127
9, 177720, Note_off_c, 9, 38, 95
9, 177720, Note_off_c, 9, 51, 111
9, 178080, Note_on_c, 9, 51, 79
9, 178200, Note_off_c, 9, 51, 79
9, 178320, Note_on_c, 9, 38, 63
9, 178320, Note_on_c, 9, 40, 95
9, 178440, Note_off_c, 9, 38, 63
9, 178440, Note_off_c, 9, 40, 95
9, 178560, Note_on_c, 9, 51, 111
9, 178560, Note_on_c, 9, 35, 111
9, 178680, Note_off_c, 9, 51, 111
9, 178680, Note_off_c, 9, 35, 111
9, 178800, Note_on_c, 9, 38, 63
9, 178800, Note_on_c, 9, 40, 95
9, 178920, Note_off_c, 9, 38, 63
9, 178920, Note_off_c, 9, 40, 95
9, 179040, Note_on_c, 9, 35, 95
9, 179040, Note_on_c, 9, 51, 95
9, 179160, Note_off_c, 9, 35, 95
9, 179160, Note_off_c, 9, 51, 95
9, 179280, Note_on_c, 9, 35, 95
9, 179400, Note_off_c, 9, 35, 95
9, 179520, Note_on_c, 9, 51, 111
9, 179520, Note_on_c, 9, 38, 95
9, 179520, Note_on_c, 9, 40, 127
9, 179640, Note_off_c, 9, 51, 111
9, 179640, Note_off_c, 9, 38, 95
9, 179640, Note_off_c, 9, 40, 127
9, 180000, Note_on_c, 9, 51, 79
9, 180120, Note_off_c, 9, 51, 79
9, 180240, Note_on_c, 9, 38, 79
9, 180240, Note_on_c, 9, 40, 111
9, 180360, Note_off_c, 9, 38, 79
9, 180360, Note_off_c, 9, 40, 111
9, 180480, Note_on_c, 9, 51, 95
9, 180480, Note_on_c, 9, 35, 111
9, 180600, Note_off_c, 9, 51, 95
9, 180600, Note_off_c, 9, 35, 111
9, 180960, Note_on_c, 9, 35, 111
9, 180960, Note_on_c, 9, 51, 95
9, 181080, Note_off_c, 9, 35, 111
9, 181080, Note_off_c, 9, 51, 95
9, 181440, Note_on_c, 9, 40, 127
9, 181440, Note_on_c, 9, 38, 95
9, 181440, Note_on_c, 9, 51, 111
9, 181560, Note_off_c, 9, 40, 127
9, 181560, Note_off_c, 9, 38, 95
9, 181560, Note_off_c, 9, 51, 111
9, 181920, Note_on_c, 9, 51, 79
9, 182040, Note_off_c, 9, 51, 79
9, 182160, Note_on_c, 9, 38, 47
9, 182160, Note_on_c, 9, 40, 63
9, 182280, Note_off_c, 9, 38, 47
9, 182280, Note_off_c, 9, 40, 63
9, 182400, Note_on_c, 9, 51, 111
9, 182400, Note_on_c, 9, 35, 111
9, 182520, Note_off_c, 9, 51, 111
9, 182520, Note_off_c, 9, 35, 111
9, 182880, Note_on_c, 9, 35, 95
9, 182880, Note_on_c, 9, 51, 95
9, 183000, Note_off_c, 9, 35, 95
9, 183000, Note_off_c, 9, 51, 95
9, 183360, Note_on_c, 9, 51, 111
9, 183360, Note_on_c, 9, 38, 95
9, 183360, Note_on_c, 9, 40, 127
9, 183480, Note_off_c, 9, 51, 111
9, 183480, Note_off_c, 9, 38, 95
9, 183480, Note_off_c, 9, 40, 127
9, 183840, Note_on_c, 9, 51, 79
9, 183960, Note_off_c, 9, 51, 79
9, 184320, Note_on_c, 9, 51, 95
9, 184320, Note_on_c, 9, 35, 111
9, 184440, Note_off_c, 9, 51, 95
9, 184440, Note_off_c, 9, 35, 111
9, 184800, Note_on_c, 9, 35, 111
9, 184800, Note_on_c, 9, 51, 95
9, 184920, Note_off_c, 9, 35, 111
9, 184920, Note_off_c, 9, 51, 95
9, 185280, Note_on_c, 9, 40, 127
9, 185280, Note_on_c, 9, 38, 95
9, 185280, Note_on_c, 9, 51, 111
9, 185400, Note_off_c, 9, 40, 127
9, 185400, Note_off_c, 9, 38, 95
9, 185400, Note_off_c, 9, 51, 111
9, 185760, Note_on_c, 9, 51, 79
9, 185760, Note_on_c, 9, 35, 95
9, 185880, Note_off_c, 9, 51, 79
9, 185880, Note_off_c, 9, 35, 95
9, 186000, Note_on_c, 9, 40, 95
9, 186000, Note_on_c, 9, 38, 63
9, 186120, Note_off_c, 9, 40, 95
9, 186120, Note_off_c, 9, 38, 63
9, 186240, Note_on_c, 9, 51, 111
9, 186240, Note_on_c, 9, 35, 111
9, 186360, Note_off_c, 9, 51, 111
9, 186360, Note_off_c, 9, 35, 111
9, 186480, Note_on_c, 9, 38, 63
9, 186480, Note_on_c, 9, 40, 95
9, 186600, Note_off_c, 9, 38, 63
9, 186600, Note_off_c, 9, 40, 95
9, 186720, Note_on_c, 9, 51, 95
9, 186720, Note_on_c, 9, 35, 95
9, 186840, Note_off_c, 9, 51, 95
9, 186840, Note_off_c, 9, 35, 95
9, 186960, Note_on_c, 9, 35, 95
9, 187080, Note_off_c, 9, 35, 95
9, 187200, Note_on_c, 9, 51, 111
9, 187200, Note_on_c, 9, 38, 95
9, 187200, Note_on_c, 9, 40, 127
9, 187320, Note_off_c, 9, 51, 111
9, 187320, Note_off_c, 9, 38, 95
9, 187320, Note_off_c, 9, 40, 127
9, 187680, Note_on_c, 9, 51, 79
9, 187800, Note_off_c, 9, 51, 79
9, 187920, Note_on_c, 9, 38, 79
9, 187920, Note_on_c, 9, 40, 111
9, 188040, Note_off_c, 9, 38, 79
9, 188040, Note_off_c, 9, 40, 111
9, 188160, Note_on_c, 9, 51, 95
9, 188160, Note_on_c, 9, 35, 111
9, 188280, Note_off_c, 9, 51, 95
9, 188280, Note_off_c, 9, 35, 111
9, 188400, Note_on_c, 9, 40, 95
9, 188400, Note_on_c, 9, 38, 63
9, 188520, Note_off_c, 9, 40, 95
9, 188520, Note_off_c, 9, 38, 63
9, 188640, Note_on_c, 9, 35, 95
9, 188640, Note_on_c, 9, 51, 95
9, 188760, Note_off_c, 9, 35, 95
9, 188760, Note_off_c, 9, 51, 95
9, 188880, Note_on_c, 9, 35, 95
9, 189000, Note_off_c, 9, 35, 95
9, 189120, Note_on_c, 9, 38, 95
9, 189120, Note_on_c, 9, 40, 127
9, 189120, Note_on_c, 9, 51, 111
9, 189240, Note_off_c, 9, 38, 95
9, 189240, Note_off_c, 9, 40, 127
9, 189240, Note_off_c, 9, 51, 111
9, 189600, Note_on_c, 9, 51, 79
9, 189720, Note_off_c, 9, 51, 79
9, 190080, Note_on_c, 9, 51, 111
9, 190080, Note_on_c, 9, 35, 111
9, 190200, Note_off_c, 9, 51, 111
9, 190200, Note_off_c, 9, 35, 111
9, 190560, Note_on_c, 9, 35, 95
9, 190560, Note_on_c, 9, 51, 95
9, 190680, Note_off_c, 9, 35, 95
9, 190680, Note_off_c, 9, 51, 95
9, 191040, Note_on_c, 9, 51, 111
9, 191040, Note_on_c, 9, 38, 95
9, 191040, Note_on_c, 9, 40, 127
9, 191160, Note_off_c, 9, 51, 111
9, 191160, Note_off_c, 9, 38, 95
9, 191160, Note_off_c, 9, 40, 127
9, 191520, Note_on_c, 9, 51, 79
9, 191640, Note_off_c, 9, 51, 79
9, 191760, Note_on_c, 9, 38, 31
9, 191760, Note_on_c, 9, 40, 47
9, 191880, Note_off_c, 9, 38, 31
9, 191880, Note_off_c, 9, 40, 47
9, 191880, Note_on_c, 9, 38, 15
9, 191880, Note_on_c, 9, 40, 31
9, 192000, Note_off_c, 9, 38, 15
9, 192000, Note_off_c, 9, 40, 31
9, 192000, Note_on_c, 9, 51, 95
9, 192000, Note_on_c, 9, 35, 111
9, 192120, Note_off_c, 9, 51, 95
9, 192120, Note_off_c, 9, 35, 111
9, 192480, Note_on_c, 9, 35, 111
9, 192480, Note_on_c, 9, 51, 95
9, 192600, Note_off_c, 9, 35, 111
9, 192600, Note_off_c, 9, 51, 95
9, 192960, Note_on_c, 9, 40, 127
9, 192960, Note_on_c, 9, 38, 95
9, 192960, Note_on_c, 9, 51, 111
9, 193080, Note_off_c, 9, 40, 127
9, 193080, Note_off_c, 9, 38, 95
9, 193080, Note_off_c, 9, 51, 111
9, 193440, Note_on_c, 9, 51, 79
9, 193560, Note_off_c, 9, 51, 79
9, 193680, Note_on_c, 9, 40, 95
9, 193680, Note_on_c, 9, 38, 63
9, 193800, Note_off_c, 9, 40, 95
9, 193800, Note_off_c, 9, 38, 63
9, 193920, Note_on_c, 9, 51, 111
9, 193920, Note_on_c, 9, 35, 111
9, 194040, Note_off_c, 9, 51, 111
9, 194040, Note_off_c, 9, 35, 111
9, 194160, Note_on_c, 9, 40, 95
9, 194160, Note_on_c, 9, 38, 63
9, 194280, Note_off_c, 9, 40, 95
9, 194280, Note_off_c, 9, 38, 63
9, 194400, Note_on_c, 9, 35, 95
9, 194400, Note_on_c, 9, 51, 95
9, 194520, Note_off_c, 9, 35, 95
9, 194520, Note_off_c, 9, 51, 95
9, 194640, Note_on_c, 9, 35, 95
9, 194760, Note_off_c, 9, 35, 95
9, 194880, Note_on_c, 9, 51, 111
9, 194880, Note_on_c, 9, 38, 95
9, 194880, Note_on_c, 9, 40, 127
9, 195000, Note_off_c, 9, 51, 111
9, 195000, Note_off_c, 9, 38, 95
9, 195000, Note_off_c, 9, 40, 127
9, 195360, Note_on_c, 9, 51, 79
9, 195480, Note_off_c, 9, 51, 79
9, 195600, Note_on_c, 9, 40, 79
9, 195600, Note_on_c, 9, 38, 63
9, 195720, Note_off_c, 9, 40, 79
9, 195720, Note_off_c, 9, 38, 63
9, 195840, Note_on_c, 9, 51, 95
9, 195840, Note_on_c, 9, 35, 111
9, 195960, Note_off_c, 9, 51, 95
9, 195960, Note_off_c, 9, 35, 111
9, 196320, Note_on_c, 9, 35, 111
9, 196320, Note_on_c, 9, 51, 95
9, 196440, Note_off_c, 9, 35, 111
9, 196440, Note_off_c, 9, 51, 95
9, 196800, Note_on_c, 9, 40, 127
9, 196800, Note_on_c, 9, 38, 95
9, 196800, Note_on_c, 9, 51, 111
9, 196920, Note_off_c, 9, 40, 127
9, 196920, Note_off_c, 9, 38, 95
9, 196920, Note_off_c, 9, 51, 111
9, 197280, Note_on_c, 9, 51, 79
9, 197400, Note_off_c, 9, 51, 79
9, 197760, Note_on_c, 9, 51, 111
9, 197760, Note_on_c, 9, 35, 111
9, 197880, Note_off_c, 9, 51, 111
9, 197880, Note_off_c, 9, 35, 111
9, 198240, Note_on_c, 9, 35, 95
9, 198240, Note_on_c, 9, 51, 95
9, 198360, Note_off_c, 9, 35, 95
9, 198360, Note_off_c, 9, 51, 95
9, 198720, Note_on_c, 9, 51, 111
9, 198720, Note_on_c, 9, 40, 127
9, 198720, Note_on_c, 9, 38, 95
9, 198840, Note_off_c, 9, 51, 111
9, 198840, Note_off_c, 9, 40, 127
9, 198840, Note_off_c, 9, 38, 95
9, 199200, Note_on_c, 9, 51, 79
9, 199320, Note_off_c, 9, 51, 79
9, 199440, Note_on_c, 9, 40, 79
9, 199440, Note_on_c, 9, 38, 47
9, 199560, Note_off_c, 9, 40, 79
9, 199560, Note_off_c, 9, 38, 47
9, 199680, Note_on_c, 9, 51, 95
9, 199680, Note_on_c, 9, 35, 111
9, 199800, Note_off_c, 9, 51, 95
9, 199800, Note_off_c, 9, 35, 111
9, 200160, Note_on_c, 9, 35, 111
9, 200160, Note_on_c, 9, 51, 95
9, 200280, Note_off_c, 9, 35, 111
9, 200280, Note_off_c, 9, 51, 95
9, 200640, Note_on_c, 9, 40, 127
9, 200640, Note_on_c, 9, 38, 95
9, 200640, Note_on_c, 9, 51, 111
9, 200760, Note_off_c, 9, 40, 127
9, 200760, Note_off_c, 9, 38, 95
9, 200760, Note_off_c, 9, 51, 111
9, 201120, Note_on_c, 9, 51, 79
9, 201120, Note_on_c, 9, 35, 111
9, 201240, Note_off_c, 9, 51, 79
9, 201240, Note_off_c, 9, 35, 111
9, 201360, Note_on_c, 9, 40, 95
9, 201360, Note_on_c, 9, 38, 63
9, 201480, Note_off_c, 9, 40, 95
9, 201480, Note_off_c, 9, 38, 63
9, 201600, Note_on_c, 9, 51, 111
9, 201600, Note_on_c, 9, 35, 111
9, 201720, Note_off_c, 9, 51, 111
9, 201720, Note_off_c, 9, 35, 111
9, 201840, Note_on_c, 9, 40, 95
9, 201840, Note_on_c, 9, 38, 63
9, 201960, Note_off_c, 9, 40, 95
9, 201960, Note_off_c, 9, 38, 63
9, 202080, Note_on_c, 9, 51, 95
9, 202080, Note_on_c, 9, 35, 95
9, 202200, Note_off_c, 9, 51, 95
9, 202200, Note_off_c, 9, 35, 95
9, 202320, Note_on_c, 9, 35, 95
9, 202440, Note_off_c, 9, 35, 95
9, 202560, Note_on_c, 9, 51, 111
9, 202560, Note_on_c, 9, 40, 127
9, 202560, Note_on_c, 9, 38, 95
9, 202680, Note_off_c, 9, 51, 111
9, 202680, Note_off_c, 9, 40, 127
9, 202680, Note_off_c, 9, 38, 95
9, 203040, Note_on_c, 9, 35, 111
9, 203040, Note_on_c, 9, 51, 79
9, 203160, Note_off_c, 9, 35, 111
9, 203160, Note_off_c, 9, 51, 79
9, 203280, Note_on_c, 9, 40, 111
9, 203280, Note_on_c, 9, 38, 79
9, 203400, Note_off_c, 9, 40, 111
9, 203400, Note_off_c, 9, 38, 79
9, 203520, Note_on_c, 9, 51, 95
9, 203520, Note_on_c, 9, 35, 111
9, 203640, Note_off_c, 9, 51, 95
9, 203640, Note_off_c, 9, 35, 111
9, 204000, Note_on_c, 9, 35, 111
9, 204000, Note_on_c, 9, 51, 95
9, 204120, Note_off_c, 9, 35, 111
9, 204120, Note_off_c, 9, 51, 95
9, 204480, Note_on_c, 9, 35, 111
9, 204480, Note_on_c, 9, 40, 127
9, 204480, Note_on_c, 9, 38, 95
9, 204480, Note_on_c, 9, 51, 111
9, 204600, Note_off_c, 9, 35, 111
9, 204600, Note_off_c, 9, 40, 127
9, 204600, Note_off_c, 9, 38, 95
9, 204600, Note_off_c, 9, 51, 111
9, 204960, Note_on_c, 9, 51, 79
9, 204960, Note_on_c, 9, 35, 111
9, 205080, Note_off_c, 9, 51, 79
9, 205080, Note_off_c, 9, 35, 111
9, 205200, Note_on_c, 9, 38, 63
9, 205200, Note_on_c, 9, 40, 95
9, 205320, Note_off_c, 9, 38, 63
9, 205320, Note_off_c, 9, 40, 95
9, 205440, Note_on_c, 9, 51, 111
9, 205440, Note_on_c, 9, 35, 111
9, 205440, Note_on_c, 9, 47, 111
9, 205560, Note_off_c, 9, 51, 111
9, 205560, Note_off_c, 9, 35, 111
9, 205560, Note_off_c, 9, 47, 111
9, 205680, Note_on_c, 9, 40, 63
9, 205680, Note_on_c, 9, 38, 31
9, 205800, Note_off_c, 9, 40, 63
9, 205800, Note_off_c, 9, 38, 31
9, 205920, Note_on_c, 9, 35, 111
9, 205920, Note_on_c, 9, 51, 95
9, 205920, Note_on_c, 9, 40, 95
9, 205920, Note_on_c, 9, 38, 63
9, 206040, Note_off_c, 9, 35, 111
9, 206040, Note_off_c, 9, 51, 95
9, 206040, Note_off_c, 9, 40, 95
9, 206040, Note_off_c, 9, 38, 63
9, 206160, Note_on_c, 9, 40, 111
9, 206160, Note_on_c, 9, 38, 79
9, 206280, Note_off_c, 9, 40, 111
9, 206280, Note_off_c, 9, 38, 79
9, 206400, Note_on_c, 9, 51, 111
9, 206400, Note_on_c, 9, 38, 95
9, 206400, Note_on_c, 9, 40, 127
9, 206400, Note_on_c, 9, 35, 111
9, 206520, Note_off_c, 9, 51, 111
9, 206520, Note_off_c, 9, 38, 95
9, 206520, Note_off_c, 9, 40, 127
9, 206520, Note_off_c, 9, 35, 111
9, 206640, Note_on_c, 9, 40, 111
9, 206640, Note_on_c, 9, 38, 95
9, 206760, Note_off_c, 9, 40, 111
9, 206760, Note_off_c, 9, 38, 95
9, 206880, Note_on_c, 9, 40, 127
9, 206880, Note_on_c, 9, 35, 111
9, 206880, Note_on_c, 9, 38, 95
9, 206880, Note_on_c, 9, 51, 79
9, 207000, Note_off_c, 9, 40, 127
9, 207000, Note_off_c, 9, 35, 111
9, 207000, Note_off_c, 9, 38, 95
9, 207000, Note_off_c, 9, 51, 79
9, 207120, Note_on_c, 9, 38, 95
9, 207120, Note_on_c, 9, 40, 111
9, 207240, Note_off_c, 9, 38, 95
9, 207240, Note_off_c, 9, 40, 111
9, 207360, Note_on_c, 9, 51, 95
9, 207360, Note_on_c, 9, 35, 111
9, 207480, Note_off_c, 9, 51, 95
9, 207480, Note_off_c, 9, 35, 111
9, 207840, Note_on_c, 9, 51, 95
9, 207960, Note_off_c, 9, 51, 95
9, 208320, Note_on_c, 9, 40, 127
9, 208320, Note_on_c, 9, 38, 95
9, 208320, Note_on_c, 9, 51, 111
9, 208440, Note_off_c, 9, 40, 127
9, 208440, Note_off_c, 9, 38, 95
9, 208440, Note_off_c, 9, 51, 111
9, 208800, Note_on_c, 9, 51, 79
9, 208920, Note_off_c, 9, 51, 79
9, 209040, Note_on_c, 9, 38, 63
9, 209040, Note_on_c, 9, 40, 95
9, 209160, Note_off_c, 9, 38, 63
9, 209160, Note_off_c, 9, 40, 95
9, 209280, Note_on_c, 9, 51, 111
9, 209280, Note_on_c, 9, 35, 111
9, 209400, Note_off_c, 9, 51, 111
9, 209400, Note_off_c, 9, 35, 111
9, 209520, Note_on_c, 9, 38, 63
9, 209520, Note_on_c, 9, 40, 95
9, 209640, Note_off_c, 9, 38, 63
9, 209640, Note_off_c, 9, 40, 95
9, 209760, Note_on_c, 9, 35, 95
9, 209760, Note_on_c, 9, 51, 95
9, 209880, Note_off_c, 9, 35, 95
9, 209880, Note_off_c, 9, 51, 95
9, 210000, Note_on_c, 9, 35, 95
9, 210120, Note_off_c, 9, 35, 95
9, 210240, Note_on_c, 9, 51, 111
9, 210240, Note_on_c, 9, 40, 127
9, 210240, Note_on_c, 9, 38, 95
9, 210360, Note_off_c, 9, 51, 111
9, 210360, Note_off_c, 9, 40, 127
9, 210360, Note_off_c, 9, 38, 95
9, 210720, Note_on_c, 9, 51, 79
9, 210840, Note_off_c, 9, 51, 79
9, 210960, Note_on_c, 9, 38, 79
9, 210960, Note_on_c, 9, 40, 111
9, 211080, Note_off_c, 9, 38, 79
9, 211080, Note_off_c, 9, 40, 111
9, 211200, Note_on_c, 9, 51, 95
9, 211200, Note_on_c, 9, 35, 111
9, 211320, Note_off_c, 9, 51, 95
9, 211320, Note_off_c, 9, 35, 111
9, 211680, Note_on_c, 9, 35, 111
9, 211680, Note_on_c, 9, 51, 95
9, 211800, Note_off_c, 9, 35, 111
9, 211800, Note_off_c, 9, 51, 95
9, 212160, Note_on_c, 9, 40, 127
9, 212160, Note_on_c, 9, 38, 95
9, 212160, Note_on_c, 9, 51, 111
9, 212280, Note_off_c, 9, 40, 127
9, 212280, Note_off_c, 9, 38, 95
9, 212280, Note_off_c, 9, 51, 111
9, 212640, Note_on_c, 9, 51, 79
9, 212760, Note_off_c, 9, 51, 79
9, 212880, Note_on_c, 9, 40, 63
9, 212880, Note_on_c, 9, 38, 47
9, 213000, Note_off_c, 9, 40, 63
9, 213000, Note_off_c, 9, 38, 47
9, 213120, Note_on_c, 9, 51, 111
9, 213120, Note_on_c, 9, 35, 111
9, 213240, Note_off_c, 9, 51, 111
9, 213240, Note_off_c, 9, 35, 111
9, 213360, Note_on_c, 9, 38, 31
9, 213360, Note_on_c, 9, 40, 47
9, 213480, Note_off_c, 9, 38, 31
9, 213480, Note_off_c, 9, 40, 47
9, 213600, Note_on_c, 9, 51, 95
9, 213600, Note_on_c, 9, 40, 111
9, 213600, Note_on_c, 9, 38, 95
9, 213720, Note_off_c, 9, 51, 95
9, 213720, Note_off_c, 9, 40, 111
9, 213720, Note_off_c, 9, 38, 95
9, 213840, Note_on_c, 9, 38, 79
9, 213840, Note_on_c, 9, 40, 111
9, 213960, Note_off_c, 9, 38, 79
9, 213960, Note_off_c, 9, 40, 111
9, 214080, Note_on_c, 9, 51, 111
9, 214200, Note_off_c, 9, 51, 111
9, 214320, Note_on_c, 9, 38, 79
9, 214320, Note_on_c, 9, 40, 111
9, 214440, Note_off_c, 9, 38, 79
9, 214440, Note_off_c, 9, 40, 111
9, 214560, Note_on_c, 9, 38, 95
9, 214560, Note_on_c, 9, 51, 79
9, 214560, Note_on_c, 9, 40, 111
9, 214680, Note_off_c, 9, 38, 95
9, 214680, Note_off_c, 9, 51, 79
9, 214680, Note_off_c, 9, 40, 111
9, 214800, Note_on_c, 9, 40, 111
9, 214800, Note_on_c, 9, 38, 95
9, 214920, Note_off_c, 9, 40, 111
9, 214920, Note_off_c, 9, 38, 95
9, 215040, Note_on_c, 9, 51, 95
9, 215040, Note_on_c, 9, 35, 111
9, 215160, Note_off_c, 9, 51, 95
9, 215160, Note_off_c, 9, 35, 111
9, 215520, Note_on_c, 9, 51, 95
9, 215640, Note_off_c, 9, 51, 95
9, 216000, Note_on_c, 9, 40, 127
9, 216000, Note_on_c, 9, 38, 95
9, 216000, Note_on_c, 9, 51, 111
9, 216120, Note_off_c, 9, 40, 127
9, 216120, Note_off_c, 9, 38, 95
9, 216120, Note_off_c, 9, 51, 111
9, 216480, Note_on_c, 9, 51, 79
9, 216600, Note_off_c, 9, 51, 79
9, 216960, Note_on_c, 9, 51, 111
9, 217080, Note_off_c, 9, 51, 111
9, 217440, Note_on_c, 9, 51, 95
9, 217440, Note_on_c, 9, 35, 111
9, 217560, Note_off_c, 9, 51, 95
9, 217560, Note_off_c, 9, 35, 111
9, 217680, Note_on_c, 9, 35, 95
9, 217800, Note_off_c, 9, 35, 95
9, 217920, Note_on_c, 9, 51, 111
9, 217920, Note_on_c, 9, 38, 95
9, 217920, Note_on_c, 9, 40, 127
9, 218040, Note_off_c, 9, 51, 111
9, 218040, Note_off_c, 9, 38, 95
9, 218040, Note_off_c, 9, 40, 127
9, 218400, Note_on_c, 9, 51, 79
9, 218520, Note_off_c, 9, 51, 79
9, 218640, Note_on_c, 9, 38, 79
9, 218640, Note_on_c, 9, 40, 111
9, 218760, Note_off_c, 9, 38, 79
9, 218760, Note_off_c, 9, 40, 111
9, 218880, Note_on_c, 9, 51, 95
9, 218880, Note_on_c, 9, 35, 111
9, 219000, Note_off_c, 9, 51, 95
9, 219000, Note_off_c, 9, 35, 111
9, 219360, Note_on_c, 9, 35, 111
9, 219360, Note_on_c, 9, 51, 95
9, 219480, Note_off_c, 9, 35, 111
9, 219480, Note_off_c, 9, 51, 95
9, 219840, Note_on_c, 9, 40, 127
9, 219840, Note_on_c, 9, 38, 95
9, 219840, Note_on_c, 9, 51, 111
9, 219960, Note_off_c, 9, 40, 127
9, 219960, Note_off_c, 9, 38, 95
9, 219960, Note_off_c, 9, 51, 111
9, 220320, Note_on_c, 9, 51, 79
9, 220440, Note_off_c, 9, 51, 79
9, 220560, Note_on_c, 9, 40, 111
9, 220560, Note_on_c, 9, 38, 79
9, 220680, Note_off_c, 9, 40, 111
9, 220680, Note_off_c, 9, 38, 79
9, 220800, Note_on_c, 9, 51, 111
9, 220800, Note_on_c, 9, 35, 111
9, 220920, Note_off_c, 9, 51, 111
9, 220920, Note_off_c, 9, 35, 111
9, 221280, Note_on_c, 9, 51, 95
9, 221280, Note_on_c, 9, 35, 111
9, 221400, Note_off_c, 9, 51, 95
9, 221400, Note_off_c, 9, 35, 111
9, 221760, Note_on_c, 9, 51, 111
9, 221880, Note_off_c, 9, 51, 111
9, 222240, Note_on_c, 9, 51, 79
9, 222240, Note_on_c, 9, 35, 111
9, 222360, Note_off_c, 9, 51, 79
9, 222360, Note_off_c, 9, 35, 111
9, 222720, Note_on_c, 9, 51, 95
9, 222720, Note_on_c, 9, 35, 111
9, 222840, Note_off_c, 9, 51, 95
9, 222840, Note_off_c, 9, 35, 111
9, 223200, Note_on_c, 9, 51, 95
9, 223320, Note_off_c, 9, 51, 95
9, 223680, Note_on_c, 9, 38, 95
9, 223680, Note_on_c, 9, 40, 127
9, 223680, Note_on_c, 9, 51, 111
9, 223800, Note_off_c, 9, 38, 95
9, 223800, Note_off_c, 9, 40, 127
9, 223800, Note_off_c, 9, 51, 111
9, 224160, Note_on_c, 9, 51, 79
9, 224280, Note_off_c, 9, 51, 79
9, 224400, Note_on_c, 9, 38, 63
9, 224400, Note_on_c, 9, 40, 95
9, 224520, Note_off_c, 9, 38, 63
9, 224520, Note_off_c, 9, 40, 95
9, 224640, Note_on_c, 9, 51, 111
9, 224640, Note_on_c, 9, 35, 111
9, 224760, Note_off_c, 9, 51, 111
9, 224760, Note_off_c, 9, 35, 111
9, 224880, Note_on_c, 9, 40, 95
9, 224880, Note_on_c, 9, 38, 63
9, 225000, Note_off_c, 9, 40, 95
9, 225000, Note_off_c, 9, 38, 63
9, 225120, Note_on_c, 9, 35, 95
9, 225120, Note_on_c, 9, 51, 95
9, 225240, Note_off_c, 9, 35, 95
9, 225240, Note_off_c, 9, 51, 95
9, 225360, Note_on_c, 9, 35, 95
9, 225480, Note_off_c, 9, 35, 95
9, 225600, Note_on_c, 9, 51, 111
9, 225600, Note_on_c, 9, 38, 95
9, 225600, Note_on_c, 9, 40, 127
9, 225720, Note_off_c, 9, 51, 111
9, 225720, Note_off_c, 9, 38, 95
9, 225720, Note_off_c, 9, 40, 127
9, 226080, Note_on_c, 9, 51, 79
9, 226200, Note_off_c, 9, 51, 79
9, 226320, Note_on_c, 9, 38, 79
9, 226320, Note_on_c, 9, 40, 111
9, 226440, Note_off_c, 9, 38, 79
9, 226440, Note_off_c, 9, 40, 111
9, 226560, Note_on_c, 9, 51, 95
9, 226560, Note_on_c, 9, 35, 111
9, 226680, Note_off_c, 9, 51, 95
9, 226680, Note_off_c, 9, 35, 111
9, 227040, Note_on_c, 9, 35, 111
9, 227040, Note_on_c, 9, 51, 95
9, 227160, Note_off_c, 9, 35, 111
9, 227160, Note_off_c, 9, 51, 95
9, 227520, Note_on_c, 9, 38, 95
9, 227520, Note_on_c, 9, 40, 127
9, 227520, Note_on_c, 9, 51, 111
9, 227640, Note_off_c, 9, 38, 95
9, 227640, Note_off_c, 9, 40, 127
9, 227640, Note_off_c, 9, 51, 111
9, 228000, Note_on_c, 9, 51, 79
9, 228120, Note_off_c, 9, 51, 79
9, 228240, Note_on_c, 9, 38, 63
9, 228240, Note_on_c, 9, 40, 95
9, 228360, Note_off_c, 9, 38, 63
9, 228360, Note_off_c, 9, 40, 95
9, 228480, Note_on_c, 9, 51, 111
9, 228480, Note_on_c, 9, 35, 111
9, 228600, Note_off_c, 9, 51, 111
9, 228600, Note_off_c, 9, 35, 111
9, 228720, Note_on_c, 9, 40, 63
9, 228720, Note_on_c, 9, 38, 31
9, 228840, Note_off_c, 9, 40, 63
9, 228840, Note_off_c, 9, 38, 31
9, 228960, Note_on_c, 9, 51, 95
9, 228960, Note_on_c, 9, 40, 95
9, 228960, Note_on_c, 9, 38, 63
9, 229080, Note_off_c, 9, 51, 95
9, 229080, Note_off_c, 9, 40, 95
9, 229080, Note_off_c, 9, 38, 63
9, 229200, Note_on_c, 9, 38, 79
9, 229200, Note_on_c, 9, 40, 111
9, 229320, Note_off_c, 9, 38, 79
9, 229320, Note_off_c, 9, 40, 111
9, 229440, Note_on_c, 9, 51, 111
9, 229440, Note_on_c, 9, 38, 95
9, 229440, Note_on_c, 9, 40, 127
9, 229560, Note_off_c, 9, 51, 111
9, 229560, Note_off_c, 9, 38, 95
9, 229560, Note_off_c, 9, 40, 127
9, 229680, Note_on_c, 9, 38, 95
9, 229680, Note_on_c, 9, 40, 111
9, 229800, Note_off_c, 9, 38, 95
9, 229800, Note_off_c, 9, 40, 111
9, 229920, Note_on_c, 9, 38, 95
9, 229920, Note_on_c, 9, 40, 127
9, 229920, Note_on_c, 9, 51, 79
9, 230040, Note_off_c, 9, 38, 95
9, 230040, Note_off_c, 9, 40, 127
9, 230040, Note_off_c, 9, 51, 79
9, 230160, Note_on_c, 9, 38, 95
9, 230160, Note_on_c, 9, 40, 111
9, 230280, Note_off_c, 9, 38, 95
9, 230280, Note_off_c, 9, 40, 111
9, 230400, Note_on_c, 9, 49, 79
9, 230400, Note_on_c, 9, 35, 111
9, 230520, Note_off_c, 9, 49, 79
9, 230520, Note_off_c, 9, 35, 111
9, 231120, Note_on_c, 9, 48, 95
9, 231240, Note_off_c, 9, 48, 95
9, 231360, Note_on_c, 9, 42, 79
9, 231360, Note_on_c, 9, 48, 127
9, 231480, Note_off_c, 9, 42, 79
9, 231480, Note_off_c, 9, 48, 127
9, 231840, Note_on_c, 9, 48, 127
9, 231960, Note_off_c, 9, 48, 127
9, 232080, Note_on_c, 9, 48, 95
9, 232200, Note_off_c, 9, 48, 95
9, 232320, Note_on_c, 9, 42, 63
9, 232440, Note_off_c, 9, 42, 63
9, 232560, Note_on_c, 9, 48, 127
9, 232680, Note_off_c, 9, 48, 127
9, 232800, Note_on_c, 9, 45, 111
9, 232920, Note_off_c, 9, 45, 111
9, 233280, Note_on_c, 9, 42, 79
9, 233280, Note_on_c, 9, 45, 111
9, 233280, Note_on_c, 9, 43, 111
9, 233400, Note_off_c, 9, 42, 79
9, 233400, Note_off_c, 9, 45, 111
9, 233400, Note_off_c, 9, 43, 111
9, 233760, Note_on_c, 9, 35, 111
9, 233760, Note_on_c, 9, 49, 79
9, 233880, Note_off_c, 9, 35, 111
9, 233880, Note_off_c, 9, 49, 79
9, 234720, Note_on_c, 9, 48, 111
9, 234840, Note_off_c, 9, 48, 111
9, 235200, Note_on_c, 9, 48, 111
9, 235200, Note_on_c, 9, 42, 79
9, 235320, Note_off_c, 9, 48, 111
9, 235320, Note_off_c, 9, 42, 79
9, 235440, Note_on_c, 9, 48, 95
9, 235560, Note_off_c, 9, 48, 95
9, 235680, Note_on_c, 9, 48, 127
9, 235800, Note_off_c, 9, 48, 127
9, 236160, Note_on_c, 9, 45, 127
9, 236160, Note_on_c, 9, 42, 63
9, 236280, Note_off_c, 9, 45, 127
9, 236280, Note_off_c, 9, 42, 63
9, 236640, Note_on_c, 9, 45, 95
9, 236760, Note_off_c, 9, 45, 95
9, 236880, Note_on_c, 9, 45, 111
9, 237000, Note_off_c, 9, 45, 111
9, 237120, Note_on_c, 9, 42, 79
9, 237240, Note_off_c, 9, 42, 79
9, 237600, Note_on_c, 9, 49, 79
9, 237600, Note_on_c, 9, 35, 111
9, 237720, Note_off_c, 9, 49, 79
9, 237720, Note_off_c, 9, 35, 111
9, 238080, Note_on_c, 9, 42, 79
9, 238200, Note_off_c, 9, 42, 79
9, 238560, Note_on_c, 9, 48, 127
9, 238680, Note_off_c, 9, 48, 127
9, 238800, Note_on_c, 9, 48, 95
9, 238920, Note_off_c, 9, 48, 95
9, 239040, Note_on_c, 9, 42, 79
9, 239160, Note_off_c, 9, 42, 79
9, 239280, Note_on_c, 9, 48, 127
9, 239400, Note_off_c, 9, 48, 127
9, 239520, Note_on_c, 9, 45, 79
9, 239640, Note_off_c, 9, 45, 79
9, 239760, Note_on_c, 9, 45, 111
9, 239880, Note_off_c, 9, 45, 111
9, 240000, Note_on_c, 9, 45, 127
9, 240000, Note_on_c, 9, 42, 63
9, 240120, Note_off_c, 9, 45, 127
9, 240120, Note_off_c, 9, 42, 63
9, 240240, Note_on_c, 9, 43, 31
9, 240360, Note_off_c, 9, 43, 31
9, 240480, Note_on_c, 9, 43, 63
9, 240600, Note_off_c, 9, 43, 63
9, 240720, Note_on_c, 9, 43, 79
9, 240840, Note_off_c, 9, 43, 79
9, 240960, Note_on_c, 9, 43, 127
9, 240960, Note_on_c, 9, 42, 79
9, 241080, Note_off_c, 9, 43, 127
9, 241080, Note_off_c, 9, 42, 79
9, 241440, Note_on_c, 9, 35, 111
9, 241440, Note_on_c, 9, 49, 79
9, 241560, Note_off_c, 9, 35, 111
9, 241560, Note_off_c, 9, 49, 79
9, 241920, Note_on_c, 9, 42, 79
9, 242040, Note_off_c, 9, 42, 79
9, 242400, Note_on_c, 9, 48, 63
9, 242520, Note_off_c, 9, 48, 63
9, 242640, Note_on_c, 9, 48, 95
9, 242760, Note_off_c, 9, 48, 95
9, 242880, Note_on_c, 9, 48, 111
9, 242880, Note_on_c, 9, 42, 95
9, 243000, Note_off_c, 9, 48, 111
9, 243000, Note_off_c, 9, 42, 95
9, 243120, Note_on_c, 9, 48, 95
9, 243240, Note_off_c, 9, 48, 95
9, 243360, Note_on_c, 9, 48, 79
9, 243480, Note_off_c, 9, 48, 79
9, 243600, Note_on_c, 9, 48, 79
9, 243720, Note_off_c, 9, 48, 79
9, 243840, Note_on_c, 9, 47, 111
9, 243840, Note_on_c, 9, 42, 79
9, 243960, Note_off_c, 9, 47, 111
9, 243960, Note_off_c, 9, 42, 79
9, 244080, Note_on_c, 9, 47, 63
9, 244200, Note_off_c, 9, 47, 63
9, 244320, Note_on_c, 9, 47, 79
9, 244440, Note_off_c, 9, 47, 79
9, 244560, Note_on_c, 9, 47, 111
9, 244680, Note_off_c, 9, 47, 111
9, 244800, Note_on_c, 9, 45, 95
9, 244800, Note_on_c, 9, 42, 95
9, 244920, Note_off_c, 9, 45, 95
9, 244920, Note_off_c, 9, 42, 95
9, 245040, Note_on_c, 9, 45, 63
9, 245160, Note_off_c, 9, 45, 63
9, 245280, Note_on_c, 9, 45, 95
9, 245400, Note_off_c, 9, 45, 95
9, 245520, Note_on_c, 9, 45, 127
9, 245640, Note_off_c, 9, 45, 127
9, 245760, Note_on_c, 9, 49, 95
9, 245760, Note_on_c, 9, 35, 111
9, 245880, Note_off_c, 9, 49, 95
9, 245880, Note_off_c, 9, 35, 111
9, 246240, Note_on_c, 9, 51, 95
9, 246360, Note_off_c, 9, 51, 95
9, 246480, Note_on_c, 9, 35, 95
9, 246600, Note_off_c, 9, 35, 95
9, 246720, Note_on_c, 9, 51, 95
9, 246720, Note_on_c, 9, 38, 79
9, 246720, Note_on_c, 9, 40, 111
9, 246840, Note_off_c, 9, 51, 95
9, 246840, Note_off_c, 9, 38, 79
9, 246840, Note_off_c, 9, 40, 111
9, 247200, Note_on_c, 9, 51, 111
9, 247320, Note_off_c, 9, 51, 111
9, 247440, Note_on_c, 9, 35, 95
9, 247560, Note_off_c, 9, 35, 95
9, 247680, Note_on_c, 9, 35, 95
9, 247680, Note_on_c, 9, 51, 79
9, 247800, Note_off_c, 9, 35, 95
9, 247800, Note_off_c, 9, 51, 79
9, 247920, Note_on_c, 9, 51, 63
9, 248040, Note_off_c, 9, 51, 63
9, 248160, Note_on_c, 9, 51, 95
9, 248280, Note_off_c, 9, 51, 95
9, 248400, Note_on_c, 9, 35, 95
9, 248520, Note_off_c, 9, 35, 95
9, 248640, Note_on_c, 9, 38, 79
9, 248640, Note_on_c, 9, 40, 111
9, 248640, Note_on_c, 9, 51, 79
9, 248760, Note_off_c, 9, 38, 79
9, 248760, Note_off_c, 9, 40, 111
9, 248760, Note_off_c, 9, 51, 79
9, 249120, Note_on_c, 9, 51, 95
9, 249240, Note_off_c, 9, 51, 95
9, 249360, Note_on_c, 9, 35, 95
9, 249480, Note_off_c, 9, 35, 95
9, 249600, Note_on_c, 9, 51, 95
9, 249600, Note_on_c, 9, 35, 111
9, 249720, Note_off_c, 9, 51, 95
9, 249720, Note_off_c, 9, 35, 111
9, 249840, Note_on_c, 9, 51, 63
9, 249960, Note_off_c, 9, 51, 63
9, 250080, Note_on_c, 9, 51, 95
9, 250200, Note_off_c, 9, 51, 95
9, 250320, Note_on_c, 9, 35, 95
9, 250440, Note_off_c, 9, 35, 95
9, 250560, Note_on_c, 9, 38, 79
9, 250560, Note_on_c, 9, 40, 111
9, 250560, Note_on_c, 9, 51, 95
9, 250680, Note_off_c, 9, 38, 79
9, 250680, Note_off_c, 9, 40, 111
9, 250680, Note_off_c, 9, 51, 95
9, 251040, Note_on_c, 9, 51, 111
9, 251160, Note_off_c, 9, 51, 111
9, 251280, Note_on_c, 9, 35, 95
9, 251400, Note_off_c, 9, 35, 95
9, 251520, Note_on_c, 9, 35, 95
9, 251520, Note_on_c, 9, 51, 79
9, 251640, Note_off_c, 9, 35, 95
9, 251640, Note_off_c, 9, 51, 79
9, 251760, Note_on_c, 9, 51, 63
9, 251880, Note_off_c, 9, 51, 63
9, 252000, Note_on_c, 9, 51, 95
9, 252120, Note_off_c, 9, 51, 95
9, 252240, Note_on_c, 9, 35, 95
9, 252360, Note_off_c, 9, 35, 95
9, 252480, Note_on_c, 9, 38, 79
9, 252480, Note_on_c, 9, 40, 111
9, 252480, Note_on_c, 9, 51, 79
9, 252600, Note_off_c, 9, 38, 79
9, 252600, Note_off_c, 9, 40, 111
9, 252600, Note_off_c, 9, 51, 79
9, 252720, Note_on_c, 9, 51, 63
9, 252840, Note_off_c, 9, 51, 63
9, 252960, Note_on_c, 9, 51, 95
9, 253080, Note_off_c, 9, 51, 95
9, 253200, Note_on_c, 9, 35, 95
9, 253320, Note_off_c, 9, 35, 95
9, 253440, Note_on_c, 9, 35, 111
9, 253440, Note_on_c, 9, 51, 95
9, 253560, Note_off_c, 9, 35, 111
9, 253560, Note_off_c, 9, 51, 95
9, 253920, Note_on_c, 9, 51, 79
9, 254040, Note_off_c, 9, 51, 79
9, 254160, Note_on_c, 9, 35, 95
9, 254280, Note_off_c, 9, 35, 95
9, 254400, Note_on_c, 9, 38, 79
9, 254400, Note_on_c, 9, 40, 111
9, 254400, Note_on_c, 9, 51, 95
9, 254520, Note_off_c, 9, 38, 79
9, 254520, Note_off_c, 9, 40, 111
9, 254520, Note_off_c, 9, 51, 95
9, 254880, Note_on_c, 9, 51, 63
9, 255000, Note_off_c, 9, 51, 63
9, 255120, Note_on_c, 9, 35, 95
9, 255240, Note_off_c, 9, 35, 95
9, 255360, Note_on_c, 9, 51, 95
9, 255360, Note_on_c, 9, 35, 111
9, 255480, Note_off_c, 9, 51, 95
9, 255480, Note_off_c, 9, 35, 111
9, 255840, Note_on_c, 9, 51, 79
9, 255960, Note_off_c, 9, 51, 79
9, 256080, Note_on_c, 9, 35, 95
9, 256200, Note_off_c, 9, 35, 95
9, 256320, Note_on_c, 9, 51, 95
9, 256320, Note_on_c, 9, 40, 111
9, 256320, Note_on_c, 9, 38, 79
9, 256440, Note_off_c, 9, 51, 95
9, 256440, Note_off_c, 9, 40, 111
9, 256440, Note_off_c, 9, 38, 79
9, 256800, Note_on_c, 9, 51, 79
9, 256920, Note_off_c, 9, 51, 79
9, 257040, Note_on_c, 9, 35, 95
9, 257160, Note_off_c, 9, 35, 95
9, 257280, Note_on_c, 9, 51, 95
9, 257280, Note_on_c, 9, 35, 111
9, 257400, Note_off_c, 9, 51, 95
9, 257400, Note_off_c, 9, 35, 111
9, 257760, Note_on_c, 9, 51, 79
9, 257760, Note_on_c, 9, 35, 95
9, 257880, Note_off_c, 9, 51, 79
9, 257880, Note_off_c, 9, 35, 95
9, 258240, Note_on_c, 9, 51, 95
9, 258240, Note_on_c, 9, 40, 111
9, 258240, Note_on_c, 9, 38, 79
9, 258360, Note_off_c, 9, 51, 95
9, 258360, Note_off_c, 9, 40, 111
9, 258360, Note_off_c, 9, 38, 79
9, 258720, Note_on_c, 9, 51, 79
9, 258840, Note_off_c, 9, 51, 79
9, 258960, Note_on_c, 9, 51, 63
9, 258960, Note_on_c, 9, 35, 95
9, 259080, Note_off_c, 9, 51, 63
9, 259080, Note_off_c, 9, 35, 95
9, 259200, Note_on_c, 9, 51, 79
9, 259200, Note_on_c, 9, 35, 111
9, 259320, Note_off_c, 9, 51, 79
9, 259320, Note_off_c, 9, 35, 111
9, 259680, Note_on_c, 9, 51, 63
9, 259680, Note_on_c, 9, 35, 95
9, 259800, Note_off_c, 9, 51, 63
9, 259800, Note_off_c, 9, 35, 95
9, 259920, Note_on_c, 9, 51, 63
9, 259920, Note_on_c, 9, 35, 95
9, 260040, Note_off_c, 9, 51, 63
9, 260040, Note_off_c, 9, 35, 95
9, 260160, Note_on_c, 9, 51, 95
9, 260160, Note_on_c, 9, 38, 79
9, 260160, Note_on_c, 9, 40, 111
9, 260280, Note_off_c, 9, 51, 95
9, 260280, Note_off_c, 9, 38, 79
9, 260280, Note_off_c, 9, 40, 111
9, 260640, Note_on_c, 9, 51, 63
9, 260760, Note_off_c, 9, 51, 63
9, 260880, Note_on_c, 9, 35, 95
9, 260880, Note_on_c, 9, 51, 47
9, 261000, Note_off_c, 9, 35, 95
9, 261000, Note_off_c, 9, 51, 47
9, 261120, Note_on_c, 9, 51, 95
9, 261120, Note_on_c, 9, 35, 111
9, 261240, Note_off_c, 9, 51, 95
9, 261240, Note_off_c, 9, 35, 111
9, 261600, Note_on_c, 9, 51, 63
9, 261720, Note_off_c, 9, 51, 63
9, 262080, Note_on_c, 9, 51, 79
9, 262080, Note_on_c, 9, 38, 79
9, 262080, Note_on_c, 9, 40, 111
9, 262200, Note_off_c, 9, 51, 79
9, 262200, Note_off_c, 9, 38, 79
9, 262200, Note_off_c, 9, 40, 111
9, 262320, Note_on_c, 9, 51, 47
9, 262440, Note_off_c, 9, 51, 47
9, 262560, Note_on_c, 9, 51, 79
9, 262680, Note_off_c, 9, 51, 79
9, 262800, Note_on_c, 9, 35, 95
9, 262920, Note_off_c, 9, 35, 95
9, 263040, Note_on_c, 9, 51, 79
9, 263040, Note_on_c, 9, 35, 95
9, 263160, Note_off_c, 9, 51, 79
9, 263160, Note_off_c, 9, 35, 95
9, 263520, Note_on_c, 9, 35, 95
9, 263520, Note_on_c, 9, 51, 79
9, 263640, Note_off_c, 9, 35, 95
9, 263640, Note_off_c, 9, 51, 79
9, 264000, Note_on_c, 9, 51, 95
9, 264000, Note_on_c, 9, 38, 79
9, 264000, Note_on_c, 9, 40, 111
9, 264120, Note_off_c, 9, 51, 95
9, 264120, Note_off_c, 9, 38, 79
9, 264120, Note_off_c, 9, 40, 111
9, 264240, Note_on_c, 9, 35, 95
9, 264240, Note_on_c, 9, 51, 47
9, 264360, Note_off_c, 9, 35, 95
9, 264360, Note_off_c, 9, 51, 47
9, 264480, Note_on_c, 9, 51, 79
9, 264600, Note_off_c, 9, 51, 79
9, 264720, Note_on_c, 9, 35, 95
9, 264840, Note_off_c, 9, 35, 95
9, 264960, Note_on_c, 9, 51, 95
9, 264960, Note_on_c, 9, 35, 111
9, 265080, Note_off_c, 9, 51, 95
9, 265080, Note_off_c, 9, 35, 111
9, 265440, Note_on_c, 9, 51, 79
9, 265440, Note_on_c, 9, 35, 95
9, 265560, Note_off_c, 9, 51, 79
9, 265560, Note_off_c, 9, 35, 95
9, 265680, Note_on_c, 9, 35, 95
9, 265800, Note_off_c, 9, 35, 95
9, 265920, Note_on_c, 9, 38, 79
9, 265920, Note_on_c, 9, 40, 111
9, 265920, Note_on_c, 9, 51, 79
9, 266040, Note_off_c, 9, 38, 79
9, 266040, Note_off_c, 9, 40, 111
9, 266040, Note_off_c, 9, 51, 79
9, 266400, Note_on_c, 9, 51, 79
9, 266520, Note_off_c, 9, 51, 79
9, 266640, Note_on_c, 9, 35, 95
9, 266760, Note_off_c, 9, 35, 95
9, 266880, Note_on_c, 9, 51, 95
9, 266880, Note_on_c, 9, 35, 111
9, 267000, Note_off_c, 9, 51, 95
9, 267000, Note_off_c, 9, 35, 111
9, 267360, Note_on_c, 9, 51, 63
9, 267360, Note_on_c, 9, 35, 95
9, 267480, Note_off_c, 9, 51, 63
9, 267480, Note_off_c, 9, 35, 95
9, 267600, Note_on_c, 9, 35, 95
9, 267600, Note_on_c, 9, 51, 47
9, 267720, Note_off_c, 9, 35, 95
9, 267720, Note_off_c, 9, 51, 47
9, 267840, Note_on_c, 9, 51, 95
9, 267840, Note_on_c, 9, 38, 79
9, 267840, Note_on_c, 9, 40, 111
9, 267960, Note_off_c, 9, 51, 95
9, 267960, Note_off_c, 9, 38, 79
9, 267960, Note_off_c, 9, 40, 111
9, 268080, Note_on_c, 9, 35, 95
9, 268200, Note_off_c, 9, 35, 95
9, 268320, Note_on_c, 9, 51, 63
9, 268440, Note_off_c, 9, 51, 63
9, 268560, Note_on_c, 9, 35, 95
9, 268680, Note_off_c, 9, 35, 95
9, 268800, Note_on_c, 9, 51, 95
9, 268800, Note_on_c, 9, 35, 111
9, 268920, Note_off_c, 9, 51, 95
9, 268920, Note_off_c, 9, 35, 111
9, 269280, Note_on_c, 9, 51, 63
9, 269400, Note_off_c, 9, 51, 63
9, 269520, Note_on_c, 9, 51, 47
9, 269520, Note_on_c, 9, 35, 95
9, 269640, Note_off_c, 9, 51, 47
9, 269640, Note_off_c, 9, 35, 95
9, 269760, Note_on_c, 9, 38, 79
9, 269760, Note_on_c, 9, 40, 111
9, 269760, Note_on_c, 9, 51, 95
9, 269880, Note_off_c, 9, 38, 79
9, 269880, Note_off_c, 9, 40, 111
9, 269880, Note_off_c, 9, 51, 95
9, 270000, Note_on_c, 9, 51, 47
9, 270120, Note_off_c, 9, 51, 47
9, 270240, Note_on_c, 9, 51, 79
9, 270360, Note_off_c, 9, 51, 79
9, 270480, Note_on_c, 9, 51, 47
9, 270480, Note_on_c, 9, 35, 95
9, 270600, Note_off_c, 9, 51, 47
9, 270600, Note_off_c, 9, 35, 95
9, 270720, Note_on_c, 9, 51, 79
9, 270720, Note_on_c, 9, 35, 111
9, 270840, Note_off_c, 9, 51, 79
9, 270840, Note_off_c, 9, 35, 111
9, 270960, Note_on_c, 9, 51, 47
9, 270960, Note_on_c, 9, 35, 95
9, 271080, Note_off_c, 9, 51, 47
9, 271080, Note_off_c, 9, 35, 95
9, 271200, Note_on_c, 9, 51, 63
9, 271320, Note_off_c, 9, 51, 63
9, 271440, Note_on_c, 9, 35, 95
9, 271440, Note_on_c, 9, 51, 47
9, 271560, Note_off_c, 9, 35, 95
9, 271560, Note_off_c, 9, 51, 47
9, 271680, Note_on_c, 9, 51, 95
9, 271680, Note_on_c, 9, 38, 79
9, 271680, Note_on_c, 9, 40, 111
9, 271800, Note_off_c, 9, 51, 95
9, 271800, Note_off_c, 9, 38, 79
9, 271800, Note_off_c, 9, 40, 111
9, 272160, Note_on_c, 9, 51, 79
9, 272280, Note_off_c, 9, 51, 79
9, 272400, Note_on_c, 9, 35, 95
9, 272400, Note_on_c, 9, 51, 47
9, 272520, Note_off_c, 9, 35, 95
9, 272520, Note_off_c, 9, 51, 47
9, 272640, Note_on_c, 9, 51, 95
9, 272640, Note_on_c, 9, 35, 95
9, 272760, Note_off_c, 9, 51, 95
9, 272760, Note_off_c, 9, 35, 95
9, 273120, Note_on_c, 9, 51, 63
9, 273240, Note_off_c, 9, 51, 63
9, 273360, Note_on_c, 9, 35, 95
9, 273360, Note_on_c, 9, 51, 47
9, 273480, Note_off_c, 9, 35, 95
9, 273480, Note_off_c, 9, 51, 47
9, 273600, Note_on_c, 9, 38, 79
9, 273600, Note_on_c, 9, 40, 111
9, 273600, Note_on_c, 9, 51, 95
9, 273720, Note_off_c, 9, 38, 79
9, 273720, Note_off_c, 9, 40, 111
9, 273720, Note_off_c, 9, 51, 95
9, 273840, Note_on_c, 9, 51, 47
9, 273960, Note_off_c, 9, 51, 47
9, 274080, Note_on_c, 9, 51, 63
9, 274200, Note_off_c, 9, 51, 63
9, 274320, Note_on_c, 9, 51, 47
9, 274320, Note_on_c, 9, 35, 95
9, 274440, Note_off_c, 9, 51, 47
9, 274440, Note_off_c, 9, 35, 95
9, 274560, Note_on_c, 9, 51, 95
9, 274560, Note_on_c, 9, 35, 111
9, 274680, Note_off_c, 9, 51, 95
9, 274680, Note_off_c, 9, 35, 111
9, 275040, Note_on_c, 9, 51, 79
9, 275160, Note_off_c, 9, 51, 79
9, 275280, Note_on_c, 9, 51, 47
9, 275280, Note_on_c, 9, 35, 95
9, 275400, Note_off_c, 9, 51, 47
9, 275400, Note_off_c, 9, 35, 95
9, 275520, Note_on_c, 9, 40, 111
9, 275520, Note_on_c, 9, 38, 79
9, 275520, Note_on_c, 9, 51, 95
9, 275640, Note_off_c, 9, 40, 111
9, 275640, Note_off_c, 9, 38, 79
9, 275640, Note_off_c, 9, 51, 95
9, 275760, Note_on_c, 9, 51, 47
9, 275880, Note_off_c, 9, 51, 47
9, 276000, Note_on_c, 9, 51, 63
9, 276120, Note_off_c, 9, 51, 63
9, 276240, Note_on_c, 9, 35, 95
9, 276360, Note_off_c, 9, 35, 95
9, 276480, Note_on_c, 9, 35, 111
9, 276480, Note_on_c, 9, 51, 95
9, 276600, Note_off_c, 9, 35, 111
9, 276600, Note_off_c, 9, 51, 95
9, 276960, Note_on_c, 9, 51, 63
9, 277080, Note_off_c, 9, 51, 63
9, 277200, Note_on_c, 9, 35, 95
9, 277200, Note_on_c, 9, 51, 47
9, 277320, Note_off_c, 9, 35, 95
9, 277320, Note_off_c, 9, 51, 47
9, 277440, Note_on_c, 9, 51, 95
9, 277440, Note_on_c, 9, 38, 79
9, 277440, Note_on_c, 9, 40, 111
9, 277560, Note_off_c, 9, 51, 95
9, 277560, Note_off_c, 9, 38, 79
9, 277560, Note_off_c, 9, 40, 111
9, 277920, Note_on_c, 9, 51, 79
9, 278040, Note_off_c, 9, 51, 79
9, 278160, Note_on_c, 9, 35, 95
9, 278280, Note_off_c, 9, 35, 95
9, 278400, Note_on_c, 9, 51, 79
9, 278400, Note_on_c, 9, 35, 111
9, 278520, Note_off_c, 9, 51, 79
9, 278520, Note_off_c, 9, 35, 111
9, 278640, Note_on_c, 9, 51, 63
9, 278760, Note_off_c, 9, 51, 63
9, 278880, Note_on_c, 9, 35, 111
9, 278880, Note_on_c, 9, 51, 63
9, 279000, Note_off_c, 9, 35, 111
9, 279000, Note_off_c, 9, 51, 63
9, 279120, Note_on_c, 9, 35, 95
9, 279240, Note_off_c, 9, 35, 95
9, 279360, Note_on_c, 9, 51, 95
9, 279360, Note_on_c, 9, 38, 79
9, 279360, Note_on_c, 9, 40, 111
9, 279480, Note_off_c, 9, 51, 95
9, 279480, Note_off_c, 9, 38, 79
9, 279480, Note_off_c, 9, 40, 111
9, 279600, Note_on_c, 9, 35, 95
9, 279720, Note_off_c, 9, 35, 95
9, 279840, Note_on_c, 9, 51, 63
9, 279960, Note_off_c, 9, 51, 63
9, 280080, Note_on_c, 9, 35, 95
9, 280200, Note_off_c, 9, 35, 95
9, 280320, Note_on_c, 9, 35, 111
9, 280320, Note_on_c, 9, 51, 79
9, 280440, Note_off_c, 9, 35, 111
9, 280440, Note_off_c, 9, 51, 79
9, 280800, Note_on_c, 9, 51, 63
9, 280920, Note_off_c, 9, 51, 63
9, 281040, Note_on_c, 9, 35, 95
9, 281160, Note_off_c, 9, 35, 95
9, 281280, Note_on_c, 9, 51, 95
9, 281280, Note_on_c, 9, 38, 79
9, 281280, Note_on_c, 9, 40, 111
9, 281400, Note_off_c, 9, 51, 95
9, 281400, Note_off_c, 9, 38, 79
9, 281400, Note_off_c, 9, 40, 111
9, 281520, Note_on_c, 9, 45, 79
9, 281520, Note_on_c, 9, 35, 95
9, 281640, Note_off_c, 9, 45, 79
9, 281640, Note_off_c, 9, 35, 95
9, 281760, Note_on_c, 9, 51, 63
9, 281760, Note_on_c, 9, 45, 95
9, 281880, Note_off_c, 9, 51, 63
9, 281880, Note_off_c, 9, 45, 95
9, 282000, Note_on_c, 9, 48, 95
9, 282120, Note_off_c, 9, 48, 95
9, 282240, Note_on_c, 9, 38, 47
9, 282240, Note_on_c, 9, 40, 63
9, 282240, Note_on_c, 9, 51, 95
9, 282240, Note_on_c, 9, 38, 95
9, 282240, Note_on_c, 9, 40, 111
9, 282240, Note_on_c, 9, 48, 95
9, 282360, Note_off_c, 9, 38, 47
9, 282360, Note_off_c, 9, 40, 63
9, 282360, Note_off_c, 9, 51, 95
9, 282360, Note_off_c, 9, 38, 95
9, 282360, Note_off_c, 9, 40, 111
9, 282360, Note_off_c, 9, 48, 95
9, 282720, Note_on_c, 9, 51, 79
9, 282720, Note_on_c, 9, 47, 95
9, 282720, Note_on_c, 9, 45, 95
9, 282720, Note_on_c, 9, 35, 111
9, 282840, Note_off_c, 9, 51, 79
9, 282840, Note_off_c, 9, 47, 95
9, 282840, Note_off_c, 9, 45, 95
9, 282840, Note_off_c, 9, 35, 111
9, 283200, Note_on_c, 9, 45, 95
9, 283200, Note_on_c, 9, 51, 95
9, 283200, Note_on_c, 9, 43, 95
9, 283200, Note_on_c, 9, 35, 111
9, 283320, Note_off_c, 9, 45, 95
9, 283320, Note_off_c, 9, 51, 95
9, 283320, Note_off_c, 9, 43, 95
9, 283320, Note_off_c, 9, 35, 111
9, 283680, Note_on_c, 9, 41, 95
9, 283680, Note_on_c, 9, 49, 95
9, 283680, Note_on_c, 9, 35, 111
9, 283800, Note_off_c, 9, 41, 95
9, 283800, Note_off_c, 9, 49, 95
9, 283800, Note_off_c, 9, 35, 111
9, 284160, Note_on_c, 9, 51, 95
9, 284160, Note_on_c, 9, 35, 111
9, 284280, Note_off_c, 9, 51, 95
9, 284280, Note_off_c, 9, 35, 111
9, 284640, Note_on_c, 9, 51, 63
9, 284640, Note_on_c, 9, 35, 111
9, 284760, Note_off_c, 9, 51, 63
9, 284760, Note_off_c, 9, 35, 111
9, 285120, Note_on_c, 9, 51, 79
9, 285120, Note_on_c, 9, 38, 95
9, 285120, Note_on_c, 9, 40, 111
9, 285240, Note_off_c, 9, 51, 79
9, 285240, Note_off_c, 9, 38, 95
9, 285240, Note_off_c, 9, 40, 111
9, 285600, Note_on_c, 9, 51, 79
9, 285720, Note_off_c, 9, 51, 79
9, 285840, Note_on_c, 9, 35, 95
9, 285960, Note_off_c, 9, 35, 95
9, 286080, Note_on_c, 9, 51, 79
9, 286080, Note_on_c, 9, 35, 111
9, 286200, Note_off_c, 9, 51, 79
9, 286200, Note_off_c, 9, 35, 111
9, 286560, Note_on_c, 9, 35, 111
9, 286560, Note_on_c, 9, 51, 63
9, 286680, Note_off_c, 9, 35, 111
9, 286680, Note_off_c, 9, 51, 63
9, 286800, Note_on_c, 9, 35, 95
9, 286920, Note_off_c, 9, 35, 95
9, 287040, Note_on_c, 9, 38, 95
9, 287040, Note_on_c, 9, 40, 111
9, 287040, Note_on_c, 9, 51, 95
9, 287160, Note_off_c, 9, 38, 95
9, 287160, Note_off_c, 9, 40, 111
9, 287160, Note_off_c, 9, 51, 95
9, 287280, Note_on_c, 9, 45, 79
9, 287400, Note_off_c, 9, 45, 79
9, 287520, Note_on_c, 9, 48, 111
9, 287640, Note_off_c, 9, 48, 111
9, 287760, Note_on_c, 9, 43, 95
9, 287760, Note_on_c, 9, 35, 95
9, 287880, Note_off_c, 9, 43, 95
9, 287880, Note_off_c, 9, 35, 95
9, 288000, Note_on_c, 9, 35, 111
9, 288000, Note_on_c, 9, 49, 79
9, 288120, Note_off_c, 9, 35, 111
9, 288120, Note_off_c, 9, 49, 79
9, 288480, Note_on_c, 9, 51, 63
9, 288600, Note_off_c, 9, 51, 63
9, 288720, Note_on_c, 9, 35, 95
9, 288840, Note_off_c, 9, 35, 95
9, 288960, Note_on_c, 9, 40, 111
9, 288960, Note_on_c, 9, 38, 95
9, 288960, Note_on_c, 9, 51, 95
9, 289080, Note_off_c, 9, 40, 111
9, 289080, Note_off_c, 9, 38, 95
9, 289080, Note_off_c, 9, 51, 95
9, 289440, Note_on_c, 9, 51, 63
9, 289560, Note_off_c, 9, 51, 63
9, 289680, Note_on_c, 9, 35, 95
9, 289800, Note_off_c, 9, 35, 95
9, 289920, Note_on_c, 9, 38, 47
9, 289920, Note_on_c, 9, 40, 63
9, 289920, Note_on_c, 9, 51, 95
9, 289920, Note_on_c, 9, 38, 95
9, 289920, Note_on_c, 9, 40, 111
9, 290040, Note_off_c, 9, 38, 47
9, 290040, Note_off_c, 9, 40, 63
9, 290040, Note_off_c, 9, 51, 95
9, 290040, Note_off_c, 9, 38, 95
9, 290040, Note_off_c, 9, 40, 111
9, 290400, Note_on_c, 9, 43, 95
9, 290400, Note_on_c, 9, 35, 111
9, 290400, Note_on_c, 9, 47, 95
9, 290520, Note_off_c, 9, 43, 95
9, 290520, Note_off_c, 9, 35, 111
9, 290520, Note_off_c, 9, 47, 95
9, 290880, Note_on_c, 9, 43, 95
9, 290880, Note_on_c, 9, 47, 95
9, 290880, Note_on_c, 9, 35, 111
9, 291000, Note_off_c, 9, 43, 95
9, 291000, Note_off_c, 9, 47, 95
9, 291000, Note_off_c, 9, 35, 111
9, 291360, Note_on_c, 9, 41, 95
9, 291360, Note_on_c, 9, 49, 95
9, 291360, Note_on_c, 9, 35, 111
9, 291480, Note_off_c, 9, 41, 95
9, 291480, Note_off_c, 9, 49, 95
9, 291480, Note_off_c, 9, 35, 111
9, 291840, Note_on_c, 9, 35, 111
9, 291840, Note_on_c, 9, 51, 79
9, 291960, Note_off_c, 9, 35, 111
9, 291960, Note_off_c, 9, 51, 79
9, 292320, Note_on_c, 9, 51, 63
9, 292320, Note_on_c, 9, 35, 111
9, 292440, Note_off_c, 9, 51, 63
9, 292440, Note_off_c, 9, 35, 111
9, 292800, Note_on_c, 9, 51, 79
9, 292800, Note_on_c, 9, 38, 95
9, 292800, Note_on_c, 9, 40, 111
9, 292920, Note_off_c, 9, 51, 79
9, 292920, Note_off_c, 9, 38, 95
9, 292920, Note_off_c, 9, 40, 111
9, 293280, Note_on_c, 9, 51, 79
9, 293400, Note_off_c, 9, 51, 79
9, 293520, Note_on_c, 9, 35, 95
9, 293520, Note_on_c, 9, 51, 47
9, 293640, Note_off_c, 9, 35, 95
9, 293640, Note_off_c, 9, 51, 47
9, 293760, Note_on_c, 9, 51, 79
9, 293760, Note_on_c, 9, 35, 111
9, 293880, Note_off_c, 9, 51, 79
9, 293880, Note_off_c, 9, 35, 111
9, 294000, Note_on_c, 9, 51, 47
9, 294120, Note_off_c, 9, 51, 47
9, 294240, Note_on_c, 9, 35, 111
9, 294240, Note_on_c, 9, 51, 63
9, 294360, Note_off_c, 9, 35, 111
9, 294360, Note_off_c, 9, 51, 63
9, 294720, Note_on_c, 9, 40, 111
9, 294720, Note_on_c, 9, 38, 95
9, 294720, Note_on_c, 9, 51, 95
9, 294840, Note_off_c, 9, 40, 111
9, 294840, Note_off_c, 9, 38, 95
9, 294840, Note_off_c, 9, 51, 95
9, 294960, Note_on_c, 9, 51, 47
9, 295080, Note_off_c, 9, 51, 47
9, 295080, Note_on_c, 9, 48, 95
9, 295200, Note_off_c, 9, 48, 95
9, 295200, Note_on_c, 9, 48, 127
9, 295320, Note_off_c, 9, 48, 127
9, 295440, Note_on_c, 9, 47, 127
9, 295560, Note_off_c, 9, 47, 127
9, 295680, Note_on_c, 9, 49, 79
9, 295680, Note_on_c, 9, 35, 111
9, 295800, Note_off_c, 9, 49, 79
9, 295800, Note_off_c, 9, 35, 111
9, 296160, Note_on_c, 9, 51, 63
9, 296280, Note_off_c, 9, 51, 63
9, 296400, Note_on_c, 9, 35, 95
9, 296520, Note_off_c, 9, 35, 95
9, 296640, Note_on_c, 9, 40, 111
9, 296640, Note_on_c, 9, 51, 95
9, 296640, Note_on_c, 9, 38, 95
9, 296760, Note_off_c, 9, 40, 111
9, 296760, Note_off_c, 9, 51, 95
9, 296760, Note_off_c, 9, 38, 95
9, 297120, Note_on_c, 9, 51, 63
9, 297240, Note_off_c, 9, 51, 63
9, 297360, Note_on_c, 9, 35, 95
9, 297480, Note_off_c, 9, 35, 95
9, 297600, Note_on_c, 9, 51, 95
9, 297600, Note_on_c, 9, 38, 95
9, 297600, Note_on_c, 9, 40, 111
9, 297600, Note_on_c, 9, 35, 111
9, 297720, Note_off_c, 9, 51, 95
9, 297720, Note_off_c, 9, 38, 95
9, 297720, Note_off_c, 9, 40, 111
9, 297720, Note_off_c, 9, 35, 111
9, 298080, Note_on_c, 9, 48, 127
9, 298200, Note_off_c, 9, 48, 127
9, 298200, Note_on_c, 9, 48, 95
9, 298320, Note_off_c, 9, 48, 95
9, 298320, Note_on_c, 9, 48, 111
9, 298440, Note_off_c, 9, 48, 111
9, 298560, Note_on_c, 9, 47, 95
9, 298680, Note_off_c, 9, 47, 95
9, 298680, Note_on_c, 9, 47, 63
9, 298800, Note_off_c, 9, 47, 63
9, 298800, Note_on_c, 9, 47, 95
9, 298920, Note_off_c, 9, 47, 95
9, 298920, Note_on_c, 9, 47, 111
9, 299040, Note_off_c, 9, 47, 111
9, 299040, Note_on_c, 9, 47, 127
9, 299160, Note_off_c, 9, 47, 127
9, 299160, Note_on_c, 9, 47, 111
9, 299280, Note_off_c, 9, 47, 111
9, 299280, Note_on_c, 9, 45, 95
9, 299400, Note_off_c, 9, 45, 95
9, 299520, Note_on_c, 9, 35, 111
9, 299520, Note_on_c, 9, 49, 95
9, 299640, Note_off_c, 9, 35, 111
9, 299640, Note_off_c, 9, 49, 95
9, 300000, Note_on_c, 9, 51, 79
9, 300120, Note_off_c, 9, 51, 79
9, 300240, Note_on_c, 9, 35, 95
9, 300360, Note_off_c, 9, 35, 95
9, 300480, Note_on_c, 9, 38, 79
9, 300480, Note_on_c, 9, 40, 111
9, 300480, Note_on_c, 9, 51, 95
9, 300600, Note_off_c, 9, 38, 79
9, 300600, Note_off_c, 9, 40, 111
9, 300600, Note_off_c, 9, 51, 95
9, 300960, Note_on_c, 9, 51, 63
9, 301080, Note_off_c, 9, 51, 63
9, 301200, Note_on_c, 9, 35, 95
9, 301320, Note_off_c, 9, 35, 95
9, 301440, Note_on_c, 9, 51, 95
9, 301440, Note_on_c, 9, 35, 111
9, 301560, Note_off_c, 9, 51, 95
9, 301560, Note_off_c, 9, 35, 111
9, 301920, Note_on_c, 9, 51, 79
9, 301920, Note_on_c, 9, 35, 95
9, 302040, Note_off_c, 9, 51, 79
9, 302040, Note_off_c, 9, 35, 95
9, 302400, Note_on_c, 9, 51, 95
9, 302400, Note_on_c, 9, 38, 79
9, 302400, Note_on_c, 9, 40, 111
9, 302520, Note_off_c, 9, 51, 95
9, 302520, Note_off_c, 9, 38, 79
9, 302520, Note_off_c, 9, 40, 111
9, 302880, Note_on_c, 9, 51, 79
9, 303000, Note_off_c, 9, 51, 79
9, 303120, Note_on_c, 9, 35, 95
9, 303240, Note_off_c, 9, 35, 95
9, 303360, Note_on_c, 9, 51, 95
9, 303360, Note_on_c, 9, 35, 111
9, 303480, Note_off_c, 9, 51, 95
9, 303480, Note_off_c, 9, 35, 111
9, 303840, Note_on_c, 9, 51, 79
9, 303960, Note_off_c, 9, 51, 79
9, 304320, Note_on_c, 9, 40, 111
9, 304320, Note_on_c, 9, 38, 79
9, 304320, Note_on_c, 9, 51, 95
9, 304440, Note_off_c, 9, 40, 111
9, 304440, Note_off_c, 9, 38, 79
9, 304440, Note_off_c, 9, 51, 95
9, 304560, Note_on_c, 9, 35, 95
9, 304680, Note_off_c, 9, 35, 95
9, 304800, Note_on_c, 9, 51, 79
9, 304920, Note_off_c, 9, 51, 79
9, 305040, Note_on_c, 9, 35, 95
9, 305160, Note_off_c, 9, 35, 95
9, 305280, Note_on_c, 9, 51, 79
9, 305280, Note_on_c, 9, 35, 111
9, 305400, Note_off_c, 9, 51, 79
9, 305400, Note_off_c, 9, 35, 111
9, 305760, Note_on_c, 9, 51, 63
9, 305760, Note_on_c, 9, 35, 95
9, 305880, Note_off_c, 9, 51, 63
9, 305880, Note_off_c, 9, 35, 95
9, 306240, Note_on_c, 9, 51, 79
9, 306240, Note_on_c, 9, 40, 111
9, 306240, Note_on_c, 9, 38, 79
9, 306360, Note_off_c, 9, 51, 79
9, 306360, Note_off_c, 9, 40, 111
9, 306360, Note_off_c, 9, 38, 79
9, 306720, Note_on_c, 9, 51, 63
9, 306840, Note_off_c, 9, 51, 63
9, 306960, Note_on_c, 9, 35, 95
9, 307080, Note_off_c, 9, 35, 95
9, 307200, Note_on_c, 9, 51, 95
9, 307200, Note_on_c, 9, 35, 111
9, 307320, Note_off_c, 9, 51, 95
9, 307320, Note_off_c, 9, 35, 111
9, 307680, Note_on_c, 9, 51, 63
9, 307680, Note_on_c, 9, 35, 95
9, 307800, Note_off_c, 9, 51, 63
9, 307800, Note_off_c, 9, 35, 95
9, 308160, Note_on_c, 9, 51, 79
9, 308160, Note_on_c, 9, 38, 79
9, 308160, Note_on_c, 9, 40, 111
9, 308280, Note_off_c, 9, 51, 79
9, 308280, Note_off_c, 9, 38, 79
9, 308280, Note_off_c, 9, 40, 111
9, 308400, Note_on_c, 9, 51, 47
9, 308520, Note_off_c, 9, 51, 47
9, 308640, Note_on_c, 9, 51, 79
9, 308760, Note_off_c, 9, 51, 79
9, 308880, Note_on_c, 9, 35, 95
9, 309000, Note_off_c, 9, 35, 95
9, 309120, Note_on_c, 9, 51, 79
9, 309120, Note_on_c, 9, 35, 95
9, 309240, Note_off_c, 9, 51, 79
9, 309240, Note_off_c, 9, 35, 95
9, 309600, Note_on_c, 9, 51, 79
9, 309600, Note_on_c, 9, 35, 95
9, 309720, Note_off_c, 9, 51, 79
9, 309720, Note_off_c, 9, 35, 95
9, 309840, Note_on_c, 9, 35, 95
9, 309960, Note_off_c, 9, 35, 95
9, 310080, Note_on_c, 9, 38, 79
9, 310080, Note_on_c, 9, 40, 111
9, 310080, Note_on_c, 9, 51, 95
9, 310200, Note_off_c, 9, 38, 79
9, 310200, Note_off_c, 9, 40, 111
9, 310200, Note_off_c, 9, 51, 95
9, 310320, Note_on_c, 9, 35, 95
9, 310440, Note_off_c, 9, 35, 95
9, 310560, Note_on_c, 9, 51, 79
9, 310680, Note_off_c, 9, 51, 79
9, 310800, Note_on_c, 9, 35, 95
9, 310920, Note_off_c, 9, 35, 95
9, 311040, Note_on_c, 9, 35, 111
9, 311040, Note_on_c, 9, 51, 95
9, 311160, Note_off_c, 9, 35, 111
9, 311160, Note_off_c, 9, 51, 95
9, 311280, Note_on_c, 9, 51, 63
9, 311280, Note_on_c, 9, 53, 47
9, 311400, Note_off_c, 9, 51, 63
9, 311400, Note_off_c, 9, 53, 47
9, 311520, Note_on_c, 9, 51, 79
9, 311520, Note_on_c, 9, 53, 79
9, 311640, Note_off_c, 9, 51, 79
9, 311640, Note_off_c, 9, 53, 79
9, 311760, Note_on_c, 9, 35, 95
9, 311880, Note_off_c, 9, 35, 95
9, 312000, Note_on_c, 9, 38, 79
9, 312000, Note_on_c, 9, 40, 111
9, 312000, Note_on_c, 9, 51, 95
9, 312120, Note_off_c, 9, 38, 79
9, 312120, Note_off_c, 9, 40, 111
9, 312120, Note_off_c, 9, 51, 95
9, 312240, Note_on_c, 9, 35, 95
9, 312240, Note_on_c, 9, 51, 63
9, 312240, Note_on_c, 9, 53, 47
9, 312360, Note_off_c, 9, 35, 95
9, 312360, Note_off_c, 9, 51, 63
9, 312360, Note_off_c, 9, 53, 47
9, 312480, Note_on_c, 9, 53, 79
9, 312480, Note_on_c, 9, 51, 79
9, 312600, Note_off_c, 9, 53, 79
9, 312600, Note_off_c, 9, 51, 79
9, 312720, Note_on_c, 9, 35, 95
9, 312840, Note_off_c, 9, 35, 95
9, 312960, Note_on_c, 9, 51, 95
9, 313080, Note_off_c, 9, 51, 95
9, 313200, Note_on_c, 9, 53, 63
9, 313200, Note_on_c, 9, 51, 63
9, 313320, Note_off_c, 9, 53, 63
9, 313320, Note_off_c, 9, 51, 63
9, 313440, Note_on_c, 9, 51, 63
9, 313440, Note_on_c, 9, 53, 95
9, 313560, Note_off_c, 9, 51, 63
9, 313560, Note_off_c, 9, 53, 95
9, 313680, Note_on_c, 9, 35, 95
9, 313800, Note_off_c, 9, 35, 95
9, 313920, Note_on_c, 9, 51, 95
9, 313920, Note_on_c, 9, 38, 79
9, 313920, Note_on_c, 9, 40, 111
9, 314040, Note_off_c, 9, 51, 95
9, 314040, Note_off_c, 9, 38, 79
9, 314040, Note_off_c, 9, 40, 111
9, 314160, Note_on_c, 9, 53, 47
9, 314160, Note_on_c, 9, 51, 63
9, 314280, Note_off_c, 9, 53, 47
9, 314280, Note_off_c, 9, 51, 63
9, 314400, Note_on_c, 9, 51, 63
9, 314400, Note_on_c, 9, 53, 95
9, 314520, Note_off_c, 9, 51, 63
9, 314520, Note_off_c, 9, 53, 95
9, 314640, Note_on_c, 9, 35, 95
9, 314760, Note_off_c, 9, 35, 95
9, 314880, Note_on_c, 9, 35, 111
9, 314880, Note_on_c, 9, 51, 95
9, 315000, Note_off_c, 9, 35, 111
9, 315000, Note_off_c, 9, 51, 95
9, 315120, Note_on_c, 9, 51, 63
9, 315120, Note_on_c, 9, 53, 63
9, 315120, Note_on_c, 9, 35, 95
9, 315240, Note_off_c, 9, 51, 63
9, 315240, Note_off_c, 9, 53, 63
9, 315240, Note_off_c, 9, 35, 95
9, 315360, Note_on_c, 9, 51, 79
9, 315360, Note_on_c, 9, 53, 95
9, 315480, Note_off_c, 9, 51, 79
9, 315480, Note_off_c, 9, 53, 95
9, 315600, Note_on_c, 9, 35, 95
9, 315720, Note_off_c, 9, 35, 95
9, 315840, Note_on_c, 9, 38, 79
9, 315840, Note_on_c, 9, 51, 95
9, 315840, Note_on_c, 9, 40, 111
9, 315960, Note_off_c, 9, 38, 79
9, 315960, Note_off_c, 9, 51, 95
9, 315960, Note_off_c, 9, 40, 111
9, 316080, Note_on_c, 9, 53, 63
9, 316080, Note_on_c, 9, 51, 63
9, 316200, Note_off_c, 9, 53, 63
9, 316200, Note_off_c, 9, 51, 63
9, 316320, Note_on_c, 9, 53, 95
9, 316320, Note_on_c, 9, 51, 79
9, 316440, Note_off_c, 9, 53, 95
9, 316440, Note_off_c, 9, 51, 79
9, 316560, Note_on_c, 9, 35, 95
9, 316680, Note_off_c, 9, 35, 95
9, 316800, Note_on_c, 9, 51, 95
9, 316800, Note_on_c, 9, 35, 111
9, 316920, Note_off_c, 9, 51, 95
9, 316920, Note_off_c, 9, 35, 111
9, 317040, Note_on_c, 9, 53, 63
9, 317040, Note_on_c, 9, 51, 63
9, 317160, Note_off_c, 9, 53, 63
9, 317160, Note_off_c, 9, 51, 63
9, 317280, Note_on_c, 9, 51, 63
9, 317280, Note_on_c, 9, 53, 95
9, 317400, Note_off_c, 9, 51, 63
9, 317400, Note_off_c, 9, 53, 95
9, 317520, Note_on_c, 9, 35, 95
9, 317640, Note_off_c, 9, 35, 95
9, 317760, Note_on_c, 9, 51, 95
9, 317760, Note_on_c, 9, 38, 79
9, 317760, Note_on_c, 9, 40, 111
9, 317880, Note_off_c, 9, 51, 95
9, 317880, Note_off_c, 9, 38, 79
9, 317880, Note_off_c, 9, 40, 111
9, 318000, Note_on_c, 9, 53, 47
9, 318000, Note_on_c, 9, 51, 63
9, 318000, Note_on_c, 9, 35, 95
9, 318120, Note_off_c, 9, 53, 47
9, 318120, Note_off_c, 9, 51, 63
9, 318120, Note_off_c, 9, 35, 95
9, 318240, Note_on_c, 9, 53, 95
9, 318240, Note_on_c, 9, 51, 63
9, 318360, Note_off_c, 9, 53, 95
9, 318360, Note_off_c, 9, 51, 63
9, 318480, Note_on_c, 9, 35, 95
9, 318600, Note_off_c, 9, 35, 95
9, 318720, Note_on_c, 9, 51, 95
9, 318720, Note_on_c, 9, 35, 111
9, 318840, Note_off_c, 9, 51, 95
9, 318840, Note_off_c, 9, 35, 111
9, 319200, Note_on_c, 9, 51, 63
9, 319320, Note_off_c, 9, 51, 63
9, 319680, Note_on_c, 9, 51, 95
9, 319800, Note_off_c, 9, 51, 95
9, 319920, Note_on_c, 9, 51, 63
9, 320040, Note_off_c, 9, 51, 63
9, 320160, Note_on_c, 9, 51, 95
9, 320280, Note_off_c, 9, 51, 95
9, 320640, Note_on_c, 9, 51, 79
9, 320760, Note_off_c, 9, 51, 79
9, 320880, Note_on_c, 9, 51, 63
9, 321000, Note_off_c, 9, 51, 63
9, 321120, Note_on_c, 9, 51, 95
9, 321240, Note_off_c, 9, 51, 95
9, 321600, Note_on_c, 9, 51, 79
9, 321720, Note_off_c, 9, 51, 79
9, 321840, Note_on_c, 9, 51, 63
9, 321960, Note_off_c, 9, 51, 63
9, 322080, Note_on_c, 9, 51, 95
9, 322200, Note_off_c, 9, 51, 95
9, 322560, Note_on_c, 9, 51, 111
9, 322560, Note_on_c, 9, 35, 95
9, 322680, Note_off_c, 9, 51, 111
9, 322680, Note_off_c, 9, 35, 95
9, 322680, End_track
0, 0, End_of_file
