0, 0, Header, 0, 1, 960
1, 0, Start_track
1, 0, Copyright_t, "Copyright © 2011 by annex"
1, 0, Text_t, "annex"
1, 0, Time_signature, 4, 2, 24, 8
1, 0, Key_signature, 0, "major"
1, 0, Tempo, 685714
1, 0, Control_c, 0, 0, 121
1, 0, Control_c, 0, 32, 0
1, 0, Program_c, 0, 4
1, 0, Control_c, 0, 7, 127
1, 0, Control_c, 0, 10, 82
1, 0, Note_on_c, 0, 53, 88
1, 0, Note_on_c, 0, 57, 92
1, 0, Note_on_c, 0, 60, 90
1, 0, Control_c, 1, 0, 121
1, 0, Control_c, 1, 32, 0
1, 0, Program_c, 1, 35
1, 0, Control_c, 1, 7, 100
1, 0, Note_on_c, 1, 41, 104
1, 0, Control_c, 2, 0, 121
1, 0, Control_c, 2, 7, 90
1, 0, Control_c, 3, 0, 121
1, 0, Control_c, 3, 7, 85
1, 0, Control_c, 3, 10, 73
1, 0, Control_c, 7, 0, 121
1, 0, Control_c, 7, 32, 0
1, 0, Program_c, 7, 48
1, 0, Control_c, 7, 7, 80
1, 0, Control_c, 7, 10, 45
1, 0, Note_on_c, 7, 53, 88
1, 0, Note_on_c, 7, 57, 92
1, 0, Note_on_c, 7, 60, 90
1, 0, Control_c, 8, 0, 121
1, 0, Control_c, 8, 32, 0
1, 0, Program_c, 8, 16
1, 0, Control_c, 8, 7, 52
1, 0, Control_c, 8, 10, 70
1, 0, Note_on_c, 8, 77, 92
1, 0, Note_on_c, 8, 81, 101
1, 0, Note_on_c, 8, 84, 106
1, 0, Control_c, 9, 7, 127
1, 0, Control_c, 9, 7, 127
1, 0, Control_c, 9, 7, 127
1, 0, Note_on_c, 9, 42, 117
1, 0, Note_on_c, 9, 36, 127
1, 0, Control_c, 10, 0, 121
1, 0, Control_c, 10, 7, 115
1, 0, Control_c, 10, 10, 19
1, 1, Control_c, 10, 32, 0
1, 1, Control_c, 3, 32, 0
1, 1, Control_c, 2, 32, 0
1, 2, Program_c, 10, 119
1, 2, Program_c, 3, 30
1, 2, Program_c, 2, 27
1, 194, Note_on_c, 9, 36, 0
1, 229, Note_on_c, 9, 42, 0
1, 240, Note_on_c, 9, 44, 77
1, 410, Note_on_c, 9, 44, 0
1, 480, Note_on_c, 9, 36, 126
1, 484, Note_on_c, 9, 42, 117
1, 714, Note_on_c, 9, 36, 0
1, 718, Note_on_c, 9, 42, 0
1, 720, Note_on_c, 9, 44, 77
1, 897, Note_on_c, 9, 44, 0
1, 960, Note_on_c, 2, 77, 88
1, 960, Note_on_c, 2, 69, 80
1, 960, Note_on_c, 2, 72, 98
1, 960, Note_on_c, 9, 38, 83
1, 964, Note_on_c, 9, 42, 117
1, 1095, Note_on_c, 2, 69, 0
1, 1123, Note_on_c, 2, 72, 0
1, 1159, Note_on_c, 2, 77, 0
1, 1159, Note_on_c, 9, 38, 0
1, 1162, Note_on_c, 9, 42, 0
1, 1200, Note_on_c, 1, 41, 0
1, 1200, Note_on_c, 9, 44, 77
1, 1372, Note_on_c, 9, 44, 0
1, 1444, Note_on_c, 9, 42, 117
1, 1644, Note_on_c, 9, 42, 0
1, 1680, Note_on_c, 1, 41, 109
1, 1680, Note_on_c, 2, 77, 84
1, 1680, Note_on_c, 2, 69, 88
1, 1680, Note_on_c, 2, 72, 98
1, 1680, Note_on_c, 9, 36, 127
1, 1682, Note_on_c, 9, 44, 76
1, 1804, Note_on_c, 2, 69, 0
1, 1807, Note_on_c, 2, 72, 0
1, 1820, Note_on_c, 9, 44, 0
1, 1831, Note_on_c, 2, 77, 0
1, 1872, Note_on_c, 9, 36, 0
1, 1909, Note_on_c, 1, 41, 0
1, 1924, Note_on_c, 9, 42, 117
1, 2105, Note_on_c, 9, 42, 0
1, 2160, Note_on_c, 1, 41, 88
1, 2160, Note_on_c, 2, 77, 82
1, 2160, Note_on_c, 2, 69, 80
1, 2160, Note_on_c, 2, 72, 90
1, 2160, Note_on_c, 9, 44, 76
1, 2160, Note_on_c, 9, 36, 82
1, 2239, Note_on_c, 2, 72, 0
1, 2249, Note_on_c, 2, 69, 0
1, 2252, Note_on_c, 1, 41, 0
1, 2256, Note_on_c, 9, 36, 0
1, 2266, Note_on_c, 2, 77, 0
1, 2319, Note_on_c, 9, 44, 0
1, 2400, Note_on_c, 1, 41, 98
1, 2400, Note_on_c, 2, 77, 84
1, 2400, Note_on_c, 2, 69, 84
1, 2400, Note_on_c, 2, 72, 98
1, 2400, Note_on_c, 9, 42, 117
1, 2400, Note_on_c, 9, 36, 127
1, 2583, Note_on_c, 9, 42, 0
1, 2594, Note_on_c, 9, 36, 0
1, 2640, Note_on_c, 9, 44, 76
1, 2767, Note_on_c, 9, 44, 0
1, 2880, Note_on_c, 9, 38, 83
1, 2880, Note_on_c, 9, 42, 117
1, 2888, Note_on_c, 1, 41, 0
1, 3059, Note_on_c, 9, 42, 0
1, 3096, Note_on_c, 9, 38, 0
1, 3120, Note_on_c, 9, 44, 77
1, 3270, Note_on_c, 9, 44, 0
1, 3345, Note_on_c, 2, 72, 0
1, 3360, Note_on_c, 1, 43, 98
1, 3360, Note_on_c, 9, 42, 117
1, 3374, Note_on_c, 2, 69, 0
1, 3402, Note_on_c, 2, 77, 0
1, 3543, Note_on_c, 9, 42, 0
1, 3552, Note_on_c, 1, 43, 0
1, 3600, Note_on_c, 9, 44, 78
1, 3741, Note_on_c, 9, 44, 0
1, 3840, Note_on_c, 8, 84, 0
1, 3840, Note_on_c, 7, 53, 0
1, 3840, Note_on_c, 0, 53, 0
1, 3840, Note_on_c, 0, 57, 0
1, 3840, Note_on_c, 0, 60, 0
1, 3840, Note_on_c, 7, 60, 0
1, 3840, Note_on_c, 8, 77, 0
1, 3840, Note_on_c, 7, 57, 0
1, 3840, Note_on_c, 8, 81, 0
1, 3840, Note_on_c, 0, 52, 86
1, 3840, Note_on_c, 0, 57, 82
1, 3840, Note_on_c, 0, 60, 80
1, 3840, Note_on_c, 1, 45, 104
1, 3840, Note_on_c, 7, 52, 86
1, 3840, Note_on_c, 7, 57, 82
1, 3840, Note_on_c, 7, 60, 80
1, 3840, Note_on_c, 8, 88, 95
1, 3840, Note_on_c, 8, 84, 92
1, 3840, Note_on_c, 8, 81, 88
1, 3840, Note_on_c, 9, 36, 127
1, 3840, Note_on_c, 9, 42, 117
1, 4028, Note_on_c, 9, 36, 0
1, 4069, Note_on_c, 9, 42, 0
1, 4080, Note_on_c, 9, 44, 77
1, 4250, Note_on_c, 9, 44, 0
1, 4320, Note_on_c, 9, 36, 126
1, 4324, Note_on_c, 9, 42, 117
1, 4494, Note_on_c, 9, 36, 0
1, 4558, Note_on_c, 9, 42, 0
1, 4560, Note_on_c, 9, 44, 77
1, 4737, Note_on_c, 9, 44, 0
1, 4800, Note_on_c, 2, 76, 92
1, 4800, Note_on_c, 2, 72, 98
1, 4800, Note_on_c, 2, 69, 88
1, 4800, Note_on_c, 9, 38, 84
1, 4804, Note_on_c, 9, 42, 117
1, 4937, Note_on_c, 2, 69, 0
1, 4950, Note_on_c, 2, 72, 0
1, 4980, Note_on_c, 2, 76, 0
1, 4987, Note_on_c, 9, 38, 0
1, 5002, Note_on_c, 9, 42, 0
1, 5040, Note_on_c, 1, 45, 0
1, 5040, Note_on_c, 9, 44, 77
1, 5212, Note_on_c, 9, 44, 0
1, 5284, Note_on_c, 9, 42, 117
1, 5484, Note_on_c, 9, 42, 0
1, 5520, Note_on_c, 1, 45, 98
1, 5520, Note_on_c, 2, 69, 80
1, 5520, Note_on_c, 2, 72, 84
1, 5520, Note_on_c, 2, 76, 73
1, 5520, Note_on_c, 9, 36, 125
1, 5522, Note_on_c, 9, 44, 76
1, 5647, Note_on_c, 2, 69, 0
1, 5652, Note_on_c, 2, 76, 0
1, 5654, Note_on_c, 2, 72, 0
1, 5660, Note_on_c, 9, 44, 0
1, 5679, Note_on_c, 9, 36, 0
1, 5717, Note_on_c, 1, 45, 0
1, 5764, Note_on_c, 9, 42, 117
1, 5945, Note_on_c, 9, 42, 0
1, 6000, Note_on_c, 1, 45, 84
1, 6000, Note_on_c, 9, 44, 76
1, 6000, Note_on_c, 9, 36, 81
1, 6002, Note_on_c, 2, 72, 88
1, 6002, Note_on_c, 2, 76, 74
1, 6002, Note_on_c, 2, 69, 68
1, 6085, Note_on_c, 2, 69, 0
1, 6085, Note_on_c, 2, 76, 0
1, 6086, Note_on_c, 2, 72, 0
1, 6089, Note_on_c, 1, 45, 0
1, 6099, Note_on_c, 9, 36, 0
1, 6159, Note_on_c, 9, 44, 0
1, 6240, Note_on_c, 1, 45, 88
1, 6240, Note_on_c, 9, 42, 117
1, 6240, Note_on_c, 9, 36, 125
1, 6242, Note_on_c, 2, 76, 95
1, 6242, Note_on_c, 2, 69, 95
1, 6242, Note_on_c, 2, 72, 90
1, 6380, Note_on_c, 9, 36, 0
1, 6423, Note_on_c, 9, 42, 0
1, 6480, Note_on_c, 9, 44, 76
1, 6607, Note_on_c, 9, 44, 0
1, 6720, Note_on_c, 9, 42, 117
1, 6720, Note_on_c, 9, 38, 86
1, 6786, Note_on_c, 1, 45, 0
1, 6883, Note_on_c, 9, 38, 0
1, 6899, Note_on_c, 9, 42, 0
1, 6960, Note_on_c, 9, 44, 77
1, 7110, Note_on_c, 9, 44, 0
1, 7174, Note_on_c, 2, 76, 0
1, 7174, Note_on_c, 2, 72, 0
1, 7178, Note_on_c, 2, 69, 0
1, 7200, Note_on_c, 1, 48, 109
1, 7200, Note_on_c, 9, 42, 117
1, 7382, Note_on_c, 1, 48, 0
1, 7383, Note_on_c, 9, 42, 0
1, 7440, Note_on_c, 9, 44, 78
1, 7581, Note_on_c, 9, 44, 0
1, 7680, Note_on_c, 8, 84, 0
1, 7680, Note_on_c, 7, 52, 0
1, 7680, Note_on_c, 0, 52, 0
1, 7680, Note_on_c, 0, 57, 0
1, 7680, Note_on_c, 7, 60, 0
1, 7680, Note_on_c, 7, 57, 0
1, 7680, Note_on_c, 8, 88, 0
1, 7680, Note_on_c, 0, 60, 0
1, 7680, Note_on_c, 8, 81, 0
1, 7680, Note_on_c, 0, 53, 86
1, 7680, Note_on_c, 0, 57, 86
1, 7680, Note_on_c, 0, 62, 84
1, 7680, Note_on_c, 1, 38, 98
1, 7680, Note_on_c, 7, 53, 86
1, 7680, Note_on_c, 7, 57, 86
1, 7680, Note_on_c, 7, 62, 84
1, 7680, Note_on_c, 8, 77, 104
1, 7680, Note_on_c, 8, 81, 88
1, 7680, Note_on_c, 8, 86, 80
1, 7680, Note_on_c, 9, 36, 127
1, 7680, Note_on_c, 9, 42, 117
1, 7874, Note_on_c, 9, 36, 0
1, 7909, Note_on_c, 9, 42, 0
1, 7920, Note_on_c, 9, 44, 77
1, 8090, Note_on_c, 9, 44, 0
1, 8160, Note_on_c, 9, 36, 126
1, 8164, Note_on_c, 9, 42, 117
1, 8394, Note_on_c, 9, 36, 0
1, 8398, Note_on_c, 9, 42, 0
1, 8400, Note_on_c, 9, 44, 77
1, 8577, Note_on_c, 9, 44, 0
1, 8640, Note_on_c, 9, 38, 83
1, 8642, Note_on_c, 2, 74, 88
1, 8642, Note_on_c, 2, 65, 80
1, 8642, Note_on_c, 2, 69, 106
1, 8644, Note_on_c, 9, 42, 117
1, 8798, Note_on_c, 2, 69, 0
1, 8811, Note_on_c, 2, 65, 0
1, 8839, Note_on_c, 9, 38, 0
1, 8842, Note_on_c, 9, 42, 0
1, 8855, Note_on_c, 2, 74, 0
1, 8880, Note_on_c, 1, 38, 0
1, 8880, Note_on_c, 9, 44, 77
1, 9052, Note_on_c, 9, 44, 0
1, 9124, Note_on_c, 9, 42, 117
1, 9324, Note_on_c, 9, 42, 0
1, 9360, Note_on_c, 1, 38, 92
1, 9360, Note_on_c, 2, 74, 90
1, 9360, Note_on_c, 2, 65, 95
1, 9360, Note_on_c, 9, 36, 127
1, 9362, Note_on_c, 2, 69, 106
1, 9362, Note_on_c, 9, 44, 76
1, 9476, Note_on_c, 2, 69, 0
1, 9479, Note_on_c, 2, 65, 0
1, 9500, Note_on_c, 9, 44, 0
1, 9503, Note_on_c, 2, 74, 0
1, 9535, Note_on_c, 1, 38, 0
1, 9552, Note_on_c, 9, 36, 0
1, 9604, Note_on_c, 9, 42, 117
1, 9785, Note_on_c, 9, 42, 0
1, 9840, Note_on_c, 1, 38, 84
1, 9840, Note_on_c, 2, 69, 98
1, 9840, Note_on_c, 9, 44, 76
1, 9840, Note_on_c, 9, 36, 82
1, 9842, Note_on_c, 2, 65, 84
1, 9842, Note_on_c, 2, 74, 74
1, 9923, Note_on_c, 2, 69, 0
1, 9926, Note_on_c, 2, 74, 0
1, 9929, Note_on_c, 2, 65, 0
1, 9936, Note_on_c, 9, 36, 0
1, 9961, Note_on_c, 1, 38, 0
1, 9999, Note_on_c, 9, 44, 0
1, 10080, Note_on_c, 1, 38, 98
1, 10080, Note_on_c, 9, 42, 117
1, 10080, Note_on_c, 9, 36, 127
1, 10082, Note_on_c, 2, 74, 101
1, 10082, Note_on_c, 2, 65, 92
1, 10082, Note_on_c, 2, 69, 104
1, 10263, Note_on_c, 9, 42, 0
1, 10274, Note_on_c, 9, 36, 0
1, 10320, Note_on_c, 9, 44, 76
1, 10447, Note_on_c, 9, 44, 0
1, 10560, Note_on_c, 9, 42, 117
1, 10560, Note_on_c, 9, 38, 83
1, 10574, Note_on_c, 1, 38, 0
1, 10739, Note_on_c, 9, 42, 0
1, 10776, Note_on_c, 9, 38, 0
1, 10800, Note_on_c, 9, 44, 77
1, 10950, Note_on_c, 9, 44, 0
1, 10985, Note_on_c, 2, 69, 0
1, 11001, Note_on_c, 2, 65, 0
1, 11015, Note_on_c, 2, 74, 0
1, 11040, Note_on_c, 1, 45, 98
1, 11040, Note_on_c, 9, 42, 117
1, 11219, Note_on_c, 1, 45, 0
1, 11223, Note_on_c, 9, 42, 0
1, 11280, Note_on_c, 9, 44, 78
1, 11421, Note_on_c, 9, 44, 0
1, 11520, Note_on_c, 8, 81, 0
1, 11520, Note_on_c, 7, 53, 0
1, 11520, Note_on_c, 0, 53, 0
1, 11520, Note_on_c, 0, 62, 0
1, 11520, Note_on_c, 8, 86, 0
1, 11520, Note_on_c, 7, 57, 0
1, 11520, Note_on_c, 8, 77, 0
1, 11520, Note_on_c, 0, 57, 0
1, 11520, Note_on_c, 7, 62, 0
1, 11520, Note_on_c, 0, 53, 88
1, 11520, Note_on_c, 0, 58, 98
1, 11520, Note_on_c, 0, 62, 82
1, 11520, Note_on_c, 1, 46, 101
1, 11520, Note_on_c, 7, 53, 88
1, 11520, Note_on_c, 7, 58, 98
1, 11520, Note_on_c, 7, 62, 82
1, 11520, Note_on_c, 8, 77, 90
1, 11520, Note_on_c, 8, 82, 101
1, 11520, Note_on_c, 8, 86, 80
1, 11520, Note_on_c, 9, 36, 127
1, 11520, Note_on_c, 9, 42, 117
1, 11708, Note_on_c, 9, 36, 0
1, 11749, Note_on_c, 9, 42, 0
1, 11760, Note_on_c, 9, 44, 77
1, 11930, Note_on_c, 9, 44, 0
1, 12000, Note_on_c, 9, 36, 126
1, 12004, Note_on_c, 9, 42, 117
1, 12174, Note_on_c, 9, 36, 0
1, 12238, Note_on_c, 9, 42, 0
1, 12240, Note_on_c, 9, 44, 77
1, 12417, Note_on_c, 9, 44, 0
1, 12480, Note_on_c, 9, 38, 84
1, 12482, Note_on_c, 2, 74, 82
1, 12482, Note_on_c, 2, 70, 101
1, 12482, Note_on_c, 2, 65, 92
1, 12484, Note_on_c, 9, 42, 117
1, 12642, Note_on_c, 2, 65, 0
1, 12667, Note_on_c, 9, 38, 0
1, 12670, Note_on_c, 2, 70, 0
1, 12682, Note_on_c, 9, 42, 0
1, 12695, Note_on_c, 2, 74, 0
1, 12720, Note_on_c, 1, 46, 0
1, 12720, Note_on_c, 9, 44, 77
1, 12892, Note_on_c, 9, 44, 0
1, 12964, Note_on_c, 9, 42, 117
1, 13164, Note_on_c, 9, 42, 0
1, 13200, Note_on_c, 1, 46, 117
1, 13200, Note_on_c, 2, 70, 101
1, 13200, Note_on_c, 2, 65, 82
1, 13200, Note_on_c, 2, 74, 67
1, 13200, Note_on_c, 9, 36, 125
1, 13202, Note_on_c, 9, 44, 76
1, 13323, Note_on_c, 2, 70, 0
1, 13325, Note_on_c, 2, 65, 0
1, 13328, Note_on_c, 2, 74, 0
1, 13340, Note_on_c, 9, 44, 0
1, 13359, Note_on_c, 9, 36, 0
1, 13369, Note_on_c, 1, 46, 0
1, 13444, Note_on_c, 9, 42, 117
1, 13625, Note_on_c, 9, 42, 0
1, 13680, Note_on_c, 1, 46, 92
1, 13680, Note_on_c, 2, 65, 80
1, 13680, Note_on_c, 2, 74, 80
1, 13680, Note_on_c, 2, 70, 109
1, 13680, Note_on_c, 9, 44, 76
1, 13680, Note_on_c, 9, 36, 81
1, 13754, Note_on_c, 1, 46, 0
1, 13756, Note_on_c, 2, 70, 0
1, 13779, Note_on_c, 9, 36, 0
1, 13780, Note_on_c, 2, 65, 0
1, 13783, Note_on_c, 2, 74, 0
1, 13839, Note_on_c, 9, 44, 0
1, 13920, Note_on_c, 1, 46, 101
1, 13920, Note_on_c, 2, 74, 104
1, 13920, Note_on_c, 2, 65, 98
1, 13920, Note_on_c, 2, 70, 117
1, 13920, Note_on_c, 9, 42, 117
1, 13920, Note_on_c, 9, 36, 125
1, 14060, Note_on_c, 9, 36, 0
1, 14103, Note_on_c, 9, 42, 0
1, 14160, Note_on_c, 9, 44, 76
1, 14287, Note_on_c, 9, 44, 0
1, 14400, Note_on_c, 9, 42, 117
1, 14400, Note_on_c, 9, 38, 86
1, 14433, Note_on_c, 1, 46, 0
1, 14563, Note_on_c, 9, 38, 0
1, 14579, Note_on_c, 9, 42, 0
1, 14640, Note_on_c, 9, 44, 77
1, 14790, Note_on_c, 9, 44, 0
1, 14880, Note_on_c, 1, 48, 98
1, 14880, Note_on_c, 9, 42, 117
1, 14906, Note_on_c, 2, 70, 0
1, 14920, Note_on_c, 2, 65, 0
1, 14972, Note_on_c, 2, 74, 0
1, 15063, Note_on_c, 9, 42, 0
1, 15120, Note_on_c, 1, 50, 92
1, 15120, Note_on_c, 9, 44, 78
1, 15129, Note_on_c, 1, 48, 0
1, 15261, Note_on_c, 9, 44, 0
1, 15312, Note_on_c, 1, 50, 0
1, 15345, Note_on_c, 8, 86, 0
1, 15356, Note_on_c, 7, 62, 0
1, 15356, Note_on_c, 0, 62, 0
1, 15360, Note_on_c, 0, 58, 0
1, 15360, Note_on_c, 7, 58, 0
1, 15360, Note_on_c, 7, 53, 0
1, 15360, Note_on_c, 8, 82, 0
1, 15360, Note_on_c, 0, 53, 0
1, 15360, Note_on_c, 8, 77, 0
1, 15360, Note_on_c, 0, 53, 88
1, 15360, Note_on_c, 0, 57, 92
1, 15360, Note_on_c, 0, 60, 90
1, 15360, Note_on_c, 1, 41, 104
1, 15360, Note_on_c, 8, 77, 92
1, 15360, Note_on_c, 8, 81, 101
1, 15360, Note_on_c, 8, 84, 106
1, 15360, Note_on_c, 9, 42, 117
1, 15360, Note_on_c, 9, 36, 127
1, 15554, Note_on_c, 9, 36, 0
1, 15589, Note_on_c, 9, 42, 0
1, 15600, Note_on_c, 9, 44, 77
1, 15770, Note_on_c, 9, 44, 0
1, 15840, Note_on_c, 9, 36, 126
1, 15844, Note_on_c, 9, 42, 117
1, 16074, Note_on_c, 9, 36, 0
1, 16078, Note_on_c, 9, 42, 0
1, 16080, Note_on_c, 9, 44, 77
1, 16257, Note_on_c, 9, 44, 0
1, 16320, Note_on_c, 2, 77, 88
1, 16320, Note_on_c, 2, 69, 80
1, 16320, Note_on_c, 2, 72, 98
1, 16320, Note_on_c, 9, 38, 83
1, 16324, Note_on_c, 9, 42, 117
1, 16455, Note_on_c, 2, 69, 0
1, 16483, Note_on_c, 2, 72, 0
1, 16519, Note_on_c, 9, 38, 0
1, 16519, Note_on_c, 2, 77, 0
1, 16522, Note_on_c, 9, 42, 0
1, 16560, Note_on_c, 1, 41, 0
1, 16560, Note_on_c, 9, 44, 77
1, 16732, Note_on_c, 9, 44, 0
1, 16804, Note_on_c, 9, 42, 117
1, 17004, Note_on_c, 9, 42, 0
1, 17040, Note_on_c, 1, 41, 109
1, 17040, Note_on_c, 2, 77, 84
1, 17040, Note_on_c, 2, 69, 88
1, 17040, Note_on_c, 2, 72, 98
1, 17040, Note_on_c, 9, 36, 127
1, 17042, Note_on_c, 9, 44, 76
1, 17164, Note_on_c, 2, 69, 0
1, 17167, Note_on_c, 2, 72, 0
1, 17180, Note_on_c, 9, 44, 0
1, 17191, Note_on_c, 2, 77, 0
1, 17232, Note_on_c, 9, 36, 0
1, 17269, Note_on_c, 1, 41, 0
1, 17284, Note_on_c, 9, 42, 117
1, 17465, Note_on_c, 9, 42, 0
1, 17520, Note_on_c, 1, 41, 88
1, 17520, Note_on_c, 2, 77, 82
1, 17520, Note_on_c, 2, 69, 80
1, 17520, Note_on_c, 2, 72, 90
1, 17520, Note_on_c, 9, 44, 76
1, 17520, Note_on_c, 9, 36, 82
1, 17599, Note_on_c, 2, 72, 0
1, 17609, Note_on_c, 2, 69, 0
1, 17612, Note_on_c, 1, 41, 0
1, 17616, Note_on_c, 9, 36, 0
1, 17626, Note_on_c, 2, 77, 0
1, 17679, Note_on_c, 9, 44, 0
1, 17760, Note_on_c, 1, 41, 98
1, 17760, Note_on_c, 2, 77, 84
1, 17760, Note_on_c, 2, 69, 84
1, 17760, Note_on_c, 2, 72, 98
1, 17760, Note_on_c, 9, 36, 127
1, 17760, Note_on_c, 9, 42, 117
1, 17943, Note_on_c, 9, 42, 0
1, 17954, Note_on_c, 9, 36, 0
1, 18000, Note_on_c, 9, 44, 76
1, 18127, Note_on_c, 9, 44, 0
1, 18240, Note_on_c, 9, 38, 83
1, 18240, Note_on_c, 9, 42, 117
1, 18248, Note_on_c, 1, 41, 0
1, 18419, Note_on_c, 9, 42, 0
1, 18456, Note_on_c, 9, 38, 0
1, 18480, Note_on_c, 9, 44, 77
1, 18630, Note_on_c, 9, 44, 0
1, 18705, Note_on_c, 2, 72, 0
1, 18720, Note_on_c, 1, 43, 98
1, 18720, Note_on_c, 9, 42, 117
1, 18734, Note_on_c, 2, 69, 0
1, 18762, Note_on_c, 2, 77, 0
1, 18903, Note_on_c, 9, 42, 0
1, 18912, Note_on_c, 1, 43, 0
1, 18960, Note_on_c, 9, 44, 78
1, 19101, Note_on_c, 9, 44, 0
1, 19200, Note_on_c, 8, 77, 0
1, 19200, Note_on_c, 8, 84, 0
1, 19200, Note_on_c, 0, 60, 0
1, 19200, Note_on_c, 0, 53, 0
1, 19200, Note_on_c, 0, 57, 0
1, 19200, Note_on_c, 8, 81, 0
1, 19200, Note_on_c, 0, 52, 86
1, 19200, Note_on_c, 0, 57, 82
1, 19200, Note_on_c, 0, 60, 80
1, 19200, Note_on_c, 1, 45, 104
1, 19200, Note_on_c, 8, 88, 95
1, 19200, Note_on_c, 8, 84, 92
1, 19200, Note_on_c, 8, 81, 88
1, 19200, Note_on_c, 9, 36, 127
1, 19200, Note_on_c, 9, 42, 117
1, 19388, Note_on_c, 9, 36, 0
1, 19429, Note_on_c, 9, 42, 0
1, 19440, Note_on_c, 9, 44, 77
1, 19610, Note_on_c, 9, 44, 0
1, 19680, Note_on_c, 9, 36, 126
1, 19684, Note_on_c, 9, 42, 117
1, 19854, Note_on_c, 9, 36, 0
1, 19918, Note_on_c, 9, 42, 0
1, 19920, Note_on_c, 9, 44, 77
1, 20097, Note_on_c, 9, 44, 0
1, 20160, Note_on_c, 2, 76, 92
1, 20160, Note_on_c, 2, 72, 98
1, 20160, Note_on_c, 2, 69, 88
1, 20160, Note_on_c, 9, 38, 84
1, 20164, Note_on_c, 9, 42, 117
1, 20297, Note_on_c, 2, 69, 0
1, 20310, Note_on_c, 2, 72, 0
1, 20340, Note_on_c, 2, 76, 0
1, 20347, Note_on_c, 9, 38, 0
1, 20362, Note_on_c, 9, 42, 0
1, 20400, Note_on_c, 1, 45, 0
1, 20400, Note_on_c, 9, 44, 77
1, 20572, Note_on_c, 9, 44, 0
1, 20644, Note_on_c, 9, 42, 117
1, 20844, Note_on_c, 9, 42, 0
1, 20880, Note_on_c, 1, 45, 98
1, 20880, Note_on_c, 2, 69, 80
1, 20880, Note_on_c, 2, 72, 84
1, 20880, Note_on_c, 2, 76, 73
1, 20880, Note_on_c, 9, 36, 125
1, 20882, Note_on_c, 9, 44, 76
1, 21007, Note_on_c, 2, 69, 0
1, 21012, Note_on_c, 2, 76, 0
1, 21014, Note_on_c, 2, 72, 0
1, 21020, Note_on_c, 9, 44, 0
1, 21039, Note_on_c, 9, 36, 0
1, 21077, Note_on_c, 1, 45, 0
1, 21124, Note_on_c, 9, 42, 117
1, 21305, Note_on_c, 9, 42, 0
1, 21360, Note_on_c, 1, 45, 84
1, 21360, Note_on_c, 9, 36, 81
1, 21360, Note_on_c, 9, 44, 76
1, 21362, Note_on_c, 2, 72, 88
1, 21362, Note_on_c, 2, 76, 74
1, 21362, Note_on_c, 2, 69, 68
1, 21445, Note_on_c, 2, 69, 0
1, 21445, Note_on_c, 2, 76, 0
1, 21446, Note_on_c, 2, 72, 0
1, 21449, Note_on_c, 1, 45, 0
1, 21459, Note_on_c, 9, 36, 0
1, 21519, Note_on_c, 9, 44, 0
1, 21600, Note_on_c, 1, 45, 88
1, 21600, Note_on_c, 9, 36, 125
1, 21600, Note_on_c, 9, 42, 117
1, 21602, Note_on_c, 2, 76, 95
1, 21602, Note_on_c, 2, 69, 95
1, 21602, Note_on_c, 2, 72, 90
1, 21740, Note_on_c, 9, 36, 0
1, 21783, Note_on_c, 9, 42, 0
1, 21840, Note_on_c, 9, 44, 76
1, 21967, Note_on_c, 9, 44, 0
1, 22080, Note_on_c, 9, 42, 117
1, 22080, Note_on_c, 9, 38, 86
1, 22146, Note_on_c, 1, 45, 0
1, 22243, Note_on_c, 9, 38, 0
1, 22259, Note_on_c, 9, 42, 0
1, 22320, Note_on_c, 9, 44, 77
1, 22470, Note_on_c, 9, 44, 0
1, 22534, Note_on_c, 2, 76, 0
1, 22534, Note_on_c, 2, 72, 0
1, 22538, Note_on_c, 2, 69, 0
1, 22560, Note_on_c, 1, 48, 109
1, 22560, Note_on_c, 9, 42, 117
1, 22742, Note_on_c, 1, 48, 0
1, 22743, Note_on_c, 9, 42, 0
1, 22800, Note_on_c, 9, 44, 78
1, 22941, Note_on_c, 9, 44, 0
1, 23040, Note_on_c, 8, 84, 0
1, 23040, Note_on_c, 8, 88, 0
1, 23040, Note_on_c, 8, 81, 0
1, 23040, Note_on_c, 0, 60, 0
1, 23040, Note_on_c, 0, 52, 0
1, 23040, Note_on_c, 0, 57, 0
1, 23040, Note_on_c, 0, 53, 86
1, 23040, Note_on_c, 0, 57, 86
1, 23040, Note_on_c, 0, 62, 84
1, 23040, Note_on_c, 1, 38, 98
1, 23040, Note_on_c, 8, 77, 104
1, 23040, Note_on_c, 8, 81, 88
1, 23040, Note_on_c, 8, 86, 80
1, 23040, Note_on_c, 9, 36, 127
1, 23040, Note_on_c, 9, 42, 117
1, 23234, Note_on_c, 9, 36, 0
1, 23269, Note_on_c, 9, 42, 0
1, 23280, Note_on_c, 9, 44, 77
1, 23450, Note_on_c, 9, 44, 0
1, 23520, Note_on_c, 9, 36, 126
1, 23524, Note_on_c, 9, 42, 117
1, 23754, Note_on_c, 9, 36, 0
1, 23758, Note_on_c, 9, 42, 0
1, 23760, Note_on_c, 9, 44, 77
1, 23937, Note_on_c, 9, 44, 0
1, 24000, Note_on_c, 9, 38, 83
1, 24002, Note_on_c, 2, 74, 88
1, 24002, Note_on_c, 2, 65, 80
1, 24002, Note_on_c, 2, 69, 106
1, 24004, Note_on_c, 9, 42, 117
1, 24158, Note_on_c, 2, 69, 0
1, 24171, Note_on_c, 2, 65, 0
1, 24199, Note_on_c, 9, 38, 0
1, 24202, Note_on_c, 9, 42, 0
1, 24215, Note_on_c, 2, 74, 0
1, 24240, Note_on_c, 1, 38, 0
1, 24240, Note_on_c, 9, 44, 77
1, 24412, Note_on_c, 9, 44, 0
1, 24484, Note_on_c, 9, 42, 117
1, 24684, Note_on_c, 9, 42, 0
1, 24720, Note_on_c, 1, 38, 92
1, 24720, Note_on_c, 2, 74, 90
1, 24720, Note_on_c, 2, 65, 95
1, 24720, Note_on_c, 9, 36, 127
1, 24722, Note_on_c, 2, 69, 106
1, 24722, Note_on_c, 9, 44, 76
1, 24836, Note_on_c, 2, 69, 0
1, 24839, Note_on_c, 2, 65, 0
1, 24860, Note_on_c, 9, 44, 0
1, 24863, Note_on_c, 2, 74, 0
1, 24895, Note_on_c, 1, 38, 0
1, 24912, Note_on_c, 9, 36, 0
1, 24964, Note_on_c, 9, 42, 117
1, 25145, Note_on_c, 9, 42, 0
1, 25200, Note_on_c, 1, 38, 84
1, 25200, Note_on_c, 2, 69, 98
1, 25200, Note_on_c, 9, 44, 76
1, 25200, Note_on_c, 9, 36, 82
1, 25202, Note_on_c, 2, 65, 84
1, 25202, Note_on_c, 2, 74, 74
1, 25283, Note_on_c, 2, 69, 0
1, 25286, Note_on_c, 2, 74, 0
1, 25289, Note_on_c, 2, 65, 0
1, 25296, Note_on_c, 9, 36, 0
1, 25321, Note_on_c, 1, 38, 0
1, 25359, Note_on_c, 9, 44, 0
1, 25440, Note_on_c, 1, 38, 98
1, 25440, Note_on_c, 9, 36, 127
1, 25440, Note_on_c, 9, 42, 117
1, 25442, Note_on_c, 2, 74, 101
1, 25442, Note_on_c, 2, 65, 92
1, 25442, Note_on_c, 2, 69, 104
1, 25623, Note_on_c, 9, 42, 0
1, 25634, Note_on_c, 9, 36, 0
1, 25680, Note_on_c, 9, 44, 76
1, 25807, Note_on_c, 9, 44, 0
1, 25920, Note_on_c, 9, 38, 83
1, 25920, Note_on_c, 9, 42, 117
1, 25934, Note_on_c, 1, 38, 0
1, 26099, Note_on_c, 9, 42, 0
1, 26136, Note_on_c, 9, 38, 0
1, 26160, Note_on_c, 9, 44, 77
1, 26310, Note_on_c, 9, 44, 0
1, 26345, Note_on_c, 2, 69, 0
1, 26361, Note_on_c, 2, 65, 0
1, 26375, Note_on_c, 2, 74, 0
1, 26400, Note_on_c, 1, 45, 98
1, 26400, Note_on_c, 9, 42, 117
1, 26579, Note_on_c, 1, 45, 0
1, 26583, Note_on_c, 9, 42, 0
1, 26640, Note_on_c, 9, 44, 78
1, 26781, Note_on_c, 9, 44, 0
1, 26880, Note_on_c, 8, 81, 0
1, 26880, Note_on_c, 0, 62, 0
1, 26880, Note_on_c, 0, 57, 0
1, 26880, Note_on_c, 8, 77, 0
1, 26880, Note_on_c, 0, 53, 0
1, 26880, Note_on_c, 8, 86, 0
1, 26880, Note_on_c, 0, 53, 88
1, 26880, Note_on_c, 0, 58, 98
1, 26880, Note_on_c, 0, 62, 82
1, 26880, Note_on_c, 1, 46, 101
1, 26880, Note_on_c, 8, 77, 90
1, 26880, Note_on_c, 8, 82, 101
1, 26880, Note_on_c, 8, 86, 80
1, 26880, Note_on_c, 9, 36, 127
1, 26880, Note_on_c, 9, 42, 117
1, 27068, Note_on_c, 9, 36, 0
1, 27109, Note_on_c, 9, 42, 0
1, 27120, Note_on_c, 9, 44, 77
1, 27290, Note_on_c, 9, 44, 0
1, 27360, Note_on_c, 9, 36, 126
1, 27364, Note_on_c, 9, 42, 117
1, 27534, Note_on_c, 9, 36, 0
1, 27598, Note_on_c, 9, 42, 0
1, 27600, Note_on_c, 9, 44, 77
1, 27777, Note_on_c, 9, 44, 0
1, 27840, Note_on_c, 9, 38, 84
1, 27842, Note_on_c, 2, 74, 82
1, 27842, Note_on_c, 2, 70, 101
1, 27842, Note_on_c, 2, 65, 92
1, 27844, Note_on_c, 9, 42, 117
1, 28002, Note_on_c, 2, 65, 0
1, 28027, Note_on_c, 9, 38, 0
1, 28030, Note_on_c, 2, 70, 0
1, 28042, Note_on_c, 9, 42, 0
1, 28055, Note_on_c, 2, 74, 0
1, 28080, Note_on_c, 1, 46, 0
1, 28080, Note_on_c, 9, 44, 77
1, 28252, Note_on_c, 9, 44, 0
1, 28324, Note_on_c, 9, 42, 117
1, 28524, Note_on_c, 9, 42, 0
1, 28560, Note_on_c, 1, 46, 117
1, 28560, Note_on_c, 2, 70, 101
1, 28560, Note_on_c, 2, 65, 82
1, 28560, Note_on_c, 2, 74, 67
1, 28560, Note_on_c, 9, 36, 125
1, 28562, Note_on_c, 9, 44, 76
1, 28683, Note_on_c, 2, 70, 0
1, 28685, Note_on_c, 2, 65, 0
1, 28688, Note_on_c, 2, 74, 0
1, 28700, Note_on_c, 9, 44, 0
1, 28719, Note_on_c, 9, 36, 0
1, 28729, Note_on_c, 1, 46, 0
1, 28804, Note_on_c, 9, 42, 117
1, 28985, Note_on_c, 9, 42, 0
1, 29040, Note_on_c, 1, 46, 92
1, 29040, Note_on_c, 2, 65, 80
1, 29040, Note_on_c, 2, 74, 80
1, 29040, Note_on_c, 2, 70, 109
1, 29040, Note_on_c, 9, 36, 81
1, 29040, Note_on_c, 9, 44, 76
1, 29114, Note_on_c, 1, 46, 0
1, 29116, Note_on_c, 2, 70, 0
1, 29139, Note_on_c, 9, 36, 0
1, 29140, Note_on_c, 2, 65, 0
1, 29143, Note_on_c, 2, 74, 0
1, 29199, Note_on_c, 9, 44, 0
1, 29280, Note_on_c, 1, 46, 101
1, 29280, Note_on_c, 2, 74, 104
1, 29280, Note_on_c, 2, 65, 98
1, 29280, Note_on_c, 2, 70, 117
1, 29280, Note_on_c, 9, 36, 125
1, 29280, Note_on_c, 9, 42, 117
1, 29420, Note_on_c, 9, 36, 0
1, 29463, Note_on_c, 9, 42, 0
1, 29520, Note_on_c, 9, 44, 76
1, 29647, Note_on_c, 9, 44, 0
1, 29760, Note_on_c, 9, 38, 86
1, 29760, Note_on_c, 9, 42, 117
1, 29793, Note_on_c, 1, 46, 0
1, 29923, Note_on_c, 9, 38, 0
1, 29939, Note_on_c, 9, 42, 0
1, 30000, Note_on_c, 9, 44, 77
1, 30150, Note_on_c, 9, 44, 0
1, 30240, Note_on_c, 1, 48, 98
1, 30240, Note_on_c, 9, 42, 117
1, 30266, Note_on_c, 2, 70, 0
1, 30280, Note_on_c, 2, 65, 0
1, 30332, Note_on_c, 2, 74, 0
1, 30423, Note_on_c, 9, 42, 0
1, 30480, Note_on_c, 1, 50, 92
1, 30480, Note_on_c, 9, 44, 78
1, 30489, Note_on_c, 1, 48, 0
1, 30621, Note_on_c, 9, 44, 0
1, 30672, Note_on_c, 1, 50, 0
1, 30705, Note_on_c, 8, 86, 0
1, 30716, Note_on_c, 0, 62, 0
1, 30720, Note_on_c, 0, 58, 0
1, 30720, Note_on_c, 8, 77, 0
1, 30720, Note_on_c, 8, 82, 0
1, 30720, Note_on_c, 0, 53, 0
1, 30720, Note_on_c, 0, 53, 88
1, 30720, Note_on_c, 0, 57, 92
1, 30720, Note_on_c, 0, 60, 90
1, 30720, Note_on_c, 1, 41, 104
1, 30720, Note_on_c, 8, 77, 92
1, 30720, Note_on_c, 8, 81, 101
1, 30720, Note_on_c, 8, 84, 106
1, 30720, Note_on_c, 9, 42, 117
1, 30720, Note_on_c, 9, 36, 127
1, 30914, Note_on_c, 9, 36, 0
1, 30949, Note_on_c, 9, 42, 0
1, 30960, Note_on_c, 9, 44, 77
1, 31130, Note_on_c, 9, 44, 0
1, 31200, Note_on_c, 9, 36, 126
1, 31204, Note_on_c, 9, 42, 117
1, 31434, Note_on_c, 9, 36, 0
1, 31438, Note_on_c, 9, 42, 0
1, 31440, Note_on_c, 9, 44, 77
1, 31617, Note_on_c, 9, 44, 0
1, 31680, Note_on_c, 2, 77, 88
1, 31680, Note_on_c, 2, 69, 80
1, 31680, Note_on_c, 2, 72, 98
1, 31680, Note_on_c, 9, 38, 83
1, 31684, Note_on_c, 9, 42, 117
1, 31815, Note_on_c, 2, 69, 0
1, 31843, Note_on_c, 2, 72, 0
1, 31879, Note_on_c, 9, 38, 0
1, 31879, Note_on_c, 2, 77, 0
1, 31882, Note_on_c, 9, 42, 0
1, 31920, Note_on_c, 1, 41, 0
1, 31920, Note_on_c, 9, 44, 77
1, 32092, Note_on_c, 9, 44, 0
1, 32164, Note_on_c, 9, 42, 117
1, 32364, Note_on_c, 9, 42, 0
1, 32400, Note_on_c, 1, 41, 109
1, 32400, Note_on_c, 2, 77, 84
1, 32400, Note_on_c, 2, 69, 88
1, 32400, Note_on_c, 2, 72, 98
1, 32400, Note_on_c, 9, 36, 127
1, 32402, Note_on_c, 9, 44, 76
1, 32524, Note_on_c, 2, 69, 0
1, 32527, Note_on_c, 2, 72, 0
1, 32540, Note_on_c, 9, 44, 0
1, 32551, Note_on_c, 2, 77, 0
1, 32592, Note_on_c, 9, 36, 0
1, 32629, Note_on_c, 1, 41, 0
1, 32644, Note_on_c, 9, 42, 117
1, 32825, Note_on_c, 9, 42, 0
1, 32880, Note_on_c, 1, 41, 88
1, 32880, Note_on_c, 2, 77, 82
1, 32880, Note_on_c, 2, 69, 80
1, 32880, Note_on_c, 2, 72, 90
1, 32880, Note_on_c, 9, 44, 76
1, 32880, Note_on_c, 9, 36, 82
1, 32959, Note_on_c, 2, 72, 0
1, 32969, Note_on_c, 2, 69, 0
1, 32972, Note_on_c, 1, 41, 0
1, 32976, Note_on_c, 9, 36, 0
1, 32986, Note_on_c, 2, 77, 0
1, 33039, Note_on_c, 9, 44, 0
1, 33120, Note_on_c, 1, 41, 98
1, 33120, Note_on_c, 2, 77, 84
1, 33120, Note_on_c, 2, 69, 84
1, 33120, Note_on_c, 2, 72, 98
1, 33120, Note_on_c, 9, 36, 127
1, 33120, Note_on_c, 9, 42, 117
1, 33303, Note_on_c, 9, 42, 0
1, 33314, Note_on_c, 9, 36, 0
1, 33360, Note_on_c, 9, 44, 76
1, 33487, Note_on_c, 9, 44, 0
1, 33600, Note_on_c, 9, 42, 117
1, 33600, Note_on_c, 9, 38, 83
1, 33608, Note_on_c, 1, 41, 0
1, 33779, Note_on_c, 9, 42, 0
1, 33816, Note_on_c, 9, 38, 0
1, 33840, Note_on_c, 9, 44, 77
1, 33990, Note_on_c, 9, 44, 0
1, 34065, Note_on_c, 2, 72, 0
1, 34080, Note_on_c, 1, 43, 98
1, 34080, Note_on_c, 9, 42, 117
1, 34094, Note_on_c, 2, 69, 0
1, 34122, Note_on_c, 2, 77, 0
1, 34263, Note_on_c, 9, 42, 0
1, 34272, Note_on_c, 1, 43, 0
1, 34320, Note_on_c, 9, 44, 78
1, 34461, Note_on_c, 9, 44, 0
1, 34560, Note_on_c, 8, 77, 0
1, 34560, Note_on_c, 8, 84, 0
1, 34560, Note_on_c, 0, 60, 0
1, 34560, Note_on_c, 0, 53, 0
1, 34560, Note_on_c, 0, 57, 0
1, 34560, Note_on_c, 8, 81, 0
1, 34560, Note_on_c, 0, 52, 86
1, 34560, Note_on_c, 0, 57, 82
1, 34560, Note_on_c, 0, 60, 80
1, 34560, Note_on_c, 1, 45, 104
1, 34560, Note_on_c, 8, 88, 95
1, 34560, Note_on_c, 8, 84, 92
1, 34560, Note_on_c, 8, 81, 88
1, 34560, Note_on_c, 9, 36, 127
1, 34560, Note_on_c, 9, 42, 117
1, 34748, Note_on_c, 9, 36, 0
1, 34789, Note_on_c, 9, 42, 0
1, 34800, Note_on_c, 9, 44, 77
1, 34970, Note_on_c, 9, 44, 0
1, 35040, Note_on_c, 9, 36, 126
1, 35044, Note_on_c, 9, 42, 117
1, 35214, Note_on_c, 9, 36, 0
1, 35278, Note_on_c, 9, 42, 0
1, 35280, Note_on_c, 9, 44, 77
1, 35457, Note_on_c, 9, 44, 0
1, 35520, Note_on_c, 2, 76, 92
1, 35520, Note_on_c, 2, 72, 98
1, 35520, Note_on_c, 2, 69, 88
1, 35520, Note_on_c, 9, 38, 84
1, 35524, Note_on_c, 9, 42, 117
1, 35657, Note_on_c, 2, 69, 0
1, 35670, Note_on_c, 2, 72, 0
1, 35700, Note_on_c, 2, 76, 0
1, 35707, Note_on_c, 9, 38, 0
1, 35722, Note_on_c, 9, 42, 0
1, 35760, Note_on_c, 1, 45, 0
1, 35760, Note_on_c, 9, 44, 77
1, 35932, Note_on_c, 9, 44, 0
1, 36004, Note_on_c, 9, 42, 117
1, 36204, Note_on_c, 9, 42, 0
1, 36240, Note_on_c, 1, 45, 98
1, 36240, Note_on_c, 2, 69, 80
1, 36240, Note_on_c, 2, 72, 84
1, 36240, Note_on_c, 2, 76, 73
1, 36240, Note_on_c, 9, 36, 125
1, 36242, Note_on_c, 9, 44, 76
1, 36367, Note_on_c, 2, 69, 0
1, 36372, Note_on_c, 2, 76, 0
1, 36374, Note_on_c, 2, 72, 0
1, 36380, Note_on_c, 9, 44, 0
1, 36399, Note_on_c, 9, 36, 0
1, 36437, Note_on_c, 1, 45, 0
1, 36484, Note_on_c, 9, 42, 117
1, 36665, Note_on_c, 9, 42, 0
1, 36720, Note_on_c, 1, 45, 84
1, 36720, Note_on_c, 9, 36, 81
1, 36720, Note_on_c, 9, 44, 76
1, 36722, Note_on_c, 2, 72, 88
1, 36722, Note_on_c, 2, 76, 74
1, 36722, Note_on_c, 2, 69, 68
1, 36805, Note_on_c, 2, 69, 0
1, 36805, Note_on_c, 2, 76, 0
1, 36806, Note_on_c, 2, 72, 0
1, 36809, Note_on_c, 1, 45, 0
1, 36819, Note_on_c, 9, 36, 0
1, 36879, Note_on_c, 9, 44, 0
1, 36960, Note_on_c, 1, 45, 88
1, 36960, Note_on_c, 9, 42, 117
1, 36960, Note_on_c, 9, 36, 125
1, 36962, Note_on_c, 2, 76, 95
1, 36962, Note_on_c, 2, 69, 95
1, 36962, Note_on_c, 2, 72, 90
1, 37100, Note_on_c, 9, 36, 0
1, 37143, Note_on_c, 9, 42, 0
1, 37200, Note_on_c, 9, 44, 76
1, 37327, Note_on_c, 9, 44, 0
1, 37440, Note_on_c, 9, 42, 117
1, 37440, Note_on_c, 9, 38, 86
1, 37506, Note_on_c, 1, 45, 0
1, 37603, Note_on_c, 9, 38, 0
1, 37619, Note_on_c, 9, 42, 0
1, 37680, Note_on_c, 9, 44, 77
1, 37830, Note_on_c, 9, 44, 0
1, 37894, Note_on_c, 2, 76, 0
1, 37894, Note_on_c, 2, 72, 0
1, 37898, Note_on_c, 2, 69, 0
1, 37920, Note_on_c, 1, 48, 109
1, 37920, Note_on_c, 9, 42, 117
1, 38102, Note_on_c, 1, 48, 0
1, 38103, Note_on_c, 9, 42, 0
1, 38160, Note_on_c, 9, 44, 78
1, 38301, Note_on_c, 9, 44, 0
1, 38400, Note_on_c, 8, 84, 0
1, 38400, Note_on_c, 8, 88, 0
1, 38400, Note_on_c, 8, 81, 0
1, 38400, Note_on_c, 0, 60, 0
1, 38400, Note_on_c, 0, 52, 0
1, 38400, Note_on_c, 0, 57, 0
1, 38400, Note_on_c, 0, 53, 86
1, 38400, Note_on_c, 0, 57, 86
1, 38400, Note_on_c, 0, 62, 84
1, 38400, Note_on_c, 1, 38, 98
1, 38400, Note_on_c, 8, 77, 104
1, 38400, Note_on_c, 8, 81, 88
1, 38400, Note_on_c, 8, 86, 80
1, 38400, Note_on_c, 9, 42, 117
1, 38400, Note_on_c, 9, 36, 127
1, 38594, Note_on_c, 9, 36, 0
1, 38629, Note_on_c, 9, 42, 0
1, 38640, Note_on_c, 9, 44, 77
1, 38810, Note_on_c, 9, 44, 0
1, 38880, Note_on_c, 9, 36, 126
1, 38884, Note_on_c, 9, 42, 117
1, 39114, Note_on_c, 9, 36, 0
1, 39118, Note_on_c, 9, 42, 0
1, 39120, Note_on_c, 9, 44, 77
1, 39297, Note_on_c, 9, 44, 0
1, 39360, Note_on_c, 9, 38, 83
1, 39362, Note_on_c, 2, 74, 88
1, 39362, Note_on_c, 2, 65, 80
1, 39362, Note_on_c, 2, 69, 106
1, 39364, Note_on_c, 9, 42, 117
1, 39518, Note_on_c, 2, 69, 0
1, 39531, Note_on_c, 2, 65, 0
1, 39559, Note_on_c, 9, 38, 0
1, 39562, Note_on_c, 9, 42, 0
1, 39575, Note_on_c, 2, 74, 0
1, 39600, Note_on_c, 1, 38, 0
1, 39600, Note_on_c, 9, 44, 77
1, 39772, Note_on_c, 9, 44, 0
1, 39844, Note_on_c, 9, 42, 117
1, 40044, Note_on_c, 9, 42, 0
1, 40080, Note_on_c, 1, 38, 92
1, 40080, Note_on_c, 2, 74, 90
1, 40080, Note_on_c, 2, 65, 95
1, 40080, Note_on_c, 9, 36, 127
1, 40082, Note_on_c, 2, 69, 106
1, 40082, Note_on_c, 9, 44, 76
1, 40196, Note_on_c, 2, 69, 0
1, 40199, Note_on_c, 2, 65, 0
1, 40220, Note_on_c, 9, 44, 0
1, 40223, Note_on_c, 2, 74, 0
1, 40255, Note_on_c, 1, 38, 0
1, 40272, Note_on_c, 9, 36, 0
1, 40324, Note_on_c, 9, 42, 117
1, 40505, Note_on_c, 9, 42, 0
1, 40560, Note_on_c, 1, 38, 84
1, 40560, Note_on_c, 2, 69, 98
1, 40560, Note_on_c, 9, 44, 76
1, 40560, Note_on_c, 9, 36, 82
1, 40562, Note_on_c, 2, 65, 84
1, 40562, Note_on_c, 2, 74, 74
1, 40643, Note_on_c, 2, 69, 0
1, 40646, Note_on_c, 2, 74, 0
1, 40649, Note_on_c, 2, 65, 0
1, 40656, Note_on_c, 9, 36, 0
1, 40681, Note_on_c, 1, 38, 0
1, 40719, Note_on_c, 9, 44, 0
1, 40800, Note_on_c, 1, 38, 98
1, 40800, Note_on_c, 9, 42, 117
1, 40800, Note_on_c, 9, 36, 127
1, 40802, Note_on_c, 2, 74, 101
1, 40802, Note_on_c, 2, 65, 92
1, 40802, Note_on_c, 2, 69, 104
1, 40983, Note_on_c, 9, 42, 0
1, 40994, Note_on_c, 9, 36, 0
1, 41040, Note_on_c, 9, 44, 76
1, 41167, Note_on_c, 9, 44, 0
1, 41280, Note_on_c, 9, 42, 117
1, 41280, Note_on_c, 9, 38, 83
1, 41294, Note_on_c, 1, 38, 0
1, 41459, Note_on_c, 9, 42, 0
1, 41496, Note_on_c, 9, 38, 0
1, 41520, Note_on_c, 9, 44, 77
1, 41670, Note_on_c, 9, 44, 0
1, 41705, Note_on_c, 2, 69, 0
1, 41721, Note_on_c, 2, 65, 0
1, 41735, Note_on_c, 2, 74, 0
1, 41760, Note_on_c, 1, 45, 98
1, 41760, Note_on_c, 9, 42, 117
1, 41939, Note_on_c, 1, 45, 0
1, 41943, Note_on_c, 9, 42, 0
1, 42000, Note_on_c, 9, 44, 78
1, 42141, Note_on_c, 9, 44, 0
1, 42240, Note_on_c, 8, 81, 0
1, 42240, Note_on_c, 0, 62, 0
1, 42240, Note_on_c, 0, 57, 0
1, 42240, Note_on_c, 8, 77, 0
1, 42240, Note_on_c, 0, 53, 0
1, 42240, Note_on_c, 8, 86, 0
1, 42240, Note_on_c, 0, 53, 88
1, 42240, Note_on_c, 0, 58, 98
1, 42240, Note_on_c, 0, 62, 82
1, 42240, Note_on_c, 1, 46, 101
1, 42240, Note_on_c, 8, 77, 90
1, 42240, Note_on_c, 8, 82, 101
1, 42240, Note_on_c, 8, 86, 80
1, 42240, Note_on_c, 9, 42, 117
1, 42240, Note_on_c, 9, 36, 127
1, 42428, Note_on_c, 9, 36, 0
1, 42469, Note_on_c, 9, 42, 0
1, 42480, Note_on_c, 9, 44, 77
1, 42650, Note_on_c, 9, 44, 0
1, 42720, Note_on_c, 9, 36, 126
1, 42724, Note_on_c, 9, 42, 117
1, 42894, Note_on_c, 9, 36, 0
1, 42958, Note_on_c, 9, 42, 0
1, 42960, Note_on_c, 9, 44, 77
1, 43137, Note_on_c, 9, 44, 0
1, 43200, Note_on_c, 9, 38, 84
1, 43202, Note_on_c, 2, 74, 82
1, 43202, Note_on_c, 2, 70, 101
1, 43202, Note_on_c, 2, 65, 92
1, 43204, Note_on_c, 9, 42, 117
1, 43362, Note_on_c, 2, 65, 0
1, 43387, Note_on_c, 9, 38, 0
1, 43390, Note_on_c, 2, 70, 0
1, 43402, Note_on_c, 9, 42, 0
1, 43415, Note_on_c, 2, 74, 0
1, 43440, Note_on_c, 1, 46, 0
1, 43440, Note_on_c, 9, 44, 77
1, 43612, Note_on_c, 9, 44, 0
1, 43684, Note_on_c, 9, 42, 117
1, 43884, Note_on_c, 9, 42, 0
1, 43920, Note_on_c, 1, 46, 117
1, 43920, Note_on_c, 2, 70, 101
1, 43920, Note_on_c, 2, 65, 82
1, 43920, Note_on_c, 2, 74, 67
1, 43920, Note_on_c, 9, 36, 125
1, 43922, Note_on_c, 9, 44, 76
1, 44043, Note_on_c, 2, 70, 0
1, 44045, Note_on_c, 2, 65, 0
1, 44048, Note_on_c, 2, 74, 0
1, 44060, Note_on_c, 9, 44, 0
1, 44079, Note_on_c, 9, 36, 0
1, 44089, Note_on_c, 1, 46, 0
1, 44164, Note_on_c, 9, 42, 117
1, 44345, Note_on_c, 9, 42, 0
1, 44400, Note_on_c, 1, 46, 92
1, 44400, Note_on_c, 2, 65, 80
1, 44400, Note_on_c, 2, 74, 80
1, 44400, Note_on_c, 2, 70, 109
1, 44400, Note_on_c, 9, 44, 76
1, 44400, Note_on_c, 9, 36, 81
1, 44474, Note_on_c, 1, 46, 0
1, 44476, Note_on_c, 2, 70, 0
1, 44499, Note_on_c, 9, 36, 0
1, 44500, Note_on_c, 2, 65, 0
1, 44503, Note_on_c, 2, 74, 0
1, 44559, Note_on_c, 9, 44, 0
1, 44640, Note_on_c, 1, 46, 101
1, 44640, Note_on_c, 2, 74, 104
1, 44640, Note_on_c, 2, 65, 98
1, 44640, Note_on_c, 2, 70, 117
1, 44640, Note_on_c, 9, 42, 117
1, 44640, Note_on_c, 9, 36, 125
1, 44780, Note_on_c, 9, 36, 0
1, 44823, Note_on_c, 9, 42, 0
1, 44880, Note_on_c, 9, 44, 76
1, 45007, Note_on_c, 9, 44, 0
1, 45120, Note_on_c, 9, 38, 86
1, 45120, Note_on_c, 9, 42, 117
1, 45153, Note_on_c, 1, 46, 0
1, 45283, Note_on_c, 9, 38, 0
1, 45299, Note_on_c, 9, 42, 0
1, 45360, Note_on_c, 9, 44, 77
1, 45510, Note_on_c, 9, 44, 0
1, 45600, Note_on_c, 1, 48, 98
1, 45600, Note_on_c, 9, 42, 117
1, 45626, Note_on_c, 2, 70, 0
1, 45640, Note_on_c, 2, 65, 0
1, 45692, Note_on_c, 2, 74, 0
1, 45783, Note_on_c, 9, 42, 0
1, 45840, Note_on_c, 1, 50, 92
1, 45840, Note_on_c, 9, 44, 78
1, 45849, Note_on_c, 1, 48, 0
1, 45981, Note_on_c, 9, 44, 0
1, 46032, Note_on_c, 1, 50, 0
1, 46065, Note_on_c, 8, 86, 0
1, 46076, Note_on_c, 0, 62, 0
1, 46080, Note_on_c, 8, 77, 0
1, 46080, Note_on_c, 0, 53, 0
1, 46080, Note_on_c, 8, 82, 0
1, 46080, Note_on_c, 0, 58, 0
1, 46080, Note_on_c, 0, 53, 88
1, 46080, Note_on_c, 0, 57, 92
1, 46080, Note_on_c, 0, 60, 90
1, 46080, Note_on_c, 1, 41, 104
1, 46080, Note_on_c, 8, 77, 92
1, 46080, Note_on_c, 8, 81, 101
1, 46080, Note_on_c, 8, 84, 106
1, 46080, Note_on_c, 9, 42, 117
1, 46080, Note_on_c, 9, 36, 127
1, 46274, Note_on_c, 9, 36, 0
1, 46309, Note_on_c, 9, 42, 0
1, 46320, Note_on_c, 9, 44, 77
1, 46490, Note_on_c, 9, 44, 0
1, 46560, Note_on_c, 9, 36, 126
1, 46564, Note_on_c, 9, 42, 117
1, 46794, Note_on_c, 9, 36, 0
1, 46798, Note_on_c, 9, 42, 0
1, 46800, Note_on_c, 9, 44, 77
1, 46977, Note_on_c, 9, 44, 0
1, 47040, Note_on_c, 2, 77, 88
1, 47040, Note_on_c, 2, 69, 80
1, 47040, Note_on_c, 2, 72, 98
1, 47040, Note_on_c, 9, 38, 83
1, 47044, Note_on_c, 9, 42, 117
1, 47175, Note_on_c, 2, 69, 0
1, 47203, Note_on_c, 2, 72, 0
1, 47239, Note_on_c, 9, 38, 0
1, 47239, Note_on_c, 2, 77, 0
1, 47242, Note_on_c, 9, 42, 0
1, 47280, Note_on_c, 1, 41, 0
1, 47280, Note_on_c, 9, 44, 77
1, 47452, Note_on_c, 9, 44, 0
1, 47524, Note_on_c, 9, 42, 117
1, 47724, Note_on_c, 9, 42, 0
1, 47760, Note_on_c, 1, 41, 109
1, 47760, Note_on_c, 2, 77, 84
1, 47760, Note_on_c, 2, 69, 88
1, 47760, Note_on_c, 2, 72, 98
1, 47760, Note_on_c, 9, 36, 127
1, 47762, Note_on_c, 9, 44, 76
1, 47884, Note_on_c, 2, 69, 0
1, 47887, Note_on_c, 2, 72, 0
1, 47900, Note_on_c, 9, 44, 0
1, 47911, Note_on_c, 2, 77, 0
1, 47952, Note_on_c, 9, 36, 0
1, 47989, Note_on_c, 1, 41, 0
1, 48004, Note_on_c, 9, 42, 117
1, 48185, Note_on_c, 9, 42, 0
1, 48240, Note_on_c, 1, 41, 88
1, 48240, Note_on_c, 2, 77, 82
1, 48240, Note_on_c, 2, 69, 80
1, 48240, Note_on_c, 2, 72, 90
1, 48240, Note_on_c, 9, 44, 76
1, 48240, Note_on_c, 9, 36, 82
1, 48319, Note_on_c, 2, 72, 0
1, 48329, Note_on_c, 2, 69, 0
1, 48332, Note_on_c, 1, 41, 0
1, 48336, Note_on_c, 9, 36, 0
1, 48346, Note_on_c, 2, 77, 0
1, 48399, Note_on_c, 9, 44, 0
1, 48480, Note_on_c, 1, 41, 98
1, 48480, Note_on_c, 2, 77, 84
1, 48480, Note_on_c, 2, 69, 84
1, 48480, Note_on_c, 2, 72, 98
1, 48480, Note_on_c, 9, 36, 127
1, 48480, Note_on_c, 9, 42, 117
1, 48663, Note_on_c, 9, 42, 0
1, 48674, Note_on_c, 9, 36, 0
1, 48720, Note_on_c, 9, 44, 76
1, 48847, Note_on_c, 9, 44, 0
1, 48960, Note_on_c, 9, 38, 83
1, 48960, Note_on_c, 9, 42, 117
1, 48968, Note_on_c, 1, 41, 0
1, 49139, Note_on_c, 9, 42, 0
1, 49176, Note_on_c, 9, 38, 0
1, 49200, Note_on_c, 9, 44, 77
1, 49350, Note_on_c, 9, 44, 0
1, 49425, Note_on_c, 2, 72, 0
1, 49440, Note_on_c, 1, 43, 98
1, 49440, Note_on_c, 9, 42, 117
1, 49454, Note_on_c, 2, 69, 0
1, 49482, Note_on_c, 2, 77, 0
1, 49623, Note_on_c, 9, 42, 0
1, 49632, Note_on_c, 1, 43, 0
1, 49680, Note_on_c, 9, 44, 78
1, 49821, Note_on_c, 9, 44, 0
1, 49920, Note_on_c, 8, 77, 0
1, 49920, Note_on_c, 8, 84, 0
1, 49920, Note_on_c, 0, 60, 0
1, 49920, Note_on_c, 0, 53, 0
1, 49920, Note_on_c, 0, 57, 0
1, 49920, Note_on_c, 8, 81, 0
1, 49920, Note_on_c, 0, 52, 86
1, 49920, Note_on_c, 0, 57, 82
1, 49920, Note_on_c, 0, 60, 80
1, 49920, Note_on_c, 1, 45, 104
1, 49920, Note_on_c, 8, 88, 95
1, 49920, Note_on_c, 8, 84, 92
1, 49920, Note_on_c, 8, 81, 88
1, 49920, Note_on_c, 9, 36, 127
1, 49920, Note_on_c, 9, 42, 117
1, 50108, Note_on_c, 9, 36, 0
1, 50149, Note_on_c, 9, 42, 0
1, 50160, Note_on_c, 9, 44, 77
1, 50330, Note_on_c, 9, 44, 0
1, 50400, Note_on_c, 9, 36, 126
1, 50404, Note_on_c, 9, 42, 117
1, 50574, Note_on_c, 9, 36, 0
1, 50638, Note_on_c, 9, 42, 0
1, 50640, Note_on_c, 9, 44, 77
1, 50817, Note_on_c, 9, 44, 0
1, 50880, Note_on_c, 2, 76, 92
1, 50880, Note_on_c, 2, 72, 98
1, 50880, Note_on_c, 2, 69, 88
1, 50880, Note_on_c, 9, 38, 84
1, 50884, Note_on_c, 9, 42, 117
1, 51017, Note_on_c, 2, 69, 0
1, 51030, Note_on_c, 2, 72, 0
1, 51060, Note_on_c, 2, 76, 0
1, 51067, Note_on_c, 9, 38, 0
1, 51082, Note_on_c, 9, 42, 0
1, 51120, Note_on_c, 1, 45, 0
1, 51120, Note_on_c, 9, 44, 77
1, 51292, Note_on_c, 9, 44, 0
1, 51364, Note_on_c, 9, 42, 117
1, 51564, Note_on_c, 9, 42, 0
1, 51600, Note_on_c, 1, 45, 98
1, 51600, Note_on_c, 2, 69, 80
1, 51600, Note_on_c, 2, 72, 84
1, 51600, Note_on_c, 2, 76, 73
1, 51600, Note_on_c, 9, 36, 125
1, 51602, Note_on_c, 9, 44, 76
1, 51727, Note_on_c, 2, 69, 0
1, 51732, Note_on_c, 2, 76, 0
1, 51734, Note_on_c, 2, 72, 0
1, 51740, Note_on_c, 9, 44, 0
1, 51759, Note_on_c, 9, 36, 0
1, 51797, Note_on_c, 1, 45, 0
1, 51844, Note_on_c, 9, 42, 117
1, 52025, Note_on_c, 9, 42, 0
1, 52080, Note_on_c, 1, 45, 84
1, 52080, Note_on_c, 9, 44, 76
1, 52080, Note_on_c, 9, 36, 81
1, 52082, Note_on_c, 2, 72, 88
1, 52082, Note_on_c, 2, 76, 74
1, 52082, Note_on_c, 2, 69, 68
1, 52165, Note_on_c, 2, 69, 0
1, 52165, Note_on_c, 2, 76, 0
1, 52166, Note_on_c, 2, 72, 0
1, 52169, Note_on_c, 1, 45, 0
1, 52179, Note_on_c, 9, 36, 0
1, 52239, Note_on_c, 9, 44, 0
1, 52320, Note_on_c, 1, 45, 88
1, 52320, Note_on_c, 9, 42, 117
1, 52320, Note_on_c, 9, 36, 125
1, 52322, Note_on_c, 2, 76, 95
1, 52322, Note_on_c, 2, 69, 95
1, 52322, Note_on_c, 2, 72, 90
1, 52460, Note_on_c, 9, 36, 0
1, 52503, Note_on_c, 9, 42, 0
1, 52560, Note_on_c, 9, 44, 76
1, 52687, Note_on_c, 9, 44, 0
1, 52800, Note_on_c, 9, 38, 86
1, 52800, Note_on_c, 9, 42, 117
1, 52866, Note_on_c, 1, 45, 0
1, 52963, Note_on_c, 9, 38, 0
1, 52979, Note_on_c, 9, 42, 0
1, 53040, Note_on_c, 9, 44, 77
1, 53190, Note_on_c, 9, 44, 0
1, 53254, Note_on_c, 2, 76, 0
1, 53254, Note_on_c, 2, 72, 0
1, 53258, Note_on_c, 2, 69, 0
1, 53280, Note_on_c, 1, 48, 109
1, 53280, Note_on_c, 9, 42, 117
1, 53462, Note_on_c, 1, 48, 0
1, 53463, Note_on_c, 9, 42, 0
1, 53520, Note_on_c, 9, 44, 78
1, 53661, Note_on_c, 9, 44, 0
1, 53760, Note_on_c, 8, 84, 0
1, 53760, Note_on_c, 8, 88, 0
1, 53760, Note_on_c, 8, 81, 0
1, 53760, Note_on_c, 0, 60, 0
1, 53760, Note_on_c, 0, 52, 0
1, 53760, Note_on_c, 0, 57, 0
1, 53760, Note_on_c, 0, 53, 86
1, 53760, Note_on_c, 0, 57, 86
1, 53760, Note_on_c, 0, 62, 84
1, 53760, Note_on_c, 1, 38, 98
1, 53760, Note_on_c, 8, 77, 104
1, 53760, Note_on_c, 8, 81, 88
1, 53760, Note_on_c, 8, 86, 80
1, 53760, Note_on_c, 9, 42, 117
1, 53760, Note_on_c, 9, 36, 127
1, 53954, Note_on_c, 9, 36, 0
1, 53989, Note_on_c, 9, 42, 0
1, 54000, Note_on_c, 9, 44, 77
1, 54170, Note_on_c, 9, 44, 0
1, 54240, Note_on_c, 9, 36, 126
1, 54244, Note_on_c, 9, 42, 117
1, 54474, Note_on_c, 9, 36, 0
1, 54478, Note_on_c, 9, 42, 0
1, 54480, Note_on_c, 9, 44, 77
1, 54657, Note_on_c, 9, 44, 0
1, 54720, Note_on_c, 9, 38, 83
1, 54722, Note_on_c, 2, 74, 88
1, 54722, Note_on_c, 2, 65, 80
1, 54722, Note_on_c, 2, 69, 106
1, 54724, Note_on_c, 9, 42, 117
1, 54878, Note_on_c, 2, 69, 0
1, 54891, Note_on_c, 2, 65, 0
1, 54919, Note_on_c, 9, 38, 0
1, 54922, Note_on_c, 9, 42, 0
1, 54935, Note_on_c, 2, 74, 0
1, 54960, Note_on_c, 1, 38, 0
1, 54960, Note_on_c, 9, 44, 77
1, 55132, Note_on_c, 9, 44, 0
1, 55204, Note_on_c, 9, 42, 117
1, 55404, Note_on_c, 9, 42, 0
1, 55440, Note_on_c, 1, 38, 92
1, 55440, Note_on_c, 2, 74, 90
1, 55440, Note_on_c, 2, 65, 95
1, 55440, Note_on_c, 9, 36, 127
1, 55442, Note_on_c, 2, 69, 106
1, 55442, Note_on_c, 9, 44, 76
1, 55556, Note_on_c, 2, 69, 0
1, 55559, Note_on_c, 2, 65, 0
1, 55580, Note_on_c, 9, 44, 0
1, 55583, Note_on_c, 2, 74, 0
1, 55615, Note_on_c, 1, 38, 0
1, 55632, Note_on_c, 9, 36, 0
1, 55684, Note_on_c, 9, 42, 117
1, 55865, Note_on_c, 9, 42, 0
1, 55920, Note_on_c, 1, 38, 84
1, 55920, Note_on_c, 2, 69, 98
1, 55920, Note_on_c, 9, 36, 82
1, 55920, Note_on_c, 9, 44, 76
1, 55922, Note_on_c, 2, 65, 84
1, 55922, Note_on_c, 2, 74, 74
1, 56003, Note_on_c, 2, 69, 0
1, 56006, Note_on_c, 2, 74, 0
1, 56009, Note_on_c, 2, 65, 0
1, 56016, Note_on_c, 9, 36, 0
1, 56041, Note_on_c, 1, 38, 0
1, 56079, Note_on_c, 9, 44, 0
1, 56160, Note_on_c, 1, 38, 98
1, 56160, Note_on_c, 9, 36, 127
1, 56160, Note_on_c, 9, 42, 117
1, 56162, Note_on_c, 2, 74, 101
1, 56162, Note_on_c, 2, 65, 92
1, 56162, Note_on_c, 2, 69, 104
1, 56343, Note_on_c, 9, 42, 0
1, 56354, Note_on_c, 9, 36, 0
1, 56400, Note_on_c, 9, 44, 76
1, 56527, Note_on_c, 9, 44, 0
1, 56640, Note_on_c, 9, 42, 117
1, 56640, Note_on_c, 9, 38, 83
1, 56654, Note_on_c, 1, 38, 0
1, 56819, Note_on_c, 9, 42, 0
1, 56856, Note_on_c, 9, 38, 0
1, 56880, Note_on_c, 9, 44, 77
1, 57030, Note_on_c, 9, 44, 0
1, 57065, Note_on_c, 2, 69, 0
1, 57081, Note_on_c, 2, 65, 0
1, 57095, Note_on_c, 2, 74, 0
1, 57120, Note_on_c, 1, 45, 98
1, 57120, Note_on_c, 9, 42, 117
1, 57299, Note_on_c, 1, 45, 0
1, 57303, Note_on_c, 9, 42, 0
1, 57360, Note_on_c, 9, 44, 78
1, 57501, Note_on_c, 9, 44, 0
1, 57600, Note_on_c, 8, 81, 0
1, 57600, Note_on_c, 0, 62, 0
1, 57600, Note_on_c, 0, 57, 0
1, 57600, Note_on_c, 0, 53, 0
1, 57600, Note_on_c, 8, 77, 0
1, 57600, Note_on_c, 8, 86, 0
1, 57600, Note_on_c, 9, 42, 117
1, 57600, Note_on_c, 9, 36, 127
1, 57788, Note_on_c, 9, 36, 0
1, 57829, Note_on_c, 9, 42, 0
1, 57840, Note_on_c, 9, 44, 77
1, 58010, Note_on_c, 9, 44, 0
1, 58080, Note_on_c, 9, 36, 126
1, 58084, Note_on_c, 9, 42, 117
1, 58254, Note_on_c, 9, 36, 0
1, 58318, Note_on_c, 9, 42, 0
1, 58320, Note_on_c, 9, 44, 77
1, 58497, Note_on_c, 9, 44, 0
1, 58560, Note_on_c, 9, 38, 84
1, 58564, Note_on_c, 9, 42, 117
1, 58747, Note_on_c, 9, 38, 0
1, 58762, Note_on_c, 9, 42, 0
1, 58800, Note_on_c, 9, 44, 77
1, 58972, Note_on_c, 9, 44, 0
1, 59044, Note_on_c, 9, 42, 117
1, 59244, Note_on_c, 9, 42, 0
1, 59280, Note_on_c, 9, 36, 125
1, 59282, Note_on_c, 9, 44, 76
1, 59420, Note_on_c, 9, 44, 0
1, 59439, Note_on_c, 9, 36, 0
1, 59524, Note_on_c, 9, 42, 117
1, 59705, Note_on_c, 9, 42, 0
1, 59760, Note_on_c, 9, 44, 76
1, 59760, Note_on_c, 9, 36, 81
1, 59859, Note_on_c, 9, 36, 0
1, 59919, Note_on_c, 9, 44, 0
1, 60000, Note_on_c, 9, 42, 117
1, 60000, Note_on_c, 9, 36, 125
1, 60140, Note_on_c, 9, 36, 0
1, 60183, Note_on_c, 9, 42, 0
1, 60240, Note_on_c, 9, 44, 76
1, 60367, Note_on_c, 9, 44, 0
1, 60480, Note_on_c, 9, 38, 86
1, 60480, Note_on_c, 9, 42, 117
1, 60480, Note_on_c, 10, 53, 109
1, 60643, Note_on_c, 9, 38, 0
1, 60659, Note_on_c, 9, 42, 0
1, 60720, Note_on_c, 9, 44, 77
1, 60870, Note_on_c, 9, 44, 0
1, 60960, Note_on_c, 9, 42, 117
1, 61143, Note_on_c, 9, 42, 0
1, 61200, Note_on_c, 9, 44, 78
1, 61341, Note_on_c, 9, 44, 0
1, 61440, Marker_t, "cho"
1, 61440, Note_on_c, 0, 53, 88
1, 61440, Note_on_c, 0, 57, 92
1, 61440, Note_on_c, 0, 60, 90
1, 61440, Note_on_c, 1, 41, 104
1, 61440, Note_on_c, 3, 53, 88
1, 61440, Note_on_c, 3, 57, 92
1, 61440, Note_on_c, 3, 60, 90
1, 61440, Note_on_c, 7, 53, 88
1, 61440, Note_on_c, 7, 57, 92
1, 61440, Note_on_c, 7, 60, 90
1, 61440, Note_on_c, 8, 77, 92
1, 61440, Note_on_c, 8, 81, 101
1, 61440, Note_on_c, 8, 84, 106
1, 61440, Note_on_c, 9, 36, 127
1, 61440, Note_on_c, 9, 42, 117
1, 61440, Note_on_c, 9, 53, 68
1, 61634, Note_on_c, 9, 36, 0
1, 61669, Note_on_c, 9, 42, 0
1, 61680, Note_on_c, 9, 44, 77
1, 61744, Note_on_c, 9, 53, 0
1, 61788, Note_on_c, 10, 53, 0
1, 61850, Note_on_c, 9, 44, 0
1, 61920, Note_on_c, 9, 36, 126
1, 61924, Note_on_c, 9, 42, 117
1, 62154, Note_on_c, 9, 36, 0
1, 62158, Note_on_c, 9, 42, 0
1, 62160, Note_on_c, 9, 44, 77
1, 62337, Note_on_c, 9, 44, 0
1, 62400, Note_on_c, 2, 77, 88
1, 62400, Note_on_c, 2, 69, 80
1, 62400, Note_on_c, 2, 72, 98
1, 62400, Note_on_c, 9, 38, 83
1, 62400, Note_on_c, 9, 53, 70
1, 62404, Note_on_c, 9, 42, 117
1, 62535, Note_on_c, 2, 69, 0
1, 62563, Note_on_c, 2, 72, 0
1, 62599, Note_on_c, 9, 38, 0
1, 62599, Note_on_c, 2, 77, 0
1, 62602, Note_on_c, 9, 42, 0
1, 62640, Note_on_c, 1, 41, 0
1, 62640, Note_on_c, 9, 44, 77
1, 62670, Note_on_c, 9, 53, 0
1, 62812, Note_on_c, 9, 44, 0
1, 62884, Note_on_c, 9, 42, 117
1, 63084, Note_on_c, 9, 42, 0
1, 63120, Note_on_c, 1, 41, 109
1, 63120, Note_on_c, 2, 77, 84
1, 63120, Note_on_c, 2, 69, 88
1, 63120, Note_on_c, 2, 72, 98
1, 63120, Note_on_c, 9, 36, 127
1, 63122, Note_on_c, 9, 44, 76
1, 63244, Note_on_c, 2, 69, 0
1, 63247, Note_on_c, 2, 72, 0
1, 63260, Note_on_c, 9, 44, 0
1, 63271, Note_on_c, 2, 77, 0
1, 63312, Note_on_c, 9, 36, 0
1, 63349, Note_on_c, 1, 41, 0
1, 63360, Note_on_c, 9, 53, 70
1, 63364, Note_on_c, 9, 42, 117
1, 63545, Note_on_c, 9, 42, 0
1, 63579, Note_on_c, 9, 53, 0
1, 63600, Note_on_c, 1, 41, 88
1, 63600, Note_on_c, 2, 77, 82
1, 63600, Note_on_c, 2, 69, 80
1, 63600, Note_on_c, 2, 72, 90
1, 63600, Note_on_c, 9, 36, 82
1, 63600, Note_on_c, 9, 44, 76
1, 63679, Note_on_c, 2, 72, 0
1, 63689, Note_on_c, 2, 69, 0
1, 63692, Note_on_c, 1, 41, 0
1, 63696, Note_on_c, 9, 36, 0
1, 63706, Note_on_c, 2, 77, 0
1, 63759, Note_on_c, 9, 44, 0
1, 63840, Note_on_c, 1, 41, 98
1, 63840, Note_on_c, 2, 77, 84
1, 63840, Note_on_c, 2, 69, 84
1, 63840, Note_on_c, 2, 72, 98
1, 63840, Note_on_c, 9, 42, 117
1, 63840, Note_on_c, 9, 36, 127
1, 64023, Note_on_c, 9, 42, 0
1, 64034, Note_on_c, 9, 36, 0
1, 64080, Note_on_c, 9, 44, 76
1, 64207, Note_on_c, 9, 44, 0
1, 64320, Note_on_c, 9, 42, 117
1, 64320, Note_on_c, 9, 53, 70
1, 64320, Note_on_c, 9, 38, 83
1, 64328, Note_on_c, 1, 41, 0
1, 64499, Note_on_c, 9, 42, 0
1, 64536, Note_on_c, 9, 38, 0
1, 64560, Note_on_c, 9, 44, 77
1, 64599, Note_on_c, 9, 53, 0
1, 64710, Note_on_c, 9, 44, 0
1, 64785, Note_on_c, 2, 72, 0
1, 64800, Note_on_c, 1, 43, 98
1, 64800, Note_on_c, 9, 42, 117
1, 64814, Note_on_c, 2, 69, 0
1, 64842, Note_on_c, 2, 77, 0
1, 64983, Note_on_c, 9, 42, 0
1, 64992, Note_on_c, 1, 43, 0
1, 65040, Note_on_c, 9, 44, 78
1, 65181, Note_on_c, 9, 44, 0
1, 65280, Note_on_c, 3, 57, 0
1, 65280, Note_on_c, 0, 57, 0
1, 65280, Note_on_c, 7, 57, 0
1, 65280, Note_on_c, 0, 60, 0
1, 65280, Note_on_c, 3, 60, 0
1, 65280, Note_on_c, 8, 81, 0
1, 65280, Note_on_c, 8, 84, 0
1, 65280, Note_on_c, 0, 53, 0
1, 65280, Note_on_c, 7, 60, 0
1, 65280, Note_on_c, 8, 77, 0
1, 65280, Note_on_c, 3, 53, 0
1, 65280, Note_on_c, 7, 53, 0
1, 65280, Note_on_c, 0, 52, 86
1, 65280, Note_on_c, 0, 57, 82
1, 65280, Note_on_c, 0, 60, 80
1, 65280, Note_on_c, 1, 45, 104
1, 65280, Note_on_c, 3, 52, 86
1, 65280, Note_on_c, 3, 57, 82
1, 65280, Note_on_c, 3, 60, 80
1, 65280, Note_on_c, 7, 52, 86
1, 65280, Note_on_c, 7, 57, 82
1, 65280, Note_on_c, 7, 60, 80
1, 65280, Note_on_c, 8, 88, 95
1, 65280, Note_on_c, 8, 84, 92
1, 65280, Note_on_c, 8, 81, 88
1, 65280, Note_on_c, 9, 36, 127
1, 65280, Note_on_c, 9, 53, 70
1, 65280, Note_on_c, 9, 42, 117
1, 65468, Note_on_c, 9, 36, 0
1, 65509, Note_on_c, 9, 42, 0
1, 65520, Note_on_c, 9, 44, 77
1, 65537, Note_on_c, 9, 53, 0
1, 65690, Note_on_c, 9, 44, 0
1, 65760, Note_on_c, 9, 36, 126
1, 65764, Note_on_c, 9, 42, 117
1, 65934, Note_on_c, 9, 36, 0
1, 65998, Note_on_c, 9, 42, 0
1, 66000, Note_on_c, 9, 44, 77
1, 66177, Note_on_c, 9, 44, 0
1, 66240, Note_on_c, 2, 76, 92
1, 66240, Note_on_c, 2, 72, 98
1, 66240, Note_on_c, 2, 69, 88
1, 66240, Note_on_c, 9, 38, 84
1, 66240, Note_on_c, 9, 53, 68
1, 66244, Note_on_c, 9, 42, 117
1, 66377, Note_on_c, 2, 69, 0
1, 66390, Note_on_c, 2, 72, 0
1, 66420, Note_on_c, 2, 76, 0
1, 66427, Note_on_c, 9, 38, 0
1, 66442, Note_on_c, 9, 42, 0
1, 66480, Note_on_c, 1, 45, 0
1, 66480, Note_on_c, 9, 44, 77
1, 66505, Note_on_c, 9, 53, 0
1, 66652, Note_on_c, 9, 44, 0
1, 66724, Note_on_c, 9, 42, 117
1, 66924, Note_on_c, 9, 42, 0
1, 66960, Note_on_c, 1, 45, 98
1, 66960, Note_on_c, 2, 69, 80
1, 66960, Note_on_c, 2, 72, 84
1, 66960, Note_on_c, 2, 76, 73
1, 66960, Note_on_c, 9, 36, 125
1, 66962, Note_on_c, 9, 44, 76
1, 67087, Note_on_c, 2, 69, 0
1, 67092, Note_on_c, 2, 76, 0
1, 67094, Note_on_c, 2, 72, 0
1, 67100, Note_on_c, 9, 44, 0
1, 67119, Note_on_c, 9, 36, 0
1, 67157, Note_on_c, 1, 45, 0
1, 67200, Note_on_c, 9, 53, 68
1, 67204, Note_on_c, 9, 42, 117
1, 67385, Note_on_c, 9, 42, 0
1, 67440, Note_on_c, 1, 45, 84
1, 67440, Note_on_c, 9, 36, 81
1, 67440, Note_on_c, 9, 44, 76
1, 67442, Note_on_c, 2, 72, 88
1, 67442, Note_on_c, 2, 76, 74
1, 67442, Note_on_c, 2, 69, 68
1, 67456, Note_on_c, 9, 53, 0
1, 67525, Note_on_c, 2, 69, 0
1, 67525, Note_on_c, 2, 76, 0
1, 67526, Note_on_c, 2, 72, 0
1, 67529, Note_on_c, 1, 45, 0
1, 67539, Note_on_c, 9, 36, 0
1, 67599, Note_on_c, 9, 44, 0
1, 67680, Note_on_c, 1, 45, 88
1, 67680, Note_on_c, 9, 42, 117
1, 67680, Note_on_c, 9, 36, 125
1, 67682, Note_on_c, 2, 76, 95
1, 67682, Note_on_c, 2, 69, 95
1, 67682, Note_on_c, 2, 72, 90
1, 67820, Note_on_c, 9, 36, 0
1, 67863, Note_on_c, 9, 42, 0
1, 67920, Note_on_c, 9, 44, 76
1, 68047, Note_on_c, 9, 44, 0
1, 68160, Note_on_c, 9, 53, 69
1, 68160, Note_on_c, 9, 42, 117
1, 68160, Note_on_c, 9, 38, 86
1, 68226, Note_on_c, 1, 45, 0
1, 68323, Note_on_c, 9, 38, 0
1, 68339, Note_on_c, 9, 42, 0
1, 68400, Note_on_c, 9, 44, 77
1, 68436, Note_on_c, 9, 53, 0
1, 68550, Note_on_c, 9, 44, 0
1, 68614, Note_on_c, 2, 76, 0
1, 68614, Note_on_c, 2, 72, 0
1, 68618, Note_on_c, 2, 69, 0
1, 68640, Note_on_c, 1, 48, 109
1, 68640, Note_on_c, 9, 42, 117
1, 68822, Note_on_c, 1, 48, 0
1, 68823, Note_on_c, 9, 42, 0
1, 68880, Note_on_c, 9, 44, 78
1, 69021, Note_on_c, 9, 44, 0
1, 69120, Note_on_c, 0, 52, 0
1, 69120, Note_on_c, 0, 57, 0
1, 69120, Note_on_c, 7, 57, 0
1, 69120, Note_on_c, 0, 60, 0
1, 69120, Note_on_c, 3, 52, 0
1, 69120, Note_on_c, 8, 84, 0
1, 69120, Note_on_c, 3, 57, 0
1, 69120, Note_on_c, 8, 88, 0
1, 69120, Note_on_c, 7, 60, 0
1, 69120, Note_on_c, 3, 60, 0
1, 69120, Note_on_c, 7, 52, 0
1, 69120, Note_on_c, 8, 81, 0
1, 69120, Note_on_c, 0, 53, 86
1, 69120, Note_on_c, 0, 57, 86
1, 69120, Note_on_c, 0, 62, 84
1, 69120, Note_on_c, 1, 38, 98
1, 69120, Note_on_c, 3, 53, 86
1, 69120, Note_on_c, 3, 57, 86
1, 69120, Note_on_c, 3, 62, 84
1, 69120, Note_on_c, 7, 53, 86
1, 69120, Note_on_c, 7, 57, 86
1, 69120, Note_on_c, 7, 62, 84
1, 69120, Note_on_c, 8, 77, 104
1, 69120, Note_on_c, 8, 81, 88
1, 69120, Note_on_c, 8, 86, 80
1, 69120, Note_on_c, 9, 36, 127
1, 69120, Note_on_c, 9, 42, 117
1, 69120, Note_on_c, 9, 53, 69
1, 69314, Note_on_c, 9, 36, 0
1, 69349, Note_on_c, 9, 42, 0
1, 69360, Note_on_c, 9, 44, 77
1, 69367, Note_on_c, 9, 53, 0
1, 69530, Note_on_c, 9, 44, 0
1, 69600, Note_on_c, 9, 36, 126
1, 69604, Note_on_c, 9, 42, 117
1, 69834, Note_on_c, 9, 36, 0
1, 69838, Note_on_c, 9, 42, 0
1, 69840, Note_on_c, 9, 44, 77
1, 70017, Note_on_c, 9, 44, 0
1, 70080, Note_on_c, 9, 53, 67
1, 70080, Note_on_c, 9, 38, 83
1, 70082, Note_on_c, 2, 74, 88
1, 70082, Note_on_c, 2, 65, 80
1, 70082, Note_on_c, 2, 69, 106
1, 70084, Note_on_c, 9, 42, 117
1, 70238, Note_on_c, 2, 69, 0
1, 70251, Note_on_c, 2, 65, 0
1, 70279, Note_on_c, 9, 38, 0
1, 70282, Note_on_c, 9, 42, 0
1, 70295, Note_on_c, 2, 74, 0
1, 70320, Note_on_c, 1, 38, 0
1, 70320, Note_on_c, 9, 44, 77
1, 70341, Note_on_c, 9, 53, 0
1, 70492, Note_on_c, 9, 44, 0
1, 70564, Note_on_c, 9, 42, 117
1, 70764, Note_on_c, 9, 42, 0
1, 70800, Note_on_c, 1, 38, 92
1, 70800, Note_on_c, 2, 74, 90
1, 70800, Note_on_c, 2, 65, 95
1, 70800, Note_on_c, 9, 36, 127
1, 70802, Note_on_c, 2, 69, 106
1, 70802, Note_on_c, 9, 44, 76
1, 70916, Note_on_c, 2, 69, 0
1, 70919, Note_on_c, 2, 65, 0
1, 70940, Note_on_c, 9, 44, 0
1, 70943, Note_on_c, 2, 74, 0
1, 70975, Note_on_c, 1, 38, 0
1, 70992, Note_on_c, 9, 36, 0
1, 71040, Note_on_c, 9, 53, 71
1, 71044, Note_on_c, 9, 42, 117
1, 71225, Note_on_c, 9, 42, 0
1, 71280, Note_on_c, 1, 38, 84
1, 71280, Note_on_c, 2, 69, 98
1, 71280, Note_on_c, 9, 36, 82
1, 71280, Note_on_c, 9, 44, 76
1, 71282, Note_on_c, 2, 65, 84
1, 71282, Note_on_c, 2, 74, 74
1, 71326, Note_on_c, 9, 53, 0
1, 71363, Note_on_c, 2, 69, 0
1, 71366, Note_on_c, 2, 74, 0
1, 71369, Note_on_c, 2, 65, 0
1, 71376, Note_on_c, 9, 36, 0
1, 71401, Note_on_c, 1, 38, 0
1, 71439, Note_on_c, 9, 44, 0
1, 71520, Note_on_c, 1, 38, 98
1, 71520, Note_on_c, 9, 36, 127
1, 71520, Note_on_c, 9, 42, 117
1, 71522, Note_on_c, 2, 74, 101
1, 71522, Note_on_c, 2, 65, 92
1, 71522, Note_on_c, 2, 69, 104
1, 71703, Note_on_c, 9, 42, 0
1, 71714, Note_on_c, 9, 36, 0
1, 71760, Note_on_c, 9, 44, 76
1, 71887, Note_on_c, 9, 44, 0
1, 72000, Note_on_c, 9, 53, 72
1, 72000, Note_on_c, 9, 42, 117
1, 72000, Note_on_c, 9, 38, 83
1, 72014, Note_on_c, 1, 38, 0
1, 72179, Note_on_c, 9, 42, 0
1, 72216, Note_on_c, 9, 38, 0
1, 72240, Note_on_c, 9, 44, 77
1, 72362, Note_on_c, 9, 53, 0
1, 72390, Note_on_c, 9, 44, 0
1, 72425, Note_on_c, 2, 69, 0
1, 72441, Note_on_c, 2, 65, 0
1, 72455, Note_on_c, 2, 74, 0
1, 72480, Note_on_c, 1, 45, 98
1, 72480, Note_on_c, 9, 42, 117
1, 72659, Note_on_c, 1, 45, 0
1, 72663, Note_on_c, 9, 42, 0
1, 72720, Note_on_c, 9, 44, 78
1, 72861, Note_on_c, 9, 44, 0
1, 72960, Note_on_c, 8, 77, 0
1, 72960, Note_on_c, 0, 57, 0
1, 72960, Note_on_c, 7, 57, 0
1, 72960, Note_on_c, 0, 62, 0
1, 72960, Note_on_c, 0, 53, 0
1, 72960, Note_on_c, 7, 53, 0
1, 72960, Note_on_c, 8, 81, 0
1, 72960, Note_on_c, 3, 53, 0
1, 72960, Note_on_c, 7, 62, 0
1, 72960, Note_on_c, 3, 62, 0
1, 72960, Note_on_c, 3, 57, 0
1, 72960, Note_on_c, 8, 86, 0
1, 72960, Note_on_c, 0, 53, 88
1, 72960, Note_on_c, 0, 58, 98
1, 72960, Note_on_c, 0, 62, 82
1, 72960, Note_on_c, 1, 46, 101
1, 72960, Note_on_c, 3, 53, 88
1, 72960, Note_on_c, 3, 58, 98
1, 72960, Note_on_c, 3, 62, 82
1, 72960, Note_on_c, 7, 53, 88
1, 72960, Note_on_c, 7, 58, 98
1, 72960, Note_on_c, 7, 62, 82
1, 72960, Note_on_c, 8, 77, 90
1, 72960, Note_on_c, 8, 82, 101
1, 72960, Note_on_c, 8, 86, 80
1, 72960, Note_on_c, 9, 36, 127
1, 72960, Note_on_c, 9, 42, 117
1, 72960, Note_on_c, 9, 53, 70
1, 73148, Note_on_c, 9, 36, 0
1, 73189, Note_on_c, 9, 42, 0
1, 73200, Note_on_c, 9, 44, 77
1, 73289, Note_on_c, 9, 53, 0
1, 73370, Note_on_c, 9, 44, 0
1, 73440, Note_on_c, 9, 36, 126
1, 73444, Note_on_c, 9, 42, 117
1, 73614, Note_on_c, 9, 36, 0
1, 73678, Note_on_c, 9, 42, 0
1, 73680, Note_on_c, 9, 44, 77
1, 73857, Note_on_c, 9, 44, 0
1, 73920, Note_on_c, 9, 38, 84
1, 73920, Note_on_c, 9, 53, 71
1, 73922, Note_on_c, 2, 74, 82
1, 73922, Note_on_c, 2, 70, 101
1, 73922, Note_on_c, 2, 65, 92
1, 73924, Note_on_c, 9, 42, 117
1, 74082, Note_on_c, 2, 65, 0
1, 74107, Note_on_c, 9, 38, 0
1, 74110, Note_on_c, 2, 70, 0
1, 74122, Note_on_c, 9, 42, 0
1, 74135, Note_on_c, 2, 74, 0
1, 74160, Note_on_c, 1, 46, 0
1, 74160, Note_on_c, 9, 44, 77
1, 74219, Note_on_c, 9, 53, 0
1, 74332, Note_on_c, 9, 44, 0
1, 74404, Note_on_c, 9, 42, 117
1, 74604, Note_on_c, 9, 42, 0
1, 74640, Note_on_c, 1, 46, 117
1, 74640, Note_on_c, 2, 70, 101
1, 74640, Note_on_c, 2, 65, 82
1, 74640, Note_on_c, 2, 74, 67
1, 74640, Note_on_c, 9, 36, 125
1, 74642, Note_on_c, 9, 44, 76
1, 74763, Note_on_c, 2, 70, 0
1, 74765, Note_on_c, 2, 65, 0
1, 74768, Note_on_c, 2, 74, 0
1, 74780, Note_on_c, 9, 44, 0
1, 74799, Note_on_c, 9, 36, 0
1, 74809, Note_on_c, 1, 46, 0
1, 74880, Note_on_c, 9, 53, 71
1, 74884, Note_on_c, 9, 42, 117
1, 75065, Note_on_c, 9, 42, 0
1, 75120, Note_on_c, 1, 46, 92
1, 75120, Note_on_c, 2, 65, 80
1, 75120, Note_on_c, 2, 74, 80
1, 75120, Note_on_c, 2, 70, 109
1, 75120, Note_on_c, 9, 36, 81
1, 75120, Note_on_c, 9, 44, 76
1, 75169, Note_on_c, 9, 53, 0
1, 75194, Note_on_c, 1, 46, 0
1, 75196, Note_on_c, 2, 70, 0
1, 75219, Note_on_c, 9, 36, 0
1, 75220, Note_on_c, 2, 65, 0
1, 75223, Note_on_c, 2, 74, 0
1, 75279, Note_on_c, 9, 44, 0
1, 75360, Note_on_c, 1, 46, 101
1, 75360, Note_on_c, 2, 74, 104
1, 75360, Note_on_c, 2, 65, 98
1, 75360, Note_on_c, 2, 70, 117
1, 75360, Note_on_c, 9, 36, 125
1, 75360, Note_on_c, 9, 42, 117
1, 75500, Note_on_c, 9, 36, 0
1, 75543, Note_on_c, 9, 42, 0
1, 75600, Note_on_c, 9, 44, 76
1, 75727, Note_on_c, 9, 44, 0
1, 75840, Note_on_c, 9, 42, 117
1, 75840, Note_on_c, 9, 38, 86
1, 75840, Note_on_c, 9, 53, 74
1, 75873, Note_on_c, 1, 46, 0
1, 76003, Note_on_c, 9, 38, 0
1, 76019, Note_on_c, 9, 42, 0
1, 76080, Note_on_c, 9, 53, 0
1, 76080, Note_on_c, 9, 44, 77
1, 76230, Note_on_c, 9, 44, 0
1, 76320, Note_on_c, 1, 48, 98
1, 76320, Note_on_c, 9, 42, 117
1, 76346, Note_on_c, 2, 70, 0
1, 76360, Note_on_c, 2, 65, 0
1, 76412, Note_on_c, 2, 74, 0
1, 76503, Note_on_c, 9, 42, 0
1, 76560, Note_on_c, 1, 50, 92
1, 76560, Note_on_c, 9, 44, 78
1, 76569, Note_on_c, 1, 48, 0
1, 76701, Note_on_c, 9, 44, 0
1, 76752, Note_on_c, 1, 50, 0
1, 76785, Note_on_c, 8, 86, 0
1, 76796, Note_on_c, 7, 62, 0
1, 76796, Note_on_c, 0, 62, 0
1, 76796, Note_on_c, 3, 62, 0
1, 76800, Note_on_c, 7, 58, 0
1, 76800, Note_on_c, 0, 53, 0
1, 76800, Note_on_c, 7, 53, 0
1, 76800, Note_on_c, 8, 82, 0
1, 76800, Note_on_c, 0, 58, 0
1, 76800, Note_on_c, 3, 58, 0
1, 76800, Note_on_c, 3, 53, 0
1, 76800, Note_on_c, 8, 77, 0
1, 76800, Note_on_c, 0, 53, 88
1, 76800, Note_on_c, 0, 57, 92
1, 76800, Note_on_c, 0, 60, 90
1, 76800, Note_on_c, 1, 41, 104
1, 76800, Note_on_c, 3, 53, 88
1, 76800, Note_on_c, 3, 57, 92
1, 76800, Note_on_c, 3, 60, 90
1, 76800, Note_on_c, 7, 53, 88
1, 76800, Note_on_c, 7, 57, 92
1, 76800, Note_on_c, 7, 60, 90
1, 76800, Note_on_c, 8, 77, 92
1, 76800, Note_on_c, 8, 81, 101
1, 76800, Note_on_c, 8, 84, 106
1, 76800, Note_on_c, 9, 53, 68
1, 76800, Note_on_c, 9, 36, 127
1, 76800, Note_on_c, 9, 42, 117
1, 76994, Note_on_c, 9, 36, 0
1, 77029, Note_on_c, 9, 42, 0
1, 77040, Note_on_c, 9, 44, 77
1, 77104, Note_on_c, 9, 53, 0
1, 77210, Note_on_c, 9, 44, 0
1, 77280, Note_on_c, 9, 36, 126
1, 77284, Note_on_c, 9, 42, 117
1, 77514, Note_on_c, 9, 36, 0
1, 77518, Note_on_c, 9, 42, 0
1, 77520, Note_on_c, 9, 44, 77
1, 77697, Note_on_c, 9, 44, 0
1, 77760, Note_on_c, 2, 77, 88
1, 77760, Note_on_c, 2, 69, 80
1, 77760, Note_on_c, 2, 72, 98
1, 77760, Note_on_c, 9, 53, 70
1, 77760, Note_on_c, 9, 38, 83
1, 77764, Note_on_c, 9, 42, 117
1, 77895, Note_on_c, 2, 69, 0
1, 77923, Note_on_c, 2, 72, 0
1, 77959, Note_on_c, 9, 38, 0
1, 77959, Note_on_c, 2, 77, 0
1, 77962, Note_on_c, 9, 42, 0
1, 78000, Note_on_c, 1, 41, 0
1, 78000, Note_on_c, 9, 44, 77
1, 78030, Note_on_c, 9, 53, 0
1, 78172, Note_on_c, 9, 44, 0
1, 78244, Note_on_c, 9, 42, 117
1, 78444, Note_on_c, 9, 42, 0
1, 78480, Note_on_c, 1, 41, 109
1, 78480, Note_on_c, 2, 77, 84
1, 78480, Note_on_c, 2, 69, 88
1, 78480, Note_on_c, 2, 72, 98
1, 78480, Note_on_c, 9, 36, 127
1, 78482, Note_on_c, 9, 44, 76
1, 78604, Note_on_c, 2, 69, 0
1, 78607, Note_on_c, 2, 72, 0
1, 78620, Note_on_c, 9, 44, 0
1, 78631, Note_on_c, 2, 77, 0
1, 78672, Note_on_c, 9, 36, 0
1, 78709, Note_on_c, 1, 41, 0
1, 78720, Note_on_c, 9, 53, 70
1, 78724, Note_on_c, 9, 42, 117
1, 78905, Note_on_c, 9, 42, 0
1, 78939, Note_on_c, 9, 53, 0
1, 78960, Note_on_c, 1, 41, 88
1, 78960, Note_on_c, 2, 77, 82
1, 78960, Note_on_c, 2, 69, 80
1, 78960, Note_on_c, 2, 72, 90
1, 78960, Note_on_c, 9, 44, 76
1, 78960, Note_on_c, 9, 36, 82
1, 79039, Note_on_c, 2, 72, 0
1, 79049, Note_on_c, 2, 69, 0
1, 79052, Note_on_c, 1, 41, 0
1, 79056, Note_on_c, 9, 36, 0
1, 79066, Note_on_c, 2, 77, 0
1, 79119, Note_on_c, 9, 44, 0
1, 79200, Note_on_c, 1, 41, 98
1, 79200, Note_on_c, 2, 77, 84
1, 79200, Note_on_c, 2, 69, 84
1, 79200, Note_on_c, 2, 72, 98
1, 79200, Note_on_c, 9, 42, 117
1, 79200, Note_on_c, 9, 36, 127
1, 79383, Note_on_c, 9, 42, 0
1, 79394, Note_on_c, 9, 36, 0
1, 79440, Note_on_c, 9, 44, 76
1, 79567, Note_on_c, 9, 44, 0
1, 79680, Note_on_c, 9, 42, 117
1, 79680, Note_on_c, 9, 38, 83
1, 79680, Note_on_c, 9, 53, 70
1, 79688, Note_on_c, 1, 41, 0
1, 79859, Note_on_c, 9, 42, 0
1, 79896, Note_on_c, 9, 38, 0
1, 79920, Note_on_c, 9, 44, 77
1, 79959, Note_on_c, 9, 53, 0
1, 80070, Note_on_c, 9, 44, 0
1, 80145, Note_on_c, 2, 72, 0
1, 80160, Note_on_c, 1, 43, 98
1, 80160, Note_on_c, 9, 42, 117
1, 80174, Note_on_c, 2, 69, 0
1, 80202, Note_on_c, 2, 77, 0
1, 80343, Note_on_c, 9, 42, 0
1, 80352, Note_on_c, 1, 43, 0
1, 80400, Note_on_c, 9, 44, 78
1, 80541, Note_on_c, 9, 44, 0
1, 80640, Note_on_c, 3, 60, 0
1, 80640, Note_on_c, 0, 57, 0
1, 80640, Note_on_c, 7, 57, 0
1, 80640, Note_on_c, 0, 60, 0
1, 80640, Note_on_c, 3, 53, 0
1, 80640, Note_on_c, 8, 77, 0
1, 80640, Note_on_c, 8, 84, 0
1, 80640, Note_on_c, 7, 53, 0
1, 80640, Note_on_c, 7, 60, 0
1, 80640, Note_on_c, 8, 81, 0
1, 80640, Note_on_c, 0, 53, 0
1, 80640, Note_on_c, 3, 57, 0
1, 80640, Note_on_c, 0, 52, 86
1, 80640, Note_on_c, 0, 57, 82
1, 80640, Note_on_c, 0, 60, 80
1, 80640, Note_on_c, 1, 45, 104
1, 80640, Note_on_c, 3, 52, 86
1, 80640, Note_on_c, 3, 57, 82
1, 80640, Note_on_c, 3, 60, 80
1, 80640, Note_on_c, 7, 52, 86
1, 80640, Note_on_c, 7, 57, 82
1, 80640, Note_on_c, 7, 60, 80
1, 80640, Note_on_c, 8, 88, 95
1, 80640, Note_on_c, 8, 84, 92
1, 80640, Note_on_c, 8, 81, 88
1, 80640, Note_on_c, 9, 53, 70
1, 80640, Note_on_c, 9, 36, 127
1, 80640, Note_on_c, 9, 42, 117
1, 80828, Note_on_c, 9, 36, 0
1, 80869, Note_on_c, 9, 42, 0
1, 80880, Note_on_c, 9, 44, 77
1, 80897, Note_on_c, 9, 53, 0
1, 81050, Note_on_c, 9, 44, 0
1, 81120, Note_on_c, 9, 36, 126
1, 81124, Note_on_c, 9, 42, 117
1, 81294, Note_on_c, 9, 36, 0
1, 81358, Note_on_c, 9, 42, 0
1, 81360, Note_on_c, 9, 44, 77
1, 81537, Note_on_c, 9, 44, 0
1, 81600, Note_on_c, 2, 76, 92
1, 81600, Note_on_c, 2, 72, 98
1, 81600, Note_on_c, 2, 69, 88
1, 81600, Note_on_c, 9, 38, 84
1, 81600, Note_on_c, 9, 53, 68
1, 81604, Note_on_c, 9, 42, 117
1, 81737, Note_on_c, 2, 69, 0
1, 81750, Note_on_c, 2, 72, 0
1, 81780, Note_on_c, 2, 76, 0
1, 81787, Note_on_c, 9, 38, 0
1, 81802, Note_on_c, 9, 42, 0
1, 81840, Note_on_c, 1, 45, 0
1, 81840, Note_on_c, 9, 44, 77
1, 81865, Note_on_c, 9, 53, 0
1, 82012, Note_on_c, 9, 44, 0
1, 82084, Note_on_c, 9, 42, 117
1, 82284, Note_on_c, 9, 42, 0
1, 82320, Note_on_c, 1, 45, 98
1, 82320, Note_on_c, 2, 69, 80
1, 82320, Note_on_c, 2, 72, 84
1, 82320, Note_on_c, 2, 76, 73
1, 82320, Note_on_c, 9, 36, 125
1, 82322, Note_on_c, 9, 44, 76
1, 82447, Note_on_c, 2, 69, 0
1, 82452, Note_on_c, 2, 76, 0
1, 82454, Note_on_c, 2, 72, 0
1, 82460, Note_on_c, 9, 44, 0
1, 82479, Note_on_c, 9, 36, 0
1, 82517, Note_on_c, 1, 45, 0
1, 82560, Note_on_c, 9, 53, 68
1, 82564, Note_on_c, 9, 42, 117
1, 82745, Note_on_c, 9, 42, 0
1, 82800, Note_on_c, 1, 45, 84
1, 82800, Note_on_c, 9, 44, 76
1, 82800, Note_on_c, 9, 36, 81
1, 82802, Note_on_c, 2, 72, 88
1, 82802, Note_on_c, 2, 76, 74
1, 82802, Note_on_c, 2, 69, 68
1, 82816, Note_on_c, 9, 53, 0
1, 82885, Note_on_c, 2, 69, 0
1, 82885, Note_on_c, 2, 76, 0
1, 82886, Note_on_c, 2, 72, 0
1, 82889, Note_on_c, 1, 45, 0
1, 82899, Note_on_c, 9, 36, 0
1, 82959, Note_on_c, 9, 44, 0
1, 83040, Note_on_c, 1, 45, 88
1, 83040, Note_on_c, 9, 42, 117
1, 83040, Note_on_c, 9, 36, 125
1, 83042, Note_on_c, 2, 76, 95
1, 83042, Note_on_c, 2, 69, 95
1, 83042, Note_on_c, 2, 72, 90
1, 83180, Note_on_c, 9, 36, 0
1, 83223, Note_on_c, 9, 42, 0
1, 83280, Note_on_c, 9, 44, 76
1, 83407, Note_on_c, 9, 44, 0
1, 83520, Note_on_c, 9, 42, 117
1, 83520, Note_on_c, 9, 38, 86
1, 83520, Note_on_c, 9, 53, 69
1, 83586, Note_on_c, 1, 45, 0
1, 83683, Note_on_c, 9, 38, 0
1, 83699, Note_on_c, 9, 42, 0
1, 83760, Note_on_c, 9, 44, 77
1, 83796, Note_on_c, 9, 53, 0
1, 83910, Note_on_c, 9, 44, 0
1, 83974, Note_on_c, 2, 76, 0
1, 83974, Note_on_c, 2, 72, 0
1, 83978, Note_on_c, 2, 69, 0
1, 84000, Note_on_c, 1, 48, 109
1, 84000, Note_on_c, 9, 42, 117
1, 84182, Note_on_c, 1, 48, 0
1, 84183, Note_on_c, 9, 42, 0
1, 84240, Note_on_c, 9, 44, 78
1, 84381, Note_on_c, 9, 44, 0
1, 84480, Note_on_c, 0, 52, 0
1, 84480, Note_on_c, 0, 57, 0
1, 84480, Note_on_c, 7, 57, 0
1, 84480, Note_on_c, 0, 60, 0
1, 84480, Note_on_c, 7, 52, 0
1, 84480, Note_on_c, 8, 84, 0
1, 84480, Note_on_c, 3, 57, 0
1, 84480, Note_on_c, 8, 88, 0
1, 84480, Note_on_c, 7, 60, 0
1, 84480, Note_on_c, 3, 60, 0
1, 84480, Note_on_c, 3, 52, 0
1, 84480, Note_on_c, 8, 81, 0
1, 84480, Note_on_c, 0, 53, 86
1, 84480, Note_on_c, 0, 57, 86
1, 84480, Note_on_c, 0, 62, 84
1, 84480, Note_on_c, 1, 38, 98
1, 84480, Note_on_c, 3, 53, 86
1, 84480, Note_on_c, 3, 57, 86
1, 84480, Note_on_c, 3, 62, 84
1, 84480, Note_on_c, 7, 53, 86
1, 84480, Note_on_c, 7, 57, 86
1, 84480, Note_on_c, 7, 62, 84
1, 84480, Note_on_c, 8, 77, 104
1, 84480, Note_on_c, 8, 81, 88
1, 84480, Note_on_c, 8, 86, 80
1, 84480, Note_on_c, 9, 53, 69
1, 84480, Note_on_c, 9, 42, 117
1, 84480, Note_on_c, 9, 36, 127
1, 84674, Note_on_c, 9, 36, 0
1, 84709, Note_on_c, 9, 42, 0
1, 84720, Note_on_c, 9, 44, 77
1, 84727, Note_on_c, 9, 53, 0
1, 84890, Note_on_c, 9, 44, 0
1, 84960, Note_on_c, 9, 36, 126
1, 84964, Note_on_c, 9, 42, 117
1, 85194, Note_on_c, 9, 36, 0
1, 85198, Note_on_c, 9, 42, 0
1, 85200, Note_on_c, 9, 44, 77
1, 85377, Note_on_c, 9, 44, 0
1, 85440, Note_on_c, 9, 53, 67
1, 85440, Note_on_c, 9, 38, 83
1, 85442, Note_on_c, 2, 74, 88
1, 85442, Note_on_c, 2, 65, 80
1, 85442, Note_on_c, 2, 69, 106
1, 85444, Note_on_c, 9, 42, 117
1, 85598, Note_on_c, 2, 69, 0
1, 85611, Note_on_c, 2, 65, 0
1, 85639, Note_on_c, 9, 38, 0
1, 85642, Note_on_c, 9, 42, 0
1, 85655, Note_on_c, 2, 74, 0
1, 85680, Note_on_c, 1, 38, 0
1, 85680, Note_on_c, 9, 44, 77
1, 85701, Note_on_c, 9, 53, 0
1, 85852, Note_on_c, 9, 44, 0
1, 85924, Note_on_c, 9, 42, 117
1, 86124, Note_on_c, 9, 42, 0
1, 86160, Note_on_c, 1, 38, 92
1, 86160, Note_on_c, 2, 74, 90
1, 86160, Note_on_c, 2, 65, 95
1, 86160, Note_on_c, 9, 36, 127
1, 86162, Note_on_c, 2, 69, 106
1, 86162, Note_on_c, 9, 44, 76
1, 86276, Note_on_c, 2, 69, 0
1, 86279, Note_on_c, 2, 65, 0
1, 86300, Note_on_c, 9, 44, 0
1, 86303, Note_on_c, 2, 74, 0
1, 86335, Note_on_c, 1, 38, 0
1, 86352, Note_on_c, 9, 36, 0
1, 86400, Note_on_c, 9, 53, 71
1, 86404, Note_on_c, 9, 42, 117
1, 86585, Note_on_c, 9, 42, 0
1, 86640, Note_on_c, 1, 38, 84
1, 86640, Note_on_c, 2, 69, 98
1, 86640, Note_on_c, 9, 44, 76
1, 86640, Note_on_c, 9, 36, 82
1, 86642, Note_on_c, 2, 65, 84
1, 86642, Note_on_c, 2, 74, 74
1, 86686, Note_on_c, 9, 53, 0
1, 86723, Note_on_c, 2, 69, 0
1, 86726, Note_on_c, 2, 74, 0
1, 86729, Note_on_c, 2, 65, 0
1, 86736, Note_on_c, 9, 36, 0
1, 86761, Note_on_c, 1, 38, 0
1, 86799, Note_on_c, 9, 44, 0
1, 86880, Note_on_c, 1, 38, 98
1, 86880, Note_on_c, 9, 36, 127
1, 86880, Note_on_c, 9, 42, 117
1, 86882, Note_on_c, 2, 74, 101
1, 86882, Note_on_c, 2, 65, 92
1, 86882, Note_on_c, 2, 69, 104
1, 87063, Note_on_c, 9, 42, 0
1, 87074, Note_on_c, 9, 36, 0
1, 87120, Note_on_c, 9, 44, 76
1, 87247, Note_on_c, 9, 44, 0
1, 87360, Note_on_c, 9, 42, 117
1, 87360, Note_on_c, 9, 53, 72
1, 87360, Note_on_c, 9, 38, 83
1, 87374, Note_on_c, 1, 38, 0
1, 87539, Note_on_c, 9, 42, 0
1, 87576, Note_on_c, 9, 38, 0
1, 87600, Note_on_c, 9, 44, 77
1, 87722, Note_on_c, 9, 53, 0
1, 87750, Note_on_c, 9, 44, 0
1, 87785, Note_on_c, 2, 69, 0
1, 87801, Note_on_c, 2, 65, 0
1, 87815, Note_on_c, 2, 74, 0
1, 87840, Note_on_c, 1, 45, 98
1, 87840, Note_on_c, 9, 42, 117
1, 88019, Note_on_c, 1, 45, 0
1, 88023, Note_on_c, 9, 42, 0
1, 88080, Note_on_c, 9, 44, 78
1, 88221, Note_on_c, 9, 44, 0
1, 88320, Note_on_c, 8, 77, 0
1, 88320, Note_on_c, 0, 57, 0
1, 88320, Note_on_c, 7, 57, 0
1, 88320, Note_on_c, 0, 62, 0
1, 88320, Note_on_c, 8, 86, 0
1, 88320, Note_on_c, 7, 53, 0
1, 88320, Note_on_c, 8, 81, 0
1, 88320, Note_on_c, 3, 53, 0
1, 88320, Note_on_c, 7, 62, 0
1, 88320, Note_on_c, 3, 62, 0
1, 88320, Note_on_c, 3, 57, 0
1, 88320, Note_on_c, 0, 53, 0
1, 88320, Note_on_c, 0, 53, 88
1, 88320, Note_on_c, 0, 58, 98
1, 88320, Note_on_c, 0, 62, 82
1, 88320, Note_on_c, 1, 46, 101
1, 88320, Note_on_c, 3, 53, 88
1, 88320, Note_on_c, 3, 58, 98
1, 88320, Note_on_c, 3, 62, 82
1, 88320, Note_on_c, 7, 53, 88
1, 88320, Note_on_c, 7, 58, 98
1, 88320, Note_on_c, 7, 62, 82
1, 88320, Note_on_c, 8, 77, 90
1, 88320, Note_on_c, 8, 82, 101
1, 88320, Note_on_c, 8, 86, 80
1, 88320, Note_on_c, 9, 53, 70
1, 88320, Note_on_c, 9, 36, 127
1, 88320, Note_on_c, 9, 42, 117
1, 88508, Note_on_c, 9, 36, 0
1, 88549, Note_on_c, 9, 42, 0
1, 88560, Note_on_c, 9, 44, 77
1, 88649, Note_on_c, 9, 53, 0
1, 88730, Note_on_c, 9, 44, 0
1, 88800, Note_on_c, 9, 36, 126
1, 88804, Note_on_c, 9, 42, 117
1, 88974, Note_on_c, 9, 36, 0
1, 89038, Note_on_c, 9, 42, 0
1, 89040, Note_on_c, 9, 44, 77
1, 89217, Note_on_c, 9, 44, 0
1, 89280, Note_on_c, 9, 53, 71
1, 89280, Note_on_c, 9, 38, 84
1, 89282, Note_on_c, 2, 74, 82
1, 89282, Note_on_c, 2, 70, 101
1, 89282, Note_on_c, 2, 65, 92
1, 89284, Note_on_c, 9, 42, 117
1, 89442, Note_on_c, 2, 65, 0
1, 89467, Note_on_c, 9, 38, 0
1, 89470, Note_on_c, 2, 70, 0
1, 89482, Note_on_c, 9, 42, 0
1, 89495, Note_on_c, 2, 74, 0
1, 89520, Note_on_c, 1, 46, 0
1, 89520, Note_on_c, 9, 44, 77
1, 89579, Note_on_c, 9, 53, 0
1, 89692, Note_on_c, 9, 44, 0
1, 89764, Note_on_c, 9, 42, 117
1, 89964, Note_on_c, 9, 42, 0
1, 90000, Note_on_c, 1, 46, 117
1, 90000, Note_on_c, 2, 70, 101
1, 90000, Note_on_c, 2, 65, 82
1, 90000, Note_on_c, 2, 74, 67
1, 90000, Note_on_c, 9, 36, 125
1, 90002, Note_on_c, 9, 44, 76
1, 90123, Note_on_c, 2, 70, 0
1, 90125, Note_on_c, 2, 65, 0
1, 90128, Note_on_c, 2, 74, 0
1, 90140, Note_on_c, 9, 44, 0
1, 90159, Note_on_c, 9, 36, 0
1, 90169, Note_on_c, 1, 46, 0
1, 90240, Note_on_c, 9, 53, 71
1, 90244, Note_on_c, 9, 42, 117
1, 90425, Note_on_c, 9, 42, 0
1, 90480, Note_on_c, 1, 46, 92
1, 90480, Note_on_c, 2, 65, 80
1, 90480, Note_on_c, 2, 74, 80
1, 90480, Note_on_c, 2, 70, 109
1, 90480, Note_on_c, 9, 36, 81
1, 90480, Note_on_c, 9, 44, 76
1, 90529, Note_on_c, 9, 53, 0
1, 90554, Note_on_c, 1, 46, 0
1, 90556, Note_on_c, 2, 70, 0
1, 90579, Note_on_c, 9, 36, 0
1, 90580, Note_on_c, 2, 65, 0
1, 90583, Note_on_c, 2, 74, 0
1, 90639, Note_on_c, 9, 44, 0
1, 90720, Note_on_c, 1, 46, 101
1, 90720, Note_on_c, 2, 74, 104
1, 90720, Note_on_c, 2, 65, 98
1, 90720, Note_on_c, 2, 70, 117
1, 90720, Note_on_c, 9, 36, 125
1, 90720, Note_on_c, 9, 42, 117
1, 90860, Note_on_c, 9, 36, 0
1, 90903, Note_on_c, 9, 42, 0
1, 90960, Note_on_c, 9, 44, 76
1, 91087, Note_on_c, 9, 44, 0
1, 91200, Note_on_c, 9, 53, 74
1, 91200, Note_on_c, 9, 42, 117
1, 91200, Note_on_c, 9, 38, 86
1, 91233, Note_on_c, 1, 46, 0
1, 91363, Note_on_c, 9, 38, 0
1, 91379, Note_on_c, 9, 42, 0
1, 91440, Note_on_c, 9, 53, 0
1, 91440, Note_on_c, 9, 44, 77
1, 91590, Note_on_c, 9, 44, 0
1, 91680, Note_on_c, 1, 48, 98
1, 91680, Note_on_c, 9, 42, 117
1, 91706, Note_on_c, 2, 70, 0
1, 91720, Note_on_c, 2, 65, 0
1, 91772, Note_on_c, 2, 74, 0
1, 91863, Note_on_c, 9, 42, 0
1, 91920, Note_on_c, 1, 50, 92
1, 91920, Note_on_c, 9, 44, 78
1, 91929, Note_on_c, 1, 48, 0
1, 92061, Note_on_c, 9, 44, 0
1, 92112, Note_on_c, 1, 50, 0
1, 92145, Note_on_c, 8, 86, 0
1, 92156, Note_on_c, 7, 62, 0
1, 92156, Note_on_c, 0, 62, 0
1, 92156, Note_on_c, 3, 62, 0
1, 92160, Note_on_c, 7, 58, 0
1, 92160, Note_on_c, 0, 53, 0
1, 92160, Note_on_c, 7, 53, 0
1, 92160, Note_on_c, 8, 82, 0
1, 92160, Note_on_c, 0, 58, 0
1, 92160, Note_on_c, 3, 58, 0
1, 92160, Note_on_c, 3, 53, 0
1, 92160, Note_on_c, 8, 77, 0
1, 92160, Note_on_c, 0, 53, 88
1, 92160, Note_on_c, 0, 57, 92
1, 92160, Note_on_c, 0, 60, 90
1, 92160, Note_on_c, 1, 41, 104
1, 92160, Note_on_c, 8, 77, 92
1, 92160, Note_on_c, 8, 81, 101
1, 92160, Note_on_c, 8, 84, 106
1, 92160, Note_on_c, 9, 36, 127
1, 92160, Note_on_c, 9, 42, 117
1, 92354, Note_on_c, 9, 36, 0
1, 92389, Note_on_c, 9, 42, 0
1, 92400, Note_on_c, 9, 44, 77
1, 92570, Note_on_c, 9, 44, 0
1, 92640, Note_on_c, 9, 36, 126
1, 92644, Note_on_c, 9, 42, 117
1, 92874, Note_on_c, 9, 36, 0
1, 92878, Note_on_c, 9, 42, 0
1, 92880, Note_on_c, 9, 44, 77
1, 93057, Note_on_c, 9, 44, 0
1, 93120, Note_on_c, 2, 77, 88
1, 93120, Note_on_c, 2, 69, 80
1, 93120, Note_on_c, 2, 72, 98
1, 93120, Note_on_c, 9, 38, 83
1, 93124, Note_on_c, 9, 42, 117
1, 93255, Note_on_c, 2, 69, 0
1, 93283, Note_on_c, 2, 72, 0
1, 93319, Note_on_c, 9, 38, 0
1, 93319, Note_on_c, 2, 77, 0
1, 93322, Note_on_c, 9, 42, 0
1, 93360, Note_on_c, 1, 41, 0
1, 93360, Note_on_c, 9, 44, 77
1, 93532, Note_on_c, 9, 44, 0
1, 93604, Note_on_c, 9, 42, 117
1, 93804, Note_on_c, 9, 42, 0
1, 93840, Note_on_c, 1, 41, 109
1, 93840, Note_on_c, 2, 77, 84
1, 93840, Note_on_c, 2, 69, 88
1, 93840, Note_on_c, 2, 72, 98
1, 93840, Note_on_c, 9, 36, 127
1, 93842, Note_on_c, 9, 44, 76
1, 93964, Note_on_c, 2, 69, 0
1, 93967, Note_on_c, 2, 72, 0
1, 93980, Note_on_c, 9, 44, 0
1, 93991, Note_on_c, 2, 77, 0
1, 94032, Note_on_c, 9, 36, 0
1, 94069, Note_on_c, 1, 41, 0
1, 94084, Note_on_c, 9, 42, 117
1, 94265, Note_on_c, 9, 42, 0
1, 94320, Note_on_c, 1, 41, 88
1, 94320, Note_on_c, 2, 77, 82
1, 94320, Note_on_c, 2, 69, 80
1, 94320, Note_on_c, 2, 72, 90
1, 94320, Note_on_c, 9, 36, 82
1, 94320, Note_on_c, 9, 44, 76
1, 94399, Note_on_c, 2, 72, 0
1, 94409, Note_on_c, 2, 69, 0
1, 94412, Note_on_c, 1, 41, 0
1, 94416, Note_on_c, 9, 36, 0
1, 94426, Note_on_c, 2, 77, 0
1, 94479, Note_on_c, 9, 44, 0
1, 94560, Note_on_c, 1, 41, 98
1, 94560, Note_on_c, 2, 77, 84
1, 94560, Note_on_c, 2, 69, 84
1, 94560, Note_on_c, 2, 72, 98
1, 94560, Note_on_c, 9, 42, 117
1, 94560, Note_on_c, 9, 36, 127
1, 94743, Note_on_c, 9, 42, 0
1, 94754, Note_on_c, 9, 36, 0
1, 94800, Note_on_c, 9, 44, 76
1, 94927, Note_on_c, 9, 44, 0
1, 95040, Note_on_c, 9, 38, 83
1, 95040, Note_on_c, 9, 42, 117
1, 95048, Note_on_c, 1, 41, 0
1, 95219, Note_on_c, 9, 42, 0
1, 95256, Note_on_c, 9, 38, 0
1, 95280, Note_on_c, 9, 44, 77
1, 95430, Note_on_c, 9, 44, 0
1, 95505, Note_on_c, 2, 72, 0
1, 95520, Note_on_c, 1, 43, 98
1, 95520, Note_on_c, 9, 42, 117
1, 95534, Note_on_c, 2, 69, 0
1, 95562, Note_on_c, 2, 77, 0
1, 95703, Note_on_c, 9, 42, 0
1, 95712, Note_on_c, 1, 43, 0
1, 95760, Note_on_c, 9, 44, 78
1, 95901, Note_on_c, 9, 44, 0
1, 96000, Note_on_c, 8, 77, 0
1, 96000, Note_on_c, 8, 84, 0
1, 96000, Note_on_c, 8, 81, 0
1, 96000, Note_on_c, 0, 60, 0
1, 96000, Note_on_c, 0, 53, 0
1, 96000, Note_on_c, 0, 57, 0
1, 96000, Note_on_c, 0, 52, 86
1, 96000, Note_on_c, 0, 57, 82
1, 96000, Note_on_c, 0, 60, 80
1, 96000, Note_on_c, 1, 45, 104
1, 96000, Note_on_c, 8, 88, 95
1, 96000, Note_on_c, 8, 84, 92
1, 96000, Note_on_c, 8, 81, 88
1, 96000, Note_on_c, 9, 36, 127
1, 96000, Note_on_c, 9, 42, 117
1, 96188, Note_on_c, 9, 36, 0
1, 96229, Note_on_c, 9, 42, 0
1, 96240, Note_on_c, 9, 44, 77
1, 96410, Note_on_c, 9, 44, 0
1, 96480, Note_on_c, 9, 36, 126
1, 96484, Note_on_c, 9, 42, 117
1, 96654, Note_on_c, 9, 36, 0
1, 96718, Note_on_c, 9, 42, 0
1, 96720, Note_on_c, 9, 44, 77
1, 96897, Note_on_c, 9, 44, 0
1, 96960, Note_on_c, 2, 76, 92
1, 96960, Note_on_c, 2, 72, 98
1, 96960, Note_on_c, 2, 69, 88
1, 96960, Note_on_c, 9, 38, 84
1, 96964, Note_on_c, 9, 42, 117
1, 97097, Note_on_c, 2, 69, 0
1, 97110, Note_on_c, 2, 72, 0
1, 97140, Note_on_c, 2, 76, 0
1, 97147, Note_on_c, 9, 38, 0
1, 97162, Note_on_c, 9, 42, 0
1, 97200, Note_on_c, 1, 45, 0
1, 97200, Note_on_c, 9, 44, 77
1, 97372, Note_on_c, 9, 44, 0
1, 97444, Note_on_c, 9, 42, 117
1, 97644, Note_on_c, 9, 42, 0
1, 97680, Note_on_c, 1, 45, 98
1, 97680, Note_on_c, 2, 69, 80
1, 97680, Note_on_c, 2, 72, 84
1, 97680, Note_on_c, 2, 76, 73
1, 97680, Note_on_c, 9, 36, 125
1, 97682, Note_on_c, 9, 44, 76
1, 97807, Note_on_c, 2, 69, 0
1, 97812, Note_on_c, 2, 76, 0
1, 97814, Note_on_c, 2, 72, 0
1, 97820, Note_on_c, 9, 44, 0
1, 97839, Note_on_c, 9, 36, 0
1, 97877, Note_on_c, 1, 45, 0
1, 97924, Note_on_c, 9, 42, 117
1, 98105, Note_on_c, 9, 42, 0
1, 98160, Note_on_c, 1, 45, 84
1, 98160, Note_on_c, 9, 36, 81
1, 98160, Note_on_c, 9, 44, 76
1, 98162, Note_on_c, 2, 72, 88
1, 98162, Note_on_c, 2, 76, 74
1, 98162, Note_on_c, 2, 69, 68
1, 98245, Note_on_c, 2, 69, 0
1, 98245, Note_on_c, 2, 76, 0
1, 98246, Note_on_c, 2, 72, 0
1, 98249, Note_on_c, 1, 45, 0
1, 98259, Note_on_c, 9, 36, 0
1, 98319, Note_on_c, 9, 44, 0
1, 98400, Note_on_c, 1, 45, 88
1, 98400, Note_on_c, 9, 42, 117
1, 98400, Note_on_c, 9, 36, 125
1, 98402, Note_on_c, 2, 76, 95
1, 98402, Note_on_c, 2, 69, 95
1, 98402, Note_on_c, 2, 72, 90
1, 98540, Note_on_c, 9, 36, 0
1, 98583, Note_on_c, 9, 42, 0
1, 98640, Note_on_c, 9, 44, 76
1, 98767, Note_on_c, 9, 44, 0
1, 98880, Note_on_c, 9, 38, 86
1, 98880, Note_on_c, 9, 42, 117
1, 98946, Note_on_c, 1, 45, 0
1, 99043, Note_on_c, 9, 38, 0
1, 99059, Note_on_c, 9, 42, 0
1, 99120, Note_on_c, 9, 44, 77
1, 99270, Note_on_c, 9, 44, 0
1, 99334, Note_on_c, 2, 76, 0
1, 99334, Note_on_c, 2, 72, 0
1, 99338, Note_on_c, 2, 69, 0
1, 99360, Note_on_c, 1, 48, 109
1, 99360, Note_on_c, 9, 42, 117
1, 99542, Note_on_c, 1, 48, 0
1, 99543, Note_on_c, 9, 42, 0
1, 99600, Note_on_c, 9, 44, 78
1, 99741, Note_on_c, 9, 44, 0
1, 99840, Note_on_c, 8, 84, 0
1, 99840, Note_on_c, 8, 88, 0
1, 99840, Note_on_c, 8, 81, 0
1, 99840, Note_on_c, 0, 60, 0
1, 99840, Note_on_c, 0, 52, 0
1, 99840, Note_on_c, 0, 57, 0
1, 99840, Note_on_c, 0, 53, 86
1, 99840, Note_on_c, 0, 57, 86
1, 99840, Note_on_c, 0, 62, 84
1, 99840, Note_on_c, 1, 38, 98
1, 99840, Note_on_c, 8, 77, 104
1, 99840, Note_on_c, 8, 81, 88
1, 99840, Note_on_c, 8, 86, 80
1, 99840, Note_on_c, 9, 42, 117
1, 99840, Note_on_c, 9, 36, 127
1, 100034, Note_on_c, 9, 36, 0
1, 100069, Note_on_c, 9, 42, 0
1, 100080, Note_on_c, 9, 44, 77
1, 100250, Note_on_c, 9, 44, 0
1, 100320, Note_on_c, 9, 36, 126
1, 100324, Note_on_c, 9, 42, 117
1, 100554, Note_on_c, 9, 36, 0
1, 100558, Note_on_c, 9, 42, 0
1, 100560, Note_on_c, 9, 44, 77
1, 100737, Note_on_c, 9, 44, 0
1, 100800, Note_on_c, 9, 38, 83
1, 100802, Note_on_c, 2, 74, 88
1, 100802, Note_on_c, 2, 65, 80
1, 100802, Note_on_c, 2, 69, 106
1, 100804, Note_on_c, 9, 42, 117
1, 100958, Note_on_c, 2, 69, 0
1, 100971, Note_on_c, 2, 65, 0
1, 100999, Note_on_c, 9, 38, 0
1, 101002, Note_on_c, 9, 42, 0
1, 101015, Note_on_c, 2, 74, 0
1, 101040, Note_on_c, 1, 38, 0
1, 101040, Note_on_c, 9, 44, 77
1, 101212, Note_on_c, 9, 44, 0
1, 101284, Note_on_c, 9, 42, 117
1, 101484, Note_on_c, 9, 42, 0
1, 101520, Note_on_c, 1, 38, 92
1, 101520, Note_on_c, 2, 74, 90
1, 101520, Note_on_c, 2, 65, 95
1, 101520, Note_on_c, 9, 36, 127
1, 101522, Note_on_c, 2, 69, 106
1, 101522, Note_on_c, 9, 44, 76
1, 101636, Note_on_c, 2, 69, 0
1, 101639, Note_on_c, 2, 65, 0
1, 101660, Note_on_c, 9, 44, 0
1, 101663, Note_on_c, 2, 74, 0
1, 101695, Note_on_c, 1, 38, 0
1, 101712, Note_on_c, 9, 36, 0
1, 101764, Note_on_c, 9, 42, 117
1, 101945, Note_on_c, 9, 42, 0
1, 102000, Note_on_c, 1, 38, 84
1, 102000, Note_on_c, 2, 69, 98
1, 102000, Note_on_c, 9, 36, 82
1, 102000, Note_on_c, 9, 44, 76
1, 102002, Note_on_c, 2, 65, 84
1, 102002, Note_on_c, 2, 74, 74
1, 102083, Note_on_c, 2, 69, 0
1, 102086, Note_on_c, 2, 74, 0
1, 102089, Note_on_c, 2, 65, 0
1, 102096, Note_on_c, 9, 36, 0
1, 102121, Note_on_c, 1, 38, 0
1, 102159, Note_on_c, 9, 44, 0
1, 102240, Note_on_c, 1, 38, 98
1, 102240, Note_on_c, 9, 36, 127
1, 102240, Note_on_c, 9, 42, 117
1, 102242, Note_on_c, 2, 74, 101
1, 102242, Note_on_c, 2, 65, 92
1, 102242, Note_on_c, 2, 69, 104
1, 102423, Note_on_c, 9, 42, 0
1, 102434, Note_on_c, 9, 36, 0
1, 102480, Note_on_c, 9, 44, 76
1, 102607, Note_on_c, 9, 44, 0
1, 102720, Note_on_c, 9, 42, 117
1, 102720, Note_on_c, 9, 38, 83
1, 102734, Note_on_c, 1, 38, 0
1, 102899, Note_on_c, 9, 42, 0
1, 102936, Note_on_c, 9, 38, 0
1, 102960, Note_on_c, 9, 44, 77
1, 103110, Note_on_c, 9, 44, 0
1, 103145, Note_on_c, 2, 69, 0
1, 103161, Note_on_c, 2, 65, 0
1, 103175, Note_on_c, 2, 74, 0
1, 103200, Note_on_c, 1, 45, 98
1, 103200, Note_on_c, 9, 42, 117
1, 103379, Note_on_c, 1, 45, 0
1, 103383, Note_on_c, 9, 42, 0
1, 103440, Note_on_c, 9, 44, 78
1, 103581, Note_on_c, 9, 44, 0
1, 103680, Note_on_c, 8, 81, 0
1, 103680, Note_on_c, 0, 62, 0
1, 103680, Note_on_c, 0, 57, 0
1, 103680, Note_on_c, 0, 53, 0
1, 103680, Note_on_c, 8, 77, 0
1, 103680, Note_on_c, 8, 86, 0
1, 103680, Note_on_c, 0, 53, 88
1, 103680, Note_on_c, 0, 58, 98
1, 103680, Note_on_c, 0, 62, 82
1, 103680, Note_on_c, 1, 46, 101
1, 103680, Note_on_c, 8, 77, 90
1, 103680, Note_on_c, 8, 82, 101
1, 103680, Note_on_c, 8, 86, 80
1, 103680, Note_on_c, 9, 42, 117
1, 103680, Note_on_c, 9, 36, 127
1, 103868, Note_on_c, 9, 36, 0
1, 103909, Note_on_c, 9, 42, 0
1, 103920, Note_on_c, 9, 44, 77
1, 104090, Note_on_c, 9, 44, 0
1, 104160, Note_on_c, 9, 36, 126
1, 104164, Note_on_c, 9, 42, 117
1, 104334, Note_on_c, 9, 36, 0
1, 104398, Note_on_c, 9, 42, 0
1, 104400, Note_on_c, 9, 44, 77
1, 104577, Note_on_c, 9, 44, 0
1, 104640, Note_on_c, 9, 38, 84
1, 104642, Note_on_c, 2, 74, 82
1, 104642, Note_on_c, 2, 70, 101
1, 104642, Note_on_c, 2, 65, 92
1, 104644, Note_on_c, 9, 42, 117
1, 104802, Note_on_c, 2, 65, 0
1, 104827, Note_on_c, 9, 38, 0
1, 104830, Note_on_c, 2, 70, 0
1, 104842, Note_on_c, 9, 42, 0
1, 104855, Note_on_c, 2, 74, 0
1, 104880, Note_on_c, 1, 46, 0
1, 104880, Note_on_c, 9, 44, 77
1, 105052, Note_on_c, 9, 44, 0
1, 105124, Note_on_c, 9, 42, 117
1, 105324, Note_on_c, 9, 42, 0
1, 105360, Note_on_c, 1, 46, 117
1, 105360, Note_on_c, 2, 70, 101
1, 105360, Note_on_c, 2, 65, 82
1, 105360, Note_on_c, 2, 74, 67
1, 105360, Note_on_c, 9, 36, 125
1, 105362, Note_on_c, 9, 44, 76
1, 105483, Note_on_c, 2, 70, 0
1, 105485, Note_on_c, 2, 65, 0
1, 105488, Note_on_c, 2, 74, 0
1, 105500, Note_on_c, 9, 44, 0
1, 105519, Note_on_c, 9, 36, 0
1, 105529, Note_on_c, 1, 46, 0
1, 105604, Note_on_c, 9, 42, 117
1, 105785, Note_on_c, 9, 42, 0
1, 105840, Note_on_c, 1, 46, 92
1, 105840, Note_on_c, 2, 65, 80
1, 105840, Note_on_c, 2, 74, 80
1, 105840, Note_on_c, 2, 70, 109
1, 105840, Note_on_c, 9, 36, 81
1, 105840, Note_on_c, 9, 44, 76
1, 105914, Note_on_c, 1, 46, 0
1, 105916, Note_on_c, 2, 70, 0
1, 105939, Note_on_c, 9, 36, 0
1, 105940, Note_on_c, 2, 65, 0
1, 105943, Note_on_c, 2, 74, 0
1, 105999, Note_on_c, 9, 44, 0
1, 106080, Note_on_c, 1, 46, 101
1, 106080, Note_on_c, 2, 74, 104
1, 106080, Note_on_c, 2, 65, 98
1, 106080, Note_on_c, 2, 70, 117
1, 106080, Note_on_c, 9, 36, 125
1, 106080, Note_on_c, 9, 42, 117
1, 106220, Note_on_c, 9, 36, 0
1, 106263, Note_on_c, 9, 42, 0
1, 106320, Note_on_c, 9, 44, 76
1, 106447, Note_on_c, 9, 44, 0
1, 106560, Note_on_c, 9, 42, 117
1, 106560, Note_on_c, 9, 38, 86
1, 106593, Note_on_c, 1, 46, 0
1, 106723, Note_on_c, 9, 38, 0
1, 106739, Note_on_c, 9, 42, 0
1, 106800, Note_on_c, 9, 44, 77
1, 106950, Note_on_c, 9, 44, 0
1, 107040, Note_on_c, 1, 48, 98
1, 107040, Note_on_c, 9, 42, 117
1, 107066, Note_on_c, 2, 70, 0
1, 107080, Note_on_c, 2, 65, 0
1, 107132, Note_on_c, 2, 74, 0
1, 107223, Note_on_c, 9, 42, 0
1, 107280, Note_on_c, 1, 50, 92
1, 107280, Note_on_c, 9, 44, 78
1, 107289, Note_on_c, 1, 48, 0
1, 107421, Note_on_c, 9, 44, 0
1, 107472, Note_on_c, 1, 50, 0
1, 107505, Note_on_c, 8, 86, 0
1, 107516, Note_on_c, 0, 62, 0
1, 107520, Note_on_c, 0, 58, 0
1, 107520, Note_on_c, 8, 77, 0
1, 107520, Note_on_c, 8, 82, 0
1, 107520, Note_on_c, 0, 53, 0
1, 107520, Note_on_c, 0, 53, 88
1, 107520, Note_on_c, 0, 57, 92
1, 107520, Note_on_c, 0, 60, 90
1, 107520, Note_on_c, 1, 41, 104
1, 107520, Note_on_c, 8, 77, 92
1, 107520, Note_on_c, 8, 81, 101
1, 107520, Note_on_c, 8, 84, 106
1, 107520, Note_on_c, 9, 42, 117
1, 107520, Note_on_c, 9, 36, 127
1, 107714, Note_on_c, 9, 36, 0
1, 107749, Note_on_c, 9, 42, 0
1, 107760, Note_on_c, 9, 44, 77
1, 107930, Note_on_c, 9, 44, 0
1, 108000, Note_on_c, 9, 36, 126
1, 108004, Note_on_c, 9, 42, 117
1, 108234, Note_on_c, 9, 36, 0
1, 108238, Note_on_c, 9, 42, 0
1, 108240, Note_on_c, 9, 44, 77
1, 108417, Note_on_c, 9, 44, 0
1, 108480, Note_on_c, 2, 77, 88
1, 108480, Note_on_c, 2, 69, 80
1, 108480, Note_on_c, 2, 72, 98
1, 108480, Note_on_c, 9, 38, 83
1, 108484, Note_on_c, 9, 42, 117
1, 108615, Note_on_c, 2, 69, 0
1, 108643, Note_on_c, 2, 72, 0
1, 108679, Note_on_c, 9, 38, 0
1, 108679, Note_on_c, 2, 77, 0
1, 108682, Note_on_c, 9, 42, 0
1, 108720, Note_on_c, 1, 41, 0
1, 108720, Note_on_c, 9, 44, 77
1, 108892, Note_on_c, 9, 44, 0
1, 108964, Note_on_c, 9, 42, 117
1, 109164, Note_on_c, 9, 42, 0
1, 109200, Note_on_c, 1, 41, 109
1, 109200, Note_on_c, 2, 77, 84
1, 109200, Note_on_c, 2, 69, 88
1, 109200, Note_on_c, 2, 72, 98
1, 109200, Note_on_c, 2, 77, 104
1, 109200, Note_on_c, 2, 72, 86
1, 109200, Note_on_c, 9, 36, 127
1, 109202, Note_on_c, 9, 44, 76
1, 109324, Note_on_c, 2, 69, 0
1, 109327, Note_on_c, 2, 72, 0
1, 109340, Note_on_c, 9, 44, 0
1, 109351, Note_on_c, 2, 77, 0
1, 109392, Note_on_c, 9, 36, 0
1, 109429, Note_on_c, 1, 41, 0
1, 109440, Note_on_c, 2, 81, 92
1, 109444, Note_on_c, 9, 42, 117
1, 109529, Note_on_c, 2, 77, 0
1, 109573, Note_on_c, 2, 81, 0
1, 109577, Note_on_c, 2, 72, 0
1, 109625, Note_on_c, 9, 42, 0
1, 109680, Note_on_c, 1, 41, 88
1, 109680, Note_on_c, 2, 77, 82
1, 109680, Note_on_c, 2, 69, 80
1, 109680, Note_on_c, 2, 81, 88
1, 109680, Note_on_c, 2, 72, 50
1, 109680, Note_on_c, 2, 72, 90
1, 109680, Note_on_c, 9, 36, 82
1, 109680, Note_on_c, 9, 44, 76
1, 109759, Note_on_c, 2, 72, 0
1, 109769, Note_on_c, 2, 69, 0
1, 109772, Note_on_c, 1, 41, 0
1, 109776, Note_on_c, 9, 36, 0
1, 109786, Note_on_c, 2, 77, 0
1, 109792, Note_on_c, 2, 72, 0
1, 109809, Note_on_c, 2, 81, 0
1, 109839, Note_on_c, 9, 44, 0
1, 109920, Note_on_c, 1, 41, 98
1, 109920, Note_on_c, 2, 72, 67
1, 109920, Note_on_c, 2, 77, 84
1, 109920, Note_on_c, 2, 69, 84
1, 109920, Note_on_c, 2, 72, 98
1, 109920, Note_on_c, 2, 81, 88
1, 109920, Note_on_c, 9, 42, 117
1, 109920, Note_on_c, 9, 36, 127
1, 110039, Note_on_c, 2, 72, 0
1, 110041, Note_on_c, 2, 81, 0
1, 110103, Note_on_c, 9, 42, 0
1, 110114, Note_on_c, 9, 36, 0
1, 110160, Note_on_c, 2, 81, 80
1, 110160, Note_on_c, 2, 72, 54
1, 110160, Note_on_c, 9, 44, 76
1, 110285, Note_on_c, 2, 72, 0
1, 110285, Note_on_c, 2, 81, 0
1, 110287, Note_on_c, 9, 44, 0
1, 110400, Note_on_c, 2, 81, 98
1, 110400, Note_on_c, 2, 72, 70
1, 110400, Note_on_c, 9, 38, 83
1, 110400, Note_on_c, 9, 42, 117
1, 110408, Note_on_c, 1, 41, 0
1, 110517, Note_on_c, 2, 81, 0
1, 110524, Note_on_c, 2, 72, 0
1, 110579, Note_on_c, 9, 42, 0
1, 110616, Note_on_c, 9, 38, 0
1, 110640, Note_on_c, 2, 81, 80
1, 110640, Note_on_c, 2, 72, 60
1, 110640, Note_on_c, 9, 44, 77
1, 110790, Note_on_c, 9, 44, 0
1, 110854, Note_on_c, 2, 81, 0
1, 110865, Note_on_c, 2, 72, 0
1, 110880, Note_on_c, 1, 43, 98
1, 110880, Note_on_c, 2, 79, 104
1, 110880, Note_on_c, 2, 81, 59
1, 110880, Note_on_c, 9, 42, 117
1, 110894, Note_on_c, 2, 69, 0
1, 110922, Note_on_c, 2, 77, 0
1, 110922, Note_on_c, 2, 81, 0
1, 111063, Note_on_c, 9, 42, 0
1, 111072, Note_on_c, 1, 43, 0
1, 111073, Note_on_c, 2, 79, 0
1, 111120, Note_on_c, 9, 44, 78
1, 111122, Note_on_c, 2, 72, 0
1, 111261, Note_on_c, 9, 44, 0
1, 111360, Note_on_c, 0, 53, 0
1, 111360, Note_on_c, 8, 77, 0
1, 111360, Note_on_c, 0, 60, 0
1, 111360, Note_on_c, 8, 81, 0
1, 111360, Note_on_c, 8, 84, 0
1, 111360, Note_on_c, 0, 57, 0
1, 111360, Note_on_c, 0, 52, 86
1, 111360, Note_on_c, 0, 57, 82
1, 111360, Note_on_c, 0, 60, 80
1, 111360, Note_on_c, 1, 45, 104
1, 111360, Note_on_c, 8, 88, 95
1, 111360, Note_on_c, 8, 84, 92
1, 111360, Note_on_c, 8, 81, 88
1, 111360, Note_on_c, 9, 36, 127
1, 111360, Note_on_c, 9, 42, 117
1, 111548, Note_on_c, 9, 36, 0
1, 111589, Note_on_c, 9, 42, 0
1, 111600, Note_on_c, 9, 44, 77
1, 111770, Note_on_c, 9, 44, 0
1, 111840, Note_on_c, 9, 36, 126
1, 111844, Note_on_c, 9, 42, 117
1, 112014, Note_on_c, 9, 36, 0
1, 112078, Note_on_c, 9, 42, 0
1, 112080, Note_on_c, 9, 44, 77
1, 112257, Note_on_c, 9, 44, 0
1, 112320, Note_on_c, 2, 72, 98
1, 112320, Note_on_c, 2, 76, 92
1, 112320, Note_on_c, 2, 69, 88
1, 112320, Note_on_c, 9, 38, 84
1, 112324, Note_on_c, 9, 42, 117
1, 112457, Note_on_c, 2, 69, 0
1, 112470, Note_on_c, 2, 72, 0
1, 112500, Note_on_c, 2, 76, 0
1, 112507, Note_on_c, 9, 38, 0
1, 112522, Note_on_c, 9, 42, 0
1, 112560, Note_on_c, 1, 45, 0
1, 112560, Note_on_c, 9, 44, 77
1, 112732, Note_on_c, 9, 44, 0
1, 112804, Note_on_c, 9, 42, 117
1, 113004, Note_on_c, 9, 42, 0
1, 113040, Note_on_c, 1, 45, 98
1, 113040, Note_on_c, 2, 76, 92
1, 113040, Note_on_c, 2, 76, 73
1, 113040, Note_on_c, 2, 72, 88
1, 113040, Note_on_c, 2, 69, 80
1, 113040, Note_on_c, 2, 72, 84
1, 113040, Note_on_c, 9, 36, 125
1, 113042, Note_on_c, 9, 44, 76
1, 113167, Note_on_c, 2, 69, 0
1, 113172, Note_on_c, 2, 76, 0
1, 113174, Note_on_c, 2, 72, 0
1, 113180, Note_on_c, 9, 44, 0
1, 113199, Note_on_c, 9, 36, 0
1, 113237, Note_on_c, 1, 45, 0
1, 113280, Note_on_c, 2, 79, 104
1, 113284, Note_on_c, 9, 42, 117
1, 113350, Note_on_c, 2, 76, 0
1, 113416, Note_on_c, 2, 79, 0
1, 113448, Note_on_c, 2, 72, 0
1, 113465, Note_on_c, 9, 42, 0
1, 113520, Note_on_c, 1, 45, 84
1, 113520, Note_on_c, 2, 79, 76
1, 113520, Note_on_c, 2, 72, 40
1, 113520, Note_on_c, 9, 36, 81
1, 113520, Note_on_c, 9, 44, 76
1, 113522, Note_on_c, 2, 69, 68
1, 113522, Note_on_c, 2, 72, 88
1, 113522, Note_on_c, 2, 76, 74
1, 113605, Note_on_c, 2, 76, 0
1, 113605, Note_on_c, 2, 69, 0
1, 113606, Note_on_c, 2, 72, 0
1, 113609, Note_on_c, 1, 45, 0
1, 113619, Note_on_c, 9, 36, 0
1, 113644, Note_on_c, 2, 79, 0
1, 113669, Note_on_c, 2, 72, 0
1, 113679, Note_on_c, 9, 44, 0
1, 113760, Note_on_c, 1, 45, 88
1, 113760, Note_on_c, 2, 72, 41
1, 113760, Note_on_c, 2, 79, 80
1, 113760, Note_on_c, 9, 36, 125
1, 113760, Note_on_c, 9, 42, 117
1, 113762, Note_on_c, 2, 69, 95
1, 113762, Note_on_c, 2, 72, 90
1, 113762, Note_on_c, 2, 76, 95
1, 113887, Note_on_c, 2, 79, 0
1, 113900, Note_on_c, 9, 36, 0
1, 113902, Note_on_c, 2, 72, 0
1, 113943, Note_on_c, 9, 42, 0
1, 114000, Note_on_c, 2, 79, 92
1, 114000, Note_on_c, 2, 72, 41
1, 114000, Note_on_c, 9, 44, 76
1, 114124, Note_on_c, 2, 79, 0
1, 114127, Note_on_c, 9, 44, 0
1, 114142, Note_on_c, 2, 72, 0
1, 114240, Note_on_c, 2, 72, 45
1, 114240, Note_on_c, 2, 79, 92
1, 114240, Note_on_c, 9, 38, 86
1, 114240, Note_on_c, 9, 42, 117
1, 114306, Note_on_c, 1, 45, 0
1, 114351, Note_on_c, 2, 79, 0
1, 114373, Note_on_c, 2, 72, 0
1, 114403, Note_on_c, 9, 38, 0
1, 114419, Note_on_c, 9, 42, 0
1, 114480, Note_on_c, 2, 79, 92
1, 114480, Note_on_c, 2, 72, 49
1, 114480, Note_on_c, 9, 44, 77
1, 114630, Note_on_c, 9, 44, 0
1, 114633, Note_on_c, 2, 79, 0
1, 114694, Note_on_c, 2, 76, 0
1, 114694, Note_on_c, 2, 72, 0
1, 114698, Note_on_c, 2, 69, 0
1, 114720, Note_on_c, 1, 48, 109
1, 114720, Note_on_c, 2, 77, 117
1, 114720, Note_on_c, 9, 42, 117
1, 114895, Note_on_c, 2, 77, 0
1, 114902, Note_on_c, 1, 48, 0
1, 114903, Note_on_c, 9, 42, 0
1, 114928, Note_on_c, 2, 72, 0
1, 114960, Note_on_c, 9, 44, 78
1, 115101, Note_on_c, 9, 44, 0
1, 115200, Note_on_c, 0, 52, 0
1, 115200, Note_on_c, 8, 81, 0
1, 115200, Note_on_c, 0, 60, 0
1, 115200, Note_on_c, 0, 57, 0
1, 115200, Note_on_c, 8, 88, 0
1, 115200, Note_on_c, 8, 84, 0
1, 115200, Note_on_c, 0, 53, 86
1, 115200, Note_on_c, 0, 57, 86
1, 115200, Note_on_c, 0, 62, 84
1, 115200, Note_on_c, 1, 38, 98
1, 115200, Note_on_c, 8, 77, 104
1, 115200, Note_on_c, 8, 81, 88
1, 115200, Note_on_c, 8, 86, 80
1, 115200, Note_on_c, 9, 42, 117
1, 115200, Note_on_c, 9, 36, 127
1, 115394, Note_on_c, 9, 36, 0
1, 115429, Note_on_c, 9, 42, 0
1, 115440, Note_on_c, 9, 44, 77
1, 115610, Note_on_c, 9, 44, 0
1, 115680, Note_on_c, 9, 36, 126
1, 115684, Note_on_c, 9, 42, 117
1, 115914, Note_on_c, 9, 36, 0
1, 115918, Note_on_c, 9, 42, 0
1, 115920, Note_on_c, 9, 44, 77
1, 116097, Note_on_c, 9, 44, 0
1, 116160, Note_on_c, 9, 38, 83
1, 116162, Note_on_c, 2, 74, 88
1, 116162, Note_on_c, 2, 65, 80
1, 116162, Note_on_c, 2, 69, 106
1, 116164, Note_on_c, 9, 42, 117
1, 116318, Note_on_c, 2, 69, 0
1, 116331, Note_on_c, 2, 65, 0
1, 116359, Note_on_c, 9, 38, 0
1, 116362, Note_on_c, 9, 42, 0
1, 116375, Note_on_c, 2, 74, 0
1, 116400, Note_on_c, 1, 38, 0
1, 116400, Note_on_c, 9, 44, 77
1, 116572, Note_on_c, 9, 44, 0
1, 116644, Note_on_c, 9, 42, 117
1, 116844, Note_on_c, 9, 42, 0
1, 116880, Note_on_c, 1, 38, 92
1, 116880, Note_on_c, 2, 74, 90
1, 116880, Note_on_c, 2, 65, 95
1, 116880, Note_on_c, 9, 36, 127
1, 116882, Note_on_c, 2, 69, 106
1, 116882, Note_on_c, 9, 44, 76
1, 116996, Note_on_c, 2, 69, 0
1, 116999, Note_on_c, 2, 65, 0
1, 117020, Note_on_c, 9, 44, 0
1, 117023, Note_on_c, 2, 74, 0
1, 117055, Note_on_c, 1, 38, 0
1, 117072, Note_on_c, 9, 36, 0
1, 117124, Note_on_c, 9, 42, 117
1, 117305, Note_on_c, 9, 42, 0
1, 117360, Note_on_c, 1, 38, 84
1, 117360, Note_on_c, 2, 69, 98
1, 117360, Note_on_c, 9, 44, 76
1, 117360, Note_on_c, 9, 36, 82
1, 117362, Note_on_c, 2, 65, 84
1, 117362, Note_on_c, 2, 74, 74
1, 117443, Note_on_c, 2, 69, 0
1, 117446, Note_on_c, 2, 74, 0
1, 117449, Note_on_c, 2, 65, 0
1, 117456, Note_on_c, 9, 36, 0
1, 117481, Note_on_c, 1, 38, 0
1, 117519, Note_on_c, 9, 44, 0
1, 117600, Note_on_c, 1, 38, 98
1, 117600, Note_on_c, 9, 42, 117
1, 117600, Note_on_c, 9, 36, 127
1, 117602, Note_on_c, 2, 65, 92
1, 117602, Note_on_c, 2, 74, 101
1, 117602, Note_on_c, 2, 69, 104
1, 117783, Note_on_c, 9, 42, 0
1, 117794, Note_on_c, 9, 36, 0
1, 117840, Note_on_c, 9, 44, 76
1, 117967, Note_on_c, 9, 44, 0
1, 118080, Note_on_c, 9, 38, 83
1, 118080, Note_on_c, 9, 42, 117
1, 118094, Note_on_c, 1, 38, 0
1, 118259, Note_on_c, 9, 42, 0
1, 118296, Note_on_c, 9, 38, 0
1, 118320, Note_on_c, 9, 44, 77
1, 118470, Note_on_c, 9, 44, 0
1, 118505, Note_on_c, 2, 69, 0
1, 118521, Note_on_c, 2, 65, 0
1, 118535, Note_on_c, 2, 74, 0
1, 118560, Note_on_c, 1, 45, 98
1, 118560, Note_on_c, 9, 42, 117
1, 118739, Note_on_c, 1, 45, 0
1, 118743, Note_on_c, 9, 42, 0
1, 118800, Note_on_c, 9, 44, 78
1, 118941, Note_on_c, 9, 44, 0
1, 119040, Note_on_c, 8, 81, 0
1, 119040, Note_on_c, 0, 62, 0
1, 119040, Note_on_c, 0, 57, 0
1, 119040, Note_on_c, 8, 77, 0
1, 119040, Note_on_c, 0, 53, 0
1, 119040, Note_on_c, 8, 86, 0
1, 119040, Note_on_c, 0, 53, 88
1, 119040, Note_on_c, 0, 58, 98
1, 119040, Note_on_c, 0, 62, 82
1, 119040, Note_on_c, 1, 46, 101
1, 119040, Note_on_c, 8, 77, 90
1, 119040, Note_on_c, 8, 82, 101
1, 119040, Note_on_c, 8, 86, 80
1, 119040, Note_on_c, 9, 42, 117
1, 119040, Note_on_c, 9, 36, 127
1, 119228, Note_on_c, 9, 36, 0
1, 119269, Note_on_c, 9, 42, 0
1, 119280, Note_on_c, 9, 44, 77
1, 119450, Note_on_c, 9, 44, 0
1, 119520, Note_on_c, 9, 36, 126
1, 119524, Note_on_c, 9, 42, 117
1, 119694, Note_on_c, 9, 36, 0
1, 119758, Note_on_c, 9, 42, 0
1, 119760, Note_on_c, 9, 44, 77
1, 119937, Note_on_c, 9, 44, 0
1, 120000, Note_on_c, 9, 38, 84
1, 120002, Note_on_c, 2, 70, 101
1, 120002, Note_on_c, 2, 74, 82
1, 120002, Note_on_c, 2, 65, 92
1, 120004, Note_on_c, 9, 42, 117
1, 120162, Note_on_c, 2, 65, 0
1, 120187, Note_on_c, 9, 38, 0
1, 120190, Note_on_c, 2, 70, 0
1, 120202, Note_on_c, 9, 42, 0
1, 120215, Note_on_c, 2, 74, 0
1, 120240, Note_on_c, 1, 46, 0
1, 120240, Note_on_c, 9, 44, 77
1, 120412, Note_on_c, 9, 44, 0
1, 120484, Note_on_c, 9, 42, 117
1, 120684, Note_on_c, 9, 42, 0
1, 120720, Note_on_c, 1, 46, 117
1, 120720, Note_on_c, 2, 65, 82
1, 120720, Note_on_c, 2, 70, 101
1, 120720, Note_on_c, 2, 74, 67
1, 120720, Note_on_c, 9, 36, 125
1, 120722, Note_on_c, 9, 44, 76
1, 120843, Note_on_c, 2, 70, 0
1, 120845, Note_on_c, 2, 65, 0
1, 120848, Note_on_c, 2, 74, 0
1, 120860, Note_on_c, 9, 44, 0
1, 120879, Note_on_c, 9, 36, 0
1, 120889, Note_on_c, 1, 46, 0
1, 120964, Note_on_c, 9, 42, 117
1, 121145, Note_on_c, 9, 42, 0
1, 121200, Note_on_c, 1, 46, 92
1, 121200, Note_on_c, 2, 74, 80
1, 121200, Note_on_c, 2, 70, 109
1, 121200, Note_on_c, 2, 65, 80
1, 121200, Note_on_c, 9, 36, 81
1, 121200, Note_on_c, 9, 44, 76
1, 121274, Note_on_c, 1, 46, 0
1, 121276, Note_on_c, 2, 70, 0
1, 121299, Note_on_c, 9, 36, 0
1, 121300, Note_on_c, 2, 65, 0
1, 121303, Note_on_c, 2, 74, 0
1, 121359, Note_on_c, 9, 44, 0
1, 121440, Note_on_c, 1, 46, 101
1, 121440, Note_on_c, 2, 74, 104
1, 121440, Note_on_c, 2, 70, 117
1, 121440, Note_on_c, 2, 65, 98
1, 121440, Note_on_c, 9, 42, 117
1, 121440, Note_on_c, 9, 36, 125
1, 121580, Note_on_c, 9, 36, 0
1, 121623, Note_on_c, 9, 42, 0
1, 121680, Note_on_c, 9, 44, 76
1, 121807, Note_on_c, 9, 44, 0
1, 121920, Note_on_c, 9, 42, 117
1, 121920, Note_on_c, 9, 38, 86
1, 121953, Note_on_c, 1, 46, 0
1, 122083, Note_on_c, 9, 38, 0
1, 122099, Note_on_c, 9, 42, 0
1, 122160, Note_on_c, 9, 44, 77
1, 122310, Note_on_c, 9, 44, 0
1, 122400, Note_on_c, 1, 48, 98
1, 122400, Note_on_c, 9, 42, 117
1, 122426, Note_on_c, 2, 70, 0
1, 122440, Note_on_c, 2, 65, 0
1, 122492, Note_on_c, 2, 74, 0
1, 122583, Note_on_c, 9, 42, 0
1, 122640, Note_on_c, 1, 50, 92
1, 122640, Note_on_c, 9, 44, 78
1, 122649, Note_on_c, 1, 48, 0
1, 122781, Note_on_c, 9, 44, 0
1, 122832, Note_on_c, 1, 50, 0
1, 122865, Note_on_c, 8, 86, 0
1, 122876, Note_on_c, 0, 62, 0
1, 122880, Note_on_c, 0, 58, 0
1, 122880, Note_on_c, 8, 77, 0
1, 122880, Note_on_c, 8, 82, 0
1, 122880, Note_on_c, 0, 53, 0
1, 122880, Note_on_c, 0, 53, 88
1, 122880, Note_on_c, 0, 57, 92
1, 122880, Note_on_c, 0, 60, 90
1, 122880, Note_on_c, 1, 41, 104
1, 122880, Note_on_c, 8, 77, 92
1, 122880, Note_on_c, 8, 81, 101
1, 122880, Note_on_c, 8, 84, 106
1, 122880, Note_on_c, 9, 42, 117
1, 122880, Note_on_c, 9, 36, 127
1, 123074, Note_on_c, 9, 36, 0
1, 123109, Note_on_c, 9, 42, 0
1, 123120, Note_on_c, 9, 44, 77
1, 123290, Note_on_c, 9, 44, 0
1, 123360, Note_on_c, 9, 36, 126
1, 123364, Note_on_c, 9, 42, 117
1, 123594, Note_on_c, 9, 36, 0
1, 123598, Note_on_c, 9, 42, 0
1, 123600, Note_on_c, 9, 44, 77
1, 123777, Note_on_c, 9, 44, 0
1, 123840, Note_on_c, 2, 77, 88
1, 123840, Note_on_c, 2, 72, 98
1, 123840, Note_on_c, 2, 69, 80
1, 123840, Note_on_c, 9, 38, 83
1, 123844, Note_on_c, 9, 42, 117
1, 123975, Note_on_c, 2, 69, 0
1, 124003, Note_on_c, 2, 72, 0
1, 124039, Note_on_c, 9, 38, 0
1, 124039, Note_on_c, 2, 77, 0
1, 124042, Note_on_c, 9, 42, 0
1, 124080, Note_on_c, 1, 41, 0
1, 124080, Note_on_c, 9, 44, 77
1, 124252, Note_on_c, 9, 44, 0
1, 124324, Note_on_c, 9, 42, 117
1, 124524, Note_on_c, 9, 42, 0
1, 124560, Note_on_c, 1, 41, 109
1, 124560, Note_on_c, 2, 77, 84
1, 124560, Note_on_c, 2, 72, 98
1, 124560, Note_on_c, 2, 69, 88
1, 124560, Note_on_c, 2, 72, 86
1, 124560, Note_on_c, 2, 77, 104
1, 124560, Note_on_c, 9, 36, 127
1, 124562, Note_on_c, 9, 44, 76
1, 124684, Note_on_c, 2, 69, 0
1, 124687, Note_on_c, 2, 72, 0
1, 124700, Note_on_c, 9, 44, 0
1, 124711, Note_on_c, 2, 77, 0
1, 124752, Note_on_c, 9, 36, 0
1, 124789, Note_on_c, 1, 41, 0
1, 124800, Note_on_c, 2, 81, 92
1, 124804, Note_on_c, 9, 42, 117
1, 124889, Note_on_c, 2, 77, 0
1, 124933, Note_on_c, 2, 81, 0
1, 124937, Note_on_c, 2, 72, 0
1, 124985, Note_on_c, 9, 42, 0
1, 125040, Note_on_c, 1, 41, 88
1, 125040, Note_on_c, 2, 77, 82
1, 125040, Note_on_c, 2, 72, 90
1, 125040, Note_on_c, 2, 69, 80
1, 125040, Note_on_c, 2, 81, 88
1, 125040, Note_on_c, 2, 72, 50
1, 125040, Note_on_c, 9, 36, 82
1, 125040, Note_on_c, 9, 44, 76
1, 125119, Note_on_c, 2, 72, 0
1, 125129, Note_on_c, 2, 69, 0
1, 125132, Note_on_c, 1, 41, 0
1, 125136, Note_on_c, 9, 36, 0
1, 125146, Note_on_c, 2, 77, 0
1, 125152, Note_on_c, 2, 72, 0
1, 125169, Note_on_c, 2, 81, 0
1, 125199, Note_on_c, 9, 44, 0
1, 125280, Note_on_c, 1, 41, 98
1, 125280, Note_on_c, 2, 77, 84
1, 125280, Note_on_c, 2, 72, 67
1, 125280, Note_on_c, 2, 81, 88
1, 125280, Note_on_c, 2, 69, 84
1, 125280, Note_on_c, 2, 72, 98
1, 125280, Note_on_c, 9, 42, 117
1, 125280, Note_on_c, 9, 36, 127
1, 125399, Note_on_c, 2, 72, 0
1, 125401, Note_on_c, 2, 81, 0
1, 125463, Note_on_c, 9, 42, 0
1, 125474, Note_on_c, 9, 36, 0
1, 125520, Note_on_c, 2, 72, 54
1, 125520, Note_on_c, 2, 81, 80
1, 125520, Note_on_c, 9, 44, 76
1, 125645, Note_on_c, 2, 81, 0
1, 125645, Note_on_c, 2, 72, 0
1, 125647, Note_on_c, 9, 44, 0
1, 125760, Note_on_c, 2, 72, 70
1, 125760, Note_on_c, 2, 81, 98
1, 125760, Note_on_c, 9, 38, 83
1, 125760, Note_on_c, 9, 42, 117
1, 125768, Note_on_c, 1, 41, 0
1, 125877, Note_on_c, 2, 81, 0
1, 125884, Note_on_c, 2, 72, 0
1, 125939, Note_on_c, 9, 42, 0
1, 125976, Note_on_c, 9, 38, 0
1, 126000, Note_on_c, 2, 72, 60
1, 126000, Note_on_c, 2, 81, 80
1, 126000, Note_on_c, 9, 44, 77
1, 126150, Note_on_c, 9, 44, 0
1, 126214, Note_on_c, 2, 81, 0
1, 126225, Note_on_c, 2, 72, 0
1, 126240, Note_on_c, 1, 43, 98
1, 126240, Note_on_c, 2, 81, 59
1, 126240, Note_on_c, 2, 79, 104
1, 126240, Note_on_c, 9, 42, 117
1, 126254, Note_on_c, 2, 69, 0
1, 126282, Note_on_c, 2, 81, 0
1, 126282, Note_on_c, 2, 77, 0
1, 126423, Note_on_c, 9, 42, 0
1, 126432, Note_on_c, 1, 43, 0
1, 126433, Note_on_c, 2, 79, 0
1, 126480, Note_on_c, 9, 44, 78
1, 126482, Note_on_c, 2, 72, 0
1, 126621, Note_on_c, 9, 44, 0
1, 126720, Note_on_c, 8, 84, 0
1, 126720, Note_on_c, 8, 77, 0
1, 126720, Note_on_c, 0, 57, 0
1, 126720, Note_on_c, 8, 81, 0
1, 126720, Note_on_c, 0, 60, 0
1, 126720, Note_on_c, 0, 53, 0
1, 126720, Note_on_c, 0, 52, 86
1, 126720, Note_on_c, 0, 57, 82
1, 126720, Note_on_c, 0, 60, 80
1, 126720, Note_on_c, 1, 45, 104
1, 126720, Note_on_c, 8, 88, 95
1, 126720, Note_on_c, 8, 84, 92
1, 126720, Note_on_c, 8, 81, 88
1, 126720, Note_on_c, 9, 42, 117
1, 126720, Note_on_c, 9, 36, 127
1, 126908, Note_on_c, 9, 36, 0
1, 126949, Note_on_c, 9, 42, 0
1, 126960, Note_on_c, 9, 44, 77
1, 127130, Note_on_c, 9, 44, 0
1, 127200, Note_on_c, 9, 36, 126
1, 127204, Note_on_c, 9, 42, 117
1, 127374, Note_on_c, 9, 36, 0
1, 127438, Note_on_c, 9, 42, 0
1, 127440, Note_on_c, 9, 44, 77
1, 127617, Note_on_c, 9, 44, 0
1, 127680, Note_on_c, 2, 76, 92
1, 127680, Note_on_c, 2, 72, 98
1, 127680, Note_on_c, 2, 69, 88
1, 127680, Note_on_c, 9, 38, 84
1, 127684, Note_on_c, 9, 42, 117
1, 127817, Note_on_c, 2, 69, 0
1, 127830, Note_on_c, 2, 72, 0
1, 127860, Note_on_c, 2, 76, 0
1, 127867, Note_on_c, 9, 38, 0
1, 127882, Note_on_c, 9, 42, 0
1, 127920, Note_on_c, 1, 45, 0
1, 127920, Note_on_c, 9, 44, 77
1, 128092, Note_on_c, 9, 44, 0
1, 128164, Note_on_c, 9, 42, 117
1, 128364, Note_on_c, 9, 42, 0
1, 128400, Note_on_c, 1, 45, 98
1, 128400, Note_on_c, 2, 69, 80
1, 128400, Note_on_c, 2, 72, 84
1, 128400, Note_on_c, 2, 72, 88
1, 128400, Note_on_c, 2, 76, 92
1, 128400, Note_on_c, 2, 76, 73
1, 128400, Note_on_c, 9, 36, 125
1, 128402, Note_on_c, 9, 44, 76
1, 128527, Note_on_c, 2, 69, 0
1, 128532, Note_on_c, 2, 76, 0
1, 128534, Note_on_c, 2, 72, 0
1, 128540, Note_on_c, 9, 44, 0
1, 128559, Note_on_c, 9, 36, 0
1, 128597, Note_on_c, 1, 45, 0
1, 128640, Note_on_c, 2, 79, 104
1, 128644, Note_on_c, 9, 42, 117
1, 128710, Note_on_c, 2, 76, 0
1, 128776, Note_on_c, 2, 79, 0
1, 128808, Note_on_c, 2, 72, 0
1, 128825, Note_on_c, 9, 42, 0
1, 128880, Note_on_c, 1, 45, 84
1, 128880, Note_on_c, 2, 79, 76
1, 128880, Note_on_c, 2, 72, 40
1, 128880, Note_on_c, 9, 36, 81
1, 128880, Note_on_c, 9, 44, 76
1, 128882, Note_on_c, 2, 69, 68
1, 128882, Note_on_c, 2, 72, 88
1, 128882, Note_on_c, 2, 76, 74
1, 128965, Note_on_c, 2, 76, 0
1, 128965, Note_on_c, 2, 69, 0
1, 128966, Note_on_c, 2, 72, 0
1, 128969, Note_on_c, 1, 45, 0
1, 128979, Note_on_c, 9, 36, 0
1, 129004, Note_on_c, 2, 79, 0
1, 129029, Note_on_c, 2, 72, 0
1, 129039, Note_on_c, 9, 44, 0
1, 129120, Note_on_c, 1, 45, 88
1, 129120, Note_on_c, 2, 72, 41
1, 129120, Note_on_c, 2, 79, 80
1, 129120, Note_on_c, 9, 36, 125
1, 129120, Note_on_c, 9, 42, 117
1, 129122, Note_on_c, 2, 69, 95
1, 129122, Note_on_c, 2, 76, 95
1, 129122, Note_on_c, 2, 72, 90
1, 129247, Note_on_c, 2, 79, 0
1, 129260, Note_on_c, 9, 36, 0
1, 129262, Note_on_c, 2, 72, 0
1, 129303, Note_on_c, 9, 42, 0
1, 129360, Note_on_c, 2, 72, 41
1, 129360, Note_on_c, 2, 79, 92
1, 129360, Note_on_c, 9, 44, 76
1, 129484, Note_on_c, 2, 79, 0
1, 129487, Note_on_c, 9, 44, 0
1, 129502, Note_on_c, 2, 72, 0
1, 129600, Note_on_c, 2, 79, 92
1, 129600, Note_on_c, 2, 72, 45
1, 129600, Note_on_c, 9, 42, 117
1, 129600, Note_on_c, 9, 38, 86
1, 129666, Note_on_c, 1, 45, 0
1, 129711, Note_on_c, 2, 79, 0
1, 129733, Note_on_c, 2, 72, 0
1, 129763, Note_on_c, 9, 38, 0
1, 129779, Note_on_c, 9, 42, 0
1, 129840, Note_on_c, 2, 79, 92
1, 129840, Note_on_c, 2, 72, 49
1, 129840, Note_on_c, 9, 44, 77
1, 129990, Note_on_c, 9, 44, 0
1, 129993, Note_on_c, 2, 79, 0
1, 130054, Note_on_c, 2, 76, 0
1, 130054, Note_on_c, 2, 72, 0
1, 130058, Note_on_c, 2, 69, 0
1, 130080, Note_on_c, 1, 48, 109
1, 130080, Note_on_c, 2, 77, 117
1, 130080, Note_on_c, 9, 42, 117
1, 130255, Note_on_c, 2, 77, 0
1, 130262, Note_on_c, 1, 48, 0
1, 130263, Note_on_c, 9, 42, 0
1, 130288, Note_on_c, 2, 72, 0
1, 130320, Note_on_c, 9, 44, 78
1, 130461, Note_on_c, 9, 44, 0
1, 130560, Note_on_c, 0, 52, 0
1, 130560, Note_on_c, 8, 84, 0
1, 130560, Note_on_c, 0, 60, 0
1, 130560, Note_on_c, 0, 57, 0
1, 130560, Note_on_c, 8, 81, 0
1, 130560, Note_on_c, 8, 88, 0
1, 130560, Note_on_c, 0, 53, 86
1, 130560, Note_on_c, 0, 57, 86
1, 130560, Note_on_c, 0, 62, 84
1, 130560, Note_on_c, 1, 38, 98
1, 130560, Note_on_c, 8, 77, 104
1, 130560, Note_on_c, 8, 81, 88
1, 130560, Note_on_c, 8, 86, 80
1, 130560, Note_on_c, 9, 36, 127
1, 130560, Note_on_c, 9, 42, 117
1, 130754, Note_on_c, 9, 36, 0
1, 130789, Note_on_c, 9, 42, 0
1, 130800, Note_on_c, 9, 44, 77
1, 130970, Note_on_c, 9, 44, 0
1, 131040, Note_on_c, 9, 36, 126
1, 131044, Note_on_c, 9, 42, 117
1, 131274, Note_on_c, 9, 36, 0
1, 131278, Note_on_c, 9, 42, 0
1, 131280, Note_on_c, 9, 44, 77
1, 131457, Note_on_c, 9, 44, 0
1, 131520, Note_on_c, 9, 38, 83
1, 131522, Note_on_c, 2, 74, 88
1, 131522, Note_on_c, 2, 69, 106
1, 131522, Note_on_c, 2, 65, 80
1, 131524, Note_on_c, 9, 42, 117
1, 131678, Note_on_c, 2, 69, 0
1, 131691, Note_on_c, 2, 65, 0
1, 131719, Note_on_c, 9, 38, 0
1, 131722, Note_on_c, 9, 42, 0
1, 131735, Note_on_c, 2, 74, 0
1, 131760, Note_on_c, 1, 38, 0
1, 131760, Note_on_c, 9, 44, 77
1, 131932, Note_on_c, 9, 44, 0
1, 132004, Note_on_c, 9, 42, 117
1, 132204, Note_on_c, 9, 42, 0
1, 132240, Note_on_c, 1, 38, 92
1, 132240, Note_on_c, 2, 74, 90
1, 132240, Note_on_c, 2, 65, 95
1, 132240, Note_on_c, 9, 36, 127
1, 132242, Note_on_c, 2, 69, 106
1, 132242, Note_on_c, 9, 44, 76
1, 132356, Note_on_c, 2, 69, 0
1, 132359, Note_on_c, 2, 65, 0
1, 132380, Note_on_c, 9, 44, 0
1, 132383, Note_on_c, 2, 74, 0
1, 132415, Note_on_c, 1, 38, 0
1, 132432, Note_on_c, 9, 36, 0
1, 132484, Note_on_c, 9, 42, 117
1, 132665, Note_on_c, 9, 42, 0
1, 132720, Note_on_c, 1, 38, 84
1, 132720, Note_on_c, 2, 69, 98
1, 132720, Note_on_c, 9, 44, 76
1, 132720, Note_on_c, 9, 36, 82
1, 132722, Note_on_c, 2, 65, 84
1, 132722, Note_on_c, 2, 74, 74
1, 132803, Note_on_c, 2, 69, 0
1, 132806, Note_on_c, 2, 74, 0
1, 132809, Note_on_c, 2, 65, 0
1, 132816, Note_on_c, 9, 36, 0
1, 132841, Note_on_c, 1, 38, 0
1, 132879, Note_on_c, 9, 44, 0
1, 132960, Note_on_c, 1, 38, 98
1, 132960, Note_on_c, 9, 36, 127
1, 132960, Note_on_c, 9, 42, 117
1, 132962, Note_on_c, 2, 65, 92
1, 132962, Note_on_c, 2, 74, 101
1, 132962, Note_on_c, 2, 69, 104
1, 133143, Note_on_c, 9, 42, 0
1, 133154, Note_on_c, 9, 36, 0
1, 133200, Note_on_c, 9, 44, 76
1, 133327, Note_on_c, 9, 44, 0
1, 133440, Note_on_c, 9, 42, 117
1, 133440, Note_on_c, 9, 38, 83
1, 133454, Note_on_c, 1, 38, 0
1, 133619, Note_on_c, 9, 42, 0
1, 133656, Note_on_c, 9, 38, 0
1, 133680, Note_on_c, 9, 44, 77
1, 133830, Note_on_c, 9, 44, 0
1, 133865, Note_on_c, 2, 69, 0
1, 133881, Note_on_c, 2, 65, 0
1, 133895, Note_on_c, 2, 74, 0
1, 133920, Note_on_c, 1, 45, 98
1, 133920, Note_on_c, 9, 42, 117
1, 134099, Note_on_c, 1, 45, 0
1, 134103, Note_on_c, 9, 42, 0
1, 134160, Note_on_c, 9, 44, 78
1, 134301, Note_on_c, 9, 44, 0
1, 134400, Note_on_c, 8, 81, 0
1, 134400, Note_on_c, 0, 62, 0
1, 134400, Note_on_c, 0, 57, 0
1, 134400, Note_on_c, 8, 77, 0
1, 134400, Note_on_c, 0, 53, 0
1, 134400, Note_on_c, 8, 86, 0
1, 136320, Note_on_c, 10, 53, 109
1, 136800, Note_on_c, 0, 62, 88
1, 136800, Note_on_c, 0, 58, 101
1, 136800, Note_on_c, 0, 53, 104
1, 136800, Note_on_c, 1, 46, 127
1, 136800, Note_on_c, 2, 62, 88
1, 136800, Note_on_c, 2, 58, 101
1, 136800, Note_on_c, 2, 53, 104
1, 136800, Note_on_c, 7, 62, 88
1, 136800, Note_on_c, 7, 58, 101
1, 136800, Note_on_c, 7, 53, 104
1, 136800, Note_on_c, 8, 62, 88
1, 136800, Note_on_c, 8, 58, 101
1, 136800, Note_on_c, 8, 53, 104
1, 137280, Note_on_c, 8, 53, 0
1, 137280, Note_on_c, 1, 46, 0
1, 137280, Note_on_c, 2, 62, 0
1, 137280, Note_on_c, 0, 62, 0
1, 137280, Note_on_c, 2, 53, 0
1, 137280, Note_on_c, 0, 58, 0
1, 137280, Note_on_c, 0, 53, 0
1, 137280, Note_on_c, 7, 58, 0
1, 137280, Note_on_c, 8, 62, 0
1, 137280, Note_on_c, 7, 53, 0
1, 137280, Note_on_c, 7, 62, 0
1, 137280, Note_on_c, 2, 58, 0
1, 137280, Note_on_c, 8, 58, 0
1, 138240, Note_on_c, 10, 53, 0
1, 138240, Note_on_c, 0, 53, 88
1, 138240, Note_on_c, 0, 57, 92
1, 138240, Note_on_c, 0, 60, 90
1, 138240, Note_on_c, 1, 41, 104
1, 138240, Note_on_c, 3, 53, 88
1, 138240, Note_on_c, 3, 57, 92
1, 138240, Note_on_c, 3, 60, 90
1, 138240, Note_on_c, 7, 53, 88
1, 138240, Note_on_c, 7, 57, 92
1, 138240, Note_on_c, 7, 60, 90
1, 138240, Note_on_c, 8, 77, 92
1, 138240, Note_on_c, 8, 81, 101
1, 138240, Note_on_c, 8, 84, 106
1, 138240, Note_on_c, 9, 36, 127
1, 138240, Note_on_c, 9, 42, 117
1, 138240, Note_on_c, 9, 53, 68
1, 138434, Note_on_c, 9, 36, 0
1, 138469, Note_on_c, 9, 42, 0
1, 138480, Note_on_c, 9, 44, 77
1, 138544, Note_on_c, 9, 53, 0
1, 138650, Note_on_c, 9, 44, 0
1, 138720, Note_on_c, 9, 36, 126
1, 138724, Note_on_c, 9, 42, 117
1, 138954, Note_on_c, 9, 36, 0
1, 138958, Note_on_c, 9, 42, 0
1, 138960, Note_on_c, 9, 44, 77
1, 139137, Note_on_c, 9, 44, 0
1, 139200, Note_on_c, 2, 77, 88
1, 139200, Note_on_c, 2, 69, 80
1, 139200, Note_on_c, 2, 72, 98
1, 139200, Note_on_c, 9, 38, 83
1, 139200, Note_on_c, 9, 53, 70
1, 139204, Note_on_c, 9, 42, 117
1, 139335, Note_on_c, 2, 69, 0
1, 139363, Note_on_c, 2, 72, 0
1, 139399, Note_on_c, 9, 38, 0
1, 139399, Note_on_c, 2, 77, 0
1, 139402, Note_on_c, 9, 42, 0
1, 139440, Note_on_c, 1, 41, 0
1, 139440, Note_on_c, 9, 44, 77
1, 139470, Note_on_c, 9, 53, 0
1, 139612, Note_on_c, 9, 44, 0
1, 139684, Note_on_c, 9, 42, 117
1, 139884, Note_on_c, 9, 42, 0
1, 139920, Note_on_c, 1, 41, 109
1, 139920, Note_on_c, 2, 77, 84
1, 139920, Note_on_c, 2, 69, 88
1, 139920, Note_on_c, 2, 72, 98
1, 139920, Note_on_c, 9, 36, 127
1, 139922, Note_on_c, 9, 44, 76
1, 140044, Note_on_c, 2, 69, 0
1, 140047, Note_on_c, 2, 72, 0
1, 140060, Note_on_c, 9, 44, 0
1, 140071, Note_on_c, 2, 77, 0
1, 140112, Note_on_c, 9, 36, 0
1, 140149, Note_on_c, 1, 41, 0
1, 140160, Note_on_c, 9, 53, 70
1, 140164, Note_on_c, 9, 42, 117
1, 140345, Note_on_c, 9, 42, 0
1, 140379, Note_on_c, 9, 53, 0
1, 140400, Note_on_c, 1, 41, 88
1, 140400, Note_on_c, 2, 77, 82
1, 140400, Note_on_c, 2, 69, 80
1, 140400, Note_on_c, 2, 72, 90
1, 140400, Note_on_c, 9, 36, 82
1, 140400, Note_on_c, 9, 44, 76
1, 140479, Note_on_c, 2, 72, 0
1, 140489, Note_on_c, 2, 69, 0
1, 140492, Note_on_c, 1, 41, 0
1, 140496, Note_on_c, 9, 36, 0
1, 140506, Note_on_c, 2, 77, 0
1, 140559, Note_on_c, 9, 44, 0
1, 140640, Note_on_c, 1, 41, 98
1, 140640, Note_on_c, 2, 77, 84
1, 140640, Note_on_c, 2, 69, 84
1, 140640, Note_on_c, 2, 72, 98
1, 140640, Note_on_c, 9, 36, 127
1, 140640, Note_on_c, 9, 42, 117
1, 140823, Note_on_c, 9, 42, 0
1, 140834, Note_on_c, 9, 36, 0
1, 140880, Note_on_c, 9, 44, 76
1, 141007, Note_on_c, 9, 44, 0
1, 141120, Note_on_c, 9, 38, 83
1, 141120, Note_on_c, 9, 42, 117
1, 141120, Note_on_c, 9, 53, 70
1, 141128, Note_on_c, 1, 41, 0
1, 141299, Note_on_c, 9, 42, 0
1, 141336, Note_on_c, 9, 38, 0
1, 141360, Note_on_c, 9, 44, 77
1, 141399, Note_on_c, 9, 53, 0
1, 141510, Note_on_c, 9, 44, 0
1, 141585, Note_on_c, 2, 72, 0
1, 141600, Note_on_c, 1, 43, 98
1, 141600, Note_on_c, 9, 42, 117
1, 141614, Note_on_c, 2, 69, 0
1, 141642, Note_on_c, 2, 77, 0
1, 141783, Note_on_c, 9, 42, 0
1, 141792, Note_on_c, 1, 43, 0
1, 141840, Note_on_c, 9, 44, 78
1, 141981, Note_on_c, 9, 44, 0
1, 142080, Note_on_c, 3, 60, 0
1, 142080, Note_on_c, 0, 57, 0
1, 142080, Note_on_c, 7, 57, 0
1, 142080, Note_on_c, 0, 60, 0
1, 142080, Note_on_c, 3, 53, 0
1, 142080, Note_on_c, 8, 77, 0
1, 142080, Note_on_c, 0, 53, 0
1, 142080, Note_on_c, 7, 53, 0
1, 142080, Note_on_c, 7, 60, 0
1, 142080, Note_on_c, 8, 81, 0
1, 142080, Note_on_c, 8, 84, 0
1, 142080, Note_on_c, 3, 57, 0
1, 142080, Note_on_c, 0, 52, 86
1, 142080, Note_on_c, 0, 57, 82
1, 142080, Note_on_c, 0, 60, 80
1, 142080, Note_on_c, 1, 45, 104
1, 142080, Note_on_c, 3, 52, 86
1, 142080, Note_on_c, 3, 57, 82
1, 142080, Note_on_c, 3, 60, 80
1, 142080, Note_on_c, 7, 52, 86
1, 142080, Note_on_c, 7, 57, 82
1, 142080, Note_on_c, 7, 60, 80
1, 142080, Note_on_c, 8, 88, 95
1, 142080, Note_on_c, 8, 84, 92
1, 142080, Note_on_c, 8, 81, 88
1, 142080, Note_on_c, 9, 42, 117
1, 142080, Note_on_c, 9, 53, 70
1, 142080, Note_on_c, 9, 36, 127
1, 142268, Note_on_c, 9, 36, 0
1, 142309, Note_on_c, 9, 42, 0
1, 142320, Note_on_c, 9, 44, 77
1, 142337, Note_on_c, 9, 53, 0
1, 142490, Note_on_c, 9, 44, 0
1, 142560, Note_on_c, 9, 36, 126
1, 142564, Note_on_c, 9, 42, 117
1, 142734, Note_on_c, 9, 36, 0
1, 142798, Note_on_c, 9, 42, 0
1, 142800, Note_on_c, 9, 44, 77
1, 142977, Note_on_c, 9, 44, 0
1, 143040, Note_on_c, 2, 76, 92
1, 143040, Note_on_c, 2, 72, 98
1, 143040, Note_on_c, 2, 69, 88
1, 143040, Note_on_c, 9, 53, 68
1, 143040, Note_on_c, 9, 38, 84
1, 143044, Note_on_c, 9, 42, 117
1, 143177, Note_on_c, 2, 69, 0
1, 143190, Note_on_c, 2, 72, 0
1, 143220, Note_on_c, 2, 76, 0
1, 143227, Note_on_c, 9, 38, 0
1, 143242, Note_on_c, 9, 42, 0
1, 143280, Note_on_c, 1, 45, 0
1, 143280, Note_on_c, 9, 44, 77
1, 143305, Note_on_c, 9, 53, 0
1, 143452, Note_on_c, 9, 44, 0
1, 143524, Note_on_c, 9, 42, 117
1, 143724, Note_on_c, 9, 42, 0
1, 143760, Note_on_c, 1, 45, 98
1, 143760, Note_on_c, 2, 69, 80
1, 143760, Note_on_c, 2, 72, 84
1, 143760, Note_on_c, 2, 76, 73
1, 143760, Note_on_c, 9, 36, 125
1, 143762, Note_on_c, 9, 44, 76
1, 143887, Note_on_c, 2, 69, 0
1, 143892, Note_on_c, 2, 76, 0
1, 143894, Note_on_c, 2, 72, 0
1, 143900, Note_on_c, 9, 44, 0
1, 143919, Note_on_c, 9, 36, 0
1, 143957, Note_on_c, 1, 45, 0
1, 144000, Note_on_c, 9, 53, 68
1, 144004, Note_on_c, 9, 42, 117
1, 144185, Note_on_c, 9, 42, 0
1, 144240, Note_on_c, 1, 45, 84
1, 144240, Note_on_c, 9, 36, 81
1, 144240, Note_on_c, 9, 44, 76
1, 144242, Note_on_c, 2, 72, 88
1, 144242, Note_on_c, 2, 76, 74
1, 144242, Note_on_c, 2, 69, 68
1, 144256, Note_on_c, 9, 53, 0
1, 144325, Note_on_c, 2, 69, 0
1, 144325, Note_on_c, 2, 76, 0
1, 144326, Note_on_c, 2, 72, 0
1, 144329, Note_on_c, 1, 45, 0
1, 144339, Note_on_c, 9, 36, 0
1, 144399, Note_on_c, 9, 44, 0
1, 144480, Note_on_c, 1, 45, 88
1, 144480, Note_on_c, 9, 36, 125
1, 144480, Note_on_c, 9, 42, 117
1, 144482, Note_on_c, 2, 76, 95
1, 144482, Note_on_c, 2, 69, 95
1, 144482, Note_on_c, 2, 72, 90
1, 144620, Note_on_c, 9, 36, 0
1, 144663, Note_on_c, 9, 42, 0
1, 144720, Note_on_c, 9, 44, 76
1, 144847, Note_on_c, 9, 44, 0
1, 144960, Note_on_c, 9, 38, 86
1, 144960, Note_on_c, 9, 42, 117
1, 144960, Note_on_c, 9, 53, 69
1, 145026, Note_on_c, 1, 45, 0
1, 145123, Note_on_c, 9, 38, 0
1, 145139, Note_on_c, 9, 42, 0
1, 145200, Note_on_c, 9, 44, 77
1, 145236, Note_on_c, 9, 53, 0
1, 145350, Note_on_c, 9, 44, 0
1, 145414, Note_on_c, 2, 76, 0
1, 145414, Note_on_c, 2, 72, 0
1, 145418, Note_on_c, 2, 69, 0
1, 145440, Note_on_c, 1, 48, 109
1, 145440, Note_on_c, 9, 42, 117
1, 145622, Note_on_c, 1, 48, 0
1, 145623, Note_on_c, 9, 42, 0
1, 145680, Note_on_c, 9, 44, 78
1, 145821, Note_on_c, 9, 44, 0
1, 145920, Note_on_c, 0, 52, 0
1, 145920, Note_on_c, 0, 57, 0
1, 145920, Note_on_c, 7, 57, 0
1, 145920, Note_on_c, 0, 60, 0
1, 145920, Note_on_c, 3, 52, 0
1, 145920, Note_on_c, 8, 84, 0
1, 145920, Note_on_c, 3, 57, 0
1, 145920, Note_on_c, 8, 88, 0
1, 145920, Note_on_c, 7, 60, 0
1, 145920, Note_on_c, 3, 60, 0
1, 145920, Note_on_c, 7, 52, 0
1, 145920, Note_on_c, 8, 81, 0
1, 145920, Note_on_c, 0, 53, 86
1, 145920, Note_on_c, 0, 57, 86
1, 145920, Note_on_c, 0, 62, 84
1, 145920, Note_on_c, 1, 38, 98
1, 145920, Note_on_c, 3, 53, 86
1, 145920, Note_on_c, 3, 57, 86
1, 145920, Note_on_c, 3, 62, 84
1, 145920, Note_on_c, 7, 53, 86
1, 145920, Note_on_c, 7, 57, 86
1, 145920, Note_on_c, 7, 62, 84
1, 145920, Note_on_c, 8, 77, 104
1, 145920, Note_on_c, 8, 81, 88
1, 145920, Note_on_c, 8, 86, 80
1, 145920, Note_on_c, 9, 53, 69
1, 145920, Note_on_c, 9, 42, 117
1, 145920, Note_on_c, 9, 36, 127
1, 146114, Note_on_c, 9, 36, 0
1, 146149, Note_on_c, 9, 42, 0
1, 146160, Note_on_c, 9, 44, 77
1, 146167, Note_on_c, 9, 53, 0
1, 146330, Note_on_c, 9, 44, 0
1, 146400, Note_on_c, 9, 36, 126
1, 146404, Note_on_c, 9, 42, 117
1, 146634, Note_on_c, 9, 36, 0
1, 146638, Note_on_c, 9, 42, 0
1, 146640, Note_on_c, 9, 44, 77
1, 146817, Note_on_c, 9, 44, 0
1, 146880, Note_on_c, 9, 53, 67
1, 146880, Note_on_c, 9, 38, 83
1, 146882, Note_on_c, 2, 74, 88
1, 146882, Note_on_c, 2, 65, 80
1, 146882, Note_on_c, 2, 69, 106
1, 146884, Note_on_c, 9, 42, 117
1, 147038, Note_on_c, 2, 69, 0
1, 147051, Note_on_c, 2, 65, 0
1, 147079, Note_on_c, 9, 38, 0
1, 147082, Note_on_c, 9, 42, 0
1, 147095, Note_on_c, 2, 74, 0
1, 147120, Note_on_c, 1, 38, 0
1, 147120, Note_on_c, 9, 44, 77
1, 147141, Note_on_c, 9, 53, 0
1, 147292, Note_on_c, 9, 44, 0
1, 147364, Note_on_c, 9, 42, 117
1, 147564, Note_on_c, 9, 42, 0
1, 147600, Note_on_c, 1, 38, 92
1, 147600, Note_on_c, 2, 74, 90
1, 147600, Note_on_c, 2, 65, 95
1, 147600, Note_on_c, 9, 36, 127
1, 147602, Note_on_c, 2, 69, 106
1, 147602, Note_on_c, 9, 44, 76
1, 147716, Note_on_c, 2, 69, 0
1, 147719, Note_on_c, 2, 65, 0
1, 147740, Note_on_c, 9, 44, 0
1, 147743, Note_on_c, 2, 74, 0
1, 147775, Note_on_c, 1, 38, 0
1, 147792, Note_on_c, 9, 36, 0
1, 147840, Note_on_c, 9, 53, 71
1, 147844, Note_on_c, 9, 42, 117
1, 148025, Note_on_c, 9, 42, 0
1, 148080, Note_on_c, 1, 38, 84
1, 148080, Note_on_c, 2, 69, 98
1, 148080, Note_on_c, 9, 44, 76
1, 148080, Note_on_c, 9, 36, 82
1, 148082, Note_on_c, 2, 65, 84
1, 148082, Note_on_c, 2, 74, 74
1, 148126, Note_on_c, 9, 53, 0
1, 148163, Note_on_c, 2, 69, 0
1, 148166, Note_on_c, 2, 74, 0
1, 148169, Note_on_c, 2, 65, 0
1, 148176, Note_on_c, 9, 36, 0
1, 148201, Note_on_c, 1, 38, 0
1, 148239, Note_on_c, 9, 44, 0
1, 148320, Note_on_c, 1, 38, 98
1, 148320, Note_on_c, 9, 42, 117
1, 148320, Note_on_c, 9, 36, 127
1, 148322, Note_on_c, 2, 74, 101
1, 148322, Note_on_c, 2, 65, 92
1, 148322, Note_on_c, 2, 69, 104
1, 148503, Note_on_c, 9, 42, 0
1, 148514, Note_on_c, 9, 36, 0
1, 148560, Note_on_c, 9, 44, 76
1, 148687, Note_on_c, 9, 44, 0
1, 148800, Note_on_c, 9, 53, 72
1, 148800, Note_on_c, 9, 38, 83
1, 148800, Note_on_c, 9, 42, 117
1, 148814, Note_on_c, 1, 38, 0
1, 148979, Note_on_c, 9, 42, 0
1, 149016, Note_on_c, 9, 38, 0
1, 149040, Note_on_c, 9, 44, 77
1, 149162, Note_on_c, 9, 53, 0
1, 149190, Note_on_c, 9, 44, 0
1, 149225, Note_on_c, 2, 69, 0
1, 149241, Note_on_c, 2, 65, 0
1, 149255, Note_on_c, 2, 74, 0
1, 149280, Note_on_c, 1, 45, 98
1, 149280, Note_on_c, 9, 42, 117
1, 149459, Note_on_c, 1, 45, 0
1, 149463, Note_on_c, 9, 42, 0
1, 149520, Note_on_c, 9, 44, 78
1, 149661, Note_on_c, 9, 44, 0
1, 149760, Note_on_c, 8, 77, 0
1, 149760, Note_on_c, 0, 57, 0
1, 149760, Note_on_c, 7, 57, 0
1, 149760, Note_on_c, 0, 62, 0
1, 149760, Note_on_c, 8, 86, 0
1, 149760, Note_on_c, 7, 53, 0
1, 149760, Note_on_c, 8, 81, 0
1, 149760, Note_on_c, 3, 53, 0
1, 149760, Note_on_c, 7, 62, 0
1, 149760, Note_on_c, 3, 62, 0
1, 149760, Note_on_c, 3, 57, 0
1, 149760, Note_on_c, 0, 53, 0
1, 149760, Note_on_c, 0, 53, 88
1, 149760, Note_on_c, 0, 58, 98
1, 149760, Note_on_c, 0, 62, 82
1, 149760, Note_on_c, 1, 46, 101
1, 149760, Note_on_c, 3, 53, 88
1, 149760, Note_on_c, 3, 58, 98
1, 149760, Note_on_c, 3, 62, 82
1, 149760, Note_on_c, 7, 53, 88
1, 149760, Note_on_c, 7, 58, 98
1, 149760, Note_on_c, 7, 62, 82
1, 149760, Note_on_c, 8, 77, 90
1, 149760, Note_on_c, 8, 82, 101
1, 149760, Note_on_c, 8, 86, 80
1, 149760, Note_on_c, 9, 53, 70
1, 149760, Note_on_c, 9, 36, 127
1, 149760, Note_on_c, 9, 42, 117
1, 149948, Note_on_c, 9, 36, 0
1, 149989, Note_on_c, 9, 42, 0
1, 150000, Note_on_c, 9, 44, 77
1, 150089, Note_on_c, 9, 53, 0
1, 150170, Note_on_c, 9, 44, 0
1, 150240, Note_on_c, 9, 36, 126
1, 150244, Note_on_c, 9, 42, 117
1, 150414, Note_on_c, 9, 36, 0
1, 150478, Note_on_c, 9, 42, 0
1, 150480, Note_on_c, 9, 44, 77
1, 150657, Note_on_c, 9, 44, 0
1, 150720, Note_on_c, 9, 53, 71
1, 150720, Note_on_c, 9, 38, 84
1, 150722, Note_on_c, 2, 74, 82
1, 150722, Note_on_c, 2, 70, 101
1, 150722, Note_on_c, 2, 65, 92
1, 150724, Note_on_c, 9, 42, 117
1, 150882, Note_on_c, 2, 65, 0
1, 150907, Note_on_c, 9, 38, 0
1, 150910, Note_on_c, 2, 70, 0
1, 150922, Note_on_c, 9, 42, 0
1, 150935, Note_on_c, 2, 74, 0
1, 150960, Note_on_c, 1, 46, 0
1, 150960, Note_on_c, 9, 44, 77
1, 151019, Note_on_c, 9, 53, 0
1, 151132, Note_on_c, 9, 44, 0
1, 151204, Note_on_c, 9, 42, 117
1, 151404, Note_on_c, 9, 42, 0
1, 151440, Note_on_c, 1, 46, 117
1, 151440, Note_on_c, 2, 70, 101
1, 151440, Note_on_c, 2, 65, 82
1, 151440, Note_on_c, 2, 74, 67
1, 151440, Note_on_c, 9, 36, 125
1, 151442, Note_on_c, 9, 44, 76
1, 151563, Note_on_c, 2, 70, 0
1, 151565, Note_on_c, 2, 65, 0
1, 151568, Note_on_c, 2, 74, 0
1, 151580, Note_on_c, 9, 44, 0
1, 151599, Note_on_c, 9, 36, 0
1, 151609, Note_on_c, 1, 46, 0
1, 151680, Note_on_c, 9, 53, 71
1, 151684, Note_on_c, 9, 42, 117
1, 151865, Note_on_c, 9, 42, 0
1, 151920, Note_on_c, 1, 46, 92
1, 151920, Note_on_c, 2, 65, 80
1, 151920, Note_on_c, 2, 74, 80
1, 151920, Note_on_c, 2, 70, 109
1, 151920, Note_on_c, 9, 44, 76
1, 151920, Note_on_c, 9, 36, 81
1, 151969, Note_on_c, 9, 53, 0
1, 151994, Note_on_c, 1, 46, 0
1, 151996, Note_on_c, 2, 70, 0
1, 152019, Note_on_c, 9, 36, 0
1, 152020, Note_on_c, 2, 65, 0
1, 152023, Note_on_c, 2, 74, 0
1, 152079, Note_on_c, 9, 44, 0
1, 152160, Note_on_c, 1, 46, 101
1, 152160, Note_on_c, 2, 74, 104
1, 152160, Note_on_c, 2, 65, 98
1, 152160, Note_on_c, 2, 70, 117
1, 152160, Note_on_c, 9, 42, 117
1, 152160, Note_on_c, 9, 36, 125
1, 152300, Note_on_c, 9, 36, 0
1, 152343, Note_on_c, 9, 42, 0
1, 152400, Note_on_c, 9, 44, 76
1, 152527, Note_on_c, 9, 44, 0
1, 152640, Note_on_c, 9, 53, 74
1, 152640, Note_on_c, 9, 42, 117
1, 152640, Note_on_c, 9, 38, 86
1, 152673, Note_on_c, 1, 46, 0
1, 152803, Note_on_c, 9, 38, 0
1, 152819, Note_on_c, 9, 42, 0
1, 152880, Note_on_c, 9, 53, 0
1, 152880, Note_on_c, 9, 44, 77
1, 153030, Note_on_c, 9, 44, 0
1, 153120, Note_on_c, 1, 48, 98
1, 153120, Note_on_c, 9, 42, 117
1, 153146, Note_on_c, 2, 70, 0
1, 153160, Note_on_c, 2, 65, 0
1, 153212, Note_on_c, 2, 74, 0
1, 153303, Note_on_c, 9, 42, 0
1, 153360, Note_on_c, 1, 50, 92
1, 153360, Note_on_c, 9, 44, 78
1, 153369, Note_on_c, 1, 48, 0
1, 153501, Note_on_c, 9, 44, 0
1, 153552, Note_on_c, 1, 50, 0
1, 153585, Note_on_c, 8, 86, 0
1, 153596, Note_on_c, 7, 62, 0
1, 153596, Note_on_c, 0, 62, 0
1, 153596, Note_on_c, 3, 62, 0
1, 153600, Note_on_c, 7, 58, 0
1, 153600, Note_on_c, 0, 53, 0
1, 153600, Note_on_c, 7, 53, 0
1, 153600, Note_on_c, 8, 82, 0
1, 153600, Note_on_c, 0, 58, 0
1, 153600, Note_on_c, 3, 58, 0
1, 153600, Note_on_c, 3, 53, 0
1, 153600, Note_on_c, 8, 77, 0
1, 153600, Note_on_c, 0, 53, 88
1, 153600, Note_on_c, 0, 57, 92
1, 153600, Note_on_c, 0, 60, 90
1, 153600, Note_on_c, 1, 41, 104
1, 153600, Note_on_c, 3, 53, 88
1, 153600, Note_on_c, 3, 57, 92
1, 153600, Note_on_c, 3, 60, 90
1, 153600, Note_on_c, 7, 53, 88
1, 153600, Note_on_c, 7, 57, 92
1, 153600, Note_on_c, 7, 60, 90
1, 153600, Note_on_c, 8, 77, 92
1, 153600, Note_on_c, 8, 81, 101
1, 153600, Note_on_c, 8, 84, 106
1, 153600, Note_on_c, 9, 42, 117
1, 153600, Note_on_c, 9, 36, 127
1, 153600, Note_on_c, 9, 53, 68
1, 153794, Note_on_c, 9, 36, 0
1, 153829, Note_on_c, 9, 42, 0
1, 153840, Note_on_c, 9, 44, 77
1, 153904, Note_on_c, 9, 53, 0
1, 154010, Note_on_c, 9, 44, 0
1, 154080, Note_on_c, 9, 36, 126
1, 154084, Note_on_c, 9, 42, 117
1, 154314, Note_on_c, 9, 36, 0
1, 154318, Note_on_c, 9, 42, 0
1, 154320, Note_on_c, 9, 44, 77
1, 154497, Note_on_c, 9, 44, 0
1, 154560, Note_on_c, 2, 77, 88
1, 154560, Note_on_c, 2, 69, 80
1, 154560, Note_on_c, 2, 72, 98
1, 154560, Note_on_c, 9, 38, 83
1, 154560, Note_on_c, 9, 53, 70
1, 154564, Note_on_c, 9, 42, 117
1, 154695, Note_on_c, 2, 69, 0
1, 154723, Note_on_c, 2, 72, 0
1, 154759, Note_on_c, 9, 38, 0
1, 154759, Note_on_c, 2, 77, 0
1, 154762, Note_on_c, 9, 42, 0
1, 154800, Note_on_c, 1, 41, 0
1, 154800, Note_on_c, 9, 44, 77
1, 154830, Note_on_c, 9, 53, 0
1, 154972, Note_on_c, 9, 44, 0
1, 155044, Note_on_c, 9, 42, 117
1, 155244, Note_on_c, 9, 42, 0
1, 155280, Note_on_c, 1, 41, 109
1, 155280, Note_on_c, 2, 77, 84
1, 155280, Note_on_c, 2, 69, 88
1, 155280, Note_on_c, 2, 72, 98
1, 155280, Note_on_c, 9, 36, 127
1, 155282, Note_on_c, 9, 44, 76
1, 155404, Note_on_c, 2, 69, 0
1, 155407, Note_on_c, 2, 72, 0
1, 155420, Note_on_c, 9, 44, 0
1, 155431, Note_on_c, 2, 77, 0
1, 155472, Note_on_c, 9, 36, 0
1, 155509, Note_on_c, 1, 41, 0
1, 155520, Note_on_c, 9, 53, 70
1, 155524, Note_on_c, 9, 42, 117
1, 155705, Note_on_c, 9, 42, 0
1, 155739, Note_on_c, 9, 53, 0
1, 155760, Note_on_c, 1, 41, 88
1, 155760, Note_on_c, 2, 77, 82
1, 155760, Note_on_c, 2, 69, 80
1, 155760, Note_on_c, 2, 72, 90
1, 155760, Note_on_c, 9, 36, 82
1, 155760, Note_on_c, 9, 44, 76
1, 155839, Note_on_c, 2, 72, 0
1, 155849, Note_on_c, 2, 69, 0
1, 155852, Note_on_c, 1, 41, 0
1, 155856, Note_on_c, 9, 36, 0
1, 155866, Note_on_c, 2, 77, 0
1, 155919, Note_on_c, 9, 44, 0
1, 156000, Note_on_c, 1, 41, 98
1, 156000, Note_on_c, 2, 77, 84
1, 156000, Note_on_c, 2, 69, 84
1, 156000, Note_on_c, 2, 72, 98
1, 156000, Note_on_c, 9, 42, 117
1, 156000, Note_on_c, 9, 36, 127
1, 156183, Note_on_c, 9, 42, 0
1, 156194, Note_on_c, 9, 36, 0
1, 156240, Note_on_c, 9, 44, 76
1, 156367, Note_on_c, 9, 44, 0
1, 156480, Note_on_c, 9, 53, 70
1, 156480, Note_on_c, 9, 38, 83
1, 156480, Note_on_c, 9, 42, 117
1, 156488, Note_on_c, 1, 41, 0
1, 156659, Note_on_c, 9, 42, 0
1, 156696, Note_on_c, 9, 38, 0
1, 156720, Note_on_c, 9, 44, 77
1, 156759, Note_on_c, 9, 53, 0
1, 156870, Note_on_c, 9, 44, 0
1, 156945, Note_on_c, 2, 72, 0
1, 156960, Note_on_c, 1, 43, 98
1, 156960, Note_on_c, 9, 42, 117
1, 156974, Note_on_c, 2, 69, 0
1, 157002, Note_on_c, 2, 77, 0
1, 157143, Note_on_c, 9, 42, 0
1, 157152, Note_on_c, 1, 43, 0
1, 157200, Note_on_c, 9, 44, 78
1, 157341, Note_on_c, 9, 44, 0
1, 157440, Note_on_c, 3, 60, 0
1, 157440, Note_on_c, 0, 57, 0
1, 157440, Note_on_c, 7, 57, 0
1, 157440, Note_on_c, 0, 60, 0
1, 157440, Note_on_c, 3, 53, 0
1, 157440, Note_on_c, 8, 77, 0
1, 157440, Note_on_c, 0, 53, 0
1, 157440, Note_on_c, 7, 53, 0
1, 157440, Note_on_c, 7, 60, 0
1, 157440, Note_on_c, 8, 81, 0
1, 157440, Note_on_c, 8, 84, 0
1, 157440, Note_on_c, 3, 57, 0
1, 157440, Note_on_c, 0, 52, 86
1, 157440, Note_on_c, 0, 57, 82
1, 157440, Note_on_c, 0, 60, 80
1, 157440, Note_on_c, 1, 45, 104
1, 157440, Note_on_c, 3, 52, 86
1, 157440, Note_on_c, 3, 57, 82
1, 157440, Note_on_c, 3, 60, 80
1, 157440, Note_on_c, 7, 52, 86
1, 157440, Note_on_c, 7, 57, 82
1, 157440, Note_on_c, 7, 60, 80
1, 157440, Note_on_c, 8, 88, 95
1, 157440, Note_on_c, 8, 84, 92
1, 157440, Note_on_c, 8, 81, 88
1, 157440, Note_on_c, 9, 53, 70
1, 157440, Note_on_c, 9, 42, 117
1, 157440, Note_on_c, 9, 36, 127
1, 157628, Note_on_c, 9, 36, 0
1, 157669, Note_on_c, 9, 42, 0
1, 157680, Note_on_c, 9, 44, 77
1, 157697, Note_on_c, 9, 53, 0
1, 157850, Note_on_c, 9, 44, 0
1, 157920, Note_on_c, 9, 36, 126
1, 157924, Note_on_c, 9, 42, 117
1, 158094, Note_on_c, 9, 36, 0
1, 158158, Note_on_c, 9, 42, 0
1, 158160, Note_on_c, 9, 44, 77
1, 158337, Note_on_c, 9, 44, 0
1, 158400, Note_on_c, 2, 76, 92
1, 158400, Note_on_c, 2, 72, 98
1, 158400, Note_on_c, 2, 69, 88
1, 158400, Note_on_c, 9, 53, 68
1, 158400, Note_on_c, 9, 38, 84
1, 158404, Note_on_c, 9, 42, 117
1, 158537, Note_on_c, 2, 69, 0
1, 158550, Note_on_c, 2, 72, 0
1, 158580, Note_on_c, 2, 76, 0
1, 158587, Note_on_c, 9, 38, 0
1, 158602, Note_on_c, 9, 42, 0
1, 158640, Note_on_c, 1, 45, 0
1, 158640, Note_on_c, 9, 44, 77
1, 158665, Note_on_c, 9, 53, 0
1, 158812, Note_on_c, 9, 44, 0
1, 158884, Note_on_c, 9, 42, 117
1, 159084, Note_on_c, 9, 42, 0
1, 159120, Note_on_c, 1, 45, 98
1, 159120, Note_on_c, 2, 69, 80
1, 159120, Note_on_c, 2, 72, 84
1, 159120, Note_on_c, 2, 76, 73
1, 159120, Note_on_c, 9, 36, 125
1, 159122, Note_on_c, 9, 44, 76
1, 159247, Note_on_c, 2, 69, 0
1, 159252, Note_on_c, 2, 76, 0
1, 159254, Note_on_c, 2, 72, 0
1, 159260, Note_on_c, 9, 44, 0
1, 159279, Note_on_c, 9, 36, 0
1, 159317, Note_on_c, 1, 45, 0
1, 159360, Note_on_c, 9, 53, 68
1, 159364, Note_on_c, 9, 42, 117
1, 159545, Note_on_c, 9, 42, 0
1, 159600, Note_on_c, 1, 45, 84
1, 159600, Note_on_c, 9, 44, 76
1, 159600, Note_on_c, 9, 36, 81
1, 159602, Note_on_c, 2, 72, 88
1, 159602, Note_on_c, 2, 76, 74
1, 159602, Note_on_c, 2, 69, 68
1, 159616, Note_on_c, 9, 53, 0
1, 159685, Note_on_c, 2, 69, 0
1, 159685, Note_on_c, 2, 76, 0
1, 159686, Note_on_c, 2, 72, 0
1, 159689, Note_on_c, 1, 45, 0
1, 159699, Note_on_c, 9, 36, 0
1, 159759, Note_on_c, 9, 44, 0
1, 159840, Note_on_c, 1, 45, 88
1, 159840, Note_on_c, 9, 42, 117
1, 159840, Note_on_c, 9, 36, 125
1, 159842, Note_on_c, 2, 76, 95
1, 159842, Note_on_c, 2, 69, 95
1, 159842, Note_on_c, 2, 72, 90
1, 159980, Note_on_c, 9, 36, 0
1, 160023, Note_on_c, 9, 42, 0
1, 160080, Note_on_c, 9, 44, 76
1, 160207, Note_on_c, 9, 44, 0
1, 160320, Note_on_c, 9, 38, 86
1, 160320, Note_on_c, 9, 42, 117
1, 160320, Note_on_c, 9, 53, 69
1, 160386, Note_on_c, 1, 45, 0
1, 160483, Note_on_c, 9, 38, 0
1, 160499, Note_on_c, 9, 42, 0
1, 160560, Note_on_c, 9, 44, 77
1, 160596, Note_on_c, 9, 53, 0
1, 160710, Note_on_c, 9, 44, 0
1, 160774, Note_on_c, 2, 76, 0
1, 160774, Note_on_c, 2, 72, 0
1, 160778, Note_on_c, 2, 69, 0
1, 160800, Note_on_c, 1, 48, 109
1, 160800, Note_on_c, 9, 42, 117
1, 160982, Note_on_c, 1, 48, 0
1, 160983, Note_on_c, 9, 42, 0
1, 161040, Note_on_c, 9, 44, 78
1, 161181, Note_on_c, 9, 44, 0
1, 161280, Note_on_c, 0, 52, 0
1, 161280, Note_on_c, 0, 57, 0
1, 161280, Note_on_c, 7, 57, 0
1, 161280, Note_on_c, 0, 60, 0
1, 161280, Note_on_c, 7, 52, 0
1, 161280, Note_on_c, 8, 84, 0
1, 161280, Note_on_c, 3, 57, 0
1, 161280, Note_on_c, 8, 88, 0
1, 161280, Note_on_c, 7, 60, 0
1, 161280, Note_on_c, 3, 60, 0
1, 161280, Note_on_c, 3, 52, 0
1, 161280, Note_on_c, 8, 81, 0
1, 161280, Note_on_c, 0, 53, 86
1, 161280, Note_on_c, 0, 57, 86
1, 161280, Note_on_c, 0, 62, 84
1, 161280, Note_on_c, 1, 38, 98
1, 161280, Note_on_c, 3, 53, 86
1, 161280, Note_on_c, 3, 57, 86
1, 161280, Note_on_c, 3, 62, 84
1, 161280, Note_on_c, 7, 53, 86
1, 161280, Note_on_c, 7, 57, 86
1, 161280, Note_on_c, 7, 62, 84
1, 161280, Note_on_c, 8, 77, 104
1, 161280, Note_on_c, 8, 81, 88
1, 161280, Note_on_c, 8, 86, 80
1, 161280, Note_on_c, 9, 53, 69
1, 161280, Note_on_c, 9, 42, 117
1, 161280, Note_on_c, 9, 36, 127
1, 161474, Note_on_c, 9, 36, 0
1, 161509, Note_on_c, 9, 42, 0
1, 161520, Note_on_c, 9, 44, 77
1, 161527, Note_on_c, 9, 53, 0
1, 161690, Note_on_c, 9, 44, 0
1, 161760, Note_on_c, 9, 36, 126
1, 161764, Note_on_c, 9, 42, 117
1, 161994, Note_on_c, 9, 36, 0
1, 161998, Note_on_c, 9, 42, 0
1, 162000, Note_on_c, 9, 44, 77
1, 162177, Note_on_c, 9, 44, 0
1, 162240, Note_on_c, 9, 38, 83
1, 162240, Note_on_c, 9, 53, 67
1, 162242, Note_on_c, 2, 74, 88
1, 162242, Note_on_c, 2, 65, 80
1, 162242, Note_on_c, 2, 69, 106
1, 162244, Note_on_c, 9, 42, 117
1, 162398, Note_on_c, 2, 69, 0
1, 162411, Note_on_c, 2, 65, 0
1, 162439, Note_on_c, 9, 38, 0
1, 162442, Note_on_c, 9, 42, 0
1, 162455, Note_on_c, 2, 74, 0
1, 162480, Note_on_c, 1, 38, 0
1, 162480, Note_on_c, 9, 44, 77
1, 162501, Note_on_c, 9, 53, 0
1, 162652, Note_on_c, 9, 44, 0
1, 162724, Note_on_c, 9, 42, 117
1, 162924, Note_on_c, 9, 42, 0
1, 162960, Note_on_c, 1, 38, 92
1, 162960, Note_on_c, 2, 74, 90
1, 162960, Note_on_c, 2, 65, 95
1, 162960, Note_on_c, 9, 36, 127
1, 162962, Note_on_c, 2, 69, 106
1, 162962, Note_on_c, 9, 44, 76
1, 163076, Note_on_c, 2, 69, 0
1, 163079, Note_on_c, 2, 65, 0
1, 163100, Note_on_c, 9, 44, 0
1, 163103, Note_on_c, 2, 74, 0
1, 163135, Note_on_c, 1, 38, 0
1, 163152, Note_on_c, 9, 36, 0
1, 163200, Note_on_c, 9, 53, 71
1, 163204, Note_on_c, 9, 42, 117
1, 163385, Note_on_c, 9, 42, 0
1, 163440, Note_on_c, 1, 38, 84
1, 163440, Note_on_c, 2, 69, 98
1, 163440, Note_on_c, 9, 36, 82
1, 163440, Note_on_c, 9, 44, 76
1, 163442, Note_on_c, 2, 65, 84
1, 163442, Note_on_c, 2, 74, 74
1, 163486, Note_on_c, 9, 53, 0
1, 163523, Note_on_c, 2, 69, 0
1, 163526, Note_on_c, 2, 74, 0
1, 163529, Note_on_c, 2, 65, 0
1, 163536, Note_on_c, 9, 36, 0
1, 163561, Note_on_c, 1, 38, 0
1, 163599, Note_on_c, 9, 44, 0
1, 163680, Note_on_c, 1, 38, 98
1, 163680, Note_on_c, 9, 42, 117
1, 163680, Note_on_c, 9, 36, 127
1, 163682, Note_on_c, 2, 74, 101
1, 163682, Note_on_c, 2, 65, 92
1, 163682, Note_on_c, 2, 69, 104
1, 163863, Note_on_c, 9, 42, 0
1, 163874, Note_on_c, 9, 36, 0
1, 163920, Note_on_c, 9, 44, 76
1, 164047, Note_on_c, 9, 44, 0
1, 164160, Note_on_c, 9, 42, 117
1, 164160, Note_on_c, 9, 53, 72
1, 164160, Note_on_c, 9, 38, 83
1, 164174, Note_on_c, 1, 38, 0
1, 164339, Note_on_c, 9, 42, 0
1, 164376, Note_on_c, 9, 38, 0
1, 164400, Note_on_c, 9, 44, 77
1, 164522, Note_on_c, 9, 53, 0
1, 164550, Note_on_c, 9, 44, 0
1, 164585, Note_on_c, 2, 69, 0
1, 164601, Note_on_c, 2, 65, 0
1, 164615, Note_on_c, 2, 74, 0
1, 164640, Note_on_c, 1, 45, 98
1, 164640, Note_on_c, 9, 42, 117
1, 164819, Note_on_c, 1, 45, 0
1, 164823, Note_on_c, 9, 42, 0
1, 164880, Note_on_c, 9, 44, 78
1, 165021, Note_on_c, 9, 44, 0
1, 165120, Note_on_c, 8, 77, 0
1, 165120, Note_on_c, 0, 57, 0
1, 165120, Note_on_c, 7, 57, 0
1, 165120, Note_on_c, 0, 62, 0
1, 165120, Note_on_c, 8, 86, 0
1, 165120, Note_on_c, 7, 53, 0
1, 165120, Note_on_c, 8, 81, 0
1, 165120, Note_on_c, 3, 53, 0
1, 165120, Note_on_c, 7, 62, 0
1, 165120, Note_on_c, 3, 62, 0
1, 165120, Note_on_c, 3, 57, 0
1, 165120, Note_on_c, 0, 53, 0
1, 165120, Note_on_c, 0, 53, 88
1, 165120, Note_on_c, 0, 58, 98
1, 165120, Note_on_c, 0, 62, 82
1, 165120, Note_on_c, 1, 46, 101
1, 165120, Note_on_c, 3, 53, 88
1, 165120, Note_on_c, 3, 58, 98
1, 165120, Note_on_c, 3, 62, 82
1, 165120, Note_on_c, 7, 53, 88
1, 165120, Note_on_c, 7, 58, 98
1, 165120, Note_on_c, 7, 62, 82
1, 165120, Note_on_c, 8, 77, 90
1, 165120, Note_on_c, 8, 82, 101
1, 165120, Note_on_c, 8, 86, 80
1, 165120, Note_on_c, 9, 53, 70
1, 165120, Note_on_c, 9, 36, 127
1, 165120, Note_on_c, 9, 42, 117
1, 165308, Note_on_c, 9, 36, 0
1, 165349, Note_on_c, 9, 42, 0
1, 165360, Note_on_c, 9, 44, 77
1, 165449, Note_on_c, 9, 53, 0
1, 165530, Note_on_c, 9, 44, 0
1, 165600, Note_on_c, 9, 36, 126
1, 165604, Note_on_c, 9, 42, 117
1, 165774, Note_on_c, 9, 36, 0
1, 165838, Note_on_c, 9, 42, 0
1, 165840, Note_on_c, 9, 44, 77
1, 166017, Note_on_c, 9, 44, 0
1, 166080, Note_on_c, 9, 53, 71
1, 166080, Note_on_c, 9, 38, 84
1, 166082, Note_on_c, 2, 74, 82
1, 166082, Note_on_c, 2, 70, 101
1, 166082, Note_on_c, 2, 65, 92
1, 166084, Note_on_c, 9, 42, 117
1, 166242, Note_on_c, 2, 65, 0
1, 166267, Note_on_c, 9, 38, 0
1, 166270, Note_on_c, 2, 70, 0
1, 166282, Note_on_c, 9, 42, 0
1, 166295, Note_on_c, 2, 74, 0
1, 166320, Note_on_c, 1, 46, 0
1, 166320, Note_on_c, 9, 44, 77
1, 166379, Note_on_c, 9, 53, 0
1, 166492, Note_on_c, 9, 44, 0
1, 166564, Note_on_c, 9, 42, 117
1, 166764, Note_on_c, 9, 42, 0
1, 166800, Note_on_c, 1, 46, 117
1, 166800, Note_on_c, 2, 70, 101
1, 166800, Note_on_c, 2, 65, 82
1, 166800, Note_on_c, 2, 74, 67
1, 166800, Note_on_c, 9, 36, 125
1, 166802, Note_on_c, 9, 44, 76
1, 166923, Note_on_c, 2, 70, 0
1, 166925, Note_on_c, 2, 65, 0
1, 166928, Note_on_c, 2, 74, 0
1, 166940, Note_on_c, 9, 44, 0
1, 166959, Note_on_c, 9, 36, 0
1, 166969, Note_on_c, 1, 46, 0
1, 167040, Note_on_c, 9, 53, 71
1, 167044, Note_on_c, 9, 42, 117
1, 167225, Note_on_c, 9, 42, 0
1, 167280, Note_on_c, 1, 46, 92
1, 167280, Note_on_c, 2, 65, 80
1, 167280, Note_on_c, 2, 74, 80
1, 167280, Note_on_c, 2, 70, 109
1, 167280, Note_on_c, 9, 36, 81
1, 167280, Note_on_c, 9, 44, 76
1, 167329, Note_on_c, 9, 53, 0
1, 167354, Note_on_c, 1, 46, 0
1, 167356, Note_on_c, 2, 70, 0
1, 167379, Note_on_c, 9, 36, 0
1, 167380, Note_on_c, 2, 65, 0
1, 167383, Note_on_c, 2, 74, 0
1, 167439, Note_on_c, 9, 44, 0
1, 167520, Note_on_c, 1, 46, 101
1, 167520, Note_on_c, 2, 74, 104
1, 167520, Note_on_c, 2, 65, 98
1, 167520, Note_on_c, 2, 70, 117
1, 167520, Note_on_c, 9, 42, 117
1, 167520, Note_on_c, 9, 36, 125
1, 167660, Note_on_c, 9, 36, 0
1, 167703, Note_on_c, 9, 42, 0
1, 167760, Note_on_c, 9, 44, 76
1, 167887, Note_on_c, 9, 44, 0
1, 168000, Note_on_c, 9, 53, 74
1, 168000, Note_on_c, 9, 38, 86
1, 168000, Note_on_c, 9, 42, 117
1, 168033, Note_on_c, 1, 46, 0
1, 168163, Note_on_c, 9, 38, 0
1, 168179, Note_on_c, 9, 42, 0
1, 168240, Note_on_c, 9, 53, 0
1, 168240, Note_on_c, 9, 44, 77
1, 168390, Note_on_c, 9, 44, 0
1, 168480, Note_on_c, 1, 48, 98
1, 168480, Note_on_c, 9, 42, 117
1, 168506, Note_on_c, 2, 70, 0
1, 168520, Note_on_c, 2, 65, 0
1, 168572, Note_on_c, 2, 74, 0
1, 168663, Note_on_c, 9, 42, 0
1, 168720, Note_on_c, 1, 50, 92
1, 168720, Note_on_c, 9, 44, 78
1, 168729, Note_on_c, 1, 48, 0
1, 168861, Note_on_c, 9, 44, 0
1, 168912, Note_on_c, 1, 50, 0
1, 168945, Note_on_c, 8, 86, 0
1, 168956, Note_on_c, 7, 62, 0
1, 168956, Note_on_c, 0, 62, 0
1, 168956, Note_on_c, 3, 62, 0
1, 168960, Note_on_c, 7, 58, 0
1, 168960, Note_on_c, 0, 53, 0
1, 168960, Note_on_c, 7, 53, 0
1, 168960, Note_on_c, 8, 82, 0
1, 168960, Note_on_c, 0, 58, 0
1, 168960, Note_on_c, 3, 58, 0
1, 168960, Note_on_c, 3, 53, 0
1, 168960, Note_on_c, 8, 77, 0
1, 168960, Note_on_c, 0, 53, 88
1, 168960, Note_on_c, 0, 57, 92
1, 168960, Note_on_c, 0, 60, 90
1, 168960, Note_on_c, 1, 41, 104
1, 168960, Note_on_c, 8, 77, 92
1, 168960, Note_on_c, 8, 81, 101
1, 168960, Note_on_c, 8, 84, 106
1, 168960, Note_on_c, 9, 36, 127
1, 168960, Note_on_c, 9, 42, 117
1, 169154, Note_on_c, 9, 36, 0
1, 169189, Note_on_c, 9, 42, 0
1, 169200, Note_on_c, 9, 44, 77
1, 169370, Note_on_c, 9, 44, 0
1, 169440, Note_on_c, 9, 36, 126
1, 169444, Note_on_c, 9, 42, 117
1, 169674, Note_on_c, 9, 36, 0
1, 169678, Note_on_c, 9, 42, 0
1, 169680, Note_on_c, 9, 44, 77
1, 169857, Note_on_c, 9, 44, 0
1, 169920, Note_on_c, 2, 77, 88
1, 169920, Note_on_c, 2, 69, 80
1, 169920, Note_on_c, 2, 72, 98
1, 169920, Note_on_c, 9, 38, 83
1, 169924, Note_on_c, 9, 42, 117
1, 170055, Note_on_c, 2, 69, 0
1, 170083, Note_on_c, 2, 72, 0
1, 170119, Note_on_c, 9, 38, 0
1, 170119, Note_on_c, 2, 77, 0
1, 170122, Note_on_c, 9, 42, 0
1, 170160, Note_on_c, 1, 41, 0
1, 170160, Note_on_c, 9, 44, 77
1, 170332, Note_on_c, 9, 44, 0
1, 170404, Note_on_c, 9, 42, 117
1, 170604, Note_on_c, 9, 42, 0
1, 170640, Note_on_c, 1, 41, 109
1, 170640, Note_on_c, 2, 77, 84
1, 170640, Note_on_c, 2, 69, 88
1, 170640, Note_on_c, 2, 72, 98
1, 170640, Note_on_c, 2, 77, 104
1, 170640, Note_on_c, 2, 72, 86
1, 170640, Note_on_c, 9, 36, 127
1, 170642, Note_on_c, 9, 44, 76
1, 170764, Note_on_c, 2, 69, 0
1, 170767, Note_on_c, 2, 72, 0
1, 170780, Note_on_c, 9, 44, 0
1, 170791, Note_on_c, 2, 77, 0
1, 170832, Note_on_c, 9, 36, 0
1, 170869, Note_on_c, 1, 41, 0
1, 170880, Note_on_c, 2, 81, 92
1, 170884, Note_on_c, 9, 42, 117
1, 170969, Note_on_c, 2, 77, 0
1, 171013, Note_on_c, 2, 81, 0
1, 171017, Note_on_c, 2, 72, 0
1, 171065, Note_on_c, 9, 42, 0
1, 171120, Note_on_c, 1, 41, 88
1, 171120, Note_on_c, 2, 77, 82
1, 171120, Note_on_c, 2, 69, 80
1, 171120, Note_on_c, 2, 81, 88
1, 171120, Note_on_c, 2, 72, 50
1, 171120, Note_on_c, 2, 72, 90
1, 171120, Note_on_c, 9, 44, 76
1, 171120, Note_on_c, 9, 36, 82
1, 171199, Note_on_c, 2, 72, 0
1, 171209, Note_on_c, 2, 69, 0
1, 171212, Note_on_c, 1, 41, 0
1, 171216, Note_on_c, 9, 36, 0
1, 171226, Note_on_c, 2, 77, 0
1, 171232, Note_on_c, 2, 72, 0
1, 171249, Note_on_c, 2, 81, 0
1, 171279, Note_on_c, 9, 44, 0
1, 171360, Note_on_c, 1, 41, 98
1, 171360, Note_on_c, 2, 72, 67
1, 171360, Note_on_c, 2, 77, 84
1, 171360, Note_on_c, 2, 69, 84
1, 171360, Note_on_c, 2, 72, 98
1, 171360, Note_on_c, 2, 81, 88
1, 171360, Note_on_c, 9, 36, 127
1, 171360, Note_on_c, 9, 42, 117
1, 171479, Note_on_c, 2, 72, 0
1, 171481, Note_on_c, 2, 81, 0
1, 171543, Note_on_c, 9, 42, 0
1, 171554, Note_on_c, 9, 36, 0
1, 171600, Note_on_c, 2, 81, 80
1, 171600, Note_on_c, 2, 72, 54
1, 171600, Note_on_c, 9, 44, 76
1, 171725, Note_on_c, 2, 72, 0
1, 171725, Note_on_c, 2, 81, 0
1, 171727, Note_on_c, 9, 44, 0
1, 171840, Note_on_c, 2, 81, 98
1, 171840, Note_on_c, 2, 72, 70
1, 171840, Note_on_c, 9, 42, 117
1, 171840, Note_on_c, 9, 38, 83
1, 171848, Note_on_c, 1, 41, 0
1, 171957, Note_on_c, 2, 81, 0
1, 171964, Note_on_c, 2, 72, 0
1, 172019, Note_on_c, 9, 42, 0
1, 172056, Note_on_c, 9, 38, 0
1, 172080, Note_on_c, 2, 81, 80
1, 172080, Note_on_c, 2, 72, 60
1, 172080, Note_on_c, 9, 44, 77
1, 172230, Note_on_c, 9, 44, 0
1, 172294, Note_on_c, 2, 81, 0
1, 172305, Note_on_c, 2, 72, 0
1, 172320, Note_on_c, 1, 43, 98
1, 172320, Note_on_c, 2, 79, 104
1, 172320, Note_on_c, 2, 81, 59
1, 172320, Note_on_c, 9, 42, 117
1, 172334, Note_on_c, 2, 69, 0
1, 172362, Note_on_c, 2, 77, 0
1, 172362, Note_on_c, 2, 81, 0
1, 172503, Note_on_c, 9, 42, 0
1, 172512, Note_on_c, 1, 43, 0
1, 172513, Note_on_c, 2, 79, 0
1, 172560, Note_on_c, 9, 44, 78
1, 172562, Note_on_c, 2, 72, 0
1, 172701, Note_on_c, 9, 44, 0
1, 172800, Note_on_c, 8, 77, 0
1, 172800, Note_on_c, 0, 53, 0
1, 172800, Note_on_c, 0, 60, 0
1, 172800, Note_on_c, 8, 81, 0
1, 172800, Note_on_c, 8, 84, 0
1, 172800, Note_on_c, 0, 57, 0
1, 172800, Note_on_c, 0, 52, 86
1, 172800, Note_on_c, 0, 57, 82
1, 172800, Note_on_c, 0, 60, 80
1, 172800, Note_on_c, 1, 45, 104
1, 172800, Note_on_c, 8, 88, 95
1, 172800, Note_on_c, 8, 84, 92
1, 172800, Note_on_c, 8, 81, 88
1, 172800, Note_on_c, 9, 36, 127
1, 172800, Note_on_c, 9, 42, 117
1, 172988, Note_on_c, 9, 36, 0
1, 173029, Note_on_c, 9, 42, 0
1, 173040, Note_on_c, 9, 44, 77
1, 173210, Note_on_c, 9, 44, 0
1, 173280, Note_on_c, 9, 36, 126
1, 173284, Note_on_c, 9, 42, 117
1, 173454, Note_on_c, 9, 36, 0
1, 173518, Note_on_c, 9, 42, 0
1, 173520, Note_on_c, 9, 44, 77
1, 173697, Note_on_c, 9, 44, 0
1, 173760, Note_on_c, 2, 72, 98
1, 173760, Note_on_c, 2, 76, 92
1, 173760, Note_on_c, 2, 69, 88
1, 173760, Note_on_c, 9, 38, 84
1, 173764, Note_on_c, 9, 42, 117
1, 173897, Note_on_c, 2, 69, 0
1, 173910, Note_on_c, 2, 72, 0
1, 173940, Note_on_c, 2, 76, 0
1, 173947, Note_on_c, 9, 38, 0
1, 173962, Note_on_c, 9, 42, 0
1, 174000, Note_on_c, 1, 45, 0
1, 174000, Note_on_c, 9, 44, 77
1, 174172, Note_on_c, 9, 44, 0
1, 174244, Note_on_c, 9, 42, 117
1, 174444, Note_on_c, 9, 42, 0
1, 174480, Note_on_c, 1, 45, 98
1, 174480, Note_on_c, 2, 76, 92
1, 174480, Note_on_c, 2, 76, 73
1, 174480, Note_on_c, 2, 72, 88
1, 174480, Note_on_c, 2, 69, 80
1, 174480, Note_on_c, 2, 72, 84
1, 174480, Note_on_c, 9, 36, 125
1, 174482, Note_on_c, 9, 44, 76
1, 174607, Note_on_c, 2, 69, 0
1, 174612, Note_on_c, 2, 76, 0
1, 174614, Note_on_c, 2, 72, 0
1, 174620, Note_on_c, 9, 44, 0
1, 174639, Note_on_c, 9, 36, 0
1, 174677, Note_on_c, 1, 45, 0
1, 174720, Note_on_c, 2, 79, 104
1, 174724, Note_on_c, 9, 42, 117
1, 174790, Note_on_c, 2, 76, 0
1, 174856, Note_on_c, 2, 79, 0
1, 174888, Note_on_c, 2, 72, 0
1, 174905, Note_on_c, 9, 42, 0
1, 174960, Note_on_c, 1, 45, 84
1, 174960, Note_on_c, 2, 79, 76
1, 174960, Note_on_c, 2, 72, 40
1, 174960, Note_on_c, 9, 44, 76
1, 174960, Note_on_c, 9, 36, 81
1, 174962, Note_on_c, 2, 69, 68
1, 174962, Note_on_c, 2, 72, 88
1, 174962, Note_on_c, 2, 76, 74
1, 175045, Note_on_c, 2, 76, 0
1, 175045, Note_on_c, 2, 69, 0
1, 175046, Note_on_c, 2, 72, 0
1, 175049, Note_on_c, 1, 45, 0
1, 175059, Note_on_c, 9, 36, 0
1, 175084, Note_on_c, 2, 79, 0
1, 175109, Note_on_c, 2, 72, 0
1, 175119, Note_on_c, 9, 44, 0
1, 175200, Note_on_c, 1, 45, 88
1, 175200, Note_on_c, 2, 72, 41
1, 175200, Note_on_c, 2, 79, 80
1, 175200, Note_on_c, 9, 36, 125
1, 175200, Note_on_c, 9, 42, 117
1, 175202, Note_on_c, 2, 69, 95
1, 175202, Note_on_c, 2, 72, 90
1, 175202, Note_on_c, 2, 76, 95
1, 175327, Note_on_c, 2, 79, 0
1, 175340, Note_on_c, 9, 36, 0
1, 175342, Note_on_c, 2, 72, 0
1, 175383, Note_on_c, 9, 42, 0
1, 175440, Note_on_c, 2, 79, 92
1, 175440, Note_on_c, 2, 72, 41
1, 175440, Note_on_c, 9, 44, 76
1, 175564, Note_on_c, 2, 79, 0
1, 175567, Note_on_c, 9, 44, 0
1, 175582, Note_on_c, 2, 72, 0
1, 175680, Note_on_c, 2, 72, 45
1, 175680, Note_on_c, 2, 79, 92
1, 175680, Note_on_c, 9, 42, 117
1, 175680, Note_on_c, 9, 38, 86
1, 175746, Note_on_c, 1, 45, 0
1, 175791, Note_on_c, 2, 79, 0
1, 175813, Note_on_c, 2, 72, 0
1, 175843, Note_on_c, 9, 38, 0
1, 175859, Note_on_c, 9, 42, 0
1, 175920, Note_on_c, 2, 79, 92
1, 175920, Note_on_c, 2, 72, 49
1, 175920, Note_on_c, 9, 44, 77
1, 176070, Note_on_c, 9, 44, 0
1, 176073, Note_on_c, 2, 79, 0
1, 176134, Note_on_c, 2, 76, 0
1, 176134, Note_on_c, 2, 72, 0
1, 176138, Note_on_c, 2, 69, 0
1, 176160, Note_on_c, 1, 48, 109
1, 176160, Note_on_c, 2, 77, 117
1, 176160, Note_on_c, 9, 42, 117
1, 176335, Note_on_c, 2, 77, 0
1, 176342, Note_on_c, 1, 48, 0
1, 176343, Note_on_c, 9, 42, 0
1, 176368, Note_on_c, 2, 72, 0
1, 176400, Note_on_c, 9, 44, 78
1, 176541, Note_on_c, 9, 44, 0
1, 176640, Note_on_c, 0, 52, 0
1, 176640, Note_on_c, 8, 88, 0
1, 176640, Note_on_c, 0, 60, 0
1, 176640, Note_on_c, 0, 57, 0
1, 176640, Note_on_c, 8, 81, 0
1, 176640, Note_on_c, 8, 84, 0
1, 176640, Note_on_c, 0, 53, 86
1, 176640, Note_on_c, 0, 57, 86
1, 176640, Note_on_c, 0, 62, 84
1, 176640, Note_on_c, 1, 38, 98
1, 176640, Note_on_c, 8, 77, 104
1, 176640, Note_on_c, 8, 81, 88
1, 176640, Note_on_c, 8, 86, 80
1, 176640, Note_on_c, 9, 42, 117
1, 176640, Note_on_c, 9, 36, 127
1, 176834, Note_on_c, 9, 36, 0
1, 176869, Note_on_c, 9, 42, 0
1, 176880, Note_on_c, 9, 44, 77
1, 177050, Note_on_c, 9, 44, 0
1, 177120, Note_on_c, 9, 36, 126
1, 177124, Note_on_c, 9, 42, 117
1, 177354, Note_on_c, 9, 36, 0
1, 177358, Note_on_c, 9, 42, 0
1, 177360, Note_on_c, 9, 44, 77
1, 177537, Note_on_c, 9, 44, 0
1, 177600, Note_on_c, 9, 38, 83
1, 177602, Note_on_c, 2, 74, 88
1, 177602, Note_on_c, 2, 65, 80
1, 177602, Note_on_c, 2, 69, 106
1, 177604, Note_on_c, 9, 42, 117
1, 177758, Note_on_c, 2, 69, 0
1, 177771, Note_on_c, 2, 65, 0
1, 177799, Note_on_c, 9, 38, 0
1, 177802, Note_on_c, 9, 42, 0
1, 177815, Note_on_c, 2, 74, 0
1, 177840, Note_on_c, 1, 38, 0
1, 177840, Note_on_c, 9, 44, 77
1, 178012, Note_on_c, 9, 44, 0
1, 178084, Note_on_c, 9, 42, 117
1, 178284, Note_on_c, 9, 42, 0
1, 178320, Note_on_c, 1, 38, 92
1, 178320, Note_on_c, 2, 74, 90
1, 178320, Note_on_c, 2, 65, 95
1, 178320, Note_on_c, 9, 36, 127
1, 178322, Note_on_c, 2, 69, 106
1, 178322, Note_on_c, 9, 44, 76
1, 178436, Note_on_c, 2, 69, 0
1, 178439, Note_on_c, 2, 65, 0
1, 178460, Note_on_c, 9, 44, 0
1, 178463, Note_on_c, 2, 74, 0
1, 178495, Note_on_c, 1, 38, 0
1, 178512, Note_on_c, 9, 36, 0
1, 178564, Note_on_c, 9, 42, 117
1, 178745, Note_on_c, 9, 42, 0
1, 178800, Note_on_c, 1, 38, 84
1, 178800, Note_on_c, 2, 69, 98
1, 178800, Note_on_c, 9, 36, 82
1, 178800, Note_on_c, 9, 44, 76
1, 178802, Note_on_c, 2, 65, 84
1, 178802, Note_on_c, 2, 74, 74
1, 178883, Note_on_c, 2, 69, 0
1, 178886, Note_on_c, 2, 74, 0
1, 178889, Note_on_c, 2, 65, 0
1, 178896, Note_on_c, 9, 36, 0
1, 178921, Note_on_c, 1, 38, 0
1, 178959, Note_on_c, 9, 44, 0
1, 179040, Note_on_c, 1, 38, 98
1, 179040, Note_on_c, 9, 36, 127
1, 179040, Note_on_c, 9, 42, 117
1, 179042, Note_on_c, 2, 65, 92
1, 179042, Note_on_c, 2, 74, 101
1, 179042, Note_on_c, 2, 69, 104
1, 179223, Note_on_c, 9, 42, 0
1, 179234, Note_on_c, 9, 36, 0
1, 179280, Note_on_c, 9, 44, 76
1, 179407, Note_on_c, 9, 44, 0
1, 179520, Note_on_c, 9, 42, 117
1, 179520, Note_on_c, 9, 38, 83
1, 179534, Note_on_c, 1, 38, 0
1, 179699, Note_on_c, 9, 42, 0
1, 179736, Note_on_c, 9, 38, 0
1, 179760, Note_on_c, 9, 44, 77
1, 179910, Note_on_c, 9, 44, 0
1, 179945, Note_on_c, 2, 69, 0
1, 179961, Note_on_c, 2, 65, 0
1, 179975, Note_on_c, 2, 74, 0
1, 180000, Note_on_c, 1, 45, 98
1, 180000, Note_on_c, 9, 42, 117
1, 180179, Note_on_c, 1, 45, 0
1, 180183, Note_on_c, 9, 42, 0
1, 180240, Note_on_c, 9, 44, 78
1, 180381, Note_on_c, 9, 44, 0
1, 180480, Note_on_c, 8, 81, 0
1, 180480, Note_on_c, 0, 62, 0
1, 180480, Note_on_c, 0, 57, 0
1, 180480, Note_on_c, 0, 53, 0
1, 180480, Note_on_c, 8, 77, 0
1, 180480, Note_on_c, 8, 86, 0
1, 180480, Note_on_c, 0, 53, 88
1, 180480, Note_on_c, 0, 58, 98
1, 180480, Note_on_c, 0, 62, 82
1, 180480, Note_on_c, 1, 46, 101
1, 180480, Note_on_c, 8, 77, 90
1, 180480, Note_on_c, 8, 82, 101
1, 180480, Note_on_c, 8, 86, 80
1, 180480, Note_on_c, 9, 36, 127
1, 180480, Note_on_c, 9, 42, 117
1, 180668, Note_on_c, 9, 36, 0
1, 180709, Note_on_c, 9, 42, 0
1, 180720, Note_on_c, 9, 44, 77
1, 180890, Note_on_c, 9, 44, 0
1, 180960, Note_on_c, 9, 36, 126
1, 180964, Note_on_c, 9, 42, 117
1, 181134, Note_on_c, 9, 36, 0
1, 181198, Note_on_c, 9, 42, 0
1, 181200, Note_on_c, 9, 44, 77
1, 181377, Note_on_c, 9, 44, 0
1, 181440, Note_on_c, 9, 38, 84
1, 181442, Note_on_c, 2, 70, 101
1, 181442, Note_on_c, 2, 74, 82
1, 181442, Note_on_c, 2, 65, 92
1, 181444, Note_on_c, 9, 42, 117
1, 181602, Note_on_c, 2, 65, 0
1, 181627, Note_on_c, 9, 38, 0
1, 181630, Note_on_c, 2, 70, 0
1, 181642, Note_on_c, 9, 42, 0
1, 181655, Note_on_c, 2, 74, 0
1, 181680, Note_on_c, 1, 46, 0
1, 181680, Note_on_c, 9, 44, 77
1, 181852, Note_on_c, 9, 44, 0
1, 181924, Note_on_c, 9, 42, 117
1, 182124, Note_on_c, 9, 42, 0
1, 182160, Note_on_c, 1, 46, 117
1, 182160, Note_on_c, 2, 65, 82
1, 182160, Note_on_c, 2, 70, 101
1, 182160, Note_on_c, 2, 74, 67
1, 182160, Note_on_c, 9, 36, 125
1, 182162, Note_on_c, 9, 44, 76
1, 182283, Note_on_c, 2, 70, 0
1, 182285, Note_on_c, 2, 65, 0
1, 182288, Note_on_c, 2, 74, 0
1, 182300, Note_on_c, 9, 44, 0
1, 182319, Note_on_c, 9, 36, 0
1, 182329, Note_on_c, 1, 46, 0
1, 182404, Note_on_c, 9, 42, 117
1, 182585, Note_on_c, 9, 42, 0
1, 182640, Note_on_c, 1, 46, 92
1, 182640, Note_on_c, 2, 74, 80
1, 182640, Note_on_c, 2, 70, 109
1, 182640, Note_on_c, 2, 65, 80
1, 182640, Note_on_c, 9, 44, 76
1, 182640, Note_on_c, 9, 36, 81
1, 182714, Note_on_c, 1, 46, 0
1, 182716, Note_on_c, 2, 70, 0
1, 182739, Note_on_c, 9, 36, 0
1, 182740, Note_on_c, 2, 65, 0
1, 182743, Note_on_c, 2, 74, 0
1, 182799, Note_on_c, 9, 44, 0
1, 182880, Note_on_c, 1, 46, 101
1, 182880, Note_on_c, 2, 74, 104
1, 182880, Note_on_c, 2, 70, 117
1, 182880, Note_on_c, 2, 65, 98
1, 182880, Note_on_c, 9, 42, 117
1, 182880, Note_on_c, 9, 36, 125
1, 183020, Note_on_c, 9, 36, 0
1, 183063, Note_on_c, 9, 42, 0
1, 183120, Note_on_c, 9, 44, 76
1, 183247, Note_on_c, 9, 44, 0
1, 183360, Note_on_c, 9, 42, 117
1, 183360, Note_on_c, 9, 38, 86
1, 183393, Note_on_c, 1, 46, 0
1, 183523, Note_on_c, 9, 38, 0
1, 183539, Note_on_c, 9, 42, 0
1, 183600, Note_on_c, 9, 44, 77
1, 183750, Note_on_c, 9, 44, 0
1, 183840, Note_on_c, 1, 48, 98
1, 183840, Note_on_c, 9, 42, 117
1, 183866, Note_on_c, 2, 70, 0
1, 183880, Note_on_c, 2, 65, 0
1, 183932, Note_on_c, 2, 74, 0
1, 184023, Note_on_c, 9, 42, 0
1, 184080, Note_on_c, 1, 50, 92
1, 184080, Note_on_c, 9, 44, 78
1, 184089, Note_on_c, 1, 48, 0
1, 184221, Note_on_c, 9, 44, 0
1, 184272, Note_on_c, 1, 50, 0
1, 184305, Note_on_c, 8, 86, 0
1, 184316, Note_on_c, 0, 62, 0
1, 184320, Note_on_c, 8, 77, 0
1, 184320, Note_on_c, 0, 53, 0
1, 184320, Note_on_c, 8, 82, 0
1, 184320, Note_on_c, 0, 58, 0
1, 184320, Note_on_c, 0, 53, 88
1, 184320, Note_on_c, 0, 57, 92
1, 184320, Note_on_c, 0, 60, 90
1, 184320, Note_on_c, 1, 41, 104
1, 184320, Note_on_c, 8, 77, 92
1, 184320, Note_on_c, 8, 81, 101
1, 184320, Note_on_c, 8, 84, 106
1, 184320, Note_on_c, 9, 42, 117
1, 184320, Note_on_c, 9, 36, 127
1, 184514, Note_on_c, 9, 36, 0
1, 184549, Note_on_c, 9, 42, 0
1, 184560, Note_on_c, 9, 44, 77
1, 184730, Note_on_c, 9, 44, 0
1, 184800, Note_on_c, 9, 36, 126
1, 184804, Note_on_c, 9, 42, 117
1, 185034, Note_on_c, 9, 36, 0
1, 185038, Note_on_c, 9, 42, 0
1, 185040, Note_on_c, 9, 44, 77
1, 185217, Note_on_c, 9, 44, 0
1, 185280, Note_on_c, 2, 77, 88
1, 185280, Note_on_c, 2, 72, 98
1, 185280, Note_on_c, 2, 69, 80
1, 185280, Note_on_c, 9, 38, 83
1, 185284, Note_on_c, 9, 42, 117
1, 185415, Note_on_c, 2, 69, 0
1, 185443, Note_on_c, 2, 72, 0
1, 185479, Note_on_c, 9, 38, 0
1, 185479, Note_on_c, 2, 77, 0
1, 185482, Note_on_c, 9, 42, 0
1, 185520, Note_on_c, 1, 41, 0
1, 185520, Note_on_c, 9, 44, 77
1, 185692, Note_on_c, 9, 44, 0
1, 185764, Note_on_c, 9, 42, 117
1, 185964, Note_on_c, 9, 42, 0
1, 186000, Note_on_c, 1, 41, 109
1, 186000, Note_on_c, 2, 77, 84
1, 186000, Note_on_c, 2, 72, 98
1, 186000, Note_on_c, 2, 69, 88
1, 186000, Note_on_c, 2, 72, 86
1, 186000, Note_on_c, 2, 77, 104
1, 186000, Note_on_c, 9, 36, 127
1, 186002, Note_on_c, 9, 44, 76
1, 186124, Note_on_c, 2, 69, 0
1, 186127, Note_on_c, 2, 72, 0
1, 186140, Note_on_c, 9, 44, 0
1, 186151, Note_on_c, 2, 77, 0
1, 186192, Note_on_c, 9, 36, 0
1, 186229, Note_on_c, 1, 41, 0
1, 186240, Note_on_c, 2, 81, 92
1, 186244, Note_on_c, 9, 42, 117
1, 186329, Note_on_c, 2, 77, 0
1, 186373, Note_on_c, 2, 81, 0
1, 186377, Note_on_c, 2, 72, 0
1, 186425, Note_on_c, 9, 42, 0
1, 186480, Note_on_c, 1, 41, 88
1, 186480, Note_on_c, 2, 77, 82
1, 186480, Note_on_c, 2, 72, 90
1, 186480, Note_on_c, 2, 69, 80
1, 186480, Note_on_c, 2, 81, 88
1, 186480, Note_on_c, 2, 72, 50
1, 186480, Note_on_c, 9, 44, 76
1, 186480, Note_on_c, 9, 36, 82
1, 186559, Note_on_c, 2, 72, 0
1, 186569, Note_on_c, 2, 69, 0
1, 186572, Note_on_c, 1, 41, 0
1, 186576, Note_on_c, 9, 36, 0
1, 186586, Note_on_c, 2, 77, 0
1, 186592, Note_on_c, 2, 72, 0
1, 186609, Note_on_c, 2, 81, 0
1, 186639, Note_on_c, 9, 44, 0
1, 186720, Note_on_c, 1, 41, 98
1, 186720, Note_on_c, 2, 77, 84
1, 186720, Note_on_c, 2, 72, 67
1, 186720, Note_on_c, 2, 81, 88
1, 186720, Note_on_c, 2, 69, 84
1, 186720, Note_on_c, 2, 72, 98
1, 186720, Note_on_c, 9, 36, 127
1, 186720, Note_on_c, 9, 42, 117
1, 186839, Note_on_c, 2, 72, 0
1, 186841, Note_on_c, 2, 81, 0
1, 186903, Note_on_c, 9, 42, 0
1, 186914, Note_on_c, 9, 36, 0
1, 186960, Note_on_c, 2, 72, 54
1, 186960, Note_on_c, 2, 81, 80
1, 186960, Note_on_c, 9, 44, 76
1, 187085, Note_on_c, 2, 81, 0
1, 187085, Note_on_c, 2, 72, 0
1, 187087, Note_on_c, 9, 44, 0
1, 187200, Note_on_c, 2, 72, 70
1, 187200, Note_on_c, 2, 81, 98
1, 187208, Note_on_c, 1, 41, 0
1, 187317, Note_on_c, 2, 81, 0
1, 187324, Note_on_c, 2, 72, 0
1, 187440, Note_on_c, 2, 72, 60
1, 187440, Note_on_c, 2, 81, 80
1, 187654, Note_on_c, 2, 81, 0
1, 187665, Note_on_c, 2, 72, 0
1, 187680, Note_on_c, 2, 81, 59
1, 187680, Note_on_c, 2, 79, 104
1, 187694, Note_on_c, 2, 69, 0
1, 187722, Note_on_c, 2, 81, 0
1, 187722, Note_on_c, 2, 77, 0
1, 187873, Note_on_c, 2, 79, 0
1, 187922, Note_on_c, 2, 72, 0
1, 188160, Note_on_c, 8, 77, 0
1, 188160, Note_on_c, 8, 84, 0
1, 188160, Note_on_c, 0, 60, 0
1, 188160, Note_on_c, 0, 57, 0
1, 188160, Note_on_c, 0, 53, 0
1, 188160, Note_on_c, 8, 81, 0
1, 188160, Note_on_c, 0, 52, 86
1, 188160, Note_on_c, 0, 57, 82
1, 188160, Note_on_c, 0, 60, 80
1, 188160, Note_on_c, 1, 45, 104
1, 188160, Note_on_c, 8, 88, 95
1, 188160, Note_on_c, 8, 84, 92
1, 188160, Note_on_c, 8, 81, 88
1, 188160, Note_on_c, 9, 36, 127
1, 188160, Note_on_c, 9, 42, 117
1, 188348, Note_on_c, 9, 36, 0
1, 188389, Note_on_c, 9, 42, 0
1, 188400, Note_on_c, 9, 44, 77
1, 188570, Note_on_c, 9, 44, 0
1, 188640, Note_on_c, 9, 36, 126
1, 188644, Note_on_c, 9, 42, 117
1, 188814, Note_on_c, 9, 36, 0
1, 188878, Note_on_c, 9, 42, 0
1, 188880, Note_on_c, 9, 44, 77
1, 189057, Note_on_c, 9, 44, 0
1, 189120, Note_on_c, 2, 76, 92
1, 189120, Note_on_c, 2, 72, 98
1, 189120, Note_on_c, 2, 69, 88
1, 189120, Note_on_c, 9, 38, 84
1, 189124, Note_on_c, 9, 42, 117
1, 189257, Note_on_c, 2, 69, 0
1, 189270, Note_on_c, 2, 72, 0
1, 189300, Note_on_c, 2, 76, 0
1, 189307, Note_on_c, 9, 38, 0
1, 189322, Note_on_c, 9, 42, 0
1, 189360, Note_on_c, 1, 45, 0
1, 189360, Note_on_c, 9, 44, 77
1, 189532, Note_on_c, 9, 44, 0
1, 189604, Note_on_c, 9, 42, 117
1, 189804, Note_on_c, 9, 42, 0
1, 189840, Note_on_c, 1, 45, 98
1, 189840, Note_on_c, 2, 69, 80
1, 189840, Note_on_c, 2, 72, 84
1, 189840, Note_on_c, 2, 72, 88
1, 189840, Note_on_c, 2, 76, 92
1, 189840, Note_on_c, 2, 76, 73
1, 189840, Note_on_c, 9, 36, 125
1, 189842, Note_on_c, 9, 44, 76
1, 189967, Note_on_c, 2, 69, 0
1, 189972, Note_on_c, 2, 76, 0
1, 189974, Note_on_c, 2, 72, 0
1, 189980, Note_on_c, 9, 44, 0
1, 189999, Note_on_c, 9, 36, 0
1, 190037, Note_on_c, 1, 45, 0
1, 190080, Note_on_c, 2, 79, 104
1, 190084, Note_on_c, 9, 42, 117
1, 190150, Note_on_c, 2, 76, 0
1, 190216, Note_on_c, 2, 79, 0
1, 190248, Note_on_c, 2, 72, 0
1, 190265, Note_on_c, 9, 42, 0
1, 190320, Note_on_c, 1, 45, 84
1, 190320, Note_on_c, 2, 79, 76
1, 190320, Note_on_c, 2, 72, 40
1, 190320, Note_on_c, 9, 36, 81
1, 190320, Note_on_c, 9, 44, 76
1, 190322, Note_on_c, 2, 69, 68
1, 190322, Note_on_c, 2, 72, 88
1, 190322, Note_on_c, 2, 76, 74
1, 190405, Note_on_c, 2, 76, 0
1, 190405, Note_on_c, 2, 69, 0
1, 190406, Note_on_c, 2, 72, 0
1, 190409, Note_on_c, 1, 45, 0
1, 190419, Note_on_c, 9, 36, 0
1, 190444, Note_on_c, 2, 79, 0
1, 190469, Note_on_c, 2, 72, 0
1, 190479, Note_on_c, 9, 44, 0
1, 190560, Note_on_c, 1, 45, 88
1, 190560, Note_on_c, 2, 72, 41
1, 190560, Note_on_c, 2, 79, 80
1, 190560, Note_on_c, 9, 36, 125
1, 190560, Note_on_c, 9, 42, 117
1, 190562, Note_on_c, 2, 69, 95
1, 190562, Note_on_c, 2, 76, 95
1, 190562, Note_on_c, 2, 72, 90
1, 190687, Note_on_c, 2, 79, 0
1, 190700, Note_on_c, 9, 36, 0
1, 190702, Note_on_c, 2, 72, 0
1, 190743, Note_on_c, 9, 42, 0
1, 190800, Note_on_c, 2, 72, 41
1, 190800, Note_on_c, 2, 79, 92
1, 190800, Note_on_c, 9, 44, 76
1, 190924, Note_on_c, 2, 79, 0
1, 190927, Note_on_c, 9, 44, 0
1, 190942, Note_on_c, 2, 72, 0
1, 191040, Note_on_c, 2, 79, 92
1, 191040, Note_on_c, 2, 72, 45
1, 191106, Note_on_c, 1, 45, 0
1, 191151, Note_on_c, 2, 79, 0
1, 191173, Note_on_c, 2, 72, 0
1, 191280, Note_on_c, 2, 79, 92
1, 191280, Note_on_c, 2, 72, 49
1, 191433, Note_on_c, 2, 79, 0
1, 191494, Note_on_c, 2, 72, 0
1, 191494, Note_on_c, 2, 76, 0
1, 191498, Note_on_c, 2, 69, 0
1, 191520, Note_on_c, 2, 77, 117
1, 191695, Note_on_c, 2, 77, 0
1, 191728, Note_on_c, 2, 72, 0
1, 192000, Note_on_c, 0, 60, 0
1, 192000, Note_on_c, 8, 81, 0
1, 192000, Note_on_c, 0, 52, 0
1, 192000, Note_on_c, 0, 57, 0
1, 192000, Note_on_c, 8, 84, 0
1, 192000, Note_on_c, 8, 88, 0
1, 192000, Note_on_c, 0, 53, 86
1, 192000, Note_on_c, 0, 57, 86
1, 192000, Note_on_c, 0, 62, 84
1, 192000, Note_on_c, 1, 38, 98
1, 192000, Note_on_c, 8, 77, 104
1, 192000, Note_on_c, 8, 81, 88
1, 192000, Note_on_c, 8, 86, 80
1, 192000, Note_on_c, 9, 36, 127
1, 192000, Note_on_c, 9, 42, 117
1, 192194, Note_on_c, 9, 36, 0
1, 192229, Note_on_c, 9, 42, 0
1, 192240, Note_on_c, 9, 44, 77
1, 192410, Note_on_c, 9, 44, 0
1, 192480, Note_on_c, 9, 36, 126
1, 192484, Note_on_c, 9, 42, 117
1, 192714, Note_on_c, 9, 36, 0
1, 192718, Note_on_c, 9, 42, 0
1, 192720, Note_on_c, 9, 44, 77
1, 192897, Note_on_c, 9, 44, 0
1, 192960, Note_on_c, 9, 38, 83
1, 192962, Note_on_c, 2, 74, 88
1, 192962, Note_on_c, 2, 69, 106
1, 192962, Note_on_c, 2, 65, 80
1, 192964, Note_on_c, 9, 42, 117
1, 193118, Note_on_c, 2, 69, 0
1, 193131, Note_on_c, 2, 65, 0
1, 193159, Note_on_c, 9, 38, 0
1, 193162, Note_on_c, 9, 42, 0
1, 193175, Note_on_c, 2, 74, 0
1, 193200, Note_on_c, 1, 38, 0
1, 193200, Note_on_c, 9, 44, 77
1, 193372, Note_on_c, 9, 44, 0
1, 193444, Note_on_c, 9, 42, 117
1, 193644, Note_on_c, 9, 42, 0
1, 193680, Note_on_c, 1, 38, 92
1, 193680, Note_on_c, 2, 74, 90
1, 193680, Note_on_c, 2, 65, 95
1, 193680, Note_on_c, 9, 36, 127
1, 193682, Note_on_c, 2, 69, 106
1, 193682, Note_on_c, 9, 44, 76
1, 193796, Note_on_c, 2, 69, 0
1, 193799, Note_on_c, 2, 65, 0
1, 193820, Note_on_c, 9, 44, 0
1, 193823, Note_on_c, 2, 74, 0
1, 193855, Note_on_c, 1, 38, 0
1, 193872, Note_on_c, 9, 36, 0
1, 193924, Note_on_c, 9, 42, 117
1, 194105, Note_on_c, 9, 42, 0
1, 194160, Note_on_c, 1, 38, 84
1, 194160, Note_on_c, 2, 69, 98
1, 194160, Note_on_c, 9, 36, 82
1, 194160, Note_on_c, 9, 44, 76
1, 194162, Note_on_c, 2, 65, 84
1, 194162, Note_on_c, 2, 74, 74
1, 194243, Note_on_c, 2, 69, 0
1, 194246, Note_on_c, 2, 74, 0
1, 194249, Note_on_c, 2, 65, 0
1, 194256, Note_on_c, 9, 36, 0
1, 194281, Note_on_c, 1, 38, 0
1, 194319, Note_on_c, 9, 44, 0
1, 194400, Note_on_c, 1, 38, 98
1, 194400, Note_on_c, 9, 36, 127
1, 194400, Note_on_c, 9, 42, 117
1, 194402, Note_on_c, 2, 65, 92
1, 194402, Note_on_c, 2, 74, 101
1, 194402, Note_on_c, 2, 69, 104
1, 194583, Note_on_c, 9, 42, 0
1, 194594, Note_on_c, 9, 36, 0
1, 194640, Note_on_c, 9, 44, 76
1, 194767, Note_on_c, 9, 44, 0
1, 194894, Note_on_c, 1, 38, 0
1, 195305, Note_on_c, 2, 69, 0
1, 195321, Note_on_c, 2, 65, 0
1, 195335, Note_on_c, 2, 74, 0
1, 195840, Note_on_c, 8, 81, 0
1, 195840, Note_on_c, 0, 62, 0
1, 195840, Note_on_c, 0, 57, 0
1, 195840, Note_on_c, 8, 86, 0
1, 195840, Note_on_c, 8, 77, 0
1, 195840, Note_on_c, 0, 53, 0
1, 195840, Note_on_c, 0, 53, 88
1, 195840, Note_on_c, 0, 58, 98
1, 195840, Note_on_c, 0, 62, 82
1, 195840, Note_on_c, 1, 46, 101
1, 195840, Note_on_c, 8, 77, 90
1, 195840, Note_on_c, 8, 82, 101
1, 195840, Note_on_c, 8, 86, 80
1, 195840, Note_on_c, 9, 42, 117
1, 195840, Note_on_c, 9, 36, 127
1, 196028, Note_on_c, 9, 36, 0
1, 196069, Note_on_c, 9, 42, 0
1, 196080, Note_on_c, 9, 44, 77
1, 196250, Note_on_c, 9, 44, 0
1, 196320, Note_on_c, 9, 36, 126
1, 196324, Note_on_c, 9, 42, 117
1, 196494, Note_on_c, 9, 36, 0
1, 196558, Note_on_c, 9, 42, 0
1, 196560, Note_on_c, 9, 44, 77
1, 196737, Note_on_c, 9, 44, 0
1, 196800, Note_on_c, 9, 38, 84
1, 196802, Note_on_c, 2, 65, 92
1, 196802, Note_on_c, 2, 74, 82
1, 196802, Note_on_c, 2, 70, 101
1, 196804, Note_on_c, 9, 42, 117
1, 196962, Note_on_c, 2, 65, 0
1, 196987, Note_on_c, 9, 38, 0
1, 196990, Note_on_c, 2, 70, 0
1, 197002, Note_on_c, 9, 42, 0
1, 197015, Note_on_c, 2, 74, 0
1, 197040, Note_on_c, 1, 46, 0
1, 197040, Note_on_c, 9, 44, 77
1, 197212, Note_on_c, 9, 44, 0
1, 197284, Note_on_c, 9, 42, 117
1, 197484, Note_on_c, 9, 42, 0
1, 197520, Note_on_c, 1, 46, 117
1, 197520, Note_on_c, 2, 70, 101
1, 197520, Note_on_c, 2, 65, 82
1, 197520, Note_on_c, 2, 74, 67
1, 197520, Note_on_c, 9, 36, 125
1, 197522, Note_on_c, 9, 44, 76
1, 197643, Note_on_c, 2, 70, 0
1, 197645, Note_on_c, 2, 65, 0
1, 197648, Note_on_c, 2, 74, 0
1, 197660, Note_on_c, 9, 44, 0
1, 197679, Note_on_c, 9, 36, 0
1, 197689, Note_on_c, 1, 46, 0
1, 197764, Note_on_c, 9, 42, 117
1, 197945, Note_on_c, 9, 42, 0
1, 198000, Note_on_c, 1, 46, 92
1, 198000, Note_on_c, 2, 74, 80
1, 198000, Note_on_c, 2, 70, 109
1, 198000, Note_on_c, 2, 65, 80
1, 198000, Note_on_c, 9, 44, 76
1, 198000, Note_on_c, 9, 36, 81
1, 198074, Note_on_c, 1, 46, 0
1, 198076, Note_on_c, 2, 70, 0
1, 198099, Note_on_c, 9, 36, 0
1, 198100, Note_on_c, 2, 65, 0
1, 198103, Note_on_c, 2, 74, 0
1, 198159, Note_on_c, 9, 44, 0
1, 198240, Note_on_c, 1, 46, 101
1, 198240, Note_on_c, 2, 65, 98
1, 198240, Note_on_c, 2, 74, 104
1, 198240, Note_on_c, 2, 70, 117
1, 198240, Note_on_c, 9, 42, 117
1, 198240, Note_on_c, 9, 36, 125
1, 198380, Note_on_c, 9, 36, 0
1, 198423, Note_on_c, 9, 42, 0
1, 198480, Note_on_c, 9, 44, 76
1, 198607, Note_on_c, 9, 44, 0
1, 198720, Note_on_c, 9, 38, 86
1, 198720, Note_on_c, 9, 42, 117
1, 198753, Note_on_c, 1, 46, 0
1, 198883, Note_on_c, 9, 38, 0
1, 198899, Note_on_c, 9, 42, 0
1, 198960, Note_on_c, 9, 44, 77
1, 199110, Note_on_c, 9, 44, 0
1, 199200, Note_on_c, 1, 48, 98
1, 199200, Note_on_c, 9, 42, 117
1, 199226, Note_on_c, 2, 70, 0
1, 199240, Note_on_c, 2, 65, 0
1, 199292, Note_on_c, 2, 74, 0
1, 199383, Note_on_c, 9, 42, 0
1, 199440, Note_on_c, 1, 50, 92
1, 199440, Note_on_c, 9, 44, 78
1, 199449, Note_on_c, 1, 48, 0
1, 199581, Note_on_c, 9, 44, 0
1, 199632, Note_on_c, 1, 50, 0
1, 199665, Note_on_c, 8, 86, 0
1, 199676, Note_on_c, 0, 62, 0
1, 199680, Note_on_c, 8, 77, 0
1, 199680, Note_on_c, 0, 53, 0
1, 199680, Note_on_c, 8, 82, 0
1, 199680, Note_on_c, 0, 58, 0
1, 199680, Note_on_c, 0, 53, 88
1, 199680, Note_on_c, 0, 57, 92
1, 199680, Note_on_c, 0, 60, 90
1, 199680, Note_on_c, 1, 41, 104
1, 199680, Note_on_c, 3, 53, 88
1, 199680, Note_on_c, 3, 57, 92
1, 199680, Note_on_c, 3, 60, 90
1, 199680, Note_on_c, 7, 53, 88
1, 199680, Note_on_c, 7, 57, 92
1, 199680, Note_on_c, 7, 60, 90
1, 199680, Note_on_c, 8, 77, 92
1, 199680, Note_on_c, 8, 81, 101
1, 199680, Note_on_c, 8, 84, 106
1, 199680, Note_on_c, 9, 53, 68
1, 199680, Note_on_c, 9, 36, 127
1, 199680, Note_on_c, 9, 42, 117
1, 199874, Note_on_c, 9, 36, 0
1, 199909, Note_on_c, 9, 42, 0
1, 199920, Note_on_c, 9, 44, 77
1, 199984, Note_on_c, 9, 53, 0
1, 200090, Note_on_c, 9, 44, 0
1, 200160, Note_on_c, 9, 36, 126
1, 200164, Note_on_c, 9, 42, 117
1, 200394, Note_on_c, 9, 36, 0
1, 200398, Note_on_c, 9, 42, 0
1, 200400, Note_on_c, 9, 44, 77
1, 200577, Note_on_c, 9, 44, 0
1, 200640, Note_on_c, 2, 77, 88
1, 200640, Note_on_c, 2, 69, 80
1, 200640, Note_on_c, 2, 72, 98
1, 200640, Note_on_c, 9, 53, 70
1, 200640, Note_on_c, 9, 38, 83
1, 200644, Note_on_c, 9, 42, 117
1, 200775, Note_on_c, 2, 69, 0
1, 200803, Note_on_c, 2, 72, 0
1, 200839, Note_on_c, 9, 38, 0
1, 200839, Note_on_c, 2, 77, 0
1, 200842, Note_on_c, 9, 42, 0
1, 200880, Note_on_c, 1, 41, 0
1, 200880, Note_on_c, 9, 44, 77
1, 200910, Note_on_c, 9, 53, 0
1, 201052, Note_on_c, 9, 44, 0
1, 201124, Note_on_c, 9, 42, 117
1, 201324, Note_on_c, 9, 42, 0
1, 201360, Note_on_c, 1, 41, 109
1, 201360, Note_on_c, 2, 77, 84
1, 201360, Note_on_c, 2, 69, 88
1, 201360, Note_on_c, 2, 72, 98
1, 201360, Note_on_c, 9, 36, 127
1, 201362, Note_on_c, 9, 44, 76
1, 201484, Note_on_c, 2, 69, 0
1, 201487, Note_on_c, 2, 72, 0
1, 201500, Note_on_c, 9, 44, 0
1, 201511, Note_on_c, 2, 77, 0
1, 201552, Note_on_c, 9, 36, 0
1, 201589, Note_on_c, 1, 41, 0
1, 201600, Note_on_c, 9, 53, 70
1, 201604, Note_on_c, 9, 42, 117
1, 201785, Note_on_c, 9, 42, 0
1, 201819, Note_on_c, 9, 53, 0
1, 201840, Note_on_c, 1, 41, 88
1, 201840, Note_on_c, 2, 77, 82
1, 201840, Note_on_c, 2, 69, 80
1, 201840, Note_on_c, 2, 72, 90
1, 201840, Note_on_c, 9, 44, 76
1, 201840, Note_on_c, 9, 36, 82
1, 201919, Note_on_c, 2, 72, 0
1, 201929, Note_on_c, 2, 69, 0
1, 201932, Note_on_c, 1, 41, 0
1, 201936, Note_on_c, 9, 36, 0
1, 201946, Note_on_c, 2, 77, 0
1, 201999, Note_on_c, 9, 44, 0
1, 202080, Note_on_c, 1, 41, 98
1, 202080, Note_on_c, 2, 77, 84
1, 202080, Note_on_c, 2, 69, 84
1, 202080, Note_on_c, 2, 72, 98
1, 202080, Note_on_c, 9, 42, 117
1, 202080, Note_on_c, 9, 36, 127
1, 202263, Note_on_c, 9, 42, 0
1, 202274, Note_on_c, 9, 36, 0
1, 202320, Note_on_c, 9, 44, 76
1, 202447, Note_on_c, 9, 44, 0
1, 202560, Note_on_c, 9, 53, 70
1, 202560, Note_on_c, 9, 42, 117
1, 202560, Note_on_c, 9, 38, 83
1, 202568, Note_on_c, 1, 41, 0
1, 202739, Note_on_c, 9, 42, 0
1, 202776, Note_on_c, 9, 38, 0
1, 202800, Note_on_c, 9, 44, 77
1, 202839, Note_on_c, 9, 53, 0
1, 202950, Note_on_c, 9, 44, 0
1, 203025, Note_on_c, 2, 72, 0
1, 203040, Note_on_c, 1, 43, 98
1, 203040, Note_on_c, 9, 42, 117
1, 203054, Note_on_c, 2, 69, 0
1, 203082, Note_on_c, 2, 77, 0
1, 203223, Note_on_c, 9, 42, 0
1, 203232, Note_on_c, 1, 43, 0
1, 203280, Note_on_c, 9, 44, 78
1, 203421, Note_on_c, 9, 44, 0
1, 203520, Note_on_c, 3, 60, 0
1, 203520, Note_on_c, 0, 57, 0
1, 203520, Note_on_c, 7, 57, 0
1, 203520, Note_on_c, 0, 60, 0
1, 203520, Note_on_c, 3, 53, 0
1, 203520, Note_on_c, 8, 77, 0
1, 203520, Note_on_c, 8, 84, 0
1, 203520, Note_on_c, 7, 53, 0
1, 203520, Note_on_c, 7, 60, 0
1, 203520, Note_on_c, 8, 81, 0
1, 203520, Note_on_c, 0, 53, 0
1, 203520, Note_on_c, 3, 57, 0
1, 203520, Note_on_c, 0, 52, 86
1, 203520, Note_on_c, 0, 57, 82
1, 203520, Note_on_c, 0, 60, 80
1, 203520, Note_on_c, 1, 45, 104
1, 203520, Note_on_c, 3, 52, 86
1, 203520, Note_on_c, 3, 57, 82
1, 203520, Note_on_c, 3, 60, 80
1, 203520, Note_on_c, 7, 52, 86
1, 203520, Note_on_c, 7, 57, 82
1, 203520, Note_on_c, 7, 60, 80
1, 203520, Note_on_c, 8, 88, 95
1, 203520, Note_on_c, 8, 84, 92
1, 203520, Note_on_c, 8, 81, 88
1, 203520, Note_on_c, 9, 36, 127
1, 203520, Note_on_c, 9, 53, 70
1, 203520, Note_on_c, 9, 42, 117
1, 203708, Note_on_c, 9, 36, 0
1, 203749, Note_on_c, 9, 42, 0
1, 203760, Note_on_c, 9, 44, 77
1, 203777, Note_on_c, 9, 53, 0
1, 203930, Note_on_c, 9, 44, 0
1, 204000, Note_on_c, 9, 36, 126
1, 204004, Note_on_c, 9, 42, 117
1, 204174, Note_on_c, 9, 36, 0
1, 204238, Note_on_c, 9, 42, 0
1, 204240, Note_on_c, 9, 44, 77
1, 204417, Note_on_c, 9, 44, 0
1, 204480, Note_on_c, 2, 76, 92
1, 204480, Note_on_c, 2, 72, 98
1, 204480, Note_on_c, 2, 69, 88
1, 204480, Note_on_c, 9, 53, 68
1, 204480, Note_on_c, 9, 38, 84
1, 204484, Note_on_c, 9, 42, 117
1, 204617, Note_on_c, 2, 69, 0
1, 204630, Note_on_c, 2, 72, 0
1, 204660, Note_on_c, 2, 76, 0
1, 204667, Note_on_c, 9, 38, 0
1, 204682, Note_on_c, 9, 42, 0
1, 204720, Note_on_c, 1, 45, 0
1, 204720, Note_on_c, 9, 44, 77
1, 204745, Note_on_c, 9, 53, 0
1, 204892, Note_on_c, 9, 44, 0
1, 204964, Note_on_c, 9, 42, 117
1, 205164, Note_on_c, 9, 42, 0
1, 205200, Note_on_c, 1, 45, 98
1, 205200, Note_on_c, 2, 69, 80
1, 205200, Note_on_c, 2, 72, 84
1, 205200, Note_on_c, 2, 76, 73
1, 205200, Note_on_c, 9, 36, 125
1, 205202, Note_on_c, 9, 44, 76
1, 205327, Note_on_c, 2, 69, 0
1, 205332, Note_on_c, 2, 76, 0
1, 205334, Note_on_c, 2, 72, 0
1, 205340, Note_on_c, 9, 44, 0
1, 205359, Note_on_c, 9, 36, 0
1, 205397, Note_on_c, 1, 45, 0
1, 205440, Note_on_c, 9, 53, 68
1, 205444, Note_on_c, 9, 42, 117
1, 205625, Note_on_c, 9, 42, 0
1, 205680, Note_on_c, 1, 45, 84
1, 205680, Note_on_c, 9, 44, 76
1, 205680, Note_on_c, 9, 36, 81
1, 205682, Note_on_c, 2, 72, 88
1, 205682, Note_on_c, 2, 76, 74
1, 205682, Note_on_c, 2, 69, 68
1, 205696, Note_on_c, 9, 53, 0
1, 205765, Note_on_c, 2, 69, 0
1, 205765, Note_on_c, 2, 76, 0
1, 205766, Note_on_c, 2, 72, 0
1, 205769, Note_on_c, 1, 45, 0
1, 205779, Note_on_c, 9, 36, 0
1, 205839, Note_on_c, 9, 44, 0
1, 205920, Note_on_c, 1, 45, 88
1, 205920, Note_on_c, 9, 36, 125
1, 205920, Note_on_c, 9, 42, 117
1, 205922, Note_on_c, 2, 76, 95
1, 205922, Note_on_c, 2, 69, 95
1, 205922, Note_on_c, 2, 72, 90
1, 206060, Note_on_c, 9, 36, 0
1, 206103, Note_on_c, 9, 42, 0
1, 206160, Note_on_c, 9, 44, 76
1, 206287, Note_on_c, 9, 44, 0
1, 206400, Note_on_c, 9, 42, 117
1, 206400, Note_on_c, 9, 38, 86
1, 206400, Note_on_c, 9, 53, 69
1, 206466, Note_on_c, 1, 45, 0
1, 206563, Note_on_c, 9, 38, 0
1, 206579, Note_on_c, 9, 42, 0
1, 206640, Note_on_c, 9, 44, 77
1, 206676, Note_on_c, 9, 53, 0
1, 206790, Note_on_c, 9, 44, 0
1, 206854, Note_on_c, 2, 76, 0
1, 206854, Note_on_c, 2, 72, 0
1, 206858, Note_on_c, 2, 69, 0
1, 206880, Note_on_c, 1, 48, 109
1, 206880, Note_on_c, 9, 42, 117
1, 207062, Note_on_c, 1, 48, 0
1, 207063, Note_on_c, 9, 42, 0
1, 207120, Note_on_c, 9, 44, 78
1, 207261, Note_on_c, 9, 44, 0
1, 207360, Note_on_c, 0, 52, 0
1, 207360, Note_on_c, 0, 57, 0
1, 207360, Note_on_c, 7, 57, 0
1, 207360, Note_on_c, 0, 60, 0
1, 207360, Note_on_c, 7, 52, 0
1, 207360, Note_on_c, 8, 84, 0
1, 207360, Note_on_c, 3, 57, 0
1, 207360, Note_on_c, 8, 88, 0
1, 207360, Note_on_c, 7, 60, 0
1, 207360, Note_on_c, 3, 60, 0
1, 207360, Note_on_c, 3, 52, 0
1, 207360, Note_on_c, 8, 81, 0
1, 207360, Note_on_c, 0, 53, 86
1, 207360, Note_on_c, 0, 57, 86
1, 207360, Note_on_c, 0, 62, 84
1, 207360, Note_on_c, 1, 38, 98
1, 207360, Note_on_c, 3, 53, 86
1, 207360, Note_on_c, 3, 57, 86
1, 207360, Note_on_c, 3, 62, 84
1, 207360, Note_on_c, 7, 53, 86
1, 207360, Note_on_c, 7, 57, 86
1, 207360, Note_on_c, 7, 62, 84
1, 207360, Note_on_c, 8, 77, 104
1, 207360, Note_on_c, 8, 81, 88
1, 207360, Note_on_c, 8, 86, 80
1, 207360, Note_on_c, 9, 36, 127
1, 207360, Note_on_c, 9, 42, 117
1, 207360, Note_on_c, 9, 53, 69
1, 207554, Note_on_c, 9, 36, 0
1, 207589, Note_on_c, 9, 42, 0
1, 207600, Note_on_c, 9, 44, 77
1, 207607, Note_on_c, 9, 53, 0
1, 207770, Note_on_c, 9, 44, 0
1, 207840, Note_on_c, 9, 36, 126
1, 207844, Note_on_c, 9, 42, 117
1, 208074, Note_on_c, 9, 36, 0
1, 208078, Note_on_c, 9, 42, 0
1, 208080, Note_on_c, 9, 44, 77
1, 208257, Note_on_c, 9, 44, 0
1, 208320, Note_on_c, 9, 53, 67
1, 208320, Note_on_c, 9, 38, 83
1, 208322, Note_on_c, 2, 74, 88
1, 208322, Note_on_c, 2, 65, 80
1, 208322, Note_on_c, 2, 69, 106
1, 208324, Note_on_c, 9, 42, 117
1, 208478, Note_on_c, 2, 69, 0
1, 208491, Note_on_c, 2, 65, 0
1, 208519, Note_on_c, 9, 38, 0
1, 208522, Note_on_c, 9, 42, 0
1, 208535, Note_on_c, 2, 74, 0
1, 208560, Note_on_c, 1, 38, 0
1, 208560, Note_on_c, 9, 44, 77
1, 208581, Note_on_c, 9, 53, 0
1, 208732, Note_on_c, 9, 44, 0
1, 208804, Note_on_c, 9, 42, 117
1, 209004, Note_on_c, 9, 42, 0
1, 209040, Note_on_c, 1, 38, 92
1, 209040, Note_on_c, 2, 74, 90
1, 209040, Note_on_c, 2, 65, 95
1, 209040, Note_on_c, 9, 36, 127
1, 209042, Note_on_c, 2, 69, 106
1, 209042, Note_on_c, 9, 44, 76
1, 209156, Note_on_c, 2, 69, 0
1, 209159, Note_on_c, 2, 65, 0
1, 209180, Note_on_c, 9, 44, 0
1, 209183, Note_on_c, 2, 74, 0
1, 209215, Note_on_c, 1, 38, 0
1, 209232, Note_on_c, 9, 36, 0
1, 209280, Note_on_c, 9, 53, 71
1, 209284, Note_on_c, 9, 42, 117
1, 209465, Note_on_c, 9, 42, 0
1, 209520, Note_on_c, 1, 38, 84
1, 209520, Note_on_c, 2, 69, 98
1, 209520, Note_on_c, 9, 44, 76
1, 209520, Note_on_c, 9, 36, 82
1, 209522, Note_on_c, 2, 65, 84
1, 209522, Note_on_c, 2, 74, 74
1, 209566, Note_on_c, 9, 53, 0
1, 209603, Note_on_c, 2, 69, 0
1, 209606, Note_on_c, 2, 74, 0
1, 209609, Note_on_c, 2, 65, 0
1, 209616, Note_on_c, 9, 36, 0
1, 209641, Note_on_c, 1, 38, 0
1, 209679, Note_on_c, 9, 44, 0
1, 209760, Note_on_c, 1, 38, 98
1, 209760, Note_on_c, 9, 36, 127
1, 209760, Note_on_c, 9, 42, 117
1, 209762, Note_on_c, 2, 74, 101
1, 209762, Note_on_c, 2, 65, 92
1, 209762, Note_on_c, 2, 69, 104
1, 209943, Note_on_c, 9, 42, 0
1, 209954, Note_on_c, 9, 36, 0
1, 210000, Note_on_c, 9, 44, 76
1, 210127, Note_on_c, 9, 44, 0
1, 210240, Note_on_c, 9, 38, 83
1, 210240, Note_on_c, 9, 53, 72
1, 210240, Note_on_c, 9, 42, 117
1, 210254, Note_on_c, 1, 38, 0
1, 210419, Note_on_c, 9, 42, 0
1, 210456, Note_on_c, 9, 38, 0
1, 210480, Note_on_c, 9, 44, 77
1, 210602, Note_on_c, 9, 53, 0
1, 210630, Note_on_c, 9, 44, 0
1, 210665, Note_on_c, 2, 69, 0
1, 210681, Note_on_c, 2, 65, 0
1, 210695, Note_on_c, 2, 74, 0
1, 210720, Note_on_c, 1, 45, 98
1, 210720, Note_on_c, 9, 42, 117
1, 210899, Note_on_c, 1, 45, 0
1, 210903, Note_on_c, 9, 42, 0
1, 210960, Note_on_c, 9, 44, 78
1, 211101, Note_on_c, 9, 44, 0
1, 211200, Note_on_c, 8, 77, 0
1, 211200, Note_on_c, 0, 57, 0
1, 211200, Note_on_c, 7, 57, 0
1, 211200, Note_on_c, 0, 62, 0
1, 211200, Note_on_c, 0, 53, 0
1, 211200, Note_on_c, 7, 53, 0
1, 211200, Note_on_c, 8, 81, 0
1, 211200, Note_on_c, 3, 53, 0
1, 211200, Note_on_c, 7, 62, 0
1, 211200, Note_on_c, 3, 62, 0
1, 211200, Note_on_c, 3, 57, 0
1, 211200, Note_on_c, 8, 86, 0
1, 211200, Note_on_c, 0, 53, 88
1, 211200, Note_on_c, 0, 58, 98
1, 211200, Note_on_c, 0, 62, 82
1, 211200, Note_on_c, 1, 46, 101
1, 211200, Note_on_c, 3, 53, 88
1, 211200, Note_on_c, 3, 58, 98
1, 211200, Note_on_c, 3, 62, 82
1, 211200, Note_on_c, 7, 53, 88
1, 211200, Note_on_c, 7, 58, 98
1, 211200, Note_on_c, 7, 62, 82
1, 211200, Note_on_c, 8, 77, 90
1, 211200, Note_on_c, 8, 82, 101
1, 211200, Note_on_c, 8, 86, 80
1, 211200, Note_on_c, 9, 53, 70
1, 211200, Note_on_c, 9, 36, 127
1, 211200, Note_on_c, 9, 42, 117
1, 211388, Note_on_c, 9, 36, 0
1, 211429, Note_on_c, 9, 42, 0
1, 211440, Note_on_c, 9, 44, 77
1, 211529, Note_on_c, 9, 53, 0
1, 211610, Note_on_c, 9, 44, 0
1, 211680, Note_on_c, 9, 36, 126
1, 211684, Note_on_c, 9, 42, 117
1, 211854, Note_on_c, 9, 36, 0
1, 211918, Note_on_c, 9, 42, 0
1, 211920, Note_on_c, 9, 44, 77
1, 212097, Note_on_c, 9, 44, 0
1, 212160, Note_on_c, 9, 38, 84
1, 212160, Note_on_c, 9, 53, 71
1, 212162, Note_on_c, 2, 74, 82
1, 212162, Note_on_c, 2, 70, 101
1, 212162, Note_on_c, 2, 65, 92
1, 212164, Note_on_c, 9, 42, 117
1, 212322, Note_on_c, 2, 65, 0
1, 212347, Note_on_c, 9, 38, 0
1, 212350, Note_on_c, 2, 70, 0
1, 212362, Note_on_c, 9, 42, 0
1, 212375, Note_on_c, 2, 74, 0
1, 212400, Note_on_c, 1, 46, 0
1, 212400, Note_on_c, 9, 44, 77
1, 212459, Note_on_c, 9, 53, 0
1, 212572, Note_on_c, 9, 44, 0
1, 212644, Note_on_c, 9, 42, 117
1, 212844, Note_on_c, 9, 42, 0
1, 212880, Note_on_c, 1, 46, 117
1, 212880, Note_on_c, 2, 70, 101
1, 212880, Note_on_c, 2, 65, 82
1, 212880, Note_on_c, 2, 74, 67
1, 212880, Note_on_c, 9, 36, 125
1, 212882, Note_on_c, 9, 44, 76
1, 213003, Note_on_c, 2, 70, 0
1, 213005, Note_on_c, 2, 65, 0
1, 213008, Note_on_c, 2, 74, 0
1, 213020, Note_on_c, 9, 44, 0
1, 213039, Note_on_c, 9, 36, 0
1, 213049, Note_on_c, 1, 46, 0
1, 213120, Note_on_c, 9, 53, 71
1, 213124, Note_on_c, 9, 42, 117
1, 213305, Note_on_c, 9, 42, 0
1, 213360, Note_on_c, 1, 46, 92
1, 213360, Note_on_c, 2, 65, 80
1, 213360, Note_on_c, 2, 74, 80
1, 213360, Note_on_c, 2, 70, 109
1, 213360, Note_on_c, 9, 44, 76
1, 213360, Note_on_c, 9, 36, 81
1, 213409, Note_on_c, 9, 53, 0
1, 213434, Note_on_c, 1, 46, 0
1, 213436, Note_on_c, 2, 70, 0
1, 213459, Note_on_c, 9, 36, 0
1, 213460, Note_on_c, 2, 65, 0
1, 213463, Note_on_c, 2, 74, 0
1, 213519, Note_on_c, 9, 44, 0
1, 213600, Note_on_c, 1, 46, 101
1, 213600, Note_on_c, 2, 74, 104
1, 213600, Note_on_c, 2, 65, 98
1, 213600, Note_on_c, 2, 70, 117
1, 213600, Note_on_c, 9, 36, 125
1, 213600, Note_on_c, 9, 42, 117
1, 213740, Note_on_c, 9, 36, 0
1, 213783, Note_on_c, 9, 42, 0
1, 213840, Note_on_c, 9, 44, 76
1, 213967, Note_on_c, 9, 44, 0
1, 214080, Note_on_c, 9, 53, 74
1, 214080, Note_on_c, 9, 38, 86
1, 214080, Note_on_c, 9, 42, 117
1, 214113, Note_on_c, 1, 46, 0
1, 214243, Note_on_c, 9, 38, 0
1, 214259, Note_on_c, 9, 42, 0
1, 214320, Note_on_c, 9, 53, 0
1, 214320, Note_on_c, 9, 44, 77
1, 214470, Note_on_c, 9, 44, 0
1, 214560, Note_on_c, 1, 48, 98
1, 214560, Note_on_c, 9, 42, 117
1, 214586, Note_on_c, 2, 70, 0
1, 214600, Note_on_c, 2, 65, 0
1, 214652, Note_on_c, 2, 74, 0
1, 214743, Note_on_c, 9, 42, 0
1, 214800, Note_on_c, 1, 50, 92
1, 214800, Note_on_c, 9, 44, 78
1, 214809, Note_on_c, 1, 48, 0
1, 214941, Note_on_c, 9, 44, 0
1, 214992, Note_on_c, 1, 50, 0
1, 215025, Note_on_c, 8, 86, 0
1, 215036, Note_on_c, 7, 62, 0
1, 215036, Note_on_c, 0, 62, 0
1, 215036, Note_on_c, 3, 62, 0
1, 215040, Note_on_c, 7, 58, 0
1, 215040, Note_on_c, 0, 53, 0
1, 215040, Note_on_c, 7, 53, 0
1, 215040, Note_on_c, 8, 82, 0
1, 215040, Note_on_c, 0, 58, 0
1, 215040, Note_on_c, 3, 58, 0
1, 215040, Note_on_c, 3, 53, 0
1, 215040, Note_on_c, 8, 77, 0
1, 215040, Note_on_c, 0, 53, 88
1, 215040, Note_on_c, 0, 57, 92
1, 215040, Note_on_c, 0, 60, 90
1, 215040, Note_on_c, 1, 41, 104
1, 215040, Note_on_c, 3, 53, 88
1, 215040, Note_on_c, 3, 57, 92
1, 215040, Note_on_c, 3, 60, 90
1, 215040, Note_on_c, 7, 53, 88
1, 215040, Note_on_c, 7, 57, 92
1, 215040, Note_on_c, 7, 60, 90
1, 215040, Note_on_c, 8, 77, 92
1, 215040, Note_on_c, 8, 81, 101
1, 215040, Note_on_c, 8, 84, 106
1, 215040, Note_on_c, 9, 42, 117
1, 215040, Note_on_c, 9, 53, 68
1, 215040, Note_on_c, 9, 36, 127
1, 215234, Note_on_c, 9, 36, 0
1, 215269, Note_on_c, 9, 42, 0
1, 215280, Note_on_c, 9, 44, 77
1, 215344, Note_on_c, 9, 53, 0
1, 215450, Note_on_c, 9, 44, 0
1, 215520, Note_on_c, 9, 36, 126
1, 215524, Note_on_c, 9, 42, 117
1, 215754, Note_on_c, 9, 36, 0
1, 215758, Note_on_c, 9, 42, 0
1, 215760, Note_on_c, 9, 44, 77
1, 215937, Note_on_c, 9, 44, 0
1, 216000, Note_on_c, 2, 77, 88
1, 216000, Note_on_c, 2, 69, 80
1, 216000, Note_on_c, 2, 72, 98
1, 216000, Note_on_c, 9, 38, 83
1, 216000, Note_on_c, 9, 53, 70
1, 216004, Note_on_c, 9, 42, 117
1, 216135, Note_on_c, 2, 69, 0
1, 216163, Note_on_c, 2, 72, 0
1, 216199, Note_on_c, 9, 38, 0
1, 216199, Note_on_c, 2, 77, 0
1, 216202, Note_on_c, 9, 42, 0
1, 216240, Note_on_c, 1, 41, 0
1, 216240, Note_on_c, 9, 44, 77
1, 216270, Note_on_c, 9, 53, 0
1, 216412, Note_on_c, 9, 44, 0
1, 216484, Note_on_c, 9, 42, 117
1, 216684, Note_on_c, 9, 42, 0
1, 216720, Note_on_c, 1, 41, 109
1, 216720, Note_on_c, 2, 77, 84
1, 216720, Note_on_c, 2, 69, 88
1, 216720, Note_on_c, 2, 72, 98
1, 216720, Note_on_c, 9, 36, 127
1, 216722, Note_on_c, 9, 44, 76
1, 216844, Note_on_c, 2, 69, 0
1, 216847, Note_on_c, 2, 72, 0
1, 216860, Note_on_c, 9, 44, 0
1, 216871, Note_on_c, 2, 77, 0
1, 216912, Note_on_c, 9, 36, 0
1, 216949, Note_on_c, 1, 41, 0
1, 216960, Note_on_c, 9, 53, 70
1, 216964, Note_on_c, 9, 42, 117
1, 217145, Note_on_c, 9, 42, 0
1, 217179, Note_on_c, 9, 53, 0
1, 217200, Note_on_c, 1, 41, 88
1, 217200, Note_on_c, 2, 77, 82
1, 217200, Note_on_c, 2, 69, 80
1, 217200, Note_on_c, 2, 72, 90
1, 217200, Note_on_c, 9, 36, 82
1, 217200, Note_on_c, 9, 44, 76
1, 217279, Note_on_c, 2, 72, 0
1, 217289, Note_on_c, 2, 69, 0
1, 217292, Note_on_c, 1, 41, 0
1, 217296, Note_on_c, 9, 36, 0
1, 217306, Note_on_c, 2, 77, 0
1, 217359, Note_on_c, 9, 44, 0
1, 217440, Note_on_c, 1, 41, 98
1, 217440, Note_on_c, 2, 77, 84
1, 217440, Note_on_c, 2, 69, 84
1, 217440, Note_on_c, 2, 72, 98
1, 217440, Note_on_c, 9, 36, 127
1, 217440, Note_on_c, 9, 42, 117
1, 217623, Note_on_c, 9, 42, 0
1, 217634, Note_on_c, 9, 36, 0
1, 217680, Note_on_c, 9, 44, 76
1, 217807, Note_on_c, 9, 44, 0
1, 217920, Note_on_c, 9, 42, 117
1, 217920, Note_on_c, 9, 38, 83
1, 217920, Note_on_c, 9, 53, 70
1, 217928, Note_on_c, 1, 41, 0
1, 218099, Note_on_c, 9, 42, 0
1, 218136, Note_on_c, 9, 38, 0
1, 218160, Note_on_c, 9, 44, 77
1, 218199, Note_on_c, 9, 53, 0
1, 218310, Note_on_c, 9, 44, 0
1, 218385, Note_on_c, 2, 72, 0
1, 218400, Note_on_c, 1, 43, 98
1, 218400, Note_on_c, 9, 42, 117
1, 218414, Note_on_c, 2, 69, 0
1, 218442, Note_on_c, 2, 77, 0
1, 218583, Note_on_c, 9, 42, 0
1, 218592, Note_on_c, 1, 43, 0
1, 218640, Note_on_c, 9, 44, 78
1, 218781, Note_on_c, 9, 44, 0
1, 218880, Note_on_c, 3, 60, 0
1, 218880, Note_on_c, 0, 57, 0
1, 218880, Note_on_c, 7, 57, 0
1, 218880, Note_on_c, 0, 60, 0
1, 218880, Note_on_c, 3, 53, 0
1, 218880, Note_on_c, 8, 77, 0
1, 218880, Note_on_c, 8, 84, 0
1, 218880, Note_on_c, 7, 53, 0
1, 218880, Note_on_c, 7, 60, 0
1, 218880, Note_on_c, 8, 81, 0
1, 218880, Note_on_c, 0, 53, 0
1, 218880, Note_on_c, 3, 57, 0
1, 218880, Note_on_c, 0, 52, 86
1, 218880, Note_on_c, 0, 57, 82
1, 218880, Note_on_c, 0, 60, 80
1, 218880, Note_on_c, 1, 45, 104
1, 218880, Note_on_c, 3, 52, 86
1, 218880, Note_on_c, 3, 57, 82
1, 218880, Note_on_c, 3, 60, 80
1, 218880, Note_on_c, 7, 52, 86
1, 218880, Note_on_c, 7, 57, 82
1, 218880, Note_on_c, 7, 60, 80
1, 218880, Note_on_c, 8, 88, 95
1, 218880, Note_on_c, 8, 84, 92
1, 218880, Note_on_c, 8, 81, 88
1, 218880, Note_on_c, 9, 42, 117
1, 218880, Note_on_c, 9, 36, 127
1, 218880, Note_on_c, 9, 53, 70
1, 219068, Note_on_c, 9, 36, 0
1, 219109, Note_on_c, 9, 42, 0
1, 219120, Note_on_c, 9, 44, 77
1, 219137, Note_on_c, 9, 53, 0
1, 219290, Note_on_c, 9, 44, 0
1, 219360, Note_on_c, 9, 36, 126
1, 219364, Note_on_c, 9, 42, 117
1, 219534, Note_on_c, 9, 36, 0
1, 219598, Note_on_c, 9, 42, 0
1, 219600, Note_on_c, 9, 44, 77
1, 219777, Note_on_c, 9, 44, 0
1, 219840, Note_on_c, 2, 76, 92
1, 219840, Note_on_c, 2, 72, 98
1, 219840, Note_on_c, 2, 69, 88
1, 219840, Note_on_c, 9, 53, 68
1, 219840, Note_on_c, 9, 38, 84
1, 219844, Note_on_c, 9, 42, 117
1, 219977, Note_on_c, 2, 69, 0
1, 219990, Note_on_c, 2, 72, 0
1, 220020, Note_on_c, 2, 76, 0
1, 220027, Note_on_c, 9, 38, 0
1, 220042, Note_on_c, 9, 42, 0
1, 220080, Note_on_c, 1, 45, 0
1, 220080, Note_on_c, 9, 44, 77
1, 220105, Note_on_c, 9, 53, 0
1, 220252, Note_on_c, 9, 44, 0
1, 220324, Note_on_c, 9, 42, 117
1, 220524, Note_on_c, 9, 42, 0
1, 220560, Note_on_c, 1, 45, 98
1, 220560, Note_on_c, 2, 69, 80
1, 220560, Note_on_c, 2, 72, 84
1, 220560, Note_on_c, 2, 76, 73
1, 220560, Note_on_c, 9, 36, 125
1, 220562, Note_on_c, 9, 44, 76
1, 220687, Note_on_c, 2, 69, 0
1, 220692, Note_on_c, 2, 76, 0
1, 220694, Note_on_c, 2, 72, 0
1, 220700, Note_on_c, 9, 44, 0
1, 220719, Note_on_c, 9, 36, 0
1, 220757, Note_on_c, 1, 45, 0
1, 220800, Note_on_c, 9, 53, 68
1, 220804, Note_on_c, 9, 42, 117
1, 220985, Note_on_c, 9, 42, 0
1, 221040, Note_on_c, 1, 45, 84
1, 221040, Note_on_c, 9, 36, 81
1, 221040, Note_on_c, 9, 44, 76
1, 221042, Note_on_c, 2, 72, 88
1, 221042, Note_on_c, 2, 76, 74
1, 221042, Note_on_c, 2, 69, 68
1, 221056, Note_on_c, 9, 53, 0
1, 221125, Note_on_c, 2, 69, 0
1, 221125, Note_on_c, 2, 76, 0
1, 221126, Note_on_c, 2, 72, 0
1, 221129, Note_on_c, 1, 45, 0
1, 221139, Note_on_c, 9, 36, 0
1, 221199, Note_on_c, 9, 44, 0
1, 221280, Note_on_c, 1, 45, 88
1, 221280, Note_on_c, 9, 42, 117
1, 221280, Note_on_c, 9, 36, 125
1, 221282, Note_on_c, 2, 76, 95
1, 221282, Note_on_c, 2, 69, 95
1, 221282, Note_on_c, 2, 72, 90
1, 221420, Note_on_c, 9, 36, 0
1, 221463, Note_on_c, 9, 42, 0
1, 221520, Note_on_c, 9, 44, 76
1, 221647, Note_on_c, 9, 44, 0
1, 221760, Note_on_c, 9, 53, 69
1, 221760, Note_on_c, 9, 38, 86
1, 221760, Note_on_c, 9, 42, 117
1, 221826, Note_on_c, 1, 45, 0
1, 221923, Note_on_c, 9, 38, 0
1, 221939, Note_on_c, 9, 42, 0
1, 222000, Note_on_c, 9, 44, 77
1, 222036, Note_on_c, 9, 53, 0
1, 222150, Note_on_c, 9, 44, 0
1, 222214, Note_on_c, 2, 76, 0
1, 222214, Note_on_c, 2, 72, 0
1, 222218, Note_on_c, 2, 69, 0
1, 222240, Note_on_c, 1, 48, 109
1, 222240, Note_on_c, 9, 42, 117
1, 222422, Note_on_c, 1, 48, 0
1, 222423, Note_on_c, 9, 42, 0
1, 222480, Note_on_c, 9, 44, 78
1, 222621, Note_on_c, 9, 44, 0
1, 222720, Note_on_c, 8, 81, 0
1, 222720, Note_on_c, 0, 57, 0
1, 222720, Note_on_c, 7, 57, 0
1, 222720, Note_on_c, 0, 60, 0
1, 222720, Note_on_c, 3, 52, 0
1, 222720, Note_on_c, 8, 84, 0
1, 222720, Note_on_c, 3, 57, 0
1, 222720, Note_on_c, 8, 88, 0
1, 222720, Note_on_c, 7, 60, 0
1, 222720, Note_on_c, 3, 60, 0
1, 222720, Note_on_c, 7, 52, 0
1, 222720, Note_on_c, 0, 52, 0
1, 222720, Note_on_c, 0, 53, 86
1, 222720, Note_on_c, 0, 57, 86
1, 222720, Note_on_c, 0, 62, 84
1, 222720, Note_on_c, 1, 38, 98
1, 222720, Note_on_c, 3, 53, 86
1, 222720, Note_on_c, 3, 57, 86
1, 222720, Note_on_c, 3, 62, 84
1, 222720, Note_on_c, 7, 53, 86
1, 222720, Note_on_c, 7, 57, 86
1, 222720, Note_on_c, 7, 62, 84
1, 222720, Note_on_c, 8, 77, 104
1, 222720, Note_on_c, 8, 81, 88
1, 222720, Note_on_c, 8, 86, 80
1, 222720, Note_on_c, 9, 36, 127
1, 222720, Note_on_c, 9, 53, 69
1, 222720, Note_on_c, 9, 42, 117
1, 222914, Note_on_c, 9, 36, 0
1, 222949, Note_on_c, 9, 42, 0
1, 222960, Note_on_c, 9, 44, 77
1, 222967, Note_on_c, 9, 53, 0
1, 223130, Note_on_c, 9, 44, 0
1, 223200, Note_on_c, 9, 36, 126
1, 223204, Note_on_c, 9, 42, 117
1, 223434, Note_on_c, 9, 36, 0
1, 223438, Note_on_c, 9, 42, 0
1, 223440, Note_on_c, 9, 44, 77
1, 223617, Note_on_c, 9, 44, 0
1, 223680, Note_on_c, 9, 53, 67
1, 223680, Note_on_c, 9, 38, 83
1, 223682, Note_on_c, 2, 74, 88
1, 223682, Note_on_c, 2, 65, 80
1, 223682, Note_on_c, 2, 69, 106
1, 223684, Note_on_c, 9, 42, 117
1, 223838, Note_on_c, 2, 69, 0
1, 223851, Note_on_c, 2, 65, 0
1, 223879, Note_on_c, 9, 38, 0
1, 223882, Note_on_c, 9, 42, 0
1, 223895, Note_on_c, 2, 74, 0
1, 223920, Note_on_c, 1, 38, 0
1, 223920, Note_on_c, 9, 44, 77
1, 223941, Note_on_c, 9, 53, 0
1, 224092, Note_on_c, 9, 44, 0
1, 224164, Note_on_c, 9, 42, 117
1, 224364, Note_on_c, 9, 42, 0
1, 224400, Note_on_c, 1, 38, 92
1, 224400, Note_on_c, 2, 74, 90
1, 224400, Note_on_c, 2, 65, 95
1, 224400, Note_on_c, 9, 36, 127
1, 224402, Note_on_c, 2, 69, 106
1, 224402, Note_on_c, 9, 44, 76
1, 224516, Note_on_c, 2, 69, 0
1, 224519, Note_on_c, 2, 65, 0
1, 224540, Note_on_c, 9, 44, 0
1, 224543, Note_on_c, 2, 74, 0
1, 224575, Note_on_c, 1, 38, 0
1, 224592, Note_on_c, 9, 36, 0
1, 224640, Note_on_c, 9, 53, 71
1, 224644, Note_on_c, 9, 42, 117
1, 224825, Note_on_c, 9, 42, 0
1, 224880, Note_on_c, 1, 38, 84
1, 224880, Note_on_c, 2, 69, 98
1, 224880, Note_on_c, 9, 36, 82
1, 224880, Note_on_c, 9, 44, 76
1, 224882, Note_on_c, 2, 65, 84
1, 224882, Note_on_c, 2, 74, 74
1, 224926, Note_on_c, 9, 53, 0
1, 224963, Note_on_c, 2, 69, 0
1, 224966, Note_on_c, 2, 74, 0
1, 224969, Note_on_c, 2, 65, 0
1, 224976, Note_on_c, 9, 36, 0
1, 225001, Note_on_c, 1, 38, 0
1, 225039, Note_on_c, 9, 44, 0
1, 225120, Note_on_c, 1, 38, 98
1, 225120, Note_on_c, 9, 42, 117
1, 225120, Note_on_c, 9, 36, 127
1, 225122, Note_on_c, 2, 74, 101
1, 225122, Note_on_c, 2, 65, 92
1, 225122, Note_on_c, 2, 69, 104
1, 225303, Note_on_c, 9, 42, 0
1, 225314, Note_on_c, 9, 36, 0
1, 225360, Note_on_c, 9, 44, 76
1, 225487, Note_on_c, 9, 44, 0
1, 225600, Note_on_c, 9, 38, 83
1, 225600, Note_on_c, 9, 42, 117
1, 225600, Note_on_c, 9, 53, 72
1, 225614, Note_on_c, 1, 38, 0
1, 225779, Note_on_c, 9, 42, 0
1, 225816, Note_on_c, 9, 38, 0
1, 225840, Note_on_c, 9, 44, 77
1, 225962, Note_on_c, 9, 53, 0
1, 225990, Note_on_c, 9, 44, 0
1, 226025, Note_on_c, 2, 69, 0
1, 226041, Note_on_c, 2, 65, 0
1, 226055, Note_on_c, 2, 74, 0
1, 226080, Note_on_c, 1, 45, 98
1, 226080, Note_on_c, 9, 42, 117
1, 226259, Note_on_c, 1, 45, 0
1, 226263, Note_on_c, 9, 42, 0
1, 226320, Note_on_c, 9, 44, 78
1, 226461, Note_on_c, 9, 44, 0
1, 226560, Note_on_c, 8, 77, 0
1, 226560, Note_on_c, 0, 57, 0
1, 226560, Note_on_c, 7, 57, 0
1, 226560, Note_on_c, 0, 62, 0
1, 226560, Note_on_c, 8, 86, 0
1, 226560, Note_on_c, 7, 53, 0
1, 226560, Note_on_c, 8, 81, 0
1, 226560, Note_on_c, 3, 53, 0
1, 226560, Note_on_c, 7, 62, 0
1, 226560, Note_on_c, 3, 62, 0
1, 226560, Note_on_c, 3, 57, 0
1, 226560, Note_on_c, 0, 53, 0
1, 226560, Note_on_c, 0, 53, 88
1, 226560, Note_on_c, 0, 58, 98
1, 226560, Note_on_c, 0, 62, 82
1, 226560, Note_on_c, 1, 46, 101
1, 226560, Note_on_c, 3, 53, 88
1, 226560, Note_on_c, 3, 58, 98
1, 226560, Note_on_c, 3, 62, 82
1, 226560, Note_on_c, 7, 53, 88
1, 226560, Note_on_c, 7, 58, 98
1, 226560, Note_on_c, 7, 62, 82
1, 226560, Note_on_c, 8, 77, 90
1, 226560, Note_on_c, 8, 82, 101
1, 226560, Note_on_c, 8, 86, 80
1, 226560, Note_on_c, 9, 42, 117
1, 226560, Note_on_c, 9, 36, 127
1, 226560, Note_on_c, 9, 53, 70
1, 226748, Note_on_c, 9, 36, 0
1, 226789, Note_on_c, 9, 42, 0
1, 226800, Note_on_c, 9, 44, 77
1, 226889, Note_on_c, 9, 53, 0
1, 226970, Note_on_c, 9, 44, 0
1, 227040, Note_on_c, 9, 36, 126
1, 227044, Note_on_c, 9, 42, 117
1, 227214, Note_on_c, 9, 36, 0
1, 227278, Note_on_c, 9, 42, 0
1, 227280, Note_on_c, 9, 44, 77
1, 227457, Note_on_c, 9, 44, 0
1, 227520, Note_on_c, 9, 53, 71
1, 227520, Note_on_c, 9, 38, 84
1, 227522, Note_on_c, 2, 74, 82
1, 227522, Note_on_c, 2, 70, 101
1, 227522, Note_on_c, 2, 65, 92
1, 227524, Note_on_c, 9, 42, 117
1, 227682, Note_on_c, 2, 65, 0
1, 227707, Note_on_c, 9, 38, 0
1, 227710, Note_on_c, 2, 70, 0
1, 227722, Note_on_c, 9, 42, 0
1, 227735, Note_on_c, 2, 74, 0
1, 227760, Note_on_c, 1, 46, 0
1, 227760, Note_on_c, 9, 44, 77
1, 227819, Note_on_c, 9, 53, 0
1, 227932, Note_on_c, 9, 44, 0
1, 228004, Note_on_c, 9, 42, 117
1, 228204, Note_on_c, 9, 42, 0
1, 228240, Note_on_c, 1, 46, 117
1, 228240, Note_on_c, 2, 70, 101
1, 228240, Note_on_c, 2, 65, 82
1, 228240, Note_on_c, 2, 74, 67
1, 228240, Note_on_c, 9, 36, 125
1, 228242, Note_on_c, 9, 44, 76
1, 228363, Note_on_c, 2, 70, 0
1, 228365, Note_on_c, 2, 65, 0
1, 228368, Note_on_c, 2, 74, 0
1, 228380, Note_on_c, 9, 44, 0
1, 228399, Note_on_c, 9, 36, 0
1, 228409, Note_on_c, 1, 46, 0
1, 228480, Note_on_c, 9, 53, 71
1, 228484, Note_on_c, 9, 42, 117
1, 228665, Note_on_c, 9, 42, 0
1, 228720, Note_on_c, 1, 46, 92
1, 228720, Note_on_c, 2, 65, 80
1, 228720, Note_on_c, 2, 74, 80
1, 228720, Note_on_c, 2, 70, 109
1, 228720, Note_on_c, 9, 44, 76
1, 228720, Note_on_c, 9, 36, 81
1, 228769, Note_on_c, 9, 53, 0
1, 228794, Note_on_c, 1, 46, 0
1, 228796, Note_on_c, 2, 70, 0
1, 228819, Note_on_c, 9, 36, 0
1, 228820, Note_on_c, 2, 65, 0
1, 228823, Note_on_c, 2, 74, 0
1, 228879, Note_on_c, 9, 44, 0
1, 228960, Note_on_c, 1, 46, 101
1, 228960, Note_on_c, 2, 74, 104
1, 228960, Note_on_c, 2, 65, 98
1, 228960, Note_on_c, 2, 70, 117
1, 228960, Note_on_c, 9, 36, 125
1, 228960, Note_on_c, 9, 42, 117
1, 229100, Note_on_c, 9, 36, 0
1, 229143, Note_on_c, 9, 42, 0
1, 229200, Note_on_c, 9, 44, 76
1, 229327, Note_on_c, 9, 44, 0
1, 229440, Note_on_c, 9, 38, 86
1, 229440, Note_on_c, 9, 42, 117
1, 229440, Note_on_c, 9, 53, 74
1, 229473, Note_on_c, 1, 46, 0
1, 229603, Note_on_c, 9, 38, 0
1, 229619, Note_on_c, 9, 42, 0
1, 229680, Note_on_c, 9, 53, 0
1, 229680, Note_on_c, 9, 44, 77
1, 229830, Note_on_c, 9, 44, 0
1, 229920, Note_on_c, 1, 48, 98
1, 229920, Note_on_c, 9, 42, 117
1, 229946, Note_on_c, 2, 70, 0
1, 229960, Note_on_c, 2, 65, 0
1, 230012, Note_on_c, 2, 74, 0
1, 230103, Note_on_c, 9, 42, 0
1, 230160, Note_on_c, 1, 50, 92
1, 230160, Note_on_c, 9, 44, 78
1, 230169, Note_on_c, 1, 48, 0
1, 230301, Note_on_c, 9, 44, 0
1, 230352, Note_on_c, 1, 50, 0
1, 230385, Note_on_c, 8, 86, 0
1, 230396, Note_on_c, 7, 62, 0
1, 230396, Note_on_c, 0, 62, 0
1, 230396, Note_on_c, 3, 62, 0
1, 230400, Note_on_c, 7, 58, 0
1, 230400, Note_on_c, 0, 53, 0
1, 230400, Note_on_c, 7, 53, 0
1, 230400, Note_on_c, 8, 82, 0
1, 230400, Note_on_c, 0, 58, 0
1, 230400, Note_on_c, 3, 58, 0
1, 230400, Note_on_c, 3, 53, 0
1, 230400, Note_on_c, 8, 77, 0
1, 230400, Note_on_c, 0, 53, 88
1, 230400, Note_on_c, 0, 57, 92
1, 230400, Note_on_c, 0, 60, 90
1, 230400, Note_on_c, 1, 41, 104
1, 230400, Note_on_c, 3, 53, 88
1, 230400, Note_on_c, 3, 57, 92
1, 230400, Note_on_c, 3, 60, 90
1, 230400, Note_on_c, 7, 53, 88
1, 230400, Note_on_c, 7, 57, 92
1, 230400, Note_on_c, 7, 60, 90
1, 230400, Note_on_c, 8, 77, 92
1, 230400, Note_on_c, 8, 81, 101
1, 230400, Note_on_c, 8, 84, 106
1, 230400, Note_on_c, 9, 36, 127
1, 230400, Note_on_c, 9, 42, 117
1, 230400, Note_on_c, 9, 53, 68
1, 230594, Note_on_c, 9, 36, 0
1, 230629, Note_on_c, 9, 42, 0
1, 230640, Note_on_c, 9, 44, 77
1, 230704, Note_on_c, 9, 53, 0
1, 230810, Note_on_c, 9, 44, 0
1, 230880, Note_on_c, 9, 36, 126
1, 230884, Note_on_c, 9, 42, 117
1, 231114, Note_on_c, 9, 36, 0
1, 231118, Note_on_c, 9, 42, 0
1, 231120, Note_on_c, 9, 44, 77
1, 231297, Note_on_c, 9, 44, 0
1, 231360, Note_on_c, 2, 77, 88
1, 231360, Note_on_c, 2, 69, 80
1, 231360, Note_on_c, 2, 72, 98
1, 231360, Note_on_c, 9, 53, 70
1, 231360, Note_on_c, 9, 38, 83
1, 231364, Note_on_c, 9, 42, 117
1, 231495, Note_on_c, 2, 69, 0
1, 231523, Note_on_c, 2, 72, 0
1, 231559, Note_on_c, 9, 38, 0
1, 231559, Note_on_c, 2, 77, 0
1, 231562, Note_on_c, 9, 42, 0
1, 231600, Note_on_c, 1, 41, 0
1, 231600, Note_on_c, 9, 44, 77
1, 231630, Note_on_c, 9, 53, 0
1, 231772, Note_on_c, 9, 44, 0
1, 231844, Note_on_c, 9, 42, 117
1, 232044, Note_on_c, 9, 42, 0
1, 232080, Note_on_c, 1, 41, 109
1, 232080, Note_on_c, 2, 77, 84
1, 232080, Note_on_c, 2, 69, 88
1, 232080, Note_on_c, 2, 72, 98
1, 232080, Note_on_c, 9, 36, 127
1, 232082, Note_on_c, 9, 44, 76
1, 232204, Note_on_c, 2, 69, 0
1, 232207, Note_on_c, 2, 72, 0
1, 232220, Note_on_c, 9, 44, 0
1, 232231, Note_on_c, 2, 77, 0
1, 232272, Note_on_c, 9, 36, 0
1, 232309, Note_on_c, 1, 41, 0
1, 232320, Note_on_c, 9, 53, 70
1, 232324, Note_on_c, 9, 42, 117
1, 232505, Note_on_c, 9, 42, 0
1, 232539, Note_on_c, 9, 53, 0
1, 232560, Note_on_c, 1, 41, 88
1, 232560, Note_on_c, 2, 77, 82
1, 232560, Note_on_c, 2, 69, 80
1, 232560, Note_on_c, 2, 72, 90
1, 232560, Note_on_c, 9, 44, 76
1, 232560, Note_on_c, 9, 36, 82
1, 232639, Note_on_c, 2, 72, 0
1, 232649, Note_on_c, 2, 69, 0
1, 232652, Note_on_c, 1, 41, 0
1, 232656, Note_on_c, 9, 36, 0
1, 232666, Note_on_c, 2, 77, 0
1, 232719, Note_on_c, 9, 44, 0
1, 232800, Note_on_c, 1, 41, 98
1, 232800, Note_on_c, 2, 77, 84
1, 232800, Note_on_c, 2, 69, 84
1, 232800, Note_on_c, 2, 72, 98
1, 232800, Note_on_c, 9, 36, 127
1, 232800, Note_on_c, 9, 42, 117
1, 232983, Note_on_c, 9, 42, 0
1, 232994, Note_on_c, 9, 36, 0
1, 233040, Note_on_c, 9, 44, 76
1, 233167, Note_on_c, 9, 44, 0
1, 233280, Note_on_c, 9, 53, 70
1, 233280, Note_on_c, 9, 38, 83
1, 233280, Note_on_c, 9, 42, 117
1, 233288, Note_on_c, 1, 41, 0
1, 233459, Note_on_c, 9, 42, 0
1, 233496, Note_on_c, 9, 38, 0
1, 233520, Note_on_c, 9, 44, 77
1, 233559, Note_on_c, 9, 53, 0
1, 233670, Note_on_c, 9, 44, 0
1, 233745, Note_on_c, 2, 72, 0
1, 233760, Note_on_c, 1, 43, 98
1, 233760, Note_on_c, 9, 42, 117
1, 233774, Note_on_c, 2, 69, 0
1, 233802, Note_on_c, 2, 77, 0
1, 233943, Note_on_c, 9, 42, 0
1, 233952, Note_on_c, 1, 43, 0
1, 234000, Note_on_c, 9, 44, 78
1, 234141, Note_on_c, 9, 44, 0
1, 234240, Note_on_c, 3, 60, 0
1, 234240, Note_on_c, 0, 57, 0
1, 234240, Note_on_c, 7, 57, 0
1, 234240, Note_on_c, 0, 60, 0
1, 234240, Note_on_c, 3, 53, 0
1, 234240, Note_on_c, 8, 77, 0
1, 234240, Note_on_c, 0, 53, 0
1, 234240, Note_on_c, 7, 53, 0
1, 234240, Note_on_c, 7, 60, 0
1, 234240, Note_on_c, 8, 81, 0
1, 234240, Note_on_c, 8, 84, 0
1, 234240, Note_on_c, 3, 57, 0
1, 234240, Note_on_c, 0, 52, 86
1, 234240, Note_on_c, 0, 57, 82
1, 234240, Note_on_c, 0, 60, 80
1, 234240, Note_on_c, 1, 45, 104
1, 234240, Note_on_c, 3, 52, 86
1, 234240, Note_on_c, 3, 57, 82
1, 234240, Note_on_c, 3, 60, 80
1, 234240, Note_on_c, 7, 52, 86
1, 234240, Note_on_c, 7, 57, 82
1, 234240, Note_on_c, 7, 60, 80
1, 234240, Note_on_c, 8, 88, 95
1, 234240, Note_on_c, 8, 84, 92
1, 234240, Note_on_c, 8, 81, 88
1, 234240, Note_on_c, 9, 36, 127
1, 234240, Note_on_c, 9, 42, 117
1, 234240, Note_on_c, 9, 53, 70
1, 234428, Note_on_c, 9, 36, 0
1, 234469, Note_on_c, 9, 42, 0
1, 234480, Note_on_c, 9, 44, 77
1, 234497, Note_on_c, 9, 53, 0
1, 234650, Note_on_c, 9, 44, 0
1, 234720, Note_on_c, 9, 36, 126
1, 234724, Note_on_c, 9, 42, 117
1, 234894, Note_on_c, 9, 36, 0
1, 234958, Note_on_c, 9, 42, 0
1, 234960, Note_on_c, 9, 44, 77
1, 235137, Note_on_c, 9, 44, 0
1, 235200, Note_on_c, 2, 76, 92
1, 235200, Note_on_c, 2, 72, 98
1, 235200, Note_on_c, 2, 69, 88
1, 235200, Note_on_c, 9, 38, 84
1, 235200, Note_on_c, 9, 53, 68
1, 235204, Note_on_c, 9, 42, 117
1, 235337, Note_on_c, 2, 69, 0
1, 235350, Note_on_c, 2, 72, 0
1, 235380, Note_on_c, 2, 76, 0
1, 235387, Note_on_c, 9, 38, 0
1, 235402, Note_on_c, 9, 42, 0
1, 235440, Note_on_c, 1, 45, 0
1, 235440, Note_on_c, 9, 44, 77
1, 235465, Note_on_c, 9, 53, 0
1, 235612, Note_on_c, 9, 44, 0
1, 235684, Note_on_c, 9, 42, 117
1, 235884, Note_on_c, 9, 42, 0
1, 235920, Note_on_c, 1, 45, 98
1, 235920, Note_on_c, 2, 69, 80
1, 235920, Note_on_c, 2, 72, 84
1, 235920, Note_on_c, 2, 76, 73
1, 235920, Note_on_c, 9, 36, 125
1, 235922, Note_on_c, 9, 44, 76
1, 236047, Note_on_c, 2, 69, 0
1, 236052, Note_on_c, 2, 76, 0
1, 236054, Note_on_c, 2, 72, 0
1, 236060, Note_on_c, 9, 44, 0
1, 236079, Note_on_c, 9, 36, 0
1, 236117, Note_on_c, 1, 45, 0
1, 236160, Note_on_c, 9, 53, 68
1, 236164, Note_on_c, 9, 42, 117
1, 236345, Note_on_c, 9, 42, 0
1, 236400, Note_on_c, 1, 45, 84
1, 236400, Note_on_c, 9, 44, 76
1, 236400, Note_on_c, 9, 36, 81
1, 236402, Note_on_c, 2, 72, 88
1, 236402, Note_on_c, 2, 76, 74
1, 236402, Note_on_c, 2, 69, 68
1, 236416, Note_on_c, 9, 53, 0
1, 236485, Note_on_c, 2, 69, 0
1, 236485, Note_on_c, 2, 76, 0
1, 236486, Note_on_c, 2, 72, 0
1, 236489, Note_on_c, 1, 45, 0
1, 236499, Note_on_c, 9, 36, 0
1, 236559, Note_on_c, 9, 44, 0
1, 236640, Note_on_c, 1, 45, 88
1, 236640, Note_on_c, 9, 36, 125
1, 236640, Note_on_c, 9, 42, 117
1, 236642, Note_on_c, 2, 76, 95
1, 236642, Note_on_c, 2, 69, 95
1, 236642, Note_on_c, 2, 72, 90
1, 236780, Note_on_c, 9, 36, 0
1, 236823, Note_on_c, 9, 42, 0
1, 236880, Note_on_c, 9, 44, 76
1, 237007, Note_on_c, 9, 44, 0
1, 237120, Note_on_c, 9, 38, 86
1, 237120, Note_on_c, 9, 42, 117
1, 237120, Note_on_c, 9, 53, 69
1, 237186, Note_on_c, 1, 45, 0
1, 237283, Note_on_c, 9, 38, 0
1, 237299, Note_on_c, 9, 42, 0
1, 237360, Note_on_c, 9, 44, 77
1, 237396, Note_on_c, 9, 53, 0
1, 237510, Note_on_c, 9, 44, 0
1, 237574, Note_on_c, 2, 76, 0
1, 237574, Note_on_c, 2, 72, 0
1, 237578, Note_on_c, 2, 69, 0
1, 237600, Note_on_c, 1, 48, 109
1, 237600, Note_on_c, 9, 42, 117
1, 237782, Note_on_c, 1, 48, 0
1, 237783, Note_on_c, 9, 42, 0
1, 237840, Note_on_c, 9, 44, 78
1, 237981, Note_on_c, 9, 44, 0
1, 238080, Note_on_c, 8, 81, 0
1, 238080, Note_on_c, 0, 57, 0
1, 238080, Note_on_c, 7, 57, 0
1, 238080, Note_on_c, 0, 60, 0
1, 238080, Note_on_c, 7, 52, 0
1, 238080, Note_on_c, 8, 84, 0
1, 238080, Note_on_c, 3, 57, 0
1, 238080, Note_on_c, 8, 88, 0
1, 238080, Note_on_c, 7, 60, 0
1, 238080, Note_on_c, 3, 60, 0
1, 238080, Note_on_c, 3, 52, 0
1, 238080, Note_on_c, 0, 52, 0
1, 238080, Note_on_c, 0, 53, 86
1, 238080, Note_on_c, 0, 57, 86
1, 238080, Note_on_c, 0, 62, 84
1, 238080, Note_on_c, 1, 38, 98
1, 238080, Note_on_c, 3, 53, 86
1, 238080, Note_on_c, 3, 57, 86
1, 238080, Note_on_c, 3, 62, 84
1, 238080, Note_on_c, 7, 53, 86
1, 238080, Note_on_c, 7, 57, 86
1, 238080, Note_on_c, 7, 62, 84
1, 238080, Note_on_c, 8, 77, 104
1, 238080, Note_on_c, 8, 81, 88
1, 238080, Note_on_c, 8, 86, 80
1, 238080, Note_on_c, 9, 36, 127
1, 238080, Note_on_c, 9, 42, 117
1, 238080, Note_on_c, 9, 53, 69
1, 238274, Note_on_c, 9, 36, 0
1, 238309, Note_on_c, 9, 42, 0
1, 238320, Note_on_c, 9, 44, 77
1, 238327, Note_on_c, 9, 53, 0
1, 238490, Note_on_c, 9, 44, 0
1, 238560, Note_on_c, 9, 36, 126
1, 238564, Note_on_c, 9, 42, 117
1, 238794, Note_on_c, 9, 36, 0
1, 238798, Note_on_c, 9, 42, 0
1, 238800, Note_on_c, 9, 44, 77
1, 238977, Note_on_c, 9, 44, 0
1, 239040, Note_on_c, 9, 53, 67
1, 239040, Note_on_c, 9, 38, 83
1, 239042, Note_on_c, 2, 74, 88
1, 239042, Note_on_c, 2, 65, 80
1, 239042, Note_on_c, 2, 69, 106
1, 239044, Note_on_c, 9, 42, 117
1, 239198, Note_on_c, 2, 69, 0
1, 239211, Note_on_c, 2, 65, 0
1, 239239, Note_on_c, 9, 38, 0
1, 239242, Note_on_c, 9, 42, 0
1, 239255, Note_on_c, 2, 74, 0
1, 239280, Note_on_c, 1, 38, 0
1, 239280, Note_on_c, 9, 44, 77
1, 239301, Note_on_c, 9, 53, 0
1, 239452, Note_on_c, 9, 44, 0
1, 239524, Note_on_c, 9, 42, 117
1, 239724, Note_on_c, 9, 42, 0
1, 239760, Note_on_c, 1, 38, 92
1, 239760, Note_on_c, 2, 74, 90
1, 239760, Note_on_c, 2, 65, 95
1, 239760, Note_on_c, 9, 36, 127
1, 239762, Note_on_c, 2, 69, 106
1, 239762, Note_on_c, 9, 44, 76
1, 239876, Note_on_c, 2, 69, 0
1, 239879, Note_on_c, 2, 65, 0
1, 239900, Note_on_c, 9, 44, 0
1, 239903, Note_on_c, 2, 74, 0
1, 239935, Note_on_c, 1, 38, 0
1, 239952, Note_on_c, 9, 36, 0
1, 240000, Note_on_c, 9, 53, 71
1, 240004, Note_on_c, 9, 42, 117
1, 240185, Note_on_c, 9, 42, 0
1, 240240, Note_on_c, 1, 38, 84
1, 240240, Note_on_c, 2, 69, 98
1, 240240, Note_on_c, 9, 36, 82
1, 240240, Note_on_c, 9, 44, 76
1, 240242, Note_on_c, 2, 65, 84
1, 240242, Note_on_c, 2, 74, 74
1, 240286, Note_on_c, 9, 53, 0
1, 240323, Note_on_c, 2, 69, 0
1, 240326, Note_on_c, 2, 74, 0
1, 240329, Note_on_c, 2, 65, 0
1, 240336, Note_on_c, 9, 36, 0
1, 240361, Note_on_c, 1, 38, 0
1, 240399, Note_on_c, 9, 44, 0
1, 240480, Note_on_c, 1, 38, 98
1, 240480, Note_on_c, 9, 42, 117
1, 240480, Note_on_c, 9, 36, 127
1, 240482, Note_on_c, 2, 74, 101
1, 240482, Note_on_c, 2, 65, 92
1, 240482, Note_on_c, 2, 69, 104
1, 240663, Note_on_c, 9, 42, 0
1, 240674, Note_on_c, 9, 36, 0
1, 240720, Note_on_c, 9, 44, 76
1, 240847, Note_on_c, 9, 44, 0
1, 240960, Note_on_c, 9, 53, 72
1, 240960, Note_on_c, 9, 42, 117
1, 240960, Note_on_c, 9, 38, 83
1, 240974, Note_on_c, 1, 38, 0
1, 241139, Note_on_c, 9, 42, 0
1, 241176, Note_on_c, 9, 38, 0
1, 241200, Note_on_c, 9, 44, 77
1, 241322, Note_on_c, 9, 53, 0
1, 241350, Note_on_c, 9, 44, 0
1, 241385, Note_on_c, 2, 69, 0
1, 241401, Note_on_c, 2, 65, 0
1, 241415, Note_on_c, 2, 74, 0
1, 241440, Note_on_c, 1, 45, 98
1, 241440, Note_on_c, 9, 42, 117
1, 241619, Note_on_c, 1, 45, 0
1, 241623, Note_on_c, 9, 42, 0
1, 241680, Note_on_c, 9, 44, 78
1, 241821, Note_on_c, 9, 44, 0
1, 241920, Note_on_c, 8, 77, 0
1, 241920, Note_on_c, 0, 57, 0
1, 241920, Note_on_c, 7, 57, 0
1, 241920, Note_on_c, 0, 62, 0
1, 241920, Note_on_c, 0, 53, 0
1, 241920, Note_on_c, 7, 53, 0
1, 241920, Note_on_c, 8, 81, 0
1, 241920, Note_on_c, 3, 53, 0
1, 241920, Note_on_c, 7, 62, 0
1, 241920, Note_on_c, 3, 62, 0
1, 241920, Note_on_c, 3, 57, 0
1, 241920, Note_on_c, 8, 86, 0
1, 241920, Note_on_c, 0, 53, 88
1, 241920, Note_on_c, 0, 58, 98
1, 241920, Note_on_c, 0, 62, 82
1, 241920, Note_on_c, 1, 46, 101
1, 241920, Note_on_c, 3, 53, 88
1, 241920, Note_on_c, 3, 58, 98
1, 241920, Note_on_c, 3, 62, 82
1, 241920, Note_on_c, 7, 53, 88
1, 241920, Note_on_c, 7, 58, 98
1, 241920, Note_on_c, 7, 62, 82
1, 241920, Note_on_c, 8, 77, 90
1, 241920, Note_on_c, 8, 82, 101
1, 241920, Note_on_c, 8, 86, 80
1, 241920, Note_on_c, 9, 36, 127
1, 241920, Note_on_c, 9, 42, 117
1, 241920, Note_on_c, 9, 53, 70
1, 242108, Note_on_c, 9, 36, 0
1, 242149, Note_on_c, 9, 42, 0
1, 242160, Note_on_c, 9, 44, 77
1, 242249, Note_on_c, 9, 53, 0
1, 242330, Note_on_c, 9, 44, 0
1, 242400, Note_on_c, 9, 36, 126
1, 242404, Note_on_c, 9, 42, 117
1, 242574, Note_on_c, 9, 36, 0
1, 242638, Note_on_c, 9, 42, 0
1, 242640, Note_on_c, 9, 44, 77
1, 242817, Note_on_c, 9, 44, 0
1, 242880, Note_on_c, 9, 38, 84
1, 242880, Note_on_c, 9, 53, 71
1, 242882, Note_on_c, 2, 74, 82
1, 242882, Note_on_c, 2, 70, 101
1, 242882, Note_on_c, 2, 65, 92
1, 242884, Note_on_c, 9, 42, 117
1, 243042, Note_on_c, 2, 65, 0
1, 243067, Note_on_c, 9, 38, 0
1, 243070, Note_on_c, 2, 70, 0
1, 243082, Note_on_c, 9, 42, 0
1, 243095, Note_on_c, 2, 74, 0
1, 243120, Note_on_c, 1, 46, 0
1, 243120, Note_on_c, 9, 44, 77
1, 243179, Note_on_c, 9, 53, 0
1, 243292, Note_on_c, 9, 44, 0
1, 243364, Note_on_c, 9, 42, 117
1, 243564, Note_on_c, 9, 42, 0
1, 243600, Note_on_c, 1, 46, 117
1, 243600, Note_on_c, 2, 70, 101
1, 243600, Note_on_c, 2, 65, 82
1, 243600, Note_on_c, 2, 74, 67
1, 243600, Note_on_c, 9, 36, 125
1, 243602, Note_on_c, 9, 44, 76
1, 243723, Note_on_c, 2, 70, 0
1, 243725, Note_on_c, 2, 65, 0
1, 243728, Note_on_c, 2, 74, 0
1, 243740, Note_on_c, 9, 44, 0
1, 243759, Note_on_c, 9, 36, 0
1, 243769, Note_on_c, 1, 46, 0
1, 243840, Note_on_c, 9, 53, 71
1, 243844, Note_on_c, 9, 42, 117
1, 244025, Note_on_c, 9, 42, 0
1, 244080, Note_on_c, 1, 46, 92
1, 244080, Note_on_c, 2, 65, 80
1, 244080, Note_on_c, 2, 74, 80
1, 244080, Note_on_c, 2, 70, 109
1, 244080, Note_on_c, 9, 44, 76
1, 244080, Note_on_c, 9, 36, 81
1, 244129, Note_on_c, 9, 53, 0
1, 244154, Note_on_c, 1, 46, 0
1, 244156, Note_on_c, 2, 70, 0
1, 244179, Note_on_c, 9, 36, 0
1, 244180, Note_on_c, 2, 65, 0
1, 244183, Note_on_c, 2, 74, 0
1, 244239, Note_on_c, 9, 44, 0
1, 244320, Note_on_c, 1, 46, 101
1, 244320, Note_on_c, 2, 74, 104
1, 244320, Note_on_c, 2, 65, 98
1, 244320, Note_on_c, 2, 70, 117
1, 244320, Note_on_c, 9, 42, 117
1, 244320, Note_on_c, 9, 36, 125
1, 244460, Note_on_c, 9, 36, 0
1, 244503, Note_on_c, 9, 42, 0
1, 244560, Note_on_c, 9, 44, 76
1, 244687, Note_on_c, 9, 44, 0
1, 244800, Note_on_c, 9, 42, 117
1, 244800, Note_on_c, 9, 38, 86
1, 244800, Note_on_c, 9, 53, 74
1, 244833, Note_on_c, 1, 46, 0
1, 244963, Note_on_c, 9, 38, 0
1, 244979, Note_on_c, 9, 42, 0
1, 245040, Note_on_c, 9, 53, 0
1, 245040, Note_on_c, 9, 44, 77
1, 245190, Note_on_c, 9, 44, 0
1, 245280, Note_on_c, 1, 48, 98
1, 245280, Note_on_c, 9, 42, 117
1, 245306, Note_on_c, 2, 70, 0
1, 245320, Note_on_c, 2, 65, 0
1, 245372, Note_on_c, 2, 74, 0
1, 245463, Note_on_c, 9, 42, 0
1, 245520, Note_on_c, 1, 50, 92
1, 245520, Note_on_c, 9, 44, 78
1, 245529, Note_on_c, 1, 48, 0
1, 245661, Note_on_c, 9, 44, 0
1, 245712, Note_on_c, 1, 50, 0
1, 245745, Note_on_c, 8, 86, 0
1, 245756, Note_on_c, 7, 62, 0
1, 245756, Note_on_c, 0, 62, 0
1, 245756, Note_on_c, 3, 62, 0
1, 245760, Note_on_c, 7, 58, 0
1, 245760, Note_on_c, 0, 53, 0
1, 245760, Note_on_c, 7, 53, 0
1, 245760, Note_on_c, 8, 82, 0
1, 245760, Note_on_c, 0, 58, 0
1, 245760, Note_on_c, 3, 58, 0
1, 245760, Note_on_c, 3, 53, 0
1, 245760, Note_on_c, 8, 77, 0
1, 245760, Note_on_c, 0, 53, 88
1, 245760, Note_on_c, 0, 57, 92
1, 245760, Note_on_c, 0, 60, 90
1, 245760, Note_on_c, 1, 41, 104
1, 245760, Note_on_c, 3, 53, 88
1, 245760, Note_on_c, 3, 57, 92
1, 245760, Note_on_c, 3, 60, 90
1, 245760, Note_on_c, 7, 53, 88
1, 245760, Note_on_c, 7, 57, 92
1, 245760, Note_on_c, 7, 60, 90
1, 245760, Note_on_c, 8, 77, 92
1, 245760, Note_on_c, 8, 81, 101
1, 245760, Note_on_c, 8, 84, 106
1, 245760, Note_on_c, 9, 42, 117
1, 245760, Note_on_c, 9, 36, 127
1, 245760, Note_on_c, 9, 53, 68
1, 245954, Note_on_c, 9, 36, 0
1, 245989, Note_on_c, 9, 42, 0
1, 246000, Note_on_c, 9, 44, 77
1, 246064, Note_on_c, 9, 53, 0
1, 246170, Note_on_c, 9, 44, 0
1, 246240, Note_on_c, 9, 36, 126
1, 246244, Note_on_c, 9, 42, 117
1, 246474, Note_on_c, 9, 36, 0
1, 246478, Note_on_c, 9, 42, 0
1, 246480, Note_on_c, 9, 44, 77
1, 246657, Note_on_c, 9, 44, 0
1, 246720, Note_on_c, 2, 77, 88
1, 246720, Note_on_c, 2, 69, 80
1, 246720, Note_on_c, 2, 72, 98
1, 246720, Note_on_c, 9, 53, 70
1, 246720, Note_on_c, 9, 38, 83
1, 246724, Note_on_c, 9, 42, 117
1, 246855, Note_on_c, 2, 69, 0
1, 246883, Note_on_c, 2, 72, 0
1, 246919, Note_on_c, 9, 38, 0
1, 246919, Note_on_c, 2, 77, 0
1, 246922, Note_on_c, 9, 42, 0
1, 246960, Note_on_c, 1, 41, 0
1, 246960, Note_on_c, 9, 44, 77
1, 246990, Note_on_c, 9, 53, 0
1, 247132, Note_on_c, 9, 44, 0
1, 247204, Note_on_c, 9, 42, 117
1, 247404, Note_on_c, 9, 42, 0
1, 247440, Note_on_c, 1, 41, 109
1, 247440, Note_on_c, 2, 77, 84
1, 247440, Note_on_c, 2, 69, 88
1, 247440, Note_on_c, 2, 72, 98
1, 247440, Note_on_c, 9, 36, 127
1, 247442, Note_on_c, 9, 44, 76
1, 247564, Note_on_c, 2, 69, 0
1, 247567, Note_on_c, 2, 72, 0
1, 247580, Note_on_c, 9, 44, 0
1, 247591, Note_on_c, 2, 77, 0
1, 247632, Note_on_c, 9, 36, 0
1, 247669, Note_on_c, 1, 41, 0
1, 247680, Note_on_c, 9, 53, 70
1, 247684, Note_on_c, 9, 42, 117
1, 247865, Note_on_c, 9, 42, 0
1, 247899, Note_on_c, 9, 53, 0
1, 247920, Note_on_c, 1, 41, 88
1, 247920, Note_on_c, 2, 77, 82
1, 247920, Note_on_c, 2, 69, 80
1, 247920, Note_on_c, 2, 72, 90
1, 247920, Note_on_c, 9, 36, 82
1, 247920, Note_on_c, 9, 44, 76
1, 247999, Note_on_c, 2, 72, 0
1, 248009, Note_on_c, 2, 69, 0
1, 248012, Note_on_c, 1, 41, 0
1, 248016, Note_on_c, 9, 36, 0
1, 248026, Note_on_c, 2, 77, 0
1, 248079, Note_on_c, 9, 44, 0
1, 248160, Note_on_c, 1, 41, 98
1, 248160, Note_on_c, 2, 77, 84
1, 248160, Note_on_c, 2, 69, 84
1, 248160, Note_on_c, 2, 72, 98
1, 248160, Note_on_c, 9, 42, 117
1, 248160, Note_on_c, 9, 36, 127
1, 248343, Note_on_c, 9, 42, 0
1, 248354, Note_on_c, 9, 36, 0
1, 248400, Note_on_c, 9, 44, 76
1, 248527, Note_on_c, 9, 44, 0
1, 248640, Note_on_c, 9, 53, 70
1, 248640, Note_on_c, 9, 38, 83
1, 248640, Note_on_c, 9, 42, 117
1, 248648, Note_on_c, 1, 41, 0
1, 248819, Note_on_c, 9, 42, 0
1, 248856, Note_on_c, 9, 38, 0
1, 248880, Note_on_c, 9, 44, 77
1, 248919, Note_on_c, 9, 53, 0
1, 249030, Note_on_c, 9, 44, 0
1, 249105, Note_on_c, 2, 72, 0
1, 249120, Note_on_c, 1, 43, 98
1, 249120, Note_on_c, 9, 42, 117
1, 249134, Note_on_c, 2, 69, 0
1, 249162, Note_on_c, 2, 77, 0
1, 249303, Note_on_c, 9, 42, 0
1, 249312, Note_on_c, 1, 43, 0
1, 249360, Note_on_c, 9, 44, 78
1, 249501, Note_on_c, 9, 44, 0
1, 249600, Note_on_c, 3, 60, 0
1, 249600, Note_on_c, 0, 57, 0
1, 249600, Note_on_c, 7, 57, 0
1, 249600, Note_on_c, 0, 60, 0
1, 249600, Note_on_c, 3, 53, 0
1, 249600, Note_on_c, 8, 77, 0
1, 249600, Note_on_c, 0, 53, 0
1, 249600, Note_on_c, 7, 53, 0
1, 249600, Note_on_c, 7, 60, 0
1, 249600, Note_on_c, 8, 81, 0
1, 249600, Note_on_c, 8, 84, 0
1, 249600, Note_on_c, 3, 57, 0
1, 249600, Note_on_c, 0, 52, 86
1, 249600, Note_on_c, 0, 57, 82
1, 249600, Note_on_c, 0, 60, 80
1, 249600, Note_on_c, 1, 45, 104
1, 249600, Note_on_c, 3, 52, 86
1, 249600, Note_on_c, 3, 57, 82
1, 249600, Note_on_c, 3, 60, 80
1, 249600, Note_on_c, 7, 52, 86
1, 249600, Note_on_c, 7, 57, 82
1, 249600, Note_on_c, 7, 60, 80
1, 249600, Note_on_c, 8, 88, 95
1, 249600, Note_on_c, 8, 84, 92
1, 249600, Note_on_c, 8, 81, 88
1, 249600, Note_on_c, 9, 42, 117
1, 249600, Note_on_c, 9, 36, 127
1, 249600, Note_on_c, 9, 53, 70
1, 249788, Note_on_c, 9, 36, 0
1, 249829, Note_on_c, 9, 42, 0
1, 249840, Note_on_c, 9, 44, 77
1, 249857, Note_on_c, 9, 53, 0
1, 250010, Note_on_c, 9, 44, 0
1, 250080, Note_on_c, 9, 36, 126
1, 250084, Note_on_c, 9, 42, 117
1, 250254, Note_on_c, 9, 36, 0
1, 250318, Note_on_c, 9, 42, 0
1, 250320, Note_on_c, 9, 44, 77
1, 250497, Note_on_c, 9, 44, 0
1, 250560, Note_on_c, 2, 76, 92
1, 250560, Note_on_c, 2, 72, 98
1, 250560, Note_on_c, 2, 69, 88
1, 250560, Note_on_c, 9, 53, 68
1, 250560, Note_on_c, 9, 38, 84
1, 250564, Note_on_c, 9, 42, 117
1, 250697, Note_on_c, 2, 69, 0
1, 250710, Note_on_c, 2, 72, 0
1, 250740, Note_on_c, 2, 76, 0
1, 250747, Note_on_c, 9, 38, 0
1, 250762, Note_on_c, 9, 42, 0
1, 250800, Note_on_c, 1, 45, 0
1, 250800, Note_on_c, 9, 44, 77
1, 250825, Note_on_c, 9, 53, 0
1, 250972, Note_on_c, 9, 44, 0
1, 251044, Note_on_c, 9, 42, 117
1, 251244, Note_on_c, 9, 42, 0
1, 251280, Note_on_c, 1, 45, 98
1, 251280, Note_on_c, 2, 69, 80
1, 251280, Note_on_c, 2, 72, 84
1, 251280, Note_on_c, 2, 76, 73
1, 251280, Note_on_c, 9, 36, 125
1, 251282, Note_on_c, 9, 44, 76
1, 251407, Note_on_c, 2, 69, 0
1, 251412, Note_on_c, 2, 76, 0
1, 251414, Note_on_c, 2, 72, 0
1, 251420, Note_on_c, 9, 44, 0
1, 251439, Note_on_c, 9, 36, 0
1, 251477, Note_on_c, 1, 45, 0
1, 251520, Note_on_c, 9, 53, 68
1, 251524, Note_on_c, 9, 42, 117
1, 251705, Note_on_c, 9, 42, 0
1, 251760, Note_on_c, 1, 45, 84
1, 251760, Note_on_c, 9, 44, 76
1, 251760, Note_on_c, 9, 36, 81
1, 251762, Note_on_c, 2, 72, 88
1, 251762, Note_on_c, 2, 76, 74
1, 251762, Note_on_c, 2, 69, 68
1, 251776, Note_on_c, 9, 53, 0
1, 251845, Note_on_c, 2, 69, 0
1, 251845, Note_on_c, 2, 76, 0
1, 251846, Note_on_c, 2, 72, 0
1, 251849, Note_on_c, 1, 45, 0
1, 251859, Note_on_c, 9, 36, 0
1, 251919, Note_on_c, 9, 44, 0
1, 252000, Note_on_c, 1, 45, 88
1, 252000, Note_on_c, 9, 42, 117
1, 252000, Note_on_c, 9, 36, 125
1, 252002, Note_on_c, 2, 76, 95
1, 252002, Note_on_c, 2, 69, 95
1, 252002, Note_on_c, 2, 72, 90
1, 252140, Note_on_c, 9, 36, 0
1, 252183, Note_on_c, 9, 42, 0
1, 252240, Note_on_c, 9, 44, 76
1, 252367, Note_on_c, 9, 44, 0
1, 252480, Note_on_c, 9, 53, 69
1, 252480, Note_on_c, 9, 42, 117
1, 252480, Note_on_c, 9, 38, 86
1, 252546, Note_on_c, 1, 45, 0
1, 252643, Note_on_c, 9, 38, 0
1, 252659, Note_on_c, 9, 42, 0
1, 252720, Note_on_c, 9, 44, 77
1, 252756, Note_on_c, 9, 53, 0
1, 252870, Note_on_c, 9, 44, 0
1, 252934, Note_on_c, 2, 76, 0
1, 252934, Note_on_c, 2, 72, 0
1, 252938, Note_on_c, 2, 69, 0
1, 252960, Note_on_c, 1, 48, 109
1, 252960, Note_on_c, 9, 42, 117
1, 253142, Note_on_c, 1, 48, 0
1, 253143, Note_on_c, 9, 42, 0
1, 253200, Note_on_c, 9, 44, 78
1, 253341, Note_on_c, 9, 44, 0
1, 253440, Note_on_c, 8, 81, 0
1, 253440, Note_on_c, 0, 57, 0
1, 253440, Note_on_c, 7, 57, 0
1, 253440, Note_on_c, 0, 60, 0
1, 253440, Note_on_c, 7, 52, 0
1, 253440, Note_on_c, 8, 84, 0
1, 253440, Note_on_c, 3, 57, 0
1, 253440, Note_on_c, 8, 88, 0
1, 253440, Note_on_c, 7, 60, 0
1, 253440, Note_on_c, 3, 60, 0
1, 253440, Note_on_c, 3, 52, 0
1, 253440, Note_on_c, 0, 52, 0
1, 253440, Note_on_c, 0, 53, 86
1, 253440, Note_on_c, 0, 57, 86
1, 253440, Note_on_c, 0, 62, 84
1, 253440, Note_on_c, 1, 38, 98
1, 253440, Note_on_c, 3, 53, 86
1, 253440, Note_on_c, 3, 57, 86
1, 253440, Note_on_c, 3, 62, 84
1, 253440, Note_on_c, 7, 53, 86
1, 253440, Note_on_c, 7, 57, 86
1, 253440, Note_on_c, 7, 62, 84
1, 253440, Note_on_c, 8, 77, 104
1, 253440, Note_on_c, 8, 81, 88
1, 253440, Note_on_c, 8, 86, 80
1, 253440, Note_on_c, 9, 36, 127
1, 253440, Note_on_c, 9, 53, 69
1, 253440, Note_on_c, 9, 42, 117
1, 253634, Note_on_c, 9, 36, 0
1, 253669, Note_on_c, 9, 42, 0
1, 253680, Note_on_c, 9, 44, 77
1, 253687, Note_on_c, 9, 53, 0
1, 253850, Note_on_c, 9, 44, 0
1, 253920, Note_on_c, 9, 36, 126
1, 253924, Note_on_c, 9, 42, 117
1, 254154, Note_on_c, 9, 36, 0
1, 254158, Note_on_c, 9, 42, 0
1, 254160, Note_on_c, 9, 44, 77
1, 254337, Note_on_c, 9, 44, 0
1, 254400, Note_on_c, 9, 53, 67
1, 254400, Note_on_c, 9, 38, 83
1, 254402, Note_on_c, 2, 74, 88
1, 254402, Note_on_c, 2, 65, 80
1, 254402, Note_on_c, 2, 69, 106
1, 254404, Note_on_c, 9, 42, 117
1, 254558, Note_on_c, 2, 69, 0
1, 254571, Note_on_c, 2, 65, 0
1, 254599, Note_on_c, 9, 38, 0
1, 254602, Note_on_c, 9, 42, 0
1, 254615, Note_on_c, 2, 74, 0
1, 254640, Note_on_c, 1, 38, 0
1, 254640, Note_on_c, 9, 44, 77
1, 254661, Note_on_c, 9, 53, 0
1, 254812, Note_on_c, 9, 44, 0
1, 254884, Note_on_c, 9, 42, 117
1, 255084, Note_on_c, 9, 42, 0
1, 255120, Note_on_c, 1, 38, 92
1, 255120, Note_on_c, 2, 74, 90
1, 255120, Note_on_c, 2, 65, 95
1, 255120, Note_on_c, 9, 36, 127
1, 255122, Note_on_c, 2, 69, 106
1, 255122, Note_on_c, 9, 44, 76
1, 255236, Note_on_c, 2, 69, 0
1, 255239, Note_on_c, 2, 65, 0
1, 255260, Note_on_c, 9, 44, 0
1, 255263, Note_on_c, 2, 74, 0
1, 255295, Note_on_c, 1, 38, 0
1, 255312, Note_on_c, 9, 36, 0
1, 255360, Note_on_c, 9, 53, 71
1, 255364, Note_on_c, 9, 42, 117
1, 255545, Note_on_c, 9, 42, 0
1, 255600, Note_on_c, 1, 38, 84
1, 255600, Note_on_c, 2, 69, 98
1, 255600, Note_on_c, 9, 44, 76
1, 255600, Note_on_c, 9, 36, 82
1, 255602, Note_on_c, 2, 65, 84
1, 255602, Note_on_c, 2, 74, 74
1, 255646, Note_on_c, 9, 53, 0
1, 255683, Note_on_c, 2, 69, 0
1, 255686, Note_on_c, 2, 74, 0
1, 255689, Note_on_c, 2, 65, 0
1, 255696, Note_on_c, 9, 36, 0
1, 255721, Note_on_c, 1, 38, 0
1, 255759, Note_on_c, 9, 44, 0
1, 255840, Note_on_c, 1, 38, 98
1, 255840, Note_on_c, 9, 42, 117
1, 255840, Note_on_c, 9, 36, 127
1, 255842, Note_on_c, 2, 74, 101
1, 255842, Note_on_c, 2, 65, 92
1, 255842, Note_on_c, 2, 69, 104
1, 256023, Note_on_c, 9, 42, 0
1, 256034, Note_on_c, 9, 36, 0
1, 256080, Note_on_c, 9, 44, 76
1, 256207, Note_on_c, 9, 44, 0
1, 256320, Note_on_c, 9, 42, 117
1, 256320, Note_on_c, 9, 38, 83
1, 256320, Note_on_c, 9, 53, 72
1, 256334, Note_on_c, 1, 38, 0
1, 256499, Note_on_c, 9, 42, 0
1, 256536, Note_on_c, 9, 38, 0
1, 256560, Note_on_c, 9, 44, 77
1, 256682, Note_on_c, 9, 53, 0
1, 256710, Note_on_c, 9, 44, 0
1, 256745, Note_on_c, 2, 69, 0
1, 256761, Note_on_c, 2, 65, 0
1, 256775, Note_on_c, 2, 74, 0
1, 256800, Note_on_c, 1, 45, 98
1, 256800, Note_on_c, 9, 42, 117
1, 256979, Note_on_c, 1, 45, 0
1, 256983, Note_on_c, 9, 42, 0
1, 257040, Note_on_c, 9, 44, 78
1, 257181, Note_on_c, 9, 44, 0
1, 257280, Note_on_c, 8, 77, 0
1, 257280, Note_on_c, 0, 57, 0
1, 257280, Note_on_c, 7, 57, 0
1, 257280, Note_on_c, 0, 62, 0
1, 257280, Note_on_c, 8, 86, 0
1, 257280, Note_on_c, 7, 53, 0
1, 257280, Note_on_c, 8, 81, 0
1, 257280, Note_on_c, 3, 53, 0
1, 257280, Note_on_c, 7, 62, 0
1, 257280, Note_on_c, 3, 62, 0
1, 257280, Note_on_c, 3, 57, 0
1, 257280, Note_on_c, 0, 53, 0
1, 257280, Note_on_c, 0, 53, 88
1, 257280, Note_on_c, 0, 58, 98
1, 257280, Note_on_c, 0, 62, 82
1, 257280, Note_on_c, 1, 46, 101
1, 257280, Note_on_c, 3, 53, 88
1, 257280, Note_on_c, 3, 58, 98
1, 257280, Note_on_c, 3, 62, 82
1, 257280, Note_on_c, 7, 53, 88
1, 257280, Note_on_c, 7, 58, 98
1, 257280, Note_on_c, 7, 62, 82
1, 257280, Note_on_c, 8, 77, 90
1, 257280, Note_on_c, 8, 82, 101
1, 257280, Note_on_c, 8, 86, 80
1, 257280, Note_on_c, 9, 53, 70
1, 257280, Note_on_c, 9, 42, 117
1, 257280, Note_on_c, 9, 36, 127
1, 257468, Note_on_c, 9, 36, 0
1, 257509, Note_on_c, 9, 42, 0
1, 257520, Note_on_c, 9, 44, 77
1, 257609, Note_on_c, 9, 53, 0
1, 257690, Note_on_c, 9, 44, 0
1, 257760, Note_on_c, 9, 36, 126
1, 257764, Note_on_c, 9, 42, 117
1, 257934, Note_on_c, 9, 36, 0
1, 257998, Note_on_c, 9, 42, 0
1, 258000, Note_on_c, 9, 44, 77
1, 258177, Note_on_c, 9, 44, 0
1, 258240, Note_on_c, 9, 38, 84
1, 258240, Note_on_c, 9, 53, 71
1, 258242, Note_on_c, 2, 74, 82
1, 258242, Note_on_c, 2, 70, 101
1, 258242, Note_on_c, 2, 65, 92
1, 258244, Note_on_c, 9, 42, 117
1, 258402, Note_on_c, 2, 65, 0
1, 258427, Note_on_c, 9, 38, 0
1, 258430, Note_on_c, 2, 70, 0
1, 258442, Note_on_c, 9, 42, 0
1, 258455, Note_on_c, 2, 74, 0
1, 258480, Note_on_c, 1, 46, 0
1, 258480, Note_on_c, 9, 44, 77
1, 258539, Note_on_c, 9, 53, 0
1, 258652, Note_on_c, 9, 44, 0
1, 258724, Note_on_c, 9, 42, 117
1, 258924, Note_on_c, 9, 42, 0
1, 258960, Note_on_c, 1, 46, 117
1, 258960, Note_on_c, 2, 70, 101
1, 258960, Note_on_c, 2, 65, 82
1, 258960, Note_on_c, 2, 74, 67
1, 258960, Note_on_c, 9, 36, 125
1, 258962, Note_on_c, 9, 44, 76
1, 259083, Note_on_c, 2, 70, 0
1, 259085, Note_on_c, 2, 65, 0
1, 259088, Note_on_c, 2, 74, 0
1, 259100, Note_on_c, 9, 44, 0
1, 259119, Note_on_c, 9, 36, 0
1, 259129, Note_on_c, 1, 46, 0
1, 259200, Note_on_c, 9, 53, 71
1, 259204, Note_on_c, 9, 42, 117
1, 259385, Note_on_c, 9, 42, 0
1, 259440, Note_on_c, 1, 46, 92
1, 259440, Note_on_c, 2, 65, 80
1, 259440, Note_on_c, 2, 74, 80
1, 259440, Note_on_c, 2, 70, 109
1, 259440, Note_on_c, 9, 44, 76
1, 259440, Note_on_c, 9, 36, 81
1, 259489, Note_on_c, 9, 53, 0
1, 259514, Note_on_c, 1, 46, 0
1, 259516, Note_on_c, 2, 70, 0
1, 259539, Note_on_c, 9, 36, 0
1, 259540, Note_on_c, 2, 65, 0
1, 259543, Note_on_c, 2, 74, 0
1, 259599, Note_on_c, 9, 44, 0
1, 259680, Note_on_c, 1, 46, 101
1, 259680, Note_on_c, 2, 74, 104
1, 259680, Note_on_c, 2, 65, 98
1, 259680, Note_on_c, 2, 70, 117
1, 259680, Note_on_c, 9, 36, 125
1, 259680, Note_on_c, 9, 42, 117
1, 259820, Note_on_c, 9, 36, 0
1, 259863, Note_on_c, 9, 42, 0
1, 259920, Note_on_c, 9, 44, 76
1, 260047, Note_on_c, 9, 44, 0
1, 260160, Note_on_c, 9, 38, 86
1, 260160, Note_on_c, 9, 42, 117
1, 260160, Note_on_c, 9, 53, 74
1, 260193, Note_on_c, 1, 46, 0
1, 260323, Note_on_c, 9, 38, 0
1, 260339, Note_on_c, 9, 42, 0
1, 260400, Note_on_c, 9, 53, 0
1, 260400, Note_on_c, 9, 44, 77
1, 260550, Note_on_c, 9, 44, 0
1, 260640, Note_on_c, 1, 48, 98
1, 260640, Note_on_c, 9, 42, 117
1, 260666, Note_on_c, 2, 70, 0
1, 260680, Note_on_c, 2, 65, 0
1, 260732, Note_on_c, 2, 74, 0
1, 260823, Note_on_c, 9, 42, 0
1, 260880, Note_on_c, 1, 50, 92
1, 260880, Note_on_c, 9, 44, 78
1, 260889, Note_on_c, 1, 48, 0
1, 261021, Note_on_c, 9, 44, 0
1, 261072, Note_on_c, 1, 50, 0
1, 261105, Note_on_c, 8, 86, 0
1, 261116, Note_on_c, 7, 62, 0
1, 261116, Note_on_c, 0, 62, 0
1, 261116, Note_on_c, 3, 62, 0
1, 261120, Note_on_c, 7, 58, 0
1, 261120, Note_on_c, 0, 53, 0
1, 261120, Note_on_c, 7, 53, 0
1, 261120, Note_on_c, 8, 82, 0
1, 261120, Note_on_c, 0, 58, 0
1, 261120, Note_on_c, 3, 58, 0
1, 261120, Note_on_c, 3, 53, 0
1, 261120, Note_on_c, 8, 77, 0
1, 261120, Note_on_c, 0, 53, 88
1, 261120, Note_on_c, 0, 57, 92
1, 261120, Note_on_c, 0, 60, 90
1, 261120, Note_on_c, 1, 41, 104
1, 261120, Note_on_c, 7, 53, 88
1, 261120, Note_on_c, 7, 57, 92
1, 261120, Note_on_c, 7, 60, 90
1, 261120, Note_on_c, 8, 77, 92
1, 261120, Note_on_c, 8, 81, 101
1, 261120, Note_on_c, 8, 84, 106
1, 262080, Note_on_c, 2, 77, 88
1, 262080, Note_on_c, 2, 69, 80
1, 262080, Note_on_c, 2, 72, 98
1, 262215, Note_on_c, 2, 69, 0
1, 262243, Note_on_c, 2, 72, 0
1, 262279, Note_on_c, 2, 77, 0
1, 262320, Note_on_c, 1, 41, 0
1, 262800, Note_on_c, 1, 41, 109
1, 262800, Note_on_c, 2, 77, 84
1, 262800, Note_on_c, 2, 69, 88
1, 262800, Note_on_c, 2, 72, 98
1, 262800, Note_on_c, 2, 77, 104
1, 262800, Note_on_c, 2, 72, 86
1, 262924, Note_on_c, 2, 69, 0
1, 262927, Note_on_c, 2, 72, 0
1, 262951, Note_on_c, 2, 77, 0
1, 263029, Note_on_c, 1, 41, 0
1, 263040, Note_on_c, 2, 81, 92
1, 263129, Note_on_c, 2, 77, 0
1, 263173, Note_on_c, 2, 81, 0
1, 263177, Note_on_c, 2, 72, 0
1, 263280, Note_on_c, 1, 41, 88
1, 263280, Note_on_c, 2, 77, 82
1, 263280, Note_on_c, 2, 69, 80
1, 263280, Note_on_c, 2, 81, 88
1, 263280, Note_on_c, 2, 72, 50
1, 263280, Note_on_c, 2, 72, 90
1, 263359, Note_on_c, 2, 72, 0
1, 263369, Note_on_c, 2, 69, 0
1, 263372, Note_on_c, 1, 41, 0
1, 263386, Note_on_c, 2, 77, 0
1, 263392, Note_on_c, 2, 72, 0
1, 263409, Note_on_c, 2, 81, 0
1, 263520, Note_on_c, 1, 41, 98
1, 263520, Note_on_c, 2, 72, 67
1, 263520, Note_on_c, 2, 77, 84
1, 263520, Note_on_c, 2, 69, 84
1, 263520, Note_on_c, 2, 72, 98
1, 263520, Note_on_c, 2, 81, 88
1, 263639, Note_on_c, 2, 72, 0
1, 263641, Note_on_c, 2, 81, 0
1, 263760, Note_on_c, 2, 81, 80
1, 263760, Note_on_c, 2, 72, 54
1, 263885, Note_on_c, 2, 72, 0
1, 263885, Note_on_c, 2, 81, 0
1, 264000, Note_on_c, 2, 81, 98
1, 264000, Note_on_c, 2, 72, 70
1, 264008, Note_on_c, 1, 41, 0
1, 264117, Note_on_c, 2, 81, 0
1, 264124, Note_on_c, 2, 72, 0
1, 264240, Note_on_c, 2, 81, 80
1, 264240, Note_on_c, 2, 72, 60
1, 264454, Note_on_c, 2, 81, 0
1, 264465, Note_on_c, 2, 72, 0
1, 264480, Note_on_c, 1, 43, 98
1, 264480, Note_on_c, 2, 79, 104
1, 264480, Note_on_c, 2, 81, 59
1, 264494, Note_on_c, 2, 69, 0
1, 264522, Note_on_c, 2, 81, 0
1, 264522, Note_on_c, 2, 77, 0
1, 264672, Note_on_c, 1, 43, 0
1, 264673, Note_on_c, 2, 79, 0
1, 264722, Note_on_c, 2, 72, 0
1, 264960, Note_on_c, 8, 84, 0
1, 264960, Note_on_c, 7, 53, 0
1, 264960, Note_on_c, 0, 53, 0
1, 264960, Note_on_c, 0, 57, 0
1, 264960, Note_on_c, 7, 60, 0
1, 264960, Note_on_c, 0, 60, 0
1, 264960, Note_on_c, 8, 77, 0
1, 264960, Note_on_c, 8, 81, 0
1, 264960, Note_on_c, 7, 57, 0
1, 264960, Note_on_c, 0, 52, 86
1, 264960, Note_on_c, 0, 57, 82
1, 264960, Note_on_c, 0, 60, 80
1, 264960, Note_on_c, 1, 45, 104
1, 264960, Note_on_c, 7, 52, 86
1, 264960, Note_on_c, 7, 57, 82
1, 264960, Note_on_c, 7, 60, 80
1, 264960, Note_on_c, 8, 88, 95
1, 264960, Note_on_c, 8, 84, 92
1, 264960, Note_on_c, 8, 81, 88
1, 265920, Note_on_c, 2, 72, 98
1, 265920, Note_on_c, 2, 76, 92
1, 265920, Note_on_c, 2, 69, 88
1, 266057, Note_on_c, 2, 69, 0
1, 266070, Note_on_c, 2, 72, 0
1, 266100, Note_on_c, 2, 76, 0
1, 266160, Note_on_c, 1, 45, 0
1, 266640, Note_on_c, 1, 45, 98
1, 266640, Note_on_c, 2, 76, 92
1, 266640, Note_on_c, 2, 76, 73
1, 266640, Note_on_c, 2, 72, 88
1, 266640, Note_on_c, 2, 69, 80
1, 266640, Note_on_c, 2, 72, 84
1, 266767, Note_on_c, 2, 69, 0
1, 266772, Note_on_c, 2, 76, 0
1, 266774, Note_on_c, 2, 72, 0
1, 266837, Note_on_c, 1, 45, 0
1, 266880, Note_on_c, 2, 79, 104
1, 266950, Note_on_c, 2, 76, 0
1, 267016, Note_on_c, 2, 79, 0
1, 267048, Note_on_c, 2, 72, 0
1, 267120, Note_on_c, 1, 45, 84
1, 267120, Note_on_c, 2, 79, 76
1, 267120, Note_on_c, 2, 72, 40
1, 267122, Note_on_c, 2, 69, 68
1, 267122, Note_on_c, 2, 72, 88
1, 267122, Note_on_c, 2, 76, 74
1, 267205, Note_on_c, 2, 76, 0
1, 267205, Note_on_c, 2, 69, 0
1, 267206, Note_on_c, 2, 72, 0
1, 267209, Note_on_c, 1, 45, 0
1, 267244, Note_on_c, 2, 79, 0
1, 267269, Note_on_c, 2, 72, 0
1, 267360, Note_on_c, 1, 45, 88
1, 267360, Note_on_c, 2, 72, 41
1, 267360, Note_on_c, 2, 79, 80
1, 267362, Note_on_c, 2, 69, 95
1, 267362, Note_on_c, 2, 72, 90
1, 267362, Note_on_c, 2, 76, 95
1, 267487, Note_on_c, 2, 79, 0
1, 267502, Note_on_c, 2, 72, 0
1, 267600, Note_on_c, 2, 79, 92
1, 267600, Note_on_c, 2, 72, 41
1, 267724, Note_on_c, 2, 79, 0
1, 267742, Note_on_c, 2, 72, 0
1, 267840, Note_on_c, 2, 72, 45
1, 267840, Note_on_c, 2, 79, 92
1, 267906, Note_on_c, 1, 45, 0
1, 267951, Note_on_c, 2, 79, 0
1, 267973, Note_on_c, 2, 72, 0
1, 268080, Note_on_c, 2, 79, 92
1, 268080, Note_on_c, 2, 72, 49
1, 268233, Note_on_c, 2, 79, 0
1, 268294, Note_on_c, 2, 72, 0
1, 268294, Note_on_c, 2, 76, 0
1, 268298, Note_on_c, 2, 69, 0
1, 268320, Note_on_c, 1, 48, 109
1, 268320, Note_on_c, 2, 77, 117
1, 268495, Note_on_c, 2, 77, 0
1, 268502, Note_on_c, 1, 48, 0
1, 268528, Note_on_c, 2, 72, 0
1, 268800, Note_on_c, 8, 81, 0
1, 268800, Note_on_c, 7, 52, 0
1, 268800, Note_on_c, 0, 52, 0
1, 268800, Note_on_c, 8, 84, 0
1, 268800, Note_on_c, 0, 57, 0
1, 268800, Note_on_c, 7, 57, 0
1, 268800, Note_on_c, 8, 88, 0
1, 268800, Note_on_c, 7, 60, 0
1, 268800, Note_on_c, 0, 60, 0
1, 268800, Note_on_c, 0, 53, 86
1, 268800, Note_on_c, 0, 57, 86
1, 268800, Note_on_c, 0, 62, 84
1, 268800, Note_on_c, 1, 38, 98
1, 268800, Note_on_c, 7, 53, 86
1, 268800, Note_on_c, 7, 57, 86
1, 268800, Note_on_c, 7, 62, 84
1, 268800, Note_on_c, 8, 77, 104
1, 268800, Note_on_c, 8, 81, 88
1, 268800, Note_on_c, 8, 86, 80
1, 269762, Note_on_c, 2, 74, 88
1, 269762, Note_on_c, 2, 65, 80
1, 269762, Note_on_c, 2, 69, 106
1, 269918, Note_on_c, 2, 69, 0
1, 269931, Note_on_c, 2, 65, 0
1, 269975, Note_on_c, 2, 74, 0
1, 270000, Note_on_c, 1, 38, 0
1, 270480, Note_on_c, 1, 38, 92
1, 270480, Note_on_c, 2, 74, 90
1, 270480, Note_on_c, 2, 65, 95
1, 270482, Note_on_c, 2, 69, 106
1, 270596, Note_on_c, 2, 69, 0
1, 270599, Note_on_c, 2, 65, 0
1, 270623, Note_on_c, 2, 74, 0
1, 270655, Note_on_c, 1, 38, 0
1, 270960, Note_on_c, 1, 38, 84
1, 270960, Note_on_c, 2, 69, 98
1, 270962, Note_on_c, 2, 65, 84
1, 270962, Note_on_c, 2, 74, 74
1, 271043, Note_on_c, 2, 69, 0
1, 271046, Note_on_c, 2, 74, 0
1, 271049, Note_on_c, 2, 65, 0
1, 271081, Note_on_c, 1, 38, 0
1, 271200, Note_on_c, 1, 38, 98
1, 271202, Note_on_c, 2, 65, 92
1, 271202, Note_on_c, 2, 74, 101
1, 271202, Note_on_c, 2, 69, 104
1, 271694, Note_on_c, 1, 38, 0
1, 272105, Note_on_c, 2, 69, 0
1, 272121, Note_on_c, 2, 65, 0
1, 272135, Note_on_c, 2, 74, 0
1, 272160, Note_on_c, 1, 45, 98
1, 272339, Note_on_c, 1, 45, 0
1, 272640, Note_on_c, 0, 62, 0
1, 272640, Note_on_c, 7, 53, 0
1, 272640, Note_on_c, 0, 53, 0
1, 272640, Note_on_c, 7, 57, 0
1, 272640, Note_on_c, 0, 57, 0
1, 272640, Note_on_c, 7, 62, 0
1, 272640, Note_on_c, 8, 77, 0
1, 272640, Note_on_c, 8, 81, 0
1, 272640, Note_on_c, 8, 86, 0
1, 272640, Note_on_c, 0, 53, 88
1, 272640, Note_on_c, 0, 58, 98
1, 272640, Note_on_c, 0, 62, 82
1, 272640, Note_on_c, 1, 46, 101
1, 272640, Note_on_c, 7, 53, 88
1, 272640, Note_on_c, 7, 58, 98
1, 272640, Note_on_c, 7, 62, 82
1, 272640, Note_on_c, 8, 77, 90
1, 272640, Note_on_c, 8, 82, 101
1, 272640, Note_on_c, 8, 86, 80
1, 273602, Note_on_c, 2, 70, 101
1, 273602, Note_on_c, 2, 74, 82
1, 273602, Note_on_c, 2, 65, 92
1, 273762, Note_on_c, 2, 65, 0
1, 273790, Note_on_c, 2, 70, 0
1, 273815, Note_on_c, 2, 74, 0
1, 273840, Note_on_c, 1, 46, 0
1, 274320, Note_on_c, 1, 46, 117
1, 274320, Note_on_c, 2, 65, 82
1, 274320, Note_on_c, 2, 70, 101
1, 274320, Note_on_c, 2, 74, 67
1, 274443, Note_on_c, 2, 70, 0
1, 274445, Note_on_c, 2, 65, 0
1, 274448, Note_on_c, 2, 74, 0
1, 274489, Note_on_c, 1, 46, 0
1, 274800, Note_on_c, 1, 46, 92
1, 274800, Note_on_c, 2, 74, 80
1, 274800, Note_on_c, 2, 70, 109
1, 274800, Note_on_c, 2, 65, 80
1, 274874, Note_on_c, 1, 46, 0
1, 274876, Note_on_c, 2, 70, 0
1, 274900, Note_on_c, 2, 65, 0
1, 274903, Note_on_c, 2, 74, 0
1, 275040, Note_on_c, 1, 46, 101
1, 275040, Note_on_c, 2, 74, 104
1, 275040, Note_on_c, 2, 70, 117
1, 275040, Note_on_c, 2, 65, 98
1, 275553, Note_on_c, 1, 46, 0
1, 276000, Note_on_c, 1, 48, 98
1, 276026, Note_on_c, 2, 70, 0
1, 276040, Note_on_c, 2, 65, 0
1, 276092, Note_on_c, 2, 74, 0
1, 276240, Note_on_c, 1, 50, 92
1, 276249, Note_on_c, 1, 48, 0
1, 276432, Note_on_c, 1, 50, 0
1, 276465, Note_on_c, 8, 86, 0
1, 276476, Note_on_c, 0, 62, 0
1, 276476, Note_on_c, 7, 62, 0
1, 276480, Note_on_c, 7, 58, 0
1, 276480, Note_on_c, 0, 58, 0
1, 276480, Note_on_c, 7, 53, 0
1, 276480, Note_on_c, 8, 82, 0
1, 276480, Note_on_c, 0, 53, 0
1, 276480, Note_on_c, 8, 77, 0
1, 276480, Note_on_c, 0, 53, 88
1, 276480, Note_on_c, 0, 57, 92
1, 276480, Note_on_c, 0, 60, 90
1, 276480, Note_on_c, 1, 41, 104
1, 276480, Note_on_c, 7, 53, 88
1, 276480, Note_on_c, 7, 57, 92
1, 276480, Note_on_c, 7, 60, 90
1, 276480, Note_on_c, 8, 77, 92
1, 276480, Note_on_c, 8, 81, 101
1, 276480, Note_on_c, 8, 84, 106
1, 277440, Note_on_c, 2, 77, 88
1, 277440, Note_on_c, 2, 72, 98
1, 277440, Note_on_c, 2, 69, 80
1, 277575, Note_on_c, 2, 69, 0
1, 277603, Note_on_c, 2, 72, 0
1, 277639, Note_on_c, 2, 77, 0
1, 277680, Note_on_c, 1, 41, 0
1, 278160, Note_on_c, 1, 41, 109
1, 278160, Note_on_c, 2, 77, 84
1, 278160, Note_on_c, 2, 72, 98
1, 278160, Note_on_c, 2, 69, 88
1, 278160, Note_on_c, 2, 72, 86
1, 278160, Note_on_c, 2, 77, 104
1, 278284, Note_on_c, 2, 69, 0
1, 278287, Note_on_c, 2, 72, 0
1, 278311, Note_on_c, 2, 77, 0
1, 278389, Note_on_c, 1, 41, 0
1, 278400, Note_on_c, 2, 81, 92
1, 278489, Note_on_c, 2, 77, 0
1, 278533, Note_on_c, 2, 81, 0
1, 278537, Note_on_c, 2, 72, 0
1, 278640, Note_on_c, 1, 41, 88
1, 278640, Note_on_c, 2, 77, 82
1, 278640, Note_on_c, 2, 72, 90
1, 278640, Note_on_c, 2, 69, 80
1, 278640, Note_on_c, 2, 81, 88
1, 278640, Note_on_c, 2, 72, 50
1, 278719, Note_on_c, 2, 72, 0
1, 278729, Note_on_c, 2, 69, 0
1, 278732, Note_on_c, 1, 41, 0
1, 278746, Note_on_c, 2, 77, 0
1, 278752, Note_on_c, 2, 72, 0
1, 278769, Note_on_c, 2, 81, 0
1, 278880, Note_on_c, 1, 41, 98
1, 278880, Note_on_c, 2, 77, 84
1, 278880, Note_on_c, 2, 72, 67
1, 278880, Note_on_c, 2, 81, 88
1, 278880, Note_on_c, 2, 69, 84
1, 278880, Note_on_c, 2, 72, 98
1, 278999, Note_on_c, 2, 72, 0
1, 279001, Note_on_c, 2, 81, 0
1, 279120, Note_on_c, 2, 72, 54
1, 279120, Note_on_c, 2, 81, 80
1, 279245, Note_on_c, 2, 81, 0
1, 279245, Note_on_c, 2, 72, 0
1, 279360, Note_on_c, 2, 72, 70
1, 279360, Note_on_c, 2, 81, 98
1, 279368, Note_on_c, 1, 41, 0
1, 279477, Note_on_c, 2, 81, 0
1, 279484, Note_on_c, 2, 72, 0
1, 279600, Note_on_c, 2, 72, 60
1, 279600, Note_on_c, 2, 81, 80
1, 279814, Note_on_c, 2, 81, 0
1, 279825, Note_on_c, 2, 72, 0
1, 279840, Note_on_c, 1, 43, 98
1, 279840, Note_on_c, 2, 81, 59
1, 279840, Note_on_c, 2, 79, 104
1, 279854, Note_on_c, 2, 69, 0
1, 279882, Note_on_c, 2, 77, 0
1, 279882, Note_on_c, 2, 81, 0
1, 280032, Note_on_c, 1, 43, 0
1, 280033, Note_on_c, 2, 79, 0
1, 280082, Note_on_c, 2, 72, 0
1, 280320, Note_on_c, 8, 84, 0
1, 280320, Note_on_c, 7, 53, 0
1, 280320, Note_on_c, 0, 53, 0
1, 280320, Note_on_c, 7, 57, 0
1, 280320, Note_on_c, 0, 57, 0
1, 280320, Note_on_c, 0, 60, 0
1, 280320, Note_on_c, 8, 77, 0
1, 280320, Note_on_c, 8, 81, 0
1, 280320, Note_on_c, 7, 60, 0
1, 280320, Note_on_c, 0, 52, 86
1, 280320, Note_on_c, 0, 57, 82
1, 280320, Note_on_c, 0, 60, 80
1, 280320, Note_on_c, 1, 45, 104
1, 280320, Note_on_c, 7, 52, 86
1, 280320, Note_on_c, 7, 57, 82
1, 280320, Note_on_c, 7, 60, 80
1, 280320, Note_on_c, 8, 88, 95
1, 280320, Note_on_c, 8, 84, 92
1, 280320, Note_on_c, 8, 81, 88
1, 281280, Note_on_c, 2, 76, 92
1, 281280, Note_on_c, 2, 72, 98
1, 281280, Note_on_c, 2, 69, 88
1, 281417, Note_on_c, 2, 69, 0
1, 281430, Note_on_c, 2, 72, 0
1, 281460, Note_on_c, 2, 76, 0
1, 281520, Note_on_c, 1, 45, 0
1, 282000, Note_on_c, 1, 45, 98
1, 282000, Note_on_c, 2, 69, 80
1, 282000, Note_on_c, 2, 72, 84
1, 282000, Note_on_c, 2, 72, 88
1, 282000, Note_on_c, 2, 76, 92
1, 282000, Note_on_c, 2, 76, 73
1, 282127, Note_on_c, 2, 69, 0
1, 282132, Note_on_c, 2, 76, 0
1, 282134, Note_on_c, 2, 72, 0
1, 282197, Note_on_c, 1, 45, 0
1, 282240, Note_on_c, 2, 79, 104
1, 282310, Note_on_c, 2, 76, 0
1, 282376, Note_on_c, 2, 79, 0
1, 282408, Note_on_c, 2, 72, 0
1, 282480, Note_on_c, 1, 45, 84
1, 282480, Note_on_c, 2, 79, 76
1, 282480, Note_on_c, 2, 72, 40
1, 282482, Note_on_c, 2, 69, 68
1, 282482, Note_on_c, 2, 72, 88
1, 282482, Note_on_c, 2, 76, 74
1, 282565, Note_on_c, 2, 76, 0
1, 282565, Note_on_c, 2, 69, 0
1, 282566, Note_on_c, 2, 72, 0
1, 282569, Note_on_c, 1, 45, 0
1, 282604, Note_on_c, 2, 79, 0
1, 282629, Note_on_c, 2, 72, 0
1, 282720, Note_on_c, 1, 45, 88
1, 282720, Note_on_c, 2, 72, 41
1, 282720, Note_on_c, 2, 79, 80
1, 282722, Note_on_c, 2, 69, 95
1, 282722, Note_on_c, 2, 76, 95
1, 282722, Note_on_c, 2, 72, 90
1, 282847, Note_on_c, 2, 79, 0
1, 282862, Note_on_c, 2, 72, 0
1, 282960, Note_on_c, 2, 72, 41
1, 282960, Note_on_c, 2, 79, 92
1, 283084, Note_on_c, 2, 79, 0
1, 283102, Note_on_c, 2, 72, 0
1, 283200, Note_on_c, 2, 79, 92
1, 283200, Note_on_c, 2, 72, 45
1, 283266, Note_on_c, 1, 45, 0
1, 283311, Note_on_c, 2, 79, 0
1, 283333, Note_on_c, 2, 72, 0
1, 283440, Note_on_c, 2, 79, 92
1, 283440, Note_on_c, 2, 72, 49
1, 283593, Note_on_c, 2, 79, 0
1, 283654, Note_on_c, 2, 76, 0
1, 283654, Note_on_c, 2, 72, 0
1, 283658, Note_on_c, 2, 69, 0
1, 283680, Note_on_c, 1, 48, 109
1, 283680, Note_on_c, 2, 77, 117
1, 283855, Note_on_c, 2, 77, 0
1, 283862, Note_on_c, 1, 48, 0
1, 283888, Note_on_c, 2, 72, 0
1, 284160, Note_on_c, 8, 81, 0
1, 284160, Note_on_c, 7, 52, 0
1, 284160, Note_on_c, 0, 52, 0
1, 284160, Note_on_c, 8, 84, 0
1, 284160, Note_on_c, 7, 60, 0
1, 284160, Note_on_c, 7, 57, 0
1, 284160, Note_on_c, 8, 88, 0
1, 284160, Note_on_c, 0, 57, 0
1, 284160, Note_on_c, 0, 60, 0
1, 284160, Note_on_c, 0, 53, 86
1, 284160, Note_on_c, 0, 57, 86
1, 284160, Note_on_c, 0, 62, 84
1, 284160, Note_on_c, 1, 38, 98
1, 284160, Note_on_c, 7, 53, 86
1, 284160, Note_on_c, 7, 57, 86
1, 284160, Note_on_c, 7, 62, 84
1, 284160, Note_on_c, 8, 77, 104
1, 284160, Note_on_c, 8, 81, 88
1, 284160, Note_on_c, 8, 86, 80
1, 285122, Note_on_c, 2, 74, 88
1, 285122, Note_on_c, 2, 69, 106
1, 285122, Note_on_c, 2, 65, 80
1, 285278, Note_on_c, 2, 69, 0
1, 285291, Note_on_c, 2, 65, 0
1, 285335, Note_on_c, 2, 74, 0
1, 285360, Note_on_c, 1, 38, 0
1, 285840, Note_on_c, 1, 38, 92
1, 285840, Note_on_c, 2, 74, 90
1, 285840, Note_on_c, 2, 65, 95
1, 285842, Note_on_c, 2, 69, 106
1, 285956, Note_on_c, 2, 69, 0
1, 285959, Note_on_c, 2, 65, 0
1, 285983, Note_on_c, 2, 74, 0
1, 286015, Note_on_c, 1, 38, 0
1, 286320, Note_on_c, 1, 38, 84
1, 286320, Note_on_c, 2, 69, 98
1, 286322, Note_on_c, 2, 65, 84
1, 286322, Note_on_c, 2, 74, 74
1, 286403, Note_on_c, 2, 69, 0
1, 286406, Note_on_c, 2, 74, 0
1, 286409, Note_on_c, 2, 65, 0
1, 286441, Note_on_c, 1, 38, 0
1, 286560, Note_on_c, 1, 38, 98
1, 286562, Note_on_c, 2, 65, 92
1, 286562, Note_on_c, 2, 74, 101
1, 286562, Note_on_c, 2, 69, 104
1, 287054, Note_on_c, 1, 38, 0
1, 287465, Note_on_c, 2, 69, 0
1, 287481, Note_on_c, 2, 65, 0
1, 287495, Note_on_c, 2, 74, 0
1, 287520, Note_on_c, 1, 45, 98
1, 287699, Note_on_c, 1, 45, 0
1, 288000, Note_on_c, 0, 62, 0
1, 288000, Note_on_c, 7, 53, 0
1, 288000, Note_on_c, 0, 53, 0
1, 288000, Note_on_c, 7, 57, 0
1, 288000, Note_on_c, 0, 57, 0
1, 288000, Note_on_c, 7, 62, 0
1, 288000, Note_on_c, 8, 77, 0
1, 288000, Note_on_c, 8, 81, 0
1, 288000, Note_on_c, 8, 86, 0
1, 288000, Note_on_c, 0, 53, 88
1, 288000, Note_on_c, 0, 58, 98
1, 288000, Note_on_c, 0, 62, 82
1, 288000, Note_on_c, 1, 46, 101
1, 288000, Note_on_c, 7, 53, 88
1, 288000, Note_on_c, 7, 58, 98
1, 288000, Note_on_c, 7, 62, 82
1, 288000, Note_on_c, 8, 77, 90
1, 288000, Note_on_c, 8, 82, 101
1, 288000, Note_on_c, 8, 86, 80
1, 288962, Note_on_c, 2, 65, 92
1, 288962, Note_on_c, 2, 74, 82
1, 288962, Note_on_c, 2, 70, 101
1, 289122, Note_on_c, 2, 65, 0
1, 289150, Note_on_c, 2, 70, 0
1, 289175, Note_on_c, 2, 74, 0
1, 289200, Note_on_c, 1, 46, 0
1, 289680, Note_on_c, 1, 46, 117
1, 289680, Note_on_c, 2, 70, 101
1, 289680, Note_on_c, 2, 65, 82
1, 289680, Note_on_c, 2, 74, 67
1, 289803, Note_on_c, 2, 70, 0
1, 289805, Note_on_c, 2, 65, 0
1, 289808, Note_on_c, 2, 74, 0
1, 289849, Note_on_c, 1, 46, 0
1, 290160, Note_on_c, 1, 46, 92
1, 290160, Note_on_c, 2, 74, 80
1, 290160, Note_on_c, 2, 70, 109
1, 290160, Note_on_c, 2, 65, 80
1, 290234, Note_on_c, 1, 46, 0
1, 290236, Note_on_c, 2, 70, 0
1, 290260, Note_on_c, 2, 65, 0
1, 290263, Note_on_c, 2, 74, 0
1, 290400, Note_on_c, 1, 46, 101
1, 290400, Note_on_c, 2, 65, 98
1, 290400, Note_on_c, 2, 74, 104
1, 290400, Note_on_c, 2, 70, 117
1, 290913, Note_on_c, 1, 46, 0
1, 291360, Note_on_c, 1, 48, 98
1, 291386, Note_on_c, 2, 70, 0
1, 291400, Note_on_c, 2, 65, 0
1, 291452, Note_on_c, 2, 74, 0
1, 291600, Note_on_c, 1, 50, 92
1, 291609, Note_on_c, 1, 48, 0
1, 291792, Note_on_c, 1, 50, 0
1, 291825, Note_on_c, 8, 86, 0
1, 291836, Note_on_c, 7, 62, 0
1, 291836, Note_on_c, 0, 62, 0
1, 291840, Note_on_c, 7, 58, 0
1, 291840, Note_on_c, 0, 58, 0
1, 291840, Note_on_c, 7, 53, 0
1, 291840, Note_on_c, 8, 82, 0
1, 291840, Note_on_c, 0, 53, 0
1, 291840, Note_on_c, 8, 77, 0
1, 291840, End_track
0, 0, End_of_file
