0, 0, Header, 1, 10, 120
1, 0, Start_track
1, 0, MIDI_port, 0
1, 0, System_exclusive, 5, 126, 127, 9, 1, 247
1, 0, MIDI_port, 0
1, 0, System_exclusive, 10, 65, 16, 66, 18, 64, 0, 127, 0, 65, 247
1, 0, MIDI_port, 0
1, 0, Time_signature, 4, 2, 24, 8
1, 0, Key_signature, 0, "major"
1, 0, Tempo, 508475
1, 0, Title_t, "Priere Paienne - Jean-Jacques Goldman"
1, 0, Text_t, "Jean-Jacques Goldman"
1, 960, Tempo, 508475
1, 2880, Tempo, 508475
1, 2880, End_track
2, 0, Start_track
2, 0, MIDI_port, 0
2, 0, Title_t, "Soft Karaoke"
2, 46, Control_c, 0, 32, 1
2, 119, Control_c, 0, 121, 0
2, 120, Control_c, 0, 0, 0
2, 121, Control_c, 0, 100, 0
2, 122, Program_c, 0, 1
2, 122, Control_c, 0, 101, 0
2, 123, Control_c, 0, 7, 85
2, 123, Control_c, 0, 10, 40
2, 124, Control_c, 0, 6, 2
2, 125, Control_c, 0, 91, 58
2, 126, Control_c, 0, 93, 20
2, 130, Control_c, 0, 1, 0
2, 131, Control_c, 0, 11, 127
2, 480, Note_on_c, 0, 62, 127
2, 505, Note_on_c, 0, 62, 0
2, 540, Note_on_c, 0, 60, 126
2, 565, Note_on_c, 0, 60, 0
2, 600, Note_on_c, 0, 57, 125
2, 630, Note_on_c, 0, 57, 0
2, 660, Note_on_c, 0, 56, 125
2, 684, Note_on_c, 0, 56, 0
2, 690, Note_on_c, 0, 55, 125
2, 780, Note_on_c, 0, 53, 123
2, 781, Note_on_c, 0, 55, 0
2, 840, Note_on_c, 0, 50, 122
2, 841, Note_on_c, 0, 53, 0
2, 878, Note_on_c, 0, 50, 0
2, 900, Note_on_c, 0, 45, 122
2, 925, Note_on_c, 0, 45, 0
2, 960, Note_on_c, 0, 44, 122
2, 992, Note_on_c, 0, 44, 0
2, 1020, Note_on_c, 0, 43, 122
2, 1050, Note_on_c, 0, 43, 0
2, 1080, Note_on_c, 0, 41, 122
2, 1103, Note_on_c, 0, 41, 0
2, 1110, Note_on_c, 0, 38, 122
2, 1170, Note_on_c, 0, 38, 0
2, 1170, Note_on_c, 0, 50, 127
2, 1219, Note_on_c, 0, 50, 0
2, 1440, Note_on_c, 0, 50, 127
2, 1440, Note_on_c, 0, 62, 127
2, 1465, Note_on_c, 0, 62, 0
2, 1465, Note_on_c, 0, 50, 0
2, 1500, Note_on_c, 0, 48, 126
2, 1500, Note_on_c, 0, 60, 126
2, 1525, Note_on_c, 0, 60, 0
2, 1525, Note_on_c, 0, 48, 0
2, 1560, Note_on_c, 0, 45, 125
2, 1560, Note_on_c, 0, 57, 125
2, 1590, Note_on_c, 0, 57, 0
2, 1590, Note_on_c, 0, 45, 0
2, 1620, Note_on_c, 0, 44, 125
2, 1620, Note_on_c, 0, 56, 125
2, 1644, Note_on_c, 0, 56, 0
2, 1644, Note_on_c, 0, 44, 0
2, 1650, Note_on_c, 0, 43, 125
2, 1650, Note_on_c, 0, 55, 125
2, 1731, Note_on_c, 0, 55, 0
2, 1731, Note_on_c, 0, 43, 0
2, 1740, Note_on_c, 0, 41, 123
2, 1740, Note_on_c, 0, 53, 123
2, 1800, Note_on_c, 0, 53, 0
2, 1800, Note_on_c, 0, 41, 0
2, 1800, Note_on_c, 0, 38, 122
2, 1800, Note_on_c, 0, 50, 122
2, 1838, Note_on_c, 0, 50, 0
2, 1838, Note_on_c, 0, 38, 0
2, 1860, Note_on_c, 0, 33, 122
2, 1860, Note_on_c, 0, 45, 122
2, 1885, Note_on_c, 0, 45, 0
2, 1885, Note_on_c, 0, 33, 0
2, 1920, Note_on_c, 0, 32, 122
2, 1920, Note_on_c, 0, 44, 122
2, 1952, Note_on_c, 0, 44, 0
2, 1952, Note_on_c, 0, 32, 0
2, 1980, Note_on_c, 0, 31, 122
2, 1980, Note_on_c, 0, 43, 122
2, 2010, Note_on_c, 0, 43, 0
2, 2010, Note_on_c, 0, 31, 0
2, 2040, Note_on_c, 0, 29, 122
2, 2040, Note_on_c, 0, 41, 122
2, 2063, Note_on_c, 0, 41, 0
2, 2063, Note_on_c, 0, 29, 0
2, 2070, Note_on_c, 0, 26, 122
2, 2070, Note_on_c, 0, 38, 122
2, 2158, Note_on_c, 0, 38, 0
2, 2158, Note_on_c, 0, 26, 0
2, 2160, Note_on_c, 0, 26, 113
2, 2160, Note_on_c, 0, 38, 127
2, 2160, Note_on_c, 0, 50, 127
2, 2209, Note_on_c, 0, 50, 0
2, 2209, Note_on_c, 0, 38, 0
2, 2209, Note_on_c, 0, 26, 0
2, 2400, Note_on_c, 0, 38, 127
2, 2400, Note_on_c, 0, 66, 121
2, 2400, Note_on_c, 0, 62, 123
2, 2400, Note_on_c, 0, 57, 117
2, 2439, Note_on_c, 0, 57, 0
2, 2441, Note_on_c, 0, 66, 0
2, 2442, Note_on_c, 0, 62, 0
2, 2457, Note_on_c, 0, 38, 0
2, 2490, Note_on_c, 0, 66, 123
2, 2490, Note_on_c, 0, 57, 113
2, 2490, Note_on_c, 0, 62, 126
2, 2519, Note_on_c, 0, 38, 126
2, 2520, Note_on_c, 0, 62, 0
2, 2523, Note_on_c, 0, 66, 0
2, 2523, Note_on_c, 0, 57, 0
2, 2580, Note_on_c, 0, 38, 0
2, 2580, Note_on_c, 0, 67, 121
2, 2580, Note_on_c, 0, 59, 113
2, 2580, Note_on_c, 0, 62, 121
2, 2639, Note_on_c, 0, 38, 123
2, 2687, Note_on_c, 0, 62, 0
2, 2695, Note_on_c, 0, 59, 0
2, 2700, Note_on_c, 0, 62, 127
2, 2706, Note_on_c, 0, 38, 0
2, 2746, Note_on_c, 0, 62, 0
2, 2759, Note_on_c, 0, 38, 119
2, 2789, Note_on_c, 0, 62, 127
2, 2803, Note_on_c, 0, 67, 0
2, 2832, Note_on_c, 0, 38, 0
2, 2833, Note_on_c, 0, 62, 0
2, 2849, Note_on_c, 0, 62, 116
2, 2875, Note_on_c, 0, 62, 0
2, 2879, Note_on_c, 0, 62, 123
2, 2879, Note_on_c, 0, 57, 121
2, 2879, Note_on_c, 0, 66, 119
2, 2879, Note_on_c, 0, 38, 121
2, 2946, Note_on_c, 0, 38, 0
2, 2957, Note_on_c, 0, 66, 0
2, 2957, Note_on_c, 0, 57, 0
2, 2958, Note_on_c, 0, 62, 0
2, 2970, Note_on_c, 0, 67, 116
2, 2970, Note_on_c, 0, 62, 126
2, 2970, Note_on_c, 0, 59, 108
2, 2998, Note_on_c, 0, 62, 0
2, 2999, Note_on_c, 0, 38, 123
2, 3000, Note_on_c, 0, 59, 0
2, 3007, Note_on_c, 0, 67, 0
2, 3059, Note_on_c, 0, 38, 0
2, 3059, Note_on_c, 0, 66, 110
2, 3059, Note_on_c, 0, 62, 119
2, 3059, Note_on_c, 0, 57, 111
2, 3119, Note_on_c, 0, 38, 126
2, 3166, Note_on_c, 0, 57, 0
2, 3180, Note_on_c, 0, 57, 123
2, 3286, Note_on_c, 0, 38, 0
2, 3299, Note_on_c, 0, 38, 126
2, 3329, Note_on_c, 0, 66, 0
2, 3329, Note_on_c, 0, 62, 0
2, 3331, Note_on_c, 0, 38, 0
2, 3333, Note_on_c, 0, 57, 0
2, 3360, Note_on_c, 0, 59, 118
2, 3360, Note_on_c, 0, 35, 126
2, 3360, Note_on_c, 0, 47, 119
2, 3360, Note_on_c, 0, 66, 126
2, 3360, Note_on_c, 0, 62, 127
2, 3441, Note_on_c, 0, 59, 0
2, 3445, Note_on_c, 0, 66, 0
2, 3445, Note_on_c, 0, 62, 0
2, 3450, Note_on_c, 0, 59, 107
2, 3450, Note_on_c, 0, 62, 114
2, 3450, Note_on_c, 0, 66, 116
2, 3463, Note_on_c, 0, 47, 0
2, 3464, Note_on_c, 0, 35, 0
2, 3478, Note_on_c, 0, 62, 0
2, 3480, Note_on_c, 0, 35, 116
2, 3480, Note_on_c, 0, 47, 119
2, 3481, Note_on_c, 0, 59, 0
2, 3482, Note_on_c, 0, 66, 0
2, 3527, Note_on_c, 0, 47, 0
2, 3530, Note_on_c, 0, 35, 0
2, 3540, Note_on_c, 0, 57, 113
2, 3540, Note_on_c, 0, 61, 116
2, 3540, Note_on_c, 0, 64, 123
2, 3593, Control_c, 0, 64, 127
2, 3593, Control_c, 0, 64, 0
2, 3599, Note_on_c, 0, 33, 116
2, 3599, Note_on_c, 0, 45, 116
2, 3604, Control_c, 0, 64, 127
2, 3638, Note_on_c, 0, 64, 0
2, 3638, Note_on_c, 0, 57, 0
2, 3638, Note_on_c, 0, 61, 0
2, 3659, Note_on_c, 0, 69, 127
2, 3693, Note_on_c, 0, 69, 0
2, 3693, Note_on_c, 0, 33, 0
2, 3695, Note_on_c, 0, 45, 0
2, 3719, Note_on_c, 0, 45, 113
2, 3719, Note_on_c, 0, 33, 113
2, 3719, Note_on_c, 0, 57, 127
2, 3734, Note_on_c, 0, 57, 0
2, 3744, Control_c, 0, 64, 0
2, 3746, Control_c, 0, 64, 127
2, 3748, Control_c, 0, 64, 0
2, 3749, Note_on_c, 0, 57, 107
2, 3775, Control_c, 0, 64, 127
2, 3779, Note_on_c, 0, 33, 0
2, 3797, Note_on_c, 0, 45, 0
2, 3801, Note_on_c, 0, 57, 0
2, 3808, Note_on_c, 0, 33, 114
2, 3809, Note_on_c, 0, 57, 88
2, 3820, Note_on_c, 0, 57, 0
2, 3825, Note_on_c, 0, 33, 0
2, 3836, Control_c, 0, 64, 0
2, 3838, Note_on_c, 0, 43, 114
2, 3838, Note_on_c, 0, 31, 123
2, 3839, Note_on_c, 0, 67, 119
2, 3839, Note_on_c, 0, 62, 123
2, 3839, Note_on_c, 0, 59, 116
2, 3916, Note_on_c, 0, 59, 0
2, 3918, Note_on_c, 0, 62, 0
2, 3920, Note_on_c, 0, 67, 0
2, 3929, Note_on_c, 0, 67, 121
2, 3929, Note_on_c, 0, 62, 126
2, 3929, Note_on_c, 0, 59, 117
2, 3944, Note_on_c, 0, 43, 0
2, 3959, Note_on_c, 0, 43, 127
2, 3960, Note_on_c, 0, 31, 0
2, 3962, Note_on_c, 0, 59, 0
2, 3963, Note_on_c, 0, 62, 0
2, 3970, Note_on_c, 0, 67, 0
2, 4019, Note_on_c, 0, 66, 127
2, 4019, Note_on_c, 0, 62, 127
2, 4019, Note_on_c, 0, 57, 127
2, 4020, Note_on_c, 0, 43, 0
2, 4078, Note_on_c, 0, 38, 127
2, 4079, Note_on_c, 0, 66, 0
2, 4079, Note_on_c, 0, 57, 0
2, 4079, Note_on_c, 0, 62, 0
2, 4139, Note_on_c, 0, 38, 0
2, 4320, Note_on_c, 0, 38, 127
2, 4320, Note_on_c, 0, 66, 121
2, 4320, Note_on_c, 0, 62, 123
2, 4320, Note_on_c, 0, 57, 117
2, 4359, Note_on_c, 0, 57, 0
2, 4361, Note_on_c, 0, 66, 0
2, 4362, Note_on_c, 0, 62, 0
2, 4410, Note_on_c, 0, 66, 123
2, 4410, Note_on_c, 0, 57, 113
2, 4410, Note_on_c, 0, 62, 126
2, 4420, Note_on_c, 0, 38, 0
2, 4439, Note_on_c, 0, 38, 126
2, 4440, Note_on_c, 0, 62, 0
2, 4443, Note_on_c, 0, 66, 0
2, 4443, Note_on_c, 0, 57, 0
2, 4500, Note_on_c, 0, 67, 121
2, 4500, Note_on_c, 0, 59, 113
2, 4500, Note_on_c, 0, 62, 121
2, 4541, Note_on_c, 0, 38, 0
2, 4559, Note_on_c, 0, 38, 123
2, 4607, Note_on_c, 0, 62, 0
2, 4620, Note_on_c, 0, 62, 119
2, 4679, Note_on_c, 0, 50, 127
2, 4691, Note_on_c, 0, 62, 0
2, 4709, Note_on_c, 0, 62, 126
2, 4750, Note_on_c, 0, 62, 0
2, 4754, Note_on_c, 0, 38, 0
2, 4765, Note_on_c, 0, 50, 0
2, 4769, Note_on_c, 0, 62, 92
2, 4770, Note_on_c, 0, 50, 113
2, 4776, Note_on_c, 0, 67, 0
2, 4784, Note_on_c, 0, 59, 0
2, 4795, Note_on_c, 0, 62, 0
2, 4799, Note_on_c, 0, 62, 123
2, 4799, Note_on_c, 0, 57, 121
2, 4799, Note_on_c, 0, 66, 119
2, 4799, Note_on_c, 0, 38, 121
2, 4803, Note_on_c, 0, 50, 0
2, 4877, Note_on_c, 0, 66, 0
2, 4877, Note_on_c, 0, 57, 0
2, 4878, Note_on_c, 0, 62, 0
2, 4890, Note_on_c, 0, 67, 116
2, 4890, Note_on_c, 0, 62, 126
2, 4890, Note_on_c, 0, 59, 108
2, 4903, Note_on_c, 0, 38, 0
2, 4918, Note_on_c, 0, 62, 0
2, 4919, Note_on_c, 0, 38, 123
2, 4920, Note_on_c, 0, 59, 0
2, 4927, Note_on_c, 0, 67, 0
2, 4979, Note_on_c, 0, 66, 110
2, 4979, Note_on_c, 0, 62, 119
2, 4979, Note_on_c, 0, 57, 111
2, 5023, Note_on_c, 0, 38, 0
2, 5039, Note_on_c, 0, 38, 126
2, 5100, Note_on_c, 0, 50, 123
2, 5151, Note_on_c, 0, 38, 0
2, 5160, Note_on_c, 0, 50, 0
2, 5160, Note_on_c, 0, 38, 123
2, 5220, Note_on_c, 0, 50, 123
2, 5249, Note_on_c, 0, 57, 0
2, 5249, Note_on_c, 0, 66, 0
2, 5249, Note_on_c, 0, 62, 0
2, 5264, Note_on_c, 0, 38, 0
2, 5280, Note_on_c, 0, 50, 0
2, 5280, Note_on_c, 0, 59, 118
2, 5280, Note_on_c, 0, 35, 126
2, 5280, Note_on_c, 0, 47, 119
2, 5280, Note_on_c, 0, 66, 126
2, 5280, Note_on_c, 0, 62, 127
2, 5361, Note_on_c, 0, 59, 0
2, 5365, Note_on_c, 0, 66, 0
2, 5365, Note_on_c, 0, 62, 0
2, 5370, Note_on_c, 0, 59, 107
2, 5370, Note_on_c, 0, 62, 114
2, 5370, Note_on_c, 0, 66, 116
2, 5383, Note_on_c, 0, 47, 0
2, 5384, Note_on_c, 0, 35, 0
2, 5398, Note_on_c, 0, 62, 0
2, 5400, Note_on_c, 0, 35, 116
2, 5400, Note_on_c, 0, 47, 119
2, 5401, Note_on_c, 0, 59, 0
2, 5402, Note_on_c, 0, 66, 0
2, 5447, Note_on_c, 0, 47, 0
2, 5450, Note_on_c, 0, 35, 0
2, 5460, Note_on_c, 0, 45, 119
2, 5460, Note_on_c, 0, 33, 119
2, 5460, Note_on_c, 0, 57, 113
2, 5460, Note_on_c, 0, 61, 116
2, 5460, Note_on_c, 0, 64, 123
2, 5513, Control_c, 0, 64, 127
2, 5513, Control_c, 0, 64, 0
2, 5519, Note_on_c, 0, 33, 0
2, 5519, Note_on_c, 0, 45, 0
2, 5519, Note_on_c, 0, 33, 116
2, 5519, Note_on_c, 0, 45, 116
2, 5524, Control_c, 0, 64, 127
2, 5558, Note_on_c, 0, 61, 0
2, 5558, Note_on_c, 0, 64, 0
2, 5558, Note_on_c, 0, 57, 0
2, 5579, Note_on_c, 0, 69, 123
2, 5580, Note_on_c, 0, 57, 123
2, 5613, Note_on_c, 0, 33, 0
2, 5615, Note_on_c, 0, 45, 0
2, 5632, Note_on_c, 0, 57, 0
2, 5639, Note_on_c, 0, 45, 113
2, 5639, Note_on_c, 0, 33, 113
2, 5639, Note_on_c, 0, 57, 105
2, 5654, Note_on_c, 0, 57, 0
2, 5664, Control_c, 0, 64, 0
2, 5666, Control_c, 0, 64, 127
2, 5668, Control_c, 0, 64, 0
2, 5669, Note_on_c, 0, 57, 123
2, 5695, Control_c, 0, 64, 127
2, 5699, Note_on_c, 0, 33, 0
2, 5717, Note_on_c, 0, 45, 0
2, 5721, Note_on_c, 0, 57, 0
2, 5728, Note_on_c, 0, 33, 114
2, 5729, Note_on_c, 0, 57, 88
2, 5740, Note_on_c, 0, 57, 0
2, 5745, Note_on_c, 0, 33, 0
2, 5753, Note_on_c, 0, 69, 0
2, 5756, Control_c, 0, 64, 0
2, 5758, Note_on_c, 0, 43, 114
2, 5758, Note_on_c, 0, 31, 123
2, 5759, Note_on_c, 0, 67, 119
2, 5759, Note_on_c, 0, 62, 123
2, 5759, Note_on_c, 0, 59, 116
2, 5836, Note_on_c, 0, 59, 0
2, 5838, Note_on_c, 0, 62, 0
2, 5840, Note_on_c, 0, 67, 0
2, 5849, Note_on_c, 0, 67, 121
2, 5849, Note_on_c, 0, 62, 126
2, 5849, Note_on_c, 0, 59, 117
2, 5864, Note_on_c, 0, 43, 0
2, 5879, Note_on_c, 0, 43, 127
2, 5880, Note_on_c, 0, 31, 0
2, 5882, Note_on_c, 0, 59, 0
2, 5883, Note_on_c, 0, 62, 0
2, 5890, Note_on_c, 0, 67, 0
2, 5939, Note_on_c, 0, 66, 127
2, 5939, Note_on_c, 0, 62, 127
2, 5939, Note_on_c, 0, 57, 127
2, 5940, Note_on_c, 0, 43, 0
2, 5998, Note_on_c, 0, 38, 127
2, 5999, Note_on_c, 0, 66, 0
2, 5999, Note_on_c, 0, 57, 0
2, 5999, Note_on_c, 0, 62, 0
2, 6000, Note_on_c, 0, 50, 127
2, 6059, Note_on_c, 0, 38, 0
2, 6061, Note_on_c, 0, 50, 0
2, 6240, Note_on_c, 0, 35, 127
2, 6240, Note_on_c, 0, 62, 127
2, 6240, Note_on_c, 0, 59, 127
2, 6240, Note_on_c, 0, 66, 127
2, 6312, Note_on_c, 0, 59, 0
2, 6312, Note_on_c, 0, 62, 0
2, 6323, Note_on_c, 0, 66, 0
2, 6328, Note_on_c, 0, 64, 126
2, 6328, Note_on_c, 0, 57, 119
2, 6328, Note_on_c, 0, 61, 119
2, 6349, Note_on_c, 0, 57, 0
2, 6351, Note_on_c, 0, 35, 0
2, 6351, Note_on_c, 0, 64, 0
2, 6354, Note_on_c, 0, 61, 0
2, 6361, Note_on_c, 0, 35, 126
2, 6417, Note_on_c, 0, 62, 127
2, 6417, Note_on_c, 0, 66, 127
2, 6417, Note_on_c, 0, 59, 121
2, 6457, Note_on_c, 0, 35, 0
2, 6475, Control_c, 0, 64, 127
2, 6475, Control_c, 0, 64, 0
2, 6477, Note_on_c, 0, 35, 119
2, 6485, Control_c, 0, 64, 127
2, 6524, Note_on_c, 0, 59, 0
2, 6538, Note_on_c, 0, 62, 0
2, 6538, Note_on_c, 0, 66, 0
2, 6539, Note_on_c, 0, 59, 127
2, 6597, Note_on_c, 0, 35, 0
2, 6598, Note_on_c, 0, 47, 126
2, 6624, Note_on_c, 0, 59, 0
2, 6702, Control_c, 0, 64, 0
2, 6706, Control_c, 0, 64, 127
2, 6706, Control_c, 0, 64, 0
2, 6716, Note_on_c, 0, 47, 0
2, 6719, Note_on_c, 0, 35, 123
2, 6719, Note_on_c, 0, 66, 123
2, 6720, Note_on_c, 0, 59, 127
2, 6720, Note_on_c, 0, 62, 127
2, 6741, Control_c, 0, 64, 127
2, 6741, Control_c, 0, 64, 0
2, 6742, Control_c, 0, 64, 127
2, 6742, Control_c, 0, 64, 0
2, 6744, Control_c, 0, 64, 127
2, 6777, Note_on_c, 0, 62, 0
2, 6778, Note_on_c, 0, 59, 0
2, 6789, Note_on_c, 0, 66, 0
2, 6808, Control_c, 0, 64, 0
2, 6809, Note_on_c, 0, 64, 126
2, 6809, Note_on_c, 0, 61, 119
2, 6810, Note_on_c, 0, 57, 117
2, 6821, Note_on_c, 0, 35, 0
2, 6825, Note_on_c, 0, 64, 0
2, 6827, Note_on_c, 0, 61, 0
2, 6828, Note_on_c, 0, 57, 0
2, 6839, Note_on_c, 0, 35, 123
2, 6899, Note_on_c, 0, 66, 121
2, 6899, Note_on_c, 0, 59, 118
2, 6900, Note_on_c, 0, 62, 127
2, 6903, Control_c, 0, 64, 127
2, 6932, Note_on_c, 0, 35, 0
2, 6958, Note_on_c, 0, 35, 123
2, 6985, Note_on_c, 0, 59, 0
2, 7014, Note_on_c, 0, 62, 0
2, 7014, Note_on_c, 0, 66, 0
2, 7017, Note_on_c, 0, 59, 127
2, 7076, Note_on_c, 0, 35, 0
2, 7078, Note_on_c, 0, 47, 127
2, 7079, Note_on_c, 0, 59, 0
2, 7108, Note_on_c, 0, 59, 127
2, 7161, Note_on_c, 0, 47, 0
2, 7162, Note_on_c, 0, 59, 0
2, 7169, Note_on_c, 0, 47, 111
2, 7170, Note_on_c, 0, 59, 127
2, 7173, Control_c, 0, 64, 0
2, 7191, Note_on_c, 0, 47, 0
2, 7196, Note_on_c, 0, 59, 0
2, 7200, Note_on_c, 0, 52, 127
2, 7200, Note_on_c, 0, 40, 121
2, 7200, Note_on_c, 0, 59, 123
2, 7200, Note_on_c, 0, 67, 121
2, 7200, Note_on_c, 0, 62, 121
2, 7221, Control_c, 0, 64, 127
2, 7221, Control_c, 0, 64, 0
2, 7230, Control_c, 0, 64, 127
2, 7261, Note_on_c, 0, 52, 0
2, 7276, Note_on_c, 0, 59, 0
2, 7278, Note_on_c, 0, 62, 0
2, 7278, Note_on_c, 0, 67, 0
2, 7290, Note_on_c, 0, 62, 118
2, 7291, Note_on_c, 0, 67, 118
2, 7291, Note_on_c, 0, 59, 114
2, 7321, Note_on_c, 0, 52, 123
2, 7327, Note_on_c, 0, 40, 0
2, 7336, Note_on_c, 0, 52, 0
2, 7353, Note_on_c, 0, 62, 0
2, 7362, Note_on_c, 0, 59, 0
2, 7363, Note_on_c, 0, 67, 0
2, 7378, Note_on_c, 0, 62, 119
2, 7393, Note_on_c, 0, 62, 0
2, 7429, Control_c, 0, 64, 0
2, 7433, Control_c, 0, 64, 127
2, 7434, Control_c, 0, 64, 0
2, 7438, Note_on_c, 0, 57, 123
2, 7438, Note_on_c, 0, 62, 127
2, 7438, Note_on_c, 0, 54, 123
2, 7438, Note_on_c, 0, 69, 123
2, 7438, Note_on_c, 0, 42, 118
2, 7458, Control_c, 0, 64, 127
2, 7458, Control_c, 0, 64, 0
2, 7465, Control_c, 0, 64, 127
2, 7470, Control_c, 0, 64, 0
2, 7481, Control_c, 0, 64, 127
2, 7500, Note_on_c, 0, 54, 0
2, 7518, Note_on_c, 0, 57, 0
2, 7518, Note_on_c, 0, 62, 0
2, 7521, Note_on_c, 0, 69, 0
2, 7530, Note_on_c, 0, 62, 127
2, 7530, Note_on_c, 0, 57, 118
2, 7530, Note_on_c, 0, 69, 118
2, 7559, Note_on_c, 0, 54, 123
2, 7572, Note_on_c, 0, 42, 0
2, 7575, Note_on_c, 0, 54, 0
2, 7585, Note_on_c, 0, 62, 0
2, 7608, Note_on_c, 0, 69, 0
2, 7612, Note_on_c, 0, 57, 0
2, 7619, Note_on_c, 0, 62, 119
2, 7632, Note_on_c, 0, 62, 0
2, 7663, Control_c, 0, 64, 0
2, 7668, Control_c, 0, 64, 127
2, 7669, Control_c, 0, 64, 0
2, 7678, Note_on_c, 0, 71, 126
2, 7678, Note_on_c, 0, 62, 123
2, 7679, Note_on_c, 0, 43, 126
2, 7679, Note_on_c, 0, 55, 119
2, 7698, Control_c, 0, 64, 127
2, 7722, Note_on_c, 0, 55, 0
2, 7727, Note_on_c, 0, 62, 0
2, 7738, Note_on_c, 0, 62, 97
2, 7747, Note_on_c, 0, 71, 0
2, 7762, Note_on_c, 0, 62, 0
2, 7767, Note_on_c, 0, 43, 0
2, 7769, Note_on_c, 0, 55, 123
2, 7769, Note_on_c, 0, 71, 123
2, 7784, Note_on_c, 0, 55, 0
2, 7829, Note_on_c, 0, 62, 84
2, 7837, Note_on_c, 0, 71, 0
2, 7846, Note_on_c, 0, 62, 0
2, 7856, Note_on_c, 0, 55, 127
2, 7858, Note_on_c, 0, 71, 123
2, 7869, Note_on_c, 0, 55, 0
2, 7874, Note_on_c, 0, 71, 0
2, 7905, Control_c, 0, 64, 0
2, 7918, Note_on_c, 0, 55, 127
2, 7918, Note_on_c, 0, 45, 127
2, 7918, Note_on_c, 0, 59, 127
2, 7918, Note_on_c, 0, 62, 127
2, 7918, Note_on_c, 0, 69, 127
2, 7956, Note_on_c, 0, 59, 0
2, 7957, Note_on_c, 0, 62, 0
2, 7966, Note_on_c, 0, 69, 0
2, 7972, Note_on_c, 0, 45, 0
2, 7975, Note_on_c, 0, 55, 0
2, 8160, Note_on_c, 0, 38, 127
2, 8160, Note_on_c, 0, 66, 121
2, 8160, Note_on_c, 0, 62, 123
2, 8160, Note_on_c, 0, 57, 117
2, 8199, Note_on_c, 0, 57, 0
2, 8201, Note_on_c, 0, 66, 0
2, 8202, Note_on_c, 0, 62, 0
2, 8248, Note_on_c, 0, 38, 0
2, 8250, Note_on_c, 0, 66, 123
2, 8250, Note_on_c, 0, 57, 113
2, 8250, Note_on_c, 0, 62, 126
2, 8279, Note_on_c, 0, 38, 126
2, 8280, Note_on_c, 0, 62, 0
2, 8283, Note_on_c, 0, 66, 0
2, 8283, Note_on_c, 0, 57, 0
2, 8340, Note_on_c, 0, 67, 121
2, 8340, Note_on_c, 0, 59, 113
2, 8340, Note_on_c, 0, 62, 121
2, 8377, Note_on_c, 0, 38, 0
2, 8399, Note_on_c, 0, 38, 123
2, 8447, Note_on_c, 0, 62, 0
2, 8455, Note_on_c, 0, 59, 0
2, 8460, Note_on_c, 0, 62, 127
2, 8497, Note_on_c, 0, 38, 0
2, 8506, Note_on_c, 0, 62, 0
2, 8519, Note_on_c, 0, 38, 119
2, 8549, Note_on_c, 0, 62, 127
2, 8563, Note_on_c, 0, 67, 0
2, 8593, Note_on_c, 0, 62, 0
2, 8609, Note_on_c, 0, 62, 116
2, 8620, Note_on_c, 0, 38, 0
2, 8635, Note_on_c, 0, 62, 0
2, 8639, Note_on_c, 0, 62, 123
2, 8639, Note_on_c, 0, 57, 121
2, 8639, Note_on_c, 0, 66, 119
2, 8639, Note_on_c, 0, 38, 121
2, 8717, Note_on_c, 0, 66, 0
2, 8717, Note_on_c, 0, 57, 0
2, 8718, Note_on_c, 0, 62, 0
2, 8730, Note_on_c, 0, 67, 116
2, 8730, Note_on_c, 0, 62, 126
2, 8730, Note_on_c, 0, 59, 108
2, 8737, Note_on_c, 0, 38, 0
2, 8758, Note_on_c, 0, 62, 0
2, 8759, Note_on_c, 0, 38, 123
2, 8760, Note_on_c, 0, 59, 0
2, 8767, Note_on_c, 0, 67, 0
2, 8819, Note_on_c, 0, 66, 110
2, 8819, Note_on_c, 0, 62, 119
2, 8819, Note_on_c, 0, 57, 111
2, 8854, Note_on_c, 0, 38, 0
2, 8879, Note_on_c, 0, 38, 126
2, 8926, Note_on_c, 0, 57, 0
2, 8940, Note_on_c, 0, 57, 123
2, 9000, Note_on_c, 0, 50, 123
2, 9046, Note_on_c, 0, 38, 0
2, 9060, Note_on_c, 0, 50, 0
2, 9062, Note_on_c, 0, 38, 126
2, 9089, Note_on_c, 0, 66, 0
2, 9089, Note_on_c, 0, 62, 0
2, 9093, Note_on_c, 0, 57, 0
2, 9113, Note_on_c, 0, 38, 0
2, 9120, Note_on_c, 0, 59, 118
2, 9120, Note_on_c, 0, 35, 126
2, 9120, Note_on_c, 0, 47, 119
2, 9120, Note_on_c, 0, 66, 126
2, 9120, Note_on_c, 0, 62, 127
2, 9201, Note_on_c, 0, 59, 0
2, 9205, Note_on_c, 0, 66, 0
2, 9205, Note_on_c, 0, 62, 0
2, 9210, Note_on_c, 0, 59, 107
2, 9210, Note_on_c, 0, 62, 114
2, 9210, Note_on_c, 0, 66, 116
2, 9223, Note_on_c, 0, 47, 0
2, 9224, Note_on_c, 0, 35, 0
2, 9238, Note_on_c, 0, 62, 0
2, 9240, Note_on_c, 0, 35, 116
2, 9240, Note_on_c, 0, 47, 119
2, 9241, Note_on_c, 0, 59, 0
2, 9242, Note_on_c, 0, 66, 0
2, 9287, Note_on_c, 0, 47, 0
2, 9290, Note_on_c, 0, 35, 0
2, 9300, Note_on_c, 0, 33, 116
2, 9300, Note_on_c, 0, 57, 113
2, 9300, Note_on_c, 0, 45, 119
2, 9300, Note_on_c, 0, 61, 116
2, 9300, Note_on_c, 0, 64, 123
2, 9347, Note_on_c, 0, 45, 0
2, 9350, Note_on_c, 0, 33, 0
2, 9353, Control_c, 0, 64, 127
2, 9353, Control_c, 0, 64, 0
2, 9359, Note_on_c, 0, 33, 116
2, 9359, Note_on_c, 0, 45, 116
2, 9364, Control_c, 0, 64, 127
2, 9398, Note_on_c, 0, 57, 0
2, 9398, Note_on_c, 0, 64, 0
2, 9398, Note_on_c, 0, 61, 0
2, 9419, Note_on_c, 0, 69, 127
2, 9453, Note_on_c, 0, 69, 0
2, 9453, Note_on_c, 0, 33, 0
2, 9455, Note_on_c, 0, 45, 0
2, 9479, Note_on_c, 0, 45, 113
2, 9479, Note_on_c, 0, 33, 113
2, 9479, Note_on_c, 0, 57, 127
2, 9494, Note_on_c, 0, 57, 0
2, 9504, Control_c, 0, 64, 0
2, 9506, Control_c, 0, 64, 127
2, 9508, Control_c, 0, 64, 0
2, 9509, Note_on_c, 0, 57, 107
2, 9535, Control_c, 0, 64, 127
2, 9539, Note_on_c, 0, 33, 0
2, 9557, Note_on_c, 0, 45, 0
2, 9561, Note_on_c, 0, 57, 0
2, 9568, Note_on_c, 0, 33, 114
2, 9569, Note_on_c, 0, 57, 88
2, 9580, Note_on_c, 0, 57, 0
2, 9585, Note_on_c, 0, 33, 0
2, 9596, Control_c, 0, 64, 0
2, 9598, Note_on_c, 0, 43, 114
2, 9599, Note_on_c, 0, 67, 119
2, 9599, Note_on_c, 0, 62, 123
2, 9599, Note_on_c, 0, 59, 116
2, 9676, Note_on_c, 0, 59, 0
2, 9678, Note_on_c, 0, 62, 0
2, 9680, Note_on_c, 0, 67, 0
2, 9689, Note_on_c, 0, 67, 121
2, 9689, Note_on_c, 0, 62, 126
2, 9689, Note_on_c, 0, 59, 117
2, 9704, Note_on_c, 0, 43, 0
2, 9720, Note_on_c, 0, 31, 123
2, 9722, Note_on_c, 0, 59, 0
2, 9723, Note_on_c, 0, 62, 0
2, 9730, Note_on_c, 0, 67, 0
2, 9779, Note_on_c, 0, 31, 0
2, 9779, Note_on_c, 0, 66, 127
2, 9779, Note_on_c, 0, 62, 127
2, 9779, Note_on_c, 0, 57, 127
2, 9783, Note_on_c, 0, 50, 127
2, 9838, Note_on_c, 0, 26, 127
2, 9842, Note_on_c, 0, 38, 127
2, 9844, Note_on_c, 0, 50, 0
2, 9884, Note_on_c, 0, 57, 0
2, 9888, Note_on_c, 0, 62, 0
2, 9890, Note_on_c, 0, 66, 0
2, 9903, Note_on_c, 0, 57, 127
2, 9949, Note_on_c, 0, 26, 0
2, 9950, Note_on_c, 0, 38, 0
2, 9955, Note_on_c, 0, 57, 0
2, 9961, Note_on_c, 0, 62, 127
2, 9962, Note_on_c, 0, 38, 127
2, 9966, Note_on_c, 0, 50, 127
2, 10013, Note_on_c, 0, 62, 0
2, 10019, Note_on_c, 0, 66, 127
2, 10071, Note_on_c, 0, 66, 0
2, 10073, Note_on_c, 0, 38, 0
2, 10074, Note_on_c, 0, 50, 0
2, 10080, Note_on_c, 0, 59, 118
2, 10080, Note_on_c, 0, 35, 126
2, 10080, Note_on_c, 0, 47, 119
2, 10080, Note_on_c, 0, 66, 126
2, 10080, Note_on_c, 0, 62, 127
2, 10161, Note_on_c, 0, 59, 0
2, 10165, Note_on_c, 0, 66, 0
2, 10165, Note_on_c, 0, 62, 0
2, 10170, Note_on_c, 0, 59, 107
2, 10170, Note_on_c, 0, 62, 114
2, 10170, Note_on_c, 0, 66, 116
2, 10183, Note_on_c, 0, 47, 0
2, 10184, Note_on_c, 0, 35, 0
2, 10198, Note_on_c, 0, 62, 0
2, 10200, Note_on_c, 0, 35, 116
2, 10200, Note_on_c, 0, 47, 119
2, 10201, Note_on_c, 0, 59, 0
2, 10202, Note_on_c, 0, 66, 0
2, 10247, Note_on_c, 0, 47, 0
2, 10250, Note_on_c, 0, 35, 0
2, 10260, Note_on_c, 0, 57, 113
2, 10260, Note_on_c, 0, 45, 119
2, 10260, Note_on_c, 0, 61, 116
2, 10260, Note_on_c, 0, 64, 123
2, 10307, Note_on_c, 0, 45, 0
2, 10313, Control_c, 0, 64, 127
2, 10313, Control_c, 0, 64, 0
2, 10319, Note_on_c, 0, 33, 116
2, 10324, Control_c, 0, 64, 127
2, 10358, Note_on_c, 0, 57, 0
2, 10358, Note_on_c, 0, 64, 0
2, 10358, Note_on_c, 0, 61, 0
2, 10379, Note_on_c, 0, 69, 127
2, 10413, Note_on_c, 0, 33, 0
2, 10439, Note_on_c, 0, 45, 113
2, 10439, Note_on_c, 0, 33, 113
2, 10464, Control_c, 0, 64, 0
2, 10466, Control_c, 0, 64, 127
2, 10468, Control_c, 0, 64, 0
2, 10469, Note_on_c, 0, 57, 118
2, 10495, Control_c, 0, 64, 127
2, 10499, Note_on_c, 0, 33, 0
2, 10500, Note_on_c, 0, 69, 0
2, 10517, Note_on_c, 0, 45, 0
2, 10521, Note_on_c, 0, 57, 0
2, 10528, Note_on_c, 0, 33, 114
2, 10529, Note_on_c, 0, 57, 88
2, 10540, Note_on_c, 0, 57, 0
2, 10545, Note_on_c, 0, 33, 0
2, 10556, Control_c, 0, 64, 0
2, 10558, Note_on_c, 0, 43, 114
2, 10559, Note_on_c, 0, 67, 119
2, 10559, Note_on_c, 0, 62, 123
2, 10559, Note_on_c, 0, 59, 116
2, 10636, Note_on_c, 0, 59, 0
2, 10638, Note_on_c, 0, 62, 0
2, 10640, Note_on_c, 0, 67, 0
2, 10649, Note_on_c, 0, 67, 121
2, 10649, Note_on_c, 0, 62, 126
2, 10649, Note_on_c, 0, 59, 117
2, 10664, Note_on_c, 0, 43, 0
2, 10680, Note_on_c, 0, 31, 123
2, 10682, Note_on_c, 0, 59, 0
2, 10683, Note_on_c, 0, 62, 0
2, 10690, Note_on_c, 0, 67, 0
2, 10739, Note_on_c, 0, 66, 127
2, 10739, Note_on_c, 0, 62, 127
2, 10739, Note_on_c, 0, 57, 127
2, 10780, Note_on_c, 0, 31, 0
2, 10802, Note_on_c, 0, 50, 127
2, 10802, Note_on_c, 0, 38, 127
2, 10910, Note_on_c, 0, 38, 0
2, 10913, Note_on_c, 0, 50, 0
2, 10926, Note_on_c, 0, 50, 127
2, 11026, Note_on_c, 0, 66, 0
2, 11032, Note_on_c, 0, 62, 0
2, 11034, Note_on_c, 0, 50, 0
2, 11035, Note_on_c, 0, 57, 0
2, 11039, Note_on_c, 0, 50, 127
2, 11039, Note_on_c, 0, 62, 127
2, 11064, Note_on_c, 0, 62, 0
2, 11064, Note_on_c, 0, 50, 0
2, 11100, Note_on_c, 0, 48, 126
2, 11100, Note_on_c, 0, 60, 126
2, 11125, Note_on_c, 0, 60, 0
2, 11125, Note_on_c, 0, 48, 0
2, 11160, Note_on_c, 0, 45, 125
2, 11160, Note_on_c, 0, 57, 125
2, 11190, Note_on_c, 0, 57, 0
2, 11190, Note_on_c, 0, 45, 0
2, 11220, Note_on_c, 0, 44, 125
2, 11220, Note_on_c, 0, 56, 125
2, 11244, Note_on_c, 0, 56, 0
2, 11244, Note_on_c, 0, 44, 0
2, 11250, Note_on_c, 0, 43, 125
2, 11250, Note_on_c, 0, 55, 125
2, 11331, Note_on_c, 0, 55, 0
2, 11331, Note_on_c, 0, 43, 0
2, 11339, Note_on_c, 0, 41, 123
2, 11339, Note_on_c, 0, 53, 123
2, 11399, Note_on_c, 0, 53, 0
2, 11399, Note_on_c, 0, 41, 0
2, 11400, Note_on_c, 0, 38, 122
2, 11400, Note_on_c, 0, 50, 122
2, 11438, Note_on_c, 0, 50, 0
2, 11438, Note_on_c, 0, 38, 0
2, 11459, Note_on_c, 0, 33, 122
2, 11459, Note_on_c, 0, 45, 122
2, 11484, Note_on_c, 0, 45, 0
2, 11484, Note_on_c, 0, 33, 0
2, 11520, Note_on_c, 0, 32, 122
2, 11520, Note_on_c, 0, 44, 122
2, 11552, Note_on_c, 0, 44, 0
2, 11552, Note_on_c, 0, 32, 0
2, 11579, Note_on_c, 0, 31, 122
2, 11579, Note_on_c, 0, 43, 122
2, 11609, Note_on_c, 0, 43, 0
2, 11609, Note_on_c, 0, 31, 0
2, 11639, Note_on_c, 0, 29, 122
2, 11639, Note_on_c, 0, 41, 122
2, 11662, Note_on_c, 0, 41, 0
2, 11662, Note_on_c, 0, 29, 0
2, 11670, Note_on_c, 0, 26, 122
2, 11670, Note_on_c, 0, 38, 122
2, 11758, Note_on_c, 0, 38, 0
2, 11758, Note_on_c, 0, 26, 0
2, 11759, Note_on_c, 0, 26, 113
2, 11759, Note_on_c, 0, 38, 127
2, 11759, Note_on_c, 0, 50, 127
2, 11808, Note_on_c, 0, 50, 0
2, 11808, Note_on_c, 0, 38, 0
2, 11808, Note_on_c, 0, 26, 0
2, 12000, Note_on_c, 0, 38, 127
2, 12000, Note_on_c, 0, 66, 121
2, 12000, Note_on_c, 0, 62, 123
2, 12000, Note_on_c, 0, 57, 117
2, 12039, Note_on_c, 0, 57, 0
2, 12041, Note_on_c, 0, 66, 0
2, 12042, Note_on_c, 0, 62, 0
2, 12057, Note_on_c, 0, 38, 0
2, 12090, Note_on_c, 0, 66, 123
2, 12090, Note_on_c, 0, 57, 113
2, 12090, Note_on_c, 0, 62, 126
2, 12119, Note_on_c, 0, 38, 126
2, 12120, Note_on_c, 0, 62, 0
2, 12123, Note_on_c, 0, 66, 0
2, 12123, Note_on_c, 0, 57, 0
2, 12180, Note_on_c, 0, 38, 0
2, 12180, Note_on_c, 0, 67, 121
2, 12180, Note_on_c, 0, 59, 113
2, 12180, Note_on_c, 0, 62, 121
2, 12239, Note_on_c, 0, 38, 123
2, 12287, Note_on_c, 0, 62, 0
2, 12295, Note_on_c, 0, 59, 0
2, 12300, Note_on_c, 0, 62, 127
2, 12306, Note_on_c, 0, 38, 0
2, 12346, Note_on_c, 0, 62, 0
2, 12359, Note_on_c, 0, 38, 119
2, 12389, Note_on_c, 0, 62, 127
2, 12403, Note_on_c, 0, 67, 0
2, 12432, Note_on_c, 0, 38, 0
2, 12433, Note_on_c, 0, 62, 0
2, 12449, Note_on_c, 0, 62, 116
2, 12475, Note_on_c, 0, 62, 0
2, 12479, Note_on_c, 0, 62, 123
2, 12479, Note_on_c, 0, 57, 121
2, 12479, Note_on_c, 0, 66, 119
2, 12479, Note_on_c, 0, 38, 121
2, 12546, Note_on_c, 0, 38, 0
2, 12557, Note_on_c, 0, 66, 0
2, 12557, Note_on_c, 0, 57, 0
2, 12558, Note_on_c, 0, 62, 0
2, 12570, Note_on_c, 0, 67, 116
2, 12570, Note_on_c, 0, 62, 126
2, 12570, Note_on_c, 0, 59, 108
2, 12598, Note_on_c, 0, 62, 0
2, 12599, Note_on_c, 0, 38, 123
2, 12600, Note_on_c, 0, 59, 0
2, 12607, Note_on_c, 0, 67, 0
2, 12659, Note_on_c, 0, 38, 0
2, 12659, Note_on_c, 0, 66, 110
2, 12659, Note_on_c, 0, 62, 119
2, 12659, Note_on_c, 0, 57, 111
2, 12719, Note_on_c, 0, 38, 126
2, 12766, Note_on_c, 0, 57, 0
2, 12780, Note_on_c, 0, 57, 123
2, 12886, Note_on_c, 0, 38, 0
2, 12899, Note_on_c, 0, 38, 126
2, 12929, Note_on_c, 0, 66, 0
2, 12929, Note_on_c, 0, 62, 0
2, 12931, Note_on_c, 0, 38, 0
2, 12933, Note_on_c, 0, 57, 0
2, 12960, Note_on_c, 0, 59, 118
2, 12960, Note_on_c, 0, 35, 126
2, 12960, Note_on_c, 0, 47, 119
2, 12960, Note_on_c, 0, 66, 126
2, 12960, Note_on_c, 0, 62, 127
2, 13041, Note_on_c, 0, 59, 0
2, 13045, Note_on_c, 0, 66, 0
2, 13045, Note_on_c, 0, 62, 0
2, 13050, Note_on_c, 0, 59, 107
2, 13050, Note_on_c, 0, 62, 114
2, 13050, Note_on_c, 0, 66, 116
2, 13063, Note_on_c, 0, 47, 0
2, 13064, Note_on_c, 0, 35, 0
2, 13078, Note_on_c, 0, 62, 0
2, 13080, Note_on_c, 0, 35, 116
2, 13080, Note_on_c, 0, 47, 119
2, 13081, Note_on_c, 0, 59, 0
2, 13082, Note_on_c, 0, 66, 0
2, 13127, Note_on_c, 0, 47, 0
2, 13130, Note_on_c, 0, 35, 0
2, 13140, Note_on_c, 0, 57, 113
2, 13140, Note_on_c, 0, 61, 116
2, 13140, Note_on_c, 0, 64, 123
2, 13193, Control_c, 0, 64, 127
2, 13193, Control_c, 0, 64, 0
2, 13199, Note_on_c, 0, 33, 116
2, 13199, Note_on_c, 0, 45, 116
2, 13204, Control_c, 0, 64, 127
2, 13238, Note_on_c, 0, 64, 0
2, 13238, Note_on_c, 0, 57, 0
2, 13238, Note_on_c, 0, 61, 0
2, 13259, Note_on_c, 0, 69, 127
2, 13293, Note_on_c, 0, 69, 0
2, 13293, Note_on_c, 0, 33, 0
2, 13295, Note_on_c, 0, 45, 0
2, 13319, Note_on_c, 0, 45, 113
2, 13319, Note_on_c, 0, 33, 113
2, 13319, Note_on_c, 0, 57, 127
2, 13334, Note_on_c, 0, 57, 0
2, 13344, Control_c, 0, 64, 0
2, 13346, Control_c, 0, 64, 127
2, 13348, Control_c, 0, 64, 0
2, 13349, Note_on_c, 0, 57, 107
2, 13375, Control_c, 0, 64, 127
2, 13379, Note_on_c, 0, 33, 0
2, 13397, Note_on_c, 0, 45, 0
2, 13401, Note_on_c, 0, 57, 0
2, 13408, Note_on_c, 0, 33, 114
2, 13409, Note_on_c, 0, 57, 88
2, 13420, Note_on_c, 0, 57, 0
2, 13425, Note_on_c, 0, 33, 0
2, 13436, Control_c, 0, 64, 0
2, 13438, Note_on_c, 0, 43, 114
2, 13438, Note_on_c, 0, 31, 123
2, 13439, Note_on_c, 0, 67, 119
2, 13439, Note_on_c, 0, 62, 123
2, 13439, Note_on_c, 0, 59, 116
2, 13516, Note_on_c, 0, 59, 0
2, 13518, Note_on_c, 0, 62, 0
2, 13520, Note_on_c, 0, 67, 0
2, 13529, Note_on_c, 0, 67, 121
2, 13529, Note_on_c, 0, 62, 126
2, 13529, Note_on_c, 0, 59, 117
2, 13544, Note_on_c, 0, 43, 0
2, 13559, Note_on_c, 0, 43, 127
2, 13560, Note_on_c, 0, 31, 0
2, 13562, Note_on_c, 0, 59, 0
2, 13563, Note_on_c, 0, 62, 0
2, 13570, Note_on_c, 0, 67, 0
2, 13619, Note_on_c, 0, 66, 127
2, 13619, Note_on_c, 0, 62, 127
2, 13619, Note_on_c, 0, 57, 127
2, 13620, Note_on_c, 0, 43, 0
2, 13678, Note_on_c, 0, 38, 127
2, 13679, Note_on_c, 0, 66, 0
2, 13679, Note_on_c, 0, 57, 0
2, 13679, Note_on_c, 0, 62, 0
2, 13739, Note_on_c, 0, 38, 0
2, 13740, Note_on_c, 0, 62, 127
2, 13800, Note_on_c, 0, 38, 127
2, 13823, Note_on_c, 0, 62, 0
2, 13830, Note_on_c, 0, 62, 126
2, 13830, Note_on_c, 0, 66, 119
2, 13830, Note_on_c, 0, 69, 126
2, 13861, Note_on_c, 0, 38, 0
2, 13920, Note_on_c, 0, 62, 0
2, 13920, Note_on_c, 0, 66, 0
2, 13920, Note_on_c, 0, 69, 0
2, 13920, Note_on_c, 0, 38, 127
2, 13920, Note_on_c, 0, 66, 121
2, 13920, Note_on_c, 0, 62, 123
2, 13920, Note_on_c, 0, 57, 117
2, 13959, Note_on_c, 0, 57, 0
2, 13961, Note_on_c, 0, 66, 0
2, 13962, Note_on_c, 0, 62, 0
2, 14010, Note_on_c, 0, 66, 123
2, 14010, Note_on_c, 0, 57, 113
2, 14010, Note_on_c, 0, 62, 126
2, 14020, Note_on_c, 0, 38, 0
2, 14039, Note_on_c, 0, 38, 126
2, 14040, Note_on_c, 0, 62, 0
2, 14043, Note_on_c, 0, 66, 0
2, 14043, Note_on_c, 0, 57, 0
2, 14100, Note_on_c, 0, 67, 121
2, 14100, Note_on_c, 0, 59, 113
2, 14100, Note_on_c, 0, 62, 121
2, 14141, Note_on_c, 0, 38, 0
2, 14159, Note_on_c, 0, 38, 123
2, 14207, Note_on_c, 0, 62, 0
2, 14220, Note_on_c, 0, 62, 119
2, 14279, Note_on_c, 0, 50, 127
2, 14291, Note_on_c, 0, 62, 0
2, 14309, Note_on_c, 0, 62, 126
2, 14350, Note_on_c, 0, 62, 0
2, 14354, Note_on_c, 0, 38, 0
2, 14365, Note_on_c, 0, 50, 0
2, 14369, Note_on_c, 0, 62, 92
2, 14370, Note_on_c, 0, 50, 113
2, 14376, Note_on_c, 0, 67, 0
2, 14384, Note_on_c, 0, 59, 0
2, 14395, Note_on_c, 0, 62, 0
2, 14399, Note_on_c, 0, 62, 123
2, 14399, Note_on_c, 0, 57, 121
2, 14399, Note_on_c, 0, 66, 119
2, 14399, Note_on_c, 0, 38, 121
2, 14403, Note_on_c, 0, 50, 0
2, 14477, Note_on_c, 0, 66, 0
2, 14477, Note_on_c, 0, 57, 0
2, 14478, Note_on_c, 0, 62, 0
2, 14490, Note_on_c, 0, 67, 116
2, 14490, Note_on_c, 0, 62, 126
2, 14490, Note_on_c, 0, 59, 108
2, 14503, Note_on_c, 0, 38, 0
2, 14518, Note_on_c, 0, 62, 0
2, 14519, Note_on_c, 0, 38, 123
2, 14520, Note_on_c, 0, 59, 0
2, 14527, Note_on_c, 0, 67, 0
2, 14579, Note_on_c, 0, 66, 110
2, 14579, Note_on_c, 0, 62, 119
2, 14579, Note_on_c, 0, 57, 111
2, 14623, Note_on_c, 0, 38, 0
2, 14639, Note_on_c, 0, 38, 126
2, 14700, Note_on_c, 0, 50, 123
2, 14751, Note_on_c, 0, 38, 0
2, 14760, Note_on_c, 0, 50, 0
2, 14760, Note_on_c, 0, 38, 123
2, 14820, Note_on_c, 0, 50, 123
2, 14849, Note_on_c, 0, 57, 0
2, 14849, Note_on_c, 0, 66, 0
2, 14849, Note_on_c, 0, 62, 0
2, 14864, Note_on_c, 0, 38, 0
2, 14880, Note_on_c, 0, 50, 0
2, 14880, Note_on_c, 0, 59, 118
2, 14880, Note_on_c, 0, 35, 126
2, 14880, Note_on_c, 0, 47, 119
2, 14880, Note_on_c, 0, 66, 126
2, 14880, Note_on_c, 0, 62, 127
2, 14961, Note_on_c, 0, 59, 0
2, 14965, Note_on_c, 0, 66, 0
2, 14965, Note_on_c, 0, 62, 0
2, 14970, Note_on_c, 0, 59, 107
2, 14970, Note_on_c, 0, 62, 114
2, 14970, Note_on_c, 0, 66, 116
2, 14983, Note_on_c, 0, 47, 0
2, 14984, Note_on_c, 0, 35, 0
2, 14998, Note_on_c, 0, 62, 0
2, 15000, Note_on_c, 0, 35, 116
2, 15000, Note_on_c, 0, 47, 119
2, 15001, Note_on_c, 0, 59, 0
2, 15002, Note_on_c, 0, 66, 0
2, 15047, Note_on_c, 0, 47, 0
2, 15050, Note_on_c, 0, 35, 0
2, 15060, Note_on_c, 0, 45, 119
2, 15060, Note_on_c, 0, 33, 119
2, 15060, Note_on_c, 0, 57, 113
2, 15060, Note_on_c, 0, 61, 116
2, 15060, Note_on_c, 0, 64, 123
2, 15113, Control_c, 0, 64, 127
2, 15113, Control_c, 0, 64, 0
2, 15119, Note_on_c, 0, 33, 0
2, 15119, Note_on_c, 0, 45, 0
2, 15119, Note_on_c, 0, 33, 116
2, 15119, Note_on_c, 0, 45, 116
2, 15124, Control_c, 0, 64, 127
2, 15158, Note_on_c, 0, 61, 0
2, 15158, Note_on_c, 0, 64, 0
2, 15158, Note_on_c, 0, 57, 0
2, 15179, Note_on_c, 0, 69, 123
2, 15180, Note_on_c, 0, 57, 123
2, 15213, Note_on_c, 0, 33, 0
2, 15215, Note_on_c, 0, 45, 0
2, 15232, Note_on_c, 0, 57, 0
2, 15239, Note_on_c, 0, 45, 113
2, 15239, Note_on_c, 0, 33, 113
2, 15239, Note_on_c, 0, 57, 105
2, 15254, Note_on_c, 0, 57, 0
2, 15264, Control_c, 0, 64, 0
2, 15266, Control_c, 0, 64, 127
2, 15268, Control_c, 0, 64, 0
2, 15269, Note_on_c, 0, 57, 123
2, 15295, Control_c, 0, 64, 127
2, 15299, Note_on_c, 0, 33, 0
2, 15317, Note_on_c, 0, 45, 0
2, 15321, Note_on_c, 0, 57, 0
2, 15328, Note_on_c, 0, 33, 114
2, 15329, Note_on_c, 0, 57, 88
2, 15340, Note_on_c, 0, 57, 0
2, 15345, Note_on_c, 0, 33, 0
2, 15353, Note_on_c, 0, 69, 0
2, 15356, Control_c, 0, 64, 0
2, 15358, Note_on_c, 0, 43, 114
2, 15358, Note_on_c, 0, 31, 123
2, 15359, Note_on_c, 0, 67, 119
2, 15359, Note_on_c, 0, 62, 123
2, 15359, Note_on_c, 0, 59, 116
2, 15436, Note_on_c, 0, 59, 0
2, 15438, Note_on_c, 0, 62, 0
2, 15440, Note_on_c, 0, 67, 0
2, 15449, Note_on_c, 0, 67, 121
2, 15449, Note_on_c, 0, 62, 126
2, 15449, Note_on_c, 0, 59, 117
2, 15464, Note_on_c, 0, 43, 0
2, 15479, Note_on_c, 0, 43, 127
2, 15480, Note_on_c, 0, 31, 0
2, 15482, Note_on_c, 0, 59, 0
2, 15483, Note_on_c, 0, 62, 0
2, 15490, Note_on_c, 0, 67, 0
2, 15539, Note_on_c, 0, 66, 127
2, 15539, Note_on_c, 0, 62, 127
2, 15539, Note_on_c, 0, 57, 127
2, 15540, Note_on_c, 0, 43, 0
2, 15598, Note_on_c, 0, 38, 127
2, 15599, Note_on_c, 0, 66, 0
2, 15599, Note_on_c, 0, 57, 0
2, 15599, Note_on_c, 0, 62, 0
2, 15600, Note_on_c, 0, 50, 127
2, 15602, Note_on_c, 0, 59, 116
2, 15603, Note_on_c, 0, 71, 121
2, 15618, Control_c, 0, 64, 127
2, 15619, Control_c, 0, 64, 0
2, 15624, Control_c, 0, 64, 127
2, 15642, Note_on_c, 0, 59, 0
2, 15646, Note_on_c, 0, 71, 0
2, 15659, Note_on_c, 0, 38, 0
2, 15661, Note_on_c, 0, 50, 0
2, 15667, Note_on_c, 0, 59, 117
2, 15667, Note_on_c, 0, 71, 123
2, 15689, Note_on_c, 0, 59, 0
2, 15690, Note_on_c, 0, 71, 0
2, 15720, Note_on_c, 0, 50, 127
2, 15781, Note_on_c, 0, 50, 0
2, 15789, Control_c, 0, 64, 0
2, 15792, Control_c, 0, 64, 127
2, 15792, Control_c, 0, 64, 0
2, 15840, Note_on_c, 0, 35, 127
2, 15840, Note_on_c, 0, 62, 127
2, 15840, Note_on_c, 0, 59, 127
2, 15840, Note_on_c, 0, 66, 127
2, 15912, Note_on_c, 0, 59, 0
2, 15912, Note_on_c, 0, 62, 0
2, 15923, Note_on_c, 0, 66, 0
2, 15928, Note_on_c, 0, 64, 126
2, 15928, Note_on_c, 0, 57, 119
2, 15928, Note_on_c, 0, 61, 119
2, 15949, Note_on_c, 0, 57, 0
2, 15951, Note_on_c, 0, 35, 0
2, 15951, Note_on_c, 0, 64, 0
2, 15954, Note_on_c, 0, 61, 0
2, 15961, Note_on_c, 0, 35, 126
2, 16017, Note_on_c, 0, 62, 127
2, 16017, Note_on_c, 0, 66, 127
2, 16017, Note_on_c, 0, 59, 121
2, 16057, Note_on_c, 0, 35, 0
2, 16075, Control_c, 0, 64, 127
2, 16075, Control_c, 0, 64, 0
2, 16077, Note_on_c, 0, 35, 119
2, 16085, Control_c, 0, 64, 127
2, 16124, Note_on_c, 0, 59, 0
2, 16138, Note_on_c, 0, 62, 0
2, 16138, Note_on_c, 0, 66, 0
2, 16139, Note_on_c, 0, 59, 127
2, 16197, Note_on_c, 0, 35, 0
2, 16198, Note_on_c, 0, 47, 126
2, 16224, Note_on_c, 0, 59, 0
2, 16302, Control_c, 0, 64, 0
2, 16306, Control_c, 0, 64, 127
2, 16306, Control_c, 0, 64, 0
2, 16316, Note_on_c, 0, 47, 0
2, 16319, Note_on_c, 0, 35, 123
2, 16319, Note_on_c, 0, 66, 123
2, 16320, Note_on_c, 0, 59, 127
2, 16320, Note_on_c, 0, 62, 127
2, 16341, Control_c, 0, 64, 127
2, 16341, Control_c, 0, 64, 0
2, 16342, Control_c, 0, 64, 127
2, 16342, Control_c, 0, 64, 0
2, 16344, Control_c, 0, 64, 127
2, 16377, Note_on_c, 0, 62, 0
2, 16378, Note_on_c, 0, 59, 0
2, 16389, Note_on_c, 0, 66, 0
2, 16408, Control_c, 0, 64, 0
2, 16409, Note_on_c, 0, 64, 126
2, 16409, Note_on_c, 0, 61, 119
2, 16410, Note_on_c, 0, 57, 117
2, 16421, Note_on_c, 0, 35, 0
2, 16425, Note_on_c, 0, 64, 0
2, 16427, Note_on_c, 0, 61, 0
2, 16428, Note_on_c, 0, 57, 0
2, 16439, Note_on_c, 0, 35, 123
2, 16499, Note_on_c, 0, 66, 121
2, 16499, Note_on_c, 0, 59, 118
2, 16500, Note_on_c, 0, 62, 127
2, 16503, Control_c, 0, 64, 127
2, 16532, Note_on_c, 0, 35, 0
2, 16558, Note_on_c, 0, 35, 123
2, 16585, Note_on_c, 0, 59, 0
2, 16614, Note_on_c, 0, 62, 0
2, 16614, Note_on_c, 0, 66, 0
2, 16617, Note_on_c, 0, 59, 127
2, 16676, Note_on_c, 0, 35, 0
2, 16678, Note_on_c, 0, 47, 127
2, 16679, Note_on_c, 0, 59, 0
2, 16708, Note_on_c, 0, 59, 127
2, 16761, Note_on_c, 0, 47, 0
2, 16762, Note_on_c, 0, 59, 0
2, 16769, Note_on_c, 0, 47, 111
2, 16770, Note_on_c, 0, 59, 127
2, 16773, Control_c, 0, 64, 0
2, 16791, Note_on_c, 0, 47, 0
2, 16796, Note_on_c, 0, 59, 0
2, 16800, Note_on_c, 0, 52, 127
2, 16800, Note_on_c, 0, 40, 121
2, 16800, Note_on_c, 0, 59, 123
2, 16800, Note_on_c, 0, 67, 121
2, 16800, Note_on_c, 0, 62, 121
2, 16821, Control_c, 0, 64, 127
2, 16821, Control_c, 0, 64, 0
2, 16830, Control_c, 0, 64, 127
2, 16861, Note_on_c, 0, 52, 0
2, 16876, Note_on_c, 0, 59, 0
2, 16878, Note_on_c, 0, 62, 0
2, 16878, Note_on_c, 0, 67, 0
2, 16890, Note_on_c, 0, 62, 118
2, 16891, Note_on_c, 0, 67, 118
2, 16891, Note_on_c, 0, 59, 114
2, 16921, Note_on_c, 0, 52, 123
2, 16927, Note_on_c, 0, 40, 0
2, 16936, Note_on_c, 0, 52, 0
2, 16953, Note_on_c, 0, 62, 0
2, 16962, Note_on_c, 0, 59, 0
2, 16963, Note_on_c, 0, 67, 0
2, 16978, Note_on_c, 0, 62, 119
2, 16993, Note_on_c, 0, 62, 0
2, 17029, Control_c, 0, 64, 0
2, 17033, Control_c, 0, 64, 127
2, 17034, Control_c, 0, 64, 0
2, 17038, Note_on_c, 0, 57, 123
2, 17038, Note_on_c, 0, 62, 127
2, 17038, Note_on_c, 0, 54, 123
2, 17038, Note_on_c, 0, 69, 123
2, 17038, Note_on_c, 0, 42, 118
2, 17058, Control_c, 0, 64, 127
2, 17058, Control_c, 0, 64, 0
2, 17065, Control_c, 0, 64, 127
2, 17070, Control_c, 0, 64, 0
2, 17081, Control_c, 0, 64, 127
2, 17100, Note_on_c, 0, 54, 0
2, 17118, Note_on_c, 0, 57, 0
2, 17118, Note_on_c, 0, 62, 0
2, 17121, Note_on_c, 0, 69, 0
2, 17130, Note_on_c, 0, 62, 127
2, 17130, Note_on_c, 0, 57, 118
2, 17130, Note_on_c, 0, 69, 118
2, 17159, Note_on_c, 0, 54, 123
2, 17172, Note_on_c, 0, 42, 0
2, 17175, Note_on_c, 0, 54, 0
2, 17185, Note_on_c, 0, 62, 0
2, 17208, Note_on_c, 0, 69, 0
2, 17212, Note_on_c, 0, 57, 0
2, 17219, Note_on_c, 0, 62, 119
2, 17232, Note_on_c, 0, 62, 0
2, 17263, Control_c, 0, 64, 0
2, 17268, Control_c, 0, 64, 127
2, 17269, Control_c, 0, 64, 0
2, 17278, Note_on_c, 0, 71, 126
2, 17278, Note_on_c, 0, 62, 123
2, 17279, Note_on_c, 0, 43, 126
2, 17279, Note_on_c, 0, 55, 119
2, 17298, Control_c, 0, 64, 127
2, 17322, Note_on_c, 0, 55, 0
2, 17327, Note_on_c, 0, 62, 0
2, 17338, Note_on_c, 0, 62, 97
2, 17347, Note_on_c, 0, 71, 0
2, 17362, Note_on_c, 0, 62, 0
2, 17367, Note_on_c, 0, 43, 0
2, 17369, Note_on_c, 0, 55, 123
2, 17369, Note_on_c, 0, 71, 123
2, 17384, Note_on_c, 0, 55, 0
2, 17429, Note_on_c, 0, 62, 84
2, 17437, Note_on_c, 0, 71, 0
2, 17446, Note_on_c, 0, 62, 0
2, 17456, Note_on_c, 0, 55, 127
2, 17458, Note_on_c, 0, 71, 123
2, 17469, Note_on_c, 0, 55, 0
2, 17474, Note_on_c, 0, 71, 0
2, 17505, Control_c, 0, 64, 0
2, 17518, Note_on_c, 0, 55, 127
2, 17518, Note_on_c, 0, 45, 127
2, 17518, Note_on_c, 0, 59, 127
2, 17518, Note_on_c, 0, 62, 127
2, 17518, Note_on_c, 0, 69, 127
2, 17556, Note_on_c, 0, 59, 0
2, 17557, Note_on_c, 0, 62, 0
2, 17566, Note_on_c, 0, 69, 0
2, 17572, Note_on_c, 0, 45, 0
2, 17575, Note_on_c, 0, 55, 0
2, 17760, Note_on_c, 0, 38, 127
2, 17760, Note_on_c, 0, 66, 121
2, 17760, Note_on_c, 0, 62, 123
2, 17760, Note_on_c, 0, 57, 117
2, 17799, Note_on_c, 0, 57, 0
2, 17801, Note_on_c, 0, 66, 0
2, 17802, Note_on_c, 0, 62, 0
2, 17848, Note_on_c, 0, 38, 0
2, 17850, Note_on_c, 0, 66, 123
2, 17850, Note_on_c, 0, 57, 113
2, 17850, Note_on_c, 0, 62, 126
2, 17879, Note_on_c, 0, 38, 126
2, 17880, Note_on_c, 0, 62, 0
2, 17883, Note_on_c, 0, 66, 0
2, 17883, Note_on_c, 0, 57, 0
2, 17940, Note_on_c, 0, 67, 121
2, 17940, Note_on_c, 0, 59, 113
2, 17940, Note_on_c, 0, 62, 121
2, 17977, Note_on_c, 0, 38, 0
2, 17999, Note_on_c, 0, 38, 123
2, 18047, Note_on_c, 0, 62, 0
2, 18055, Note_on_c, 0, 59, 0
2, 18060, Note_on_c, 0, 62, 127
2, 18097, Note_on_c, 0, 38, 0
2, 18106, Note_on_c, 0, 62, 0
2, 18119, Note_on_c, 0, 38, 119
2, 18149, Note_on_c, 0, 62, 127
2, 18163, Note_on_c, 0, 67, 0
2, 18193, Note_on_c, 0, 62, 0
2, 18209, Note_on_c, 0, 62, 116
2, 18220, Note_on_c, 0, 38, 0
2, 18235, Note_on_c, 0, 62, 0
2, 18239, Note_on_c, 0, 62, 123
2, 18239, Note_on_c, 0, 57, 121
2, 18239, Note_on_c, 0, 66, 119
2, 18239, Note_on_c, 0, 38, 121
2, 18317, Note_on_c, 0, 66, 0
2, 18317, Note_on_c, 0, 57, 0
2, 18318, Note_on_c, 0, 62, 0
2, 18330, Note_on_c, 0, 67, 116
2, 18330, Note_on_c, 0, 62, 126
2, 18330, Note_on_c, 0, 59, 108
2, 18337, Note_on_c, 0, 38, 0
2, 18358, Note_on_c, 0, 62, 0
2, 18359, Note_on_c, 0, 38, 123
2, 18360, Note_on_c, 0, 59, 0
2, 18367, Note_on_c, 0, 67, 0
2, 18419, Note_on_c, 0, 66, 110
2, 18419, Note_on_c, 0, 62, 119
2, 18419, Note_on_c, 0, 57, 111
2, 18454, Note_on_c, 0, 38, 0
2, 18479, Note_on_c, 0, 38, 126
2, 18526, Note_on_c, 0, 57, 0
2, 18540, Note_on_c, 0, 57, 123
2, 18600, Note_on_c, 0, 50, 123
2, 18646, Note_on_c, 0, 38, 0
2, 18660, Note_on_c, 0, 50, 0
2, 18662, Note_on_c, 0, 38, 126
2, 18689, Note_on_c, 0, 66, 0
2, 18689, Note_on_c, 0, 62, 0
2, 18693, Note_on_c, 0, 57, 0
2, 18713, Note_on_c, 0, 38, 0
2, 18720, Note_on_c, 0, 59, 118
2, 18720, Note_on_c, 0, 35, 126
2, 18720, Note_on_c, 0, 47, 119
2, 18720, Note_on_c, 0, 66, 126
2, 18720, Note_on_c, 0, 62, 127
2, 18801, Note_on_c, 0, 59, 0
2, 18805, Note_on_c, 0, 66, 0
2, 18805, Note_on_c, 0, 62, 0
2, 18810, Note_on_c, 0, 59, 107
2, 18810, Note_on_c, 0, 62, 114
2, 18810, Note_on_c, 0, 66, 116
2, 18823, Note_on_c, 0, 47, 0
2, 18824, Note_on_c, 0, 35, 0
2, 18838, Note_on_c, 0, 62, 0
2, 18840, Note_on_c, 0, 35, 116
2, 18840, Note_on_c, 0, 47, 119
2, 18841, Note_on_c, 0, 59, 0
2, 18842, Note_on_c, 0, 66, 0
2, 18887, Note_on_c, 0, 47, 0
2, 18890, Note_on_c, 0, 35, 0
2, 18900, Note_on_c, 0, 33, 116
2, 18900, Note_on_c, 0, 57, 113
2, 18900, Note_on_c, 0, 45, 119
2, 18900, Note_on_c, 0, 61, 116
2, 18900, Note_on_c, 0, 64, 123
2, 18947, Note_on_c, 0, 45, 0
2, 18950, Note_on_c, 0, 33, 0
2, 18953, Control_c, 0, 64, 127
2, 18953, Control_c, 0, 64, 0
2, 18959, Note_on_c, 0, 33, 116
2, 18959, Note_on_c, 0, 45, 116
2, 18964, Control_c, 0, 64, 127
2, 18998, Note_on_c, 0, 57, 0
2, 18998, Note_on_c, 0, 64, 0
2, 18998, Note_on_c, 0, 61, 0
2, 19019, Note_on_c, 0, 69, 127
2, 19053, Note_on_c, 0, 69, 0
2, 19053, Note_on_c, 0, 33, 0
2, 19055, Note_on_c, 0, 45, 0
2, 19079, Note_on_c, 0, 45, 113
2, 19079, Note_on_c, 0, 33, 113
2, 19079, Note_on_c, 0, 57, 127
2, 19094, Note_on_c, 0, 57, 0
2, 19104, Control_c, 0, 64, 0
2, 19106, Control_c, 0, 64, 127
2, 19108, Control_c, 0, 64, 0
2, 19109, Note_on_c, 0, 57, 107
2, 19135, Control_c, 0, 64, 127
2, 19139, Note_on_c, 0, 33, 0
2, 19157, Note_on_c, 0, 45, 0
2, 19161, Note_on_c, 0, 57, 0
2, 19168, Note_on_c, 0, 33, 114
2, 19169, Note_on_c, 0, 57, 88
2, 19180, Note_on_c, 0, 57, 0
2, 19185, Note_on_c, 0, 33, 0
2, 19196, Control_c, 0, 64, 0
2, 19198, Note_on_c, 0, 43, 114
2, 19199, Note_on_c, 0, 67, 119
2, 19199, Note_on_c, 0, 62, 123
2, 19199, Note_on_c, 0, 59, 116
2, 19276, Note_on_c, 0, 59, 0
2, 19278, Note_on_c, 0, 62, 0
2, 19280, Note_on_c, 0, 67, 0
2, 19289, Note_on_c, 0, 67, 121
2, 19289, Note_on_c, 0, 62, 126
2, 19289, Note_on_c, 0, 59, 117
2, 19304, Note_on_c, 0, 43, 0
2, 19320, Note_on_c, 0, 31, 123
2, 19322, Note_on_c, 0, 59, 0
2, 19323, Note_on_c, 0, 62, 0
2, 19330, Note_on_c, 0, 67, 0
2, 19379, Note_on_c, 0, 31, 0
2, 19379, Note_on_c, 0, 66, 127
2, 19379, Note_on_c, 0, 62, 127
2, 19379, Note_on_c, 0, 57, 127
2, 19383, Note_on_c, 0, 50, 127
2, 19438, Note_on_c, 0, 26, 127
2, 19442, Note_on_c, 0, 38, 127
2, 19444, Note_on_c, 0, 50, 0
2, 19484, Note_on_c, 0, 57, 0
2, 19488, Note_on_c, 0, 62, 0
2, 19490, Note_on_c, 0, 66, 0
2, 19503, Note_on_c, 0, 57, 127
2, 19549, Note_on_c, 0, 26, 0
2, 19550, Note_on_c, 0, 38, 0
2, 19555, Note_on_c, 0, 57, 0
2, 19561, Note_on_c, 0, 62, 127
2, 19562, Note_on_c, 0, 38, 127
2, 19566, Note_on_c, 0, 50, 127
2, 19613, Note_on_c, 0, 62, 0
2, 19619, Note_on_c, 0, 66, 127
2, 19671, Note_on_c, 0, 66, 0
2, 19673, Note_on_c, 0, 38, 0
2, 19674, Note_on_c, 0, 50, 0
2, 19680, Note_on_c, 0, 59, 118
2, 19680, Note_on_c, 0, 35, 126
2, 19680, Note_on_c, 0, 47, 119
2, 19680, Note_on_c, 0, 66, 126
2, 19680, Note_on_c, 0, 62, 127
2, 19761, Note_on_c, 0, 59, 0
2, 19765, Note_on_c, 0, 66, 0
2, 19765, Note_on_c, 0, 62, 0
2, 19770, Note_on_c, 0, 59, 107
2, 19770, Note_on_c, 0, 62, 114
2, 19770, Note_on_c, 0, 66, 116
2, 19783, Note_on_c, 0, 47, 0
2, 19784, Note_on_c, 0, 35, 0
2, 19798, Note_on_c, 0, 62, 0
2, 19800, Note_on_c, 0, 35, 116
2, 19800, Note_on_c, 0, 47, 119
2, 19801, Note_on_c, 0, 59, 0
2, 19802, Note_on_c, 0, 66, 0
2, 19847, Note_on_c, 0, 47, 0
2, 19850, Note_on_c, 0, 35, 0
2, 19860, Note_on_c, 0, 57, 113
2, 19860, Note_on_c, 0, 45, 119
2, 19860, Note_on_c, 0, 61, 116
2, 19860, Note_on_c, 0, 64, 123
2, 19907, Note_on_c, 0, 45, 0
2, 19913, Control_c, 0, 64, 127
2, 19913, Control_c, 0, 64, 0
2, 19919, Note_on_c, 0, 33, 116
2, 19924, Control_c, 0, 64, 127
2, 19958, Note_on_c, 0, 57, 0
2, 19958, Note_on_c, 0, 64, 0
2, 19958, Note_on_c, 0, 61, 0
2, 19979, Note_on_c, 0, 69, 127
2, 20013, Note_on_c, 0, 33, 0
2, 20039, Note_on_c, 0, 45, 113
2, 20039, Note_on_c, 0, 33, 113
2, 20064, Control_c, 0, 64, 0
2, 20066, Control_c, 0, 64, 127
2, 20068, Control_c, 0, 64, 0
2, 20069, Note_on_c, 0, 57, 118
2, 20095, Control_c, 0, 64, 127
2, 20099, Note_on_c, 0, 33, 0
2, 20100, Note_on_c, 0, 69, 0
2, 20117, Note_on_c, 0, 45, 0
2, 20121, Note_on_c, 0, 57, 0
2, 20128, Note_on_c, 0, 33, 114
2, 20129, Note_on_c, 0, 57, 88
2, 20140, Note_on_c, 0, 57, 0
2, 20145, Note_on_c, 0, 33, 0
2, 20156, Control_c, 0, 64, 0
2, 20158, Note_on_c, 0, 43, 114
2, 20159, Note_on_c, 0, 67, 119
2, 20159, Note_on_c, 0, 62, 123
2, 20159, Note_on_c, 0, 59, 116
2, 20236, Note_on_c, 0, 59, 0
2, 20238, Note_on_c, 0, 62, 0
2, 20240, Note_on_c, 0, 67, 0
2, 20249, Note_on_c, 0, 67, 121
2, 20249, Note_on_c, 0, 62, 126
2, 20249, Note_on_c, 0, 59, 117
2, 20264, Note_on_c, 0, 43, 0
2, 20280, Note_on_c, 0, 31, 123
2, 20282, Note_on_c, 0, 59, 0
2, 20283, Note_on_c, 0, 62, 0
2, 20290, Note_on_c, 0, 67, 0
2, 20339, Note_on_c, 0, 66, 127
2, 20339, Note_on_c, 0, 62, 127
2, 20339, Note_on_c, 0, 57, 127
2, 20380, Note_on_c, 0, 31, 0
2, 20402, Note_on_c, 0, 50, 127
2, 20402, Note_on_c, 0, 38, 127
2, 20510, Note_on_c, 0, 38, 0
2, 20513, Note_on_c, 0, 50, 0
2, 20526, Note_on_c, 0, 50, 127
2, 20626, Note_on_c, 0, 66, 0
2, 20632, Note_on_c, 0, 62, 0
2, 20634, Note_on_c, 0, 50, 0
2, 20635, Note_on_c, 0, 57, 0
2, 20640, Note_on_c, 0, 31, 113
2, 20640, Note_on_c, 0, 62, 123
2, 20760, Note_on_c, 0, 43, 95
2, 20773, Note_on_c, 0, 43, 0
2, 20773, Note_on_c, 0, 62, 0
2, 20790, Note_on_c, 0, 59, 113
2, 20790, Note_on_c, 0, 55, 116
2, 20790, Note_on_c, 0, 62, 116
2, 20799, Note_on_c, 0, 59, 0
2, 20804, Note_on_c, 0, 62, 0
2, 20807, Note_on_c, 0, 55, 0
2, 20820, Note_on_c, 0, 43, 112
2, 20880, Note_on_c, 0, 62, 127
2, 20880, Note_on_c, 0, 59, 127
2, 20880, Note_on_c, 0, 55, 126
2, 20911, Control_c, 0, 64, 127
2, 20912, Control_c, 0, 64, 0
2, 20925, Control_c, 0, 64, 127
2, 20953, Note_on_c, 0, 43, 0
2, 20988, Note_on_c, 0, 31, 0
2, 21022, Note_on_c, 0, 55, 0
2, 21060, Note_on_c, 0, 43, 102
2, 21060, Note_on_c, 0, 55, 108
2, 21062, Note_on_c, 0, 59, 0
2, 21067, Note_on_c, 0, 62, 0
2, 21070, Note_on_c, 0, 43, 0
2, 21077, Note_on_c, 0, 55, 0
2, 21108, Control_c, 0, 64, 0
2, 21120, Note_on_c, 0, 33, 114
2, 21120, Note_on_c, 0, 57, 119
2, 21120, Note_on_c, 0, 64, 127
2, 21120, Note_on_c, 0, 61, 121
2, 21240, Note_on_c, 0, 45, 97
2, 21242, Note_on_c, 0, 57, 0
2, 21244, Note_on_c, 0, 61, 0
2, 21247, Note_on_c, 0, 64, 0
2, 21263, Note_on_c, 0, 45, 0
2, 21270, Note_on_c, 0, 57, 111
2, 21270, Note_on_c, 0, 64, 113
2, 21270, Note_on_c, 0, 61, 110
2, 21282, Note_on_c, 0, 61, 0
2, 21284, Note_on_c, 0, 57, 0
2, 21286, Note_on_c, 0, 64, 0
2, 21300, Note_on_c, 0, 45, 101
2, 21313, Note_on_c, 0, 45, 0
2, 21330, Note_on_c, 0, 45, 114
2, 21349, Note_on_c, 0, 45, 0
2, 21360, Note_on_c, 0, 64, 127
2, 21360, Note_on_c, 0, 61, 121
2, 21360, Note_on_c, 0, 57, 114
2, 21388, Control_c, 0, 64, 127
2, 21398, Note_on_c, 0, 57, 0
2, 21417, Note_on_c, 0, 64, 0
2, 21420, Note_on_c, 0, 57, 123
2, 21420, Note_on_c, 0, 45, 113
2, 21424, Note_on_c, 0, 61, 0
2, 21440, Note_on_c, 0, 57, 0
2, 21480, Note_on_c, 0, 59, 127
2, 21512, Note_on_c, 0, 45, 0
2, 21527, Note_on_c, 0, 59, 0
2, 21531, Note_on_c, 0, 33, 0
2, 21540, Note_on_c, 0, 62, 127
2, 21540, Note_on_c, 0, 45, 117
2, 21585, Note_on_c, 0, 45, 0
2, 21591, Note_on_c, 0, 62, 0
2, 21595, Control_c, 0, 64, 0
2, 21600, Note_on_c, 0, 31, 111
2, 21600, Note_on_c, 0, 59, 127
2, 21600, Note_on_c, 0, 55, 126
2, 21600, Note_on_c, 0, 62, 127
2, 21690, Control_c, 0, 64, 127
2, 21720, Note_on_c, 0, 55, 0
2, 21720, Note_on_c, 0, 43, 103
2, 21722, Note_on_c, 0, 59, 0
2, 21724, Note_on_c, 0, 62, 0
2, 21736, Note_on_c, 0, 43, 0
2, 21748, Control_c, 0, 64, 0
2, 21750, Note_on_c, 0, 55, 113
2, 21750, Note_on_c, 0, 59, 116
2, 21750, Note_on_c, 0, 62, 116
2, 21763, Note_on_c, 0, 59, 0
2, 21764, Note_on_c, 0, 62, 0
2, 21767, Note_on_c, 0, 55, 0
2, 21780, Note_on_c, 0, 43, 108
2, 21810, Note_on_c, 0, 62, 61
2, 21812, Note_on_c, 0, 62, 0
2, 21840, Note_on_c, 0, 62, 126
2, 21840, Note_on_c, 0, 59, 127
2, 21840, Note_on_c, 0, 55, 127
2, 21870, Control_c, 0, 64, 127
2, 21938, Note_on_c, 0, 43, 0
2, 21960, Note_on_c, 0, 43, 113
2, 21961, Note_on_c, 0, 31, 0
2, 21971, Note_on_c, 0, 55, 0
2, 21972, Note_on_c, 0, 59, 0
2, 21972, Note_on_c, 0, 62, 0
2, 21978, Note_on_c, 0, 43, 0
2, 21990, Note_on_c, 0, 59, 105
2, 21990, Note_on_c, 0, 62, 112
2, 21990, Note_on_c, 0, 55, 112
2, 22002, Note_on_c, 0, 59, 0
2, 22004, Note_on_c, 0, 62, 0
2, 22006, Note_on_c, 0, 55, 0
2, 22020, Note_on_c, 0, 43, 97
2, 22056, Note_on_c, 0, 43, 0
2, 22068, Control_c, 0, 64, 0
2, 22080, Note_on_c, 0, 33, 117
2, 22080, Note_on_c, 0, 61, 127
2, 22080, Note_on_c, 0, 57, 126
2, 22080, Note_on_c, 0, 64, 123
2, 22124, Control_c, 0, 64, 127
2, 22198, Note_on_c, 0, 57, 0
2, 22200, Note_on_c, 0, 61, 0
2, 22200, Note_on_c, 0, 45, 88
2, 22202, Note_on_c, 0, 64, 0
2, 22216, Note_on_c, 0, 45, 0
2, 22224, Control_c, 0, 64, 0
2, 22230, Note_on_c, 0, 61, 110
2, 22230, Note_on_c, 0, 64, 117
2, 22230, Note_on_c, 0, 57, 117
2, 22243, Note_on_c, 0, 61, 0
2, 22246, Note_on_c, 0, 57, 0
2, 22248, Note_on_c, 0, 64, 0
2, 22260, Note_on_c, 0, 45, 113
2, 22276, Note_on_c, 0, 45, 0
2, 22290, Note_on_c, 0, 45, 103
2, 22310, Note_on_c, 0, 45, 0
2, 22320, Note_on_c, 0, 64, 116
2, 22320, Note_on_c, 0, 57, 119
2, 22320, Note_on_c, 0, 61, 126
2, 22321, Control_c, 0, 64, 127
2, 22374, Note_on_c, 0, 57, 0
2, 22375, Note_on_c, 0, 61, 0
2, 22380, Note_on_c, 0, 45, 123
2, 22389, Note_on_c, 0, 64, 0
2, 22429, Control_c, 0, 64, 0
2, 22440, Note_on_c, 0, 64, 123
2, 22440, Note_on_c, 0, 61, 123
2, 22440, Note_on_c, 0, 57, 126
2, 22528, Note_on_c, 0, 57, 0
2, 22531, Note_on_c, 0, 33, 0
2, 22534, Note_on_c, 0, 45, 0
2, 22535, Note_on_c, 0, 61, 0
2, 22537, Note_on_c, 0, 64, 0
2, 22560, Note_on_c, 0, 31, 113
2, 22560, Note_on_c, 0, 62, 123
2, 22680, Note_on_c, 0, 43, 95
2, 22693, Note_on_c, 0, 43, 0
2, 22693, Note_on_c, 0, 62, 0
2, 22710, Note_on_c, 0, 59, 113
2, 22710, Note_on_c, 0, 55, 116
2, 22710, Note_on_c, 0, 62, 116
2, 22719, Note_on_c, 0, 59, 0
2, 22724, Note_on_c, 0, 62, 0
2, 22727, Note_on_c, 0, 55, 0
2, 22740, Note_on_c, 0, 43, 112
2, 22800, Note_on_c, 0, 62, 127
2, 22800, Note_on_c, 0, 59, 127
2, 22800, Note_on_c, 0, 55, 126
2, 22831, Control_c, 0, 64, 127
2, 22832, Control_c, 0, 64, 0
2, 22845, Control_c, 0, 64, 127
2, 22873, Note_on_c, 0, 43, 0
2, 22908, Note_on_c, 0, 31, 0
2, 22942, Note_on_c, 0, 55, 0
2, 22980, Note_on_c, 0, 43, 102
2, 22980, Note_on_c, 0, 55, 108
2, 22982, Note_on_c, 0, 59, 0
2, 22987, Note_on_c, 0, 62, 0
2, 22990, Note_on_c, 0, 43, 0
2, 22997, Note_on_c, 0, 55, 0
2, 23028, Control_c, 0, 64, 0
2, 23040, Note_on_c, 0, 33, 123
2, 23100, Note_on_c, 0, 57, 127
2, 23100, Note_on_c, 0, 69, 123
2, 23114, Note_on_c, 0, 57, 0
2, 23115, Control_c, 0, 64, 127
2, 23116, Note_on_c, 0, 69, 0
2, 23116, Control_c, 0, 64, 0
2, 23124, Control_c, 0, 64, 127
2, 23130, Note_on_c, 0, 57, 113
2, 23130, Note_on_c, 0, 69, 114
2, 23149, Note_on_c, 0, 69, 0
2, 23151, Note_on_c, 0, 57, 0
2, 23175, Note_on_c, 0, 33, 0
2, 23190, Note_on_c, 0, 45, 119
2, 23200, Control_c, 0, 64, 0
2, 23220, Note_on_c, 0, 57, 123
2, 23220, Note_on_c, 0, 69, 121
2, 23237, Note_on_c, 0, 45, 0
2, 23242, Note_on_c, 0, 57, 0
2, 23242, Control_c, 0, 64, 127
2, 23243, Note_on_c, 0, 69, 0
2, 23250, Note_on_c, 0, 45, 127
2, 23280, Note_on_c, 0, 71, 127
2, 23280, Note_on_c, 0, 59, 127
2, 23299, Note_on_c, 0, 71, 0
2, 23301, Note_on_c, 0, 59, 0
2, 23340, Note_on_c, 0, 61, 123
2, 23340, Note_on_c, 0, 73, 127
2, 23356, Note_on_c, 0, 73, 0
2, 23400, Note_on_c, 0, 61, 0
2, 23400, Note_on_c, 0, 62, 127
2, 23400, Note_on_c, 0, 74, 127
2, 23440, Note_on_c, 0, 74, 0
2, 23440, Note_on_c, 0, 62, 0
2, 23453, Control_c, 0, 64, 0
2, 23460, Note_on_c, 0, 62, 127
2, 23460, Note_on_c, 0, 74, 127
2, 23518, Note_on_c, 0, 74, 0
2, 23518, Note_on_c, 0, 62, 0
2, 23520, Note_on_c, 0, 34, 117
2, 23520, Note_on_c, 0, 46, 112
2, 23527, Note_on_c, 0, 45, 0
2, 23580, Note_on_c, 0, 70, 114
2, 23580, Note_on_c, 0, 77, 126
2, 23580, Note_on_c, 0, 65, 121
2, 23580, Note_on_c, 0, 74, 127
2, 23597, Note_on_c, 0, 46, 0
2, 23605, Control_c, 0, 64, 127
2, 23606, Control_c, 0, 64, 0
2, 23607, Note_on_c, 0, 74, 0
2, 23608, Note_on_c, 0, 70, 0
2, 23618, Note_on_c, 0, 65, 0
2, 23619, Note_on_c, 0, 77, 0
2, 23640, Note_on_c, 0, 46, 108
2, 23645, Control_c, 0, 64, 127
2, 23658, Note_on_c, 0, 46, 0
2, 23670, Note_on_c, 0, 70, 111
2, 23670, Note_on_c, 0, 65, 117
2, 23670, Note_on_c, 0, 74, 126
2, 23670, Note_on_c, 0, 77, 126
2, 23741, Note_on_c, 0, 77, 0
2, 23744, Note_on_c, 0, 65, 0
2, 23744, Note_on_c, 0, 74, 0
2, 23747, Note_on_c, 0, 70, 0
2, 23760, Note_on_c, 0, 46, 123
2, 23820, Note_on_c, 0, 77, 127
2, 23820, Note_on_c, 0, 65, 127
2, 23823, Control_c, 0, 64, 0
2, 23836, Note_on_c, 0, 65, 0
2, 23836, Note_on_c, 0, 77, 0
2, 23850, Note_on_c, 0, 65, 108
2, 23850, Note_on_c, 0, 77, 100
2, 23864, Control_c, 0, 64, 127
2, 23900, Note_on_c, 0, 65, 0
2, 23901, Note_on_c, 0, 34, 0
2, 23902, Note_on_c, 0, 77, 0
2, 23905, Note_on_c, 0, 46, 0
2, 23910, Note_on_c, 0, 74, 112
2, 23921, Note_on_c, 0, 74, 0
2, 23940, Note_on_c, 0, 77, 126
2, 23940, Note_on_c, 0, 65, 119
2, 23995, Note_on_c, 0, 77, 0
2, 24000, Note_on_c, 0, 65, 0
2, 24000, Note_on_c, 0, 36, 127
2, 24056, Control_c, 0, 64, 0
2, 24060, Note_on_c, 0, 67, 119
2, 24060, Note_on_c, 0, 60, 114
2, 24060, Note_on_c, 0, 72, 121
2, 24073, Note_on_c, 0, 67, 0
2, 24076, Note_on_c, 0, 60, 0
2, 24079, Note_on_c, 0, 72, 0
2, 24120, Note_on_c, 0, 48, 103
2, 24141, Note_on_c, 0, 48, 0
2, 24150, Note_on_c, 0, 67, 118
2, 24150, Note_on_c, 0, 60, 116
2, 24150, Note_on_c, 0, 72, 118
2, 24151, Control_c, 0, 64, 127
2, 24231, Note_on_c, 0, 72, 0
2, 24232, Note_on_c, 0, 60, 0
2, 24236, Note_on_c, 0, 67, 0
2, 24240, Note_on_c, 0, 48, 123
2, 24300, Note_on_c, 0, 72, 123
2, 24300, Note_on_c, 0, 60, 126
2, 24314, Note_on_c, 0, 72, 0
2, 24315, Note_on_c, 0, 60, 0
2, 24323, Note_on_c, 0, 48, 0
2, 24330, Note_on_c, 0, 60, 107
2, 24330, Note_on_c, 0, 72, 96
2, 24353, Note_on_c, 0, 60, 0
2, 24355, Note_on_c, 0, 72, 0
2, 24390, Note_on_c, 0, 48, 117
2, 24408, Note_on_c, 0, 48, 0
2, 24420, Note_on_c, 0, 60, 127
2, 24420, Note_on_c, 0, 72, 123
2, 24470, Control_c, 0, 64, 0
2, 24475, Note_on_c, 0, 36, 0
2, 24475, Control_c, 0, 64, 127
2, 24475, Control_c, 0, 64, 0
2, 24480, Note_on_c, 0, 36, 126
2, 24480, Note_on_c, 0, 48, 119
2, 24486, Note_on_c, 0, 72, 0
2, 24486, Note_on_c, 0, 60, 0
2, 24495, Control_c, 0, 64, 127
2, 24495, Control_c, 0, 64, 0
2, 24510, Note_on_c, 0, 60, 117
2, 24510, Note_on_c, 0, 72, 127
2, 24511, Control_c, 0, 64, 127
2, 24528, Note_on_c, 0, 60, 0
2, 24529, Note_on_c, 0, 72, 0
2, 24548, Note_on_c, 0, 36, 0
2, 24553, Note_on_c, 0, 48, 0
2, 24570, Note_on_c, 0, 36, 119
2, 24570, Note_on_c, 0, 48, 119
2, 24577, Control_c, 0, 64, 0
2, 24600, Note_on_c, 0, 62, 126
2, 24600, Note_on_c, 0, 74, 127
2, 24617, Control_c, 0, 64, 127
2, 24625, Note_on_c, 0, 62, 0
2, 24628, Note_on_c, 0, 74, 0
2, 24671, Control_c, 0, 64, 0
2, 24690, Note_on_c, 0, 64, 121
2, 24690, Note_on_c, 0, 76, 127
2, 24695, Control_c, 0, 64, 127
2, 24703, Note_on_c, 0, 36, 0
2, 24706, Note_on_c, 0, 48, 0
2, 24711, Note_on_c, 0, 64, 0
2, 24714, Note_on_c, 0, 76, 0
2, 24720, Note_on_c, 0, 36, 121
2, 24720, Note_on_c, 0, 48, 127
2, 24780, Note_on_c, 0, 67, 123
2, 24780, Note_on_c, 0, 79, 126
2, 24795, Note_on_c, 0, 36, 0
2, 24798, Note_on_c, 0, 79, 0
2, 24798, Note_on_c, 0, 67, 0
2, 24799, Note_on_c, 0, 48, 0
2, 24810, Note_on_c, 0, 36, 121
2, 24810, Note_on_c, 0, 48, 127
2, 24870, Note_on_c, 0, 69, 126
2, 24870, Note_on_c, 0, 81, 123
2, 24886, Note_on_c, 0, 69, 0
2, 24887, Note_on_c, 0, 81, 0
2, 24924, Note_on_c, 0, 48, 0
2, 24924, Note_on_c, 0, 36, 0
2, 24930, Note_on_c, 0, 72, 126
2, 24930, Note_on_c, 0, 84, 123
2, 24990, Note_on_c, 0, 84, 0
2, 24990, Note_on_c, 0, 72, 0
2, 25031, Note_on_c, 0, 86, 123
2, 25031, Note_on_c, 0, 74, 123
2, 25069, Note_on_c, 0, 86, 0
2, 25081, Note_on_c, 0, 74, 0
2, 25120, Note_on_c, 0, 74, 121
2, 25120, Note_on_c, 0, 86, 126
2, 25143, Note_on_c, 0, 86, 0
2, 25143, Note_on_c, 0, 74, 0
2, 25205, Note_on_c, 0, 74, 127
2, 25206, Note_on_c, 0, 86, 123
2, 25249, Note_on_c, 0, 74, 0
2, 25253, Note_on_c, 0, 86, 0
2, 25369, Control_c, 0, 64, 0
2, 25375, Control_c, 0, 64, 127
2, 25376, Control_c, 0, 64, 0
2, 25440, Note_on_c, 0, 38, 127
2, 25440, Note_on_c, 0, 66, 121
2, 25440, Note_on_c, 0, 62, 123
2, 25440, Note_on_c, 0, 57, 117
2, 25479, Note_on_c, 0, 57, 0
2, 25481, Note_on_c, 0, 66, 0
2, 25482, Note_on_c, 0, 62, 0
2, 25530, Note_on_c, 0, 66, 123
2, 25530, Note_on_c, 0, 57, 113
2, 25530, Note_on_c, 0, 62, 126
2, 25531, Note_on_c, 0, 38, 0
2, 25559, Note_on_c, 0, 38, 126
2, 25560, Note_on_c, 0, 62, 0
2, 25563, Note_on_c, 0, 66, 0
2, 25563, Note_on_c, 0, 57, 0
2, 25620, Note_on_c, 0, 67, 121
2, 25620, Note_on_c, 0, 59, 113
2, 25620, Note_on_c, 0, 62, 121
2, 25651, Note_on_c, 0, 38, 0
2, 25679, Note_on_c, 0, 38, 123
2, 25727, Note_on_c, 0, 62, 0
2, 25735, Note_on_c, 0, 59, 0
2, 25740, Note_on_c, 0, 62, 127
2, 25768, Note_on_c, 0, 38, 0
2, 25800, Note_on_c, 0, 50, 119
2, 25818, Note_on_c, 0, 62, 0
2, 25829, Note_on_c, 0, 59, 127
2, 25843, Note_on_c, 0, 67, 0
2, 25914, Note_on_c, 0, 59, 0
2, 25917, Note_on_c, 0, 50, 0
2, 25919, Note_on_c, 0, 62, 123
2, 25919, Note_on_c, 0, 57, 121
2, 25919, Note_on_c, 0, 66, 119
2, 25919, Note_on_c, 0, 38, 121
2, 25986, Note_on_c, 0, 38, 0
2, 25997, Note_on_c, 0, 66, 0
2, 25997, Note_on_c, 0, 57, 0
2, 25998, Note_on_c, 0, 62, 0
2, 26010, Note_on_c, 0, 67, 116
2, 26010, Note_on_c, 0, 62, 126
2, 26010, Note_on_c, 0, 59, 108
2, 26038, Note_on_c, 0, 62, 0
2, 26039, Note_on_c, 0, 38, 123
2, 26040, Note_on_c, 0, 59, 0
2, 26047, Note_on_c, 0, 67, 0
2, 26099, Note_on_c, 0, 38, 0
2, 26099, Note_on_c, 0, 66, 110
2, 26099, Note_on_c, 0, 62, 119
2, 26099, Note_on_c, 0, 57, 111
2, 26159, Note_on_c, 0, 38, 126
2, 26206, Note_on_c, 0, 57, 0
2, 26219, Note_on_c, 0, 62, 0
2, 26220, Note_on_c, 0, 62, 123
2, 26220, Note_on_c, 0, 57, 123
2, 26279, Note_on_c, 0, 38, 0
2, 26280, Note_on_c, 0, 50, 121
2, 26337, Note_on_c, 0, 50, 0
2, 26339, Note_on_c, 0, 37, 126
2, 26340, Note_on_c, 0, 50, 126
2, 26369, Note_on_c, 0, 66, 0
2, 26373, Note_on_c, 0, 57, 0
2, 26373, Note_on_c, 0, 62, 0
2, 26393, Note_on_c, 0, 37, 0
2, 26394, Note_on_c, 0, 50, 0
2, 26400, Note_on_c, 0, 59, 118
2, 26400, Note_on_c, 0, 35, 126
2, 26400, Note_on_c, 0, 47, 119
2, 26400, Note_on_c, 0, 66, 126
2, 26400, Note_on_c, 0, 62, 127
2, 26481, Note_on_c, 0, 59, 0
2, 26485, Note_on_c, 0, 66, 0
2, 26485, Note_on_c, 0, 62, 0
2, 26490, Note_on_c, 0, 59, 107
2, 26490, Note_on_c, 0, 62, 114
2, 26490, Note_on_c, 0, 66, 116
2, 26503, Note_on_c, 0, 47, 0
2, 26504, Note_on_c, 0, 35, 0
2, 26518, Note_on_c, 0, 62, 0
2, 26520, Note_on_c, 0, 35, 116
2, 26520, Note_on_c, 0, 47, 119
2, 26521, Note_on_c, 0, 59, 0
2, 26522, Note_on_c, 0, 66, 0
2, 26567, Note_on_c, 0, 47, 0
2, 26570, Note_on_c, 0, 35, 0
2, 26580, Note_on_c, 0, 45, 116
2, 26580, Note_on_c, 0, 57, 113
2, 26580, Note_on_c, 0, 61, 116
2, 26580, Note_on_c, 0, 64, 123
2, 26633, Control_c, 0, 64, 127
2, 26633, Control_c, 0, 64, 0
2, 26639, Note_on_c, 0, 33, 116
2, 26640, Note_on_c, 0, 45, 0
2, 26640, Note_on_c, 0, 45, 116
2, 26644, Control_c, 0, 64, 127
2, 26678, Note_on_c, 0, 64, 0
2, 26678, Note_on_c, 0, 57, 0
2, 26678, Note_on_c, 0, 61, 0
2, 26700, Note_on_c, 0, 45, 0
2, 26705, Note_on_c, 0, 69, 126
2, 26705, Note_on_c, 0, 64, 126
2, 26705, Note_on_c, 0, 61, 121
2, 26706, Note_on_c, 0, 57, 126
2, 26733, Note_on_c, 0, 33, 0
2, 26759, Note_on_c, 0, 45, 113
2, 26759, Note_on_c, 0, 33, 113
2, 26780, Note_on_c, 0, 57, 0
2, 26783, Note_on_c, 0, 61, 0
2, 26783, Note_on_c, 0, 69, 0
2, 26784, Note_on_c, 0, 64, 0
2, 26784, Control_c, 0, 64, 0
2, 26786, Control_c, 0, 64, 127
2, 26788, Control_c, 0, 64, 0
2, 26794, Note_on_c, 0, 61, 113
2, 26795, Note_on_c, 0, 64, 112
2, 26795, Note_on_c, 0, 57, 112
2, 26815, Control_c, 0, 64, 127
2, 26819, Note_on_c, 0, 33, 0
2, 26837, Note_on_c, 0, 45, 0
2, 26848, Note_on_c, 0, 33, 114
2, 26862, Note_on_c, 0, 57, 0
2, 26865, Note_on_c, 0, 33, 0
2, 26868, Note_on_c, 0, 64, 0
2, 26871, Note_on_c, 0, 61, 0
2, 26876, Control_c, 0, 64, 0
2, 26878, Note_on_c, 0, 43, 114
2, 26878, Note_on_c, 0, 31, 123
2, 26879, Note_on_c, 0, 67, 119
2, 26879, Note_on_c, 0, 62, 123
2, 26879, Note_on_c, 0, 59, 116
2, 26956, Note_on_c, 0, 59, 0
2, 26958, Note_on_c, 0, 62, 0
2, 26960, Note_on_c, 0, 67, 0
2, 26969, Note_on_c, 0, 67, 121
2, 26969, Note_on_c, 0, 62, 126
2, 26969, Note_on_c, 0, 59, 117
2, 26984, Note_on_c, 0, 43, 0
2, 26999, Note_on_c, 0, 43, 127
2, 27000, Note_on_c, 0, 31, 0
2, 27002, Note_on_c, 0, 59, 0
2, 27003, Note_on_c, 0, 62, 0
2, 27010, Note_on_c, 0, 67, 0
2, 27059, Note_on_c, 0, 66, 127
2, 27059, Note_on_c, 0, 62, 127
2, 27059, Note_on_c, 0, 57, 127
2, 27060, Note_on_c, 0, 43, 0
2, 27118, Note_on_c, 0, 38, 127
2, 27119, Note_on_c, 0, 66, 0
2, 27119, Note_on_c, 0, 57, 0
2, 27119, Note_on_c, 0, 62, 0
2, 27120, Note_on_c, 0, 26, 127
2, 27179, Note_on_c, 0, 38, 0
2, 27181, Note_on_c, 0, 26, 0
2, 27360, Note_on_c, 0, 59, 117
2, 27360, Note_on_c, 0, 68, 121
2, 27360, Note_on_c, 0, 64, 123
2, 27360, Note_on_c, 0, 40, 127
2, 27399, Note_on_c, 0, 59, 0
2, 27401, Note_on_c, 0, 68, 0
2, 27402, Note_on_c, 0, 64, 0
2, 27417, Note_on_c, 0, 40, 0
2, 27450, Note_on_c, 0, 59, 113
2, 27450, Note_on_c, 0, 68, 123
2, 27450, Note_on_c, 0, 64, 126
2, 27480, Note_on_c, 0, 64, 0
2, 27480, Note_on_c, 0, 40, 126
2, 27483, Note_on_c, 0, 68, 0
2, 27483, Note_on_c, 0, 59, 0
2, 27540, Note_on_c, 0, 64, 121
2, 27540, Note_on_c, 0, 61, 113
2, 27540, Note_on_c, 0, 69, 121
2, 27541, Note_on_c, 0, 40, 0
2, 27600, Note_on_c, 0, 40, 123
2, 27647, Note_on_c, 0, 64, 0
2, 27655, Note_on_c, 0, 61, 0
2, 27660, Note_on_c, 0, 64, 127
2, 27667, Note_on_c, 0, 40, 0
2, 27706, Note_on_c, 0, 64, 0
2, 27720, Note_on_c, 0, 40, 119
2, 27750, Note_on_c, 0, 64, 127
2, 27763, Note_on_c, 0, 69, 0
2, 27793, Note_on_c, 0, 40, 0
2, 27794, Note_on_c, 0, 64, 0
2, 27810, Note_on_c, 0, 64, 116
2, 27836, Note_on_c, 0, 64, 0
2, 27840, Note_on_c, 0, 59, 121
2, 27840, Note_on_c, 0, 68, 119
2, 27840, Note_on_c, 0, 64, 123
2, 27840, Note_on_c, 0, 40, 121
2, 27907, Note_on_c, 0, 40, 0
2, 27918, Note_on_c, 0, 59, 0
2, 27918, Note_on_c, 0, 68, 0
2, 27919, Note_on_c, 0, 64, 0
2, 27930, Note_on_c, 0, 61, 108
2, 27930, Note_on_c, 0, 64, 126
2, 27930, Note_on_c, 0, 69, 116
2, 27958, Note_on_c, 0, 64, 0
2, 27960, Note_on_c, 0, 61, 0
2, 27960, Note_on_c, 0, 40, 123
2, 27967, Note_on_c, 0, 69, 0
2, 28020, Note_on_c, 0, 40, 0
2, 28020, Note_on_c, 0, 68, 110
2, 28020, Note_on_c, 0, 59, 111
2, 28020, Note_on_c, 0, 64, 119
2, 28080, Note_on_c, 0, 40, 126
2, 28127, Note_on_c, 0, 59, 0
2, 28140, Note_on_c, 0, 59, 123
2, 28247, Note_on_c, 0, 40, 0
2, 28260, Note_on_c, 0, 40, 126
2, 28290, Note_on_c, 0, 68, 0
2, 28290, Note_on_c, 0, 64, 0
2, 28292, Note_on_c, 0, 40, 0
2, 28293, Note_on_c, 0, 59, 0
2, 28320, Note_on_c, 0, 68, 126
2, 28320, Note_on_c, 0, 64, 127
2, 28320, Note_on_c, 0, 61, 118
2, 28320, Note_on_c, 0, 49, 119
2, 28320, Note_on_c, 0, 37, 126
2, 28401, Note_on_c, 0, 61, 0
2, 28405, Note_on_c, 0, 68, 0
2, 28405, Note_on_c, 0, 64, 0
2, 28410, Note_on_c, 0, 68, 116
2, 28410, Note_on_c, 0, 64, 114
2, 28410, Note_on_c, 0, 61, 107
2, 28423, Note_on_c, 0, 49, 0
2, 28424, Note_on_c, 0, 37, 0
2, 28438, Note_on_c, 0, 64, 0
2, 28440, Note_on_c, 0, 49, 119
2, 28440, Note_on_c, 0, 37, 116
2, 28441, Note_on_c, 0, 61, 0
2, 28442, Note_on_c, 0, 68, 0
2, 28487, Note_on_c, 0, 49, 0
2, 28490, Note_on_c, 0, 37, 0
2, 28500, Note_on_c, 0, 63, 116
2, 28500, Note_on_c, 0, 66, 123
2, 28500, Note_on_c, 0, 59, 113
2, 28553, Control_c, 0, 64, 127
2, 28553, Control_c, 0, 64, 0
2, 28560, Note_on_c, 0, 35, 116
2, 28560, Note_on_c, 0, 47, 116
2, 28564, Control_c, 0, 64, 127
2, 28598, Note_on_c, 0, 59, 0
2, 28598, Note_on_c, 0, 63, 0
2, 28598, Note_on_c, 0, 66, 0
2, 28620, Note_on_c, 0, 71, 127
2, 28654, Note_on_c, 0, 71, 0
2, 28654, Note_on_c, 0, 35, 0
2, 28656, Note_on_c, 0, 47, 0
2, 28680, Note_on_c, 0, 59, 127
2, 28680, Note_on_c, 0, 35, 113
2, 28680, Note_on_c, 0, 47, 113
2, 28695, Note_on_c, 0, 59, 0
2, 28704, Control_c, 0, 64, 0
2, 28706, Control_c, 0, 64, 127
2, 28708, Control_c, 0, 64, 0
2, 28710, Note_on_c, 0, 59, 107
2, 28735, Control_c, 0, 64, 127
2, 28740, Note_on_c, 0, 35, 0
2, 28758, Note_on_c, 0, 47, 0
2, 28762, Note_on_c, 0, 59, 0
2, 28770, Note_on_c, 0, 59, 88
2, 28770, Note_on_c, 0, 35, 114
2, 28781, Note_on_c, 0, 59, 0
2, 28787, Note_on_c, 0, 35, 0
2, 28796, Control_c, 0, 64, 0
2, 28800, Note_on_c, 0, 61, 116
2, 28800, Note_on_c, 0, 64, 123
2, 28800, Note_on_c, 0, 45, 114
2, 28800, Note_on_c, 0, 33, 123
2, 28800, Note_on_c, 0, 69, 119
2, 28877, Note_on_c, 0, 61, 0
2, 28879, Note_on_c, 0, 64, 0
2, 28881, Note_on_c, 0, 69, 0
2, 28890, Note_on_c, 0, 61, 117
2, 28890, Note_on_c, 0, 64, 126
2, 28890, Note_on_c, 0, 69, 121
2, 28906, Note_on_c, 0, 45, 0
2, 28920, Note_on_c, 0, 45, 127
2, 28922, Note_on_c, 0, 33, 0
2, 28923, Note_on_c, 0, 61, 0
2, 28924, Note_on_c, 0, 64, 0
2, 28931, Note_on_c, 0, 69, 0
2, 28980, Note_on_c, 0, 68, 127
2, 28980, Note_on_c, 0, 59, 127
2, 28980, Note_on_c, 0, 64, 127
2, 28981, Note_on_c, 0, 45, 0
2, 29040, Note_on_c, 0, 68, 0
2, 29040, Note_on_c, 0, 59, 0
2, 29040, Note_on_c, 0, 64, 0
2, 29040, Note_on_c, 0, 40, 113
2, 29100, Note_on_c, 0, 73, 127
2, 29100, Note_on_c, 0, 61, 127
2, 29101, Note_on_c, 0, 40, 0
2, 29119, Note_on_c, 0, 73, 0
2, 29125, Note_on_c, 0, 61, 0
2, 29130, Note_on_c, 0, 76, 127
2, 29130, Note_on_c, 0, 64, 127
2, 29160, Note_on_c, 0, 40, 113
2, 29190, Note_on_c, 0, 61, 126
2, 29190, Note_on_c, 0, 73, 119
2, 29194, Note_on_c, 0, 76, 0
2, 29198, Note_on_c, 0, 64, 0
2, 29204, Note_on_c, 0, 73, 0
2, 29213, Note_on_c, 0, 61, 0
2, 29220, Note_on_c, 0, 64, 127
2, 29220, Note_on_c, 0, 76, 127
2, 29221, Note_on_c, 0, 40, 0
2, 29271, Note_on_c, 0, 64, 0
2, 29280, Note_on_c, 0, 59, 117
2, 29280, Note_on_c, 0, 68, 121
2, 29280, Note_on_c, 0, 64, 123
2, 29280, Note_on_c, 0, 40, 127
2, 29282, Note_on_c, 0, 76, 0
2, 29319, Note_on_c, 0, 59, 0
2, 29321, Note_on_c, 0, 68, 0
2, 29322, Note_on_c, 0, 64, 0
2, 29370, Note_on_c, 0, 59, 113
2, 29370, Note_on_c, 0, 68, 123
2, 29370, Note_on_c, 0, 64, 126
2, 29380, Note_on_c, 0, 40, 0
2, 29400, Note_on_c, 0, 64, 0
2, 29400, Note_on_c, 0, 40, 126
2, 29403, Note_on_c, 0, 68, 0
2, 29403, Note_on_c, 0, 59, 0
2, 29460, Note_on_c, 0, 64, 121
2, 29460, Note_on_c, 0, 61, 113
2, 29460, Note_on_c, 0, 69, 121
2, 29502, Note_on_c, 0, 40, 0
2, 29520, Note_on_c, 0, 40, 123
2, 29567, Note_on_c, 0, 64, 0
2, 29580, Note_on_c, 0, 64, 119
2, 29640, Note_on_c, 0, 52, 127
2, 29651, Note_on_c, 0, 64, 0
2, 29670, Note_on_c, 0, 64, 126
2, 29711, Note_on_c, 0, 64, 0
2, 29715, Note_on_c, 0, 40, 0
2, 29726, Note_on_c, 0, 52, 0
2, 29730, Note_on_c, 0, 52, 113
2, 29730, Note_on_c, 0, 64, 92
2, 29736, Note_on_c, 0, 69, 0
2, 29744, Note_on_c, 0, 61, 0
2, 29756, Note_on_c, 0, 64, 0
2, 29760, Note_on_c, 0, 59, 121
2, 29760, Note_on_c, 0, 68, 119
2, 29760, Note_on_c, 0, 64, 123
2, 29760, Note_on_c, 0, 40, 121
2, 29763, Note_on_c, 0, 52, 0
2, 29838, Note_on_c, 0, 59, 0
2, 29838, Note_on_c, 0, 68, 0
2, 29839, Note_on_c, 0, 64, 0
2, 29850, Note_on_c, 0, 61, 108
2, 29850, Note_on_c, 0, 64, 126
2, 29850, Note_on_c, 0, 69, 116
2, 29864, Note_on_c, 0, 40, 0
2, 29878, Note_on_c, 0, 64, 0
2, 29880, Note_on_c, 0, 61, 0
2, 29880, Note_on_c, 0, 40, 123
2, 29887, Note_on_c, 0, 69, 0
2, 29940, Note_on_c, 0, 68, 110
2, 29940, Note_on_c, 0, 59, 111
2, 29940, Note_on_c, 0, 64, 119
2, 29984, Note_on_c, 0, 40, 0
2, 30000, Note_on_c, 0, 40, 126
2, 30060, Note_on_c, 0, 52, 123
2, 30112, Note_on_c, 0, 40, 0
2, 30120, Note_on_c, 0, 52, 0
2, 30120, Note_on_c, 0, 40, 123
2, 30180, Note_on_c, 0, 52, 123
2, 30210, Note_on_c, 0, 64, 0
2, 30210, Note_on_c, 0, 68, 0
2, 30210, Note_on_c, 0, 59, 0
2, 30224, Note_on_c, 0, 40, 0
2, 30240, Note_on_c, 0, 52, 0
2, 30240, Note_on_c, 0, 68, 126
2, 30240, Note_on_c, 0, 64, 127
2, 30240, Note_on_c, 0, 61, 118
2, 30240, Note_on_c, 0, 49, 119
2, 30240, Note_on_c, 0, 37, 126
2, 30321, Note_on_c, 0, 61, 0
2, 30325, Note_on_c, 0, 68, 0
2, 30325, Note_on_c, 0, 64, 0
2, 30330, Note_on_c, 0, 68, 116
2, 30330, Note_on_c, 0, 64, 114
2, 30330, Note_on_c, 0, 61, 107
2, 30343, Note_on_c, 0, 49, 0
2, 30344, Note_on_c, 0, 37, 0
2, 30358, Note_on_c, 0, 64, 0
2, 30360, Note_on_c, 0, 49, 119
2, 30360, Note_on_c, 0, 37, 116
2, 30361, Note_on_c, 0, 61, 0
2, 30362, Note_on_c, 0, 68, 0
2, 30407, Note_on_c, 0, 49, 0
2, 30410, Note_on_c, 0, 37, 0
2, 30420, Note_on_c, 0, 63, 116
2, 30420, Note_on_c, 0, 66, 123
2, 30420, Note_on_c, 0, 59, 113
2, 30420, Note_on_c, 0, 47, 119
2, 30420, Note_on_c, 0, 35, 119
2, 30473, Control_c, 0, 64, 127
2, 30473, Control_c, 0, 64, 0
2, 30479, Note_on_c, 0, 35, 0
2, 30479, Note_on_c, 0, 47, 0
2, 30480, Note_on_c, 0, 35, 116
2, 30480, Note_on_c, 0, 47, 116
2, 30484, Control_c, 0, 64, 127
2, 30518, Note_on_c, 0, 63, 0
2, 30518, Note_on_c, 0, 59, 0
2, 30518, Note_on_c, 0, 66, 0
2, 30540, Note_on_c, 0, 59, 123
2, 30540, Note_on_c, 0, 71, 123
2, 30574, Note_on_c, 0, 35, 0
2, 30576, Note_on_c, 0, 47, 0
2, 30592, Note_on_c, 0, 59, 0
2, 30600, Note_on_c, 0, 59, 105
2, 30600, Note_on_c, 0, 35, 113
2, 30600, Note_on_c, 0, 47, 113
2, 30615, Note_on_c, 0, 59, 0
2, 30624, Control_c, 0, 64, 0
2, 30626, Control_c, 0, 64, 127
2, 30628, Control_c, 0, 64, 0
2, 30630, Note_on_c, 0, 59, 123
2, 30655, Control_c, 0, 64, 127
2, 30660, Note_on_c, 0, 35, 0
2, 30678, Note_on_c, 0, 47, 0
2, 30682, Note_on_c, 0, 59, 0
2, 30690, Note_on_c, 0, 59, 88
2, 30690, Note_on_c, 0, 35, 114
2, 30701, Note_on_c, 0, 59, 0
2, 30707, Note_on_c, 0, 35, 0
2, 30714, Note_on_c, 0, 71, 0
2, 30716, Control_c, 0, 64, 0
2, 30720, Note_on_c, 0, 61, 116
2, 30720, Note_on_c, 0, 64, 123
2, 30720, Note_on_c, 0, 45, 114
2, 30720, Note_on_c, 0, 33, 123
2, 30720, Note_on_c, 0, 69, 119
2, 30797, Note_on_c, 0, 61, 0
2, 30799, Note_on_c, 0, 64, 0
2, 30801, Note_on_c, 0, 69, 0
2, 30810, Note_on_c, 0, 61, 117
2, 30810, Note_on_c, 0, 64, 126
2, 30810, Note_on_c, 0, 69, 121
2, 30826, Note_on_c, 0, 45, 0
2, 30840, Note_on_c, 0, 45, 127
2, 30842, Note_on_c, 0, 33, 0
2, 30843, Note_on_c, 0, 61, 0
2, 30844, Note_on_c, 0, 64, 0
2, 30851, Note_on_c, 0, 69, 0
2, 30900, Note_on_c, 0, 68, 127
2, 30900, Note_on_c, 0, 59, 127
2, 30900, Note_on_c, 0, 64, 127
2, 30901, Note_on_c, 0, 45, 0
2, 30960, Note_on_c, 0, 68, 0
2, 30960, Note_on_c, 0, 59, 0
2, 30960, Note_on_c, 0, 64, 0
2, 30960, Note_on_c, 0, 73, 121
2, 30960, Note_on_c, 0, 61, 116
2, 30960, Note_on_c, 0, 52, 127
2, 30960, Note_on_c, 0, 40, 127
2, 30978, Control_c, 0, 64, 127
2, 30979, Control_c, 0, 64, 0
2, 30984, Control_c, 0, 64, 127
2, 31000, Note_on_c, 0, 61, 0
2, 31003, Note_on_c, 0, 73, 0
2, 31020, Note_on_c, 0, 73, 123
2, 31020, Note_on_c, 0, 61, 117
2, 31021, Note_on_c, 0, 52, 0
2, 31021, Note_on_c, 0, 40, 0
2, 31042, Note_on_c, 0, 61, 0
2, 31043, Note_on_c, 0, 73, 0
2, 31080, Note_on_c, 0, 52, 127
2, 31141, Note_on_c, 0, 52, 0
2, 31149, Control_c, 0, 64, 0
2, 31152, Control_c, 0, 64, 127
2, 31152, Control_c, 0, 64, 0
2, 31200, Note_on_c, 0, 68, 127
2, 31200, Note_on_c, 0, 64, 127
2, 31200, Note_on_c, 0, 61, 127
2, 31200, Note_on_c, 0, 37, 127
2, 31272, Note_on_c, 0, 61, 0
2, 31272, Note_on_c, 0, 64, 0
2, 31283, Note_on_c, 0, 68, 0
2, 31290, Note_on_c, 0, 63, 119
2, 31290, Note_on_c, 0, 66, 126
2, 31290, Note_on_c, 0, 59, 119
2, 31311, Note_on_c, 0, 59, 0
2, 31311, Note_on_c, 0, 37, 0
2, 31313, Note_on_c, 0, 66, 0
2, 31316, Note_on_c, 0, 63, 0
2, 31320, Note_on_c, 0, 37, 126
2, 31380, Note_on_c, 0, 61, 121
2, 31380, Note_on_c, 0, 64, 127
2, 31380, Note_on_c, 0, 68, 127
2, 31416, Note_on_c, 0, 37, 0
2, 31435, Control_c, 0, 64, 127
2, 31435, Control_c, 0, 64, 0
2, 31440, Note_on_c, 0, 37, 119
2, 31445, Control_c, 0, 64, 127
2, 31487, Note_on_c, 0, 61, 0
2, 31500, Note_on_c, 0, 61, 127
2, 31501, Note_on_c, 0, 68, 0
2, 31501, Note_on_c, 0, 64, 0
2, 31560, Note_on_c, 0, 37, 0
2, 31560, Note_on_c, 0, 49, 126
2, 31585, Note_on_c, 0, 61, 0
2, 31662, Control_c, 0, 64, 0
2, 31666, Control_c, 0, 64, 127
2, 31666, Control_c, 0, 64, 0
2, 31678, Note_on_c, 0, 49, 0
2, 31680, Note_on_c, 0, 64, 127
2, 31680, Note_on_c, 0, 61, 127
2, 31680, Note_on_c, 0, 68, 123
2, 31680, Note_on_c, 0, 37, 123
2, 31701, Control_c, 0, 64, 127
2, 31701, Control_c, 0, 64, 0
2, 31702, Control_c, 0, 64, 127
2, 31702, Control_c, 0, 64, 0
2, 31704, Control_c, 0, 64, 127
2, 31737, Note_on_c, 0, 64, 0
2, 31738, Note_on_c, 0, 61, 0
2, 31750, Note_on_c, 0, 68, 0
2, 31768, Control_c, 0, 64, 0
2, 31770, Note_on_c, 0, 59, 117
2, 31770, Note_on_c, 0, 66, 126
2, 31770, Note_on_c, 0, 63, 119
2, 31782, Note_on_c, 0, 37, 0
2, 31786, Note_on_c, 0, 66, 0
2, 31788, Note_on_c, 0, 59, 0
2, 31788, Note_on_c, 0, 63, 0
2, 31800, Note_on_c, 0, 37, 123
2, 31860, Note_on_c, 0, 64, 127
2, 31860, Note_on_c, 0, 61, 118
2, 31860, Note_on_c, 0, 68, 121
2, 31863, Control_c, 0, 64, 127
2, 31893, Note_on_c, 0, 37, 0
2, 31920, Note_on_c, 0, 37, 123
2, 31946, Note_on_c, 0, 61, 0
2, 31974, Note_on_c, 0, 64, 0
2, 31975, Note_on_c, 0, 68, 0
2, 31980, Note_on_c, 0, 61, 127
2, 32038, Note_on_c, 0, 37, 0
2, 32040, Note_on_c, 0, 49, 127
2, 32042, Note_on_c, 0, 61, 0
2, 32070, Note_on_c, 0, 61, 127
2, 32123, Note_on_c, 0, 49, 0
2, 32124, Note_on_c, 0, 61, 0
2, 32130, Note_on_c, 0, 61, 127
2, 32130, Note_on_c, 0, 49, 111
2, 32133, Control_c, 0, 64, 0
2, 32152, Note_on_c, 0, 49, 0
2, 32156, Note_on_c, 0, 61, 0
2, 32160, Note_on_c, 0, 42, 121
2, 32160, Note_on_c, 0, 30, 116
2, 32160, Note_on_c, 0, 64, 123
2, 32160, Note_on_c, 0, 69, 119
2, 32160, Note_on_c, 0, 73, 127
2, 32278, Note_on_c, 0, 64, 0
2, 32280, Note_on_c, 0, 69, 0
2, 32283, Note_on_c, 0, 42, 0
2, 32284, Note_on_c, 0, 30, 0
2, 32284, Note_on_c, 0, 73, 0
2, 32400, Note_on_c, 0, 64, 118
2, 32400, Note_on_c, 0, 44, 119
2, 32400, Note_on_c, 0, 71, 123
2, 32514, Note_on_c, 0, 64, 0
2, 32522, Note_on_c, 0, 71, 0
2, 32526, Note_on_c, 0, 44, 0
2, 32640, Note_on_c, 0, 33, 121
2, 32640, Note_on_c, 0, 73, 121
2, 32640, Note_on_c, 0, 64, 123
2, 32640, Note_on_c, 0, 45, 114
2, 32640, Note_on_c, 0, 69, 127
2, 32764, Note_on_c, 0, 33, 0
2, 32765, Note_on_c, 0, 64, 0
2, 32766, Note_on_c, 0, 69, 0
2, 32773, Note_on_c, 0, 73, 0
2, 32777, Note_on_c, 0, 45, 0
2, 32880, Note_on_c, 0, 76, 127
2, 32880, Note_on_c, 0, 64, 127
2, 32900, Note_on_c, 0, 64, 0
2, 32902, Note_on_c, 0, 76, 0
2, 32940, Note_on_c, 0, 64, 127
2, 32940, Note_on_c, 0, 76, 127
2, 32993, Note_on_c, 0, 64, 0
2, 33000, Note_on_c, 0, 71, 116
2, 33000, Note_on_c, 0, 59, 114
2, 33001, Note_on_c, 0, 76, 0
2, 33024, Note_on_c, 0, 71, 0
2, 33030, Note_on_c, 0, 61, 127
2, 33030, Note_on_c, 0, 73, 123
2, 33038, Note_on_c, 0, 59, 0
2, 33050, Note_on_c, 0, 73, 0
2, 33056, Note_on_c, 0, 61, 0
2, 33060, Note_on_c, 0, 64, 127
2, 33060, Note_on_c, 0, 76, 127
2, 33118, Note_on_c, 0, 64, 0
2, 33120, Note_on_c, 0, 59, 117
2, 33120, Note_on_c, 0, 68, 121
2, 33120, Note_on_c, 0, 64, 123
2, 33120, Note_on_c, 0, 40, 127
2, 33122, Note_on_c, 0, 76, 0
2, 33159, Note_on_c, 0, 59, 0
2, 33161, Note_on_c, 0, 68, 0
2, 33162, Note_on_c, 0, 64, 0
2, 33208, Note_on_c, 0, 40, 0
2, 33210, Note_on_c, 0, 59, 113
2, 33210, Note_on_c, 0, 68, 123
2, 33210, Note_on_c, 0, 64, 126
2, 33240, Note_on_c, 0, 64, 0
2, 33240, Note_on_c, 0, 40, 126
2, 33243, Note_on_c, 0, 68, 0
2, 33243, Note_on_c, 0, 59, 0
2, 33300, Note_on_c, 0, 64, 121
2, 33300, Note_on_c, 0, 61, 113
2, 33300, Note_on_c, 0, 69, 121
2, 33338, Note_on_c, 0, 40, 0
2, 33360, Note_on_c, 0, 40, 123
2, 33407, Note_on_c, 0, 64, 0
2, 33415, Note_on_c, 0, 61, 0
2, 33420, Note_on_c, 0, 64, 127
2, 33458, Note_on_c, 0, 40, 0
2, 33466, Note_on_c, 0, 64, 0
2, 33480, Note_on_c, 0, 40, 119
2, 33510, Note_on_c, 0, 64, 127
2, 33523, Note_on_c, 0, 69, 0
2, 33554, Note_on_c, 0, 64, 0
2, 33570, Note_on_c, 0, 64, 116
2, 33581, Note_on_c, 0, 40, 0
2, 33596, Note_on_c, 0, 64, 0
2, 33600, Note_on_c, 0, 59, 121
2, 33600, Note_on_c, 0, 68, 119
2, 33600, Note_on_c, 0, 64, 123
2, 33600, Note_on_c, 0, 40, 121
2, 33678, Note_on_c, 0, 68, 0
2, 33678, Note_on_c, 0, 59, 0
2, 33679, Note_on_c, 0, 64, 0
2, 33690, Note_on_c, 0, 61, 108
2, 33690, Note_on_c, 0, 64, 126
2, 33690, Note_on_c, 0, 69, 116
2, 33698, Note_on_c, 0, 40, 0
2, 33718, Note_on_c, 0, 64, 0
2, 33720, Note_on_c, 0, 61, 0
2, 33720, Note_on_c, 0, 40, 123
2, 33727, Note_on_c, 0, 69, 0
2, 33780, Note_on_c, 0, 68, 110
2, 33780, Note_on_c, 0, 59, 111
2, 33780, Note_on_c, 0, 64, 119
2, 33815, Note_on_c, 0, 40, 0
2, 33840, Note_on_c, 0, 40, 126
2, 33887, Note_on_c, 0, 59, 0
2, 33900, Note_on_c, 0, 59, 123
2, 33960, Note_on_c, 0, 52, 123
2, 34007, Note_on_c, 0, 40, 0
2, 34020, Note_on_c, 0, 52, 0
2, 34020, Note_on_c, 0, 40, 126
2, 34050, Note_on_c, 0, 64, 0
2, 34050, Note_on_c, 0, 68, 0
2, 34053, Note_on_c, 0, 59, 0
2, 34071, Note_on_c, 0, 40, 0
2, 34080, Note_on_c, 0, 68, 126
2, 34080, Note_on_c, 0, 64, 127
2, 34080, Note_on_c, 0, 61, 118
2, 34080, Note_on_c, 0, 49, 119
2, 34080, Note_on_c, 0, 37, 126
2, 34161, Note_on_c, 0, 61, 0
2, 34165, Note_on_c, 0, 68, 0
2, 34165, Note_on_c, 0, 64, 0
2, 34170, Note_on_c, 0, 68, 116
2, 34170, Note_on_c, 0, 64, 114
2, 34170, Note_on_c, 0, 61, 107
2, 34183, Note_on_c, 0, 49, 0
2, 34184, Note_on_c, 0, 37, 0
2, 34198, Note_on_c, 0, 64, 0
2, 34200, Note_on_c, 0, 49, 119
2, 34200, Note_on_c, 0, 37, 116
2, 34201, Note_on_c, 0, 61, 0
2, 34202, Note_on_c, 0, 68, 0
2, 34247, Note_on_c, 0, 49, 0
2, 34250, Note_on_c, 0, 37, 0
2, 34260, Note_on_c, 0, 63, 116
2, 34260, Note_on_c, 0, 66, 123
2, 34260, Note_on_c, 0, 47, 119
2, 34260, Note_on_c, 0, 59, 113
2, 34260, Note_on_c, 0, 35, 116
2, 34307, Note_on_c, 0, 47, 0
2, 34310, Note_on_c, 0, 35, 0
2, 34313, Control_c, 0, 64, 127
2, 34313, Control_c, 0, 64, 0
2, 34320, Note_on_c, 0, 35, 116
2, 34320, Note_on_c, 0, 47, 116
2, 34324, Control_c, 0, 64, 127
2, 34358, Note_on_c, 0, 63, 0
2, 34358, Note_on_c, 0, 59, 0
2, 34358, Note_on_c, 0, 66, 0
2, 34380, Note_on_c, 0, 71, 127
2, 34414, Note_on_c, 0, 71, 0
2, 34414, Note_on_c, 0, 35, 0
2, 34416, Note_on_c, 0, 47, 0
2, 34440, Note_on_c, 0, 59, 127
2, 34440, Note_on_c, 0, 35, 113
2, 34440, Note_on_c, 0, 47, 113
2, 34455, Note_on_c, 0, 59, 0
2, 34464, Control_c, 0, 64, 0
2, 34466, Control_c, 0, 64, 127
2, 34468, Control_c, 0, 64, 0
2, 34470, Note_on_c, 0, 59, 107
2, 34495, Control_c, 0, 64, 127
2, 34500, Note_on_c, 0, 35, 0
2, 34518, Note_on_c, 0, 47, 0
2, 34522, Note_on_c, 0, 59, 0
2, 34530, Note_on_c, 0, 59, 88
2, 34530, Note_on_c, 0, 35, 114
2, 34541, Note_on_c, 0, 59, 0
2, 34547, Note_on_c, 0, 35, 0
2, 34556, Control_c, 0, 64, 0
2, 34560, Note_on_c, 0, 61, 116
2, 34560, Note_on_c, 0, 64, 123
2, 34560, Note_on_c, 0, 45, 114
2, 34560, Note_on_c, 0, 69, 119
2, 34637, Note_on_c, 0, 61, 0
2, 34639, Note_on_c, 0, 64, 0
2, 34641, Note_on_c, 0, 69, 0
2, 34650, Note_on_c, 0, 61, 117
2, 34650, Note_on_c, 0, 64, 126
2, 34650, Note_on_c, 0, 69, 121
2, 34666, Note_on_c, 0, 45, 0
2, 34680, Note_on_c, 0, 33, 123
2, 34683, Note_on_c, 0, 61, 0
2, 34684, Note_on_c, 0, 64, 0
2, 34691, Note_on_c, 0, 69, 0
2, 34739, Note_on_c, 0, 33, 0
2, 34740, Note_on_c, 0, 52, 127
2, 34740, Note_on_c, 0, 68, 127
2, 34740, Note_on_c, 0, 59, 127
2, 34740, Note_on_c, 0, 64, 127
2, 34800, Note_on_c, 0, 40, 127
2, 34800, Note_on_c, 0, 28, 127
2, 34801, Note_on_c, 0, 52, 0
2, 34845, Note_on_c, 0, 59, 0
2, 34849, Note_on_c, 0, 64, 0
2, 34851, Note_on_c, 0, 68, 0
2, 34860, Note_on_c, 0, 59, 127
2, 34908, Note_on_c, 0, 40, 0
2, 34911, Note_on_c, 0, 28, 0
2, 34912, Note_on_c, 0, 59, 0
2, 34920, Note_on_c, 0, 52, 127
2, 34920, Note_on_c, 0, 40, 127
2, 34920, Note_on_c, 0, 64, 127
2, 34972, Note_on_c, 0, 64, 0
2, 34980, Note_on_c, 0, 68, 127
2, 35028, Note_on_c, 0, 52, 0
2, 35031, Note_on_c, 0, 40, 0
2, 35032, Note_on_c, 0, 68, 0
2, 35040, Note_on_c, 0, 68, 126
2, 35040, Note_on_c, 0, 64, 127
2, 35040, Note_on_c, 0, 61, 118
2, 35040, Note_on_c, 0, 49, 119
2, 35040, Note_on_c, 0, 37, 126
2, 35121, Note_on_c, 0, 61, 0
2, 35125, Note_on_c, 0, 68, 0
2, 35125, Note_on_c, 0, 64, 0
2, 35130, Note_on_c, 0, 68, 116
2, 35130, Note_on_c, 0, 64, 114
2, 35130, Note_on_c, 0, 61, 107
2, 35143, Note_on_c, 0, 49, 0
2, 35144, Note_on_c, 0, 37, 0
2, 35158, Note_on_c, 0, 64, 0
2, 35160, Note_on_c, 0, 49, 119
2, 35160, Note_on_c, 0, 37, 116
2, 35161, Note_on_c, 0, 61, 0
2, 35162, Note_on_c, 0, 68, 0
2, 35207, Note_on_c, 0, 49, 0
2, 35210, Note_on_c, 0, 37, 0
2, 35220, Note_on_c, 0, 63, 116
2, 35220, Note_on_c, 0, 66, 123
2, 35220, Note_on_c, 0, 47, 119
2, 35220, Note_on_c, 0, 59, 113
2, 35267, Note_on_c, 0, 47, 0
2, 35273, Control_c, 0, 64, 127
2, 35273, Control_c, 0, 64, 0
2, 35280, Note_on_c, 0, 35, 116
2, 35284, Control_c, 0, 64, 127
2, 35318, Note_on_c, 0, 63, 0
2, 35318, Note_on_c, 0, 59, 0
2, 35318, Note_on_c, 0, 66, 0
2, 35340, Note_on_c, 0, 71, 127
2, 35374, Note_on_c, 0, 35, 0
2, 35400, Note_on_c, 0, 35, 113
2, 35400, Note_on_c, 0, 47, 113
2, 35424, Control_c, 0, 64, 0
2, 35426, Control_c, 0, 64, 127
2, 35428, Control_c, 0, 64, 0
2, 35430, Note_on_c, 0, 59, 118
2, 35455, Control_c, 0, 64, 127
2, 35460, Note_on_c, 0, 35, 0
2, 35461, Note_on_c, 0, 71, 0
2, 35478, Note_on_c, 0, 47, 0
2, 35482, Note_on_c, 0, 59, 0
2, 35490, Note_on_c, 0, 59, 88
2, 35490, Note_on_c, 0, 35, 114
2, 35501, Note_on_c, 0, 59, 0
2, 35507, Note_on_c, 0, 35, 0
2, 35516, Control_c, 0, 64, 0
2, 35520, Note_on_c, 0, 61, 116
2, 35520, Note_on_c, 0, 64, 123
2, 35520, Note_on_c, 0, 45, 114
2, 35520, Note_on_c, 0, 69, 119
2, 35597, Note_on_c, 0, 61, 0
2, 35599, Note_on_c, 0, 64, 0
2, 35601, Note_on_c, 0, 69, 0
2, 35610, Note_on_c, 0, 61, 117
2, 35610, Note_on_c, 0, 64, 126
2, 35610, Note_on_c, 0, 69, 121
2, 35626, Note_on_c, 0, 45, 0
2, 35640, Note_on_c, 0, 33, 123
2, 35643, Note_on_c, 0, 61, 0
2, 35644, Note_on_c, 0, 64, 0
2, 35651, Note_on_c, 0, 69, 0
2, 35700, Note_on_c, 0, 68, 127
2, 35700, Note_on_c, 0, 59, 127
2, 35700, Note_on_c, 0, 64, 127
2, 35740, Note_on_c, 0, 33, 0
2, 35760, Note_on_c, 0, 52, 127
2, 35760, Note_on_c, 0, 40, 127
2, 35868, Note_on_c, 0, 40, 0
2, 35871, Note_on_c, 0, 52, 0
2, 35880, Note_on_c, 0, 52, 127
2, 35987, Note_on_c, 0, 68, 0
2, 35988, Note_on_c, 0, 52, 0
2, 35993, Note_on_c, 0, 64, 0
2, 35996, Note_on_c, 0, 59, 0
2, 36000, Note_on_c, 0, 40, 127
2, 36000, Note_on_c, 0, 28, 123
2, 36000, Note_on_c, 0, 64, 123
2, 36000, Note_on_c, 0, 59, 127
2, 36000, Note_on_c, 0, 56, 123
2, 36000, Note_on_c, 0, 52, 121
2, 36068, Note_on_c, 0, 52, 0
2, 36070, Note_on_c, 0, 59, 0
2, 36070, Note_on_c, 0, 64, 0
2, 36070, Note_on_c, 0, 56, 0
2, 36090, Note_on_c, 0, 40, 0
2, 36090, Note_on_c, 0, 57, 106
2, 36090, Note_on_c, 0, 61, 116
2, 36090, Note_on_c, 0, 52, 113
2, 36090, Note_on_c, 0, 64, 118
2, 36102, Note_on_c, 0, 61, 0
2, 36104, Note_on_c, 0, 52, 0
2, 36105, Note_on_c, 0, 57, 0
2, 36108, Note_on_c, 0, 64, 0
2, 36120, Note_on_c, 0, 40, 114
2, 36180, Note_on_c, 0, 59, 123
2, 36180, Note_on_c, 0, 56, 118
2, 36180, Note_on_c, 0, 52, 123
2, 36180, Note_on_c, 0, 64, 126
2, 36253, Note_on_c, 0, 40, 0
2, 36289, Note_on_c, 0, 28, 0
2, 36300, Note_on_c, 0, 40, 116
2, 36304, Note_on_c, 0, 52, 0
2, 36311, Note_on_c, 0, 40, 0
2, 36360, Note_on_c, 0, 52, 123
2, 36419, Note_on_c, 0, 52, 0
2, 36420, Note_on_c, 0, 40, 117
2, 36441, Note_on_c, 0, 56, 0
2, 36443, Note_on_c, 0, 59, 0
2, 36446, Note_on_c, 0, 64, 0
2, 36450, Note_on_c, 0, 52, 113
2, 36471, Note_on_c, 0, 52, 0
2, 36474, Note_on_c, 0, 40, 0
2, 36480, Note_on_c, 0, 28, 123
2, 36480, Note_on_c, 0, 52, 119
2, 36480, Note_on_c, 0, 56, 123
2, 36480, Note_on_c, 0, 59, 126
2, 36480, Note_on_c, 0, 64, 126
2, 36557, Note_on_c, 0, 52, 0
2, 36559, Note_on_c, 0, 56, 0
2, 36561, Note_on_c, 0, 59, 0
2, 36565, Note_on_c, 0, 64, 0
2, 36570, Note_on_c, 0, 57, 110
2, 36570, Note_on_c, 0, 61, 113
2, 36570, Note_on_c, 0, 64, 113
2, 36570, Note_on_c, 0, 52, 110
2, 36578, Note_on_c, 0, 61, 0
2, 36579, Note_on_c, 0, 57, 0
2, 36583, Note_on_c, 0, 64, 0
2, 36587, Note_on_c, 0, 52, 0
2, 36600, Note_on_c, 0, 40, 117
2, 36660, Note_on_c, 0, 56, 119
2, 36660, Note_on_c, 0, 59, 118
2, 36660, Note_on_c, 0, 52, 126
2, 36660, Note_on_c, 0, 64, 123
2, 36674, Note_on_c, 0, 40, 0
2, 36717, Note_on_c, 0, 52, 0
2, 36718, Note_on_c, 0, 56, 0
2, 36719, Note_on_c, 0, 28, 0
2, 36720, Note_on_c, 0, 64, 0
2, 36720, Note_on_c, 0, 40, 126
2, 36723, Note_on_c, 0, 59, 0
2, 36728, Control_c, 0, 64, 127
2, 36750, Note_on_c, 0, 57, 61
2, 36754, Note_on_c, 0, 57, 0
2, 36774, Note_on_c, 0, 40, 0
2, 36774, Control_c, 0, 64, 0
2, 36780, Note_on_c, 0, 28, 119
2, 36780, Note_on_c, 0, 54, 126
2, 36780, Note_on_c, 0, 62, 123
2, 36780, Note_on_c, 0, 57, 127
2, 36840, Note_on_c, 0, 28, 0
2, 36840, Note_on_c, 0, 40, 127
2, 36845, Note_on_c, 0, 54, 0
2, 36856, Note_on_c, 0, 57, 0
2, 36859, Note_on_c, 0, 62, 0
2, 36870, Note_on_c, 0, 61, 127
2, 36870, Note_on_c, 0, 52, 126
2, 36870, Note_on_c, 0, 57, 121
2, 36898, Note_on_c, 0, 40, 0
2, 36900, Note_on_c, 0, 43, 127
2, 36928, Note_on_c, 0, 43, 0
2, 36930, Note_on_c, 0, 44, 127
2, 36941, Note_on_c, 0, 52, 0
2, 36945, Note_on_c, 0, 57, 0
2, 36948, Note_on_c, 0, 61, 0
2, 36951, Note_on_c, 0, 44, 0
2, 36960, Note_on_c, 0, 40, 127
2, 36960, Note_on_c, 0, 28, 123
2, 36960, Note_on_c, 0, 64, 123
2, 36960, Note_on_c, 0, 59, 127
2, 36960, Note_on_c, 0, 56, 123
2, 36960, Note_on_c, 0, 52, 121
2, 37028, Note_on_c, 0, 52, 0
2, 37030, Note_on_c, 0, 59, 0
2, 37030, Note_on_c, 0, 64, 0
2, 37030, Note_on_c, 0, 56, 0
2, 37050, Note_on_c, 0, 40, 0
2, 37050, Note_on_c, 0, 57, 106
2, 37050, Note_on_c, 0, 61, 116
2, 37050, Note_on_c, 0, 52, 113
2, 37050, Note_on_c, 0, 64, 118
2, 37062, Note_on_c, 0, 61, 0
2, 37064, Note_on_c, 0, 52, 0
2, 37065, Note_on_c, 0, 57, 0
2, 37068, Note_on_c, 0, 64, 0
2, 37080, Note_on_c, 0, 40, 114
2, 37140, Note_on_c, 0, 59, 123
2, 37140, Note_on_c, 0, 56, 118
2, 37140, Note_on_c, 0, 52, 123
2, 37140, Note_on_c, 0, 64, 126
2, 37213, Note_on_c, 0, 40, 0
2, 37249, Note_on_c, 0, 28, 0
2, 37260, Note_on_c, 0, 40, 116
2, 37264, Note_on_c, 0, 52, 0
2, 37271, Note_on_c, 0, 40, 0
2, 37320, Note_on_c, 0, 52, 123
2, 37379, Note_on_c, 0, 52, 0
2, 37380, Note_on_c, 0, 40, 117
2, 37401, Note_on_c, 0, 56, 0
2, 37403, Note_on_c, 0, 59, 0
2, 37406, Note_on_c, 0, 64, 0
2, 37410, Note_on_c, 0, 52, 113
2, 37431, Note_on_c, 0, 52, 0
2, 37434, Note_on_c, 0, 40, 0
2, 37440, Note_on_c, 0, 28, 123
2, 37440, Note_on_c, 0, 52, 119
2, 37440, Note_on_c, 0, 56, 123
2, 37440, Note_on_c, 0, 59, 126
2, 37440, Note_on_c, 0, 64, 126
2, 37517, Note_on_c, 0, 52, 0
2, 37519, Note_on_c, 0, 56, 0
2, 37521, Note_on_c, 0, 59, 0
2, 37525, Note_on_c, 0, 64, 0
2, 37530, Note_on_c, 0, 57, 110
2, 37530, Note_on_c, 0, 61, 113
2, 37530, Note_on_c, 0, 64, 113
2, 37530, Note_on_c, 0, 52, 110
2, 37538, Note_on_c, 0, 61, 0
2, 37539, Note_on_c, 0, 57, 0
2, 37543, Note_on_c, 0, 64, 0
2, 37547, Note_on_c, 0, 52, 0
2, 37560, Note_on_c, 0, 40, 117
2, 37620, Note_on_c, 0, 56, 119
2, 37620, Note_on_c, 0, 59, 118
2, 37620, Note_on_c, 0, 52, 126
2, 37620, Note_on_c, 0, 64, 123
2, 37634, Note_on_c, 0, 40, 0
2, 37677, Note_on_c, 0, 52, 0
2, 37678, Note_on_c, 0, 56, 0
2, 37679, Note_on_c, 0, 28, 0
2, 37680, Note_on_c, 0, 64, 0
2, 37680, Note_on_c, 0, 40, 126
2, 37683, Note_on_c, 0, 59, 0
2, 37688, Control_c, 0, 64, 127
2, 37710, Note_on_c, 0, 57, 61
2, 37714, Note_on_c, 0, 57, 0
2, 37734, Note_on_c, 0, 40, 0
2, 37734, Control_c, 0, 64, 0
2, 37740, Note_on_c, 0, 28, 119
2, 37740, Note_on_c, 0, 54, 126
2, 37740, Note_on_c, 0, 62, 123
2, 37740, Note_on_c, 0, 57, 127
2, 37800, Note_on_c, 0, 28, 0
2, 37800, Note_on_c, 0, 40, 127
2, 37805, Note_on_c, 0, 54, 0
2, 37816, Note_on_c, 0, 57, 0
2, 37819, Note_on_c, 0, 62, 0
2, 37830, Note_on_c, 0, 61, 127
2, 37830, Note_on_c, 0, 52, 126
2, 37830, Note_on_c, 0, 57, 121
2, 37858, Note_on_c, 0, 40, 0
2, 37860, Note_on_c, 0, 43, 127
2, 37888, Note_on_c, 0, 43, 0
2, 37890, Note_on_c, 0, 44, 127
2, 37901, Note_on_c, 0, 52, 0
2, 37905, Note_on_c, 0, 57, 0
2, 37908, Note_on_c, 0, 61, 0
2, 37911, Note_on_c, 0, 44, 0
2, 37920, Note_on_c, 0, 40, 127
2, 37920, Note_on_c, 0, 28, 123
2, 37920, Note_on_c, 0, 64, 123
2, 37920, Note_on_c, 0, 59, 127
2, 37920, Note_on_c, 0, 56, 123
2, 37920, Note_on_c, 0, 52, 121
2, 37988, Note_on_c, 0, 52, 0
2, 37990, Note_on_c, 0, 59, 0
2, 37990, Note_on_c, 0, 64, 0
2, 37990, Note_on_c, 0, 56, 0
2, 38010, Note_on_c, 0, 40, 0
2, 38010, Note_on_c, 0, 57, 106
2, 38010, Note_on_c, 0, 61, 116
2, 38010, Note_on_c, 0, 52, 113
2, 38010, Note_on_c, 0, 64, 118
2, 38022, Note_on_c, 0, 61, 0
2, 38024, Note_on_c, 0, 52, 0
2, 38025, Note_on_c, 0, 57, 0
2, 38028, Note_on_c, 0, 64, 0
2, 38040, Note_on_c, 0, 40, 114
2, 38100, Note_on_c, 0, 59, 123
2, 38100, Note_on_c, 0, 56, 118
2, 38100, Note_on_c, 0, 52, 123
2, 38100, Note_on_c, 0, 64, 126
2, 38173, Note_on_c, 0, 40, 0
2, 38209, Note_on_c, 0, 28, 0
2, 38220, Note_on_c, 0, 40, 116
2, 38224, Note_on_c, 0, 52, 0
2, 38231, Note_on_c, 0, 40, 0
2, 38280, Note_on_c, 0, 52, 123
2, 38339, Note_on_c, 0, 52, 0
2, 38340, Note_on_c, 0, 40, 117
2, 38361, Note_on_c, 0, 56, 0
2, 38363, Note_on_c, 0, 59, 0
2, 38366, Note_on_c, 0, 64, 0
2, 38370, Note_on_c, 0, 52, 113
2, 38391, Note_on_c, 0, 52, 0
2, 38394, Note_on_c, 0, 40, 0
2, 38400, Note_on_c, 0, 28, 123
2, 38400, Note_on_c, 0, 52, 119
2, 38400, Note_on_c, 0, 56, 123
2, 38400, Note_on_c, 0, 59, 126
2, 38400, Note_on_c, 0, 64, 126
2, 38477, Note_on_c, 0, 52, 0
2, 38479, Note_on_c, 0, 56, 0
2, 38481, Note_on_c, 0, 59, 0
2, 38485, Note_on_c, 0, 64, 0
2, 38490, Note_on_c, 0, 57, 110
2, 38490, Note_on_c, 0, 61, 113
2, 38490, Note_on_c, 0, 64, 113
2, 38490, Note_on_c, 0, 52, 110
2, 38498, Note_on_c, 0, 61, 0
2, 38499, Note_on_c, 0, 57, 0
2, 38503, Note_on_c, 0, 64, 0
2, 38507, Note_on_c, 0, 52, 0
2, 38520, Note_on_c, 0, 40, 117
2, 38580, Note_on_c, 0, 56, 119
2, 38580, Note_on_c, 0, 59, 118
2, 38580, Note_on_c, 0, 52, 126
2, 38580, Note_on_c, 0, 64, 123
2, 38594, Note_on_c, 0, 40, 0
2, 38637, Note_on_c, 0, 52, 0
2, 38638, Note_on_c, 0, 56, 0
2, 38639, Note_on_c, 0, 28, 0
2, 38640, Note_on_c, 0, 64, 0
2, 38640, Note_on_c, 0, 40, 126
2, 38643, Note_on_c, 0, 59, 0
2, 38648, Control_c, 0, 64, 127
2, 38670, Note_on_c, 0, 57, 61
2, 38674, Note_on_c, 0, 57, 0
2, 38694, Note_on_c, 0, 40, 0
2, 38694, Control_c, 0, 64, 0
2, 38700, Note_on_c, 0, 28, 119
2, 38700, Note_on_c, 0, 54, 126
2, 38700, Note_on_c, 0, 62, 123
2, 38700, Note_on_c, 0, 57, 127
2, 38760, Note_on_c, 0, 28, 0
2, 38760, Note_on_c, 0, 40, 127
2, 38765, Note_on_c, 0, 54, 0
2, 38776, Note_on_c, 0, 57, 0
2, 38779, Note_on_c, 0, 62, 0
2, 38790, Note_on_c, 0, 61, 127
2, 38790, Note_on_c, 0, 52, 126
2, 38790, Note_on_c, 0, 57, 121
2, 38818, Note_on_c, 0, 40, 0
2, 38820, Note_on_c, 0, 43, 127
2, 38848, Note_on_c, 0, 43, 0
2, 38850, Note_on_c, 0, 44, 127
2, 38861, Note_on_c, 0, 52, 0
2, 38865, Note_on_c, 0, 57, 0
2, 38868, Note_on_c, 0, 61, 0
2, 38871, Note_on_c, 0, 44, 0
2, 38880, Note_on_c, 0, 40, 127
2, 38880, Note_on_c, 0, 28, 123
2, 38880, Note_on_c, 0, 64, 123
2, 38880, Note_on_c, 0, 59, 127
2, 38880, Note_on_c, 0, 56, 123
2, 38880, Note_on_c, 0, 52, 121
2, 38948, Note_on_c, 0, 52, 0
2, 38950, Note_on_c, 0, 59, 0
2, 38950, Note_on_c, 0, 64, 0
2, 38950, Note_on_c, 0, 56, 0
2, 38970, Note_on_c, 0, 40, 0
2, 38970, Note_on_c, 0, 57, 106
2, 38970, Note_on_c, 0, 61, 116
2, 38970, Note_on_c, 0, 52, 113
2, 38970, Note_on_c, 0, 64, 118
2, 38982, Note_on_c, 0, 61, 0
2, 38984, Note_on_c, 0, 52, 0
2, 38985, Note_on_c, 0, 57, 0
2, 38988, Note_on_c, 0, 64, 0
2, 39000, Note_on_c, 0, 40, 114
2, 39060, Note_on_c, 0, 59, 123
2, 39060, Note_on_c, 0, 56, 118
2, 39060, Note_on_c, 0, 52, 123
2, 39060, Note_on_c, 0, 64, 126
2, 39133, Note_on_c, 0, 40, 0
2, 39169, Note_on_c, 0, 28, 0
2, 39180, Note_on_c, 0, 40, 116
2, 39184, Note_on_c, 0, 52, 0
2, 39191, Note_on_c, 0, 40, 0
2, 39240, Note_on_c, 0, 52, 123
2, 39299, Note_on_c, 0, 52, 0
2, 39300, Note_on_c, 0, 40, 117
2, 39321, Note_on_c, 0, 56, 0
2, 39323, Note_on_c, 0, 59, 0
2, 39326, Note_on_c, 0, 64, 0
2, 39330, Note_on_c, 0, 52, 113
2, 39351, Note_on_c, 0, 52, 0
2, 39354, Note_on_c, 0, 40, 0
2, 39360, Note_on_c, 0, 28, 123
2, 39360, Note_on_c, 0, 52, 119
2, 39360, Note_on_c, 0, 56, 123
2, 39360, Note_on_c, 0, 59, 126
2, 39360, Note_on_c, 0, 64, 126
2, 39437, Note_on_c, 0, 52, 0
2, 39439, Note_on_c, 0, 56, 0
2, 39441, Note_on_c, 0, 59, 0
2, 39445, Note_on_c, 0, 64, 0
2, 39450, Note_on_c, 0, 57, 110
2, 39450, Note_on_c, 0, 61, 113
2, 39450, Note_on_c, 0, 64, 113
2, 39450, Note_on_c, 0, 52, 110
2, 39458, Note_on_c, 0, 61, 0
2, 39459, Note_on_c, 0, 57, 0
2, 39463, Note_on_c, 0, 64, 0
2, 39467, Note_on_c, 0, 52, 0
2, 39480, Note_on_c, 0, 40, 117
2, 39540, Note_on_c, 0, 56, 119
2, 39540, Note_on_c, 0, 59, 118
2, 39540, Note_on_c, 0, 52, 126
2, 39540, Note_on_c, 0, 64, 123
2, 39554, Note_on_c, 0, 40, 0
2, 39597, Note_on_c, 0, 52, 0
2, 39598, Note_on_c, 0, 56, 0
2, 39599, Note_on_c, 0, 28, 0
2, 39600, Note_on_c, 0, 64, 0
2, 39600, Note_on_c, 0, 40, 126
2, 39603, Note_on_c, 0, 59, 0
2, 39608, Control_c, 0, 64, 127
2, 39630, Note_on_c, 0, 57, 61
2, 39634, Note_on_c, 0, 57, 0
2, 39654, Note_on_c, 0, 40, 0
2, 39654, Control_c, 0, 64, 0
2, 39660, Note_on_c, 0, 28, 119
2, 39660, Note_on_c, 0, 54, 126
2, 39660, Note_on_c, 0, 62, 123
2, 39660, Note_on_c, 0, 57, 127
2, 39720, Note_on_c, 0, 28, 0
2, 39720, Note_on_c, 0, 40, 127
2, 39725, Note_on_c, 0, 54, 0
2, 39736, Note_on_c, 0, 57, 0
2, 39739, Note_on_c, 0, 62, 0
2, 39750, Note_on_c, 0, 61, 127
2, 39750, Note_on_c, 0, 52, 126
2, 39750, Note_on_c, 0, 57, 121
2, 39778, Note_on_c, 0, 40, 0
2, 39780, Note_on_c, 0, 43, 127
2, 39808, Note_on_c, 0, 43, 0
2, 39810, Note_on_c, 0, 44, 127
2, 39821, Note_on_c, 0, 52, 0
2, 39825, Note_on_c, 0, 57, 0
2, 39828, Note_on_c, 0, 61, 0
2, 39831, Note_on_c, 0, 44, 0
2, 39840, Note_on_c, 0, 40, 127
2, 39840, Note_on_c, 0, 28, 123
2, 39840, Note_on_c, 0, 64, 123
2, 39840, Note_on_c, 0, 59, 127
2, 39840, Note_on_c, 0, 56, 123
2, 39840, Note_on_c, 0, 52, 121
2, 39908, Note_on_c, 0, 52, 0
2, 39910, Note_on_c, 0, 59, 0
2, 39910, Note_on_c, 0, 64, 0
2, 39910, Note_on_c, 0, 56, 0
2, 39930, Note_on_c, 0, 40, 0
2, 39930, Note_on_c, 0, 57, 106
2, 39930, Note_on_c, 0, 61, 116
2, 39930, Note_on_c, 0, 52, 113
2, 39930, Note_on_c, 0, 64, 118
2, 39942, Note_on_c, 0, 61, 0
2, 39944, Note_on_c, 0, 52, 0
2, 39945, Note_on_c, 0, 57, 0
2, 39948, Note_on_c, 0, 64, 0
2, 39960, Note_on_c, 0, 40, 114
2, 40020, Note_on_c, 0, 59, 123
2, 40020, Note_on_c, 0, 56, 118
2, 40020, Note_on_c, 0, 52, 123
2, 40020, Note_on_c, 0, 64, 126
2, 40093, Note_on_c, 0, 40, 0
2, 40129, Note_on_c, 0, 28, 0
2, 40140, Note_on_c, 0, 40, 116
2, 40144, Note_on_c, 0, 52, 0
2, 40151, Note_on_c, 0, 40, 0
2, 40200, Note_on_c, 0, 52, 123
2, 40259, Note_on_c, 0, 52, 0
2, 40260, Note_on_c, 0, 40, 117
2, 40281, Note_on_c, 0, 56, 0
2, 40283, Note_on_c, 0, 59, 0
2, 40286, Note_on_c, 0, 64, 0
2, 40290, Note_on_c, 0, 52, 113
2, 40311, Note_on_c, 0, 52, 0
2, 40314, Note_on_c, 0, 40, 0
2, 40320, Note_on_c, 0, 28, 123
2, 40320, Note_on_c, 0, 52, 119
2, 40320, Note_on_c, 0, 56, 123
2, 40320, Note_on_c, 0, 59, 126
2, 40320, Note_on_c, 0, 64, 126
2, 40397, Note_on_c, 0, 52, 0
2, 40399, Note_on_c, 0, 56, 0
2, 40401, Note_on_c, 0, 59, 0
2, 40405, Note_on_c, 0, 64, 0
2, 40410, Note_on_c, 0, 57, 110
2, 40410, Note_on_c, 0, 61, 113
2, 40410, Note_on_c, 0, 64, 113
2, 40410, Note_on_c, 0, 52, 110
2, 40418, Note_on_c, 0, 61, 0
2, 40419, Note_on_c, 0, 57, 0
2, 40423, Note_on_c, 0, 64, 0
2, 40427, Note_on_c, 0, 52, 0
2, 40440, Note_on_c, 0, 40, 117
2, 40500, Note_on_c, 0, 56, 119
2, 40500, Note_on_c, 0, 59, 118
2, 40500, Note_on_c, 0, 52, 126
2, 40500, Note_on_c, 0, 64, 123
2, 40514, Note_on_c, 0, 40, 0
2, 40557, Note_on_c, 0, 52, 0
2, 40558, Note_on_c, 0, 56, 0
2, 40559, Note_on_c, 0, 28, 0
2, 40560, Note_on_c, 0, 64, 0
2, 40560, Note_on_c, 0, 40, 126
2, 40563, Note_on_c, 0, 59, 0
2, 40568, Control_c, 0, 64, 127
2, 40590, Note_on_c, 0, 57, 61
2, 40594, Note_on_c, 0, 57, 0
2, 40614, Note_on_c, 0, 40, 0
2, 40614, Control_c, 0, 64, 0
2, 40620, Note_on_c, 0, 28, 119
2, 40620, Note_on_c, 0, 54, 126
2, 40620, Note_on_c, 0, 62, 123
2, 40620, Note_on_c, 0, 57, 127
2, 40680, Note_on_c, 0, 28, 0
2, 40680, Note_on_c, 0, 40, 127
2, 40685, Note_on_c, 0, 54, 0
2, 40696, Note_on_c, 0, 57, 0
2, 40699, Note_on_c, 0, 62, 0
2, 40710, Note_on_c, 0, 61, 127
2, 40710, Note_on_c, 0, 52, 126
2, 40710, Note_on_c, 0, 57, 121
2, 40738, Note_on_c, 0, 40, 0
2, 40740, Note_on_c, 0, 43, 127
2, 40768, Note_on_c, 0, 43, 0
2, 40770, Note_on_c, 0, 44, 127
2, 40781, Note_on_c, 0, 52, 0
2, 40785, Note_on_c, 0, 57, 0
2, 40788, Note_on_c, 0, 61, 0
2, 40791, Note_on_c, 0, 44, 0
2, 40800, Note_on_c, 0, 40, 127
2, 40800, Note_on_c, 0, 28, 123
2, 40800, Note_on_c, 0, 64, 123
2, 40800, Note_on_c, 0, 59, 127
2, 40800, Note_on_c, 0, 56, 123
2, 40800, Note_on_c, 0, 52, 121
2, 40868, Note_on_c, 0, 52, 0
2, 40870, Note_on_c, 0, 59, 0
2, 40870, Note_on_c, 0, 64, 0
2, 40870, Note_on_c, 0, 56, 0
2, 40890, Note_on_c, 0, 40, 0
2, 40890, Note_on_c, 0, 57, 106
2, 40890, Note_on_c, 0, 61, 116
2, 40890, Note_on_c, 0, 52, 113
2, 40890, Note_on_c, 0, 64, 118
2, 40902, Note_on_c, 0, 61, 0
2, 40904, Note_on_c, 0, 52, 0
2, 40905, Note_on_c, 0, 57, 0
2, 40908, Note_on_c, 0, 64, 0
2, 40920, Note_on_c, 0, 40, 114
2, 40980, Note_on_c, 0, 59, 123
2, 40980, Note_on_c, 0, 56, 118
2, 40980, Note_on_c, 0, 52, 123
2, 40980, Note_on_c, 0, 64, 126
2, 41053, Note_on_c, 0, 40, 0
2, 41089, Note_on_c, 0, 28, 0
2, 41100, Note_on_c, 0, 40, 116
2, 41104, Note_on_c, 0, 52, 0
2, 41111, Note_on_c, 0, 40, 0
2, 41160, Note_on_c, 0, 52, 123
2, 41219, Note_on_c, 0, 52, 0
2, 41220, Note_on_c, 0, 40, 117
2, 41241, Note_on_c, 0, 56, 0
2, 41243, Note_on_c, 0, 59, 0
2, 41246, Note_on_c, 0, 64, 0
2, 41250, Note_on_c, 0, 52, 113
2, 41271, Note_on_c, 0, 52, 0
2, 41274, Note_on_c, 0, 40, 0
2, 41280, Note_on_c, 0, 28, 123
2, 41280, Note_on_c, 0, 52, 119
2, 41280, Note_on_c, 0, 56, 123
2, 41280, Note_on_c, 0, 59, 126
2, 41280, Note_on_c, 0, 64, 126
2, 41340, Note_on_c, 0, 64, 0
2, 41340, Note_on_c, 0, 56, 0
2, 41340, Note_on_c, 0, 59, 0
2, 41340, Note_on_c, 0, 52, 0
2, 41340, Note_on_c, 0, 71, 123
2, 41340, Note_on_c, 0, 47, 97
2, 41340, Note_on_c, 0, 59, 123
2, 41387, Note_on_c, 0, 59, 0
2, 41387, Note_on_c, 0, 71, 0
2, 41389, Note_on_c, 0, 47, 0
2, 41400, Note_on_c, 0, 73, 123
2, 41400, Note_on_c, 0, 61, 123
2, 41400, Note_on_c, 0, 49, 126
2, 41451, Note_on_c, 0, 61, 0
2, 41451, Note_on_c, 0, 73, 0
2, 41456, Note_on_c, 0, 49, 0
2, 41460, Note_on_c, 0, 76, 117
2, 41460, Note_on_c, 0, 52, 116
2, 41460, Note_on_c, 0, 64, 117
2, 41505, Note_on_c, 0, 52, 0
2, 41512, Note_on_c, 0, 64, 0
2, 41512, Note_on_c, 0, 76, 0
2, 41519, Note_on_c, 0, 28, 0
2, 41520, Note_on_c, 0, 78, 127
2, 41520, Note_on_c, 0, 54, 101
2, 41520, Note_on_c, 0, 66, 127
2, 41528, Control_c, 0, 64, 127
2, 41561, Note_on_c, 0, 54, 0
2, 41574, Control_c, 0, 64, 0
2, 41575, Note_on_c, 0, 66, 0
2, 41575, Note_on_c, 0, 78, 0
2, 41580, Note_on_c, 0, 80, 127
2, 41580, Note_on_c, 0, 68, 127
2, 41580, Note_on_c, 0, 56, 127
2, 41621, Note_on_c, 0, 68, 0
2, 41621, Note_on_c, 0, 80, 0
2, 41628, Note_on_c, 0, 56, 0
2, 41640, Note_on_c, 0, 83, 126
2, 41640, Note_on_c, 0, 71, 126
2, 41640, Note_on_c, 0, 59, 126
2, 41670, Note_on_c, 0, 85, 127
2, 41670, Note_on_c, 0, 61, 127
2, 41670, Note_on_c, 0, 73, 127
2, 41673, Note_on_c, 0, 59, 0
2, 41673, Note_on_c, 0, 83, 0
2, 41673, Note_on_c, 0, 71, 0
2, 41750, Note_on_c, 0, 61, 0
2, 41759, Note_on_c, 0, 73, 0
2, 41759, Note_on_c, 0, 85, 0
2, 41760, Note_on_c, 0, 33, 113
2, 41760, Note_on_c, 0, 64, 123
2, 41880, Note_on_c, 0, 45, 95
2, 41893, Note_on_c, 0, 45, 0
2, 41893, Note_on_c, 0, 64, 0
2, 41910, Note_on_c, 0, 57, 116
2, 41910, Note_on_c, 0, 61, 113
2, 41910, Note_on_c, 0, 64, 116
2, 41919, Note_on_c, 0, 61, 0
2, 41924, Note_on_c, 0, 64, 0
2, 41927, Note_on_c, 0, 57, 0
2, 41940, Note_on_c, 0, 45, 112
2, 42000, Note_on_c, 0, 57, 126
2, 42000, Note_on_c, 0, 61, 127
2, 42000, Note_on_c, 0, 64, 127
2, 42031, Control_c, 0, 64, 127
2, 42032, Control_c, 0, 64, 0
2, 42045, Control_c, 0, 64, 127
2, 42073, Note_on_c, 0, 45, 0
2, 42108, Note_on_c, 0, 33, 0
2, 42142, Note_on_c, 0, 57, 0
2, 42180, Note_on_c, 0, 45, 102
2, 42180, Note_on_c, 0, 57, 108
2, 42182, Note_on_c, 0, 61, 0
2, 42187, Note_on_c, 0, 64, 0
2, 42190, Note_on_c, 0, 45, 0
2, 42197, Note_on_c, 0, 57, 0
2, 42228, Control_c, 0, 64, 0
2, 42240, Note_on_c, 0, 35, 114
2, 42240, Note_on_c, 0, 59, 119
2, 42240, Note_on_c, 0, 63, 121
2, 42240, Note_on_c, 0, 66, 127
2, 42360, Note_on_c, 0, 47, 97
2, 42362, Note_on_c, 0, 59, 0
2, 42364, Note_on_c, 0, 63, 0
2, 42367, Note_on_c, 0, 66, 0
2, 42383, Note_on_c, 0, 47, 0
2, 42390, Note_on_c, 0, 59, 111
2, 42390, Note_on_c, 0, 63, 110
2, 42390, Note_on_c, 0, 66, 113
2, 42402, Note_on_c, 0, 63, 0
2, 42404, Note_on_c, 0, 59, 0
2, 42406, Note_on_c, 0, 66, 0
2, 42450, Note_on_c, 0, 47, 114
2, 42469, Note_on_c, 0, 47, 0
2, 42480, Note_on_c, 0, 47, 113
2, 42480, Note_on_c, 0, 59, 114
2, 42480, Note_on_c, 0, 63, 121
2, 42480, Note_on_c, 0, 66, 127
2, 42508, Control_c, 0, 64, 127
2, 42518, Note_on_c, 0, 59, 0
2, 42537, Note_on_c, 0, 66, 0
2, 42544, Note_on_c, 0, 63, 0
2, 42572, Note_on_c, 0, 47, 0
2, 42600, Note_on_c, 0, 47, 117
2, 42600, Note_on_c, 0, 59, 114
2, 42600, Note_on_c, 0, 63, 121
2, 42600, Note_on_c, 0, 66, 127
2, 42638, Note_on_c, 0, 59, 0
2, 42645, Note_on_c, 0, 47, 0
2, 42651, Note_on_c, 0, 35, 0
2, 42657, Note_on_c, 0, 66, 0
2, 42664, Note_on_c, 0, 63, 0
2, 42715, Control_c, 0, 64, 0
2, 42720, Note_on_c, 0, 64, 110
2, 42720, Note_on_c, 0, 36, 106
2, 42720, Note_on_c, 0, 60, 112
2, 42720, Note_on_c, 0, 55, 112
2, 42950, Note_on_c, 0, 60, 0
2, 42950, Control_c, 0, 64, 127
2, 42950, Control_c, 0, 64, 0
2, 42951, Note_on_c, 0, 64, 0
2, 42953, Note_on_c, 0, 55, 0
2, 42959, Note_on_c, 0, 48, 103
2, 42972, Control_c, 0, 64, 127
2, 43020, Note_on_c, 0, 55, 112
2, 43020, Note_on_c, 0, 60, 116
2, 43041, Note_on_c, 0, 60, 0
2, 43051, Note_on_c, 0, 48, 0
2, 43053, Note_on_c, 0, 55, 0
2, 43079, Note_on_c, 0, 36, 0
2, 43080, Note_on_c, 0, 48, 97
2, 43109, Note_on_c, 0, 60, 114
2, 43109, Note_on_c, 0, 64, 114
2, 43109, Note_on_c, 0, 55, 113
2, 43125, Note_on_c, 0, 60, 0
2, 43129, Note_on_c, 0, 64, 0
2, 43134, Note_on_c, 0, 55, 0
2, 43178, Note_on_c, 0, 48, 0
2, 43192, Control_c, 0, 64, 0
2, 43193, Control_c, 0, 64, 127
2, 43197, Control_c, 0, 64, 0
2, 43197, Control_c, 0, 64, 127
2, 43199, Note_on_c, 0, 62, 118
2, 43199, Note_on_c, 0, 66, 111
2, 43200, Control_c, 0, 64, 0
2, 43200, Note_on_c, 0, 57, 116
2, 43200, Note_on_c, 0, 38, 114
2, 43278, Control_c, 0, 64, 127
2, 43285, Note_on_c, 0, 57, 0
2, 43319, Note_on_c, 0, 57, 95
2, 43418, Note_on_c, 0, 62, 0
2, 43420, Note_on_c, 0, 66, 0
2, 43426, Note_on_c, 0, 57, 0
2, 43439, Note_on_c, 0, 50, 106
2, 43494, Control_c, 0, 64, 0
2, 43499, Note_on_c, 0, 67, 123
2, 43499, Note_on_c, 0, 62, 127
2, 43499, Note_on_c, 0, 57, 119
2, 43561, Control_c, 0, 64, 127
2, 43580, Note_on_c, 0, 57, 0
2, 43580, Note_on_c, 0, 62, 0
2, 43581, Control_c, 0, 64, 0
2, 43587, Note_on_c, 0, 67, 0
2, 43589, Note_on_c, 0, 62, 111
2, 43590, Note_on_c, 0, 57, 114
2, 43590, Note_on_c, 0, 66, 112
2, 43648, Note_on_c, 0, 57, 0
2, 43656, Note_on_c, 0, 66, 0
2, 43657, Note_on_c, 0, 62, 0
2, 43658, Note_on_c, 0, 38, 0
2, 43663, Note_on_c, 0, 50, 0
2, 43680, Control_c, 0, 64, 127
2, 43680, Note_on_c, 0, 38, 119
2, 43680, Note_on_c, 0, 69, 123
2, 43680, Note_on_c, 0, 74, 127
2, 43680, Note_on_c, 0, 79, 119
2, 43745, Note_on_c, 0, 69, 0
2, 43749, Note_on_c, 0, 79, 0
2, 43765, Note_on_c, 0, 79, 127
2, 43765, Note_on_c, 0, 67, 127
2, 43799, Note_on_c, 0, 74, 0
2, 43807, Note_on_c, 0, 79, 0
2, 43851, Note_on_c, 0, 38, 0
2, 43853, Note_on_c, 0, 50, 106
2, 43864, Note_on_c, 0, 50, 0
2, 43920, Note_on_c, 0, 69, 116
2, 43920, Note_on_c, 0, 74, 119
2, 43943, Note_on_c, 0, 74, 0
2, 43953, Note_on_c, 0, 69, 0
2, 43986, Note_on_c, 0, 62, 108
2, 44000, Note_on_c, 0, 62, 0
2, 44008, Note_on_c, 0, 79, 123
2, 44009, Note_on_c, 0, 69, 121
2, 44009, Note_on_c, 0, 74, 127
2, 44058, Note_on_c, 0, 74, 0
2, 44066, Note_on_c, 0, 69, 0
2, 44071, Note_on_c, 0, 79, 0
2, 44073, Note_on_c, 0, 62, 117
2, 44095, Note_on_c, 0, 79, 119
2, 44096, Note_on_c, 0, 69, 123
2, 44096, Note_on_c, 0, 74, 127
2, 44146, Note_on_c, 0, 74, 0
2, 44146, Note_on_c, 0, 69, 0
2, 44150, Note_on_c, 0, 62, 0
2, 44151, Note_on_c, 0, 67, 0
2, 44152, Control_c, 0, 64, 0
2, 44153, Note_on_c, 0, 79, 0
2, 44157, Control_c, 0, 64, 127
2, 44160, Note_on_c, 0, 69, 114
2, 44160, Note_on_c, 0, 74, 117
2, 44160, Note_on_c, 0, 78, 127
2, 44166, Note_on_c, 0, 50, 119
2, 44225, Note_on_c, 0, 69, 0
2, 44227, Note_on_c, 0, 78, 0
2, 44228, Note_on_c, 0, 74, 0
2, 44250, Note_on_c, 0, 69, 105
2, 44250, Note_on_c, 0, 74, 112
2, 44250, Note_on_c, 0, 78, 123
2, 44265, Note_on_c, 0, 74, 0
2, 44268, Note_on_c, 0, 78, 0
2, 44268, Note_on_c, 0, 69, 0
2, 44336, Note_on_c, 0, 62, 61
2, 44340, Note_on_c, 0, 69, 124
2, 44340, Note_on_c, 0, 78, 100
2, 44356, Note_on_c, 0, 78, 0
2, 44358, Note_on_c, 0, 69, 0
2, 44392, Control_c, 0, 64, 0
2, 44400, Note_on_c, 0, 69, 127
2, 44400, Note_on_c, 0, 74, 127
2, 44400, Note_on_c, 0, 78, 123
2, 44442, Control_c, 0, 64, 127
2, 44477, Note_on_c, 0, 50, 0
2, 44484, Note_on_c, 0, 78, 0
2, 44487, Note_on_c, 0, 62, 0
2, 44490, Control_c, 0, 64, 0
2, 44491, Note_on_c, 0, 74, 0
2, 44493, Note_on_c, 0, 69, 0
2, 44497, Note_on_c, 0, 98, 106
2, 44504, Note_on_c, 0, 97, 74
2, 44512, Note_on_c, 0, 98, 0
2, 44513, Note_on_c, 0, 95, 113
2, 44518, Note_on_c, 0, 97, 0
2, 44520, Control_c, 0, 64, 127
2, 44520, Note_on_c, 0, 93, 113
2, 44524, Note_on_c, 0, 95, 0
2, 44525, Note_on_c, 0, 91, 123
2, 44531, Note_on_c, 0, 93, 0
2, 44532, Note_on_c, 0, 90, 121
2, 44537, Note_on_c, 0, 91, 0
2, 44537, Note_on_c, 0, 88, 126
2, 44544, Note_on_c, 0, 90, 0
2, 44544, Note_on_c, 0, 86, 111
2, 44549, Note_on_c, 0, 88, 0
2, 44550, Note_on_c, 0, 85, 121
2, 44555, Note_on_c, 0, 86, 0
2, 44556, Note_on_c, 0, 83, 126
2, 44562, Note_on_c, 0, 85, 0
2, 44562, Note_on_c, 0, 81, 117
2, 44567, Note_on_c, 0, 83, 0
2, 44568, Note_on_c, 0, 79, 126
2, 44573, Note_on_c, 0, 81, 0
2, 44573, Note_on_c, 0, 78, 126
2, 44579, Note_on_c, 0, 79, 0
2, 44579, Note_on_c, 0, 76, 127
2, 44585, Note_on_c, 0, 78, 0
2, 44585, Note_on_c, 0, 74, 126
2, 44590, Note_on_c, 0, 76, 0
2, 44590, Note_on_c, 0, 73, 126
2, 44595, Note_on_c, 0, 71, 123
2, 44597, Note_on_c, 0, 74, 0
2, 44601, Note_on_c, 0, 73, 0
2, 44601, Note_on_c, 0, 69, 123
2, 44607, Note_on_c, 0, 71, 0
2, 44607, Note_on_c, 0, 67, 117
2, 44613, Note_on_c, 0, 69, 0
2, 44613, Note_on_c, 0, 66, 126
2, 44619, Note_on_c, 0, 67, 0
2, 44619, Note_on_c, 0, 64, 113
2, 44623, Note_on_c, 0, 66, 0
2, 44626, Note_on_c, 0, 64, 0
2, 44640, Note_on_c, 0, 71, 121
2, 44640, Note_on_c, 0, 67, 123
2, 44640, Note_on_c, 0, 62, 117
2, 44640, Note_on_c, 0, 43, 127
2, 44640, Control_c, 0, 64, 0
2, 44679, Note_on_c, 0, 62, 0
2, 44681, Note_on_c, 0, 71, 0
2, 44682, Note_on_c, 0, 67, 0
2, 44697, Note_on_c, 0, 43, 0
2, 44730, Note_on_c, 0, 62, 113
2, 44730, Note_on_c, 0, 67, 126
2, 44730, Note_on_c, 0, 71, 123
2, 44760, Note_on_c, 0, 67, 0
2, 44760, Note_on_c, 0, 43, 126
2, 44763, Note_on_c, 0, 71, 0
2, 44763, Note_on_c, 0, 62, 0
2, 44820, Note_on_c, 0, 64, 113
2, 44820, Note_on_c, 0, 67, 121
2, 44820, Note_on_c, 0, 72, 121
2, 44821, Note_on_c, 0, 43, 0
2, 44880, Note_on_c, 0, 43, 123
2, 44927, Note_on_c, 0, 67, 0
2, 44935, Note_on_c, 0, 64, 0
2, 44940, Note_on_c, 0, 67, 127
2, 44947, Note_on_c, 0, 43, 0
2, 44986, Note_on_c, 0, 67, 0
2, 45000, Note_on_c, 0, 43, 119
2, 45030, Note_on_c, 0, 67, 127
2, 45043, Note_on_c, 0, 72, 0
2, 45073, Note_on_c, 0, 43, 0
2, 45074, Note_on_c, 0, 67, 0
2, 45090, Note_on_c, 0, 67, 116
2, 45116, Note_on_c, 0, 67, 0
2, 45120, Note_on_c, 0, 43, 121
2, 45120, Note_on_c, 0, 62, 121
2, 45120, Note_on_c, 0, 67, 123
2, 45120, Note_on_c, 0, 71, 119
2, 45187, Note_on_c, 0, 43, 0
2, 45198, Note_on_c, 0, 62, 0
2, 45198, Note_on_c, 0, 71, 0
2, 45199, Note_on_c, 0, 67, 0
2, 45210, Note_on_c, 0, 64, 108
2, 45210, Note_on_c, 0, 67, 126
2, 45210, Note_on_c, 0, 72, 116
2, 45238, Note_on_c, 0, 67, 0
2, 45240, Note_on_c, 0, 64, 0
2, 45240, Note_on_c, 0, 43, 123
2, 45247, Note_on_c, 0, 72, 0
2, 45300, Note_on_c, 0, 43, 0
2, 45300, Note_on_c, 0, 62, 111
2, 45300, Note_on_c, 0, 67, 119
2, 45300, Note_on_c, 0, 71, 110
2, 45360, Note_on_c, 0, 43, 126
2, 45407, Note_on_c, 0, 62, 0
2, 45420, Note_on_c, 0, 62, 123
2, 45527, Note_on_c, 0, 43, 0
2, 45540, Note_on_c, 0, 43, 126
2, 45570, Note_on_c, 0, 67, 0
2, 45570, Note_on_c, 0, 71, 0
2, 45572, Note_on_c, 0, 43, 0
2, 45573, Note_on_c, 0, 62, 0
2, 45600, Note_on_c, 0, 40, 126
2, 45600, Note_on_c, 0, 52, 119
2, 45600, Note_on_c, 0, 64, 118
2, 45600, Note_on_c, 0, 67, 127
2, 45600, Note_on_c, 0, 71, 126
2, 45681, Note_on_c, 0, 64, 0
2, 45685, Note_on_c, 0, 67, 0
2, 45685, Note_on_c, 0, 71, 0
2, 45690, Note_on_c, 0, 64, 107
2, 45690, Note_on_c, 0, 67, 114
2, 45690, Note_on_c, 0, 71, 116
2, 45703, Note_on_c, 0, 52, 0
2, 45704, Note_on_c, 0, 40, 0
2, 45718, Note_on_c, 0, 67, 0
2, 45720, Note_on_c, 0, 40, 116
2, 45720, Note_on_c, 0, 52, 119
2, 45721, Note_on_c, 0, 64, 0
2, 45722, Note_on_c, 0, 71, 0
2, 45767, Note_on_c, 0, 52, 0
2, 45770, Note_on_c, 0, 40, 0
2, 45780, Note_on_c, 0, 62, 113
2, 45780, Note_on_c, 0, 66, 116
2, 45780, Note_on_c, 0, 69, 123
2, 45833, Control_c, 0, 64, 127
2, 45833, Control_c, 0, 64, 0
2, 45840, Note_on_c, 0, 38, 116
2, 45840, Note_on_c, 0, 50, 116
2, 45844, Control_c, 0, 64, 127
2, 45878, Note_on_c, 0, 69, 0
2, 45878, Note_on_c, 0, 62, 0
2, 45878, Note_on_c, 0, 66, 0
2, 45900, Note_on_c, 0, 74, 127
2, 45934, Note_on_c, 0, 74, 0
2, 45934, Note_on_c, 0, 38, 0
2, 45936, Note_on_c, 0, 50, 0
2, 45960, Note_on_c, 0, 38, 113
2, 45960, Note_on_c, 0, 50, 113
2, 45960, Note_on_c, 0, 62, 127
2, 45975, Note_on_c, 0, 62, 0
2, 45984, Control_c, 0, 64, 0
2, 45986, Control_c, 0, 64, 127
2, 45988, Control_c, 0, 64, 0
2, 45990, Note_on_c, 0, 62, 107
2, 46015, Control_c, 0, 64, 127
2, 46020, Note_on_c, 0, 38, 0
2, 46038, Note_on_c, 0, 50, 0
2, 46042, Note_on_c, 0, 62, 0
2, 46050, Note_on_c, 0, 38, 114
2, 46050, Note_on_c, 0, 62, 88
2, 46061, Note_on_c, 0, 62, 0
2, 46067, Note_on_c, 0, 38, 0
2, 46076, Control_c, 0, 64, 0
2, 46080, Note_on_c, 0, 36, 123
2, 46080, Note_on_c, 0, 48, 114
2, 46080, Note_on_c, 0, 64, 116
2, 46080, Note_on_c, 0, 67, 123
2, 46080, Note_on_c, 0, 72, 119
2, 46157, Note_on_c, 0, 64, 0
2, 46159, Note_on_c, 0, 67, 0
2, 46161, Note_on_c, 0, 72, 0
2, 46170, Note_on_c, 0, 64, 117
2, 46170, Note_on_c, 0, 67, 126
2, 46170, Note_on_c, 0, 72, 121
2, 46186, Note_on_c, 0, 48, 0
2, 46200, Note_on_c, 0, 48, 127
2, 46202, Note_on_c, 0, 36, 0
2, 46203, Note_on_c, 0, 64, 0
2, 46204, Note_on_c, 0, 67, 0
2, 46211, Note_on_c, 0, 72, 0
2, 46260, Note_on_c, 0, 62, 127
2, 46260, Note_on_c, 0, 67, 127
2, 46260, Note_on_c, 0, 71, 127
2, 46261, Note_on_c, 0, 48, 0
2, 46320, Note_on_c, 0, 62, 0
2, 46320, Note_on_c, 0, 67, 0
2, 46320, Note_on_c, 0, 71, 0
2, 46320, Note_on_c, 0, 43, 113
2, 46380, Note_on_c, 0, 64, 127
2, 46380, Note_on_c, 0, 76, 127
2, 46381, Note_on_c, 0, 43, 0
2, 46399, Note_on_c, 0, 76, 0
2, 46405, Note_on_c, 0, 64, 0
2, 46410, Note_on_c, 0, 67, 127
2, 46410, Note_on_c, 0, 79, 127
2, 46440, Note_on_c, 0, 43, 113
2, 46470, Note_on_c, 0, 64, 126
2, 46470, Note_on_c, 0, 76, 119
2, 46474, Note_on_c, 0, 79, 0
2, 46478, Note_on_c, 0, 67, 0
2, 46484, Note_on_c, 0, 76, 0
2, 46493, Note_on_c, 0, 64, 0
2, 46500, Note_on_c, 0, 67, 127
2, 46500, Note_on_c, 0, 79, 127
2, 46501, Note_on_c, 0, 43, 0
2, 46551, Note_on_c, 0, 67, 0
2, 46560, Note_on_c, 0, 40, 127
2, 46560, Note_on_c, 0, 64, 127
2, 46560, Note_on_c, 0, 67, 127
2, 46560, Note_on_c, 0, 71, 127
2, 46562, Note_on_c, 0, 79, 0
2, 46632, Note_on_c, 0, 67, 0
2, 46632, Note_on_c, 0, 64, 0
2, 46643, Note_on_c, 0, 71, 0
2, 46650, Note_on_c, 0, 62, 119
2, 46650, Note_on_c, 0, 66, 119
2, 46650, Note_on_c, 0, 69, 126
2, 46671, Note_on_c, 0, 62, 0
2, 46671, Note_on_c, 0, 40, 0
2, 46673, Note_on_c, 0, 69, 0
2, 46676, Note_on_c, 0, 66, 0
2, 46680, Note_on_c, 0, 40, 126
2, 46740, Note_on_c, 0, 64, 121
2, 46740, Note_on_c, 0, 67, 127
2, 46740, Note_on_c, 0, 71, 127
2, 46776, Note_on_c, 0, 40, 0
2, 46795, Control_c, 0, 64, 127
2, 46795, Control_c, 0, 64, 0
2, 46800, Note_on_c, 0, 40, 119
2, 46805, Control_c, 0, 64, 127
2, 46847, Note_on_c, 0, 64, 0
2, 46860, Note_on_c, 0, 64, 127
2, 46861, Note_on_c, 0, 71, 0
2, 46861, Note_on_c, 0, 67, 0
2, 46920, Note_on_c, 0, 40, 0
2, 46920, Note_on_c, 0, 52, 126
2, 46945, Note_on_c, 0, 64, 0
2, 47022, Control_c, 0, 64, 0
2, 47026, Control_c, 0, 64, 127
2, 47026, Control_c, 0, 64, 0
2, 47038, Note_on_c, 0, 52, 0
2, 47040, Note_on_c, 0, 40, 123
2, 47040, Note_on_c, 0, 64, 127
2, 47040, Note_on_c, 0, 67, 127
2, 47040, Note_on_c, 0, 71, 123
2, 47061, Control_c, 0, 64, 127
2, 47061, Control_c, 0, 64, 0
2, 47062, Control_c, 0, 64, 127
2, 47062, Control_c, 0, 64, 0
2, 47064, Control_c, 0, 64, 127
2, 47097, Note_on_c, 0, 67, 0
2, 47098, Note_on_c, 0, 64, 0
2, 47110, Note_on_c, 0, 71, 0
2, 47128, Control_c, 0, 64, 0
2, 47130, Note_on_c, 0, 62, 117
2, 47130, Note_on_c, 0, 66, 119
2, 47130, Note_on_c, 0, 69, 126
2, 47142, Note_on_c, 0, 40, 0
2, 47146, Note_on_c, 0, 69, 0
2, 47148, Note_on_c, 0, 66, 0
2, 47148, Note_on_c, 0, 62, 0
2, 47160, Note_on_c, 0, 40, 123
2, 47220, Note_on_c, 0, 64, 118
2, 47220, Note_on_c, 0, 67, 127
2, 47220, Note_on_c, 0, 71, 121
2, 47223, Control_c, 0, 64, 127
2, 47253, Note_on_c, 0, 40, 0
2, 47280, Note_on_c, 0, 40, 123
2, 47306, Note_on_c, 0, 64, 0
2, 47334, Note_on_c, 0, 67, 0
2, 47335, Note_on_c, 0, 71, 0
2, 47340, Note_on_c, 0, 64, 127
2, 47398, Note_on_c, 0, 40, 0
2, 47400, Note_on_c, 0, 52, 127
2, 47402, Note_on_c, 0, 64, 0
2, 47430, Note_on_c, 0, 64, 127
2, 47483, Note_on_c, 0, 52, 0
2, 47484, Note_on_c, 0, 64, 0
2, 47490, Note_on_c, 0, 52, 111
2, 47490, Note_on_c, 0, 64, 127
2, 47493, Control_c, 0, 64, 0
2, 47512, Note_on_c, 0, 52, 0
2, 47516, Note_on_c, 0, 64, 0
2, 47520, Note_on_c, 0, 60, 112
2, 47520, Note_on_c, 0, 45, 116
2, 47520, Note_on_c, 0, 33, 113
2, 47520, Note_on_c, 0, 64, 127
2, 47520, Note_on_c, 0, 67, 127
2, 47653, Control_c, 0, 64, 127
2, 47662, Control_c, 0, 64, 0
2, 47662, Control_c, 0, 64, 127
2, 47698, Note_on_c, 0, 60, 0
2, 47704, Note_on_c, 0, 33, 0
2, 47712, Note_on_c, 0, 67, 0
2, 47714, Note_on_c, 0, 45, 0
2, 47728, Note_on_c, 0, 64, 0
2, 47731, Control_c, 0, 64, 0
2, 47760, Note_on_c, 0, 59, 123
2, 47760, Note_on_c, 0, 62, 127
2, 47760, Note_on_c, 0, 67, 127
2, 47760, Note_on_c, 0, 35, 113
2, 47760, Note_on_c, 0, 47, 118
2, 47883, Control_c, 0, 64, 127
2, 47883, Control_c, 0, 64, 0
2, 47887, Control_c, 0, 64, 127
2, 47909, Note_on_c, 0, 59, 0
2, 47914, Note_on_c, 0, 62, 0
2, 47914, Note_on_c, 0, 67, 0
2, 47919, Note_on_c, 0, 35, 0
2, 47923, Note_on_c, 0, 47, 0
2, 47985, Control_c, 0, 64, 0
2, 48000, Note_on_c, 0, 48, 111
2, 48000, Note_on_c, 0, 36, 123
2, 48000, Note_on_c, 0, 64, 127
2, 48000, Note_on_c, 0, 60, 123
2, 48000, Note_on_c, 0, 67, 127
2, 48131, Control_c, 0, 64, 127
2, 48149, Note_on_c, 0, 48, 0
2, 48174, Note_on_c, 0, 60, 0
2, 48174, Note_on_c, 0, 36, 0
2, 48178, Note_on_c, 0, 64, 0
2, 48180, Note_on_c, 0, 48, 126
2, 48182, Note_on_c, 0, 67, 0
2, 48210, Note_on_c, 0, 48, 0
2, 48210, Note_on_c, 0, 38, 117
2, 48229, Control_c, 0, 64, 0
2, 48240, Note_on_c, 0, 60, 127
2, 48240, Note_on_c, 0, 64, 127
2, 48240, Note_on_c, 0, 67, 127
2, 48345, Note_on_c, 0, 60, 0
2, 48349, Note_on_c, 0, 64, 0
2, 48352, Note_on_c, 0, 67, 0
2, 48355, Note_on_c, 0, 38, 0
2, 48360, Note_on_c, 0, 62, 127
2, 48360, Note_on_c, 0, 66, 123
2, 48360, Note_on_c, 0, 69, 127
2, 48360, Note_on_c, 0, 50, 121
2, 48451, Note_on_c, 0, 62, 0
2, 48456, Note_on_c, 0, 66, 0
2, 48457, Note_on_c, 0, 69, 0
2, 48461, Note_on_c, 0, 50, 0
2, 48480, Note_on_c, 0, 43, 127
2, 48480, Note_on_c, 0, 62, 117
2, 48480, Note_on_c, 0, 67, 123
2, 48480, Note_on_c, 0, 71, 121
2, 48519, Note_on_c, 0, 62, 0
2, 48521, Note_on_c, 0, 71, 0
2, 48522, Note_on_c, 0, 67, 0
2, 48568, Note_on_c, 0, 43, 0
2, 48570, Note_on_c, 0, 62, 113
2, 48570, Note_on_c, 0, 67, 126
2, 48570, Note_on_c, 0, 71, 123
2, 48600, Note_on_c, 0, 67, 0
2, 48600, Note_on_c, 0, 43, 126
2, 48603, Note_on_c, 0, 71, 0
2, 48603, Note_on_c, 0, 62, 0
2, 48660, Note_on_c, 0, 64, 113
2, 48660, Note_on_c, 0, 67, 121
2, 48660, Note_on_c, 0, 72, 121
2, 48698, Note_on_c, 0, 43, 0
2, 48720, Note_on_c, 0, 43, 123
2, 48767, Note_on_c, 0, 67, 0
2, 48775, Note_on_c, 0, 64, 0
2, 48780, Note_on_c, 0, 67, 127
2, 48818, Note_on_c, 0, 43, 0
2, 48826, Note_on_c, 0, 67, 0
2, 48840, Note_on_c, 0, 43, 119
2, 48870, Note_on_c, 0, 67, 127
2, 48883, Note_on_c, 0, 72, 0
2, 48914, Note_on_c, 0, 67, 0
2, 48930, Note_on_c, 0, 67, 116
2, 48941, Note_on_c, 0, 43, 0
2, 48956, Note_on_c, 0, 67, 0
2, 48960, Note_on_c, 0, 43, 121
2, 48960, Note_on_c, 0, 62, 121
2, 48960, Note_on_c, 0, 67, 123
2, 48960, Note_on_c, 0, 71, 119
2, 49038, Note_on_c, 0, 71, 0
2, 49038, Note_on_c, 0, 62, 0
2, 49039, Note_on_c, 0, 67, 0
2, 49050, Note_on_c, 0, 64, 108
2, 49050, Note_on_c, 0, 67, 126
2, 49050, Note_on_c, 0, 72, 116
2, 49058, Note_on_c, 0, 43, 0
2, 49078, Note_on_c, 0, 67, 0
2, 49080, Note_on_c, 0, 64, 0
2, 49080, Note_on_c, 0, 43, 123
2, 49087, Note_on_c, 0, 72, 0
2, 49140, Note_on_c, 0, 62, 111
2, 49140, Note_on_c, 0, 67, 119
2, 49140, Note_on_c, 0, 71, 110
2, 49175, Note_on_c, 0, 43, 0
2, 49200, Note_on_c, 0, 43, 126
2, 49247, Note_on_c, 0, 62, 0
2, 49260, Note_on_c, 0, 62, 123
2, 49320, Note_on_c, 0, 55, 123
2, 49367, Note_on_c, 0, 43, 0
2, 49380, Note_on_c, 0, 55, 0
2, 49380, Note_on_c, 0, 43, 126
2, 49410, Note_on_c, 0, 71, 0
2, 49410, Note_on_c, 0, 67, 0
2, 49413, Note_on_c, 0, 62, 0
2, 49431, Note_on_c, 0, 43, 0
2, 49440, Note_on_c, 0, 40, 126
2, 49440, Note_on_c, 0, 52, 119
2, 49440, Note_on_c, 0, 64, 118
2, 49440, Note_on_c, 0, 67, 127
2, 49440, Note_on_c, 0, 71, 126
2, 49521, Note_on_c, 0, 64, 0
2, 49525, Note_on_c, 0, 67, 0
2, 49525, Note_on_c, 0, 71, 0
2, 49530, Note_on_c, 0, 64, 107
2, 49530, Note_on_c, 0, 67, 114
2, 49530, Note_on_c, 0, 71, 116
2, 49543, Note_on_c, 0, 52, 0
2, 49544, Note_on_c, 0, 40, 0
2, 49558, Note_on_c, 0, 67, 0
2, 49560, Note_on_c, 0, 40, 116
2, 49560, Note_on_c, 0, 52, 119
2, 49561, Note_on_c, 0, 64, 0
2, 49562, Note_on_c, 0, 71, 0
2, 49607, Note_on_c, 0, 52, 0
2, 49610, Note_on_c, 0, 40, 0
2, 49620, Note_on_c, 0, 38, 116
2, 49620, Note_on_c, 0, 50, 119
2, 49620, Note_on_c, 0, 62, 113
2, 49620, Note_on_c, 0, 66, 116
2, 49620, Note_on_c, 0, 69, 123
2, 49667, Note_on_c, 0, 50, 0
2, 49670, Note_on_c, 0, 38, 0
2, 49673, Control_c, 0, 64, 127
2, 49673, Control_c, 0, 64, 0
2, 49680, Note_on_c, 0, 38, 116
2, 49680, Note_on_c, 0, 50, 116
2, 49684, Control_c, 0, 64, 127
2, 49718, Note_on_c, 0, 66, 0
2, 49718, Note_on_c, 0, 69, 0
2, 49718, Note_on_c, 0, 62, 0
2, 49740, Note_on_c, 0, 74, 127
2, 49774, Note_on_c, 0, 74, 0
2, 49774, Note_on_c, 0, 38, 0
2, 49776, Note_on_c, 0, 50, 0
2, 49800, Note_on_c, 0, 38, 113
2, 49800, Note_on_c, 0, 50, 113
2, 49800, Note_on_c, 0, 62, 127
2, 49815, Note_on_c, 0, 62, 0
2, 49824, Control_c, 0, 64, 0
2, 49826, Control_c, 0, 64, 127
2, 49828, Control_c, 0, 64, 0
2, 49830, Note_on_c, 0, 62, 107
2, 49855, Control_c, 0, 64, 127
2, 49860, Note_on_c, 0, 38, 0
2, 49878, Note_on_c, 0, 50, 0
2, 49882, Note_on_c, 0, 62, 0
2, 49890, Note_on_c, 0, 38, 114
2, 49890, Note_on_c, 0, 62, 88
2, 49901, Note_on_c, 0, 62, 0
2, 49907, Note_on_c, 0, 38, 0
2, 49916, Control_c, 0, 64, 0
2, 49920, Note_on_c, 0, 48, 114
2, 49920, Note_on_c, 0, 64, 116
2, 49920, Note_on_c, 0, 67, 123
2, 49920, Note_on_c, 0, 72, 119
2, 49997, Note_on_c, 0, 64, 0
2, 49999, Note_on_c, 0, 67, 0
2, 50001, Note_on_c, 0, 72, 0
2, 50010, Note_on_c, 0, 64, 117
2, 50010, Note_on_c, 0, 67, 126
2, 50010, Note_on_c, 0, 72, 121
2, 50026, Note_on_c, 0, 48, 0
2, 50040, Note_on_c, 0, 36, 123
2, 50043, Note_on_c, 0, 64, 0
2, 50044, Note_on_c, 0, 67, 0
2, 50051, Note_on_c, 0, 72, 0
2, 50099, Note_on_c, 0, 36, 0
2, 50100, Note_on_c, 0, 55, 127
2, 50100, Note_on_c, 0, 62, 127
2, 50100, Note_on_c, 0, 67, 127
2, 50100, Note_on_c, 0, 71, 127
2, 50160, Note_on_c, 0, 31, 127
2, 50160, Note_on_c, 0, 43, 127
2, 50161, Note_on_c, 0, 55, 0
2, 50205, Note_on_c, 0, 62, 0
2, 50209, Note_on_c, 0, 67, 0
2, 50211, Note_on_c, 0, 71, 0
2, 50220, Note_on_c, 0, 62, 127
2, 50268, Note_on_c, 0, 43, 0
2, 50271, Note_on_c, 0, 31, 0
2, 50272, Note_on_c, 0, 62, 0
2, 50280, Note_on_c, 0, 43, 127
2, 50280, Note_on_c, 0, 55, 127
2, 50280, Note_on_c, 0, 67, 127
2, 50332, Note_on_c, 0, 67, 0
2, 50340, Note_on_c, 0, 71, 127
2, 50388, Note_on_c, 0, 55, 0
2, 50391, Note_on_c, 0, 43, 0
2, 50392, Note_on_c, 0, 71, 0
2, 50400, Note_on_c, 0, 59, 111
2, 50400, Note_on_c, 0, 55, 116
2, 50400, Note_on_c, 0, 31, 116
2, 50400, Note_on_c, 0, 62, 116
2, 50473, Note_on_c, 0, 55, 0
2, 50474, Note_on_c, 0, 59, 0
2, 50477, Note_on_c, 0, 62, 0
2, 50490, Note_on_c, 0, 59, 109
2, 50490, Note_on_c, 0, 55, 106
2, 50490, Note_on_c, 0, 62, 104
2, 50507, Note_on_c, 0, 59, 0
2, 50508, Note_on_c, 0, 62, 0
2, 50510, Note_on_c, 0, 55, 0
2, 50520, Note_on_c, 0, 43, 98
2, 50580, Note_on_c, 0, 55, 111
2, 50580, Note_on_c, 0, 64, 116
2, 50580, Note_on_c, 0, 60, 111
2, 50683, Note_on_c, 0, 60, 0
2, 50683, Note_on_c, 0, 55, 0
2, 50686, Note_on_c, 0, 64, 0
2, 50699, Note_on_c, 0, 64, 101
2, 50699, Note_on_c, 0, 55, 106
2, 50699, Note_on_c, 0, 60, 108
2, 50720, Note_on_c, 0, 43, 0
2, 50747, Note_on_c, 0, 31, 0
2, 50759, Note_on_c, 0, 43, 103
2, 50768, Note_on_c, 0, 43, 0
2, 50795, Note_on_c, 0, 55, 0
2, 50818, Note_on_c, 0, 43, 116
2, 50819, Note_on_c, 0, 60, 0
2, 50819, Note_on_c, 0, 55, 96
2, 50825, Note_on_c, 0, 64, 0
2, 50838, Note_on_c, 0, 43, 0
2, 50844, Note_on_c, 0, 55, 0
2, 50879, Note_on_c, 0, 31, 113
2, 50880, Note_on_c, 0, 65, 124
2, 50880, Note_on_c, 0, 62, 124
2, 50880, Note_on_c, 0, 55, 124
2, 50941, Note_on_c, 0, 43, 78
2, 50957, Note_on_c, 0, 43, 0
2, 50967, Note_on_c, 0, 55, 0
2, 50968, Note_on_c, 0, 65, 0
2, 50971, Note_on_c, 0, 55, 107
2, 50971, Note_on_c, 0, 64, 108
2, 50971, Note_on_c, 0, 60, 107
2, 50974, Note_on_c, 0, 62, 0
2, 51001, Note_on_c, 0, 43, 103
2, 51007, Note_on_c, 0, 64, 0
2, 51007, Note_on_c, 0, 60, 0
2, 51013, Note_on_c, 0, 55, 0
2, 51060, Note_on_c, 0, 65, 116
2, 51060, Note_on_c, 0, 55, 107
2, 51060, Note_on_c, 0, 62, 116
2, 51075, Note_on_c, 0, 43, 0
2, 51120, Note_on_c, 0, 43, 104
2, 51161, Note_on_c, 0, 55, 0
2, 51162, Note_on_c, 0, 62, 0
2, 51163, Note_on_c, 0, 65, 0
2, 51180, Note_on_c, 0, 65, 113
2, 51187, Note_on_c, 0, 43, 0
2, 51235, Note_on_c, 0, 31, 0
2, 51240, Note_on_c, 0, 43, 109
2, 51254, Note_on_c, 0, 65, 0
2, 51260, Note_on_c, 0, 43, 0
2, 51263, Control_c, 0, 64, 127
2, 51299, Note_on_c, 0, 67, 119
2, 51299, Note_on_c, 0, 55, 111
2, 51299, Note_on_c, 0, 43, 109
2, 51319, Note_on_c, 0, 55, 0
2, 51321, Note_on_c, 0, 43, 0
2, 51324, Note_on_c, 0, 67, 0
2, 51352, Control_c, 0, 64, 0
2, 51360, Note_on_c, 0, 31, 108
2, 51360, Note_on_c, 0, 67, 113
2, 51360, Note_on_c, 0, 55, 119
2, 51360, Note_on_c, 0, 59, 113
2, 51360, Note_on_c, 0, 62, 113
2, 51420, Note_on_c, 0, 43, 64
2, 51434, Note_on_c, 0, 43, 0
2, 51436, Note_on_c, 0, 55, 0
2, 51437, Note_on_c, 0, 59, 0
2, 51440, Note_on_c, 0, 62, 0
2, 51443, Note_on_c, 0, 67, 0
2, 51450, Note_on_c, 0, 59, 108
2, 51450, Note_on_c, 0, 62, 102
2, 51450, Note_on_c, 0, 55, 111
2, 51450, Note_on_c, 0, 67, 102
2, 51466, Note_on_c, 0, 62, 0
2, 51468, Note_on_c, 0, 59, 0
2, 51471, Note_on_c, 0, 67, 0
2, 51472, Note_on_c, 0, 55, 0
2, 51479, Note_on_c, 0, 43, 101
2, 51540, Note_on_c, 0, 67, 111
2, 51540, Note_on_c, 0, 64, 107
2, 51540, Note_on_c, 0, 60, 111
2, 51540, Note_on_c, 0, 55, 111
2, 51553, Note_on_c, 0, 43, 0
2, 51599, Note_on_c, 0, 43, 101
2, 51641, Note_on_c, 0, 60, 0
2, 51643, Note_on_c, 0, 64, 0
2, 51644, Note_on_c, 0, 55, 0
2, 51647, Note_on_c, 0, 67, 0
2, 51659, Note_on_c, 0, 64, 119
2, 51659, Note_on_c, 0, 60, 111
2, 51659, Note_on_c, 0, 67, 108
2, 51659, Note_on_c, 0, 55, 109
2, 51676, Note_on_c, 0, 43, 0
2, 51717, Note_on_c, 0, 31, 0
2, 51720, Note_on_c, 0, 43, 101
2, 51725, Control_c, 0, 64, 127
2, 51728, Note_on_c, 0, 55, 0
2, 51732, Note_on_c, 0, 43, 0
2, 51749, Note_on_c, 0, 55, 103
2, 51758, Note_on_c, 0, 60, 0
2, 51763, Note_on_c, 0, 64, 0
2, 51767, Note_on_c, 0, 67, 0
2, 51772, Note_on_c, 0, 55, 0
2, 51810, Note_on_c, 0, 43, 113
2, 51810, Note_on_c, 0, 55, 82
2, 51823, Note_on_c, 0, 55, 0
2, 51825, Control_c, 0, 64, 0
2, 51830, Control_c, 0, 64, 127
2, 51830, Control_c, 0, 64, 0
2, 51833, Note_on_c, 0, 43, 0
2, 51839, Note_on_c, 0, 62, 122
2, 51839, Note_on_c, 0, 67, 106
2, 51839, Note_on_c, 0, 55, 119
2, 51839, Note_on_c, 0, 65, 119
2, 51840, Note_on_c, 0, 31, 116
2, 51901, Note_on_c, 0, 43, 102
2, 51922, Note_on_c, 0, 43, 0
2, 51925, Note_on_c, 0, 62, 0
2, 51928, Note_on_c, 0, 55, 0
2, 51930, Note_on_c, 0, 67, 0
2, 51931, Note_on_c, 0, 65, 0
2, 51931, Note_on_c, 0, 64, 108
2, 51931, Note_on_c, 0, 60, 111
2, 51931, Note_on_c, 0, 55, 106
2, 51931, Note_on_c, 0, 67, 107
2, 51950, Note_on_c, 0, 64, 0
2, 51951, Note_on_c, 0, 60, 0
2, 51955, Note_on_c, 0, 55, 0
2, 51958, Note_on_c, 0, 65, 95
2, 51960, Note_on_c, 0, 67, 0
2, 51961, Note_on_c, 0, 43, 103
2, 51966, Note_on_c, 0, 65, 0
2, 52020, Note_on_c, 0, 55, 113
2, 52020, Note_on_c, 0, 59, 109
2, 52020, Note_on_c, 0, 62, 111
2, 52024, Note_on_c, 0, 43, 0
2, 52080, Note_on_c, 0, 43, 103
2, 52085, Note_on_c, 0, 59, 0
2, 52086, Note_on_c, 0, 55, 0
2, 52098, Note_on_c, 0, 62, 0
2, 52103, Control_c, 0, 64, 127
2, 52127, Control_c, 0, 64, 0
2, 52133, Note_on_c, 0, 43, 0
2, 52139, Note_on_c, 0, 55, 116
2, 52139, Note_on_c, 0, 67, 106
2, 52139, Note_on_c, 0, 65, 107
2, 52143, Note_on_c, 0, 65, 0
2, 52155, Control_c, 0, 64, 127
2, 52169, Note_on_c, 0, 67, 0
2, 52174, Note_on_c, 0, 55, 0
2, 52197, Note_on_c, 0, 31, 0
2, 52200, Note_on_c, 0, 43, 116
2, 52219, Note_on_c, 0, 43, 0
2, 52230, Note_on_c, 0, 67, 106
2, 52230, Note_on_c, 0, 55, 113
2, 52249, Note_on_c, 0, 55, 0
2, 52249, Note_on_c, 0, 67, 0
2, 52259, Note_on_c, 0, 43, 109
2, 52286, Note_on_c, 0, 43, 0
2, 52290, Note_on_c, 0, 38, 91
2, 52303, Control_c, 0, 64, 0
2, 52304, Note_on_c, 0, 38, 0
2, 52319, Note_on_c, 0, 67, 116
2, 52319, Note_on_c, 0, 59, 111
2, 52319, Note_on_c, 0, 31, 122
2, 52319, Note_on_c, 0, 55, 113
2, 52319, Note_on_c, 0, 62, 108
2, 52399, Note_on_c, 0, 59, 0
2, 52401, Note_on_c, 0, 55, 0
2, 52403, Note_on_c, 0, 62, 0
2, 52404, Note_on_c, 0, 67, 0
2, 52410, Note_on_c, 0, 62, 109
2, 52410, Note_on_c, 0, 55, 106
2, 52410, Note_on_c, 0, 67, 104
2, 52410, Note_on_c, 0, 59, 116
2, 52425, Note_on_c, 0, 62, 0
2, 52428, Note_on_c, 0, 59, 0
2, 52429, Note_on_c, 0, 55, 0
2, 52431, Note_on_c, 0, 67, 0
2, 52440, Note_on_c, 0, 43, 104
2, 52500, Note_on_c, 0, 55, 119
2, 52500, Note_on_c, 0, 64, 124
2, 52500, Note_on_c, 0, 60, 119
2, 52500, Note_on_c, 0, 67, 119
2, 52579, Control_c, 0, 64, 127
2, 52597, Note_on_c, 0, 60, 0
2, 52600, Note_on_c, 0, 64, 0
2, 52600, Note_on_c, 0, 55, 0
2, 52605, Note_on_c, 0, 67, 0
2, 52620, Note_on_c, 0, 55, 109
2, 52620, Note_on_c, 0, 67, 116
2, 52620, Note_on_c, 0, 64, 119
2, 52620, Note_on_c, 0, 60, 119
2, 52622, Note_on_c, 0, 43, 0
2, 52679, Note_on_c, 0, 31, 0
2, 52680, Note_on_c, 0, 43, 113
2, 52690, Note_on_c, 0, 60, 0
2, 52691, Note_on_c, 0, 64, 0
2, 52693, Note_on_c, 0, 55, 0
2, 52699, Note_on_c, 0, 43, 0
2, 52701, Note_on_c, 0, 67, 0
2, 52710, Note_on_c, 0, 55, 106
2, 52710, Note_on_c, 0, 60, 113
2, 52710, Note_on_c, 0, 64, 104
2, 52710, Note_on_c, 0, 67, 69
2, 52715, Note_on_c, 0, 67, 0
2, 52724, Note_on_c, 0, 64, 0
2, 52728, Note_on_c, 0, 60, 0
2, 52729, Note_on_c, 0, 55, 0
2, 52739, Note_on_c, 0, 43, 116
2, 52785, Control_c, 0, 64, 0
2, 52788, Note_on_c, 0, 43, 0
2, 52799, Note_on_c, 0, 65, 119
2, 52799, Note_on_c, 0, 62, 127
2, 52799, Note_on_c, 0, 55, 127
2, 52799, Note_on_c, 0, 31, 119
2, 52860, Note_on_c, 0, 43, 107
2, 52881, Note_on_c, 0, 55, 0
2, 52883, Note_on_c, 0, 43, 0
2, 52884, Note_on_c, 0, 65, 0
2, 52888, Note_on_c, 0, 62, 0
2, 52890, Note_on_c, 0, 60, 109
2, 52890, Note_on_c, 0, 55, 108
2, 52890, Note_on_c, 0, 64, 109
2, 52911, Note_on_c, 0, 60, 0
2, 52914, Note_on_c, 0, 64, 0
2, 52919, Note_on_c, 0, 55, 0
2, 52920, Note_on_c, 0, 43, 103
2, 52980, Note_on_c, 0, 55, 109
2, 52980, Note_on_c, 0, 59, 119
2, 52980, Note_on_c, 0, 62, 122
2, 52987, Note_on_c, 0, 43, 0
2, 53032, Note_on_c, 0, 62, 0
2, 53034, Note_on_c, 0, 59, 0
2, 53039, Note_on_c, 0, 43, 103
2, 53043, Note_on_c, 0, 55, 0
2, 53043, Control_c, 0, 64, 127
2, 53099, Note_on_c, 0, 62, 111
2, 53099, Note_on_c, 0, 55, 119
2, 53099, Note_on_c, 0, 67, 116
2, 53102, Note_on_c, 0, 43, 0
2, 53102, Control_c, 0, 64, 0
2, 53160, Note_on_c, 0, 43, 103
2, 53161, Note_on_c, 0, 31, 0
2, 53171, Note_on_c, 0, 62, 0
2, 53172, Note_on_c, 0, 55, 0
2, 53173, Note_on_c, 0, 67, 0
2, 53180, Note_on_c, 0, 43, 0
2, 53189, Note_on_c, 0, 67, 103
2, 53189, Note_on_c, 0, 55, 108
2, 53189, Note_on_c, 0, 62, 106
2, 53190, Control_c, 0, 64, 127
2, 53208, Note_on_c, 0, 62, 0
2, 53210, Note_on_c, 0, 55, 0
2, 53210, Note_on_c, 0, 67, 0
2, 53218, Note_on_c, 0, 43, 103
2, 53249, Note_on_c, 0, 55, 51
2, 53262, Note_on_c, 0, 55, 0
2, 53265, Control_c, 0, 64, 0
2, 53274, Note_on_c, 0, 43, 0
2, 53279, Note_on_c, 0, 62, 116
2, 53279, Note_on_c, 0, 55, 113
2, 53279, Note_on_c, 0, 67, 113
2, 53280, Note_on_c, 0, 31, 107
2, 53340, Note_on_c, 0, 43, 98
2, 53357, Note_on_c, 0, 67, 0
2, 53358, Note_on_c, 0, 55, 0
2, 53363, Note_on_c, 0, 43, 0
2, 53364, Note_on_c, 0, 62, 0
2, 53368, Control_c, 0, 64, 127
2, 53370, Note_on_c, 0, 67, 104
2, 53370, Note_on_c, 0, 55, 116
2, 53387, Note_on_c, 0, 67, 0
2, 53389, Note_on_c, 0, 55, 0
2, 53399, Note_on_c, 0, 43, 90
2, 53456, Control_c, 0, 64, 0
2, 53459, Note_on_c, 0, 67, 122
2, 53459, Note_on_c, 0, 55, 124
2, 53463, Note_on_c, 0, 43, 0
2, 53500, Note_on_c, 0, 67, 0
2, 53509, Control_c, 0, 64, 127
2, 53519, Note_on_c, 0, 43, 98
2, 53521, Note_on_c, 0, 31, 0
2, 53527, Note_on_c, 0, 55, 0
2, 53542, Note_on_c, 0, 43, 0
2, 53549, Note_on_c, 0, 55, 119
2, 53549, Note_on_c, 0, 67, 107
2, 53565, Note_on_c, 0, 67, 0
2, 53569, Note_on_c, 0, 55, 0
2, 53579, Note_on_c, 0, 43, 104
2, 53590, Note_on_c, 0, 43, 0
2, 53608, Note_on_c, 0, 43, 96
2, 53627, Note_on_c, 0, 43, 0
2, 53639, Note_on_c, 0, 55, 113
2, 53639, Note_on_c, 0, 67, 107
2, 53663, Note_on_c, 0, 67, 0
2, 53668, Note_on_c, 0, 43, 104
2, 53670, Note_on_c, 0, 55, 0
2, 53671, Note_on_c, 0, 67, 58
2, 53684, Note_on_c, 0, 43, 0
2, 53694, Note_on_c, 0, 67, 0
2, 53699, Note_on_c, 0, 55, 104
2, 53714, Note_on_c, 0, 55, 0
2, 53729, Note_on_c, 0, 55, 103
2, 53729, Note_on_c, 0, 67, 93
2, 53729, Note_on_c, 0, 43, 96
2, 53741, Note_on_c, 0, 67, 0
2, 53744, Note_on_c, 0, 43, 0
2, 53747, Note_on_c, 0, 55, 0
2, 53754, Control_c, 0, 64, 0
2, 53759, Note_on_c, 0, 55, 116
2, 53759, Note_on_c, 0, 65, 127
2, 53759, Note_on_c, 0, 61, 127
2, 53760, Note_on_c, 0, 31, 106
2, 53760, Note_on_c, 0, 64, 69
2, 53763, Note_on_c, 0, 64, 0
2, 53775, Note_on_c, 0, 61, 0
2, 53788, Note_on_c, 0, 62, 68
2, 53821, Note_on_c, 0, 43, 96
2, 53843, Note_on_c, 0, 43, 0
2, 53847, Note_on_c, 0, 55, 0
2, 53849, Note_on_c, 0, 65, 0
2, 53851, Note_on_c, 0, 64, 104
2, 53851, Note_on_c, 0, 60, 106
2, 53851, Note_on_c, 0, 55, 113
2, 53865, Note_on_c, 0, 62, 0
2, 53867, Note_on_c, 0, 60, 0
2, 53872, Note_on_c, 0, 64, 0
2, 53877, Note_on_c, 0, 55, 0
2, 53881, Note_on_c, 0, 43, 97
2, 53892, Control_c, 0, 64, 127
2, 53935, Control_c, 0, 64, 0
2, 53939, Note_on_c, 0, 43, 0
2, 53939, Note_on_c, 0, 53, 116
2, 53940, Note_on_c, 0, 59, 113
2, 53940, Note_on_c, 0, 62, 113
2, 53998, Note_on_c, 0, 43, 101
2, 54018, Note_on_c, 0, 43, 0
2, 54024, Control_c, 0, 64, 127
2, 54036, Note_on_c, 0, 53, 0
2, 54042, Note_on_c, 0, 62, 0
2, 54043, Note_on_c, 0, 59, 0
2, 54050, Control_c, 0, 64, 0
2, 54059, Note_on_c, 0, 64, 109
2, 54059, Note_on_c, 0, 55, 113
2, 54059, Note_on_c, 0, 60, 116
2, 54113, Note_on_c, 0, 31, 0
2, 54119, Note_on_c, 0, 43, 104
2, 54135, Note_on_c, 0, 55, 0
2, 54137, Note_on_c, 0, 60, 0
2, 54139, Note_on_c, 0, 64, 0
2, 54139, Note_on_c, 0, 43, 0
2, 54149, Note_on_c, 0, 60, 111
2, 54149, Note_on_c, 0, 55, 111
2, 54149, Note_on_c, 0, 64, 124
2, 54152, Control_c, 0, 64, 127
2, 54177, Note_on_c, 0, 55, 0
2, 54178, Note_on_c, 0, 43, 104
2, 54185, Note_on_c, 0, 60, 0
2, 54206, Note_on_c, 0, 43, 0
2, 54208, Note_on_c, 0, 55, 70
2, 54208, Note_on_c, 0, 38, 96
2, 54214, Note_on_c, 0, 64, 0
2, 54224, Control_c, 0, 64, 0
2, 54225, Note_on_c, 0, 55, 0
2, 54229, Control_c, 0, 64, 127
2, 54230, Control_c, 0, 64, 0
2, 54231, Note_on_c, 0, 38, 0
2, 54239, Note_on_c, 0, 31, 111
2, 54239, Note_on_c, 0, 53, 119
2, 54239, Note_on_c, 0, 62, 122
2, 54239, Note_on_c, 0, 59, 127
2, 54321, Note_on_c, 0, 59, 0
2, 54322, Note_on_c, 0, 53, 0
2, 54324, Note_on_c, 0, 62, 0
2, 54330, Note_on_c, 0, 62, 102
2, 54330, Note_on_c, 0, 59, 109
2, 54330, Note_on_c, 0, 53, 106
2, 54353, Note_on_c, 0, 53, 0
2, 54355, Note_on_c, 0, 59, 0
2, 54355, Note_on_c, 0, 62, 0
2, 54360, Note_on_c, 0, 43, 104
2, 54419, Note_on_c, 0, 64, 119
2, 54419, Note_on_c, 0, 55, 111
2, 54420, Note_on_c, 0, 60, 119
2, 54438, Note_on_c, 0, 43, 0
2, 54479, Note_on_c, 0, 43, 103
2, 54502, Note_on_c, 0, 55, 0
2, 54504, Note_on_c, 0, 43, 0
2, 54510, Note_on_c, 0, 55, 107
2, 54522, Note_on_c, 0, 60, 0
2, 54527, Note_on_c, 0, 64, 0
2, 54530, Note_on_c, 0, 55, 0
2, 54534, Note_on_c, 0, 31, 0
2, 54539, Note_on_c, 0, 43, 113
2, 54570, Control_c, 0, 64, 127
2, 54570, Note_on_c, 0, 31, 122
2, 54575, Note_on_c, 0, 43, 0
2, 54599, Note_on_c, 0, 60, 122
2, 54599, Note_on_c, 0, 64, 113
2, 54599, Note_on_c, 0, 55, 111
2, 54644, Note_on_c, 0, 55, 0
2, 54659, Note_on_c, 0, 55, 107
2, 54700, Note_on_c, 0, 55, 0
2, 54705, Note_on_c, 0, 64, 0
2, 54709, Note_on_c, 0, 60, 0
2, 54714, Control_c, 0, 64, 0
2, 54715, Note_on_c, 0, 31, 0
2, 54720, Note_on_c, 0, 43, 113
2, 54720, Note_on_c, 0, 65, 124
2, 54720, Note_on_c, 0, 62, 116
2, 54720, Note_on_c, 0, 55, 119
2, 54800, Note_on_c, 0, 55, 0
2, 54802, Note_on_c, 0, 65, 0
2, 54803, Note_on_c, 0, 62, 0
2, 54810, Note_on_c, 0, 55, 113
2, 54810, Note_on_c, 0, 64, 113
2, 54810, Note_on_c, 0, 60, 111
2, 54819, Control_c, 0, 64, 127
2, 54822, Note_on_c, 0, 60, 0
2, 54827, Note_on_c, 0, 64, 0
2, 54831, Note_on_c, 0, 55, 0
2, 54840, Note_on_c, 0, 43, 0
2, 54840, Note_on_c, 0, 31, 108
2, 54885, Control_c, 0, 64, 0
2, 54899, Note_on_c, 0, 62, 116
2, 54899, Note_on_c, 0, 59, 124
2, 54899, Note_on_c, 0, 55, 122
2, 54959, Note_on_c, 0, 43, 101
2, 54967, Note_on_c, 0, 62, 0
2, 54979, Note_on_c, 0, 59, 0
2, 54981, Control_c, 0, 64, 127
2, 55001, Note_on_c, 0, 55, 0
2, 55019, Note_on_c, 0, 55, 109
2, 55019, Note_on_c, 0, 62, 119
2, 55019, Note_on_c, 0, 67, 119
2, 55021, Note_on_c, 0, 43, 0
2, 55053, Note_on_c, 0, 62, 0
2, 55056, Note_on_c, 0, 55, 0
2, 55057, Note_on_c, 0, 67, 0
2, 55080, Note_on_c, 0, 43, 98
2, 55083, Note_on_c, 0, 31, 0
2, 55096, Note_on_c, 0, 43, 0
2, 55109, Note_on_c, 0, 62, 100
2, 55109, Note_on_c, 0, 67, 102
2, 55109, Note_on_c, 0, 55, 106
2, 55123, Note_on_c, 0, 62, 0
2, 55131, Note_on_c, 0, 67, 0
2, 55134, Note_on_c, 0, 55, 0
2, 55139, Note_on_c, 0, 43, 107
2, 55169, Note_on_c, 0, 38, 93
2, 55171, Note_on_c, 0, 43, 0
2, 55186, Control_c, 0, 64, 0
2, 55189, Note_on_c, 0, 38, 0
2, 55191, Control_c, 0, 64, 127
2, 55199, Note_on_c, 0, 62, 119
2, 55199, Note_on_c, 0, 31, 107
2, 55199, Note_on_c, 0, 53, 111
2, 55199, Note_on_c, 0, 67, 111
2, 55199, Note_on_c, 0, 59, 113
2, 55277, Note_on_c, 0, 53, 0
2, 55281, Note_on_c, 0, 59, 0
2, 55282, Note_on_c, 0, 62, 0
2, 55284, Note_on_c, 0, 67, 0
2, 55290, Note_on_c, 0, 62, 107
2, 55290, Note_on_c, 0, 53, 109
2, 55290, Note_on_c, 0, 59, 109
2, 55290, Note_on_c, 0, 67, 107
2, 55309, Note_on_c, 0, 62, 0
2, 55310, Note_on_c, 0, 67, 0
2, 55310, Note_on_c, 0, 53, 0
2, 55311, Note_on_c, 0, 59, 0
2, 55320, Note_on_c, 0, 43, 102
2, 55370, Control_c, 0, 64, 0
2, 55379, Note_on_c, 0, 67, 108
2, 55379, Note_on_c, 0, 55, 113
2, 55380, Note_on_c, 0, 64, 119
2, 55380, Note_on_c, 0, 60, 119
2, 55384, Note_on_c, 0, 43, 0
2, 55440, Note_on_c, 0, 43, 106
2, 55481, Note_on_c, 0, 60, 0
2, 55483, Note_on_c, 0, 55, 0
2, 55484, Note_on_c, 0, 64, 0
2, 55487, Note_on_c, 0, 67, 0
2, 55499, Note_on_c, 0, 67, 107
2, 55499, Note_on_c, 0, 60, 109
2, 55499, Note_on_c, 0, 64, 127
2, 55499, Note_on_c, 0, 55, 109
2, 55508, Note_on_c, 0, 43, 0
2, 55543, Note_on_c, 0, 31, 0
2, 55558, Note_on_c, 0, 43, 93
2, 55571, Note_on_c, 0, 43, 0
2, 55579, Note_on_c, 0, 55, 0
2, 55595, Control_c, 0, 64, 127
2, 55603, Note_on_c, 0, 60, 0
2, 55611, Note_on_c, 0, 64, 0
2, 55618, Note_on_c, 0, 55, 90
2, 55618, Note_on_c, 0, 43, 95
2, 55621, Note_on_c, 0, 67, 0
2, 55642, Note_on_c, 0, 43, 0
2, 55664, Control_c, 0, 64, 0
2, 55667, Note_on_c, 0, 55, 0
2, 55679, Note_on_c, 0, 65, 119
2, 55679, Note_on_c, 0, 31, 111
2, 55679, Note_on_c, 0, 67, 103
2, 55679, Note_on_c, 0, 55, 107
2, 55679, Note_on_c, 0, 61, 122
2, 55680, Note_on_c, 0, 62, 59
2, 55681, Note_on_c, 0, 60, 71
2, 55684, Note_on_c, 0, 60, 0
2, 55690, Note_on_c, 0, 61, 0
2, 55739, Note_on_c, 0, 43, 92
2, 55749, Note_on_c, 0, 62, 0
2, 55757, Note_on_c, 0, 55, 0
2, 55758, Note_on_c, 0, 65, 0
2, 55761, Note_on_c, 0, 67, 0
2, 55770, Note_on_c, 0, 67, 104
2, 55770, Note_on_c, 0, 64, 116
2, 55770, Note_on_c, 0, 55, 107
2, 55771, Note_on_c, 0, 43, 0
2, 55793, Note_on_c, 0, 64, 0
2, 55798, Note_on_c, 0, 55, 0
2, 55800, Note_on_c, 0, 43, 119
2, 55824, Note_on_c, 0, 31, 0
2, 55843, Note_on_c, 0, 67, 0
2, 55851, Note_on_c, 0, 43, 0
2, 55859, Note_on_c, 0, 62, 108
2, 55859, Note_on_c, 0, 67, 106
2, 55860, Note_on_c, 0, 59, 108
2, 55860, Note_on_c, 0, 55, 109
2, 55860, Note_on_c, 0, 31, 119
2, 55920, Note_on_c, 0, 43, 113
2, 55921, Note_on_c, 0, 55, 0
2, 55958, Note_on_c, 0, 59, 0
2, 55958, Note_on_c, 0, 67, 0
2, 55962, Note_on_c, 0, 62, 0
2, 55977, Note_on_c, 0, 43, 0
2, 55979, Note_on_c, 0, 67, 119
2, 55979, Note_on_c, 0, 53, 113
2, 55979, Note_on_c, 0, 62, 108
2, 55980, Note_on_c, 0, 60, 90
2, 55989, Note_on_c, 0, 60, 0
2, 56016, Note_on_c, 0, 62, 0
2, 56017, Control_c, 0, 64, 127
2, 56020, Note_on_c, 0, 53, 0
2, 56039, Note_on_c, 0, 43, 103
2, 56054, Note_on_c, 0, 67, 0
2, 56059, Note_on_c, 0, 43, 0
2, 56069, Note_on_c, 0, 67, 113
2, 56069, Note_on_c, 0, 53, 113
2, 56069, Note_on_c, 0, 62, 116
2, 56070, Control_c, 0, 64, 0
2, 56087, Note_on_c, 0, 31, 0
2, 56098, Note_on_c, 0, 43, 116
2, 56111, Note_on_c, 0, 53, 0
2, 56130, Note_on_c, 0, 53, 107
2, 56140, Note_on_c, 0, 62, 0
2, 56142, Note_on_c, 0, 67, 0
2, 56143, Note_on_c, 0, 43, 0
2, 56147, Note_on_c, 0, 53, 0
2, 56160, Note_on_c, 0, 31, 123
2, 56160, Note_on_c, 0, 43, 127
2, 56160, Note_on_c, 0, 55, 121
2, 56160, Note_on_c, 0, 59, 123
2, 56160, Note_on_c, 0, 62, 127
2, 56160, Note_on_c, 0, 67, 123
2, 56228, Note_on_c, 0, 55, 0
2, 56230, Note_on_c, 0, 62, 0
2, 56230, Note_on_c, 0, 59, 0
2, 56230, Note_on_c, 0, 67, 0
2, 56250, Note_on_c, 0, 43, 0
2, 56250, Note_on_c, 0, 55, 113
2, 56250, Note_on_c, 0, 60, 106
2, 56250, Note_on_c, 0, 64, 116
2, 56250, Note_on_c, 0, 67, 118
2, 56262, Note_on_c, 0, 64, 0
2, 56264, Note_on_c, 0, 55, 0
2, 56265, Note_on_c, 0, 60, 0
2, 56268, Note_on_c, 0, 67, 0
2, 56280, Note_on_c, 0, 43, 114
2, 56340, Note_on_c, 0, 55, 123
2, 56340, Note_on_c, 0, 59, 118
2, 56340, Note_on_c, 0, 62, 123
2, 56340, Note_on_c, 0, 67, 126
2, 56413, Note_on_c, 0, 43, 0
2, 56449, Note_on_c, 0, 31, 0
2, 56460, Note_on_c, 0, 43, 116
2, 56464, Note_on_c, 0, 55, 0
2, 56471, Note_on_c, 0, 43, 0
2, 56520, Note_on_c, 0, 55, 123
2, 56579, Note_on_c, 0, 55, 0
2, 56580, Note_on_c, 0, 43, 117
2, 56601, Note_on_c, 0, 59, 0
2, 56603, Note_on_c, 0, 62, 0
2, 56606, Note_on_c, 0, 67, 0
2, 56610, Note_on_c, 0, 55, 113
2, 56631, Note_on_c, 0, 55, 0
2, 56634, Note_on_c, 0, 43, 0
2, 56640, Note_on_c, 0, 31, 123
2, 56640, Note_on_c, 0, 55, 119
2, 56640, Note_on_c, 0, 59, 123
2, 56640, Note_on_c, 0, 62, 126
2, 56640, Note_on_c, 0, 67, 126
2, 56717, Note_on_c, 0, 55, 0
2, 56719, Note_on_c, 0, 59, 0
2, 56721, Note_on_c, 0, 62, 0
2, 56725, Note_on_c, 0, 67, 0
2, 56730, Note_on_c, 0, 55, 110
2, 56730, Note_on_c, 0, 60, 110
2, 56730, Note_on_c, 0, 64, 113
2, 56730, Note_on_c, 0, 67, 113
2, 56738, Note_on_c, 0, 64, 0
2, 56739, Note_on_c, 0, 60, 0
2, 56743, Note_on_c, 0, 67, 0
2, 56747, Note_on_c, 0, 55, 0
2, 56760, Note_on_c, 0, 43, 117
2, 56820, Note_on_c, 0, 55, 126
2, 56820, Note_on_c, 0, 59, 119
2, 56820, Note_on_c, 0, 62, 118
2, 56820, Note_on_c, 0, 67, 123
2, 56834, Note_on_c, 0, 43, 0
2, 56877, Note_on_c, 0, 55, 0
2, 56878, Note_on_c, 0, 59, 0
2, 56879, Note_on_c, 0, 31, 0
2, 56880, Note_on_c, 0, 67, 0
2, 56880, Note_on_c, 0, 43, 126
2, 56883, Note_on_c, 0, 62, 0
2, 56888, Control_c, 0, 64, 127
2, 56910, Note_on_c, 0, 60, 61
2, 56914, Note_on_c, 0, 60, 0
2, 56934, Note_on_c, 0, 43, 0
2, 56934, Control_c, 0, 64, 0
2, 56940, Note_on_c, 0, 31, 119
2, 56940, Note_on_c, 0, 57, 126
2, 56940, Note_on_c, 0, 60, 127
2, 56940, Note_on_c, 0, 65, 123
2, 57000, Note_on_c, 0, 31, 0
2, 57000, Note_on_c, 0, 43, 127
2, 57005, Note_on_c, 0, 57, 0
2, 57016, Note_on_c, 0, 60, 0
2, 57019, Note_on_c, 0, 65, 0
2, 57030, Note_on_c, 0, 55, 126
2, 57030, Note_on_c, 0, 60, 121
2, 57030, Note_on_c, 0, 64, 127
2, 57058, Note_on_c, 0, 43, 0
2, 57060, Note_on_c, 0, 46, 127
2, 57088, Note_on_c, 0, 46, 0
2, 57090, Note_on_c, 0, 47, 127
2, 57101, Note_on_c, 0, 55, 0
2, 57105, Note_on_c, 0, 60, 0
2, 57108, Note_on_c, 0, 64, 0
2, 57111, Note_on_c, 0, 47, 0
2, 57120, Note_on_c, 0, 31, 123
2, 57120, Note_on_c, 0, 43, 127
2, 57120, Note_on_c, 0, 55, 121
2, 57120, Note_on_c, 0, 59, 123
2, 57120, Note_on_c, 0, 62, 127
2, 57120, Note_on_c, 0, 67, 123
2, 57188, Note_on_c, 0, 55, 0
2, 57190, Note_on_c, 0, 62, 0
2, 57190, Note_on_c, 0, 59, 0
2, 57190, Note_on_c, 0, 67, 0
2, 57210, Note_on_c, 0, 43, 0
2, 57210, Note_on_c, 0, 55, 113
2, 57210, Note_on_c, 0, 60, 106
2, 57210, Note_on_c, 0, 64, 116
2, 57210, Note_on_c, 0, 67, 118
2, 57222, Note_on_c, 0, 64, 0
2, 57224, Note_on_c, 0, 55, 0
2, 57225, Note_on_c, 0, 60, 0
2, 57228, Note_on_c, 0, 67, 0
2, 57240, Note_on_c, 0, 43, 114
2, 57300, Note_on_c, 0, 55, 123
2, 57300, Note_on_c, 0, 59, 118
2, 57300, Note_on_c, 0, 62, 123
2, 57300, Note_on_c, 0, 67, 126
2, 57373, Note_on_c, 0, 43, 0
2, 57409, Note_on_c, 0, 31, 0
2, 57420, Note_on_c, 0, 43, 116
2, 57424, Note_on_c, 0, 55, 0
2, 57431, Note_on_c, 0, 43, 0
2, 57480, Note_on_c, 0, 55, 123
2, 57539, Note_on_c, 0, 55, 0
2, 57540, Note_on_c, 0, 43, 117
2, 57561, Note_on_c, 0, 59, 0
2, 57563, Note_on_c, 0, 62, 0
2, 57566, Note_on_c, 0, 67, 0
2, 57570, Note_on_c, 0, 55, 113
2, 57591, Note_on_c, 0, 55, 0
2, 57594, Note_on_c, 0, 43, 0
2, 57600, Note_on_c, 0, 31, 123
2, 57600, Note_on_c, 0, 55, 119
2, 57600, Note_on_c, 0, 59, 123
2, 57600, Note_on_c, 0, 62, 126
2, 57600, Note_on_c, 0, 67, 126
2, 57660, Note_on_c, 0, 67, 0
2, 57660, Note_on_c, 0, 59, 0
2, 57660, Note_on_c, 0, 62, 0
2, 57660, Note_on_c, 0, 55, 0
2, 57660, Note_on_c, 0, 50, 97
2, 57660, Note_on_c, 0, 62, 123
2, 57660, Note_on_c, 0, 74, 123
2, 57707, Note_on_c, 0, 74, 0
2, 57707, Note_on_c, 0, 62, 0
2, 57709, Note_on_c, 0, 50, 0
2, 57720, Note_on_c, 0, 52, 126
2, 57720, Note_on_c, 0, 64, 123
2, 57720, Note_on_c, 0, 76, 123
2, 57771, Note_on_c, 0, 76, 0
2, 57771, Note_on_c, 0, 64, 0
2, 57776, Note_on_c, 0, 52, 0
2, 57780, Note_on_c, 0, 55, 116
2, 57780, Note_on_c, 0, 67, 117
2, 57780, Note_on_c, 0, 79, 117
2, 57825, Note_on_c, 0, 55, 0
2, 57832, Note_on_c, 0, 79, 0
2, 57832, Note_on_c, 0, 67, 0
2, 57839, Note_on_c, 0, 31, 0
2, 57840, Note_on_c, 0, 57, 101
2, 57840, Note_on_c, 0, 69, 127
2, 57840, Note_on_c, 0, 81, 127
2, 57848, Control_c, 0, 64, 127
2, 57881, Note_on_c, 0, 57, 0
2, 57894, Control_c, 0, 64, 0
2, 57895, Note_on_c, 0, 81, 0
2, 57895, Note_on_c, 0, 69, 0
2, 57900, Note_on_c, 0, 59, 127
2, 57900, Note_on_c, 0, 71, 127
2, 57900, Note_on_c, 0, 83, 127
2, 57941, Note_on_c, 0, 83, 0
2, 57941, Note_on_c, 0, 71, 0
2, 57948, Note_on_c, 0, 59, 0
2, 57960, Note_on_c, 0, 62, 126
2, 57960, Note_on_c, 0, 74, 126
2, 57960, Note_on_c, 0, 86, 126
2, 57990, Note_on_c, 0, 64, 127
2, 57990, Note_on_c, 0, 76, 127
2, 57990, Note_on_c, 0, 88, 127
2, 57993, Note_on_c, 0, 86, 0
2, 57993, Note_on_c, 0, 62, 0
2, 57993, Note_on_c, 0, 74, 0
2, 58070, Note_on_c, 0, 64, 0
2, 58079, Note_on_c, 0, 76, 0
2, 58079, Note_on_c, 0, 88, 0
2, 59040, MIDI_port, 0
2, 59040, System_exclusive, 5, 126, 127, 9, 1, 247
2, 59040, MIDI_port, 0
2, 59040, End_track
3, 0, Start_track
3, 0, MIDI_port, 0
3, 0, Title_t, "Words"
3, 122, Control_c, 1, 121, 0
3, 124, Control_c, 1, 100, 0
3, 125, Control_c, 1, 101, 0
3, 127, Program_c, 1, 33
3, 127, Control_c, 1, 6, 2
3, 128, Control_c, 1, 7, 100
3, 128, Control_c, 1, 10, 64
3, 128, Control_c, 1, 91, 0
3, 129, Control_c, 1, 93, 40
3, 133, Control_c, 1, 1, 0
3, 134, Control_c, 1, 11, 127
3, 161, Control_c, 1, 72, 64
3, 11999, Note_on_c, 1, 26, 119
3, 12030, Note_on_c, 1, 26, 0
3, 12060, Note_on_c, 1, 26, 102
3, 12089, Note_on_c, 1, 26, 0
3, 12120, Note_on_c, 1, 26, 109
3, 12168, Note_on_c, 1, 26, 0
3, 12180, Note_on_c, 1, 26, 104
3, 12210, Note_on_c, 1, 26, 0
3, 12240, Note_on_c, 1, 26, 113
3, 12264, Note_on_c, 1, 26, 0
3, 12299, Note_on_c, 1, 26, 107
3, 12328, Note_on_c, 1, 26, 0
3, 12360, Note_on_c, 1, 26, 109
3, 12387, Note_on_c, 1, 26, 0
3, 12419, Note_on_c, 1, 26, 104
3, 12448, Note_on_c, 1, 26, 0
3, 12480, Note_on_c, 1, 26, 107
3, 12506, Note_on_c, 1, 26, 0
3, 12538, Note_on_c, 1, 26, 103
3, 12568, Note_on_c, 1, 26, 0
3, 12599, Note_on_c, 1, 26, 103
3, 12624, Note_on_c, 1, 26, 0
3, 12659, Note_on_c, 1, 26, 102
3, 12687, Note_on_c, 1, 26, 0
3, 12719, Note_on_c, 1, 26, 103
3, 12747, Note_on_c, 1, 26, 0
3, 12779, Note_on_c, 1, 26, 104
3, 12808, Note_on_c, 1, 26, 0
3, 12840, Note_on_c, 1, 26, 104
3, 12864, Note_on_c, 1, 26, 0
3, 12900, Note_on_c, 1, 26, 107
3, 12918, Note_on_c, 1, 26, 0
3, 12930, Note_on_c, 1, 26, 101
3, 12952, Note_on_c, 1, 26, 0
3, 12959, Note_on_c, 1, 35, 116
3, 12986, Note_on_c, 1, 35, 0
3, 13020, Note_on_c, 1, 35, 113
3, 13043, Note_on_c, 1, 35, 0
3, 13080, Note_on_c, 1, 35, 109
3, 13105, Note_on_c, 1, 35, 0
3, 13140, Note_on_c, 1, 35, 107
3, 13168, Note_on_c, 1, 35, 0
3, 13200, Note_on_c, 1, 33, 107
3, 13227, Note_on_c, 1, 33, 0
3, 13259, Note_on_c, 1, 33, 116
3, 13284, Note_on_c, 1, 33, 0
3, 13320, Note_on_c, 1, 33, 116
3, 13344, Note_on_c, 1, 33, 0
3, 13379, Note_on_c, 1, 33, 103
3, 13403, Note_on_c, 1, 33, 0
3, 13440, Note_on_c, 1, 31, 113
3, 13464, Note_on_c, 1, 31, 0
3, 13498, Note_on_c, 1, 31, 109
3, 13525, Note_on_c, 1, 31, 0
3, 13559, Note_on_c, 1, 31, 109
3, 13586, Note_on_c, 1, 31, 0
3, 13619, Note_on_c, 1, 31, 109
3, 13645, Note_on_c, 1, 31, 0
3, 13679, Note_on_c, 1, 26, 109
3, 13708, Note_on_c, 1, 26, 0
3, 13739, Note_on_c, 1, 26, 111
3, 13767, Note_on_c, 1, 26, 0
3, 13800, Note_on_c, 1, 26, 107
3, 13828, Note_on_c, 1, 26, 0
3, 13860, Note_on_c, 1, 26, 109
3, 13879, Note_on_c, 1, 26, 0
3, 13890, Note_on_c, 1, 26, 107
3, 13910, Note_on_c, 1, 26, 0
3, 13919, Note_on_c, 1, 26, 122
3, 13956, Note_on_c, 1, 26, 0
3, 13980, Note_on_c, 1, 26, 116
3, 14009, Note_on_c, 1, 26, 0
3, 14040, Note_on_c, 1, 26, 113
3, 14067, Note_on_c, 1, 26, 0
3, 14100, Note_on_c, 1, 26, 116
3, 14129, Note_on_c, 1, 26, 0
3, 14160, Note_on_c, 1, 26, 113
3, 14185, Note_on_c, 1, 26, 0
3, 14219, Note_on_c, 1, 26, 107
3, 14247, Note_on_c, 1, 26, 0
3, 14280, Note_on_c, 1, 26, 109
3, 14303, Note_on_c, 1, 26, 0
3, 14339, Note_on_c, 1, 26, 107
3, 14356, Note_on_c, 1, 26, 0
3, 14370, Note_on_c, 1, 26, 101
3, 14392, Note_on_c, 1, 26, 0
3, 14400, Note_on_c, 1, 26, 113
3, 14427, Note_on_c, 1, 26, 0
3, 14458, Note_on_c, 1, 26, 109
3, 14487, Note_on_c, 1, 26, 0
3, 14519, Note_on_c, 1, 26, 109
3, 14547, Note_on_c, 1, 26, 0
3, 14579, Note_on_c, 1, 26, 82
3, 14609, Note_on_c, 1, 26, 0
3, 14639, Note_on_c, 1, 26, 109
3, 14667, Note_on_c, 1, 26, 0
3, 14699, Note_on_c, 1, 26, 101
3, 14714, Note_on_c, 1, 26, 0
3, 14729, Note_on_c, 1, 26, 98
3, 14753, Note_on_c, 1, 26, 0
3, 14760, Note_on_c, 1, 30, 109
3, 14793, Note_on_c, 1, 30, 0
3, 14820, Note_on_c, 1, 33, 122
3, 14861, Note_on_c, 1, 33, 0
3, 14879, Note_on_c, 1, 35, 116
3, 14906, Note_on_c, 1, 35, 0
3, 14940, Note_on_c, 1, 35, 113
3, 14963, Note_on_c, 1, 35, 0
3, 15000, Note_on_c, 1, 35, 109
3, 15025, Note_on_c, 1, 35, 0
3, 15060, Note_on_c, 1, 35, 107
3, 15088, Note_on_c, 1, 35, 0
3, 15120, Note_on_c, 1, 33, 107
3, 15147, Note_on_c, 1, 33, 0
3, 15179, Note_on_c, 1, 33, 116
3, 15204, Note_on_c, 1, 33, 0
3, 15240, Note_on_c, 1, 33, 116
3, 15264, Note_on_c, 1, 33, 0
3, 15299, Note_on_c, 1, 33, 103
3, 15323, Note_on_c, 1, 33, 0
3, 15360, Note_on_c, 1, 31, 113
3, 15384, Note_on_c, 1, 31, 0
3, 15418, Note_on_c, 1, 31, 109
3, 15445, Note_on_c, 1, 31, 0
3, 15479, Note_on_c, 1, 31, 109
3, 15506, Note_on_c, 1, 31, 0
3, 15539, Note_on_c, 1, 31, 109
3, 15565, Note_on_c, 1, 31, 0
3, 15599, Note_on_c, 1, 26, 109
3, 15628, Note_on_c, 1, 26, 0
3, 15659, Note_on_c, 1, 26, 111
3, 15687, Note_on_c, 1, 26, 0
3, 15720, Note_on_c, 1, 26, 107
3, 15748, Note_on_c, 1, 26, 0
3, 15780, Note_on_c, 1, 26, 109
3, 15799, Note_on_c, 1, 26, 0
3, 15810, Note_on_c, 1, 26, 107
3, 15830, Note_on_c, 1, 26, 0
3, 15839, Note_on_c, 1, 35, 122
3, 15871, Note_on_c, 1, 35, 0
3, 15900, Note_on_c, 1, 35, 107
3, 15928, Note_on_c, 1, 35, 0
3, 15960, Note_on_c, 1, 35, 113
3, 15984, Note_on_c, 1, 35, 0
3, 16020, Note_on_c, 1, 35, 109
3, 16048, Note_on_c, 1, 35, 0
3, 16080, Note_on_c, 1, 35, 116
3, 16105, Note_on_c, 1, 35, 0
3, 16139, Note_on_c, 1, 35, 107
3, 16167, Note_on_c, 1, 35, 0
3, 16200, Note_on_c, 1, 35, 113
3, 16224, Note_on_c, 1, 35, 0
3, 16259, Note_on_c, 1, 35, 104
3, 16285, Note_on_c, 1, 35, 0
3, 16320, Note_on_c, 1, 35, 116
3, 16344, Note_on_c, 1, 35, 0
3, 16378, Note_on_c, 1, 35, 101
3, 16406, Note_on_c, 1, 35, 0
3, 16439, Note_on_c, 1, 35, 113
3, 16463, Note_on_c, 1, 35, 0
3, 16499, Note_on_c, 1, 35, 106
3, 16528, Note_on_c, 1, 35, 0
3, 16559, Note_on_c, 1, 35, 116
3, 16584, Note_on_c, 1, 35, 0
3, 16619, Note_on_c, 1, 35, 103
3, 16647, Note_on_c, 1, 35, 0
3, 16680, Note_on_c, 1, 35, 113
3, 16700, Note_on_c, 1, 35, 0
3, 16740, Note_on_c, 1, 35, 107
3, 16770, Note_on_c, 1, 33, 116
3, 16777, Note_on_c, 1, 35, 0
3, 16790, Note_on_c, 1, 33, 0
3, 16799, Note_on_c, 1, 28, 127
3, 16830, Note_on_c, 1, 28, 0
3, 16860, Note_on_c, 1, 28, 116
3, 16893, Note_on_c, 1, 28, 0
3, 16920, Note_on_c, 1, 28, 122
3, 16953, Note_on_c, 1, 28, 0
3, 16980, Note_on_c, 1, 28, 119
3, 17016, Note_on_c, 1, 28, 0
3, 17040, Note_on_c, 1, 30, 116
3, 17076, Note_on_c, 1, 30, 0
3, 17099, Note_on_c, 1, 30, 116
3, 17131, Note_on_c, 1, 30, 0
3, 17160, Note_on_c, 1, 30, 116
3, 17191, Note_on_c, 1, 30, 0
3, 17219, Note_on_c, 1, 30, 113
3, 17251, Note_on_c, 1, 30, 0
3, 17280, Note_on_c, 1, 31, 113
3, 17313, Note_on_c, 1, 31, 0
3, 17338, Note_on_c, 1, 31, 113
3, 17368, Note_on_c, 1, 31, 0
3, 17399, Note_on_c, 1, 31, 127
3, 17428, Note_on_c, 1, 31, 0
3, 17459, Note_on_c, 1, 31, 122
3, 17491, Note_on_c, 1, 31, 0
3, 17519, Note_on_c, 1, 33, 127
3, 17557, Note_on_c, 1, 33, 0
3, 17700, Note_on_c, 1, 33, 96
3, 17720, Note_on_c, 1, 33, 0
3, 17730, Note_on_c, 1, 33, 113
3, 17749, Note_on_c, 1, 33, 0
3, 17759, Note_on_c, 1, 26, 127
3, 17783, Note_on_c, 1, 26, 0
3, 17820, Note_on_c, 1, 26, 122
3, 17851, Note_on_c, 1, 26, 0
3, 17880, Note_on_c, 1, 26, 122
3, 17907, Note_on_c, 1, 26, 0
3, 17940, Note_on_c, 1, 26, 113
3, 17973, Note_on_c, 1, 26, 0
3, 18000, Note_on_c, 1, 26, 109
3, 18032, Note_on_c, 1, 26, 0
3, 18059, Note_on_c, 1, 26, 107
3, 18086, Note_on_c, 1, 26, 0
3, 18120, Note_on_c, 1, 26, 109
3, 18161, Note_on_c, 1, 26, 0
3, 18179, Note_on_c, 1, 33, 116
3, 18194, Note_on_c, 1, 33, 0
3, 18210, Note_on_c, 1, 33, 87
3, 18235, Note_on_c, 1, 33, 0
3, 18240, Note_on_c, 1, 38, 109
3, 18287, Note_on_c, 1, 38, 0
3, 18298, Note_on_c, 1, 38, 107
3, 18334, Note_on_c, 1, 38, 0
3, 18359, Note_on_c, 1, 38, 106
3, 18392, Note_on_c, 1, 38, 0
3, 18419, Note_on_c, 1, 38, 104
3, 18448, Note_on_c, 1, 38, 0
3, 18479, Note_on_c, 1, 38, 103
3, 18535, Note_on_c, 1, 38, 0
3, 18539, Note_on_c, 1, 26, 110
3, 18559, Note_on_c, 1, 26, 0
3, 18600, Note_on_c, 1, 30, 116
3, 18646, Note_on_c, 1, 30, 0
3, 18660, Note_on_c, 1, 33, 127
3, 18714, Note_on_c, 1, 33, 0
3, 18719, Note_on_c, 1, 35, 122
3, 18752, Note_on_c, 1, 35, 0
3, 18780, Note_on_c, 1, 35, 113
3, 18805, Note_on_c, 1, 35, 0
3, 18840, Note_on_c, 1, 35, 109
3, 18869, Note_on_c, 1, 35, 0
3, 18900, Note_on_c, 1, 35, 109
3, 18931, Note_on_c, 1, 35, 0
3, 18960, Note_on_c, 1, 33, 122
3, 18991, Note_on_c, 1, 33, 0
3, 19019, Note_on_c, 1, 33, 113
3, 19049, Note_on_c, 1, 33, 0
3, 19080, Note_on_c, 1, 33, 113
3, 19113, Note_on_c, 1, 33, 0
3, 19139, Note_on_c, 1, 33, 103
3, 19173, Note_on_c, 1, 33, 0
3, 19200, Note_on_c, 1, 31, 116
3, 19236, Note_on_c, 1, 31, 0
3, 19258, Note_on_c, 1, 31, 113
3, 19286, Note_on_c, 1, 31, 0
3, 19319, Note_on_c, 1, 31, 122
3, 19339, Note_on_c, 1, 31, 0
3, 19379, Note_on_c, 1, 31, 103
3, 19398, Note_on_c, 1, 31, 0
3, 19409, Note_on_c, 1, 31, 107
3, 19437, Note_on_c, 1, 31, 0
3, 19439, Note_on_c, 1, 26, 119
3, 19476, Note_on_c, 1, 26, 0
3, 19499, Note_on_c, 1, 26, 113
3, 19530, Note_on_c, 1, 26, 0
3, 19560, Note_on_c, 1, 26, 103
3, 19590, Note_on_c, 1, 26, 0
3, 19620, Note_on_c, 1, 26, 119
3, 19660, Note_on_c, 1, 26, 0
3, 19679, Note_on_c, 1, 35, 122
3, 19712, Note_on_c, 1, 35, 0
3, 19740, Note_on_c, 1, 35, 113
3, 19765, Note_on_c, 1, 35, 0
3, 19800, Note_on_c, 1, 35, 109
3, 19829, Note_on_c, 1, 35, 0
3, 19860, Note_on_c, 1, 35, 109
3, 19891, Note_on_c, 1, 35, 0
3, 19920, Note_on_c, 1, 33, 122
3, 19951, Note_on_c, 1, 33, 0
3, 19979, Note_on_c, 1, 33, 113
3, 20009, Note_on_c, 1, 33, 0
3, 20040, Note_on_c, 1, 33, 113
3, 20073, Note_on_c, 1, 33, 0
3, 20099, Note_on_c, 1, 33, 103
3, 20133, Note_on_c, 1, 33, 0
3, 20160, Note_on_c, 1, 31, 116
3, 20196, Note_on_c, 1, 31, 0
3, 20218, Note_on_c, 1, 31, 113
3, 20246, Note_on_c, 1, 31, 0
3, 20279, Note_on_c, 1, 31, 122
3, 20299, Note_on_c, 1, 31, 0
3, 20339, Note_on_c, 1, 31, 103
3, 20358, Note_on_c, 1, 31, 0
3, 20369, Note_on_c, 1, 31, 107
3, 20397, Note_on_c, 1, 31, 0
3, 20399, Note_on_c, 1, 26, 119
3, 20436, Note_on_c, 1, 26, 0
3, 20459, Note_on_c, 1, 26, 113
3, 20490, Note_on_c, 1, 26, 0
3, 20520, Note_on_c, 1, 26, 103
3, 20550, Note_on_c, 1, 26, 0
3, 20580, Note_on_c, 1, 26, 119
3, 20620, Note_on_c, 1, 26, 0
3, 20639, Note_on_c, 1, 31, 127
3, 20660, Note_on_c, 1, 31, 0
3, 20700, Note_on_c, 1, 31, 109
3, 20728, Note_on_c, 1, 31, 0
3, 20760, Note_on_c, 1, 31, 111
3, 20784, Note_on_c, 1, 31, 0
3, 20820, Note_on_c, 1, 31, 109
3, 20847, Note_on_c, 1, 31, 0
3, 20880, Note_on_c, 1, 31, 122
3, 20904, Note_on_c, 1, 31, 0
3, 20939, Note_on_c, 1, 31, 107
3, 20964, Note_on_c, 1, 31, 0
3, 21000, Note_on_c, 1, 31, 113
3, 21026, Note_on_c, 1, 31, 0
3, 21059, Note_on_c, 1, 31, 107
3, 21089, Note_on_c, 1, 31, 0
3, 21120, Note_on_c, 1, 33, 109
3, 21146, Note_on_c, 1, 33, 0
3, 21178, Note_on_c, 1, 33, 113
3, 21204, Note_on_c, 1, 33, 0
3, 21239, Note_on_c, 1, 33, 107
3, 21268, Note_on_c, 1, 33, 0
3, 21299, Note_on_c, 1, 33, 104
3, 21329, Note_on_c, 1, 33, 0
3, 21359, Note_on_c, 1, 33, 116
3, 21386, Note_on_c, 1, 33, 0
3, 21419, Note_on_c, 1, 33, 102
3, 21447, Note_on_c, 1, 33, 0
3, 21480, Note_on_c, 1, 33, 107
3, 21537, Note_on_c, 1, 33, 0
3, 21540, Note_on_c, 1, 33, 85
3, 21572, Note_on_c, 1, 33, 0
3, 21599, Note_on_c, 1, 31, 116
3, 21624, Note_on_c, 1, 31, 0
3, 21660, Note_on_c, 1, 31, 111
3, 21688, Note_on_c, 1, 31, 0
3, 21720, Note_on_c, 1, 31, 109
3, 21743, Note_on_c, 1, 31, 0
3, 21780, Note_on_c, 1, 31, 109
3, 21806, Note_on_c, 1, 31, 0
3, 21840, Note_on_c, 1, 31, 116
3, 21864, Note_on_c, 1, 31, 0
3, 21899, Note_on_c, 1, 31, 113
3, 21925, Note_on_c, 1, 31, 0
3, 21960, Note_on_c, 1, 31, 109
3, 21986, Note_on_c, 1, 31, 0
3, 22019, Note_on_c, 1, 31, 122
3, 22049, Note_on_c, 1, 31, 0
3, 22080, Note_on_c, 1, 33, 113
3, 22110, Note_on_c, 1, 33, 0
3, 22138, Note_on_c, 1, 33, 113
3, 22161, Note_on_c, 1, 33, 0
3, 22199, Note_on_c, 1, 33, 111
3, 22226, Note_on_c, 1, 33, 0
3, 22259, Note_on_c, 1, 33, 113
3, 22284, Note_on_c, 1, 33, 0
3, 22319, Note_on_c, 1, 33, 103
3, 22339, Note_on_c, 1, 33, 0
3, 22379, Note_on_c, 1, 33, 107
3, 22406, Note_on_c, 1, 33, 0
3, 22440, Note_on_c, 1, 33, 109
3, 22460, Note_on_c, 1, 33, 0
3, 22500, Note_on_c, 1, 33, 109
3, 22513, Note_on_c, 1, 33, 0
3, 22530, Note_on_c, 1, 33, 107
3, 22549, Note_on_c, 1, 33, 0
3, 22559, Note_on_c, 1, 31, 122
3, 22586, Note_on_c, 1, 31, 0
3, 22620, Note_on_c, 1, 31, 109
3, 22647, Note_on_c, 1, 31, 0
3, 22680, Note_on_c, 1, 31, 113
3, 22707, Note_on_c, 1, 31, 0
3, 22740, Note_on_c, 1, 31, 116
3, 22769, Note_on_c, 1, 31, 0
3, 22800, Note_on_c, 1, 31, 109
3, 22828, Note_on_c, 1, 31, 0
3, 22859, Note_on_c, 1, 31, 113
3, 22887, Note_on_c, 1, 31, 0
3, 22920, Note_on_c, 1, 31, 127
3, 22944, Note_on_c, 1, 31, 0
3, 22979, Note_on_c, 1, 31, 127
3, 23002, Note_on_c, 1, 31, 0
3, 23010, Note_on_c, 1, 26, 122
3, 23028, Note_on_c, 1, 26, 0
3, 23040, Note_on_c, 1, 33, 119
3, 23068, Note_on_c, 1, 33, 0
3, 23098, Note_on_c, 1, 33, 122
3, 23127, Note_on_c, 1, 33, 0
3, 23159, Note_on_c, 1, 33, 122
3, 23185, Note_on_c, 1, 33, 0
3, 23219, Note_on_c, 1, 33, 119
3, 23243, Note_on_c, 1, 33, 0
3, 23279, Note_on_c, 1, 33, 119
3, 23303, Note_on_c, 1, 33, 0
3, 23339, Note_on_c, 1, 33, 122
3, 23361, Note_on_c, 1, 33, 0
3, 23400, Note_on_c, 1, 33, 122
3, 23449, Note_on_c, 1, 33, 0
3, 23460, Note_on_c, 1, 33, 116
3, 23519, Note_on_c, 1, 34, 127
3, 23524, Note_on_c, 1, 33, 0
3, 23547, Note_on_c, 1, 34, 0
3, 23580, Note_on_c, 1, 34, 122
3, 23608, Note_on_c, 1, 34, 0
3, 23640, Note_on_c, 1, 34, 109
3, 23670, Note_on_c, 1, 34, 0
3, 23700, Note_on_c, 1, 34, 122
3, 23738, Note_on_c, 1, 34, 0
3, 23760, Note_on_c, 1, 34, 109
3, 23792, Note_on_c, 1, 34, 0
3, 23819, Note_on_c, 1, 34, 111
3, 23854, Note_on_c, 1, 34, 0
3, 23880, Note_on_c, 1, 34, 101
3, 23914, Note_on_c, 1, 34, 0
3, 23939, Note_on_c, 1, 34, 109
3, 23957, Note_on_c, 1, 34, 0
3, 23970, Note_on_c, 1, 34, 80
3, 23985, Note_on_c, 1, 34, 0
3, 24000, Note_on_c, 1, 36, 102
3, 24038, Note_on_c, 1, 36, 0
3, 24058, Note_on_c, 1, 36, 101
3, 24099, Note_on_c, 1, 36, 0
3, 24119, Note_on_c, 1, 36, 122
3, 24156, Note_on_c, 1, 36, 0
3, 24179, Note_on_c, 1, 36, 116
3, 24213, Note_on_c, 1, 36, 0
3, 24239, Note_on_c, 1, 36, 113
3, 24278, Note_on_c, 1, 36, 0
3, 24299, Note_on_c, 1, 36, 113
3, 24325, Note_on_c, 1, 36, 0
3, 24360, Note_on_c, 1, 36, 109
3, 24407, Note_on_c, 1, 36, 0
3, 24420, Note_on_c, 1, 36, 116
3, 24461, Note_on_c, 1, 36, 0
3, 24479, Note_on_c, 1, 24, 122
3, 24496, Note_on_c, 1, 24, 0
3, 24540, Note_on_c, 1, 24, 116
3, 24559, Note_on_c, 1, 24, 0
3, 24600, Note_on_c, 1, 24, 116
3, 24624, Note_on_c, 1, 24, 0
3, 24660, Note_on_c, 1, 24, 109
3, 24684, Note_on_c, 1, 24, 0
3, 24720, Note_on_c, 1, 24, 113
3, 24745, Note_on_c, 1, 24, 0
3, 24779, Note_on_c, 1, 24, 104
3, 24802, Note_on_c, 1, 24, 0
3, 24840, Note_on_c, 1, 24, 107
3, 24865, Note_on_c, 1, 24, 0
3, 24899, Note_on_c, 1, 24, 104
3, 24924, Note_on_c, 1, 24, 0
3, 24960, Note_on_c, 1, 24, 109
3, 24988, Note_on_c, 1, 24, 0
3, 25018, Note_on_c, 1, 24, 104
3, 25043, Note_on_c, 1, 24, 0
3, 25079, Note_on_c, 1, 24, 104
3, 25106, Note_on_c, 1, 24, 0
3, 25139, Note_on_c, 1, 24, 104
3, 25163, Note_on_c, 1, 24, 0
3, 25199, Note_on_c, 1, 24, 107
3, 25224, Note_on_c, 1, 24, 0
3, 25259, Note_on_c, 1, 24, 107
3, 25291, Note_on_c, 1, 24, 0
3, 25320, Note_on_c, 1, 24, 119
3, 25367, Note_on_c, 1, 24, 0
3, 27359, Note_on_c, 1, 28, 119
3, 27390, Note_on_c, 1, 28, 0
3, 27420, Note_on_c, 1, 28, 102
3, 27449, Note_on_c, 1, 28, 0
3, 27480, Note_on_c, 1, 28, 109
3, 27528, Note_on_c, 1, 28, 0
3, 27540, Note_on_c, 1, 28, 104
3, 27570, Note_on_c, 1, 28, 0
3, 27600, Note_on_c, 1, 28, 113
3, 27624, Note_on_c, 1, 28, 0
3, 27659, Note_on_c, 1, 28, 107
3, 27688, Note_on_c, 1, 28, 0
3, 27720, Note_on_c, 1, 28, 109
3, 27747, Note_on_c, 1, 28, 0
3, 27779, Note_on_c, 1, 28, 104
3, 27808, Note_on_c, 1, 28, 0
3, 27840, Note_on_c, 1, 28, 107
3, 27866, Note_on_c, 1, 28, 0
3, 27898, Note_on_c, 1, 28, 103
3, 27928, Note_on_c, 1, 28, 0
3, 27959, Note_on_c, 1, 28, 103
3, 27984, Note_on_c, 1, 28, 0
3, 28019, Note_on_c, 1, 28, 102
3, 28047, Note_on_c, 1, 28, 0
3, 28079, Note_on_c, 1, 28, 103
3, 28107, Note_on_c, 1, 28, 0
3, 28139, Note_on_c, 1, 28, 104
3, 28168, Note_on_c, 1, 28, 0
3, 28200, Note_on_c, 1, 28, 104
3, 28224, Note_on_c, 1, 28, 0
3, 28260, Note_on_c, 1, 28, 107
3, 28278, Note_on_c, 1, 28, 0
3, 28290, Note_on_c, 1, 28, 101
3, 28312, Note_on_c, 1, 28, 0
3, 28319, Note_on_c, 1, 37, 116
3, 28346, Note_on_c, 1, 37, 0
3, 28380, Note_on_c, 1, 37, 113
3, 28403, Note_on_c, 1, 37, 0
3, 28440, Note_on_c, 1, 37, 109
3, 28465, Note_on_c, 1, 37, 0
3, 28500, Note_on_c, 1, 37, 107
3, 28528, Note_on_c, 1, 37, 0
3, 28560, Note_on_c, 1, 35, 107
3, 28587, Note_on_c, 1, 35, 0
3, 28619, Note_on_c, 1, 35, 116
3, 28644, Note_on_c, 1, 35, 0
3, 28680, Note_on_c, 1, 35, 116
3, 28704, Note_on_c, 1, 35, 0
3, 28739, Note_on_c, 1, 35, 103
3, 28763, Note_on_c, 1, 35, 0
3, 28800, Note_on_c, 1, 33, 113
3, 28824, Note_on_c, 1, 33, 0
3, 28858, Note_on_c, 1, 33, 109
3, 28885, Note_on_c, 1, 33, 0
3, 28919, Note_on_c, 1, 33, 109
3, 28946, Note_on_c, 1, 33, 0
3, 28979, Note_on_c, 1, 33, 109
3, 29005, Note_on_c, 1, 33, 0
3, 29039, Note_on_c, 1, 28, 109
3, 29068, Note_on_c, 1, 28, 0
3, 29099, Note_on_c, 1, 28, 111
3, 29127, Note_on_c, 1, 28, 0
3, 29160, Note_on_c, 1, 28, 107
3, 29188, Note_on_c, 1, 28, 0
3, 29220, Note_on_c, 1, 28, 109
3, 29239, Note_on_c, 1, 28, 0
3, 29250, Note_on_c, 1, 28, 107
3, 29270, Note_on_c, 1, 28, 0
3, 29279, Note_on_c, 1, 28, 122
3, 29316, Note_on_c, 1, 28, 0
3, 29340, Note_on_c, 1, 28, 116
3, 29369, Note_on_c, 1, 28, 0
3, 29400, Note_on_c, 1, 28, 113
3, 29427, Note_on_c, 1, 28, 0
3, 29460, Note_on_c, 1, 28, 116
3, 29489, Note_on_c, 1, 28, 0
3, 29520, Note_on_c, 1, 28, 113
3, 29545, Note_on_c, 1, 28, 0
3, 29579, Note_on_c, 1, 28, 107
3, 29607, Note_on_c, 1, 28, 0
3, 29640, Note_on_c, 1, 28, 109
3, 29663, Note_on_c, 1, 28, 0
3, 29699, Note_on_c, 1, 28, 107
3, 29716, Note_on_c, 1, 28, 0
3, 29730, Note_on_c, 1, 28, 101
3, 29752, Note_on_c, 1, 28, 0
3, 29760, Note_on_c, 1, 28, 113
3, 29787, Note_on_c, 1, 28, 0
3, 29818, Note_on_c, 1, 28, 109
3, 29847, Note_on_c, 1, 28, 0
3, 29879, Note_on_c, 1, 28, 109
3, 29907, Note_on_c, 1, 28, 0
3, 29939, Note_on_c, 1, 28, 82
3, 29969, Note_on_c, 1, 28, 0
3, 29999, Note_on_c, 1, 28, 109
3, 30027, Note_on_c, 1, 28, 0
3, 30059, Note_on_c, 1, 28, 101
3, 30074, Note_on_c, 1, 28, 0
3, 30089, Note_on_c, 1, 28, 98
3, 30113, Note_on_c, 1, 28, 0
3, 30120, Note_on_c, 1, 32, 109
3, 30153, Note_on_c, 1, 32, 0
3, 30180, Note_on_c, 1, 35, 122
3, 30221, Note_on_c, 1, 35, 0
3, 30239, Note_on_c, 1, 37, 116
3, 30266, Note_on_c, 1, 37, 0
3, 30300, Note_on_c, 1, 37, 113
3, 30323, Note_on_c, 1, 37, 0
3, 30360, Note_on_c, 1, 37, 109
3, 30385, Note_on_c, 1, 37, 0
3, 30420, Note_on_c, 1, 37, 107
3, 30448, Note_on_c, 1, 37, 0
3, 30480, Note_on_c, 1, 35, 107
3, 30507, Note_on_c, 1, 35, 0
3, 30539, Note_on_c, 1, 35, 116
3, 30564, Note_on_c, 1, 35, 0
3, 30600, Note_on_c, 1, 35, 116
3, 30624, Note_on_c, 1, 35, 0
3, 30659, Note_on_c, 1, 35, 103
3, 30683, Note_on_c, 1, 35, 0
3, 30720, Note_on_c, 1, 33, 113
3, 30744, Note_on_c, 1, 33, 0
3, 30778, Note_on_c, 1, 33, 109
3, 30805, Note_on_c, 1, 33, 0
3, 30839, Note_on_c, 1, 33, 109
3, 30866, Note_on_c, 1, 33, 0
3, 30899, Note_on_c, 1, 33, 109
3, 30925, Note_on_c, 1, 33, 0
3, 30959, Note_on_c, 1, 28, 109
3, 30988, Note_on_c, 1, 28, 0
3, 31019, Note_on_c, 1, 28, 111
3, 31047, Note_on_c, 1, 28, 0
3, 31080, Note_on_c, 1, 28, 107
3, 31108, Note_on_c, 1, 28, 0
3, 31140, Note_on_c, 1, 28, 109
3, 31159, Note_on_c, 1, 28, 0
3, 31170, Note_on_c, 1, 28, 107
3, 31190, Note_on_c, 1, 28, 0
3, 31199, Note_on_c, 1, 37, 122
3, 31231, Note_on_c, 1, 37, 0
3, 31260, Note_on_c, 1, 37, 107
3, 31288, Note_on_c, 1, 37, 0
3, 31320, Note_on_c, 1, 37, 113
3, 31344, Note_on_c, 1, 37, 0
3, 31380, Note_on_c, 1, 37, 109
3, 31408, Note_on_c, 1, 37, 0
3, 31440, Note_on_c, 1, 37, 116
3, 31465, Note_on_c, 1, 37, 0
3, 31499, Note_on_c, 1, 37, 107
3, 31527, Note_on_c, 1, 37, 0
3, 31560, Note_on_c, 1, 37, 113
3, 31584, Note_on_c, 1, 37, 0
3, 31619, Note_on_c, 1, 37, 104
3, 31645, Note_on_c, 1, 37, 0
3, 31680, Note_on_c, 1, 37, 116
3, 31704, Note_on_c, 1, 37, 0
3, 31738, Note_on_c, 1, 37, 101
3, 31766, Note_on_c, 1, 37, 0
3, 31799, Note_on_c, 1, 37, 113
3, 31823, Note_on_c, 1, 37, 0
3, 31859, Note_on_c, 1, 37, 106
3, 31888, Note_on_c, 1, 37, 0
3, 31919, Note_on_c, 1, 37, 116
3, 31944, Note_on_c, 1, 37, 0
3, 31979, Note_on_c, 1, 37, 103
3, 32007, Note_on_c, 1, 37, 0
3, 32040, Note_on_c, 1, 37, 113
3, 32060, Note_on_c, 1, 37, 0
3, 32100, Note_on_c, 1, 37, 107
3, 32130, Note_on_c, 1, 35, 116
3, 32137, Note_on_c, 1, 37, 0
3, 32150, Note_on_c, 1, 35, 0
3, 32159, Note_on_c, 1, 30, 127
3, 32268, Note_on_c, 1, 30, 0
3, 32400, Note_on_c, 1, 32, 116
3, 32511, Note_on_c, 1, 32, 0
3, 32640, Note_on_c, 1, 33, 113
3, 32673, Note_on_c, 1, 33, 0
3, 32698, Note_on_c, 1, 33, 113
3, 32728, Note_on_c, 1, 33, 0
3, 32759, Note_on_c, 1, 33, 127
3, 32788, Note_on_c, 1, 33, 0
3, 32819, Note_on_c, 1, 33, 122
3, 32851, Note_on_c, 1, 33, 0
3, 32879, Note_on_c, 1, 35, 127
3, 32917, Note_on_c, 1, 35, 0
3, 32939, Note_on_c, 1, 35, 113
3, 32969, Note_on_c, 1, 35, 0
3, 33000, Note_on_c, 1, 35, 127
3, 33029, Note_on_c, 1, 35, 0
3, 33060, Note_on_c, 1, 35, 96
3, 33080, Note_on_c, 1, 35, 0
3, 33090, Note_on_c, 1, 35, 113
3, 33109, Note_on_c, 1, 35, 0
3, 33119, Note_on_c, 1, 28, 127
3, 33143, Note_on_c, 1, 28, 0
3, 33180, Note_on_c, 1, 28, 122
3, 33211, Note_on_c, 1, 28, 0
3, 33240, Note_on_c, 1, 28, 122
3, 33267, Note_on_c, 1, 28, 0
3, 33300, Note_on_c, 1, 28, 113
3, 33333, Note_on_c, 1, 28, 0
3, 33360, Note_on_c, 1, 28, 109
3, 33392, Note_on_c, 1, 28, 0
3, 33419, Note_on_c, 1, 28, 107
3, 33446, Note_on_c, 1, 28, 0
3, 33480, Note_on_c, 1, 28, 109
3, 33521, Note_on_c, 1, 28, 0
3, 33539, Note_on_c, 1, 35, 116
3, 33554, Note_on_c, 1, 35, 0
3, 33570, Note_on_c, 1, 35, 87
3, 33595, Note_on_c, 1, 35, 0
3, 33600, Note_on_c, 1, 40, 109
3, 33647, Note_on_c, 1, 40, 0
3, 33658, Note_on_c, 1, 40, 107
3, 33694, Note_on_c, 1, 40, 0
3, 33719, Note_on_c, 1, 40, 106
3, 33752, Note_on_c, 1, 40, 0
3, 33779, Note_on_c, 1, 40, 104
3, 33808, Note_on_c, 1, 40, 0
3, 33839, Note_on_c, 1, 40, 103
3, 33895, Note_on_c, 1, 40, 0
3, 33899, Note_on_c, 1, 28, 110
3, 33919, Note_on_c, 1, 28, 0
3, 33960, Note_on_c, 1, 32, 116
3, 34006, Note_on_c, 1, 32, 0
3, 34020, Note_on_c, 1, 35, 127
3, 34074, Note_on_c, 1, 35, 0
3, 34079, Note_on_c, 1, 37, 122
3, 34112, Note_on_c, 1, 37, 0
3, 34140, Note_on_c, 1, 37, 113
3, 34165, Note_on_c, 1, 37, 0
3, 34200, Note_on_c, 1, 37, 109
3, 34229, Note_on_c, 1, 37, 0
3, 34260, Note_on_c, 1, 37, 109
3, 34291, Note_on_c, 1, 37, 0
3, 34320, Note_on_c, 1, 35, 122
3, 34351, Note_on_c, 1, 35, 0
3, 34379, Note_on_c, 1, 35, 113
3, 34409, Note_on_c, 1, 35, 0
3, 34440, Note_on_c, 1, 35, 113
3, 34473, Note_on_c, 1, 35, 0
3, 34499, Note_on_c, 1, 35, 103
3, 34533, Note_on_c, 1, 35, 0
3, 34560, Note_on_c, 1, 33, 116
3, 34596, Note_on_c, 1, 33, 0
3, 34618, Note_on_c, 1, 33, 113
3, 34646, Note_on_c, 1, 33, 0
3, 34679, Note_on_c, 1, 33, 122
3, 34699, Note_on_c, 1, 33, 0
3, 34739, Note_on_c, 1, 33, 103
3, 34758, Note_on_c, 1, 33, 0
3, 34769, Note_on_c, 1, 33, 107
3, 34797, Note_on_c, 1, 33, 0
3, 34799, Note_on_c, 1, 28, 119
3, 34836, Note_on_c, 1, 28, 0
3, 34859, Note_on_c, 1, 28, 113
3, 34890, Note_on_c, 1, 28, 0
3, 34920, Note_on_c, 1, 28, 103
3, 34950, Note_on_c, 1, 28, 0
3, 34980, Note_on_c, 1, 28, 119
3, 35020, Note_on_c, 1, 28, 0
3, 35039, Note_on_c, 1, 37, 122
3, 35072, Note_on_c, 1, 37, 0
3, 35100, Note_on_c, 1, 37, 113
3, 35125, Note_on_c, 1, 37, 0
3, 35160, Note_on_c, 1, 37, 109
3, 35189, Note_on_c, 1, 37, 0
3, 35220, Note_on_c, 1, 37, 109
3, 35251, Note_on_c, 1, 37, 0
3, 35280, Note_on_c, 1, 35, 122
3, 35311, Note_on_c, 1, 35, 0
3, 35339, Note_on_c, 1, 35, 113
3, 35369, Note_on_c, 1, 35, 0
3, 35400, Note_on_c, 1, 35, 113
3, 35433, Note_on_c, 1, 35, 0
3, 35459, Note_on_c, 1, 35, 103
3, 35493, Note_on_c, 1, 35, 0
3, 35520, Note_on_c, 1, 33, 116
3, 35556, Note_on_c, 1, 33, 0
3, 35578, Note_on_c, 1, 33, 113
3, 35606, Note_on_c, 1, 33, 0
3, 35639, Note_on_c, 1, 33, 122
3, 35659, Note_on_c, 1, 33, 0
3, 35699, Note_on_c, 1, 33, 103
3, 35718, Note_on_c, 1, 33, 0
3, 35729, Note_on_c, 1, 33, 107
3, 35757, Note_on_c, 1, 33, 0
3, 35759, Note_on_c, 1, 28, 119
3, 35796, Note_on_c, 1, 28, 0
3, 35819, Note_on_c, 1, 28, 113
3, 35850, Note_on_c, 1, 28, 0
3, 35880, Note_on_c, 1, 28, 103
3, 35910, Note_on_c, 1, 28, 0
3, 35940, Note_on_c, 1, 28, 119
3, 35980, Note_on_c, 1, 28, 0
3, 35999, Note_on_c, 1, 28, 119
3, 36030, Note_on_c, 1, 28, 0
3, 36060, Note_on_c, 1, 28, 102
3, 36089, Note_on_c, 1, 28, 0
3, 36120, Note_on_c, 1, 28, 109
3, 36168, Note_on_c, 1, 28, 0
3, 36180, Note_on_c, 1, 28, 104
3, 36210, Note_on_c, 1, 28, 0
3, 36240, Note_on_c, 1, 28, 113
3, 36264, Note_on_c, 1, 28, 0
3, 36299, Note_on_c, 1, 28, 107
3, 36328, Note_on_c, 1, 28, 0
3, 36360, Note_on_c, 1, 28, 109
3, 36387, Note_on_c, 1, 28, 0
3, 36419, Note_on_c, 1, 28, 104
3, 36448, Note_on_c, 1, 28, 0
3, 36480, Note_on_c, 1, 28, 107
3, 36506, Note_on_c, 1, 28, 0
3, 36538, Note_on_c, 1, 28, 103
3, 36568, Note_on_c, 1, 28, 0
3, 36599, Note_on_c, 1, 28, 103
3, 36624, Note_on_c, 1, 28, 0
3, 36659, Note_on_c, 1, 28, 102
3, 36687, Note_on_c, 1, 28, 0
3, 36719, Note_on_c, 1, 28, 103
3, 36747, Note_on_c, 1, 28, 0
3, 36779, Note_on_c, 1, 28, 104
3, 36808, Note_on_c, 1, 28, 0
3, 36840, Note_on_c, 1, 28, 104
3, 36864, Note_on_c, 1, 28, 0
3, 36900, Note_on_c, 1, 28, 107
3, 36918, Note_on_c, 1, 28, 0
3, 36930, Note_on_c, 1, 28, 101
3, 36952, Note_on_c, 1, 28, 0
3, 36959, Note_on_c, 1, 28, 119
3, 36990, Note_on_c, 1, 28, 0
3, 37020, Note_on_c, 1, 28, 102
3, 37049, Note_on_c, 1, 28, 0
3, 37080, Note_on_c, 1, 28, 109
3, 37128, Note_on_c, 1, 28, 0
3, 37140, Note_on_c, 1, 28, 104
3, 37170, Note_on_c, 1, 28, 0
3, 37200, Note_on_c, 1, 28, 113
3, 37224, Note_on_c, 1, 28, 0
3, 37259, Note_on_c, 1, 28, 107
3, 37288, Note_on_c, 1, 28, 0
3, 37320, Note_on_c, 1, 28, 109
3, 37347, Note_on_c, 1, 28, 0
3, 37379, Note_on_c, 1, 28, 104
3, 37408, Note_on_c, 1, 28, 0
3, 37440, Note_on_c, 1, 28, 107
3, 37466, Note_on_c, 1, 28, 0
3, 37498, Note_on_c, 1, 28, 103
3, 37528, Note_on_c, 1, 28, 0
3, 37559, Note_on_c, 1, 28, 103
3, 37584, Note_on_c, 1, 28, 0
3, 37619, Note_on_c, 1, 28, 102
3, 37647, Note_on_c, 1, 28, 0
3, 37679, Note_on_c, 1, 28, 103
3, 37707, Note_on_c, 1, 28, 0
3, 37739, Note_on_c, 1, 28, 104
3, 37768, Note_on_c, 1, 28, 0
3, 37800, Note_on_c, 1, 28, 104
3, 37824, Note_on_c, 1, 28, 0
3, 37860, Note_on_c, 1, 28, 107
3, 37878, Note_on_c, 1, 28, 0
3, 37890, Note_on_c, 1, 28, 101
3, 37912, Note_on_c, 1, 28, 0
3, 37919, Note_on_c, 1, 28, 119
3, 37950, Note_on_c, 1, 28, 0
3, 37980, Note_on_c, 1, 28, 102
3, 38009, Note_on_c, 1, 28, 0
3, 38040, Note_on_c, 1, 28, 109
3, 38088, Note_on_c, 1, 28, 0
3, 38100, Note_on_c, 1, 28, 104
3, 38130, Note_on_c, 1, 28, 0
3, 38160, Note_on_c, 1, 28, 113
3, 38184, Note_on_c, 1, 28, 0
3, 38219, Note_on_c, 1, 28, 107
3, 38248, Note_on_c, 1, 28, 0
3, 38280, Note_on_c, 1, 28, 109
3, 38307, Note_on_c, 1, 28, 0
3, 38339, Note_on_c, 1, 28, 104
3, 38368, Note_on_c, 1, 28, 0
3, 38400, Note_on_c, 1, 28, 107
3, 38426, Note_on_c, 1, 28, 0
3, 38458, Note_on_c, 1, 28, 103
3, 38488, Note_on_c, 1, 28, 0
3, 38519, Note_on_c, 1, 28, 103
3, 38544, Note_on_c, 1, 28, 0
3, 38579, Note_on_c, 1, 28, 102
3, 38607, Note_on_c, 1, 28, 0
3, 38639, Note_on_c, 1, 28, 103
3, 38667, Note_on_c, 1, 28, 0
3, 38699, Note_on_c, 1, 28, 104
3, 38728, Note_on_c, 1, 28, 0
3, 38760, Note_on_c, 1, 28, 104
3, 38784, Note_on_c, 1, 28, 0
3, 38820, Note_on_c, 1, 28, 107
3, 38838, Note_on_c, 1, 28, 0
3, 38850, Note_on_c, 1, 28, 101
3, 38872, Note_on_c, 1, 28, 0
3, 38879, Note_on_c, 1, 28, 119
3, 38910, Note_on_c, 1, 28, 0
3, 38940, Note_on_c, 1, 28, 102
3, 38969, Note_on_c, 1, 28, 0
3, 39000, Note_on_c, 1, 28, 109
3, 39048, Note_on_c, 1, 28, 0
3, 39060, Note_on_c, 1, 28, 104
3, 39090, Note_on_c, 1, 28, 0
3, 39120, Note_on_c, 1, 28, 113
3, 39144, Note_on_c, 1, 28, 0
3, 39179, Note_on_c, 1, 28, 107
3, 39208, Note_on_c, 1, 28, 0
3, 39240, Note_on_c, 1, 28, 109
3, 39267, Note_on_c, 1, 28, 0
3, 39299, Note_on_c, 1, 28, 104
3, 39328, Note_on_c, 1, 28, 0
3, 39360, Note_on_c, 1, 28, 107
3, 39386, Note_on_c, 1, 28, 0
3, 39418, Note_on_c, 1, 28, 103
3, 39448, Note_on_c, 1, 28, 0
3, 39479, Note_on_c, 1, 28, 103
3, 39504, Note_on_c, 1, 28, 0
3, 39539, Note_on_c, 1, 28, 102
3, 39567, Note_on_c, 1, 28, 0
3, 39599, Note_on_c, 1, 28, 103
3, 39627, Note_on_c, 1, 28, 0
3, 39659, Note_on_c, 1, 28, 104
3, 39688, Note_on_c, 1, 28, 0
3, 39720, Note_on_c, 1, 28, 104
3, 39744, Note_on_c, 1, 28, 0
3, 39780, Note_on_c, 1, 28, 107
3, 39798, Note_on_c, 1, 28, 0
3, 39810, Note_on_c, 1, 28, 101
3, 39832, Note_on_c, 1, 28, 0
3, 39839, Note_on_c, 1, 28, 127
3, 39898, Note_on_c, 1, 28, 0
3, 39960, Note_on_c, 1, 28, 127
3, 40021, Note_on_c, 1, 28, 0
3, 40080, Note_on_c, 1, 28, 109
3, 40142, Note_on_c, 1, 28, 0
3, 40200, Note_on_c, 1, 28, 127
3, 40261, Note_on_c, 1, 28, 0
3, 40320, Note_on_c, 1, 28, 107
3, 40382, Note_on_c, 1, 28, 0
3, 40439, Note_on_c, 1, 28, 108
3, 40498, Note_on_c, 1, 28, 0
3, 40559, Note_on_c, 1, 28, 127
3, 40623, Note_on_c, 1, 28, 0
3, 40680, Note_on_c, 1, 28, 127
3, 40741, Note_on_c, 1, 28, 0
3, 40799, Note_on_c, 1, 28, 113
3, 40859, Note_on_c, 1, 28, 0
3, 40920, Note_on_c, 1, 28, 127
3, 40980, Note_on_c, 1, 28, 0
3, 41040, Note_on_c, 1, 28, 127
3, 41099, Note_on_c, 1, 28, 0
3, 41160, Note_on_c, 1, 28, 127
3, 41217, Note_on_c, 1, 28, 0
3, 41280, Note_on_c, 1, 28, 127
3, 41336, Note_on_c, 1, 28, 0
3, 41399, Note_on_c, 1, 28, 127
3, 41458, Note_on_c, 1, 28, 0
3, 41519, Note_on_c, 1, 28, 127
3, 41572, Note_on_c, 1, 28, 0
3, 41640, Note_on_c, 1, 28, 127
3, 41682, Note_on_c, 1, 28, 0
3, 41700, Note_on_c, 1, 28, 127
3, 41711, Note_on_c, 1, 28, 0
3, 41730, Note_on_c, 1, 28, 127
3, 41748, Note_on_c, 1, 28, 0
3, 41759, Note_on_c, 1, 33, 127
3, 41780, Note_on_c, 1, 33, 0
3, 41820, Note_on_c, 1, 33, 109
3, 41848, Note_on_c, 1, 33, 0
3, 41880, Note_on_c, 1, 33, 111
3, 41904, Note_on_c, 1, 33, 0
3, 41940, Note_on_c, 1, 33, 109
3, 41967, Note_on_c, 1, 33, 0
3, 42000, Note_on_c, 1, 33, 122
3, 42024, Note_on_c, 1, 33, 0
3, 42059, Note_on_c, 1, 33, 107
3, 42084, Note_on_c, 1, 33, 0
3, 42120, Note_on_c, 1, 33, 113
3, 42146, Note_on_c, 1, 33, 0
3, 42179, Note_on_c, 1, 33, 107
3, 42209, Note_on_c, 1, 33, 0
3, 42240, Note_on_c, 1, 35, 109
3, 42266, Note_on_c, 1, 35, 0
3, 42298, Note_on_c, 1, 35, 113
3, 42324, Note_on_c, 1, 35, 0
3, 42359, Note_on_c, 1, 35, 107
3, 42388, Note_on_c, 1, 35, 0
3, 42419, Note_on_c, 1, 35, 104
3, 42449, Note_on_c, 1, 35, 0
3, 42479, Note_on_c, 1, 35, 116
3, 42556, Note_on_c, 1, 35, 0
3, 42600, Note_on_c, 1, 35, 107
3, 42700, Note_on_c, 1, 35, 0
3, 42719, Note_on_c, 1, 36, 116
3, 42744, Note_on_c, 1, 36, 0
3, 42780, Note_on_c, 1, 36, 111
3, 42808, Note_on_c, 1, 36, 0
3, 42840, Note_on_c, 1, 36, 109
3, 42863, Note_on_c, 1, 36, 0
3, 42900, Note_on_c, 1, 36, 109
3, 42926, Note_on_c, 1, 36, 0
3, 42960, Note_on_c, 1, 36, 116
3, 42984, Note_on_c, 1, 36, 0
3, 43019, Note_on_c, 1, 36, 113
3, 43045, Note_on_c, 1, 36, 0
3, 43080, Note_on_c, 1, 36, 109
3, 43106, Note_on_c, 1, 36, 0
3, 43139, Note_on_c, 1, 36, 122
3, 43169, Note_on_c, 1, 36, 0
3, 43200, Note_on_c, 1, 38, 113
3, 43230, Note_on_c, 1, 38, 0
3, 43258, Note_on_c, 1, 38, 113
3, 43281, Note_on_c, 1, 38, 0
3, 43319, Note_on_c, 1, 38, 111
3, 43346, Note_on_c, 1, 38, 0
3, 43379, Note_on_c, 1, 38, 113
3, 43404, Note_on_c, 1, 38, 0
3, 43439, Note_on_c, 1, 26, 103
3, 43459, Note_on_c, 1, 26, 0
3, 43499, Note_on_c, 1, 38, 107
3, 43526, Note_on_c, 1, 38, 0
3, 43560, Note_on_c, 1, 26, 109
3, 43580, Note_on_c, 1, 26, 0
3, 43620, Note_on_c, 1, 36, 109
3, 43633, Note_on_c, 1, 36, 0
3, 43650, Note_on_c, 1, 38, 107
3, 43669, Note_on_c, 1, 38, 0
3, 43679, Note_on_c, 1, 26, 122
3, 43694, Note_on_c, 1, 26, 0
3, 43740, Note_on_c, 1, 26, 119
3, 43758, Note_on_c, 1, 26, 0
3, 43800, Note_on_c, 1, 26, 113
3, 43818, Note_on_c, 1, 26, 0
3, 43860, Note_on_c, 1, 26, 113
3, 43878, Note_on_c, 1, 26, 0
3, 43920, Note_on_c, 1, 26, 116
3, 43939, Note_on_c, 1, 26, 0
3, 43979, Note_on_c, 1, 26, 109
3, 43997, Note_on_c, 1, 26, 0
3, 44040, Note_on_c, 1, 26, 116
3, 44059, Note_on_c, 1, 26, 0
3, 44099, Note_on_c, 1, 26, 119
3, 44119, Note_on_c, 1, 26, 0
3, 44160, Note_on_c, 1, 26, 113
3, 44178, Note_on_c, 1, 26, 0
3, 44218, Note_on_c, 1, 26, 122
3, 44237, Note_on_c, 1, 26, 0
3, 44279, Note_on_c, 1, 26, 113
3, 44298, Note_on_c, 1, 26, 0
3, 44339, Note_on_c, 1, 26, 113
3, 44358, Note_on_c, 1, 26, 0
3, 44399, Note_on_c, 1, 26, 113
3, 44419, Note_on_c, 1, 26, 0
3, 44459, Note_on_c, 1, 26, 119
3, 44481, Note_on_c, 1, 26, 0
3, 44520, Note_on_c, 1, 26, 119
3, 44542, Note_on_c, 1, 26, 0
3, 44580, Note_on_c, 1, 26, 113
3, 44608, Note_on_c, 1, 26, 0
3, 44639, Note_on_c, 1, 31, 119
3, 44670, Note_on_c, 1, 31, 0
3, 44700, Note_on_c, 1, 31, 102
3, 44729, Note_on_c, 1, 31, 0
3, 44760, Note_on_c, 1, 31, 109
3, 44808, Note_on_c, 1, 31, 0
3, 44820, Note_on_c, 1, 31, 104
3, 44850, Note_on_c, 1, 31, 0
3, 44880, Note_on_c, 1, 31, 113
3, 44904, Note_on_c, 1, 31, 0
3, 44939, Note_on_c, 1, 31, 107
3, 44968, Note_on_c, 1, 31, 0
3, 45000, Note_on_c, 1, 31, 109
3, 45027, Note_on_c, 1, 31, 0
3, 45059, Note_on_c, 1, 31, 104
3, 45088, Note_on_c, 1, 31, 0
3, 45120, Note_on_c, 1, 31, 107
3, 45146, Note_on_c, 1, 31, 0
3, 45178, Note_on_c, 1, 31, 103
3, 45208, Note_on_c, 1, 31, 0
3, 45239, Note_on_c, 1, 31, 103
3, 45264, Note_on_c, 1, 31, 0
3, 45299, Note_on_c, 1, 31, 102
3, 45327, Note_on_c, 1, 31, 0
3, 45359, Note_on_c, 1, 31, 103
3, 45387, Note_on_c, 1, 31, 0
3, 45419, Note_on_c, 1, 31, 104
3, 45448, Note_on_c, 1, 31, 0
3, 45480, Note_on_c, 1, 31, 104
3, 45504, Note_on_c, 1, 31, 0
3, 45540, Note_on_c, 1, 31, 107
3, 45558, Note_on_c, 1, 31, 0
3, 45570, Note_on_c, 1, 31, 101
3, 45592, Note_on_c, 1, 31, 0
3, 45599, Note_on_c, 1, 40, 116
3, 45626, Note_on_c, 1, 40, 0
3, 45660, Note_on_c, 1, 40, 113
3, 45683, Note_on_c, 1, 40, 0
3, 45720, Note_on_c, 1, 40, 109
3, 45745, Note_on_c, 1, 40, 0
3, 45780, Note_on_c, 1, 40, 107
3, 45808, Note_on_c, 1, 40, 0
3, 45840, Note_on_c, 1, 38, 107
3, 45867, Note_on_c, 1, 38, 0
3, 45899, Note_on_c, 1, 38, 116
3, 45924, Note_on_c, 1, 38, 0
3, 45960, Note_on_c, 1, 38, 116
3, 45984, Note_on_c, 1, 38, 0
3, 46019, Note_on_c, 1, 38, 103
3, 46043, Note_on_c, 1, 38, 0
3, 46080, Note_on_c, 1, 36, 113
3, 46104, Note_on_c, 1, 36, 0
3, 46138, Note_on_c, 1, 36, 109
3, 46165, Note_on_c, 1, 36, 0
3, 46199, Note_on_c, 1, 36, 109
3, 46226, Note_on_c, 1, 36, 0
3, 46259, Note_on_c, 1, 36, 109
3, 46285, Note_on_c, 1, 36, 0
3, 46319, Note_on_c, 1, 31, 109
3, 46348, Note_on_c, 1, 31, 0
3, 46379, Note_on_c, 1, 31, 111
3, 46407, Note_on_c, 1, 31, 0
3, 46440, Note_on_c, 1, 31, 107
3, 46468, Note_on_c, 1, 31, 0
3, 46500, Note_on_c, 1, 31, 109
3, 46519, Note_on_c, 1, 31, 0
3, 46530, Note_on_c, 1, 31, 107
3, 46550, Note_on_c, 1, 31, 0
3, 46559, Note_on_c, 1, 40, 122
3, 46591, Note_on_c, 1, 40, 0
3, 46620, Note_on_c, 1, 40, 107
3, 46648, Note_on_c, 1, 40, 0
3, 46680, Note_on_c, 1, 40, 113
3, 46704, Note_on_c, 1, 40, 0
3, 46740, Note_on_c, 1, 40, 109
3, 46768, Note_on_c, 1, 40, 0
3, 46800, Note_on_c, 1, 40, 116
3, 46825, Note_on_c, 1, 40, 0
3, 46859, Note_on_c, 1, 40, 107
3, 46887, Note_on_c, 1, 40, 0
3, 46920, Note_on_c, 1, 40, 113
3, 46944, Note_on_c, 1, 40, 0
3, 46979, Note_on_c, 1, 40, 104
3, 47005, Note_on_c, 1, 40, 0
3, 47040, Note_on_c, 1, 40, 116
3, 47064, Note_on_c, 1, 40, 0
3, 47098, Note_on_c, 1, 40, 101
3, 47126, Note_on_c, 1, 40, 0
3, 47159, Note_on_c, 1, 40, 113
3, 47183, Note_on_c, 1, 40, 0
3, 47219, Note_on_c, 1, 40, 106
3, 47248, Note_on_c, 1, 40, 0
3, 47279, Note_on_c, 1, 40, 116
3, 47304, Note_on_c, 1, 40, 0
3, 47339, Note_on_c, 1, 40, 103
3, 47367, Note_on_c, 1, 40, 0
3, 47400, Note_on_c, 1, 40, 113
3, 47420, Note_on_c, 1, 40, 0
3, 47460, Note_on_c, 1, 40, 107
3, 47490, Note_on_c, 1, 38, 116
3, 47497, Note_on_c, 1, 40, 0
3, 47510, Note_on_c, 1, 38, 0
3, 47519, Note_on_c, 1, 33, 113
3, 47552, Note_on_c, 1, 33, 0
3, 47580, Note_on_c, 1, 33, 113
3, 47610, Note_on_c, 1, 33, 0
3, 47640, Note_on_c, 1, 33, 127
3, 47669, Note_on_c, 1, 33, 0
3, 47700, Note_on_c, 1, 33, 122
3, 47732, Note_on_c, 1, 33, 0
3, 47760, Note_on_c, 1, 35, 127
3, 47798, Note_on_c, 1, 35, 0
3, 47819, Note_on_c, 1, 35, 113
3, 47849, Note_on_c, 1, 35, 0
3, 47880, Note_on_c, 1, 35, 127
3, 47909, Note_on_c, 1, 35, 0
3, 47939, Note_on_c, 1, 35, 96
3, 47959, Note_on_c, 1, 35, 0
3, 47970, Note_on_c, 1, 35, 113
3, 47989, Note_on_c, 1, 35, 0
3, 48000, Note_on_c, 1, 36, 113
3, 48033, Note_on_c, 1, 36, 0
3, 48058, Note_on_c, 1, 36, 113
3, 48088, Note_on_c, 1, 36, 0
3, 48119, Note_on_c, 1, 36, 127
3, 48148, Note_on_c, 1, 36, 0
3, 48179, Note_on_c, 1, 36, 122
3, 48211, Note_on_c, 1, 36, 0
3, 48239, Note_on_c, 1, 38, 127
3, 48277, Note_on_c, 1, 38, 0
3, 48299, Note_on_c, 1, 38, 113
3, 48329, Note_on_c, 1, 38, 0
3, 48360, Note_on_c, 1, 38, 127
3, 48389, Note_on_c, 1, 38, 0
3, 48420, Note_on_c, 1, 38, 96
3, 48440, Note_on_c, 1, 38, 0
3, 48450, Note_on_c, 1, 38, 113
3, 48469, Note_on_c, 1, 38, 0
3, 48479, Note_on_c, 1, 31, 127
3, 48503, Note_on_c, 1, 31, 0
3, 48540, Note_on_c, 1, 31, 122
3, 48571, Note_on_c, 1, 31, 0
3, 48600, Note_on_c, 1, 31, 122
3, 48627, Note_on_c, 1, 31, 0
3, 48660, Note_on_c, 1, 31, 113
3, 48693, Note_on_c, 1, 31, 0
3, 48720, Note_on_c, 1, 31, 109
3, 48752, Note_on_c, 1, 31, 0
3, 48779, Note_on_c, 1, 31, 107
3, 48806, Note_on_c, 1, 31, 0
3, 48840, Note_on_c, 1, 31, 109
3, 48881, Note_on_c, 1, 31, 0
3, 48899, Note_on_c, 1, 38, 116
3, 48914, Note_on_c, 1, 38, 0
3, 48930, Note_on_c, 1, 38, 87
3, 48955, Note_on_c, 1, 38, 0
3, 48960, Note_on_c, 1, 43, 109
3, 49007, Note_on_c, 1, 43, 0
3, 49018, Note_on_c, 1, 43, 107
3, 49054, Note_on_c, 1, 43, 0
3, 49079, Note_on_c, 1, 43, 106
3, 49112, Note_on_c, 1, 43, 0
3, 49139, Note_on_c, 1, 43, 104
3, 49168, Note_on_c, 1, 43, 0
3, 49199, Note_on_c, 1, 43, 103
3, 49255, Note_on_c, 1, 43, 0
3, 49259, Note_on_c, 1, 31, 110
3, 49279, Note_on_c, 1, 31, 0
3, 49320, Note_on_c, 1, 35, 116
3, 49366, Note_on_c, 1, 35, 0
3, 49380, Note_on_c, 1, 38, 127
3, 49434, Note_on_c, 1, 38, 0
3, 49439, Note_on_c, 1, 40, 122
3, 49472, Note_on_c, 1, 40, 0
3, 49500, Note_on_c, 1, 40, 113
3, 49525, Note_on_c, 1, 40, 0
3, 49560, Note_on_c, 1, 40, 109
3, 49589, Note_on_c, 1, 40, 0
3, 49620, Note_on_c, 1, 40, 109
3, 49651, Note_on_c, 1, 40, 0
3, 49680, Note_on_c, 1, 38, 122
3, 49711, Note_on_c, 1, 38, 0
3, 49739, Note_on_c, 1, 38, 113
3, 49769, Note_on_c, 1, 38, 0
3, 49800, Note_on_c, 1, 38, 113
3, 49833, Note_on_c, 1, 38, 0
3, 49859, Note_on_c, 1, 38, 103
3, 49893, Note_on_c, 1, 38, 0
3, 49920, Note_on_c, 1, 36, 116
3, 49956, Note_on_c, 1, 36, 0
3, 49978, Note_on_c, 1, 36, 113
3, 50006, Note_on_c, 1, 36, 0
3, 50039, Note_on_c, 1, 36, 122
3, 50059, Note_on_c, 1, 36, 0
3, 50099, Note_on_c, 1, 36, 103
3, 50118, Note_on_c, 1, 36, 0
3, 50129, Note_on_c, 1, 36, 107
3, 50157, Note_on_c, 1, 36, 0
3, 50159, Note_on_c, 1, 31, 119
3, 50196, Note_on_c, 1, 31, 0
3, 50219, Note_on_c, 1, 31, 113
3, 50250, Note_on_c, 1, 31, 0
3, 50280, Note_on_c, 1, 31, 103
3, 50310, Note_on_c, 1, 31, 0
3, 50340, Note_on_c, 1, 31, 119
3, 50380, Note_on_c, 1, 31, 0
3, 50399, Note_on_c, 1, 31, 119
3, 50430, Note_on_c, 1, 31, 0
3, 50460, Note_on_c, 1, 31, 102
3, 50489, Note_on_c, 1, 31, 0
3, 50520, Note_on_c, 1, 31, 109
3, 50568, Note_on_c, 1, 31, 0
3, 50580, Note_on_c, 1, 31, 104
3, 50610, Note_on_c, 1, 31, 0
3, 50640, Note_on_c, 1, 31, 113
3, 50664, Note_on_c, 1, 31, 0
3, 50699, Note_on_c, 1, 31, 107
3, 50728, Note_on_c, 1, 31, 0
3, 50760, Note_on_c, 1, 31, 109
3, 50787, Note_on_c, 1, 31, 0
3, 50819, Note_on_c, 1, 31, 104
3, 50848, Note_on_c, 1, 31, 0
3, 50880, Note_on_c, 1, 31, 107
3, 50906, Note_on_c, 1, 31, 0
3, 50938, Note_on_c, 1, 31, 103
3, 50968, Note_on_c, 1, 31, 0
3, 50999, Note_on_c, 1, 31, 103
3, 51024, Note_on_c, 1, 31, 0
3, 51059, Note_on_c, 1, 31, 102
3, 51087, Note_on_c, 1, 31, 0
3, 51119, Note_on_c, 1, 31, 103
3, 51147, Note_on_c, 1, 31, 0
3, 51179, Note_on_c, 1, 31, 104
3, 51208, Note_on_c, 1, 31, 0
3, 51240, Note_on_c, 1, 31, 104
3, 51264, Note_on_c, 1, 31, 0
3, 51300, Note_on_c, 1, 31, 107
3, 51318, Note_on_c, 1, 31, 0
3, 51330, Note_on_c, 1, 31, 101
3, 51352, Note_on_c, 1, 31, 0
3, 51359, Note_on_c, 1, 31, 119
3, 51390, Note_on_c, 1, 31, 0
3, 51420, Note_on_c, 1, 31, 102
3, 51449, Note_on_c, 1, 31, 0
3, 51480, Note_on_c, 1, 31, 109
3, 51528, Note_on_c, 1, 31, 0
3, 51540, Note_on_c, 1, 31, 104
3, 51570, Note_on_c, 1, 31, 0
3, 51600, Note_on_c, 1, 31, 113
3, 51624, Note_on_c, 1, 31, 0
3, 51659, Note_on_c, 1, 31, 107
3, 51688, Note_on_c, 1, 31, 0
3, 51720, Note_on_c, 1, 31, 109
3, 51747, Note_on_c, 1, 31, 0
3, 51779, Note_on_c, 1, 31, 104
3, 51808, Note_on_c, 1, 31, 0
3, 51840, Note_on_c, 1, 31, 107
3, 51866, Note_on_c, 1, 31, 0
3, 51898, Note_on_c, 1, 31, 103
3, 51928, Note_on_c, 1, 31, 0
3, 51959, Note_on_c, 1, 31, 103
3, 51984, Note_on_c, 1, 31, 0
3, 52019, Note_on_c, 1, 31, 102
3, 52047, Note_on_c, 1, 31, 0
3, 52079, Note_on_c, 1, 31, 103
3, 52107, Note_on_c, 1, 31, 0
3, 52139, Note_on_c, 1, 31, 104
3, 52168, Note_on_c, 1, 31, 0
3, 52200, Note_on_c, 1, 31, 104
3, 52224, Note_on_c, 1, 31, 0
3, 52260, Note_on_c, 1, 31, 107
3, 52278, Note_on_c, 1, 31, 0
3, 52290, Note_on_c, 1, 31, 101
3, 52312, Note_on_c, 1, 31, 0
3, 52319, Note_on_c, 1, 31, 119
3, 52350, Note_on_c, 1, 31, 0
3, 52380, Note_on_c, 1, 31, 102
3, 52409, Note_on_c, 1, 31, 0
3, 52440, Note_on_c, 1, 31, 109
3, 52488, Note_on_c, 1, 31, 0
3, 52500, Note_on_c, 1, 31, 104
3, 52530, Note_on_c, 1, 31, 0
3, 52560, Note_on_c, 1, 31, 113
3, 52584, Note_on_c, 1, 31, 0
3, 52619, Note_on_c, 1, 31, 107
3, 52648, Note_on_c, 1, 31, 0
3, 52680, Note_on_c, 1, 31, 109
3, 52707, Note_on_c, 1, 31, 0
3, 52739, Note_on_c, 1, 31, 104
3, 52768, Note_on_c, 1, 31, 0
3, 52800, Note_on_c, 1, 31, 107
3, 52826, Note_on_c, 1, 31, 0
3, 52858, Note_on_c, 1, 31, 103
3, 52888, Note_on_c, 1, 31, 0
3, 52919, Note_on_c, 1, 31, 103
3, 52944, Note_on_c, 1, 31, 0
3, 52979, Note_on_c, 1, 31, 102
3, 53007, Note_on_c, 1, 31, 0
3, 53039, Note_on_c, 1, 31, 103
3, 53067, Note_on_c, 1, 31, 0
3, 53099, Note_on_c, 1, 31, 104
3, 53128, Note_on_c, 1, 31, 0
3, 53160, Note_on_c, 1, 31, 104
3, 53184, Note_on_c, 1, 31, 0
3, 53220, Note_on_c, 1, 31, 107
3, 53238, Note_on_c, 1, 31, 0
3, 53250, Note_on_c, 1, 31, 101
3, 53272, Note_on_c, 1, 31, 0
3, 53279, Note_on_c, 1, 31, 119
3, 53310, Note_on_c, 1, 31, 0
3, 53340, Note_on_c, 1, 31, 102
3, 53369, Note_on_c, 1, 31, 0
3, 53400, Note_on_c, 1, 31, 109
3, 53448, Note_on_c, 1, 31, 0
3, 53460, Note_on_c, 1, 31, 104
3, 53490, Note_on_c, 1, 31, 0
3, 53520, Note_on_c, 1, 31, 113
3, 53544, Note_on_c, 1, 31, 0
3, 53579, Note_on_c, 1, 31, 107
3, 53608, Note_on_c, 1, 31, 0
3, 53640, Note_on_c, 1, 31, 109
3, 53667, Note_on_c, 1, 31, 0
3, 53699, Note_on_c, 1, 31, 104
3, 53728, Note_on_c, 1, 31, 0
3, 53760, Note_on_c, 1, 31, 107
3, 53786, Note_on_c, 1, 31, 0
3, 53818, Note_on_c, 1, 31, 103
3, 53848, Note_on_c, 1, 31, 0
3, 53879, Note_on_c, 1, 31, 103
3, 53904, Note_on_c, 1, 31, 0
3, 53939, Note_on_c, 1, 31, 102
3, 53967, Note_on_c, 1, 31, 0
3, 53999, Note_on_c, 1, 31, 103
3, 54027, Note_on_c, 1, 31, 0
3, 54059, Note_on_c, 1, 31, 104
3, 54088, Note_on_c, 1, 31, 0
3, 54120, Note_on_c, 1, 31, 104
3, 54144, Note_on_c, 1, 31, 0
3, 54180, Note_on_c, 1, 31, 107
3, 54198, Note_on_c, 1, 31, 0
3, 54210, Note_on_c, 1, 31, 101
3, 54232, Note_on_c, 1, 31, 0
3, 54239, Note_on_c, 1, 31, 127
3, 54298, Note_on_c, 1, 31, 0
3, 54360, Note_on_c, 1, 31, 127
3, 54421, Note_on_c, 1, 31, 0
3, 54480, Note_on_c, 1, 31, 109
3, 54542, Note_on_c, 1, 31, 0
3, 54600, Note_on_c, 1, 31, 127
3, 54661, Note_on_c, 1, 31, 0
3, 54720, Note_on_c, 1, 31, 107
3, 54782, Note_on_c, 1, 31, 0
3, 54839, Note_on_c, 1, 31, 108
3, 54898, Note_on_c, 1, 31, 0
3, 54959, Note_on_c, 1, 31, 127
3, 55023, Note_on_c, 1, 31, 0
3, 55080, Note_on_c, 1, 31, 127
3, 55141, Note_on_c, 1, 31, 0
3, 55199, Note_on_c, 1, 31, 113
3, 55259, Note_on_c, 1, 31, 0
3, 55320, Note_on_c, 1, 31, 127
3, 55380, Note_on_c, 1, 31, 0
3, 55440, Note_on_c, 1, 31, 127
3, 55499, Note_on_c, 1, 31, 0
3, 55560, Note_on_c, 1, 31, 127
3, 55617, Note_on_c, 1, 31, 0
3, 55680, Note_on_c, 1, 31, 127
3, 55736, Note_on_c, 1, 31, 0
3, 55799, Note_on_c, 1, 31, 127
3, 55858, Note_on_c, 1, 31, 0
3, 55919, Note_on_c, 1, 31, 127
3, 55972, Note_on_c, 1, 31, 0
3, 56040, Note_on_c, 1, 31, 127
3, 56082, Note_on_c, 1, 31, 0
3, 56100, Note_on_c, 1, 31, 127
3, 56111, Note_on_c, 1, 31, 0
3, 56130, Note_on_c, 1, 31, 127
3, 56148, Note_on_c, 1, 31, 0
3, 56159, Note_on_c, 1, 31, 127
3, 56218, Note_on_c, 1, 31, 0
3, 56280, Note_on_c, 1, 31, 127
3, 56341, Note_on_c, 1, 31, 0
3, 56400, Note_on_c, 1, 31, 109
3, 56462, Note_on_c, 1, 31, 0
3, 56520, Note_on_c, 1, 31, 127
3, 56581, Note_on_c, 1, 31, 0
3, 56640, Note_on_c, 1, 31, 107
3, 56702, Note_on_c, 1, 31, 0
3, 56759, Note_on_c, 1, 31, 108
3, 56818, Note_on_c, 1, 31, 0
3, 56879, Note_on_c, 1, 31, 127
3, 56943, Note_on_c, 1, 31, 0
3, 57000, Note_on_c, 1, 31, 127
3, 57061, Note_on_c, 1, 31, 0
3, 57119, Note_on_c, 1, 31, 113
3, 57179, Note_on_c, 1, 31, 0
3, 57240, Note_on_c, 1, 31, 127
3, 57300, Note_on_c, 1, 31, 0
3, 57360, Note_on_c, 1, 31, 127
3, 57419, Note_on_c, 1, 31, 0
3, 57480, Note_on_c, 1, 31, 127
3, 57537, Note_on_c, 1, 31, 0
3, 57600, Note_on_c, 1, 31, 127
3, 57656, Note_on_c, 1, 31, 0
3, 57719, Note_on_c, 1, 31, 127
3, 57778, Note_on_c, 1, 31, 0
3, 57839, Note_on_c, 1, 31, 127
3, 57892, Note_on_c, 1, 31, 0
3, 57960, Note_on_c, 1, 31, 127
3, 58002, Note_on_c, 1, 31, 0
3, 58020, Note_on_c, 1, 31, 127
3, 58031, Note_on_c, 1, 31, 0
3, 58050, Note_on_c, 1, 31, 127
3, 58068, Note_on_c, 1, 31, 0
3, 58068, End_track
4, 0, Start_track
4, 0, MIDI_port, 0
4, 125, Control_c, 2, 121, 0
4, 127, Control_c, 2, 100, 0
4, 129, Control_c, 2, 101, 0
4, 130, Control_c, 2, 6, 2
4, 131, Control_c, 2, 91, 81
4, 132, Program_c, 2, 61
4, 132, Control_c, 2, 93, 30
4, 133, Control_c, 2, 7, 102
4, 133, Control_c, 2, 10, 85
4, 136, Control_c, 2, 1, 0
4, 137, Control_c, 2, 11, 127
4, 10560, Control_c, 2, 71, 70
4, 10561, Control_c, 2, 98, 33
4, 10562, Control_c, 2, 99, 1
4, 10563, Control_c, 2, 6, 70
4, 11040, Note_on_c, 2, 74, 116
4, 11065, Note_on_c, 2, 74, 0
4, 11100, Note_on_c, 2, 72, 111
4, 11124, Note_on_c, 2, 72, 0
4, 11160, Note_on_c, 2, 69, 110
4, 11189, Note_on_c, 2, 69, 0
4, 11220, Note_on_c, 2, 68, 110
4, 11243, Note_on_c, 2, 68, 0
4, 11250, Note_on_c, 2, 67, 110
4, 11255, Control_c, 2, 1, 75
4, 11330, Note_on_c, 2, 67, 0
4, 11340, Note_on_c, 2, 65, 116
4, 11358, Control_c, 2, 1, 0
4, 11392, Note_on_c, 2, 65, 0
4, 11400, Note_on_c, 2, 62, 107
4, 11438, Note_on_c, 2, 62, 0
4, 11460, Note_on_c, 2, 57, 114
4, 11485, Note_on_c, 2, 57, 0
4, 11520, Note_on_c, 2, 56, 107
4, 11551, Note_on_c, 2, 56, 0
4, 11580, Note_on_c, 2, 55, 107
4, 11610, Note_on_c, 2, 55, 0
4, 11640, Note_on_c, 2, 53, 118
4, 11662, Note_on_c, 2, 53, 0
4, 11670, Note_on_c, 2, 38, 107
4, 11670, Note_on_c, 2, 50, 107
4, 11743, Note_on_c, 2, 50, 0
4, 11757, Note_on_c, 2, 38, 0
4, 11760, Note_on_c, 2, 62, 127
4, 11793, Note_on_c, 2, 62, 0
4, 13920, Note_on_c, 2, 62, 117
4, 14460, Note_on_c, 2, 69, 97
4, 15107, Note_on_c, 2, 69, 0
4, 15115, Note_on_c, 2, 62, 0
4, 15120, Note_on_c, 2, 71, 85
4, 15120, Note_on_c, 2, 66, 85
4, 15355, Note_on_c, 2, 66, 0
4, 15355, Note_on_c, 2, 71, 0
4, 15360, Note_on_c, 2, 71, 86
4, 15360, Note_on_c, 2, 67, 86
4, 15595, Note_on_c, 2, 67, 0
4, 15595, Note_on_c, 2, 71, 0
4, 15600, Note_on_c, 2, 69, 70
4, 15600, Note_on_c, 2, 66, 70
4, 15835, Note_on_c, 2, 66, 0
4, 15835, Note_on_c, 2, 69, 0
4, 15840, Note_on_c, 2, 71, 99
4, 16193, Note_on_c, 2, 71, 0
4, 16200, Note_on_c, 2, 69, 97
4, 16318, Note_on_c, 2, 69, 0
4, 16320, Note_on_c, 2, 71, 102
4, 16790, Note_on_c, 2, 71, 0
4, 16800, Note_on_c, 2, 71, 102
4, 17035, Note_on_c, 2, 71, 0
4, 17040, Note_on_c, 2, 69, 104
4, 17275, Note_on_c, 2, 69, 0
4, 17280, Note_on_c, 2, 71, 99
4, 17515, Note_on_c, 2, 71, 0
4, 17520, Note_on_c, 2, 69, 122
4, 17579, Note_on_c, 2, 69, 0
4, 17760, Note_on_c, 2, 62, 108
4, 18120, Note_on_c, 2, 69, 96
4, 18300, Note_on_c, 2, 74, 92
4, 18701, Note_on_c, 2, 62, 0
4, 18708, Note_on_c, 2, 69, 0
4, 18712, Note_on_c, 2, 74, 0
4, 18720, Note_on_c, 2, 71, 96
4, 18720, Note_on_c, 2, 66, 96
4, 18955, Note_on_c, 2, 66, 0
4, 18955, Note_on_c, 2, 71, 0
4, 18960, Note_on_c, 2, 69, 92
4, 18960, Note_on_c, 2, 64, 92
4, 19195, Note_on_c, 2, 64, 0
4, 19195, Note_on_c, 2, 69, 0
4, 19200, Note_on_c, 2, 67, 87
4, 19200, Note_on_c, 2, 62, 87
4, 19435, Note_on_c, 2, 62, 0
4, 19435, Note_on_c, 2, 67, 0
4, 19440, Note_on_c, 2, 66, 90
4, 19440, Note_on_c, 2, 62, 90
4, 19675, Note_on_c, 2, 62, 0
4, 19675, Note_on_c, 2, 66, 0
4, 19680, Note_on_c, 2, 71, 90
4, 19680, Note_on_c, 2, 66, 90
4, 19915, Note_on_c, 2, 66, 0
4, 19915, Note_on_c, 2, 71, 0
4, 19920, Note_on_c, 2, 69, 92
4, 19920, Note_on_c, 2, 64, 92
4, 20155, Note_on_c, 2, 64, 0
4, 20155, Note_on_c, 2, 69, 0
4, 20160, Note_on_c, 2, 67, 96
4, 20160, Note_on_c, 2, 62, 96
4, 20395, Note_on_c, 2, 62, 0
4, 20395, Note_on_c, 2, 67, 0
4, 20400, Note_on_c, 2, 66, 101
4, 20400, Note_on_c, 2, 62, 101
4, 20635, Note_on_c, 2, 62, 0
4, 20635, Note_on_c, 2, 66, 0
4, 20700, Note_on_c, 2, 67, 127
4, 20720, Note_on_c, 2, 67, 0
4, 20790, Note_on_c, 2, 67, 122
4, 20811, Note_on_c, 2, 67, 0
4, 20880, Note_on_c, 2, 67, 122
4, 20985, Note_on_c, 2, 67, 0
4, 21000, Note_on_c, 2, 66, 117
4, 21058, Note_on_c, 2, 66, 0
4, 21060, Note_on_c, 2, 64, 122
4, 21089, Note_on_c, 2, 64, 0
4, 21180, Note_on_c, 2, 69, 127
4, 21198, Note_on_c, 2, 69, 0
4, 21270, Note_on_c, 2, 69, 122
4, 21291, Note_on_c, 2, 69, 0
4, 21360, Note_on_c, 2, 69, 122
4, 21461, Note_on_c, 2, 69, 0
4, 21480, Note_on_c, 2, 71, 117
4, 21533, Note_on_c, 2, 71, 0
4, 21540, Note_on_c, 2, 74, 127
4, 21577, Note_on_c, 2, 74, 0
4, 21660, Note_on_c, 2, 67, 127
4, 21680, Note_on_c, 2, 67, 0
4, 21750, Note_on_c, 2, 67, 122
4, 21771, Note_on_c, 2, 67, 0
4, 21840, Note_on_c, 2, 67, 122
4, 21945, Note_on_c, 2, 67, 0
4, 21960, Note_on_c, 2, 66, 117
4, 22018, Note_on_c, 2, 66, 0
4, 22020, Note_on_c, 2, 64, 122
4, 22049, Note_on_c, 2, 64, 0
4, 22140, Note_on_c, 2, 69, 127
4, 22158, Note_on_c, 2, 69, 0
4, 22230, Note_on_c, 2, 69, 122
4, 22251, Note_on_c, 2, 69, 0
4, 22320, Note_on_c, 2, 69, 122
4, 22426, Note_on_c, 2, 69, 0
4, 22440, Note_on_c, 2, 69, 123
4, 22469, Note_on_c, 2, 69, 0
4, 22470, Note_on_c, 2, 71, 117
4, 22499, Note_on_c, 2, 71, 0
4, 22500, Note_on_c, 2, 74, 127
4, 22521, Note_on_c, 2, 74, 0
4, 22530, Note_on_c, 2, 74, 127
4, 22551, Note_on_c, 2, 74, 0
4, 22620, Note_on_c, 2, 67, 127
4, 22640, Note_on_c, 2, 67, 0
4, 22710, Note_on_c, 2, 67, 122
4, 22731, Note_on_c, 2, 67, 0
4, 22800, Note_on_c, 2, 67, 122
4, 22905, Note_on_c, 2, 67, 0
4, 22920, Note_on_c, 2, 66, 117
4, 22978, Note_on_c, 2, 66, 0
4, 22980, Note_on_c, 2, 64, 122
4, 23009, Note_on_c, 2, 64, 0
4, 23100, Note_on_c, 2, 69, 127
4, 23118, Note_on_c, 2, 69, 0
4, 23190, Note_on_c, 2, 69, 122
4, 23211, Note_on_c, 2, 69, 0
4, 23280, Note_on_c, 2, 69, 122
4, 23386, Note_on_c, 2, 69, 0
4, 23400, Note_on_c, 2, 69, 123
4, 23429, Note_on_c, 2, 69, 0
4, 23430, Note_on_c, 2, 71, 117
4, 23459, Note_on_c, 2, 71, 0
4, 23460, Note_on_c, 2, 74, 127
4, 23481, Note_on_c, 2, 74, 0
4, 23490, Note_on_c, 2, 74, 127
4, 23511, Note_on_c, 2, 74, 0
4, 23520, Note_on_c, 2, 65, 105
4, 23520, Note_on_c, 2, 70, 105
4, 23755, Note_on_c, 2, 70, 0
4, 23760, Note_on_c, 2, 69, 94
4, 23990, Note_on_c, 2, 65, 0
4, 23995, Note_on_c, 2, 69, 0
4, 24000, Note_on_c, 2, 64, 96
4, 24000, Note_on_c, 2, 67, 96
4, 24480, Note_on_c, 2, 72, 92
4, 25411, Note_on_c, 2, 67, 0
4, 25411, Note_on_c, 2, 64, 0
4, 25421, Note_on_c, 2, 72, 0
4, 27360, Note_on_c, 2, 76, 105
4, 27360, Note_on_c, 2, 64, 105
4, 27360, Note_on_c, 2, 71, 105
4, 28160, Note_on_c, 2, 71, 0
4, 28181, Note_on_c, 2, 64, 0
4, 28181, Note_on_c, 2, 76, 0
4, 28200, Note_on_c, 2, 71, 111
4, 28200, Note_on_c, 2, 59, 111
4, 28222, Note_on_c, 2, 59, 0
4, 28222, Note_on_c, 2, 71, 0
4, 28230, Note_on_c, 2, 73, 111
4, 28230, Note_on_c, 2, 61, 111
4, 28252, Note_on_c, 2, 61, 0
4, 28252, Note_on_c, 2, 73, 0
4, 28260, Note_on_c, 2, 76, 108
4, 28260, Note_on_c, 2, 64, 108
4, 28285, Note_on_c, 2, 64, 0
4, 28285, Note_on_c, 2, 76, 0
4, 28320, Note_on_c, 2, 73, 99
4, 28320, Note_on_c, 2, 61, 99
4, 28320, Note_on_c, 2, 68, 103
4, 28387, Note_on_c, 2, 68, 0
4, 28389, Note_on_c, 2, 61, 0
4, 28389, Note_on_c, 2, 73, 0
4, 28410, Note_on_c, 2, 73, 101
4, 28410, Note_on_c, 2, 61, 101
4, 28410, Note_on_c, 2, 68, 102
4, 28475, Note_on_c, 2, 68, 0
4, 28482, Note_on_c, 2, 61, 0
4, 28482, Note_on_c, 2, 73, 0
4, 28500, Note_on_c, 2, 71, 97
4, 28500, Note_on_c, 2, 59, 97
4, 28500, Note_on_c, 2, 66, 96
4, 28788, Note_on_c, 2, 66, 0
4, 28792, Note_on_c, 2, 59, 0
4, 28792, Note_on_c, 2, 71, 0
4, 28800, Note_on_c, 2, 57, 125
4, 28800, Note_on_c, 2, 73, 103
4, 28800, Note_on_c, 2, 64, 95
4, 28868, Note_on_c, 2, 64, 0
4, 28868, Note_on_c, 2, 57, 0
4, 28870, Note_on_c, 2, 73, 0
4, 28890, Note_on_c, 2, 57, 127
4, 28890, Note_on_c, 2, 73, 101
4, 28890, Note_on_c, 2, 64, 98
4, 28962, Note_on_c, 2, 64, 0
4, 28962, Note_on_c, 2, 57, 0
4, 28968, Note_on_c, 2, 73, 0
4, 28980, Note_on_c, 2, 64, 104
4, 28980, Note_on_c, 2, 71, 93
4, 29259, Note_on_c, 2, 64, 0
4, 29262, Note_on_c, 2, 71, 0
4, 29280, Note_on_c, 2, 76, 105
4, 29280, Note_on_c, 2, 64, 105
4, 29280, Note_on_c, 2, 71, 105
4, 30080, Note_on_c, 2, 71, 0
4, 30101, Note_on_c, 2, 64, 0
4, 30101, Note_on_c, 2, 76, 0
4, 30120, Note_on_c, 2, 71, 111
4, 30120, Note_on_c, 2, 59, 111
4, 30142, Note_on_c, 2, 59, 0
4, 30142, Note_on_c, 2, 71, 0
4, 30150, Note_on_c, 2, 73, 111
4, 30150, Note_on_c, 2, 61, 111
4, 30172, Note_on_c, 2, 61, 0
4, 30172, Note_on_c, 2, 73, 0
4, 30180, Note_on_c, 2, 76, 108
4, 30180, Note_on_c, 2, 64, 108
4, 30205, Note_on_c, 2, 64, 0
4, 30205, Note_on_c, 2, 76, 0
4, 30240, Note_on_c, 2, 73, 99
4, 30240, Note_on_c, 2, 61, 99
4, 30240, Note_on_c, 2, 68, 103
4, 30307, Note_on_c, 2, 68, 0
4, 30309, Note_on_c, 2, 61, 0
4, 30309, Note_on_c, 2, 73, 0
4, 30330, Note_on_c, 2, 73, 101
4, 30330, Note_on_c, 2, 61, 101
4, 30330, Note_on_c, 2, 68, 102
4, 30395, Note_on_c, 2, 68, 0
4, 30402, Note_on_c, 2, 61, 0
4, 30402, Note_on_c, 2, 73, 0
4, 30420, Note_on_c, 2, 71, 97
4, 30420, Note_on_c, 2, 59, 97
4, 30420, Note_on_c, 2, 66, 96
4, 30538, Note_on_c, 2, 59, 0
4, 30540, Note_on_c, 2, 59, 121
4, 30569, Note_on_c, 2, 59, 0
4, 30660, Note_on_c, 2, 59, 123
4, 30689, Note_on_c, 2, 59, 0
4, 30708, Note_on_c, 2, 66, 0
4, 30712, Note_on_c, 2, 71, 0
4, 30720, Note_on_c, 2, 57, 125
4, 30720, Note_on_c, 2, 73, 103
4, 30720, Note_on_c, 2, 64, 95
4, 30788, Note_on_c, 2, 64, 0
4, 30788, Note_on_c, 2, 57, 0
4, 30790, Note_on_c, 2, 73, 0
4, 30810, Note_on_c, 2, 57, 127
4, 30810, Note_on_c, 2, 73, 101
4, 30810, Note_on_c, 2, 64, 98
4, 30882, Note_on_c, 2, 64, 0
4, 30882, Note_on_c, 2, 57, 0
4, 30888, Note_on_c, 2, 73, 0
4, 30900, Note_on_c, 2, 64, 104
4, 30900, Note_on_c, 2, 71, 93
4, 31179, Note_on_c, 2, 64, 0
4, 31182, Note_on_c, 2, 71, 0
4, 31200, Note_on_c, 2, 61, 99
4, 31200, Note_on_c, 2, 73, 99
4, 31700, Note_on_c, 2, 73, 0
4, 31700, Note_on_c, 2, 61, 0
4, 31740, Note_on_c, 2, 61, 127
4, 31740, Note_on_c, 2, 73, 127
4, 31762, Note_on_c, 2, 73, 0
4, 31762, Note_on_c, 2, 61, 0
4, 31770, Note_on_c, 2, 59, 98
4, 31770, Note_on_c, 2, 71, 98
4, 31794, Note_on_c, 2, 71, 0
4, 31794, Note_on_c, 2, 59, 0
4, 31830, Note_on_c, 2, 61, 122
4, 31830, Note_on_c, 2, 73, 122
4, 31852, Note_on_c, 2, 73, 0
4, 31852, Note_on_c, 2, 61, 0
4, 31920, Note_on_c, 2, 61, 117
4, 31920, Note_on_c, 2, 73, 117
4, 32027, Note_on_c, 2, 73, 0
4, 32027, Note_on_c, 2, 61, 0
4, 32040, Note_on_c, 2, 64, 108
4, 32040, Note_on_c, 2, 76, 108
4, 32153, Note_on_c, 2, 76, 0
4, 32153, Note_on_c, 2, 64, 0
4, 32160, Note_on_c, 2, 64, 104
4, 32160, Note_on_c, 2, 54, 102
4, 32160, Note_on_c, 2, 61, 102
4, 32160, Note_on_c, 2, 73, 102
4, 32278, Note_on_c, 2, 73, 0
4, 32278, Note_on_c, 2, 64, 0
4, 32278, Note_on_c, 2, 54, 0
4, 32278, Note_on_c, 2, 61, 0
4, 32400, Note_on_c, 2, 59, 104
4, 32400, Note_on_c, 2, 56, 104
4, 32400, Note_on_c, 2, 64, 104
4, 32400, Note_on_c, 2, 71, 104
4, 32518, Note_on_c, 2, 71, 0
4, 32518, Note_on_c, 2, 59, 0
4, 32518, Note_on_c, 2, 56, 0
4, 32518, Note_on_c, 2, 64, 0
4, 32640, Note_on_c, 2, 64, 99
4, 32640, Note_on_c, 2, 57, 99
4, 32640, Note_on_c, 2, 61, 99
4, 32640, Note_on_c, 2, 73, 99
4, 32846, Note_on_c, 2, 73, 0
4, 32846, Note_on_c, 2, 64, 0
4, 32846, Note_on_c, 2, 57, 0
4, 32846, Note_on_c, 2, 61, 0
4, 32880, Note_on_c, 2, 76, 122
4, 32880, Note_on_c, 2, 64, 114
4, 32899, Note_on_c, 2, 64, 0
4, 32901, Note_on_c, 2, 76, 0
4, 32940, Note_on_c, 2, 76, 127
4, 32940, Note_on_c, 2, 64, 114
4, 32963, Note_on_c, 2, 76, 0
4, 32966, Note_on_c, 2, 64, 0
4, 33000, Note_on_c, 2, 71, 121
4, 33000, Note_on_c, 2, 59, 121
4, 33023, Note_on_c, 2, 71, 0
4, 33026, Note_on_c, 2, 59, 0
4, 33030, Note_on_c, 2, 73, 116
4, 33030, Note_on_c, 2, 61, 116
4, 33052, Note_on_c, 2, 73, 0
4, 33053, Note_on_c, 2, 61, 0
4, 33060, Note_on_c, 2, 76, 127
4, 33060, Note_on_c, 2, 64, 127
4, 33093, Note_on_c, 2, 76, 0
4, 33101, Note_on_c, 2, 64, 0
4, 33120, Note_on_c, 2, 71, 108
4, 33120, Note_on_c, 2, 76, 108
4, 33618, Note_on_c, 2, 76, 0
4, 33618, Note_on_c, 2, 71, 0
4, 33660, Note_on_c, 2, 71, 127
4, 33660, Note_on_c, 2, 76, 127
4, 33681, Note_on_c, 2, 76, 0
4, 33681, Note_on_c, 2, 71, 0
4, 33750, Note_on_c, 2, 71, 127
4, 33750, Note_on_c, 2, 76, 127
4, 33772, Note_on_c, 2, 76, 0
4, 33772, Note_on_c, 2, 71, 0
4, 33840, Note_on_c, 2, 71, 117
4, 33840, Note_on_c, 2, 76, 117
4, 33892, Note_on_c, 2, 76, 0
4, 33892, Note_on_c, 2, 71, 0
4, 33900, Note_on_c, 2, 73, 108
4, 33900, Note_on_c, 2, 76, 108
4, 33920, Note_on_c, 2, 76, 0
4, 33920, Note_on_c, 2, 73, 0
4, 33960, Note_on_c, 2, 71, 117
4, 33960, Note_on_c, 2, 76, 117
4, 34010, Note_on_c, 2, 76, 0
4, 34010, Note_on_c, 2, 71, 0
4, 34020, Note_on_c, 2, 73, 108
4, 34020, Note_on_c, 2, 76, 108
4, 34058, Note_on_c, 2, 76, 0
4, 34058, Note_on_c, 2, 73, 0
4, 34080, Note_on_c, 2, 68, 106
4, 34080, Note_on_c, 2, 73, 108
4, 34141, Note_on_c, 2, 68, 0
4, 34144, Note_on_c, 2, 73, 0
4, 34170, Note_on_c, 2, 73, 106
4, 34170, Note_on_c, 2, 68, 108
4, 34230, Note_on_c, 2, 68, 0
4, 34231, Note_on_c, 2, 73, 0
4, 34260, Note_on_c, 2, 70, 46
4, 34260, Note_on_c, 2, 66, 104
4, 34260, Note_on_c, 2, 71, 104
4, 34262, Note_on_c, 2, 70, 0
4, 34538, Note_on_c, 2, 71, 0
4, 34538, Note_on_c, 2, 66, 0
4, 34560, Note_on_c, 2, 64, 96
4, 34560, Note_on_c, 2, 73, 106
4, 34628, Note_on_c, 2, 64, 0
4, 34632, Note_on_c, 2, 73, 0
4, 34650, Note_on_c, 2, 64, 97
4, 34650, Note_on_c, 2, 73, 98
4, 34709, Note_on_c, 2, 64, 0
4, 34720, Note_on_c, 2, 73, 0
4, 34740, Note_on_c, 2, 71, 104
4, 34740, Note_on_c, 2, 64, 101
4, 34841, Note_on_c, 2, 64, 0
4, 34842, Note_on_c, 2, 71, 0
4, 34860, Note_on_c, 2, 73, 122
4, 34890, Note_on_c, 2, 73, 0
4, 34920, Note_on_c, 2, 71, 108
4, 34944, Note_on_c, 2, 71, 0
4, 34950, Note_on_c, 2, 73, 111
4, 34976, Note_on_c, 2, 73, 0
4, 34980, Note_on_c, 2, 76, 117
4, 35022, Note_on_c, 2, 76, 0
4, 35040, Note_on_c, 2, 73, 111
4, 35040, Note_on_c, 2, 68, 111
4, 35208, Note_on_c, 2, 68, 0
4, 35220, Note_on_c, 2, 66, 104
4, 35220, Note_on_c, 2, 71, 98
4, 35222, Note_on_c, 2, 73, 0
4, 35504, Note_on_c, 2, 71, 0
4, 35508, Note_on_c, 2, 66, 0
4, 35520, Note_on_c, 2, 76, 102
4, 35520, Note_on_c, 2, 71, 103
4, 35754, Note_on_c, 2, 76, 0
4, 35782, Note_on_c, 2, 71, 0
4, 35790, Note_on_c, 2, 76, 114
4, 35809, Note_on_c, 2, 76, 0
4, 35820, Note_on_c, 2, 76, 118
4, 35846, Note_on_c, 2, 76, 0
4, 35850, Note_on_c, 2, 78, 118
4, 35880, Note_on_c, 2, 76, 118
4, 35883, Note_on_c, 2, 78, 0
4, 35910, Note_on_c, 2, 73, 118
4, 35912, Note_on_c, 2, 76, 0
4, 35940, Note_on_c, 2, 73, 0
4, 35940, Note_on_c, 2, 71, 118
4, 35966, Note_on_c, 2, 71, 0
4, 35970, Note_on_c, 2, 68, 121
4, 35990, Note_on_c, 2, 68, 0
4, 36000, Note_on_c, 2, 64, 104
4, 36021, Note_on_c, 2, 64, 0
4, 36060, Note_on_c, 2, 52, 127
4, 36079, Note_on_c, 2, 52, 0
4, 36180, Note_on_c, 2, 52, 114
4, 36330, Note_on_c, 2, 52, 0
4, 36360, Note_on_c, 2, 49, 119
4, 36419, Note_on_c, 2, 49, 0
4, 36420, Note_on_c, 2, 47, 114
4, 36439, Note_on_c, 2, 47, 0
4, 36450, Note_on_c, 2, 52, 123
4, 36479, Note_on_c, 2, 52, 0
4, 36540, Note_on_c, 2, 52, 122
4, 36558, Note_on_c, 2, 52, 0
4, 36660, Note_on_c, 2, 52, 117
4, 36791, Note_on_c, 2, 52, 0
4, 36840, Note_on_c, 2, 52, 117
4, 36870, Note_on_c, 2, 49, 114
4, 36875, Note_on_c, 2, 52, 0
4, 36897, Note_on_c, 2, 49, 0
4, 36900, Note_on_c, 2, 43, 110
4, 36930, Note_on_c, 2, 44, 117
4, 36932, Note_on_c, 2, 43, 0
4, 36950, Note_on_c, 2, 44, 0
4, 36960, Note_on_c, 2, 64, 104
4, 36981, Note_on_c, 2, 64, 0
4, 37020, Note_on_c, 2, 52, 127
4, 37039, Note_on_c, 2, 52, 0
4, 37140, Note_on_c, 2, 52, 114
4, 37290, Note_on_c, 2, 52, 0
4, 37320, Note_on_c, 2, 49, 119
4, 37379, Note_on_c, 2, 49, 0
4, 37380, Note_on_c, 2, 47, 114
4, 37399, Note_on_c, 2, 47, 0
4, 37410, Note_on_c, 2, 52, 123
4, 37439, Note_on_c, 2, 52, 0
4, 37500, Note_on_c, 2, 52, 122
4, 37518, Note_on_c, 2, 52, 0
4, 37620, Note_on_c, 2, 52, 117
4, 37751, Note_on_c, 2, 52, 0
4, 37800, Note_on_c, 2, 52, 117
4, 37830, Note_on_c, 2, 49, 114
4, 37835, Note_on_c, 2, 52, 0
4, 37857, Note_on_c, 2, 49, 0
4, 37860, Note_on_c, 2, 43, 110
4, 37890, Note_on_c, 2, 44, 117
4, 37892, Note_on_c, 2, 43, 0
4, 37910, Note_on_c, 2, 44, 0
4, 37920, Note_on_c, 2, 76, 104
4, 37920, Note_on_c, 2, 52, 104
4, 37941, Note_on_c, 2, 52, 0
4, 37941, Note_on_c, 2, 76, 0
4, 37980, Note_on_c, 2, 76, 127
4, 37980, Note_on_c, 2, 52, 127
4, 37999, Note_on_c, 2, 52, 0
4, 37999, Note_on_c, 2, 76, 0
4, 38100, Note_on_c, 2, 76, 114
4, 38100, Note_on_c, 2, 52, 114
4, 38250, Note_on_c, 2, 52, 0
4, 38250, Note_on_c, 2, 76, 0
4, 38280, Note_on_c, 2, 73, 119
4, 38280, Note_on_c, 2, 49, 119
4, 38339, Note_on_c, 2, 49, 0
4, 38339, Note_on_c, 2, 73, 0
4, 38340, Note_on_c, 2, 71, 114
4, 38340, Note_on_c, 2, 47, 114
4, 38359, Note_on_c, 2, 47, 0
4, 38359, Note_on_c, 2, 71, 0
4, 38370, Note_on_c, 2, 76, 123
4, 38370, Note_on_c, 2, 52, 123
4, 38399, Note_on_c, 2, 52, 0
4, 38399, Note_on_c, 2, 76, 0
4, 38460, Note_on_c, 2, 76, 122
4, 38460, Note_on_c, 2, 52, 122
4, 38478, Note_on_c, 2, 52, 0
4, 38478, Note_on_c, 2, 76, 0
4, 38580, Note_on_c, 2, 76, 117
4, 38580, Note_on_c, 2, 52, 117
4, 38711, Note_on_c, 2, 52, 0
4, 38711, Note_on_c, 2, 76, 0
4, 38760, Note_on_c, 2, 76, 117
4, 38760, Note_on_c, 2, 52, 117
4, 38790, Note_on_c, 2, 73, 114
4, 38790, Note_on_c, 2, 49, 114
4, 38795, Note_on_c, 2, 52, 0
4, 38795, Note_on_c, 2, 76, 0
4, 38817, Note_on_c, 2, 73, 0
4, 38817, Note_on_c, 2, 49, 0
4, 38820, Note_on_c, 2, 67, 110
4, 38820, Note_on_c, 2, 43, 110
4, 38850, Note_on_c, 2, 68, 117
4, 38850, Note_on_c, 2, 44, 117
4, 38852, Note_on_c, 2, 43, 0
4, 38852, Note_on_c, 2, 67, 0
4, 38870, Note_on_c, 2, 68, 0
4, 38870, Note_on_c, 2, 44, 0
4, 38880, Note_on_c, 2, 76, 104
4, 38880, Note_on_c, 2, 52, 104
4, 38901, Note_on_c, 2, 52, 0
4, 38901, Note_on_c, 2, 76, 0
4, 38940, Note_on_c, 2, 76, 127
4, 38940, Note_on_c, 2, 52, 127
4, 38959, Note_on_c, 2, 52, 0
4, 38959, Note_on_c, 2, 76, 0
4, 39060, Note_on_c, 2, 76, 114
4, 39060, Note_on_c, 2, 52, 114
4, 39210, Note_on_c, 2, 52, 0
4, 39210, Note_on_c, 2, 76, 0
4, 39240, Note_on_c, 2, 73, 119
4, 39240, Note_on_c, 2, 49, 119
4, 39299, Note_on_c, 2, 49, 0
4, 39299, Note_on_c, 2, 73, 0
4, 39300, Note_on_c, 2, 71, 114
4, 39300, Note_on_c, 2, 47, 114
4, 39319, Note_on_c, 2, 47, 0
4, 39319, Note_on_c, 2, 71, 0
4, 39330, Note_on_c, 2, 76, 123
4, 39330, Note_on_c, 2, 52, 123
4, 39359, Note_on_c, 2, 52, 0
4, 39359, Note_on_c, 2, 76, 0
4, 39420, Note_on_c, 2, 76, 122
4, 39420, Note_on_c, 2, 52, 122
4, 39438, Note_on_c, 2, 52, 0
4, 39438, Note_on_c, 2, 76, 0
4, 39540, Note_on_c, 2, 76, 117
4, 39540, Note_on_c, 2, 52, 117
4, 39671, Note_on_c, 2, 52, 0
4, 39671, Note_on_c, 2, 76, 0
4, 39720, Note_on_c, 2, 76, 117
4, 39720, Note_on_c, 2, 52, 117
4, 39750, Note_on_c, 2, 73, 114
4, 39750, Note_on_c, 2, 49, 114
4, 39755, Note_on_c, 2, 52, 0
4, 39755, Note_on_c, 2, 76, 0
4, 39777, Note_on_c, 2, 73, 0
4, 39777, Note_on_c, 2, 49, 0
4, 39780, Note_on_c, 2, 67, 110
4, 39780, Note_on_c, 2, 43, 110
4, 39810, Note_on_c, 2, 68, 117
4, 39810, Note_on_c, 2, 44, 117
4, 39812, Note_on_c, 2, 43, 0
4, 39812, Note_on_c, 2, 67, 0
4, 39830, Note_on_c, 2, 68, 0
4, 39830, Note_on_c, 2, 44, 0
4, 39840, Note_on_c, 2, 76, 104
4, 39840, Note_on_c, 2, 52, 104
4, 39861, Note_on_c, 2, 52, 0
4, 39861, Note_on_c, 2, 76, 0
4, 39900, Note_on_c, 2, 76, 127
4, 39900, Note_on_c, 2, 52, 127
4, 39919, Note_on_c, 2, 52, 0
4, 39919, Note_on_c, 2, 76, 0
4, 40020, Note_on_c, 2, 76, 114
4, 40020, Note_on_c, 2, 52, 114
4, 40170, Note_on_c, 2, 52, 0
4, 40170, Note_on_c, 2, 76, 0
4, 40200, Note_on_c, 2, 73, 119
4, 40200, Note_on_c, 2, 49, 119
4, 40259, Note_on_c, 2, 49, 0
4, 40259, Note_on_c, 2, 73, 0
4, 40260, Note_on_c, 2, 71, 114
4, 40260, Note_on_c, 2, 47, 114
4, 40279, Note_on_c, 2, 47, 0
4, 40279, Note_on_c, 2, 71, 0
4, 40290, Note_on_c, 2, 76, 123
4, 40290, Note_on_c, 2, 52, 123
4, 40319, Note_on_c, 2, 52, 0
4, 40319, Note_on_c, 2, 76, 0
4, 40380, Note_on_c, 2, 76, 122
4, 40380, Note_on_c, 2, 52, 122
4, 40398, Note_on_c, 2, 52, 0
4, 40398, Note_on_c, 2, 76, 0
4, 40500, Note_on_c, 2, 76, 117
4, 40500, Note_on_c, 2, 52, 117
4, 40631, Note_on_c, 2, 52, 0
4, 40631, Note_on_c, 2, 76, 0
4, 40680, Note_on_c, 2, 76, 117
4, 40680, Note_on_c, 2, 52, 117
4, 40710, Note_on_c, 2, 73, 114
4, 40710, Note_on_c, 2, 49, 114
4, 40715, Note_on_c, 2, 52, 0
4, 40715, Note_on_c, 2, 76, 0
4, 40737, Note_on_c, 2, 73, 0
4, 40737, Note_on_c, 2, 49, 0
4, 40740, Note_on_c, 2, 67, 110
4, 40740, Note_on_c, 2, 43, 110
4, 40770, Note_on_c, 2, 68, 117
4, 40770, Note_on_c, 2, 44, 117
4, 40772, Note_on_c, 2, 43, 0
4, 40772, Note_on_c, 2, 67, 0
4, 40790, Note_on_c, 2, 68, 0
4, 40790, Note_on_c, 2, 44, 0
4, 40800, Note_on_c, 2, 76, 104
4, 40800, Note_on_c, 2, 52, 104
4, 40821, Note_on_c, 2, 52, 0
4, 40821, Note_on_c, 2, 76, 0
4, 40860, Note_on_c, 2, 76, 127
4, 40860, Note_on_c, 2, 52, 127
4, 40879, Note_on_c, 2, 52, 0
4, 40879, Note_on_c, 2, 76, 0
4, 40980, Note_on_c, 2, 76, 114
4, 40980, Note_on_c, 2, 52, 114
4, 41130, Note_on_c, 2, 52, 0
4, 41130, Note_on_c, 2, 76, 0
4, 41160, Note_on_c, 2, 73, 119
4, 41160, Note_on_c, 2, 49, 119
4, 41219, Note_on_c, 2, 49, 0
4, 41219, Note_on_c, 2, 73, 0
4, 41220, Note_on_c, 2, 71, 114
4, 41220, Note_on_c, 2, 47, 114
4, 41239, Note_on_c, 2, 47, 0
4, 41239, Note_on_c, 2, 71, 0
4, 41250, Note_on_c, 2, 76, 123
4, 41250, Note_on_c, 2, 52, 123
4, 41279, Note_on_c, 2, 52, 0
4, 41279, Note_on_c, 2, 76, 0
4, 41340, Note_on_c, 2, 76, 122
4, 41340, Note_on_c, 2, 52, 122
4, 41358, Note_on_c, 2, 52, 0
4, 41358, Note_on_c, 2, 76, 0
4, 41460, Note_on_c, 2, 76, 117
4, 41460, Note_on_c, 2, 52, 117
4, 41591, Note_on_c, 2, 52, 0
4, 41591, Note_on_c, 2, 76, 0
4, 41760, Note_on_c, 2, 69, 102
4, 41760, Note_on_c, 2, 64, 96
4, 42212, Note_on_c, 2, 69, 0
4, 42213, Note_on_c, 2, 64, 0
4, 42239, Note_on_c, 2, 71, 92
4, 42239, Note_on_c, 2, 66, 85
4, 42459, Note_on_c, 2, 66, 0
4, 42463, Note_on_c, 2, 71, 0
4, 42479, Note_on_c, 2, 71, 101
4, 42479, Note_on_c, 2, 66, 93
4, 42588, Note_on_c, 2, 66, 0
4, 42589, Note_on_c, 2, 71, 0
4, 42599, Note_on_c, 2, 66, 92
4, 42599, Note_on_c, 2, 71, 91
4, 42677, Note_on_c, 2, 66, 0
4, 42682, Note_on_c, 2, 71, 0
4, 42720, Note_on_c, 2, 76, 88
4, 42720, Note_on_c, 2, 67, 92
4, 42720, Note_on_c, 2, 72, 96
4, 43164, Note_on_c, 2, 67, 0
4, 43167, Note_on_c, 2, 72, 0
4, 43187, Note_on_c, 2, 76, 0
4, 43200, Note_on_c, 2, 69, 88
4, 43200, Note_on_c, 2, 78, 87
4, 43200, Note_on_c, 2, 74, 97
4, 43589, Note_on_c, 2, 69, 0
4, 43591, Note_on_c, 2, 78, 0
4, 43593, Note_on_c, 2, 74, 0
4, 43680, Note_on_c, 2, 79, 93
4, 43680, Note_on_c, 2, 74, 93
4, 43680, Note_on_c, 2, 69, 95
4, 44132, Note_on_c, 2, 69, 0
4, 44136, Note_on_c, 2, 74, 0
4, 44140, Note_on_c, 2, 79, 0
4, 44160, Note_on_c, 2, 69, 92
4, 44160, Note_on_c, 2, 78, 82
4, 44160, Note_on_c, 2, 74, 92
4, 44624, Note_on_c, 2, 69, 0
4, 44629, Note_on_c, 2, 78, 0
4, 44630, Note_on_c, 2, 74, 0
4, 44640, Note_on_c, 2, 67, 105
4, 44640, Note_on_c, 2, 74, 105
4, 44640, Note_on_c, 2, 79, 105
4, 45440, Note_on_c, 2, 74, 0
4, 45461, Note_on_c, 2, 79, 0
4, 45461, Note_on_c, 2, 67, 0
4, 45480, Note_on_c, 2, 62, 111
4, 45480, Note_on_c, 2, 74, 111
4, 45502, Note_on_c, 2, 74, 0
4, 45502, Note_on_c, 2, 62, 0
4, 45510, Note_on_c, 2, 64, 111
4, 45510, Note_on_c, 2, 76, 111
4, 45532, Note_on_c, 2, 76, 0
4, 45532, Note_on_c, 2, 64, 0
4, 45540, Note_on_c, 2, 67, 108
4, 45540, Note_on_c, 2, 79, 108
4, 45565, Note_on_c, 2, 79, 0
4, 45565, Note_on_c, 2, 67, 0
4, 45600, Note_on_c, 2, 64, 99
4, 45600, Note_on_c, 2, 71, 103
4, 45600, Note_on_c, 2, 76, 99
4, 45667, Note_on_c, 2, 71, 0
4, 45669, Note_on_c, 2, 76, 0
4, 45669, Note_on_c, 2, 64, 0
4, 45690, Note_on_c, 2, 64, 101
4, 45690, Note_on_c, 2, 71, 102
4, 45690, Note_on_c, 2, 76, 101
4, 45755, Note_on_c, 2, 71, 0
4, 45762, Note_on_c, 2, 76, 0
4, 45762, Note_on_c, 2, 64, 0
4, 45780, Note_on_c, 2, 62, 97
4, 45780, Note_on_c, 2, 69, 96
4, 45780, Note_on_c, 2, 74, 97
4, 46068, Note_on_c, 2, 69, 0
4, 46072, Note_on_c, 2, 74, 0
4, 46072, Note_on_c, 2, 62, 0
4, 46080, Note_on_c, 2, 60, 125
4, 46080, Note_on_c, 2, 67, 95
4, 46080, Note_on_c, 2, 76, 103
4, 46148, Note_on_c, 2, 67, 0
4, 46148, Note_on_c, 2, 60, 0
4, 46150, Note_on_c, 2, 76, 0
4, 46170, Note_on_c, 2, 60, 127
4, 46170, Note_on_c, 2, 67, 98
4, 46170, Note_on_c, 2, 76, 101
4, 46242, Note_on_c, 2, 67, 0
4, 46242, Note_on_c, 2, 60, 0
4, 46248, Note_on_c, 2, 76, 0
4, 46260, Note_on_c, 2, 67, 104
4, 46260, Note_on_c, 2, 74, 93
4, 46539, Note_on_c, 2, 67, 0
4, 46542, Note_on_c, 2, 74, 0
4, 46560, Note_on_c, 2, 64, 99
4, 46560, Note_on_c, 2, 76, 99
4, 47060, Note_on_c, 2, 76, 0
4, 47060, Note_on_c, 2, 64, 0
4, 47100, Note_on_c, 2, 64, 127
4, 47100, Note_on_c, 2, 76, 127
4, 47122, Note_on_c, 2, 76, 0
4, 47122, Note_on_c, 2, 64, 0
4, 47130, Note_on_c, 2, 62, 98
4, 47130, Note_on_c, 2, 74, 98
4, 47154, Note_on_c, 2, 74, 0
4, 47154, Note_on_c, 2, 62, 0
4, 47190, Note_on_c, 2, 64, 122
4, 47190, Note_on_c, 2, 76, 122
4, 47212, Note_on_c, 2, 76, 0
4, 47212, Note_on_c, 2, 64, 0
4, 47280, Note_on_c, 2, 64, 117
4, 47280, Note_on_c, 2, 76, 117
4, 47387, Note_on_c, 2, 76, 0
4, 47387, Note_on_c, 2, 64, 0
4, 47400, Note_on_c, 2, 67, 108
4, 47400, Note_on_c, 2, 79, 108
4, 47513, Note_on_c, 2, 79, 0
4, 47513, Note_on_c, 2, 67, 0
4, 47520, Note_on_c, 2, 57, 102
4, 47520, Note_on_c, 2, 69, 102
4, 47610, Note_on_c, 2, 64, 114
4, 47610, Note_on_c, 2, 76, 114
4, 47693, Note_on_c, 2, 69, 0
4, 47695, Note_on_c, 2, 57, 0
4, 47696, Note_on_c, 2, 76, 0
4, 47698, Note_on_c, 2, 64, 0
4, 47701, Note_on_c, 2, 72, 127
4, 47701, Note_on_c, 2, 60, 127
4, 47727, Note_on_c, 2, 72, 0
4, 47730, Note_on_c, 2, 60, 0
4, 47760, Note_on_c, 2, 59, 104
4, 47760, Note_on_c, 2, 71, 104
4, 47850, Note_on_c, 2, 67, 112
4, 47850, Note_on_c, 2, 79, 112
4, 47986, Note_on_c, 2, 71, 0
4, 47986, Note_on_c, 2, 59, 0
4, 47990, Note_on_c, 2, 67, 0
4, 47990, Note_on_c, 2, 79, 0
4, 48000, Note_on_c, 2, 60, 99
4, 48000, Note_on_c, 2, 60, 0
4, 48000, Note_on_c, 2, 72, 99
4, 48000, Note_on_c, 2, 60, 99
4, 48090, Note_on_c, 2, 67, 114
4, 48090, Note_on_c, 2, 79, 114
4, 48206, Note_on_c, 2, 60, 0
4, 48230, Note_on_c, 2, 72, 0
4, 48230, Note_on_c, 2, 67, 0
4, 48230, Note_on_c, 2, 79, 0
4, 48240, Note_on_c, 2, 67, 127
4, 48240, Note_on_c, 2, 79, 127
4, 48273, Note_on_c, 2, 79, 0
4, 48281, Note_on_c, 2, 67, 0
4, 48360, Note_on_c, 2, 69, 127
4, 48360, Note_on_c, 2, 81, 127
4, 48393, Note_on_c, 2, 81, 0
4, 48401, Note_on_c, 2, 69, 0
4, 48480, Note_on_c, 2, 74, 108
4, 48480, Note_on_c, 2, 79, 108
4, 48978, Note_on_c, 2, 79, 0
4, 48978, Note_on_c, 2, 74, 0
4, 49020, Note_on_c, 2, 74, 127
4, 49020, Note_on_c, 2, 79, 127
4, 49041, Note_on_c, 2, 79, 0
4, 49041, Note_on_c, 2, 74, 0
4, 49110, Note_on_c, 2, 74, 127
4, 49110, Note_on_c, 2, 79, 127
4, 49132, Note_on_c, 2, 79, 0
4, 49132, Note_on_c, 2, 74, 0
4, 49200, Note_on_c, 2, 74, 117
4, 49200, Note_on_c, 2, 79, 117
4, 49252, Note_on_c, 2, 79, 0
4, 49252, Note_on_c, 2, 74, 0
4, 49260, Note_on_c, 2, 76, 108
4, 49260, Note_on_c, 2, 79, 108
4, 49280, Note_on_c, 2, 79, 0
4, 49280, Note_on_c, 2, 76, 0
4, 49320, Note_on_c, 2, 74, 117
4, 49320, Note_on_c, 2, 79, 117
4, 49370, Note_on_c, 2, 79, 0
4, 49370, Note_on_c, 2, 74, 0
4, 49380, Note_on_c, 2, 76, 108
4, 49380, Note_on_c, 2, 79, 108
4, 49418, Note_on_c, 2, 79, 0
4, 49418, Note_on_c, 2, 76, 0
4, 49440, Note_on_c, 2, 71, 106
4, 49440, Note_on_c, 2, 76, 108
4, 49501, Note_on_c, 2, 71, 0
4, 49504, Note_on_c, 2, 76, 0
4, 49530, Note_on_c, 2, 71, 108
4, 49530, Note_on_c, 2, 76, 106
4, 49590, Note_on_c, 2, 71, 0
4, 49591, Note_on_c, 2, 76, 0
4, 49620, Note_on_c, 2, 69, 104
4, 49620, Note_on_c, 2, 73, 46
4, 49620, Note_on_c, 2, 74, 104
4, 49622, Note_on_c, 2, 73, 0
4, 49898, Note_on_c, 2, 74, 0
4, 49898, Note_on_c, 2, 69, 0
4, 49920, Note_on_c, 2, 67, 96
4, 49920, Note_on_c, 2, 76, 106
4, 49988, Note_on_c, 2, 67, 0
4, 49992, Note_on_c, 2, 76, 0
4, 50010, Note_on_c, 2, 67, 97
4, 50010, Note_on_c, 2, 76, 98
4, 50069, Note_on_c, 2, 67, 0
4, 50080, Note_on_c, 2, 76, 0
4, 50100, Note_on_c, 2, 67, 101
4, 50100, Note_on_c, 2, 74, 104
4, 50201, Note_on_c, 2, 67, 0
4, 50202, Note_on_c, 2, 74, 0
4, 50220, Note_on_c, 2, 76, 122
4, 50250, Note_on_c, 2, 76, 0
4, 50280, Note_on_c, 2, 74, 108
4, 50304, Note_on_c, 2, 74, 0
4, 50310, Note_on_c, 2, 76, 111
4, 50336, Note_on_c, 2, 76, 0
4, 50340, Note_on_c, 2, 79, 117
4, 50382, Note_on_c, 2, 79, 0
4, 50460, Note_on_c, 2, 79, 107
4, 50460, Note_on_c, 2, 67, 115
4, 50485, Note_on_c, 2, 79, 0
4, 50486, Note_on_c, 2, 67, 0
4, 50580, Note_on_c, 2, 67, 104
4, 50580, Note_on_c, 2, 79, 107
4, 50606, Note_on_c, 2, 79, 0
4, 50608, Note_on_c, 2, 67, 0
4, 50700, Note_on_c, 2, 67, 99
4, 50700, Note_on_c, 2, 79, 112
4, 50725, Note_on_c, 2, 79, 0
4, 50729, Note_on_c, 2, 67, 0
4, 50760, Note_on_c, 2, 62, 104
4, 50760, Note_on_c, 2, 74, 99
4, 50779, Note_on_c, 2, 74, 0
4, 50782, Note_on_c, 2, 62, 0
4, 50790, Note_on_c, 2, 64, 107
4, 50790, Note_on_c, 2, 76, 102
4, 50808, Note_on_c, 2, 76, 0
4, 50811, Note_on_c, 2, 64, 0
4, 50820, Note_on_c, 2, 67, 112
4, 50820, Note_on_c, 2, 79, 112
4, 50843, Note_on_c, 2, 67, 0
4, 50844, Note_on_c, 2, 79, 0
4, 50940, Note_on_c, 2, 79, 112
4, 50940, Note_on_c, 2, 67, 112
4, 50963, Note_on_c, 2, 67, 0
4, 50963, Note_on_c, 2, 79, 0
4, 51060, Note_on_c, 2, 79, 107
4, 51060, Note_on_c, 2, 67, 107
4, 51082, Note_on_c, 2, 79, 0
4, 51084, Note_on_c, 2, 67, 0
4, 51180, Note_on_c, 2, 79, 107
4, 51180, Note_on_c, 2, 67, 104
4, 51201, Note_on_c, 2, 79, 0
4, 51208, Note_on_c, 2, 67, 0
4, 51240, Note_on_c, 2, 74, 92
4, 51240, Note_on_c, 2, 62, 107
4, 51259, Note_on_c, 2, 74, 0
4, 51266, Note_on_c, 2, 62, 0
4, 51270, Note_on_c, 2, 64, 92
4, 51270, Note_on_c, 2, 76, 112
4, 51287, Note_on_c, 2, 76, 0
4, 51289, Note_on_c, 2, 64, 0
4, 51300, Note_on_c, 2, 67, 112
4, 51300, Note_on_c, 2, 79, 112
4, 51324, Note_on_c, 2, 67, 0
4, 51325, Note_on_c, 2, 79, 0
4, 51420, Note_on_c, 2, 79, 107
4, 51420, Note_on_c, 2, 67, 115
4, 51445, Note_on_c, 2, 79, 0
4, 51446, Note_on_c, 2, 67, 0
4, 51450, Note_on_c, 2, 79, 107
4, 51450, Note_on_c, 2, 67, 115
4, 51475, Note_on_c, 2, 79, 0
4, 51476, Note_on_c, 2, 67, 0
4, 51540, Note_on_c, 2, 67, 104
4, 51540, Note_on_c, 2, 79, 107
4, 51566, Note_on_c, 2, 79, 0
4, 51568, Note_on_c, 2, 67, 0
4, 51660, Note_on_c, 2, 67, 99
4, 51660, Note_on_c, 2, 79, 112
4, 51685, Note_on_c, 2, 79, 0
4, 51689, Note_on_c, 2, 67, 0
4, 51720, Note_on_c, 2, 62, 104
4, 51720, Note_on_c, 2, 74, 99
4, 51739, Note_on_c, 2, 74, 0
4, 51742, Note_on_c, 2, 62, 0
4, 51750, Note_on_c, 2, 64, 107
4, 51750, Note_on_c, 2, 76, 102
4, 51768, Note_on_c, 2, 76, 0
4, 51771, Note_on_c, 2, 64, 0
4, 51780, Note_on_c, 2, 67, 112
4, 51780, Note_on_c, 2, 79, 112
4, 51803, Note_on_c, 2, 67, 0
4, 51804, Note_on_c, 2, 79, 0
4, 51900, Note_on_c, 2, 79, 112
4, 51900, Note_on_c, 2, 67, 112
4, 51923, Note_on_c, 2, 67, 0
4, 51923, Note_on_c, 2, 79, 0
4, 51930, Note_on_c, 2, 79, 112
4, 51930, Note_on_c, 2, 67, 112
4, 51953, Note_on_c, 2, 67, 0
4, 51953, Note_on_c, 2, 79, 0
4, 52020, Note_on_c, 2, 79, 107
4, 52020, Note_on_c, 2, 67, 107
4, 52042, Note_on_c, 2, 79, 0
4, 52044, Note_on_c, 2, 67, 0
4, 52140, Note_on_c, 2, 79, 107
4, 52140, Note_on_c, 2, 67, 104
4, 52161, Note_on_c, 2, 79, 0
4, 52168, Note_on_c, 2, 67, 0
4, 52200, Note_on_c, 2, 74, 92
4, 52200, Note_on_c, 2, 62, 107
4, 52219, Note_on_c, 2, 74, 0
4, 52226, Note_on_c, 2, 62, 0
4, 52230, Note_on_c, 2, 64, 92
4, 52230, Note_on_c, 2, 76, 112
4, 52247, Note_on_c, 2, 76, 0
4, 52249, Note_on_c, 2, 64, 0
4, 52260, Note_on_c, 2, 67, 112
4, 52260, Note_on_c, 2, 79, 112
4, 52284, Note_on_c, 2, 67, 0
4, 52285, Note_on_c, 2, 79, 0
4, 52380, Note_on_c, 2, 79, 107
4, 52380, Note_on_c, 2, 67, 115
4, 52405, Note_on_c, 2, 79, 0
4, 52406, Note_on_c, 2, 67, 0
4, 52410, Note_on_c, 2, 79, 107
4, 52410, Note_on_c, 2, 67, 115
4, 52435, Note_on_c, 2, 79, 0
4, 52436, Note_on_c, 2, 67, 0
4, 52500, Note_on_c, 2, 67, 104
4, 52500, Note_on_c, 2, 79, 107
4, 52526, Note_on_c, 2, 79, 0
4, 52528, Note_on_c, 2, 67, 0
4, 52620, Note_on_c, 2, 67, 99
4, 52620, Note_on_c, 2, 79, 112
4, 52645, Note_on_c, 2, 79, 0
4, 52649, Note_on_c, 2, 67, 0
4, 52680, Note_on_c, 2, 62, 104
4, 52680, Note_on_c, 2, 74, 99
4, 52699, Note_on_c, 2, 74, 0
4, 52702, Note_on_c, 2, 62, 0
4, 52710, Note_on_c, 2, 64, 107
4, 52710, Note_on_c, 2, 76, 102
4, 52728, Note_on_c, 2, 76, 0
4, 52731, Note_on_c, 2, 64, 0
4, 52740, Note_on_c, 2, 67, 112
4, 52740, Note_on_c, 2, 79, 112
4, 52763, Note_on_c, 2, 67, 0
4, 52764, Note_on_c, 2, 79, 0
4, 52860, Note_on_c, 2, 79, 112
4, 52860, Note_on_c, 2, 67, 112
4, 52883, Note_on_c, 2, 67, 0
4, 52883, Note_on_c, 2, 79, 0
4, 52890, Note_on_c, 2, 79, 112
4, 52890, Note_on_c, 2, 67, 112
4, 52913, Note_on_c, 2, 67, 0
4, 52913, Note_on_c, 2, 79, 0
4, 52980, Note_on_c, 2, 79, 107
4, 52980, Note_on_c, 2, 67, 107
4, 53002, Note_on_c, 2, 79, 0
4, 53004, Note_on_c, 2, 67, 0
4, 53100, Note_on_c, 2, 79, 107
4, 53100, Note_on_c, 2, 67, 104
4, 53121, Note_on_c, 2, 79, 0
4, 53128, Note_on_c, 2, 67, 0
4, 53160, Note_on_c, 2, 74, 92
4, 53160, Note_on_c, 2, 62, 107
4, 53179, Note_on_c, 2, 74, 0
4, 53186, Note_on_c, 2, 62, 0
4, 53190, Note_on_c, 2, 64, 92
4, 53190, Note_on_c, 2, 76, 112
4, 53207, Note_on_c, 2, 76, 0
4, 53209, Note_on_c, 2, 64, 0
4, 53220, Note_on_c, 2, 67, 112
4, 53220, Note_on_c, 2, 79, 112
4, 53244, Note_on_c, 2, 67, 0
4, 53245, Note_on_c, 2, 79, 0
4, 53340, Note_on_c, 2, 79, 107
4, 53340, Note_on_c, 2, 67, 115
4, 53365, Note_on_c, 2, 79, 0
4, 53366, Note_on_c, 2, 67, 0
4, 53370, Note_on_c, 2, 79, 107
4, 53370, Note_on_c, 2, 67, 115
4, 53395, Note_on_c, 2, 79, 0
4, 53396, Note_on_c, 2, 67, 0
4, 53460, Note_on_c, 2, 67, 104
4, 53460, Note_on_c, 2, 79, 107
4, 53486, Note_on_c, 2, 79, 0
4, 53488, Note_on_c, 2, 67, 0
4, 53580, Note_on_c, 2, 67, 99
4, 53580, Note_on_c, 2, 79, 112
4, 53605, Note_on_c, 2, 79, 0
4, 53609, Note_on_c, 2, 67, 0
4, 53640, Note_on_c, 2, 62, 104
4, 53640, Note_on_c, 2, 74, 99
4, 53659, Note_on_c, 2, 74, 0
4, 53662, Note_on_c, 2, 62, 0
4, 53670, Note_on_c, 2, 64, 107
4, 53670, Note_on_c, 2, 76, 102
4, 53688, Note_on_c, 2, 76, 0
4, 53691, Note_on_c, 2, 64, 0
4, 53700, Note_on_c, 2, 67, 112
4, 53700, Note_on_c, 2, 79, 112
4, 53723, Note_on_c, 2, 67, 0
4, 53724, Note_on_c, 2, 79, 0
4, 53820, Note_on_c, 2, 79, 112
4, 53820, Note_on_c, 2, 67, 112
4, 53843, Note_on_c, 2, 67, 0
4, 53843, Note_on_c, 2, 79, 0
4, 53850, Note_on_c, 2, 79, 112
4, 53850, Note_on_c, 2, 67, 112
4, 53873, Note_on_c, 2, 67, 0
4, 53873, Note_on_c, 2, 79, 0
4, 53940, Note_on_c, 2, 79, 107
4, 53940, Note_on_c, 2, 67, 107
4, 53962, Note_on_c, 2, 79, 0
4, 53964, Note_on_c, 2, 67, 0
4, 54060, Note_on_c, 2, 79, 107
4, 54060, Note_on_c, 2, 67, 104
4, 54081, Note_on_c, 2, 79, 0
4, 54088, Note_on_c, 2, 67, 0
4, 54120, Note_on_c, 2, 74, 92
4, 54120, Note_on_c, 2, 62, 107
4, 54139, Note_on_c, 2, 74, 0
4, 54146, Note_on_c, 2, 62, 0
4, 54150, Note_on_c, 2, 64, 92
4, 54150, Note_on_c, 2, 76, 112
4, 54167, Note_on_c, 2, 76, 0
4, 54169, Note_on_c, 2, 64, 0
4, 54180, Note_on_c, 2, 67, 112
4, 54180, Note_on_c, 2, 79, 112
4, 54204, Note_on_c, 2, 67, 0
4, 54205, Note_on_c, 2, 79, 0
4, 54300, Note_on_c, 2, 79, 107
4, 54300, Note_on_c, 2, 67, 115
4, 54325, Note_on_c, 2, 79, 0
4, 54326, Note_on_c, 2, 67, 0
4, 54330, Note_on_c, 2, 79, 107
4, 54330, Note_on_c, 2, 67, 115
4, 54355, Note_on_c, 2, 79, 0
4, 54356, Note_on_c, 2, 67, 0
4, 54420, Note_on_c, 2, 67, 104
4, 54420, Note_on_c, 2, 79, 107
4, 54446, Note_on_c, 2, 79, 0
4, 54448, Note_on_c, 2, 67, 0
4, 54540, Note_on_c, 2, 67, 99
4, 54540, Note_on_c, 2, 79, 112
4, 54565, Note_on_c, 2, 79, 0
4, 54569, Note_on_c, 2, 67, 0
4, 54600, Note_on_c, 2, 62, 104
4, 54600, Note_on_c, 2, 74, 99
4, 54619, Note_on_c, 2, 74, 0
4, 54622, Note_on_c, 2, 62, 0
4, 54630, Note_on_c, 2, 64, 107
4, 54630, Note_on_c, 2, 76, 102
4, 54648, Note_on_c, 2, 76, 0
4, 54651, Note_on_c, 2, 64, 0
4, 54660, Note_on_c, 2, 67, 112
4, 54660, Note_on_c, 2, 79, 112
4, 54683, Note_on_c, 2, 67, 0
4, 54684, Note_on_c, 2, 79, 0
4, 54780, Note_on_c, 2, 79, 112
4, 54780, Note_on_c, 2, 67, 112
4, 54803, Note_on_c, 2, 67, 0
4, 54803, Note_on_c, 2, 79, 0
4, 54810, Note_on_c, 2, 79, 112
4, 54810, Note_on_c, 2, 67, 112
4, 54833, Note_on_c, 2, 67, 0
4, 54833, Note_on_c, 2, 79, 0
4, 54900, Note_on_c, 2, 79, 107
4, 54900, Note_on_c, 2, 67, 107
4, 54922, Note_on_c, 2, 79, 0
4, 54924, Note_on_c, 2, 67, 0
4, 55020, Note_on_c, 2, 79, 107
4, 55020, Note_on_c, 2, 67, 104
4, 55041, Note_on_c, 2, 79, 0
4, 55048, Note_on_c, 2, 67, 0
4, 55080, Note_on_c, 2, 74, 92
4, 55080, Note_on_c, 2, 62, 107
4, 55099, Note_on_c, 2, 74, 0
4, 55106, Note_on_c, 2, 62, 0
4, 55110, Note_on_c, 2, 64, 92
4, 55110, Note_on_c, 2, 76, 112
4, 55127, Note_on_c, 2, 76, 0
4, 55129, Note_on_c, 2, 64, 0
4, 55140, Note_on_c, 2, 67, 112
4, 55140, Note_on_c, 2, 79, 112
4, 55164, Note_on_c, 2, 67, 0
4, 55165, Note_on_c, 2, 79, 0
4, 55260, Note_on_c, 2, 79, 107
4, 55260, Note_on_c, 2, 67, 115
4, 55285, Note_on_c, 2, 79, 0
4, 55286, Note_on_c, 2, 67, 0
4, 55290, Note_on_c, 2, 79, 107
4, 55290, Note_on_c, 2, 67, 115
4, 55315, Note_on_c, 2, 79, 0
4, 55316, Note_on_c, 2, 67, 0
4, 55380, Note_on_c, 2, 67, 104
4, 55380, Note_on_c, 2, 79, 107
4, 55406, Note_on_c, 2, 79, 0
4, 55408, Note_on_c, 2, 67, 0
4, 55500, Note_on_c, 2, 67, 99
4, 55500, Note_on_c, 2, 79, 112
4, 55525, Note_on_c, 2, 79, 0
4, 55529, Note_on_c, 2, 67, 0
4, 55560, Note_on_c, 2, 62, 104
4, 55560, Note_on_c, 2, 74, 99
4, 55579, Note_on_c, 2, 74, 0
4, 55582, Note_on_c, 2, 62, 0
4, 55590, Note_on_c, 2, 64, 107
4, 55590, Note_on_c, 2, 76, 102
4, 55608, Note_on_c, 2, 76, 0
4, 55611, Note_on_c, 2, 64, 0
4, 55620, Note_on_c, 2, 67, 112
4, 55620, Note_on_c, 2, 79, 112
4, 55643, Note_on_c, 2, 67, 0
4, 55644, Note_on_c, 2, 79, 0
4, 55740, Note_on_c, 2, 79, 112
4, 55740, Note_on_c, 2, 67, 112
4, 55763, Note_on_c, 2, 67, 0
4, 55763, Note_on_c, 2, 79, 0
4, 55770, Note_on_c, 2, 79, 112
4, 55770, Note_on_c, 2, 67, 112
4, 55793, Note_on_c, 2, 67, 0
4, 55793, Note_on_c, 2, 79, 0
4, 55860, Note_on_c, 2, 79, 107
4, 55860, Note_on_c, 2, 67, 107
4, 55882, Note_on_c, 2, 79, 0
4, 55884, Note_on_c, 2, 67, 0
4, 55980, Note_on_c, 2, 79, 107
4, 55980, Note_on_c, 2, 67, 104
4, 56001, Note_on_c, 2, 79, 0
4, 56008, Note_on_c, 2, 67, 0
4, 56040, Note_on_c, 2, 74, 92
4, 56040, Note_on_c, 2, 62, 107
4, 56059, Note_on_c, 2, 74, 0
4, 56066, Note_on_c, 2, 62, 0
4, 56070, Note_on_c, 2, 64, 92
4, 56070, Note_on_c, 2, 76, 112
4, 56087, Note_on_c, 2, 76, 0
4, 56089, Note_on_c, 2, 64, 0
4, 56100, Note_on_c, 2, 67, 112
4, 56100, Note_on_c, 2, 79, 112
4, 56124, Note_on_c, 2, 67, 0
4, 56125, Note_on_c, 2, 79, 0
4, 56220, Note_on_c, 2, 79, 107
4, 56220, Note_on_c, 2, 67, 115
4, 56245, Note_on_c, 2, 79, 0
4, 56246, Note_on_c, 2, 67, 0
4, 56250, Note_on_c, 2, 79, 107
4, 56250, Note_on_c, 2, 67, 115
4, 56275, Note_on_c, 2, 79, 0
4, 56276, Note_on_c, 2, 67, 0
4, 56340, Note_on_c, 2, 67, 104
4, 56340, Note_on_c, 2, 79, 107
4, 56366, Note_on_c, 2, 79, 0
4, 56368, Note_on_c, 2, 67, 0
4, 56460, Note_on_c, 2, 67, 99
4, 56460, Note_on_c, 2, 79, 112
4, 56485, Note_on_c, 2, 79, 0
4, 56489, Note_on_c, 2, 67, 0
4, 56520, Note_on_c, 2, 62, 104
4, 56520, Note_on_c, 2, 74, 99
4, 56539, Note_on_c, 2, 74, 0
4, 56542, Note_on_c, 2, 62, 0
4, 56550, Note_on_c, 2, 64, 107
4, 56550, Note_on_c, 2, 76, 102
4, 56568, Note_on_c, 2, 76, 0
4, 56571, Note_on_c, 2, 64, 0
4, 56580, Note_on_c, 2, 67, 112
4, 56580, Note_on_c, 2, 79, 112
4, 56603, Note_on_c, 2, 67, 0
4, 56604, Note_on_c, 2, 79, 0
4, 56700, Note_on_c, 2, 79, 112
4, 56700, Note_on_c, 2, 67, 112
4, 56723, Note_on_c, 2, 67, 0
4, 56723, Note_on_c, 2, 79, 0
4, 56730, Note_on_c, 2, 79, 112
4, 56730, Note_on_c, 2, 67, 112
4, 56753, Note_on_c, 2, 67, 0
4, 56753, Note_on_c, 2, 79, 0
4, 56820, Note_on_c, 2, 79, 107
4, 56820, Note_on_c, 2, 67, 107
4, 56842, Note_on_c, 2, 79, 0
4, 56844, Note_on_c, 2, 67, 0
4, 56940, Note_on_c, 2, 79, 107
4, 56940, Note_on_c, 2, 67, 104
4, 56961, Note_on_c, 2, 79, 0
4, 56968, Note_on_c, 2, 67, 0
4, 57000, Note_on_c, 2, 74, 92
4, 57000, Note_on_c, 2, 62, 107
4, 57019, Note_on_c, 2, 74, 0
4, 57026, Note_on_c, 2, 62, 0
4, 57030, Note_on_c, 2, 64, 92
4, 57030, Note_on_c, 2, 76, 112
4, 57047, Note_on_c, 2, 76, 0
4, 57049, Note_on_c, 2, 64, 0
4, 57060, Note_on_c, 2, 67, 112
4, 57060, Note_on_c, 2, 79, 112
4, 57084, Note_on_c, 2, 67, 0
4, 57085, Note_on_c, 2, 79, 0
4, 57180, Note_on_c, 2, 79, 107
4, 57180, Note_on_c, 2, 67, 115
4, 57205, Note_on_c, 2, 79, 0
4, 57206, Note_on_c, 2, 67, 0
4, 57210, Note_on_c, 2, 79, 107
4, 57210, Note_on_c, 2, 67, 115
4, 57235, Note_on_c, 2, 79, 0
4, 57236, Note_on_c, 2, 67, 0
4, 57300, Note_on_c, 2, 67, 104
4, 57300, Note_on_c, 2, 79, 107
4, 57326, Note_on_c, 2, 79, 0
4, 57328, Note_on_c, 2, 67, 0
4, 57420, Note_on_c, 2, 67, 99
4, 57420, Note_on_c, 2, 79, 112
4, 57445, Note_on_c, 2, 79, 0
4, 57449, Note_on_c, 2, 67, 0
4, 57480, Note_on_c, 2, 62, 104
4, 57480, Note_on_c, 2, 74, 99
4, 57499, Note_on_c, 2, 74, 0
4, 57502, Note_on_c, 2, 62, 0
4, 57510, Note_on_c, 2, 64, 107
4, 57510, Note_on_c, 2, 76, 102
4, 57528, Note_on_c, 2, 76, 0
4, 57531, Note_on_c, 2, 64, 0
4, 57540, Note_on_c, 2, 67, 112
4, 57540, Note_on_c, 2, 79, 112
4, 57563, Note_on_c, 2, 67, 0
4, 57564, Note_on_c, 2, 79, 0
4, 57660, Note_on_c, 2, 79, 112
4, 57660, Note_on_c, 2, 67, 112
4, 57683, Note_on_c, 2, 67, 0
4, 57683, Note_on_c, 2, 79, 0
4, 57690, Note_on_c, 2, 79, 112
4, 57690, Note_on_c, 2, 67, 112
4, 57713, Note_on_c, 2, 67, 0
4, 57713, Note_on_c, 2, 79, 0
4, 57780, Note_on_c, 2, 79, 107
4, 57780, Note_on_c, 2, 67, 107
4, 57802, Note_on_c, 2, 79, 0
4, 57804, Note_on_c, 2, 67, 0
4, 57900, Note_on_c, 2, 79, 107
4, 57900, Note_on_c, 2, 67, 104
4, 57921, Note_on_c, 2, 79, 0
4, 57928, Note_on_c, 2, 67, 0
4, 57960, Note_on_c, 2, 74, 92
4, 57960, Note_on_c, 2, 62, 107
4, 57979, Note_on_c, 2, 74, 0
4, 57986, Note_on_c, 2, 62, 0
4, 57990, Note_on_c, 2, 64, 92
4, 57990, Note_on_c, 2, 76, 112
4, 58007, Note_on_c, 2, 76, 0
4, 58009, Note_on_c, 2, 64, 0
4, 58020, Note_on_c, 2, 67, 112
4, 58020, Note_on_c, 2, 79, 112
4, 58044, Note_on_c, 2, 67, 0
4, 58045, Note_on_c, 2, 79, 0
4, 58045, End_track
5, 0, Start_track
5, 0, MIDI_port, 0
5, 128, Control_c, 3, 121, 0
5, 130, Control_c, 3, 100, 0
5, 132, Control_c, 3, 101, 0
5, 133, Control_c, 3, 6, 2
5, 134, Control_c, 3, 91, 95
5, 135, Control_c, 3, 93, 50
5, 137, Program_c, 3, 73
5, 138, Control_c, 3, 7, 100
5, 138, Control_c, 3, 10, 64
5, 139, Control_c, 3, 1, 0
5, 140, Control_c, 3, 11, 127
5, 1401, Note_on_c, 3, 86, 127
5, 1401, Lyric_t, "\\...."
5, 1401, Lyric_t, "/Ouh! "
5, 1401, Lyric_t, "\015"
5, 1649, Control_c, 3, 1, 8
5, 1650, Control_c, 3, 1, 10
5, 1650, Control_c, 3, 1, 12
5, 1652, Control_c, 3, 1, 15
5, 1652, Control_c, 3, 1, 17
5, 1653, Control_c, 3, 1, 19
5, 1654, Control_c, 3, 1, 21
5, 1655, Control_c, 3, 1, 24
5, 1656, Control_c, 3, 1, 26
5, 1656, Control_c, 3, 1, 29
5, 1657, Control_c, 3, 1, 31
5, 1658, Control_c, 3, 1, 34
5, 1659, Control_c, 3, 1, 35
5, 1660, Control_c, 3, 1, 37
5, 1661, Control_c, 3, 1, 39
5, 1661, Control_c, 3, 1, 41
5, 1662, Control_c, 3, 1, 43
5, 1663, Control_c, 3, 1, 44
5, 1664, Control_c, 3, 1, 46
5, 1665, Control_c, 3, 1, 47
5, 1665, Control_c, 3, 1, 49
5, 1666, Control_c, 3, 1, 51
5, 1667, Control_c, 3, 1, 53
5, 1668, Control_c, 3, 1, 55
5, 1669, Control_c, 3, 1, 56
5, 1670, Control_c, 3, 1, 58
5, 1670, Control_c, 3, 1, 60
5, 1671, Control_c, 3, 1, 62
5, 1672, Control_c, 3, 1, 64
5, 1673, Control_c, 3, 1, 66
5, 1674, Control_c, 3, 1, 68
5, 1675, Control_c, 3, 1, 71
5, 1675, Control_c, 3, 1, 73
5, 1676, Control_c, 3, 1, 75
5, 1677, Control_c, 3, 1, 77
5, 1678, Control_c, 3, 1, 79
5, 1679, Control_c, 3, 1, 82
5, 1680, Control_c, 3, 1, 84
5, 1680, Control_c, 3, 1, 85
5, 1681, Control_c, 3, 1, 87
5, 1682, Control_c, 3, 1, 89
5, 1683, Control_c, 3, 1, 90
5, 1684, Control_c, 3, 1, 91
5, 1685, Control_c, 3, 1, 92
5, 1686, Control_c, 3, 1, 93
5, 1689, Control_c, 3, 1, 94
5, 1692, Control_c, 3, 1, 93
5, 1693, Control_c, 3, 1, 92
5, 1694, Control_c, 3, 1, 91
5, 1695, Control_c, 3, 1, 89
5, 1695, Control_c, 3, 1, 87
5, 1696, Control_c, 3, 1, 85
5, 1697, Control_c, 3, 1, 82
5, 1698, Control_c, 3, 1, 78
5, 1699, Control_c, 3, 1, 74
5, 1700, Control_c, 3, 1, 70
5, 1700, Control_c, 3, 1, 65
5, 1701, Control_c, 3, 1, 59
5, 1702, Control_c, 3, 1, 53
5, 1703, Control_c, 3, 1, 46
5, 1704, Control_c, 3, 1, 39
5, 1705, Control_c, 3, 1, 32
5, 1705, Control_c, 3, 1, 25
5, 1706, Control_c, 3, 1, 17
5, 1707, Control_c, 3, 1, 11
5, 1708, Control_c, 3, 1, 5
5, 1709, Note_on_c, 3, 84, 123
5, 1709, Control_c, 3, 1, 0
5, 1718, Note_on_c, 3, 86, 0
5, 1735, Note_on_c, 3, 84, 0
5, 1736, Note_on_c, 3, 81, 111
5, 1768, Note_on_c, 3, 80, 124
5, 1774, Note_on_c, 3, 81, 0
5, 1799, Note_on_c, 3, 79, 121
5, 1806, Note_on_c, 3, 80, 0
5, 1832, Note_on_c, 3, 77, 127
5, 1842, Note_on_c, 3, 79, 0
5, 1861, Note_on_c, 3, 77, 0
5, 1862, Note_on_c, 3, 72, 112
5, 1890, Note_on_c, 3, 72, 0
5, 1892, Note_on_c, 3, 74, 127
5, 1999, Note_on_c, 3, 74, 0
5, 2219, Note_on_c, 3, 71, 123
5, 2219, Lyric_t, "/Les "
5, 2237, Note_on_c, 3, 71, 0
5, 2250, Note_on_c, 3, 74, 123
5, 2250, Lyric_t, "mains "
5, 2268, Note_on_c, 3, 74, 0
5, 2307, Note_on_c, 3, 74, 127
5, 2307, Lyric_t, "ser"
5, 2385, Note_on_c, 3, 74, 0
5, 2400, Note_on_c, 3, 78, 127
5, 2400, Lyric_t, "res, "
5, 2400, Lyric_t, "\015"
5, 2457, Note_on_c, 3, 78, 0
5, 2700, Note_on_c, 3, 71, 124
5, 2700, Lyric_t, "a "
5, 2719, Note_on_c, 3, 71, 0
5, 2730, Note_on_c, 3, 74, 127
5, 2730, Lyric_t, "c'est "
5, 2757, Note_on_c, 3, 74, 0
5, 2791, Note_on_c, 3, 74, 127
5, 2791, Lyric_t, "fa"
5, 2868, Note_on_c, 3, 74, 0
5, 2876, Note_on_c, 3, 74, 127
5, 2876, Lyric_t, "cile..."
5, 2876, Lyric_t, "\015"
5, 2932, Note_on_c, 3, 74, 0
5, 3180, Note_on_c, 3, 78, 123
5, 3180, Lyric_t, "/Fer"
5, 3232, Note_on_c, 3, 78, 0
5, 3235, Note_on_c, 3, 78, 127
5, 3235, Lyric_t, "mer "
5, 3292, Note_on_c, 3, 78, 0
5, 3296, Note_on_c, 3, 74, 126
5, 3296, Lyric_t, "les "
5, 3352, Note_on_c, 3, 74, 0
5, 3359, Note_on_c, 3, 78, 127
5, 3359, Lyric_t, "yeux, "
5, 3359, Lyric_t, "\015"
5, 3429, Note_on_c, 3, 78, 0
5, 3657, Note_on_c, 3, 69, 127
5, 3657, Lyric_t, "j'aime "
5, 3686, Note_on_c, 3, 69, 0
5, 3717, Note_on_c, 3, 71, 127
5, 3717, Lyric_t, "plu"
5, 3741, Note_on_c, 3, 71, 0
5, 3752, Note_on_c, 3, 74, 127
5, 3752, Lyric_t, "tt "
5, 3802, Note_on_c, 3, 74, 0
5, 3808, Note_on_c, 3, 74, 127
5, 3808, Lyric_t, "a..."
5, 3808, Lyric_t, "\015"
5, 3884, Note_on_c, 3, 74, 0
5, 4139, Note_on_c, 3, 74, 127
5, 4139, Lyric_t, "Ge"
5, 4158, Note_on_c, 3, 74, 0
5, 4170, Note_on_c, 3, 78, 127
5, 4170, Lyric_t, "noux "
5, 4196, Note_on_c, 3, 78, 0
5, 4226, Note_on_c, 3, 74, 127
5, 4226, Lyric_t, "pli"
5, 4312, Note_on_c, 3, 74, 0
5, 4320, Note_on_c, 3, 78, 127
5, 4320, Lyric_t, "s, "
5, 4320, Lyric_t, "\015"
5, 4384, Note_on_c, 3, 78, 0
5, 4617, Note_on_c, 3, 69, 126
5, 4617, Lyric_t, "pas "
5, 4635, Note_on_c, 3, 69, 0
5, 4647, Note_on_c, 3, 74, 127
5, 4647, Lyric_t, "im"
5, 4675, Note_on_c, 3, 74, 0
5, 4708, Note_on_c, 3, 74, 127
5, 4708, Lyric_t, "pos"
5, 4771, Note_on_c, 3, 74, 0
5, 4774, Note_on_c, 3, 62, 127
5, 4774, Lyric_t, "sible..."
5, 4774, Lyric_t, "\015"
5, 4851, Note_on_c, 3, 62, 0
5, 5098, Note_on_c, 3, 74, 122
5, 5098, Lyric_t, "Se "
5, 5116, Note_on_c, 3, 74, 0
5, 5129, Note_on_c, 3, 78, 127
5, 5129, Lyric_t, "taire "
5, 5182, Note_on_c, 3, 78, 0
5, 5191, Note_on_c, 3, 76, 126
5, 5191, Lyric_t, "un "
5, 5216, Note_on_c, 3, 76, 0
5, 5252, Note_on_c, 3, 78, 127
5, 5252, Lyric_t, "peu, "
5, 5252, Lyric_t, "\015"
5, 5310, Note_on_c, 3, 78, 0
5, 5310, Note_on_c, 3, 76, 122
5, 5339, Note_on_c, 3, 74, 123
5, 5340, Note_on_c, 3, 76, 0
5, 5360, Note_on_c, 3, 74, 0
5, 5364, Note_on_c, 3, 76, 127
5, 5393, Note_on_c, 3, 76, 0
5, 5393, Note_on_c, 3, 74, 127
5, 5423, Note_on_c, 3, 71, 107
5, 5430, Note_on_c, 3, 74, 0
5, 5453, Note_on_c, 3, 71, 0
5, 5459, Note_on_c, 3, 74, 127
5, 5557, Note_on_c, 3, 74, 0
5, 5568, Note_on_c, 3, 74, 127
5, 5568, Lyric_t, "'Mmm' "
5, 5629, Note_on_c, 3, 74, 0
5, 5638, Note_on_c, 3, 74, 127
5, 5638, Lyric_t, "pour"
5, 5680, Note_on_c, 3, 74, 0
5, 5698, Note_on_c, 3, 74, 127
5, 5698, Lyric_t, "quoi "
5, 5751, Note_on_c, 3, 74, 0
5, 5762, Note_on_c, 3, 62, 127
5, 5762, Lyric_t, "pas..."
5, 5762, Lyric_t, "\015"
5, 5762, Lyric_t, "\012"
5, 5816, Note_on_c, 3, 62, 0
5, 6062, Note_on_c, 3, 74, 127
5, 6062, Lyric_t, "Mais "
5, 6082, Note_on_c, 3, 74, 0
5, 6093, Note_on_c, 3, 78, 127
5, 6093, Lyric_t, "ma "
5, 6139, Note_on_c, 3, 78, 0
5, 6150, Note_on_c, 3, 81, 127
5, 6150, Lyric_t, "pri"
5, 6201, Note_on_c, 3, 81, 0
5, 6207, Note_on_c, 3, 83, 127
5, 6207, Lyric_t, "re, "
5, 6207, Lyric_t, "\015"
5, 6250, Note_on_c, 3, 83, 0
5, 6255, Note_on_c, 3, 86, 122
5, 6372, Note_on_c, 3, 86, 0
5, 6534, Note_on_c, 3, 78, 127
5, 6534, Lyric_t, "elle "
5, 6553, Note_on_c, 3, 78, 0
5, 6564, Note_on_c, 3, 81, 127
5, 6564, Lyric_t, "est "
5, 6621, Note_on_c, 3, 81, 0
5, 6626, Note_on_c, 3, 83, 127
5, 6626, Lyric_t, "qu' "
5, 6702, Note_on_c, 3, 78, 110
5, 6702, Lyric_t, "moi..."
5, 6702, Lyric_t, "\015"
5, 6707, Note_on_c, 3, 83, 0
5, 6719, Note_on_c, 3, 76, 118
5, 6722, Control_c, 3, 1, 11
5, 6723, Note_on_c, 3, 78, 0
5, 6723, Control_c, 3, 1, 12
5, 6724, Control_c, 3, 1, 13
5, 6726, Control_c, 3, 1, 14
5, 6727, Control_c, 3, 1, 15
5, 6728, Control_c, 3, 1, 16
5, 6730, Control_c, 3, 1, 17
5, 6733, Control_c, 3, 1, 18
5, 6734, Control_c, 3, 1, 19
5, 6735, Control_c, 3, 1, 20
5, 6737, Control_c, 3, 1, 21
5, 6738, Control_c, 3, 1, 22
5, 6739, Control_c, 3, 1, 23
5, 6740, Control_c, 3, 1, 24
5, 6740, Note_on_c, 3, 74, 112
5, 6742, Note_on_c, 3, 76, 0
5, 6819, Control_c, 3, 1, 23
5, 6820, Control_c, 3, 1, 21
5, 6821, Control_c, 3, 1, 20
5, 6821, Control_c, 3, 1, 19
5, 6823, Control_c, 3, 1, 17
5, 6823, Control_c, 3, 1, 16
5, 6824, Control_c, 3, 1, 15
5, 6825, Control_c, 3, 1, 13
5, 6827, Control_c, 3, 1, 12
5, 6850, Note_on_c, 3, 74, 0
5, 7024, Note_on_c, 3, 74, 127
5, 7024, Lyric_t, "J'y "
5, 7043, Note_on_c, 3, 74, 0
5, 7080, Note_on_c, 3, 78, 127
5, 7080, Lyric_t, "mets "
5, 7119, Note_on_c, 3, 78, 0
5, 7133, Note_on_c, 3, 81, 127
5, 7133, Lyric_t, "tout "
5, 7170, Note_on_c, 3, 81, 0
5, 7198, Note_on_c, 3, 83, 127
5, 7198, Lyric_t, "ce "
5, 7221, Note_on_c, 3, 83, 0
5, 7232, Note_on_c, 3, 81, 123
5, 7232, Lyric_t, "que "
5, 7253, Note_on_c, 3, 81, 0
5, 7263, Note_on_c, 3, 81, 127
5, 7263, Lyric_t, "j'aime, "
5, 7263, Lyric_t, "\015"
5, 7347, Note_on_c, 3, 81, 0
5, 7363, Control_c, 3, 1, 11
5, 7366, Control_c, 3, 1, 10
5, 7378, Note_on_c, 3, 78, 127
5, 7378, Lyric_t, "ce "
5, 7401, Note_on_c, 3, 78, 0
5, 7441, Note_on_c, 3, 83, 127
5, 7441, Lyric_t, "que "
5, 7473, Note_on_c, 3, 83, 0
5, 7479, Note_on_c, 3, 81, 126
5, 7479, Lyric_t, "j'es"
5, 7503, Note_on_c, 3, 81, 0
5, 7514, Note_on_c, 3, 78, 121
5, 7514, Lyric_t, "pre..."
5, 7514, Lyric_t, "\015"
5, 7530, Note_on_c, 3, 78, 0
5, 7534, Note_on_c, 3, 76, 124
5, 7556, Note_on_c, 3, 76, 0
5, 7560, Note_on_c, 3, 74, 117
5, 7661, Note_on_c, 3, 74, 0
5, 7685, Note_on_c, 3, 74, 127
5, 7685, Lyric_t, "Tout "
5, 7732, Note_on_c, 3, 74, 0
5, 7739, Note_on_c, 3, 71, 116
5, 7739, Lyric_t, "ce "
5, 7754, Note_on_c, 3, 71, 0
5, 7769, Note_on_c, 3, 74, 127
5, 7769, Lyric_t, "que "
5, 7813, Note_on_c, 3, 74, 0
5, 7829, Note_on_c, 3, 74, 123
5, 7829, Lyric_t, "je "
5, 7852, Note_on_c, 3, 74, 0
5, 7859, Note_on_c, 3, 69, 127
5, 7859, Lyric_t, "crois..."
5, 7859, Lyric_t, "\015"
5, 7859, Lyric_t, "\012"
5, 7919, Note_on_c, 3, 69, 0
5, 7982, Note_on_c, 3, 81, 127
5, 7982, Lyric_t, "Je "
5, 8006, Note_on_c, 3, 81, 0
5, 8040, Note_on_c, 3, 78, 127
5, 8040, Lyric_t, "prie "
5, 8089, Note_on_c, 3, 78, 0
5, 8098, Note_on_c, 3, 78, 127
5, 8098, Lyric_t, "la "
5, 8115, Note_on_c, 3, 78, 0
5, 8160, Note_on_c, 3, 79, 127
5, 8160, Lyric_t, "terre "
5, 8160, Lyric_t, "\015"
5, 8218, Note_on_c, 3, 78, 112
5, 8221, Note_on_c, 3, 79, 0
5, 8249, Note_on_c, 3, 74, 110
5, 8255, Note_on_c, 3, 78, 0
5, 8347, Note_on_c, 3, 74, 0
5, 8455, Note_on_c, 3, 74, 127
5, 8455, Lyric_t, "de "
5, 8472, Note_on_c, 3, 74, 0
5, 8487, Note_on_c, 3, 78, 127
5, 8487, Lyric_t, "toute "
5, 8508, Note_on_c, 3, 78, 0
5, 8545, Note_on_c, 3, 74, 127
5, 8545, Lyric_t, "ma "
5, 8627, Note_on_c, 3, 74, 0
5, 8635, Note_on_c, 3, 74, 127
5, 8635, Lyric_t, "voix..."
5, 8635, Lyric_t, "\015"
5, 8702, Note_on_c, 3, 74, 0
5, 8933, Note_on_c, 3, 74, 126
5, 8933, Lyric_t, "Mais "
5, 8959, Note_on_c, 3, 74, 0
5, 8998, Note_on_c, 3, 78, 127
5, 8998, Lyric_t, "pas "
5, 9023, Note_on_c, 3, 78, 0
5, 9032, Note_on_c, 3, 81, 127
5, 9032, Lyric_t, "le "
5, 9110, Note_on_c, 3, 81, 0
5, 9120, Note_on_c, 3, 83, 127
5, 9120, Lyric_t, "ciel, "
5, 9120, Lyric_t, "\015"
5, 9154, Note_on_c, 3, 83, 0
5, 9161, Note_on_c, 3, 86, 123
5, 9292, Note_on_c, 3, 86, 0
5, 9420, Note_on_c, 3, 69, 118
5, 9420, Lyric_t, "il "
5, 9441, Note_on_c, 3, 69, 0
5, 9451, Note_on_c, 3, 74, 127
5, 9451, Lyric_t, "m'en"
5, 9494, Note_on_c, 3, 74, 0
5, 9510, Note_on_c, 3, 74, 127
5, 9510, Lyric_t, "tend "
5, 9567, Note_on_c, 3, 74, 0
5, 9575, Note_on_c, 3, 76, 127
5, 9575, Lyric_t, "pas..."
5, 9575, Lyric_t, "\015"
5, 9630, Note_on_c, 3, 74, 122
5, 9631, Note_on_c, 3, 76, 0
5, 9657, Note_on_c, 3, 71, 121
5, 9658, Note_on_c, 3, 74, 0
5, 9780, Note_on_c, 3, 71, 0
5, 9846, Note_on_c, 3, 81, 127
5, 9846, Lyric_t, "Mais "
5, 9916, Note_on_c, 3, 81, 0
5, 9932, Note_on_c, 3, 79, 127
5, 9932, Lyric_t, "pas "
5, 10007, Note_on_c, 3, 79, 0
5, 10018, Note_on_c, 3, 78, 123
5, 10018, Lyric_t, "le "
5, 10051, Note_on_c, 3, 78, 0
5, 10080, Note_on_c, 3, 79, 127
5, 10080, Lyric_t, "ciel, "
5, 10080, Lyric_t, "\015"
5, 10138, Note_on_c, 3, 78, 121
5, 10140, Note_on_c, 3, 79, 0
5, 10168, Note_on_c, 3, 78, 0
5, 10172, Note_on_c, 3, 74, 118
5, 10263, Note_on_c, 3, 74, 0
5, 10379, Note_on_c, 3, 74, 127
5, 10379, Lyric_t, "trop "
5, 10455, Note_on_c, 3, 74, 0
5, 10463, Note_on_c, 3, 74, 127
5, 10463, Lyric_t, "haut "
5, 10535, Note_on_c, 3, 74, 0
5, 10552, Note_on_c, 3, 74, 127
5, 10552, Lyric_t, "pour "
5, 10617, Note_on_c, 3, 86, 124
5, 10617, Lyric_t, "moi..."
5, 10617, Lyric_t, "\015"
5, 10622, Note_on_c, 3, 74, 0
5, 10812, Note_on_c, 3, 86, 0
5, 10828, Note_on_c, 3, 83, 127
5, 10828, Lyric_t, "Ah! "
5, 10828, Lyric_t, "\015"
5, 10828, Lyric_t, "\012"
5, 10878, Note_on_c, 3, 83, 0
5, 10891, Note_on_c, 3, 81, 127
5, 10917, Note_on_c, 3, 78, 121
5, 10924, Note_on_c, 3, 81, 0
5, 10944, Note_on_c, 3, 78, 0
5, 10944, Note_on_c, 3, 76, 117
5, 10970, Note_on_c, 3, 76, 0
5, 10973, Note_on_c, 3, 74, 121
5, 11004, Note_on_c, 3, 71, 107
5, 11013, Note_on_c, 3, 74, 0
5, 11036, Note_on_c, 3, 71, 0
5, 11038, Note_on_c, 3, 74, 127
5, 11446, Note_on_c, 3, 74, 0
5, 11819, Note_on_c, 3, 71, 123
5, 11819, Lyric_t, "Quand "
5, 11837, Note_on_c, 3, 71, 0
5, 11850, Note_on_c, 3, 74, 123
5, 11850, Lyric_t, "j'me "
5, 11868, Note_on_c, 3, 74, 0
5, 11907, Note_on_c, 3, 74, 127
5, 11907, Lyric_t, "r"
5, 11985, Note_on_c, 3, 74, 0
5, 12000, Note_on_c, 3, 78, 127
5, 12000, Lyric_t, "veille "
5, 12000, Lyric_t, "\015"
5, 12057, Note_on_c, 3, 78, 0
5, 12300, Note_on_c, 3, 74, 124
5, 12300, Lyric_t, "je "
5, 12319, Note_on_c, 3, 74, 0
5, 12330, Note_on_c, 3, 78, 127
5, 12330, Lyric_t, "loue "
5, 12357, Note_on_c, 3, 78, 0
5, 12391, Note_on_c, 3, 74, 127
5, 12391, Lyric_t, "le "
5, 12468, Note_on_c, 3, 74, 0
5, 12480, Note_on_c, 3, 74, 127
5, 12480, Lyric_t, "jour..."
5, 12480, Lyric_t, "\015"
5, 12536, Note_on_c, 3, 74, 0
5, 12780, Note_on_c, 3, 78, 123
5, 12780, Lyric_t, "La "
5, 12832, Note_on_c, 3, 78, 0
5, 12835, Note_on_c, 3, 78, 127
5, 12835, Lyric_t, "vie "
5, 12892, Note_on_c, 3, 78, 0
5, 12900, Note_on_c, 3, 74, 126
5, 12900, Lyric_t, "tou"
5, 12956, Note_on_c, 3, 74, 0
5, 12959, Note_on_c, 3, 78, 127
5, 12959, Lyric_t, "jours, "
5, 12959, Lyric_t, "\015"
5, 13029, Note_on_c, 3, 78, 0
5, 13260, Note_on_c, 3, 69, 127
5, 13260, Lyric_t, "toutes "
5, 13289, Note_on_c, 3, 69, 0
5, 13320, Note_on_c, 3, 71, 127
5, 13320, Lyric_t, "ses "
5, 13344, Note_on_c, 3, 71, 0
5, 13352, Note_on_c, 3, 74, 127
5, 13352, Lyric_t, "mer"
5, 13402, Note_on_c, 3, 74, 0
5, 13410, Note_on_c, 3, 74, 127
5, 13410, Lyric_t, "veilles..."
5, 13410, Lyric_t, "\015"
5, 13410, Lyric_t, "\012"
5, 13486, Note_on_c, 3, 74, 0
5, 13739, Note_on_c, 3, 74, 127
5, 13739, Lyric_t, "Je "
5, 13758, Note_on_c, 3, 74, 0
5, 13770, Note_on_c, 3, 78, 127
5, 13770, Lyric_t, "prie "
5, 13796, Note_on_c, 3, 78, 0
5, 13830, Note_on_c, 3, 74, 127
5, 13830, Lyric_t, "les "
5, 13916, Note_on_c, 3, 74, 0
5, 13920, Note_on_c, 3, 78, 127
5, 13920, Lyric_t, "roses, "
5, 13920, Lyric_t, "\015"
5, 13984, Note_on_c, 3, 78, 0
5, 14220, Note_on_c, 3, 74, 126
5, 14220, Lyric_t, "je "
5, 14236, Note_on_c, 3, 74, 0
5, 14250, Note_on_c, 3, 78, 127
5, 14250, Lyric_t, "prie "
5, 14300, Note_on_c, 3, 78, 0
5, 14308, Note_on_c, 3, 74, 127
5, 14308, Lyric_t, "les "
5, 14371, Note_on_c, 3, 74, 0
5, 14400, Note_on_c, 3, 74, 127
5, 14400, Lyric_t, "bois..."
5, 14400, Lyric_t, "\015"
5, 14506, Note_on_c, 3, 74, 0
5, 14700, Note_on_c, 3, 74, 127
5, 14700, Lyric_t, "Les "
5, 14729, Note_on_c, 3, 78, 127
5, 14729, Lyric_t, "vir"
5, 14743, Note_on_c, 3, 74, 0
5, 14782, Note_on_c, 3, 78, 0
5, 14790, Note_on_c, 3, 81, 127
5, 14790, Lyric_t, "tu"
5, 14832, Note_on_c, 3, 81, 0
5, 14850, Note_on_c, 3, 83, 127
5, 14850, Lyric_t, "oses, "
5, 14850, Lyric_t, "\015"
5, 14910, Note_on_c, 3, 86, 127
5, 14911, Note_on_c, 3, 83, 0
5, 15120, Note_on_c, 3, 86, 0
5, 15168, Note_on_c, 3, 74, 127
5, 15168, Lyric_t, "n'im"
5, 15229, Note_on_c, 3, 74, 0
5, 15238, Note_on_c, 3, 74, 127
5, 15238, Lyric_t, "porte "
5, 15280, Note_on_c, 3, 74, 0
5, 15298, Note_on_c, 3, 74, 127
5, 15298, Lyric_t, "quoi..."
5, 15298, Lyric_t, "\015"
5, 15298, Lyric_t, "\012"
5, 15330, Note_on_c, 3, 76, 127
5, 15351, Note_on_c, 3, 74, 0
5, 15384, Note_on_c, 3, 76, 0
5, 15390, Note_on_c, 3, 74, 123
5, 15420, Note_on_c, 3, 71, 113
5, 15427, Note_on_c, 3, 74, 0
5, 15556, Note_on_c, 3, 71, 0
5, 15660, Note_on_c, 3, 74, 127
5, 15660, Lyric_t, "Je "
5, 15680, Note_on_c, 3, 74, 0
5, 15690, Note_on_c, 3, 78, 127
5, 15690, Lyric_t, "prie "
5, 15736, Note_on_c, 3, 78, 0
5, 15750, Note_on_c, 3, 81, 127
5, 15750, Lyric_t, "l'hi"
5, 15801, Note_on_c, 3, 81, 0
5, 15807, Note_on_c, 3, 83, 127
5, 15807, Lyric_t, "ver "
5, 15807, Lyric_t, "\015"
5, 15850, Note_on_c, 3, 83, 0
5, 15870, Note_on_c, 3, 81, 122
5, 15894, Note_on_c, 3, 81, 0
5, 15900, Note_on_c, 3, 78, 101
5, 15924, Note_on_c, 3, 78, 0
5, 15930, Note_on_c, 3, 81, 118
5, 15953, Note_on_c, 3, 81, 0
5, 15960, Note_on_c, 3, 83, 127
5, 16016, Note_on_c, 3, 83, 0
5, 16020, Note_on_c, 3, 86, 127
5, 16134, Note_on_c, 3, 78, 127
5, 16134, Lyric_t, "quand "
5, 16153, Note_on_c, 3, 78, 0
5, 16153, Note_on_c, 3, 86, 0
5, 16164, Note_on_c, 3, 81, 127
5, 16164, Lyric_t, "il "
5, 16221, Note_on_c, 3, 81, 0
5, 16226, Note_on_c, 3, 83, 127
5, 16226, Lyric_t, "s'en "
5, 16279, Note_on_c, 3, 83, 0
5, 16290, Note_on_c, 3, 78, 127
5, 16290, Lyric_t, "va..."
5, 16290, Lyric_t, "\015"
5, 16318, Note_on_c, 3, 78, 0
5, 16319, Note_on_c, 3, 76, 118
5, 16322, Control_c, 3, 1, 11
5, 16323, Control_c, 3, 1, 12
5, 16324, Control_c, 3, 1, 13
5, 16326, Control_c, 3, 1, 14
5, 16327, Control_c, 3, 1, 15
5, 16328, Control_c, 3, 1, 16
5, 16330, Control_c, 3, 1, 17
5, 16333, Control_c, 3, 1, 18
5, 16334, Control_c, 3, 1, 19
5, 16335, Control_c, 3, 1, 20
5, 16337, Control_c, 3, 1, 21
5, 16338, Control_c, 3, 1, 22
5, 16339, Control_c, 3, 1, 23
5, 16340, Control_c, 3, 1, 24
5, 16340, Note_on_c, 3, 74, 112
5, 16342, Note_on_c, 3, 76, 0
5, 16419, Control_c, 3, 1, 23
5, 16420, Control_c, 3, 1, 21
5, 16421, Control_c, 3, 1, 20
5, 16421, Control_c, 3, 1, 19
5, 16423, Control_c, 3, 1, 17
5, 16423, Control_c, 3, 1, 16
5, 16424, Control_c, 3, 1, 15
5, 16425, Control_c, 3, 1, 13
5, 16427, Control_c, 3, 1, 12
5, 16450, Note_on_c, 3, 74, 0
5, 16620, Note_on_c, 3, 74, 127
5, 16620, Lyric_t, "L'"
5, 16639, Note_on_c, 3, 74, 0
5, 16680, Note_on_c, 3, 78, 127
5, 16680, Lyric_t, "t, "
5, 16719, Note_on_c, 3, 78, 0
5, 16733, Note_on_c, 3, 81, 127
5, 16733, Lyric_t, "les "
5, 16770, Note_on_c, 3, 81, 0
5, 16798, Note_on_c, 3, 83, 127
5, 16798, Lyric_t, ""
5, 16821, Note_on_c, 3, 83, 0
5, 16860, Note_on_c, 3, 81, 127
5, 16860, Lyric_t, "toiles "
5, 16893, Note_on_c, 3, 81, 0
5, 16920, Note_on_c, 3, 81, 127
5, 16920, Lyric_t, "et "
5, 16950, Note_on_c, 3, 78, 123
5, 16950, Lyric_t, "la "
5, 16955, Note_on_c, 3, 81, 0
5, 16963, Control_c, 3, 1, 11
5, 16966, Control_c, 3, 1, 10
5, 16973, Note_on_c, 3, 78, 0
5, 16980, Note_on_c, 3, 83, 127
5, 16980, Lyric_t, "mer..."
5, 16980, Lyric_t, "\015"
5, 17049, Note_on_c, 3, 83, 0
5, 17079, Note_on_c, 3, 81, 126
5, 17079, Lyric_t, "Et "
5, 17144, Note_on_c, 3, 81, 0
5, 17160, Note_on_c, 3, 78, 117
5, 17160, Lyric_t, "le "
5, 17220, Note_on_c, 3, 78, 0
5, 17220, Note_on_c, 3, 74, 127
5, 17220, Lyric_t, "so"
5, 17250, Note_on_c, 3, 74, 0
5, 17280, Note_on_c, 3, 74, 127
5, 17280, Lyric_t, "leil "
5, 17319, Note_on_c, 3, 74, 0
5, 17340, Note_on_c, 3, 74, 122
5, 17340, Lyric_t, "et "
5, 17356, Note_on_c, 3, 74, 0
5, 17369, Note_on_c, 3, 74, 127
5, 17369, Lyric_t, "ses "
5, 17370, Note_on_c, 3, 74, 0
5, 17370, Note_on_c, 3, 74, 127
5, 17413, Note_on_c, 3, 74, 0
5, 17429, Note_on_c, 3, 74, 123
5, 17429, Lyric_t, ""
5, 17430, Note_on_c, 3, 74, 0
5, 17430, Note_on_c, 3, 74, 121
5, 17451, Note_on_c, 3, 74, 0
5, 17459, Note_on_c, 3, 69, 127
5, 17459, Lyric_t, "clats..."
5, 17459, Lyric_t, "\015"
5, 17459, Lyric_t, "\012"
5, 17519, Note_on_c, 3, 69, 0
5, 17582, Note_on_c, 3, 81, 127
5, 17582, Lyric_t, "Et "
5, 17606, Note_on_c, 3, 81, 0
5, 17640, Note_on_c, 3, 78, 127
5, 17640, Lyric_t, "j'suis "
5, 17689, Note_on_c, 3, 78, 0
5, 17700, Note_on_c, 3, 78, 127
5, 17700, Lyric_t, "sin"
5, 17717, Note_on_c, 3, 78, 0
5, 17760, Note_on_c, 3, 79, 127
5, 17760, Lyric_t, "cre, "
5, 17760, Lyric_t, "\015"
5, 17818, Note_on_c, 3, 78, 112
5, 17821, Note_on_c, 3, 79, 0
5, 17849, Note_on_c, 3, 74, 110
5, 17855, Note_on_c, 3, 78, 0
5, 17947, Note_on_c, 3, 74, 0
5, 18055, Note_on_c, 3, 74, 127
5, 18055, Lyric_t, "j'prie "
5, 18072, Note_on_c, 3, 74, 0
5, 18087, Note_on_c, 3, 78, 127
5, 18087, Lyric_t, "pour "
5, 18108, Note_on_c, 3, 78, 0
5, 18145, Note_on_c, 3, 74, 127
5, 18145, Lyric_t, "tout "
5, 18227, Note_on_c, 3, 74, 0
5, 18235, Note_on_c, 3, 74, 127
5, 18235, Lyric_t, "a..."
5, 18235, Lyric_t, "\015"
5, 18302, Note_on_c, 3, 74, 0
5, 18533, Note_on_c, 3, 74, 126
5, 18533, Lyric_t, "Mais "
5, 18559, Note_on_c, 3, 74, 0
5, 18598, Note_on_c, 3, 78, 127
5, 18598, Lyric_t, "toi "
5, 18623, Note_on_c, 3, 78, 0
5, 18630, Note_on_c, 3, 81, 127
5, 18630, Lyric_t, "le "
5, 18708, Note_on_c, 3, 81, 0
5, 18720, Note_on_c, 3, 83, 127
5, 18720, Lyric_t, "ciel, "
5, 18720, Lyric_t, "\015"
5, 18750, Note_on_c, 3, 86, 123
5, 18754, Note_on_c, 3, 83, 0
5, 18881, Note_on_c, 3, 86, 0
5, 19020, Note_on_c, 3, 69, 118
5, 19020, Lyric_t, "tu "
5, 19041, Note_on_c, 3, 69, 0
5, 19050, Note_on_c, 3, 74, 127
5, 19050, Lyric_t, "n'en"
5, 19093, Note_on_c, 3, 74, 0
5, 19110, Note_on_c, 3, 74, 127
5, 19110, Lyric_t, "tends "
5, 19167, Note_on_c, 3, 74, 0
5, 19170, Note_on_c, 3, 76, 127
5, 19170, Lyric_t, "pas..."
5, 19170, Lyric_t, "\015"
5, 19226, Note_on_c, 3, 76, 0
5, 19230, Note_on_c, 3, 74, 122
5, 19258, Note_on_c, 3, 74, 0
5, 19260, Note_on_c, 3, 71, 121
5, 19383, Note_on_c, 3, 71, 0
5, 19440, Note_on_c, 3, 81, 127
5, 19440, Lyric_t, "Mais "
5, 19510, Note_on_c, 3, 81, 0
5, 19530, Note_on_c, 3, 79, 127
5, 19530, Lyric_t, "toi "
5, 19605, Note_on_c, 3, 79, 0
5, 19618, Note_on_c, 3, 78, 123
5, 19618, Lyric_t, "le "
5, 19651, Note_on_c, 3, 78, 0
5, 19680, Note_on_c, 3, 79, 127
5, 19680, Lyric_t, "ciel, "
5, 19680, Lyric_t, "\015"
5, 19738, Note_on_c, 3, 78, 121
5, 19740, Note_on_c, 3, 79, 0
5, 19768, Note_on_c, 3, 78, 0
5, 19770, Note_on_c, 3, 74, 118
5, 19861, Note_on_c, 3, 74, 0
5, 19980, Note_on_c, 3, 71, 127
5, 19980, Lyric_t, "est "
5, 20004, Note_on_c, 3, 71, 0
5, 20040, Note_on_c, 3, 74, 127
5, 20040, Lyric_t, "ce "
5, 20058, Note_on_c, 3, 74, 0
5, 20063, Note_on_c, 3, 74, 127
5, 20063, Lyric_t, "que "
5, 20130, Note_on_c, 3, 76, 127
5, 20130, Lyric_t, "t'es "
5, 20135, Note_on_c, 3, 74, 0
5, 20281, Note_on_c, 3, 76, 0
5, 20310, Note_on_c, 3, 78, 127
5, 20310, Lyric_t, "l?"
5, 20310, Lyric_t, "\015"
5, 20310, Lyric_t, "\012"
5, 20370, Note_on_c, 3, 74, 127
5, 20384, Note_on_c, 3, 78, 0
5, 20568, Note_on_c, 3, 74, 0
5, 20705, Note_on_c, 3, 79, 127
5, 20705, Lyric_t, "C'est "
5, 20801, Note_on_c, 3, 79, 127
5, 20801, Lyric_t, "ma "
5, 20802, Note_on_c, 3, 79, 0
5, 20817, Note_on_c, 3, 79, 0
5, 20880, Note_on_c, 3, 79, 127
5, 20880, Lyric_t, "pri"
5, 20953, Note_on_c, 3, 79, 0
5, 20965, Note_on_c, 3, 78, 127
5, 20965, Lyric_t, "re "
5, 21033, Note_on_c, 3, 78, 0
5, 21050, Note_on_c, 3, 81, 127
5, 21050, Lyric_t, "pa"
5, 21120, Note_on_c, 3, 81, 0
5, 21124, Note_on_c, 3, 76, 127
5, 21124, Lyric_t, "enne..."
5, 21124, Lyric_t, "\015"
5, 21358, Note_on_c, 3, 76, 0
5, 21476, Note_on_c, 3, 78, 127
5, 21476, Lyric_t, "Mon "
5, 21496, Note_on_c, 3, 78, 0
5, 21539, Note_on_c, 3, 81, 127
5, 21539, Lyric_t, "cr"
5, 21578, Note_on_c, 3, 81, 0
5, 21600, Note_on_c, 3, 83, 127
5, 21600, Lyric_t, "do "
5, 21600, Lyric_t, "\015"
5, 21652, Note_on_c, 3, 83, 0
5, 21655, Note_on_c, 3, 81, 127
5, 21655, Lyric_t, "ma "
5, 21674, Note_on_c, 3, 81, 0
5, 21716, Note_on_c, 3, 81, 127
5, 21716, Lyric_t, "pro"
5, 21767, Note_on_c, 3, 81, 0
5, 21776, Note_on_c, 3, 78, 127
5, 21776, Lyric_t, "fes"
5, 21794, Note_on_c, 3, 78, 0
5, 21836, Note_on_c, 3, 81, 127
5, 21836, Lyric_t, "sion "
5, 21946, Note_on_c, 3, 81, 0
5, 21955, Note_on_c, 3, 78, 121
5, 21955, Lyric_t, "de "
5, 21976, Note_on_c, 3, 78, 0
5, 22020, Note_on_c, 3, 76, 127
5, 22020, Lyric_t, "foi..."
5, 22020, Lyric_t, "\015"
5, 22138, Note_on_c, 3, 78, 127
5, 22143, Note_on_c, 3, 76, 0
5, 22280, Note_on_c, 3, 78, 0
5, 22438, Note_on_c, 3, 76, 127
5, 22438, Lyric_t, "C'est "
5, 22489, Note_on_c, 3, 76, 0
5, 22500, Note_on_c, 3, 78, 127
5, 22500, Lyric_t, "ma "
5, 22540, Note_on_c, 3, 78, 0
5, 22570, Note_on_c, 3, 79, 127
5, 22570, Lyric_t, "sup"
5, 22623, Note_on_c, 3, 79, 0
5, 22633, Note_on_c, 3, 79, 127
5, 22633, Lyric_t, "pli"
5, 22691, Note_on_c, 3, 79, 0
5, 22746, Note_on_c, 3, 79, 127
5, 22746, Lyric_t, "que "
5, 22921, Note_on_c, 3, 81, 124
5, 22921, Lyric_t, "ter"
5, 22924, Note_on_c, 3, 79, 0
5, 22947, Note_on_c, 3, 81, 0
5, 22984, Note_on_c, 3, 81, 127
5, 22984, Lyric_t, "rien"
5, 23016, Note_on_c, 3, 78, 123
5, 23022, Note_on_c, 3, 81, 0
5, 23046, Note_on_c, 3, 76, 124
5, 23046, Lyric_t, "ne..."
5, 23046, Lyric_t, "\015"
5, 23052, Note_on_c, 3, 78, 0
5, 23180, Note_on_c, 3, 76, 0
5, 23400, Note_on_c, 3, 81, 127
5, 23400, Lyric_t, "J'y "
5, 23453, Note_on_c, 3, 81, 0
5, 23459, Note_on_c, 3, 83, 127
5, 23459, Lyric_t, "mets "
5, 23514, Note_on_c, 3, 83, 0
5, 23523, Note_on_c, 3, 86, 127
5, 23523, Lyric_t, "tout "
5, 23572, Note_on_c, 3, 86, 0
5, 23582, Note_on_c, 3, 84, 123
5, 23582, Lyric_t, "ce "
5, 23599, Note_on_c, 3, 84, 0
5, 23611, Note_on_c, 3, 84, 127
5, 23611, Lyric_t, "que "
5, 23670, Note_on_c, 3, 81, 113
5, 23670, Lyric_t, "j'es"
5, 23673, Note_on_c, 3, 84, 0
5, 23688, Note_on_c, 3, 81, 0
5, 23699, Note_on_c, 3, 84, 127
5, 23699, Lyric_t, "pre..."
5, 23699, Lyric_t, "\015"
5, 23790, Note_on_c, 3, 84, 0
5, 23794, Note_on_c, 3, 86, 127
5, 23794, Lyric_t, "Et "
5, 23919, Note_on_c, 3, 86, 0
5, 24000, Note_on_c, 3, 86, 127
5, 24000, Lyric_t, "tout "
5, 24050, Note_on_c, 3, 86, 0
5, 24065, Note_on_c, 3, 84, 127
5, 24065, Lyric_t, "ce "
5, 24082, Note_on_c, 3, 84, 0
5, 24096, Note_on_c, 3, 84, 127
5, 24096, Lyric_t, "que "
5, 24155, Note_on_c, 3, 81, 123
5, 24155, Lyric_t, "je "
5, 24163, Note_on_c, 3, 84, 0
5, 24177, Note_on_c, 3, 81, 0
5, 24185, Note_on_c, 3, 86, 127
5, 24185, Lyric_t, "crois..."
5, 24185, Lyric_t, "\015"
5, 24185, Lyric_t, "\012"
5, 24900, Note_on_c, 3, 86, 0
5, 25259, Note_on_c, 3, 71, 123
5, 25259, Lyric_t, "Je "
5, 25277, Note_on_c, 3, 71, 0
5, 25290, Note_on_c, 3, 74, 123
5, 25290, Lyric_t, "prie "
5, 25308, Note_on_c, 3, 74, 0
5, 25347, Note_on_c, 3, 74, 127
5, 25347, Lyric_t, "la "
5, 25425, Note_on_c, 3, 74, 0
5, 25440, Note_on_c, 3, 78, 127
5, 25440, Lyric_t, "terre, "
5, 25440, Lyric_t, "\015"
5, 25497, Note_on_c, 3, 78, 0
5, 25740, Note_on_c, 3, 71, 124
5, 25740, Lyric_t, "de "
5, 25759, Note_on_c, 3, 71, 0
5, 25770, Note_on_c, 3, 74, 127
5, 25770, Lyric_t, "toute "
5, 25797, Note_on_c, 3, 74, 0
5, 25831, Note_on_c, 3, 74, 127
5, 25831, Lyric_t, "ma "
5, 25908, Note_on_c, 3, 74, 0
5, 25916, Note_on_c, 3, 74, 127
5, 25916, Lyric_t, "voix..."
5, 25916, Lyric_t, "\015"
5, 25972, Note_on_c, 3, 74, 0
5, 26220, Note_on_c, 3, 78, 123
5, 26220, Lyric_t, "Et "
5, 26272, Note_on_c, 3, 78, 0
5, 26275, Note_on_c, 3, 78, 127
5, 26275, Lyric_t, "toi "
5, 26332, Note_on_c, 3, 78, 0
5, 26336, Note_on_c, 3, 74, 126
5, 26336, Lyric_t, "le "
5, 26392, Note_on_c, 3, 74, 0
5, 26399, Note_on_c, 3, 78, 127
5, 26399, Lyric_t, "ciel, "
5, 26399, Lyric_t, "\015"
5, 26469, Note_on_c, 3, 78, 0
5, 26697, Note_on_c, 3, 69, 127
5, 26697, Lyric_t, "nous "
5, 26726, Note_on_c, 3, 69, 0
5, 26757, Note_on_c, 3, 71, 127
5, 26757, Lyric_t, "ou"
5, 26781, Note_on_c, 3, 71, 0
5, 26792, Note_on_c, 3, 74, 127
5, 26792, Lyric_t, "blie "
5, 26842, Note_on_c, 3, 74, 0
5, 26848, Note_on_c, 3, 74, 127
5, 26848, Lyric_t, "pas..."
5, 26848, Lyric_t, "\015"
5, 26848, Lyric_t, "\012"
5, 26924, Note_on_c, 3, 74, 0
5, 27179, Note_on_c, 3, 73, 123
5, 27179, Lyric_t, "Je "
5, 27197, Note_on_c, 3, 73, 0
5, 27210, Note_on_c, 3, 76, 123
5, 27210, Lyric_t, "prie "
5, 27228, Note_on_c, 3, 76, 0
5, 27267, Note_on_c, 3, 76, 127
5, 27267, Lyric_t, "les "
5, 27345, Note_on_c, 3, 76, 0
5, 27360, Note_on_c, 3, 80, 127
5, 27360, Lyric_t, "hommes, "
5, 27360, Lyric_t, "\015"
5, 27417, Note_on_c, 3, 80, 0
5, 27660, Note_on_c, 3, 76, 124
5, 27660, Lyric_t, "je "
5, 27679, Note_on_c, 3, 76, 0
5, 27690, Note_on_c, 3, 80, 127
5, 27690, Lyric_t, "prie "
5, 27717, Note_on_c, 3, 80, 0
5, 27751, Note_on_c, 3, 76, 127
5, 27751, Lyric_t, "les "
5, 27828, Note_on_c, 3, 76, 0
5, 27840, Note_on_c, 3, 76, 127
5, 27840, Lyric_t, "rois..."
5, 27840, Lyric_t, "\015"
5, 27896, Note_on_c, 3, 76, 0
5, 28140, Note_on_c, 3, 80, 123
5, 28140, Lyric_t, "D'"
5, 28192, Note_on_c, 3, 80, 0
5, 28195, Note_on_c, 3, 80, 127
5, 28195, Lyric_t, "tre "
5, 28252, Note_on_c, 3, 80, 0
5, 28260, Note_on_c, 3, 76, 126
5, 28260, Lyric_t, "plus "
5, 28316, Note_on_c, 3, 76, 0
5, 28319, Note_on_c, 3, 80, 127
5, 28319, Lyric_t, "homme, "
5, 28319, Lyric_t, "\015"
5, 28389, Note_on_c, 3, 80, 0
5, 28620, Note_on_c, 3, 71, 127
5, 28620, Lyric_t, "d'"
5, 28649, Note_on_c, 3, 71, 0
5, 28680, Note_on_c, 3, 73, 127
5, 28680, Lyric_t, "tre "
5, 28704, Note_on_c, 3, 73, 0
5, 28712, Note_on_c, 3, 76, 127
5, 28712, Lyric_t, "moins "
5, 28762, Note_on_c, 3, 76, 0
5, 28770, Note_on_c, 3, 76, 127
5, 28770, Lyric_t, "roi..."
5, 28770, Lyric_t, "\015"
5, 28770, Lyric_t, "\012"
5, 28846, Note_on_c, 3, 76, 0
5, 29099, Note_on_c, 3, 76, 127
5, 29099, Lyric_t, "Je "
5, 29118, Note_on_c, 3, 76, 0
5, 29130, Note_on_c, 3, 80, 127
5, 29130, Lyric_t, "prie "
5, 29156, Note_on_c, 3, 80, 0
5, 29190, Note_on_c, 3, 76, 127
5, 29190, Lyric_t, "les "
5, 29276, Note_on_c, 3, 76, 0
5, 29280, Note_on_c, 3, 80, 127
5, 29280, Lyric_t, "yeux, "
5, 29280, Lyric_t, "\015"
5, 29344, Note_on_c, 3, 80, 0
5, 29580, Note_on_c, 3, 76, 126
5, 29580, Lyric_t, "les "
5, 29596, Note_on_c, 3, 76, 0
5, 29610, Note_on_c, 3, 80, 127
5, 29610, Lyric_t, "yeux "
5, 29660, Note_on_c, 3, 80, 0
5, 29668, Note_on_c, 3, 76, 127
5, 29668, Lyric_t, "d"
5, 29731, Note_on_c, 3, 76, 0
5, 29760, Note_on_c, 3, 76, 127
5, 29760, Lyric_t, "faits..."
5, 29760, Lyric_t, "\015"
5, 29866, Note_on_c, 3, 76, 0
5, 30060, Note_on_c, 3, 76, 127
5, 30060, Lyric_t, "Ce "
5, 30089, Note_on_c, 3, 80, 127
5, 30089, Lyric_t, "que "
5, 30103, Note_on_c, 3, 76, 0
5, 30142, Note_on_c, 3, 80, 0
5, 30150, Note_on_c, 3, 83, 127
5, 30150, Lyric_t, "les "
5, 30192, Note_on_c, 3, 83, 0
5, 30210, Note_on_c, 3, 85, 127
5, 30210, Lyric_t, "cieux, "
5, 30210, Lyric_t, "\015"
5, 30270, Note_on_c, 3, 88, 127
5, 30271, Note_on_c, 3, 85, 0
5, 30480, Note_on_c, 3, 88, 0
5, 30528, Note_on_c, 3, 76, 127
5, 30528, Lyric_t, "ne "
5, 30589, Note_on_c, 3, 76, 0
5, 30598, Note_on_c, 3, 76, 127
5, 30598, Lyric_t, "voient "
5, 30640, Note_on_c, 3, 76, 0
5, 30658, Note_on_c, 3, 76, 127
5, 30658, Lyric_t, "ja"
5, 30690, Note_on_c, 3, 78, 127
5, 30690, Lyric_t, "mais..."
5, 30690, Lyric_t, "\015"
5, 30711, Note_on_c, 3, 76, 0
5, 30744, Note_on_c, 3, 78, 0
5, 30750, Note_on_c, 3, 76, 123
5, 30780, Note_on_c, 3, 73, 113
5, 30787, Note_on_c, 3, 76, 0
5, 30916, Note_on_c, 3, 73, 0
5, 31020, Note_on_c, 3, 76, 127
5, 31020, Lyric_t, "Je "
5, 31040, Note_on_c, 3, 76, 0
5, 31050, Note_on_c, 3, 80, 127
5, 31050, Lyric_t, "prie "
5, 31096, Note_on_c, 3, 80, 0
5, 31110, Note_on_c, 3, 83, 127
5, 31110, Lyric_t, "l'a"
5, 31161, Note_on_c, 3, 83, 0
5, 31167, Note_on_c, 3, 85, 127
5, 31167, Lyric_t, "mour, "
5, 31167, Lyric_t, "\015"
5, 31210, Note_on_c, 3, 85, 0
5, 31230, Note_on_c, 3, 83, 122
5, 31254, Note_on_c, 3, 83, 0
5, 31260, Note_on_c, 3, 80, 101
5, 31284, Note_on_c, 3, 80, 0
5, 31290, Note_on_c, 3, 83, 118
5, 31313, Note_on_c, 3, 83, 0
5, 31320, Note_on_c, 3, 85, 127
5, 31376, Note_on_c, 3, 85, 0
5, 31380, Note_on_c, 3, 88, 127
5, 31494, Note_on_c, 3, 80, 127
5, 31494, Lyric_t, "et "
5, 31513, Note_on_c, 3, 80, 0
5, 31513, Note_on_c, 3, 88, 0
5, 31524, Note_on_c, 3, 83, 127
5, 31524, Lyric_t, "nos "
5, 31581, Note_on_c, 3, 83, 0
5, 31586, Note_on_c, 3, 85, 127
5, 31586, Lyric_t, "cer"
5, 31639, Note_on_c, 3, 85, 0
5, 31650, Note_on_c, 3, 80, 127
5, 31650, Lyric_t, "veaux..."
5, 31650, Lyric_t, "\015"
5, 31678, Note_on_c, 3, 80, 0
5, 31679, Note_on_c, 3, 78, 118
5, 31682, Control_c, 3, 1, 11
5, 31683, Control_c, 3, 1, 12
5, 31684, Control_c, 3, 1, 13
5, 31686, Control_c, 3, 1, 14
5, 31687, Control_c, 3, 1, 15
5, 31688, Control_c, 3, 1, 16
5, 31690, Control_c, 3, 1, 17
5, 31693, Control_c, 3, 1, 18
5, 31694, Control_c, 3, 1, 19
5, 31695, Control_c, 3, 1, 20
5, 31697, Control_c, 3, 1, 21
5, 31698, Control_c, 3, 1, 22
5, 31699, Control_c, 3, 1, 23
5, 31700, Control_c, 3, 1, 24
5, 31700, Note_on_c, 3, 76, 112
5, 31702, Note_on_c, 3, 78, 0
5, 31779, Control_c, 3, 1, 23
5, 31780, Control_c, 3, 1, 21
5, 31781, Control_c, 3, 1, 20
5, 31781, Control_c, 3, 1, 19
5, 31783, Control_c, 3, 1, 17
5, 31783, Control_c, 3, 1, 16
5, 31784, Control_c, 3, 1, 15
5, 31785, Control_c, 3, 1, 13
5, 31787, Control_c, 3, 1, 12
5, 31810, Note_on_c, 3, 76, 0
5, 31980, Note_on_c, 3, 76, 127
5, 31980, Lyric_t, "Qu'on "
5, 31999, Note_on_c, 3, 76, 0
5, 32040, Note_on_c, 3, 80, 127
5, 32040, Lyric_t, "i"
5, 32079, Note_on_c, 3, 80, 0
5, 32093, Note_on_c, 3, 83, 127
5, 32093, Lyric_t, "ma"
5, 32130, Note_on_c, 3, 83, 0
5, 32158, Note_on_c, 3, 85, 127
5, 32158, Lyric_t, "gine "
5, 32158, Lyric_t, "\015"
5, 32181, Note_on_c, 3, 85, 0
5, 32220, Note_on_c, 3, 83, 127
5, 32220, Lyric_t, "et "
5, 32253, Note_on_c, 3, 83, 0
5, 32280, Note_on_c, 3, 83, 127
5, 32280, Lyric_t, "qu'on "
5, 32310, Note_on_c, 3, 80, 123
5, 32310, Lyric_t, "se "
5, 32315, Note_on_c, 3, 83, 0
5, 32323, Control_c, 3, 1, 11
5, 32326, Control_c, 3, 1, 10
5, 32333, Note_on_c, 3, 80, 0
5, 32340, Note_on_c, 3, 85, 127
5, 32340, Lyric_t, "bouge..."
5, 32340, Lyric_t, "\015"
5, 32409, Note_on_c, 3, 85, 0
5, 32439, Note_on_c, 3, 83, 126
5, 32439, Lyric_t, "Et "
5, 32504, Note_on_c, 3, 83, 0
5, 32520, Note_on_c, 3, 80, 117
5, 32520, Lyric_t, "sans "
5, 32580, Note_on_c, 3, 80, 0
5, 32580, Note_on_c, 3, 76, 127
5, 32580, Lyric_t, "trop "
5, 32610, Note_on_c, 3, 76, 0
5, 32640, Note_on_c, 3, 76, 127
5, 32640, Lyric_t, "comp"
5, 32679, Note_on_c, 3, 76, 0
5, 32700, Note_on_c, 3, 76, 122
5, 32700, Lyric_t, "ter "
5, 32716, Note_on_c, 3, 76, 0
5, 32729, Note_on_c, 3, 76, 127
5, 32729, Lyric_t, "sur "
5, 32730, Note_on_c, 3, 76, 0
5, 32730, Note_on_c, 3, 76, 127
5, 32773, Note_on_c, 3, 76, 0
5, 32789, Note_on_c, 3, 76, 123
5, 32789, Lyric_t, "l "
5, 32790, Note_on_c, 3, 76, 0
5, 32790, Note_on_c, 3, 76, 121
5, 32811, Note_on_c, 3, 76, 0
5, 32819, Note_on_c, 3, 71, 127
5, 32819, Lyric_t, "haut..."
5, 32819, Lyric_t, "\015"
5, 32819, Lyric_t, "\012"
5, 32879, Note_on_c, 3, 71, 0
5, 32942, Note_on_c, 3, 83, 127
5, 32942, Lyric_t, "Sa"
5, 32966, Note_on_c, 3, 83, 0
5, 33000, Note_on_c, 3, 80, 127
5, 33000, Lyric_t, "vant "
5, 33049, Note_on_c, 3, 80, 0
5, 33060, Note_on_c, 3, 80, 127
5, 33060, Lyric_t, "po"
5, 33077, Note_on_c, 3, 80, 0
5, 33120, Note_on_c, 3, 81, 127
5, 33120, Lyric_t, ""
5, 33178, Note_on_c, 3, 80, 112
5, 33181, Note_on_c, 3, 81, 0
5, 33209, Note_on_c, 3, 76, 110
5, 33209, Lyric_t, "te, "
5, 33209, Lyric_t, "\015"
5, 33215, Note_on_c, 3, 80, 0
5, 33307, Note_on_c, 3, 76, 0
5, 33415, Note_on_c, 3, 76, 127
5, 33415, Lyric_t, "je "
5, 33432, Note_on_c, 3, 76, 0
5, 33447, Note_on_c, 3, 80, 127
5, 33447, Lyric_t, "prie "
5, 33468, Note_on_c, 3, 80, 0
5, 33505, Note_on_c, 3, 76, 127
5, 33505, Lyric_t, "pour "
5, 33587, Note_on_c, 3, 76, 0
5, 33595, Note_on_c, 3, 76, 127
5, 33595, Lyric_t, "toi..."
5, 33595, Lyric_t, "\015"
5, 33662, Note_on_c, 3, 76, 0
5, 33893, Note_on_c, 3, 76, 126
5, 33893, Lyric_t, "Et "
5, 33919, Note_on_c, 3, 76, 0
5, 33958, Note_on_c, 3, 80, 127
5, 33958, Lyric_t, "toi "
5, 33983, Note_on_c, 3, 80, 0
5, 33990, Note_on_c, 3, 83, 127
5, 33990, Lyric_t, "le "
5, 34068, Note_on_c, 3, 83, 0
5, 34080, Note_on_c, 3, 85, 127
5, 34080, Lyric_t, "ciel, "
5, 34080, Lyric_t, "\015"
5, 34110, Note_on_c, 3, 88, 123
5, 34114, Note_on_c, 3, 85, 0
5, 34241, Note_on_c, 3, 88, 0
5, 34380, Note_on_c, 3, 71, 118
5, 34380, Lyric_t, ""
5, 34401, Note_on_c, 3, 71, 0
5, 34410, Note_on_c, 3, 76, 127
5, 34410, Lyric_t, "cou"
5, 34453, Note_on_c, 3, 76, 0
5, 34470, Note_on_c, 3, 76, 127
5, 34470, Lyric_t, "te "
5, 34527, Note_on_c, 3, 76, 0
5, 34530, Note_on_c, 3, 78, 127
5, 34530, Lyric_t, "moi..."
5, 34530, Lyric_t, "\015"
5, 34586, Note_on_c, 3, 78, 0
5, 34590, Note_on_c, 3, 76, 122
5, 34618, Note_on_c, 3, 76, 0
5, 34620, Note_on_c, 3, 73, 121
5, 34743, Note_on_c, 3, 73, 0
5, 34800, Note_on_c, 3, 83, 127
5, 34800, Lyric_t, "Et "
5, 34870, Note_on_c, 3, 83, 0
5, 34890, Note_on_c, 3, 81, 127
5, 34890, Lyric_t, "toi "
5, 34965, Note_on_c, 3, 81, 0
5, 34978, Note_on_c, 3, 80, 123
5, 34978, Lyric_t, "le "
5, 35011, Note_on_c, 3, 80, 0
5, 35040, Note_on_c, 3, 81, 127
5, 35040, Lyric_t, "ciel, "
5, 35040, Lyric_t, "\015"
5, 35098, Note_on_c, 3, 80, 121
5, 35100, Note_on_c, 3, 81, 0
5, 35128, Note_on_c, 3, 80, 0
5, 35130, Note_on_c, 3, 76, 118
5, 35221, Note_on_c, 3, 76, 0
5, 35340, Note_on_c, 3, 73, 127
5, 35340, Lyric_t, "en"
5, 35364, Note_on_c, 3, 73, 0
5, 35400, Note_on_c, 3, 76, 127
5, 35400, Lyric_t, "tends "
5, 35418, Note_on_c, 3, 76, 0
5, 35423, Note_on_c, 3, 76, 127
5, 35423, Lyric_t, "ma "
5, 35490, Note_on_c, 3, 78, 127
5, 35490, Lyric_t, "voix..."
5, 35490, Lyric_t, "\015"
5, 35495, Note_on_c, 3, 76, 0
5, 35641, Note_on_c, 3, 78, 0
5, 35670, Note_on_c, 3, 80, 127
5, 35730, Note_on_c, 3, 76, 127
5, 35744, Note_on_c, 3, 80, 0
5, 35928, Note_on_c, 3, 76, 0
5, 36000, Note_on_c, 3, 76, 100
5, 36000, Lyric_t, "Le "
5, 36022, Note_on_c, 3, 76, 0
5, 36050, Note_on_c, 3, 80, 127
5, 36050, Lyric_t, "ciel "
5, 36050, Lyric_t, "\015"
5, 36107, Note_on_c, 3, 80, 0
5, 36300, Note_on_c, 3, 76, 124
5, 36300, Lyric_t, "je "
5, 36319, Note_on_c, 3, 76, 0
5, 36330, Note_on_c, 3, 80, 127
5, 36330, Lyric_t, "prie "
5, 36357, Note_on_c, 3, 80, 0
5, 36391, Note_on_c, 3, 76, 127
5, 36391, Lyric_t, "pour "
5, 36468, Note_on_c, 3, 76, 0
5, 36480, Note_on_c, 3, 76, 127
5, 36480, Lyric_t, "toi..."
5, 36480, Lyric_t, "\015"
5, 36536, Note_on_c, 3, 76, 0
5, 36780, Note_on_c, 3, 80, 123
5, 36780, Lyric_t, "Et "
5, 36832, Note_on_c, 3, 80, 0
5, 36835, Note_on_c, 3, 80, 127
5, 36835, Lyric_t, "toi "
5, 36892, Note_on_c, 3, 80, 0
5, 36900, Note_on_c, 3, 76, 126
5, 36900, Lyric_t, "le "
5, 36956, Note_on_c, 3, 76, 0
5, 36959, Note_on_c, 3, 80, 127
5, 36959, Lyric_t, "ciel, "
5, 36959, Lyric_t, "\015"
5, 36960, Note_on_c, 3, 80, 0
5, 36960, Note_on_c, 3, 80, 127
5, 37017, Note_on_c, 3, 80, 0
5, 37260, Note_on_c, 3, 76, 124
5, 37260, Lyric_t, ""
5, 37279, Note_on_c, 3, 76, 0
5, 37290, Note_on_c, 3, 80, 127
5, 37290, Lyric_t, "cou"
5, 37317, Note_on_c, 3, 80, 0
5, 37351, Note_on_c, 3, 76, 127
5, 37351, Lyric_t, "te "
5, 37428, Note_on_c, 3, 76, 0
5, 37440, Note_on_c, 3, 76, 127
5, 37440, Lyric_t, "moi..."
5, 37440, Lyric_t, "\015"
5, 37496, Note_on_c, 3, 76, 0
5, 37740, Note_on_c, 3, 80, 123
5, 37740, Lyric_t, "Et "
5, 37792, Note_on_c, 3, 80, 0
5, 37795, Note_on_c, 3, 80, 127
5, 37795, Lyric_t, "toi "
5, 37852, Note_on_c, 3, 80, 0
5, 37860, Note_on_c, 3, 76, 126
5, 37860, Lyric_t, "le "
5, 37916, Note_on_c, 3, 76, 0
5, 37919, Note_on_c, 3, 80, 127
5, 37919, Lyric_t, "ciel, "
5, 37919, Lyric_t, "\015"
5, 37920, Note_on_c, 3, 80, 0
5, 37920, Note_on_c, 3, 80, 127
5, 37977, Note_on_c, 3, 80, 0
5, 38220, Note_on_c, 3, 76, 124
5, 38220, Lyric_t, "en"
5, 38239, Note_on_c, 3, 76, 0
5, 38250, Note_on_c, 3, 80, 127
5, 38250, Lyric_t, "tends "
5, 38277, Note_on_c, 3, 80, 0
5, 38311, Note_on_c, 3, 76, 127
5, 38311, Lyric_t, "ma "
5, 38388, Note_on_c, 3, 76, 0
5, 38400, Note_on_c, 3, 76, 127
5, 38400, Lyric_t, "voix..."
5, 38400, Lyric_t, "\015"
5, 38456, Note_on_c, 3, 76, 0
5, 38700, Note_on_c, 3, 80, 123
5, 38700, Lyric_t, "Je "
5, 38752, Note_on_c, 3, 80, 0
5, 38755, Note_on_c, 3, 80, 127
5, 38755, Lyric_t, "prie "
5, 38812, Note_on_c, 3, 80, 0
5, 38820, Note_on_c, 3, 76, 126
5, 38820, Lyric_t, "la "
5, 38876, Note_on_c, 3, 76, 0
5, 38879, Note_on_c, 3, 80, 127
5, 38879, Lyric_t, "terre, "
5, 38879, Lyric_t, "\015"
5, 38880, Note_on_c, 3, 80, 0
5, 38880, Note_on_c, 3, 80, 127
5, 38937, Note_on_c, 3, 80, 0
5, 39180, Note_on_c, 3, 76, 124
5, 39180, Lyric_t, "de "
5, 39199, Note_on_c, 3, 76, 0
5, 39210, Note_on_c, 3, 80, 127
5, 39210, Lyric_t, "toute "
5, 39237, Note_on_c, 3, 80, 0
5, 39271, Note_on_c, 3, 76, 127
5, 39271, Lyric_t, "ma "
5, 39348, Note_on_c, 3, 76, 0
5, 39360, Note_on_c, 3, 76, 127
5, 39360, Lyric_t, "voix..."
5, 39360, Lyric_t, "\015"
5, 39416, Note_on_c, 3, 76, 0
5, 39660, Note_on_c, 3, 80, 123
5, 39660, Lyric_t, "Et "
5, 39712, Note_on_c, 3, 80, 0
5, 39715, Note_on_c, 3, 80, 127
5, 39715, Lyric_t, "toi "
5, 39772, Note_on_c, 3, 80, 0
5, 39780, Note_on_c, 3, 76, 126
5, 39780, Lyric_t, "le "
5, 39836, Note_on_c, 3, 76, 0
5, 39839, Note_on_c, 3, 80, 127
5, 39839, Lyric_t, "ciel, "
5, 39839, Lyric_t, "\015"
5, 39840, Note_on_c, 3, 80, 0
5, 39840, Note_on_c, 3, 80, 127
5, 39897, Note_on_c, 3, 80, 0
5, 40140, Note_on_c, 3, 76, 124
5, 40140, Lyric_t, "nous "
5, 40159, Note_on_c, 3, 76, 0
5, 40170, Note_on_c, 3, 80, 127
5, 40170, Lyric_t, "ou"
5, 40197, Note_on_c, 3, 80, 0
5, 40231, Note_on_c, 3, 76, 127
5, 40231, Lyric_t, "blie "
5, 40308, Note_on_c, 3, 76, 0
5, 40320, Note_on_c, 3, 76, 127
5, 40320, Lyric_t, "pas..."
5, 40320, Lyric_t, "\015"
5, 40376, Note_on_c, 3, 76, 0
5, 40620, Note_on_c, 3, 80, 123
5, 40620, Lyric_t, "Et "
5, 40672, Note_on_c, 3, 80, 0
5, 40675, Note_on_c, 3, 80, 127
5, 40675, Lyric_t, "toi "
5, 40732, Note_on_c, 3, 80, 0
5, 40740, Note_on_c, 3, 76, 126
5, 40740, Lyric_t, "le "
5, 40796, Note_on_c, 3, 76, 0
5, 40799, Note_on_c, 3, 80, 127
5, 40799, Lyric_t, "ciel, "
5, 40799, Lyric_t, "\015"
5, 40800, Note_on_c, 3, 80, 0
5, 40800, Note_on_c, 3, 80, 127
5, 40857, Note_on_c, 3, 80, 0
5, 41100, Note_on_c, 3, 76, 124
5, 41100, Lyric_t, "nous "
5, 41119, Note_on_c, 3, 76, 0
5, 41130, Note_on_c, 3, 80, 127
5, 41130, Lyric_t, "ou"
5, 41157, Note_on_c, 3, 80, 0
5, 41191, Note_on_c, 3, 76, 127
5, 41191, Lyric_t, "blie "
5, 41268, Note_on_c, 3, 76, 0
5, 41280, Note_on_c, 3, 76, 127
5, 41280, Lyric_t, "pas..."
5, 41280, Lyric_t, "\015"
5, 41280, Lyric_t, "\012"
5, 41336, Note_on_c, 3, 76, 0
5, 44459, Note_on_c, 3, 76, 123
5, 44459, Lyric_t, "Je "
5, 44477, Note_on_c, 3, 76, 0
5, 44490, Note_on_c, 3, 79, 123
5, 44490, Lyric_t, "prie "
5, 44508, Note_on_c, 3, 79, 0
5, 44547, Note_on_c, 3, 79, 127
5, 44547, Lyric_t, "la "
5, 44625, Note_on_c, 3, 79, 0
5, 44640, Note_on_c, 3, 83, 127
5, 44640, Lyric_t, "paix, "
5, 44640, Lyric_t, "\015"
5, 44697, Note_on_c, 3, 83, 0
5, 44940, Note_on_c, 3, 79, 124
5, 44940, Lyric_t, "l'i"
5, 44959, Note_on_c, 3, 79, 0
5, 44970, Note_on_c, 3, 83, 127
5, 44970, Lyric_t, "nes"
5, 44997, Note_on_c, 3, 83, 0
5, 45031, Note_on_c, 3, 79, 127
5, 45031, Lyric_t, "p"
5, 45108, Note_on_c, 3, 79, 0
5, 45120, Note_on_c, 3, 79, 127
5, 45120, Lyric_t, "r..."
5, 45120, Lyric_t, "\015"
5, 45176, Note_on_c, 3, 79, 0
5, 45420, Note_on_c, 3, 83, 123
5, 45420, Lyric_t, "Les "
5, 45472, Note_on_c, 3, 83, 0
5, 45475, Note_on_c, 3, 83, 127
5, 45475, Lyric_t, "'No"
5, 45532, Note_on_c, 3, 83, 0
5, 45540, Note_on_c, 3, 79, 126
5, 45540, Lyric_t, "tre "
5, 45596, Note_on_c, 3, 79, 0
5, 45599, Note_on_c, 3, 83, 127
5, 45599, Lyric_t, "Pre' "
5, 45599, Lyric_t, "\015"
5, 45669, Note_on_c, 3, 83, 0
5, 45900, Note_on_c, 3, 74, 127
5, 45900, Lyric_t, "n'ont "
5, 45929, Note_on_c, 3, 74, 0
5, 45960, Note_on_c, 3, 76, 127
5, 45960, Lyric_t, "rien "
5, 45984, Note_on_c, 3, 76, 0
5, 45992, Note_on_c, 3, 79, 127
5, 45992, Lyric_t, "don"
5, 46042, Note_on_c, 3, 79, 0
5, 46050, Note_on_c, 3, 79, 127
5, 46050, Lyric_t, "n..."
5, 46050, Lyric_t, "\015"
5, 46050, Lyric_t, "\012"
5, 46126, Note_on_c, 3, 79, 0
5, 47042, Control_c, 3, 1, 11
5, 47043, Control_c, 3, 1, 12
5, 47044, Control_c, 3, 1, 13
5, 47046, Control_c, 3, 1, 14
5, 47047, Control_c, 3, 1, 15
5, 47048, Control_c, 3, 1, 16
5, 47050, Control_c, 3, 1, 17
5, 47053, Control_c, 3, 1, 18
5, 47054, Control_c, 3, 1, 19
5, 47055, Control_c, 3, 1, 20
5, 47057, Control_c, 3, 1, 21
5, 47058, Control_c, 3, 1, 22
5, 47059, Control_c, 3, 1, 23
5, 47060, Control_c, 3, 1, 24
5, 47139, Control_c, 3, 1, 23
5, 47140, Control_c, 3, 1, 21
5, 47141, Control_c, 3, 1, 20
5, 47141, Control_c, 3, 1, 19
5, 47143, Control_c, 3, 1, 17
5, 47143, Control_c, 3, 1, 16
5, 47144, Control_c, 3, 1, 15
5, 47145, Control_c, 3, 1, 13
5, 47147, Control_c, 3, 1, 12
5, 47340, Note_on_c, 3, 79, 127
5, 47340, Lyric_t, "Et "
5, 47359, Note_on_c, 3, 79, 0
5, 47400, Note_on_c, 3, 83, 127
5, 47400, Lyric_t, "tous "
5, 47439, Note_on_c, 3, 83, 0
5, 47453, Note_on_c, 3, 86, 127
5, 47453, Lyric_t, "les "
5, 47490, Note_on_c, 3, 86, 0
5, 47518, Note_on_c, 3, 88, 127
5, 47518, Lyric_t, "hom"
5, 47541, Note_on_c, 3, 88, 0
5, 47580, Note_on_c, 3, 86, 127
5, 47580, Lyric_t, "mes "
5, 47613, Note_on_c, 3, 86, 0
5, 47640, Note_on_c, 3, 86, 127
5, 47640, Lyric_t, "de "
5, 47670, Note_on_c, 3, 83, 123
5, 47670, Lyric_t, "lu"
5, 47675, Note_on_c, 3, 86, 0
5, 47683, Control_c, 3, 1, 11
5, 47686, Control_c, 3, 1, 10
5, 47693, Note_on_c, 3, 83, 0
5, 47700, Note_on_c, 3, 88, 127
5, 47700, Lyric_t, "mire..."
5, 47700, Lyric_t, "\015"
5, 47769, Note_on_c, 3, 88, 0
5, 47799, Note_on_c, 3, 86, 126
5, 47799, Lyric_t, "Qui "
5, 47864, Note_on_c, 3, 86, 0
5, 47880, Note_on_c, 3, 83, 117
5, 47880, Lyric_t, "font "
5, 47940, Note_on_c, 3, 83, 0
5, 47940, Note_on_c, 3, 79, 127
5, 47970, Note_on_c, 3, 79, 0
5, 48000, Note_on_c, 3, 79, 127
5, 48000, Lyric_t, "la "
5, 48039, Note_on_c, 3, 79, 0
5, 48060, Note_on_c, 3, 79, 122
5, 48060, Lyric_t, "guerre "
5, 48076, Note_on_c, 3, 79, 0
5, 48089, Note_on_c, 3, 79, 127
5, 48089, Lyric_t, " "
5, 48090, Note_on_c, 3, 79, 0
5, 48090, Note_on_c, 3, 79, 127
5, 48133, Note_on_c, 3, 79, 0
5, 48149, Note_on_c, 3, 79, 123
5, 48149, Lyric_t, "la "
5, 48150, Note_on_c, 3, 79, 0
5, 48150, Note_on_c, 3, 79, 121
5, 48171, Note_on_c, 3, 79, 0
5, 48179, Note_on_c, 3, 74, 127
5, 48179, Lyric_t, "guerre..."
5, 48179, Lyric_t, "\015"
5, 48179, Lyric_t, "\012"
5, 48239, Note_on_c, 3, 74, 0
5, 48302, Note_on_c, 3, 86, 127
5, 48302, Lyric_t, "Je "
5, 48326, Note_on_c, 3, 86, 0
5, 48360, Note_on_c, 3, 83, 127
5, 48360, Lyric_t, "prie "
5, 48409, Note_on_c, 3, 83, 0
5, 48420, Note_on_c, 3, 83, 127
5, 48420, Lyric_t, "nos "
5, 48437, Note_on_c, 3, 83, 0
5, 48480, Note_on_c, 3, 84, 127
5, 48480, Lyric_t, "rves, "
5, 48480, Lyric_t, "\015"
5, 48538, Note_on_c, 3, 83, 112
5, 48541, Note_on_c, 3, 84, 0
5, 48569, Note_on_c, 3, 79, 110
5, 48575, Note_on_c, 3, 83, 0
5, 48667, Note_on_c, 3, 79, 0
5, 48775, Note_on_c, 3, 79, 127
5, 48775, Lyric_t, "je "
5, 48792, Note_on_c, 3, 79, 0
5, 48807, Note_on_c, 3, 83, 127
5, 48807, Lyric_t, "prie "
5, 48828, Note_on_c, 3, 83, 0
5, 48865, Note_on_c, 3, 79, 127
5, 48865, Lyric_t, "nos "
5, 48947, Note_on_c, 3, 79, 0
5, 48955, Note_on_c, 3, 79, 127
5, 48955, Lyric_t, "bras..."
5, 48955, Lyric_t, "\015"
5, 49022, Note_on_c, 3, 79, 0
5, 49253, Note_on_c, 3, 79, 126
5, 49253, Lyric_t, "Mais "
5, 49279, Note_on_c, 3, 79, 0
5, 49318, Note_on_c, 3, 83, 127
5, 49318, Lyric_t, "toi "
5, 49343, Note_on_c, 3, 83, 0
5, 49350, Note_on_c, 3, 86, 127
5, 49350, Lyric_t, "le "
5, 49428, Note_on_c, 3, 86, 0
5, 49440, Note_on_c, 3, 88, 127
5, 49440, Lyric_t, "ciel, "
5, 49440, Lyric_t, "\015"
5, 49470, Note_on_c, 3, 91, 123
5, 49474, Note_on_c, 3, 88, 0
5, 49601, Note_on_c, 3, 91, 0
5, 49740, Note_on_c, 3, 74, 118
5, 49740, Lyric_t, "en"
5, 49761, Note_on_c, 3, 74, 0
5, 49770, Note_on_c, 3, 79, 127
5, 49770, Lyric_t, "tends "
5, 49813, Note_on_c, 3, 79, 0
5, 49830, Note_on_c, 3, 79, 127
5, 49830, Lyric_t, "ma "
5, 49887, Note_on_c, 3, 79, 0
5, 49890, Note_on_c, 3, 81, 127
5, 49890, Lyric_t, "voix..."
5, 49890, Lyric_t, "\015"
5, 49946, Note_on_c, 3, 81, 0
5, 49950, Note_on_c, 3, 79, 122
5, 49978, Note_on_c, 3, 79, 0
5, 49980, Note_on_c, 3, 76, 121
5, 50103, Note_on_c, 3, 76, 0
5, 50220, Note_on_c, 3, 76, 127
5, 50220, Lyric_t, "Et "
5, 50244, Note_on_c, 3, 76, 0
5, 50280, Note_on_c, 3, 79, 127
5, 50280, Lyric_t, "toi "
5, 50329, Note_on_c, 3, 79, 0
5, 50340, Note_on_c, 3, 79, 127
5, 50340, Lyric_t, "le "
5, 50393, Note_on_c, 3, 79, 0
5, 50400, Note_on_c, 3, 83, 127
5, 50400, Lyric_t, "ciel, "
5, 50400, Lyric_t, "\015"
5, 50457, Note_on_c, 3, 83, 0
5, 50700, Note_on_c, 3, 79, 124
5, 50700, Lyric_t, "en"
5, 50719, Note_on_c, 3, 79, 0
5, 50730, Note_on_c, 3, 83, 127
5, 50730, Lyric_t, "tends "
5, 50757, Note_on_c, 3, 83, 0
5, 50791, Note_on_c, 3, 79, 127
5, 50791, Lyric_t, "nos "
5, 50868, Note_on_c, 3, 79, 0
5, 50880, Note_on_c, 3, 79, 127
5, 50880, Lyric_t, "voix..."
5, 50880, Lyric_t, "\015"
5, 50936, Note_on_c, 3, 79, 0
5, 51180, Note_on_c, 3, 83, 123
5, 51180, Lyric_t, "Et "
5, 51232, Note_on_c, 3, 83, 0
5, 51235, Note_on_c, 3, 83, 127
5, 51235, Lyric_t, "toi "
5, 51292, Note_on_c, 3, 83, 0
5, 51300, Note_on_c, 3, 79, 126
5, 51300, Lyric_t, "le "
5, 51356, Note_on_c, 3, 79, 0
5, 51360, Note_on_c, 3, 83, 127
5, 51360, Lyric_t, "ciel..."
5, 51360, Lyric_t, "\015"
5, 51417, Note_on_c, 3, 83, 0
5, 51660, Note_on_c, 3, 79, 124
5, 51660, Lyric_t, "Nous "
5, 51679, Note_on_c, 3, 79, 0
5, 51690, Note_on_c, 3, 83, 127
5, 51690, Lyric_t, "ou"
5, 51717, Note_on_c, 3, 83, 0
5, 51751, Note_on_c, 3, 79, 127
5, 51751, Lyric_t, "blie "
5, 51828, Note_on_c, 3, 79, 0
5, 51840, Note_on_c, 3, 79, 127
5, 51840, Lyric_t, "pas..."
5, 51840, Lyric_t, "\015"
5, 51896, Note_on_c, 3, 79, 0
5, 52140, Note_on_c, 3, 83, 123
5, 52140, Lyric_t, "Et "
5, 52192, Note_on_c, 3, 83, 0
5, 52195, Note_on_c, 3, 83, 127
5, 52195, Lyric_t, "toi "
5, 52252, Note_on_c, 3, 83, 0
5, 52260, Note_on_c, 3, 79, 126
5, 52260, Lyric_t, "le "
5, 52316, Note_on_c, 3, 79, 0
5, 52319, Note_on_c, 3, 83, 127
5, 52319, Lyric_t, "ciel, "
5, 52319, Lyric_t, "\015"
5, 52320, Note_on_c, 3, 83, 0
5, 52320, Note_on_c, 3, 83, 127
5, 52377, Note_on_c, 3, 83, 0
5, 52620, Note_on_c, 3, 79, 124
5, 52620, Lyric_t, "en"
5, 52639, Note_on_c, 3, 79, 0
5, 52650, Note_on_c, 3, 83, 127
5, 52650, Lyric_t, "tends "
5, 52677, Note_on_c, 3, 83, 0
5, 52711, Note_on_c, 3, 79, 127
5, 52711, Lyric_t, "ma "
5, 52788, Note_on_c, 3, 79, 0
5, 52800, Note_on_c, 3, 79, 127
5, 52800, Lyric_t, "voix..."
5, 52800, Lyric_t, "\015"
5, 52856, Note_on_c, 3, 79, 0
5, 53100, Note_on_c, 3, 83, 123
5, 53100, Lyric_t, "Et "
5, 53152, Note_on_c, 3, 83, 0
5, 53155, Note_on_c, 3, 83, 127
5, 53155, Lyric_t, "toi "
5, 53212, Note_on_c, 3, 83, 0
5, 53220, Note_on_c, 3, 79, 126
5, 53220, Lyric_t, "le "
5, 53276, Note_on_c, 3, 79, 0
5, 53279, Note_on_c, 3, 83, 127
5, 53279, Lyric_t, "ciel, "
5, 53279, Lyric_t, "\015"
5, 53280, Note_on_c, 3, 83, 0
5, 53280, Note_on_c, 3, 83, 127
5, 53337, Note_on_c, 3, 83, 0
5, 53580, Note_on_c, 3, 79, 124
5, 53580, Lyric_t, "en"
5, 53599, Note_on_c, 3, 79, 0
5, 53610, Note_on_c, 3, 83, 127
5, 53610, Lyric_t, "tends "
5, 53637, Note_on_c, 3, 83, 0
5, 53671, Note_on_c, 3, 79, 127
5, 53671, Lyric_t, "nos "
5, 53748, Note_on_c, 3, 79, 0
5, 53760, Note_on_c, 3, 79, 127
5, 53760, Lyric_t, "voix..."
5, 53760, Lyric_t, "\015"
5, 53816, Note_on_c, 3, 79, 0
5, 54060, Note_on_c, 3, 83, 123
5, 54060, Lyric_t, "Et "
5, 54112, Note_on_c, 3, 83, 0
5, 54115, Note_on_c, 3, 83, 127
5, 54115, Lyric_t, "toi "
5, 54172, Note_on_c, 3, 83, 0
5, 54180, Note_on_c, 3, 79, 126
5, 54180, Lyric_t, "le "
5, 54236, Note_on_c, 3, 79, 0
5, 54239, Note_on_c, 3, 83, 127
5, 54239, Lyric_t, "ciel..."
5, 54239, Lyric_t, "\015"
5, 54240, Note_on_c, 3, 83, 0
5, 54240, Note_on_c, 3, 83, 127
5, 54297, Note_on_c, 3, 83, 0
5, 54540, Note_on_c, 3, 79, 124
5, 54540, Lyric_t, "Nous "
5, 54559, Note_on_c, 3, 79, 0
5, 54570, Note_on_c, 3, 83, 127
5, 54570, Lyric_t, "ou"
5, 54597, Note_on_c, 3, 83, 0
5, 54631, Note_on_c, 3, 79, 127
5, 54631, Lyric_t, "blie "
5, 54708, Note_on_c, 3, 79, 0
5, 54720, Note_on_c, 3, 79, 127
5, 54720, Lyric_t, "pas..."
5, 54720, Lyric_t, "/. "
5, 54776, Note_on_c, 3, 79, 0
5, 55020, Note_on_c, 3, 83, 123
5, 55020, Lyric_t, ". "
5, 55072, Note_on_c, 3, 83, 0
5, 55075, Note_on_c, 3, 83, 127
5, 55075, Lyric_t, ". "
5, 55075, Lyric_t, ". "
5, 55075, Lyric_t, "/......"
5, 55132, Note_on_c, 3, 83, 0
5, 55140, Note_on_c, 3, 79, 126
5, 55196, Note_on_c, 3, 79, 0
5, 55200, Note_on_c, 3, 83, 127
5, 55257, Note_on_c, 3, 83, 0
5, 55500, Note_on_c, 3, 79, 124
5, 55519, Note_on_c, 3, 79, 0
5, 55530, Note_on_c, 3, 83, 127
5, 55557, Note_on_c, 3, 83, 0
5, 55591, Note_on_c, 3, 79, 127
5, 55668, Note_on_c, 3, 79, 0
5, 55680, Note_on_c, 3, 79, 127
5, 55736, Note_on_c, 3, 79, 0
5, 56160, Note_on_c, 3, 83, 127
5, 56217, Note_on_c, 3, 83, 0
5, 56460, Note_on_c, 3, 79, 124
5, 56479, Note_on_c, 3, 79, 0
5, 56490, Note_on_c, 3, 83, 127
5, 56517, Note_on_c, 3, 83, 0
5, 56551, Note_on_c, 3, 79, 127
5, 56628, Note_on_c, 3, 79, 0
5, 56640, Note_on_c, 3, 79, 127
5, 56696, Note_on_c, 3, 79, 0
5, 56940, Note_on_c, 3, 83, 123
5, 56992, Note_on_c, 3, 83, 0
5, 56995, Note_on_c, 3, 83, 127
5, 57052, Note_on_c, 3, 83, 0
5, 57060, Note_on_c, 3, 79, 126
5, 57116, Note_on_c, 3, 79, 0
5, 57120, Note_on_c, 3, 83, 127
5, 57177, Note_on_c, 3, 83, 0
5, 57420, Note_on_c, 3, 79, 124
5, 57439, Note_on_c, 3, 79, 0
5, 57450, Note_on_c, 3, 83, 127
5, 57477, Note_on_c, 3, 83, 0
5, 57511, Note_on_c, 3, 79, 127
5, 57588, Note_on_c, 3, 79, 0
5, 57600, Note_on_c, 3, 79, 127
5, 57656, Note_on_c, 3, 79, 0
5, 57656, End_track
6, 0, Start_track
6, 0, MIDI_port, 0
6, 47, Control_c, 4, 32, 1
6, 140, Control_c, 4, 0, 0
6, 142, Program_c, 4, 65
6, 143, Control_c, 4, 7, 106
6, 143, Control_c, 4, 10, 64
6, 144, Control_c, 4, 121, 0
6, 146, Control_c, 4, 100, 0
6, 147, Control_c, 4, 101, 0
6, 149, Control_c, 4, 6, 2
6, 150, Control_c, 4, 91, 101
6, 151, Control_c, 4, 93, 50
6, 155, Control_c, 4, 1, 0
6, 156, Control_c, 4, 11, 127
6, 157, Control_c, 4, 94, 20
6, 41642, Note_on_c, 4, 69, 127
6, 41665, Note_on_c, 4, 69, 0
6, 41671, Note_on_c, 4, 69, 117
6, 41692, Note_on_c, 4, 69, 0
6, 41700, Note_on_c, 4, 69, 127
6, 41722, Note_on_c, 4, 69, 0
6, 41726, Note_on_c, 4, 69, 127
6, 41758, Note_on_c, 4, 69, 0
6, 41760, Pitch_bend_c, 4, 7936
6, 41760, Pitch_bend_c, 4, 7040
6, 41762, Pitch_bend_c, 4, 0
6, 41762, Pitch_bend_c, 4, 6016
6, 41763, Pitch_bend_c, 4, 21
6, 41764, Pitch_bend_c, 4, 14
6, 41765, Pitch_bend_c, 4, 7
6, 41766, Pitch_bend_c, 4, 1
6, 41769, Note_on_c, 4, 73, 119
6, 41780, Pitch_bend_c, 4, 384
6, 41781, Pitch_bend_c, 4, 896
6, 41782, Pitch_bend_c, 4, 1536
6, 41783, Pitch_bend_c, 4, 2176
6, 41784, Pitch_bend_c, 4, 2816
6, 41785, Pitch_bend_c, 4, 3456
6, 41785, Pitch_bend_c, 4, 4224
6, 41786, Pitch_bend_c, 4, 4864
6, 41787, Pitch_bend_c, 4, 5760
6, 41789, Pitch_bend_c, 4, 6400
6, 41789, Pitch_bend_c, 4, 7040
6, 41790, Pitch_bend_c, 4, 7680
6, 41791, Pitch_bend_c, 4, 8192
6, 41816, Note_on_c, 4, 76, 117
6, 41823, Note_on_c, 4, 73, 0
6, 41844, Control_c, 4, 1, 1
6, 41845, Control_c, 4, 1, 3
6, 41846, Control_c, 4, 1, 5
6, 41847, Control_c, 4, 1, 8
6, 41848, Control_c, 4, 1, 11
6, 41849, Control_c, 4, 1, 14
6, 41849, Control_c, 4, 1, 17
6, 41851, Control_c, 4, 1, 20
6, 41852, Control_c, 4, 1, 24
6, 41853, Control_c, 4, 1, 26
6, 41854, Control_c, 4, 1, 29
6, 41855, Control_c, 4, 1, 32
6, 41856, Control_c, 4, 1, 35
6, 41857, Control_c, 4, 1, 37
6, 41858, Control_c, 4, 1, 39
6, 41859, Control_c, 4, 1, 41
6, 41860, Control_c, 4, 1, 43
6, 41861, Control_c, 4, 1, 44
6, 41862, Control_c, 4, 1, 46
6, 41863, Control_c, 4, 1, 48
6, 41864, Control_c, 4, 1, 50
6, 41865, Control_c, 4, 1, 52
6, 41866, Control_c, 4, 1, 53
6, 41867, Control_c, 4, 1, 55
6, 41868, Control_c, 4, 1, 56
6, 41869, Control_c, 4, 1, 57
6, 41870, Control_c, 4, 1, 59
6, 41871, Control_c, 4, 1, 60
6, 41872, Control_c, 4, 1, 61
6, 41873, Control_c, 4, 1, 62
6, 41874, Control_c, 4, 1, 63
6, 41875, Control_c, 4, 1, 64
6, 41876, Control_c, 4, 1, 65
6, 41880, Control_c, 4, 1, 66
6, 41911, Control_c, 4, 1, 65
6, 41914, Control_c, 4, 1, 64
6, 41915, Control_c, 4, 1, 63
6, 41916, Control_c, 4, 1, 62
6, 41917, Control_c, 4, 1, 60
6, 41918, Control_c, 4, 1, 58
6, 41919, Control_c, 4, 1, 56
6, 41920, Control_c, 4, 1, 54
6, 41921, Control_c, 4, 1, 50
6, 41922, Control_c, 4, 1, 46
6, 41923, Control_c, 4, 1, 43
6, 41924, Control_c, 4, 1, 38
6, 41925, Control_c, 4, 1, 33
6, 41926, Control_c, 4, 1, 27
6, 41927, Control_c, 4, 1, 20
6, 41928, Control_c, 4, 1, 12
6, 41929, Control_c, 4, 1, 5
6, 41930, Control_c, 4, 1, 0
6, 41944, Note_on_c, 4, 76, 0
6, 41946, Note_on_c, 4, 73, 117
6, 41968, Note_on_c, 4, 73, 0
6, 41996, Note_on_c, 4, 78, 127
6, 42018, Note_on_c, 4, 79, 113
6, 42021, Note_on_c, 4, 78, 0
6, 42032, Note_on_c, 4, 78, 86
6, 42045, Note_on_c, 4, 79, 0
6, 42058, Note_on_c, 4, 76, 121
6, 42062, Note_on_c, 4, 78, 0
6, 42078, Control_c, 4, 1, 1
6, 42079, Control_c, 4, 1, 3
6, 42080, Control_c, 4, 1, 5
6, 42081, Control_c, 4, 1, 7
6, 42082, Control_c, 4, 1, 10
6, 42083, Control_c, 4, 1, 12
6, 42084, Control_c, 4, 1, 15
6, 42085, Control_c, 4, 1, 17
6, 42086, Control_c, 4, 1, 19
6, 42087, Control_c, 4, 1, 22
6, 42088, Control_c, 4, 1, 24
6, 42089, Control_c, 4, 1, 27
6, 42090, Control_c, 4, 1, 30
6, 42092, Control_c, 4, 1, 33
6, 42093, Control_c, 4, 1, 35
6, 42094, Control_c, 4, 1, 38
6, 42094, Control_c, 4, 1, 41
6, 42095, Control_c, 4, 1, 43
6, 42096, Control_c, 4, 1, 45
6, 42098, Control_c, 4, 1, 48
6, 42099, Control_c, 4, 1, 50
6, 42100, Control_c, 4, 1, 52
6, 42100, Control_c, 4, 1, 53
6, 42101, Control_c, 4, 1, 54
6, 42103, Control_c, 4, 1, 55
6, 42104, Control_c, 4, 1, 56
6, 42105, Control_c, 4, 1, 57
6, 42115, Control_c, 4, 1, 58
6, 42119, Control_c, 4, 1, 60
6, 42120, Control_c, 4, 1, 61
6, 42122, Control_c, 4, 1, 62
6, 42124, Control_c, 4, 1, 63
6, 42138, Control_c, 4, 1, 64
6, 42142, Note_on_c, 4, 76, 0
6, 42144, Control_c, 4, 1, 65
6, 42157, Control_c, 4, 1, 66
6, 42164, Note_on_c, 4, 78, 123
6, 42164, Control_c, 4, 1, 67
6, 42166, Control_c, 4, 1, 68
6, 42168, Control_c, 4, 1, 69
6, 42170, Control_c, 4, 1, 70
6, 42189, Control_c, 4, 1, 68
6, 42190, Control_c, 4, 1, 67
6, 42191, Control_c, 4, 1, 65
6, 42193, Control_c, 4, 1, 63
6, 42194, Control_c, 4, 1, 59
6, 42195, Note_on_c, 4, 78, 0
6, 42195, Control_c, 4, 1, 55
6, 42196, Control_c, 4, 1, 50
6, 42196, Control_c, 4, 1, 46
6, 42198, Control_c, 4, 1, 40
6, 42199, Control_c, 4, 1, 34
6, 42200, Control_c, 4, 1, 27
6, 42200, Note_on_c, 4, 76, 126
6, 42201, Control_c, 4, 1, 20
6, 42202, Control_c, 4, 1, 12
6, 42204, Control_c, 4, 1, 5
6, 42205, Control_c, 4, 1, 0
6, 42222, Note_on_c, 4, 76, 0
6, 42240, Note_on_c, 4, 75, 126
6, 42275, Note_on_c, 4, 75, 0
6, 42278, Note_on_c, 4, 78, 119
6, 42303, Note_on_c, 4, 78, 0
6, 42316, Note_on_c, 4, 73, 117
6, 42331, Note_on_c, 4, 75, 117
6, 42337, Note_on_c, 4, 73, 0
6, 42348, Note_on_c, 4, 73, 111
6, 42357, Note_on_c, 4, 75, 0
6, 42373, Note_on_c, 4, 73, 0
6, 42373, Note_on_c, 4, 71, 118
6, 42542, Note_on_c, 4, 71, 0
6, 42552, Note_on_c, 4, 36, 90
6, 42555, Note_on_c, 4, 36, 0
6, 42557, Control_c, 4, 1, 3
6, 42558, Control_c, 4, 1, 7
6, 42560, Control_c, 4, 1, 11
6, 42560, Control_c, 4, 1, 14
6, 42561, Control_c, 4, 1, 19
6, 42562, Control_c, 4, 1, 22
6, 42563, Control_c, 4, 1, 26
6, 42565, Control_c, 4, 1, 30
6, 42565, Control_c, 4, 1, 33
6, 42567, Control_c, 4, 1, 36
6, 42568, Control_c, 4, 1, 39
6, 42569, Control_c, 4, 1, 41
6, 42570, Control_c, 4, 1, 44
6, 42570, Control_c, 4, 1, 47
6, 42572, Control_c, 4, 1, 51
6, 42573, Control_c, 4, 1, 54
6, 42574, Control_c, 4, 1, 57
6, 42575, Control_c, 4, 1, 60
6, 42576, Control_c, 4, 1, 63
6, 42577, Control_c, 4, 1, 65
6, 42578, Control_c, 4, 1, 67
6, 42579, Control_c, 4, 1, 69
6, 42580, Control_c, 4, 1, 71
6, 42581, Control_c, 4, 1, 74
6, 42582, Control_c, 4, 1, 76
6, 42583, Control_c, 4, 1, 78
6, 42584, Control_c, 4, 1, 80
6, 42585, Control_c, 4, 1, 82
6, 42586, Control_c, 4, 1, 84
6, 42587, Control_c, 4, 1, 86
6, 42588, Control_c, 4, 1, 88
6, 42590, Control_c, 4, 1, 90
6, 42590, Control_c, 4, 1, 91
6, 42592, Control_c, 4, 1, 93
6, 42593, Control_c, 4, 1, 95
6, 42593, Control_c, 4, 1, 96
6, 42594, Control_c, 4, 1, 97
6, 42595, Control_c, 4, 1, 98
6, 42597, Control_c, 4, 1, 99
6, 42597, Control_c, 4, 1, 100
6, 42598, Control_c, 4, 1, 101
6, 42600, Control_c, 4, 1, 102
6, 42608, Control_c, 4, 1, 101
6, 42609, Note_on_c, 4, 69, 127
6, 42611, Control_c, 4, 1, 100
6, 42613, Control_c, 4, 1, 99
6, 42614, Control_c, 4, 1, 98
6, 42616, Control_c, 4, 1, 97
6, 42620, Control_c, 4, 1, 96
6, 42623, Control_c, 4, 1, 95
6, 42625, Control_c, 4, 1, 94
6, 42627, Control_c, 4, 1, 92
6, 42628, Control_c, 4, 1, 91
6, 42629, Control_c, 4, 1, 89
6, 42630, Control_c, 4, 1, 86
6, 42631, Control_c, 4, 1, 83
6, 42632, Control_c, 4, 1, 79
6, 42633, Control_c, 4, 1, 74
6, 42634, Control_c, 4, 1, 68
6, 42635, Control_c, 4, 1, 60
6, 42636, Control_c, 4, 1, 51
6, 42636, Note_on_c, 4, 71, 127
6, 42637, Control_c, 4, 1, 40
6, 42638, Control_c, 4, 1, 24
6, 42639, Control_c, 4, 1, 7
6, 42640, Control_c, 4, 1, 0
6, 42642, Note_on_c, 4, 69, 0
6, 42642, Control_c, 4, 1, 1
6, 42645, Control_c, 4, 1, 2
6, 42665, Note_on_c, 4, 72, 123
6, 42670, Note_on_c, 4, 71, 0
6, 42691, Note_on_c, 4, 72, 0
6, 42693, Note_on_c, 4, 74, 114
6, 42717, Note_on_c, 4, 74, 0
6, 42725, Note_on_c, 4, 76, 119
6, 42758, Note_on_c, 4, 76, 0
6, 42758, Note_on_c, 4, 79, 127
6, 42781, Note_on_c, 4, 79, 0
6, 42811, Note_on_c, 4, 83, 127
6, 42844, Note_on_c, 4, 84, 117
6, 42847, Note_on_c, 4, 83, 0
6, 42861, Note_on_c, 4, 83, 114
6, 42867, Note_on_c, 4, 84, 0
6, 42885, Note_on_c, 4, 81, 117
6, 42888, Note_on_c, 4, 83, 0
6, 42888, Control_c, 4, 1, 2
6, 42889, Control_c, 4, 1, 4
6, 42890, Control_c, 4, 1, 7
6, 42891, Control_c, 4, 1, 11
6, 42892, Control_c, 4, 1, 15
6, 42894, Control_c, 4, 1, 18
6, 42895, Control_c, 4, 1, 21
6, 42895, Control_c, 4, 1, 24
6, 42896, Control_c, 4, 1, 26
6, 42897, Control_c, 4, 1, 29
6, 42898, Control_c, 4, 1, 30
6, 42899, Control_c, 4, 1, 32
6, 42900, Control_c, 4, 1, 34
6, 42901, Control_c, 4, 1, 35
6, 42903, Control_c, 4, 1, 36
6, 42904, Control_c, 4, 1, 37
6, 42906, Control_c, 4, 1, 38
6, 42908, Control_c, 4, 1, 39
6, 42910, Control_c, 4, 1, 40
6, 42912, Control_c, 4, 1, 41
6, 42912, Control_c, 4, 1, 42
6, 42915, Control_c, 4, 1, 43
6, 42917, Control_c, 4, 1, 45
6, 42919, Control_c, 4, 1, 46
6, 42920, Control_c, 4, 1, 47
6, 42922, Control_c, 4, 1, 48
6, 42923, Control_c, 4, 1, 49
6, 42925, Control_c, 4, 1, 50
6, 42925, Control_c, 4, 1, 51
6, 42928, Control_c, 4, 1, 52
6, 42929, Control_c, 4, 1, 53
6, 42930, Control_c, 4, 1, 54
6, 42932, Control_c, 4, 1, 55
6, 42933, Control_c, 4, 1, 56
6, 42935, Control_c, 4, 1, 57
6, 42937, Control_c, 4, 1, 58
6, 42939, Control_c, 4, 1, 59
6, 42941, Control_c, 4, 1, 60
6, 42943, Control_c, 4, 1, 61
6, 42945, Control_c, 4, 1, 62
6, 42948, Control_c, 4, 1, 63
6, 42958, Control_c, 4, 1, 64
6, 42963, Control_c, 4, 1, 65
6, 42972, Control_c, 4, 1, 66
6, 42973, Note_on_c, 4, 81, 0
6, 42977, Control_c, 4, 1, 67
6, 42981, Control_c, 4, 1, 68
6, 42982, Note_on_c, 4, 79, 114
6, 43006, Note_on_c, 4, 79, 0
6, 43007, Control_c, 4, 1, 67
6, 43008, Control_c, 4, 1, 65
6, 43009, Note_on_c, 4, 78, 100
6, 43009, Control_c, 4, 1, 62
6, 43010, Control_c, 4, 1, 59
6, 43011, Control_c, 4, 1, 54
6, 43012, Control_c, 4, 1, 48
6, 43013, Control_c, 4, 1, 41
6, 43014, Control_c, 4, 1, 32
6, 43015, Control_c, 4, 1, 20
6, 43016, Control_c, 4, 1, 8
6, 43017, Control_c, 4, 1, 0
6, 43037, Note_on_c, 4, 78, 0
6, 43042, Note_on_c, 4, 79, 113
6, 43074, Note_on_c, 4, 78, 113
6, 43080, Note_on_c, 4, 79, 0
6, 43105, Note_on_c, 4, 76, 117
6, 43107, Note_on_c, 4, 78, 0
6, 43122, Note_on_c, 4, 76, 0
6, 43135, Note_on_c, 4, 76, 117
6, 43162, Note_on_c, 4, 76, 0
6, 43164, Note_on_c, 4, 78, 119
6, 43190, Note_on_c, 4, 78, 0
6, 43193, Control_c, 4, 1, 1
6, 43194, Note_on_c, 4, 74, 121
6, 43194, Control_c, 4, 1, 7
6, 43196, Control_c, 4, 1, 12
6, 43197, Control_c, 4, 1, 17
6, 43197, Control_c, 4, 1, 23
6, 43199, Control_c, 4, 1, 28
6, 43200, Control_c, 4, 1, 33
6, 43200, Control_c, 4, 1, 44
6, 43200, Control_c, 4, 1, 41
6, 43200, Control_c, 4, 1, 37
6, 43200, Control_c, 4, 1, 47
6, 43202, Control_c, 4, 1, 50
6, 43203, Control_c, 4, 1, 52
6, 43204, Control_c, 4, 1, 53
6, 43205, Control_c, 4, 1, 55
6, 43206, Control_c, 4, 1, 56
6, 43207, Control_c, 4, 1, 57
6, 43208, Control_c, 4, 1, 58
6, 43209, Control_c, 4, 1, 59
6, 43210, Control_c, 4, 1, 60
6, 43210, Control_c, 4, 1, 61
6, 43212, Control_c, 4, 1, 62
6, 43213, Control_c, 4, 1, 63
6, 43214, Control_c, 4, 1, 64
6, 43215, Control_c, 4, 1, 65
6, 43217, Control_c, 4, 1, 66
6, 43220, Control_c, 4, 1, 67
6, 43223, Control_c, 4, 1, 68
6, 43265, Control_c, 4, 1, 67
6, 43267, Control_c, 4, 1, 66
6, 43269, Control_c, 4, 1, 64
6, 43270, Control_c, 4, 1, 63
6, 43271, Control_c, 4, 1, 62
6, 43272, Control_c, 4, 1, 61
6, 43273, Control_c, 4, 1, 59
6, 43274, Control_c, 4, 1, 57
6, 43275, Control_c, 4, 1, 56
6, 43276, Control_c, 4, 1, 54
6, 43277, Control_c, 4, 1, 52
6, 43278, Control_c, 4, 1, 49
6, 43279, Control_c, 4, 1, 46
6, 43280, Control_c, 4, 1, 44
6, 43281, Control_c, 4, 1, 40
6, 43282, Control_c, 4, 1, 35
6, 43283, Control_c, 4, 1, 29
6, 43284, Control_c, 4, 1, 23
6, 43285, Control_c, 4, 1, 16
6, 43286, Control_c, 4, 1, 9
6, 43287, Control_c, 4, 1, 4
6, 43288, Control_c, 4, 1, 0
6, 43311, Pitch_bend_c, 4, 7808
6, 43312, Pitch_bend_c, 4, 6912
6, 43313, Note_on_c, 4, 74, 0
6, 43313, Pitch_bend_c, 4, 5632
6, 43314, Pitch_bend_c, 4, 3968
6, 43315, Pitch_bend_c, 4, 2560
6, 43317, Pitch_bend_c, 4, 768
6, 43317, Note_on_c, 4, 71, 114
6, 43318, Pitch_bend_c, 4, 0
6, 43340, Pitch_bend_c, 4, 512
6, 43342, Pitch_bend_c, 4, 1280
6, 43342, Pitch_bend_c, 4, 2304
6, 43343, Pitch_bend_c, 4, 4352
6, 43345, Pitch_bend_c, 4, 7936
6, 43346, Pitch_bend_c, 4, 8192
6, 43346, Pitch_bend_c, 4, 8712
6, 43348, Pitch_bend_c, 4, 8192
6, 43379, Note_on_c, 4, 74, 111
6, 43382, Note_on_c, 4, 71, 0
6, 43383, Control_c, 4, 1, 1
6, 43384, Control_c, 4, 1, 3
6, 43385, Control_c, 4, 1, 5
6, 43386, Control_c, 4, 1, 7
6, 43387, Control_c, 4, 1, 10
6, 43388, Control_c, 4, 1, 12
6, 43389, Control_c, 4, 1, 15
6, 43390, Control_c, 4, 1, 17
6, 43390, Control_c, 4, 1, 20
6, 43391, Control_c, 4, 1, 22
6, 43393, Control_c, 4, 1, 25
6, 43393, Control_c, 4, 1, 27
6, 43394, Control_c, 4, 1, 30
6, 43395, Control_c, 4, 1, 32
6, 43396, Control_c, 4, 1, 34
6, 43397, Control_c, 4, 1, 36
6, 43398, Control_c, 4, 1, 38
6, 43400, Control_c, 4, 1, 39
6, 43400, Control_c, 4, 1, 41
6, 43401, Control_c, 4, 1, 43
6, 43402, Control_c, 4, 1, 44
6, 43404, Control_c, 4, 1, 45
6, 43405, Control_c, 4, 1, 47
6, 43405, Control_c, 4, 1, 48
6, 43407, Control_c, 4, 1, 49
6, 43407, Control_c, 4, 1, 50
6, 43408, Control_c, 4, 1, 51
6, 43409, Control_c, 4, 1, 52
6, 43410, Control_c, 4, 1, 53
6, 43412, Control_c, 4, 1, 54
6, 43414, Control_c, 4, 1, 56
6, 43415, Control_c, 4, 1, 57
6, 43417, Control_c, 4, 1, 58
6, 43419, Control_c, 4, 1, 59
6, 43420, Control_c, 4, 1, 60
6, 43421, Control_c, 4, 1, 61
6, 43423, Control_c, 4, 1, 62
6, 43425, Control_c, 4, 1, 63
6, 43426, Control_c, 4, 1, 64
6, 43428, Control_c, 4, 1, 65
6, 43431, Control_c, 4, 1, 66
6, 43435, Control_c, 4, 1, 67
6, 43437, Note_on_c, 4, 74, 0
6, 43438, Control_c, 4, 1, 68
6, 43439, Note_on_c, 4, 74, 117
6, 43440, Control_c, 4, 1, 69
6, 43443, Control_c, 4, 1, 70
6, 43445, Control_c, 4, 1, 71
6, 43447, Control_c, 4, 1, 72
6, 43449, Control_c, 4, 1, 73
6, 43451, Control_c, 4, 1, 75
6, 43454, Control_c, 4, 1, 76
6, 43455, Control_c, 4, 1, 77
6, 43458, Control_c, 4, 1, 78
6, 43460, Control_c, 4, 1, 79
6, 43462, Control_c, 4, 1, 80
6, 43465, Control_c, 4, 1, 81
6, 43480, Control_c, 4, 1, 82
6, 43491, Note_on_c, 4, 74, 0
6, 43493, Control_c, 4, 1, 83
6, 43499, Note_on_c, 4, 76, 123
6, 43500, Control_c, 4, 1, 84
6, 43505, Control_c, 4, 1, 85
6, 43511, Control_c, 4, 1, 86
6, 43530, Control_c, 4, 1, 87
6, 43536, Note_on_c, 4, 77, 113
6, 43536, Control_c, 4, 1, 88
6, 43538, Note_on_c, 4, 76, 0
6, 43541, Control_c, 4, 1, 89
6, 43550, Note_on_c, 4, 76, 114
6, 43558, Note_on_c, 4, 77, 0
6, 43558, Control_c, 4, 1, 87
6, 43559, Control_c, 4, 1, 85
6, 43560, Control_c, 4, 1, 83
6, 43561, Control_c, 4, 1, 80
6, 43562, Control_c, 4, 1, 76
6, 43563, Control_c, 4, 1, 71
6, 43565, Control_c, 4, 1, 64
6, 43566, Control_c, 4, 1, 55
6, 43567, Control_c, 4, 1, 46
6, 43568, Control_c, 4, 1, 35
6, 43569, Control_c, 4, 1, 21
6, 43570, Control_c, 4, 1, 7
6, 43571, Control_c, 4, 1, 0
6, 43574, Note_on_c, 4, 74, 112
6, 43576, Note_on_c, 4, 76, 0
6, 43596, Control_c, 4, 1, 1
6, 43597, Control_c, 4, 1, 3
6, 43598, Control_c, 4, 1, 4
6, 43599, Control_c, 4, 1, 5
6, 43600, Control_c, 4, 1, 7
6, 43601, Control_c, 4, 1, 9
6, 43602, Control_c, 4, 1, 11
6, 43603, Control_c, 4, 1, 13
6, 43604, Control_c, 4, 1, 14
6, 43605, Control_c, 4, 1, 16
6, 43606, Control_c, 4, 1, 17
6, 43607, Control_c, 4, 1, 18
6, 43608, Control_c, 4, 1, 19
6, 43609, Control_c, 4, 1, 20
6, 43610, Control_c, 4, 1, 21
6, 43612, Control_c, 4, 1, 22
6, 43613, Control_c, 4, 1, 24
6, 43615, Control_c, 4, 1, 25
6, 43616, Control_c, 4, 1, 26
6, 43617, Control_c, 4, 1, 27
6, 43619, Control_c, 4, 1, 28
6, 43620, Control_c, 4, 1, 29
6, 43621, Control_c, 4, 1, 31
6, 43622, Control_c, 4, 1, 32
6, 43624, Control_c, 4, 1, 33
6, 43624, Control_c, 4, 1, 34
6, 43625, Control_c, 4, 1, 35
6, 43627, Control_c, 4, 1, 36
6, 43628, Control_c, 4, 1, 37
6, 43630, Control_c, 4, 1, 38
6, 43632, Control_c, 4, 1, 39
6, 43634, Control_c, 4, 1, 40
6, 43636, Control_c, 4, 1, 41
6, 43638, Control_c, 4, 1, 43
6, 43640, Control_c, 4, 1, 44
6, 43642, Control_c, 4, 1, 45
6, 43644, Control_c, 4, 1, 46
6, 43646, Control_c, 4, 1, 47
6, 43648, Control_c, 4, 1, 48
6, 43650, Control_c, 4, 1, 49
6, 43652, Control_c, 4, 1, 50
6, 43654, Control_c, 4, 1, 51
6, 43655, Control_c, 4, 1, 52
6, 43657, Control_c, 4, 1, 53
6, 43659, Control_c, 4, 1, 54
6, 43661, Control_c, 4, 1, 55
6, 43663, Control_c, 4, 1, 56
6, 43665, Control_c, 4, 1, 57
6, 43666, Control_c, 4, 1, 58
6, 43669, Control_c, 4, 1, 59
6, 43670, Control_c, 4, 1, 60
6, 43672, Control_c, 4, 1, 61
6, 43680, Note_on_c, 4, 74, 0
6, 43680, Note_on_c, 4, 71, 119
6, 43703, Note_on_c, 4, 71, 0
6, 43711, Note_on_c, 4, 74, 123
6, 43733, Note_on_c, 4, 74, 0
6, 43765, Note_on_c, 4, 71, 112
6, 43785, Note_on_c, 4, 71, 0
6, 43791, Note_on_c, 4, 74, 126
6, 43818, Note_on_c, 4, 74, 0
6, 43849, Note_on_c, 4, 71, 114
6, 43876, Note_on_c, 4, 71, 0
6, 43913, Note_on_c, 4, 74, 127
6, 43928, Note_on_c, 4, 76, 127
6, 43934, Note_on_c, 4, 74, 0
6, 43994, Control_c, 4, 1, 1
6, 43995, Control_c, 4, 1, 3
6, 43996, Control_c, 4, 1, 5
6, 43997, Control_c, 4, 1, 8
6, 43998, Control_c, 4, 1, 11
6, 43999, Note_on_c, 4, 76, 0
6, 43999, Control_c, 4, 1, 14
6, 44000, Control_c, 4, 1, 18
6, 44001, Control_c, 4, 1, 21
6, 44002, Control_c, 4, 1, 24
6, 44004, Control_c, 4, 1, 29
6, 44004, Note_on_c, 4, 74, 127
6, 44005, Control_c, 4, 1, 33
6, 44006, Control_c, 4, 1, 36
6, 44007, Control_c, 4, 1, 39
6, 44008, Control_c, 4, 1, 41
6, 44009, Control_c, 4, 1, 43
6, 44010, Control_c, 4, 1, 45
6, 44010, Control_c, 4, 1, 47
6, 44011, Control_c, 4, 1, 49
6, 44013, Control_c, 4, 1, 50
6, 44014, Control_c, 4, 1, 52
6, 44015, Control_c, 4, 1, 53
6, 44016, Control_c, 4, 1, 54
6, 44017, Control_c, 4, 1, 55
6, 44018, Control_c, 4, 1, 56
6, 44019, Control_c, 4, 1, 57
6, 44021, Control_c, 4, 1, 58
6, 44022, Control_c, 4, 1, 59
6, 44024, Control_c, 4, 1, 60
6, 44025, Control_c, 4, 1, 61
6, 44028, Control_c, 4, 1, 62
6, 44125, Control_c, 4, 1, 60
6, 44126, Control_c, 4, 1, 59
6, 44127, Control_c, 4, 1, 58
6, 44128, Control_c, 4, 1, 57
6, 44129, Control_c, 4, 1, 55
6, 44130, Control_c, 4, 1, 53
6, 44131, Control_c, 4, 1, 50
6, 44132, Control_c, 4, 1, 46
6, 44133, Control_c, 4, 1, 42
6, 44134, Control_c, 4, 1, 37
6, 44135, Control_c, 4, 1, 30
6, 44136, Control_c, 4, 1, 21
6, 44137, Control_c, 4, 1, 11
6, 44138, Pitch_bend_c, 4, 6912
6, 44138, Control_c, 4, 1, 2
6, 44139, Pitch_bend_c, 4, 6016
6, 44139, Control_c, 4, 1, 0
6, 44140, Pitch_bend_c, 4, 4992
6, 44141, Pitch_bend_c, 4, 3840
6, 44142, Pitch_bend_c, 4, 2688
6, 44143, Pitch_bend_c, 4, 1536
6, 44144, Note_on_c, 4, 74, 0
6, 44144, Pitch_bend_c, 4, 256
6, 44145, Pitch_bend_c, 4, 0
6, 44150, Note_on_c, 4, 78, 112
6, 44164, Pitch_bend_c, 4, 512
6, 44165, Pitch_bend_c, 4, 1152
6, 44165, Pitch_bend_c, 4, 1792
6, 44166, Pitch_bend_c, 4, 2432
6, 44168, Pitch_bend_c, 4, 3200
6, 44169, Pitch_bend_c, 4, 3968
6, 44170, Pitch_bend_c, 4, 4736
6, 44170, Pitch_bend_c, 4, 5760
6, 44171, Pitch_bend_c, 4, 6656
6, 44172, Pitch_bend_c, 4, 7424
6, 44173, Pitch_bend_c, 4, 8192
6, 44174, Pitch_bend_c, 4, 8192
6, 44207, Note_on_c, 4, 78, 0
6, 44216, Note_on_c, 4, 81, 119
6, 44242, Note_on_c, 4, 81, 0
6, 44277, Note_on_c, 4, 83, 123
6, 44317, Note_on_c, 4, 83, 0
6, 44346, Note_on_c, 4, 86, 126
6, 44360, Control_c, 4, 1, 2
6, 44361, Control_c, 4, 1, 3
6, 44362, Control_c, 4, 1, 5
6, 44363, Control_c, 4, 1, 7
6, 44365, Control_c, 4, 1, 9
6, 44365, Control_c, 4, 1, 10
6, 44367, Control_c, 4, 1, 13
6, 44368, Control_c, 4, 1, 14
6, 44369, Control_c, 4, 1, 16
6, 44370, Control_c, 4, 1, 18
6, 44371, Control_c, 4, 1, 20
6, 44372, Control_c, 4, 1, 22
6, 44373, Control_c, 4, 1, 25
6, 44374, Control_c, 4, 1, 26
6, 44375, Control_c, 4, 1, 29
6, 44376, Control_c, 4, 1, 31
6, 44377, Control_c, 4, 1, 33
6, 44378, Control_c, 4, 1, 35
6, 44379, Control_c, 4, 1, 37
6, 44380, Control_c, 4, 1, 39
6, 44381, Control_c, 4, 1, 41
6, 44382, Control_c, 4, 1, 43
6, 44383, Control_c, 4, 1, 45
6, 44384, Control_c, 4, 1, 47
6, 44385, Control_c, 4, 1, 49
6, 44386, Control_c, 4, 1, 50
6, 44387, Control_c, 4, 1, 52
6, 44388, Control_c, 4, 1, 53
6, 44389, Control_c, 4, 1, 54
6, 44390, Control_c, 4, 1, 56
6, 44390, Control_c, 4, 1, 57
6, 44393, Control_c, 4, 1, 58
6, 44394, Control_c, 4, 1, 59
6, 44396, Control_c, 4, 1, 60
6, 44398, Control_c, 4, 1, 61
6, 44400, Control_c, 4, 1, 62
6, 44402, Control_c, 4, 1, 63
6, 44405, Control_c, 4, 1, 64
6, 44407, Control_c, 4, 1, 65
6, 44410, Control_c, 4, 1, 66
6, 44412, Control_c, 4, 1, 67
6, 44414, Control_c, 4, 1, 68
6, 44416, Control_c, 4, 1, 69
6, 44418, Control_c, 4, 1, 70
6, 44420, Control_c, 4, 1, 71
6, 44424, Control_c, 4, 1, 72
6, 44431, Control_c, 4, 1, 73
6, 44435, Control_c, 4, 1, 74
6, 44439, Control_c, 4, 1, 75
6, 44442, Control_c, 4, 1, 76
6, 44446, Control_c, 4, 1, 77
6, 44447, Control_c, 4, 1, 78
6, 44450, Control_c, 4, 1, 79
6, 44453, Control_c, 4, 1, 80
6, 44455, Control_c, 4, 1, 81
6, 44459, Control_c, 4, 1, 82
6, 44462, Control_c, 4, 1, 83
6, 44468, Control_c, 4, 1, 84
6, 44475, Control_c, 4, 1, 85
6, 44480, Control_c, 4, 1, 86
6, 44484, Control_c, 4, 1, 87
6, 44488, Control_c, 4, 1, 88
6, 44494, Control_c, 4, 1, 89
6, 44515, Control_c, 4, 1, 90
6, 44520, Control_c, 4, 1, 91
6, 44525, Control_c, 4, 1, 92
6, 44532, Control_c, 4, 1, 93
6, 44609, Control_c, 4, 1, 92
6, 44613, Control_c, 4, 1, 91
6, 44615, Control_c, 4, 1, 90
6, 44616, Control_c, 4, 1, 88
6, 44617, Control_c, 4, 1, 86
6, 44618, Control_c, 4, 1, 84
6, 44619, Control_c, 4, 1, 82
6, 44620, Control_c, 4, 1, 79
6, 44621, Control_c, 4, 1, 76
6, 44622, Control_c, 4, 1, 73
6, 44623, Control_c, 4, 1, 69
6, 44624, Control_c, 4, 1, 65
6, 44625, Control_c, 4, 1, 60
6, 44626, Note_on_c, 4, 86, 0
6, 44626, Control_c, 4, 1, 54
6, 44627, Control_c, 4, 1, 46
6, 44628, Control_c, 4, 1, 39
6, 44629, Control_c, 4, 1, 31
6, 44630, Control_c, 4, 1, 22
6, 44631, Control_c, 4, 1, 13
6, 44632, Control_c, 4, 1, 5
6, 44633, Control_c, 4, 1, 0
6, 46358, Note_on_c, 4, 67, 123
6, 46375, Note_on_c, 4, 67, 0
6, 46381, Note_on_c, 4, 67, 110
6, 46403, Note_on_c, 4, 67, 0
6, 46408, Note_on_c, 4, 67, 119
6, 46426, Note_on_c, 4, 67, 0
6, 46435, Pitch_bend_c, 4, 7936
6, 46436, Pitch_bend_c, 4, 7040
6, 46437, Pitch_bend_c, 4, 5888
6, 46438, Note_on_c, 4, 71, 126
6, 46439, Pitch_bend_c, 4, 3328
6, 46440, Pitch_bend_c, 4, 128
6, 46440, Pitch_bend_c, 4, 1664
6, 46441, Pitch_bend_c, 4, 0
6, 46462, Pitch_bend_c, 4, 128
6, 46463, Pitch_bend_c, 4, 640
6, 46464, Pitch_bend_c, 4, 1280
6, 46464, Pitch_bend_c, 4, 2048
6, 46465, Pitch_bend_c, 4, 2944
6, 46467, Pitch_bend_c, 4, 4864
6, 46468, Pitch_bend_c, 4, 8192
6, 46469, Pitch_bend_c, 4, 8192
6, 46470, Pitch_bend_c, 4, 9492
6, 46470, Pitch_bend_c, 4, 8712
6, 46471, Pitch_bend_c, 4, 8192
6, 46479, Note_on_c, 4, 71, 0
6, 46480, Note_on_c, 4, 74, 118
6, 46483, Control_c, 4, 1, 1
6, 46484, Control_c, 4, 1, 3
6, 46485, Control_c, 4, 1, 6
6, 46486, Control_c, 4, 1, 9
6, 46487, Control_c, 4, 1, 12
6, 46488, Control_c, 4, 1, 15
6, 46489, Control_c, 4, 1, 18
6, 46490, Control_c, 4, 1, 21
6, 46490, Control_c, 4, 1, 25
6, 46492, Control_c, 4, 1, 28
6, 46493, Control_c, 4, 1, 31
6, 46494, Control_c, 4, 1, 35
6, 46495, Control_c, 4, 1, 38
6, 46496, Control_c, 4, 1, 41
6, 46497, Control_c, 4, 1, 43
6, 46498, Control_c, 4, 1, 47
6, 46499, Control_c, 4, 1, 50
6, 46500, Control_c, 4, 1, 53
6, 46500, Control_c, 4, 1, 56
6, 46502, Control_c, 4, 1, 58
6, 46503, Control_c, 4, 1, 61
6, 46504, Control_c, 4, 1, 64
6, 46505, Control_c, 4, 1, 66
6, 46506, Control_c, 4, 1, 69
6, 46507, Control_c, 4, 1, 71
6, 46509, Control_c, 4, 1, 73
6, 46510, Control_c, 4, 1, 75
6, 46510, Control_c, 4, 1, 76
6, 46512, Control_c, 4, 1, 77
6, 46513, Control_c, 4, 1, 78
6, 46515, Control_c, 4, 1, 79
6, 46516, Control_c, 4, 1, 80
6, 46517, Control_c, 4, 1, 81
6, 46519, Control_c, 4, 1, 83
6, 46520, Control_c, 4, 1, 84
6, 46521, Control_c, 4, 1, 85
6, 46522, Control_c, 4, 1, 86
6, 46523, Control_c, 4, 1, 87
6, 46525, Control_c, 4, 1, 88
6, 46525, Control_c, 4, 1, 89
6, 46527, Control_c, 4, 1, 90
6, 46530, Control_c, 4, 1, 91
6, 46531, Control_c, 4, 1, 92
6, 46535, Control_c, 4, 1, 93
6, 46560, Note_on_c, 4, 74, 0
6, 46560, Note_on_c, 4, 76, 121
6, 46571, Control_c, 4, 1, 0
6, 46635, Control_c, 4, 1, 2
6, 46636, Control_c, 4, 1, 4
6, 46637, Control_c, 4, 1, 7
6, 46638, Control_c, 4, 1, 10
6, 46639, Control_c, 4, 1, 14
6, 46640, Control_c, 4, 1, 17
6, 46641, Control_c, 4, 1, 21
6, 46642, Control_c, 4, 1, 25
6, 46643, Control_c, 4, 1, 29
6, 46644, Control_c, 4, 1, 32
6, 46645, Control_c, 4, 1, 35
6, 46645, Control_c, 4, 1, 38
6, 46647, Control_c, 4, 1, 41
6, 46648, Control_c, 4, 1, 43
6, 46649, Control_c, 4, 1, 45
6, 46651, Control_c, 4, 1, 46
6, 46652, Control_c, 4, 1, 48
6, 46653, Control_c, 4, 1, 49
6, 46654, Control_c, 4, 1, 50
6, 46655, Control_c, 4, 1, 52
6, 46656, Control_c, 4, 1, 53
6, 46658, Control_c, 4, 1, 54
6, 46660, Control_c, 4, 1, 55
6, 46662, Control_c, 4, 1, 56
6, 46664, Control_c, 4, 1, 57
6, 46665, Control_c, 4, 1, 58
6, 46667, Control_c, 4, 1, 60
6, 46668, Control_c, 4, 1, 61
6, 46679, Control_c, 4, 1, 62
6, 46683, Control_c, 4, 1, 63
6, 46686, Control_c, 4, 1, 64
6, 46687, Control_c, 4, 1, 65
6, 46690, Control_c, 4, 1, 66
6, 46695, Control_c, 4, 1, 67
6, 46703, Control_c, 4, 1, 68
6, 46705, Control_c, 4, 1, 69
6, 46707, Control_c, 4, 1, 70
6, 46709, Control_c, 4, 1, 72
6, 46711, Control_c, 4, 1, 73
6, 46713, Control_c, 4, 1, 74
6, 46715, Control_c, 4, 1, 75
6, 46719, Control_c, 4, 1, 76
6, 46722, Control_c, 4, 1, 77
6, 46731, Control_c, 4, 1, 78
6, 46736, Control_c, 4, 1, 79
6, 46739, Control_c, 4, 1, 80
6, 46743, Control_c, 4, 1, 81
6, 46748, Control_c, 4, 1, 82
6, 46757, Control_c, 4, 1, 83
6, 46762, Control_c, 4, 1, 84
6, 46765, Control_c, 4, 1, 85
6, 46769, Control_c, 4, 1, 86
6, 46812, Control_c, 4, 1, 85
6, 46814, Control_c, 4, 1, 84
6, 46815, Control_c, 4, 1, 83
6, 46815, Control_c, 4, 1, 82
6, 46816, Control_c, 4, 1, 80
6, 46817, Control_c, 4, 1, 78
6, 46818, Control_c, 4, 1, 77
6, 46819, Control_c, 4, 1, 75
6, 46820, Control_c, 4, 1, 72
6, 46821, Control_c, 4, 1, 70
6, 46822, Control_c, 4, 1, 66
6, 46823, Control_c, 4, 1, 62
6, 46825, Control_c, 4, 1, 58
6, 46825, Control_c, 4, 1, 53
6, 46826, Control_c, 4, 1, 47
6, 46827, Control_c, 4, 1, 41
6, 46828, Control_c, 4, 1, 36
6, 46829, Control_c, 4, 1, 29
6, 46830, Control_c, 4, 1, 23
6, 46831, Control_c, 4, 1, 17
6, 46832, Control_c, 4, 1, 11
6, 46833, Control_c, 4, 1, 5
6, 46834, Control_c, 4, 1, 2
6, 46835, Control_c, 4, 1, 0
6, 46844, Note_on_c, 4, 76, 0
6, 46858, Note_on_c, 4, 76, 114
6, 46874, Note_on_c, 4, 76, 0
6, 46885, Note_on_c, 4, 76, 111
6, 46908, Note_on_c, 4, 76, 0
6, 46920, Note_on_c, 4, 83, 127
6, 46960, Pitch_bend_c, 4, 7936
6, 46961, Pitch_bend_c, 4, 7040
6, 46962, Pitch_bend_c, 4, 6272
6, 46963, Pitch_bend_c, 4, 4992
6, 46964, Pitch_bend_c, 4, 4096
6, 46965, Pitch_bend_c, 4, 3072
6, 46966, Pitch_bend_c, 4, 2176
6, 46967, Pitch_bend_c, 4, 1408
6, 46968, Pitch_bend_c, 4, 640
6, 46969, Pitch_bend_c, 4, 0
6, 46983, Pitch_bend_c, 4, 256
6, 46984, Pitch_bend_c, 4, 896
6, 46985, Pitch_bend_c, 4, 1536
6, 46986, Pitch_bend_c, 4, 2304
6, 46987, Pitch_bend_c, 4, 3072
6, 46988, Pitch_bend_c, 4, 3968
6, 46989, Pitch_bend_c, 4, 4736
6, 46990, Pitch_bend_c, 4, 5760
6, 46991, Pitch_bend_c, 4, 6656
6, 46992, Pitch_bend_c, 4, 8192
6, 46993, Pitch_bend_c, 4, 8192
6, 47042, Note_on_c, 4, 83, 0
6, 47043, Note_on_c, 4, 81, 127
6, 47123, Note_on_c, 4, 81, 0
6, 47127, Control_c, 4, 1, 1
6, 47127, Note_on_c, 4, 79, 123
6, 47128, Control_c, 4, 1, 5
6, 47129, Control_c, 4, 1, 9
6, 47130, Control_c, 4, 1, 21
6, 47130, Control_c, 4, 1, 17
6, 47130, Control_c, 4, 1, 13
6, 47131, Control_c, 4, 1, 25
6, 47132, Control_c, 4, 1, 29
6, 47133, Control_c, 4, 1, 33
6, 47135, Control_c, 4, 1, 36
6, 47135, Control_c, 4, 1, 39
6, 47136, Control_c, 4, 1, 42
6, 47137, Control_c, 4, 1, 44
6, 47138, Control_c, 4, 1, 47
6, 47139, Control_c, 4, 1, 49
6, 47140, Control_c, 4, 1, 51
6, 47141, Control_c, 4, 1, 53
6, 47142, Control_c, 4, 1, 54
6, 47144, Control_c, 4, 1, 56
6, 47144, Control_c, 4, 1, 57
6, 47146, Control_c, 4, 1, 58
6, 47146, Control_c, 4, 1, 60
6, 47147, Control_c, 4, 1, 61
6, 47148, Control_c, 4, 1, 62
6, 47149, Control_c, 4, 1, 63
6, 47151, Control_c, 4, 1, 64
6, 47153, Control_c, 4, 1, 65
6, 47154, Control_c, 4, 1, 66
6, 47160, Control_c, 4, 1, 67
6, 47192, Control_c, 4, 1, 68
6, 47195, Control_c, 4, 1, 69
6, 47201, Control_c, 4, 1, 68
6, 47203, Control_c, 4, 1, 67
6, 47205, Control_c, 4, 1, 65
6, 47206, Control_c, 4, 1, 64
6, 47207, Control_c, 4, 1, 62
6, 47208, Control_c, 4, 1, 60
6, 47209, Control_c, 4, 1, 58
6, 47210, Control_c, 4, 1, 56
6, 47211, Control_c, 4, 1, 53
6, 47212, Control_c, 4, 1, 49
6, 47213, Control_c, 4, 1, 45
6, 47214, Control_c, 4, 1, 41
6, 47215, Control_c, 4, 1, 36
6, 47215, Control_c, 4, 1, 31
6, 47216, Control_c, 4, 1, 26
6, 47218, Control_c, 4, 1, 20
6, 47219, Control_c, 4, 1, 15
6, 47220, Control_c, 4, 1, 9
6, 47220, Control_c, 4, 1, 4
6, 47220, Control_c, 4, 1, 1
6, 47222, Control_c, 4, 1, 0
6, 47262, Pitch_bend_c, 4, 7936
6, 47263, Pitch_bend_c, 4, 7168
6, 47264, Pitch_bend_c, 4, 6272
6, 47265, Pitch_bend_c, 4, 5120
6, 47267, Pitch_bend_c, 4, 4096
6, 47267, Pitch_bend_c, 4, 3072
6, 47268, Pitch_bend_c, 4, 2048
6, 47269, Pitch_bend_c, 4, 1024
6, 47270, Pitch_bend_c, 4, 0
6, 47275, Note_on_c, 4, 79, 0
6, 47277, Note_on_c, 4, 76, 127
6, 47287, Pitch_bend_c, 4, 256
6, 47288, Pitch_bend_c, 4, 768
6, 47290, Pitch_bend_c, 4, 1536
6, 47290, Pitch_bend_c, 4, 2304
6, 47291, Pitch_bend_c, 4, 3072
6, 47293, Pitch_bend_c, 4, 3968
6, 47294, Pitch_bend_c, 4, 4736
6, 47295, Pitch_bend_c, 4, 5760
6, 47295, Pitch_bend_c, 4, 6400
6, 47297, Pitch_bend_c, 4, 7040
6, 47298, Pitch_bend_c, 4, 7680
6, 47299, Pitch_bend_c, 4, 8192
6, 47369, Note_on_c, 4, 74, 114
6, 47370, Control_c, 4, 1, 2
6, 47370, Control_c, 4, 1, 5
6, 47371, Control_c, 4, 1, 8
6, 47372, Note_on_c, 4, 76, 0
6, 47373, Control_c, 4, 1, 13
6, 47373, Control_c, 4, 1, 16
6, 47375, Control_c, 4, 1, 20
6, 47375, Control_c, 4, 1, 23
6, 47377, Control_c, 4, 1, 25
6, 47378, Control_c, 4, 1, 28
6, 47379, Control_c, 4, 1, 31
6, 47380, Control_c, 4, 1, 33
6, 47380, Control_c, 4, 1, 36
6, 47382, Control_c, 4, 1, 38
6, 47382, Control_c, 4, 1, 41
6, 47384, Control_c, 4, 1, 43
6, 47385, Control_c, 4, 1, 45
6, 47386, Control_c, 4, 1, 47
6, 47387, Control_c, 4, 1, 49
6, 47388, Control_c, 4, 1, 53
6, 47388, Control_c, 4, 1, 51
6, 47390, Control_c, 4, 1, 54
6, 47390, Control_c, 4, 1, 56
6, 47391, Control_c, 4, 1, 57
6, 47392, Control_c, 4, 1, 58
6, 47393, Control_c, 4, 1, 60
6, 47395, Control_c, 4, 1, 61
6, 47395, Control_c, 4, 1, 62
6, 47396, Control_c, 4, 1, 63
6, 47398, Control_c, 4, 1, 64
6, 47399, Control_c, 4, 1, 65
6, 47400, Control_c, 4, 1, 68
6, 47400, Control_c, 4, 1, 66
6, 47401, Control_c, 4, 1, 69
6, 47403, Control_c, 4, 1, 70
6, 47404, Control_c, 4, 1, 71
6, 47405, Control_c, 4, 1, 72
6, 47405, Control_c, 4, 1, 73
6, 47407, Control_c, 4, 1, 74
6, 47408, Control_c, 4, 1, 75
6, 47410, Control_c, 4, 1, 76
6, 47411, Control_c, 4, 1, 77
6, 47413, Control_c, 4, 1, 78
6, 47415, Control_c, 4, 1, 79
6, 47431, Control_c, 4, 1, 80
6, 47436, Control_c, 4, 1, 81
6, 47439, Control_c, 4, 1, 82
6, 47445, Control_c, 4, 1, 83
6, 47458, Control_c, 4, 1, 84
6, 47465, Control_c, 4, 1, 85
6, 47490, Control_c, 4, 1, 82
6, 47490, Control_c, 4, 1, 84
6, 47491, Control_c, 4, 1, 79
6, 47493, Control_c, 4, 1, 76
6, 47494, Control_c, 4, 1, 73
6, 47495, Control_c, 4, 1, 68
6, 47495, Control_c, 4, 1, 61
6, 47497, Control_c, 4, 1, 54
6, 47498, Control_c, 4, 1, 46
6, 47499, Control_c, 4, 1, 38
6, 47500, Control_c, 4, 1, 29
6, 47501, Control_c, 4, 1, 18
6, 47502, Control_c, 4, 1, 8
6, 47503, Control_c, 4, 1, 1
6, 47505, Control_c, 4, 1, 0
6, 47508, Note_on_c, 4, 74, 0
6, 47508, End_track
7, 0, Start_track
7, 0, MIDI_port, 0
7, 134, Control_c, 5, 121, 0
7, 137, Control_c, 5, 100, 0
7, 138, Control_c, 5, 101, 0
7, 139, Control_c, 5, 6, 2
7, 140, Control_c, 5, 91, 81
7, 142, Control_c, 5, 93, 60
7, 145, Control_c, 5, 1, 0
7, 147, Program_c, 5, 53
7, 147, Control_c, 5, 11, 127
7, 148, Control_c, 5, 7, 100
7, 148, Control_c, 5, 10, 0
7, 20640, Control_c, 5, 73, 66
7, 20641, Control_c, 5, 98, 99
7, 20642, Control_c, 5, 99, 1
7, 20643, Control_c, 5, 6, 66
7, 20644, Control_c, 5, 71, 75
7, 20646, Control_c, 5, 98, 33
7, 20647, Control_c, 5, 99, 1
7, 20648, Control_c, 5, 6, 75
7, 20699, Note_on_c, 5, 67, 96
7, 20723, Note_on_c, 5, 67, 0
7, 20789, Note_on_c, 5, 67, 96
7, 20812, Note_on_c, 5, 67, 0
7, 20939, Note_on_c, 5, 67, 86
7, 20962, Note_on_c, 5, 67, 0
7, 21029, Note_on_c, 5, 69, 96
7, 21052, Note_on_c, 5, 69, 0
7, 21179, Note_on_c, 5, 69, 96
7, 21203, Note_on_c, 5, 69, 0
7, 21269, Note_on_c, 5, 69, 96
7, 21292, Note_on_c, 5, 69, 0
7, 21296, Note_on_c, 5, 69, 107
7, 21315, Note_on_c, 5, 69, 0
7, 21365, Note_on_c, 5, 71, 96
7, 21476, Note_on_c, 5, 71, 0
7, 21477, Note_on_c, 5, 69, 86
7, 21534, Note_on_c, 5, 69, 0
7, 21539, Note_on_c, 5, 71, 90
7, 21567, Note_on_c, 5, 71, 0
7, 21659, Note_on_c, 5, 67, 96
7, 21683, Note_on_c, 5, 67, 0
7, 21749, Note_on_c, 5, 67, 96
7, 21772, Note_on_c, 5, 67, 0
7, 21899, Note_on_c, 5, 67, 86
7, 21922, Note_on_c, 5, 67, 0
7, 21989, Note_on_c, 5, 69, 96
7, 22012, Note_on_c, 5, 69, 0
7, 22139, Note_on_c, 5, 69, 96
7, 22159, Note_on_c, 5, 69, 0
7, 22199, Note_on_c, 5, 71, 96
7, 22259, Note_on_c, 5, 69, 90
7, 22263, Note_on_c, 5, 71, 0
7, 22282, Note_on_c, 5, 69, 0
7, 22319, Note_on_c, 5, 71, 96
7, 22377, Note_on_c, 5, 71, 0
7, 22379, Note_on_c, 5, 74, 90
7, 22549, Note_on_c, 5, 74, 0
7, 22619, Note_on_c, 5, 67, 96
7, 22643, Note_on_c, 5, 67, 0
7, 22709, Note_on_c, 5, 67, 96
7, 22732, Note_on_c, 5, 67, 0
7, 22859, Note_on_c, 5, 67, 86
7, 22882, Note_on_c, 5, 67, 0
7, 22949, Note_on_c, 5, 69, 96
7, 22972, Note_on_c, 5, 69, 0
7, 23099, Note_on_c, 5, 69, 96
7, 23119, Note_on_c, 5, 69, 0
7, 23159, Note_on_c, 5, 71, 96
7, 23219, Note_on_c, 5, 69, 90
7, 23223, Note_on_c, 5, 71, 0
7, 23242, Note_on_c, 5, 69, 0
7, 23279, Note_on_c, 5, 71, 96
7, 23337, Note_on_c, 5, 71, 0
7, 23339, Note_on_c, 5, 74, 90
7, 23509, Note_on_c, 5, 74, 0
7, 23519, Note_on_c, 5, 62, 72
7, 23519, Note_on_c, 5, 70, 73
7, 23748, Note_on_c, 5, 62, 0
7, 23759, Note_on_c, 5, 62, 66
7, 23759, Note_on_c, 5, 69, 96
7, 23764, Note_on_c, 5, 70, 0
7, 23983, Note_on_c, 5, 62, 0
7, 23997, Note_on_c, 5, 69, 0
7, 23999, Note_on_c, 5, 62, 62
7, 23999, Note_on_c, 5, 67, 78
7, 24539, Note_on_c, 5, 76, 90
7, 24539, Note_on_c, 5, 72, 73
7, 24563, Note_on_c, 5, 76, 0
7, 24581, Note_on_c, 5, 72, 0
7, 24629, Note_on_c, 5, 72, 63
7, 24629, Note_on_c, 5, 76, 86
7, 24668, Note_on_c, 5, 76, 0
7, 24680, Note_on_c, 5, 72, 0
7, 24779, Note_on_c, 5, 72, 66
7, 24779, Note_on_c, 5, 76, 73
7, 24818, Note_on_c, 5, 76, 0
7, 24825, Note_on_c, 5, 72, 0
7, 24869, Note_on_c, 5, 76, 78
7, 24869, Note_on_c, 5, 72, 71
7, 24910, Note_on_c, 5, 76, 0
7, 24917, Note_on_c, 5, 72, 0
7, 25019, Note_on_c, 5, 76, 90
7, 25019, Note_on_c, 5, 72, 67
7, 25060, Note_on_c, 5, 76, 0
7, 25064, Note_on_c, 5, 72, 0
7, 25109, Note_on_c, 5, 76, 71
7, 25109, Note_on_c, 5, 72, 63
7, 25158, Note_on_c, 5, 72, 0
7, 25158, Note_on_c, 5, 76, 0
7, 25439, Note_on_c, 5, 67, 0
7, 25439, Note_on_c, 5, 62, 0
7, 29429, Note_on_c, 5, 64, 73
7, 29444, Note_on_c, 5, 64, 0
7, 29459, Note_on_c, 5, 64, 86
7, 29472, Note_on_c, 5, 64, 0
7, 29489, Note_on_c, 5, 64, 71
7, 29510, Note_on_c, 5, 64, 0
7, 29519, Note_on_c, 5, 68, 78
7, 29604, Note_on_c, 5, 68, 0
7, 29879, Note_on_c, 5, 68, 96
7, 29981, Note_on_c, 5, 68, 0
7, 29999, Note_on_c, 5, 66, 90
7, 30029, Note_on_c, 5, 64, 73
7, 30031, Note_on_c, 5, 66, 0
7, 30059, Note_on_c, 5, 64, 0
7, 30059, Note_on_c, 5, 61, 66
7, 30069, Control_c, 5, 1, 2
7, 30070, Control_c, 5, 1, 4
7, 30071, Control_c, 5, 1, 6
7, 30073, Control_c, 5, 1, 9
7, 30074, Control_c, 5, 1, 12
7, 30075, Control_c, 5, 1, 15
7, 30076, Control_c, 5, 1, 18
7, 30078, Control_c, 5, 1, 21
7, 30079, Control_c, 5, 1, 23
7, 30080, Control_c, 5, 1, 26
7, 30081, Control_c, 5, 1, 29
7, 30082, Control_c, 5, 1, 31
7, 30083, Control_c, 5, 1, 34
7, 30085, Control_c, 5, 1, 36
7, 30086, Control_c, 5, 1, 38
7, 30087, Control_c, 5, 1, 40
7, 30088, Control_c, 5, 1, 42
7, 30089, Control_c, 5, 1, 43
7, 30090, Control_c, 5, 1, 45
7, 30092, Control_c, 5, 1, 46
7, 30093, Control_c, 5, 1, 48
7, 30094, Control_c, 5, 1, 49
7, 30095, Control_c, 5, 1, 50
7, 30096, Control_c, 5, 1, 51
7, 30097, Control_c, 5, 1, 53
7, 30100, Control_c, 5, 1, 54
7, 30102, Control_c, 5, 1, 56
7, 30104, Control_c, 5, 1, 57
7, 30107, Control_c, 5, 1, 58
7, 30109, Control_c, 5, 1, 59
7, 30111, Control_c, 5, 1, 60
7, 30113, Control_c, 5, 1, 61
7, 30139, Control_c, 5, 1, 62
7, 30157, Control_c, 5, 1, 61
7, 30158, Control_c, 5, 1, 59
7, 30159, Control_c, 5, 1, 56
7, 30160, Control_c, 5, 1, 54
7, 30162, Control_c, 5, 1, 49
7, 30163, Control_c, 5, 1, 45
7, 30165, Control_c, 5, 1, 39
7, 30167, Control_c, 5, 1, 26
7, 30168, Control_c, 5, 1, 17
7, 30169, Control_c, 5, 1, 9
7, 30170, Control_c, 5, 1, 0
7, 30170, Control_c, 5, 1, 2
7, 30173, Note_on_c, 5, 61, 0
7, 31199, Note_on_c, 5, 73, 70
7, 31199, Note_on_c, 5, 68, 72
7, 31836, Control_c, 5, 1, 1
7, 31838, Control_c, 5, 1, 2
7, 31841, Control_c, 5, 1, 3
7, 31843, Control_c, 5, 1, 5
7, 31844, Control_c, 5, 1, 6
7, 31846, Control_c, 5, 1, 7
7, 31847, Control_c, 5, 1, 9
7, 31848, Control_c, 5, 1, 10
7, 31849, Control_c, 5, 1, 11
7, 31850, Control_c, 5, 1, 13
7, 31851, Control_c, 5, 1, 14
7, 31853, Control_c, 5, 1, 15
7, 31854, Control_c, 5, 1, 16
7, 31855, Control_c, 5, 1, 17
7, 31857, Control_c, 5, 1, 18
7, 31859, Control_c, 5, 1, 19
7, 31860, Control_c, 5, 1, 20
7, 31862, Control_c, 5, 1, 21
7, 31865, Control_c, 5, 1, 22
7, 31868, Control_c, 5, 1, 23
7, 31870, Control_c, 5, 1, 24
7, 31872, Control_c, 5, 1, 25
7, 31875, Control_c, 5, 1, 26
7, 31878, Control_c, 5, 1, 27
7, 31880, Control_c, 5, 1, 28
7, 31882, Control_c, 5, 1, 29
7, 31885, Control_c, 5, 1, 30
7, 31887, Control_c, 5, 1, 31
7, 31889, Control_c, 5, 1, 32
7, 31891, Control_c, 5, 1, 33
7, 31892, Control_c, 5, 1, 34
7, 31894, Control_c, 5, 1, 35
7, 31896, Control_c, 5, 1, 36
7, 31898, Control_c, 5, 1, 37
7, 31900, Control_c, 5, 1, 38
7, 31902, Control_c, 5, 1, 39
7, 31905, Control_c, 5, 1, 40
7, 31907, Control_c, 5, 1, 42
7, 31908, Control_c, 5, 1, 43
7, 31912, Control_c, 5, 1, 44
7, 31914, Control_c, 5, 1, 45
7, 31917, Control_c, 5, 1, 46
7, 31919, Control_c, 5, 1, 47
7, 31922, Control_c, 5, 1, 48
7, 31985, Control_c, 5, 1, 49
7, 32021, Control_c, 5, 1, 47
7, 32022, Control_c, 5, 1, 45
7, 32023, Control_c, 5, 1, 41
7, 32025, Control_c, 5, 1, 37
7, 32026, Control_c, 5, 1, 30
7, 32027, Control_c, 5, 1, 23
7, 32028, Control_c, 5, 1, 14
7, 32030, Control_c, 5, 1, 6
7, 32031, Control_c, 5, 1, 0
7, 32034, Note_on_c, 5, 68, 0
7, 32035, Note_on_c, 5, 73, 0
7, 36059, Note_on_c, 5, 64, 86
7, 36059, Note_on_c, 5, 68, 86
7, 36111, Note_on_c, 5, 68, 0
7, 36114, Note_on_c, 5, 64, 0
7, 36149, Note_on_c, 5, 68, 71
7, 36149, Note_on_c, 5, 64, 71
7, 36223, Note_on_c, 5, 68, 0
7, 36225, Control_c, 5, 1, 3
7, 36226, Note_on_c, 5, 64, 0
7, 36226, Control_c, 5, 1, 5
7, 36227, Control_c, 5, 1, 8
7, 36229, Control_c, 5, 1, 12
7, 36230, Control_c, 5, 1, 16
7, 36232, Control_c, 5, 1, 18
7, 36233, Control_c, 5, 1, 21
7, 36235, Control_c, 5, 1, 22
7, 36235, Control_c, 5, 1, 24
7, 36237, Control_c, 5, 1, 25
7, 36238, Control_c, 5, 1, 27
7, 36239, Note_on_c, 5, 68, 66
7, 36239, Note_on_c, 5, 64, 66
7, 36239, Control_c, 5, 1, 28
7, 36241, Control_c, 5, 1, 30
7, 36242, Control_c, 5, 1, 31
7, 36243, Control_c, 5, 1, 33
7, 36244, Control_c, 5, 1, 34
7, 36245, Control_c, 5, 1, 36
7, 36246, Control_c, 5, 1, 37
7, 36248, Control_c, 5, 1, 38
7, 36249, Control_c, 5, 1, 40
7, 36250, Control_c, 5, 1, 41
7, 36252, Control_c, 5, 1, 42
7, 36254, Control_c, 5, 1, 43
7, 36256, Control_c, 5, 1, 44
7, 36279, Control_c, 5, 1, 45
7, 36289, Control_c, 5, 1, 46
7, 36293, Control_c, 5, 1, 47
7, 36295, Control_c, 5, 1, 48
7, 36297, Control_c, 5, 1, 49
7, 36300, Control_c, 5, 1, 50
7, 36302, Control_c, 5, 1, 51
7, 36306, Control_c, 5, 1, 52
7, 36309, Control_c, 5, 1, 53
7, 36316, Control_c, 5, 1, 54
7, 36319, Control_c, 5, 1, 55
7, 36322, Control_c, 5, 1, 56
7, 36328, Control_c, 5, 1, 55
7, 36329, Control_c, 5, 1, 54
7, 36331, Control_c, 5, 1, 48
7, 36332, Control_c, 5, 1, 43
7, 36334, Control_c, 5, 1, 35
7, 36335, Control_c, 5, 1, 25
7, 36336, Control_c, 5, 1, 12
7, 36337, Control_c, 5, 1, 2
7, 36339, Note_on_c, 5, 68, 0
7, 36339, Control_c, 5, 1, 0
7, 36340, Note_on_c, 5, 64, 0
7, 36539, Note_on_c, 5, 68, 90
7, 36539, Note_on_c, 5, 64, 78
7, 36606, Note_on_c, 5, 68, 0
7, 36610, Note_on_c, 5, 64, 0
7, 36629, Note_on_c, 5, 68, 72
7, 36629, Note_on_c, 5, 64, 71
7, 36702, Note_on_c, 5, 68, 0
7, 36704, Note_on_c, 5, 64, 0
7, 36705, Control_c, 5, 1, 2
7, 36706, Control_c, 5, 1, 3
7, 36707, Control_c, 5, 1, 5
7, 36709, Control_c, 5, 1, 7
7, 36710, Control_c, 5, 1, 10
7, 36712, Control_c, 5, 1, 12
7, 36714, Control_c, 5, 1, 17
7, 36716, Control_c, 5, 1, 19
7, 36716, Control_c, 5, 1, 21
7, 36718, Control_c, 5, 1, 22
7, 36719, Note_on_c, 5, 68, 66
7, 36719, Note_on_c, 5, 64, 71
7, 36719, Control_c, 5, 1, 25
7, 36719, Control_c, 5, 1, 24
7, 36720, Control_c, 5, 1, 27
7, 36722, Control_c, 5, 1, 28
7, 36723, Control_c, 5, 1, 30
7, 36724, Control_c, 5, 1, 31
7, 36725, Control_c, 5, 1, 32
7, 36727, Control_c, 5, 1, 33
7, 36728, Control_c, 5, 1, 34
7, 36729, Control_c, 5, 1, 35
7, 36730, Control_c, 5, 1, 36
7, 36731, Control_c, 5, 1, 37
7, 36734, Control_c, 5, 1, 38
7, 36736, Control_c, 5, 1, 39
7, 36739, Control_c, 5, 1, 40
7, 36742, Control_c, 5, 1, 41
7, 36758, Control_c, 5, 1, 42
7, 36761, Control_c, 5, 1, 43
7, 36763, Control_c, 5, 1, 44
7, 36765, Control_c, 5, 1, 45
7, 36768, Control_c, 5, 1, 46
7, 36770, Control_c, 5, 1, 47
7, 36772, Control_c, 5, 1, 48
7, 36775, Control_c, 5, 1, 49
7, 36778, Control_c, 5, 1, 50
7, 36780, Control_c, 5, 1, 51
7, 36783, Control_c, 5, 1, 52
7, 36785, Control_c, 5, 1, 53
7, 36787, Control_c, 5, 1, 54
7, 36789, Control_c, 5, 1, 55
7, 36790, Control_c, 5, 1, 56
7, 36791, Control_c, 5, 1, 57
7, 36792, Control_c, 5, 1, 59
7, 36794, Control_c, 5, 1, 60
7, 36795, Control_c, 5, 1, 61
7, 36797, Control_c, 5, 1, 62
7, 36799, Control_c, 5, 1, 63
7, 36802, Control_c, 5, 1, 64
7, 36808, Control_c, 5, 1, 65
7, 36820, Note_on_c, 5, 68, 0
7, 36823, Note_on_c, 5, 64, 0
7, 36827, Control_c, 5, 1, 63
7, 36828, Control_c, 5, 1, 61
7, 36829, Control_c, 5, 1, 58
7, 36830, Control_c, 5, 1, 53
7, 36831, Control_c, 5, 1, 48
7, 36832, Control_c, 5, 1, 41
7, 36834, Control_c, 5, 1, 33
7, 36835, Control_c, 5, 1, 22
7, 36836, Control_c, 5, 1, 12
7, 36837, Control_c, 5, 1, 2
7, 36840, Control_c, 5, 1, 0
7, 37019, Note_on_c, 5, 68, 78
7, 37019, Note_on_c, 5, 64, 73
7, 37083, Note_on_c, 5, 68, 0
7, 37085, Note_on_c, 5, 64, 0
7, 37109, Note_on_c, 5, 68, 71
7, 37109, Note_on_c, 5, 64, 66
7, 37183, Note_on_c, 5, 68, 0
7, 37184, Note_on_c, 5, 64, 0
7, 37191, Control_c, 5, 1, 2
7, 37192, Control_c, 5, 1, 4
7, 37194, Control_c, 5, 1, 6
7, 37196, Control_c, 5, 1, 11
7, 37197, Control_c, 5, 1, 14
7, 37198, Control_c, 5, 1, 16
7, 37199, Note_on_c, 5, 68, 78
7, 37199, Note_on_c, 5, 64, 67
7, 37199, Control_c, 5, 1, 19
7, 37200, Control_c, 5, 1, 22
7, 37202, Control_c, 5, 1, 25
7, 37203, Control_c, 5, 1, 27
7, 37204, Control_c, 5, 1, 30
7, 37205, Control_c, 5, 1, 32
7, 37207, Control_c, 5, 1, 34
7, 37208, Control_c, 5, 1, 35
7, 37209, Control_c, 5, 1, 37
7, 37210, Control_c, 5, 1, 38
7, 37211, Control_c, 5, 1, 39
7, 37212, Control_c, 5, 1, 41
7, 37214, Control_c, 5, 1, 42
7, 37214, Control_c, 5, 1, 43
7, 37217, Control_c, 5, 1, 44
7, 37219, Control_c, 5, 1, 46
7, 37222, Control_c, 5, 1, 47
7, 37224, Control_c, 5, 1, 48
7, 37226, Control_c, 5, 1, 49
7, 37230, Control_c, 5, 1, 50
7, 37239, Control_c, 5, 1, 51
7, 37241, Control_c, 5, 1, 52
7, 37244, Control_c, 5, 1, 53
7, 37245, Control_c, 5, 1, 54
7, 37248, Control_c, 5, 1, 56
7, 37250, Control_c, 5, 1, 57
7, 37258, Control_c, 5, 1, 58
7, 37266, Control_c, 5, 1, 59
7, 37269, Control_c, 5, 1, 60
7, 37271, Control_c, 5, 1, 61
7, 37273, Control_c, 5, 1, 62
7, 37275, Control_c, 5, 1, 63
7, 37278, Control_c, 5, 1, 64
7, 37280, Control_c, 5, 1, 65
7, 37283, Control_c, 5, 1, 66
7, 37285, Control_c, 5, 1, 67
7, 37289, Control_c, 5, 1, 68
7, 37291, Control_c, 5, 1, 69
7, 37292, Note_on_c, 5, 68, 0
7, 37293, Note_on_c, 5, 64, 0
7, 37294, Control_c, 5, 1, 70
7, 37297, Control_c, 5, 1, 71
7, 37306, Control_c, 5, 1, 70
7, 37308, Control_c, 5, 1, 69
7, 37309, Control_c, 5, 1, 66
7, 37310, Control_c, 5, 1, 63
7, 37311, Control_c, 5, 1, 58
7, 37312, Control_c, 5, 1, 52
7, 37314, Control_c, 5, 1, 43
7, 37315, Control_c, 5, 1, 34
7, 37316, Control_c, 5, 1, 21
7, 37317, Control_c, 5, 1, 9
7, 37319, Control_c, 5, 1, 1
7, 37319, Control_c, 5, 1, 0
7, 37499, Note_on_c, 5, 68, 90
7, 37499, Note_on_c, 5, 64, 71
7, 37568, Note_on_c, 5, 68, 0
7, 37569, Note_on_c, 5, 64, 0
7, 37589, Note_on_c, 5, 68, 86
7, 37589, Note_on_c, 5, 64, 73
7, 37659, Note_on_c, 5, 64, 0
7, 37659, Note_on_c, 5, 68, 0
7, 37668, Control_c, 5, 1, 1
7, 37669, Control_c, 5, 1, 3
7, 37670, Control_c, 5, 1, 5
7, 37673, Control_c, 5, 1, 10
7, 37674, Control_c, 5, 1, 13
7, 37675, Control_c, 5, 1, 15
7, 37677, Control_c, 5, 1, 17
7, 37678, Control_c, 5, 1, 19
7, 37679, Note_on_c, 5, 68, 65
7, 37679, Note_on_c, 5, 64, 73
7, 37679, Control_c, 5, 1, 22
7, 37679, Control_c, 5, 1, 21
7, 37680, Control_c, 5, 1, 24
7, 37682, Control_c, 5, 1, 25
7, 37683, Control_c, 5, 1, 27
7, 37684, Control_c, 5, 1, 28
7, 37685, Control_c, 5, 1, 29
7, 37686, Control_c, 5, 1, 30
7, 37689, Control_c, 5, 1, 31
7, 37691, Control_c, 5, 1, 33
7, 37694, Control_c, 5, 1, 34
7, 37695, Control_c, 5, 1, 35
7, 37699, Control_c, 5, 1, 36
7, 37700, Control_c, 5, 1, 37
7, 37703, Control_c, 5, 1, 38
7, 37706, Control_c, 5, 1, 39
7, 37713, Control_c, 5, 1, 40
7, 37718, Control_c, 5, 1, 41
7, 37720, Control_c, 5, 1, 42
7, 37723, Control_c, 5, 1, 43
7, 37725, Control_c, 5, 1, 45
7, 37726, Control_c, 5, 1, 46
7, 37727, Control_c, 5, 1, 47
7, 37729, Control_c, 5, 1, 48
7, 37730, Control_c, 5, 1, 50
7, 37731, Control_c, 5, 1, 51
7, 37732, Control_c, 5, 1, 52
7, 37733, Control_c, 5, 1, 53
7, 37736, Control_c, 5, 1, 54
7, 37740, Control_c, 5, 1, 55
7, 37741, Control_c, 5, 1, 56
7, 37746, Control_c, 5, 1, 57
7, 37772, Control_c, 5, 1, 56
7, 37773, Note_on_c, 5, 64, 0
7, 37773, Control_c, 5, 1, 55
7, 37775, Note_on_c, 5, 68, 0
7, 37775, Control_c, 5, 1, 54
7, 37776, Control_c, 5, 1, 52
7, 37777, Control_c, 5, 1, 50
7, 37778, Control_c, 5, 1, 47
7, 37780, Control_c, 5, 1, 44
7, 37780, Control_c, 5, 1, 40
7, 37782, Control_c, 5, 1, 35
7, 37783, Control_c, 5, 1, 29
7, 37784, Control_c, 5, 1, 22
7, 37785, Control_c, 5, 1, 14
7, 37786, Control_c, 5, 1, 5
7, 37788, Control_c, 5, 1, 0
7, 37979, Note_on_c, 5, 64, 86
7, 37979, Note_on_c, 5, 68, 86
7, 38031, Note_on_c, 5, 68, 0
7, 38034, Note_on_c, 5, 64, 0
7, 38069, Note_on_c, 5, 68, 71
7, 38069, Note_on_c, 5, 64, 71
7, 38143, Note_on_c, 5, 68, 0
7, 38145, Control_c, 5, 1, 3
7, 38146, Note_on_c, 5, 64, 0
7, 38146, Control_c, 5, 1, 5
7, 38147, Control_c, 5, 1, 8
7, 38149, Control_c, 5, 1, 12
7, 38150, Control_c, 5, 1, 16
7, 38152, Control_c, 5, 1, 18
7, 38153, Control_c, 5, 1, 21
7, 38155, Control_c, 5, 1, 22
7, 38155, Control_c, 5, 1, 24
7, 38157, Control_c, 5, 1, 25
7, 38158, Control_c, 5, 1, 27
7, 38159, Note_on_c, 5, 68, 66
7, 38159, Note_on_c, 5, 64, 66
7, 38159, Control_c, 5, 1, 28
7, 38161, Control_c, 5, 1, 30
7, 38162, Control_c, 5, 1, 31
7, 38163, Control_c, 5, 1, 33
7, 38164, Control_c, 5, 1, 34
7, 38165, Control_c, 5, 1, 36
7, 38166, Control_c, 5, 1, 37
7, 38168, Control_c, 5, 1, 38
7, 38169, Control_c, 5, 1, 40
7, 38170, Control_c, 5, 1, 41
7, 38172, Control_c, 5, 1, 42
7, 38174, Control_c, 5, 1, 43
7, 38176, Control_c, 5, 1, 44
7, 38199, Control_c, 5, 1, 45
7, 38209, Control_c, 5, 1, 46
7, 38213, Control_c, 5, 1, 47
7, 38215, Control_c, 5, 1, 48
7, 38217, Control_c, 5, 1, 49
7, 38220, Control_c, 5, 1, 50
7, 38222, Control_c, 5, 1, 51
7, 38226, Control_c, 5, 1, 52
7, 38229, Control_c, 5, 1, 53
7, 38236, Control_c, 5, 1, 54
7, 38239, Control_c, 5, 1, 55
7, 38242, Control_c, 5, 1, 56
7, 38248, Control_c, 5, 1, 55
7, 38249, Control_c, 5, 1, 54
7, 38251, Control_c, 5, 1, 48
7, 38252, Control_c, 5, 1, 43
7, 38254, Control_c, 5, 1, 35
7, 38255, Control_c, 5, 1, 25
7, 38256, Control_c, 5, 1, 12
7, 38257, Control_c, 5, 1, 2
7, 38259, Note_on_c, 5, 68, 0
7, 38259, Control_c, 5, 1, 0
7, 38260, Note_on_c, 5, 64, 0
7, 38459, Note_on_c, 5, 68, 90
7, 38459, Note_on_c, 5, 64, 78
7, 38526, Note_on_c, 5, 68, 0
7, 38530, Note_on_c, 5, 64, 0
7, 38549, Note_on_c, 5, 68, 72
7, 38549, Note_on_c, 5, 64, 71
7, 38622, Note_on_c, 5, 68, 0
7, 38624, Note_on_c, 5, 64, 0
7, 38625, Control_c, 5, 1, 2
7, 38626, Control_c, 5, 1, 3
7, 38627, Control_c, 5, 1, 5
7, 38629, Control_c, 5, 1, 7
7, 38630, Control_c, 5, 1, 10
7, 38632, Control_c, 5, 1, 12
7, 38634, Control_c, 5, 1, 17
7, 38636, Control_c, 5, 1, 19
7, 38636, Control_c, 5, 1, 21
7, 38638, Control_c, 5, 1, 22
7, 38639, Note_on_c, 5, 68, 66
7, 38639, Note_on_c, 5, 64, 71
7, 38639, Control_c, 5, 1, 25
7, 38639, Control_c, 5, 1, 24
7, 38640, Control_c, 5, 1, 27
7, 38642, Control_c, 5, 1, 28
7, 38643, Control_c, 5, 1, 30
7, 38644, Control_c, 5, 1, 31
7, 38645, Control_c, 5, 1, 32
7, 38647, Control_c, 5, 1, 33
7, 38648, Control_c, 5, 1, 34
7, 38649, Control_c, 5, 1, 35
7, 38650, Control_c, 5, 1, 36
7, 38651, Control_c, 5, 1, 37
7, 38654, Control_c, 5, 1, 38
7, 38656, Control_c, 5, 1, 39
7, 38659, Control_c, 5, 1, 40
7, 38662, Control_c, 5, 1, 41
7, 38678, Control_c, 5, 1, 42
7, 38681, Control_c, 5, 1, 43
7, 38683, Control_c, 5, 1, 44
7, 38685, Control_c, 5, 1, 45
7, 38688, Control_c, 5, 1, 46
7, 38690, Control_c, 5, 1, 47
7, 38692, Control_c, 5, 1, 48
7, 38695, Control_c, 5, 1, 49
7, 38698, Control_c, 5, 1, 50
7, 38700, Control_c, 5, 1, 51
7, 38703, Control_c, 5, 1, 52
7, 38705, Control_c, 5, 1, 53
7, 38707, Control_c, 5, 1, 54
7, 38709, Control_c, 5, 1, 55
7, 38710, Control_c, 5, 1, 56
7, 38711, Control_c, 5, 1, 57
7, 38712, Control_c, 5, 1, 59
7, 38714, Control_c, 5, 1, 60
7, 38715, Control_c, 5, 1, 61
7, 38717, Control_c, 5, 1, 62
7, 38719, Control_c, 5, 1, 63
7, 38722, Control_c, 5, 1, 64
7, 38728, Control_c, 5, 1, 65
7, 38740, Note_on_c, 5, 68, 0
7, 38743, Note_on_c, 5, 64, 0
7, 38747, Control_c, 5, 1, 63
7, 38748, Control_c, 5, 1, 61
7, 38749, Control_c, 5, 1, 58
7, 38750, Control_c, 5, 1, 53
7, 38751, Control_c, 5, 1, 48
7, 38752, Control_c, 5, 1, 41
7, 38754, Control_c, 5, 1, 33
7, 38755, Control_c, 5, 1, 22
7, 38756, Control_c, 5, 1, 12
7, 38757, Control_c, 5, 1, 2
7, 38760, Control_c, 5, 1, 0
7, 38939, Note_on_c, 5, 68, 78
7, 38939, Note_on_c, 5, 64, 73
7, 39003, Note_on_c, 5, 68, 0
7, 39005, Note_on_c, 5, 64, 0
7, 39029, Note_on_c, 5, 68, 71
7, 39029, Note_on_c, 5, 64, 66
7, 39103, Note_on_c, 5, 68, 0
7, 39104, Note_on_c, 5, 64, 0
7, 39111, Control_c, 5, 1, 2
7, 39112, Control_c, 5, 1, 4
7, 39114, Control_c, 5, 1, 6
7, 39116, Control_c, 5, 1, 11
7, 39117, Control_c, 5, 1, 14
7, 39118, Control_c, 5, 1, 16
7, 39119, Note_on_c, 5, 68, 78
7, 39119, Note_on_c, 5, 64, 67
7, 39119, Control_c, 5, 1, 19
7, 39120, Control_c, 5, 1, 22
7, 39122, Control_c, 5, 1, 25
7, 39123, Control_c, 5, 1, 27
7, 39124, Control_c, 5, 1, 30
7, 39125, Control_c, 5, 1, 32
7, 39127, Control_c, 5, 1, 34
7, 39128, Control_c, 5, 1, 35
7, 39129, Control_c, 5, 1, 37
7, 39130, Control_c, 5, 1, 38
7, 39131, Control_c, 5, 1, 39
7, 39132, Control_c, 5, 1, 41
7, 39134, Control_c, 5, 1, 42
7, 39134, Control_c, 5, 1, 43
7, 39137, Control_c, 5, 1, 44
7, 39139, Control_c, 5, 1, 46
7, 39142, Control_c, 5, 1, 47
7, 39144, Control_c, 5, 1, 48
7, 39146, Control_c, 5, 1, 49
7, 39150, Control_c, 5, 1, 50
7, 39159, Control_c, 5, 1, 51
7, 39161, Control_c, 5, 1, 52
7, 39164, Control_c, 5, 1, 53
7, 39165, Control_c, 5, 1, 54
7, 39168, Control_c, 5, 1, 56
7, 39170, Control_c, 5, 1, 57
7, 39178, Control_c, 5, 1, 58
7, 39186, Control_c, 5, 1, 59
7, 39189, Control_c, 5, 1, 60
7, 39191, Control_c, 5, 1, 61
7, 39193, Control_c, 5, 1, 62
7, 39195, Control_c, 5, 1, 63
7, 39198, Control_c, 5, 1, 64
7, 39200, Control_c, 5, 1, 65
7, 39203, Control_c, 5, 1, 66
7, 39205, Control_c, 5, 1, 67
7, 39209, Control_c, 5, 1, 68
7, 39211, Control_c, 5, 1, 69
7, 39212, Note_on_c, 5, 68, 0
7, 39213, Note_on_c, 5, 64, 0
7, 39214, Control_c, 5, 1, 70
7, 39217, Control_c, 5, 1, 71
7, 39226, Control_c, 5, 1, 70
7, 39228, Control_c, 5, 1, 69
7, 39229, Control_c, 5, 1, 66
7, 39230, Control_c, 5, 1, 63
7, 39231, Control_c, 5, 1, 58
7, 39232, Control_c, 5, 1, 52
7, 39234, Control_c, 5, 1, 43
7, 39235, Control_c, 5, 1, 34
7, 39236, Control_c, 5, 1, 21
7, 39237, Control_c, 5, 1, 9
7, 39239, Control_c, 5, 1, 1
7, 39239, Control_c, 5, 1, 0
7, 39419, Note_on_c, 5, 68, 90
7, 39419, Note_on_c, 5, 64, 71
7, 39488, Note_on_c, 5, 68, 0
7, 39489, Note_on_c, 5, 64, 0
7, 39509, Note_on_c, 5, 68, 86
7, 39509, Note_on_c, 5, 64, 73
7, 39579, Note_on_c, 5, 64, 0
7, 39579, Note_on_c, 5, 68, 0
7, 39588, Control_c, 5, 1, 1
7, 39589, Control_c, 5, 1, 3
7, 39590, Control_c, 5, 1, 5
7, 39593, Control_c, 5, 1, 10
7, 39594, Control_c, 5, 1, 13
7, 39595, Control_c, 5, 1, 15
7, 39597, Control_c, 5, 1, 17
7, 39598, Control_c, 5, 1, 19
7, 39599, Note_on_c, 5, 68, 65
7, 39599, Note_on_c, 5, 64, 73
7, 39599, Control_c, 5, 1, 22
7, 39599, Control_c, 5, 1, 21
7, 39600, Control_c, 5, 1, 24
7, 39602, Control_c, 5, 1, 25
7, 39603, Control_c, 5, 1, 27
7, 39604, Control_c, 5, 1, 28
7, 39605, Control_c, 5, 1, 29
7, 39606, Control_c, 5, 1, 30
7, 39609, Control_c, 5, 1, 31
7, 39611, Control_c, 5, 1, 33
7, 39614, Control_c, 5, 1, 34
7, 39615, Control_c, 5, 1, 35
7, 39619, Control_c, 5, 1, 36
7, 39620, Control_c, 5, 1, 37
7, 39623, Control_c, 5, 1, 38
7, 39626, Control_c, 5, 1, 39
7, 39633, Control_c, 5, 1, 40
7, 39638, Control_c, 5, 1, 41
7, 39640, Control_c, 5, 1, 42
7, 39643, Control_c, 5, 1, 43
7, 39645, Control_c, 5, 1, 45
7, 39646, Control_c, 5, 1, 46
7, 39647, Control_c, 5, 1, 47
7, 39649, Control_c, 5, 1, 48
7, 39650, Control_c, 5, 1, 50
7, 39651, Control_c, 5, 1, 51
7, 39652, Control_c, 5, 1, 52
7, 39653, Control_c, 5, 1, 53
7, 39656, Control_c, 5, 1, 54
7, 39660, Control_c, 5, 1, 55
7, 39661, Control_c, 5, 1, 56
7, 39666, Control_c, 5, 1, 57
7, 39692, Control_c, 5, 1, 56
7, 39693, Note_on_c, 5, 64, 0
7, 39693, Control_c, 5, 1, 55
7, 39695, Note_on_c, 5, 68, 0
7, 39695, Control_c, 5, 1, 54
7, 39696, Control_c, 5, 1, 52
7, 39697, Control_c, 5, 1, 50
7, 39698, Control_c, 5, 1, 47
7, 39700, Control_c, 5, 1, 44
7, 39700, Control_c, 5, 1, 40
7, 39702, Control_c, 5, 1, 35
7, 39703, Control_c, 5, 1, 29
7, 39704, Control_c, 5, 1, 22
7, 39705, Control_c, 5, 1, 14
7, 39706, Control_c, 5, 1, 5
7, 39708, Control_c, 5, 1, 0
7, 39899, Note_on_c, 5, 64, 86
7, 39899, Note_on_c, 5, 68, 86
7, 39951, Note_on_c, 5, 68, 0
7, 39954, Note_on_c, 5, 64, 0
7, 39989, Note_on_c, 5, 68, 71
7, 39989, Note_on_c, 5, 64, 71
7, 40063, Note_on_c, 5, 68, 0
7, 40065, Control_c, 5, 1, 3
7, 40066, Note_on_c, 5, 64, 0
7, 40066, Control_c, 5, 1, 5
7, 40067, Control_c, 5, 1, 8
7, 40069, Control_c, 5, 1, 12
7, 40070, Control_c, 5, 1, 16
7, 40072, Control_c, 5, 1, 18
7, 40073, Control_c, 5, 1, 21
7, 40075, Control_c, 5, 1, 22
7, 40075, Control_c, 5, 1, 24
7, 40077, Control_c, 5, 1, 25
7, 40078, Control_c, 5, 1, 27
7, 40079, Note_on_c, 5, 68, 66
7, 40079, Note_on_c, 5, 64, 66
7, 40079, Control_c, 5, 1, 28
7, 40081, Control_c, 5, 1, 30
7, 40082, Control_c, 5, 1, 31
7, 40083, Control_c, 5, 1, 33
7, 40084, Control_c, 5, 1, 34
7, 40085, Control_c, 5, 1, 36
7, 40086, Control_c, 5, 1, 37
7, 40088, Control_c, 5, 1, 38
7, 40089, Control_c, 5, 1, 40
7, 40090, Control_c, 5, 1, 41
7, 40092, Control_c, 5, 1, 42
7, 40094, Control_c, 5, 1, 43
7, 40096, Control_c, 5, 1, 44
7, 40119, Control_c, 5, 1, 45
7, 40129, Control_c, 5, 1, 46
7, 40133, Control_c, 5, 1, 47
7, 40135, Control_c, 5, 1, 48
7, 40137, Control_c, 5, 1, 49
7, 40140, Control_c, 5, 1, 50
7, 40142, Control_c, 5, 1, 51
7, 40146, Control_c, 5, 1, 52
7, 40149, Control_c, 5, 1, 53
7, 40156, Control_c, 5, 1, 54
7, 40159, Control_c, 5, 1, 55
7, 40162, Control_c, 5, 1, 56
7, 40168, Control_c, 5, 1, 55
7, 40169, Control_c, 5, 1, 54
7, 40171, Control_c, 5, 1, 48
7, 40172, Control_c, 5, 1, 43
7, 40174, Control_c, 5, 1, 35
7, 40175, Control_c, 5, 1, 25
7, 40176, Control_c, 5, 1, 12
7, 40177, Control_c, 5, 1, 2
7, 40179, Note_on_c, 5, 68, 0
7, 40179, Control_c, 5, 1, 0
7, 40180, Note_on_c, 5, 64, 0
7, 40379, Note_on_c, 5, 68, 90
7, 40379, Note_on_c, 5, 64, 78
7, 40446, Note_on_c, 5, 68, 0
7, 40450, Note_on_c, 5, 64, 0
7, 40469, Note_on_c, 5, 68, 72
7, 40469, Note_on_c, 5, 64, 71
7, 40542, Note_on_c, 5, 68, 0
7, 40544, Note_on_c, 5, 64, 0
7, 40545, Control_c, 5, 1, 2
7, 40546, Control_c, 5, 1, 3
7, 40547, Control_c, 5, 1, 5
7, 40549, Control_c, 5, 1, 7
7, 40550, Control_c, 5, 1, 10
7, 40552, Control_c, 5, 1, 12
7, 40554, Control_c, 5, 1, 17
7, 40556, Control_c, 5, 1, 19
7, 40556, Control_c, 5, 1, 21
7, 40558, Control_c, 5, 1, 22
7, 40559, Note_on_c, 5, 68, 66
7, 40559, Note_on_c, 5, 64, 71
7, 40559, Control_c, 5, 1, 25
7, 40559, Control_c, 5, 1, 24
7, 40560, Control_c, 5, 1, 27
7, 40562, Control_c, 5, 1, 28
7, 40563, Control_c, 5, 1, 30
7, 40564, Control_c, 5, 1, 31
7, 40565, Control_c, 5, 1, 32
7, 40567, Control_c, 5, 1, 33
7, 40568, Control_c, 5, 1, 34
7, 40569, Control_c, 5, 1, 35
7, 40570, Control_c, 5, 1, 36
7, 40571, Control_c, 5, 1, 37
7, 40574, Control_c, 5, 1, 38
7, 40576, Control_c, 5, 1, 39
7, 40579, Control_c, 5, 1, 40
7, 40582, Control_c, 5, 1, 41
7, 40598, Control_c, 5, 1, 42
7, 40601, Control_c, 5, 1, 43
7, 40603, Control_c, 5, 1, 44
7, 40605, Control_c, 5, 1, 45
7, 40608, Control_c, 5, 1, 46
7, 40610, Control_c, 5, 1, 47
7, 40612, Control_c, 5, 1, 48
7, 40615, Control_c, 5, 1, 49
7, 40618, Control_c, 5, 1, 50
7, 40620, Control_c, 5, 1, 51
7, 40623, Control_c, 5, 1, 52
7, 40625, Control_c, 5, 1, 53
7, 40627, Control_c, 5, 1, 54
7, 40629, Control_c, 5, 1, 55
7, 40630, Control_c, 5, 1, 56
7, 40631, Control_c, 5, 1, 57
7, 40632, Control_c, 5, 1, 59
7, 40634, Control_c, 5, 1, 60
7, 40635, Control_c, 5, 1, 61
7, 40637, Control_c, 5, 1, 62
7, 40639, Control_c, 5, 1, 63
7, 40642, Control_c, 5, 1, 64
7, 40648, Control_c, 5, 1, 65
7, 40660, Note_on_c, 5, 68, 0
7, 40663, Note_on_c, 5, 64, 0
7, 40667, Control_c, 5, 1, 63
7, 40668, Control_c, 5, 1, 61
7, 40669, Control_c, 5, 1, 58
7, 40670, Control_c, 5, 1, 53
7, 40671, Control_c, 5, 1, 48
7, 40672, Control_c, 5, 1, 41
7, 40674, Control_c, 5, 1, 33
7, 40675, Control_c, 5, 1, 22
7, 40676, Control_c, 5, 1, 12
7, 40677, Control_c, 5, 1, 2
7, 40680, Control_c, 5, 1, 0
7, 40859, Note_on_c, 5, 68, 78
7, 40859, Note_on_c, 5, 64, 73
7, 40923, Note_on_c, 5, 68, 0
7, 40925, Note_on_c, 5, 64, 0
7, 40949, Note_on_c, 5, 68, 71
7, 40949, Note_on_c, 5, 64, 66
7, 41023, Note_on_c, 5, 68, 0
7, 41024, Note_on_c, 5, 64, 0
7, 41031, Control_c, 5, 1, 2
7, 41032, Control_c, 5, 1, 4
7, 41034, Control_c, 5, 1, 6
7, 41036, Control_c, 5, 1, 11
7, 41037, Control_c, 5, 1, 14
7, 41038, Control_c, 5, 1, 16
7, 41039, Note_on_c, 5, 68, 78
7, 41039, Note_on_c, 5, 64, 67
7, 41039, Control_c, 5, 1, 19
7, 41040, Control_c, 5, 1, 22
7, 41042, Control_c, 5, 1, 25
7, 41043, Control_c, 5, 1, 27
7, 41044, Control_c, 5, 1, 30
7, 41045, Control_c, 5, 1, 32
7, 41047, Control_c, 5, 1, 34
7, 41048, Control_c, 5, 1, 35
7, 41049, Control_c, 5, 1, 37
7, 41050, Control_c, 5, 1, 38
7, 41051, Control_c, 5, 1, 39
7, 41052, Control_c, 5, 1, 41
7, 41054, Control_c, 5, 1, 42
7, 41054, Control_c, 5, 1, 43
7, 41057, Control_c, 5, 1, 44
7, 41059, Control_c, 5, 1, 46
7, 41062, Control_c, 5, 1, 47
7, 41064, Control_c, 5, 1, 48
7, 41066, Control_c, 5, 1, 49
7, 41070, Control_c, 5, 1, 50
7, 41079, Control_c, 5, 1, 51
7, 41081, Control_c, 5, 1, 52
7, 41084, Control_c, 5, 1, 53
7, 41085, Control_c, 5, 1, 54
7, 41088, Control_c, 5, 1, 56
7, 41090, Control_c, 5, 1, 57
7, 41098, Control_c, 5, 1, 58
7, 41106, Control_c, 5, 1, 59
7, 41109, Control_c, 5, 1, 60
7, 41111, Control_c, 5, 1, 61
7, 41113, Control_c, 5, 1, 62
7, 41115, Control_c, 5, 1, 63
7, 41118, Control_c, 5, 1, 64
7, 41120, Control_c, 5, 1, 65
7, 41123, Control_c, 5, 1, 66
7, 41125, Control_c, 5, 1, 67
7, 41129, Control_c, 5, 1, 68
7, 41131, Control_c, 5, 1, 69
7, 41132, Note_on_c, 5, 68, 0
7, 41133, Note_on_c, 5, 64, 0
7, 41134, Control_c, 5, 1, 70
7, 41137, Control_c, 5, 1, 71
7, 41146, Control_c, 5, 1, 70
7, 41148, Control_c, 5, 1, 69
7, 41149, Control_c, 5, 1, 66
7, 41150, Control_c, 5, 1, 63
7, 41151, Control_c, 5, 1, 58
7, 41152, Control_c, 5, 1, 52
7, 41154, Control_c, 5, 1, 43
7, 41155, Control_c, 5, 1, 34
7, 41156, Control_c, 5, 1, 21
7, 41157, Control_c, 5, 1, 9
7, 41159, Control_c, 5, 1, 1
7, 41159, Control_c, 5, 1, 0
7, 41339, Note_on_c, 5, 68, 90
7, 41339, Note_on_c, 5, 64, 71
7, 41408, Note_on_c, 5, 68, 0
7, 41409, Note_on_c, 5, 64, 0
7, 41429, Note_on_c, 5, 68, 86
7, 41429, Note_on_c, 5, 64, 73
7, 41499, Note_on_c, 5, 64, 0
7, 41499, Note_on_c, 5, 68, 0
7, 41508, Control_c, 5, 1, 1
7, 41509, Control_c, 5, 1, 3
7, 41510, Control_c, 5, 1, 5
7, 41513, Control_c, 5, 1, 10
7, 41514, Control_c, 5, 1, 13
7, 41515, Control_c, 5, 1, 15
7, 41517, Control_c, 5, 1, 17
7, 41518, Control_c, 5, 1, 19
7, 41519, Note_on_c, 5, 68, 65
7, 41519, Note_on_c, 5, 64, 73
7, 41519, Control_c, 5, 1, 22
7, 41519, Control_c, 5, 1, 21
7, 41520, Control_c, 5, 1, 24
7, 41522, Control_c, 5, 1, 25
7, 41523, Control_c, 5, 1, 27
7, 41524, Control_c, 5, 1, 28
7, 41525, Control_c, 5, 1, 29
7, 41526, Control_c, 5, 1, 30
7, 41529, Control_c, 5, 1, 31
7, 41531, Control_c, 5, 1, 33
7, 41534, Control_c, 5, 1, 34
7, 41535, Control_c, 5, 1, 35
7, 41539, Control_c, 5, 1, 36
7, 41540, Control_c, 5, 1, 37
7, 41543, Control_c, 5, 1, 38
7, 41546, Control_c, 5, 1, 39
7, 41553, Control_c, 5, 1, 40
7, 41558, Control_c, 5, 1, 41
7, 41560, Control_c, 5, 1, 42
7, 41563, Control_c, 5, 1, 43
7, 41565, Control_c, 5, 1, 45
7, 41566, Control_c, 5, 1, 46
7, 41567, Control_c, 5, 1, 47
7, 41569, Control_c, 5, 1, 48
7, 41570, Control_c, 5, 1, 50
7, 41571, Control_c, 5, 1, 51
7, 41572, Control_c, 5, 1, 52
7, 41573, Control_c, 5, 1, 53
7, 41576, Control_c, 5, 1, 54
7, 41580, Control_c, 5, 1, 55
7, 41581, Control_c, 5, 1, 56
7, 41586, Control_c, 5, 1, 57
7, 41612, Control_c, 5, 1, 56
7, 41613, Note_on_c, 5, 64, 0
7, 41613, Control_c, 5, 1, 55
7, 41615, Note_on_c, 5, 68, 0
7, 41615, Control_c, 5, 1, 54
7, 41616, Control_c, 5, 1, 52
7, 41617, Control_c, 5, 1, 50
7, 41618, Control_c, 5, 1, 47
7, 41620, Control_c, 5, 1, 44
7, 41620, Control_c, 5, 1, 40
7, 41622, Control_c, 5, 1, 35
7, 41623, Control_c, 5, 1, 29
7, 41624, Control_c, 5, 1, 22
7, 41625, Control_c, 5, 1, 14
7, 41626, Control_c, 5, 1, 5
7, 41628, Control_c, 5, 1, 0
7, 43735, Note_on_c, 5, 79, 70
7, 43735, Note_on_c, 5, 71, 62
7, 43735, Note_on_c, 5, 74, 70
7, 43753, Note_on_c, 5, 74, 0
7, 43757, Note_on_c, 5, 71, 0
7, 43759, Note_on_c, 5, 79, 0
7, 43820, Note_on_c, 5, 71, 58
7, 43821, Note_on_c, 5, 74, 66
7, 43822, Note_on_c, 5, 79, 70
7, 43838, Note_on_c, 5, 74, 0
7, 43843, Note_on_c, 5, 79, 0
7, 43843, Note_on_c, 5, 71, 0
7, 43903, Note_on_c, 5, 71, 50
7, 43904, Note_on_c, 5, 79, 65
7, 43904, Note_on_c, 5, 74, 52
7, 43985, Note_on_c, 5, 71, 0
7, 43990, Note_on_c, 5, 74, 0
7, 43990, Note_on_c, 5, 79, 0
7, 44001, Note_on_c, 5, 71, 38
7, 44001, Note_on_c, 5, 79, 52
7, 44002, Note_on_c, 5, 74, 53
7, 44071, Note_on_c, 5, 71, 0
7, 44073, Note_on_c, 5, 74, 0
7, 44078, Note_on_c, 5, 79, 0
7, 44084, Note_on_c, 5, 74, 60
7, 44084, Note_on_c, 5, 79, 37
7, 44085, Note_on_c, 5, 71, 51
7, 44120, Note_on_c, 5, 71, 0
7, 44121, Note_on_c, 5, 74, 0
7, 44127, Note_on_c, 5, 79, 0
7, 44211, Note_on_c, 5, 69, 60
7, 44212, Note_on_c, 5, 74, 67
7, 44212, Note_on_c, 5, 78, 65
7, 44231, Note_on_c, 5, 74, 0
7, 44233, Note_on_c, 5, 69, 0
7, 44234, Note_on_c, 5, 78, 0
7, 44303, Note_on_c, 5, 69, 66
7, 44303, Note_on_c, 5, 78, 53
7, 44303, Note_on_c, 5, 74, 60
7, 44326, Note_on_c, 5, 74, 0
7, 44328, Note_on_c, 5, 78, 0
7, 44332, Note_on_c, 5, 69, 0
7, 44392, Note_on_c, 5, 74, 60
7, 44392, Note_on_c, 5, 69, 53
7, 44393, Note_on_c, 5, 78, 51
7, 44502, Note_on_c, 5, 69, 0
7, 44502, Note_on_c, 5, 74, 0
7, 44504, Note_on_c, 5, 78, 0
7, 46559, Note_on_c, 5, 71, 72
7, 46559, Note_on_c, 5, 76, 70
7, 47196, Control_c, 5, 1, 1
7, 47198, Control_c, 5, 1, 2
7, 47201, Control_c, 5, 1, 3
7, 47203, Control_c, 5, 1, 5
7, 47204, Control_c, 5, 1, 6
7, 47206, Control_c, 5, 1, 7
7, 47207, Control_c, 5, 1, 9
7, 47208, Control_c, 5, 1, 10
7, 47209, Control_c, 5, 1, 11
7, 47210, Control_c, 5, 1, 13
7, 47211, Control_c, 5, 1, 14
7, 47213, Control_c, 5, 1, 15
7, 47214, Control_c, 5, 1, 16
7, 47215, Control_c, 5, 1, 17
7, 47217, Control_c, 5, 1, 18
7, 47219, Control_c, 5, 1, 19
7, 47220, Control_c, 5, 1, 20
7, 47222, Control_c, 5, 1, 21
7, 47225, Control_c, 5, 1, 22
7, 47228, Control_c, 5, 1, 23
7, 47230, Control_c, 5, 1, 24
7, 47232, Control_c, 5, 1, 25
7, 47235, Control_c, 5, 1, 26
7, 47238, Control_c, 5, 1, 27
7, 47240, Control_c, 5, 1, 28
7, 47242, Control_c, 5, 1, 29
7, 47245, Control_c, 5, 1, 30
7, 47247, Control_c, 5, 1, 31
7, 47249, Control_c, 5, 1, 32
7, 47251, Control_c, 5, 1, 33
7, 47252, Control_c, 5, 1, 34
7, 47254, Control_c, 5, 1, 35
7, 47256, Control_c, 5, 1, 36
7, 47258, Control_c, 5, 1, 37
7, 47260, Control_c, 5, 1, 38
7, 47262, Control_c, 5, 1, 39
7, 47265, Control_c, 5, 1, 40
7, 47267, Control_c, 5, 1, 42
7, 47268, Control_c, 5, 1, 43
7, 47272, Control_c, 5, 1, 44
7, 47274, Control_c, 5, 1, 45
7, 47277, Control_c, 5, 1, 46
7, 47279, Control_c, 5, 1, 47
7, 47282, Control_c, 5, 1, 48
7, 47345, Control_c, 5, 1, 49
7, 47381, Control_c, 5, 1, 47
7, 47382, Control_c, 5, 1, 45
7, 47383, Control_c, 5, 1, 41
7, 47385, Control_c, 5, 1, 37
7, 47386, Control_c, 5, 1, 30
7, 47387, Control_c, 5, 1, 23
7, 47388, Control_c, 5, 1, 14
7, 47390, Control_c, 5, 1, 6
7, 47391, Control_c, 5, 1, 0
7, 47394, Note_on_c, 5, 71, 0
7, 47395, Note_on_c, 5, 76, 0
7, 48659, Note_on_c, 5, 67, 107
7, 48664, Control_c, 5, 1, 2
7, 48665, Control_c, 5, 1, 4
7, 48666, Control_c, 5, 1, 7
7, 48668, Control_c, 5, 1, 11
7, 48669, Control_c, 5, 1, 14
7, 48670, Control_c, 5, 1, 18
7, 48672, Control_c, 5, 1, 21
7, 48673, Control_c, 5, 1, 25
7, 48674, Control_c, 5, 1, 28
7, 48675, Control_c, 5, 1, 30
7, 48676, Control_c, 5, 1, 33
7, 48678, Control_c, 5, 1, 36
7, 48679, Control_c, 5, 1, 38
7, 48680, Control_c, 5, 1, 41
7, 48681, Control_c, 5, 1, 43
7, 48683, Control_c, 5, 1, 45
7, 48684, Control_c, 5, 1, 47
7, 48686, Control_c, 5, 1, 49
7, 48687, Control_c, 5, 1, 51
7, 48688, Control_c, 5, 1, 53
7, 48690, Control_c, 5, 1, 54
7, 48691, Control_c, 5, 1, 55
7, 48691, Control_c, 5, 1, 56
7, 48693, Control_c, 5, 1, 57
7, 48695, Control_c, 5, 1, 59
7, 48695, Control_c, 5, 1, 60
7, 48697, Control_c, 5, 1, 61
7, 48698, Control_c, 5, 1, 62
7, 48699, Control_c, 5, 1, 63
7, 48701, Control_c, 5, 1, 64
7, 48702, Control_c, 5, 1, 65
7, 48705, Control_c, 5, 1, 66
7, 48707, Control_c, 5, 1, 67
7, 48709, Control_c, 5, 1, 69
7, 48713, Control_c, 5, 1, 70
7, 48717, Control_c, 5, 1, 71
7, 48722, Control_c, 5, 1, 72
7, 48725, Control_c, 5, 1, 73
7, 48729, Control_c, 5, 1, 74
7, 48731, Control_c, 5, 1, 75
7, 48737, Control_c, 5, 1, 76
7, 48743, Control_c, 5, 1, 77
7, 48747, Control_c, 5, 1, 78
7, 48755, Control_c, 5, 1, 79
7, 48761, Control_c, 5, 1, 80
7, 48763, Control_c, 5, 1, 81
7, 48773, Control_c, 5, 1, 82
7, 48882, Control_c, 5, 1, 79
7, 48883, Control_c, 5, 1, 77
7, 48885, Control_c, 5, 1, 75
7, 48886, Control_c, 5, 1, 71
7, 48888, Control_c, 5, 1, 65
7, 48889, Control_c, 5, 1, 59
7, 48890, Control_c, 5, 1, 53
7, 48891, Note_on_c, 5, 67, 0
7, 48891, Control_c, 5, 1, 44
7, 48893, Control_c, 5, 1, 35
7, 48894, Control_c, 5, 1, 23
7, 48895, Control_c, 5, 1, 12
7, 48897, Control_c, 5, 1, 3
7, 48898, Control_c, 5, 1, 0
7, 49139, Note_on_c, 5, 67, 103
7, 49144, Control_c, 5, 1, 1
7, 49145, Control_c, 5, 1, 4
7, 49146, Control_c, 5, 1, 7
7, 49148, Control_c, 5, 1, 12
7, 49149, Control_c, 5, 1, 16
7, 49150, Control_c, 5, 1, 21
7, 49152, Control_c, 5, 1, 25
7, 49154, Control_c, 5, 1, 30
7, 49155, Control_c, 5, 1, 34
7, 49156, Control_c, 5, 1, 37
7, 49158, Control_c, 5, 1, 44
7, 49158, Control_c, 5, 1, 41
7, 49160, Control_c, 5, 1, 47
7, 49161, Control_c, 5, 1, 50
7, 49163, Control_c, 5, 1, 56
7, 49165, Control_c, 5, 1, 59
7, 49166, Control_c, 5, 1, 61
7, 49168, Control_c, 5, 1, 64
7, 49170, Control_c, 5, 1, 65
7, 49171, Control_c, 5, 1, 68
7, 49173, Control_c, 5, 1, 70
7, 49174, Control_c, 5, 1, 71
7, 49175, Control_c, 5, 1, 72
7, 49177, Control_c, 5, 1, 73
7, 49178, Control_c, 5, 1, 74
7, 49180, Control_c, 5, 1, 75
7, 49182, Control_c, 5, 1, 76
7, 49208, Control_c, 5, 1, 77
7, 49221, Control_c, 5, 1, 78
7, 49250, Control_c, 5, 1, 79
7, 49388, Control_c, 5, 1, 77
7, 49389, Control_c, 5, 1, 76
7, 49391, Control_c, 5, 1, 73
7, 49392, Control_c, 5, 1, 70
7, 49393, Control_c, 5, 1, 67
7, 49395, Control_c, 5, 1, 62
7, 49396, Control_c, 5, 1, 57
7, 49397, Control_c, 5, 1, 51
7, 49399, Control_c, 5, 1, 44
7, 49400, Control_c, 5, 1, 36
7, 49401, Control_c, 5, 1, 27
7, 49402, Note_on_c, 5, 67, 0
7, 49403, Control_c, 5, 1, 14
7, 49404, Control_c, 5, 1, 4
7, 49406, Control_c, 5, 1, 0
7, 49559, Note_on_c, 5, 67, 103
7, 49563, Control_c, 5, 1, 2
7, 49564, Control_c, 5, 1, 4
7, 49565, Control_c, 5, 1, 8
7, 49567, Control_c, 5, 1, 12
7, 49568, Control_c, 5, 1, 15
7, 49569, Control_c, 5, 1, 19
7, 49570, Control_c, 5, 1, 23
7, 49572, Control_c, 5, 1, 28
7, 49573, Control_c, 5, 1, 32
7, 49574, Control_c, 5, 1, 36
7, 49575, Control_c, 5, 1, 40
7, 49576, Control_c, 5, 1, 44
7, 49578, Control_c, 5, 1, 48
7, 49579, Control_c, 5, 1, 52
7, 49580, Control_c, 5, 1, 55
7, 49581, Control_c, 5, 1, 59
7, 49583, Control_c, 5, 1, 62
7, 49584, Control_c, 5, 1, 65
7, 49585, Control_c, 5, 1, 67
7, 49586, Control_c, 5, 1, 70
7, 49587, Control_c, 5, 1, 72
7, 49588, Control_c, 5, 1, 73
7, 49590, Control_c, 5, 1, 75
7, 49592, Control_c, 5, 1, 76
7, 49595, Control_c, 5, 1, 77
7, 49597, Control_c, 5, 1, 78
7, 49602, Control_c, 5, 1, 79
7, 49614, Control_c, 5, 1, 80
7, 49626, Control_c, 5, 1, 79
7, 49629, Control_c, 5, 1, 78
7, 49630, Control_c, 5, 1, 77
7, 49631, Control_c, 5, 1, 75
7, 49632, Control_c, 5, 1, 74
7, 49633, Control_c, 5, 1, 71
7, 49634, Control_c, 5, 1, 68
7, 49635, Control_c, 5, 1, 65
7, 49637, Control_c, 5, 1, 60
7, 49638, Control_c, 5, 1, 55
7, 49639, Control_c, 5, 1, 50
7, 49640, Control_c, 5, 1, 43
7, 49641, Control_c, 5, 1, 36
7, 49643, Control_c, 5, 1, 24
7, 49645, Control_c, 5, 1, 13
7, 49646, Control_c, 5, 1, 6
7, 49648, Control_c, 5, 1, 0
7, 49649, Note_on_c, 5, 64, 67
7, 49667, Note_on_c, 5, 64, 0
7, 49673, Note_on_c, 5, 67, 0
7, 49679, Note_on_c, 5, 67, 90
7, 49739, Note_on_c, 5, 64, 78
7, 49746, Note_on_c, 5, 67, 0
7, 49765, Note_on_c, 5, 64, 0
7, 49769, Note_on_c, 5, 62, 90
7, 49864, Note_on_c, 5, 62, 0
7, 50039, Note_on_c, 5, 67, 107
7, 50044, Control_c, 5, 1, 1
7, 50046, Control_c, 5, 1, 4
7, 50047, Control_c, 5, 1, 7
7, 50048, Control_c, 5, 1, 11
7, 50050, Control_c, 5, 1, 15
7, 50051, Control_c, 5, 1, 19
7, 50052, Control_c, 5, 1, 23
7, 50054, Control_c, 5, 1, 27
7, 50055, Control_c, 5, 1, 31
7, 50056, Control_c, 5, 1, 35
7, 50057, Control_c, 5, 1, 38
7, 50058, Control_c, 5, 1, 42
7, 50060, Control_c, 5, 1, 46
7, 50061, Control_c, 5, 1, 49
7, 50062, Control_c, 5, 1, 52
7, 50064, Control_c, 5, 1, 55
7, 50065, Control_c, 5, 1, 58
7, 50066, Control_c, 5, 1, 61
7, 50068, Control_c, 5, 1, 63
7, 50068, Control_c, 5, 1, 65
7, 50069, Control_c, 5, 1, 66
7, 50071, Control_c, 5, 1, 68
7, 50072, Control_c, 5, 1, 69
7, 50075, Control_c, 5, 1, 70
7, 50077, Control_c, 5, 1, 71
7, 50083, Control_c, 5, 1, 72
7, 50092, Control_c, 5, 1, 73
7, 50127, Control_c, 5, 1, 74
7, 50360, Control_c, 5, 1, 73
7, 50361, Control_c, 5, 1, 71
7, 50362, Control_c, 5, 1, 68
7, 50364, Control_c, 5, 1, 66
7, 50365, Control_c, 5, 1, 61
7, 50366, Control_c, 5, 1, 57
7, 50368, Control_c, 5, 1, 50
7, 50369, Control_c, 5, 1, 43
7, 50371, Control_c, 5, 1, 34
7, 50372, Control_c, 5, 1, 21
7, 50373, Control_c, 5, 1, 6
7, 50375, Control_c, 5, 1, 0
7, 50382, Note_on_c, 5, 67, 0
7, 50399, Note_on_c, 5, 67, 90
7, 50399, Note_on_c, 5, 62, 71
7, 50553, Note_on_c, 5, 62, 0
7, 50554, Note_on_c, 5, 67, 0
7, 50579, Note_on_c, 5, 62, 66
7, 50579, Note_on_c, 5, 67, 73
7, 50607, Control_c, 5, 1, 2
7, 50608, Control_c, 5, 1, 3
7, 50609, Control_c, 5, 1, 4
7, 50610, Control_c, 5, 1, 5
7, 50611, Control_c, 5, 1, 7
7, 50613, Control_c, 5, 1, 8
7, 50615, Control_c, 5, 1, 10
7, 50616, Control_c, 5, 1, 11
7, 50617, Control_c, 5, 1, 13
7, 50618, Control_c, 5, 1, 14
7, 50619, Control_c, 5, 1, 16
7, 50620, Control_c, 5, 1, 18
7, 50622, Control_c, 5, 1, 20
7, 50623, Control_c, 5, 1, 22
7, 50624, Control_c, 5, 1, 24
7, 50625, Control_c, 5, 1, 26
7, 50626, Control_c, 5, 1, 27
7, 50627, Control_c, 5, 1, 29
7, 50629, Control_c, 5, 1, 30
7, 50630, Control_c, 5, 1, 31
7, 50631, Control_c, 5, 1, 32
7, 50632, Control_c, 5, 1, 33
7, 50633, Control_c, 5, 1, 34
7, 50637, Control_c, 5, 1, 35
7, 50653, Control_c, 5, 1, 36
7, 50657, Control_c, 5, 1, 37
7, 50664, Control_c, 5, 1, 38
7, 50669, Control_c, 5, 1, 39
7, 50685, Control_c, 5, 1, 40
7, 50687, Control_c, 5, 1, 41
7, 50689, Control_c, 5, 1, 42
7, 50694, Control_c, 5, 1, 43
7, 50699, Control_c, 5, 1, 44
7, 50714, Control_c, 5, 1, 45
7, 50720, Control_c, 5, 1, 46
7, 50724, Control_c, 5, 1, 47
7, 50728, Control_c, 5, 1, 48
7, 50786, Control_c, 5, 1, 49
7, 50803, Control_c, 5, 1, 48
7, 50804, Control_c, 5, 1, 47
7, 50805, Control_c, 5, 1, 46
7, 50806, Control_c, 5, 1, 45
7, 50807, Control_c, 5, 1, 44
7, 50809, Control_c, 5, 1, 43
7, 50811, Control_c, 5, 1, 41
7, 50812, Control_c, 5, 1, 40
7, 50814, Control_c, 5, 1, 38
7, 50815, Control_c, 5, 1, 36
7, 50816, Control_c, 5, 1, 34
7, 50817, Control_c, 5, 1, 33
7, 50818, Control_c, 5, 1, 32
7, 50819, Control_c, 5, 1, 25
7, 50819, Control_c, 5, 1, 29
7, 50820, Control_c, 5, 1, 21
7, 50822, Control_c, 5, 1, 17
7, 50823, Control_c, 5, 1, 13
7, 50824, Control_c, 5, 1, 8
7, 50825, Control_c, 5, 1, 2
7, 50827, Control_c, 5, 1, 0
7, 50855, Note_on_c, 5, 62, 0
7, 50868, Note_on_c, 5, 67, 0
7, 50879, Note_on_c, 5, 64, 86
7, 50879, Note_on_c, 5, 69, 86
7, 51040, Note_on_c, 5, 69, 0
7, 51041, Note_on_c, 5, 64, 0
7, 51059, Note_on_c, 5, 67, 78
7, 51059, Note_on_c, 5, 62, 76
7, 51101, Control_c, 5, 1, 1
7, 51103, Control_c, 5, 1, 2
7, 51105, Control_c, 5, 1, 3
7, 51106, Control_c, 5, 1, 4
7, 51108, Control_c, 5, 1, 5
7, 51109, Control_c, 5, 1, 6
7, 51110, Control_c, 5, 1, 7
7, 51111, Control_c, 5, 1, 9
7, 51112, Control_c, 5, 1, 10
7, 51114, Control_c, 5, 1, 11
7, 51115, Control_c, 5, 1, 12
7, 51116, Control_c, 5, 1, 13
7, 51117, Control_c, 5, 1, 14
7, 51118, Control_c, 5, 1, 15
7, 51119, Control_c, 5, 1, 16
7, 51121, Control_c, 5, 1, 17
7, 51123, Control_c, 5, 1, 18
7, 51124, Control_c, 5, 1, 19
7, 51125, Control_c, 5, 1, 20
7, 51126, Control_c, 5, 1, 21
7, 51129, Control_c, 5, 1, 22
7, 51130, Control_c, 5, 1, 23
7, 51131, Control_c, 5, 1, 24
7, 51132, Control_c, 5, 1, 25
7, 51133, Control_c, 5, 1, 26
7, 51134, Control_c, 5, 1, 27
7, 51137, Control_c, 5, 1, 29
7, 51139, Control_c, 5, 1, 31
7, 51140, Control_c, 5, 1, 32
7, 51143, Control_c, 5, 1, 33
7, 51145, Control_c, 5, 1, 34
7, 51147, Control_c, 5, 1, 35
7, 51150, Control_c, 5, 1, 36
7, 51152, Control_c, 5, 1, 37
7, 51153, Control_c, 5, 1, 38
7, 51154, Control_c, 5, 1, 39
7, 51156, Control_c, 5, 1, 40
7, 51158, Control_c, 5, 1, 41
7, 51159, Control_c, 5, 1, 42
7, 51161, Control_c, 5, 1, 43
7, 51162, Control_c, 5, 1, 44
7, 51164, Control_c, 5, 1, 45
7, 51166, Control_c, 5, 1, 47
7, 51167, Control_c, 5, 1, 48
7, 51168, Control_c, 5, 1, 49
7, 51170, Control_c, 5, 1, 50
7, 51170, Control_c, 5, 1, 51
7, 51173, Control_c, 5, 1, 52
7, 51175, Control_c, 5, 1, 53
7, 51178, Control_c, 5, 1, 54
7, 51179, Control_c, 5, 1, 55
7, 51181, Control_c, 5, 1, 56
7, 51186, Control_c, 5, 1, 57
7, 51191, Control_c, 5, 1, 58
7, 51195, Control_c, 5, 1, 59
7, 51199, Control_c, 5, 1, 60
7, 51204, Control_c, 5, 1, 61
7, 51278, Control_c, 5, 1, 62
7, 51320, Control_c, 5, 1, 61
7, 51321, Control_c, 5, 1, 60
7, 51322, Control_c, 5, 1, 58
7, 51323, Control_c, 5, 1, 56
7, 51325, Control_c, 5, 1, 53
7, 51326, Control_c, 5, 1, 50
7, 51327, Control_c, 5, 1, 46
7, 51328, Control_c, 5, 1, 41
7, 51329, Control_c, 5, 1, 35
7, 51329, Control_c, 5, 1, 27
7, 51331, Control_c, 5, 1, 17
7, 51333, Control_c, 5, 1, 6
7, 51334, Control_c, 5, 1, 0
7, 51339, Note_on_c, 5, 62, 0
7, 51339, Note_on_c, 5, 67, 0
7, 51359, Note_on_c, 5, 67, 90
7, 51359, Note_on_c, 5, 62, 71
7, 51513, Note_on_c, 5, 62, 0
7, 51514, Note_on_c, 5, 67, 0
7, 51539, Note_on_c, 5, 62, 66
7, 51539, Note_on_c, 5, 67, 73
7, 51567, Control_c, 5, 1, 2
7, 51568, Control_c, 5, 1, 3
7, 51569, Control_c, 5, 1, 4
7, 51570, Control_c, 5, 1, 5
7, 51571, Control_c, 5, 1, 7
7, 51573, Control_c, 5, 1, 8
7, 51575, Control_c, 5, 1, 10
7, 51576, Control_c, 5, 1, 11
7, 51577, Control_c, 5, 1, 13
7, 51578, Control_c, 5, 1, 14
7, 51579, Control_c, 5, 1, 16
7, 51580, Control_c, 5, 1, 18
7, 51582, Control_c, 5, 1, 20
7, 51583, Control_c, 5, 1, 22
7, 51584, Control_c, 5, 1, 24
7, 51585, Control_c, 5, 1, 26
7, 51586, Control_c, 5, 1, 27
7, 51587, Control_c, 5, 1, 29
7, 51589, Control_c, 5, 1, 30
7, 51590, Control_c, 5, 1, 31
7, 51591, Control_c, 5, 1, 32
7, 51592, Control_c, 5, 1, 33
7, 51593, Control_c, 5, 1, 34
7, 51597, Control_c, 5, 1, 35
7, 51613, Control_c, 5, 1, 36
7, 51617, Control_c, 5, 1, 37
7, 51624, Control_c, 5, 1, 38
7, 51629, Control_c, 5, 1, 39
7, 51645, Control_c, 5, 1, 40
7, 51647, Control_c, 5, 1, 41
7, 51649, Control_c, 5, 1, 42
7, 51654, Control_c, 5, 1, 43
7, 51659, Control_c, 5, 1, 44
7, 51674, Control_c, 5, 1, 45
7, 51680, Control_c, 5, 1, 46
7, 51684, Control_c, 5, 1, 47
7, 51688, Control_c, 5, 1, 48
7, 51746, Control_c, 5, 1, 49
7, 51763, Control_c, 5, 1, 48
7, 51764, Control_c, 5, 1, 47
7, 51765, Control_c, 5, 1, 46
7, 51766, Control_c, 5, 1, 45
7, 51767, Control_c, 5, 1, 44
7, 51769, Control_c, 5, 1, 43
7, 51771, Control_c, 5, 1, 41
7, 51772, Control_c, 5, 1, 40
7, 51774, Control_c, 5, 1, 38
7, 51775, Control_c, 5, 1, 36
7, 51776, Control_c, 5, 1, 34
7, 51777, Control_c, 5, 1, 33
7, 51778, Control_c, 5, 1, 32
7, 51779, Control_c, 5, 1, 25
7, 51779, Control_c, 5, 1, 29
7, 51780, Control_c, 5, 1, 21
7, 51782, Control_c, 5, 1, 17
7, 51783, Control_c, 5, 1, 13
7, 51784, Control_c, 5, 1, 8
7, 51785, Control_c, 5, 1, 2
7, 51787, Control_c, 5, 1, 0
7, 51815, Note_on_c, 5, 62, 0
7, 51828, Note_on_c, 5, 67, 0
7, 51839, Note_on_c, 5, 64, 86
7, 51839, Note_on_c, 5, 69, 86
7, 52000, Note_on_c, 5, 69, 0
7, 52001, Note_on_c, 5, 64, 0
7, 52019, Note_on_c, 5, 67, 78
7, 52019, Note_on_c, 5, 62, 76
7, 52061, Control_c, 5, 1, 1
7, 52063, Control_c, 5, 1, 2
7, 52065, Control_c, 5, 1, 3
7, 52066, Control_c, 5, 1, 4
7, 52068, Control_c, 5, 1, 5
7, 52069, Control_c, 5, 1, 6
7, 52070, Control_c, 5, 1, 7
7, 52071, Control_c, 5, 1, 9
7, 52072, Control_c, 5, 1, 10
7, 52074, Control_c, 5, 1, 11
7, 52075, Control_c, 5, 1, 12
7, 52076, Control_c, 5, 1, 13
7, 52077, Control_c, 5, 1, 14
7, 52078, Control_c, 5, 1, 15
7, 52079, Control_c, 5, 1, 16
7, 52081, Control_c, 5, 1, 17
7, 52083, Control_c, 5, 1, 18
7, 52084, Control_c, 5, 1, 19
7, 52085, Control_c, 5, 1, 20
7, 52086, Control_c, 5, 1, 21
7, 52089, Control_c, 5, 1, 22
7, 52090, Control_c, 5, 1, 23
7, 52091, Control_c, 5, 1, 24
7, 52092, Control_c, 5, 1, 25
7, 52093, Control_c, 5, 1, 26
7, 52094, Control_c, 5, 1, 27
7, 52097, Control_c, 5, 1, 29
7, 52099, Control_c, 5, 1, 31
7, 52100, Control_c, 5, 1, 32
7, 52103, Control_c, 5, 1, 33
7, 52105, Control_c, 5, 1, 34
7, 52107, Control_c, 5, 1, 35
7, 52110, Control_c, 5, 1, 36
7, 52112, Control_c, 5, 1, 37
7, 52113, Control_c, 5, 1, 38
7, 52114, Control_c, 5, 1, 39
7, 52116, Control_c, 5, 1, 40
7, 52118, Control_c, 5, 1, 41
7, 52119, Control_c, 5, 1, 42
7, 52121, Control_c, 5, 1, 43
7, 52122, Control_c, 5, 1, 44
7, 52124, Control_c, 5, 1, 45
7, 52126, Control_c, 5, 1, 47
7, 52127, Control_c, 5, 1, 48
7, 52128, Control_c, 5, 1, 49
7, 52130, Control_c, 5, 1, 50
7, 52130, Control_c, 5, 1, 51
7, 52133, Control_c, 5, 1, 52
7, 52135, Control_c, 5, 1, 53
7, 52138, Control_c, 5, 1, 54
7, 52139, Control_c, 5, 1, 55
7, 52141, Control_c, 5, 1, 56
7, 52146, Control_c, 5, 1, 57
7, 52151, Control_c, 5, 1, 58
7, 52155, Control_c, 5, 1, 59
7, 52159, Control_c, 5, 1, 60
7, 52164, Control_c, 5, 1, 61
7, 52238, Control_c, 5, 1, 62
7, 52280, Control_c, 5, 1, 61
7, 52281, Control_c, 5, 1, 60
7, 52282, Control_c, 5, 1, 58
7, 52283, Control_c, 5, 1, 56
7, 52285, Control_c, 5, 1, 53
7, 52286, Control_c, 5, 1, 50
7, 52287, Control_c, 5, 1, 46
7, 52288, Control_c, 5, 1, 41
7, 52289, Control_c, 5, 1, 35
7, 52289, Control_c, 5, 1, 27
7, 52291, Control_c, 5, 1, 17
7, 52293, Control_c, 5, 1, 6
7, 52294, Control_c, 5, 1, 0
7, 52299, Note_on_c, 5, 62, 0
7, 52299, Note_on_c, 5, 67, 0
7, 52319, Note_on_c, 5, 67, 90
7, 52319, Note_on_c, 5, 62, 71
7, 52473, Note_on_c, 5, 62, 0
7, 52474, Note_on_c, 5, 67, 0
7, 52499, Note_on_c, 5, 62, 66
7, 52499, Note_on_c, 5, 67, 73
7, 52527, Control_c, 5, 1, 2
7, 52528, Control_c, 5, 1, 3
7, 52529, Control_c, 5, 1, 4
7, 52530, Control_c, 5, 1, 5
7, 52531, Control_c, 5, 1, 7
7, 52533, Control_c, 5, 1, 8
7, 52535, Control_c, 5, 1, 10
7, 52536, Control_c, 5, 1, 11
7, 52537, Control_c, 5, 1, 13
7, 52538, Control_c, 5, 1, 14
7, 52539, Control_c, 5, 1, 16
7, 52540, Control_c, 5, 1, 18
7, 52542, Control_c, 5, 1, 20
7, 52543, Control_c, 5, 1, 22
7, 52544, Control_c, 5, 1, 24
7, 52545, Control_c, 5, 1, 26
7, 52546, Control_c, 5, 1, 27
7, 52547, Control_c, 5, 1, 29
7, 52549, Control_c, 5, 1, 30
7, 52550, Control_c, 5, 1, 31
7, 52551, Control_c, 5, 1, 32
7, 52552, Control_c, 5, 1, 33
7, 52553, Control_c, 5, 1, 34
7, 52557, Control_c, 5, 1, 35
7, 52573, Control_c, 5, 1, 36
7, 52577, Control_c, 5, 1, 37
7, 52584, Control_c, 5, 1, 38
7, 52589, Control_c, 5, 1, 39
7, 52605, Control_c, 5, 1, 40
7, 52607, Control_c, 5, 1, 41
7, 52609, Control_c, 5, 1, 42
7, 52614, Control_c, 5, 1, 43
7, 52619, Control_c, 5, 1, 44
7, 52634, Control_c, 5, 1, 45
7, 52640, Control_c, 5, 1, 46
7, 52644, Control_c, 5, 1, 47
7, 52648, Control_c, 5, 1, 48
7, 52706, Control_c, 5, 1, 49
7, 52723, Control_c, 5, 1, 48
7, 52724, Control_c, 5, 1, 47
7, 52725, Control_c, 5, 1, 46
7, 52726, Control_c, 5, 1, 45
7, 52727, Control_c, 5, 1, 44
7, 52729, Control_c, 5, 1, 43
7, 52731, Control_c, 5, 1, 41
7, 52732, Control_c, 5, 1, 40
7, 52734, Control_c, 5, 1, 38
7, 52735, Control_c, 5, 1, 36
7, 52736, Control_c, 5, 1, 34
7, 52737, Control_c, 5, 1, 33
7, 52738, Control_c, 5, 1, 32
7, 52739, Control_c, 5, 1, 25
7, 52739, Control_c, 5, 1, 29
7, 52740, Control_c, 5, 1, 21
7, 52742, Control_c, 5, 1, 17
7, 52743, Control_c, 5, 1, 13
7, 52744, Control_c, 5, 1, 8
7, 52745, Control_c, 5, 1, 2
7, 52747, Control_c, 5, 1, 0
7, 52775, Note_on_c, 5, 62, 0
7, 52788, Note_on_c, 5, 67, 0
7, 52799, Note_on_c, 5, 64, 86
7, 52799, Note_on_c, 5, 69, 86
7, 52960, Note_on_c, 5, 69, 0
7, 52961, Note_on_c, 5, 64, 0
7, 52979, Note_on_c, 5, 67, 78
7, 52979, Note_on_c, 5, 62, 76
7, 53021, Control_c, 5, 1, 1
7, 53023, Control_c, 5, 1, 2
7, 53025, Control_c, 5, 1, 3
7, 53026, Control_c, 5, 1, 4
7, 53028, Control_c, 5, 1, 5
7, 53029, Control_c, 5, 1, 6
7, 53030, Control_c, 5, 1, 7
7, 53031, Control_c, 5, 1, 9
7, 53032, Control_c, 5, 1, 10
7, 53034, Control_c, 5, 1, 11
7, 53035, Control_c, 5, 1, 12
7, 53036, Control_c, 5, 1, 13
7, 53037, Control_c, 5, 1, 14
7, 53038, Control_c, 5, 1, 15
7, 53039, Control_c, 5, 1, 16
7, 53041, Control_c, 5, 1, 17
7, 53043, Control_c, 5, 1, 18
7, 53044, Control_c, 5, 1, 19
7, 53045, Control_c, 5, 1, 20
7, 53046, Control_c, 5, 1, 21
7, 53049, Control_c, 5, 1, 22
7, 53050, Control_c, 5, 1, 23
7, 53051, Control_c, 5, 1, 24
7, 53052, Control_c, 5, 1, 25
7, 53053, Control_c, 5, 1, 26
7, 53054, Control_c, 5, 1, 27
7, 53057, Control_c, 5, 1, 29
7, 53059, Control_c, 5, 1, 31
7, 53060, Control_c, 5, 1, 32
7, 53063, Control_c, 5, 1, 33
7, 53065, Control_c, 5, 1, 34
7, 53067, Control_c, 5, 1, 35
7, 53070, Control_c, 5, 1, 36
7, 53072, Control_c, 5, 1, 37
7, 53073, Control_c, 5, 1, 38
7, 53074, Control_c, 5, 1, 39
7, 53076, Control_c, 5, 1, 40
7, 53078, Control_c, 5, 1, 41
7, 53079, Control_c, 5, 1, 42
7, 53081, Control_c, 5, 1, 43
7, 53082, Control_c, 5, 1, 44
7, 53084, Control_c, 5, 1, 45
7, 53086, Control_c, 5, 1, 47
7, 53087, Control_c, 5, 1, 48
7, 53088, Control_c, 5, 1, 49
7, 53090, Control_c, 5, 1, 50
7, 53090, Control_c, 5, 1, 51
7, 53093, Control_c, 5, 1, 52
7, 53095, Control_c, 5, 1, 53
7, 53098, Control_c, 5, 1, 54
7, 53099, Control_c, 5, 1, 55
7, 53101, Control_c, 5, 1, 56
7, 53106, Control_c, 5, 1, 57
7, 53111, Control_c, 5, 1, 58
7, 53115, Control_c, 5, 1, 59
7, 53119, Control_c, 5, 1, 60
7, 53124, Control_c, 5, 1, 61
7, 53198, Control_c, 5, 1, 62
7, 53240, Control_c, 5, 1, 61
7, 53241, Control_c, 5, 1, 60
7, 53242, Control_c, 5, 1, 58
7, 53243, Control_c, 5, 1, 56
7, 53245, Control_c, 5, 1, 53
7, 53246, Control_c, 5, 1, 50
7, 53247, Control_c, 5, 1, 46
7, 53248, Control_c, 5, 1, 41
7, 53249, Control_c, 5, 1, 35
7, 53249, Control_c, 5, 1, 27
7, 53251, Control_c, 5, 1, 17
7, 53253, Control_c, 5, 1, 6
7, 53254, Control_c, 5, 1, 0
7, 53259, Note_on_c, 5, 62, 0
7, 53259, Note_on_c, 5, 67, 0
7, 53279, Note_on_c, 5, 67, 90
7, 53279, Note_on_c, 5, 62, 71
7, 53433, Note_on_c, 5, 62, 0
7, 53434, Note_on_c, 5, 67, 0
7, 53459, Note_on_c, 5, 62, 66
7, 53459, Note_on_c, 5, 67, 73
7, 53487, Control_c, 5, 1, 2
7, 53488, Control_c, 5, 1, 3
7, 53489, Control_c, 5, 1, 4
7, 53490, Control_c, 5, 1, 5
7, 53491, Control_c, 5, 1, 7
7, 53493, Control_c, 5, 1, 8
7, 53495, Control_c, 5, 1, 10
7, 53496, Control_c, 5, 1, 11
7, 53497, Control_c, 5, 1, 13
7, 53498, Control_c, 5, 1, 14
7, 53499, Control_c, 5, 1, 16
7, 53500, Control_c, 5, 1, 18
7, 53502, Control_c, 5, 1, 20
7, 53503, Control_c, 5, 1, 22
7, 53504, Control_c, 5, 1, 24
7, 53505, Control_c, 5, 1, 26
7, 53506, Control_c, 5, 1, 27
7, 53507, Control_c, 5, 1, 29
7, 53509, Control_c, 5, 1, 30
7, 53510, Control_c, 5, 1, 31
7, 53511, Control_c, 5, 1, 32
7, 53512, Control_c, 5, 1, 33
7, 53513, Control_c, 5, 1, 34
7, 53517, Control_c, 5, 1, 35
7, 53533, Control_c, 5, 1, 36
7, 53537, Control_c, 5, 1, 37
7, 53544, Control_c, 5, 1, 38
7, 53549, Control_c, 5, 1, 39
7, 53565, Control_c, 5, 1, 40
7, 53567, Control_c, 5, 1, 41
7, 53569, Control_c, 5, 1, 42
7, 53574, Control_c, 5, 1, 43
7, 53579, Control_c, 5, 1, 44
7, 53594, Control_c, 5, 1, 45
7, 53600, Control_c, 5, 1, 46
7, 53604, Control_c, 5, 1, 47
7, 53608, Control_c, 5, 1, 48
7, 53666, Control_c, 5, 1, 49
7, 53683, Control_c, 5, 1, 48
7, 53684, Control_c, 5, 1, 47
7, 53685, Control_c, 5, 1, 46
7, 53686, Control_c, 5, 1, 45
7, 53687, Control_c, 5, 1, 44
7, 53689, Control_c, 5, 1, 43
7, 53691, Control_c, 5, 1, 41
7, 53692, Control_c, 5, 1, 40
7, 53694, Control_c, 5, 1, 38
7, 53695, Control_c, 5, 1, 36
7, 53696, Control_c, 5, 1, 34
7, 53697, Control_c, 5, 1, 33
7, 53698, Control_c, 5, 1, 32
7, 53699, Control_c, 5, 1, 25
7, 53699, Control_c, 5, 1, 29
7, 53700, Control_c, 5, 1, 21
7, 53702, Control_c, 5, 1, 17
7, 53703, Control_c, 5, 1, 13
7, 53704, Control_c, 5, 1, 8
7, 53705, Control_c, 5, 1, 2
7, 53707, Control_c, 5, 1, 0
7, 53735, Note_on_c, 5, 62, 0
7, 53748, Note_on_c, 5, 67, 0
7, 53759, Note_on_c, 5, 64, 86
7, 53759, Note_on_c, 5, 69, 86
7, 53920, Note_on_c, 5, 69, 0
7, 53921, Note_on_c, 5, 64, 0
7, 53939, Note_on_c, 5, 67, 78
7, 53939, Note_on_c, 5, 62, 76
7, 53981, Control_c, 5, 1, 1
7, 53983, Control_c, 5, 1, 2
7, 53985, Control_c, 5, 1, 3
7, 53986, Control_c, 5, 1, 4
7, 53988, Control_c, 5, 1, 5
7, 53989, Control_c, 5, 1, 6
7, 53990, Control_c, 5, 1, 7
7, 53991, Control_c, 5, 1, 9
7, 53992, Control_c, 5, 1, 10
7, 53994, Control_c, 5, 1, 11
7, 53995, Control_c, 5, 1, 12
7, 53996, Control_c, 5, 1, 13
7, 53997, Control_c, 5, 1, 14
7, 53998, Control_c, 5, 1, 15
7, 53999, Control_c, 5, 1, 16
7, 54001, Control_c, 5, 1, 17
7, 54003, Control_c, 5, 1, 18
7, 54004, Control_c, 5, 1, 19
7, 54005, Control_c, 5, 1, 20
7, 54006, Control_c, 5, 1, 21
7, 54009, Control_c, 5, 1, 22
7, 54010, Control_c, 5, 1, 23
7, 54011, Control_c, 5, 1, 24
7, 54012, Control_c, 5, 1, 25
7, 54013, Control_c, 5, 1, 26
7, 54014, Control_c, 5, 1, 27
7, 54017, Control_c, 5, 1, 29
7, 54019, Control_c, 5, 1, 31
7, 54020, Control_c, 5, 1, 32
7, 54023, Control_c, 5, 1, 33
7, 54025, Control_c, 5, 1, 34
7, 54027, Control_c, 5, 1, 35
7, 54030, Control_c, 5, 1, 36
7, 54032, Control_c, 5, 1, 37
7, 54033, Control_c, 5, 1, 38
7, 54034, Control_c, 5, 1, 39
7, 54036, Control_c, 5, 1, 40
7, 54038, Control_c, 5, 1, 41
7, 54039, Control_c, 5, 1, 42
7, 54041, Control_c, 5, 1, 43
7, 54042, Control_c, 5, 1, 44
7, 54044, Control_c, 5, 1, 45
7, 54046, Control_c, 5, 1, 47
7, 54047, Control_c, 5, 1, 48
7, 54048, Control_c, 5, 1, 49
7, 54050, Control_c, 5, 1, 50
7, 54050, Control_c, 5, 1, 51
7, 54053, Control_c, 5, 1, 52
7, 54055, Control_c, 5, 1, 53
7, 54058, Control_c, 5, 1, 54
7, 54059, Control_c, 5, 1, 55
7, 54061, Control_c, 5, 1, 56
7, 54066, Control_c, 5, 1, 57
7, 54071, Control_c, 5, 1, 58
7, 54075, Control_c, 5, 1, 59
7, 54079, Control_c, 5, 1, 60
7, 54084, Control_c, 5, 1, 61
7, 54158, Control_c, 5, 1, 62
7, 54200, Control_c, 5, 1, 61
7, 54201, Control_c, 5, 1, 60
7, 54202, Control_c, 5, 1, 58
7, 54203, Control_c, 5, 1, 56
7, 54205, Control_c, 5, 1, 53
7, 54206, Control_c, 5, 1, 50
7, 54207, Control_c, 5, 1, 46
7, 54208, Control_c, 5, 1, 41
7, 54209, Control_c, 5, 1, 35
7, 54209, Control_c, 5, 1, 27
7, 54211, Control_c, 5, 1, 17
7, 54213, Control_c, 5, 1, 6
7, 54214, Control_c, 5, 1, 0
7, 54219, Note_on_c, 5, 62, 0
7, 54219, Note_on_c, 5, 67, 0
7, 54239, Note_on_c, 5, 67, 90
7, 54239, Note_on_c, 5, 62, 71
7, 54393, Note_on_c, 5, 62, 0
7, 54394, Note_on_c, 5, 67, 0
7, 54419, Note_on_c, 5, 62, 66
7, 54419, Note_on_c, 5, 67, 73
7, 54447, Control_c, 5, 1, 2
7, 54448, Control_c, 5, 1, 3
7, 54449, Control_c, 5, 1, 4
7, 54450, Control_c, 5, 1, 5
7, 54451, Control_c, 5, 1, 7
7, 54453, Control_c, 5, 1, 8
7, 54455, Control_c, 5, 1, 10
7, 54456, Control_c, 5, 1, 11
7, 54457, Control_c, 5, 1, 13
7, 54458, Control_c, 5, 1, 14
7, 54459, Control_c, 5, 1, 16
7, 54460, Control_c, 5, 1, 18
7, 54462, Control_c, 5, 1, 20
7, 54463, Control_c, 5, 1, 22
7, 54464, Control_c, 5, 1, 24
7, 54465, Control_c, 5, 1, 26
7, 54466, Control_c, 5, 1, 27
7, 54467, Control_c, 5, 1, 29
7, 54469, Control_c, 5, 1, 30
7, 54470, Control_c, 5, 1, 31
7, 54471, Control_c, 5, 1, 32
7, 54472, Control_c, 5, 1, 33
7, 54473, Control_c, 5, 1, 34
7, 54477, Control_c, 5, 1, 35
7, 54493, Control_c, 5, 1, 36
7, 54497, Control_c, 5, 1, 37
7, 54504, Control_c, 5, 1, 38
7, 54509, Control_c, 5, 1, 39
7, 54525, Control_c, 5, 1, 40
7, 54527, Control_c, 5, 1, 41
7, 54529, Control_c, 5, 1, 42
7, 54534, Control_c, 5, 1, 43
7, 54539, Control_c, 5, 1, 44
7, 54554, Control_c, 5, 1, 45
7, 54560, Control_c, 5, 1, 46
7, 54564, Control_c, 5, 1, 47
7, 54568, Control_c, 5, 1, 48
7, 54626, Control_c, 5, 1, 49
7, 54643, Control_c, 5, 1, 48
7, 54644, Control_c, 5, 1, 47
7, 54645, Control_c, 5, 1, 46
7, 54646, Control_c, 5, 1, 45
7, 54647, Control_c, 5, 1, 44
7, 54649, Control_c, 5, 1, 43
7, 54651, Control_c, 5, 1, 41
7, 54652, Control_c, 5, 1, 40
7, 54654, Control_c, 5, 1, 38
7, 54655, Control_c, 5, 1, 36
7, 54656, Control_c, 5, 1, 34
7, 54657, Control_c, 5, 1, 33
7, 54658, Control_c, 5, 1, 32
7, 54659, Control_c, 5, 1, 25
7, 54659, Control_c, 5, 1, 29
7, 54660, Control_c, 5, 1, 21
7, 54662, Control_c, 5, 1, 17
7, 54663, Control_c, 5, 1, 13
7, 54664, Control_c, 5, 1, 8
7, 54665, Control_c, 5, 1, 2
7, 54667, Control_c, 5, 1, 0
7, 54695, Note_on_c, 5, 62, 0
7, 54708, Note_on_c, 5, 67, 0
7, 54719, Note_on_c, 5, 64, 86
7, 54719, Note_on_c, 5, 69, 86
7, 54880, Note_on_c, 5, 69, 0
7, 54881, Note_on_c, 5, 64, 0
7, 54899, Note_on_c, 5, 67, 78
7, 54899, Note_on_c, 5, 62, 76
7, 54941, Control_c, 5, 1, 1
7, 54943, Control_c, 5, 1, 2
7, 54945, Control_c, 5, 1, 3
7, 54946, Control_c, 5, 1, 4
7, 54948, Control_c, 5, 1, 5
7, 54949, Control_c, 5, 1, 6
7, 54950, Control_c, 5, 1, 7
7, 54951, Control_c, 5, 1, 9
7, 54952, Control_c, 5, 1, 10
7, 54954, Control_c, 5, 1, 11
7, 54955, Control_c, 5, 1, 12
7, 54956, Control_c, 5, 1, 13
7, 54957, Control_c, 5, 1, 14
7, 54958, Control_c, 5, 1, 15
7, 54959, Control_c, 5, 1, 16
7, 54961, Control_c, 5, 1, 17
7, 54963, Control_c, 5, 1, 18
7, 54964, Control_c, 5, 1, 19
7, 54965, Control_c, 5, 1, 20
7, 54966, Control_c, 5, 1, 21
7, 54969, Control_c, 5, 1, 22
7, 54970, Control_c, 5, 1, 23
7, 54971, Control_c, 5, 1, 24
7, 54972, Control_c, 5, 1, 25
7, 54973, Control_c, 5, 1, 26
7, 54974, Control_c, 5, 1, 27
7, 54977, Control_c, 5, 1, 29
7, 54979, Control_c, 5, 1, 31
7, 54980, Control_c, 5, 1, 32
7, 54983, Control_c, 5, 1, 33
7, 54985, Control_c, 5, 1, 34
7, 54987, Control_c, 5, 1, 35
7, 54990, Control_c, 5, 1, 36
7, 54992, Control_c, 5, 1, 37
7, 54993, Control_c, 5, 1, 38
7, 54994, Control_c, 5, 1, 39
7, 54996, Control_c, 5, 1, 40
7, 54998, Control_c, 5, 1, 41
7, 54999, Control_c, 5, 1, 42
7, 55001, Control_c, 5, 1, 43
7, 55002, Control_c, 5, 1, 44
7, 55004, Control_c, 5, 1, 45
7, 55006, Control_c, 5, 1, 47
7, 55007, Control_c, 5, 1, 48
7, 55008, Control_c, 5, 1, 49
7, 55010, Control_c, 5, 1, 50
7, 55010, Control_c, 5, 1, 51
7, 55013, Control_c, 5, 1, 52
7, 55015, Control_c, 5, 1, 53
7, 55018, Control_c, 5, 1, 54
7, 55019, Control_c, 5, 1, 55
7, 55021, Control_c, 5, 1, 56
7, 55026, Control_c, 5, 1, 57
7, 55031, Control_c, 5, 1, 58
7, 55035, Control_c, 5, 1, 59
7, 55039, Control_c, 5, 1, 60
7, 55044, Control_c, 5, 1, 61
7, 55118, Control_c, 5, 1, 62
7, 55160, Control_c, 5, 1, 61
7, 55161, Control_c, 5, 1, 60
7, 55162, Control_c, 5, 1, 58
7, 55163, Control_c, 5, 1, 56
7, 55165, Control_c, 5, 1, 53
7, 55166, Control_c, 5, 1, 50
7, 55167, Control_c, 5, 1, 46
7, 55168, Control_c, 5, 1, 41
7, 55169, Control_c, 5, 1, 35
7, 55169, Control_c, 5, 1, 27
7, 55171, Control_c, 5, 1, 17
7, 55173, Control_c, 5, 1, 6
7, 55174, Control_c, 5, 1, 0
7, 55179, Note_on_c, 5, 62, 0
7, 55179, Note_on_c, 5, 67, 0
7, 55199, Note_on_c, 5, 67, 90
7, 55199, Note_on_c, 5, 62, 71
7, 55353, Note_on_c, 5, 62, 0
7, 55354, Note_on_c, 5, 67, 0
7, 55379, Note_on_c, 5, 62, 66
7, 55379, Note_on_c, 5, 67, 73
7, 55407, Control_c, 5, 1, 2
7, 55408, Control_c, 5, 1, 3
7, 55409, Control_c, 5, 1, 4
7, 55410, Control_c, 5, 1, 5
7, 55411, Control_c, 5, 1, 7
7, 55413, Control_c, 5, 1, 8
7, 55415, Control_c, 5, 1, 10
7, 55416, Control_c, 5, 1, 11
7, 55417, Control_c, 5, 1, 13
7, 55418, Control_c, 5, 1, 14
7, 55419, Control_c, 5, 1, 16
7, 55420, Control_c, 5, 1, 18
7, 55422, Control_c, 5, 1, 20
7, 55423, Control_c, 5, 1, 22
7, 55424, Control_c, 5, 1, 24
7, 55425, Control_c, 5, 1, 26
7, 55426, Control_c, 5, 1, 27
7, 55427, Control_c, 5, 1, 29
7, 55429, Control_c, 5, 1, 30
7, 55430, Control_c, 5, 1, 31
7, 55431, Control_c, 5, 1, 32
7, 55432, Control_c, 5, 1, 33
7, 55433, Control_c, 5, 1, 34
7, 55437, Control_c, 5, 1, 35
7, 55453, Control_c, 5, 1, 36
7, 55457, Control_c, 5, 1, 37
7, 55464, Control_c, 5, 1, 38
7, 55469, Control_c, 5, 1, 39
7, 55485, Control_c, 5, 1, 40
7, 55487, Control_c, 5, 1, 41
7, 55489, Control_c, 5, 1, 42
7, 55494, Control_c, 5, 1, 43
7, 55499, Control_c, 5, 1, 44
7, 55514, Control_c, 5, 1, 45
7, 55520, Control_c, 5, 1, 46
7, 55524, Control_c, 5, 1, 47
7, 55528, Control_c, 5, 1, 48
7, 55586, Control_c, 5, 1, 49
7, 55603, Control_c, 5, 1, 48
7, 55604, Control_c, 5, 1, 47
7, 55605, Control_c, 5, 1, 46
7, 55606, Control_c, 5, 1, 45
7, 55607, Control_c, 5, 1, 44
7, 55609, Control_c, 5, 1, 43
7, 55611, Control_c, 5, 1, 41
7, 55612, Control_c, 5, 1, 40
7, 55614, Control_c, 5, 1, 38
7, 55615, Control_c, 5, 1, 36
7, 55616, Control_c, 5, 1, 34
7, 55617, Control_c, 5, 1, 33
7, 55618, Control_c, 5, 1, 32
7, 55619, Control_c, 5, 1, 25
7, 55619, Control_c, 5, 1, 29
7, 55620, Control_c, 5, 1, 21
7, 55622, Control_c, 5, 1, 17
7, 55623, Control_c, 5, 1, 13
7, 55624, Control_c, 5, 1, 8
7, 55625, Control_c, 5, 1, 2
7, 55627, Control_c, 5, 1, 0
7, 55655, Note_on_c, 5, 62, 0
7, 55668, Note_on_c, 5, 67, 0
7, 55679, Note_on_c, 5, 64, 86
7, 55679, Note_on_c, 5, 69, 86
7, 55840, Note_on_c, 5, 69, 0
7, 55841, Note_on_c, 5, 64, 0
7, 55859, Note_on_c, 5, 67, 78
7, 55859, Note_on_c, 5, 62, 76
7, 55901, Control_c, 5, 1, 1
7, 55903, Control_c, 5, 1, 2
7, 55905, Control_c, 5, 1, 3
7, 55906, Control_c, 5, 1, 4
7, 55908, Control_c, 5, 1, 5
7, 55909, Control_c, 5, 1, 6
7, 55910, Control_c, 5, 1, 7
7, 55911, Control_c, 5, 1, 9
7, 55912, Control_c, 5, 1, 10
7, 55914, Control_c, 5, 1, 11
7, 55915, Control_c, 5, 1, 12
7, 55916, Control_c, 5, 1, 13
7, 55917, Control_c, 5, 1, 14
7, 55918, Control_c, 5, 1, 15
7, 55919, Control_c, 5, 1, 16
7, 55921, Control_c, 5, 1, 17
7, 55923, Control_c, 5, 1, 18
7, 55924, Control_c, 5, 1, 19
7, 55925, Control_c, 5, 1, 20
7, 55926, Control_c, 5, 1, 21
7, 55929, Control_c, 5, 1, 22
7, 55930, Control_c, 5, 1, 23
7, 55931, Control_c, 5, 1, 24
7, 55932, Control_c, 5, 1, 25
7, 55933, Control_c, 5, 1, 26
7, 55934, Control_c, 5, 1, 27
7, 55937, Control_c, 5, 1, 29
7, 55939, Control_c, 5, 1, 31
7, 55940, Control_c, 5, 1, 32
7, 55943, Control_c, 5, 1, 33
7, 55945, Control_c, 5, 1, 34
7, 55947, Control_c, 5, 1, 35
7, 55950, Control_c, 5, 1, 36
7, 55952, Control_c, 5, 1, 37
7, 55953, Control_c, 5, 1, 38
7, 55954, Control_c, 5, 1, 39
7, 55956, Control_c, 5, 1, 40
7, 55958, Control_c, 5, 1, 41
7, 55959, Control_c, 5, 1, 42
7, 55961, Control_c, 5, 1, 43
7, 55962, Control_c, 5, 1, 44
7, 55964, Control_c, 5, 1, 45
7, 55966, Control_c, 5, 1, 47
7, 55967, Control_c, 5, 1, 48
7, 55968, Control_c, 5, 1, 49
7, 55970, Control_c, 5, 1, 50
7, 55970, Control_c, 5, 1, 51
7, 55973, Control_c, 5, 1, 52
7, 55975, Control_c, 5, 1, 53
7, 55978, Control_c, 5, 1, 54
7, 55979, Control_c, 5, 1, 55
7, 55981, Control_c, 5, 1, 56
7, 55986, Control_c, 5, 1, 57
7, 55991, Control_c, 5, 1, 58
7, 55995, Control_c, 5, 1, 59
7, 55999, Control_c, 5, 1, 60
7, 56004, Control_c, 5, 1, 61
7, 56078, Control_c, 5, 1, 62
7, 56120, Control_c, 5, 1, 61
7, 56121, Control_c, 5, 1, 60
7, 56122, Control_c, 5, 1, 58
7, 56123, Control_c, 5, 1, 56
7, 56125, Control_c, 5, 1, 53
7, 56126, Control_c, 5, 1, 50
7, 56127, Control_c, 5, 1, 46
7, 56128, Control_c, 5, 1, 41
7, 56129, Control_c, 5, 1, 35
7, 56129, Control_c, 5, 1, 27
7, 56131, Control_c, 5, 1, 17
7, 56133, Control_c, 5, 1, 6
7, 56134, Control_c, 5, 1, 0
7, 56139, Note_on_c, 5, 62, 0
7, 56139, Note_on_c, 5, 67, 0
7, 56159, Note_on_c, 5, 67, 90
7, 56159, Note_on_c, 5, 62, 71
7, 56313, Note_on_c, 5, 62, 0
7, 56314, Note_on_c, 5, 67, 0
7, 56339, Note_on_c, 5, 62, 66
7, 56339, Note_on_c, 5, 67, 73
7, 56367, Control_c, 5, 1, 2
7, 56368, Control_c, 5, 1, 3
7, 56369, Control_c, 5, 1, 4
7, 56370, Control_c, 5, 1, 5
7, 56371, Control_c, 5, 1, 7
7, 56373, Control_c, 5, 1, 8
7, 56375, Control_c, 5, 1, 10
7, 56376, Control_c, 5, 1, 11
7, 56377, Control_c, 5, 1, 13
7, 56378, Control_c, 5, 1, 14
7, 56379, Control_c, 5, 1, 16
7, 56380, Control_c, 5, 1, 18
7, 56382, Control_c, 5, 1, 20
7, 56383, Control_c, 5, 1, 22
7, 56384, Control_c, 5, 1, 24
7, 56385, Control_c, 5, 1, 26
7, 56386, Control_c, 5, 1, 27
7, 56387, Control_c, 5, 1, 29
7, 56389, Control_c, 5, 1, 30
7, 56390, Control_c, 5, 1, 31
7, 56391, Control_c, 5, 1, 32
7, 56392, Control_c, 5, 1, 33
7, 56393, Control_c, 5, 1, 34
7, 56397, Control_c, 5, 1, 35
7, 56413, Control_c, 5, 1, 36
7, 56417, Control_c, 5, 1, 37
7, 56424, Control_c, 5, 1, 38
7, 56429, Control_c, 5, 1, 39
7, 56445, Control_c, 5, 1, 40
7, 56447, Control_c, 5, 1, 41
7, 56449, Control_c, 5, 1, 42
7, 56454, Control_c, 5, 1, 43
7, 56459, Control_c, 5, 1, 44
7, 56474, Control_c, 5, 1, 45
7, 56480, Control_c, 5, 1, 46
7, 56484, Control_c, 5, 1, 47
7, 56488, Control_c, 5, 1, 48
7, 56546, Control_c, 5, 1, 49
7, 56563, Control_c, 5, 1, 48
7, 56564, Control_c, 5, 1, 47
7, 56565, Control_c, 5, 1, 46
7, 56566, Control_c, 5, 1, 45
7, 56567, Control_c, 5, 1, 44
7, 56569, Control_c, 5, 1, 43
7, 56571, Control_c, 5, 1, 41
7, 56572, Control_c, 5, 1, 40
7, 56574, Control_c, 5, 1, 38
7, 56575, Control_c, 5, 1, 36
7, 56576, Control_c, 5, 1, 34
7, 56577, Control_c, 5, 1, 33
7, 56578, Control_c, 5, 1, 32
7, 56579, Control_c, 5, 1, 25
7, 56579, Control_c, 5, 1, 29
7, 56580, Control_c, 5, 1, 21
7, 56582, Control_c, 5, 1, 17
7, 56583, Control_c, 5, 1, 13
7, 56584, Control_c, 5, 1, 8
7, 56585, Control_c, 5, 1, 2
7, 56587, Control_c, 5, 1, 0
7, 56615, Note_on_c, 5, 62, 0
7, 56628, Note_on_c, 5, 67, 0
7, 56639, Note_on_c, 5, 64, 86
7, 56639, Note_on_c, 5, 69, 86
7, 56800, Note_on_c, 5, 69, 0
7, 56801, Note_on_c, 5, 64, 0
7, 56819, Note_on_c, 5, 67, 78
7, 56819, Note_on_c, 5, 62, 76
7, 56861, Control_c, 5, 1, 1
7, 56863, Control_c, 5, 1, 2
7, 56865, Control_c, 5, 1, 3
7, 56866, Control_c, 5, 1, 4
7, 56868, Control_c, 5, 1, 5
7, 56869, Control_c, 5, 1, 6
7, 56870, Control_c, 5, 1, 7
7, 56871, Control_c, 5, 1, 9
7, 56872, Control_c, 5, 1, 10
7, 56874, Control_c, 5, 1, 11
7, 56875, Control_c, 5, 1, 12
7, 56876, Control_c, 5, 1, 13
7, 56877, Control_c, 5, 1, 14
7, 56878, Control_c, 5, 1, 15
7, 56879, Control_c, 5, 1, 16
7, 56881, Control_c, 5, 1, 17
7, 56883, Control_c, 5, 1, 18
7, 56884, Control_c, 5, 1, 19
7, 56885, Control_c, 5, 1, 20
7, 56886, Control_c, 5, 1, 21
7, 56889, Control_c, 5, 1, 22
7, 56890, Control_c, 5, 1, 23
7, 56891, Control_c, 5, 1, 24
7, 56892, Control_c, 5, 1, 25
7, 56893, Control_c, 5, 1, 26
7, 56894, Control_c, 5, 1, 27
7, 56897, Control_c, 5, 1, 29
7, 56899, Control_c, 5, 1, 31
7, 56900, Control_c, 5, 1, 32
7, 56903, Control_c, 5, 1, 33
7, 56905, Control_c, 5, 1, 34
7, 56907, Control_c, 5, 1, 35
7, 56910, Control_c, 5, 1, 36
7, 56912, Control_c, 5, 1, 37
7, 56913, Control_c, 5, 1, 38
7, 56914, Control_c, 5, 1, 39
7, 56916, Control_c, 5, 1, 40
7, 56918, Control_c, 5, 1, 41
7, 56919, Control_c, 5, 1, 42
7, 56921, Control_c, 5, 1, 43
7, 56922, Control_c, 5, 1, 44
7, 56924, Control_c, 5, 1, 45
7, 56926, Control_c, 5, 1, 47
7, 56927, Control_c, 5, 1, 48
7, 56928, Control_c, 5, 1, 49
7, 56930, Control_c, 5, 1, 50
7, 56930, Control_c, 5, 1, 51
7, 56933, Control_c, 5, 1, 52
7, 56935, Control_c, 5, 1, 53
7, 56938, Control_c, 5, 1, 54
7, 56939, Control_c, 5, 1, 55
7, 56941, Control_c, 5, 1, 56
7, 56946, Control_c, 5, 1, 57
7, 56951, Control_c, 5, 1, 58
7, 56955, Control_c, 5, 1, 59
7, 56959, Control_c, 5, 1, 60
7, 56964, Control_c, 5, 1, 61
7, 57038, Control_c, 5, 1, 62
7, 57080, Control_c, 5, 1, 61
7, 57081, Control_c, 5, 1, 60
7, 57082, Control_c, 5, 1, 58
7, 57083, Control_c, 5, 1, 56
7, 57085, Control_c, 5, 1, 53
7, 57086, Control_c, 5, 1, 50
7, 57087, Control_c, 5, 1, 46
7, 57088, Control_c, 5, 1, 41
7, 57089, Control_c, 5, 1, 35
7, 57089, Control_c, 5, 1, 27
7, 57091, Control_c, 5, 1, 17
7, 57093, Control_c, 5, 1, 6
7, 57094, Control_c, 5, 1, 0
7, 57099, Note_on_c, 5, 62, 0
7, 57099, Note_on_c, 5, 67, 0
7, 57119, Note_on_c, 5, 67, 90
7, 57119, Note_on_c, 5, 62, 71
7, 57273, Note_on_c, 5, 62, 0
7, 57274, Note_on_c, 5, 67, 0
7, 57299, Note_on_c, 5, 62, 66
7, 57299, Note_on_c, 5, 67, 73
7, 57327, Control_c, 5, 1, 2
7, 57328, Control_c, 5, 1, 3
7, 57329, Control_c, 5, 1, 4
7, 57330, Control_c, 5, 1, 5
7, 57331, Control_c, 5, 1, 7
7, 57333, Control_c, 5, 1, 8
7, 57335, Control_c, 5, 1, 10
7, 57336, Control_c, 5, 1, 11
7, 57337, Control_c, 5, 1, 13
7, 57338, Control_c, 5, 1, 14
7, 57339, Control_c, 5, 1, 16
7, 57340, Control_c, 5, 1, 18
7, 57342, Control_c, 5, 1, 20
7, 57343, Control_c, 5, 1, 22
7, 57344, Control_c, 5, 1, 24
7, 57345, Control_c, 5, 1, 26
7, 57346, Control_c, 5, 1, 27
7, 57347, Control_c, 5, 1, 29
7, 57349, Control_c, 5, 1, 30
7, 57350, Control_c, 5, 1, 31
7, 57351, Control_c, 5, 1, 32
7, 57352, Control_c, 5, 1, 33
7, 57353, Control_c, 5, 1, 34
7, 57357, Control_c, 5, 1, 35
7, 57373, Control_c, 5, 1, 36
7, 57377, Control_c, 5, 1, 37
7, 57384, Control_c, 5, 1, 38
7, 57389, Control_c, 5, 1, 39
7, 57405, Control_c, 5, 1, 40
7, 57407, Control_c, 5, 1, 41
7, 57409, Control_c, 5, 1, 42
7, 57414, Control_c, 5, 1, 43
7, 57419, Control_c, 5, 1, 44
7, 57434, Control_c, 5, 1, 45
7, 57440, Control_c, 5, 1, 46
7, 57444, Control_c, 5, 1, 47
7, 57448, Control_c, 5, 1, 48
7, 57506, Control_c, 5, 1, 49
7, 57523, Control_c, 5, 1, 48
7, 57524, Control_c, 5, 1, 47
7, 57525, Control_c, 5, 1, 46
7, 57526, Control_c, 5, 1, 45
7, 57527, Control_c, 5, 1, 44
7, 57529, Control_c, 5, 1, 43
7, 57531, Control_c, 5, 1, 41
7, 57532, Control_c, 5, 1, 40
7, 57534, Control_c, 5, 1, 38
7, 57535, Control_c, 5, 1, 36
7, 57536, Control_c, 5, 1, 34
7, 57537, Control_c, 5, 1, 33
7, 57538, Control_c, 5, 1, 32
7, 57539, Control_c, 5, 1, 25
7, 57539, Control_c, 5, 1, 29
7, 57540, Control_c, 5, 1, 21
7, 57542, Control_c, 5, 1, 17
7, 57543, Control_c, 5, 1, 13
7, 57544, Control_c, 5, 1, 8
7, 57545, Control_c, 5, 1, 2
7, 57547, Control_c, 5, 1, 0
7, 57575, Note_on_c, 5, 62, 0
7, 57588, Note_on_c, 5, 67, 0
7, 57599, Note_on_c, 5, 64, 86
7, 57599, Note_on_c, 5, 69, 86
7, 57760, Note_on_c, 5, 69, 0
7, 57761, Note_on_c, 5, 64, 0
7, 57779, Note_on_c, 5, 67, 78
7, 57779, Note_on_c, 5, 62, 76
7, 57821, Control_c, 5, 1, 1
7, 57823, Control_c, 5, 1, 2
7, 57825, Control_c, 5, 1, 3
7, 57826, Control_c, 5, 1, 4
7, 57828, Control_c, 5, 1, 5
7, 57829, Control_c, 5, 1, 6
7, 57830, Control_c, 5, 1, 7
7, 57831, Control_c, 5, 1, 9
7, 57832, Control_c, 5, 1, 10
7, 57834, Control_c, 5, 1, 11
7, 57835, Control_c, 5, 1, 12
7, 57836, Control_c, 5, 1, 13
7, 57837, Control_c, 5, 1, 14
7, 57838, Control_c, 5, 1, 15
7, 57839, Control_c, 5, 1, 16
7, 57841, Control_c, 5, 1, 17
7, 57843, Control_c, 5, 1, 18
7, 57844, Control_c, 5, 1, 19
7, 57845, Control_c, 5, 1, 20
7, 57846, Control_c, 5, 1, 21
7, 57849, Control_c, 5, 1, 22
7, 57850, Control_c, 5, 1, 23
7, 57851, Control_c, 5, 1, 24
7, 57852, Control_c, 5, 1, 25
7, 57853, Control_c, 5, 1, 26
7, 57854, Control_c, 5, 1, 27
7, 57857, Control_c, 5, 1, 29
7, 57859, Control_c, 5, 1, 31
7, 57860, Control_c, 5, 1, 32
7, 57863, Control_c, 5, 1, 33
7, 57865, Control_c, 5, 1, 34
7, 57867, Control_c, 5, 1, 35
7, 57870, Control_c, 5, 1, 36
7, 57872, Control_c, 5, 1, 37
7, 57873, Control_c, 5, 1, 38
7, 57874, Control_c, 5, 1, 39
7, 57876, Control_c, 5, 1, 40
7, 57878, Control_c, 5, 1, 41
7, 57879, Control_c, 5, 1, 42
7, 57881, Control_c, 5, 1, 43
7, 57882, Control_c, 5, 1, 44
7, 57884, Control_c, 5, 1, 45
7, 57886, Control_c, 5, 1, 47
7, 57887, Control_c, 5, 1, 48
7, 57888, Control_c, 5, 1, 49
7, 57890, Control_c, 5, 1, 50
7, 57890, Control_c, 5, 1, 51
7, 57893, Control_c, 5, 1, 52
7, 57895, Control_c, 5, 1, 53
7, 57898, Control_c, 5, 1, 54
7, 57899, Control_c, 5, 1, 55
7, 57901, Control_c, 5, 1, 56
7, 57906, Control_c, 5, 1, 57
7, 57911, Control_c, 5, 1, 58
7, 57915, Control_c, 5, 1, 59
7, 57919, Control_c, 5, 1, 60
7, 57924, Control_c, 5, 1, 61
7, 57998, Control_c, 5, 1, 62
7, 58040, Control_c, 5, 1, 61
7, 58041, Control_c, 5, 1, 60
7, 58042, Control_c, 5, 1, 58
7, 58043, Control_c, 5, 1, 56
7, 58045, Control_c, 5, 1, 53
7, 58046, Control_c, 5, 1, 50
7, 58047, Control_c, 5, 1, 46
7, 58048, Control_c, 5, 1, 41
7, 58049, Control_c, 5, 1, 35
7, 58049, Control_c, 5, 1, 27
7, 58051, Control_c, 5, 1, 17
7, 58053, Control_c, 5, 1, 6
7, 58054, Control_c, 5, 1, 0
7, 58059, Note_on_c, 5, 62, 0
7, 58059, Note_on_c, 5, 67, 0
7, 58079, Control_c, 5, 10, 2
7, 58079, Note_on_c, 5, 62, 90
7, 58109, Control_c, 5, 10, 0
7, 58199, Control_c, 5, 10, 4
7, 58229, Control_c, 5, 10, 6
7, 58259, Note_on_c, 5, 67, 86
7, 58263, Note_on_c, 5, 62, 0
7, 58289, Control_c, 5, 10, 24
7, 58319, Control_c, 5, 10, 127
7, 58319, Note_on_c, 5, 62, 90
7, 58349, Note_on_c, 5, 67, 0
7, 58395, Control_c, 5, 1, 1
7, 58396, Control_c, 5, 1, 2
7, 58399, Control_c, 5, 1, 4
7, 58401, Control_c, 5, 1, 5
7, 58403, Control_c, 5, 1, 6
7, 58405, Control_c, 5, 1, 7
7, 58407, Control_c, 5, 1, 8
7, 58409, Control_c, 5, 1, 9
7, 58411, Control_c, 5, 1, 10
7, 58415, Control_c, 5, 1, 11
7, 58417, Control_c, 5, 1, 12
7, 58418, Control_c, 5, 1, 13
7, 58420, Control_c, 5, 1, 15
7, 58422, Control_c, 5, 1, 16
7, 58423, Control_c, 5, 1, 17
7, 58425, Control_c, 5, 1, 18
7, 58426, Control_c, 5, 1, 20
7, 58428, Control_c, 5, 1, 21
7, 58429, Control_c, 5, 1, 22
7, 58430, Control_c, 5, 1, 23
7, 58431, Control_c, 5, 1, 25
7, 58432, Control_c, 5, 1, 26
7, 58434, Control_c, 5, 1, 27
7, 58435, Control_c, 5, 1, 28
7, 58436, Control_c, 5, 1, 30
7, 58437, Control_c, 5, 1, 31
7, 58438, Control_c, 5, 1, 33
7, 58440, Control_c, 5, 1, 34
7, 58441, Control_c, 5, 1, 36
7, 58442, Control_c, 5, 1, 37
7, 58443, Control_c, 5, 1, 39
7, 58444, Control_c, 5, 1, 40
7, 58445, Control_c, 5, 1, 42
7, 58446, Control_c, 5, 1, 43
7, 58448, Control_c, 5, 1, 44
7, 58449, Control_c, 5, 1, 46
7, 58450, Control_c, 5, 1, 47
7, 58451, Control_c, 5, 1, 49
7, 58453, Control_c, 5, 1, 50
7, 58454, Control_c, 5, 1, 51
7, 58455, Control_c, 5, 1, 52
7, 58456, Control_c, 5, 1, 53
7, 58457, Control_c, 5, 1, 54
7, 58459, Control_c, 5, 1, 55
7, 58460, Control_c, 5, 1, 56
7, 58462, Control_c, 5, 1, 58
7, 58465, Control_c, 5, 1, 59
7, 58466, Control_c, 5, 1, 60
7, 58468, Control_c, 5, 1, 61
7, 58472, Control_c, 5, 1, 62
7, 58499, Note_on_c, 5, 67, 86
7, 58503, Note_on_c, 5, 62, 0
7, 58533, Control_c, 5, 1, 61
7, 58534, Control_c, 5, 1, 59
7, 58535, Control_c, 5, 1, 56
7, 58536, Control_c, 5, 1, 54
7, 58538, Control_c, 5, 1, 52
7, 58539, Control_c, 5, 1, 48
7, 58540, Control_c, 5, 1, 45
7, 58541, Control_c, 5, 1, 41
7, 58543, Control_c, 5, 1, 37
7, 58544, Control_c, 5, 1, 30
7, 58545, Control_c, 5, 1, 24
7, 58546, Control_c, 5, 1, 17
7, 58547, Control_c, 5, 1, 10
7, 58549, Control_c, 5, 1, 4
7, 58550, Control_c, 5, 1, 0
7, 58780, Note_on_c, 5, 67, 0
7, 58780, End_track
8, 0, Start_track
8, 0, MIDI_port, 0
8, 137, Control_c, 6, 121, 0
8, 140, Control_c, 6, 100, 0
8, 141, Control_c, 6, 101, 0
8, 142, Control_c, 6, 6, 2
8, 144, Control_c, 6, 91, 90
8, 145, Control_c, 6, 93, 90
8, 149, Control_c, 6, 1, 0
8, 150, Control_c, 6, 11, 127
8, 152, Program_c, 6, 18
8, 153, Control_c, 6, 7, 74
8, 153, Control_c, 6, 10, 0
8, 11640, Control_c, 6, 71, 88
8, 11641, Control_c, 6, 98, 33
8, 11642, Control_c, 6, 99, 1
8, 11643, Control_c, 6, 6, 88
8, 11880, Note_on_c, 6, 36, 70
8, 11881, Note_on_c, 6, 38, 70
8, 11886, Note_on_c, 6, 40, 70
8, 11901, Note_on_c, 6, 41, 73
8, 11910, Note_on_c, 6, 36, 0
8, 11914, Note_on_c, 6, 43, 75
8, 11919, Note_on_c, 6, 38, 0
8, 11920, Note_on_c, 6, 45, 76
8, 11925, Note_on_c, 6, 40, 0
8, 11925, Note_on_c, 6, 47, 77
8, 11931, Note_on_c, 6, 48, 78
8, 11932, Note_on_c, 6, 41, 0
8, 11937, Note_on_c, 6, 50, 79
8, 11938, Note_on_c, 6, 43, 0
8, 11943, Note_on_c, 6, 52, 80
8, 11944, Note_on_c, 6, 45, 0
8, 11949, Note_on_c, 6, 53, 81
8, 11950, Note_on_c, 6, 47, 0
8, 11954, Note_on_c, 6, 55, 82
8, 11955, Note_on_c, 6, 48, 0
8, 11958, Note_on_c, 6, 57, 83
8, 11960, Note_on_c, 6, 50, 0
8, 11964, Note_on_c, 6, 59, 83
8, 11966, Note_on_c, 6, 52, 0
8, 11969, Note_on_c, 6, 60, 84
8, 11971, Note_on_c, 6, 53, 0
8, 11974, Note_on_c, 6, 62, 85
8, 11976, Note_on_c, 6, 55, 0
8, 11980, Note_on_c, 6, 64, 86
8, 11981, Note_on_c, 6, 57, 0
8, 11984, Note_on_c, 6, 65, 87
8, 11987, Note_on_c, 6, 59, 0
8, 11990, Note_on_c, 6, 67, 88
8, 11992, Note_on_c, 6, 60, 0
8, 11995, Note_on_c, 6, 69, 89
8, 11997, Note_on_c, 6, 62, 0
8, 12000, Note_on_c, 6, 81, 100
8, 12000, Note_on_c, 6, 74, 90
8, 12001, Note_on_c, 6, 64, 0
8, 12004, Note_on_c, 6, 69, 0
8, 12005, Note_on_c, 6, 65, 0
8, 12008, Note_on_c, 6, 67, 0
8, 12959, Note_on_c, 6, 81, 0
8, 12971, Note_on_c, 6, 74, 0
8, 12971, Note_on_c, 6, 78, 94
8, 12972, Note_on_c, 6, 83, 92
8, 12972, Note_on_c, 6, 86, 93
8, 13182, Note_on_c, 6, 83, 0
8, 13195, Note_on_c, 6, 78, 0
8, 13201, Note_on_c, 6, 86, 0
8, 13209, Note_on_c, 6, 76, 86
8, 13210, Note_on_c, 6, 85, 94
8, 13211, Note_on_c, 6, 81, 86
8, 13428, Note_on_c, 6, 81, 0
8, 13433, Note_on_c, 6, 76, 0
8, 13436, Note_on_c, 6, 85, 0
8, 13437, Note_on_c, 6, 83, 85
8, 13438, Note_on_c, 6, 79, 91
8, 13440, Note_on_c, 6, 74, 87
8, 13667, Note_on_c, 6, 74, 0
8, 13674, Note_on_c, 6, 79, 0
8, 13674, Note_on_c, 6, 83, 0
8, 13678, Note_on_c, 6, 81, 86
8, 13682, Note_on_c, 6, 78, 76
8, 13683, Note_on_c, 6, 74, 80
8, 13918, Note_on_c, 6, 81, 0
8, 13920, Note_on_c, 6, 74, 0
8, 13920, Note_on_c, 6, 78, 0
8, 13920, Note_on_c, 6, 81, 90
8, 13920, Note_on_c, 6, 86, 93
8, 14872, Note_on_c, 6, 86, 0
8, 14874, Note_on_c, 6, 81, 0
8, 14880, Note_on_c, 6, 86, 81
8, 14880, Note_on_c, 6, 83, 87
8, 15120, Note_on_c, 6, 85, 70
8, 15120, Note_on_c, 6, 88, 80
8, 15128, Note_on_c, 6, 83, 0
8, 15129, Note_on_c, 6, 86, 0
8, 15359, Note_on_c, 6, 88, 0
8, 15360, Note_on_c, 6, 83, 85
8, 15360, Note_on_c, 6, 86, 80
8, 15370, Note_on_c, 6, 85, 0
8, 15574, Note_on_c, 6, 86, 0
8, 15594, Note_on_c, 6, 83, 0
8, 15600, Note_on_c, 6, 86, 91
8, 15600, Note_on_c, 6, 81, 83
8, 15837, Note_on_c, 6, 86, 0
8, 15840, Note_on_c, 6, 78, 92
8, 15840, Note_on_c, 6, 83, 91
8, 15840, Note_on_c, 6, 74, 86
8, 15841, Note_on_c, 6, 78, 0
8, 15841, Note_on_c, 6, 81, 0
8, 16663, Note_on_c, 6, 83, 0
8, 16680, Note_on_c, 6, 81, 88
8, 16777, Note_on_c, 6, 74, 0
8, 16796, Note_on_c, 6, 81, 0
8, 16800, Note_on_c, 6, 79, 91
8, 16800, Note_on_c, 6, 74, 91
8, 16800, Note_on_c, 6, 83, 94
8, 17019, Note_on_c, 6, 74, 0
8, 17026, Note_on_c, 6, 83, 0
8, 17038, Note_on_c, 6, 79, 0
8, 17040, Note_on_c, 6, 78, 93
8, 17040, Note_on_c, 6, 74, 90
8, 17040, Note_on_c, 6, 81, 92
8, 17261, Note_on_c, 6, 74, 0
8, 17267, Note_on_c, 6, 78, 0
8, 17276, Note_on_c, 6, 81, 0
8, 17280, Note_on_c, 6, 83, 90
8, 17280, Note_on_c, 6, 79, 94
8, 17507, Note_on_c, 6, 83, 0
8, 17517, Note_on_c, 6, 79, 0
8, 17520, Note_on_c, 6, 74, 93
8, 17520, Note_on_c, 6, 81, 93
8, 17520, Note_on_c, 6, 76, 97
8, 17572, Note_on_c, 6, 76, 0
8, 17572, Note_on_c, 6, 74, 0
8, 17578, Note_on_c, 6, 81, 0
8, 17760, Note_on_c, 6, 81, 97
8, 17760, Note_on_c, 6, 86, 99
8, 18702, Note_on_c, 6, 81, 0
8, 18704, Note_on_c, 6, 86, 0
8, 18720, Note_on_c, 6, 86, 91
8, 18720, Note_on_c, 6, 83, 92
8, 18949, Note_on_c, 6, 83, 0
8, 18949, Note_on_c, 6, 86, 0
8, 18960, Note_on_c, 6, 88, 87
8, 18960, Note_on_c, 6, 85, 78
8, 19192, Note_on_c, 6, 88, 0
8, 19200, Note_on_c, 6, 86, 78
8, 19200, Note_on_c, 6, 83, 96
8, 19207, Note_on_c, 6, 85, 0
8, 19423, Note_on_c, 6, 86, 0
8, 19440, Note_on_c, 6, 86, 91
8, 19440, Note_on_c, 6, 81, 93
8, 19444, Note_on_c, 6, 83, 0
8, 19673, Note_on_c, 6, 81, 0
8, 19675, Note_on_c, 6, 86, 0
8, 19680, Note_on_c, 6, 78, 94
8, 19680, Note_on_c, 6, 83, 94
8, 19904, Note_on_c, 6, 83, 0
8, 19910, Note_on_c, 6, 78, 0
8, 19920, Note_on_c, 6, 81, 85
8, 19920, Note_on_c, 6, 76, 92
8, 20136, Note_on_c, 6, 81, 0
8, 20140, Note_on_c, 6, 76, 0
8, 20160, Note_on_c, 6, 83, 92
8, 20160, Note_on_c, 6, 79, 93
8, 20390, Note_on_c, 6, 83, 0
8, 20400, Note_on_c, 6, 78, 97
8, 20400, Note_on_c, 6, 81, 96
8, 20411, Note_on_c, 6, 79, 0
8, 20638, Note_on_c, 6, 78, 0
8, 20639, Note_on_c, 6, 81, 0
8, 20640, Note_on_c, 6, 74, 94
8, 20640, Note_on_c, 6, 79, 88
8, 20958, Note_on_c, 6, 74, 0
8, 20976, Note_on_c, 6, 79, 0
8, 21000, Note_on_c, 6, 79, 93
8, 21000, Note_on_c, 6, 83, 94
8, 21112, Note_on_c, 6, 83, 0
8, 21115, Note_on_c, 6, 79, 0
8, 21120, Note_on_c, 6, 76, 81
8, 21120, Note_on_c, 6, 81, 82
8, 21593, Note_on_c, 6, 76, 0
8, 21600, Note_on_c, 6, 74, 88
8, 21600, Note_on_c, 6, 79, 90
8, 21603, Note_on_c, 6, 81, 0
8, 21949, Note_on_c, 6, 74, 0
8, 21953, Note_on_c, 6, 79, 0
8, 21960, Note_on_c, 6, 79, 97
8, 21960, Note_on_c, 6, 83, 94
8, 22073, Note_on_c, 6, 83, 0
8, 22079, Note_on_c, 6, 79, 0
8, 22080, Note_on_c, 6, 73, 97
8, 22080, Note_on_c, 6, 76, 91
8, 22080, Note_on_c, 6, 81, 78
8, 22313, Note_on_c, 6, 73, 0
8, 22320, Note_on_c, 6, 85, 88
8, 22544, Note_on_c, 6, 76, 0
8, 22547, Note_on_c, 6, 81, 0
8, 22549, Note_on_c, 6, 85, 0
8, 22560, Note_on_c, 6, 74, 88
8, 22560, Note_on_c, 6, 79, 90
8, 22909, Note_on_c, 6, 74, 0
8, 22913, Note_on_c, 6, 79, 0
8, 22920, Note_on_c, 6, 79, 97
8, 22920, Note_on_c, 6, 83, 94
8, 23033, Note_on_c, 6, 83, 0
8, 23039, Note_on_c, 6, 79, 0
8, 23040, Note_on_c, 6, 76, 91
8, 23040, Note_on_c, 6, 81, 78
8, 23280, Note_on_c, 6, 85, 88
8, 23504, Note_on_c, 6, 76, 0
8, 23507, Note_on_c, 6, 81, 0
8, 23509, Note_on_c, 6, 85, 0
8, 23520, Note_on_c, 6, 82, 103
8, 23520, Note_on_c, 6, 86, 99
8, 23751, Note_on_c, 6, 86, 0
8, 23760, Note_on_c, 6, 81, 96
8, 23760, Note_on_c, 6, 84, 92
8, 23763, Note_on_c, 6, 82, 0
8, 23990, Note_on_c, 6, 84, 0
8, 24000, Note_on_c, 6, 84, 91
8, 24000, Note_on_c, 6, 79, 96
8, 24012, Note_on_c, 6, 81, 0
8, 24480, Note_on_c, 6, 74, 91
8, 25434, Note_on_c, 6, 84, 0
8, 25435, Note_on_c, 6, 79, 0
8, 25440, Note_on_c, 6, 74, 0
8, 27240, Note_on_c, 6, 38, 71
8, 27241, Note_on_c, 6, 40, 71
8, 27246, Note_on_c, 6, 42, 72
8, 27261, Note_on_c, 6, 43, 74
8, 27270, Note_on_c, 6, 38, 0
8, 27274, Note_on_c, 6, 45, 76
8, 27279, Note_on_c, 6, 40, 0
8, 27280, Note_on_c, 6, 47, 77
8, 27285, Note_on_c, 6, 42, 0
8, 27285, Note_on_c, 6, 49, 78
8, 27291, Note_on_c, 6, 50, 78
8, 27292, Note_on_c, 6, 43, 0
8, 27297, Note_on_c, 6, 52, 79
8, 27298, Note_on_c, 6, 45, 0
8, 27303, Note_on_c, 6, 54, 80
8, 27304, Note_on_c, 6, 47, 0
8, 27309, Note_on_c, 6, 55, 81
8, 27310, Note_on_c, 6, 49, 0
8, 27314, Note_on_c, 6, 57, 82
8, 27315, Note_on_c, 6, 50, 0
8, 27318, Note_on_c, 6, 59, 83
8, 27320, Note_on_c, 6, 52, 0
8, 27324, Note_on_c, 6, 61, 83
8, 27326, Note_on_c, 6, 54, 0
8, 27329, Note_on_c, 6, 62, 84
8, 27331, Note_on_c, 6, 55, 0
8, 27334, Note_on_c, 6, 64, 85
8, 27336, Note_on_c, 6, 57, 0
8, 27340, Note_on_c, 6, 66, 86
8, 27341, Note_on_c, 6, 59, 0
8, 27344, Note_on_c, 6, 67, 86
8, 27347, Note_on_c, 6, 61, 0
8, 27350, Note_on_c, 6, 69, 87
8, 27352, Note_on_c, 6, 62, 0
8, 27355, Note_on_c, 6, 71, 88
8, 27357, Note_on_c, 6, 64, 0
8, 27360, Note_on_c, 6, 83, 100
8, 27360, Note_on_c, 6, 76, 89
8, 27361, Note_on_c, 6, 66, 0
8, 27364, Note_on_c, 6, 71, 0
8, 27365, Note_on_c, 6, 67, 0
8, 27368, Note_on_c, 6, 69, 0
8, 28319, Note_on_c, 6, 83, 0
8, 28331, Note_on_c, 6, 76, 0
8, 28332, Note_on_c, 6, 85, 92
8, 28332, Note_on_c, 6, 88, 93
8, 28542, Note_on_c, 6, 85, 0
8, 28561, Note_on_c, 6, 88, 0
8, 28570, Note_on_c, 6, 87, 94
8, 28571, Note_on_c, 6, 83, 86
8, 28788, Note_on_c, 6, 83, 0
8, 28796, Note_on_c, 6, 87, 0
8, 28797, Note_on_c, 6, 85, 85
8, 28798, Note_on_c, 6, 81, 91
8, 29034, Note_on_c, 6, 81, 0
8, 29034, Note_on_c, 6, 85, 0
8, 29038, Note_on_c, 6, 83, 86
8, 29042, Note_on_c, 6, 80, 76
8, 29278, Note_on_c, 6, 83, 0
8, 29280, Note_on_c, 6, 80, 0
8, 29280, Note_on_c, 6, 83, 90
8, 29280, Note_on_c, 6, 88, 93
8, 30232, Note_on_c, 6, 88, 0
8, 30234, Note_on_c, 6, 83, 0
8, 30240, Note_on_c, 6, 85, 87
8, 30240, Note_on_c, 6, 88, 81
8, 30480, Note_on_c, 6, 87, 70
8, 30480, Note_on_c, 6, 90, 80
8, 30488, Note_on_c, 6, 85, 0
8, 30489, Note_on_c, 6, 88, 0
8, 30719, Note_on_c, 6, 90, 0
8, 30720, Note_on_c, 6, 85, 85
8, 30720, Note_on_c, 6, 88, 80
8, 30730, Note_on_c, 6, 87, 0
8, 30934, Note_on_c, 6, 88, 0
8, 30954, Note_on_c, 6, 85, 0
8, 30960, Note_on_c, 6, 83, 83
8, 30960, Note_on_c, 6, 88, 91
8, 31197, Note_on_c, 6, 88, 0
8, 31200, Note_on_c, 6, 76, 86
8, 31200, Note_on_c, 6, 80, 92
8, 31200, Note_on_c, 6, 85, 91
8, 31201, Note_on_c, 6, 80, 0
8, 31201, Note_on_c, 6, 83, 0
8, 32023, Note_on_c, 6, 85, 0
8, 32040, Note_on_c, 6, 83, 88
8, 32137, Note_on_c, 6, 76, 0
8, 32156, Note_on_c, 6, 83, 0
8, 32160, Note_on_c, 6, 76, 91
8, 32160, Note_on_c, 6, 81, 91
8, 32160, Note_on_c, 6, 85, 94
8, 32280, Note_on_c, 6, 85, 0
8, 32280, Note_on_c, 6, 81, 0
8, 32280, Note_on_c, 6, 76, 0
8, 32400, Note_on_c, 6, 76, 90
8, 32400, Note_on_c, 6, 80, 93
8, 32400, Note_on_c, 6, 83, 92
8, 32520, Note_on_c, 6, 83, 0
8, 32520, Note_on_c, 6, 80, 0
8, 32520, Note_on_c, 6, 76, 0
8, 32640, Note_on_c, 6, 76, 93
8, 32640, Note_on_c, 6, 81, 94
8, 32640, Note_on_c, 6, 85, 90
8, 32864, Note_on_c, 6, 76, 0
8, 32867, Note_on_c, 6, 85, 0
8, 32877, Note_on_c, 6, 81, 0
8, 32880, Note_on_c, 6, 76, 93
8, 32880, Note_on_c, 6, 78, 97
8, 32880, Note_on_c, 6, 83, 93
8, 32932, Note_on_c, 6, 78, 0
8, 32932, Note_on_c, 6, 76, 0
8, 32938, Note_on_c, 6, 83, 0
8, 33120, Note_on_c, 6, 83, 97
8, 33120, Note_on_c, 6, 88, 99
8, 34062, Note_on_c, 6, 83, 0
8, 34064, Note_on_c, 6, 88, 0
8, 34080, Note_on_c, 6, 85, 92
8, 34080, Note_on_c, 6, 88, 91
8, 34309, Note_on_c, 6, 88, 0
8, 34309, Note_on_c, 6, 85, 0
8, 34320, Note_on_c, 6, 87, 78
8, 34320, Note_on_c, 6, 90, 87
8, 34552, Note_on_c, 6, 90, 0
8, 34560, Note_on_c, 6, 85, 96
8, 34560, Note_on_c, 6, 88, 78
8, 34567, Note_on_c, 6, 87, 0
8, 34783, Note_on_c, 6, 88, 0
8, 34800, Note_on_c, 6, 83, 93
8, 34800, Note_on_c, 6, 88, 91
8, 34804, Note_on_c, 6, 85, 0
8, 35033, Note_on_c, 6, 83, 0
8, 35035, Note_on_c, 6, 88, 0
8, 35040, Note_on_c, 6, 80, 94
8, 35040, Note_on_c, 6, 85, 94
8, 35264, Note_on_c, 6, 85, 0
8, 35270, Note_on_c, 6, 80, 0
8, 35280, Note_on_c, 6, 78, 92
8, 35280, Note_on_c, 6, 83, 85
8, 35496, Note_on_c, 6, 83, 0
8, 35500, Note_on_c, 6, 78, 0
8, 35520, Note_on_c, 6, 81, 93
8, 35520, Note_on_c, 6, 85, 92
8, 35750, Note_on_c, 6, 85, 0
8, 35760, Note_on_c, 6, 76, 93
8, 35760, Note_on_c, 6, 80, 97
8, 35760, Note_on_c, 6, 83, 96
8, 35771, Note_on_c, 6, 81, 0
8, 35998, Note_on_c, 6, 76, 0
8, 35998, Note_on_c, 6, 80, 0
8, 35999, Note_on_c, 6, 83, 0
8, 36000, Note_on_c, 6, 83, 91
8, 36000, Note_on_c, 6, 76, 90
8, 36933, Note_on_c, 6, 76, 0
8, 36959, Note_on_c, 6, 83, 0
8, 36960, Note_on_c, 6, 83, 91
8, 36960, Note_on_c, 6, 76, 90
8, 37906, Note_on_c, 6, 76, 0
8, 37919, Note_on_c, 6, 83, 0
8, 37920, Note_on_c, 6, 83, 91
8, 37920, Note_on_c, 6, 76, 90
8, 38868, Note_on_c, 6, 76, 0
8, 38879, Note_on_c, 6, 83, 0
8, 38880, Note_on_c, 6, 83, 91
8, 38880, Note_on_c, 6, 76, 90
8, 39823, Note_on_c, 6, 76, 0
8, 39839, Note_on_c, 6, 83, 0
8, 39840, Note_on_c, 6, 83, 91
8, 39840, Note_on_c, 6, 76, 90
8, 40788, Note_on_c, 6, 76, 0
8, 40799, Note_on_c, 6, 83, 0
8, 40800, Note_on_c, 6, 83, 91
8, 40800, Note_on_c, 6, 76, 90
8, 41740, Note_on_c, 6, 76, 0
8, 41759, Note_on_c, 6, 83, 0
8, 41760, Note_on_c, 6, 73, 94
8, 41760, Note_on_c, 6, 81, 88
8, 42096, Note_on_c, 6, 81, 0
8, 42120, Note_on_c, 6, 76, 78
8, 42120, Note_on_c, 6, 81, 93
8, 42120, Note_on_c, 6, 85, 94
8, 42127, Note_on_c, 6, 73, 0
8, 42230, Note_on_c, 6, 76, 0
8, 42232, Note_on_c, 6, 85, 0
8, 42235, Note_on_c, 6, 81, 0
8, 42240, Note_on_c, 6, 78, 81
8, 42240, Note_on_c, 6, 83, 82
8, 42713, Note_on_c, 6, 78, 0
8, 42720, Note_on_c, 6, 79, 101
8, 42720, Note_on_c, 6, 84, 93
8, 42720, Note_on_c, 6, 76, 97
8, 42723, Note_on_c, 6, 83, 0
8, 43177, Note_on_c, 6, 79, 0
8, 43193, Note_on_c, 6, 84, 0
8, 43195, Note_on_c, 6, 76, 0
8, 43200, Note_on_c, 6, 78, 93
8, 43200, Note_on_c, 6, 81, 90
8, 43200, Note_on_c, 6, 86, 92
8, 43673, Note_on_c, 6, 78, 0
8, 43674, Note_on_c, 6, 81, 0
8, 43679, Note_on_c, 6, 86, 0
8, 43680, Note_on_c, 6, 86, 106
8, 43680, Note_on_c, 6, 81, 96
8, 43680, Note_on_c, 6, 91, 103
8, 44147, Note_on_c, 6, 81, 0
8, 44154, Note_on_c, 6, 86, 0
8, 44158, Note_on_c, 6, 86, 77
8, 44159, Note_on_c, 6, 91, 0
8, 44160, Note_on_c, 6, 90, 96
8, 44160, Note_on_c, 6, 81, 92
8, 44436, Note_on_c, 6, 90, 0
8, 44438, Note_on_c, 6, 86, 0
8, 44439, Note_on_c, 6, 79, 82
8, 44445, Note_on_c, 6, 81, 0
8, 44448, Note_on_c, 6, 77, 77
8, 44455, Note_on_c, 6, 79, 0
8, 44460, Note_on_c, 6, 76, 71
8, 44466, Note_on_c, 6, 77, 0
8, 44468, Note_on_c, 6, 74, 94
8, 44474, Note_on_c, 6, 76, 0
8, 44475, Note_on_c, 6, 72, 93
8, 44481, Note_on_c, 6, 74, 0
8, 44482, Note_on_c, 6, 71, 94
8, 44488, Note_on_c, 6, 72, 0
8, 44491, Note_on_c, 6, 69, 83
8, 44495, Note_on_c, 6, 1, 73
8, 44498, Note_on_c, 6, 53, 99
8, 44499, Note_on_c, 6, 1, 0
8, 44500, Note_on_c, 6, 1, 68
8, 44503, Note_on_c, 6, 1, 0
8, 44503, Note_on_c, 6, 1, 70
8, 44505, Note_on_c, 6, 1, 0
8, 44505, Note_on_c, 6, 71, 0
8, 44505, Note_on_c, 6, 1, 75
8, 44507, Note_on_c, 6, 64, 71
8, 44513, Note_on_c, 6, 1, 0
8, 44513, Note_on_c, 6, 1, 77
8, 44515, Note_on_c, 6, 69, 0
8, 44515, Note_on_c, 6, 62, 73
8, 44520, Note_on_c, 6, 48, 86
8, 44524, Note_on_c, 6, 53, 0
8, 44528, Note_on_c, 6, 64, 0
8, 44528, Note_on_c, 6, 50, 91
8, 44536, Note_on_c, 6, 52, 91
8, 44537, Note_on_c, 6, 48, 0
8, 44538, Note_on_c, 6, 62, 0
8, 44545, Note_on_c, 6, 50, 0
8, 44545, Note_on_c, 6, 53, 96
8, 44551, Note_on_c, 6, 55, 92
8, 44553, Note_on_c, 6, 52, 0
8, 44559, Note_on_c, 6, 57, 92
8, 44560, Note_on_c, 6, 53, 0
8, 44566, Note_on_c, 6, 59, 93
8, 44567, Note_on_c, 6, 55, 0
8, 44573, Note_on_c, 6, 60, 91
8, 44576, Note_on_c, 6, 57, 0
8, 44580, Note_on_c, 6, 62, 94
8, 44583, Note_on_c, 6, 59, 0
8, 44587, Note_on_c, 6, 64, 88
8, 44591, Note_on_c, 6, 60, 0
8, 44594, Note_on_c, 6, 65, 88
8, 44598, Note_on_c, 6, 62, 0
8, 44602, Note_on_c, 6, 67, 94
8, 44604, Note_on_c, 6, 64, 0
8, 44608, Note_on_c, 6, 69, 106
8, 44613, Note_on_c, 6, 65, 0
8, 44615, Note_on_c, 6, 71, 85
8, 44619, Note_on_c, 6, 67, 0
8, 44625, Note_on_c, 6, 69, 0
8, 44632, Note_on_c, 6, 71, 0
8, 44640, Note_on_c, 6, 86, 91
8, 44640, Note_on_c, 6, 79, 90
8, 45599, Note_on_c, 6, 86, 0
8, 45611, Note_on_c, 6, 79, 0
8, 45612, Note_on_c, 6, 88, 92
8, 45612, Note_on_c, 6, 91, 93
8, 45822, Note_on_c, 6, 88, 0
8, 45841, Note_on_c, 6, 91, 0
8, 45850, Note_on_c, 6, 90, 94
8, 45851, Note_on_c, 6, 86, 86
8, 46068, Note_on_c, 6, 86, 0
8, 46076, Note_on_c, 6, 90, 0
8, 46077, Note_on_c, 6, 88, 85
8, 46078, Note_on_c, 6, 84, 91
8, 46314, Note_on_c, 6, 84, 0
8, 46314, Note_on_c, 6, 88, 0
8, 46318, Note_on_c, 6, 86, 86
8, 46322, Note_on_c, 6, 83, 76
8, 46552, Note_on_c, 6, 83, 0
8, 46558, Note_on_c, 6, 86, 0
8, 46560, Note_on_c, 6, 83, 92
8, 46560, Note_on_c, 6, 88, 91
8, 47363, Note_on_c, 6, 83, 0
8, 47383, Note_on_c, 6, 88, 0
8, 47400, Note_on_c, 6, 86, 88
8, 47516, Note_on_c, 6, 86, 0
8, 47520, Note_on_c, 6, 79, 91
8, 47520, Note_on_c, 6, 84, 91
8, 47520, Note_on_c, 6, 88, 94
8, 47640, Note_on_c, 6, 88, 0
8, 47640, Note_on_c, 6, 84, 0
8, 47640, Note_on_c, 6, 79, 0
8, 47760, Note_on_c, 6, 79, 90
8, 47760, Note_on_c, 6, 83, 93
8, 47760, Note_on_c, 6, 86, 92
8, 47880, Note_on_c, 6, 86, 0
8, 47880, Note_on_c, 6, 83, 0
8, 47880, Note_on_c, 6, 79, 0
8, 48000, Note_on_c, 6, 79, 93
8, 48000, Note_on_c, 6, 84, 94
8, 48000, Note_on_c, 6, 88, 90
8, 48224, Note_on_c, 6, 79, 0
8, 48227, Note_on_c, 6, 88, 0
8, 48237, Note_on_c, 6, 84, 0
8, 48240, Note_on_c, 6, 79, 93
8, 48240, Note_on_c, 6, 81, 97
8, 48240, Note_on_c, 6, 86, 93
8, 48292, Note_on_c, 6, 81, 0
8, 48292, Note_on_c, 6, 79, 0
8, 48298, Note_on_c, 6, 86, 0
8, 48480, Note_on_c, 6, 86, 97
8, 48480, Note_on_c, 6, 91, 99
8, 49422, Note_on_c, 6, 86, 0
8, 49424, Note_on_c, 6, 91, 0
8, 49440, Note_on_c, 6, 88, 92
8, 49440, Note_on_c, 6, 91, 91
8, 49669, Note_on_c, 6, 91, 0
8, 49669, Note_on_c, 6, 88, 0
8, 49680, Note_on_c, 6, 90, 78
8, 49680, Note_on_c, 6, 93, 87
8, 49912, Note_on_c, 6, 93, 0
8, 49920, Note_on_c, 6, 88, 96
8, 49920, Note_on_c, 6, 91, 78
8, 49927, Note_on_c, 6, 90, 0
8, 50143, Note_on_c, 6, 91, 0
8, 50160, Note_on_c, 6, 86, 93
8, 50160, Note_on_c, 6, 91, 91
8, 50164, Note_on_c, 6, 88, 0
8, 50393, Note_on_c, 6, 86, 0
8, 50395, Note_on_c, 6, 91, 0
8, 50400, Note_on_c, 6, 86, 91
8, 50400, Note_on_c, 6, 79, 90
8, 51345, Note_on_c, 6, 79, 0
8, 51359, Note_on_c, 6, 86, 0
8, 51360, Note_on_c, 6, 86, 91
8, 51360, Note_on_c, 6, 79, 90
8, 52310, Note_on_c, 6, 79, 0
8, 52319, Note_on_c, 6, 86, 0
8, 52320, Note_on_c, 6, 86, 91
8, 52320, Note_on_c, 6, 79, 90
8, 53255, Note_on_c, 6, 79, 0
8, 53279, Note_on_c, 6, 86, 0
8, 53280, Note_on_c, 6, 86, 91
8, 53280, Note_on_c, 6, 79, 90
8, 54210, Note_on_c, 6, 79, 0
8, 54239, Note_on_c, 6, 86, 0
8, 54240, Note_on_c, 6, 86, 114
8, 54240, Note_on_c, 6, 79, 109
8, 54240, Note_on_c, 6, 89, 106
8, 54251, Note_on_c, 6, 79, 0
8, 54316, Note_on_c, 6, 89, 0
8, 54318, Note_on_c, 6, 86, 0
8, 54328, Note_on_c, 6, 86, 92
8, 54330, Note_on_c, 6, 89, 99
8, 54330, Note_on_c, 6, 79, 92
8, 54402, Note_on_c, 6, 86, 0
8, 54404, Note_on_c, 6, 79, 0
8, 54404, Note_on_c, 6, 89, 0
8, 54422, Note_on_c, 6, 89, 101
8, 54422, Note_on_c, 6, 79, 97
8, 54423, Note_on_c, 6, 86, 112
8, 54507, Note_on_c, 6, 79, 0
8, 54508, Note_on_c, 6, 86, 0
8, 54508, Note_on_c, 6, 89, 0
8, 54522, Note_on_c, 6, 86, 103
8, 54523, Note_on_c, 6, 79, 96
8, 54523, Note_on_c, 6, 89, 106
8, 54596, Note_on_c, 6, 89, 0
8, 54596, Note_on_c, 6, 79, 0
8, 54598, Note_on_c, 6, 86, 0
8, 54613, Note_on_c, 6, 89, 97
8, 54614, Note_on_c, 6, 86, 103
8, 54615, Note_on_c, 6, 79, 103
8, 54688, Note_on_c, 6, 79, 0
8, 54688, Note_on_c, 6, 89, 0
8, 54692, Note_on_c, 6, 86, 0
8, 54703, Note_on_c, 6, 89, 96
8, 54704, Note_on_c, 6, 79, 98
8, 54704, Note_on_c, 6, 85, 90
8, 54716, Note_on_c, 6, 86, 50
8, 54723, Note_on_c, 6, 85, 0
8, 54786, Note_on_c, 6, 79, 0
8, 54788, Note_on_c, 6, 89, 0
8, 54789, Note_on_c, 6, 86, 0
8, 54803, Note_on_c, 6, 89, 97
8, 54803, Note_on_c, 6, 86, 103
8, 54803, Note_on_c, 6, 79, 97
8, 54886, Note_on_c, 6, 79, 0
8, 54888, Note_on_c, 6, 86, 0
8, 54890, Note_on_c, 6, 89, 0
8, 54902, Note_on_c, 6, 86, 96
8, 54903, Note_on_c, 6, 79, 96
8, 54903, Note_on_c, 6, 89, 94
8, 54997, Note_on_c, 6, 79, 0
8, 54998, Note_on_c, 6, 86, 0
8, 54999, Note_on_c, 6, 89, 0
8, 55010, Note_on_c, 6, 89, 92
8, 55013, Note_on_c, 6, 79, 91
8, 55014, Note_on_c, 6, 85, 96
8, 55038, Note_on_c, 6, 86, 81
8, 55048, Note_on_c, 6, 85, 0
8, 55053, Note_on_c, 6, 79, 0
8, 55057, Note_on_c, 6, 89, 0
8, 55068, Note_on_c, 6, 86, 0
8, 55080, Note_on_c, 6, 84, 91
8, 55080, Note_on_c, 6, 79, 94
8, 55080, Note_on_c, 6, 88, 94
8, 55120, Note_on_c, 6, 79, 0
8, 55121, Note_on_c, 6, 88, 0
8, 55137, Note_on_c, 6, 1, 113
8, 55200, Note_on_c, 6, 84, 0
8, 55203, Note_on_c, 6, 86, 109
8, 55204, Note_on_c, 6, 83, 114
8, 55204, Note_on_c, 6, 77, 112
8, 55281, Note_on_c, 6, 77, 0
8, 55283, Note_on_c, 6, 83, 0
8, 55285, Note_on_c, 6, 86, 0
8, 55299, Note_on_c, 6, 86, 91
8, 55299, Note_on_c, 6, 77, 94
8, 55300, Note_on_c, 6, 83, 94
8, 55367, Note_on_c, 6, 77, 0
8, 55368, Note_on_c, 6, 83, 0
8, 55370, Note_on_c, 6, 86, 0
8, 55380, Note_on_c, 6, 77, 101
8, 55380, Note_on_c, 6, 86, 90
8, 55380, Note_on_c, 6, 83, 103
8, 55590, Note_on_c, 6, 83, 0
8, 55590, Note_on_c, 6, 77, 0
8, 55592, Note_on_c, 6, 86, 0
8, 55618, Note_on_c, 6, 77, 97
8, 55618, Note_on_c, 6, 83, 109
8, 55619, Note_on_c, 6, 86, 103
8, 55636, Note_on_c, 6, 83, 0
8, 55638, Note_on_c, 6, 77, 0
8, 55639, Note_on_c, 6, 86, 0
8, 55680, Note_on_c, 6, 89, 103
8, 55680, Note_on_c, 6, 79, 103
8, 55680, Note_on_c, 6, 85, 96
8, 55686, Note_on_c, 6, 86, 80
8, 55694, Note_on_c, 6, 85, 0
8, 55757, Note_on_c, 6, 79, 0
8, 55758, Note_on_c, 6, 86, 0
8, 55759, Note_on_c, 6, 89, 0
8, 55770, Note_on_c, 6, 89, 101
8, 55772, Note_on_c, 6, 86, 106
8, 55773, Note_on_c, 6, 79, 91
8, 55844, Note_on_c, 6, 79, 0
8, 55860, Note_on_c, 6, 79, 97
8, 55936, Note_on_c, 6, 79, 0
8, 55937, Note_on_c, 6, 89, 0
8, 55939, Note_on_c, 6, 86, 0
8, 55970, Note_on_c, 6, 1, 0
8, 55970, Note_on_c, 6, 1, 109
8, 55973, Note_on_c, 6, 1, 0
8, 55974, Note_on_c, 6, 1, 85
8, 55978, Note_on_c, 6, 79, 93
8, 55978, Note_on_c, 6, 89, 99
8, 55979, Note_on_c, 6, 86, 103
8, 55980, Note_on_c, 6, 1, 0
8, 55980, Note_on_c, 6, 1, 97
8, 56017, Note_on_c, 6, 86, 0
8, 56019, Note_on_c, 6, 89, 0
8, 56028, Note_on_c, 6, 79, 0
8, 56073, Note_on_c, 6, 89, 103
8, 56073, Note_on_c, 6, 79, 98
8, 56074, Note_on_c, 6, 85, 99
8, 56077, Note_on_c, 6, 86, 93
8, 56087, Note_on_c, 6, 85, 0
8, 56124, Note_on_c, 6, 79, 0
8, 56126, Note_on_c, 6, 89, 0
8, 56126, Note_on_c, 6, 86, 0
8, 56133, Note_on_c, 6, 1, 0
8, 56135, Note_on_c, 6, 79, 91
8, 56135, Note_on_c, 6, 86, 98
8, 56136, Note_on_c, 6, 89, 109
8, 56154, Note_on_c, 6, 79, 0
8, 56156, Note_on_c, 6, 86, 0
8, 56157, Note_on_c, 6, 89, 0
8, 56161, Note_on_c, 6, 79, 94
8, 56161, Note_on_c, 6, 91, 98
8, 56161, Note_on_c, 6, 86, 101
8, 56240, Note_on_c, 6, 91, 0
8, 56240, Note_on_c, 6, 79, 0
8, 56243, Note_on_c, 6, 86, 0
8, 56250, Note_on_c, 6, 86, 92
8, 56250, Note_on_c, 6, 79, 93
8, 56250, Note_on_c, 6, 91, 85
8, 56276, Note_on_c, 6, 86, 0
8, 56280, Note_on_c, 6, 91, 0
8, 56280, Note_on_c, 6, 79, 0
8, 56305, Note_on_c, 6, 86, 54
8, 56311, Note_on_c, 6, 86, 0
8, 56331, Note_on_c, 6, 91, 96
8, 56331, Note_on_c, 6, 86, 97
8, 56331, Note_on_c, 6, 79, 99
8, 56445, Note_on_c, 6, 79, 0
8, 56445, Note_on_c, 6, 91, 0
8, 56448, Note_on_c, 6, 86, 0
8, 56455, Note_on_c, 6, 91, 98
8, 56455, Note_on_c, 6, 79, 97
8, 56455, Note_on_c, 6, 86, 93
8, 56620, Note_on_c, 6, 79, 0
8, 56620, Note_on_c, 6, 91, 0
8, 56624, Note_on_c, 6, 86, 0
8, 56638, Note_on_c, 6, 91, 101
8, 56639, Note_on_c, 6, 85, 106
8, 56639, Note_on_c, 6, 79, 106
8, 56640, Note_on_c, 6, 86, 103
8, 56652, Note_on_c, 6, 85, 0
8, 56724, Note_on_c, 6, 79, 0
8, 56726, Note_on_c, 6, 91, 0
8, 56728, Note_on_c, 6, 86, 0
8, 56733, Note_on_c, 6, 86, 101
8, 56734, Note_on_c, 6, 91, 93
8, 56735, Note_on_c, 6, 79, 97
8, 56773, Note_on_c, 6, 86, 0
8, 56779, Note_on_c, 6, 91, 0
8, 56803, Note_on_c, 6, 79, 0
8, 56818, Note_on_c, 6, 86, 106
8, 56818, Note_on_c, 6, 91, 99
8, 56819, Note_on_c, 6, 79, 103
8, 56917, Note_on_c, 6, 91, 0
8, 56921, Note_on_c, 6, 79, 0
8, 56925, Note_on_c, 6, 86, 0
8, 56936, Note_on_c, 6, 89, 109
8, 56936, Note_on_c, 6, 79, 97
8, 56937, Note_on_c, 6, 85, 109
8, 56959, Note_on_c, 6, 86, 71
8, 56963, Note_on_c, 6, 85, 0
8, 56974, Note_on_c, 6, 79, 0
8, 56981, Note_on_c, 6, 89, 0
8, 56988, Note_on_c, 6, 86, 0
8, 56995, Note_on_c, 6, 88, 94
8, 56995, Note_on_c, 6, 84, 94
8, 56996, Note_on_c, 6, 79, 92
8, 57034, Note_on_c, 6, 84, 0
8, 57036, Note_on_c, 6, 79, 0
8, 57044, Note_on_c, 6, 88, 0
8, 57054, Note_on_c, 6, 86, 101
8, 57054, Note_on_c, 6, 83, 97
8, 57055, Note_on_c, 6, 77, 94
8, 57088, Note_on_c, 6, 83, 0
8, 57090, Note_on_c, 6, 86, 0
8, 57093, Note_on_c, 6, 77, 0
8, 57120, Note_on_c, 6, 86, 99
8, 57120, Note_on_c, 6, 83, 109
8, 57120, Note_on_c, 6, 77, 106
8, 57205, Note_on_c, 6, 77, 0
8, 57205, Note_on_c, 6, 83, 0
8, 57209, Note_on_c, 6, 86, 0
8, 57213, Note_on_c, 6, 77, 98
8, 57214, Note_on_c, 6, 83, 106
8, 57214, Note_on_c, 6, 86, 93
8, 57218, Note_on_c, 6, 84, 82
8, 57225, Note_on_c, 6, 84, 0
8, 57240, Note_on_c, 6, 83, 0
8, 57240, Note_on_c, 6, 86, 0
8, 57249, Note_on_c, 6, 77, 0
8, 57297, Note_on_c, 6, 83, 112
8, 57297, Note_on_c, 6, 77, 109
8, 57298, Note_on_c, 6, 86, 114
8, 57396, Note_on_c, 6, 77, 0
8, 57396, Note_on_c, 6, 83, 0
8, 57397, Note_on_c, 6, 86, 0
8, 57405, Note_on_c, 6, 77, 97
8, 57405, Note_on_c, 6, 83, 93
8, 57406, Note_on_c, 6, 86, 86
8, 57582, Note_on_c, 6, 83, 0
8, 57582, Note_on_c, 6, 77, 0
8, 57589, Note_on_c, 6, 86, 0
8, 57600, Note_on_c, 6, 79, 106
8, 57600, Note_on_c, 6, 89, 101
8, 57601, Note_on_c, 6, 85, 103
8, 57604, Note_on_c, 6, 86, 83
8, 57606, Note_on_c, 6, 88, 56
8, 57609, Note_on_c, 6, 88, 0
8, 57623, Note_on_c, 6, 85, 0
8, 57679, Note_on_c, 6, 79, 0
8, 57682, Note_on_c, 6, 86, 0
8, 57683, Note_on_c, 6, 89, 0
8, 57690, Note_on_c, 6, 89, 103
8, 57690, Note_on_c, 6, 79, 94
8, 57690, Note_on_c, 6, 86, 91
8, 57715, Note_on_c, 6, 79, 0
8, 57717, Note_on_c, 6, 89, 0
8, 57771, Note_on_c, 6, 86, 0
8, 57777, Note_on_c, 6, 89, 112
8, 57778, Note_on_c, 6, 86, 103
8, 57778, Note_on_c, 6, 79, 112
8, 57870, Note_on_c, 6, 79, 0
8, 57870, Note_on_c, 6, 86, 0
8, 57874, Note_on_c, 6, 89, 0
8, 57887, Note_on_c, 6, 89, 112
8, 57888, Note_on_c, 6, 79, 109
8, 57888, Note_on_c, 6, 86, 120
8, 57917, Note_on_c, 6, 79, 0
8, 57960, Note_on_c, 6, 84, 68
8, 57965, Note_on_c, 6, 86, 0
8, 57965, Note_on_c, 6, 89, 0
8, 57965, Note_on_c, 6, 83, 77
8, 57972, Note_on_c, 6, 84, 0
8, 57976, Note_on_c, 6, 81, 72
8, 57981, Note_on_c, 6, 83, 0
8, 57985, Note_on_c, 6, 79, 81
8, 57987, Note_on_c, 6, 81, 0
8, 57991, Note_on_c, 6, 77, 73
8, 57993, Note_on_c, 6, 79, 0
8, 57998, Note_on_c, 6, 76, 75
8, 57999, Note_on_c, 6, 77, 0
8, 58003, Note_on_c, 6, 74, 83
8, 58007, Note_on_c, 6, 76, 0
8, 58008, Note_on_c, 6, 72, 86
8, 58014, Note_on_c, 6, 74, 0
8, 58014, Note_on_c, 6, 71, 87
8, 58018, Note_on_c, 6, 72, 0
8, 58020, Note_on_c, 6, 69, 91
8, 58023, Note_on_c, 6, 71, 0
8, 58025, Note_on_c, 6, 67, 91
8, 58028, Note_on_c, 6, 69, 0
8, 58030, Note_on_c, 6, 65, 88
8, 58033, Note_on_c, 6, 67, 0
8, 58036, Note_on_c, 6, 64, 88
8, 58038, Note_on_c, 6, 65, 0
8, 58042, Note_on_c, 6, 62, 88
8, 58043, Note_on_c, 6, 64, 0
8, 58048, Note_on_c, 6, 62, 0
8, 58048, Note_on_c, 6, 60, 72
8, 58054, Note_on_c, 6, 60, 0
8, 100193, Note_on_c, 6, 1, 0
8, 100193, End_track
9, 0, Start_track
9, 0, MIDI_port, 0
9, 140, Control_c, 7, 121, 0
9, 143, Control_c, 7, 100, 0
9, 144, Control_c, 7, 101, 0
9, 145, Control_c, 7, 6, 2
9, 147, Control_c, 7, 91, 63
9, 148, Control_c, 7, 93, 110
9, 152, Control_c, 7, 1, 0
9, 153, Control_c, 7, 11, 127
9, 155, Control_c, 7, 0, 8
9, 157, Program_c, 7, 28
9, 158, Control_c, 7, 7, 90
9, 158, Control_c, 7, 10, 127
9, 11778, Control_c, 7, 71, 77
9, 11780, Control_c, 7, 98, 33
9, 11781, Control_c, 7, 99, 1
9, 11782, Control_c, 7, 6, 77
9, 11783, Control_c, 7, 72, 80
9, 11785, Control_c, 7, 98, 102
9, 11786, Control_c, 7, 99, 1
9, 11787, Control_c, 7, 6, 80
9, 11999, Note_on_c, 7, 62, 96
9, 12018, Note_on_c, 7, 62, 0
9, 12089, Note_on_c, 7, 62, 91
9, 12108, Note_on_c, 7, 62, 0
9, 12180, Note_on_c, 7, 62, 96
9, 12193, Control_c, 7, 1, 12
9, 12198, Control_c, 7, 1, 31
9, 12202, Control_c, 7, 1, 44
9, 12208, Control_c, 7, 1, 52
9, 12212, Control_c, 7, 1, 58
9, 12217, Control_c, 7, 1, 63
9, 12225, Control_c, 7, 1, 69
9, 12248, Control_c, 7, 1, 68
9, 12253, Control_c, 7, 1, 46
9, 12258, Control_c, 7, 1, 0
9, 12278, Note_on_c, 7, 62, 0
9, 12299, Note_on_c, 7, 62, 89
9, 12319, Note_on_c, 7, 62, 0
9, 12329, Note_on_c, 7, 62, 80
9, 12354, Note_on_c, 7, 62, 0
9, 12419, Note_on_c, 7, 62, 99
9, 12437, Note_on_c, 7, 62, 0
9, 12450, Note_on_c, 7, 62, 84
9, 12477, Note_on_c, 7, 62, 0
9, 12569, Note_on_c, 7, 62, 96
9, 12587, Note_on_c, 7, 62, 0
9, 12659, Note_on_c, 7, 62, 91
9, 12675, Control_c, 7, 1, 11
9, 12680, Control_c, 7, 1, 22
9, 12685, Control_c, 7, 1, 30
9, 12689, Control_c, 7, 1, 37
9, 12694, Control_c, 7, 1, 43
9, 12699, Control_c, 7, 1, 47
9, 12704, Control_c, 7, 1, 52
9, 12714, Control_c, 7, 1, 56
9, 12723, Control_c, 7, 1, 60
9, 12743, Control_c, 7, 1, 49
9, 12747, Control_c, 7, 1, 1
9, 12749, Control_c, 7, 1, 0
9, 12759, Note_on_c, 7, 62, 0
9, 12779, Note_on_c, 7, 62, 89
9, 12796, Note_on_c, 7, 62, 0
9, 12809, Note_on_c, 7, 62, 78
9, 12830, Note_on_c, 7, 62, 0
9, 12900, Note_on_c, 7, 62, 107
9, 12917, Note_on_c, 7, 62, 0
9, 12930, Note_on_c, 7, 62, 82
9, 12953, Note_on_c, 7, 62, 0
9, 13049, Note_on_c, 7, 59, 99
9, 13067, Note_on_c, 7, 59, 0
9, 13140, Note_on_c, 7, 57, 102
9, 13247, Note_on_c, 7, 57, 0
9, 13259, Note_on_c, 7, 57, 102
9, 13276, Note_on_c, 7, 57, 0
9, 13289, Note_on_c, 7, 57, 81
9, 13313, Note_on_c, 7, 57, 0
9, 13379, Note_on_c, 7, 57, 96
9, 13399, Note_on_c, 7, 57, 0
9, 13410, Note_on_c, 7, 57, 84
9, 13437, Note_on_c, 7, 57, 0
9, 13530, Pitch_bend_c, 7, 8192
9, 13530, Pitch_bend_c, 7, 7296
9, 13532, Pitch_bend_c, 7, 6144
9, 13533, Pitch_bend_c, 7, 4736
9, 13535, Pitch_bend_c, 7, 3200
9, 13536, Pitch_bend_c, 7, 1536
9, 13537, Pitch_bend_c, 7, 0
9, 13559, Note_on_c, 7, 59, 107
9, 13568, Pitch_bend_c, 7, 640
9, 13569, Pitch_bend_c, 7, 1408
9, 13570, Pitch_bend_c, 7, 2432
9, 13571, Pitch_bend_c, 7, 3584
9, 13572, Pitch_bend_c, 7, 4736
9, 13574, Pitch_bend_c, 7, 6144
9, 13575, Pitch_bend_c, 7, 7424
9, 13576, Pitch_bend_c, 7, 8192
9, 13619, Note_on_c, 7, 59, 0
9, 13619, Note_on_c, 7, 62, 87
9, 13717, Note_on_c, 7, 62, 0
9, 13739, Note_on_c, 7, 62, 102
9, 13755, Note_on_c, 7, 62, 0
9, 13769, Note_on_c, 7, 62, 88
9, 13791, Note_on_c, 7, 62, 0
9, 13860, Note_on_c, 7, 57, 93
9, 13876, Note_on_c, 7, 57, 0
9, 13919, Note_on_c, 7, 62, 96
9, 13938, Note_on_c, 7, 62, 0
9, 14009, Note_on_c, 7, 62, 91
9, 14028, Note_on_c, 7, 62, 0
9, 14100, Note_on_c, 7, 62, 96
9, 14110, Control_c, 7, 1, 1
9, 14114, Control_c, 7, 1, 17
9, 14119, Control_c, 7, 1, 35
9, 14124, Control_c, 7, 1, 47
9, 14129, Control_c, 7, 1, 54
9, 14134, Control_c, 7, 1, 60
9, 14138, Control_c, 7, 1, 65
9, 14147, Control_c, 7, 1, 70
9, 14169, Control_c, 7, 1, 65
9, 14174, Control_c, 7, 1, 36
9, 14178, Control_c, 7, 1, 0
9, 14211, Note_on_c, 7, 62, 0
9, 14219, Note_on_c, 7, 62, 89
9, 14239, Note_on_c, 7, 62, 0
9, 14249, Note_on_c, 7, 62, 80
9, 14274, Note_on_c, 7, 62, 0
9, 14339, Note_on_c, 7, 62, 99
9, 14357, Note_on_c, 7, 62, 0
9, 14370, Note_on_c, 7, 62, 84
9, 14397, Note_on_c, 7, 62, 0
9, 14489, Note_on_c, 7, 62, 96
9, 14507, Note_on_c, 7, 62, 0
9, 14579, Note_on_c, 7, 62, 91
9, 14594, Control_c, 7, 1, 8
9, 14598, Control_c, 7, 1, 19
9, 14603, Control_c, 7, 1, 28
9, 14608, Control_c, 7, 1, 35
9, 14613, Control_c, 7, 1, 42
9, 14618, Control_c, 7, 1, 46
9, 14622, Control_c, 7, 1, 51
9, 14632, Control_c, 7, 1, 55
9, 14642, Control_c, 7, 1, 59
9, 14661, Control_c, 7, 1, 56
9, 14666, Control_c, 7, 1, 10
9, 14669, Control_c, 7, 1, 0
9, 14694, Note_on_c, 7, 62, 0
9, 14699, Note_on_c, 7, 62, 89
9, 14716, Note_on_c, 7, 62, 0
9, 14729, Note_on_c, 7, 62, 78
9, 14750, Note_on_c, 7, 62, 0
9, 14820, Note_on_c, 7, 62, 107
9, 14837, Note_on_c, 7, 62, 0
9, 14850, Note_on_c, 7, 62, 82
9, 14873, Note_on_c, 7, 62, 0
9, 14969, Note_on_c, 7, 59, 99
9, 14987, Note_on_c, 7, 59, 0
9, 15060, Note_on_c, 7, 57, 102
9, 15167, Note_on_c, 7, 57, 0
9, 15179, Note_on_c, 7, 57, 102
9, 15196, Note_on_c, 7, 57, 0
9, 15209, Note_on_c, 7, 57, 81
9, 15233, Note_on_c, 7, 57, 0
9, 15299, Note_on_c, 7, 57, 96
9, 15319, Note_on_c, 7, 57, 0
9, 15330, Note_on_c, 7, 57, 84
9, 15357, Note_on_c, 7, 57, 0
9, 15449, Note_on_c, 7, 62, 93
9, 15464, Note_on_c, 7, 62, 0
9, 15539, Note_on_c, 7, 62, 89
9, 15541, Control_c, 7, 1, 5
9, 15547, Control_c, 7, 1, 27
9, 15552, Control_c, 7, 1, 48
9, 15557, Control_c, 7, 1, 67
9, 15562, Control_c, 7, 1, 82
9, 15567, Control_c, 7, 1, 89
9, 15575, Control_c, 7, 1, 94
9, 15584, Control_c, 7, 1, 98
9, 15598, Control_c, 7, 1, 102
9, 15610, Control_c, 7, 1, 107
9, 15624, Control_c, 7, 1, 111
9, 15646, Note_on_c, 7, 62, 0
9, 15647, Control_c, 7, 1, 104
9, 15651, Control_c, 7, 1, 99
9, 15654, Control_c, 7, 1, 64
9, 15656, Control_c, 7, 1, 34
9, 15659, Note_on_c, 7, 62, 87
9, 15660, Control_c, 7, 1, 0
9, 15675, Note_on_c, 7, 62, 0
9, 15689, Note_on_c, 7, 62, 89
9, 15719, Control_c, 7, 1, 15
9, 15723, Control_c, 7, 1, 49
9, 15729, Control_c, 7, 1, 80
9, 15734, Control_c, 7, 1, 94
9, 15739, Control_c, 7, 1, 100
9, 15765, Control_c, 7, 1, 102
9, 15770, Control_c, 7, 1, 92
9, 15775, Control_c, 7, 1, 61
9, 15776, Note_on_c, 7, 62, 0
9, 15780, Note_on_c, 7, 59, 75
9, 15780, Note_on_c, 7, 57, 96
9, 15780, Control_c, 7, 1, 1
9, 15783, Control_c, 7, 1, 0
9, 15785, Note_on_c, 7, 59, 0
9, 15839, Note_on_c, 7, 59, 96
9, 15841, Note_on_c, 7, 57, 0
9, 15913, Note_on_c, 7, 59, 0
9, 15929, Note_on_c, 7, 57, 87
9, 15947, Note_on_c, 7, 57, 0
9, 15990, Note_on_c, 7, 57, 76
9, 16000, Note_on_c, 7, 57, 0
9, 16020, Note_on_c, 7, 59, 83
9, 16093, Note_on_c, 7, 59, 0
9, 16110, Note_on_c, 7, 59, 81
9, 16125, Note_on_c, 7, 59, 0
9, 16139, Note_on_c, 7, 57, 78
9, 16158, Note_on_c, 7, 57, 0
9, 16191, Control_c, 7, 1, 1
9, 16196, Control_c, 7, 1, 19
9, 16200, Note_on_c, 7, 59, 83
9, 16200, Control_c, 7, 1, 44
9, 16205, Control_c, 7, 1, 64
9, 16209, Control_c, 7, 1, 77
9, 16214, Control_c, 7, 1, 91
9, 16219, Control_c, 7, 1, 98
9, 16225, Control_c, 7, 1, 102
9, 16256, Control_c, 7, 1, 99
9, 16261, Control_c, 7, 1, 78
9, 16265, Control_c, 7, 1, 31
9, 16270, Control_c, 7, 1, 0
9, 16290, Note_on_c, 7, 59, 0
9, 16320, Note_on_c, 7, 59, 81
9, 16391, Note_on_c, 7, 59, 0
9, 16409, Note_on_c, 7, 57, 87
9, 16424, Note_on_c, 7, 57, 0
9, 16470, Note_on_c, 7, 57, 67
9, 16483, Note_on_c, 7, 57, 0
9, 16499, Note_on_c, 7, 59, 87
9, 16581, Note_on_c, 7, 59, 0
9, 16590, Note_on_c, 7, 59, 76
9, 16605, Note_on_c, 7, 59, 0
9, 16619, Note_on_c, 7, 57, 72
9, 16637, Note_on_c, 7, 57, 0
9, 16680, Note_on_c, 7, 59, 87
9, 16684, Control_c, 7, 1, 7
9, 16690, Control_c, 7, 1, 28
9, 16694, Control_c, 7, 1, 42
9, 16699, Control_c, 7, 1, 52
9, 16704, Control_c, 7, 1, 59
9, 16708, Control_c, 7, 1, 64
9, 16716, Control_c, 7, 1, 68
9, 16723, Control_c, 7, 1, 72
9, 16754, Control_c, 7, 1, 77
9, 16770, Control_c, 7, 1, 67
9, 16773, Note_on_c, 7, 59, 0
9, 16775, Control_c, 7, 1, 43
9, 16780, Control_c, 7, 1, 1
9, 16781, Control_c, 7, 1, 0
9, 16799, Note_on_c, 7, 62, 87
9, 16839, Note_on_c, 7, 62, 0
9, 16860, Note_on_c, 7, 62, 84
9, 16875, Note_on_c, 7, 62, 0
9, 16889, Note_on_c, 7, 62, 51
9, 16906, Note_on_c, 7, 62, 0
9, 16950, Note_on_c, 7, 62, 93
9, 16964, Note_on_c, 7, 62, 0
9, 16980, Note_on_c, 7, 62, 52
9, 16991, Note_on_c, 7, 62, 0
9, 17040, Note_on_c, 7, 62, 89
9, 17089, Note_on_c, 7, 62, 0
9, 17099, Note_on_c, 7, 62, 84
9, 17115, Note_on_c, 7, 62, 0
9, 17129, Note_on_c, 7, 62, 45
9, 17142, Note_on_c, 7, 62, 0
9, 17190, Note_on_c, 7, 62, 87
9, 17206, Note_on_c, 7, 62, 0
9, 17219, Note_on_c, 7, 62, 73
9, 17238, Note_on_c, 7, 62, 0
9, 17280, Note_on_c, 7, 62, 89
9, 17331, Note_on_c, 7, 62, 0
9, 17339, Note_on_c, 7, 62, 78
9, 17356, Note_on_c, 7, 62, 0
9, 17369, Note_on_c, 7, 62, 71
9, 17392, Note_on_c, 7, 62, 0
9, 17430, Note_on_c, 7, 62, 87
9, 17448, Note_on_c, 7, 62, 0
9, 17459, Note_on_c, 7, 62, 67
9, 17481, Note_on_c, 7, 62, 0
9, 17512, Control_c, 7, 1, 2
9, 17517, Control_c, 7, 1, 30
9, 17519, Note_on_c, 7, 57, 89
9, 17522, Control_c, 7, 1, 52
9, 17527, Control_c, 7, 1, 68
9, 17532, Control_c, 7, 1, 76
9, 17539, Control_c, 7, 1, 80
9, 17549, Note_on_c, 7, 57, 0
9, 17550, Control_c, 7, 1, 85
9, 17579, Note_on_c, 7, 57, 89
9, 17596, Note_on_c, 7, 57, 0
9, 17609, Note_on_c, 7, 57, 67
9, 17631, Note_on_c, 7, 57, 0
9, 17637, Control_c, 7, 1, 77
9, 17640, Note_on_c, 7, 62, 93
9, 17642, Control_c, 7, 1, 46
9, 17646, Control_c, 7, 1, 0
9, 17689, Note_on_c, 7, 62, 0
9, 17700, Note_on_c, 7, 59, 89
9, 17719, Note_on_c, 7, 59, 0
9, 17759, Note_on_c, 7, 62, 96
9, 17778, Note_on_c, 7, 62, 0
9, 17849, Note_on_c, 7, 62, 91
9, 17868, Note_on_c, 7, 62, 0
9, 17940, Note_on_c, 7, 62, 96
9, 17952, Control_c, 7, 1, 7
9, 17957, Control_c, 7, 1, 27
9, 17961, Control_c, 7, 1, 42
9, 17966, Control_c, 7, 1, 51
9, 17971, Control_c, 7, 1, 57
9, 17976, Control_c, 7, 1, 62
9, 17983, Control_c, 7, 1, 68
9, 18007, Control_c, 7, 1, 70
9, 18012, Control_c, 7, 1, 54
9, 18017, Control_c, 7, 1, 7
9, 18018, Control_c, 7, 1, 0
9, 18038, Note_on_c, 7, 62, 0
9, 18059, Note_on_c, 7, 62, 89
9, 18079, Note_on_c, 7, 62, 0
9, 18089, Note_on_c, 7, 62, 80
9, 18114, Note_on_c, 7, 62, 0
9, 18179, Note_on_c, 7, 62, 99
9, 18197, Note_on_c, 7, 62, 0
9, 18210, Note_on_c, 7, 62, 84
9, 18237, Note_on_c, 7, 62, 0
9, 18329, Note_on_c, 7, 62, 96
9, 18347, Note_on_c, 7, 62, 0
9, 18419, Note_on_c, 7, 62, 91
9, 18431, Control_c, 7, 1, 2
9, 18436, Control_c, 7, 1, 14
9, 18441, Control_c, 7, 1, 24
9, 18446, Control_c, 7, 1, 31
9, 18450, Control_c, 7, 1, 39
9, 18455, Control_c, 7, 1, 44
9, 18460, Control_c, 7, 1, 49
9, 18466, Control_c, 7, 1, 53
9, 18476, Control_c, 7, 1, 57
9, 18485, Control_c, 7, 1, 61
9, 18504, Control_c, 7, 1, 39
9, 18509, Control_c, 7, 1, 0
9, 18519, Note_on_c, 7, 62, 0
9, 18539, Note_on_c, 7, 62, 89
9, 18556, Note_on_c, 7, 62, 0
9, 18569, Note_on_c, 7, 62, 78
9, 18590, Note_on_c, 7, 62, 0
9, 18660, Note_on_c, 7, 62, 107
9, 18677, Note_on_c, 7, 62, 0
9, 18690, Note_on_c, 7, 62, 82
9, 18713, Note_on_c, 7, 62, 0
9, 18809, Note_on_c, 7, 59, 99
9, 18827, Note_on_c, 7, 59, 0
9, 18900, Note_on_c, 7, 57, 102
9, 19007, Note_on_c, 7, 57, 0
9, 19019, Note_on_c, 7, 57, 102
9, 19036, Note_on_c, 7, 57, 0
9, 19049, Note_on_c, 7, 57, 81
9, 19073, Note_on_c, 7, 57, 0
9, 19139, Note_on_c, 7, 57, 96
9, 19159, Note_on_c, 7, 57, 0
9, 19170, Note_on_c, 7, 57, 84
9, 19197, Note_on_c, 7, 57, 0
9, 19290, Pitch_bend_c, 7, 8192
9, 19290, Pitch_bend_c, 7, 7296
9, 19292, Pitch_bend_c, 7, 6144
9, 19293, Pitch_bend_c, 7, 4736
9, 19295, Pitch_bend_c, 7, 3200
9, 19296, Pitch_bend_c, 7, 1536
9, 19297, Pitch_bend_c, 7, 0
9, 19319, Note_on_c, 7, 59, 107
9, 19328, Pitch_bend_c, 7, 640
9, 19329, Pitch_bend_c, 7, 1408
9, 19330, Pitch_bend_c, 7, 2432
9, 19331, Pitch_bend_c, 7, 3584
9, 19332, Pitch_bend_c, 7, 4736
9, 19334, Pitch_bend_c, 7, 6144
9, 19335, Pitch_bend_c, 7, 7424
9, 19336, Pitch_bend_c, 7, 8192
9, 19379, Note_on_c, 7, 59, 0
9, 19379, Note_on_c, 7, 62, 87
9, 19477, Note_on_c, 7, 62, 0
9, 19499, Note_on_c, 7, 62, 102
9, 19515, Note_on_c, 7, 62, 0
9, 19529, Note_on_c, 7, 62, 88
9, 19551, Note_on_c, 7, 62, 0
9, 19620, Note_on_c, 7, 57, 93
9, 19636, Note_on_c, 7, 57, 0
9, 19769, Note_on_c, 7, 59, 99
9, 19787, Note_on_c, 7, 59, 0
9, 19860, Note_on_c, 7, 57, 102
9, 19967, Note_on_c, 7, 57, 0
9, 19979, Note_on_c, 7, 57, 102
9, 19996, Note_on_c, 7, 57, 0
9, 20009, Note_on_c, 7, 57, 81
9, 20033, Note_on_c, 7, 57, 0
9, 20099, Note_on_c, 7, 57, 96
9, 20119, Note_on_c, 7, 57, 0
9, 20130, Note_on_c, 7, 57, 84
9, 20157, Note_on_c, 7, 57, 0
9, 20250, Pitch_bend_c, 7, 8192
9, 20250, Pitch_bend_c, 7, 7296
9, 20252, Pitch_bend_c, 7, 6144
9, 20253, Pitch_bend_c, 7, 4736
9, 20255, Pitch_bend_c, 7, 3200
9, 20256, Pitch_bend_c, 7, 1536
9, 20257, Pitch_bend_c, 7, 0
9, 20279, Note_on_c, 7, 59, 107
9, 20288, Pitch_bend_c, 7, 640
9, 20289, Pitch_bend_c, 7, 1408
9, 20290, Pitch_bend_c, 7, 2432
9, 20291, Pitch_bend_c, 7, 3584
9, 20292, Pitch_bend_c, 7, 4736
9, 20294, Pitch_bend_c, 7, 6144
9, 20295, Pitch_bend_c, 7, 7424
9, 20296, Pitch_bend_c, 7, 8192
9, 20339, Note_on_c, 7, 59, 0
9, 20339, Note_on_c, 7, 62, 101
9, 20609, Note_on_c, 7, 62, 0
9, 20610, Control_c, 7, 1, 0
9, 23580, Note_on_c, 7, 62, 107
9, 23595, Note_on_c, 7, 62, 0
9, 23609, Note_on_c, 7, 62, 81
9, 23631, Note_on_c, 7, 62, 0
9, 23700, Note_on_c, 7, 62, 99
9, 23733, Note_on_c, 7, 62, 0
9, 23819, Note_on_c, 7, 62, 96
9, 23835, Note_on_c, 7, 62, 0
9, 23849, Note_on_c, 7, 62, 81
9, 23872, Note_on_c, 7, 62, 0
9, 23939, Note_on_c, 7, 62, 107
9, 23971, Note_on_c, 7, 62, 0
9, 24059, Note_on_c, 7, 60, 87
9, 24075, Note_on_c, 7, 60, 0
9, 24089, Note_on_c, 7, 60, 78
9, 24112, Note_on_c, 7, 60, 0
9, 24179, Note_on_c, 7, 60, 99
9, 24222, Note_on_c, 7, 60, 0
9, 24299, Note_on_c, 7, 60, 87
9, 24314, Note_on_c, 7, 60, 0
9, 24329, Note_on_c, 7, 60, 72
9, 24355, Note_on_c, 7, 60, 0
9, 24420, Note_on_c, 7, 60, 99
9, 24464, Note_on_c, 7, 60, 0
9, 24540, Note_on_c, 7, 60, 87
9, 24559, Note_on_c, 7, 60, 0
9, 24569, Note_on_c, 7, 60, 73
9, 24592, Note_on_c, 7, 60, 0
9, 24660, Note_on_c, 7, 60, 93
9, 24698, Note_on_c, 7, 60, 0
9, 24779, Note_on_c, 7, 60, 87
9, 24793, Note_on_c, 7, 60, 0
9, 24809, Note_on_c, 7, 60, 73
9, 24832, Note_on_c, 7, 60, 0
9, 24899, Note_on_c, 7, 60, 91
9, 24939, Note_on_c, 7, 60, 0
9, 25019, Note_on_c, 7, 60, 87
9, 25035, Note_on_c, 7, 60, 0
9, 25049, Note_on_c, 7, 60, 76
9, 25068, Note_on_c, 7, 60, 0
9, 25139, Note_on_c, 7, 60, 96
9, 25176, Note_on_c, 7, 60, 0
9, 25259, Note_on_c, 7, 60, 89
9, 25276, Note_on_c, 7, 60, 0
9, 25289, Note_on_c, 7, 60, 76
9, 25311, Note_on_c, 7, 60, 0
9, 25363, Control_c, 7, 1, 8
9, 25368, Control_c, 7, 1, 35
9, 25373, Control_c, 7, 1, 68
9, 25379, Control_c, 7, 1, 89
9, 25380, Note_on_c, 7, 60, 93
9, 25383, Control_c, 7, 1, 100
9, 25388, Control_c, 7, 1, 108
9, 25392, Control_c, 7, 1, 114
9, 25397, Control_c, 7, 1, 119
9, 25430, Control_c, 7, 1, 118
9, 25435, Control_c, 7, 1, 106
9, 25446, Note_on_c, 7, 60, 0
9, 27359, Note_on_c, 7, 64, 96
9, 27378, Note_on_c, 7, 64, 0
9, 27449, Note_on_c, 7, 64, 91
9, 27468, Note_on_c, 7, 64, 0
9, 27540, Note_on_c, 7, 64, 96
9, 27550, Control_c, 7, 1, 1
9, 27554, Control_c, 7, 1, 17
9, 27559, Control_c, 7, 1, 35
9, 27564, Control_c, 7, 1, 47
9, 27569, Control_c, 7, 1, 54
9, 27574, Control_c, 7, 1, 60
9, 27578, Control_c, 7, 1, 65
9, 27587, Control_c, 7, 1, 70
9, 27609, Control_c, 7, 1, 65
9, 27614, Control_c, 7, 1, 36
9, 27618, Control_c, 7, 1, 0
9, 27638, Note_on_c, 7, 64, 0
9, 27659, Note_on_c, 7, 64, 89
9, 27679, Note_on_c, 7, 64, 0
9, 27689, Note_on_c, 7, 64, 80
9, 27714, Note_on_c, 7, 64, 0
9, 27779, Note_on_c, 7, 64, 99
9, 27797, Note_on_c, 7, 64, 0
9, 27810, Note_on_c, 7, 64, 84
9, 27837, Note_on_c, 7, 64, 0
9, 27929, Note_on_c, 7, 64, 96
9, 27947, Note_on_c, 7, 64, 0
9, 28019, Note_on_c, 7, 64, 91
9, 28034, Control_c, 7, 1, 8
9, 28038, Control_c, 7, 1, 19
9, 28043, Control_c, 7, 1, 28
9, 28048, Control_c, 7, 1, 35
9, 28053, Control_c, 7, 1, 42
9, 28058, Control_c, 7, 1, 46
9, 28062, Control_c, 7, 1, 51
9, 28072, Control_c, 7, 1, 55
9, 28082, Control_c, 7, 1, 59
9, 28101, Control_c, 7, 1, 56
9, 28106, Control_c, 7, 1, 10
9, 28109, Control_c, 7, 1, 0
9, 28119, Note_on_c, 7, 64, 0
9, 28139, Note_on_c, 7, 64, 89
9, 28156, Note_on_c, 7, 64, 0
9, 28169, Note_on_c, 7, 64, 78
9, 28190, Note_on_c, 7, 64, 0
9, 28260, Note_on_c, 7, 64, 107
9, 28277, Note_on_c, 7, 64, 0
9, 28290, Note_on_c, 7, 64, 82
9, 28313, Note_on_c, 7, 64, 0
9, 28409, Note_on_c, 7, 61, 99
9, 28427, Note_on_c, 7, 61, 0
9, 28500, Note_on_c, 7, 59, 102
9, 28607, Note_on_c, 7, 59, 0
9, 28619, Note_on_c, 7, 59, 102
9, 28636, Note_on_c, 7, 59, 0
9, 28649, Note_on_c, 7, 59, 81
9, 28673, Note_on_c, 7, 59, 0
9, 28739, Note_on_c, 7, 59, 96
9, 28759, Note_on_c, 7, 59, 0
9, 28770, Note_on_c, 7, 59, 84
9, 28797, Note_on_c, 7, 59, 0
9, 28890, Pitch_bend_c, 7, 8192
9, 28890, Pitch_bend_c, 7, 7296
9, 28892, Pitch_bend_c, 7, 6144
9, 28893, Pitch_bend_c, 7, 4736
9, 28895, Pitch_bend_c, 7, 3200
9, 28896, Pitch_bend_c, 7, 1536
9, 28897, Pitch_bend_c, 7, 0
9, 28919, Note_on_c, 7, 61, 107
9, 28928, Pitch_bend_c, 7, 640
9, 28929, Pitch_bend_c, 7, 1408
9, 28930, Pitch_bend_c, 7, 2432
9, 28931, Pitch_bend_c, 7, 3584
9, 28932, Pitch_bend_c, 7, 4736
9, 28934, Pitch_bend_c, 7, 6144
9, 28935, Pitch_bend_c, 7, 7424
9, 28936, Pitch_bend_c, 7, 8192
9, 28979, Note_on_c, 7, 61, 0
9, 28979, Note_on_c, 7, 64, 87
9, 29077, Note_on_c, 7, 64, 0
9, 29099, Note_on_c, 7, 64, 102
9, 29115, Note_on_c, 7, 64, 0
9, 29129, Note_on_c, 7, 64, 88
9, 29151, Note_on_c, 7, 64, 0
9, 29220, Note_on_c, 7, 59, 93
9, 29236, Note_on_c, 7, 59, 0
9, 29279, Note_on_c, 7, 64, 96
9, 29298, Note_on_c, 7, 64, 0
9, 29369, Note_on_c, 7, 64, 91
9, 29388, Note_on_c, 7, 64, 0
9, 29460, Note_on_c, 7, 64, 96
9, 29470, Control_c, 7, 1, 4
9, 29476, Control_c, 7, 1, 22
9, 29480, Control_c, 7, 1, 39
9, 29485, Control_c, 7, 1, 49
9, 29490, Control_c, 7, 1, 56
9, 29495, Control_c, 7, 1, 61
9, 29500, Control_c, 7, 1, 66
9, 29513, Control_c, 7, 1, 71
9, 29530, Control_c, 7, 1, 61
9, 29535, Control_c, 7, 1, 22
9, 29538, Control_c, 7, 1, 0
9, 29571, Note_on_c, 7, 64, 0
9, 29579, Note_on_c, 7, 64, 89
9, 29599, Note_on_c, 7, 64, 0
9, 29609, Note_on_c, 7, 64, 80
9, 29634, Note_on_c, 7, 64, 0
9, 29699, Note_on_c, 7, 64, 99
9, 29717, Note_on_c, 7, 64, 0
9, 29730, Note_on_c, 7, 64, 84
9, 29757, Note_on_c, 7, 64, 0
9, 29849, Note_on_c, 7, 64, 96
9, 29867, Note_on_c, 7, 64, 0
9, 29939, Note_on_c, 7, 64, 91
9, 29952, Control_c, 7, 1, 5
9, 29957, Control_c, 7, 1, 17
9, 29962, Control_c, 7, 1, 26
9, 29967, Control_c, 7, 1, 33
9, 29972, Control_c, 7, 1, 40
9, 29976, Control_c, 7, 1, 45
9, 29981, Control_c, 7, 1, 50
9, 29988, Control_c, 7, 1, 54
9, 29999, Control_c, 7, 1, 58
9, 30017, Control_c, 7, 1, 59
9, 30025, Control_c, 7, 1, 26
9, 30029, Control_c, 7, 1, 0
9, 30054, Note_on_c, 7, 64, 0
9, 30059, Note_on_c, 7, 64, 89
9, 30076, Note_on_c, 7, 64, 0
9, 30089, Note_on_c, 7, 64, 78
9, 30110, Note_on_c, 7, 64, 0
9, 30180, Note_on_c, 7, 64, 107
9, 30197, Note_on_c, 7, 64, 0
9, 30210, Note_on_c, 7, 64, 82
9, 30233, Note_on_c, 7, 64, 0
9, 30329, Note_on_c, 7, 61, 99
9, 30347, Note_on_c, 7, 61, 0
9, 30420, Note_on_c, 7, 59, 102
9, 30527, Note_on_c, 7, 59, 0
9, 30539, Note_on_c, 7, 59, 102
9, 30556, Note_on_c, 7, 59, 0
9, 30569, Note_on_c, 7, 59, 81
9, 30593, Note_on_c, 7, 59, 0
9, 30659, Note_on_c, 7, 59, 96
9, 30679, Note_on_c, 7, 59, 0
9, 30690, Note_on_c, 7, 59, 84
9, 30717, Note_on_c, 7, 59, 0
9, 30809, Note_on_c, 7, 64, 93
9, 30824, Note_on_c, 7, 64, 0
9, 30899, Note_on_c, 7, 64, 89
9, 30903, Control_c, 7, 1, 9
9, 30909, Control_c, 7, 1, 32
9, 30914, Control_c, 7, 1, 53
9, 30918, Control_c, 7, 1, 72
9, 30923, Control_c, 7, 1, 84
9, 30928, Control_c, 7, 1, 90
9, 30936, Control_c, 7, 1, 95
9, 30947, Control_c, 7, 1, 99
9, 30963, Control_c, 7, 1, 103
9, 30973, Control_c, 7, 1, 108
9, 31002, Control_c, 7, 1, 110
9, 31006, Note_on_c, 7, 64, 0
9, 31008, Control_c, 7, 1, 103
9, 31013, Control_c, 7, 1, 77
9, 31014, Control_c, 7, 1, 64
9, 31015, Control_c, 7, 1, 50
9, 31019, Note_on_c, 7, 64, 87
9, 31020, Control_c, 7, 1, 0
9, 31035, Note_on_c, 7, 64, 0
9, 31049, Note_on_c, 7, 64, 89
9, 31080, Control_c, 7, 1, 23
9, 31085, Control_c, 7, 1, 57
9, 31090, Control_c, 7, 1, 85
9, 31095, Control_c, 7, 1, 95
9, 31101, Control_c, 7, 1, 101
9, 31126, Control_c, 7, 1, 101
9, 31131, Control_c, 7, 1, 87
9, 31136, Note_on_c, 7, 64, 0
9, 31136, Control_c, 7, 1, 51
9, 31140, Note_on_c, 7, 59, 96
9, 31140, Note_on_c, 7, 61, 75
9, 31143, Control_c, 7, 1, 0
9, 31145, Note_on_c, 7, 61, 0
9, 31199, Note_on_c, 7, 61, 96
9, 31201, Note_on_c, 7, 59, 0
9, 31273, Note_on_c, 7, 61, 0
9, 31289, Note_on_c, 7, 59, 87
9, 31307, Note_on_c, 7, 59, 0
9, 31350, Note_on_c, 7, 59, 76
9, 31360, Note_on_c, 7, 59, 0
9, 31380, Note_on_c, 7, 61, 83
9, 31453, Note_on_c, 7, 61, 0
9, 31470, Note_on_c, 7, 61, 81
9, 31485, Note_on_c, 7, 61, 0
9, 31499, Note_on_c, 7, 59, 78
9, 31518, Note_on_c, 7, 59, 0
9, 31555, Control_c, 7, 1, 14
9, 31560, Note_on_c, 7, 61, 83
9, 31560, Control_c, 7, 1, 38
9, 31565, Control_c, 7, 1, 64
9, 31570, Control_c, 7, 1, 81
9, 31575, Control_c, 7, 1, 93
9, 31580, Control_c, 7, 1, 99
9, 31593, Control_c, 7, 1, 103
9, 31617, Control_c, 7, 1, 96
9, 31622, Control_c, 7, 1, 70
9, 31627, Control_c, 7, 1, 12
9, 31630, Control_c, 7, 1, 0
9, 31650, Note_on_c, 7, 61, 0
9, 31680, Note_on_c, 7, 61, 81
9, 31751, Note_on_c, 7, 61, 0
9, 31769, Note_on_c, 7, 59, 87
9, 31784, Note_on_c, 7, 59, 0
9, 31830, Note_on_c, 7, 59, 67
9, 31843, Note_on_c, 7, 59, 0
9, 31859, Note_on_c, 7, 61, 87
9, 31941, Note_on_c, 7, 61, 0
9, 31950, Note_on_c, 7, 61, 76
9, 31965, Note_on_c, 7, 61, 0
9, 31979, Note_on_c, 7, 59, 72
9, 31997, Note_on_c, 7, 59, 0
9, 32040, Note_on_c, 7, 61, 87
9, 32043, Control_c, 7, 1, 4
9, 32048, Control_c, 7, 1, 23
9, 32053, Control_c, 7, 1, 39
9, 32058, Control_c, 7, 1, 50
9, 32062, Control_c, 7, 1, 57
9, 32067, Control_c, 7, 1, 63
9, 32068, Control_c, 7, 1, 64
9, 32070, Control_c, 7, 1, 65
9, 32077, Control_c, 7, 1, 69
9, 32085, Control_c, 7, 1, 73
9, 32126, Control_c, 7, 1, 75
9, 32131, Control_c, 7, 1, 63
9, 32133, Note_on_c, 7, 61, 0
9, 32136, Control_c, 7, 1, 34
9, 32141, Control_c, 7, 1, 0
9, 32159, Note_on_c, 7, 64, 87
9, 32199, Note_on_c, 7, 64, 0
9, 32400, Note_on_c, 7, 64, 89
9, 32449, Note_on_c, 7, 64, 0
9, 32640, Note_on_c, 7, 64, 89
9, 32691, Note_on_c, 7, 64, 0
9, 32699, Note_on_c, 7, 64, 78
9, 32716, Note_on_c, 7, 64, 0
9, 32729, Note_on_c, 7, 64, 71
9, 32752, Note_on_c, 7, 64, 0
9, 32790, Note_on_c, 7, 64, 87
9, 32808, Note_on_c, 7, 64, 0
9, 32819, Note_on_c, 7, 64, 67
9, 32841, Note_on_c, 7, 64, 0
9, 32876, Control_c, 7, 1, 19
9, 32879, Note_on_c, 7, 59, 89
9, 32880, Control_c, 7, 1, 47
9, 32886, Control_c, 7, 1, 65
9, 32890, Control_c, 7, 1, 75
9, 32897, Control_c, 7, 1, 79
9, 32907, Control_c, 7, 1, 84
9, 32909, Note_on_c, 7, 59, 0
9, 32939, Note_on_c, 7, 59, 89
9, 32956, Note_on_c, 7, 59, 0
9, 32969, Note_on_c, 7, 59, 67
9, 32991, Note_on_c, 7, 59, 0
9, 32996, Control_c, 7, 1, 81
9, 33000, Note_on_c, 7, 64, 93
9, 33001, Control_c, 7, 1, 57
9, 33006, Control_c, 7, 1, 0
9, 33049, Note_on_c, 7, 64, 0
9, 33060, Note_on_c, 7, 61, 89
9, 33079, Note_on_c, 7, 61, 0
9, 33119, Note_on_c, 7, 64, 96
9, 33138, Note_on_c, 7, 64, 0
9, 33209, Note_on_c, 7, 64, 91
9, 33228, Note_on_c, 7, 64, 0
9, 33300, Note_on_c, 7, 64, 96
9, 33313, Control_c, 7, 1, 12
9, 33318, Control_c, 7, 1, 31
9, 33322, Control_c, 7, 1, 44
9, 33328, Control_c, 7, 1, 52
9, 33332, Control_c, 7, 1, 58
9, 33337, Control_c, 7, 1, 63
9, 33345, Control_c, 7, 1, 69
9, 33368, Control_c, 7, 1, 68
9, 33373, Control_c, 7, 1, 46
9, 33378, Control_c, 7, 1, 0
9, 33398, Note_on_c, 7, 64, 0
9, 33419, Note_on_c, 7, 64, 89
9, 33439, Note_on_c, 7, 64, 0
9, 33449, Note_on_c, 7, 64, 80
9, 33474, Note_on_c, 7, 64, 0
9, 33539, Note_on_c, 7, 64, 99
9, 33557, Note_on_c, 7, 64, 0
9, 33570, Note_on_c, 7, 64, 84
9, 33597, Note_on_c, 7, 64, 0
9, 33689, Note_on_c, 7, 64, 96
9, 33707, Note_on_c, 7, 64, 0
9, 33779, Note_on_c, 7, 64, 91
9, 33795, Control_c, 7, 1, 11
9, 33800, Control_c, 7, 1, 22
9, 33805, Control_c, 7, 1, 30
9, 33809, Control_c, 7, 1, 37
9, 33814, Control_c, 7, 1, 43
9, 33819, Control_c, 7, 1, 47
9, 33824, Control_c, 7, 1, 52
9, 33834, Control_c, 7, 1, 56
9, 33843, Control_c, 7, 1, 60
9, 33863, Control_c, 7, 1, 49
9, 33867, Control_c, 7, 1, 1
9, 33869, Control_c, 7, 1, 0
9, 33879, Note_on_c, 7, 64, 0
9, 33899, Note_on_c, 7, 64, 89
9, 33916, Note_on_c, 7, 64, 0
9, 33929, Note_on_c, 7, 64, 78
9, 33950, Note_on_c, 7, 64, 0
9, 34020, Note_on_c, 7, 64, 107
9, 34037, Note_on_c, 7, 64, 0
9, 34050, Note_on_c, 7, 64, 82
9, 34073, Note_on_c, 7, 64, 0
9, 34169, Note_on_c, 7, 61, 99
9, 34187, Note_on_c, 7, 61, 0
9, 34260, Note_on_c, 7, 59, 102
9, 34367, Note_on_c, 7, 59, 0
9, 34379, Note_on_c, 7, 59, 102
9, 34396, Note_on_c, 7, 59, 0
9, 34409, Note_on_c, 7, 59, 81
9, 34433, Note_on_c, 7, 59, 0
9, 34499, Note_on_c, 7, 59, 96
9, 34519, Note_on_c, 7, 59, 0
9, 34530, Note_on_c, 7, 59, 84
9, 34557, Note_on_c, 7, 59, 0
9, 34650, Pitch_bend_c, 7, 8192
9, 34650, Pitch_bend_c, 7, 7296
9, 34652, Pitch_bend_c, 7, 6144
9, 34653, Pitch_bend_c, 7, 4736
9, 34655, Pitch_bend_c, 7, 3200
9, 34656, Pitch_bend_c, 7, 1536
9, 34657, Pitch_bend_c, 7, 0
9, 34679, Note_on_c, 7, 61, 107
9, 34688, Pitch_bend_c, 7, 640
9, 34689, Pitch_bend_c, 7, 1408
9, 34690, Pitch_bend_c, 7, 2432
9, 34691, Pitch_bend_c, 7, 3584
9, 34692, Pitch_bend_c, 7, 4736
9, 34694, Pitch_bend_c, 7, 6144
9, 34695, Pitch_bend_c, 7, 7424
9, 34696, Pitch_bend_c, 7, 8192
9, 34739, Note_on_c, 7, 61, 0
9, 34739, Note_on_c, 7, 64, 87
9, 34837, Note_on_c, 7, 64, 0
9, 34859, Note_on_c, 7, 64, 102
9, 34875, Note_on_c, 7, 64, 0
9, 34889, Note_on_c, 7, 64, 88
9, 34911, Note_on_c, 7, 64, 0
9, 34980, Note_on_c, 7, 59, 93
9, 34996, Note_on_c, 7, 59, 0
9, 35129, Note_on_c, 7, 61, 99
9, 35147, Note_on_c, 7, 61, 0
9, 35220, Note_on_c, 7, 59, 102
9, 35327, Note_on_c, 7, 59, 0
9, 35339, Note_on_c, 7, 59, 102
9, 35356, Note_on_c, 7, 59, 0
9, 35369, Note_on_c, 7, 59, 81
9, 35393, Note_on_c, 7, 59, 0
9, 35459, Note_on_c, 7, 59, 96
9, 35479, Note_on_c, 7, 59, 0
9, 35490, Note_on_c, 7, 59, 84
9, 35517, Note_on_c, 7, 59, 0
9, 35610, Pitch_bend_c, 7, 8192
9, 35610, Pitch_bend_c, 7, 7296
9, 35612, Pitch_bend_c, 7, 6144
9, 35613, Pitch_bend_c, 7, 4736
9, 35615, Pitch_bend_c, 7, 3200
9, 35616, Pitch_bend_c, 7, 1536
9, 35617, Pitch_bend_c, 7, 0
9, 35639, Note_on_c, 7, 61, 107
9, 35648, Pitch_bend_c, 7, 640
9, 35649, Pitch_bend_c, 7, 1408
9, 35650, Pitch_bend_c, 7, 2432
9, 35651, Pitch_bend_c, 7, 3584
9, 35652, Pitch_bend_c, 7, 4736
9, 35654, Pitch_bend_c, 7, 6144
9, 35655, Pitch_bend_c, 7, 7424
9, 35656, Pitch_bend_c, 7, 8192
9, 35699, Note_on_c, 7, 61, 0
9, 35699, Note_on_c, 7, 64, 101
9, 35760, Control_c, 7, 1, 61
9, 35969, Note_on_c, 7, 64, 0
9, 35970, Control_c, 7, 1, 0
9, 35999, Note_on_c, 7, 64, 96
9, 36018, Note_on_c, 7, 64, 0
9, 36089, Note_on_c, 7, 64, 91
9, 36108, Note_on_c, 7, 64, 0
9, 36180, Note_on_c, 7, 64, 96
9, 36190, Control_c, 7, 1, 1
9, 36194, Control_c, 7, 1, 17
9, 36199, Control_c, 7, 1, 35
9, 36204, Control_c, 7, 1, 47
9, 36209, Control_c, 7, 1, 54
9, 36214, Control_c, 7, 1, 60
9, 36218, Control_c, 7, 1, 65
9, 36227, Control_c, 7, 1, 70
9, 36249, Control_c, 7, 1, 65
9, 36254, Control_c, 7, 1, 36
9, 36258, Control_c, 7, 1, 0
9, 36278, Note_on_c, 7, 64, 0
9, 36299, Note_on_c, 7, 64, 89
9, 36319, Note_on_c, 7, 64, 0
9, 36329, Note_on_c, 7, 64, 80
9, 36354, Note_on_c, 7, 64, 0
9, 36419, Note_on_c, 7, 64, 99
9, 36437, Note_on_c, 7, 64, 0
9, 36450, Note_on_c, 7, 64, 84
9, 36477, Note_on_c, 7, 64, 0
9, 36569, Note_on_c, 7, 64, 96
9, 36587, Note_on_c, 7, 64, 0
9, 36659, Note_on_c, 7, 64, 91
9, 36674, Control_c, 7, 1, 8
9, 36678, Control_c, 7, 1, 19
9, 36683, Control_c, 7, 1, 28
9, 36688, Control_c, 7, 1, 35
9, 36693, Control_c, 7, 1, 42
9, 36698, Control_c, 7, 1, 46
9, 36702, Control_c, 7, 1, 51
9, 36712, Control_c, 7, 1, 55
9, 36722, Control_c, 7, 1, 59
9, 36741, Control_c, 7, 1, 56
9, 36746, Control_c, 7, 1, 10
9, 36749, Control_c, 7, 1, 0
9, 36759, Note_on_c, 7, 64, 0
9, 36779, Note_on_c, 7, 64, 89
9, 36796, Note_on_c, 7, 64, 0
9, 36809, Note_on_c, 7, 64, 78
9, 36830, Note_on_c, 7, 64, 0
9, 36900, Note_on_c, 7, 64, 107
9, 36917, Note_on_c, 7, 64, 0
9, 36930, Note_on_c, 7, 64, 82
9, 36953, Note_on_c, 7, 64, 0
9, 36959, Note_on_c, 7, 64, 96
9, 36978, Note_on_c, 7, 64, 0
9, 37049, Note_on_c, 7, 64, 91
9, 37068, Note_on_c, 7, 64, 0
9, 37140, Note_on_c, 7, 64, 96
9, 37150, Control_c, 7, 1, 4
9, 37156, Control_c, 7, 1, 22
9, 37160, Control_c, 7, 1, 39
9, 37165, Control_c, 7, 1, 49
9, 37170, Control_c, 7, 1, 56
9, 37175, Control_c, 7, 1, 61
9, 37180, Control_c, 7, 1, 66
9, 37193, Control_c, 7, 1, 71
9, 37210, Control_c, 7, 1, 61
9, 37215, Control_c, 7, 1, 22
9, 37218, Control_c, 7, 1, 0
9, 37238, Note_on_c, 7, 64, 0
9, 37259, Note_on_c, 7, 64, 89
9, 37279, Note_on_c, 7, 64, 0
9, 37289, Note_on_c, 7, 64, 80
9, 37314, Note_on_c, 7, 64, 0
9, 37379, Note_on_c, 7, 64, 99
9, 37397, Note_on_c, 7, 64, 0
9, 37410, Note_on_c, 7, 64, 84
9, 37437, Note_on_c, 7, 64, 0
9, 37529, Note_on_c, 7, 64, 96
9, 37547, Note_on_c, 7, 64, 0
9, 37619, Note_on_c, 7, 64, 91
9, 37632, Control_c, 7, 1, 5
9, 37637, Control_c, 7, 1, 17
9, 37642, Control_c, 7, 1, 26
9, 37647, Control_c, 7, 1, 33
9, 37652, Control_c, 7, 1, 40
9, 37656, Control_c, 7, 1, 45
9, 37661, Control_c, 7, 1, 50
9, 37668, Control_c, 7, 1, 54
9, 37679, Control_c, 7, 1, 58
9, 37697, Control_c, 7, 1, 59
9, 37705, Control_c, 7, 1, 26
9, 37709, Control_c, 7, 1, 0
9, 37719, Note_on_c, 7, 64, 0
9, 37739, Note_on_c, 7, 64, 89
9, 37756, Note_on_c, 7, 64, 0
9, 37769, Note_on_c, 7, 64, 78
9, 37790, Note_on_c, 7, 64, 0
9, 37860, Note_on_c, 7, 64, 107
9, 37877, Note_on_c, 7, 64, 0
9, 37890, Note_on_c, 7, 64, 82
9, 37913, Note_on_c, 7, 64, 0
9, 37919, Note_on_c, 7, 64, 96
9, 37938, Note_on_c, 7, 64, 0
9, 38009, Note_on_c, 7, 64, 91
9, 38028, Note_on_c, 7, 64, 0
9, 38100, Note_on_c, 7, 64, 96
9, 38112, Control_c, 7, 1, 7
9, 38117, Control_c, 7, 1, 27
9, 38121, Control_c, 7, 1, 42
9, 38126, Control_c, 7, 1, 51
9, 38131, Control_c, 7, 1, 57
9, 38136, Control_c, 7, 1, 62
9, 38143, Control_c, 7, 1, 68
9, 38167, Control_c, 7, 1, 70
9, 38172, Control_c, 7, 1, 54
9, 38177, Control_c, 7, 1, 7
9, 38178, Control_c, 7, 1, 0
9, 38198, Note_on_c, 7, 64, 0
9, 38219, Note_on_c, 7, 64, 89
9, 38239, Note_on_c, 7, 64, 0
9, 38249, Note_on_c, 7, 64, 80
9, 38274, Note_on_c, 7, 64, 0
9, 38339, Note_on_c, 7, 64, 99
9, 38357, Note_on_c, 7, 64, 0
9, 38370, Note_on_c, 7, 64, 84
9, 38397, Note_on_c, 7, 64, 0
9, 38489, Note_on_c, 7, 64, 96
9, 38507, Note_on_c, 7, 64, 0
9, 38579, Note_on_c, 7, 64, 91
9, 38591, Control_c, 7, 1, 2
9, 38596, Control_c, 7, 1, 14
9, 38601, Control_c, 7, 1, 24
9, 38606, Control_c, 7, 1, 31
9, 38610, Control_c, 7, 1, 39
9, 38615, Control_c, 7, 1, 44
9, 38620, Control_c, 7, 1, 49
9, 38626, Control_c, 7, 1, 53
9, 38636, Control_c, 7, 1, 57
9, 38645, Control_c, 7, 1, 61
9, 38664, Control_c, 7, 1, 39
9, 38669, Control_c, 7, 1, 0
9, 38679, Note_on_c, 7, 64, 0
9, 38699, Note_on_c, 7, 64, 89
9, 38716, Note_on_c, 7, 64, 0
9, 38729, Note_on_c, 7, 64, 78
9, 38750, Note_on_c, 7, 64, 0
9, 38820, Note_on_c, 7, 64, 107
9, 38837, Note_on_c, 7, 64, 0
9, 38850, Note_on_c, 7, 64, 82
9, 38873, Note_on_c, 7, 64, 0
9, 38879, Note_on_c, 7, 64, 96
9, 38898, Note_on_c, 7, 64, 0
9, 38969, Note_on_c, 7, 64, 91
9, 38988, Note_on_c, 7, 64, 0
9, 39060, Note_on_c, 7, 64, 96
9, 39073, Control_c, 7, 1, 12
9, 39078, Control_c, 7, 1, 31
9, 39082, Control_c, 7, 1, 44
9, 39088, Control_c, 7, 1, 52
9, 39092, Control_c, 7, 1, 58
9, 39097, Control_c, 7, 1, 63
9, 39105, Control_c, 7, 1, 69
9, 39128, Control_c, 7, 1, 68
9, 39133, Control_c, 7, 1, 46
9, 39138, Control_c, 7, 1, 0
9, 39158, Note_on_c, 7, 64, 0
9, 39179, Note_on_c, 7, 64, 89
9, 39199, Note_on_c, 7, 64, 0
9, 39209, Note_on_c, 7, 64, 80
9, 39234, Note_on_c, 7, 64, 0
9, 39299, Note_on_c, 7, 64, 99
9, 39317, Note_on_c, 7, 64, 0
9, 39330, Note_on_c, 7, 64, 84
9, 39357, Note_on_c, 7, 64, 0
9, 39449, Note_on_c, 7, 64, 96
9, 39467, Note_on_c, 7, 64, 0
9, 39539, Note_on_c, 7, 64, 91
9, 39555, Control_c, 7, 1, 11
9, 39560, Control_c, 7, 1, 22
9, 39565, Control_c, 7, 1, 30
9, 39569, Control_c, 7, 1, 37
9, 39574, Control_c, 7, 1, 43
9, 39579, Control_c, 7, 1, 47
9, 39584, Control_c, 7, 1, 52
9, 39594, Control_c, 7, 1, 56
9, 39603, Control_c, 7, 1, 60
9, 39623, Control_c, 7, 1, 49
9, 39627, Control_c, 7, 1, 1
9, 39629, Control_c, 7, 1, 0
9, 39639, Note_on_c, 7, 64, 0
9, 39659, Note_on_c, 7, 64, 89
9, 39676, Note_on_c, 7, 64, 0
9, 39689, Note_on_c, 7, 64, 78
9, 39710, Note_on_c, 7, 64, 0
9, 39780, Note_on_c, 7, 64, 107
9, 39797, Note_on_c, 7, 64, 0
9, 39810, Note_on_c, 7, 64, 82
9, 39833, Note_on_c, 7, 64, 0
9, 39839, Note_on_c, 7, 64, 96
9, 39858, Note_on_c, 7, 64, 0
9, 39929, Note_on_c, 7, 64, 91
9, 39948, Note_on_c, 7, 64, 0
9, 40020, Note_on_c, 7, 64, 96
9, 40030, Control_c, 7, 1, 1
9, 40034, Control_c, 7, 1, 17
9, 40039, Control_c, 7, 1, 35
9, 40044, Control_c, 7, 1, 47
9, 40049, Control_c, 7, 1, 54
9, 40054, Control_c, 7, 1, 60
9, 40058, Control_c, 7, 1, 65
9, 40067, Control_c, 7, 1, 70
9, 40089, Control_c, 7, 1, 65
9, 40094, Control_c, 7, 1, 36
9, 40098, Control_c, 7, 1, 0
9, 40118, Note_on_c, 7, 64, 0
9, 40139, Note_on_c, 7, 64, 89
9, 40159, Note_on_c, 7, 64, 0
9, 40169, Note_on_c, 7, 64, 80
9, 40194, Note_on_c, 7, 64, 0
9, 40259, Note_on_c, 7, 64, 99
9, 40277, Note_on_c, 7, 64, 0
9, 40290, Note_on_c, 7, 64, 84
9, 40317, Note_on_c, 7, 64, 0
9, 40409, Note_on_c, 7, 64, 96
9, 40427, Note_on_c, 7, 64, 0
9, 40499, Note_on_c, 7, 64, 91
9, 40514, Control_c, 7, 1, 8
9, 40518, Control_c, 7, 1, 19
9, 40523, Control_c, 7, 1, 28
9, 40528, Control_c, 7, 1, 35
9, 40533, Control_c, 7, 1, 42
9, 40538, Control_c, 7, 1, 46
9, 40542, Control_c, 7, 1, 51
9, 40552, Control_c, 7, 1, 55
9, 40562, Control_c, 7, 1, 59
9, 40581, Control_c, 7, 1, 56
9, 40586, Control_c, 7, 1, 10
9, 40589, Control_c, 7, 1, 0
9, 40599, Note_on_c, 7, 64, 0
9, 40619, Note_on_c, 7, 64, 89
9, 40636, Note_on_c, 7, 64, 0
9, 40649, Note_on_c, 7, 64, 78
9, 40670, Note_on_c, 7, 64, 0
9, 40740, Note_on_c, 7, 64, 107
9, 40757, Note_on_c, 7, 64, 0
9, 40770, Note_on_c, 7, 64, 82
9, 40793, Note_on_c, 7, 64, 0
9, 40799, Note_on_c, 7, 64, 96
9, 40818, Note_on_c, 7, 64, 0
9, 40889, Note_on_c, 7, 64, 91
9, 40908, Note_on_c, 7, 64, 0
9, 40980, Note_on_c, 7, 64, 96
9, 40990, Control_c, 7, 1, 4
9, 40996, Control_c, 7, 1, 22
9, 41000, Control_c, 7, 1, 39
9, 41005, Control_c, 7, 1, 49
9, 41010, Control_c, 7, 1, 56
9, 41015, Control_c, 7, 1, 61
9, 41020, Control_c, 7, 1, 66
9, 41033, Control_c, 7, 1, 71
9, 41050, Control_c, 7, 1, 61
9, 41055, Control_c, 7, 1, 22
9, 41058, Control_c, 7, 1, 0
9, 41078, Note_on_c, 7, 64, 0
9, 41099, Note_on_c, 7, 64, 89
9, 41119, Note_on_c, 7, 64, 0
9, 41129, Note_on_c, 7, 64, 80
9, 41154, Note_on_c, 7, 64, 0
9, 41219, Note_on_c, 7, 64, 99
9, 41237, Note_on_c, 7, 64, 0
9, 41250, Note_on_c, 7, 64, 84
9, 41277, Note_on_c, 7, 64, 0
9, 41369, Note_on_c, 7, 64, 96
9, 41387, Note_on_c, 7, 64, 0
9, 41459, Note_on_c, 7, 64, 91
9, 41472, Control_c, 7, 1, 5
9, 41477, Control_c, 7, 1, 17
9, 41482, Control_c, 7, 1, 26
9, 41487, Control_c, 7, 1, 33
9, 41492, Control_c, 7, 1, 40
9, 41496, Control_c, 7, 1, 45
9, 41501, Control_c, 7, 1, 50
9, 41508, Control_c, 7, 1, 54
9, 41519, Control_c, 7, 1, 58
9, 41537, Control_c, 7, 1, 59
9, 41545, Control_c, 7, 1, 26
9, 41549, Control_c, 7, 1, 0
9, 41559, Note_on_c, 7, 64, 0
9, 41579, Note_on_c, 7, 64, 89
9, 41596, Note_on_c, 7, 64, 0
9, 41609, Note_on_c, 7, 64, 78
9, 41630, Note_on_c, 7, 64, 0
9, 41700, Note_on_c, 7, 64, 107
9, 41717, Note_on_c, 7, 64, 0
9, 41730, Note_on_c, 7, 64, 82
9, 41753, Note_on_c, 7, 64, 0
9, 44639, Note_on_c, 7, 67, 96
9, 44658, Note_on_c, 7, 67, 0
9, 44729, Note_on_c, 7, 67, 91
9, 44748, Note_on_c, 7, 67, 0
9, 44820, Note_on_c, 7, 67, 96
9, 44832, Control_c, 7, 1, 7
9, 44837, Control_c, 7, 1, 27
9, 44841, Control_c, 7, 1, 42
9, 44846, Control_c, 7, 1, 51
9, 44851, Control_c, 7, 1, 57
9, 44856, Control_c, 7, 1, 62
9, 44863, Control_c, 7, 1, 68
9, 44887, Control_c, 7, 1, 70
9, 44892, Control_c, 7, 1, 54
9, 44897, Control_c, 7, 1, 7
9, 44898, Control_c, 7, 1, 0
9, 44918, Note_on_c, 7, 67, 0
9, 44939, Note_on_c, 7, 67, 89
9, 44959, Note_on_c, 7, 67, 0
9, 44969, Note_on_c, 7, 67, 80
9, 44994, Note_on_c, 7, 67, 0
9, 45059, Note_on_c, 7, 67, 99
9, 45077, Note_on_c, 7, 67, 0
9, 45090, Note_on_c, 7, 67, 84
9, 45117, Note_on_c, 7, 67, 0
9, 45209, Note_on_c, 7, 67, 96
9, 45227, Note_on_c, 7, 67, 0
9, 45299, Note_on_c, 7, 67, 91
9, 45311, Control_c, 7, 1, 2
9, 45316, Control_c, 7, 1, 14
9, 45321, Control_c, 7, 1, 24
9, 45326, Control_c, 7, 1, 31
9, 45330, Control_c, 7, 1, 39
9, 45335, Control_c, 7, 1, 44
9, 45340, Control_c, 7, 1, 49
9, 45346, Control_c, 7, 1, 53
9, 45356, Control_c, 7, 1, 57
9, 45365, Control_c, 7, 1, 61
9, 45384, Control_c, 7, 1, 39
9, 45389, Control_c, 7, 1, 0
9, 45399, Note_on_c, 7, 67, 0
9, 45419, Note_on_c, 7, 67, 89
9, 45436, Note_on_c, 7, 67, 0
9, 45449, Note_on_c, 7, 67, 78
9, 45470, Note_on_c, 7, 67, 0
9, 45540, Note_on_c, 7, 67, 107
9, 45557, Note_on_c, 7, 67, 0
9, 45570, Note_on_c, 7, 67, 82
9, 45593, Note_on_c, 7, 67, 0
9, 45689, Note_on_c, 7, 64, 99
9, 45707, Note_on_c, 7, 64, 0
9, 45780, Note_on_c, 7, 62, 102
9, 45887, Note_on_c, 7, 62, 0
9, 45899, Note_on_c, 7, 62, 102
9, 45916, Note_on_c, 7, 62, 0
9, 45929, Note_on_c, 7, 62, 81
9, 45953, Note_on_c, 7, 62, 0
9, 46019, Note_on_c, 7, 62, 96
9, 46039, Note_on_c, 7, 62, 0
9, 46050, Note_on_c, 7, 62, 84
9, 46077, Note_on_c, 7, 62, 0
9, 46170, Pitch_bend_c, 7, 8192
9, 46170, Pitch_bend_c, 7, 7296
9, 46172, Pitch_bend_c, 7, 6144
9, 46173, Pitch_bend_c, 7, 4736
9, 46175, Pitch_bend_c, 7, 3200
9, 46176, Pitch_bend_c, 7, 1536
9, 46177, Pitch_bend_c, 7, 0
9, 46199, Note_on_c, 7, 64, 107
9, 46208, Pitch_bend_c, 7, 640
9, 46209, Pitch_bend_c, 7, 1408
9, 46210, Pitch_bend_c, 7, 2432
9, 46211, Pitch_bend_c, 7, 3584
9, 46212, Pitch_bend_c, 7, 4736
9, 46214, Pitch_bend_c, 7, 6144
9, 46215, Pitch_bend_c, 7, 7424
9, 46216, Pitch_bend_c, 7, 8192
9, 46259, Note_on_c, 7, 64, 0
9, 46259, Note_on_c, 7, 67, 87
9, 46357, Note_on_c, 7, 67, 0
9, 46379, Note_on_c, 7, 67, 102
9, 46395, Note_on_c, 7, 67, 0
9, 46409, Note_on_c, 7, 67, 88
9, 46431, Note_on_c, 7, 67, 0
9, 46500, Note_on_c, 7, 62, 93
9, 46516, Note_on_c, 7, 62, 0
9, 46559, Note_on_c, 7, 64, 96
9, 46633, Note_on_c, 7, 64, 0
9, 46649, Note_on_c, 7, 62, 87
9, 46667, Note_on_c, 7, 62, 0
9, 46710, Note_on_c, 7, 62, 76
9, 46720, Note_on_c, 7, 62, 0
9, 46740, Note_on_c, 7, 64, 83
9, 46813, Note_on_c, 7, 64, 0
9, 46830, Note_on_c, 7, 64, 81
9, 46845, Note_on_c, 7, 64, 0
9, 46859, Note_on_c, 7, 62, 78
9, 46878, Note_on_c, 7, 62, 0
9, 46915, Control_c, 7, 1, 14
9, 46920, Note_on_c, 7, 64, 83
9, 46920, Control_c, 7, 1, 38
9, 46925, Control_c, 7, 1, 64
9, 46930, Control_c, 7, 1, 81
9, 46935, Control_c, 7, 1, 93
9, 46940, Control_c, 7, 1, 99
9, 46953, Control_c, 7, 1, 103
9, 46977, Control_c, 7, 1, 96
9, 46982, Control_c, 7, 1, 70
9, 46987, Control_c, 7, 1, 12
9, 46990, Control_c, 7, 1, 0
9, 47010, Note_on_c, 7, 64, 0
9, 47040, Note_on_c, 7, 64, 81
9, 47111, Note_on_c, 7, 64, 0
9, 47129, Note_on_c, 7, 62, 87
9, 47144, Note_on_c, 7, 62, 0
9, 47190, Note_on_c, 7, 62, 67
9, 47203, Note_on_c, 7, 62, 0
9, 47219, Note_on_c, 7, 64, 87
9, 47301, Note_on_c, 7, 64, 0
9, 47310, Note_on_c, 7, 64, 76
9, 47325, Note_on_c, 7, 64, 0
9, 47339, Note_on_c, 7, 62, 72
9, 47357, Note_on_c, 7, 62, 0
9, 47400, Note_on_c, 7, 64, 87
9, 47403, Control_c, 7, 1, 4
9, 47408, Control_c, 7, 1, 23
9, 47413, Control_c, 7, 1, 39
9, 47418, Control_c, 7, 1, 50
9, 47422, Control_c, 7, 1, 57
9, 47427, Control_c, 7, 1, 63
9, 47428, Control_c, 7, 1, 64
9, 47430, Control_c, 7, 1, 65
9, 47437, Control_c, 7, 1, 69
9, 47445, Control_c, 7, 1, 73
9, 47486, Control_c, 7, 1, 75
9, 47491, Control_c, 7, 1, 63
9, 47493, Note_on_c, 7, 64, 0
9, 47496, Control_c, 7, 1, 34
9, 47501, Control_c, 7, 1, 0
9, 47519, Note_on_c, 7, 67, 87
9, 47559, Note_on_c, 7, 67, 0
9, 47580, Note_on_c, 7, 67, 84
9, 47595, Note_on_c, 7, 67, 0
9, 47609, Note_on_c, 7, 67, 51
9, 47626, Note_on_c, 7, 67, 0
9, 47670, Note_on_c, 7, 67, 93
9, 47684, Note_on_c, 7, 67, 0
9, 47700, Note_on_c, 7, 67, 52
9, 47711, Note_on_c, 7, 67, 0
9, 47760, Note_on_c, 7, 67, 89
9, 47809, Note_on_c, 7, 67, 0
9, 47819, Note_on_c, 7, 67, 84
9, 47835, Note_on_c, 7, 67, 0
9, 47849, Note_on_c, 7, 67, 45
9, 47862, Note_on_c, 7, 67, 0
9, 47910, Note_on_c, 7, 67, 87
9, 47926, Note_on_c, 7, 67, 0
9, 47939, Note_on_c, 7, 67, 73
9, 47958, Note_on_c, 7, 67, 0
9, 48000, Note_on_c, 7, 67, 89
9, 48051, Note_on_c, 7, 67, 0
9, 48059, Note_on_c, 7, 67, 78
9, 48076, Note_on_c, 7, 67, 0
9, 48089, Note_on_c, 7, 67, 71
9, 48112, Note_on_c, 7, 67, 0
9, 48150, Note_on_c, 7, 67, 87
9, 48168, Note_on_c, 7, 67, 0
9, 48179, Note_on_c, 7, 67, 67
9, 48201, Note_on_c, 7, 67, 0
9, 48236, Control_c, 7, 1, 19
9, 48239, Note_on_c, 7, 62, 89
9, 48240, Control_c, 7, 1, 47
9, 48246, Control_c, 7, 1, 65
9, 48250, Control_c, 7, 1, 75
9, 48257, Control_c, 7, 1, 79
9, 48267, Control_c, 7, 1, 84
9, 48269, Note_on_c, 7, 62, 0
9, 48299, Note_on_c, 7, 62, 89
9, 48316, Note_on_c, 7, 62, 0
9, 48329, Note_on_c, 7, 62, 67
9, 48351, Note_on_c, 7, 62, 0
9, 48356, Control_c, 7, 1, 81
9, 48360, Note_on_c, 7, 67, 93
9, 48361, Control_c, 7, 1, 57
9, 48366, Control_c, 7, 1, 0
9, 48409, Note_on_c, 7, 67, 0
9, 48420, Note_on_c, 7, 64, 89
9, 48439, Note_on_c, 7, 64, 0
9, 48479, Note_on_c, 7, 67, 96
9, 48498, Note_on_c, 7, 67, 0
9, 48569, Note_on_c, 7, 67, 91
9, 48588, Note_on_c, 7, 67, 0
9, 48660, Note_on_c, 7, 67, 96
9, 48673, Control_c, 7, 1, 12
9, 48678, Control_c, 7, 1, 31
9, 48682, Control_c, 7, 1, 44
9, 48688, Control_c, 7, 1, 52
9, 48692, Control_c, 7, 1, 58
9, 48697, Control_c, 7, 1, 63
9, 48705, Control_c, 7, 1, 69
9, 48728, Control_c, 7, 1, 68
9, 48733, Control_c, 7, 1, 46
9, 48738, Control_c, 7, 1, 0
9, 48758, Note_on_c, 7, 67, 0
9, 48779, Note_on_c, 7, 67, 89
9, 48799, Note_on_c, 7, 67, 0
9, 48809, Note_on_c, 7, 67, 80
9, 48834, Note_on_c, 7, 67, 0
9, 48899, Note_on_c, 7, 67, 99
9, 48917, Note_on_c, 7, 67, 0
9, 48930, Note_on_c, 7, 67, 84
9, 48957, Note_on_c, 7, 67, 0
9, 49049, Note_on_c, 7, 67, 96
9, 49067, Note_on_c, 7, 67, 0
9, 49139, Note_on_c, 7, 67, 91
9, 49155, Control_c, 7, 1, 11
9, 49160, Control_c, 7, 1, 22
9, 49165, Control_c, 7, 1, 30
9, 49169, Control_c, 7, 1, 37
9, 49174, Control_c, 7, 1, 43
9, 49179, Control_c, 7, 1, 47
9, 49184, Control_c, 7, 1, 52
9, 49194, Control_c, 7, 1, 56
9, 49203, Control_c, 7, 1, 60
9, 49223, Control_c, 7, 1, 49
9, 49227, Control_c, 7, 1, 1
9, 49229, Control_c, 7, 1, 0
9, 49239, Note_on_c, 7, 67, 0
9, 49259, Note_on_c, 7, 67, 89
9, 49276, Note_on_c, 7, 67, 0
9, 49289, Note_on_c, 7, 67, 78
9, 49310, Note_on_c, 7, 67, 0
9, 49380, Note_on_c, 7, 67, 107
9, 49397, Note_on_c, 7, 67, 0
9, 49410, Note_on_c, 7, 67, 82
9, 49433, Note_on_c, 7, 67, 0
9, 49529, Note_on_c, 7, 64, 99
9, 49547, Note_on_c, 7, 64, 0
9, 49620, Note_on_c, 7, 62, 102
9, 49727, Note_on_c, 7, 62, 0
9, 49739, Note_on_c, 7, 62, 102
9, 49756, Note_on_c, 7, 62, 0
9, 49769, Note_on_c, 7, 62, 81
9, 49793, Note_on_c, 7, 62, 0
9, 49859, Note_on_c, 7, 62, 96
9, 49879, Note_on_c, 7, 62, 0
9, 49890, Note_on_c, 7, 62, 84
9, 49917, Note_on_c, 7, 62, 0
9, 50010, Pitch_bend_c, 7, 8192
9, 50010, Pitch_bend_c, 7, 7296
9, 50012, Pitch_bend_c, 7, 6144
9, 50013, Pitch_bend_c, 7, 4736
9, 50015, Pitch_bend_c, 7, 3200
9, 50016, Pitch_bend_c, 7, 1536
9, 50017, Pitch_bend_c, 7, 0
9, 50039, Note_on_c, 7, 64, 107
9, 50048, Pitch_bend_c, 7, 640
9, 50049, Pitch_bend_c, 7, 1408
9, 50050, Pitch_bend_c, 7, 2432
9, 50051, Pitch_bend_c, 7, 3584
9, 50052, Pitch_bend_c, 7, 4736
9, 50054, Pitch_bend_c, 7, 6144
9, 50055, Pitch_bend_c, 7, 7424
9, 50056, Pitch_bend_c, 7, 8192
9, 50099, Note_on_c, 7, 64, 0
9, 50099, Note_on_c, 7, 67, 87
9, 50197, Note_on_c, 7, 67, 0
9, 50219, Note_on_c, 7, 67, 102
9, 50235, Note_on_c, 7, 67, 0
9, 50249, Note_on_c, 7, 67, 88
9, 50271, Note_on_c, 7, 67, 0
9, 50340, Note_on_c, 7, 62, 93
9, 50356, Note_on_c, 7, 62, 0
9, 50399, Note_on_c, 7, 67, 96
9, 50418, Note_on_c, 7, 67, 0
9, 50489, Note_on_c, 7, 67, 91
9, 50508, Note_on_c, 7, 67, 0
9, 50580, Note_on_c, 7, 67, 96
9, 50590, Control_c, 7, 1, 1
9, 50594, Control_c, 7, 1, 17
9, 50599, Control_c, 7, 1, 35
9, 50604, Control_c, 7, 1, 47
9, 50609, Control_c, 7, 1, 54
9, 50614, Control_c, 7, 1, 60
9, 50618, Control_c, 7, 1, 65
9, 50627, Control_c, 7, 1, 70
9, 50649, Control_c, 7, 1, 65
9, 50654, Control_c, 7, 1, 36
9, 50658, Control_c, 7, 1, 0
9, 50678, Note_on_c, 7, 67, 0
9, 50699, Note_on_c, 7, 67, 89
9, 50719, Note_on_c, 7, 67, 0
9, 50729, Note_on_c, 7, 67, 80
9, 50754, Note_on_c, 7, 67, 0
9, 50819, Note_on_c, 7, 67, 99
9, 50837, Note_on_c, 7, 67, 0
9, 50850, Note_on_c, 7, 67, 84
9, 50877, Note_on_c, 7, 67, 0
9, 50969, Note_on_c, 7, 67, 96
9, 50987, Note_on_c, 7, 67, 0
9, 51059, Note_on_c, 7, 67, 91
9, 51074, Control_c, 7, 1, 8
9, 51078, Control_c, 7, 1, 19
9, 51083, Control_c, 7, 1, 28
9, 51088, Control_c, 7, 1, 35
9, 51093, Control_c, 7, 1, 42
9, 51098, Control_c, 7, 1, 46
9, 51102, Control_c, 7, 1, 51
9, 51112, Control_c, 7, 1, 55
9, 51122, Control_c, 7, 1, 59
9, 51141, Control_c, 7, 1, 56
9, 51146, Control_c, 7, 1, 10
9, 51149, Control_c, 7, 1, 0
9, 51159, Note_on_c, 7, 67, 0
9, 51179, Note_on_c, 7, 67, 89
9, 51196, Note_on_c, 7, 67, 0
9, 51209, Note_on_c, 7, 67, 78
9, 51230, Note_on_c, 7, 67, 0
9, 51300, Note_on_c, 7, 67, 107
9, 51317, Note_on_c, 7, 67, 0
9, 51330, Note_on_c, 7, 67, 82
9, 51353, Note_on_c, 7, 67, 0
9, 51359, Note_on_c, 7, 67, 96
9, 51378, Note_on_c, 7, 67, 0
9, 51449, Note_on_c, 7, 67, 91
9, 51468, Note_on_c, 7, 67, 0
9, 51540, Note_on_c, 7, 67, 96
9, 51550, Control_c, 7, 1, 4
9, 51556, Control_c, 7, 1, 22
9, 51560, Control_c, 7, 1, 39
9, 51565, Control_c, 7, 1, 49
9, 51570, Control_c, 7, 1, 56
9, 51575, Control_c, 7, 1, 61
9, 51580, Control_c, 7, 1, 66
9, 51593, Control_c, 7, 1, 71
9, 51610, Control_c, 7, 1, 61
9, 51615, Control_c, 7, 1, 22
9, 51618, Control_c, 7, 1, 0
9, 51638, Note_on_c, 7, 67, 0
9, 51659, Note_on_c, 7, 67, 89
9, 51679, Note_on_c, 7, 67, 0
9, 51689, Note_on_c, 7, 67, 80
9, 51714, Note_on_c, 7, 67, 0
9, 51779, Note_on_c, 7, 67, 99
9, 51797, Note_on_c, 7, 67, 0
9, 51810, Note_on_c, 7, 67, 84
9, 51837, Note_on_c, 7, 67, 0
9, 51929, Note_on_c, 7, 67, 96
9, 51947, Note_on_c, 7, 67, 0
9, 52019, Note_on_c, 7, 67, 91
9, 52032, Control_c, 7, 1, 5
9, 52037, Control_c, 7, 1, 17
9, 52042, Control_c, 7, 1, 26
9, 52047, Control_c, 7, 1, 33
9, 52052, Control_c, 7, 1, 40
9, 52056, Control_c, 7, 1, 45
9, 52061, Control_c, 7, 1, 50
9, 52068, Control_c, 7, 1, 54
9, 52079, Control_c, 7, 1, 58
9, 52097, Control_c, 7, 1, 59
9, 52105, Control_c, 7, 1, 26
9, 52109, Control_c, 7, 1, 0
9, 52119, Note_on_c, 7, 67, 0
9, 52139, Note_on_c, 7, 67, 89
9, 52156, Note_on_c, 7, 67, 0
9, 52169, Note_on_c, 7, 67, 78
9, 52190, Note_on_c, 7, 67, 0
9, 52260, Note_on_c, 7, 67, 107
9, 52277, Note_on_c, 7, 67, 0
9, 52290, Note_on_c, 7, 67, 82
9, 52313, Note_on_c, 7, 67, 0
9, 52319, Note_on_c, 7, 67, 96
9, 52338, Note_on_c, 7, 67, 0
9, 52409, Note_on_c, 7, 67, 91
9, 52428, Note_on_c, 7, 67, 0
9, 52500, Note_on_c, 7, 67, 96
9, 52512, Control_c, 7, 1, 7
9, 52517, Control_c, 7, 1, 27
9, 52521, Control_c, 7, 1, 42
9, 52526, Control_c, 7, 1, 51
9, 52531, Control_c, 7, 1, 57
9, 52536, Control_c, 7, 1, 62
9, 52543, Control_c, 7, 1, 68
9, 52567, Control_c, 7, 1, 70
9, 52572, Control_c, 7, 1, 54
9, 52577, Control_c, 7, 1, 7
9, 52578, Control_c, 7, 1, 0
9, 52598, Note_on_c, 7, 67, 0
9, 52619, Note_on_c, 7, 67, 89
9, 52639, Note_on_c, 7, 67, 0
9, 52649, Note_on_c, 7, 67, 80
9, 52674, Note_on_c, 7, 67, 0
9, 52739, Note_on_c, 7, 67, 99
9, 52757, Note_on_c, 7, 67, 0
9, 52770, Note_on_c, 7, 67, 84
9, 52797, Note_on_c, 7, 67, 0
9, 52889, Note_on_c, 7, 67, 96
9, 52907, Note_on_c, 7, 67, 0
9, 52979, Note_on_c, 7, 67, 91
9, 52991, Control_c, 7, 1, 2
9, 52996, Control_c, 7, 1, 14
9, 53001, Control_c, 7, 1, 24
9, 53006, Control_c, 7, 1, 31
9, 53010, Control_c, 7, 1, 39
9, 53015, Control_c, 7, 1, 44
9, 53020, Control_c, 7, 1, 49
9, 53026, Control_c, 7, 1, 53
9, 53036, Control_c, 7, 1, 57
9, 53045, Control_c, 7, 1, 61
9, 53064, Control_c, 7, 1, 39
9, 53069, Control_c, 7, 1, 0
9, 53079, Note_on_c, 7, 67, 0
9, 53099, Note_on_c, 7, 67, 89
9, 53116, Note_on_c, 7, 67, 0
9, 53129, Note_on_c, 7, 67, 78
9, 53150, Note_on_c, 7, 67, 0
9, 53220, Note_on_c, 7, 67, 107
9, 53237, Note_on_c, 7, 67, 0
9, 53250, Note_on_c, 7, 67, 82
9, 53273, Note_on_c, 7, 67, 0
9, 53279, Note_on_c, 7, 67, 96
9, 53298, Note_on_c, 7, 67, 0
9, 53369, Note_on_c, 7, 67, 91
9, 53388, Note_on_c, 7, 67, 0
9, 53460, Note_on_c, 7, 67, 96
9, 53473, Control_c, 7, 1, 12
9, 53478, Control_c, 7, 1, 31
9, 53482, Control_c, 7, 1, 44
9, 53488, Control_c, 7, 1, 52
9, 53492, Control_c, 7, 1, 58
9, 53497, Control_c, 7, 1, 63
9, 53505, Control_c, 7, 1, 69
9, 53528, Control_c, 7, 1, 68
9, 53533, Control_c, 7, 1, 46
9, 53538, Control_c, 7, 1, 0
9, 53558, Note_on_c, 7, 67, 0
9, 53579, Note_on_c, 7, 67, 89
9, 53599, Note_on_c, 7, 67, 0
9, 53609, Note_on_c, 7, 67, 80
9, 53634, Note_on_c, 7, 67, 0
9, 53699, Note_on_c, 7, 67, 99
9, 53717, Note_on_c, 7, 67, 0
9, 53730, Note_on_c, 7, 67, 84
9, 53757, Note_on_c, 7, 67, 0
9, 53849, Note_on_c, 7, 67, 96
9, 53867, Note_on_c, 7, 67, 0
9, 53939, Note_on_c, 7, 67, 91
9, 53955, Control_c, 7, 1, 11
9, 53960, Control_c, 7, 1, 22
9, 53965, Control_c, 7, 1, 30
9, 53969, Control_c, 7, 1, 37
9, 53974, Control_c, 7, 1, 43
9, 53979, Control_c, 7, 1, 47
9, 53984, Control_c, 7, 1, 52
9, 53994, Control_c, 7, 1, 56
9, 54003, Control_c, 7, 1, 60
9, 54023, Control_c, 7, 1, 49
9, 54027, Control_c, 7, 1, 1
9, 54029, Control_c, 7, 1, 0
9, 54039, Note_on_c, 7, 67, 0
9, 54059, Note_on_c, 7, 67, 89
9, 54076, Note_on_c, 7, 67, 0
9, 54089, Note_on_c, 7, 67, 78
9, 54110, Note_on_c, 7, 67, 0
9, 54180, Note_on_c, 7, 67, 107
9, 54197, Note_on_c, 7, 67, 0
9, 54210, Note_on_c, 7, 67, 82
9, 54233, Note_on_c, 7, 67, 0
9, 54239, Note_on_c, 7, 67, 96
9, 54258, Note_on_c, 7, 67, 0
9, 54329, Note_on_c, 7, 67, 91
9, 54348, Note_on_c, 7, 67, 0
9, 54420, Note_on_c, 7, 67, 96
9, 54430, Control_c, 7, 1, 1
9, 54434, Control_c, 7, 1, 17
9, 54439, Control_c, 7, 1, 35
9, 54444, Control_c, 7, 1, 47
9, 54449, Control_c, 7, 1, 54
9, 54454, Control_c, 7, 1, 60
9, 54458, Control_c, 7, 1, 65
9, 54467, Control_c, 7, 1, 70
9, 54489, Control_c, 7, 1, 65
9, 54494, Control_c, 7, 1, 36
9, 54498, Control_c, 7, 1, 0
9, 54518, Note_on_c, 7, 67, 0
9, 54539, Note_on_c, 7, 67, 89
9, 54559, Note_on_c, 7, 67, 0
9, 54569, Note_on_c, 7, 67, 80
9, 54594, Note_on_c, 7, 67, 0
9, 54659, Note_on_c, 7, 67, 99
9, 54677, Note_on_c, 7, 67, 0
9, 54690, Note_on_c, 7, 67, 84
9, 54717, Note_on_c, 7, 67, 0
9, 54809, Note_on_c, 7, 67, 96
9, 54827, Note_on_c, 7, 67, 0
9, 54899, Note_on_c, 7, 67, 91
9, 54914, Control_c, 7, 1, 8
9, 54918, Control_c, 7, 1, 19
9, 54923, Control_c, 7, 1, 28
9, 54928, Control_c, 7, 1, 35
9, 54933, Control_c, 7, 1, 42
9, 54938, Control_c, 7, 1, 46
9, 54942, Control_c, 7, 1, 51
9, 54952, Control_c, 7, 1, 55
9, 54962, Control_c, 7, 1, 59
9, 54981, Control_c, 7, 1, 56
9, 54986, Control_c, 7, 1, 10
9, 54989, Control_c, 7, 1, 0
9, 54999, Note_on_c, 7, 67, 0
9, 55019, Note_on_c, 7, 67, 89
9, 55036, Note_on_c, 7, 67, 0
9, 55049, Note_on_c, 7, 67, 78
9, 55070, Note_on_c, 7, 67, 0
9, 55140, Note_on_c, 7, 67, 107
9, 55157, Note_on_c, 7, 67, 0
9, 55170, Note_on_c, 7, 67, 82
9, 55193, Note_on_c, 7, 67, 0
9, 55199, Note_on_c, 7, 67, 96
9, 55218, Note_on_c, 7, 67, 0
9, 55289, Note_on_c, 7, 67, 91
9, 55308, Note_on_c, 7, 67, 0
9, 55380, Note_on_c, 7, 67, 96
9, 55390, Control_c, 7, 1, 4
9, 55396, Control_c, 7, 1, 22
9, 55400, Control_c, 7, 1, 39
9, 55405, Control_c, 7, 1, 49
9, 55410, Control_c, 7, 1, 56
9, 55415, Control_c, 7, 1, 61
9, 55420, Control_c, 7, 1, 66
9, 55433, Control_c, 7, 1, 71
9, 55450, Control_c, 7, 1, 61
9, 55455, Control_c, 7, 1, 22
9, 55458, Control_c, 7, 1, 0
9, 55478, Note_on_c, 7, 67, 0
9, 55499, Note_on_c, 7, 67, 89
9, 55519, Note_on_c, 7, 67, 0
9, 55529, Note_on_c, 7, 67, 80
9, 55554, Note_on_c, 7, 67, 0
9, 55619, Note_on_c, 7, 67, 99
9, 55637, Note_on_c, 7, 67, 0
9, 55650, Note_on_c, 7, 67, 84
9, 55677, Note_on_c, 7, 67, 0
9, 55769, Note_on_c, 7, 67, 96
9, 55787, Note_on_c, 7, 67, 0
9, 55859, Note_on_c, 7, 67, 91
9, 55872, Control_c, 7, 1, 5
9, 55877, Control_c, 7, 1, 17
9, 55882, Control_c, 7, 1, 26
9, 55887, Control_c, 7, 1, 33
9, 55892, Control_c, 7, 1, 40
9, 55896, Control_c, 7, 1, 45
9, 55901, Control_c, 7, 1, 50
9, 55908, Control_c, 7, 1, 54
9, 55919, Control_c, 7, 1, 58
9, 55937, Control_c, 7, 1, 59
9, 55945, Control_c, 7, 1, 26
9, 55949, Control_c, 7, 1, 0
9, 55959, Note_on_c, 7, 67, 0
9, 55979, Note_on_c, 7, 67, 89
9, 55996, Note_on_c, 7, 67, 0
9, 56009, Note_on_c, 7, 67, 78
9, 56030, Note_on_c, 7, 67, 0
9, 56100, Note_on_c, 7, 67, 107
9, 56117, Note_on_c, 7, 67, 0
9, 56130, Note_on_c, 7, 67, 82
9, 56153, Note_on_c, 7, 67, 0
9, 56159, Note_on_c, 7, 67, 96
9, 56178, Note_on_c, 7, 67, 0
9, 56249, Note_on_c, 7, 67, 91
9, 56268, Note_on_c, 7, 67, 0
9, 56340, Note_on_c, 7, 67, 96
9, 56352, Control_c, 7, 1, 7
9, 56357, Control_c, 7, 1, 27
9, 56361, Control_c, 7, 1, 42
9, 56366, Control_c, 7, 1, 51
9, 56371, Control_c, 7, 1, 57
9, 56376, Control_c, 7, 1, 62
9, 56383, Control_c, 7, 1, 68
9, 56407, Control_c, 7, 1, 70
9, 56412, Control_c, 7, 1, 54
9, 56417, Control_c, 7, 1, 7
9, 56418, Control_c, 7, 1, 0
9, 56438, Note_on_c, 7, 67, 0
9, 56459, Note_on_c, 7, 67, 89
9, 56479, Note_on_c, 7, 67, 0
9, 56489, Note_on_c, 7, 67, 80
9, 56514, Note_on_c, 7, 67, 0
9, 56579, Note_on_c, 7, 67, 99
9, 56597, Note_on_c, 7, 67, 0
9, 56610, Note_on_c, 7, 67, 84
9, 56637, Note_on_c, 7, 67, 0
9, 56729, Note_on_c, 7, 67, 96
9, 56747, Note_on_c, 7, 67, 0
9, 56819, Note_on_c, 7, 67, 91
9, 56831, Control_c, 7, 1, 2
9, 56836, Control_c, 7, 1, 14
9, 56841, Control_c, 7, 1, 24
9, 56846, Control_c, 7, 1, 31
9, 56850, Control_c, 7, 1, 39
9, 56855, Control_c, 7, 1, 44
9, 56860, Control_c, 7, 1, 49
9, 56866, Control_c, 7, 1, 53
9, 56876, Control_c, 7, 1, 57
9, 56885, Control_c, 7, 1, 61
9, 56904, Control_c, 7, 1, 39
9, 56909, Control_c, 7, 1, 0
9, 56919, Note_on_c, 7, 67, 0
9, 56939, Note_on_c, 7, 67, 89
9, 56956, Note_on_c, 7, 67, 0
9, 56969, Note_on_c, 7, 67, 78
9, 56990, Note_on_c, 7, 67, 0
9, 57060, Note_on_c, 7, 67, 107
9, 57077, Note_on_c, 7, 67, 0
9, 57090, Note_on_c, 7, 67, 82
9, 57113, Note_on_c, 7, 67, 0
9, 57119, Note_on_c, 7, 67, 96
9, 57138, Note_on_c, 7, 67, 0
9, 57209, Note_on_c, 7, 67, 91
9, 57228, Note_on_c, 7, 67, 0
9, 57300, Note_on_c, 7, 67, 96
9, 57313, Control_c, 7, 1, 12
9, 57318, Control_c, 7, 1, 31
9, 57322, Control_c, 7, 1, 44
9, 57328, Control_c, 7, 1, 52
9, 57332, Control_c, 7, 1, 58
9, 57337, Control_c, 7, 1, 63
9, 57345, Control_c, 7, 1, 69
9, 57368, Control_c, 7, 1, 68
9, 57373, Control_c, 7, 1, 46
9, 57378, Control_c, 7, 1, 0
9, 57398, Note_on_c, 7, 67, 0
9, 57419, Note_on_c, 7, 67, 89
9, 57439, Note_on_c, 7, 67, 0
9, 57449, Note_on_c, 7, 67, 80
9, 57474, Note_on_c, 7, 67, 0
9, 57539, Note_on_c, 7, 67, 99
9, 57557, Note_on_c, 7, 67, 0
9, 57570, Note_on_c, 7, 67, 84
9, 57597, Note_on_c, 7, 67, 0
9, 57689, Note_on_c, 7, 67, 96
9, 57707, Note_on_c, 7, 67, 0
9, 57779, Note_on_c, 7, 67, 91
9, 57795, Control_c, 7, 1, 11
9, 57800, Control_c, 7, 1, 22
9, 57805, Control_c, 7, 1, 30
9, 57809, Control_c, 7, 1, 37
9, 57814, Control_c, 7, 1, 43
9, 57819, Control_c, 7, 1, 47
9, 57824, Control_c, 7, 1, 52
9, 57834, Control_c, 7, 1, 56
9, 57843, Control_c, 7, 1, 60
9, 57863, Control_c, 7, 1, 49
9, 57867, Control_c, 7, 1, 1
9, 57869, Control_c, 7, 1, 0
9, 57879, Note_on_c, 7, 67, 0
9, 57899, Note_on_c, 7, 67, 89
9, 57916, Note_on_c, 7, 67, 0
9, 57929, Note_on_c, 7, 67, 78
9, 57950, Note_on_c, 7, 67, 0
9, 58020, Note_on_c, 7, 67, 107
9, 58037, Note_on_c, 7, 67, 0
9, 58050, Note_on_c, 7, 67, 82
9, 58073, Note_on_c, 7, 67, 0
9, 58073, End_track
10, 0, Start_track
10, 0, MIDI_port, 0
10, 147, Control_c, 9, 121, 0
10, 149, Control_c, 9, 100, 0
10, 150, Control_c, 9, 101, 0
10, 152, Control_c, 9, 6, 2
10, 153, Control_c, 9, 91, 39
10, 154, Control_c, 9, 93, 0
10, 158, Control_c, 9, 1, 0
10, 159, Control_c, 9, 11, 127
10, 167, Program_c, 9, 0
10, 168, Control_c, 9, 7, 115
10, 168, Control_c, 9, 10, 64
10, 960, Control_c, 9, 98, 82
10, 961, Control_c, 9, 99, 29
10, 963, Control_c, 9, 6, 50
10, 963, Control_c, 9, 98, 82
10, 965, Control_c, 9, 99, 24
10, 967, Control_c, 9, 6, 66
10, 967, Control_c, 9, 98, 82
10, 969, Control_c, 9, 99, 28
10, 971, Control_c, 9, 6, 10
10, 1440, Control_c, 9, 98, 70
10, 1441, Control_c, 9, 99, 29
10, 1443, Control_c, 9, 6, 50
10, 1443, Control_c, 9, 98, 70
10, 1445, Control_c, 9, 99, 24
10, 1447, Control_c, 9, 6, 64
10, 1447, Control_c, 9, 98, 70
10, 1449, Control_c, 9, 99, 28
10, 1451, Control_c, 9, 6, 117
10, 1920, Control_c, 9, 98, 37
10, 1921, Control_c, 9, 99, 29
10, 1923, Control_c, 9, 6, 60
10, 1923, Control_c, 9, 98, 37
10, 1925, Control_c, 9, 99, 24
10, 1927, Control_c, 9, 6, 61
10, 2400, Note_on_c, 9, 37, 105
10, 2400, Note_on_c, 9, 70, 82
10, 2401, Note_on_c, 9, 70, 0
10, 2401, Note_on_c, 9, 37, 0
10, 2460, Note_on_c, 9, 82, 69
10, 2461, Note_on_c, 9, 82, 0
10, 2490, Note_on_c, 9, 70, 86
10, 2491, Note_on_c, 9, 70, 0
10, 2520, Note_on_c, 9, 37, 111
10, 2520, Note_on_c, 9, 70, 81
10, 2521, Note_on_c, 9, 70, 0
10, 2521, Note_on_c, 9, 37, 0
10, 2580, Note_on_c, 9, 82, 69
10, 2581, Note_on_c, 9, 82, 0
10, 2610, Note_on_c, 9, 70, 88
10, 2611, Note_on_c, 9, 70, 0
10, 2640, Note_on_c, 9, 37, 100
10, 2640, Note_on_c, 9, 70, 72
10, 2641, Note_on_c, 9, 70, 0
10, 2641, Note_on_c, 9, 37, 0
10, 2700, Note_on_c, 9, 82, 66
10, 2701, Note_on_c, 9, 82, 0
10, 2730, Note_on_c, 9, 70, 88
10, 2731, Note_on_c, 9, 70, 0
10, 2760, Note_on_c, 9, 37, 97
10, 2760, Note_on_c, 9, 70, 80
10, 2761, Note_on_c, 9, 70, 0
10, 2761, Note_on_c, 9, 37, 0
10, 2820, Note_on_c, 9, 82, 71
10, 2821, Note_on_c, 9, 82, 0
10, 2850, Note_on_c, 9, 70, 80
10, 2851, Note_on_c, 9, 70, 0
10, 2880, Note_on_c, 9, 37, 106
10, 2880, Note_on_c, 9, 70, 72
10, 2881, Note_on_c, 9, 70, 0
10, 2881, Note_on_c, 9, 37, 0
10, 2940, Note_on_c, 9, 82, 63
10, 2941, Note_on_c, 9, 82, 0
10, 2970, Note_on_c, 9, 70, 75
10, 2971, Note_on_c, 9, 70, 0
10, 3000, Note_on_c, 9, 37, 106
10, 3000, Note_on_c, 9, 70, 75
10, 3001, Note_on_c, 9, 70, 0
10, 3001, Note_on_c, 9, 37, 0
10, 3060, Note_on_c, 9, 82, 73
10, 3061, Note_on_c, 9, 82, 0
10, 3090, Note_on_c, 9, 70, 86
10, 3091, Note_on_c, 9, 70, 0
10, 3120, Note_on_c, 9, 37, 111
10, 3120, Note_on_c, 9, 70, 75
10, 3121, Note_on_c, 9, 70, 0
10, 3121, Note_on_c, 9, 37, 0
10, 3180, Note_on_c, 9, 82, 68
10, 3181, Note_on_c, 9, 82, 0
10, 3210, Note_on_c, 9, 70, 74
10, 3211, Note_on_c, 9, 70, 0
10, 3240, Note_on_c, 9, 37, 111
10, 3240, Note_on_c, 9, 70, 66
10, 3241, Note_on_c, 9, 70, 0
10, 3241, Note_on_c, 9, 37, 0
10, 3300, Note_on_c, 9, 82, 71
10, 3301, Note_on_c, 9, 82, 0
10, 3330, Note_on_c, 9, 70, 92
10, 3331, Note_on_c, 9, 70, 0
10, 3360, Note_on_c, 9, 37, 105
10, 3360, Note_on_c, 9, 70, 82
10, 3361, Note_on_c, 9, 70, 0
10, 3361, Note_on_c, 9, 37, 0
10, 3420, Note_on_c, 9, 82, 69
10, 3421, Note_on_c, 9, 82, 0
10, 3450, Note_on_c, 9, 70, 86
10, 3451, Note_on_c, 9, 70, 0
10, 3480, Note_on_c, 9, 37, 111
10, 3480, Note_on_c, 9, 70, 81
10, 3481, Note_on_c, 9, 70, 0
10, 3481, Note_on_c, 9, 37, 0
10, 3540, Note_on_c, 9, 82, 69
10, 3541, Note_on_c, 9, 82, 0
10, 3570, Note_on_c, 9, 70, 88
10, 3571, Note_on_c, 9, 70, 0
10, 3600, Note_on_c, 9, 37, 100
10, 3600, Note_on_c, 9, 70, 72
10, 3601, Note_on_c, 9, 70, 0
10, 3601, Note_on_c, 9, 37, 0
10, 3660, Note_on_c, 9, 82, 66
10, 3661, Note_on_c, 9, 82, 0
10, 3690, Note_on_c, 9, 70, 88
10, 3691, Note_on_c, 9, 70, 0
10, 3720, Note_on_c, 9, 37, 97
10, 3720, Note_on_c, 9, 70, 80
10, 3721, Note_on_c, 9, 70, 0
10, 3721, Note_on_c, 9, 37, 0
10, 3780, Note_on_c, 9, 82, 71
10, 3781, Note_on_c, 9, 82, 0
10, 3810, Note_on_c, 9, 70, 80
10, 3811, Note_on_c, 9, 70, 0
10, 3840, Note_on_c, 9, 37, 106
10, 3840, Note_on_c, 9, 70, 72
10, 3841, Note_on_c, 9, 70, 0
10, 3841, Note_on_c, 9, 37, 0
10, 3900, Note_on_c, 9, 82, 63
10, 3901, Note_on_c, 9, 82, 0
10, 3930, Note_on_c, 9, 70, 75
10, 3931, Note_on_c, 9, 70, 0
10, 3960, Note_on_c, 9, 37, 106
10, 3960, Note_on_c, 9, 70, 75
10, 3961, Note_on_c, 9, 70, 0
10, 3961, Note_on_c, 9, 37, 0
10, 4020, Note_on_c, 9, 82, 73
10, 4021, Note_on_c, 9, 82, 0
10, 4050, Note_on_c, 9, 70, 86
10, 4051, Note_on_c, 9, 70, 0
10, 4080, Note_on_c, 9, 37, 111
10, 4080, Note_on_c, 9, 70, 75
10, 4081, Note_on_c, 9, 70, 0
10, 4081, Note_on_c, 9, 37, 0
10, 4320, Note_on_c, 9, 37, 105
10, 4320, Note_on_c, 9, 70, 82
10, 4321, Note_on_c, 9, 70, 0
10, 4321, Note_on_c, 9, 37, 0
10, 4380, Note_on_c, 9, 82, 69
10, 4381, Note_on_c, 9, 82, 0
10, 4410, Note_on_c, 9, 70, 86
10, 4411, Note_on_c, 9, 70, 0
10, 4440, Note_on_c, 9, 37, 111
10, 4440, Note_on_c, 9, 70, 81
10, 4441, Note_on_c, 9, 70, 0
10, 4441, Note_on_c, 9, 37, 0
10, 4500, Note_on_c, 9, 82, 69
10, 4501, Note_on_c, 9, 82, 0
10, 4530, Note_on_c, 9, 70, 88
10, 4531, Note_on_c, 9, 70, 0
10, 4560, Note_on_c, 9, 37, 100
10, 4560, Note_on_c, 9, 70, 72
10, 4561, Note_on_c, 9, 70, 0
10, 4561, Note_on_c, 9, 37, 0
10, 4620, Note_on_c, 9, 82, 66
10, 4621, Note_on_c, 9, 82, 0
10, 4650, Note_on_c, 9, 70, 88
10, 4651, Note_on_c, 9, 70, 0
10, 4680, Note_on_c, 9, 37, 97
10, 4680, Note_on_c, 9, 70, 80
10, 4681, Note_on_c, 9, 70, 0
10, 4681, Note_on_c, 9, 37, 0
10, 4740, Note_on_c, 9, 82, 71
10, 4741, Note_on_c, 9, 82, 0
10, 4770, Note_on_c, 9, 70, 80
10, 4771, Note_on_c, 9, 70, 0
10, 4800, Note_on_c, 9, 37, 106
10, 4800, Note_on_c, 9, 70, 72
10, 4801, Note_on_c, 9, 70, 0
10, 4801, Note_on_c, 9, 37, 0
10, 4860, Note_on_c, 9, 82, 63
10, 4861, Note_on_c, 9, 82, 0
10, 4890, Note_on_c, 9, 70, 75
10, 4891, Note_on_c, 9, 70, 0
10, 4920, Note_on_c, 9, 37, 106
10, 4920, Note_on_c, 9, 70, 75
10, 4921, Note_on_c, 9, 70, 0
10, 4921, Note_on_c, 9, 37, 0
10, 4980, Note_on_c, 9, 82, 73
10, 4981, Note_on_c, 9, 82, 0
10, 5010, Note_on_c, 9, 70, 86
10, 5011, Note_on_c, 9, 70, 0
10, 5040, Note_on_c, 9, 37, 111
10, 5040, Note_on_c, 9, 70, 75
10, 5041, Note_on_c, 9, 70, 0
10, 5041, Note_on_c, 9, 37, 0
10, 5100, Note_on_c, 9, 82, 68
10, 5101, Note_on_c, 9, 82, 0
10, 5130, Note_on_c, 9, 70, 74
10, 5131, Note_on_c, 9, 70, 0
10, 5160, Note_on_c, 9, 37, 111
10, 5160, Note_on_c, 9, 70, 66
10, 5161, Note_on_c, 9, 70, 0
10, 5161, Note_on_c, 9, 37, 0
10, 5220, Note_on_c, 9, 82, 71
10, 5221, Note_on_c, 9, 82, 0
10, 5250, Note_on_c, 9, 70, 92
10, 5251, Note_on_c, 9, 70, 0
10, 5280, Note_on_c, 9, 37, 105
10, 5280, Note_on_c, 9, 70, 82
10, 5281, Note_on_c, 9, 70, 0
10, 5281, Note_on_c, 9, 37, 0
10, 5340, Note_on_c, 9, 82, 69
10, 5341, Note_on_c, 9, 82, 0
10, 5370, Note_on_c, 9, 70, 86
10, 5371, Note_on_c, 9, 70, 0
10, 5400, Note_on_c, 9, 37, 111
10, 5400, Note_on_c, 9, 70, 81
10, 5401, Note_on_c, 9, 70, 0
10, 5401, Note_on_c, 9, 37, 0
10, 5460, Note_on_c, 9, 82, 69
10, 5461, Note_on_c, 9, 82, 0
10, 5490, Note_on_c, 9, 70, 88
10, 5491, Note_on_c, 9, 70, 0
10, 5520, Note_on_c, 9, 37, 100
10, 5520, Note_on_c, 9, 70, 72
10, 5521, Note_on_c, 9, 70, 0
10, 5521, Note_on_c, 9, 37, 0
10, 5580, Note_on_c, 9, 82, 66
10, 5581, Note_on_c, 9, 82, 0
10, 5610, Note_on_c, 9, 70, 88
10, 5611, Note_on_c, 9, 70, 0
10, 5640, Note_on_c, 9, 37, 97
10, 5640, Note_on_c, 9, 70, 80
10, 5641, Note_on_c, 9, 70, 0
10, 5641, Note_on_c, 9, 37, 0
10, 5700, Note_on_c, 9, 82, 71
10, 5701, Note_on_c, 9, 82, 0
10, 5730, Note_on_c, 9, 70, 80
10, 5731, Note_on_c, 9, 70, 0
10, 5760, Note_on_c, 9, 37, 106
10, 5760, Note_on_c, 9, 70, 72
10, 5761, Note_on_c, 9, 70, 0
10, 5761, Note_on_c, 9, 37, 0
10, 5820, Note_on_c, 9, 82, 63
10, 5821, Note_on_c, 9, 82, 0
10, 5850, Note_on_c, 9, 70, 75
10, 5851, Note_on_c, 9, 70, 0
10, 5880, Note_on_c, 9, 37, 106
10, 5880, Note_on_c, 9, 70, 75
10, 5881, Note_on_c, 9, 70, 0
10, 5881, Note_on_c, 9, 37, 0
10, 5940, Note_on_c, 9, 82, 73
10, 5941, Note_on_c, 9, 82, 0
10, 5970, Note_on_c, 9, 70, 86
10, 5971, Note_on_c, 9, 70, 0
10, 6000, Note_on_c, 9, 37, 111
10, 6000, Note_on_c, 9, 70, 75
10, 6001, Note_on_c, 9, 70, 0
10, 6001, Note_on_c, 9, 37, 0
10, 6240, Note_on_c, 9, 37, 105
10, 6240, Note_on_c, 9, 70, 82
10, 6241, Note_on_c, 9, 70, 0
10, 6241, Note_on_c, 9, 37, 0
10, 6300, Note_on_c, 9, 82, 69
10, 6301, Note_on_c, 9, 82, 0
10, 6330, Note_on_c, 9, 70, 86
10, 6331, Note_on_c, 9, 70, 0
10, 6360, Note_on_c, 9, 37, 111
10, 6360, Note_on_c, 9, 70, 81
10, 6361, Note_on_c, 9, 70, 0
10, 6361, Note_on_c, 9, 37, 0
10, 6420, Note_on_c, 9, 82, 69
10, 6421, Note_on_c, 9, 82, 0
10, 6450, Note_on_c, 9, 70, 88
10, 6451, Note_on_c, 9, 70, 0
10, 6480, Note_on_c, 9, 37, 100
10, 6480, Note_on_c, 9, 70, 72
10, 6481, Note_on_c, 9, 70, 0
10, 6481, Note_on_c, 9, 37, 0
10, 6540, Note_on_c, 9, 82, 66
10, 6541, Note_on_c, 9, 82, 0
10, 6570, Note_on_c, 9, 70, 88
10, 6571, Note_on_c, 9, 70, 0
10, 6600, Note_on_c, 9, 37, 97
10, 6600, Note_on_c, 9, 70, 80
10, 6601, Note_on_c, 9, 70, 0
10, 6601, Note_on_c, 9, 37, 0
10, 6660, Note_on_c, 9, 82, 71
10, 6661, Note_on_c, 9, 82, 0
10, 6690, Note_on_c, 9, 70, 80
10, 6691, Note_on_c, 9, 70, 0
10, 6720, Note_on_c, 9, 37, 106
10, 6720, Note_on_c, 9, 70, 72
10, 6721, Note_on_c, 9, 70, 0
10, 6721, Note_on_c, 9, 37, 0
10, 6780, Note_on_c, 9, 82, 63
10, 6781, Note_on_c, 9, 82, 0
10, 6810, Note_on_c, 9, 70, 75
10, 6811, Note_on_c, 9, 70, 0
10, 6840, Note_on_c, 9, 37, 106
10, 6840, Note_on_c, 9, 70, 75
10, 6841, Note_on_c, 9, 70, 0
10, 6841, Note_on_c, 9, 37, 0
10, 6900, Note_on_c, 9, 82, 73
10, 6901, Note_on_c, 9, 82, 0
10, 6930, Note_on_c, 9, 70, 86
10, 6931, Note_on_c, 9, 70, 0
10, 6960, Note_on_c, 9, 37, 111
10, 6960, Note_on_c, 9, 70, 75
10, 6961, Note_on_c, 9, 70, 0
10, 6961, Note_on_c, 9, 37, 0
10, 7020, Note_on_c, 9, 82, 68
10, 7021, Note_on_c, 9, 82, 0
10, 7050, Note_on_c, 9, 70, 74
10, 7051, Note_on_c, 9, 70, 0
10, 7080, Note_on_c, 9, 37, 111
10, 7080, Note_on_c, 9, 70, 66
10, 7081, Note_on_c, 9, 70, 0
10, 7081, Note_on_c, 9, 37, 0
10, 7140, Note_on_c, 9, 82, 71
10, 7141, Note_on_c, 9, 82, 0
10, 7170, Note_on_c, 9, 70, 92
10, 7171, Note_on_c, 9, 70, 0
10, 7200, Note_on_c, 9, 37, 105
10, 7200, Note_on_c, 9, 70, 82
10, 7201, Note_on_c, 9, 70, 0
10, 7201, Note_on_c, 9, 37, 0
10, 7260, Note_on_c, 9, 82, 69
10, 7261, Note_on_c, 9, 82, 0
10, 7290, Note_on_c, 9, 70, 86
10, 7291, Note_on_c, 9, 70, 0
10, 7320, Note_on_c, 9, 37, 111
10, 7320, Note_on_c, 9, 70, 81
10, 7321, Note_on_c, 9, 70, 0
10, 7321, Note_on_c, 9, 37, 0
10, 7380, Note_on_c, 9, 82, 69
10, 7381, Note_on_c, 9, 82, 0
10, 7410, Note_on_c, 9, 70, 88
10, 7411, Note_on_c, 9, 70, 0
10, 7440, Note_on_c, 9, 37, 100
10, 7440, Note_on_c, 9, 70, 72
10, 7441, Note_on_c, 9, 70, 0
10, 7441, Note_on_c, 9, 37, 0
10, 7500, Note_on_c, 9, 82, 66
10, 7501, Note_on_c, 9, 82, 0
10, 7530, Note_on_c, 9, 70, 88
10, 7531, Note_on_c, 9, 70, 0
10, 7560, Note_on_c, 9, 37, 97
10, 7560, Note_on_c, 9, 70, 80
10, 7561, Note_on_c, 9, 70, 0
10, 7561, Note_on_c, 9, 37, 0
10, 7620, Note_on_c, 9, 82, 71
10, 7621, Note_on_c, 9, 82, 0
10, 7650, Note_on_c, 9, 70, 80
10, 7651, Note_on_c, 9, 70, 0
10, 7680, Note_on_c, 9, 37, 106
10, 7680, Note_on_c, 9, 70, 72
10, 7681, Note_on_c, 9, 70, 0
10, 7681, Note_on_c, 9, 37, 0
10, 7740, Note_on_c, 9, 82, 63
10, 7741, Note_on_c, 9, 82, 0
10, 7770, Note_on_c, 9, 70, 75
10, 7771, Note_on_c, 9, 70, 0
10, 7800, Note_on_c, 9, 37, 106
10, 7800, Note_on_c, 9, 70, 75
10, 7801, Note_on_c, 9, 70, 0
10, 7801, Note_on_c, 9, 37, 0
10, 7860, Note_on_c, 9, 82, 73
10, 7861, Note_on_c, 9, 82, 0
10, 7890, Note_on_c, 9, 70, 86
10, 7891, Note_on_c, 9, 70, 0
10, 7920, Note_on_c, 9, 37, 111
10, 7920, Note_on_c, 9, 70, 75
10, 7921, Note_on_c, 9, 70, 0
10, 7921, Note_on_c, 9, 37, 0
10, 7980, Note_on_c, 9, 82, 68
10, 7981, Note_on_c, 9, 82, 0
10, 8010, Note_on_c, 9, 70, 74
10, 8011, Note_on_c, 9, 70, 0
10, 8040, Note_on_c, 9, 37, 111
10, 8040, Note_on_c, 9, 70, 66
10, 8041, Note_on_c, 9, 70, 0
10, 8041, Note_on_c, 9, 37, 0
10, 8100, Note_on_c, 9, 82, 71
10, 8101, Note_on_c, 9, 82, 0
10, 8130, Note_on_c, 9, 70, 92
10, 8131, Note_on_c, 9, 70, 0
10, 8160, Note_on_c, 9, 37, 105
10, 8160, Note_on_c, 9, 70, 82
10, 8161, Note_on_c, 9, 70, 0
10, 8161, Note_on_c, 9, 37, 0
10, 8220, Note_on_c, 9, 82, 69
10, 8221, Note_on_c, 9, 82, 0
10, 8250, Note_on_c, 9, 70, 86
10, 8251, Note_on_c, 9, 70, 0
10, 8280, Note_on_c, 9, 37, 111
10, 8280, Note_on_c, 9, 70, 81
10, 8281, Note_on_c, 9, 70, 0
10, 8281, Note_on_c, 9, 37, 0
10, 8340, Note_on_c, 9, 82, 69
10, 8341, Note_on_c, 9, 82, 0
10, 8370, Note_on_c, 9, 70, 88
10, 8371, Note_on_c, 9, 70, 0
10, 8400, Note_on_c, 9, 37, 100
10, 8400, Note_on_c, 9, 70, 72
10, 8401, Note_on_c, 9, 70, 0
10, 8401, Note_on_c, 9, 37, 0
10, 8460, Note_on_c, 9, 82, 66
10, 8461, Note_on_c, 9, 82, 0
10, 8490, Note_on_c, 9, 70, 88
10, 8491, Note_on_c, 9, 70, 0
10, 8520, Note_on_c, 9, 37, 97
10, 8520, Note_on_c, 9, 70, 80
10, 8521, Note_on_c, 9, 70, 0
10, 8521, Note_on_c, 9, 37, 0
10, 8580, Note_on_c, 9, 82, 71
10, 8581, Note_on_c, 9, 82, 0
10, 8610, Note_on_c, 9, 70, 80
10, 8611, Note_on_c, 9, 70, 0
10, 8640, Note_on_c, 9, 37, 106
10, 8640, Note_on_c, 9, 70, 72
10, 8641, Note_on_c, 9, 70, 0
10, 8641, Note_on_c, 9, 37, 0
10, 8700, Note_on_c, 9, 82, 63
10, 8701, Note_on_c, 9, 82, 0
10, 8730, Note_on_c, 9, 70, 75
10, 8731, Note_on_c, 9, 70, 0
10, 8760, Note_on_c, 9, 37, 106
10, 8760, Note_on_c, 9, 70, 75
10, 8761, Note_on_c, 9, 70, 0
10, 8761, Note_on_c, 9, 37, 0
10, 8820, Note_on_c, 9, 82, 73
10, 8821, Note_on_c, 9, 82, 0
10, 8850, Note_on_c, 9, 70, 86
10, 8851, Note_on_c, 9, 70, 0
10, 8880, Note_on_c, 9, 37, 111
10, 8880, Note_on_c, 9, 70, 75
10, 8881, Note_on_c, 9, 70, 0
10, 8881, Note_on_c, 9, 37, 0
10, 8940, Note_on_c, 9, 82, 68
10, 8941, Note_on_c, 9, 82, 0
10, 8970, Note_on_c, 9, 70, 74
10, 8971, Note_on_c, 9, 70, 0
10, 9000, Note_on_c, 9, 37, 111
10, 9000, Note_on_c, 9, 70, 66
10, 9001, Note_on_c, 9, 70, 0
10, 9001, Note_on_c, 9, 37, 0
10, 9060, Note_on_c, 9, 82, 71
10, 9061, Note_on_c, 9, 82, 0
10, 9090, Note_on_c, 9, 70, 92
10, 9091, Note_on_c, 9, 70, 0
10, 9120, Note_on_c, 9, 37, 105
10, 9120, Note_on_c, 9, 70, 82
10, 9121, Note_on_c, 9, 70, 0
10, 9121, Note_on_c, 9, 37, 0
10, 9180, Note_on_c, 9, 82, 69
10, 9181, Note_on_c, 9, 82, 0
10, 9210, Note_on_c, 9, 70, 86
10, 9211, Note_on_c, 9, 70, 0
10, 9240, Note_on_c, 9, 37, 111
10, 9240, Note_on_c, 9, 70, 81
10, 9241, Note_on_c, 9, 70, 0
10, 9241, Note_on_c, 9, 37, 0
10, 9300, Note_on_c, 9, 82, 69
10, 9301, Note_on_c, 9, 82, 0
10, 9330, Note_on_c, 9, 70, 88
10, 9331, Note_on_c, 9, 70, 0
10, 9360, Note_on_c, 9, 37, 100
10, 9360, Note_on_c, 9, 70, 72
10, 9361, Note_on_c, 9, 70, 0
10, 9361, Note_on_c, 9, 37, 0
10, 9420, Note_on_c, 9, 82, 66
10, 9421, Note_on_c, 9, 82, 0
10, 9450, Note_on_c, 9, 70, 88
10, 9451, Note_on_c, 9, 70, 0
10, 9480, Note_on_c, 9, 37, 97
10, 9480, Note_on_c, 9, 70, 80
10, 9481, Note_on_c, 9, 70, 0
10, 9481, Note_on_c, 9, 37, 0
10, 9540, Note_on_c, 9, 82, 71
10, 9541, Note_on_c, 9, 82, 0
10, 9570, Note_on_c, 9, 70, 80
10, 9571, Note_on_c, 9, 70, 0
10, 9600, Note_on_c, 9, 37, 106
10, 9600, Note_on_c, 9, 70, 72
10, 9601, Note_on_c, 9, 70, 0
10, 9601, Note_on_c, 9, 37, 0
10, 9660, Note_on_c, 9, 82, 63
10, 9661, Note_on_c, 9, 82, 0
10, 9690, Note_on_c, 9, 70, 75
10, 9691, Note_on_c, 9, 70, 0
10, 9720, Note_on_c, 9, 37, 106
10, 9720, Note_on_c, 9, 70, 75
10, 9721, Note_on_c, 9, 70, 0
10, 9721, Note_on_c, 9, 37, 0
10, 9780, Note_on_c, 9, 82, 73
10, 9781, Note_on_c, 9, 82, 0
10, 9810, Note_on_c, 9, 70, 86
10, 9811, Note_on_c, 9, 70, 0
10, 9840, Note_on_c, 9, 37, 111
10, 9840, Note_on_c, 9, 70, 75
10, 9841, Note_on_c, 9, 70, 0
10, 9841, Note_on_c, 9, 37, 0
10, 9900, Note_on_c, 9, 82, 68
10, 9901, Note_on_c, 9, 82, 0
10, 9930, Note_on_c, 9, 70, 74
10, 9931, Note_on_c, 9, 70, 0
10, 9960, Note_on_c, 9, 37, 111
10, 9960, Note_on_c, 9, 70, 66
10, 9961, Note_on_c, 9, 70, 0
10, 9961, Note_on_c, 9, 37, 0
10, 10020, Note_on_c, 9, 82, 71
10, 10021, Note_on_c, 9, 82, 0
10, 10050, Note_on_c, 9, 70, 92
10, 10051, Note_on_c, 9, 70, 0
10, 10080, Note_on_c, 9, 37, 105
10, 10080, Note_on_c, 9, 70, 82
10, 10081, Note_on_c, 9, 70, 0
10, 10081, Note_on_c, 9, 37, 0
10, 10140, Note_on_c, 9, 82, 69
10, 10141, Note_on_c, 9, 82, 0
10, 10170, Note_on_c, 9, 70, 86
10, 10171, Note_on_c, 9, 70, 0
10, 10200, Note_on_c, 9, 37, 111
10, 10200, Note_on_c, 9, 70, 81
10, 10201, Note_on_c, 9, 70, 0
10, 10201, Note_on_c, 9, 37, 0
10, 10260, Note_on_c, 9, 82, 69
10, 10261, Note_on_c, 9, 82, 0
10, 10290, Note_on_c, 9, 70, 88
10, 10291, Note_on_c, 9, 70, 0
10, 10320, Note_on_c, 9, 37, 100
10, 10320, Note_on_c, 9, 70, 72
10, 10321, Note_on_c, 9, 70, 0
10, 10321, Note_on_c, 9, 37, 0
10, 10380, Note_on_c, 9, 82, 66
10, 10381, Note_on_c, 9, 82, 0
10, 10410, Note_on_c, 9, 70, 88
10, 10411, Note_on_c, 9, 70, 0
10, 10440, Note_on_c, 9, 37, 97
10, 10440, Note_on_c, 9, 70, 80
10, 10441, Note_on_c, 9, 70, 0
10, 10441, Note_on_c, 9, 37, 0
10, 10500, Note_on_c, 9, 82, 71
10, 10501, Note_on_c, 9, 82, 0
10, 10530, Note_on_c, 9, 70, 80
10, 10531, Note_on_c, 9, 70, 0
10, 10560, Note_on_c, 9, 37, 106
10, 10560, Control_c, 9, 98, 40
10, 10560, Note_on_c, 9, 70, 72
10, 10561, Note_on_c, 9, 70, 0
10, 10561, Note_on_c, 9, 37, 0
10, 10561, Control_c, 9, 99, 29
10, 10563, Control_c, 9, 6, 60
10, 10563, Control_c, 9, 98, 40
10, 10565, Control_c, 9, 99, 24
10, 10567, Control_c, 9, 6, 66
10, 10567, Control_c, 9, 98, 40
10, 10569, Control_c, 9, 99, 28
10, 10571, Control_c, 9, 6, 64
10, 10620, Note_on_c, 9, 82, 63
10, 10621, Note_on_c, 9, 82, 0
10, 10650, Note_on_c, 9, 70, 75
10, 10651, Note_on_c, 9, 70, 0
10, 10680, Note_on_c, 9, 37, 106
10, 10680, Note_on_c, 9, 70, 75
10, 10681, Note_on_c, 9, 70, 0
10, 10681, Note_on_c, 9, 37, 0
10, 10740, Note_on_c, 9, 82, 73
10, 10741, Note_on_c, 9, 82, 0
10, 10770, Note_on_c, 9, 70, 86
10, 10771, Note_on_c, 9, 70, 0
10, 10800, Note_on_c, 9, 37, 111
10, 10800, Note_on_c, 9, 70, 75
10, 10801, Note_on_c, 9, 70, 0
10, 10801, Note_on_c, 9, 37, 0
10, 10860, Note_on_c, 9, 82, 68
10, 10861, Note_on_c, 9, 82, 0
10, 10890, Note_on_c, 9, 70, 74
10, 10891, Note_on_c, 9, 70, 0
10, 10920, Note_on_c, 9, 37, 111
10, 10920, Note_on_c, 9, 70, 66
10, 10921, Note_on_c, 9, 70, 0
10, 10921, Note_on_c, 9, 37, 0
10, 10980, Note_on_c, 9, 82, 71
10, 10981, Note_on_c, 9, 82, 0
10, 11010, Note_on_c, 9, 70, 92
10, 11011, Note_on_c, 9, 70, 0
10, 11040, Note_on_c, 9, 37, 120
10, 11041, Note_on_c, 9, 37, 0
10, 11520, Control_c, 9, 98, 35
10, 11521, Control_c, 9, 99, 29
10, 11523, Control_c, 9, 6, 0
10, 11760, Note_on_c, 9, 57, 85
10, 11760, Note_on_c, 9, 40, 111
10, 11761, Note_on_c, 9, 40, 0
10, 11761, Note_on_c, 9, 57, 0
10, 12000, Note_on_c, 9, 52, 92
10, 12000, Note_on_c, 9, 35, 117
10, 12000, Note_on_c, 9, 70, 82
10, 12000, Note_on_c, 9, 54, 77
10, 12001, Note_on_c, 9, 54, 0
10, 12001, Note_on_c, 9, 52, 0
10, 12001, Note_on_c, 9, 35, 0
10, 12001, Note_on_c, 9, 70, 0
10, 12030, Note_on_c, 9, 54, 46
10, 12031, Note_on_c, 9, 54, 0
10, 12060, Note_on_c, 9, 82, 69
10, 12060, Note_on_c, 9, 54, 46
10, 12061, Note_on_c, 9, 54, 0
10, 12061, Note_on_c, 9, 82, 0
10, 12090, Note_on_c, 9, 70, 86
10, 12090, Note_on_c, 9, 54, 52
10, 12091, Note_on_c, 9, 54, 0
10, 12091, Note_on_c, 9, 70, 0
10, 12119, Note_on_c, 9, 55, 56
10, 12120, Note_on_c, 9, 55, 0
10, 12120, Note_on_c, 9, 40, 111
10, 12120, Note_on_c, 9, 70, 81
10, 12120, Note_on_c, 9, 54, 67
10, 12121, Note_on_c, 9, 54, 0
10, 12121, Note_on_c, 9, 70, 0
10, 12121, Note_on_c, 9, 40, 0
10, 12150, Note_on_c, 9, 54, 29
10, 12151, Note_on_c, 9, 54, 0
10, 12180, Note_on_c, 9, 82, 69
10, 12180, Note_on_c, 9, 54, 49
10, 12181, Note_on_c, 9, 54, 0
10, 12181, Note_on_c, 9, 82, 0
10, 12210, Note_on_c, 9, 70, 88
10, 12210, Note_on_c, 9, 54, 61
10, 12211, Note_on_c, 9, 54, 0
10, 12211, Note_on_c, 9, 70, 0
10, 12240, Note_on_c, 9, 35, 126
10, 12240, Note_on_c, 9, 70, 72
10, 12240, Note_on_c, 9, 54, 65
10, 12241, Note_on_c, 9, 54, 0
10, 12241, Note_on_c, 9, 70, 0
10, 12241, Note_on_c, 9, 35, 0
10, 12270, Note_on_c, 9, 54, 30
10, 12271, Note_on_c, 9, 54, 0
10, 12300, Note_on_c, 9, 82, 66
10, 12300, Note_on_c, 9, 54, 48
10, 12301, Note_on_c, 9, 54, 0
10, 12301, Note_on_c, 9, 82, 0
10, 12330, Note_on_c, 9, 70, 88
10, 12330, Note_on_c, 9, 54, 60
10, 12331, Note_on_c, 9, 54, 0
10, 12331, Note_on_c, 9, 70, 0
10, 12359, Note_on_c, 9, 55, 65
10, 12360, Note_on_c, 9, 55, 0
10, 12360, Note_on_c, 9, 40, 94
10, 12360, Note_on_c, 9, 70, 80
10, 12360, Note_on_c, 9, 54, 67
10, 12361, Note_on_c, 9, 54, 0
10, 12361, Note_on_c, 9, 70, 0
10, 12361, Note_on_c, 9, 40, 0
10, 12390, Note_on_c, 9, 54, 52
10, 12391, Note_on_c, 9, 54, 0
10, 12420, Note_on_c, 9, 82, 71
10, 12420, Note_on_c, 9, 54, 46
10, 12421, Note_on_c, 9, 54, 0
10, 12421, Note_on_c, 9, 82, 0
10, 12450, Note_on_c, 9, 70, 80
10, 12450, Note_on_c, 9, 54, 56
10, 12451, Note_on_c, 9, 54, 0
10, 12451, Note_on_c, 9, 70, 0
10, 12480, Note_on_c, 9, 35, 123
10, 12480, Note_on_c, 9, 70, 72
10, 12480, Note_on_c, 9, 54, 81
10, 12481, Note_on_c, 9, 54, 0
10, 12481, Note_on_c, 9, 70, 0
10, 12481, Note_on_c, 9, 35, 0
10, 12510, Note_on_c, 9, 54, 52
10, 12511, Note_on_c, 9, 54, 0
10, 12540, Note_on_c, 9, 82, 63
10, 12540, Note_on_c, 9, 54, 45
10, 12541, Note_on_c, 9, 54, 0
10, 12541, Note_on_c, 9, 82, 0
10, 12570, Note_on_c, 9, 70, 75
10, 12570, Note_on_c, 9, 54, 44
10, 12571, Note_on_c, 9, 54, 0
10, 12571, Note_on_c, 9, 70, 0
10, 12599, Note_on_c, 9, 55, 65
10, 12600, Note_on_c, 9, 55, 0
10, 12600, Note_on_c, 9, 40, 111
10, 12600, Note_on_c, 9, 70, 75
10, 12600, Note_on_c, 9, 54, 70
10, 12601, Note_on_c, 9, 54, 0
10, 12601, Note_on_c, 9, 70, 0
10, 12601, Note_on_c, 9, 40, 0
10, 12630, Note_on_c, 9, 54, 37
10, 12631, Note_on_c, 9, 54, 0
10, 12660, Note_on_c, 9, 82, 73
10, 12660, Note_on_c, 9, 54, 56
10, 12661, Note_on_c, 9, 54, 0
10, 12661, Note_on_c, 9, 82, 0
10, 12690, Note_on_c, 9, 70, 86
10, 12690, Note_on_c, 9, 54, 52
10, 12691, Note_on_c, 9, 54, 0
10, 12691, Note_on_c, 9, 70, 0
10, 12720, Note_on_c, 9, 35, 117
10, 12720, Note_on_c, 9, 70, 75
10, 12720, Note_on_c, 9, 54, 77
10, 12721, Note_on_c, 9, 54, 0
10, 12721, Note_on_c, 9, 70, 0
10, 12721, Note_on_c, 9, 35, 0
10, 12750, Note_on_c, 9, 54, 31
10, 12751, Note_on_c, 9, 54, 0
10, 12780, Note_on_c, 9, 82, 68
10, 12780, Note_on_c, 9, 54, 42
10, 12781, Note_on_c, 9, 54, 0
10, 12781, Note_on_c, 9, 82, 0
10, 12810, Note_on_c, 9, 70, 74
10, 12810, Note_on_c, 9, 54, 40
10, 12811, Note_on_c, 9, 54, 0
10, 12811, Note_on_c, 9, 70, 0
10, 12839, Note_on_c, 9, 55, 67
10, 12840, Note_on_c, 9, 55, 0
10, 12840, Note_on_c, 9, 40, 111
10, 12840, Note_on_c, 9, 70, 66
10, 12840, Note_on_c, 9, 54, 70
10, 12841, Note_on_c, 9, 54, 0
10, 12841, Note_on_c, 9, 70, 0
10, 12841, Note_on_c, 9, 40, 0
10, 12870, Note_on_c, 9, 54, 44
10, 12871, Note_on_c, 9, 54, 0
10, 12900, Note_on_c, 9, 82, 71
10, 12900, Note_on_c, 9, 54, 42
10, 12901, Note_on_c, 9, 54, 0
10, 12901, Note_on_c, 9, 82, 0
10, 12930, Note_on_c, 9, 40, 114
10, 12930, Note_on_c, 9, 70, 92
10, 12930, Note_on_c, 9, 54, 56
10, 12931, Note_on_c, 9, 54, 0
10, 12931, Note_on_c, 9, 70, 0
10, 12931, Note_on_c, 9, 40, 0
10, 12960, Note_on_c, 9, 35, 109
10, 12960, Note_on_c, 9, 70, 82
10, 12960, Note_on_c, 9, 54, 81
10, 12961, Note_on_c, 9, 54, 0
10, 12961, Note_on_c, 9, 70, 0
10, 12961, Note_on_c, 9, 35, 0
10, 12990, Note_on_c, 9, 54, 42
10, 12991, Note_on_c, 9, 54, 0
10, 13020, Note_on_c, 9, 82, 69
10, 13020, Note_on_c, 9, 54, 36
10, 13021, Note_on_c, 9, 54, 0
10, 13021, Note_on_c, 9, 82, 0
10, 13050, Note_on_c, 9, 70, 86
10, 13050, Note_on_c, 9, 54, 35
10, 13051, Note_on_c, 9, 54, 0
10, 13051, Note_on_c, 9, 70, 0
10, 13079, Note_on_c, 9, 55, 61
10, 13080, Note_on_c, 9, 55, 0
10, 13080, Note_on_c, 9, 40, 105
10, 13080, Note_on_c, 9, 70, 81
10, 13080, Note_on_c, 9, 54, 81
10, 13081, Note_on_c, 9, 54, 0
10, 13081, Note_on_c, 9, 70, 0
10, 13081, Note_on_c, 9, 40, 0
10, 13110, Note_on_c, 9, 54, 40
10, 13111, Note_on_c, 9, 54, 0
10, 13140, Note_on_c, 9, 82, 69
10, 13140, Note_on_c, 9, 54, 52
10, 13141, Note_on_c, 9, 54, 0
10, 13141, Note_on_c, 9, 82, 0
10, 13170, Note_on_c, 9, 70, 88
10, 13170, Note_on_c, 9, 54, 46
10, 13171, Note_on_c, 9, 54, 0
10, 13171, Note_on_c, 9, 70, 0
10, 13200, Note_on_c, 9, 35, 99
10, 13200, Note_on_c, 9, 70, 72
10, 13200, Note_on_c, 9, 54, 75
10, 13201, Note_on_c, 9, 54, 0
10, 13201, Note_on_c, 9, 70, 0
10, 13201, Note_on_c, 9, 35, 0
10, 13230, Note_on_c, 9, 54, 20
10, 13231, Note_on_c, 9, 54, 0
10, 13260, Note_on_c, 9, 82, 66
10, 13260, Note_on_c, 9, 54, 37
10, 13261, Note_on_c, 9, 54, 0
10, 13261, Note_on_c, 9, 82, 0
10, 13290, Note_on_c, 9, 70, 88
10, 13290, Note_on_c, 9, 54, 52
10, 13291, Note_on_c, 9, 54, 0
10, 13291, Note_on_c, 9, 70, 0
10, 13319, Note_on_c, 9, 55, 61
10, 13320, Note_on_c, 9, 55, 0
10, 13320, Note_on_c, 9, 40, 111
10, 13320, Note_on_c, 9, 70, 80
10, 13320, Note_on_c, 9, 54, 77
10, 13321, Note_on_c, 9, 54, 0
10, 13321, Note_on_c, 9, 70, 0
10, 13321, Note_on_c, 9, 40, 0
10, 13350, Note_on_c, 9, 54, 52
10, 13351, Note_on_c, 9, 54, 0
10, 13380, Note_on_c, 9, 82, 71
10, 13380, Note_on_c, 9, 54, 56
10, 13381, Note_on_c, 9, 54, 0
10, 13381, Note_on_c, 9, 82, 0
10, 13410, Note_on_c, 9, 70, 80
10, 13410, Note_on_c, 9, 54, 52
10, 13411, Note_on_c, 9, 54, 0
10, 13411, Note_on_c, 9, 70, 0
10, 13440, Note_on_c, 9, 35, 117
10, 13440, Note_on_c, 9, 70, 72
10, 13440, Note_on_c, 9, 54, 77
10, 13441, Note_on_c, 9, 54, 0
10, 13441, Note_on_c, 9, 70, 0
10, 13441, Note_on_c, 9, 35, 0
10, 13470, Note_on_c, 9, 54, 30
10, 13471, Note_on_c, 9, 54, 0
10, 13500, Note_on_c, 9, 82, 63
10, 13500, Note_on_c, 9, 54, 44
10, 13501, Note_on_c, 9, 54, 0
10, 13501, Note_on_c, 9, 82, 0
10, 13530, Note_on_c, 9, 70, 75
10, 13530, Note_on_c, 9, 54, 44
10, 13531, Note_on_c, 9, 54, 0
10, 13531, Note_on_c, 9, 70, 0
10, 13559, Note_on_c, 9, 55, 67
10, 13560, Note_on_c, 9, 55, 0
10, 13560, Note_on_c, 9, 40, 114
10, 13560, Note_on_c, 9, 70, 75
10, 13560, Note_on_c, 9, 54, 70
10, 13561, Note_on_c, 9, 54, 0
10, 13561, Note_on_c, 9, 70, 0
10, 13561, Note_on_c, 9, 40, 0
10, 13590, Note_on_c, 9, 54, 32
10, 13591, Note_on_c, 9, 54, 0
10, 13620, Note_on_c, 9, 82, 73
10, 13620, Note_on_c, 9, 54, 54
10, 13621, Note_on_c, 9, 54, 0
10, 13621, Note_on_c, 9, 82, 0
10, 13650, Note_on_c, 9, 40, 101
10, 13650, Note_on_c, 9, 70, 86
10, 13650, Note_on_c, 9, 54, 61
10, 13651, Note_on_c, 9, 54, 0
10, 13651, Note_on_c, 9, 70, 0
10, 13651, Note_on_c, 9, 40, 0
10, 13680, Note_on_c, 9, 35, 117
10, 13680, Note_on_c, 9, 70, 75
10, 13680, Note_on_c, 9, 54, 65
10, 13681, Note_on_c, 9, 54, 0
10, 13681, Note_on_c, 9, 70, 0
10, 13681, Note_on_c, 9, 35, 0
10, 13710, Note_on_c, 9, 54, 31
10, 13711, Note_on_c, 9, 54, 0
10, 13740, Note_on_c, 9, 35, 117
10, 13740, Note_on_c, 9, 54, 61
10, 13741, Note_on_c, 9, 54, 0
10, 13741, Note_on_c, 9, 35, 0
10, 13770, Note_on_c, 9, 54, 52
10, 13771, Note_on_c, 9, 54, 0
10, 13799, Note_on_c, 9, 55, 65
10, 13800, Note_on_c, 9, 55, 0
10, 13800, Note_on_c, 9, 40, 115
10, 13800, Note_on_c, 9, 54, 81
10, 13801, Note_on_c, 9, 54, 0
10, 13801, Note_on_c, 9, 40, 0
10, 13830, Note_on_c, 9, 54, 33
10, 13831, Note_on_c, 9, 54, 0
10, 13860, Note_on_c, 9, 54, 36
10, 13861, Note_on_c, 9, 54, 0
10, 13890, Note_on_c, 9, 35, 99
10, 13890, Note_on_c, 9, 54, 52
10, 13891, Note_on_c, 9, 54, 0
10, 13891, Note_on_c, 9, 35, 0
10, 13920, Note_on_c, 9, 35, 117
10, 13920, Note_on_c, 9, 70, 82
10, 13920, Note_on_c, 9, 54, 77
10, 13921, Note_on_c, 9, 54, 0
10, 13921, Note_on_c, 9, 70, 0
10, 13921, Note_on_c, 9, 35, 0
10, 13950, Note_on_c, 9, 54, 46
10, 13951, Note_on_c, 9, 54, 0
10, 13980, Note_on_c, 9, 82, 69
10, 13980, Note_on_c, 9, 54, 46
10, 13981, Note_on_c, 9, 54, 0
10, 13981, Note_on_c, 9, 82, 0
10, 14010, Note_on_c, 9, 70, 86
10, 14010, Note_on_c, 9, 54, 52
10, 14011, Note_on_c, 9, 54, 0
10, 14011, Note_on_c, 9, 70, 0
10, 14039, Note_on_c, 9, 55, 54
10, 14040, Note_on_c, 9, 55, 0
10, 14040, Note_on_c, 9, 40, 111
10, 14040, Note_on_c, 9, 70, 81
10, 14040, Note_on_c, 9, 54, 67
10, 14041, Note_on_c, 9, 54, 0
10, 14041, Note_on_c, 9, 70, 0
10, 14041, Note_on_c, 9, 40, 0
10, 14070, Note_on_c, 9, 54, 29
10, 14071, Note_on_c, 9, 54, 0
10, 14100, Note_on_c, 9, 82, 69
10, 14100, Note_on_c, 9, 54, 49
10, 14101, Note_on_c, 9, 54, 0
10, 14101, Note_on_c, 9, 82, 0
10, 14130, Note_on_c, 9, 70, 88
10, 14130, Note_on_c, 9, 54, 61
10, 14131, Note_on_c, 9, 54, 0
10, 14131, Note_on_c, 9, 70, 0
10, 14160, Note_on_c, 9, 35, 126
10, 14160, Note_on_c, 9, 70, 72
10, 14160, Note_on_c, 9, 54, 65
10, 14161, Note_on_c, 9, 54, 0
10, 14161, Note_on_c, 9, 70, 0
10, 14161, Note_on_c, 9, 35, 0
10, 14190, Note_on_c, 9, 54, 30
10, 14191, Note_on_c, 9, 54, 0
10, 14220, Note_on_c, 9, 82, 66
10, 14220, Note_on_c, 9, 54, 48
10, 14221, Note_on_c, 9, 54, 0
10, 14221, Note_on_c, 9, 82, 0
10, 14250, Note_on_c, 9, 70, 88
10, 14250, Note_on_c, 9, 54, 60
10, 14251, Note_on_c, 9, 54, 0
10, 14251, Note_on_c, 9, 70, 0
10, 14279, Note_on_c, 9, 55, 50
10, 14280, Note_on_c, 9, 55, 0
10, 14280, Note_on_c, 9, 40, 94
10, 14280, Note_on_c, 9, 70, 80
10, 14280, Note_on_c, 9, 54, 67
10, 14281, Note_on_c, 9, 54, 0
10, 14281, Note_on_c, 9, 70, 0
10, 14281, Note_on_c, 9, 40, 0
10, 14310, Note_on_c, 9, 54, 52
10, 14311, Note_on_c, 9, 54, 0
10, 14340, Note_on_c, 9, 82, 71
10, 14340, Note_on_c, 9, 54, 46
10, 14341, Note_on_c, 9, 54, 0
10, 14341, Note_on_c, 9, 82, 0
10, 14370, Note_on_c, 9, 70, 80
10, 14370, Note_on_c, 9, 54, 56
10, 14371, Note_on_c, 9, 54, 0
10, 14371, Note_on_c, 9, 70, 0
10, 14400, Note_on_c, 9, 35, 123
10, 14400, Note_on_c, 9, 70, 72
10, 14400, Note_on_c, 9, 54, 81
10, 14401, Note_on_c, 9, 54, 0
10, 14401, Note_on_c, 9, 70, 0
10, 14401, Note_on_c, 9, 35, 0
10, 14430, Note_on_c, 9, 54, 52
10, 14431, Note_on_c, 9, 54, 0
10, 14460, Note_on_c, 9, 82, 63
10, 14460, Note_on_c, 9, 54, 45
10, 14461, Note_on_c, 9, 54, 0
10, 14461, Note_on_c, 9, 82, 0
10, 14490, Note_on_c, 9, 70, 75
10, 14490, Note_on_c, 9, 54, 44
10, 14491, Note_on_c, 9, 54, 0
10, 14491, Note_on_c, 9, 70, 0
10, 14519, Note_on_c, 9, 55, 65
10, 14520, Note_on_c, 9, 55, 0
10, 14520, Note_on_c, 9, 40, 111
10, 14520, Note_on_c, 9, 70, 75
10, 14520, Note_on_c, 9, 54, 70
10, 14521, Note_on_c, 9, 54, 0
10, 14521, Note_on_c, 9, 70, 0
10, 14521, Note_on_c, 9, 40, 0
10, 14550, Note_on_c, 9, 54, 37
10, 14551, Note_on_c, 9, 54, 0
10, 14580, Note_on_c, 9, 82, 73
10, 14580, Note_on_c, 9, 54, 56
10, 14581, Note_on_c, 9, 54, 0
10, 14581, Note_on_c, 9, 82, 0
10, 14610, Note_on_c, 9, 70, 86
10, 14610, Note_on_c, 9, 54, 52
10, 14611, Note_on_c, 9, 54, 0
10, 14611, Note_on_c, 9, 70, 0
10, 14640, Note_on_c, 9, 35, 117
10, 14640, Note_on_c, 9, 70, 75
10, 14640, Note_on_c, 9, 54, 77
10, 14641, Note_on_c, 9, 54, 0
10, 14641, Note_on_c, 9, 70, 0
10, 14641, Note_on_c, 9, 35, 0
10, 14670, Note_on_c, 9, 54, 31
10, 14671, Note_on_c, 9, 54, 0
10, 14700, Note_on_c, 9, 82, 68
10, 14700, Note_on_c, 9, 54, 42
10, 14701, Note_on_c, 9, 54, 0
10, 14701, Note_on_c, 9, 82, 0
10, 14730, Note_on_c, 9, 70, 74
10, 14730, Note_on_c, 9, 54, 40
10, 14731, Note_on_c, 9, 54, 0
10, 14731, Note_on_c, 9, 70, 0
10, 14759, Note_on_c, 9, 55, 63
10, 14760, Note_on_c, 9, 55, 0
10, 14760, Note_on_c, 9, 40, 111
10, 14760, Note_on_c, 9, 70, 66
10, 14760, Note_on_c, 9, 54, 70
10, 14761, Note_on_c, 9, 54, 0
10, 14761, Note_on_c, 9, 70, 0
10, 14761, Note_on_c, 9, 40, 0
10, 14790, Note_on_c, 9, 54, 44
10, 14791, Note_on_c, 9, 54, 0
10, 14820, Note_on_c, 9, 82, 71
10, 14820, Note_on_c, 9, 54, 42
10, 14821, Note_on_c, 9, 54, 0
10, 14821, Note_on_c, 9, 82, 0
10, 14850, Note_on_c, 9, 40, 114
10, 14850, Note_on_c, 9, 70, 92
10, 14850, Note_on_c, 9, 54, 56
10, 14851, Note_on_c, 9, 54, 0
10, 14851, Note_on_c, 9, 70, 0
10, 14851, Note_on_c, 9, 40, 0
10, 14880, Note_on_c, 9, 35, 109
10, 14880, Note_on_c, 9, 70, 82
10, 14880, Note_on_c, 9, 54, 81
10, 14881, Note_on_c, 9, 54, 0
10, 14881, Note_on_c, 9, 70, 0
10, 14881, Note_on_c, 9, 35, 0
10, 14910, Note_on_c, 9, 54, 42
10, 14911, Note_on_c, 9, 54, 0
10, 14940, Note_on_c, 9, 82, 69
10, 14940, Note_on_c, 9, 54, 36
10, 14941, Note_on_c, 9, 54, 0
10, 14941, Note_on_c, 9, 82, 0
10, 14970, Note_on_c, 9, 70, 86
10, 14970, Note_on_c, 9, 54, 35
10, 14971, Note_on_c, 9, 54, 0
10, 14971, Note_on_c, 9, 70, 0
10, 14999, Note_on_c, 9, 55, 65
10, 15000, Note_on_c, 9, 55, 0
10, 15000, Note_on_c, 9, 40, 105
10, 15000, Note_on_c, 9, 70, 81
10, 15000, Note_on_c, 9, 54, 81
10, 15001, Note_on_c, 9, 54, 0
10, 15001, Note_on_c, 9, 70, 0
10, 15001, Note_on_c, 9, 40, 0
10, 15030, Note_on_c, 9, 54, 40
10, 15031, Note_on_c, 9, 54, 0
10, 15060, Note_on_c, 9, 82, 69
10, 15060, Note_on_c, 9, 54, 52
10, 15061, Note_on_c, 9, 54, 0
10, 15061, Note_on_c, 9, 82, 0
10, 15090, Note_on_c, 9, 70, 88
10, 15090, Note_on_c, 9, 54, 46
10, 15091, Note_on_c, 9, 54, 0
10, 15091, Note_on_c, 9, 70, 0
10, 15120, Note_on_c, 9, 35, 109
10, 15120, Note_on_c, 9, 70, 72
10, 15120, Note_on_c, 9, 54, 75
10, 15121, Note_on_c, 9, 54, 0
10, 15121, Note_on_c, 9, 70, 0
10, 15121, Note_on_c, 9, 35, 0
10, 15150, Note_on_c, 9, 54, 20
10, 15151, Note_on_c, 9, 54, 0
10, 15180, Note_on_c, 9, 82, 66
10, 15180, Note_on_c, 9, 54, 37
10, 15181, Note_on_c, 9, 54, 0
10, 15181, Note_on_c, 9, 82, 0
10, 15210, Note_on_c, 9, 70, 88
10, 15210, Note_on_c, 9, 54, 52
10, 15211, Note_on_c, 9, 54, 0
10, 15211, Note_on_c, 9, 70, 0
10, 15239, Note_on_c, 9, 55, 61
10, 15240, Note_on_c, 9, 55, 0
10, 15240, Note_on_c, 9, 40, 111
10, 15240, Note_on_c, 9, 70, 80
10, 15240, Note_on_c, 9, 54, 77
10, 15241, Note_on_c, 9, 54, 0
10, 15241, Note_on_c, 9, 70, 0
10, 15241, Note_on_c, 9, 40, 0
10, 15270, Note_on_c, 9, 54, 52
10, 15271, Note_on_c, 9, 54, 0
10, 15300, Note_on_c, 9, 82, 71
10, 15300, Note_on_c, 9, 54, 56
10, 15301, Note_on_c, 9, 54, 0
10, 15301, Note_on_c, 9, 82, 0
10, 15330, Note_on_c, 9, 70, 80
10, 15330, Note_on_c, 9, 54, 52
10, 15331, Note_on_c, 9, 54, 0
10, 15331, Note_on_c, 9, 70, 0
10, 15360, Note_on_c, 9, 35, 117
10, 15360, Note_on_c, 9, 70, 72
10, 15360, Note_on_c, 9, 54, 77
10, 15361, Note_on_c, 9, 54, 0
10, 15361, Note_on_c, 9, 70, 0
10, 15361, Note_on_c, 9, 35, 0
10, 15390, Note_on_c, 9, 54, 30
10, 15391, Note_on_c, 9, 54, 0
10, 15420, Note_on_c, 9, 82, 63
10, 15420, Note_on_c, 9, 54, 44
10, 15421, Note_on_c, 9, 54, 0
10, 15421, Note_on_c, 9, 82, 0
10, 15450, Note_on_c, 9, 70, 75
10, 15450, Note_on_c, 9, 54, 44
10, 15451, Note_on_c, 9, 54, 0
10, 15451, Note_on_c, 9, 70, 0
10, 15479, Note_on_c, 9, 55, 56
10, 15480, Note_on_c, 9, 55, 0
10, 15480, Note_on_c, 9, 40, 114
10, 15480, Note_on_c, 9, 70, 75
10, 15480, Note_on_c, 9, 54, 70
10, 15481, Note_on_c, 9, 54, 0
10, 15481, Note_on_c, 9, 70, 0
10, 15481, Note_on_c, 9, 40, 0
10, 15510, Note_on_c, 9, 54, 32
10, 15511, Note_on_c, 9, 54, 0
10, 15540, Note_on_c, 9, 82, 73
10, 15540, Note_on_c, 9, 54, 54
10, 15541, Note_on_c, 9, 54, 0
10, 15541, Note_on_c, 9, 82, 0
10, 15570, Note_on_c, 9, 40, 101
10, 15570, Note_on_c, 9, 70, 86
10, 15570, Note_on_c, 9, 54, 61
10, 15571, Note_on_c, 9, 54, 0
10, 15571, Note_on_c, 9, 70, 0
10, 15571, Note_on_c, 9, 40, 0
10, 15600, Note_on_c, 9, 35, 117
10, 15600, Note_on_c, 9, 70, 75
10, 15600, Note_on_c, 9, 54, 65
10, 15601, Note_on_c, 9, 54, 0
10, 15601, Note_on_c, 9, 70, 0
10, 15601, Note_on_c, 9, 35, 0
10, 15630, Note_on_c, 9, 54, 31
10, 15631, Note_on_c, 9, 54, 0
10, 15660, Note_on_c, 9, 35, 117
10, 15660, Note_on_c, 9, 54, 61
10, 15661, Note_on_c, 9, 54, 0
10, 15661, Note_on_c, 9, 35, 0
10, 15690, Note_on_c, 9, 54, 52
10, 15691, Note_on_c, 9, 54, 0
10, 15719, Note_on_c, 9, 55, 50
10, 15720, Note_on_c, 9, 55, 0
10, 15720, Note_on_c, 9, 40, 115
10, 15720, Note_on_c, 9, 54, 81
10, 15721, Note_on_c, 9, 54, 0
10, 15721, Note_on_c, 9, 40, 0
10, 15750, Note_on_c, 9, 54, 33
10, 15751, Note_on_c, 9, 54, 0
10, 15780, Note_on_c, 9, 54, 36
10, 15781, Note_on_c, 9, 54, 0
10, 15810, Note_on_c, 9, 35, 99
10, 15810, Note_on_c, 9, 54, 52
10, 15811, Note_on_c, 9, 54, 0
10, 15811, Note_on_c, 9, 35, 0
10, 15840, Note_on_c, 9, 52, 92
10, 15840, Note_on_c, 9, 35, 117
10, 15840, Note_on_c, 9, 70, 82
10, 15840, Note_on_c, 9, 54, 77
10, 15841, Note_on_c, 9, 54, 0
10, 15841, Note_on_c, 9, 52, 0
10, 15841, Note_on_c, 9, 35, 0
10, 15841, Note_on_c, 9, 70, 0
10, 15870, Note_on_c, 9, 54, 46
10, 15871, Note_on_c, 9, 54, 0
10, 15900, Note_on_c, 9, 82, 69
10, 15900, Note_on_c, 9, 54, 46
10, 15901, Note_on_c, 9, 54, 0
10, 15901, Note_on_c, 9, 82, 0
10, 15930, Note_on_c, 9, 70, 86
10, 15930, Note_on_c, 9, 54, 52
10, 15931, Note_on_c, 9, 54, 0
10, 15931, Note_on_c, 9, 70, 0
10, 15959, Note_on_c, 9, 55, 56
10, 15960, Note_on_c, 9, 55, 0
10, 15960, Note_on_c, 9, 40, 111
10, 15960, Note_on_c, 9, 70, 81
10, 15960, Note_on_c, 9, 54, 67
10, 15961, Note_on_c, 9, 54, 0
10, 15961, Note_on_c, 9, 70, 0
10, 15961, Note_on_c, 9, 40, 0
10, 15990, Note_on_c, 9, 54, 29
10, 15991, Note_on_c, 9, 54, 0
10, 16020, Note_on_c, 9, 82, 69
10, 16020, Note_on_c, 9, 54, 49
10, 16021, Note_on_c, 9, 54, 0
10, 16021, Note_on_c, 9, 82, 0
10, 16050, Note_on_c, 9, 70, 88
10, 16050, Note_on_c, 9, 54, 61
10, 16051, Note_on_c, 9, 54, 0
10, 16051, Note_on_c, 9, 70, 0
10, 16080, Note_on_c, 9, 35, 126
10, 16080, Note_on_c, 9, 70, 72
10, 16080, Note_on_c, 9, 54, 65
10, 16081, Note_on_c, 9, 54, 0
10, 16081, Note_on_c, 9, 70, 0
10, 16081, Note_on_c, 9, 35, 0
10, 16110, Note_on_c, 9, 54, 30
10, 16111, Note_on_c, 9, 54, 0
10, 16140, Note_on_c, 9, 82, 66
10, 16140, Note_on_c, 9, 54, 48
10, 16141, Note_on_c, 9, 54, 0
10, 16141, Note_on_c, 9, 82, 0
10, 16170, Note_on_c, 9, 70, 88
10, 16170, Note_on_c, 9, 54, 60
10, 16171, Note_on_c, 9, 54, 0
10, 16171, Note_on_c, 9, 70, 0
10, 16199, Note_on_c, 9, 55, 65
10, 16200, Note_on_c, 9, 55, 0
10, 16200, Note_on_c, 9, 40, 94
10, 16200, Note_on_c, 9, 70, 80
10, 16200, Note_on_c, 9, 54, 67
10, 16201, Note_on_c, 9, 54, 0
10, 16201, Note_on_c, 9, 70, 0
10, 16201, Note_on_c, 9, 40, 0
10, 16230, Note_on_c, 9, 54, 52
10, 16231, Note_on_c, 9, 54, 0
10, 16260, Note_on_c, 9, 82, 71
10, 16260, Note_on_c, 9, 54, 46
10, 16261, Note_on_c, 9, 54, 0
10, 16261, Note_on_c, 9, 82, 0
10, 16290, Note_on_c, 9, 70, 80
10, 16290, Note_on_c, 9, 54, 56
10, 16291, Note_on_c, 9, 54, 0
10, 16291, Note_on_c, 9, 70, 0
10, 16320, Note_on_c, 9, 35, 123
10, 16320, Note_on_c, 9, 70, 72
10, 16320, Note_on_c, 9, 54, 81
10, 16321, Note_on_c, 9, 54, 0
10, 16321, Note_on_c, 9, 70, 0
10, 16321, Note_on_c, 9, 35, 0
10, 16350, Note_on_c, 9, 54, 52
10, 16351, Note_on_c, 9, 54, 0
10, 16380, Note_on_c, 9, 82, 63
10, 16380, Note_on_c, 9, 54, 45
10, 16381, Note_on_c, 9, 54, 0
10, 16381, Note_on_c, 9, 82, 0
10, 16410, Note_on_c, 9, 70, 75
10, 16410, Note_on_c, 9, 54, 44
10, 16411, Note_on_c, 9, 54, 0
10, 16411, Note_on_c, 9, 70, 0
10, 16439, Note_on_c, 9, 55, 65
10, 16440, Note_on_c, 9, 55, 0
10, 16440, Note_on_c, 9, 40, 111
10, 16440, Note_on_c, 9, 70, 75
10, 16440, Note_on_c, 9, 54, 70
10, 16441, Note_on_c, 9, 54, 0
10, 16441, Note_on_c, 9, 70, 0
10, 16441, Note_on_c, 9, 40, 0
10, 16470, Note_on_c, 9, 54, 37
10, 16471, Note_on_c, 9, 54, 0
10, 16500, Note_on_c, 9, 82, 73
10, 16500, Note_on_c, 9, 54, 56
10, 16501, Note_on_c, 9, 54, 0
10, 16501, Note_on_c, 9, 82, 0
10, 16530, Note_on_c, 9, 70, 86
10, 16530, Note_on_c, 9, 54, 52
10, 16531, Note_on_c, 9, 54, 0
10, 16531, Note_on_c, 9, 70, 0
10, 16560, Note_on_c, 9, 35, 117
10, 16560, Note_on_c, 9, 70, 75
10, 16560, Note_on_c, 9, 54, 77
10, 16561, Note_on_c, 9, 54, 0
10, 16561, Note_on_c, 9, 70, 0
10, 16561, Note_on_c, 9, 35, 0
10, 16590, Note_on_c, 9, 54, 31
10, 16591, Note_on_c, 9, 54, 0
10, 16620, Note_on_c, 9, 82, 68
10, 16620, Note_on_c, 9, 54, 42
10, 16621, Note_on_c, 9, 54, 0
10, 16621, Note_on_c, 9, 82, 0
10, 16650, Note_on_c, 9, 70, 74
10, 16650, Note_on_c, 9, 54, 40
10, 16651, Note_on_c, 9, 54, 0
10, 16651, Note_on_c, 9, 70, 0
10, 16679, Note_on_c, 9, 55, 67
10, 16680, Note_on_c, 9, 55, 0
10, 16680, Note_on_c, 9, 40, 111
10, 16680, Note_on_c, 9, 70, 66
10, 16680, Note_on_c, 9, 54, 70
10, 16681, Note_on_c, 9, 54, 0
10, 16681, Note_on_c, 9, 70, 0
10, 16681, Note_on_c, 9, 40, 0
10, 16710, Note_on_c, 9, 54, 44
10, 16711, Note_on_c, 9, 54, 0
10, 16740, Note_on_c, 9, 82, 71
10, 16740, Note_on_c, 9, 54, 42
10, 16741, Note_on_c, 9, 54, 0
10, 16741, Note_on_c, 9, 82, 0
10, 16770, Note_on_c, 9, 40, 114
10, 16770, Note_on_c, 9, 70, 92
10, 16770, Note_on_c, 9, 54, 56
10, 16771, Note_on_c, 9, 54, 0
10, 16771, Note_on_c, 9, 70, 0
10, 16771, Note_on_c, 9, 40, 0
10, 16800, Note_on_c, 9, 70, 82
10, 16800, Note_on_c, 9, 54, 81
10, 16801, Note_on_c, 9, 54, 0
10, 16801, Note_on_c, 9, 70, 0
10, 16830, Note_on_c, 9, 54, 42
10, 16831, Note_on_c, 9, 54, 0
10, 16860, Note_on_c, 9, 82, 69
10, 16860, Note_on_c, 9, 54, 36
10, 16861, Note_on_c, 9, 54, 0
10, 16861, Note_on_c, 9, 82, 0
10, 16890, Note_on_c, 9, 70, 86
10, 16890, Note_on_c, 9, 54, 35
10, 16891, Note_on_c, 9, 54, 0
10, 16891, Note_on_c, 9, 70, 0
10, 16919, Note_on_c, 9, 55, 61
10, 16920, Note_on_c, 9, 55, 0
10, 16920, Note_on_c, 9, 70, 81
10, 16920, Note_on_c, 9, 54, 81
10, 16921, Note_on_c, 9, 54, 0
10, 16921, Note_on_c, 9, 70, 0
10, 16950, Note_on_c, 9, 54, 40
10, 16951, Note_on_c, 9, 54, 0
10, 16980, Note_on_c, 9, 82, 69
10, 16980, Note_on_c, 9, 54, 52
10, 16981, Note_on_c, 9, 54, 0
10, 16981, Note_on_c, 9, 82, 0
10, 17010, Note_on_c, 9, 70, 88
10, 17010, Note_on_c, 9, 54, 46
10, 17011, Note_on_c, 9, 54, 0
10, 17011, Note_on_c, 9, 70, 0
10, 17040, Note_on_c, 9, 35, 99
10, 17040, Note_on_c, 9, 70, 72
10, 17040, Note_on_c, 9, 54, 75
10, 17041, Note_on_c, 9, 54, 0
10, 17041, Note_on_c, 9, 70, 0
10, 17041, Note_on_c, 9, 35, 0
10, 17070, Note_on_c, 9, 54, 20
10, 17071, Note_on_c, 9, 54, 0
10, 17100, Note_on_c, 9, 82, 66
10, 17100, Note_on_c, 9, 54, 37
10, 17101, Note_on_c, 9, 54, 0
10, 17101, Note_on_c, 9, 82, 0
10, 17130, Note_on_c, 9, 70, 88
10, 17130, Note_on_c, 9, 54, 52
10, 17131, Note_on_c, 9, 54, 0
10, 17131, Note_on_c, 9, 70, 0
10, 17159, Note_on_c, 9, 55, 61
10, 17160, Note_on_c, 9, 55, 0
10, 17160, Note_on_c, 9, 40, 111
10, 17160, Note_on_c, 9, 70, 80
10, 17160, Note_on_c, 9, 54, 77
10, 17161, Note_on_c, 9, 54, 0
10, 17161, Note_on_c, 9, 70, 0
10, 17161, Note_on_c, 9, 40, 0
10, 17190, Note_on_c, 9, 54, 52
10, 17191, Note_on_c, 9, 54, 0
10, 17220, Note_on_c, 9, 82, 71
10, 17220, Note_on_c, 9, 54, 56
10, 17221, Note_on_c, 9, 54, 0
10, 17221, Note_on_c, 9, 82, 0
10, 17250, Note_on_c, 9, 70, 80
10, 17250, Note_on_c, 9, 54, 52
10, 17251, Note_on_c, 9, 54, 0
10, 17251, Note_on_c, 9, 70, 0
10, 17280, Note_on_c, 9, 35, 117
10, 17280, Note_on_c, 9, 70, 72
10, 17280, Note_on_c, 9, 54, 77
10, 17281, Note_on_c, 9, 54, 0
10, 17281, Note_on_c, 9, 70, 0
10, 17281, Note_on_c, 9, 35, 0
10, 17310, Note_on_c, 9, 54, 30
10, 17311, Note_on_c, 9, 54, 0
10, 17340, Note_on_c, 9, 82, 63
10, 17340, Note_on_c, 9, 54, 44
10, 17341, Note_on_c, 9, 54, 0
10, 17341, Note_on_c, 9, 82, 0
10, 17370, Note_on_c, 9, 70, 75
10, 17370, Note_on_c, 9, 54, 44
10, 17371, Note_on_c, 9, 54, 0
10, 17371, Note_on_c, 9, 70, 0
10, 17399, Note_on_c, 9, 55, 67
10, 17400, Note_on_c, 9, 55, 0
10, 17400, Note_on_c, 9, 40, 114
10, 17400, Note_on_c, 9, 70, 75
10, 17400, Note_on_c, 9, 54, 70
10, 17401, Note_on_c, 9, 54, 0
10, 17401, Note_on_c, 9, 70, 0
10, 17401, Note_on_c, 9, 40, 0
10, 17430, Note_on_c, 9, 54, 32
10, 17431, Note_on_c, 9, 54, 0
10, 17460, Note_on_c, 9, 82, 73
10, 17460, Note_on_c, 9, 54, 54
10, 17461, Note_on_c, 9, 54, 0
10, 17461, Note_on_c, 9, 82, 0
10, 17490, Note_on_c, 9, 40, 101
10, 17490, Note_on_c, 9, 70, 86
10, 17490, Note_on_c, 9, 54, 61
10, 17491, Note_on_c, 9, 54, 0
10, 17491, Note_on_c, 9, 70, 0
10, 17491, Note_on_c, 9, 40, 0
10, 17520, Note_on_c, 9, 35, 117
10, 17520, Note_on_c, 9, 70, 75
10, 17520, Note_on_c, 9, 54, 65
10, 17521, Note_on_c, 9, 54, 0
10, 17521, Note_on_c, 9, 70, 0
10, 17521, Note_on_c, 9, 35, 0
10, 17550, Note_on_c, 9, 54, 31
10, 17551, Note_on_c, 9, 54, 0
10, 17580, Note_on_c, 9, 35, 117
10, 17580, Note_on_c, 9, 82, 68
10, 17580, Note_on_c, 9, 54, 61
10, 17581, Note_on_c, 9, 54, 0
10, 17581, Note_on_c, 9, 82, 0
10, 17581, Note_on_c, 9, 35, 0
10, 17610, Note_on_c, 9, 70, 74
10, 17610, Note_on_c, 9, 54, 52
10, 17611, Note_on_c, 9, 54, 0
10, 17611, Note_on_c, 9, 70, 0
10, 17640, Note_on_c, 9, 57, 95
10, 17640, Note_on_c, 9, 40, 115
10, 17640, Note_on_c, 9, 70, 66
10, 17640, Note_on_c, 9, 54, 81
10, 17641, Note_on_c, 9, 54, 0
10, 17641, Note_on_c, 9, 57, 0
10, 17641, Note_on_c, 9, 40, 0
10, 17641, Note_on_c, 9, 70, 0
10, 17670, Note_on_c, 9, 54, 33
10, 17671, Note_on_c, 9, 54, 0
10, 17700, Note_on_c, 9, 82, 71
10, 17700, Note_on_c, 9, 54, 36
10, 17701, Note_on_c, 9, 54, 0
10, 17701, Note_on_c, 9, 82, 0
10, 17730, Note_on_c, 9, 70, 92
10, 17730, Note_on_c, 9, 54, 52
10, 17731, Note_on_c, 9, 54, 0
10, 17731, Note_on_c, 9, 70, 0
10, 17760, Note_on_c, 9, 35, 117
10, 17760, Note_on_c, 9, 70, 82
10, 17760, Note_on_c, 9, 54, 77
10, 17761, Note_on_c, 9, 54, 0
10, 17761, Note_on_c, 9, 70, 0
10, 17761, Note_on_c, 9, 35, 0
10, 17790, Note_on_c, 9, 54, 46
10, 17791, Note_on_c, 9, 54, 0
10, 17820, Note_on_c, 9, 82, 69
10, 17820, Note_on_c, 9, 54, 46
10, 17821, Note_on_c, 9, 54, 0
10, 17821, Note_on_c, 9, 82, 0
10, 17850, Note_on_c, 9, 70, 86
10, 17850, Note_on_c, 9, 54, 52
10, 17851, Note_on_c, 9, 54, 0
10, 17851, Note_on_c, 9, 70, 0
10, 17879, Note_on_c, 9, 55, 54
10, 17880, Note_on_c, 9, 55, 0
10, 17880, Note_on_c, 9, 40, 111
10, 17880, Note_on_c, 9, 70, 81
10, 17880, Note_on_c, 9, 54, 67
10, 17881, Note_on_c, 9, 54, 0
10, 17881, Note_on_c, 9, 70, 0
10, 17881, Note_on_c, 9, 40, 0
10, 17910, Note_on_c, 9, 54, 29
10, 17911, Note_on_c, 9, 54, 0
10, 17940, Note_on_c, 9, 82, 69
10, 17940, Note_on_c, 9, 54, 49
10, 17941, Note_on_c, 9, 54, 0
10, 17941, Note_on_c, 9, 82, 0
10, 17970, Note_on_c, 9, 70, 88
10, 17970, Note_on_c, 9, 54, 61
10, 17971, Note_on_c, 9, 54, 0
10, 17971, Note_on_c, 9, 70, 0
10, 18000, Note_on_c, 9, 35, 126
10, 18000, Note_on_c, 9, 70, 72
10, 18000, Note_on_c, 9, 54, 65
10, 18001, Note_on_c, 9, 54, 0
10, 18001, Note_on_c, 9, 70, 0
10, 18001, Note_on_c, 9, 35, 0
10, 18030, Note_on_c, 9, 54, 30
10, 18031, Note_on_c, 9, 54, 0
10, 18060, Note_on_c, 9, 82, 66
10, 18060, Note_on_c, 9, 54, 48
10, 18061, Note_on_c, 9, 54, 0
10, 18061, Note_on_c, 9, 82, 0
10, 18090, Note_on_c, 9, 70, 88
10, 18090, Note_on_c, 9, 54, 60
10, 18091, Note_on_c, 9, 54, 0
10, 18091, Note_on_c, 9, 70, 0
10, 18119, Note_on_c, 9, 55, 50
10, 18120, Note_on_c, 9, 55, 0
10, 18120, Note_on_c, 9, 40, 94
10, 18120, Note_on_c, 9, 70, 80
10, 18120, Note_on_c, 9, 54, 67
10, 18121, Note_on_c, 9, 54, 0
10, 18121, Note_on_c, 9, 70, 0
10, 18121, Note_on_c, 9, 40, 0
10, 18150, Note_on_c, 9, 54, 52
10, 18151, Note_on_c, 9, 54, 0
10, 18180, Note_on_c, 9, 82, 71
10, 18180, Note_on_c, 9, 54, 46
10, 18181, Note_on_c, 9, 54, 0
10, 18181, Note_on_c, 9, 82, 0
10, 18210, Note_on_c, 9, 70, 80
10, 18210, Note_on_c, 9, 54, 56
10, 18211, Note_on_c, 9, 54, 0
10, 18211, Note_on_c, 9, 70, 0
10, 18240, Note_on_c, 9, 35, 123
10, 18240, Note_on_c, 9, 70, 72
10, 18240, Note_on_c, 9, 54, 81
10, 18241, Note_on_c, 9, 54, 0
10, 18241, Note_on_c, 9, 70, 0
10, 18241, Note_on_c, 9, 35, 0
10, 18270, Note_on_c, 9, 54, 52
10, 18271, Note_on_c, 9, 54, 0
10, 18300, Note_on_c, 9, 82, 63
10, 18300, Note_on_c, 9, 54, 45
10, 18301, Note_on_c, 9, 54, 0
10, 18301, Note_on_c, 9, 82, 0
10, 18330, Note_on_c, 9, 70, 75
10, 18330, Note_on_c, 9, 54, 44
10, 18331, Note_on_c, 9, 54, 0
10, 18331, Note_on_c, 9, 70, 0
10, 18359, Note_on_c, 9, 55, 65
10, 18360, Note_on_c, 9, 55, 0
10, 18360, Note_on_c, 9, 40, 111
10, 18360, Note_on_c, 9, 70, 75
10, 18360, Note_on_c, 9, 54, 70
10, 18361, Note_on_c, 9, 54, 0
10, 18361, Note_on_c, 9, 70, 0
10, 18361, Note_on_c, 9, 40, 0
10, 18390, Note_on_c, 9, 54, 37
10, 18391, Note_on_c, 9, 54, 0
10, 18420, Note_on_c, 9, 82, 73
10, 18420, Note_on_c, 9, 54, 56
10, 18421, Note_on_c, 9, 54, 0
10, 18421, Note_on_c, 9, 82, 0
10, 18450, Note_on_c, 9, 70, 86
10, 18450, Note_on_c, 9, 54, 52
10, 18451, Note_on_c, 9, 54, 0
10, 18451, Note_on_c, 9, 70, 0
10, 18480, Note_on_c, 9, 35, 117
10, 18480, Note_on_c, 9, 70, 75
10, 18480, Note_on_c, 9, 54, 77
10, 18481, Note_on_c, 9, 54, 0
10, 18481, Note_on_c, 9, 70, 0
10, 18481, Note_on_c, 9, 35, 0
10, 18510, Note_on_c, 9, 54, 31
10, 18511, Note_on_c, 9, 54, 0
10, 18540, Note_on_c, 9, 82, 68
10, 18540, Note_on_c, 9, 54, 42
10, 18541, Note_on_c, 9, 54, 0
10, 18541, Note_on_c, 9, 82, 0
10, 18570, Note_on_c, 9, 70, 74
10, 18570, Note_on_c, 9, 54, 40
10, 18571, Note_on_c, 9, 54, 0
10, 18571, Note_on_c, 9, 70, 0
10, 18599, Note_on_c, 9, 55, 63
10, 18600, Note_on_c, 9, 55, 0
10, 18600, Note_on_c, 9, 40, 111
10, 18600, Note_on_c, 9, 70, 66
10, 18600, Note_on_c, 9, 54, 70
10, 18601, Note_on_c, 9, 54, 0
10, 18601, Note_on_c, 9, 70, 0
10, 18601, Note_on_c, 9, 40, 0
10, 18630, Note_on_c, 9, 54, 44
10, 18631, Note_on_c, 9, 54, 0
10, 18660, Note_on_c, 9, 82, 71
10, 18660, Note_on_c, 9, 54, 42
10, 18661, Note_on_c, 9, 54, 0
10, 18661, Note_on_c, 9, 82, 0
10, 18690, Note_on_c, 9, 40, 114
10, 18690, Note_on_c, 9, 70, 92
10, 18690, Note_on_c, 9, 54, 56
10, 18691, Note_on_c, 9, 54, 0
10, 18691, Note_on_c, 9, 70, 0
10, 18691, Note_on_c, 9, 40, 0
10, 18720, Note_on_c, 9, 35, 109
10, 18720, Note_on_c, 9, 70, 82
10, 18720, Note_on_c, 9, 54, 81
10, 18721, Note_on_c, 9, 54, 0
10, 18721, Note_on_c, 9, 70, 0
10, 18721, Note_on_c, 9, 35, 0
10, 18750, Note_on_c, 9, 54, 42
10, 18751, Note_on_c, 9, 54, 0
10, 18780, Note_on_c, 9, 82, 69
10, 18780, Note_on_c, 9, 54, 36
10, 18781, Note_on_c, 9, 54, 0
10, 18781, Note_on_c, 9, 82, 0
10, 18810, Note_on_c, 9, 70, 86
10, 18810, Note_on_c, 9, 54, 35
10, 18811, Note_on_c, 9, 54, 0
10, 18811, Note_on_c, 9, 70, 0
10, 18839, Note_on_c, 9, 55, 65
10, 18840, Note_on_c, 9, 55, 0
10, 18840, Note_on_c, 9, 40, 105
10, 18840, Note_on_c, 9, 70, 81
10, 18840, Note_on_c, 9, 54, 81
10, 18841, Note_on_c, 9, 54, 0
10, 18841, Note_on_c, 9, 70, 0
10, 18841, Note_on_c, 9, 40, 0
10, 18870, Note_on_c, 9, 54, 40
10, 18871, Note_on_c, 9, 54, 0
10, 18900, Note_on_c, 9, 82, 69
10, 18900, Note_on_c, 9, 54, 52
10, 18901, Note_on_c, 9, 54, 0
10, 18901, Note_on_c, 9, 82, 0
10, 18930, Note_on_c, 9, 70, 88
10, 18930, Note_on_c, 9, 54, 46
10, 18931, Note_on_c, 9, 54, 0
10, 18931, Note_on_c, 9, 70, 0
10, 18960, Note_on_c, 9, 35, 109
10, 18960, Note_on_c, 9, 70, 72
10, 18960, Note_on_c, 9, 54, 75
10, 18961, Note_on_c, 9, 54, 0
10, 18961, Note_on_c, 9, 70, 0
10, 18961, Note_on_c, 9, 35, 0
10, 18990, Note_on_c, 9, 54, 20
10, 18991, Note_on_c, 9, 54, 0
10, 19020, Note_on_c, 9, 82, 66
10, 19020, Note_on_c, 9, 54, 37
10, 19021, Note_on_c, 9, 54, 0
10, 19021, Note_on_c, 9, 82, 0
10, 19050, Note_on_c, 9, 70, 88
10, 19050, Note_on_c, 9, 54, 52
10, 19051, Note_on_c, 9, 54, 0
10, 19051, Note_on_c, 9, 70, 0
10, 19079, Note_on_c, 9, 55, 61
10, 19080, Note_on_c, 9, 55, 0
10, 19080, Note_on_c, 9, 40, 111
10, 19080, Note_on_c, 9, 70, 80
10, 19080, Note_on_c, 9, 54, 77
10, 19081, Note_on_c, 9, 54, 0
10, 19081, Note_on_c, 9, 70, 0
10, 19081, Note_on_c, 9, 40, 0
10, 19110, Note_on_c, 9, 54, 52
10, 19111, Note_on_c, 9, 54, 0
10, 19140, Note_on_c, 9, 82, 71
10, 19140, Note_on_c, 9, 54, 56
10, 19141, Note_on_c, 9, 54, 0
10, 19141, Note_on_c, 9, 82, 0
10, 19170, Note_on_c, 9, 70, 80
10, 19170, Note_on_c, 9, 54, 52
10, 19171, Note_on_c, 9, 54, 0
10, 19171, Note_on_c, 9, 70, 0
10, 19200, Note_on_c, 9, 35, 117
10, 19200, Note_on_c, 9, 70, 72
10, 19200, Note_on_c, 9, 54, 77
10, 19201, Note_on_c, 9, 54, 0
10, 19201, Note_on_c, 9, 70, 0
10, 19201, Note_on_c, 9, 35, 0
10, 19230, Note_on_c, 9, 54, 30
10, 19231, Note_on_c, 9, 54, 0
10, 19260, Note_on_c, 9, 82, 63
10, 19260, Note_on_c, 9, 54, 44
10, 19261, Note_on_c, 9, 54, 0
10, 19261, Note_on_c, 9, 82, 0
10, 19290, Note_on_c, 9, 70, 75
10, 19290, Note_on_c, 9, 54, 44
10, 19291, Note_on_c, 9, 54, 0
10, 19291, Note_on_c, 9, 70, 0
10, 19319, Note_on_c, 9, 55, 56
10, 19320, Note_on_c, 9, 55, 0
10, 19320, Note_on_c, 9, 40, 114
10, 19320, Note_on_c, 9, 70, 75
10, 19320, Note_on_c, 9, 54, 70
10, 19321, Note_on_c, 9, 54, 0
10, 19321, Note_on_c, 9, 70, 0
10, 19321, Note_on_c, 9, 40, 0
10, 19350, Note_on_c, 9, 54, 32
10, 19351, Note_on_c, 9, 54, 0
10, 19380, Note_on_c, 9, 82, 73
10, 19380, Note_on_c, 9, 54, 54
10, 19381, Note_on_c, 9, 54, 0
10, 19381, Note_on_c, 9, 82, 0
10, 19410, Note_on_c, 9, 40, 101
10, 19410, Note_on_c, 9, 70, 86
10, 19410, Note_on_c, 9, 54, 61
10, 19411, Note_on_c, 9, 54, 0
10, 19411, Note_on_c, 9, 70, 0
10, 19411, Note_on_c, 9, 40, 0
10, 19440, Note_on_c, 9, 35, 117
10, 19440, Note_on_c, 9, 70, 75
10, 19440, Note_on_c, 9, 54, 65
10, 19441, Note_on_c, 9, 54, 0
10, 19441, Note_on_c, 9, 70, 0
10, 19441, Note_on_c, 9, 35, 0
10, 19470, Note_on_c, 9, 54, 31
10, 19471, Note_on_c, 9, 54, 0
10, 19500, Note_on_c, 9, 35, 117
10, 19500, Note_on_c, 9, 82, 68
10, 19500, Note_on_c, 9, 54, 61
10, 19501, Note_on_c, 9, 54, 0
10, 19501, Note_on_c, 9, 82, 0
10, 19501, Note_on_c, 9, 35, 0
10, 19530, Note_on_c, 9, 70, 74
10, 19530, Note_on_c, 9, 54, 52
10, 19531, Note_on_c, 9, 54, 0
10, 19531, Note_on_c, 9, 70, 0
10, 19559, Note_on_c, 9, 55, 50
10, 19560, Note_on_c, 9, 55, 0
10, 19560, Note_on_c, 9, 40, 115
10, 19560, Note_on_c, 9, 70, 66
10, 19560, Note_on_c, 9, 54, 81
10, 19561, Note_on_c, 9, 54, 0
10, 19561, Note_on_c, 9, 70, 0
10, 19561, Note_on_c, 9, 40, 0
10, 19590, Note_on_c, 9, 54, 33
10, 19591, Note_on_c, 9, 54, 0
10, 19620, Note_on_c, 9, 82, 71
10, 19620, Note_on_c, 9, 54, 36
10, 19621, Note_on_c, 9, 54, 0
10, 19621, Note_on_c, 9, 82, 0
10, 19650, Note_on_c, 9, 70, 92
10, 19650, Note_on_c, 9, 54, 52
10, 19651, Note_on_c, 9, 54, 0
10, 19651, Note_on_c, 9, 70, 0
10, 19680, Note_on_c, 9, 35, 117
10, 19680, Note_on_c, 9, 70, 82
10, 19680, Note_on_c, 9, 54, 77
10, 19681, Note_on_c, 9, 54, 0
10, 19681, Note_on_c, 9, 70, 0
10, 19681, Note_on_c, 9, 35, 0
10, 19710, Note_on_c, 9, 54, 46
10, 19711, Note_on_c, 9, 54, 0
10, 19740, Note_on_c, 9, 82, 69
10, 19740, Note_on_c, 9, 54, 46
10, 19741, Note_on_c, 9, 54, 0
10, 19741, Note_on_c, 9, 82, 0
10, 19770, Note_on_c, 9, 70, 86
10, 19770, Note_on_c, 9, 54, 52
10, 19771, Note_on_c, 9, 54, 0
10, 19771, Note_on_c, 9, 70, 0
10, 19799, Note_on_c, 9, 55, 56
10, 19800, Note_on_c, 9, 55, 0
10, 19800, Note_on_c, 9, 40, 111
10, 19800, Note_on_c, 9, 70, 81
10, 19800, Note_on_c, 9, 54, 67
10, 19801, Note_on_c, 9, 54, 0
10, 19801, Note_on_c, 9, 70, 0
10, 19801, Note_on_c, 9, 40, 0
10, 19830, Note_on_c, 9, 54, 29
10, 19831, Note_on_c, 9, 54, 0
10, 19860, Note_on_c, 9, 82, 69
10, 19860, Note_on_c, 9, 54, 49
10, 19861, Note_on_c, 9, 54, 0
10, 19861, Note_on_c, 9, 82, 0
10, 19890, Note_on_c, 9, 70, 88
10, 19890, Note_on_c, 9, 54, 61
10, 19891, Note_on_c, 9, 54, 0
10, 19891, Note_on_c, 9, 70, 0
10, 19920, Note_on_c, 9, 35, 126
10, 19920, Note_on_c, 9, 70, 72
10, 19920, Note_on_c, 9, 54, 65
10, 19921, Note_on_c, 9, 54, 0
10, 19921, Note_on_c, 9, 70, 0
10, 19921, Note_on_c, 9, 35, 0
10, 19950, Note_on_c, 9, 54, 30
10, 19951, Note_on_c, 9, 54, 0
10, 19980, Note_on_c, 9, 82, 66
10, 19980, Note_on_c, 9, 54, 48
10, 19981, Note_on_c, 9, 54, 0
10, 19981, Note_on_c, 9, 82, 0
10, 20010, Note_on_c, 9, 70, 88
10, 20010, Note_on_c, 9, 54, 60
10, 20011, Note_on_c, 9, 54, 0
10, 20011, Note_on_c, 9, 70, 0
10, 20039, Note_on_c, 9, 55, 63
10, 20040, Note_on_c, 9, 55, 0
10, 20040, Note_on_c, 9, 40, 94
10, 20040, Note_on_c, 9, 70, 80
10, 20040, Note_on_c, 9, 54, 67
10, 20041, Note_on_c, 9, 54, 0
10, 20041, Note_on_c, 9, 70, 0
10, 20041, Note_on_c, 9, 40, 0
10, 20070, Note_on_c, 9, 54, 52
10, 20071, Note_on_c, 9, 54, 0
10, 20100, Note_on_c, 9, 82, 71
10, 20100, Note_on_c, 9, 54, 46
10, 20101, Note_on_c, 9, 54, 0
10, 20101, Note_on_c, 9, 82, 0
10, 20130, Note_on_c, 9, 70, 80
10, 20130, Note_on_c, 9, 54, 56
10, 20131, Note_on_c, 9, 54, 0
10, 20131, Note_on_c, 9, 70, 0
10, 20160, Note_on_c, 9, 35, 123
10, 20160, Note_on_c, 9, 70, 72
10, 20160, Note_on_c, 9, 54, 81
10, 20161, Note_on_c, 9, 54, 0
10, 20161, Note_on_c, 9, 70, 0
10, 20161, Note_on_c, 9, 35, 0
10, 20190, Note_on_c, 9, 54, 52
10, 20191, Note_on_c, 9, 54, 0
10, 20220, Note_on_c, 9, 82, 63
10, 20220, Note_on_c, 9, 54, 45
10, 20221, Note_on_c, 9, 54, 0
10, 20221, Note_on_c, 9, 82, 0
10, 20250, Note_on_c, 9, 70, 75
10, 20250, Note_on_c, 9, 54, 44
10, 20251, Note_on_c, 9, 54, 0
10, 20251, Note_on_c, 9, 70, 0
10, 20279, Note_on_c, 9, 55, 63
10, 20280, Note_on_c, 9, 55, 0
10, 20280, Note_on_c, 9, 40, 111
10, 20280, Note_on_c, 9, 70, 75
10, 20280, Note_on_c, 9, 54, 70
10, 20281, Note_on_c, 9, 54, 0
10, 20281, Note_on_c, 9, 70, 0
10, 20281, Note_on_c, 9, 40, 0
10, 20310, Note_on_c, 9, 54, 37
10, 20311, Note_on_c, 9, 54, 0
10, 20340, Note_on_c, 9, 82, 73
10, 20340, Note_on_c, 9, 54, 56
10, 20341, Note_on_c, 9, 54, 0
10, 20341, Note_on_c, 9, 82, 0
10, 20370, Note_on_c, 9, 70, 86
10, 20370, Note_on_c, 9, 54, 52
10, 20371, Note_on_c, 9, 54, 0
10, 20371, Note_on_c, 9, 70, 0
10, 20400, Note_on_c, 9, 35, 117
10, 20400, Note_on_c, 9, 70, 75
10, 20400, Note_on_c, 9, 54, 77
10, 20401, Note_on_c, 9, 54, 0
10, 20401, Note_on_c, 9, 70, 0
10, 20401, Note_on_c, 9, 35, 0
10, 20430, Note_on_c, 9, 54, 31
10, 20431, Note_on_c, 9, 54, 0
10, 20460, Note_on_c, 9, 82, 68
10, 20460, Note_on_c, 9, 54, 42
10, 20461, Note_on_c, 9, 54, 0
10, 20461, Note_on_c, 9, 82, 0
10, 20490, Note_on_c, 9, 70, 74
10, 20490, Note_on_c, 9, 54, 40
10, 20491, Note_on_c, 9, 54, 0
10, 20491, Note_on_c, 9, 70, 0
10, 20519, Note_on_c, 9, 55, 65
10, 20520, Note_on_c, 9, 55, 0
10, 20520, Note_on_c, 9, 40, 115
10, 20520, Note_on_c, 9, 70, 66
10, 20520, Note_on_c, 9, 54, 63
10, 20520, Note_on_c, 9, 54, 70
10, 20521, Note_on_c, 9, 54, 0
10, 20521, Note_on_c, 9, 40, 0
10, 20521, Note_on_c, 9, 70, 0
10, 20521, Note_on_c, 9, 54, 0
10, 20550, Note_on_c, 9, 40, 114
10, 20550, Note_on_c, 9, 54, 44
10, 20551, Note_on_c, 9, 54, 0
10, 20551, Note_on_c, 9, 40, 0
10, 20580, Note_on_c, 9, 82, 71
10, 20580, Note_on_c, 9, 54, 42
10, 20581, Note_on_c, 9, 54, 0
10, 20581, Note_on_c, 9, 82, 0
10, 20610, Note_on_c, 9, 57, 95
10, 20610, Note_on_c, 9, 40, 114
10, 20610, Note_on_c, 9, 70, 92
10, 20610, Note_on_c, 9, 54, 56
10, 20611, Note_on_c, 9, 54, 0
10, 20611, Note_on_c, 9, 57, 0
10, 20611, Note_on_c, 9, 40, 0
10, 20611, Note_on_c, 9, 70, 0
10, 20640, Note_on_c, 9, 52, 92
10, 20640, Note_on_c, 9, 35, 117
10, 20640, Note_on_c, 9, 70, 82
10, 20640, Note_on_c, 9, 54, 77
10, 20641, Note_on_c, 9, 54, 0
10, 20641, Note_on_c, 9, 52, 0
10, 20641, Note_on_c, 9, 35, 0
10, 20641, Note_on_c, 9, 70, 0
10, 20670, Note_on_c, 9, 54, 46
10, 20671, Note_on_c, 9, 54, 0
10, 20700, Note_on_c, 9, 82, 69
10, 20700, Note_on_c, 9, 54, 46
10, 20701, Note_on_c, 9, 54, 0
10, 20701, Note_on_c, 9, 82, 0
10, 20730, Note_on_c, 9, 70, 86
10, 20730, Note_on_c, 9, 54, 52
10, 20731, Note_on_c, 9, 54, 0
10, 20731, Note_on_c, 9, 70, 0
10, 20759, Note_on_c, 9, 55, 56
10, 20760, Note_on_c, 9, 55, 0
10, 20760, Note_on_c, 9, 40, 111
10, 20760, Note_on_c, 9, 70, 81
10, 20760, Note_on_c, 9, 54, 67
10, 20761, Note_on_c, 9, 54, 0
10, 20761, Note_on_c, 9, 70, 0
10, 20761, Note_on_c, 9, 40, 0
10, 20790, Note_on_c, 9, 54, 29
10, 20791, Note_on_c, 9, 54, 0
10, 20820, Note_on_c, 9, 82, 69
10, 20820, Note_on_c, 9, 54, 49
10, 20821, Note_on_c, 9, 54, 0
10, 20821, Note_on_c, 9, 82, 0
10, 20850, Note_on_c, 9, 70, 88
10, 20850, Note_on_c, 9, 54, 61
10, 20851, Note_on_c, 9, 54, 0
10, 20851, Note_on_c, 9, 70, 0
10, 20880, Note_on_c, 9, 35, 126
10, 20880, Note_on_c, 9, 70, 72
10, 20880, Note_on_c, 9, 54, 65
10, 20881, Note_on_c, 9, 54, 0
10, 20881, Note_on_c, 9, 70, 0
10, 20881, Note_on_c, 9, 35, 0
10, 20910, Note_on_c, 9, 54, 30
10, 20911, Note_on_c, 9, 54, 0
10, 20940, Note_on_c, 9, 82, 66
10, 20940, Note_on_c, 9, 54, 48
10, 20941, Note_on_c, 9, 54, 0
10, 20941, Note_on_c, 9, 82, 0
10, 20970, Note_on_c, 9, 70, 88
10, 20970, Note_on_c, 9, 54, 60
10, 20971, Note_on_c, 9, 54, 0
10, 20971, Note_on_c, 9, 70, 0
10, 20999, Note_on_c, 9, 55, 65
10, 21000, Note_on_c, 9, 55, 0
10, 21000, Note_on_c, 9, 40, 112
10, 21000, Note_on_c, 9, 70, 80
10, 21000, Note_on_c, 9, 54, 67
10, 21001, Note_on_c, 9, 54, 0
10, 21001, Note_on_c, 9, 70, 0
10, 21001, Note_on_c, 9, 40, 0
10, 21030, Note_on_c, 9, 54, 52
10, 21031, Note_on_c, 9, 54, 0
10, 21060, Note_on_c, 9, 82, 71
10, 21060, Note_on_c, 9, 54, 46
10, 21061, Note_on_c, 9, 54, 0
10, 21061, Note_on_c, 9, 82, 0
10, 21090, Note_on_c, 9, 70, 80
10, 21090, Note_on_c, 9, 54, 56
10, 21091, Note_on_c, 9, 54, 0
10, 21091, Note_on_c, 9, 70, 0
10, 21120, Note_on_c, 9, 35, 123
10, 21120, Note_on_c, 9, 70, 72
10, 21120, Note_on_c, 9, 54, 81
10, 21121, Note_on_c, 9, 54, 0
10, 21121, Note_on_c, 9, 70, 0
10, 21121, Note_on_c, 9, 35, 0
10, 21150, Note_on_c, 9, 54, 52
10, 21151, Note_on_c, 9, 54, 0
10, 21180, Note_on_c, 9, 82, 63
10, 21180, Note_on_c, 9, 54, 45
10, 21181, Note_on_c, 9, 54, 0
10, 21181, Note_on_c, 9, 82, 0
10, 21210, Note_on_c, 9, 70, 75
10, 21210, Note_on_c, 9, 54, 44
10, 21211, Note_on_c, 9, 54, 0
10, 21211, Note_on_c, 9, 70, 0
10, 21239, Note_on_c, 9, 55, 65
10, 21240, Note_on_c, 9, 55, 0
10, 21240, Note_on_c, 9, 40, 111
10, 21240, Note_on_c, 9, 70, 75
10, 21240, Note_on_c, 9, 54, 70
10, 21241, Note_on_c, 9, 54, 0
10, 21241, Note_on_c, 9, 70, 0
10, 21241, Note_on_c, 9, 40, 0
10, 21270, Note_on_c, 9, 54, 37
10, 21271, Note_on_c, 9, 54, 0
10, 21300, Note_on_c, 9, 82, 73
10, 21300, Note_on_c, 9, 54, 56
10, 21301, Note_on_c, 9, 54, 0
10, 21301, Note_on_c, 9, 82, 0
10, 21330, Note_on_c, 9, 40, 111
10, 21330, Note_on_c, 9, 70, 86
10, 21330, Note_on_c, 9, 54, 52
10, 21331, Note_on_c, 9, 54, 0
10, 21331, Note_on_c, 9, 70, 0
10, 21331, Note_on_c, 9, 40, 0
10, 21360, Note_on_c, 9, 35, 117
10, 21360, Note_on_c, 9, 70, 75
10, 21360, Note_on_c, 9, 54, 77
10, 21361, Note_on_c, 9, 54, 0
10, 21361, Note_on_c, 9, 70, 0
10, 21361, Note_on_c, 9, 35, 0
10, 21390, Note_on_c, 9, 54, 31
10, 21391, Note_on_c, 9, 54, 0
10, 21420, Note_on_c, 9, 35, 117
10, 21420, Note_on_c, 9, 82, 68
10, 21420, Note_on_c, 9, 54, 42
10, 21421, Note_on_c, 9, 54, 0
10, 21421, Note_on_c, 9, 82, 0
10, 21421, Note_on_c, 9, 35, 0
10, 21450, Note_on_c, 9, 70, 74
10, 21450, Note_on_c, 9, 54, 40
10, 21451, Note_on_c, 9, 54, 0
10, 21451, Note_on_c, 9, 70, 0
10, 21479, Note_on_c, 9, 55, 67
10, 21480, Note_on_c, 9, 55, 0
10, 21480, Note_on_c, 9, 40, 111
10, 21480, Note_on_c, 9, 70, 66
10, 21480, Note_on_c, 9, 54, 70
10, 21481, Note_on_c, 9, 54, 0
10, 21481, Note_on_c, 9, 70, 0
10, 21481, Note_on_c, 9, 40, 0
10, 21510, Note_on_c, 9, 54, 44
10, 21511, Note_on_c, 9, 54, 0
10, 21540, Note_on_c, 9, 82, 71
10, 21540, Note_on_c, 9, 54, 42
10, 21541, Note_on_c, 9, 54, 0
10, 21541, Note_on_c, 9, 82, 0
10, 21570, Note_on_c, 9, 70, 92
10, 21570, Note_on_c, 9, 54, 56
10, 21571, Note_on_c, 9, 54, 0
10, 21571, Note_on_c, 9, 70, 0
10, 21600, Note_on_c, 9, 35, 109
10, 21600, Note_on_c, 9, 70, 82
10, 21600, Note_on_c, 9, 54, 81
10, 21601, Note_on_c, 9, 54, 0
10, 21601, Note_on_c, 9, 70, 0
10, 21601, Note_on_c, 9, 35, 0
10, 21630, Note_on_c, 9, 54, 42
10, 21631, Note_on_c, 9, 54, 0
10, 21660, Note_on_c, 9, 82, 69
10, 21660, Note_on_c, 9, 54, 36
10, 21661, Note_on_c, 9, 54, 0
10, 21661, Note_on_c, 9, 82, 0
10, 21690, Note_on_c, 9, 70, 86
10, 21690, Note_on_c, 9, 54, 35
10, 21691, Note_on_c, 9, 54, 0
10, 21691, Note_on_c, 9, 70, 0
10, 21719, Note_on_c, 9, 55, 61
10, 21720, Note_on_c, 9, 55, 0
10, 21720, Note_on_c, 9, 40, 105
10, 21720, Note_on_c, 9, 70, 81
10, 21720, Note_on_c, 9, 54, 81
10, 21721, Note_on_c, 9, 54, 0
10, 21721, Note_on_c, 9, 70, 0
10, 21721, Note_on_c, 9, 40, 0
10, 21750, Note_on_c, 9, 54, 40
10, 21751, Note_on_c, 9, 54, 0
10, 21780, Note_on_c, 9, 82, 69
10, 21780, Note_on_c, 9, 54, 52
10, 21781, Note_on_c, 9, 54, 0
10, 21781, Note_on_c, 9, 82, 0
10, 21810, Note_on_c, 9, 70, 88
10, 21810, Note_on_c, 9, 54, 46
10, 21811, Note_on_c, 9, 54, 0
10, 21811, Note_on_c, 9, 70, 0
10, 21840, Note_on_c, 9, 35, 123
10, 21840, Note_on_c, 9, 70, 72
10, 21840, Note_on_c, 9, 54, 75
10, 21841, Note_on_c, 9, 54, 0
10, 21841, Note_on_c, 9, 70, 0
10, 21841, Note_on_c, 9, 35, 0
10, 21870, Note_on_c, 9, 54, 20
10, 21871, Note_on_c, 9, 54, 0
10, 21900, Note_on_c, 9, 82, 66
10, 21900, Note_on_c, 9, 54, 37
10, 21901, Note_on_c, 9, 54, 0
10, 21901, Note_on_c, 9, 82, 0
10, 21930, Note_on_c, 9, 70, 88
10, 21930, Note_on_c, 9, 54, 52
10, 21931, Note_on_c, 9, 54, 0
10, 21931, Note_on_c, 9, 70, 0
10, 21959, Note_on_c, 9, 55, 61
10, 21960, Note_on_c, 9, 55, 0
10, 21960, Note_on_c, 9, 40, 111
10, 21960, Note_on_c, 9, 70, 80
10, 21960, Note_on_c, 9, 54, 77
10, 21961, Note_on_c, 9, 54, 0
10, 21961, Note_on_c, 9, 70, 0
10, 21961, Note_on_c, 9, 40, 0
10, 21990, Note_on_c, 9, 54, 52
10, 21991, Note_on_c, 9, 54, 0
10, 22020, Note_on_c, 9, 82, 71
10, 22020, Note_on_c, 9, 54, 56
10, 22021, Note_on_c, 9, 54, 0
10, 22021, Note_on_c, 9, 82, 0
10, 22050, Note_on_c, 9, 70, 80
10, 22050, Note_on_c, 9, 54, 52
10, 22051, Note_on_c, 9, 54, 0
10, 22051, Note_on_c, 9, 70, 0
10, 22080, Note_on_c, 9, 35, 117
10, 22080, Note_on_c, 9, 70, 72
10, 22080, Note_on_c, 9, 54, 77
10, 22081, Note_on_c, 9, 54, 0
10, 22081, Note_on_c, 9, 70, 0
10, 22081, Note_on_c, 9, 35, 0
10, 22110, Note_on_c, 9, 54, 30
10, 22111, Note_on_c, 9, 54, 0
10, 22140, Note_on_c, 9, 82, 63
10, 22140, Note_on_c, 9, 54, 44
10, 22141, Note_on_c, 9, 54, 0
10, 22141, Note_on_c, 9, 82, 0
10, 22170, Note_on_c, 9, 70, 75
10, 22170, Note_on_c, 9, 54, 44
10, 22171, Note_on_c, 9, 54, 0
10, 22171, Note_on_c, 9, 70, 0
10, 22199, Note_on_c, 9, 55, 67
10, 22200, Note_on_c, 9, 55, 0
10, 22200, Note_on_c, 9, 40, 114
10, 22200, Note_on_c, 9, 70, 75
10, 22200, Note_on_c, 9, 54, 70
10, 22201, Note_on_c, 9, 54, 0
10, 22201, Note_on_c, 9, 70, 0
10, 22201, Note_on_c, 9, 40, 0
10, 22230, Note_on_c, 9, 54, 32
10, 22231, Note_on_c, 9, 54, 0
10, 22260, Note_on_c, 9, 82, 73
10, 22260, Note_on_c, 9, 54, 54
10, 22261, Note_on_c, 9, 54, 0
10, 22261, Note_on_c, 9, 82, 0
10, 22290, Note_on_c, 9, 70, 86
10, 22290, Note_on_c, 9, 54, 61
10, 22291, Note_on_c, 9, 54, 0
10, 22291, Note_on_c, 9, 70, 0
10, 22320, Note_on_c, 9, 35, 117
10, 22320, Note_on_c, 9, 70, 75
10, 22320, Note_on_c, 9, 54, 65
10, 22321, Note_on_c, 9, 54, 0
10, 22321, Note_on_c, 9, 70, 0
10, 22321, Note_on_c, 9, 35, 0
10, 22350, Note_on_c, 9, 54, 31
10, 22351, Note_on_c, 9, 54, 0
10, 22380, Note_on_c, 9, 54, 61
10, 22381, Note_on_c, 9, 54, 0
10, 22410, Note_on_c, 9, 54, 52
10, 22411, Note_on_c, 9, 54, 0
10, 22439, Note_on_c, 9, 55, 65
10, 22440, Note_on_c, 9, 55, 0
10, 22440, Note_on_c, 9, 40, 115
10, 22440, Note_on_c, 9, 54, 81
10, 22441, Note_on_c, 9, 54, 0
10, 22441, Note_on_c, 9, 40, 0
10, 22470, Note_on_c, 9, 54, 33
10, 22471, Note_on_c, 9, 54, 0
10, 22500, Note_on_c, 9, 40, 101
10, 22500, Note_on_c, 9, 54, 36
10, 22501, Note_on_c, 9, 54, 0
10, 22501, Note_on_c, 9, 40, 0
10, 22530, Note_on_c, 9, 40, 90
10, 22530, Note_on_c, 9, 54, 52
10, 22531, Note_on_c, 9, 54, 0
10, 22531, Note_on_c, 9, 40, 0
10, 22560, Note_on_c, 9, 35, 117
10, 22560, Note_on_c, 9, 70, 82
10, 22560, Note_on_c, 9, 54, 77
10, 22561, Note_on_c, 9, 54, 0
10, 22561, Note_on_c, 9, 70, 0
10, 22561, Note_on_c, 9, 35, 0
10, 22590, Note_on_c, 9, 54, 46
10, 22591, Note_on_c, 9, 54, 0
10, 22620, Note_on_c, 9, 82, 69
10, 22620, Note_on_c, 9, 54, 46
10, 22621, Note_on_c, 9, 54, 0
10, 22621, Note_on_c, 9, 82, 0
10, 22650, Note_on_c, 9, 70, 86
10, 22650, Note_on_c, 9, 54, 52
10, 22651, Note_on_c, 9, 54, 0
10, 22651, Note_on_c, 9, 70, 0
10, 22679, Note_on_c, 9, 55, 54
10, 22680, Note_on_c, 9, 55, 0
10, 22680, Note_on_c, 9, 40, 111
10, 22680, Note_on_c, 9, 70, 81
10, 22680, Note_on_c, 9, 54, 67
10, 22681, Note_on_c, 9, 54, 0
10, 22681, Note_on_c, 9, 70, 0
10, 22681, Note_on_c, 9, 40, 0
10, 22710, Note_on_c, 9, 54, 29
10, 22711, Note_on_c, 9, 54, 0
10, 22740, Note_on_c, 9, 82, 69
10, 22740, Note_on_c, 9, 54, 49
10, 22741, Note_on_c, 9, 54, 0
10, 22741, Note_on_c, 9, 82, 0
10, 22770, Note_on_c, 9, 70, 88
10, 22770, Note_on_c, 9, 54, 61
10, 22771, Note_on_c, 9, 54, 0
10, 22771, Note_on_c, 9, 70, 0
10, 22800, Note_on_c, 9, 35, 126
10, 22800, Note_on_c, 9, 70, 72
10, 22800, Note_on_c, 9, 54, 65
10, 22801, Note_on_c, 9, 54, 0
10, 22801, Note_on_c, 9, 70, 0
10, 22801, Note_on_c, 9, 35, 0
10, 22830, Note_on_c, 9, 54, 30
10, 22831, Note_on_c, 9, 54, 0
10, 22860, Note_on_c, 9, 82, 66
10, 22860, Note_on_c, 9, 54, 48
10, 22861, Note_on_c, 9, 54, 0
10, 22861, Note_on_c, 9, 82, 0
10, 22890, Note_on_c, 9, 70, 88
10, 22890, Note_on_c, 9, 54, 60
10, 22891, Note_on_c, 9, 54, 0
10, 22891, Note_on_c, 9, 70, 0
10, 22919, Note_on_c, 9, 55, 50
10, 22920, Note_on_c, 9, 55, 0
10, 22920, Note_on_c, 9, 40, 112
10, 22920, Note_on_c, 9, 70, 80
10, 22920, Note_on_c, 9, 54, 67
10, 22921, Note_on_c, 9, 54, 0
10, 22921, Note_on_c, 9, 70, 0
10, 22921, Note_on_c, 9, 40, 0
10, 22950, Note_on_c, 9, 54, 52
10, 22951, Note_on_c, 9, 54, 0
10, 22980, Note_on_c, 9, 82, 71
10, 22980, Note_on_c, 9, 54, 46
10, 22981, Note_on_c, 9, 54, 0
10, 22981, Note_on_c, 9, 82, 0
10, 23010, Note_on_c, 9, 70, 80
10, 23010, Note_on_c, 9, 54, 56
10, 23011, Note_on_c, 9, 54, 0
10, 23011, Note_on_c, 9, 70, 0
10, 23040, Note_on_c, 9, 35, 123
10, 23040, Note_on_c, 9, 70, 72
10, 23040, Note_on_c, 9, 54, 81
10, 23041, Note_on_c, 9, 54, 0
10, 23041, Note_on_c, 9, 70, 0
10, 23041, Note_on_c, 9, 35, 0
10, 23070, Note_on_c, 9, 54, 52
10, 23071, Note_on_c, 9, 54, 0
10, 23100, Note_on_c, 9, 82, 63
10, 23100, Note_on_c, 9, 54, 45
10, 23101, Note_on_c, 9, 54, 0
10, 23101, Note_on_c, 9, 82, 0
10, 23130, Note_on_c, 9, 70, 75
10, 23130, Note_on_c, 9, 54, 44
10, 23131, Note_on_c, 9, 54, 0
10, 23131, Note_on_c, 9, 70, 0
10, 23159, Note_on_c, 9, 55, 65
10, 23160, Note_on_c, 9, 55, 0
10, 23160, Note_on_c, 9, 40, 111
10, 23160, Note_on_c, 9, 70, 75
10, 23160, Note_on_c, 9, 54, 70
10, 23161, Note_on_c, 9, 54, 0
10, 23161, Note_on_c, 9, 70, 0
10, 23161, Note_on_c, 9, 40, 0
10, 23190, Note_on_c, 9, 54, 37
10, 23191, Note_on_c, 9, 54, 0
10, 23220, Note_on_c, 9, 82, 73
10, 23220, Note_on_c, 9, 54, 56
10, 23221, Note_on_c, 9, 54, 0
10, 23221, Note_on_c, 9, 82, 0
10, 23250, Note_on_c, 9, 40, 111
10, 23250, Note_on_c, 9, 70, 86
10, 23250, Note_on_c, 9, 54, 52
10, 23251, Note_on_c, 9, 54, 0
10, 23251, Note_on_c, 9, 70, 0
10, 23251, Note_on_c, 9, 40, 0
10, 23280, Note_on_c, 9, 35, 117
10, 23280, Note_on_c, 9, 70, 75
10, 23280, Note_on_c, 9, 54, 77
10, 23281, Note_on_c, 9, 54, 0
10, 23281, Note_on_c, 9, 70, 0
10, 23281, Note_on_c, 9, 35, 0
10, 23310, Note_on_c, 9, 54, 31
10, 23311, Note_on_c, 9, 54, 0
10, 23340, Note_on_c, 9, 35, 117
10, 23340, Note_on_c, 9, 82, 68
10, 23340, Note_on_c, 9, 54, 42
10, 23341, Note_on_c, 9, 54, 0
10, 23341, Note_on_c, 9, 82, 0
10, 23341, Note_on_c, 9, 35, 0
10, 23370, Note_on_c, 9, 70, 74
10, 23370, Note_on_c, 9, 54, 40
10, 23371, Note_on_c, 9, 54, 0
10, 23371, Note_on_c, 9, 70, 0
10, 23399, Note_on_c, 9, 55, 63
10, 23400, Note_on_c, 9, 55, 0
10, 23400, Note_on_c, 9, 40, 111
10, 23400, Note_on_c, 9, 70, 66
10, 23400, Note_on_c, 9, 54, 70
10, 23401, Note_on_c, 9, 54, 0
10, 23401, Note_on_c, 9, 70, 0
10, 23401, Note_on_c, 9, 40, 0
10, 23430, Note_on_c, 9, 54, 44
10, 23431, Note_on_c, 9, 54, 0
10, 23460, Note_on_c, 9, 82, 71
10, 23460, Note_on_c, 9, 54, 42
10, 23461, Note_on_c, 9, 54, 0
10, 23461, Note_on_c, 9, 82, 0
10, 23490, Note_on_c, 9, 70, 92
10, 23490, Note_on_c, 9, 54, 56
10, 23491, Note_on_c, 9, 54, 0
10, 23491, Note_on_c, 9, 70, 0
10, 23520, Note_on_c, 9, 57, 85
10, 23520, Note_on_c, 9, 35, 109
10, 23520, Note_on_c, 9, 70, 82
10, 23520, Note_on_c, 9, 54, 81
10, 23521, Note_on_c, 9, 54, 0
10, 23521, Note_on_c, 9, 57, 0
10, 23521, Note_on_c, 9, 35, 0
10, 23521, Note_on_c, 9, 70, 0
10, 23550, Note_on_c, 9, 54, 42
10, 23551, Note_on_c, 9, 54, 0
10, 23580, Note_on_c, 9, 82, 69
10, 23580, Note_on_c, 9, 54, 36
10, 23581, Note_on_c, 9, 54, 0
10, 23581, Note_on_c, 9, 82, 0
10, 23610, Note_on_c, 9, 70, 86
10, 23610, Note_on_c, 9, 54, 35
10, 23611, Note_on_c, 9, 54, 0
10, 23611, Note_on_c, 9, 70, 0
10, 23640, Note_on_c, 9, 40, 105
10, 23640, Note_on_c, 9, 70, 81
10, 23640, Note_on_c, 9, 54, 81
10, 23641, Note_on_c, 9, 54, 0
10, 23641, Note_on_c, 9, 70, 0
10, 23641, Note_on_c, 9, 40, 0
10, 23670, Note_on_c, 9, 54, 40
10, 23671, Note_on_c, 9, 54, 0
10, 23700, Note_on_c, 9, 82, 69
10, 23700, Note_on_c, 9, 54, 52
10, 23701, Note_on_c, 9, 54, 0
10, 23701, Note_on_c, 9, 82, 0
10, 23730, Note_on_c, 9, 70, 88
10, 23730, Note_on_c, 9, 54, 46
10, 23731, Note_on_c, 9, 54, 0
10, 23731, Note_on_c, 9, 70, 0
10, 23760, Note_on_c, 9, 57, 85
10, 23760, Note_on_c, 9, 35, 123
10, 23760, Note_on_c, 9, 70, 72
10, 23760, Note_on_c, 9, 54, 75
10, 23761, Note_on_c, 9, 54, 0
10, 23761, Note_on_c, 9, 57, 0
10, 23761, Note_on_c, 9, 35, 0
10, 23761, Note_on_c, 9, 70, 0
10, 23790, Note_on_c, 9, 54, 20
10, 23791, Note_on_c, 9, 54, 0
10, 23820, Note_on_c, 9, 82, 66
10, 23820, Note_on_c, 9, 54, 37
10, 23821, Note_on_c, 9, 54, 0
10, 23821, Note_on_c, 9, 82, 0
10, 23850, Note_on_c, 9, 70, 88
10, 23850, Note_on_c, 9, 54, 52
10, 23851, Note_on_c, 9, 54, 0
10, 23851, Note_on_c, 9, 70, 0
10, 23880, Note_on_c, 9, 57, 81
10, 23880, Note_on_c, 9, 40, 111
10, 23880, Note_on_c, 9, 70, 80
10, 23880, Note_on_c, 9, 54, 77
10, 23881, Note_on_c, 9, 54, 0
10, 23881, Note_on_c, 9, 57, 0
10, 23881, Note_on_c, 9, 40, 0
10, 23881, Note_on_c, 9, 70, 0
10, 23910, Note_on_c, 9, 54, 52
10, 23911, Note_on_c, 9, 54, 0
10, 23940, Note_on_c, 9, 82, 71
10, 23940, Note_on_c, 9, 54, 56
10, 23941, Note_on_c, 9, 54, 0
10, 23941, Note_on_c, 9, 82, 0
10, 23970, Note_on_c, 9, 40, 111
10, 23970, Note_on_c, 9, 70, 80
10, 23970, Note_on_c, 9, 54, 52
10, 23971, Note_on_c, 9, 54, 0
10, 23971, Note_on_c, 9, 70, 0
10, 23971, Note_on_c, 9, 40, 0
10, 24000, Note_on_c, 9, 52, 86
10, 24000, Note_on_c, 9, 35, 117
10, 24000, Note_on_c, 9, 70, 72
10, 24000, Note_on_c, 9, 54, 77
10, 24001, Note_on_c, 9, 54, 0
10, 24001, Note_on_c, 9, 52, 0
10, 24001, Note_on_c, 9, 35, 0
10, 24001, Note_on_c, 9, 70, 0
10, 24030, Note_on_c, 9, 54, 30
10, 24031, Note_on_c, 9, 54, 0
10, 24060, Note_on_c, 9, 82, 63
10, 24060, Note_on_c, 9, 54, 44
10, 24061, Note_on_c, 9, 54, 0
10, 24061, Note_on_c, 9, 82, 0
10, 24090, Note_on_c, 9, 70, 75
10, 24090, Note_on_c, 9, 54, 44
10, 24091, Note_on_c, 9, 54, 0
10, 24091, Note_on_c, 9, 70, 0
10, 24120, Note_on_c, 9, 40, 114
10, 24120, Note_on_c, 9, 70, 75
10, 24120, Note_on_c, 9, 54, 70
10, 24121, Note_on_c, 9, 54, 0
10, 24121, Note_on_c, 9, 70, 0
10, 24121, Note_on_c, 9, 40, 0
10, 24150, Note_on_c, 9, 54, 32
10, 24151, Note_on_c, 9, 54, 0
10, 24180, Note_on_c, 9, 82, 73
10, 24180, Note_on_c, 9, 54, 54
10, 24181, Note_on_c, 9, 54, 0
10, 24181, Note_on_c, 9, 82, 0
10, 24210, Note_on_c, 9, 70, 86
10, 24210, Note_on_c, 9, 54, 61
10, 24211, Note_on_c, 9, 54, 0
10, 24211, Note_on_c, 9, 70, 0
10, 24240, Note_on_c, 9, 35, 117
10, 24240, Note_on_c, 9, 70, 75
10, 24240, Note_on_c, 9, 54, 65
10, 24241, Note_on_c, 9, 54, 0
10, 24241, Note_on_c, 9, 70, 0
10, 24241, Note_on_c, 9, 35, 0
10, 24270, Note_on_c, 9, 54, 31
10, 24271, Note_on_c, 9, 54, 0
10, 24300, Note_on_c, 9, 54, 61
10, 24301, Note_on_c, 9, 54, 0
10, 24330, Note_on_c, 9, 54, 52
10, 24331, Note_on_c, 9, 54, 0
10, 24360, Note_on_c, 9, 40, 115
10, 24360, Note_on_c, 9, 54, 81
10, 24361, Note_on_c, 9, 54, 0
10, 24361, Note_on_c, 9, 40, 0
10, 24390, Note_on_c, 9, 54, 33
10, 24391, Note_on_c, 9, 54, 0
10, 24420, Note_on_c, 9, 54, 36
10, 24421, Note_on_c, 9, 54, 0
10, 24450, Note_on_c, 9, 54, 52
10, 24451, Note_on_c, 9, 54, 0
10, 24480, Note_on_c, 9, 52, 92
10, 24480, Note_on_c, 9, 35, 117
10, 24480, Note_on_c, 9, 70, 82
10, 24480, Note_on_c, 9, 54, 77
10, 24481, Note_on_c, 9, 54, 0
10, 24481, Note_on_c, 9, 52, 0
10, 24481, Note_on_c, 9, 35, 0
10, 24481, Note_on_c, 9, 70, 0
10, 24510, Note_on_c, 9, 54, 46
10, 24511, Note_on_c, 9, 54, 0
10, 24540, Note_on_c, 9, 82, 69
10, 24540, Note_on_c, 9, 54, 46
10, 24541, Note_on_c, 9, 54, 0
10, 24541, Note_on_c, 9, 82, 0
10, 24570, Note_on_c, 9, 70, 86
10, 24570, Note_on_c, 9, 54, 52
10, 24571, Note_on_c, 9, 54, 0
10, 24571, Note_on_c, 9, 70, 0
10, 24599, Note_on_c, 9, 55, 45
10, 24600, Note_on_c, 9, 55, 0
10, 24600, Note_on_c, 9, 40, 111
10, 24600, Note_on_c, 9, 70, 81
10, 24600, Note_on_c, 9, 54, 67
10, 24601, Note_on_c, 9, 54, 0
10, 24601, Note_on_c, 9, 70, 0
10, 24601, Note_on_c, 9, 40, 0
10, 24630, Note_on_c, 9, 54, 29
10, 24631, Note_on_c, 9, 54, 0
10, 24660, Note_on_c, 9, 82, 69
10, 24660, Note_on_c, 9, 54, 49
10, 24661, Note_on_c, 9, 54, 0
10, 24661, Note_on_c, 9, 82, 0
10, 24690, Note_on_c, 9, 70, 88
10, 24690, Note_on_c, 9, 54, 61
10, 24691, Note_on_c, 9, 54, 0
10, 24691, Note_on_c, 9, 70, 0
10, 24720, Note_on_c, 9, 35, 126
10, 24720, Note_on_c, 9, 70, 72
10, 24720, Note_on_c, 9, 54, 65
10, 24721, Note_on_c, 9, 54, 0
10, 24721, Note_on_c, 9, 70, 0
10, 24721, Note_on_c, 9, 35, 0
10, 24750, Note_on_c, 9, 54, 30
10, 24751, Note_on_c, 9, 54, 0
10, 24780, Note_on_c, 9, 82, 66
10, 24780, Note_on_c, 9, 54, 48
10, 24781, Note_on_c, 9, 54, 0
10, 24781, Note_on_c, 9, 82, 0
10, 24810, Note_on_c, 9, 70, 88
10, 24810, Note_on_c, 9, 54, 60
10, 24811, Note_on_c, 9, 54, 0
10, 24811, Note_on_c, 9, 70, 0
10, 24839, Note_on_c, 9, 55, 44
10, 24840, Note_on_c, 9, 55, 0
10, 24840, Note_on_c, 9, 40, 112
10, 24840, Note_on_c, 9, 70, 80
10, 24840, Note_on_c, 9, 54, 67
10, 24841, Note_on_c, 9, 54, 0
10, 24841, Note_on_c, 9, 70, 0
10, 24841, Note_on_c, 9, 40, 0
10, 24870, Note_on_c, 9, 54, 52
10, 24871, Note_on_c, 9, 54, 0
10, 24900, Note_on_c, 9, 82, 71
10, 24900, Note_on_c, 9, 54, 46
10, 24901, Note_on_c, 9, 54, 0
10, 24901, Note_on_c, 9, 82, 0
10, 24930, Note_on_c, 9, 70, 80
10, 24930, Note_on_c, 9, 54, 56
10, 24931, Note_on_c, 9, 54, 0
10, 24931, Note_on_c, 9, 70, 0
10, 24960, Note_on_c, 9, 35, 123
10, 24960, Note_on_c, 9, 70, 72
10, 24960, Note_on_c, 9, 54, 81
10, 24961, Note_on_c, 9, 54, 0
10, 24961, Note_on_c, 9, 70, 0
10, 24961, Note_on_c, 9, 35, 0
10, 24990, Note_on_c, 9, 54, 52
10, 24991, Note_on_c, 9, 54, 0
10, 25020, Note_on_c, 9, 82, 63
10, 25020, Note_on_c, 9, 54, 45
10, 25021, Note_on_c, 9, 54, 0
10, 25021, Note_on_c, 9, 82, 0
10, 25050, Note_on_c, 9, 70, 75
10, 25050, Note_on_c, 9, 54, 44
10, 25051, Note_on_c, 9, 54, 0
10, 25051, Note_on_c, 9, 70, 0
10, 25079, Note_on_c, 9, 55, 36
10, 25080, Note_on_c, 9, 55, 0
10, 25080, Note_on_c, 9, 40, 111
10, 25080, Note_on_c, 9, 70, 75
10, 25080, Note_on_c, 9, 54, 70
10, 25081, Note_on_c, 9, 54, 0
10, 25081, Note_on_c, 9, 70, 0
10, 25081, Note_on_c, 9, 40, 0
10, 25110, Note_on_c, 9, 54, 37
10, 25111, Note_on_c, 9, 54, 0
10, 25140, Note_on_c, 9, 82, 73
10, 25140, Note_on_c, 9, 54, 56
10, 25141, Note_on_c, 9, 54, 0
10, 25141, Note_on_c, 9, 82, 0
10, 25170, Note_on_c, 9, 40, 111
10, 25170, Note_on_c, 9, 70, 86
10, 25170, Note_on_c, 9, 54, 52
10, 25171, Note_on_c, 9, 54, 0
10, 25171, Note_on_c, 9, 70, 0
10, 25171, Note_on_c, 9, 40, 0
10, 25200, Note_on_c, 9, 35, 117
10, 25200, Note_on_c, 9, 70, 75
10, 25200, Note_on_c, 9, 54, 77
10, 25201, Note_on_c, 9, 54, 0
10, 25201, Note_on_c, 9, 70, 0
10, 25201, Note_on_c, 9, 35, 0
10, 25230, Note_on_c, 9, 54, 31
10, 25231, Note_on_c, 9, 54, 0
10, 25260, Note_on_c, 9, 35, 117
10, 25260, Note_on_c, 9, 82, 68
10, 25260, Note_on_c, 9, 54, 42
10, 25261, Note_on_c, 9, 54, 0
10, 25261, Note_on_c, 9, 82, 0
10, 25261, Note_on_c, 9, 35, 0
10, 25290, Note_on_c, 9, 70, 74
10, 25290, Note_on_c, 9, 54, 40
10, 25291, Note_on_c, 9, 54, 0
10, 25291, Note_on_c, 9, 70, 0
10, 25319, Note_on_c, 9, 55, 42
10, 25320, Note_on_c, 9, 55, 0
10, 25320, Note_on_c, 9, 40, 111
10, 25320, Note_on_c, 9, 70, 66
10, 25320, Note_on_c, 9, 54, 70
10, 25321, Note_on_c, 9, 54, 0
10, 25321, Note_on_c, 9, 70, 0
10, 25321, Note_on_c, 9, 40, 0
10, 25350, Note_on_c, 9, 54, 44
10, 25351, Note_on_c, 9, 54, 0
10, 25380, Note_on_c, 9, 82, 71
10, 25380, Note_on_c, 9, 54, 42
10, 25381, Note_on_c, 9, 54, 0
10, 25381, Note_on_c, 9, 82, 0
10, 25410, Note_on_c, 9, 70, 92
10, 25410, Note_on_c, 9, 54, 56
10, 25411, Note_on_c, 9, 54, 0
10, 25411, Note_on_c, 9, 70, 0
10, 25440, Note_on_c, 9, 37, 105
10, 25440, Note_on_c, 9, 70, 82
10, 25441, Note_on_c, 9, 70, 0
10, 25441, Note_on_c, 9, 37, 0
10, 25500, Note_on_c, 9, 82, 69
10, 25501, Note_on_c, 9, 82, 0
10, 25530, Note_on_c, 9, 70, 86
10, 25531, Note_on_c, 9, 70, 0
10, 25560, Note_on_c, 9, 37, 111
10, 25560, Note_on_c, 9, 70, 81
10, 25561, Note_on_c, 9, 70, 0
10, 25561, Note_on_c, 9, 37, 0
10, 25620, Note_on_c, 9, 82, 69
10, 25621, Note_on_c, 9, 82, 0
10, 25650, Note_on_c, 9, 70, 88
10, 25651, Note_on_c, 9, 70, 0
10, 25680, Note_on_c, 9, 37, 100
10, 25680, Note_on_c, 9, 70, 72
10, 25681, Note_on_c, 9, 70, 0
10, 25681, Note_on_c, 9, 37, 0
10, 25740, Note_on_c, 9, 82, 66
10, 25741, Note_on_c, 9, 82, 0
10, 25770, Note_on_c, 9, 70, 88
10, 25771, Note_on_c, 9, 70, 0
10, 25800, Note_on_c, 9, 37, 97
10, 25800, Note_on_c, 9, 70, 80
10, 25801, Note_on_c, 9, 70, 0
10, 25801, Note_on_c, 9, 37, 0
10, 25860, Note_on_c, 9, 82, 71
10, 25861, Note_on_c, 9, 82, 0
10, 25890, Note_on_c, 9, 70, 80
10, 25891, Note_on_c, 9, 70, 0
10, 25920, Note_on_c, 9, 37, 106
10, 25920, Note_on_c, 9, 70, 72
10, 25921, Note_on_c, 9, 70, 0
10, 25921, Note_on_c, 9, 37, 0
10, 25980, Note_on_c, 9, 82, 63
10, 25981, Note_on_c, 9, 82, 0
10, 26010, Note_on_c, 9, 70, 75
10, 26011, Note_on_c, 9, 70, 0
10, 26040, Note_on_c, 9, 37, 106
10, 26040, Note_on_c, 9, 70, 75
10, 26041, Note_on_c, 9, 70, 0
10, 26041, Note_on_c, 9, 37, 0
10, 26100, Note_on_c, 9, 82, 73
10, 26101, Note_on_c, 9, 82, 0
10, 26130, Note_on_c, 9, 70, 86
10, 26131, Note_on_c, 9, 70, 0
10, 26160, Note_on_c, 9, 37, 111
10, 26160, Note_on_c, 9, 70, 75
10, 26161, Note_on_c, 9, 70, 0
10, 26161, Note_on_c, 9, 37, 0
10, 26220, Note_on_c, 9, 82, 68
10, 26221, Note_on_c, 9, 82, 0
10, 26250, Note_on_c, 9, 70, 74
10, 26251, Note_on_c, 9, 70, 0
10, 26280, Note_on_c, 9, 37, 111
10, 26280, Note_on_c, 9, 70, 66
10, 26281, Note_on_c, 9, 70, 0
10, 26281, Note_on_c, 9, 37, 0
10, 26340, Note_on_c, 9, 82, 71
10, 26341, Note_on_c, 9, 82, 0
10, 26370, Note_on_c, 9, 70, 92
10, 26371, Note_on_c, 9, 70, 0
10, 26400, Note_on_c, 9, 37, 105
10, 26400, Note_on_c, 9, 70, 82
10, 26401, Note_on_c, 9, 70, 0
10, 26401, Note_on_c, 9, 37, 0
10, 26460, Note_on_c, 9, 82, 69
10, 26461, Note_on_c, 9, 82, 0
10, 26490, Note_on_c, 9, 70, 86
10, 26491, Note_on_c, 9, 70, 0
10, 26520, Note_on_c, 9, 37, 111
10, 26520, Note_on_c, 9, 70, 81
10, 26521, Note_on_c, 9, 70, 0
10, 26521, Note_on_c, 9, 37, 0
10, 26580, Note_on_c, 9, 82, 69
10, 26581, Note_on_c, 9, 82, 0
10, 26610, Note_on_c, 9, 70, 88
10, 26611, Note_on_c, 9, 70, 0
10, 26640, Note_on_c, 9, 37, 100
10, 26640, Note_on_c, 9, 70, 72
10, 26641, Note_on_c, 9, 70, 0
10, 26641, Note_on_c, 9, 37, 0
10, 26700, Note_on_c, 9, 82, 66
10, 26701, Note_on_c, 9, 82, 0
10, 26730, Note_on_c, 9, 70, 88
10, 26731, Note_on_c, 9, 70, 0
10, 26760, Note_on_c, 9, 37, 97
10, 26760, Note_on_c, 9, 70, 80
10, 26761, Note_on_c, 9, 70, 0
10, 26761, Note_on_c, 9, 37, 0
10, 26820, Note_on_c, 9, 82, 71
10, 26821, Note_on_c, 9, 82, 0
10, 26850, Note_on_c, 9, 70, 80
10, 26851, Note_on_c, 9, 70, 0
10, 26880, Note_on_c, 9, 37, 106
10, 26880, Note_on_c, 9, 70, 72
10, 26881, Note_on_c, 9, 70, 0
10, 26881, Note_on_c, 9, 37, 0
10, 26940, Note_on_c, 9, 82, 63
10, 26941, Note_on_c, 9, 82, 0
10, 26970, Note_on_c, 9, 70, 75
10, 26971, Note_on_c, 9, 70, 0
10, 27000, Note_on_c, 9, 37, 106
10, 27000, Note_on_c, 9, 70, 75
10, 27001, Note_on_c, 9, 70, 0
10, 27001, Note_on_c, 9, 37, 0
10, 27060, Note_on_c, 9, 82, 73
10, 27061, Note_on_c, 9, 82, 0
10, 27090, Note_on_c, 9, 70, 86
10, 27091, Note_on_c, 9, 70, 0
10, 27120, Note_on_c, 9, 35, 117
10, 27120, Note_on_c, 9, 40, 105
10, 27120, Note_on_c, 9, 70, 75
10, 27121, Note_on_c, 9, 70, 0
10, 27121, Note_on_c, 9, 40, 0
10, 27121, Note_on_c, 9, 35, 0
10, 27360, Note_on_c, 9, 52, 92
10, 27360, Note_on_c, 9, 35, 117
10, 27360, Note_on_c, 9, 70, 82
10, 27360, Note_on_c, 9, 54, 77
10, 27361, Note_on_c, 9, 54, 0
10, 27361, Note_on_c, 9, 52, 0
10, 27361, Note_on_c, 9, 35, 0
10, 27361, Note_on_c, 9, 70, 0
10, 27390, Note_on_c, 9, 54, 46
10, 27391, Note_on_c, 9, 54, 0
10, 27420, Note_on_c, 9, 82, 69
10, 27420, Note_on_c, 9, 54, 46
10, 27421, Note_on_c, 9, 54, 0
10, 27421, Note_on_c, 9, 82, 0
10, 27450, Note_on_c, 9, 70, 86
10, 27450, Note_on_c, 9, 54, 52
10, 27451, Note_on_c, 9, 54, 0
10, 27451, Note_on_c, 9, 70, 0
10, 27479, Note_on_c, 9, 55, 56
10, 27480, Note_on_c, 9, 55, 0
10, 27480, Note_on_c, 9, 40, 111
10, 27480, Note_on_c, 9, 70, 81
10, 27480, Note_on_c, 9, 54, 67
10, 27481, Note_on_c, 9, 54, 0
10, 27481, Note_on_c, 9, 70, 0
10, 27481, Note_on_c, 9, 40, 0
10, 27510, Note_on_c, 9, 54, 29
10, 27511, Note_on_c, 9, 54, 0
10, 27540, Note_on_c, 9, 82, 69
10, 27540, Note_on_c, 9, 54, 49
10, 27541, Note_on_c, 9, 54, 0
10, 27541, Note_on_c, 9, 82, 0
10, 27570, Note_on_c, 9, 70, 88
10, 27570, Note_on_c, 9, 54, 61
10, 27571, Note_on_c, 9, 54, 0
10, 27571, Note_on_c, 9, 70, 0
10, 27600, Note_on_c, 9, 35, 126
10, 27600, Note_on_c, 9, 70, 72
10, 27600, Note_on_c, 9, 54, 65
10, 27601, Note_on_c, 9, 54, 0
10, 27601, Note_on_c, 9, 70, 0
10, 27601, Note_on_c, 9, 35, 0
10, 27630, Note_on_c, 9, 54, 30
10, 27631, Note_on_c, 9, 54, 0
10, 27660, Note_on_c, 9, 82, 66
10, 27660, Note_on_c, 9, 54, 48
10, 27661, Note_on_c, 9, 54, 0
10, 27661, Note_on_c, 9, 82, 0
10, 27690, Note_on_c, 9, 70, 88
10, 27690, Note_on_c, 9, 54, 60
10, 27691, Note_on_c, 9, 54, 0
10, 27691, Note_on_c, 9, 70, 0
10, 27719, Note_on_c, 9, 55, 65
10, 27720, Note_on_c, 9, 55, 0
10, 27720, Note_on_c, 9, 40, 108
10, 27720, Note_on_c, 9, 70, 80
10, 27720, Note_on_c, 9, 54, 67
10, 27721, Note_on_c, 9, 54, 0
10, 27721, Note_on_c, 9, 70, 0
10, 27721, Note_on_c, 9, 40, 0
10, 27750, Note_on_c, 9, 54, 52
10, 27751, Note_on_c, 9, 54, 0
10, 27780, Note_on_c, 9, 82, 71
10, 27780, Note_on_c, 9, 54, 46
10, 27781, Note_on_c, 9, 54, 0
10, 27781, Note_on_c, 9, 82, 0
10, 27810, Note_on_c, 9, 70, 80
10, 27810, Note_on_c, 9, 54, 56
10, 27811, Note_on_c, 9, 54, 0
10, 27811, Note_on_c, 9, 70, 0
10, 27840, Note_on_c, 9, 35, 123
10, 27840, Note_on_c, 9, 70, 72
10, 27840, Note_on_c, 9, 54, 81
10, 27841, Note_on_c, 9, 54, 0
10, 27841, Note_on_c, 9, 70, 0
10, 27841, Note_on_c, 9, 35, 0
10, 27841, Note_on_c, 9, 127, 1
10, 27841, Note_on_c, 9, 127, 0
10, 27870, Note_on_c, 9, 54, 52
10, 27871, Note_on_c, 9, 54, 0
10, 27900, Note_on_c, 9, 82, 63
10, 27900, Note_on_c, 9, 54, 45
10, 27901, Note_on_c, 9, 54, 0
10, 27901, Note_on_c, 9, 82, 0
10, 27930, Note_on_c, 9, 70, 75
10, 27930, Note_on_c, 9, 54, 44
10, 27931, Note_on_c, 9, 54, 0
10, 27931, Note_on_c, 9, 70, 0
10, 27959, Note_on_c, 9, 55, 65
10, 27960, Note_on_c, 9, 55, 0
10, 27960, Note_on_c, 9, 40, 111
10, 27960, Note_on_c, 9, 70, 75
10, 27960, Note_on_c, 9, 54, 70
10, 27961, Note_on_c, 9, 54, 0
10, 27961, Note_on_c, 9, 70, 0
10, 27961, Note_on_c, 9, 40, 0
10, 27990, Note_on_c, 9, 54, 37
10, 27991, Note_on_c, 9, 54, 0
10, 28020, Note_on_c, 9, 82, 73
10, 28020, Note_on_c, 9, 54, 56
10, 28021, Note_on_c, 9, 54, 0
10, 28021, Note_on_c, 9, 82, 0
10, 28050, Note_on_c, 9, 70, 86
10, 28050, Note_on_c, 9, 54, 52
10, 28051, Note_on_c, 9, 54, 0
10, 28051, Note_on_c, 9, 70, 0
10, 28080, Note_on_c, 9, 35, 117
10, 28080, Note_on_c, 9, 70, 75
10, 28080, Note_on_c, 9, 54, 77
10, 28081, Note_on_c, 9, 54, 0
10, 28081, Note_on_c, 9, 70, 0
10, 28081, Note_on_c, 9, 35, 0
10, 28110, Note_on_c, 9, 54, 31
10, 28111, Note_on_c, 9, 54, 0
10, 28140, Note_on_c, 9, 82, 68
10, 28140, Note_on_c, 9, 54, 42
10, 28141, Note_on_c, 9, 54, 0
10, 28141, Note_on_c, 9, 82, 0
10, 28170, Note_on_c, 9, 70, 74
10, 28170, Note_on_c, 9, 54, 40
10, 28171, Note_on_c, 9, 54, 0
10, 28171, Note_on_c, 9, 70, 0
10, 28199, Note_on_c, 9, 55, 67
10, 28200, Note_on_c, 9, 55, 0
10, 28200, Note_on_c, 9, 40, 111
10, 28200, Note_on_c, 9, 70, 66
10, 28200, Note_on_c, 9, 54, 70
10, 28201, Note_on_c, 9, 54, 0
10, 28201, Note_on_c, 9, 70, 0
10, 28201, Note_on_c, 9, 40, 0
10, 28230, Note_on_c, 9, 54, 44
10, 28231, Note_on_c, 9, 54, 0
10, 28260, Note_on_c, 9, 82, 71
10, 28260, Note_on_c, 9, 54, 42
10, 28261, Note_on_c, 9, 54, 0
10, 28261, Note_on_c, 9, 82, 0
10, 28290, Note_on_c, 9, 40, 114
10, 28290, Note_on_c, 9, 70, 92
10, 28290, Note_on_c, 9, 54, 56
10, 28291, Note_on_c, 9, 54, 0
10, 28291, Note_on_c, 9, 70, 0
10, 28291, Note_on_c, 9, 40, 0
10, 28320, Note_on_c, 9, 35, 118
10, 28320, Note_on_c, 9, 70, 82
10, 28320, Note_on_c, 9, 54, 81
10, 28321, Note_on_c, 9, 54, 0
10, 28321, Note_on_c, 9, 70, 0
10, 28321, Note_on_c, 9, 35, 0
10, 28350, Note_on_c, 9, 54, 42
10, 28351, Note_on_c, 9, 54, 0
10, 28380, Note_on_c, 9, 82, 69
10, 28380, Note_on_c, 9, 54, 36
10, 28381, Note_on_c, 9, 54, 0
10, 28381, Note_on_c, 9, 82, 0
10, 28410, Note_on_c, 9, 70, 86
10, 28410, Note_on_c, 9, 54, 35
10, 28411, Note_on_c, 9, 54, 0
10, 28411, Note_on_c, 9, 70, 0
10, 28439, Note_on_c, 9, 55, 61
10, 28440, Note_on_c, 9, 55, 0
10, 28440, Note_on_c, 9, 40, 105
10, 28440, Note_on_c, 9, 70, 81
10, 28440, Note_on_c, 9, 54, 81
10, 28441, Note_on_c, 9, 54, 0
10, 28441, Note_on_c, 9, 70, 0
10, 28441, Note_on_c, 9, 40, 0
10, 28470, Note_on_c, 9, 54, 40
10, 28471, Note_on_c, 9, 54, 0
10, 28500, Note_on_c, 9, 82, 69
10, 28500, Note_on_c, 9, 54, 52
10, 28501, Note_on_c, 9, 54, 0
10, 28501, Note_on_c, 9, 82, 0
10, 28530, Note_on_c, 9, 70, 88
10, 28530, Note_on_c, 9, 54, 46
10, 28531, Note_on_c, 9, 54, 0
10, 28531, Note_on_c, 9, 70, 0
10, 28560, Note_on_c, 9, 35, 113
10, 28560, Note_on_c, 9, 70, 72
10, 28560, Note_on_c, 9, 54, 75
10, 28561, Note_on_c, 9, 54, 0
10, 28561, Note_on_c, 9, 70, 0
10, 28561, Note_on_c, 9, 35, 0
10, 28590, Note_on_c, 9, 54, 20
10, 28591, Note_on_c, 9, 54, 0
10, 28620, Note_on_c, 9, 82, 66
10, 28620, Note_on_c, 9, 54, 37
10, 28621, Note_on_c, 9, 54, 0
10, 28621, Note_on_c, 9, 82, 0
10, 28650, Note_on_c, 9, 70, 88
10, 28650, Note_on_c, 9, 54, 52
10, 28651, Note_on_c, 9, 54, 0
10, 28651, Note_on_c, 9, 70, 0
10, 28679, Note_on_c, 9, 55, 61
10, 28680, Note_on_c, 9, 55, 0
10, 28680, Note_on_c, 9, 40, 111
10, 28680, Note_on_c, 9, 70, 80
10, 28680, Note_on_c, 9, 54, 77
10, 28681, Note_on_c, 9, 54, 0
10, 28681, Note_on_c, 9, 70, 0
10, 28681, Note_on_c, 9, 40, 0
10, 28710, Note_on_c, 9, 54, 52
10, 28711, Note_on_c, 9, 54, 0
10, 28740, Note_on_c, 9, 82, 71
10, 28740, Note_on_c, 9, 54, 56
10, 28741, Note_on_c, 9, 54, 0
10, 28741, Note_on_c, 9, 82, 0
10, 28770, Note_on_c, 9, 70, 80
10, 28770, Note_on_c, 9, 54, 52
10, 28771, Note_on_c, 9, 54, 0
10, 28771, Note_on_c, 9, 70, 0
10, 28800, Note_on_c, 9, 35, 117
10, 28800, Note_on_c, 9, 70, 72
10, 28800, Note_on_c, 9, 54, 77
10, 28801, Note_on_c, 9, 54, 0
10, 28801, Note_on_c, 9, 70, 0
10, 28801, Note_on_c, 9, 35, 0
10, 28830, Note_on_c, 9, 54, 30
10, 28831, Note_on_c, 9, 54, 0
10, 28860, Note_on_c, 9, 82, 63
10, 28860, Note_on_c, 9, 54, 44
10, 28861, Note_on_c, 9, 54, 0
10, 28861, Note_on_c, 9, 82, 0
10, 28890, Note_on_c, 9, 70, 75
10, 28890, Note_on_c, 9, 54, 44
10, 28891, Note_on_c, 9, 54, 0
10, 28891, Note_on_c, 9, 70, 0
10, 28919, Note_on_c, 9, 55, 67
10, 28920, Note_on_c, 9, 55, 0
10, 28920, Note_on_c, 9, 40, 114
10, 28920, Note_on_c, 9, 70, 75
10, 28920, Note_on_c, 9, 54, 70
10, 28921, Note_on_c, 9, 54, 0
10, 28921, Note_on_c, 9, 70, 0
10, 28921, Note_on_c, 9, 40, 0
10, 28950, Note_on_c, 9, 54, 32
10, 28951, Note_on_c, 9, 54, 0
10, 28980, Note_on_c, 9, 82, 73
10, 28980, Note_on_c, 9, 54, 54
10, 28981, Note_on_c, 9, 54, 0
10, 28981, Note_on_c, 9, 82, 0
10, 29010, Note_on_c, 9, 40, 101
10, 29010, Note_on_c, 9, 70, 86
10, 29010, Note_on_c, 9, 54, 61
10, 29011, Note_on_c, 9, 54, 0
10, 29011, Note_on_c, 9, 70, 0
10, 29011, Note_on_c, 9, 40, 0
10, 29040, Note_on_c, 9, 35, 117
10, 29040, Note_on_c, 9, 70, 75
10, 29040, Note_on_c, 9, 54, 65
10, 29041, Note_on_c, 9, 54, 0
10, 29041, Note_on_c, 9, 70, 0
10, 29041, Note_on_c, 9, 35, 0
10, 29070, Note_on_c, 9, 54, 31
10, 29071, Note_on_c, 9, 54, 0
10, 29100, Note_on_c, 9, 35, 117
10, 29100, Note_on_c, 9, 54, 61
10, 29101, Note_on_c, 9, 54, 0
10, 29101, Note_on_c, 9, 35, 0
10, 29130, Note_on_c, 9, 54, 52
10, 29131, Note_on_c, 9, 54, 0
10, 29159, Note_on_c, 9, 55, 65
10, 29160, Note_on_c, 9, 55, 0
10, 29160, Note_on_c, 9, 40, 115
10, 29160, Note_on_c, 9, 54, 81
10, 29161, Note_on_c, 9, 54, 0
10, 29161, Note_on_c, 9, 40, 0
10, 29190, Note_on_c, 9, 54, 33
10, 29191, Note_on_c, 9, 54, 0
10, 29220, Note_on_c, 9, 54, 36
10, 29221, Note_on_c, 9, 54, 0
10, 29250, Note_on_c, 9, 35, 117
10, 29250, Note_on_c, 9, 54, 52
10, 29251, Note_on_c, 9, 54, 0
10, 29251, Note_on_c, 9, 35, 0
10, 29280, Note_on_c, 9, 35, 117
10, 29280, Note_on_c, 9, 70, 82
10, 29280, Note_on_c, 9, 54, 77
10, 29281, Note_on_c, 9, 54, 0
10, 29281, Note_on_c, 9, 70, 0
10, 29281, Note_on_c, 9, 35, 0
10, 29310, Note_on_c, 9, 54, 46
10, 29311, Note_on_c, 9, 54, 0
10, 29340, Note_on_c, 9, 82, 69
10, 29340, Note_on_c, 9, 54, 46
10, 29341, Note_on_c, 9, 54, 0
10, 29341, Note_on_c, 9, 82, 0
10, 29370, Note_on_c, 9, 70, 86
10, 29370, Note_on_c, 9, 54, 52
10, 29371, Note_on_c, 9, 54, 0
10, 29371, Note_on_c, 9, 70, 0
10, 29399, Note_on_c, 9, 55, 54
10, 29400, Note_on_c, 9, 55, 0
10, 29400, Note_on_c, 9, 40, 111
10, 29400, Note_on_c, 9, 70, 81
10, 29400, Note_on_c, 9, 54, 67
10, 29401, Note_on_c, 9, 54, 0
10, 29401, Note_on_c, 9, 70, 0
10, 29401, Note_on_c, 9, 40, 0
10, 29430, Note_on_c, 9, 54, 29
10, 29431, Note_on_c, 9, 54, 0
10, 29460, Note_on_c, 9, 82, 69
10, 29460, Note_on_c, 9, 54, 49
10, 29461, Note_on_c, 9, 54, 0
10, 29461, Note_on_c, 9, 82, 0
10, 29490, Note_on_c, 9, 70, 88
10, 29490, Note_on_c, 9, 54, 61
10, 29491, Note_on_c, 9, 54, 0
10, 29491, Note_on_c, 9, 70, 0
10, 29520, Note_on_c, 9, 35, 126
10, 29520, Note_on_c, 9, 70, 72
10, 29520, Note_on_c, 9, 54, 65
10, 29521, Note_on_c, 9, 54, 0
10, 29521, Note_on_c, 9, 70, 0
10, 29521, Note_on_c, 9, 35, 0
10, 29550, Note_on_c, 9, 54, 30
10, 29551, Note_on_c, 9, 54, 0
10, 29580, Note_on_c, 9, 82, 66
10, 29580, Note_on_c, 9, 54, 48
10, 29581, Note_on_c, 9, 54, 0
10, 29581, Note_on_c, 9, 82, 0
10, 29610, Note_on_c, 9, 70, 88
10, 29610, Note_on_c, 9, 54, 60
10, 29611, Note_on_c, 9, 54, 0
10, 29611, Note_on_c, 9, 70, 0
10, 29639, Note_on_c, 9, 55, 50
10, 29640, Note_on_c, 9, 55, 0
10, 29640, Note_on_c, 9, 40, 94
10, 29640, Note_on_c, 9, 70, 80
10, 29640, Note_on_c, 9, 54, 67
10, 29641, Note_on_c, 9, 54, 0
10, 29641, Note_on_c, 9, 70, 0
10, 29641, Note_on_c, 9, 40, 0
10, 29670, Note_on_c, 9, 54, 52
10, 29671, Note_on_c, 9, 54, 0
10, 29700, Note_on_c, 9, 82, 71
10, 29700, Note_on_c, 9, 54, 46
10, 29701, Note_on_c, 9, 54, 0
10, 29701, Note_on_c, 9, 82, 0
10, 29730, Note_on_c, 9, 70, 80
10, 29730, Note_on_c, 9, 54, 56
10, 29731, Note_on_c, 9, 54, 0
10, 29731, Note_on_c, 9, 70, 0
10, 29760, Note_on_c, 9, 35, 123
10, 29760, Note_on_c, 9, 70, 72
10, 29760, Note_on_c, 9, 54, 81
10, 29761, Note_on_c, 9, 54, 0
10, 29761, Note_on_c, 9, 70, 0
10, 29761, Note_on_c, 9, 35, 0
10, 29790, Note_on_c, 9, 54, 52
10, 29791, Note_on_c, 9, 54, 0
10, 29820, Note_on_c, 9, 82, 63
10, 29820, Note_on_c, 9, 54, 45
10, 29821, Note_on_c, 9, 54, 0
10, 29821, Note_on_c, 9, 82, 0
10, 29850, Note_on_c, 9, 70, 75
10, 29850, Note_on_c, 9, 54, 44
10, 29851, Note_on_c, 9, 54, 0
10, 29851, Note_on_c, 9, 70, 0
10, 29879, Note_on_c, 9, 55, 65
10, 29880, Note_on_c, 9, 55, 0
10, 29880, Note_on_c, 9, 40, 111
10, 29880, Note_on_c, 9, 70, 75
10, 29880, Note_on_c, 9, 54, 70
10, 29881, Note_on_c, 9, 54, 0
10, 29881, Note_on_c, 9, 70, 0
10, 29881, Note_on_c, 9, 40, 0
10, 29910, Note_on_c, 9, 54, 37
10, 29911, Note_on_c, 9, 54, 0
10, 29940, Note_on_c, 9, 82, 73
10, 29940, Note_on_c, 9, 54, 56
10, 29941, Note_on_c, 9, 54, 0
10, 29941, Note_on_c, 9, 82, 0
10, 29970, Note_on_c, 9, 70, 86
10, 29970, Note_on_c, 9, 54, 52
10, 29971, Note_on_c, 9, 54, 0
10, 29971, Note_on_c, 9, 70, 0
10, 30000, Note_on_c, 9, 35, 117
10, 30000, Note_on_c, 9, 70, 75
10, 30000, Note_on_c, 9, 54, 77
10, 30001, Note_on_c, 9, 54, 0
10, 30001, Note_on_c, 9, 70, 0
10, 30001, Note_on_c, 9, 35, 0
10, 30030, Note_on_c, 9, 54, 31
10, 30031, Note_on_c, 9, 54, 0
10, 30060, Note_on_c, 9, 82, 68
10, 30060, Note_on_c, 9, 54, 42
10, 30061, Note_on_c, 9, 54, 0
10, 30061, Note_on_c, 9, 82, 0
10, 30090, Note_on_c, 9, 70, 74
10, 30090, Note_on_c, 9, 54, 40
10, 30091, Note_on_c, 9, 54, 0
10, 30091, Note_on_c, 9, 70, 0
10, 30119, Note_on_c, 9, 55, 63
10, 30120, Note_on_c, 9, 55, 0
10, 30120, Note_on_c, 9, 40, 111
10, 30120, Note_on_c, 9, 70, 66
10, 30120, Note_on_c, 9, 54, 70
10, 30121, Note_on_c, 9, 54, 0
10, 30121, Note_on_c, 9, 70, 0
10, 30121, Note_on_c, 9, 40, 0
10, 30150, Note_on_c, 9, 54, 44
10, 30151, Note_on_c, 9, 54, 0
10, 30180, Note_on_c, 9, 82, 71
10, 30180, Note_on_c, 9, 54, 42
10, 30181, Note_on_c, 9, 54, 0
10, 30181, Note_on_c, 9, 82, 0
10, 30210, Note_on_c, 9, 40, 114
10, 30210, Note_on_c, 9, 70, 92
10, 30210, Note_on_c, 9, 54, 56
10, 30211, Note_on_c, 9, 54, 0
10, 30211, Note_on_c, 9, 70, 0
10, 30211, Note_on_c, 9, 40, 0
10, 30240, Note_on_c, 9, 35, 109
10, 30240, Note_on_c, 9, 70, 82
10, 30240, Note_on_c, 9, 54, 81
10, 30241, Note_on_c, 9, 54, 0
10, 30241, Note_on_c, 9, 70, 0
10, 30241, Note_on_c, 9, 35, 0
10, 30270, Note_on_c, 9, 54, 42
10, 30271, Note_on_c, 9, 54, 0
10, 30300, Note_on_c, 9, 82, 69
10, 30300, Note_on_c, 9, 54, 36
10, 30301, Note_on_c, 9, 54, 0
10, 30301, Note_on_c, 9, 82, 0
10, 30330, Note_on_c, 9, 70, 86
10, 30330, Note_on_c, 9, 54, 35
10, 30331, Note_on_c, 9, 54, 0
10, 30331, Note_on_c, 9, 70, 0
10, 30359, Note_on_c, 9, 55, 65
10, 30360, Note_on_c, 9, 55, 0
10, 30360, Note_on_c, 9, 40, 105
10, 30360, Note_on_c, 9, 70, 81
10, 30360, Note_on_c, 9, 54, 81
10, 30361, Note_on_c, 9, 54, 0
10, 30361, Note_on_c, 9, 70, 0
10, 30361, Note_on_c, 9, 40, 0
10, 30390, Note_on_c, 9, 54, 40
10, 30391, Note_on_c, 9, 54, 0
10, 30420, Note_on_c, 9, 82, 69
10, 30420, Note_on_c, 9, 54, 52
10, 30421, Note_on_c, 9, 54, 0
10, 30421, Note_on_c, 9, 82, 0
10, 30450, Note_on_c, 9, 70, 88
10, 30450, Note_on_c, 9, 54, 46
10, 30451, Note_on_c, 9, 54, 0
10, 30451, Note_on_c, 9, 70, 0
10, 30480, Note_on_c, 9, 35, 109
10, 30480, Note_on_c, 9, 70, 72
10, 30480, Note_on_c, 9, 54, 75
10, 30481, Note_on_c, 9, 54, 0
10, 30481, Note_on_c, 9, 70, 0
10, 30481, Note_on_c, 9, 35, 0
10, 30510, Note_on_c, 9, 54, 20
10, 30511, Note_on_c, 9, 54, 0
10, 30540, Note_on_c, 9, 82, 66
10, 30540, Note_on_c, 9, 54, 37
10, 30541, Note_on_c, 9, 54, 0
10, 30541, Note_on_c, 9, 82, 0
10, 30570, Note_on_c, 9, 70, 88
10, 30570, Note_on_c, 9, 54, 52
10, 30571, Note_on_c, 9, 54, 0
10, 30571, Note_on_c, 9, 70, 0
10, 30599, Note_on_c, 9, 55, 61
10, 30600, Note_on_c, 9, 55, 0
10, 30600, Note_on_c, 9, 40, 111
10, 30600, Note_on_c, 9, 70, 80
10, 30600, Note_on_c, 9, 54, 77
10, 30601, Note_on_c, 9, 54, 0
10, 30601, Note_on_c, 9, 70, 0
10, 30601, Note_on_c, 9, 40, 0
10, 30630, Note_on_c, 9, 54, 52
10, 30631, Note_on_c, 9, 54, 0
10, 30660, Note_on_c, 9, 82, 71
10, 30660, Note_on_c, 9, 54, 56
10, 30661, Note_on_c, 9, 54, 0
10, 30661, Note_on_c, 9, 82, 0
10, 30690, Note_on_c, 9, 70, 80
10, 30690, Note_on_c, 9, 54, 52
10, 30691, Note_on_c, 9, 54, 0
10, 30691, Note_on_c, 9, 70, 0
10, 30720, Note_on_c, 9, 35, 117
10, 30720, Note_on_c, 9, 70, 72
10, 30720, Note_on_c, 9, 54, 77
10, 30721, Note_on_c, 9, 54, 0
10, 30721, Note_on_c, 9, 70, 0
10, 30721, Note_on_c, 9, 35, 0
10, 30750, Note_on_c, 9, 54, 30
10, 30751, Note_on_c, 9, 54, 0
10, 30780, Note_on_c, 9, 82, 63
10, 30780, Note_on_c, 9, 54, 44
10, 30781, Note_on_c, 9, 54, 0
10, 30781, Note_on_c, 9, 82, 0
10, 30810, Note_on_c, 9, 70, 75
10, 30810, Note_on_c, 9, 54, 44
10, 30811, Note_on_c, 9, 54, 0
10, 30811, Note_on_c, 9, 70, 0
10, 30839, Note_on_c, 9, 55, 56
10, 30840, Note_on_c, 9, 55, 0
10, 30840, Note_on_c, 9, 40, 114
10, 30840, Note_on_c, 9, 70, 75
10, 30840, Note_on_c, 9, 54, 70
10, 30841, Note_on_c, 9, 54, 0
10, 30841, Note_on_c, 9, 70, 0
10, 30841, Note_on_c, 9, 40, 0
10, 30870, Note_on_c, 9, 54, 32
10, 30871, Note_on_c, 9, 54, 0
10, 30900, Note_on_c, 9, 82, 73
10, 30900, Note_on_c, 9, 54, 54
10, 30901, Note_on_c, 9, 54, 0
10, 30901, Note_on_c, 9, 82, 0
10, 30930, Note_on_c, 9, 40, 101
10, 30930, Note_on_c, 9, 70, 86
10, 30930, Note_on_c, 9, 54, 61
10, 30931, Note_on_c, 9, 54, 0
10, 30931, Note_on_c, 9, 70, 0
10, 30931, Note_on_c, 9, 40, 0
10, 30960, Note_on_c, 9, 35, 117
10, 30960, Note_on_c, 9, 70, 75
10, 30960, Note_on_c, 9, 54, 65
10, 30961, Note_on_c, 9, 54, 0
10, 30961, Note_on_c, 9, 70, 0
10, 30961, Note_on_c, 9, 35, 0
10, 30990, Note_on_c, 9, 54, 31
10, 30991, Note_on_c, 9, 54, 0
10, 31020, Note_on_c, 9, 35, 117
10, 31020, Note_on_c, 9, 54, 61
10, 31021, Note_on_c, 9, 54, 0
10, 31021, Note_on_c, 9, 35, 0
10, 31050, Note_on_c, 9, 54, 52
10, 31051, Note_on_c, 9, 54, 0
10, 31079, Note_on_c, 9, 55, 50
10, 31080, Note_on_c, 9, 55, 0
10, 31080, Note_on_c, 9, 40, 115
10, 31080, Note_on_c, 9, 54, 81
10, 31081, Note_on_c, 9, 54, 0
10, 31081, Note_on_c, 9, 40, 0
10, 31110, Note_on_c, 9, 54, 33
10, 31111, Note_on_c, 9, 54, 0
10, 31140, Note_on_c, 9, 54, 36
10, 31141, Note_on_c, 9, 54, 0
10, 31170, Note_on_c, 9, 35, 99
10, 31170, Note_on_c, 9, 54, 52
10, 31171, Note_on_c, 9, 54, 0
10, 31171, Note_on_c, 9, 35, 0
10, 31200, Note_on_c, 9, 52, 92
10, 31200, Note_on_c, 9, 35, 117
10, 31200, Note_on_c, 9, 70, 82
10, 31200, Note_on_c, 9, 54, 77
10, 31201, Note_on_c, 9, 54, 0
10, 31201, Note_on_c, 9, 52, 0
10, 31201, Note_on_c, 9, 35, 0
10, 31201, Note_on_c, 9, 70, 0
10, 31230, Note_on_c, 9, 54, 46
10, 31231, Note_on_c, 9, 54, 0
10, 31260, Note_on_c, 9, 82, 69
10, 31260, Note_on_c, 9, 54, 46
10, 31261, Note_on_c, 9, 54, 0
10, 31261, Note_on_c, 9, 82, 0
10, 31290, Note_on_c, 9, 70, 86
10, 31290, Note_on_c, 9, 54, 52
10, 31291, Note_on_c, 9, 54, 0
10, 31291, Note_on_c, 9, 70, 0
10, 31319, Note_on_c, 9, 55, 56
10, 31320, Note_on_c, 9, 55, 0
10, 31320, Note_on_c, 9, 40, 111
10, 31320, Note_on_c, 9, 70, 81
10, 31320, Note_on_c, 9, 54, 67
10, 31321, Note_on_c, 9, 54, 0
10, 31321, Note_on_c, 9, 70, 0
10, 31321, Note_on_c, 9, 40, 0
10, 31350, Note_on_c, 9, 54, 29
10, 31351, Note_on_c, 9, 54, 0
10, 31380, Note_on_c, 9, 82, 69
10, 31380, Note_on_c, 9, 54, 49
10, 31381, Note_on_c, 9, 54, 0
10, 31381, Note_on_c, 9, 82, 0
10, 31410, Note_on_c, 9, 70, 88
10, 31410, Note_on_c, 9, 54, 61
10, 31411, Note_on_c, 9, 54, 0
10, 31411, Note_on_c, 9, 70, 0
10, 31440, Note_on_c, 9, 35, 126
10, 31440, Note_on_c, 9, 70, 72
10, 31440, Note_on_c, 9, 54, 65
10, 31441, Note_on_c, 9, 54, 0
10, 31441, Note_on_c, 9, 70, 0
10, 31441, Note_on_c, 9, 35, 0
10, 31470, Note_on_c, 9, 54, 30
10, 31471, Note_on_c, 9, 54, 0
10, 31500, Note_on_c, 9, 82, 66
10, 31500, Note_on_c, 9, 54, 48
10, 31501, Note_on_c, 9, 54, 0
10, 31501, Note_on_c, 9, 82, 0
10, 31530, Note_on_c, 9, 70, 88
10, 31530, Note_on_c, 9, 54, 60
10, 31531, Note_on_c, 9, 54, 0
10, 31531, Note_on_c, 9, 70, 0
10, 31559, Note_on_c, 9, 55, 65
10, 31560, Note_on_c, 9, 55, 0
10, 31560, Note_on_c, 9, 40, 94
10, 31560, Note_on_c, 9, 70, 80
10, 31560, Note_on_c, 9, 54, 67
10, 31561, Note_on_c, 9, 54, 0
10, 31561, Note_on_c, 9, 70, 0
10, 31561, Note_on_c, 9, 40, 0
10, 31590, Note_on_c, 9, 54, 52
10, 31591, Note_on_c, 9, 54, 0
10, 31620, Note_on_c, 9, 82, 71
10, 31620, Note_on_c, 9, 54, 46
10, 31621, Note_on_c, 9, 54, 0
10, 31621, Note_on_c, 9, 82, 0
10, 31650, Note_on_c, 9, 70, 80
10, 31650, Note_on_c, 9, 54, 56
10, 31651, Note_on_c, 9, 54, 0
10, 31651, Note_on_c, 9, 70, 0
10, 31680, Note_on_c, 9, 35, 123
10, 31680, Note_on_c, 9, 70, 72
10, 31680, Note_on_c, 9, 54, 81
10, 31681, Note_on_c, 9, 54, 0
10, 31681, Note_on_c, 9, 70, 0
10, 31681, Note_on_c, 9, 35, 0
10, 31710, Note_on_c, 9, 54, 52
10, 31711, Note_on_c, 9, 54, 0
10, 31740, Note_on_c, 9, 82, 63
10, 31740, Note_on_c, 9, 54, 45
10, 31741, Note_on_c, 9, 54, 0
10, 31741, Note_on_c, 9, 82, 0
10, 31770, Note_on_c, 9, 70, 75
10, 31770, Note_on_c, 9, 54, 44
10, 31771, Note_on_c, 9, 54, 0
10, 31771, Note_on_c, 9, 70, 0
10, 31799, Note_on_c, 9, 55, 65
10, 31800, Note_on_c, 9, 55, 0
10, 31800, Note_on_c, 9, 40, 111
10, 31800, Note_on_c, 9, 70, 75
10, 31800, Note_on_c, 9, 54, 70
10, 31801, Note_on_c, 9, 54, 0
10, 31801, Note_on_c, 9, 70, 0
10, 31801, Note_on_c, 9, 40, 0
10, 31830, Note_on_c, 9, 54, 37
10, 31831, Note_on_c, 9, 54, 0
10, 31860, Note_on_c, 9, 82, 73
10, 31860, Note_on_c, 9, 54, 56
10, 31861, Note_on_c, 9, 54, 0
10, 31861, Note_on_c, 9, 82, 0
10, 31890, Note_on_c, 9, 70, 86
10, 31890, Note_on_c, 9, 54, 52
10, 31891, Note_on_c, 9, 54, 0
10, 31891, Note_on_c, 9, 70, 0
10, 31920, Note_on_c, 9, 35, 117
10, 31920, Note_on_c, 9, 70, 75
10, 31920, Note_on_c, 9, 54, 77
10, 31921, Note_on_c, 9, 54, 0
10, 31921, Note_on_c, 9, 70, 0
10, 31921, Note_on_c, 9, 35, 0
10, 31950, Note_on_c, 9, 54, 31
10, 31951, Note_on_c, 9, 54, 0
10, 31980, Note_on_c, 9, 82, 68
10, 31980, Note_on_c, 9, 54, 42
10, 31981, Note_on_c, 9, 54, 0
10, 31981, Note_on_c, 9, 82, 0
10, 32010, Note_on_c, 9, 70, 74
10, 32010, Note_on_c, 9, 54, 40
10, 32011, Note_on_c, 9, 54, 0
10, 32011, Note_on_c, 9, 70, 0
10, 32039, Note_on_c, 9, 55, 67
10, 32040, Note_on_c, 9, 55, 0
10, 32040, Note_on_c, 9, 40, 111
10, 32040, Note_on_c, 9, 70, 66
10, 32040, Note_on_c, 9, 54, 70
10, 32041, Note_on_c, 9, 54, 0
10, 32041, Note_on_c, 9, 70, 0
10, 32041, Note_on_c, 9, 40, 0
10, 32070, Note_on_c, 9, 54, 44
10, 32071, Note_on_c, 9, 54, 0
10, 32100, Note_on_c, 9, 82, 71
10, 32100, Note_on_c, 9, 54, 42
10, 32101, Note_on_c, 9, 54, 0
10, 32101, Note_on_c, 9, 82, 0
10, 32130, Note_on_c, 9, 40, 114
10, 32130, Note_on_c, 9, 70, 92
10, 32130, Note_on_c, 9, 54, 56
10, 32131, Note_on_c, 9, 54, 0
10, 32131, Note_on_c, 9, 70, 0
10, 32131, Note_on_c, 9, 40, 0
10, 32160, Note_on_c, 9, 35, 123
10, 32160, Note_on_c, 9, 70, 82
10, 32160, Note_on_c, 9, 54, 81
10, 32161, Note_on_c, 9, 54, 0
10, 32161, Note_on_c, 9, 70, 0
10, 32161, Note_on_c, 9, 35, 0
10, 32190, Note_on_c, 9, 54, 42
10, 32191, Note_on_c, 9, 54, 0
10, 32220, Note_on_c, 9, 82, 69
10, 32220, Note_on_c, 9, 54, 36
10, 32221, Note_on_c, 9, 54, 0
10, 32221, Note_on_c, 9, 82, 0
10, 32250, Note_on_c, 9, 70, 86
10, 32250, Note_on_c, 9, 54, 35
10, 32251, Note_on_c, 9, 54, 0
10, 32251, Note_on_c, 9, 70, 0
10, 32280, Note_on_c, 9, 35, 123
10, 32280, Note_on_c, 9, 70, 81
10, 32280, Note_on_c, 9, 54, 81
10, 32281, Note_on_c, 9, 54, 0
10, 32281, Note_on_c, 9, 70, 0
10, 32281, Note_on_c, 9, 35, 0
10, 32310, Note_on_c, 9, 54, 40
10, 32311, Note_on_c, 9, 54, 0
10, 32340, Note_on_c, 9, 82, 69
10, 32340, Note_on_c, 9, 54, 52
10, 32341, Note_on_c, 9, 54, 0
10, 32341, Note_on_c, 9, 82, 0
10, 32370, Note_on_c, 9, 70, 88
10, 32370, Note_on_c, 9, 54, 46
10, 32371, Note_on_c, 9, 54, 0
10, 32371, Note_on_c, 9, 70, 0
10, 32400, Note_on_c, 9, 35, 111
10, 32400, Note_on_c, 9, 70, 72
10, 32400, Note_on_c, 9, 54, 75
10, 32401, Note_on_c, 9, 54, 0
10, 32401, Note_on_c, 9, 70, 0
10, 32401, Note_on_c, 9, 35, 0
10, 32430, Note_on_c, 9, 54, 20
10, 32431, Note_on_c, 9, 54, 0
10, 32460, Note_on_c, 9, 82, 66
10, 32460, Note_on_c, 9, 54, 37
10, 32461, Note_on_c, 9, 54, 0
10, 32461, Note_on_c, 9, 82, 0
10, 32490, Note_on_c, 9, 70, 88
10, 32490, Note_on_c, 9, 54, 52
10, 32491, Note_on_c, 9, 54, 0
10, 32491, Note_on_c, 9, 70, 0
10, 32520, Note_on_c, 9, 35, 111
10, 32520, Note_on_c, 9, 70, 80
10, 32520, Note_on_c, 9, 54, 77
10, 32521, Note_on_c, 9, 54, 0
10, 32521, Note_on_c, 9, 70, 0
10, 32521, Note_on_c, 9, 35, 0
10, 32550, Note_on_c, 9, 54, 52
10, 32551, Note_on_c, 9, 54, 0
10, 32580, Note_on_c, 9, 82, 71
10, 32580, Note_on_c, 9, 54, 56
10, 32581, Note_on_c, 9, 54, 0
10, 32581, Note_on_c, 9, 82, 0
10, 32610, Note_on_c, 9, 70, 80
10, 32610, Note_on_c, 9, 54, 52
10, 32611, Note_on_c, 9, 54, 0
10, 32611, Note_on_c, 9, 70, 0
10, 32640, Note_on_c, 9, 35, 117
10, 32640, Note_on_c, 9, 70, 72
10, 32640, Note_on_c, 9, 54, 77
10, 32641, Note_on_c, 9, 54, 0
10, 32641, Note_on_c, 9, 70, 0
10, 32641, Note_on_c, 9, 35, 0
10, 32670, Note_on_c, 9, 54, 30
10, 32671, Note_on_c, 9, 54, 0
10, 32700, Note_on_c, 9, 82, 63
10, 32700, Note_on_c, 9, 54, 44
10, 32701, Note_on_c, 9, 54, 0
10, 32701, Note_on_c, 9, 82, 0
10, 32730, Note_on_c, 9, 70, 75
10, 32730, Note_on_c, 9, 54, 44
10, 32731, Note_on_c, 9, 54, 0
10, 32731, Note_on_c, 9, 70, 0
10, 32760, Note_on_c, 9, 40, 114
10, 32760, Note_on_c, 9, 70, 75
10, 32760, Note_on_c, 9, 54, 70
10, 32761, Note_on_c, 9, 54, 0
10, 32761, Note_on_c, 9, 70, 0
10, 32761, Note_on_c, 9, 40, 0
10, 32790, Note_on_c, 9, 54, 32
10, 32791, Note_on_c, 9, 54, 0
10, 32820, Note_on_c, 9, 82, 73
10, 32820, Note_on_c, 9, 54, 54
10, 32821, Note_on_c, 9, 54, 0
10, 32821, Note_on_c, 9, 82, 0
10, 32850, Note_on_c, 9, 40, 102
10, 32850, Note_on_c, 9, 70, 86
10, 32850, Note_on_c, 9, 54, 61
10, 32851, Note_on_c, 9, 54, 0
10, 32851, Note_on_c, 9, 70, 0
10, 32851, Note_on_c, 9, 40, 0
10, 32880, Note_on_c, 9, 35, 117
10, 32880, Note_on_c, 9, 70, 75
10, 32880, Note_on_c, 9, 54, 65
10, 32881, Note_on_c, 9, 54, 0
10, 32881, Note_on_c, 9, 70, 0
10, 32881, Note_on_c, 9, 35, 0
10, 32910, Note_on_c, 9, 54, 31
10, 32911, Note_on_c, 9, 54, 0
10, 32940, Note_on_c, 9, 40, 105
10, 32940, Note_on_c, 9, 82, 68
10, 32940, Note_on_c, 9, 54, 61
10, 32941, Note_on_c, 9, 54, 0
10, 32941, Note_on_c, 9, 82, 0
10, 32941, Note_on_c, 9, 40, 0
10, 32970, Note_on_c, 9, 70, 74
10, 32970, Note_on_c, 9, 54, 52
10, 32971, Note_on_c, 9, 54, 0
10, 32971, Note_on_c, 9, 70, 0
10, 33000, Note_on_c, 9, 40, 115
10, 33000, Note_on_c, 9, 70, 66
10, 33000, Note_on_c, 9, 54, 81
10, 33001, Note_on_c, 9, 54, 0
10, 33001, Note_on_c, 9, 70, 0
10, 33001, Note_on_c, 9, 40, 0
10, 33030, Note_on_c, 9, 54, 33
10, 33031, Note_on_c, 9, 54, 0
10, 33060, Note_on_c, 9, 35, 117
10, 33060, Note_on_c, 9, 82, 71
10, 33060, Note_on_c, 9, 54, 36
10, 33061, Note_on_c, 9, 54, 0
10, 33061, Note_on_c, 9, 82, 0
10, 33061, Note_on_c, 9, 35, 0
10, 33090, Note_on_c, 9, 70, 92
10, 33090, Note_on_c, 9, 54, 52
10, 33091, Note_on_c, 9, 54, 0
10, 33091, Note_on_c, 9, 70, 0
10, 33120, Note_on_c, 9, 35, 117
10, 33120, Note_on_c, 9, 70, 82
10, 33120, Note_on_c, 9, 54, 77
10, 33121, Note_on_c, 9, 54, 0
10, 33121, Note_on_c, 9, 70, 0
10, 33121, Note_on_c, 9, 35, 0
10, 33150, Note_on_c, 9, 54, 46
10, 33151, Note_on_c, 9, 54, 0
10, 33180, Note_on_c, 9, 82, 69
10, 33180, Note_on_c, 9, 54, 46
10, 33181, Note_on_c, 9, 54, 0
10, 33181, Note_on_c, 9, 82, 0
10, 33210, Note_on_c, 9, 70, 86
10, 33210, Note_on_c, 9, 54, 52
10, 33211, Note_on_c, 9, 54, 0
10, 33211, Note_on_c, 9, 70, 0
10, 33239, Note_on_c, 9, 55, 54
10, 33240, Note_on_c, 9, 55, 0
10, 33240, Note_on_c, 9, 40, 111
10, 33240, Note_on_c, 9, 70, 81
10, 33240, Note_on_c, 9, 54, 67
10, 33241, Note_on_c, 9, 54, 0
10, 33241, Note_on_c, 9, 70, 0
10, 33241, Note_on_c, 9, 40, 0
10, 33270, Note_on_c, 9, 54, 29
10, 33271, Note_on_c, 9, 54, 0
10, 33300, Note_on_c, 9, 82, 69
10, 33300, Note_on_c, 9, 54, 49
10, 33301, Note_on_c, 9, 54, 0
10, 33301, Note_on_c, 9, 82, 0
10, 33330, Note_on_c, 9, 70, 88
10, 33330, Note_on_c, 9, 54, 61
10, 33331, Note_on_c, 9, 54, 0
10, 33331, Note_on_c, 9, 70, 0
10, 33360, Note_on_c, 9, 35, 126
10, 33360, Note_on_c, 9, 70, 72
10, 33360, Note_on_c, 9, 54, 65
10, 33361, Note_on_c, 9, 54, 0
10, 33361, Note_on_c, 9, 70, 0
10, 33361, Note_on_c, 9, 35, 0
10, 33390, Note_on_c, 9, 54, 30
10, 33391, Note_on_c, 9, 54, 0
10, 33420, Note_on_c, 9, 82, 66
10, 33420, Note_on_c, 9, 54, 48
10, 33421, Note_on_c, 9, 54, 0
10, 33421, Note_on_c, 9, 82, 0
10, 33450, Note_on_c, 9, 70, 88
10, 33450, Note_on_c, 9, 54, 60
10, 33451, Note_on_c, 9, 54, 0
10, 33451, Note_on_c, 9, 70, 0
10, 33479, Note_on_c, 9, 55, 50
10, 33480, Note_on_c, 9, 55, 0
10, 33480, Note_on_c, 9, 40, 94
10, 33480, Note_on_c, 9, 70, 80
10, 33480, Note_on_c, 9, 54, 67
10, 33481, Note_on_c, 9, 54, 0
10, 33481, Note_on_c, 9, 70, 0
10, 33481, Note_on_c, 9, 40, 0
10, 33510, Note_on_c, 9, 54, 52
10, 33511, Note_on_c, 9, 54, 0
10, 33540, Note_on_c, 9, 82, 71
10, 33540, Note_on_c, 9, 54, 46
10, 33541, Note_on_c, 9, 54, 0
10, 33541, Note_on_c, 9, 82, 0
10, 33570, Note_on_c, 9, 70, 80
10, 33570, Note_on_c, 9, 54, 56
10, 33571, Note_on_c, 9, 54, 0
10, 33571, Note_on_c, 9, 70, 0
10, 33600, Note_on_c, 9, 35, 123
10, 33600, Note_on_c, 9, 70, 72
10, 33600, Note_on_c, 9, 54, 81
10, 33601, Note_on_c, 9, 54, 0
10, 33601, Note_on_c, 9, 70, 0
10, 33601, Note_on_c, 9, 35, 0
10, 33630, Note_on_c, 9, 54, 52
10, 33631, Note_on_c, 9, 54, 0
10, 33660, Note_on_c, 9, 82, 63
10, 33660, Note_on_c, 9, 54, 45
10, 33661, Note_on_c, 9, 54, 0
10, 33661, Note_on_c, 9, 82, 0
10, 33690, Note_on_c, 9, 70, 75
10, 33690, Note_on_c, 9, 54, 44
10, 33691, Note_on_c, 9, 54, 0
10, 33691, Note_on_c, 9, 70, 0
10, 33719, Note_on_c, 9, 55, 65
10, 33720, Note_on_c, 9, 55, 0
10, 33720, Note_on_c, 9, 40, 111
10, 33720, Note_on_c, 9, 70, 75
10, 33720, Note_on_c, 9, 54, 70
10, 33721, Note_on_c, 9, 54, 0
10, 33721, Note_on_c, 9, 70, 0
10, 33721, Note_on_c, 9, 40, 0
10, 33750, Note_on_c, 9, 54, 37
10, 33751, Note_on_c, 9, 54, 0
10, 33780, Note_on_c, 9, 82, 73
10, 33780, Note_on_c, 9, 54, 56
10, 33781, Note_on_c, 9, 54, 0
10, 33781, Note_on_c, 9, 82, 0
10, 33810, Note_on_c, 9, 70, 86
10, 33810, Note_on_c, 9, 54, 52
10, 33811, Note_on_c, 9, 54, 0
10, 33811, Note_on_c, 9, 70, 0
10, 33840, Note_on_c, 9, 35, 117
10, 33840, Note_on_c, 9, 70, 75
10, 33840, Note_on_c, 9, 54, 77
10, 33841, Note_on_c, 9, 54, 0
10, 33841, Note_on_c, 9, 70, 0
10, 33841, Note_on_c, 9, 35, 0
10, 33870, Note_on_c, 9, 54, 31
10, 33871, Note_on_c, 9, 54, 0
10, 33900, Note_on_c, 9, 82, 68
10, 33900, Note_on_c, 9, 54, 42
10, 33901, Note_on_c, 9, 54, 0
10, 33901, Note_on_c, 9, 82, 0
10, 33930, Note_on_c, 9, 70, 74
10, 33930, Note_on_c, 9, 54, 40
10, 33931, Note_on_c, 9, 54, 0
10, 33931, Note_on_c, 9, 70, 0
10, 33959, Note_on_c, 9, 55, 63
10, 33960, Note_on_c, 9, 55, 0
10, 33960, Note_on_c, 9, 40, 111
10, 33960, Note_on_c, 9, 70, 66
10, 33960, Note_on_c, 9, 54, 70
10, 33961, Note_on_c, 9, 54, 0
10, 33961, Note_on_c, 9, 70, 0
10, 33961, Note_on_c, 9, 40, 0
10, 33990, Note_on_c, 9, 54, 44
10, 33991, Note_on_c, 9, 54, 0
10, 34020, Note_on_c, 9, 82, 71
10, 34020, Note_on_c, 9, 54, 42
10, 34021, Note_on_c, 9, 54, 0
10, 34021, Note_on_c, 9, 82, 0
10, 34050, Note_on_c, 9, 40, 114
10, 34050, Note_on_c, 9, 70, 92
10, 34050, Note_on_c, 9, 54, 56
10, 34051, Note_on_c, 9, 54, 0
10, 34051, Note_on_c, 9, 70, 0
10, 34051, Note_on_c, 9, 40, 0
10, 34080, Note_on_c, 9, 35, 109
10, 34080, Note_on_c, 9, 70, 82
10, 34080, Note_on_c, 9, 54, 81
10, 34081, Note_on_c, 9, 54, 0
10, 34081, Note_on_c, 9, 70, 0
10, 34081, Note_on_c, 9, 35, 0
10, 34110, Note_on_c, 9, 54, 42
10, 34111, Note_on_c, 9, 54, 0
10, 34140, Note_on_c, 9, 82, 69
10, 34140, Note_on_c, 9, 54, 36
10, 34141, Note_on_c, 9, 54, 0
10, 34141, Note_on_c, 9, 82, 0
10, 34170, Note_on_c, 9, 70, 86
10, 34170, Note_on_c, 9, 54, 35
10, 34171, Note_on_c, 9, 54, 0
10, 34171, Note_on_c, 9, 70, 0
10, 34199, Note_on_c, 9, 55, 65
10, 34200, Note_on_c, 9, 55, 0
10, 34200, Note_on_c, 9, 40, 105
10, 34200, Note_on_c, 9, 70, 81
10, 34200, Note_on_c, 9, 54, 81
10, 34201, Note_on_c, 9, 54, 0
10, 34201, Note_on_c, 9, 70, 0
10, 34201, Note_on_c, 9, 40, 0
10, 34230, Note_on_c, 9, 54, 40
10, 34231, Note_on_c, 9, 54, 0
10, 34260, Note_on_c, 9, 82, 69
10, 34260, Note_on_c, 9, 54, 52
10, 34261, Note_on_c, 9, 54, 0
10, 34261, Note_on_c, 9, 82, 0
10, 34290, Note_on_c, 9, 70, 88
10, 34290, Note_on_c, 9, 54, 46
10, 34291, Note_on_c, 9, 54, 0
10, 34291, Note_on_c, 9, 70, 0
10, 34320, Note_on_c, 9, 35, 109
10, 34320, Note_on_c, 9, 70, 72
10, 34320, Note_on_c, 9, 54, 75
10, 34321, Note_on_c, 9, 54, 0
10, 34321, Note_on_c, 9, 70, 0
10, 34321, Note_on_c, 9, 35, 0
10, 34350, Note_on_c, 9, 54, 20
10, 34351, Note_on_c, 9, 54, 0
10, 34380, Note_on_c, 9, 82, 66
10, 34380, Note_on_c, 9, 54, 37
10, 34381, Note_on_c, 9, 54, 0
10, 34381, Note_on_c, 9, 82, 0
10, 34410, Note_on_c, 9, 70, 88
10, 34410, Note_on_c, 9, 54, 52
10, 34411, Note_on_c, 9, 54, 0
10, 34411, Note_on_c, 9, 70, 0
10, 34439, Note_on_c, 9, 55, 61
10, 34440, Note_on_c, 9, 55, 0
10, 34440, Note_on_c, 9, 40, 111
10, 34440, Note_on_c, 9, 70, 80
10, 34440, Note_on_c, 9, 54, 77
10, 34441, Note_on_c, 9, 54, 0
10, 34441, Note_on_c, 9, 70, 0
10, 34441, Note_on_c, 9, 40, 0
10, 34470, Note_on_c, 9, 54, 52
10, 34471, Note_on_c, 9, 54, 0
10, 34500, Note_on_c, 9, 82, 71
10, 34500, Note_on_c, 9, 54, 56
10, 34501, Note_on_c, 9, 54, 0
10, 34501, Note_on_c, 9, 82, 0
10, 34530, Note_on_c, 9, 70, 80
10, 34530, Note_on_c, 9, 54, 52
10, 34531, Note_on_c, 9, 54, 0
10, 34531, Note_on_c, 9, 70, 0
10, 34560, Note_on_c, 9, 35, 117
10, 34560, Note_on_c, 9, 70, 72
10, 34560, Note_on_c, 9, 54, 77
10, 34561, Note_on_c, 9, 54, 0
10, 34561, Note_on_c, 9, 70, 0
10, 34561, Note_on_c, 9, 35, 0
10, 34590, Note_on_c, 9, 54, 30
10, 34591, Note_on_c, 9, 54, 0
10, 34620, Note_on_c, 9, 82, 63
10, 34620, Note_on_c, 9, 54, 44
10, 34621, Note_on_c, 9, 54, 0
10, 34621, Note_on_c, 9, 82, 0
10, 34650, Note_on_c, 9, 70, 75
10, 34650, Note_on_c, 9, 54, 44
10, 34651, Note_on_c, 9, 54, 0
10, 34651, Note_on_c, 9, 70, 0
10, 34679, Note_on_c, 9, 55, 56
10, 34680, Note_on_c, 9, 55, 0
10, 34680, Note_on_c, 9, 40, 114
10, 34680, Note_on_c, 9, 70, 75
10, 34680, Note_on_c, 9, 54, 70
10, 34681, Note_on_c, 9, 54, 0
10, 34681, Note_on_c, 9, 70, 0
10, 34681, Note_on_c, 9, 40, 0
10, 34710, Note_on_c, 9, 54, 32
10, 34711, Note_on_c, 9, 54, 0
10, 34740, Note_on_c, 9, 82, 73
10, 34740, Note_on_c, 9, 54, 54
10, 34741, Note_on_c, 9, 54, 0
10, 34741, Note_on_c, 9, 82, 0
10, 34770, Note_on_c, 9, 40, 101
10, 34770, Note_on_c, 9, 70, 86
10, 34770, Note_on_c, 9, 54, 61
10, 34771, Note_on_c, 9, 54, 0
10, 34771, Note_on_c, 9, 70, 0
10, 34771, Note_on_c, 9, 40, 0
10, 34800, Note_on_c, 9, 35, 117
10, 34800, Note_on_c, 9, 70, 75
10, 34800, Note_on_c, 9, 54, 65
10, 34801, Note_on_c, 9, 54, 0
10, 34801, Note_on_c, 9, 70, 0
10, 34801, Note_on_c, 9, 35, 0
10, 34830, Note_on_c, 9, 54, 31
10, 34831, Note_on_c, 9, 54, 0
10, 34860, Note_on_c, 9, 35, 117
10, 34860, Note_on_c, 9, 82, 68
10, 34860, Note_on_c, 9, 54, 61
10, 34861, Note_on_c, 9, 54, 0
10, 34861, Note_on_c, 9, 82, 0
10, 34861, Note_on_c, 9, 35, 0
10, 34890, Note_on_c, 9, 70, 74
10, 34890, Note_on_c, 9, 54, 52
10, 34891, Note_on_c, 9, 54, 0
10, 34891, Note_on_c, 9, 70, 0
10, 34919, Note_on_c, 9, 55, 50
10, 34920, Note_on_c, 9, 55, 0
10, 34920, Note_on_c, 9, 40, 115
10, 34920, Note_on_c, 9, 70, 66
10, 34920, Note_on_c, 9, 54, 81
10, 34921, Note_on_c, 9, 54, 0
10, 34921, Note_on_c, 9, 70, 0
10, 34921, Note_on_c, 9, 40, 0
10, 34950, Note_on_c, 9, 54, 33
10, 34951, Note_on_c, 9, 54, 0
10, 34980, Note_on_c, 9, 82, 71
10, 34980, Note_on_c, 9, 54, 36
10, 34981, Note_on_c, 9, 54, 0
10, 34981, Note_on_c, 9, 82, 0
10, 35010, Note_on_c, 9, 70, 92
10, 35010, Note_on_c, 9, 54, 52
10, 35011, Note_on_c, 9, 54, 0
10, 35011, Note_on_c, 9, 70, 0
10, 35040, Note_on_c, 9, 35, 117
10, 35040, Note_on_c, 9, 70, 82
10, 35040, Note_on_c, 9, 54, 77
10, 35041, Note_on_c, 9, 54, 0
10, 35041, Note_on_c, 9, 70, 0
10, 35041, Note_on_c, 9, 35, 0
10, 35070, Note_on_c, 9, 54, 46
10, 35071, Note_on_c, 9, 54, 0
10, 35100, Note_on_c, 9, 82, 69
10, 35100, Note_on_c, 9, 54, 46
10, 35101, Note_on_c, 9, 54, 0
10, 35101, Note_on_c, 9, 82, 0
10, 35130, Note_on_c, 9, 70, 86
10, 35130, Note_on_c, 9, 54, 52
10, 35131, Note_on_c, 9, 54, 0
10, 35131, Note_on_c, 9, 70, 0
10, 35159, Note_on_c, 9, 55, 56
10, 35160, Note_on_c, 9, 55, 0
10, 35160, Note_on_c, 9, 40, 111
10, 35160, Note_on_c, 9, 70, 81
10, 35160, Note_on_c, 9, 54, 67
10, 35161, Note_on_c, 9, 54, 0
10, 35161, Note_on_c, 9, 70, 0
10, 35161, Note_on_c, 9, 40, 0
10, 35190, Note_on_c, 9, 54, 29
10, 35191, Note_on_c, 9, 54, 0
10, 35220, Note_on_c, 9, 82, 69
10, 35220, Note_on_c, 9, 54, 49
10, 35221, Note_on_c, 9, 54, 0
10, 35221, Note_on_c, 9, 82, 0
10, 35250, Note_on_c, 9, 70, 88
10, 35250, Note_on_c, 9, 54, 61
10, 35251, Note_on_c, 9, 54, 0
10, 35251, Note_on_c, 9, 70, 0
10, 35280, Note_on_c, 9, 35, 126
10, 35280, Note_on_c, 9, 70, 72
10, 35280, Note_on_c, 9, 54, 65
10, 35281, Note_on_c, 9, 54, 0
10, 35281, Note_on_c, 9, 70, 0
10, 35281, Note_on_c, 9, 35, 0
10, 35310, Note_on_c, 9, 54, 30
10, 35311, Note_on_c, 9, 54, 0
10, 35340, Note_on_c, 9, 82, 66
10, 35340, Note_on_c, 9, 54, 48
10, 35341, Note_on_c, 9, 54, 0
10, 35341, Note_on_c, 9, 82, 0
10, 35370, Note_on_c, 9, 70, 88
10, 35370, Note_on_c, 9, 54, 60
10, 35371, Note_on_c, 9, 54, 0
10, 35371, Note_on_c, 9, 70, 0
10, 35399, Note_on_c, 9, 55, 63
10, 35400, Note_on_c, 9, 55, 0
10, 35400, Note_on_c, 9, 40, 94
10, 35400, Note_on_c, 9, 70, 80
10, 35400, Note_on_c, 9, 54, 67
10, 35401, Note_on_c, 9, 54, 0
10, 35401, Note_on_c, 9, 70, 0
10, 35401, Note_on_c, 9, 40, 0
10, 35430, Note_on_c, 9, 54, 52
10, 35431, Note_on_c, 9, 54, 0
10, 35460, Note_on_c, 9, 82, 71
10, 35460, Note_on_c, 9, 54, 46
10, 35461, Note_on_c, 9, 54, 0
10, 35461, Note_on_c, 9, 82, 0
10, 35490, Note_on_c, 9, 70, 80
10, 35490, Note_on_c, 9, 54, 56
10, 35491, Note_on_c, 9, 54, 0
10, 35491, Note_on_c, 9, 70, 0
10, 35520, Note_on_c, 9, 35, 123
10, 35520, Note_on_c, 9, 70, 72
10, 35520, Note_on_c, 9, 54, 81
10, 35521, Note_on_c, 9, 54, 0
10, 35521, Note_on_c, 9, 70, 0
10, 35521, Note_on_c, 9, 35, 0
10, 35550, Note_on_c, 9, 54, 52
10, 35551, Note_on_c, 9, 54, 0
10, 35580, Note_on_c, 9, 82, 63
10, 35580, Note_on_c, 9, 54, 45
10, 35581, Note_on_c, 9, 54, 0
10, 35581, Note_on_c, 9, 82, 0
10, 35610, Note_on_c, 9, 70, 75
10, 35610, Note_on_c, 9, 54, 44
10, 35611, Note_on_c, 9, 54, 0
10, 35611, Note_on_c, 9, 70, 0
10, 35639, Note_on_c, 9, 55, 63
10, 35640, Note_on_c, 9, 55, 0
10, 35640, Note_on_c, 9, 40, 111
10, 35640, Note_on_c, 9, 70, 75
10, 35640, Note_on_c, 9, 54, 70
10, 35641, Note_on_c, 9, 54, 0
10, 35641, Note_on_c, 9, 70, 0
10, 35641, Note_on_c, 9, 40, 0
10, 35670, Note_on_c, 9, 54, 37
10, 35671, Note_on_c, 9, 54, 0
10, 35700, Note_on_c, 9, 82, 73
10, 35700, Note_on_c, 9, 54, 56
10, 35701, Note_on_c, 9, 54, 0
10, 35701, Note_on_c, 9, 82, 0
10, 35730, Note_on_c, 9, 70, 86
10, 35730, Note_on_c, 9, 54, 52
10, 35731, Note_on_c, 9, 54, 0
10, 35731, Note_on_c, 9, 70, 0
10, 35760, Note_on_c, 9, 35, 117
10, 35760, Note_on_c, 9, 40, 115
10, 35760, Note_on_c, 9, 70, 75
10, 35760, Note_on_c, 9, 54, 77
10, 35761, Note_on_c, 9, 54, 0
10, 35761, Note_on_c, 9, 35, 0
10, 35761, Note_on_c, 9, 40, 0
10, 35761, Note_on_c, 9, 70, 0
10, 35790, Note_on_c, 9, 48, 89
10, 35790, Note_on_c, 9, 54, 31
10, 35791, Note_on_c, 9, 54, 0
10, 35791, Note_on_c, 9, 48, 0
10, 35820, Note_on_c, 9, 47, 89
10, 35820, Note_on_c, 9, 82, 68
10, 35820, Note_on_c, 9, 54, 42
10, 35821, Note_on_c, 9, 54, 0
10, 35821, Note_on_c, 9, 82, 0
10, 35821, Note_on_c, 9, 47, 0
10, 35850, Note_on_c, 9, 45, 89
10, 35850, Note_on_c, 9, 70, 74
10, 35850, Note_on_c, 9, 54, 40
10, 35851, Note_on_c, 9, 54, 0
10, 35851, Note_on_c, 9, 70, 0
10, 35851, Note_on_c, 9, 45, 0
10, 35879, Note_on_c, 9, 55, 65
10, 35880, Note_on_c, 9, 55, 0
10, 35880, Note_on_c, 9, 70, 66
10, 35880, Note_on_c, 9, 54, 70
10, 35881, Note_on_c, 9, 54, 0
10, 35881, Note_on_c, 9, 70, 0
10, 35910, Note_on_c, 9, 48, 92
10, 35910, Note_on_c, 9, 40, 114
10, 35910, Note_on_c, 9, 54, 44
10, 35911, Note_on_c, 9, 54, 0
10, 35911, Note_on_c, 9, 40, 0
10, 35911, Note_on_c, 9, 48, 0
10, 35940, Note_on_c, 9, 47, 83
10, 35940, Note_on_c, 9, 82, 71
10, 35940, Note_on_c, 9, 54, 42
10, 35941, Note_on_c, 9, 54, 0
10, 35941, Note_on_c, 9, 82, 0
10, 35941, Note_on_c, 9, 47, 0
10, 35970, Note_on_c, 9, 45, 91
10, 35970, Note_on_c, 9, 35, 126
10, 35970, Note_on_c, 9, 70, 92
10, 35970, Note_on_c, 9, 54, 56
10, 35971, Note_on_c, 9, 54, 0
10, 35971, Note_on_c, 9, 45, 0
10, 35971, Note_on_c, 9, 35, 0
10, 35971, Note_on_c, 9, 70, 0
10, 36000, Note_on_c, 9, 52, 92
10, 36000, Note_on_c, 9, 35, 117
10, 36000, Note_on_c, 9, 70, 82
10, 36000, Note_on_c, 9, 54, 77
10, 36001, Note_on_c, 9, 54, 0
10, 36001, Note_on_c, 9, 52, 0
10, 36001, Note_on_c, 9, 35, 0
10, 36001, Note_on_c, 9, 70, 0
10, 36030, Note_on_c, 9, 54, 46
10, 36031, Note_on_c, 9, 54, 0
10, 36060, Note_on_c, 9, 82, 69
10, 36060, Note_on_c, 9, 54, 46
10, 36061, Note_on_c, 9, 54, 0
10, 36061, Note_on_c, 9, 82, 0
10, 36090, Note_on_c, 9, 70, 86
10, 36090, Note_on_c, 9, 54, 52
10, 36091, Note_on_c, 9, 54, 0
10, 36091, Note_on_c, 9, 70, 0
10, 36119, Note_on_c, 9, 55, 56
10, 36120, Note_on_c, 9, 55, 0
10, 36120, Note_on_c, 9, 40, 111
10, 36120, Note_on_c, 9, 70, 81
10, 36120, Note_on_c, 9, 54, 67
10, 36121, Note_on_c, 9, 54, 0
10, 36121, Note_on_c, 9, 70, 0
10, 36121, Note_on_c, 9, 40, 0
10, 36150, Note_on_c, 9, 54, 29
10, 36151, Note_on_c, 9, 54, 0
10, 36180, Note_on_c, 9, 82, 69
10, 36180, Note_on_c, 9, 54, 49
10, 36181, Note_on_c, 9, 54, 0
10, 36181, Note_on_c, 9, 82, 0
10, 36210, Note_on_c, 9, 70, 88
10, 36210, Note_on_c, 9, 54, 61
10, 36211, Note_on_c, 9, 54, 0
10, 36211, Note_on_c, 9, 70, 0
10, 36240, Note_on_c, 9, 35, 126
10, 36240, Note_on_c, 9, 70, 72
10, 36240, Note_on_c, 9, 54, 65
10, 36241, Note_on_c, 9, 54, 0
10, 36241, Note_on_c, 9, 70, 0
10, 36241, Note_on_c, 9, 35, 0
10, 36270, Note_on_c, 9, 54, 30
10, 36271, Note_on_c, 9, 54, 0
10, 36300, Note_on_c, 9, 82, 66
10, 36300, Note_on_c, 9, 54, 48
10, 36301, Note_on_c, 9, 54, 0
10, 36301, Note_on_c, 9, 82, 0
10, 36330, Note_on_c, 9, 70, 88
10, 36330, Note_on_c, 9, 54, 60
10, 36331, Note_on_c, 9, 54, 0
10, 36331, Note_on_c, 9, 70, 0
10, 36359, Note_on_c, 9, 55, 65
10, 36360, Note_on_c, 9, 55, 0
10, 36360, Note_on_c, 9, 40, 108
10, 36360, Note_on_c, 9, 70, 80
10, 36360, Note_on_c, 9, 54, 67
10, 36361, Note_on_c, 9, 54, 0
10, 36361, Note_on_c, 9, 70, 0
10, 36361, Note_on_c, 9, 40, 0
10, 36390, Note_on_c, 9, 54, 52
10, 36391, Note_on_c, 9, 54, 0
10, 36420, Note_on_c, 9, 82, 71
10, 36420, Note_on_c, 9, 54, 46
10, 36421, Note_on_c, 9, 54, 0
10, 36421, Note_on_c, 9, 82, 0
10, 36450, Note_on_c, 9, 70, 80
10, 36450, Note_on_c, 9, 54, 56
10, 36451, Note_on_c, 9, 54, 0
10, 36451, Note_on_c, 9, 70, 0
10, 36480, Note_on_c, 9, 35, 123
10, 36480, Note_on_c, 9, 70, 72
10, 36480, Note_on_c, 9, 54, 81
10, 36481, Note_on_c, 9, 54, 0
10, 36481, Note_on_c, 9, 70, 0
10, 36481, Note_on_c, 9, 35, 0
10, 36510, Note_on_c, 9, 54, 52
10, 36511, Note_on_c, 9, 54, 0
10, 36540, Note_on_c, 9, 82, 63
10, 36540, Note_on_c, 9, 54, 45
10, 36541, Note_on_c, 9, 54, 0
10, 36541, Note_on_c, 9, 82, 0
10, 36570, Note_on_c, 9, 70, 75
10, 36570, Note_on_c, 9, 54, 44
10, 36571, Note_on_c, 9, 54, 0
10, 36571, Note_on_c, 9, 70, 0
10, 36599, Note_on_c, 9, 55, 65
10, 36600, Note_on_c, 9, 55, 0
10, 36600, Note_on_c, 9, 40, 111
10, 36600, Note_on_c, 9, 70, 75
10, 36600, Note_on_c, 9, 54, 70
10, 36601, Note_on_c, 9, 54, 0
10, 36601, Note_on_c, 9, 70, 0
10, 36601, Note_on_c, 9, 40, 0
10, 36630, Note_on_c, 9, 54, 37
10, 36631, Note_on_c, 9, 54, 0
10, 36660, Note_on_c, 9, 82, 73
10, 36660, Note_on_c, 9, 54, 56
10, 36661, Note_on_c, 9, 54, 0
10, 36661, Note_on_c, 9, 82, 0
10, 36690, Note_on_c, 9, 70, 86
10, 36690, Note_on_c, 9, 54, 52
10, 36691, Note_on_c, 9, 54, 0
10, 36691, Note_on_c, 9, 70, 0
10, 36720, Note_on_c, 9, 35, 117
10, 36720, Note_on_c, 9, 70, 75
10, 36720, Note_on_c, 9, 54, 77
10, 36721, Note_on_c, 9, 54, 0
10, 36721, Note_on_c, 9, 70, 0
10, 36721, Note_on_c, 9, 35, 0
10, 36750, Note_on_c, 9, 54, 31
10, 36751, Note_on_c, 9, 54, 0
10, 36780, Note_on_c, 9, 82, 68
10, 36780, Note_on_c, 9, 54, 42
10, 36781, Note_on_c, 9, 54, 0
10, 36781, Note_on_c, 9, 82, 0
10, 36810, Note_on_c, 9, 70, 74
10, 36810, Note_on_c, 9, 54, 40
10, 36811, Note_on_c, 9, 54, 0
10, 36811, Note_on_c, 9, 70, 0
10, 36839, Note_on_c, 9, 55, 67
10, 36840, Note_on_c, 9, 55, 0
10, 36840, Note_on_c, 9, 40, 111
10, 36840, Note_on_c, 9, 70, 66
10, 36840, Note_on_c, 9, 54, 70
10, 36841, Note_on_c, 9, 54, 0
10, 36841, Note_on_c, 9, 70, 0
10, 36841, Note_on_c, 9, 40, 0
10, 36870, Note_on_c, 9, 54, 44
10, 36871, Note_on_c, 9, 54, 0
10, 36900, Note_on_c, 9, 82, 71
10, 36900, Note_on_c, 9, 54, 42
10, 36901, Note_on_c, 9, 54, 0
10, 36901, Note_on_c, 9, 82, 0
10, 36930, Note_on_c, 9, 40, 114
10, 36930, Note_on_c, 9, 70, 92
10, 36930, Note_on_c, 9, 54, 56
10, 36931, Note_on_c, 9, 54, 0
10, 36931, Note_on_c, 9, 70, 0
10, 36931, Note_on_c, 9, 40, 0
10, 36960, Note_on_c, 9, 52, 92
10, 36960, Note_on_c, 9, 35, 117
10, 36960, Note_on_c, 9, 70, 82
10, 36960, Note_on_c, 9, 54, 77
10, 36961, Note_on_c, 9, 54, 0
10, 36961, Note_on_c, 9, 52, 0
10, 36961, Note_on_c, 9, 35, 0
10, 36961, Note_on_c, 9, 70, 0
10, 36990, Note_on_c, 9, 54, 46
10, 36991, Note_on_c, 9, 54, 0
10, 37020, Note_on_c, 9, 82, 69
10, 37020, Note_on_c, 9, 54, 46
10, 37021, Note_on_c, 9, 54, 0
10, 37021, Note_on_c, 9, 82, 0
10, 37050, Note_on_c, 9, 70, 86
10, 37050, Note_on_c, 9, 54, 52
10, 37051, Note_on_c, 9, 54, 0
10, 37051, Note_on_c, 9, 70, 0
10, 37079, Note_on_c, 9, 55, 56
10, 37080, Note_on_c, 9, 55, 0
10, 37080, Note_on_c, 9, 40, 111
10, 37080, Note_on_c, 9, 70, 81
10, 37080, Note_on_c, 9, 54, 67
10, 37081, Note_on_c, 9, 54, 0
10, 37081, Note_on_c, 9, 70, 0
10, 37081, Note_on_c, 9, 40, 0
10, 37110, Note_on_c, 9, 54, 29
10, 37111, Note_on_c, 9, 54, 0
10, 37140, Note_on_c, 9, 82, 69
10, 37140, Note_on_c, 9, 54, 49
10, 37141, Note_on_c, 9, 54, 0
10, 37141, Note_on_c, 9, 82, 0
10, 37170, Note_on_c, 9, 70, 88
10, 37170, Note_on_c, 9, 54, 61
10, 37171, Note_on_c, 9, 54, 0
10, 37171, Note_on_c, 9, 70, 0
10, 37200, Note_on_c, 9, 35, 126
10, 37200, Note_on_c, 9, 70, 72
10, 37200, Note_on_c, 9, 54, 65
10, 37201, Note_on_c, 9, 54, 0
10, 37201, Note_on_c, 9, 70, 0
10, 37201, Note_on_c, 9, 35, 0
10, 37230, Note_on_c, 9, 54, 30
10, 37231, Note_on_c, 9, 54, 0
10, 37260, Note_on_c, 9, 82, 66
10, 37260, Note_on_c, 9, 54, 48
10, 37261, Note_on_c, 9, 54, 0
10, 37261, Note_on_c, 9, 82, 0
10, 37290, Note_on_c, 9, 70, 88
10, 37290, Note_on_c, 9, 54, 60
10, 37291, Note_on_c, 9, 54, 0
10, 37291, Note_on_c, 9, 70, 0
10, 37319, Note_on_c, 9, 55, 65
10, 37320, Note_on_c, 9, 55, 0
10, 37320, Note_on_c, 9, 40, 108
10, 37320, Note_on_c, 9, 70, 80
10, 37320, Note_on_c, 9, 54, 67
10, 37321, Note_on_c, 9, 54, 0
10, 37321, Note_on_c, 9, 70, 0
10, 37321, Note_on_c, 9, 40, 0
10, 37350, Note_on_c, 9, 54, 52
10, 37351, Note_on_c, 9, 54, 0
10, 37380, Note_on_c, 9, 82, 71
10, 37380, Note_on_c, 9, 54, 46
10, 37381, Note_on_c, 9, 54, 0
10, 37381, Note_on_c, 9, 82, 0
10, 37410, Note_on_c, 9, 70, 80
10, 37410, Note_on_c, 9, 54, 56
10, 37411, Note_on_c, 9, 54, 0
10, 37411, Note_on_c, 9, 70, 0
10, 37440, Control_c, 9, 98, 39
10, 37440, Note_on_c, 9, 35, 123
10, 37440, Note_on_c, 9, 70, 72
10, 37440, Note_on_c, 9, 54, 81
10, 37441, Note_on_c, 9, 54, 0
10, 37441, Note_on_c, 9, 70, 0
10, 37441, Note_on_c, 9, 35, 0
10, 37441, Control_c, 9, 99, 29
10, 37443, Control_c, 9, 6, 80
10, 37443, Control_c, 9, 98, 39
10, 37445, Control_c, 9, 99, 24
10, 37447, Control_c, 9, 6, 63
10, 37447, Control_c, 9, 98, 39
10, 37449, Control_c, 9, 99, 28
10, 37451, Control_c, 9, 6, 72
10, 37470, Note_on_c, 9, 54, 52
10, 37471, Note_on_c, 9, 54, 0
10, 37500, Note_on_c, 9, 82, 63
10, 37500, Note_on_c, 9, 54, 45
10, 37501, Note_on_c, 9, 54, 0
10, 37501, Note_on_c, 9, 82, 0
10, 37530, Note_on_c, 9, 70, 75
10, 37530, Note_on_c, 9, 54, 44
10, 37531, Note_on_c, 9, 54, 0
10, 37531, Note_on_c, 9, 70, 0
10, 37559, Note_on_c, 9, 55, 65
10, 37560, Note_on_c, 9, 55, 0
10, 37560, Note_on_c, 9, 40, 111
10, 37560, Note_on_c, 9, 70, 75
10, 37560, Note_on_c, 9, 54, 70
10, 37561, Note_on_c, 9, 54, 0
10, 37561, Note_on_c, 9, 70, 0
10, 37561, Note_on_c, 9, 40, 0
10, 37590, Note_on_c, 9, 54, 37
10, 37591, Note_on_c, 9, 54, 0
10, 37620, Note_on_c, 9, 82, 73
10, 37620, Note_on_c, 9, 54, 56
10, 37621, Note_on_c, 9, 54, 0
10, 37621, Note_on_c, 9, 82, 0
10, 37650, Note_on_c, 9, 40, 111
10, 37650, Note_on_c, 9, 70, 86
10, 37650, Note_on_c, 9, 54, 52
10, 37651, Note_on_c, 9, 54, 0
10, 37651, Note_on_c, 9, 70, 0
10, 37651, Note_on_c, 9, 40, 0
10, 37680, Note_on_c, 9, 35, 117
10, 37680, Note_on_c, 9, 70, 75
10, 37680, Note_on_c, 9, 54, 77
10, 37681, Note_on_c, 9, 54, 0
10, 37681, Note_on_c, 9, 70, 0
10, 37681, Note_on_c, 9, 35, 0
10, 37710, Note_on_c, 9, 54, 31
10, 37711, Note_on_c, 9, 54, 0
10, 37740, Note_on_c, 9, 45, 107
10, 37740, Note_on_c, 9, 82, 68
10, 37740, Note_on_c, 9, 54, 42
10, 37741, Note_on_c, 9, 54, 0
10, 37741, Note_on_c, 9, 82, 0
10, 37741, Note_on_c, 9, 45, 0
10, 37770, Note_on_c, 9, 70, 74
10, 37770, Note_on_c, 9, 54, 40
10, 37771, Note_on_c, 9, 54, 0
10, 37771, Note_on_c, 9, 70, 0
10, 37799, Note_on_c, 9, 55, 67
10, 37800, Note_on_c, 9, 55, 0
10, 37800, Note_on_c, 9, 40, 111
10, 37800, Note_on_c, 9, 70, 66
10, 37800, Note_on_c, 9, 54, 70
10, 37801, Note_on_c, 9, 54, 0
10, 37801, Note_on_c, 9, 70, 0
10, 37801, Note_on_c, 9, 40, 0
10, 37830, Note_on_c, 9, 54, 44
10, 37831, Note_on_c, 9, 54, 0
10, 37860, Note_on_c, 9, 35, 126
10, 37860, Note_on_c, 9, 82, 71
10, 37860, Note_on_c, 9, 54, 42
10, 37861, Note_on_c, 9, 54, 0
10, 37861, Note_on_c, 9, 82, 0
10, 37861, Note_on_c, 9, 35, 0
10, 37890, Note_on_c, 9, 70, 92
10, 37890, Note_on_c, 9, 54, 56
10, 37891, Note_on_c, 9, 54, 0
10, 37891, Note_on_c, 9, 70, 0
10, 37920, Note_on_c, 9, 35, 117
10, 37920, Note_on_c, 9, 70, 82
10, 37920, Note_on_c, 9, 54, 77
10, 37921, Note_on_c, 9, 54, 0
10, 37921, Note_on_c, 9, 70, 0
10, 37921, Note_on_c, 9, 35, 0
10, 37950, Note_on_c, 9, 54, 46
10, 37951, Note_on_c, 9, 54, 0
10, 37980, Note_on_c, 9, 82, 69
10, 37980, Note_on_c, 9, 54, 46
10, 37981, Note_on_c, 9, 54, 0
10, 37981, Note_on_c, 9, 82, 0
10, 38010, Note_on_c, 9, 70, 86
10, 38010, Note_on_c, 9, 54, 52
10, 38011, Note_on_c, 9, 54, 0
10, 38011, Note_on_c, 9, 70, 0
10, 38040, Note_on_c, 9, 40, 111
10, 38040, Note_on_c, 9, 70, 81
10, 38040, Note_on_c, 9, 54, 67
10, 38041, Note_on_c, 9, 54, 0
10, 38041, Note_on_c, 9, 70, 0
10, 38041, Note_on_c, 9, 40, 0
10, 38043, Note_on_c, 9, 39, 90
10, 38044, Note_on_c, 9, 39, 0
10, 38070, Note_on_c, 9, 54, 29
10, 38071, Note_on_c, 9, 54, 0
10, 38100, Note_on_c, 9, 82, 69
10, 38100, Note_on_c, 9, 54, 49
10, 38101, Note_on_c, 9, 54, 0
10, 38101, Note_on_c, 9, 82, 0
10, 38130, Note_on_c, 9, 70, 88
10, 38130, Note_on_c, 9, 54, 61
10, 38131, Note_on_c, 9, 54, 0
10, 38131, Note_on_c, 9, 70, 0
10, 38160, Note_on_c, 9, 35, 126
10, 38160, Note_on_c, 9, 70, 72
10, 38160, Note_on_c, 9, 54, 65
10, 38161, Note_on_c, 9, 54, 0
10, 38161, Note_on_c, 9, 70, 0
10, 38161, Note_on_c, 9, 35, 0
10, 38190, Note_on_c, 9, 54, 30
10, 38191, Note_on_c, 9, 54, 0
10, 38220, Note_on_c, 9, 82, 66
10, 38220, Note_on_c, 9, 54, 48
10, 38221, Note_on_c, 9, 54, 0
10, 38221, Note_on_c, 9, 82, 0
10, 38250, Note_on_c, 9, 70, 88
10, 38250, Note_on_c, 9, 54, 60
10, 38251, Note_on_c, 9, 54, 0
10, 38251, Note_on_c, 9, 70, 0
10, 38279, Note_on_c, 9, 39, 90
10, 38280, Note_on_c, 9, 39, 0
10, 38280, Note_on_c, 9, 40, 108
10, 38280, Note_on_c, 9, 70, 80
10, 38280, Note_on_c, 9, 54, 67
10, 38281, Note_on_c, 9, 54, 0
10, 38281, Note_on_c, 9, 70, 0
10, 38281, Note_on_c, 9, 40, 0
10, 38310, Note_on_c, 9, 54, 52
10, 38311, Note_on_c, 9, 54, 0
10, 38340, Note_on_c, 9, 82, 71
10, 38340, Note_on_c, 9, 54, 46
10, 38341, Note_on_c, 9, 54, 0
10, 38341, Note_on_c, 9, 82, 0
10, 38370, Note_on_c, 9, 70, 80
10, 38370, Note_on_c, 9, 54, 56
10, 38371, Note_on_c, 9, 54, 0
10, 38371, Note_on_c, 9, 70, 0
10, 38400, Note_on_c, 9, 35, 123
10, 38400, Note_on_c, 9, 70, 72
10, 38400, Note_on_c, 9, 54, 81
10, 38401, Note_on_c, 9, 54, 0
10, 38401, Note_on_c, 9, 70, 0
10, 38401, Note_on_c, 9, 35, 0
10, 38430, Note_on_c, 9, 54, 52
10, 38431, Note_on_c, 9, 54, 0
10, 38460, Note_on_c, 9, 82, 63
10, 38460, Note_on_c, 9, 54, 45
10, 38461, Note_on_c, 9, 54, 0
10, 38461, Note_on_c, 9, 82, 0
10, 38490, Note_on_c, 9, 70, 75
10, 38490, Note_on_c, 9, 54, 44
10, 38491, Note_on_c, 9, 54, 0
10, 38491, Note_on_c, 9, 70, 0
10, 38520, Note_on_c, 9, 35, 123
10, 38520, Note_on_c, 9, 70, 75
10, 38520, Note_on_c, 9, 54, 70
10, 38520, Note_on_c, 9, 39, 90
10, 38521, Note_on_c, 9, 39, 0
10, 38521, Note_on_c, 9, 35, 0
10, 38521, Note_on_c, 9, 70, 0
10, 38521, Note_on_c, 9, 54, 0
10, 38550, Note_on_c, 9, 54, 37
10, 38551, Note_on_c, 9, 54, 0
10, 38580, Note_on_c, 9, 82, 73
10, 38580, Note_on_c, 9, 54, 56
10, 38581, Note_on_c, 9, 54, 0
10, 38581, Note_on_c, 9, 82, 0
10, 38610, Note_on_c, 9, 70, 86
10, 38610, Note_on_c, 9, 54, 52
10, 38611, Note_on_c, 9, 54, 0
10, 38611, Note_on_c, 9, 70, 0
10, 38640, Note_on_c, 9, 35, 117
10, 38640, Note_on_c, 9, 70, 75
10, 38640, Note_on_c, 9, 54, 77
10, 38641, Note_on_c, 9, 54, 0
10, 38641, Note_on_c, 9, 70, 0
10, 38641, Note_on_c, 9, 35, 0
10, 38670, Note_on_c, 9, 54, 31
10, 38671, Note_on_c, 9, 54, 0
10, 38700, Note_on_c, 9, 82, 68
10, 38700, Note_on_c, 9, 54, 42
10, 38701, Note_on_c, 9, 54, 0
10, 38701, Note_on_c, 9, 82, 0
10, 38730, Note_on_c, 9, 70, 74
10, 38730, Note_on_c, 9, 54, 40
10, 38731, Note_on_c, 9, 54, 0
10, 38731, Note_on_c, 9, 70, 0
10, 38760, Note_on_c, 9, 35, 126
10, 38760, Note_on_c, 9, 70, 66
10, 38760, Note_on_c, 9, 54, 70
10, 38761, Note_on_c, 9, 54, 0
10, 38761, Note_on_c, 9, 70, 0
10, 38761, Note_on_c, 9, 35, 0
10, 38762, Note_on_c, 9, 39, 90
10, 38763, Note_on_c, 9, 39, 0
10, 38790, Note_on_c, 9, 54, 44
10, 38791, Note_on_c, 9, 54, 0
10, 38820, Note_on_c, 9, 82, 71
10, 38820, Note_on_c, 9, 54, 42
10, 38821, Note_on_c, 9, 54, 0
10, 38821, Note_on_c, 9, 82, 0
10, 38850, Note_on_c, 9, 70, 92
10, 38850, Note_on_c, 9, 54, 56
10, 38851, Note_on_c, 9, 54, 0
10, 38851, Note_on_c, 9, 70, 0
10, 38880, Note_on_c, 9, 35, 123
10, 38880, Note_on_c, 9, 70, 82
10, 38880, Note_on_c, 9, 54, 77
10, 38881, Note_on_c, 9, 54, 0
10, 38881, Note_on_c, 9, 70, 0
10, 38881, Note_on_c, 9, 35, 0
10, 38910, Note_on_c, 9, 54, 46
10, 38911, Note_on_c, 9, 54, 0
10, 38940, Note_on_c, 9, 82, 69
10, 38940, Note_on_c, 9, 54, 46
10, 38941, Note_on_c, 9, 54, 0
10, 38941, Note_on_c, 9, 82, 0
10, 38970, Note_on_c, 9, 70, 86
10, 38970, Note_on_c, 9, 54, 52
10, 38971, Note_on_c, 9, 54, 0
10, 38971, Note_on_c, 9, 70, 0
10, 38996, Note_on_c, 9, 39, 90
10, 38997, Note_on_c, 9, 39, 0
10, 39000, Note_on_c, 9, 35, 123
10, 39000, Note_on_c, 9, 70, 81
10, 39000, Note_on_c, 9, 54, 67
10, 39001, Note_on_c, 9, 54, 0
10, 39001, Note_on_c, 9, 70, 0
10, 39001, Note_on_c, 9, 35, 0
10, 39030, Note_on_c, 9, 54, 29
10, 39031, Note_on_c, 9, 54, 0
10, 39060, Note_on_c, 9, 82, 69
10, 39060, Note_on_c, 9, 54, 49
10, 39061, Note_on_c, 9, 54, 0
10, 39061, Note_on_c, 9, 82, 0
10, 39090, Note_on_c, 9, 70, 88
10, 39090, Note_on_c, 9, 54, 61
10, 39091, Note_on_c, 9, 54, 0
10, 39091, Note_on_c, 9, 70, 0
10, 39120, Note_on_c, 9, 35, 117
10, 39120, Note_on_c, 9, 70, 72
10, 39120, Note_on_c, 9, 54, 65
10, 39121, Note_on_c, 9, 54, 0
10, 39121, Note_on_c, 9, 70, 0
10, 39121, Note_on_c, 9, 35, 0
10, 39150, Note_on_c, 9, 54, 30
10, 39151, Note_on_c, 9, 54, 0
10, 39180, Note_on_c, 9, 82, 66
10, 39180, Note_on_c, 9, 54, 48
10, 39181, Note_on_c, 9, 54, 0
10, 39181, Note_on_c, 9, 82, 0
10, 39210, Note_on_c, 9, 70, 88
10, 39210, Note_on_c, 9, 54, 60
10, 39211, Note_on_c, 9, 54, 0
10, 39211, Note_on_c, 9, 70, 0
10, 39240, Note_on_c, 9, 35, 126
10, 39240, Note_on_c, 9, 70, 80
10, 39240, Note_on_c, 9, 54, 67
10, 39240, Note_on_c, 9, 39, 90
10, 39241, Note_on_c, 9, 39, 0
10, 39241, Note_on_c, 9, 35, 0
10, 39241, Note_on_c, 9, 70, 0
10, 39241, Note_on_c, 9, 54, 0
10, 39270, Note_on_c, 9, 54, 52
10, 39271, Note_on_c, 9, 54, 0
10, 39300, Note_on_c, 9, 82, 71
10, 39300, Note_on_c, 9, 54, 46
10, 39301, Note_on_c, 9, 54, 0
10, 39301, Note_on_c, 9, 82, 0
10, 39330, Note_on_c, 9, 70, 80
10, 39330, Note_on_c, 9, 54, 56
10, 39331, Note_on_c, 9, 54, 0
10, 39331, Note_on_c, 9, 70, 0
10, 39360, Note_on_c, 9, 35, 123
10, 39360, Note_on_c, 9, 70, 72
10, 39360, Note_on_c, 9, 54, 81
10, 39361, Note_on_c, 9, 54, 0
10, 39361, Note_on_c, 9, 70, 0
10, 39361, Note_on_c, 9, 35, 0
10, 39390, Note_on_c, 9, 54, 52
10, 39391, Note_on_c, 9, 54, 0
10, 39420, Note_on_c, 9, 82, 63
10, 39420, Note_on_c, 9, 54, 45
10, 39421, Note_on_c, 9, 54, 0
10, 39421, Note_on_c, 9, 82, 0
10, 39450, Note_on_c, 9, 70, 75
10, 39450, Note_on_c, 9, 54, 44
10, 39451, Note_on_c, 9, 54, 0
10, 39451, Note_on_c, 9, 70, 0
10, 39480, Note_on_c, 9, 35, 123
10, 39480, Note_on_c, 9, 70, 75
10, 39480, Note_on_c, 9, 54, 70
10, 39481, Note_on_c, 9, 54, 0
10, 39481, Note_on_c, 9, 70, 0
10, 39481, Note_on_c, 9, 35, 0
10, 39481, Note_on_c, 9, 39, 90
10, 39482, Note_on_c, 9, 39, 0
10, 39510, Note_on_c, 9, 54, 37
10, 39511, Note_on_c, 9, 54, 0
10, 39540, Note_on_c, 9, 82, 73
10, 39540, Note_on_c, 9, 54, 56
10, 39541, Note_on_c, 9, 54, 0
10, 39541, Note_on_c, 9, 82, 0
10, 39570, Note_on_c, 9, 70, 86
10, 39570, Note_on_c, 9, 54, 52
10, 39571, Note_on_c, 9, 54, 0
10, 39571, Note_on_c, 9, 70, 0
10, 39600, Note_on_c, 9, 35, 117
10, 39600, Note_on_c, 9, 70, 75
10, 39600, Note_on_c, 9, 54, 77
10, 39601, Note_on_c, 9, 54, 0
10, 39601, Note_on_c, 9, 70, 0
10, 39601, Note_on_c, 9, 35, 0
10, 39630, Note_on_c, 9, 54, 31
10, 39631, Note_on_c, 9, 54, 0
10, 39660, Note_on_c, 9, 82, 68
10, 39660, Note_on_c, 9, 54, 42
10, 39661, Note_on_c, 9, 54, 0
10, 39661, Note_on_c, 9, 82, 0
10, 39690, Note_on_c, 9, 70, 74
10, 39690, Note_on_c, 9, 54, 40
10, 39691, Note_on_c, 9, 54, 0
10, 39691, Note_on_c, 9, 70, 0
10, 39720, Note_on_c, 9, 35, 126
10, 39720, Note_on_c, 9, 70, 66
10, 39720, Note_on_c, 9, 54, 70
10, 39720, Note_on_c, 9, 39, 90
10, 39721, Note_on_c, 9, 39, 0
10, 39721, Note_on_c, 9, 35, 0
10, 39721, Note_on_c, 9, 70, 0
10, 39721, Note_on_c, 9, 54, 0
10, 39750, Note_on_c, 9, 54, 44
10, 39751, Note_on_c, 9, 54, 0
10, 39780, Note_on_c, 9, 82, 71
10, 39780, Note_on_c, 9, 54, 42
10, 39781, Note_on_c, 9, 54, 0
10, 39781, Note_on_c, 9, 82, 0
10, 39810, Note_on_c, 9, 70, 92
10, 39810, Note_on_c, 9, 54, 56
10, 39811, Note_on_c, 9, 54, 0
10, 39811, Note_on_c, 9, 70, 0
10, 39840, Note_on_c, 9, 35, 117
10, 39840, Note_on_c, 9, 70, 82
10, 39840, Note_on_c, 9, 54, 77
10, 39841, Note_on_c, 9, 54, 0
10, 39841, Note_on_c, 9, 70, 0
10, 39841, Note_on_c, 9, 35, 0
10, 39870, Note_on_c, 9, 54, 46
10, 39871, Note_on_c, 9, 54, 0
10, 39900, Note_on_c, 9, 82, 69
10, 39900, Note_on_c, 9, 54, 46
10, 39901, Note_on_c, 9, 54, 0
10, 39901, Note_on_c, 9, 82, 0
10, 39930, Note_on_c, 9, 70, 86
10, 39930, Note_on_c, 9, 54, 52
10, 39931, Note_on_c, 9, 54, 0
10, 39931, Note_on_c, 9, 70, 0
10, 39960, Note_on_c, 9, 40, 111
10, 39960, Note_on_c, 9, 70, 81
10, 39960, Note_on_c, 9, 54, 67
10, 39961, Note_on_c, 9, 54, 0
10, 39961, Note_on_c, 9, 70, 0
10, 39961, Note_on_c, 9, 40, 0
10, 39963, Note_on_c, 9, 39, 90
10, 39964, Note_on_c, 9, 39, 0
10, 39990, Note_on_c, 9, 54, 29
10, 39991, Note_on_c, 9, 54, 0
10, 40020, Note_on_c, 9, 82, 69
10, 40020, Note_on_c, 9, 54, 49
10, 40021, Note_on_c, 9, 54, 0
10, 40021, Note_on_c, 9, 82, 0
10, 40050, Note_on_c, 9, 70, 88
10, 40050, Note_on_c, 9, 54, 61
10, 40051, Note_on_c, 9, 54, 0
10, 40051, Note_on_c, 9, 70, 0
10, 40080, Note_on_c, 9, 35, 126
10, 40080, Note_on_c, 9, 70, 72
10, 40080, Note_on_c, 9, 54, 65
10, 40081, Note_on_c, 9, 54, 0
10, 40081, Note_on_c, 9, 70, 0
10, 40081, Note_on_c, 9, 35, 0
10, 40110, Note_on_c, 9, 54, 30
10, 40111, Note_on_c, 9, 54, 0
10, 40140, Note_on_c, 9, 82, 66
10, 40140, Note_on_c, 9, 54, 48
10, 40141, Note_on_c, 9, 54, 0
10, 40141, Note_on_c, 9, 82, 0
10, 40170, Note_on_c, 9, 70, 88
10, 40170, Note_on_c, 9, 54, 60
10, 40171, Note_on_c, 9, 54, 0
10, 40171, Note_on_c, 9, 70, 0
10, 40199, Note_on_c, 9, 39, 90
10, 40200, Note_on_c, 9, 39, 0
10, 40200, Note_on_c, 9, 40, 108
10, 40200, Note_on_c, 9, 70, 80
10, 40200, Note_on_c, 9, 54, 67
10, 40201, Note_on_c, 9, 54, 0
10, 40201, Note_on_c, 9, 70, 0
10, 40201, Note_on_c, 9, 40, 0
10, 40230, Note_on_c, 9, 54, 52
10, 40231, Note_on_c, 9, 54, 0
10, 40260, Note_on_c, 9, 82, 71
10, 40260, Note_on_c, 9, 54, 46
10, 40261, Note_on_c, 9, 54, 0
10, 40261, Note_on_c, 9, 82, 0
10, 40290, Note_on_c, 9, 70, 80
10, 40290, Note_on_c, 9, 54, 56
10, 40291, Note_on_c, 9, 54, 0
10, 40291, Note_on_c, 9, 70, 0
10, 40320, Note_on_c, 9, 35, 123
10, 40320, Note_on_c, 9, 70, 72
10, 40320, Note_on_c, 9, 54, 81
10, 40321, Note_on_c, 9, 54, 0
10, 40321, Note_on_c, 9, 70, 0
10, 40321, Note_on_c, 9, 35, 0
10, 40350, Note_on_c, 9, 54, 52
10, 40351, Note_on_c, 9, 54, 0
10, 40380, Note_on_c, 9, 82, 63
10, 40380, Note_on_c, 9, 54, 45
10, 40381, Note_on_c, 9, 54, 0
10, 40381, Note_on_c, 9, 82, 0
10, 40410, Note_on_c, 9, 70, 75
10, 40410, Note_on_c, 9, 54, 44
10, 40411, Note_on_c, 9, 54, 0
10, 40411, Note_on_c, 9, 70, 0
10, 40440, Note_on_c, 9, 35, 123
10, 40440, Note_on_c, 9, 70, 75
10, 40440, Note_on_c, 9, 54, 70
10, 40440, Note_on_c, 9, 39, 90
10, 40441, Note_on_c, 9, 39, 0
10, 40441, Note_on_c, 9, 35, 0
10, 40441, Note_on_c, 9, 70, 0
10, 40441, Note_on_c, 9, 54, 0
10, 40470, Note_on_c, 9, 54, 37
10, 40471, Note_on_c, 9, 54, 0
10, 40500, Note_on_c, 9, 82, 73
10, 40500, Note_on_c, 9, 54, 56
10, 40501, Note_on_c, 9, 54, 0
10, 40501, Note_on_c, 9, 82, 0
10, 40530, Note_on_c, 9, 70, 86
10, 40530, Note_on_c, 9, 54, 52
10, 40531, Note_on_c, 9, 54, 0
10, 40531, Note_on_c, 9, 70, 0
10, 40560, Note_on_c, 9, 35, 117
10, 40560, Note_on_c, 9, 70, 75
10, 40560, Note_on_c, 9, 54, 77
10, 40561, Note_on_c, 9, 54, 0
10, 40561, Note_on_c, 9, 70, 0
10, 40561, Note_on_c, 9, 35, 0
10, 40590, Note_on_c, 9, 54, 31
10, 40591, Note_on_c, 9, 54, 0
10, 40620, Note_on_c, 9, 82, 68
10, 40620, Note_on_c, 9, 54, 42
10, 40621, Note_on_c, 9, 54, 0
10, 40621, Note_on_c, 9, 82, 0
10, 40650, Note_on_c, 9, 70, 74
10, 40650, Note_on_c, 9, 54, 40
10, 40651, Note_on_c, 9, 54, 0
10, 40651, Note_on_c, 9, 70, 0
10, 40680, Note_on_c, 9, 35, 126
10, 40680, Note_on_c, 9, 70, 66
10, 40680, Note_on_c, 9, 54, 70
10, 40681, Note_on_c, 9, 54, 0
10, 40681, Note_on_c, 9, 70, 0
10, 40681, Note_on_c, 9, 35, 0
10, 40682, Note_on_c, 9, 39, 90
10, 40683, Note_on_c, 9, 39, 0
10, 40710, Note_on_c, 9, 54, 44
10, 40711, Note_on_c, 9, 54, 0
10, 40740, Note_on_c, 9, 82, 71
10, 40740, Note_on_c, 9, 54, 42
10, 40741, Note_on_c, 9, 54, 0
10, 40741, Note_on_c, 9, 82, 0
10, 40770, Note_on_c, 9, 70, 92
10, 40770, Note_on_c, 9, 54, 56
10, 40771, Note_on_c, 9, 54, 0
10, 40771, Note_on_c, 9, 70, 0
10, 40800, Note_on_c, 9, 35, 123
10, 40800, Note_on_c, 9, 70, 82
10, 40800, Note_on_c, 9, 54, 77
10, 40801, Note_on_c, 9, 54, 0
10, 40801, Note_on_c, 9, 70, 0
10, 40801, Note_on_c, 9, 35, 0
10, 40830, Note_on_c, 9, 54, 46
10, 40831, Note_on_c, 9, 54, 0
10, 40860, Note_on_c, 9, 82, 69
10, 40860, Note_on_c, 9, 54, 46
10, 40861, Note_on_c, 9, 54, 0
10, 40861, Note_on_c, 9, 82, 0
10, 40890, Note_on_c, 9, 70, 86
10, 40890, Note_on_c, 9, 54, 52
10, 40891, Note_on_c, 9, 54, 0
10, 40891, Note_on_c, 9, 70, 0
10, 40916, Note_on_c, 9, 39, 90
10, 40917, Note_on_c, 9, 39, 0
10, 40920, Note_on_c, 9, 35, 123
10, 40920, Note_on_c, 9, 70, 81
10, 40920, Note_on_c, 9, 54, 67
10, 40921, Note_on_c, 9, 54, 0
10, 40921, Note_on_c, 9, 70, 0
10, 40921, Note_on_c, 9, 35, 0
10, 40950, Note_on_c, 9, 54, 29
10, 40951, Note_on_c, 9, 54, 0
10, 40980, Note_on_c, 9, 82, 69
10, 40980, Note_on_c, 9, 54, 49
10, 40981, Note_on_c, 9, 54, 0
10, 40981, Note_on_c, 9, 82, 0
10, 41010, Note_on_c, 9, 70, 88
10, 41010, Note_on_c, 9, 54, 61
10, 41011, Note_on_c, 9, 54, 0
10, 41011, Note_on_c, 9, 70, 0
10, 41040, Note_on_c, 9, 35, 117
10, 41040, Note_on_c, 9, 70, 72
10, 41040, Note_on_c, 9, 54, 65
10, 41041, Note_on_c, 9, 54, 0
10, 41041, Note_on_c, 9, 70, 0
10, 41041, Note_on_c, 9, 35, 0
10, 41070, Note_on_c, 9, 54, 30
10, 41071, Note_on_c, 9, 54, 0
10, 41100, Note_on_c, 9, 82, 66
10, 41100, Note_on_c, 9, 54, 48
10, 41101, Note_on_c, 9, 54, 0
10, 41101, Note_on_c, 9, 82, 0
10, 41130, Note_on_c, 9, 70, 88
10, 41130, Note_on_c, 9, 54, 60
10, 41131, Note_on_c, 9, 54, 0
10, 41131, Note_on_c, 9, 70, 0
10, 41160, Note_on_c, 9, 35, 126
10, 41160, Note_on_c, 9, 70, 80
10, 41160, Note_on_c, 9, 54, 67
10, 41160, Note_on_c, 9, 39, 90
10, 41161, Note_on_c, 9, 39, 0
10, 41161, Note_on_c, 9, 35, 0
10, 41161, Note_on_c, 9, 70, 0
10, 41161, Note_on_c, 9, 54, 0
10, 41190, Note_on_c, 9, 54, 52
10, 41191, Note_on_c, 9, 54, 0
10, 41220, Note_on_c, 9, 82, 71
10, 41220, Note_on_c, 9, 54, 46
10, 41221, Note_on_c, 9, 54, 0
10, 41221, Note_on_c, 9, 82, 0
10, 41250, Note_on_c, 9, 70, 80
10, 41250, Note_on_c, 9, 54, 56
10, 41251, Note_on_c, 9, 54, 0
10, 41251, Note_on_c, 9, 70, 0
10, 41280, Note_on_c, 9, 35, 123
10, 41280, Note_on_c, 9, 70, 72
10, 41280, Note_on_c, 9, 54, 81
10, 41281, Note_on_c, 9, 54, 0
10, 41281, Note_on_c, 9, 70, 0
10, 41281, Note_on_c, 9, 35, 0
10, 41310, Note_on_c, 9, 54, 52
10, 41311, Note_on_c, 9, 54, 0
10, 41340, Note_on_c, 9, 82, 63
10, 41340, Note_on_c, 9, 54, 45
10, 41341, Note_on_c, 9, 54, 0
10, 41341, Note_on_c, 9, 82, 0
10, 41370, Note_on_c, 9, 70, 75
10, 41370, Note_on_c, 9, 54, 44
10, 41371, Note_on_c, 9, 54, 0
10, 41371, Note_on_c, 9, 70, 0
10, 41400, Note_on_c, 9, 35, 123
10, 41400, Note_on_c, 9, 70, 75
10, 41400, Note_on_c, 9, 54, 70
10, 41401, Note_on_c, 9, 54, 0
10, 41401, Note_on_c, 9, 70, 0
10, 41401, Note_on_c, 9, 35, 0
10, 41401, Note_on_c, 9, 39, 90
10, 41402, Note_on_c, 9, 39, 0
10, 41430, Note_on_c, 9, 54, 37
10, 41431, Note_on_c, 9, 54, 0
10, 41460, Note_on_c, 9, 82, 73
10, 41460, Note_on_c, 9, 54, 56
10, 41461, Note_on_c, 9, 54, 0
10, 41461, Note_on_c, 9, 82, 0
10, 41490, Note_on_c, 9, 70, 86
10, 41490, Note_on_c, 9, 54, 52
10, 41491, Note_on_c, 9, 54, 0
10, 41491, Note_on_c, 9, 70, 0
10, 41520, Note_on_c, 9, 35, 117
10, 41520, Note_on_c, 9, 70, 75
10, 41520, Note_on_c, 9, 54, 77
10, 41521, Note_on_c, 9, 54, 0
10, 41521, Note_on_c, 9, 70, 0
10, 41521, Note_on_c, 9, 35, 0
10, 41550, Note_on_c, 9, 54, 31
10, 41551, Note_on_c, 9, 54, 0
10, 41580, Note_on_c, 9, 82, 68
10, 41580, Note_on_c, 9, 54, 42
10, 41581, Note_on_c, 9, 54, 0
10, 41581, Note_on_c, 9, 82, 0
10, 41610, Note_on_c, 9, 70, 74
10, 41610, Note_on_c, 9, 54, 40
10, 41611, Note_on_c, 9, 54, 0
10, 41611, Note_on_c, 9, 70, 0
10, 41640, Note_on_c, 9, 35, 126
10, 41640, Note_on_c, 9, 70, 66
10, 41640, Note_on_c, 9, 54, 70
10, 41640, Note_on_c, 9, 39, 90
10, 41641, Note_on_c, 9, 39, 0
10, 41641, Note_on_c, 9, 35, 0
10, 41641, Note_on_c, 9, 70, 0
10, 41641, Note_on_c, 9, 54, 0
10, 41670, Note_on_c, 9, 54, 44
10, 41671, Note_on_c, 9, 54, 0
10, 41700, Note_on_c, 9, 82, 71
10, 41700, Note_on_c, 9, 54, 42
10, 41701, Note_on_c, 9, 54, 0
10, 41701, Note_on_c, 9, 82, 0
10, 41730, Note_on_c, 9, 70, 92
10, 41730, Note_on_c, 9, 54, 56
10, 41731, Note_on_c, 9, 54, 0
10, 41731, Note_on_c, 9, 70, 0
10, 41760, Note_on_c, 9, 52, 92
10, 41760, Note_on_c, 9, 35, 117
10, 41760, Note_on_c, 9, 70, 82
10, 41760, Note_on_c, 9, 54, 77
10, 41761, Note_on_c, 9, 54, 0
10, 41761, Note_on_c, 9, 52, 0
10, 41761, Note_on_c, 9, 35, 0
10, 41761, Note_on_c, 9, 70, 0
10, 41790, Note_on_c, 9, 54, 46
10, 41791, Note_on_c, 9, 54, 0
10, 41820, Note_on_c, 9, 82, 69
10, 41820, Note_on_c, 9, 54, 46
10, 41821, Note_on_c, 9, 54, 0
10, 41821, Note_on_c, 9, 82, 0
10, 41850, Note_on_c, 9, 70, 86
10, 41850, Note_on_c, 9, 54, 52
10, 41851, Note_on_c, 9, 54, 0
10, 41851, Note_on_c, 9, 70, 0
10, 41879, Note_on_c, 9, 55, 56
10, 41880, Note_on_c, 9, 55, 0
10, 41880, Note_on_c, 9, 40, 111
10, 41880, Note_on_c, 9, 70, 81
10, 41880, Note_on_c, 9, 54, 67
10, 41881, Note_on_c, 9, 54, 0
10, 41881, Note_on_c, 9, 70, 0
10, 41881, Note_on_c, 9, 40, 0
10, 41910, Note_on_c, 9, 54, 29
10, 41911, Note_on_c, 9, 54, 0
10, 41940, Note_on_c, 9, 82, 69
10, 41940, Note_on_c, 9, 54, 49
10, 41941, Note_on_c, 9, 54, 0
10, 41941, Note_on_c, 9, 82, 0
10, 41970, Note_on_c, 9, 70, 88
10, 41970, Note_on_c, 9, 54, 61
10, 41971, Note_on_c, 9, 54, 0
10, 41971, Note_on_c, 9, 70, 0
10, 42000, Note_on_c, 9, 35, 126
10, 42000, Note_on_c, 9, 70, 72
10, 42000, Note_on_c, 9, 54, 65
10, 42001, Note_on_c, 9, 54, 0
10, 42001, Note_on_c, 9, 70, 0
10, 42001, Note_on_c, 9, 35, 0
10, 42030, Note_on_c, 9, 54, 30
10, 42031, Note_on_c, 9, 54, 0
10, 42060, Note_on_c, 9, 82, 66
10, 42060, Note_on_c, 9, 54, 48
10, 42061, Note_on_c, 9, 54, 0
10, 42061, Note_on_c, 9, 82, 0
10, 42090, Note_on_c, 9, 70, 88
10, 42090, Note_on_c, 9, 54, 60
10, 42091, Note_on_c, 9, 54, 0
10, 42091, Note_on_c, 9, 70, 0
10, 42119, Note_on_c, 9, 55, 65
10, 42120, Note_on_c, 9, 55, 0
10, 42120, Note_on_c, 9, 40, 112
10, 42120, Note_on_c, 9, 70, 80
10, 42120, Note_on_c, 9, 54, 67
10, 42121, Note_on_c, 9, 54, 0
10, 42121, Note_on_c, 9, 70, 0
10, 42121, Note_on_c, 9, 40, 0
10, 42150, Note_on_c, 9, 54, 52
10, 42151, Note_on_c, 9, 54, 0
10, 42180, Note_on_c, 9, 82, 71
10, 42180, Note_on_c, 9, 54, 46
10, 42181, Note_on_c, 9, 54, 0
10, 42181, Note_on_c, 9, 82, 0
10, 42210, Note_on_c, 9, 70, 80
10, 42210, Note_on_c, 9, 54, 56
10, 42211, Note_on_c, 9, 54, 0
10, 42211, Note_on_c, 9, 70, 0
10, 42240, Note_on_c, 9, 35, 123
10, 42240, Note_on_c, 9, 70, 72
10, 42240, Note_on_c, 9, 54, 81
10, 42241, Note_on_c, 9, 54, 0
10, 42241, Note_on_c, 9, 70, 0
10, 42241, Note_on_c, 9, 35, 0
10, 42270, Note_on_c, 9, 54, 52
10, 42271, Note_on_c, 9, 54, 0
10, 42300, Note_on_c, 9, 82, 63
10, 42300, Note_on_c, 9, 54, 45
10, 42301, Note_on_c, 9, 54, 0
10, 42301, Note_on_c, 9, 82, 0
10, 42330, Note_on_c, 9, 70, 75
10, 42330, Note_on_c, 9, 54, 44
10, 42331, Note_on_c, 9, 54, 0
10, 42331, Note_on_c, 9, 70, 0
10, 42359, Note_on_c, 9, 55, 65
10, 42360, Note_on_c, 9, 55, 0
10, 42360, Note_on_c, 9, 40, 111
10, 42360, Note_on_c, 9, 70, 75
10, 42360, Note_on_c, 9, 54, 70
10, 42361, Note_on_c, 9, 54, 0
10, 42361, Note_on_c, 9, 70, 0
10, 42361, Note_on_c, 9, 40, 0
10, 42390, Note_on_c, 9, 54, 37
10, 42391, Note_on_c, 9, 54, 0
10, 42420, Note_on_c, 9, 82, 73
10, 42420, Note_on_c, 9, 54, 56
10, 42421, Note_on_c, 9, 54, 0
10, 42421, Note_on_c, 9, 82, 0
10, 42450, Note_on_c, 9, 70, 86
10, 42450, Note_on_c, 9, 54, 52
10, 42451, Note_on_c, 9, 54, 0
10, 42451, Note_on_c, 9, 70, 0
10, 42480, Note_on_c, 9, 57, 85
10, 42480, Note_on_c, 9, 35, 117
10, 42480, Note_on_c, 9, 70, 75
10, 42480, Note_on_c, 9, 54, 77
10, 42481, Note_on_c, 9, 54, 0
10, 42481, Note_on_c, 9, 57, 0
10, 42481, Note_on_c, 9, 35, 0
10, 42481, Note_on_c, 9, 70, 0
10, 42510, Note_on_c, 9, 54, 31
10, 42511, Note_on_c, 9, 54, 0
10, 42540, Note_on_c, 9, 82, 68
10, 42540, Note_on_c, 9, 54, 42
10, 42541, Note_on_c, 9, 54, 0
10, 42541, Note_on_c, 9, 82, 0
10, 42570, Note_on_c, 9, 70, 74
10, 42570, Note_on_c, 9, 54, 40
10, 42571, Note_on_c, 9, 54, 0
10, 42571, Note_on_c, 9, 70, 0
10, 42600, Note_on_c, 9, 57, 85
10, 42600, Note_on_c, 9, 40, 105
10, 42600, Note_on_c, 9, 70, 66
10, 42600, Note_on_c, 9, 54, 70
10, 42601, Note_on_c, 9, 54, 0
10, 42601, Note_on_c, 9, 57, 0
10, 42601, Note_on_c, 9, 40, 0
10, 42601, Note_on_c, 9, 70, 0
10, 42630, Note_on_c, 9, 54, 44
10, 42631, Note_on_c, 9, 54, 0
10, 42660, Note_on_c, 9, 40, 105
10, 42660, Note_on_c, 9, 82, 71
10, 42660, Note_on_c, 9, 54, 42
10, 42661, Note_on_c, 9, 54, 0
10, 42661, Note_on_c, 9, 82, 0
10, 42661, Note_on_c, 9, 40, 0
10, 42690, Note_on_c, 9, 40, 105
10, 42690, Note_on_c, 9, 70, 92
10, 42690, Note_on_c, 9, 54, 56
10, 42691, Note_on_c, 9, 54, 0
10, 42691, Note_on_c, 9, 70, 0
10, 42691, Note_on_c, 9, 40, 0
10, 42720, Note_on_c, 9, 35, 109
10, 42720, Note_on_c, 9, 70, 82
10, 42720, Note_on_c, 9, 54, 81
10, 42721, Note_on_c, 9, 54, 0
10, 42721, Note_on_c, 9, 70, 0
10, 42721, Note_on_c, 9, 35, 0
10, 42750, Note_on_c, 9, 54, 42
10, 42751, Note_on_c, 9, 54, 0
10, 42780, Note_on_c, 9, 82, 69
10, 42780, Note_on_c, 9, 54, 36
10, 42781, Note_on_c, 9, 54, 0
10, 42781, Note_on_c, 9, 82, 0
10, 42810, Note_on_c, 9, 70, 86
10, 42810, Note_on_c, 9, 54, 35
10, 42811, Note_on_c, 9, 54, 0
10, 42811, Note_on_c, 9, 70, 0
10, 42839, Note_on_c, 9, 55, 61
10, 42840, Note_on_c, 9, 55, 0
10, 42840, Note_on_c, 9, 40, 105
10, 42840, Note_on_c, 9, 70, 81
10, 42840, Note_on_c, 9, 54, 81
10, 42841, Note_on_c, 9, 54, 0
10, 42841, Note_on_c, 9, 70, 0
10, 42841, Note_on_c, 9, 40, 0
10, 42870, Note_on_c, 9, 54, 40
10, 42871, Note_on_c, 9, 54, 0
10, 42900, Note_on_c, 9, 82, 69
10, 42900, Note_on_c, 9, 54, 52
10, 42901, Note_on_c, 9, 54, 0
10, 42901, Note_on_c, 9, 82, 0
10, 42930, Note_on_c, 9, 70, 88
10, 42930, Note_on_c, 9, 54, 46
10, 42931, Note_on_c, 9, 54, 0
10, 42931, Note_on_c, 9, 70, 0
10, 42960, Note_on_c, 9, 35, 123
10, 42960, Note_on_c, 9, 70, 72
10, 42960, Note_on_c, 9, 54, 75
10, 42961, Note_on_c, 9, 54, 0
10, 42961, Note_on_c, 9, 70, 0
10, 42961, Note_on_c, 9, 35, 0
10, 42990, Note_on_c, 9, 54, 20
10, 42991, Note_on_c, 9, 54, 0
10, 43020, Note_on_c, 9, 82, 66
10, 43020, Note_on_c, 9, 54, 37
10, 43021, Note_on_c, 9, 54, 0
10, 43021, Note_on_c, 9, 82, 0
10, 43050, Note_on_c, 9, 70, 88
10, 43050, Note_on_c, 9, 54, 52
10, 43051, Note_on_c, 9, 54, 0
10, 43051, Note_on_c, 9, 70, 0
10, 43079, Note_on_c, 9, 55, 61
10, 43080, Note_on_c, 9, 55, 0
10, 43080, Note_on_c, 9, 40, 111
10, 43080, Note_on_c, 9, 70, 80
10, 43080, Note_on_c, 9, 54, 77
10, 43081, Note_on_c, 9, 54, 0
10, 43081, Note_on_c, 9, 70, 0
10, 43081, Note_on_c, 9, 40, 0
10, 43110, Note_on_c, 9, 54, 52
10, 43111, Note_on_c, 9, 54, 0
10, 43140, Note_on_c, 9, 82, 71
10, 43140, Note_on_c, 9, 54, 56
10, 43141, Note_on_c, 9, 54, 0
10, 43141, Note_on_c, 9, 82, 0
10, 43170, Note_on_c, 9, 70, 80
10, 43170, Note_on_c, 9, 54, 52
10, 43171, Note_on_c, 9, 54, 0
10, 43171, Note_on_c, 9, 70, 0
10, 43200, Note_on_c, 9, 35, 117
10, 43200, Note_on_c, 9, 70, 72
10, 43200, Note_on_c, 9, 54, 77
10, 43201, Note_on_c, 9, 54, 0
10, 43201, Note_on_c, 9, 70, 0
10, 43201, Note_on_c, 9, 35, 0
10, 43230, Note_on_c, 9, 54, 30
10, 43231, Note_on_c, 9, 54, 0
10, 43260, Note_on_c, 9, 82, 63
10, 43260, Note_on_c, 9, 54, 44
10, 43261, Note_on_c, 9, 54, 0
10, 43261, Note_on_c, 9, 82, 0
10, 43290, Note_on_c, 9, 70, 75
10, 43290, Note_on_c, 9, 54, 44
10, 43291, Note_on_c, 9, 54, 0
10, 43291, Note_on_c, 9, 70, 0
10, 43319, Note_on_c, 9, 55, 67
10, 43320, Note_on_c, 9, 55, 0
10, 43320, Note_on_c, 9, 40, 114
10, 43320, Note_on_c, 9, 70, 75
10, 43320, Note_on_c, 9, 54, 70
10, 43321, Note_on_c, 9, 54, 0
10, 43321, Note_on_c, 9, 70, 0
10, 43321, Note_on_c, 9, 40, 0
10, 43350, Note_on_c, 9, 54, 32
10, 43351, Note_on_c, 9, 54, 0
10, 43380, Note_on_c, 9, 82, 73
10, 43380, Note_on_c, 9, 54, 54
10, 43381, Note_on_c, 9, 54, 0
10, 43381, Note_on_c, 9, 82, 0
10, 43410, Note_on_c, 9, 70, 86
10, 43410, Note_on_c, 9, 54, 61
10, 43411, Note_on_c, 9, 54, 0
10, 43411, Note_on_c, 9, 70, 0
10, 43440, Note_on_c, 9, 35, 117
10, 43440, Note_on_c, 9, 70, 75
10, 43440, Note_on_c, 9, 54, 65
10, 43441, Note_on_c, 9, 54, 0
10, 43441, Note_on_c, 9, 70, 0
10, 43441, Note_on_c, 9, 35, 0
10, 43470, Note_on_c, 9, 54, 31
10, 43471, Note_on_c, 9, 54, 0
10, 43500, Note_on_c, 9, 54, 61
10, 43501, Note_on_c, 9, 54, 0
10, 43530, Note_on_c, 9, 54, 52
10, 43531, Note_on_c, 9, 54, 0
10, 43559, Note_on_c, 9, 55, 65
10, 43560, Note_on_c, 9, 55, 0
10, 43560, Note_on_c, 9, 40, 115
10, 43560, Note_on_c, 9, 54, 81
10, 43561, Note_on_c, 9, 54, 0
10, 43561, Note_on_c, 9, 40, 0
10, 43590, Note_on_c, 9, 54, 33
10, 43591, Note_on_c, 9, 54, 0
10, 43620, Note_on_c, 9, 40, 101
10, 43620, Note_on_c, 9, 54, 36
10, 43621, Note_on_c, 9, 54, 0
10, 43621, Note_on_c, 9, 40, 0
10, 43650, Note_on_c, 9, 40, 97
10, 43650, Note_on_c, 9, 54, 52
10, 43651, Note_on_c, 9, 54, 0
10, 43651, Note_on_c, 9, 40, 0
10, 43680, Note_on_c, 9, 35, 117
10, 43680, Note_on_c, 9, 70, 82
10, 43680, Note_on_c, 9, 54, 77
10, 43681, Note_on_c, 9, 54, 0
10, 43681, Note_on_c, 9, 70, 0
10, 43681, Note_on_c, 9, 35, 0
10, 43710, Note_on_c, 9, 54, 46
10, 43711, Note_on_c, 9, 54, 0
10, 43740, Note_on_c, 9, 82, 69
10, 43740, Note_on_c, 9, 54, 46
10, 43741, Note_on_c, 9, 54, 0
10, 43741, Note_on_c, 9, 82, 0
10, 43770, Note_on_c, 9, 70, 86
10, 43770, Note_on_c, 9, 54, 52
10, 43771, Note_on_c, 9, 54, 0
10, 43771, Note_on_c, 9, 70, 0
10, 43799, Note_on_c, 9, 55, 54
10, 43800, Note_on_c, 9, 55, 0
10, 43800, Note_on_c, 9, 40, 111
10, 43800, Note_on_c, 9, 70, 81
10, 43800, Note_on_c, 9, 54, 67
10, 43801, Note_on_c, 9, 54, 0
10, 43801, Note_on_c, 9, 70, 0
10, 43801, Note_on_c, 9, 40, 0
10, 43830, Note_on_c, 9, 54, 29
10, 43831, Note_on_c, 9, 54, 0
10, 43860, Note_on_c, 9, 82, 69
10, 43860, Note_on_c, 9, 54, 49
10, 43861, Note_on_c, 9, 54, 0
10, 43861, Note_on_c, 9, 82, 0
10, 43890, Note_on_c, 9, 70, 88
10, 43890, Note_on_c, 9, 54, 61
10, 43891, Note_on_c, 9, 54, 0
10, 43891, Note_on_c, 9, 70, 0
10, 43920, Note_on_c, 9, 35, 126
10, 43920, Note_on_c, 9, 70, 72
10, 43920, Note_on_c, 9, 54, 65
10, 43921, Note_on_c, 9, 54, 0
10, 43921, Note_on_c, 9, 70, 0
10, 43921, Note_on_c, 9, 35, 0
10, 43950, Note_on_c, 9, 54, 30
10, 43951, Note_on_c, 9, 54, 0
10, 43980, Note_on_c, 9, 82, 66
10, 43980, Note_on_c, 9, 54, 48
10, 43981, Note_on_c, 9, 54, 0
10, 43981, Note_on_c, 9, 82, 0
10, 44010, Note_on_c, 9, 70, 88
10, 44010, Note_on_c, 9, 54, 60
10, 44011, Note_on_c, 9, 54, 0
10, 44011, Note_on_c, 9, 70, 0
10, 44039, Note_on_c, 9, 55, 50
10, 44040, Note_on_c, 9, 55, 0
10, 44040, Note_on_c, 9, 40, 112
10, 44040, Note_on_c, 9, 70, 80
10, 44040, Note_on_c, 9, 54, 67
10, 44041, Note_on_c, 9, 54, 0
10, 44041, Note_on_c, 9, 70, 0
10, 44041, Note_on_c, 9, 40, 0
10, 44070, Note_on_c, 9, 54, 52
10, 44071, Note_on_c, 9, 54, 0
10, 44100, Note_on_c, 9, 82, 71
10, 44100, Note_on_c, 9, 54, 46
10, 44101, Note_on_c, 9, 54, 0
10, 44101, Note_on_c, 9, 82, 0
10, 44130, Note_on_c, 9, 70, 80
10, 44130, Note_on_c, 9, 54, 56
10, 44131, Note_on_c, 9, 54, 0
10, 44131, Note_on_c, 9, 70, 0
10, 44160, Note_on_c, 9, 35, 123
10, 44160, Note_on_c, 9, 70, 72
10, 44160, Note_on_c, 9, 54, 81
10, 44161, Note_on_c, 9, 54, 0
10, 44161, Note_on_c, 9, 70, 0
10, 44161, Note_on_c, 9, 35, 0
10, 44190, Note_on_c, 9, 54, 52
10, 44191, Note_on_c, 9, 54, 0
10, 44220, Note_on_c, 9, 82, 63
10, 44220, Note_on_c, 9, 54, 45
10, 44221, Note_on_c, 9, 54, 0
10, 44221, Note_on_c, 9, 82, 0
10, 44250, Note_on_c, 9, 70, 75
10, 44250, Note_on_c, 9, 54, 44
10, 44251, Note_on_c, 9, 54, 0
10, 44251, Note_on_c, 9, 70, 0
10, 44279, Note_on_c, 9, 55, 65
10, 44280, Note_on_c, 9, 55, 0
10, 44280, Note_on_c, 9, 40, 111
10, 44280, Note_on_c, 9, 70, 75
10, 44280, Note_on_c, 9, 54, 70
10, 44281, Note_on_c, 9, 54, 0
10, 44281, Note_on_c, 9, 70, 0
10, 44281, Note_on_c, 9, 40, 0
10, 44310, Note_on_c, 9, 54, 37
10, 44311, Note_on_c, 9, 54, 0
10, 44340, Note_on_c, 9, 82, 73
10, 44340, Note_on_c, 9, 54, 56
10, 44341, Note_on_c, 9, 54, 0
10, 44341, Note_on_c, 9, 82, 0
10, 44370, Note_on_c, 9, 70, 86
10, 44370, Note_on_c, 9, 54, 52
10, 44371, Note_on_c, 9, 54, 0
10, 44371, Note_on_c, 9, 70, 0
10, 44400, Note_on_c, 9, 35, 117
10, 44400, Note_on_c, 9, 70, 75
10, 44400, Note_on_c, 9, 54, 77
10, 44401, Note_on_c, 9, 54, 0
10, 44401, Note_on_c, 9, 70, 0
10, 44401, Note_on_c, 9, 35, 0
10, 44430, Note_on_c, 9, 54, 31
10, 44431, Note_on_c, 9, 54, 0
10, 44460, Note_on_c, 9, 40, 105
10, 44460, Note_on_c, 9, 82, 68
10, 44460, Note_on_c, 9, 54, 42
10, 44461, Note_on_c, 9, 54, 0
10, 44461, Note_on_c, 9, 82, 0
10, 44461, Note_on_c, 9, 40, 0
10, 44490, Note_on_c, 9, 70, 74
10, 44490, Note_on_c, 9, 54, 40
10, 44491, Note_on_c, 9, 54, 0
10, 44491, Note_on_c, 9, 70, 0
10, 44519, Note_on_c, 9, 55, 63
10, 44520, Note_on_c, 9, 55, 0
10, 44520, Note_on_c, 9, 48, 80
10, 44520, Note_on_c, 9, 40, 111
10, 44520, Note_on_c, 9, 70, 66
10, 44520, Note_on_c, 9, 54, 70
10, 44521, Note_on_c, 9, 54, 0
10, 44521, Note_on_c, 9, 48, 0
10, 44521, Note_on_c, 9, 40, 0
10, 44521, Note_on_c, 9, 70, 0
10, 44550, Note_on_c, 9, 48, 80
10, 44550, Note_on_c, 9, 54, 44
10, 44551, Note_on_c, 9, 54, 0
10, 44551, Note_on_c, 9, 48, 0
10, 44580, Note_on_c, 9, 47, 80
10, 44580, Note_on_c, 9, 82, 71
10, 44580, Note_on_c, 9, 54, 42
10, 44581, Note_on_c, 9, 54, 0
10, 44581, Note_on_c, 9, 82, 0
10, 44581, Note_on_c, 9, 47, 0
10, 44610, Note_on_c, 9, 45, 83
10, 44610, Note_on_c, 9, 35, 117
10, 44610, Note_on_c, 9, 70, 92
10, 44610, Note_on_c, 9, 54, 56
10, 44611, Note_on_c, 9, 54, 0
10, 44611, Note_on_c, 9, 45, 0
10, 44611, Note_on_c, 9, 35, 0
10, 44611, Note_on_c, 9, 70, 0
10, 44640, Note_on_c, 9, 52, 92
10, 44640, Note_on_c, 9, 35, 117
10, 44640, Note_on_c, 9, 70, 82
10, 44640, Note_on_c, 9, 54, 77
10, 44641, Note_on_c, 9, 54, 0
10, 44641, Note_on_c, 9, 52, 0
10, 44641, Note_on_c, 9, 35, 0
10, 44641, Note_on_c, 9, 70, 0
10, 44670, Note_on_c, 9, 54, 46
10, 44671, Note_on_c, 9, 54, 0
10, 44700, Note_on_c, 9, 82, 69
10, 44700, Note_on_c, 9, 54, 46
10, 44701, Note_on_c, 9, 54, 0
10, 44701, Note_on_c, 9, 82, 0
10, 44730, Note_on_c, 9, 70, 86
10, 44730, Note_on_c, 9, 54, 52
10, 44731, Note_on_c, 9, 54, 0
10, 44731, Note_on_c, 9, 70, 0
10, 44759, Note_on_c, 9, 55, 56
10, 44760, Note_on_c, 9, 55, 0
10, 44760, Note_on_c, 9, 40, 111
10, 44760, Note_on_c, 9, 70, 81
10, 44760, Note_on_c, 9, 54, 67
10, 44761, Note_on_c, 9, 54, 0
10, 44761, Note_on_c, 9, 70, 0
10, 44761, Note_on_c, 9, 40, 0
10, 44790, Note_on_c, 9, 54, 29
10, 44791, Note_on_c, 9, 54, 0
10, 44820, Note_on_c, 9, 82, 69
10, 44820, Note_on_c, 9, 54, 49
10, 44821, Note_on_c, 9, 54, 0
10, 44821, Note_on_c, 9, 82, 0
10, 44850, Note_on_c, 9, 70, 88
10, 44850, Note_on_c, 9, 54, 61
10, 44851, Note_on_c, 9, 54, 0
10, 44851, Note_on_c, 9, 70, 0
10, 44880, Note_on_c, 9, 35, 126
10, 44880, Note_on_c, 9, 70, 72
10, 44880, Note_on_c, 9, 54, 65
10, 44881, Note_on_c, 9, 54, 0
10, 44881, Note_on_c, 9, 70, 0
10, 44881, Note_on_c, 9, 35, 0
10, 44910, Note_on_c, 9, 54, 30
10, 44911, Note_on_c, 9, 54, 0
10, 44940, Note_on_c, 9, 82, 66
10, 44940, Note_on_c, 9, 54, 48
10, 44941, Note_on_c, 9, 54, 0
10, 44941, Note_on_c, 9, 82, 0
10, 44970, Note_on_c, 9, 70, 88
10, 44970, Note_on_c, 9, 54, 60
10, 44971, Note_on_c, 9, 54, 0
10, 44971, Note_on_c, 9, 70, 0
10, 44999, Note_on_c, 9, 55, 65
10, 45000, Note_on_c, 9, 55, 0
10, 45000, Note_on_c, 9, 40, 108
10, 45000, Note_on_c, 9, 70, 80
10, 45000, Note_on_c, 9, 54, 67
10, 45001, Note_on_c, 9, 54, 0
10, 45001, Note_on_c, 9, 70, 0
10, 45001, Note_on_c, 9, 40, 0
10, 45030, Note_on_c, 9, 54, 52
10, 45031, Note_on_c, 9, 54, 0
10, 45060, Note_on_c, 9, 82, 71
10, 45060, Note_on_c, 9, 54, 46
10, 45061, Note_on_c, 9, 54, 0
10, 45061, Note_on_c, 9, 82, 0
10, 45090, Note_on_c, 9, 70, 80
10, 45090, Note_on_c, 9, 54, 56
10, 45091, Note_on_c, 9, 54, 0
10, 45091, Note_on_c, 9, 70, 0
10, 45120, Note_on_c, 9, 35, 123
10, 45120, Note_on_c, 9, 70, 72
10, 45120, Note_on_c, 9, 54, 81
10, 45121, Note_on_c, 9, 54, 0
10, 45121, Note_on_c, 9, 70, 0
10, 45121, Note_on_c, 9, 35, 0
10, 45150, Note_on_c, 9, 54, 52
10, 45151, Note_on_c, 9, 54, 0
10, 45180, Note_on_c, 9, 82, 63
10, 45180, Note_on_c, 9, 54, 45
10, 45181, Note_on_c, 9, 54, 0
10, 45181, Note_on_c, 9, 82, 0
10, 45210, Note_on_c, 9, 70, 75
10, 45210, Note_on_c, 9, 54, 44
10, 45211, Note_on_c, 9, 54, 0
10, 45211, Note_on_c, 9, 70, 0
10, 45239, Note_on_c, 9, 55, 65
10, 45240, Note_on_c, 9, 55, 0
10, 45240, Note_on_c, 9, 40, 111
10, 45240, Note_on_c, 9, 70, 75
10, 45240, Note_on_c, 9, 54, 70
10, 45241, Note_on_c, 9, 54, 0
10, 45241, Note_on_c, 9, 70, 0
10, 45241, Note_on_c, 9, 40, 0
10, 45270, Note_on_c, 9, 54, 37
10, 45271, Note_on_c, 9, 54, 0
10, 45300, Note_on_c, 9, 82, 73
10, 45300, Note_on_c, 9, 54, 56
10, 45301, Note_on_c, 9, 54, 0
10, 45301, Note_on_c, 9, 82, 0
10, 45330, Note_on_c, 9, 70, 86
10, 45330, Note_on_c, 9, 54, 52
10, 45331, Note_on_c, 9, 54, 0
10, 45331, Note_on_c, 9, 70, 0
10, 45360, Note_on_c, 9, 35, 117
10, 45360, Note_on_c, 9, 70, 75
10, 45360, Note_on_c, 9, 54, 77
10, 45361, Note_on_c, 9, 54, 0
10, 45361, Note_on_c, 9, 70, 0
10, 45361, Note_on_c, 9, 35, 0
10, 45390, Note_on_c, 9, 54, 31
10, 45391, Note_on_c, 9, 54, 0
10, 45420, Note_on_c, 9, 82, 68
10, 45420, Note_on_c, 9, 54, 42
10, 45421, Note_on_c, 9, 54, 0
10, 45421, Note_on_c, 9, 82, 0
10, 45450, Note_on_c, 9, 70, 74
10, 45450, Note_on_c, 9, 54, 40
10, 45451, Note_on_c, 9, 54, 0
10, 45451, Note_on_c, 9, 70, 0
10, 45479, Note_on_c, 9, 55, 67
10, 45480, Note_on_c, 9, 55, 0
10, 45480, Note_on_c, 9, 40, 111
10, 45480, Note_on_c, 9, 70, 66
10, 45480, Note_on_c, 9, 54, 70
10, 45481, Note_on_c, 9, 54, 0
10, 45481, Note_on_c, 9, 70, 0
10, 45481, Note_on_c, 9, 40, 0
10, 45510, Note_on_c, 9, 54, 44
10, 45511, Note_on_c, 9, 54, 0
10, 45540, Note_on_c, 9, 82, 71
10, 45540, Note_on_c, 9, 54, 42
10, 45541, Note_on_c, 9, 54, 0
10, 45541, Note_on_c, 9, 82, 0
10, 45570, Note_on_c, 9, 40, 114
10, 45570, Note_on_c, 9, 70, 92
10, 45570, Note_on_c, 9, 54, 56
10, 45571, Note_on_c, 9, 54, 0
10, 45571, Note_on_c, 9, 70, 0
10, 45571, Note_on_c, 9, 40, 0
10, 45600, Note_on_c, 9, 35, 118
10, 45600, Note_on_c, 9, 70, 82
10, 45600, Note_on_c, 9, 54, 81
10, 45601, Note_on_c, 9, 54, 0
10, 45601, Note_on_c, 9, 70, 0
10, 45601, Note_on_c, 9, 35, 0
10, 45630, Note_on_c, 9, 54, 42
10, 45631, Note_on_c, 9, 54, 0
10, 45660, Note_on_c, 9, 82, 69
10, 45660, Note_on_c, 9, 54, 36
10, 45661, Note_on_c, 9, 54, 0
10, 45661, Note_on_c, 9, 82, 0
10, 45690, Note_on_c, 9, 70, 86
10, 45690, Note_on_c, 9, 54, 35
10, 45691, Note_on_c, 9, 54, 0
10, 45691, Note_on_c, 9, 70, 0
10, 45719, Note_on_c, 9, 55, 61
10, 45720, Note_on_c, 9, 55, 0
10, 45720, Note_on_c, 9, 40, 105
10, 45720, Note_on_c, 9, 70, 81
10, 45720, Note_on_c, 9, 54, 81
10, 45721, Note_on_c, 9, 54, 0
10, 45721, Note_on_c, 9, 70, 0
10, 45721, Note_on_c, 9, 40, 0
10, 45750, Note_on_c, 9, 54, 40
10, 45751, Note_on_c, 9, 54, 0
10, 45780, Note_on_c, 9, 82, 69
10, 45780, Note_on_c, 9, 54, 52
10, 45781, Note_on_c, 9, 54, 0
10, 45781, Note_on_c, 9, 82, 0
10, 45810, Note_on_c, 9, 70, 88
10, 45810, Note_on_c, 9, 54, 46
10, 45811, Note_on_c, 9, 54, 0
10, 45811, Note_on_c, 9, 70, 0
10, 45840, Note_on_c, 9, 35, 113
10, 45840, Note_on_c, 9, 70, 72
10, 45840, Note_on_c, 9, 54, 75
10, 45841, Note_on_c, 9, 54, 0
10, 45841, Note_on_c, 9, 70, 0
10, 45841, Note_on_c, 9, 35, 0
10, 45870, Note_on_c, 9, 54, 20
10, 45871, Note_on_c, 9, 54, 0
10, 45900, Note_on_c, 9, 82, 66
10, 45900, Note_on_c, 9, 54, 37
10, 45901, Note_on_c, 9, 54, 0
10, 45901, Note_on_c, 9, 82, 0
10, 45930, Note_on_c, 9, 70, 88
10, 45930, Note_on_c, 9, 54, 52
10, 45931, Note_on_c, 9, 54, 0
10, 45931, Note_on_c, 9, 70, 0
10, 45959, Note_on_c, 9, 55, 61
10, 45960, Note_on_c, 9, 55, 0
10, 45960, Note_on_c, 9, 40, 111
10, 45960, Note_on_c, 9, 70, 80
10, 45960, Note_on_c, 9, 54, 77
10, 45961, Note_on_c, 9, 54, 0
10, 45961, Note_on_c, 9, 70, 0
10, 45961, Note_on_c, 9, 40, 0
10, 45990, Note_on_c, 9, 54, 52
10, 45991, Note_on_c, 9, 54, 0
10, 46020, Note_on_c, 9, 82, 71
10, 46020, Note_on_c, 9, 54, 56
10, 46021, Note_on_c, 9, 54, 0
10, 46021, Note_on_c, 9, 82, 0
10, 46050, Note_on_c, 9, 70, 80
10, 46050, Note_on_c, 9, 54, 52
10, 46051, Note_on_c, 9, 54, 0
10, 46051, Note_on_c, 9, 70, 0
10, 46080, Note_on_c, 9, 57, 73
10, 46080, Note_on_c, 9, 35, 117
10, 46080, Note_on_c, 9, 70, 72
10, 46080, Note_on_c, 9, 54, 77
10, 46081, Note_on_c, 9, 54, 0
10, 46081, Note_on_c, 9, 57, 0
10, 46081, Note_on_c, 9, 35, 0
10, 46081, Note_on_c, 9, 70, 0
10, 46110, Note_on_c, 9, 54, 30
10, 46111, Note_on_c, 9, 54, 0
10, 46140, Note_on_c, 9, 82, 63
10, 46140, Note_on_c, 9, 54, 44
10, 46141, Note_on_c, 9, 54, 0
10, 46141, Note_on_c, 9, 82, 0
10, 46170, Note_on_c, 9, 70, 75
10, 46170, Note_on_c, 9, 54, 44
10, 46171, Note_on_c, 9, 54, 0
10, 46171, Note_on_c, 9, 70, 0
10, 46200, Note_on_c, 9, 49, 64
10, 46200, Note_on_c, 9, 40, 114
10, 46200, Note_on_c, 9, 70, 75
10, 46200, Note_on_c, 9, 54, 70
10, 46201, Note_on_c, 9, 54, 0
10, 46201, Note_on_c, 9, 49, 0
10, 46201, Note_on_c, 9, 40, 0
10, 46201, Note_on_c, 9, 70, 0
10, 46230, Note_on_c, 9, 54, 32
10, 46231, Note_on_c, 9, 54, 0
10, 46260, Note_on_c, 9, 82, 73
10, 46260, Note_on_c, 9, 54, 54
10, 46261, Note_on_c, 9, 54, 0
10, 46261, Note_on_c, 9, 82, 0
10, 46290, Note_on_c, 9, 40, 101
10, 46290, Note_on_c, 9, 70, 86
10, 46290, Note_on_c, 9, 54, 61
10, 46291, Note_on_c, 9, 54, 0
10, 46291, Note_on_c, 9, 70, 0
10, 46291, Note_on_c, 9, 40, 0
10, 46320, Note_on_c, 9, 57, 73
10, 46320, Note_on_c, 9, 35, 117
10, 46320, Note_on_c, 9, 70, 75
10, 46320, Note_on_c, 9, 54, 65
10, 46321, Note_on_c, 9, 54, 0
10, 46321, Note_on_c, 9, 57, 0
10, 46321, Note_on_c, 9, 35, 0
10, 46321, Note_on_c, 9, 70, 0
10, 46350, Note_on_c, 9, 54, 31
10, 46351, Note_on_c, 9, 54, 0
10, 46380, Note_on_c, 9, 35, 117
10, 46380, Note_on_c, 9, 54, 61
10, 46381, Note_on_c, 9, 54, 0
10, 46381, Note_on_c, 9, 35, 0
10, 46410, Note_on_c, 9, 54, 52
10, 46411, Note_on_c, 9, 54, 0
10, 46439, Note_on_c, 9, 55, 65
10, 46440, Note_on_c, 9, 55, 0
10, 46440, Note_on_c, 9, 40, 115
10, 46440, Note_on_c, 9, 54, 81
10, 46441, Note_on_c, 9, 54, 0
10, 46441, Note_on_c, 9, 40, 0
10, 46470, Note_on_c, 9, 54, 33
10, 46471, Note_on_c, 9, 54, 0
10, 46500, Note_on_c, 9, 54, 36
10, 46501, Note_on_c, 9, 54, 0
10, 46530, Note_on_c, 9, 35, 117
10, 46530, Note_on_c, 9, 54, 52
10, 46531, Note_on_c, 9, 54, 0
10, 46531, Note_on_c, 9, 35, 0
10, 46560, Note_on_c, 9, 52, 92
10, 46560, Note_on_c, 9, 35, 117
10, 46560, Note_on_c, 9, 70, 82
10, 46560, Note_on_c, 9, 54, 77
10, 46561, Note_on_c, 9, 54, 0
10, 46561, Note_on_c, 9, 52, 0
10, 46561, Note_on_c, 9, 35, 0
10, 46561, Note_on_c, 9, 70, 0
10, 46590, Note_on_c, 9, 54, 46
10, 46591, Note_on_c, 9, 54, 0
10, 46620, Note_on_c, 9, 82, 69
10, 46620, Note_on_c, 9, 54, 46
10, 46621, Note_on_c, 9, 54, 0
10, 46621, Note_on_c, 9, 82, 0
10, 46650, Note_on_c, 9, 70, 86
10, 46650, Note_on_c, 9, 54, 52
10, 46651, Note_on_c, 9, 54, 0
10, 46651, Note_on_c, 9, 70, 0
10, 46679, Note_on_c, 9, 55, 56
10, 46680, Note_on_c, 9, 55, 0
10, 46680, Note_on_c, 9, 40, 111
10, 46680, Note_on_c, 9, 70, 81
10, 46680, Note_on_c, 9, 54, 67
10, 46681, Note_on_c, 9, 54, 0
10, 46681, Note_on_c, 9, 70, 0
10, 46681, Note_on_c, 9, 40, 0
10, 46710, Note_on_c, 9, 54, 29
10, 46711, Note_on_c, 9, 54, 0
10, 46740, Note_on_c, 9, 82, 69
10, 46740, Note_on_c, 9, 54, 49
10, 46741, Note_on_c, 9, 54, 0
10, 46741, Note_on_c, 9, 82, 0
10, 46770, Note_on_c, 9, 70, 88
10, 46770, Note_on_c, 9, 54, 61
10, 46771, Note_on_c, 9, 54, 0
10, 46771, Note_on_c, 9, 70, 0
10, 46800, Note_on_c, 9, 35, 126
10, 46800, Note_on_c, 9, 70, 72
10, 46800, Note_on_c, 9, 54, 65
10, 46801, Note_on_c, 9, 54, 0
10, 46801, Note_on_c, 9, 70, 0
10, 46801, Note_on_c, 9, 35, 0
10, 46830, Note_on_c, 9, 54, 30
10, 46831, Note_on_c, 9, 54, 0
10, 46860, Note_on_c, 9, 82, 66
10, 46860, Note_on_c, 9, 54, 48
10, 46861, Note_on_c, 9, 54, 0
10, 46861, Note_on_c, 9, 82, 0
10, 46890, Note_on_c, 9, 70, 88
10, 46890, Note_on_c, 9, 54, 60
10, 46891, Note_on_c, 9, 54, 0
10, 46891, Note_on_c, 9, 70, 0
10, 46919, Note_on_c, 9, 55, 65
10, 46920, Note_on_c, 9, 55, 0
10, 46920, Note_on_c, 9, 40, 94
10, 46920, Note_on_c, 9, 70, 80
10, 46920, Note_on_c, 9, 54, 67
10, 46921, Note_on_c, 9, 54, 0
10, 46921, Note_on_c, 9, 70, 0
10, 46921, Note_on_c, 9, 40, 0
10, 46950, Note_on_c, 9, 54, 52
10, 46951, Note_on_c, 9, 54, 0
10, 46980, Note_on_c, 9, 82, 71
10, 46980, Note_on_c, 9, 54, 46
10, 46981, Note_on_c, 9, 54, 0
10, 46981, Note_on_c, 9, 82, 0
10, 47010, Note_on_c, 9, 70, 80
10, 47010, Note_on_c, 9, 54, 56
10, 47011, Note_on_c, 9, 54, 0
10, 47011, Note_on_c, 9, 70, 0
10, 47040, Note_on_c, 9, 35, 123
10, 47040, Note_on_c, 9, 70, 72
10, 47040, Note_on_c, 9, 54, 81
10, 47041, Note_on_c, 9, 54, 0
10, 47041, Note_on_c, 9, 70, 0
10, 47041, Note_on_c, 9, 35, 0
10, 47070, Note_on_c, 9, 54, 52
10, 47071, Note_on_c, 9, 54, 0
10, 47100, Note_on_c, 9, 82, 63
10, 47100, Note_on_c, 9, 54, 45
10, 47101, Note_on_c, 9, 54, 0
10, 47101, Note_on_c, 9, 82, 0
10, 47130, Note_on_c, 9, 70, 75
10, 47130, Note_on_c, 9, 54, 44
10, 47131, Note_on_c, 9, 54, 0
10, 47131, Note_on_c, 9, 70, 0
10, 47159, Note_on_c, 9, 55, 65
10, 47160, Note_on_c, 9, 55, 0
10, 47160, Note_on_c, 9, 40, 111
10, 47160, Note_on_c, 9, 70, 75
10, 47160, Note_on_c, 9, 54, 70
10, 47161, Note_on_c, 9, 54, 0
10, 47161, Note_on_c, 9, 70, 0
10, 47161, Note_on_c, 9, 40, 0
10, 47190, Note_on_c, 9, 54, 37
10, 47191, Note_on_c, 9, 54, 0
10, 47220, Note_on_c, 9, 82, 73
10, 47220, Note_on_c, 9, 54, 56
10, 47221, Note_on_c, 9, 54, 0
10, 47221, Note_on_c, 9, 82, 0
10, 47250, Note_on_c, 9, 70, 86
10, 47250, Note_on_c, 9, 54, 52
10, 47251, Note_on_c, 9, 54, 0
10, 47251, Note_on_c, 9, 70, 0
10, 47280, Note_on_c, 9, 35, 117
10, 47280, Note_on_c, 9, 70, 75
10, 47280, Note_on_c, 9, 54, 77
10, 47281, Note_on_c, 9, 54, 0
10, 47281, Note_on_c, 9, 70, 0
10, 47281, Note_on_c, 9, 35, 0
10, 47310, Note_on_c, 9, 54, 31
10, 47311, Note_on_c, 9, 54, 0
10, 47340, Note_on_c, 9, 82, 68
10, 47340, Note_on_c, 9, 54, 42
10, 47341, Note_on_c, 9, 54, 0
10, 47341, Note_on_c, 9, 82, 0
10, 47370, Note_on_c, 9, 70, 74
10, 47370, Note_on_c, 9, 54, 40
10, 47371, Note_on_c, 9, 54, 0
10, 47371, Note_on_c, 9, 70, 0
10, 47399, Note_on_c, 9, 55, 67
10, 47400, Note_on_c, 9, 55, 0
10, 47400, Note_on_c, 9, 40, 111
10, 47400, Note_on_c, 9, 70, 66
10, 47400, Note_on_c, 9, 54, 70
10, 47401, Note_on_c, 9, 54, 0
10, 47401, Note_on_c, 9, 70, 0
10, 47401, Note_on_c, 9, 40, 0
10, 47430, Note_on_c, 9, 54, 44
10, 47431, Note_on_c, 9, 54, 0
10, 47460, Note_on_c, 9, 82, 71
10, 47460, Note_on_c, 9, 54, 42
10, 47461, Note_on_c, 9, 54, 0
10, 47461, Note_on_c, 9, 82, 0
10, 47490, Note_on_c, 9, 40, 114
10, 47490, Note_on_c, 9, 70, 92
10, 47490, Note_on_c, 9, 54, 56
10, 47491, Note_on_c, 9, 54, 0
10, 47491, Note_on_c, 9, 70, 0
10, 47491, Note_on_c, 9, 40, 0
10, 47520, Note_on_c, 9, 35, 123
10, 47520, Note_on_c, 9, 70, 82
10, 47520, Note_on_c, 9, 54, 81
10, 47521, Note_on_c, 9, 54, 0
10, 47521, Note_on_c, 9, 70, 0
10, 47521, Note_on_c, 9, 35, 0
10, 47550, Note_on_c, 9, 54, 42
10, 47551, Note_on_c, 9, 54, 0
10, 47580, Note_on_c, 9, 82, 69
10, 47580, Note_on_c, 9, 54, 36
10, 47581, Note_on_c, 9, 54, 0
10, 47581, Note_on_c, 9, 82, 0
10, 47610, Note_on_c, 9, 70, 86
10, 47610, Note_on_c, 9, 54, 35
10, 47611, Note_on_c, 9, 54, 0
10, 47611, Note_on_c, 9, 70, 0
10, 47640, Note_on_c, 9, 40, 111
10, 47640, Note_on_c, 9, 70, 81
10, 47640, Note_on_c, 9, 54, 81
10, 47641, Note_on_c, 9, 54, 0
10, 47641, Note_on_c, 9, 70, 0
10, 47641, Note_on_c, 9, 40, 0
10, 47670, Note_on_c, 9, 54, 40
10, 47671, Note_on_c, 9, 54, 0
10, 47700, Note_on_c, 9, 82, 69
10, 47700, Note_on_c, 9, 54, 52
10, 47701, Note_on_c, 9, 54, 0
10, 47701, Note_on_c, 9, 82, 0
10, 47730, Note_on_c, 9, 70, 88
10, 47730, Note_on_c, 9, 54, 46
10, 47731, Note_on_c, 9, 54, 0
10, 47731, Note_on_c, 9, 70, 0
10, 47760, Note_on_c, 9, 35, 111
10, 47760, Note_on_c, 9, 70, 72
10, 47760, Note_on_c, 9, 54, 75
10, 47761, Note_on_c, 9, 54, 0
10, 47761, Note_on_c, 9, 70, 0
10, 47761, Note_on_c, 9, 35, 0
10, 47790, Note_on_c, 9, 54, 20
10, 47791, Note_on_c, 9, 54, 0
10, 47820, Note_on_c, 9, 82, 66
10, 47820, Note_on_c, 9, 54, 37
10, 47821, Note_on_c, 9, 54, 0
10, 47821, Note_on_c, 9, 82, 0
10, 47850, Note_on_c, 9, 70, 88
10, 47850, Note_on_c, 9, 54, 52
10, 47851, Note_on_c, 9, 54, 0
10, 47851, Note_on_c, 9, 70, 0
10, 47880, Note_on_c, 9, 40, 101
10, 47880, Note_on_c, 9, 70, 80
10, 47880, Note_on_c, 9, 54, 77
10, 47881, Note_on_c, 9, 54, 0
10, 47881, Note_on_c, 9, 70, 0
10, 47881, Note_on_c, 9, 40, 0
10, 47910, Note_on_c, 9, 54, 52
10, 47911, Note_on_c, 9, 54, 0
10, 47940, Note_on_c, 9, 82, 71
10, 47940, Note_on_c, 9, 54, 56
10, 47941, Note_on_c, 9, 54, 0
10, 47941, Note_on_c, 9, 82, 0
10, 47970, Note_on_c, 9, 70, 80
10, 47970, Note_on_c, 9, 54, 52
10, 47971, Note_on_c, 9, 54, 0
10, 47971, Note_on_c, 9, 70, 0
10, 48000, Note_on_c, 9, 35, 117
10, 48000, Note_on_c, 9, 70, 72
10, 48000, Note_on_c, 9, 54, 77
10, 48001, Note_on_c, 9, 54, 0
10, 48001, Note_on_c, 9, 70, 0
10, 48001, Note_on_c, 9, 35, 0
10, 48030, Note_on_c, 9, 54, 30
10, 48031, Note_on_c, 9, 54, 0
10, 48060, Note_on_c, 9, 82, 63
10, 48060, Note_on_c, 9, 54, 44
10, 48061, Note_on_c, 9, 54, 0
10, 48061, Note_on_c, 9, 82, 0
10, 48090, Note_on_c, 9, 70, 75
10, 48090, Note_on_c, 9, 54, 44
10, 48091, Note_on_c, 9, 54, 0
10, 48091, Note_on_c, 9, 70, 0
10, 48120, Note_on_c, 9, 40, 114
10, 48120, Note_on_c, 9, 70, 75
10, 48120, Note_on_c, 9, 54, 70
10, 48121, Note_on_c, 9, 54, 0
10, 48121, Note_on_c, 9, 70, 0
10, 48121, Note_on_c, 9, 40, 0
10, 48150, Note_on_c, 9, 54, 32
10, 48151, Note_on_c, 9, 54, 0
10, 48180, Note_on_c, 9, 82, 73
10, 48180, Note_on_c, 9, 54, 54
10, 48181, Note_on_c, 9, 54, 0
10, 48181, Note_on_c, 9, 82, 0
10, 48210, Note_on_c, 9, 40, 102
10, 48210, Note_on_c, 9, 70, 86
10, 48210, Note_on_c, 9, 54, 61
10, 48211, Note_on_c, 9, 54, 0
10, 48211, Note_on_c, 9, 70, 0
10, 48211, Note_on_c, 9, 40, 0
10, 48240, Note_on_c, 9, 35, 117
10, 48240, Note_on_c, 9, 70, 75
10, 48240, Note_on_c, 9, 54, 65
10, 48241, Note_on_c, 9, 54, 0
10, 48241, Note_on_c, 9, 70, 0
10, 48241, Note_on_c, 9, 35, 0
10, 48270, Note_on_c, 9, 54, 31
10, 48271, Note_on_c, 9, 54, 0
10, 48300, Note_on_c, 9, 40, 105
10, 48300, Note_on_c, 9, 82, 68
10, 48300, Note_on_c, 9, 54, 61
10, 48300, Note_on_c, 9, 48, 87
10, 48301, Note_on_c, 9, 48, 0
10, 48301, Note_on_c, 9, 40, 0
10, 48301, Note_on_c, 9, 82, 0
10, 48301, Note_on_c, 9, 54, 0
10, 48320, Note_on_c, 9, 48, 82
10, 48321, Note_on_c, 9, 48, 0
10, 48330, Note_on_c, 9, 70, 74
10, 48330, Note_on_c, 9, 54, 52
10, 48331, Note_on_c, 9, 54, 0
10, 48331, Note_on_c, 9, 70, 0
10, 48340, Note_on_c, 9, 48, 81
10, 48341, Note_on_c, 9, 48, 0
10, 48360, Note_on_c, 9, 40, 115
10, 48360, Note_on_c, 9, 70, 66
10, 48360, Note_on_c, 9, 54, 81
10, 48360, Note_on_c, 9, 47, 86
10, 48361, Note_on_c, 9, 47, 0
10, 48361, Note_on_c, 9, 40, 0
10, 48361, Note_on_c, 9, 70, 0
10, 48361, Note_on_c, 9, 54, 0
10, 48390, Note_on_c, 9, 54, 33
10, 48391, Note_on_c, 9, 54, 0
10, 48396, Note_on_c, 9, 47, 83
10, 48397, Note_on_c, 9, 47, 0
10, 48420, Note_on_c, 9, 35, 117
10, 48420, Note_on_c, 9, 82, 71
10, 48420, Note_on_c, 9, 54, 36
10, 48420, Note_on_c, 9, 45, 91
10, 48421, Note_on_c, 9, 45, 0
10, 48421, Note_on_c, 9, 35, 0
10, 48421, Note_on_c, 9, 82, 0
10, 48421, Note_on_c, 9, 54, 0
10, 48444, Note_on_c, 9, 43, 104
10, 48445, Note_on_c, 9, 43, 0
10, 48450, Note_on_c, 9, 70, 92
10, 48450, Note_on_c, 9, 54, 52
10, 48451, Note_on_c, 9, 54, 0
10, 48451, Note_on_c, 9, 70, 0
10, 48480, Note_on_c, 9, 35, 117
10, 48480, Note_on_c, 9, 70, 82
10, 48480, Note_on_c, 9, 54, 77
10, 48481, Note_on_c, 9, 54, 0
10, 48481, Note_on_c, 9, 70, 0
10, 48481, Note_on_c, 9, 35, 0
10, 48510, Note_on_c, 9, 54, 46
10, 48511, Note_on_c, 9, 54, 0
10, 48540, Note_on_c, 9, 82, 69
10, 48540, Note_on_c, 9, 54, 46
10, 48541, Note_on_c, 9, 54, 0
10, 48541, Note_on_c, 9, 82, 0
10, 48570, Note_on_c, 9, 70, 86
10, 48570, Note_on_c, 9, 54, 52
10, 48571, Note_on_c, 9, 54, 0
10, 48571, Note_on_c, 9, 70, 0
10, 48599, Note_on_c, 9, 55, 54
10, 48600, Note_on_c, 9, 55, 0
10, 48600, Note_on_c, 9, 40, 111
10, 48600, Note_on_c, 9, 70, 81
10, 48600, Note_on_c, 9, 54, 67
10, 48601, Note_on_c, 9, 54, 0
10, 48601, Note_on_c, 9, 70, 0
10, 48601, Note_on_c, 9, 40, 0
10, 48630, Note_on_c, 9, 54, 29
10, 48631, Note_on_c, 9, 54, 0
10, 48660, Note_on_c, 9, 82, 69
10, 48660, Note_on_c, 9, 54, 49
10, 48661, Note_on_c, 9, 54, 0
10, 48661, Note_on_c, 9, 82, 0
10, 48690, Note_on_c, 9, 70, 88
10, 48690, Note_on_c, 9, 54, 61
10, 48691, Note_on_c, 9, 54, 0
10, 48691, Note_on_c, 9, 70, 0
10, 48720, Note_on_c, 9, 35, 126
10, 48720, Note_on_c, 9, 70, 72
10, 48720, Note_on_c, 9, 54, 65
10, 48721, Note_on_c, 9, 54, 0
10, 48721, Note_on_c, 9, 70, 0
10, 48721, Note_on_c, 9, 35, 0
10, 48750, Note_on_c, 9, 54, 30
10, 48751, Note_on_c, 9, 54, 0
10, 48780, Note_on_c, 9, 82, 66
10, 48780, Note_on_c, 9, 54, 48
10, 48781, Note_on_c, 9, 54, 0
10, 48781, Note_on_c, 9, 82, 0
10, 48810, Note_on_c, 9, 70, 88
10, 48810, Note_on_c, 9, 54, 60
10, 48811, Note_on_c, 9, 54, 0
10, 48811, Note_on_c, 9, 70, 0
10, 48839, Note_on_c, 9, 55, 50
10, 48840, Note_on_c, 9, 55, 0
10, 48840, Note_on_c, 9, 40, 115
10, 48840, Note_on_c, 9, 70, 80
10, 48840, Note_on_c, 9, 54, 67
10, 48841, Note_on_c, 9, 54, 0
10, 48841, Note_on_c, 9, 70, 0
10, 48841, Note_on_c, 9, 40, 0
10, 48870, Note_on_c, 9, 54, 52
10, 48871, Note_on_c, 9, 54, 0
10, 48900, Note_on_c, 9, 82, 71
10, 48900, Note_on_c, 9, 54, 46
10, 48901, Note_on_c, 9, 54, 0
10, 48901, Note_on_c, 9, 82, 0
10, 48930, Note_on_c, 9, 70, 80
10, 48930, Note_on_c, 9, 54, 56
10, 48931, Note_on_c, 9, 54, 0
10, 48931, Note_on_c, 9, 70, 0
10, 48960, Note_on_c, 9, 35, 123
10, 48960, Note_on_c, 9, 70, 72
10, 48960, Note_on_c, 9, 54, 81
10, 48961, Note_on_c, 9, 54, 0
10, 48961, Note_on_c, 9, 70, 0
10, 48961, Note_on_c, 9, 35, 0
10, 48990, Note_on_c, 9, 54, 52
10, 48991, Note_on_c, 9, 54, 0
10, 49020, Note_on_c, 9, 82, 63
10, 49020, Note_on_c, 9, 54, 45
10, 49021, Note_on_c, 9, 54, 0
10, 49021, Note_on_c, 9, 82, 0
10, 49050, Note_on_c, 9, 70, 75
10, 49050, Note_on_c, 9, 54, 44
10, 49051, Note_on_c, 9, 54, 0
10, 49051, Note_on_c, 9, 70, 0
10, 49079, Note_on_c, 9, 55, 65
10, 49080, Note_on_c, 9, 55, 0
10, 49080, Note_on_c, 9, 40, 111
10, 49080, Note_on_c, 9, 70, 75
10, 49080, Note_on_c, 9, 54, 70
10, 49081, Note_on_c, 9, 54, 0
10, 49081, Note_on_c, 9, 70, 0
10, 49081, Note_on_c, 9, 40, 0
10, 49110, Note_on_c, 9, 54, 37
10, 49111, Note_on_c, 9, 54, 0
10, 49140, Note_on_c, 9, 82, 73
10, 49140, Note_on_c, 9, 54, 56
10, 49141, Note_on_c, 9, 54, 0
10, 49141, Note_on_c, 9, 82, 0
10, 49170, Note_on_c, 9, 70, 86
10, 49170, Note_on_c, 9, 54, 52
10, 49171, Note_on_c, 9, 54, 0
10, 49171, Note_on_c, 9, 70, 0
10, 49200, Note_on_c, 9, 35, 117
10, 49200, Note_on_c, 9, 70, 75
10, 49200, Note_on_c, 9, 54, 77
10, 49201, Note_on_c, 9, 54, 0
10, 49201, Note_on_c, 9, 70, 0
10, 49201, Note_on_c, 9, 35, 0
10, 49230, Note_on_c, 9, 54, 31
10, 49231, Note_on_c, 9, 54, 0
10, 49260, Note_on_c, 9, 82, 68
10, 49260, Note_on_c, 9, 54, 42
10, 49261, Note_on_c, 9, 54, 0
10, 49261, Note_on_c, 9, 82, 0
10, 49290, Note_on_c, 9, 70, 74
10, 49290, Note_on_c, 9, 54, 40
10, 49291, Note_on_c, 9, 54, 0
10, 49291, Note_on_c, 9, 70, 0
10, 49319, Note_on_c, 9, 55, 63
10, 49320, Note_on_c, 9, 55, 0
10, 49320, Note_on_c, 9, 40, 111
10, 49320, Note_on_c, 9, 70, 66
10, 49320, Note_on_c, 9, 54, 70
10, 49321, Note_on_c, 9, 54, 0
10, 49321, Note_on_c, 9, 70, 0
10, 49321, Note_on_c, 9, 40, 0
10, 49350, Note_on_c, 9, 54, 44
10, 49351, Note_on_c, 9, 54, 0
10, 49380, Note_on_c, 9, 82, 71
10, 49380, Note_on_c, 9, 54, 42
10, 49381, Note_on_c, 9, 54, 0
10, 49381, Note_on_c, 9, 82, 0
10, 49410, Note_on_c, 9, 40, 114
10, 49410, Note_on_c, 9, 70, 92
10, 49410, Note_on_c, 9, 54, 56
10, 49411, Note_on_c, 9, 54, 0
10, 49411, Note_on_c, 9, 70, 0
10, 49411, Note_on_c, 9, 40, 0
10, 49440, Note_on_c, 9, 35, 109
10, 49440, Note_on_c, 9, 70, 82
10, 49440, Note_on_c, 9, 54, 81
10, 49441, Note_on_c, 9, 54, 0
10, 49441, Note_on_c, 9, 70, 0
10, 49441, Note_on_c, 9, 35, 0
10, 49470, Note_on_c, 9, 54, 42
10, 49471, Note_on_c, 9, 54, 0
10, 49500, Note_on_c, 9, 82, 69
10, 49500, Note_on_c, 9, 54, 36
10, 49501, Note_on_c, 9, 54, 0
10, 49501, Note_on_c, 9, 82, 0
10, 49530, Note_on_c, 9, 70, 86
10, 49530, Note_on_c, 9, 54, 35
10, 49531, Note_on_c, 9, 54, 0
10, 49531, Note_on_c, 9, 70, 0
10, 49559, Note_on_c, 9, 55, 65
10, 49560, Note_on_c, 9, 55, 0
10, 49560, Note_on_c, 9, 40, 105
10, 49560, Note_on_c, 9, 70, 81
10, 49560, Note_on_c, 9, 54, 81
10, 49561, Note_on_c, 9, 54, 0
10, 49561, Note_on_c, 9, 70, 0
10, 49561, Note_on_c, 9, 40, 0
10, 49590, Note_on_c, 9, 54, 40
10, 49591, Note_on_c, 9, 54, 0
10, 49620, Note_on_c, 9, 82, 69
10, 49620, Note_on_c, 9, 54, 52
10, 49621, Note_on_c, 9, 54, 0
10, 49621, Note_on_c, 9, 82, 0
10, 49650, Note_on_c, 9, 70, 88
10, 49650, Note_on_c, 9, 54, 46
10, 49651, Note_on_c, 9, 54, 0
10, 49651, Note_on_c, 9, 70, 0
10, 49680, Note_on_c, 9, 35, 109
10, 49680, Note_on_c, 9, 70, 72
10, 49680, Note_on_c, 9, 54, 75
10, 49681, Note_on_c, 9, 54, 0
10, 49681, Note_on_c, 9, 70, 0
10, 49681, Note_on_c, 9, 35, 0
10, 49710, Note_on_c, 9, 54, 20
10, 49711, Note_on_c, 9, 54, 0
10, 49740, Note_on_c, 9, 82, 66
10, 49740, Note_on_c, 9, 54, 37
10, 49741, Note_on_c, 9, 54, 0
10, 49741, Note_on_c, 9, 82, 0
10, 49770, Note_on_c, 9, 70, 88
10, 49770, Note_on_c, 9, 54, 52
10, 49771, Note_on_c, 9, 54, 0
10, 49771, Note_on_c, 9, 70, 0
10, 49799, Note_on_c, 9, 55, 61
10, 49800, Note_on_c, 9, 55, 0
10, 49800, Note_on_c, 9, 40, 111
10, 49800, Note_on_c, 9, 70, 80
10, 49800, Note_on_c, 9, 54, 77
10, 49801, Note_on_c, 9, 54, 0
10, 49801, Note_on_c, 9, 70, 0
10, 49801, Note_on_c, 9, 40, 0
10, 49830, Note_on_c, 9, 54, 52
10, 49831, Note_on_c, 9, 54, 0
10, 49860, Note_on_c, 9, 82, 71
10, 49860, Note_on_c, 9, 54, 56
10, 49861, Note_on_c, 9, 54, 0
10, 49861, Note_on_c, 9, 82, 0
10, 49890, Note_on_c, 9, 70, 80
10, 49890, Note_on_c, 9, 54, 52
10, 49891, Note_on_c, 9, 54, 0
10, 49891, Note_on_c, 9, 70, 0
10, 49920, Note_on_c, 9, 35, 117
10, 49920, Note_on_c, 9, 70, 72
10, 49920, Note_on_c, 9, 54, 77
10, 49921, Note_on_c, 9, 54, 0
10, 49921, Note_on_c, 9, 70, 0
10, 49921, Note_on_c, 9, 35, 0
10, 49950, Note_on_c, 9, 54, 30
10, 49951, Note_on_c, 9, 54, 0
10, 49980, Note_on_c, 9, 82, 63
10, 49980, Note_on_c, 9, 54, 44
10, 49981, Note_on_c, 9, 54, 0
10, 49981, Note_on_c, 9, 82, 0
10, 50010, Note_on_c, 9, 70, 75
10, 50010, Note_on_c, 9, 54, 44
10, 50011, Note_on_c, 9, 54, 0
10, 50011, Note_on_c, 9, 70, 0
10, 50039, Note_on_c, 9, 55, 56
10, 50040, Note_on_c, 9, 55, 0
10, 50040, Note_on_c, 9, 40, 114
10, 50040, Note_on_c, 9, 70, 75
10, 50040, Note_on_c, 9, 54, 70
10, 50041, Note_on_c, 9, 54, 0
10, 50041, Note_on_c, 9, 70, 0
10, 50041, Note_on_c, 9, 40, 0
10, 50070, Note_on_c, 9, 54, 32
10, 50071, Note_on_c, 9, 54, 0
10, 50100, Note_on_c, 9, 82, 73
10, 50100, Note_on_c, 9, 54, 54
10, 50101, Note_on_c, 9, 54, 0
10, 50101, Note_on_c, 9, 82, 0
10, 50130, Note_on_c, 9, 40, 101
10, 50130, Note_on_c, 9, 70, 86
10, 50130, Note_on_c, 9, 54, 61
10, 50131, Note_on_c, 9, 54, 0
10, 50131, Note_on_c, 9, 70, 0
10, 50131, Note_on_c, 9, 40, 0
10, 50160, Note_on_c, 9, 35, 117
10, 50160, Note_on_c, 9, 70, 75
10, 50160, Note_on_c, 9, 54, 65
10, 50161, Note_on_c, 9, 54, 0
10, 50161, Note_on_c, 9, 70, 0
10, 50161, Note_on_c, 9, 35, 0
10, 50190, Note_on_c, 9, 54, 31
10, 50191, Note_on_c, 9, 54, 0
10, 50220, Note_on_c, 9, 35, 117
10, 50220, Note_on_c, 9, 82, 68
10, 50220, Note_on_c, 9, 54, 61
10, 50221, Note_on_c, 9, 54, 0
10, 50221, Note_on_c, 9, 82, 0
10, 50221, Note_on_c, 9, 35, 0
10, 50250, Note_on_c, 9, 70, 74
10, 50250, Note_on_c, 9, 54, 52
10, 50251, Note_on_c, 9, 54, 0
10, 50251, Note_on_c, 9, 70, 0
10, 50279, Note_on_c, 9, 55, 50
10, 50280, Note_on_c, 9, 55, 0
10, 50280, Note_on_c, 9, 40, 115
10, 50280, Note_on_c, 9, 70, 66
10, 50280, Note_on_c, 9, 54, 81
10, 50281, Note_on_c, 9, 54, 0
10, 50281, Note_on_c, 9, 70, 0
10, 50281, Note_on_c, 9, 40, 0
10, 50310, Note_on_c, 9, 54, 33
10, 50311, Note_on_c, 9, 54, 0
10, 50340, Note_on_c, 9, 82, 71
10, 50340, Note_on_c, 9, 54, 36
10, 50341, Note_on_c, 9, 54, 0
10, 50341, Note_on_c, 9, 82, 0
10, 50370, Note_on_c, 9, 70, 92
10, 50370, Note_on_c, 9, 54, 52
10, 50371, Note_on_c, 9, 54, 0
10, 50371, Note_on_c, 9, 70, 0
10, 50400, Note_on_c, 9, 49, 81
10, 50400, Note_on_c, 9, 35, 117
10, 50400, Note_on_c, 9, 70, 82
10, 50400, Note_on_c, 9, 54, 77
10, 50401, Note_on_c, 9, 54, 0
10, 50401, Note_on_c, 9, 49, 0
10, 50401, Note_on_c, 9, 35, 0
10, 50401, Note_on_c, 9, 70, 0
10, 50430, Note_on_c, 9, 54, 46
10, 50431, Note_on_c, 9, 54, 0
10, 50460, Note_on_c, 9, 82, 69
10, 50460, Note_on_c, 9, 54, 46
10, 50461, Note_on_c, 9, 54, 0
10, 50461, Note_on_c, 9, 82, 0
10, 50490, Note_on_c, 9, 70, 86
10, 50490, Note_on_c, 9, 54, 52
10, 50491, Note_on_c, 9, 54, 0
10, 50491, Note_on_c, 9, 70, 0
10, 50519, Note_on_c, 9, 55, 56
10, 50520, Note_on_c, 9, 55, 0
10, 50520, Note_on_c, 9, 40, 111
10, 50520, Note_on_c, 9, 70, 81
10, 50520, Note_on_c, 9, 54, 67
10, 50521, Note_on_c, 9, 54, 0
10, 50521, Note_on_c, 9, 70, 0
10, 50521, Note_on_c, 9, 40, 0
10, 50523, Note_on_c, 9, 39, 90
10, 50524, Note_on_c, 9, 39, 0
10, 50550, Note_on_c, 9, 54, 29
10, 50551, Note_on_c, 9, 54, 0
10, 50580, Note_on_c, 9, 82, 69
10, 50580, Note_on_c, 9, 54, 49
10, 50581, Note_on_c, 9, 54, 0
10, 50581, Note_on_c, 9, 82, 0
10, 50610, Note_on_c, 9, 70, 88
10, 50610, Note_on_c, 9, 54, 61
10, 50611, Note_on_c, 9, 54, 0
10, 50611, Note_on_c, 9, 70, 0
10, 50640, Note_on_c, 9, 35, 126
10, 50640, Note_on_c, 9, 70, 72
10, 50640, Note_on_c, 9, 54, 65
10, 50641, Note_on_c, 9, 54, 0
10, 50641, Note_on_c, 9, 70, 0
10, 50641, Note_on_c, 9, 35, 0
10, 50670, Note_on_c, 9, 54, 30
10, 50671, Note_on_c, 9, 54, 0
10, 50700, Note_on_c, 9, 82, 66
10, 50700, Note_on_c, 9, 54, 48
10, 50701, Note_on_c, 9, 54, 0
10, 50701, Note_on_c, 9, 82, 0
10, 50730, Note_on_c, 9, 70, 88
10, 50730, Note_on_c, 9, 54, 60
10, 50731, Note_on_c, 9, 54, 0
10, 50731, Note_on_c, 9, 70, 0
10, 50759, Note_on_c, 9, 55, 65
10, 50759, Note_on_c, 9, 39, 90
10, 50760, Note_on_c, 9, 39, 0
10, 50760, Note_on_c, 9, 55, 0
10, 50760, Note_on_c, 9, 40, 108
10, 50760, Note_on_c, 9, 70, 80
10, 50760, Note_on_c, 9, 54, 67
10, 50761, Note_on_c, 9, 54, 0
10, 50761, Note_on_c, 9, 70, 0
10, 50761, Note_on_c, 9, 40, 0
10, 50790, Note_on_c, 9, 54, 52
10, 50791, Note_on_c, 9, 54, 0
10, 50820, Note_on_c, 9, 82, 71
10, 50820, Note_on_c, 9, 54, 46
10, 50821, Note_on_c, 9, 54, 0
10, 50821, Note_on_c, 9, 82, 0
10, 50850, Note_on_c, 9, 70, 80
10, 50850, Note_on_c, 9, 54, 56
10, 50851, Note_on_c, 9, 54, 0
10, 50851, Note_on_c, 9, 70, 0
10, 50880, Note_on_c, 9, 35, 123
10, 50880, Note_on_c, 9, 70, 72
10, 50880, Note_on_c, 9, 54, 81
10, 50881, Note_on_c, 9, 54, 0
10, 50881, Note_on_c, 9, 70, 0
10, 50881, Note_on_c, 9, 35, 0
10, 50910, Note_on_c, 9, 54, 52
10, 50911, Note_on_c, 9, 54, 0
10, 50940, Note_on_c, 9, 82, 63
10, 50940, Note_on_c, 9, 54, 45
10, 50941, Note_on_c, 9, 54, 0
10, 50941, Note_on_c, 9, 82, 0
10, 50970, Note_on_c, 9, 70, 75
10, 50970, Note_on_c, 9, 54, 44
10, 50971, Note_on_c, 9, 54, 0
10, 50971, Note_on_c, 9, 70, 0
10, 50999, Note_on_c, 9, 55, 65
10, 51000, Note_on_c, 9, 55, 0
10, 51000, Note_on_c, 9, 40, 111
10, 51000, Note_on_c, 9, 70, 75
10, 51000, Note_on_c, 9, 54, 70
10, 51000, Note_on_c, 9, 39, 90
10, 51001, Note_on_c, 9, 39, 0
10, 51001, Note_on_c, 9, 40, 0
10, 51001, Note_on_c, 9, 70, 0
10, 51001, Note_on_c, 9, 54, 0
10, 51030, Note_on_c, 9, 54, 37
10, 51031, Note_on_c, 9, 54, 0
10, 51060, Note_on_c, 9, 82, 73
10, 51060, Note_on_c, 9, 54, 56
10, 51061, Note_on_c, 9, 54, 0
10, 51061, Note_on_c, 9, 82, 0
10, 51090, Note_on_c, 9, 70, 86
10, 51090, Note_on_c, 9, 54, 52
10, 51091, Note_on_c, 9, 54, 0
10, 51091, Note_on_c, 9, 70, 0
10, 51120, Note_on_c, 9, 35, 117
10, 51120, Note_on_c, 9, 70, 75
10, 51120, Note_on_c, 9, 54, 77
10, 51121, Note_on_c, 9, 54, 0
10, 51121, Note_on_c, 9, 70, 0
10, 51121, Note_on_c, 9, 35, 0
10, 51150, Note_on_c, 9, 54, 31
10, 51151, Note_on_c, 9, 54, 0
10, 51180, Note_on_c, 9, 82, 68
10, 51180, Note_on_c, 9, 54, 42
10, 51181, Note_on_c, 9, 54, 0
10, 51181, Note_on_c, 9, 82, 0
10, 51210, Note_on_c, 9, 70, 74
10, 51210, Note_on_c, 9, 54, 40
10, 51211, Note_on_c, 9, 54, 0
10, 51211, Note_on_c, 9, 70, 0
10, 51239, Note_on_c, 9, 55, 67
10, 51240, Note_on_c, 9, 55, 0
10, 51240, Note_on_c, 9, 40, 111
10, 51240, Note_on_c, 9, 70, 66
10, 51240, Note_on_c, 9, 54, 70
10, 51241, Note_on_c, 9, 54, 0
10, 51241, Note_on_c, 9, 70, 0
10, 51241, Note_on_c, 9, 40, 0
10, 51242, Note_on_c, 9, 39, 90
10, 51243, Note_on_c, 9, 39, 0
10, 51270, Note_on_c, 9, 54, 44
10, 51271, Note_on_c, 9, 54, 0
10, 51300, Note_on_c, 9, 82, 71
10, 51300, Note_on_c, 9, 54, 42
10, 51301, Note_on_c, 9, 54, 0
10, 51301, Note_on_c, 9, 82, 0
10, 51330, Note_on_c, 9, 40, 114
10, 51330, Note_on_c, 9, 70, 92
10, 51330, Note_on_c, 9, 54, 56
10, 51331, Note_on_c, 9, 54, 0
10, 51331, Note_on_c, 9, 70, 0
10, 51331, Note_on_c, 9, 40, 0
10, 51360, Note_on_c, 9, 52, 92
10, 51360, Note_on_c, 9, 35, 117
10, 51360, Note_on_c, 9, 70, 82
10, 51360, Note_on_c, 9, 54, 77
10, 51361, Note_on_c, 9, 54, 0
10, 51361, Note_on_c, 9, 52, 0
10, 51361, Note_on_c, 9, 35, 0
10, 51361, Note_on_c, 9, 70, 0
10, 51390, Note_on_c, 9, 54, 46
10, 51391, Note_on_c, 9, 54, 0
10, 51420, Note_on_c, 9, 82, 69
10, 51420, Note_on_c, 9, 54, 46
10, 51421, Note_on_c, 9, 54, 0
10, 51421, Note_on_c, 9, 82, 0
10, 51450, Note_on_c, 9, 70, 86
10, 51450, Note_on_c, 9, 54, 52
10, 51451, Note_on_c, 9, 54, 0
10, 51451, Note_on_c, 9, 70, 0
10, 51476, Note_on_c, 9, 39, 90
10, 51477, Note_on_c, 9, 39, 0
10, 51479, Note_on_c, 9, 55, 56
10, 51480, Note_on_c, 9, 55, 0
10, 51480, Note_on_c, 9, 40, 111
10, 51480, Note_on_c, 9, 70, 81
10, 51480, Note_on_c, 9, 54, 67
10, 51481, Note_on_c, 9, 54, 0
10, 51481, Note_on_c, 9, 70, 0
10, 51481, Note_on_c, 9, 40, 0
10, 51510, Note_on_c, 9, 54, 29
10, 51511, Note_on_c, 9, 54, 0
10, 51540, Note_on_c, 9, 82, 69
10, 51540, Note_on_c, 9, 54, 49
10, 51541, Note_on_c, 9, 54, 0
10, 51541, Note_on_c, 9, 82, 0
10, 51570, Note_on_c, 9, 70, 88
10, 51570, Note_on_c, 9, 54, 61
10, 51571, Note_on_c, 9, 54, 0
10, 51571, Note_on_c, 9, 70, 0
10, 51600, Note_on_c, 9, 35, 126
10, 51600, Note_on_c, 9, 70, 72
10, 51600, Note_on_c, 9, 54, 65
10, 51601, Note_on_c, 9, 54, 0
10, 51601, Note_on_c, 9, 70, 0
10, 51601, Note_on_c, 9, 35, 0
10, 51630, Note_on_c, 9, 54, 30
10, 51631, Note_on_c, 9, 54, 0
10, 51660, Note_on_c, 9, 82, 66
10, 51660, Note_on_c, 9, 54, 48
10, 51661, Note_on_c, 9, 54, 0
10, 51661, Note_on_c, 9, 82, 0
10, 51690, Note_on_c, 9, 70, 88
10, 51690, Note_on_c, 9, 54, 60
10, 51691, Note_on_c, 9, 54, 0
10, 51691, Note_on_c, 9, 70, 0
10, 51719, Note_on_c, 9, 55, 65
10, 51720, Note_on_c, 9, 55, 0
10, 51720, Note_on_c, 9, 40, 108
10, 51720, Note_on_c, 9, 70, 80
10, 51720, Note_on_c, 9, 54, 67
10, 51720, Note_on_c, 9, 39, 90
10, 51721, Note_on_c, 9, 39, 0
10, 51721, Note_on_c, 9, 40, 0
10, 51721, Note_on_c, 9, 70, 0
10, 51721, Note_on_c, 9, 54, 0
10, 51750, Note_on_c, 9, 54, 52
10, 51751, Note_on_c, 9, 54, 0
10, 51780, Note_on_c, 9, 82, 71
10, 51780, Note_on_c, 9, 54, 46
10, 51781, Note_on_c, 9, 54, 0
10, 51781, Note_on_c, 9, 82, 0
10, 51810, Note_on_c, 9, 40, 108
10, 51810, Note_on_c, 9, 70, 80
10, 51810, Note_on_c, 9, 54, 56
10, 51811, Note_on_c, 9, 54, 0
10, 51811, Note_on_c, 9, 70, 0
10, 51811, Note_on_c, 9, 40, 0
10, 51840, Note_on_c, 9, 35, 123
10, 51840, Note_on_c, 9, 70, 72
10, 51840, Note_on_c, 9, 54, 81
10, 51841, Note_on_c, 9, 54, 0
10, 51841, Note_on_c, 9, 70, 0
10, 51841, Note_on_c, 9, 35, 0
10, 51870, Note_on_c, 9, 54, 52
10, 51871, Note_on_c, 9, 54, 0
10, 51900, Note_on_c, 9, 82, 63
10, 51900, Note_on_c, 9, 54, 45
10, 51901, Note_on_c, 9, 54, 0
10, 51901, Note_on_c, 9, 82, 0
10, 51930, Note_on_c, 9, 70, 75
10, 51930, Note_on_c, 9, 54, 44
10, 51931, Note_on_c, 9, 54, 0
10, 51931, Note_on_c, 9, 70, 0
10, 51959, Note_on_c, 9, 55, 65
10, 51960, Note_on_c, 9, 55, 0
10, 51960, Note_on_c, 9, 40, 111
10, 51960, Note_on_c, 9, 70, 75
10, 51960, Note_on_c, 9, 54, 70
10, 51961, Note_on_c, 9, 54, 0
10, 51961, Note_on_c, 9, 70, 0
10, 51961, Note_on_c, 9, 40, 0
10, 51961, Note_on_c, 9, 39, 90
10, 51962, Note_on_c, 9, 39, 0
10, 51990, Note_on_c, 9, 54, 37
10, 51991, Note_on_c, 9, 54, 0
10, 52020, Note_on_c, 9, 82, 73
10, 52020, Note_on_c, 9, 54, 56
10, 52021, Note_on_c, 9, 54, 0
10, 52021, Note_on_c, 9, 82, 0
10, 52050, Note_on_c, 9, 70, 86
10, 52050, Note_on_c, 9, 54, 52
10, 52051, Note_on_c, 9, 54, 0
10, 52051, Note_on_c, 9, 70, 0
10, 52080, Note_on_c, 9, 35, 117
10, 52080, Note_on_c, 9, 70, 75
10, 52080, Note_on_c, 9, 54, 77
10, 52081, Note_on_c, 9, 54, 0
10, 52081, Note_on_c, 9, 70, 0
10, 52081, Note_on_c, 9, 35, 0
10, 52110, Note_on_c, 9, 54, 31
10, 52111, Note_on_c, 9, 54, 0
10, 52140, Note_on_c, 9, 35, 123
10, 52140, Note_on_c, 9, 82, 68
10, 52140, Note_on_c, 9, 54, 42
10, 52141, Note_on_c, 9, 54, 0
10, 52141, Note_on_c, 9, 82, 0
10, 52141, Note_on_c, 9, 35, 0
10, 52170, Note_on_c, 9, 70, 74
10, 52170, Note_on_c, 9, 54, 40
10, 52171, Note_on_c, 9, 54, 0
10, 52171, Note_on_c, 9, 70, 0
10, 52199, Note_on_c, 9, 55, 67
10, 52200, Note_on_c, 9, 55, 0
10, 52200, Note_on_c, 9, 40, 111
10, 52200, Note_on_c, 9, 70, 66
10, 52200, Note_on_c, 9, 54, 70
10, 52200, Note_on_c, 9, 39, 90
10, 52201, Note_on_c, 9, 39, 0
10, 52201, Note_on_c, 9, 40, 0
10, 52201, Note_on_c, 9, 70, 0
10, 52201, Note_on_c, 9, 54, 0
10, 52230, Note_on_c, 9, 54, 44
10, 52231, Note_on_c, 9, 54, 0
10, 52260, Note_on_c, 9, 40, 114
10, 52260, Note_on_c, 9, 82, 71
10, 52260, Note_on_c, 9, 54, 42
10, 52261, Note_on_c, 9, 54, 0
10, 52261, Note_on_c, 9, 82, 0
10, 52261, Note_on_c, 9, 40, 0
10, 52290, Note_on_c, 9, 70, 92
10, 52290, Note_on_c, 9, 54, 56
10, 52291, Note_on_c, 9, 54, 0
10, 52291, Note_on_c, 9, 70, 0
10, 52320, Note_on_c, 9, 49, 81
10, 52320, Note_on_c, 9, 35, 117
10, 52320, Note_on_c, 9, 70, 82
10, 52320, Note_on_c, 9, 54, 77
10, 52321, Note_on_c, 9, 54, 0
10, 52321, Note_on_c, 9, 49, 0
10, 52321, Note_on_c, 9, 35, 0
10, 52321, Note_on_c, 9, 70, 0
10, 52350, Note_on_c, 9, 54, 46
10, 52351, Note_on_c, 9, 54, 0
10, 52380, Note_on_c, 9, 82, 69
10, 52380, Note_on_c, 9, 54, 46
10, 52381, Note_on_c, 9, 54, 0
10, 52381, Note_on_c, 9, 82, 0
10, 52410, Note_on_c, 9, 70, 86
10, 52410, Note_on_c, 9, 54, 52
10, 52411, Note_on_c, 9, 54, 0
10, 52411, Note_on_c, 9, 70, 0
10, 52439, Note_on_c, 9, 55, 56
10, 52440, Note_on_c, 9, 55, 0
10, 52440, Note_on_c, 9, 40, 111
10, 52440, Note_on_c, 9, 70, 81
10, 52440, Note_on_c, 9, 54, 67
10, 52441, Note_on_c, 9, 54, 0
10, 52441, Note_on_c, 9, 70, 0
10, 52441, Note_on_c, 9, 40, 0
10, 52443, Note_on_c, 9, 39, 90
10, 52444, Note_on_c, 9, 39, 0
10, 52470, Note_on_c, 9, 54, 29
10, 52471, Note_on_c, 9, 54, 0
10, 52500, Note_on_c, 9, 82, 69
10, 52500, Note_on_c, 9, 54, 49
10, 52501, Note_on_c, 9, 54, 0
10, 52501, Note_on_c, 9, 82, 0
10, 52530, Note_on_c, 9, 70, 88
10, 52530, Note_on_c, 9, 54, 61
10, 52531, Note_on_c, 9, 54, 0
10, 52531, Note_on_c, 9, 70, 0
10, 52560, Note_on_c, 9, 35, 126
10, 52560, Note_on_c, 9, 70, 72
10, 52560, Note_on_c, 9, 54, 65
10, 52561, Note_on_c, 9, 54, 0
10, 52561, Note_on_c, 9, 70, 0
10, 52561, Note_on_c, 9, 35, 0
10, 52590, Note_on_c, 9, 54, 30
10, 52591, Note_on_c, 9, 54, 0
10, 52620, Note_on_c, 9, 82, 66
10, 52620, Note_on_c, 9, 54, 48
10, 52621, Note_on_c, 9, 54, 0
10, 52621, Note_on_c, 9, 82, 0
10, 52650, Note_on_c, 9, 70, 88
10, 52650, Note_on_c, 9, 54, 60
10, 52651, Note_on_c, 9, 54, 0
10, 52651, Note_on_c, 9, 70, 0
10, 52679, Note_on_c, 9, 55, 65
10, 52679, Note_on_c, 9, 39, 90
10, 52680, Note_on_c, 9, 39, 0
10, 52680, Note_on_c, 9, 55, 0
10, 52680, Note_on_c, 9, 40, 108
10, 52680, Note_on_c, 9, 70, 80
10, 52680, Note_on_c, 9, 54, 67
10, 52681, Note_on_c, 9, 54, 0
10, 52681, Note_on_c, 9, 70, 0
10, 52681, Note_on_c, 9, 40, 0
10, 52710, Note_on_c, 9, 54, 52
10, 52711, Note_on_c, 9, 54, 0
10, 52740, Note_on_c, 9, 82, 71
10, 52740, Note_on_c, 9, 54, 46
10, 52741, Note_on_c, 9, 54, 0
10, 52741, Note_on_c, 9, 82, 0
10, 52770, Note_on_c, 9, 70, 80
10, 52770, Note_on_c, 9, 54, 56
10, 52771, Note_on_c, 9, 54, 0
10, 52771, Note_on_c, 9, 70, 0
10, 52800, Note_on_c, 9, 35, 123
10, 52800, Note_on_c, 9, 70, 72
10, 52800, Note_on_c, 9, 54, 81
10, 52801, Note_on_c, 9, 54, 0
10, 52801, Note_on_c, 9, 70, 0
10, 52801, Note_on_c, 9, 35, 0
10, 52830, Note_on_c, 9, 54, 52
10, 52831, Note_on_c, 9, 54, 0
10, 52860, Note_on_c, 9, 82, 63
10, 52860, Note_on_c, 9, 54, 45
10, 52861, Note_on_c, 9, 54, 0
10, 52861, Note_on_c, 9, 82, 0
10, 52890, Note_on_c, 9, 70, 75
10, 52890, Note_on_c, 9, 54, 44
10, 52891, Note_on_c, 9, 54, 0
10, 52891, Note_on_c, 9, 70, 0
10, 52919, Note_on_c, 9, 55, 65
10, 52920, Note_on_c, 9, 55, 0
10, 52920, Note_on_c, 9, 40, 111
10, 52920, Note_on_c, 9, 70, 75
10, 52920, Note_on_c, 9, 54, 70
10, 52920, Note_on_c, 9, 39, 90
10, 52921, Note_on_c, 9, 39, 0
10, 52921, Note_on_c, 9, 40, 0
10, 52921, Note_on_c, 9, 70, 0
10, 52921, Note_on_c, 9, 54, 0
10, 52950, Note_on_c, 9, 54, 37
10, 52951, Note_on_c, 9, 54, 0
10, 52980, Note_on_c, 9, 82, 73
10, 52980, Note_on_c, 9, 54, 56
10, 52981, Note_on_c, 9, 54, 0
10, 52981, Note_on_c, 9, 82, 0
10, 53010, Note_on_c, 9, 70, 86
10, 53010, Note_on_c, 9, 54, 52
10, 53011, Note_on_c, 9, 54, 0
10, 53011, Note_on_c, 9, 70, 0
10, 53040, Note_on_c, 9, 35, 117
10, 53040, Note_on_c, 9, 70, 75
10, 53040, Note_on_c, 9, 54, 77
10, 53041, Note_on_c, 9, 54, 0
10, 53041, Note_on_c, 9, 70, 0
10, 53041, Note_on_c, 9, 35, 0
10, 53070, Note_on_c, 9, 54, 31
10, 53071, Note_on_c, 9, 54, 0
10, 53100, Note_on_c, 9, 82, 68
10, 53100, Note_on_c, 9, 54, 42
10, 53101, Note_on_c, 9, 54, 0
10, 53101, Note_on_c, 9, 82, 0
10, 53130, Note_on_c, 9, 70, 74
10, 53130, Note_on_c, 9, 54, 40
10, 53131, Note_on_c, 9, 54, 0
10, 53131, Note_on_c, 9, 70, 0
10, 53159, Note_on_c, 9, 55, 67
10, 53160, Note_on_c, 9, 55, 0
10, 53160, Note_on_c, 9, 40, 111
10, 53160, Note_on_c, 9, 70, 66
10, 53160, Note_on_c, 9, 54, 70
10, 53161, Note_on_c, 9, 54, 0
10, 53161, Note_on_c, 9, 70, 0
10, 53161, Note_on_c, 9, 40, 0
10, 53162, Note_on_c, 9, 39, 90
10, 53163, Note_on_c, 9, 39, 0
10, 53190, Note_on_c, 9, 54, 44
10, 53191, Note_on_c, 9, 54, 0
10, 53220, Note_on_c, 9, 82, 71
10, 53220, Note_on_c, 9, 54, 42
10, 53221, Note_on_c, 9, 54, 0
10, 53221, Note_on_c, 9, 82, 0
10, 53250, Note_on_c, 9, 40, 114
10, 53250, Note_on_c, 9, 70, 92
10, 53250, Note_on_c, 9, 54, 56
10, 53251, Note_on_c, 9, 54, 0
10, 53251, Note_on_c, 9, 70, 0
10, 53251, Note_on_c, 9, 40, 0
10, 53280, Note_on_c, 9, 52, 92
10, 53280, Note_on_c, 9, 35, 117
10, 53280, Note_on_c, 9, 70, 82
10, 53280, Note_on_c, 9, 54, 77
10, 53281, Note_on_c, 9, 54, 0
10, 53281, Note_on_c, 9, 52, 0
10, 53281, Note_on_c, 9, 35, 0
10, 53281, Note_on_c, 9, 70, 0
10, 53310, Note_on_c, 9, 54, 46
10, 53311, Note_on_c, 9, 54, 0
10, 53340, Note_on_c, 9, 82, 69
10, 53340, Note_on_c, 9, 54, 46
10, 53341, Note_on_c, 9, 54, 0
10, 53341, Note_on_c, 9, 82, 0
10, 53370, Note_on_c, 9, 70, 86
10, 53370, Note_on_c, 9, 54, 52
10, 53371, Note_on_c, 9, 54, 0
10, 53371, Note_on_c, 9, 70, 0
10, 53396, Note_on_c, 9, 39, 90
10, 53397, Note_on_c, 9, 39, 0
10, 53399, Note_on_c, 9, 55, 56
10, 53400, Note_on_c, 9, 55, 0
10, 53400, Note_on_c, 9, 40, 111
10, 53400, Note_on_c, 9, 70, 81
10, 53400, Note_on_c, 9, 54, 67
10, 53401, Note_on_c, 9, 54, 0
10, 53401, Note_on_c, 9, 70, 0
10, 53401, Note_on_c, 9, 40, 0
10, 53430, Note_on_c, 9, 54, 29
10, 53431, Note_on_c, 9, 54, 0
10, 53460, Note_on_c, 9, 82, 69
10, 53460, Note_on_c, 9, 54, 49
10, 53461, Note_on_c, 9, 54, 0
10, 53461, Note_on_c, 9, 82, 0
10, 53490, Note_on_c, 9, 70, 88
10, 53490, Note_on_c, 9, 54, 61
10, 53491, Note_on_c, 9, 54, 0
10, 53491, Note_on_c, 9, 70, 0
10, 53520, Note_on_c, 9, 35, 126
10, 53520, Note_on_c, 9, 70, 72
10, 53520, Note_on_c, 9, 54, 65
10, 53521, Note_on_c, 9, 54, 0
10, 53521, Note_on_c, 9, 70, 0
10, 53521, Note_on_c, 9, 35, 0
10, 53550, Note_on_c, 9, 54, 30
10, 53551, Note_on_c, 9, 54, 0
10, 53580, Note_on_c, 9, 82, 66
10, 53580, Note_on_c, 9, 54, 48
10, 53581, Note_on_c, 9, 54, 0
10, 53581, Note_on_c, 9, 82, 0
10, 53610, Note_on_c, 9, 70, 88
10, 53610, Note_on_c, 9, 54, 60
10, 53611, Note_on_c, 9, 54, 0
10, 53611, Note_on_c, 9, 70, 0
10, 53639, Note_on_c, 9, 55, 65
10, 53640, Note_on_c, 9, 55, 0
10, 53640, Note_on_c, 9, 40, 108
10, 53640, Note_on_c, 9, 70, 80
10, 53640, Note_on_c, 9, 54, 67
10, 53640, Note_on_c, 9, 39, 90
10, 53641, Note_on_c, 9, 39, 0
10, 53641, Note_on_c, 9, 40, 0
10, 53641, Note_on_c, 9, 70, 0
10, 53641, Note_on_c, 9, 54, 0
10, 53670, Note_on_c, 9, 54, 52
10, 53671, Note_on_c, 9, 54, 0
10, 53700, Note_on_c, 9, 82, 71
10, 53700, Note_on_c, 9, 54, 46
10, 53701, Note_on_c, 9, 54, 0
10, 53701, Note_on_c, 9, 82, 0
10, 53730, Note_on_c, 9, 40, 108
10, 53730, Note_on_c, 9, 70, 80
10, 53730, Note_on_c, 9, 54, 56
10, 53731, Note_on_c, 9, 54, 0
10, 53731, Note_on_c, 9, 70, 0
10, 53731, Note_on_c, 9, 40, 0
10, 53760, Note_on_c, 9, 35, 123
10, 53760, Note_on_c, 9, 70, 72
10, 53760, Note_on_c, 9, 54, 81
10, 53761, Note_on_c, 9, 54, 0
10, 53761, Note_on_c, 9, 70, 0
10, 53761, Note_on_c, 9, 35, 0
10, 53790, Note_on_c, 9, 54, 52
10, 53791, Note_on_c, 9, 54, 0
10, 53820, Note_on_c, 9, 82, 63
10, 53820, Note_on_c, 9, 54, 45
10, 53821, Note_on_c, 9, 54, 0
10, 53821, Note_on_c, 9, 82, 0
10, 53850, Note_on_c, 9, 70, 75
10, 53850, Note_on_c, 9, 54, 44
10, 53851, Note_on_c, 9, 54, 0
10, 53851, Note_on_c, 9, 70, 0
10, 53879, Note_on_c, 9, 55, 65
10, 53880, Note_on_c, 9, 55, 0
10, 53880, Note_on_c, 9, 40, 111
10, 53880, Note_on_c, 9, 70, 75
10, 53880, Note_on_c, 9, 54, 70
10, 53881, Note_on_c, 9, 54, 0
10, 53881, Note_on_c, 9, 70, 0
10, 53881, Note_on_c, 9, 40, 0
10, 53881, Note_on_c, 9, 39, 90
10, 53882, Note_on_c, 9, 39, 0
10, 53910, Note_on_c, 9, 54, 37
10, 53911, Note_on_c, 9, 54, 0
10, 53940, Note_on_c, 9, 82, 73
10, 53940, Note_on_c, 9, 54, 56
10, 53941, Note_on_c, 9, 54, 0
10, 53941, Note_on_c, 9, 82, 0
10, 53970, Note_on_c, 9, 70, 86
10, 53970, Note_on_c, 9, 54, 52
10, 53971, Note_on_c, 9, 54, 0
10, 53971, Note_on_c, 9, 70, 0
10, 54000, Note_on_c, 9, 40, 105
10, 54000, Note_on_c, 9, 70, 75
10, 54000, Note_on_c, 9, 54, 77
10, 54001, Note_on_c, 9, 54, 0
10, 54001, Note_on_c, 9, 70, 0
10, 54001, Note_on_c, 9, 40, 0
10, 54030, Note_on_c, 9, 40, 111
10, 54030, Note_on_c, 9, 54, 31
10, 54031, Note_on_c, 9, 54, 0
10, 54031, Note_on_c, 9, 40, 0
10, 54060, Note_on_c, 9, 47, 89
10, 54060, Note_on_c, 9, 82, 68
10, 54060, Note_on_c, 9, 54, 42
10, 54061, Note_on_c, 9, 54, 0
10, 54061, Note_on_c, 9, 82, 0
10, 54061, Note_on_c, 9, 47, 0
10, 54090, Note_on_c, 9, 45, 91
10, 54090, Note_on_c, 9, 70, 74
10, 54090, Note_on_c, 9, 54, 40
10, 54091, Note_on_c, 9, 54, 0
10, 54091, Note_on_c, 9, 70, 0
10, 54091, Note_on_c, 9, 45, 0
10, 54119, Note_on_c, 9, 55, 67
10, 54120, Note_on_c, 9, 55, 0
10, 54120, Note_on_c, 9, 40, 111
10, 54120, Note_on_c, 9, 70, 66
10, 54120, Note_on_c, 9, 54, 70
10, 54120, Note_on_c, 9, 39, 90
10, 54121, Note_on_c, 9, 39, 0
10, 54121, Note_on_c, 9, 40, 0
10, 54121, Note_on_c, 9, 70, 0
10, 54121, Note_on_c, 9, 54, 0
10, 54150, Note_on_c, 9, 40, 114
10, 54150, Note_on_c, 9, 54, 44
10, 54151, Note_on_c, 9, 54, 0
10, 54151, Note_on_c, 9, 40, 0
10, 54180, Note_on_c, 9, 47, 96
10, 54180, Note_on_c, 9, 82, 71
10, 54180, Note_on_c, 9, 54, 42
10, 54181, Note_on_c, 9, 54, 0
10, 54181, Note_on_c, 9, 82, 0
10, 54181, Note_on_c, 9, 47, 0
10, 54210, Note_on_c, 9, 45, 96
10, 54210, Note_on_c, 9, 70, 92
10, 54210, Note_on_c, 9, 54, 56
10, 54211, Note_on_c, 9, 54, 0
10, 54211, Note_on_c, 9, 70, 0
10, 54211, Note_on_c, 9, 45, 0
10, 54240, Note_on_c, 9, 49, 81
10, 54240, Note_on_c, 9, 35, 117
10, 54240, Note_on_c, 9, 70, 82
10, 54240, Note_on_c, 9, 54, 77
10, 54241, Note_on_c, 9, 54, 0
10, 54241, Note_on_c, 9, 49, 0
10, 54241, Note_on_c, 9, 35, 0
10, 54241, Note_on_c, 9, 70, 0
10, 54270, Note_on_c, 9, 54, 46
10, 54271, Note_on_c, 9, 54, 0
10, 54300, Note_on_c, 9, 82, 69
10, 54300, Note_on_c, 9, 54, 46
10, 54301, Note_on_c, 9, 54, 0
10, 54301, Note_on_c, 9, 82, 0
10, 54330, Note_on_c, 9, 70, 86
10, 54330, Note_on_c, 9, 54, 52
10, 54331, Note_on_c, 9, 54, 0
10, 54331, Note_on_c, 9, 70, 0
10, 54359, Note_on_c, 9, 55, 56
10, 54360, Note_on_c, 9, 55, 0
10, 54360, Note_on_c, 9, 40, 111
10, 54360, Note_on_c, 9, 70, 81
10, 54360, Note_on_c, 9, 54, 67
10, 54361, Note_on_c, 9, 54, 0
10, 54361, Note_on_c, 9, 70, 0
10, 54361, Note_on_c, 9, 40, 0
10, 54363, Note_on_c, 9, 39, 90
10, 54364, Note_on_c, 9, 39, 0
10, 54390, Note_on_c, 9, 54, 29
10, 54391, Note_on_c, 9, 54, 0
10, 54420, Note_on_c, 9, 82, 69
10, 54420, Note_on_c, 9, 54, 49
10, 54421, Note_on_c, 9, 54, 0
10, 54421, Note_on_c, 9, 82, 0
10, 54450, Note_on_c, 9, 70, 88
10, 54450, Note_on_c, 9, 54, 61
10, 54451, Note_on_c, 9, 54, 0
10, 54451, Note_on_c, 9, 70, 0
10, 54480, Note_on_c, 9, 35, 126
10, 54480, Note_on_c, 9, 70, 72
10, 54480, Note_on_c, 9, 54, 65
10, 54481, Note_on_c, 9, 54, 0
10, 54481, Note_on_c, 9, 70, 0
10, 54481, Note_on_c, 9, 35, 0
10, 54510, Note_on_c, 9, 54, 30
10, 54511, Note_on_c, 9, 54, 0
10, 54540, Note_on_c, 9, 82, 66
10, 54540, Note_on_c, 9, 54, 48
10, 54541, Note_on_c, 9, 54, 0
10, 54541, Note_on_c, 9, 82, 0
10, 54570, Note_on_c, 9, 70, 88
10, 54570, Note_on_c, 9, 54, 60
10, 54571, Note_on_c, 9, 54, 0
10, 54571, Note_on_c, 9, 70, 0
10, 54599, Note_on_c, 9, 55, 65
10, 54599, Note_on_c, 9, 39, 90
10, 54600, Note_on_c, 9, 39, 0
10, 54600, Note_on_c, 9, 55, 0
10, 54600, Note_on_c, 9, 40, 108
10, 54600, Note_on_c, 9, 70, 80
10, 54600, Note_on_c, 9, 54, 67
10, 54601, Note_on_c, 9, 54, 0
10, 54601, Note_on_c, 9, 70, 0
10, 54601, Note_on_c, 9, 40, 0
10, 54630, Note_on_c, 9, 54, 52
10, 54631, Note_on_c, 9, 54, 0
10, 54660, Note_on_c, 9, 82, 71
10, 54660, Note_on_c, 9, 54, 46
10, 54661, Note_on_c, 9, 54, 0
10, 54661, Note_on_c, 9, 82, 0
10, 54690, Note_on_c, 9, 70, 80
10, 54690, Note_on_c, 9, 54, 56
10, 54691, Note_on_c, 9, 54, 0
10, 54691, Note_on_c, 9, 70, 0
10, 54720, Note_on_c, 9, 35, 123
10, 54720, Note_on_c, 9, 70, 72
10, 54720, Note_on_c, 9, 54, 81
10, 54721, Note_on_c, 9, 54, 0
10, 54721, Note_on_c, 9, 70, 0
10, 54721, Note_on_c, 9, 35, 0
10, 54750, Note_on_c, 9, 54, 52
10, 54751, Note_on_c, 9, 54, 0
10, 54780, Note_on_c, 9, 82, 63
10, 54780, Note_on_c, 9, 54, 45
10, 54781, Note_on_c, 9, 54, 0
10, 54781, Note_on_c, 9, 82, 0
10, 54810, Note_on_c, 9, 70, 75
10, 54810, Note_on_c, 9, 54, 44
10, 54811, Note_on_c, 9, 54, 0
10, 54811, Note_on_c, 9, 70, 0
10, 54839, Note_on_c, 9, 55, 65
10, 54840, Note_on_c, 9, 55, 0
10, 54840, Note_on_c, 9, 40, 111
10, 54840, Note_on_c, 9, 70, 75
10, 54840, Note_on_c, 9, 54, 70
10, 54840, Note_on_c, 9, 39, 90
10, 54841, Note_on_c, 9, 39, 0
10, 54841, Note_on_c, 9, 40, 0
10, 54841, Note_on_c, 9, 70, 0
10, 54841, Note_on_c, 9, 54, 0
10, 54870, Note_on_c, 9, 54, 37
10, 54871, Note_on_c, 9, 54, 0
10, 54900, Note_on_c, 9, 82, 73
10, 54900, Note_on_c, 9, 54, 56
10, 54901, Note_on_c, 9, 54, 0
10, 54901, Note_on_c, 9, 82, 0
10, 54930, Note_on_c, 9, 70, 86
10, 54930, Note_on_c, 9, 54, 52
10, 54931, Note_on_c, 9, 54, 0
10, 54931, Note_on_c, 9, 70, 0
10, 54960, Note_on_c, 9, 35, 117
10, 54960, Note_on_c, 9, 70, 75
10, 54960, Note_on_c, 9, 54, 77
10, 54961, Note_on_c, 9, 54, 0
10, 54961, Note_on_c, 9, 70, 0
10, 54961, Note_on_c, 9, 35, 0
10, 54990, Note_on_c, 9, 54, 31
10, 54991, Note_on_c, 9, 54, 0
10, 55020, Note_on_c, 9, 82, 68
10, 55020, Note_on_c, 9, 54, 42
10, 55021, Note_on_c, 9, 54, 0
10, 55021, Note_on_c, 9, 82, 0
10, 55050, Note_on_c, 9, 70, 74
10, 55050, Note_on_c, 9, 54, 40
10, 55051, Note_on_c, 9, 54, 0
10, 55051, Note_on_c, 9, 70, 0
10, 55079, Note_on_c, 9, 55, 67
10, 55080, Note_on_c, 9, 55, 0
10, 55080, Note_on_c, 9, 40, 111
10, 55080, Note_on_c, 9, 70, 66
10, 55080, Note_on_c, 9, 54, 70
10, 55081, Note_on_c, 9, 54, 0
10, 55081, Note_on_c, 9, 70, 0
10, 55081, Note_on_c, 9, 40, 0
10, 55082, Note_on_c, 9, 39, 90
10, 55083, Note_on_c, 9, 39, 0
10, 55110, Note_on_c, 9, 54, 44
10, 55111, Note_on_c, 9, 54, 0
10, 55140, Note_on_c, 9, 82, 71
10, 55140, Note_on_c, 9, 54, 42
10, 55141, Note_on_c, 9, 54, 0
10, 55141, Note_on_c, 9, 82, 0
10, 55170, Note_on_c, 9, 40, 114
10, 55170, Note_on_c, 9, 70, 92
10, 55170, Note_on_c, 9, 54, 56
10, 55171, Note_on_c, 9, 54, 0
10, 55171, Note_on_c, 9, 70, 0
10, 55171, Note_on_c, 9, 40, 0
10, 55200, Note_on_c, 9, 52, 92
10, 55200, Note_on_c, 9, 35, 117
10, 55200, Note_on_c, 9, 70, 82
10, 55200, Note_on_c, 9, 54, 77
10, 55201, Note_on_c, 9, 54, 0
10, 55201, Note_on_c, 9, 52, 0
10, 55201, Note_on_c, 9, 35, 0
10, 55201, Note_on_c, 9, 70, 0
10, 55230, Note_on_c, 9, 54, 46
10, 55231, Note_on_c, 9, 54, 0
10, 55260, Note_on_c, 9, 82, 69
10, 55260, Note_on_c, 9, 54, 46
10, 55261, Note_on_c, 9, 54, 0
10, 55261, Note_on_c, 9, 82, 0
10, 55290, Note_on_c, 9, 70, 86
10, 55290, Note_on_c, 9, 54, 52
10, 55291, Note_on_c, 9, 54, 0
10, 55291, Note_on_c, 9, 70, 0
10, 55316, Note_on_c, 9, 39, 90
10, 55317, Note_on_c, 9, 39, 0
10, 55319, Note_on_c, 9, 55, 56
10, 55320, Note_on_c, 9, 55, 0
10, 55320, Note_on_c, 9, 40, 111
10, 55320, Note_on_c, 9, 70, 81
10, 55320, Note_on_c, 9, 54, 67
10, 55321, Note_on_c, 9, 54, 0
10, 55321, Note_on_c, 9, 70, 0
10, 55321, Note_on_c, 9, 40, 0
10, 55350, Note_on_c, 9, 54, 29
10, 55351, Note_on_c, 9, 54, 0
10, 55380, Note_on_c, 9, 82, 69
10, 55380, Note_on_c, 9, 54, 49
10, 55381, Note_on_c, 9, 54, 0
10, 55381, Note_on_c, 9, 82, 0
10, 55410, Note_on_c, 9, 70, 88
10, 55410, Note_on_c, 9, 54, 61
10, 55411, Note_on_c, 9, 54, 0
10, 55411, Note_on_c, 9, 70, 0
10, 55440, Note_on_c, 9, 35, 126
10, 55440, Note_on_c, 9, 70, 72
10, 55440, Note_on_c, 9, 54, 65
10, 55441, Note_on_c, 9, 54, 0
10, 55441, Note_on_c, 9, 70, 0
10, 55441, Note_on_c, 9, 35, 0
10, 55470, Note_on_c, 9, 54, 30
10, 55471, Note_on_c, 9, 54, 0
10, 55500, Note_on_c, 9, 82, 66
10, 55500, Note_on_c, 9, 54, 48
10, 55501, Note_on_c, 9, 54, 0
10, 55501, Note_on_c, 9, 82, 0
10, 55530, Note_on_c, 9, 70, 88
10, 55530, Note_on_c, 9, 54, 60
10, 55531, Note_on_c, 9, 54, 0
10, 55531, Note_on_c, 9, 70, 0
10, 55559, Note_on_c, 9, 55, 65
10, 55560, Note_on_c, 9, 55, 0
10, 55560, Note_on_c, 9, 40, 108
10, 55560, Note_on_c, 9, 70, 80
10, 55560, Note_on_c, 9, 54, 67
10, 55560, Note_on_c, 9, 39, 90
10, 55561, Note_on_c, 9, 39, 0
10, 55561, Note_on_c, 9, 40, 0
10, 55561, Note_on_c, 9, 70, 0
10, 55561, Note_on_c, 9, 54, 0
10, 55590, Note_on_c, 9, 54, 52
10, 55591, Note_on_c, 9, 54, 0
10, 55620, Note_on_c, 9, 82, 71
10, 55620, Note_on_c, 9, 54, 46
10, 55621, Note_on_c, 9, 54, 0
10, 55621, Note_on_c, 9, 82, 0
10, 55650, Note_on_c, 9, 40, 108
10, 55650, Note_on_c, 9, 70, 80
10, 55650, Note_on_c, 9, 54, 56
10, 55651, Note_on_c, 9, 54, 0
10, 55651, Note_on_c, 9, 70, 0
10, 55651, Note_on_c, 9, 40, 0
10, 55680, Note_on_c, 9, 35, 123
10, 55680, Note_on_c, 9, 70, 72
10, 55680, Note_on_c, 9, 54, 81
10, 55681, Note_on_c, 9, 54, 0
10, 55681, Note_on_c, 9, 70, 0
10, 55681, Note_on_c, 9, 35, 0
10, 55710, Note_on_c, 9, 54, 52
10, 55711, Note_on_c, 9, 54, 0
10, 55740, Note_on_c, 9, 82, 63
10, 55740, Note_on_c, 9, 54, 45
10, 55741, Note_on_c, 9, 54, 0
10, 55741, Note_on_c, 9, 82, 0
10, 55770, Note_on_c, 9, 70, 75
10, 55770, Note_on_c, 9, 54, 44
10, 55771, Note_on_c, 9, 54, 0
10, 55771, Note_on_c, 9, 70, 0
10, 55799, Note_on_c, 9, 55, 65
10, 55800, Note_on_c, 9, 55, 0
10, 55800, Note_on_c, 9, 40, 111
10, 55800, Note_on_c, 9, 70, 75
10, 55800, Note_on_c, 9, 54, 70
10, 55801, Note_on_c, 9, 54, 0
10, 55801, Note_on_c, 9, 70, 0
10, 55801, Note_on_c, 9, 40, 0
10, 55801, Note_on_c, 9, 39, 90
10, 55802, Note_on_c, 9, 39, 0
10, 55830, Note_on_c, 9, 54, 37
10, 55831, Note_on_c, 9, 54, 0
10, 55860, Note_on_c, 9, 82, 73
10, 55860, Note_on_c, 9, 54, 56
10, 55861, Note_on_c, 9, 54, 0
10, 55861, Note_on_c, 9, 82, 0
10, 55890, Note_on_c, 9, 70, 86
10, 55890, Note_on_c, 9, 54, 52
10, 55891, Note_on_c, 9, 54, 0
10, 55891, Note_on_c, 9, 70, 0
10, 55920, Note_on_c, 9, 35, 117
10, 55920, Note_on_c, 9, 70, 75
10, 55920, Note_on_c, 9, 54, 77
10, 55921, Note_on_c, 9, 54, 0
10, 55921, Note_on_c, 9, 70, 0
10, 55921, Note_on_c, 9, 35, 0
10, 55950, Note_on_c, 9, 54, 31
10, 55951, Note_on_c, 9, 54, 0
10, 55980, Note_on_c, 9, 35, 123
10, 55980, Note_on_c, 9, 82, 68
10, 55980, Note_on_c, 9, 54, 42
10, 55981, Note_on_c, 9, 54, 0
10, 55981, Note_on_c, 9, 82, 0
10, 55981, Note_on_c, 9, 35, 0
10, 56010, Note_on_c, 9, 70, 74
10, 56010, Note_on_c, 9, 54, 40
10, 56011, Note_on_c, 9, 54, 0
10, 56011, Note_on_c, 9, 70, 0
10, 56039, Note_on_c, 9, 55, 67
10, 56040, Note_on_c, 9, 55, 0
10, 56040, Note_on_c, 9, 40, 111
10, 56040, Note_on_c, 9, 70, 66
10, 56040, Note_on_c, 9, 54, 70
10, 56040, Note_on_c, 9, 39, 90
10, 56041, Note_on_c, 9, 39, 0
10, 56041, Note_on_c, 9, 40, 0
10, 56041, Note_on_c, 9, 70, 0
10, 56041, Note_on_c, 9, 54, 0
10, 56070, Note_on_c, 9, 54, 44
10, 56071, Note_on_c, 9, 54, 0
10, 56100, Note_on_c, 9, 40, 114
10, 56100, Note_on_c, 9, 82, 71
10, 56100, Note_on_c, 9, 54, 42
10, 56101, Note_on_c, 9, 54, 0
10, 56101, Note_on_c, 9, 82, 0
10, 56101, Note_on_c, 9, 40, 0
10, 56130, Note_on_c, 9, 70, 92
10, 56130, Note_on_c, 9, 54, 56
10, 56131, Note_on_c, 9, 54, 0
10, 56131, Note_on_c, 9, 70, 0
10, 56160, Note_on_c, 9, 49, 81
10, 56160, Note_on_c, 9, 35, 117
10, 56160, Note_on_c, 9, 70, 82
10, 56160, Note_on_c, 9, 54, 77
10, 56161, Note_on_c, 9, 54, 0
10, 56161, Note_on_c, 9, 49, 0
10, 56161, Note_on_c, 9, 35, 0
10, 56161, Note_on_c, 9, 70, 0
10, 56190, Note_on_c, 9, 54, 46
10, 56191, Note_on_c, 9, 54, 0
10, 56220, Note_on_c, 9, 82, 69
10, 56220, Note_on_c, 9, 54, 46
10, 56221, Note_on_c, 9, 54, 0
10, 56221, Note_on_c, 9, 82, 0
10, 56250, Note_on_c, 9, 70, 86
10, 56250, Note_on_c, 9, 54, 52
10, 56251, Note_on_c, 9, 54, 0
10, 56251, Note_on_c, 9, 70, 0
10, 56279, Note_on_c, 9, 55, 56
10, 56280, Note_on_c, 9, 55, 0
10, 56280, Note_on_c, 9, 40, 111
10, 56280, Note_on_c, 9, 70, 81
10, 56280, Note_on_c, 9, 54, 67
10, 56281, Note_on_c, 9, 54, 0
10, 56281, Note_on_c, 9, 70, 0
10, 56281, Note_on_c, 9, 40, 0
10, 56283, Note_on_c, 9, 39, 90
10, 56284, Note_on_c, 9, 39, 0
10, 56310, Note_on_c, 9, 54, 29
10, 56311, Note_on_c, 9, 54, 0
10, 56340, Note_on_c, 9, 82, 69
10, 56340, Note_on_c, 9, 54, 49
10, 56341, Note_on_c, 9, 54, 0
10, 56341, Note_on_c, 9, 82, 0
10, 56370, Note_on_c, 9, 70, 88
10, 56370, Note_on_c, 9, 54, 61
10, 56371, Note_on_c, 9, 54, 0
10, 56371, Note_on_c, 9, 70, 0
10, 56400, Note_on_c, 9, 35, 126
10, 56400, Note_on_c, 9, 70, 72
10, 56400, Note_on_c, 9, 54, 65
10, 56401, Note_on_c, 9, 54, 0
10, 56401, Note_on_c, 9, 70, 0
10, 56401, Note_on_c, 9, 35, 0
10, 56430, Note_on_c, 9, 54, 30
10, 56431, Note_on_c, 9, 54, 0
10, 56460, Note_on_c, 9, 82, 66
10, 56460, Note_on_c, 9, 54, 48
10, 56461, Note_on_c, 9, 54, 0
10, 56461, Note_on_c, 9, 82, 0
10, 56490, Note_on_c, 9, 70, 88
10, 56490, Note_on_c, 9, 54, 60
10, 56491, Note_on_c, 9, 54, 0
10, 56491, Note_on_c, 9, 70, 0
10, 56519, Note_on_c, 9, 55, 65
10, 56519, Note_on_c, 9, 39, 90
10, 56520, Note_on_c, 9, 39, 0
10, 56520, Note_on_c, 9, 55, 0
10, 56520, Note_on_c, 9, 40, 108
10, 56520, Note_on_c, 9, 70, 80
10, 56520, Note_on_c, 9, 54, 67
10, 56521, Note_on_c, 9, 54, 0
10, 56521, Note_on_c, 9, 70, 0
10, 56521, Note_on_c, 9, 40, 0
10, 56550, Note_on_c, 9, 54, 52
10, 56551, Note_on_c, 9, 54, 0
10, 56580, Note_on_c, 9, 82, 71
10, 56580, Note_on_c, 9, 54, 46
10, 56581, Note_on_c, 9, 54, 0
10, 56581, Note_on_c, 9, 82, 0
10, 56610, Note_on_c, 9, 70, 80
10, 56610, Note_on_c, 9, 54, 56
10, 56611, Note_on_c, 9, 54, 0
10, 56611, Note_on_c, 9, 70, 0
10, 56640, Note_on_c, 9, 35, 123
10, 56640, Note_on_c, 9, 70, 72
10, 56640, Note_on_c, 9, 54, 81
10, 56641, Note_on_c, 9, 54, 0
10, 56641, Note_on_c, 9, 70, 0
10, 56641, Note_on_c, 9, 35, 0
10, 56670, Note_on_c, 9, 54, 52
10, 56671, Note_on_c, 9, 54, 0
10, 56700, Note_on_c, 9, 82, 63
10, 56700, Note_on_c, 9, 54, 45
10, 56701, Note_on_c, 9, 54, 0
10, 56701, Note_on_c, 9, 82, 0
10, 56730, Note_on_c, 9, 70, 75
10, 56730, Note_on_c, 9, 54, 44
10, 56731, Note_on_c, 9, 54, 0
10, 56731, Note_on_c, 9, 70, 0
10, 56759, Note_on_c, 9, 55, 65
10, 56760, Note_on_c, 9, 55, 0
10, 56760, Note_on_c, 9, 40, 111
10, 56760, Note_on_c, 9, 70, 75
10, 56760, Note_on_c, 9, 54, 70
10, 56760, Note_on_c, 9, 39, 90
10, 56761, Note_on_c, 9, 39, 0
10, 56761, Note_on_c, 9, 40, 0
10, 56761, Note_on_c, 9, 70, 0
10, 56761, Note_on_c, 9, 54, 0
10, 56790, Note_on_c, 9, 54, 37
10, 56791, Note_on_c, 9, 54, 0
10, 56820, Note_on_c, 9, 82, 73
10, 56820, Note_on_c, 9, 54, 56
10, 56821, Note_on_c, 9, 54, 0
10, 56821, Note_on_c, 9, 82, 0
10, 56850, Note_on_c, 9, 70, 86
10, 56850, Note_on_c, 9, 54, 52
10, 56851, Note_on_c, 9, 54, 0
10, 56851, Note_on_c, 9, 70, 0
10, 56880, Note_on_c, 9, 35, 117
10, 56880, Note_on_c, 9, 70, 75
10, 56880, Note_on_c, 9, 54, 77
10, 56881, Note_on_c, 9, 54, 0
10, 56881, Note_on_c, 9, 70, 0
10, 56881, Note_on_c, 9, 35, 0
10, 56910, Note_on_c, 9, 54, 31
10, 56911, Note_on_c, 9, 54, 0
10, 56940, Note_on_c, 9, 82, 68
10, 56940, Note_on_c, 9, 54, 42
10, 56941, Note_on_c, 9, 54, 0
10, 56941, Note_on_c, 9, 82, 0
10, 56970, Note_on_c, 9, 70, 74
10, 56970, Note_on_c, 9, 54, 40
10, 56971, Note_on_c, 9, 54, 0
10, 56971, Note_on_c, 9, 70, 0
10, 56999, Note_on_c, 9, 55, 67
10, 57000, Note_on_c, 9, 55, 0
10, 57000, Note_on_c, 9, 40, 111
10, 57000, Note_on_c, 9, 70, 66
10, 57000, Note_on_c, 9, 54, 70
10, 57001, Note_on_c, 9, 54, 0
10, 57001, Note_on_c, 9, 70, 0
10, 57001, Note_on_c, 9, 40, 0
10, 57002, Note_on_c, 9, 39, 90
10, 57003, Note_on_c, 9, 39, 0
10, 57030, Note_on_c, 9, 54, 44
10, 57031, Note_on_c, 9, 54, 0
10, 57060, Note_on_c, 9, 82, 71
10, 57060, Note_on_c, 9, 54, 42
10, 57061, Note_on_c, 9, 54, 0
10, 57061, Note_on_c, 9, 82, 0
10, 57090, Note_on_c, 9, 40, 114
10, 57090, Note_on_c, 9, 70, 92
10, 57090, Note_on_c, 9, 54, 56
10, 57091, Note_on_c, 9, 54, 0
10, 57091, Note_on_c, 9, 70, 0
10, 57091, Note_on_c, 9, 40, 0
10, 57120, Note_on_c, 9, 52, 92
10, 57120, Note_on_c, 9, 35, 117
10, 57120, Note_on_c, 9, 70, 82
10, 57120, Note_on_c, 9, 54, 77
10, 57121, Note_on_c, 9, 54, 0
10, 57121, Note_on_c, 9, 52, 0
10, 57121, Note_on_c, 9, 35, 0
10, 57121, Note_on_c, 9, 70, 0
10, 57150, Note_on_c, 9, 54, 46
10, 57151, Note_on_c, 9, 54, 0
10, 57180, Note_on_c, 9, 82, 69
10, 57180, Note_on_c, 9, 54, 46
10, 57181, Note_on_c, 9, 54, 0
10, 57181, Note_on_c, 9, 82, 0
10, 57210, Note_on_c, 9, 70, 86
10, 57210, Note_on_c, 9, 54, 52
10, 57211, Note_on_c, 9, 54, 0
10, 57211, Note_on_c, 9, 70, 0
10, 57236, Note_on_c, 9, 39, 90
10, 57237, Note_on_c, 9, 39, 0
10, 57239, Note_on_c, 9, 55, 56
10, 57240, Note_on_c, 9, 55, 0
10, 57240, Note_on_c, 9, 40, 111
10, 57240, Note_on_c, 9, 70, 81
10, 57240, Note_on_c, 9, 54, 67
10, 57241, Note_on_c, 9, 54, 0
10, 57241, Note_on_c, 9, 70, 0
10, 57241, Note_on_c, 9, 40, 0
10, 57270, Note_on_c, 9, 54, 29
10, 57271, Note_on_c, 9, 54, 0
10, 57300, Note_on_c, 9, 82, 69
10, 57300, Note_on_c, 9, 54, 49
10, 57301, Note_on_c, 9, 54, 0
10, 57301, Note_on_c, 9, 82, 0
10, 57330, Note_on_c, 9, 70, 88
10, 57330, Note_on_c, 9, 54, 61
10, 57331, Note_on_c, 9, 54, 0
10, 57331, Note_on_c, 9, 70, 0
10, 57360, Note_on_c, 9, 35, 126
10, 57360, Note_on_c, 9, 70, 72
10, 57360, Note_on_c, 9, 54, 65
10, 57361, Note_on_c, 9, 54, 0
10, 57361, Note_on_c, 9, 70, 0
10, 57361, Note_on_c, 9, 35, 0
10, 57390, Note_on_c, 9, 54, 30
10, 57391, Note_on_c, 9, 54, 0
10, 57420, Note_on_c, 9, 82, 66
10, 57420, Note_on_c, 9, 54, 48
10, 57421, Note_on_c, 9, 54, 0
10, 57421, Note_on_c, 9, 82, 0
10, 57450, Note_on_c, 9, 70, 88
10, 57450, Note_on_c, 9, 54, 60
10, 57451, Note_on_c, 9, 54, 0
10, 57451, Note_on_c, 9, 70, 0
10, 57479, Note_on_c, 9, 55, 65
10, 57480, Note_on_c, 9, 55, 0
10, 57480, Note_on_c, 9, 40, 108
10, 57480, Note_on_c, 9, 70, 80
10, 57480, Note_on_c, 9, 54, 67
10, 57480, Note_on_c, 9, 39, 90
10, 57481, Note_on_c, 9, 39, 0
10, 57481, Note_on_c, 9, 40, 0
10, 57481, Note_on_c, 9, 70, 0
10, 57481, Note_on_c, 9, 54, 0
10, 57510, Note_on_c, 9, 54, 52
10, 57511, Note_on_c, 9, 54, 0
10, 57540, Note_on_c, 9, 82, 71
10, 57540, Note_on_c, 9, 54, 46
10, 57541, Note_on_c, 9, 54, 0
10, 57541, Note_on_c, 9, 82, 0
10, 57570, Note_on_c, 9, 40, 108
10, 57570, Note_on_c, 9, 70, 80
10, 57570, Note_on_c, 9, 54, 56
10, 57571, Note_on_c, 9, 54, 0
10, 57571, Note_on_c, 9, 70, 0
10, 57571, Note_on_c, 9, 40, 0
10, 57600, Note_on_c, 9, 35, 123
10, 57600, Note_on_c, 9, 70, 72
10, 57600, Note_on_c, 9, 54, 81
10, 57601, Note_on_c, 9, 54, 0
10, 57601, Note_on_c, 9, 70, 0
10, 57601, Note_on_c, 9, 35, 0
10, 57630, Note_on_c, 9, 54, 52
10, 57631, Note_on_c, 9, 54, 0
10, 57660, Note_on_c, 9, 82, 63
10, 57660, Note_on_c, 9, 54, 45
10, 57661, Note_on_c, 9, 54, 0
10, 57661, Note_on_c, 9, 82, 0
10, 57690, Note_on_c, 9, 70, 75
10, 57690, Note_on_c, 9, 54, 44
10, 57691, Note_on_c, 9, 54, 0
10, 57691, Note_on_c, 9, 70, 0
10, 57719, Note_on_c, 9, 55, 65
10, 57720, Note_on_c, 9, 55, 0
10, 57720, Note_on_c, 9, 40, 111
10, 57720, Note_on_c, 9, 70, 75
10, 57720, Note_on_c, 9, 54, 70
10, 57721, Note_on_c, 9, 54, 0
10, 57721, Note_on_c, 9, 70, 0
10, 57721, Note_on_c, 9, 40, 0
10, 57721, Note_on_c, 9, 39, 90
10, 57722, Note_on_c, 9, 39, 0
10, 57750, Note_on_c, 9, 54, 37
10, 57751, Note_on_c, 9, 54, 0
10, 57780, Note_on_c, 9, 82, 73
10, 57780, Note_on_c, 9, 54, 56
10, 57781, Note_on_c, 9, 54, 0
10, 57781, Note_on_c, 9, 82, 0
10, 57810, Note_on_c, 9, 70, 86
10, 57810, Note_on_c, 9, 54, 52
10, 57811, Note_on_c, 9, 54, 0
10, 57811, Note_on_c, 9, 70, 0
10, 57840, Note_on_c, 9, 35, 117
10, 57840, Note_on_c, 9, 70, 75
10, 57840, Note_on_c, 9, 54, 77
10, 57841, Note_on_c, 9, 54, 0
10, 57841, Note_on_c, 9, 70, 0
10, 57841, Note_on_c, 9, 35, 0
10, 57870, Note_on_c, 9, 54, 31
10, 57871, Note_on_c, 9, 54, 0
10, 57900, Note_on_c, 9, 35, 123
10, 57900, Note_on_c, 9, 82, 68
10, 57900, Note_on_c, 9, 54, 42
10, 57901, Note_on_c, 9, 54, 0
10, 57901, Note_on_c, 9, 82, 0
10, 57901, Note_on_c, 9, 35, 0
10, 57930, Note_on_c, 9, 70, 74
10, 57930, Note_on_c, 9, 54, 40
10, 57931, Note_on_c, 9, 54, 0
10, 57931, Note_on_c, 9, 70, 0
10, 57959, Note_on_c, 9, 55, 67
10, 57960, Note_on_c, 9, 55, 0
10, 57960, Note_on_c, 9, 40, 111
10, 57960, Note_on_c, 9, 70, 66
10, 57960, Note_on_c, 9, 54, 70
10, 57960, Note_on_c, 9, 39, 90
10, 57961, Note_on_c, 9, 39, 0
10, 57961, Note_on_c, 9, 40, 0
10, 57961, Note_on_c, 9, 70, 0
10, 57961, Note_on_c, 9, 54, 0
10, 57990, Note_on_c, 9, 54, 44
10, 57991, Note_on_c, 9, 54, 0
10, 58020, Note_on_c, 9, 40, 114
10, 58020, Note_on_c, 9, 82, 71
10, 58020, Note_on_c, 9, 54, 42
10, 58021, Note_on_c, 9, 54, 0
10, 58021, Note_on_c, 9, 82, 0
10, 58021, Note_on_c, 9, 40, 0
10, 58050, Note_on_c, 9, 70, 92
10, 58050, Note_on_c, 9, 54, 56
10, 58051, Note_on_c, 9, 54, 0
10, 58051, Note_on_c, 9, 70, 0
10, 58051, End_track
0, 0, End_of_file
