0, 0, Header, 1, 13, 120
1, 0, Start_track
1, 0, Title_t, "Puppet On A String, Words and Music by Sid Tepper and Roy C. Bennett"
1, 0, Title_t, "Recorded by Elvis Presley Kar'd by L-S O"
1, 0, Text_t, "Sequenced by Deb Ackley, 08/31/98\012"
1, 0, Text_t, "deb@who.net\012"
1, 0, Text_t, "MIDI Haven, http://midihaven.com/midi.html\012"
1, 0, System_exclusive, 5, 126, 127, 9, 1, 247
1, 0, Time_signature, 4, 2, 24, 8
1, 0, Key_signature, 1, "major"
1, 0, Tempo, 560748
1, 0, End_track
2, 0, Start_track
2, 0, Title_t, "Soft karaoke"
2, 0, Text_t, "@KMIDI KARAOKE FILE"
2, 0, End_track
3, 0, Start_track
3, 0, Title_t, "Words"
3, 0, Text_t, "@LENGL"
3, 0, Text_t, "@TPuppet on a string  Elvis Presley"
3, 0, Text_t, "@Tkar by L-S Ouellet  karaoke@courriel.qc.ca"
3, 2880, Text_t, "\\Ev'"
3, 3000, Text_t, "ry"
3, 3120, Text_t, " time"
3, 3300, Text_t, " you"
3, 3360, Text_t, " look"
3, 3480, Text_t, " at"
3, 3600, Text_t, " me"
3, 3840, Text_t, "/I'm"
3, 3960, Text_t, " as"
3, 4080, Text_t, " help"
3, 4260, Text_t, "less"
3, 4320, Text_t, " as"
3, 4440, Text_t, " can"
3, 4560, Text_t, " be"
3, 4800, Text_t, "/I"
3, 4920, Text_t, " be"
3, 5040, Text_t, "come"
3, 5220, Text_t, " a"
3, 5280, Text_t, " pup"
3, 5370, Text_t, "pet"
3, 5400, Text_t, " on"
3, 5490, Text_t, " a"
3, 5520, Text_t, " string"
3, 5700, Text_t, "/And"
3, 5760, Text_t, " you"
3, 5880, Text_t, " can"
3, 6000, Text_t, " do"
3, 6120, Text_t, "/'most"
3, 6240, Text_t, " an"
3, 6360, Text_t, "y"
3, 6480, Text_t, "thing"
3, 6600, Text_t, " with"
3, 6720, Text_t, " me"
3, 7680, Text_t, "/All"
3, 7800, Text_t, " you"
3, 7920, Text_t, " do"
3, 8100, Text_t, " is"
3, 8160, Text_t, " touch"
3, 8280, Text_t, " my"
3, 8400, Text_t, " hand"
3, 8640, Text_t, "/And"
3, 8760, Text_t, " your"
3, 8880, Text_t, " wish"
3, 9060, Text_t, " is"
3, 9120, Text_t, " my"
3, 9240, Text_t, " com"
3, 9360, Text_t, "mand"
3, 9600, Text_t, "/I"
3, 9720, Text_t, " be"
3, 9840, Text_t, "come"
3, 10020, Text_t, " a"
3, 10080, Text_t, " pup"
3, 10170, Text_t, "pet"
3, 10200, Text_t, " on"
3, 10290, Text_t, " a"
3, 10320, Text_t, " string"
3, 10500, Text_t, "/And"
3, 10560, Text_t, " you"
3, 10680, Text_t, " can"
3, 10800, Text_t, " do"
3, 10920, Text_t, "/'most"
3, 11040, Text_t, " an"
3, 11160, Text_t, "y"
3, 11280, Text_t, "thing"
3, 11400, Text_t, " with"
3, 11520, Text_t, " me"
3, 12600, Text_t, "/If"
3, 12660, Text_t, " you"
3, 12720, Text_t, " real"
3, 12900, Text_t, "ly"
3, 12960, Text_t, " love"
3, 13080, Text_t, " me"
3, 13560, Text_t, "/dar"
3, 13620, Text_t, "ling"
3, 13680, Text_t, " please"
3, 13860, Text_t, " be"
3, 13920, Text_t, " kind"
3, 14340, Text_t, "/I"
3, 14400, Text_t, " of"
3, 14520, Text_t, "fer"
3, 14640, Text_t, " you"
3, 14820, Text_t, " the"
3, 14880, Text_t, " tru"
3, 15000, Text_t, "est"
3, 15132, Text_t, " love"
3, 15300, Text_t, "/That"
3, 15360, Text_t, " you"
3, 15480, Text_t, " will"
3, 15600, Text_t, " ev"
3, 15720, Text_t, "er"
3, 15840, Text_t, " find"
3, 16320, Text_t, "/Take"
3, 16440, Text_t, " my"
3, 16560, Text_t, " heart"
3, 16740, Text_t, " and"
3, 16800, Text_t, " please"
3, 16920, Text_t, " be"
3, 17040, Text_t, " fair"
3, 17280, Text_t, "/Han"
3, 17400, Text_t, "dle"
3, 17520, Text_t, " it"
3, 17700, Text_t, " with"
3, 17760, Text_t, " lo"
3, 17880, Text_t, "ving"
3, 18000, Text_t, " care"
3, 18240, Text_t, "/For"
3, 18360, Text_t, " I'm"
3, 18480, Text_t, " just"
3, 18660, Text_t, " a"
3, 18720, Text_t, " pup"
3, 18810, Text_t, "pet"
3, 18840, Text_t, " on"
3, 18930, Text_t, " a"
3, 18960, Text_t, " string"
3, 19140, Text_t, "/And"
3, 19200, Text_t, " you"
3, 19320, Text_t, " can"
3, 19440, Text_t, " do"
3, 19560, Text_t, "/'most"
3, 19680, Text_t, " an"
3, 19800, Text_t, "y"
3, 19920, Text_t, "thing"
3, 20040, Text_t, " with"
3, 20160, Text_t, " me"
3, 21120, Text_t, "/Ev'"
3, 21240, Text_t, "ry"
3, 21360, Text_t, " time"
3, 21540, Text_t, " you"
3, 21600, Text_t, " look"
3, 21720, Text_t, " at"
3, 21840, Text_t, " me"
3, 22080, Text_t, "/I'm"
3, 22200, Text_t, " as"
3, 22320, Text_t, " help"
3, 22500, Text_t, "less"
3, 22560, Text_t, " as"
3, 22680, Text_t, " can"
3, 22800, Text_t, " be"
3, 23040, Text_t, "/I"
3, 23160, Text_t, " be"
3, 23280, Text_t, "come"
3, 23460, Text_t, " a"
3, 23520, Text_t, " pup"
3, 23610, Text_t, "pet"
3, 23640, Text_t, " on"
3, 23730, Text_t, " a"
3, 23760, Text_t, " string"
3, 23940, Text_t, "/And"
3, 24000, Text_t, " you"
3, 24120, Text_t, " can"
3, 24240, Text_t, " do"
3, 24360, Text_t, "/'most"
3, 24480, Text_t, " an"
3, 24600, Text_t, "y"
3, 24720, Text_t, "thing"
3, 24840, Text_t, " with"
3, 24960, Text_t, " me"
3, 26040, Text_t, "/If"
3, 26100, Text_t, " you"
3, 26160, Text_t, " real"
3, 26340, Text_t, "ly"
3, 26400, Text_t, " love"
3, 26520, Text_t, " me"
3, 27000, Text_t, "/dar"
3, 27060, Text_t, "ling"
3, 27120, Text_t, " please"
3, 27300, Text_t, " be"
3, 27360, Text_t, " kind"
3, 27780, Text_t, "/I"
3, 27840, Text_t, " of"
3, 27960, Text_t, "fer"
3, 28080, Text_t, " you"
3, 28260, Text_t, " the"
3, 28320, Text_t, " tru"
3, 28440, Text_t, "est"
3, 28572, Text_t, " love"
3, 28740, Text_t, "/That"
3, 28800, Text_t, " you"
3, 28920, Text_t, " will"
3, 29040, Text_t, " ev"
3, 29160, Text_t, "er"
3, 29280, Text_t, " find"
3, 29760, Text_t, "/Take"
3, 29880, Text_t, " my"
3, 30000, Text_t, " heart"
3, 30180, Text_t, " and"
3, 30240, Text_t, " please"
3, 30360, Text_t, " be"
3, 30480, Text_t, " fair"
3, 30720, Text_t, "/Han"
3, 30840, Text_t, "dle"
3, 30960, Text_t, " it"
3, 31140, Text_t, " with"
3, 31200, Text_t, " lo"
3, 31320, Text_t, "ving"
3, 31440, Text_t, " care"
3, 31680, Text_t, "/For"
3, 31800, Text_t, " I'm"
3, 31920, Text_t, " just"
3, 32100, Text_t, " a"
3, 32160, Text_t, " pup"
3, 32250, Text_t, "pet"
3, 32280, Text_t, " on"
3, 32370, Text_t, " a"
3, 32400, Text_t, " string"
3, 32580, Text_t, "/And"
3, 32640, Text_t, " you"
3, 32760, Text_t, " can"
3, 32880, Text_t, " do"
3, 33000, Text_t, "/'most"
3, 33120, Text_t, " an"
3, 33240, Text_t, "y"
3, 33360, Text_t, "thing"
3, 33480, Text_t, " with"
3, 33600, Text_t, " me"
3, 33600, End_track
4, 0, Start_track
4, 0, Title_t, "Bass"
4, 0, Control_c, 1, 123, 0
4, 0, Control_c, 1, 91, 40
4, 0, Control_c, 1, 93, 0
4, 0, Control_c, 1, 64, 0
4, 127, Program_c, 1, 35
4, 128, Control_c, 1, 7, 95
4, 128, Control_c, 1, 10, 64
4, 960, Note_on_c, 1, 43, 78
4, 1109, Note_on_c, 1, 43, 0
4, 1140, Note_on_c, 1, 43, 78
4, 1169, Note_on_c, 1, 43, 0
4, 1200, Note_on_c, 1, 43, 84
4, 1384, Note_on_c, 1, 43, 0
4, 1384, Note_on_c, 1, 38, 61
4, 1424, Note_on_c, 1, 38, 0
4, 1440, Note_on_c, 1, 43, 91
4, 1594, Note_on_c, 1, 43, 0
4, 1620, Note_on_c, 1, 43, 78
4, 1648, Note_on_c, 1, 43, 0
4, 1680, Note_on_c, 1, 43, 91
4, 1844, Note_on_c, 1, 43, 0
4, 1860, Note_on_c, 1, 43, 94
4, 1894, Note_on_c, 1, 43, 0
4, 1920, Note_on_c, 1, 43, 91
4, 2066, Note_on_c, 1, 43, 0
4, 2100, Note_on_c, 1, 43, 71
4, 2122, Note_on_c, 1, 43, 0
4, 2160, Note_on_c, 1, 43, 91
4, 2315, Note_on_c, 1, 43, 0
4, 2340, Note_on_c, 1, 43, 58
4, 2358, Note_on_c, 1, 43, 0
4, 2400, Note_on_c, 1, 43, 81
4, 2558, Note_on_c, 1, 43, 0
4, 2580, Note_on_c, 1, 43, 68
4, 2604, Note_on_c, 1, 43, 0
4, 2640, Note_on_c, 1, 43, 94
4, 2803, Note_on_c, 1, 43, 0
4, 2820, Note_on_c, 1, 43, 97
4, 2844, Note_on_c, 1, 43, 0
4, 2880, Note_on_c, 1, 43, 91
4, 3037, Note_on_c, 1, 43, 0
4, 3060, Note_on_c, 1, 43, 63
4, 3089, Note_on_c, 1, 43, 0
4, 3120, Note_on_c, 1, 43, 84
4, 3338, Note_on_c, 1, 43, 0
4, 3360, Note_on_c, 1, 33, 91
4, 3517, Note_on_c, 1, 33, 0
4, 3540, Note_on_c, 1, 33, 63
4, 3569, Note_on_c, 1, 33, 0
4, 3600, Note_on_c, 1, 33, 84
4, 3818, Note_on_c, 1, 33, 0
4, 3840, Note_on_c, 1, 38, 87
4, 3993, Note_on_c, 1, 38, 0
4, 4020, Note_on_c, 1, 38, 91
4, 4056, Note_on_c, 1, 38, 0
4, 4080, Note_on_c, 1, 38, 87
4, 4260, Note_on_c, 1, 38, 0
4, 4260, Note_on_c, 1, 38, 65
4, 4297, Note_on_c, 1, 38, 0
4, 4320, Note_on_c, 1, 43, 78
4, 4469, Note_on_c, 1, 43, 0
4, 4500, Note_on_c, 1, 43, 78
4, 4529, Note_on_c, 1, 43, 0
4, 4560, Note_on_c, 1, 43, 81
4, 4680, Note_on_c, 1, 43, 0
4, 4680, Note_on_c, 1, 43, 81
4, 4800, Note_on_c, 1, 43, 0
4, 4800, Note_on_c, 1, 36, 91
4, 4946, Note_on_c, 1, 36, 0
4, 4980, Note_on_c, 1, 36, 71
4, 5002, Note_on_c, 1, 36, 0
4, 5040, Note_on_c, 1, 36, 91
4, 5195, Note_on_c, 1, 36, 0
4, 5220, Note_on_c, 1, 36, 58
4, 5238, Note_on_c, 1, 36, 0
4, 5280, Note_on_c, 1, 43, 91
4, 5437, Note_on_c, 1, 43, 0
4, 5460, Note_on_c, 1, 43, 63
4, 5489, Note_on_c, 1, 43, 0
4, 5520, Note_on_c, 1, 43, 84
4, 5738, Note_on_c, 1, 43, 0
4, 5760, Note_on_c, 1, 33, 87
4, 5904, Note_on_c, 1, 33, 0
4, 5940, Note_on_c, 1, 33, 68
4, 5974, Note_on_c, 1, 33, 0
4, 6000, Note_on_c, 1, 33, 78
4, 6163, Note_on_c, 1, 33, 0
4, 6180, Note_on_c, 1, 33, 87
4, 6214, Note_on_c, 1, 33, 0
4, 6240, Note_on_c, 1, 38, 87
4, 6384, Note_on_c, 1, 38, 0
4, 6420, Note_on_c, 1, 38, 68
4, 6454, Note_on_c, 1, 38, 0
4, 6480, Note_on_c, 1, 38, 78
4, 6643, Note_on_c, 1, 38, 0
4, 6660, Note_on_c, 1, 38, 87
4, 6694, Note_on_c, 1, 38, 0
4, 6720, Note_on_c, 1, 43, 87
4, 6873, Note_on_c, 1, 43, 0
4, 6900, Note_on_c, 1, 43, 91
4, 6936, Note_on_c, 1, 43, 0
4, 6960, Note_on_c, 1, 43, 87
4, 7140, Note_on_c, 1, 43, 0
4, 7140, Note_on_c, 1, 43, 65
4, 7177, Note_on_c, 1, 43, 0
4, 7200, Note_on_c, 1, 36, 91
4, 7346, Note_on_c, 1, 36, 0
4, 7380, Note_on_c, 1, 36, 71
4, 7402, Note_on_c, 1, 36, 0
4, 7440, Note_on_c, 1, 38, 81
4, 7580, Note_on_c, 1, 38, 0
4, 7620, Note_on_c, 1, 38, 56
4, 7642, Note_on_c, 1, 38, 0
4, 7680, Note_on_c, 1, 43, 81
4, 7820, Note_on_c, 1, 43, 0
4, 7860, Note_on_c, 1, 43, 56
4, 7882, Note_on_c, 1, 43, 0
4, 7920, Note_on_c, 1, 43, 71
4, 8122, Note_on_c, 1, 43, 0
4, 8160, Note_on_c, 1, 33, 87
4, 8313, Note_on_c, 1, 33, 0
4, 8340, Note_on_c, 1, 33, 91
4, 8376, Note_on_c, 1, 33, 0
4, 8400, Note_on_c, 1, 33, 87
4, 8580, Note_on_c, 1, 33, 0
4, 8580, Note_on_c, 1, 33, 65
4, 8617, Note_on_c, 1, 33, 0
4, 8640, Note_on_c, 1, 38, 81
4, 8780, Note_on_c, 1, 38, 0
4, 8820, Note_on_c, 1, 38, 56
4, 8842, Note_on_c, 1, 38, 0
4, 8880, Note_on_c, 1, 38, 71
4, 9082, Note_on_c, 1, 38, 0
4, 9120, Note_on_c, 1, 43, 81
4, 9260, Note_on_c, 1, 43, 0
4, 9300, Note_on_c, 1, 43, 56
4, 9322, Note_on_c, 1, 43, 0
4, 9360, Note_on_c, 1, 43, 87
4, 9480, Note_on_c, 1, 43, 0
4, 9480, Note_on_c, 1, 43, 91
4, 9600, Note_on_c, 1, 43, 0
4, 9600, Note_on_c, 1, 36, 91
4, 9741, Note_on_c, 1, 36, 0
4, 9780, Note_on_c, 1, 36, 63
4, 9809, Note_on_c, 1, 36, 0
4, 9840, Note_on_c, 1, 36, 87
4, 9991, Note_on_c, 1, 36, 0
4, 10020, Note_on_c, 1, 36, 54
4, 10038, Note_on_c, 1, 36, 0
4, 10080, Note_on_c, 1, 43, 87
4, 10233, Note_on_c, 1, 43, 0
4, 10260, Note_on_c, 1, 43, 91
4, 10296, Note_on_c, 1, 43, 0
4, 10320, Note_on_c, 1, 43, 87
4, 10500, Note_on_c, 1, 43, 0
4, 10500, Note_on_c, 1, 43, 65
4, 10537, Note_on_c, 1, 43, 0
4, 10560, Note_on_c, 1, 33, 91
4, 10717, Note_on_c, 1, 33, 0
4, 10740, Note_on_c, 1, 33, 63
4, 10769, Note_on_c, 1, 33, 0
4, 10800, Note_on_c, 1, 33, 84
4, 11018, Note_on_c, 1, 33, 0
4, 11040, Note_on_c, 1, 38, 91
4, 11186, Note_on_c, 1, 38, 0
4, 11220, Note_on_c, 1, 38, 71
4, 11242, Note_on_c, 1, 38, 0
4, 11280, Note_on_c, 1, 38, 91
4, 11435, Note_on_c, 1, 38, 0
4, 11460, Note_on_c, 1, 38, 58
4, 11478, Note_on_c, 1, 38, 0
4, 11520, Note_on_c, 1, 43, 78
4, 11669, Note_on_c, 1, 43, 0
4, 11700, Note_on_c, 1, 43, 78
4, 11729, Note_on_c, 1, 43, 0
4, 11760, Note_on_c, 1, 43, 84
4, 11944, Note_on_c, 1, 43, 0
4, 11944, Note_on_c, 1, 38, 61
4, 11984, Note_on_c, 1, 38, 0
4, 12000, Note_on_c, 1, 43, 78
4, 12149, Note_on_c, 1, 43, 0
4, 12180, Note_on_c, 1, 43, 78
4, 12209, Note_on_c, 1, 43, 0
4, 12240, Note_on_c, 1, 43, 84
4, 12424, Note_on_c, 1, 43, 0
4, 12424, Note_on_c, 1, 38, 61
4, 12464, Note_on_c, 1, 38, 0
4, 12480, Note_on_c, 1, 36, 87
4, 12633, Note_on_c, 1, 36, 0
4, 12660, Note_on_c, 1, 36, 91
4, 12696, Note_on_c, 1, 36, 0
4, 12720, Note_on_c, 1, 38, 87
4, 12864, Note_on_c, 1, 38, 0
4, 12900, Note_on_c, 1, 38, 68
4, 12934, Note_on_c, 1, 38, 0
4, 12960, Note_on_c, 1, 43, 91
4, 13117, Note_on_c, 1, 43, 0
4, 13140, Note_on_c, 1, 43, 63
4, 13169, Note_on_c, 1, 43, 0
4, 13200, Note_on_c, 1, 43, 84
4, 13418, Note_on_c, 1, 43, 0
4, 13440, Note_on_c, 1, 36, 87
4, 13593, Note_on_c, 1, 36, 0
4, 13620, Note_on_c, 1, 36, 91
4, 13656, Note_on_c, 1, 36, 0
4, 13680, Note_on_c, 1, 38, 78
4, 13829, Note_on_c, 1, 38, 0
4, 13860, Note_on_c, 1, 38, 78
4, 13889, Note_on_c, 1, 38, 0
4, 13920, Note_on_c, 1, 43, 87
4, 14064, Note_on_c, 1, 43, 0
4, 14100, Note_on_c, 1, 43, 68
4, 14134, Note_on_c, 1, 43, 0
4, 14160, Note_on_c, 1, 43, 78
4, 14323, Note_on_c, 1, 43, 0
4, 14340, Note_on_c, 1, 43, 87
4, 14374, Note_on_c, 1, 43, 0
4, 14400, Note_on_c, 1, 36, 91
4, 14557, Note_on_c, 1, 36, 0
4, 14580, Note_on_c, 1, 36, 63
4, 14609, Note_on_c, 1, 36, 0
4, 14640, Note_on_c, 1, 38, 87
4, 14784, Note_on_c, 1, 38, 0
4, 14820, Note_on_c, 1, 38, 68
4, 14854, Note_on_c, 1, 38, 0
4, 14880, Note_on_c, 1, 43, 87
4, 15033, Note_on_c, 1, 43, 0
4, 15060, Note_on_c, 1, 43, 91
4, 15096, Note_on_c, 1, 43, 0
4, 15120, Note_on_c, 1, 40, 78
4, 15269, Note_on_c, 1, 40, 0
4, 15300, Note_on_c, 1, 40, 78
4, 15329, Note_on_c, 1, 40, 0
4, 15360, Note_on_c, 1, 33, 87
4, 15504, Note_on_c, 1, 33, 0
4, 15540, Note_on_c, 1, 33, 68
4, 15574, Note_on_c, 1, 33, 0
4, 15600, Note_on_c, 1, 33, 78
4, 15763, Note_on_c, 1, 33, 0
4, 15780, Note_on_c, 1, 33, 87
4, 15814, Note_on_c, 1, 33, 0
4, 15840, Note_on_c, 1, 38, 91
4, 15997, Note_on_c, 1, 38, 0
4, 16020, Note_on_c, 1, 38, 63
4, 16049, Note_on_c, 1, 38, 0
4, 16080, Note_on_c, 1, 38, 84
4, 16298, Note_on_c, 1, 38, 0
4, 16320, Note_on_c, 1, 43, 87
4, 16473, Note_on_c, 1, 43, 0
4, 16500, Note_on_c, 1, 43, 91
4, 16536, Note_on_c, 1, 43, 0
4, 16560, Note_on_c, 1, 43, 87
4, 16740, Note_on_c, 1, 43, 0
4, 16740, Note_on_c, 1, 43, 65
4, 16777, Note_on_c, 1, 43, 0
4, 16800, Note_on_c, 1, 33, 91
4, 16957, Note_on_c, 1, 33, 0
4, 16980, Note_on_c, 1, 33, 63
4, 17009, Note_on_c, 1, 33, 0
4, 17040, Note_on_c, 1, 33, 84
4, 17258, Note_on_c, 1, 33, 0
4, 17280, Note_on_c, 1, 38, 87
4, 17424, Note_on_c, 1, 38, 0
4, 17460, Note_on_c, 1, 38, 68
4, 17494, Note_on_c, 1, 38, 0
4, 17520, Note_on_c, 1, 38, 78
4, 17683, Note_on_c, 1, 38, 0
4, 17700, Note_on_c, 1, 38, 87
4, 17734, Note_on_c, 1, 38, 0
4, 17760, Note_on_c, 1, 43, 87
4, 17904, Note_on_c, 1, 43, 0
4, 17940, Note_on_c, 1, 43, 68
4, 17974, Note_on_c, 1, 43, 0
4, 18000, Note_on_c, 1, 43, 91
4, 18120, Note_on_c, 1, 43, 0
4, 18120, Note_on_c, 1, 43, 91
4, 18240, Note_on_c, 1, 43, 0
4, 18240, Note_on_c, 1, 36, 87
4, 18384, Note_on_c, 1, 36, 0
4, 18420, Note_on_c, 1, 36, 68
4, 18454, Note_on_c, 1, 36, 0
4, 18480, Note_on_c, 1, 36, 78
4, 18643, Note_on_c, 1, 36, 0
4, 18660, Note_on_c, 1, 36, 87
4, 18694, Note_on_c, 1, 36, 0
4, 18720, Note_on_c, 1, 43, 91
4, 18867, Note_on_c, 1, 43, 0
4, 18900, Note_on_c, 1, 43, 71
4, 18929, Note_on_c, 1, 43, 0
4, 18960, Note_on_c, 1, 43, 91
4, 19121, Note_on_c, 1, 43, 0
4, 19140, Note_on_c, 1, 43, 81
4, 19175, Note_on_c, 1, 43, 0
4, 19200, Note_on_c, 1, 33, 87
4, 19344, Note_on_c, 1, 33, 0
4, 19380, Note_on_c, 1, 33, 68
4, 19414, Note_on_c, 1, 33, 0
4, 19440, Note_on_c, 1, 33, 78
4, 19603, Note_on_c, 1, 33, 0
4, 19620, Note_on_c, 1, 33, 87
4, 19654, Note_on_c, 1, 33, 0
4, 19680, Note_on_c, 1, 38, 87
4, 19833, Note_on_c, 1, 38, 0
4, 19860, Note_on_c, 1, 38, 91
4, 19896, Note_on_c, 1, 38, 0
4, 19920, Note_on_c, 1, 38, 87
4, 20100, Note_on_c, 1, 38, 0
4, 20100, Note_on_c, 1, 38, 65
4, 20137, Note_on_c, 1, 38, 0
4, 20160, Note_on_c, 1, 43, 87
4, 20304, Note_on_c, 1, 43, 0
4, 20340, Note_on_c, 1, 43, 68
4, 20374, Note_on_c, 1, 43, 0
4, 20400, Note_on_c, 1, 43, 78
4, 20563, Note_on_c, 1, 43, 0
4, 20580, Note_on_c, 1, 43, 87
4, 20614, Note_on_c, 1, 43, 0
4, 20640, Note_on_c, 1, 36, 81
4, 20780, Note_on_c, 1, 36, 0
4, 20820, Note_on_c, 1, 36, 56
4, 20842, Note_on_c, 1, 36, 0
4, 20880, Note_on_c, 1, 38, 91
4, 21027, Note_on_c, 1, 38, 0
4, 21060, Note_on_c, 1, 38, 71
4, 21089, Note_on_c, 1, 38, 0
4, 21120, Note_on_c, 1, 43, 81
4, 21260, Note_on_c, 1, 43, 0
4, 21300, Note_on_c, 1, 43, 56
4, 21322, Note_on_c, 1, 43, 0
4, 21360, Note_on_c, 1, 43, 71
4, 21562, Note_on_c, 1, 43, 0
4, 21600, Note_on_c, 1, 33, 91
4, 21746, Note_on_c, 1, 33, 0
4, 21780, Note_on_c, 1, 33, 71
4, 21802, Note_on_c, 1, 33, 0
4, 21840, Note_on_c, 1, 33, 91
4, 21995, Note_on_c, 1, 33, 0
4, 22020, Note_on_c, 1, 33, 58
4, 22038, Note_on_c, 1, 33, 0
4, 22080, Note_on_c, 1, 38, 81
4, 22220, Note_on_c, 1, 38, 0
4, 22260, Note_on_c, 1, 38, 56
4, 22282, Note_on_c, 1, 38, 0
4, 22320, Note_on_c, 1, 38, 71
4, 22522, Note_on_c, 1, 38, 0
4, 22560, Note_on_c, 1, 43, 78
4, 22709, Note_on_c, 1, 43, 0
4, 22740, Note_on_c, 1, 43, 78
4, 22769, Note_on_c, 1, 43, 0
4, 22800, Note_on_c, 1, 43, 87
4, 22920, Note_on_c, 1, 43, 0
4, 22920, Note_on_c, 1, 43, 78
4, 23040, Note_on_c, 1, 43, 0
4, 23040, Note_on_c, 1, 36, 91
4, 23197, Note_on_c, 1, 36, 0
4, 23220, Note_on_c, 1, 36, 63
4, 23249, Note_on_c, 1, 36, 0
4, 23280, Note_on_c, 1, 36, 84
4, 23498, Note_on_c, 1, 36, 0
4, 23520, Note_on_c, 1, 43, 91
4, 23667, Note_on_c, 1, 43, 0
4, 23700, Note_on_c, 1, 43, 71
4, 23729, Note_on_c, 1, 43, 0
4, 23760, Note_on_c, 1, 43, 91
4, 23921, Note_on_c, 1, 43, 0
4, 23940, Note_on_c, 1, 43, 81
4, 23975, Note_on_c, 1, 43, 0
4, 24000, Note_on_c, 1, 33, 91
4, 24147, Note_on_c, 1, 33, 0
4, 24180, Note_on_c, 1, 33, 71
4, 24209, Note_on_c, 1, 33, 0
4, 24240, Note_on_c, 1, 33, 91
4, 24401, Note_on_c, 1, 33, 0
4, 24420, Note_on_c, 1, 33, 81
4, 24455, Note_on_c, 1, 33, 0
4, 24480, Note_on_c, 1, 38, 91
4, 24637, Note_on_c, 1, 38, 0
4, 24660, Note_on_c, 1, 38, 63
4, 24689, Note_on_c, 1, 38, 0
4, 24720, Note_on_c, 1, 38, 84
4, 24938, Note_on_c, 1, 38, 0
4, 24960, Note_on_c, 1, 43, 91
4, 25107, Note_on_c, 1, 43, 0
4, 25140, Note_on_c, 1, 43, 71
4, 25169, Note_on_c, 1, 43, 0
4, 25200, Note_on_c, 1, 43, 91
4, 25361, Note_on_c, 1, 43, 0
4, 25380, Note_on_c, 1, 43, 81
4, 25415, Note_on_c, 1, 43, 0
4, 25440, Note_on_c, 1, 43, 91
4, 25587, Note_on_c, 1, 43, 0
4, 25620, Note_on_c, 1, 43, 71
4, 25649, Note_on_c, 1, 43, 0
4, 25680, Note_on_c, 1, 43, 91
4, 25841, Note_on_c, 1, 43, 0
4, 25860, Note_on_c, 1, 43, 81
4, 25895, Note_on_c, 1, 43, 0
4, 25920, Note_on_c, 1, 36, 78
4, 26069, Note_on_c, 1, 36, 0
4, 26100, Note_on_c, 1, 36, 78
4, 26129, Note_on_c, 1, 36, 0
4, 26160, Note_on_c, 1, 38, 91
4, 26306, Note_on_c, 1, 38, 0
4, 26340, Note_on_c, 1, 38, 71
4, 26362, Note_on_c, 1, 38, 0
4, 26400, Note_on_c, 1, 43, 78
4, 26549, Note_on_c, 1, 43, 0
4, 26580, Note_on_c, 1, 43, 78
4, 26609, Note_on_c, 1, 43, 0
4, 26640, Note_on_c, 1, 43, 84
4, 26824, Note_on_c, 1, 43, 0
4, 26824, Note_on_c, 1, 38, 61
4, 26864, Note_on_c, 1, 38, 0
4, 26880, Note_on_c, 1, 36, 91
4, 27026, Note_on_c, 1, 36, 0
4, 27060, Note_on_c, 1, 36, 71
4, 27082, Note_on_c, 1, 36, 0
4, 27120, Note_on_c, 1, 38, 91
4, 27266, Note_on_c, 1, 38, 0
4, 27300, Note_on_c, 1, 38, 71
4, 27322, Note_on_c, 1, 38, 0
4, 27360, Note_on_c, 1, 43, 81
4, 27500, Note_on_c, 1, 43, 0
4, 27540, Note_on_c, 1, 43, 56
4, 27562, Note_on_c, 1, 43, 0
4, 27600, Note_on_c, 1, 43, 71
4, 27802, Note_on_c, 1, 43, 0
4, 27840, Note_on_c, 1, 36, 81
4, 27980, Note_on_c, 1, 36, 0
4, 28020, Note_on_c, 1, 36, 56
4, 28042, Note_on_c, 1, 36, 0
4, 28080, Note_on_c, 1, 38, 91
4, 28226, Note_on_c, 1, 38, 0
4, 28260, Note_on_c, 1, 38, 71
4, 28282, Note_on_c, 1, 38, 0
4, 28320, Note_on_c, 1, 43, 78
4, 28469, Note_on_c, 1, 43, 0
4, 28500, Note_on_c, 1, 43, 78
4, 28529, Note_on_c, 1, 43, 0
4, 28560, Note_on_c, 1, 40, 87
4, 28713, Note_on_c, 1, 40, 0
4, 28740, Note_on_c, 1, 40, 91
4, 28776, Note_on_c, 1, 40, 0
4, 28800, Note_on_c, 1, 33, 91
4, 28946, Note_on_c, 1, 33, 0
4, 28980, Note_on_c, 1, 33, 71
4, 29002, Note_on_c, 1, 33, 0
4, 29040, Note_on_c, 1, 33, 91
4, 29195, Note_on_c, 1, 33, 0
4, 29220, Note_on_c, 1, 33, 58
4, 29238, Note_on_c, 1, 33, 0
4, 29280, Note_on_c, 1, 38, 91
4, 29426, Note_on_c, 1, 38, 0
4, 29460, Note_on_c, 1, 38, 71
4, 29482, Note_on_c, 1, 38, 0
4, 29520, Note_on_c, 1, 38, 91
4, 29675, Note_on_c, 1, 38, 0
4, 29700, Note_on_c, 1, 38, 58
4, 29718, Note_on_c, 1, 38, 0
4, 29760, Note_on_c, 1, 43, 81
4, 29900, Note_on_c, 1, 43, 0
4, 29940, Note_on_c, 1, 43, 56
4, 29962, Note_on_c, 1, 43, 0
4, 30000, Note_on_c, 1, 43, 71
4, 30202, Note_on_c, 1, 43, 0
4, 30240, Note_on_c, 1, 33, 81
4, 30380, Note_on_c, 1, 33, 0
4, 30420, Note_on_c, 1, 33, 56
4, 30442, Note_on_c, 1, 33, 0
4, 30480, Note_on_c, 1, 33, 71
4, 30682, Note_on_c, 1, 33, 0
4, 30720, Note_on_c, 1, 38, 91
4, 30877, Note_on_c, 1, 38, 0
4, 30900, Note_on_c, 1, 38, 63
4, 30929, Note_on_c, 1, 38, 0
4, 30960, Note_on_c, 1, 38, 84
4, 31178, Note_on_c, 1, 38, 0
4, 31200, Note_on_c, 1, 43, 87
4, 31344, Note_on_c, 1, 43, 0
4, 31380, Note_on_c, 1, 43, 68
4, 31414, Note_on_c, 1, 43, 0
4, 31440, Note_on_c, 1, 43, 87
4, 31560, Note_on_c, 1, 43, 0
4, 31560, Note_on_c, 1, 43, 81
4, 31680, Note_on_c, 1, 43, 0
4, 31680, Note_on_c, 1, 36, 81
4, 31820, Note_on_c, 1, 36, 0
4, 31860, Note_on_c, 1, 36, 56
4, 31882, Note_on_c, 1, 36, 0
4, 31920, Note_on_c, 1, 36, 71
4, 32122, Note_on_c, 1, 36, 0
4, 32160, Note_on_c, 1, 43, 87
4, 32313, Note_on_c, 1, 43, 0
4, 32340, Note_on_c, 1, 43, 91
4, 32376, Note_on_c, 1, 43, 0
4, 32400, Note_on_c, 1, 43, 87
4, 32580, Note_on_c, 1, 43, 0
4, 32580, Note_on_c, 1, 43, 65
4, 32617, Note_on_c, 1, 43, 0
4, 32640, Note_on_c, 1, 33, 87
4, 32793, Note_on_c, 1, 33, 0
4, 32820, Note_on_c, 1, 33, 91
4, 32856, Note_on_c, 1, 33, 0
4, 32880, Note_on_c, 1, 33, 87
4, 33060, Note_on_c, 1, 33, 0
4, 33060, Note_on_c, 1, 33, 65
4, 33097, Note_on_c, 1, 33, 0
4, 33120, Note_on_c, 1, 38, 91
4, 33266, Note_on_c, 1, 38, 0
4, 33300, Note_on_c, 1, 38, 71
4, 33322, Note_on_c, 1, 38, 0
4, 33360, Note_on_c, 1, 38, 91
4, 33515, Note_on_c, 1, 38, 0
4, 33540, Note_on_c, 1, 38, 58
4, 33558, Note_on_c, 1, 38, 0
4, 33600, Note_on_c, 1, 43, 87
4, 33744, Note_on_c, 1, 43, 0
4, 33780, Note_on_c, 1, 43, 68
4, 33814, Note_on_c, 1, 43, 0
4, 33840, Note_on_c, 1, 43, 78
4, 34003, Note_on_c, 1, 43, 0
4, 34020, Note_on_c, 1, 43, 87
4, 34054, Note_on_c, 1, 43, 0
4, 34080, Note_on_c, 1, 43, 91
4, 34237, Note_on_c, 1, 43, 0
4, 34260, Note_on_c, 1, 43, 63
4, 34289, Note_on_c, 1, 43, 0
4, 34320, Note_on_c, 1, 43, 84
4, 34538, Note_on_c, 1, 43, 0
4, 34538, End_track
5, 0, Start_track
5, 0, Title_t, "Piano"
5, 0, Control_c, 2, 123, 0
5, 0, Control_c, 2, 91, 40
5, 0, Control_c, 2, 93, 0
5, 0, Control_c, 2, 64, 0
5, 132, Program_c, 2, 0
5, 133, Control_c, 2, 7, 85
5, 133, Control_c, 2, 10, 44
5, 960, Note_on_c, 2, 62, 55
5, 960, Note_on_c, 2, 59, 55
5, 960, Note_on_c, 2, 55, 55
5, 1855, Note_on_c, 2, 55, 0
5, 1855, Note_on_c, 2, 59, 0
5, 1855, Note_on_c, 2, 62, 0
5, 1920, Note_on_c, 2, 62, 60
5, 1920, Note_on_c, 2, 59, 60
5, 1920, Note_on_c, 2, 55, 60
5, 1965, Note_on_c, 2, 55, 0
5, 1965, Note_on_c, 2, 59, 0
5, 1965, Note_on_c, 2, 62, 0
5, 2040, Note_on_c, 2, 62, 70
5, 2040, Note_on_c, 2, 59, 70
5, 2040, Note_on_c, 2, 55, 70
5, 2460, Note_on_c, 2, 43, 64
5, 2495, Note_on_c, 2, 55, 0
5, 2495, Note_on_c, 2, 62, 0
5, 2495, Note_on_c, 2, 59, 0
5, 2520, Note_on_c, 2, 59, 67
5, 2580, Note_on_c, 2, 67, 55
5, 2700, Note_on_c, 2, 62, 39
5, 2872, Note_on_c, 2, 62, 0
5, 2872, Note_on_c, 2, 43, 0
5, 2872, Note_on_c, 2, 59, 0
5, 2872, Note_on_c, 2, 67, 0
5, 2880, Note_on_c, 2, 62, 70
5, 2880, Note_on_c, 2, 59, 70
5, 2880, Note_on_c, 2, 55, 70
5, 3150, Note_on_c, 2, 55, 0
5, 3150, Note_on_c, 2, 59, 0
5, 3150, Note_on_c, 2, 62, 0
5, 3180, Note_on_c, 2, 62, 67
5, 3180, Note_on_c, 2, 59, 67
5, 3180, Note_on_c, 2, 55, 67
5, 3220, Note_on_c, 2, 55, 0
5, 3220, Note_on_c, 2, 59, 0
5, 3220, Note_on_c, 2, 62, 0
5, 3360, Note_on_c, 2, 64, 43
5, 3360, Note_on_c, 2, 60, 43
5, 3360, Note_on_c, 2, 57, 43
5, 3802, Note_on_c, 2, 57, 0
5, 3802, Note_on_c, 2, 60, 0
5, 3802, Note_on_c, 2, 64, 0
5, 3900, Note_on_c, 2, 50, 70
5, 3960, Note_on_c, 2, 57, 62
5, 4020, Note_on_c, 2, 60, 53
5, 4020, Note_on_c, 2, 66, 67
5, 4296, Note_on_c, 2, 66, 0
5, 4296, Note_on_c, 2, 60, 0
5, 4308, Note_on_c, 2, 57, 0
5, 4311, Note_on_c, 2, 50, 0
5, 4380, Note_on_c, 2, 62, 55
5, 4380, Note_on_c, 2, 59, 55
5, 4380, Note_on_c, 2, 55, 55
5, 4560, Note_on_c, 2, 55, 0
5, 4560, Note_on_c, 2, 59, 0
5, 4560, Note_on_c, 2, 62, 0
5, 4560, Note_on_c, 2, 62, 55
5, 4560, Note_on_c, 2, 59, 55
5, 4560, Note_on_c, 2, 55, 55
5, 4680, Note_on_c, 2, 55, 0
5, 4680, Note_on_c, 2, 59, 0
5, 4680, Note_on_c, 2, 62, 0
5, 4680, Note_on_c, 2, 65, 55
5, 4680, Note_on_c, 2, 62, 55
5, 4680, Note_on_c, 2, 59, 55
5, 4680, Note_on_c, 2, 67, 55
5, 4800, Note_on_c, 2, 67, 0
5, 4800, Note_on_c, 2, 65, 0
5, 4800, Note_on_c, 2, 62, 0
5, 4800, Note_on_c, 2, 59, 0
5, 4800, Note_on_c, 2, 64, 70
5, 4800, Note_on_c, 2, 60, 70
5, 4800, Note_on_c, 2, 55, 70
5, 5070, Note_on_c, 2, 55, 0
5, 5070, Note_on_c, 2, 60, 0
5, 5070, Note_on_c, 2, 64, 0
5, 5100, Note_on_c, 2, 64, 67
5, 5100, Note_on_c, 2, 60, 67
5, 5100, Note_on_c, 2, 55, 67
5, 5140, Note_on_c, 2, 55, 0
5, 5140, Note_on_c, 2, 60, 0
5, 5140, Note_on_c, 2, 64, 0
5, 5280, Note_on_c, 2, 67, 60
5, 5280, Note_on_c, 2, 71, 53
5, 5280, Note_on_c, 2, 62, 32
5, 5340, Note_on_c, 2, 43, 60
5, 5400, Note_on_c, 2, 55, 51
5, 5417, Note_on_c, 2, 62, 0
5, 5460, Note_on_c, 2, 59, 62
5, 5472, Note_on_c, 2, 55, 0
5, 5688, Note_on_c, 2, 67, 0
5, 5688, Note_on_c, 2, 71, 0
5, 5691, Note_on_c, 2, 59, 0
5, 5701, Note_on_c, 2, 43, 0
5, 5760, Note_on_c, 2, 64, 43
5, 5760, Note_on_c, 2, 60, 43
5, 5760, Note_on_c, 2, 57, 43
5, 6202, Note_on_c, 2, 57, 0
5, 6202, Note_on_c, 2, 60, 0
5, 6202, Note_on_c, 2, 64, 0
5, 6240, Note_on_c, 2, 62, 70
5, 6240, Note_on_c, 2, 60, 70
5, 6240, Note_on_c, 2, 57, 70
5, 6240, Note_on_c, 2, 66, 70
5, 6510, Note_on_c, 2, 66, 0
5, 6510, Note_on_c, 2, 62, 0
5, 6510, Note_on_c, 2, 60, 0
5, 6510, Note_on_c, 2, 57, 0
5, 6540, Note_on_c, 2, 62, 67
5, 6540, Note_on_c, 2, 60, 67
5, 6540, Note_on_c, 2, 57, 67
5, 6540, Note_on_c, 2, 66, 67
5, 6580, Note_on_c, 2, 66, 0
5, 6580, Note_on_c, 2, 62, 0
5, 6580, Note_on_c, 2, 60, 0
5, 6580, Note_on_c, 2, 57, 0
5, 6780, Note_on_c, 2, 43, 70
5, 6840, Note_on_c, 2, 59, 62
5, 6900, Note_on_c, 2, 62, 53
5, 6900, Note_on_c, 2, 67, 67
5, 7176, Note_on_c, 2, 67, 0
5, 7176, Note_on_c, 2, 62, 0
5, 7188, Note_on_c, 2, 59, 0
5, 7191, Note_on_c, 2, 43, 0
5, 7200, Note_on_c, 2, 64, 55
5, 7200, Note_on_c, 2, 60, 55
5, 7200, Note_on_c, 2, 55, 55
5, 7437, Note_on_c, 2, 55, 0
5, 7437, Note_on_c, 2, 60, 0
5, 7437, Note_on_c, 2, 64, 0
5, 7500, Note_on_c, 2, 66, 55
5, 7500, Note_on_c, 2, 62, 55
5, 7500, Note_on_c, 2, 60, 55
5, 7500, Note_on_c, 2, 69, 55
5, 7680, Note_on_c, 2, 69, 0
5, 7680, Note_on_c, 2, 66, 0
5, 7680, Note_on_c, 2, 62, 0
5, 7680, Note_on_c, 2, 60, 0
5, 7680, Note_on_c, 2, 43, 49
5, 7680, Note_on_c, 2, 62, 67
5, 7680, Note_on_c, 2, 57, 62
5, 7736, Note_on_c, 2, 57, 0
5, 7740, Note_on_c, 2, 59, 55
5, 7800, Note_on_c, 2, 57, 53
5, 7812, Note_on_c, 2, 59, 0
5, 7864, Note_on_c, 2, 57, 0
5, 7864, Note_on_c, 2, 55, 70
5, 8160, Note_on_c, 2, 55, 0
5, 8160, Note_on_c, 2, 62, 0
5, 8160, Note_on_c, 2, 43, 0
5, 8160, Note_on_c, 2, 64, 70
5, 8160, Note_on_c, 2, 60, 70
5, 8160, Note_on_c, 2, 57, 70
5, 8430, Note_on_c, 2, 57, 0
5, 8430, Note_on_c, 2, 60, 0
5, 8430, Note_on_c, 2, 64, 0
5, 8460, Note_on_c, 2, 64, 67
5, 8460, Note_on_c, 2, 60, 67
5, 8460, Note_on_c, 2, 57, 67
5, 8500, Note_on_c, 2, 57, 0
5, 8500, Note_on_c, 2, 60, 0
5, 8500, Note_on_c, 2, 64, 0
5, 8640, Note_on_c, 2, 66, 60
5, 8640, Note_on_c, 2, 69, 53
5, 8640, Note_on_c, 2, 60, 32
5, 8700, Note_on_c, 2, 50, 60
5, 8760, Note_on_c, 2, 54, 51
5, 8777, Note_on_c, 2, 60, 0
5, 8820, Note_on_c, 2, 57, 62
5, 8832, Note_on_c, 2, 54, 0
5, 9048, Note_on_c, 2, 66, 0
5, 9048, Note_on_c, 2, 69, 0
5, 9051, Note_on_c, 2, 57, 0
5, 9061, Note_on_c, 2, 50, 0
5, 9120, Note_on_c, 2, 62, 55
5, 9120, Note_on_c, 2, 59, 55
5, 9120, Note_on_c, 2, 55, 55
5, 9357, Note_on_c, 2, 55, 0
5, 9357, Note_on_c, 2, 59, 0
5, 9357, Note_on_c, 2, 62, 0
5, 9360, Note_on_c, 2, 62, 55
5, 9360, Note_on_c, 2, 59, 55
5, 9360, Note_on_c, 2, 55, 55
5, 9480, Note_on_c, 2, 55, 0
5, 9480, Note_on_c, 2, 59, 0
5, 9480, Note_on_c, 2, 62, 0
5, 9480, Note_on_c, 2, 65, 55
5, 9480, Note_on_c, 2, 62, 55
5, 9480, Note_on_c, 2, 59, 55
5, 9480, Note_on_c, 2, 67, 55
5, 9600, Note_on_c, 2, 67, 0
5, 9600, Note_on_c, 2, 65, 0
5, 9600, Note_on_c, 2, 62, 0
5, 9600, Note_on_c, 2, 59, 0
5, 9660, Note_on_c, 2, 48, 70
5, 9720, Note_on_c, 2, 55, 62
5, 9780, Note_on_c, 2, 60, 53
5, 9780, Note_on_c, 2, 64, 67
5, 10056, Note_on_c, 2, 64, 0
5, 10056, Note_on_c, 2, 60, 0
5, 10068, Note_on_c, 2, 55, 0
5, 10071, Note_on_c, 2, 48, 0
5, 10080, Note_on_c, 2, 43, 49
5, 10080, Note_on_c, 2, 62, 67
5, 10080, Note_on_c, 2, 57, 62
5, 10136, Note_on_c, 2, 57, 0
5, 10140, Note_on_c, 2, 59, 55
5, 10200, Note_on_c, 2, 57, 53
5, 10212, Note_on_c, 2, 59, 0
5, 10264, Note_on_c, 2, 57, 0
5, 10264, Note_on_c, 2, 55, 70
5, 10560, Note_on_c, 2, 55, 0
5, 10560, Note_on_c, 2, 62, 0
5, 10560, Note_on_c, 2, 43, 0
5, 10560, Note_on_c, 2, 60, 60
5, 10560, Note_on_c, 2, 64, 53
5, 10560, Note_on_c, 2, 57, 32
5, 10620, Note_on_c, 2, 45, 60
5, 10680, Note_on_c, 2, 48, 51
5, 10697, Note_on_c, 2, 57, 0
5, 10740, Note_on_c, 2, 52, 62
5, 10752, Note_on_c, 2, 48, 0
5, 10968, Note_on_c, 2, 60, 0
5, 10968, Note_on_c, 2, 64, 0
5, 10971, Note_on_c, 2, 52, 0
5, 10981, Note_on_c, 2, 45, 0
5, 11100, Note_on_c, 2, 50, 70
5, 11160, Note_on_c, 2, 57, 62
5, 11220, Note_on_c, 2, 60, 53
5, 11220, Note_on_c, 2, 66, 67
5, 11496, Note_on_c, 2, 66, 0
5, 11496, Note_on_c, 2, 60, 0
5, 11508, Note_on_c, 2, 57, 0
5, 11511, Note_on_c, 2, 50, 0
5, 11520, Note_on_c, 2, 62, 70
5, 11520, Note_on_c, 2, 59, 70
5, 11520, Note_on_c, 2, 55, 70
5, 11790, Note_on_c, 2, 55, 0
5, 11790, Note_on_c, 2, 59, 0
5, 11790, Note_on_c, 2, 62, 0
5, 11820, Note_on_c, 2, 62, 67
5, 11820, Note_on_c, 2, 59, 67
5, 11820, Note_on_c, 2, 55, 67
5, 11860, Note_on_c, 2, 55, 0
5, 11860, Note_on_c, 2, 59, 0
5, 11860, Note_on_c, 2, 62, 0
5, 12000, Note_on_c, 2, 65, 43
5, 12000, Note_on_c, 2, 62, 43
5, 12000, Note_on_c, 2, 59, 43
5, 12000, Note_on_c, 2, 67, 43
5, 12442, Note_on_c, 2, 67, 0
5, 12442, Note_on_c, 2, 65, 0
5, 12442, Note_on_c, 2, 62, 0
5, 12442, Note_on_c, 2, 59, 0
5, 12480, Note_on_c, 2, 64, 55
5, 12480, Note_on_c, 2, 60, 55
5, 12480, Note_on_c, 2, 55, 55
5, 12717, Note_on_c, 2, 55, 0
5, 12717, Note_on_c, 2, 60, 0
5, 12717, Note_on_c, 2, 64, 0
5, 12780, Note_on_c, 2, 66, 55
5, 12780, Note_on_c, 2, 62, 55
5, 12780, Note_on_c, 2, 60, 55
5, 12780, Note_on_c, 2, 69, 55
5, 12960, Note_on_c, 2, 69, 0
5, 12960, Note_on_c, 2, 66, 0
5, 12960, Note_on_c, 2, 62, 0
5, 12960, Note_on_c, 2, 60, 0
5, 12960, Note_on_c, 2, 62, 43
5, 12960, Note_on_c, 2, 59, 43
5, 12960, Note_on_c, 2, 55, 43
5, 13402, Note_on_c, 2, 55, 0
5, 13402, Note_on_c, 2, 59, 0
5, 13402, Note_on_c, 2, 62, 0
5, 13440, Note_on_c, 2, 64, 55
5, 13440, Note_on_c, 2, 60, 55
5, 13440, Note_on_c, 2, 55, 55
5, 13677, Note_on_c, 2, 55, 0
5, 13677, Note_on_c, 2, 60, 0
5, 13677, Note_on_c, 2, 64, 0
5, 13680, Note_on_c, 2, 66, 55
5, 13680, Note_on_c, 2, 62, 55
5, 13680, Note_on_c, 2, 60, 55
5, 13680, Note_on_c, 2, 69, 55
5, 13917, Note_on_c, 2, 69, 0
5, 13917, Note_on_c, 2, 66, 0
5, 13917, Note_on_c, 2, 62, 0
5, 13917, Note_on_c, 2, 60, 0
5, 13980, Note_on_c, 2, 43, 70
5, 14040, Note_on_c, 2, 59, 62
5, 14100, Note_on_c, 2, 62, 53
5, 14100, Note_on_c, 2, 67, 67
5, 14376, Note_on_c, 2, 67, 0
5, 14376, Note_on_c, 2, 62, 0
5, 14388, Note_on_c, 2, 59, 0
5, 14391, Note_on_c, 2, 43, 0
5, 14460, Note_on_c, 2, 64, 55
5, 14460, Note_on_c, 2, 60, 55
5, 14460, Note_on_c, 2, 55, 55
5, 14640, Note_on_c, 2, 55, 0
5, 14640, Note_on_c, 2, 60, 0
5, 14640, Note_on_c, 2, 64, 0
5, 14640, Note_on_c, 2, 66, 55
5, 14640, Note_on_c, 2, 62, 55
5, 14640, Note_on_c, 2, 60, 55
5, 14640, Note_on_c, 2, 69, 55
5, 14877, Note_on_c, 2, 69, 0
5, 14877, Note_on_c, 2, 66, 0
5, 14877, Note_on_c, 2, 62, 0
5, 14877, Note_on_c, 2, 60, 0
5, 14940, Note_on_c, 2, 62, 55
5, 14940, Note_on_c, 2, 59, 55
5, 14940, Note_on_c, 2, 55, 55
5, 15120, Note_on_c, 2, 55, 0
5, 15120, Note_on_c, 2, 59, 0
5, 15120, Note_on_c, 2, 62, 0
5, 15180, Note_on_c, 2, 64, 55
5, 15180, Note_on_c, 2, 59, 55
5, 15180, Note_on_c, 2, 55, 55
5, 15360, Note_on_c, 2, 55, 0
5, 15360, Note_on_c, 2, 59, 0
5, 15360, Note_on_c, 2, 64, 0
5, 15360, Note_on_c, 2, 61, 60
5, 15360, Note_on_c, 2, 64, 53
5, 15360, Note_on_c, 2, 55, 32
5, 15420, Note_on_c, 2, 45, 60
5, 15480, Note_on_c, 2, 49, 51
5, 15497, Note_on_c, 2, 55, 0
5, 15540, Note_on_c, 2, 52, 62
5, 15552, Note_on_c, 2, 49, 0
5, 15768, Note_on_c, 2, 61, 0
5, 15768, Note_on_c, 2, 64, 0
5, 15771, Note_on_c, 2, 52, 0
5, 15781, Note_on_c, 2, 45, 0
5, 15840, Note_on_c, 2, 66, 60
5, 15840, Note_on_c, 2, 69, 53
5, 15840, Note_on_c, 2, 60, 32
5, 15900, Note_on_c, 2, 50, 60
5, 15960, Note_on_c, 2, 54, 51
5, 15977, Note_on_c, 2, 60, 0
5, 16020, Note_on_c, 2, 57, 62
5, 16032, Note_on_c, 2, 54, 0
5, 16248, Note_on_c, 2, 66, 0
5, 16248, Note_on_c, 2, 69, 0
5, 16251, Note_on_c, 2, 57, 0
5, 16261, Note_on_c, 2, 50, 0
5, 16320, Note_on_c, 2, 67, 60
5, 16320, Note_on_c, 2, 71, 53
5, 16320, Note_on_c, 2, 62, 32
5, 16380, Note_on_c, 2, 43, 60
5, 16440, Note_on_c, 2, 55, 51
5, 16457, Note_on_c, 2, 62, 0
5, 16500, Note_on_c, 2, 59, 62
5, 16512, Note_on_c, 2, 55, 0
5, 16728, Note_on_c, 2, 67, 0
5, 16728, Note_on_c, 2, 71, 0
5, 16731, Note_on_c, 2, 59, 0
5, 16741, Note_on_c, 2, 43, 0
5, 16800, Note_on_c, 2, 64, 70
5, 16800, Note_on_c, 2, 60, 70
5, 16800, Note_on_c, 2, 57, 70
5, 17070, Note_on_c, 2, 57, 0
5, 17070, Note_on_c, 2, 60, 0
5, 17070, Note_on_c, 2, 64, 0
5, 17100, Note_on_c, 2, 64, 67
5, 17100, Note_on_c, 2, 60, 67
5, 17100, Note_on_c, 2, 57, 67
5, 17140, Note_on_c, 2, 57, 0
5, 17140, Note_on_c, 2, 60, 0
5, 17140, Note_on_c, 2, 64, 0
5, 17280, Note_on_c, 2, 66, 43
5, 17280, Note_on_c, 2, 62, 43
5, 17280, Note_on_c, 2, 60, 43
5, 17280, Note_on_c, 2, 69, 43
5, 17722, Note_on_c, 2, 69, 0
5, 17722, Note_on_c, 2, 66, 0
5, 17722, Note_on_c, 2, 62, 0
5, 17722, Note_on_c, 2, 60, 0
5, 17820, Note_on_c, 2, 62, 55
5, 17820, Note_on_c, 2, 59, 55
5, 17820, Note_on_c, 2, 55, 55
5, 18000, Note_on_c, 2, 55, 0
5, 18000, Note_on_c, 2, 59, 0
5, 18000, Note_on_c, 2, 62, 0
5, 18000, Note_on_c, 2, 62, 55
5, 18000, Note_on_c, 2, 59, 55
5, 18000, Note_on_c, 2, 55, 55
5, 18120, Note_on_c, 2, 55, 0
5, 18120, Note_on_c, 2, 59, 0
5, 18120, Note_on_c, 2, 62, 0
5, 18120, Note_on_c, 2, 65, 55
5, 18120, Note_on_c, 2, 62, 55
5, 18120, Note_on_c, 2, 59, 55
5, 18120, Note_on_c, 2, 67, 55
5, 18240, Note_on_c, 2, 67, 0
5, 18240, Note_on_c, 2, 65, 0
5, 18240, Note_on_c, 2, 62, 0
5, 18240, Note_on_c, 2, 59, 0
5, 18240, Note_on_c, 2, 64, 70
5, 18240, Note_on_c, 2, 60, 70
5, 18240, Note_on_c, 2, 55, 70
5, 18510, Note_on_c, 2, 55, 0
5, 18510, Note_on_c, 2, 60, 0
5, 18510, Note_on_c, 2, 64, 0
5, 18540, Note_on_c, 2, 64, 67
5, 18540, Note_on_c, 2, 60, 67
5, 18540, Note_on_c, 2, 55, 67
5, 18580, Note_on_c, 2, 55, 0
5, 18580, Note_on_c, 2, 60, 0
5, 18580, Note_on_c, 2, 64, 0
5, 18720, Note_on_c, 2, 62, 70
5, 18720, Note_on_c, 2, 59, 70
5, 18720, Note_on_c, 2, 55, 70
5, 18990, Note_on_c, 2, 55, 0
5, 18990, Note_on_c, 2, 59, 0
5, 18990, Note_on_c, 2, 62, 0
5, 19020, Note_on_c, 2, 62, 67
5, 19020, Note_on_c, 2, 59, 67
5, 19020, Note_on_c, 2, 55, 67
5, 19060, Note_on_c, 2, 55, 0
5, 19060, Note_on_c, 2, 59, 0
5, 19060, Note_on_c, 2, 62, 0
5, 19200, Note_on_c, 2, 64, 70
5, 19200, Note_on_c, 2, 60, 70
5, 19200, Note_on_c, 2, 57, 70
5, 19470, Note_on_c, 2, 57, 0
5, 19470, Note_on_c, 2, 60, 0
5, 19470, Note_on_c, 2, 64, 0
5, 19500, Note_on_c, 2, 64, 67
5, 19500, Note_on_c, 2, 60, 67
5, 19500, Note_on_c, 2, 57, 67
5, 19540, Note_on_c, 2, 57, 0
5, 19540, Note_on_c, 2, 60, 0
5, 19540, Note_on_c, 2, 64, 0
5, 19680, Note_on_c, 2, 66, 43
5, 19680, Note_on_c, 2, 62, 43
5, 19680, Note_on_c, 2, 60, 43
5, 19680, Note_on_c, 2, 69, 43
5, 20122, Note_on_c, 2, 69, 0
5, 20122, Note_on_c, 2, 66, 0
5, 20122, Note_on_c, 2, 62, 0
5, 20122, Note_on_c, 2, 60, 0
5, 20160, Note_on_c, 2, 67, 60
5, 20160, Note_on_c, 2, 71, 53
5, 20160, Note_on_c, 2, 62, 32
5, 20220, Note_on_c, 2, 43, 60
5, 20280, Note_on_c, 2, 55, 51
5, 20297, Note_on_c, 2, 62, 0
5, 20340, Note_on_c, 2, 59, 62
5, 20352, Note_on_c, 2, 55, 0
5, 20568, Note_on_c, 2, 67, 0
5, 20568, Note_on_c, 2, 71, 0
5, 20571, Note_on_c, 2, 59, 0
5, 20581, Note_on_c, 2, 43, 0
5, 20700, Note_on_c, 2, 64, 55
5, 20700, Note_on_c, 2, 60, 55
5, 20700, Note_on_c, 2, 55, 55
5, 20880, Note_on_c, 2, 55, 0
5, 20880, Note_on_c, 2, 60, 0
5, 20880, Note_on_c, 2, 64, 0
5, 20880, Note_on_c, 2, 66, 55
5, 20880, Note_on_c, 2, 62, 55
5, 20880, Note_on_c, 2, 60, 55
5, 20880, Note_on_c, 2, 69, 55
5, 21117, Note_on_c, 2, 69, 0
5, 21117, Note_on_c, 2, 66, 0
5, 21117, Note_on_c, 2, 62, 0
5, 21117, Note_on_c, 2, 60, 0
5, 21120, Note_on_c, 2, 43, 49
5, 21120, Note_on_c, 2, 62, 67
5, 21120, Note_on_c, 2, 57, 62
5, 21176, Note_on_c, 2, 57, 0
5, 21180, Note_on_c, 2, 59, 55
5, 21240, Note_on_c, 2, 57, 53
5, 21252, Note_on_c, 2, 59, 0
5, 21304, Note_on_c, 2, 57, 0
5, 21304, Note_on_c, 2, 55, 70
5, 21600, Note_on_c, 2, 55, 0
5, 21600, Note_on_c, 2, 62, 0
5, 21600, Note_on_c, 2, 43, 0
5, 21660, Note_on_c, 2, 45, 70
5, 21720, Note_on_c, 2, 52, 62
5, 21780, Note_on_c, 2, 57, 53
5, 21780, Note_on_c, 2, 60, 67
5, 22056, Note_on_c, 2, 60, 0
5, 22056, Note_on_c, 2, 57, 0
5, 22068, Note_on_c, 2, 52, 0
5, 22071, Note_on_c, 2, 45, 0
5, 22140, Note_on_c, 2, 50, 70
5, 22200, Note_on_c, 2, 57, 62
5, 22260, Note_on_c, 2, 60, 53
5, 22260, Note_on_c, 2, 66, 67
5, 22536, Note_on_c, 2, 66, 0
5, 22536, Note_on_c, 2, 60, 0
5, 22548, Note_on_c, 2, 57, 0
5, 22551, Note_on_c, 2, 50, 0
5, 22620, Note_on_c, 2, 62, 55
5, 22620, Note_on_c, 2, 59, 55
5, 22620, Note_on_c, 2, 55, 55
5, 22800, Note_on_c, 2, 55, 0
5, 22800, Note_on_c, 2, 59, 0
5, 22800, Note_on_c, 2, 62, 0
5, 22800, Note_on_c, 2, 62, 55
5, 22800, Note_on_c, 2, 59, 55
5, 22800, Note_on_c, 2, 55, 55
5, 22920, Note_on_c, 2, 55, 0
5, 22920, Note_on_c, 2, 59, 0
5, 22920, Note_on_c, 2, 62, 0
5, 22920, Note_on_c, 2, 65, 55
5, 22920, Note_on_c, 2, 62, 55
5, 22920, Note_on_c, 2, 59, 55
5, 22920, Note_on_c, 2, 67, 55
5, 23040, Note_on_c, 2, 67, 0
5, 23040, Note_on_c, 2, 65, 0
5, 23040, Note_on_c, 2, 62, 0
5, 23040, Note_on_c, 2, 59, 0
5, 23040, Note_on_c, 2, 64, 43
5, 23040, Note_on_c, 2, 60, 43
5, 23040, Note_on_c, 2, 55, 43
5, 23482, Note_on_c, 2, 55, 0
5, 23482, Note_on_c, 2, 60, 0
5, 23482, Note_on_c, 2, 64, 0
5, 23520, Note_on_c, 2, 43, 49
5, 23520, Note_on_c, 2, 62, 67
5, 23520, Note_on_c, 2, 57, 62
5, 23576, Note_on_c, 2, 57, 0
5, 23580, Note_on_c, 2, 59, 55
5, 23640, Note_on_c, 2, 57, 53
5, 23652, Note_on_c, 2, 59, 0
5, 23704, Note_on_c, 2, 57, 0
5, 23704, Note_on_c, 2, 55, 70
5, 24000, Note_on_c, 2, 55, 0
5, 24000, Note_on_c, 2, 62, 0
5, 24000, Note_on_c, 2, 43, 0
5, 24000, Note_on_c, 2, 64, 70
5, 24000, Note_on_c, 2, 60, 70
5, 24000, Note_on_c, 2, 57, 70
5, 24270, Note_on_c, 2, 57, 0
5, 24270, Note_on_c, 2, 60, 0
5, 24270, Note_on_c, 2, 64, 0
5, 24300, Note_on_c, 2, 64, 67
5, 24300, Note_on_c, 2, 60, 67
5, 24300, Note_on_c, 2, 57, 67
5, 24340, Note_on_c, 2, 57, 0
5, 24340, Note_on_c, 2, 60, 0
5, 24340, Note_on_c, 2, 64, 0
5, 24480, Note_on_c, 2, 66, 60
5, 24480, Note_on_c, 2, 69, 53
5, 24480, Note_on_c, 2, 60, 32
5, 24540, Note_on_c, 2, 50, 60
5, 24600, Note_on_c, 2, 54, 51
5, 24617, Note_on_c, 2, 60, 0
5, 24660, Note_on_c, 2, 57, 62
5, 24672, Note_on_c, 2, 54, 0
5, 24888, Note_on_c, 2, 66, 0
5, 24888, Note_on_c, 2, 69, 0
5, 24891, Note_on_c, 2, 57, 0
5, 24901, Note_on_c, 2, 50, 0
5, 24960, Note_on_c, 2, 43, 49
5, 24960, Note_on_c, 2, 62, 67
5, 24960, Note_on_c, 2, 57, 62
5, 25016, Note_on_c, 2, 57, 0
5, 25020, Note_on_c, 2, 59, 55
5, 25080, Note_on_c, 2, 57, 53
5, 25092, Note_on_c, 2, 59, 0
5, 25144, Note_on_c, 2, 57, 0
5, 25144, Note_on_c, 2, 55, 70
5, 25440, Note_on_c, 2, 55, 0
5, 25440, Note_on_c, 2, 62, 0
5, 25440, Note_on_c, 2, 43, 0
5, 25440, Note_on_c, 2, 65, 60
5, 25440, Note_on_c, 2, 67, 53
5, 25440, Note_on_c, 2, 59, 32
5, 25500, Note_on_c, 2, 43, 60
5, 25560, Note_on_c, 2, 53, 51
5, 25577, Note_on_c, 2, 59, 0
5, 25620, Note_on_c, 2, 55, 62
5, 25632, Note_on_c, 2, 53, 0
5, 25848, Note_on_c, 2, 65, 0
5, 25848, Note_on_c, 2, 67, 0
5, 25851, Note_on_c, 2, 55, 0
5, 25861, Note_on_c, 2, 43, 0
5, 25980, Note_on_c, 2, 64, 55
5, 25980, Note_on_c, 2, 60, 55
5, 25980, Note_on_c, 2, 55, 55
5, 26160, Note_on_c, 2, 55, 0
5, 26160, Note_on_c, 2, 60, 0
5, 26160, Note_on_c, 2, 64, 0
5, 26160, Note_on_c, 2, 66, 55
5, 26160, Note_on_c, 2, 62, 55
5, 26160, Note_on_c, 2, 60, 55
5, 26160, Note_on_c, 2, 69, 55
5, 26397, Note_on_c, 2, 69, 0
5, 26397, Note_on_c, 2, 66, 0
5, 26397, Note_on_c, 2, 62, 0
5, 26397, Note_on_c, 2, 60, 0
5, 26400, Note_on_c, 2, 62, 43
5, 26400, Note_on_c, 2, 59, 43
5, 26400, Note_on_c, 2, 55, 43
5, 26842, Note_on_c, 2, 55, 0
5, 26842, Note_on_c, 2, 59, 0
5, 26842, Note_on_c, 2, 62, 0
5, 26880, Note_on_c, 2, 64, 55
5, 26880, Note_on_c, 2, 60, 55
5, 26880, Note_on_c, 2, 55, 55
5, 27117, Note_on_c, 2, 55, 0
5, 27117, Note_on_c, 2, 60, 0
5, 27117, Note_on_c, 2, 64, 0
5, 27180, Note_on_c, 2, 66, 55
5, 27180, Note_on_c, 2, 62, 55
5, 27180, Note_on_c, 2, 60, 55
5, 27180, Note_on_c, 2, 69, 55
5, 27360, Note_on_c, 2, 69, 0
5, 27360, Note_on_c, 2, 66, 0
5, 27360, Note_on_c, 2, 62, 0
5, 27360, Note_on_c, 2, 60, 0
5, 27360, Note_on_c, 2, 43, 49
5, 27360, Note_on_c, 2, 62, 67
5, 27360, Note_on_c, 2, 57, 62
5, 27416, Note_on_c, 2, 57, 0
5, 27420, Note_on_c, 2, 59, 55
5, 27480, Note_on_c, 2, 57, 53
5, 27492, Note_on_c, 2, 59, 0
5, 27544, Note_on_c, 2, 57, 0
5, 27544, Note_on_c, 2, 55, 70
5, 27840, Note_on_c, 2, 55, 0
5, 27840, Note_on_c, 2, 62, 0
5, 27840, Note_on_c, 2, 43, 0
5, 27840, Note_on_c, 2, 64, 55
5, 27840, Note_on_c, 2, 60, 55
5, 27840, Note_on_c, 2, 55, 55
5, 28077, Note_on_c, 2, 55, 0
5, 28077, Note_on_c, 2, 60, 0
5, 28077, Note_on_c, 2, 64, 0
5, 28080, Note_on_c, 2, 66, 55
5, 28080, Note_on_c, 2, 62, 55
5, 28080, Note_on_c, 2, 60, 55
5, 28080, Note_on_c, 2, 69, 55
5, 28317, Note_on_c, 2, 69, 0
5, 28317, Note_on_c, 2, 66, 0
5, 28317, Note_on_c, 2, 62, 0
5, 28317, Note_on_c, 2, 60, 0
5, 28320, Note_on_c, 2, 62, 55
5, 28320, Note_on_c, 2, 59, 55
5, 28320, Note_on_c, 2, 55, 55
5, 28557, Note_on_c, 2, 55, 0
5, 28557, Note_on_c, 2, 59, 0
5, 28557, Note_on_c, 2, 62, 0
5, 28560, Note_on_c, 2, 64, 55
5, 28560, Note_on_c, 2, 59, 55
5, 28560, Note_on_c, 2, 55, 55
5, 28797, Note_on_c, 2, 55, 0
5, 28797, Note_on_c, 2, 59, 0
5, 28797, Note_on_c, 2, 64, 0
5, 28800, Note_on_c, 2, 61, 60
5, 28800, Note_on_c, 2, 64, 53
5, 28800, Note_on_c, 2, 55, 32
5, 28860, Note_on_c, 2, 45, 60
5, 28920, Note_on_c, 2, 49, 51
5, 28937, Note_on_c, 2, 55, 0
5, 28980, Note_on_c, 2, 52, 62
5, 28992, Note_on_c, 2, 49, 0
5, 29208, Note_on_c, 2, 61, 0
5, 29208, Note_on_c, 2, 64, 0
5, 29211, Note_on_c, 2, 52, 0
5, 29221, Note_on_c, 2, 45, 0
5, 29280, Note_on_c, 2, 66, 43
5, 29280, Note_on_c, 2, 62, 43
5, 29280, Note_on_c, 2, 60, 43
5, 29280, Note_on_c, 2, 69, 43
5, 29722, Note_on_c, 2, 69, 0
5, 29722, Note_on_c, 2, 66, 0
5, 29722, Note_on_c, 2, 62, 0
5, 29722, Note_on_c, 2, 60, 0
5, 29760, Note_on_c, 2, 67, 60
5, 29760, Note_on_c, 2, 71, 53
5, 29760, Note_on_c, 2, 62, 32
5, 29820, Note_on_c, 2, 43, 60
5, 29880, Note_on_c, 2, 55, 51
5, 29897, Note_on_c, 2, 62, 0
5, 29940, Note_on_c, 2, 59, 62
5, 29952, Note_on_c, 2, 55, 0
5, 30168, Note_on_c, 2, 67, 0
5, 30168, Note_on_c, 2, 71, 0
5, 30171, Note_on_c, 2, 59, 0
5, 30181, Note_on_c, 2, 43, 0
5, 30240, Note_on_c, 2, 60, 60
5, 30240, Note_on_c, 2, 64, 53
5, 30240, Note_on_c, 2, 57, 32
5, 30300, Note_on_c, 2, 45, 60
5, 30360, Note_on_c, 2, 48, 51
5, 30377, Note_on_c, 2, 57, 0
5, 30420, Note_on_c, 2, 52, 62
5, 30432, Note_on_c, 2, 48, 0
5, 30648, Note_on_c, 2, 60, 0
5, 30648, Note_on_c, 2, 64, 0
5, 30651, Note_on_c, 2, 52, 0
5, 30661, Note_on_c, 2, 45, 0
5, 30720, Note_on_c, 2, 66, 43
5, 30720, Note_on_c, 2, 62, 43
5, 30720, Note_on_c, 2, 60, 43
5, 30720, Note_on_c, 2, 69, 43
5, 31162, Note_on_c, 2, 69, 0
5, 31162, Note_on_c, 2, 66, 0
5, 31162, Note_on_c, 2, 62, 0
5, 31162, Note_on_c, 2, 60, 0
5, 31260, Note_on_c, 2, 62, 55
5, 31260, Note_on_c, 2, 59, 55
5, 31260, Note_on_c, 2, 55, 55
5, 31440, Note_on_c, 2, 55, 0
5, 31440, Note_on_c, 2, 59, 0
5, 31440, Note_on_c, 2, 62, 0
5, 31440, Note_on_c, 2, 62, 55
5, 31440, Note_on_c, 2, 59, 55
5, 31440, Note_on_c, 2, 55, 55
5, 31560, Note_on_c, 2, 55, 0
5, 31560, Note_on_c, 2, 59, 0
5, 31560, Note_on_c, 2, 62, 0
5, 31560, Note_on_c, 2, 65, 55
5, 31560, Note_on_c, 2, 62, 55
5, 31560, Note_on_c, 2, 59, 55
5, 31560, Note_on_c, 2, 67, 55
5, 31680, Note_on_c, 2, 67, 0
5, 31680, Note_on_c, 2, 65, 0
5, 31680, Note_on_c, 2, 62, 0
5, 31680, Note_on_c, 2, 59, 0
5, 31680, Note_on_c, 2, 64, 43
5, 31680, Note_on_c, 2, 60, 43
5, 31680, Note_on_c, 2, 55, 43
5, 32122, Note_on_c, 2, 55, 0
5, 32122, Note_on_c, 2, 60, 0
5, 32122, Note_on_c, 2, 64, 0
5, 32160, Note_on_c, 2, 67, 60
5, 32160, Note_on_c, 2, 71, 53
5, 32160, Note_on_c, 2, 62, 32
5, 32220, Note_on_c, 2, 43, 60
5, 32280, Note_on_c, 2, 55, 51
5, 32297, Note_on_c, 2, 62, 0
5, 32340, Note_on_c, 2, 59, 62
5, 32352, Note_on_c, 2, 55, 0
5, 32568, Note_on_c, 2, 67, 0
5, 32568, Note_on_c, 2, 71, 0
5, 32571, Note_on_c, 2, 59, 0
5, 32581, Note_on_c, 2, 43, 0
5, 32700, Note_on_c, 2, 45, 70
5, 32760, Note_on_c, 2, 52, 62
5, 32820, Note_on_c, 2, 57, 53
5, 32820, Note_on_c, 2, 60, 67
5, 33096, Note_on_c, 2, 60, 0
5, 33096, Note_on_c, 2, 57, 0
5, 33108, Note_on_c, 2, 52, 0
5, 33111, Note_on_c, 2, 45, 0
5, 33120, Note_on_c, 2, 66, 43
5, 33120, Note_on_c, 2, 62, 43
5, 33120, Note_on_c, 2, 60, 43
5, 33120, Note_on_c, 2, 69, 43
5, 33562, Note_on_c, 2, 69, 0
5, 33562, Note_on_c, 2, 66, 0
5, 33562, Note_on_c, 2, 62, 0
5, 33562, Note_on_c, 2, 60, 0
5, 33600, Note_on_c, 2, 62, 70
5, 33600, Note_on_c, 2, 59, 70
5, 33600, Note_on_c, 2, 55, 70
5, 33870, Note_on_c, 2, 55, 0
5, 33870, Note_on_c, 2, 59, 0
5, 33870, Note_on_c, 2, 62, 0
5, 33900, Note_on_c, 2, 62, 67
5, 33900, Note_on_c, 2, 59, 67
5, 33900, Note_on_c, 2, 55, 67
5, 33940, Note_on_c, 2, 55, 0
5, 33940, Note_on_c, 2, 59, 0
5, 33940, Note_on_c, 2, 62, 0
5, 34140, Note_on_c, 2, 43, 70
5, 34200, Note_on_c, 2, 59, 62
5, 34260, Note_on_c, 2, 62, 53
5, 34260, Note_on_c, 2, 67, 67
5, 34536, Note_on_c, 2, 67, 0
5, 34536, Note_on_c, 2, 62, 0
5, 34548, Note_on_c, 2, 59, 0
5, 34551, Note_on_c, 2, 43, 0
5, 34560, Control_c, 2, 64, 0
5, 34560, End_track
6, 0, Start_track
6, 0, Title_t, "Guitar"
6, 0, Control_c, 3, 123, 0
6, 0, Control_c, 3, 91, 40
6, 0, Control_c, 3, 93, 0
6, 0, Control_c, 3, 64, 0
6, 137, Program_c, 3, 24
6, 138, Control_c, 3, 7, 85
6, 138, Control_c, 3, 10, 74
6, 960, Note_on_c, 3, 67, 71
6, 960, Note_on_c, 3, 62, 53
6, 1005, Note_on_c, 3, 62, 0
6, 1007, Note_on_c, 3, 67, 0
6, 1080, Note_on_c, 3, 62, 50
6, 1080, Note_on_c, 3, 67, 54
6, 1127, Note_on_c, 3, 62, 0
6, 1136, Note_on_c, 3, 67, 0
6, 1200, Note_on_c, 3, 43, 68
6, 1260, Note_on_c, 3, 43, 0
6, 1260, Note_on_c, 3, 67, 65
6, 1260, Note_on_c, 3, 62, 46
6, 1309, Note_on_c, 3, 62, 0
6, 1312, Note_on_c, 3, 67, 0
6, 1380, Note_on_c, 3, 62, 43
6, 1380, Note_on_c, 3, 67, 61
6, 1419, Note_on_c, 3, 62, 0
6, 1440, Note_on_c, 3, 67, 0
6, 1500, Note_on_c, 3, 62, 43
6, 1500, Note_on_c, 3, 67, 52
6, 1542, Note_on_c, 3, 62, 0
6, 1545, Note_on_c, 3, 67, 0
6, 1620, Note_on_c, 3, 59, 56
6, 1680, Note_on_c, 3, 59, 0
6, 1680, Note_on_c, 3, 67, 61
6, 1680, Note_on_c, 3, 62, 46
6, 1806, Note_on_c, 3, 62, 0
6, 1818, Note_on_c, 3, 67, 0
6, 1920, Note_on_c, 3, 67, 71
6, 1920, Note_on_c, 3, 62, 61
6, 1970, Note_on_c, 3, 62, 0
6, 1983, Note_on_c, 3, 67, 0
6, 2040, Note_on_c, 3, 67, 71
6, 2040, Note_on_c, 3, 62, 64
6, 2080, Note_on_c, 3, 62, 0
6, 2083, Note_on_c, 3, 67, 0
6, 2160, Note_on_c, 3, 43, 65
6, 2196, Note_on_c, 3, 43, 0
6, 2220, Note_on_c, 3, 62, 64
6, 2220, Note_on_c, 3, 67, 68
6, 2249, Note_on_c, 3, 62, 0
6, 2252, Note_on_c, 3, 67, 0
6, 2340, Note_on_c, 3, 62, 57
6, 2340, Note_on_c, 3, 67, 61
6, 2368, Note_on_c, 3, 62, 0
6, 2377, Note_on_c, 3, 67, 0
6, 2460, Note_on_c, 3, 67, 63
6, 2460, Note_on_c, 3, 62, 57
6, 2488, Note_on_c, 3, 62, 0
6, 2498, Note_on_c, 3, 67, 0
6, 2580, Note_on_c, 3, 43, 84
6, 2640, Note_on_c, 3, 67, 61
6, 2640, Note_on_c, 3, 62, 50
6, 2652, Note_on_c, 3, 43, 0
6, 2743, Note_on_c, 3, 62, 0
6, 2757, Note_on_c, 3, 67, 0
6, 2940, Note_on_c, 3, 43, 87
6, 3000, Note_on_c, 3, 59, 65
6, 3023, Note_on_c, 3, 43, 0
6, 3060, Note_on_c, 3, 62, 37
6, 3060, Note_on_c, 3, 67, 61
6, 3131, Note_on_c, 3, 59, 0
6, 3263, Note_on_c, 3, 62, 0
6, 3265, Note_on_c, 3, 67, 0
6, 3420, Note_on_c, 3, 60, 71
6, 3420, Note_on_c, 3, 57, 61
6, 3459, Note_on_c, 3, 57, 0
6, 3466, Note_on_c, 3, 60, 0
6, 3600, Note_on_c, 3, 60, 74
6, 3600, Note_on_c, 3, 57, 53
6, 3788, Note_on_c, 3, 57, 0
6, 3795, Note_on_c, 3, 60, 0
6, 3900, Note_on_c, 3, 50, 87
6, 3960, Note_on_c, 3, 57, 65
6, 3983, Note_on_c, 3, 50, 0
6, 4020, Note_on_c, 3, 60, 37
6, 4020, Note_on_c, 3, 66, 61
6, 4091, Note_on_c, 3, 57, 0
6, 4223, Note_on_c, 3, 60, 0
6, 4225, Note_on_c, 3, 66, 0
6, 4320, Note_on_c, 3, 62, 61
6, 4320, Note_on_c, 3, 67, 63
6, 4373, Note_on_c, 3, 62, 0
6, 4374, Note_on_c, 3, 67, 0
6, 4440, Note_on_c, 3, 62, 61
6, 4440, Note_on_c, 3, 67, 71
6, 4516, Note_on_c, 3, 62, 0
6, 4520, Note_on_c, 3, 67, 0
6, 4560, Note_on_c, 3, 62, 61
6, 4560, Note_on_c, 3, 67, 63
6, 4613, Note_on_c, 3, 62, 0
6, 4614, Note_on_c, 3, 67, 0
6, 4680, Note_on_c, 3, 59, 61
6, 4680, Note_on_c, 3, 65, 63
6, 4733, Note_on_c, 3, 59, 0
6, 4734, Note_on_c, 3, 65, 0
6, 4800, Note_on_c, 3, 64, 54
6, 4800, Note_on_c, 3, 67, 50
6, 4800, Note_on_c, 3, 60, 19
6, 4843, Note_on_c, 3, 67, 0
6, 4844, Note_on_c, 3, 60, 0
6, 4853, Note_on_c, 3, 64, 0
6, 4920, Note_on_c, 3, 64, 68
6, 4920, Note_on_c, 3, 60, 53
6, 4920, Note_on_c, 3, 67, 68
6, 4969, Note_on_c, 3, 67, 0
6, 4971, Note_on_c, 3, 60, 0
6, 4972, Note_on_c, 3, 64, 0
6, 5340, Note_on_c, 3, 62, 57
6, 5340, Note_on_c, 3, 67, 68
6, 5371, Note_on_c, 3, 62, 0
6, 5376, Note_on_c, 3, 67, 0
6, 5460, Note_on_c, 3, 43, 78
6, 5514, Note_on_c, 3, 43, 0
6, 5520, Note_on_c, 3, 67, 63
6, 5520, Note_on_c, 3, 62, 43
6, 5748, Note_on_c, 3, 62, 0
6, 5753, Note_on_c, 3, 67, 0
6, 5760, Note_on_c, 3, 45, 54
6, 5870, Note_on_c, 3, 45, 0
6, 5880, Note_on_c, 3, 60, 74
6, 5880, Note_on_c, 3, 57, 61
6, 5970, Note_on_c, 3, 57, 0
6, 5973, Note_on_c, 3, 60, 0
6, 6060, Note_on_c, 3, 60, 65
6, 6060, Note_on_c, 3, 57, 61
6, 6109, Note_on_c, 3, 57, 0
6, 6116, Note_on_c, 3, 60, 0
6, 6300, Note_on_c, 3, 50, 48
6, 6362, Note_on_c, 3, 50, 0
6, 6362, Note_on_c, 3, 57, 65
6, 6408, Note_on_c, 3, 57, 0
6, 6420, Note_on_c, 3, 66, 61
6, 6420, Note_on_c, 3, 60, 43
6, 6655, Note_on_c, 3, 60, 0
6, 6658, Note_on_c, 3, 66, 0
6, 6780, Note_on_c, 3, 43, 87
6, 6840, Note_on_c, 3, 59, 65
6, 6863, Note_on_c, 3, 43, 0
6, 6900, Note_on_c, 3, 62, 37
6, 6900, Note_on_c, 3, 67, 61
6, 6971, Note_on_c, 3, 59, 0
6, 7103, Note_on_c, 3, 62, 0
6, 7105, Note_on_c, 3, 67, 0
6, 7260, Note_on_c, 3, 60, 61
6, 7260, Note_on_c, 3, 64, 68
6, 7438, Note_on_c, 3, 60, 0
6, 7440, Note_on_c, 3, 64, 0
6, 7560, Note_on_c, 3, 60, 57
6, 7560, Note_on_c, 3, 66, 65
6, 7619, Note_on_c, 3, 66, 0
6, 7625, Note_on_c, 3, 60, 0
6, 7680, Note_on_c, 3, 67, 54
6, 7680, Note_on_c, 3, 71, 50
6, 7680, Note_on_c, 3, 62, 19
6, 7723, Note_on_c, 3, 71, 0
6, 7724, Note_on_c, 3, 62, 0
6, 7733, Note_on_c, 3, 67, 0
6, 7800, Note_on_c, 3, 67, 68
6, 7800, Note_on_c, 3, 62, 53
6, 7800, Note_on_c, 3, 71, 68
6, 7849, Note_on_c, 3, 71, 0
6, 7851, Note_on_c, 3, 62, 0
6, 7852, Note_on_c, 3, 67, 0
6, 8220, Note_on_c, 3, 60, 81
6, 8220, Note_on_c, 3, 57, 64
6, 8252, Note_on_c, 3, 57, 0
6, 8259, Note_on_c, 3, 60, 0
6, 8340, Note_on_c, 3, 45, 87
6, 8400, Note_on_c, 3, 60, 71
6, 8400, Note_on_c, 3, 57, 57
6, 8410, Note_on_c, 3, 45, 0
6, 8544, Note_on_c, 3, 57, 0
6, 8551, Note_on_c, 3, 60, 0
6, 8640, Note_on_c, 3, 66, 58
6, 8640, Note_on_c, 3, 60, 53
6, 8690, Note_on_c, 3, 60, 0
6, 8696, Note_on_c, 3, 66, 0
6, 8760, Note_on_c, 3, 66, 58
6, 8760, Note_on_c, 3, 60, 61
6, 8820, Note_on_c, 3, 60, 0
6, 8822, Note_on_c, 3, 66, 0
6, 9240, Note_on_c, 3, 62, 57
6, 9240, Note_on_c, 3, 67, 65
6, 9299, Note_on_c, 3, 67, 0
6, 9305, Note_on_c, 3, 62, 0
6, 9360, Note_on_c, 3, 62, 61
6, 9360, Note_on_c, 3, 67, 63
6, 9413, Note_on_c, 3, 62, 0
6, 9414, Note_on_c, 3, 67, 0
6, 9480, Note_on_c, 3, 59, 61
6, 9480, Note_on_c, 3, 65, 63
6, 9533, Note_on_c, 3, 59, 0
6, 9534, Note_on_c, 3, 65, 0
6, 9600, Note_on_c, 3, 48, 54
6, 9710, Note_on_c, 3, 48, 0
6, 9720, Note_on_c, 3, 64, 74
6, 9720, Note_on_c, 3, 60, 61
6, 9810, Note_on_c, 3, 60, 0
6, 9813, Note_on_c, 3, 64, 0
6, 9900, Note_on_c, 3, 64, 65
6, 9900, Note_on_c, 3, 60, 61
6, 9949, Note_on_c, 3, 60, 0
6, 9956, Note_on_c, 3, 64, 0
6, 10140, Note_on_c, 3, 62, 57
6, 10140, Note_on_c, 3, 67, 68
6, 10171, Note_on_c, 3, 62, 0
6, 10176, Note_on_c, 3, 67, 0
6, 10260, Note_on_c, 3, 43, 78
6, 10314, Note_on_c, 3, 43, 0
6, 10320, Note_on_c, 3, 67, 63
6, 10320, Note_on_c, 3, 62, 43
6, 10548, Note_on_c, 3, 62, 0
6, 10553, Note_on_c, 3, 67, 0
6, 10560, Note_on_c, 3, 45, 54
6, 10670, Note_on_c, 3, 45, 0
6, 10680, Note_on_c, 3, 60, 74
6, 10680, Note_on_c, 3, 57, 61
6, 10770, Note_on_c, 3, 57, 0
6, 10773, Note_on_c, 3, 60, 0
6, 10860, Note_on_c, 3, 60, 65
6, 10860, Note_on_c, 3, 57, 61
6, 10909, Note_on_c, 3, 57, 0
6, 10916, Note_on_c, 3, 60, 0
6, 11100, Note_on_c, 3, 60, 72
6, 11100, Note_on_c, 3, 66, 71
6, 11126, Note_on_c, 3, 60, 0
6, 11135, Note_on_c, 3, 66, 0
6, 11220, Note_on_c, 3, 50, 61
6, 11242, Note_on_c, 3, 50, 0
6, 11280, Note_on_c, 3, 66, 78
6, 11280, Note_on_c, 3, 60, 61
6, 11492, Note_on_c, 3, 60, 0
6, 11498, Note_on_c, 3, 66, 0
6, 11520, Note_on_c, 3, 62, 53
6, 11520, Note_on_c, 3, 67, 61
6, 11568, Note_on_c, 3, 62, 0
6, 11571, Note_on_c, 3, 67, 0
6, 11640, Note_on_c, 3, 62, 57
6, 11640, Note_on_c, 3, 67, 61
6, 11718, Note_on_c, 3, 62, 0
6, 11730, Note_on_c, 3, 67, 0
6, 11820, Note_on_c, 3, 43, 61
6, 11880, Note_on_c, 3, 59, 27
6, 11896, Note_on_c, 3, 43, 0
6, 11915, Note_on_c, 3, 59, 0
6, 12060, Note_on_c, 3, 59, 57
6, 12060, Note_on_c, 3, 65, 68
6, 12091, Note_on_c, 3, 59, 0
6, 12096, Note_on_c, 3, 65, 0
6, 12180, Note_on_c, 3, 43, 78
6, 12234, Note_on_c, 3, 43, 0
6, 12240, Note_on_c, 3, 65, 63
6, 12240, Note_on_c, 3, 59, 43
6, 12468, Note_on_c, 3, 59, 0
6, 12473, Note_on_c, 3, 65, 0
6, 12600, Note_on_c, 3, 60, 57
6, 12600, Note_on_c, 3, 64, 65
6, 12659, Note_on_c, 3, 64, 0
6, 12665, Note_on_c, 3, 60, 0
6, 12720, Note_on_c, 3, 60, 61
6, 12720, Note_on_c, 3, 66, 63
6, 12773, Note_on_c, 3, 60, 0
6, 12774, Note_on_c, 3, 66, 0
6, 12840, Note_on_c, 3, 60, 61
6, 12840, Note_on_c, 3, 66, 71
6, 12916, Note_on_c, 3, 60, 0
6, 12920, Note_on_c, 3, 66, 0
6, 13020, Note_on_c, 3, 67, 71
6, 13020, Note_on_c, 3, 62, 61
6, 13059, Note_on_c, 3, 62, 0
6, 13066, Note_on_c, 3, 67, 0
6, 13200, Note_on_c, 3, 67, 74
6, 13200, Note_on_c, 3, 62, 53
6, 13388, Note_on_c, 3, 62, 0
6, 13395, Note_on_c, 3, 67, 0
6, 13500, Note_on_c, 3, 60, 61
6, 13500, Note_on_c, 3, 64, 68
6, 13678, Note_on_c, 3, 60, 0
6, 13680, Note_on_c, 3, 64, 0
6, 13680, Note_on_c, 3, 60, 77
6, 13680, Note_on_c, 3, 66, 56
6, 13901, Note_on_c, 3, 60, 0
6, 13902, Note_on_c, 3, 66, 0
6, 13980, Note_on_c, 3, 67, 81
6, 13980, Note_on_c, 3, 62, 64
6, 14012, Note_on_c, 3, 62, 0
6, 14019, Note_on_c, 3, 67, 0
6, 14100, Note_on_c, 3, 43, 87
6, 14160, Note_on_c, 3, 67, 71
6, 14160, Note_on_c, 3, 62, 57
6, 14170, Note_on_c, 3, 43, 0
6, 14304, Note_on_c, 3, 62, 0
6, 14311, Note_on_c, 3, 67, 0
6, 14400, Note_on_c, 3, 60, 77
6, 14400, Note_on_c, 3, 64, 56
6, 14621, Note_on_c, 3, 60, 0
6, 14622, Note_on_c, 3, 64, 0
6, 14640, Note_on_c, 3, 60, 77
6, 14640, Note_on_c, 3, 66, 56
6, 14861, Note_on_c, 3, 60, 0
6, 14862, Note_on_c, 3, 66, 0
6, 15000, Note_on_c, 3, 62, 57
6, 15000, Note_on_c, 3, 67, 65
6, 15059, Note_on_c, 3, 67, 0
6, 15065, Note_on_c, 3, 62, 0
6, 15120, Note_on_c, 3, 59, 61
6, 15120, Note_on_c, 3, 64, 63
6, 15173, Note_on_c, 3, 59, 0
6, 15174, Note_on_c, 3, 64, 0
6, 15240, Note_on_c, 3, 59, 61
6, 15240, Note_on_c, 3, 64, 71
6, 15316, Note_on_c, 3, 59, 0
6, 15320, Note_on_c, 3, 64, 0
6, 15360, Note_on_c, 3, 55, 53
6, 15360, Note_on_c, 3, 61, 61
6, 15408, Note_on_c, 3, 55, 0
6, 15411, Note_on_c, 3, 61, 0
6, 15480, Note_on_c, 3, 55, 57
6, 15480, Note_on_c, 3, 61, 61
6, 15558, Note_on_c, 3, 55, 0
6, 15570, Note_on_c, 3, 61, 0
6, 15660, Note_on_c, 3, 45, 61
6, 15720, Note_on_c, 3, 52, 27
6, 15736, Note_on_c, 3, 45, 0
6, 15755, Note_on_c, 3, 52, 0
6, 15900, Note_on_c, 3, 66, 81
6, 15900, Note_on_c, 3, 60, 64
6, 15932, Note_on_c, 3, 60, 0
6, 15939, Note_on_c, 3, 66, 0
6, 16020, Note_on_c, 3, 50, 87
6, 16080, Note_on_c, 3, 66, 71
6, 16080, Note_on_c, 3, 60, 57
6, 16090, Note_on_c, 3, 50, 0
6, 16224, Note_on_c, 3, 60, 0
6, 16231, Note_on_c, 3, 66, 0
6, 16320, Note_on_c, 3, 67, 58
6, 16320, Note_on_c, 3, 62, 53
6, 16370, Note_on_c, 3, 62, 0
6, 16376, Note_on_c, 3, 67, 0
6, 16440, Note_on_c, 3, 67, 58
6, 16440, Note_on_c, 3, 62, 61
6, 16500, Note_on_c, 3, 62, 0
6, 16502, Note_on_c, 3, 67, 0
6, 16860, Note_on_c, 3, 60, 71
6, 16860, Note_on_c, 3, 57, 61
6, 16899, Note_on_c, 3, 57, 0
6, 16906, Note_on_c, 3, 60, 0
6, 17040, Note_on_c, 3, 60, 74
6, 17040, Note_on_c, 3, 57, 53
6, 17228, Note_on_c, 3, 57, 0
6, 17235, Note_on_c, 3, 60, 0
6, 17280, Note_on_c, 3, 66, 58
6, 17280, Note_on_c, 3, 60, 53
6, 17330, Note_on_c, 3, 60, 0
6, 17336, Note_on_c, 3, 66, 0
6, 17400, Note_on_c, 3, 66, 58
6, 17400, Note_on_c, 3, 60, 61
6, 17460, Note_on_c, 3, 60, 0
6, 17462, Note_on_c, 3, 66, 0
6, 17880, Note_on_c, 3, 62, 57
6, 17880, Note_on_c, 3, 67, 65
6, 17939, Note_on_c, 3, 67, 0
6, 17945, Note_on_c, 3, 62, 0
6, 18000, Note_on_c, 3, 62, 61
6, 18000, Note_on_c, 3, 67, 63
6, 18053, Note_on_c, 3, 62, 0
6, 18054, Note_on_c, 3, 67, 0
6, 18120, Note_on_c, 3, 59, 61
6, 18120, Note_on_c, 3, 65, 63
6, 18173, Note_on_c, 3, 59, 0
6, 18174, Note_on_c, 3, 65, 0
6, 18240, Note_on_c, 3, 64, 58
6, 18240, Note_on_c, 3, 60, 53
6, 18290, Note_on_c, 3, 60, 0
6, 18296, Note_on_c, 3, 64, 0
6, 18360, Note_on_c, 3, 64, 58
6, 18360, Note_on_c, 3, 60, 61
6, 18420, Note_on_c, 3, 60, 0
6, 18422, Note_on_c, 3, 64, 0
6, 18780, Note_on_c, 3, 67, 81
6, 18780, Note_on_c, 3, 62, 64
6, 18812, Note_on_c, 3, 62, 0
6, 18819, Note_on_c, 3, 67, 0
6, 18900, Note_on_c, 3, 43, 87
6, 18960, Note_on_c, 3, 67, 71
6, 18960, Note_on_c, 3, 62, 57
6, 18970, Note_on_c, 3, 43, 0
6, 19104, Note_on_c, 3, 62, 0
6, 19111, Note_on_c, 3, 67, 0
6, 19200, Note_on_c, 3, 60, 54
6, 19200, Note_on_c, 3, 64, 50
6, 19200, Note_on_c, 3, 57, 19
6, 19243, Note_on_c, 3, 64, 0
6, 19244, Note_on_c, 3, 57, 0
6, 19253, Note_on_c, 3, 60, 0
6, 19320, Note_on_c, 3, 60, 68
6, 19320, Note_on_c, 3, 57, 53
6, 19320, Note_on_c, 3, 64, 68
6, 19369, Note_on_c, 3, 64, 0
6, 19371, Note_on_c, 3, 57, 0
6, 19372, Note_on_c, 3, 60, 0
6, 19740, Note_on_c, 3, 66, 81
6, 19740, Note_on_c, 3, 60, 64
6, 19772, Note_on_c, 3, 60, 0
6, 19779, Note_on_c, 3, 66, 0
6, 19860, Note_on_c, 3, 50, 87
6, 19920, Note_on_c, 3, 66, 71
6, 19920, Note_on_c, 3, 60, 57
6, 19930, Note_on_c, 3, 50, 0
6, 20064, Note_on_c, 3, 60, 0
6, 20071, Note_on_c, 3, 66, 0
6, 20160, Note_on_c, 3, 62, 53
6, 20160, Note_on_c, 3, 67, 61
6, 20208, Note_on_c, 3, 62, 0
6, 20211, Note_on_c, 3, 67, 0
6, 20280, Note_on_c, 3, 62, 57
6, 20280, Note_on_c, 3, 67, 61
6, 20358, Note_on_c, 3, 62, 0
6, 20370, Note_on_c, 3, 67, 0
6, 20460, Note_on_c, 3, 43, 61
6, 20520, Note_on_c, 3, 59, 27
6, 20536, Note_on_c, 3, 43, 0
6, 20555, Note_on_c, 3, 59, 0
6, 20640, Note_on_c, 3, 60, 77
6, 20640, Note_on_c, 3, 64, 56
6, 20861, Note_on_c, 3, 60, 0
6, 20862, Note_on_c, 3, 64, 0
6, 20880, Note_on_c, 3, 60, 61
6, 20880, Note_on_c, 3, 66, 63
6, 20933, Note_on_c, 3, 60, 0
6, 20934, Note_on_c, 3, 66, 0
6, 21000, Note_on_c, 3, 60, 61
6, 21000, Note_on_c, 3, 66, 71
6, 21076, Note_on_c, 3, 60, 0
6, 21080, Note_on_c, 3, 66, 0
6, 21120, Note_on_c, 3, 62, 53
6, 21120, Note_on_c, 3, 67, 61
6, 21168, Note_on_c, 3, 62, 0
6, 21171, Note_on_c, 3, 67, 0
6, 21240, Note_on_c, 3, 62, 57
6, 21240, Note_on_c, 3, 67, 61
6, 21318, Note_on_c, 3, 62, 0
6, 21330, Note_on_c, 3, 67, 0
6, 21420, Note_on_c, 3, 43, 61
6, 21480, Note_on_c, 3, 59, 27
6, 21496, Note_on_c, 3, 43, 0
6, 21515, Note_on_c, 3, 59, 0
6, 21660, Note_on_c, 3, 60, 81
6, 21660, Note_on_c, 3, 57, 64
6, 21692, Note_on_c, 3, 57, 0
6, 21699, Note_on_c, 3, 60, 0
6, 21780, Note_on_c, 3, 45, 87
6, 21840, Note_on_c, 3, 60, 71
6, 21840, Note_on_c, 3, 57, 57
6, 21850, Note_on_c, 3, 45, 0
6, 21984, Note_on_c, 3, 57, 0
6, 21991, Note_on_c, 3, 60, 0
6, 22080, Note_on_c, 3, 66, 54
6, 22080, Note_on_c, 3, 69, 50
6, 22080, Note_on_c, 3, 60, 19
6, 22123, Note_on_c, 3, 69, 0
6, 22124, Note_on_c, 3, 60, 0
6, 22133, Note_on_c, 3, 66, 0
6, 22200, Note_on_c, 3, 66, 68
6, 22200, Note_on_c, 3, 60, 53
6, 22200, Note_on_c, 3, 69, 68
6, 22249, Note_on_c, 3, 69, 0
6, 22251, Note_on_c, 3, 60, 0
6, 22252, Note_on_c, 3, 66, 0
6, 22680, Note_on_c, 3, 62, 57
6, 22680, Note_on_c, 3, 67, 65
6, 22739, Note_on_c, 3, 67, 0
6, 22745, Note_on_c, 3, 62, 0
6, 22800, Note_on_c, 3, 62, 61
6, 22800, Note_on_c, 3, 67, 63
6, 22853, Note_on_c, 3, 62, 0
6, 22854, Note_on_c, 3, 67, 0
6, 22920, Note_on_c, 3, 59, 61
6, 22920, Note_on_c, 3, 65, 63
6, 22973, Note_on_c, 3, 59, 0
6, 22974, Note_on_c, 3, 65, 0
6, 23100, Note_on_c, 3, 48, 87
6, 23160, Note_on_c, 3, 55, 65
6, 23183, Note_on_c, 3, 48, 0
6, 23220, Note_on_c, 3, 60, 37
6, 23220, Note_on_c, 3, 64, 61
6, 23291, Note_on_c, 3, 55, 0
6, 23423, Note_on_c, 3, 60, 0
6, 23425, Note_on_c, 3, 64, 0
6, 23580, Note_on_c, 3, 67, 81
6, 23580, Note_on_c, 3, 62, 64
6, 23612, Note_on_c, 3, 62, 0
6, 23619, Note_on_c, 3, 67, 0
6, 23700, Note_on_c, 3, 43, 87
6, 23760, Note_on_c, 3, 67, 71
6, 23760, Note_on_c, 3, 62, 57
6, 23770, Note_on_c, 3, 43, 0
6, 23904, Note_on_c, 3, 62, 0
6, 23911, Note_on_c, 3, 67, 0
6, 24000, Note_on_c, 3, 57, 53
6, 24000, Note_on_c, 3, 60, 61
6, 24048, Note_on_c, 3, 57, 0
6, 24051, Note_on_c, 3, 60, 0
6, 24120, Note_on_c, 3, 57, 57
6, 24120, Note_on_c, 3, 60, 61
6, 24198, Note_on_c, 3, 57, 0
6, 24210, Note_on_c, 3, 60, 0
6, 24300, Note_on_c, 3, 45, 61
6, 24360, Note_on_c, 3, 52, 27
6, 24376, Note_on_c, 3, 45, 0
6, 24395, Note_on_c, 3, 52, 0
6, 24540, Note_on_c, 3, 66, 71
6, 24540, Note_on_c, 3, 60, 61
6, 24579, Note_on_c, 3, 60, 0
6, 24586, Note_on_c, 3, 66, 0
6, 24720, Note_on_c, 3, 66, 74
6, 24720, Note_on_c, 3, 60, 53
6, 24908, Note_on_c, 3, 60, 0
6, 24915, Note_on_c, 3, 66, 0
6, 24960, Note_on_c, 3, 67, 58
6, 24960, Note_on_c, 3, 62, 53
6, 25010, Note_on_c, 3, 62, 0
6, 25016, Note_on_c, 3, 67, 0
6, 25080, Note_on_c, 3, 67, 58
6, 25080, Note_on_c, 3, 62, 61
6, 25140, Note_on_c, 3, 62, 0
6, 25142, Note_on_c, 3, 67, 0
6, 25500, Note_on_c, 3, 65, 71
6, 25500, Note_on_c, 3, 59, 61
6, 25539, Note_on_c, 3, 59, 0
6, 25546, Note_on_c, 3, 65, 0
6, 25680, Note_on_c, 3, 65, 74
6, 25680, Note_on_c, 3, 59, 53
6, 25868, Note_on_c, 3, 59, 0
6, 25875, Note_on_c, 3, 65, 0
6, 26040, Note_on_c, 3, 60, 57
6, 26040, Note_on_c, 3, 64, 65
6, 26099, Note_on_c, 3, 64, 0
6, 26105, Note_on_c, 3, 60, 0
6, 26160, Note_on_c, 3, 60, 61
6, 26160, Note_on_c, 3, 66, 63
6, 26213, Note_on_c, 3, 60, 0
6, 26214, Note_on_c, 3, 66, 0
6, 26280, Note_on_c, 3, 60, 61
6, 26280, Note_on_c, 3, 66, 71
6, 26356, Note_on_c, 3, 60, 0
6, 26360, Note_on_c, 3, 66, 0
6, 26460, Note_on_c, 3, 67, 81
6, 26460, Note_on_c, 3, 62, 64
6, 26492, Note_on_c, 3, 62, 0
6, 26499, Note_on_c, 3, 67, 0
6, 26580, Note_on_c, 3, 43, 87
6, 26640, Note_on_c, 3, 67, 71
6, 26640, Note_on_c, 3, 62, 57
6, 26650, Note_on_c, 3, 43, 0
6, 26784, Note_on_c, 3, 62, 0
6, 26791, Note_on_c, 3, 67, 0
6, 26940, Note_on_c, 3, 60, 61
6, 26940, Note_on_c, 3, 64, 68
6, 27118, Note_on_c, 3, 60, 0
6, 27120, Note_on_c, 3, 64, 0
6, 27120, Note_on_c, 3, 60, 61
6, 27120, Note_on_c, 3, 66, 63
6, 27173, Note_on_c, 3, 60, 0
6, 27174, Note_on_c, 3, 66, 0
6, 27240, Note_on_c, 3, 60, 61
6, 27240, Note_on_c, 3, 66, 71
6, 27316, Note_on_c, 3, 60, 0
6, 27320, Note_on_c, 3, 66, 0
6, 27420, Note_on_c, 3, 67, 81
6, 27420, Note_on_c, 3, 62, 64
6, 27452, Note_on_c, 3, 62, 0
6, 27459, Note_on_c, 3, 67, 0
6, 27540, Note_on_c, 3, 43, 87
6, 27600, Note_on_c, 3, 67, 71
6, 27600, Note_on_c, 3, 62, 57
6, 27610, Note_on_c, 3, 43, 0
6, 27744, Note_on_c, 3, 62, 0
6, 27751, Note_on_c, 3, 67, 0
6, 27960, Note_on_c, 3, 60, 57
6, 27960, Note_on_c, 3, 64, 65
6, 28019, Note_on_c, 3, 64, 0
6, 28025, Note_on_c, 3, 60, 0
6, 28080, Note_on_c, 3, 60, 77
6, 28080, Note_on_c, 3, 66, 56
6, 28301, Note_on_c, 3, 60, 0
6, 28302, Note_on_c, 3, 66, 0
6, 28320, Note_on_c, 3, 62, 61
6, 28320, Note_on_c, 3, 67, 63
6, 28373, Note_on_c, 3, 62, 0
6, 28374, Note_on_c, 3, 67, 0
6, 28440, Note_on_c, 3, 62, 61
6, 28440, Note_on_c, 3, 67, 71
6, 28516, Note_on_c, 3, 62, 0
6, 28520, Note_on_c, 3, 67, 0
6, 28620, Note_on_c, 3, 59, 61
6, 28620, Note_on_c, 3, 64, 68
6, 28798, Note_on_c, 3, 59, 0
6, 28800, Note_on_c, 3, 64, 0
6, 28800, Note_on_c, 3, 61, 65
6, 28800, Note_on_c, 3, 55, 46
6, 28830, Note_on_c, 3, 55, 0
6, 28837, Note_on_c, 3, 61, 0
6, 28920, Note_on_c, 3, 61, 65
6, 28920, Note_on_c, 3, 55, 57
6, 28961, Note_on_c, 3, 55, 0
6, 28975, Note_on_c, 3, 61, 0
6, 29040, Note_on_c, 3, 45, 65
6, 29100, Note_on_c, 3, 61, 68
6, 29100, Note_on_c, 3, 55, 57
6, 29107, Note_on_c, 3, 45, 0
6, 29140, Note_on_c, 3, 55, 0
6, 29154, Note_on_c, 3, 61, 0
6, 29340, Note_on_c, 3, 66, 81
6, 29340, Note_on_c, 3, 60, 64
6, 29372, Note_on_c, 3, 60, 0
6, 29379, Note_on_c, 3, 66, 0
6, 29460, Note_on_c, 3, 50, 87
6, 29520, Note_on_c, 3, 66, 71
6, 29520, Note_on_c, 3, 60, 57
6, 29530, Note_on_c, 3, 50, 0
6, 29664, Note_on_c, 3, 60, 0
6, 29671, Note_on_c, 3, 66, 0
6, 29760, Note_on_c, 3, 67, 58
6, 29760, Note_on_c, 3, 62, 53
6, 29810, Note_on_c, 3, 62, 0
6, 29816, Note_on_c, 3, 67, 0
6, 29880, Note_on_c, 3, 67, 58
6, 29880, Note_on_c, 3, 62, 61
6, 29940, Note_on_c, 3, 62, 0
6, 29942, Note_on_c, 3, 67, 0
6, 30300, Note_on_c, 3, 60, 81
6, 30300, Note_on_c, 3, 57, 64
6, 30332, Note_on_c, 3, 57, 0
6, 30339, Note_on_c, 3, 60, 0
6, 30420, Note_on_c, 3, 45, 87
6, 30480, Note_on_c, 3, 60, 71
6, 30480, Note_on_c, 3, 57, 57
6, 30490, Note_on_c, 3, 45, 0
6, 30624, Note_on_c, 3, 57, 0
6, 30631, Note_on_c, 3, 60, 0
6, 30720, Note_on_c, 3, 66, 58
6, 30720, Note_on_c, 3, 60, 53
6, 30770, Note_on_c, 3, 60, 0
6, 30776, Note_on_c, 3, 66, 0
6, 30840, Note_on_c, 3, 66, 58
6, 30840, Note_on_c, 3, 60, 61
6, 30900, Note_on_c, 3, 60, 0
6, 30902, Note_on_c, 3, 66, 0
6, 31320, Note_on_c, 3, 62, 57
6, 31320, Note_on_c, 3, 67, 65
6, 31379, Note_on_c, 3, 67, 0
6, 31385, Note_on_c, 3, 62, 0
6, 31440, Note_on_c, 3, 62, 61
6, 31440, Note_on_c, 3, 67, 63
6, 31493, Note_on_c, 3, 62, 0
6, 31494, Note_on_c, 3, 67, 0
6, 31560, Note_on_c, 3, 59, 61
6, 31560, Note_on_c, 3, 65, 63
6, 31613, Note_on_c, 3, 59, 0
6, 31614, Note_on_c, 3, 65, 0
6, 31680, Note_on_c, 3, 64, 58
6, 31680, Note_on_c, 3, 60, 53
6, 31730, Note_on_c, 3, 60, 0
6, 31736, Note_on_c, 3, 64, 0
6, 31800, Note_on_c, 3, 64, 58
6, 31800, Note_on_c, 3, 60, 61
6, 31860, Note_on_c, 3, 60, 0
6, 31862, Note_on_c, 3, 64, 0
6, 32220, Note_on_c, 3, 67, 81
6, 32220, Note_on_c, 3, 62, 64
6, 32252, Note_on_c, 3, 62, 0
6, 32259, Note_on_c, 3, 67, 0
6, 32340, Note_on_c, 3, 43, 87
6, 32400, Note_on_c, 3, 67, 71
6, 32400, Note_on_c, 3, 62, 57
6, 32410, Note_on_c, 3, 43, 0
6, 32544, Note_on_c, 3, 62, 0
6, 32551, Note_on_c, 3, 67, 0
6, 32700, Note_on_c, 3, 45, 87
6, 32760, Note_on_c, 3, 52, 65
6, 32783, Note_on_c, 3, 45, 0
6, 32820, Note_on_c, 3, 57, 37
6, 32820, Note_on_c, 3, 60, 61
6, 32891, Note_on_c, 3, 52, 0
6, 33023, Note_on_c, 3, 57, 0
6, 33025, Note_on_c, 3, 60, 0
6, 33180, Note_on_c, 3, 66, 71
6, 33180, Note_on_c, 3, 60, 61
6, 33219, Note_on_c, 3, 60, 0
6, 33226, Note_on_c, 3, 66, 0
6, 33360, Note_on_c, 3, 66, 74
6, 33360, Note_on_c, 3, 60, 53
6, 33548, Note_on_c, 3, 60, 0
6, 33555, Note_on_c, 3, 66, 0
6, 33600, Note_on_c, 3, 67, 54
6, 33600, Note_on_c, 3, 71, 50
6, 33600, Note_on_c, 3, 62, 19
6, 33643, Note_on_c, 3, 71, 0
6, 33644, Note_on_c, 3, 62, 0
6, 33653, Note_on_c, 3, 67, 0
6, 33720, Note_on_c, 3, 67, 68
6, 33720, Note_on_c, 3, 62, 53
6, 33720, Note_on_c, 3, 71, 68
6, 33769, Note_on_c, 3, 71, 0
6, 33771, Note_on_c, 3, 62, 0
6, 33772, Note_on_c, 3, 67, 0
6, 34140, Note_on_c, 3, 67, 71
6, 34140, Note_on_c, 3, 62, 61
6, 34179, Note_on_c, 3, 62, 0
6, 34186, Note_on_c, 3, 67, 0
6, 34320, Note_on_c, 3, 67, 74
6, 34320, Note_on_c, 3, 62, 53
6, 34508, Note_on_c, 3, 62, 0
6, 34515, Note_on_c, 3, 67, 0
6, 34560, Control_c, 3, 64, 0
6, 34560, End_track
7, 0, Start_track
7, 0, Title_t, "Melody 1"
7, 0, Control_c, 4, 121, 0
7, 0, Control_c, 4, 123, 0
7, 0, Control_c, 4, 1, 25
7, 0, Control_c, 4, 91, 80
7, 0, Control_c, 4, 93, 60
7, 0, Control_c, 4, 5, 127
7, 142, Program_c, 4, 65
7, 143, Control_c, 4, 7, 80
7, 143, Control_c, 4, 10, 69
7, 2880, Note_on_c, 4, 50, 83
7, 2880, Lyric_t, "Ev'"
7, 3000, Note_on_c, 4, 50, 0
7, 3000, Note_on_c, 4, 59, 83
7, 3000, Lyric_t, "ry "
7, 3120, Note_on_c, 4, 59, 0
7, 3120, Note_on_c, 4, 59, 83
7, 3120, Lyric_t, "time "
7, 3300, Note_on_c, 4, 59, 0
7, 3300, Note_on_c, 4, 60, 83
7, 3300, Lyric_t, "you "
7, 3360, Note_on_c, 4, 60, 0
7, 3360, Note_on_c, 4, 59, 83
7, 3360, Lyric_t, "look "
7, 3480, Note_on_c, 4, 59, 0
7, 3480, Note_on_c, 4, 57, 83
7, 3480, Lyric_t, "at "
7, 3600, Note_on_c, 4, 57, 0
7, 3600, Note_on_c, 4, 57, 83
7, 3600, Lyric_t, "me "
7, 3744, Lyric_t, "\015"
7, 3840, Note_on_c, 4, 57, 0
7, 3840, Note_on_c, 4, 50, 83
7, 3840, Lyric_t, "I'm "
7, 3960, Note_on_c, 4, 50, 0
7, 3960, Note_on_c, 4, 57, 83
7, 3960, Lyric_t, "as "
7, 4080, Note_on_c, 4, 57, 0
7, 4080, Note_on_c, 4, 57, 83
7, 4080, Lyric_t, "help"
7, 4260, Note_on_c, 4, 57, 0
7, 4260, Note_on_c, 4, 59, 83
7, 4260, Lyric_t, "less "
7, 4320, Note_on_c, 4, 59, 0
7, 4320, Note_on_c, 4, 57, 83
7, 4320, Lyric_t, "as "
7, 4440, Note_on_c, 4, 57, 0
7, 4440, Note_on_c, 4, 55, 83
7, 4440, Lyric_t, "can "
7, 4560, Note_on_c, 4, 55, 0
7, 4560, Note_on_c, 4, 55, 83
7, 4560, Lyric_t, "be "
7, 4704, Lyric_t, "\015"
7, 4800, Note_on_c, 4, 55, 0
7, 4800, Note_on_c, 4, 52, 83
7, 4800, Lyric_t, "I "
7, 4920, Note_on_c, 4, 52, 0
7, 4920, Note_on_c, 4, 55, 83
7, 4920, Lyric_t, "be"
7, 5040, Note_on_c, 4, 55, 0
7, 5040, Note_on_c, 4, 60, 83
7, 5040, Lyric_t, "come "
7, 5220, Note_on_c, 4, 60, 0
7, 5220, Note_on_c, 4, 52, 83
7, 5220, Lyric_t, "a "
7, 5280, Note_on_c, 4, 52, 0
7, 5280, Note_on_c, 4, 50, 83
7, 5280, Lyric_t, "pup"
7, 5370, Note_on_c, 4, 50, 0
7, 5370, Note_on_c, 4, 50, 83
7, 5370, Lyric_t, "pet "
7, 5400, Note_on_c, 4, 50, 0
7, 5400, Note_on_c, 4, 55, 83
7, 5400, Lyric_t, "on "
7, 5490, Note_on_c, 4, 55, 0
7, 5490, Note_on_c, 4, 55, 83
7, 5490, Lyric_t, "a "
7, 5520, Note_on_c, 4, 55, 0
7, 5520, Note_on_c, 4, 59, 83
7, 5520, Lyric_t, "string "
7, 5628, Lyric_t, "\015"
7, 5700, Note_on_c, 4, 59, 0
7, 5700, Note_on_c, 4, 50, 83
7, 5700, Lyric_t, "And "
7, 5760, Note_on_c, 4, 50, 0
7, 5760, Note_on_c, 4, 48, 83
7, 5760, Lyric_t, "you "
7, 5880, Note_on_c, 4, 48, 0
7, 5880, Note_on_c, 4, 52, 83
7, 5880, Lyric_t, "can "
7, 6000, Note_on_c, 4, 52, 0
7, 6000, Note_on_c, 4, 57, 83
7, 6000, Lyric_t, "do  "
7, 6072, Lyric_t, "\015"
7, 6120, Note_on_c, 4, 57, 0
7, 6120, Note_on_c, 4, 59, 83
7, 6120, Lyric_t, "'most "
7, 6240, Note_on_c, 4, 59, 0
7, 6240, Note_on_c, 4, 60, 83
7, 6240, Lyric_t, "an"
7, 6360, Note_on_c, 4, 60, 0
7, 6360, Note_on_c, 4, 57, 83
7, 6360, Lyric_t, "y"
7, 6480, Note_on_c, 4, 57, 0
7, 6480, Note_on_c, 4, 55, 83
7, 6480, Lyric_t, "thing "
7, 6600, Note_on_c, 4, 55, 0
7, 6600, Note_on_c, 4, 54, 83
7, 6600, Lyric_t, "with "
7, 6720, Note_on_c, 4, 54, 0
7, 6720, Note_on_c, 4, 55, 83
7, 6720, Lyric_t, "me "
7, 7200, Note_on_c, 4, 55, 0
7, 7296, Lyric_t, "\015"
7, 7680, Note_on_c, 4, 50, 83
7, 7680, Lyric_t, "All "
7, 7800, Note_on_c, 4, 50, 0
7, 7800, Note_on_c, 4, 59, 83
7, 7800, Lyric_t, "you "
7, 7920, Note_on_c, 4, 59, 0
7, 7920, Note_on_c, 4, 59, 83
7, 7920, Lyric_t, "do "
7, 8100, Note_on_c, 4, 59, 0
7, 8100, Note_on_c, 4, 60, 83
7, 8100, Lyric_t, "is "
7, 8160, Note_on_c, 4, 60, 0
7, 8160, Note_on_c, 4, 59, 83
7, 8160, Lyric_t, "touch "
7, 8280, Note_on_c, 4, 59, 0
7, 8280, Note_on_c, 4, 57, 83
7, 8280, Lyric_t, "my "
7, 8400, Note_on_c, 4, 57, 0
7, 8400, Note_on_c, 4, 57, 83
7, 8400, Lyric_t, "hand "
7, 8544, Lyric_t, "\015"
7, 8640, Note_on_c, 4, 57, 0
7, 8640, Note_on_c, 4, 50, 83
7, 8640, Lyric_t, "And "
7, 8760, Note_on_c, 4, 50, 0
7, 8760, Note_on_c, 4, 57, 83
7, 8760, Lyric_t, "your "
7, 8880, Note_on_c, 4, 57, 0
7, 8880, Note_on_c, 4, 57, 83
7, 8880, Lyric_t, "wish "
7, 9060, Note_on_c, 4, 57, 0
7, 9060, Note_on_c, 4, 59, 83
7, 9060, Lyric_t, "is "
7, 9120, Note_on_c, 4, 59, 0
7, 9120, Note_on_c, 4, 57, 83
7, 9120, Lyric_t, "my "
7, 9240, Note_on_c, 4, 57, 0
7, 9240, Note_on_c, 4, 55, 83
7, 9240, Lyric_t, "com"
7, 9360, Note_on_c, 4, 55, 0
7, 9360, Note_on_c, 4, 55, 83
7, 9360, Lyric_t, "mand "
7, 9504, Lyric_t, "\015"
7, 9600, Note_on_c, 4, 55, 0
7, 9600, Note_on_c, 4, 52, 83
7, 9600, Lyric_t, "I "
7, 9720, Note_on_c, 4, 52, 0
7, 9720, Note_on_c, 4, 55, 83
7, 9720, Lyric_t, "be"
7, 9840, Note_on_c, 4, 55, 0
7, 9840, Note_on_c, 4, 60, 83
7, 9840, Lyric_t, "come "
7, 10020, Note_on_c, 4, 60, 0
7, 10020, Note_on_c, 4, 52, 83
7, 10020, Lyric_t, "a "
7, 10080, Note_on_c, 4, 52, 0
7, 10080, Note_on_c, 4, 50, 83
7, 10080, Lyric_t, "pup"
7, 10170, Note_on_c, 4, 50, 0
7, 10170, Note_on_c, 4, 50, 83
7, 10170, Lyric_t, "pet "
7, 10200, Note_on_c, 4, 50, 0
7, 10200, Note_on_c, 4, 55, 83
7, 10200, Lyric_t, "on "
7, 10290, Note_on_c, 4, 55, 0
7, 10290, Note_on_c, 4, 55, 83
7, 10290, Lyric_t, "a "
7, 10320, Note_on_c, 4, 55, 0
7, 10320, Note_on_c, 4, 59, 83
7, 10320, Lyric_t, "string "
7, 10428, Lyric_t, "\015"
7, 10500, Note_on_c, 4, 59, 0
7, 10500, Note_on_c, 4, 50, 83
7, 10500, Lyric_t, "And "
7, 10560, Note_on_c, 4, 50, 0
7, 10560, Note_on_c, 4, 48, 83
7, 10560, Lyric_t, "you "
7, 10680, Note_on_c, 4, 48, 0
7, 10680, Note_on_c, 4, 52, 83
7, 10680, Lyric_t, "can "
7, 10800, Note_on_c, 4, 52, 0
7, 10800, Note_on_c, 4, 57, 83
7, 10800, Lyric_t, "do "
7, 10872, Lyric_t, "\015"
7, 10920, Note_on_c, 4, 57, 0
7, 10920, Note_on_c, 4, 59, 83
7, 10920, Lyric_t, "'most "
7, 11040, Note_on_c, 4, 59, 0
7, 11040, Note_on_c, 4, 60, 83
7, 11040, Lyric_t, "an"
7, 11160, Note_on_c, 4, 60, 0
7, 11160, Note_on_c, 4, 57, 83
7, 11160, Lyric_t, "y"
7, 11280, Note_on_c, 4, 57, 0
7, 11280, Note_on_c, 4, 55, 83
7, 11280, Lyric_t, "thing "
7, 11400, Note_on_c, 4, 55, 0
7, 11400, Note_on_c, 4, 54, 83
7, 11400, Lyric_t, "with "
7, 11520, Note_on_c, 4, 54, 0
7, 11520, Note_on_c, 4, 55, 83
7, 11520, Lyric_t, "me "
7, 12000, Note_on_c, 4, 55, 0
7, 12120, Lyric_t, "\015"
7, 12600, Note_on_c, 4, 52, 83
7, 12600, Lyric_t, "If "
7, 12660, Note_on_c, 4, 52, 0
7, 12660, Note_on_c, 4, 52, 83
7, 12660, Lyric_t, "you "
7, 12720, Note_on_c, 4, 52, 0
7, 12720, Note_on_c, 4, 54, 83
7, 12720, Lyric_t, "real"
7, 12900, Note_on_c, 4, 54, 0
7, 12900, Note_on_c, 4, 57, 83
7, 12900, Lyric_t, "ly "
7, 12960, Note_on_c, 4, 57, 0
7, 12960, Note_on_c, 4, 55, 83
7, 12960, Lyric_t, "love "
7, 13080, Note_on_c, 4, 55, 0
7, 13080, Note_on_c, 4, 50, 83
7, 13080, Lyric_t, "me "
7, 13368, Lyric_t, "\015"
7, 13440, Note_on_c, 4, 50, 0
7, 13560, Note_on_c, 4, 52, 83
7, 13560, Lyric_t, "dar"
7, 13620, Note_on_c, 4, 52, 0
7, 13620, Note_on_c, 4, 52, 83
7, 13620, Lyric_t, "ling "
7, 13680, Note_on_c, 4, 52, 0
7, 13680, Note_on_c, 4, 54, 83
7, 13680, Lyric_t, "please "
7, 13860, Note_on_c, 4, 54, 0
7, 13860, Note_on_c, 4, 57, 83
7, 13860, Lyric_t, "be "
7, 13920, Note_on_c, 4, 57, 0
7, 13920, Note_on_c, 4, 50, 83
7, 13920, Lyric_t, "kind "
7, 14172, Lyric_t, "\015"
7, 14280, Note_on_c, 4, 50, 0
7, 14340, Note_on_c, 4, 50, 83
7, 14340, Lyric_t, "I "
7, 14400, Note_on_c, 4, 50, 0
7, 14400, Note_on_c, 4, 52, 83
7, 14400, Lyric_t, "of"
7, 14520, Note_on_c, 4, 52, 0
7, 14520, Note_on_c, 4, 52, 83
7, 14520, Lyric_t, "fer "
7, 14640, Note_on_c, 4, 52, 0
7, 14640, Note_on_c, 4, 54, 83
7, 14640, Lyric_t, "you "
7, 14820, Note_on_c, 4, 54, 0
7, 14820, Note_on_c, 4, 57, 83
7, 14820, Lyric_t, "the "
7, 14880, Note_on_c, 4, 57, 0
7, 14880, Note_on_c, 4, 62, 83
7, 14880, Lyric_t, "tru"
7, 15000, Note_on_c, 4, 62, 0
7, 15000, Note_on_c, 4, 59, 83
7, 15000, Lyric_t, "est "
7, 15120, Note_on_c, 4, 59, 0
7, 15120, Note_on_c, 4, 57, 83
7, 15132, Note_on_c, 4, 57, 0
7, 15132, Note_on_c, 4, 55, 83
7, 15132, Lyric_t, "love "
7, 15233, Lyric_t, "\015"
7, 15300, Note_on_c, 4, 55, 0
7, 15300, Note_on_c, 4, 52, 83
7, 15300, Lyric_t, "That "
7, 15360, Note_on_c, 4, 52, 0
7, 15360, Note_on_c, 4, 59, 83
7, 15360, Lyric_t, "you "
7, 15480, Note_on_c, 4, 59, 0
7, 15480, Note_on_c, 4, 55, 83
7, 15480, Lyric_t, "will "
7, 15600, Note_on_c, 4, 55, 0
7, 15600, Note_on_c, 4, 54, 83
7, 15600, Lyric_t, "ev"
7, 15720, Note_on_c, 4, 54, 0
7, 15720, Note_on_c, 4, 55, 83
7, 15720, Lyric_t, "er "
7, 15840, Note_on_c, 4, 55, 0
7, 15840, Note_on_c, 4, 57, 83
7, 15840, Lyric_t, "find "
7, 16128, Lyric_t, "\015"
7, 16320, Note_on_c, 4, 57, 0
7, 16320, Note_on_c, 4, 50, 83
7, 16320, Lyric_t, "Take "
7, 16440, Note_on_c, 4, 50, 0
7, 16440, Note_on_c, 4, 59, 83
7, 16440, Lyric_t, "my "
7, 16560, Note_on_c, 4, 59, 0
7, 16560, Note_on_c, 4, 59, 83
7, 16560, Lyric_t, "heart "
7, 16740, Note_on_c, 4, 59, 0
7, 16740, Note_on_c, 4, 60, 83
7, 16740, Lyric_t, "and "
7, 16800, Note_on_c, 4, 60, 0
7, 16800, Note_on_c, 4, 59, 83
7, 16800, Lyric_t, "please "
7, 16920, Note_on_c, 4, 59, 0
7, 16920, Note_on_c, 4, 57, 83
7, 16920, Lyric_t, "be "
7, 17040, Note_on_c, 4, 57, 0
7, 17040, Note_on_c, 4, 57, 83
7, 17040, Lyric_t, "fair "
7, 17184, Lyric_t, "\015"
7, 17280, Note_on_c, 4, 57, 0
7, 17280, Note_on_c, 4, 50, 83
7, 17280, Lyric_t, "Han"
7, 17400, Note_on_c, 4, 50, 0
7, 17400, Note_on_c, 4, 57, 83
7, 17400, Lyric_t, "dle "
7, 17520, Note_on_c, 4, 57, 0
7, 17520, Note_on_c, 4, 57, 83
7, 17520, Lyric_t, "it "
7, 17700, Note_on_c, 4, 57, 0
7, 17700, Note_on_c, 4, 59, 83
7, 17700, Lyric_t, "with "
7, 17760, Note_on_c, 4, 59, 0
7, 17760, Note_on_c, 4, 57, 83
7, 17760, Lyric_t, "lo"
7, 17880, Note_on_c, 4, 57, 0
7, 17880, Note_on_c, 4, 55, 83
7, 17880, Lyric_t, "ving "
7, 18000, Note_on_c, 4, 55, 0
7, 18000, Note_on_c, 4, 55, 83
7, 18000, Lyric_t, "care "
7, 18144, Lyric_t, "\015"
7, 18240, Note_on_c, 4, 55, 0
7, 18240, Note_on_c, 4, 52, 83
7, 18240, Lyric_t, "For "
7, 18360, Note_on_c, 4, 52, 0
7, 18360, Note_on_c, 4, 55, 83
7, 18360, Lyric_t, "I'm "
7, 18480, Note_on_c, 4, 55, 0
7, 18480, Note_on_c, 4, 60, 83
7, 18480, Lyric_t, "just "
7, 18660, Note_on_c, 4, 60, 0
7, 18660, Note_on_c, 4, 52, 83
7, 18660, Lyric_t, "a "
7, 18720, Note_on_c, 4, 52, 0
7, 18720, Note_on_c, 4, 50, 83
7, 18720, Lyric_t, "pup"
7, 18810, Note_on_c, 4, 50, 0
7, 18810, Note_on_c, 4, 50, 83
7, 18810, Lyric_t, "pet "
7, 18840, Note_on_c, 4, 50, 0
7, 18840, Note_on_c, 4, 55, 83
7, 18840, Lyric_t, "on "
7, 18930, Note_on_c, 4, 55, 0
7, 18930, Note_on_c, 4, 55, 83
7, 18930, Lyric_t, "a "
7, 18960, Note_on_c, 4, 55, 0
7, 18960, Note_on_c, 4, 59, 83
7, 18960, Lyric_t, "string "
7, 19068, Lyric_t, "\015"
7, 19140, Note_on_c, 4, 59, 0
7, 19140, Note_on_c, 4, 50, 83
7, 19140, Lyric_t, "And "
7, 19200, Note_on_c, 4, 50, 0
7, 19200, Note_on_c, 4, 48, 83
7, 19200, Lyric_t, "you "
7, 19320, Note_on_c, 4, 48, 0
7, 19320, Note_on_c, 4, 52, 83
7, 19320, Lyric_t, "can "
7, 19440, Note_on_c, 4, 52, 0
7, 19440, Note_on_c, 4, 57, 83
7, 19440, Lyric_t, "do  "
7, 19512, Lyric_t, "\015"
7, 19560, Note_on_c, 4, 57, 0
7, 19560, Note_on_c, 4, 59, 83
7, 19560, Lyric_t, "'most "
7, 19680, Note_on_c, 4, 59, 0
7, 19680, Note_on_c, 4, 60, 83
7, 19680, Lyric_t, "an"
7, 19800, Note_on_c, 4, 60, 0
7, 19800, Note_on_c, 4, 57, 83
7, 19800, Lyric_t, "y"
7, 19920, Note_on_c, 4, 57, 0
7, 19920, Note_on_c, 4, 55, 83
7, 19920, Lyric_t, "thing "
7, 20040, Note_on_c, 4, 55, 0
7, 20040, Note_on_c, 4, 54, 83
7, 20040, Lyric_t, "with "
7, 20160, Note_on_c, 4, 54, 0
7, 20160, Note_on_c, 4, 55, 83
7, 20160, Lyric_t, "me "
7, 20640, Note_on_c, 4, 55, 0
7, 20736, Lyric_t, "\015"
7, 21120, Note_on_c, 4, 50, 83
7, 21120, Lyric_t, "Ev'"
7, 21240, Note_on_c, 4, 50, 0
7, 21240, Note_on_c, 4, 59, 83
7, 21240, Lyric_t, "ry "
7, 21360, Note_on_c, 4, 59, 0
7, 21360, Note_on_c, 4, 59, 83
7, 21360, Lyric_t, "time "
7, 21540, Note_on_c, 4, 59, 0
7, 21540, Note_on_c, 4, 60, 83
7, 21540, Lyric_t, "you "
7, 21600, Note_on_c, 4, 60, 0
7, 21600, Note_on_c, 4, 59, 83
7, 21600, Lyric_t, "look "
7, 21720, Note_on_c, 4, 59, 0
7, 21720, Note_on_c, 4, 57, 83
7, 21720, Lyric_t, "at "
7, 21840, Note_on_c, 4, 57, 0
7, 21840, Note_on_c, 4, 57, 83
7, 21840, Lyric_t, "me "
7, 21984, Lyric_t, "\015"
7, 22080, Note_on_c, 4, 57, 0
7, 22080, Note_on_c, 4, 50, 83
7, 22080, Lyric_t, "I'm "
7, 22200, Note_on_c, 4, 50, 0
7, 22200, Note_on_c, 4, 57, 83
7, 22200, Lyric_t, "as "
7, 22320, Note_on_c, 4, 57, 0
7, 22320, Note_on_c, 4, 57, 83
7, 22320, Lyric_t, "help"
7, 22500, Note_on_c, 4, 57, 0
7, 22500, Note_on_c, 4, 59, 83
7, 22500, Lyric_t, "less "
7, 22560, Note_on_c, 4, 59, 0
7, 22560, Note_on_c, 4, 57, 83
7, 22560, Lyric_t, "as "
7, 22680, Note_on_c, 4, 57, 0
7, 22680, Note_on_c, 4, 55, 83
7, 22680, Lyric_t, "can "
7, 22800, Note_on_c, 4, 55, 0
7, 22800, Note_on_c, 4, 55, 83
7, 22800, Lyric_t, "be "
7, 22944, Lyric_t, "\015"
7, 23040, Note_on_c, 4, 55, 0
7, 23040, Note_on_c, 4, 52, 83
7, 23040, Lyric_t, "I "
7, 23160, Note_on_c, 4, 52, 0
7, 23160, Note_on_c, 4, 55, 83
7, 23160, Lyric_t, "be"
7, 23280, Note_on_c, 4, 55, 0
7, 23280, Note_on_c, 4, 60, 83
7, 23280, Lyric_t, "come "
7, 23460, Note_on_c, 4, 60, 0
7, 23460, Note_on_c, 4, 52, 83
7, 23460, Lyric_t, "a "
7, 23520, Note_on_c, 4, 52, 0
7, 23520, Note_on_c, 4, 50, 83
7, 23520, Lyric_t, "pup"
7, 23610, Note_on_c, 4, 50, 0
7, 23610, Note_on_c, 4, 50, 83
7, 23610, Lyric_t, "pet "
7, 23640, Note_on_c, 4, 50, 0
7, 23640, Note_on_c, 4, 55, 83
7, 23640, Lyric_t, "on "
7, 23730, Note_on_c, 4, 55, 0
7, 23730, Note_on_c, 4, 55, 83
7, 23730, Lyric_t, "a "
7, 23760, Note_on_c, 4, 55, 0
7, 23760, Note_on_c, 4, 59, 83
7, 23760, Lyric_t, "string "
7, 23868, Lyric_t, "\015"
7, 23940, Note_on_c, 4, 59, 0
7, 23940, Note_on_c, 4, 50, 83
7, 23940, Lyric_t, "And "
7, 24000, Note_on_c, 4, 50, 0
7, 24000, Note_on_c, 4, 48, 83
7, 24000, Lyric_t, "you "
7, 24120, Note_on_c, 4, 48, 0
7, 24120, Note_on_c, 4, 52, 83
7, 24120, Lyric_t, "can "
7, 24240, Note_on_c, 4, 52, 0
7, 24240, Note_on_c, 4, 57, 83
7, 24240, Lyric_t, "do  "
7, 24312, Lyric_t, "\015"
7, 24360, Note_on_c, 4, 57, 0
7, 24360, Note_on_c, 4, 59, 83
7, 24360, Lyric_t, "'most "
7, 24480, Note_on_c, 4, 59, 0
7, 24480, Note_on_c, 4, 60, 83
7, 24480, Lyric_t, "an"
7, 24600, Note_on_c, 4, 60, 0
7, 24600, Note_on_c, 4, 57, 83
7, 24600, Lyric_t, "y"
7, 24720, Note_on_c, 4, 57, 0
7, 24720, Note_on_c, 4, 55, 83
7, 24720, Lyric_t, "thing "
7, 24840, Note_on_c, 4, 55, 0
7, 24840, Note_on_c, 4, 54, 83
7, 24840, Lyric_t, "with "
7, 24960, Note_on_c, 4, 54, 0
7, 24960, Note_on_c, 4, 55, 83
7, 24960, Lyric_t, "me "
7, 25440, Note_on_c, 4, 55, 0
7, 25560, Lyric_t, "\015"
7, 26040, Note_on_c, 4, 52, 83
7, 26040, Lyric_t, "If "
7, 26100, Note_on_c, 4, 52, 0
7, 26100, Note_on_c, 4, 52, 83
7, 26100, Lyric_t, "you "
7, 26160, Note_on_c, 4, 52, 0
7, 26160, Note_on_c, 4, 54, 83
7, 26160, Lyric_t, "real"
7, 26340, Note_on_c, 4, 54, 0
7, 26340, Note_on_c, 4, 57, 83
7, 26340, Lyric_t, "ly "
7, 26400, Note_on_c, 4, 57, 0
7, 26400, Note_on_c, 4, 55, 83
7, 26400, Lyric_t, "love "
7, 26520, Note_on_c, 4, 55, 0
7, 26520, Note_on_c, 4, 50, 83
7, 26520, Lyric_t, "me "
7, 26808, Lyric_t, "\015"
7, 26880, Note_on_c, 4, 50, 0
7, 27000, Note_on_c, 4, 52, 83
7, 27000, Lyric_t, "dar"
7, 27060, Note_on_c, 4, 52, 0
7, 27060, Note_on_c, 4, 52, 83
7, 27060, Lyric_t, "ling "
7, 27120, Note_on_c, 4, 52, 0
7, 27120, Note_on_c, 4, 54, 83
7, 27120, Lyric_t, "please "
7, 27300, Note_on_c, 4, 54, 0
7, 27300, Note_on_c, 4, 57, 83
7, 27300, Lyric_t, "be "
7, 27360, Note_on_c, 4, 57, 0
7, 27360, Note_on_c, 4, 50, 83
7, 27360, Lyric_t, "kind "
7, 27612, Lyric_t, "\015"
7, 27720, Note_on_c, 4, 50, 0
7, 27780, Note_on_c, 4, 50, 83
7, 27780, Lyric_t, "I "
7, 27840, Note_on_c, 4, 50, 0
7, 27840, Note_on_c, 4, 52, 83
7, 27840, Lyric_t, "of"
7, 27960, Note_on_c, 4, 52, 0
7, 27960, Note_on_c, 4, 52, 83
7, 27960, Lyric_t, "fer "
7, 28080, Note_on_c, 4, 52, 0
7, 28080, Note_on_c, 4, 54, 83
7, 28080, Lyric_t, "you "
7, 28260, Note_on_c, 4, 54, 0
7, 28260, Note_on_c, 4, 57, 83
7, 28260, Lyric_t, "the "
7, 28320, Note_on_c, 4, 57, 0
7, 28320, Note_on_c, 4, 62, 83
7, 28320, Lyric_t, "tru"
7, 28440, Note_on_c, 4, 62, 0
7, 28440, Note_on_c, 4, 59, 83
7, 28440, Lyric_t, "est "
7, 28560, Note_on_c, 4, 59, 0
7, 28560, Note_on_c, 4, 57, 83
7, 28572, Note_on_c, 4, 57, 0
7, 28572, Note_on_c, 4, 55, 83
7, 28572, Lyric_t, "love "
7, 28673, Lyric_t, "\015"
7, 28740, Note_on_c, 4, 55, 0
7, 28740, Note_on_c, 4, 52, 83
7, 28740, Lyric_t, "That "
7, 28800, Note_on_c, 4, 52, 0
7, 28800, Note_on_c, 4, 59, 83
7, 28800, Lyric_t, "you "
7, 28920, Note_on_c, 4, 59, 0
7, 28920, Note_on_c, 4, 55, 83
7, 28920, Lyric_t, "will "
7, 29040, Note_on_c, 4, 55, 0
7, 29040, Note_on_c, 4, 54, 83
7, 29040, Lyric_t, "ev"
7, 29160, Note_on_c, 4, 54, 0
7, 29160, Note_on_c, 4, 55, 83
7, 29160, Lyric_t, "er "
7, 29280, Note_on_c, 4, 55, 0
7, 29280, Note_on_c, 4, 57, 83
7, 29280, Lyric_t, "find "
7, 29568, Lyric_t, "\015"
7, 29760, Note_on_c, 4, 57, 0
7, 29760, Note_on_c, 4, 50, 83
7, 29760, Lyric_t, "Take "
7, 29880, Note_on_c, 4, 50, 0
7, 29880, Note_on_c, 4, 59, 83
7, 29880, Lyric_t, "my "
7, 30000, Note_on_c, 4, 59, 0
7, 30000, Note_on_c, 4, 59, 83
7, 30000, Lyric_t, "heart "
7, 30180, Note_on_c, 4, 59, 0
7, 30180, Note_on_c, 4, 60, 83
7, 30180, Lyric_t, "and "
7, 30240, Note_on_c, 4, 60, 0
7, 30240, Note_on_c, 4, 59, 83
7, 30240, Lyric_t, "please "
7, 30360, Note_on_c, 4, 59, 0
7, 30360, Note_on_c, 4, 57, 83
7, 30360, Lyric_t, "be "
7, 30480, Note_on_c, 4, 57, 0
7, 30480, Note_on_c, 4, 57, 83
7, 30480, Lyric_t, "fair "
7, 30624, Lyric_t, "\015"
7, 30720, Note_on_c, 4, 57, 0
7, 30720, Note_on_c, 4, 50, 83
7, 30720, Lyric_t, "Han"
7, 30840, Note_on_c, 4, 50, 0
7, 30840, Note_on_c, 4, 57, 83
7, 30840, Lyric_t, "dle "
7, 30960, Note_on_c, 4, 57, 0
7, 30960, Note_on_c, 4, 57, 83
7, 30960, Lyric_t, "it "
7, 31140, Note_on_c, 4, 57, 0
7, 31140, Note_on_c, 4, 59, 83
7, 31140, Lyric_t, "with "
7, 31200, Note_on_c, 4, 59, 0
7, 31200, Note_on_c, 4, 57, 83
7, 31200, Lyric_t, "lo"
7, 31320, Note_on_c, 4, 57, 0
7, 31320, Note_on_c, 4, 55, 83
7, 31320, Lyric_t, "ving "
7, 31440, Note_on_c, 4, 55, 0
7, 31440, Note_on_c, 4, 55, 83
7, 31440, Lyric_t, "care "
7, 31584, Lyric_t, "\015"
7, 31680, Note_on_c, 4, 55, 0
7, 31680, Note_on_c, 4, 52, 83
7, 31680, Lyric_t, "For "
7, 31800, Note_on_c, 4, 52, 0
7, 31800, Note_on_c, 4, 55, 83
7, 31800, Lyric_t, "I'm "
7, 31920, Note_on_c, 4, 55, 0
7, 31920, Note_on_c, 4, 60, 83
7, 31920, Lyric_t, "just "
7, 32100, Note_on_c, 4, 60, 0
7, 32100, Note_on_c, 4, 52, 83
7, 32100, Lyric_t, "a "
7, 32160, Note_on_c, 4, 52, 0
7, 32160, Note_on_c, 4, 50, 83
7, 32160, Lyric_t, "pup"
7, 32250, Note_on_c, 4, 50, 0
7, 32250, Note_on_c, 4, 50, 83
7, 32250, Lyric_t, "pet "
7, 32280, Note_on_c, 4, 50, 0
7, 32280, Note_on_c, 4, 55, 83
7, 32280, Lyric_t, "on "
7, 32370, Note_on_c, 4, 55, 0
7, 32370, Note_on_c, 4, 55, 83
7, 32370, Lyric_t, "a "
7, 32400, Note_on_c, 4, 55, 0
7, 32400, Note_on_c, 4, 59, 83
7, 32400, Lyric_t, "string "
7, 32508, Lyric_t, "\015"
7, 32580, Note_on_c, 4, 59, 0
7, 32580, Note_on_c, 4, 50, 83
7, 32580, Lyric_t, "And "
7, 32640, Note_on_c, 4, 50, 0
7, 32640, Note_on_c, 4, 48, 83
7, 32640, Lyric_t, "you "
7, 32760, Note_on_c, 4, 48, 0
7, 32760, Note_on_c, 4, 52, 83
7, 32760, Lyric_t, "can "
7, 32880, Note_on_c, 4, 52, 0
7, 32880, Note_on_c, 4, 57, 83
7, 32880, Lyric_t, "do  "
7, 32952, Lyric_t, "\015"
7, 33000, Note_on_c, 4, 57, 0
7, 33000, Note_on_c, 4, 59, 83
7, 33000, Lyric_t, "'most "
7, 33120, Note_on_c, 4, 59, 0
7, 33120, Note_on_c, 4, 60, 83
7, 33120, Lyric_t, "an"
7, 33240, Note_on_c, 4, 60, 0
7, 33240, Note_on_c, 4, 57, 83
7, 33240, Lyric_t, "y"
7, 33360, Note_on_c, 4, 57, 0
7, 33360, Note_on_c, 4, 55, 83
7, 33360, Lyric_t, "thing "
7, 33480, Note_on_c, 4, 55, 0
7, 33480, Note_on_c, 4, 54, 83
7, 33480, Lyric_t, "with "
7, 33600, Note_on_c, 4, 54, 0
7, 33600, Note_on_c, 4, 55, 83
7, 33600, Lyric_t, "me "
7, 34104, Lyric_t, "\015"
7, 34272, Lyric_t, "\012"
7, 34440, Note_on_c, 4, 55, 0
7, 34440, End_track
8, 0, Start_track
8, 0, Title_t, "Melody 2"
8, 0, Control_c, 5, 121, 0
8, 0, Control_c, 5, 123, 0
8, 0, Control_c, 5, 1, 5
8, 0, Control_c, 5, 91, 40
8, 0, Control_c, 5, 93, 40
8, 147, Program_c, 5, 50
8, 148, Control_c, 5, 7, 80
8, 148, Control_c, 5, 10, 49
8, 2880, Note_on_c, 5, 50, 73
8, 3000, Note_on_c, 5, 50, 0
8, 3000, Note_on_c, 5, 59, 73
8, 3120, Note_on_c, 5, 59, 0
8, 3120, Note_on_c, 5, 59, 73
8, 3300, Note_on_c, 5, 59, 0
8, 3300, Note_on_c, 5, 60, 73
8, 3360, Note_on_c, 5, 60, 0
8, 3360, Note_on_c, 5, 59, 73
8, 3480, Note_on_c, 5, 59, 0
8, 3480, Note_on_c, 5, 57, 73
8, 3600, Note_on_c, 5, 57, 0
8, 3600, Note_on_c, 5, 57, 73
8, 3840, Note_on_c, 5, 57, 0
8, 3840, Note_on_c, 5, 50, 73
8, 3960, Note_on_c, 5, 50, 0
8, 3960, Note_on_c, 5, 57, 73
8, 4080, Note_on_c, 5, 57, 0
8, 4080, Note_on_c, 5, 57, 73
8, 4260, Note_on_c, 5, 57, 0
8, 4260, Note_on_c, 5, 59, 73
8, 4320, Note_on_c, 5, 59, 0
8, 4320, Note_on_c, 5, 57, 73
8, 4440, Note_on_c, 5, 57, 0
8, 4440, Note_on_c, 5, 55, 73
8, 4560, Note_on_c, 5, 55, 0
8, 4560, Note_on_c, 5, 55, 73
8, 4800, Note_on_c, 5, 55, 0
8, 4800, Note_on_c, 5, 43, 73
8, 4800, Note_on_c, 5, 48, 73
8, 4800, Note_on_c, 5, 52, 73
8, 4920, Note_on_c, 5, 52, 0
8, 4920, Note_on_c, 5, 48, 0
8, 4920, Note_on_c, 5, 43, 0
8, 4920, Note_on_c, 5, 48, 73
8, 4920, Note_on_c, 5, 52, 73
8, 4920, Note_on_c, 5, 55, 73
8, 5040, Note_on_c, 5, 55, 0
8, 5040, Note_on_c, 5, 52, 0
8, 5040, Note_on_c, 5, 48, 0
8, 5040, Note_on_c, 5, 60, 73
8, 5220, Note_on_c, 5, 60, 0
8, 5220, Note_on_c, 5, 52, 73
8, 5280, Note_on_c, 5, 52, 0
8, 5280, Note_on_c, 5, 50, 73
8, 5370, Note_on_c, 5, 50, 0
8, 5370, Note_on_c, 5, 50, 73
8, 5400, Note_on_c, 5, 50, 0
8, 5400, Note_on_c, 5, 55, 73
8, 5490, Note_on_c, 5, 55, 0
8, 5490, Note_on_c, 5, 55, 73
8, 5520, Note_on_c, 5, 55, 0
8, 5520, Note_on_c, 5, 59, 73
8, 5700, Note_on_c, 5, 59, 0
8, 5700, Note_on_c, 5, 50, 73
8, 5760, Note_on_c, 5, 50, 0
8, 5760, Note_on_c, 5, 48, 73
8, 5880, Note_on_c, 5, 48, 0
8, 5880, Note_on_c, 5, 52, 73
8, 6000, Note_on_c, 5, 52, 0
8, 6000, Note_on_c, 5, 57, 73
8, 6120, Note_on_c, 5, 57, 0
8, 6120, Note_on_c, 5, 59, 73
8, 6240, Note_on_c, 5, 59, 0
8, 6240, Note_on_c, 5, 60, 73
8, 6360, Note_on_c, 5, 60, 0
8, 6360, Note_on_c, 5, 57, 73
8, 6480, Note_on_c, 5, 57, 0
8, 6480, Note_on_c, 5, 55, 73
8, 6600, Note_on_c, 5, 55, 0
8, 6600, Note_on_c, 5, 54, 73
8, 6720, Note_on_c, 5, 54, 0
8, 7680, Note_on_c, 5, 50, 73
8, 7800, Note_on_c, 5, 50, 0
8, 7800, Note_on_c, 5, 59, 73
8, 7920, Note_on_c, 5, 59, 0
8, 7920, Note_on_c, 5, 59, 73
8, 8100, Note_on_c, 5, 59, 0
8, 8100, Note_on_c, 5, 60, 73
8, 8160, Note_on_c, 5, 60, 0
8, 8160, Note_on_c, 5, 59, 73
8, 8280, Note_on_c, 5, 59, 0
8, 8280, Note_on_c, 5, 57, 73
8, 8400, Note_on_c, 5, 57, 0
8, 8400, Note_on_c, 5, 57, 73
8, 8640, Note_on_c, 5, 57, 0
8, 8640, Note_on_c, 5, 50, 73
8, 8760, Note_on_c, 5, 50, 0
8, 8760, Note_on_c, 5, 57, 73
8, 8880, Note_on_c, 5, 57, 0
8, 8880, Note_on_c, 5, 57, 73
8, 9060, Note_on_c, 5, 57, 0
8, 9060, Note_on_c, 5, 59, 73
8, 9120, Note_on_c, 5, 59, 0
8, 9120, Note_on_c, 5, 57, 73
8, 9240, Note_on_c, 5, 57, 0
8, 9240, Note_on_c, 5, 55, 73
8, 9360, Note_on_c, 5, 55, 0
8, 9360, Note_on_c, 5, 55, 73
8, 9600, Note_on_c, 5, 55, 0
8, 9600, Note_on_c, 5, 43, 73
8, 9600, Note_on_c, 5, 52, 73
8, 9600, Note_on_c, 5, 48, 73
8, 9720, Note_on_c, 5, 48, 0
8, 9720, Note_on_c, 5, 52, 0
8, 9720, Note_on_c, 5, 43, 0
8, 9720, Note_on_c, 5, 55, 73
8, 9720, Note_on_c, 5, 52, 73
8, 9720, Note_on_c, 5, 48, 73
8, 9840, Note_on_c, 5, 48, 0
8, 9840, Note_on_c, 5, 52, 0
8, 9840, Note_on_c, 5, 55, 0
8, 9840, Note_on_c, 5, 60, 73
8, 10020, Note_on_c, 5, 60, 0
8, 10020, Note_on_c, 5, 52, 73
8, 10080, Note_on_c, 5, 52, 0
8, 10080, Note_on_c, 5, 50, 73
8, 10170, Note_on_c, 5, 50, 0
8, 10170, Note_on_c, 5, 50, 73
8, 10200, Note_on_c, 5, 50, 0
8, 10200, Note_on_c, 5, 55, 73
8, 10290, Note_on_c, 5, 55, 0
8, 10290, Note_on_c, 5, 55, 73
8, 10320, Note_on_c, 5, 55, 0
8, 10320, Note_on_c, 5, 59, 73
8, 10500, Note_on_c, 5, 59, 0
8, 10500, Note_on_c, 5, 50, 73
8, 10560, Note_on_c, 5, 50, 0
8, 10560, Note_on_c, 5, 48, 73
8, 10680, Note_on_c, 5, 48, 0
8, 10680, Note_on_c, 5, 52, 73
8, 10800, Note_on_c, 5, 52, 0
8, 10800, Note_on_c, 5, 57, 73
8, 10920, Note_on_c, 5, 57, 0
8, 10920, Note_on_c, 5, 59, 73
8, 11040, Note_on_c, 5, 59, 0
8, 11040, Note_on_c, 5, 60, 73
8, 11160, Note_on_c, 5, 60, 0
8, 11160, Note_on_c, 5, 57, 73
8, 11280, Note_on_c, 5, 57, 0
8, 11280, Note_on_c, 5, 55, 73
8, 11400, Note_on_c, 5, 55, 0
8, 11400, Note_on_c, 5, 54, 73
8, 11520, Note_on_c, 5, 54, 0
8, 12600, Note_on_c, 5, 52, 73
8, 12660, Note_on_c, 5, 52, 0
8, 12660, Note_on_c, 5, 52, 73
8, 12720, Note_on_c, 5, 52, 0
8, 12720, Note_on_c, 5, 54, 73
8, 12900, Note_on_c, 5, 54, 0
8, 12900, Note_on_c, 5, 57, 73
8, 12960, Note_on_c, 5, 57, 0
8, 12960, Note_on_c, 5, 55, 73
8, 13080, Note_on_c, 5, 55, 0
8, 13080, Note_on_c, 5, 50, 73
8, 13440, Note_on_c, 5, 50, 0
8, 13560, Note_on_c, 5, 52, 73
8, 13620, Note_on_c, 5, 52, 0
8, 13620, Note_on_c, 5, 52, 73
8, 13680, Note_on_c, 5, 52, 0
8, 13680, Note_on_c, 5, 54, 73
8, 13860, Note_on_c, 5, 54, 0
8, 13860, Note_on_c, 5, 57, 73
8, 13920, Note_on_c, 5, 57, 0
8, 13920, Note_on_c, 5, 50, 73
8, 14280, Note_on_c, 5, 50, 0
8, 14340, Note_on_c, 5, 50, 73
8, 14400, Note_on_c, 5, 50, 0
8, 14400, Note_on_c, 5, 52, 73
8, 14520, Note_on_c, 5, 52, 0
8, 14520, Note_on_c, 5, 52, 73
8, 14640, Note_on_c, 5, 52, 0
8, 14640, Note_on_c, 5, 54, 73
8, 14820, Note_on_c, 5, 54, 0
8, 14820, Note_on_c, 5, 57, 73
8, 14880, Note_on_c, 5, 57, 0
8, 14880, Note_on_c, 5, 62, 73
8, 15000, Note_on_c, 5, 62, 0
8, 15000, Note_on_c, 5, 59, 73
8, 15120, Note_on_c, 5, 59, 0
8, 15120, Note_on_c, 5, 57, 73
8, 15132, Note_on_c, 5, 57, 0
8, 15132, Note_on_c, 5, 55, 73
8, 15300, Note_on_c, 5, 55, 0
8, 15300, Note_on_c, 5, 52, 73
8, 15360, Note_on_c, 5, 52, 0
8, 15360, Note_on_c, 5, 55, 73
8, 15360, Note_on_c, 5, 59, 73
8, 15480, Note_on_c, 5, 59, 0
8, 15480, Note_on_c, 5, 55, 0
8, 15480, Note_on_c, 5, 55, 73
8, 15600, Note_on_c, 5, 55, 0
8, 15600, Note_on_c, 5, 54, 73
8, 15720, Note_on_c, 5, 54, 0
8, 15720, Note_on_c, 5, 55, 73
8, 15840, Note_on_c, 5, 55, 0
8, 15840, Note_on_c, 5, 54, 73
8, 15840, Note_on_c, 5, 57, 73
8, 16320, Note_on_c, 5, 57, 0
8, 16320, Note_on_c, 5, 54, 0
8, 16320, Note_on_c, 5, 50, 73
8, 16440, Note_on_c, 5, 50, 0
8, 16440, Note_on_c, 5, 59, 73
8, 16560, Note_on_c, 5, 59, 0
8, 16560, Note_on_c, 5, 59, 73
8, 16740, Note_on_c, 5, 59, 0
8, 16740, Note_on_c, 5, 60, 73
8, 16800, Note_on_c, 5, 60, 0
8, 16800, Note_on_c, 5, 59, 73
8, 16920, Note_on_c, 5, 59, 0
8, 16920, Note_on_c, 5, 57, 73
8, 17040, Note_on_c, 5, 57, 0
8, 17040, Note_on_c, 5, 57, 73
8, 17280, Note_on_c, 5, 57, 0
8, 17280, Note_on_c, 5, 50, 73
8, 17400, Note_on_c, 5, 50, 0
8, 17400, Note_on_c, 5, 57, 73
8, 17520, Note_on_c, 5, 57, 0
8, 17520, Note_on_c, 5, 57, 73
8, 17700, Note_on_c, 5, 57, 0
8, 17700, Note_on_c, 5, 59, 73
8, 17760, Note_on_c, 5, 59, 0
8, 17760, Note_on_c, 5, 57, 73
8, 17880, Note_on_c, 5, 57, 0
8, 17880, Note_on_c, 5, 55, 73
8, 18000, Note_on_c, 5, 55, 0
8, 18000, Note_on_c, 5, 55, 73
8, 18240, Note_on_c, 5, 55, 0
8, 18240, Note_on_c, 5, 43, 73
8, 18240, Note_on_c, 5, 48, 73
8, 18240, Note_on_c, 5, 52, 73
8, 18360, Note_on_c, 5, 52, 0
8, 18360, Note_on_c, 5, 48, 0
8, 18360, Note_on_c, 5, 43, 0
8, 18360, Note_on_c, 5, 48, 73
8, 18360, Note_on_c, 5, 52, 73
8, 18360, Note_on_c, 5, 55, 73
8, 18480, Note_on_c, 5, 55, 0
8, 18480, Note_on_c, 5, 52, 0
8, 18480, Note_on_c, 5, 48, 0
8, 18480, Note_on_c, 5, 60, 73
8, 18660, Note_on_c, 5, 60, 0
8, 18660, Note_on_c, 5, 52, 73
8, 18720, Note_on_c, 5, 52, 0
8, 18720, Note_on_c, 5, 50, 73
8, 18810, Note_on_c, 5, 50, 0
8, 18810, Note_on_c, 5, 50, 73
8, 18840, Note_on_c, 5, 50, 0
8, 18840, Note_on_c, 5, 55, 73
8, 18930, Note_on_c, 5, 55, 0
8, 18930, Note_on_c, 5, 55, 73
8, 18960, Note_on_c, 5, 55, 0
8, 18960, Note_on_c, 5, 59, 73
8, 19140, Note_on_c, 5, 59, 0
8, 19140, Note_on_c, 5, 50, 73
8, 19200, Note_on_c, 5, 50, 0
8, 19200, Note_on_c, 5, 48, 73
8, 19320, Note_on_c, 5, 48, 0
8, 19320, Note_on_c, 5, 52, 73
8, 19440, Note_on_c, 5, 52, 0
8, 19440, Note_on_c, 5, 57, 73
8, 19560, Note_on_c, 5, 57, 0
8, 19560, Note_on_c, 5, 59, 73
8, 19680, Note_on_c, 5, 59, 0
8, 19680, Note_on_c, 5, 60, 73
8, 19800, Note_on_c, 5, 60, 0
8, 19800, Note_on_c, 5, 57, 73
8, 19920, Note_on_c, 5, 57, 0
8, 19920, Note_on_c, 5, 55, 73
8, 20040, Note_on_c, 5, 55, 0
8, 20040, Note_on_c, 5, 54, 73
8, 20160, Note_on_c, 5, 54, 0
8, 21120, Note_on_c, 5, 50, 73
8, 21240, Note_on_c, 5, 50, 0
8, 21240, Note_on_c, 5, 59, 73
8, 21360, Note_on_c, 5, 59, 0
8, 21360, Note_on_c, 5, 59, 73
8, 21540, Note_on_c, 5, 59, 0
8, 21540, Note_on_c, 5, 60, 73
8, 21600, Note_on_c, 5, 60, 0
8, 21600, Note_on_c, 5, 59, 73
8, 21720, Note_on_c, 5, 59, 0
8, 21720, Note_on_c, 5, 57, 73
8, 21840, Note_on_c, 5, 57, 0
8, 21840, Note_on_c, 5, 57, 73
8, 22080, Note_on_c, 5, 57, 0
8, 22080, Note_on_c, 5, 50, 73
8, 22200, Note_on_c, 5, 50, 0
8, 22200, Note_on_c, 5, 57, 73
8, 22320, Note_on_c, 5, 57, 0
8, 22320, Note_on_c, 5, 57, 73
8, 22500, Note_on_c, 5, 57, 0
8, 22500, Note_on_c, 5, 59, 73
8, 22560, Note_on_c, 5, 59, 0
8, 22560, Note_on_c, 5, 57, 73
8, 22680, Note_on_c, 5, 57, 0
8, 22680, Note_on_c, 5, 55, 73
8, 22800, Note_on_c, 5, 55, 0
8, 22800, Note_on_c, 5, 55, 73
8, 23040, Note_on_c, 5, 55, 0
8, 23040, Note_on_c, 5, 43, 73
8, 23040, Note_on_c, 5, 52, 73
8, 23040, Note_on_c, 5, 48, 73
8, 23160, Note_on_c, 5, 48, 0
8, 23160, Note_on_c, 5, 52, 0
8, 23160, Note_on_c, 5, 43, 0
8, 23160, Note_on_c, 5, 55, 73
8, 23160, Note_on_c, 5, 52, 73
8, 23160, Note_on_c, 5, 48, 73
8, 23280, Note_on_c, 5, 48, 0
8, 23280, Note_on_c, 5, 52, 0
8, 23280, Note_on_c, 5, 55, 0
8, 23280, Note_on_c, 5, 60, 73
8, 23460, Note_on_c, 5, 60, 0
8, 23460, Note_on_c, 5, 52, 73
8, 23520, Note_on_c, 5, 52, 0
8, 23520, Note_on_c, 5, 50, 73
8, 23610, Note_on_c, 5, 50, 0
8, 23610, Note_on_c, 5, 50, 73
8, 23640, Note_on_c, 5, 50, 0
8, 23640, Note_on_c, 5, 55, 73
8, 23730, Note_on_c, 5, 55, 0
8, 23730, Note_on_c, 5, 55, 73
8, 23760, Note_on_c, 5, 55, 0
8, 23760, Note_on_c, 5, 59, 73
8, 23940, Note_on_c, 5, 59, 0
8, 23940, Note_on_c, 5, 50, 73
8, 24000, Note_on_c, 5, 50, 0
8, 24000, Note_on_c, 5, 48, 73
8, 24120, Note_on_c, 5, 48, 0
8, 24120, Note_on_c, 5, 52, 73
8, 24240, Note_on_c, 5, 52, 0
8, 24240, Note_on_c, 5, 57, 73
8, 24360, Note_on_c, 5, 57, 0
8, 24360, Note_on_c, 5, 59, 73
8, 24480, Note_on_c, 5, 59, 0
8, 24480, Note_on_c, 5, 60, 73
8, 24600, Note_on_c, 5, 60, 0
8, 24600, Note_on_c, 5, 57, 73
8, 24720, Note_on_c, 5, 57, 0
8, 24720, Note_on_c, 5, 55, 73
8, 24840, Note_on_c, 5, 55, 0
8, 24840, Note_on_c, 5, 54, 73
8, 24960, Note_on_c, 5, 54, 0
8, 26040, Note_on_c, 5, 52, 73
8, 26100, Note_on_c, 5, 52, 0
8, 26100, Note_on_c, 5, 52, 73
8, 26160, Note_on_c, 5, 52, 0
8, 26160, Note_on_c, 5, 54, 73
8, 26340, Note_on_c, 5, 54, 0
8, 26340, Note_on_c, 5, 57, 73
8, 26400, Note_on_c, 5, 57, 0
8, 26400, Note_on_c, 5, 55, 73
8, 26520, Note_on_c, 5, 55, 0
8, 26520, Note_on_c, 5, 50, 73
8, 26880, Note_on_c, 5, 50, 0
8, 27000, Note_on_c, 5, 52, 73
8, 27060, Note_on_c, 5, 52, 0
8, 27060, Note_on_c, 5, 52, 73
8, 27120, Note_on_c, 5, 52, 0
8, 27120, Note_on_c, 5, 54, 73
8, 27300, Note_on_c, 5, 54, 0
8, 27300, Note_on_c, 5, 57, 73
8, 27360, Note_on_c, 5, 57, 0
8, 27360, Note_on_c, 5, 50, 73
8, 27720, Note_on_c, 5, 50, 0
8, 27780, Note_on_c, 5, 50, 73
8, 27840, Note_on_c, 5, 50, 0
8, 27840, Note_on_c, 5, 52, 73
8, 27960, Note_on_c, 5, 52, 0
8, 27960, Note_on_c, 5, 52, 73
8, 28080, Note_on_c, 5, 52, 0
8, 28080, Note_on_c, 5, 54, 73
8, 28260, Note_on_c, 5, 54, 0
8, 28260, Note_on_c, 5, 57, 73
8, 28320, Note_on_c, 5, 57, 0
8, 28320, Note_on_c, 5, 62, 73
8, 28440, Note_on_c, 5, 62, 0
8, 28440, Note_on_c, 5, 59, 73
8, 28560, Note_on_c, 5, 59, 0
8, 28560, Note_on_c, 5, 57, 73
8, 28572, Note_on_c, 5, 57, 0
8, 28572, Note_on_c, 5, 55, 73
8, 28740, Note_on_c, 5, 55, 0
8, 28740, Note_on_c, 5, 52, 73
8, 28800, Note_on_c, 5, 52, 0
8, 28800, Note_on_c, 5, 55, 73
8, 28800, Note_on_c, 5, 59, 73
8, 28920, Note_on_c, 5, 59, 0
8, 28920, Note_on_c, 5, 55, 0
8, 28920, Note_on_c, 5, 55, 73
8, 29040, Note_on_c, 5, 55, 0
8, 29040, Note_on_c, 5, 54, 73
8, 29160, Note_on_c, 5, 54, 0
8, 29160, Note_on_c, 5, 55, 73
8, 29280, Note_on_c, 5, 55, 0
8, 29280, Note_on_c, 5, 54, 73
8, 29280, Note_on_c, 5, 57, 73
8, 29760, Note_on_c, 5, 57, 0
8, 29760, Note_on_c, 5, 54, 0
8, 29760, Note_on_c, 5, 50, 73
8, 29880, Note_on_c, 5, 50, 0
8, 29880, Note_on_c, 5, 59, 73
8, 30000, Note_on_c, 5, 59, 0
8, 30000, Note_on_c, 5, 59, 73
8, 30180, Note_on_c, 5, 59, 0
8, 30180, Note_on_c, 5, 60, 73
8, 30240, Note_on_c, 5, 60, 0
8, 30240, Note_on_c, 5, 59, 73
8, 30360, Note_on_c, 5, 59, 0
8, 30360, Note_on_c, 5, 57, 73
8, 30480, Note_on_c, 5, 57, 0
8, 30480, Note_on_c, 5, 57, 73
8, 30720, Note_on_c, 5, 57, 0
8, 30720, Note_on_c, 5, 50, 73
8, 30840, Note_on_c, 5, 50, 0
8, 30840, Note_on_c, 5, 57, 73
8, 30960, Note_on_c, 5, 57, 0
8, 30960, Note_on_c, 5, 57, 73
8, 31140, Note_on_c, 5, 57, 0
8, 31140, Note_on_c, 5, 59, 73
8, 31200, Note_on_c, 5, 59, 0
8, 31200, Note_on_c, 5, 57, 73
8, 31320, Note_on_c, 5, 57, 0
8, 31320, Note_on_c, 5, 55, 73
8, 31440, Note_on_c, 5, 55, 0
8, 31440, Note_on_c, 5, 55, 73
8, 31680, Note_on_c, 5, 55, 0
8, 31680, Note_on_c, 5, 43, 73
8, 31680, Note_on_c, 5, 48, 73
8, 31680, Note_on_c, 5, 52, 73
8, 31800, Note_on_c, 5, 52, 0
8, 31800, Note_on_c, 5, 48, 0
8, 31800, Note_on_c, 5, 43, 0
8, 31800, Note_on_c, 5, 48, 73
8, 31800, Note_on_c, 5, 52, 73
8, 31800, Note_on_c, 5, 55, 73
8, 31920, Note_on_c, 5, 55, 0
8, 31920, Note_on_c, 5, 52, 0
8, 31920, Note_on_c, 5, 48, 0
8, 31920, Note_on_c, 5, 60, 73
8, 32100, Note_on_c, 5, 60, 0
8, 32100, Note_on_c, 5, 52, 73
8, 32160, Note_on_c, 5, 52, 0
8, 32160, Note_on_c, 5, 50, 73
8, 32250, Note_on_c, 5, 50, 0
8, 32250, Note_on_c, 5, 50, 73
8, 32280, Note_on_c, 5, 50, 0
8, 32280, Note_on_c, 5, 55, 73
8, 32370, Note_on_c, 5, 55, 0
8, 32370, Note_on_c, 5, 55, 73
8, 32400, Note_on_c, 5, 55, 0
8, 32400, Note_on_c, 5, 59, 73
8, 32580, Note_on_c, 5, 59, 0
8, 32580, Note_on_c, 5, 50, 73
8, 32640, Note_on_c, 5, 50, 0
8, 32640, Note_on_c, 5, 48, 73
8, 32760, Note_on_c, 5, 48, 0
8, 32760, Note_on_c, 5, 52, 73
8, 32880, Note_on_c, 5, 52, 0
8, 32880, Note_on_c, 5, 57, 73
8, 33000, Note_on_c, 5, 57, 0
8, 33000, Note_on_c, 5, 59, 73
8, 33120, Note_on_c, 5, 59, 0
8, 33120, Note_on_c, 5, 60, 73
8, 33240, Note_on_c, 5, 60, 0
8, 33240, Note_on_c, 5, 57, 73
8, 33360, Note_on_c, 5, 57, 0
8, 33360, Note_on_c, 5, 55, 73
8, 33480, Note_on_c, 5, 55, 0
8, 33480, Note_on_c, 5, 54, 73
8, 33600, Note_on_c, 5, 54, 0
8, 33600, End_track
9, 0, Start_track
9, 0, Title_t, "Melody 3"
9, 0, Control_c, 6, 121, 0
9, 0, Control_c, 6, 123, 0
9, 0, Control_c, 6, 1, 5
9, 0, Control_c, 6, 91, 40
9, 0, Control_c, 6, 93, 40
9, 152, Program_c, 6, 25
9, 153, Control_c, 6, 7, 65
9, 153, Control_c, 6, 10, 39
9, 3000, Note_on_c, 6, 62, 72
9, 3000, Note_on_c, 6, 67, 72
9, 3120, Note_on_c, 6, 67, 0
9, 3120, Note_on_c, 6, 62, 0
9, 3240, Note_on_c, 6, 62, 72
9, 3240, Note_on_c, 6, 67, 72
9, 3360, Note_on_c, 6, 67, 0
9, 3360, Note_on_c, 6, 62, 0
9, 3480, Note_on_c, 6, 60, 72
9, 3480, Note_on_c, 6, 64, 72
9, 3600, Note_on_c, 6, 64, 0
9, 3600, Note_on_c, 6, 60, 0
9, 3720, Note_on_c, 6, 60, 72
9, 3720, Note_on_c, 6, 64, 72
9, 3840, Note_on_c, 6, 64, 0
9, 3840, Note_on_c, 6, 60, 0
9, 3960, Note_on_c, 6, 60, 72
9, 3960, Note_on_c, 6, 66, 72
9, 4080, Note_on_c, 6, 66, 0
9, 4080, Note_on_c, 6, 60, 0
9, 4200, Note_on_c, 6, 60, 72
9, 4200, Note_on_c, 6, 66, 72
9, 4320, Note_on_c, 6, 66, 0
9, 4320, Note_on_c, 6, 60, 0
9, 4440, Note_on_c, 6, 59, 72
9, 4440, Note_on_c, 6, 62, 72
9, 4560, Note_on_c, 6, 62, 0
9, 4560, Note_on_c, 6, 59, 0
9, 4680, Note_on_c, 6, 59, 72
9, 4680, Note_on_c, 6, 62, 72
9, 4800, Note_on_c, 6, 62, 0
9, 4800, Note_on_c, 6, 59, 0
9, 5040, Note_on_c, 6, 64, 72
9, 5040, Note_on_c, 6, 67, 72
9, 5160, Note_on_c, 6, 67, 0
9, 5160, Note_on_c, 6, 64, 0
9, 5400, Note_on_c, 6, 59, 72
9, 5400, Note_on_c, 6, 62, 72
9, 5520, Note_on_c, 6, 62, 0
9, 5520, Note_on_c, 6, 59, 0
9, 5640, Note_on_c, 6, 59, 72
9, 5640, Note_on_c, 6, 62, 72
9, 5760, Note_on_c, 6, 62, 0
9, 5760, Note_on_c, 6, 59, 0
9, 5880, Note_on_c, 6, 57, 72
9, 5880, Note_on_c, 6, 60, 72
9, 6000, Note_on_c, 6, 60, 0
9, 6000, Note_on_c, 6, 57, 0
9, 6120, Note_on_c, 6, 60, 72
9, 6120, Note_on_c, 6, 64, 72
9, 6240, Note_on_c, 6, 64, 0
9, 6240, Note_on_c, 6, 60, 0
9, 6360, Note_on_c, 6, 60, 72
9, 6360, Note_on_c, 6, 64, 72
9, 6480, Note_on_c, 6, 64, 0
9, 6480, Note_on_c, 6, 60, 0
9, 6600, Note_on_c, 6, 60, 72
9, 6600, Note_on_c, 6, 62, 72
9, 6720, Note_on_c, 6, 62, 0
9, 6720, Note_on_c, 6, 60, 0
9, 7800, Note_on_c, 6, 62, 72
9, 7800, Note_on_c, 6, 67, 72
9, 7920, Note_on_c, 6, 67, 0
9, 7920, Note_on_c, 6, 62, 0
9, 8040, Note_on_c, 6, 62, 72
9, 8040, Note_on_c, 6, 67, 72
9, 8160, Note_on_c, 6, 67, 0
9, 8160, Note_on_c, 6, 62, 0
9, 8280, Note_on_c, 6, 60, 72
9, 8280, Note_on_c, 6, 64, 72
9, 8400, Note_on_c, 6, 64, 0
9, 8400, Note_on_c, 6, 60, 0
9, 8520, Note_on_c, 6, 60, 72
9, 8520, Note_on_c, 6, 64, 72
9, 8640, Note_on_c, 6, 64, 0
9, 8640, Note_on_c, 6, 60, 0
9, 8760, Note_on_c, 6, 60, 72
9, 8760, Note_on_c, 6, 66, 72
9, 8880, Note_on_c, 6, 66, 0
9, 8880, Note_on_c, 6, 60, 0
9, 9000, Note_on_c, 6, 60, 72
9, 9000, Note_on_c, 6, 66, 72
9, 9120, Note_on_c, 6, 66, 0
9, 9120, Note_on_c, 6, 60, 0
9, 9240, Note_on_c, 6, 59, 72
9, 9240, Note_on_c, 6, 62, 72
9, 9360, Note_on_c, 6, 62, 0
9, 9360, Note_on_c, 6, 59, 0
9, 9480, Note_on_c, 6, 59, 72
9, 9480, Note_on_c, 6, 62, 72
9, 9600, Note_on_c, 6, 62, 0
9, 9600, Note_on_c, 6, 59, 0
9, 9840, Note_on_c, 6, 64, 72
9, 9840, Note_on_c, 6, 67, 72
9, 9960, Note_on_c, 6, 67, 0
9, 9960, Note_on_c, 6, 64, 0
9, 10200, Note_on_c, 6, 59, 72
9, 10200, Note_on_c, 6, 62, 72
9, 10320, Note_on_c, 6, 62, 0
9, 10320, Note_on_c, 6, 59, 0
9, 10440, Note_on_c, 6, 59, 72
9, 10440, Note_on_c, 6, 62, 72
9, 10560, Note_on_c, 6, 62, 0
9, 10560, Note_on_c, 6, 59, 0
9, 10680, Note_on_c, 6, 57, 72
9, 10680, Note_on_c, 6, 60, 72
9, 10800, Note_on_c, 6, 60, 0
9, 10800, Note_on_c, 6, 57, 0
9, 10920, Note_on_c, 6, 60, 72
9, 10920, Note_on_c, 6, 64, 72
9, 11040, Note_on_c, 6, 64, 0
9, 11040, Note_on_c, 6, 60, 0
9, 11160, Note_on_c, 6, 60, 72
9, 11160, Note_on_c, 6, 64, 72
9, 11280, Note_on_c, 6, 64, 0
9, 11280, Note_on_c, 6, 60, 0
9, 11400, Note_on_c, 6, 60, 72
9, 11400, Note_on_c, 6, 62, 72
9, 11520, Note_on_c, 6, 62, 0
9, 11520, Note_on_c, 6, 60, 0
9, 12600, Note_on_c, 6, 57, 72
9, 12600, Note_on_c, 6, 60, 72
9, 12720, Note_on_c, 6, 60, 0
9, 12720, Note_on_c, 6, 57, 0
9, 12840, Note_on_c, 6, 57, 72
9, 12840, Note_on_c, 6, 60, 72
9, 12840, Note_on_c, 6, 62, 72
9, 12960, Note_on_c, 6, 62, 0
9, 12960, Note_on_c, 6, 60, 0
9, 12960, Note_on_c, 6, 57, 0
9, 13080, Note_on_c, 6, 55, 72
9, 13080, Note_on_c, 6, 59, 72
9, 13200, Note_on_c, 6, 59, 0
9, 13200, Note_on_c, 6, 55, 0
9, 13320, Note_on_c, 6, 55, 72
9, 13320, Note_on_c, 6, 59, 72
9, 13440, Note_on_c, 6, 59, 0
9, 13440, Note_on_c, 6, 55, 0
9, 13560, Note_on_c, 6, 55, 72
9, 13560, Note_on_c, 6, 60, 72
9, 13680, Note_on_c, 6, 60, 0
9, 13680, Note_on_c, 6, 55, 0
9, 13800, Note_on_c, 6, 57, 72
9, 13800, Note_on_c, 6, 60, 72
9, 13800, Note_on_c, 6, 62, 72
9, 13920, Note_on_c, 6, 62, 0
9, 13920, Note_on_c, 6, 60, 0
9, 13920, Note_on_c, 6, 57, 0
9, 14040, Note_on_c, 6, 55, 72
9, 14040, Note_on_c, 6, 59, 72
9, 14160, Note_on_c, 6, 59, 0
9, 14160, Note_on_c, 6, 55, 0
9, 14280, Note_on_c, 6, 55, 72
9, 14280, Note_on_c, 6, 59, 72
9, 14400, Note_on_c, 6, 59, 0
9, 14400, Note_on_c, 6, 55, 0
9, 14520, Note_on_c, 6, 55, 72
9, 14520, Note_on_c, 6, 60, 72
9, 14640, Note_on_c, 6, 60, 0
9, 14640, Note_on_c, 6, 55, 0
9, 14760, Note_on_c, 6, 57, 72
9, 14760, Note_on_c, 6, 60, 72
9, 14760, Note_on_c, 6, 62, 72
9, 14880, Note_on_c, 6, 62, 0
9, 14880, Note_on_c, 6, 60, 0
9, 14880, Note_on_c, 6, 57, 0
9, 14880, Note_on_c, 6, 64, 72
9, 14880, Note_on_c, 6, 71, 72
9, 15120, Note_on_c, 6, 71, 0
9, 15120, Note_on_c, 6, 64, 0
9, 15120, Note_on_c, 6, 59, 72
9, 15120, Note_on_c, 6, 64, 72
9, 15360, Note_on_c, 6, 64, 0
9, 15360, Note_on_c, 6, 59, 0
9, 15360, Note_on_c, 6, 61, 72
9, 15600, Note_on_c, 6, 61, 0
9, 15600, Note_on_c, 6, 57, 72
9, 15600, Note_on_c, 6, 61, 72
9, 15840, Note_on_c, 6, 61, 0
9, 15840, Note_on_c, 6, 57, 0
9, 15840, Note_on_c, 6, 60, 72
9, 16320, Note_on_c, 6, 60, 0
9, 16440, Note_on_c, 6, 62, 72
9, 16440, Note_on_c, 6, 67, 72
9, 16560, Note_on_c, 6, 67, 0
9, 16560, Note_on_c, 6, 62, 0
9, 16680, Note_on_c, 6, 62, 72
9, 16680, Note_on_c, 6, 67, 72
9, 16800, Note_on_c, 6, 67, 0
9, 16800, Note_on_c, 6, 62, 0
9, 16920, Note_on_c, 6, 60, 72
9, 16920, Note_on_c, 6, 64, 72
9, 17040, Note_on_c, 6, 64, 0
9, 17040, Note_on_c, 6, 60, 0
9, 17160, Note_on_c, 6, 60, 72
9, 17160, Note_on_c, 6, 64, 72
9, 17280, Note_on_c, 6, 64, 0
9, 17280, Note_on_c, 6, 60, 0
9, 17400, Note_on_c, 6, 60, 72
9, 17400, Note_on_c, 6, 66, 72
9, 17520, Note_on_c, 6, 66, 0
9, 17520, Note_on_c, 6, 60, 0
9, 17640, Note_on_c, 6, 60, 72
9, 17640, Note_on_c, 6, 66, 72
9, 17760, Note_on_c, 6, 66, 0
9, 17760, Note_on_c, 6, 60, 0
9, 17880, Note_on_c, 6, 59, 72
9, 17880, Note_on_c, 6, 62, 72
9, 18000, Note_on_c, 6, 62, 0
9, 18000, Note_on_c, 6, 59, 0
9, 18120, Note_on_c, 6, 59, 72
9, 18120, Note_on_c, 6, 62, 72
9, 18240, Note_on_c, 6, 62, 0
9, 18240, Note_on_c, 6, 59, 0
9, 18480, Note_on_c, 6, 64, 72
9, 18480, Note_on_c, 6, 67, 72
9, 18600, Note_on_c, 6, 67, 0
9, 18600, Note_on_c, 6, 64, 0
9, 18840, Note_on_c, 6, 59, 72
9, 18840, Note_on_c, 6, 62, 72
9, 18960, Note_on_c, 6, 62, 0
9, 18960, Note_on_c, 6, 59, 0
9, 19080, Note_on_c, 6, 59, 72
9, 19080, Note_on_c, 6, 62, 72
9, 19200, Note_on_c, 6, 62, 0
9, 19200, Note_on_c, 6, 59, 0
9, 19320, Note_on_c, 6, 57, 72
9, 19320, Note_on_c, 6, 60, 72
9, 19440, Note_on_c, 6, 60, 0
9, 19440, Note_on_c, 6, 57, 0
9, 19560, Note_on_c, 6, 60, 72
9, 19560, Note_on_c, 6, 64, 72
9, 19680, Note_on_c, 6, 64, 0
9, 19680, Note_on_c, 6, 60, 0
9, 19800, Note_on_c, 6, 60, 72
9, 19800, Note_on_c, 6, 64, 72
9, 19920, Note_on_c, 6, 64, 0
9, 19920, Note_on_c, 6, 60, 0
9, 20040, Note_on_c, 6, 60, 72
9, 20040, Note_on_c, 6, 62, 72
9, 20160, Note_on_c, 6, 62, 0
9, 20160, Note_on_c, 6, 60, 0
9, 21240, Note_on_c, 6, 62, 72
9, 21240, Note_on_c, 6, 67, 72
9, 21360, Note_on_c, 6, 67, 0
9, 21360, Note_on_c, 6, 62, 0
9, 21480, Note_on_c, 6, 62, 72
9, 21480, Note_on_c, 6, 67, 72
9, 21600, Note_on_c, 6, 67, 0
9, 21600, Note_on_c, 6, 62, 0
9, 21720, Note_on_c, 6, 60, 72
9, 21720, Note_on_c, 6, 64, 72
9, 21840, Note_on_c, 6, 64, 0
9, 21840, Note_on_c, 6, 60, 0
9, 21960, Note_on_c, 6, 60, 72
9, 21960, Note_on_c, 6, 64, 72
9, 22080, Note_on_c, 6, 64, 0
9, 22080, Note_on_c, 6, 60, 0
9, 22200, Note_on_c, 6, 60, 72
9, 22200, Note_on_c, 6, 66, 72
9, 22320, Note_on_c, 6, 66, 0
9, 22320, Note_on_c, 6, 60, 0
9, 22440, Note_on_c, 6, 60, 72
9, 22440, Note_on_c, 6, 66, 72
9, 22560, Note_on_c, 6, 66, 0
9, 22560, Note_on_c, 6, 60, 0
9, 22680, Note_on_c, 6, 59, 72
9, 22680, Note_on_c, 6, 62, 72
9, 22800, Note_on_c, 6, 62, 0
9, 22800, Note_on_c, 6, 59, 0
9, 22920, Note_on_c, 6, 59, 72
9, 22920, Note_on_c, 6, 62, 72
9, 23040, Note_on_c, 6, 62, 0
9, 23040, Note_on_c, 6, 59, 0
9, 23280, Note_on_c, 6, 64, 72
9, 23280, Note_on_c, 6, 67, 72
9, 23400, Note_on_c, 6, 67, 0
9, 23400, Note_on_c, 6, 64, 0
9, 23640, Note_on_c, 6, 59, 72
9, 23640, Note_on_c, 6, 62, 72
9, 23760, Note_on_c, 6, 62, 0
9, 23760, Note_on_c, 6, 59, 0
9, 23880, Note_on_c, 6, 59, 72
9, 23880, Note_on_c, 6, 62, 72
9, 24000, Note_on_c, 6, 62, 0
9, 24000, Note_on_c, 6, 59, 0
9, 24120, Note_on_c, 6, 57, 72
9, 24120, Note_on_c, 6, 60, 72
9, 24240, Note_on_c, 6, 60, 0
9, 24240, Note_on_c, 6, 57, 0
9, 24360, Note_on_c, 6, 60, 72
9, 24360, Note_on_c, 6, 64, 72
9, 24480, Note_on_c, 6, 64, 0
9, 24480, Note_on_c, 6, 60, 0
9, 24600, Note_on_c, 6, 60, 72
9, 24600, Note_on_c, 6, 64, 72
9, 24720, Note_on_c, 6, 64, 0
9, 24720, Note_on_c, 6, 60, 0
9, 24840, Note_on_c, 6, 60, 72
9, 24840, Note_on_c, 6, 62, 72
9, 24960, Note_on_c, 6, 62, 0
9, 24960, Note_on_c, 6, 60, 0
9, 26040, Note_on_c, 6, 57, 72
9, 26040, Note_on_c, 6, 60, 72
9, 26160, Note_on_c, 6, 60, 0
9, 26160, Note_on_c, 6, 57, 0
9, 26280, Note_on_c, 6, 57, 72
9, 26280, Note_on_c, 6, 60, 72
9, 26280, Note_on_c, 6, 62, 72
9, 26400, Note_on_c, 6, 62, 0
9, 26400, Note_on_c, 6, 60, 0
9, 26400, Note_on_c, 6, 57, 0
9, 26520, Note_on_c, 6, 55, 72
9, 26520, Note_on_c, 6, 59, 72
9, 26640, Note_on_c, 6, 59, 0
9, 26640, Note_on_c, 6, 55, 0
9, 26760, Note_on_c, 6, 55, 72
9, 26760, Note_on_c, 6, 59, 72
9, 26880, Note_on_c, 6, 59, 0
9, 26880, Note_on_c, 6, 55, 0
9, 27000, Note_on_c, 6, 55, 72
9, 27000, Note_on_c, 6, 60, 72
9, 27120, Note_on_c, 6, 60, 0
9, 27120, Note_on_c, 6, 55, 0
9, 27240, Note_on_c, 6, 57, 72
9, 27240, Note_on_c, 6, 60, 72
9, 27240, Note_on_c, 6, 62, 72
9, 27360, Note_on_c, 6, 62, 0
9, 27360, Note_on_c, 6, 60, 0
9, 27360, Note_on_c, 6, 57, 0
9, 27480, Note_on_c, 6, 55, 72
9, 27480, Note_on_c, 6, 59, 72
9, 27600, Note_on_c, 6, 59, 0
9, 27600, Note_on_c, 6, 55, 0
9, 27720, Note_on_c, 6, 55, 72
9, 27720, Note_on_c, 6, 59, 72
9, 27840, Note_on_c, 6, 59, 0
9, 27840, Note_on_c, 6, 55, 0
9, 27960, Note_on_c, 6, 55, 72
9, 27960, Note_on_c, 6, 60, 72
9, 28080, Note_on_c, 6, 60, 0
9, 28080, Note_on_c, 6, 55, 0
9, 28200, Note_on_c, 6, 57, 72
9, 28200, Note_on_c, 6, 60, 72
9, 28200, Note_on_c, 6, 62, 72
9, 28320, Note_on_c, 6, 62, 0
9, 28320, Note_on_c, 6, 60, 0
9, 28320, Note_on_c, 6, 57, 0
9, 28320, Note_on_c, 6, 64, 72
9, 28320, Note_on_c, 6, 71, 72
9, 28560, Note_on_c, 6, 71, 0
9, 28560, Note_on_c, 6, 64, 0
9, 28560, Note_on_c, 6, 59, 72
9, 28560, Note_on_c, 6, 64, 72
9, 28800, Note_on_c, 6, 64, 0
9, 28800, Note_on_c, 6, 59, 0
9, 28800, Note_on_c, 6, 61, 72
9, 29040, Note_on_c, 6, 61, 0
9, 29040, Note_on_c, 6, 57, 72
9, 29040, Note_on_c, 6, 61, 72
9, 29280, Note_on_c, 6, 61, 0
9, 29280, Note_on_c, 6, 57, 0
9, 29280, Note_on_c, 6, 60, 72
9, 29760, Note_on_c, 6, 60, 0
9, 29880, Note_on_c, 6, 62, 72
9, 29880, Note_on_c, 6, 67, 72
9, 30000, Note_on_c, 6, 67, 0
9, 30000, Note_on_c, 6, 62, 0
9, 30120, Note_on_c, 6, 62, 72
9, 30120, Note_on_c, 6, 67, 72
9, 30240, Note_on_c, 6, 67, 0
9, 30240, Note_on_c, 6, 62, 0
9, 30360, Note_on_c, 6, 60, 72
9, 30360, Note_on_c, 6, 64, 72
9, 30480, Note_on_c, 6, 64, 0
9, 30480, Note_on_c, 6, 60, 0
9, 30600, Note_on_c, 6, 60, 72
9, 30600, Note_on_c, 6, 64, 72
9, 30720, Note_on_c, 6, 64, 0
9, 30720, Note_on_c, 6, 60, 0
9, 30840, Note_on_c, 6, 60, 72
9, 30840, Note_on_c, 6, 66, 72
9, 30960, Note_on_c, 6, 66, 0
9, 30960, Note_on_c, 6, 60, 0
9, 31080, Note_on_c, 6, 60, 72
9, 31080, Note_on_c, 6, 66, 72
9, 31200, Note_on_c, 6, 66, 0
9, 31200, Note_on_c, 6, 60, 0
9, 31320, Note_on_c, 6, 59, 72
9, 31320, Note_on_c, 6, 62, 72
9, 31440, Note_on_c, 6, 62, 0
9, 31440, Note_on_c, 6, 59, 0
9, 31560, Note_on_c, 6, 59, 72
9, 31560, Note_on_c, 6, 62, 72
9, 31680, Note_on_c, 6, 62, 0
9, 31680, Note_on_c, 6, 59, 0
9, 31920, Note_on_c, 6, 64, 72
9, 31920, Note_on_c, 6, 67, 72
9, 32040, Note_on_c, 6, 67, 0
9, 32040, Note_on_c, 6, 64, 0
9, 32280, Note_on_c, 6, 59, 72
9, 32280, Note_on_c, 6, 62, 72
9, 32400, Note_on_c, 6, 62, 0
9, 32400, Note_on_c, 6, 59, 0
9, 32520, Note_on_c, 6, 59, 72
9, 32520, Note_on_c, 6, 62, 72
9, 32640, Note_on_c, 6, 62, 0
9, 32640, Note_on_c, 6, 59, 0
9, 32760, Note_on_c, 6, 57, 72
9, 32760, Note_on_c, 6, 60, 72
9, 32880, Note_on_c, 6, 60, 0
9, 32880, Note_on_c, 6, 57, 0
9, 33000, Note_on_c, 6, 60, 72
9, 33000, Note_on_c, 6, 64, 72
9, 33120, Note_on_c, 6, 64, 0
9, 33120, Note_on_c, 6, 60, 0
9, 33240, Note_on_c, 6, 60, 72
9, 33240, Note_on_c, 6, 64, 72
9, 33360, Note_on_c, 6, 64, 0
9, 33360, Note_on_c, 6, 60, 0
9, 33480, Note_on_c, 6, 60, 72
9, 33480, Note_on_c, 6, 62, 72
9, 33600, Note_on_c, 6, 62, 0
9, 33600, Note_on_c, 6, 60, 0
9, 33600, End_track
10, 0, Start_track
10, 0, Title_t, "Melody Extra"
10, 0, Control_c, 7, 121, 0
10, 0, Control_c, 7, 123, 0
10, 0, Control_c, 7, 91, 40
10, 0, Control_c, 7, 93, 40
10, 157, Program_c, 7, 0
10, 158, Control_c, 7, 7, 65
10, 158, Control_c, 7, 10, 59
10, 1050, Note_on_c, 7, 74, 72
10, 1080, Note_on_c, 7, 74, 0
10, 1080, Note_on_c, 7, 81, 72
10, 1092, Note_on_c, 7, 81, 0
10, 1092, Note_on_c, 7, 86, 72
10, 1092, Note_on_c, 7, 83, 72
10, 1170, Note_on_c, 7, 83, 0
10, 1170, Note_on_c, 7, 86, 0
10, 1170, Note_on_c, 7, 74, 72
10, 1200, Note_on_c, 7, 74, 0
10, 1200, Note_on_c, 7, 81, 72
10, 1212, Note_on_c, 7, 81, 0
10, 1212, Note_on_c, 7, 83, 72
10, 1212, Note_on_c, 7, 86, 72
10, 1290, Note_on_c, 7, 86, 0
10, 1290, Note_on_c, 7, 83, 0
10, 1290, Note_on_c, 7, 81, 72
10, 1290, Note_on_c, 7, 86, 72
10, 1320, Note_on_c, 7, 86, 0
10, 1320, Note_on_c, 7, 81, 0
10, 1320, Note_on_c, 7, 83, 72
10, 1320, Note_on_c, 7, 79, 72
10, 1440, Note_on_c, 7, 79, 0
10, 1440, Note_on_c, 7, 83, 0
10, 1440, Note_on_c, 7, 76, 72
10, 1452, Note_on_c, 7, 76, 0
10, 1452, Note_on_c, 7, 81, 72
10, 1452, Note_on_c, 7, 78, 72
10, 1530, Note_on_c, 7, 78, 0
10, 1530, Note_on_c, 7, 81, 0
10, 1530, Note_on_c, 7, 69, 72
10, 1560, Note_on_c, 7, 69, 0
10, 1560, Note_on_c, 7, 76, 72
10, 1572, Note_on_c, 7, 76, 0
10, 1572, Note_on_c, 7, 78, 72
10, 1572, Note_on_c, 7, 81, 72
10, 1650, Note_on_c, 7, 81, 0
10, 1650, Note_on_c, 7, 78, 0
10, 1650, Note_on_c, 7, 69, 72
10, 1680, Note_on_c, 7, 69, 0
10, 1680, Note_on_c, 7, 76, 72
10, 1692, Note_on_c, 7, 76, 0
10, 1692, Note_on_c, 7, 78, 72
10, 1692, Note_on_c, 7, 81, 72
10, 1770, Note_on_c, 7, 81, 0
10, 1770, Note_on_c, 7, 78, 0
10, 1770, Note_on_c, 7, 78, 72
10, 1770, Note_on_c, 7, 81, 72
10, 1800, Note_on_c, 7, 81, 0
10, 1800, Note_on_c, 7, 78, 0
10, 1800, Note_on_c, 7, 74, 72
10, 1800, Note_on_c, 7, 78, 72
10, 1920, Note_on_c, 7, 78, 0
10, 1920, Note_on_c, 7, 74, 0
10, 2010, Note_on_c, 7, 74, 72
10, 2040, Note_on_c, 7, 74, 0
10, 2040, Note_on_c, 7, 81, 72
10, 2052, Note_on_c, 7, 81, 0
10, 2052, Note_on_c, 7, 86, 72
10, 2052, Note_on_c, 7, 83, 72
10, 2130, Note_on_c, 7, 83, 0
10, 2130, Note_on_c, 7, 86, 0
10, 2130, Note_on_c, 7, 74, 72
10, 2160, Note_on_c, 7, 74, 0
10, 2160, Note_on_c, 7, 81, 72
10, 2172, Note_on_c, 7, 81, 0
10, 2172, Note_on_c, 7, 83, 72
10, 2172, Note_on_c, 7, 86, 72
10, 2250, Note_on_c, 7, 86, 0
10, 2250, Note_on_c, 7, 83, 0
10, 2250, Note_on_c, 7, 81, 72
10, 2250, Note_on_c, 7, 86, 72
10, 2280, Note_on_c, 7, 86, 0
10, 2280, Note_on_c, 7, 81, 0
10, 2280, Note_on_c, 7, 83, 72
10, 2280, Note_on_c, 7, 79, 72
10, 2400, Note_on_c, 7, 79, 0
10, 2400, Note_on_c, 7, 83, 0
10, 2400, Note_on_c, 7, 76, 72
10, 2412, Note_on_c, 7, 76, 0
10, 2412, Note_on_c, 7, 81, 72
10, 2412, Note_on_c, 7, 78, 72
10, 2490, Note_on_c, 7, 78, 0
10, 2490, Note_on_c, 7, 81, 0
10, 2490, Note_on_c, 7, 69, 72
10, 2520, Note_on_c, 7, 69, 0
10, 2520, Note_on_c, 7, 76, 72
10, 2532, Note_on_c, 7, 76, 0
10, 2532, Note_on_c, 7, 78, 72
10, 2532, Note_on_c, 7, 81, 72
10, 2610, Note_on_c, 7, 81, 0
10, 2610, Note_on_c, 7, 78, 0
10, 2610, Note_on_c, 7, 69, 72
10, 2640, Note_on_c, 7, 69, 0
10, 2640, Note_on_c, 7, 76, 72
10, 2652, Note_on_c, 7, 76, 0
10, 2652, Note_on_c, 7, 78, 72
10, 2652, Note_on_c, 7, 81, 72
10, 2730, Note_on_c, 7, 81, 0
10, 2730, Note_on_c, 7, 78, 0
10, 2730, Note_on_c, 7, 78, 72
10, 2730, Note_on_c, 7, 81, 72
10, 2760, Note_on_c, 7, 81, 0
10, 2760, Note_on_c, 7, 78, 0
10, 2760, Note_on_c, 7, 74, 72
10, 2760, Note_on_c, 7, 78, 72
10, 2880, Note_on_c, 7, 78, 0
10, 2880, Note_on_c, 7, 74, 0
10, 6720, Note_on_c, 7, 67, 72
10, 6810, Note_on_c, 7, 67, 0
10, 6810, Note_on_c, 7, 74, 72
10, 6840, Note_on_c, 7, 74, 0
10, 6840, Note_on_c, 7, 81, 72
10, 6852, Note_on_c, 7, 81, 0
10, 6852, Note_on_c, 7, 83, 72
10, 6852, Note_on_c, 7, 86, 72
10, 6930, Note_on_c, 7, 86, 0
10, 6930, Note_on_c, 7, 83, 0
10, 6930, Note_on_c, 7, 74, 72
10, 6960, Note_on_c, 7, 74, 0
10, 6960, Note_on_c, 7, 81, 72
10, 6972, Note_on_c, 7, 81, 0
10, 6972, Note_on_c, 7, 86, 72
10, 6972, Note_on_c, 7, 83, 72
10, 7050, Note_on_c, 7, 83, 0
10, 7050, Note_on_c, 7, 86, 0
10, 7050, Note_on_c, 7, 86, 72
10, 7050, Note_on_c, 7, 81, 72
10, 7080, Note_on_c, 7, 81, 0
10, 7080, Note_on_c, 7, 86, 0
10, 7080, Note_on_c, 7, 83, 72
10, 7080, Note_on_c, 7, 79, 72
10, 7200, Note_on_c, 7, 79, 0
10, 7200, Note_on_c, 7, 83, 0
10, 7200, Note_on_c, 7, 74, 72
10, 7212, Note_on_c, 7, 74, 0
10, 7212, Note_on_c, 7, 76, 72
10, 7212, Note_on_c, 7, 79, 72
10, 7290, Note_on_c, 7, 79, 0
10, 7290, Note_on_c, 7, 76, 0
10, 7290, Note_on_c, 7, 67, 72
10, 7320, Note_on_c, 7, 67, 0
10, 7320, Note_on_c, 7, 74, 72
10, 7332, Note_on_c, 7, 74, 0
10, 7332, Note_on_c, 7, 76, 72
10, 7332, Note_on_c, 7, 79, 72
10, 7410, Note_on_c, 7, 79, 0
10, 7410, Note_on_c, 7, 76, 0
10, 7410, Note_on_c, 7, 67, 72
10, 7440, Note_on_c, 7, 67, 0
10, 7440, Note_on_c, 7, 76, 72
10, 7452, Note_on_c, 7, 76, 0
10, 7452, Note_on_c, 7, 81, 72
10, 7452, Note_on_c, 7, 78, 72
10, 7530, Note_on_c, 7, 78, 0
10, 7530, Note_on_c, 7, 81, 0
10, 7530, Note_on_c, 7, 81, 72
10, 7530, Note_on_c, 7, 76, 72
10, 7560, Note_on_c, 7, 76, 0
10, 7560, Note_on_c, 7, 81, 0
10, 7560, Note_on_c, 7, 78, 72
10, 7560, Note_on_c, 7, 74, 72
10, 7680, Note_on_c, 7, 74, 0
10, 7680, Note_on_c, 7, 78, 0
10, 11520, Note_on_c, 7, 67, 72
10, 11610, Note_on_c, 7, 67, 0
10, 11610, Note_on_c, 7, 74, 72
10, 11640, Note_on_c, 7, 74, 0
10, 11640, Note_on_c, 7, 81, 72
10, 11652, Note_on_c, 7, 81, 0
10, 11652, Note_on_c, 7, 86, 72
10, 11652, Note_on_c, 7, 83, 72
10, 11730, Note_on_c, 7, 83, 0
10, 11730, Note_on_c, 7, 86, 0
10, 11730, Note_on_c, 7, 74, 72
10, 11760, Note_on_c, 7, 74, 0
10, 11760, Note_on_c, 7, 81, 72
10, 11772, Note_on_c, 7, 81, 0
10, 11772, Note_on_c, 7, 83, 72
10, 11772, Note_on_c, 7, 86, 72
10, 11850, Note_on_c, 7, 86, 0
10, 11850, Note_on_c, 7, 83, 0
10, 11850, Note_on_c, 7, 86, 72
10, 11850, Note_on_c, 7, 81, 72
10, 11880, Note_on_c, 7, 81, 0
10, 11880, Note_on_c, 7, 86, 0
10, 11880, Note_on_c, 7, 79, 72
10, 11880, Note_on_c, 7, 83, 72
10, 11970, Note_on_c, 7, 83, 0
10, 11970, Note_on_c, 7, 79, 0
10, 11970, Note_on_c, 7, 74, 72
10, 12000, Note_on_c, 7, 74, 0
10, 12000, Note_on_c, 7, 81, 72
10, 12012, Note_on_c, 7, 81, 0
10, 12012, Note_on_c, 7, 83, 72
10, 12012, Note_on_c, 7, 86, 72
10, 12090, Note_on_c, 7, 86, 0
10, 12090, Note_on_c, 7, 83, 0
10, 12090, Note_on_c, 7, 74, 72
10, 12120, Note_on_c, 7, 74, 0
10, 12120, Note_on_c, 7, 81, 72
10, 12132, Note_on_c, 7, 81, 0
10, 12132, Note_on_c, 7, 86, 72
10, 12132, Note_on_c, 7, 83, 72
10, 12210, Note_on_c, 7, 83, 0
10, 12210, Note_on_c, 7, 86, 0
10, 12210, Note_on_c, 7, 74, 72
10, 12240, Note_on_c, 7, 74, 0
10, 12240, Note_on_c, 7, 79, 72
10, 12240, Note_on_c, 7, 83, 72
10, 12330, Note_on_c, 7, 83, 0
10, 12330, Note_on_c, 7, 79, 0
10, 12330, Note_on_c, 7, 74, 72
10, 12360, Note_on_c, 7, 74, 0
10, 12360, Note_on_c, 7, 83, 72
10, 12360, Note_on_c, 7, 79, 72
10, 12450, Note_on_c, 7, 79, 0
10, 12450, Note_on_c, 7, 83, 0
10, 12450, Note_on_c, 7, 77, 72
10, 12450, Note_on_c, 7, 81, 72
10, 12480, Note_on_c, 7, 81, 0
10, 12480, Note_on_c, 7, 77, 0
10, 12480, Note_on_c, 7, 79, 72
10, 12480, Note_on_c, 7, 76, 72
10, 12600, Note_on_c, 7, 76, 0
10, 12600, Note_on_c, 7, 79, 0
10, 20160, Note_on_c, 7, 67, 72
10, 20250, Note_on_c, 7, 67, 0
10, 20250, Note_on_c, 7, 74, 72
10, 20280, Note_on_c, 7, 74, 0
10, 20280, Note_on_c, 7, 81, 72
10, 20292, Note_on_c, 7, 81, 0
10, 20292, Note_on_c, 7, 86, 72
10, 20292, Note_on_c, 7, 83, 72
10, 20370, Note_on_c, 7, 83, 0
10, 20370, Note_on_c, 7, 86, 0
10, 20370, Note_on_c, 7, 74, 72
10, 20400, Note_on_c, 7, 74, 0
10, 20400, Note_on_c, 7, 81, 72
10, 20412, Note_on_c, 7, 81, 0
10, 20412, Note_on_c, 7, 86, 72
10, 20412, Note_on_c, 7, 83, 72
10, 20490, Note_on_c, 7, 83, 0
10, 20490, Note_on_c, 7, 86, 0
10, 20490, Note_on_c, 7, 81, 72
10, 20490, Note_on_c, 7, 86, 72
10, 20520, Note_on_c, 7, 86, 0
10, 20520, Note_on_c, 7, 81, 0
10, 20520, Note_on_c, 7, 79, 72
10, 20520, Note_on_c, 7, 83, 72
10, 20640, Note_on_c, 7, 83, 0
10, 20640, Note_on_c, 7, 79, 0
10, 20640, Note_on_c, 7, 74, 72
10, 20652, Note_on_c, 7, 74, 0
10, 20652, Note_on_c, 7, 79, 72
10, 20652, Note_on_c, 7, 76, 72
10, 20730, Note_on_c, 7, 76, 0
10, 20730, Note_on_c, 7, 79, 0
10, 20730, Note_on_c, 7, 67, 72
10, 20760, Note_on_c, 7, 67, 0
10, 20760, Note_on_c, 7, 74, 72
10, 20772, Note_on_c, 7, 74, 0
10, 20772, Note_on_c, 7, 76, 72
10, 20772, Note_on_c, 7, 79, 72
10, 20850, Note_on_c, 7, 79, 0
10, 20850, Note_on_c, 7, 76, 0
10, 20850, Note_on_c, 7, 67, 72
10, 20880, Note_on_c, 7, 67, 0
10, 20880, Note_on_c, 7, 76, 72
10, 20892, Note_on_c, 7, 76, 0
10, 20892, Note_on_c, 7, 78, 72
10, 20892, Note_on_c, 7, 81, 72
10, 20970, Note_on_c, 7, 81, 0
10, 20970, Note_on_c, 7, 78, 0
10, 20970, Note_on_c, 7, 76, 72
10, 20970, Note_on_c, 7, 81, 72
10, 21000, Note_on_c, 7, 81, 0
10, 21000, Note_on_c, 7, 76, 0
10, 21000, Note_on_c, 7, 74, 72
10, 21000, Note_on_c, 7, 78, 72
10, 21120, Note_on_c, 7, 78, 0
10, 21120, Note_on_c, 7, 74, 0
10, 24960, Note_on_c, 7, 67, 72
10, 25050, Note_on_c, 7, 67, 0
10, 25050, Note_on_c, 7, 74, 72
10, 25080, Note_on_c, 7, 74, 0
10, 25080, Note_on_c, 7, 81, 72
10, 25092, Note_on_c, 7, 81, 0
10, 25092, Note_on_c, 7, 86, 72
10, 25092, Note_on_c, 7, 83, 72
10, 25170, Note_on_c, 7, 83, 0
10, 25170, Note_on_c, 7, 86, 0
10, 25170, Note_on_c, 7, 74, 72
10, 25200, Note_on_c, 7, 74, 0
10, 25200, Note_on_c, 7, 81, 72
10, 25212, Note_on_c, 7, 81, 0
10, 25212, Note_on_c, 7, 83, 72
10, 25212, Note_on_c, 7, 86, 72
10, 25290, Note_on_c, 7, 86, 0
10, 25290, Note_on_c, 7, 83, 0
10, 25290, Note_on_c, 7, 86, 72
10, 25290, Note_on_c, 7, 81, 72
10, 25320, Note_on_c, 7, 81, 0
10, 25320, Note_on_c, 7, 86, 0
10, 25320, Note_on_c, 7, 79, 72
10, 25320, Note_on_c, 7, 83, 72
10, 25410, Note_on_c, 7, 83, 0
10, 25410, Note_on_c, 7, 79, 0
10, 25410, Note_on_c, 7, 74, 72
10, 25440, Note_on_c, 7, 74, 0
10, 25440, Note_on_c, 7, 81, 72
10, 25452, Note_on_c, 7, 81, 0
10, 25452, Note_on_c, 7, 83, 72
10, 25452, Note_on_c, 7, 86, 72
10, 25530, Note_on_c, 7, 86, 0
10, 25530, Note_on_c, 7, 83, 0
10, 25530, Note_on_c, 7, 74, 72
10, 25560, Note_on_c, 7, 74, 0
10, 25560, Note_on_c, 7, 81, 72
10, 25572, Note_on_c, 7, 81, 0
10, 25572, Note_on_c, 7, 86, 72
10, 25572, Note_on_c, 7, 83, 72
10, 25650, Note_on_c, 7, 83, 0
10, 25650, Note_on_c, 7, 86, 0
10, 25650, Note_on_c, 7, 74, 72
10, 25680, Note_on_c, 7, 74, 0
10, 25680, Note_on_c, 7, 79, 72
10, 25680, Note_on_c, 7, 83, 72
10, 25770, Note_on_c, 7, 83, 0
10, 25770, Note_on_c, 7, 79, 0
10, 25770, Note_on_c, 7, 74, 72
10, 25800, Note_on_c, 7, 74, 0
10, 25800, Note_on_c, 7, 83, 72
10, 25800, Note_on_c, 7, 79, 72
10, 25890, Note_on_c, 7, 79, 0
10, 25890, Note_on_c, 7, 83, 0
10, 25890, Note_on_c, 7, 77, 72
10, 25890, Note_on_c, 7, 81, 72
10, 25920, Note_on_c, 7, 81, 0
10, 25920, Note_on_c, 7, 77, 0
10, 25920, Note_on_c, 7, 79, 72
10, 25920, Note_on_c, 7, 76, 72
10, 26040, Note_on_c, 7, 76, 0
10, 26040, Note_on_c, 7, 79, 0
10, 33600, Note_on_c, 7, 67, 72
10, 33690, Note_on_c, 7, 67, 0
10, 33690, Note_on_c, 7, 74, 72
10, 33720, Note_on_c, 7, 74, 0
10, 33720, Note_on_c, 7, 81, 72
10, 33732, Note_on_c, 7, 81, 0
10, 33732, Note_on_c, 7, 86, 72
10, 33732, Note_on_c, 7, 83, 72
10, 33810, Note_on_c, 7, 83, 0
10, 33810, Note_on_c, 7, 86, 0
10, 33810, Note_on_c, 7, 74, 72
10, 33840, Note_on_c, 7, 74, 0
10, 33840, Note_on_c, 7, 81, 72
10, 33852, Note_on_c, 7, 81, 0
10, 33852, Note_on_c, 7, 86, 72
10, 33852, Note_on_c, 7, 83, 72
10, 33930, Note_on_c, 7, 83, 0
10, 33930, Note_on_c, 7, 86, 0
10, 33930, Note_on_c, 7, 81, 72
10, 33930, Note_on_c, 7, 86, 72
10, 33960, Note_on_c, 7, 86, 0
10, 33960, Note_on_c, 7, 81, 0
10, 33960, Note_on_c, 7, 83, 72
10, 33960, Note_on_c, 7, 79, 72
10, 34050, Note_on_c, 7, 79, 0
10, 34050, Note_on_c, 7, 83, 0
10, 34050, Note_on_c, 7, 74, 72
10, 34080, Note_on_c, 7, 74, 0
10, 34080, Note_on_c, 7, 81, 72
10, 34092, Note_on_c, 7, 81, 0
10, 34092, Note_on_c, 7, 83, 72
10, 34092, Note_on_c, 7, 86, 72
10, 34170, Note_on_c, 7, 86, 0
10, 34170, Note_on_c, 7, 83, 0
10, 34170, Note_on_c, 7, 74, 72
10, 34200, Note_on_c, 7, 74, 0
10, 34200, Note_on_c, 7, 81, 72
10, 34212, Note_on_c, 7, 81, 0
10, 34212, Note_on_c, 7, 86, 72
10, 34212, Note_on_c, 7, 83, 72
10, 34290, Note_on_c, 7, 83, 0
10, 34290, Note_on_c, 7, 86, 0
10, 34290, Note_on_c, 7, 86, 72
10, 34290, Note_on_c, 7, 81, 72
10, 34320, Note_on_c, 7, 81, 0
10, 34320, Note_on_c, 7, 86, 0
10, 34320, Note_on_c, 7, 83, 72
10, 34320, Note_on_c, 7, 79, 72
10, 34440, Note_on_c, 7, 79, 0
10, 34440, Note_on_c, 7, 83, 0
10, 34440, End_track
11, 0, Start_track
11, 0, Title_t, "Bass"
11, 0, Control_c, 8, 121, 0
11, 0, Control_c, 8, 123, 0
11, 0, Control_c, 8, 91, 40
11, 162, Program_c, 8, 33
11, 163, Control_c, 8, 7, 95
11, 163, Control_c, 8, 10, 89
11, 960, Note_on_c, 8, 43, 86
11, 1080, Note_on_c, 8, 43, 0
11, 1200, Note_on_c, 8, 43, 86
11, 1320, Note_on_c, 8, 43, 0
11, 1440, Note_on_c, 8, 50, 86
11, 1560, Note_on_c, 8, 50, 0
11, 1560, Note_on_c, 8, 38, 86
11, 1680, Note_on_c, 8, 38, 0
11, 1680, Note_on_c, 8, 40, 86
11, 1800, Note_on_c, 8, 40, 0
11, 1800, Note_on_c, 8, 42, 86
11, 1920, Note_on_c, 8, 42, 0
11, 1920, Note_on_c, 8, 43, 86
11, 2040, Note_on_c, 8, 43, 0
11, 2160, Note_on_c, 8, 43, 86
11, 2280, Note_on_c, 8, 43, 0
11, 2400, Note_on_c, 8, 50, 86
11, 2520, Note_on_c, 8, 50, 0
11, 2520, Note_on_c, 8, 38, 86
11, 2640, Note_on_c, 8, 38, 0
11, 2640, Note_on_c, 8, 40, 86
11, 2760, Note_on_c, 8, 40, 0
11, 2760, Note_on_c, 8, 42, 86
11, 2880, Note_on_c, 8, 42, 0
11, 2880, Note_on_c, 8, 43, 86
11, 3000, Note_on_c, 8, 43, 0
11, 3120, Note_on_c, 8, 43, 86
11, 3240, Note_on_c, 8, 43, 0
11, 3360, Note_on_c, 8, 45, 86
11, 3480, Note_on_c, 8, 45, 0
11, 3600, Note_on_c, 8, 45, 86
11, 3720, Note_on_c, 8, 45, 0
11, 3840, Note_on_c, 8, 50, 86
11, 3960, Note_on_c, 8, 50, 0
11, 4080, Note_on_c, 8, 38, 86
11, 4200, Note_on_c, 8, 38, 0
11, 4320, Note_on_c, 8, 43, 86
11, 4440, Note_on_c, 8, 43, 0
11, 4560, Note_on_c, 8, 45, 86
11, 4680, Note_on_c, 8, 45, 0
11, 4680, Note_on_c, 8, 47, 86
11, 4800, Note_on_c, 8, 47, 0
11, 4800, Note_on_c, 8, 48, 86
11, 4920, Note_on_c, 8, 48, 0
11, 5040, Note_on_c, 8, 36, 86
11, 5160, Note_on_c, 8, 36, 0
11, 5280, Note_on_c, 8, 43, 86
11, 5400, Note_on_c, 8, 43, 0
11, 5520, Note_on_c, 8, 43, 86
11, 5640, Note_on_c, 8, 43, 0
11, 5760, Note_on_c, 8, 45, 86
11, 5880, Note_on_c, 8, 45, 0
11, 6000, Note_on_c, 8, 45, 86
11, 6120, Note_on_c, 8, 45, 0
11, 6240, Note_on_c, 8, 50, 86
11, 6360, Note_on_c, 8, 50, 0
11, 6480, Note_on_c, 8, 38, 86
11, 6600, Note_on_c, 8, 38, 0
11, 6720, Note_on_c, 8, 43, 86
11, 6840, Note_on_c, 8, 43, 0
11, 6960, Note_on_c, 8, 43, 86
11, 7080, Note_on_c, 8, 43, 0
11, 7200, Note_on_c, 8, 36, 86
11, 7320, Note_on_c, 8, 36, 0
11, 7440, Note_on_c, 8, 38, 86
11, 7560, Note_on_c, 8, 38, 0
11, 7680, Note_on_c, 8, 43, 86
11, 7800, Note_on_c, 8, 43, 0
11, 7920, Note_on_c, 8, 43, 86
11, 8040, Note_on_c, 8, 43, 0
11, 8160, Note_on_c, 8, 45, 86
11, 8280, Note_on_c, 8, 45, 0
11, 8400, Note_on_c, 8, 45, 86
11, 8520, Note_on_c, 8, 45, 0
11, 8640, Note_on_c, 8, 50, 86
11, 8760, Note_on_c, 8, 50, 0
11, 8880, Note_on_c, 8, 38, 86
11, 9000, Note_on_c, 8, 38, 0
11, 9120, Note_on_c, 8, 43, 86
11, 9240, Note_on_c, 8, 43, 0
11, 9360, Note_on_c, 8, 45, 86
11, 9480, Note_on_c, 8, 45, 0
11, 9480, Note_on_c, 8, 47, 86
11, 9600, Note_on_c, 8, 47, 0
11, 9600, Note_on_c, 8, 48, 86
11, 9720, Note_on_c, 8, 48, 0
11, 9840, Note_on_c, 8, 36, 86
11, 9960, Note_on_c, 8, 36, 0
11, 10080, Note_on_c, 8, 43, 86
11, 10200, Note_on_c, 8, 43, 0
11, 10320, Note_on_c, 8, 43, 86
11, 10440, Note_on_c, 8, 43, 0
11, 10560, Note_on_c, 8, 45, 86
11, 10680, Note_on_c, 8, 45, 0
11, 10800, Note_on_c, 8, 45, 86
11, 10920, Note_on_c, 8, 45, 0
11, 11040, Note_on_c, 8, 50, 86
11, 11160, Note_on_c, 8, 50, 0
11, 11280, Note_on_c, 8, 38, 86
11, 11400, Note_on_c, 8, 38, 0
11, 11520, Note_on_c, 8, 43, 86
11, 11640, Note_on_c, 8, 43, 0
11, 11760, Note_on_c, 8, 50, 86
11, 11880, Note_on_c, 8, 50, 0
11, 12000, Note_on_c, 8, 55, 86
11, 12120, Note_on_c, 8, 55, 0
11, 12120, Note_on_c, 8, 53, 86
11, 12240, Note_on_c, 8, 53, 0
11, 12240, Note_on_c, 8, 52, 86
11, 12360, Note_on_c, 8, 52, 0
11, 12360, Note_on_c, 8, 50, 86
11, 12480, Note_on_c, 8, 50, 0
11, 12480, Note_on_c, 8, 48, 86
11, 12600, Note_on_c, 8, 48, 0
11, 12720, Note_on_c, 8, 50, 86
11, 12840, Note_on_c, 8, 50, 0
11, 12960, Note_on_c, 8, 43, 86
11, 13080, Note_on_c, 8, 43, 0
11, 13200, Note_on_c, 8, 43, 86
11, 13320, Note_on_c, 8, 43, 0
11, 13320, Note_on_c, 8, 47, 86
11, 13440, Note_on_c, 8, 47, 0
11, 13440, Note_on_c, 8, 48, 86
11, 13560, Note_on_c, 8, 48, 0
11, 13680, Note_on_c, 8, 50, 86
11, 13800, Note_on_c, 8, 50, 0
11, 13920, Note_on_c, 8, 43, 86
11, 14040, Note_on_c, 8, 43, 0
11, 14160, Note_on_c, 8, 43, 86
11, 14280, Note_on_c, 8, 43, 0
11, 14280, Note_on_c, 8, 47, 86
11, 14400, Note_on_c, 8, 47, 0
11, 14400, Note_on_c, 8, 48, 86
11, 14520, Note_on_c, 8, 48, 0
11, 14640, Note_on_c, 8, 50, 86
11, 14760, Note_on_c, 8, 50, 0
11, 14880, Note_on_c, 8, 55, 86
11, 15000, Note_on_c, 8, 55, 0
11, 15000, Note_on_c, 8, 54, 86
11, 15120, Note_on_c, 8, 54, 0
11, 15120, Note_on_c, 8, 52, 86
11, 15240, Note_on_c, 8, 52, 0
11, 15240, Note_on_c, 8, 47, 86
11, 15360, Note_on_c, 8, 47, 0
11, 15360, Note_on_c, 8, 45, 86
11, 15480, Note_on_c, 8, 45, 0
11, 15600, Note_on_c, 8, 45, 86
11, 15720, Note_on_c, 8, 45, 0
11, 15840, Note_on_c, 8, 50, 86
11, 15960, Note_on_c, 8, 50, 0
11, 15960, Note_on_c, 8, 38, 86
11, 16080, Note_on_c, 8, 38, 0
11, 16080, Note_on_c, 8, 40, 86
11, 16200, Note_on_c, 8, 40, 0
11, 16200, Note_on_c, 8, 42, 86
11, 16320, Note_on_c, 8, 42, 0
11, 16320, Note_on_c, 8, 43, 86
11, 16440, Note_on_c, 8, 43, 0
11, 16560, Note_on_c, 8, 43, 86
11, 16680, Note_on_c, 8, 43, 0
11, 16800, Note_on_c, 8, 45, 86
11, 16920, Note_on_c, 8, 45, 0
11, 17040, Note_on_c, 8, 45, 86
11, 17160, Note_on_c, 8, 45, 0
11, 17280, Note_on_c, 8, 50, 86
11, 17400, Note_on_c, 8, 50, 0
11, 17520, Note_on_c, 8, 38, 86
11, 17640, Note_on_c, 8, 38, 0
11, 17760, Note_on_c, 8, 43, 86
11, 17880, Note_on_c, 8, 43, 0
11, 18000, Note_on_c, 8, 45, 86
11, 18120, Note_on_c, 8, 45, 0
11, 18120, Note_on_c, 8, 47, 86
11, 18240, Note_on_c, 8, 47, 0
11, 18240, Note_on_c, 8, 48, 86
11, 18360, Note_on_c, 8, 48, 0
11, 18480, Note_on_c, 8, 36, 86
11, 18600, Note_on_c, 8, 36, 0
11, 18720, Note_on_c, 8, 43, 86
11, 18840, Note_on_c, 8, 43, 0
11, 18960, Note_on_c, 8, 43, 86
11, 19080, Note_on_c, 8, 43, 0
11, 19200, Note_on_c, 8, 45, 86
11, 19320, Note_on_c, 8, 45, 0
11, 19440, Note_on_c, 8, 45, 86
11, 19560, Note_on_c, 8, 45, 0
11, 19680, Note_on_c, 8, 50, 86
11, 19800, Note_on_c, 8, 50, 0
11, 19920, Note_on_c, 8, 38, 86
11, 20040, Note_on_c, 8, 38, 0
11, 20160, Note_on_c, 8, 43, 86
11, 20280, Note_on_c, 8, 43, 0
11, 20400, Note_on_c, 8, 43, 86
11, 20520, Note_on_c, 8, 43, 0
11, 20640, Note_on_c, 8, 36, 86
11, 20760, Note_on_c, 8, 36, 0
11, 20880, Note_on_c, 8, 38, 86
11, 21000, Note_on_c, 8, 38, 0
11, 21120, Note_on_c, 8, 43, 86
11, 21240, Note_on_c, 8, 43, 0
11, 21360, Note_on_c, 8, 43, 86
11, 21480, Note_on_c, 8, 43, 0
11, 21600, Note_on_c, 8, 45, 86
11, 21720, Note_on_c, 8, 45, 0
11, 21840, Note_on_c, 8, 45, 86
11, 21960, Note_on_c, 8, 45, 0
11, 22080, Note_on_c, 8, 50, 86
11, 22200, Note_on_c, 8, 50, 0
11, 22320, Note_on_c, 8, 38, 86
11, 22440, Note_on_c, 8, 38, 0
11, 22560, Note_on_c, 8, 43, 86
11, 22680, Note_on_c, 8, 43, 0
11, 22800, Note_on_c, 8, 45, 86
11, 22920, Note_on_c, 8, 45, 0
11, 22920, Note_on_c, 8, 47, 86
11, 23040, Note_on_c, 8, 47, 0
11, 23040, Note_on_c, 8, 48, 86
11, 23160, Note_on_c, 8, 48, 0
11, 23280, Note_on_c, 8, 36, 86
11, 23400, Note_on_c, 8, 36, 0
11, 23520, Note_on_c, 8, 43, 86
11, 23640, Note_on_c, 8, 43, 0
11, 23760, Note_on_c, 8, 43, 86
11, 23880, Note_on_c, 8, 43, 0
11, 24000, Note_on_c, 8, 45, 86
11, 24120, Note_on_c, 8, 45, 0
11, 24240, Note_on_c, 8, 45, 86
11, 24360, Note_on_c, 8, 45, 0
11, 24480, Note_on_c, 8, 50, 86
11, 24600, Note_on_c, 8, 50, 0
11, 24720, Note_on_c, 8, 38, 86
11, 24840, Note_on_c, 8, 38, 0
11, 24960, Note_on_c, 8, 43, 86
11, 25080, Note_on_c, 8, 43, 0
11, 25200, Note_on_c, 8, 50, 86
11, 25320, Note_on_c, 8, 50, 0
11, 25440, Note_on_c, 8, 55, 86
11, 25560, Note_on_c, 8, 55, 0
11, 25560, Note_on_c, 8, 53, 86
11, 25680, Note_on_c, 8, 53, 0
11, 25680, Note_on_c, 8, 52, 86
11, 25800, Note_on_c, 8, 52, 0
11, 25800, Note_on_c, 8, 50, 86
11, 25920, Note_on_c, 8, 50, 0
11, 25920, Note_on_c, 8, 48, 86
11, 26040, Note_on_c, 8, 48, 0
11, 26160, Note_on_c, 8, 50, 86
11, 26280, Note_on_c, 8, 50, 0
11, 26400, Note_on_c, 8, 43, 86
11, 26520, Note_on_c, 8, 43, 0
11, 26640, Note_on_c, 8, 43, 86
11, 26760, Note_on_c, 8, 43, 0
11, 26760, Note_on_c, 8, 47, 86
11, 26880, Note_on_c, 8, 47, 0
11, 26880, Note_on_c, 8, 48, 86
11, 27000, Note_on_c, 8, 48, 0
11, 27120, Note_on_c, 8, 50, 86
11, 27240, Note_on_c, 8, 50, 0
11, 27360, Note_on_c, 8, 43, 86
11, 27480, Note_on_c, 8, 43, 0
11, 27600, Note_on_c, 8, 43, 86
11, 27720, Note_on_c, 8, 43, 0
11, 27720, Note_on_c, 8, 47, 86
11, 27840, Note_on_c, 8, 47, 0
11, 27840, Note_on_c, 8, 48, 86
11, 27960, Note_on_c, 8, 48, 0
11, 28080, Note_on_c, 8, 50, 86
11, 28200, Note_on_c, 8, 50, 0
11, 28320, Note_on_c, 8, 55, 86
11, 28440, Note_on_c, 8, 55, 0
11, 28440, Note_on_c, 8, 54, 86
11, 28560, Note_on_c, 8, 54, 0
11, 28560, Note_on_c, 8, 52, 86
11, 28680, Note_on_c, 8, 52, 0
11, 28680, Note_on_c, 8, 47, 86
11, 28800, Note_on_c, 8, 47, 0
11, 28800, Note_on_c, 8, 45, 86
11, 28920, Note_on_c, 8, 45, 0
11, 29040, Note_on_c, 8, 45, 86
11, 29160, Note_on_c, 8, 45, 0
11, 29280, Note_on_c, 8, 50, 86
11, 29400, Note_on_c, 8, 50, 0
11, 29400, Note_on_c, 8, 38, 86
11, 29520, Note_on_c, 8, 38, 0
11, 29520, Note_on_c, 8, 40, 86
11, 29640, Note_on_c, 8, 40, 0
11, 29640, Note_on_c, 8, 42, 86
11, 29760, Note_on_c, 8, 42, 0
11, 29760, Note_on_c, 8, 43, 86
11, 29880, Note_on_c, 8, 43, 0
11, 30000, Note_on_c, 8, 43, 86
11, 30120, Note_on_c, 8, 43, 0
11, 30240, Note_on_c, 8, 45, 86
11, 30360, Note_on_c, 8, 45, 0
11, 30480, Note_on_c, 8, 45, 86
11, 30600, Note_on_c, 8, 45, 0
11, 30720, Note_on_c, 8, 50, 86
11, 30840, Note_on_c, 8, 50, 0
11, 30960, Note_on_c, 8, 38, 86
11, 31080, Note_on_c, 8, 38, 0
11, 31200, Note_on_c, 8, 43, 86
11, 31320, Note_on_c, 8, 43, 0
11, 31440, Note_on_c, 8, 45, 86
11, 31560, Note_on_c, 8, 45, 0
11, 31560, Note_on_c, 8, 47, 86
11, 31680, Note_on_c, 8, 47, 0
11, 31680, Note_on_c, 8, 48, 86
11, 31800, Note_on_c, 8, 48, 0
11, 31920, Note_on_c, 8, 36, 86
11, 32040, Note_on_c, 8, 36, 0
11, 32160, Note_on_c, 8, 43, 86
11, 32280, Note_on_c, 8, 43, 0
11, 32400, Note_on_c, 8, 43, 86
11, 32520, Note_on_c, 8, 43, 0
11, 32640, Note_on_c, 8, 45, 86
11, 32760, Note_on_c, 8, 45, 0
11, 32880, Note_on_c, 8, 45, 86
11, 33000, Note_on_c, 8, 45, 0
11, 33120, Note_on_c, 8, 50, 86
11, 33240, Note_on_c, 8, 50, 0
11, 33360, Note_on_c, 8, 38, 86
11, 33480, Note_on_c, 8, 38, 0
11, 33600, Note_on_c, 8, 43, 86
11, 33720, Note_on_c, 8, 43, 0
11, 33840, Note_on_c, 8, 38, 86
11, 33960, Note_on_c, 8, 38, 0
11, 34080, Note_on_c, 8, 43, 86
11, 34200, Note_on_c, 8, 43, 0
11, 34320, Note_on_c, 8, 31, 86
11, 34320, Note_on_c, 8, 43, 86
11, 34440, Note_on_c, 8, 43, 0
11, 34440, Note_on_c, 8, 31, 0
11, 34440, End_track
12, 0, Start_track
12, 0, Title_t, "Drums"
12, 0, Control_c, 9, 123, 0
12, 0, Control_c, 9, 91, 40
12, 0, Control_c, 9, 93, 0
12, 167, Program_c, 9, 16
12, 168, Control_c, 9, 7, 80
12, 168, Control_c, 9, 10, 59
12, 960, Note_on_c, 9, 35, 79
12, 960, Note_on_c, 9, 42, 79
12, 960, Note_on_c, 9, 51, 79
12, 960, Note_on_c, 9, 70, 52
12, 961, Note_on_c, 9, 70, 0
12, 961, Note_on_c, 9, 35, 0
12, 961, Note_on_c, 9, 42, 0
12, 961, Note_on_c, 9, 51, 0
12, 1020, Note_on_c, 9, 42, 33
12, 1020, Note_on_c, 9, 70, 18
12, 1020, Note_on_c, 9, 69, 52
12, 1021, Note_on_c, 9, 69, 0
12, 1021, Note_on_c, 9, 70, 0
12, 1021, Note_on_c, 9, 42, 0
12, 1080, Note_on_c, 9, 42, 60
12, 1080, Note_on_c, 9, 37, 100
12, 1080, Note_on_c, 9, 70, 52
12, 1080, Note_on_c, 9, 69, 79
12, 1081, Note_on_c, 9, 69, 0
12, 1081, Note_on_c, 9, 42, 0
12, 1081, Note_on_c, 9, 37, 0
12, 1081, Note_on_c, 9, 70, 0
12, 1140, Note_on_c, 9, 35, 60
12, 1140, Note_on_c, 9, 42, 33
12, 1140, Note_on_c, 9, 70, 18
12, 1141, Note_on_c, 9, 70, 0
12, 1141, Note_on_c, 9, 42, 0
12, 1141, Note_on_c, 9, 35, 0
12, 1200, Note_on_c, 9, 35, 79
12, 1200, Note_on_c, 9, 42, 79
12, 1200, Note_on_c, 9, 70, 52
12, 1201, Note_on_c, 9, 70, 0
12, 1201, Note_on_c, 9, 42, 0
12, 1201, Note_on_c, 9, 35, 0
12, 1260, Note_on_c, 9, 42, 33
12, 1260, Note_on_c, 9, 70, 18
12, 1260, Note_on_c, 9, 69, 52
12, 1261, Note_on_c, 9, 69, 0
12, 1261, Note_on_c, 9, 70, 0
12, 1261, Note_on_c, 9, 42, 0
12, 1320, Note_on_c, 9, 42, 60
12, 1320, Note_on_c, 9, 37, 100
12, 1320, Note_on_c, 9, 70, 52
12, 1320, Note_on_c, 9, 69, 79
12, 1321, Note_on_c, 9, 69, 0
12, 1321, Note_on_c, 9, 42, 0
12, 1321, Note_on_c, 9, 37, 0
12, 1321, Note_on_c, 9, 70, 0
12, 1380, Note_on_c, 9, 35, 60
12, 1380, Note_on_c, 9, 42, 33
12, 1380, Note_on_c, 9, 70, 18
12, 1381, Note_on_c, 9, 70, 0
12, 1381, Note_on_c, 9, 42, 0
12, 1381, Note_on_c, 9, 35, 0
12, 1440, Note_on_c, 9, 35, 79
12, 1440, Note_on_c, 9, 42, 79
12, 1440, Note_on_c, 9, 70, 52
12, 1441, Note_on_c, 9, 70, 0
12, 1441, Note_on_c, 9, 42, 0
12, 1441, Note_on_c, 9, 35, 0
12, 1500, Note_on_c, 9, 42, 48
12, 1500, Note_on_c, 9, 70, 18
12, 1500, Note_on_c, 9, 69, 52
12, 1501, Note_on_c, 9, 69, 0
12, 1501, Note_on_c, 9, 70, 0
12, 1501, Note_on_c, 9, 42, 0
12, 1560, Note_on_c, 9, 42, 84
12, 1560, Note_on_c, 9, 37, 100
12, 1560, Note_on_c, 9, 70, 52
12, 1560, Note_on_c, 9, 69, 79
12, 1561, Note_on_c, 9, 69, 0
12, 1561, Note_on_c, 9, 42, 0
12, 1561, Note_on_c, 9, 37, 0
12, 1561, Note_on_c, 9, 70, 0
12, 1620, Note_on_c, 9, 35, 60
12, 1620, Note_on_c, 9, 42, 43
12, 1620, Note_on_c, 9, 70, 18
12, 1621, Note_on_c, 9, 70, 0
12, 1621, Note_on_c, 9, 42, 0
12, 1621, Note_on_c, 9, 35, 0
12, 1680, Note_on_c, 9, 35, 79
12, 1680, Note_on_c, 9, 42, 95
12, 1680, Note_on_c, 9, 70, 52
12, 1681, Note_on_c, 9, 70, 0
12, 1681, Note_on_c, 9, 42, 0
12, 1681, Note_on_c, 9, 35, 0
12, 1740, Note_on_c, 9, 42, 52
12, 1740, Note_on_c, 9, 70, 18
12, 1740, Note_on_c, 9, 69, 52
12, 1741, Note_on_c, 9, 69, 0
12, 1741, Note_on_c, 9, 70, 0
12, 1741, Note_on_c, 9, 42, 0
12, 1800, Note_on_c, 9, 42, 89
12, 1800, Note_on_c, 9, 37, 100
12, 1800, Note_on_c, 9, 70, 52
12, 1800, Note_on_c, 9, 69, 79
12, 1801, Note_on_c, 9, 69, 0
12, 1801, Note_on_c, 9, 42, 0
12, 1801, Note_on_c, 9, 37, 0
12, 1801, Note_on_c, 9, 70, 0
12, 1860, Note_on_c, 9, 35, 64
12, 1860, Note_on_c, 9, 46, 79
12, 1860, Note_on_c, 9, 70, 18
12, 1861, Note_on_c, 9, 70, 0
12, 1861, Note_on_c, 9, 46, 0
12, 1861, Note_on_c, 9, 35, 0
12, 1920, Note_on_c, 9, 35, 79
12, 1920, Note_on_c, 9, 42, 79
12, 1920, Note_on_c, 9, 70, 52
12, 1921, Note_on_c, 9, 70, 0
12, 1921, Note_on_c, 9, 42, 0
12, 1921, Note_on_c, 9, 35, 0
12, 1980, Note_on_c, 9, 46, 47
12, 1980, Note_on_c, 9, 70, 18
12, 1980, Note_on_c, 9, 69, 52
12, 1981, Note_on_c, 9, 69, 0
12, 1981, Note_on_c, 9, 70, 0
12, 1981, Note_on_c, 9, 46, 0
12, 2040, Note_on_c, 9, 42, 69
12, 2040, Note_on_c, 9, 37, 100
12, 2040, Note_on_c, 9, 70, 52
12, 2040, Note_on_c, 9, 69, 79
12, 2041, Note_on_c, 9, 69, 0
12, 2041, Note_on_c, 9, 42, 0
12, 2041, Note_on_c, 9, 37, 0
12, 2041, Note_on_c, 9, 70, 0
12, 2100, Note_on_c, 9, 35, 60
12, 2100, Note_on_c, 9, 46, 62
12, 2100, Note_on_c, 9, 70, 18
12, 2101, Note_on_c, 9, 70, 0
12, 2101, Note_on_c, 9, 46, 0
12, 2101, Note_on_c, 9, 35, 0
12, 2160, Note_on_c, 9, 35, 79
12, 2160, Note_on_c, 9, 42, 79
12, 2160, Note_on_c, 9, 70, 52
12, 2161, Note_on_c, 9, 70, 0
12, 2161, Note_on_c, 9, 42, 0
12, 2161, Note_on_c, 9, 35, 0
12, 2220, Note_on_c, 9, 42, 33
12, 2220, Note_on_c, 9, 70, 18
12, 2220, Note_on_c, 9, 69, 52
12, 2221, Note_on_c, 9, 69, 0
12, 2221, Note_on_c, 9, 70, 0
12, 2221, Note_on_c, 9, 42, 0
12, 2280, Note_on_c, 9, 42, 69
12, 2280, Note_on_c, 9, 37, 100
12, 2280, Note_on_c, 9, 70, 52
12, 2280, Note_on_c, 9, 69, 79
12, 2281, Note_on_c, 9, 69, 0
12, 2281, Note_on_c, 9, 42, 0
12, 2281, Note_on_c, 9, 37, 0
12, 2281, Note_on_c, 9, 70, 0
12, 2340, Note_on_c, 9, 35, 60
12, 2340, Note_on_c, 9, 42, 33
12, 2340, Note_on_c, 9, 70, 18
12, 2341, Note_on_c, 9, 70, 0
12, 2341, Note_on_c, 9, 42, 0
12, 2341, Note_on_c, 9, 35, 0
12, 2400, Note_on_c, 9, 35, 79
12, 2400, Note_on_c, 9, 42, 79
12, 2400, Note_on_c, 9, 70, 52
12, 2401, Note_on_c, 9, 70, 0
12, 2401, Note_on_c, 9, 42, 0
12, 2401, Note_on_c, 9, 35, 0
12, 2460, Note_on_c, 9, 42, 48
12, 2460, Note_on_c, 9, 70, 18
12, 2460, Note_on_c, 9, 69, 52
12, 2461, Note_on_c, 9, 69, 0
12, 2461, Note_on_c, 9, 70, 0
12, 2461, Note_on_c, 9, 42, 0
12, 2520, Note_on_c, 9, 42, 84
12, 2520, Note_on_c, 9, 37, 100
12, 2520, Note_on_c, 9, 70, 52
12, 2520, Note_on_c, 9, 69, 79
12, 2521, Note_on_c, 9, 69, 0
12, 2521, Note_on_c, 9, 42, 0
12, 2521, Note_on_c, 9, 37, 0
12, 2521, Note_on_c, 9, 70, 0
12, 2580, Note_on_c, 9, 35, 60
12, 2580, Note_on_c, 9, 42, 62
12, 2580, Note_on_c, 9, 70, 18
12, 2581, Note_on_c, 9, 70, 0
12, 2581, Note_on_c, 9, 42, 0
12, 2581, Note_on_c, 9, 35, 0
12, 2640, Note_on_c, 9, 35, 79
12, 2640, Note_on_c, 9, 42, 69
12, 2640, Note_on_c, 9, 70, 52
12, 2641, Note_on_c, 9, 70, 0
12, 2641, Note_on_c, 9, 42, 0
12, 2641, Note_on_c, 9, 35, 0
12, 2700, Note_on_c, 9, 42, 79
12, 2700, Note_on_c, 9, 70, 18
12, 2700, Note_on_c, 9, 69, 52
12, 2701, Note_on_c, 9, 69, 0
12, 2701, Note_on_c, 9, 70, 0
12, 2701, Note_on_c, 9, 42, 0
12, 2760, Note_on_c, 9, 42, 89
12, 2760, Note_on_c, 9, 37, 100
12, 2760, Note_on_c, 9, 70, 52
12, 2760, Note_on_c, 9, 69, 79
12, 2761, Note_on_c, 9, 69, 0
12, 2761, Note_on_c, 9, 42, 0
12, 2761, Note_on_c, 9, 37, 0
12, 2761, Note_on_c, 9, 70, 0
12, 2820, Note_on_c, 9, 35, 64
12, 2820, Note_on_c, 9, 46, 79
12, 2820, Note_on_c, 9, 70, 18
12, 2821, Note_on_c, 9, 70, 0
12, 2821, Note_on_c, 9, 46, 0
12, 2821, Note_on_c, 9, 35, 0
12, 2880, Note_on_c, 9, 35, 79
12, 2880, Note_on_c, 9, 42, 79
12, 2880, Note_on_c, 9, 70, 52
12, 2881, Note_on_c, 9, 70, 0
12, 2881, Note_on_c, 9, 42, 0
12, 2881, Note_on_c, 9, 35, 0
12, 2940, Note_on_c, 9, 46, 47
12, 2940, Note_on_c, 9, 70, 18
12, 2940, Note_on_c, 9, 69, 52
12, 2941, Note_on_c, 9, 69, 0
12, 2941, Note_on_c, 9, 70, 0
12, 2941, Note_on_c, 9, 46, 0
12, 3000, Note_on_c, 9, 42, 69
12, 3000, Note_on_c, 9, 37, 100
12, 3000, Note_on_c, 9, 70, 52
12, 3000, Note_on_c, 9, 69, 79
12, 3001, Note_on_c, 9, 69, 0
12, 3001, Note_on_c, 9, 42, 0
12, 3001, Note_on_c, 9, 37, 0
12, 3001, Note_on_c, 9, 70, 0
12, 3060, Note_on_c, 9, 35, 60
12, 3060, Note_on_c, 9, 42, 33
12, 3060, Note_on_c, 9, 70, 18
12, 3061, Note_on_c, 9, 70, 0
12, 3061, Note_on_c, 9, 42, 0
12, 3061, Note_on_c, 9, 35, 0
12, 3120, Note_on_c, 9, 35, 79
12, 3120, Note_on_c, 9, 42, 79
12, 3120, Note_on_c, 9, 70, 52
12, 3121, Note_on_c, 9, 70, 0
12, 3121, Note_on_c, 9, 42, 0
12, 3121, Note_on_c, 9, 35, 0
12, 3180, Note_on_c, 9, 42, 33
12, 3180, Note_on_c, 9, 70, 18
12, 3180, Note_on_c, 9, 69, 52
12, 3181, Note_on_c, 9, 69, 0
12, 3181, Note_on_c, 9, 70, 0
12, 3181, Note_on_c, 9, 42, 0
12, 3240, Note_on_c, 9, 42, 69
12, 3240, Note_on_c, 9, 37, 100
12, 3240, Note_on_c, 9, 70, 52
12, 3240, Note_on_c, 9, 69, 79
12, 3241, Note_on_c, 9, 69, 0
12, 3241, Note_on_c, 9, 42, 0
12, 3241, Note_on_c, 9, 37, 0
12, 3241, Note_on_c, 9, 70, 0
12, 3300, Note_on_c, 9, 35, 60
12, 3300, Note_on_c, 9, 42, 33
12, 3300, Note_on_c, 9, 70, 18
12, 3301, Note_on_c, 9, 70, 0
12, 3301, Note_on_c, 9, 42, 0
12, 3301, Note_on_c, 9, 35, 0
12, 3360, Note_on_c, 9, 35, 79
12, 3360, Note_on_c, 9, 42, 79
12, 3360, Note_on_c, 9, 70, 52
12, 3361, Note_on_c, 9, 70, 0
12, 3361, Note_on_c, 9, 42, 0
12, 3361, Note_on_c, 9, 35, 0
12, 3420, Note_on_c, 9, 42, 48
12, 3420, Note_on_c, 9, 70, 18
12, 3420, Note_on_c, 9, 69, 52
12, 3421, Note_on_c, 9, 69, 0
12, 3421, Note_on_c, 9, 70, 0
12, 3421, Note_on_c, 9, 42, 0
12, 3480, Note_on_c, 9, 42, 84
12, 3480, Note_on_c, 9, 37, 100
12, 3480, Note_on_c, 9, 70, 52
12, 3480, Note_on_c, 9, 69, 79
12, 3481, Note_on_c, 9, 69, 0
12, 3481, Note_on_c, 9, 42, 0
12, 3481, Note_on_c, 9, 37, 0
12, 3481, Note_on_c, 9, 70, 0
12, 3540, Note_on_c, 9, 35, 60
12, 3540, Note_on_c, 9, 42, 43
12, 3540, Note_on_c, 9, 70, 18
12, 3541, Note_on_c, 9, 70, 0
12, 3541, Note_on_c, 9, 42, 0
12, 3541, Note_on_c, 9, 35, 0
12, 3600, Note_on_c, 9, 35, 79
12, 3600, Note_on_c, 9, 42, 95
12, 3600, Note_on_c, 9, 70, 52
12, 3601, Note_on_c, 9, 70, 0
12, 3601, Note_on_c, 9, 42, 0
12, 3601, Note_on_c, 9, 35, 0
12, 3660, Note_on_c, 9, 42, 79
12, 3660, Note_on_c, 9, 70, 18
12, 3660, Note_on_c, 9, 69, 52
12, 3661, Note_on_c, 9, 69, 0
12, 3661, Note_on_c, 9, 70, 0
12, 3661, Note_on_c, 9, 42, 0
12, 3720, Note_on_c, 9, 42, 89
12, 3720, Note_on_c, 9, 37, 100
12, 3720, Note_on_c, 9, 70, 52
12, 3720, Note_on_c, 9, 69, 79
12, 3721, Note_on_c, 9, 69, 0
12, 3721, Note_on_c, 9, 42, 0
12, 3721, Note_on_c, 9, 37, 0
12, 3721, Note_on_c, 9, 70, 0
12, 3780, Note_on_c, 9, 35, 64
12, 3780, Note_on_c, 9, 46, 79
12, 3780, Note_on_c, 9, 70, 18
12, 3781, Note_on_c, 9, 70, 0
12, 3781, Note_on_c, 9, 46, 0
12, 3781, Note_on_c, 9, 35, 0
12, 3840, Note_on_c, 9, 35, 79
12, 3840, Note_on_c, 9, 42, 79
12, 3840, Note_on_c, 9, 70, 52
12, 3841, Note_on_c, 9, 70, 0
12, 3841, Note_on_c, 9, 42, 0
12, 3841, Note_on_c, 9, 35, 0
12, 3900, Note_on_c, 9, 42, 33
12, 3900, Note_on_c, 9, 70, 18
12, 3900, Note_on_c, 9, 69, 52
12, 3901, Note_on_c, 9, 69, 0
12, 3901, Note_on_c, 9, 70, 0
12, 3901, Note_on_c, 9, 42, 0
12, 3960, Note_on_c, 9, 42, 69
12, 3960, Note_on_c, 9, 37, 100
12, 3960, Note_on_c, 9, 70, 52
12, 3960, Note_on_c, 9, 69, 79
12, 3961, Note_on_c, 9, 69, 0
12, 3961, Note_on_c, 9, 42, 0
12, 3961, Note_on_c, 9, 37, 0
12, 3961, Note_on_c, 9, 70, 0
12, 4020, Note_on_c, 9, 35, 60
12, 4020, Note_on_c, 9, 42, 33
12, 4020, Note_on_c, 9, 70, 18
12, 4021, Note_on_c, 9, 70, 0
12, 4021, Note_on_c, 9, 42, 0
12, 4021, Note_on_c, 9, 35, 0
12, 4080, Note_on_c, 9, 35, 79
12, 4080, Note_on_c, 9, 42, 79
12, 4080, Note_on_c, 9, 70, 52
12, 4081, Note_on_c, 9, 70, 0
12, 4081, Note_on_c, 9, 42, 0
12, 4081, Note_on_c, 9, 35, 0
12, 4140, Note_on_c, 9, 42, 33
12, 4140, Note_on_c, 9, 70, 18
12, 4140, Note_on_c, 9, 69, 52
12, 4141, Note_on_c, 9, 69, 0
12, 4141, Note_on_c, 9, 70, 0
12, 4141, Note_on_c, 9, 42, 0
12, 4200, Note_on_c, 9, 42, 69
12, 4200, Note_on_c, 9, 37, 100
12, 4200, Note_on_c, 9, 70, 52
12, 4200, Note_on_c, 9, 69, 79
12, 4201, Note_on_c, 9, 69, 0
12, 4201, Note_on_c, 9, 42, 0
12, 4201, Note_on_c, 9, 37, 0
12, 4201, Note_on_c, 9, 70, 0
12, 4260, Note_on_c, 9, 35, 60
12, 4260, Note_on_c, 9, 46, 62
12, 4260, Note_on_c, 9, 70, 18
12, 4261, Note_on_c, 9, 70, 0
12, 4261, Note_on_c, 9, 46, 0
12, 4261, Note_on_c, 9, 35, 0
12, 4320, Note_on_c, 9, 35, 79
12, 4320, Note_on_c, 9, 42, 79
12, 4320, Note_on_c, 9, 70, 52
12, 4321, Note_on_c, 9, 70, 0
12, 4321, Note_on_c, 9, 42, 0
12, 4321, Note_on_c, 9, 35, 0
12, 4380, Note_on_c, 9, 42, 33
12, 4380, Note_on_c, 9, 70, 18
12, 4380, Note_on_c, 9, 69, 52
12, 4381, Note_on_c, 9, 69, 0
12, 4381, Note_on_c, 9, 70, 0
12, 4381, Note_on_c, 9, 42, 0
12, 4440, Note_on_c, 9, 42, 89
12, 4440, Note_on_c, 9, 37, 100
12, 4440, Note_on_c, 9, 70, 52
12, 4440, Note_on_c, 9, 69, 79
12, 4441, Note_on_c, 9, 69, 0
12, 4441, Note_on_c, 9, 42, 0
12, 4441, Note_on_c, 9, 37, 0
12, 4441, Note_on_c, 9, 70, 0
12, 4500, Note_on_c, 9, 35, 60
12, 4500, Note_on_c, 9, 42, 33
12, 4500, Note_on_c, 9, 70, 18
12, 4501, Note_on_c, 9, 70, 0
12, 4501, Note_on_c, 9, 42, 0
12, 4501, Note_on_c, 9, 35, 0
12, 4560, Note_on_c, 9, 35, 79
12, 4560, Note_on_c, 9, 42, 79
12, 4560, Note_on_c, 9, 70, 52
12, 4561, Note_on_c, 9, 70, 0
12, 4561, Note_on_c, 9, 42, 0
12, 4561, Note_on_c, 9, 35, 0
12, 4620, Note_on_c, 9, 42, 33
12, 4620, Note_on_c, 9, 70, 18
12, 4620, Note_on_c, 9, 69, 52
12, 4621, Note_on_c, 9, 69, 0
12, 4621, Note_on_c, 9, 70, 0
12, 4621, Note_on_c, 9, 42, 0
12, 4680, Note_on_c, 9, 42, 89
12, 4680, Note_on_c, 9, 37, 100
12, 4680, Note_on_c, 9, 70, 52
12, 4680, Note_on_c, 9, 69, 79
12, 4681, Note_on_c, 9, 69, 0
12, 4681, Note_on_c, 9, 42, 0
12, 4681, Note_on_c, 9, 37, 0
12, 4681, Note_on_c, 9, 70, 0
12, 4740, Note_on_c, 9, 35, 64
12, 4740, Note_on_c, 9, 46, 79
12, 4740, Note_on_c, 9, 70, 18
12, 4741, Note_on_c, 9, 70, 0
12, 4741, Note_on_c, 9, 46, 0
12, 4741, Note_on_c, 9, 35, 0
12, 4800, Note_on_c, 9, 35, 79
12, 4800, Note_on_c, 9, 42, 79
12, 4800, Note_on_c, 9, 70, 52
12, 4801, Note_on_c, 9, 70, 0
12, 4801, Note_on_c, 9, 42, 0
12, 4801, Note_on_c, 9, 35, 0
12, 4860, Note_on_c, 9, 42, 33
12, 4860, Note_on_c, 9, 70, 18
12, 4860, Note_on_c, 9, 69, 52
12, 4861, Note_on_c, 9, 69, 0
12, 4861, Note_on_c, 9, 70, 0
12, 4861, Note_on_c, 9, 42, 0
12, 4920, Note_on_c, 9, 42, 60
12, 4920, Note_on_c, 9, 37, 100
12, 4920, Note_on_c, 9, 70, 52
12, 4920, Note_on_c, 9, 69, 79
12, 4921, Note_on_c, 9, 69, 0
12, 4921, Note_on_c, 9, 42, 0
12, 4921, Note_on_c, 9, 37, 0
12, 4921, Note_on_c, 9, 70, 0
12, 4980, Note_on_c, 9, 35, 60
12, 4980, Note_on_c, 9, 42, 33
12, 4980, Note_on_c, 9, 70, 18
12, 4981, Note_on_c, 9, 70, 0
12, 4981, Note_on_c, 9, 42, 0
12, 4981, Note_on_c, 9, 35, 0
12, 5040, Note_on_c, 9, 35, 79
12, 5040, Note_on_c, 9, 42, 79
12, 5040, Note_on_c, 9, 70, 52
12, 5041, Note_on_c, 9, 70, 0
12, 5041, Note_on_c, 9, 42, 0
12, 5041, Note_on_c, 9, 35, 0
12, 5100, Note_on_c, 9, 42, 33
12, 5100, Note_on_c, 9, 70, 18
12, 5100, Note_on_c, 9, 69, 52
12, 5101, Note_on_c, 9, 69, 0
12, 5101, Note_on_c, 9, 70, 0
12, 5101, Note_on_c, 9, 42, 0
12, 5160, Note_on_c, 9, 42, 60
12, 5160, Note_on_c, 9, 37, 100
12, 5160, Note_on_c, 9, 70, 52
12, 5160, Note_on_c, 9, 69, 79
12, 5161, Note_on_c, 9, 69, 0
12, 5161, Note_on_c, 9, 42, 0
12, 5161, Note_on_c, 9, 37, 0
12, 5161, Note_on_c, 9, 70, 0
12, 5220, Note_on_c, 9, 35, 60
12, 5220, Note_on_c, 9, 42, 33
12, 5220, Note_on_c, 9, 70, 18
12, 5221, Note_on_c, 9, 70, 0
12, 5221, Note_on_c, 9, 42, 0
12, 5221, Note_on_c, 9, 35, 0
12, 5280, Note_on_c, 9, 35, 79
12, 5280, Note_on_c, 9, 42, 79
12, 5280, Note_on_c, 9, 70, 52
12, 5281, Note_on_c, 9, 70, 0
12, 5281, Note_on_c, 9, 42, 0
12, 5281, Note_on_c, 9, 35, 0
12, 5340, Note_on_c, 9, 42, 33
12, 5340, Note_on_c, 9, 70, 18
12, 5340, Note_on_c, 9, 69, 52
12, 5341, Note_on_c, 9, 69, 0
12, 5341, Note_on_c, 9, 70, 0
12, 5341, Note_on_c, 9, 42, 0
12, 5400, Note_on_c, 9, 42, 89
12, 5400, Note_on_c, 9, 37, 100
12, 5400, Note_on_c, 9, 70, 52
12, 5400, Note_on_c, 9, 69, 79
12, 5401, Note_on_c, 9, 69, 0
12, 5401, Note_on_c, 9, 42, 0
12, 5401, Note_on_c, 9, 37, 0
12, 5401, Note_on_c, 9, 70, 0
12, 5460, Note_on_c, 9, 35, 60
12, 5460, Note_on_c, 9, 42, 33
12, 5460, Note_on_c, 9, 70, 18
12, 5461, Note_on_c, 9, 70, 0
12, 5461, Note_on_c, 9, 42, 0
12, 5461, Note_on_c, 9, 35, 0
12, 5520, Note_on_c, 9, 35, 79
12, 5520, Note_on_c, 9, 42, 79
12, 5520, Note_on_c, 9, 70, 52
12, 5521, Note_on_c, 9, 70, 0
12, 5521, Note_on_c, 9, 42, 0
12, 5521, Note_on_c, 9, 35, 0
12, 5580, Note_on_c, 9, 42, 33
12, 5580, Note_on_c, 9, 70, 18
12, 5580, Note_on_c, 9, 69, 52
12, 5581, Note_on_c, 9, 69, 0
12, 5581, Note_on_c, 9, 70, 0
12, 5581, Note_on_c, 9, 42, 0
12, 5640, Note_on_c, 9, 42, 89
12, 5640, Note_on_c, 9, 37, 100
12, 5640, Note_on_c, 9, 70, 52
12, 5640, Note_on_c, 9, 69, 79
12, 5641, Note_on_c, 9, 69, 0
12, 5641, Note_on_c, 9, 42, 0
12, 5641, Note_on_c, 9, 37, 0
12, 5641, Note_on_c, 9, 70, 0
12, 5700, Note_on_c, 9, 35, 64
12, 5700, Note_on_c, 9, 46, 79
12, 5700, Note_on_c, 9, 70, 18
12, 5701, Note_on_c, 9, 70, 0
12, 5701, Note_on_c, 9, 46, 0
12, 5701, Note_on_c, 9, 35, 0
12, 5760, Note_on_c, 9, 35, 79
12, 5760, Note_on_c, 9, 42, 79
12, 5760, Note_on_c, 9, 70, 52
12, 5761, Note_on_c, 9, 70, 0
12, 5761, Note_on_c, 9, 42, 0
12, 5761, Note_on_c, 9, 35, 0
12, 5820, Note_on_c, 9, 46, 47
12, 5820, Note_on_c, 9, 70, 18
12, 5820, Note_on_c, 9, 69, 52
12, 5821, Note_on_c, 9, 69, 0
12, 5821, Note_on_c, 9, 70, 0
12, 5821, Note_on_c, 9, 46, 0
12, 5880, Note_on_c, 9, 42, 69
12, 5880, Note_on_c, 9, 37, 100
12, 5880, Note_on_c, 9, 70, 52
12, 5880, Note_on_c, 9, 69, 79
12, 5881, Note_on_c, 9, 69, 0
12, 5881, Note_on_c, 9, 42, 0
12, 5881, Note_on_c, 9, 37, 0
12, 5881, Note_on_c, 9, 70, 0
12, 5940, Note_on_c, 9, 35, 60
12, 5940, Note_on_c, 9, 42, 33
12, 5940, Note_on_c, 9, 70, 18
12, 5941, Note_on_c, 9, 70, 0
12, 5941, Note_on_c, 9, 42, 0
12, 5941, Note_on_c, 9, 35, 0
12, 6000, Note_on_c, 9, 35, 79
12, 6000, Note_on_c, 9, 42, 79
12, 6000, Note_on_c, 9, 70, 52
12, 6001, Note_on_c, 9, 70, 0
12, 6001, Note_on_c, 9, 42, 0
12, 6001, Note_on_c, 9, 35, 0
12, 6060, Note_on_c, 9, 42, 33
12, 6060, Note_on_c, 9, 70, 18
12, 6060, Note_on_c, 9, 69, 52
12, 6061, Note_on_c, 9, 69, 0
12, 6061, Note_on_c, 9, 70, 0
12, 6061, Note_on_c, 9, 42, 0
12, 6120, Note_on_c, 9, 42, 69
12, 6120, Note_on_c, 9, 37, 100
12, 6120, Note_on_c, 9, 70, 52
12, 6120, Note_on_c, 9, 69, 79
12, 6121, Note_on_c, 9, 69, 0
12, 6121, Note_on_c, 9, 42, 0
12, 6121, Note_on_c, 9, 37, 0
12, 6121, Note_on_c, 9, 70, 0
12, 6180, Note_on_c, 9, 35, 60
12, 6180, Note_on_c, 9, 42, 33
12, 6180, Note_on_c, 9, 70, 18
12, 6181, Note_on_c, 9, 70, 0
12, 6181, Note_on_c, 9, 42, 0
12, 6181, Note_on_c, 9, 35, 0
12, 6240, Note_on_c, 9, 35, 79
12, 6240, Note_on_c, 9, 42, 79
12, 6240, Note_on_c, 9, 70, 52
12, 6241, Note_on_c, 9, 70, 0
12, 6241, Note_on_c, 9, 42, 0
12, 6241, Note_on_c, 9, 35, 0
12, 6300, Note_on_c, 9, 42, 33
12, 6300, Note_on_c, 9, 70, 18
12, 6300, Note_on_c, 9, 69, 52
12, 6301, Note_on_c, 9, 69, 0
12, 6301, Note_on_c, 9, 70, 0
12, 6301, Note_on_c, 9, 42, 0
12, 6360, Note_on_c, 9, 42, 89
12, 6360, Note_on_c, 9, 37, 100
12, 6360, Note_on_c, 9, 70, 52
12, 6360, Note_on_c, 9, 69, 79
12, 6361, Note_on_c, 9, 69, 0
12, 6361, Note_on_c, 9, 42, 0
12, 6361, Note_on_c, 9, 37, 0
12, 6361, Note_on_c, 9, 70, 0
12, 6420, Note_on_c, 9, 35, 60
12, 6420, Note_on_c, 9, 42, 33
12, 6420, Note_on_c, 9, 70, 18
12, 6421, Note_on_c, 9, 70, 0
12, 6421, Note_on_c, 9, 42, 0
12, 6421, Note_on_c, 9, 35, 0
12, 6480, Note_on_c, 9, 35, 79
12, 6480, Note_on_c, 9, 42, 79
12, 6480, Note_on_c, 9, 70, 52
12, 6481, Note_on_c, 9, 70, 0
12, 6481, Note_on_c, 9, 42, 0
12, 6481, Note_on_c, 9, 35, 0
12, 6540, Note_on_c, 9, 42, 33
12, 6540, Note_on_c, 9, 70, 18
12, 6540, Note_on_c, 9, 69, 52
12, 6541, Note_on_c, 9, 69, 0
12, 6541, Note_on_c, 9, 70, 0
12, 6541, Note_on_c, 9, 42, 0
12, 6600, Note_on_c, 9, 42, 89
12, 6600, Note_on_c, 9, 37, 100
12, 6600, Note_on_c, 9, 70, 52
12, 6600, Note_on_c, 9, 69, 79
12, 6601, Note_on_c, 9, 69, 0
12, 6601, Note_on_c, 9, 42, 0
12, 6601, Note_on_c, 9, 37, 0
12, 6601, Note_on_c, 9, 70, 0
12, 6660, Note_on_c, 9, 35, 64
12, 6660, Note_on_c, 9, 46, 79
12, 6660, Note_on_c, 9, 70, 18
12, 6661, Note_on_c, 9, 70, 0
12, 6661, Note_on_c, 9, 46, 0
12, 6661, Note_on_c, 9, 35, 0
12, 6720, Note_on_c, 9, 35, 79
12, 6720, Note_on_c, 9, 42, 79
12, 6720, Note_on_c, 9, 70, 52
12, 6721, Note_on_c, 9, 70, 0
12, 6721, Note_on_c, 9, 42, 0
12, 6721, Note_on_c, 9, 35, 0
12, 6780, Note_on_c, 9, 46, 47
12, 6780, Note_on_c, 9, 70, 18
12, 6780, Note_on_c, 9, 69, 52
12, 6781, Note_on_c, 9, 69, 0
12, 6781, Note_on_c, 9, 70, 0
12, 6781, Note_on_c, 9, 46, 0
12, 6840, Note_on_c, 9, 42, 69
12, 6840, Note_on_c, 9, 37, 100
12, 6840, Note_on_c, 9, 70, 52
12, 6840, Note_on_c, 9, 69, 79
12, 6841, Note_on_c, 9, 69, 0
12, 6841, Note_on_c, 9, 42, 0
12, 6841, Note_on_c, 9, 37, 0
12, 6841, Note_on_c, 9, 70, 0
12, 6900, Note_on_c, 9, 35, 60
12, 6900, Note_on_c, 9, 46, 62
12, 6900, Note_on_c, 9, 70, 18
12, 6901, Note_on_c, 9, 70, 0
12, 6901, Note_on_c, 9, 46, 0
12, 6901, Note_on_c, 9, 35, 0
12, 6960, Note_on_c, 9, 35, 79
12, 6960, Note_on_c, 9, 42, 79
12, 6960, Note_on_c, 9, 70, 52
12, 6961, Note_on_c, 9, 70, 0
12, 6961, Note_on_c, 9, 42, 0
12, 6961, Note_on_c, 9, 35, 0
12, 7020, Note_on_c, 9, 42, 33
12, 7020, Note_on_c, 9, 70, 18
12, 7020, Note_on_c, 9, 69, 52
12, 7021, Note_on_c, 9, 69, 0
12, 7021, Note_on_c, 9, 70, 0
12, 7021, Note_on_c, 9, 42, 0
12, 7080, Note_on_c, 9, 42, 69
12, 7080, Note_on_c, 9, 37, 100
12, 7080, Note_on_c, 9, 70, 52
12, 7080, Note_on_c, 9, 69, 79
12, 7081, Note_on_c, 9, 69, 0
12, 7081, Note_on_c, 9, 42, 0
12, 7081, Note_on_c, 9, 37, 0
12, 7081, Note_on_c, 9, 70, 0
12, 7140, Note_on_c, 9, 35, 60
12, 7140, Note_on_c, 9, 42, 33
12, 7140, Note_on_c, 9, 70, 18
12, 7141, Note_on_c, 9, 70, 0
12, 7141, Note_on_c, 9, 42, 0
12, 7141, Note_on_c, 9, 35, 0
12, 7200, Note_on_c, 9, 35, 79
12, 7200, Note_on_c, 9, 42, 79
12, 7200, Note_on_c, 9, 70, 52
12, 7201, Note_on_c, 9, 70, 0
12, 7201, Note_on_c, 9, 42, 0
12, 7201, Note_on_c, 9, 35, 0
12, 7260, Note_on_c, 9, 42, 33
12, 7260, Note_on_c, 9, 70, 18
12, 7260, Note_on_c, 9, 69, 52
12, 7261, Note_on_c, 9, 69, 0
12, 7261, Note_on_c, 9, 70, 0
12, 7261, Note_on_c, 9, 42, 0
12, 7320, Note_on_c, 9, 42, 89
12, 7320, Note_on_c, 9, 37, 100
12, 7320, Note_on_c, 9, 70, 52
12, 7320, Note_on_c, 9, 69, 79
12, 7321, Note_on_c, 9, 69, 0
12, 7321, Note_on_c, 9, 42, 0
12, 7321, Note_on_c, 9, 37, 0
12, 7321, Note_on_c, 9, 70, 0
12, 7380, Note_on_c, 9, 35, 60
12, 7380, Note_on_c, 9, 42, 33
12, 7380, Note_on_c, 9, 70, 18
12, 7381, Note_on_c, 9, 70, 0
12, 7381, Note_on_c, 9, 42, 0
12, 7381, Note_on_c, 9, 35, 0
12, 7440, Note_on_c, 9, 35, 79
12, 7440, Note_on_c, 9, 42, 79
12, 7440, Note_on_c, 9, 70, 52
12, 7441, Note_on_c, 9, 70, 0
12, 7441, Note_on_c, 9, 42, 0
12, 7441, Note_on_c, 9, 35, 0
12, 7500, Note_on_c, 9, 42, 33
12, 7500, Note_on_c, 9, 70, 18
12, 7500, Note_on_c, 9, 69, 52
12, 7501, Note_on_c, 9, 69, 0
12, 7501, Note_on_c, 9, 70, 0
12, 7501, Note_on_c, 9, 42, 0
12, 7560, Note_on_c, 9, 42, 89
12, 7560, Note_on_c, 9, 37, 100
12, 7560, Note_on_c, 9, 70, 52
12, 7560, Note_on_c, 9, 69, 79
12, 7561, Note_on_c, 9, 69, 0
12, 7561, Note_on_c, 9, 42, 0
12, 7561, Note_on_c, 9, 37, 0
12, 7561, Note_on_c, 9, 70, 0
12, 7620, Note_on_c, 9, 35, 64
12, 7620, Note_on_c, 9, 46, 79
12, 7620, Note_on_c, 9, 70, 18
12, 7621, Note_on_c, 9, 70, 0
12, 7621, Note_on_c, 9, 46, 0
12, 7621, Note_on_c, 9, 35, 0
12, 7680, Note_on_c, 9, 35, 79
12, 7680, Note_on_c, 9, 42, 79
12, 7680, Note_on_c, 9, 70, 52
12, 7681, Note_on_c, 9, 70, 0
12, 7681, Note_on_c, 9, 42, 0
12, 7681, Note_on_c, 9, 35, 0
12, 7740, Note_on_c, 9, 46, 47
12, 7740, Note_on_c, 9, 70, 18
12, 7740, Note_on_c, 9, 69, 52
12, 7741, Note_on_c, 9, 69, 0
12, 7741, Note_on_c, 9, 70, 0
12, 7741, Note_on_c, 9, 46, 0
12, 7800, Note_on_c, 9, 42, 69
12, 7800, Note_on_c, 9, 37, 100
12, 7800, Note_on_c, 9, 70, 52
12, 7800, Note_on_c, 9, 69, 79
12, 7801, Note_on_c, 9, 69, 0
12, 7801, Note_on_c, 9, 42, 0
12, 7801, Note_on_c, 9, 37, 0
12, 7801, Note_on_c, 9, 70, 0
12, 7860, Note_on_c, 9, 35, 60
12, 7860, Note_on_c, 9, 42, 33
12, 7860, Note_on_c, 9, 70, 18
12, 7861, Note_on_c, 9, 70, 0
12, 7861, Note_on_c, 9, 42, 0
12, 7861, Note_on_c, 9, 35, 0
12, 7920, Note_on_c, 9, 35, 79
12, 7920, Note_on_c, 9, 42, 79
12, 7920, Note_on_c, 9, 70, 52
12, 7921, Note_on_c, 9, 70, 0
12, 7921, Note_on_c, 9, 42, 0
12, 7921, Note_on_c, 9, 35, 0
12, 7980, Note_on_c, 9, 42, 33
12, 7980, Note_on_c, 9, 70, 18
12, 7980, Note_on_c, 9, 69, 52
12, 7981, Note_on_c, 9, 69, 0
12, 7981, Note_on_c, 9, 70, 0
12, 7981, Note_on_c, 9, 42, 0
12, 8040, Note_on_c, 9, 42, 69
12, 8040, Note_on_c, 9, 37, 100
12, 8040, Note_on_c, 9, 70, 52
12, 8040, Note_on_c, 9, 69, 79
12, 8041, Note_on_c, 9, 69, 0
12, 8041, Note_on_c, 9, 42, 0
12, 8041, Note_on_c, 9, 37, 0
12, 8041, Note_on_c, 9, 70, 0
12, 8100, Note_on_c, 9, 35, 60
12, 8100, Note_on_c, 9, 46, 62
12, 8100, Note_on_c, 9, 70, 18
12, 8101, Note_on_c, 9, 70, 0
12, 8101, Note_on_c, 9, 46, 0
12, 8101, Note_on_c, 9, 35, 0
12, 8160, Note_on_c, 9, 35, 79
12, 8160, Note_on_c, 9, 42, 79
12, 8160, Note_on_c, 9, 70, 52
12, 8161, Note_on_c, 9, 70, 0
12, 8161, Note_on_c, 9, 42, 0
12, 8161, Note_on_c, 9, 35, 0
12, 8220, Note_on_c, 9, 42, 37
12, 8220, Note_on_c, 9, 70, 18
12, 8220, Note_on_c, 9, 69, 52
12, 8221, Note_on_c, 9, 69, 0
12, 8221, Note_on_c, 9, 70, 0
12, 8221, Note_on_c, 9, 42, 0
12, 8280, Note_on_c, 9, 42, 89
12, 8280, Note_on_c, 9, 37, 100
12, 8280, Note_on_c, 9, 70, 52
12, 8280, Note_on_c, 9, 69, 79
12, 8281, Note_on_c, 9, 69, 0
12, 8281, Note_on_c, 9, 42, 0
12, 8281, Note_on_c, 9, 37, 0
12, 8281, Note_on_c, 9, 70, 0
12, 8340, Note_on_c, 9, 35, 60
12, 8340, Note_on_c, 9, 42, 48
12, 8340, Note_on_c, 9, 70, 18
12, 8341, Note_on_c, 9, 70, 0
12, 8341, Note_on_c, 9, 42, 0
12, 8341, Note_on_c, 9, 35, 0
12, 8400, Note_on_c, 9, 35, 79
12, 8400, Note_on_c, 9, 42, 79
12, 8400, Note_on_c, 9, 70, 52
12, 8401, Note_on_c, 9, 70, 0
12, 8401, Note_on_c, 9, 42, 0
12, 8401, Note_on_c, 9, 35, 0
12, 8460, Note_on_c, 9, 46, 47
12, 8460, Note_on_c, 9, 70, 18
12, 8460, Note_on_c, 9, 69, 52
12, 8461, Note_on_c, 9, 69, 0
12, 8461, Note_on_c, 9, 70, 0
12, 8461, Note_on_c, 9, 46, 0
12, 8520, Note_on_c, 9, 46, 79
12, 8520, Note_on_c, 9, 37, 100
12, 8520, Note_on_c, 9, 70, 52
12, 8520, Note_on_c, 9, 69, 79
12, 8521, Note_on_c, 9, 69, 0
12, 8521, Note_on_c, 9, 46, 0
12, 8521, Note_on_c, 9, 37, 0
12, 8521, Note_on_c, 9, 70, 0
12, 8580, Note_on_c, 9, 35, 64
12, 8580, Note_on_c, 9, 42, 52
12, 8580, Note_on_c, 9, 70, 18
12, 8581, Note_on_c, 9, 70, 0
12, 8581, Note_on_c, 9, 42, 0
12, 8581, Note_on_c, 9, 35, 0
12, 8640, Note_on_c, 9, 35, 79
12, 8640, Note_on_c, 9, 42, 79
12, 8640, Note_on_c, 9, 70, 52
12, 8641, Note_on_c, 9, 70, 0
12, 8641, Note_on_c, 9, 42, 0
12, 8641, Note_on_c, 9, 35, 0
12, 8700, Note_on_c, 9, 42, 33
12, 8700, Note_on_c, 9, 70, 18
12, 8700, Note_on_c, 9, 69, 52
12, 8701, Note_on_c, 9, 69, 0
12, 8701, Note_on_c, 9, 70, 0
12, 8701, Note_on_c, 9, 42, 0
12, 8760, Note_on_c, 9, 42, 69
12, 8760, Note_on_c, 9, 37, 100
12, 8760, Note_on_c, 9, 70, 52
12, 8760, Note_on_c, 9, 69, 79
12, 8761, Note_on_c, 9, 69, 0
12, 8761, Note_on_c, 9, 42, 0
12, 8761, Note_on_c, 9, 37, 0
12, 8761, Note_on_c, 9, 70, 0
12, 8820, Note_on_c, 9, 35, 60
12, 8820, Note_on_c, 9, 42, 33
12, 8820, Note_on_c, 9, 70, 18
12, 8821, Note_on_c, 9, 70, 0
12, 8821, Note_on_c, 9, 42, 0
12, 8821, Note_on_c, 9, 35, 0
12, 8880, Note_on_c, 9, 35, 79
12, 8880, Note_on_c, 9, 42, 79
12, 8880, Note_on_c, 9, 70, 52
12, 8881, Note_on_c, 9, 70, 0
12, 8881, Note_on_c, 9, 42, 0
12, 8881, Note_on_c, 9, 35, 0
12, 8940, Note_on_c, 9, 42, 33
12, 8940, Note_on_c, 9, 70, 18
12, 8940, Note_on_c, 9, 69, 52
12, 8941, Note_on_c, 9, 69, 0
12, 8941, Note_on_c, 9, 70, 0
12, 8941, Note_on_c, 9, 42, 0
12, 9000, Note_on_c, 9, 42, 69
12, 9000, Note_on_c, 9, 37, 100
12, 9000, Note_on_c, 9, 70, 52
12, 9000, Note_on_c, 9, 69, 79
12, 9001, Note_on_c, 9, 69, 0
12, 9001, Note_on_c, 9, 42, 0
12, 9001, Note_on_c, 9, 37, 0
12, 9001, Note_on_c, 9, 70, 0
12, 9060, Note_on_c, 9, 35, 60
12, 9060, Note_on_c, 9, 46, 62
12, 9060, Note_on_c, 9, 70, 18
12, 9061, Note_on_c, 9, 70, 0
12, 9061, Note_on_c, 9, 46, 0
12, 9061, Note_on_c, 9, 35, 0
12, 9120, Note_on_c, 9, 35, 79
12, 9120, Note_on_c, 9, 42, 79
12, 9120, Note_on_c, 9, 70, 52
12, 9121, Note_on_c, 9, 70, 0
12, 9121, Note_on_c, 9, 42, 0
12, 9121, Note_on_c, 9, 35, 0
12, 9180, Note_on_c, 9, 42, 33
12, 9180, Note_on_c, 9, 70, 18
12, 9180, Note_on_c, 9, 69, 52
12, 9181, Note_on_c, 9, 69, 0
12, 9181, Note_on_c, 9, 70, 0
12, 9181, Note_on_c, 9, 42, 0
12, 9240, Note_on_c, 9, 42, 89
12, 9240, Note_on_c, 9, 37, 100
12, 9240, Note_on_c, 9, 70, 52
12, 9240, Note_on_c, 9, 69, 79
12, 9241, Note_on_c, 9, 69, 0
12, 9241, Note_on_c, 9, 42, 0
12, 9241, Note_on_c, 9, 37, 0
12, 9241, Note_on_c, 9, 70, 0
12, 9300, Note_on_c, 9, 35, 60
12, 9300, Note_on_c, 9, 42, 33
12, 9300, Note_on_c, 9, 70, 18
12, 9301, Note_on_c, 9, 70, 0
12, 9301, Note_on_c, 9, 42, 0
12, 9301, Note_on_c, 9, 35, 0
12, 9360, Note_on_c, 9, 35, 79
12, 9360, Note_on_c, 9, 42, 79
12, 9360, Note_on_c, 9, 70, 52
12, 9361, Note_on_c, 9, 70, 0
12, 9361, Note_on_c, 9, 42, 0
12, 9361, Note_on_c, 9, 35, 0
12, 9420, Note_on_c, 9, 42, 33
12, 9420, Note_on_c, 9, 70, 18
12, 9420, Note_on_c, 9, 69, 52
12, 9421, Note_on_c, 9, 69, 0
12, 9421, Note_on_c, 9, 70, 0
12, 9421, Note_on_c, 9, 42, 0
12, 9480, Note_on_c, 9, 42, 89
12, 9480, Note_on_c, 9, 37, 100
12, 9480, Note_on_c, 9, 70, 52
12, 9480, Note_on_c, 9, 69, 79
12, 9481, Note_on_c, 9, 69, 0
12, 9481, Note_on_c, 9, 42, 0
12, 9481, Note_on_c, 9, 37, 0
12, 9481, Note_on_c, 9, 70, 0
12, 9540, Note_on_c, 9, 35, 64
12, 9540, Note_on_c, 9, 46, 79
12, 9540, Note_on_c, 9, 70, 18
12, 9541, Note_on_c, 9, 70, 0
12, 9541, Note_on_c, 9, 46, 0
12, 9541, Note_on_c, 9, 35, 0
12, 9600, Note_on_c, 9, 35, 79
12, 9600, Note_on_c, 9, 42, 79
12, 9600, Note_on_c, 9, 70, 52
12, 9601, Note_on_c, 9, 70, 0
12, 9601, Note_on_c, 9, 42, 0
12, 9601, Note_on_c, 9, 35, 0
12, 9660, Note_on_c, 9, 42, 33
12, 9660, Note_on_c, 9, 70, 18
12, 9660, Note_on_c, 9, 69, 52
12, 9661, Note_on_c, 9, 69, 0
12, 9661, Note_on_c, 9, 70, 0
12, 9661, Note_on_c, 9, 42, 0
12, 9720, Note_on_c, 9, 42, 69
12, 9720, Note_on_c, 9, 37, 100
12, 9720, Note_on_c, 9, 70, 52
12, 9720, Note_on_c, 9, 69, 79
12, 9721, Note_on_c, 9, 69, 0
12, 9721, Note_on_c, 9, 42, 0
12, 9721, Note_on_c, 9, 37, 0
12, 9721, Note_on_c, 9, 70, 0
12, 9780, Note_on_c, 9, 35, 60
12, 9780, Note_on_c, 9, 42, 33
12, 9780, Note_on_c, 9, 70, 18
12, 9781, Note_on_c, 9, 70, 0
12, 9781, Note_on_c, 9, 42, 0
12, 9781, Note_on_c, 9, 35, 0
12, 9840, Note_on_c, 9, 35, 79
12, 9840, Note_on_c, 9, 42, 79
12, 9840, Note_on_c, 9, 70, 52
12, 9841, Note_on_c, 9, 70, 0
12, 9841, Note_on_c, 9, 42, 0
12, 9841, Note_on_c, 9, 35, 0
12, 9900, Note_on_c, 9, 42, 33
12, 9900, Note_on_c, 9, 70, 18
12, 9900, Note_on_c, 9, 69, 52
12, 9901, Note_on_c, 9, 69, 0
12, 9901, Note_on_c, 9, 70, 0
12, 9901, Note_on_c, 9, 42, 0
12, 9960, Note_on_c, 9, 42, 69
12, 9960, Note_on_c, 9, 37, 100
12, 9960, Note_on_c, 9, 70, 52
12, 9960, Note_on_c, 9, 69, 79
12, 9961, Note_on_c, 9, 69, 0
12, 9961, Note_on_c, 9, 42, 0
12, 9961, Note_on_c, 9, 37, 0
12, 9961, Note_on_c, 9, 70, 0
12, 10020, Note_on_c, 9, 35, 60
12, 10020, Note_on_c, 9, 42, 33
12, 10020, Note_on_c, 9, 70, 18
12, 10021, Note_on_c, 9, 70, 0
12, 10021, Note_on_c, 9, 42, 0
12, 10021, Note_on_c, 9, 35, 0
12, 10080, Note_on_c, 9, 35, 79
12, 10080, Note_on_c, 9, 42, 79
12, 10080, Note_on_c, 9, 70, 52
12, 10081, Note_on_c, 9, 70, 0
12, 10081, Note_on_c, 9, 42, 0
12, 10081, Note_on_c, 9, 35, 0
12, 10140, Note_on_c, 9, 42, 33
12, 10140, Note_on_c, 9, 70, 18
12, 10140, Note_on_c, 9, 69, 52
12, 10141, Note_on_c, 9, 69, 0
12, 10141, Note_on_c, 9, 70, 0
12, 10141, Note_on_c, 9, 42, 0
12, 10200, Note_on_c, 9, 42, 89
12, 10200, Note_on_c, 9, 37, 100
12, 10200, Note_on_c, 9, 70, 52
12, 10200, Note_on_c, 9, 69, 79
12, 10201, Note_on_c, 9, 69, 0
12, 10201, Note_on_c, 9, 42, 0
12, 10201, Note_on_c, 9, 37, 0
12, 10201, Note_on_c, 9, 70, 0
12, 10260, Note_on_c, 9, 35, 60
12, 10260, Note_on_c, 9, 42, 33
12, 10260, Note_on_c, 9, 70, 18
12, 10261, Note_on_c, 9, 70, 0
12, 10261, Note_on_c, 9, 42, 0
12, 10261, Note_on_c, 9, 35, 0
12, 10320, Note_on_c, 9, 35, 79
12, 10320, Note_on_c, 9, 42, 79
12, 10320, Note_on_c, 9, 70, 52
12, 10321, Note_on_c, 9, 70, 0
12, 10321, Note_on_c, 9, 42, 0
12, 10321, Note_on_c, 9, 35, 0
12, 10380, Note_on_c, 9, 42, 33
12, 10380, Note_on_c, 9, 70, 18
12, 10380, Note_on_c, 9, 69, 52
12, 10381, Note_on_c, 9, 69, 0
12, 10381, Note_on_c, 9, 70, 0
12, 10381, Note_on_c, 9, 42, 0
12, 10440, Note_on_c, 9, 42, 89
12, 10440, Note_on_c, 9, 37, 100
12, 10440, Note_on_c, 9, 70, 52
12, 10440, Note_on_c, 9, 69, 79
12, 10441, Note_on_c, 9, 69, 0
12, 10441, Note_on_c, 9, 42, 0
12, 10441, Note_on_c, 9, 37, 0
12, 10441, Note_on_c, 9, 70, 0
12, 10500, Note_on_c, 9, 35, 64
12, 10500, Note_on_c, 9, 46, 79
12, 10500, Note_on_c, 9, 70, 18
12, 10501, Note_on_c, 9, 70, 0
12, 10501, Note_on_c, 9, 46, 0
12, 10501, Note_on_c, 9, 35, 0
12, 10560, Note_on_c, 9, 35, 79
12, 10560, Note_on_c, 9, 42, 79
12, 10560, Note_on_c, 9, 70, 52
12, 10561, Note_on_c, 9, 70, 0
12, 10561, Note_on_c, 9, 42, 0
12, 10561, Note_on_c, 9, 35, 0
12, 10620, Note_on_c, 9, 42, 33
12, 10620, Note_on_c, 9, 70, 18
12, 10620, Note_on_c, 9, 69, 52
12, 10621, Note_on_c, 9, 69, 0
12, 10621, Note_on_c, 9, 70, 0
12, 10621, Note_on_c, 9, 42, 0
12, 10680, Note_on_c, 9, 42, 60
12, 10680, Note_on_c, 9, 37, 100
12, 10680, Note_on_c, 9, 70, 52
12, 10680, Note_on_c, 9, 69, 79
12, 10681, Note_on_c, 9, 69, 0
12, 10681, Note_on_c, 9, 42, 0
12, 10681, Note_on_c, 9, 37, 0
12, 10681, Note_on_c, 9, 70, 0
12, 10740, Note_on_c, 9, 35, 60
12, 10740, Note_on_c, 9, 42, 33
12, 10740, Note_on_c, 9, 70, 18
12, 10741, Note_on_c, 9, 70, 0
12, 10741, Note_on_c, 9, 42, 0
12, 10741, Note_on_c, 9, 35, 0
12, 10800, Note_on_c, 9, 35, 79
12, 10800, Note_on_c, 9, 42, 79
12, 10800, Note_on_c, 9, 70, 52
12, 10801, Note_on_c, 9, 70, 0
12, 10801, Note_on_c, 9, 42, 0
12, 10801, Note_on_c, 9, 35, 0
12, 10860, Note_on_c, 9, 42, 33
12, 10860, Note_on_c, 9, 70, 18
12, 10860, Note_on_c, 9, 69, 52
12, 10861, Note_on_c, 9, 69, 0
12, 10861, Note_on_c, 9, 70, 0
12, 10861, Note_on_c, 9, 42, 0
12, 10920, Note_on_c, 9, 42, 60
12, 10920, Note_on_c, 9, 37, 100
12, 10920, Note_on_c, 9, 70, 52
12, 10920, Note_on_c, 9, 69, 79
12, 10921, Note_on_c, 9, 69, 0
12, 10921, Note_on_c, 9, 42, 0
12, 10921, Note_on_c, 9, 37, 0
12, 10921, Note_on_c, 9, 70, 0
12, 10980, Note_on_c, 9, 35, 60
12, 10980, Note_on_c, 9, 42, 33
12, 10980, Note_on_c, 9, 70, 18
12, 10981, Note_on_c, 9, 70, 0
12, 10981, Note_on_c, 9, 42, 0
12, 10981, Note_on_c, 9, 35, 0
12, 11040, Note_on_c, 9, 35, 79
12, 11040, Note_on_c, 9, 42, 79
12, 11040, Note_on_c, 9, 70, 52
12, 11041, Note_on_c, 9, 70, 0
12, 11041, Note_on_c, 9, 42, 0
12, 11041, Note_on_c, 9, 35, 0
12, 11100, Note_on_c, 9, 42, 48
12, 11100, Note_on_c, 9, 70, 18
12, 11100, Note_on_c, 9, 69, 52
12, 11101, Note_on_c, 9, 69, 0
12, 11101, Note_on_c, 9, 70, 0
12, 11101, Note_on_c, 9, 42, 0
12, 11160, Note_on_c, 9, 42, 84
12, 11160, Note_on_c, 9, 37, 100
12, 11160, Note_on_c, 9, 70, 52
12, 11160, Note_on_c, 9, 69, 79
12, 11161, Note_on_c, 9, 69, 0
12, 11161, Note_on_c, 9, 42, 0
12, 11161, Note_on_c, 9, 37, 0
12, 11161, Note_on_c, 9, 70, 0
12, 11220, Note_on_c, 9, 35, 60
12, 11220, Note_on_c, 9, 42, 43
12, 11220, Note_on_c, 9, 70, 18
12, 11221, Note_on_c, 9, 70, 0
12, 11221, Note_on_c, 9, 42, 0
12, 11221, Note_on_c, 9, 35, 0
12, 11280, Note_on_c, 9, 35, 79
12, 11280, Note_on_c, 9, 42, 69
12, 11280, Note_on_c, 9, 70, 52
12, 11281, Note_on_c, 9, 70, 0
12, 11281, Note_on_c, 9, 42, 0
12, 11281, Note_on_c, 9, 35, 0
12, 11340, Note_on_c, 9, 42, 52
12, 11340, Note_on_c, 9, 70, 18
12, 11340, Note_on_c, 9, 69, 52
12, 11341, Note_on_c, 9, 69, 0
12, 11341, Note_on_c, 9, 70, 0
12, 11341, Note_on_c, 9, 42, 0
12, 11400, Note_on_c, 9, 42, 89
12, 11400, Note_on_c, 9, 37, 100
12, 11400, Note_on_c, 9, 70, 52
12, 11400, Note_on_c, 9, 69, 79
12, 11401, Note_on_c, 9, 69, 0
12, 11401, Note_on_c, 9, 42, 0
12, 11401, Note_on_c, 9, 37, 0
12, 11401, Note_on_c, 9, 70, 0
12, 11460, Note_on_c, 9, 35, 64
12, 11460, Note_on_c, 9, 46, 79
12, 11460, Note_on_c, 9, 70, 18
12, 11461, Note_on_c, 9, 70, 0
12, 11461, Note_on_c, 9, 46, 0
12, 11461, Note_on_c, 9, 35, 0
12, 11520, Note_on_c, 9, 35, 79
12, 11520, Note_on_c, 9, 42, 79
12, 11520, Note_on_c, 9, 70, 52
12, 11521, Note_on_c, 9, 70, 0
12, 11521, Note_on_c, 9, 42, 0
12, 11521, Note_on_c, 9, 35, 0
12, 11580, Note_on_c, 9, 42, 33
12, 11580, Note_on_c, 9, 70, 18
12, 11580, Note_on_c, 9, 69, 52
12, 11581, Note_on_c, 9, 69, 0
12, 11581, Note_on_c, 9, 70, 0
12, 11581, Note_on_c, 9, 42, 0
12, 11640, Note_on_c, 9, 42, 60
12, 11640, Note_on_c, 9, 37, 100
12, 11640, Note_on_c, 9, 70, 52
12, 11640, Note_on_c, 9, 69, 79
12, 11641, Note_on_c, 9, 69, 0
12, 11641, Note_on_c, 9, 42, 0
12, 11641, Note_on_c, 9, 37, 0
12, 11641, Note_on_c, 9, 70, 0
12, 11700, Note_on_c, 9, 35, 60
12, 11700, Note_on_c, 9, 42, 33
12, 11700, Note_on_c, 9, 70, 18
12, 11701, Note_on_c, 9, 70, 0
12, 11701, Note_on_c, 9, 42, 0
12, 11701, Note_on_c, 9, 35, 0
12, 11760, Note_on_c, 9, 35, 79
12, 11760, Note_on_c, 9, 42, 79
12, 11760, Note_on_c, 9, 70, 52
12, 11761, Note_on_c, 9, 70, 0
12, 11761, Note_on_c, 9, 42, 0
12, 11761, Note_on_c, 9, 35, 0
12, 11820, Note_on_c, 9, 42, 33
12, 11820, Note_on_c, 9, 70, 18
12, 11820, Note_on_c, 9, 69, 52
12, 11821, Note_on_c, 9, 69, 0
12, 11821, Note_on_c, 9, 70, 0
12, 11821, Note_on_c, 9, 42, 0
12, 11880, Note_on_c, 9, 42, 60
12, 11880, Note_on_c, 9, 37, 100
12, 11880, Note_on_c, 9, 70, 52
12, 11880, Note_on_c, 9, 69, 79
12, 11881, Note_on_c, 9, 69, 0
12, 11881, Note_on_c, 9, 42, 0
12, 11881, Note_on_c, 9, 37, 0
12, 11881, Note_on_c, 9, 70, 0
12, 11940, Note_on_c, 9, 35, 60
12, 11940, Note_on_c, 9, 42, 33
12, 11940, Note_on_c, 9, 70, 18
12, 11941, Note_on_c, 9, 70, 0
12, 11941, Note_on_c, 9, 42, 0
12, 11941, Note_on_c, 9, 35, 0
12, 12000, Note_on_c, 9, 35, 79
12, 12000, Note_on_c, 9, 42, 79
12, 12000, Note_on_c, 9, 70, 52
12, 12001, Note_on_c, 9, 70, 0
12, 12001, Note_on_c, 9, 42, 0
12, 12001, Note_on_c, 9, 35, 0
12, 12060, Note_on_c, 9, 42, 33
12, 12060, Note_on_c, 9, 70, 18
12, 12060, Note_on_c, 9, 69, 52
12, 12061, Note_on_c, 9, 69, 0
12, 12061, Note_on_c, 9, 70, 0
12, 12061, Note_on_c, 9, 42, 0
12, 12120, Note_on_c, 9, 42, 89
12, 12120, Note_on_c, 9, 37, 100
12, 12120, Note_on_c, 9, 70, 52
12, 12120, Note_on_c, 9, 69, 79
12, 12121, Note_on_c, 9, 69, 0
12, 12121, Note_on_c, 9, 42, 0
12, 12121, Note_on_c, 9, 37, 0
12, 12121, Note_on_c, 9, 70, 0
12, 12180, Note_on_c, 9, 35, 60
12, 12180, Note_on_c, 9, 42, 33
12, 12180, Note_on_c, 9, 70, 18
12, 12181, Note_on_c, 9, 70, 0
12, 12181, Note_on_c, 9, 42, 0
12, 12181, Note_on_c, 9, 35, 0
12, 12240, Note_on_c, 9, 35, 79
12, 12240, Note_on_c, 9, 42, 79
12, 12240, Note_on_c, 9, 70, 52
12, 12241, Note_on_c, 9, 70, 0
12, 12241, Note_on_c, 9, 42, 0
12, 12241, Note_on_c, 9, 35, 0
12, 12300, Note_on_c, 9, 42, 33
12, 12300, Note_on_c, 9, 70, 18
12, 12300, Note_on_c, 9, 69, 52
12, 12301, Note_on_c, 9, 69, 0
12, 12301, Note_on_c, 9, 70, 0
12, 12301, Note_on_c, 9, 42, 0
12, 12360, Note_on_c, 9, 42, 89
12, 12360, Note_on_c, 9, 37, 100
12, 12360, Note_on_c, 9, 70, 52
12, 12360, Note_on_c, 9, 69, 79
12, 12361, Note_on_c, 9, 69, 0
12, 12361, Note_on_c, 9, 42, 0
12, 12361, Note_on_c, 9, 37, 0
12, 12361, Note_on_c, 9, 70, 0
12, 12420, Note_on_c, 9, 35, 64
12, 12420, Note_on_c, 9, 46, 79
12, 12420, Note_on_c, 9, 70, 18
12, 12421, Note_on_c, 9, 70, 0
12, 12421, Note_on_c, 9, 46, 0
12, 12421, Note_on_c, 9, 35, 0
12, 12480, Note_on_c, 9, 35, 79
12, 12480, Note_on_c, 9, 42, 79
12, 12480, Note_on_c, 9, 70, 52
12, 12481, Note_on_c, 9, 70, 0
12, 12481, Note_on_c, 9, 42, 0
12, 12481, Note_on_c, 9, 35, 0
12, 12540, Note_on_c, 9, 42, 33
12, 12540, Note_on_c, 9, 70, 18
12, 12540, Note_on_c, 9, 69, 52
12, 12541, Note_on_c, 9, 69, 0
12, 12541, Note_on_c, 9, 70, 0
12, 12541, Note_on_c, 9, 42, 0
12, 12600, Note_on_c, 9, 42, 60
12, 12600, Note_on_c, 9, 37, 100
12, 12600, Note_on_c, 9, 70, 52
12, 12600, Note_on_c, 9, 69, 79
12, 12601, Note_on_c, 9, 69, 0
12, 12601, Note_on_c, 9, 42, 0
12, 12601, Note_on_c, 9, 37, 0
12, 12601, Note_on_c, 9, 70, 0
12, 12660, Note_on_c, 9, 35, 60
12, 12660, Note_on_c, 9, 42, 33
12, 12660, Note_on_c, 9, 70, 18
12, 12661, Note_on_c, 9, 70, 0
12, 12661, Note_on_c, 9, 42, 0
12, 12661, Note_on_c, 9, 35, 0
12, 12720, Note_on_c, 9, 35, 79
12, 12720, Note_on_c, 9, 42, 79
12, 12720, Note_on_c, 9, 70, 52
12, 12721, Note_on_c, 9, 70, 0
12, 12721, Note_on_c, 9, 42, 0
12, 12721, Note_on_c, 9, 35, 0
12, 12780, Note_on_c, 9, 42, 33
12, 12780, Note_on_c, 9, 70, 18
12, 12780, Note_on_c, 9, 69, 52
12, 12781, Note_on_c, 9, 69, 0
12, 12781, Note_on_c, 9, 70, 0
12, 12781, Note_on_c, 9, 42, 0
12, 12840, Note_on_c, 9, 42, 60
12, 12840, Note_on_c, 9, 37, 100
12, 12840, Note_on_c, 9, 70, 52
12, 12840, Note_on_c, 9, 69, 79
12, 12841, Note_on_c, 9, 69, 0
12, 12841, Note_on_c, 9, 42, 0
12, 12841, Note_on_c, 9, 37, 0
12, 12841, Note_on_c, 9, 70, 0
12, 12900, Note_on_c, 9, 35, 60
12, 12900, Note_on_c, 9, 42, 33
12, 12900, Note_on_c, 9, 70, 18
12, 12901, Note_on_c, 9, 70, 0
12, 12901, Note_on_c, 9, 42, 0
12, 12901, Note_on_c, 9, 35, 0
12, 12960, Note_on_c, 9, 35, 79
12, 12960, Note_on_c, 9, 42, 79
12, 12960, Note_on_c, 9, 70, 52
12, 12961, Note_on_c, 9, 70, 0
12, 12961, Note_on_c, 9, 42, 0
12, 12961, Note_on_c, 9, 35, 0
12, 13020, Note_on_c, 9, 42, 33
12, 13020, Note_on_c, 9, 70, 18
12, 13020, Note_on_c, 9, 69, 52
12, 13021, Note_on_c, 9, 69, 0
12, 13021, Note_on_c, 9, 70, 0
12, 13021, Note_on_c, 9, 42, 0
12, 13080, Note_on_c, 9, 42, 89
12, 13080, Note_on_c, 9, 37, 100
12, 13080, Note_on_c, 9, 70, 52
12, 13080, Note_on_c, 9, 69, 79
12, 13081, Note_on_c, 9, 69, 0
12, 13081, Note_on_c, 9, 42, 0
12, 13081, Note_on_c, 9, 37, 0
12, 13081, Note_on_c, 9, 70, 0
12, 13140, Note_on_c, 9, 35, 60
12, 13140, Note_on_c, 9, 42, 33
12, 13140, Note_on_c, 9, 70, 18
12, 13141, Note_on_c, 9, 70, 0
12, 13141, Note_on_c, 9, 42, 0
12, 13141, Note_on_c, 9, 35, 0
12, 13200, Note_on_c, 9, 35, 79
12, 13200, Note_on_c, 9, 42, 79
12, 13200, Note_on_c, 9, 70, 52
12, 13201, Note_on_c, 9, 70, 0
12, 13201, Note_on_c, 9, 42, 0
12, 13201, Note_on_c, 9, 35, 0
12, 13260, Note_on_c, 9, 42, 33
12, 13260, Note_on_c, 9, 70, 18
12, 13260, Note_on_c, 9, 69, 52
12, 13261, Note_on_c, 9, 69, 0
12, 13261, Note_on_c, 9, 70, 0
12, 13261, Note_on_c, 9, 42, 0
12, 13320, Note_on_c, 9, 42, 89
12, 13320, Note_on_c, 9, 37, 100
12, 13320, Note_on_c, 9, 70, 52
12, 13320, Note_on_c, 9, 69, 79
12, 13321, Note_on_c, 9, 69, 0
12, 13321, Note_on_c, 9, 42, 0
12, 13321, Note_on_c, 9, 37, 0
12, 13321, Note_on_c, 9, 70, 0
12, 13380, Note_on_c, 9, 35, 64
12, 13380, Note_on_c, 9, 46, 79
12, 13380, Note_on_c, 9, 70, 18
12, 13381, Note_on_c, 9, 70, 0
12, 13381, Note_on_c, 9, 46, 0
12, 13381, Note_on_c, 9, 35, 0
12, 13440, Note_on_c, 9, 35, 79
12, 13440, Note_on_c, 9, 42, 79
12, 13440, Note_on_c, 9, 70, 52
12, 13441, Note_on_c, 9, 70, 0
12, 13441, Note_on_c, 9, 42, 0
12, 13441, Note_on_c, 9, 35, 0
12, 13500, Note_on_c, 9, 42, 33
12, 13500, Note_on_c, 9, 70, 18
12, 13500, Note_on_c, 9, 69, 52
12, 13501, Note_on_c, 9, 69, 0
12, 13501, Note_on_c, 9, 70, 0
12, 13501, Note_on_c, 9, 42, 0
12, 13560, Note_on_c, 9, 42, 60
12, 13560, Note_on_c, 9, 37, 100
12, 13560, Note_on_c, 9, 70, 52
12, 13560, Note_on_c, 9, 69, 79
12, 13561, Note_on_c, 9, 69, 0
12, 13561, Note_on_c, 9, 42, 0
12, 13561, Note_on_c, 9, 37, 0
12, 13561, Note_on_c, 9, 70, 0
12, 13620, Note_on_c, 9, 35, 60
12, 13620, Note_on_c, 9, 42, 33
12, 13620, Note_on_c, 9, 70, 18
12, 13621, Note_on_c, 9, 70, 0
12, 13621, Note_on_c, 9, 42, 0
12, 13621, Note_on_c, 9, 35, 0
12, 13680, Note_on_c, 9, 35, 79
12, 13680, Note_on_c, 9, 42, 79
12, 13680, Note_on_c, 9, 70, 52
12, 13681, Note_on_c, 9, 70, 0
12, 13681, Note_on_c, 9, 42, 0
12, 13681, Note_on_c, 9, 35, 0
12, 13740, Note_on_c, 9, 42, 33
12, 13740, Note_on_c, 9, 70, 18
12, 13740, Note_on_c, 9, 69, 52
12, 13741, Note_on_c, 9, 69, 0
12, 13741, Note_on_c, 9, 70, 0
12, 13741, Note_on_c, 9, 42, 0
12, 13800, Note_on_c, 9, 42, 60
12, 13800, Note_on_c, 9, 37, 100
12, 13800, Note_on_c, 9, 70, 52
12, 13800, Note_on_c, 9, 69, 79
12, 13801, Note_on_c, 9, 69, 0
12, 13801, Note_on_c, 9, 42, 0
12, 13801, Note_on_c, 9, 37, 0
12, 13801, Note_on_c, 9, 70, 0
12, 13860, Note_on_c, 9, 35, 60
12, 13860, Note_on_c, 9, 42, 33
12, 13860, Note_on_c, 9, 70, 18
12, 13861, Note_on_c, 9, 70, 0
12, 13861, Note_on_c, 9, 42, 0
12, 13861, Note_on_c, 9, 35, 0
12, 13920, Note_on_c, 9, 35, 79
12, 13920, Note_on_c, 9, 42, 79
12, 13920, Note_on_c, 9, 70, 52
12, 13921, Note_on_c, 9, 70, 0
12, 13921, Note_on_c, 9, 42, 0
12, 13921, Note_on_c, 9, 35, 0
12, 13980, Note_on_c, 9, 42, 48
12, 13980, Note_on_c, 9, 70, 18
12, 13980, Note_on_c, 9, 69, 52
12, 13981, Note_on_c, 9, 69, 0
12, 13981, Note_on_c, 9, 70, 0
12, 13981, Note_on_c, 9, 42, 0
12, 14040, Note_on_c, 9, 42, 84
12, 14040, Note_on_c, 9, 37, 100
12, 14040, Note_on_c, 9, 70, 52
12, 14040, Note_on_c, 9, 69, 79
12, 14041, Note_on_c, 9, 69, 0
12, 14041, Note_on_c, 9, 42, 0
12, 14041, Note_on_c, 9, 37, 0
12, 14041, Note_on_c, 9, 70, 0
12, 14100, Note_on_c, 9, 35, 60
12, 14100, Note_on_c, 9, 42, 62
12, 14100, Note_on_c, 9, 70, 18
12, 14101, Note_on_c, 9, 70, 0
12, 14101, Note_on_c, 9, 42, 0
12, 14101, Note_on_c, 9, 35, 0
12, 14160, Note_on_c, 9, 35, 79
12, 14160, Note_on_c, 9, 42, 95
12, 14160, Note_on_c, 9, 70, 52
12, 14161, Note_on_c, 9, 70, 0
12, 14161, Note_on_c, 9, 42, 0
12, 14161, Note_on_c, 9, 35, 0
12, 14220, Note_on_c, 9, 42, 52
12, 14220, Note_on_c, 9, 70, 18
12, 14220, Note_on_c, 9, 69, 52
12, 14221, Note_on_c, 9, 69, 0
12, 14221, Note_on_c, 9, 70, 0
12, 14221, Note_on_c, 9, 42, 0
12, 14280, Note_on_c, 9, 42, 89
12, 14280, Note_on_c, 9, 37, 100
12, 14280, Note_on_c, 9, 70, 52
12, 14280, Note_on_c, 9, 69, 79
12, 14281, Note_on_c, 9, 69, 0
12, 14281, Note_on_c, 9, 42, 0
12, 14281, Note_on_c, 9, 37, 0
12, 14281, Note_on_c, 9, 70, 0
12, 14340, Note_on_c, 9, 35, 64
12, 14340, Note_on_c, 9, 46, 79
12, 14340, Note_on_c, 9, 70, 18
12, 14341, Note_on_c, 9, 70, 0
12, 14341, Note_on_c, 9, 46, 0
12, 14341, Note_on_c, 9, 35, 0
12, 14400, Note_on_c, 9, 35, 79
12, 14400, Note_on_c, 9, 42, 79
12, 14400, Note_on_c, 9, 70, 52
12, 14401, Note_on_c, 9, 70, 0
12, 14401, Note_on_c, 9, 42, 0
12, 14401, Note_on_c, 9, 35, 0
12, 14460, Note_on_c, 9, 42, 33
12, 14460, Note_on_c, 9, 70, 18
12, 14460, Note_on_c, 9, 69, 52
12, 14461, Note_on_c, 9, 69, 0
12, 14461, Note_on_c, 9, 70, 0
12, 14461, Note_on_c, 9, 42, 0
12, 14520, Note_on_c, 9, 42, 60
12, 14520, Note_on_c, 9, 37, 100
12, 14520, Note_on_c, 9, 70, 52
12, 14520, Note_on_c, 9, 69, 79
12, 14521, Note_on_c, 9, 69, 0
12, 14521, Note_on_c, 9, 42, 0
12, 14521, Note_on_c, 9, 37, 0
12, 14521, Note_on_c, 9, 70, 0
12, 14580, Note_on_c, 9, 35, 60
12, 14580, Note_on_c, 9, 42, 33
12, 14580, Note_on_c, 9, 70, 18
12, 14581, Note_on_c, 9, 70, 0
12, 14581, Note_on_c, 9, 42, 0
12, 14581, Note_on_c, 9, 35, 0
12, 14640, Note_on_c, 9, 35, 79
12, 14640, Note_on_c, 9, 42, 79
12, 14640, Note_on_c, 9, 70, 52
12, 14641, Note_on_c, 9, 70, 0
12, 14641, Note_on_c, 9, 42, 0
12, 14641, Note_on_c, 9, 35, 0
12, 14700, Note_on_c, 9, 42, 33
12, 14700, Note_on_c, 9, 70, 18
12, 14700, Note_on_c, 9, 69, 52
12, 14701, Note_on_c, 9, 69, 0
12, 14701, Note_on_c, 9, 70, 0
12, 14701, Note_on_c, 9, 42, 0
12, 14760, Note_on_c, 9, 42, 60
12, 14760, Note_on_c, 9, 37, 100
12, 14760, Note_on_c, 9, 70, 52
12, 14760, Note_on_c, 9, 69, 79
12, 14761, Note_on_c, 9, 69, 0
12, 14761, Note_on_c, 9, 42, 0
12, 14761, Note_on_c, 9, 37, 0
12, 14761, Note_on_c, 9, 70, 0
12, 14820, Note_on_c, 9, 35, 60
12, 14820, Note_on_c, 9, 42, 33
12, 14820, Note_on_c, 9, 70, 18
12, 14821, Note_on_c, 9, 70, 0
12, 14821, Note_on_c, 9, 42, 0
12, 14821, Note_on_c, 9, 35, 0
12, 14880, Note_on_c, 9, 35, 79
12, 14880, Note_on_c, 9, 42, 79
12, 14880, Note_on_c, 9, 70, 52
12, 14881, Note_on_c, 9, 70, 0
12, 14881, Note_on_c, 9, 42, 0
12, 14881, Note_on_c, 9, 35, 0
12, 14940, Note_on_c, 9, 42, 33
12, 14940, Note_on_c, 9, 70, 18
12, 14940, Note_on_c, 9, 69, 52
12, 14941, Note_on_c, 9, 69, 0
12, 14941, Note_on_c, 9, 70, 0
12, 14941, Note_on_c, 9, 42, 0
12, 15000, Note_on_c, 9, 42, 89
12, 15000, Note_on_c, 9, 37, 100
12, 15000, Note_on_c, 9, 70, 52
12, 15000, Note_on_c, 9, 69, 79
12, 15001, Note_on_c, 9, 69, 0
12, 15001, Note_on_c, 9, 42, 0
12, 15001, Note_on_c, 9, 37, 0
12, 15001, Note_on_c, 9, 70, 0
12, 15060, Note_on_c, 9, 35, 60
12, 15060, Note_on_c, 9, 42, 33
12, 15060, Note_on_c, 9, 70, 18
12, 15061, Note_on_c, 9, 70, 0
12, 15061, Note_on_c, 9, 42, 0
12, 15061, Note_on_c, 9, 35, 0
12, 15120, Note_on_c, 9, 35, 79
12, 15120, Note_on_c, 9, 42, 79
12, 15120, Note_on_c, 9, 70, 52
12, 15121, Note_on_c, 9, 70, 0
12, 15121, Note_on_c, 9, 42, 0
12, 15121, Note_on_c, 9, 35, 0
12, 15180, Note_on_c, 9, 42, 33
12, 15180, Note_on_c, 9, 70, 18
12, 15180, Note_on_c, 9, 69, 52
12, 15181, Note_on_c, 9, 69, 0
12, 15181, Note_on_c, 9, 70, 0
12, 15181, Note_on_c, 9, 42, 0
12, 15240, Note_on_c, 9, 42, 89
12, 15240, Note_on_c, 9, 37, 100
12, 15240, Note_on_c, 9, 70, 52
12, 15240, Note_on_c, 9, 69, 79
12, 15241, Note_on_c, 9, 69, 0
12, 15241, Note_on_c, 9, 42, 0
12, 15241, Note_on_c, 9, 37, 0
12, 15241, Note_on_c, 9, 70, 0
12, 15300, Note_on_c, 9, 35, 64
12, 15300, Note_on_c, 9, 46, 79
12, 15300, Note_on_c, 9, 70, 18
12, 15301, Note_on_c, 9, 70, 0
12, 15301, Note_on_c, 9, 46, 0
12, 15301, Note_on_c, 9, 35, 0
12, 15360, Note_on_c, 9, 35, 79
12, 15360, Note_on_c, 9, 42, 79
12, 15360, Note_on_c, 9, 70, 52
12, 15361, Note_on_c, 9, 70, 0
12, 15361, Note_on_c, 9, 42, 0
12, 15361, Note_on_c, 9, 35, 0
12, 15420, Note_on_c, 9, 42, 33
12, 15420, Note_on_c, 9, 70, 18
12, 15420, Note_on_c, 9, 69, 52
12, 15421, Note_on_c, 9, 69, 0
12, 15421, Note_on_c, 9, 70, 0
12, 15421, Note_on_c, 9, 42, 0
12, 15480, Note_on_c, 9, 42, 60
12, 15480, Note_on_c, 9, 37, 100
12, 15480, Note_on_c, 9, 70, 52
12, 15480, Note_on_c, 9, 69, 79
12, 15481, Note_on_c, 9, 69, 0
12, 15481, Note_on_c, 9, 42, 0
12, 15481, Note_on_c, 9, 37, 0
12, 15481, Note_on_c, 9, 70, 0
12, 15540, Note_on_c, 9, 35, 60
12, 15540, Note_on_c, 9, 42, 33
12, 15540, Note_on_c, 9, 70, 18
12, 15541, Note_on_c, 9, 70, 0
12, 15541, Note_on_c, 9, 42, 0
12, 15541, Note_on_c, 9, 35, 0
12, 15600, Note_on_c, 9, 35, 79
12, 15600, Note_on_c, 9, 42, 79
12, 15600, Note_on_c, 9, 70, 52
12, 15601, Note_on_c, 9, 70, 0
12, 15601, Note_on_c, 9, 42, 0
12, 15601, Note_on_c, 9, 35, 0
12, 15660, Note_on_c, 9, 42, 33
12, 15660, Note_on_c, 9, 70, 18
12, 15660, Note_on_c, 9, 69, 52
12, 15661, Note_on_c, 9, 69, 0
12, 15661, Note_on_c, 9, 70, 0
12, 15661, Note_on_c, 9, 42, 0
12, 15720, Note_on_c, 9, 42, 60
12, 15720, Note_on_c, 9, 37, 100
12, 15720, Note_on_c, 9, 70, 52
12, 15720, Note_on_c, 9, 69, 79
12, 15721, Note_on_c, 9, 69, 0
12, 15721, Note_on_c, 9, 42, 0
12, 15721, Note_on_c, 9, 37, 0
12, 15721, Note_on_c, 9, 70, 0
12, 15780, Note_on_c, 9, 35, 60
12, 15780, Note_on_c, 9, 42, 33
12, 15780, Note_on_c, 9, 70, 18
12, 15781, Note_on_c, 9, 70, 0
12, 15781, Note_on_c, 9, 42, 0
12, 15781, Note_on_c, 9, 35, 0
12, 15840, Note_on_c, 9, 35, 79
12, 15840, Note_on_c, 9, 42, 79
12, 15840, Note_on_c, 9, 54, 79
12, 15840, Note_on_c, 9, 70, 52
12, 15841, Note_on_c, 9, 70, 0
12, 15841, Note_on_c, 9, 35, 0
12, 15841, Note_on_c, 9, 42, 0
12, 15841, Note_on_c, 9, 54, 0
12, 15900, Note_on_c, 9, 42, 33
12, 15900, Note_on_c, 9, 70, 18
12, 15900, Note_on_c, 9, 69, 52
12, 15901, Note_on_c, 9, 69, 0
12, 15901, Note_on_c, 9, 70, 0
12, 15901, Note_on_c, 9, 42, 0
12, 15960, Note_on_c, 9, 42, 89
12, 15960, Note_on_c, 9, 37, 100
12, 15960, Note_on_c, 9, 54, 52
12, 15960, Note_on_c, 9, 70, 52
12, 15960, Note_on_c, 9, 69, 79
12, 15961, Note_on_c, 9, 69, 0
12, 15961, Note_on_c, 9, 54, 0
12, 15961, Note_on_c, 9, 42, 0
12, 15961, Note_on_c, 9, 37, 0
12, 15961, Note_on_c, 9, 70, 0
12, 16020, Note_on_c, 9, 35, 60
12, 16020, Note_on_c, 9, 42, 33
12, 16020, Note_on_c, 9, 70, 18
12, 16021, Note_on_c, 9, 70, 0
12, 16021, Note_on_c, 9, 42, 0
12, 16021, Note_on_c, 9, 35, 0
12, 16080, Note_on_c, 9, 35, 79
12, 16080, Note_on_c, 9, 42, 79
12, 16080, Note_on_c, 9, 54, 79
12, 16080, Note_on_c, 9, 70, 52
12, 16081, Note_on_c, 9, 70, 0
12, 16081, Note_on_c, 9, 35, 0
12, 16081, Note_on_c, 9, 42, 0
12, 16081, Note_on_c, 9, 54, 0
12, 16140, Note_on_c, 9, 38, 52
12, 16140, Note_on_c, 9, 70, 18
12, 16140, Note_on_c, 9, 69, 52
12, 16141, Note_on_c, 9, 69, 0
12, 16141, Note_on_c, 9, 70, 0
12, 16141, Note_on_c, 9, 38, 0
12, 16200, Note_on_c, 9, 38, 100
12, 16200, Note_on_c, 9, 46, 89
12, 16200, Note_on_c, 9, 54, 52
12, 16200, Note_on_c, 9, 39, 69
12, 16200, Note_on_c, 9, 70, 52
12, 16200, Note_on_c, 9, 69, 79
12, 16201, Note_on_c, 9, 69, 0
12, 16201, Note_on_c, 9, 46, 0
12, 16201, Note_on_c, 9, 54, 0
12, 16201, Note_on_c, 9, 38, 0
12, 16201, Note_on_c, 9, 70, 0
12, 16201, Note_on_c, 9, 39, 0
12, 16260, Note_on_c, 9, 70, 18
12, 16261, Note_on_c, 9, 70, 0
12, 16320, Note_on_c, 9, 35, 79
12, 16320, Note_on_c, 9, 42, 79
12, 16320, Note_on_c, 9, 51, 79
12, 16320, Note_on_c, 9, 70, 52
12, 16321, Note_on_c, 9, 70, 0
12, 16321, Note_on_c, 9, 35, 0
12, 16321, Note_on_c, 9, 42, 0
12, 16321, Note_on_c, 9, 51, 0
12, 16380, Note_on_c, 9, 42, 33
12, 16380, Note_on_c, 9, 70, 18
12, 16380, Note_on_c, 9, 69, 52
12, 16381, Note_on_c, 9, 69, 0
12, 16381, Note_on_c, 9, 70, 0
12, 16381, Note_on_c, 9, 42, 0
12, 16440, Note_on_c, 9, 42, 60
12, 16440, Note_on_c, 9, 37, 100
12, 16440, Note_on_c, 9, 70, 52
12, 16440, Note_on_c, 9, 69, 79
12, 16441, Note_on_c, 9, 69, 0
12, 16441, Note_on_c, 9, 42, 0
12, 16441, Note_on_c, 9, 37, 0
12, 16441, Note_on_c, 9, 70, 0
12, 16500, Note_on_c, 9, 35, 60
12, 16500, Note_on_c, 9, 42, 33
12, 16500, Note_on_c, 9, 70, 18
12, 16501, Note_on_c, 9, 70, 0
12, 16501, Note_on_c, 9, 42, 0
12, 16501, Note_on_c, 9, 35, 0
12, 16560, Note_on_c, 9, 35, 79
12, 16560, Note_on_c, 9, 42, 79
12, 16560, Note_on_c, 9, 70, 52
12, 16561, Note_on_c, 9, 70, 0
12, 16561, Note_on_c, 9, 42, 0
12, 16561, Note_on_c, 9, 35, 0
12, 16620, Note_on_c, 9, 42, 33
12, 16620, Note_on_c, 9, 70, 18
12, 16620, Note_on_c, 9, 69, 52
12, 16621, Note_on_c, 9, 69, 0
12, 16621, Note_on_c, 9, 70, 0
12, 16621, Note_on_c, 9, 42, 0
12, 16680, Note_on_c, 9, 42, 60
12, 16680, Note_on_c, 9, 37, 100
12, 16680, Note_on_c, 9, 70, 52
12, 16680, Note_on_c, 9, 69, 79
12, 16681, Note_on_c, 9, 69, 0
12, 16681, Note_on_c, 9, 42, 0
12, 16681, Note_on_c, 9, 37, 0
12, 16681, Note_on_c, 9, 70, 0
12, 16740, Note_on_c, 9, 35, 60
12, 16740, Note_on_c, 9, 42, 33
12, 16740, Note_on_c, 9, 70, 18
12, 16741, Note_on_c, 9, 70, 0
12, 16741, Note_on_c, 9, 42, 0
12, 16741, Note_on_c, 9, 35, 0
12, 16800, Note_on_c, 9, 35, 79
12, 16800, Note_on_c, 9, 42, 79
12, 16800, Note_on_c, 9, 70, 52
12, 16801, Note_on_c, 9, 70, 0
12, 16801, Note_on_c, 9, 42, 0
12, 16801, Note_on_c, 9, 35, 0
12, 16860, Note_on_c, 9, 42, 48
12, 16860, Note_on_c, 9, 70, 18
12, 16860, Note_on_c, 9, 69, 52
12, 16861, Note_on_c, 9, 69, 0
12, 16861, Note_on_c, 9, 70, 0
12, 16861, Note_on_c, 9, 42, 0
12, 16920, Note_on_c, 9, 42, 84
12, 16920, Note_on_c, 9, 37, 100
12, 16920, Note_on_c, 9, 70, 52
12, 16920, Note_on_c, 9, 69, 79
12, 16921, Note_on_c, 9, 69, 0
12, 16921, Note_on_c, 9, 42, 0
12, 16921, Note_on_c, 9, 37, 0
12, 16921, Note_on_c, 9, 70, 0
12, 16980, Note_on_c, 9, 35, 60
12, 16980, Note_on_c, 9, 42, 62
12, 16980, Note_on_c, 9, 70, 18
12, 16981, Note_on_c, 9, 70, 0
12, 16981, Note_on_c, 9, 42, 0
12, 16981, Note_on_c, 9, 35, 0
12, 17040, Note_on_c, 9, 35, 79
12, 17040, Note_on_c, 9, 42, 95
12, 17040, Note_on_c, 9, 70, 52
12, 17041, Note_on_c, 9, 70, 0
12, 17041, Note_on_c, 9, 42, 0
12, 17041, Note_on_c, 9, 35, 0
12, 17100, Note_on_c, 9, 42, 52
12, 17100, Note_on_c, 9, 70, 18
12, 17100, Note_on_c, 9, 69, 52
12, 17101, Note_on_c, 9, 69, 0
12, 17101, Note_on_c, 9, 70, 0
12, 17101, Note_on_c, 9, 42, 0
12, 17160, Note_on_c, 9, 42, 89
12, 17160, Note_on_c, 9, 37, 100
12, 17160, Note_on_c, 9, 70, 52
12, 17160, Note_on_c, 9, 69, 79
12, 17161, Note_on_c, 9, 69, 0
12, 17161, Note_on_c, 9, 42, 0
12, 17161, Note_on_c, 9, 37, 0
12, 17161, Note_on_c, 9, 70, 0
12, 17220, Note_on_c, 9, 35, 64
12, 17220, Note_on_c, 9, 46, 79
12, 17220, Note_on_c, 9, 70, 18
12, 17221, Note_on_c, 9, 70, 0
12, 17221, Note_on_c, 9, 46, 0
12, 17221, Note_on_c, 9, 35, 0
12, 17280, Note_on_c, 9, 35, 79
12, 17280, Note_on_c, 9, 42, 79
12, 17280, Note_on_c, 9, 70, 52
12, 17281, Note_on_c, 9, 70, 0
12, 17281, Note_on_c, 9, 42, 0
12, 17281, Note_on_c, 9, 35, 0
12, 17340, Note_on_c, 9, 42, 33
12, 17340, Note_on_c, 9, 70, 18
12, 17340, Note_on_c, 9, 69, 52
12, 17341, Note_on_c, 9, 69, 0
12, 17341, Note_on_c, 9, 70, 0
12, 17341, Note_on_c, 9, 42, 0
12, 17400, Note_on_c, 9, 42, 60
12, 17400, Note_on_c, 9, 37, 100
12, 17400, Note_on_c, 9, 70, 52
12, 17400, Note_on_c, 9, 69, 79
12, 17401, Note_on_c, 9, 69, 0
12, 17401, Note_on_c, 9, 42, 0
12, 17401, Note_on_c, 9, 37, 0
12, 17401, Note_on_c, 9, 70, 0
12, 17460, Note_on_c, 9, 35, 60
12, 17460, Note_on_c, 9, 42, 33
12, 17460, Note_on_c, 9, 70, 18
12, 17461, Note_on_c, 9, 70, 0
12, 17461, Note_on_c, 9, 42, 0
12, 17461, Note_on_c, 9, 35, 0
12, 17520, Note_on_c, 9, 35, 79
12, 17520, Note_on_c, 9, 42, 79
12, 17520, Note_on_c, 9, 70, 52
12, 17521, Note_on_c, 9, 70, 0
12, 17521, Note_on_c, 9, 42, 0
12, 17521, Note_on_c, 9, 35, 0
12, 17580, Note_on_c, 9, 42, 33
12, 17580, Note_on_c, 9, 70, 18
12, 17580, Note_on_c, 9, 69, 52
12, 17581, Note_on_c, 9, 69, 0
12, 17581, Note_on_c, 9, 70, 0
12, 17581, Note_on_c, 9, 42, 0
12, 17640, Note_on_c, 9, 42, 60
12, 17640, Note_on_c, 9, 37, 100
12, 17640, Note_on_c, 9, 70, 52
12, 17640, Note_on_c, 9, 69, 79
12, 17641, Note_on_c, 9, 69, 0
12, 17641, Note_on_c, 9, 42, 0
12, 17641, Note_on_c, 9, 37, 0
12, 17641, Note_on_c, 9, 70, 0
12, 17700, Note_on_c, 9, 35, 60
12, 17700, Note_on_c, 9, 42, 33
12, 17700, Note_on_c, 9, 70, 18
12, 17701, Note_on_c, 9, 70, 0
12, 17701, Note_on_c, 9, 42, 0
12, 17701, Note_on_c, 9, 35, 0
12, 17760, Note_on_c, 9, 35, 79
12, 17760, Note_on_c, 9, 42, 79
12, 17760, Note_on_c, 9, 70, 52
12, 17761, Note_on_c, 9, 70, 0
12, 17761, Note_on_c, 9, 42, 0
12, 17761, Note_on_c, 9, 35, 0
12, 17820, Note_on_c, 9, 42, 33
12, 17820, Note_on_c, 9, 70, 18
12, 17820, Note_on_c, 9, 69, 52
12, 17821, Note_on_c, 9, 69, 0
12, 17821, Note_on_c, 9, 70, 0
12, 17821, Note_on_c, 9, 42, 0
12, 17880, Note_on_c, 9, 42, 89
12, 17880, Note_on_c, 9, 37, 100
12, 17880, Note_on_c, 9, 70, 52
12, 17880, Note_on_c, 9, 69, 79
12, 17881, Note_on_c, 9, 69, 0
12, 17881, Note_on_c, 9, 42, 0
12, 17881, Note_on_c, 9, 37, 0
12, 17881, Note_on_c, 9, 70, 0
12, 17940, Note_on_c, 9, 35, 60
12, 17940, Note_on_c, 9, 42, 33
12, 17940, Note_on_c, 9, 70, 18
12, 17941, Note_on_c, 9, 70, 0
12, 17941, Note_on_c, 9, 42, 0
12, 17941, Note_on_c, 9, 35, 0
12, 18000, Note_on_c, 9, 35, 79
12, 18000, Note_on_c, 9, 42, 79
12, 18000, Note_on_c, 9, 70, 52
12, 18001, Note_on_c, 9, 70, 0
12, 18001, Note_on_c, 9, 42, 0
12, 18001, Note_on_c, 9, 35, 0
12, 18060, Note_on_c, 9, 42, 33
12, 18060, Note_on_c, 9, 70, 18
12, 18060, Note_on_c, 9, 69, 52
12, 18061, Note_on_c, 9, 69, 0
12, 18061, Note_on_c, 9, 70, 0
12, 18061, Note_on_c, 9, 42, 0
12, 18120, Note_on_c, 9, 42, 89
12, 18120, Note_on_c, 9, 37, 100
12, 18120, Note_on_c, 9, 70, 52
12, 18120, Note_on_c, 9, 69, 79
12, 18121, Note_on_c, 9, 69, 0
12, 18121, Note_on_c, 9, 42, 0
12, 18121, Note_on_c, 9, 37, 0
12, 18121, Note_on_c, 9, 70, 0
12, 18180, Note_on_c, 9, 35, 64
12, 18180, Note_on_c, 9, 46, 79
12, 18180, Note_on_c, 9, 70, 18
12, 18181, Note_on_c, 9, 70, 0
12, 18181, Note_on_c, 9, 46, 0
12, 18181, Note_on_c, 9, 35, 0
12, 18240, Note_on_c, 9, 35, 79
12, 18240, Note_on_c, 9, 42, 79
12, 18240, Note_on_c, 9, 70, 52
12, 18241, Note_on_c, 9, 70, 0
12, 18241, Note_on_c, 9, 42, 0
12, 18241, Note_on_c, 9, 35, 0
12, 18300, Note_on_c, 9, 42, 33
12, 18300, Note_on_c, 9, 70, 18
12, 18300, Note_on_c, 9, 69, 52
12, 18301, Note_on_c, 9, 69, 0
12, 18301, Note_on_c, 9, 70, 0
12, 18301, Note_on_c, 9, 42, 0
12, 18360, Note_on_c, 9, 42, 60
12, 18360, Note_on_c, 9, 37, 100
12, 18360, Note_on_c, 9, 70, 52
12, 18360, Note_on_c, 9, 69, 79
12, 18361, Note_on_c, 9, 69, 0
12, 18361, Note_on_c, 9, 42, 0
12, 18361, Note_on_c, 9, 37, 0
12, 18361, Note_on_c, 9, 70, 0
12, 18420, Note_on_c, 9, 35, 60
12, 18420, Note_on_c, 9, 42, 33
12, 18420, Note_on_c, 9, 70, 18
12, 18421, Note_on_c, 9, 70, 0
12, 18421, Note_on_c, 9, 42, 0
12, 18421, Note_on_c, 9, 35, 0
12, 18480, Note_on_c, 9, 35, 79
12, 18480, Note_on_c, 9, 42, 79
12, 18480, Note_on_c, 9, 70, 52
12, 18481, Note_on_c, 9, 70, 0
12, 18481, Note_on_c, 9, 42, 0
12, 18481, Note_on_c, 9, 35, 0
12, 18540, Note_on_c, 9, 42, 33
12, 18540, Note_on_c, 9, 70, 18
12, 18540, Note_on_c, 9, 69, 52
12, 18541, Note_on_c, 9, 69, 0
12, 18541, Note_on_c, 9, 70, 0
12, 18541, Note_on_c, 9, 42, 0
12, 18600, Note_on_c, 9, 42, 60
12, 18600, Note_on_c, 9, 37, 100
12, 18600, Note_on_c, 9, 70, 52
12, 18600, Note_on_c, 9, 69, 79
12, 18601, Note_on_c, 9, 69, 0
12, 18601, Note_on_c, 9, 42, 0
12, 18601, Note_on_c, 9, 37, 0
12, 18601, Note_on_c, 9, 70, 0
12, 18660, Note_on_c, 9, 35, 60
12, 18660, Note_on_c, 9, 42, 33
12, 18660, Note_on_c, 9, 70, 18
12, 18661, Note_on_c, 9, 70, 0
12, 18661, Note_on_c, 9, 42, 0
12, 18661, Note_on_c, 9, 35, 0
12, 18720, Note_on_c, 9, 35, 79
12, 18720, Note_on_c, 9, 42, 79
12, 18720, Note_on_c, 9, 70, 52
12, 18721, Note_on_c, 9, 70, 0
12, 18721, Note_on_c, 9, 42, 0
12, 18721, Note_on_c, 9, 35, 0
12, 18780, Note_on_c, 9, 42, 33
12, 18780, Note_on_c, 9, 70, 18
12, 18780, Note_on_c, 9, 69, 52
12, 18781, Note_on_c, 9, 69, 0
12, 18781, Note_on_c, 9, 70, 0
12, 18781, Note_on_c, 9, 42, 0
12, 18840, Note_on_c, 9, 42, 89
12, 18840, Note_on_c, 9, 37, 100
12, 18840, Note_on_c, 9, 70, 52
12, 18840, Note_on_c, 9, 69, 79
12, 18841, Note_on_c, 9, 69, 0
12, 18841, Note_on_c, 9, 42, 0
12, 18841, Note_on_c, 9, 37, 0
12, 18841, Note_on_c, 9, 70, 0
12, 18900, Note_on_c, 9, 35, 60
12, 18900, Note_on_c, 9, 42, 33
12, 18900, Note_on_c, 9, 70, 18
12, 18901, Note_on_c, 9, 70, 0
12, 18901, Note_on_c, 9, 42, 0
12, 18901, Note_on_c, 9, 35, 0
12, 18960, Note_on_c, 9, 35, 79
12, 18960, Note_on_c, 9, 42, 79
12, 18960, Note_on_c, 9, 70, 52
12, 18961, Note_on_c, 9, 70, 0
12, 18961, Note_on_c, 9, 42, 0
12, 18961, Note_on_c, 9, 35, 0
12, 19020, Note_on_c, 9, 42, 33
12, 19020, Note_on_c, 9, 70, 18
12, 19020, Note_on_c, 9, 69, 52
12, 19021, Note_on_c, 9, 69, 0
12, 19021, Note_on_c, 9, 70, 0
12, 19021, Note_on_c, 9, 42, 0
12, 19080, Note_on_c, 9, 42, 89
12, 19080, Note_on_c, 9, 37, 100
12, 19080, Note_on_c, 9, 70, 52
12, 19080, Note_on_c, 9, 69, 79
12, 19081, Note_on_c, 9, 69, 0
12, 19081, Note_on_c, 9, 42, 0
12, 19081, Note_on_c, 9, 37, 0
12, 19081, Note_on_c, 9, 70, 0
12, 19140, Note_on_c, 9, 35, 64
12, 19140, Note_on_c, 9, 46, 79
12, 19140, Note_on_c, 9, 70, 18
12, 19141, Note_on_c, 9, 70, 0
12, 19141, Note_on_c, 9, 46, 0
12, 19141, Note_on_c, 9, 35, 0
12, 19200, Note_on_c, 9, 35, 79
12, 19200, Note_on_c, 9, 42, 79
12, 19200, Note_on_c, 9, 70, 52
12, 19201, Note_on_c, 9, 70, 0
12, 19201, Note_on_c, 9, 42, 0
12, 19201, Note_on_c, 9, 35, 0
12, 19260, Note_on_c, 9, 42, 33
12, 19260, Note_on_c, 9, 70, 18
12, 19260, Note_on_c, 9, 69, 52
12, 19261, Note_on_c, 9, 69, 0
12, 19261, Note_on_c, 9, 70, 0
12, 19261, Note_on_c, 9, 42, 0
12, 19320, Note_on_c, 9, 42, 60
12, 19320, Note_on_c, 9, 37, 100
12, 19320, Note_on_c, 9, 70, 52
12, 19320, Note_on_c, 9, 69, 79
12, 19321, Note_on_c, 9, 69, 0
12, 19321, Note_on_c, 9, 42, 0
12, 19321, Note_on_c, 9, 37, 0
12, 19321, Note_on_c, 9, 70, 0
12, 19380, Note_on_c, 9, 35, 60
12, 19380, Note_on_c, 9, 42, 33
12, 19380, Note_on_c, 9, 70, 18
12, 19381, Note_on_c, 9, 70, 0
12, 19381, Note_on_c, 9, 42, 0
12, 19381, Note_on_c, 9, 35, 0
12, 19440, Note_on_c, 9, 35, 79
12, 19440, Note_on_c, 9, 42, 79
12, 19440, Note_on_c, 9, 70, 52
12, 19441, Note_on_c, 9, 70, 0
12, 19441, Note_on_c, 9, 42, 0
12, 19441, Note_on_c, 9, 35, 0
12, 19500, Note_on_c, 9, 42, 33
12, 19500, Note_on_c, 9, 70, 18
12, 19500, Note_on_c, 9, 69, 52
12, 19501, Note_on_c, 9, 69, 0
12, 19501, Note_on_c, 9, 70, 0
12, 19501, Note_on_c, 9, 42, 0
12, 19560, Note_on_c, 9, 42, 60
12, 19560, Note_on_c, 9, 37, 100
12, 19560, Note_on_c, 9, 70, 52
12, 19560, Note_on_c, 9, 69, 79
12, 19561, Note_on_c, 9, 69, 0
12, 19561, Note_on_c, 9, 42, 0
12, 19561, Note_on_c, 9, 37, 0
12, 19561, Note_on_c, 9, 70, 0
12, 19620, Note_on_c, 9, 35, 60
12, 19620, Note_on_c, 9, 42, 33
12, 19620, Note_on_c, 9, 70, 18
12, 19621, Note_on_c, 9, 70, 0
12, 19621, Note_on_c, 9, 42, 0
12, 19621, Note_on_c, 9, 35, 0
12, 19680, Note_on_c, 9, 35, 79
12, 19680, Note_on_c, 9, 42, 79
12, 19680, Note_on_c, 9, 70, 52
12, 19681, Note_on_c, 9, 70, 0
12, 19681, Note_on_c, 9, 42, 0
12, 19681, Note_on_c, 9, 35, 0
12, 19740, Note_on_c, 9, 42, 37
12, 19740, Note_on_c, 9, 70, 18
12, 19740, Note_on_c, 9, 69, 52
12, 19741, Note_on_c, 9, 69, 0
12, 19741, Note_on_c, 9, 70, 0
12, 19741, Note_on_c, 9, 42, 0
12, 19800, Note_on_c, 9, 42, 89
12, 19800, Note_on_c, 9, 37, 100
12, 19800, Note_on_c, 9, 70, 52
12, 19800, Note_on_c, 9, 69, 79
12, 19801, Note_on_c, 9, 69, 0
12, 19801, Note_on_c, 9, 42, 0
12, 19801, Note_on_c, 9, 37, 0
12, 19801, Note_on_c, 9, 70, 0
12, 19860, Note_on_c, 9, 35, 60
12, 19860, Note_on_c, 9, 42, 48
12, 19860, Note_on_c, 9, 70, 18
12, 19861, Note_on_c, 9, 70, 0
12, 19861, Note_on_c, 9, 42, 0
12, 19861, Note_on_c, 9, 35, 0
12, 19920, Note_on_c, 9, 35, 79
12, 19920, Note_on_c, 9, 42, 79
12, 19920, Note_on_c, 9, 70, 52
12, 19921, Note_on_c, 9, 70, 0
12, 19921, Note_on_c, 9, 42, 0
12, 19921, Note_on_c, 9, 35, 0
12, 19980, Note_on_c, 9, 42, 37
12, 19980, Note_on_c, 9, 70, 18
12, 19980, Note_on_c, 9, 69, 52
12, 19981, Note_on_c, 9, 69, 0
12, 19981, Note_on_c, 9, 70, 0
12, 19981, Note_on_c, 9, 42, 0
12, 20040, Note_on_c, 9, 42, 79
12, 20040, Note_on_c, 9, 37, 100
12, 20040, Note_on_c, 9, 70, 52
12, 20040, Note_on_c, 9, 69, 79
12, 20041, Note_on_c, 9, 69, 0
12, 20041, Note_on_c, 9, 42, 0
12, 20041, Note_on_c, 9, 37, 0
12, 20041, Note_on_c, 9, 70, 0
12, 20100, Note_on_c, 9, 35, 64
12, 20100, Note_on_c, 9, 42, 52
12, 20100, Note_on_c, 9, 70, 18
12, 20101, Note_on_c, 9, 70, 0
12, 20101, Note_on_c, 9, 42, 0
12, 20101, Note_on_c, 9, 35, 0
12, 20160, Note_on_c, 9, 35, 79
12, 20160, Note_on_c, 9, 42, 79
12, 20160, Note_on_c, 9, 70, 52
12, 20161, Note_on_c, 9, 70, 0
12, 20161, Note_on_c, 9, 42, 0
12, 20161, Note_on_c, 9, 35, 0
12, 20220, Note_on_c, 9, 42, 33
12, 20220, Note_on_c, 9, 70, 18
12, 20220, Note_on_c, 9, 69, 52
12, 20221, Note_on_c, 9, 69, 0
12, 20221, Note_on_c, 9, 70, 0
12, 20221, Note_on_c, 9, 42, 0
12, 20280, Note_on_c, 9, 42, 69
12, 20280, Note_on_c, 9, 37, 100
12, 20280, Note_on_c, 9, 70, 52
12, 20280, Note_on_c, 9, 69, 79
12, 20281, Note_on_c, 9, 69, 0
12, 20281, Note_on_c, 9, 42, 0
12, 20281, Note_on_c, 9, 37, 0
12, 20281, Note_on_c, 9, 70, 0
12, 20340, Note_on_c, 9, 35, 60
12, 20340, Note_on_c, 9, 42, 33
12, 20340, Note_on_c, 9, 70, 18
12, 20341, Note_on_c, 9, 70, 0
12, 20341, Note_on_c, 9, 42, 0
12, 20341, Note_on_c, 9, 35, 0
12, 20400, Note_on_c, 9, 35, 79
12, 20400, Note_on_c, 9, 42, 79
12, 20400, Note_on_c, 9, 70, 52
12, 20401, Note_on_c, 9, 70, 0
12, 20401, Note_on_c, 9, 42, 0
12, 20401, Note_on_c, 9, 35, 0
12, 20460, Note_on_c, 9, 42, 33
12, 20460, Note_on_c, 9, 70, 18
12, 20460, Note_on_c, 9, 69, 52
12, 20461, Note_on_c, 9, 69, 0
12, 20461, Note_on_c, 9, 70, 0
12, 20461, Note_on_c, 9, 42, 0
12, 20520, Note_on_c, 9, 42, 69
12, 20520, Note_on_c, 9, 37, 100
12, 20520, Note_on_c, 9, 70, 52
12, 20520, Note_on_c, 9, 69, 79
12, 20521, Note_on_c, 9, 69, 0
12, 20521, Note_on_c, 9, 42, 0
12, 20521, Note_on_c, 9, 37, 0
12, 20521, Note_on_c, 9, 70, 0
12, 20580, Note_on_c, 9, 35, 60
12, 20580, Note_on_c, 9, 42, 33
12, 20580, Note_on_c, 9, 70, 18
12, 20581, Note_on_c, 9, 70, 0
12, 20581, Note_on_c, 9, 42, 0
12, 20581, Note_on_c, 9, 35, 0
12, 20640, Note_on_c, 9, 35, 79
12, 20640, Note_on_c, 9, 42, 79
12, 20640, Note_on_c, 9, 70, 52
12, 20641, Note_on_c, 9, 70, 0
12, 20641, Note_on_c, 9, 42, 0
12, 20641, Note_on_c, 9, 35, 0
12, 20700, Note_on_c, 9, 42, 48
12, 20700, Note_on_c, 9, 70, 18
12, 20700, Note_on_c, 9, 69, 52
12, 20701, Note_on_c, 9, 69, 0
12, 20701, Note_on_c, 9, 70, 0
12, 20701, Note_on_c, 9, 42, 0
12, 20760, Note_on_c, 9, 42, 84
12, 20760, Note_on_c, 9, 37, 100
12, 20760, Note_on_c, 9, 70, 52
12, 20760, Note_on_c, 9, 69, 79
12, 20761, Note_on_c, 9, 69, 0
12, 20761, Note_on_c, 9, 42, 0
12, 20761, Note_on_c, 9, 37, 0
12, 20761, Note_on_c, 9, 70, 0
12, 20820, Note_on_c, 9, 35, 60
12, 20820, Note_on_c, 9, 42, 62
12, 20820, Note_on_c, 9, 70, 18
12, 20821, Note_on_c, 9, 70, 0
12, 20821, Note_on_c, 9, 42, 0
12, 20821, Note_on_c, 9, 35, 0
12, 20880, Note_on_c, 9, 35, 79
12, 20880, Note_on_c, 9, 42, 69
12, 20880, Note_on_c, 9, 70, 52
12, 20881, Note_on_c, 9, 70, 0
12, 20881, Note_on_c, 9, 42, 0
12, 20881, Note_on_c, 9, 35, 0
12, 20940, Note_on_c, 9, 42, 79
12, 20940, Note_on_c, 9, 70, 18
12, 20940, Note_on_c, 9, 69, 52
12, 20941, Note_on_c, 9, 69, 0
12, 20941, Note_on_c, 9, 70, 0
12, 20941, Note_on_c, 9, 42, 0
12, 21000, Note_on_c, 9, 42, 89
12, 21000, Note_on_c, 9, 37, 100
12, 21000, Note_on_c, 9, 70, 52
12, 21000, Note_on_c, 9, 69, 79
12, 21001, Note_on_c, 9, 69, 0
12, 21001, Note_on_c, 9, 42, 0
12, 21001, Note_on_c, 9, 37, 0
12, 21001, Note_on_c, 9, 70, 0
12, 21060, Note_on_c, 9, 35, 64
12, 21060, Note_on_c, 9, 46, 79
12, 21060, Note_on_c, 9, 70, 18
12, 21061, Note_on_c, 9, 70, 0
12, 21061, Note_on_c, 9, 46, 0
12, 21061, Note_on_c, 9, 35, 0
12, 21120, Note_on_c, 9, 35, 79
12, 21120, Note_on_c, 9, 42, 79
12, 21120, Note_on_c, 9, 70, 52
12, 21121, Note_on_c, 9, 70, 0
12, 21121, Note_on_c, 9, 42, 0
12, 21121, Note_on_c, 9, 35, 0
12, 21180, Note_on_c, 9, 42, 33
12, 21180, Note_on_c, 9, 70, 18
12, 21180, Note_on_c, 9, 69, 52
12, 21181, Note_on_c, 9, 69, 0
12, 21181, Note_on_c, 9, 70, 0
12, 21181, Note_on_c, 9, 42, 0
12, 21240, Note_on_c, 9, 42, 69
12, 21240, Note_on_c, 9, 37, 100
12, 21240, Note_on_c, 9, 70, 52
12, 21240, Note_on_c, 9, 69, 79
12, 21241, Note_on_c, 9, 69, 0
12, 21241, Note_on_c, 9, 42, 0
12, 21241, Note_on_c, 9, 37, 0
12, 21241, Note_on_c, 9, 70, 0
12, 21300, Note_on_c, 9, 35, 60
12, 21300, Note_on_c, 9, 42, 33
12, 21300, Note_on_c, 9, 70, 18
12, 21301, Note_on_c, 9, 70, 0
12, 21301, Note_on_c, 9, 42, 0
12, 21301, Note_on_c, 9, 35, 0
12, 21360, Note_on_c, 9, 35, 79
12, 21360, Note_on_c, 9, 42, 79
12, 21360, Note_on_c, 9, 70, 52
12, 21361, Note_on_c, 9, 70, 0
12, 21361, Note_on_c, 9, 42, 0
12, 21361, Note_on_c, 9, 35, 0
12, 21420, Note_on_c, 9, 42, 33
12, 21420, Note_on_c, 9, 70, 18
12, 21420, Note_on_c, 9, 69, 52
12, 21421, Note_on_c, 9, 69, 0
12, 21421, Note_on_c, 9, 70, 0
12, 21421, Note_on_c, 9, 42, 0
12, 21480, Note_on_c, 9, 42, 69
12, 21480, Note_on_c, 9, 37, 100
12, 21480, Note_on_c, 9, 70, 52
12, 21480, Note_on_c, 9, 69, 79
12, 21481, Note_on_c, 9, 69, 0
12, 21481, Note_on_c, 9, 42, 0
12, 21481, Note_on_c, 9, 37, 0
12, 21481, Note_on_c, 9, 70, 0
12, 21540, Note_on_c, 9, 35, 60
12, 21540, Note_on_c, 9, 46, 62
12, 21540, Note_on_c, 9, 70, 18
12, 21541, Note_on_c, 9, 70, 0
12, 21541, Note_on_c, 9, 46, 0
12, 21541, Note_on_c, 9, 35, 0
12, 21600, Note_on_c, 9, 35, 79
12, 21600, Note_on_c, 9, 42, 79
12, 21600, Note_on_c, 9, 70, 52
12, 21601, Note_on_c, 9, 70, 0
12, 21601, Note_on_c, 9, 42, 0
12, 21601, Note_on_c, 9, 35, 0
12, 21660, Note_on_c, 9, 42, 48
12, 21660, Note_on_c, 9, 70, 18
12, 21660, Note_on_c, 9, 69, 52
12, 21661, Note_on_c, 9, 69, 0
12, 21661, Note_on_c, 9, 70, 0
12, 21661, Note_on_c, 9, 42, 0
12, 21720, Note_on_c, 9, 42, 84
12, 21720, Note_on_c, 9, 37, 100
12, 21720, Note_on_c, 9, 70, 52
12, 21720, Note_on_c, 9, 69, 79
12, 21721, Note_on_c, 9, 69, 0
12, 21721, Note_on_c, 9, 42, 0
12, 21721, Note_on_c, 9, 37, 0
12, 21721, Note_on_c, 9, 70, 0
12, 21780, Note_on_c, 9, 35, 60
12, 21780, Note_on_c, 9, 42, 62
12, 21780, Note_on_c, 9, 70, 18
12, 21781, Note_on_c, 9, 70, 0
12, 21781, Note_on_c, 9, 42, 0
12, 21781, Note_on_c, 9, 35, 0
12, 21840, Note_on_c, 9, 35, 79
12, 21840, Note_on_c, 9, 42, 95
12, 21840, Note_on_c, 9, 70, 52
12, 21841, Note_on_c, 9, 70, 0
12, 21841, Note_on_c, 9, 42, 0
12, 21841, Note_on_c, 9, 35, 0
12, 21900, Note_on_c, 9, 42, 79
12, 21900, Note_on_c, 9, 70, 18
12, 21900, Note_on_c, 9, 69, 52
12, 21901, Note_on_c, 9, 69, 0
12, 21901, Note_on_c, 9, 70, 0
12, 21901, Note_on_c, 9, 42, 0
12, 21960, Note_on_c, 9, 42, 89
12, 21960, Note_on_c, 9, 37, 100
12, 21960, Note_on_c, 9, 70, 52
12, 21960, Note_on_c, 9, 69, 79
12, 21961, Note_on_c, 9, 69, 0
12, 21961, Note_on_c, 9, 42, 0
12, 21961, Note_on_c, 9, 37, 0
12, 21961, Note_on_c, 9, 70, 0
12, 22020, Note_on_c, 9, 35, 64
12, 22020, Note_on_c, 9, 46, 79
12, 22020, Note_on_c, 9, 70, 18
12, 22021, Note_on_c, 9, 70, 0
12, 22021, Note_on_c, 9, 46, 0
12, 22021, Note_on_c, 9, 35, 0
12, 22080, Note_on_c, 9, 35, 79
12, 22080, Note_on_c, 9, 42, 79
12, 22080, Note_on_c, 9, 70, 52
12, 22081, Note_on_c, 9, 70, 0
12, 22081, Note_on_c, 9, 42, 0
12, 22081, Note_on_c, 9, 35, 0
12, 22140, Note_on_c, 9, 42, 33
12, 22140, Note_on_c, 9, 70, 18
12, 22140, Note_on_c, 9, 69, 52
12, 22141, Note_on_c, 9, 69, 0
12, 22141, Note_on_c, 9, 70, 0
12, 22141, Note_on_c, 9, 42, 0
12, 22200, Note_on_c, 9, 42, 69
12, 22200, Note_on_c, 9, 37, 100
12, 22200, Note_on_c, 9, 70, 52
12, 22200, Note_on_c, 9, 69, 79
12, 22201, Note_on_c, 9, 69, 0
12, 22201, Note_on_c, 9, 42, 0
12, 22201, Note_on_c, 9, 37, 0
12, 22201, Note_on_c, 9, 70, 0
12, 22260, Note_on_c, 9, 35, 60
12, 22260, Note_on_c, 9, 42, 33
12, 22260, Note_on_c, 9, 70, 18
12, 22261, Note_on_c, 9, 70, 0
12, 22261, Note_on_c, 9, 42, 0
12, 22261, Note_on_c, 9, 35, 0
12, 22320, Note_on_c, 9, 35, 79
12, 22320, Note_on_c, 9, 42, 79
12, 22320, Note_on_c, 9, 70, 52
12, 22321, Note_on_c, 9, 70, 0
12, 22321, Note_on_c, 9, 42, 0
12, 22321, Note_on_c, 9, 35, 0
12, 22380, Note_on_c, 9, 42, 33
12, 22380, Note_on_c, 9, 70, 18
12, 22380, Note_on_c, 9, 69, 52
12, 22381, Note_on_c, 9, 69, 0
12, 22381, Note_on_c, 9, 70, 0
12, 22381, Note_on_c, 9, 42, 0
12, 22440, Note_on_c, 9, 42, 69
12, 22440, Note_on_c, 9, 37, 100
12, 22440, Note_on_c, 9, 70, 52
12, 22440, Note_on_c, 9, 69, 79
12, 22441, Note_on_c, 9, 69, 0
12, 22441, Note_on_c, 9, 42, 0
12, 22441, Note_on_c, 9, 37, 0
12, 22441, Note_on_c, 9, 70, 0
12, 22500, Note_on_c, 9, 35, 60
12, 22500, Note_on_c, 9, 42, 33
12, 22500, Note_on_c, 9, 70, 18
12, 22501, Note_on_c, 9, 70, 0
12, 22501, Note_on_c, 9, 42, 0
12, 22501, Note_on_c, 9, 35, 0
12, 22560, Note_on_c, 9, 35, 79
12, 22560, Note_on_c, 9, 42, 79
12, 22560, Note_on_c, 9, 70, 52
12, 22561, Note_on_c, 9, 70, 0
12, 22561, Note_on_c, 9, 42, 0
12, 22561, Note_on_c, 9, 35, 0
12, 22620, Note_on_c, 9, 42, 48
12, 22620, Note_on_c, 9, 70, 18
12, 22620, Note_on_c, 9, 69, 52
12, 22621, Note_on_c, 9, 69, 0
12, 22621, Note_on_c, 9, 70, 0
12, 22621, Note_on_c, 9, 42, 0
12, 22680, Note_on_c, 9, 42, 84
12, 22680, Note_on_c, 9, 37, 100
12, 22680, Note_on_c, 9, 70, 52
12, 22680, Note_on_c, 9, 69, 79
12, 22681, Note_on_c, 9, 69, 0
12, 22681, Note_on_c, 9, 42, 0
12, 22681, Note_on_c, 9, 37, 0
12, 22681, Note_on_c, 9, 70, 0
12, 22740, Note_on_c, 9, 35, 60
12, 22740, Note_on_c, 9, 42, 43
12, 22740, Note_on_c, 9, 70, 18
12, 22741, Note_on_c, 9, 70, 0
12, 22741, Note_on_c, 9, 42, 0
12, 22741, Note_on_c, 9, 35, 0
12, 22800, Note_on_c, 9, 35, 79
12, 22800, Note_on_c, 9, 42, 95
12, 22800, Note_on_c, 9, 70, 52
12, 22801, Note_on_c, 9, 70, 0
12, 22801, Note_on_c, 9, 42, 0
12, 22801, Note_on_c, 9, 35, 0
12, 22860, Note_on_c, 9, 42, 79
12, 22860, Note_on_c, 9, 70, 18
12, 22860, Note_on_c, 9, 69, 52
12, 22861, Note_on_c, 9, 69, 0
12, 22861, Note_on_c, 9, 70, 0
12, 22861, Note_on_c, 9, 42, 0
12, 22920, Note_on_c, 9, 42, 89
12, 22920, Note_on_c, 9, 37, 100
12, 22920, Note_on_c, 9, 70, 52
12, 22920, Note_on_c, 9, 69, 79
12, 22921, Note_on_c, 9, 69, 0
12, 22921, Note_on_c, 9, 42, 0
12, 22921, Note_on_c, 9, 37, 0
12, 22921, Note_on_c, 9, 70, 0
12, 22980, Note_on_c, 9, 35, 64
12, 22980, Note_on_c, 9, 46, 79
12, 22980, Note_on_c, 9, 70, 18
12, 22981, Note_on_c, 9, 70, 0
12, 22981, Note_on_c, 9, 46, 0
12, 22981, Note_on_c, 9, 35, 0
12, 23040, Note_on_c, 9, 35, 79
12, 23040, Note_on_c, 9, 42, 79
12, 23040, Note_on_c, 9, 70, 52
12, 23041, Note_on_c, 9, 70, 0
12, 23041, Note_on_c, 9, 42, 0
12, 23041, Note_on_c, 9, 35, 0
12, 23100, Note_on_c, 9, 42, 33
12, 23100, Note_on_c, 9, 70, 18
12, 23100, Note_on_c, 9, 69, 52
12, 23101, Note_on_c, 9, 69, 0
12, 23101, Note_on_c, 9, 70, 0
12, 23101, Note_on_c, 9, 42, 0
12, 23160, Note_on_c, 9, 42, 69
12, 23160, Note_on_c, 9, 37, 100
12, 23160, Note_on_c, 9, 70, 52
12, 23160, Note_on_c, 9, 69, 79
12, 23161, Note_on_c, 9, 69, 0
12, 23161, Note_on_c, 9, 42, 0
12, 23161, Note_on_c, 9, 37, 0
12, 23161, Note_on_c, 9, 70, 0
12, 23220, Note_on_c, 9, 35, 60
12, 23220, Note_on_c, 9, 42, 33
12, 23220, Note_on_c, 9, 70, 18
12, 23221, Note_on_c, 9, 70, 0
12, 23221, Note_on_c, 9, 42, 0
12, 23221, Note_on_c, 9, 35, 0
12, 23280, Note_on_c, 9, 35, 79
12, 23280, Note_on_c, 9, 42, 79
12, 23280, Note_on_c, 9, 70, 52
12, 23281, Note_on_c, 9, 70, 0
12, 23281, Note_on_c, 9, 42, 0
12, 23281, Note_on_c, 9, 35, 0
12, 23340, Note_on_c, 9, 42, 33
12, 23340, Note_on_c, 9, 70, 18
12, 23340, Note_on_c, 9, 69, 52
12, 23341, Note_on_c, 9, 69, 0
12, 23341, Note_on_c, 9, 70, 0
12, 23341, Note_on_c, 9, 42, 0
12, 23400, Note_on_c, 9, 42, 69
12, 23400, Note_on_c, 9, 37, 100
12, 23400, Note_on_c, 9, 70, 52
12, 23400, Note_on_c, 9, 69, 79
12, 23401, Note_on_c, 9, 69, 0
12, 23401, Note_on_c, 9, 42, 0
12, 23401, Note_on_c, 9, 37, 0
12, 23401, Note_on_c, 9, 70, 0
12, 23460, Note_on_c, 9, 35, 60
12, 23460, Note_on_c, 9, 42, 33
12, 23460, Note_on_c, 9, 70, 18
12, 23461, Note_on_c, 9, 70, 0
12, 23461, Note_on_c, 9, 42, 0
12, 23461, Note_on_c, 9, 35, 0
12, 23520, Note_on_c, 9, 35, 79
12, 23520, Note_on_c, 9, 42, 79
12, 23520, Note_on_c, 9, 70, 52
12, 23521, Note_on_c, 9, 70, 0
12, 23521, Note_on_c, 9, 42, 0
12, 23521, Note_on_c, 9, 35, 0
12, 23580, Note_on_c, 9, 42, 33
12, 23580, Note_on_c, 9, 70, 18
12, 23580, Note_on_c, 9, 69, 52
12, 23581, Note_on_c, 9, 69, 0
12, 23581, Note_on_c, 9, 70, 0
12, 23581, Note_on_c, 9, 42, 0
12, 23640, Note_on_c, 9, 42, 89
12, 23640, Note_on_c, 9, 37, 100
12, 23640, Note_on_c, 9, 70, 52
12, 23640, Note_on_c, 9, 69, 79
12, 23641, Note_on_c, 9, 69, 0
12, 23641, Note_on_c, 9, 42, 0
12, 23641, Note_on_c, 9, 37, 0
12, 23641, Note_on_c, 9, 70, 0
12, 23700, Note_on_c, 9, 35, 60
12, 23700, Note_on_c, 9, 42, 33
12, 23700, Note_on_c, 9, 70, 18
12, 23701, Note_on_c, 9, 70, 0
12, 23701, Note_on_c, 9, 42, 0
12, 23701, Note_on_c, 9, 35, 0
12, 23760, Note_on_c, 9, 35, 79
12, 23760, Note_on_c, 9, 42, 79
12, 23760, Note_on_c, 9, 70, 52
12, 23761, Note_on_c, 9, 70, 0
12, 23761, Note_on_c, 9, 42, 0
12, 23761, Note_on_c, 9, 35, 0
12, 23820, Note_on_c, 9, 42, 33
12, 23820, Note_on_c, 9, 70, 18
12, 23820, Note_on_c, 9, 69, 52
12, 23821, Note_on_c, 9, 69, 0
12, 23821, Note_on_c, 9, 70, 0
12, 23821, Note_on_c, 9, 42, 0
12, 23880, Note_on_c, 9, 42, 89
12, 23880, Note_on_c, 9, 37, 100
12, 23880, Note_on_c, 9, 70, 52
12, 23880, Note_on_c, 9, 69, 79
12, 23881, Note_on_c, 9, 69, 0
12, 23881, Note_on_c, 9, 42, 0
12, 23881, Note_on_c, 9, 37, 0
12, 23881, Note_on_c, 9, 70, 0
12, 23940, Note_on_c, 9, 35, 64
12, 23940, Note_on_c, 9, 46, 79
12, 23940, Note_on_c, 9, 70, 18
12, 23941, Note_on_c, 9, 70, 0
12, 23941, Note_on_c, 9, 46, 0
12, 23941, Note_on_c, 9, 35, 0
12, 24000, Note_on_c, 9, 35, 79
12, 24000, Note_on_c, 9, 42, 79
12, 24000, Note_on_c, 9, 70, 52
12, 24001, Note_on_c, 9, 70, 0
12, 24001, Note_on_c, 9, 42, 0
12, 24001, Note_on_c, 9, 35, 0
12, 24060, Note_on_c, 9, 42, 33
12, 24060, Note_on_c, 9, 70, 18
12, 24060, Note_on_c, 9, 69, 52
12, 24061, Note_on_c, 9, 69, 0
12, 24061, Note_on_c, 9, 70, 0
12, 24061, Note_on_c, 9, 42, 0
12, 24120, Note_on_c, 9, 42, 69
12, 24120, Note_on_c, 9, 37, 100
12, 24120, Note_on_c, 9, 70, 52
12, 24120, Note_on_c, 9, 69, 79
12, 24121, Note_on_c, 9, 69, 0
12, 24121, Note_on_c, 9, 42, 0
12, 24121, Note_on_c, 9, 37, 0
12, 24121, Note_on_c, 9, 70, 0
12, 24180, Note_on_c, 9, 35, 60
12, 24180, Note_on_c, 9, 46, 62
12, 24180, Note_on_c, 9, 70, 18
12, 24181, Note_on_c, 9, 70, 0
12, 24181, Note_on_c, 9, 46, 0
12, 24181, Note_on_c, 9, 35, 0
12, 24240, Note_on_c, 9, 35, 79
12, 24240, Note_on_c, 9, 42, 79
12, 24240, Note_on_c, 9, 70, 52
12, 24241, Note_on_c, 9, 70, 0
12, 24241, Note_on_c, 9, 42, 0
12, 24241, Note_on_c, 9, 35, 0
12, 24300, Note_on_c, 9, 42, 33
12, 24300, Note_on_c, 9, 70, 18
12, 24300, Note_on_c, 9, 69, 52
12, 24301, Note_on_c, 9, 69, 0
12, 24301, Note_on_c, 9, 70, 0
12, 24301, Note_on_c, 9, 42, 0
12, 24360, Note_on_c, 9, 42, 69
12, 24360, Note_on_c, 9, 37, 100
12, 24360, Note_on_c, 9, 70, 52
12, 24360, Note_on_c, 9, 69, 79
12, 24361, Note_on_c, 9, 69, 0
12, 24361, Note_on_c, 9, 42, 0
12, 24361, Note_on_c, 9, 37, 0
12, 24361, Note_on_c, 9, 70, 0
12, 24420, Note_on_c, 9, 35, 60
12, 24420, Note_on_c, 9, 42, 33
12, 24420, Note_on_c, 9, 70, 18
12, 24421, Note_on_c, 9, 70, 0
12, 24421, Note_on_c, 9, 42, 0
12, 24421, Note_on_c, 9, 35, 0
12, 24480, Note_on_c, 9, 35, 79
12, 24480, Note_on_c, 9, 42, 79
12, 24480, Note_on_c, 9, 70, 52
12, 24481, Note_on_c, 9, 70, 0
12, 24481, Note_on_c, 9, 42, 0
12, 24481, Note_on_c, 9, 35, 0
12, 24540, Note_on_c, 9, 42, 48
12, 24540, Note_on_c, 9, 70, 18
12, 24540, Note_on_c, 9, 69, 52
12, 24541, Note_on_c, 9, 69, 0
12, 24541, Note_on_c, 9, 70, 0
12, 24541, Note_on_c, 9, 42, 0
12, 24600, Note_on_c, 9, 42, 84
12, 24600, Note_on_c, 9, 37, 100
12, 24600, Note_on_c, 9, 70, 52
12, 24600, Note_on_c, 9, 69, 79
12, 24601, Note_on_c, 9, 69, 0
12, 24601, Note_on_c, 9, 42, 0
12, 24601, Note_on_c, 9, 37, 0
12, 24601, Note_on_c, 9, 70, 0
12, 24660, Note_on_c, 9, 35, 60
12, 24660, Note_on_c, 9, 42, 43
12, 24660, Note_on_c, 9, 70, 18
12, 24661, Note_on_c, 9, 70, 0
12, 24661, Note_on_c, 9, 42, 0
12, 24661, Note_on_c, 9, 35, 0
12, 24720, Note_on_c, 9, 35, 79
12, 24720, Note_on_c, 9, 42, 95
12, 24720, Note_on_c, 9, 70, 52
12, 24721, Note_on_c, 9, 70, 0
12, 24721, Note_on_c, 9, 42, 0
12, 24721, Note_on_c, 9, 35, 0
12, 24780, Note_on_c, 9, 42, 52
12, 24780, Note_on_c, 9, 70, 18
12, 24780, Note_on_c, 9, 69, 52
12, 24781, Note_on_c, 9, 69, 0
12, 24781, Note_on_c, 9, 70, 0
12, 24781, Note_on_c, 9, 42, 0
12, 24840, Note_on_c, 9, 42, 89
12, 24840, Note_on_c, 9, 37, 100
12, 24840, Note_on_c, 9, 70, 52
12, 24840, Note_on_c, 9, 69, 79
12, 24841, Note_on_c, 9, 69, 0
12, 24841, Note_on_c, 9, 42, 0
12, 24841, Note_on_c, 9, 37, 0
12, 24841, Note_on_c, 9, 70, 0
12, 24900, Note_on_c, 9, 35, 64
12, 24900, Note_on_c, 9, 46, 79
12, 24900, Note_on_c, 9, 70, 18
12, 24901, Note_on_c, 9, 70, 0
12, 24901, Note_on_c, 9, 46, 0
12, 24901, Note_on_c, 9, 35, 0
12, 24960, Note_on_c, 9, 35, 79
12, 24960, Note_on_c, 9, 42, 79
12, 24960, Note_on_c, 9, 70, 52
12, 24961, Note_on_c, 9, 70, 0
12, 24961, Note_on_c, 9, 42, 0
12, 24961, Note_on_c, 9, 35, 0
12, 25020, Note_on_c, 9, 42, 33
12, 25020, Note_on_c, 9, 70, 18
12, 25020, Note_on_c, 9, 69, 52
12, 25021, Note_on_c, 9, 69, 0
12, 25021, Note_on_c, 9, 70, 0
12, 25021, Note_on_c, 9, 42, 0
12, 25080, Note_on_c, 9, 42, 60
12, 25080, Note_on_c, 9, 37, 100
12, 25080, Note_on_c, 9, 70, 52
12, 25080, Note_on_c, 9, 69, 79
12, 25081, Note_on_c, 9, 69, 0
12, 25081, Note_on_c, 9, 42, 0
12, 25081, Note_on_c, 9, 37, 0
12, 25081, Note_on_c, 9, 70, 0
12, 25140, Note_on_c, 9, 35, 60
12, 25140, Note_on_c, 9, 42, 33
12, 25140, Note_on_c, 9, 70, 18
12, 25141, Note_on_c, 9, 70, 0
12, 25141, Note_on_c, 9, 42, 0
12, 25141, Note_on_c, 9, 35, 0
12, 25200, Note_on_c, 9, 35, 79
12, 25200, Note_on_c, 9, 42, 79
12, 25200, Note_on_c, 9, 70, 52
12, 25201, Note_on_c, 9, 70, 0
12, 25201, Note_on_c, 9, 42, 0
12, 25201, Note_on_c, 9, 35, 0
12, 25260, Note_on_c, 9, 42, 33
12, 25260, Note_on_c, 9, 70, 18
12, 25260, Note_on_c, 9, 69, 52
12, 25261, Note_on_c, 9, 69, 0
12, 25261, Note_on_c, 9, 70, 0
12, 25261, Note_on_c, 9, 42, 0
12, 25320, Note_on_c, 9, 42, 60
12, 25320, Note_on_c, 9, 37, 100
12, 25320, Note_on_c, 9, 70, 52
12, 25320, Note_on_c, 9, 69, 79
12, 25321, Note_on_c, 9, 69, 0
12, 25321, Note_on_c, 9, 42, 0
12, 25321, Note_on_c, 9, 37, 0
12, 25321, Note_on_c, 9, 70, 0
12, 25380, Note_on_c, 9, 35, 60
12, 25380, Note_on_c, 9, 42, 33
12, 25380, Note_on_c, 9, 70, 18
12, 25381, Note_on_c, 9, 70, 0
12, 25381, Note_on_c, 9, 42, 0
12, 25381, Note_on_c, 9, 35, 0
12, 25440, Note_on_c, 9, 35, 79
12, 25440, Note_on_c, 9, 42, 79
12, 25440, Note_on_c, 9, 70, 52
12, 25441, Note_on_c, 9, 70, 0
12, 25441, Note_on_c, 9, 42, 0
12, 25441, Note_on_c, 9, 35, 0
12, 25500, Note_on_c, 9, 42, 33
12, 25500, Note_on_c, 9, 70, 18
12, 25500, Note_on_c, 9, 69, 52
12, 25501, Note_on_c, 9, 69, 0
12, 25501, Note_on_c, 9, 70, 0
12, 25501, Note_on_c, 9, 42, 0
12, 25560, Note_on_c, 9, 42, 89
12, 25560, Note_on_c, 9, 37, 100
12, 25560, Note_on_c, 9, 70, 52
12, 25560, Note_on_c, 9, 69, 79
12, 25561, Note_on_c, 9, 69, 0
12, 25561, Note_on_c, 9, 42, 0
12, 25561, Note_on_c, 9, 37, 0
12, 25561, Note_on_c, 9, 70, 0
12, 25620, Note_on_c, 9, 35, 60
12, 25620, Note_on_c, 9, 42, 33
12, 25620, Note_on_c, 9, 70, 18
12, 25621, Note_on_c, 9, 70, 0
12, 25621, Note_on_c, 9, 42, 0
12, 25621, Note_on_c, 9, 35, 0
12, 25680, Note_on_c, 9, 35, 79
12, 25680, Note_on_c, 9, 42, 79
12, 25680, Note_on_c, 9, 70, 52
12, 25681, Note_on_c, 9, 70, 0
12, 25681, Note_on_c, 9, 42, 0
12, 25681, Note_on_c, 9, 35, 0
12, 25740, Note_on_c, 9, 42, 33
12, 25740, Note_on_c, 9, 70, 18
12, 25740, Note_on_c, 9, 69, 52
12, 25741, Note_on_c, 9, 69, 0
12, 25741, Note_on_c, 9, 70, 0
12, 25741, Note_on_c, 9, 42, 0
12, 25800, Note_on_c, 9, 42, 89
12, 25800, Note_on_c, 9, 37, 100
12, 25800, Note_on_c, 9, 70, 52
12, 25800, Note_on_c, 9, 69, 79
12, 25801, Note_on_c, 9, 69, 0
12, 25801, Note_on_c, 9, 42, 0
12, 25801, Note_on_c, 9, 37, 0
12, 25801, Note_on_c, 9, 70, 0
12, 25860, Note_on_c, 9, 35, 64
12, 25860, Note_on_c, 9, 46, 79
12, 25860, Note_on_c, 9, 70, 18
12, 25861, Note_on_c, 9, 70, 0
12, 25861, Note_on_c, 9, 46, 0
12, 25861, Note_on_c, 9, 35, 0
12, 25920, Note_on_c, 9, 35, 79
12, 25920, Note_on_c, 9, 42, 79
12, 25920, Note_on_c, 9, 70, 52
12, 25921, Note_on_c, 9, 70, 0
12, 25921, Note_on_c, 9, 42, 0
12, 25921, Note_on_c, 9, 35, 0
12, 25980, Note_on_c, 9, 42, 33
12, 25980, Note_on_c, 9, 70, 18
12, 25980, Note_on_c, 9, 69, 52
12, 25981, Note_on_c, 9, 69, 0
12, 25981, Note_on_c, 9, 70, 0
12, 25981, Note_on_c, 9, 42, 0
12, 26040, Note_on_c, 9, 42, 60
12, 26040, Note_on_c, 9, 37, 100
12, 26040, Note_on_c, 9, 70, 52
12, 26040, Note_on_c, 9, 69, 79
12, 26041, Note_on_c, 9, 69, 0
12, 26041, Note_on_c, 9, 42, 0
12, 26041, Note_on_c, 9, 37, 0
12, 26041, Note_on_c, 9, 70, 0
12, 26100, Note_on_c, 9, 35, 60
12, 26100, Note_on_c, 9, 42, 33
12, 26100, Note_on_c, 9, 70, 18
12, 26101, Note_on_c, 9, 70, 0
12, 26101, Note_on_c, 9, 42, 0
12, 26101, Note_on_c, 9, 35, 0
12, 26160, Note_on_c, 9, 35, 79
12, 26160, Note_on_c, 9, 42, 79
12, 26160, Note_on_c, 9, 70, 52
12, 26161, Note_on_c, 9, 70, 0
12, 26161, Note_on_c, 9, 42, 0
12, 26161, Note_on_c, 9, 35, 0
12, 26220, Note_on_c, 9, 42, 33
12, 26220, Note_on_c, 9, 70, 18
12, 26220, Note_on_c, 9, 69, 52
12, 26221, Note_on_c, 9, 69, 0
12, 26221, Note_on_c, 9, 70, 0
12, 26221, Note_on_c, 9, 42, 0
12, 26280, Note_on_c, 9, 42, 60
12, 26280, Note_on_c, 9, 37, 100
12, 26280, Note_on_c, 9, 70, 52
12, 26280, Note_on_c, 9, 69, 79
12, 26281, Note_on_c, 9, 69, 0
12, 26281, Note_on_c, 9, 42, 0
12, 26281, Note_on_c, 9, 37, 0
12, 26281, Note_on_c, 9, 70, 0
12, 26340, Note_on_c, 9, 35, 60
12, 26340, Note_on_c, 9, 42, 33
12, 26340, Note_on_c, 9, 70, 18
12, 26341, Note_on_c, 9, 70, 0
12, 26341, Note_on_c, 9, 42, 0
12, 26341, Note_on_c, 9, 35, 0
12, 26400, Note_on_c, 9, 35, 79
12, 26400, Note_on_c, 9, 42, 79
12, 26400, Note_on_c, 9, 70, 52
12, 26401, Note_on_c, 9, 70, 0
12, 26401, Note_on_c, 9, 42, 0
12, 26401, Note_on_c, 9, 35, 0
12, 26460, Note_on_c, 9, 42, 48
12, 26460, Note_on_c, 9, 70, 18
12, 26460, Note_on_c, 9, 69, 52
12, 26461, Note_on_c, 9, 69, 0
12, 26461, Note_on_c, 9, 70, 0
12, 26461, Note_on_c, 9, 42, 0
12, 26520, Note_on_c, 9, 42, 84
12, 26520, Note_on_c, 9, 37, 100
12, 26520, Note_on_c, 9, 70, 52
12, 26520, Note_on_c, 9, 69, 79
12, 26521, Note_on_c, 9, 69, 0
12, 26521, Note_on_c, 9, 42, 0
12, 26521, Note_on_c, 9, 37, 0
12, 26521, Note_on_c, 9, 70, 0
12, 26580, Note_on_c, 9, 35, 60
12, 26580, Note_on_c, 9, 42, 43
12, 26580, Note_on_c, 9, 70, 18
12, 26581, Note_on_c, 9, 70, 0
12, 26581, Note_on_c, 9, 42, 0
12, 26581, Note_on_c, 9, 35, 0
12, 26640, Note_on_c, 9, 35, 79
12, 26640, Note_on_c, 9, 42, 95
12, 26640, Note_on_c, 9, 70, 52
12, 26641, Note_on_c, 9, 70, 0
12, 26641, Note_on_c, 9, 42, 0
12, 26641, Note_on_c, 9, 35, 0
12, 26700, Note_on_c, 9, 42, 52
12, 26700, Note_on_c, 9, 70, 18
12, 26700, Note_on_c, 9, 69, 52
12, 26701, Note_on_c, 9, 69, 0
12, 26701, Note_on_c, 9, 70, 0
12, 26701, Note_on_c, 9, 42, 0
12, 26760, Note_on_c, 9, 42, 89
12, 26760, Note_on_c, 9, 37, 100
12, 26760, Note_on_c, 9, 70, 52
12, 26760, Note_on_c, 9, 69, 79
12, 26761, Note_on_c, 9, 69, 0
12, 26761, Note_on_c, 9, 42, 0
12, 26761, Note_on_c, 9, 37, 0
12, 26761, Note_on_c, 9, 70, 0
12, 26820, Note_on_c, 9, 35, 64
12, 26820, Note_on_c, 9, 46, 79
12, 26820, Note_on_c, 9, 70, 18
12, 26821, Note_on_c, 9, 70, 0
12, 26821, Note_on_c, 9, 46, 0
12, 26821, Note_on_c, 9, 35, 0
12, 26880, Note_on_c, 9, 35, 79
12, 26880, Note_on_c, 9, 42, 79
12, 26880, Note_on_c, 9, 70, 52
12, 26881, Note_on_c, 9, 70, 0
12, 26881, Note_on_c, 9, 42, 0
12, 26881, Note_on_c, 9, 35, 0
12, 26940, Note_on_c, 9, 42, 33
12, 26940, Note_on_c, 9, 70, 18
12, 26940, Note_on_c, 9, 69, 52
12, 26941, Note_on_c, 9, 69, 0
12, 26941, Note_on_c, 9, 70, 0
12, 26941, Note_on_c, 9, 42, 0
12, 27000, Note_on_c, 9, 42, 69
12, 27000, Note_on_c, 9, 37, 100
12, 27000, Note_on_c, 9, 70, 52
12, 27000, Note_on_c, 9, 69, 79
12, 27001, Note_on_c, 9, 69, 0
12, 27001, Note_on_c, 9, 42, 0
12, 27001, Note_on_c, 9, 37, 0
12, 27001, Note_on_c, 9, 70, 0
12, 27060, Note_on_c, 9, 35, 60
12, 27060, Note_on_c, 9, 46, 62
12, 27060, Note_on_c, 9, 70, 18
12, 27061, Note_on_c, 9, 70, 0
12, 27061, Note_on_c, 9, 46, 0
12, 27061, Note_on_c, 9, 35, 0
12, 27120, Note_on_c, 9, 35, 79
12, 27120, Note_on_c, 9, 42, 79
12, 27120, Note_on_c, 9, 70, 52
12, 27121, Note_on_c, 9, 70, 0
12, 27121, Note_on_c, 9, 42, 0
12, 27121, Note_on_c, 9, 35, 0
12, 27180, Note_on_c, 9, 42, 33
12, 27180, Note_on_c, 9, 70, 18
12, 27180, Note_on_c, 9, 69, 52
12, 27181, Note_on_c, 9, 69, 0
12, 27181, Note_on_c, 9, 70, 0
12, 27181, Note_on_c, 9, 42, 0
12, 27240, Note_on_c, 9, 42, 69
12, 27240, Note_on_c, 9, 37, 100
12, 27240, Note_on_c, 9, 70, 52
12, 27240, Note_on_c, 9, 69, 79
12, 27241, Note_on_c, 9, 69, 0
12, 27241, Note_on_c, 9, 42, 0
12, 27241, Note_on_c, 9, 37, 0
12, 27241, Note_on_c, 9, 70, 0
12, 27300, Note_on_c, 9, 35, 60
12, 27300, Note_on_c, 9, 46, 62
12, 27300, Note_on_c, 9, 70, 18
12, 27301, Note_on_c, 9, 70, 0
12, 27301, Note_on_c, 9, 46, 0
12, 27301, Note_on_c, 9, 35, 0
12, 27360, Note_on_c, 9, 35, 79
12, 27360, Note_on_c, 9, 42, 79
12, 27360, Note_on_c, 9, 70, 52
12, 27361, Note_on_c, 9, 70, 0
12, 27361, Note_on_c, 9, 42, 0
12, 27361, Note_on_c, 9, 35, 0
12, 27420, Note_on_c, 9, 42, 33
12, 27420, Note_on_c, 9, 70, 18
12, 27420, Note_on_c, 9, 69, 52
12, 27421, Note_on_c, 9, 69, 0
12, 27421, Note_on_c, 9, 70, 0
12, 27421, Note_on_c, 9, 42, 0
12, 27480, Note_on_c, 9, 42, 89
12, 27480, Note_on_c, 9, 37, 100
12, 27480, Note_on_c, 9, 70, 52
12, 27480, Note_on_c, 9, 69, 79
12, 27481, Note_on_c, 9, 69, 0
12, 27481, Note_on_c, 9, 42, 0
12, 27481, Note_on_c, 9, 37, 0
12, 27481, Note_on_c, 9, 70, 0
12, 27540, Note_on_c, 9, 35, 60
12, 27540, Note_on_c, 9, 42, 33
12, 27540, Note_on_c, 9, 70, 18
12, 27541, Note_on_c, 9, 70, 0
12, 27541, Note_on_c, 9, 42, 0
12, 27541, Note_on_c, 9, 35, 0
12, 27600, Note_on_c, 9, 35, 79
12, 27600, Note_on_c, 9, 42, 79
12, 27600, Note_on_c, 9, 70, 52
12, 27601, Note_on_c, 9, 70, 0
12, 27601, Note_on_c, 9, 42, 0
12, 27601, Note_on_c, 9, 35, 0
12, 27660, Note_on_c, 9, 42, 33
12, 27660, Note_on_c, 9, 70, 18
12, 27660, Note_on_c, 9, 69, 52
12, 27661, Note_on_c, 9, 69, 0
12, 27661, Note_on_c, 9, 70, 0
12, 27661, Note_on_c, 9, 42, 0
12, 27720, Note_on_c, 9, 42, 89
12, 27720, Note_on_c, 9, 37, 100
12, 27720, Note_on_c, 9, 70, 52
12, 27720, Note_on_c, 9, 69, 79
12, 27721, Note_on_c, 9, 69, 0
12, 27721, Note_on_c, 9, 42, 0
12, 27721, Note_on_c, 9, 37, 0
12, 27721, Note_on_c, 9, 70, 0
12, 27780, Note_on_c, 9, 35, 64
12, 27780, Note_on_c, 9, 46, 79
12, 27780, Note_on_c, 9, 70, 18
12, 27781, Note_on_c, 9, 70, 0
12, 27781, Note_on_c, 9, 46, 0
12, 27781, Note_on_c, 9, 35, 0
12, 27840, Note_on_c, 9, 35, 79
12, 27840, Note_on_c, 9, 42, 79
12, 27840, Note_on_c, 9, 70, 52
12, 27841, Note_on_c, 9, 70, 0
12, 27841, Note_on_c, 9, 42, 0
12, 27841, Note_on_c, 9, 35, 0
12, 27900, Note_on_c, 9, 42, 33
12, 27900, Note_on_c, 9, 70, 18
12, 27900, Note_on_c, 9, 69, 52
12, 27901, Note_on_c, 9, 69, 0
12, 27901, Note_on_c, 9, 70, 0
12, 27901, Note_on_c, 9, 42, 0
12, 27960, Note_on_c, 9, 42, 60
12, 27960, Note_on_c, 9, 37, 100
12, 27960, Note_on_c, 9, 70, 52
12, 27960, Note_on_c, 9, 69, 79
12, 27961, Note_on_c, 9, 69, 0
12, 27961, Note_on_c, 9, 42, 0
12, 27961, Note_on_c, 9, 37, 0
12, 27961, Note_on_c, 9, 70, 0
12, 28020, Note_on_c, 9, 35, 60
12, 28020, Note_on_c, 9, 42, 33
12, 28020, Note_on_c, 9, 70, 18
12, 28021, Note_on_c, 9, 70, 0
12, 28021, Note_on_c, 9, 42, 0
12, 28021, Note_on_c, 9, 35, 0
12, 28080, Note_on_c, 9, 35, 79
12, 28080, Note_on_c, 9, 42, 79
12, 28080, Note_on_c, 9, 70, 52
12, 28081, Note_on_c, 9, 70, 0
12, 28081, Note_on_c, 9, 42, 0
12, 28081, Note_on_c, 9, 35, 0
12, 28140, Note_on_c, 9, 42, 33
12, 28140, Note_on_c, 9, 70, 18
12, 28140, Note_on_c, 9, 69, 52
12, 28141, Note_on_c, 9, 69, 0
12, 28141, Note_on_c, 9, 70, 0
12, 28141, Note_on_c, 9, 42, 0
12, 28200, Note_on_c, 9, 42, 60
12, 28200, Note_on_c, 9, 37, 100
12, 28200, Note_on_c, 9, 70, 52
12, 28200, Note_on_c, 9, 69, 79
12, 28201, Note_on_c, 9, 69, 0
12, 28201, Note_on_c, 9, 42, 0
12, 28201, Note_on_c, 9, 37, 0
12, 28201, Note_on_c, 9, 70, 0
12, 28260, Note_on_c, 9, 35, 60
12, 28260, Note_on_c, 9, 42, 33
12, 28260, Note_on_c, 9, 70, 18
12, 28261, Note_on_c, 9, 70, 0
12, 28261, Note_on_c, 9, 42, 0
12, 28261, Note_on_c, 9, 35, 0
12, 28320, Note_on_c, 9, 35, 79
12, 28320, Note_on_c, 9, 42, 79
12, 28320, Note_on_c, 9, 70, 52
12, 28321, Note_on_c, 9, 70, 0
12, 28321, Note_on_c, 9, 42, 0
12, 28321, Note_on_c, 9, 35, 0
12, 28380, Note_on_c, 9, 42, 33
12, 28380, Note_on_c, 9, 70, 18
12, 28380, Note_on_c, 9, 69, 52
12, 28381, Note_on_c, 9, 69, 0
12, 28381, Note_on_c, 9, 70, 0
12, 28381, Note_on_c, 9, 42, 0
12, 28440, Note_on_c, 9, 42, 89
12, 28440, Note_on_c, 9, 37, 100
12, 28440, Note_on_c, 9, 70, 52
12, 28440, Note_on_c, 9, 69, 79
12, 28441, Note_on_c, 9, 69, 0
12, 28441, Note_on_c, 9, 42, 0
12, 28441, Note_on_c, 9, 37, 0
12, 28441, Note_on_c, 9, 70, 0
12, 28500, Note_on_c, 9, 35, 60
12, 28500, Note_on_c, 9, 42, 33
12, 28500, Note_on_c, 9, 70, 18
12, 28501, Note_on_c, 9, 70, 0
12, 28501, Note_on_c, 9, 42, 0
12, 28501, Note_on_c, 9, 35, 0
12, 28560, Note_on_c, 9, 35, 79
12, 28560, Note_on_c, 9, 42, 79
12, 28560, Note_on_c, 9, 70, 52
12, 28561, Note_on_c, 9, 70, 0
12, 28561, Note_on_c, 9, 42, 0
12, 28561, Note_on_c, 9, 35, 0
12, 28620, Note_on_c, 9, 42, 33
12, 28620, Note_on_c, 9, 70, 18
12, 28620, Note_on_c, 9, 69, 52
12, 28621, Note_on_c, 9, 69, 0
12, 28621, Note_on_c, 9, 70, 0
12, 28621, Note_on_c, 9, 42, 0
12, 28680, Note_on_c, 9, 42, 89
12, 28680, Note_on_c, 9, 37, 100
12, 28680, Note_on_c, 9, 70, 52
12, 28680, Note_on_c, 9, 69, 79
12, 28681, Note_on_c, 9, 69, 0
12, 28681, Note_on_c, 9, 42, 0
12, 28681, Note_on_c, 9, 37, 0
12, 28681, Note_on_c, 9, 70, 0
12, 28740, Note_on_c, 9, 35, 64
12, 28740, Note_on_c, 9, 46, 79
12, 28740, Note_on_c, 9, 70, 18
12, 28741, Note_on_c, 9, 70, 0
12, 28741, Note_on_c, 9, 46, 0
12, 28741, Note_on_c, 9, 35, 0
12, 28800, Note_on_c, 9, 35, 79
12, 28800, Note_on_c, 9, 42, 79
12, 28800, Note_on_c, 9, 70, 52
12, 28801, Note_on_c, 9, 70, 0
12, 28801, Note_on_c, 9, 42, 0
12, 28801, Note_on_c, 9, 35, 0
12, 28860, Note_on_c, 9, 42, 33
12, 28860, Note_on_c, 9, 70, 18
12, 28860, Note_on_c, 9, 69, 52
12, 28861, Note_on_c, 9, 69, 0
12, 28861, Note_on_c, 9, 70, 0
12, 28861, Note_on_c, 9, 42, 0
12, 28920, Note_on_c, 9, 42, 69
12, 28920, Note_on_c, 9, 37, 100
12, 28920, Note_on_c, 9, 70, 52
12, 28920, Note_on_c, 9, 69, 79
12, 28921, Note_on_c, 9, 69, 0
12, 28921, Note_on_c, 9, 42, 0
12, 28921, Note_on_c, 9, 37, 0
12, 28921, Note_on_c, 9, 70, 0
12, 28980, Note_on_c, 9, 35, 60
12, 28980, Note_on_c, 9, 42, 33
12, 28980, Note_on_c, 9, 70, 18
12, 28981, Note_on_c, 9, 70, 0
12, 28981, Note_on_c, 9, 42, 0
12, 28981, Note_on_c, 9, 35, 0
12, 29040, Note_on_c, 9, 35, 79
12, 29040, Note_on_c, 9, 42, 79
12, 29040, Note_on_c, 9, 70, 52
12, 29041, Note_on_c, 9, 70, 0
12, 29041, Note_on_c, 9, 42, 0
12, 29041, Note_on_c, 9, 35, 0
12, 29100, Note_on_c, 9, 42, 33
12, 29100, Note_on_c, 9, 70, 18
12, 29100, Note_on_c, 9, 69, 52
12, 29101, Note_on_c, 9, 69, 0
12, 29101, Note_on_c, 9, 70, 0
12, 29101, Note_on_c, 9, 42, 0
12, 29160, Note_on_c, 9, 42, 69
12, 29160, Note_on_c, 9, 37, 100
12, 29160, Note_on_c, 9, 70, 52
12, 29160, Note_on_c, 9, 69, 79
12, 29161, Note_on_c, 9, 69, 0
12, 29161, Note_on_c, 9, 42, 0
12, 29161, Note_on_c, 9, 37, 0
12, 29161, Note_on_c, 9, 70, 0
12, 29220, Note_on_c, 9, 35, 60
12, 29220, Note_on_c, 9, 42, 33
12, 29220, Note_on_c, 9, 70, 18
12, 29221, Note_on_c, 9, 70, 0
12, 29221, Note_on_c, 9, 42, 0
12, 29221, Note_on_c, 9, 35, 0
12, 29280, Note_on_c, 9, 35, 79
12, 29280, Note_on_c, 9, 42, 79
12, 29280, Note_on_c, 9, 54, 79
12, 29280, Note_on_c, 9, 70, 52
12, 29281, Note_on_c, 9, 70, 0
12, 29281, Note_on_c, 9, 35, 0
12, 29281, Note_on_c, 9, 42, 0
12, 29281, Note_on_c, 9, 54, 0
12, 29340, Note_on_c, 9, 42, 37
12, 29340, Note_on_c, 9, 70, 18
12, 29340, Note_on_c, 9, 69, 52
12, 29341, Note_on_c, 9, 69, 0
12, 29341, Note_on_c, 9, 70, 0
12, 29341, Note_on_c, 9, 42, 0
12, 29400, Note_on_c, 9, 48, 89
12, 29400, Note_on_c, 9, 54, 52
12, 29400, Note_on_c, 9, 39, 69
12, 29400, Note_on_c, 9, 70, 52
12, 29400, Note_on_c, 9, 69, 79
12, 29401, Note_on_c, 9, 69, 0
12, 29401, Note_on_c, 9, 39, 0
12, 29401, Note_on_c, 9, 48, 0
12, 29401, Note_on_c, 9, 54, 0
12, 29401, Note_on_c, 9, 70, 0
12, 29460, Note_on_c, 9, 35, 60
12, 29460, Note_on_c, 9, 45, 69
12, 29460, Note_on_c, 9, 70, 18
12, 29461, Note_on_c, 9, 70, 0
12, 29461, Note_on_c, 9, 45, 0
12, 29461, Note_on_c, 9, 35, 0
12, 29520, Note_on_c, 9, 35, 79
12, 29520, Note_on_c, 9, 54, 79
12, 29520, Note_on_c, 9, 70, 52
12, 29521, Note_on_c, 9, 70, 0
12, 29521, Note_on_c, 9, 54, 0
12, 29521, Note_on_c, 9, 35, 0
12, 29580, Note_on_c, 9, 45, 79
12, 29580, Note_on_c, 9, 70, 18
12, 29580, Note_on_c, 9, 69, 52
12, 29581, Note_on_c, 9, 69, 0
12, 29581, Note_on_c, 9, 70, 0
12, 29581, Note_on_c, 9, 45, 0
12, 29640, Note_on_c, 9, 38, 89
12, 29640, Note_on_c, 9, 46, 89
12, 29640, Note_on_c, 9, 54, 52
12, 29640, Note_on_c, 9, 39, 69
12, 29640, Note_on_c, 9, 70, 52
12, 29640, Note_on_c, 9, 69, 79
12, 29641, Note_on_c, 9, 69, 0
12, 29641, Note_on_c, 9, 46, 0
12, 29641, Note_on_c, 9, 54, 0
12, 29641, Note_on_c, 9, 38, 0
12, 29641, Note_on_c, 9, 70, 0
12, 29641, Note_on_c, 9, 39, 0
12, 29700, Note_on_c, 9, 35, 64
12, 29700, Note_on_c, 9, 49, 60
12, 29700, Note_on_c, 9, 70, 18
12, 29701, Note_on_c, 9, 70, 0
12, 29701, Note_on_c, 9, 49, 0
12, 29701, Note_on_c, 9, 35, 0
12, 29760, Note_on_c, 9, 35, 79
12, 29760, Note_on_c, 9, 42, 79
12, 29760, Note_on_c, 9, 51, 79
12, 29760, Note_on_c, 9, 70, 52
12, 29761, Note_on_c, 9, 70, 0
12, 29761, Note_on_c, 9, 35, 0
12, 29761, Note_on_c, 9, 42, 0
12, 29761, Note_on_c, 9, 51, 0
12, 29820, Note_on_c, 9, 42, 33
12, 29820, Note_on_c, 9, 70, 18
12, 29820, Note_on_c, 9, 69, 52
12, 29821, Note_on_c, 9, 69, 0
12, 29821, Note_on_c, 9, 70, 0
12, 29821, Note_on_c, 9, 42, 0
12, 29880, Note_on_c, 9, 42, 60
12, 29880, Note_on_c, 9, 37, 100
12, 29880, Note_on_c, 9, 70, 52
12, 29880, Note_on_c, 9, 69, 79
12, 29881, Note_on_c, 9, 69, 0
12, 29881, Note_on_c, 9, 42, 0
12, 29881, Note_on_c, 9, 37, 0
12, 29881, Note_on_c, 9, 70, 0
12, 29940, Note_on_c, 9, 35, 60
12, 29940, Note_on_c, 9, 42, 33
12, 29940, Note_on_c, 9, 70, 18
12, 29941, Note_on_c, 9, 70, 0
12, 29941, Note_on_c, 9, 42, 0
12, 29941, Note_on_c, 9, 35, 0
12, 30000, Note_on_c, 9, 35, 79
12, 30000, Note_on_c, 9, 42, 79
12, 30000, Note_on_c, 9, 70, 52
12, 30001, Note_on_c, 9, 70, 0
12, 30001, Note_on_c, 9, 42, 0
12, 30001, Note_on_c, 9, 35, 0
12, 30060, Note_on_c, 9, 42, 33
12, 30060, Note_on_c, 9, 70, 18
12, 30060, Note_on_c, 9, 69, 52
12, 30061, Note_on_c, 9, 69, 0
12, 30061, Note_on_c, 9, 70, 0
12, 30061, Note_on_c, 9, 42, 0
12, 30120, Note_on_c, 9, 42, 60
12, 30120, Note_on_c, 9, 37, 100
12, 30120, Note_on_c, 9, 70, 52
12, 30120, Note_on_c, 9, 69, 79
12, 30121, Note_on_c, 9, 69, 0
12, 30121, Note_on_c, 9, 42, 0
12, 30121, Note_on_c, 9, 37, 0
12, 30121, Note_on_c, 9, 70, 0
12, 30180, Note_on_c, 9, 35, 60
12, 30180, Note_on_c, 9, 42, 33
12, 30180, Note_on_c, 9, 70, 18
12, 30181, Note_on_c, 9, 70, 0
12, 30181, Note_on_c, 9, 42, 0
12, 30181, Note_on_c, 9, 35, 0
12, 30240, Note_on_c, 9, 35, 79
12, 30240, Note_on_c, 9, 42, 79
12, 30240, Note_on_c, 9, 70, 52
12, 30241, Note_on_c, 9, 70, 0
12, 30241, Note_on_c, 9, 42, 0
12, 30241, Note_on_c, 9, 35, 0
12, 30300, Note_on_c, 9, 42, 48
12, 30300, Note_on_c, 9, 70, 18
12, 30300, Note_on_c, 9, 69, 52
12, 30301, Note_on_c, 9, 69, 0
12, 30301, Note_on_c, 9, 70, 0
12, 30301, Note_on_c, 9, 42, 0
12, 30360, Note_on_c, 9, 42, 84
12, 30360, Note_on_c, 9, 37, 100
12, 30360, Note_on_c, 9, 70, 52
12, 30360, Note_on_c, 9, 69, 79
12, 30361, Note_on_c, 9, 69, 0
12, 30361, Note_on_c, 9, 42, 0
12, 30361, Note_on_c, 9, 37, 0
12, 30361, Note_on_c, 9, 70, 0
12, 30420, Note_on_c, 9, 35, 60
12, 30420, Note_on_c, 9, 42, 43
12, 30420, Note_on_c, 9, 70, 18
12, 30421, Note_on_c, 9, 70, 0
12, 30421, Note_on_c, 9, 42, 0
12, 30421, Note_on_c, 9, 35, 0
12, 30480, Note_on_c, 9, 35, 79
12, 30480, Note_on_c, 9, 42, 95
12, 30480, Note_on_c, 9, 70, 52
12, 30481, Note_on_c, 9, 70, 0
12, 30481, Note_on_c, 9, 42, 0
12, 30481, Note_on_c, 9, 35, 0
12, 30540, Note_on_c, 9, 42, 79
12, 30540, Note_on_c, 9, 70, 18
12, 30540, Note_on_c, 9, 69, 52
12, 30541, Note_on_c, 9, 69, 0
12, 30541, Note_on_c, 9, 70, 0
12, 30541, Note_on_c, 9, 42, 0
12, 30600, Note_on_c, 9, 42, 89
12, 30600, Note_on_c, 9, 37, 100
12, 30600, Note_on_c, 9, 70, 52
12, 30600, Note_on_c, 9, 69, 79
12, 30601, Note_on_c, 9, 69, 0
12, 30601, Note_on_c, 9, 42, 0
12, 30601, Note_on_c, 9, 37, 0
12, 30601, Note_on_c, 9, 70, 0
12, 30660, Note_on_c, 9, 35, 64
12, 30660, Note_on_c, 9, 46, 79
12, 30660, Note_on_c, 9, 70, 18
12, 30661, Note_on_c, 9, 70, 0
12, 30661, Note_on_c, 9, 46, 0
12, 30661, Note_on_c, 9, 35, 0
12, 30720, Note_on_c, 9, 35, 79
12, 30720, Note_on_c, 9, 42, 79
12, 30720, Note_on_c, 9, 70, 52
12, 30721, Note_on_c, 9, 70, 0
12, 30721, Note_on_c, 9, 42, 0
12, 30721, Note_on_c, 9, 35, 0
12, 30780, Note_on_c, 9, 42, 33
12, 30780, Note_on_c, 9, 70, 18
12, 30780, Note_on_c, 9, 69, 52
12, 30781, Note_on_c, 9, 69, 0
12, 30781, Note_on_c, 9, 70, 0
12, 30781, Note_on_c, 9, 42, 0
12, 30840, Note_on_c, 9, 42, 60
12, 30840, Note_on_c, 9, 37, 100
12, 30840, Note_on_c, 9, 70, 52
12, 30840, Note_on_c, 9, 69, 79
12, 30841, Note_on_c, 9, 69, 0
12, 30841, Note_on_c, 9, 42, 0
12, 30841, Note_on_c, 9, 37, 0
12, 30841, Note_on_c, 9, 70, 0
12, 30900, Note_on_c, 9, 35, 60
12, 30900, Note_on_c, 9, 42, 33
12, 30900, Note_on_c, 9, 70, 18
12, 30901, Note_on_c, 9, 70, 0
12, 30901, Note_on_c, 9, 42, 0
12, 30901, Note_on_c, 9, 35, 0
12, 30960, Note_on_c, 9, 35, 79
12, 30960, Note_on_c, 9, 42, 79
12, 30960, Note_on_c, 9, 70, 52
12, 30961, Note_on_c, 9, 70, 0
12, 30961, Note_on_c, 9, 42, 0
12, 30961, Note_on_c, 9, 35, 0
12, 31020, Note_on_c, 9, 42, 33
12, 31020, Note_on_c, 9, 70, 18
12, 31020, Note_on_c, 9, 69, 52
12, 31021, Note_on_c, 9, 69, 0
12, 31021, Note_on_c, 9, 70, 0
12, 31021, Note_on_c, 9, 42, 0
12, 31080, Note_on_c, 9, 42, 60
12, 31080, Note_on_c, 9, 37, 100
12, 31080, Note_on_c, 9, 70, 52
12, 31080, Note_on_c, 9, 69, 79
12, 31081, Note_on_c, 9, 69, 0
12, 31081, Note_on_c, 9, 42, 0
12, 31081, Note_on_c, 9, 37, 0
12, 31081, Note_on_c, 9, 70, 0
12, 31140, Note_on_c, 9, 35, 60
12, 31140, Note_on_c, 9, 42, 33
12, 31140, Note_on_c, 9, 70, 18
12, 31141, Note_on_c, 9, 70, 0
12, 31141, Note_on_c, 9, 42, 0
12, 31141, Note_on_c, 9, 35, 0
12, 31200, Note_on_c, 9, 35, 79
12, 31200, Note_on_c, 9, 42, 79
12, 31200, Note_on_c, 9, 70, 52
12, 31201, Note_on_c, 9, 70, 0
12, 31201, Note_on_c, 9, 42, 0
12, 31201, Note_on_c, 9, 35, 0
12, 31260, Note_on_c, 9, 42, 48
12, 31260, Note_on_c, 9, 70, 18
12, 31260, Note_on_c, 9, 69, 52
12, 31261, Note_on_c, 9, 69, 0
12, 31261, Note_on_c, 9, 70, 0
12, 31261, Note_on_c, 9, 42, 0
12, 31320, Note_on_c, 9, 42, 84
12, 31320, Note_on_c, 9, 37, 100
12, 31320, Note_on_c, 9, 70, 52
12, 31320, Note_on_c, 9, 69, 79
12, 31321, Note_on_c, 9, 69, 0
12, 31321, Note_on_c, 9, 42, 0
12, 31321, Note_on_c, 9, 37, 0
12, 31321, Note_on_c, 9, 70, 0
12, 31380, Note_on_c, 9, 35, 60
12, 31380, Note_on_c, 9, 42, 43
12, 31380, Note_on_c, 9, 70, 18
12, 31381, Note_on_c, 9, 70, 0
12, 31381, Note_on_c, 9, 42, 0
12, 31381, Note_on_c, 9, 35, 0
12, 31440, Note_on_c, 9, 35, 79
12, 31440, Note_on_c, 9, 42, 95
12, 31440, Note_on_c, 9, 70, 52
12, 31441, Note_on_c, 9, 70, 0
12, 31441, Note_on_c, 9, 42, 0
12, 31441, Note_on_c, 9, 35, 0
12, 31500, Note_on_c, 9, 42, 79
12, 31500, Note_on_c, 9, 70, 18
12, 31500, Note_on_c, 9, 69, 52
12, 31501, Note_on_c, 9, 69, 0
12, 31501, Note_on_c, 9, 70, 0
12, 31501, Note_on_c, 9, 42, 0
12, 31560, Note_on_c, 9, 42, 89
12, 31560, Note_on_c, 9, 37, 100
12, 31560, Note_on_c, 9, 70, 52
12, 31560, Note_on_c, 9, 69, 79
12, 31561, Note_on_c, 9, 69, 0
12, 31561, Note_on_c, 9, 42, 0
12, 31561, Note_on_c, 9, 37, 0
12, 31561, Note_on_c, 9, 70, 0
12, 31620, Note_on_c, 9, 35, 64
12, 31620, Note_on_c, 9, 46, 79
12, 31620, Note_on_c, 9, 70, 18
12, 31621, Note_on_c, 9, 70, 0
12, 31621, Note_on_c, 9, 46, 0
12, 31621, Note_on_c, 9, 35, 0
12, 31680, Note_on_c, 9, 35, 79
12, 31680, Note_on_c, 9, 42, 79
12, 31680, Note_on_c, 9, 70, 52
12, 31681, Note_on_c, 9, 70, 0
12, 31681, Note_on_c, 9, 42, 0
12, 31681, Note_on_c, 9, 35, 0
12, 31740, Note_on_c, 9, 42, 33
12, 31740, Note_on_c, 9, 70, 18
12, 31740, Note_on_c, 9, 69, 52
12, 31741, Note_on_c, 9, 69, 0
12, 31741, Note_on_c, 9, 70, 0
12, 31741, Note_on_c, 9, 42, 0
12, 31800, Note_on_c, 9, 42, 60
12, 31800, Note_on_c, 9, 37, 100
12, 31800, Note_on_c, 9, 70, 52
12, 31800, Note_on_c, 9, 69, 79
12, 31801, Note_on_c, 9, 69, 0
12, 31801, Note_on_c, 9, 42, 0
12, 31801, Note_on_c, 9, 37, 0
12, 31801, Note_on_c, 9, 70, 0
12, 31860, Note_on_c, 9, 35, 60
12, 31860, Note_on_c, 9, 42, 33
12, 31860, Note_on_c, 9, 70, 18
12, 31861, Note_on_c, 9, 70, 0
12, 31861, Note_on_c, 9, 42, 0
12, 31861, Note_on_c, 9, 35, 0
12, 31920, Note_on_c, 9, 35, 79
12, 31920, Note_on_c, 9, 42, 79
12, 31920, Note_on_c, 9, 70, 52
12, 31921, Note_on_c, 9, 70, 0
12, 31921, Note_on_c, 9, 42, 0
12, 31921, Note_on_c, 9, 35, 0
12, 31980, Note_on_c, 9, 42, 33
12, 31980, Note_on_c, 9, 70, 18
12, 31980, Note_on_c, 9, 69, 52
12, 31981, Note_on_c, 9, 69, 0
12, 31981, Note_on_c, 9, 70, 0
12, 31981, Note_on_c, 9, 42, 0
12, 32040, Note_on_c, 9, 42, 60
12, 32040, Note_on_c, 9, 37, 100
12, 32040, Note_on_c, 9, 70, 52
12, 32040, Note_on_c, 9, 69, 79
12, 32041, Note_on_c, 9, 69, 0
12, 32041, Note_on_c, 9, 42, 0
12, 32041, Note_on_c, 9, 37, 0
12, 32041, Note_on_c, 9, 70, 0
12, 32100, Note_on_c, 9, 35, 60
12, 32100, Note_on_c, 9, 42, 33
12, 32100, Note_on_c, 9, 70, 18
12, 32101, Note_on_c, 9, 70, 0
12, 32101, Note_on_c, 9, 42, 0
12, 32101, Note_on_c, 9, 35, 0
12, 32160, Note_on_c, 9, 35, 79
12, 32160, Note_on_c, 9, 42, 79
12, 32160, Note_on_c, 9, 70, 52
12, 32161, Note_on_c, 9, 70, 0
12, 32161, Note_on_c, 9, 42, 0
12, 32161, Note_on_c, 9, 35, 0
12, 32220, Note_on_c, 9, 42, 33
12, 32220, Note_on_c, 9, 70, 18
12, 32220, Note_on_c, 9, 69, 52
12, 32221, Note_on_c, 9, 69, 0
12, 32221, Note_on_c, 9, 70, 0
12, 32221, Note_on_c, 9, 42, 0
12, 32280, Note_on_c, 9, 42, 89
12, 32280, Note_on_c, 9, 37, 100
12, 32280, Note_on_c, 9, 70, 52
12, 32280, Note_on_c, 9, 69, 79
12, 32281, Note_on_c, 9, 69, 0
12, 32281, Note_on_c, 9, 42, 0
12, 32281, Note_on_c, 9, 37, 0
12, 32281, Note_on_c, 9, 70, 0
12, 32340, Note_on_c, 9, 35, 60
12, 32340, Note_on_c, 9, 42, 33
12, 32340, Note_on_c, 9, 70, 18
12, 32341, Note_on_c, 9, 70, 0
12, 32341, Note_on_c, 9, 42, 0
12, 32341, Note_on_c, 9, 35, 0
12, 32400, Note_on_c, 9, 35, 79
12, 32400, Note_on_c, 9, 42, 79
12, 32400, Note_on_c, 9, 70, 52
12, 32401, Note_on_c, 9, 70, 0
12, 32401, Note_on_c, 9, 42, 0
12, 32401, Note_on_c, 9, 35, 0
12, 32460, Note_on_c, 9, 42, 33
12, 32460, Note_on_c, 9, 70, 18
12, 32460, Note_on_c, 9, 69, 52
12, 32461, Note_on_c, 9, 69, 0
12, 32461, Note_on_c, 9, 70, 0
12, 32461, Note_on_c, 9, 42, 0
12, 32520, Note_on_c, 9, 42, 89
12, 32520, Note_on_c, 9, 37, 100
12, 32520, Note_on_c, 9, 70, 52
12, 32520, Note_on_c, 9, 69, 79
12, 32521, Note_on_c, 9, 69, 0
12, 32521, Note_on_c, 9, 42, 0
12, 32521, Note_on_c, 9, 37, 0
12, 32521, Note_on_c, 9, 70, 0
12, 32580, Note_on_c, 9, 35, 64
12, 32580, Note_on_c, 9, 46, 79
12, 32580, Note_on_c, 9, 70, 18
12, 32581, Note_on_c, 9, 70, 0
12, 32581, Note_on_c, 9, 46, 0
12, 32581, Note_on_c, 9, 35, 0
12, 32640, Note_on_c, 9, 35, 79
12, 32640, Note_on_c, 9, 42, 79
12, 32640, Note_on_c, 9, 70, 52
12, 32641, Note_on_c, 9, 70, 0
12, 32641, Note_on_c, 9, 42, 0
12, 32641, Note_on_c, 9, 35, 0
12, 32700, Note_on_c, 9, 42, 33
12, 32700, Note_on_c, 9, 70, 18
12, 32700, Note_on_c, 9, 69, 52
12, 32701, Note_on_c, 9, 69, 0
12, 32701, Note_on_c, 9, 70, 0
12, 32701, Note_on_c, 9, 42, 0
12, 32760, Note_on_c, 9, 42, 69
12, 32760, Note_on_c, 9, 37, 100
12, 32760, Note_on_c, 9, 70, 52
12, 32760, Note_on_c, 9, 69, 79
12, 32761, Note_on_c, 9, 69, 0
12, 32761, Note_on_c, 9, 42, 0
12, 32761, Note_on_c, 9, 37, 0
12, 32761, Note_on_c, 9, 70, 0
12, 32820, Note_on_c, 9, 35, 60
12, 32820, Note_on_c, 9, 42, 33
12, 32820, Note_on_c, 9, 70, 18
12, 32821, Note_on_c, 9, 70, 0
12, 32821, Note_on_c, 9, 42, 0
12, 32821, Note_on_c, 9, 35, 0
12, 32880, Note_on_c, 9, 35, 79
12, 32880, Note_on_c, 9, 42, 79
12, 32880, Note_on_c, 9, 70, 52
12, 32881, Note_on_c, 9, 70, 0
12, 32881, Note_on_c, 9, 42, 0
12, 32881, Note_on_c, 9, 35, 0
12, 32940, Note_on_c, 9, 42, 33
12, 32940, Note_on_c, 9, 70, 18
12, 32940, Note_on_c, 9, 69, 52
12, 32941, Note_on_c, 9, 69, 0
12, 32941, Note_on_c, 9, 70, 0
12, 32941, Note_on_c, 9, 42, 0
12, 33000, Note_on_c, 9, 42, 69
12, 33000, Note_on_c, 9, 37, 100
12, 33000, Note_on_c, 9, 70, 52
12, 33000, Note_on_c, 9, 69, 79
12, 33001, Note_on_c, 9, 69, 0
12, 33001, Note_on_c, 9, 42, 0
12, 33001, Note_on_c, 9, 37, 0
12, 33001, Note_on_c, 9, 70, 0
12, 33060, Note_on_c, 9, 35, 60
12, 33060, Note_on_c, 9, 42, 33
12, 33060, Note_on_c, 9, 70, 18
12, 33061, Note_on_c, 9, 70, 0
12, 33061, Note_on_c, 9, 42, 0
12, 33061, Note_on_c, 9, 35, 0
12, 33120, Note_on_c, 9, 35, 79
12, 33120, Note_on_c, 9, 42, 79
12, 33120, Note_on_c, 9, 70, 52
12, 33121, Note_on_c, 9, 70, 0
12, 33121, Note_on_c, 9, 42, 0
12, 33121, Note_on_c, 9, 35, 0
12, 33180, Note_on_c, 9, 42, 48
12, 33180, Note_on_c, 9, 70, 18
12, 33180, Note_on_c, 9, 69, 52
12, 33181, Note_on_c, 9, 69, 0
12, 33181, Note_on_c, 9, 70, 0
12, 33181, Note_on_c, 9, 42, 0
12, 33240, Note_on_c, 9, 42, 84
12, 33240, Note_on_c, 9, 37, 100
12, 33240, Note_on_c, 9, 70, 52
12, 33240, Note_on_c, 9, 69, 79
12, 33241, Note_on_c, 9, 69, 0
12, 33241, Note_on_c, 9, 42, 0
12, 33241, Note_on_c, 9, 37, 0
12, 33241, Note_on_c, 9, 70, 0
12, 33300, Note_on_c, 9, 35, 60
12, 33300, Note_on_c, 9, 42, 62
12, 33300, Note_on_c, 9, 70, 18
12, 33301, Note_on_c, 9, 70, 0
12, 33301, Note_on_c, 9, 42, 0
12, 33301, Note_on_c, 9, 35, 0
12, 33360, Note_on_c, 9, 35, 79
12, 33360, Note_on_c, 9, 42, 69
12, 33360, Note_on_c, 9, 70, 52
12, 33361, Note_on_c, 9, 70, 0
12, 33361, Note_on_c, 9, 42, 0
12, 33361, Note_on_c, 9, 35, 0
12, 33420, Note_on_c, 9, 42, 52
12, 33420, Note_on_c, 9, 70, 18
12, 33420, Note_on_c, 9, 69, 52
12, 33421, Note_on_c, 9, 69, 0
12, 33421, Note_on_c, 9, 70, 0
12, 33421, Note_on_c, 9, 42, 0
12, 33480, Note_on_c, 9, 42, 89
12, 33480, Note_on_c, 9, 37, 100
12, 33480, Note_on_c, 9, 70, 52
12, 33480, Note_on_c, 9, 69, 79
12, 33481, Note_on_c, 9, 69, 0
12, 33481, Note_on_c, 9, 42, 0
12, 33481, Note_on_c, 9, 37, 0
12, 33481, Note_on_c, 9, 70, 0
12, 33540, Note_on_c, 9, 35, 64
12, 33540, Note_on_c, 9, 46, 79
12, 33540, Note_on_c, 9, 70, 18
12, 33541, Note_on_c, 9, 70, 0
12, 33541, Note_on_c, 9, 46, 0
12, 33541, Note_on_c, 9, 35, 0
12, 33600, Note_on_c, 9, 35, 79
12, 33600, Note_on_c, 9, 42, 79
12, 33600, Note_on_c, 9, 70, 52
12, 33601, Note_on_c, 9, 70, 0
12, 33601, Note_on_c, 9, 42, 0
12, 33601, Note_on_c, 9, 35, 0
12, 33660, Note_on_c, 9, 42, 33
12, 33660, Note_on_c, 9, 70, 18
12, 33660, Note_on_c, 9, 69, 52
12, 33661, Note_on_c, 9, 69, 0
12, 33661, Note_on_c, 9, 70, 0
12, 33661, Note_on_c, 9, 42, 0
12, 33720, Note_on_c, 9, 42, 60
12, 33720, Note_on_c, 9, 37, 100
12, 33720, Note_on_c, 9, 70, 52
12, 33720, Note_on_c, 9, 69, 79
12, 33721, Note_on_c, 9, 69, 0
12, 33721, Note_on_c, 9, 42, 0
12, 33721, Note_on_c, 9, 37, 0
12, 33721, Note_on_c, 9, 70, 0
12, 33780, Note_on_c, 9, 35, 60
12, 33780, Note_on_c, 9, 42, 33
12, 33780, Note_on_c, 9, 70, 18
12, 33781, Note_on_c, 9, 70, 0
12, 33781, Note_on_c, 9, 42, 0
12, 33781, Note_on_c, 9, 35, 0
12, 33840, Note_on_c, 9, 35, 79
12, 33840, Note_on_c, 9, 42, 79
12, 33840, Note_on_c, 9, 70, 52
12, 33841, Note_on_c, 9, 70, 0
12, 33841, Note_on_c, 9, 42, 0
12, 33841, Note_on_c, 9, 35, 0
12, 33900, Note_on_c, 9, 42, 33
12, 33900, Note_on_c, 9, 70, 18
12, 33900, Note_on_c, 9, 69, 52
12, 33901, Note_on_c, 9, 69, 0
12, 33901, Note_on_c, 9, 70, 0
12, 33901, Note_on_c, 9, 42, 0
12, 33960, Note_on_c, 9, 42, 60
12, 33960, Note_on_c, 9, 37, 100
12, 33960, Note_on_c, 9, 70, 52
12, 33960, Note_on_c, 9, 69, 79
12, 33961, Note_on_c, 9, 69, 0
12, 33961, Note_on_c, 9, 42, 0
12, 33961, Note_on_c, 9, 37, 0
12, 33961, Note_on_c, 9, 70, 0
12, 34020, Note_on_c, 9, 35, 60
12, 34020, Note_on_c, 9, 42, 33
12, 34020, Note_on_c, 9, 70, 18
12, 34021, Note_on_c, 9, 70, 0
12, 34021, Note_on_c, 9, 42, 0
12, 34021, Note_on_c, 9, 35, 0
12, 34080, Note_on_c, 9, 35, 79
12, 34080, Note_on_c, 9, 42, 79
12, 34080, Note_on_c, 9, 54, 79
12, 34080, Note_on_c, 9, 70, 52
12, 34081, Note_on_c, 9, 70, 0
12, 34081, Note_on_c, 9, 35, 0
12, 34081, Note_on_c, 9, 42, 0
12, 34081, Note_on_c, 9, 54, 0
12, 34140, Note_on_c, 9, 42, 33
12, 34140, Note_on_c, 9, 70, 18
12, 34140, Note_on_c, 9, 69, 52
12, 34141, Note_on_c, 9, 69, 0
12, 34141, Note_on_c, 9, 70, 0
12, 34141, Note_on_c, 9, 42, 0
12, 34200, Note_on_c, 9, 42, 89
12, 34200, Note_on_c, 9, 37, 100
12, 34200, Note_on_c, 9, 54, 52
12, 34200, Note_on_c, 9, 70, 52
12, 34200, Note_on_c, 9, 69, 79
12, 34201, Note_on_c, 9, 69, 0
12, 34201, Note_on_c, 9, 54, 0
12, 34201, Note_on_c, 9, 42, 0
12, 34201, Note_on_c, 9, 37, 0
12, 34201, Note_on_c, 9, 70, 0
12, 34260, Note_on_c, 9, 35, 60
12, 34260, Note_on_c, 9, 42, 33
12, 34260, Note_on_c, 9, 70, 18
12, 34261, Note_on_c, 9, 70, 0
12, 34261, Note_on_c, 9, 42, 0
12, 34261, Note_on_c, 9, 35, 0
12, 34320, Note_on_c, 9, 35, 79
12, 34320, Note_on_c, 9, 42, 79
12, 34320, Note_on_c, 9, 54, 79
12, 34320, Note_on_c, 9, 70, 52
12, 34321, Note_on_c, 9, 70, 0
12, 34321, Note_on_c, 9, 35, 0
12, 34321, Note_on_c, 9, 42, 0
12, 34321, Note_on_c, 9, 54, 0
12, 34380, Note_on_c, 9, 38, 60
12, 34380, Note_on_c, 9, 70, 18
12, 34380, Note_on_c, 9, 69, 52
12, 34381, Note_on_c, 9, 69, 0
12, 34381, Note_on_c, 9, 70, 0
12, 34381, Note_on_c, 9, 38, 0
12, 34410, Note_on_c, 9, 38, 79
12, 34411, Note_on_c, 9, 38, 0
12, 34440, Note_on_c, 9, 38, 100
12, 34440, Note_on_c, 9, 54, 52
12, 34440, Note_on_c, 9, 39, 69
12, 34440, Note_on_c, 9, 70, 52
12, 34440, Note_on_c, 9, 69, 79
12, 34441, Note_on_c, 9, 69, 0
12, 34441, Note_on_c, 9, 39, 0
12, 34441, Note_on_c, 9, 38, 0
12, 34441, Note_on_c, 9, 54, 0
12, 34441, Note_on_c, 9, 70, 0
12, 34441, End_track
13, 0, Start_track
13, 0, Title_t, "Strings"
13, 0, Control_c, 10, 121, 0
13, 0, Control_c, 10, 123, 0
13, 0, Control_c, 10, 91, 40
13, 0, Control_c, 10, 93, 40
13, 172, Program_c, 10, 4
13, 173, Control_c, 10, 7, 95
13, 173, Control_c, 10, 10, 69
13, 960, Note_on_c, 10, 55, 75
13, 1080, Note_on_c, 10, 55, 0
13, 1200, Note_on_c, 10, 55, 75
13, 1320, Note_on_c, 10, 55, 0
13, 1440, Note_on_c, 10, 62, 75
13, 1560, Note_on_c, 10, 62, 0
13, 1560, Note_on_c, 10, 50, 75
13, 1680, Note_on_c, 10, 50, 0
13, 1680, Note_on_c, 10, 52, 75
13, 1800, Note_on_c, 10, 52, 0
13, 1800, Note_on_c, 10, 54, 75
13, 1920, Note_on_c, 10, 54, 0
13, 1920, Note_on_c, 10, 55, 75
13, 2040, Note_on_c, 10, 55, 0
13, 2160, Note_on_c, 10, 55, 75
13, 2280, Note_on_c, 10, 55, 0
13, 2400, Note_on_c, 10, 62, 75
13, 2520, Note_on_c, 10, 62, 0
13, 2520, Note_on_c, 10, 50, 75
13, 2640, Note_on_c, 10, 50, 0
13, 2640, Note_on_c, 10, 52, 75
13, 2760, Note_on_c, 10, 52, 0
13, 2760, Note_on_c, 10, 54, 75
13, 2880, Note_on_c, 10, 54, 0
13, 2880, Note_on_c, 10, 55, 75
13, 3000, Note_on_c, 10, 55, 0
13, 3120, Note_on_c, 10, 55, 75
13, 3240, Note_on_c, 10, 55, 0
13, 3360, Note_on_c, 10, 57, 75
13, 3480, Note_on_c, 10, 57, 0
13, 3600, Note_on_c, 10, 57, 75
13, 3720, Note_on_c, 10, 57, 0
13, 3840, Note_on_c, 10, 62, 75
13, 3960, Note_on_c, 10, 62, 0
13, 4080, Note_on_c, 10, 50, 75
13, 4200, Note_on_c, 10, 50, 0
13, 4320, Note_on_c, 10, 55, 75
13, 4440, Note_on_c, 10, 55, 0
13, 4560, Note_on_c, 10, 57, 75
13, 4680, Note_on_c, 10, 57, 0
13, 4680, Note_on_c, 10, 59, 75
13, 4800, Note_on_c, 10, 59, 0
13, 4800, Note_on_c, 10, 60, 75
13, 4920, Note_on_c, 10, 60, 0
13, 5040, Note_on_c, 10, 48, 75
13, 5160, Note_on_c, 10, 48, 0
13, 5280, Note_on_c, 10, 55, 75
13, 5400, Note_on_c, 10, 55, 0
13, 5520, Note_on_c, 10, 55, 75
13, 5640, Note_on_c, 10, 55, 0
13, 5760, Note_on_c, 10, 57, 75
13, 5880, Note_on_c, 10, 57, 0
13, 6000, Note_on_c, 10, 57, 75
13, 6120, Note_on_c, 10, 57, 0
13, 6240, Note_on_c, 10, 62, 75
13, 6360, Note_on_c, 10, 62, 0
13, 6480, Note_on_c, 10, 50, 75
13, 6600, Note_on_c, 10, 50, 0
13, 6720, Note_on_c, 10, 55, 75
13, 6840, Note_on_c, 10, 55, 0
13, 6960, Note_on_c, 10, 55, 75
13, 7080, Note_on_c, 10, 55, 0
13, 7200, Note_on_c, 10, 48, 75
13, 7320, Note_on_c, 10, 48, 0
13, 7440, Note_on_c, 10, 50, 75
13, 7560, Note_on_c, 10, 50, 0
13, 7680, Note_on_c, 10, 55, 75
13, 7800, Note_on_c, 10, 55, 0
13, 7920, Note_on_c, 10, 55, 75
13, 8040, Note_on_c, 10, 55, 0
13, 8160, Note_on_c, 10, 57, 75
13, 8280, Note_on_c, 10, 57, 0
13, 8400, Note_on_c, 10, 57, 75
13, 8520, Note_on_c, 10, 57, 0
13, 8640, Note_on_c, 10, 62, 75
13, 8760, Note_on_c, 10, 62, 0
13, 8880, Note_on_c, 10, 50, 75
13, 9000, Note_on_c, 10, 50, 0
13, 9120, Note_on_c, 10, 55, 75
13, 9240, Note_on_c, 10, 55, 0
13, 9360, Note_on_c, 10, 57, 75
13, 9480, Note_on_c, 10, 57, 0
13, 9480, Note_on_c, 10, 59, 75
13, 9600, Note_on_c, 10, 59, 0
13, 9600, Note_on_c, 10, 60, 75
13, 9720, Note_on_c, 10, 60, 0
13, 9840, Note_on_c, 10, 48, 75
13, 9960, Note_on_c, 10, 48, 0
13, 10080, Note_on_c, 10, 55, 75
13, 10200, Note_on_c, 10, 55, 0
13, 10320, Note_on_c, 10, 55, 75
13, 10440, Note_on_c, 10, 55, 0
13, 10560, Note_on_c, 10, 57, 75
13, 10680, Note_on_c, 10, 57, 0
13, 10800, Note_on_c, 10, 57, 75
13, 10920, Note_on_c, 10, 57, 0
13, 11040, Note_on_c, 10, 62, 75
13, 11160, Note_on_c, 10, 62, 0
13, 11280, Note_on_c, 10, 50, 75
13, 11400, Note_on_c, 10, 50, 0
13, 11520, Note_on_c, 10, 55, 75
13, 11640, Note_on_c, 10, 55, 0
13, 11760, Note_on_c, 10, 62, 75
13, 11880, Note_on_c, 10, 62, 0
13, 12000, Note_on_c, 10, 67, 75
13, 12120, Note_on_c, 10, 67, 0
13, 12120, Note_on_c, 10, 65, 75
13, 12240, Note_on_c, 10, 65, 0
13, 12240, Note_on_c, 10, 64, 75
13, 12360, Note_on_c, 10, 64, 0
13, 12360, Note_on_c, 10, 62, 75
13, 12480, Note_on_c, 10, 62, 0
13, 12480, Note_on_c, 10, 60, 75
13, 12600, Note_on_c, 10, 60, 0
13, 12720, Note_on_c, 10, 62, 75
13, 12840, Note_on_c, 10, 62, 0
13, 12960, Note_on_c, 10, 55, 75
13, 13080, Note_on_c, 10, 55, 0
13, 13200, Note_on_c, 10, 55, 75
13, 13320, Note_on_c, 10, 55, 0
13, 13320, Note_on_c, 10, 59, 75
13, 13440, Note_on_c, 10, 59, 0
13, 13440, Note_on_c, 10, 60, 75
13, 13560, Note_on_c, 10, 60, 0
13, 13680, Note_on_c, 10, 62, 75
13, 13800, Note_on_c, 10, 62, 0
13, 13920, Note_on_c, 10, 55, 75
13, 14040, Note_on_c, 10, 55, 0
13, 14160, Note_on_c, 10, 55, 75
13, 14280, Note_on_c, 10, 55, 0
13, 14280, Note_on_c, 10, 59, 75
13, 14400, Note_on_c, 10, 59, 0
13, 14400, Note_on_c, 10, 60, 75
13, 14520, Note_on_c, 10, 60, 0
13, 14640, Note_on_c, 10, 62, 75
13, 14760, Note_on_c, 10, 62, 0
13, 14880, Note_on_c, 10, 67, 75
13, 15000, Note_on_c, 10, 67, 0
13, 15000, Note_on_c, 10, 66, 75
13, 15120, Note_on_c, 10, 66, 0
13, 15120, Note_on_c, 10, 64, 75
13, 15240, Note_on_c, 10, 64, 0
13, 15240, Note_on_c, 10, 59, 75
13, 15360, Note_on_c, 10, 59, 0
13, 15360, Note_on_c, 10, 57, 75
13, 15480, Note_on_c, 10, 57, 0
13, 15600, Note_on_c, 10, 57, 75
13, 15720, Note_on_c, 10, 57, 0
13, 15840, Note_on_c, 10, 62, 75
13, 15960, Note_on_c, 10, 62, 0
13, 15960, Note_on_c, 10, 50, 75
13, 16080, Note_on_c, 10, 50, 0
13, 16080, Note_on_c, 10, 52, 75
13, 16200, Note_on_c, 10, 52, 0
13, 16200, Note_on_c, 10, 54, 75
13, 16320, Note_on_c, 10, 54, 0
13, 16320, Note_on_c, 10, 55, 75
13, 16440, Note_on_c, 10, 55, 0
13, 16560, Note_on_c, 10, 55, 75
13, 16680, Note_on_c, 10, 55, 0
13, 16800, Note_on_c, 10, 57, 75
13, 16920, Note_on_c, 10, 57, 0
13, 17040, Note_on_c, 10, 57, 75
13, 17160, Note_on_c, 10, 57, 0
13, 17280, Note_on_c, 10, 62, 75
13, 17400, Note_on_c, 10, 62, 0
13, 17520, Note_on_c, 10, 50, 75
13, 17640, Note_on_c, 10, 50, 0
13, 17760, Note_on_c, 10, 55, 75
13, 17880, Note_on_c, 10, 55, 0
13, 18000, Note_on_c, 10, 57, 75
13, 18120, Note_on_c, 10, 57, 0
13, 18120, Note_on_c, 10, 59, 75
13, 18240, Note_on_c, 10, 59, 0
13, 18240, Note_on_c, 10, 60, 75
13, 18360, Note_on_c, 10, 60, 0
13, 18480, Note_on_c, 10, 48, 75
13, 18600, Note_on_c, 10, 48, 0
13, 18720, Note_on_c, 10, 55, 75
13, 18840, Note_on_c, 10, 55, 0
13, 18960, Note_on_c, 10, 55, 75
13, 19080, Note_on_c, 10, 55, 0
13, 19200, Note_on_c, 10, 57, 75
13, 19320, Note_on_c, 10, 57, 0
13, 19440, Note_on_c, 10, 57, 75
13, 19560, Note_on_c, 10, 57, 0
13, 19680, Note_on_c, 10, 62, 75
13, 19800, Note_on_c, 10, 62, 0
13, 19920, Note_on_c, 10, 50, 75
13, 20040, Note_on_c, 10, 50, 0
13, 20160, Note_on_c, 10, 55, 75
13, 20280, Note_on_c, 10, 55, 0
13, 20400, Note_on_c, 10, 55, 75
13, 20520, Note_on_c, 10, 55, 0
13, 20640, Note_on_c, 10, 48, 75
13, 20760, Note_on_c, 10, 48, 0
13, 20880, Note_on_c, 10, 50, 75
13, 21000, Note_on_c, 10, 50, 0
13, 21120, Note_on_c, 10, 55, 75
13, 21240, Note_on_c, 10, 55, 0
13, 21360, Note_on_c, 10, 55, 75
13, 21480, Note_on_c, 10, 55, 0
13, 21600, Note_on_c, 10, 57, 75
13, 21720, Note_on_c, 10, 57, 0
13, 21840, Note_on_c, 10, 57, 75
13, 21960, Note_on_c, 10, 57, 0
13, 22080, Note_on_c, 10, 62, 75
13, 22200, Note_on_c, 10, 62, 0
13, 22320, Note_on_c, 10, 50, 75
13, 22440, Note_on_c, 10, 50, 0
13, 22560, Note_on_c, 10, 55, 75
13, 22680, Note_on_c, 10, 55, 0
13, 22800, Note_on_c, 10, 57, 75
13, 22920, Note_on_c, 10, 57, 0
13, 22920, Note_on_c, 10, 59, 75
13, 23040, Note_on_c, 10, 59, 0
13, 23040, Note_on_c, 10, 60, 75
13, 23160, Note_on_c, 10, 60, 0
13, 23280, Note_on_c, 10, 48, 75
13, 23400, Note_on_c, 10, 48, 0
13, 23520, Note_on_c, 10, 55, 75
13, 23640, Note_on_c, 10, 55, 0
13, 23760, Note_on_c, 10, 55, 75
13, 23880, Note_on_c, 10, 55, 0
13, 24000, Note_on_c, 10, 57, 75
13, 24120, Note_on_c, 10, 57, 0
13, 24240, Note_on_c, 10, 57, 75
13, 24360, Note_on_c, 10, 57, 0
13, 24480, Note_on_c, 10, 62, 75
13, 24600, Note_on_c, 10, 62, 0
13, 24720, Note_on_c, 10, 50, 75
13, 24840, Note_on_c, 10, 50, 0
13, 24960, Note_on_c, 10, 55, 75
13, 25080, Note_on_c, 10, 55, 0
13, 25200, Note_on_c, 10, 62, 75
13, 25320, Note_on_c, 10, 62, 0
13, 25440, Note_on_c, 10, 67, 75
13, 25560, Note_on_c, 10, 67, 0
13, 25560, Note_on_c, 10, 65, 75
13, 25680, Note_on_c, 10, 65, 0
13, 25680, Note_on_c, 10, 64, 75
13, 25800, Note_on_c, 10, 64, 0
13, 25800, Note_on_c, 10, 62, 75
13, 25920, Note_on_c, 10, 62, 0
13, 25920, Note_on_c, 10, 60, 75
13, 26040, Note_on_c, 10, 60, 0
13, 26160, Note_on_c, 10, 62, 75
13, 26280, Note_on_c, 10, 62, 0
13, 26400, Note_on_c, 10, 55, 75
13, 26520, Note_on_c, 10, 55, 0
13, 26640, Note_on_c, 10, 55, 75
13, 26760, Note_on_c, 10, 55, 0
13, 26760, Note_on_c, 10, 59, 75
13, 26880, Note_on_c, 10, 59, 0
13, 26880, Note_on_c, 10, 60, 75
13, 27000, Note_on_c, 10, 60, 0
13, 27120, Note_on_c, 10, 62, 75
13, 27240, Note_on_c, 10, 62, 0
13, 27360, Note_on_c, 10, 55, 75
13, 27480, Note_on_c, 10, 55, 0
13, 27600, Note_on_c, 10, 55, 75
13, 27720, Note_on_c, 10, 55, 0
13, 27720, Note_on_c, 10, 59, 75
13, 27840, Note_on_c, 10, 59, 0
13, 27840, Note_on_c, 10, 60, 75
13, 27960, Note_on_c, 10, 60, 0
13, 28080, Note_on_c, 10, 62, 75
13, 28200, Note_on_c, 10, 62, 0
13, 28320, Note_on_c, 10, 67, 75
13, 28440, Note_on_c, 10, 67, 0
13, 28440, Note_on_c, 10, 66, 75
13, 28560, Note_on_c, 10, 66, 0
13, 28560, Note_on_c, 10, 64, 75
13, 28680, Note_on_c, 10, 64, 0
13, 28680, Note_on_c, 10, 59, 75
13, 28800, Note_on_c, 10, 59, 0
13, 28800, Note_on_c, 10, 57, 75
13, 28920, Note_on_c, 10, 57, 0
13, 29040, Note_on_c, 10, 57, 75
13, 29160, Note_on_c, 10, 57, 0
13, 29280, Note_on_c, 10, 62, 75
13, 29400, Note_on_c, 10, 62, 0
13, 29400, Note_on_c, 10, 50, 75
13, 29520, Note_on_c, 10, 50, 0
13, 29520, Note_on_c, 10, 52, 75
13, 29640, Note_on_c, 10, 52, 0
13, 29640, Note_on_c, 10, 54, 75
13, 29760, Note_on_c, 10, 54, 0
13, 29760, Note_on_c, 10, 55, 75
13, 29880, Note_on_c, 10, 55, 0
13, 30000, Note_on_c, 10, 55, 75
13, 30120, Note_on_c, 10, 55, 0
13, 30240, Note_on_c, 10, 57, 75
13, 30360, Note_on_c, 10, 57, 0
13, 30480, Note_on_c, 10, 57, 75
13, 30600, Note_on_c, 10, 57, 0
13, 30720, Note_on_c, 10, 62, 75
13, 30840, Note_on_c, 10, 62, 0
13, 30960, Note_on_c, 10, 50, 75
13, 31080, Note_on_c, 10, 50, 0
13, 31200, Note_on_c, 10, 55, 75
13, 31320, Note_on_c, 10, 55, 0
13, 31440, Note_on_c, 10, 57, 75
13, 31560, Note_on_c, 10, 57, 0
13, 31560, Note_on_c, 10, 59, 75
13, 31680, Note_on_c, 10, 59, 0
13, 31680, Note_on_c, 10, 60, 75
13, 31800, Note_on_c, 10, 60, 0
13, 31920, Note_on_c, 10, 48, 75
13, 32040, Note_on_c, 10, 48, 0
13, 32160, Note_on_c, 10, 55, 75
13, 32280, Note_on_c, 10, 55, 0
13, 32400, Note_on_c, 10, 55, 75
13, 32520, Note_on_c, 10, 55, 0
13, 32640, Note_on_c, 10, 57, 75
13, 32760, Note_on_c, 10, 57, 0
13, 32880, Note_on_c, 10, 57, 75
13, 33000, Note_on_c, 10, 57, 0
13, 33120, Note_on_c, 10, 62, 75
13, 33240, Note_on_c, 10, 62, 0
13, 33360, Note_on_c, 10, 50, 75
13, 33480, Note_on_c, 10, 50, 0
13, 33600, Note_on_c, 10, 55, 75
13, 33720, Note_on_c, 10, 55, 0
13, 33840, Note_on_c, 10, 50, 75
13, 33960, Note_on_c, 10, 50, 0
13, 34080, Note_on_c, 10, 55, 75
13, 34200, Note_on_c, 10, 55, 0
13, 34320, Note_on_c, 10, 43, 75
13, 34320, Note_on_c, 10, 55, 75
13, 34440, Note_on_c, 10, 55, 0
13, 34440, Note_on_c, 10, 43, 0
13, 34440, End_track
0, 0, End_of_file
