0, 0, Header, 1, 9, 240
1, 0, Start_track
1, 0, Time_signature, 4, 2, 24, 8
1, 0, Tempo, 566037
1, 0, End_track
2, 0, Start_track
2, 0, Title_t, "1"
2, 0, Program_c, 0, 29
2, 0, Control_c, 0, 7, 120
2, 0, Note_on_c, 0, 46, 127
2, 92, Note_on_c, 0, 46, 0
2, 240, Note_on_c, 0, 58, 127
2, 360, Note_on_c, 0, 58, 0
2, 480, Note_on_c, 0, 46, 127
2, 602, Note_on_c, 0, 46, 0
2, 720, Note_on_c, 0, 58, 127
2, 840, Note_on_c, 0, 58, 0
2, 960, Note_on_c, 0, 46, 127
2, 1068, Note_on_c, 0, 46, 0
2, 1200, Note_on_c, 0, 58, 127
2, 1320, Note_on_c, 0, 58, 0
2, 1440, Note_on_c, 0, 46, 127
2, 1574, Note_on_c, 0, 46, 0
2, 1680, Note_on_c, 0, 58, 127
2, 1800, Note_on_c, 0, 58, 0
2, 1904, Note_on_c, 0, 57, 127
2, 1920, Note_on_c, 0, 57, 0
2, 1920, Note_on_c, 0, 57, 127
2, 1932, Pitch_bend_c, 0, 8576
2, 1936, Pitch_bend_c, 0, 8896
2, 1940, Pitch_bend_c, 0, 9280
2, 1944, Pitch_bend_c, 0, 9600
2, 1946, Pitch_bend_c, 0, 9984
2, 1950, Pitch_bend_c, 0, 10304
2, 1954, Pitch_bend_c, 0, 10752
2, 1956, Pitch_bend_c, 0, 11072
2, 1960, Pitch_bend_c, 0, 11392
2, 1964, Pitch_bend_c, 0, 11712
2, 1966, Pitch_bend_c, 0, 12096
2, 1970, Pitch_bend_c, 0, 12608
2, 1972, Pitch_bend_c, 0, 13120
2, 1976, Pitch_bend_c, 0, 13696
2, 1978, Pitch_bend_c, 0, 14528
2, 1980, Pitch_bend_c, 0, 15936
2, 2034, Note_on_c, 0, 57, 0
2, 2040, Note_on_c, 0, 60, 127
2, 2158, Note_on_c, 0, 60, 0
2, 2160, Note_on_c, 0, 65, 127
2, 2272, Pitch_bend_c, 0, 8256
2, 2278, Note_on_c, 0, 65, 0
2, 2280, Note_on_c, 0, 57, 127
2, 2344, Control_c, 0, 1, 2
2, 2346, Control_c, 0, 1, 8
2, 2350, Control_c, 0, 1, 14
2, 2352, Control_c, 0, 1, 20
2, 2356, Control_c, 0, 1, 28
2, 2360, Control_c, 0, 1, 34
2, 2364, Control_c, 0, 1, 42
2, 2374, Control_c, 0, 1, 48
2, 2410, Control_c, 0, 1, 54
2, 2440, Control_c, 0, 1, 60
2, 2450, Control_c, 0, 1, 62
2, 2658, Control_c, 0, 1, 56
2, 2666, Control_c, 0, 1, 50
2, 2670, Control_c, 0, 1, 44
2, 2672, Control_c, 0, 1, 38
2, 2676, Control_c, 0, 1, 16
2, 2678, Note_on_c, 0, 57, 0
2, 2680, Control_c, 0, 1, 8
2, 2684, Control_c, 0, 1, 0
2, 2880, Note_on_c, 0, 55, 123
2, 2990, Note_on_c, 0, 55, 0
2, 3000, Note_on_c, 0, 50, 127
2, 3096, Note_on_c, 0, 38, 90
2, 3132, Pitch_bend_c, 0, 8712
2, 3136, Pitch_bend_c, 0, 10012
2, 3140, Pitch_bend_c, 0, 10922
2, 3142, Pitch_bend_c, 0, 12352
2, 3146, Pitch_bend_c, 0, 13782
2, 3150, Pitch_bend_c, 0, 15602
2, 3152, Pitch_bend_c, 0, 15992
2, 3158, Pitch_bend_c, 0, 16382
2, 3188, Note_on_c, 0, 50, 0
2, 3232, Note_on_c, 0, 38, 0
2, 3234, Pitch_bend_c, 0, 15992
2, 3236, Pitch_bend_c, 0, 15472
2, 3240, Note_on_c, 0, 50, 127
2, 3240, Pitch_bend_c, 0, 13912
2, 3244, Pitch_bend_c, 0, 13002
2, 3246, Pitch_bend_c, 0, 11312
2, 3250, Pitch_bend_c, 0, 9882
2, 3254, Pitch_bend_c, 0, 9232
2, 3256, Pitch_bend_c, 0, 8712
2, 3262, Pitch_bend_c, 0, 8192
2, 3316, Pitch_bend_c, 0, 8582
2, 3318, Pitch_bend_c, 0, 10662
2, 3322, Pitch_bend_c, 0, 12352
2, 3324, Pitch_bend_c, 0, 14692
2, 3328, Pitch_bend_c, 0, 15472
2, 3330, Pitch_bend_c, 0, 16122
2, 3336, Pitch_bend_c, 0, 16382
2, 3522, Control_c, 0, 1, 6
2, 3530, Control_c, 0, 1, 14
2, 3534, Control_c, 0, 1, 20
2, 3538, Control_c, 0, 1, 26
2, 3550, Control_c, 0, 1, 32
2, 3562, Control_c, 0, 1, 38
2, 3568, Control_c, 0, 1, 44
2, 3580, Control_c, 0, 1, 50
2, 3594, Control_c, 0, 1, 52
2, 3710, Control_c, 0, 1, 46
2, 3714, Control_c, 0, 1, 40
2, 3718, Control_c, 0, 1, 34
2, 3722, Control_c, 0, 1, 24
2, 3728, Note_on_c, 0, 50, 0
2, 3728, Control_c, 0, 1, 12
2, 3732, Control_c, 0, 1, 2
2, 3732, Control_c, 0, 1, 0
2, 3840, Note_on_c, 0, 57, 127
2, 3852, Pitch_bend_c, 0, 8576
2, 3856, Pitch_bend_c, 0, 8896
2, 3860, Pitch_bend_c, 0, 9280
2, 3864, Pitch_bend_c, 0, 9600
2, 3866, Pitch_bend_c, 0, 9984
2, 3870, Pitch_bend_c, 0, 10304
2, 3874, Pitch_bend_c, 0, 10752
2, 3876, Pitch_bend_c, 0, 11072
2, 3880, Pitch_bend_c, 0, 11392
2, 3884, Pitch_bend_c, 0, 11712
2, 3886, Pitch_bend_c, 0, 12096
2, 3890, Pitch_bend_c, 0, 12608
2, 3892, Pitch_bend_c, 0, 13120
2, 3896, Pitch_bend_c, 0, 13696
2, 3898, Pitch_bend_c, 0, 14528
2, 3900, Pitch_bend_c, 0, 15936
2, 3958, Note_on_c, 0, 57, 0
2, 3960, Note_on_c, 0, 60, 127
2, 4080, Note_on_c, 0, 60, 0
2, 4080, Note_on_c, 0, 65, 127
2, 4190, Pitch_bend_c, 0, 15616
2, 4192, Pitch_bend_c, 0, 15104
2, 4194, Note_on_c, 0, 65, 0
2, 4196, Pitch_bend_c, 0, 14656
2, 4198, Pitch_bend_c, 0, 14144
2, 4200, Note_on_c, 0, 57, 127
2, 4202, Pitch_bend_c, 0, 13632
2, 4204, Pitch_bend_c, 0, 13184
2, 4208, Pitch_bend_c, 0, 12672
2, 4210, Pitch_bend_c, 0, 12288
2, 4214, Pitch_bend_c, 0, 11840
2, 4216, Pitch_bend_c, 0, 11456
2, 4220, Pitch_bend_c, 0, 11136
2, 4222, Pitch_bend_c, 0, 10624
2, 4226, Pitch_bend_c, 0, 10112
2, 4228, Pitch_bend_c, 0, 9792
2, 4232, Pitch_bend_c, 0, 9408
2, 4234, Pitch_bend_c, 0, 9024
2, 4238, Pitch_bend_c, 0, 8512
2, 4242, Pitch_bend_c, 0, 8256
2, 4266, Control_c, 0, 1, 8
2, 4270, Control_c, 0, 1, 14
2, 4272, Control_c, 0, 1, 20
2, 4276, Control_c, 0, 1, 28
2, 4280, Control_c, 0, 1, 34
2, 4284, Control_c, 0, 1, 42
2, 4294, Control_c, 0, 1, 48
2, 4330, Control_c, 0, 1, 54
2, 4360, Control_c, 0, 1, 60
2, 4370, Control_c, 0, 1, 62
2, 4578, Control_c, 0, 1, 56
2, 4586, Control_c, 0, 1, 50
2, 4590, Control_c, 0, 1, 44
2, 4592, Control_c, 0, 1, 38
2, 4596, Control_c, 0, 1, 16
2, 4598, Note_on_c, 0, 57, 0
2, 4600, Control_c, 0, 1, 8
2, 4604, Control_c, 0, 1, 0
2, 4800, Note_on_c, 0, 55, 123
2, 4910, Note_on_c, 0, 55, 0
2, 4920, Note_on_c, 0, 50, 127
2, 5022, Note_on_c, 0, 38, 90
2, 5052, Pitch_bend_c, 0, 8712
2, 5056, Pitch_bend_c, 0, 10012
2, 5060, Pitch_bend_c, 0, 10922
2, 5062, Pitch_bend_c, 0, 12352
2, 5066, Pitch_bend_c, 0, 13782
2, 5070, Pitch_bend_c, 0, 15602
2, 5072, Pitch_bend_c, 0, 15992
2, 5078, Pitch_bend_c, 0, 16382
2, 5128, Note_on_c, 0, 50, 0
2, 5154, Pitch_bend_c, 0, 15992
2, 5156, Pitch_bend_c, 0, 15472
2, 5160, Note_on_c, 0, 50, 127
2, 5160, Pitch_bend_c, 0, 13912
2, 5164, Pitch_bend_c, 0, 13002
2, 5166, Note_on_c, 0, 38, 0
2, 5166, Pitch_bend_c, 0, 11312
2, 5170, Pitch_bend_c, 0, 9882
2, 5174, Pitch_bend_c, 0, 9232
2, 5176, Pitch_bend_c, 0, 8712
2, 5182, Pitch_bend_c, 0, 8192
2, 5236, Pitch_bend_c, 0, 8582
2, 5238, Pitch_bend_c, 0, 10662
2, 5242, Pitch_bend_c, 0, 12352
2, 5244, Pitch_bend_c, 0, 14692
2, 5248, Pitch_bend_c, 0, 15472
2, 5250, Pitch_bend_c, 0, 16122
2, 5256, Pitch_bend_c, 0, 16382
2, 5442, Control_c, 0, 1, 6
2, 5450, Control_c, 0, 1, 14
2, 5454, Control_c, 0, 1, 20
2, 5458, Control_c, 0, 1, 26
2, 5470, Control_c, 0, 1, 32
2, 5482, Control_c, 0, 1, 38
2, 5488, Control_c, 0, 1, 44
2, 5500, Control_c, 0, 1, 50
2, 5514, Control_c, 0, 1, 52
2, 5520, Note_on_c, 0, 50, 0
2, 5520, Pitch_bend_c, 0, 8256
2, 5628, Note_on_c, 0, 50, 122
2, 5630, Control_c, 0, 1, 46
2, 5634, Control_c, 0, 1, 40
2, 5638, Control_c, 0, 1, 34
2, 5642, Control_c, 0, 1, 24
2, 5648, Control_c, 0, 1, 12
2, 5652, Pitch_bend_c, 0, 8582
2, 5652, Control_c, 0, 1, 2
2, 5652, Control_c, 0, 1, 0
2, 5654, Pitch_bend_c, 0, 9102
2, 5658, Pitch_bend_c, 0, 10272
2, 5662, Pitch_bend_c, 0, 11052
2, 5664, Pitch_bend_c, 0, 12612
2, 5670, Pitch_bend_c, 0, 14562
2, 5674, Pitch_bend_c, 0, 15862
2, 5678, Pitch_bend_c, 0, 16252
2, 5680, Pitch_bend_c, 0, 16382
2, 5734, Note_on_c, 0, 50, 0
2, 5740, Pitch_bend_c, 0, 15862
2, 5744, Pitch_bend_c, 0, 8256
2, 5744, Pitch_bend_c, 0, 13392
2, 5748, Pitch_bend_c, 0, 10532
2, 5750, Pitch_bend_c, 0, 8192
2, 5752, Pitch_bend_c, 0, 8064
2, 5754, Pitch_bend_c, 0, 8192
2, 5758, Pitch_bend_c, 0, 8582
2, 5760, Note_on_c, 0, 55, 113
2, 5760, Pitch_bend_c, 0, 8972
2, 5766, Pitch_bend_c, 0, 8452
2, 5766, Pitch_bend_c, 0, 8192
2, 5770, Pitch_bend_c, 0, 7936
2, 5776, Pitch_bend_c, 0, 8192
2, 5856, Note_on_c, 0, 55, 0
2, 5880, Note_on_c, 0, 57, 113
2, 5954, Note_on_c, 0, 57, 0
2, 6000, Note_on_c, 0, 59, 113
2, 6104, Note_on_c, 0, 59, 0
2, 6120, Note_on_c, 0, 53, 113
2, 6128, Pitch_bend_c, 0, 8712
2, 6132, Pitch_bend_c, 0, 9102
2, 6134, Pitch_bend_c, 0, 9622
2, 6138, Pitch_bend_c, 0, 10402
2, 6144, Pitch_bend_c, 0, 11312
2, 6148, Pitch_bend_c, 0, 12742
2, 6150, Pitch_bend_c, 0, 13522
2, 6154, Pitch_bend_c, 0, 14692
2, 6158, Pitch_bend_c, 0, 15472
2, 6160, Pitch_bend_c, 0, 15862
2, 6164, Pitch_bend_c, 0, 16252
2, 6166, Pitch_bend_c, 0, 16382
2, 6366, Pitch_bend_c, 0, 15992
2, 6368, Pitch_bend_c, 0, 15472
2, 6372, Pitch_bend_c, 0, 15082
2, 6376, Pitch_bend_c, 0, 14432
2, 6380, Pitch_bend_c, 0, 14042
2, 6384, Pitch_bend_c, 0, 13782
2, 6392, Pitch_bend_c, 0, 14172
2, 6398, Pitch_bend_c, 0, 15212
2, 6400, Pitch_bend_c, 0, 15732
2, 6404, Pitch_bend_c, 0, 16252
2, 6408, Pitch_bend_c, 0, 16382
2, 6426, Pitch_bend_c, 0, 15992
2, 6428, Pitch_bend_c, 0, 15602
2, 6432, Pitch_bend_c, 0, 14692
2, 6434, Pitch_bend_c, 0, 13912
2, 6438, Pitch_bend_c, 0, 13132
2, 6442, Pitch_bend_c, 0, 12742
2, 6444, Pitch_bend_c, 0, 12352
2, 6452, Pitch_bend_c, 0, 12872
2, 6456, Pitch_bend_c, 0, 13652
2, 6458, Pitch_bend_c, 0, 15212
2, 6462, Pitch_bend_c, 0, 15732
2, 6466, Pitch_bend_c, 0, 16252
2, 6470, Pitch_bend_c, 0, 16382
2, 6496, Pitch_bend_c, 0, 15732
2, 6500, Pitch_bend_c, 0, 15342
2, 6504, Pitch_bend_c, 0, 15082
2, 6512, Pitch_bend_c, 0, 15602
2, 6514, Pitch_bend_c, 0, 16122
2, 6520, Pitch_bend_c, 0, 16382
2, 6562, Pitch_bend_c, 0, 16252
2, 6566, Pitch_bend_c, 0, 16382
2, 6616, Pitch_bend_c, 0, 15992
2, 6620, Note_on_c, 0, 53, 0
2, 6626, Pitch_bend_c, 0, 16382
2, 6640, Pitch_bend_c, 0, 15992
2, 6644, Pitch_bend_c, 0, 13522
2, 6646, Pitch_bend_c, 0, 10532
2, 6650, Pitch_bend_c, 0, 7808
2, 6652, Pitch_bend_c, 0, 7552
2, 6656, Pitch_bend_c, 0, 7936
2, 6656, Pitch_bend_c, 0, 8192
2, 6660, Pitch_bend_c, 0, 8972
2, 6664, Pitch_bend_c, 0, 8582
2, 6666, Pitch_bend_c, 0, 8192
2, 6668, Pitch_bend_c, 0, 7808
2, 6676, Pitch_bend_c, 0, 8192
2, 6700, Note_on_c, 0, 53, 108
2, 6726, Pitch_bend_c, 0, 8712
2, 6730, Pitch_bend_c, 0, 9492
2, 6732, Pitch_bend_c, 0, 10402
2, 6736, Pitch_bend_c, 0, 11832
2, 6740, Pitch_bend_c, 0, 13002
2, 6742, Pitch_bend_c, 0, 14172
2, 6746, Pitch_bend_c, 0, 15472
2, 6748, Pitch_bend_c, 0, 15992
2, 6756, Pitch_bend_c, 0, 16382
2, 6834, Note_on_c, 0, 53, 0
2, 6840, Note_on_c, 0, 45, 122
2, 6842, Pitch_bend_c, 0, 14822
2, 6846, Pitch_bend_c, 0, 12742
2, 6850, Pitch_bend_c, 0, 8192
2, 6852, Pitch_bend_c, 0, 7296
2, 6856, Pitch_bend_c, 0, 7936
2, 6856, Pitch_bend_c, 0, 8192
2, 6860, Pitch_bend_c, 0, 8842
2, 6862, Pitch_bend_c, 0, 8972
2, 6866, Pitch_bend_c, 0, 8322
2, 6866, Pitch_bend_c, 0, 8192
2, 6870, Pitch_bend_c, 0, 7680
2, 6874, Pitch_bend_c, 0, 8064
2, 6876, Pitch_bend_c, 0, 8192
2, 6886, Pitch_bend_c, 0, 8064
2, 6888, Pitch_bend_c, 0, 8192
2, 6954, Note_on_c, 0, 45, 0
2, 6960, Note_on_c, 0, 40, 113
2, 7074, Note_on_c, 0, 40, 0
2, 7080, Note_on_c, 0, 43, 104
2, 7206, Pitch_bend_c, 0, 8582
2, 7214, Pitch_bend_c, 0, 8972
2, 7228, Pitch_bend_c, 0, 8582
2, 7234, Pitch_bend_c, 0, 8192
2, 7318, Pitch_bend_c, 0, 7808
2, 7322, Pitch_bend_c, 0, 7552
2, 7334, Pitch_bend_c, 0, 7936
2, 7338, Pitch_bend_c, 0, 8192
2, 7348, Pitch_bend_c, 0, 8582
2, 7352, Pitch_bend_c, 0, 9102
2, 7356, Pitch_bend_c, 0, 9622
2, 7358, Pitch_bend_c, 0, 10532
2, 7362, Pitch_bend_c, 0, 11052
2, 7364, Pitch_bend_c, 0, 11442
2, 7366, Pitch_bend_c, 0, 11572
2, 7376, Pitch_bend_c, 0, 11182
2, 7382, Pitch_bend_c, 0, 10662
2, 7384, Pitch_bend_c, 0, 10012
2, 7388, Pitch_bend_c, 0, 9622
2, 7390, Pitch_bend_c, 0, 9232
2, 7394, Pitch_bend_c, 0, 8842
2, 7398, Pitch_bend_c, 0, 8452
2, 7400, Pitch_bend_c, 0, 8322
2, 7412, Pitch_bend_c, 0, 8712
2, 7416, Pitch_bend_c, 0, 9492
2, 7418, Pitch_bend_c, 0, 9882
2, 7422, Pitch_bend_c, 0, 10792
2, 7426, Pitch_bend_c, 0, 11312
2, 7428, Pitch_bend_c, 0, 11832
2, 7432, Pitch_bend_c, 0, 12352
2, 7438, Pitch_bend_c, 0, 12612
2, 7444, Pitch_bend_c, 0, 12092
2, 7448, Pitch_bend_c, 0, 11702
2, 7452, Pitch_bend_c, 0, 11182
2, 7456, Pitch_bend_c, 0, 10792
2, 7458, Pitch_bend_c, 0, 9882
2, 7462, Pitch_bend_c, 0, 9492
2, 7464, Pitch_bend_c, 0, 9102
2, 7468, Pitch_bend_c, 0, 8712
2, 7474, Pitch_bend_c, 0, 8452
2, 7486, Pitch_bend_c, 0, 8842
2, 7490, Pitch_bend_c, 0, 10272
2, 7492, Pitch_bend_c, 0, 10662
2, 7496, Pitch_bend_c, 0, 11442
2, 7500, Pitch_bend_c, 0, 11832
2, 7502, Pitch_bend_c, 0, 12352
2, 7508, Pitch_bend_c, 0, 12612
2, 7518, Pitch_bend_c, 0, 12092
2, 7526, Pitch_bend_c, 0, 11572
2, 7528, Pitch_bend_c, 0, 11182
2, 7532, Pitch_bend_c, 0, 10792
2, 7536, Pitch_bend_c, 0, 9882
2, 7538, Pitch_bend_c, 0, 9492
2, 7540, Note_on_c, 0, 43, 0
2, 7542, Pitch_bend_c, 0, 8972
2, 7544, Pitch_bend_c, 0, 8582
2, 7550, Pitch_bend_c, 0, 8192
2, 7566, Note_on_c, 0, 45, 127
2, 7666, Note_on_c, 0, 45, 0
2, 7678, Note_on_c, 0, 45, 127
2, 7710, Pitch_bend_c, 0, 8842
2, 7712, Pitch_bend_c, 0, 9362
2, 7716, Pitch_bend_c, 0, 10922
2, 7718, Pitch_bend_c, 0, 11702
2, 7722, Pitch_bend_c, 0, 13522
2, 7726, Pitch_bend_c, 0, 14562
2, 7730, Pitch_bend_c, 0, 15862
2, 7732, Pitch_bend_c, 0, 16252
2, 7736, Pitch_bend_c, 0, 16382
2, 7774, Note_on_c, 0, 45, 0
2, 7804, Note_on_c, 0, 53, 122
2, 7890, Pitch_bend_c, 0, 15992
2, 7894, Pitch_bend_c, 0, 15212
2, 7898, Pitch_bend_c, 0, 14692
2, 7900, Pitch_bend_c, 0, 13002
2, 7904, Pitch_bend_c, 0, 11702
2, 7908, Pitch_bend_c, 0, 9752
2, 7910, Pitch_bend_c, 0, 9362
2, 7912, Note_on_c, 0, 53, 0
2, 7914, Pitch_bend_c, 0, 8582
2, 7916, Note_on_c, 0, 57, 122
2, 7918, Pitch_bend_c, 0, 8192
2, 7942, Pitch_bend_c, 0, 8582
2, 7944, Pitch_bend_c, 0, 9752
2, 7948, Pitch_bend_c, 0, 10662
2, 7950, Pitch_bend_c, 0, 12092
2, 7954, Pitch_bend_c, 0, 13912
2, 7958, Pitch_bend_c, 0, 15732
2, 7962, Pitch_bend_c, 0, 16122
2, 7964, Pitch_bend_c, 0, 16382
2, 8018, Pitch_bend_c, 0, 15992
2, 8020, Pitch_bend_c, 0, 15472
2, 8024, Pitch_bend_c, 0, 13652
2, 8028, Pitch_bend_c, 0, 11702
2, 8032, Note_on_c, 0, 57, 0
2, 8032, Pitch_bend_c, 0, 10012
2, 8036, Pitch_bend_c, 0, 9102
2, 8038, Pitch_bend_c, 0, 8192
2, 8038, Note_on_c, 0, 55, 125
2, 8044, Pitch_bend_c, 0, 7680
2, 8048, Pitch_bend_c, 0, 7296
2, 8050, Pitch_bend_c, 0, 7168
2, 8058, Pitch_bend_c, 0, 7552
2, 8062, Pitch_bend_c, 0, 7936
2, 8068, Pitch_bend_c, 0, 8192
2, 8072, Pitch_bend_c, 0, 8582
2, 8076, Pitch_bend_c, 0, 9752
2, 8078, Pitch_bend_c, 0, 11052
2, 8082, Pitch_bend_c, 0, 11962
2, 8084, Pitch_bend_c, 0, 14172
2, 8088, Pitch_bend_c, 0, 15212
2, 8090, Pitch_bend_c, 0, 15992
2, 8096, Pitch_bend_c, 0, 16382
2, 8228, Control_c, 0, 1, 6
2, 8236, Control_c, 0, 1, 12
2, 8246, Control_c, 0, 1, 18
2, 8260, Control_c, 0, 1, 26
2, 8274, Control_c, 0, 1, 32
2, 8292, Control_c, 0, 1, 38
2, 8308, Control_c, 0, 1, 44
2, 8322, Control_c, 0, 1, 50
2, 8356, Control_c, 0, 1, 56
2, 8370, Control_c, 0, 1, 62
2, 8390, Control_c, 0, 1, 68
2, 8394, Note_on_c, 0, 55, 0
2, 8400, Control_c, 0, 1, 1
2, 8400, Pitch_bend_c, 0, 8256
2, 8404, Note_on_c, 0, 55, 127
2, 8516, Note_on_c, 0, 55, 0
2, 8518, Note_on_c, 0, 50, 127
2, 8636, Note_on_c, 0, 57, 125
2, 8638, Note_on_c, 0, 50, 0
2, 8680, Pitch_bend_c, 0, 8712
2, 8682, Pitch_bend_c, 0, 9232
2, 8686, Pitch_bend_c, 0, 9752
2, 8690, Pitch_bend_c, 0, 11052
2, 8692, Pitch_bend_c, 0, 11962
2, 8696, Pitch_bend_c, 0, 13652
2, 8698, Pitch_bend_c, 0, 14952
2, 8706, Pitch_bend_c, 0, 15602
2, 8710, Pitch_bend_c, 0, 16382
2, 8758, Note_on_c, 0, 57, 0
2, 8770, Note_on_c, 0, 60, 126
2, 8838, Note_on_c, 0, 60, 0
2, 8888, Note_on_c, 0, 60, 127
2, 8968, Note_on_c, 0, 60, 0
2, 8986, Pitch_bend_c, 0, 15992
2, 8988, Pitch_bend_c, 0, 15472
2, 8992, Pitch_bend_c, 0, 14692
2, 8996, Pitch_bend_c, 0, 14042
2, 8998, Pitch_bend_c, 0, 13002
2, 9002, Pitch_bend_c, 0, 12352
2, 9006, Pitch_bend_c, 0, 10792
2, 9010, Pitch_bend_c, 0, 9882
2, 9012, Pitch_bend_c, 0, 9362
2, 9012, Note_on_c, 0, 62, 127
2, 9016, Pitch_bend_c, 0, 8972
2, 9020, Pitch_bend_c, 0, 8452
2, 9022, Pitch_bend_c, 0, 8192
2, 9054, Pitch_bend_c, 0, 8582
2, 9058, Pitch_bend_c, 0, 9102
2, 9060, Pitch_bend_c, 0, 10272
2, 9066, Pitch_bend_c, 0, 11442
2, 9070, Pitch_bend_c, 0, 13262
2, 9072, Pitch_bend_c, 0, 14172
2, 9076, Pitch_bend_c, 0, 15082
2, 9080, Pitch_bend_c, 0, 15862
2, 9084, Pitch_bend_c, 0, 16252
2, 9086, Pitch_bend_c, 0, 16382
2, 9162, Control_c, 0, 1, 6
2, 9168, Control_c, 0, 1, 12
2, 9172, Control_c, 0, 1, 18
2, 9180, Control_c, 0, 1, 24
2, 9186, Control_c, 0, 1, 30
2, 9192, Control_c, 0, 1, 36
2, 9202, Control_c, 0, 1, 42
2, 9210, Control_c, 0, 1, 48
2, 9218, Control_c, 0, 1, 54
2, 9226, Control_c, 0, 1, 60
2, 9236, Control_c, 0, 1, 66
2, 9268, Control_c, 0, 1, 72
2, 9356, Note_on_c, 0, 62, 0
2, 9360, Control_c, 0, 1, 0
2, 9366, Pitch_bend_c, 0, 8322
2, 9368, Pitch_bend_c, 0, 8712
2, 9372, Pitch_bend_c, 0, 9102
2, 9372, Note_on_c, 0, 50, 91
2, 9374, Pitch_bend_c, 0, 9752
2, 9378, Pitch_bend_c, 0, 10792
2, 9382, Pitch_bend_c, 0, 11702
2, 9386, Pitch_bend_c, 0, 13132
2, 9390, Pitch_bend_c, 0, 13782
2, 9394, Pitch_bend_c, 0, 15472
2, 9396, Pitch_bend_c, 0, 16122
2, 9400, Pitch_bend_c, 0, 16382
2, 9492, Note_on_c, 0, 45, 90
2, 9498, Note_on_c, 0, 50, 0
2, 9500, Pitch_bend_c, 0, 15992
2, 9502, Pitch_bend_c, 0, 15602
2, 9506, Pitch_bend_c, 0, 14692
2, 9510, Pitch_bend_c, 0, 14042
2, 9512, Pitch_bend_c, 0, 13782
2, 9512, Pitch_bend_c, 0, 16252
2, 9514, Pitch_bend_c, 0, 13132
2, 9514, Pitch_bend_c, 0, 15992
2, 9514, Pitch_bend_c, 0, 12742
2, 9516, Pitch_bend_c, 0, 15732
2, 9516, Pitch_bend_c, 0, 12352
2, 9518, Pitch_bend_c, 0, 14952
2, 9518, Pitch_bend_c, 0, 11832
2, 9520, Pitch_bend_c, 0, 14562
2, 9520, Pitch_bend_c, 0, 11442
2, 9520, Pitch_bend_c, 0, 14042
2, 9522, Pitch_bend_c, 0, 10012
2, 9524, Pitch_bend_c, 0, 13262
2, 9524, Pitch_bend_c, 0, 9752
2, 9524, Pitch_bend_c, 0, 13002
2, 9526, Pitch_bend_c, 0, 9492
2, 9526, Pitch_bend_c, 0, 11962
2, 9528, Pitch_bend_c, 0, 9232
2, 9528, Pitch_bend_c, 0, 11052
2, 9528, Pitch_bend_c, 0, 9102
2, 9530, Pitch_bend_c, 0, 10662
2, 9530, Pitch_bend_c, 0, 8712
2, 9532, Pitch_bend_c, 0, 10272
2, 9532, Pitch_bend_c, 0, 8582
2, 9534, Pitch_bend_c, 0, 9362
2, 9534, Pitch_bend_c, 0, 8452
2, 9536, Pitch_bend_c, 0, 9102
2, 9536, Pitch_bend_c, 0, 8322
2, 9536, Pitch_bend_c, 0, 8842
2, 9538, Pitch_bend_c, 0, 8192
2, 9544, Pitch_bend_c, 0, 7680
2, 9548, Pitch_bend_c, 0, 6272
2, 9552, Pitch_bend_c, 0, 5120
2, 9554, Pitch_bend_c, 0, 4096
2, 9558, Pitch_bend_c, 0, 3328
2, 9562, Pitch_bend_c, 0, 2048
2, 9566, Pitch_bend_c, 0, 896
2, 9570, Pitch_bend_c, 0, 128
2, 9570, Pitch_bend_c, 0, 0
2, 9598, Note_on_c, 0, 45, 0
2, 9598, Pitch_bend_c, 0, 8256
2, 9600, Note_on_c, 0, 40, 93
2, 9820, Note_on_c, 0, 59, 72
2, 9828, Note_on_c, 0, 64, 72
2, 9832, Note_on_c, 0, 67, 72
2, 9850, Note_on_c, 0, 40, 0
2, 9992, Note_on_c, 0, 59, 0
2, 9996, Note_on_c, 0, 64, 0
2, 9998, Note_on_c, 0, 67, 0
2, 10026, Note_on_c, 0, 59, 72
2, 10030, Note_on_c, 0, 64, 72
2, 10030, Note_on_c, 0, 67, 72
2, 10054, Note_on_c, 0, 64, 0
2, 10054, Note_on_c, 0, 59, 0
2, 10064, Note_on_c, 0, 67, 0
2, 10082, Note_on_c, 0, 40, 98
2, 10116, Note_on_c, 0, 40, 0
2, 10160, Note_on_c, 0, 59, 72
2, 10164, Note_on_c, 0, 64, 72
2, 10166, Note_on_c, 0, 67, 72
2, 10176, Note_on_c, 0, 59, 0
2, 10178, Note_on_c, 0, 64, 0
2, 10182, Note_on_c, 0, 40, 96
2, 10190, Note_on_c, 0, 67, 0
2, 10304, Note_on_c, 0, 59, 72
2, 10316, Note_on_c, 0, 64, 72
2, 10322, Note_on_c, 0, 67, 72
2, 10330, Note_on_c, 0, 40, 0
2, 10536, Note_on_c, 0, 59, 0
2, 10540, Note_on_c, 0, 64, 0
2, 10556, Note_on_c, 0, 67, 0
2, 10556, Note_on_c, 0, 43, 87
2, 10560, Note_on_c, 0, 50, 84
2, 10562, Note_on_c, 0, 55, 84
2, 10760, Note_on_c, 0, 43, 0
2, 10764, Note_on_c, 0, 50, 0
2, 10766, Note_on_c, 0, 55, 0
2, 10796, Note_on_c, 0, 43, 84
2, 10800, Note_on_c, 0, 50, 84
2, 10802, Note_on_c, 0, 55, 84
2, 10914, Note_on_c, 0, 43, 0
2, 11000, Note_on_c, 0, 50, 0
2, 11032, Note_on_c, 0, 55, 0
2, 11040, Note_on_c, 0, 45, 87
2, 11094, Note_on_c, 0, 52, 84
2, 11100, Note_on_c, 0, 57, 84
2, 11124, Note_on_c, 0, 45, 0
2, 11160, Note_on_c, 0, 45, 87
2, 11190, Note_on_c, 0, 52, 0
2, 11208, Note_on_c, 0, 57, 0
2, 11244, Note_on_c, 0, 45, 0
2, 11270, Note_on_c, 0, 45, 84
2, 11280, Note_on_c, 0, 52, 84
2, 11292, Note_on_c, 0, 57, 84
2, 11516, Note_on_c, 0, 52, 0
2, 11518, Note_on_c, 0, 45, 0
2, 11520, Note_on_c, 0, 57, 0
2, 11520, Note_on_c, 0, 40, 93
2, 11740, Note_on_c, 0, 59, 72
2, 11748, Note_on_c, 0, 64, 72
2, 11752, Note_on_c, 0, 67, 72
2, 11770, Note_on_c, 0, 40, 0
2, 11972, Note_on_c, 0, 59, 0
2, 11980, Note_on_c, 0, 64, 0
2, 11988, Note_on_c, 0, 67, 0
2, 12002, Note_on_c, 0, 40, 98
2, 12066, Note_on_c, 0, 40, 0
2, 12080, Note_on_c, 0, 59, 72
2, 12084, Note_on_c, 0, 64, 72
2, 12102, Note_on_c, 0, 40, 96
2, 12104, Note_on_c, 0, 59, 0
2, 12106, Note_on_c, 0, 64, 0
2, 12224, Note_on_c, 0, 59, 72
2, 12236, Note_on_c, 0, 64, 72
2, 12242, Note_on_c, 0, 67, 72
2, 12430, Note_on_c, 0, 40, 0
2, 12456, Note_on_c, 0, 59, 0
2, 12460, Note_on_c, 0, 64, 0
2, 12476, Note_on_c, 0, 67, 0
2, 12476, Note_on_c, 0, 43, 87
2, 12480, Note_on_c, 0, 50, 84
2, 12482, Note_on_c, 0, 55, 84
2, 12680, Note_on_c, 0, 43, 0
2, 12684, Note_on_c, 0, 50, 0
2, 12686, Note_on_c, 0, 55, 0
2, 12716, Note_on_c, 0, 43, 84
2, 12720, Note_on_c, 0, 50, 84
2, 12722, Note_on_c, 0, 55, 84
2, 12834, Note_on_c, 0, 43, 0
2, 12920, Note_on_c, 0, 50, 0
2, 12952, Note_on_c, 0, 55, 0
2, 12960, Note_on_c, 0, 45, 87
2, 13014, Note_on_c, 0, 52, 84
2, 13020, Note_on_c, 0, 57, 84
2, 13044, Note_on_c, 0, 45, 0
2, 13080, Note_on_c, 0, 45, 87
2, 13110, Note_on_c, 0, 52, 0
2, 13128, Note_on_c, 0, 57, 0
2, 13164, Note_on_c, 0, 45, 0
2, 13188, Note_on_c, 0, 45, 84
2, 13200, Note_on_c, 0, 57, 84
2, 13200, Note_on_c, 0, 52, 84
2, 13434, Note_on_c, 0, 45, 0
2, 13436, Note_on_c, 0, 52, 0
2, 13438, Note_on_c, 0, 57, 0
2, 13440, Note_on_c, 0, 40, 93
2, 13660, Note_on_c, 0, 59, 72
2, 13668, Note_on_c, 0, 64, 72
2, 13672, Note_on_c, 0, 67, 72
2, 13690, Note_on_c, 0, 40, 0
2, 13832, Note_on_c, 0, 59, 0
2, 13836, Note_on_c, 0, 64, 0
2, 13838, Note_on_c, 0, 67, 0
2, 13866, Note_on_c, 0, 59, 72
2, 13894, Note_on_c, 0, 59, 0
2, 13922, Note_on_c, 0, 40, 98
2, 14000, Note_on_c, 0, 59, 72
2, 14004, Note_on_c, 0, 40, 0
2, 14016, Note_on_c, 0, 59, 0
2, 14022, Note_on_c, 0, 40, 96
2, 14144, Note_on_c, 0, 59, 72
2, 14156, Note_on_c, 0, 64, 72
2, 14162, Note_on_c, 0, 67, 72
2, 14364, Note_on_c, 0, 40, 0
2, 14376, Note_on_c, 0, 59, 0
2, 14380, Note_on_c, 0, 64, 0
2, 14396, Note_on_c, 0, 67, 0
2, 14396, Note_on_c, 0, 43, 87
2, 14400, Note_on_c, 0, 50, 84
2, 14402, Note_on_c, 0, 55, 84
2, 14600, Note_on_c, 0, 43, 0
2, 14604, Note_on_c, 0, 50, 0
2, 14606, Note_on_c, 0, 55, 0
2, 14636, Note_on_c, 0, 43, 84
2, 14640, Note_on_c, 0, 50, 84
2, 14642, Note_on_c, 0, 55, 84
2, 14754, Note_on_c, 0, 43, 0
2, 14840, Note_on_c, 0, 50, 0
2, 14872, Note_on_c, 0, 55, 0
2, 14880, Note_on_c, 0, 45, 87
2, 14934, Note_on_c, 0, 52, 84
2, 14940, Note_on_c, 0, 57, 84
2, 14964, Note_on_c, 0, 45, 0
2, 15000, Note_on_c, 0, 45, 87
2, 15030, Note_on_c, 0, 52, 0
2, 15048, Note_on_c, 0, 57, 0
2, 15084, Note_on_c, 0, 45, 0
2, 15110, Note_on_c, 0, 45, 84
2, 15120, Note_on_c, 0, 52, 84
2, 15128, Note_on_c, 0, 57, 84
2, 15358, Note_on_c, 0, 45, 0
2, 15360, Note_on_c, 0, 57, 0
2, 15360, Note_on_c, 0, 52, 0
2, 15360, Note_on_c, 0, 40, 93
2, 15580, Note_on_c, 0, 59, 72
2, 15588, Note_on_c, 0, 64, 72
2, 15592, Note_on_c, 0, 67, 72
2, 15610, Note_on_c, 0, 40, 0
2, 15812, Note_on_c, 0, 59, 0
2, 15820, Note_on_c, 0, 64, 0
2, 15828, Note_on_c, 0, 67, 0
2, 15842, Note_on_c, 0, 40, 98
2, 15906, Note_on_c, 0, 40, 0
2, 15920, Note_on_c, 0, 59, 72
2, 15924, Note_on_c, 0, 64, 72
2, 15932, Note_on_c, 0, 59, 0
2, 15934, Note_on_c, 0, 64, 0
2, 15942, Note_on_c, 0, 40, 96
2, 16064, Note_on_c, 0, 59, 72
2, 16076, Note_on_c, 0, 64, 72
2, 16082, Note_on_c, 0, 67, 72
2, 16270, Note_on_c, 0, 40, 0
2, 16296, Note_on_c, 0, 59, 0
2, 16300, Note_on_c, 0, 64, 0
2, 16316, Note_on_c, 0, 67, 0
2, 16316, Note_on_c, 0, 43, 87
2, 16320, Note_on_c, 0, 50, 84
2, 16322, Note_on_c, 0, 55, 84
2, 16520, Note_on_c, 0, 43, 0
2, 16524, Note_on_c, 0, 50, 0
2, 16526, Note_on_c, 0, 55, 0
2, 16556, Note_on_c, 0, 43, 84
2, 16560, Note_on_c, 0, 50, 84
2, 16562, Note_on_c, 0, 55, 84
2, 16674, Note_on_c, 0, 43, 0
2, 16760, Note_on_c, 0, 50, 0
2, 16792, Note_on_c, 0, 55, 0
2, 16800, Note_on_c, 0, 45, 87
2, 16854, Note_on_c, 0, 52, 84
2, 16860, Note_on_c, 0, 57, 84
2, 16884, Note_on_c, 0, 45, 0
2, 16920, Note_on_c, 0, 45, 87
2, 16950, Note_on_c, 0, 52, 0
2, 16968, Note_on_c, 0, 57, 0
2, 17004, Note_on_c, 0, 45, 0
2, 17030, Note_on_c, 0, 45, 84
2, 17040, Note_on_c, 0, 52, 84
2, 17052, Note_on_c, 0, 57, 84
2, 17280, Note_on_c, 0, 57, 0
2, 17280, Note_on_c, 0, 52, 0
2, 17280, Note_on_c, 0, 45, 0
2, 17280, Note_on_c, 0, 40, 93
2, 17500, Note_on_c, 0, 59, 72
2, 17508, Note_on_c, 0, 64, 72
2, 17512, Note_on_c, 0, 67, 72
2, 17530, Note_on_c, 0, 40, 0
2, 17732, Note_on_c, 0, 59, 0
2, 17740, Note_on_c, 0, 64, 0
2, 17748, Note_on_c, 0, 67, 0
2, 17762, Note_on_c, 0, 40, 98
2, 17826, Note_on_c, 0, 40, 0
2, 17840, Note_on_c, 0, 59, 72
2, 17844, Note_on_c, 0, 64, 72
2, 17852, Note_on_c, 0, 59, 0
2, 17854, Note_on_c, 0, 64, 0
2, 17862, Note_on_c, 0, 40, 96
2, 17984, Note_on_c, 0, 59, 72
2, 17996, Note_on_c, 0, 64, 72
2, 18002, Note_on_c, 0, 67, 72
2, 18190, Note_on_c, 0, 40, 0
2, 18216, Note_on_c, 0, 59, 0
2, 18220, Note_on_c, 0, 64, 0
2, 18236, Note_on_c, 0, 67, 0
2, 18236, Note_on_c, 0, 43, 87
2, 18240, Note_on_c, 0, 50, 84
2, 18242, Note_on_c, 0, 55, 84
2, 18440, Note_on_c, 0, 43, 0
2, 18444, Note_on_c, 0, 50, 0
2, 18446, Note_on_c, 0, 55, 0
2, 18476, Note_on_c, 0, 43, 84
2, 18480, Note_on_c, 0, 50, 84
2, 18482, Note_on_c, 0, 55, 84
2, 18594, Note_on_c, 0, 43, 0
2, 18680, Note_on_c, 0, 50, 0
2, 18712, Note_on_c, 0, 55, 0
2, 18720, Note_on_c, 0, 45, 87
2, 18774, Note_on_c, 0, 52, 84
2, 18780, Note_on_c, 0, 57, 84
2, 18804, Note_on_c, 0, 45, 0
2, 18840, Note_on_c, 0, 45, 87
2, 18870, Note_on_c, 0, 52, 0
2, 18888, Note_on_c, 0, 57, 0
2, 18924, Note_on_c, 0, 45, 0
2, 18950, Note_on_c, 0, 45, 84
2, 18960, Note_on_c, 0, 52, 84
2, 18968, Note_on_c, 0, 57, 84
2, 19198, Note_on_c, 0, 52, 0
2, 19198, Note_on_c, 0, 45, 0
2, 19200, Note_on_c, 0, 57, 0
2, 19200, Note_on_c, 0, 40, 84
2, 19346, Note_on_c, 0, 40, 0
2, 20640, Note_on_c, 0, 54, 127
2, 20750, Note_on_c, 0, 54, 0
2, 20760, Note_on_c, 0, 52, 127
2, 20880, Note_on_c, 0, 50, 127
2, 20884, Note_on_c, 0, 52, 0
2, 21116, Note_on_c, 0, 50, 0
2, 21120, Note_on_c, 0, 57, 127
2, 21148, Pitch_bend_c, 0, 8712
2, 21152, Pitch_bend_c, 0, 9622
2, 21156, Pitch_bend_c, 0, 10402
2, 21160, Pitch_bend_c, 0, 11832
2, 21162, Pitch_bend_c, 0, 12872
2, 21166, Pitch_bend_c, 0, 13782
2, 21170, Pitch_bend_c, 0, 15212
2, 21172, Pitch_bend_c, 0, 15732
2, 21176, Pitch_bend_c, 0, 16252
2, 21180, Pitch_bend_c, 0, 16382
2, 21240, Note_on_c, 0, 60, 127
2, 21246, Note_on_c, 0, 57, 0
2, 21354, Control_c, 0, 1, 8
2, 21360, Control_c, 0, 1, 14
2, 21360, Note_on_c, 0, 65, 127
2, 21366, Control_c, 0, 1, 22
2, 21368, Note_on_c, 0, 60, 0
2, 21370, Control_c, 0, 1, 28
2, 21374, Control_c, 0, 1, 34
2, 21380, Control_c, 0, 1, 40
2, 21384, Control_c, 0, 1, 46
2, 21388, Control_c, 0, 1, 52
2, 21396, Control_c, 0, 1, 58
2, 21404, Control_c, 0, 1, 64
2, 21408, Control_c, 0, 1, 70
2, 21416, Control_c, 0, 1, 76
2, 21424, Control_c, 0, 1, 82
2, 21434, Control_c, 0, 1, 88
2, 21474, Control_c, 0, 1, 92
2, 21510, Control_c, 0, 1, 86
2, 21532, Note_on_c, 0, 65, 0
2, 21550, Control_c, 0, 1, 80
2, 21558, Pitch_bend_c, 0, 15732
2, 21560, Pitch_bend_c, 0, 15342
2, 21564, Pitch_bend_c, 0, 14822
2, 21568, Control_c, 0, 1, 74
2, 21568, Pitch_bend_c, 0, 13782
2, 21570, Pitch_bend_c, 0, 13002
2, 21574, Pitch_bend_c, 0, 11702
2, 21576, Control_c, 0, 1, 68
2, 21578, Pitch_bend_c, 0, 10662
2, 21582, Pitch_bend_c, 0, 9622
2, 21582, Control_c, 0, 1, 60
2, 21584, Pitch_bend_c, 0, 8972
2, 21586, Control_c, 0, 1, 54
2, 21588, Pitch_bend_c, 0, 8582
2, 21590, Control_c, 0, 1, 46
2, 21592, Pitch_bend_c, 0, 8192
2, 21594, Control_c, 0, 1, 38
2, 21596, Control_c, 0, 1, 30
2, 21600, Note_on_c, 0, 57, 127
2, 21600, Control_c, 0, 1, 20
2, 21604, Control_c, 0, 1, 6
2, 21610, Control_c, 0, 1, 0
2, 21616, Pitch_bend_c, 0, 8712
2, 21620, Pitch_bend_c, 0, 9362
2, 21622, Pitch_bend_c, 0, 10272
2, 21626, Pitch_bend_c, 0, 11702
2, 21630, Pitch_bend_c, 0, 13132
2, 21634, Pitch_bend_c, 0, 15342
2, 21636, Pitch_bend_c, 0, 15862
2, 21640, Pitch_bend_c, 0, 16252
2, 21644, Pitch_bend_c, 0, 16382
2, 21720, Note_on_c, 0, 60, 127
2, 21724, Note_on_c, 0, 57, 0
2, 21822, Control_c, 0, 1, 6
2, 21826, Control_c, 0, 1, 12
2, 21834, Control_c, 0, 1, 20
2, 21836, Control_c, 0, 1, 26
2, 21838, Note_on_c, 0, 60, 0
2, 21840, Note_on_c, 0, 65, 125
2, 21842, Control_c, 0, 1, 32
2, 21848, Control_c, 0, 1, 40
2, 21852, Control_c, 0, 1, 46
2, 21856, Control_c, 0, 1, 52
2, 21862, Control_c, 0, 1, 60
2, 21870, Control_c, 0, 1, 66
2, 21874, Control_c, 0, 1, 72
2, 21882, Control_c, 0, 1, 78
2, 21888, Control_c, 0, 1, 84
2, 21910, Control_c, 0, 1, 90
2, 21954, Control_c, 0, 1, 88
2, 21984, Control_c, 0, 1, 90
2, 22022, Control_c, 0, 1, 84
2, 22028, Control_c, 0, 1, 78
2, 22034, Control_c, 0, 1, 70
2, 22038, Control_c, 0, 1, 60
2, 22042, Note_on_c, 0, 65, 0
2, 22042, Control_c, 0, 1, 44
2, 22046, Control_c, 0, 1, 32
2, 22048, Control_c, 0, 1, 18
2, 22052, Control_c, 0, 1, 6
2, 22060, Control_c, 0, 1, 0
2, 22064, Pitch_bend_c, 0, 15732
2, 22068, Pitch_bend_c, 0, 14822
2, 22070, Pitch_bend_c, 0, 13262
2, 22074, Pitch_bend_c, 0, 10272
2, 22076, Pitch_bend_c, 0, 8712
2, 22078, Pitch_bend_c, 0, 8256
2, 22080, Note_on_c, 0, 57, 127
2, 22092, Pitch_bend_c, 0, 8576
2, 22096, Pitch_bend_c, 0, 8896
2, 22100, Pitch_bend_c, 0, 9280
2, 22104, Pitch_bend_c, 0, 9600
2, 22106, Pitch_bend_c, 0, 9984
2, 22110, Pitch_bend_c, 0, 10304
2, 22114, Pitch_bend_c, 0, 10752
2, 22116, Pitch_bend_c, 0, 11072
2, 22120, Pitch_bend_c, 0, 11392
2, 22124, Pitch_bend_c, 0, 11712
2, 22126, Pitch_bend_c, 0, 12096
2, 22130, Pitch_bend_c, 0, 12608
2, 22132, Pitch_bend_c, 0, 13120
2, 22136, Pitch_bend_c, 0, 13696
2, 22138, Pitch_bend_c, 0, 14528
2, 22140, Pitch_bend_c, 0, 15936
2, 22194, Note_on_c, 0, 57, 0
2, 22200, Note_on_c, 0, 60, 127
2, 22318, Note_on_c, 0, 60, 0
2, 22320, Note_on_c, 0, 65, 127
2, 22432, Pitch_bend_c, 0, 8256
2, 22438, Note_on_c, 0, 65, 0
2, 22440, Note_on_c, 0, 57, 127
2, 22504, Control_c, 0, 1, 2
2, 22506, Control_c, 0, 1, 8
2, 22510, Control_c, 0, 1, 14
2, 22512, Control_c, 0, 1, 20
2, 22516, Control_c, 0, 1, 28
2, 22520, Control_c, 0, 1, 34
2, 22524, Control_c, 0, 1, 42
2, 22534, Control_c, 0, 1, 48
2, 22570, Control_c, 0, 1, 54
2, 22600, Control_c, 0, 1, 60
2, 22610, Control_c, 0, 1, 62
2, 22818, Control_c, 0, 1, 56
2, 22826, Control_c, 0, 1, 50
2, 22830, Control_c, 0, 1, 44
2, 22832, Control_c, 0, 1, 38
2, 22836, Control_c, 0, 1, 16
2, 22838, Note_on_c, 0, 57, 0
2, 22840, Control_c, 0, 1, 8
2, 22844, Control_c, 0, 1, 0
2, 23040, Note_on_c, 0, 55, 123
2, 23150, Note_on_c, 0, 55, 0
2, 23160, Note_on_c, 0, 50, 127
2, 23256, Note_on_c, 0, 38, 90
2, 23292, Pitch_bend_c, 0, 8712
2, 23296, Pitch_bend_c, 0, 10012
2, 23300, Pitch_bend_c, 0, 10922
2, 23302, Pitch_bend_c, 0, 12352
2, 23306, Pitch_bend_c, 0, 13782
2, 23310, Pitch_bend_c, 0, 15602
2, 23312, Pitch_bend_c, 0, 15992
2, 23318, Pitch_bend_c, 0, 16382
2, 23348, Note_on_c, 0, 50, 0
2, 23392, Note_on_c, 0, 38, 0
2, 23394, Pitch_bend_c, 0, 15992
2, 23396, Pitch_bend_c, 0, 15472
2, 23400, Note_on_c, 0, 50, 127
2, 23400, Pitch_bend_c, 0, 13912
2, 23404, Pitch_bend_c, 0, 13002
2, 23406, Pitch_bend_c, 0, 11312
2, 23410, Pitch_bend_c, 0, 9882
2, 23414, Pitch_bend_c, 0, 9232
2, 23416, Pitch_bend_c, 0, 8712
2, 23422, Pitch_bend_c, 0, 8192
2, 23476, Pitch_bend_c, 0, 8582
2, 23478, Pitch_bend_c, 0, 10662
2, 23482, Pitch_bend_c, 0, 12352
2, 23484, Pitch_bend_c, 0, 14692
2, 23488, Pitch_bend_c, 0, 15472
2, 23490, Pitch_bend_c, 0, 16122
2, 23496, Pitch_bend_c, 0, 16382
2, 23682, Control_c, 0, 1, 6
2, 23690, Control_c, 0, 1, 14
2, 23694, Control_c, 0, 1, 20
2, 23698, Control_c, 0, 1, 26
2, 23710, Control_c, 0, 1, 32
2, 23722, Control_c, 0, 1, 38
2, 23728, Control_c, 0, 1, 44
2, 23740, Control_c, 0, 1, 50
2, 23754, Control_c, 0, 1, 52
2, 23870, Control_c, 0, 1, 46
2, 23874, Control_c, 0, 1, 40
2, 23878, Control_c, 0, 1, 34
2, 23882, Control_c, 0, 1, 24
2, 23888, Note_on_c, 0, 50, 0
2, 23888, Control_c, 0, 1, 12
2, 23892, Control_c, 0, 1, 2
2, 23892, Control_c, 0, 1, 0
2, 24000, Note_on_c, 0, 57, 127
2, 24012, Pitch_bend_c, 0, 8576
2, 24016, Pitch_bend_c, 0, 8896
2, 24020, Pitch_bend_c, 0, 9280
2, 24024, Pitch_bend_c, 0, 9600
2, 24026, Pitch_bend_c, 0, 9984
2, 24030, Pitch_bend_c, 0, 10304
2, 24034, Pitch_bend_c, 0, 10752
2, 24036, Pitch_bend_c, 0, 11072
2, 24040, Pitch_bend_c, 0, 11392
2, 24044, Pitch_bend_c, 0, 11712
2, 24046, Pitch_bend_c, 0, 12096
2, 24050, Pitch_bend_c, 0, 12608
2, 24052, Pitch_bend_c, 0, 13120
2, 24056, Pitch_bend_c, 0, 13696
2, 24058, Pitch_bend_c, 0, 14528
2, 24060, Pitch_bend_c, 0, 15936
2, 24118, Note_on_c, 0, 57, 0
2, 24120, Note_on_c, 0, 60, 127
2, 24240, Note_on_c, 0, 60, 0
2, 24240, Note_on_c, 0, 65, 127
2, 24350, Pitch_bend_c, 0, 15616
2, 24352, Pitch_bend_c, 0, 15104
2, 24354, Note_on_c, 0, 65, 0
2, 24356, Pitch_bend_c, 0, 14656
2, 24358, Pitch_bend_c, 0, 14144
2, 24360, Note_on_c, 0, 57, 127
2, 24362, Pitch_bend_c, 0, 13632
2, 24364, Pitch_bend_c, 0, 13184
2, 24368, Pitch_bend_c, 0, 12672
2, 24370, Pitch_bend_c, 0, 12288
2, 24374, Pitch_bend_c, 0, 11840
2, 24376, Pitch_bend_c, 0, 11456
2, 24380, Pitch_bend_c, 0, 11136
2, 24382, Pitch_bend_c, 0, 10624
2, 24386, Pitch_bend_c, 0, 10112
2, 24388, Pitch_bend_c, 0, 9792
2, 24392, Pitch_bend_c, 0, 9408
2, 24394, Pitch_bend_c, 0, 9024
2, 24398, Pitch_bend_c, 0, 8512
2, 24402, Pitch_bend_c, 0, 8256
2, 24426, Control_c, 0, 1, 8
2, 24430, Control_c, 0, 1, 14
2, 24432, Control_c, 0, 1, 20
2, 24436, Control_c, 0, 1, 28
2, 24440, Control_c, 0, 1, 34
2, 24444, Control_c, 0, 1, 42
2, 24454, Control_c, 0, 1, 48
2, 24490, Control_c, 0, 1, 54
2, 24520, Control_c, 0, 1, 60
2, 24530, Control_c, 0, 1, 62
2, 24738, Control_c, 0, 1, 56
2, 24746, Control_c, 0, 1, 50
2, 24750, Control_c, 0, 1, 44
2, 24752, Control_c, 0, 1, 38
2, 24756, Control_c, 0, 1, 16
2, 24758, Note_on_c, 0, 57, 0
2, 24760, Control_c, 0, 1, 8
2, 24764, Control_c, 0, 1, 0
2, 24960, Note_on_c, 0, 55, 123
2, 25070, Note_on_c, 0, 55, 0
2, 25080, Note_on_c, 0, 50, 127
2, 25182, Note_on_c, 0, 38, 90
2, 25212, Pitch_bend_c, 0, 8712
2, 25216, Pitch_bend_c, 0, 10012
2, 25220, Pitch_bend_c, 0, 10922
2, 25222, Pitch_bend_c, 0, 12352
2, 25226, Pitch_bend_c, 0, 13782
2, 25230, Pitch_bend_c, 0, 15602
2, 25232, Pitch_bend_c, 0, 15992
2, 25238, Pitch_bend_c, 0, 16382
2, 25288, Note_on_c, 0, 50, 0
2, 25314, Pitch_bend_c, 0, 15992
2, 25316, Pitch_bend_c, 0, 15472
2, 25320, Note_on_c, 0, 50, 127
2, 25320, Pitch_bend_c, 0, 13912
2, 25324, Pitch_bend_c, 0, 13002
2, 25326, Note_on_c, 0, 38, 0
2, 25326, Pitch_bend_c, 0, 11312
2, 25330, Pitch_bend_c, 0, 9882
2, 25334, Pitch_bend_c, 0, 9232
2, 25336, Pitch_bend_c, 0, 8712
2, 25342, Pitch_bend_c, 0, 8192
2, 25396, Pitch_bend_c, 0, 8582
2, 25398, Pitch_bend_c, 0, 10662
2, 25402, Pitch_bend_c, 0, 12352
2, 25404, Pitch_bend_c, 0, 14692
2, 25408, Pitch_bend_c, 0, 15472
2, 25410, Pitch_bend_c, 0, 16122
2, 25416, Pitch_bend_c, 0, 16382
2, 25602, Control_c, 0, 1, 6
2, 25610, Control_c, 0, 1, 14
2, 25614, Control_c, 0, 1, 20
2, 25618, Control_c, 0, 1, 26
2, 25630, Control_c, 0, 1, 32
2, 25642, Control_c, 0, 1, 38
2, 25648, Control_c, 0, 1, 44
2, 25660, Control_c, 0, 1, 50
2, 25674, Control_c, 0, 1, 52
2, 25680, Note_on_c, 0, 50, 0
2, 25680, Pitch_bend_c, 0, 8256
2, 25788, Note_on_c, 0, 50, 122
2, 25790, Control_c, 0, 1, 46
2, 25794, Control_c, 0, 1, 40
2, 25798, Control_c, 0, 1, 34
2, 25802, Control_c, 0, 1, 24
2, 25808, Control_c, 0, 1, 12
2, 25812, Pitch_bend_c, 0, 8582
2, 25812, Control_c, 0, 1, 2
2, 25812, Control_c, 0, 1, 0
2, 25814, Pitch_bend_c, 0, 9102
2, 25818, Pitch_bend_c, 0, 10272
2, 25822, Pitch_bend_c, 0, 11052
2, 25824, Pitch_bend_c, 0, 12612
2, 25830, Pitch_bend_c, 0, 14562
2, 25834, Pitch_bend_c, 0, 15862
2, 25838, Pitch_bend_c, 0, 16252
2, 25840, Pitch_bend_c, 0, 16382
2, 25894, Note_on_c, 0, 50, 0
2, 25900, Pitch_bend_c, 0, 15862
2, 25904, Pitch_bend_c, 0, 8256
2, 25904, Pitch_bend_c, 0, 13392
2, 25908, Pitch_bend_c, 0, 10532
2, 25910, Pitch_bend_c, 0, 8192
2, 25912, Pitch_bend_c, 0, 8064
2, 25914, Pitch_bend_c, 0, 8192
2, 25918, Pitch_bend_c, 0, 8582
2, 25920, Note_on_c, 0, 55, 113
2, 25920, Pitch_bend_c, 0, 8972
2, 25926, Pitch_bend_c, 0, 8452
2, 25926, Pitch_bend_c, 0, 8192
2, 25930, Pitch_bend_c, 0, 7936
2, 25936, Pitch_bend_c, 0, 8192
2, 26016, Note_on_c, 0, 55, 0
2, 26040, Note_on_c, 0, 57, 113
2, 26114, Note_on_c, 0, 57, 0
2, 26160, Note_on_c, 0, 59, 113
2, 26264, Note_on_c, 0, 59, 0
2, 26280, Note_on_c, 0, 53, 113
2, 26288, Pitch_bend_c, 0, 8712
2, 26292, Pitch_bend_c, 0, 9102
2, 26294, Pitch_bend_c, 0, 9622
2, 26298, Pitch_bend_c, 0, 10402
2, 26304, Pitch_bend_c, 0, 11312
2, 26308, Pitch_bend_c, 0, 12742
2, 26310, Pitch_bend_c, 0, 13522
2, 26314, Pitch_bend_c, 0, 14692
2, 26318, Pitch_bend_c, 0, 15472
2, 26320, Pitch_bend_c, 0, 15862
2, 26324, Pitch_bend_c, 0, 16252
2, 26326, Pitch_bend_c, 0, 16382
2, 26526, Pitch_bend_c, 0, 15992
2, 26528, Pitch_bend_c, 0, 15472
2, 26532, Pitch_bend_c, 0, 15082
2, 26536, Pitch_bend_c, 0, 14432
2, 26540, Pitch_bend_c, 0, 14042
2, 26544, Pitch_bend_c, 0, 13782
2, 26552, Pitch_bend_c, 0, 14172
2, 26558, Pitch_bend_c, 0, 15212
2, 26560, Pitch_bend_c, 0, 15732
2, 26564, Pitch_bend_c, 0, 16252
2, 26568, Pitch_bend_c, 0, 16382
2, 26586, Pitch_bend_c, 0, 15992
2, 26588, Pitch_bend_c, 0, 15602
2, 26592, Pitch_bend_c, 0, 14692
2, 26594, Pitch_bend_c, 0, 13912
2, 26598, Pitch_bend_c, 0, 13132
2, 26602, Pitch_bend_c, 0, 12742
2, 26604, Pitch_bend_c, 0, 12352
2, 26612, Pitch_bend_c, 0, 12872
2, 26616, Pitch_bend_c, 0, 13652
2, 26618, Pitch_bend_c, 0, 15212
2, 26622, Pitch_bend_c, 0, 15732
2, 26626, Pitch_bend_c, 0, 16252
2, 26630, Pitch_bend_c, 0, 16382
2, 26656, Pitch_bend_c, 0, 15732
2, 26660, Pitch_bend_c, 0, 15342
2, 26664, Pitch_bend_c, 0, 15082
2, 26672, Pitch_bend_c, 0, 15602
2, 26674, Pitch_bend_c, 0, 16122
2, 26680, Pitch_bend_c, 0, 16382
2, 26722, Pitch_bend_c, 0, 16252
2, 26726, Pitch_bend_c, 0, 16382
2, 26776, Pitch_bend_c, 0, 15992
2, 26780, Note_on_c, 0, 53, 0
2, 26786, Pitch_bend_c, 0, 16382
2, 26800, Pitch_bend_c, 0, 15992
2, 26804, Pitch_bend_c, 0, 13522
2, 26806, Pitch_bend_c, 0, 10532
2, 26810, Pitch_bend_c, 0, 7808
2, 26812, Pitch_bend_c, 0, 7552
2, 26816, Pitch_bend_c, 0, 7936
2, 26816, Pitch_bend_c, 0, 8192
2, 26820, Pitch_bend_c, 0, 8972
2, 26824, Pitch_bend_c, 0, 8582
2, 26826, Pitch_bend_c, 0, 8192
2, 26828, Pitch_bend_c, 0, 7808
2, 26836, Pitch_bend_c, 0, 8192
2, 26860, Note_on_c, 0, 53, 108
2, 26886, Pitch_bend_c, 0, 8712
2, 26890, Pitch_bend_c, 0, 9492
2, 26892, Pitch_bend_c, 0, 10402
2, 26896, Pitch_bend_c, 0, 11832
2, 26900, Pitch_bend_c, 0, 13002
2, 26902, Pitch_bend_c, 0, 14172
2, 26906, Pitch_bend_c, 0, 15472
2, 26908, Pitch_bend_c, 0, 15992
2, 26916, Pitch_bend_c, 0, 16382
2, 26994, Note_on_c, 0, 53, 0
2, 27000, Note_on_c, 0, 45, 122
2, 27002, Pitch_bend_c, 0, 14822
2, 27006, Pitch_bend_c, 0, 12742
2, 27010, Pitch_bend_c, 0, 8192
2, 27012, Pitch_bend_c, 0, 7296
2, 27016, Pitch_bend_c, 0, 7936
2, 27016, Pitch_bend_c, 0, 8192
2, 27020, Pitch_bend_c, 0, 8842
2, 27022, Pitch_bend_c, 0, 8972
2, 27026, Pitch_bend_c, 0, 8322
2, 27026, Pitch_bend_c, 0, 8192
2, 27030, Pitch_bend_c, 0, 7680
2, 27034, Pitch_bend_c, 0, 8064
2, 27036, Pitch_bend_c, 0, 8192
2, 27046, Pitch_bend_c, 0, 8064
2, 27048, Pitch_bend_c, 0, 8192
2, 27114, Note_on_c, 0, 45, 0
2, 27120, Note_on_c, 0, 40, 113
2, 27234, Note_on_c, 0, 40, 0
2, 27240, Note_on_c, 0, 43, 104
2, 27366, Pitch_bend_c, 0, 8582
2, 27374, Pitch_bend_c, 0, 8972
2, 27388, Pitch_bend_c, 0, 8582
2, 27394, Pitch_bend_c, 0, 8192
2, 27478, Pitch_bend_c, 0, 7808
2, 27482, Pitch_bend_c, 0, 7552
2, 27494, Pitch_bend_c, 0, 7936
2, 27498, Pitch_bend_c, 0, 8192
2, 27508, Pitch_bend_c, 0, 8582
2, 27512, Pitch_bend_c, 0, 9102
2, 27516, Pitch_bend_c, 0, 9622
2, 27518, Pitch_bend_c, 0, 10532
2, 27522, Pitch_bend_c, 0, 11052
2, 27524, Pitch_bend_c, 0, 11442
2, 27526, Pitch_bend_c, 0, 11572
2, 27536, Pitch_bend_c, 0, 11182
2, 27542, Pitch_bend_c, 0, 10662
2, 27544, Pitch_bend_c, 0, 10012
2, 27548, Pitch_bend_c, 0, 9622
2, 27550, Pitch_bend_c, 0, 9232
2, 27554, Pitch_bend_c, 0, 8842
2, 27558, Pitch_bend_c, 0, 8452
2, 27560, Pitch_bend_c, 0, 8322
2, 27572, Pitch_bend_c, 0, 8712
2, 27576, Pitch_bend_c, 0, 9492
2, 27578, Pitch_bend_c, 0, 9882
2, 27582, Pitch_bend_c, 0, 10792
2, 27586, Pitch_bend_c, 0, 11312
2, 27588, Pitch_bend_c, 0, 11832
2, 27592, Pitch_bend_c, 0, 12352
2, 27598, Pitch_bend_c, 0, 12612
2, 27604, Pitch_bend_c, 0, 12092
2, 27608, Pitch_bend_c, 0, 11702
2, 27612, Pitch_bend_c, 0, 11182
2, 27616, Pitch_bend_c, 0, 10792
2, 27618, Pitch_bend_c, 0, 9882
2, 27622, Pitch_bend_c, 0, 9492
2, 27624, Pitch_bend_c, 0, 9102
2, 27628, Pitch_bend_c, 0, 8712
2, 27634, Pitch_bend_c, 0, 8452
2, 27646, Pitch_bend_c, 0, 8842
2, 27650, Pitch_bend_c, 0, 10272
2, 27652, Pitch_bend_c, 0, 10662
2, 27656, Pitch_bend_c, 0, 11442
2, 27660, Pitch_bend_c, 0, 11832
2, 27662, Pitch_bend_c, 0, 12352
2, 27668, Pitch_bend_c, 0, 12612
2, 27678, Pitch_bend_c, 0, 12092
2, 27686, Pitch_bend_c, 0, 11572
2, 27688, Pitch_bend_c, 0, 11182
2, 27692, Pitch_bend_c, 0, 10792
2, 27696, Pitch_bend_c, 0, 9882
2, 27698, Pitch_bend_c, 0, 9492
2, 27700, Note_on_c, 0, 43, 0
2, 27702, Pitch_bend_c, 0, 8972
2, 27704, Pitch_bend_c, 0, 8582
2, 27710, Pitch_bend_c, 0, 8192
2, 27726, Note_on_c, 0, 45, 127
2, 27826, Note_on_c, 0, 45, 0
2, 27838, Note_on_c, 0, 45, 127
2, 27870, Pitch_bend_c, 0, 8842
2, 27872, Pitch_bend_c, 0, 9362
2, 27876, Pitch_bend_c, 0, 10922
2, 27878, Pitch_bend_c, 0, 11702
2, 27882, Pitch_bend_c, 0, 13522
2, 27886, Pitch_bend_c, 0, 14562
2, 27890, Pitch_bend_c, 0, 15862
2, 27892, Pitch_bend_c, 0, 16252
2, 27896, Pitch_bend_c, 0, 16382
2, 27934, Note_on_c, 0, 45, 0
2, 27964, Note_on_c, 0, 53, 122
2, 28050, Pitch_bend_c, 0, 15992
2, 28054, Pitch_bend_c, 0, 15212
2, 28058, Pitch_bend_c, 0, 14692
2, 28060, Pitch_bend_c, 0, 13002
2, 28064, Pitch_bend_c, 0, 11702
2, 28068, Pitch_bend_c, 0, 9752
2, 28070, Pitch_bend_c, 0, 9362
2, 28072, Note_on_c, 0, 53, 0
2, 28074, Pitch_bend_c, 0, 8582
2, 28076, Note_on_c, 0, 57, 122
2, 28078, Pitch_bend_c, 0, 8192
2, 28102, Pitch_bend_c, 0, 8582
2, 28104, Pitch_bend_c, 0, 9752
2, 28108, Pitch_bend_c, 0, 10662
2, 28110, Pitch_bend_c, 0, 12092
2, 28114, Pitch_bend_c, 0, 13912
2, 28118, Pitch_bend_c, 0, 15732
2, 28122, Pitch_bend_c, 0, 16122
2, 28124, Pitch_bend_c, 0, 16382
2, 28178, Pitch_bend_c, 0, 15992
2, 28180, Pitch_bend_c, 0, 15472
2, 28184, Pitch_bend_c, 0, 13652
2, 28188, Pitch_bend_c, 0, 11702
2, 28192, Note_on_c, 0, 57, 0
2, 28192, Pitch_bend_c, 0, 10012
2, 28196, Pitch_bend_c, 0, 9102
2, 28198, Pitch_bend_c, 0, 8192
2, 28198, Note_on_c, 0, 55, 125
2, 28204, Pitch_bend_c, 0, 7680
2, 28208, Pitch_bend_c, 0, 7296
2, 28210, Pitch_bend_c, 0, 7168
2, 28218, Pitch_bend_c, 0, 7552
2, 28222, Pitch_bend_c, 0, 7936
2, 28228, Pitch_bend_c, 0, 8192
2, 28232, Pitch_bend_c, 0, 8582
2, 28236, Pitch_bend_c, 0, 9752
2, 28238, Pitch_bend_c, 0, 11052
2, 28242, Pitch_bend_c, 0, 11962
2, 28244, Pitch_bend_c, 0, 14172
2, 28248, Pitch_bend_c, 0, 15212
2, 28250, Pitch_bend_c, 0, 15992
2, 28256, Pitch_bend_c, 0, 16382
2, 28388, Control_c, 0, 1, 6
2, 28396, Control_c, 0, 1, 12
2, 28406, Control_c, 0, 1, 18
2, 28420, Control_c, 0, 1, 26
2, 28434, Control_c, 0, 1, 32
2, 28452, Control_c, 0, 1, 38
2, 28468, Control_c, 0, 1, 44
2, 28482, Control_c, 0, 1, 50
2, 28516, Control_c, 0, 1, 56
2, 28530, Control_c, 0, 1, 62
2, 28550, Control_c, 0, 1, 68
2, 28554, Note_on_c, 0, 55, 0
2, 28560, Control_c, 0, 1, 1
2, 28560, Pitch_bend_c, 0, 8256
2, 28564, Note_on_c, 0, 55, 127
2, 28676, Note_on_c, 0, 55, 0
2, 28678, Note_on_c, 0, 50, 127
2, 28796, Note_on_c, 0, 57, 125
2, 28798, Note_on_c, 0, 50, 0
2, 28840, Pitch_bend_c, 0, 8712
2, 28842, Pitch_bend_c, 0, 9232
2, 28846, Pitch_bend_c, 0, 9752
2, 28850, Pitch_bend_c, 0, 11052
2, 28852, Pitch_bend_c, 0, 11962
2, 28856, Pitch_bend_c, 0, 13652
2, 28858, Pitch_bend_c, 0, 14952
2, 28866, Pitch_bend_c, 0, 15602
2, 28870, Pitch_bend_c, 0, 16382
2, 28918, Note_on_c, 0, 57, 0
2, 28930, Note_on_c, 0, 60, 126
2, 28998, Note_on_c, 0, 60, 0
2, 29048, Note_on_c, 0, 60, 127
2, 29128, Note_on_c, 0, 60, 0
2, 29146, Pitch_bend_c, 0, 15992
2, 29148, Pitch_bend_c, 0, 15472
2, 29152, Pitch_bend_c, 0, 14692
2, 29156, Pitch_bend_c, 0, 14042
2, 29158, Pitch_bend_c, 0, 13002
2, 29162, Pitch_bend_c, 0, 12352
2, 29166, Pitch_bend_c, 0, 10792
2, 29170, Pitch_bend_c, 0, 9882
2, 29172, Pitch_bend_c, 0, 9362
2, 29172, Note_on_c, 0, 62, 127
2, 29176, Pitch_bend_c, 0, 8972
2, 29180, Pitch_bend_c, 0, 8452
2, 29182, Pitch_bend_c, 0, 8192
2, 29214, Pitch_bend_c, 0, 8582
2, 29218, Pitch_bend_c, 0, 9102
2, 29220, Pitch_bend_c, 0, 10272
2, 29226, Pitch_bend_c, 0, 11442
2, 29230, Pitch_bend_c, 0, 13262
2, 29232, Pitch_bend_c, 0, 14172
2, 29236, Pitch_bend_c, 0, 15082
2, 29240, Pitch_bend_c, 0, 15862
2, 29244, Pitch_bend_c, 0, 16252
2, 29246, Pitch_bend_c, 0, 16382
2, 29322, Control_c, 0, 1, 6
2, 29328, Control_c, 0, 1, 12
2, 29332, Control_c, 0, 1, 18
2, 29340, Control_c, 0, 1, 24
2, 29346, Control_c, 0, 1, 30
2, 29352, Control_c, 0, 1, 36
2, 29362, Control_c, 0, 1, 42
2, 29370, Control_c, 0, 1, 48
2, 29378, Control_c, 0, 1, 54
2, 29386, Control_c, 0, 1, 60
2, 29396, Control_c, 0, 1, 66
2, 29428, Control_c, 0, 1, 72
2, 29516, Note_on_c, 0, 62, 0
2, 29520, Control_c, 0, 1, 0
2, 29526, Pitch_bend_c, 0, 8322
2, 29528, Pitch_bend_c, 0, 8712
2, 29532, Pitch_bend_c, 0, 9102
2, 29532, Note_on_c, 0, 50, 91
2, 29534, Pitch_bend_c, 0, 9752
2, 29538, Pitch_bend_c, 0, 10792
2, 29542, Pitch_bend_c, 0, 11702
2, 29546, Pitch_bend_c, 0, 13132
2, 29550, Pitch_bend_c, 0, 13782
2, 29554, Pitch_bend_c, 0, 15472
2, 29556, Pitch_bend_c, 0, 16122
2, 29560, Pitch_bend_c, 0, 16382
2, 29652, Note_on_c, 0, 45, 90
2, 29658, Note_on_c, 0, 50, 0
2, 29660, Pitch_bend_c, 0, 15992
2, 29662, Pitch_bend_c, 0, 15602
2, 29666, Pitch_bend_c, 0, 14692
2, 29670, Pitch_bend_c, 0, 14042
2, 29672, Pitch_bend_c, 0, 13782
2, 29672, Pitch_bend_c, 0, 16252
2, 29674, Pitch_bend_c, 0, 13132
2, 29674, Pitch_bend_c, 0, 15992
2, 29674, Pitch_bend_c, 0, 12742
2, 29676, Pitch_bend_c, 0, 15732
2, 29676, Pitch_bend_c, 0, 12352
2, 29678, Pitch_bend_c, 0, 14952
2, 29678, Pitch_bend_c, 0, 11832
2, 29680, Pitch_bend_c, 0, 14562
2, 29680, Pitch_bend_c, 0, 11442
2, 29680, Pitch_bend_c, 0, 14042
2, 29682, Pitch_bend_c, 0, 10012
2, 29684, Pitch_bend_c, 0, 13262
2, 29684, Pitch_bend_c, 0, 9752
2, 29684, Pitch_bend_c, 0, 13002
2, 29686, Pitch_bend_c, 0, 9492
2, 29686, Pitch_bend_c, 0, 11962
2, 29688, Pitch_bend_c, 0, 9232
2, 29688, Pitch_bend_c, 0, 11052
2, 29688, Pitch_bend_c, 0, 9102
2, 29690, Pitch_bend_c, 0, 10662
2, 29690, Pitch_bend_c, 0, 8712
2, 29692, Pitch_bend_c, 0, 10272
2, 29692, Pitch_bend_c, 0, 8582
2, 29694, Pitch_bend_c, 0, 9362
2, 29694, Pitch_bend_c, 0, 8452
2, 29696, Pitch_bend_c, 0, 9102
2, 29696, Pitch_bend_c, 0, 8322
2, 29696, Pitch_bend_c, 0, 8842
2, 29698, Pitch_bend_c, 0, 8192
2, 29704, Pitch_bend_c, 0, 7680
2, 29708, Pitch_bend_c, 0, 6272
2, 29712, Pitch_bend_c, 0, 5120
2, 29714, Pitch_bend_c, 0, 4096
2, 29718, Pitch_bend_c, 0, 3328
2, 29722, Pitch_bend_c, 0, 2048
2, 29726, Pitch_bend_c, 0, 896
2, 29730, Pitch_bend_c, 0, 128
2, 29730, Pitch_bend_c, 0, 0
2, 29758, Note_on_c, 0, 45, 0
2, 29758, Pitch_bend_c, 0, 8256
2, 29760, Note_on_c, 0, 40, 93
2, 29980, Note_on_c, 0, 59, 72
2, 29988, Note_on_c, 0, 64, 72
2, 29992, Note_on_c, 0, 67, 72
2, 30010, Note_on_c, 0, 40, 0
2, 30152, Note_on_c, 0, 59, 0
2, 30156, Note_on_c, 0, 64, 0
2, 30158, Note_on_c, 0, 67, 0
2, 30186, Note_on_c, 0, 59, 72
2, 30190, Note_on_c, 0, 64, 72
2, 30190, Note_on_c, 0, 67, 72
2, 30214, Note_on_c, 0, 64, 0
2, 30214, Note_on_c, 0, 59, 0
2, 30224, Note_on_c, 0, 67, 0
2, 30242, Note_on_c, 0, 40, 98
2, 30276, Note_on_c, 0, 40, 0
2, 30320, Note_on_c, 0, 59, 72
2, 30324, Note_on_c, 0, 64, 72
2, 30326, Note_on_c, 0, 67, 72
2, 30336, Note_on_c, 0, 59, 0
2, 30338, Note_on_c, 0, 64, 0
2, 30342, Note_on_c, 0, 40, 96
2, 30350, Note_on_c, 0, 67, 0
2, 30464, Note_on_c, 0, 59, 72
2, 30476, Note_on_c, 0, 64, 72
2, 30482, Note_on_c, 0, 67, 72
2, 30490, Note_on_c, 0, 40, 0
2, 30696, Note_on_c, 0, 59, 0
2, 30700, Note_on_c, 0, 64, 0
2, 30716, Note_on_c, 0, 67, 0
2, 30716, Note_on_c, 0, 43, 87
2, 30720, Note_on_c, 0, 50, 84
2, 30722, Note_on_c, 0, 55, 84
2, 30920, Note_on_c, 0, 43, 0
2, 30924, Note_on_c, 0, 50, 0
2, 30926, Note_on_c, 0, 55, 0
2, 30956, Note_on_c, 0, 43, 84
2, 30960, Note_on_c, 0, 50, 84
2, 30962, Note_on_c, 0, 55, 84
2, 31074, Note_on_c, 0, 43, 0
2, 31160, Note_on_c, 0, 50, 0
2, 31192, Note_on_c, 0, 55, 0
2, 31200, Note_on_c, 0, 45, 87
2, 31254, Note_on_c, 0, 52, 84
2, 31260, Note_on_c, 0, 57, 84
2, 31284, Note_on_c, 0, 45, 0
2, 31320, Note_on_c, 0, 45, 87
2, 31350, Note_on_c, 0, 52, 0
2, 31368, Note_on_c, 0, 57, 0
2, 31404, Note_on_c, 0, 45, 0
2, 31430, Note_on_c, 0, 45, 84
2, 31440, Note_on_c, 0, 52, 84
2, 31452, Note_on_c, 0, 57, 84
2, 31676, Note_on_c, 0, 52, 0
2, 31678, Note_on_c, 0, 45, 0
2, 31680, Note_on_c, 0, 57, 0
2, 31680, Note_on_c, 0, 40, 93
2, 31900, Note_on_c, 0, 59, 72
2, 31908, Note_on_c, 0, 64, 72
2, 31912, Note_on_c, 0, 67, 72
2, 31930, Note_on_c, 0, 40, 0
2, 32132, Note_on_c, 0, 59, 0
2, 32140, Note_on_c, 0, 64, 0
2, 32148, Note_on_c, 0, 67, 0
2, 32162, Note_on_c, 0, 40, 98
2, 32226, Note_on_c, 0, 40, 0
2, 32240, Note_on_c, 0, 59, 72
2, 32244, Note_on_c, 0, 64, 72
2, 32262, Note_on_c, 0, 40, 96
2, 32264, Note_on_c, 0, 59, 0
2, 32266, Note_on_c, 0, 64, 0
2, 32384, Note_on_c, 0, 59, 72
2, 32396, Note_on_c, 0, 64, 72
2, 32402, Note_on_c, 0, 67, 72
2, 32590, Note_on_c, 0, 40, 0
2, 32616, Note_on_c, 0, 59, 0
2, 32620, Note_on_c, 0, 64, 0
2, 32636, Note_on_c, 0, 67, 0
2, 32636, Note_on_c, 0, 43, 87
2, 32640, Note_on_c, 0, 50, 84
2, 32642, Note_on_c, 0, 55, 84
2, 32840, Note_on_c, 0, 43, 0
2, 32844, Note_on_c, 0, 50, 0
2, 32846, Note_on_c, 0, 55, 0
2, 32876, Note_on_c, 0, 43, 84
2, 32880, Note_on_c, 0, 50, 84
2, 32882, Note_on_c, 0, 55, 84
2, 32994, Note_on_c, 0, 43, 0
2, 33080, Note_on_c, 0, 50, 0
2, 33112, Note_on_c, 0, 55, 0
2, 33120, Note_on_c, 0, 45, 87
2, 33174, Note_on_c, 0, 52, 84
2, 33180, Note_on_c, 0, 57, 84
2, 33204, Note_on_c, 0, 45, 0
2, 33240, Note_on_c, 0, 45, 87
2, 33270, Note_on_c, 0, 52, 0
2, 33288, Note_on_c, 0, 57, 0
2, 33324, Note_on_c, 0, 45, 0
2, 33348, Note_on_c, 0, 45, 84
2, 33360, Note_on_c, 0, 57, 84
2, 33360, Note_on_c, 0, 52, 84
2, 33594, Note_on_c, 0, 45, 0
2, 33596, Note_on_c, 0, 52, 0
2, 33598, Note_on_c, 0, 57, 0
2, 33600, Note_on_c, 0, 40, 93
2, 33820, Note_on_c, 0, 59, 72
2, 33828, Note_on_c, 0, 64, 72
2, 33832, Note_on_c, 0, 67, 72
2, 33850, Note_on_c, 0, 40, 0
2, 33992, Note_on_c, 0, 59, 0
2, 33996, Note_on_c, 0, 64, 0
2, 33998, Note_on_c, 0, 67, 0
2, 34026, Note_on_c, 0, 59, 72
2, 34054, Note_on_c, 0, 59, 0
2, 34082, Note_on_c, 0, 40, 98
2, 34160, Note_on_c, 0, 59, 72
2, 34164, Note_on_c, 0, 40, 0
2, 34176, Note_on_c, 0, 59, 0
2, 34182, Note_on_c, 0, 40, 96
2, 34304, Note_on_c, 0, 59, 72
2, 34316, Note_on_c, 0, 64, 72
2, 34322, Note_on_c, 0, 67, 72
2, 34524, Note_on_c, 0, 40, 0
2, 34536, Note_on_c, 0, 59, 0
2, 34540, Note_on_c, 0, 64, 0
2, 34556, Note_on_c, 0, 67, 0
2, 34556, Note_on_c, 0, 43, 87
2, 34560, Note_on_c, 0, 50, 84
2, 34562, Note_on_c, 0, 55, 84
2, 34760, Note_on_c, 0, 43, 0
2, 34764, Note_on_c, 0, 50, 0
2, 34766, Note_on_c, 0, 55, 0
2, 34796, Note_on_c, 0, 43, 84
2, 34800, Note_on_c, 0, 50, 84
2, 34802, Note_on_c, 0, 55, 84
2, 34914, Note_on_c, 0, 43, 0
2, 35000, Note_on_c, 0, 50, 0
2, 35032, Note_on_c, 0, 55, 0
2, 35040, Note_on_c, 0, 45, 87
2, 35094, Note_on_c, 0, 52, 84
2, 35100, Note_on_c, 0, 57, 84
2, 35124, Note_on_c, 0, 45, 0
2, 35160, Note_on_c, 0, 45, 87
2, 35190, Note_on_c, 0, 52, 0
2, 35208, Note_on_c, 0, 57, 0
2, 35244, Note_on_c, 0, 45, 0
2, 35270, Note_on_c, 0, 45, 84
2, 35280, Note_on_c, 0, 52, 84
2, 35288, Note_on_c, 0, 57, 84
2, 35518, Note_on_c, 0, 45, 0
2, 35520, Note_on_c, 0, 57, 0
2, 35520, Note_on_c, 0, 52, 0
2, 35520, Note_on_c, 0, 40, 93
2, 35740, Note_on_c, 0, 59, 72
2, 35748, Note_on_c, 0, 64, 72
2, 35752, Note_on_c, 0, 67, 72
2, 35770, Note_on_c, 0, 40, 0
2, 35972, Note_on_c, 0, 59, 0
2, 35980, Note_on_c, 0, 64, 0
2, 35988, Note_on_c, 0, 67, 0
2, 36002, Note_on_c, 0, 40, 98
2, 36066, Note_on_c, 0, 40, 0
2, 36080, Note_on_c, 0, 59, 72
2, 36084, Note_on_c, 0, 64, 72
2, 36092, Note_on_c, 0, 59, 0
2, 36094, Note_on_c, 0, 64, 0
2, 36102, Note_on_c, 0, 40, 96
2, 36224, Note_on_c, 0, 59, 72
2, 36236, Note_on_c, 0, 64, 72
2, 36242, Note_on_c, 0, 67, 72
2, 36430, Note_on_c, 0, 40, 0
2, 36456, Note_on_c, 0, 59, 0
2, 36460, Note_on_c, 0, 64, 0
2, 36476, Note_on_c, 0, 67, 0
2, 36476, Note_on_c, 0, 43, 87
2, 36480, Note_on_c, 0, 50, 84
2, 36482, Note_on_c, 0, 55, 84
2, 36680, Note_on_c, 0, 43, 0
2, 36684, Note_on_c, 0, 50, 0
2, 36686, Note_on_c, 0, 55, 0
2, 36716, Note_on_c, 0, 43, 84
2, 36720, Note_on_c, 0, 50, 84
2, 36722, Note_on_c, 0, 55, 84
2, 36834, Note_on_c, 0, 43, 0
2, 36920, Note_on_c, 0, 50, 0
2, 36952, Note_on_c, 0, 55, 0
2, 36960, Note_on_c, 0, 45, 87
2, 37014, Note_on_c, 0, 52, 84
2, 37020, Note_on_c, 0, 57, 84
2, 37044, Note_on_c, 0, 45, 0
2, 37080, Note_on_c, 0, 45, 87
2, 37110, Note_on_c, 0, 52, 0
2, 37128, Note_on_c, 0, 57, 0
2, 37164, Note_on_c, 0, 45, 0
2, 37190, Note_on_c, 0, 45, 84
2, 37200, Note_on_c, 0, 52, 84
2, 37212, Note_on_c, 0, 57, 84
2, 37440, Note_on_c, 0, 57, 0
2, 37440, Note_on_c, 0, 52, 0
2, 37440, Note_on_c, 0, 45, 0
2, 37440, Note_on_c, 0, 40, 93
2, 37660, Note_on_c, 0, 59, 72
2, 37668, Note_on_c, 0, 64, 72
2, 37672, Note_on_c, 0, 67, 72
2, 37690, Note_on_c, 0, 40, 0
2, 37892, Note_on_c, 0, 59, 0
2, 37900, Note_on_c, 0, 64, 0
2, 37908, Note_on_c, 0, 67, 0
2, 37922, Note_on_c, 0, 40, 98
2, 37986, Note_on_c, 0, 40, 0
2, 38000, Note_on_c, 0, 59, 72
2, 38004, Note_on_c, 0, 64, 72
2, 38012, Note_on_c, 0, 59, 0
2, 38014, Note_on_c, 0, 64, 0
2, 38022, Note_on_c, 0, 40, 96
2, 38144, Note_on_c, 0, 59, 72
2, 38156, Note_on_c, 0, 64, 72
2, 38162, Note_on_c, 0, 67, 72
2, 38350, Note_on_c, 0, 40, 0
2, 38376, Note_on_c, 0, 59, 0
2, 38380, Note_on_c, 0, 64, 0
2, 38396, Note_on_c, 0, 67, 0
2, 38396, Note_on_c, 0, 43, 87
2, 38400, Note_on_c, 0, 50, 84
2, 38402, Note_on_c, 0, 55, 84
2, 38600, Note_on_c, 0, 43, 0
2, 38604, Note_on_c, 0, 50, 0
2, 38606, Note_on_c, 0, 55, 0
2, 38636, Note_on_c, 0, 43, 84
2, 38640, Note_on_c, 0, 50, 84
2, 38642, Note_on_c, 0, 55, 84
2, 38754, Note_on_c, 0, 43, 0
2, 38840, Note_on_c, 0, 50, 0
2, 38872, Note_on_c, 0, 55, 0
2, 38880, Note_on_c, 0, 45, 87
2, 38934, Note_on_c, 0, 52, 84
2, 38940, Note_on_c, 0, 57, 84
2, 38964, Note_on_c, 0, 45, 0
2, 39000, Note_on_c, 0, 45, 87
2, 39030, Note_on_c, 0, 52, 0
2, 39048, Note_on_c, 0, 57, 0
2, 39084, Note_on_c, 0, 45, 0
2, 39110, Note_on_c, 0, 45, 84
2, 39120, Note_on_c, 0, 52, 84
2, 39128, Note_on_c, 0, 57, 84
2, 39358, Note_on_c, 0, 52, 0
2, 39358, Note_on_c, 0, 45, 0
2, 39360, Note_on_c, 0, 57, 0
2, 39360, Note_on_c, 0, 40, 84
2, 39506, Note_on_c, 0, 40, 0
2, 40800, Note_on_c, 0, 54, 127
2, 40910, Note_on_c, 0, 54, 0
2, 40920, Note_on_c, 0, 52, 127
2, 41040, Note_on_c, 0, 50, 127
2, 41044, Note_on_c, 0, 52, 0
2, 41276, Note_on_c, 0, 50, 0
2, 41280, Note_on_c, 0, 57, 127
2, 41308, Pitch_bend_c, 0, 8712
2, 41312, Pitch_bend_c, 0, 9622
2, 41316, Pitch_bend_c, 0, 10402
2, 41320, Pitch_bend_c, 0, 11832
2, 41322, Pitch_bend_c, 0, 12872
2, 41326, Pitch_bend_c, 0, 13782
2, 41330, Pitch_bend_c, 0, 15212
2, 41332, Pitch_bend_c, 0, 15732
2, 41336, Pitch_bend_c, 0, 16252
2, 41340, Pitch_bend_c, 0, 16382
2, 41400, Note_on_c, 0, 60, 127
2, 41406, Note_on_c, 0, 57, 0
2, 41514, Control_c, 0, 1, 8
2, 41520, Control_c, 0, 1, 14
2, 41520, Note_on_c, 0, 65, 127
2, 41526, Control_c, 0, 1, 22
2, 41528, Note_on_c, 0, 60, 0
2, 41530, Control_c, 0, 1, 28
2, 41534, Control_c, 0, 1, 34
2, 41540, Control_c, 0, 1, 40
2, 41544, Control_c, 0, 1, 46
2, 41548, Control_c, 0, 1, 52
2, 41556, Control_c, 0, 1, 58
2, 41564, Control_c, 0, 1, 64
2, 41568, Control_c, 0, 1, 70
2, 41576, Control_c, 0, 1, 76
2, 41584, Control_c, 0, 1, 82
2, 41594, Control_c, 0, 1, 88
2, 41634, Control_c, 0, 1, 92
2, 41670, Control_c, 0, 1, 86
2, 41692, Note_on_c, 0, 65, 0
2, 41710, Control_c, 0, 1, 80
2, 41718, Pitch_bend_c, 0, 15732
2, 41720, Pitch_bend_c, 0, 15342
2, 41724, Pitch_bend_c, 0, 14822
2, 41728, Control_c, 0, 1, 74
2, 41728, Pitch_bend_c, 0, 13782
2, 41730, Pitch_bend_c, 0, 13002
2, 41734, Pitch_bend_c, 0, 11702
2, 41736, Control_c, 0, 1, 68
2, 41738, Pitch_bend_c, 0, 10662
2, 41742, Pitch_bend_c, 0, 9622
2, 41742, Control_c, 0, 1, 60
2, 41744, Pitch_bend_c, 0, 8972
2, 41746, Control_c, 0, 1, 54
2, 41748, Pitch_bend_c, 0, 8582
2, 41750, Control_c, 0, 1, 46
2, 41752, Pitch_bend_c, 0, 8192
2, 41754, Control_c, 0, 1, 38
2, 41756, Control_c, 0, 1, 30
2, 41760, Note_on_c, 0, 57, 127
2, 41760, Control_c, 0, 1, 20
2, 41764, Control_c, 0, 1, 6
2, 41770, Control_c, 0, 1, 0
2, 41776, Pitch_bend_c, 0, 8712
2, 41780, Pitch_bend_c, 0, 9362
2, 41782, Pitch_bend_c, 0, 10272
2, 41786, Pitch_bend_c, 0, 11702
2, 41790, Pitch_bend_c, 0, 13132
2, 41794, Pitch_bend_c, 0, 15342
2, 41796, Pitch_bend_c, 0, 15862
2, 41800, Pitch_bend_c, 0, 16252
2, 41804, Pitch_bend_c, 0, 16382
2, 41880, Note_on_c, 0, 60, 127
2, 41884, Note_on_c, 0, 57, 0
2, 41982, Control_c, 0, 1, 6
2, 41986, Control_c, 0, 1, 12
2, 41994, Control_c, 0, 1, 20
2, 41996, Control_c, 0, 1, 26
2, 41998, Note_on_c, 0, 60, 0
2, 42000, Note_on_c, 0, 65, 125
2, 42002, Control_c, 0, 1, 32
2, 42008, Control_c, 0, 1, 40
2, 42012, Control_c, 0, 1, 46
2, 42016, Control_c, 0, 1, 52
2, 42022, Control_c, 0, 1, 60
2, 42030, Control_c, 0, 1, 66
2, 42034, Control_c, 0, 1, 72
2, 42042, Control_c, 0, 1, 78
2, 42048, Control_c, 0, 1, 84
2, 42070, Control_c, 0, 1, 90
2, 42114, Control_c, 0, 1, 88
2, 42144, Control_c, 0, 1, 90
2, 42182, Control_c, 0, 1, 84
2, 42188, Control_c, 0, 1, 78
2, 42194, Control_c, 0, 1, 70
2, 42198, Control_c, 0, 1, 60
2, 42202, Note_on_c, 0, 65, 0
2, 42202, Control_c, 0, 1, 44
2, 42206, Control_c, 0, 1, 32
2, 42208, Control_c, 0, 1, 18
2, 42212, Control_c, 0, 1, 6
2, 42220, Control_c, 0, 1, 0
2, 42224, Pitch_bend_c, 0, 15732
2, 42228, Pitch_bend_c, 0, 14822
2, 42230, Pitch_bend_c, 0, 13262
2, 42234, Pitch_bend_c, 0, 10272
2, 42236, Pitch_bend_c, 0, 8712
2, 42238, Pitch_bend_c, 0, 8256
2, 42240, Note_on_c, 0, 57, 127
2, 42252, Pitch_bend_c, 0, 8576
2, 42256, Pitch_bend_c, 0, 8896
2, 42260, Pitch_bend_c, 0, 9280
2, 42264, Pitch_bend_c, 0, 9600
2, 42266, Pitch_bend_c, 0, 9984
2, 42270, Pitch_bend_c, 0, 10304
2, 42274, Pitch_bend_c, 0, 10752
2, 42276, Pitch_bend_c, 0, 11072
2, 42280, Pitch_bend_c, 0, 11392
2, 42284, Pitch_bend_c, 0, 11712
2, 42286, Pitch_bend_c, 0, 12096
2, 42290, Pitch_bend_c, 0, 12608
2, 42292, Pitch_bend_c, 0, 13120
2, 42296, Pitch_bend_c, 0, 13696
2, 42298, Pitch_bend_c, 0, 14528
2, 42300, Pitch_bend_c, 0, 15936
2, 42354, Note_on_c, 0, 57, 0
2, 42360, Note_on_c, 0, 60, 127
2, 42478, Note_on_c, 0, 60, 0
2, 42480, Note_on_c, 0, 65, 127
2, 42592, Pitch_bend_c, 0, 8256
2, 42598, Note_on_c, 0, 65, 0
2, 42600, Note_on_c, 0, 57, 127
2, 42664, Control_c, 0, 1, 2
2, 42666, Control_c, 0, 1, 8
2, 42670, Control_c, 0, 1, 14
2, 42672, Control_c, 0, 1, 20
2, 42676, Control_c, 0, 1, 28
2, 42680, Control_c, 0, 1, 34
2, 42684, Control_c, 0, 1, 42
2, 42694, Control_c, 0, 1, 48
2, 42730, Control_c, 0, 1, 54
2, 42760, Control_c, 0, 1, 60
2, 42770, Control_c, 0, 1, 62
2, 42978, Control_c, 0, 1, 56
2, 42986, Control_c, 0, 1, 50
2, 42990, Control_c, 0, 1, 44
2, 42992, Control_c, 0, 1, 38
2, 42996, Control_c, 0, 1, 16
2, 42998, Note_on_c, 0, 57, 0
2, 43000, Control_c, 0, 1, 8
2, 43004, Control_c, 0, 1, 0
2, 43200, Note_on_c, 0, 55, 123
2, 43310, Note_on_c, 0, 55, 0
2, 43320, Note_on_c, 0, 50, 127
2, 43416, Note_on_c, 0, 38, 90
2, 43452, Pitch_bend_c, 0, 8712
2, 43456, Pitch_bend_c, 0, 10012
2, 43460, Pitch_bend_c, 0, 10922
2, 43462, Pitch_bend_c, 0, 12352
2, 43466, Pitch_bend_c, 0, 13782
2, 43470, Pitch_bend_c, 0, 15602
2, 43472, Pitch_bend_c, 0, 15992
2, 43478, Pitch_bend_c, 0, 16382
2, 43508, Note_on_c, 0, 50, 0
2, 43552, Note_on_c, 0, 38, 0
2, 43554, Pitch_bend_c, 0, 15992
2, 43556, Pitch_bend_c, 0, 15472
2, 43560, Note_on_c, 0, 50, 127
2, 43560, Pitch_bend_c, 0, 13912
2, 43564, Pitch_bend_c, 0, 13002
2, 43566, Pitch_bend_c, 0, 11312
2, 43570, Pitch_bend_c, 0, 9882
2, 43574, Pitch_bend_c, 0, 9232
2, 43576, Pitch_bend_c, 0, 8712
2, 43582, Pitch_bend_c, 0, 8192
2, 43636, Pitch_bend_c, 0, 8582
2, 43638, Pitch_bend_c, 0, 10662
2, 43642, Pitch_bend_c, 0, 12352
2, 43644, Pitch_bend_c, 0, 14692
2, 43648, Pitch_bend_c, 0, 15472
2, 43650, Pitch_bend_c, 0, 16122
2, 43656, Pitch_bend_c, 0, 16382
2, 43842, Control_c, 0, 1, 6
2, 43850, Control_c, 0, 1, 14
2, 43854, Control_c, 0, 1, 20
2, 43858, Control_c, 0, 1, 26
2, 43870, Control_c, 0, 1, 32
2, 43882, Control_c, 0, 1, 38
2, 43888, Control_c, 0, 1, 44
2, 43900, Control_c, 0, 1, 50
2, 43914, Control_c, 0, 1, 52
2, 44030, Control_c, 0, 1, 46
2, 44034, Control_c, 0, 1, 40
2, 44038, Control_c, 0, 1, 34
2, 44042, Control_c, 0, 1, 24
2, 44048, Note_on_c, 0, 50, 0
2, 44048, Control_c, 0, 1, 12
2, 44052, Control_c, 0, 1, 2
2, 44052, Control_c, 0, 1, 0
2, 44160, Note_on_c, 0, 57, 127
2, 44172, Pitch_bend_c, 0, 8576
2, 44176, Pitch_bend_c, 0, 8896
2, 44180, Pitch_bend_c, 0, 9280
2, 44184, Pitch_bend_c, 0, 9600
2, 44186, Pitch_bend_c, 0, 9984
2, 44190, Pitch_bend_c, 0, 10304
2, 44194, Pitch_bend_c, 0, 10752
2, 44196, Pitch_bend_c, 0, 11072
2, 44200, Pitch_bend_c, 0, 11392
2, 44204, Pitch_bend_c, 0, 11712
2, 44206, Pitch_bend_c, 0, 12096
2, 44210, Pitch_bend_c, 0, 12608
2, 44212, Pitch_bend_c, 0, 13120
2, 44216, Pitch_bend_c, 0, 13696
2, 44218, Pitch_bend_c, 0, 14528
2, 44220, Pitch_bend_c, 0, 15936
2, 44278, Note_on_c, 0, 57, 0
2, 44280, Note_on_c, 0, 60, 127
2, 44400, Note_on_c, 0, 60, 0
2, 44400, Note_on_c, 0, 65, 127
2, 44510, Pitch_bend_c, 0, 15616
2, 44512, Pitch_bend_c, 0, 15104
2, 44514, Note_on_c, 0, 65, 0
2, 44516, Pitch_bend_c, 0, 14656
2, 44518, Pitch_bend_c, 0, 14144
2, 44520, Note_on_c, 0, 57, 127
2, 44522, Pitch_bend_c, 0, 13632
2, 44524, Pitch_bend_c, 0, 13184
2, 44528, Pitch_bend_c, 0, 12672
2, 44530, Pitch_bend_c, 0, 12288
2, 44534, Pitch_bend_c, 0, 11840
2, 44536, Pitch_bend_c, 0, 11456
2, 44540, Pitch_bend_c, 0, 11136
2, 44542, Pitch_bend_c, 0, 10624
2, 44546, Pitch_bend_c, 0, 10112
2, 44548, Pitch_bend_c, 0, 9792
2, 44552, Pitch_bend_c, 0, 9408
2, 44554, Pitch_bend_c, 0, 9024
2, 44558, Pitch_bend_c, 0, 8512
2, 44562, Pitch_bend_c, 0, 8256
2, 44586, Control_c, 0, 1, 8
2, 44590, Control_c, 0, 1, 14
2, 44592, Control_c, 0, 1, 20
2, 44596, Control_c, 0, 1, 28
2, 44600, Control_c, 0, 1, 34
2, 44604, Control_c, 0, 1, 42
2, 44614, Control_c, 0, 1, 48
2, 44650, Control_c, 0, 1, 54
2, 44680, Control_c, 0, 1, 60
2, 44690, Control_c, 0, 1, 62
2, 44898, Control_c, 0, 1, 56
2, 44906, Control_c, 0, 1, 50
2, 44910, Control_c, 0, 1, 44
2, 44912, Control_c, 0, 1, 38
2, 44916, Control_c, 0, 1, 16
2, 44918, Note_on_c, 0, 57, 0
2, 44920, Control_c, 0, 1, 8
2, 44924, Control_c, 0, 1, 0
2, 45120, Note_on_c, 0, 55, 123
2, 45230, Note_on_c, 0, 55, 0
2, 45240, Note_on_c, 0, 50, 127
2, 45342, Note_on_c, 0, 38, 90
2, 45372, Pitch_bend_c, 0, 8712
2, 45376, Pitch_bend_c, 0, 10012
2, 45380, Pitch_bend_c, 0, 10922
2, 45382, Pitch_bend_c, 0, 12352
2, 45386, Pitch_bend_c, 0, 13782
2, 45390, Pitch_bend_c, 0, 15602
2, 45392, Pitch_bend_c, 0, 15992
2, 45398, Pitch_bend_c, 0, 16382
2, 45448, Note_on_c, 0, 50, 0
2, 45474, Pitch_bend_c, 0, 15992
2, 45476, Pitch_bend_c, 0, 15472
2, 45480, Note_on_c, 0, 50, 127
2, 45480, Pitch_bend_c, 0, 13912
2, 45484, Pitch_bend_c, 0, 13002
2, 45486, Note_on_c, 0, 38, 0
2, 45486, Pitch_bend_c, 0, 11312
2, 45490, Pitch_bend_c, 0, 9882
2, 45494, Pitch_bend_c, 0, 9232
2, 45496, Pitch_bend_c, 0, 8712
2, 45502, Pitch_bend_c, 0, 8192
2, 45556, Pitch_bend_c, 0, 8582
2, 45558, Pitch_bend_c, 0, 10662
2, 45562, Pitch_bend_c, 0, 12352
2, 45564, Pitch_bend_c, 0, 14692
2, 45568, Pitch_bend_c, 0, 15472
2, 45570, Pitch_bend_c, 0, 16122
2, 45576, Pitch_bend_c, 0, 16382
2, 45762, Control_c, 0, 1, 6
2, 45770, Control_c, 0, 1, 14
2, 45774, Control_c, 0, 1, 20
2, 45778, Control_c, 0, 1, 26
2, 45790, Control_c, 0, 1, 32
2, 45802, Control_c, 0, 1, 38
2, 45808, Control_c, 0, 1, 44
2, 45820, Control_c, 0, 1, 50
2, 45834, Control_c, 0, 1, 52
2, 45840, Note_on_c, 0, 50, 0
2, 45840, Pitch_bend_c, 0, 8256
2, 45948, Note_on_c, 0, 50, 122
2, 45950, Control_c, 0, 1, 46
2, 45954, Control_c, 0, 1, 40
2, 45958, Control_c, 0, 1, 34
2, 45962, Control_c, 0, 1, 24
2, 45968, Control_c, 0, 1, 12
2, 45972, Pitch_bend_c, 0, 8582
2, 45972, Control_c, 0, 1, 2
2, 45972, Control_c, 0, 1, 0
2, 45974, Pitch_bend_c, 0, 9102
2, 45978, Pitch_bend_c, 0, 10272
2, 45982, Pitch_bend_c, 0, 11052
2, 45984, Pitch_bend_c, 0, 12612
2, 45990, Pitch_bend_c, 0, 14562
2, 45994, Pitch_bend_c, 0, 15862
2, 45998, Pitch_bend_c, 0, 16252
2, 46000, Pitch_bend_c, 0, 16382
2, 46054, Note_on_c, 0, 50, 0
2, 46060, Pitch_bend_c, 0, 15862
2, 46064, Pitch_bend_c, 0, 8256
2, 46064, Pitch_bend_c, 0, 13392
2, 46068, Pitch_bend_c, 0, 10532
2, 46070, Pitch_bend_c, 0, 8192
2, 46072, Pitch_bend_c, 0, 8064
2, 46074, Pitch_bend_c, 0, 8192
2, 46078, Pitch_bend_c, 0, 8582
2, 46080, Note_on_c, 0, 55, 113
2, 46080, Pitch_bend_c, 0, 8972
2, 46086, Pitch_bend_c, 0, 8452
2, 46086, Pitch_bend_c, 0, 8192
2, 46090, Pitch_bend_c, 0, 7936
2, 46096, Pitch_bend_c, 0, 8192
2, 46176, Note_on_c, 0, 55, 0
2, 46200, Note_on_c, 0, 57, 113
2, 46274, Note_on_c, 0, 57, 0
2, 46320, Note_on_c, 0, 59, 113
2, 46424, Note_on_c, 0, 59, 0
2, 46440, Note_on_c, 0, 53, 113
2, 46448, Pitch_bend_c, 0, 8712
2, 46452, Pitch_bend_c, 0, 9102
2, 46454, Pitch_bend_c, 0, 9622
2, 46458, Pitch_bend_c, 0, 10402
2, 46464, Pitch_bend_c, 0, 11312
2, 46468, Pitch_bend_c, 0, 12742
2, 46470, Pitch_bend_c, 0, 13522
2, 46474, Pitch_bend_c, 0, 14692
2, 46478, Pitch_bend_c, 0, 15472
2, 46480, Pitch_bend_c, 0, 15862
2, 46484, Pitch_bend_c, 0, 16252
2, 46486, Pitch_bend_c, 0, 16382
2, 46686, Pitch_bend_c, 0, 15992
2, 46688, Pitch_bend_c, 0, 15472
2, 46692, Pitch_bend_c, 0, 15082
2, 46696, Pitch_bend_c, 0, 14432
2, 46700, Pitch_bend_c, 0, 14042
2, 46704, Pitch_bend_c, 0, 13782
2, 46712, Pitch_bend_c, 0, 14172
2, 46718, Pitch_bend_c, 0, 15212
2, 46720, Pitch_bend_c, 0, 15732
2, 46724, Pitch_bend_c, 0, 16252
2, 46728, Pitch_bend_c, 0, 16382
2, 46746, Pitch_bend_c, 0, 15992
2, 46748, Pitch_bend_c, 0, 15602
2, 46752, Pitch_bend_c, 0, 14692
2, 46754, Pitch_bend_c, 0, 13912
2, 46758, Pitch_bend_c, 0, 13132
2, 46762, Pitch_bend_c, 0, 12742
2, 46764, Pitch_bend_c, 0, 12352
2, 46772, Pitch_bend_c, 0, 12872
2, 46776, Pitch_bend_c, 0, 13652
2, 46778, Pitch_bend_c, 0, 15212
2, 46782, Pitch_bend_c, 0, 15732
2, 46786, Pitch_bend_c, 0, 16252
2, 46790, Pitch_bend_c, 0, 16382
2, 46816, Pitch_bend_c, 0, 15732
2, 46820, Pitch_bend_c, 0, 15342
2, 46824, Pitch_bend_c, 0, 15082
2, 46832, Pitch_bend_c, 0, 15602
2, 46834, Pitch_bend_c, 0, 16122
2, 46840, Pitch_bend_c, 0, 16382
2, 46882, Pitch_bend_c, 0, 16252
2, 46886, Pitch_bend_c, 0, 16382
2, 46936, Pitch_bend_c, 0, 15992
2, 46940, Note_on_c, 0, 53, 0
2, 46946, Pitch_bend_c, 0, 16382
2, 46960, Pitch_bend_c, 0, 15992
2, 46964, Pitch_bend_c, 0, 13522
2, 46966, Pitch_bend_c, 0, 10532
2, 46970, Pitch_bend_c, 0, 7808
2, 46972, Pitch_bend_c, 0, 7552
2, 46976, Pitch_bend_c, 0, 7936
2, 46976, Pitch_bend_c, 0, 8192
2, 46980, Pitch_bend_c, 0, 8972
2, 46984, Pitch_bend_c, 0, 8582
2, 46986, Pitch_bend_c, 0, 8192
2, 46988, Pitch_bend_c, 0, 7808
2, 46996, Pitch_bend_c, 0, 8192
2, 47020, Note_on_c, 0, 53, 108
2, 47046, Pitch_bend_c, 0, 8712
2, 47050, Pitch_bend_c, 0, 9492
2, 47052, Pitch_bend_c, 0, 10402
2, 47056, Pitch_bend_c, 0, 11832
2, 47060, Pitch_bend_c, 0, 13002
2, 47062, Pitch_bend_c, 0, 14172
2, 47066, Pitch_bend_c, 0, 15472
2, 47068, Pitch_bend_c, 0, 15992
2, 47076, Pitch_bend_c, 0, 16382
2, 47154, Note_on_c, 0, 53, 0
2, 47160, Note_on_c, 0, 45, 122
2, 47162, Pitch_bend_c, 0, 14822
2, 47166, Pitch_bend_c, 0, 12742
2, 47170, Pitch_bend_c, 0, 8192
2, 47172, Pitch_bend_c, 0, 7296
2, 47176, Pitch_bend_c, 0, 7936
2, 47176, Pitch_bend_c, 0, 8192
2, 47180, Pitch_bend_c, 0, 8842
2, 47182, Pitch_bend_c, 0, 8972
2, 47186, Pitch_bend_c, 0, 8322
2, 47186, Pitch_bend_c, 0, 8192
2, 47190, Pitch_bend_c, 0, 7680
2, 47194, Pitch_bend_c, 0, 8064
2, 47196, Pitch_bend_c, 0, 8192
2, 47206, Pitch_bend_c, 0, 8064
2, 47208, Pitch_bend_c, 0, 8192
2, 47274, Note_on_c, 0, 45, 0
2, 47280, Note_on_c, 0, 40, 113
2, 47394, Note_on_c, 0, 40, 0
2, 47400, Note_on_c, 0, 43, 104
2, 47526, Pitch_bend_c, 0, 8582
2, 47534, Pitch_bend_c, 0, 8972
2, 47548, Pitch_bend_c, 0, 8582
2, 47554, Pitch_bend_c, 0, 8192
2, 47638, Pitch_bend_c, 0, 7808
2, 47642, Pitch_bend_c, 0, 7552
2, 47654, Pitch_bend_c, 0, 7936
2, 47658, Pitch_bend_c, 0, 8192
2, 47668, Pitch_bend_c, 0, 8582
2, 47672, Pitch_bend_c, 0, 9102
2, 47676, Pitch_bend_c, 0, 9622
2, 47678, Pitch_bend_c, 0, 10532
2, 47682, Pitch_bend_c, 0, 11052
2, 47684, Pitch_bend_c, 0, 11442
2, 47686, Pitch_bend_c, 0, 11572
2, 47696, Pitch_bend_c, 0, 11182
2, 47702, Pitch_bend_c, 0, 10662
2, 47704, Pitch_bend_c, 0, 10012
2, 47708, Pitch_bend_c, 0, 9622
2, 47710, Pitch_bend_c, 0, 9232
2, 47714, Pitch_bend_c, 0, 8842
2, 47718, Pitch_bend_c, 0, 8452
2, 47720, Pitch_bend_c, 0, 8322
2, 47732, Pitch_bend_c, 0, 8712
2, 47736, Pitch_bend_c, 0, 9492
2, 47738, Pitch_bend_c, 0, 9882
2, 47742, Pitch_bend_c, 0, 10792
2, 47746, Pitch_bend_c, 0, 11312
2, 47748, Pitch_bend_c, 0, 11832
2, 47752, Pitch_bend_c, 0, 12352
2, 47758, Pitch_bend_c, 0, 12612
2, 47764, Pitch_bend_c, 0, 12092
2, 47768, Pitch_bend_c, 0, 11702
2, 47772, Pitch_bend_c, 0, 11182
2, 47776, Pitch_bend_c, 0, 10792
2, 47778, Pitch_bend_c, 0, 9882
2, 47782, Pitch_bend_c, 0, 9492
2, 47784, Pitch_bend_c, 0, 9102
2, 47788, Pitch_bend_c, 0, 8712
2, 47794, Pitch_bend_c, 0, 8452
2, 47806, Pitch_bend_c, 0, 8842
2, 47810, Pitch_bend_c, 0, 10272
2, 47812, Pitch_bend_c, 0, 10662
2, 47816, Pitch_bend_c, 0, 11442
2, 47820, Pitch_bend_c, 0, 11832
2, 47822, Pitch_bend_c, 0, 12352
2, 47828, Pitch_bend_c, 0, 12612
2, 47838, Pitch_bend_c, 0, 12092
2, 47846, Pitch_bend_c, 0, 11572
2, 47848, Pitch_bend_c, 0, 11182
2, 47852, Pitch_bend_c, 0, 10792
2, 47856, Pitch_bend_c, 0, 9882
2, 47858, Pitch_bend_c, 0, 9492
2, 47860, Note_on_c, 0, 43, 0
2, 47862, Pitch_bend_c, 0, 8972
2, 47864, Pitch_bend_c, 0, 8582
2, 47870, Pitch_bend_c, 0, 8192
2, 47886, Note_on_c, 0, 45, 127
2, 47986, Note_on_c, 0, 45, 0
2, 47998, Note_on_c, 0, 45, 127
2, 48030, Pitch_bend_c, 0, 8842
2, 48032, Pitch_bend_c, 0, 9362
2, 48036, Pitch_bend_c, 0, 10922
2, 48038, Pitch_bend_c, 0, 11702
2, 48042, Pitch_bend_c, 0, 13522
2, 48046, Pitch_bend_c, 0, 14562
2, 48050, Pitch_bend_c, 0, 15862
2, 48052, Pitch_bend_c, 0, 16252
2, 48056, Pitch_bend_c, 0, 16382
2, 48094, Note_on_c, 0, 45, 0
2, 48124, Note_on_c, 0, 53, 122
2, 48210, Pitch_bend_c, 0, 15992
2, 48214, Pitch_bend_c, 0, 15212
2, 48218, Pitch_bend_c, 0, 14692
2, 48220, Pitch_bend_c, 0, 13002
2, 48224, Pitch_bend_c, 0, 11702
2, 48228, Pitch_bend_c, 0, 9752
2, 48230, Pitch_bend_c, 0, 9362
2, 48232, Note_on_c, 0, 53, 0
2, 48234, Pitch_bend_c, 0, 8582
2, 48236, Note_on_c, 0, 57, 122
2, 48238, Pitch_bend_c, 0, 8192
2, 48262, Pitch_bend_c, 0, 8582
2, 48264, Pitch_bend_c, 0, 9752
2, 48268, Pitch_bend_c, 0, 10662
2, 48270, Pitch_bend_c, 0, 12092
2, 48274, Pitch_bend_c, 0, 13912
2, 48278, Pitch_bend_c, 0, 15732
2, 48282, Pitch_bend_c, 0, 16122
2, 48284, Pitch_bend_c, 0, 16382
2, 48338, Pitch_bend_c, 0, 15992
2, 48340, Pitch_bend_c, 0, 15472
2, 48344, Pitch_bend_c, 0, 13652
2, 48348, Pitch_bend_c, 0, 11702
2, 48352, Note_on_c, 0, 57, 0
2, 48352, Pitch_bend_c, 0, 10012
2, 48356, Pitch_bend_c, 0, 9102
2, 48358, Pitch_bend_c, 0, 8192
2, 48358, Note_on_c, 0, 55, 125
2, 48364, Pitch_bend_c, 0, 7680
2, 48368, Pitch_bend_c, 0, 7296
2, 48370, Pitch_bend_c, 0, 7168
2, 48378, Pitch_bend_c, 0, 7552
2, 48382, Pitch_bend_c, 0, 7936
2, 48388, Pitch_bend_c, 0, 8192
2, 48392, Pitch_bend_c, 0, 8582
2, 48396, Pitch_bend_c, 0, 9752
2, 48398, Pitch_bend_c, 0, 11052
2, 48402, Pitch_bend_c, 0, 11962
2, 48404, Pitch_bend_c, 0, 14172
2, 48408, Pitch_bend_c, 0, 15212
2, 48410, Pitch_bend_c, 0, 15992
2, 48416, Pitch_bend_c, 0, 16382
2, 48548, Control_c, 0, 1, 6
2, 48556, Control_c, 0, 1, 12
2, 48566, Control_c, 0, 1, 18
2, 48580, Control_c, 0, 1, 26
2, 48594, Control_c, 0, 1, 32
2, 48612, Control_c, 0, 1, 38
2, 48628, Control_c, 0, 1, 44
2, 48642, Control_c, 0, 1, 50
2, 48676, Control_c, 0, 1, 56
2, 48690, Control_c, 0, 1, 62
2, 48710, Control_c, 0, 1, 68
2, 48714, Note_on_c, 0, 55, 0
2, 48720, Control_c, 0, 1, 1
2, 48720, Pitch_bend_c, 0, 8256
2, 48724, Note_on_c, 0, 55, 127
2, 48836, Note_on_c, 0, 55, 0
2, 48838, Note_on_c, 0, 50, 127
2, 48956, Note_on_c, 0, 57, 125
2, 48958, Note_on_c, 0, 50, 0
2, 49000, Pitch_bend_c, 0, 8712
2, 49002, Pitch_bend_c, 0, 9232
2, 49006, Pitch_bend_c, 0, 9752
2, 49010, Pitch_bend_c, 0, 11052
2, 49012, Pitch_bend_c, 0, 11962
2, 49016, Pitch_bend_c, 0, 13652
2, 49018, Pitch_bend_c, 0, 14952
2, 49026, Pitch_bend_c, 0, 15602
2, 49030, Pitch_bend_c, 0, 16382
2, 49078, Note_on_c, 0, 57, 0
2, 49090, Note_on_c, 0, 60, 126
2, 49158, Note_on_c, 0, 60, 0
2, 49208, Note_on_c, 0, 60, 127
2, 49288, Note_on_c, 0, 60, 0
2, 49306, Pitch_bend_c, 0, 15992
2, 49308, Pitch_bend_c, 0, 15472
2, 49312, Pitch_bend_c, 0, 14692
2, 49316, Pitch_bend_c, 0, 14042
2, 49318, Pitch_bend_c, 0, 13002
2, 49322, Pitch_bend_c, 0, 12352
2, 49326, Pitch_bend_c, 0, 10792
2, 49330, Pitch_bend_c, 0, 9882
2, 49332, Pitch_bend_c, 0, 9362
2, 49332, Note_on_c, 0, 62, 127
2, 49336, Pitch_bend_c, 0, 8972
2, 49340, Pitch_bend_c, 0, 8452
2, 49342, Pitch_bend_c, 0, 8192
2, 49374, Pitch_bend_c, 0, 8582
2, 49378, Pitch_bend_c, 0, 9102
2, 49380, Pitch_bend_c, 0, 10272
2, 49386, Pitch_bend_c, 0, 11442
2, 49390, Pitch_bend_c, 0, 13262
2, 49392, Pitch_bend_c, 0, 14172
2, 49396, Pitch_bend_c, 0, 15082
2, 49400, Pitch_bend_c, 0, 15862
2, 49404, Pitch_bend_c, 0, 16252
2, 49406, Pitch_bend_c, 0, 16382
2, 49482, Control_c, 0, 1, 6
2, 49488, Control_c, 0, 1, 12
2, 49492, Control_c, 0, 1, 18
2, 49500, Control_c, 0, 1, 24
2, 49506, Control_c, 0, 1, 30
2, 49512, Control_c, 0, 1, 36
2, 49522, Control_c, 0, 1, 42
2, 49530, Control_c, 0, 1, 48
2, 49538, Control_c, 0, 1, 54
2, 49546, Control_c, 0, 1, 60
2, 49556, Control_c, 0, 1, 66
2, 49588, Control_c, 0, 1, 72
2, 49676, Note_on_c, 0, 62, 0
2, 49680, Control_c, 0, 1, 0
2, 49686, Pitch_bend_c, 0, 8322
2, 49688, Pitch_bend_c, 0, 8712
2, 49692, Pitch_bend_c, 0, 9102
2, 49692, Note_on_c, 0, 50, 91
2, 49694, Pitch_bend_c, 0, 9752
2, 49698, Pitch_bend_c, 0, 10792
2, 49702, Pitch_bend_c, 0, 11702
2, 49706, Pitch_bend_c, 0, 13132
2, 49710, Pitch_bend_c, 0, 13782
2, 49714, Pitch_bend_c, 0, 15472
2, 49716, Pitch_bend_c, 0, 16122
2, 49720, Pitch_bend_c, 0, 16382
2, 49812, Note_on_c, 0, 45, 90
2, 49818, Note_on_c, 0, 50, 0
2, 49820, Pitch_bend_c, 0, 15992
2, 49822, Pitch_bend_c, 0, 15602
2, 49826, Pitch_bend_c, 0, 14692
2, 49830, Pitch_bend_c, 0, 14042
2, 49832, Pitch_bend_c, 0, 13782
2, 49832, Pitch_bend_c, 0, 16252
2, 49834, Pitch_bend_c, 0, 13132
2, 49834, Pitch_bend_c, 0, 15992
2, 49834, Pitch_bend_c, 0, 12742
2, 49836, Pitch_bend_c, 0, 15732
2, 49836, Pitch_bend_c, 0, 12352
2, 49838, Pitch_bend_c, 0, 14952
2, 49838, Pitch_bend_c, 0, 11832
2, 49840, Pitch_bend_c, 0, 14562
2, 49840, Pitch_bend_c, 0, 11442
2, 49840, Pitch_bend_c, 0, 14042
2, 49842, Pitch_bend_c, 0, 10012
2, 49844, Pitch_bend_c, 0, 13262
2, 49844, Pitch_bend_c, 0, 9752
2, 49844, Pitch_bend_c, 0, 13002
2, 49846, Pitch_bend_c, 0, 9492
2, 49846, Pitch_bend_c, 0, 11962
2, 49848, Pitch_bend_c, 0, 9232
2, 49848, Pitch_bend_c, 0, 11052
2, 49848, Pitch_bend_c, 0, 9102
2, 49850, Pitch_bend_c, 0, 10662
2, 49850, Pitch_bend_c, 0, 8712
2, 49852, Pitch_bend_c, 0, 10272
2, 49852, Pitch_bend_c, 0, 8582
2, 49854, Pitch_bend_c, 0, 9362
2, 49854, Pitch_bend_c, 0, 8452
2, 49856, Pitch_bend_c, 0, 9102
2, 49856, Pitch_bend_c, 0, 8322
2, 49856, Pitch_bend_c, 0, 8842
2, 49858, Pitch_bend_c, 0, 8192
2, 49864, Pitch_bend_c, 0, 7680
2, 49868, Pitch_bend_c, 0, 6272
2, 49872, Pitch_bend_c, 0, 5120
2, 49874, Pitch_bend_c, 0, 4096
2, 49878, Pitch_bend_c, 0, 3328
2, 49882, Pitch_bend_c, 0, 2048
2, 49886, Pitch_bend_c, 0, 896
2, 49890, Pitch_bend_c, 0, 128
2, 49890, Pitch_bend_c, 0, 0
2, 49918, Note_on_c, 0, 45, 0
2, 49918, Pitch_bend_c, 0, 8256
2, 49920, Note_on_c, 0, 40, 93
2, 50140, Note_on_c, 0, 59, 72
2, 50148, Note_on_c, 0, 64, 72
2, 50152, Note_on_c, 0, 67, 72
2, 50170, Note_on_c, 0, 40, 0
2, 50312, Note_on_c, 0, 59, 0
2, 50316, Note_on_c, 0, 64, 0
2, 50318, Note_on_c, 0, 67, 0
2, 50346, Note_on_c, 0, 59, 72
2, 50350, Note_on_c, 0, 64, 72
2, 50350, Note_on_c, 0, 67, 72
2, 50374, Note_on_c, 0, 59, 0
2, 50374, Note_on_c, 0, 64, 0
2, 50384, Note_on_c, 0, 67, 0
2, 50402, Note_on_c, 0, 40, 98
2, 50436, Note_on_c, 0, 40, 0
2, 50480, Note_on_c, 0, 59, 72
2, 50484, Note_on_c, 0, 64, 72
2, 50486, Note_on_c, 0, 67, 72
2, 50496, Note_on_c, 0, 59, 0
2, 50498, Note_on_c, 0, 64, 0
2, 50502, Note_on_c, 0, 40, 96
2, 50510, Note_on_c, 0, 67, 0
2, 50624, Note_on_c, 0, 59, 72
2, 50636, Note_on_c, 0, 64, 72
2, 50642, Note_on_c, 0, 67, 72
2, 50650, Note_on_c, 0, 40, 0
2, 50856, Note_on_c, 0, 59, 0
2, 50860, Note_on_c, 0, 64, 0
2, 50876, Note_on_c, 0, 67, 0
2, 50876, Note_on_c, 0, 43, 87
2, 50880, Note_on_c, 0, 50, 84
2, 50882, Note_on_c, 0, 55, 84
2, 51080, Note_on_c, 0, 43, 0
2, 51084, Note_on_c, 0, 50, 0
2, 51086, Note_on_c, 0, 55, 0
2, 51116, Note_on_c, 0, 43, 84
2, 51120, Note_on_c, 0, 50, 84
2, 51122, Note_on_c, 0, 55, 84
2, 51234, Note_on_c, 0, 43, 0
2, 51320, Note_on_c, 0, 50, 0
2, 51352, Note_on_c, 0, 55, 0
2, 51360, Note_on_c, 0, 45, 87
2, 51414, Note_on_c, 0, 52, 84
2, 51420, Note_on_c, 0, 57, 84
2, 51444, Note_on_c, 0, 45, 0
2, 51480, Note_on_c, 0, 45, 87
2, 51510, Note_on_c, 0, 52, 0
2, 51528, Note_on_c, 0, 57, 0
2, 51564, Note_on_c, 0, 45, 0
2, 51590, Note_on_c, 0, 45, 84
2, 51600, Note_on_c, 0, 52, 84
2, 51612, Note_on_c, 0, 57, 84
2, 51836, Note_on_c, 0, 52, 0
2, 51838, Note_on_c, 0, 45, 0
2, 51840, Note_on_c, 0, 57, 0
2, 51840, Note_on_c, 0, 40, 93
2, 52060, Note_on_c, 0, 59, 72
2, 52068, Note_on_c, 0, 64, 72
2, 52072, Note_on_c, 0, 67, 72
2, 52090, Note_on_c, 0, 40, 0
2, 52292, Note_on_c, 0, 59, 0
2, 52300, Note_on_c, 0, 64, 0
2, 52308, Note_on_c, 0, 67, 0
2, 52322, Note_on_c, 0, 40, 98
2, 52386, Note_on_c, 0, 40, 0
2, 52400, Note_on_c, 0, 59, 72
2, 52404, Note_on_c, 0, 64, 72
2, 52422, Note_on_c, 0, 40, 96
2, 52424, Note_on_c, 0, 59, 0
2, 52426, Note_on_c, 0, 64, 0
2, 52544, Note_on_c, 0, 59, 72
2, 52556, Note_on_c, 0, 64, 72
2, 52562, Note_on_c, 0, 67, 72
2, 52750, Note_on_c, 0, 40, 0
2, 52776, Note_on_c, 0, 59, 0
2, 52780, Note_on_c, 0, 64, 0
2, 52796, Note_on_c, 0, 67, 0
2, 52796, Note_on_c, 0, 43, 87
2, 52800, Note_on_c, 0, 50, 84
2, 52802, Note_on_c, 0, 55, 84
2, 53000, Note_on_c, 0, 43, 0
2, 53004, Note_on_c, 0, 50, 0
2, 53006, Note_on_c, 0, 55, 0
2, 53036, Note_on_c, 0, 43, 84
2, 53040, Note_on_c, 0, 50, 84
2, 53042, Note_on_c, 0, 55, 84
2, 53154, Note_on_c, 0, 43, 0
2, 53240, Note_on_c, 0, 50, 0
2, 53272, Note_on_c, 0, 55, 0
2, 53280, Note_on_c, 0, 45, 87
2, 53334, Note_on_c, 0, 52, 84
2, 53340, Note_on_c, 0, 57, 84
2, 53364, Note_on_c, 0, 45, 0
2, 53400, Note_on_c, 0, 45, 87
2, 53430, Note_on_c, 0, 52, 0
2, 53448, Note_on_c, 0, 57, 0
2, 53484, Note_on_c, 0, 45, 0
2, 53508, Note_on_c, 0, 45, 84
2, 53520, Note_on_c, 0, 57, 84
2, 53520, Note_on_c, 0, 52, 84
2, 53754, Note_on_c, 0, 45, 0
2, 53756, Note_on_c, 0, 52, 0
2, 53758, Note_on_c, 0, 57, 0
2, 53760, Note_on_c, 0, 40, 93
2, 53980, Note_on_c, 0, 59, 72
2, 53988, Note_on_c, 0, 64, 72
2, 53992, Note_on_c, 0, 67, 72
2, 54010, Note_on_c, 0, 40, 0
2, 54152, Note_on_c, 0, 59, 0
2, 54156, Note_on_c, 0, 64, 0
2, 54158, Note_on_c, 0, 67, 0
2, 54186, Note_on_c, 0, 59, 72
2, 54214, Note_on_c, 0, 59, 0
2, 54242, Note_on_c, 0, 40, 98
2, 54320, Note_on_c, 0, 59, 72
2, 54324, Note_on_c, 0, 40, 0
2, 54336, Note_on_c, 0, 59, 0
2, 54342, Note_on_c, 0, 40, 96
2, 54464, Note_on_c, 0, 59, 72
2, 54476, Note_on_c, 0, 64, 72
2, 54482, Note_on_c, 0, 67, 72
2, 54684, Note_on_c, 0, 40, 0
2, 54696, Note_on_c, 0, 59, 0
2, 54700, Note_on_c, 0, 64, 0
2, 54716, Note_on_c, 0, 67, 0
2, 54716, Note_on_c, 0, 43, 87
2, 54720, Note_on_c, 0, 50, 84
2, 54722, Note_on_c, 0, 55, 84
2, 54920, Note_on_c, 0, 43, 0
2, 54924, Note_on_c, 0, 50, 0
2, 54926, Note_on_c, 0, 55, 0
2, 54956, Note_on_c, 0, 43, 84
2, 54960, Note_on_c, 0, 50, 84
2, 54962, Note_on_c, 0, 55, 84
2, 55074, Note_on_c, 0, 43, 0
2, 55160, Note_on_c, 0, 50, 0
2, 55192, Note_on_c, 0, 55, 0
2, 55200, Note_on_c, 0, 45, 87
2, 55254, Note_on_c, 0, 52, 84
2, 55260, Note_on_c, 0, 57, 84
2, 55284, Note_on_c, 0, 45, 0
2, 55320, Note_on_c, 0, 45, 87
2, 55350, Note_on_c, 0, 52, 0
2, 55368, Note_on_c, 0, 57, 0
2, 55404, Note_on_c, 0, 45, 0
2, 55430, Note_on_c, 0, 45, 84
2, 55440, Note_on_c, 0, 52, 84
2, 55448, Note_on_c, 0, 57, 84
2, 55678, Note_on_c, 0, 45, 0
2, 55680, Note_on_c, 0, 52, 0
2, 55680, Note_on_c, 0, 57, 0
2, 55680, Note_on_c, 0, 40, 93
2, 55900, Note_on_c, 0, 59, 72
2, 55908, Note_on_c, 0, 64, 72
2, 55912, Note_on_c, 0, 67, 72
2, 55930, Note_on_c, 0, 40, 0
2, 56132, Note_on_c, 0, 59, 0
2, 56140, Note_on_c, 0, 64, 0
2, 56148, Note_on_c, 0, 67, 0
2, 56162, Note_on_c, 0, 40, 98
2, 56226, Note_on_c, 0, 40, 0
2, 56240, Note_on_c, 0, 59, 72
2, 56244, Note_on_c, 0, 64, 72
2, 56252, Note_on_c, 0, 59, 0
2, 56254, Note_on_c, 0, 64, 0
2, 56262, Note_on_c, 0, 40, 96
2, 56384, Note_on_c, 0, 59, 72
2, 56396, Note_on_c, 0, 64, 72
2, 56402, Note_on_c, 0, 67, 72
2, 56590, Note_on_c, 0, 40, 0
2, 56616, Note_on_c, 0, 59, 0
2, 56620, Note_on_c, 0, 64, 0
2, 56636, Note_on_c, 0, 67, 0
2, 56636, Note_on_c, 0, 43, 87
2, 56640, Note_on_c, 0, 50, 84
2, 56642, Note_on_c, 0, 55, 84
2, 56840, Note_on_c, 0, 43, 0
2, 56844, Note_on_c, 0, 50, 0
2, 56846, Note_on_c, 0, 55, 0
2, 56876, Note_on_c, 0, 43, 84
2, 56880, Note_on_c, 0, 50, 84
2, 56882, Note_on_c, 0, 55, 84
2, 56994, Note_on_c, 0, 43, 0
2, 57080, Note_on_c, 0, 50, 0
2, 57112, Note_on_c, 0, 55, 0
2, 57120, Note_on_c, 0, 45, 87
2, 57174, Note_on_c, 0, 52, 84
2, 57180, Note_on_c, 0, 57, 84
2, 57204, Note_on_c, 0, 45, 0
2, 57240, Note_on_c, 0, 45, 87
2, 57270, Note_on_c, 0, 52, 0
2, 57288, Note_on_c, 0, 57, 0
2, 57324, Note_on_c, 0, 45, 0
2, 57350, Note_on_c, 0, 45, 84
2, 57360, Note_on_c, 0, 52, 84
2, 57372, Note_on_c, 0, 57, 84
2, 57600, Note_on_c, 0, 45, 0
2, 57600, Note_on_c, 0, 52, 0
2, 57600, Note_on_c, 0, 57, 0
2, 57600, Note_on_c, 0, 40, 93
2, 57820, Note_on_c, 0, 59, 72
2, 57828, Note_on_c, 0, 64, 72
2, 57832, Note_on_c, 0, 67, 72
2, 57850, Note_on_c, 0, 40, 0
2, 58052, Note_on_c, 0, 59, 0
2, 58060, Note_on_c, 0, 64, 0
2, 58068, Note_on_c, 0, 67, 0
2, 58082, Note_on_c, 0, 40, 98
2, 58146, Note_on_c, 0, 40, 0
2, 58160, Note_on_c, 0, 59, 72
2, 58164, Note_on_c, 0, 64, 72
2, 58172, Note_on_c, 0, 59, 0
2, 58174, Note_on_c, 0, 64, 0
2, 58182, Note_on_c, 0, 40, 96
2, 58304, Note_on_c, 0, 59, 72
2, 58316, Note_on_c, 0, 64, 72
2, 58322, Note_on_c, 0, 67, 72
2, 58510, Note_on_c, 0, 40, 0
2, 58536, Note_on_c, 0, 59, 0
2, 58540, Note_on_c, 0, 64, 0
2, 58556, Note_on_c, 0, 67, 0
2, 58556, Note_on_c, 0, 43, 87
2, 58560, Note_on_c, 0, 50, 84
2, 58562, Note_on_c, 0, 55, 84
2, 58760, Note_on_c, 0, 43, 0
2, 58764, Note_on_c, 0, 50, 0
2, 58766, Note_on_c, 0, 55, 0
2, 58796, Note_on_c, 0, 43, 84
2, 58800, Note_on_c, 0, 50, 84
2, 58802, Note_on_c, 0, 55, 84
2, 58914, Note_on_c, 0, 43, 0
2, 59000, Note_on_c, 0, 50, 0
2, 59032, Note_on_c, 0, 55, 0
2, 59040, Note_on_c, 0, 45, 87
2, 59094, Note_on_c, 0, 52, 84
2, 59100, Note_on_c, 0, 57, 84
2, 59124, Note_on_c, 0, 45, 0
2, 59160, Note_on_c, 0, 45, 87
2, 59190, Note_on_c, 0, 52, 0
2, 59208, Note_on_c, 0, 57, 0
2, 59244, Note_on_c, 0, 45, 0
2, 59270, Note_on_c, 0, 45, 84
2, 59280, Note_on_c, 0, 52, 84
2, 59288, Note_on_c, 0, 57, 84
2, 59518, Note_on_c, 0, 45, 0
2, 59518, Note_on_c, 0, 52, 0
2, 59520, Note_on_c, 0, 57, 0
2, 59520, Note_on_c, 0, 40, 84
2, 59666, Note_on_c, 0, 40, 0
2, 60960, Note_on_c, 0, 54, 127
2, 61070, Note_on_c, 0, 54, 0
2, 61080, Note_on_c, 0, 52, 127
2, 61200, Note_on_c, 0, 50, 127
2, 61204, Note_on_c, 0, 52, 0
2, 61436, Note_on_c, 0, 50, 0
2, 61440, Note_on_c, 0, 57, 127
2, 61468, Pitch_bend_c, 0, 8712
2, 61472, Pitch_bend_c, 0, 9622
2, 61476, Pitch_bend_c, 0, 10402
2, 61480, Pitch_bend_c, 0, 11832
2, 61482, Pitch_bend_c, 0, 12872
2, 61486, Pitch_bend_c, 0, 13782
2, 61490, Pitch_bend_c, 0, 15212
2, 61492, Pitch_bend_c, 0, 15732
2, 61496, Pitch_bend_c, 0, 16252
2, 61500, Pitch_bend_c, 0, 16382
2, 61560, Note_on_c, 0, 60, 127
2, 61566, Note_on_c, 0, 57, 0
2, 61674, Control_c, 0, 1, 8
2, 61680, Control_c, 0, 1, 14
2, 61680, Note_on_c, 0, 65, 127
2, 61686, Control_c, 0, 1, 22
2, 61688, Note_on_c, 0, 60, 0
2, 61690, Control_c, 0, 1, 28
2, 61694, Control_c, 0, 1, 34
2, 61700, Control_c, 0, 1, 40
2, 61704, Control_c, 0, 1, 46
2, 61708, Control_c, 0, 1, 52
2, 61716, Control_c, 0, 1, 58
2, 61724, Control_c, 0, 1, 64
2, 61728, Control_c, 0, 1, 70
2, 61736, Control_c, 0, 1, 76
2, 61744, Control_c, 0, 1, 82
2, 61754, Control_c, 0, 1, 88
2, 61794, Control_c, 0, 1, 92
2, 61830, Control_c, 0, 1, 86
2, 61852, Note_on_c, 0, 65, 0
2, 61870, Control_c, 0, 1, 80
2, 61878, Pitch_bend_c, 0, 15732
2, 61880, Pitch_bend_c, 0, 15342
2, 61884, Pitch_bend_c, 0, 14822
2, 61888, Control_c, 0, 1, 74
2, 61888, Pitch_bend_c, 0, 13782
2, 61890, Pitch_bend_c, 0, 13002
2, 61894, Pitch_bend_c, 0, 11702
2, 61896, Control_c, 0, 1, 68
2, 61898, Pitch_bend_c, 0, 10662
2, 61902, Pitch_bend_c, 0, 9622
2, 61902, Control_c, 0, 1, 60
2, 61904, Pitch_bend_c, 0, 8972
2, 61906, Control_c, 0, 1, 54
2, 61908, Pitch_bend_c, 0, 8582
2, 61910, Control_c, 0, 1, 46
2, 61912, Pitch_bend_c, 0, 8192
2, 61914, Control_c, 0, 1, 38
2, 61916, Control_c, 0, 1, 30
2, 61920, Note_on_c, 0, 57, 127
2, 61920, Control_c, 0, 1, 20
2, 61924, Control_c, 0, 1, 6
2, 61930, Control_c, 0, 1, 0
2, 61936, Pitch_bend_c, 0, 8712
2, 61940, Pitch_bend_c, 0, 9362
2, 61942, Pitch_bend_c, 0, 10272
2, 61946, Pitch_bend_c, 0, 11702
2, 61950, Pitch_bend_c, 0, 13132
2, 61954, Pitch_bend_c, 0, 15342
2, 61956, Pitch_bend_c, 0, 15862
2, 61960, Pitch_bend_c, 0, 16252
2, 61964, Pitch_bend_c, 0, 16382
2, 62040, Note_on_c, 0, 60, 127
2, 62044, Note_on_c, 0, 57, 0
2, 62142, Control_c, 0, 1, 6
2, 62146, Control_c, 0, 1, 12
2, 62154, Control_c, 0, 1, 20
2, 62156, Control_c, 0, 1, 26
2, 62158, Note_on_c, 0, 60, 0
2, 62160, Note_on_c, 0, 65, 125
2, 62162, Control_c, 0, 1, 32
2, 62168, Control_c, 0, 1, 40
2, 62172, Control_c, 0, 1, 46
2, 62176, Control_c, 0, 1, 52
2, 62182, Control_c, 0, 1, 60
2, 62190, Control_c, 0, 1, 66
2, 62194, Control_c, 0, 1, 72
2, 62202, Control_c, 0, 1, 78
2, 62208, Control_c, 0, 1, 84
2, 62230, Control_c, 0, 1, 90
2, 62274, Control_c, 0, 1, 88
2, 62304, Control_c, 0, 1, 90
2, 62342, Control_c, 0, 1, 84
2, 62348, Control_c, 0, 1, 78
2, 62354, Control_c, 0, 1, 70
2, 62358, Control_c, 0, 1, 60
2, 62362, Note_on_c, 0, 65, 0
2, 62362, Control_c, 0, 1, 44
2, 62366, Control_c, 0, 1, 32
2, 62368, Control_c, 0, 1, 18
2, 62372, Control_c, 0, 1, 6
2, 62380, Control_c, 0, 1, 0
2, 62384, Pitch_bend_c, 0, 15732
2, 62388, Pitch_bend_c, 0, 14822
2, 62390, Pitch_bend_c, 0, 13262
2, 62394, Pitch_bend_c, 0, 10272
2, 62396, Pitch_bend_c, 0, 8712
2, 62398, Pitch_bend_c, 0, 8256
2, 62400, Note_on_c, 0, 57, 127
2, 62412, Pitch_bend_c, 0, 8576
2, 62416, Pitch_bend_c, 0, 8896
2, 62420, Pitch_bend_c, 0, 9280
2, 62424, Pitch_bend_c, 0, 9600
2, 62426, Pitch_bend_c, 0, 9984
2, 62430, Pitch_bend_c, 0, 10304
2, 62434, Pitch_bend_c, 0, 10752
2, 62436, Pitch_bend_c, 0, 11072
2, 62440, Pitch_bend_c, 0, 11392
2, 62444, Pitch_bend_c, 0, 11712
2, 62446, Pitch_bend_c, 0, 12096
2, 62450, Pitch_bend_c, 0, 12608
2, 62452, Pitch_bend_c, 0, 13120
2, 62456, Pitch_bend_c, 0, 13696
2, 62458, Pitch_bend_c, 0, 14528
2, 62460, Pitch_bend_c, 0, 15936
2, 62514, Note_on_c, 0, 57, 0
2, 62520, Note_on_c, 0, 60, 127
2, 62638, Note_on_c, 0, 60, 0
2, 62640, Note_on_c, 0, 65, 127
2, 62752, Pitch_bend_c, 0, 8256
2, 62758, Note_on_c, 0, 65, 0
2, 62760, Note_on_c, 0, 57, 127
2, 62824, Control_c, 0, 1, 2
2, 62826, Control_c, 0, 1, 8
2, 62830, Control_c, 0, 1, 14
2, 62832, Control_c, 0, 1, 20
2, 62836, Control_c, 0, 1, 28
2, 62840, Control_c, 0, 1, 34
2, 62844, Control_c, 0, 1, 42
2, 62854, Control_c, 0, 1, 48
2, 62890, Control_c, 0, 1, 54
2, 62920, Control_c, 0, 1, 60
2, 62930, Control_c, 0, 1, 62
2, 63138, Control_c, 0, 1, 56
2, 63146, Control_c, 0, 1, 50
2, 63150, Control_c, 0, 1, 44
2, 63152, Control_c, 0, 1, 38
2, 63156, Control_c, 0, 1, 16
2, 63158, Note_on_c, 0, 57, 0
2, 63160, Control_c, 0, 1, 8
2, 63164, Control_c, 0, 1, 0
2, 63360, Note_on_c, 0, 55, 123
2, 63470, Note_on_c, 0, 55, 0
2, 63480, Note_on_c, 0, 50, 127
2, 63576, Note_on_c, 0, 38, 90
2, 63612, Pitch_bend_c, 0, 8712
2, 63616, Pitch_bend_c, 0, 10012
2, 63620, Pitch_bend_c, 0, 10922
2, 63622, Pitch_bend_c, 0, 12352
2, 63626, Pitch_bend_c, 0, 13782
2, 63630, Pitch_bend_c, 0, 15602
2, 63632, Pitch_bend_c, 0, 15992
2, 63638, Pitch_bend_c, 0, 16382
2, 63668, Note_on_c, 0, 50, 0
2, 63712, Note_on_c, 0, 38, 0
2, 63714, Pitch_bend_c, 0, 15992
2, 63716, Pitch_bend_c, 0, 15472
2, 63720, Note_on_c, 0, 50, 127
2, 63720, Pitch_bend_c, 0, 13912
2, 63724, Pitch_bend_c, 0, 13002
2, 63726, Pitch_bend_c, 0, 11312
2, 63730, Pitch_bend_c, 0, 9882
2, 63734, Pitch_bend_c, 0, 9232
2, 63736, Pitch_bend_c, 0, 8712
2, 63742, Pitch_bend_c, 0, 8192
2, 63796, Pitch_bend_c, 0, 8582
2, 63798, Pitch_bend_c, 0, 10662
2, 63802, Pitch_bend_c, 0, 12352
2, 63804, Pitch_bend_c, 0, 14692
2, 63808, Pitch_bend_c, 0, 15472
2, 63810, Pitch_bend_c, 0, 16122
2, 63816, Pitch_bend_c, 0, 16382
2, 64002, Control_c, 0, 1, 6
2, 64010, Control_c, 0, 1, 14
2, 64014, Control_c, 0, 1, 20
2, 64018, Control_c, 0, 1, 26
2, 64030, Control_c, 0, 1, 32
2, 64042, Control_c, 0, 1, 38
2, 64048, Control_c, 0, 1, 44
2, 64060, Control_c, 0, 1, 50
2, 64074, Control_c, 0, 1, 52
2, 64190, Control_c, 0, 1, 46
2, 64194, Control_c, 0, 1, 40
2, 64198, Control_c, 0, 1, 34
2, 64202, Control_c, 0, 1, 24
2, 64208, Note_on_c, 0, 50, 0
2, 64208, Control_c, 0, 1, 12
2, 64212, Control_c, 0, 1, 2
2, 64212, Control_c, 0, 1, 0
2, 64320, Note_on_c, 0, 57, 127
2, 64332, Pitch_bend_c, 0, 8576
2, 64336, Pitch_bend_c, 0, 8896
2, 64340, Pitch_bend_c, 0, 9280
2, 64344, Pitch_bend_c, 0, 9600
2, 64346, Pitch_bend_c, 0, 9984
2, 64350, Pitch_bend_c, 0, 10304
2, 64354, Pitch_bend_c, 0, 10752
2, 64356, Pitch_bend_c, 0, 11072
2, 64360, Pitch_bend_c, 0, 11392
2, 64364, Pitch_bend_c, 0, 11712
2, 64366, Pitch_bend_c, 0, 12096
2, 64370, Pitch_bend_c, 0, 12608
2, 64372, Pitch_bend_c, 0, 13120
2, 64376, Pitch_bend_c, 0, 13696
2, 64378, Pitch_bend_c, 0, 14528
2, 64380, Pitch_bend_c, 0, 15936
2, 64438, Note_on_c, 0, 57, 0
2, 64440, Note_on_c, 0, 60, 127
2, 64560, Note_on_c, 0, 60, 0
2, 64560, Note_on_c, 0, 65, 127
2, 64670, Pitch_bend_c, 0, 15616
2, 64672, Pitch_bend_c, 0, 15104
2, 64674, Note_on_c, 0, 65, 0
2, 64676, Pitch_bend_c, 0, 14656
2, 64678, Pitch_bend_c, 0, 14144
2, 64680, Note_on_c, 0, 57, 127
2, 64682, Pitch_bend_c, 0, 13632
2, 64684, Pitch_bend_c, 0, 13184
2, 64688, Pitch_bend_c, 0, 12672
2, 64690, Pitch_bend_c, 0, 12288
2, 64694, Pitch_bend_c, 0, 11840
2, 64696, Pitch_bend_c, 0, 11456
2, 64700, Pitch_bend_c, 0, 11136
2, 64702, Pitch_bend_c, 0, 10624
2, 64706, Pitch_bend_c, 0, 10112
2, 64708, Pitch_bend_c, 0, 9792
2, 64712, Pitch_bend_c, 0, 9408
2, 64714, Pitch_bend_c, 0, 9024
2, 64718, Pitch_bend_c, 0, 8512
2, 64722, Pitch_bend_c, 0, 8256
2, 64746, Control_c, 0, 1, 8
2, 64750, Control_c, 0, 1, 14
2, 64752, Control_c, 0, 1, 20
2, 64756, Control_c, 0, 1, 28
2, 64760, Control_c, 0, 1, 34
2, 64764, Control_c, 0, 1, 42
2, 64774, Control_c, 0, 1, 48
2, 64810, Control_c, 0, 1, 54
2, 64840, Control_c, 0, 1, 60
2, 64850, Control_c, 0, 1, 62
2, 65058, Control_c, 0, 1, 56
2, 65066, Control_c, 0, 1, 50
2, 65070, Control_c, 0, 1, 44
2, 65072, Control_c, 0, 1, 38
2, 65076, Control_c, 0, 1, 16
2, 65078, Note_on_c, 0, 57, 0
2, 65080, Control_c, 0, 1, 8
2, 65084, Control_c, 0, 1, 0
2, 65280, Note_on_c, 0, 55, 123
2, 65390, Note_on_c, 0, 55, 0
2, 65400, Note_on_c, 0, 50, 127
2, 65502, Note_on_c, 0, 38, 90
2, 65532, Pitch_bend_c, 0, 8712
2, 65536, Pitch_bend_c, 0, 10012
2, 65540, Pitch_bend_c, 0, 10922
2, 65542, Pitch_bend_c, 0, 12352
2, 65546, Pitch_bend_c, 0, 13782
2, 65550, Pitch_bend_c, 0, 15602
2, 65552, Pitch_bend_c, 0, 15992
2, 65558, Pitch_bend_c, 0, 16382
2, 65608, Note_on_c, 0, 50, 0
2, 65634, Pitch_bend_c, 0, 15992
2, 65636, Pitch_bend_c, 0, 15472
2, 65640, Note_on_c, 0, 50, 127
2, 65640, Pitch_bend_c, 0, 13912
2, 65644, Pitch_bend_c, 0, 13002
2, 65646, Note_on_c, 0, 38, 0
2, 65646, Pitch_bend_c, 0, 11312
2, 65650, Pitch_bend_c, 0, 9882
2, 65654, Pitch_bend_c, 0, 9232
2, 65656, Pitch_bend_c, 0, 8712
2, 65662, Pitch_bend_c, 0, 8192
2, 65716, Pitch_bend_c, 0, 8582
2, 65718, Pitch_bend_c, 0, 10662
2, 65722, Pitch_bend_c, 0, 12352
2, 65724, Pitch_bend_c, 0, 14692
2, 65728, Pitch_bend_c, 0, 15472
2, 65730, Pitch_bend_c, 0, 16122
2, 65736, Pitch_bend_c, 0, 16382
2, 65922, Control_c, 0, 1, 6
2, 65930, Control_c, 0, 1, 14
2, 65934, Control_c, 0, 1, 20
2, 65938, Control_c, 0, 1, 26
2, 65950, Control_c, 0, 1, 32
2, 65962, Control_c, 0, 1, 38
2, 65968, Control_c, 0, 1, 44
2, 65980, Control_c, 0, 1, 50
2, 65994, Control_c, 0, 1, 52
2, 66000, Note_on_c, 0, 50, 0
2, 66000, Pitch_bend_c, 0, 8256
2, 66108, Note_on_c, 0, 50, 122
2, 66110, Control_c, 0, 1, 46
2, 66114, Control_c, 0, 1, 40
2, 66118, Control_c, 0, 1, 34
2, 66122, Control_c, 0, 1, 24
2, 66128, Control_c, 0, 1, 12
2, 66132, Pitch_bend_c, 0, 8582
2, 66132, Control_c, 0, 1, 2
2, 66132, Control_c, 0, 1, 0
2, 66134, Pitch_bend_c, 0, 9102
2, 66138, Pitch_bend_c, 0, 10272
2, 66142, Pitch_bend_c, 0, 11052
2, 66144, Pitch_bend_c, 0, 12612
2, 66150, Pitch_bend_c, 0, 14562
2, 66154, Pitch_bend_c, 0, 15862
2, 66158, Pitch_bend_c, 0, 16252
2, 66160, Pitch_bend_c, 0, 16382
2, 66214, Note_on_c, 0, 50, 0
2, 66220, Pitch_bend_c, 0, 15862
2, 66224, Pitch_bend_c, 0, 8256
2, 66224, Pitch_bend_c, 0, 13392
2, 66228, Pitch_bend_c, 0, 10532
2, 66230, Pitch_bend_c, 0, 8192
2, 66232, Pitch_bend_c, 0, 8064
2, 66234, Pitch_bend_c, 0, 8192
2, 66238, Pitch_bend_c, 0, 8582
2, 66240, Note_on_c, 0, 55, 113
2, 66240, Pitch_bend_c, 0, 8972
2, 66246, Pitch_bend_c, 0, 8452
2, 66246, Pitch_bend_c, 0, 8192
2, 66250, Pitch_bend_c, 0, 7936
2, 66256, Pitch_bend_c, 0, 8192
2, 66336, Note_on_c, 0, 55, 0
2, 66360, Note_on_c, 0, 57, 113
2, 66434, Note_on_c, 0, 57, 0
2, 66480, Note_on_c, 0, 59, 113
2, 66584, Note_on_c, 0, 59, 0
2, 66600, Note_on_c, 0, 53, 113
2, 66608, Pitch_bend_c, 0, 8712
2, 66612, Pitch_bend_c, 0, 9102
2, 66614, Pitch_bend_c, 0, 9622
2, 66618, Pitch_bend_c, 0, 10402
2, 66624, Pitch_bend_c, 0, 11312
2, 66628, Pitch_bend_c, 0, 12742
2, 66630, Pitch_bend_c, 0, 13522
2, 66634, Pitch_bend_c, 0, 14692
2, 66638, Pitch_bend_c, 0, 15472
2, 66640, Pitch_bend_c, 0, 15862
2, 66644, Pitch_bend_c, 0, 16252
2, 66646, Pitch_bend_c, 0, 16382
2, 66846, Pitch_bend_c, 0, 15992
2, 66848, Pitch_bend_c, 0, 15472
2, 66852, Pitch_bend_c, 0, 15082
2, 66856, Pitch_bend_c, 0, 14432
2, 66860, Pitch_bend_c, 0, 14042
2, 66864, Pitch_bend_c, 0, 13782
2, 66872, Pitch_bend_c, 0, 14172
2, 66878, Pitch_bend_c, 0, 15212
2, 66880, Pitch_bend_c, 0, 15732
2, 66884, Pitch_bend_c, 0, 16252
2, 66888, Pitch_bend_c, 0, 16382
2, 66906, Pitch_bend_c, 0, 15992
2, 66908, Pitch_bend_c, 0, 15602
2, 66912, Pitch_bend_c, 0, 14692
2, 66914, Pitch_bend_c, 0, 13912
2, 66918, Pitch_bend_c, 0, 13132
2, 66922, Pitch_bend_c, 0, 12742
2, 66924, Pitch_bend_c, 0, 12352
2, 66932, Pitch_bend_c, 0, 12872
2, 66936, Pitch_bend_c, 0, 13652
2, 66938, Pitch_bend_c, 0, 15212
2, 66942, Pitch_bend_c, 0, 15732
2, 66946, Pitch_bend_c, 0, 16252
2, 66950, Pitch_bend_c, 0, 16382
2, 66976, Pitch_bend_c, 0, 15732
2, 66980, Pitch_bend_c, 0, 15342
2, 66984, Pitch_bend_c, 0, 15082
2, 66992, Pitch_bend_c, 0, 15602
2, 66994, Pitch_bend_c, 0, 16122
2, 67000, Pitch_bend_c, 0, 16382
2, 67042, Pitch_bend_c, 0, 16252
2, 67046, Pitch_bend_c, 0, 16382
2, 67096, Pitch_bend_c, 0, 15992
2, 67100, Note_on_c, 0, 53, 0
2, 67106, Pitch_bend_c, 0, 16382
2, 67120, Pitch_bend_c, 0, 15992
2, 67124, Pitch_bend_c, 0, 13522
2, 67126, Pitch_bend_c, 0, 10532
2, 67130, Pitch_bend_c, 0, 7808
2, 67132, Pitch_bend_c, 0, 7552
2, 67136, Pitch_bend_c, 0, 7936
2, 67136, Pitch_bend_c, 0, 8192
2, 67140, Pitch_bend_c, 0, 8972
2, 67144, Pitch_bend_c, 0, 8582
2, 67146, Pitch_bend_c, 0, 8192
2, 67148, Pitch_bend_c, 0, 7808
2, 67156, Pitch_bend_c, 0, 8192
2, 67180, Note_on_c, 0, 53, 108
2, 67206, Pitch_bend_c, 0, 8712
2, 67210, Pitch_bend_c, 0, 9492
2, 67212, Pitch_bend_c, 0, 10402
2, 67216, Pitch_bend_c, 0, 11832
2, 67220, Pitch_bend_c, 0, 13002
2, 67222, Pitch_bend_c, 0, 14172
2, 67226, Pitch_bend_c, 0, 15472
2, 67228, Pitch_bend_c, 0, 15992
2, 67236, Pitch_bend_c, 0, 16382
2, 67314, Note_on_c, 0, 53, 0
2, 67320, Note_on_c, 0, 45, 122
2, 67322, Pitch_bend_c, 0, 14822
2, 67326, Pitch_bend_c, 0, 12742
2, 67330, Pitch_bend_c, 0, 8192
2, 67332, Pitch_bend_c, 0, 7296
2, 67336, Pitch_bend_c, 0, 7936
2, 67336, Pitch_bend_c, 0, 8192
2, 67340, Pitch_bend_c, 0, 8842
2, 67342, Pitch_bend_c, 0, 8972
2, 67346, Pitch_bend_c, 0, 8322
2, 67346, Pitch_bend_c, 0, 8192
2, 67350, Pitch_bend_c, 0, 7680
2, 67354, Pitch_bend_c, 0, 8064
2, 67356, Pitch_bend_c, 0, 8192
2, 67366, Pitch_bend_c, 0, 8064
2, 67368, Pitch_bend_c, 0, 8192
2, 67434, Note_on_c, 0, 45, 0
2, 67440, Note_on_c, 0, 40, 113
2, 67554, Note_on_c, 0, 40, 0
2, 67560, Note_on_c, 0, 43, 104
2, 67686, Pitch_bend_c, 0, 8582
2, 67694, Pitch_bend_c, 0, 8972
2, 67708, Pitch_bend_c, 0, 8582
2, 67714, Pitch_bend_c, 0, 8192
2, 67798, Pitch_bend_c, 0, 7808
2, 67802, Pitch_bend_c, 0, 7552
2, 67814, Pitch_bend_c, 0, 7936
2, 67818, Pitch_bend_c, 0, 8192
2, 67828, Pitch_bend_c, 0, 8582
2, 67832, Pitch_bend_c, 0, 9102
2, 67836, Pitch_bend_c, 0, 9622
2, 67838, Pitch_bend_c, 0, 10532
2, 67842, Pitch_bend_c, 0, 11052
2, 67844, Pitch_bend_c, 0, 11442
2, 67846, Pitch_bend_c, 0, 11572
2, 67856, Pitch_bend_c, 0, 11182
2, 67862, Pitch_bend_c, 0, 10662
2, 67864, Pitch_bend_c, 0, 10012
2, 67868, Pitch_bend_c, 0, 9622
2, 67870, Pitch_bend_c, 0, 9232
2, 67874, Pitch_bend_c, 0, 8842
2, 67878, Pitch_bend_c, 0, 8452
2, 67880, Pitch_bend_c, 0, 8322
2, 67892, Pitch_bend_c, 0, 8712
2, 67896, Pitch_bend_c, 0, 9492
2, 67898, Pitch_bend_c, 0, 9882
2, 67902, Pitch_bend_c, 0, 10792
2, 67906, Pitch_bend_c, 0, 11312
2, 67908, Pitch_bend_c, 0, 11832
2, 67912, Pitch_bend_c, 0, 12352
2, 67918, Pitch_bend_c, 0, 12612
2, 67924, Pitch_bend_c, 0, 12092
2, 67928, Pitch_bend_c, 0, 11702
2, 67932, Pitch_bend_c, 0, 11182
2, 67936, Pitch_bend_c, 0, 10792
2, 67938, Pitch_bend_c, 0, 9882
2, 67942, Pitch_bend_c, 0, 9492
2, 67944, Pitch_bend_c, 0, 9102
2, 67948, Pitch_bend_c, 0, 8712
2, 67954, Pitch_bend_c, 0, 8452
2, 67966, Pitch_bend_c, 0, 8842
2, 67970, Pitch_bend_c, 0, 10272
2, 67972, Pitch_bend_c, 0, 10662
2, 67976, Pitch_bend_c, 0, 11442
2, 67980, Pitch_bend_c, 0, 11832
2, 67982, Pitch_bend_c, 0, 12352
2, 67988, Pitch_bend_c, 0, 12612
2, 67998, Pitch_bend_c, 0, 12092
2, 68006, Pitch_bend_c, 0, 11572
2, 68008, Pitch_bend_c, 0, 11182
2, 68012, Pitch_bend_c, 0, 10792
2, 68016, Pitch_bend_c, 0, 9882
2, 68018, Pitch_bend_c, 0, 9492
2, 68020, Note_on_c, 0, 43, 0
2, 68022, Pitch_bend_c, 0, 8972
2, 68024, Pitch_bend_c, 0, 8582
2, 68030, Pitch_bend_c, 0, 8192
2, 68046, Note_on_c, 0, 45, 127
2, 68146, Note_on_c, 0, 45, 0
2, 68158, Note_on_c, 0, 45, 127
2, 68190, Pitch_bend_c, 0, 8842
2, 68192, Pitch_bend_c, 0, 9362
2, 68196, Pitch_bend_c, 0, 10922
2, 68198, Pitch_bend_c, 0, 11702
2, 68202, Pitch_bend_c, 0, 13522
2, 68206, Pitch_bend_c, 0, 14562
2, 68210, Pitch_bend_c, 0, 15862
2, 68212, Pitch_bend_c, 0, 16252
2, 68216, Pitch_bend_c, 0, 16382
2, 68254, Note_on_c, 0, 45, 0
2, 68284, Note_on_c, 0, 53, 122
2, 68370, Pitch_bend_c, 0, 15992
2, 68374, Pitch_bend_c, 0, 15212
2, 68378, Pitch_bend_c, 0, 14692
2, 68380, Pitch_bend_c, 0, 13002
2, 68384, Pitch_bend_c, 0, 11702
2, 68388, Pitch_bend_c, 0, 9752
2, 68390, Pitch_bend_c, 0, 9362
2, 68392, Note_on_c, 0, 53, 0
2, 68394, Pitch_bend_c, 0, 8582
2, 68396, Note_on_c, 0, 57, 122
2, 68398, Pitch_bend_c, 0, 8192
2, 68422, Pitch_bend_c, 0, 8582
2, 68424, Pitch_bend_c, 0, 9752
2, 68428, Pitch_bend_c, 0, 10662
2, 68430, Pitch_bend_c, 0, 12092
2, 68434, Pitch_bend_c, 0, 13912
2, 68438, Pitch_bend_c, 0, 15732
2, 68442, Pitch_bend_c, 0, 16122
2, 68444, Pitch_bend_c, 0, 16382
2, 68498, Pitch_bend_c, 0, 15992
2, 68500, Pitch_bend_c, 0, 15472
2, 68504, Pitch_bend_c, 0, 13652
2, 68508, Pitch_bend_c, 0, 11702
2, 68512, Note_on_c, 0, 57, 0
2, 68512, Pitch_bend_c, 0, 10012
2, 68516, Pitch_bend_c, 0, 9102
2, 68518, Pitch_bend_c, 0, 8192
2, 68518, Note_on_c, 0, 55, 125
2, 68524, Pitch_bend_c, 0, 7680
2, 68528, Pitch_bend_c, 0, 7296
2, 68530, Pitch_bend_c, 0, 7168
2, 68538, Pitch_bend_c, 0, 7552
2, 68542, Pitch_bend_c, 0, 7936
2, 68548, Pitch_bend_c, 0, 8192
2, 68552, Pitch_bend_c, 0, 8582
2, 68556, Pitch_bend_c, 0, 9752
2, 68558, Pitch_bend_c, 0, 11052
2, 68562, Pitch_bend_c, 0, 11962
2, 68564, Pitch_bend_c, 0, 14172
2, 68568, Pitch_bend_c, 0, 15212
2, 68570, Pitch_bend_c, 0, 15992
2, 68576, Pitch_bend_c, 0, 16382
2, 68708, Control_c, 0, 1, 6
2, 68716, Control_c, 0, 1, 12
2, 68726, Control_c, 0, 1, 18
2, 68740, Control_c, 0, 1, 26
2, 68754, Control_c, 0, 1, 32
2, 68772, Control_c, 0, 1, 38
2, 68788, Control_c, 0, 1, 44
2, 68802, Control_c, 0, 1, 50
2, 68836, Control_c, 0, 1, 56
2, 68850, Control_c, 0, 1, 62
2, 68870, Control_c, 0, 1, 68
2, 68874, Note_on_c, 0, 55, 0
2, 68880, Control_c, 0, 1, 1
2, 68880, Pitch_bend_c, 0, 8256
2, 68884, Note_on_c, 0, 55, 127
2, 68996, Note_on_c, 0, 55, 0
2, 68998, Note_on_c, 0, 50, 127
2, 69116, Note_on_c, 0, 57, 125
2, 69118, Note_on_c, 0, 50, 0
2, 69160, Pitch_bend_c, 0, 8712
2, 69162, Pitch_bend_c, 0, 9232
2, 69166, Pitch_bend_c, 0, 9752
2, 69170, Pitch_bend_c, 0, 11052
2, 69172, Pitch_bend_c, 0, 11962
2, 69176, Pitch_bend_c, 0, 13652
2, 69178, Pitch_bend_c, 0, 14952
2, 69186, Pitch_bend_c, 0, 15602
2, 69190, Pitch_bend_c, 0, 16382
2, 69238, Note_on_c, 0, 57, 0
2, 69250, Note_on_c, 0, 60, 126
2, 69318, Note_on_c, 0, 60, 0
2, 69368, Note_on_c, 0, 60, 127
2, 69448, Note_on_c, 0, 60, 0
2, 69466, Pitch_bend_c, 0, 15992
2, 69468, Pitch_bend_c, 0, 15472
2, 69472, Pitch_bend_c, 0, 14692
2, 69476, Pitch_bend_c, 0, 14042
2, 69478, Pitch_bend_c, 0, 13002
2, 69482, Pitch_bend_c, 0, 12352
2, 69486, Pitch_bend_c, 0, 10792
2, 69490, Pitch_bend_c, 0, 9882
2, 69492, Pitch_bend_c, 0, 9362
2, 69492, Note_on_c, 0, 62, 127
2, 69496, Pitch_bend_c, 0, 8972
2, 69500, Pitch_bend_c, 0, 8452
2, 69502, Pitch_bend_c, 0, 8192
2, 69534, Pitch_bend_c, 0, 8582
2, 69538, Pitch_bend_c, 0, 9102
2, 69540, Pitch_bend_c, 0, 10272
2, 69546, Pitch_bend_c, 0, 11442
2, 69550, Pitch_bend_c, 0, 13262
2, 69552, Pitch_bend_c, 0, 14172
2, 69556, Pitch_bend_c, 0, 15082
2, 69560, Pitch_bend_c, 0, 15862
2, 69564, Pitch_bend_c, 0, 16252
2, 69566, Pitch_bend_c, 0, 16382
2, 69642, Control_c, 0, 1, 6
2, 69648, Control_c, 0, 1, 12
2, 69652, Control_c, 0, 1, 18
2, 69660, Control_c, 0, 1, 24
2, 69666, Control_c, 0, 1, 30
2, 69672, Control_c, 0, 1, 36
2, 69682, Control_c, 0, 1, 42
2, 69690, Control_c, 0, 1, 48
2, 69698, Control_c, 0, 1, 54
2, 69706, Control_c, 0, 1, 60
2, 69716, Control_c, 0, 1, 66
2, 69748, Control_c, 0, 1, 72
2, 69836, Note_on_c, 0, 62, 0
2, 69840, Control_c, 0, 1, 0
2, 69846, Pitch_bend_c, 0, 8322
2, 69848, Pitch_bend_c, 0, 8712
2, 69852, Pitch_bend_c, 0, 9102
2, 69852, Note_on_c, 0, 50, 91
2, 69854, Pitch_bend_c, 0, 9752
2, 69858, Pitch_bend_c, 0, 10792
2, 69862, Pitch_bend_c, 0, 11702
2, 69866, Pitch_bend_c, 0, 13132
2, 69870, Pitch_bend_c, 0, 13782
2, 69874, Pitch_bend_c, 0, 15472
2, 69876, Pitch_bend_c, 0, 16122
2, 69880, Pitch_bend_c, 0, 16382
2, 69972, Note_on_c, 0, 45, 90
2, 69978, Note_on_c, 0, 50, 0
2, 69980, Pitch_bend_c, 0, 15992
2, 69982, Pitch_bend_c, 0, 15602
2, 69986, Pitch_bend_c, 0, 14692
2, 69990, Pitch_bend_c, 0, 14042
2, 69992, Pitch_bend_c, 0, 13782
2, 69992, Pitch_bend_c, 0, 16252
2, 69994, Pitch_bend_c, 0, 13132
2, 69994, Pitch_bend_c, 0, 15992
2, 69994, Pitch_bend_c, 0, 12742
2, 69996, Pitch_bend_c, 0, 15732
2, 69996, Pitch_bend_c, 0, 12352
2, 69998, Pitch_bend_c, 0, 14952
2, 69998, Pitch_bend_c, 0, 11832
2, 70000, Pitch_bend_c, 0, 14562
2, 70000, Pitch_bend_c, 0, 11442
2, 70000, Pitch_bend_c, 0, 14042
2, 70002, Pitch_bend_c, 0, 10012
2, 70004, Pitch_bend_c, 0, 13262
2, 70004, Pitch_bend_c, 0, 9752
2, 70004, Pitch_bend_c, 0, 13002
2, 70006, Pitch_bend_c, 0, 9492
2, 70006, Pitch_bend_c, 0, 11962
2, 70008, Pitch_bend_c, 0, 9232
2, 70008, Pitch_bend_c, 0, 11052
2, 70008, Pitch_bend_c, 0, 9102
2, 70010, Pitch_bend_c, 0, 10662
2, 70010, Pitch_bend_c, 0, 8712
2, 70012, Pitch_bend_c, 0, 10272
2, 70012, Pitch_bend_c, 0, 8582
2, 70014, Pitch_bend_c, 0, 9362
2, 70014, Pitch_bend_c, 0, 8452
2, 70016, Pitch_bend_c, 0, 9102
2, 70016, Pitch_bend_c, 0, 8322
2, 70016, Pitch_bend_c, 0, 8842
2, 70018, Pitch_bend_c, 0, 8192
2, 70024, Pitch_bend_c, 0, 7680
2, 70028, Pitch_bend_c, 0, 6272
2, 70032, Pitch_bend_c, 0, 5120
2, 70034, Pitch_bend_c, 0, 4096
2, 70038, Pitch_bend_c, 0, 3328
2, 70042, Pitch_bend_c, 0, 2048
2, 70046, Pitch_bend_c, 0, 896
2, 70050, Pitch_bend_c, 0, 128
2, 70050, Pitch_bend_c, 0, 0
2, 70078, Note_on_c, 0, 45, 0
2, 70078, Pitch_bend_c, 0, 8256
2, 70080, Note_on_c, 0, 40, 93
2, 70300, Note_on_c, 0, 59, 72
2, 70308, Note_on_c, 0, 64, 72
2, 70312, Note_on_c, 0, 67, 72
2, 70330, Note_on_c, 0, 40, 0
2, 70472, Note_on_c, 0, 59, 0
2, 70476, Note_on_c, 0, 64, 0
2, 70478, Note_on_c, 0, 67, 0
2, 70506, Note_on_c, 0, 59, 72
2, 70510, Note_on_c, 0, 64, 72
2, 70510, Note_on_c, 0, 67, 72
2, 70534, Note_on_c, 0, 59, 0
2, 70534, Note_on_c, 0, 64, 0
2, 70544, Note_on_c, 0, 67, 0
2, 70562, Note_on_c, 0, 40, 98
2, 70596, Note_on_c, 0, 40, 0
2, 70640, Note_on_c, 0, 59, 72
2, 70644, Note_on_c, 0, 64, 72
2, 70646, Note_on_c, 0, 67, 72
2, 70656, Note_on_c, 0, 59, 0
2, 70658, Note_on_c, 0, 64, 0
2, 70662, Note_on_c, 0, 40, 96
2, 70670, Note_on_c, 0, 67, 0
2, 70784, Note_on_c, 0, 59, 72
2, 70796, Note_on_c, 0, 64, 72
2, 70802, Note_on_c, 0, 67, 72
2, 70810, Note_on_c, 0, 40, 0
2, 71016, Note_on_c, 0, 59, 0
2, 71020, Note_on_c, 0, 64, 0
2, 71036, Note_on_c, 0, 67, 0
2, 71036, Note_on_c, 0, 43, 87
2, 71040, Note_on_c, 0, 50, 84
2, 71042, Note_on_c, 0, 55, 84
2, 71240, Note_on_c, 0, 43, 0
2, 71244, Note_on_c, 0, 50, 0
2, 71246, Note_on_c, 0, 55, 0
2, 71276, Note_on_c, 0, 43, 84
2, 71280, Note_on_c, 0, 50, 84
2, 71282, Note_on_c, 0, 55, 84
2, 71394, Note_on_c, 0, 43, 0
2, 71480, Note_on_c, 0, 50, 0
2, 71512, Note_on_c, 0, 55, 0
2, 71520, Note_on_c, 0, 45, 87
2, 71574, Note_on_c, 0, 52, 84
2, 71580, Note_on_c, 0, 57, 84
2, 71604, Note_on_c, 0, 45, 0
2, 71640, Note_on_c, 0, 45, 87
2, 71670, Note_on_c, 0, 52, 0
2, 71688, Note_on_c, 0, 57, 0
2, 71724, Note_on_c, 0, 45, 0
2, 71750, Note_on_c, 0, 45, 84
2, 71760, Note_on_c, 0, 52, 84
2, 71772, Note_on_c, 0, 57, 84
2, 71996, Note_on_c, 0, 52, 0
2, 71998, Note_on_c, 0, 45, 0
2, 72000, Note_on_c, 0, 57, 0
2, 72000, Note_on_c, 0, 40, 93
2, 72220, Note_on_c, 0, 59, 72
2, 72228, Note_on_c, 0, 64, 72
2, 72232, Note_on_c, 0, 67, 72
2, 72250, Note_on_c, 0, 40, 0
2, 72452, Note_on_c, 0, 59, 0
2, 72460, Note_on_c, 0, 64, 0
2, 72468, Note_on_c, 0, 67, 0
2, 72482, Note_on_c, 0, 40, 98
2, 72546, Note_on_c, 0, 40, 0
2, 72560, Note_on_c, 0, 59, 72
2, 72564, Note_on_c, 0, 64, 72
2, 72582, Note_on_c, 0, 40, 96
2, 72584, Note_on_c, 0, 59, 0
2, 72586, Note_on_c, 0, 64, 0
2, 72704, Note_on_c, 0, 59, 72
2, 72716, Note_on_c, 0, 64, 72
2, 72722, Note_on_c, 0, 67, 72
2, 72910, Note_on_c, 0, 40, 0
2, 72936, Note_on_c, 0, 59, 0
2, 72940, Note_on_c, 0, 64, 0
2, 72956, Note_on_c, 0, 67, 0
2, 72956, Note_on_c, 0, 43, 87
2, 72960, Note_on_c, 0, 50, 84
2, 72962, Note_on_c, 0, 55, 84
2, 73160, Note_on_c, 0, 43, 0
2, 73164, Note_on_c, 0, 50, 0
2, 73166, Note_on_c, 0, 55, 0
2, 73196, Note_on_c, 0, 43, 84
2, 73200, Note_on_c, 0, 50, 84
2, 73202, Note_on_c, 0, 55, 84
2, 73314, Note_on_c, 0, 43, 0
2, 73400, Note_on_c, 0, 50, 0
2, 73432, Note_on_c, 0, 55, 0
2, 73440, Note_on_c, 0, 45, 87
2, 73494, Note_on_c, 0, 52, 84
2, 73500, Note_on_c, 0, 57, 84
2, 73524, Note_on_c, 0, 45, 0
2, 73560, Note_on_c, 0, 45, 87
2, 73590, Note_on_c, 0, 52, 0
2, 73608, Note_on_c, 0, 57, 0
2, 73644, Note_on_c, 0, 45, 0
2, 73668, Note_on_c, 0, 45, 84
2, 73680, Note_on_c, 0, 57, 84
2, 73680, Note_on_c, 0, 52, 84
2, 73914, Note_on_c, 0, 45, 0
2, 73916, Note_on_c, 0, 52, 0
2, 73918, Note_on_c, 0, 57, 0
2, 73920, Note_on_c, 0, 40, 93
2, 74140, Note_on_c, 0, 59, 72
2, 74148, Note_on_c, 0, 64, 72
2, 74152, Note_on_c, 0, 67, 72
2, 74170, Note_on_c, 0, 40, 0
2, 74312, Note_on_c, 0, 59, 0
2, 74316, Note_on_c, 0, 64, 0
2, 74318, Note_on_c, 0, 67, 0
2, 74346, Note_on_c, 0, 59, 72
2, 74374, Note_on_c, 0, 59, 0
2, 74402, Note_on_c, 0, 40, 98
2, 74480, Note_on_c, 0, 59, 72
2, 74484, Note_on_c, 0, 40, 0
2, 74496, Note_on_c, 0, 59, 0
2, 74502, Note_on_c, 0, 40, 96
2, 74624, Note_on_c, 0, 59, 72
2, 74636, Note_on_c, 0, 64, 72
2, 74642, Note_on_c, 0, 67, 72
2, 74844, Note_on_c, 0, 40, 0
2, 74856, Note_on_c, 0, 59, 0
2, 74860, Note_on_c, 0, 64, 0
2, 74876, Note_on_c, 0, 67, 0
2, 74876, Note_on_c, 0, 43, 87
2, 74880, Note_on_c, 0, 50, 84
2, 74882, Note_on_c, 0, 55, 84
2, 75080, Note_on_c, 0, 43, 0
2, 75084, Note_on_c, 0, 50, 0
2, 75086, Note_on_c, 0, 55, 0
2, 75116, Note_on_c, 0, 43, 84
2, 75120, Note_on_c, 0, 50, 84
2, 75122, Note_on_c, 0, 55, 84
2, 75234, Note_on_c, 0, 43, 0
2, 75320, Note_on_c, 0, 50, 0
2, 75352, Note_on_c, 0, 55, 0
2, 75360, Note_on_c, 0, 45, 87
2, 75414, Note_on_c, 0, 52, 84
2, 75420, Note_on_c, 0, 57, 84
2, 75444, Note_on_c, 0, 45, 0
2, 75480, Note_on_c, 0, 45, 87
2, 75510, Note_on_c, 0, 52, 0
2, 75528, Note_on_c, 0, 57, 0
2, 75564, Note_on_c, 0, 45, 0
2, 75590, Note_on_c, 0, 45, 84
2, 75600, Note_on_c, 0, 52, 84
2, 75608, Note_on_c, 0, 57, 84
2, 75838, Note_on_c, 0, 45, 0
2, 75840, Note_on_c, 0, 52, 0
2, 75840, Note_on_c, 0, 57, 0
2, 75840, Note_on_c, 0, 40, 93
2, 76060, Note_on_c, 0, 59, 72
2, 76068, Note_on_c, 0, 64, 72
2, 76072, Note_on_c, 0, 67, 72
2, 76090, Note_on_c, 0, 40, 0
2, 76292, Note_on_c, 0, 59, 0
2, 76300, Note_on_c, 0, 64, 0
2, 76308, Note_on_c, 0, 67, 0
2, 76322, Note_on_c, 0, 40, 98
2, 76386, Note_on_c, 0, 40, 0
2, 76400, Note_on_c, 0, 59, 72
2, 76404, Note_on_c, 0, 64, 72
2, 76412, Note_on_c, 0, 59, 0
2, 76414, Note_on_c, 0, 64, 0
2, 76422, Note_on_c, 0, 40, 96
2, 76544, Note_on_c, 0, 59, 72
2, 76556, Note_on_c, 0, 64, 72
2, 76562, Note_on_c, 0, 67, 72
2, 76750, Note_on_c, 0, 40, 0
2, 76776, Note_on_c, 0, 59, 0
2, 76780, Note_on_c, 0, 64, 0
2, 76796, Note_on_c, 0, 67, 0
2, 76796, Note_on_c, 0, 43, 87
2, 76800, Note_on_c, 0, 50, 84
2, 76802, Note_on_c, 0, 55, 84
2, 77000, Note_on_c, 0, 43, 0
2, 77004, Note_on_c, 0, 50, 0
2, 77006, Note_on_c, 0, 55, 0
2, 77036, Note_on_c, 0, 43, 84
2, 77040, Note_on_c, 0, 50, 84
2, 77042, Note_on_c, 0, 55, 84
2, 77154, Note_on_c, 0, 43, 0
2, 77240, Note_on_c, 0, 50, 0
2, 77272, Note_on_c, 0, 55, 0
2, 77280, Note_on_c, 0, 45, 87
2, 77334, Note_on_c, 0, 52, 84
2, 77340, Note_on_c, 0, 57, 84
2, 77364, Note_on_c, 0, 45, 0
2, 77400, Note_on_c, 0, 45, 87
2, 77430, Note_on_c, 0, 52, 0
2, 77448, Note_on_c, 0, 57, 0
2, 77484, Note_on_c, 0, 45, 0
2, 77510, Note_on_c, 0, 45, 84
2, 77520, Note_on_c, 0, 52, 84
2, 77532, Note_on_c, 0, 57, 84
2, 77760, Note_on_c, 0, 45, 0
2, 77760, Note_on_c, 0, 52, 0
2, 77760, Note_on_c, 0, 57, 0
2, 77760, Note_on_c, 0, 40, 93
2, 77980, Note_on_c, 0, 59, 72
2, 77988, Note_on_c, 0, 64, 72
2, 77992, Note_on_c, 0, 67, 72
2, 78010, Note_on_c, 0, 40, 0
2, 78212, Note_on_c, 0, 59, 0
2, 78220, Note_on_c, 0, 64, 0
2, 78228, Note_on_c, 0, 67, 0
2, 78242, Note_on_c, 0, 40, 98
2, 78306, Note_on_c, 0, 40, 0
2, 78320, Note_on_c, 0, 59, 72
2, 78324, Note_on_c, 0, 64, 72
2, 78332, Note_on_c, 0, 59, 0
2, 78334, Note_on_c, 0, 64, 0
2, 78342, Note_on_c, 0, 40, 96
2, 78464, Note_on_c, 0, 59, 72
2, 78476, Note_on_c, 0, 64, 72
2, 78482, Note_on_c, 0, 67, 72
2, 78670, Note_on_c, 0, 40, 0
2, 78696, Note_on_c, 0, 59, 0
2, 78700, Note_on_c, 0, 64, 0
2, 78716, Note_on_c, 0, 67, 0
2, 78716, Note_on_c, 0, 43, 87
2, 78720, Note_on_c, 0, 50, 84
2, 78722, Note_on_c, 0, 55, 84
2, 78920, Note_on_c, 0, 43, 0
2, 78924, Note_on_c, 0, 50, 0
2, 78926, Note_on_c, 0, 55, 0
2, 78956, Note_on_c, 0, 43, 84
2, 78960, Note_on_c, 0, 50, 84
2, 78962, Note_on_c, 0, 55, 84
2, 79074, Note_on_c, 0, 43, 0
2, 79160, Note_on_c, 0, 50, 0
2, 79192, Note_on_c, 0, 55, 0
2, 79200, Note_on_c, 0, 45, 87
2, 79254, Note_on_c, 0, 52, 84
2, 79260, Note_on_c, 0, 57, 84
2, 79284, Note_on_c, 0, 45, 0
2, 79320, Note_on_c, 0, 45, 87
2, 79350, Note_on_c, 0, 52, 0
2, 79368, Note_on_c, 0, 57, 0
2, 79404, Note_on_c, 0, 45, 0
2, 79430, Note_on_c, 0, 45, 84
2, 79440, Note_on_c, 0, 52, 84
2, 79448, Note_on_c, 0, 57, 84
2, 79678, Note_on_c, 0, 45, 0
2, 79678, Note_on_c, 0, 52, 0
2, 79680, Note_on_c, 0, 57, 0
2, 79680, Note_on_c, 0, 40, 84
2, 79826, Note_on_c, 0, 40, 0
2, 81120, Note_on_c, 0, 54, 127
2, 81230, Note_on_c, 0, 54, 0
2, 81240, Note_on_c, 0, 52, 127
2, 81360, Note_on_c, 0, 50, 127
2, 81364, Note_on_c, 0, 52, 0
2, 81596, Note_on_c, 0, 50, 0
2, 81600, Note_on_c, 0, 57, 127
2, 81628, Pitch_bend_c, 0, 8712
2, 81632, Pitch_bend_c, 0, 9622
2, 81636, Pitch_bend_c, 0, 10402
2, 81640, Pitch_bend_c, 0, 11832
2, 81642, Pitch_bend_c, 0, 12872
2, 81646, Pitch_bend_c, 0, 13782
2, 81650, Pitch_bend_c, 0, 15212
2, 81652, Pitch_bend_c, 0, 15732
2, 81656, Pitch_bend_c, 0, 16252
2, 81660, Pitch_bend_c, 0, 16382
2, 81720, Note_on_c, 0, 60, 127
2, 81726, Note_on_c, 0, 57, 0
2, 81834, Control_c, 0, 1, 8
2, 81840, Control_c, 0, 1, 14
2, 81840, Note_on_c, 0, 65, 127
2, 81846, Control_c, 0, 1, 22
2, 81848, Note_on_c, 0, 60, 0
2, 81850, Control_c, 0, 1, 28
2, 81854, Control_c, 0, 1, 34
2, 81860, Control_c, 0, 1, 40
2, 81864, Control_c, 0, 1, 46
2, 81868, Control_c, 0, 1, 52
2, 81876, Control_c, 0, 1, 58
2, 81884, Control_c, 0, 1, 64
2, 81888, Control_c, 0, 1, 70
2, 81896, Control_c, 0, 1, 76
2, 81904, Control_c, 0, 1, 82
2, 81914, Control_c, 0, 1, 88
2, 81954, Control_c, 0, 1, 92
2, 81990, Control_c, 0, 1, 86
2, 82012, Note_on_c, 0, 65, 0
2, 82030, Control_c, 0, 1, 80
2, 82038, Pitch_bend_c, 0, 15732
2, 82040, Pitch_bend_c, 0, 15342
2, 82044, Pitch_bend_c, 0, 14822
2, 82048, Control_c, 0, 1, 74
2, 82048, Pitch_bend_c, 0, 13782
2, 82050, Pitch_bend_c, 0, 13002
2, 82054, Pitch_bend_c, 0, 11702
2, 82056, Control_c, 0, 1, 68
2, 82058, Pitch_bend_c, 0, 10662
2, 82062, Pitch_bend_c, 0, 9622
2, 82062, Control_c, 0, 1, 60
2, 82064, Pitch_bend_c, 0, 8972
2, 82066, Control_c, 0, 1, 54
2, 82068, Pitch_bend_c, 0, 8582
2, 82070, Control_c, 0, 1, 46
2, 82072, Pitch_bend_c, 0, 8192
2, 82074, Control_c, 0, 1, 38
2, 82076, Control_c, 0, 1, 30
2, 82080, Note_on_c, 0, 57, 127
2, 82080, Control_c, 0, 1, 20
2, 82084, Control_c, 0, 1, 6
2, 82090, Control_c, 0, 1, 0
2, 82096, Pitch_bend_c, 0, 8712
2, 82100, Pitch_bend_c, 0, 9362
2, 82102, Pitch_bend_c, 0, 10272
2, 82106, Pitch_bend_c, 0, 11702
2, 82110, Pitch_bend_c, 0, 13132
2, 82114, Pitch_bend_c, 0, 15342
2, 82116, Pitch_bend_c, 0, 15862
2, 82120, Pitch_bend_c, 0, 16252
2, 82124, Pitch_bend_c, 0, 16382
2, 82200, Note_on_c, 0, 60, 127
2, 82204, Note_on_c, 0, 57, 0
2, 82302, Control_c, 0, 1, 6
2, 82306, Control_c, 0, 1, 12
2, 82314, Control_c, 0, 1, 20
2, 82316, Control_c, 0, 1, 26
2, 82318, Note_on_c, 0, 60, 0
2, 82320, Note_on_c, 0, 65, 125
2, 82322, Control_c, 0, 1, 32
2, 82328, Control_c, 0, 1, 40
2, 82332, Control_c, 0, 1, 46
2, 82336, Control_c, 0, 1, 52
2, 82342, Control_c, 0, 1, 60
2, 82350, Control_c, 0, 1, 66
2, 82354, Control_c, 0, 1, 72
2, 82362, Control_c, 0, 1, 78
2, 82368, Control_c, 0, 1, 84
2, 82390, Control_c, 0, 1, 90
2, 82434, Control_c, 0, 1, 88
2, 82464, Control_c, 0, 1, 90
2, 82502, Control_c, 0, 1, 84
2, 82508, Control_c, 0, 1, 78
2, 82514, Control_c, 0, 1, 70
2, 82518, Control_c, 0, 1, 60
2, 82522, Note_on_c, 0, 65, 0
2, 82522, Control_c, 0, 1, 44
2, 82526, Control_c, 0, 1, 32
2, 82528, Control_c, 0, 1, 18
2, 82532, Control_c, 0, 1, 6
2, 82540, Control_c, 0, 1, 0
2, 82544, Pitch_bend_c, 0, 15732
2, 82548, Pitch_bend_c, 0, 14822
2, 82550, Pitch_bend_c, 0, 13262
2, 82554, Pitch_bend_c, 0, 10272
2, 82556, Pitch_bend_c, 0, 8712
2, 82558, Pitch_bend_c, 0, 8256
2, 82558, End_track
3, 0, Start_track
3, 0, Title_t, "2"
3, 0, Program_c, 1, 34
3, 0, Control_c, 1, 7, 120
3, 0, Note_on_c, 1, 40, 127
3, 102, Note_on_c, 1, 40, 0
3, 240, Note_on_c, 1, 52, 127
3, 376, Note_on_c, 1, 52, 0
3, 480, Note_on_c, 1, 40, 127
3, 600, Note_on_c, 1, 40, 0
3, 720, Note_on_c, 1, 52, 127
3, 848, Note_on_c, 1, 52, 0
3, 960, Note_on_c, 1, 40, 127
3, 1060, Note_on_c, 1, 40, 0
3, 1200, Note_on_c, 1, 52, 127
3, 1314, Note_on_c, 1, 52, 0
3, 1440, Note_on_c, 1, 40, 127
3, 1556, Note_on_c, 1, 40, 0
3, 1680, Note_on_c, 1, 52, 127
3, 1772, Note_on_c, 1, 52, 0
3, 1920, Note_on_c, 1, 40, 127
3, 2026, Note_on_c, 1, 40, 0
3, 2160, Note_on_c, 1, 52, 127
3, 2270, Note_on_c, 1, 52, 0
3, 2400, Note_on_c, 1, 40, 127
3, 2512, Note_on_c, 1, 40, 0
3, 2640, Note_on_c, 1, 52, 127
3, 2752, Note_on_c, 1, 52, 0
3, 2880, Note_on_c, 1, 40, 127
3, 2980, Note_on_c, 1, 40, 0
3, 3120, Note_on_c, 1, 52, 127
3, 3196, Note_on_c, 1, 52, 0
3, 3360, Note_on_c, 1, 40, 127
3, 3436, Note_on_c, 1, 40, 0
3, 3600, Note_on_c, 1, 52, 127
3, 3702, Note_on_c, 1, 52, 0
3, 3840, Note_on_c, 1, 40, 127
3, 3956, Note_on_c, 1, 40, 0
3, 4080, Note_on_c, 1, 52, 127
3, 4166, Note_on_c, 1, 52, 0
3, 4320, Note_on_c, 1, 40, 127
3, 4436, Note_on_c, 1, 40, 0
3, 4560, Note_on_c, 1, 52, 127
3, 4650, Note_on_c, 1, 52, 0
3, 4800, Note_on_c, 1, 40, 127
3, 4924, Note_on_c, 1, 40, 0
3, 5040, Note_on_c, 1, 52, 127
3, 5164, Note_on_c, 1, 52, 0
3, 5280, Note_on_c, 1, 40, 127
3, 5416, Note_on_c, 1, 40, 0
3, 5520, Note_on_c, 1, 52, 127
3, 5610, Note_on_c, 1, 52, 0
3, 5760, Note_on_c, 1, 40, 127
3, 5876, Note_on_c, 1, 40, 0
3, 6000, Note_on_c, 1, 52, 127
3, 6086, Note_on_c, 1, 52, 0
3, 6240, Note_on_c, 1, 40, 127
3, 6356, Note_on_c, 1, 40, 0
3, 6480, Note_on_c, 1, 52, 127
3, 6570, Note_on_c, 1, 52, 0
3, 6720, Note_on_c, 1, 40, 127
3, 6844, Note_on_c, 1, 40, 0
3, 6960, Note_on_c, 1, 52, 127
3, 7084, Note_on_c, 1, 52, 0
3, 7200, Note_on_c, 1, 40, 127
3, 7336, Note_on_c, 1, 40, 0
3, 7440, Note_on_c, 1, 52, 127
3, 7530, Note_on_c, 1, 52, 0
3, 7680, Note_on_c, 1, 40, 127
3, 7796, Note_on_c, 1, 40, 0
3, 7920, Note_on_c, 1, 52, 127
3, 8006, Note_on_c, 1, 52, 0
3, 8160, Note_on_c, 1, 40, 127
3, 8276, Note_on_c, 1, 40, 0
3, 8400, Note_on_c, 1, 52, 127
3, 8490, Note_on_c, 1, 52, 0
3, 8640, Note_on_c, 1, 40, 127
3, 8764, Note_on_c, 1, 40, 0
3, 8880, Note_on_c, 1, 52, 127
3, 9004, Note_on_c, 1, 52, 0
3, 9120, Note_on_c, 1, 40, 127
3, 9256, Note_on_c, 1, 40, 0
3, 9360, Note_on_c, 1, 52, 127
3, 9450, Note_on_c, 1, 52, 0
3, 9600, Note_on_c, 1, 40, 123
3, 9830, Note_on_c, 1, 40, 0
3, 9840, Note_on_c, 1, 52, 123
3, 10066, Note_on_c, 1, 52, 0
3, 10080, Note_on_c, 1, 40, 112
3, 10132, Note_on_c, 1, 40, 0
3, 10200, Note_on_c, 1, 40, 115
3, 10310, Note_on_c, 1, 40, 0
3, 10320, Note_on_c, 1, 40, 119
3, 10398, Note_on_c, 1, 40, 0
3, 10440, Note_on_c, 1, 40, 119
3, 10546, Note_on_c, 1, 40, 0
3, 10560, Note_on_c, 1, 31, 125
3, 10736, Note_on_c, 1, 31, 0
3, 10800, Note_on_c, 1, 31, 123
3, 11030, Note_on_c, 1, 31, 0
3, 11040, Note_on_c, 1, 33, 127
3, 11078, Note_on_c, 1, 33, 0
3, 11160, Note_on_c, 1, 33, 127
3, 11280, Note_on_c, 1, 37, 119
3, 11282, Note_on_c, 1, 33, 0
3, 11380, Note_on_c, 1, 37, 0
3, 11400, Note_on_c, 1, 38, 115
3, 11464, Note_on_c, 1, 38, 0
3, 11520, Note_on_c, 1, 40, 112
3, 11750, Note_on_c, 1, 40, 0
3, 11760, Note_on_c, 1, 52, 125
3, 11980, Note_on_c, 1, 52, 0
3, 12000, Note_on_c, 1, 40, 115
3, 12052, Note_on_c, 1, 40, 0
3, 12120, Note_on_c, 1, 40, 115
3, 12182, Note_on_c, 1, 40, 0
3, 12240, Note_on_c, 1, 40, 119
3, 12400, Note_on_c, 1, 40, 0
3, 12480, Note_on_c, 1, 31, 125
3, 12674, Note_on_c, 1, 31, 0
3, 12720, Note_on_c, 1, 31, 105
3, 12950, Note_on_c, 1, 31, 0
3, 12960, Note_on_c, 1, 33, 112
3, 13006, Note_on_c, 1, 33, 0
3, 13020, Note_on_c, 1, 33, 125
3, 13146, Note_on_c, 1, 33, 0
3, 13200, Note_on_c, 1, 37, 119
3, 13316, Note_on_c, 1, 37, 0
3, 13320, Note_on_c, 1, 38, 104
3, 13424, Note_on_c, 1, 38, 0
3, 13440, Note_on_c, 1, 40, 123
3, 13668, Note_on_c, 1, 40, 0
3, 13680, Note_on_c, 1, 52, 123
3, 13906, Note_on_c, 1, 52, 0
3, 13920, Note_on_c, 1, 40, 112
3, 13972, Note_on_c, 1, 40, 0
3, 14040, Note_on_c, 1, 40, 115
3, 14150, Note_on_c, 1, 40, 0
3, 14160, Note_on_c, 1, 40, 119
3, 14238, Note_on_c, 1, 40, 0
3, 14280, Note_on_c, 1, 40, 119
3, 14386, Note_on_c, 1, 40, 0
3, 14400, Note_on_c, 1, 31, 125
3, 14576, Note_on_c, 1, 31, 0
3, 14640, Note_on_c, 1, 31, 123
3, 14870, Note_on_c, 1, 31, 0
3, 14880, Note_on_c, 1, 33, 127
3, 14918, Note_on_c, 1, 33, 0
3, 15000, Note_on_c, 1, 33, 127
3, 15120, Note_on_c, 1, 37, 119
3, 15122, Note_on_c, 1, 33, 0
3, 15220, Note_on_c, 1, 37, 0
3, 15240, Note_on_c, 1, 38, 115
3, 15304, Note_on_c, 1, 38, 0
3, 15360, Note_on_c, 1, 40, 112
3, 15582, Note_on_c, 1, 40, 0
3, 15600, Note_on_c, 1, 52, 125
3, 15822, Note_on_c, 1, 52, 0
3, 15840, Note_on_c, 1, 40, 115
3, 15892, Note_on_c, 1, 40, 0
3, 15960, Note_on_c, 1, 40, 115
3, 16022, Note_on_c, 1, 40, 0
3, 16080, Note_on_c, 1, 40, 119
3, 16240, Note_on_c, 1, 40, 0
3, 16320, Note_on_c, 1, 31, 125
3, 16514, Note_on_c, 1, 31, 0
3, 16560, Note_on_c, 1, 31, 105
3, 16794, Note_on_c, 1, 31, 0
3, 16800, Note_on_c, 1, 33, 112
3, 16846, Note_on_c, 1, 33, 0
3, 16860, Note_on_c, 1, 33, 125
3, 16986, Note_on_c, 1, 33, 0
3, 17040, Note_on_c, 1, 37, 119
3, 17156, Note_on_c, 1, 37, 0
3, 17160, Note_on_c, 1, 38, 104
3, 17264, Note_on_c, 1, 38, 0
3, 17280, Note_on_c, 1, 40, 123
3, 17504, Note_on_c, 1, 40, 0
3, 17520, Note_on_c, 1, 52, 123
3, 17746, Note_on_c, 1, 52, 0
3, 17760, Note_on_c, 1, 40, 112
3, 17812, Note_on_c, 1, 40, 0
3, 17880, Note_on_c, 1, 40, 115
3, 17990, Note_on_c, 1, 40, 0
3, 18000, Note_on_c, 1, 40, 119
3, 18078, Note_on_c, 1, 40, 0
3, 18120, Note_on_c, 1, 40, 119
3, 18226, Note_on_c, 1, 40, 0
3, 18240, Note_on_c, 1, 31, 125
3, 18416, Note_on_c, 1, 31, 0
3, 18480, Note_on_c, 1, 31, 123
3, 18710, Note_on_c, 1, 31, 0
3, 18720, Note_on_c, 1, 33, 127
3, 18758, Note_on_c, 1, 33, 0
3, 18840, Note_on_c, 1, 33, 127
3, 18954, Note_on_c, 1, 33, 0
3, 18960, Note_on_c, 1, 37, 119
3, 19060, Note_on_c, 1, 37, 0
3, 19080, Note_on_c, 1, 38, 115
3, 19144, Note_on_c, 1, 38, 0
3, 19206, Note_on_c, 1, 40, 127
3, 19334, Note_on_c, 1, 40, 0
3, 20640, Note_on_c, 1, 42, 127
3, 20750, Note_on_c, 1, 42, 0
3, 20760, Note_on_c, 1, 40, 123
3, 20878, Note_on_c, 1, 40, 0
3, 20880, Note_on_c, 1, 38, 125
3, 21120, Note_on_c, 1, 38, 0
3, 21120, Note_on_c, 1, 45, 125
3, 21146, Pitch_bend_c, 1, 8322
3, 21148, Pitch_bend_c, 1, 8712
3, 21152, Pitch_bend_c, 1, 9622
3, 21156, Pitch_bend_c, 1, 10402
3, 21160, Pitch_bend_c, 1, 11832
3, 21162, Pitch_bend_c, 1, 12872
3, 21166, Pitch_bend_c, 1, 13782
3, 21170, Pitch_bend_c, 1, 15212
3, 21172, Pitch_bend_c, 1, 15732
3, 21176, Pitch_bend_c, 1, 16252
3, 21180, Pitch_bend_c, 1, 16382
3, 21238, Note_on_c, 1, 45, 0
3, 21240, Note_on_c, 1, 48, 127
3, 21354, Note_on_c, 1, 48, 0
3, 21360, Note_on_c, 1, 53, 123
3, 21532, Note_on_c, 1, 53, 0
3, 21558, Pitch_bend_c, 1, 15732
3, 21560, Pitch_bend_c, 1, 15342
3, 21564, Pitch_bend_c, 1, 14822
3, 21568, Pitch_bend_c, 1, 13782
3, 21570, Pitch_bend_c, 1, 13002
3, 21574, Pitch_bend_c, 1, 11702
3, 21578, Pitch_bend_c, 1, 10662
3, 21582, Pitch_bend_c, 1, 9622
3, 21584, Pitch_bend_c, 1, 8972
3, 21588, Pitch_bend_c, 1, 8582
3, 21592, Pitch_bend_c, 1, 8192
3, 21600, Note_on_c, 1, 45, 125
3, 21616, Pitch_bend_c, 1, 8712
3, 21620, Pitch_bend_c, 1, 9362
3, 21622, Pitch_bend_c, 1, 10272
3, 21626, Pitch_bend_c, 1, 11702
3, 21630, Pitch_bend_c, 1, 13132
3, 21634, Pitch_bend_c, 1, 15342
3, 21636, Pitch_bend_c, 1, 15862
3, 21640, Pitch_bend_c, 1, 16252
3, 21644, Pitch_bend_c, 1, 16382
3, 21716, Note_on_c, 1, 45, 0
3, 21720, Note_on_c, 1, 48, 125
3, 21832, Note_on_c, 1, 48, 0
3, 21840, Note_on_c, 1, 53, 117
3, 22042, Note_on_c, 1, 53, 0
3, 22064, Pitch_bend_c, 1, 15732
3, 22068, Pitch_bend_c, 1, 14822
3, 22070, Pitch_bend_c, 1, 13262
3, 22074, Pitch_bend_c, 1, 10272
3, 22078, Pitch_bend_c, 1, 8256
3, 22080, Note_on_c, 1, 40, 127
3, 22186, Note_on_c, 1, 40, 0
3, 22320, Note_on_c, 1, 52, 127
3, 22430, Note_on_c, 1, 52, 0
3, 22560, Note_on_c, 1, 40, 127
3, 22672, Note_on_c, 1, 40, 0
3, 22800, Note_on_c, 1, 52, 127
3, 22912, Note_on_c, 1, 52, 0
3, 23040, Note_on_c, 1, 40, 127
3, 23140, Note_on_c, 1, 40, 0
3, 23280, Note_on_c, 1, 52, 127
3, 23356, Note_on_c, 1, 52, 0
3, 23520, Note_on_c, 1, 40, 127
3, 23596, Note_on_c, 1, 40, 0
3, 23760, Note_on_c, 1, 52, 127
3, 23862, Note_on_c, 1, 52, 0
3, 24000, Note_on_c, 1, 40, 127
3, 24116, Note_on_c, 1, 40, 0
3, 24240, Note_on_c, 1, 52, 127
3, 24326, Note_on_c, 1, 52, 0
3, 24480, Note_on_c, 1, 40, 127
3, 24596, Note_on_c, 1, 40, 0
3, 24720, Note_on_c, 1, 52, 127
3, 24810, Note_on_c, 1, 52, 0
3, 24960, Note_on_c, 1, 40, 127
3, 25084, Note_on_c, 1, 40, 0
3, 25200, Note_on_c, 1, 52, 127
3, 25324, Note_on_c, 1, 52, 0
3, 25440, Note_on_c, 1, 40, 127
3, 25576, Note_on_c, 1, 40, 0
3, 25680, Note_on_c, 1, 52, 127
3, 25770, Note_on_c, 1, 52, 0
3, 25920, Note_on_c, 1, 40, 127
3, 26036, Note_on_c, 1, 40, 0
3, 26160, Note_on_c, 1, 52, 127
3, 26246, Note_on_c, 1, 52, 0
3, 26400, Note_on_c, 1, 40, 127
3, 26516, Note_on_c, 1, 40, 0
3, 26640, Note_on_c, 1, 52, 127
3, 26730, Note_on_c, 1, 52, 0
3, 26880, Note_on_c, 1, 40, 127
3, 27004, Note_on_c, 1, 40, 0
3, 27120, Note_on_c, 1, 52, 127
3, 27244, Note_on_c, 1, 52, 0
3, 27360, Note_on_c, 1, 40, 127
3, 27496, Note_on_c, 1, 40, 0
3, 27600, Note_on_c, 1, 52, 127
3, 27690, Note_on_c, 1, 52, 0
3, 27840, Note_on_c, 1, 40, 127
3, 27956, Note_on_c, 1, 40, 0
3, 28080, Note_on_c, 1, 52, 127
3, 28166, Note_on_c, 1, 52, 0
3, 28320, Note_on_c, 1, 40, 127
3, 28436, Note_on_c, 1, 40, 0
3, 28560, Note_on_c, 1, 52, 127
3, 28650, Note_on_c, 1, 52, 0
3, 28800, Note_on_c, 1, 40, 127
3, 28924, Note_on_c, 1, 40, 0
3, 29040, Note_on_c, 1, 52, 127
3, 29164, Note_on_c, 1, 52, 0
3, 29280, Note_on_c, 1, 40, 127
3, 29416, Note_on_c, 1, 40, 0
3, 29520, Note_on_c, 1, 52, 127
3, 29610, Note_on_c, 1, 52, 0
3, 29760, Note_on_c, 1, 40, 123
3, 29990, Note_on_c, 1, 40, 0
3, 30000, Note_on_c, 1, 52, 123
3, 30226, Note_on_c, 1, 52, 0
3, 30240, Note_on_c, 1, 40, 112
3, 30292, Note_on_c, 1, 40, 0
3, 30360, Note_on_c, 1, 40, 115
3, 30470, Note_on_c, 1, 40, 0
3, 30480, Note_on_c, 1, 40, 119
3, 30558, Note_on_c, 1, 40, 0
3, 30600, Note_on_c, 1, 40, 119
3, 30706, Note_on_c, 1, 40, 0
3, 30720, Note_on_c, 1, 31, 125
3, 30896, Note_on_c, 1, 31, 0
3, 30960, Note_on_c, 1, 31, 123
3, 31190, Note_on_c, 1, 31, 0
3, 31200, Note_on_c, 1, 33, 127
3, 31238, Note_on_c, 1, 33, 0
3, 31320, Note_on_c, 1, 33, 127
3, 31440, Note_on_c, 1, 37, 119
3, 31442, Note_on_c, 1, 33, 0
3, 31540, Note_on_c, 1, 37, 0
3, 31560, Note_on_c, 1, 38, 115
3, 31624, Note_on_c, 1, 38, 0
3, 31680, Note_on_c, 1, 40, 112
3, 31910, Note_on_c, 1, 40, 0
3, 31920, Note_on_c, 1, 52, 125
3, 32140, Note_on_c, 1, 52, 0
3, 32160, Note_on_c, 1, 40, 115
3, 32212, Note_on_c, 1, 40, 0
3, 32280, Note_on_c, 1, 40, 115
3, 32342, Note_on_c, 1, 40, 0
3, 32400, Note_on_c, 1, 40, 119
3, 32560, Note_on_c, 1, 40, 0
3, 32640, Note_on_c, 1, 31, 125
3, 32834, Note_on_c, 1, 31, 0
3, 32880, Note_on_c, 1, 31, 105
3, 33110, Note_on_c, 1, 31, 0
3, 33120, Note_on_c, 1, 33, 112
3, 33166, Note_on_c, 1, 33, 0
3, 33180, Note_on_c, 1, 33, 125
3, 33306, Note_on_c, 1, 33, 0
3, 33360, Note_on_c, 1, 37, 119
3, 33476, Note_on_c, 1, 37, 0
3, 33480, Note_on_c, 1, 38, 104
3, 33584, Note_on_c, 1, 38, 0
3, 33600, Note_on_c, 1, 40, 123
3, 33828, Note_on_c, 1, 40, 0
3, 33840, Note_on_c, 1, 52, 123
3, 34066, Note_on_c, 1, 52, 0
3, 34080, Note_on_c, 1, 40, 112
3, 34132, Note_on_c, 1, 40, 0
3, 34200, Note_on_c, 1, 40, 115
3, 34310, Note_on_c, 1, 40, 0
3, 34320, Note_on_c, 1, 40, 119
3, 34398, Note_on_c, 1, 40, 0
3, 34440, Note_on_c, 1, 40, 119
3, 34546, Note_on_c, 1, 40, 0
3, 34560, Note_on_c, 1, 31, 125
3, 34736, Note_on_c, 1, 31, 0
3, 34800, Note_on_c, 1, 31, 123
3, 35030, Note_on_c, 1, 31, 0
3, 35040, Note_on_c, 1, 33, 127
3, 35078, Note_on_c, 1, 33, 0
3, 35160, Note_on_c, 1, 33, 127
3, 35280, Note_on_c, 1, 37, 119
3, 35282, Note_on_c, 1, 33, 0
3, 35380, Note_on_c, 1, 37, 0
3, 35400, Note_on_c, 1, 38, 115
3, 35464, Note_on_c, 1, 38, 0
3, 35520, Note_on_c, 1, 40, 112
3, 35742, Note_on_c, 1, 40, 0
3, 35760, Note_on_c, 1, 52, 125
3, 35982, Note_on_c, 1, 52, 0
3, 36000, Note_on_c, 1, 40, 115
3, 36052, Note_on_c, 1, 40, 0
3, 36120, Note_on_c, 1, 40, 115
3, 36182, Note_on_c, 1, 40, 0
3, 36240, Note_on_c, 1, 40, 119
3, 36400, Note_on_c, 1, 40, 0
3, 36480, Note_on_c, 1, 31, 125
3, 36674, Note_on_c, 1, 31, 0
3, 36720, Note_on_c, 1, 31, 105
3, 36954, Note_on_c, 1, 31, 0
3, 36960, Note_on_c, 1, 33, 112
3, 37006, Note_on_c, 1, 33, 0
3, 37020, Note_on_c, 1, 33, 125
3, 37146, Note_on_c, 1, 33, 0
3, 37200, Note_on_c, 1, 37, 119
3, 37316, Note_on_c, 1, 37, 0
3, 37320, Note_on_c, 1, 38, 104
3, 37424, Note_on_c, 1, 38, 0
3, 37440, Note_on_c, 1, 40, 123
3, 37664, Note_on_c, 1, 40, 0
3, 37680, Note_on_c, 1, 52, 123
3, 37906, Note_on_c, 1, 52, 0
3, 37920, Note_on_c, 1, 40, 112
3, 37972, Note_on_c, 1, 40, 0
3, 38040, Note_on_c, 1, 40, 115
3, 38150, Note_on_c, 1, 40, 0
3, 38160, Note_on_c, 1, 40, 119
3, 38238, Note_on_c, 1, 40, 0
3, 38280, Note_on_c, 1, 40, 119
3, 38386, Note_on_c, 1, 40, 0
3, 38400, Note_on_c, 1, 31, 125
3, 38576, Note_on_c, 1, 31, 0
3, 38640, Note_on_c, 1, 31, 123
3, 38870, Note_on_c, 1, 31, 0
3, 38880, Note_on_c, 1, 33, 127
3, 38918, Note_on_c, 1, 33, 0
3, 39000, Note_on_c, 1, 33, 127
3, 39114, Note_on_c, 1, 33, 0
3, 39120, Note_on_c, 1, 37, 119
3, 39220, Note_on_c, 1, 37, 0
3, 39240, Note_on_c, 1, 38, 115
3, 39304, Note_on_c, 1, 38, 0
3, 39366, Note_on_c, 1, 40, 127
3, 39494, Note_on_c, 1, 40, 0
3, 40800, Note_on_c, 1, 42, 127
3, 40910, Note_on_c, 1, 42, 0
3, 40920, Note_on_c, 1, 40, 123
3, 41038, Note_on_c, 1, 40, 0
3, 41040, Note_on_c, 1, 38, 125
3, 41280, Note_on_c, 1, 38, 0
3, 41280, Note_on_c, 1, 45, 125
3, 41306, Pitch_bend_c, 1, 8322
3, 41308, Pitch_bend_c, 1, 8712
3, 41312, Pitch_bend_c, 1, 9622
3, 41316, Pitch_bend_c, 1, 10402
3, 41320, Pitch_bend_c, 1, 11832
3, 41322, Pitch_bend_c, 1, 12872
3, 41326, Pitch_bend_c, 1, 13782
3, 41330, Pitch_bend_c, 1, 15212
3, 41332, Pitch_bend_c, 1, 15732
3, 41336, Pitch_bend_c, 1, 16252
3, 41340, Pitch_bend_c, 1, 16382
3, 41398, Note_on_c, 1, 45, 0
3, 41400, Note_on_c, 1, 48, 127
3, 41514, Note_on_c, 1, 48, 0
3, 41520, Note_on_c, 1, 53, 123
3, 41692, Note_on_c, 1, 53, 0
3, 41718, Pitch_bend_c, 1, 15732
3, 41720, Pitch_bend_c, 1, 15342
3, 41724, Pitch_bend_c, 1, 14822
3, 41728, Pitch_bend_c, 1, 13782
3, 41730, Pitch_bend_c, 1, 13002
3, 41734, Pitch_bend_c, 1, 11702
3, 41738, Pitch_bend_c, 1, 10662
3, 41742, Pitch_bend_c, 1, 9622
3, 41744, Pitch_bend_c, 1, 8972
3, 41748, Pitch_bend_c, 1, 8582
3, 41752, Pitch_bend_c, 1, 8192
3, 41760, Note_on_c, 1, 45, 125
3, 41776, Pitch_bend_c, 1, 8712
3, 41780, Pitch_bend_c, 1, 9362
3, 41782, Pitch_bend_c, 1, 10272
3, 41786, Pitch_bend_c, 1, 11702
3, 41790, Pitch_bend_c, 1, 13132
3, 41794, Pitch_bend_c, 1, 15342
3, 41796, Pitch_bend_c, 1, 15862
3, 41800, Pitch_bend_c, 1, 16252
3, 41804, Pitch_bend_c, 1, 16382
3, 41876, Note_on_c, 1, 45, 0
3, 41880, Note_on_c, 1, 48, 125
3, 41992, Note_on_c, 1, 48, 0
3, 42000, Note_on_c, 1, 53, 117
3, 42202, Note_on_c, 1, 53, 0
3, 42224, Pitch_bend_c, 1, 15732
3, 42228, Pitch_bend_c, 1, 14822
3, 42230, Pitch_bend_c, 1, 13262
3, 42234, Pitch_bend_c, 1, 10272
3, 42238, Pitch_bend_c, 1, 8256
3, 42240, Note_on_c, 1, 40, 127
3, 42346, Note_on_c, 1, 40, 0
3, 42480, Note_on_c, 1, 52, 127
3, 42590, Note_on_c, 1, 52, 0
3, 42720, Note_on_c, 1, 40, 127
3, 42832, Note_on_c, 1, 40, 0
3, 42960, Note_on_c, 1, 52, 127
3, 43072, Note_on_c, 1, 52, 0
3, 43200, Note_on_c, 1, 40, 127
3, 43300, Note_on_c, 1, 40, 0
3, 43440, Note_on_c, 1, 52, 127
3, 43516, Note_on_c, 1, 52, 0
3, 43680, Note_on_c, 1, 40, 127
3, 43756, Note_on_c, 1, 40, 0
3, 43920, Note_on_c, 1, 52, 127
3, 44022, Note_on_c, 1, 52, 0
3, 44160, Note_on_c, 1, 40, 127
3, 44276, Note_on_c, 1, 40, 0
3, 44400, Note_on_c, 1, 52, 127
3, 44486, Note_on_c, 1, 52, 0
3, 44640, Note_on_c, 1, 40, 127
3, 44756, Note_on_c, 1, 40, 0
3, 44880, Note_on_c, 1, 52, 127
3, 44970, Note_on_c, 1, 52, 0
3, 45120, Note_on_c, 1, 40, 127
3, 45244, Note_on_c, 1, 40, 0
3, 45360, Note_on_c, 1, 52, 127
3, 45484, Note_on_c, 1, 52, 0
3, 45600, Note_on_c, 1, 40, 127
3, 45736, Note_on_c, 1, 40, 0
3, 45840, Note_on_c, 1, 52, 127
3, 45930, Note_on_c, 1, 52, 0
3, 46080, Note_on_c, 1, 40, 127
3, 46196, Note_on_c, 1, 40, 0
3, 46320, Note_on_c, 1, 52, 127
3, 46406, Note_on_c, 1, 52, 0
3, 46560, Note_on_c, 1, 40, 127
3, 46676, Note_on_c, 1, 40, 0
3, 46800, Note_on_c, 1, 52, 127
3, 46890, Note_on_c, 1, 52, 0
3, 47040, Note_on_c, 1, 40, 127
3, 47164, Note_on_c, 1, 40, 0
3, 47280, Note_on_c, 1, 52, 127
3, 47404, Note_on_c, 1, 52, 0
3, 47520, Note_on_c, 1, 40, 127
3, 47656, Note_on_c, 1, 40, 0
3, 47760, Note_on_c, 1, 52, 127
3, 47850, Note_on_c, 1, 52, 0
3, 48000, Note_on_c, 1, 40, 127
3, 48116, Note_on_c, 1, 40, 0
3, 48240, Note_on_c, 1, 52, 127
3, 48326, Note_on_c, 1, 52, 0
3, 48480, Note_on_c, 1, 40, 127
3, 48596, Note_on_c, 1, 40, 0
3, 48720, Note_on_c, 1, 52, 127
3, 48810, Note_on_c, 1, 52, 0
3, 48960, Note_on_c, 1, 40, 127
3, 49084, Note_on_c, 1, 40, 0
3, 49200, Note_on_c, 1, 52, 127
3, 49324, Note_on_c, 1, 52, 0
3, 49440, Note_on_c, 1, 40, 127
3, 49576, Note_on_c, 1, 40, 0
3, 49680, Note_on_c, 1, 52, 127
3, 49770, Note_on_c, 1, 52, 0
3, 49920, Note_on_c, 1, 40, 123
3, 50150, Note_on_c, 1, 40, 0
3, 50160, Note_on_c, 1, 52, 123
3, 50386, Note_on_c, 1, 52, 0
3, 50400, Note_on_c, 1, 40, 112
3, 50452, Note_on_c, 1, 40, 0
3, 50520, Note_on_c, 1, 40, 115
3, 50630, Note_on_c, 1, 40, 0
3, 50640, Note_on_c, 1, 40, 119
3, 50718, Note_on_c, 1, 40, 0
3, 50760, Note_on_c, 1, 40, 119
3, 50866, Note_on_c, 1, 40, 0
3, 50880, Note_on_c, 1, 31, 125
3, 51056, Note_on_c, 1, 31, 0
3, 51120, Note_on_c, 1, 31, 123
3, 51350, Note_on_c, 1, 31, 0
3, 51360, Note_on_c, 1, 33, 127
3, 51398, Note_on_c, 1, 33, 0
3, 51480, Note_on_c, 1, 33, 127
3, 51600, Note_on_c, 1, 37, 119
3, 51602, Note_on_c, 1, 33, 0
3, 51700, Note_on_c, 1, 37, 0
3, 51720, Note_on_c, 1, 38, 115
3, 51784, Note_on_c, 1, 38, 0
3, 51840, Note_on_c, 1, 40, 112
3, 52070, Note_on_c, 1, 40, 0
3, 52080, Note_on_c, 1, 52, 125
3, 52300, Note_on_c, 1, 52, 0
3, 52320, Note_on_c, 1, 40, 115
3, 52372, Note_on_c, 1, 40, 0
3, 52440, Note_on_c, 1, 40, 115
3, 52502, Note_on_c, 1, 40, 0
3, 52560, Note_on_c, 1, 40, 119
3, 52720, Note_on_c, 1, 40, 0
3, 52800, Note_on_c, 1, 31, 125
3, 52994, Note_on_c, 1, 31, 0
3, 53040, Note_on_c, 1, 31, 105
3, 53270, Note_on_c, 1, 31, 0
3, 53280, Note_on_c, 1, 33, 112
3, 53326, Note_on_c, 1, 33, 0
3, 53340, Note_on_c, 1, 33, 125
3, 53466, Note_on_c, 1, 33, 0
3, 53520, Note_on_c, 1, 37, 119
3, 53636, Note_on_c, 1, 37, 0
3, 53640, Note_on_c, 1, 38, 104
3, 53744, Note_on_c, 1, 38, 0
3, 53760, Note_on_c, 1, 40, 123
3, 53988, Note_on_c, 1, 40, 0
3, 54000, Note_on_c, 1, 52, 123
3, 54226, Note_on_c, 1, 52, 0
3, 54240, Note_on_c, 1, 40, 112
3, 54292, Note_on_c, 1, 40, 0
3, 54360, Note_on_c, 1, 40, 115
3, 54470, Note_on_c, 1, 40, 0
3, 54480, Note_on_c, 1, 40, 119
3, 54558, Note_on_c, 1, 40, 0
3, 54600, Note_on_c, 1, 40, 119
3, 54706, Note_on_c, 1, 40, 0
3, 54720, Note_on_c, 1, 31, 125
3, 54896, Note_on_c, 1, 31, 0
3, 54960, Note_on_c, 1, 31, 123
3, 55190, Note_on_c, 1, 31, 0
3, 55200, Note_on_c, 1, 33, 127
3, 55238, Note_on_c, 1, 33, 0
3, 55320, Note_on_c, 1, 33, 127
3, 55440, Note_on_c, 1, 37, 119
3, 55442, Note_on_c, 1, 33, 0
3, 55540, Note_on_c, 1, 37, 0
3, 55560, Note_on_c, 1, 38, 115
3, 55624, Note_on_c, 1, 38, 0
3, 55680, Note_on_c, 1, 40, 112
3, 55902, Note_on_c, 1, 40, 0
3, 55920, Note_on_c, 1, 52, 125
3, 56142, Note_on_c, 1, 52, 0
3, 56160, Note_on_c, 1, 40, 115
3, 56212, Note_on_c, 1, 40, 0
3, 56280, Note_on_c, 1, 40, 115
3, 56342, Note_on_c, 1, 40, 0
3, 56400, Note_on_c, 1, 40, 119
3, 56560, Note_on_c, 1, 40, 0
3, 56640, Note_on_c, 1, 31, 125
3, 56834, Note_on_c, 1, 31, 0
3, 56880, Note_on_c, 1, 31, 105
3, 57114, Note_on_c, 1, 31, 0
3, 57120, Note_on_c, 1, 33, 112
3, 57166, Note_on_c, 1, 33, 0
3, 57180, Note_on_c, 1, 33, 125
3, 57306, Note_on_c, 1, 33, 0
3, 57360, Note_on_c, 1, 37, 119
3, 57476, Note_on_c, 1, 37, 0
3, 57480, Note_on_c, 1, 38, 104
3, 57584, Note_on_c, 1, 38, 0
3, 57600, Note_on_c, 1, 40, 123
3, 57824, Note_on_c, 1, 40, 0
3, 57840, Note_on_c, 1, 52, 123
3, 58066, Note_on_c, 1, 52, 0
3, 58080, Note_on_c, 1, 40, 112
3, 58132, Note_on_c, 1, 40, 0
3, 58200, Note_on_c, 1, 40, 115
3, 58310, Note_on_c, 1, 40, 0
3, 58320, Note_on_c, 1, 40, 119
3, 58398, Note_on_c, 1, 40, 0
3, 58440, Note_on_c, 1, 40, 119
3, 58546, Note_on_c, 1, 40, 0
3, 58560, Note_on_c, 1, 31, 125
3, 58736, Note_on_c, 1, 31, 0
3, 58800, Note_on_c, 1, 31, 123
3, 59030, Note_on_c, 1, 31, 0
3, 59040, Note_on_c, 1, 33, 127
3, 59078, Note_on_c, 1, 33, 0
3, 59160, Note_on_c, 1, 33, 127
3, 59274, Note_on_c, 1, 33, 0
3, 59280, Note_on_c, 1, 37, 119
3, 59380, Note_on_c, 1, 37, 0
3, 59400, Note_on_c, 1, 38, 115
3, 59464, Note_on_c, 1, 38, 0
3, 59526, Note_on_c, 1, 40, 127
3, 59654, Note_on_c, 1, 40, 0
3, 60960, Note_on_c, 1, 42, 127
3, 61070, Note_on_c, 1, 42, 0
3, 61080, Note_on_c, 1, 40, 123
3, 61198, Note_on_c, 1, 40, 0
3, 61200, Note_on_c, 1, 38, 125
3, 61440, Note_on_c, 1, 38, 0
3, 61440, Note_on_c, 1, 45, 125
3, 61466, Pitch_bend_c, 1, 8322
3, 61468, Pitch_bend_c, 1, 8712
3, 61472, Pitch_bend_c, 1, 9622
3, 61476, Pitch_bend_c, 1, 10402
3, 61480, Pitch_bend_c, 1, 11832
3, 61482, Pitch_bend_c, 1, 12872
3, 61486, Pitch_bend_c, 1, 13782
3, 61490, Pitch_bend_c, 1, 15212
3, 61492, Pitch_bend_c, 1, 15732
3, 61496, Pitch_bend_c, 1, 16252
3, 61500, Pitch_bend_c, 1, 16382
3, 61558, Note_on_c, 1, 45, 0
3, 61560, Note_on_c, 1, 48, 127
3, 61674, Note_on_c, 1, 48, 0
3, 61680, Note_on_c, 1, 53, 123
3, 61852, Note_on_c, 1, 53, 0
3, 61878, Pitch_bend_c, 1, 15732
3, 61880, Pitch_bend_c, 1, 15342
3, 61884, Pitch_bend_c, 1, 14822
3, 61888, Pitch_bend_c, 1, 13782
3, 61890, Pitch_bend_c, 1, 13002
3, 61894, Pitch_bend_c, 1, 11702
3, 61898, Pitch_bend_c, 1, 10662
3, 61902, Pitch_bend_c, 1, 9622
3, 61904, Pitch_bend_c, 1, 8972
3, 61908, Pitch_bend_c, 1, 8582
3, 61912, Pitch_bend_c, 1, 8192
3, 61920, Note_on_c, 1, 45, 125
3, 61936, Pitch_bend_c, 1, 8712
3, 61940, Pitch_bend_c, 1, 9362
3, 61942, Pitch_bend_c, 1, 10272
3, 61946, Pitch_bend_c, 1, 11702
3, 61950, Pitch_bend_c, 1, 13132
3, 61954, Pitch_bend_c, 1, 15342
3, 61956, Pitch_bend_c, 1, 15862
3, 61960, Pitch_bend_c, 1, 16252
3, 61964, Pitch_bend_c, 1, 16382
3, 62036, Note_on_c, 1, 45, 0
3, 62040, Note_on_c, 1, 48, 125
3, 62152, Note_on_c, 1, 48, 0
3, 62160, Note_on_c, 1, 53, 117
3, 62362, Note_on_c, 1, 53, 0
3, 62384, Pitch_bend_c, 1, 15732
3, 62388, Pitch_bend_c, 1, 14822
3, 62390, Pitch_bend_c, 1, 13262
3, 62394, Pitch_bend_c, 1, 10272
3, 62398, Pitch_bend_c, 1, 8256
3, 62400, Note_on_c, 1, 40, 127
3, 62506, Note_on_c, 1, 40, 0
3, 62640, Note_on_c, 1, 52, 127
3, 62750, Note_on_c, 1, 52, 0
3, 62880, Note_on_c, 1, 40, 127
3, 62992, Note_on_c, 1, 40, 0
3, 63120, Note_on_c, 1, 52, 127
3, 63232, Note_on_c, 1, 52, 0
3, 63360, Note_on_c, 1, 40, 127
3, 63460, Note_on_c, 1, 40, 0
3, 63600, Note_on_c, 1, 52, 127
3, 63676, Note_on_c, 1, 52, 0
3, 63840, Note_on_c, 1, 40, 127
3, 63916, Note_on_c, 1, 40, 0
3, 64080, Note_on_c, 1, 52, 127
3, 64182, Note_on_c, 1, 52, 0
3, 64320, Note_on_c, 1, 40, 127
3, 64436, Note_on_c, 1, 40, 0
3, 64560, Note_on_c, 1, 52, 127
3, 64646, Note_on_c, 1, 52, 0
3, 64800, Note_on_c, 1, 40, 127
3, 64916, Note_on_c, 1, 40, 0
3, 65040, Note_on_c, 1, 52, 127
3, 65130, Note_on_c, 1, 52, 0
3, 65280, Note_on_c, 1, 40, 127
3, 65404, Note_on_c, 1, 40, 0
3, 65520, Note_on_c, 1, 52, 127
3, 65644, Note_on_c, 1, 52, 0
3, 65760, Note_on_c, 1, 40, 127
3, 65896, Note_on_c, 1, 40, 0
3, 66000, Note_on_c, 1, 52, 127
3, 66090, Note_on_c, 1, 52, 0
3, 66240, Note_on_c, 1, 40, 127
3, 66356, Note_on_c, 1, 40, 0
3, 66480, Note_on_c, 1, 52, 127
3, 66566, Note_on_c, 1, 52, 0
3, 66720, Note_on_c, 1, 40, 127
3, 66836, Note_on_c, 1, 40, 0
3, 66960, Note_on_c, 1, 52, 127
3, 67050, Note_on_c, 1, 52, 0
3, 67200, Note_on_c, 1, 40, 127
3, 67324, Note_on_c, 1, 40, 0
3, 67440, Note_on_c, 1, 52, 127
3, 67564, Note_on_c, 1, 52, 0
3, 67680, Note_on_c, 1, 40, 127
3, 67816, Note_on_c, 1, 40, 0
3, 67920, Note_on_c, 1, 52, 127
3, 68010, Note_on_c, 1, 52, 0
3, 68160, Note_on_c, 1, 40, 127
3, 68276, Note_on_c, 1, 40, 0
3, 68400, Note_on_c, 1, 52, 127
3, 68486, Note_on_c, 1, 52, 0
3, 68640, Note_on_c, 1, 40, 127
3, 68756, Note_on_c, 1, 40, 0
3, 68880, Note_on_c, 1, 52, 127
3, 68970, Note_on_c, 1, 52, 0
3, 69120, Note_on_c, 1, 40, 127
3, 69244, Note_on_c, 1, 40, 0
3, 69360, Note_on_c, 1, 52, 127
3, 69484, Note_on_c, 1, 52, 0
3, 69600, Note_on_c, 1, 40, 127
3, 69736, Note_on_c, 1, 40, 0
3, 69840, Note_on_c, 1, 52, 127
3, 69930, Note_on_c, 1, 52, 0
3, 70080, Note_on_c, 1, 40, 123
3, 70310, Note_on_c, 1, 40, 0
3, 70320, Note_on_c, 1, 52, 123
3, 70546, Note_on_c, 1, 52, 0
3, 70560, Note_on_c, 1, 40, 112
3, 70612, Note_on_c, 1, 40, 0
3, 70680, Note_on_c, 1, 40, 115
3, 70790, Note_on_c, 1, 40, 0
3, 70800, Note_on_c, 1, 40, 119
3, 70878, Note_on_c, 1, 40, 0
3, 70920, Note_on_c, 1, 40, 119
3, 71026, Note_on_c, 1, 40, 0
3, 71040, Note_on_c, 1, 31, 125
3, 71216, Note_on_c, 1, 31, 0
3, 71280, Note_on_c, 1, 31, 123
3, 71510, Note_on_c, 1, 31, 0
3, 71520, Note_on_c, 1, 33, 127
3, 71558, Note_on_c, 1, 33, 0
3, 71640, Note_on_c, 1, 33, 127
3, 71760, Note_on_c, 1, 37, 119
3, 71762, Note_on_c, 1, 33, 0
3, 71860, Note_on_c, 1, 37, 0
3, 71880, Note_on_c, 1, 38, 115
3, 71944, Note_on_c, 1, 38, 0
3, 72000, Note_on_c, 1, 40, 112
3, 72230, Note_on_c, 1, 40, 0
3, 72240, Note_on_c, 1, 52, 125
3, 72460, Note_on_c, 1, 52, 0
3, 72480, Note_on_c, 1, 40, 115
3, 72532, Note_on_c, 1, 40, 0
3, 72600, Note_on_c, 1, 40, 115
3, 72662, Note_on_c, 1, 40, 0
3, 72720, Note_on_c, 1, 40, 119
3, 72880, Note_on_c, 1, 40, 0
3, 72960, Note_on_c, 1, 31, 125
3, 73154, Note_on_c, 1, 31, 0
3, 73200, Note_on_c, 1, 31, 105
3, 73430, Note_on_c, 1, 31, 0
3, 73440, Note_on_c, 1, 33, 112
3, 73486, Note_on_c, 1, 33, 0
3, 73500, Note_on_c, 1, 33, 125
3, 73626, Note_on_c, 1, 33, 0
3, 73680, Note_on_c, 1, 37, 119
3, 73796, Note_on_c, 1, 37, 0
3, 73800, Note_on_c, 1, 38, 104
3, 73904, Note_on_c, 1, 38, 0
3, 73920, Note_on_c, 1, 40, 123
3, 74148, Note_on_c, 1, 40, 0
3, 74160, Note_on_c, 1, 52, 123
3, 74386, Note_on_c, 1, 52, 0
3, 74400, Note_on_c, 1, 40, 112
3, 74452, Note_on_c, 1, 40, 0
3, 74520, Note_on_c, 1, 40, 115
3, 74630, Note_on_c, 1, 40, 0
3, 74640, Note_on_c, 1, 40, 119
3, 74718, Note_on_c, 1, 40, 0
3, 74760, Note_on_c, 1, 40, 119
3, 74866, Note_on_c, 1, 40, 0
3, 74880, Note_on_c, 1, 31, 125
3, 75056, Note_on_c, 1, 31, 0
3, 75120, Note_on_c, 1, 31, 123
3, 75350, Note_on_c, 1, 31, 0
3, 75360, Note_on_c, 1, 33, 127
3, 75398, Note_on_c, 1, 33, 0
3, 75480, Note_on_c, 1, 33, 127
3, 75600, Note_on_c, 1, 37, 119
3, 75602, Note_on_c, 1, 33, 0
3, 75700, Note_on_c, 1, 37, 0
3, 75720, Note_on_c, 1, 38, 115
3, 75784, Note_on_c, 1, 38, 0
3, 75840, Note_on_c, 1, 40, 112
3, 76062, Note_on_c, 1, 40, 0
3, 76080, Note_on_c, 1, 52, 125
3, 76302, Note_on_c, 1, 52, 0
3, 76320, Note_on_c, 1, 40, 115
3, 76372, Note_on_c, 1, 40, 0
3, 76440, Note_on_c, 1, 40, 115
3, 76502, Note_on_c, 1, 40, 0
3, 76560, Note_on_c, 1, 40, 119
3, 76720, Note_on_c, 1, 40, 0
3, 76800, Note_on_c, 1, 31, 125
3, 76994, Note_on_c, 1, 31, 0
3, 77040, Note_on_c, 1, 31, 105
3, 77274, Note_on_c, 1, 31, 0
3, 77280, Note_on_c, 1, 33, 112
3, 77326, Note_on_c, 1, 33, 0
3, 77340, Note_on_c, 1, 33, 125
3, 77466, Note_on_c, 1, 33, 0
3, 77520, Note_on_c, 1, 37, 119
3, 77636, Note_on_c, 1, 37, 0
3, 77640, Note_on_c, 1, 38, 104
3, 77744, Note_on_c, 1, 38, 0
3, 77760, Note_on_c, 1, 40, 123
3, 77984, Note_on_c, 1, 40, 0
3, 78000, Note_on_c, 1, 52, 123
3, 78226, Note_on_c, 1, 52, 0
3, 78240, Note_on_c, 1, 40, 112
3, 78292, Note_on_c, 1, 40, 0
3, 78360, Note_on_c, 1, 40, 115
3, 78470, Note_on_c, 1, 40, 0
3, 78480, Note_on_c, 1, 40, 119
3, 78558, Note_on_c, 1, 40, 0
3, 78600, Note_on_c, 1, 40, 119
3, 78706, Note_on_c, 1, 40, 0
3, 78720, Note_on_c, 1, 31, 125
3, 78896, Note_on_c, 1, 31, 0
3, 78960, Note_on_c, 1, 31, 123
3, 79190, Note_on_c, 1, 31, 0
3, 79200, Note_on_c, 1, 33, 127
3, 79238, Note_on_c, 1, 33, 0
3, 79320, Note_on_c, 1, 33, 127
3, 79434, Note_on_c, 1, 33, 0
3, 79440, Note_on_c, 1, 37, 119
3, 79540, Note_on_c, 1, 37, 0
3, 79560, Note_on_c, 1, 38, 115
3, 79624, Note_on_c, 1, 38, 0
3, 79686, Note_on_c, 1, 40, 127
3, 79814, Note_on_c, 1, 40, 0
3, 81120, Note_on_c, 1, 42, 127
3, 81230, Note_on_c, 1, 42, 0
3, 81240, Note_on_c, 1, 40, 123
3, 81358, Note_on_c, 1, 40, 0
3, 81360, Note_on_c, 1, 38, 125
3, 81600, Note_on_c, 1, 38, 0
3, 81600, Note_on_c, 1, 45, 125
3, 81626, Pitch_bend_c, 1, 8322
3, 81628, Pitch_bend_c, 1, 8712
3, 81632, Pitch_bend_c, 1, 9622
3, 81636, Pitch_bend_c, 1, 10402
3, 81640, Pitch_bend_c, 1, 11832
3, 81642, Pitch_bend_c, 1, 12872
3, 81646, Pitch_bend_c, 1, 13782
3, 81650, Pitch_bend_c, 1, 15212
3, 81652, Pitch_bend_c, 1, 15732
3, 81656, Pitch_bend_c, 1, 16252
3, 81660, Pitch_bend_c, 1, 16382
3, 81718, Note_on_c, 1, 45, 0
3, 81720, Note_on_c, 1, 48, 127
3, 81834, Note_on_c, 1, 48, 0
3, 81840, Note_on_c, 1, 53, 123
3, 82012, Note_on_c, 1, 53, 0
3, 82038, Pitch_bend_c, 1, 15732
3, 82040, Pitch_bend_c, 1, 15342
3, 82044, Pitch_bend_c, 1, 14822
3, 82048, Pitch_bend_c, 1, 13782
3, 82050, Pitch_bend_c, 1, 13002
3, 82054, Pitch_bend_c, 1, 11702
3, 82058, Pitch_bend_c, 1, 10662
3, 82062, Pitch_bend_c, 1, 9622
3, 82064, Pitch_bend_c, 1, 8972
3, 82068, Pitch_bend_c, 1, 8582
3, 82072, Pitch_bend_c, 1, 8192
3, 82080, Note_on_c, 1, 45, 125
3, 82096, Pitch_bend_c, 1, 8712
3, 82100, Pitch_bend_c, 1, 9362
3, 82102, Pitch_bend_c, 1, 10272
3, 82106, Pitch_bend_c, 1, 11702
3, 82110, Pitch_bend_c, 1, 13132
3, 82114, Pitch_bend_c, 1, 15342
3, 82116, Pitch_bend_c, 1, 15862
3, 82120, Pitch_bend_c, 1, 16252
3, 82124, Pitch_bend_c, 1, 16382
3, 82196, Note_on_c, 1, 45, 0
3, 82200, Note_on_c, 1, 48, 125
3, 82312, Note_on_c, 1, 48, 0
3, 82320, Note_on_c, 1, 53, 117
3, 82522, Note_on_c, 1, 53, 0
3, 82544, Pitch_bend_c, 1, 15732
3, 82548, Pitch_bend_c, 1, 14822
3, 82550, Pitch_bend_c, 1, 13262
3, 82554, Pitch_bend_c, 1, 10272
3, 82558, Pitch_bend_c, 1, 8256
3, 82558, End_track
4, 0, Start_track
4, 0, Title_t, "3"
4, 0, Program_c, 2, 30
4, 0, Control_c, 2, 7, 100
4, 0, Note_on_c, 2, 46, 127
4, 92, Note_on_c, 2, 46, 0
4, 240, Note_on_c, 2, 58, 127
4, 360, Note_on_c, 2, 58, 0
4, 480, Note_on_c, 2, 46, 127
4, 602, Note_on_c, 2, 46, 0
4, 720, Note_on_c, 2, 58, 127
4, 840, Note_on_c, 2, 58, 0
4, 960, Note_on_c, 2, 46, 127
4, 1068, Note_on_c, 2, 46, 0
4, 1200, Note_on_c, 2, 58, 127
4, 1320, Note_on_c, 2, 58, 0
4, 1440, Note_on_c, 2, 46, 127
4, 1574, Note_on_c, 2, 46, 0
4, 1680, Note_on_c, 2, 58, 127
4, 1800, Note_on_c, 2, 58, 0
4, 1904, Note_on_c, 2, 57, 127
4, 1920, Note_on_c, 2, 57, 0
4, 1920, Note_on_c, 2, 57, 127
4, 1932, Pitch_bend_c, 2, 8576
4, 1936, Pitch_bend_c, 2, 8896
4, 1940, Pitch_bend_c, 2, 9280
4, 1944, Pitch_bend_c, 2, 9600
4, 1946, Pitch_bend_c, 2, 9984
4, 1950, Pitch_bend_c, 2, 10304
4, 1954, Pitch_bend_c, 2, 10752
4, 1956, Pitch_bend_c, 2, 11072
4, 1960, Pitch_bend_c, 2, 11392
4, 1964, Pitch_bend_c, 2, 11712
4, 1966, Pitch_bend_c, 2, 12096
4, 1970, Pitch_bend_c, 2, 12608
4, 1972, Pitch_bend_c, 2, 13120
4, 1976, Pitch_bend_c, 2, 13696
4, 1978, Pitch_bend_c, 2, 14528
4, 1980, Pitch_bend_c, 2, 15936
4, 2034, Note_on_c, 2, 57, 0
4, 2040, Note_on_c, 2, 60, 127
4, 2158, Note_on_c, 2, 60, 0
4, 2160, Note_on_c, 2, 65, 127
4, 2272, Pitch_bend_c, 2, 8256
4, 2278, Note_on_c, 2, 65, 0
4, 2280, Note_on_c, 2, 57, 127
4, 2344, Control_c, 2, 1, 2
4, 2346, Control_c, 2, 1, 8
4, 2350, Control_c, 2, 1, 14
4, 2352, Control_c, 2, 1, 20
4, 2356, Control_c, 2, 1, 28
4, 2360, Control_c, 2, 1, 34
4, 2364, Control_c, 2, 1, 42
4, 2374, Control_c, 2, 1, 48
4, 2410, Control_c, 2, 1, 54
4, 2440, Control_c, 2, 1, 60
4, 2450, Control_c, 2, 1, 62
4, 2658, Control_c, 2, 1, 56
4, 2666, Control_c, 2, 1, 50
4, 2670, Control_c, 2, 1, 44
4, 2672, Control_c, 2, 1, 38
4, 2676, Control_c, 2, 1, 16
4, 2678, Note_on_c, 2, 57, 0
4, 2680, Control_c, 2, 1, 8
4, 2684, Control_c, 2, 1, 0
4, 2880, Note_on_c, 2, 55, 123
4, 2990, Note_on_c, 2, 55, 0
4, 3000, Note_on_c, 2, 50, 127
4, 3096, Note_on_c, 2, 38, 90
4, 3132, Pitch_bend_c, 2, 8712
4, 3136, Pitch_bend_c, 2, 10012
4, 3140, Pitch_bend_c, 2, 10922
4, 3142, Pitch_bend_c, 2, 12352
4, 3146, Pitch_bend_c, 2, 13782
4, 3150, Pitch_bend_c, 2, 15602
4, 3152, Pitch_bend_c, 2, 15992
4, 3158, Pitch_bend_c, 2, 16382
4, 3188, Note_on_c, 2, 50, 0
4, 3232, Note_on_c, 2, 38, 0
4, 3234, Pitch_bend_c, 2, 15992
4, 3236, Pitch_bend_c, 2, 15472
4, 3240, Note_on_c, 2, 50, 127
4, 3240, Pitch_bend_c, 2, 13912
4, 3244, Pitch_bend_c, 2, 13002
4, 3246, Pitch_bend_c, 2, 11312
4, 3250, Pitch_bend_c, 2, 9882
4, 3254, Pitch_bend_c, 2, 9232
4, 3256, Pitch_bend_c, 2, 8712
4, 3262, Pitch_bend_c, 2, 8192
4, 3316, Pitch_bend_c, 2, 8582
4, 3318, Pitch_bend_c, 2, 10662
4, 3322, Pitch_bend_c, 2, 12352
4, 3324, Pitch_bend_c, 2, 14692
4, 3328, Pitch_bend_c, 2, 15472
4, 3330, Pitch_bend_c, 2, 16122
4, 3336, Pitch_bend_c, 2, 16382
4, 3522, Control_c, 2, 1, 6
4, 3530, Control_c, 2, 1, 14
4, 3534, Control_c, 2, 1, 20
4, 3538, Control_c, 2, 1, 26
4, 3550, Control_c, 2, 1, 32
4, 3562, Control_c, 2, 1, 38
4, 3568, Control_c, 2, 1, 44
4, 3580, Control_c, 2, 1, 50
4, 3594, Control_c, 2, 1, 52
4, 3710, Control_c, 2, 1, 46
4, 3714, Control_c, 2, 1, 40
4, 3718, Control_c, 2, 1, 34
4, 3722, Control_c, 2, 1, 24
4, 3728, Note_on_c, 2, 50, 0
4, 3728, Control_c, 2, 1, 12
4, 3732, Control_c, 2, 1, 2
4, 3732, Control_c, 2, 1, 0
4, 3840, Note_on_c, 2, 57, 127
4, 3852, Pitch_bend_c, 2, 8576
4, 3856, Pitch_bend_c, 2, 8896
4, 3860, Pitch_bend_c, 2, 9280
4, 3864, Pitch_bend_c, 2, 9600
4, 3866, Pitch_bend_c, 2, 9984
4, 3870, Pitch_bend_c, 2, 10304
4, 3874, Pitch_bend_c, 2, 10752
4, 3876, Pitch_bend_c, 2, 11072
4, 3880, Pitch_bend_c, 2, 11392
4, 3884, Pitch_bend_c, 2, 11712
4, 3886, Pitch_bend_c, 2, 12096
4, 3890, Pitch_bend_c, 2, 12608
4, 3892, Pitch_bend_c, 2, 13120
4, 3896, Pitch_bend_c, 2, 13696
4, 3898, Pitch_bend_c, 2, 14528
4, 3900, Pitch_bend_c, 2, 15936
4, 3958, Note_on_c, 2, 57, 0
4, 3960, Note_on_c, 2, 60, 127
4, 4080, Note_on_c, 2, 60, 0
4, 4080, Note_on_c, 2, 65, 127
4, 4190, Pitch_bend_c, 2, 15616
4, 4192, Pitch_bend_c, 2, 15104
4, 4194, Note_on_c, 2, 65, 0
4, 4196, Pitch_bend_c, 2, 14656
4, 4198, Pitch_bend_c, 2, 14144
4, 4200, Note_on_c, 2, 57, 127
4, 4202, Pitch_bend_c, 2, 13632
4, 4204, Pitch_bend_c, 2, 13184
4, 4208, Pitch_bend_c, 2, 12672
4, 4210, Pitch_bend_c, 2, 12288
4, 4214, Pitch_bend_c, 2, 11840
4, 4216, Pitch_bend_c, 2, 11456
4, 4220, Pitch_bend_c, 2, 11136
4, 4222, Pitch_bend_c, 2, 10624
4, 4226, Pitch_bend_c, 2, 10112
4, 4228, Pitch_bend_c, 2, 9792
4, 4232, Pitch_bend_c, 2, 9408
4, 4234, Pitch_bend_c, 2, 9024
4, 4238, Pitch_bend_c, 2, 8512
4, 4242, Pitch_bend_c, 2, 8256
4, 4266, Control_c, 2, 1, 8
4, 4270, Control_c, 2, 1, 14
4, 4272, Control_c, 2, 1, 20
4, 4276, Control_c, 2, 1, 28
4, 4280, Control_c, 2, 1, 34
4, 4284, Control_c, 2, 1, 42
4, 4294, Control_c, 2, 1, 48
4, 4330, Control_c, 2, 1, 54
4, 4360, Control_c, 2, 1, 60
4, 4370, Control_c, 2, 1, 62
4, 4578, Control_c, 2, 1, 56
4, 4586, Control_c, 2, 1, 50
4, 4590, Control_c, 2, 1, 44
4, 4592, Control_c, 2, 1, 38
4, 4596, Control_c, 2, 1, 16
4, 4598, Note_on_c, 2, 57, 0
4, 4600, Control_c, 2, 1, 8
4, 4604, Control_c, 2, 1, 0
4, 4800, Note_on_c, 2, 55, 123
4, 4910, Note_on_c, 2, 55, 0
4, 4920, Note_on_c, 2, 50, 127
4, 5022, Note_on_c, 2, 38, 90
4, 5052, Pitch_bend_c, 2, 8712
4, 5056, Pitch_bend_c, 2, 10012
4, 5060, Pitch_bend_c, 2, 10922
4, 5062, Pitch_bend_c, 2, 12352
4, 5066, Pitch_bend_c, 2, 13782
4, 5070, Pitch_bend_c, 2, 15602
4, 5072, Pitch_bend_c, 2, 15992
4, 5078, Pitch_bend_c, 2, 16382
4, 5128, Note_on_c, 2, 50, 0
4, 5154, Pitch_bend_c, 2, 15992
4, 5156, Pitch_bend_c, 2, 15472
4, 5160, Note_on_c, 2, 50, 127
4, 5160, Pitch_bend_c, 2, 13912
4, 5164, Pitch_bend_c, 2, 13002
4, 5166, Note_on_c, 2, 38, 0
4, 5166, Pitch_bend_c, 2, 11312
4, 5170, Pitch_bend_c, 2, 9882
4, 5174, Pitch_bend_c, 2, 9232
4, 5176, Pitch_bend_c, 2, 8712
4, 5182, Pitch_bend_c, 2, 8192
4, 5236, Pitch_bend_c, 2, 8582
4, 5238, Pitch_bend_c, 2, 10662
4, 5242, Pitch_bend_c, 2, 12352
4, 5244, Pitch_bend_c, 2, 14692
4, 5248, Pitch_bend_c, 2, 15472
4, 5250, Pitch_bend_c, 2, 16122
4, 5256, Pitch_bend_c, 2, 16382
4, 5442, Control_c, 2, 1, 6
4, 5450, Control_c, 2, 1, 14
4, 5454, Control_c, 2, 1, 20
4, 5458, Control_c, 2, 1, 26
4, 5470, Control_c, 2, 1, 32
4, 5482, Control_c, 2, 1, 38
4, 5488, Control_c, 2, 1, 44
4, 5500, Control_c, 2, 1, 50
4, 5514, Control_c, 2, 1, 52
4, 5520, Note_on_c, 2, 50, 0
4, 5520, Pitch_bend_c, 2, 8256
4, 5628, Note_on_c, 2, 50, 122
4, 5630, Control_c, 2, 1, 46
4, 5634, Control_c, 2, 1, 40
4, 5638, Control_c, 2, 1, 34
4, 5642, Control_c, 2, 1, 24
4, 5648, Control_c, 2, 1, 12
4, 5652, Pitch_bend_c, 2, 8582
4, 5652, Control_c, 2, 1, 2
4, 5652, Control_c, 2, 1, 0
4, 5654, Pitch_bend_c, 2, 9102
4, 5658, Pitch_bend_c, 2, 10272
4, 5662, Pitch_bend_c, 2, 11052
4, 5664, Pitch_bend_c, 2, 12612
4, 5670, Pitch_bend_c, 2, 14562
4, 5674, Pitch_bend_c, 2, 15862
4, 5678, Pitch_bend_c, 2, 16252
4, 5680, Pitch_bend_c, 2, 16382
4, 5734, Note_on_c, 2, 50, 0
4, 5740, Pitch_bend_c, 2, 15862
4, 5744, Pitch_bend_c, 2, 8256
4, 5744, Pitch_bend_c, 2, 13392
4, 5748, Pitch_bend_c, 2, 10532
4, 5750, Pitch_bend_c, 2, 8192
4, 5752, Pitch_bend_c, 2, 8064
4, 5754, Pitch_bend_c, 2, 8192
4, 5758, Pitch_bend_c, 2, 8582
4, 5760, Note_on_c, 2, 55, 113
4, 5760, Pitch_bend_c, 2, 8972
4, 5766, Pitch_bend_c, 2, 8452
4, 5766, Pitch_bend_c, 2, 8192
4, 5770, Pitch_bend_c, 2, 7936
4, 5776, Pitch_bend_c, 2, 8192
4, 5856, Note_on_c, 2, 55, 0
4, 5880, Note_on_c, 2, 57, 113
4, 5954, Note_on_c, 2, 57, 0
4, 6000, Note_on_c, 2, 59, 113
4, 6104, Note_on_c, 2, 59, 0
4, 6120, Note_on_c, 2, 53, 113
4, 6128, Pitch_bend_c, 2, 8712
4, 6132, Pitch_bend_c, 2, 9102
4, 6134, Pitch_bend_c, 2, 9622
4, 6138, Pitch_bend_c, 2, 10402
4, 6144, Pitch_bend_c, 2, 11312
4, 6148, Pitch_bend_c, 2, 12742
4, 6150, Pitch_bend_c, 2, 13522
4, 6154, Pitch_bend_c, 2, 14692
4, 6158, Pitch_bend_c, 2, 15472
4, 6160, Pitch_bend_c, 2, 15862
4, 6164, Pitch_bend_c, 2, 16252
4, 6166, Pitch_bend_c, 2, 16382
4, 6366, Pitch_bend_c, 2, 15992
4, 6368, Pitch_bend_c, 2, 15472
4, 6372, Pitch_bend_c, 2, 15082
4, 6376, Pitch_bend_c, 2, 14432
4, 6380, Pitch_bend_c, 2, 14042
4, 6384, Pitch_bend_c, 2, 13782
4, 6392, Pitch_bend_c, 2, 14172
4, 6398, Pitch_bend_c, 2, 15212
4, 6400, Pitch_bend_c, 2, 15732
4, 6404, Pitch_bend_c, 2, 16252
4, 6408, Pitch_bend_c, 2, 16382
4, 6426, Pitch_bend_c, 2, 15992
4, 6428, Pitch_bend_c, 2, 15602
4, 6432, Pitch_bend_c, 2, 14692
4, 6434, Pitch_bend_c, 2, 13912
4, 6438, Pitch_bend_c, 2, 13132
4, 6442, Pitch_bend_c, 2, 12742
4, 6444, Pitch_bend_c, 2, 12352
4, 6452, Pitch_bend_c, 2, 12872
4, 6456, Pitch_bend_c, 2, 13652
4, 6458, Pitch_bend_c, 2, 15212
4, 6462, Pitch_bend_c, 2, 15732
4, 6466, Pitch_bend_c, 2, 16252
4, 6470, Pitch_bend_c, 2, 16382
4, 6496, Pitch_bend_c, 2, 15732
4, 6500, Pitch_bend_c, 2, 15342
4, 6504, Pitch_bend_c, 2, 15082
4, 6512, Pitch_bend_c, 2, 15602
4, 6514, Pitch_bend_c, 2, 16122
4, 6520, Pitch_bend_c, 2, 16382
4, 6562, Pitch_bend_c, 2, 16252
4, 6566, Pitch_bend_c, 2, 16382
4, 6616, Pitch_bend_c, 2, 15992
4, 6620, Note_on_c, 2, 53, 0
4, 6626, Pitch_bend_c, 2, 16382
4, 6640, Pitch_bend_c, 2, 15992
4, 6644, Pitch_bend_c, 2, 13522
4, 6646, Pitch_bend_c, 2, 10532
4, 6650, Pitch_bend_c, 2, 7808
4, 6652, Pitch_bend_c, 2, 7552
4, 6656, Pitch_bend_c, 2, 7936
4, 6656, Pitch_bend_c, 2, 8192
4, 6660, Pitch_bend_c, 2, 8972
4, 6664, Pitch_bend_c, 2, 8582
4, 6666, Pitch_bend_c, 2, 8192
4, 6668, Pitch_bend_c, 2, 7808
4, 6676, Pitch_bend_c, 2, 8192
4, 6700, Note_on_c, 2, 53, 108
4, 6726, Pitch_bend_c, 2, 8712
4, 6730, Pitch_bend_c, 2, 9492
4, 6732, Pitch_bend_c, 2, 10402
4, 6736, Pitch_bend_c, 2, 11832
4, 6740, Pitch_bend_c, 2, 13002
4, 6742, Pitch_bend_c, 2, 14172
4, 6746, Pitch_bend_c, 2, 15472
4, 6748, Pitch_bend_c, 2, 15992
4, 6756, Pitch_bend_c, 2, 16382
4, 6834, Note_on_c, 2, 53, 0
4, 6840, Note_on_c, 2, 45, 122
4, 6842, Pitch_bend_c, 2, 14822
4, 6846, Pitch_bend_c, 2, 12742
4, 6850, Pitch_bend_c, 2, 8192
4, 6852, Pitch_bend_c, 2, 7296
4, 6856, Pitch_bend_c, 2, 7936
4, 6856, Pitch_bend_c, 2, 8192
4, 6860, Pitch_bend_c, 2, 8842
4, 6862, Pitch_bend_c, 2, 8972
4, 6866, Pitch_bend_c, 2, 8322
4, 6866, Pitch_bend_c, 2, 8192
4, 6870, Pitch_bend_c, 2, 7680
4, 6874, Pitch_bend_c, 2, 8064
4, 6876, Pitch_bend_c, 2, 8192
4, 6886, Pitch_bend_c, 2, 8064
4, 6888, Pitch_bend_c, 2, 8192
4, 6954, Note_on_c, 2, 45, 0
4, 6960, Note_on_c, 2, 40, 113
4, 7074, Note_on_c, 2, 40, 0
4, 7080, Note_on_c, 2, 43, 104
4, 7206, Pitch_bend_c, 2, 8582
4, 7214, Pitch_bend_c, 2, 8972
4, 7228, Pitch_bend_c, 2, 8582
4, 7234, Pitch_bend_c, 2, 8192
4, 7318, Pitch_bend_c, 2, 7808
4, 7322, Pitch_bend_c, 2, 7552
4, 7334, Pitch_bend_c, 2, 7936
4, 7338, Pitch_bend_c, 2, 8192
4, 7348, Pitch_bend_c, 2, 8582
4, 7352, Pitch_bend_c, 2, 9102
4, 7356, Pitch_bend_c, 2, 9622
4, 7358, Pitch_bend_c, 2, 10532
4, 7362, Pitch_bend_c, 2, 11052
4, 7364, Pitch_bend_c, 2, 11442
4, 7366, Pitch_bend_c, 2, 11572
4, 7376, Pitch_bend_c, 2, 11182
4, 7382, Pitch_bend_c, 2, 10662
4, 7384, Pitch_bend_c, 2, 10012
4, 7388, Pitch_bend_c, 2, 9622
4, 7390, Pitch_bend_c, 2, 9232
4, 7394, Pitch_bend_c, 2, 8842
4, 7398, Pitch_bend_c, 2, 8452
4, 7400, Pitch_bend_c, 2, 8322
4, 7412, Pitch_bend_c, 2, 8712
4, 7416, Pitch_bend_c, 2, 9492
4, 7418, Pitch_bend_c, 2, 9882
4, 7422, Pitch_bend_c, 2, 10792
4, 7426, Pitch_bend_c, 2, 11312
4, 7428, Pitch_bend_c, 2, 11832
4, 7432, Pitch_bend_c, 2, 12352
4, 7438, Pitch_bend_c, 2, 12612
4, 7444, Pitch_bend_c, 2, 12092
4, 7448, Pitch_bend_c, 2, 11702
4, 7452, Pitch_bend_c, 2, 11182
4, 7456, Pitch_bend_c, 2, 10792
4, 7458, Pitch_bend_c, 2, 9882
4, 7462, Pitch_bend_c, 2, 9492
4, 7464, Pitch_bend_c, 2, 9102
4, 7468, Pitch_bend_c, 2, 8712
4, 7474, Pitch_bend_c, 2, 8452
4, 7486, Pitch_bend_c, 2, 8842
4, 7490, Pitch_bend_c, 2, 10272
4, 7492, Pitch_bend_c, 2, 10662
4, 7496, Pitch_bend_c, 2, 11442
4, 7500, Pitch_bend_c, 2, 11832
4, 7502, Pitch_bend_c, 2, 12352
4, 7508, Pitch_bend_c, 2, 12612
4, 7518, Pitch_bend_c, 2, 12092
4, 7526, Pitch_bend_c, 2, 11572
4, 7528, Pitch_bend_c, 2, 11182
4, 7532, Pitch_bend_c, 2, 10792
4, 7536, Pitch_bend_c, 2, 9882
4, 7538, Pitch_bend_c, 2, 9492
4, 7540, Note_on_c, 2, 43, 0
4, 7542, Pitch_bend_c, 2, 8972
4, 7544, Pitch_bend_c, 2, 8582
4, 7550, Pitch_bend_c, 2, 8192
4, 7566, Note_on_c, 2, 45, 127
4, 7666, Note_on_c, 2, 45, 0
4, 7678, Note_on_c, 2, 45, 127
4, 7710, Pitch_bend_c, 2, 8842
4, 7712, Pitch_bend_c, 2, 9362
4, 7716, Pitch_bend_c, 2, 10922
4, 7718, Pitch_bend_c, 2, 11702
4, 7722, Pitch_bend_c, 2, 13522
4, 7726, Pitch_bend_c, 2, 14562
4, 7730, Pitch_bend_c, 2, 15862
4, 7732, Pitch_bend_c, 2, 16252
4, 7736, Pitch_bend_c, 2, 16382
4, 7774, Note_on_c, 2, 45, 0
4, 7804, Note_on_c, 2, 53, 122
4, 7890, Pitch_bend_c, 2, 15992
4, 7894, Pitch_bend_c, 2, 15212
4, 7898, Pitch_bend_c, 2, 14692
4, 7900, Pitch_bend_c, 2, 13002
4, 7904, Pitch_bend_c, 2, 11702
4, 7908, Pitch_bend_c, 2, 9752
4, 7910, Pitch_bend_c, 2, 9362
4, 7912, Note_on_c, 2, 53, 0
4, 7914, Pitch_bend_c, 2, 8582
4, 7916, Note_on_c, 2, 57, 122
4, 7918, Pitch_bend_c, 2, 8192
4, 7942, Pitch_bend_c, 2, 8582
4, 7944, Pitch_bend_c, 2, 9752
4, 7948, Pitch_bend_c, 2, 10662
4, 7950, Pitch_bend_c, 2, 12092
4, 7954, Pitch_bend_c, 2, 13912
4, 7958, Pitch_bend_c, 2, 15732
4, 7962, Pitch_bend_c, 2, 16122
4, 7964, Pitch_bend_c, 2, 16382
4, 8018, Pitch_bend_c, 2, 15992
4, 8020, Pitch_bend_c, 2, 15472
4, 8024, Pitch_bend_c, 2, 13652
4, 8028, Pitch_bend_c, 2, 11702
4, 8032, Note_on_c, 2, 57, 0
4, 8032, Pitch_bend_c, 2, 10012
4, 8036, Pitch_bend_c, 2, 9102
4, 8038, Pitch_bend_c, 2, 8192
4, 8038, Note_on_c, 2, 55, 125
4, 8044, Pitch_bend_c, 2, 7680
4, 8048, Pitch_bend_c, 2, 7296
4, 8050, Pitch_bend_c, 2, 7168
4, 8058, Pitch_bend_c, 2, 7552
4, 8062, Pitch_bend_c, 2, 7936
4, 8068, Pitch_bend_c, 2, 8192
4, 8072, Pitch_bend_c, 2, 8582
4, 8076, Pitch_bend_c, 2, 9752
4, 8078, Pitch_bend_c, 2, 11052
4, 8082, Pitch_bend_c, 2, 11962
4, 8084, Pitch_bend_c, 2, 14172
4, 8088, Pitch_bend_c, 2, 15212
4, 8090, Pitch_bend_c, 2, 15992
4, 8096, Pitch_bend_c, 2, 16382
4, 8228, Control_c, 2, 1, 6
4, 8236, Control_c, 2, 1, 12
4, 8246, Control_c, 2, 1, 18
4, 8260, Control_c, 2, 1, 26
4, 8274, Control_c, 2, 1, 32
4, 8292, Control_c, 2, 1, 38
4, 8308, Control_c, 2, 1, 44
4, 8322, Control_c, 2, 1, 50
4, 8356, Control_c, 2, 1, 56
4, 8370, Control_c, 2, 1, 62
4, 8390, Control_c, 2, 1, 68
4, 8394, Note_on_c, 2, 55, 0
4, 8400, Control_c, 2, 1, 1
4, 8400, Pitch_bend_c, 2, 8256
4, 8404, Note_on_c, 2, 55, 127
4, 8516, Note_on_c, 2, 55, 0
4, 8518, Note_on_c, 2, 50, 127
4, 8636, Note_on_c, 2, 57, 125
4, 8638, Note_on_c, 2, 50, 0
4, 8680, Pitch_bend_c, 2, 8712
4, 8682, Pitch_bend_c, 2, 9232
4, 8686, Pitch_bend_c, 2, 9752
4, 8690, Pitch_bend_c, 2, 11052
4, 8692, Pitch_bend_c, 2, 11962
4, 8696, Pitch_bend_c, 2, 13652
4, 8698, Pitch_bend_c, 2, 14952
4, 8706, Pitch_bend_c, 2, 15602
4, 8710, Pitch_bend_c, 2, 16382
4, 8758, Note_on_c, 2, 57, 0
4, 8770, Note_on_c, 2, 60, 126
4, 8838, Note_on_c, 2, 60, 0
4, 8888, Note_on_c, 2, 60, 127
4, 8968, Note_on_c, 2, 60, 0
4, 8986, Pitch_bend_c, 2, 15992
4, 8988, Pitch_bend_c, 2, 15472
4, 8992, Pitch_bend_c, 2, 14692
4, 8996, Pitch_bend_c, 2, 14042
4, 8998, Pitch_bend_c, 2, 13002
4, 9002, Pitch_bend_c, 2, 12352
4, 9006, Pitch_bend_c, 2, 10792
4, 9010, Pitch_bend_c, 2, 9882
4, 9012, Pitch_bend_c, 2, 9362
4, 9012, Note_on_c, 2, 62, 127
4, 9016, Pitch_bend_c, 2, 8972
4, 9020, Pitch_bend_c, 2, 8452
4, 9022, Pitch_bend_c, 2, 8192
4, 9054, Pitch_bend_c, 2, 8582
4, 9058, Pitch_bend_c, 2, 9102
4, 9060, Pitch_bend_c, 2, 10272
4, 9066, Pitch_bend_c, 2, 11442
4, 9070, Pitch_bend_c, 2, 13262
4, 9072, Pitch_bend_c, 2, 14172
4, 9076, Pitch_bend_c, 2, 15082
4, 9080, Pitch_bend_c, 2, 15862
4, 9084, Pitch_bend_c, 2, 16252
4, 9086, Pitch_bend_c, 2, 16382
4, 9162, Control_c, 2, 1, 6
4, 9168, Control_c, 2, 1, 12
4, 9172, Control_c, 2, 1, 18
4, 9180, Control_c, 2, 1, 24
4, 9186, Control_c, 2, 1, 30
4, 9192, Control_c, 2, 1, 36
4, 9202, Control_c, 2, 1, 42
4, 9210, Control_c, 2, 1, 48
4, 9218, Control_c, 2, 1, 54
4, 9226, Control_c, 2, 1, 60
4, 9236, Control_c, 2, 1, 66
4, 9268, Control_c, 2, 1, 72
4, 9356, Note_on_c, 2, 62, 0
4, 9360, Control_c, 2, 1, 0
4, 9366, Pitch_bend_c, 2, 8322
4, 9368, Pitch_bend_c, 2, 8712
4, 9372, Pitch_bend_c, 2, 9102
4, 9372, Note_on_c, 2, 50, 91
4, 9374, Pitch_bend_c, 2, 9752
4, 9378, Pitch_bend_c, 2, 10792
4, 9382, Pitch_bend_c, 2, 11702
4, 9386, Pitch_bend_c, 2, 13132
4, 9390, Pitch_bend_c, 2, 13782
4, 9394, Pitch_bend_c, 2, 15472
4, 9396, Pitch_bend_c, 2, 16122
4, 9400, Pitch_bend_c, 2, 16382
4, 9492, Note_on_c, 2, 45, 90
4, 9498, Note_on_c, 2, 50, 0
4, 9500, Pitch_bend_c, 2, 15992
4, 9502, Pitch_bend_c, 2, 15602
4, 9506, Pitch_bend_c, 2, 14692
4, 9510, Pitch_bend_c, 2, 14042
4, 9512, Pitch_bend_c, 2, 13782
4, 9512, Pitch_bend_c, 2, 16252
4, 9514, Pitch_bend_c, 2, 13132
4, 9514, Pitch_bend_c, 2, 15992
4, 9514, Pitch_bend_c, 2, 12742
4, 9516, Pitch_bend_c, 2, 15732
4, 9516, Pitch_bend_c, 2, 12352
4, 9518, Pitch_bend_c, 2, 14952
4, 9518, Pitch_bend_c, 2, 11832
4, 9520, Pitch_bend_c, 2, 14562
4, 9520, Pitch_bend_c, 2, 11442
4, 9520, Pitch_bend_c, 2, 14042
4, 9522, Pitch_bend_c, 2, 10012
4, 9524, Pitch_bend_c, 2, 13262
4, 9524, Pitch_bend_c, 2, 9752
4, 9524, Pitch_bend_c, 2, 13002
4, 9526, Pitch_bend_c, 2, 9492
4, 9526, Pitch_bend_c, 2, 11962
4, 9528, Pitch_bend_c, 2, 9232
4, 9528, Pitch_bend_c, 2, 11052
4, 9528, Pitch_bend_c, 2, 9102
4, 9530, Pitch_bend_c, 2, 10662
4, 9530, Pitch_bend_c, 2, 8712
4, 9532, Pitch_bend_c, 2, 10272
4, 9532, Pitch_bend_c, 2, 8582
4, 9534, Pitch_bend_c, 2, 9362
4, 9534, Pitch_bend_c, 2, 8452
4, 9536, Pitch_bend_c, 2, 9102
4, 9536, Pitch_bend_c, 2, 8322
4, 9536, Pitch_bend_c, 2, 8842
4, 9538, Pitch_bend_c, 2, 8192
4, 9544, Pitch_bend_c, 2, 7680
4, 9548, Pitch_bend_c, 2, 6272
4, 9552, Pitch_bend_c, 2, 5120
4, 9554, Pitch_bend_c, 2, 4096
4, 9558, Pitch_bend_c, 2, 3328
4, 9562, Pitch_bend_c, 2, 2048
4, 9566, Pitch_bend_c, 2, 896
4, 9570, Pitch_bend_c, 2, 128
4, 9570, Pitch_bend_c, 2, 0
4, 9598, Note_on_c, 2, 45, 0
4, 9598, Pitch_bend_c, 2, 8256
4, 9600, Note_on_c, 2, 40, 93
4, 9820, Note_on_c, 2, 59, 72
4, 9828, Note_on_c, 2, 64, 72
4, 9832, Note_on_c, 2, 67, 72
4, 9850, Note_on_c, 2, 40, 0
4, 9992, Note_on_c, 2, 59, 0
4, 9996, Note_on_c, 2, 64, 0
4, 9998, Note_on_c, 2, 67, 0
4, 10026, Note_on_c, 2, 59, 72
4, 10030, Note_on_c, 2, 64, 72
4, 10030, Note_on_c, 2, 67, 72
4, 10054, Note_on_c, 2, 59, 0
4, 10054, Note_on_c, 2, 64, 0
4, 10064, Note_on_c, 2, 67, 0
4, 10082, Note_on_c, 2, 40, 98
4, 10116, Note_on_c, 2, 40, 0
4, 10160, Note_on_c, 2, 59, 72
4, 10164, Note_on_c, 2, 64, 72
4, 10166, Note_on_c, 2, 67, 72
4, 10176, Note_on_c, 2, 59, 0
4, 10178, Note_on_c, 2, 64, 0
4, 10182, Note_on_c, 2, 40, 96
4, 10190, Note_on_c, 2, 67, 0
4, 10304, Note_on_c, 2, 59, 72
4, 10316, Note_on_c, 2, 64, 72
4, 10322, Note_on_c, 2, 67, 72
4, 10330, Note_on_c, 2, 40, 0
4, 10536, Note_on_c, 2, 59, 0
4, 10540, Note_on_c, 2, 64, 0
4, 10556, Note_on_c, 2, 67, 0
4, 10556, Note_on_c, 2, 43, 87
4, 10560, Note_on_c, 2, 50, 84
4, 10562, Note_on_c, 2, 55, 84
4, 10760, Note_on_c, 2, 43, 0
4, 10764, Note_on_c, 2, 50, 0
4, 10766, Note_on_c, 2, 55, 0
4, 10796, Note_on_c, 2, 43, 84
4, 10800, Note_on_c, 2, 50, 84
4, 10802, Note_on_c, 2, 55, 84
4, 10914, Note_on_c, 2, 43, 0
4, 11000, Note_on_c, 2, 50, 0
4, 11032, Note_on_c, 2, 55, 0
4, 11040, Note_on_c, 2, 45, 87
4, 11094, Note_on_c, 2, 52, 84
4, 11100, Note_on_c, 2, 57, 84
4, 11124, Note_on_c, 2, 45, 0
4, 11160, Note_on_c, 2, 45, 87
4, 11190, Note_on_c, 2, 52, 0
4, 11208, Note_on_c, 2, 57, 0
4, 11244, Note_on_c, 2, 45, 0
4, 11270, Note_on_c, 2, 45, 84
4, 11280, Note_on_c, 2, 52, 84
4, 11292, Note_on_c, 2, 57, 84
4, 11516, Note_on_c, 2, 52, 0
4, 11518, Note_on_c, 2, 45, 0
4, 11520, Note_on_c, 2, 57, 0
4, 11520, Note_on_c, 2, 40, 93
4, 11740, Note_on_c, 2, 59, 72
4, 11748, Note_on_c, 2, 64, 72
4, 11752, Note_on_c, 2, 67, 72
4, 11770, Note_on_c, 2, 40, 0
4, 11972, Note_on_c, 2, 59, 0
4, 11980, Note_on_c, 2, 64, 0
4, 11988, Note_on_c, 2, 67, 0
4, 12002, Note_on_c, 2, 40, 98
4, 12066, Note_on_c, 2, 40, 0
4, 12080, Note_on_c, 2, 59, 72
4, 12084, Note_on_c, 2, 64, 72
4, 12102, Note_on_c, 2, 40, 96
4, 12104, Note_on_c, 2, 59, 0
4, 12106, Note_on_c, 2, 64, 0
4, 12224, Note_on_c, 2, 59, 72
4, 12236, Note_on_c, 2, 64, 72
4, 12242, Note_on_c, 2, 67, 72
4, 12430, Note_on_c, 2, 40, 0
4, 12456, Note_on_c, 2, 59, 0
4, 12460, Note_on_c, 2, 64, 0
4, 12476, Note_on_c, 2, 67, 0
4, 12476, Note_on_c, 2, 43, 87
4, 12480, Note_on_c, 2, 50, 84
4, 12482, Note_on_c, 2, 55, 84
4, 12680, Note_on_c, 2, 43, 0
4, 12684, Note_on_c, 2, 50, 0
4, 12686, Note_on_c, 2, 55, 0
4, 12716, Note_on_c, 2, 43, 84
4, 12720, Note_on_c, 2, 50, 84
4, 12722, Note_on_c, 2, 55, 84
4, 12834, Note_on_c, 2, 43, 0
4, 12920, Note_on_c, 2, 50, 0
4, 12952, Note_on_c, 2, 55, 0
4, 12960, Note_on_c, 2, 45, 87
4, 13014, Note_on_c, 2, 52, 84
4, 13020, Note_on_c, 2, 57, 84
4, 13044, Note_on_c, 2, 45, 0
4, 13080, Note_on_c, 2, 45, 87
4, 13110, Note_on_c, 2, 52, 0
4, 13128, Note_on_c, 2, 57, 0
4, 13164, Note_on_c, 2, 45, 0
4, 13188, Note_on_c, 2, 45, 84
4, 13200, Note_on_c, 2, 57, 84
4, 13200, Note_on_c, 2, 52, 84
4, 13434, Note_on_c, 2, 45, 0
4, 13436, Note_on_c, 2, 52, 0
4, 13438, Note_on_c, 2, 57, 0
4, 13440, Note_on_c, 2, 40, 93
4, 13660, Note_on_c, 2, 59, 72
4, 13668, Note_on_c, 2, 64, 72
4, 13672, Note_on_c, 2, 67, 72
4, 13690, Note_on_c, 2, 40, 0
4, 13832, Note_on_c, 2, 59, 0
4, 13836, Note_on_c, 2, 64, 0
4, 13838, Note_on_c, 2, 67, 0
4, 13866, Note_on_c, 2, 59, 72
4, 13894, Note_on_c, 2, 59, 0
4, 13922, Note_on_c, 2, 40, 98
4, 14000, Note_on_c, 2, 59, 72
4, 14004, Note_on_c, 2, 40, 0
4, 14016, Note_on_c, 2, 59, 0
4, 14022, Note_on_c, 2, 40, 96
4, 14144, Note_on_c, 2, 59, 72
4, 14156, Note_on_c, 2, 64, 72
4, 14162, Note_on_c, 2, 67, 72
4, 14364, Note_on_c, 2, 40, 0
4, 14376, Note_on_c, 2, 59, 0
4, 14380, Note_on_c, 2, 64, 0
4, 14396, Note_on_c, 2, 67, 0
4, 14396, Note_on_c, 2, 43, 87
4, 14400, Note_on_c, 2, 50, 84
4, 14402, Note_on_c, 2, 55, 84
4, 14600, Note_on_c, 2, 43, 0
4, 14604, Note_on_c, 2, 50, 0
4, 14606, Note_on_c, 2, 55, 0
4, 14636, Note_on_c, 2, 43, 84
4, 14640, Note_on_c, 2, 50, 84
4, 14642, Note_on_c, 2, 55, 84
4, 14754, Note_on_c, 2, 43, 0
4, 14840, Note_on_c, 2, 50, 0
4, 14872, Note_on_c, 2, 55, 0
4, 14880, Note_on_c, 2, 45, 87
4, 14934, Note_on_c, 2, 52, 84
4, 14940, Note_on_c, 2, 57, 84
4, 14964, Note_on_c, 2, 45, 0
4, 15000, Note_on_c, 2, 45, 87
4, 15030, Note_on_c, 2, 52, 0
4, 15048, Note_on_c, 2, 57, 0
4, 15084, Note_on_c, 2, 45, 0
4, 15110, Note_on_c, 2, 45, 84
4, 15120, Note_on_c, 2, 52, 84
4, 15128, Note_on_c, 2, 57, 84
4, 15358, Note_on_c, 2, 45, 0
4, 15360, Note_on_c, 2, 52, 0
4, 15360, Note_on_c, 2, 57, 0
4, 15360, Note_on_c, 2, 40, 93
4, 15580, Note_on_c, 2, 59, 72
4, 15588, Note_on_c, 2, 64, 72
4, 15592, Note_on_c, 2, 67, 72
4, 15610, Note_on_c, 2, 40, 0
4, 15812, Note_on_c, 2, 59, 0
4, 15820, Note_on_c, 2, 64, 0
4, 15828, Note_on_c, 2, 67, 0
4, 15842, Note_on_c, 2, 40, 98
4, 15906, Note_on_c, 2, 40, 0
4, 15920, Note_on_c, 2, 59, 72
4, 15924, Note_on_c, 2, 64, 72
4, 15932, Note_on_c, 2, 59, 0
4, 15934, Note_on_c, 2, 64, 0
4, 15942, Note_on_c, 2, 40, 96
4, 16064, Note_on_c, 2, 59, 72
4, 16076, Note_on_c, 2, 64, 72
4, 16082, Note_on_c, 2, 67, 72
4, 16270, Note_on_c, 2, 40, 0
4, 16296, Note_on_c, 2, 59, 0
4, 16300, Note_on_c, 2, 64, 0
4, 16316, Note_on_c, 2, 67, 0
4, 16316, Note_on_c, 2, 43, 87
4, 16320, Note_on_c, 2, 50, 84
4, 16322, Note_on_c, 2, 55, 84
4, 16520, Note_on_c, 2, 43, 0
4, 16524, Note_on_c, 2, 50, 0
4, 16526, Note_on_c, 2, 55, 0
4, 16556, Note_on_c, 2, 43, 84
4, 16560, Note_on_c, 2, 50, 84
4, 16562, Note_on_c, 2, 55, 84
4, 16674, Note_on_c, 2, 43, 0
4, 16760, Note_on_c, 2, 50, 0
4, 16792, Note_on_c, 2, 55, 0
4, 16800, Note_on_c, 2, 45, 87
4, 16854, Note_on_c, 2, 52, 84
4, 16860, Note_on_c, 2, 57, 84
4, 16884, Note_on_c, 2, 45, 0
4, 16920, Note_on_c, 2, 45, 87
4, 16950, Note_on_c, 2, 52, 0
4, 16968, Note_on_c, 2, 57, 0
4, 17004, Note_on_c, 2, 45, 0
4, 17030, Note_on_c, 2, 45, 84
4, 17040, Note_on_c, 2, 52, 84
4, 17052, Note_on_c, 2, 57, 84
4, 17280, Note_on_c, 2, 45, 0
4, 17280, Note_on_c, 2, 52, 0
4, 17280, Note_on_c, 2, 57, 0
4, 17280, Note_on_c, 2, 40, 93
4, 17500, Note_on_c, 2, 59, 72
4, 17508, Note_on_c, 2, 64, 72
4, 17512, Note_on_c, 2, 67, 72
4, 17530, Note_on_c, 2, 40, 0
4, 17732, Note_on_c, 2, 59, 0
4, 17740, Note_on_c, 2, 64, 0
4, 17748, Note_on_c, 2, 67, 0
4, 17762, Note_on_c, 2, 40, 98
4, 17826, Note_on_c, 2, 40, 0
4, 17840, Note_on_c, 2, 59, 72
4, 17844, Note_on_c, 2, 64, 72
4, 17852, Note_on_c, 2, 59, 0
4, 17854, Note_on_c, 2, 64, 0
4, 17862, Note_on_c, 2, 40, 96
4, 17984, Note_on_c, 2, 59, 72
4, 17996, Note_on_c, 2, 64, 72
4, 18002, Note_on_c, 2, 67, 72
4, 18190, Note_on_c, 2, 40, 0
4, 18216, Note_on_c, 2, 59, 0
4, 18220, Note_on_c, 2, 64, 0
4, 18236, Note_on_c, 2, 67, 0
4, 18236, Note_on_c, 2, 43, 87
4, 18240, Note_on_c, 2, 50, 84
4, 18242, Note_on_c, 2, 55, 84
4, 18440, Note_on_c, 2, 43, 0
4, 18444, Note_on_c, 2, 50, 0
4, 18446, Note_on_c, 2, 55, 0
4, 18476, Note_on_c, 2, 43, 84
4, 18480, Note_on_c, 2, 50, 84
4, 18482, Note_on_c, 2, 55, 84
4, 18594, Note_on_c, 2, 43, 0
4, 18680, Note_on_c, 2, 50, 0
4, 18712, Note_on_c, 2, 55, 0
4, 18720, Note_on_c, 2, 45, 87
4, 18774, Note_on_c, 2, 52, 84
4, 18780, Note_on_c, 2, 57, 84
4, 18804, Note_on_c, 2, 45, 0
4, 18840, Note_on_c, 2, 45, 87
4, 18870, Note_on_c, 2, 52, 0
4, 18888, Note_on_c, 2, 57, 0
4, 18924, Note_on_c, 2, 45, 0
4, 18950, Note_on_c, 2, 45, 84
4, 18960, Note_on_c, 2, 52, 84
4, 18968, Note_on_c, 2, 57, 84
4, 19198, Note_on_c, 2, 45, 0
4, 19198, Note_on_c, 2, 52, 0
4, 19200, Note_on_c, 2, 57, 0
4, 19200, Note_on_c, 2, 40, 84
4, 19346, Note_on_c, 2, 40, 0
4, 20640, Note_on_c, 2, 54, 127
4, 20750, Note_on_c, 2, 54, 0
4, 20760, Note_on_c, 2, 52, 127
4, 20880, Note_on_c, 2, 50, 127
4, 20884, Note_on_c, 2, 52, 0
4, 21116, Note_on_c, 2, 50, 0
4, 21120, Note_on_c, 2, 57, 127
4, 21148, Pitch_bend_c, 2, 8712
4, 21152, Pitch_bend_c, 2, 9622
4, 21156, Pitch_bend_c, 2, 10402
4, 21160, Pitch_bend_c, 2, 11832
4, 21162, Pitch_bend_c, 2, 12872
4, 21166, Pitch_bend_c, 2, 13782
4, 21170, Pitch_bend_c, 2, 15212
4, 21172, Pitch_bend_c, 2, 15732
4, 21176, Pitch_bend_c, 2, 16252
4, 21180, Pitch_bend_c, 2, 16382
4, 21240, Note_on_c, 2, 60, 127
4, 21246, Note_on_c, 2, 57, 0
4, 21354, Control_c, 2, 1, 8
4, 21360, Control_c, 2, 1, 14
4, 21360, Note_on_c, 2, 65, 127
4, 21366, Control_c, 2, 1, 22
4, 21368, Note_on_c, 2, 60, 0
4, 21370, Control_c, 2, 1, 28
4, 21374, Control_c, 2, 1, 34
4, 21380, Control_c, 2, 1, 40
4, 21384, Control_c, 2, 1, 46
4, 21388, Control_c, 2, 1, 52
4, 21396, Control_c, 2, 1, 58
4, 21404, Control_c, 2, 1, 64
4, 21408, Control_c, 2, 1, 70
4, 21416, Control_c, 2, 1, 76
4, 21424, Control_c, 2, 1, 82
4, 21434, Control_c, 2, 1, 88
4, 21474, Control_c, 2, 1, 92
4, 21510, Control_c, 2, 1, 86
4, 21532, Note_on_c, 2, 65, 0
4, 21550, Control_c, 2, 1, 80
4, 21558, Pitch_bend_c, 2, 15732
4, 21560, Pitch_bend_c, 2, 15342
4, 21564, Pitch_bend_c, 2, 14822
4, 21568, Control_c, 2, 1, 74
4, 21568, Pitch_bend_c, 2, 13782
4, 21570, Pitch_bend_c, 2, 13002
4, 21574, Pitch_bend_c, 2, 11702
4, 21576, Control_c, 2, 1, 68
4, 21578, Pitch_bend_c, 2, 10662
4, 21582, Pitch_bend_c, 2, 9622
4, 21582, Control_c, 2, 1, 60
4, 21584, Pitch_bend_c, 2, 8972
4, 21586, Control_c, 2, 1, 54
4, 21588, Pitch_bend_c, 2, 8582
4, 21590, Control_c, 2, 1, 46
4, 21592, Pitch_bend_c, 2, 8192
4, 21594, Control_c, 2, 1, 38
4, 21596, Control_c, 2, 1, 30
4, 21600, Note_on_c, 2, 57, 127
4, 21600, Control_c, 2, 1, 20
4, 21604, Control_c, 2, 1, 6
4, 21610, Control_c, 2, 1, 0
4, 21616, Pitch_bend_c, 2, 8712
4, 21620, Pitch_bend_c, 2, 9362
4, 21622, Pitch_bend_c, 2, 10272
4, 21626, Pitch_bend_c, 2, 11702
4, 21630, Pitch_bend_c, 2, 13132
4, 21634, Pitch_bend_c, 2, 15342
4, 21636, Pitch_bend_c, 2, 15862
4, 21640, Pitch_bend_c, 2, 16252
4, 21644, Pitch_bend_c, 2, 16382
4, 21720, Note_on_c, 2, 60, 127
4, 21724, Note_on_c, 2, 57, 0
4, 21822, Control_c, 2, 1, 6
4, 21826, Control_c, 2, 1, 12
4, 21834, Control_c, 2, 1, 20
4, 21836, Control_c, 2, 1, 26
4, 21838, Note_on_c, 2, 60, 0
4, 21840, Note_on_c, 2, 65, 125
4, 21842, Control_c, 2, 1, 32
4, 21848, Control_c, 2, 1, 40
4, 21852, Control_c, 2, 1, 46
4, 21856, Control_c, 2, 1, 52
4, 21862, Control_c, 2, 1, 60
4, 21870, Control_c, 2, 1, 66
4, 21874, Control_c, 2, 1, 72
4, 21882, Control_c, 2, 1, 78
4, 21888, Control_c, 2, 1, 84
4, 21910, Control_c, 2, 1, 90
4, 21954, Control_c, 2, 1, 88
4, 21984, Control_c, 2, 1, 90
4, 22022, Control_c, 2, 1, 84
4, 22028, Control_c, 2, 1, 78
4, 22034, Control_c, 2, 1, 70
4, 22038, Control_c, 2, 1, 60
4, 22042, Note_on_c, 2, 65, 0
4, 22042, Control_c, 2, 1, 44
4, 22046, Control_c, 2, 1, 32
4, 22048, Control_c, 2, 1, 18
4, 22052, Control_c, 2, 1, 6
4, 22060, Control_c, 2, 1, 0
4, 22064, Pitch_bend_c, 2, 15732
4, 22068, Pitch_bend_c, 2, 14822
4, 22070, Pitch_bend_c, 2, 13262
4, 22074, Pitch_bend_c, 2, 10272
4, 22076, Pitch_bend_c, 2, 8712
4, 22078, Pitch_bend_c, 2, 8256
4, 22080, Note_on_c, 2, 57, 127
4, 22092, Pitch_bend_c, 2, 8576
4, 22096, Pitch_bend_c, 2, 8896
4, 22100, Pitch_bend_c, 2, 9280
4, 22104, Pitch_bend_c, 2, 9600
4, 22106, Pitch_bend_c, 2, 9984
4, 22110, Pitch_bend_c, 2, 10304
4, 22114, Pitch_bend_c, 2, 10752
4, 22116, Pitch_bend_c, 2, 11072
4, 22120, Pitch_bend_c, 2, 11392
4, 22124, Pitch_bend_c, 2, 11712
4, 22126, Pitch_bend_c, 2, 12096
4, 22130, Pitch_bend_c, 2, 12608
4, 22132, Pitch_bend_c, 2, 13120
4, 22136, Pitch_bend_c, 2, 13696
4, 22138, Pitch_bend_c, 2, 14528
4, 22140, Pitch_bend_c, 2, 15936
4, 22194, Note_on_c, 2, 57, 0
4, 22200, Note_on_c, 2, 60, 127
4, 22318, Note_on_c, 2, 60, 0
4, 22320, Note_on_c, 2, 65, 127
4, 22432, Pitch_bend_c, 2, 8256
4, 22438, Note_on_c, 2, 65, 0
4, 22440, Note_on_c, 2, 57, 127
4, 22504, Control_c, 2, 1, 2
4, 22506, Control_c, 2, 1, 8
4, 22510, Control_c, 2, 1, 14
4, 22512, Control_c, 2, 1, 20
4, 22516, Control_c, 2, 1, 28
4, 22520, Control_c, 2, 1, 34
4, 22524, Control_c, 2, 1, 42
4, 22534, Control_c, 2, 1, 48
4, 22570, Control_c, 2, 1, 54
4, 22600, Control_c, 2, 1, 60
4, 22610, Control_c, 2, 1, 62
4, 22818, Control_c, 2, 1, 56
4, 22826, Control_c, 2, 1, 50
4, 22830, Control_c, 2, 1, 44
4, 22832, Control_c, 2, 1, 38
4, 22836, Control_c, 2, 1, 16
4, 22838, Note_on_c, 2, 57, 0
4, 22840, Control_c, 2, 1, 8
4, 22844, Control_c, 2, 1, 0
4, 23040, Note_on_c, 2, 55, 123
4, 23150, Note_on_c, 2, 55, 0
4, 23160, Note_on_c, 2, 50, 127
4, 23256, Note_on_c, 2, 38, 90
4, 23292, Pitch_bend_c, 2, 8712
4, 23296, Pitch_bend_c, 2, 10012
4, 23300, Pitch_bend_c, 2, 10922
4, 23302, Pitch_bend_c, 2, 12352
4, 23306, Pitch_bend_c, 2, 13782
4, 23310, Pitch_bend_c, 2, 15602
4, 23312, Pitch_bend_c, 2, 15992
4, 23318, Pitch_bend_c, 2, 16382
4, 23348, Note_on_c, 2, 50, 0
4, 23392, Note_on_c, 2, 38, 0
4, 23394, Pitch_bend_c, 2, 15992
4, 23396, Pitch_bend_c, 2, 15472
4, 23400, Note_on_c, 2, 50, 127
4, 23400, Pitch_bend_c, 2, 13912
4, 23404, Pitch_bend_c, 2, 13002
4, 23406, Pitch_bend_c, 2, 11312
4, 23410, Pitch_bend_c, 2, 9882
4, 23414, Pitch_bend_c, 2, 9232
4, 23416, Pitch_bend_c, 2, 8712
4, 23422, Pitch_bend_c, 2, 8192
4, 23476, Pitch_bend_c, 2, 8582
4, 23478, Pitch_bend_c, 2, 10662
4, 23482, Pitch_bend_c, 2, 12352
4, 23484, Pitch_bend_c, 2, 14692
4, 23488, Pitch_bend_c, 2, 15472
4, 23490, Pitch_bend_c, 2, 16122
4, 23496, Pitch_bend_c, 2, 16382
4, 23682, Control_c, 2, 1, 6
4, 23690, Control_c, 2, 1, 14
4, 23694, Control_c, 2, 1, 20
4, 23698, Control_c, 2, 1, 26
4, 23710, Control_c, 2, 1, 32
4, 23722, Control_c, 2, 1, 38
4, 23728, Control_c, 2, 1, 44
4, 23740, Control_c, 2, 1, 50
4, 23754, Control_c, 2, 1, 52
4, 23870, Control_c, 2, 1, 46
4, 23874, Control_c, 2, 1, 40
4, 23878, Control_c, 2, 1, 34
4, 23882, Control_c, 2, 1, 24
4, 23888, Note_on_c, 2, 50, 0
4, 23888, Control_c, 2, 1, 12
4, 23892, Control_c, 2, 1, 2
4, 23892, Control_c, 2, 1, 0
4, 24000, Note_on_c, 2, 57, 127
4, 24012, Pitch_bend_c, 2, 8576
4, 24016, Pitch_bend_c, 2, 8896
4, 24020, Pitch_bend_c, 2, 9280
4, 24024, Pitch_bend_c, 2, 9600
4, 24026, Pitch_bend_c, 2, 9984
4, 24030, Pitch_bend_c, 2, 10304
4, 24034, Pitch_bend_c, 2, 10752
4, 24036, Pitch_bend_c, 2, 11072
4, 24040, Pitch_bend_c, 2, 11392
4, 24044, Pitch_bend_c, 2, 11712
4, 24046, Pitch_bend_c, 2, 12096
4, 24050, Pitch_bend_c, 2, 12608
4, 24052, Pitch_bend_c, 2, 13120
4, 24056, Pitch_bend_c, 2, 13696
4, 24058, Pitch_bend_c, 2, 14528
4, 24060, Pitch_bend_c, 2, 15936
4, 24118, Note_on_c, 2, 57, 0
4, 24120, Note_on_c, 2, 60, 127
4, 24240, Note_on_c, 2, 60, 0
4, 24240, Note_on_c, 2, 65, 127
4, 24350, Pitch_bend_c, 2, 15616
4, 24352, Pitch_bend_c, 2, 15104
4, 24354, Note_on_c, 2, 65, 0
4, 24356, Pitch_bend_c, 2, 14656
4, 24358, Pitch_bend_c, 2, 14144
4, 24360, Note_on_c, 2, 57, 127
4, 24362, Pitch_bend_c, 2, 13632
4, 24364, Pitch_bend_c, 2, 13184
4, 24368, Pitch_bend_c, 2, 12672
4, 24370, Pitch_bend_c, 2, 12288
4, 24374, Pitch_bend_c, 2, 11840
4, 24376, Pitch_bend_c, 2, 11456
4, 24380, Pitch_bend_c, 2, 11136
4, 24382, Pitch_bend_c, 2, 10624
4, 24386, Pitch_bend_c, 2, 10112
4, 24388, Pitch_bend_c, 2, 9792
4, 24392, Pitch_bend_c, 2, 9408
4, 24394, Pitch_bend_c, 2, 9024
4, 24398, Pitch_bend_c, 2, 8512
4, 24402, Pitch_bend_c, 2, 8256
4, 24426, Control_c, 2, 1, 8
4, 24430, Control_c, 2, 1, 14
4, 24432, Control_c, 2, 1, 20
4, 24436, Control_c, 2, 1, 28
4, 24440, Control_c, 2, 1, 34
4, 24444, Control_c, 2, 1, 42
4, 24454, Control_c, 2, 1, 48
4, 24490, Control_c, 2, 1, 54
4, 24520, Control_c, 2, 1, 60
4, 24530, Control_c, 2, 1, 62
4, 24738, Control_c, 2, 1, 56
4, 24746, Control_c, 2, 1, 50
4, 24750, Control_c, 2, 1, 44
4, 24752, Control_c, 2, 1, 38
4, 24756, Control_c, 2, 1, 16
4, 24758, Note_on_c, 2, 57, 0
4, 24760, Control_c, 2, 1, 8
4, 24764, Control_c, 2, 1, 0
4, 24960, Note_on_c, 2, 55, 123
4, 25070, Note_on_c, 2, 55, 0
4, 25080, Note_on_c, 2, 50, 127
4, 25182, Note_on_c, 2, 38, 90
4, 25212, Pitch_bend_c, 2, 8712
4, 25216, Pitch_bend_c, 2, 10012
4, 25220, Pitch_bend_c, 2, 10922
4, 25222, Pitch_bend_c, 2, 12352
4, 25226, Pitch_bend_c, 2, 13782
4, 25230, Pitch_bend_c, 2, 15602
4, 25232, Pitch_bend_c, 2, 15992
4, 25238, Pitch_bend_c, 2, 16382
4, 25288, Note_on_c, 2, 50, 0
4, 25314, Pitch_bend_c, 2, 15992
4, 25316, Pitch_bend_c, 2, 15472
4, 25320, Note_on_c, 2, 50, 127
4, 25320, Pitch_bend_c, 2, 13912
4, 25324, Pitch_bend_c, 2, 13002
4, 25326, Note_on_c, 2, 38, 0
4, 25326, Pitch_bend_c, 2, 11312
4, 25330, Pitch_bend_c, 2, 9882
4, 25334, Pitch_bend_c, 2, 9232
4, 25336, Pitch_bend_c, 2, 8712
4, 25342, Pitch_bend_c, 2, 8192
4, 25396, Pitch_bend_c, 2, 8582
4, 25398, Pitch_bend_c, 2, 10662
4, 25402, Pitch_bend_c, 2, 12352
4, 25404, Pitch_bend_c, 2, 14692
4, 25408, Pitch_bend_c, 2, 15472
4, 25410, Pitch_bend_c, 2, 16122
4, 25416, Pitch_bend_c, 2, 16382
4, 25602, Control_c, 2, 1, 6
4, 25610, Control_c, 2, 1, 14
4, 25614, Control_c, 2, 1, 20
4, 25618, Control_c, 2, 1, 26
4, 25630, Control_c, 2, 1, 32
4, 25642, Control_c, 2, 1, 38
4, 25648, Control_c, 2, 1, 44
4, 25660, Control_c, 2, 1, 50
4, 25674, Control_c, 2, 1, 52
4, 25680, Note_on_c, 2, 50, 0
4, 25680, Pitch_bend_c, 2, 8256
4, 25788, Note_on_c, 2, 50, 122
4, 25790, Control_c, 2, 1, 46
4, 25794, Control_c, 2, 1, 40
4, 25798, Control_c, 2, 1, 34
4, 25802, Control_c, 2, 1, 24
4, 25808, Control_c, 2, 1, 12
4, 25812, Pitch_bend_c, 2, 8582
4, 25812, Control_c, 2, 1, 2
4, 25812, Control_c, 2, 1, 0
4, 25814, Pitch_bend_c, 2, 9102
4, 25818, Pitch_bend_c, 2, 10272
4, 25822, Pitch_bend_c, 2, 11052
4, 25824, Pitch_bend_c, 2, 12612
4, 25830, Pitch_bend_c, 2, 14562
4, 25834, Pitch_bend_c, 2, 15862
4, 25838, Pitch_bend_c, 2, 16252
4, 25840, Pitch_bend_c, 2, 16382
4, 25894, Note_on_c, 2, 50, 0
4, 25900, Pitch_bend_c, 2, 15862
4, 25904, Pitch_bend_c, 2, 8256
4, 25904, Pitch_bend_c, 2, 13392
4, 25908, Pitch_bend_c, 2, 10532
4, 25910, Pitch_bend_c, 2, 8192
4, 25912, Pitch_bend_c, 2, 8064
4, 25914, Pitch_bend_c, 2, 8192
4, 25918, Pitch_bend_c, 2, 8582
4, 25920, Note_on_c, 2, 55, 113
4, 25920, Pitch_bend_c, 2, 8972
4, 25926, Pitch_bend_c, 2, 8452
4, 25926, Pitch_bend_c, 2, 8192
4, 25930, Pitch_bend_c, 2, 7936
4, 25936, Pitch_bend_c, 2, 8192
4, 26016, Note_on_c, 2, 55, 0
4, 26040, Note_on_c, 2, 57, 113
4, 26114, Note_on_c, 2, 57, 0
4, 26160, Note_on_c, 2, 59, 113
4, 26264, Note_on_c, 2, 59, 0
4, 26280, Note_on_c, 2, 53, 113
4, 26288, Pitch_bend_c, 2, 8712
4, 26292, Pitch_bend_c, 2, 9102
4, 26294, Pitch_bend_c, 2, 9622
4, 26298, Pitch_bend_c, 2, 10402
4, 26304, Pitch_bend_c, 2, 11312
4, 26308, Pitch_bend_c, 2, 12742
4, 26310, Pitch_bend_c, 2, 13522
4, 26314, Pitch_bend_c, 2, 14692
4, 26318, Pitch_bend_c, 2, 15472
4, 26320, Pitch_bend_c, 2, 15862
4, 26324, Pitch_bend_c, 2, 16252
4, 26326, Pitch_bend_c, 2, 16382
4, 26526, Pitch_bend_c, 2, 15992
4, 26528, Pitch_bend_c, 2, 15472
4, 26532, Pitch_bend_c, 2, 15082
4, 26536, Pitch_bend_c, 2, 14432
4, 26540, Pitch_bend_c, 2, 14042
4, 26544, Pitch_bend_c, 2, 13782
4, 26552, Pitch_bend_c, 2, 14172
4, 26558, Pitch_bend_c, 2, 15212
4, 26560, Pitch_bend_c, 2, 15732
4, 26564, Pitch_bend_c, 2, 16252
4, 26568, Pitch_bend_c, 2, 16382
4, 26586, Pitch_bend_c, 2, 15992
4, 26588, Pitch_bend_c, 2, 15602
4, 26592, Pitch_bend_c, 2, 14692
4, 26594, Pitch_bend_c, 2, 13912
4, 26598, Pitch_bend_c, 2, 13132
4, 26602, Pitch_bend_c, 2, 12742
4, 26604, Pitch_bend_c, 2, 12352
4, 26612, Pitch_bend_c, 2, 12872
4, 26616, Pitch_bend_c, 2, 13652
4, 26618, Pitch_bend_c, 2, 15212
4, 26622, Pitch_bend_c, 2, 15732
4, 26626, Pitch_bend_c, 2, 16252
4, 26630, Pitch_bend_c, 2, 16382
4, 26656, Pitch_bend_c, 2, 15732
4, 26660, Pitch_bend_c, 2, 15342
4, 26664, Pitch_bend_c, 2, 15082
4, 26672, Pitch_bend_c, 2, 15602
4, 26674, Pitch_bend_c, 2, 16122
4, 26680, Pitch_bend_c, 2, 16382
4, 26722, Pitch_bend_c, 2, 16252
4, 26726, Pitch_bend_c, 2, 16382
4, 26776, Pitch_bend_c, 2, 15992
4, 26780, Note_on_c, 2, 53, 0
4, 26786, Pitch_bend_c, 2, 16382
4, 26800, Pitch_bend_c, 2, 15992
4, 26804, Pitch_bend_c, 2, 13522
4, 26806, Pitch_bend_c, 2, 10532
4, 26810, Pitch_bend_c, 2, 7808
4, 26812, Pitch_bend_c, 2, 7552
4, 26816, Pitch_bend_c, 2, 7936
4, 26816, Pitch_bend_c, 2, 8192
4, 26820, Pitch_bend_c, 2, 8972
4, 26824, Pitch_bend_c, 2, 8582
4, 26826, Pitch_bend_c, 2, 8192
4, 26828, Pitch_bend_c, 2, 7808
4, 26836, Pitch_bend_c, 2, 8192
4, 26860, Note_on_c, 2, 53, 108
4, 26886, Pitch_bend_c, 2, 8712
4, 26890, Pitch_bend_c, 2, 9492
4, 26892, Pitch_bend_c, 2, 10402
4, 26896, Pitch_bend_c, 2, 11832
4, 26900, Pitch_bend_c, 2, 13002
4, 26902, Pitch_bend_c, 2, 14172
4, 26906, Pitch_bend_c, 2, 15472
4, 26908, Pitch_bend_c, 2, 15992
4, 26916, Pitch_bend_c, 2, 16382
4, 26994, Note_on_c, 2, 53, 0
4, 27000, Note_on_c, 2, 45, 122
4, 27002, Pitch_bend_c, 2, 14822
4, 27006, Pitch_bend_c, 2, 12742
4, 27010, Pitch_bend_c, 2, 8192
4, 27012, Pitch_bend_c, 2, 7296
4, 27016, Pitch_bend_c, 2, 7936
4, 27016, Pitch_bend_c, 2, 8192
4, 27020, Pitch_bend_c, 2, 8842
4, 27022, Pitch_bend_c, 2, 8972
4, 27026, Pitch_bend_c, 2, 8322
4, 27026, Pitch_bend_c, 2, 8192
4, 27030, Pitch_bend_c, 2, 7680
4, 27034, Pitch_bend_c, 2, 8064
4, 27036, Pitch_bend_c, 2, 8192
4, 27046, Pitch_bend_c, 2, 8064
4, 27048, Pitch_bend_c, 2, 8192
4, 27114, Note_on_c, 2, 45, 0
4, 27120, Note_on_c, 2, 40, 113
4, 27234, Note_on_c, 2, 40, 0
4, 27240, Note_on_c, 2, 43, 104
4, 27366, Pitch_bend_c, 2, 8582
4, 27374, Pitch_bend_c, 2, 8972
4, 27388, Pitch_bend_c, 2, 8582
4, 27394, Pitch_bend_c, 2, 8192
4, 27478, Pitch_bend_c, 2, 7808
4, 27482, Pitch_bend_c, 2, 7552
4, 27494, Pitch_bend_c, 2, 7936
4, 27498, Pitch_bend_c, 2, 8192
4, 27508, Pitch_bend_c, 2, 8582
4, 27512, Pitch_bend_c, 2, 9102
4, 27516, Pitch_bend_c, 2, 9622
4, 27518, Pitch_bend_c, 2, 10532
4, 27522, Pitch_bend_c, 2, 11052
4, 27524, Pitch_bend_c, 2, 11442
4, 27526, Pitch_bend_c, 2, 11572
4, 27536, Pitch_bend_c, 2, 11182
4, 27542, Pitch_bend_c, 2, 10662
4, 27544, Pitch_bend_c, 2, 10012
4, 27548, Pitch_bend_c, 2, 9622
4, 27550, Pitch_bend_c, 2, 9232
4, 27554, Pitch_bend_c, 2, 8842
4, 27558, Pitch_bend_c, 2, 8452
4, 27560, Pitch_bend_c, 2, 8322
4, 27572, Pitch_bend_c, 2, 8712
4, 27576, Pitch_bend_c, 2, 9492
4, 27578, Pitch_bend_c, 2, 9882
4, 27582, Pitch_bend_c, 2, 10792
4, 27586, Pitch_bend_c, 2, 11312
4, 27588, Pitch_bend_c, 2, 11832
4, 27592, Pitch_bend_c, 2, 12352
4, 27598, Pitch_bend_c, 2, 12612
4, 27604, Pitch_bend_c, 2, 12092
4, 27608, Pitch_bend_c, 2, 11702
4, 27612, Pitch_bend_c, 2, 11182
4, 27616, Pitch_bend_c, 2, 10792
4, 27618, Pitch_bend_c, 2, 9882
4, 27622, Pitch_bend_c, 2, 9492
4, 27624, Pitch_bend_c, 2, 9102
4, 27628, Pitch_bend_c, 2, 8712
4, 27634, Pitch_bend_c, 2, 8452
4, 27646, Pitch_bend_c, 2, 8842
4, 27650, Pitch_bend_c, 2, 10272
4, 27652, Pitch_bend_c, 2, 10662
4, 27656, Pitch_bend_c, 2, 11442
4, 27660, Pitch_bend_c, 2, 11832
4, 27662, Pitch_bend_c, 2, 12352
4, 27668, Pitch_bend_c, 2, 12612
4, 27678, Pitch_bend_c, 2, 12092
4, 27686, Pitch_bend_c, 2, 11572
4, 27688, Pitch_bend_c, 2, 11182
4, 27692, Pitch_bend_c, 2, 10792
4, 27696, Pitch_bend_c, 2, 9882
4, 27698, Pitch_bend_c, 2, 9492
4, 27700, Note_on_c, 2, 43, 0
4, 27702, Pitch_bend_c, 2, 8972
4, 27704, Pitch_bend_c, 2, 8582
4, 27710, Pitch_bend_c, 2, 8192
4, 27726, Note_on_c, 2, 45, 127
4, 27826, Note_on_c, 2, 45, 0
4, 27838, Note_on_c, 2, 45, 127
4, 27870, Pitch_bend_c, 2, 8842
4, 27872, Pitch_bend_c, 2, 9362
4, 27876, Pitch_bend_c, 2, 10922
4, 27878, Pitch_bend_c, 2, 11702
4, 27882, Pitch_bend_c, 2, 13522
4, 27886, Pitch_bend_c, 2, 14562
4, 27890, Pitch_bend_c, 2, 15862
4, 27892, Pitch_bend_c, 2, 16252
4, 27896, Pitch_bend_c, 2, 16382
4, 27934, Note_on_c, 2, 45, 0
4, 27964, Note_on_c, 2, 53, 122
4, 28050, Pitch_bend_c, 2, 15992
4, 28054, Pitch_bend_c, 2, 15212
4, 28058, Pitch_bend_c, 2, 14692
4, 28060, Pitch_bend_c, 2, 13002
4, 28064, Pitch_bend_c, 2, 11702
4, 28068, Pitch_bend_c, 2, 9752
4, 28070, Pitch_bend_c, 2, 9362
4, 28072, Note_on_c, 2, 53, 0
4, 28074, Pitch_bend_c, 2, 8582
4, 28076, Note_on_c, 2, 57, 122
4, 28078, Pitch_bend_c, 2, 8192
4, 28102, Pitch_bend_c, 2, 8582
4, 28104, Pitch_bend_c, 2, 9752
4, 28108, Pitch_bend_c, 2, 10662
4, 28110, Pitch_bend_c, 2, 12092
4, 28114, Pitch_bend_c, 2, 13912
4, 28118, Pitch_bend_c, 2, 15732
4, 28122, Pitch_bend_c, 2, 16122
4, 28124, Pitch_bend_c, 2, 16382
4, 28178, Pitch_bend_c, 2, 15992
4, 28180, Pitch_bend_c, 2, 15472
4, 28184, Pitch_bend_c, 2, 13652
4, 28188, Pitch_bend_c, 2, 11702
4, 28192, Note_on_c, 2, 57, 0
4, 28192, Pitch_bend_c, 2, 10012
4, 28196, Pitch_bend_c, 2, 9102
4, 28198, Pitch_bend_c, 2, 8192
4, 28198, Note_on_c, 2, 55, 125
4, 28204, Pitch_bend_c, 2, 7680
4, 28208, Pitch_bend_c, 2, 7296
4, 28210, Pitch_bend_c, 2, 7168
4, 28218, Pitch_bend_c, 2, 7552
4, 28222, Pitch_bend_c, 2, 7936
4, 28228, Pitch_bend_c, 2, 8192
4, 28232, Pitch_bend_c, 2, 8582
4, 28236, Pitch_bend_c, 2, 9752
4, 28238, Pitch_bend_c, 2, 11052
4, 28242, Pitch_bend_c, 2, 11962
4, 28244, Pitch_bend_c, 2, 14172
4, 28248, Pitch_bend_c, 2, 15212
4, 28250, Pitch_bend_c, 2, 15992
4, 28256, Pitch_bend_c, 2, 16382
4, 28388, Control_c, 2, 1, 6
4, 28396, Control_c, 2, 1, 12
4, 28406, Control_c, 2, 1, 18
4, 28420, Control_c, 2, 1, 26
4, 28434, Control_c, 2, 1, 32
4, 28452, Control_c, 2, 1, 38
4, 28468, Control_c, 2, 1, 44
4, 28482, Control_c, 2, 1, 50
4, 28516, Control_c, 2, 1, 56
4, 28530, Control_c, 2, 1, 62
4, 28550, Control_c, 2, 1, 68
4, 28554, Note_on_c, 2, 55, 0
4, 28560, Control_c, 2, 1, 1
4, 28560, Pitch_bend_c, 2, 8256
4, 28564, Note_on_c, 2, 55, 127
4, 28676, Note_on_c, 2, 55, 0
4, 28678, Note_on_c, 2, 50, 127
4, 28796, Note_on_c, 2, 57, 125
4, 28798, Note_on_c, 2, 50, 0
4, 28840, Pitch_bend_c, 2, 8712
4, 28842, Pitch_bend_c, 2, 9232
4, 28846, Pitch_bend_c, 2, 9752
4, 28850, Pitch_bend_c, 2, 11052
4, 28852, Pitch_bend_c, 2, 11962
4, 28856, Pitch_bend_c, 2, 13652
4, 28858, Pitch_bend_c, 2, 14952
4, 28866, Pitch_bend_c, 2, 15602
4, 28870, Pitch_bend_c, 2, 16382
4, 28918, Note_on_c, 2, 57, 0
4, 28930, Note_on_c, 2, 60, 126
4, 28998, Note_on_c, 2, 60, 0
4, 29048, Note_on_c, 2, 60, 127
4, 29128, Note_on_c, 2, 60, 0
4, 29146, Pitch_bend_c, 2, 15992
4, 29148, Pitch_bend_c, 2, 15472
4, 29152, Pitch_bend_c, 2, 14692
4, 29156, Pitch_bend_c, 2, 14042
4, 29158, Pitch_bend_c, 2, 13002
4, 29162, Pitch_bend_c, 2, 12352
4, 29166, Pitch_bend_c, 2, 10792
4, 29170, Pitch_bend_c, 2, 9882
4, 29172, Pitch_bend_c, 2, 9362
4, 29172, Note_on_c, 2, 62, 127
4, 29176, Pitch_bend_c, 2, 8972
4, 29180, Pitch_bend_c, 2, 8452
4, 29182, Pitch_bend_c, 2, 8192
4, 29214, Pitch_bend_c, 2, 8582
4, 29218, Pitch_bend_c, 2, 9102
4, 29220, Pitch_bend_c, 2, 10272
4, 29226, Pitch_bend_c, 2, 11442
4, 29230, Pitch_bend_c, 2, 13262
4, 29232, Pitch_bend_c, 2, 14172
4, 29236, Pitch_bend_c, 2, 15082
4, 29240, Pitch_bend_c, 2, 15862
4, 29244, Pitch_bend_c, 2, 16252
4, 29246, Pitch_bend_c, 2, 16382
4, 29322, Control_c, 2, 1, 6
4, 29328, Control_c, 2, 1, 12
4, 29332, Control_c, 2, 1, 18
4, 29340, Control_c, 2, 1, 24
4, 29346, Control_c, 2, 1, 30
4, 29352, Control_c, 2, 1, 36
4, 29362, Control_c, 2, 1, 42
4, 29370, Control_c, 2, 1, 48
4, 29378, Control_c, 2, 1, 54
4, 29386, Control_c, 2, 1, 60
4, 29396, Control_c, 2, 1, 66
4, 29428, Control_c, 2, 1, 72
4, 29516, Note_on_c, 2, 62, 0
4, 29520, Control_c, 2, 1, 0
4, 29526, Pitch_bend_c, 2, 8322
4, 29528, Pitch_bend_c, 2, 8712
4, 29532, Pitch_bend_c, 2, 9102
4, 29532, Note_on_c, 2, 50, 91
4, 29534, Pitch_bend_c, 2, 9752
4, 29538, Pitch_bend_c, 2, 10792
4, 29542, Pitch_bend_c, 2, 11702
4, 29546, Pitch_bend_c, 2, 13132
4, 29550, Pitch_bend_c, 2, 13782
4, 29554, Pitch_bend_c, 2, 15472
4, 29556, Pitch_bend_c, 2, 16122
4, 29560, Pitch_bend_c, 2, 16382
4, 29652, Note_on_c, 2, 45, 90
4, 29658, Note_on_c, 2, 50, 0
4, 29660, Pitch_bend_c, 2, 15992
4, 29662, Pitch_bend_c, 2, 15602
4, 29666, Pitch_bend_c, 2, 14692
4, 29670, Pitch_bend_c, 2, 14042
4, 29672, Pitch_bend_c, 2, 13782
4, 29672, Pitch_bend_c, 2, 16252
4, 29674, Pitch_bend_c, 2, 13132
4, 29674, Pitch_bend_c, 2, 15992
4, 29674, Pitch_bend_c, 2, 12742
4, 29676, Pitch_bend_c, 2, 15732
4, 29676, Pitch_bend_c, 2, 12352
4, 29678, Pitch_bend_c, 2, 14952
4, 29678, Pitch_bend_c, 2, 11832
4, 29680, Pitch_bend_c, 2, 14562
4, 29680, Pitch_bend_c, 2, 11442
4, 29680, Pitch_bend_c, 2, 14042
4, 29682, Pitch_bend_c, 2, 10012
4, 29684, Pitch_bend_c, 2, 13262
4, 29684, Pitch_bend_c, 2, 9752
4, 29684, Pitch_bend_c, 2, 13002
4, 29686, Pitch_bend_c, 2, 9492
4, 29686, Pitch_bend_c, 2, 11962
4, 29688, Pitch_bend_c, 2, 9232
4, 29688, Pitch_bend_c, 2, 11052
4, 29688, Pitch_bend_c, 2, 9102
4, 29690, Pitch_bend_c, 2, 10662
4, 29690, Pitch_bend_c, 2, 8712
4, 29692, Pitch_bend_c, 2, 10272
4, 29692, Pitch_bend_c, 2, 8582
4, 29694, Pitch_bend_c, 2, 9362
4, 29694, Pitch_bend_c, 2, 8452
4, 29696, Pitch_bend_c, 2, 9102
4, 29696, Pitch_bend_c, 2, 8322
4, 29696, Pitch_bend_c, 2, 8842
4, 29698, Pitch_bend_c, 2, 8192
4, 29704, Pitch_bend_c, 2, 7680
4, 29708, Pitch_bend_c, 2, 6272
4, 29712, Pitch_bend_c, 2, 5120
4, 29714, Pitch_bend_c, 2, 4096
4, 29718, Pitch_bend_c, 2, 3328
4, 29722, Pitch_bend_c, 2, 2048
4, 29726, Pitch_bend_c, 2, 896
4, 29730, Pitch_bend_c, 2, 128
4, 29730, Pitch_bend_c, 2, 0
4, 29758, Note_on_c, 2, 45, 0
4, 29758, Pitch_bend_c, 2, 8256
4, 29760, Note_on_c, 2, 40, 93
4, 29980, Note_on_c, 2, 59, 72
4, 29988, Note_on_c, 2, 64, 72
4, 29992, Note_on_c, 2, 67, 72
4, 30010, Note_on_c, 2, 40, 0
4, 30152, Note_on_c, 2, 59, 0
4, 30156, Note_on_c, 2, 64, 0
4, 30158, Note_on_c, 2, 67, 0
4, 30186, Note_on_c, 2, 59, 72
4, 30190, Note_on_c, 2, 64, 72
4, 30190, Note_on_c, 2, 67, 72
4, 30214, Note_on_c, 2, 59, 0
4, 30214, Note_on_c, 2, 64, 0
4, 30224, Note_on_c, 2, 67, 0
4, 30242, Note_on_c, 2, 40, 98
4, 30276, Note_on_c, 2, 40, 0
4, 30320, Note_on_c, 2, 59, 72
4, 30324, Note_on_c, 2, 64, 72
4, 30326, Note_on_c, 2, 67, 72
4, 30336, Note_on_c, 2, 59, 0
4, 30338, Note_on_c, 2, 64, 0
4, 30342, Note_on_c, 2, 40, 96
4, 30350, Note_on_c, 2, 67, 0
4, 30464, Note_on_c, 2, 59, 72
4, 30476, Note_on_c, 2, 64, 72
4, 30482, Note_on_c, 2, 67, 72
4, 30490, Note_on_c, 2, 40, 0
4, 30696, Note_on_c, 2, 59, 0
4, 30700, Note_on_c, 2, 64, 0
4, 30716, Note_on_c, 2, 67, 0
4, 30716, Note_on_c, 2, 43, 87
4, 30720, Note_on_c, 2, 50, 84
4, 30722, Note_on_c, 2, 55, 84
4, 30920, Note_on_c, 2, 43, 0
4, 30924, Note_on_c, 2, 50, 0
4, 30926, Note_on_c, 2, 55, 0
4, 30956, Note_on_c, 2, 43, 84
4, 30960, Note_on_c, 2, 50, 84
4, 30962, Note_on_c, 2, 55, 84
4, 31074, Note_on_c, 2, 43, 0
4, 31160, Note_on_c, 2, 50, 0
4, 31192, Note_on_c, 2, 55, 0
4, 31200, Note_on_c, 2, 45, 87
4, 31254, Note_on_c, 2, 52, 84
4, 31260, Note_on_c, 2, 57, 84
4, 31284, Note_on_c, 2, 45, 0
4, 31320, Note_on_c, 2, 45, 87
4, 31350, Note_on_c, 2, 52, 0
4, 31368, Note_on_c, 2, 57, 0
4, 31404, Note_on_c, 2, 45, 0
4, 31430, Note_on_c, 2, 45, 84
4, 31440, Note_on_c, 2, 52, 84
4, 31452, Note_on_c, 2, 57, 84
4, 31676, Note_on_c, 2, 52, 0
4, 31678, Note_on_c, 2, 45, 0
4, 31680, Note_on_c, 2, 57, 0
4, 31680, Note_on_c, 2, 40, 93
4, 31900, Note_on_c, 2, 59, 72
4, 31908, Note_on_c, 2, 64, 72
4, 31912, Note_on_c, 2, 67, 72
4, 31930, Note_on_c, 2, 40, 0
4, 32132, Note_on_c, 2, 59, 0
4, 32140, Note_on_c, 2, 64, 0
4, 32148, Note_on_c, 2, 67, 0
4, 32162, Note_on_c, 2, 40, 98
4, 32226, Note_on_c, 2, 40, 0
4, 32240, Note_on_c, 2, 59, 72
4, 32244, Note_on_c, 2, 64, 72
4, 32262, Note_on_c, 2, 40, 96
4, 32264, Note_on_c, 2, 59, 0
4, 32266, Note_on_c, 2, 64, 0
4, 32384, Note_on_c, 2, 59, 72
4, 32396, Note_on_c, 2, 64, 72
4, 32402, Note_on_c, 2, 67, 72
4, 32590, Note_on_c, 2, 40, 0
4, 32616, Note_on_c, 2, 59, 0
4, 32620, Note_on_c, 2, 64, 0
4, 32636, Note_on_c, 2, 67, 0
4, 32636, Note_on_c, 2, 43, 87
4, 32640, Note_on_c, 2, 50, 84
4, 32642, Note_on_c, 2, 55, 84
4, 32840, Note_on_c, 2, 43, 0
4, 32844, Note_on_c, 2, 50, 0
4, 32846, Note_on_c, 2, 55, 0
4, 32876, Note_on_c, 2, 43, 84
4, 32880, Note_on_c, 2, 50, 84
4, 32882, Note_on_c, 2, 55, 84
4, 32994, Note_on_c, 2, 43, 0
4, 33080, Note_on_c, 2, 50, 0
4, 33112, Note_on_c, 2, 55, 0
4, 33120, Note_on_c, 2, 45, 87
4, 33174, Note_on_c, 2, 52, 84
4, 33180, Note_on_c, 2, 57, 84
4, 33204, Note_on_c, 2, 45, 0
4, 33240, Note_on_c, 2, 45, 87
4, 33270, Note_on_c, 2, 52, 0
4, 33288, Note_on_c, 2, 57, 0
4, 33324, Note_on_c, 2, 45, 0
4, 33348, Note_on_c, 2, 45, 84
4, 33360, Note_on_c, 2, 57, 84
4, 33360, Note_on_c, 2, 52, 84
4, 33594, Note_on_c, 2, 45, 0
4, 33596, Note_on_c, 2, 52, 0
4, 33598, Note_on_c, 2, 57, 0
4, 33600, Note_on_c, 2, 40, 93
4, 33820, Note_on_c, 2, 59, 72
4, 33828, Note_on_c, 2, 64, 72
4, 33832, Note_on_c, 2, 67, 72
4, 33850, Note_on_c, 2, 40, 0
4, 33992, Note_on_c, 2, 59, 0
4, 33996, Note_on_c, 2, 64, 0
4, 33998, Note_on_c, 2, 67, 0
4, 34026, Note_on_c, 2, 59, 72
4, 34054, Note_on_c, 2, 59, 0
4, 34082, Note_on_c, 2, 40, 98
4, 34160, Note_on_c, 2, 59, 72
4, 34164, Note_on_c, 2, 40, 0
4, 34176, Note_on_c, 2, 59, 0
4, 34182, Note_on_c, 2, 40, 96
4, 34304, Note_on_c, 2, 59, 72
4, 34316, Note_on_c, 2, 64, 72
4, 34322, Note_on_c, 2, 67, 72
4, 34524, Note_on_c, 2, 40, 0
4, 34536, Note_on_c, 2, 59, 0
4, 34540, Note_on_c, 2, 64, 0
4, 34556, Note_on_c, 2, 67, 0
4, 34556, Note_on_c, 2, 43, 87
4, 34560, Note_on_c, 2, 50, 84
4, 34562, Note_on_c, 2, 55, 84
4, 34760, Note_on_c, 2, 43, 0
4, 34764, Note_on_c, 2, 50, 0
4, 34766, Note_on_c, 2, 55, 0
4, 34796, Note_on_c, 2, 43, 84
4, 34800, Note_on_c, 2, 50, 84
4, 34802, Note_on_c, 2, 55, 84
4, 34914, Note_on_c, 2, 43, 0
4, 35000, Note_on_c, 2, 50, 0
4, 35032, Note_on_c, 2, 55, 0
4, 35040, Note_on_c, 2, 45, 87
4, 35094, Note_on_c, 2, 52, 84
4, 35100, Note_on_c, 2, 57, 84
4, 35124, Note_on_c, 2, 45, 0
4, 35160, Note_on_c, 2, 45, 87
4, 35190, Note_on_c, 2, 52, 0
4, 35208, Note_on_c, 2, 57, 0
4, 35244, Note_on_c, 2, 45, 0
4, 35270, Note_on_c, 2, 45, 84
4, 35280, Note_on_c, 2, 52, 84
4, 35288, Note_on_c, 2, 57, 84
4, 35518, Note_on_c, 2, 45, 0
4, 35520, Note_on_c, 2, 52, 0
4, 35520, Note_on_c, 2, 57, 0
4, 35520, Note_on_c, 2, 40, 93
4, 35740, Note_on_c, 2, 59, 72
4, 35748, Note_on_c, 2, 64, 72
4, 35752, Note_on_c, 2, 67, 72
4, 35770, Note_on_c, 2, 40, 0
4, 35972, Note_on_c, 2, 59, 0
4, 35980, Note_on_c, 2, 64, 0
4, 35988, Note_on_c, 2, 67, 0
4, 36002, Note_on_c, 2, 40, 98
4, 36066, Note_on_c, 2, 40, 0
4, 36080, Note_on_c, 2, 59, 72
4, 36084, Note_on_c, 2, 64, 72
4, 36092, Note_on_c, 2, 59, 0
4, 36094, Note_on_c, 2, 64, 0
4, 36102, Note_on_c, 2, 40, 96
4, 36224, Note_on_c, 2, 59, 72
4, 36236, Note_on_c, 2, 64, 72
4, 36242, Note_on_c, 2, 67, 72
4, 36430, Note_on_c, 2, 40, 0
4, 36456, Note_on_c, 2, 59, 0
4, 36460, Note_on_c, 2, 64, 0
4, 36476, Note_on_c, 2, 67, 0
4, 36476, Note_on_c, 2, 43, 87
4, 36480, Note_on_c, 2, 50, 84
4, 36482, Note_on_c, 2, 55, 84
4, 36680, Note_on_c, 2, 43, 0
4, 36684, Note_on_c, 2, 50, 0
4, 36686, Note_on_c, 2, 55, 0
4, 36716, Note_on_c, 2, 43, 84
4, 36720, Note_on_c, 2, 50, 84
4, 36722, Note_on_c, 2, 55, 84
4, 36834, Note_on_c, 2, 43, 0
4, 36920, Note_on_c, 2, 50, 0
4, 36952, Note_on_c, 2, 55, 0
4, 36960, Note_on_c, 2, 45, 87
4, 37014, Note_on_c, 2, 52, 84
4, 37020, Note_on_c, 2, 57, 84
4, 37044, Note_on_c, 2, 45, 0
4, 37080, Note_on_c, 2, 45, 87
4, 37110, Note_on_c, 2, 52, 0
4, 37128, Note_on_c, 2, 57, 0
4, 37164, Note_on_c, 2, 45, 0
4, 37190, Note_on_c, 2, 45, 84
4, 37200, Note_on_c, 2, 52, 84
4, 37212, Note_on_c, 2, 57, 84
4, 37440, Note_on_c, 2, 45, 0
4, 37440, Note_on_c, 2, 52, 0
4, 37440, Note_on_c, 2, 57, 0
4, 37440, Note_on_c, 2, 40, 93
4, 37660, Note_on_c, 2, 59, 72
4, 37668, Note_on_c, 2, 64, 72
4, 37672, Note_on_c, 2, 67, 72
4, 37690, Note_on_c, 2, 40, 0
4, 37892, Note_on_c, 2, 59, 0
4, 37900, Note_on_c, 2, 64, 0
4, 37908, Note_on_c, 2, 67, 0
4, 37922, Note_on_c, 2, 40, 98
4, 37986, Note_on_c, 2, 40, 0
4, 38000, Note_on_c, 2, 59, 72
4, 38004, Note_on_c, 2, 64, 72
4, 38012, Note_on_c, 2, 59, 0
4, 38014, Note_on_c, 2, 64, 0
4, 38022, Note_on_c, 2, 40, 96
4, 38144, Note_on_c, 2, 59, 72
4, 38156, Note_on_c, 2, 64, 72
4, 38162, Note_on_c, 2, 67, 72
4, 38350, Note_on_c, 2, 40, 0
4, 38376, Note_on_c, 2, 59, 0
4, 38380, Note_on_c, 2, 64, 0
4, 38396, Note_on_c, 2, 67, 0
4, 38396, Note_on_c, 2, 43, 87
4, 38400, Note_on_c, 2, 50, 84
4, 38402, Note_on_c, 2, 55, 84
4, 38600, Note_on_c, 2, 43, 0
4, 38604, Note_on_c, 2, 50, 0
4, 38606, Note_on_c, 2, 55, 0
4, 38636, Note_on_c, 2, 43, 84
4, 38640, Note_on_c, 2, 50, 84
4, 38642, Note_on_c, 2, 55, 84
4, 38754, Note_on_c, 2, 43, 0
4, 38840, Note_on_c, 2, 50, 0
4, 38872, Note_on_c, 2, 55, 0
4, 38880, Note_on_c, 2, 45, 87
4, 38934, Note_on_c, 2, 52, 84
4, 38940, Note_on_c, 2, 57, 84
4, 38964, Note_on_c, 2, 45, 0
4, 39000, Note_on_c, 2, 45, 87
4, 39030, Note_on_c, 2, 52, 0
4, 39048, Note_on_c, 2, 57, 0
4, 39084, Note_on_c, 2, 45, 0
4, 39110, Note_on_c, 2, 45, 84
4, 39120, Note_on_c, 2, 52, 84
4, 39128, Note_on_c, 2, 57, 84
4, 39358, Note_on_c, 2, 45, 0
4, 39358, Note_on_c, 2, 52, 0
4, 39360, Note_on_c, 2, 57, 0
4, 39360, Note_on_c, 2, 40, 84
4, 39506, Note_on_c, 2, 40, 0
4, 40800, Note_on_c, 2, 54, 127
4, 40910, Note_on_c, 2, 54, 0
4, 40920, Note_on_c, 2, 52, 127
4, 41040, Note_on_c, 2, 50, 127
4, 41044, Note_on_c, 2, 52, 0
4, 41276, Note_on_c, 2, 50, 0
4, 41280, Note_on_c, 2, 57, 127
4, 41308, Pitch_bend_c, 2, 8712
4, 41312, Pitch_bend_c, 2, 9622
4, 41316, Pitch_bend_c, 2, 10402
4, 41320, Pitch_bend_c, 2, 11832
4, 41322, Pitch_bend_c, 2, 12872
4, 41326, Pitch_bend_c, 2, 13782
4, 41330, Pitch_bend_c, 2, 15212
4, 41332, Pitch_bend_c, 2, 15732
4, 41336, Pitch_bend_c, 2, 16252
4, 41340, Pitch_bend_c, 2, 16382
4, 41400, Note_on_c, 2, 60, 127
4, 41406, Note_on_c, 2, 57, 0
4, 41514, Control_c, 2, 1, 8
4, 41520, Control_c, 2, 1, 14
4, 41520, Note_on_c, 2, 65, 127
4, 41526, Control_c, 2, 1, 22
4, 41528, Note_on_c, 2, 60, 0
4, 41530, Control_c, 2, 1, 28
4, 41534, Control_c, 2, 1, 34
4, 41540, Control_c, 2, 1, 40
4, 41544, Control_c, 2, 1, 46
4, 41548, Control_c, 2, 1, 52
4, 41556, Control_c, 2, 1, 58
4, 41564, Control_c, 2, 1, 64
4, 41568, Control_c, 2, 1, 70
4, 41576, Control_c, 2, 1, 76
4, 41584, Control_c, 2, 1, 82
4, 41594, Control_c, 2, 1, 88
4, 41634, Control_c, 2, 1, 92
4, 41670, Control_c, 2, 1, 86
4, 41692, Note_on_c, 2, 65, 0
4, 41710, Control_c, 2, 1, 80
4, 41718, Pitch_bend_c, 2, 15732
4, 41720, Pitch_bend_c, 2, 15342
4, 41724, Pitch_bend_c, 2, 14822
4, 41728, Control_c, 2, 1, 74
4, 41728, Pitch_bend_c, 2, 13782
4, 41730, Pitch_bend_c, 2, 13002
4, 41734, Pitch_bend_c, 2, 11702
4, 41736, Control_c, 2, 1, 68
4, 41738, Pitch_bend_c, 2, 10662
4, 41742, Pitch_bend_c, 2, 9622
4, 41742, Control_c, 2, 1, 60
4, 41744, Pitch_bend_c, 2, 8972
4, 41746, Control_c, 2, 1, 54
4, 41748, Pitch_bend_c, 2, 8582
4, 41750, Control_c, 2, 1, 46
4, 41752, Pitch_bend_c, 2, 8192
4, 41754, Control_c, 2, 1, 38
4, 41756, Control_c, 2, 1, 30
4, 41760, Note_on_c, 2, 57, 127
4, 41760, Control_c, 2, 1, 20
4, 41764, Control_c, 2, 1, 6
4, 41770, Control_c, 2, 1, 0
4, 41776, Pitch_bend_c, 2, 8712
4, 41780, Pitch_bend_c, 2, 9362
4, 41782, Pitch_bend_c, 2, 10272
4, 41786, Pitch_bend_c, 2, 11702
4, 41790, Pitch_bend_c, 2, 13132
4, 41794, Pitch_bend_c, 2, 15342
4, 41796, Pitch_bend_c, 2, 15862
4, 41800, Pitch_bend_c, 2, 16252
4, 41804, Pitch_bend_c, 2, 16382
4, 41880, Note_on_c, 2, 60, 127
4, 41884, Note_on_c, 2, 57, 0
4, 41982, Control_c, 2, 1, 6
4, 41986, Control_c, 2, 1, 12
4, 41994, Control_c, 2, 1, 20
4, 41996, Control_c, 2, 1, 26
4, 41998, Note_on_c, 2, 60, 0
4, 42000, Note_on_c, 2, 65, 125
4, 42002, Control_c, 2, 1, 32
4, 42008, Control_c, 2, 1, 40
4, 42012, Control_c, 2, 1, 46
4, 42016, Control_c, 2, 1, 52
4, 42022, Control_c, 2, 1, 60
4, 42030, Control_c, 2, 1, 66
4, 42034, Control_c, 2, 1, 72
4, 42042, Control_c, 2, 1, 78
4, 42048, Control_c, 2, 1, 84
4, 42070, Control_c, 2, 1, 90
4, 42114, Control_c, 2, 1, 88
4, 42144, Control_c, 2, 1, 90
4, 42182, Control_c, 2, 1, 84
4, 42188, Control_c, 2, 1, 78
4, 42194, Control_c, 2, 1, 70
4, 42198, Control_c, 2, 1, 60
4, 42202, Note_on_c, 2, 65, 0
4, 42202, Control_c, 2, 1, 44
4, 42206, Control_c, 2, 1, 32
4, 42208, Control_c, 2, 1, 18
4, 42212, Control_c, 2, 1, 6
4, 42220, Control_c, 2, 1, 0
4, 42224, Pitch_bend_c, 2, 15732
4, 42228, Pitch_bend_c, 2, 14822
4, 42230, Pitch_bend_c, 2, 13262
4, 42234, Pitch_bend_c, 2, 10272
4, 42236, Pitch_bend_c, 2, 8712
4, 42238, Pitch_bend_c, 2, 8256
4, 42240, Note_on_c, 2, 57, 127
4, 42252, Pitch_bend_c, 2, 8576
4, 42256, Pitch_bend_c, 2, 8896
4, 42260, Pitch_bend_c, 2, 9280
4, 42264, Pitch_bend_c, 2, 9600
4, 42266, Pitch_bend_c, 2, 9984
4, 42270, Pitch_bend_c, 2, 10304
4, 42274, Pitch_bend_c, 2, 10752
4, 42276, Pitch_bend_c, 2, 11072
4, 42280, Pitch_bend_c, 2, 11392
4, 42284, Pitch_bend_c, 2, 11712
4, 42286, Pitch_bend_c, 2, 12096
4, 42290, Pitch_bend_c, 2, 12608
4, 42292, Pitch_bend_c, 2, 13120
4, 42296, Pitch_bend_c, 2, 13696
4, 42298, Pitch_bend_c, 2, 14528
4, 42300, Pitch_bend_c, 2, 15936
4, 42354, Note_on_c, 2, 57, 0
4, 42360, Note_on_c, 2, 60, 127
4, 42478, Note_on_c, 2, 60, 0
4, 42480, Note_on_c, 2, 65, 127
4, 42592, Pitch_bend_c, 2, 8256
4, 42598, Note_on_c, 2, 65, 0
4, 42600, Note_on_c, 2, 57, 127
4, 42664, Control_c, 2, 1, 2
4, 42666, Control_c, 2, 1, 8
4, 42670, Control_c, 2, 1, 14
4, 42672, Control_c, 2, 1, 20
4, 42676, Control_c, 2, 1, 28
4, 42680, Control_c, 2, 1, 34
4, 42684, Control_c, 2, 1, 42
4, 42694, Control_c, 2, 1, 48
4, 42730, Control_c, 2, 1, 54
4, 42760, Control_c, 2, 1, 60
4, 42770, Control_c, 2, 1, 62
4, 42978, Control_c, 2, 1, 56
4, 42986, Control_c, 2, 1, 50
4, 42990, Control_c, 2, 1, 44
4, 42992, Control_c, 2, 1, 38
4, 42996, Control_c, 2, 1, 16
4, 42998, Note_on_c, 2, 57, 0
4, 43000, Control_c, 2, 1, 8
4, 43004, Control_c, 2, 1, 0
4, 43200, Note_on_c, 2, 55, 123
4, 43310, Note_on_c, 2, 55, 0
4, 43320, Note_on_c, 2, 50, 127
4, 43416, Note_on_c, 2, 38, 90
4, 43452, Pitch_bend_c, 2, 8712
4, 43456, Pitch_bend_c, 2, 10012
4, 43460, Pitch_bend_c, 2, 10922
4, 43462, Pitch_bend_c, 2, 12352
4, 43466, Pitch_bend_c, 2, 13782
4, 43470, Pitch_bend_c, 2, 15602
4, 43472, Pitch_bend_c, 2, 15992
4, 43478, Pitch_bend_c, 2, 16382
4, 43508, Note_on_c, 2, 50, 0
4, 43552, Note_on_c, 2, 38, 0
4, 43554, Pitch_bend_c, 2, 15992
4, 43556, Pitch_bend_c, 2, 15472
4, 43560, Note_on_c, 2, 50, 127
4, 43560, Pitch_bend_c, 2, 13912
4, 43564, Pitch_bend_c, 2, 13002
4, 43566, Pitch_bend_c, 2, 11312
4, 43570, Pitch_bend_c, 2, 9882
4, 43574, Pitch_bend_c, 2, 9232
4, 43576, Pitch_bend_c, 2, 8712
4, 43582, Pitch_bend_c, 2, 8192
4, 43636, Pitch_bend_c, 2, 8582
4, 43638, Pitch_bend_c, 2, 10662
4, 43642, Pitch_bend_c, 2, 12352
4, 43644, Pitch_bend_c, 2, 14692
4, 43648, Pitch_bend_c, 2, 15472
4, 43650, Pitch_bend_c, 2, 16122
4, 43656, Pitch_bend_c, 2, 16382
4, 43842, Control_c, 2, 1, 6
4, 43850, Control_c, 2, 1, 14
4, 43854, Control_c, 2, 1, 20
4, 43858, Control_c, 2, 1, 26
4, 43870, Control_c, 2, 1, 32
4, 43882, Control_c, 2, 1, 38
4, 43888, Control_c, 2, 1, 44
4, 43900, Control_c, 2, 1, 50
4, 43914, Control_c, 2, 1, 52
4, 44030, Control_c, 2, 1, 46
4, 44034, Control_c, 2, 1, 40
4, 44038, Control_c, 2, 1, 34
4, 44042, Control_c, 2, 1, 24
4, 44048, Note_on_c, 2, 50, 0
4, 44048, Control_c, 2, 1, 12
4, 44052, Control_c, 2, 1, 2
4, 44052, Control_c, 2, 1, 0
4, 44160, Note_on_c, 2, 57, 127
4, 44172, Pitch_bend_c, 2, 8576
4, 44176, Pitch_bend_c, 2, 8896
4, 44180, Pitch_bend_c, 2, 9280
4, 44184, Pitch_bend_c, 2, 9600
4, 44186, Pitch_bend_c, 2, 9984
4, 44190, Pitch_bend_c, 2, 10304
4, 44194, Pitch_bend_c, 2, 10752
4, 44196, Pitch_bend_c, 2, 11072
4, 44200, Pitch_bend_c, 2, 11392
4, 44204, Pitch_bend_c, 2, 11712
4, 44206, Pitch_bend_c, 2, 12096
4, 44210, Pitch_bend_c, 2, 12608
4, 44212, Pitch_bend_c, 2, 13120
4, 44216, Pitch_bend_c, 2, 13696
4, 44218, Pitch_bend_c, 2, 14528
4, 44220, Pitch_bend_c, 2, 15936
4, 44278, Note_on_c, 2, 57, 0
4, 44280, Note_on_c, 2, 60, 127
4, 44400, Note_on_c, 2, 60, 0
4, 44400, Note_on_c, 2, 65, 127
4, 44510, Pitch_bend_c, 2, 15616
4, 44512, Pitch_bend_c, 2, 15104
4, 44514, Note_on_c, 2, 65, 0
4, 44516, Pitch_bend_c, 2, 14656
4, 44518, Pitch_bend_c, 2, 14144
4, 44520, Note_on_c, 2, 57, 127
4, 44522, Pitch_bend_c, 2, 13632
4, 44524, Pitch_bend_c, 2, 13184
4, 44528, Pitch_bend_c, 2, 12672
4, 44530, Pitch_bend_c, 2, 12288
4, 44534, Pitch_bend_c, 2, 11840
4, 44536, Pitch_bend_c, 2, 11456
4, 44540, Pitch_bend_c, 2, 11136
4, 44542, Pitch_bend_c, 2, 10624
4, 44546, Pitch_bend_c, 2, 10112
4, 44548, Pitch_bend_c, 2, 9792
4, 44552, Pitch_bend_c, 2, 9408
4, 44554, Pitch_bend_c, 2, 9024
4, 44558, Pitch_bend_c, 2, 8512
4, 44562, Pitch_bend_c, 2, 8256
4, 44586, Control_c, 2, 1, 8
4, 44590, Control_c, 2, 1, 14
4, 44592, Control_c, 2, 1, 20
4, 44596, Control_c, 2, 1, 28
4, 44600, Control_c, 2, 1, 34
4, 44604, Control_c, 2, 1, 42
4, 44614, Control_c, 2, 1, 48
4, 44650, Control_c, 2, 1, 54
4, 44680, Control_c, 2, 1, 60
4, 44690, Control_c, 2, 1, 62
4, 44898, Control_c, 2, 1, 56
4, 44906, Control_c, 2, 1, 50
4, 44910, Control_c, 2, 1, 44
4, 44912, Control_c, 2, 1, 38
4, 44916, Control_c, 2, 1, 16
4, 44918, Note_on_c, 2, 57, 0
4, 44920, Control_c, 2, 1, 8
4, 44924, Control_c, 2, 1, 0
4, 45120, Note_on_c, 2, 55, 123
4, 45230, Note_on_c, 2, 55, 0
4, 45240, Note_on_c, 2, 50, 127
4, 45342, Note_on_c, 2, 38, 90
4, 45372, Pitch_bend_c, 2, 8712
4, 45376, Pitch_bend_c, 2, 10012
4, 45380, Pitch_bend_c, 2, 10922
4, 45382, Pitch_bend_c, 2, 12352
4, 45386, Pitch_bend_c, 2, 13782
4, 45390, Pitch_bend_c, 2, 15602
4, 45392, Pitch_bend_c, 2, 15992
4, 45398, Pitch_bend_c, 2, 16382
4, 45448, Note_on_c, 2, 50, 0
4, 45474, Pitch_bend_c, 2, 15992
4, 45476, Pitch_bend_c, 2, 15472
4, 45480, Note_on_c, 2, 50, 127
4, 45480, Pitch_bend_c, 2, 13912
4, 45484, Pitch_bend_c, 2, 13002
4, 45486, Note_on_c, 2, 38, 0
4, 45486, Pitch_bend_c, 2, 11312
4, 45490, Pitch_bend_c, 2, 9882
4, 45494, Pitch_bend_c, 2, 9232
4, 45496, Pitch_bend_c, 2, 8712
4, 45502, Pitch_bend_c, 2, 8192
4, 45556, Pitch_bend_c, 2, 8582
4, 45558, Pitch_bend_c, 2, 10662
4, 45562, Pitch_bend_c, 2, 12352
4, 45564, Pitch_bend_c, 2, 14692
4, 45568, Pitch_bend_c, 2, 15472
4, 45570, Pitch_bend_c, 2, 16122
4, 45576, Pitch_bend_c, 2, 16382
4, 45762, Control_c, 2, 1, 6
4, 45770, Control_c, 2, 1, 14
4, 45774, Control_c, 2, 1, 20
4, 45778, Control_c, 2, 1, 26
4, 45790, Control_c, 2, 1, 32
4, 45802, Control_c, 2, 1, 38
4, 45808, Control_c, 2, 1, 44
4, 45820, Control_c, 2, 1, 50
4, 45834, Control_c, 2, 1, 52
4, 45840, Note_on_c, 2, 50, 0
4, 45840, Pitch_bend_c, 2, 8256
4, 45948, Note_on_c, 2, 50, 122
4, 45950, Control_c, 2, 1, 46
4, 45954, Control_c, 2, 1, 40
4, 45958, Control_c, 2, 1, 34
4, 45962, Control_c, 2, 1, 24
4, 45968, Control_c, 2, 1, 12
4, 45972, Pitch_bend_c, 2, 8582
4, 45972, Control_c, 2, 1, 2
4, 45972, Control_c, 2, 1, 0
4, 45974, Pitch_bend_c, 2, 9102
4, 45978, Pitch_bend_c, 2, 10272
4, 45982, Pitch_bend_c, 2, 11052
4, 45984, Pitch_bend_c, 2, 12612
4, 45990, Pitch_bend_c, 2, 14562
4, 45994, Pitch_bend_c, 2, 15862
4, 45998, Pitch_bend_c, 2, 16252
4, 46000, Pitch_bend_c, 2, 16382
4, 46054, Note_on_c, 2, 50, 0
4, 46060, Pitch_bend_c, 2, 15862
4, 46064, Pitch_bend_c, 2, 8256
4, 46064, Pitch_bend_c, 2, 13392
4, 46068, Pitch_bend_c, 2, 10532
4, 46070, Pitch_bend_c, 2, 8192
4, 46072, Pitch_bend_c, 2, 8064
4, 46074, Pitch_bend_c, 2, 8192
4, 46078, Pitch_bend_c, 2, 8582
4, 46080, Note_on_c, 2, 55, 113
4, 46080, Pitch_bend_c, 2, 8972
4, 46086, Pitch_bend_c, 2, 8452
4, 46086, Pitch_bend_c, 2, 8192
4, 46090, Pitch_bend_c, 2, 7936
4, 46096, Pitch_bend_c, 2, 8192
4, 46176, Note_on_c, 2, 55, 0
4, 46200, Note_on_c, 2, 57, 113
4, 46274, Note_on_c, 2, 57, 0
4, 46320, Note_on_c, 2, 59, 113
4, 46424, Note_on_c, 2, 59, 0
4, 46440, Note_on_c, 2, 53, 113
4, 46448, Pitch_bend_c, 2, 8712
4, 46452, Pitch_bend_c, 2, 9102
4, 46454, Pitch_bend_c, 2, 9622
4, 46458, Pitch_bend_c, 2, 10402
4, 46464, Pitch_bend_c, 2, 11312
4, 46468, Pitch_bend_c, 2, 12742
4, 46470, Pitch_bend_c, 2, 13522
4, 46474, Pitch_bend_c, 2, 14692
4, 46478, Pitch_bend_c, 2, 15472
4, 46480, Pitch_bend_c, 2, 15862
4, 46484, Pitch_bend_c, 2, 16252
4, 46486, Pitch_bend_c, 2, 16382
4, 46686, Pitch_bend_c, 2, 15992
4, 46688, Pitch_bend_c, 2, 15472
4, 46692, Pitch_bend_c, 2, 15082
4, 46696, Pitch_bend_c, 2, 14432
4, 46700, Pitch_bend_c, 2, 14042
4, 46704, Pitch_bend_c, 2, 13782
4, 46712, Pitch_bend_c, 2, 14172
4, 46718, Pitch_bend_c, 2, 15212
4, 46720, Pitch_bend_c, 2, 15732
4, 46724, Pitch_bend_c, 2, 16252
4, 46728, Pitch_bend_c, 2, 16382
4, 46746, Pitch_bend_c, 2, 15992
4, 46748, Pitch_bend_c, 2, 15602
4, 46752, Pitch_bend_c, 2, 14692
4, 46754, Pitch_bend_c, 2, 13912
4, 46758, Pitch_bend_c, 2, 13132
4, 46762, Pitch_bend_c, 2, 12742
4, 46764, Pitch_bend_c, 2, 12352
4, 46772, Pitch_bend_c, 2, 12872
4, 46776, Pitch_bend_c, 2, 13652
4, 46778, Pitch_bend_c, 2, 15212
4, 46782, Pitch_bend_c, 2, 15732
4, 46786, Pitch_bend_c, 2, 16252
4, 46790, Pitch_bend_c, 2, 16382
4, 46816, Pitch_bend_c, 2, 15732
4, 46820, Pitch_bend_c, 2, 15342
4, 46824, Pitch_bend_c, 2, 15082
4, 46832, Pitch_bend_c, 2, 15602
4, 46834, Pitch_bend_c, 2, 16122
4, 46840, Pitch_bend_c, 2, 16382
4, 46882, Pitch_bend_c, 2, 16252
4, 46886, Pitch_bend_c, 2, 16382
4, 46936, Pitch_bend_c, 2, 15992
4, 46940, Note_on_c, 2, 53, 0
4, 46946, Pitch_bend_c, 2, 16382
4, 46960, Pitch_bend_c, 2, 15992
4, 46964, Pitch_bend_c, 2, 13522
4, 46966, Pitch_bend_c, 2, 10532
4, 46970, Pitch_bend_c, 2, 7808
4, 46972, Pitch_bend_c, 2, 7552
4, 46976, Pitch_bend_c, 2, 7936
4, 46976, Pitch_bend_c, 2, 8192
4, 46980, Pitch_bend_c, 2, 8972
4, 46984, Pitch_bend_c, 2, 8582
4, 46986, Pitch_bend_c, 2, 8192
4, 46988, Pitch_bend_c, 2, 7808
4, 46996, Pitch_bend_c, 2, 8192
4, 47020, Note_on_c, 2, 53, 108
4, 47046, Pitch_bend_c, 2, 8712
4, 47050, Pitch_bend_c, 2, 9492
4, 47052, Pitch_bend_c, 2, 10402
4, 47056, Pitch_bend_c, 2, 11832
4, 47060, Pitch_bend_c, 2, 13002
4, 47062, Pitch_bend_c, 2, 14172
4, 47066, Pitch_bend_c, 2, 15472
4, 47068, Pitch_bend_c, 2, 15992
4, 47076, Pitch_bend_c, 2, 16382
4, 47154, Note_on_c, 2, 53, 0
4, 47160, Note_on_c, 2, 45, 122
4, 47162, Pitch_bend_c, 2, 14822
4, 47166, Pitch_bend_c, 2, 12742
4, 47170, Pitch_bend_c, 2, 8192
4, 47172, Pitch_bend_c, 2, 7296
4, 47176, Pitch_bend_c, 2, 7936
4, 47176, Pitch_bend_c, 2, 8192
4, 47180, Pitch_bend_c, 2, 8842
4, 47182, Pitch_bend_c, 2, 8972
4, 47186, Pitch_bend_c, 2, 8322
4, 47186, Pitch_bend_c, 2, 8192
4, 47190, Pitch_bend_c, 2, 7680
4, 47194, Pitch_bend_c, 2, 8064
4, 47196, Pitch_bend_c, 2, 8192
4, 47206, Pitch_bend_c, 2, 8064
4, 47208, Pitch_bend_c, 2, 8192
4, 47274, Note_on_c, 2, 45, 0
4, 47280, Note_on_c, 2, 40, 113
4, 47394, Note_on_c, 2, 40, 0
4, 47400, Note_on_c, 2, 43, 104
4, 47526, Pitch_bend_c, 2, 8582
4, 47534, Pitch_bend_c, 2, 8972
4, 47548, Pitch_bend_c, 2, 8582
4, 47554, Pitch_bend_c, 2, 8192
4, 47638, Pitch_bend_c, 2, 7808
4, 47642, Pitch_bend_c, 2, 7552
4, 47654, Pitch_bend_c, 2, 7936
4, 47658, Pitch_bend_c, 2, 8192
4, 47668, Pitch_bend_c, 2, 8582
4, 47672, Pitch_bend_c, 2, 9102
4, 47676, Pitch_bend_c, 2, 9622
4, 47678, Pitch_bend_c, 2, 10532
4, 47682, Pitch_bend_c, 2, 11052
4, 47684, Pitch_bend_c, 2, 11442
4, 47686, Pitch_bend_c, 2, 11572
4, 47696, Pitch_bend_c, 2, 11182
4, 47702, Pitch_bend_c, 2, 10662
4, 47704, Pitch_bend_c, 2, 10012
4, 47708, Pitch_bend_c, 2, 9622
4, 47710, Pitch_bend_c, 2, 9232
4, 47714, Pitch_bend_c, 2, 8842
4, 47718, Pitch_bend_c, 2, 8452
4, 47720, Pitch_bend_c, 2, 8322
4, 47732, Pitch_bend_c, 2, 8712
4, 47736, Pitch_bend_c, 2, 9492
4, 47738, Pitch_bend_c, 2, 9882
4, 47742, Pitch_bend_c, 2, 10792
4, 47746, Pitch_bend_c, 2, 11312
4, 47748, Pitch_bend_c, 2, 11832
4, 47752, Pitch_bend_c, 2, 12352
4, 47758, Pitch_bend_c, 2, 12612
4, 47764, Pitch_bend_c, 2, 12092
4, 47768, Pitch_bend_c, 2, 11702
4, 47772, Pitch_bend_c, 2, 11182
4, 47776, Pitch_bend_c, 2, 10792
4, 47778, Pitch_bend_c, 2, 9882
4, 47782, Pitch_bend_c, 2, 9492
4, 47784, Pitch_bend_c, 2, 9102
4, 47788, Pitch_bend_c, 2, 8712
4, 47794, Pitch_bend_c, 2, 8452
4, 47806, Pitch_bend_c, 2, 8842
4, 47810, Pitch_bend_c, 2, 10272
4, 47812, Pitch_bend_c, 2, 10662
4, 47816, Pitch_bend_c, 2, 11442
4, 47820, Pitch_bend_c, 2, 11832
4, 47822, Pitch_bend_c, 2, 12352
4, 47828, Pitch_bend_c, 2, 12612
4, 47838, Pitch_bend_c, 2, 12092
4, 47846, Pitch_bend_c, 2, 11572
4, 47848, Pitch_bend_c, 2, 11182
4, 47852, Pitch_bend_c, 2, 10792
4, 47856, Pitch_bend_c, 2, 9882
4, 47858, Pitch_bend_c, 2, 9492
4, 47860, Note_on_c, 2, 43, 0
4, 47862, Pitch_bend_c, 2, 8972
4, 47864, Pitch_bend_c, 2, 8582
4, 47870, Pitch_bend_c, 2, 8192
4, 47886, Note_on_c, 2, 45, 127
4, 47986, Note_on_c, 2, 45, 0
4, 47998, Note_on_c, 2, 45, 127
4, 48030, Pitch_bend_c, 2, 8842
4, 48032, Pitch_bend_c, 2, 9362
4, 48036, Pitch_bend_c, 2, 10922
4, 48038, Pitch_bend_c, 2, 11702
4, 48042, Pitch_bend_c, 2, 13522
4, 48046, Pitch_bend_c, 2, 14562
4, 48050, Pitch_bend_c, 2, 15862
4, 48052, Pitch_bend_c, 2, 16252
4, 48056, Pitch_bend_c, 2, 16382
4, 48094, Note_on_c, 2, 45, 0
4, 48124, Note_on_c, 2, 53, 122
4, 48210, Pitch_bend_c, 2, 15992
4, 48214, Pitch_bend_c, 2, 15212
4, 48218, Pitch_bend_c, 2, 14692
4, 48220, Pitch_bend_c, 2, 13002
4, 48224, Pitch_bend_c, 2, 11702
4, 48228, Pitch_bend_c, 2, 9752
4, 48230, Pitch_bend_c, 2, 9362
4, 48232, Note_on_c, 2, 53, 0
4, 48234, Pitch_bend_c, 2, 8582
4, 48236, Note_on_c, 2, 57, 122
4, 48238, Pitch_bend_c, 2, 8192
4, 48262, Pitch_bend_c, 2, 8582
4, 48264, Pitch_bend_c, 2, 9752
4, 48268, Pitch_bend_c, 2, 10662
4, 48270, Pitch_bend_c, 2, 12092
4, 48274, Pitch_bend_c, 2, 13912
4, 48278, Pitch_bend_c, 2, 15732
4, 48282, Pitch_bend_c, 2, 16122
4, 48284, Pitch_bend_c, 2, 16382
4, 48338, Pitch_bend_c, 2, 15992
4, 48340, Pitch_bend_c, 2, 15472
4, 48344, Pitch_bend_c, 2, 13652
4, 48348, Pitch_bend_c, 2, 11702
4, 48352, Note_on_c, 2, 57, 0
4, 48352, Pitch_bend_c, 2, 10012
4, 48356, Pitch_bend_c, 2, 9102
4, 48358, Pitch_bend_c, 2, 8192
4, 48358, Note_on_c, 2, 55, 125
4, 48364, Pitch_bend_c, 2, 7680
4, 48368, Pitch_bend_c, 2, 7296
4, 48370, Pitch_bend_c, 2, 7168
4, 48378, Pitch_bend_c, 2, 7552
4, 48382, Pitch_bend_c, 2, 7936
4, 48388, Pitch_bend_c, 2, 8192
4, 48392, Pitch_bend_c, 2, 8582
4, 48396, Pitch_bend_c, 2, 9752
4, 48398, Pitch_bend_c, 2, 11052
4, 48402, Pitch_bend_c, 2, 11962
4, 48404, Pitch_bend_c, 2, 14172
4, 48408, Pitch_bend_c, 2, 15212
4, 48410, Pitch_bend_c, 2, 15992
4, 48416, Pitch_bend_c, 2, 16382
4, 48548, Control_c, 2, 1, 6
4, 48556, Control_c, 2, 1, 12
4, 48566, Control_c, 2, 1, 18
4, 48580, Control_c, 2, 1, 26
4, 48594, Control_c, 2, 1, 32
4, 48612, Control_c, 2, 1, 38
4, 48628, Control_c, 2, 1, 44
4, 48642, Control_c, 2, 1, 50
4, 48676, Control_c, 2, 1, 56
4, 48690, Control_c, 2, 1, 62
4, 48710, Control_c, 2, 1, 68
4, 48714, Note_on_c, 2, 55, 0
4, 48720, Control_c, 2, 1, 1
4, 48720, Pitch_bend_c, 2, 8256
4, 48724, Note_on_c, 2, 55, 127
4, 48836, Note_on_c, 2, 55, 0
4, 48838, Note_on_c, 2, 50, 127
4, 48956, Note_on_c, 2, 57, 125
4, 48958, Note_on_c, 2, 50, 0
4, 49000, Pitch_bend_c, 2, 8712
4, 49002, Pitch_bend_c, 2, 9232
4, 49006, Pitch_bend_c, 2, 9752
4, 49010, Pitch_bend_c, 2, 11052
4, 49012, Pitch_bend_c, 2, 11962
4, 49016, Pitch_bend_c, 2, 13652
4, 49018, Pitch_bend_c, 2, 14952
4, 49026, Pitch_bend_c, 2, 15602
4, 49030, Pitch_bend_c, 2, 16382
4, 49078, Note_on_c, 2, 57, 0
4, 49090, Note_on_c, 2, 60, 126
4, 49158, Note_on_c, 2, 60, 0
4, 49208, Note_on_c, 2, 60, 127
4, 49288, Note_on_c, 2, 60, 0
4, 49306, Pitch_bend_c, 2, 15992
4, 49308, Pitch_bend_c, 2, 15472
4, 49312, Pitch_bend_c, 2, 14692
4, 49316, Pitch_bend_c, 2, 14042
4, 49318, Pitch_bend_c, 2, 13002
4, 49322, Pitch_bend_c, 2, 12352
4, 49326, Pitch_bend_c, 2, 10792
4, 49330, Pitch_bend_c, 2, 9882
4, 49332, Pitch_bend_c, 2, 9362
4, 49332, Note_on_c, 2, 62, 127
4, 49336, Pitch_bend_c, 2, 8972
4, 49340, Pitch_bend_c, 2, 8452
4, 49342, Pitch_bend_c, 2, 8192
4, 49374, Pitch_bend_c, 2, 8582
4, 49378, Pitch_bend_c, 2, 9102
4, 49380, Pitch_bend_c, 2, 10272
4, 49386, Pitch_bend_c, 2, 11442
4, 49390, Pitch_bend_c, 2, 13262
4, 49392, Pitch_bend_c, 2, 14172
4, 49396, Pitch_bend_c, 2, 15082
4, 49400, Pitch_bend_c, 2, 15862
4, 49404, Pitch_bend_c, 2, 16252
4, 49406, Pitch_bend_c, 2, 16382
4, 49482, Control_c, 2, 1, 6
4, 49488, Control_c, 2, 1, 12
4, 49492, Control_c, 2, 1, 18
4, 49500, Control_c, 2, 1, 24
4, 49506, Control_c, 2, 1, 30
4, 49512, Control_c, 2, 1, 36
4, 49522, Control_c, 2, 1, 42
4, 49530, Control_c, 2, 1, 48
4, 49538, Control_c, 2, 1, 54
4, 49546, Control_c, 2, 1, 60
4, 49556, Control_c, 2, 1, 66
4, 49588, Control_c, 2, 1, 72
4, 49676, Note_on_c, 2, 62, 0
4, 49680, Control_c, 2, 1, 0
4, 49686, Pitch_bend_c, 2, 8322
4, 49688, Pitch_bend_c, 2, 8712
4, 49692, Pitch_bend_c, 2, 9102
4, 49692, Note_on_c, 2, 50, 91
4, 49694, Pitch_bend_c, 2, 9752
4, 49698, Pitch_bend_c, 2, 10792
4, 49702, Pitch_bend_c, 2, 11702
4, 49706, Pitch_bend_c, 2, 13132
4, 49710, Pitch_bend_c, 2, 13782
4, 49714, Pitch_bend_c, 2, 15472
4, 49716, Pitch_bend_c, 2, 16122
4, 49720, Pitch_bend_c, 2, 16382
4, 49812, Note_on_c, 2, 45, 90
4, 49818, Note_on_c, 2, 50, 0
4, 49820, Pitch_bend_c, 2, 15992
4, 49822, Pitch_bend_c, 2, 15602
4, 49826, Pitch_bend_c, 2, 14692
4, 49830, Pitch_bend_c, 2, 14042
4, 49832, Pitch_bend_c, 2, 13782
4, 49832, Pitch_bend_c, 2, 16252
4, 49834, Pitch_bend_c, 2, 13132
4, 49834, Pitch_bend_c, 2, 15992
4, 49834, Pitch_bend_c, 2, 12742
4, 49836, Pitch_bend_c, 2, 15732
4, 49836, Pitch_bend_c, 2, 12352
4, 49838, Pitch_bend_c, 2, 14952
4, 49838, Pitch_bend_c, 2, 11832
4, 49840, Pitch_bend_c, 2, 14562
4, 49840, Pitch_bend_c, 2, 11442
4, 49840, Pitch_bend_c, 2, 14042
4, 49842, Pitch_bend_c, 2, 10012
4, 49844, Pitch_bend_c, 2, 13262
4, 49844, Pitch_bend_c, 2, 9752
4, 49844, Pitch_bend_c, 2, 13002
4, 49846, Pitch_bend_c, 2, 9492
4, 49846, Pitch_bend_c, 2, 11962
4, 49848, Pitch_bend_c, 2, 9232
4, 49848, Pitch_bend_c, 2, 11052
4, 49848, Pitch_bend_c, 2, 9102
4, 49850, Pitch_bend_c, 2, 10662
4, 49850, Pitch_bend_c, 2, 8712
4, 49852, Pitch_bend_c, 2, 10272
4, 49852, Pitch_bend_c, 2, 8582
4, 49854, Pitch_bend_c, 2, 9362
4, 49854, Pitch_bend_c, 2, 8452
4, 49856, Pitch_bend_c, 2, 9102
4, 49856, Pitch_bend_c, 2, 8322
4, 49856, Pitch_bend_c, 2, 8842
4, 49858, Pitch_bend_c, 2, 8192
4, 49864, Pitch_bend_c, 2, 7680
4, 49868, Pitch_bend_c, 2, 6272
4, 49872, Pitch_bend_c, 2, 5120
4, 49874, Pitch_bend_c, 2, 4096
4, 49878, Pitch_bend_c, 2, 3328
4, 49882, Pitch_bend_c, 2, 2048
4, 49886, Pitch_bend_c, 2, 896
4, 49890, Pitch_bend_c, 2, 128
4, 49890, Pitch_bend_c, 2, 0
4, 49918, Note_on_c, 2, 45, 0
4, 49918, Pitch_bend_c, 2, 8256
4, 49920, Note_on_c, 2, 40, 93
4, 50140, Note_on_c, 2, 59, 72
4, 50148, Note_on_c, 2, 64, 72
4, 50152, Note_on_c, 2, 67, 72
4, 50170, Note_on_c, 2, 40, 0
4, 50312, Note_on_c, 2, 59, 0
4, 50316, Note_on_c, 2, 64, 0
4, 50318, Note_on_c, 2, 67, 0
4, 50346, Note_on_c, 2, 59, 72
4, 50350, Note_on_c, 2, 64, 72
4, 50350, Note_on_c, 2, 67, 72
4, 50374, Note_on_c, 2, 59, 0
4, 50374, Note_on_c, 2, 64, 0
4, 50384, Note_on_c, 2, 67, 0
4, 50402, Note_on_c, 2, 40, 98
4, 50436, Note_on_c, 2, 40, 0
4, 50480, Note_on_c, 2, 59, 72
4, 50484, Note_on_c, 2, 64, 72
4, 50486, Note_on_c, 2, 67, 72
4, 50496, Note_on_c, 2, 59, 0
4, 50498, Note_on_c, 2, 64, 0
4, 50502, Note_on_c, 2, 40, 96
4, 50510, Note_on_c, 2, 67, 0
4, 50624, Note_on_c, 2, 59, 72
4, 50636, Note_on_c, 2, 64, 72
4, 50642, Note_on_c, 2, 67, 72
4, 50650, Note_on_c, 2, 40, 0
4, 50856, Note_on_c, 2, 59, 0
4, 50860, Note_on_c, 2, 64, 0
4, 50876, Note_on_c, 2, 67, 0
4, 50876, Note_on_c, 2, 43, 87
4, 50880, Note_on_c, 2, 50, 84
4, 50882, Note_on_c, 2, 55, 84
4, 51080, Note_on_c, 2, 43, 0
4, 51084, Note_on_c, 2, 50, 0
4, 51086, Note_on_c, 2, 55, 0
4, 51116, Note_on_c, 2, 43, 84
4, 51120, Note_on_c, 2, 50, 84
4, 51122, Note_on_c, 2, 55, 84
4, 51234, Note_on_c, 2, 43, 0
4, 51320, Note_on_c, 2, 50, 0
4, 51352, Note_on_c, 2, 55, 0
4, 51360, Note_on_c, 2, 45, 87
4, 51414, Note_on_c, 2, 52, 84
4, 51420, Note_on_c, 2, 57, 84
4, 51444, Note_on_c, 2, 45, 0
4, 51480, Note_on_c, 2, 45, 87
4, 51510, Note_on_c, 2, 52, 0
4, 51528, Note_on_c, 2, 57, 0
4, 51564, Note_on_c, 2, 45, 0
4, 51590, Note_on_c, 2, 45, 84
4, 51600, Note_on_c, 2, 52, 84
4, 51612, Note_on_c, 2, 57, 84
4, 51836, Note_on_c, 2, 52, 0
4, 51838, Note_on_c, 2, 45, 0
4, 51840, Note_on_c, 2, 57, 0
4, 51840, Note_on_c, 2, 40, 93
4, 52060, Note_on_c, 2, 59, 72
4, 52068, Note_on_c, 2, 64, 72
4, 52072, Note_on_c, 2, 67, 72
4, 52090, Note_on_c, 2, 40, 0
4, 52292, Note_on_c, 2, 59, 0
4, 52300, Note_on_c, 2, 64, 0
4, 52308, Note_on_c, 2, 67, 0
4, 52322, Note_on_c, 2, 40, 98
4, 52386, Note_on_c, 2, 40, 0
4, 52400, Note_on_c, 2, 59, 72
4, 52404, Note_on_c, 2, 64, 72
4, 52422, Note_on_c, 2, 40, 96
4, 52424, Note_on_c, 2, 59, 0
4, 52426, Note_on_c, 2, 64, 0
4, 52544, Note_on_c, 2, 59, 72
4, 52556, Note_on_c, 2, 64, 72
4, 52562, Note_on_c, 2, 67, 72
4, 52750, Note_on_c, 2, 40, 0
4, 52776, Note_on_c, 2, 59, 0
4, 52780, Note_on_c, 2, 64, 0
4, 52796, Note_on_c, 2, 67, 0
4, 52796, Note_on_c, 2, 43, 87
4, 52800, Note_on_c, 2, 50, 84
4, 52802, Note_on_c, 2, 55, 84
4, 53000, Note_on_c, 2, 43, 0
4, 53004, Note_on_c, 2, 50, 0
4, 53006, Note_on_c, 2, 55, 0
4, 53036, Note_on_c, 2, 43, 84
4, 53040, Note_on_c, 2, 50, 84
4, 53042, Note_on_c, 2, 55, 84
4, 53154, Note_on_c, 2, 43, 0
4, 53240, Note_on_c, 2, 50, 0
4, 53272, Note_on_c, 2, 55, 0
4, 53280, Note_on_c, 2, 45, 87
4, 53334, Note_on_c, 2, 52, 84
4, 53340, Note_on_c, 2, 57, 84
4, 53364, Note_on_c, 2, 45, 0
4, 53400, Note_on_c, 2, 45, 87
4, 53430, Note_on_c, 2, 52, 0
4, 53448, Note_on_c, 2, 57, 0
4, 53484, Note_on_c, 2, 45, 0
4, 53508, Note_on_c, 2, 45, 84
4, 53520, Note_on_c, 2, 57, 84
4, 53520, Note_on_c, 2, 52, 84
4, 53754, Note_on_c, 2, 45, 0
4, 53756, Note_on_c, 2, 52, 0
4, 53758, Note_on_c, 2, 57, 0
4, 53760, Note_on_c, 2, 40, 93
4, 53980, Note_on_c, 2, 59, 72
4, 53988, Note_on_c, 2, 64, 72
4, 53992, Note_on_c, 2, 67, 72
4, 54010, Note_on_c, 2, 40, 0
4, 54152, Note_on_c, 2, 59, 0
4, 54156, Note_on_c, 2, 64, 0
4, 54158, Note_on_c, 2, 67, 0
4, 54186, Note_on_c, 2, 59, 72
4, 54214, Note_on_c, 2, 59, 0
4, 54242, Note_on_c, 2, 40, 98
4, 54320, Note_on_c, 2, 59, 72
4, 54324, Note_on_c, 2, 40, 0
4, 54336, Note_on_c, 2, 59, 0
4, 54342, Note_on_c, 2, 40, 96
4, 54464, Note_on_c, 2, 59, 72
4, 54476, Note_on_c, 2, 64, 72
4, 54482, Note_on_c, 2, 67, 72
4, 54684, Note_on_c, 2, 40, 0
4, 54696, Note_on_c, 2, 59, 0
4, 54700, Note_on_c, 2, 64, 0
4, 54716, Note_on_c, 2, 67, 0
4, 54716, Note_on_c, 2, 43, 87
4, 54720, Note_on_c, 2, 50, 84
4, 54722, Note_on_c, 2, 55, 84
4, 54920, Note_on_c, 2, 43, 0
4, 54924, Note_on_c, 2, 50, 0
4, 54926, Note_on_c, 2, 55, 0
4, 54956, Note_on_c, 2, 43, 84
4, 54960, Note_on_c, 2, 50, 84
4, 54962, Note_on_c, 2, 55, 84
4, 55074, Note_on_c, 2, 43, 0
4, 55160, Note_on_c, 2, 50, 0
4, 55192, Note_on_c, 2, 55, 0
4, 55200, Note_on_c, 2, 45, 87
4, 55254, Note_on_c, 2, 52, 84
4, 55260, Note_on_c, 2, 57, 84
4, 55284, Note_on_c, 2, 45, 0
4, 55320, Note_on_c, 2, 45, 87
4, 55350, Note_on_c, 2, 52, 0
4, 55368, Note_on_c, 2, 57, 0
4, 55404, Note_on_c, 2, 45, 0
4, 55430, Note_on_c, 2, 45, 84
4, 55440, Note_on_c, 2, 52, 84
4, 55448, Note_on_c, 2, 57, 84
4, 55678, Note_on_c, 2, 45, 0
4, 55680, Note_on_c, 2, 52, 0
4, 55680, Note_on_c, 2, 57, 0
4, 55680, Note_on_c, 2, 40, 93
4, 55900, Note_on_c, 2, 59, 72
4, 55908, Note_on_c, 2, 64, 72
4, 55912, Note_on_c, 2, 67, 72
4, 55930, Note_on_c, 2, 40, 0
4, 56132, Note_on_c, 2, 59, 0
4, 56140, Note_on_c, 2, 64, 0
4, 56148, Note_on_c, 2, 67, 0
4, 56162, Note_on_c, 2, 40, 98
4, 56226, Note_on_c, 2, 40, 0
4, 56240, Note_on_c, 2, 59, 72
4, 56244, Note_on_c, 2, 64, 72
4, 56252, Note_on_c, 2, 59, 0
4, 56254, Note_on_c, 2, 64, 0
4, 56262, Note_on_c, 2, 40, 96
4, 56384, Note_on_c, 2, 59, 72
4, 56396, Note_on_c, 2, 64, 72
4, 56402, Note_on_c, 2, 67, 72
4, 56590, Note_on_c, 2, 40, 0
4, 56616, Note_on_c, 2, 59, 0
4, 56620, Note_on_c, 2, 64, 0
4, 56636, Note_on_c, 2, 67, 0
4, 56636, Note_on_c, 2, 43, 87
4, 56640, Note_on_c, 2, 50, 84
4, 56642, Note_on_c, 2, 55, 84
4, 56840, Note_on_c, 2, 43, 0
4, 56844, Note_on_c, 2, 50, 0
4, 56846, Note_on_c, 2, 55, 0
4, 56876, Note_on_c, 2, 43, 84
4, 56880, Note_on_c, 2, 50, 84
4, 56882, Note_on_c, 2, 55, 84
4, 56994, Note_on_c, 2, 43, 0
4, 57080, Note_on_c, 2, 50, 0
4, 57112, Note_on_c, 2, 55, 0
4, 57120, Note_on_c, 2, 45, 87
4, 57174, Note_on_c, 2, 52, 84
4, 57180, Note_on_c, 2, 57, 84
4, 57204, Note_on_c, 2, 45, 0
4, 57240, Note_on_c, 2, 45, 87
4, 57270, Note_on_c, 2, 52, 0
4, 57288, Note_on_c, 2, 57, 0
4, 57324, Note_on_c, 2, 45, 0
4, 57350, Note_on_c, 2, 45, 84
4, 57360, Note_on_c, 2, 52, 84
4, 57372, Note_on_c, 2, 57, 84
4, 57600, Note_on_c, 2, 45, 0
4, 57600, Note_on_c, 2, 52, 0
4, 57600, Note_on_c, 2, 57, 0
4, 57600, Note_on_c, 2, 40, 93
4, 57820, Note_on_c, 2, 59, 72
4, 57828, Note_on_c, 2, 64, 72
4, 57832, Note_on_c, 2, 67, 72
4, 57850, Note_on_c, 2, 40, 0
4, 58052, Note_on_c, 2, 59, 0
4, 58060, Note_on_c, 2, 64, 0
4, 58068, Note_on_c, 2, 67, 0
4, 58082, Note_on_c, 2, 40, 98
4, 58146, Note_on_c, 2, 40, 0
4, 58160, Note_on_c, 2, 59, 72
4, 58164, Note_on_c, 2, 64, 72
4, 58172, Note_on_c, 2, 59, 0
4, 58174, Note_on_c, 2, 64, 0
4, 58182, Note_on_c, 2, 40, 96
4, 58304, Note_on_c, 2, 59, 72
4, 58316, Note_on_c, 2, 64, 72
4, 58322, Note_on_c, 2, 67, 72
4, 58510, Note_on_c, 2, 40, 0
4, 58536, Note_on_c, 2, 59, 0
4, 58540, Note_on_c, 2, 64, 0
4, 58556, Note_on_c, 2, 67, 0
4, 58556, Note_on_c, 2, 43, 87
4, 58560, Note_on_c, 2, 50, 84
4, 58562, Note_on_c, 2, 55, 84
4, 58760, Note_on_c, 2, 43, 0
4, 58764, Note_on_c, 2, 50, 0
4, 58766, Note_on_c, 2, 55, 0
4, 58796, Note_on_c, 2, 43, 84
4, 58800, Note_on_c, 2, 50, 84
4, 58802, Note_on_c, 2, 55, 84
4, 58914, Note_on_c, 2, 43, 0
4, 59000, Note_on_c, 2, 50, 0
4, 59032, Note_on_c, 2, 55, 0
4, 59040, Note_on_c, 2, 45, 87
4, 59094, Note_on_c, 2, 52, 84
4, 59100, Note_on_c, 2, 57, 84
4, 59124, Note_on_c, 2, 45, 0
4, 59160, Note_on_c, 2, 45, 87
4, 59190, Note_on_c, 2, 52, 0
4, 59208, Note_on_c, 2, 57, 0
4, 59244, Note_on_c, 2, 45, 0
4, 59270, Note_on_c, 2, 45, 84
4, 59280, Note_on_c, 2, 52, 84
4, 59288, Note_on_c, 2, 57, 84
4, 59518, Note_on_c, 2, 45, 0
4, 59518, Note_on_c, 2, 52, 0
4, 59520, Note_on_c, 2, 57, 0
4, 59520, Note_on_c, 2, 40, 84
4, 59666, Note_on_c, 2, 40, 0
4, 60960, Note_on_c, 2, 54, 127
4, 61070, Note_on_c, 2, 54, 0
4, 61080, Note_on_c, 2, 52, 127
4, 61200, Note_on_c, 2, 50, 127
4, 61204, Note_on_c, 2, 52, 0
4, 61436, Note_on_c, 2, 50, 0
4, 61440, Note_on_c, 2, 57, 127
4, 61468, Pitch_bend_c, 2, 8712
4, 61472, Pitch_bend_c, 2, 9622
4, 61476, Pitch_bend_c, 2, 10402
4, 61480, Pitch_bend_c, 2, 11832
4, 61482, Pitch_bend_c, 2, 12872
4, 61486, Pitch_bend_c, 2, 13782
4, 61490, Pitch_bend_c, 2, 15212
4, 61492, Pitch_bend_c, 2, 15732
4, 61496, Pitch_bend_c, 2, 16252
4, 61500, Pitch_bend_c, 2, 16382
4, 61560, Note_on_c, 2, 60, 127
4, 61566, Note_on_c, 2, 57, 0
4, 61674, Control_c, 2, 1, 8
4, 61680, Control_c, 2, 1, 14
4, 61680, Note_on_c, 2, 65, 127
4, 61686, Control_c, 2, 1, 22
4, 61688, Note_on_c, 2, 60, 0
4, 61690, Control_c, 2, 1, 28
4, 61694, Control_c, 2, 1, 34
4, 61700, Control_c, 2, 1, 40
4, 61704, Control_c, 2, 1, 46
4, 61708, Control_c, 2, 1, 52
4, 61716, Control_c, 2, 1, 58
4, 61724, Control_c, 2, 1, 64
4, 61728, Control_c, 2, 1, 70
4, 61736, Control_c, 2, 1, 76
4, 61744, Control_c, 2, 1, 82
4, 61754, Control_c, 2, 1, 88
4, 61794, Control_c, 2, 1, 92
4, 61830, Control_c, 2, 1, 86
4, 61852, Note_on_c, 2, 65, 0
4, 61870, Control_c, 2, 1, 80
4, 61878, Pitch_bend_c, 2, 15732
4, 61880, Pitch_bend_c, 2, 15342
4, 61884, Pitch_bend_c, 2, 14822
4, 61888, Control_c, 2, 1, 74
4, 61888, Pitch_bend_c, 2, 13782
4, 61890, Pitch_bend_c, 2, 13002
4, 61894, Pitch_bend_c, 2, 11702
4, 61896, Control_c, 2, 1, 68
4, 61898, Pitch_bend_c, 2, 10662
4, 61902, Pitch_bend_c, 2, 9622
4, 61902, Control_c, 2, 1, 60
4, 61904, Pitch_bend_c, 2, 8972
4, 61906, Control_c, 2, 1, 54
4, 61908, Pitch_bend_c, 2, 8582
4, 61910, Control_c, 2, 1, 46
4, 61912, Pitch_bend_c, 2, 8192
4, 61914, Control_c, 2, 1, 38
4, 61916, Control_c, 2, 1, 30
4, 61920, Note_on_c, 2, 57, 127
4, 61920, Control_c, 2, 1, 20
4, 61924, Control_c, 2, 1, 6
4, 61930, Control_c, 2, 1, 0
4, 61936, Pitch_bend_c, 2, 8712
4, 61940, Pitch_bend_c, 2, 9362
4, 61942, Pitch_bend_c, 2, 10272
4, 61946, Pitch_bend_c, 2, 11702
4, 61950, Pitch_bend_c, 2, 13132
4, 61954, Pitch_bend_c, 2, 15342
4, 61956, Pitch_bend_c, 2, 15862
4, 61960, Pitch_bend_c, 2, 16252
4, 61964, Pitch_bend_c, 2, 16382
4, 62040, Note_on_c, 2, 60, 127
4, 62044, Note_on_c, 2, 57, 0
4, 62142, Control_c, 2, 1, 6
4, 62146, Control_c, 2, 1, 12
4, 62154, Control_c, 2, 1, 20
4, 62156, Control_c, 2, 1, 26
4, 62158, Note_on_c, 2, 60, 0
4, 62160, Note_on_c, 2, 65, 125
4, 62162, Control_c, 2, 1, 32
4, 62168, Control_c, 2, 1, 40
4, 62172, Control_c, 2, 1, 46
4, 62176, Control_c, 2, 1, 52
4, 62182, Control_c, 2, 1, 60
4, 62190, Control_c, 2, 1, 66
4, 62194, Control_c, 2, 1, 72
4, 62202, Control_c, 2, 1, 78
4, 62208, Control_c, 2, 1, 84
4, 62230, Control_c, 2, 1, 90
4, 62274, Control_c, 2, 1, 88
4, 62304, Control_c, 2, 1, 90
4, 62342, Control_c, 2, 1, 84
4, 62348, Control_c, 2, 1, 78
4, 62354, Control_c, 2, 1, 70
4, 62358, Control_c, 2, 1, 60
4, 62362, Note_on_c, 2, 65, 0
4, 62362, Control_c, 2, 1, 44
4, 62366, Control_c, 2, 1, 32
4, 62368, Control_c, 2, 1, 18
4, 62372, Control_c, 2, 1, 6
4, 62380, Control_c, 2, 1, 0
4, 62384, Pitch_bend_c, 2, 15732
4, 62388, Pitch_bend_c, 2, 14822
4, 62390, Pitch_bend_c, 2, 13262
4, 62394, Pitch_bend_c, 2, 10272
4, 62396, Pitch_bend_c, 2, 8712
4, 62398, Pitch_bend_c, 2, 8256
4, 62400, Note_on_c, 2, 57, 127
4, 62412, Pitch_bend_c, 2, 8576
4, 62416, Pitch_bend_c, 2, 8896
4, 62420, Pitch_bend_c, 2, 9280
4, 62424, Pitch_bend_c, 2, 9600
4, 62426, Pitch_bend_c, 2, 9984
4, 62430, Pitch_bend_c, 2, 10304
4, 62434, Pitch_bend_c, 2, 10752
4, 62436, Pitch_bend_c, 2, 11072
4, 62440, Pitch_bend_c, 2, 11392
4, 62444, Pitch_bend_c, 2, 11712
4, 62446, Pitch_bend_c, 2, 12096
4, 62450, Pitch_bend_c, 2, 12608
4, 62452, Pitch_bend_c, 2, 13120
4, 62456, Pitch_bend_c, 2, 13696
4, 62458, Pitch_bend_c, 2, 14528
4, 62460, Pitch_bend_c, 2, 15936
4, 62514, Note_on_c, 2, 57, 0
4, 62520, Note_on_c, 2, 60, 127
4, 62638, Note_on_c, 2, 60, 0
4, 62640, Note_on_c, 2, 65, 127
4, 62752, Pitch_bend_c, 2, 8256
4, 62758, Note_on_c, 2, 65, 0
4, 62760, Note_on_c, 2, 57, 127
4, 62824, Control_c, 2, 1, 2
4, 62826, Control_c, 2, 1, 8
4, 62830, Control_c, 2, 1, 14
4, 62832, Control_c, 2, 1, 20
4, 62836, Control_c, 2, 1, 28
4, 62840, Control_c, 2, 1, 34
4, 62844, Control_c, 2, 1, 42
4, 62854, Control_c, 2, 1, 48
4, 62890, Control_c, 2, 1, 54
4, 62920, Control_c, 2, 1, 60
4, 62930, Control_c, 2, 1, 62
4, 63138, Control_c, 2, 1, 56
4, 63146, Control_c, 2, 1, 50
4, 63150, Control_c, 2, 1, 44
4, 63152, Control_c, 2, 1, 38
4, 63156, Control_c, 2, 1, 16
4, 63158, Note_on_c, 2, 57, 0
4, 63160, Control_c, 2, 1, 8
4, 63164, Control_c, 2, 1, 0
4, 63360, Note_on_c, 2, 55, 123
4, 63470, Note_on_c, 2, 55, 0
4, 63480, Note_on_c, 2, 50, 127
4, 63576, Note_on_c, 2, 38, 90
4, 63612, Pitch_bend_c, 2, 8712
4, 63616, Pitch_bend_c, 2, 10012
4, 63620, Pitch_bend_c, 2, 10922
4, 63622, Pitch_bend_c, 2, 12352
4, 63626, Pitch_bend_c, 2, 13782
4, 63630, Pitch_bend_c, 2, 15602
4, 63632, Pitch_bend_c, 2, 15992
4, 63638, Pitch_bend_c, 2, 16382
4, 63668, Note_on_c, 2, 50, 0
4, 63712, Note_on_c, 2, 38, 0
4, 63714, Pitch_bend_c, 2, 15992
4, 63716, Pitch_bend_c, 2, 15472
4, 63720, Note_on_c, 2, 50, 127
4, 63720, Pitch_bend_c, 2, 13912
4, 63724, Pitch_bend_c, 2, 13002
4, 63726, Pitch_bend_c, 2, 11312
4, 63730, Pitch_bend_c, 2, 9882
4, 63734, Pitch_bend_c, 2, 9232
4, 63736, Pitch_bend_c, 2, 8712
4, 63742, Pitch_bend_c, 2, 8192
4, 63796, Pitch_bend_c, 2, 8582
4, 63798, Pitch_bend_c, 2, 10662
4, 63802, Pitch_bend_c, 2, 12352
4, 63804, Pitch_bend_c, 2, 14692
4, 63808, Pitch_bend_c, 2, 15472
4, 63810, Pitch_bend_c, 2, 16122
4, 63816, Pitch_bend_c, 2, 16382
4, 64002, Control_c, 2, 1, 6
4, 64010, Control_c, 2, 1, 14
4, 64014, Control_c, 2, 1, 20
4, 64018, Control_c, 2, 1, 26
4, 64030, Control_c, 2, 1, 32
4, 64042, Control_c, 2, 1, 38
4, 64048, Control_c, 2, 1, 44
4, 64060, Control_c, 2, 1, 50
4, 64074, Control_c, 2, 1, 52
4, 64190, Control_c, 2, 1, 46
4, 64194, Control_c, 2, 1, 40
4, 64198, Control_c, 2, 1, 34
4, 64202, Control_c, 2, 1, 24
4, 64208, Note_on_c, 2, 50, 0
4, 64208, Control_c, 2, 1, 12
4, 64212, Control_c, 2, 1, 2
4, 64212, Control_c, 2, 1, 0
4, 64320, Note_on_c, 2, 57, 127
4, 64332, Pitch_bend_c, 2, 8576
4, 64336, Pitch_bend_c, 2, 8896
4, 64340, Pitch_bend_c, 2, 9280
4, 64344, Pitch_bend_c, 2, 9600
4, 64346, Pitch_bend_c, 2, 9984
4, 64350, Pitch_bend_c, 2, 10304
4, 64354, Pitch_bend_c, 2, 10752
4, 64356, Pitch_bend_c, 2, 11072
4, 64360, Pitch_bend_c, 2, 11392
4, 64364, Pitch_bend_c, 2, 11712
4, 64366, Pitch_bend_c, 2, 12096
4, 64370, Pitch_bend_c, 2, 12608
4, 64372, Pitch_bend_c, 2, 13120
4, 64376, Pitch_bend_c, 2, 13696
4, 64378, Pitch_bend_c, 2, 14528
4, 64380, Pitch_bend_c, 2, 15936
4, 64438, Note_on_c, 2, 57, 0
4, 64440, Note_on_c, 2, 60, 127
4, 64560, Note_on_c, 2, 60, 0
4, 64560, Note_on_c, 2, 65, 127
4, 64670, Pitch_bend_c, 2, 15616
4, 64672, Pitch_bend_c, 2, 15104
4, 64674, Note_on_c, 2, 65, 0
4, 64676, Pitch_bend_c, 2, 14656
4, 64678, Pitch_bend_c, 2, 14144
4, 64680, Note_on_c, 2, 57, 127
4, 64682, Pitch_bend_c, 2, 13632
4, 64684, Pitch_bend_c, 2, 13184
4, 64688, Pitch_bend_c, 2, 12672
4, 64690, Pitch_bend_c, 2, 12288
4, 64694, Pitch_bend_c, 2, 11840
4, 64696, Pitch_bend_c, 2, 11456
4, 64700, Pitch_bend_c, 2, 11136
4, 64702, Pitch_bend_c, 2, 10624
4, 64706, Pitch_bend_c, 2, 10112
4, 64708, Pitch_bend_c, 2, 9792
4, 64712, Pitch_bend_c, 2, 9408
4, 64714, Pitch_bend_c, 2, 9024
4, 64718, Pitch_bend_c, 2, 8512
4, 64722, Pitch_bend_c, 2, 8256
4, 64746, Control_c, 2, 1, 8
4, 64750, Control_c, 2, 1, 14
4, 64752, Control_c, 2, 1, 20
4, 64756, Control_c, 2, 1, 28
4, 64760, Control_c, 2, 1, 34
4, 64764, Control_c, 2, 1, 42
4, 64774, Control_c, 2, 1, 48
4, 64810, Control_c, 2, 1, 54
4, 64840, Control_c, 2, 1, 60
4, 64850, Control_c, 2, 1, 62
4, 65058, Control_c, 2, 1, 56
4, 65066, Control_c, 2, 1, 50
4, 65070, Control_c, 2, 1, 44
4, 65072, Control_c, 2, 1, 38
4, 65076, Control_c, 2, 1, 16
4, 65078, Note_on_c, 2, 57, 0
4, 65080, Control_c, 2, 1, 8
4, 65084, Control_c, 2, 1, 0
4, 65280, Note_on_c, 2, 55, 123
4, 65390, Note_on_c, 2, 55, 0
4, 65400, Note_on_c, 2, 50, 127
4, 65502, Note_on_c, 2, 38, 90
4, 65532, Pitch_bend_c, 2, 8712
4, 65536, Pitch_bend_c, 2, 10012
4, 65540, Pitch_bend_c, 2, 10922
4, 65542, Pitch_bend_c, 2, 12352
4, 65546, Pitch_bend_c, 2, 13782
4, 65550, Pitch_bend_c, 2, 15602
4, 65552, Pitch_bend_c, 2, 15992
4, 65558, Pitch_bend_c, 2, 16382
4, 65608, Note_on_c, 2, 50, 0
4, 65634, Pitch_bend_c, 2, 15992
4, 65636, Pitch_bend_c, 2, 15472
4, 65640, Note_on_c, 2, 50, 127
4, 65640, Pitch_bend_c, 2, 13912
4, 65644, Pitch_bend_c, 2, 13002
4, 65646, Note_on_c, 2, 38, 0
4, 65646, Pitch_bend_c, 2, 11312
4, 65650, Pitch_bend_c, 2, 9882
4, 65654, Pitch_bend_c, 2, 9232
4, 65656, Pitch_bend_c, 2, 8712
4, 65662, Pitch_bend_c, 2, 8192
4, 65716, Pitch_bend_c, 2, 8582
4, 65718, Pitch_bend_c, 2, 10662
4, 65722, Pitch_bend_c, 2, 12352
4, 65724, Pitch_bend_c, 2, 14692
4, 65728, Pitch_bend_c, 2, 15472
4, 65730, Pitch_bend_c, 2, 16122
4, 65736, Pitch_bend_c, 2, 16382
4, 65922, Control_c, 2, 1, 6
4, 65930, Control_c, 2, 1, 14
4, 65934, Control_c, 2, 1, 20
4, 65938, Control_c, 2, 1, 26
4, 65950, Control_c, 2, 1, 32
4, 65962, Control_c, 2, 1, 38
4, 65968, Control_c, 2, 1, 44
4, 65980, Control_c, 2, 1, 50
4, 65994, Control_c, 2, 1, 52
4, 66000, Note_on_c, 2, 50, 0
4, 66000, Pitch_bend_c, 2, 8256
4, 66108, Note_on_c, 2, 50, 122
4, 66110, Control_c, 2, 1, 46
4, 66114, Control_c, 2, 1, 40
4, 66118, Control_c, 2, 1, 34
4, 66122, Control_c, 2, 1, 24
4, 66128, Control_c, 2, 1, 12
4, 66132, Pitch_bend_c, 2, 8582
4, 66132, Control_c, 2, 1, 2
4, 66132, Control_c, 2, 1, 0
4, 66134, Pitch_bend_c, 2, 9102
4, 66138, Pitch_bend_c, 2, 10272
4, 66142, Pitch_bend_c, 2, 11052
4, 66144, Pitch_bend_c, 2, 12612
4, 66150, Pitch_bend_c, 2, 14562
4, 66154, Pitch_bend_c, 2, 15862
4, 66158, Pitch_bend_c, 2, 16252
4, 66160, Pitch_bend_c, 2, 16382
4, 66214, Note_on_c, 2, 50, 0
4, 66220, Pitch_bend_c, 2, 15862
4, 66224, Pitch_bend_c, 2, 8256
4, 66224, Pitch_bend_c, 2, 13392
4, 66228, Pitch_bend_c, 2, 10532
4, 66230, Pitch_bend_c, 2, 8192
4, 66232, Pitch_bend_c, 2, 8064
4, 66234, Pitch_bend_c, 2, 8192
4, 66238, Pitch_bend_c, 2, 8582
4, 66240, Note_on_c, 2, 55, 113
4, 66240, Pitch_bend_c, 2, 8972
4, 66246, Pitch_bend_c, 2, 8452
4, 66246, Pitch_bend_c, 2, 8192
4, 66250, Pitch_bend_c, 2, 7936
4, 66256, Pitch_bend_c, 2, 8192
4, 66336, Note_on_c, 2, 55, 0
4, 66360, Note_on_c, 2, 57, 113
4, 66434, Note_on_c, 2, 57, 0
4, 66480, Note_on_c, 2, 59, 113
4, 66584, Note_on_c, 2, 59, 0
4, 66600, Note_on_c, 2, 53, 113
4, 66608, Pitch_bend_c, 2, 8712
4, 66612, Pitch_bend_c, 2, 9102
4, 66614, Pitch_bend_c, 2, 9622
4, 66618, Pitch_bend_c, 2, 10402
4, 66624, Pitch_bend_c, 2, 11312
4, 66628, Pitch_bend_c, 2, 12742
4, 66630, Pitch_bend_c, 2, 13522
4, 66634, Pitch_bend_c, 2, 14692
4, 66638, Pitch_bend_c, 2, 15472
4, 66640, Pitch_bend_c, 2, 15862
4, 66644, Pitch_bend_c, 2, 16252
4, 66646, Pitch_bend_c, 2, 16382
4, 66846, Pitch_bend_c, 2, 15992
4, 66848, Pitch_bend_c, 2, 15472
4, 66852, Pitch_bend_c, 2, 15082
4, 66856, Pitch_bend_c, 2, 14432
4, 66860, Pitch_bend_c, 2, 14042
4, 66864, Pitch_bend_c, 2, 13782
4, 66872, Pitch_bend_c, 2, 14172
4, 66878, Pitch_bend_c, 2, 15212
4, 66880, Pitch_bend_c, 2, 15732
4, 66884, Pitch_bend_c, 2, 16252
4, 66888, Pitch_bend_c, 2, 16382
4, 66906, Pitch_bend_c, 2, 15992
4, 66908, Pitch_bend_c, 2, 15602
4, 66912, Pitch_bend_c, 2, 14692
4, 66914, Pitch_bend_c, 2, 13912
4, 66918, Pitch_bend_c, 2, 13132
4, 66922, Pitch_bend_c, 2, 12742
4, 66924, Pitch_bend_c, 2, 12352
4, 66932, Pitch_bend_c, 2, 12872
4, 66936, Pitch_bend_c, 2, 13652
4, 66938, Pitch_bend_c, 2, 15212
4, 66942, Pitch_bend_c, 2, 15732
4, 66946, Pitch_bend_c, 2, 16252
4, 66950, Pitch_bend_c, 2, 16382
4, 66976, Pitch_bend_c, 2, 15732
4, 66980, Pitch_bend_c, 2, 15342
4, 66984, Pitch_bend_c, 2, 15082
4, 66992, Pitch_bend_c, 2, 15602
4, 66994, Pitch_bend_c, 2, 16122
4, 67000, Pitch_bend_c, 2, 16382
4, 67042, Pitch_bend_c, 2, 16252
4, 67046, Pitch_bend_c, 2, 16382
4, 67096, Pitch_bend_c, 2, 15992
4, 67100, Note_on_c, 2, 53, 0
4, 67106, Pitch_bend_c, 2, 16382
4, 67120, Pitch_bend_c, 2, 15992
4, 67124, Pitch_bend_c, 2, 13522
4, 67126, Pitch_bend_c, 2, 10532
4, 67130, Pitch_bend_c, 2, 7808
4, 67132, Pitch_bend_c, 2, 7552
4, 67136, Pitch_bend_c, 2, 7936
4, 67136, Pitch_bend_c, 2, 8192
4, 67140, Pitch_bend_c, 2, 8972
4, 67144, Pitch_bend_c, 2, 8582
4, 67146, Pitch_bend_c, 2, 8192
4, 67148, Pitch_bend_c, 2, 7808
4, 67156, Pitch_bend_c, 2, 8192
4, 67180, Note_on_c, 2, 53, 108
4, 67206, Pitch_bend_c, 2, 8712
4, 67210, Pitch_bend_c, 2, 9492
4, 67212, Pitch_bend_c, 2, 10402
4, 67216, Pitch_bend_c, 2, 11832
4, 67220, Pitch_bend_c, 2, 13002
4, 67222, Pitch_bend_c, 2, 14172
4, 67226, Pitch_bend_c, 2, 15472
4, 67228, Pitch_bend_c, 2, 15992
4, 67236, Pitch_bend_c, 2, 16382
4, 67314, Note_on_c, 2, 53, 0
4, 67320, Note_on_c, 2, 45, 122
4, 67322, Pitch_bend_c, 2, 14822
4, 67326, Pitch_bend_c, 2, 12742
4, 67330, Pitch_bend_c, 2, 8192
4, 67332, Pitch_bend_c, 2, 7296
4, 67336, Pitch_bend_c, 2, 7936
4, 67336, Pitch_bend_c, 2, 8192
4, 67340, Pitch_bend_c, 2, 8842
4, 67342, Pitch_bend_c, 2, 8972
4, 67346, Pitch_bend_c, 2, 8322
4, 67346, Pitch_bend_c, 2, 8192
4, 67350, Pitch_bend_c, 2, 7680
4, 67354, Pitch_bend_c, 2, 8064
4, 67356, Pitch_bend_c, 2, 8192
4, 67366, Pitch_bend_c, 2, 8064
4, 67368, Pitch_bend_c, 2, 8192
4, 67434, Note_on_c, 2, 45, 0
4, 67440, Note_on_c, 2, 40, 113
4, 67554, Note_on_c, 2, 40, 0
4, 67560, Note_on_c, 2, 43, 104
4, 67686, Pitch_bend_c, 2, 8582
4, 67694, Pitch_bend_c, 2, 8972
4, 67708, Pitch_bend_c, 2, 8582
4, 67714, Pitch_bend_c, 2, 8192
4, 67798, Pitch_bend_c, 2, 7808
4, 67802, Pitch_bend_c, 2, 7552
4, 67814, Pitch_bend_c, 2, 7936
4, 67818, Pitch_bend_c, 2, 8192
4, 67828, Pitch_bend_c, 2, 8582
4, 67832, Pitch_bend_c, 2, 9102
4, 67836, Pitch_bend_c, 2, 9622
4, 67838, Pitch_bend_c, 2, 10532
4, 67842, Pitch_bend_c, 2, 11052
4, 67844, Pitch_bend_c, 2, 11442
4, 67846, Pitch_bend_c, 2, 11572
4, 67856, Pitch_bend_c, 2, 11182
4, 67862, Pitch_bend_c, 2, 10662
4, 67864, Pitch_bend_c, 2, 10012
4, 67868, Pitch_bend_c, 2, 9622
4, 67870, Pitch_bend_c, 2, 9232
4, 67874, Pitch_bend_c, 2, 8842
4, 67878, Pitch_bend_c, 2, 8452
4, 67880, Pitch_bend_c, 2, 8322
4, 67892, Pitch_bend_c, 2, 8712
4, 67896, Pitch_bend_c, 2, 9492
4, 67898, Pitch_bend_c, 2, 9882
4, 67902, Pitch_bend_c, 2, 10792
4, 67906, Pitch_bend_c, 2, 11312
4, 67908, Pitch_bend_c, 2, 11832
4, 67912, Pitch_bend_c, 2, 12352
4, 67918, Pitch_bend_c, 2, 12612
4, 67924, Pitch_bend_c, 2, 12092
4, 67928, Pitch_bend_c, 2, 11702
4, 67932, Pitch_bend_c, 2, 11182
4, 67936, Pitch_bend_c, 2, 10792
4, 67938, Pitch_bend_c, 2, 9882
4, 67942, Pitch_bend_c, 2, 9492
4, 67944, Pitch_bend_c, 2, 9102
4, 67948, Pitch_bend_c, 2, 8712
4, 67954, Pitch_bend_c, 2, 8452
4, 67966, Pitch_bend_c, 2, 8842
4, 67970, Pitch_bend_c, 2, 10272
4, 67972, Pitch_bend_c, 2, 10662
4, 67976, Pitch_bend_c, 2, 11442
4, 67980, Pitch_bend_c, 2, 11832
4, 67982, Pitch_bend_c, 2, 12352
4, 67988, Pitch_bend_c, 2, 12612
4, 67998, Pitch_bend_c, 2, 12092
4, 68006, Pitch_bend_c, 2, 11572
4, 68008, Pitch_bend_c, 2, 11182
4, 68012, Pitch_bend_c, 2, 10792
4, 68016, Pitch_bend_c, 2, 9882
4, 68018, Pitch_bend_c, 2, 9492
4, 68020, Note_on_c, 2, 43, 0
4, 68022, Pitch_bend_c, 2, 8972
4, 68024, Pitch_bend_c, 2, 8582
4, 68030, Pitch_bend_c, 2, 8192
4, 68046, Note_on_c, 2, 45, 127
4, 68146, Note_on_c, 2, 45, 0
4, 68158, Note_on_c, 2, 45, 127
4, 68190, Pitch_bend_c, 2, 8842
4, 68192, Pitch_bend_c, 2, 9362
4, 68196, Pitch_bend_c, 2, 10922
4, 68198, Pitch_bend_c, 2, 11702
4, 68202, Pitch_bend_c, 2, 13522
4, 68206, Pitch_bend_c, 2, 14562
4, 68210, Pitch_bend_c, 2, 15862
4, 68212, Pitch_bend_c, 2, 16252
4, 68216, Pitch_bend_c, 2, 16382
4, 68254, Note_on_c, 2, 45, 0
4, 68284, Note_on_c, 2, 53, 122
4, 68370, Pitch_bend_c, 2, 15992
4, 68374, Pitch_bend_c, 2, 15212
4, 68378, Pitch_bend_c, 2, 14692
4, 68380, Pitch_bend_c, 2, 13002
4, 68384, Pitch_bend_c, 2, 11702
4, 68388, Pitch_bend_c, 2, 9752
4, 68390, Pitch_bend_c, 2, 9362
4, 68392, Note_on_c, 2, 53, 0
4, 68394, Pitch_bend_c, 2, 8582
4, 68396, Note_on_c, 2, 57, 122
4, 68398, Pitch_bend_c, 2, 8192
4, 68422, Pitch_bend_c, 2, 8582
4, 68424, Pitch_bend_c, 2, 9752
4, 68428, Pitch_bend_c, 2, 10662
4, 68430, Pitch_bend_c, 2, 12092
4, 68434, Pitch_bend_c, 2, 13912
4, 68438, Pitch_bend_c, 2, 15732
4, 68442, Pitch_bend_c, 2, 16122
4, 68444, Pitch_bend_c, 2, 16382
4, 68498, Pitch_bend_c, 2, 15992
4, 68500, Pitch_bend_c, 2, 15472
4, 68504, Pitch_bend_c, 2, 13652
4, 68508, Pitch_bend_c, 2, 11702
4, 68512, Note_on_c, 2, 57, 0
4, 68512, Pitch_bend_c, 2, 10012
4, 68516, Pitch_bend_c, 2, 9102
4, 68518, Pitch_bend_c, 2, 8192
4, 68518, Note_on_c, 2, 55, 125
4, 68524, Pitch_bend_c, 2, 7680
4, 68528, Pitch_bend_c, 2, 7296
4, 68530, Pitch_bend_c, 2, 7168
4, 68538, Pitch_bend_c, 2, 7552
4, 68542, Pitch_bend_c, 2, 7936
4, 68548, Pitch_bend_c, 2, 8192
4, 68552, Pitch_bend_c, 2, 8582
4, 68556, Pitch_bend_c, 2, 9752
4, 68558, Pitch_bend_c, 2, 11052
4, 68562, Pitch_bend_c, 2, 11962
4, 68564, Pitch_bend_c, 2, 14172
4, 68568, Pitch_bend_c, 2, 15212
4, 68570, Pitch_bend_c, 2, 15992
4, 68576, Pitch_bend_c, 2, 16382
4, 68708, Control_c, 2, 1, 6
4, 68716, Control_c, 2, 1, 12
4, 68726, Control_c, 2, 1, 18
4, 68740, Control_c, 2, 1, 26
4, 68754, Control_c, 2, 1, 32
4, 68772, Control_c, 2, 1, 38
4, 68788, Control_c, 2, 1, 44
4, 68802, Control_c, 2, 1, 50
4, 68836, Control_c, 2, 1, 56
4, 68850, Control_c, 2, 1, 62
4, 68870, Control_c, 2, 1, 68
4, 68874, Note_on_c, 2, 55, 0
4, 68880, Control_c, 2, 1, 1
4, 68880, Pitch_bend_c, 2, 8256
4, 68884, Note_on_c, 2, 55, 127
4, 68996, Note_on_c, 2, 55, 0
4, 68998, Note_on_c, 2, 50, 127
4, 69116, Note_on_c, 2, 57, 125
4, 69118, Note_on_c, 2, 50, 0
4, 69160, Pitch_bend_c, 2, 8712
4, 69162, Pitch_bend_c, 2, 9232
4, 69166, Pitch_bend_c, 2, 9752
4, 69170, Pitch_bend_c, 2, 11052
4, 69172, Pitch_bend_c, 2, 11962
4, 69176, Pitch_bend_c, 2, 13652
4, 69178, Pitch_bend_c, 2, 14952
4, 69186, Pitch_bend_c, 2, 15602
4, 69190, Pitch_bend_c, 2, 16382
4, 69238, Note_on_c, 2, 57, 0
4, 69250, Note_on_c, 2, 60, 126
4, 69318, Note_on_c, 2, 60, 0
4, 69368, Note_on_c, 2, 60, 127
4, 69448, Note_on_c, 2, 60, 0
4, 69466, Pitch_bend_c, 2, 15992
4, 69468, Pitch_bend_c, 2, 15472
4, 69472, Pitch_bend_c, 2, 14692
4, 69476, Pitch_bend_c, 2, 14042
4, 69478, Pitch_bend_c, 2, 13002
4, 69482, Pitch_bend_c, 2, 12352
4, 69486, Pitch_bend_c, 2, 10792
4, 69490, Pitch_bend_c, 2, 9882
4, 69492, Pitch_bend_c, 2, 9362
4, 69492, Note_on_c, 2, 62, 127
4, 69496, Pitch_bend_c, 2, 8972
4, 69500, Pitch_bend_c, 2, 8452
4, 69502, Pitch_bend_c, 2, 8192
4, 69534, Pitch_bend_c, 2, 8582
4, 69538, Pitch_bend_c, 2, 9102
4, 69540, Pitch_bend_c, 2, 10272
4, 69546, Pitch_bend_c, 2, 11442
4, 69550, Pitch_bend_c, 2, 13262
4, 69552, Pitch_bend_c, 2, 14172
4, 69556, Pitch_bend_c, 2, 15082
4, 69560, Pitch_bend_c, 2, 15862
4, 69564, Pitch_bend_c, 2, 16252
4, 69566, Pitch_bend_c, 2, 16382
4, 69642, Control_c, 2, 1, 6
4, 69648, Control_c, 2, 1, 12
4, 69652, Control_c, 2, 1, 18
4, 69660, Control_c, 2, 1, 24
4, 69666, Control_c, 2, 1, 30
4, 69672, Control_c, 2, 1, 36
4, 69682, Control_c, 2, 1, 42
4, 69690, Control_c, 2, 1, 48
4, 69698, Control_c, 2, 1, 54
4, 69706, Control_c, 2, 1, 60
4, 69716, Control_c, 2, 1, 66
4, 69748, Control_c, 2, 1, 72
4, 69836, Note_on_c, 2, 62, 0
4, 69840, Control_c, 2, 1, 0
4, 69846, Pitch_bend_c, 2, 8322
4, 69848, Pitch_bend_c, 2, 8712
4, 69852, Pitch_bend_c, 2, 9102
4, 69852, Note_on_c, 2, 50, 91
4, 69854, Pitch_bend_c, 2, 9752
4, 69858, Pitch_bend_c, 2, 10792
4, 69862, Pitch_bend_c, 2, 11702
4, 69866, Pitch_bend_c, 2, 13132
4, 69870, Pitch_bend_c, 2, 13782
4, 69874, Pitch_bend_c, 2, 15472
4, 69876, Pitch_bend_c, 2, 16122
4, 69880, Pitch_bend_c, 2, 16382
4, 69972, Note_on_c, 2, 45, 90
4, 69978, Note_on_c, 2, 50, 0
4, 69980, Pitch_bend_c, 2, 15992
4, 69982, Pitch_bend_c, 2, 15602
4, 69986, Pitch_bend_c, 2, 14692
4, 69990, Pitch_bend_c, 2, 14042
4, 69992, Pitch_bend_c, 2, 13782
4, 69992, Pitch_bend_c, 2, 16252
4, 69994, Pitch_bend_c, 2, 13132
4, 69994, Pitch_bend_c, 2, 15992
4, 69994, Pitch_bend_c, 2, 12742
4, 69996, Pitch_bend_c, 2, 15732
4, 69996, Pitch_bend_c, 2, 12352
4, 69998, Pitch_bend_c, 2, 14952
4, 69998, Pitch_bend_c, 2, 11832
4, 70000, Pitch_bend_c, 2, 14562
4, 70000, Pitch_bend_c, 2, 11442
4, 70000, Pitch_bend_c, 2, 14042
4, 70002, Pitch_bend_c, 2, 10012
4, 70004, Pitch_bend_c, 2, 13262
4, 70004, Pitch_bend_c, 2, 9752
4, 70004, Pitch_bend_c, 2, 13002
4, 70006, Pitch_bend_c, 2, 9492
4, 70006, Pitch_bend_c, 2, 11962
4, 70008, Pitch_bend_c, 2, 9232
4, 70008, Pitch_bend_c, 2, 11052
4, 70008, Pitch_bend_c, 2, 9102
4, 70010, Pitch_bend_c, 2, 10662
4, 70010, Pitch_bend_c, 2, 8712
4, 70012, Pitch_bend_c, 2, 10272
4, 70012, Pitch_bend_c, 2, 8582
4, 70014, Pitch_bend_c, 2, 9362
4, 70014, Pitch_bend_c, 2, 8452
4, 70016, Pitch_bend_c, 2, 9102
4, 70016, Pitch_bend_c, 2, 8322
4, 70016, Pitch_bend_c, 2, 8842
4, 70018, Pitch_bend_c, 2, 8192
4, 70024, Pitch_bend_c, 2, 7680
4, 70028, Pitch_bend_c, 2, 6272
4, 70032, Pitch_bend_c, 2, 5120
4, 70034, Pitch_bend_c, 2, 4096
4, 70038, Pitch_bend_c, 2, 3328
4, 70042, Pitch_bend_c, 2, 2048
4, 70046, Pitch_bend_c, 2, 896
4, 70050, Pitch_bend_c, 2, 128
4, 70050, Pitch_bend_c, 2, 0
4, 70078, Note_on_c, 2, 45, 0
4, 70078, Pitch_bend_c, 2, 8256
4, 70080, Note_on_c, 2, 40, 93
4, 70300, Note_on_c, 2, 59, 72
4, 70308, Note_on_c, 2, 64, 72
4, 70312, Note_on_c, 2, 67, 72
4, 70330, Note_on_c, 2, 40, 0
4, 70472, Note_on_c, 2, 59, 0
4, 70476, Note_on_c, 2, 64, 0
4, 70478, Note_on_c, 2, 67, 0
4, 70506, Note_on_c, 2, 59, 72
4, 70510, Note_on_c, 2, 64, 72
4, 70510, Note_on_c, 2, 67, 72
4, 70534, Note_on_c, 2, 59, 0
4, 70534, Note_on_c, 2, 64, 0
4, 70544, Note_on_c, 2, 67, 0
4, 70562, Note_on_c, 2, 40, 98
4, 70596, Note_on_c, 2, 40, 0
4, 70640, Note_on_c, 2, 59, 72
4, 70644, Note_on_c, 2, 64, 72
4, 70646, Note_on_c, 2, 67, 72
4, 70656, Note_on_c, 2, 59, 0
4, 70658, Note_on_c, 2, 64, 0
4, 70662, Note_on_c, 2, 40, 96
4, 70670, Note_on_c, 2, 67, 0
4, 70784, Note_on_c, 2, 59, 72
4, 70796, Note_on_c, 2, 64, 72
4, 70802, Note_on_c, 2, 67, 72
4, 70810, Note_on_c, 2, 40, 0
4, 71016, Note_on_c, 2, 59, 0
4, 71020, Note_on_c, 2, 64, 0
4, 71036, Note_on_c, 2, 67, 0
4, 71036, Note_on_c, 2, 43, 87
4, 71040, Note_on_c, 2, 50, 84
4, 71042, Note_on_c, 2, 55, 84
4, 71240, Note_on_c, 2, 43, 0
4, 71244, Note_on_c, 2, 50, 0
4, 71246, Note_on_c, 2, 55, 0
4, 71276, Note_on_c, 2, 43, 84
4, 71280, Note_on_c, 2, 50, 84
4, 71282, Note_on_c, 2, 55, 84
4, 71394, Note_on_c, 2, 43, 0
4, 71480, Note_on_c, 2, 50, 0
4, 71512, Note_on_c, 2, 55, 0
4, 71520, Note_on_c, 2, 45, 87
4, 71574, Note_on_c, 2, 52, 84
4, 71580, Note_on_c, 2, 57, 84
4, 71604, Note_on_c, 2, 45, 0
4, 71640, Note_on_c, 2, 45, 87
4, 71670, Note_on_c, 2, 52, 0
4, 71688, Note_on_c, 2, 57, 0
4, 71724, Note_on_c, 2, 45, 0
4, 71750, Note_on_c, 2, 45, 84
4, 71760, Note_on_c, 2, 52, 84
4, 71772, Note_on_c, 2, 57, 84
4, 71996, Note_on_c, 2, 52, 0
4, 71998, Note_on_c, 2, 45, 0
4, 72000, Note_on_c, 2, 57, 0
4, 72000, Note_on_c, 2, 40, 93
4, 72220, Note_on_c, 2, 59, 72
4, 72228, Note_on_c, 2, 64, 72
4, 72232, Note_on_c, 2, 67, 72
4, 72250, Note_on_c, 2, 40, 0
4, 72452, Note_on_c, 2, 59, 0
4, 72460, Note_on_c, 2, 64, 0
4, 72468, Note_on_c, 2, 67, 0
4, 72482, Note_on_c, 2, 40, 98
4, 72546, Note_on_c, 2, 40, 0
4, 72560, Note_on_c, 2, 59, 72
4, 72564, Note_on_c, 2, 64, 72
4, 72582, Note_on_c, 2, 40, 96
4, 72584, Note_on_c, 2, 59, 0
4, 72586, Note_on_c, 2, 64, 0
4, 72704, Note_on_c, 2, 59, 72
4, 72716, Note_on_c, 2, 64, 72
4, 72722, Note_on_c, 2, 67, 72
4, 72910, Note_on_c, 2, 40, 0
4, 72936, Note_on_c, 2, 59, 0
4, 72940, Note_on_c, 2, 64, 0
4, 72956, Note_on_c, 2, 67, 0
4, 72956, Note_on_c, 2, 43, 87
4, 72960, Note_on_c, 2, 50, 84
4, 72962, Note_on_c, 2, 55, 84
4, 73160, Note_on_c, 2, 43, 0
4, 73164, Note_on_c, 2, 50, 0
4, 73166, Note_on_c, 2, 55, 0
4, 73196, Note_on_c, 2, 43, 84
4, 73200, Note_on_c, 2, 50, 84
4, 73202, Note_on_c, 2, 55, 84
4, 73314, Note_on_c, 2, 43, 0
4, 73400, Note_on_c, 2, 50, 0
4, 73432, Note_on_c, 2, 55, 0
4, 73440, Note_on_c, 2, 45, 87
4, 73494, Note_on_c, 2, 52, 84
4, 73500, Note_on_c, 2, 57, 84
4, 73524, Note_on_c, 2, 45, 0
4, 73560, Note_on_c, 2, 45, 87
4, 73590, Note_on_c, 2, 52, 0
4, 73608, Note_on_c, 2, 57, 0
4, 73644, Note_on_c, 2, 45, 0
4, 73668, Note_on_c, 2, 45, 84
4, 73680, Note_on_c, 2, 57, 84
4, 73680, Note_on_c, 2, 52, 84
4, 73914, Note_on_c, 2, 45, 0
4, 73916, Note_on_c, 2, 52, 0
4, 73918, Note_on_c, 2, 57, 0
4, 73920, Note_on_c, 2, 40, 93
4, 74140, Note_on_c, 2, 59, 72
4, 74148, Note_on_c, 2, 64, 72
4, 74152, Note_on_c, 2, 67, 72
4, 74170, Note_on_c, 2, 40, 0
4, 74312, Note_on_c, 2, 59, 0
4, 74316, Note_on_c, 2, 64, 0
4, 74318, Note_on_c, 2, 67, 0
4, 74346, Note_on_c, 2, 59, 72
4, 74374, Note_on_c, 2, 59, 0
4, 74402, Note_on_c, 2, 40, 98
4, 74480, Note_on_c, 2, 59, 72
4, 74484, Note_on_c, 2, 40, 0
4, 74496, Note_on_c, 2, 59, 0
4, 74502, Note_on_c, 2, 40, 96
4, 74624, Note_on_c, 2, 59, 72
4, 74636, Note_on_c, 2, 64, 72
4, 74642, Note_on_c, 2, 67, 72
4, 74844, Note_on_c, 2, 40, 0
4, 74856, Note_on_c, 2, 59, 0
4, 74860, Note_on_c, 2, 64, 0
4, 74876, Note_on_c, 2, 67, 0
4, 74876, Note_on_c, 2, 43, 87
4, 74880, Note_on_c, 2, 50, 84
4, 74882, Note_on_c, 2, 55, 84
4, 75080, Note_on_c, 2, 43, 0
4, 75084, Note_on_c, 2, 50, 0
4, 75086, Note_on_c, 2, 55, 0
4, 75116, Note_on_c, 2, 43, 84
4, 75120, Note_on_c, 2, 50, 84
4, 75122, Note_on_c, 2, 55, 84
4, 75234, Note_on_c, 2, 43, 0
4, 75320, Note_on_c, 2, 50, 0
4, 75352, Note_on_c, 2, 55, 0
4, 75360, Note_on_c, 2, 45, 87
4, 75414, Note_on_c, 2, 52, 84
4, 75420, Note_on_c, 2, 57, 84
4, 75444, Note_on_c, 2, 45, 0
4, 75480, Note_on_c, 2, 45, 87
4, 75510, Note_on_c, 2, 52, 0
4, 75528, Note_on_c, 2, 57, 0
4, 75564, Note_on_c, 2, 45, 0
4, 75590, Note_on_c, 2, 45, 84
4, 75600, Note_on_c, 2, 52, 84
4, 75608, Note_on_c, 2, 57, 84
4, 75838, Note_on_c, 2, 45, 0
4, 75840, Note_on_c, 2, 52, 0
4, 75840, Note_on_c, 2, 57, 0
4, 75840, Note_on_c, 2, 40, 93
4, 76060, Note_on_c, 2, 59, 72
4, 76068, Note_on_c, 2, 64, 72
4, 76072, Note_on_c, 2, 67, 72
4, 76090, Note_on_c, 2, 40, 0
4, 76292, Note_on_c, 2, 59, 0
4, 76300, Note_on_c, 2, 64, 0
4, 76308, Note_on_c, 2, 67, 0
4, 76322, Note_on_c, 2, 40, 98
4, 76386, Note_on_c, 2, 40, 0
4, 76400, Note_on_c, 2, 59, 72
4, 76404, Note_on_c, 2, 64, 72
4, 76412, Note_on_c, 2, 59, 0
4, 76414, Note_on_c, 2, 64, 0
4, 76422, Note_on_c, 2, 40, 96
4, 76544, Note_on_c, 2, 59, 72
4, 76556, Note_on_c, 2, 64, 72
4, 76562, Note_on_c, 2, 67, 72
4, 76750, Note_on_c, 2, 40, 0
4, 76776, Note_on_c, 2, 59, 0
4, 76780, Note_on_c, 2, 64, 0
4, 76796, Note_on_c, 2, 67, 0
4, 76796, Note_on_c, 2, 43, 87
4, 76800, Note_on_c, 2, 50, 84
4, 76802, Note_on_c, 2, 55, 84
4, 77000, Note_on_c, 2, 43, 0
4, 77004, Note_on_c, 2, 50, 0
4, 77006, Note_on_c, 2, 55, 0
4, 77036, Note_on_c, 2, 43, 84
4, 77040, Note_on_c, 2, 50, 84
4, 77042, Note_on_c, 2, 55, 84
4, 77154, Note_on_c, 2, 43, 0
4, 77240, Note_on_c, 2, 50, 0
4, 77272, Note_on_c, 2, 55, 0
4, 77280, Note_on_c, 2, 45, 87
4, 77334, Note_on_c, 2, 52, 84
4, 77340, Note_on_c, 2, 57, 84
4, 77364, Note_on_c, 2, 45, 0
4, 77400, Note_on_c, 2, 45, 87
4, 77430, Note_on_c, 2, 52, 0
4, 77448, Note_on_c, 2, 57, 0
4, 77484, Note_on_c, 2, 45, 0
4, 77510, Note_on_c, 2, 45, 84
4, 77520, Note_on_c, 2, 52, 84
4, 77532, Note_on_c, 2, 57, 84
4, 77760, Note_on_c, 2, 45, 0
4, 77760, Note_on_c, 2, 52, 0
4, 77760, Note_on_c, 2, 57, 0
4, 77760, Note_on_c, 2, 40, 93
4, 77980, Note_on_c, 2, 59, 72
4, 77988, Note_on_c, 2, 64, 72
4, 77992, Note_on_c, 2, 67, 72
4, 78010, Note_on_c, 2, 40, 0
4, 78212, Note_on_c, 2, 59, 0
4, 78220, Note_on_c, 2, 64, 0
4, 78228, Note_on_c, 2, 67, 0
4, 78242, Note_on_c, 2, 40, 98
4, 78306, Note_on_c, 2, 40, 0
4, 78320, Note_on_c, 2, 59, 72
4, 78324, Note_on_c, 2, 64, 72
4, 78332, Note_on_c, 2, 59, 0
4, 78334, Note_on_c, 2, 64, 0
4, 78342, Note_on_c, 2, 40, 96
4, 78464, Note_on_c, 2, 59, 72
4, 78476, Note_on_c, 2, 64, 72
4, 78482, Note_on_c, 2, 67, 72
4, 78670, Note_on_c, 2, 40, 0
4, 78696, Note_on_c, 2, 59, 0
4, 78700, Note_on_c, 2, 64, 0
4, 78716, Note_on_c, 2, 67, 0
4, 78716, Note_on_c, 2, 43, 87
4, 78720, Note_on_c, 2, 50, 84
4, 78722, Note_on_c, 2, 55, 84
4, 78920, Note_on_c, 2, 43, 0
4, 78924, Note_on_c, 2, 50, 0
4, 78926, Note_on_c, 2, 55, 0
4, 78956, Note_on_c, 2, 43, 84
4, 78960, Note_on_c, 2, 50, 84
4, 78962, Note_on_c, 2, 55, 84
4, 79074, Note_on_c, 2, 43, 0
4, 79160, Note_on_c, 2, 50, 0
4, 79192, Note_on_c, 2, 55, 0
4, 79200, Note_on_c, 2, 45, 87
4, 79254, Note_on_c, 2, 52, 84
4, 79260, Note_on_c, 2, 57, 84
4, 79284, Note_on_c, 2, 45, 0
4, 79320, Note_on_c, 2, 45, 87
4, 79350, Note_on_c, 2, 52, 0
4, 79368, Note_on_c, 2, 57, 0
4, 79404, Note_on_c, 2, 45, 0
4, 79430, Note_on_c, 2, 45, 84
4, 79440, Note_on_c, 2, 52, 84
4, 79448, Note_on_c, 2, 57, 84
4, 79678, Note_on_c, 2, 45, 0
4, 79678, Note_on_c, 2, 52, 0
4, 79680, Note_on_c, 2, 57, 0
4, 79680, Note_on_c, 2, 40, 84
4, 79826, Note_on_c, 2, 40, 0
4, 81120, Note_on_c, 2, 54, 127
4, 81230, Note_on_c, 2, 54, 0
4, 81240, Note_on_c, 2, 52, 127
4, 81360, Note_on_c, 2, 50, 127
4, 81364, Note_on_c, 2, 52, 0
4, 81596, Note_on_c, 2, 50, 0
4, 81600, Note_on_c, 2, 57, 127
4, 81628, Pitch_bend_c, 2, 8712
4, 81632, Pitch_bend_c, 2, 9622
4, 81636, Pitch_bend_c, 2, 10402
4, 81640, Pitch_bend_c, 2, 11832
4, 81642, Pitch_bend_c, 2, 12872
4, 81646, Pitch_bend_c, 2, 13782
4, 81650, Pitch_bend_c, 2, 15212
4, 81652, Pitch_bend_c, 2, 15732
4, 81656, Pitch_bend_c, 2, 16252
4, 81660, Pitch_bend_c, 2, 16382
4, 81720, Note_on_c, 2, 60, 127
4, 81726, Note_on_c, 2, 57, 0
4, 81834, Control_c, 2, 1, 8
4, 81840, Control_c, 2, 1, 14
4, 81840, Note_on_c, 2, 65, 127
4, 81846, Control_c, 2, 1, 22
4, 81848, Note_on_c, 2, 60, 0
4, 81850, Control_c, 2, 1, 28
4, 81854, Control_c, 2, 1, 34
4, 81860, Control_c, 2, 1, 40
4, 81864, Control_c, 2, 1, 46
4, 81868, Control_c, 2, 1, 52
4, 81876, Control_c, 2, 1, 58
4, 81884, Control_c, 2, 1, 64
4, 81888, Control_c, 2, 1, 70
4, 81896, Control_c, 2, 1, 76
4, 81904, Control_c, 2, 1, 82
4, 81914, Control_c, 2, 1, 88
4, 81954, Control_c, 2, 1, 92
4, 81990, Control_c, 2, 1, 86
4, 82012, Note_on_c, 2, 65, 0
4, 82030, Control_c, 2, 1, 80
4, 82038, Pitch_bend_c, 2, 15732
4, 82040, Pitch_bend_c, 2, 15342
4, 82044, Pitch_bend_c, 2, 14822
4, 82048, Control_c, 2, 1, 74
4, 82048, Pitch_bend_c, 2, 13782
4, 82050, Pitch_bend_c, 2, 13002
4, 82054, Pitch_bend_c, 2, 11702
4, 82056, Control_c, 2, 1, 68
4, 82058, Pitch_bend_c, 2, 10662
4, 82062, Pitch_bend_c, 2, 9622
4, 82062, Control_c, 2, 1, 60
4, 82064, Pitch_bend_c, 2, 8972
4, 82066, Control_c, 2, 1, 54
4, 82068, Pitch_bend_c, 2, 8582
4, 82070, Control_c, 2, 1, 46
4, 82072, Pitch_bend_c, 2, 8192
4, 82074, Control_c, 2, 1, 38
4, 82076, Control_c, 2, 1, 30
4, 82080, Note_on_c, 2, 57, 127
4, 82080, Control_c, 2, 1, 20
4, 82084, Control_c, 2, 1, 6
4, 82090, Control_c, 2, 1, 0
4, 82096, Pitch_bend_c, 2, 8712
4, 82100, Pitch_bend_c, 2, 9362
4, 82102, Pitch_bend_c, 2, 10272
4, 82106, Pitch_bend_c, 2, 11702
4, 82110, Pitch_bend_c, 2, 13132
4, 82114, Pitch_bend_c, 2, 15342
4, 82116, Pitch_bend_c, 2, 15862
4, 82120, Pitch_bend_c, 2, 16252
4, 82124, Pitch_bend_c, 2, 16382
4, 82200, Note_on_c, 2, 60, 127
4, 82204, Note_on_c, 2, 57, 0
4, 82302, Control_c, 2, 1, 6
4, 82306, Control_c, 2, 1, 12
4, 82314, Control_c, 2, 1, 20
4, 82316, Control_c, 2, 1, 26
4, 82318, Note_on_c, 2, 60, 0
4, 82320, Note_on_c, 2, 65, 125
4, 82322, Control_c, 2, 1, 32
4, 82328, Control_c, 2, 1, 40
4, 82332, Control_c, 2, 1, 46
4, 82336, Control_c, 2, 1, 52
4, 82342, Control_c, 2, 1, 60
4, 82350, Control_c, 2, 1, 66
4, 82354, Control_c, 2, 1, 72
4, 82362, Control_c, 2, 1, 78
4, 82368, Control_c, 2, 1, 84
4, 82390, Control_c, 2, 1, 90
4, 82434, Control_c, 2, 1, 88
4, 82464, Control_c, 2, 1, 90
4, 82502, Control_c, 2, 1, 84
4, 82508, Control_c, 2, 1, 78
4, 82514, Control_c, 2, 1, 70
4, 82518, Control_c, 2, 1, 60
4, 82522, Note_on_c, 2, 65, 0
4, 82522, Control_c, 2, 1, 44
4, 82526, Control_c, 2, 1, 32
4, 82528, Control_c, 2, 1, 18
4, 82532, Control_c, 2, 1, 6
4, 82540, Control_c, 2, 1, 0
4, 82544, Pitch_bend_c, 2, 15732
4, 82548, Pitch_bend_c, 2, 14822
4, 82550, Pitch_bend_c, 2, 13262
4, 82554, Pitch_bend_c, 2, 10272
4, 82556, Pitch_bend_c, 2, 8712
4, 82558, Pitch_bend_c, 2, 8256
4, 82558, End_track
5, 0, Start_track
5, 0, Title_t, "10"
5, 0, Program_c, 9, 118
5, 0, Control_c, 9, 7, 120
5, 1920, Note_on_c, 9, 46, 127
5, 1930, Note_on_c, 9, 38, 127
5, 1930, Note_on_c, 9, 40, 127
5, 1950, Note_on_c, 9, 46, 0
5, 1960, Note_on_c, 9, 40, 0
5, 1960, Note_on_c, 9, 38, 0
5, 2160, Note_on_c, 9, 46, 127
5, 2170, Note_on_c, 9, 38, 127
5, 2170, Note_on_c, 9, 40, 127
5, 2190, Note_on_c, 9, 46, 0
5, 2200, Note_on_c, 9, 40, 0
5, 2200, Note_on_c, 9, 38, 0
5, 2400, Note_on_c, 9, 46, 127
5, 2410, Note_on_c, 9, 38, 127
5, 2410, Note_on_c, 9, 40, 127
5, 2430, Note_on_c, 9, 46, 0
5, 2440, Note_on_c, 9, 40, 0
5, 2440, Note_on_c, 9, 38, 0
5, 2530, Note_on_c, 9, 35, 127
5, 2560, Note_on_c, 9, 35, 0
5, 2640, Note_on_c, 9, 46, 127
5, 2650, Note_on_c, 9, 38, 127
5, 2650, Note_on_c, 9, 40, 127
5, 2670, Note_on_c, 9, 46, 0
5, 2680, Note_on_c, 9, 40, 0
5, 2680, Note_on_c, 9, 38, 0
5, 2770, Note_on_c, 9, 35, 127
5, 2800, Note_on_c, 9, 35, 0
5, 2880, Note_on_c, 9, 46, 127
5, 2880, Note_on_c, 9, 35, 127
5, 2890, Note_on_c, 9, 38, 127
5, 2890, Note_on_c, 9, 40, 127
5, 2910, Note_on_c, 9, 35, 0
5, 2910, Note_on_c, 9, 46, 0
5, 2920, Note_on_c, 9, 38, 0
5, 2920, Note_on_c, 9, 40, 0
5, 3120, Note_on_c, 9, 46, 127
5, 3130, Note_on_c, 9, 38, 127
5, 3130, Note_on_c, 9, 40, 127
5, 3150, Note_on_c, 9, 46, 0
5, 3160, Note_on_c, 9, 40, 0
5, 3160, Note_on_c, 9, 38, 0
5, 3360, Note_on_c, 9, 46, 127
5, 3370, Note_on_c, 9, 38, 127
5, 3370, Note_on_c, 9, 40, 127
5, 3390, Note_on_c, 9, 46, 0
5, 3400, Note_on_c, 9, 40, 0
5, 3400, Note_on_c, 9, 38, 0
5, 3490, Note_on_c, 9, 35, 127
5, 3520, Note_on_c, 9, 35, 0
5, 3600, Note_on_c, 9, 46, 127
5, 3610, Note_on_c, 9, 38, 127
5, 3610, Note_on_c, 9, 40, 127
5, 3630, Note_on_c, 9, 46, 0
5, 3640, Note_on_c, 9, 40, 0
5, 3640, Note_on_c, 9, 38, 0
5, 3730, Note_on_c, 9, 35, 127
5, 3760, Note_on_c, 9, 35, 0
5, 3840, Note_on_c, 9, 46, 127
5, 3840, Note_on_c, 9, 35, 127
5, 3850, Note_on_c, 9, 38, 127
5, 3850, Note_on_c, 9, 40, 127
5, 3870, Note_on_c, 9, 35, 0
5, 3870, Note_on_c, 9, 46, 0
5, 3880, Note_on_c, 9, 38, 0
5, 3880, Note_on_c, 9, 40, 0
5, 4080, Note_on_c, 9, 46, 127
5, 4090, Note_on_c, 9, 38, 127
5, 4090, Note_on_c, 9, 40, 127
5, 4110, Note_on_c, 9, 46, 0
5, 4120, Note_on_c, 9, 40, 0
5, 4120, Note_on_c, 9, 38, 0
5, 4320, Note_on_c, 9, 46, 127
5, 4330, Note_on_c, 9, 38, 127
5, 4330, Note_on_c, 9, 40, 127
5, 4350, Note_on_c, 9, 46, 0
5, 4360, Note_on_c, 9, 40, 0
5, 4360, Note_on_c, 9, 38, 0
5, 4450, Note_on_c, 9, 35, 127
5, 4480, Note_on_c, 9, 35, 0
5, 4560, Note_on_c, 9, 46, 127
5, 4570, Note_on_c, 9, 38, 127
5, 4570, Note_on_c, 9, 40, 127
5, 4590, Note_on_c, 9, 46, 0
5, 4600, Note_on_c, 9, 40, 0
5, 4600, Note_on_c, 9, 38, 0
5, 4690, Note_on_c, 9, 35, 127
5, 4720, Note_on_c, 9, 35, 0
5, 4800, Note_on_c, 9, 46, 127
5, 4800, Note_on_c, 9, 35, 127
5, 4810, Note_on_c, 9, 38, 127
5, 4810, Note_on_c, 9, 40, 127
5, 4830, Note_on_c, 9, 35, 0
5, 4830, Note_on_c, 9, 46, 0
5, 4840, Note_on_c, 9, 38, 0
5, 4840, Note_on_c, 9, 40, 0
5, 5040, Note_on_c, 9, 46, 127
5, 5050, Note_on_c, 9, 38, 127
5, 5050, Note_on_c, 9, 40, 127
5, 5070, Note_on_c, 9, 46, 0
5, 5080, Note_on_c, 9, 40, 0
5, 5080, Note_on_c, 9, 38, 0
5, 5280, Note_on_c, 9, 46, 127
5, 5290, Note_on_c, 9, 38, 127
5, 5290, Note_on_c, 9, 40, 127
5, 5310, Note_on_c, 9, 46, 0
5, 5320, Note_on_c, 9, 40, 0
5, 5320, Note_on_c, 9, 38, 0
5, 5410, Note_on_c, 9, 35, 127
5, 5440, Note_on_c, 9, 35, 0
5, 5520, Note_on_c, 9, 46, 127
5, 5530, Note_on_c, 9, 38, 127
5, 5530, Note_on_c, 9, 40, 127
5, 5550, Note_on_c, 9, 46, 0
5, 5560, Note_on_c, 9, 40, 0
5, 5560, Note_on_c, 9, 38, 0
5, 5650, Note_on_c, 9, 35, 127
5, 5680, Note_on_c, 9, 35, 0
5, 5760, Note_on_c, 9, 46, 127
5, 5760, Note_on_c, 9, 35, 127
5, 5770, Note_on_c, 9, 38, 127
5, 5770, Note_on_c, 9, 40, 127
5, 5790, Note_on_c, 9, 35, 0
5, 5790, Note_on_c, 9, 46, 0
5, 5800, Note_on_c, 9, 38, 0
5, 5800, Note_on_c, 9, 40, 0
5, 6000, Note_on_c, 9, 46, 127
5, 6010, Note_on_c, 9, 38, 127
5, 6010, Note_on_c, 9, 40, 127
5, 6030, Note_on_c, 9, 46, 0
5, 6040, Note_on_c, 9, 40, 0
5, 6040, Note_on_c, 9, 38, 0
5, 6240, Note_on_c, 9, 46, 127
5, 6250, Note_on_c, 9, 38, 127
5, 6250, Note_on_c, 9, 40, 127
5, 6270, Note_on_c, 9, 46, 0
5, 6280, Note_on_c, 9, 40, 0
5, 6280, Note_on_c, 9, 38, 0
5, 6370, Note_on_c, 9, 35, 127
5, 6400, Note_on_c, 9, 35, 0
5, 6480, Note_on_c, 9, 46, 127
5, 6490, Note_on_c, 9, 38, 127
5, 6490, Note_on_c, 9, 40, 127
5, 6510, Note_on_c, 9, 46, 0
5, 6520, Note_on_c, 9, 40, 0
5, 6520, Note_on_c, 9, 38, 0
5, 6610, Note_on_c, 9, 35, 127
5, 6640, Note_on_c, 9, 35, 0
5, 6720, Note_on_c, 9, 46, 127
5, 6720, Note_on_c, 9, 35, 127
5, 6730, Note_on_c, 9, 38, 127
5, 6730, Note_on_c, 9, 40, 127
5, 6750, Note_on_c, 9, 35, 0
5, 6750, Note_on_c, 9, 46, 0
5, 6760, Note_on_c, 9, 38, 0
5, 6760, Note_on_c, 9, 40, 0
5, 6960, Note_on_c, 9, 46, 127
5, 6970, Note_on_c, 9, 38, 127
5, 6970, Note_on_c, 9, 40, 127
5, 6990, Note_on_c, 9, 46, 0
5, 7000, Note_on_c, 9, 40, 0
5, 7000, Note_on_c, 9, 38, 0
5, 7200, Note_on_c, 9, 46, 127
5, 7210, Note_on_c, 9, 38, 127
5, 7210, Note_on_c, 9, 40, 127
5, 7230, Note_on_c, 9, 46, 0
5, 7240, Note_on_c, 9, 40, 0
5, 7240, Note_on_c, 9, 38, 0
5, 7330, Note_on_c, 9, 35, 127
5, 7360, Note_on_c, 9, 35, 0
5, 7440, Note_on_c, 9, 46, 127
5, 7450, Note_on_c, 9, 38, 127
5, 7450, Note_on_c, 9, 40, 127
5, 7470, Note_on_c, 9, 46, 0
5, 7480, Note_on_c, 9, 40, 0
5, 7480, Note_on_c, 9, 38, 0
5, 7570, Note_on_c, 9, 35, 127
5, 7600, Note_on_c, 9, 35, 0
5, 7680, Note_on_c, 9, 46, 127
5, 7690, Note_on_c, 9, 38, 127
5, 7690, Note_on_c, 9, 40, 127
5, 7710, Note_on_c, 9, 46, 0
5, 7720, Note_on_c, 9, 40, 0
5, 7720, Note_on_c, 9, 38, 0
5, 7920, Note_on_c, 9, 46, 127
5, 7930, Note_on_c, 9, 38, 127
5, 7930, Note_on_c, 9, 40, 127
5, 7950, Note_on_c, 9, 46, 0
5, 7960, Note_on_c, 9, 40, 0
5, 7960, Note_on_c, 9, 38, 0
5, 8160, Note_on_c, 9, 46, 127
5, 8170, Note_on_c, 9, 38, 127
5, 8170, Note_on_c, 9, 40, 127
5, 8190, Note_on_c, 9, 46, 0
5, 8200, Note_on_c, 9, 40, 0
5, 8200, Note_on_c, 9, 38, 0
5, 8290, Note_on_c, 9, 35, 127
5, 8320, Note_on_c, 9, 35, 0
5, 8400, Note_on_c, 9, 46, 127
5, 8410, Note_on_c, 9, 38, 127
5, 8410, Note_on_c, 9, 40, 127
5, 8430, Note_on_c, 9, 46, 0
5, 8440, Note_on_c, 9, 40, 0
5, 8440, Note_on_c, 9, 38, 0
5, 8530, Note_on_c, 9, 35, 127
5, 8560, Note_on_c, 9, 35, 0
5, 8640, Note_on_c, 9, 46, 127
5, 8640, Note_on_c, 9, 35, 127
5, 8650, Note_on_c, 9, 38, 127
5, 8650, Note_on_c, 9, 40, 127
5, 8670, Note_on_c, 9, 35, 0
5, 8670, Note_on_c, 9, 46, 0
5, 8680, Note_on_c, 9, 38, 0
5, 8680, Note_on_c, 9, 40, 0
5, 8880, Note_on_c, 9, 46, 127
5, 8890, Note_on_c, 9, 38, 127
5, 8890, Note_on_c, 9, 40, 127
5, 8910, Note_on_c, 9, 46, 0
5, 8920, Note_on_c, 9, 40, 0
5, 8920, Note_on_c, 9, 38, 0
5, 9120, Note_on_c, 9, 46, 127
5, 9130, Note_on_c, 9, 38, 127
5, 9130, Note_on_c, 9, 40, 127
5, 9150, Note_on_c, 9, 46, 0
5, 9160, Note_on_c, 9, 40, 0
5, 9160, Note_on_c, 9, 38, 0
5, 9250, Note_on_c, 9, 35, 127
5, 9280, Note_on_c, 9, 35, 0
5, 9360, Note_on_c, 9, 46, 127
5, 9370, Note_on_c, 9, 38, 127
5, 9370, Note_on_c, 9, 40, 127
5, 9390, Note_on_c, 9, 46, 0
5, 9400, Note_on_c, 9, 40, 0
5, 9400, Note_on_c, 9, 38, 0
5, 9490, Note_on_c, 9, 35, 127
5, 9520, Note_on_c, 9, 35, 0
5, 9546, Note_on_c, 9, 40, 127
5, 9546, Note_on_c, 9, 38, 127
5, 9576, Note_on_c, 9, 38, 0
5, 9576, Note_on_c, 9, 40, 0
5, 9600, Note_on_c, 9, 49, 127
5, 9600, Note_on_c, 9, 35, 127
5, 9630, Note_on_c, 9, 35, 0
5, 9630, Note_on_c, 9, 49, 0
5, 9840, Note_on_c, 9, 44, 127
5, 9840, Note_on_c, 9, 40, 127
5, 9840, Note_on_c, 9, 38, 127
5, 9870, Note_on_c, 9, 38, 0
5, 9870, Note_on_c, 9, 40, 0
5, 9870, Note_on_c, 9, 44, 0
5, 10020, Note_on_c, 9, 35, 127
5, 10026, Note_on_c, 9, 38, 127
5, 10050, Note_on_c, 9, 35, 0
5, 10056, Note_on_c, 9, 38, 0
5, 10080, Note_on_c, 9, 44, 127
5, 10080, Note_on_c, 9, 38, 127
5, 10080, Note_on_c, 9, 35, 127
5, 10110, Note_on_c, 9, 35, 0
5, 10110, Note_on_c, 9, 38, 0
5, 10110, Note_on_c, 9, 44, 0
5, 10146, Note_on_c, 9, 38, 127
5, 10176, Note_on_c, 9, 38, 0
5, 10200, Note_on_c, 9, 38, 127
5, 10200, Note_on_c, 9, 35, 127
5, 10230, Note_on_c, 9, 35, 0
5, 10230, Note_on_c, 9, 38, 0
5, 10320, Note_on_c, 9, 44, 127
5, 10320, Note_on_c, 9, 38, 127
5, 10320, Note_on_c, 9, 40, 127
5, 10350, Note_on_c, 9, 40, 0
5, 10350, Note_on_c, 9, 38, 0
5, 10350, Note_on_c, 9, 44, 0
5, 10440, Note_on_c, 9, 38, 127
5, 10440, Note_on_c, 9, 35, 127
5, 10470, Note_on_c, 9, 35, 0
5, 10470, Note_on_c, 9, 38, 0
5, 10560, Note_on_c, 9, 44, 127
5, 10560, Note_on_c, 9, 35, 127
5, 10590, Note_on_c, 9, 35, 0
5, 10590, Note_on_c, 9, 44, 0
5, 10800, Note_on_c, 9, 44, 127
5, 10800, Note_on_c, 9, 40, 127
5, 10800, Note_on_c, 9, 38, 127
5, 10830, Note_on_c, 9, 38, 0
5, 10830, Note_on_c, 9, 40, 0
5, 10830, Note_on_c, 9, 44, 0
5, 10986, Note_on_c, 9, 38, 127
5, 11016, Note_on_c, 9, 38, 0
5, 11040, Note_on_c, 9, 44, 127
5, 11040, Note_on_c, 9, 40, 127
5, 11040, Note_on_c, 9, 38, 127
5, 11040, Note_on_c, 9, 35, 127
5, 11070, Note_on_c, 9, 35, 0
5, 11070, Note_on_c, 9, 44, 0
5, 11070, Note_on_c, 9, 40, 0
5, 11070, Note_on_c, 9, 38, 0
5, 11106, Note_on_c, 9, 38, 127
5, 11106, Note_on_c, 9, 40, 127
5, 11136, Note_on_c, 9, 40, 0
5, 11136, Note_on_c, 9, 38, 0
5, 11226, Note_on_c, 9, 38, 127
5, 11256, Note_on_c, 9, 38, 0
5, 11280, Note_on_c, 9, 44, 127
5, 11280, Note_on_c, 9, 38, 127
5, 11280, Note_on_c, 9, 40, 127
5, 11310, Note_on_c, 9, 40, 0
5, 11310, Note_on_c, 9, 38, 0
5, 11310, Note_on_c, 9, 44, 0
5, 11346, Note_on_c, 9, 38, 127
5, 11376, Note_on_c, 9, 38, 0
5, 11400, Note_on_c, 9, 38, 127
5, 11400, Note_on_c, 9, 40, 127
5, 11400, Note_on_c, 9, 35, 127
5, 11430, Note_on_c, 9, 35, 0
5, 11430, Note_on_c, 9, 40, 0
5, 11430, Note_on_c, 9, 38, 0
5, 11466, Note_on_c, 9, 40, 127
5, 11466, Note_on_c, 9, 38, 127
5, 11496, Note_on_c, 9, 38, 0
5, 11496, Note_on_c, 9, 40, 0
5, 11520, Note_on_c, 9, 57, 127
5, 11520, Note_on_c, 9, 44, 127
5, 11520, Note_on_c, 9, 35, 127
5, 11550, Note_on_c, 9, 35, 0
5, 11550, Note_on_c, 9, 44, 0
5, 11550, Note_on_c, 9, 57, 0
5, 11760, Note_on_c, 9, 44, 127
5, 11760, Note_on_c, 9, 40, 127
5, 11760, Note_on_c, 9, 38, 127
5, 11790, Note_on_c, 9, 38, 0
5, 11790, Note_on_c, 9, 40, 0
5, 11790, Note_on_c, 9, 44, 0
5, 11940, Note_on_c, 9, 35, 127
5, 11946, Note_on_c, 9, 38, 127
5, 11970, Note_on_c, 9, 35, 0
5, 11976, Note_on_c, 9, 38, 0
5, 12000, Note_on_c, 9, 44, 127
5, 12000, Note_on_c, 9, 38, 127
5, 12000, Note_on_c, 9, 35, 127
5, 12030, Note_on_c, 9, 35, 0
5, 12030, Note_on_c, 9, 38, 0
5, 12030, Note_on_c, 9, 44, 0
5, 12066, Note_on_c, 9, 38, 127
5, 12096, Note_on_c, 9, 38, 0
5, 12120, Note_on_c, 9, 38, 127
5, 12120, Note_on_c, 9, 35, 127
5, 12150, Note_on_c, 9, 35, 0
5, 12150, Note_on_c, 9, 38, 0
5, 12240, Note_on_c, 9, 44, 127
5, 12240, Note_on_c, 9, 38, 127
5, 12240, Note_on_c, 9, 40, 127
5, 12270, Note_on_c, 9, 40, 0
5, 12270, Note_on_c, 9, 38, 0
5, 12270, Note_on_c, 9, 44, 0
5, 12300, Note_on_c, 9, 35, 127
5, 12330, Note_on_c, 9, 35, 0
5, 12360, Note_on_c, 9, 38, 127
5, 12360, Note_on_c, 9, 35, 127
5, 12390, Note_on_c, 9, 35, 0
5, 12390, Note_on_c, 9, 38, 0
5, 12480, Note_on_c, 9, 44, 127
5, 12480, Note_on_c, 9, 35, 127
5, 12510, Note_on_c, 9, 35, 0
5, 12510, Note_on_c, 9, 44, 0
5, 12720, Note_on_c, 9, 44, 127
5, 12720, Note_on_c, 9, 40, 127
5, 12720, Note_on_c, 9, 38, 127
5, 12750, Note_on_c, 9, 38, 0
5, 12750, Note_on_c, 9, 40, 0
5, 12750, Note_on_c, 9, 44, 0
5, 12906, Note_on_c, 9, 38, 127
5, 12936, Note_on_c, 9, 38, 0
5, 12960, Note_on_c, 9, 44, 127
5, 12960, Note_on_c, 9, 40, 127
5, 12960, Note_on_c, 9, 38, 127
5, 12960, Note_on_c, 9, 35, 127
5, 12990, Note_on_c, 9, 35, 0
5, 12990, Note_on_c, 9, 44, 0
5, 12990, Note_on_c, 9, 40, 0
5, 12990, Note_on_c, 9, 38, 0
5, 13026, Note_on_c, 9, 38, 127
5, 13026, Note_on_c, 9, 40, 127
5, 13056, Note_on_c, 9, 40, 0
5, 13056, Note_on_c, 9, 38, 0
5, 13080, Note_on_c, 9, 47, 127
5, 13110, Note_on_c, 9, 47, 0
5, 13140, Note_on_c, 9, 47, 127
5, 13170, Note_on_c, 9, 47, 0
5, 13200, Note_on_c, 9, 45, 127
5, 13200, Note_on_c, 9, 44, 127
5, 13230, Note_on_c, 9, 44, 0
5, 13230, Note_on_c, 9, 45, 0
5, 13260, Note_on_c, 9, 45, 127
5, 13290, Note_on_c, 9, 45, 0
5, 13320, Note_on_c, 9, 43, 127
5, 13320, Note_on_c, 9, 35, 127
5, 13350, Note_on_c, 9, 35, 0
5, 13350, Note_on_c, 9, 43, 0
5, 13380, Note_on_c, 9, 43, 127
5, 13410, Note_on_c, 9, 43, 0
5, 13440, Note_on_c, 9, 49, 127
5, 13440, Note_on_c, 9, 44, 127
5, 13440, Note_on_c, 9, 49, 127
5, 13440, Note_on_c, 9, 35, 127
5, 13470, Note_on_c, 9, 35, 0
5, 13470, Note_on_c, 9, 49, 0
5, 13470, Note_on_c, 9, 44, 0
5, 13470, Note_on_c, 9, 49, 0
5, 13680, Note_on_c, 9, 44, 127
5, 13680, Note_on_c, 9, 40, 127
5, 13680, Note_on_c, 9, 38, 127
5, 13710, Note_on_c, 9, 38, 0
5, 13710, Note_on_c, 9, 40, 0
5, 13710, Note_on_c, 9, 44, 0
5, 13860, Note_on_c, 9, 35, 127
5, 13866, Note_on_c, 9, 38, 127
5, 13890, Note_on_c, 9, 35, 0
5, 13896, Note_on_c, 9, 38, 0
5, 13920, Note_on_c, 9, 44, 127
5, 13920, Note_on_c, 9, 38, 127
5, 13950, Note_on_c, 9, 38, 0
5, 13950, Note_on_c, 9, 44, 0
5, 13980, Note_on_c, 9, 35, 127
5, 13986, Note_on_c, 9, 38, 127
5, 14010, Note_on_c, 9, 35, 0
5, 14016, Note_on_c, 9, 38, 0
5, 14040, Note_on_c, 9, 38, 127
5, 14040, Note_on_c, 9, 35, 127
5, 14070, Note_on_c, 9, 35, 0
5, 14070, Note_on_c, 9, 38, 0
5, 14160, Note_on_c, 9, 44, 127
5, 14160, Note_on_c, 9, 38, 127
5, 14160, Note_on_c, 9, 40, 127
5, 14190, Note_on_c, 9, 40, 0
5, 14190, Note_on_c, 9, 38, 0
5, 14190, Note_on_c, 9, 44, 0
5, 14280, Note_on_c, 9, 38, 127
5, 14280, Note_on_c, 9, 35, 127
5, 14310, Note_on_c, 9, 35, 0
5, 14310, Note_on_c, 9, 38, 0
5, 14400, Note_on_c, 9, 44, 127
5, 14400, Note_on_c, 9, 35, 127
5, 14430, Note_on_c, 9, 35, 0
5, 14430, Note_on_c, 9, 44, 0
5, 14640, Note_on_c, 9, 44, 127
5, 14640, Note_on_c, 9, 40, 127
5, 14640, Note_on_c, 9, 38, 127
5, 14670, Note_on_c, 9, 38, 0
5, 14670, Note_on_c, 9, 40, 0
5, 14670, Note_on_c, 9, 44, 0
5, 14760, Note_on_c, 9, 35, 127
5, 14790, Note_on_c, 9, 35, 0
5, 14826, Note_on_c, 9, 38, 127
5, 14856, Note_on_c, 9, 38, 0
5, 14880, Note_on_c, 9, 44, 127
5, 14880, Note_on_c, 9, 40, 127
5, 14880, Note_on_c, 9, 38, 127
5, 14880, Note_on_c, 9, 35, 127
5, 14910, Note_on_c, 9, 35, 0
5, 14910, Note_on_c, 9, 44, 0
5, 14910, Note_on_c, 9, 40, 0
5, 14910, Note_on_c, 9, 38, 0
5, 14946, Note_on_c, 9, 38, 127
5, 14946, Note_on_c, 9, 40, 127
5, 14976, Note_on_c, 9, 40, 0
5, 14976, Note_on_c, 9, 38, 0
5, 15066, Note_on_c, 9, 38, 127
5, 15096, Note_on_c, 9, 38, 0
5, 15120, Note_on_c, 9, 44, 127
5, 15120, Note_on_c, 9, 38, 127
5, 15120, Note_on_c, 9, 40, 127
5, 15150, Note_on_c, 9, 40, 0
5, 15150, Note_on_c, 9, 38, 0
5, 15150, Note_on_c, 9, 44, 0
5, 15186, Note_on_c, 9, 38, 127
5, 15216, Note_on_c, 9, 38, 0
5, 15240, Note_on_c, 9, 38, 127
5, 15240, Note_on_c, 9, 40, 127
5, 15240, Note_on_c, 9, 35, 127
5, 15270, Note_on_c, 9, 35, 0
5, 15270, Note_on_c, 9, 40, 0
5, 15270, Note_on_c, 9, 38, 0
5, 15306, Note_on_c, 9, 40, 127
5, 15306, Note_on_c, 9, 38, 127
5, 15336, Note_on_c, 9, 38, 0
5, 15336, Note_on_c, 9, 40, 0
5, 15360, Note_on_c, 9, 57, 127
5, 15360, Note_on_c, 9, 44, 127
5, 15360, Note_on_c, 9, 35, 127
5, 15390, Note_on_c, 9, 35, 0
5, 15390, Note_on_c, 9, 44, 0
5, 15390, Note_on_c, 9, 57, 0
5, 15600, Note_on_c, 9, 44, 127
5, 15600, Note_on_c, 9, 40, 127
5, 15600, Note_on_c, 9, 38, 127
5, 15630, Note_on_c, 9, 38, 0
5, 15630, Note_on_c, 9, 40, 0
5, 15630, Note_on_c, 9, 44, 0
5, 15720, Note_on_c, 9, 35, 127
5, 15750, Note_on_c, 9, 35, 0
5, 15780, Note_on_c, 9, 35, 127
5, 15786, Note_on_c, 9, 38, 127
5, 15810, Note_on_c, 9, 35, 0
5, 15816, Note_on_c, 9, 38, 0
5, 15840, Note_on_c, 9, 44, 127
5, 15840, Note_on_c, 9, 38, 127
5, 15870, Note_on_c, 9, 38, 0
5, 15870, Note_on_c, 9, 44, 0
5, 15900, Note_on_c, 9, 35, 127
5, 15906, Note_on_c, 9, 38, 127
5, 15930, Note_on_c, 9, 35, 0
5, 15936, Note_on_c, 9, 38, 0
5, 15960, Note_on_c, 9, 38, 127
5, 15960, Note_on_c, 9, 35, 127
5, 15990, Note_on_c, 9, 35, 0
5, 15990, Note_on_c, 9, 38, 0
5, 16080, Note_on_c, 9, 44, 127
5, 16080, Note_on_c, 9, 38, 127
5, 16080, Note_on_c, 9, 40, 127
5, 16110, Note_on_c, 9, 40, 0
5, 16110, Note_on_c, 9, 38, 0
5, 16110, Note_on_c, 9, 44, 0
5, 16200, Note_on_c, 9, 38, 127
5, 16200, Note_on_c, 9, 35, 127
5, 16230, Note_on_c, 9, 35, 0
5, 16230, Note_on_c, 9, 38, 0
5, 16320, Note_on_c, 9, 44, 127
5, 16320, Note_on_c, 9, 35, 127
5, 16350, Note_on_c, 9, 35, 0
5, 16350, Note_on_c, 9, 44, 0
5, 16560, Note_on_c, 9, 44, 127
5, 16560, Note_on_c, 9, 40, 127
5, 16560, Note_on_c, 9, 38, 127
5, 16590, Note_on_c, 9, 38, 0
5, 16590, Note_on_c, 9, 40, 0
5, 16590, Note_on_c, 9, 44, 0
5, 16680, Note_on_c, 9, 35, 127
5, 16710, Note_on_c, 9, 35, 0
5, 16746, Note_on_c, 9, 38, 127
5, 16776, Note_on_c, 9, 38, 0
5, 16800, Note_on_c, 9, 44, 127
5, 16800, Note_on_c, 9, 40, 127
5, 16800, Note_on_c, 9, 38, 127
5, 16830, Note_on_c, 9, 38, 0
5, 16830, Note_on_c, 9, 40, 0
5, 16830, Note_on_c, 9, 44, 0
5, 16866, Note_on_c, 9, 38, 127
5, 16866, Note_on_c, 9, 40, 127
5, 16896, Note_on_c, 9, 40, 0
5, 16896, Note_on_c, 9, 38, 0
5, 16920, Note_on_c, 9, 47, 127
5, 16920, Note_on_c, 9, 35, 127
5, 16950, Note_on_c, 9, 35, 0
5, 16950, Note_on_c, 9, 47, 0
5, 16980, Note_on_c, 9, 47, 127
5, 17010, Note_on_c, 9, 47, 0
5, 17040, Note_on_c, 9, 45, 127
5, 17040, Note_on_c, 9, 44, 127
5, 17070, Note_on_c, 9, 44, 0
5, 17070, Note_on_c, 9, 45, 0
5, 17100, Note_on_c, 9, 45, 127
5, 17130, Note_on_c, 9, 45, 0
5, 17160, Note_on_c, 9, 43, 127
5, 17190, Note_on_c, 9, 43, 0
5, 17220, Note_on_c, 9, 43, 127
5, 17250, Note_on_c, 9, 43, 0
5, 17280, Note_on_c, 9, 44, 127
5, 17280, Note_on_c, 9, 57, 127
5, 17280, Note_on_c, 9, 44, 127
5, 17280, Note_on_c, 9, 49, 127
5, 17280, Note_on_c, 9, 35, 127
5, 17310, Note_on_c, 9, 35, 0
5, 17310, Note_on_c, 9, 44, 0
5, 17310, Note_on_c, 9, 44, 0
5, 17310, Note_on_c, 9, 57, 0
5, 17310, Note_on_c, 9, 49, 0
5, 17520, Note_on_c, 9, 44, 127
5, 17520, Note_on_c, 9, 40, 127
5, 17520, Note_on_c, 9, 38, 127
5, 17550, Note_on_c, 9, 38, 0
5, 17550, Note_on_c, 9, 40, 0
5, 17550, Note_on_c, 9, 44, 0
5, 17700, Note_on_c, 9, 35, 127
5, 17706, Note_on_c, 9, 38, 127
5, 17730, Note_on_c, 9, 35, 0
5, 17736, Note_on_c, 9, 38, 0
5, 17760, Note_on_c, 9, 44, 127
5, 17760, Note_on_c, 9, 38, 127
5, 17790, Note_on_c, 9, 38, 0
5, 17790, Note_on_c, 9, 44, 0
5, 17820, Note_on_c, 9, 35, 127
5, 17826, Note_on_c, 9, 38, 127
5, 17850, Note_on_c, 9, 35, 0
5, 17856, Note_on_c, 9, 38, 0
5, 17880, Note_on_c, 9, 38, 127
5, 17880, Note_on_c, 9, 35, 127
5, 17910, Note_on_c, 9, 35, 0
5, 17910, Note_on_c, 9, 38, 0
5, 18000, Note_on_c, 9, 44, 127
5, 18000, Note_on_c, 9, 38, 127
5, 18000, Note_on_c, 9, 40, 127
5, 18030, Note_on_c, 9, 40, 0
5, 18030, Note_on_c, 9, 38, 0
5, 18030, Note_on_c, 9, 44, 0
5, 18120, Note_on_c, 9, 38, 127
5, 18120, Note_on_c, 9, 35, 127
5, 18150, Note_on_c, 9, 35, 0
5, 18150, Note_on_c, 9, 38, 0
5, 18240, Note_on_c, 9, 44, 127
5, 18240, Note_on_c, 9, 35, 127
5, 18270, Note_on_c, 9, 35, 0
5, 18270, Note_on_c, 9, 44, 0
5, 18480, Note_on_c, 9, 44, 127
5, 18480, Note_on_c, 9, 40, 127
5, 18480, Note_on_c, 9, 38, 127
5, 18510, Note_on_c, 9, 38, 0
5, 18510, Note_on_c, 9, 40, 0
5, 18510, Note_on_c, 9, 44, 0
5, 18600, Note_on_c, 9, 35, 127
5, 18630, Note_on_c, 9, 35, 0
5, 18666, Note_on_c, 9, 38, 127
5, 18696, Note_on_c, 9, 38, 0
5, 18720, Note_on_c, 9, 44, 127
5, 18720, Note_on_c, 9, 40, 127
5, 18720, Note_on_c, 9, 38, 127
5, 18720, Note_on_c, 9, 35, 127
5, 18750, Note_on_c, 9, 35, 0
5, 18750, Note_on_c, 9, 44, 0
5, 18750, Note_on_c, 9, 40, 0
5, 18750, Note_on_c, 9, 38, 0
5, 18786, Note_on_c, 9, 38, 127
5, 18786, Note_on_c, 9, 40, 127
5, 18816, Note_on_c, 9, 40, 0
5, 18816, Note_on_c, 9, 38, 0
5, 18906, Note_on_c, 9, 38, 127
5, 18936, Note_on_c, 9, 38, 0
5, 18960, Note_on_c, 9, 44, 127
5, 18960, Note_on_c, 9, 38, 127
5, 18960, Note_on_c, 9, 40, 127
5, 18990, Note_on_c, 9, 40, 0
5, 18990, Note_on_c, 9, 38, 0
5, 18990, Note_on_c, 9, 44, 0
5, 19026, Note_on_c, 9, 38, 127
5, 19056, Note_on_c, 9, 38, 0
5, 19080, Note_on_c, 9, 38, 127
5, 19080, Note_on_c, 9, 40, 127
5, 19080, Note_on_c, 9, 35, 127
5, 19110, Note_on_c, 9, 35, 0
5, 19110, Note_on_c, 9, 40, 0
5, 19110, Note_on_c, 9, 38, 0
5, 19146, Note_on_c, 9, 40, 127
5, 19146, Note_on_c, 9, 38, 127
5, 19176, Note_on_c, 9, 38, 0
5, 19176, Note_on_c, 9, 40, 0
5, 19200, Note_on_c, 9, 49, 127
5, 19200, Note_on_c, 9, 35, 127
5, 19230, Note_on_c, 9, 35, 0
5, 19230, Note_on_c, 9, 49, 0
5, 19440, Note_on_c, 9, 44, 127
5, 19470, Note_on_c, 9, 44, 0
5, 19680, Note_on_c, 9, 44, 127
5, 19710, Note_on_c, 9, 44, 0
5, 19920, Note_on_c, 9, 44, 127
5, 19950, Note_on_c, 9, 44, 0
5, 20160, Note_on_c, 9, 44, 127
5, 20190, Note_on_c, 9, 44, 0
5, 20400, Note_on_c, 9, 44, 127
5, 20400, Note_on_c, 9, 40, 127
5, 20400, Note_on_c, 9, 38, 127
5, 20430, Note_on_c, 9, 38, 0
5, 20430, Note_on_c, 9, 40, 0
5, 20430, Note_on_c, 9, 44, 0
5, 20460, Note_on_c, 9, 38, 127
5, 20460, Note_on_c, 9, 40, 127
5, 20490, Note_on_c, 9, 40, 0
5, 20490, Note_on_c, 9, 38, 0
5, 20520, Note_on_c, 9, 38, 127
5, 20520, Note_on_c, 9, 40, 127
5, 20550, Note_on_c, 9, 40, 0
5, 20550, Note_on_c, 9, 38, 0
5, 20580, Note_on_c, 9, 38, 127
5, 20580, Note_on_c, 9, 40, 127
5, 20610, Note_on_c, 9, 40, 0
5, 20610, Note_on_c, 9, 38, 0
5, 20640, Note_on_c, 9, 49, 127
5, 20640, Note_on_c, 9, 35, 127
5, 20670, Note_on_c, 9, 35, 0
5, 20670, Note_on_c, 9, 49, 0
5, 20760, Note_on_c, 9, 57, 127
5, 20760, Note_on_c, 9, 35, 127
5, 20790, Note_on_c, 9, 35, 0
5, 20790, Note_on_c, 9, 57, 0
5, 20880, Note_on_c, 9, 49, 127
5, 20880, Note_on_c, 9, 35, 127
5, 20910, Note_on_c, 9, 35, 0
5, 20910, Note_on_c, 9, 49, 0
5, 21120, Note_on_c, 9, 49, 127
5, 21120, Note_on_c, 9, 35, 127
5, 21150, Note_on_c, 9, 35, 0
5, 21150, Note_on_c, 9, 49, 0
5, 21240, Note_on_c, 9, 57, 127
5, 21240, Note_on_c, 9, 35, 127
5, 21270, Note_on_c, 9, 35, 0
5, 21270, Note_on_c, 9, 57, 0
5, 21360, Note_on_c, 9, 49, 127
5, 21360, Note_on_c, 9, 35, 127
5, 21390, Note_on_c, 9, 35, 0
5, 21390, Note_on_c, 9, 49, 0
5, 21546, Note_on_c, 9, 40, 127
5, 21546, Note_on_c, 9, 38, 127
5, 21576, Note_on_c, 9, 38, 0
5, 21576, Note_on_c, 9, 40, 0
5, 21600, Note_on_c, 9, 38, 127
5, 21600, Note_on_c, 9, 40, 127
5, 21600, Note_on_c, 9, 35, 127
5, 21630, Note_on_c, 9, 35, 0
5, 21630, Note_on_c, 9, 40, 0
5, 21630, Note_on_c, 9, 38, 0
5, 21666, Note_on_c, 9, 48, 127
5, 21696, Note_on_c, 9, 48, 0
5, 21720, Note_on_c, 9, 48, 127
5, 21750, Note_on_c, 9, 48, 0
5, 21780, Note_on_c, 9, 47, 127
5, 21810, Note_on_c, 9, 47, 0
5, 21840, Note_on_c, 9, 47, 127
5, 21870, Note_on_c, 9, 47, 0
5, 21900, Note_on_c, 9, 45, 127
5, 21930, Note_on_c, 9, 45, 0
5, 21960, Note_on_c, 9, 45, 127
5, 21990, Note_on_c, 9, 45, 0
5, 22020, Note_on_c, 9, 35, 127
5, 22050, Note_on_c, 9, 35, 0
5, 22080, Note_on_c, 9, 46, 127
5, 22090, Note_on_c, 9, 38, 127
5, 22090, Note_on_c, 9, 40, 127
5, 22110, Note_on_c, 9, 46, 0
5, 22120, Note_on_c, 9, 40, 0
5, 22120, Note_on_c, 9, 38, 0
5, 22320, Note_on_c, 9, 46, 127
5, 22330, Note_on_c, 9, 38, 127
5, 22330, Note_on_c, 9, 40, 127
5, 22350, Note_on_c, 9, 46, 0
5, 22360, Note_on_c, 9, 40, 0
5, 22360, Note_on_c, 9, 38, 0
5, 22560, Note_on_c, 9, 46, 127
5, 22570, Note_on_c, 9, 38, 127
5, 22570, Note_on_c, 9, 40, 127
5, 22590, Note_on_c, 9, 46, 0
5, 22600, Note_on_c, 9, 40, 0
5, 22600, Note_on_c, 9, 38, 0
5, 22690, Note_on_c, 9, 35, 127
5, 22720, Note_on_c, 9, 35, 0
5, 22800, Note_on_c, 9, 46, 127
5, 22810, Note_on_c, 9, 38, 127
5, 22810, Note_on_c, 9, 40, 127
5, 22830, Note_on_c, 9, 46, 0
5, 22840, Note_on_c, 9, 40, 0
5, 22840, Note_on_c, 9, 38, 0
5, 22930, Note_on_c, 9, 35, 127
5, 22960, Note_on_c, 9, 35, 0
5, 23040, Note_on_c, 9, 46, 127
5, 23040, Note_on_c, 9, 35, 127
5, 23050, Note_on_c, 9, 38, 127
5, 23050, Note_on_c, 9, 40, 127
5, 23070, Note_on_c, 9, 35, 0
5, 23070, Note_on_c, 9, 46, 0
5, 23080, Note_on_c, 9, 38, 0
5, 23080, Note_on_c, 9, 40, 0
5, 23280, Note_on_c, 9, 46, 127
5, 23290, Note_on_c, 9, 38, 127
5, 23290, Note_on_c, 9, 40, 127
5, 23310, Note_on_c, 9, 46, 0
5, 23320, Note_on_c, 9, 40, 0
5, 23320, Note_on_c, 9, 38, 0
5, 23520, Note_on_c, 9, 46, 127
5, 23530, Note_on_c, 9, 38, 127
5, 23530, Note_on_c, 9, 40, 127
5, 23550, Note_on_c, 9, 46, 0
5, 23560, Note_on_c, 9, 40, 0
5, 23560, Note_on_c, 9, 38, 0
5, 23650, Note_on_c, 9, 35, 127
5, 23680, Note_on_c, 9, 35, 0
5, 23760, Note_on_c, 9, 46, 127
5, 23770, Note_on_c, 9, 38, 127
5, 23770, Note_on_c, 9, 40, 127
5, 23790, Note_on_c, 9, 46, 0
5, 23800, Note_on_c, 9, 40, 0
5, 23800, Note_on_c, 9, 38, 0
5, 23890, Note_on_c, 9, 35, 127
5, 23920, Note_on_c, 9, 35, 0
5, 24000, Note_on_c, 9, 46, 127
5, 24000, Note_on_c, 9, 35, 127
5, 24010, Note_on_c, 9, 38, 127
5, 24010, Note_on_c, 9, 40, 127
5, 24030, Note_on_c, 9, 35, 0
5, 24030, Note_on_c, 9, 46, 0
5, 24040, Note_on_c, 9, 38, 0
5, 24040, Note_on_c, 9, 40, 0
5, 24240, Note_on_c, 9, 46, 127
5, 24250, Note_on_c, 9, 38, 127
5, 24250, Note_on_c, 9, 40, 127
5, 24270, Note_on_c, 9, 46, 0
5, 24280, Note_on_c, 9, 40, 0
5, 24280, Note_on_c, 9, 38, 0
5, 24480, Note_on_c, 9, 46, 127
5, 24490, Note_on_c, 9, 38, 127
5, 24490, Note_on_c, 9, 40, 127
5, 24510, Note_on_c, 9, 46, 0
5, 24520, Note_on_c, 9, 40, 0
5, 24520, Note_on_c, 9, 38, 0
5, 24610, Note_on_c, 9, 35, 127
5, 24640, Note_on_c, 9, 35, 0
5, 24720, Note_on_c, 9, 46, 127
5, 24730, Note_on_c, 9, 38, 127
5, 24730, Note_on_c, 9, 40, 127
5, 24750, Note_on_c, 9, 46, 0
5, 24760, Note_on_c, 9, 40, 0
5, 24760, Note_on_c, 9, 38, 0
5, 24850, Note_on_c, 9, 35, 127
5, 24880, Note_on_c, 9, 35, 0
5, 24960, Note_on_c, 9, 46, 127
5, 24960, Note_on_c, 9, 35, 127
5, 24970, Note_on_c, 9, 38, 127
5, 24970, Note_on_c, 9, 40, 127
5, 24990, Note_on_c, 9, 35, 0
5, 24990, Note_on_c, 9, 46, 0
5, 25000, Note_on_c, 9, 38, 0
5, 25000, Note_on_c, 9, 40, 0
5, 25200, Note_on_c, 9, 46, 127
5, 25210, Note_on_c, 9, 38, 127
5, 25210, Note_on_c, 9, 40, 127
5, 25230, Note_on_c, 9, 46, 0
5, 25240, Note_on_c, 9, 40, 0
5, 25240, Note_on_c, 9, 38, 0
5, 25440, Note_on_c, 9, 46, 127
5, 25450, Note_on_c, 9, 38, 127
5, 25450, Note_on_c, 9, 40, 127
5, 25470, Note_on_c, 9, 46, 0
5, 25480, Note_on_c, 9, 40, 0
5, 25480, Note_on_c, 9, 38, 0
5, 25570, Note_on_c, 9, 35, 127
5, 25600, Note_on_c, 9, 35, 0
5, 25680, Note_on_c, 9, 46, 127
5, 25690, Note_on_c, 9, 38, 127
5, 25690, Note_on_c, 9, 40, 127
5, 25710, Note_on_c, 9, 46, 0
5, 25720, Note_on_c, 9, 40, 0
5, 25720, Note_on_c, 9, 38, 0
5, 25810, Note_on_c, 9, 35, 127
5, 25840, Note_on_c, 9, 35, 0
5, 25920, Note_on_c, 9, 46, 127
5, 25920, Note_on_c, 9, 35, 127
5, 25930, Note_on_c, 9, 38, 127
5, 25930, Note_on_c, 9, 40, 127
5, 25950, Note_on_c, 9, 35, 0
5, 25950, Note_on_c, 9, 46, 0
5, 25960, Note_on_c, 9, 38, 0
5, 25960, Note_on_c, 9, 40, 0
5, 26160, Note_on_c, 9, 46, 127
5, 26170, Note_on_c, 9, 38, 127
5, 26170, Note_on_c, 9, 40, 127
5, 26190, Note_on_c, 9, 46, 0
5, 26200, Note_on_c, 9, 40, 0
5, 26200, Note_on_c, 9, 38, 0
5, 26400, Note_on_c, 9, 46, 127
5, 26410, Note_on_c, 9, 38, 127
5, 26410, Note_on_c, 9, 40, 127
5, 26430, Note_on_c, 9, 46, 0
5, 26440, Note_on_c, 9, 40, 0
5, 26440, Note_on_c, 9, 38, 0
5, 26530, Note_on_c, 9, 35, 127
5, 26560, Note_on_c, 9, 35, 0
5, 26640, Note_on_c, 9, 46, 127
5, 26650, Note_on_c, 9, 38, 127
5, 26650, Note_on_c, 9, 40, 127
5, 26670, Note_on_c, 9, 46, 0
5, 26680, Note_on_c, 9, 40, 0
5, 26680, Note_on_c, 9, 38, 0
5, 26770, Note_on_c, 9, 35, 127
5, 26800, Note_on_c, 9, 35, 0
5, 26880, Note_on_c, 9, 46, 127
5, 26880, Note_on_c, 9, 35, 127
5, 26890, Note_on_c, 9, 38, 127
5, 26890, Note_on_c, 9, 40, 127
5, 26910, Note_on_c, 9, 35, 0
5, 26910, Note_on_c, 9, 46, 0
5, 26920, Note_on_c, 9, 38, 0
5, 26920, Note_on_c, 9, 40, 0
5, 27120, Note_on_c, 9, 46, 127
5, 27130, Note_on_c, 9, 38, 127
5, 27130, Note_on_c, 9, 40, 127
5, 27150, Note_on_c, 9, 46, 0
5, 27160, Note_on_c, 9, 40, 0
5, 27160, Note_on_c, 9, 38, 0
5, 27360, Note_on_c, 9, 46, 127
5, 27370, Note_on_c, 9, 38, 127
5, 27370, Note_on_c, 9, 40, 127
5, 27390, Note_on_c, 9, 46, 0
5, 27400, Note_on_c, 9, 40, 0
5, 27400, Note_on_c, 9, 38, 0
5, 27490, Note_on_c, 9, 35, 127
5, 27520, Note_on_c, 9, 35, 0
5, 27600, Note_on_c, 9, 46, 127
5, 27610, Note_on_c, 9, 38, 127
5, 27610, Note_on_c, 9, 40, 127
5, 27630, Note_on_c, 9, 46, 0
5, 27640, Note_on_c, 9, 40, 0
5, 27640, Note_on_c, 9, 38, 0
5, 27730, Note_on_c, 9, 35, 127
5, 27760, Note_on_c, 9, 35, 0
5, 27840, Note_on_c, 9, 46, 127
5, 27850, Note_on_c, 9, 38, 127
5, 27850, Note_on_c, 9, 40, 127
5, 27870, Note_on_c, 9, 46, 0
5, 27880, Note_on_c, 9, 40, 0
5, 27880, Note_on_c, 9, 38, 0
5, 28080, Note_on_c, 9, 46, 127
5, 28090, Note_on_c, 9, 38, 127
5, 28090, Note_on_c, 9, 40, 127
5, 28110, Note_on_c, 9, 46, 0
5, 28120, Note_on_c, 9, 40, 0
5, 28120, Note_on_c, 9, 38, 0
5, 28320, Note_on_c, 9, 46, 127
5, 28330, Note_on_c, 9, 38, 127
5, 28330, Note_on_c, 9, 40, 127
5, 28350, Note_on_c, 9, 46, 0
5, 28360, Note_on_c, 9, 40, 0
5, 28360, Note_on_c, 9, 38, 0
5, 28450, Note_on_c, 9, 35, 127
5, 28480, Note_on_c, 9, 35, 0
5, 28560, Note_on_c, 9, 46, 127
5, 28570, Note_on_c, 9, 38, 127
5, 28570, Note_on_c, 9, 40, 127
5, 28590, Note_on_c, 9, 46, 0
5, 28600, Note_on_c, 9, 40, 0
5, 28600, Note_on_c, 9, 38, 0
5, 28690, Note_on_c, 9, 35, 127
5, 28720, Note_on_c, 9, 35, 0
5, 28800, Note_on_c, 9, 46, 127
5, 28800, Note_on_c, 9, 35, 127
5, 28810, Note_on_c, 9, 38, 127
5, 28810, Note_on_c, 9, 40, 127
5, 28830, Note_on_c, 9, 35, 0
5, 28830, Note_on_c, 9, 46, 0
5, 28840, Note_on_c, 9, 38, 0
5, 28840, Note_on_c, 9, 40, 0
5, 29040, Note_on_c, 9, 46, 127
5, 29050, Note_on_c, 9, 38, 127
5, 29050, Note_on_c, 9, 40, 127
5, 29070, Note_on_c, 9, 46, 0
5, 29080, Note_on_c, 9, 40, 0
5, 29080, Note_on_c, 9, 38, 0
5, 29280, Note_on_c, 9, 46, 127
5, 29290, Note_on_c, 9, 38, 127
5, 29290, Note_on_c, 9, 40, 127
5, 29310, Note_on_c, 9, 46, 0
5, 29320, Note_on_c, 9, 40, 0
5, 29320, Note_on_c, 9, 38, 0
5, 29410, Note_on_c, 9, 35, 127
5, 29440, Note_on_c, 9, 35, 0
5, 29520, Note_on_c, 9, 46, 127
5, 29530, Note_on_c, 9, 38, 127
5, 29530, Note_on_c, 9, 40, 127
5, 29550, Note_on_c, 9, 46, 0
5, 29560, Note_on_c, 9, 40, 0
5, 29560, Note_on_c, 9, 38, 0
5, 29650, Note_on_c, 9, 35, 127
5, 29680, Note_on_c, 9, 35, 0
5, 29706, Note_on_c, 9, 40, 127
5, 29706, Note_on_c, 9, 38, 127
5, 29736, Note_on_c, 9, 38, 0
5, 29736, Note_on_c, 9, 40, 0
5, 29760, Note_on_c, 9, 49, 127
5, 29760, Note_on_c, 9, 35, 127
5, 29790, Note_on_c, 9, 35, 0
5, 29790, Note_on_c, 9, 49, 0
5, 30000, Note_on_c, 9, 44, 127
5, 30000, Note_on_c, 9, 40, 127
5, 30000, Note_on_c, 9, 38, 127
5, 30030, Note_on_c, 9, 38, 0
5, 30030, Note_on_c, 9, 40, 0
5, 30030, Note_on_c, 9, 44, 0
5, 30180, Note_on_c, 9, 35, 127
5, 30186, Note_on_c, 9, 38, 127
5, 30210, Note_on_c, 9, 35, 0
5, 30216, Note_on_c, 9, 38, 0
5, 30240, Note_on_c, 9, 44, 127
5, 30240, Note_on_c, 9, 38, 127
5, 30240, Note_on_c, 9, 35, 127
5, 30270, Note_on_c, 9, 35, 0
5, 30270, Note_on_c, 9, 38, 0
5, 30270, Note_on_c, 9, 44, 0
5, 30306, Note_on_c, 9, 38, 127
5, 30336, Note_on_c, 9, 38, 0
5, 30360, Note_on_c, 9, 38, 127
5, 30360, Note_on_c, 9, 35, 127
5, 30390, Note_on_c, 9, 35, 0
5, 30390, Note_on_c, 9, 38, 0
5, 30480, Note_on_c, 9, 44, 127
5, 30480, Note_on_c, 9, 38, 127
5, 30480, Note_on_c, 9, 40, 127
5, 30510, Note_on_c, 9, 40, 0
5, 30510, Note_on_c, 9, 38, 0
5, 30510, Note_on_c, 9, 44, 0
5, 30600, Note_on_c, 9, 38, 127
5, 30600, Note_on_c, 9, 35, 127
5, 30630, Note_on_c, 9, 35, 0
5, 30630, Note_on_c, 9, 38, 0
5, 30720, Note_on_c, 9, 44, 127
5, 30720, Note_on_c, 9, 35, 127
5, 30750, Note_on_c, 9, 35, 0
5, 30750, Note_on_c, 9, 44, 0
5, 30960, Note_on_c, 9, 44, 127
5, 30960, Note_on_c, 9, 40, 127
5, 30960, Note_on_c, 9, 38, 127
5, 30990, Note_on_c, 9, 38, 0
5, 30990, Note_on_c, 9, 40, 0
5, 30990, Note_on_c, 9, 44, 0
5, 31146, Note_on_c, 9, 38, 127
5, 31176, Note_on_c, 9, 38, 0
5, 31200, Note_on_c, 9, 44, 127
5, 31200, Note_on_c, 9, 40, 127
5, 31200, Note_on_c, 9, 38, 127
5, 31200, Note_on_c, 9, 35, 127
5, 31230, Note_on_c, 9, 35, 0
5, 31230, Note_on_c, 9, 44, 0
5, 31230, Note_on_c, 9, 40, 0
5, 31230, Note_on_c, 9, 38, 0
5, 31266, Note_on_c, 9, 38, 127
5, 31266, Note_on_c, 9, 40, 127
5, 31296, Note_on_c, 9, 40, 0
5, 31296, Note_on_c, 9, 38, 0
5, 31386, Note_on_c, 9, 38, 127
5, 31416, Note_on_c, 9, 38, 0
5, 31440, Note_on_c, 9, 44, 127
5, 31440, Note_on_c, 9, 38, 127
5, 31440, Note_on_c, 9, 40, 127
5, 31470, Note_on_c, 9, 40, 0
5, 31470, Note_on_c, 9, 38, 0
5, 31470, Note_on_c, 9, 44, 0
5, 31506, Note_on_c, 9, 38, 127
5, 31536, Note_on_c, 9, 38, 0
5, 31560, Note_on_c, 9, 38, 127
5, 31560, Note_on_c, 9, 40, 127
5, 31560, Note_on_c, 9, 35, 127
5, 31590, Note_on_c, 9, 35, 0
5, 31590, Note_on_c, 9, 40, 0
5, 31590, Note_on_c, 9, 38, 0
5, 31626, Note_on_c, 9, 40, 127
5, 31626, Note_on_c, 9, 38, 127
5, 31656, Note_on_c, 9, 38, 0
5, 31656, Note_on_c, 9, 40, 0
5, 31680, Note_on_c, 9, 57, 127
5, 31680, Note_on_c, 9, 44, 127
5, 31680, Note_on_c, 9, 35, 127
5, 31710, Note_on_c, 9, 35, 0
5, 31710, Note_on_c, 9, 44, 0
5, 31710, Note_on_c, 9, 57, 0
5, 31920, Note_on_c, 9, 44, 127
5, 31920, Note_on_c, 9, 40, 127
5, 31920, Note_on_c, 9, 38, 127
5, 31950, Note_on_c, 9, 38, 0
5, 31950, Note_on_c, 9, 40, 0
5, 31950, Note_on_c, 9, 44, 0
5, 32100, Note_on_c, 9, 35, 127
5, 32106, Note_on_c, 9, 38, 127
5, 32130, Note_on_c, 9, 35, 0
5, 32136, Note_on_c, 9, 38, 0
5, 32160, Note_on_c, 9, 44, 127
5, 32160, Note_on_c, 9, 38, 127
5, 32160, Note_on_c, 9, 35, 127
5, 32190, Note_on_c, 9, 35, 0
5, 32190, Note_on_c, 9, 38, 0
5, 32190, Note_on_c, 9, 44, 0
5, 32226, Note_on_c, 9, 38, 127
5, 32256, Note_on_c, 9, 38, 0
5, 32280, Note_on_c, 9, 38, 127
5, 32280, Note_on_c, 9, 35, 127
5, 32310, Note_on_c, 9, 35, 0
5, 32310, Note_on_c, 9, 38, 0
5, 32400, Note_on_c, 9, 44, 127
5, 32400, Note_on_c, 9, 38, 127
5, 32400, Note_on_c, 9, 40, 127
5, 32430, Note_on_c, 9, 40, 0
5, 32430, Note_on_c, 9, 38, 0
5, 32430, Note_on_c, 9, 44, 0
5, 32460, Note_on_c, 9, 35, 127
5, 32490, Note_on_c, 9, 35, 0
5, 32520, Note_on_c, 9, 38, 127
5, 32520, Note_on_c, 9, 35, 127
5, 32550, Note_on_c, 9, 35, 0
5, 32550, Note_on_c, 9, 38, 0
5, 32640, Note_on_c, 9, 44, 127
5, 32640, Note_on_c, 9, 35, 127
5, 32670, Note_on_c, 9, 35, 0
5, 32670, Note_on_c, 9, 44, 0
5, 32880, Note_on_c, 9, 44, 127
5, 32880, Note_on_c, 9, 40, 127
5, 32880, Note_on_c, 9, 38, 127
5, 32910, Note_on_c, 9, 38, 0
5, 32910, Note_on_c, 9, 40, 0
5, 32910, Note_on_c, 9, 44, 0
5, 33066, Note_on_c, 9, 38, 127
5, 33096, Note_on_c, 9, 38, 0
5, 33120, Note_on_c, 9, 44, 127
5, 33120, Note_on_c, 9, 40, 127
5, 33120, Note_on_c, 9, 38, 127
5, 33120, Note_on_c, 9, 35, 127
5, 33150, Note_on_c, 9, 35, 0
5, 33150, Note_on_c, 9, 44, 0
5, 33150, Note_on_c, 9, 40, 0
5, 33150, Note_on_c, 9, 38, 0
5, 33186, Note_on_c, 9, 38, 127
5, 33186, Note_on_c, 9, 40, 127
5, 33216, Note_on_c, 9, 40, 0
5, 33216, Note_on_c, 9, 38, 0
5, 33240, Note_on_c, 9, 47, 127
5, 33270, Note_on_c, 9, 47, 0
5, 33300, Note_on_c, 9, 47, 127
5, 33330, Note_on_c, 9, 47, 0
5, 33360, Note_on_c, 9, 45, 127
5, 33360, Note_on_c, 9, 44, 127
5, 33390, Note_on_c, 9, 44, 0
5, 33390, Note_on_c, 9, 45, 0
5, 33420, Note_on_c, 9, 45, 127
5, 33450, Note_on_c, 9, 45, 0
5, 33480, Note_on_c, 9, 43, 127
5, 33480, Note_on_c, 9, 35, 127
5, 33510, Note_on_c, 9, 35, 0
5, 33510, Note_on_c, 9, 43, 0
5, 33540, Note_on_c, 9, 43, 127
5, 33570, Note_on_c, 9, 43, 0
5, 33600, Note_on_c, 9, 49, 127
5, 33600, Note_on_c, 9, 44, 127
5, 33600, Note_on_c, 9, 49, 127
5, 33600, Note_on_c, 9, 35, 127
5, 33630, Note_on_c, 9, 35, 0
5, 33630, Note_on_c, 9, 49, 0
5, 33630, Note_on_c, 9, 44, 0
5, 33630, Note_on_c, 9, 49, 0
5, 33840, Note_on_c, 9, 44, 127
5, 33840, Note_on_c, 9, 40, 127
5, 33840, Note_on_c, 9, 38, 127
5, 33870, Note_on_c, 9, 38, 0
5, 33870, Note_on_c, 9, 40, 0
5, 33870, Note_on_c, 9, 44, 0
5, 34020, Note_on_c, 9, 35, 127
5, 34026, Note_on_c, 9, 38, 127
5, 34050, Note_on_c, 9, 35, 0
5, 34056, Note_on_c, 9, 38, 0
5, 34080, Note_on_c, 9, 44, 127
5, 34080, Note_on_c, 9, 38, 127
5, 34110, Note_on_c, 9, 38, 0
5, 34110, Note_on_c, 9, 44, 0
5, 34140, Note_on_c, 9, 35, 127
5, 34146, Note_on_c, 9, 38, 127
5, 34170, Note_on_c, 9, 35, 0
5, 34176, Note_on_c, 9, 38, 0
5, 34200, Note_on_c, 9, 38, 127
5, 34200, Note_on_c, 9, 35, 127
5, 34230, Note_on_c, 9, 35, 0
5, 34230, Note_on_c, 9, 38, 0
5, 34320, Note_on_c, 9, 44, 127
5, 34320, Note_on_c, 9, 38, 127
5, 34320, Note_on_c, 9, 40, 127
5, 34350, Note_on_c, 9, 40, 0
5, 34350, Note_on_c, 9, 38, 0
5, 34350, Note_on_c, 9, 44, 0
5, 34440, Note_on_c, 9, 38, 127
5, 34440, Note_on_c, 9, 35, 127
5, 34470, Note_on_c, 9, 35, 0
5, 34470, Note_on_c, 9, 38, 0
5, 34560, Note_on_c, 9, 44, 127
5, 34560, Note_on_c, 9, 35, 127
5, 34590, Note_on_c, 9, 35, 0
5, 34590, Note_on_c, 9, 44, 0
5, 34800, Note_on_c, 9, 44, 127
5, 34800, Note_on_c, 9, 40, 127
5, 34800, Note_on_c, 9, 38, 127
5, 34830, Note_on_c, 9, 38, 0
5, 34830, Note_on_c, 9, 40, 0
5, 34830, Note_on_c, 9, 44, 0
5, 34920, Note_on_c, 9, 35, 127
5, 34950, Note_on_c, 9, 35, 0
5, 34986, Note_on_c, 9, 38, 127
5, 35016, Note_on_c, 9, 38, 0
5, 35040, Note_on_c, 9, 44, 127
5, 35040, Note_on_c, 9, 40, 127
5, 35040, Note_on_c, 9, 38, 127
5, 35040, Note_on_c, 9, 35, 127
5, 35070, Note_on_c, 9, 35, 0
5, 35070, Note_on_c, 9, 44, 0
5, 35070, Note_on_c, 9, 40, 0
5, 35070, Note_on_c, 9, 38, 0
5, 35106, Note_on_c, 9, 38, 127
5, 35106, Note_on_c, 9, 40, 127
5, 35136, Note_on_c, 9, 40, 0
5, 35136, Note_on_c, 9, 38, 0
5, 35226, Note_on_c, 9, 38, 127
5, 35256, Note_on_c, 9, 38, 0
5, 35280, Note_on_c, 9, 44, 127
5, 35280, Note_on_c, 9, 38, 127
5, 35280, Note_on_c, 9, 40, 127
5, 35310, Note_on_c, 9, 40, 0
5, 35310, Note_on_c, 9, 38, 0
5, 35310, Note_on_c, 9, 44, 0
5, 35346, Note_on_c, 9, 38, 127
5, 35376, Note_on_c, 9, 38, 0
5, 35400, Note_on_c, 9, 38, 127
5, 35400, Note_on_c, 9, 40, 127
5, 35400, Note_on_c, 9, 35, 127
5, 35430, Note_on_c, 9, 35, 0
5, 35430, Note_on_c, 9, 40, 0
5, 35430, Note_on_c, 9, 38, 0
5, 35466, Note_on_c, 9, 40, 127
5, 35466, Note_on_c, 9, 38, 127
5, 35496, Note_on_c, 9, 38, 0
5, 35496, Note_on_c, 9, 40, 0
5, 35520, Note_on_c, 9, 57, 127
5, 35520, Note_on_c, 9, 44, 127
5, 35520, Note_on_c, 9, 35, 127
5, 35550, Note_on_c, 9, 35, 0
5, 35550, Note_on_c, 9, 44, 0
5, 35550, Note_on_c, 9, 57, 0
5, 35760, Note_on_c, 9, 44, 127
5, 35760, Note_on_c, 9, 40, 127
5, 35760, Note_on_c, 9, 38, 127
5, 35790, Note_on_c, 9, 38, 0
5, 35790, Note_on_c, 9, 40, 0
5, 35790, Note_on_c, 9, 44, 0
5, 35880, Note_on_c, 9, 35, 127
5, 35910, Note_on_c, 9, 35, 0
5, 35940, Note_on_c, 9, 35, 127
5, 35946, Note_on_c, 9, 38, 127
5, 35970, Note_on_c, 9, 35, 0
5, 35976, Note_on_c, 9, 38, 0
5, 36000, Note_on_c, 9, 44, 127
5, 36000, Note_on_c, 9, 38, 127
5, 36030, Note_on_c, 9, 38, 0
5, 36030, Note_on_c, 9, 44, 0
5, 36060, Note_on_c, 9, 35, 127
5, 36066, Note_on_c, 9, 38, 127
5, 36090, Note_on_c, 9, 35, 0
5, 36096, Note_on_c, 9, 38, 0
5, 36120, Note_on_c, 9, 38, 127
5, 36120, Note_on_c, 9, 35, 127
5, 36150, Note_on_c, 9, 35, 0
5, 36150, Note_on_c, 9, 38, 0
5, 36240, Note_on_c, 9, 44, 127
5, 36240, Note_on_c, 9, 38, 127
5, 36240, Note_on_c, 9, 40, 127
5, 36270, Note_on_c, 9, 40, 0
5, 36270, Note_on_c, 9, 38, 0
5, 36270, Note_on_c, 9, 44, 0
5, 36360, Note_on_c, 9, 38, 127
5, 36360, Note_on_c, 9, 35, 127
5, 36390, Note_on_c, 9, 35, 0
5, 36390, Note_on_c, 9, 38, 0
5, 36480, Note_on_c, 9, 44, 127
5, 36480, Note_on_c, 9, 35, 127
5, 36510, Note_on_c, 9, 35, 0
5, 36510, Note_on_c, 9, 44, 0
5, 36720, Note_on_c, 9, 44, 127
5, 36720, Note_on_c, 9, 40, 127
5, 36720, Note_on_c, 9, 38, 127
5, 36750, Note_on_c, 9, 38, 0
5, 36750, Note_on_c, 9, 40, 0
5, 36750, Note_on_c, 9, 44, 0
5, 36840, Note_on_c, 9, 35, 127
5, 36870, Note_on_c, 9, 35, 0
5, 36906, Note_on_c, 9, 38, 127
5, 36936, Note_on_c, 9, 38, 0
5, 36960, Note_on_c, 9, 44, 127
5, 36960, Note_on_c, 9, 40, 127
5, 36960, Note_on_c, 9, 38, 127
5, 36990, Note_on_c, 9, 38, 0
5, 36990, Note_on_c, 9, 40, 0
5, 36990, Note_on_c, 9, 44, 0
5, 37026, Note_on_c, 9, 38, 127
5, 37026, Note_on_c, 9, 40, 127
5, 37056, Note_on_c, 9, 40, 0
5, 37056, Note_on_c, 9, 38, 0
5, 37080, Note_on_c, 9, 47, 127
5, 37080, Note_on_c, 9, 35, 127
5, 37110, Note_on_c, 9, 35, 0
5, 37110, Note_on_c, 9, 47, 0
5, 37140, Note_on_c, 9, 47, 127
5, 37170, Note_on_c, 9, 47, 0
5, 37200, Note_on_c, 9, 45, 127
5, 37200, Note_on_c, 9, 44, 127
5, 37230, Note_on_c, 9, 44, 0
5, 37230, Note_on_c, 9, 45, 0
5, 37260, Note_on_c, 9, 45, 127
5, 37290, Note_on_c, 9, 45, 0
5, 37320, Note_on_c, 9, 43, 127
5, 37350, Note_on_c, 9, 43, 0
5, 37380, Note_on_c, 9, 43, 127
5, 37410, Note_on_c, 9, 43, 0
5, 37440, Note_on_c, 9, 44, 127
5, 37440, Note_on_c, 9, 57, 127
5, 37440, Note_on_c, 9, 44, 127
5, 37440, Note_on_c, 9, 49, 127
5, 37440, Note_on_c, 9, 35, 127
5, 37470, Note_on_c, 9, 35, 0
5, 37470, Note_on_c, 9, 44, 0
5, 37470, Note_on_c, 9, 44, 0
5, 37470, Note_on_c, 9, 57, 0
5, 37470, Note_on_c, 9, 49, 0
5, 37680, Note_on_c, 9, 44, 127
5, 37680, Note_on_c, 9, 40, 127
5, 37680, Note_on_c, 9, 38, 127
5, 37710, Note_on_c, 9, 38, 0
5, 37710, Note_on_c, 9, 40, 0
5, 37710, Note_on_c, 9, 44, 0
5, 37860, Note_on_c, 9, 35, 127
5, 37866, Note_on_c, 9, 38, 127
5, 37890, Note_on_c, 9, 35, 0
5, 37896, Note_on_c, 9, 38, 0
5, 37920, Note_on_c, 9, 44, 127
5, 37920, Note_on_c, 9, 38, 127
5, 37950, Note_on_c, 9, 38, 0
5, 37950, Note_on_c, 9, 44, 0
5, 37980, Note_on_c, 9, 35, 127
5, 37986, Note_on_c, 9, 38, 127
5, 38010, Note_on_c, 9, 35, 0
5, 38016, Note_on_c, 9, 38, 0
5, 38040, Note_on_c, 9, 38, 127
5, 38040, Note_on_c, 9, 35, 127
5, 38070, Note_on_c, 9, 35, 0
5, 38070, Note_on_c, 9, 38, 0
5, 38160, Note_on_c, 9, 44, 127
5, 38160, Note_on_c, 9, 38, 127
5, 38160, Note_on_c, 9, 40, 127
5, 38190, Note_on_c, 9, 40, 0
5, 38190, Note_on_c, 9, 38, 0
5, 38190, Note_on_c, 9, 44, 0
5, 38280, Note_on_c, 9, 38, 127
5, 38280, Note_on_c, 9, 35, 127
5, 38310, Note_on_c, 9, 35, 0
5, 38310, Note_on_c, 9, 38, 0
5, 38400, Note_on_c, 9, 44, 127
5, 38400, Note_on_c, 9, 35, 127
5, 38430, Note_on_c, 9, 35, 0
5, 38430, Note_on_c, 9, 44, 0
5, 38640, Note_on_c, 9, 44, 127
5, 38640, Note_on_c, 9, 40, 127
5, 38640, Note_on_c, 9, 38, 127
5, 38670, Note_on_c, 9, 38, 0
5, 38670, Note_on_c, 9, 40, 0
5, 38670, Note_on_c, 9, 44, 0
5, 38760, Note_on_c, 9, 35, 127
5, 38790, Note_on_c, 9, 35, 0
5, 38826, Note_on_c, 9, 38, 127
5, 38856, Note_on_c, 9, 38, 0
5, 38880, Note_on_c, 9, 44, 127
5, 38880, Note_on_c, 9, 40, 127
5, 38880, Note_on_c, 9, 38, 127
5, 38880, Note_on_c, 9, 35, 127
5, 38910, Note_on_c, 9, 35, 0
5, 38910, Note_on_c, 9, 44, 0
5, 38910, Note_on_c, 9, 40, 0
5, 38910, Note_on_c, 9, 38, 0
5, 38946, Note_on_c, 9, 38, 127
5, 38946, Note_on_c, 9, 40, 127
5, 38976, Note_on_c, 9, 40, 0
5, 38976, Note_on_c, 9, 38, 0
5, 39066, Note_on_c, 9, 38, 127
5, 39096, Note_on_c, 9, 38, 0
5, 39120, Note_on_c, 9, 44, 127
5, 39120, Note_on_c, 9, 38, 127
5, 39120, Note_on_c, 9, 40, 127
5, 39150, Note_on_c, 9, 40, 0
5, 39150, Note_on_c, 9, 38, 0
5, 39150, Note_on_c, 9, 44, 0
5, 39186, Note_on_c, 9, 38, 127
5, 39216, Note_on_c, 9, 38, 0
5, 39240, Note_on_c, 9, 38, 127
5, 39240, Note_on_c, 9, 40, 127
5, 39240, Note_on_c, 9, 35, 127
5, 39270, Note_on_c, 9, 35, 0
5, 39270, Note_on_c, 9, 40, 0
5, 39270, Note_on_c, 9, 38, 0
5, 39306, Note_on_c, 9, 40, 127
5, 39306, Note_on_c, 9, 38, 127
5, 39336, Note_on_c, 9, 38, 0
5, 39336, Note_on_c, 9, 40, 0
5, 39360, Note_on_c, 9, 49, 127
5, 39360, Note_on_c, 9, 35, 127
5, 39390, Note_on_c, 9, 35, 0
5, 39390, Note_on_c, 9, 49, 0
5, 39600, Note_on_c, 9, 44, 127
5, 39630, Note_on_c, 9, 44, 0
5, 39840, Note_on_c, 9, 44, 127
5, 39870, Note_on_c, 9, 44, 0
5, 40080, Note_on_c, 9, 44, 127
5, 40110, Note_on_c, 9, 44, 0
5, 40320, Note_on_c, 9, 44, 127
5, 40350, Note_on_c, 9, 44, 0
5, 40560, Note_on_c, 9, 44, 127
5, 40560, Note_on_c, 9, 40, 127
5, 40560, Note_on_c, 9, 38, 127
5, 40590, Note_on_c, 9, 38, 0
5, 40590, Note_on_c, 9, 40, 0
5, 40590, Note_on_c, 9, 44, 0
5, 40620, Note_on_c, 9, 38, 127
5, 40620, Note_on_c, 9, 40, 127
5, 40650, Note_on_c, 9, 40, 0
5, 40650, Note_on_c, 9, 38, 0
5, 40680, Note_on_c, 9, 38, 127
5, 40680, Note_on_c, 9, 40, 127
5, 40710, Note_on_c, 9, 40, 0
5, 40710, Note_on_c, 9, 38, 0
5, 40740, Note_on_c, 9, 38, 127
5, 40740, Note_on_c, 9, 40, 127
5, 40770, Note_on_c, 9, 40, 0
5, 40770, Note_on_c, 9, 38, 0
5, 40800, Note_on_c, 9, 49, 127
5, 40800, Note_on_c, 9, 35, 127
5, 40830, Note_on_c, 9, 35, 0
5, 40830, Note_on_c, 9, 49, 0
5, 40920, Note_on_c, 9, 57, 127
5, 40920, Note_on_c, 9, 35, 127
5, 40950, Note_on_c, 9, 35, 0
5, 40950, Note_on_c, 9, 57, 0
5, 41040, Note_on_c, 9, 49, 127
5, 41040, Note_on_c, 9, 35, 127
5, 41070, Note_on_c, 9, 35, 0
5, 41070, Note_on_c, 9, 49, 0
5, 41280, Note_on_c, 9, 49, 127
5, 41280, Note_on_c, 9, 35, 127
5, 41310, Note_on_c, 9, 35, 0
5, 41310, Note_on_c, 9, 49, 0
5, 41400, Note_on_c, 9, 57, 127
5, 41400, Note_on_c, 9, 35, 127
5, 41430, Note_on_c, 9, 35, 0
5, 41430, Note_on_c, 9, 57, 0
5, 41520, Note_on_c, 9, 49, 127
5, 41520, Note_on_c, 9, 35, 127
5, 41550, Note_on_c, 9, 35, 0
5, 41550, Note_on_c, 9, 49, 0
5, 41706, Note_on_c, 9, 40, 127
5, 41706, Note_on_c, 9, 38, 127
5, 41736, Note_on_c, 9, 38, 0
5, 41736, Note_on_c, 9, 40, 0
5, 41760, Note_on_c, 9, 38, 127
5, 41760, Note_on_c, 9, 40, 127
5, 41760, Note_on_c, 9, 35, 127
5, 41790, Note_on_c, 9, 35, 0
5, 41790, Note_on_c, 9, 40, 0
5, 41790, Note_on_c, 9, 38, 0
5, 41826, Note_on_c, 9, 48, 127
5, 41856, Note_on_c, 9, 48, 0
5, 41880, Note_on_c, 9, 48, 127
5, 41910, Note_on_c, 9, 48, 0
5, 41940, Note_on_c, 9, 47, 127
5, 41970, Note_on_c, 9, 47, 0
5, 42000, Note_on_c, 9, 47, 127
5, 42030, Note_on_c, 9, 47, 0
5, 42060, Note_on_c, 9, 45, 127
5, 42090, Note_on_c, 9, 45, 0
5, 42120, Note_on_c, 9, 45, 127
5, 42150, Note_on_c, 9, 45, 0
5, 42180, Note_on_c, 9, 35, 127
5, 42210, Note_on_c, 9, 35, 0
5, 42240, Note_on_c, 9, 46, 127
5, 42250, Note_on_c, 9, 38, 127
5, 42250, Note_on_c, 9, 40, 127
5, 42270, Note_on_c, 9, 46, 0
5, 42280, Note_on_c, 9, 38, 0
5, 42280, Note_on_c, 9, 40, 0
5, 42480, Note_on_c, 9, 46, 127
5, 42490, Note_on_c, 9, 38, 127
5, 42490, Note_on_c, 9, 40, 127
5, 42510, Note_on_c, 9, 46, 0
5, 42520, Note_on_c, 9, 38, 0
5, 42520, Note_on_c, 9, 40, 0
5, 42720, Note_on_c, 9, 46, 127
5, 42730, Note_on_c, 9, 38, 127
5, 42730, Note_on_c, 9, 40, 127
5, 42750, Note_on_c, 9, 46, 0
5, 42760, Note_on_c, 9, 38, 0
5, 42760, Note_on_c, 9, 40, 0
5, 42850, Note_on_c, 9, 35, 127
5, 42880, Note_on_c, 9, 35, 0
5, 42960, Note_on_c, 9, 46, 127
5, 42970, Note_on_c, 9, 38, 127
5, 42970, Note_on_c, 9, 40, 127
5, 42990, Note_on_c, 9, 46, 0
5, 43000, Note_on_c, 9, 38, 0
5, 43000, Note_on_c, 9, 40, 0
5, 43090, Note_on_c, 9, 35, 127
5, 43120, Note_on_c, 9, 35, 0
5, 43200, Note_on_c, 9, 46, 127
5, 43200, Note_on_c, 9, 35, 127
5, 43210, Note_on_c, 9, 38, 127
5, 43210, Note_on_c, 9, 40, 127
5, 43230, Note_on_c, 9, 46, 0
5, 43230, Note_on_c, 9, 35, 0
5, 43240, Note_on_c, 9, 38, 0
5, 43240, Note_on_c, 9, 40, 0
5, 43440, Note_on_c, 9, 46, 127
5, 43450, Note_on_c, 9, 38, 127
5, 43450, Note_on_c, 9, 40, 127
5, 43470, Note_on_c, 9, 46, 0
5, 43480, Note_on_c, 9, 38, 0
5, 43480, Note_on_c, 9, 40, 0
5, 43680, Note_on_c, 9, 46, 127
5, 43690, Note_on_c, 9, 38, 127
5, 43690, Note_on_c, 9, 40, 127
5, 43710, Note_on_c, 9, 46, 0
5, 43720, Note_on_c, 9, 38, 0
5, 43720, Note_on_c, 9, 40, 0
5, 43810, Note_on_c, 9, 35, 127
5, 43840, Note_on_c, 9, 35, 0
5, 43920, Note_on_c, 9, 46, 127
5, 43930, Note_on_c, 9, 38, 127
5, 43930, Note_on_c, 9, 40, 127
5, 43950, Note_on_c, 9, 46, 0
5, 43960, Note_on_c, 9, 38, 0
5, 43960, Note_on_c, 9, 40, 0
5, 44050, Note_on_c, 9, 35, 127
5, 44080, Note_on_c, 9, 35, 0
5, 44160, Note_on_c, 9, 46, 127
5, 44160, Note_on_c, 9, 35, 127
5, 44170, Note_on_c, 9, 38, 127
5, 44170, Note_on_c, 9, 40, 127
5, 44190, Note_on_c, 9, 46, 0
5, 44190, Note_on_c, 9, 35, 0
5, 44200, Note_on_c, 9, 38, 0
5, 44200, Note_on_c, 9, 40, 0
5, 44400, Note_on_c, 9, 46, 127
5, 44410, Note_on_c, 9, 38, 127
5, 44410, Note_on_c, 9, 40, 127
5, 44430, Note_on_c, 9, 46, 0
5, 44440, Note_on_c, 9, 38, 0
5, 44440, Note_on_c, 9, 40, 0
5, 44640, Note_on_c, 9, 46, 127
5, 44650, Note_on_c, 9, 38, 127
5, 44650, Note_on_c, 9, 40, 127
5, 44670, Note_on_c, 9, 46, 0
5, 44680, Note_on_c, 9, 38, 0
5, 44680, Note_on_c, 9, 40, 0
5, 44770, Note_on_c, 9, 35, 127
5, 44800, Note_on_c, 9, 35, 0
5, 44880, Note_on_c, 9, 46, 127
5, 44890, Note_on_c, 9, 38, 127
5, 44890, Note_on_c, 9, 40, 127
5, 44910, Note_on_c, 9, 46, 0
5, 44920, Note_on_c, 9, 38, 0
5, 44920, Note_on_c, 9, 40, 0
5, 45010, Note_on_c, 9, 35, 127
5, 45040, Note_on_c, 9, 35, 0
5, 45120, Note_on_c, 9, 46, 127
5, 45120, Note_on_c, 9, 35, 127
5, 45130, Note_on_c, 9, 38, 127
5, 45130, Note_on_c, 9, 40, 127
5, 45150, Note_on_c, 9, 46, 0
5, 45150, Note_on_c, 9, 35, 0
5, 45160, Note_on_c, 9, 38, 0
5, 45160, Note_on_c, 9, 40, 0
5, 45360, Note_on_c, 9, 46, 127
5, 45370, Note_on_c, 9, 38, 127
5, 45370, Note_on_c, 9, 40, 127
5, 45390, Note_on_c, 9, 46, 0
5, 45400, Note_on_c, 9, 38, 0
5, 45400, Note_on_c, 9, 40, 0
5, 45600, Note_on_c, 9, 46, 127
5, 45610, Note_on_c, 9, 38, 127
5, 45610, Note_on_c, 9, 40, 127
5, 45630, Note_on_c, 9, 46, 0
5, 45640, Note_on_c, 9, 38, 0
5, 45640, Note_on_c, 9, 40, 0
5, 45730, Note_on_c, 9, 35, 127
5, 45760, Note_on_c, 9, 35, 0
5, 45840, Note_on_c, 9, 46, 127
5, 45850, Note_on_c, 9, 38, 127
5, 45850, Note_on_c, 9, 40, 127
5, 45870, Note_on_c, 9, 46, 0
5, 45880, Note_on_c, 9, 38, 0
5, 45880, Note_on_c, 9, 40, 0
5, 45970, Note_on_c, 9, 35, 127
5, 46000, Note_on_c, 9, 35, 0
5, 46080, Note_on_c, 9, 46, 127
5, 46080, Note_on_c, 9, 35, 127
5, 46090, Note_on_c, 9, 38, 127
5, 46090, Note_on_c, 9, 40, 127
5, 46110, Note_on_c, 9, 46, 0
5, 46110, Note_on_c, 9, 35, 0
5, 46120, Note_on_c, 9, 38, 0
5, 46120, Note_on_c, 9, 40, 0
5, 46320, Note_on_c, 9, 46, 127
5, 46330, Note_on_c, 9, 38, 127
5, 46330, Note_on_c, 9, 40, 127
5, 46350, Note_on_c, 9, 46, 0
5, 46360, Note_on_c, 9, 38, 0
5, 46360, Note_on_c, 9, 40, 0
5, 46560, Note_on_c, 9, 46, 127
5, 46570, Note_on_c, 9, 38, 127
5, 46570, Note_on_c, 9, 40, 127
5, 46590, Note_on_c, 9, 46, 0
5, 46600, Note_on_c, 9, 38, 0
5, 46600, Note_on_c, 9, 40, 0
5, 46690, Note_on_c, 9, 35, 127
5, 46720, Note_on_c, 9, 35, 0
5, 46800, Note_on_c, 9, 46, 127
5, 46810, Note_on_c, 9, 38, 127
5, 46810, Note_on_c, 9, 40, 127
5, 46830, Note_on_c, 9, 46, 0
5, 46840, Note_on_c, 9, 38, 0
5, 46840, Note_on_c, 9, 40, 0
5, 46930, Note_on_c, 9, 35, 127
5, 46960, Note_on_c, 9, 35, 0
5, 47040, Note_on_c, 9, 46, 127
5, 47040, Note_on_c, 9, 35, 127
5, 47050, Note_on_c, 9, 38, 127
5, 47050, Note_on_c, 9, 40, 127
5, 47070, Note_on_c, 9, 46, 0
5, 47070, Note_on_c, 9, 35, 0
5, 47080, Note_on_c, 9, 38, 0
5, 47080, Note_on_c, 9, 40, 0
5, 47280, Note_on_c, 9, 46, 127
5, 47290, Note_on_c, 9, 38, 127
5, 47290, Note_on_c, 9, 40, 127
5, 47310, Note_on_c, 9, 46, 0
5, 47320, Note_on_c, 9, 38, 0
5, 47320, Note_on_c, 9, 40, 0
5, 47520, Note_on_c, 9, 46, 127
5, 47530, Note_on_c, 9, 38, 127
5, 47530, Note_on_c, 9, 40, 127
5, 47550, Note_on_c, 9, 46, 0
5, 47560, Note_on_c, 9, 38, 0
5, 47560, Note_on_c, 9, 40, 0
5, 47650, Note_on_c, 9, 35, 127
5, 47680, Note_on_c, 9, 35, 0
5, 47760, Note_on_c, 9, 46, 127
5, 47770, Note_on_c, 9, 38, 127
5, 47770, Note_on_c, 9, 40, 127
5, 47790, Note_on_c, 9, 46, 0
5, 47800, Note_on_c, 9, 38, 0
5, 47800, Note_on_c, 9, 40, 0
5, 47890, Note_on_c, 9, 35, 127
5, 47920, Note_on_c, 9, 35, 0
5, 48000, Note_on_c, 9, 46, 127
5, 48010, Note_on_c, 9, 38, 127
5, 48010, Note_on_c, 9, 40, 127
5, 48030, Note_on_c, 9, 46, 0
5, 48040, Note_on_c, 9, 38, 0
5, 48040, Note_on_c, 9, 40, 0
5, 48240, Note_on_c, 9, 46, 127
5, 48250, Note_on_c, 9, 38, 127
5, 48250, Note_on_c, 9, 40, 127
5, 48270, Note_on_c, 9, 46, 0
5, 48280, Note_on_c, 9, 38, 0
5, 48280, Note_on_c, 9, 40, 0
5, 48480, Note_on_c, 9, 46, 127
5, 48490, Note_on_c, 9, 38, 127
5, 48490, Note_on_c, 9, 40, 127
5, 48510, Note_on_c, 9, 46, 0
5, 48520, Note_on_c, 9, 38, 0
5, 48520, Note_on_c, 9, 40, 0
5, 48610, Note_on_c, 9, 35, 127
5, 48640, Note_on_c, 9, 35, 0
5, 48720, Note_on_c, 9, 46, 127
5, 48730, Note_on_c, 9, 38, 127
5, 48730, Note_on_c, 9, 40, 127
5, 48750, Note_on_c, 9, 46, 0
5, 48760, Note_on_c, 9, 38, 0
5, 48760, Note_on_c, 9, 40, 0
5, 48850, Note_on_c, 9, 35, 127
5, 48880, Note_on_c, 9, 35, 0
5, 48960, Note_on_c, 9, 46, 127
5, 48960, Note_on_c, 9, 35, 127
5, 48970, Note_on_c, 9, 38, 127
5, 48970, Note_on_c, 9, 40, 127
5, 48990, Note_on_c, 9, 46, 0
5, 48990, Note_on_c, 9, 35, 0
5, 49000, Note_on_c, 9, 38, 0
5, 49000, Note_on_c, 9, 40, 0
5, 49200, Note_on_c, 9, 46, 127
5, 49210, Note_on_c, 9, 38, 127
5, 49210, Note_on_c, 9, 40, 127
5, 49230, Note_on_c, 9, 46, 0
5, 49240, Note_on_c, 9, 38, 0
5, 49240, Note_on_c, 9, 40, 0
5, 49440, Note_on_c, 9, 46, 127
5, 49450, Note_on_c, 9, 38, 127
5, 49450, Note_on_c, 9, 40, 127
5, 49470, Note_on_c, 9, 46, 0
5, 49480, Note_on_c, 9, 38, 0
5, 49480, Note_on_c, 9, 40, 0
5, 49570, Note_on_c, 9, 35, 127
5, 49600, Note_on_c, 9, 35, 0
5, 49680, Note_on_c, 9, 46, 127
5, 49690, Note_on_c, 9, 38, 127
5, 49690, Note_on_c, 9, 40, 127
5, 49710, Note_on_c, 9, 46, 0
5, 49720, Note_on_c, 9, 38, 0
5, 49720, Note_on_c, 9, 40, 0
5, 49810, Note_on_c, 9, 35, 127
5, 49840, Note_on_c, 9, 35, 0
5, 49866, Note_on_c, 9, 40, 127
5, 49866, Note_on_c, 9, 38, 127
5, 49896, Note_on_c, 9, 40, 0
5, 49896, Note_on_c, 9, 38, 0
5, 49920, Note_on_c, 9, 49, 127
5, 49920, Note_on_c, 9, 35, 127
5, 49950, Note_on_c, 9, 49, 0
5, 49950, Note_on_c, 9, 35, 0
5, 50160, Note_on_c, 9, 44, 127
5, 50160, Note_on_c, 9, 40, 127
5, 50160, Note_on_c, 9, 38, 127
5, 50190, Note_on_c, 9, 44, 0
5, 50190, Note_on_c, 9, 40, 0
5, 50190, Note_on_c, 9, 38, 0
5, 50340, Note_on_c, 9, 35, 127
5, 50346, Note_on_c, 9, 38, 127
5, 50370, Note_on_c, 9, 35, 0
5, 50376, Note_on_c, 9, 38, 0
5, 50400, Note_on_c, 9, 44, 127
5, 50400, Note_on_c, 9, 38, 127
5, 50400, Note_on_c, 9, 35, 127
5, 50430, Note_on_c, 9, 44, 0
5, 50430, Note_on_c, 9, 38, 0
5, 50430, Note_on_c, 9, 35, 0
5, 50466, Note_on_c, 9, 38, 127
5, 50496, Note_on_c, 9, 38, 0
5, 50520, Note_on_c, 9, 38, 127
5, 50520, Note_on_c, 9, 35, 127
5, 50550, Note_on_c, 9, 38, 0
5, 50550, Note_on_c, 9, 35, 0
5, 50640, Note_on_c, 9, 44, 127
5, 50640, Note_on_c, 9, 38, 127
5, 50640, Note_on_c, 9, 40, 127
5, 50670, Note_on_c, 9, 44, 0
5, 50670, Note_on_c, 9, 38, 0
5, 50670, Note_on_c, 9, 40, 0
5, 50760, Note_on_c, 9, 38, 127
5, 50760, Note_on_c, 9, 35, 127
5, 50790, Note_on_c, 9, 38, 0
5, 50790, Note_on_c, 9, 35, 0
5, 50880, Note_on_c, 9, 44, 127
5, 50880, Note_on_c, 9, 35, 127
5, 50910, Note_on_c, 9, 44, 0
5, 50910, Note_on_c, 9, 35, 0
5, 51120, Note_on_c, 9, 44, 127
5, 51120, Note_on_c, 9, 40, 127
5, 51120, Note_on_c, 9, 38, 127
5, 51150, Note_on_c, 9, 44, 0
5, 51150, Note_on_c, 9, 40, 0
5, 51150, Note_on_c, 9, 38, 0
5, 51306, Note_on_c, 9, 38, 127
5, 51336, Note_on_c, 9, 38, 0
5, 51360, Note_on_c, 9, 44, 127
5, 51360, Note_on_c, 9, 40, 127
5, 51360, Note_on_c, 9, 38, 127
5, 51360, Note_on_c, 9, 35, 127
5, 51390, Note_on_c, 9, 44, 0
5, 51390, Note_on_c, 9, 40, 0
5, 51390, Note_on_c, 9, 38, 0
5, 51390, Note_on_c, 9, 35, 0
5, 51426, Note_on_c, 9, 38, 127
5, 51426, Note_on_c, 9, 40, 127
5, 51456, Note_on_c, 9, 38, 0
5, 51456, Note_on_c, 9, 40, 0
5, 51546, Note_on_c, 9, 38, 127
5, 51576, Note_on_c, 9, 38, 0
5, 51600, Note_on_c, 9, 44, 127
5, 51600, Note_on_c, 9, 38, 127
5, 51600, Note_on_c, 9, 40, 127
5, 51630, Note_on_c, 9, 44, 0
5, 51630, Note_on_c, 9, 38, 0
5, 51630, Note_on_c, 9, 40, 0
5, 51666, Note_on_c, 9, 38, 127
5, 51696, Note_on_c, 9, 38, 0
5, 51720, Note_on_c, 9, 38, 127
5, 51720, Note_on_c, 9, 40, 127
5, 51720, Note_on_c, 9, 35, 127
5, 51750, Note_on_c, 9, 38, 0
5, 51750, Note_on_c, 9, 40, 0
5, 51750, Note_on_c, 9, 35, 0
5, 51786, Note_on_c, 9, 40, 127
5, 51786, Note_on_c, 9, 38, 127
5, 51816, Note_on_c, 9, 40, 0
5, 51816, Note_on_c, 9, 38, 0
5, 51840, Note_on_c, 9, 57, 127
5, 51840, Note_on_c, 9, 44, 127
5, 51840, Note_on_c, 9, 35, 127
5, 51870, Note_on_c, 9, 57, 0
5, 51870, Note_on_c, 9, 44, 0
5, 51870, Note_on_c, 9, 35, 0
5, 52080, Note_on_c, 9, 44, 127
5, 52080, Note_on_c, 9, 40, 127
5, 52080, Note_on_c, 9, 38, 127
5, 52110, Note_on_c, 9, 44, 0
5, 52110, Note_on_c, 9, 40, 0
5, 52110, Note_on_c, 9, 38, 0
5, 52260, Note_on_c, 9, 35, 127
5, 52266, Note_on_c, 9, 38, 127
5, 52290, Note_on_c, 9, 35, 0
5, 52296, Note_on_c, 9, 38, 0
5, 52320, Note_on_c, 9, 44, 127
5, 52320, Note_on_c, 9, 38, 127
5, 52320, Note_on_c, 9, 35, 127
5, 52350, Note_on_c, 9, 44, 0
5, 52350, Note_on_c, 9, 38, 0
5, 52350, Note_on_c, 9, 35, 0
5, 52386, Note_on_c, 9, 38, 127
5, 52416, Note_on_c, 9, 38, 0
5, 52440, Note_on_c, 9, 38, 127
5, 52440, Note_on_c, 9, 35, 127
5, 52470, Note_on_c, 9, 38, 0
5, 52470, Note_on_c, 9, 35, 0
5, 52560, Note_on_c, 9, 44, 127
5, 52560, Note_on_c, 9, 38, 127
5, 52560, Note_on_c, 9, 40, 127
5, 52590, Note_on_c, 9, 44, 0
5, 52590, Note_on_c, 9, 38, 0
5, 52590, Note_on_c, 9, 40, 0
5, 52620, Note_on_c, 9, 35, 127
5, 52650, Note_on_c, 9, 35, 0
5, 52680, Note_on_c, 9, 38, 127
5, 52680, Note_on_c, 9, 35, 127
5, 52710, Note_on_c, 9, 38, 0
5, 52710, Note_on_c, 9, 35, 0
5, 52800, Note_on_c, 9, 44, 127
5, 52800, Note_on_c, 9, 35, 127
5, 52830, Note_on_c, 9, 44, 0
5, 52830, Note_on_c, 9, 35, 0
5, 53040, Note_on_c, 9, 44, 127
5, 53040, Note_on_c, 9, 40, 127
5, 53040, Note_on_c, 9, 38, 127
5, 53070, Note_on_c, 9, 44, 0
5, 53070, Note_on_c, 9, 40, 0
5, 53070, Note_on_c, 9, 38, 0
5, 53226, Note_on_c, 9, 38, 127
5, 53256, Note_on_c, 9, 38, 0
5, 53280, Note_on_c, 9, 44, 127
5, 53280, Note_on_c, 9, 40, 127
5, 53280, Note_on_c, 9, 38, 127
5, 53280, Note_on_c, 9, 35, 127
5, 53310, Note_on_c, 9, 44, 0
5, 53310, Note_on_c, 9, 40, 0
5, 53310, Note_on_c, 9, 38, 0
5, 53310, Note_on_c, 9, 35, 0
5, 53346, Note_on_c, 9, 38, 127
5, 53346, Note_on_c, 9, 40, 127
5, 53376, Note_on_c, 9, 38, 0
5, 53376, Note_on_c, 9, 40, 0
5, 53400, Note_on_c, 9, 47, 127
5, 53430, Note_on_c, 9, 47, 0
5, 53460, Note_on_c, 9, 47, 127
5, 53490, Note_on_c, 9, 47, 0
5, 53520, Note_on_c, 9, 45, 127
5, 53520, Note_on_c, 9, 44, 127
5, 53550, Note_on_c, 9, 45, 0
5, 53550, Note_on_c, 9, 44, 0
5, 53580, Note_on_c, 9, 45, 127
5, 53610, Note_on_c, 9, 45, 0
5, 53640, Note_on_c, 9, 43, 127
5, 53640, Note_on_c, 9, 35, 127
5, 53670, Note_on_c, 9, 43, 0
5, 53670, Note_on_c, 9, 35, 0
5, 53700, Note_on_c, 9, 43, 127
5, 53730, Note_on_c, 9, 43, 0
5, 53760, Note_on_c, 9, 49, 127
5, 53760, Note_on_c, 9, 44, 127
5, 53760, Note_on_c, 9, 49, 127
5, 53760, Note_on_c, 9, 35, 127
5, 53790, Note_on_c, 9, 49, 0
5, 53790, Note_on_c, 9, 44, 0
5, 53790, Note_on_c, 9, 49, 0
5, 53790, Note_on_c, 9, 35, 0
5, 54000, Note_on_c, 9, 44, 127
5, 54000, Note_on_c, 9, 40, 127
5, 54000, Note_on_c, 9, 38, 127
5, 54030, Note_on_c, 9, 44, 0
5, 54030, Note_on_c, 9, 40, 0
5, 54030, Note_on_c, 9, 38, 0
5, 54180, Note_on_c, 9, 35, 127
5, 54186, Note_on_c, 9, 38, 127
5, 54210, Note_on_c, 9, 35, 0
5, 54216, Note_on_c, 9, 38, 0
5, 54240, Note_on_c, 9, 44, 127
5, 54240, Note_on_c, 9, 38, 127
5, 54270, Note_on_c, 9, 44, 0
5, 54270, Note_on_c, 9, 38, 0
5, 54300, Note_on_c, 9, 35, 127
5, 54306, Note_on_c, 9, 38, 127
5, 54330, Note_on_c, 9, 35, 0
5, 54336, Note_on_c, 9, 38, 0
5, 54360, Note_on_c, 9, 38, 127
5, 54360, Note_on_c, 9, 35, 127
5, 54390, Note_on_c, 9, 38, 0
5, 54390, Note_on_c, 9, 35, 0
5, 54480, Note_on_c, 9, 44, 127
5, 54480, Note_on_c, 9, 38, 127
5, 54480, Note_on_c, 9, 40, 127
5, 54510, Note_on_c, 9, 44, 0
5, 54510, Note_on_c, 9, 38, 0
5, 54510, Note_on_c, 9, 40, 0
5, 54600, Note_on_c, 9, 38, 127
5, 54600, Note_on_c, 9, 35, 127
5, 54630, Note_on_c, 9, 38, 0
5, 54630, Note_on_c, 9, 35, 0
5, 54720, Note_on_c, 9, 44, 127
5, 54720, Note_on_c, 9, 35, 127
5, 54750, Note_on_c, 9, 44, 0
5, 54750, Note_on_c, 9, 35, 0
5, 54960, Note_on_c, 9, 44, 127
5, 54960, Note_on_c, 9, 40, 127
5, 54960, Note_on_c, 9, 38, 127
5, 54990, Note_on_c, 9, 44, 0
5, 54990, Note_on_c, 9, 40, 0
5, 54990, Note_on_c, 9, 38, 0
5, 55080, Note_on_c, 9, 35, 127
5, 55110, Note_on_c, 9, 35, 0
5, 55146, Note_on_c, 9, 38, 127
5, 55176, Note_on_c, 9, 38, 0
5, 55200, Note_on_c, 9, 44, 127
5, 55200, Note_on_c, 9, 40, 127
5, 55200, Note_on_c, 9, 38, 127
5, 55200, Note_on_c, 9, 35, 127
5, 55230, Note_on_c, 9, 44, 0
5, 55230, Note_on_c, 9, 40, 0
5, 55230, Note_on_c, 9, 38, 0
5, 55230, Note_on_c, 9, 35, 0
5, 55266, Note_on_c, 9, 38, 127
5, 55266, Note_on_c, 9, 40, 127
5, 55296, Note_on_c, 9, 38, 0
5, 55296, Note_on_c, 9, 40, 0
5, 55386, Note_on_c, 9, 38, 127
5, 55416, Note_on_c, 9, 38, 0
5, 55440, Note_on_c, 9, 44, 127
5, 55440, Note_on_c, 9, 38, 127
5, 55440, Note_on_c, 9, 40, 127
5, 55470, Note_on_c, 9, 44, 0
5, 55470, Note_on_c, 9, 38, 0
5, 55470, Note_on_c, 9, 40, 0
5, 55506, Note_on_c, 9, 38, 127
5, 55536, Note_on_c, 9, 38, 0
5, 55560, Note_on_c, 9, 38, 127
5, 55560, Note_on_c, 9, 40, 127
5, 55560, Note_on_c, 9, 35, 127
5, 55590, Note_on_c, 9, 38, 0
5, 55590, Note_on_c, 9, 40, 0
5, 55590, Note_on_c, 9, 35, 0
5, 55626, Note_on_c, 9, 40, 127
5, 55626, Note_on_c, 9, 38, 127
5, 55656, Note_on_c, 9, 40, 0
5, 55656, Note_on_c, 9, 38, 0
5, 55680, Note_on_c, 9, 57, 127
5, 55680, Note_on_c, 9, 44, 127
5, 55680, Note_on_c, 9, 35, 127
5, 55710, Note_on_c, 9, 57, 0
5, 55710, Note_on_c, 9, 44, 0
5, 55710, Note_on_c, 9, 35, 0
5, 55920, Note_on_c, 9, 44, 127
5, 55920, Note_on_c, 9, 40, 127
5, 55920, Note_on_c, 9, 38, 127
5, 55950, Note_on_c, 9, 44, 0
5, 55950, Note_on_c, 9, 40, 0
5, 55950, Note_on_c, 9, 38, 0
5, 56040, Note_on_c, 9, 35, 127
5, 56070, Note_on_c, 9, 35, 0
5, 56100, Note_on_c, 9, 35, 127
5, 56106, Note_on_c, 9, 38, 127
5, 56130, Note_on_c, 9, 35, 0
5, 56136, Note_on_c, 9, 38, 0
5, 56160, Note_on_c, 9, 44, 127
5, 56160, Note_on_c, 9, 38, 127
5, 56190, Note_on_c, 9, 44, 0
5, 56190, Note_on_c, 9, 38, 0
5, 56220, Note_on_c, 9, 35, 127
5, 56226, Note_on_c, 9, 38, 127
5, 56250, Note_on_c, 9, 35, 0
5, 56256, Note_on_c, 9, 38, 0
5, 56280, Note_on_c, 9, 38, 127
5, 56280, Note_on_c, 9, 35, 127
5, 56310, Note_on_c, 9, 38, 0
5, 56310, Note_on_c, 9, 35, 0
5, 56400, Note_on_c, 9, 44, 127
5, 56400, Note_on_c, 9, 38, 127
5, 56400, Note_on_c, 9, 40, 127
5, 56430, Note_on_c, 9, 44, 0
5, 56430, Note_on_c, 9, 38, 0
5, 56430, Note_on_c, 9, 40, 0
5, 56520, Note_on_c, 9, 38, 127
5, 56520, Note_on_c, 9, 35, 127
5, 56550, Note_on_c, 9, 38, 0
5, 56550, Note_on_c, 9, 35, 0
5, 56640, Note_on_c, 9, 44, 127
5, 56640, Note_on_c, 9, 35, 127
5, 56670, Note_on_c, 9, 44, 0
5, 56670, Note_on_c, 9, 35, 0
5, 56880, Note_on_c, 9, 44, 127
5, 56880, Note_on_c, 9, 40, 127
5, 56880, Note_on_c, 9, 38, 127
5, 56910, Note_on_c, 9, 44, 0
5, 56910, Note_on_c, 9, 40, 0
5, 56910, Note_on_c, 9, 38, 0
5, 57000, Note_on_c, 9, 35, 127
5, 57030, Note_on_c, 9, 35, 0
5, 57066, Note_on_c, 9, 38, 127
5, 57096, Note_on_c, 9, 38, 0
5, 57120, Note_on_c, 9, 44, 127
5, 57120, Note_on_c, 9, 40, 127
5, 57120, Note_on_c, 9, 38, 127
5, 57150, Note_on_c, 9, 44, 0
5, 57150, Note_on_c, 9, 40, 0
5, 57150, Note_on_c, 9, 38, 0
5, 57186, Note_on_c, 9, 38, 127
5, 57186, Note_on_c, 9, 40, 127
5, 57216, Note_on_c, 9, 38, 0
5, 57216, Note_on_c, 9, 40, 0
5, 57240, Note_on_c, 9, 47, 127
5, 57240, Note_on_c, 9, 35, 127
5, 57270, Note_on_c, 9, 47, 0
5, 57270, Note_on_c, 9, 35, 0
5, 57300, Note_on_c, 9, 47, 127
5, 57330, Note_on_c, 9, 47, 0
5, 57360, Note_on_c, 9, 45, 127
5, 57360, Note_on_c, 9, 44, 127
5, 57390, Note_on_c, 9, 45, 0
5, 57390, Note_on_c, 9, 44, 0
5, 57420, Note_on_c, 9, 45, 127
5, 57450, Note_on_c, 9, 45, 0
5, 57480, Note_on_c, 9, 43, 127
5, 57510, Note_on_c, 9, 43, 0
5, 57540, Note_on_c, 9, 43, 127
5, 57570, Note_on_c, 9, 43, 0
5, 57600, Note_on_c, 9, 44, 127
5, 57600, Note_on_c, 9, 57, 127
5, 57600, Note_on_c, 9, 44, 127
5, 57600, Note_on_c, 9, 49, 127
5, 57600, Note_on_c, 9, 35, 127
5, 57630, Note_on_c, 9, 44, 0
5, 57630, Note_on_c, 9, 57, 0
5, 57630, Note_on_c, 9, 44, 0
5, 57630, Note_on_c, 9, 49, 0
5, 57630, Note_on_c, 9, 35, 0
5, 57840, Note_on_c, 9, 44, 127
5, 57840, Note_on_c, 9, 40, 127
5, 57840, Note_on_c, 9, 38, 127
5, 57870, Note_on_c, 9, 44, 0
5, 57870, Note_on_c, 9, 40, 0
5, 57870, Note_on_c, 9, 38, 0
5, 58020, Note_on_c, 9, 35, 127
5, 58026, Note_on_c, 9, 38, 127
5, 58050, Note_on_c, 9, 35, 0
5, 58056, Note_on_c, 9, 38, 0
5, 58080, Note_on_c, 9, 44, 127
5, 58080, Note_on_c, 9, 38, 127
5, 58110, Note_on_c, 9, 44, 0
5, 58110, Note_on_c, 9, 38, 0
5, 58140, Note_on_c, 9, 35, 127
5, 58146, Note_on_c, 9, 38, 127
5, 58170, Note_on_c, 9, 35, 0
5, 58176, Note_on_c, 9, 38, 0
5, 58200, Note_on_c, 9, 38, 127
5, 58200, Note_on_c, 9, 35, 127
5, 58230, Note_on_c, 9, 38, 0
5, 58230, Note_on_c, 9, 35, 0
5, 58320, Note_on_c, 9, 44, 127
5, 58320, Note_on_c, 9, 38, 127
5, 58320, Note_on_c, 9, 40, 127
5, 58350, Note_on_c, 9, 44, 0
5, 58350, Note_on_c, 9, 38, 0
5, 58350, Note_on_c, 9, 40, 0
5, 58440, Note_on_c, 9, 38, 127
5, 58440, Note_on_c, 9, 35, 127
5, 58470, Note_on_c, 9, 38, 0
5, 58470, Note_on_c, 9, 35, 0
5, 58560, Note_on_c, 9, 44, 127
5, 58560, Note_on_c, 9, 35, 127
5, 58590, Note_on_c, 9, 44, 0
5, 58590, Note_on_c, 9, 35, 0
5, 58800, Note_on_c, 9, 44, 127
5, 58800, Note_on_c, 9, 40, 127
5, 58800, Note_on_c, 9, 38, 127
5, 58830, Note_on_c, 9, 44, 0
5, 58830, Note_on_c, 9, 40, 0
5, 58830, Note_on_c, 9, 38, 0
5, 58920, Note_on_c, 9, 35, 127
5, 58950, Note_on_c, 9, 35, 0
5, 58986, Note_on_c, 9, 38, 127
5, 59016, Note_on_c, 9, 38, 0
5, 59040, Note_on_c, 9, 44, 127
5, 59040, Note_on_c, 9, 40, 127
5, 59040, Note_on_c, 9, 38, 127
5, 59040, Note_on_c, 9, 35, 127
5, 59070, Note_on_c, 9, 44, 0
5, 59070, Note_on_c, 9, 40, 0
5, 59070, Note_on_c, 9, 38, 0
5, 59070, Note_on_c, 9, 35, 0
5, 59106, Note_on_c, 9, 38, 127
5, 59106, Note_on_c, 9, 40, 127
5, 59136, Note_on_c, 9, 38, 0
5, 59136, Note_on_c, 9, 40, 0
5, 59226, Note_on_c, 9, 38, 127
5, 59256, Note_on_c, 9, 38, 0
5, 59280, Note_on_c, 9, 44, 127
5, 59280, Note_on_c, 9, 38, 127
5, 59280, Note_on_c, 9, 40, 127
5, 59310, Note_on_c, 9, 44, 0
5, 59310, Note_on_c, 9, 38, 0
5, 59310, Note_on_c, 9, 40, 0
5, 59346, Note_on_c, 9, 38, 127
5, 59376, Note_on_c, 9, 38, 0
5, 59400, Note_on_c, 9, 38, 127
5, 59400, Note_on_c, 9, 40, 127
5, 59400, Note_on_c, 9, 35, 127
5, 59430, Note_on_c, 9, 38, 0
5, 59430, Note_on_c, 9, 40, 0
5, 59430, Note_on_c, 9, 35, 0
5, 59466, Note_on_c, 9, 40, 127
5, 59466, Note_on_c, 9, 38, 127
5, 59496, Note_on_c, 9, 40, 0
5, 59496, Note_on_c, 9, 38, 0
5, 59520, Note_on_c, 9, 49, 127
5, 59520, Note_on_c, 9, 35, 127
5, 59550, Note_on_c, 9, 49, 0
5, 59550, Note_on_c, 9, 35, 0
5, 59760, Note_on_c, 9, 44, 127
5, 59790, Note_on_c, 9, 44, 0
5, 60000, Note_on_c, 9, 44, 127
5, 60030, Note_on_c, 9, 44, 0
5, 60240, Note_on_c, 9, 44, 127
5, 60270, Note_on_c, 9, 44, 0
5, 60480, Note_on_c, 9, 44, 127
5, 60510, Note_on_c, 9, 44, 0
5, 60720, Note_on_c, 9, 44, 127
5, 60720, Note_on_c, 9, 40, 127
5, 60720, Note_on_c, 9, 38, 127
5, 60750, Note_on_c, 9, 44, 0
5, 60750, Note_on_c, 9, 40, 0
5, 60750, Note_on_c, 9, 38, 0
5, 60780, Note_on_c, 9, 38, 127
5, 60780, Note_on_c, 9, 40, 127
5, 60810, Note_on_c, 9, 38, 0
5, 60810, Note_on_c, 9, 40, 0
5, 60840, Note_on_c, 9, 38, 127
5, 60840, Note_on_c, 9, 40, 127
5, 60870, Note_on_c, 9, 38, 0
5, 60870, Note_on_c, 9, 40, 0
5, 60900, Note_on_c, 9, 38, 127
5, 60900, Note_on_c, 9, 40, 127
5, 60930, Note_on_c, 9, 38, 0
5, 60930, Note_on_c, 9, 40, 0
5, 60960, Note_on_c, 9, 49, 127
5, 60960, Note_on_c, 9, 35, 127
5, 60990, Note_on_c, 9, 49, 0
5, 60990, Note_on_c, 9, 35, 0
5, 61080, Note_on_c, 9, 57, 127
5, 61080, Note_on_c, 9, 35, 127
5, 61110, Note_on_c, 9, 57, 0
5, 61110, Note_on_c, 9, 35, 0
5, 61200, Note_on_c, 9, 49, 127
5, 61200, Note_on_c, 9, 35, 127
5, 61230, Note_on_c, 9, 49, 0
5, 61230, Note_on_c, 9, 35, 0
5, 61440, Note_on_c, 9, 49, 127
5, 61440, Note_on_c, 9, 35, 127
5, 61470, Note_on_c, 9, 49, 0
5, 61470, Note_on_c, 9, 35, 0
5, 61560, Note_on_c, 9, 57, 127
5, 61560, Note_on_c, 9, 35, 127
5, 61590, Note_on_c, 9, 57, 0
5, 61590, Note_on_c, 9, 35, 0
5, 61680, Note_on_c, 9, 49, 127
5, 61680, Note_on_c, 9, 35, 127
5, 61710, Note_on_c, 9, 49, 0
5, 61710, Note_on_c, 9, 35, 0
5, 61866, Note_on_c, 9, 40, 127
5, 61866, Note_on_c, 9, 38, 127
5, 61896, Note_on_c, 9, 40, 0
5, 61896, Note_on_c, 9, 38, 0
5, 61920, Note_on_c, 9, 38, 127
5, 61920, Note_on_c, 9, 40, 127
5, 61920, Note_on_c, 9, 35, 127
5, 61950, Note_on_c, 9, 38, 0
5, 61950, Note_on_c, 9, 40, 0
5, 61950, Note_on_c, 9, 35, 0
5, 61986, Note_on_c, 9, 48, 127
5, 62016, Note_on_c, 9, 48, 0
5, 62040, Note_on_c, 9, 48, 127
5, 62070, Note_on_c, 9, 48, 0
5, 62100, Note_on_c, 9, 47, 127
5, 62130, Note_on_c, 9, 47, 0
5, 62160, Note_on_c, 9, 47, 127
5, 62190, Note_on_c, 9, 47, 0
5, 62220, Note_on_c, 9, 45, 127
5, 62250, Note_on_c, 9, 45, 0
5, 62280, Note_on_c, 9, 45, 127
5, 62310, Note_on_c, 9, 45, 0
5, 62340, Note_on_c, 9, 35, 127
5, 62370, Note_on_c, 9, 35, 0
5, 62400, Note_on_c, 9, 46, 127
5, 62410, Note_on_c, 9, 38, 127
5, 62410, Note_on_c, 9, 40, 127
5, 62430, Note_on_c, 9, 46, 0
5, 62440, Note_on_c, 9, 38, 0
5, 62440, Note_on_c, 9, 40, 0
5, 62640, Note_on_c, 9, 46, 127
5, 62650, Note_on_c, 9, 38, 127
5, 62650, Note_on_c, 9, 40, 127
5, 62670, Note_on_c, 9, 46, 0
5, 62680, Note_on_c, 9, 38, 0
5, 62680, Note_on_c, 9, 40, 0
5, 62880, Note_on_c, 9, 46, 127
5, 62890, Note_on_c, 9, 38, 127
5, 62890, Note_on_c, 9, 40, 127
5, 62910, Note_on_c, 9, 46, 0
5, 62920, Note_on_c, 9, 38, 0
5, 62920, Note_on_c, 9, 40, 0
5, 63010, Note_on_c, 9, 35, 127
5, 63040, Note_on_c, 9, 35, 0
5, 63120, Note_on_c, 9, 46, 127
5, 63130, Note_on_c, 9, 38, 127
5, 63130, Note_on_c, 9, 40, 127
5, 63150, Note_on_c, 9, 46, 0
5, 63160, Note_on_c, 9, 38, 0
5, 63160, Note_on_c, 9, 40, 0
5, 63250, Note_on_c, 9, 35, 127
5, 63280, Note_on_c, 9, 35, 0
5, 63360, Note_on_c, 9, 46, 127
5, 63360, Note_on_c, 9, 35, 127
5, 63370, Note_on_c, 9, 38, 127
5, 63370, Note_on_c, 9, 40, 127
5, 63390, Note_on_c, 9, 46, 0
5, 63390, Note_on_c, 9, 35, 0
5, 63400, Note_on_c, 9, 38, 0
5, 63400, Note_on_c, 9, 40, 0
5, 63600, Note_on_c, 9, 46, 127
5, 63610, Note_on_c, 9, 38, 127
5, 63610, Note_on_c, 9, 40, 127
5, 63630, Note_on_c, 9, 46, 0
5, 63640, Note_on_c, 9, 38, 0
5, 63640, Note_on_c, 9, 40, 0
5, 63840, Note_on_c, 9, 46, 127
5, 63850, Note_on_c, 9, 38, 127
5, 63850, Note_on_c, 9, 40, 127
5, 63870, Note_on_c, 9, 46, 0
5, 63880, Note_on_c, 9, 38, 0
5, 63880, Note_on_c, 9, 40, 0
5, 63970, Note_on_c, 9, 35, 127
5, 64000, Note_on_c, 9, 35, 0
5, 64080, Note_on_c, 9, 46, 127
5, 64090, Note_on_c, 9, 38, 127
5, 64090, Note_on_c, 9, 40, 127
5, 64110, Note_on_c, 9, 46, 0
5, 64120, Note_on_c, 9, 38, 0
5, 64120, Note_on_c, 9, 40, 0
5, 64210, Note_on_c, 9, 35, 127
5, 64240, Note_on_c, 9, 35, 0
5, 64320, Note_on_c, 9, 46, 127
5, 64320, Note_on_c, 9, 35, 127
5, 64330, Note_on_c, 9, 38, 127
5, 64330, Note_on_c, 9, 40, 127
5, 64350, Note_on_c, 9, 46, 0
5, 64350, Note_on_c, 9, 35, 0
5, 64360, Note_on_c, 9, 38, 0
5, 64360, Note_on_c, 9, 40, 0
5, 64560, Note_on_c, 9, 46, 127
5, 64570, Note_on_c, 9, 38, 127
5, 64570, Note_on_c, 9, 40, 127
5, 64590, Note_on_c, 9, 46, 0
5, 64600, Note_on_c, 9, 38, 0
5, 64600, Note_on_c, 9, 40, 0
5, 64800, Note_on_c, 9, 46, 127
5, 64810, Note_on_c, 9, 38, 127
5, 64810, Note_on_c, 9, 40, 127
5, 64830, Note_on_c, 9, 46, 0
5, 64840, Note_on_c, 9, 38, 0
5, 64840, Note_on_c, 9, 40, 0
5, 64930, Note_on_c, 9, 35, 127
5, 64960, Note_on_c, 9, 35, 0
5, 65040, Note_on_c, 9, 46, 127
5, 65050, Note_on_c, 9, 38, 127
5, 65050, Note_on_c, 9, 40, 127
5, 65070, Note_on_c, 9, 46, 0
5, 65080, Note_on_c, 9, 38, 0
5, 65080, Note_on_c, 9, 40, 0
5, 65170, Note_on_c, 9, 35, 127
5, 65200, Note_on_c, 9, 35, 0
5, 65280, Note_on_c, 9, 46, 127
5, 65280, Note_on_c, 9, 35, 127
5, 65290, Note_on_c, 9, 38, 127
5, 65290, Note_on_c, 9, 40, 127
5, 65310, Note_on_c, 9, 46, 0
5, 65310, Note_on_c, 9, 35, 0
5, 65320, Note_on_c, 9, 38, 0
5, 65320, Note_on_c, 9, 40, 0
5, 65520, Note_on_c, 9, 46, 127
5, 65530, Note_on_c, 9, 38, 127
5, 65530, Note_on_c, 9, 40, 127
5, 65550, Note_on_c, 9, 46, 0
5, 65560, Note_on_c, 9, 38, 0
5, 65560, Note_on_c, 9, 40, 0
5, 65760, Note_on_c, 9, 46, 127
5, 65770, Note_on_c, 9, 38, 127
5, 65770, Note_on_c, 9, 40, 127
5, 65790, Note_on_c, 9, 46, 0
5, 65800, Note_on_c, 9, 38, 0
5, 65800, Note_on_c, 9, 40, 0
5, 65890, Note_on_c, 9, 35, 127
5, 65920, Note_on_c, 9, 35, 0
5, 66000, Note_on_c, 9, 46, 127
5, 66010, Note_on_c, 9, 38, 127
5, 66010, Note_on_c, 9, 40, 127
5, 66030, Note_on_c, 9, 46, 0
5, 66040, Note_on_c, 9, 38, 0
5, 66040, Note_on_c, 9, 40, 0
5, 66130, Note_on_c, 9, 35, 127
5, 66160, Note_on_c, 9, 35, 0
5, 66240, Note_on_c, 9, 46, 127
5, 66240, Note_on_c, 9, 35, 127
5, 66250, Note_on_c, 9, 38, 127
5, 66250, Note_on_c, 9, 40, 127
5, 66270, Note_on_c, 9, 46, 0
5, 66270, Note_on_c, 9, 35, 0
5, 66280, Note_on_c, 9, 38, 0
5, 66280, Note_on_c, 9, 40, 0
5, 66480, Note_on_c, 9, 46, 127
5, 66490, Note_on_c, 9, 38, 127
5, 66490, Note_on_c, 9, 40, 127
5, 66510, Note_on_c, 9, 46, 0
5, 66520, Note_on_c, 9, 38, 0
5, 66520, Note_on_c, 9, 40, 0
5, 66720, Note_on_c, 9, 46, 127
5, 66730, Note_on_c, 9, 38, 127
5, 66730, Note_on_c, 9, 40, 127
5, 66750, Note_on_c, 9, 46, 0
5, 66760, Note_on_c, 9, 38, 0
5, 66760, Note_on_c, 9, 40, 0
5, 66850, Note_on_c, 9, 35, 127
5, 66880, Note_on_c, 9, 35, 0
5, 66960, Note_on_c, 9, 46, 127
5, 66970, Note_on_c, 9, 38, 127
5, 66970, Note_on_c, 9, 40, 127
5, 66990, Note_on_c, 9, 46, 0
5, 67000, Note_on_c, 9, 38, 0
5, 67000, Note_on_c, 9, 40, 0
5, 67090, Note_on_c, 9, 35, 127
5, 67120, Note_on_c, 9, 35, 0
5, 67200, Note_on_c, 9, 46, 127
5, 67200, Note_on_c, 9, 35, 127
5, 67210, Note_on_c, 9, 38, 127
5, 67210, Note_on_c, 9, 40, 127
5, 67230, Note_on_c, 9, 46, 0
5, 67230, Note_on_c, 9, 35, 0
5, 67240, Note_on_c, 9, 38, 0
5, 67240, Note_on_c, 9, 40, 0
5, 67440, Note_on_c, 9, 46, 127
5, 67450, Note_on_c, 9, 38, 127
5, 67450, Note_on_c, 9, 40, 127
5, 67470, Note_on_c, 9, 46, 0
5, 67480, Note_on_c, 9, 38, 0
5, 67480, Note_on_c, 9, 40, 0
5, 67680, Note_on_c, 9, 46, 127
5, 67690, Note_on_c, 9, 38, 127
5, 67690, Note_on_c, 9, 40, 127
5, 67710, Note_on_c, 9, 46, 0
5, 67720, Note_on_c, 9, 38, 0
5, 67720, Note_on_c, 9, 40, 0
5, 67810, Note_on_c, 9, 35, 127
5, 67840, Note_on_c, 9, 35, 0
5, 67920, Note_on_c, 9, 46, 127
5, 67930, Note_on_c, 9, 38, 127
5, 67930, Note_on_c, 9, 40, 127
5, 67950, Note_on_c, 9, 46, 0
5, 67960, Note_on_c, 9, 38, 0
5, 67960, Note_on_c, 9, 40, 0
5, 68050, Note_on_c, 9, 35, 127
5, 68080, Note_on_c, 9, 35, 0
5, 68160, Note_on_c, 9, 46, 127
5, 68170, Note_on_c, 9, 38, 127
5, 68170, Note_on_c, 9, 40, 127
5, 68190, Note_on_c, 9, 46, 0
5, 68200, Note_on_c, 9, 38, 0
5, 68200, Note_on_c, 9, 40, 0
5, 68400, Note_on_c, 9, 46, 127
5, 68410, Note_on_c, 9, 38, 127
5, 68410, Note_on_c, 9, 40, 127
5, 68430, Note_on_c, 9, 46, 0
5, 68440, Note_on_c, 9, 38, 0
5, 68440, Note_on_c, 9, 40, 0
5, 68640, Note_on_c, 9, 46, 127
5, 68650, Note_on_c, 9, 38, 127
5, 68650, Note_on_c, 9, 40, 127
5, 68670, Note_on_c, 9, 46, 0
5, 68680, Note_on_c, 9, 38, 0
5, 68680, Note_on_c, 9, 40, 0
5, 68770, Note_on_c, 9, 35, 127
5, 68800, Note_on_c, 9, 35, 0
5, 68880, Note_on_c, 9, 46, 127
5, 68890, Note_on_c, 9, 38, 127
5, 68890, Note_on_c, 9, 40, 127
5, 68910, Note_on_c, 9, 46, 0
5, 68920, Note_on_c, 9, 38, 0
5, 68920, Note_on_c, 9, 40, 0
5, 69010, Note_on_c, 9, 35, 127
5, 69040, Note_on_c, 9, 35, 0
5, 69120, Note_on_c, 9, 46, 127
5, 69120, Note_on_c, 9, 35, 127
5, 69130, Note_on_c, 9, 38, 127
5, 69130, Note_on_c, 9, 40, 127
5, 69150, Note_on_c, 9, 46, 0
5, 69150, Note_on_c, 9, 35, 0
5, 69160, Note_on_c, 9, 38, 0
5, 69160, Note_on_c, 9, 40, 0
5, 69360, Note_on_c, 9, 46, 127
5, 69370, Note_on_c, 9, 38, 127
5, 69370, Note_on_c, 9, 40, 127
5, 69390, Note_on_c, 9, 46, 0
5, 69400, Note_on_c, 9, 38, 0
5, 69400, Note_on_c, 9, 40, 0
5, 69600, Note_on_c, 9, 46, 127
5, 69610, Note_on_c, 9, 38, 127
5, 69610, Note_on_c, 9, 40, 127
5, 69630, Note_on_c, 9, 46, 0
5, 69640, Note_on_c, 9, 38, 0
5, 69640, Note_on_c, 9, 40, 0
5, 69730, Note_on_c, 9, 35, 127
5, 69760, Note_on_c, 9, 35, 0
5, 69840, Note_on_c, 9, 46, 127
5, 69850, Note_on_c, 9, 38, 127
5, 69850, Note_on_c, 9, 40, 127
5, 69870, Note_on_c, 9, 46, 0
5, 69880, Note_on_c, 9, 38, 0
5, 69880, Note_on_c, 9, 40, 0
5, 69970, Note_on_c, 9, 35, 127
5, 70000, Note_on_c, 9, 35, 0
5, 70026, Note_on_c, 9, 40, 127
5, 70026, Note_on_c, 9, 38, 127
5, 70056, Note_on_c, 9, 40, 0
5, 70056, Note_on_c, 9, 38, 0
5, 70080, Note_on_c, 9, 49, 127
5, 70080, Note_on_c, 9, 35, 127
5, 70110, Note_on_c, 9, 49, 0
5, 70110, Note_on_c, 9, 35, 0
5, 70320, Note_on_c, 9, 44, 127
5, 70320, Note_on_c, 9, 40, 127
5, 70320, Note_on_c, 9, 38, 127
5, 70350, Note_on_c, 9, 44, 0
5, 70350, Note_on_c, 9, 40, 0
5, 70350, Note_on_c, 9, 38, 0
5, 70500, Note_on_c, 9, 35, 127
5, 70506, Note_on_c, 9, 38, 127
5, 70530, Note_on_c, 9, 35, 0
5, 70536, Note_on_c, 9, 38, 0
5, 70560, Note_on_c, 9, 44, 127
5, 70560, Note_on_c, 9, 38, 127
5, 70560, Note_on_c, 9, 35, 127
5, 70590, Note_on_c, 9, 44, 0
5, 70590, Note_on_c, 9, 38, 0
5, 70590, Note_on_c, 9, 35, 0
5, 70626, Note_on_c, 9, 38, 127
5, 70656, Note_on_c, 9, 38, 0
5, 70680, Note_on_c, 9, 38, 127
5, 70680, Note_on_c, 9, 35, 127
5, 70710, Note_on_c, 9, 38, 0
5, 70710, Note_on_c, 9, 35, 0
5, 70800, Note_on_c, 9, 44, 127
5, 70800, Note_on_c, 9, 38, 127
5, 70800, Note_on_c, 9, 40, 127
5, 70830, Note_on_c, 9, 44, 0
5, 70830, Note_on_c, 9, 38, 0
5, 70830, Note_on_c, 9, 40, 0
5, 70920, Note_on_c, 9, 38, 127
5, 70920, Note_on_c, 9, 35, 127
5, 70950, Note_on_c, 9, 38, 0
5, 70950, Note_on_c, 9, 35, 0
5, 71040, Note_on_c, 9, 44, 127
5, 71040, Note_on_c, 9, 35, 127
5, 71070, Note_on_c, 9, 44, 0
5, 71070, Note_on_c, 9, 35, 0
5, 71280, Note_on_c, 9, 44, 127
5, 71280, Note_on_c, 9, 40, 127
5, 71280, Note_on_c, 9, 38, 127
5, 71310, Note_on_c, 9, 44, 0
5, 71310, Note_on_c, 9, 40, 0
5, 71310, Note_on_c, 9, 38, 0
5, 71466, Note_on_c, 9, 38, 127
5, 71496, Note_on_c, 9, 38, 0
5, 71520, Note_on_c, 9, 44, 127
5, 71520, Note_on_c, 9, 40, 127
5, 71520, Note_on_c, 9, 38, 127
5, 71520, Note_on_c, 9, 35, 127
5, 71550, Note_on_c, 9, 44, 0
5, 71550, Note_on_c, 9, 40, 0
5, 71550, Note_on_c, 9, 38, 0
5, 71550, Note_on_c, 9, 35, 0
5, 71586, Note_on_c, 9, 38, 127
5, 71586, Note_on_c, 9, 40, 127
5, 71616, Note_on_c, 9, 38, 0
5, 71616, Note_on_c, 9, 40, 0
5, 71706, Note_on_c, 9, 38, 127
5, 71736, Note_on_c, 9, 38, 0
5, 71760, Note_on_c, 9, 44, 127
5, 71760, Note_on_c, 9, 38, 127
5, 71760, Note_on_c, 9, 40, 127
5, 71790, Note_on_c, 9, 44, 0
5, 71790, Note_on_c, 9, 38, 0
5, 71790, Note_on_c, 9, 40, 0
5, 71826, Note_on_c, 9, 38, 127
5, 71856, Note_on_c, 9, 38, 0
5, 71880, Note_on_c, 9, 38, 127
5, 71880, Note_on_c, 9, 40, 127
5, 71880, Note_on_c, 9, 35, 127
5, 71910, Note_on_c, 9, 38, 0
5, 71910, Note_on_c, 9, 40, 0
5, 71910, Note_on_c, 9, 35, 0
5, 71946, Note_on_c, 9, 40, 127
5, 71946, Note_on_c, 9, 38, 127
5, 71976, Note_on_c, 9, 40, 0
5, 71976, Note_on_c, 9, 38, 0
5, 72000, Note_on_c, 9, 57, 127
5, 72000, Note_on_c, 9, 44, 127
5, 72000, Note_on_c, 9, 35, 127
5, 72030, Note_on_c, 9, 57, 0
5, 72030, Note_on_c, 9, 44, 0
5, 72030, Note_on_c, 9, 35, 0
5, 72240, Note_on_c, 9, 44, 127
5, 72240, Note_on_c, 9, 40, 127
5, 72240, Note_on_c, 9, 38, 127
5, 72270, Note_on_c, 9, 44, 0
5, 72270, Note_on_c, 9, 40, 0
5, 72270, Note_on_c, 9, 38, 0
5, 72420, Note_on_c, 9, 35, 127
5, 72426, Note_on_c, 9, 38, 127
5, 72450, Note_on_c, 9, 35, 0
5, 72456, Note_on_c, 9, 38, 0
5, 72480, Note_on_c, 9, 44, 127
5, 72480, Note_on_c, 9, 38, 127
5, 72480, Note_on_c, 9, 35, 127
5, 72510, Note_on_c, 9, 44, 0
5, 72510, Note_on_c, 9, 38, 0
5, 72510, Note_on_c, 9, 35, 0
5, 72546, Note_on_c, 9, 38, 127
5, 72576, Note_on_c, 9, 38, 0
5, 72600, Note_on_c, 9, 38, 127
5, 72600, Note_on_c, 9, 35, 127
5, 72630, Note_on_c, 9, 38, 0
5, 72630, Note_on_c, 9, 35, 0
5, 72720, Note_on_c, 9, 44, 127
5, 72720, Note_on_c, 9, 38, 127
5, 72720, Note_on_c, 9, 40, 127
5, 72750, Note_on_c, 9, 44, 0
5, 72750, Note_on_c, 9, 38, 0
5, 72750, Note_on_c, 9, 40, 0
5, 72780, Note_on_c, 9, 35, 127
5, 72810, Note_on_c, 9, 35, 0
5, 72840, Note_on_c, 9, 38, 127
5, 72840, Note_on_c, 9, 35, 127
5, 72870, Note_on_c, 9, 38, 0
5, 72870, Note_on_c, 9, 35, 0
5, 72960, Note_on_c, 9, 44, 127
5, 72960, Note_on_c, 9, 35, 127
5, 72990, Note_on_c, 9, 44, 0
5, 72990, Note_on_c, 9, 35, 0
5, 73200, Note_on_c, 9, 44, 127
5, 73200, Note_on_c, 9, 40, 127
5, 73200, Note_on_c, 9, 38, 127
5, 73230, Note_on_c, 9, 44, 0
5, 73230, Note_on_c, 9, 40, 0
5, 73230, Note_on_c, 9, 38, 0
5, 73386, Note_on_c, 9, 38, 127
5, 73416, Note_on_c, 9, 38, 0
5, 73440, Note_on_c, 9, 44, 127
5, 73440, Note_on_c, 9, 40, 127
5, 73440, Note_on_c, 9, 38, 127
5, 73440, Note_on_c, 9, 35, 127
5, 73470, Note_on_c, 9, 44, 0
5, 73470, Note_on_c, 9, 40, 0
5, 73470, Note_on_c, 9, 38, 0
5, 73470, Note_on_c, 9, 35, 0
5, 73506, Note_on_c, 9, 38, 127
5, 73506, Note_on_c, 9, 40, 127
5, 73536, Note_on_c, 9, 38, 0
5, 73536, Note_on_c, 9, 40, 0
5, 73560, Note_on_c, 9, 47, 127
5, 73590, Note_on_c, 9, 47, 0
5, 73620, Note_on_c, 9, 47, 127
5, 73650, Note_on_c, 9, 47, 0
5, 73680, Note_on_c, 9, 45, 127
5, 73680, Note_on_c, 9, 44, 127
5, 73710, Note_on_c, 9, 45, 0
5, 73710, Note_on_c, 9, 44, 0
5, 73740, Note_on_c, 9, 45, 127
5, 73770, Note_on_c, 9, 45, 0
5, 73800, Note_on_c, 9, 43, 127
5, 73800, Note_on_c, 9, 35, 127
5, 73830, Note_on_c, 9, 43, 0
5, 73830, Note_on_c, 9, 35, 0
5, 73860, Note_on_c, 9, 43, 127
5, 73890, Note_on_c, 9, 43, 0
5, 73920, Note_on_c, 9, 49, 127
5, 73920, Note_on_c, 9, 44, 127
5, 73920, Note_on_c, 9, 49, 127
5, 73920, Note_on_c, 9, 35, 127
5, 73950, Note_on_c, 9, 49, 0
5, 73950, Note_on_c, 9, 44, 0
5, 73950, Note_on_c, 9, 49, 0
5, 73950, Note_on_c, 9, 35, 0
5, 74160, Note_on_c, 9, 44, 127
5, 74160, Note_on_c, 9, 40, 127
5, 74160, Note_on_c, 9, 38, 127
5, 74190, Note_on_c, 9, 44, 0
5, 74190, Note_on_c, 9, 40, 0
5, 74190, Note_on_c, 9, 38, 0
5, 74340, Note_on_c, 9, 35, 127
5, 74346, Note_on_c, 9, 38, 127
5, 74370, Note_on_c, 9, 35, 0
5, 74376, Note_on_c, 9, 38, 0
5, 74400, Note_on_c, 9, 44, 127
5, 74400, Note_on_c, 9, 38, 127
5, 74430, Note_on_c, 9, 44, 0
5, 74430, Note_on_c, 9, 38, 0
5, 74460, Note_on_c, 9, 35, 127
5, 74466, Note_on_c, 9, 38, 127
5, 74490, Note_on_c, 9, 35, 0
5, 74496, Note_on_c, 9, 38, 0
5, 74520, Note_on_c, 9, 38, 127
5, 74520, Note_on_c, 9, 35, 127
5, 74550, Note_on_c, 9, 38, 0
5, 74550, Note_on_c, 9, 35, 0
5, 74640, Note_on_c, 9, 44, 127
5, 74640, Note_on_c, 9, 38, 127
5, 74640, Note_on_c, 9, 40, 127
5, 74670, Note_on_c, 9, 44, 0
5, 74670, Note_on_c, 9, 38, 0
5, 74670, Note_on_c, 9, 40, 0
5, 74760, Note_on_c, 9, 38, 127
5, 74760, Note_on_c, 9, 35, 127
5, 74790, Note_on_c, 9, 38, 0
5, 74790, Note_on_c, 9, 35, 0
5, 74880, Note_on_c, 9, 44, 127
5, 74880, Note_on_c, 9, 35, 127
5, 74910, Note_on_c, 9, 44, 0
5, 74910, Note_on_c, 9, 35, 0
5, 75120, Note_on_c, 9, 44, 127
5, 75120, Note_on_c, 9, 40, 127
5, 75120, Note_on_c, 9, 38, 127
5, 75150, Note_on_c, 9, 44, 0
5, 75150, Note_on_c, 9, 40, 0
5, 75150, Note_on_c, 9, 38, 0
5, 75240, Note_on_c, 9, 35, 127
5, 75270, Note_on_c, 9, 35, 0
5, 75306, Note_on_c, 9, 38, 127
5, 75336, Note_on_c, 9, 38, 0
5, 75360, Note_on_c, 9, 44, 127
5, 75360, Note_on_c, 9, 40, 127
5, 75360, Note_on_c, 9, 38, 127
5, 75360, Note_on_c, 9, 35, 127
5, 75390, Note_on_c, 9, 44, 0
5, 75390, Note_on_c, 9, 40, 0
5, 75390, Note_on_c, 9, 38, 0
5, 75390, Note_on_c, 9, 35, 0
5, 75426, Note_on_c, 9, 38, 127
5, 75426, Note_on_c, 9, 40, 127
5, 75456, Note_on_c, 9, 38, 0
5, 75456, Note_on_c, 9, 40, 0
5, 75546, Note_on_c, 9, 38, 127
5, 75576, Note_on_c, 9, 38, 0
5, 75600, Note_on_c, 9, 44, 127
5, 75600, Note_on_c, 9, 38, 127
5, 75600, Note_on_c, 9, 40, 127
5, 75630, Note_on_c, 9, 44, 0
5, 75630, Note_on_c, 9, 38, 0
5, 75630, Note_on_c, 9, 40, 0
5, 75666, Note_on_c, 9, 38, 127
5, 75696, Note_on_c, 9, 38, 0
5, 75720, Note_on_c, 9, 38, 127
5, 75720, Note_on_c, 9, 40, 127
5, 75720, Note_on_c, 9, 35, 127
5, 75750, Note_on_c, 9, 38, 0
5, 75750, Note_on_c, 9, 40, 0
5, 75750, Note_on_c, 9, 35, 0
5, 75786, Note_on_c, 9, 40, 127
5, 75786, Note_on_c, 9, 38, 127
5, 75816, Note_on_c, 9, 40, 0
5, 75816, Note_on_c, 9, 38, 0
5, 75840, Note_on_c, 9, 57, 127
5, 75840, Note_on_c, 9, 44, 127
5, 75840, Note_on_c, 9, 35, 127
5, 75870, Note_on_c, 9, 57, 0
5, 75870, Note_on_c, 9, 44, 0
5, 75870, Note_on_c, 9, 35, 0
5, 76080, Note_on_c, 9, 44, 127
5, 76080, Note_on_c, 9, 40, 127
5, 76080, Note_on_c, 9, 38, 127
5, 76110, Note_on_c, 9, 44, 0
5, 76110, Note_on_c, 9, 40, 0
5, 76110, Note_on_c, 9, 38, 0
5, 76200, Note_on_c, 9, 35, 127
5, 76230, Note_on_c, 9, 35, 0
5, 76260, Note_on_c, 9, 35, 127
5, 76266, Note_on_c, 9, 38, 127
5, 76290, Note_on_c, 9, 35, 0
5, 76296, Note_on_c, 9, 38, 0
5, 76320, Note_on_c, 9, 44, 127
5, 76320, Note_on_c, 9, 38, 127
5, 76350, Note_on_c, 9, 44, 0
5, 76350, Note_on_c, 9, 38, 0
5, 76380, Note_on_c, 9, 35, 127
5, 76386, Note_on_c, 9, 38, 127
5, 76410, Note_on_c, 9, 35, 0
5, 76416, Note_on_c, 9, 38, 0
5, 76440, Note_on_c, 9, 38, 127
5, 76440, Note_on_c, 9, 35, 127
5, 76470, Note_on_c, 9, 38, 0
5, 76470, Note_on_c, 9, 35, 0
5, 76560, Note_on_c, 9, 44, 127
5, 76560, Note_on_c, 9, 38, 127
5, 76560, Note_on_c, 9, 40, 127
5, 76590, Note_on_c, 9, 44, 0
5, 76590, Note_on_c, 9, 38, 0
5, 76590, Note_on_c, 9, 40, 0
5, 76680, Note_on_c, 9, 38, 127
5, 76680, Note_on_c, 9, 35, 127
5, 76710, Note_on_c, 9, 38, 0
5, 76710, Note_on_c, 9, 35, 0
5, 76800, Note_on_c, 9, 44, 127
5, 76800, Note_on_c, 9, 35, 127
5, 76830, Note_on_c, 9, 44, 0
5, 76830, Note_on_c, 9, 35, 0
5, 77040, Note_on_c, 9, 44, 127
5, 77040, Note_on_c, 9, 40, 127
5, 77040, Note_on_c, 9, 38, 127
5, 77070, Note_on_c, 9, 44, 0
5, 77070, Note_on_c, 9, 40, 0
5, 77070, Note_on_c, 9, 38, 0
5, 77160, Note_on_c, 9, 35, 127
5, 77190, Note_on_c, 9, 35, 0
5, 77226, Note_on_c, 9, 38, 127
5, 77256, Note_on_c, 9, 38, 0
5, 77280, Note_on_c, 9, 44, 127
5, 77280, Note_on_c, 9, 40, 127
5, 77280, Note_on_c, 9, 38, 127
5, 77310, Note_on_c, 9, 44, 0
5, 77310, Note_on_c, 9, 40, 0
5, 77310, Note_on_c, 9, 38, 0
5, 77346, Note_on_c, 9, 38, 127
5, 77346, Note_on_c, 9, 40, 127
5, 77376, Note_on_c, 9, 38, 0
5, 77376, Note_on_c, 9, 40, 0
5, 77400, Note_on_c, 9, 47, 127
5, 77400, Note_on_c, 9, 35, 127
5, 77430, Note_on_c, 9, 47, 0
5, 77430, Note_on_c, 9, 35, 0
5, 77460, Note_on_c, 9, 47, 127
5, 77490, Note_on_c, 9, 47, 0
5, 77520, Note_on_c, 9, 45, 127
5, 77520, Note_on_c, 9, 44, 127
5, 77550, Note_on_c, 9, 45, 0
5, 77550, Note_on_c, 9, 44, 0
5, 77580, Note_on_c, 9, 45, 127
5, 77610, Note_on_c, 9, 45, 0
5, 77640, Note_on_c, 9, 43, 127
5, 77670, Note_on_c, 9, 43, 0
5, 77700, Note_on_c, 9, 43, 127
5, 77730, Note_on_c, 9, 43, 0
5, 77760, Note_on_c, 9, 44, 127
5, 77760, Note_on_c, 9, 57, 127
5, 77760, Note_on_c, 9, 44, 127
5, 77760, Note_on_c, 9, 49, 127
5, 77760, Note_on_c, 9, 35, 127
5, 77790, Note_on_c, 9, 44, 0
5, 77790, Note_on_c, 9, 57, 0
5, 77790, Note_on_c, 9, 44, 0
5, 77790, Note_on_c, 9, 49, 0
5, 77790, Note_on_c, 9, 35, 0
5, 78000, Note_on_c, 9, 44, 127
5, 78000, Note_on_c, 9, 40, 127
5, 78000, Note_on_c, 9, 38, 127
5, 78030, Note_on_c, 9, 44, 0
5, 78030, Note_on_c, 9, 40, 0
5, 78030, Note_on_c, 9, 38, 0
5, 78180, Note_on_c, 9, 35, 127
5, 78186, Note_on_c, 9, 38, 127
5, 78210, Note_on_c, 9, 35, 0
5, 78216, Note_on_c, 9, 38, 0
5, 78240, Note_on_c, 9, 44, 127
5, 78240, Note_on_c, 9, 38, 127
5, 78270, Note_on_c, 9, 44, 0
5, 78270, Note_on_c, 9, 38, 0
5, 78300, Note_on_c, 9, 35, 127
5, 78306, Note_on_c, 9, 38, 127
5, 78330, Note_on_c, 9, 35, 0
5, 78336, Note_on_c, 9, 38, 0
5, 78360, Note_on_c, 9, 38, 127
5, 78360, Note_on_c, 9, 35, 127
5, 78390, Note_on_c, 9, 38, 0
5, 78390, Note_on_c, 9, 35, 0
5, 78480, Note_on_c, 9, 44, 127
5, 78480, Note_on_c, 9, 38, 127
5, 78480, Note_on_c, 9, 40, 127
5, 78510, Note_on_c, 9, 44, 0
5, 78510, Note_on_c, 9, 38, 0
5, 78510, Note_on_c, 9, 40, 0
5, 78600, Note_on_c, 9, 38, 127
5, 78600, Note_on_c, 9, 35, 127
5, 78630, Note_on_c, 9, 38, 0
5, 78630, Note_on_c, 9, 35, 0
5, 78720, Note_on_c, 9, 44, 127
5, 78720, Note_on_c, 9, 35, 127
5, 78750, Note_on_c, 9, 44, 0
5, 78750, Note_on_c, 9, 35, 0
5, 78960, Note_on_c, 9, 44, 127
5, 78960, Note_on_c, 9, 40, 127
5, 78960, Note_on_c, 9, 38, 127
5, 78990, Note_on_c, 9, 44, 0
5, 78990, Note_on_c, 9, 40, 0
5, 78990, Note_on_c, 9, 38, 0
5, 79080, Note_on_c, 9, 35, 127
5, 79110, Note_on_c, 9, 35, 0
5, 79146, Note_on_c, 9, 38, 127
5, 79176, Note_on_c, 9, 38, 0
5, 79200, Note_on_c, 9, 44, 127
5, 79200, Note_on_c, 9, 40, 127
5, 79200, Note_on_c, 9, 38, 127
5, 79200, Note_on_c, 9, 35, 127
5, 79230, Note_on_c, 9, 44, 0
5, 79230, Note_on_c, 9, 40, 0
5, 79230, Note_on_c, 9, 38, 0
5, 79230, Note_on_c, 9, 35, 0
5, 79266, Note_on_c, 9, 38, 127
5, 79266, Note_on_c, 9, 40, 127
5, 79296, Note_on_c, 9, 38, 0
5, 79296, Note_on_c, 9, 40, 0
5, 79386, Note_on_c, 9, 38, 127
5, 79416, Note_on_c, 9, 38, 0
5, 79440, Note_on_c, 9, 44, 127
5, 79440, Note_on_c, 9, 38, 127
5, 79440, Note_on_c, 9, 40, 127
5, 79470, Note_on_c, 9, 44, 0
5, 79470, Note_on_c, 9, 38, 0
5, 79470, Note_on_c, 9, 40, 0
5, 79506, Note_on_c, 9, 38, 127
5, 79536, Note_on_c, 9, 38, 0
5, 79560, Note_on_c, 9, 38, 127
5, 79560, Note_on_c, 9, 40, 127
5, 79560, Note_on_c, 9, 35, 127
5, 79590, Note_on_c, 9, 38, 0
5, 79590, Note_on_c, 9, 40, 0
5, 79590, Note_on_c, 9, 35, 0
5, 79626, Note_on_c, 9, 40, 127
5, 79626, Note_on_c, 9, 38, 127
5, 79656, Note_on_c, 9, 40, 0
5, 79656, Note_on_c, 9, 38, 0
5, 79680, Note_on_c, 9, 49, 127
5, 79680, Note_on_c, 9, 35, 127
5, 79710, Note_on_c, 9, 49, 0
5, 79710, Note_on_c, 9, 35, 0
5, 79920, Note_on_c, 9, 44, 127
5, 79950, Note_on_c, 9, 44, 0
5, 80160, Note_on_c, 9, 44, 127
5, 80190, Note_on_c, 9, 44, 0
5, 80400, Note_on_c, 9, 44, 127
5, 80430, Note_on_c, 9, 44, 0
5, 80640, Note_on_c, 9, 44, 127
5, 80670, Note_on_c, 9, 44, 0
5, 80880, Note_on_c, 9, 44, 127
5, 80880, Note_on_c, 9, 40, 127
5, 80880, Note_on_c, 9, 38, 127
5, 80910, Note_on_c, 9, 44, 0
5, 80910, Note_on_c, 9, 40, 0
5, 80910, Note_on_c, 9, 38, 0
5, 80940, Note_on_c, 9, 38, 127
5, 80940, Note_on_c, 9, 40, 127
5, 80970, Note_on_c, 9, 38, 0
5, 80970, Note_on_c, 9, 40, 0
5, 81000, Note_on_c, 9, 38, 127
5, 81000, Note_on_c, 9, 40, 127
5, 81030, Note_on_c, 9, 38, 0
5, 81030, Note_on_c, 9, 40, 0
5, 81060, Note_on_c, 9, 38, 127
5, 81060, Note_on_c, 9, 40, 127
5, 81090, Note_on_c, 9, 38, 0
5, 81090, Note_on_c, 9, 40, 0
5, 81120, Note_on_c, 9, 49, 127
5, 81120, Note_on_c, 9, 35, 127
5, 81150, Note_on_c, 9, 49, 0
5, 81150, Note_on_c, 9, 35, 0
5, 81240, Note_on_c, 9, 57, 127
5, 81240, Note_on_c, 9, 35, 127
5, 81270, Note_on_c, 9, 57, 0
5, 81270, Note_on_c, 9, 35, 0
5, 81360, Note_on_c, 9, 49, 127
5, 81360, Note_on_c, 9, 35, 127
5, 81390, Note_on_c, 9, 49, 0
5, 81390, Note_on_c, 9, 35, 0
5, 81600, Note_on_c, 9, 49, 127
5, 81600, Note_on_c, 9, 35, 127
5, 81630, Note_on_c, 9, 49, 0
5, 81630, Note_on_c, 9, 35, 0
5, 81720, Note_on_c, 9, 57, 127
5, 81720, Note_on_c, 9, 35, 127
5, 81750, Note_on_c, 9, 57, 0
5, 81750, Note_on_c, 9, 35, 0
5, 81840, Note_on_c, 9, 49, 127
5, 81840, Note_on_c, 9, 35, 127
5, 81870, Note_on_c, 9, 49, 0
5, 81870, Note_on_c, 9, 35, 0
5, 82026, Note_on_c, 9, 40, 127
5, 82026, Note_on_c, 9, 38, 127
5, 82056, Note_on_c, 9, 40, 0
5, 82056, Note_on_c, 9, 38, 0
5, 82080, Note_on_c, 9, 38, 127
5, 82080, Note_on_c, 9, 40, 127
5, 82080, Note_on_c, 9, 35, 127
5, 82110, Note_on_c, 9, 38, 0
5, 82110, Note_on_c, 9, 40, 0
5, 82110, Note_on_c, 9, 35, 0
5, 82146, Note_on_c, 9, 48, 127
5, 82176, Note_on_c, 9, 48, 0
5, 82200, Note_on_c, 9, 48, 127
5, 82230, Note_on_c, 9, 48, 0
5, 82260, Note_on_c, 9, 47, 127
5, 82290, Note_on_c, 9, 47, 0
5, 82320, Note_on_c, 9, 47, 127
5, 82350, Note_on_c, 9, 47, 0
5, 82380, Note_on_c, 9, 45, 127
5, 82410, Note_on_c, 9, 45, 0
5, 82440, Note_on_c, 9, 45, 127
5, 82470, Note_on_c, 9, 45, 0
5, 82500, Note_on_c, 9, 35, 127
5, 82530, Note_on_c, 9, 35, 0
5, 82530, End_track
6, 0, Start_track
6, 0, Title_t, "4"
6, 0, Program_c, 3, 47
6, 0, Control_c, 3, 7, 120
6, 0, Note_on_c, 3, 46, 127
6, 92, Note_on_c, 3, 46, 0
6, 240, Note_on_c, 3, 58, 127
6, 360, Note_on_c, 3, 58, 0
6, 480, Note_on_c, 3, 46, 127
6, 602, Note_on_c, 3, 46, 0
6, 720, Note_on_c, 3, 58, 127
6, 840, Note_on_c, 3, 58, 0
6, 960, Note_on_c, 3, 46, 127
6, 1068, Note_on_c, 3, 46, 0
6, 1200, Note_on_c, 3, 58, 127
6, 1320, Note_on_c, 3, 58, 0
6, 1440, Note_on_c, 3, 46, 127
6, 1574, Note_on_c, 3, 46, 0
6, 1680, Note_on_c, 3, 58, 127
6, 1800, Note_on_c, 3, 58, 0
6, 1904, Note_on_c, 3, 57, 127
6, 1920, Note_on_c, 3, 57, 0
6, 1920, Note_on_c, 3, 57, 127
6, 1932, Pitch_bend_c, 3, 8576
6, 1936, Pitch_bend_c, 3, 8896
6, 1940, Pitch_bend_c, 3, 9280
6, 1944, Pitch_bend_c, 3, 9600
6, 1946, Pitch_bend_c, 3, 9984
6, 1950, Pitch_bend_c, 3, 10304
6, 1954, Pitch_bend_c, 3, 10752
6, 1956, Pitch_bend_c, 3, 11072
6, 1960, Pitch_bend_c, 3, 11392
6, 1964, Pitch_bend_c, 3, 11712
6, 1966, Pitch_bend_c, 3, 12096
6, 1970, Pitch_bend_c, 3, 12608
6, 1972, Pitch_bend_c, 3, 13120
6, 1976, Pitch_bend_c, 3, 13696
6, 1978, Pitch_bend_c, 3, 14528
6, 1980, Pitch_bend_c, 3, 15936
6, 2034, Note_on_c, 3, 57, 0
6, 2040, Note_on_c, 3, 60, 127
6, 2158, Note_on_c, 3, 60, 0
6, 2160, Note_on_c, 3, 65, 127
6, 2272, Pitch_bend_c, 3, 8256
6, 2278, Note_on_c, 3, 65, 0
6, 2280, Note_on_c, 3, 57, 127
6, 2344, Control_c, 3, 1, 2
6, 2346, Control_c, 3, 1, 8
6, 2350, Control_c, 3, 1, 14
6, 2352, Control_c, 3, 1, 20
6, 2356, Control_c, 3, 1, 28
6, 2360, Control_c, 3, 1, 34
6, 2364, Control_c, 3, 1, 42
6, 2374, Control_c, 3, 1, 48
6, 2410, Control_c, 3, 1, 54
6, 2440, Control_c, 3, 1, 60
6, 2450, Control_c, 3, 1, 62
6, 2658, Control_c, 3, 1, 56
6, 2666, Control_c, 3, 1, 50
6, 2670, Control_c, 3, 1, 44
6, 2672, Control_c, 3, 1, 38
6, 2676, Control_c, 3, 1, 16
6, 2678, Note_on_c, 3, 57, 0
6, 2680, Control_c, 3, 1, 8
6, 2684, Control_c, 3, 1, 0
6, 2880, Note_on_c, 3, 55, 123
6, 2990, Note_on_c, 3, 55, 0
6, 3000, Note_on_c, 3, 50, 127
6, 3096, Note_on_c, 3, 38, 90
6, 3132, Pitch_bend_c, 3, 8712
6, 3136, Pitch_bend_c, 3, 10012
6, 3140, Pitch_bend_c, 3, 10922
6, 3142, Pitch_bend_c, 3, 12352
6, 3146, Pitch_bend_c, 3, 13782
6, 3150, Pitch_bend_c, 3, 15602
6, 3152, Pitch_bend_c, 3, 15992
6, 3158, Pitch_bend_c, 3, 16382
6, 3188, Note_on_c, 3, 50, 0
6, 3232, Note_on_c, 3, 38, 0
6, 3234, Pitch_bend_c, 3, 15992
6, 3236, Pitch_bend_c, 3, 15472
6, 3240, Note_on_c, 3, 50, 127
6, 3240, Pitch_bend_c, 3, 13912
6, 3244, Pitch_bend_c, 3, 13002
6, 3246, Pitch_bend_c, 3, 11312
6, 3250, Pitch_bend_c, 3, 9882
6, 3254, Pitch_bend_c, 3, 9232
6, 3256, Pitch_bend_c, 3, 8712
6, 3262, Pitch_bend_c, 3, 8192
6, 3316, Pitch_bend_c, 3, 8582
6, 3318, Pitch_bend_c, 3, 10662
6, 3322, Pitch_bend_c, 3, 12352
6, 3324, Pitch_bend_c, 3, 14692
6, 3328, Pitch_bend_c, 3, 15472
6, 3330, Pitch_bend_c, 3, 16122
6, 3336, Pitch_bend_c, 3, 16382
6, 3522, Control_c, 3, 1, 6
6, 3530, Control_c, 3, 1, 14
6, 3534, Control_c, 3, 1, 20
6, 3538, Control_c, 3, 1, 26
6, 3550, Control_c, 3, 1, 32
6, 3562, Control_c, 3, 1, 38
6, 3568, Control_c, 3, 1, 44
6, 3580, Control_c, 3, 1, 50
6, 3594, Control_c, 3, 1, 52
6, 3710, Control_c, 3, 1, 46
6, 3714, Control_c, 3, 1, 40
6, 3718, Control_c, 3, 1, 34
6, 3722, Control_c, 3, 1, 24
6, 3728, Note_on_c, 3, 50, 0
6, 3728, Control_c, 3, 1, 12
6, 3732, Control_c, 3, 1, 2
6, 3732, Control_c, 3, 1, 0
6, 3840, Note_on_c, 3, 57, 127
6, 3852, Pitch_bend_c, 3, 8576
6, 3856, Pitch_bend_c, 3, 8896
6, 3860, Pitch_bend_c, 3, 9280
6, 3864, Pitch_bend_c, 3, 9600
6, 3866, Pitch_bend_c, 3, 9984
6, 3870, Pitch_bend_c, 3, 10304
6, 3874, Pitch_bend_c, 3, 10752
6, 3876, Pitch_bend_c, 3, 11072
6, 3880, Pitch_bend_c, 3, 11392
6, 3884, Pitch_bend_c, 3, 11712
6, 3886, Pitch_bend_c, 3, 12096
6, 3890, Pitch_bend_c, 3, 12608
6, 3892, Pitch_bend_c, 3, 13120
6, 3896, Pitch_bend_c, 3, 13696
6, 3898, Pitch_bend_c, 3, 14528
6, 3900, Pitch_bend_c, 3, 15936
6, 3958, Note_on_c, 3, 57, 0
6, 3960, Note_on_c, 3, 60, 127
6, 4080, Note_on_c, 3, 60, 0
6, 4080, Note_on_c, 3, 65, 127
6, 4190, Pitch_bend_c, 3, 15616
6, 4192, Pitch_bend_c, 3, 15104
6, 4194, Note_on_c, 3, 65, 0
6, 4196, Pitch_bend_c, 3, 14656
6, 4198, Pitch_bend_c, 3, 14144
6, 4200, Note_on_c, 3, 57, 127
6, 4202, Pitch_bend_c, 3, 13632
6, 4204, Pitch_bend_c, 3, 13184
6, 4208, Pitch_bend_c, 3, 12672
6, 4210, Pitch_bend_c, 3, 12288
6, 4214, Pitch_bend_c, 3, 11840
6, 4216, Pitch_bend_c, 3, 11456
6, 4220, Pitch_bend_c, 3, 11136
6, 4222, Pitch_bend_c, 3, 10624
6, 4226, Pitch_bend_c, 3, 10112
6, 4228, Pitch_bend_c, 3, 9792
6, 4232, Pitch_bend_c, 3, 9408
6, 4234, Pitch_bend_c, 3, 9024
6, 4238, Pitch_bend_c, 3, 8512
6, 4242, Pitch_bend_c, 3, 8256
6, 4266, Control_c, 3, 1, 8
6, 4270, Control_c, 3, 1, 14
6, 4272, Control_c, 3, 1, 20
6, 4276, Control_c, 3, 1, 28
6, 4280, Control_c, 3, 1, 34
6, 4284, Control_c, 3, 1, 42
6, 4294, Control_c, 3, 1, 48
6, 4330, Control_c, 3, 1, 54
6, 4360, Control_c, 3, 1, 60
6, 4370, Control_c, 3, 1, 62
6, 4578, Control_c, 3, 1, 56
6, 4586, Control_c, 3, 1, 50
6, 4590, Control_c, 3, 1, 44
6, 4592, Control_c, 3, 1, 38
6, 4596, Control_c, 3, 1, 16
6, 4598, Note_on_c, 3, 57, 0
6, 4600, Control_c, 3, 1, 8
6, 4604, Control_c, 3, 1, 0
6, 4800, Note_on_c, 3, 55, 123
6, 4910, Note_on_c, 3, 55, 0
6, 4920, Note_on_c, 3, 50, 127
6, 5022, Note_on_c, 3, 38, 90
6, 5052, Pitch_bend_c, 3, 8712
6, 5056, Pitch_bend_c, 3, 10012
6, 5060, Pitch_bend_c, 3, 10922
6, 5062, Pitch_bend_c, 3, 12352
6, 5066, Pitch_bend_c, 3, 13782
6, 5070, Pitch_bend_c, 3, 15602
6, 5072, Pitch_bend_c, 3, 15992
6, 5078, Pitch_bend_c, 3, 16382
6, 5128, Note_on_c, 3, 50, 0
6, 5154, Pitch_bend_c, 3, 15992
6, 5156, Pitch_bend_c, 3, 15472
6, 5160, Note_on_c, 3, 50, 127
6, 5160, Pitch_bend_c, 3, 13912
6, 5164, Pitch_bend_c, 3, 13002
6, 5166, Note_on_c, 3, 38, 0
6, 5166, Pitch_bend_c, 3, 11312
6, 5170, Pitch_bend_c, 3, 9882
6, 5174, Pitch_bend_c, 3, 9232
6, 5176, Pitch_bend_c, 3, 8712
6, 5182, Pitch_bend_c, 3, 8192
6, 5236, Pitch_bend_c, 3, 8582
6, 5238, Pitch_bend_c, 3, 10662
6, 5242, Pitch_bend_c, 3, 12352
6, 5244, Pitch_bend_c, 3, 14692
6, 5248, Pitch_bend_c, 3, 15472
6, 5250, Pitch_bend_c, 3, 16122
6, 5256, Pitch_bend_c, 3, 16382
6, 5442, Control_c, 3, 1, 6
6, 5450, Control_c, 3, 1, 14
6, 5454, Control_c, 3, 1, 20
6, 5458, Control_c, 3, 1, 26
6, 5470, Control_c, 3, 1, 32
6, 5482, Control_c, 3, 1, 38
6, 5488, Control_c, 3, 1, 44
6, 5500, Control_c, 3, 1, 50
6, 5514, Control_c, 3, 1, 52
6, 5520, Note_on_c, 3, 50, 0
6, 5520, Pitch_bend_c, 3, 8256
6, 5628, Note_on_c, 3, 50, 122
6, 5630, Control_c, 3, 1, 46
6, 5634, Control_c, 3, 1, 40
6, 5638, Control_c, 3, 1, 34
6, 5642, Control_c, 3, 1, 24
6, 5648, Control_c, 3, 1, 12
6, 5652, Pitch_bend_c, 3, 8582
6, 5652, Control_c, 3, 1, 2
6, 5652, Control_c, 3, 1, 0
6, 5654, Pitch_bend_c, 3, 9102
6, 5658, Pitch_bend_c, 3, 10272
6, 5662, Pitch_bend_c, 3, 11052
6, 5664, Pitch_bend_c, 3, 12612
6, 5670, Pitch_bend_c, 3, 14562
6, 5674, Pitch_bend_c, 3, 15862
6, 5678, Pitch_bend_c, 3, 16252
6, 5680, Pitch_bend_c, 3, 16382
6, 5734, Note_on_c, 3, 50, 0
6, 5740, Pitch_bend_c, 3, 15862
6, 5744, Pitch_bend_c, 3, 8256
6, 5744, Pitch_bend_c, 3, 13392
6, 5748, Pitch_bend_c, 3, 10532
6, 5750, Pitch_bend_c, 3, 8192
6, 5752, Pitch_bend_c, 3, 8064
6, 5754, Pitch_bend_c, 3, 8192
6, 5758, Pitch_bend_c, 3, 8582
6, 5760, Note_on_c, 3, 55, 113
6, 5760, Pitch_bend_c, 3, 8972
6, 5766, Pitch_bend_c, 3, 8452
6, 5766, Pitch_bend_c, 3, 8192
6, 5770, Pitch_bend_c, 3, 7936
6, 5776, Pitch_bend_c, 3, 8192
6, 5856, Note_on_c, 3, 55, 0
6, 5880, Note_on_c, 3, 57, 113
6, 5954, Note_on_c, 3, 57, 0
6, 6000, Note_on_c, 3, 59, 113
6, 6104, Note_on_c, 3, 59, 0
6, 6120, Note_on_c, 3, 53, 113
6, 6128, Pitch_bend_c, 3, 8712
6, 6132, Pitch_bend_c, 3, 9102
6, 6134, Pitch_bend_c, 3, 9622
6, 6138, Pitch_bend_c, 3, 10402
6, 6144, Pitch_bend_c, 3, 11312
6, 6148, Pitch_bend_c, 3, 12742
6, 6150, Pitch_bend_c, 3, 13522
6, 6154, Pitch_bend_c, 3, 14692
6, 6158, Pitch_bend_c, 3, 15472
6, 6160, Pitch_bend_c, 3, 15862
6, 6164, Pitch_bend_c, 3, 16252
6, 6166, Pitch_bend_c, 3, 16382
6, 6366, Pitch_bend_c, 3, 15992
6, 6368, Pitch_bend_c, 3, 15472
6, 6372, Pitch_bend_c, 3, 15082
6, 6376, Pitch_bend_c, 3, 14432
6, 6380, Pitch_bend_c, 3, 14042
6, 6384, Pitch_bend_c, 3, 13782
6, 6392, Pitch_bend_c, 3, 14172
6, 6398, Pitch_bend_c, 3, 15212
6, 6400, Pitch_bend_c, 3, 15732
6, 6404, Pitch_bend_c, 3, 16252
6, 6408, Pitch_bend_c, 3, 16382
6, 6426, Pitch_bend_c, 3, 15992
6, 6428, Pitch_bend_c, 3, 15602
6, 6432, Pitch_bend_c, 3, 14692
6, 6434, Pitch_bend_c, 3, 13912
6, 6438, Pitch_bend_c, 3, 13132
6, 6442, Pitch_bend_c, 3, 12742
6, 6444, Pitch_bend_c, 3, 12352
6, 6452, Pitch_bend_c, 3, 12872
6, 6456, Pitch_bend_c, 3, 13652
6, 6458, Pitch_bend_c, 3, 15212
6, 6462, Pitch_bend_c, 3, 15732
6, 6466, Pitch_bend_c, 3, 16252
6, 6470, Pitch_bend_c, 3, 16382
6, 6496, Pitch_bend_c, 3, 15732
6, 6500, Pitch_bend_c, 3, 15342
6, 6504, Pitch_bend_c, 3, 15082
6, 6512, Pitch_bend_c, 3, 15602
6, 6514, Pitch_bend_c, 3, 16122
6, 6520, Pitch_bend_c, 3, 16382
6, 6562, Pitch_bend_c, 3, 16252
6, 6566, Pitch_bend_c, 3, 16382
6, 6616, Pitch_bend_c, 3, 15992
6, 6620, Note_on_c, 3, 53, 0
6, 6626, Pitch_bend_c, 3, 16382
6, 6640, Pitch_bend_c, 3, 15992
6, 6644, Pitch_bend_c, 3, 13522
6, 6646, Pitch_bend_c, 3, 10532
6, 6650, Pitch_bend_c, 3, 7808
6, 6652, Pitch_bend_c, 3, 7552
6, 6656, Pitch_bend_c, 3, 7936
6, 6656, Pitch_bend_c, 3, 8192
6, 6660, Pitch_bend_c, 3, 8972
6, 6664, Pitch_bend_c, 3, 8582
6, 6666, Pitch_bend_c, 3, 8192
6, 6668, Pitch_bend_c, 3, 7808
6, 6676, Pitch_bend_c, 3, 8192
6, 6700, Note_on_c, 3, 53, 108
6, 6726, Pitch_bend_c, 3, 8712
6, 6730, Pitch_bend_c, 3, 9492
6, 6732, Pitch_bend_c, 3, 10402
6, 6736, Pitch_bend_c, 3, 11832
6, 6740, Pitch_bend_c, 3, 13002
6, 6742, Pitch_bend_c, 3, 14172
6, 6746, Pitch_bend_c, 3, 15472
6, 6748, Pitch_bend_c, 3, 15992
6, 6756, Pitch_bend_c, 3, 16382
6, 6834, Note_on_c, 3, 53, 0
6, 6840, Note_on_c, 3, 45, 122
6, 6842, Pitch_bend_c, 3, 14822
6, 6846, Pitch_bend_c, 3, 12742
6, 6850, Pitch_bend_c, 3, 8192
6, 6852, Pitch_bend_c, 3, 7296
6, 6856, Pitch_bend_c, 3, 7936
6, 6856, Pitch_bend_c, 3, 8192
6, 6860, Pitch_bend_c, 3, 8842
6, 6862, Pitch_bend_c, 3, 8972
6, 6866, Pitch_bend_c, 3, 8322
6, 6866, Pitch_bend_c, 3, 8192
6, 6870, Pitch_bend_c, 3, 7680
6, 6874, Pitch_bend_c, 3, 8064
6, 6876, Pitch_bend_c, 3, 8192
6, 6886, Pitch_bend_c, 3, 8064
6, 6888, Pitch_bend_c, 3, 8192
6, 6954, Note_on_c, 3, 45, 0
6, 6960, Note_on_c, 3, 40, 113
6, 7074, Note_on_c, 3, 40, 0
6, 7080, Note_on_c, 3, 43, 104
6, 7206, Pitch_bend_c, 3, 8582
6, 7214, Pitch_bend_c, 3, 8972
6, 7228, Pitch_bend_c, 3, 8582
6, 7234, Pitch_bend_c, 3, 8192
6, 7318, Pitch_bend_c, 3, 7808
6, 7322, Pitch_bend_c, 3, 7552
6, 7334, Pitch_bend_c, 3, 7936
6, 7338, Pitch_bend_c, 3, 8192
6, 7348, Pitch_bend_c, 3, 8582
6, 7352, Pitch_bend_c, 3, 9102
6, 7356, Pitch_bend_c, 3, 9622
6, 7358, Pitch_bend_c, 3, 10532
6, 7362, Pitch_bend_c, 3, 11052
6, 7364, Pitch_bend_c, 3, 11442
6, 7366, Pitch_bend_c, 3, 11572
6, 7376, Pitch_bend_c, 3, 11182
6, 7382, Pitch_bend_c, 3, 10662
6, 7384, Pitch_bend_c, 3, 10012
6, 7388, Pitch_bend_c, 3, 9622
6, 7390, Pitch_bend_c, 3, 9232
6, 7394, Pitch_bend_c, 3, 8842
6, 7398, Pitch_bend_c, 3, 8452
6, 7400, Pitch_bend_c, 3, 8322
6, 7412, Pitch_bend_c, 3, 8712
6, 7416, Pitch_bend_c, 3, 9492
6, 7418, Pitch_bend_c, 3, 9882
6, 7422, Pitch_bend_c, 3, 10792
6, 7426, Pitch_bend_c, 3, 11312
6, 7428, Pitch_bend_c, 3, 11832
6, 7432, Pitch_bend_c, 3, 12352
6, 7438, Pitch_bend_c, 3, 12612
6, 7444, Pitch_bend_c, 3, 12092
6, 7448, Pitch_bend_c, 3, 11702
6, 7452, Pitch_bend_c, 3, 11182
6, 7456, Pitch_bend_c, 3, 10792
6, 7458, Pitch_bend_c, 3, 9882
6, 7462, Pitch_bend_c, 3, 9492
6, 7464, Pitch_bend_c, 3, 9102
6, 7468, Pitch_bend_c, 3, 8712
6, 7474, Pitch_bend_c, 3, 8452
6, 7486, Pitch_bend_c, 3, 8842
6, 7490, Pitch_bend_c, 3, 10272
6, 7492, Pitch_bend_c, 3, 10662
6, 7496, Pitch_bend_c, 3, 11442
6, 7500, Pitch_bend_c, 3, 11832
6, 7502, Pitch_bend_c, 3, 12352
6, 7508, Pitch_bend_c, 3, 12612
6, 7518, Pitch_bend_c, 3, 12092
6, 7526, Pitch_bend_c, 3, 11572
6, 7528, Pitch_bend_c, 3, 11182
6, 7532, Pitch_bend_c, 3, 10792
6, 7536, Pitch_bend_c, 3, 9882
6, 7538, Pitch_bend_c, 3, 9492
6, 7540, Note_on_c, 3, 43, 0
6, 7542, Pitch_bend_c, 3, 8972
6, 7544, Pitch_bend_c, 3, 8582
6, 7550, Pitch_bend_c, 3, 8192
6, 7566, Note_on_c, 3, 45, 127
6, 7666, Note_on_c, 3, 45, 0
6, 7678, Note_on_c, 3, 45, 127
6, 7710, Pitch_bend_c, 3, 8842
6, 7712, Pitch_bend_c, 3, 9362
6, 7716, Pitch_bend_c, 3, 10922
6, 7718, Pitch_bend_c, 3, 11702
6, 7722, Pitch_bend_c, 3, 13522
6, 7726, Pitch_bend_c, 3, 14562
6, 7730, Pitch_bend_c, 3, 15862
6, 7732, Pitch_bend_c, 3, 16252
6, 7736, Pitch_bend_c, 3, 16382
6, 7774, Note_on_c, 3, 45, 0
6, 7804, Note_on_c, 3, 53, 122
6, 7890, Pitch_bend_c, 3, 15992
6, 7894, Pitch_bend_c, 3, 15212
6, 7898, Pitch_bend_c, 3, 14692
6, 7900, Pitch_bend_c, 3, 13002
6, 7904, Pitch_bend_c, 3, 11702
6, 7908, Pitch_bend_c, 3, 9752
6, 7910, Pitch_bend_c, 3, 9362
6, 7912, Note_on_c, 3, 53, 0
6, 7914, Pitch_bend_c, 3, 8582
6, 7916, Note_on_c, 3, 57, 122
6, 7918, Pitch_bend_c, 3, 8192
6, 7942, Pitch_bend_c, 3, 8582
6, 7944, Pitch_bend_c, 3, 9752
6, 7948, Pitch_bend_c, 3, 10662
6, 7950, Pitch_bend_c, 3, 12092
6, 7954, Pitch_bend_c, 3, 13912
6, 7958, Pitch_bend_c, 3, 15732
6, 7962, Pitch_bend_c, 3, 16122
6, 7964, Pitch_bend_c, 3, 16382
6, 8018, Pitch_bend_c, 3, 15992
6, 8020, Pitch_bend_c, 3, 15472
6, 8024, Pitch_bend_c, 3, 13652
6, 8028, Pitch_bend_c, 3, 11702
6, 8032, Note_on_c, 3, 57, 0
6, 8032, Pitch_bend_c, 3, 10012
6, 8036, Pitch_bend_c, 3, 9102
6, 8038, Pitch_bend_c, 3, 8192
6, 8038, Note_on_c, 3, 55, 125
6, 8044, Pitch_bend_c, 3, 7680
6, 8048, Pitch_bend_c, 3, 7296
6, 8050, Pitch_bend_c, 3, 7168
6, 8058, Pitch_bend_c, 3, 7552
6, 8062, Pitch_bend_c, 3, 7936
6, 8068, Pitch_bend_c, 3, 8192
6, 8072, Pitch_bend_c, 3, 8582
6, 8076, Pitch_bend_c, 3, 9752
6, 8078, Pitch_bend_c, 3, 11052
6, 8082, Pitch_bend_c, 3, 11962
6, 8084, Pitch_bend_c, 3, 14172
6, 8088, Pitch_bend_c, 3, 15212
6, 8090, Pitch_bend_c, 3, 15992
6, 8096, Pitch_bend_c, 3, 16382
6, 8228, Control_c, 3, 1, 6
6, 8236, Control_c, 3, 1, 12
6, 8246, Control_c, 3, 1, 18
6, 8260, Control_c, 3, 1, 26
6, 8274, Control_c, 3, 1, 32
6, 8292, Control_c, 3, 1, 38
6, 8308, Control_c, 3, 1, 44
6, 8322, Control_c, 3, 1, 50
6, 8356, Control_c, 3, 1, 56
6, 8370, Control_c, 3, 1, 62
6, 8390, Control_c, 3, 1, 68
6, 8394, Note_on_c, 3, 55, 0
6, 8400, Control_c, 3, 1, 1
6, 8400, Pitch_bend_c, 3, 8256
6, 8404, Note_on_c, 3, 55, 127
6, 8516, Note_on_c, 3, 55, 0
6, 8518, Note_on_c, 3, 50, 127
6, 8636, Note_on_c, 3, 57, 125
6, 8638, Note_on_c, 3, 50, 0
6, 8680, Pitch_bend_c, 3, 8712
6, 8682, Pitch_bend_c, 3, 9232
6, 8686, Pitch_bend_c, 3, 9752
6, 8690, Pitch_bend_c, 3, 11052
6, 8692, Pitch_bend_c, 3, 11962
6, 8696, Pitch_bend_c, 3, 13652
6, 8698, Pitch_bend_c, 3, 14952
6, 8706, Pitch_bend_c, 3, 15602
6, 8710, Pitch_bend_c, 3, 16382
6, 8758, Note_on_c, 3, 57, 0
6, 8770, Note_on_c, 3, 60, 126
6, 8838, Note_on_c, 3, 60, 0
6, 8888, Note_on_c, 3, 60, 127
6, 8968, Note_on_c, 3, 60, 0
6, 8986, Pitch_bend_c, 3, 15992
6, 8988, Pitch_bend_c, 3, 15472
6, 8992, Pitch_bend_c, 3, 14692
6, 8996, Pitch_bend_c, 3, 14042
6, 8998, Pitch_bend_c, 3, 13002
6, 9002, Pitch_bend_c, 3, 12352
6, 9006, Pitch_bend_c, 3, 10792
6, 9010, Pitch_bend_c, 3, 9882
6, 9012, Pitch_bend_c, 3, 9362
6, 9012, Note_on_c, 3, 62, 127
6, 9016, Pitch_bend_c, 3, 8972
6, 9020, Pitch_bend_c, 3, 8452
6, 9022, Pitch_bend_c, 3, 8192
6, 9054, Pitch_bend_c, 3, 8582
6, 9058, Pitch_bend_c, 3, 9102
6, 9060, Pitch_bend_c, 3, 10272
6, 9066, Pitch_bend_c, 3, 11442
6, 9070, Pitch_bend_c, 3, 13262
6, 9072, Pitch_bend_c, 3, 14172
6, 9076, Pitch_bend_c, 3, 15082
6, 9080, Pitch_bend_c, 3, 15862
6, 9084, Pitch_bend_c, 3, 16252
6, 9086, Pitch_bend_c, 3, 16382
6, 9162, Control_c, 3, 1, 6
6, 9168, Control_c, 3, 1, 12
6, 9172, Control_c, 3, 1, 18
6, 9180, Control_c, 3, 1, 24
6, 9186, Control_c, 3, 1, 30
6, 9192, Control_c, 3, 1, 36
6, 9202, Control_c, 3, 1, 42
6, 9210, Control_c, 3, 1, 48
6, 9218, Control_c, 3, 1, 54
6, 9226, Control_c, 3, 1, 60
6, 9236, Control_c, 3, 1, 66
6, 9268, Control_c, 3, 1, 72
6, 9356, Note_on_c, 3, 62, 0
6, 9360, Control_c, 3, 1, 0
6, 9366, Pitch_bend_c, 3, 8322
6, 9368, Pitch_bend_c, 3, 8712
6, 9372, Pitch_bend_c, 3, 9102
6, 9372, Note_on_c, 3, 50, 91
6, 9374, Pitch_bend_c, 3, 9752
6, 9378, Pitch_bend_c, 3, 10792
6, 9382, Pitch_bend_c, 3, 11702
6, 9386, Pitch_bend_c, 3, 13132
6, 9390, Pitch_bend_c, 3, 13782
6, 9394, Pitch_bend_c, 3, 15472
6, 9396, Pitch_bend_c, 3, 16122
6, 9400, Pitch_bend_c, 3, 16382
6, 9492, Note_on_c, 3, 45, 90
6, 9498, Note_on_c, 3, 50, 0
6, 9500, Pitch_bend_c, 3, 15992
6, 9502, Pitch_bend_c, 3, 15602
6, 9506, Pitch_bend_c, 3, 14692
6, 9510, Pitch_bend_c, 3, 14042
6, 9512, Pitch_bend_c, 3, 13782
6, 9512, Pitch_bend_c, 3, 16252
6, 9514, Pitch_bend_c, 3, 13132
6, 9514, Pitch_bend_c, 3, 15992
6, 9514, Pitch_bend_c, 3, 12742
6, 9516, Pitch_bend_c, 3, 15732
6, 9516, Pitch_bend_c, 3, 12352
6, 9518, Pitch_bend_c, 3, 14952
6, 9518, Pitch_bend_c, 3, 11832
6, 9520, Pitch_bend_c, 3, 14562
6, 9520, Pitch_bend_c, 3, 11442
6, 9520, Pitch_bend_c, 3, 14042
6, 9522, Pitch_bend_c, 3, 10012
6, 9524, Pitch_bend_c, 3, 13262
6, 9524, Pitch_bend_c, 3, 9752
6, 9524, Pitch_bend_c, 3, 13002
6, 9526, Pitch_bend_c, 3, 9492
6, 9526, Pitch_bend_c, 3, 11962
6, 9528, Pitch_bend_c, 3, 9232
6, 9528, Pitch_bend_c, 3, 11052
6, 9528, Pitch_bend_c, 3, 9102
6, 9530, Pitch_bend_c, 3, 10662
6, 9530, Pitch_bend_c, 3, 8712
6, 9532, Pitch_bend_c, 3, 10272
6, 9532, Pitch_bend_c, 3, 8582
6, 9534, Pitch_bend_c, 3, 9362
6, 9534, Pitch_bend_c, 3, 8452
6, 9536, Pitch_bend_c, 3, 9102
6, 9536, Pitch_bend_c, 3, 8322
6, 9536, Pitch_bend_c, 3, 8842
6, 9538, Pitch_bend_c, 3, 8192
6, 9544, Pitch_bend_c, 3, 7680
6, 9548, Pitch_bend_c, 3, 6272
6, 9552, Pitch_bend_c, 3, 5120
6, 9554, Pitch_bend_c, 3, 4096
6, 9558, Pitch_bend_c, 3, 3328
6, 9562, Pitch_bend_c, 3, 2048
6, 9566, Pitch_bend_c, 3, 896
6, 9570, Pitch_bend_c, 3, 128
6, 9570, Pitch_bend_c, 3, 0
6, 9598, Note_on_c, 3, 45, 0
6, 9598, Pitch_bend_c, 3, 8256
6, 9600, Note_on_c, 3, 40, 93
6, 9820, Note_on_c, 3, 59, 72
6, 9828, Note_on_c, 3, 64, 72
6, 9832, Note_on_c, 3, 67, 72
6, 9850, Note_on_c, 3, 40, 0
6, 9992, Note_on_c, 3, 59, 0
6, 9996, Note_on_c, 3, 64, 0
6, 9998, Note_on_c, 3, 67, 0
6, 10026, Note_on_c, 3, 59, 72
6, 10030, Note_on_c, 3, 64, 72
6, 10030, Note_on_c, 3, 67, 72
6, 10054, Note_on_c, 3, 59, 0
6, 10054, Note_on_c, 3, 64, 0
6, 10064, Note_on_c, 3, 67, 0
6, 10082, Note_on_c, 3, 40, 98
6, 10116, Note_on_c, 3, 40, 0
6, 10160, Note_on_c, 3, 59, 72
6, 10164, Note_on_c, 3, 64, 72
6, 10166, Note_on_c, 3, 67, 72
6, 10176, Note_on_c, 3, 59, 0
6, 10178, Note_on_c, 3, 64, 0
6, 10182, Note_on_c, 3, 40, 96
6, 10190, Note_on_c, 3, 67, 0
6, 10304, Note_on_c, 3, 59, 72
6, 10316, Note_on_c, 3, 64, 72
6, 10322, Note_on_c, 3, 67, 72
6, 10330, Note_on_c, 3, 40, 0
6, 10536, Note_on_c, 3, 59, 0
6, 10540, Note_on_c, 3, 64, 0
6, 10556, Note_on_c, 3, 67, 0
6, 10556, Note_on_c, 3, 43, 87
6, 10560, Note_on_c, 3, 50, 84
6, 10562, Note_on_c, 3, 55, 84
6, 10760, Note_on_c, 3, 43, 0
6, 10764, Note_on_c, 3, 50, 0
6, 10766, Note_on_c, 3, 55, 0
6, 10796, Note_on_c, 3, 43, 84
6, 10800, Note_on_c, 3, 50, 84
6, 10802, Note_on_c, 3, 55, 84
6, 10914, Note_on_c, 3, 43, 0
6, 11000, Note_on_c, 3, 50, 0
6, 11032, Note_on_c, 3, 55, 0
6, 11040, Note_on_c, 3, 45, 87
6, 11094, Note_on_c, 3, 52, 84
6, 11100, Note_on_c, 3, 57, 84
6, 11124, Note_on_c, 3, 45, 0
6, 11160, Note_on_c, 3, 45, 87
6, 11190, Note_on_c, 3, 52, 0
6, 11208, Note_on_c, 3, 57, 0
6, 11244, Note_on_c, 3, 45, 0
6, 11270, Note_on_c, 3, 45, 84
6, 11280, Note_on_c, 3, 52, 84
6, 11292, Note_on_c, 3, 57, 84
6, 11516, Note_on_c, 3, 52, 0
6, 11518, Note_on_c, 3, 45, 0
6, 11520, Note_on_c, 3, 57, 0
6, 11520, Note_on_c, 3, 40, 93
6, 11740, Note_on_c, 3, 59, 72
6, 11748, Note_on_c, 3, 64, 72
6, 11752, Note_on_c, 3, 67, 72
6, 11770, Note_on_c, 3, 40, 0
6, 11972, Note_on_c, 3, 59, 0
6, 11980, Note_on_c, 3, 64, 0
6, 11988, Note_on_c, 3, 67, 0
6, 12002, Note_on_c, 3, 40, 98
6, 12066, Note_on_c, 3, 40, 0
6, 12080, Note_on_c, 3, 59, 72
6, 12084, Note_on_c, 3, 64, 72
6, 12102, Note_on_c, 3, 40, 96
6, 12104, Note_on_c, 3, 59, 0
6, 12106, Note_on_c, 3, 64, 0
6, 12224, Note_on_c, 3, 59, 72
6, 12236, Note_on_c, 3, 64, 72
6, 12242, Note_on_c, 3, 67, 72
6, 12430, Note_on_c, 3, 40, 0
6, 12456, Note_on_c, 3, 59, 0
6, 12460, Note_on_c, 3, 64, 0
6, 12476, Note_on_c, 3, 67, 0
6, 12476, Note_on_c, 3, 43, 87
6, 12480, Note_on_c, 3, 50, 84
6, 12482, Note_on_c, 3, 55, 84
6, 12680, Note_on_c, 3, 43, 0
6, 12684, Note_on_c, 3, 50, 0
6, 12686, Note_on_c, 3, 55, 0
6, 12716, Note_on_c, 3, 43, 84
6, 12720, Note_on_c, 3, 50, 84
6, 12722, Note_on_c, 3, 55, 84
6, 12834, Note_on_c, 3, 43, 0
6, 12920, Note_on_c, 3, 50, 0
6, 12952, Note_on_c, 3, 55, 0
6, 12960, Note_on_c, 3, 45, 87
6, 13014, Note_on_c, 3, 52, 84
6, 13020, Note_on_c, 3, 57, 84
6, 13044, Note_on_c, 3, 45, 0
6, 13080, Note_on_c, 3, 45, 87
6, 13110, Note_on_c, 3, 52, 0
6, 13128, Note_on_c, 3, 57, 0
6, 13164, Note_on_c, 3, 45, 0
6, 13188, Note_on_c, 3, 45, 84
6, 13200, Note_on_c, 3, 57, 84
6, 13200, Note_on_c, 3, 52, 84
6, 13434, Note_on_c, 3, 45, 0
6, 13436, Note_on_c, 3, 52, 0
6, 13438, Note_on_c, 3, 57, 0
6, 13440, Note_on_c, 3, 40, 93
6, 13660, Note_on_c, 3, 59, 72
6, 13668, Note_on_c, 3, 64, 72
6, 13672, Note_on_c, 3, 67, 72
6, 13690, Note_on_c, 3, 40, 0
6, 13832, Note_on_c, 3, 59, 0
6, 13836, Note_on_c, 3, 64, 0
6, 13838, Note_on_c, 3, 67, 0
6, 13866, Note_on_c, 3, 59, 72
6, 13894, Note_on_c, 3, 59, 0
6, 13922, Note_on_c, 3, 40, 98
6, 14000, Note_on_c, 3, 59, 72
6, 14004, Note_on_c, 3, 40, 0
6, 14016, Note_on_c, 3, 59, 0
6, 14022, Note_on_c, 3, 40, 96
6, 14144, Note_on_c, 3, 59, 72
6, 14156, Note_on_c, 3, 64, 72
6, 14162, Note_on_c, 3, 67, 72
6, 14364, Note_on_c, 3, 40, 0
6, 14376, Note_on_c, 3, 59, 0
6, 14380, Note_on_c, 3, 64, 0
6, 14396, Note_on_c, 3, 67, 0
6, 14396, Note_on_c, 3, 43, 87
6, 14400, Note_on_c, 3, 50, 84
6, 14402, Note_on_c, 3, 55, 84
6, 14600, Note_on_c, 3, 43, 0
6, 14604, Note_on_c, 3, 50, 0
6, 14606, Note_on_c, 3, 55, 0
6, 14636, Note_on_c, 3, 43, 84
6, 14640, Note_on_c, 3, 50, 84
6, 14642, Note_on_c, 3, 55, 84
6, 14754, Note_on_c, 3, 43, 0
6, 14840, Note_on_c, 3, 50, 0
6, 14872, Note_on_c, 3, 55, 0
6, 14880, Note_on_c, 3, 45, 87
6, 14934, Note_on_c, 3, 52, 84
6, 14940, Note_on_c, 3, 57, 84
6, 14964, Note_on_c, 3, 45, 0
6, 15000, Note_on_c, 3, 45, 87
6, 15030, Note_on_c, 3, 52, 0
6, 15048, Note_on_c, 3, 57, 0
6, 15084, Note_on_c, 3, 45, 0
6, 15110, Note_on_c, 3, 45, 84
6, 15120, Note_on_c, 3, 52, 84
6, 15128, Note_on_c, 3, 57, 84
6, 15358, Note_on_c, 3, 45, 0
6, 15360, Note_on_c, 3, 52, 0
6, 15360, Note_on_c, 3, 57, 0
6, 15360, Note_on_c, 3, 40, 93
6, 15580, Note_on_c, 3, 59, 72
6, 15588, Note_on_c, 3, 64, 72
6, 15592, Note_on_c, 3, 67, 72
6, 15610, Note_on_c, 3, 40, 0
6, 15812, Note_on_c, 3, 59, 0
6, 15820, Note_on_c, 3, 64, 0
6, 15828, Note_on_c, 3, 67, 0
6, 15842, Note_on_c, 3, 40, 98
6, 15906, Note_on_c, 3, 40, 0
6, 15920, Note_on_c, 3, 59, 72
6, 15924, Note_on_c, 3, 64, 72
6, 15932, Note_on_c, 3, 59, 0
6, 15934, Note_on_c, 3, 64, 0
6, 15942, Note_on_c, 3, 40, 96
6, 16064, Note_on_c, 3, 59, 72
6, 16076, Note_on_c, 3, 64, 72
6, 16082, Note_on_c, 3, 67, 72
6, 16270, Note_on_c, 3, 40, 0
6, 16296, Note_on_c, 3, 59, 0
6, 16300, Note_on_c, 3, 64, 0
6, 16316, Note_on_c, 3, 67, 0
6, 16316, Note_on_c, 3, 43, 87
6, 16320, Note_on_c, 3, 50, 84
6, 16322, Note_on_c, 3, 55, 84
6, 16520, Note_on_c, 3, 43, 0
6, 16524, Note_on_c, 3, 50, 0
6, 16526, Note_on_c, 3, 55, 0
6, 16556, Note_on_c, 3, 43, 84
6, 16560, Note_on_c, 3, 50, 84
6, 16562, Note_on_c, 3, 55, 84
6, 16674, Note_on_c, 3, 43, 0
6, 16760, Note_on_c, 3, 50, 0
6, 16792, Note_on_c, 3, 55, 0
6, 16800, Note_on_c, 3, 45, 87
6, 16854, Note_on_c, 3, 52, 84
6, 16860, Note_on_c, 3, 57, 84
6, 16884, Note_on_c, 3, 45, 0
6, 16920, Note_on_c, 3, 45, 87
6, 16950, Note_on_c, 3, 52, 0
6, 16968, Note_on_c, 3, 57, 0
6, 17004, Note_on_c, 3, 45, 0
6, 17030, Note_on_c, 3, 45, 84
6, 17040, Note_on_c, 3, 52, 84
6, 17052, Note_on_c, 3, 57, 84
6, 17280, Note_on_c, 3, 45, 0
6, 17280, Note_on_c, 3, 52, 0
6, 17280, Note_on_c, 3, 57, 0
6, 17280, Note_on_c, 3, 40, 93
6, 17500, Note_on_c, 3, 59, 72
6, 17508, Note_on_c, 3, 64, 72
6, 17512, Note_on_c, 3, 67, 72
6, 17530, Note_on_c, 3, 40, 0
6, 17732, Note_on_c, 3, 59, 0
6, 17740, Note_on_c, 3, 64, 0
6, 17748, Note_on_c, 3, 67, 0
6, 17762, Note_on_c, 3, 40, 98
6, 17826, Note_on_c, 3, 40, 0
6, 17840, Note_on_c, 3, 59, 72
6, 17844, Note_on_c, 3, 64, 72
6, 17852, Note_on_c, 3, 59, 0
6, 17854, Note_on_c, 3, 64, 0
6, 17862, Note_on_c, 3, 40, 96
6, 17984, Note_on_c, 3, 59, 72
6, 17996, Note_on_c, 3, 64, 72
6, 18002, Note_on_c, 3, 67, 72
6, 18190, Note_on_c, 3, 40, 0
6, 18216, Note_on_c, 3, 59, 0
6, 18220, Note_on_c, 3, 64, 0
6, 18236, Note_on_c, 3, 67, 0
6, 18236, Note_on_c, 3, 43, 87
6, 18240, Note_on_c, 3, 50, 84
6, 18242, Note_on_c, 3, 55, 84
6, 18440, Note_on_c, 3, 43, 0
6, 18444, Note_on_c, 3, 50, 0
6, 18446, Note_on_c, 3, 55, 0
6, 18476, Note_on_c, 3, 43, 84
6, 18480, Note_on_c, 3, 50, 84
6, 18482, Note_on_c, 3, 55, 84
6, 18594, Note_on_c, 3, 43, 0
6, 18680, Note_on_c, 3, 50, 0
6, 18712, Note_on_c, 3, 55, 0
6, 18720, Note_on_c, 3, 45, 87
6, 18774, Note_on_c, 3, 52, 84
6, 18780, Note_on_c, 3, 57, 84
6, 18804, Note_on_c, 3, 45, 0
6, 18840, Note_on_c, 3, 45, 87
6, 18870, Note_on_c, 3, 52, 0
6, 18888, Note_on_c, 3, 57, 0
6, 18924, Note_on_c, 3, 45, 0
6, 18950, Note_on_c, 3, 45, 84
6, 18960, Note_on_c, 3, 52, 84
6, 18968, Note_on_c, 3, 57, 84
6, 19198, Note_on_c, 3, 45, 0
6, 19198, Note_on_c, 3, 52, 0
6, 19200, Note_on_c, 3, 57, 0
6, 19200, Note_on_c, 3, 40, 84
6, 19346, Note_on_c, 3, 40, 0
6, 20640, Note_on_c, 3, 54, 127
6, 20750, Note_on_c, 3, 54, 0
6, 20760, Note_on_c, 3, 52, 127
6, 20880, Note_on_c, 3, 50, 127
6, 20884, Note_on_c, 3, 52, 0
6, 21116, Note_on_c, 3, 50, 0
6, 21120, Note_on_c, 3, 57, 127
6, 21148, Pitch_bend_c, 3, 8712
6, 21152, Pitch_bend_c, 3, 9622
6, 21156, Pitch_bend_c, 3, 10402
6, 21160, Pitch_bend_c, 3, 11832
6, 21162, Pitch_bend_c, 3, 12872
6, 21166, Pitch_bend_c, 3, 13782
6, 21170, Pitch_bend_c, 3, 15212
6, 21172, Pitch_bend_c, 3, 15732
6, 21176, Pitch_bend_c, 3, 16252
6, 21180, Pitch_bend_c, 3, 16382
6, 21240, Note_on_c, 3, 60, 127
6, 21246, Note_on_c, 3, 57, 0
6, 21354, Control_c, 3, 1, 8
6, 21360, Control_c, 3, 1, 14
6, 21360, Note_on_c, 3, 65, 127
6, 21366, Control_c, 3, 1, 22
6, 21368, Note_on_c, 3, 60, 0
6, 21370, Control_c, 3, 1, 28
6, 21374, Control_c, 3, 1, 34
6, 21380, Control_c, 3, 1, 40
6, 21384, Control_c, 3, 1, 46
6, 21388, Control_c, 3, 1, 52
6, 21396, Control_c, 3, 1, 58
6, 21404, Control_c, 3, 1, 64
6, 21408, Control_c, 3, 1, 70
6, 21416, Control_c, 3, 1, 76
6, 21424, Control_c, 3, 1, 82
6, 21434, Control_c, 3, 1, 88
6, 21474, Control_c, 3, 1, 92
6, 21510, Control_c, 3, 1, 86
6, 21532, Note_on_c, 3, 65, 0
6, 21550, Control_c, 3, 1, 80
6, 21558, Pitch_bend_c, 3, 15732
6, 21560, Pitch_bend_c, 3, 15342
6, 21564, Pitch_bend_c, 3, 14822
6, 21568, Control_c, 3, 1, 74
6, 21568, Pitch_bend_c, 3, 13782
6, 21570, Pitch_bend_c, 3, 13002
6, 21574, Pitch_bend_c, 3, 11702
6, 21576, Control_c, 3, 1, 68
6, 21578, Pitch_bend_c, 3, 10662
6, 21582, Pitch_bend_c, 3, 9622
6, 21582, Control_c, 3, 1, 60
6, 21584, Pitch_bend_c, 3, 8972
6, 21586, Control_c, 3, 1, 54
6, 21588, Pitch_bend_c, 3, 8582
6, 21590, Control_c, 3, 1, 46
6, 21592, Pitch_bend_c, 3, 8192
6, 21594, Control_c, 3, 1, 38
6, 21596, Control_c, 3, 1, 30
6, 21600, Note_on_c, 3, 57, 127
6, 21600, Control_c, 3, 1, 20
6, 21604, Control_c, 3, 1, 6
6, 21610, Control_c, 3, 1, 0
6, 21616, Pitch_bend_c, 3, 8712
6, 21620, Pitch_bend_c, 3, 9362
6, 21622, Pitch_bend_c, 3, 10272
6, 21626, Pitch_bend_c, 3, 11702
6, 21630, Pitch_bend_c, 3, 13132
6, 21634, Pitch_bend_c, 3, 15342
6, 21636, Pitch_bend_c, 3, 15862
6, 21640, Pitch_bend_c, 3, 16252
6, 21644, Pitch_bend_c, 3, 16382
6, 21720, Note_on_c, 3, 60, 127
6, 21724, Note_on_c, 3, 57, 0
6, 21822, Control_c, 3, 1, 6
6, 21826, Control_c, 3, 1, 12
6, 21834, Control_c, 3, 1, 20
6, 21836, Control_c, 3, 1, 26
6, 21838, Note_on_c, 3, 60, 0
6, 21840, Note_on_c, 3, 65, 125
6, 21842, Control_c, 3, 1, 32
6, 21848, Control_c, 3, 1, 40
6, 21852, Control_c, 3, 1, 46
6, 21856, Control_c, 3, 1, 52
6, 21862, Control_c, 3, 1, 60
6, 21870, Control_c, 3, 1, 66
6, 21874, Control_c, 3, 1, 72
6, 21882, Control_c, 3, 1, 78
6, 21888, Control_c, 3, 1, 84
6, 21910, Control_c, 3, 1, 90
6, 21954, Control_c, 3, 1, 88
6, 21984, Control_c, 3, 1, 90
6, 22022, Control_c, 3, 1, 84
6, 22028, Control_c, 3, 1, 78
6, 22034, Control_c, 3, 1, 70
6, 22038, Control_c, 3, 1, 60
6, 22042, Note_on_c, 3, 65, 0
6, 22042, Control_c, 3, 1, 44
6, 22046, Control_c, 3, 1, 32
6, 22048, Control_c, 3, 1, 18
6, 22052, Control_c, 3, 1, 6
6, 22060, Control_c, 3, 1, 0
6, 22064, Pitch_bend_c, 3, 15732
6, 22068, Pitch_bend_c, 3, 14822
6, 22070, Pitch_bend_c, 3, 13262
6, 22074, Pitch_bend_c, 3, 10272
6, 22076, Pitch_bend_c, 3, 8712
6, 22078, Pitch_bend_c, 3, 8256
6, 22080, Note_on_c, 3, 57, 127
6, 22092, Pitch_bend_c, 3, 8576
6, 22096, Pitch_bend_c, 3, 8896
6, 22100, Pitch_bend_c, 3, 9280
6, 22104, Pitch_bend_c, 3, 9600
6, 22106, Pitch_bend_c, 3, 9984
6, 22110, Pitch_bend_c, 3, 10304
6, 22114, Pitch_bend_c, 3, 10752
6, 22116, Pitch_bend_c, 3, 11072
6, 22120, Pitch_bend_c, 3, 11392
6, 22124, Pitch_bend_c, 3, 11712
6, 22126, Pitch_bend_c, 3, 12096
6, 22130, Pitch_bend_c, 3, 12608
6, 22132, Pitch_bend_c, 3, 13120
6, 22136, Pitch_bend_c, 3, 13696
6, 22138, Pitch_bend_c, 3, 14528
6, 22140, Pitch_bend_c, 3, 15936
6, 22194, Note_on_c, 3, 57, 0
6, 22200, Note_on_c, 3, 60, 127
6, 22318, Note_on_c, 3, 60, 0
6, 22320, Note_on_c, 3, 65, 127
6, 22432, Pitch_bend_c, 3, 8256
6, 22438, Note_on_c, 3, 65, 0
6, 22440, Note_on_c, 3, 57, 127
6, 22504, Control_c, 3, 1, 2
6, 22506, Control_c, 3, 1, 8
6, 22510, Control_c, 3, 1, 14
6, 22512, Control_c, 3, 1, 20
6, 22516, Control_c, 3, 1, 28
6, 22520, Control_c, 3, 1, 34
6, 22524, Control_c, 3, 1, 42
6, 22534, Control_c, 3, 1, 48
6, 22570, Control_c, 3, 1, 54
6, 22600, Control_c, 3, 1, 60
6, 22610, Control_c, 3, 1, 62
6, 22818, Control_c, 3, 1, 56
6, 22826, Control_c, 3, 1, 50
6, 22830, Control_c, 3, 1, 44
6, 22832, Control_c, 3, 1, 38
6, 22836, Control_c, 3, 1, 16
6, 22838, Note_on_c, 3, 57, 0
6, 22840, Control_c, 3, 1, 8
6, 22844, Control_c, 3, 1, 0
6, 23040, Note_on_c, 3, 55, 123
6, 23150, Note_on_c, 3, 55, 0
6, 23160, Note_on_c, 3, 50, 127
6, 23256, Note_on_c, 3, 38, 90
6, 23292, Pitch_bend_c, 3, 8712
6, 23296, Pitch_bend_c, 3, 10012
6, 23300, Pitch_bend_c, 3, 10922
6, 23302, Pitch_bend_c, 3, 12352
6, 23306, Pitch_bend_c, 3, 13782
6, 23310, Pitch_bend_c, 3, 15602
6, 23312, Pitch_bend_c, 3, 15992
6, 23318, Pitch_bend_c, 3, 16382
6, 23348, Note_on_c, 3, 50, 0
6, 23392, Note_on_c, 3, 38, 0
6, 23394, Pitch_bend_c, 3, 15992
6, 23396, Pitch_bend_c, 3, 15472
6, 23400, Note_on_c, 3, 50, 127
6, 23400, Pitch_bend_c, 3, 13912
6, 23404, Pitch_bend_c, 3, 13002
6, 23406, Pitch_bend_c, 3, 11312
6, 23410, Pitch_bend_c, 3, 9882
6, 23414, Pitch_bend_c, 3, 9232
6, 23416, Pitch_bend_c, 3, 8712
6, 23422, Pitch_bend_c, 3, 8192
6, 23476, Pitch_bend_c, 3, 8582
6, 23478, Pitch_bend_c, 3, 10662
6, 23482, Pitch_bend_c, 3, 12352
6, 23484, Pitch_bend_c, 3, 14692
6, 23488, Pitch_bend_c, 3, 15472
6, 23490, Pitch_bend_c, 3, 16122
6, 23496, Pitch_bend_c, 3, 16382
6, 23682, Control_c, 3, 1, 6
6, 23690, Control_c, 3, 1, 14
6, 23694, Control_c, 3, 1, 20
6, 23698, Control_c, 3, 1, 26
6, 23710, Control_c, 3, 1, 32
6, 23722, Control_c, 3, 1, 38
6, 23728, Control_c, 3, 1, 44
6, 23740, Control_c, 3, 1, 50
6, 23754, Control_c, 3, 1, 52
6, 23870, Control_c, 3, 1, 46
6, 23874, Control_c, 3, 1, 40
6, 23878, Control_c, 3, 1, 34
6, 23882, Control_c, 3, 1, 24
6, 23888, Note_on_c, 3, 50, 0
6, 23888, Control_c, 3, 1, 12
6, 23892, Control_c, 3, 1, 2
6, 23892, Control_c, 3, 1, 0
6, 24000, Note_on_c, 3, 57, 127
6, 24012, Pitch_bend_c, 3, 8576
6, 24016, Pitch_bend_c, 3, 8896
6, 24020, Pitch_bend_c, 3, 9280
6, 24024, Pitch_bend_c, 3, 9600
6, 24026, Pitch_bend_c, 3, 9984
6, 24030, Pitch_bend_c, 3, 10304
6, 24034, Pitch_bend_c, 3, 10752
6, 24036, Pitch_bend_c, 3, 11072
6, 24040, Pitch_bend_c, 3, 11392
6, 24044, Pitch_bend_c, 3, 11712
6, 24046, Pitch_bend_c, 3, 12096
6, 24050, Pitch_bend_c, 3, 12608
6, 24052, Pitch_bend_c, 3, 13120
6, 24056, Pitch_bend_c, 3, 13696
6, 24058, Pitch_bend_c, 3, 14528
6, 24060, Pitch_bend_c, 3, 15936
6, 24118, Note_on_c, 3, 57, 0
6, 24120, Note_on_c, 3, 60, 127
6, 24240, Note_on_c, 3, 60, 0
6, 24240, Note_on_c, 3, 65, 127
6, 24350, Pitch_bend_c, 3, 15616
6, 24352, Pitch_bend_c, 3, 15104
6, 24354, Note_on_c, 3, 65, 0
6, 24356, Pitch_bend_c, 3, 14656
6, 24358, Pitch_bend_c, 3, 14144
6, 24360, Note_on_c, 3, 57, 127
6, 24362, Pitch_bend_c, 3, 13632
6, 24364, Pitch_bend_c, 3, 13184
6, 24368, Pitch_bend_c, 3, 12672
6, 24370, Pitch_bend_c, 3, 12288
6, 24374, Pitch_bend_c, 3, 11840
6, 24376, Pitch_bend_c, 3, 11456
6, 24380, Pitch_bend_c, 3, 11136
6, 24382, Pitch_bend_c, 3, 10624
6, 24386, Pitch_bend_c, 3, 10112
6, 24388, Pitch_bend_c, 3, 9792
6, 24392, Pitch_bend_c, 3, 9408
6, 24394, Pitch_bend_c, 3, 9024
6, 24398, Pitch_bend_c, 3, 8512
6, 24402, Pitch_bend_c, 3, 8256
6, 24426, Control_c, 3, 1, 8
6, 24430, Control_c, 3, 1, 14
6, 24432, Control_c, 3, 1, 20
6, 24436, Control_c, 3, 1, 28
6, 24440, Control_c, 3, 1, 34
6, 24444, Control_c, 3, 1, 42
6, 24454, Control_c, 3, 1, 48
6, 24490, Control_c, 3, 1, 54
6, 24520, Control_c, 3, 1, 60
6, 24530, Control_c, 3, 1, 62
6, 24738, Control_c, 3, 1, 56
6, 24746, Control_c, 3, 1, 50
6, 24750, Control_c, 3, 1, 44
6, 24752, Control_c, 3, 1, 38
6, 24756, Control_c, 3, 1, 16
6, 24758, Note_on_c, 3, 57, 0
6, 24760, Control_c, 3, 1, 8
6, 24764, Control_c, 3, 1, 0
6, 24960, Note_on_c, 3, 55, 123
6, 25070, Note_on_c, 3, 55, 0
6, 25080, Note_on_c, 3, 50, 127
6, 25182, Note_on_c, 3, 38, 90
6, 25212, Pitch_bend_c, 3, 8712
6, 25216, Pitch_bend_c, 3, 10012
6, 25220, Pitch_bend_c, 3, 10922
6, 25222, Pitch_bend_c, 3, 12352
6, 25226, Pitch_bend_c, 3, 13782
6, 25230, Pitch_bend_c, 3, 15602
6, 25232, Pitch_bend_c, 3, 15992
6, 25238, Pitch_bend_c, 3, 16382
6, 25288, Note_on_c, 3, 50, 0
6, 25314, Pitch_bend_c, 3, 15992
6, 25316, Pitch_bend_c, 3, 15472
6, 25320, Note_on_c, 3, 50, 127
6, 25320, Pitch_bend_c, 3, 13912
6, 25324, Pitch_bend_c, 3, 13002
6, 25326, Note_on_c, 3, 38, 0
6, 25326, Pitch_bend_c, 3, 11312
6, 25330, Pitch_bend_c, 3, 9882
6, 25334, Pitch_bend_c, 3, 9232
6, 25336, Pitch_bend_c, 3, 8712
6, 25342, Pitch_bend_c, 3, 8192
6, 25396, Pitch_bend_c, 3, 8582
6, 25398, Pitch_bend_c, 3, 10662
6, 25402, Pitch_bend_c, 3, 12352
6, 25404, Pitch_bend_c, 3, 14692
6, 25408, Pitch_bend_c, 3, 15472
6, 25410, Pitch_bend_c, 3, 16122
6, 25416, Pitch_bend_c, 3, 16382
6, 25602, Control_c, 3, 1, 6
6, 25610, Control_c, 3, 1, 14
6, 25614, Control_c, 3, 1, 20
6, 25618, Control_c, 3, 1, 26
6, 25630, Control_c, 3, 1, 32
6, 25642, Control_c, 3, 1, 38
6, 25648, Control_c, 3, 1, 44
6, 25660, Control_c, 3, 1, 50
6, 25674, Control_c, 3, 1, 52
6, 25680, Note_on_c, 3, 50, 0
6, 25680, Pitch_bend_c, 3, 8256
6, 25788, Note_on_c, 3, 50, 122
6, 25790, Control_c, 3, 1, 46
6, 25794, Control_c, 3, 1, 40
6, 25798, Control_c, 3, 1, 34
6, 25802, Control_c, 3, 1, 24
6, 25808, Control_c, 3, 1, 12
6, 25812, Pitch_bend_c, 3, 8582
6, 25812, Control_c, 3, 1, 2
6, 25812, Control_c, 3, 1, 0
6, 25814, Pitch_bend_c, 3, 9102
6, 25818, Pitch_bend_c, 3, 10272
6, 25822, Pitch_bend_c, 3, 11052
6, 25824, Pitch_bend_c, 3, 12612
6, 25830, Pitch_bend_c, 3, 14562
6, 25834, Pitch_bend_c, 3, 15862
6, 25838, Pitch_bend_c, 3, 16252
6, 25840, Pitch_bend_c, 3, 16382
6, 25894, Note_on_c, 3, 50, 0
6, 25900, Pitch_bend_c, 3, 15862
6, 25904, Pitch_bend_c, 3, 8256
6, 25904, Pitch_bend_c, 3, 13392
6, 25908, Pitch_bend_c, 3, 10532
6, 25910, Pitch_bend_c, 3, 8192
6, 25912, Pitch_bend_c, 3, 8064
6, 25914, Pitch_bend_c, 3, 8192
6, 25918, Pitch_bend_c, 3, 8582
6, 25920, Note_on_c, 3, 55, 113
6, 25920, Pitch_bend_c, 3, 8972
6, 25926, Pitch_bend_c, 3, 8452
6, 25926, Pitch_bend_c, 3, 8192
6, 25930, Pitch_bend_c, 3, 7936
6, 25936, Pitch_bend_c, 3, 8192
6, 26016, Note_on_c, 3, 55, 0
6, 26040, Note_on_c, 3, 57, 113
6, 26114, Note_on_c, 3, 57, 0
6, 26160, Note_on_c, 3, 59, 113
6, 26264, Note_on_c, 3, 59, 0
6, 26280, Note_on_c, 3, 53, 113
6, 26288, Pitch_bend_c, 3, 8712
6, 26292, Pitch_bend_c, 3, 9102
6, 26294, Pitch_bend_c, 3, 9622
6, 26298, Pitch_bend_c, 3, 10402
6, 26304, Pitch_bend_c, 3, 11312
6, 26308, Pitch_bend_c, 3, 12742
6, 26310, Pitch_bend_c, 3, 13522
6, 26314, Pitch_bend_c, 3, 14692
6, 26318, Pitch_bend_c, 3, 15472
6, 26320, Pitch_bend_c, 3, 15862
6, 26324, Pitch_bend_c, 3, 16252
6, 26326, Pitch_bend_c, 3, 16382
6, 26526, Pitch_bend_c, 3, 15992
6, 26528, Pitch_bend_c, 3, 15472
6, 26532, Pitch_bend_c, 3, 15082
6, 26536, Pitch_bend_c, 3, 14432
6, 26540, Pitch_bend_c, 3, 14042
6, 26544, Pitch_bend_c, 3, 13782
6, 26552, Pitch_bend_c, 3, 14172
6, 26558, Pitch_bend_c, 3, 15212
6, 26560, Pitch_bend_c, 3, 15732
6, 26564, Pitch_bend_c, 3, 16252
6, 26568, Pitch_bend_c, 3, 16382
6, 26586, Pitch_bend_c, 3, 15992
6, 26588, Pitch_bend_c, 3, 15602
6, 26592, Pitch_bend_c, 3, 14692
6, 26594, Pitch_bend_c, 3, 13912
6, 26598, Pitch_bend_c, 3, 13132
6, 26602, Pitch_bend_c, 3, 12742
6, 26604, Pitch_bend_c, 3, 12352
6, 26612, Pitch_bend_c, 3, 12872
6, 26616, Pitch_bend_c, 3, 13652
6, 26618, Pitch_bend_c, 3, 15212
6, 26622, Pitch_bend_c, 3, 15732
6, 26626, Pitch_bend_c, 3, 16252
6, 26630, Pitch_bend_c, 3, 16382
6, 26656, Pitch_bend_c, 3, 15732
6, 26660, Pitch_bend_c, 3, 15342
6, 26664, Pitch_bend_c, 3, 15082
6, 26672, Pitch_bend_c, 3, 15602
6, 26674, Pitch_bend_c, 3, 16122
6, 26680, Pitch_bend_c, 3, 16382
6, 26722, Pitch_bend_c, 3, 16252
6, 26726, Pitch_bend_c, 3, 16382
6, 26776, Pitch_bend_c, 3, 15992
6, 26780, Note_on_c, 3, 53, 0
6, 26786, Pitch_bend_c, 3, 16382
6, 26800, Pitch_bend_c, 3, 15992
6, 26804, Pitch_bend_c, 3, 13522
6, 26806, Pitch_bend_c, 3, 10532
6, 26810, Pitch_bend_c, 3, 7808
6, 26812, Pitch_bend_c, 3, 7552
6, 26816, Pitch_bend_c, 3, 7936
6, 26816, Pitch_bend_c, 3, 8192
6, 26820, Pitch_bend_c, 3, 8972
6, 26824, Pitch_bend_c, 3, 8582
6, 26826, Pitch_bend_c, 3, 8192
6, 26828, Pitch_bend_c, 3, 7808
6, 26836, Pitch_bend_c, 3, 8192
6, 26860, Note_on_c, 3, 53, 108
6, 26886, Pitch_bend_c, 3, 8712
6, 26890, Pitch_bend_c, 3, 9492
6, 26892, Pitch_bend_c, 3, 10402
6, 26896, Pitch_bend_c, 3, 11832
6, 26900, Pitch_bend_c, 3, 13002
6, 26902, Pitch_bend_c, 3, 14172
6, 26906, Pitch_bend_c, 3, 15472
6, 26908, Pitch_bend_c, 3, 15992
6, 26916, Pitch_bend_c, 3, 16382
6, 26994, Note_on_c, 3, 53, 0
6, 27000, Note_on_c, 3, 45, 122
6, 27002, Pitch_bend_c, 3, 14822
6, 27006, Pitch_bend_c, 3, 12742
6, 27010, Pitch_bend_c, 3, 8192
6, 27012, Pitch_bend_c, 3, 7296
6, 27016, Pitch_bend_c, 3, 7936
6, 27016, Pitch_bend_c, 3, 8192
6, 27020, Pitch_bend_c, 3, 8842
6, 27022, Pitch_bend_c, 3, 8972
6, 27026, Pitch_bend_c, 3, 8322
6, 27026, Pitch_bend_c, 3, 8192
6, 27030, Pitch_bend_c, 3, 7680
6, 27034, Pitch_bend_c, 3, 8064
6, 27036, Pitch_bend_c, 3, 8192
6, 27046, Pitch_bend_c, 3, 8064
6, 27048, Pitch_bend_c, 3, 8192
6, 27114, Note_on_c, 3, 45, 0
6, 27120, Note_on_c, 3, 40, 113
6, 27234, Note_on_c, 3, 40, 0
6, 27240, Note_on_c, 3, 43, 104
6, 27366, Pitch_bend_c, 3, 8582
6, 27374, Pitch_bend_c, 3, 8972
6, 27388, Pitch_bend_c, 3, 8582
6, 27394, Pitch_bend_c, 3, 8192
6, 27478, Pitch_bend_c, 3, 7808
6, 27482, Pitch_bend_c, 3, 7552
6, 27494, Pitch_bend_c, 3, 7936
6, 27498, Pitch_bend_c, 3, 8192
6, 27508, Pitch_bend_c, 3, 8582
6, 27512, Pitch_bend_c, 3, 9102
6, 27516, Pitch_bend_c, 3, 9622
6, 27518, Pitch_bend_c, 3, 10532
6, 27522, Pitch_bend_c, 3, 11052
6, 27524, Pitch_bend_c, 3, 11442
6, 27526, Pitch_bend_c, 3, 11572
6, 27536, Pitch_bend_c, 3, 11182
6, 27542, Pitch_bend_c, 3, 10662
6, 27544, Pitch_bend_c, 3, 10012
6, 27548, Pitch_bend_c, 3, 9622
6, 27550, Pitch_bend_c, 3, 9232
6, 27554, Pitch_bend_c, 3, 8842
6, 27558, Pitch_bend_c, 3, 8452
6, 27560, Pitch_bend_c, 3, 8322
6, 27572, Pitch_bend_c, 3, 8712
6, 27576, Pitch_bend_c, 3, 9492
6, 27578, Pitch_bend_c, 3, 9882
6, 27582, Pitch_bend_c, 3, 10792
6, 27586, Pitch_bend_c, 3, 11312
6, 27588, Pitch_bend_c, 3, 11832
6, 27592, Pitch_bend_c, 3, 12352
6, 27598, Pitch_bend_c, 3, 12612
6, 27604, Pitch_bend_c, 3, 12092
6, 27608, Pitch_bend_c, 3, 11702
6, 27612, Pitch_bend_c, 3, 11182
6, 27616, Pitch_bend_c, 3, 10792
6, 27618, Pitch_bend_c, 3, 9882
6, 27622, Pitch_bend_c, 3, 9492
6, 27624, Pitch_bend_c, 3, 9102
6, 27628, Pitch_bend_c, 3, 8712
6, 27634, Pitch_bend_c, 3, 8452
6, 27646, Pitch_bend_c, 3, 8842
6, 27650, Pitch_bend_c, 3, 10272
6, 27652, Pitch_bend_c, 3, 10662
6, 27656, Pitch_bend_c, 3, 11442
6, 27660, Pitch_bend_c, 3, 11832
6, 27662, Pitch_bend_c, 3, 12352
6, 27668, Pitch_bend_c, 3, 12612
6, 27678, Pitch_bend_c, 3, 12092
6, 27686, Pitch_bend_c, 3, 11572
6, 27688, Pitch_bend_c, 3, 11182
6, 27692, Pitch_bend_c, 3, 10792
6, 27696, Pitch_bend_c, 3, 9882
6, 27698, Pitch_bend_c, 3, 9492
6, 27700, Note_on_c, 3, 43, 0
6, 27702, Pitch_bend_c, 3, 8972
6, 27704, Pitch_bend_c, 3, 8582
6, 27710, Pitch_bend_c, 3, 8192
6, 27726, Note_on_c, 3, 45, 127
6, 27826, Note_on_c, 3, 45, 0
6, 27838, Note_on_c, 3, 45, 127
6, 27870, Pitch_bend_c, 3, 8842
6, 27872, Pitch_bend_c, 3, 9362
6, 27876, Pitch_bend_c, 3, 10922
6, 27878, Pitch_bend_c, 3, 11702
6, 27882, Pitch_bend_c, 3, 13522
6, 27886, Pitch_bend_c, 3, 14562
6, 27890, Pitch_bend_c, 3, 15862
6, 27892, Pitch_bend_c, 3, 16252
6, 27896, Pitch_bend_c, 3, 16382
6, 27934, Note_on_c, 3, 45, 0
6, 27964, Note_on_c, 3, 53, 122
6, 28050, Pitch_bend_c, 3, 15992
6, 28054, Pitch_bend_c, 3, 15212
6, 28058, Pitch_bend_c, 3, 14692
6, 28060, Pitch_bend_c, 3, 13002
6, 28064, Pitch_bend_c, 3, 11702
6, 28068, Pitch_bend_c, 3, 9752
6, 28070, Pitch_bend_c, 3, 9362
6, 28072, Note_on_c, 3, 53, 0
6, 28074, Pitch_bend_c, 3, 8582
6, 28076, Note_on_c, 3, 57, 122
6, 28078, Pitch_bend_c, 3, 8192
6, 28102, Pitch_bend_c, 3, 8582
6, 28104, Pitch_bend_c, 3, 9752
6, 28108, Pitch_bend_c, 3, 10662
6, 28110, Pitch_bend_c, 3, 12092
6, 28114, Pitch_bend_c, 3, 13912
6, 28118, Pitch_bend_c, 3, 15732
6, 28122, Pitch_bend_c, 3, 16122
6, 28124, Pitch_bend_c, 3, 16382
6, 28178, Pitch_bend_c, 3, 15992
6, 28180, Pitch_bend_c, 3, 15472
6, 28184, Pitch_bend_c, 3, 13652
6, 28188, Pitch_bend_c, 3, 11702
6, 28192, Note_on_c, 3, 57, 0
6, 28192, Pitch_bend_c, 3, 10012
6, 28196, Pitch_bend_c, 3, 9102
6, 28198, Pitch_bend_c, 3, 8192
6, 28198, Note_on_c, 3, 55, 125
6, 28204, Pitch_bend_c, 3, 7680
6, 28208, Pitch_bend_c, 3, 7296
6, 28210, Pitch_bend_c, 3, 7168
6, 28218, Pitch_bend_c, 3, 7552
6, 28222, Pitch_bend_c, 3, 7936
6, 28228, Pitch_bend_c, 3, 8192
6, 28232, Pitch_bend_c, 3, 8582
6, 28236, Pitch_bend_c, 3, 9752
6, 28238, Pitch_bend_c, 3, 11052
6, 28242, Pitch_bend_c, 3, 11962
6, 28244, Pitch_bend_c, 3, 14172
6, 28248, Pitch_bend_c, 3, 15212
6, 28250, Pitch_bend_c, 3, 15992
6, 28256, Pitch_bend_c, 3, 16382
6, 28388, Control_c, 3, 1, 6
6, 28396, Control_c, 3, 1, 12
6, 28406, Control_c, 3, 1, 18
6, 28420, Control_c, 3, 1, 26
6, 28434, Control_c, 3, 1, 32
6, 28452, Control_c, 3, 1, 38
6, 28468, Control_c, 3, 1, 44
6, 28482, Control_c, 3, 1, 50
6, 28516, Control_c, 3, 1, 56
6, 28530, Control_c, 3, 1, 62
6, 28550, Control_c, 3, 1, 68
6, 28554, Note_on_c, 3, 55, 0
6, 28560, Control_c, 3, 1, 1
6, 28560, Pitch_bend_c, 3, 8256
6, 28564, Note_on_c, 3, 55, 127
6, 28676, Note_on_c, 3, 55, 0
6, 28678, Note_on_c, 3, 50, 127
6, 28796, Note_on_c, 3, 57, 125
6, 28798, Note_on_c, 3, 50, 0
6, 28840, Pitch_bend_c, 3, 8712
6, 28842, Pitch_bend_c, 3, 9232
6, 28846, Pitch_bend_c, 3, 9752
6, 28850, Pitch_bend_c, 3, 11052
6, 28852, Pitch_bend_c, 3, 11962
6, 28856, Pitch_bend_c, 3, 13652
6, 28858, Pitch_bend_c, 3, 14952
6, 28866, Pitch_bend_c, 3, 15602
6, 28870, Pitch_bend_c, 3, 16382
6, 28918, Note_on_c, 3, 57, 0
6, 28930, Note_on_c, 3, 60, 126
6, 28998, Note_on_c, 3, 60, 0
6, 29048, Note_on_c, 3, 60, 127
6, 29128, Note_on_c, 3, 60, 0
6, 29146, Pitch_bend_c, 3, 15992
6, 29148, Pitch_bend_c, 3, 15472
6, 29152, Pitch_bend_c, 3, 14692
6, 29156, Pitch_bend_c, 3, 14042
6, 29158, Pitch_bend_c, 3, 13002
6, 29162, Pitch_bend_c, 3, 12352
6, 29166, Pitch_bend_c, 3, 10792
6, 29170, Pitch_bend_c, 3, 9882
6, 29172, Pitch_bend_c, 3, 9362
6, 29172, Note_on_c, 3, 62, 127
6, 29176, Pitch_bend_c, 3, 8972
6, 29180, Pitch_bend_c, 3, 8452
6, 29182, Pitch_bend_c, 3, 8192
6, 29214, Pitch_bend_c, 3, 8582
6, 29218, Pitch_bend_c, 3, 9102
6, 29220, Pitch_bend_c, 3, 10272
6, 29226, Pitch_bend_c, 3, 11442
6, 29230, Pitch_bend_c, 3, 13262
6, 29232, Pitch_bend_c, 3, 14172
6, 29236, Pitch_bend_c, 3, 15082
6, 29240, Pitch_bend_c, 3, 15862
6, 29244, Pitch_bend_c, 3, 16252
6, 29246, Pitch_bend_c, 3, 16382
6, 29322, Control_c, 3, 1, 6
6, 29328, Control_c, 3, 1, 12
6, 29332, Control_c, 3, 1, 18
6, 29340, Control_c, 3, 1, 24
6, 29346, Control_c, 3, 1, 30
6, 29352, Control_c, 3, 1, 36
6, 29362, Control_c, 3, 1, 42
6, 29370, Control_c, 3, 1, 48
6, 29378, Control_c, 3, 1, 54
6, 29386, Control_c, 3, 1, 60
6, 29396, Control_c, 3, 1, 66
6, 29428, Control_c, 3, 1, 72
6, 29516, Note_on_c, 3, 62, 0
6, 29520, Control_c, 3, 1, 0
6, 29526, Pitch_bend_c, 3, 8322
6, 29528, Pitch_bend_c, 3, 8712
6, 29532, Pitch_bend_c, 3, 9102
6, 29532, Note_on_c, 3, 50, 91
6, 29534, Pitch_bend_c, 3, 9752
6, 29538, Pitch_bend_c, 3, 10792
6, 29542, Pitch_bend_c, 3, 11702
6, 29546, Pitch_bend_c, 3, 13132
6, 29550, Pitch_bend_c, 3, 13782
6, 29554, Pitch_bend_c, 3, 15472
6, 29556, Pitch_bend_c, 3, 16122
6, 29560, Pitch_bend_c, 3, 16382
6, 29652, Note_on_c, 3, 45, 90
6, 29658, Note_on_c, 3, 50, 0
6, 29660, Pitch_bend_c, 3, 15992
6, 29662, Pitch_bend_c, 3, 15602
6, 29666, Pitch_bend_c, 3, 14692
6, 29670, Pitch_bend_c, 3, 14042
6, 29672, Pitch_bend_c, 3, 13782
6, 29672, Pitch_bend_c, 3, 16252
6, 29674, Pitch_bend_c, 3, 13132
6, 29674, Pitch_bend_c, 3, 15992
6, 29674, Pitch_bend_c, 3, 12742
6, 29676, Pitch_bend_c, 3, 15732
6, 29676, Pitch_bend_c, 3, 12352
6, 29678, Pitch_bend_c, 3, 14952
6, 29678, Pitch_bend_c, 3, 11832
6, 29680, Pitch_bend_c, 3, 14562
6, 29680, Pitch_bend_c, 3, 11442
6, 29680, Pitch_bend_c, 3, 14042
6, 29682, Pitch_bend_c, 3, 10012
6, 29684, Pitch_bend_c, 3, 13262
6, 29684, Pitch_bend_c, 3, 9752
6, 29684, Pitch_bend_c, 3, 13002
6, 29686, Pitch_bend_c, 3, 9492
6, 29686, Pitch_bend_c, 3, 11962
6, 29688, Pitch_bend_c, 3, 9232
6, 29688, Pitch_bend_c, 3, 11052
6, 29688, Pitch_bend_c, 3, 9102
6, 29690, Pitch_bend_c, 3, 10662
6, 29690, Pitch_bend_c, 3, 8712
6, 29692, Pitch_bend_c, 3, 10272
6, 29692, Pitch_bend_c, 3, 8582
6, 29694, Pitch_bend_c, 3, 9362
6, 29694, Pitch_bend_c, 3, 8452
6, 29696, Pitch_bend_c, 3, 9102
6, 29696, Pitch_bend_c, 3, 8322
6, 29696, Pitch_bend_c, 3, 8842
6, 29698, Pitch_bend_c, 3, 8192
6, 29704, Pitch_bend_c, 3, 7680
6, 29708, Pitch_bend_c, 3, 6272
6, 29712, Pitch_bend_c, 3, 5120
6, 29714, Pitch_bend_c, 3, 4096
6, 29718, Pitch_bend_c, 3, 3328
6, 29722, Pitch_bend_c, 3, 2048
6, 29726, Pitch_bend_c, 3, 896
6, 29730, Pitch_bend_c, 3, 128
6, 29730, Pitch_bend_c, 3, 0
6, 29758, Note_on_c, 3, 45, 0
6, 29758, Pitch_bend_c, 3, 8256
6, 29760, Note_on_c, 3, 40, 93
6, 29980, Note_on_c, 3, 59, 72
6, 29988, Note_on_c, 3, 64, 72
6, 29992, Note_on_c, 3, 67, 72
6, 30010, Note_on_c, 3, 40, 0
6, 30152, Note_on_c, 3, 59, 0
6, 30156, Note_on_c, 3, 64, 0
6, 30158, Note_on_c, 3, 67, 0
6, 30186, Note_on_c, 3, 59, 72
6, 30190, Note_on_c, 3, 64, 72
6, 30190, Note_on_c, 3, 67, 72
6, 30214, Note_on_c, 3, 59, 0
6, 30214, Note_on_c, 3, 64, 0
6, 30224, Note_on_c, 3, 67, 0
6, 30242, Note_on_c, 3, 40, 98
6, 30276, Note_on_c, 3, 40, 0
6, 30320, Note_on_c, 3, 59, 72
6, 30324, Note_on_c, 3, 64, 72
6, 30326, Note_on_c, 3, 67, 72
6, 30336, Note_on_c, 3, 59, 0
6, 30338, Note_on_c, 3, 64, 0
6, 30342, Note_on_c, 3, 40, 96
6, 30350, Note_on_c, 3, 67, 0
6, 30464, Note_on_c, 3, 59, 72
6, 30476, Note_on_c, 3, 64, 72
6, 30482, Note_on_c, 3, 67, 72
6, 30490, Note_on_c, 3, 40, 0
6, 30696, Note_on_c, 3, 59, 0
6, 30700, Note_on_c, 3, 64, 0
6, 30716, Note_on_c, 3, 67, 0
6, 30716, Note_on_c, 3, 43, 87
6, 30720, Note_on_c, 3, 50, 84
6, 30722, Note_on_c, 3, 55, 84
6, 30920, Note_on_c, 3, 43, 0
6, 30924, Note_on_c, 3, 50, 0
6, 30926, Note_on_c, 3, 55, 0
6, 30956, Note_on_c, 3, 43, 84
6, 30960, Note_on_c, 3, 50, 84
6, 30962, Note_on_c, 3, 55, 84
6, 31074, Note_on_c, 3, 43, 0
6, 31160, Note_on_c, 3, 50, 0
6, 31192, Note_on_c, 3, 55, 0
6, 31200, Note_on_c, 3, 45, 87
6, 31254, Note_on_c, 3, 52, 84
6, 31260, Note_on_c, 3, 57, 84
6, 31284, Note_on_c, 3, 45, 0
6, 31320, Note_on_c, 3, 45, 87
6, 31350, Note_on_c, 3, 52, 0
6, 31368, Note_on_c, 3, 57, 0
6, 31404, Note_on_c, 3, 45, 0
6, 31430, Note_on_c, 3, 45, 84
6, 31440, Note_on_c, 3, 52, 84
6, 31452, Note_on_c, 3, 57, 84
6, 31676, Note_on_c, 3, 52, 0
6, 31678, Note_on_c, 3, 45, 0
6, 31680, Note_on_c, 3, 57, 0
6, 31680, Note_on_c, 3, 40, 93
6, 31900, Note_on_c, 3, 59, 72
6, 31908, Note_on_c, 3, 64, 72
6, 31912, Note_on_c, 3, 67, 72
6, 31930, Note_on_c, 3, 40, 0
6, 32132, Note_on_c, 3, 59, 0
6, 32140, Note_on_c, 3, 64, 0
6, 32148, Note_on_c, 3, 67, 0
6, 32162, Note_on_c, 3, 40, 98
6, 32226, Note_on_c, 3, 40, 0
6, 32240, Note_on_c, 3, 59, 72
6, 32244, Note_on_c, 3, 64, 72
6, 32262, Note_on_c, 3, 40, 96
6, 32264, Note_on_c, 3, 59, 0
6, 32266, Note_on_c, 3, 64, 0
6, 32384, Note_on_c, 3, 59, 72
6, 32396, Note_on_c, 3, 64, 72
6, 32402, Note_on_c, 3, 67, 72
6, 32590, Note_on_c, 3, 40, 0
6, 32616, Note_on_c, 3, 59, 0
6, 32620, Note_on_c, 3, 64, 0
6, 32636, Note_on_c, 3, 67, 0
6, 32636, Note_on_c, 3, 43, 87
6, 32640, Note_on_c, 3, 50, 84
6, 32642, Note_on_c, 3, 55, 84
6, 32840, Note_on_c, 3, 43, 0
6, 32844, Note_on_c, 3, 50, 0
6, 32846, Note_on_c, 3, 55, 0
6, 32876, Note_on_c, 3, 43, 84
6, 32880, Note_on_c, 3, 50, 84
6, 32882, Note_on_c, 3, 55, 84
6, 32994, Note_on_c, 3, 43, 0
6, 33080, Note_on_c, 3, 50, 0
6, 33112, Note_on_c, 3, 55, 0
6, 33120, Note_on_c, 3, 45, 87
6, 33174, Note_on_c, 3, 52, 84
6, 33180, Note_on_c, 3, 57, 84
6, 33204, Note_on_c, 3, 45, 0
6, 33240, Note_on_c, 3, 45, 87
6, 33270, Note_on_c, 3, 52, 0
6, 33288, Note_on_c, 3, 57, 0
6, 33324, Note_on_c, 3, 45, 0
6, 33348, Note_on_c, 3, 45, 84
6, 33360, Note_on_c, 3, 57, 84
6, 33360, Note_on_c, 3, 52, 84
6, 33594, Note_on_c, 3, 45, 0
6, 33596, Note_on_c, 3, 52, 0
6, 33598, Note_on_c, 3, 57, 0
6, 33600, Note_on_c, 3, 40, 93
6, 33820, Note_on_c, 3, 59, 72
6, 33828, Note_on_c, 3, 64, 72
6, 33832, Note_on_c, 3, 67, 72
6, 33850, Note_on_c, 3, 40, 0
6, 33992, Note_on_c, 3, 59, 0
6, 33996, Note_on_c, 3, 64, 0
6, 33998, Note_on_c, 3, 67, 0
6, 34026, Note_on_c, 3, 59, 72
6, 34054, Note_on_c, 3, 59, 0
6, 34082, Note_on_c, 3, 40, 98
6, 34160, Note_on_c, 3, 59, 72
6, 34164, Note_on_c, 3, 40, 0
6, 34176, Note_on_c, 3, 59, 0
6, 34182, Note_on_c, 3, 40, 96
6, 34304, Note_on_c, 3, 59, 72
6, 34316, Note_on_c, 3, 64, 72
6, 34322, Note_on_c, 3, 67, 72
6, 34524, Note_on_c, 3, 40, 0
6, 34536, Note_on_c, 3, 59, 0
6, 34540, Note_on_c, 3, 64, 0
6, 34556, Note_on_c, 3, 67, 0
6, 34556, Note_on_c, 3, 43, 87
6, 34560, Note_on_c, 3, 50, 84
6, 34562, Note_on_c, 3, 55, 84
6, 34760, Note_on_c, 3, 43, 0
6, 34764, Note_on_c, 3, 50, 0
6, 34766, Note_on_c, 3, 55, 0
6, 34796, Note_on_c, 3, 43, 84
6, 34800, Note_on_c, 3, 50, 84
6, 34802, Note_on_c, 3, 55, 84
6, 34914, Note_on_c, 3, 43, 0
6, 35000, Note_on_c, 3, 50, 0
6, 35032, Note_on_c, 3, 55, 0
6, 35040, Note_on_c, 3, 45, 87
6, 35094, Note_on_c, 3, 52, 84
6, 35100, Note_on_c, 3, 57, 84
6, 35124, Note_on_c, 3, 45, 0
6, 35160, Note_on_c, 3, 45, 87
6, 35190, Note_on_c, 3, 52, 0
6, 35208, Note_on_c, 3, 57, 0
6, 35244, Note_on_c, 3, 45, 0
6, 35270, Note_on_c, 3, 45, 84
6, 35280, Note_on_c, 3, 52, 84
6, 35288, Note_on_c, 3, 57, 84
6, 35518, Note_on_c, 3, 45, 0
6, 35520, Note_on_c, 3, 52, 0
6, 35520, Note_on_c, 3, 57, 0
6, 35520, Note_on_c, 3, 40, 93
6, 35740, Note_on_c, 3, 59, 72
6, 35748, Note_on_c, 3, 64, 72
6, 35752, Note_on_c, 3, 67, 72
6, 35770, Note_on_c, 3, 40, 0
6, 35972, Note_on_c, 3, 59, 0
6, 35980, Note_on_c, 3, 64, 0
6, 35988, Note_on_c, 3, 67, 0
6, 36002, Note_on_c, 3, 40, 98
6, 36066, Note_on_c, 3, 40, 0
6, 36080, Note_on_c, 3, 59, 72
6, 36084, Note_on_c, 3, 64, 72
6, 36092, Note_on_c, 3, 59, 0
6, 36094, Note_on_c, 3, 64, 0
6, 36102, Note_on_c, 3, 40, 96
6, 36224, Note_on_c, 3, 59, 72
6, 36236, Note_on_c, 3, 64, 72
6, 36242, Note_on_c, 3, 67, 72
6, 36430, Note_on_c, 3, 40, 0
6, 36456, Note_on_c, 3, 59, 0
6, 36460, Note_on_c, 3, 64, 0
6, 36476, Note_on_c, 3, 67, 0
6, 36476, Note_on_c, 3, 43, 87
6, 36480, Note_on_c, 3, 50, 84
6, 36482, Note_on_c, 3, 55, 84
6, 36680, Note_on_c, 3, 43, 0
6, 36684, Note_on_c, 3, 50, 0
6, 36686, Note_on_c, 3, 55, 0
6, 36716, Note_on_c, 3, 43, 84
6, 36720, Note_on_c, 3, 50, 84
6, 36722, Note_on_c, 3, 55, 84
6, 36834, Note_on_c, 3, 43, 0
6, 36920, Note_on_c, 3, 50, 0
6, 36952, Note_on_c, 3, 55, 0
6, 36960, Note_on_c, 3, 45, 87
6, 37014, Note_on_c, 3, 52, 84
6, 37020, Note_on_c, 3, 57, 84
6, 37044, Note_on_c, 3, 45, 0
6, 37080, Note_on_c, 3, 45, 87
6, 37110, Note_on_c, 3, 52, 0
6, 37128, Note_on_c, 3, 57, 0
6, 37164, Note_on_c, 3, 45, 0
6, 37190, Note_on_c, 3, 45, 84
6, 37200, Note_on_c, 3, 52, 84
6, 37212, Note_on_c, 3, 57, 84
6, 37440, Note_on_c, 3, 45, 0
6, 37440, Note_on_c, 3, 52, 0
6, 37440, Note_on_c, 3, 57, 0
6, 37440, Note_on_c, 3, 40, 93
6, 37660, Note_on_c, 3, 59, 72
6, 37668, Note_on_c, 3, 64, 72
6, 37672, Note_on_c, 3, 67, 72
6, 37690, Note_on_c, 3, 40, 0
6, 37892, Note_on_c, 3, 59, 0
6, 37900, Note_on_c, 3, 64, 0
6, 37908, Note_on_c, 3, 67, 0
6, 37922, Note_on_c, 3, 40, 98
6, 37986, Note_on_c, 3, 40, 0
6, 38000, Note_on_c, 3, 59, 72
6, 38004, Note_on_c, 3, 64, 72
6, 38012, Note_on_c, 3, 59, 0
6, 38014, Note_on_c, 3, 64, 0
6, 38022, Note_on_c, 3, 40, 96
6, 38144, Note_on_c, 3, 59, 72
6, 38156, Note_on_c, 3, 64, 72
6, 38162, Note_on_c, 3, 67, 72
6, 38350, Note_on_c, 3, 40, 0
6, 38376, Note_on_c, 3, 59, 0
6, 38380, Note_on_c, 3, 64, 0
6, 38396, Note_on_c, 3, 67, 0
6, 38396, Note_on_c, 3, 43, 87
6, 38400, Note_on_c, 3, 50, 84
6, 38402, Note_on_c, 3, 55, 84
6, 38600, Note_on_c, 3, 43, 0
6, 38604, Note_on_c, 3, 50, 0
6, 38606, Note_on_c, 3, 55, 0
6, 38636, Note_on_c, 3, 43, 84
6, 38640, Note_on_c, 3, 50, 84
6, 38642, Note_on_c, 3, 55, 84
6, 38754, Note_on_c, 3, 43, 0
6, 38840, Note_on_c, 3, 50, 0
6, 38872, Note_on_c, 3, 55, 0
6, 38880, Note_on_c, 3, 45, 87
6, 38934, Note_on_c, 3, 52, 84
6, 38940, Note_on_c, 3, 57, 84
6, 38964, Note_on_c, 3, 45, 0
6, 39000, Note_on_c, 3, 45, 87
6, 39030, Note_on_c, 3, 52, 0
6, 39048, Note_on_c, 3, 57, 0
6, 39084, Note_on_c, 3, 45, 0
6, 39110, Note_on_c, 3, 45, 84
6, 39120, Note_on_c, 3, 52, 84
6, 39128, Note_on_c, 3, 57, 84
6, 39358, Note_on_c, 3, 45, 0
6, 39358, Note_on_c, 3, 52, 0
6, 39360, Note_on_c, 3, 57, 0
6, 39360, Note_on_c, 3, 40, 84
6, 39506, Note_on_c, 3, 40, 0
6, 40800, Note_on_c, 3, 54, 127
6, 40910, Note_on_c, 3, 54, 0
6, 40920, Note_on_c, 3, 52, 127
6, 41040, Note_on_c, 3, 50, 127
6, 41044, Note_on_c, 3, 52, 0
6, 41276, Note_on_c, 3, 50, 0
6, 41280, Note_on_c, 3, 57, 127
6, 41308, Pitch_bend_c, 3, 8712
6, 41312, Pitch_bend_c, 3, 9622
6, 41316, Pitch_bend_c, 3, 10402
6, 41320, Pitch_bend_c, 3, 11832
6, 41322, Pitch_bend_c, 3, 12872
6, 41326, Pitch_bend_c, 3, 13782
6, 41330, Pitch_bend_c, 3, 15212
6, 41332, Pitch_bend_c, 3, 15732
6, 41336, Pitch_bend_c, 3, 16252
6, 41340, Pitch_bend_c, 3, 16382
6, 41400, Note_on_c, 3, 60, 127
6, 41406, Note_on_c, 3, 57, 0
6, 41514, Control_c, 3, 1, 8
6, 41520, Control_c, 3, 1, 14
6, 41520, Note_on_c, 3, 65, 127
6, 41526, Control_c, 3, 1, 22
6, 41528, Note_on_c, 3, 60, 0
6, 41530, Control_c, 3, 1, 28
6, 41534, Control_c, 3, 1, 34
6, 41540, Control_c, 3, 1, 40
6, 41544, Control_c, 3, 1, 46
6, 41548, Control_c, 3, 1, 52
6, 41556, Control_c, 3, 1, 58
6, 41564, Control_c, 3, 1, 64
6, 41568, Control_c, 3, 1, 70
6, 41576, Control_c, 3, 1, 76
6, 41584, Control_c, 3, 1, 82
6, 41594, Control_c, 3, 1, 88
6, 41634, Control_c, 3, 1, 92
6, 41670, Control_c, 3, 1, 86
6, 41692, Note_on_c, 3, 65, 0
6, 41710, Control_c, 3, 1, 80
6, 41718, Pitch_bend_c, 3, 15732
6, 41720, Pitch_bend_c, 3, 15342
6, 41724, Pitch_bend_c, 3, 14822
6, 41728, Control_c, 3, 1, 74
6, 41728, Pitch_bend_c, 3, 13782
6, 41730, Pitch_bend_c, 3, 13002
6, 41734, Pitch_bend_c, 3, 11702
6, 41736, Control_c, 3, 1, 68
6, 41738, Pitch_bend_c, 3, 10662
6, 41742, Pitch_bend_c, 3, 9622
6, 41742, Control_c, 3, 1, 60
6, 41744, Pitch_bend_c, 3, 8972
6, 41746, Control_c, 3, 1, 54
6, 41748, Pitch_bend_c, 3, 8582
6, 41750, Control_c, 3, 1, 46
6, 41752, Pitch_bend_c, 3, 8192
6, 41754, Control_c, 3, 1, 38
6, 41756, Control_c, 3, 1, 30
6, 41760, Note_on_c, 3, 57, 127
6, 41760, Control_c, 3, 1, 20
6, 41764, Control_c, 3, 1, 6
6, 41770, Control_c, 3, 1, 0
6, 41776, Pitch_bend_c, 3, 8712
6, 41780, Pitch_bend_c, 3, 9362
6, 41782, Pitch_bend_c, 3, 10272
6, 41786, Pitch_bend_c, 3, 11702
6, 41790, Pitch_bend_c, 3, 13132
6, 41794, Pitch_bend_c, 3, 15342
6, 41796, Pitch_bend_c, 3, 15862
6, 41800, Pitch_bend_c, 3, 16252
6, 41804, Pitch_bend_c, 3, 16382
6, 41880, Note_on_c, 3, 60, 127
6, 41884, Note_on_c, 3, 57, 0
6, 41982, Control_c, 3, 1, 6
6, 41986, Control_c, 3, 1, 12
6, 41994, Control_c, 3, 1, 20
6, 41996, Control_c, 3, 1, 26
6, 41998, Note_on_c, 3, 60, 0
6, 42000, Note_on_c, 3, 65, 125
6, 42002, Control_c, 3, 1, 32
6, 42008, Control_c, 3, 1, 40
6, 42012, Control_c, 3, 1, 46
6, 42016, Control_c, 3, 1, 52
6, 42022, Control_c, 3, 1, 60
6, 42030, Control_c, 3, 1, 66
6, 42034, Control_c, 3, 1, 72
6, 42042, Control_c, 3, 1, 78
6, 42048, Control_c, 3, 1, 84
6, 42070, Control_c, 3, 1, 90
6, 42114, Control_c, 3, 1, 88
6, 42144, Control_c, 3, 1, 90
6, 42182, Control_c, 3, 1, 84
6, 42188, Control_c, 3, 1, 78
6, 42194, Control_c, 3, 1, 70
6, 42198, Control_c, 3, 1, 60
6, 42202, Note_on_c, 3, 65, 0
6, 42202, Control_c, 3, 1, 44
6, 42206, Control_c, 3, 1, 32
6, 42208, Control_c, 3, 1, 18
6, 42212, Control_c, 3, 1, 6
6, 42220, Control_c, 3, 1, 0
6, 42224, Pitch_bend_c, 3, 15732
6, 42228, Pitch_bend_c, 3, 14822
6, 42230, Pitch_bend_c, 3, 13262
6, 42234, Pitch_bend_c, 3, 10272
6, 42236, Pitch_bend_c, 3, 8712
6, 42238, Pitch_bend_c, 3, 8256
6, 42240, Note_on_c, 3, 57, 127
6, 42252, Pitch_bend_c, 3, 8576
6, 42256, Pitch_bend_c, 3, 8896
6, 42260, Pitch_bend_c, 3, 9280
6, 42264, Pitch_bend_c, 3, 9600
6, 42266, Pitch_bend_c, 3, 9984
6, 42270, Pitch_bend_c, 3, 10304
6, 42274, Pitch_bend_c, 3, 10752
6, 42276, Pitch_bend_c, 3, 11072
6, 42280, Pitch_bend_c, 3, 11392
6, 42284, Pitch_bend_c, 3, 11712
6, 42286, Pitch_bend_c, 3, 12096
6, 42290, Pitch_bend_c, 3, 12608
6, 42292, Pitch_bend_c, 3, 13120
6, 42296, Pitch_bend_c, 3, 13696
6, 42298, Pitch_bend_c, 3, 14528
6, 42300, Pitch_bend_c, 3, 15936
6, 42354, Note_on_c, 3, 57, 0
6, 42360, Note_on_c, 3, 60, 127
6, 42478, Note_on_c, 3, 60, 0
6, 42480, Note_on_c, 3, 65, 127
6, 42592, Pitch_bend_c, 3, 8256
6, 42598, Note_on_c, 3, 65, 0
6, 42600, Note_on_c, 3, 57, 127
6, 42664, Control_c, 3, 1, 2
6, 42666, Control_c, 3, 1, 8
6, 42670, Control_c, 3, 1, 14
6, 42672, Control_c, 3, 1, 20
6, 42676, Control_c, 3, 1, 28
6, 42680, Control_c, 3, 1, 34
6, 42684, Control_c, 3, 1, 42
6, 42694, Control_c, 3, 1, 48
6, 42730, Control_c, 3, 1, 54
6, 42760, Control_c, 3, 1, 60
6, 42770, Control_c, 3, 1, 62
6, 42978, Control_c, 3, 1, 56
6, 42986, Control_c, 3, 1, 50
6, 42990, Control_c, 3, 1, 44
6, 42992, Control_c, 3, 1, 38
6, 42996, Control_c, 3, 1, 16
6, 42998, Note_on_c, 3, 57, 0
6, 43000, Control_c, 3, 1, 8
6, 43004, Control_c, 3, 1, 0
6, 43200, Note_on_c, 3, 55, 123
6, 43310, Note_on_c, 3, 55, 0
6, 43320, Note_on_c, 3, 50, 127
6, 43416, Note_on_c, 3, 38, 90
6, 43452, Pitch_bend_c, 3, 8712
6, 43456, Pitch_bend_c, 3, 10012
6, 43460, Pitch_bend_c, 3, 10922
6, 43462, Pitch_bend_c, 3, 12352
6, 43466, Pitch_bend_c, 3, 13782
6, 43470, Pitch_bend_c, 3, 15602
6, 43472, Pitch_bend_c, 3, 15992
6, 43478, Pitch_bend_c, 3, 16382
6, 43508, Note_on_c, 3, 50, 0
6, 43552, Note_on_c, 3, 38, 0
6, 43554, Pitch_bend_c, 3, 15992
6, 43556, Pitch_bend_c, 3, 15472
6, 43560, Note_on_c, 3, 50, 127
6, 43560, Pitch_bend_c, 3, 13912
6, 43564, Pitch_bend_c, 3, 13002
6, 43566, Pitch_bend_c, 3, 11312
6, 43570, Pitch_bend_c, 3, 9882
6, 43574, Pitch_bend_c, 3, 9232
6, 43576, Pitch_bend_c, 3, 8712
6, 43582, Pitch_bend_c, 3, 8192
6, 43636, Pitch_bend_c, 3, 8582
6, 43638, Pitch_bend_c, 3, 10662
6, 43642, Pitch_bend_c, 3, 12352
6, 43644, Pitch_bend_c, 3, 14692
6, 43648, Pitch_bend_c, 3, 15472
6, 43650, Pitch_bend_c, 3, 16122
6, 43656, Pitch_bend_c, 3, 16382
6, 43842, Control_c, 3, 1, 6
6, 43850, Control_c, 3, 1, 14
6, 43854, Control_c, 3, 1, 20
6, 43858, Control_c, 3, 1, 26
6, 43870, Control_c, 3, 1, 32
6, 43882, Control_c, 3, 1, 38
6, 43888, Control_c, 3, 1, 44
6, 43900, Control_c, 3, 1, 50
6, 43914, Control_c, 3, 1, 52
6, 44030, Control_c, 3, 1, 46
6, 44034, Control_c, 3, 1, 40
6, 44038, Control_c, 3, 1, 34
6, 44042, Control_c, 3, 1, 24
6, 44048, Note_on_c, 3, 50, 0
6, 44048, Control_c, 3, 1, 12
6, 44052, Control_c, 3, 1, 2
6, 44052, Control_c, 3, 1, 0
6, 44160, Note_on_c, 3, 57, 127
6, 44172, Pitch_bend_c, 3, 8576
6, 44176, Pitch_bend_c, 3, 8896
6, 44180, Pitch_bend_c, 3, 9280
6, 44184, Pitch_bend_c, 3, 9600
6, 44186, Pitch_bend_c, 3, 9984
6, 44190, Pitch_bend_c, 3, 10304
6, 44194, Pitch_bend_c, 3, 10752
6, 44196, Pitch_bend_c, 3, 11072
6, 44200, Pitch_bend_c, 3, 11392
6, 44204, Pitch_bend_c, 3, 11712
6, 44206, Pitch_bend_c, 3, 12096
6, 44210, Pitch_bend_c, 3, 12608
6, 44212, Pitch_bend_c, 3, 13120
6, 44216, Pitch_bend_c, 3, 13696
6, 44218, Pitch_bend_c, 3, 14528
6, 44220, Pitch_bend_c, 3, 15936
6, 44278, Note_on_c, 3, 57, 0
6, 44280, Note_on_c, 3, 60, 127
6, 44400, Note_on_c, 3, 60, 0
6, 44400, Note_on_c, 3, 65, 127
6, 44510, Pitch_bend_c, 3, 15616
6, 44512, Pitch_bend_c, 3, 15104
6, 44514, Note_on_c, 3, 65, 0
6, 44516, Pitch_bend_c, 3, 14656
6, 44518, Pitch_bend_c, 3, 14144
6, 44520, Note_on_c, 3, 57, 127
6, 44522, Pitch_bend_c, 3, 13632
6, 44524, Pitch_bend_c, 3, 13184
6, 44528, Pitch_bend_c, 3, 12672
6, 44530, Pitch_bend_c, 3, 12288
6, 44534, Pitch_bend_c, 3, 11840
6, 44536, Pitch_bend_c, 3, 11456
6, 44540, Pitch_bend_c, 3, 11136
6, 44542, Pitch_bend_c, 3, 10624
6, 44546, Pitch_bend_c, 3, 10112
6, 44548, Pitch_bend_c, 3, 9792
6, 44552, Pitch_bend_c, 3, 9408
6, 44554, Pitch_bend_c, 3, 9024
6, 44558, Pitch_bend_c, 3, 8512
6, 44562, Pitch_bend_c, 3, 8256
6, 44586, Control_c, 3, 1, 8
6, 44590, Control_c, 3, 1, 14
6, 44592, Control_c, 3, 1, 20
6, 44596, Control_c, 3, 1, 28
6, 44600, Control_c, 3, 1, 34
6, 44604, Control_c, 3, 1, 42
6, 44614, Control_c, 3, 1, 48
6, 44650, Control_c, 3, 1, 54
6, 44680, Control_c, 3, 1, 60
6, 44690, Control_c, 3, 1, 62
6, 44898, Control_c, 3, 1, 56
6, 44906, Control_c, 3, 1, 50
6, 44910, Control_c, 3, 1, 44
6, 44912, Control_c, 3, 1, 38
6, 44916, Control_c, 3, 1, 16
6, 44918, Note_on_c, 3, 57, 0
6, 44920, Control_c, 3, 1, 8
6, 44924, Control_c, 3, 1, 0
6, 45120, Note_on_c, 3, 55, 123
6, 45230, Note_on_c, 3, 55, 0
6, 45240, Note_on_c, 3, 50, 127
6, 45342, Note_on_c, 3, 38, 90
6, 45372, Pitch_bend_c, 3, 8712
6, 45376, Pitch_bend_c, 3, 10012
6, 45380, Pitch_bend_c, 3, 10922
6, 45382, Pitch_bend_c, 3, 12352
6, 45386, Pitch_bend_c, 3, 13782
6, 45390, Pitch_bend_c, 3, 15602
6, 45392, Pitch_bend_c, 3, 15992
6, 45398, Pitch_bend_c, 3, 16382
6, 45448, Note_on_c, 3, 50, 0
6, 45474, Pitch_bend_c, 3, 15992
6, 45476, Pitch_bend_c, 3, 15472
6, 45480, Note_on_c, 3, 50, 127
6, 45480, Pitch_bend_c, 3, 13912
6, 45484, Pitch_bend_c, 3, 13002
6, 45486, Note_on_c, 3, 38, 0
6, 45486, Pitch_bend_c, 3, 11312
6, 45490, Pitch_bend_c, 3, 9882
6, 45494, Pitch_bend_c, 3, 9232
6, 45496, Pitch_bend_c, 3, 8712
6, 45502, Pitch_bend_c, 3, 8192
6, 45556, Pitch_bend_c, 3, 8582
6, 45558, Pitch_bend_c, 3, 10662
6, 45562, Pitch_bend_c, 3, 12352
6, 45564, Pitch_bend_c, 3, 14692
6, 45568, Pitch_bend_c, 3, 15472
6, 45570, Pitch_bend_c, 3, 16122
6, 45576, Pitch_bend_c, 3, 16382
6, 45762, Control_c, 3, 1, 6
6, 45770, Control_c, 3, 1, 14
6, 45774, Control_c, 3, 1, 20
6, 45778, Control_c, 3, 1, 26
6, 45790, Control_c, 3, 1, 32
6, 45802, Control_c, 3, 1, 38
6, 45808, Control_c, 3, 1, 44
6, 45820, Control_c, 3, 1, 50
6, 45834, Control_c, 3, 1, 52
6, 45840, Note_on_c, 3, 50, 0
6, 45840, Pitch_bend_c, 3, 8256
6, 45948, Note_on_c, 3, 50, 122
6, 45950, Control_c, 3, 1, 46
6, 45954, Control_c, 3, 1, 40
6, 45958, Control_c, 3, 1, 34
6, 45962, Control_c, 3, 1, 24
6, 45968, Control_c, 3, 1, 12
6, 45972, Pitch_bend_c, 3, 8582
6, 45972, Control_c, 3, 1, 2
6, 45972, Control_c, 3, 1, 0
6, 45974, Pitch_bend_c, 3, 9102
6, 45978, Pitch_bend_c, 3, 10272
6, 45982, Pitch_bend_c, 3, 11052
6, 45984, Pitch_bend_c, 3, 12612
6, 45990, Pitch_bend_c, 3, 14562
6, 45994, Pitch_bend_c, 3, 15862
6, 45998, Pitch_bend_c, 3, 16252
6, 46000, Pitch_bend_c, 3, 16382
6, 46054, Note_on_c, 3, 50, 0
6, 46060, Pitch_bend_c, 3, 15862
6, 46064, Pitch_bend_c, 3, 8256
6, 46064, Pitch_bend_c, 3, 13392
6, 46068, Pitch_bend_c, 3, 10532
6, 46070, Pitch_bend_c, 3, 8192
6, 46072, Pitch_bend_c, 3, 8064
6, 46074, Pitch_bend_c, 3, 8192
6, 46078, Pitch_bend_c, 3, 8582
6, 46080, Note_on_c, 3, 55, 113
6, 46080, Pitch_bend_c, 3, 8972
6, 46086, Pitch_bend_c, 3, 8452
6, 46086, Pitch_bend_c, 3, 8192
6, 46090, Pitch_bend_c, 3, 7936
6, 46096, Pitch_bend_c, 3, 8192
6, 46176, Note_on_c, 3, 55, 0
6, 46200, Note_on_c, 3, 57, 113
6, 46274, Note_on_c, 3, 57, 0
6, 46320, Note_on_c, 3, 59, 113
6, 46424, Note_on_c, 3, 59, 0
6, 46440, Note_on_c, 3, 53, 113
6, 46448, Pitch_bend_c, 3, 8712
6, 46452, Pitch_bend_c, 3, 9102
6, 46454, Pitch_bend_c, 3, 9622
6, 46458, Pitch_bend_c, 3, 10402
6, 46464, Pitch_bend_c, 3, 11312
6, 46468, Pitch_bend_c, 3, 12742
6, 46470, Pitch_bend_c, 3, 13522
6, 46474, Pitch_bend_c, 3, 14692
6, 46478, Pitch_bend_c, 3, 15472
6, 46480, Pitch_bend_c, 3, 15862
6, 46484, Pitch_bend_c, 3, 16252
6, 46486, Pitch_bend_c, 3, 16382
6, 46686, Pitch_bend_c, 3, 15992
6, 46688, Pitch_bend_c, 3, 15472
6, 46692, Pitch_bend_c, 3, 15082
6, 46696, Pitch_bend_c, 3, 14432
6, 46700, Pitch_bend_c, 3, 14042
6, 46704, Pitch_bend_c, 3, 13782
6, 46712, Pitch_bend_c, 3, 14172
6, 46718, Pitch_bend_c, 3, 15212
6, 46720, Pitch_bend_c, 3, 15732
6, 46724, Pitch_bend_c, 3, 16252
6, 46728, Pitch_bend_c, 3, 16382
6, 46746, Pitch_bend_c, 3, 15992
6, 46748, Pitch_bend_c, 3, 15602
6, 46752, Pitch_bend_c, 3, 14692
6, 46754, Pitch_bend_c, 3, 13912
6, 46758, Pitch_bend_c, 3, 13132
6, 46762, Pitch_bend_c, 3, 12742
6, 46764, Pitch_bend_c, 3, 12352
6, 46772, Pitch_bend_c, 3, 12872
6, 46776, Pitch_bend_c, 3, 13652
6, 46778, Pitch_bend_c, 3, 15212
6, 46782, Pitch_bend_c, 3, 15732
6, 46786, Pitch_bend_c, 3, 16252
6, 46790, Pitch_bend_c, 3, 16382
6, 46816, Pitch_bend_c, 3, 15732
6, 46820, Pitch_bend_c, 3, 15342
6, 46824, Pitch_bend_c, 3, 15082
6, 46832, Pitch_bend_c, 3, 15602
6, 46834, Pitch_bend_c, 3, 16122
6, 46840, Pitch_bend_c, 3, 16382
6, 46882, Pitch_bend_c, 3, 16252
6, 46886, Pitch_bend_c, 3, 16382
6, 46936, Pitch_bend_c, 3, 15992
6, 46940, Note_on_c, 3, 53, 0
6, 46946, Pitch_bend_c, 3, 16382
6, 46960, Pitch_bend_c, 3, 15992
6, 46964, Pitch_bend_c, 3, 13522
6, 46966, Pitch_bend_c, 3, 10532
6, 46970, Pitch_bend_c, 3, 7808
6, 46972, Pitch_bend_c, 3, 7552
6, 46976, Pitch_bend_c, 3, 7936
6, 46976, Pitch_bend_c, 3, 8192
6, 46980, Pitch_bend_c, 3, 8972
6, 46984, Pitch_bend_c, 3, 8582
6, 46986, Pitch_bend_c, 3, 8192
6, 46988, Pitch_bend_c, 3, 7808
6, 46996, Pitch_bend_c, 3, 8192
6, 47020, Note_on_c, 3, 53, 108
6, 47046, Pitch_bend_c, 3, 8712
6, 47050, Pitch_bend_c, 3, 9492
6, 47052, Pitch_bend_c, 3, 10402
6, 47056, Pitch_bend_c, 3, 11832
6, 47060, Pitch_bend_c, 3, 13002
6, 47062, Pitch_bend_c, 3, 14172
6, 47066, Pitch_bend_c, 3, 15472
6, 47068, Pitch_bend_c, 3, 15992
6, 47076, Pitch_bend_c, 3, 16382
6, 47154, Note_on_c, 3, 53, 0
6, 47160, Note_on_c, 3, 45, 122
6, 47162, Pitch_bend_c, 3, 14822
6, 47166, Pitch_bend_c, 3, 12742
6, 47170, Pitch_bend_c, 3, 8192
6, 47172, Pitch_bend_c, 3, 7296
6, 47176, Pitch_bend_c, 3, 7936
6, 47176, Pitch_bend_c, 3, 8192
6, 47180, Pitch_bend_c, 3, 8842
6, 47182, Pitch_bend_c, 3, 8972
6, 47186, Pitch_bend_c, 3, 8322
6, 47186, Pitch_bend_c, 3, 8192
6, 47190, Pitch_bend_c, 3, 7680
6, 47194, Pitch_bend_c, 3, 8064
6, 47196, Pitch_bend_c, 3, 8192
6, 47206, Pitch_bend_c, 3, 8064
6, 47208, Pitch_bend_c, 3, 8192
6, 47274, Note_on_c, 3, 45, 0
6, 47280, Note_on_c, 3, 40, 113
6, 47394, Note_on_c, 3, 40, 0
6, 47400, Note_on_c, 3, 43, 104
6, 47526, Pitch_bend_c, 3, 8582
6, 47534, Pitch_bend_c, 3, 8972
6, 47548, Pitch_bend_c, 3, 8582
6, 47554, Pitch_bend_c, 3, 8192
6, 47638, Pitch_bend_c, 3, 7808
6, 47642, Pitch_bend_c, 3, 7552
6, 47654, Pitch_bend_c, 3, 7936
6, 47658, Pitch_bend_c, 3, 8192
6, 47668, Pitch_bend_c, 3, 8582
6, 47672, Pitch_bend_c, 3, 9102
6, 47676, Pitch_bend_c, 3, 9622
6, 47678, Pitch_bend_c, 3, 10532
6, 47682, Pitch_bend_c, 3, 11052
6, 47684, Pitch_bend_c, 3, 11442
6, 47686, Pitch_bend_c, 3, 11572
6, 47696, Pitch_bend_c, 3, 11182
6, 47702, Pitch_bend_c, 3, 10662
6, 47704, Pitch_bend_c, 3, 10012
6, 47708, Pitch_bend_c, 3, 9622
6, 47710, Pitch_bend_c, 3, 9232
6, 47714, Pitch_bend_c, 3, 8842
6, 47718, Pitch_bend_c, 3, 8452
6, 47720, Pitch_bend_c, 3, 8322
6, 47732, Pitch_bend_c, 3, 8712
6, 47736, Pitch_bend_c, 3, 9492
6, 47738, Pitch_bend_c, 3, 9882
6, 47742, Pitch_bend_c, 3, 10792
6, 47746, Pitch_bend_c, 3, 11312
6, 47748, Pitch_bend_c, 3, 11832
6, 47752, Pitch_bend_c, 3, 12352
6, 47758, Pitch_bend_c, 3, 12612
6, 47764, Pitch_bend_c, 3, 12092
6, 47768, Pitch_bend_c, 3, 11702
6, 47772, Pitch_bend_c, 3, 11182
6, 47776, Pitch_bend_c, 3, 10792
6, 47778, Pitch_bend_c, 3, 9882
6, 47782, Pitch_bend_c, 3, 9492
6, 47784, Pitch_bend_c, 3, 9102
6, 47788, Pitch_bend_c, 3, 8712
6, 47794, Pitch_bend_c, 3, 8452
6, 47806, Pitch_bend_c, 3, 8842
6, 47810, Pitch_bend_c, 3, 10272
6, 47812, Pitch_bend_c, 3, 10662
6, 47816, Pitch_bend_c, 3, 11442
6, 47820, Pitch_bend_c, 3, 11832
6, 47822, Pitch_bend_c, 3, 12352
6, 47828, Pitch_bend_c, 3, 12612
6, 47838, Pitch_bend_c, 3, 12092
6, 47846, Pitch_bend_c, 3, 11572
6, 47848, Pitch_bend_c, 3, 11182
6, 47852, Pitch_bend_c, 3, 10792
6, 47856, Pitch_bend_c, 3, 9882
6, 47858, Pitch_bend_c, 3, 9492
6, 47860, Note_on_c, 3, 43, 0
6, 47862, Pitch_bend_c, 3, 8972
6, 47864, Pitch_bend_c, 3, 8582
6, 47870, Pitch_bend_c, 3, 8192
6, 47886, Note_on_c, 3, 45, 127
6, 47986, Note_on_c, 3, 45, 0
6, 47998, Note_on_c, 3, 45, 127
6, 48030, Pitch_bend_c, 3, 8842
6, 48032, Pitch_bend_c, 3, 9362
6, 48036, Pitch_bend_c, 3, 10922
6, 48038, Pitch_bend_c, 3, 11702
6, 48042, Pitch_bend_c, 3, 13522
6, 48046, Pitch_bend_c, 3, 14562
6, 48050, Pitch_bend_c, 3, 15862
6, 48052, Pitch_bend_c, 3, 16252
6, 48056, Pitch_bend_c, 3, 16382
6, 48094, Note_on_c, 3, 45, 0
6, 48124, Note_on_c, 3, 53, 122
6, 48210, Pitch_bend_c, 3, 15992
6, 48214, Pitch_bend_c, 3, 15212
6, 48218, Pitch_bend_c, 3, 14692
6, 48220, Pitch_bend_c, 3, 13002
6, 48224, Pitch_bend_c, 3, 11702
6, 48228, Pitch_bend_c, 3, 9752
6, 48230, Pitch_bend_c, 3, 9362
6, 48232, Note_on_c, 3, 53, 0
6, 48234, Pitch_bend_c, 3, 8582
6, 48236, Note_on_c, 3, 57, 122
6, 48238, Pitch_bend_c, 3, 8192
6, 48262, Pitch_bend_c, 3, 8582
6, 48264, Pitch_bend_c, 3, 9752
6, 48268, Pitch_bend_c, 3, 10662
6, 48270, Pitch_bend_c, 3, 12092
6, 48274, Pitch_bend_c, 3, 13912
6, 48278, Pitch_bend_c, 3, 15732
6, 48282, Pitch_bend_c, 3, 16122
6, 48284, Pitch_bend_c, 3, 16382
6, 48338, Pitch_bend_c, 3, 15992
6, 48340, Pitch_bend_c, 3, 15472
6, 48344, Pitch_bend_c, 3, 13652
6, 48348, Pitch_bend_c, 3, 11702
6, 48352, Note_on_c, 3, 57, 0
6, 48352, Pitch_bend_c, 3, 10012
6, 48356, Pitch_bend_c, 3, 9102
6, 48358, Pitch_bend_c, 3, 8192
6, 48358, Note_on_c, 3, 55, 125
6, 48364, Pitch_bend_c, 3, 7680
6, 48368, Pitch_bend_c, 3, 7296
6, 48370, Pitch_bend_c, 3, 7168
6, 48378, Pitch_bend_c, 3, 7552
6, 48382, Pitch_bend_c, 3, 7936
6, 48388, Pitch_bend_c, 3, 8192
6, 48392, Pitch_bend_c, 3, 8582
6, 48396, Pitch_bend_c, 3, 9752
6, 48398, Pitch_bend_c, 3, 11052
6, 48402, Pitch_bend_c, 3, 11962
6, 48404, Pitch_bend_c, 3, 14172
6, 48408, Pitch_bend_c, 3, 15212
6, 48410, Pitch_bend_c, 3, 15992
6, 48416, Pitch_bend_c, 3, 16382
6, 48548, Control_c, 3, 1, 6
6, 48556, Control_c, 3, 1, 12
6, 48566, Control_c, 3, 1, 18
6, 48580, Control_c, 3, 1, 26
6, 48594, Control_c, 3, 1, 32
6, 48612, Control_c, 3, 1, 38
6, 48628, Control_c, 3, 1, 44
6, 48642, Control_c, 3, 1, 50
6, 48676, Control_c, 3, 1, 56
6, 48690, Control_c, 3, 1, 62
6, 48710, Control_c, 3, 1, 68
6, 48714, Note_on_c, 3, 55, 0
6, 48720, Control_c, 3, 1, 1
6, 48720, Pitch_bend_c, 3, 8256
6, 48724, Note_on_c, 3, 55, 127
6, 48836, Note_on_c, 3, 55, 0
6, 48838, Note_on_c, 3, 50, 127
6, 48956, Note_on_c, 3, 57, 125
6, 48958, Note_on_c, 3, 50, 0
6, 49000, Pitch_bend_c, 3, 8712
6, 49002, Pitch_bend_c, 3, 9232
6, 49006, Pitch_bend_c, 3, 9752
6, 49010, Pitch_bend_c, 3, 11052
6, 49012, Pitch_bend_c, 3, 11962
6, 49016, Pitch_bend_c, 3, 13652
6, 49018, Pitch_bend_c, 3, 14952
6, 49026, Pitch_bend_c, 3, 15602
6, 49030, Pitch_bend_c, 3, 16382
6, 49078, Note_on_c, 3, 57, 0
6, 49090, Note_on_c, 3, 60, 126
6, 49158, Note_on_c, 3, 60, 0
6, 49208, Note_on_c, 3, 60, 127
6, 49288, Note_on_c, 3, 60, 0
6, 49306, Pitch_bend_c, 3, 15992
6, 49308, Pitch_bend_c, 3, 15472
6, 49312, Pitch_bend_c, 3, 14692
6, 49316, Pitch_bend_c, 3, 14042
6, 49318, Pitch_bend_c, 3, 13002
6, 49322, Pitch_bend_c, 3, 12352
6, 49326, Pitch_bend_c, 3, 10792
6, 49330, Pitch_bend_c, 3, 9882
6, 49332, Pitch_bend_c, 3, 9362
6, 49332, Note_on_c, 3, 62, 127
6, 49336, Pitch_bend_c, 3, 8972
6, 49340, Pitch_bend_c, 3, 8452
6, 49342, Pitch_bend_c, 3, 8192
6, 49374, Pitch_bend_c, 3, 8582
6, 49378, Pitch_bend_c, 3, 9102
6, 49380, Pitch_bend_c, 3, 10272
6, 49386, Pitch_bend_c, 3, 11442
6, 49390, Pitch_bend_c, 3, 13262
6, 49392, Pitch_bend_c, 3, 14172
6, 49396, Pitch_bend_c, 3, 15082
6, 49400, Pitch_bend_c, 3, 15862
6, 49404, Pitch_bend_c, 3, 16252
6, 49406, Pitch_bend_c, 3, 16382
6, 49482, Control_c, 3, 1, 6
6, 49488, Control_c, 3, 1, 12
6, 49492, Control_c, 3, 1, 18
6, 49500, Control_c, 3, 1, 24
6, 49506, Control_c, 3, 1, 30
6, 49512, Control_c, 3, 1, 36
6, 49522, Control_c, 3, 1, 42
6, 49530, Control_c, 3, 1, 48
6, 49538, Control_c, 3, 1, 54
6, 49546, Control_c, 3, 1, 60
6, 49556, Control_c, 3, 1, 66
6, 49588, Control_c, 3, 1, 72
6, 49676, Note_on_c, 3, 62, 0
6, 49680, Control_c, 3, 1, 0
6, 49686, Pitch_bend_c, 3, 8322
6, 49688, Pitch_bend_c, 3, 8712
6, 49692, Pitch_bend_c, 3, 9102
6, 49692, Note_on_c, 3, 50, 91
6, 49694, Pitch_bend_c, 3, 9752
6, 49698, Pitch_bend_c, 3, 10792
6, 49702, Pitch_bend_c, 3, 11702
6, 49706, Pitch_bend_c, 3, 13132
6, 49710, Pitch_bend_c, 3, 13782
6, 49714, Pitch_bend_c, 3, 15472
6, 49716, Pitch_bend_c, 3, 16122
6, 49720, Pitch_bend_c, 3, 16382
6, 49812, Note_on_c, 3, 45, 90
6, 49818, Note_on_c, 3, 50, 0
6, 49820, Pitch_bend_c, 3, 15992
6, 49822, Pitch_bend_c, 3, 15602
6, 49826, Pitch_bend_c, 3, 14692
6, 49830, Pitch_bend_c, 3, 14042
6, 49832, Pitch_bend_c, 3, 13782
6, 49832, Pitch_bend_c, 3, 16252
6, 49834, Pitch_bend_c, 3, 13132
6, 49834, Pitch_bend_c, 3, 15992
6, 49834, Pitch_bend_c, 3, 12742
6, 49836, Pitch_bend_c, 3, 15732
6, 49836, Pitch_bend_c, 3, 12352
6, 49838, Pitch_bend_c, 3, 14952
6, 49838, Pitch_bend_c, 3, 11832
6, 49840, Pitch_bend_c, 3, 14562
6, 49840, Pitch_bend_c, 3, 11442
6, 49840, Pitch_bend_c, 3, 14042
6, 49842, Pitch_bend_c, 3, 10012
6, 49844, Pitch_bend_c, 3, 13262
6, 49844, Pitch_bend_c, 3, 9752
6, 49844, Pitch_bend_c, 3, 13002
6, 49846, Pitch_bend_c, 3, 9492
6, 49846, Pitch_bend_c, 3, 11962
6, 49848, Pitch_bend_c, 3, 9232
6, 49848, Pitch_bend_c, 3, 11052
6, 49848, Pitch_bend_c, 3, 9102
6, 49850, Pitch_bend_c, 3, 10662
6, 49850, Pitch_bend_c, 3, 8712
6, 49852, Pitch_bend_c, 3, 10272
6, 49852, Pitch_bend_c, 3, 8582
6, 49854, Pitch_bend_c, 3, 9362
6, 49854, Pitch_bend_c, 3, 8452
6, 49856, Pitch_bend_c, 3, 9102
6, 49856, Pitch_bend_c, 3, 8322
6, 49856, Pitch_bend_c, 3, 8842
6, 49858, Pitch_bend_c, 3, 8192
6, 49864, Pitch_bend_c, 3, 7680
6, 49868, Pitch_bend_c, 3, 6272
6, 49872, Pitch_bend_c, 3, 5120
6, 49874, Pitch_bend_c, 3, 4096
6, 49878, Pitch_bend_c, 3, 3328
6, 49882, Pitch_bend_c, 3, 2048
6, 49886, Pitch_bend_c, 3, 896
6, 49890, Pitch_bend_c, 3, 128
6, 49890, Pitch_bend_c, 3, 0
6, 49918, Note_on_c, 3, 45, 0
6, 49918, Pitch_bend_c, 3, 8256
6, 49920, Note_on_c, 3, 40, 93
6, 50140, Note_on_c, 3, 59, 72
6, 50148, Note_on_c, 3, 64, 72
6, 50152, Note_on_c, 3, 67, 72
6, 50170, Note_on_c, 3, 40, 0
6, 50312, Note_on_c, 3, 59, 0
6, 50316, Note_on_c, 3, 64, 0
6, 50318, Note_on_c, 3, 67, 0
6, 50346, Note_on_c, 3, 59, 72
6, 50350, Note_on_c, 3, 64, 72
6, 50350, Note_on_c, 3, 67, 72
6, 50374, Note_on_c, 3, 59, 0
6, 50374, Note_on_c, 3, 64, 0
6, 50384, Note_on_c, 3, 67, 0
6, 50402, Note_on_c, 3, 40, 98
6, 50436, Note_on_c, 3, 40, 0
6, 50480, Note_on_c, 3, 59, 72
6, 50484, Note_on_c, 3, 64, 72
6, 50486, Note_on_c, 3, 67, 72
6, 50496, Note_on_c, 3, 59, 0
6, 50498, Note_on_c, 3, 64, 0
6, 50502, Note_on_c, 3, 40, 96
6, 50510, Note_on_c, 3, 67, 0
6, 50624, Note_on_c, 3, 59, 72
6, 50636, Note_on_c, 3, 64, 72
6, 50642, Note_on_c, 3, 67, 72
6, 50650, Note_on_c, 3, 40, 0
6, 50856, Note_on_c, 3, 59, 0
6, 50860, Note_on_c, 3, 64, 0
6, 50876, Note_on_c, 3, 67, 0
6, 50876, Note_on_c, 3, 43, 87
6, 50880, Note_on_c, 3, 50, 84
6, 50882, Note_on_c, 3, 55, 84
6, 51080, Note_on_c, 3, 43, 0
6, 51084, Note_on_c, 3, 50, 0
6, 51086, Note_on_c, 3, 55, 0
6, 51116, Note_on_c, 3, 43, 84
6, 51120, Note_on_c, 3, 50, 84
6, 51122, Note_on_c, 3, 55, 84
6, 51234, Note_on_c, 3, 43, 0
6, 51320, Note_on_c, 3, 50, 0
6, 51352, Note_on_c, 3, 55, 0
6, 51360, Note_on_c, 3, 45, 87
6, 51414, Note_on_c, 3, 52, 84
6, 51420, Note_on_c, 3, 57, 84
6, 51444, Note_on_c, 3, 45, 0
6, 51480, Note_on_c, 3, 45, 87
6, 51510, Note_on_c, 3, 52, 0
6, 51528, Note_on_c, 3, 57, 0
6, 51564, Note_on_c, 3, 45, 0
6, 51590, Note_on_c, 3, 45, 84
6, 51600, Note_on_c, 3, 52, 84
6, 51612, Note_on_c, 3, 57, 84
6, 51836, Note_on_c, 3, 52, 0
6, 51838, Note_on_c, 3, 45, 0
6, 51840, Note_on_c, 3, 57, 0
6, 51840, Note_on_c, 3, 40, 93
6, 52060, Note_on_c, 3, 59, 72
6, 52068, Note_on_c, 3, 64, 72
6, 52072, Note_on_c, 3, 67, 72
6, 52090, Note_on_c, 3, 40, 0
6, 52292, Note_on_c, 3, 59, 0
6, 52300, Note_on_c, 3, 64, 0
6, 52308, Note_on_c, 3, 67, 0
6, 52322, Note_on_c, 3, 40, 98
6, 52386, Note_on_c, 3, 40, 0
6, 52400, Note_on_c, 3, 59, 72
6, 52404, Note_on_c, 3, 64, 72
6, 52422, Note_on_c, 3, 40, 96
6, 52424, Note_on_c, 3, 59, 0
6, 52426, Note_on_c, 3, 64, 0
6, 52544, Note_on_c, 3, 59, 72
6, 52556, Note_on_c, 3, 64, 72
6, 52562, Note_on_c, 3, 67, 72
6, 52750, Note_on_c, 3, 40, 0
6, 52776, Note_on_c, 3, 59, 0
6, 52780, Note_on_c, 3, 64, 0
6, 52796, Note_on_c, 3, 67, 0
6, 52796, Note_on_c, 3, 43, 87
6, 52800, Note_on_c, 3, 50, 84
6, 52802, Note_on_c, 3, 55, 84
6, 53000, Note_on_c, 3, 43, 0
6, 53004, Note_on_c, 3, 50, 0
6, 53006, Note_on_c, 3, 55, 0
6, 53036, Note_on_c, 3, 43, 84
6, 53040, Note_on_c, 3, 50, 84
6, 53042, Note_on_c, 3, 55, 84
6, 53154, Note_on_c, 3, 43, 0
6, 53240, Note_on_c, 3, 50, 0
6, 53272, Note_on_c, 3, 55, 0
6, 53280, Note_on_c, 3, 45, 87
6, 53334, Note_on_c, 3, 52, 84
6, 53340, Note_on_c, 3, 57, 84
6, 53364, Note_on_c, 3, 45, 0
6, 53400, Note_on_c, 3, 45, 87
6, 53430, Note_on_c, 3, 52, 0
6, 53448, Note_on_c, 3, 57, 0
6, 53484, Note_on_c, 3, 45, 0
6, 53508, Note_on_c, 3, 45, 84
6, 53520, Note_on_c, 3, 57, 84
6, 53520, Note_on_c, 3, 52, 84
6, 53754, Note_on_c, 3, 45, 0
6, 53756, Note_on_c, 3, 52, 0
6, 53758, Note_on_c, 3, 57, 0
6, 53760, Note_on_c, 3, 40, 93
6, 53980, Note_on_c, 3, 59, 72
6, 53988, Note_on_c, 3, 64, 72
6, 53992, Note_on_c, 3, 67, 72
6, 54010, Note_on_c, 3, 40, 0
6, 54152, Note_on_c, 3, 59, 0
6, 54156, Note_on_c, 3, 64, 0
6, 54158, Note_on_c, 3, 67, 0
6, 54186, Note_on_c, 3, 59, 72
6, 54214, Note_on_c, 3, 59, 0
6, 54242, Note_on_c, 3, 40, 98
6, 54320, Note_on_c, 3, 59, 72
6, 54324, Note_on_c, 3, 40, 0
6, 54336, Note_on_c, 3, 59, 0
6, 54342, Note_on_c, 3, 40, 96
6, 54464, Note_on_c, 3, 59, 72
6, 54476, Note_on_c, 3, 64, 72
6, 54482, Note_on_c, 3, 67, 72
6, 54684, Note_on_c, 3, 40, 0
6, 54696, Note_on_c, 3, 59, 0
6, 54700, Note_on_c, 3, 64, 0
6, 54716, Note_on_c, 3, 67, 0
6, 54716, Note_on_c, 3, 43, 87
6, 54720, Note_on_c, 3, 50, 84
6, 54722, Note_on_c, 3, 55, 84
6, 54920, Note_on_c, 3, 43, 0
6, 54924, Note_on_c, 3, 50, 0
6, 54926, Note_on_c, 3, 55, 0
6, 54956, Note_on_c, 3, 43, 84
6, 54960, Note_on_c, 3, 50, 84
6, 54962, Note_on_c, 3, 55, 84
6, 55074, Note_on_c, 3, 43, 0
6, 55160, Note_on_c, 3, 50, 0
6, 55192, Note_on_c, 3, 55, 0
6, 55200, Note_on_c, 3, 45, 87
6, 55254, Note_on_c, 3, 52, 84
6, 55260, Note_on_c, 3, 57, 84
6, 55284, Note_on_c, 3, 45, 0
6, 55320, Note_on_c, 3, 45, 87
6, 55350, Note_on_c, 3, 52, 0
6, 55368, Note_on_c, 3, 57, 0
6, 55404, Note_on_c, 3, 45, 0
6, 55430, Note_on_c, 3, 45, 84
6, 55440, Note_on_c, 3, 52, 84
6, 55448, Note_on_c, 3, 57, 84
6, 55678, Note_on_c, 3, 45, 0
6, 55680, Note_on_c, 3, 52, 0
6, 55680, Note_on_c, 3, 57, 0
6, 55680, Note_on_c, 3, 40, 93
6, 55900, Note_on_c, 3, 59, 72
6, 55908, Note_on_c, 3, 64, 72
6, 55912, Note_on_c, 3, 67, 72
6, 55930, Note_on_c, 3, 40, 0
6, 56132, Note_on_c, 3, 59, 0
6, 56140, Note_on_c, 3, 64, 0
6, 56148, Note_on_c, 3, 67, 0
6, 56162, Note_on_c, 3, 40, 98
6, 56226, Note_on_c, 3, 40, 0
6, 56240, Note_on_c, 3, 59, 72
6, 56244, Note_on_c, 3, 64, 72
6, 56252, Note_on_c, 3, 59, 0
6, 56254, Note_on_c, 3, 64, 0
6, 56262, Note_on_c, 3, 40, 96
6, 56384, Note_on_c, 3, 59, 72
6, 56396, Note_on_c, 3, 64, 72
6, 56402, Note_on_c, 3, 67, 72
6, 56590, Note_on_c, 3, 40, 0
6, 56616, Note_on_c, 3, 59, 0
6, 56620, Note_on_c, 3, 64, 0
6, 56636, Note_on_c, 3, 67, 0
6, 56636, Note_on_c, 3, 43, 87
6, 56640, Note_on_c, 3, 50, 84
6, 56642, Note_on_c, 3, 55, 84
6, 56840, Note_on_c, 3, 43, 0
6, 56844, Note_on_c, 3, 50, 0
6, 56846, Note_on_c, 3, 55, 0
6, 56876, Note_on_c, 3, 43, 84
6, 56880, Note_on_c, 3, 50, 84
6, 56882, Note_on_c, 3, 55, 84
6, 56994, Note_on_c, 3, 43, 0
6, 57080, Note_on_c, 3, 50, 0
6, 57112, Note_on_c, 3, 55, 0
6, 57120, Note_on_c, 3, 45, 87
6, 57174, Note_on_c, 3, 52, 84
6, 57180, Note_on_c, 3, 57, 84
6, 57204, Note_on_c, 3, 45, 0
6, 57240, Note_on_c, 3, 45, 87
6, 57270, Note_on_c, 3, 52, 0
6, 57288, Note_on_c, 3, 57, 0
6, 57324, Note_on_c, 3, 45, 0
6, 57350, Note_on_c, 3, 45, 84
6, 57360, Note_on_c, 3, 52, 84
6, 57372, Note_on_c, 3, 57, 84
6, 57600, Note_on_c, 3, 45, 0
6, 57600, Note_on_c, 3, 52, 0
6, 57600, Note_on_c, 3, 57, 0
6, 57600, Note_on_c, 3, 40, 93
6, 57820, Note_on_c, 3, 59, 72
6, 57828, Note_on_c, 3, 64, 72
6, 57832, Note_on_c, 3, 67, 72
6, 57850, Note_on_c, 3, 40, 0
6, 58052, Note_on_c, 3, 59, 0
6, 58060, Note_on_c, 3, 64, 0
6, 58068, Note_on_c, 3, 67, 0
6, 58082, Note_on_c, 3, 40, 98
6, 58146, Note_on_c, 3, 40, 0
6, 58160, Note_on_c, 3, 59, 72
6, 58164, Note_on_c, 3, 64, 72
6, 58172, Note_on_c, 3, 59, 0
6, 58174, Note_on_c, 3, 64, 0
6, 58182, Note_on_c, 3, 40, 96
6, 58304, Note_on_c, 3, 59, 72
6, 58316, Note_on_c, 3, 64, 72
6, 58322, Note_on_c, 3, 67, 72
6, 58510, Note_on_c, 3, 40, 0
6, 58536, Note_on_c, 3, 59, 0
6, 58540, Note_on_c, 3, 64, 0
6, 58556, Note_on_c, 3, 67, 0
6, 58556, Note_on_c, 3, 43, 87
6, 58560, Note_on_c, 3, 50, 84
6, 58562, Note_on_c, 3, 55, 84
6, 58760, Note_on_c, 3, 43, 0
6, 58764, Note_on_c, 3, 50, 0
6, 58766, Note_on_c, 3, 55, 0
6, 58796, Note_on_c, 3, 43, 84
6, 58800, Note_on_c, 3, 50, 84
6, 58802, Note_on_c, 3, 55, 84
6, 58914, Note_on_c, 3, 43, 0
6, 59000, Note_on_c, 3, 50, 0
6, 59032, Note_on_c, 3, 55, 0
6, 59040, Note_on_c, 3, 45, 87
6, 59094, Note_on_c, 3, 52, 84
6, 59100, Note_on_c, 3, 57, 84
6, 59124, Note_on_c, 3, 45, 0
6, 59160, Note_on_c, 3, 45, 87
6, 59190, Note_on_c, 3, 52, 0
6, 59208, Note_on_c, 3, 57, 0
6, 59244, Note_on_c, 3, 45, 0
6, 59270, Note_on_c, 3, 45, 84
6, 59280, Note_on_c, 3, 52, 84
6, 59288, Note_on_c, 3, 57, 84
6, 59518, Note_on_c, 3, 45, 0
6, 59518, Note_on_c, 3, 52, 0
6, 59520, Note_on_c, 3, 57, 0
6, 59520, Note_on_c, 3, 40, 84
6, 59666, Note_on_c, 3, 40, 0
6, 60960, Note_on_c, 3, 54, 127
6, 61070, Note_on_c, 3, 54, 0
6, 61080, Note_on_c, 3, 52, 127
6, 61200, Note_on_c, 3, 50, 127
6, 61204, Note_on_c, 3, 52, 0
6, 61436, Note_on_c, 3, 50, 0
6, 61440, Note_on_c, 3, 57, 127
6, 61468, Pitch_bend_c, 3, 8712
6, 61472, Pitch_bend_c, 3, 9622
6, 61476, Pitch_bend_c, 3, 10402
6, 61480, Pitch_bend_c, 3, 11832
6, 61482, Pitch_bend_c, 3, 12872
6, 61486, Pitch_bend_c, 3, 13782
6, 61490, Pitch_bend_c, 3, 15212
6, 61492, Pitch_bend_c, 3, 15732
6, 61496, Pitch_bend_c, 3, 16252
6, 61500, Pitch_bend_c, 3, 16382
6, 61560, Note_on_c, 3, 60, 127
6, 61566, Note_on_c, 3, 57, 0
6, 61674, Control_c, 3, 1, 8
6, 61680, Control_c, 3, 1, 14
6, 61680, Note_on_c, 3, 65, 127
6, 61686, Control_c, 3, 1, 22
6, 61688, Note_on_c, 3, 60, 0
6, 61690, Control_c, 3, 1, 28
6, 61694, Control_c, 3, 1, 34
6, 61700, Control_c, 3, 1, 40
6, 61704, Control_c, 3, 1, 46
6, 61708, Control_c, 3, 1, 52
6, 61716, Control_c, 3, 1, 58
6, 61724, Control_c, 3, 1, 64
6, 61728, Control_c, 3, 1, 70
6, 61736, Control_c, 3, 1, 76
6, 61744, Control_c, 3, 1, 82
6, 61754, Control_c, 3, 1, 88
6, 61794, Control_c, 3, 1, 92
6, 61830, Control_c, 3, 1, 86
6, 61852, Note_on_c, 3, 65, 0
6, 61870, Control_c, 3, 1, 80
6, 61878, Pitch_bend_c, 3, 15732
6, 61880, Pitch_bend_c, 3, 15342
6, 61884, Pitch_bend_c, 3, 14822
6, 61888, Control_c, 3, 1, 74
6, 61888, Pitch_bend_c, 3, 13782
6, 61890, Pitch_bend_c, 3, 13002
6, 61894, Pitch_bend_c, 3, 11702
6, 61896, Control_c, 3, 1, 68
6, 61898, Pitch_bend_c, 3, 10662
6, 61902, Pitch_bend_c, 3, 9622
6, 61902, Control_c, 3, 1, 60
6, 61904, Pitch_bend_c, 3, 8972
6, 61906, Control_c, 3, 1, 54
6, 61908, Pitch_bend_c, 3, 8582
6, 61910, Control_c, 3, 1, 46
6, 61912, Pitch_bend_c, 3, 8192
6, 61914, Control_c, 3, 1, 38
6, 61916, Control_c, 3, 1, 30
6, 61920, Note_on_c, 3, 57, 127
6, 61920, Control_c, 3, 1, 20
6, 61924, Control_c, 3, 1, 6
6, 61930, Control_c, 3, 1, 0
6, 61936, Pitch_bend_c, 3, 8712
6, 61940, Pitch_bend_c, 3, 9362
6, 61942, Pitch_bend_c, 3, 10272
6, 61946, Pitch_bend_c, 3, 11702
6, 61950, Pitch_bend_c, 3, 13132
6, 61954, Pitch_bend_c, 3, 15342
6, 61956, Pitch_bend_c, 3, 15862
6, 61960, Pitch_bend_c, 3, 16252
6, 61964, Pitch_bend_c, 3, 16382
6, 62040, Note_on_c, 3, 60, 127
6, 62044, Note_on_c, 3, 57, 0
6, 62142, Control_c, 3, 1, 6
6, 62146, Control_c, 3, 1, 12
6, 62154, Control_c, 3, 1, 20
6, 62156, Control_c, 3, 1, 26
6, 62158, Note_on_c, 3, 60, 0
6, 62160, Note_on_c, 3, 65, 125
6, 62162, Control_c, 3, 1, 32
6, 62168, Control_c, 3, 1, 40
6, 62172, Control_c, 3, 1, 46
6, 62176, Control_c, 3, 1, 52
6, 62182, Control_c, 3, 1, 60
6, 62190, Control_c, 3, 1, 66
6, 62194, Control_c, 3, 1, 72
6, 62202, Control_c, 3, 1, 78
6, 62208, Control_c, 3, 1, 84
6, 62230, Control_c, 3, 1, 90
6, 62274, Control_c, 3, 1, 88
6, 62304, Control_c, 3, 1, 90
6, 62342, Control_c, 3, 1, 84
6, 62348, Control_c, 3, 1, 78
6, 62354, Control_c, 3, 1, 70
6, 62358, Control_c, 3, 1, 60
6, 62362, Note_on_c, 3, 65, 0
6, 62362, Control_c, 3, 1, 44
6, 62366, Control_c, 3, 1, 32
6, 62368, Control_c, 3, 1, 18
6, 62372, Control_c, 3, 1, 6
6, 62380, Control_c, 3, 1, 0
6, 62384, Pitch_bend_c, 3, 15732
6, 62388, Pitch_bend_c, 3, 14822
6, 62390, Pitch_bend_c, 3, 13262
6, 62394, Pitch_bend_c, 3, 10272
6, 62396, Pitch_bend_c, 3, 8712
6, 62398, Pitch_bend_c, 3, 8256
6, 62400, Note_on_c, 3, 57, 127
6, 62412, Pitch_bend_c, 3, 8576
6, 62416, Pitch_bend_c, 3, 8896
6, 62420, Pitch_bend_c, 3, 9280
6, 62424, Pitch_bend_c, 3, 9600
6, 62426, Pitch_bend_c, 3, 9984
6, 62430, Pitch_bend_c, 3, 10304
6, 62434, Pitch_bend_c, 3, 10752
6, 62436, Pitch_bend_c, 3, 11072
6, 62440, Pitch_bend_c, 3, 11392
6, 62444, Pitch_bend_c, 3, 11712
6, 62446, Pitch_bend_c, 3, 12096
6, 62450, Pitch_bend_c, 3, 12608
6, 62452, Pitch_bend_c, 3, 13120
6, 62456, Pitch_bend_c, 3, 13696
6, 62458, Pitch_bend_c, 3, 14528
6, 62460, Pitch_bend_c, 3, 15936
6, 62514, Note_on_c, 3, 57, 0
6, 62520, Note_on_c, 3, 60, 127
6, 62638, Note_on_c, 3, 60, 0
6, 62640, Note_on_c, 3, 65, 127
6, 62752, Pitch_bend_c, 3, 8256
6, 62758, Note_on_c, 3, 65, 0
6, 62760, Note_on_c, 3, 57, 127
6, 62824, Control_c, 3, 1, 2
6, 62826, Control_c, 3, 1, 8
6, 62830, Control_c, 3, 1, 14
6, 62832, Control_c, 3, 1, 20
6, 62836, Control_c, 3, 1, 28
6, 62840, Control_c, 3, 1, 34
6, 62844, Control_c, 3, 1, 42
6, 62854, Control_c, 3, 1, 48
6, 62890, Control_c, 3, 1, 54
6, 62920, Control_c, 3, 1, 60
6, 62930, Control_c, 3, 1, 62
6, 63138, Control_c, 3, 1, 56
6, 63146, Control_c, 3, 1, 50
6, 63150, Control_c, 3, 1, 44
6, 63152, Control_c, 3, 1, 38
6, 63156, Control_c, 3, 1, 16
6, 63158, Note_on_c, 3, 57, 0
6, 63160, Control_c, 3, 1, 8
6, 63164, Control_c, 3, 1, 0
6, 63360, Note_on_c, 3, 55, 123
6, 63470, Note_on_c, 3, 55, 0
6, 63480, Note_on_c, 3, 50, 127
6, 63576, Note_on_c, 3, 38, 90
6, 63612, Pitch_bend_c, 3, 8712
6, 63616, Pitch_bend_c, 3, 10012
6, 63620, Pitch_bend_c, 3, 10922
6, 63622, Pitch_bend_c, 3, 12352
6, 63626, Pitch_bend_c, 3, 13782
6, 63630, Pitch_bend_c, 3, 15602
6, 63632, Pitch_bend_c, 3, 15992
6, 63638, Pitch_bend_c, 3, 16382
6, 63668, Note_on_c, 3, 50, 0
6, 63712, Note_on_c, 3, 38, 0
6, 63714, Pitch_bend_c, 3, 15992
6, 63716, Pitch_bend_c, 3, 15472
6, 63720, Note_on_c, 3, 50, 127
6, 63720, Pitch_bend_c, 3, 13912
6, 63724, Pitch_bend_c, 3, 13002
6, 63726, Pitch_bend_c, 3, 11312
6, 63730, Pitch_bend_c, 3, 9882
6, 63734, Pitch_bend_c, 3, 9232
6, 63736, Pitch_bend_c, 3, 8712
6, 63742, Pitch_bend_c, 3, 8192
6, 63796, Pitch_bend_c, 3, 8582
6, 63798, Pitch_bend_c, 3, 10662
6, 63802, Pitch_bend_c, 3, 12352
6, 63804, Pitch_bend_c, 3, 14692
6, 63808, Pitch_bend_c, 3, 15472
6, 63810, Pitch_bend_c, 3, 16122
6, 63816, Pitch_bend_c, 3, 16382
6, 64002, Control_c, 3, 1, 6
6, 64010, Control_c, 3, 1, 14
6, 64014, Control_c, 3, 1, 20
6, 64018, Control_c, 3, 1, 26
6, 64030, Control_c, 3, 1, 32
6, 64042, Control_c, 3, 1, 38
6, 64048, Control_c, 3, 1, 44
6, 64060, Control_c, 3, 1, 50
6, 64074, Control_c, 3, 1, 52
6, 64190, Control_c, 3, 1, 46
6, 64194, Control_c, 3, 1, 40
6, 64198, Control_c, 3, 1, 34
6, 64202, Control_c, 3, 1, 24
6, 64208, Note_on_c, 3, 50, 0
6, 64208, Control_c, 3, 1, 12
6, 64212, Control_c, 3, 1, 2
6, 64212, Control_c, 3, 1, 0
6, 64320, Note_on_c, 3, 57, 127
6, 64332, Pitch_bend_c, 3, 8576
6, 64336, Pitch_bend_c, 3, 8896
6, 64340, Pitch_bend_c, 3, 9280
6, 64344, Pitch_bend_c, 3, 9600
6, 64346, Pitch_bend_c, 3, 9984
6, 64350, Pitch_bend_c, 3, 10304
6, 64354, Pitch_bend_c, 3, 10752
6, 64356, Pitch_bend_c, 3, 11072
6, 64360, Pitch_bend_c, 3, 11392
6, 64364, Pitch_bend_c, 3, 11712
6, 64366, Pitch_bend_c, 3, 12096
6, 64370, Pitch_bend_c, 3, 12608
6, 64372, Pitch_bend_c, 3, 13120
6, 64376, Pitch_bend_c, 3, 13696
6, 64378, Pitch_bend_c, 3, 14528
6, 64380, Pitch_bend_c, 3, 15936
6, 64438, Note_on_c, 3, 57, 0
6, 64440, Note_on_c, 3, 60, 127
6, 64560, Note_on_c, 3, 60, 0
6, 64560, Note_on_c, 3, 65, 127
6, 64670, Pitch_bend_c, 3, 15616
6, 64672, Pitch_bend_c, 3, 15104
6, 64674, Note_on_c, 3, 65, 0
6, 64676, Pitch_bend_c, 3, 14656
6, 64678, Pitch_bend_c, 3, 14144
6, 64680, Note_on_c, 3, 57, 127
6, 64682, Pitch_bend_c, 3, 13632
6, 64684, Pitch_bend_c, 3, 13184
6, 64688, Pitch_bend_c, 3, 12672
6, 64690, Pitch_bend_c, 3, 12288
6, 64694, Pitch_bend_c, 3, 11840
6, 64696, Pitch_bend_c, 3, 11456
6, 64700, Pitch_bend_c, 3, 11136
6, 64702, Pitch_bend_c, 3, 10624
6, 64706, Pitch_bend_c, 3, 10112
6, 64708, Pitch_bend_c, 3, 9792
6, 64712, Pitch_bend_c, 3, 9408
6, 64714, Pitch_bend_c, 3, 9024
6, 64718, Pitch_bend_c, 3, 8512
6, 64722, Pitch_bend_c, 3, 8256
6, 64746, Control_c, 3, 1, 8
6, 64750, Control_c, 3, 1, 14
6, 64752, Control_c, 3, 1, 20
6, 64756, Control_c, 3, 1, 28
6, 64760, Control_c, 3, 1, 34
6, 64764, Control_c, 3, 1, 42
6, 64774, Control_c, 3, 1, 48
6, 64810, Control_c, 3, 1, 54
6, 64840, Control_c, 3, 1, 60
6, 64850, Control_c, 3, 1, 62
6, 65058, Control_c, 3, 1, 56
6, 65066, Control_c, 3, 1, 50
6, 65070, Control_c, 3, 1, 44
6, 65072, Control_c, 3, 1, 38
6, 65076, Control_c, 3, 1, 16
6, 65078, Note_on_c, 3, 57, 0
6, 65080, Control_c, 3, 1, 8
6, 65084, Control_c, 3, 1, 0
6, 65280, Note_on_c, 3, 55, 123
6, 65390, Note_on_c, 3, 55, 0
6, 65400, Note_on_c, 3, 50, 127
6, 65502, Note_on_c, 3, 38, 90
6, 65532, Pitch_bend_c, 3, 8712
6, 65536, Pitch_bend_c, 3, 10012
6, 65540, Pitch_bend_c, 3, 10922
6, 65542, Pitch_bend_c, 3, 12352
6, 65546, Pitch_bend_c, 3, 13782
6, 65550, Pitch_bend_c, 3, 15602
6, 65552, Pitch_bend_c, 3, 15992
6, 65558, Pitch_bend_c, 3, 16382
6, 65608, Note_on_c, 3, 50, 0
6, 65634, Pitch_bend_c, 3, 15992
6, 65636, Pitch_bend_c, 3, 15472
6, 65640, Note_on_c, 3, 50, 127
6, 65640, Pitch_bend_c, 3, 13912
6, 65644, Pitch_bend_c, 3, 13002
6, 65646, Note_on_c, 3, 38, 0
6, 65646, Pitch_bend_c, 3, 11312
6, 65650, Pitch_bend_c, 3, 9882
6, 65654, Pitch_bend_c, 3, 9232
6, 65656, Pitch_bend_c, 3, 8712
6, 65662, Pitch_bend_c, 3, 8192
6, 65716, Pitch_bend_c, 3, 8582
6, 65718, Pitch_bend_c, 3, 10662
6, 65722, Pitch_bend_c, 3, 12352
6, 65724, Pitch_bend_c, 3, 14692
6, 65728, Pitch_bend_c, 3, 15472
6, 65730, Pitch_bend_c, 3, 16122
6, 65736, Pitch_bend_c, 3, 16382
6, 65922, Control_c, 3, 1, 6
6, 65930, Control_c, 3, 1, 14
6, 65934, Control_c, 3, 1, 20
6, 65938, Control_c, 3, 1, 26
6, 65950, Control_c, 3, 1, 32
6, 65962, Control_c, 3, 1, 38
6, 65968, Control_c, 3, 1, 44
6, 65980, Control_c, 3, 1, 50
6, 65994, Control_c, 3, 1, 52
6, 66000, Note_on_c, 3, 50, 0
6, 66000, Pitch_bend_c, 3, 8256
6, 66108, Note_on_c, 3, 50, 122
6, 66110, Control_c, 3, 1, 46
6, 66114, Control_c, 3, 1, 40
6, 66118, Control_c, 3, 1, 34
6, 66122, Control_c, 3, 1, 24
6, 66128, Control_c, 3, 1, 12
6, 66132, Pitch_bend_c, 3, 8582
6, 66132, Control_c, 3, 1, 2
6, 66132, Control_c, 3, 1, 0
6, 66134, Pitch_bend_c, 3, 9102
6, 66138, Pitch_bend_c, 3, 10272
6, 66142, Pitch_bend_c, 3, 11052
6, 66144, Pitch_bend_c, 3, 12612
6, 66150, Pitch_bend_c, 3, 14562
6, 66154, Pitch_bend_c, 3, 15862
6, 66158, Pitch_bend_c, 3, 16252
6, 66160, Pitch_bend_c, 3, 16382
6, 66214, Note_on_c, 3, 50, 0
6, 66220, Pitch_bend_c, 3, 15862
6, 66224, Pitch_bend_c, 3, 8256
6, 66224, Pitch_bend_c, 3, 13392
6, 66228, Pitch_bend_c, 3, 10532
6, 66230, Pitch_bend_c, 3, 8192
6, 66232, Pitch_bend_c, 3, 8064
6, 66234, Pitch_bend_c, 3, 8192
6, 66238, Pitch_bend_c, 3, 8582
6, 66240, Note_on_c, 3, 55, 113
6, 66240, Pitch_bend_c, 3, 8972
6, 66246, Pitch_bend_c, 3, 8452
6, 66246, Pitch_bend_c, 3, 8192
6, 66250, Pitch_bend_c, 3, 7936
6, 66256, Pitch_bend_c, 3, 8192
6, 66336, Note_on_c, 3, 55, 0
6, 66360, Note_on_c, 3, 57, 113
6, 66434, Note_on_c, 3, 57, 0
6, 66480, Note_on_c, 3, 59, 113
6, 66584, Note_on_c, 3, 59, 0
6, 66600, Note_on_c, 3, 53, 113
6, 66608, Pitch_bend_c, 3, 8712
6, 66612, Pitch_bend_c, 3, 9102
6, 66614, Pitch_bend_c, 3, 9622
6, 66618, Pitch_bend_c, 3, 10402
6, 66624, Pitch_bend_c, 3, 11312
6, 66628, Pitch_bend_c, 3, 12742
6, 66630, Pitch_bend_c, 3, 13522
6, 66634, Pitch_bend_c, 3, 14692
6, 66638, Pitch_bend_c, 3, 15472
6, 66640, Pitch_bend_c, 3, 15862
6, 66644, Pitch_bend_c, 3, 16252
6, 66646, Pitch_bend_c, 3, 16382
6, 66846, Pitch_bend_c, 3, 15992
6, 66848, Pitch_bend_c, 3, 15472
6, 66852, Pitch_bend_c, 3, 15082
6, 66856, Pitch_bend_c, 3, 14432
6, 66860, Pitch_bend_c, 3, 14042
6, 66864, Pitch_bend_c, 3, 13782
6, 66872, Pitch_bend_c, 3, 14172
6, 66878, Pitch_bend_c, 3, 15212
6, 66880, Pitch_bend_c, 3, 15732
6, 66884, Pitch_bend_c, 3, 16252
6, 66888, Pitch_bend_c, 3, 16382
6, 66906, Pitch_bend_c, 3, 15992
6, 66908, Pitch_bend_c, 3, 15602
6, 66912, Pitch_bend_c, 3, 14692
6, 66914, Pitch_bend_c, 3, 13912
6, 66918, Pitch_bend_c, 3, 13132
6, 66922, Pitch_bend_c, 3, 12742
6, 66924, Pitch_bend_c, 3, 12352
6, 66932, Pitch_bend_c, 3, 12872
6, 66936, Pitch_bend_c, 3, 13652
6, 66938, Pitch_bend_c, 3, 15212
6, 66942, Pitch_bend_c, 3, 15732
6, 66946, Pitch_bend_c, 3, 16252
6, 66950, Pitch_bend_c, 3, 16382
6, 66976, Pitch_bend_c, 3, 15732
6, 66980, Pitch_bend_c, 3, 15342
6, 66984, Pitch_bend_c, 3, 15082
6, 66992, Pitch_bend_c, 3, 15602
6, 66994, Pitch_bend_c, 3, 16122
6, 67000, Pitch_bend_c, 3, 16382
6, 67042, Pitch_bend_c, 3, 16252
6, 67046, Pitch_bend_c, 3, 16382
6, 67096, Pitch_bend_c, 3, 15992
6, 67100, Note_on_c, 3, 53, 0
6, 67106, Pitch_bend_c, 3, 16382
6, 67120, Pitch_bend_c, 3, 15992
6, 67124, Pitch_bend_c, 3, 13522
6, 67126, Pitch_bend_c, 3, 10532
6, 67130, Pitch_bend_c, 3, 7808
6, 67132, Pitch_bend_c, 3, 7552
6, 67136, Pitch_bend_c, 3, 7936
6, 67136, Pitch_bend_c, 3, 8192
6, 67140, Pitch_bend_c, 3, 8972
6, 67144, Pitch_bend_c, 3, 8582
6, 67146, Pitch_bend_c, 3, 8192
6, 67148, Pitch_bend_c, 3, 7808
6, 67156, Pitch_bend_c, 3, 8192
6, 67180, Note_on_c, 3, 53, 108
6, 67206, Pitch_bend_c, 3, 8712
6, 67210, Pitch_bend_c, 3, 9492
6, 67212, Pitch_bend_c, 3, 10402
6, 67216, Pitch_bend_c, 3, 11832
6, 67220, Pitch_bend_c, 3, 13002
6, 67222, Pitch_bend_c, 3, 14172
6, 67226, Pitch_bend_c, 3, 15472
6, 67228, Pitch_bend_c, 3, 15992
6, 67236, Pitch_bend_c, 3, 16382
6, 67314, Note_on_c, 3, 53, 0
6, 67320, Note_on_c, 3, 45, 122
6, 67322, Pitch_bend_c, 3, 14822
6, 67326, Pitch_bend_c, 3, 12742
6, 67330, Pitch_bend_c, 3, 8192
6, 67332, Pitch_bend_c, 3, 7296
6, 67336, Pitch_bend_c, 3, 7936
6, 67336, Pitch_bend_c, 3, 8192
6, 67340, Pitch_bend_c, 3, 8842
6, 67342, Pitch_bend_c, 3, 8972
6, 67346, Pitch_bend_c, 3, 8322
6, 67346, Pitch_bend_c, 3, 8192
6, 67350, Pitch_bend_c, 3, 7680
6, 67354, Pitch_bend_c, 3, 8064
6, 67356, Pitch_bend_c, 3, 8192
6, 67366, Pitch_bend_c, 3, 8064
6, 67368, Pitch_bend_c, 3, 8192
6, 67434, Note_on_c, 3, 45, 0
6, 67440, Note_on_c, 3, 40, 113
6, 67554, Note_on_c, 3, 40, 0
6, 67560, Note_on_c, 3, 43, 104
6, 67686, Pitch_bend_c, 3, 8582
6, 67694, Pitch_bend_c, 3, 8972
6, 67708, Pitch_bend_c, 3, 8582
6, 67714, Pitch_bend_c, 3, 8192
6, 67798, Pitch_bend_c, 3, 7808
6, 67802, Pitch_bend_c, 3, 7552
6, 67814, Pitch_bend_c, 3, 7936
6, 67818, Pitch_bend_c, 3, 8192
6, 67828, Pitch_bend_c, 3, 8582
6, 67832, Pitch_bend_c, 3, 9102
6, 67836, Pitch_bend_c, 3, 9622
6, 67838, Pitch_bend_c, 3, 10532
6, 67842, Pitch_bend_c, 3, 11052
6, 67844, Pitch_bend_c, 3, 11442
6, 67846, Pitch_bend_c, 3, 11572
6, 67856, Pitch_bend_c, 3, 11182
6, 67862, Pitch_bend_c, 3, 10662
6, 67864, Pitch_bend_c, 3, 10012
6, 67868, Pitch_bend_c, 3, 9622
6, 67870, Pitch_bend_c, 3, 9232
6, 67874, Pitch_bend_c, 3, 8842
6, 67878, Pitch_bend_c, 3, 8452
6, 67880, Pitch_bend_c, 3, 8322
6, 67892, Pitch_bend_c, 3, 8712
6, 67896, Pitch_bend_c, 3, 9492
6, 67898, Pitch_bend_c, 3, 9882
6, 67902, Pitch_bend_c, 3, 10792
6, 67906, Pitch_bend_c, 3, 11312
6, 67908, Pitch_bend_c, 3, 11832
6, 67912, Pitch_bend_c, 3, 12352
6, 67918, Pitch_bend_c, 3, 12612
6, 67924, Pitch_bend_c, 3, 12092
6, 67928, Pitch_bend_c, 3, 11702
6, 67932, Pitch_bend_c, 3, 11182
6, 67936, Pitch_bend_c, 3, 10792
6, 67938, Pitch_bend_c, 3, 9882
6, 67942, Pitch_bend_c, 3, 9492
6, 67944, Pitch_bend_c, 3, 9102
6, 67948, Pitch_bend_c, 3, 8712
6, 67954, Pitch_bend_c, 3, 8452
6, 67966, Pitch_bend_c, 3, 8842
6, 67970, Pitch_bend_c, 3, 10272
6, 67972, Pitch_bend_c, 3, 10662
6, 67976, Pitch_bend_c, 3, 11442
6, 67980, Pitch_bend_c, 3, 11832
6, 67982, Pitch_bend_c, 3, 12352
6, 67988, Pitch_bend_c, 3, 12612
6, 67998, Pitch_bend_c, 3, 12092
6, 68006, Pitch_bend_c, 3, 11572
6, 68008, Pitch_bend_c, 3, 11182
6, 68012, Pitch_bend_c, 3, 10792
6, 68016, Pitch_bend_c, 3, 9882
6, 68018, Pitch_bend_c, 3, 9492
6, 68020, Note_on_c, 3, 43, 0
6, 68022, Pitch_bend_c, 3, 8972
6, 68024, Pitch_bend_c, 3, 8582
6, 68030, Pitch_bend_c, 3, 8192
6, 68046, Note_on_c, 3, 45, 127
6, 68146, Note_on_c, 3, 45, 0
6, 68158, Note_on_c, 3, 45, 127
6, 68190, Pitch_bend_c, 3, 8842
6, 68192, Pitch_bend_c, 3, 9362
6, 68196, Pitch_bend_c, 3, 10922
6, 68198, Pitch_bend_c, 3, 11702
6, 68202, Pitch_bend_c, 3, 13522
6, 68206, Pitch_bend_c, 3, 14562
6, 68210, Pitch_bend_c, 3, 15862
6, 68212, Pitch_bend_c, 3, 16252
6, 68216, Pitch_bend_c, 3, 16382
6, 68254, Note_on_c, 3, 45, 0
6, 68284, Note_on_c, 3, 53, 122
6, 68370, Pitch_bend_c, 3, 15992
6, 68374, Pitch_bend_c, 3, 15212
6, 68378, Pitch_bend_c, 3, 14692
6, 68380, Pitch_bend_c, 3, 13002
6, 68384, Pitch_bend_c, 3, 11702
6, 68388, Pitch_bend_c, 3, 9752
6, 68390, Pitch_bend_c, 3, 9362
6, 68392, Note_on_c, 3, 53, 0
6, 68394, Pitch_bend_c, 3, 8582
6, 68396, Note_on_c, 3, 57, 122
6, 68398, Pitch_bend_c, 3, 8192
6, 68422, Pitch_bend_c, 3, 8582
6, 68424, Pitch_bend_c, 3, 9752
6, 68428, Pitch_bend_c, 3, 10662
6, 68430, Pitch_bend_c, 3, 12092
6, 68434, Pitch_bend_c, 3, 13912
6, 68438, Pitch_bend_c, 3, 15732
6, 68442, Pitch_bend_c, 3, 16122
6, 68444, Pitch_bend_c, 3, 16382
6, 68498, Pitch_bend_c, 3, 15992
6, 68500, Pitch_bend_c, 3, 15472
6, 68504, Pitch_bend_c, 3, 13652
6, 68508, Pitch_bend_c, 3, 11702
6, 68512, Note_on_c, 3, 57, 0
6, 68512, Pitch_bend_c, 3, 10012
6, 68516, Pitch_bend_c, 3, 9102
6, 68518, Pitch_bend_c, 3, 8192
6, 68518, Note_on_c, 3, 55, 125
6, 68524, Pitch_bend_c, 3, 7680
6, 68528, Pitch_bend_c, 3, 7296
6, 68530, Pitch_bend_c, 3, 7168
6, 68538, Pitch_bend_c, 3, 7552
6, 68542, Pitch_bend_c, 3, 7936
6, 68548, Pitch_bend_c, 3, 8192
6, 68552, Pitch_bend_c, 3, 8582
6, 68556, Pitch_bend_c, 3, 9752
6, 68558, Pitch_bend_c, 3, 11052
6, 68562, Pitch_bend_c, 3, 11962
6, 68564, Pitch_bend_c, 3, 14172
6, 68568, Pitch_bend_c, 3, 15212
6, 68570, Pitch_bend_c, 3, 15992
6, 68576, Pitch_bend_c, 3, 16382
6, 68708, Control_c, 3, 1, 6
6, 68716, Control_c, 3, 1, 12
6, 68726, Control_c, 3, 1, 18
6, 68740, Control_c, 3, 1, 26
6, 68754, Control_c, 3, 1, 32
6, 68772, Control_c, 3, 1, 38
6, 68788, Control_c, 3, 1, 44
6, 68802, Control_c, 3, 1, 50
6, 68836, Control_c, 3, 1, 56
6, 68850, Control_c, 3, 1, 62
6, 68870, Control_c, 3, 1, 68
6, 68874, Note_on_c, 3, 55, 0
6, 68880, Control_c, 3, 1, 1
6, 68880, Pitch_bend_c, 3, 8256
6, 68884, Note_on_c, 3, 55, 127
6, 68996, Note_on_c, 3, 55, 0
6, 68998, Note_on_c, 3, 50, 127
6, 69116, Note_on_c, 3, 57, 125
6, 69118, Note_on_c, 3, 50, 0
6, 69160, Pitch_bend_c, 3, 8712
6, 69162, Pitch_bend_c, 3, 9232
6, 69166, Pitch_bend_c, 3, 9752
6, 69170, Pitch_bend_c, 3, 11052
6, 69172, Pitch_bend_c, 3, 11962
6, 69176, Pitch_bend_c, 3, 13652
6, 69178, Pitch_bend_c, 3, 14952
6, 69186, Pitch_bend_c, 3, 15602
6, 69190, Pitch_bend_c, 3, 16382
6, 69238, Note_on_c, 3, 57, 0
6, 69250, Note_on_c, 3, 60, 126
6, 69318, Note_on_c, 3, 60, 0
6, 69368, Note_on_c, 3, 60, 127
6, 69448, Note_on_c, 3, 60, 0
6, 69466, Pitch_bend_c, 3, 15992
6, 69468, Pitch_bend_c, 3, 15472
6, 69472, Pitch_bend_c, 3, 14692
6, 69476, Pitch_bend_c, 3, 14042
6, 69478, Pitch_bend_c, 3, 13002
6, 69482, Pitch_bend_c, 3, 12352
6, 69486, Pitch_bend_c, 3, 10792
6, 69490, Pitch_bend_c, 3, 9882
6, 69492, Pitch_bend_c, 3, 9362
6, 69492, Note_on_c, 3, 62, 127
6, 69496, Pitch_bend_c, 3, 8972
6, 69500, Pitch_bend_c, 3, 8452
6, 69502, Pitch_bend_c, 3, 8192
6, 69534, Pitch_bend_c, 3, 8582
6, 69538, Pitch_bend_c, 3, 9102
6, 69540, Pitch_bend_c, 3, 10272
6, 69546, Pitch_bend_c, 3, 11442
6, 69550, Pitch_bend_c, 3, 13262
6, 69552, Pitch_bend_c, 3, 14172
6, 69556, Pitch_bend_c, 3, 15082
6, 69560, Pitch_bend_c, 3, 15862
6, 69564, Pitch_bend_c, 3, 16252
6, 69566, Pitch_bend_c, 3, 16382
6, 69642, Control_c, 3, 1, 6
6, 69648, Control_c, 3, 1, 12
6, 69652, Control_c, 3, 1, 18
6, 69660, Control_c, 3, 1, 24
6, 69666, Control_c, 3, 1, 30
6, 69672, Control_c, 3, 1, 36
6, 69682, Control_c, 3, 1, 42
6, 69690, Control_c, 3, 1, 48
6, 69698, Control_c, 3, 1, 54
6, 69706, Control_c, 3, 1, 60
6, 69716, Control_c, 3, 1, 66
6, 69748, Control_c, 3, 1, 72
6, 69836, Note_on_c, 3, 62, 0
6, 69840, Control_c, 3, 1, 0
6, 69846, Pitch_bend_c, 3, 8322
6, 69848, Pitch_bend_c, 3, 8712
6, 69852, Pitch_bend_c, 3, 9102
6, 69852, Note_on_c, 3, 50, 91
6, 69854, Pitch_bend_c, 3, 9752
6, 69858, Pitch_bend_c, 3, 10792
6, 69862, Pitch_bend_c, 3, 11702
6, 69866, Pitch_bend_c, 3, 13132
6, 69870, Pitch_bend_c, 3, 13782
6, 69874, Pitch_bend_c, 3, 15472
6, 69876, Pitch_bend_c, 3, 16122
6, 69880, Pitch_bend_c, 3, 16382
6, 69972, Note_on_c, 3, 45, 90
6, 69978, Note_on_c, 3, 50, 0
6, 69980, Pitch_bend_c, 3, 15992
6, 69982, Pitch_bend_c, 3, 15602
6, 69986, Pitch_bend_c, 3, 14692
6, 69990, Pitch_bend_c, 3, 14042
6, 69992, Pitch_bend_c, 3, 13782
6, 69992, Pitch_bend_c, 3, 16252
6, 69994, Pitch_bend_c, 3, 13132
6, 69994, Pitch_bend_c, 3, 15992
6, 69994, Pitch_bend_c, 3, 12742
6, 69996, Pitch_bend_c, 3, 15732
6, 69996, Pitch_bend_c, 3, 12352
6, 69998, Pitch_bend_c, 3, 14952
6, 69998, Pitch_bend_c, 3, 11832
6, 70000, Pitch_bend_c, 3, 14562
6, 70000, Pitch_bend_c, 3, 11442
6, 70000, Pitch_bend_c, 3, 14042
6, 70002, Pitch_bend_c, 3, 10012
6, 70004, Pitch_bend_c, 3, 13262
6, 70004, Pitch_bend_c, 3, 9752
6, 70004, Pitch_bend_c, 3, 13002
6, 70006, Pitch_bend_c, 3, 9492
6, 70006, Pitch_bend_c, 3, 11962
6, 70008, Pitch_bend_c, 3, 9232
6, 70008, Pitch_bend_c, 3, 11052
6, 70008, Pitch_bend_c, 3, 9102
6, 70010, Pitch_bend_c, 3, 10662
6, 70010, Pitch_bend_c, 3, 8712
6, 70012, Pitch_bend_c, 3, 10272
6, 70012, Pitch_bend_c, 3, 8582
6, 70014, Pitch_bend_c, 3, 9362
6, 70014, Pitch_bend_c, 3, 8452
6, 70016, Pitch_bend_c, 3, 9102
6, 70016, Pitch_bend_c, 3, 8322
6, 70016, Pitch_bend_c, 3, 8842
6, 70018, Pitch_bend_c, 3, 8192
6, 70024, Pitch_bend_c, 3, 7680
6, 70028, Pitch_bend_c, 3, 6272
6, 70032, Pitch_bend_c, 3, 5120
6, 70034, Pitch_bend_c, 3, 4096
6, 70038, Pitch_bend_c, 3, 3328
6, 70042, Pitch_bend_c, 3, 2048
6, 70046, Pitch_bend_c, 3, 896
6, 70050, Pitch_bend_c, 3, 128
6, 70050, Pitch_bend_c, 3, 0
6, 70078, Note_on_c, 3, 45, 0
6, 70078, Pitch_bend_c, 3, 8256
6, 70080, Note_on_c, 3, 40, 93
6, 70300, Note_on_c, 3, 59, 72
6, 70308, Note_on_c, 3, 64, 72
6, 70312, Note_on_c, 3, 67, 72
6, 70330, Note_on_c, 3, 40, 0
6, 70472, Note_on_c, 3, 59, 0
6, 70476, Note_on_c, 3, 64, 0
6, 70478, Note_on_c, 3, 67, 0
6, 70506, Note_on_c, 3, 59, 72
6, 70510, Note_on_c, 3, 64, 72
6, 70510, Note_on_c, 3, 67, 72
6, 70534, Note_on_c, 3, 59, 0
6, 70534, Note_on_c, 3, 64, 0
6, 70544, Note_on_c, 3, 67, 0
6, 70562, Note_on_c, 3, 40, 98
6, 70596, Note_on_c, 3, 40, 0
6, 70640, Note_on_c, 3, 59, 72
6, 70644, Note_on_c, 3, 64, 72
6, 70646, Note_on_c, 3, 67, 72
6, 70656, Note_on_c, 3, 59, 0
6, 70658, Note_on_c, 3, 64, 0
6, 70662, Note_on_c, 3, 40, 96
6, 70670, Note_on_c, 3, 67, 0
6, 70784, Note_on_c, 3, 59, 72
6, 70796, Note_on_c, 3, 64, 72
6, 70802, Note_on_c, 3, 67, 72
6, 70810, Note_on_c, 3, 40, 0
6, 71016, Note_on_c, 3, 59, 0
6, 71020, Note_on_c, 3, 64, 0
6, 71036, Note_on_c, 3, 67, 0
6, 71036, Note_on_c, 3, 43, 87
6, 71040, Note_on_c, 3, 50, 84
6, 71042, Note_on_c, 3, 55, 84
6, 71240, Note_on_c, 3, 43, 0
6, 71244, Note_on_c, 3, 50, 0
6, 71246, Note_on_c, 3, 55, 0
6, 71276, Note_on_c, 3, 43, 84
6, 71280, Note_on_c, 3, 50, 84
6, 71282, Note_on_c, 3, 55, 84
6, 71394, Note_on_c, 3, 43, 0
6, 71480, Note_on_c, 3, 50, 0
6, 71512, Note_on_c, 3, 55, 0
6, 71520, Note_on_c, 3, 45, 87
6, 71574, Note_on_c, 3, 52, 84
6, 71580, Note_on_c, 3, 57, 84
6, 71604, Note_on_c, 3, 45, 0
6, 71640, Note_on_c, 3, 45, 87
6, 71670, Note_on_c, 3, 52, 0
6, 71688, Note_on_c, 3, 57, 0
6, 71724, Note_on_c, 3, 45, 0
6, 71750, Note_on_c, 3, 45, 84
6, 71760, Note_on_c, 3, 52, 84
6, 71772, Note_on_c, 3, 57, 84
6, 71996, Note_on_c, 3, 52, 0
6, 71998, Note_on_c, 3, 45, 0
6, 72000, Note_on_c, 3, 57, 0
6, 72000, Note_on_c, 3, 40, 93
6, 72220, Note_on_c, 3, 59, 72
6, 72228, Note_on_c, 3, 64, 72
6, 72232, Note_on_c, 3, 67, 72
6, 72250, Note_on_c, 3, 40, 0
6, 72452, Note_on_c, 3, 59, 0
6, 72460, Note_on_c, 3, 64, 0
6, 72468, Note_on_c, 3, 67, 0
6, 72482, Note_on_c, 3, 40, 98
6, 72546, Note_on_c, 3, 40, 0
6, 72560, Note_on_c, 3, 59, 72
6, 72564, Note_on_c, 3, 64, 72
6, 72582, Note_on_c, 3, 40, 96
6, 72584, Note_on_c, 3, 59, 0
6, 72586, Note_on_c, 3, 64, 0
6, 72704, Note_on_c, 3, 59, 72
6, 72716, Note_on_c, 3, 64, 72
6, 72722, Note_on_c, 3, 67, 72
6, 72910, Note_on_c, 3, 40, 0
6, 72936, Note_on_c, 3, 59, 0
6, 72940, Note_on_c, 3, 64, 0
6, 72956, Note_on_c, 3, 67, 0
6, 72956, Note_on_c, 3, 43, 87
6, 72960, Note_on_c, 3, 50, 84
6, 72962, Note_on_c, 3, 55, 84
6, 73160, Note_on_c, 3, 43, 0
6, 73164, Note_on_c, 3, 50, 0
6, 73166, Note_on_c, 3, 55, 0
6, 73196, Note_on_c, 3, 43, 84
6, 73200, Note_on_c, 3, 50, 84
6, 73202, Note_on_c, 3, 55, 84
6, 73314, Note_on_c, 3, 43, 0
6, 73400, Note_on_c, 3, 50, 0
6, 73432, Note_on_c, 3, 55, 0
6, 73440, Note_on_c, 3, 45, 87
6, 73494, Note_on_c, 3, 52, 84
6, 73500, Note_on_c, 3, 57, 84
6, 73524, Note_on_c, 3, 45, 0
6, 73560, Note_on_c, 3, 45, 87
6, 73590, Note_on_c, 3, 52, 0
6, 73608, Note_on_c, 3, 57, 0
6, 73644, Note_on_c, 3, 45, 0
6, 73668, Note_on_c, 3, 45, 84
6, 73680, Note_on_c, 3, 57, 84
6, 73680, Note_on_c, 3, 52, 84
6, 73914, Note_on_c, 3, 45, 0
6, 73916, Note_on_c, 3, 52, 0
6, 73918, Note_on_c, 3, 57, 0
6, 73920, Note_on_c, 3, 40, 93
6, 74140, Note_on_c, 3, 59, 72
6, 74148, Note_on_c, 3, 64, 72
6, 74152, Note_on_c, 3, 67, 72
6, 74170, Note_on_c, 3, 40, 0
6, 74312, Note_on_c, 3, 59, 0
6, 74316, Note_on_c, 3, 64, 0
6, 74318, Note_on_c, 3, 67, 0
6, 74346, Note_on_c, 3, 59, 72
6, 74374, Note_on_c, 3, 59, 0
6, 74402, Note_on_c, 3, 40, 98
6, 74480, Note_on_c, 3, 59, 72
6, 74484, Note_on_c, 3, 40, 0
6, 74496, Note_on_c, 3, 59, 0
6, 74502, Note_on_c, 3, 40, 96
6, 74624, Note_on_c, 3, 59, 72
6, 74636, Note_on_c, 3, 64, 72
6, 74642, Note_on_c, 3, 67, 72
6, 74844, Note_on_c, 3, 40, 0
6, 74856, Note_on_c, 3, 59, 0
6, 74860, Note_on_c, 3, 64, 0
6, 74876, Note_on_c, 3, 67, 0
6, 74876, Note_on_c, 3, 43, 87
6, 74880, Note_on_c, 3, 50, 84
6, 74882, Note_on_c, 3, 55, 84
6, 75080, Note_on_c, 3, 43, 0
6, 75084, Note_on_c, 3, 50, 0
6, 75086, Note_on_c, 3, 55, 0
6, 75116, Note_on_c, 3, 43, 84
6, 75120, Note_on_c, 3, 50, 84
6, 75122, Note_on_c, 3, 55, 84
6, 75234, Note_on_c, 3, 43, 0
6, 75320, Note_on_c, 3, 50, 0
6, 75352, Note_on_c, 3, 55, 0
6, 75360, Note_on_c, 3, 45, 87
6, 75414, Note_on_c, 3, 52, 84
6, 75420, Note_on_c, 3, 57, 84
6, 75444, Note_on_c, 3, 45, 0
6, 75480, Note_on_c, 3, 45, 87
6, 75510, Note_on_c, 3, 52, 0
6, 75528, Note_on_c, 3, 57, 0
6, 75564, Note_on_c, 3, 45, 0
6, 75590, Note_on_c, 3, 45, 84
6, 75600, Note_on_c, 3, 52, 84
6, 75608, Note_on_c, 3, 57, 84
6, 75838, Note_on_c, 3, 45, 0
6, 75840, Note_on_c, 3, 52, 0
6, 75840, Note_on_c, 3, 57, 0
6, 75840, Note_on_c, 3, 40, 93
6, 76060, Note_on_c, 3, 59, 72
6, 76068, Note_on_c, 3, 64, 72
6, 76072, Note_on_c, 3, 67, 72
6, 76090, Note_on_c, 3, 40, 0
6, 76292, Note_on_c, 3, 59, 0
6, 76300, Note_on_c, 3, 64, 0
6, 76308, Note_on_c, 3, 67, 0
6, 76322, Note_on_c, 3, 40, 98
6, 76386, Note_on_c, 3, 40, 0
6, 76400, Note_on_c, 3, 59, 72
6, 76404, Note_on_c, 3, 64, 72
6, 76412, Note_on_c, 3, 59, 0
6, 76414, Note_on_c, 3, 64, 0
6, 76422, Note_on_c, 3, 40, 96
6, 76544, Note_on_c, 3, 59, 72
6, 76556, Note_on_c, 3, 64, 72
6, 76562, Note_on_c, 3, 67, 72
6, 76750, Note_on_c, 3, 40, 0
6, 76776, Note_on_c, 3, 59, 0
6, 76780, Note_on_c, 3, 64, 0
6, 76796, Note_on_c, 3, 67, 0
6, 76796, Note_on_c, 3, 43, 87
6, 76800, Note_on_c, 3, 50, 84
6, 76802, Note_on_c, 3, 55, 84
6, 77000, Note_on_c, 3, 43, 0
6, 77004, Note_on_c, 3, 50, 0
6, 77006, Note_on_c, 3, 55, 0
6, 77036, Note_on_c, 3, 43, 84
6, 77040, Note_on_c, 3, 50, 84
6, 77042, Note_on_c, 3, 55, 84
6, 77154, Note_on_c, 3, 43, 0
6, 77240, Note_on_c, 3, 50, 0
6, 77272, Note_on_c, 3, 55, 0
6, 77280, Note_on_c, 3, 45, 87
6, 77334, Note_on_c, 3, 52, 84
6, 77340, Note_on_c, 3, 57, 84
6, 77364, Note_on_c, 3, 45, 0
6, 77400, Note_on_c, 3, 45, 87
6, 77430, Note_on_c, 3, 52, 0
6, 77448, Note_on_c, 3, 57, 0
6, 77484, Note_on_c, 3, 45, 0
6, 77510, Note_on_c, 3, 45, 84
6, 77520, Note_on_c, 3, 52, 84
6, 77532, Note_on_c, 3, 57, 84
6, 77760, Note_on_c, 3, 45, 0
6, 77760, Note_on_c, 3, 52, 0
6, 77760, Note_on_c, 3, 57, 0
6, 77760, Note_on_c, 3, 40, 93
6, 77980, Note_on_c, 3, 59, 72
6, 77988, Note_on_c, 3, 64, 72
6, 77992, Note_on_c, 3, 67, 72
6, 78010, Note_on_c, 3, 40, 0
6, 78212, Note_on_c, 3, 59, 0
6, 78220, Note_on_c, 3, 64, 0
6, 78228, Note_on_c, 3, 67, 0
6, 78242, Note_on_c, 3, 40, 98
6, 78306, Note_on_c, 3, 40, 0
6, 78320, Note_on_c, 3, 59, 72
6, 78324, Note_on_c, 3, 64, 72
6, 78332, Note_on_c, 3, 59, 0
6, 78334, Note_on_c, 3, 64, 0
6, 78342, Note_on_c, 3, 40, 96
6, 78464, Note_on_c, 3, 59, 72
6, 78476, Note_on_c, 3, 64, 72
6, 78482, Note_on_c, 3, 67, 72
6, 78670, Note_on_c, 3, 40, 0
6, 78696, Note_on_c, 3, 59, 0
6, 78700, Note_on_c, 3, 64, 0
6, 78716, Note_on_c, 3, 67, 0
6, 78716, Note_on_c, 3, 43, 87
6, 78720, Note_on_c, 3, 50, 84
6, 78722, Note_on_c, 3, 55, 84
6, 78920, Note_on_c, 3, 43, 0
6, 78924, Note_on_c, 3, 50, 0
6, 78926, Note_on_c, 3, 55, 0
6, 78956, Note_on_c, 3, 43, 84
6, 78960, Note_on_c, 3, 50, 84
6, 78962, Note_on_c, 3, 55, 84
6, 79074, Note_on_c, 3, 43, 0
6, 79160, Note_on_c, 3, 50, 0
6, 79192, Note_on_c, 3, 55, 0
6, 79200, Note_on_c, 3, 45, 87
6, 79254, Note_on_c, 3, 52, 84
6, 79260, Note_on_c, 3, 57, 84
6, 79284, Note_on_c, 3, 45, 0
6, 79320, Note_on_c, 3, 45, 87
6, 79350, Note_on_c, 3, 52, 0
6, 79368, Note_on_c, 3, 57, 0
6, 79404, Note_on_c, 3, 45, 0
6, 79430, Note_on_c, 3, 45, 84
6, 79440, Note_on_c, 3, 52, 84
6, 79448, Note_on_c, 3, 57, 84
6, 79678, Note_on_c, 3, 45, 0
6, 79678, Note_on_c, 3, 52, 0
6, 79680, Note_on_c, 3, 57, 0
6, 79680, Note_on_c, 3, 40, 84
6, 79826, Note_on_c, 3, 40, 0
6, 81120, Note_on_c, 3, 54, 127
6, 81230, Note_on_c, 3, 54, 0
6, 81240, Note_on_c, 3, 52, 127
6, 81360, Note_on_c, 3, 50, 127
6, 81364, Note_on_c, 3, 52, 0
6, 81596, Note_on_c, 3, 50, 0
6, 81600, Note_on_c, 3, 57, 127
6, 81628, Pitch_bend_c, 3, 8712
6, 81632, Pitch_bend_c, 3, 9622
6, 81636, Pitch_bend_c, 3, 10402
6, 81640, Pitch_bend_c, 3, 11832
6, 81642, Pitch_bend_c, 3, 12872
6, 81646, Pitch_bend_c, 3, 13782
6, 81650, Pitch_bend_c, 3, 15212
6, 81652, Pitch_bend_c, 3, 15732
6, 81656, Pitch_bend_c, 3, 16252
6, 81660, Pitch_bend_c, 3, 16382
6, 81720, Note_on_c, 3, 60, 127
6, 81726, Note_on_c, 3, 57, 0
6, 81834, Control_c, 3, 1, 8
6, 81840, Control_c, 3, 1, 14
6, 81840, Note_on_c, 3, 65, 127
6, 81846, Control_c, 3, 1, 22
6, 81848, Note_on_c, 3, 60, 0
6, 81850, Control_c, 3, 1, 28
6, 81854, Control_c, 3, 1, 34
6, 81860, Control_c, 3, 1, 40
6, 81864, Control_c, 3, 1, 46
6, 81868, Control_c, 3, 1, 52
6, 81876, Control_c, 3, 1, 58
6, 81884, Control_c, 3, 1, 64
6, 81888, Control_c, 3, 1, 70
6, 81896, Control_c, 3, 1, 76
6, 81904, Control_c, 3, 1, 82
6, 81914, Control_c, 3, 1, 88
6, 81954, Control_c, 3, 1, 92
6, 81990, Control_c, 3, 1, 86
6, 82012, Note_on_c, 3, 65, 0
6, 82030, Control_c, 3, 1, 80
6, 82038, Pitch_bend_c, 3, 15732
6, 82040, Pitch_bend_c, 3, 15342
6, 82044, Pitch_bend_c, 3, 14822
6, 82048, Control_c, 3, 1, 74
6, 82048, Pitch_bend_c, 3, 13782
6, 82050, Pitch_bend_c, 3, 13002
6, 82054, Pitch_bend_c, 3, 11702
6, 82056, Control_c, 3, 1, 68
6, 82058, Pitch_bend_c, 3, 10662
6, 82062, Pitch_bend_c, 3, 9622
6, 82062, Control_c, 3, 1, 60
6, 82064, Pitch_bend_c, 3, 8972
6, 82066, Control_c, 3, 1, 54
6, 82068, Pitch_bend_c, 3, 8582
6, 82070, Control_c, 3, 1, 46
6, 82072, Pitch_bend_c, 3, 8192
6, 82074, Control_c, 3, 1, 38
6, 82076, Control_c, 3, 1, 30
6, 82080, Note_on_c, 3, 57, 127
6, 82080, Control_c, 3, 1, 20
6, 82084, Control_c, 3, 1, 6
6, 82090, Control_c, 3, 1, 0
6, 82096, Pitch_bend_c, 3, 8712
6, 82100, Pitch_bend_c, 3, 9362
6, 82102, Pitch_bend_c, 3, 10272
6, 82106, Pitch_bend_c, 3, 11702
6, 82110, Pitch_bend_c, 3, 13132
6, 82114, Pitch_bend_c, 3, 15342
6, 82116, Pitch_bend_c, 3, 15862
6, 82120, Pitch_bend_c, 3, 16252
6, 82124, Pitch_bend_c, 3, 16382
6, 82200, Note_on_c, 3, 60, 127
6, 82204, Note_on_c, 3, 57, 0
6, 82302, Control_c, 3, 1, 6
6, 82306, Control_c, 3, 1, 12
6, 82314, Control_c, 3, 1, 20
6, 82316, Control_c, 3, 1, 26
6, 82318, Note_on_c, 3, 60, 0
6, 82320, Note_on_c, 3, 65, 125
6, 82322, Control_c, 3, 1, 32
6, 82328, Control_c, 3, 1, 40
6, 82332, Control_c, 3, 1, 46
6, 82336, Control_c, 3, 1, 52
6, 82342, Control_c, 3, 1, 60
6, 82350, Control_c, 3, 1, 66
6, 82354, Control_c, 3, 1, 72
6, 82362, Control_c, 3, 1, 78
6, 82368, Control_c, 3, 1, 84
6, 82390, Control_c, 3, 1, 90
6, 82434, Control_c, 3, 1, 88
6, 82464, Control_c, 3, 1, 90
6, 82502, Control_c, 3, 1, 84
6, 82508, Control_c, 3, 1, 78
6, 82514, Control_c, 3, 1, 70
6, 82518, Control_c, 3, 1, 60
6, 82522, Note_on_c, 3, 65, 0
6, 82522, Control_c, 3, 1, 44
6, 82526, Control_c, 3, 1, 32
6, 82528, Control_c, 3, 1, 18
6, 82532, Control_c, 3, 1, 6
6, 82540, Control_c, 3, 1, 0
6, 82544, Pitch_bend_c, 3, 15732
6, 82548, Pitch_bend_c, 3, 14822
6, 82550, Pitch_bend_c, 3, 13262
6, 82554, Pitch_bend_c, 3, 10272
6, 82556, Pitch_bend_c, 3, 8712
6, 82558, Pitch_bend_c, 3, 8256
6, 82558, End_track
7, 0, Start_track
7, 0, Title_t, "5"
7, 0, Program_c, 4, 29
7, 0, Control_c, 4, 7, 100
7, 0, Note_on_c, 4, 46, 127
7, 92, Note_on_c, 4, 46, 0
7, 240, Note_on_c, 4, 58, 127
7, 360, Note_on_c, 4, 58, 0
7, 480, Note_on_c, 4, 46, 127
7, 602, Note_on_c, 4, 46, 0
7, 720, Note_on_c, 4, 58, 127
7, 840, Note_on_c, 4, 58, 0
7, 960, Note_on_c, 4, 46, 127
7, 1068, Note_on_c, 4, 46, 0
7, 1200, Note_on_c, 4, 58, 127
7, 1320, Note_on_c, 4, 58, 0
7, 1440, Note_on_c, 4, 46, 127
7, 1574, Note_on_c, 4, 46, 0
7, 1680, Note_on_c, 4, 58, 127
7, 1800, Note_on_c, 4, 58, 0
7, 1904, Note_on_c, 4, 57, 127
7, 1920, Note_on_c, 4, 57, 0
7, 1920, Note_on_c, 4, 57, 127
7, 1932, Pitch_bend_c, 4, 8576
7, 1936, Pitch_bend_c, 4, 8896
7, 1940, Pitch_bend_c, 4, 9280
7, 1944, Pitch_bend_c, 4, 9600
7, 1946, Pitch_bend_c, 4, 9984
7, 1950, Pitch_bend_c, 4, 10304
7, 1954, Pitch_bend_c, 4, 10752
7, 1956, Pitch_bend_c, 4, 11072
7, 1960, Pitch_bend_c, 4, 11392
7, 1964, Pitch_bend_c, 4, 11712
7, 1966, Pitch_bend_c, 4, 12096
7, 1970, Pitch_bend_c, 4, 12608
7, 1972, Pitch_bend_c, 4, 13120
7, 1976, Pitch_bend_c, 4, 13696
7, 1978, Pitch_bend_c, 4, 14528
7, 1980, Pitch_bend_c, 4, 15936
7, 2034, Note_on_c, 4, 57, 0
7, 2040, Note_on_c, 4, 60, 127
7, 2158, Note_on_c, 4, 60, 0
7, 2160, Note_on_c, 4, 65, 127
7, 2272, Pitch_bend_c, 4, 8256
7, 2278, Note_on_c, 4, 65, 0
7, 2280, Note_on_c, 4, 57, 127
7, 2344, Control_c, 4, 1, 2
7, 2346, Control_c, 4, 1, 8
7, 2350, Control_c, 4, 1, 14
7, 2352, Control_c, 4, 1, 20
7, 2356, Control_c, 4, 1, 28
7, 2360, Control_c, 4, 1, 34
7, 2364, Control_c, 4, 1, 42
7, 2374, Control_c, 4, 1, 48
7, 2410, Control_c, 4, 1, 54
7, 2440, Control_c, 4, 1, 60
7, 2450, Control_c, 4, 1, 62
7, 2658, Control_c, 4, 1, 56
7, 2666, Control_c, 4, 1, 50
7, 2670, Control_c, 4, 1, 44
7, 2672, Control_c, 4, 1, 38
7, 2676, Control_c, 4, 1, 16
7, 2678, Note_on_c, 4, 57, 0
7, 2680, Control_c, 4, 1, 8
7, 2684, Control_c, 4, 1, 0
7, 2880, Note_on_c, 4, 55, 123
7, 2990, Note_on_c, 4, 55, 0
7, 3000, Note_on_c, 4, 50, 127
7, 3096, Note_on_c, 4, 38, 90
7, 3132, Pitch_bend_c, 4, 8712
7, 3136, Pitch_bend_c, 4, 10012
7, 3140, Pitch_bend_c, 4, 10922
7, 3142, Pitch_bend_c, 4, 12352
7, 3146, Pitch_bend_c, 4, 13782
7, 3150, Pitch_bend_c, 4, 15602
7, 3152, Pitch_bend_c, 4, 15992
7, 3158, Pitch_bend_c, 4, 16382
7, 3188, Note_on_c, 4, 50, 0
7, 3232, Note_on_c, 4, 38, 0
7, 3234, Pitch_bend_c, 4, 15992
7, 3236, Pitch_bend_c, 4, 15472
7, 3240, Note_on_c, 4, 50, 127
7, 3240, Pitch_bend_c, 4, 13912
7, 3244, Pitch_bend_c, 4, 13002
7, 3246, Pitch_bend_c, 4, 11312
7, 3250, Pitch_bend_c, 4, 9882
7, 3254, Pitch_bend_c, 4, 9232
7, 3256, Pitch_bend_c, 4, 8712
7, 3262, Pitch_bend_c, 4, 8192
7, 3316, Pitch_bend_c, 4, 8582
7, 3318, Pitch_bend_c, 4, 10662
7, 3322, Pitch_bend_c, 4, 12352
7, 3324, Pitch_bend_c, 4, 14692
7, 3328, Pitch_bend_c, 4, 15472
7, 3330, Pitch_bend_c, 4, 16122
7, 3336, Pitch_bend_c, 4, 16382
7, 3522, Control_c, 4, 1, 6
7, 3530, Control_c, 4, 1, 14
7, 3534, Control_c, 4, 1, 20
7, 3538, Control_c, 4, 1, 26
7, 3550, Control_c, 4, 1, 32
7, 3562, Control_c, 4, 1, 38
7, 3568, Control_c, 4, 1, 44
7, 3580, Control_c, 4, 1, 50
7, 3594, Control_c, 4, 1, 52
7, 3710, Control_c, 4, 1, 46
7, 3714, Control_c, 4, 1, 40
7, 3718, Control_c, 4, 1, 34
7, 3722, Control_c, 4, 1, 24
7, 3728, Note_on_c, 4, 50, 0
7, 3728, Control_c, 4, 1, 12
7, 3732, Control_c, 4, 1, 2
7, 3732, Control_c, 4, 1, 0
7, 3840, Note_on_c, 4, 57, 127
7, 3852, Pitch_bend_c, 4, 8576
7, 3856, Pitch_bend_c, 4, 8896
7, 3860, Pitch_bend_c, 4, 9280
7, 3864, Pitch_bend_c, 4, 9600
7, 3866, Pitch_bend_c, 4, 9984
7, 3870, Pitch_bend_c, 4, 10304
7, 3874, Pitch_bend_c, 4, 10752
7, 3876, Pitch_bend_c, 4, 11072
7, 3880, Pitch_bend_c, 4, 11392
7, 3884, Pitch_bend_c, 4, 11712
7, 3886, Pitch_bend_c, 4, 12096
7, 3890, Pitch_bend_c, 4, 12608
7, 3892, Pitch_bend_c, 4, 13120
7, 3896, Pitch_bend_c, 4, 13696
7, 3898, Pitch_bend_c, 4, 14528
7, 3900, Pitch_bend_c, 4, 15936
7, 3958, Note_on_c, 4, 57, 0
7, 3960, Note_on_c, 4, 60, 127
7, 4080, Note_on_c, 4, 60, 0
7, 4080, Note_on_c, 4, 65, 127
7, 4190, Pitch_bend_c, 4, 15616
7, 4192, Pitch_bend_c, 4, 15104
7, 4194, Note_on_c, 4, 65, 0
7, 4196, Pitch_bend_c, 4, 14656
7, 4198, Pitch_bend_c, 4, 14144
7, 4200, Note_on_c, 4, 57, 127
7, 4202, Pitch_bend_c, 4, 13632
7, 4204, Pitch_bend_c, 4, 13184
7, 4208, Pitch_bend_c, 4, 12672
7, 4210, Pitch_bend_c, 4, 12288
7, 4214, Pitch_bend_c, 4, 11840
7, 4216, Pitch_bend_c, 4, 11456
7, 4220, Pitch_bend_c, 4, 11136
7, 4222, Pitch_bend_c, 4, 10624
7, 4226, Pitch_bend_c, 4, 10112
7, 4228, Pitch_bend_c, 4, 9792
7, 4232, Pitch_bend_c, 4, 9408
7, 4234, Pitch_bend_c, 4, 9024
7, 4238, Pitch_bend_c, 4, 8512
7, 4242, Pitch_bend_c, 4, 8256
7, 4266, Control_c, 4, 1, 8
7, 4270, Control_c, 4, 1, 14
7, 4272, Control_c, 4, 1, 20
7, 4276, Control_c, 4, 1, 28
7, 4280, Control_c, 4, 1, 34
7, 4284, Control_c, 4, 1, 42
7, 4294, Control_c, 4, 1, 48
7, 4330, Control_c, 4, 1, 54
7, 4360, Control_c, 4, 1, 60
7, 4370, Control_c, 4, 1, 62
7, 4578, Control_c, 4, 1, 56
7, 4586, Control_c, 4, 1, 50
7, 4590, Control_c, 4, 1, 44
7, 4592, Control_c, 4, 1, 38
7, 4596, Control_c, 4, 1, 16
7, 4598, Note_on_c, 4, 57, 0
7, 4600, Control_c, 4, 1, 8
7, 4604, Control_c, 4, 1, 0
7, 4800, Note_on_c, 4, 55, 123
7, 4910, Note_on_c, 4, 55, 0
7, 4920, Note_on_c, 4, 50, 127
7, 5022, Note_on_c, 4, 38, 90
7, 5052, Pitch_bend_c, 4, 8712
7, 5056, Pitch_bend_c, 4, 10012
7, 5060, Pitch_bend_c, 4, 10922
7, 5062, Pitch_bend_c, 4, 12352
7, 5066, Pitch_bend_c, 4, 13782
7, 5070, Pitch_bend_c, 4, 15602
7, 5072, Pitch_bend_c, 4, 15992
7, 5078, Pitch_bend_c, 4, 16382
7, 5128, Note_on_c, 4, 50, 0
7, 5154, Pitch_bend_c, 4, 15992
7, 5156, Pitch_bend_c, 4, 15472
7, 5160, Note_on_c, 4, 50, 127
7, 5160, Pitch_bend_c, 4, 13912
7, 5164, Pitch_bend_c, 4, 13002
7, 5166, Note_on_c, 4, 38, 0
7, 5166, Pitch_bend_c, 4, 11312
7, 5170, Pitch_bend_c, 4, 9882
7, 5174, Pitch_bend_c, 4, 9232
7, 5176, Pitch_bend_c, 4, 8712
7, 5182, Pitch_bend_c, 4, 8192
7, 5236, Pitch_bend_c, 4, 8582
7, 5238, Pitch_bend_c, 4, 10662
7, 5242, Pitch_bend_c, 4, 12352
7, 5244, Pitch_bend_c, 4, 14692
7, 5248, Pitch_bend_c, 4, 15472
7, 5250, Pitch_bend_c, 4, 16122
7, 5256, Pitch_bend_c, 4, 16382
7, 5442, Control_c, 4, 1, 6
7, 5450, Control_c, 4, 1, 14
7, 5454, Control_c, 4, 1, 20
7, 5458, Control_c, 4, 1, 26
7, 5470, Control_c, 4, 1, 32
7, 5482, Control_c, 4, 1, 38
7, 5488, Control_c, 4, 1, 44
7, 5500, Control_c, 4, 1, 50
7, 5514, Control_c, 4, 1, 52
7, 5520, Note_on_c, 4, 50, 0
7, 5520, Pitch_bend_c, 4, 8256
7, 5628, Note_on_c, 4, 50, 122
7, 5630, Control_c, 4, 1, 46
7, 5634, Control_c, 4, 1, 40
7, 5638, Control_c, 4, 1, 34
7, 5642, Control_c, 4, 1, 24
7, 5648, Control_c, 4, 1, 12
7, 5652, Pitch_bend_c, 4, 8582
7, 5652, Control_c, 4, 1, 2
7, 5652, Control_c, 4, 1, 0
7, 5654, Pitch_bend_c, 4, 9102
7, 5658, Pitch_bend_c, 4, 10272
7, 5662, Pitch_bend_c, 4, 11052
7, 5664, Pitch_bend_c, 4, 12612
7, 5670, Pitch_bend_c, 4, 14562
7, 5674, Pitch_bend_c, 4, 15862
7, 5678, Pitch_bend_c, 4, 16252
7, 5680, Pitch_bend_c, 4, 16382
7, 5734, Note_on_c, 4, 50, 0
7, 5740, Pitch_bend_c, 4, 15862
7, 5744, Pitch_bend_c, 4, 8256
7, 5744, Pitch_bend_c, 4, 13392
7, 5748, Pitch_bend_c, 4, 10532
7, 5750, Pitch_bend_c, 4, 8192
7, 5752, Pitch_bend_c, 4, 8064
7, 5754, Pitch_bend_c, 4, 8192
7, 5758, Pitch_bend_c, 4, 8582
7, 5760, Note_on_c, 4, 55, 113
7, 5760, Pitch_bend_c, 4, 8972
7, 5766, Pitch_bend_c, 4, 8452
7, 5766, Pitch_bend_c, 4, 8192
7, 5770, Pitch_bend_c, 4, 7936
7, 5776, Pitch_bend_c, 4, 8192
7, 5856, Note_on_c, 4, 55, 0
7, 5880, Note_on_c, 4, 57, 113
7, 5954, Note_on_c, 4, 57, 0
7, 6000, Note_on_c, 4, 59, 113
7, 6104, Note_on_c, 4, 59, 0
7, 6120, Note_on_c, 4, 53, 113
7, 6128, Pitch_bend_c, 4, 8712
7, 6132, Pitch_bend_c, 4, 9102
7, 6134, Pitch_bend_c, 4, 9622
7, 6138, Pitch_bend_c, 4, 10402
7, 6144, Pitch_bend_c, 4, 11312
7, 6148, Pitch_bend_c, 4, 12742
7, 6150, Pitch_bend_c, 4, 13522
7, 6154, Pitch_bend_c, 4, 14692
7, 6158, Pitch_bend_c, 4, 15472
7, 6160, Pitch_bend_c, 4, 15862
7, 6164, Pitch_bend_c, 4, 16252
7, 6166, Pitch_bend_c, 4, 16382
7, 6366, Pitch_bend_c, 4, 15992
7, 6368, Pitch_bend_c, 4, 15472
7, 6372, Pitch_bend_c, 4, 15082
7, 6376, Pitch_bend_c, 4, 14432
7, 6380, Pitch_bend_c, 4, 14042
7, 6384, Pitch_bend_c, 4, 13782
7, 6392, Pitch_bend_c, 4, 14172
7, 6398, Pitch_bend_c, 4, 15212
7, 6400, Pitch_bend_c, 4, 15732
7, 6404, Pitch_bend_c, 4, 16252
7, 6408, Pitch_bend_c, 4, 16382
7, 6426, Pitch_bend_c, 4, 15992
7, 6428, Pitch_bend_c, 4, 15602
7, 6432, Pitch_bend_c, 4, 14692
7, 6434, Pitch_bend_c, 4, 13912
7, 6438, Pitch_bend_c, 4, 13132
7, 6442, Pitch_bend_c, 4, 12742
7, 6444, Pitch_bend_c, 4, 12352
7, 6452, Pitch_bend_c, 4, 12872
7, 6456, Pitch_bend_c, 4, 13652
7, 6458, Pitch_bend_c, 4, 15212
7, 6462, Pitch_bend_c, 4, 15732
7, 6466, Pitch_bend_c, 4, 16252
7, 6470, Pitch_bend_c, 4, 16382
7, 6496, Pitch_bend_c, 4, 15732
7, 6500, Pitch_bend_c, 4, 15342
7, 6504, Pitch_bend_c, 4, 15082
7, 6512, Pitch_bend_c, 4, 15602
7, 6514, Pitch_bend_c, 4, 16122
7, 6520, Pitch_bend_c, 4, 16382
7, 6562, Pitch_bend_c, 4, 16252
7, 6566, Pitch_bend_c, 4, 16382
7, 6616, Pitch_bend_c, 4, 15992
7, 6620, Note_on_c, 4, 53, 0
7, 6626, Pitch_bend_c, 4, 16382
7, 6640, Pitch_bend_c, 4, 15992
7, 6644, Pitch_bend_c, 4, 13522
7, 6646, Pitch_bend_c, 4, 10532
7, 6650, Pitch_bend_c, 4, 7808
7, 6652, Pitch_bend_c, 4, 7552
7, 6656, Pitch_bend_c, 4, 7936
7, 6656, Pitch_bend_c, 4, 8192
7, 6660, Pitch_bend_c, 4, 8972
7, 6664, Pitch_bend_c, 4, 8582
7, 6666, Pitch_bend_c, 4, 8192
7, 6668, Pitch_bend_c, 4, 7808
7, 6676, Pitch_bend_c, 4, 8192
7, 6700, Note_on_c, 4, 53, 108
7, 6726, Pitch_bend_c, 4, 8712
7, 6730, Pitch_bend_c, 4, 9492
7, 6732, Pitch_bend_c, 4, 10402
7, 6736, Pitch_bend_c, 4, 11832
7, 6740, Pitch_bend_c, 4, 13002
7, 6742, Pitch_bend_c, 4, 14172
7, 6746, Pitch_bend_c, 4, 15472
7, 6748, Pitch_bend_c, 4, 15992
7, 6756, Pitch_bend_c, 4, 16382
7, 6834, Note_on_c, 4, 53, 0
7, 6840, Note_on_c, 4, 45, 122
7, 6842, Pitch_bend_c, 4, 14822
7, 6846, Pitch_bend_c, 4, 12742
7, 6850, Pitch_bend_c, 4, 8192
7, 6852, Pitch_bend_c, 4, 7296
7, 6856, Pitch_bend_c, 4, 7936
7, 6856, Pitch_bend_c, 4, 8192
7, 6860, Pitch_bend_c, 4, 8842
7, 6862, Pitch_bend_c, 4, 8972
7, 6866, Pitch_bend_c, 4, 8322
7, 6866, Pitch_bend_c, 4, 8192
7, 6870, Pitch_bend_c, 4, 7680
7, 6874, Pitch_bend_c, 4, 8064
7, 6876, Pitch_bend_c, 4, 8192
7, 6886, Pitch_bend_c, 4, 8064
7, 6888, Pitch_bend_c, 4, 8192
7, 6954, Note_on_c, 4, 45, 0
7, 6960, Note_on_c, 4, 40, 113
7, 7074, Note_on_c, 4, 40, 0
7, 7080, Note_on_c, 4, 43, 104
7, 7206, Pitch_bend_c, 4, 8582
7, 7214, Pitch_bend_c, 4, 8972
7, 7228, Pitch_bend_c, 4, 8582
7, 7234, Pitch_bend_c, 4, 8192
7, 7318, Pitch_bend_c, 4, 7808
7, 7322, Pitch_bend_c, 4, 7552
7, 7334, Pitch_bend_c, 4, 7936
7, 7338, Pitch_bend_c, 4, 8192
7, 7348, Pitch_bend_c, 4, 8582
7, 7352, Pitch_bend_c, 4, 9102
7, 7356, Pitch_bend_c, 4, 9622
7, 7358, Pitch_bend_c, 4, 10532
7, 7362, Pitch_bend_c, 4, 11052
7, 7364, Pitch_bend_c, 4, 11442
7, 7366, Pitch_bend_c, 4, 11572
7, 7376, Pitch_bend_c, 4, 11182
7, 7382, Pitch_bend_c, 4, 10662
7, 7384, Pitch_bend_c, 4, 10012
7, 7388, Pitch_bend_c, 4, 9622
7, 7390, Pitch_bend_c, 4, 9232
7, 7394, Pitch_bend_c, 4, 8842
7, 7398, Pitch_bend_c, 4, 8452
7, 7400, Pitch_bend_c, 4, 8322
7, 7412, Pitch_bend_c, 4, 8712
7, 7416, Pitch_bend_c, 4, 9492
7, 7418, Pitch_bend_c, 4, 9882
7, 7422, Pitch_bend_c, 4, 10792
7, 7426, Pitch_bend_c, 4, 11312
7, 7428, Pitch_bend_c, 4, 11832
7, 7432, Pitch_bend_c, 4, 12352
7, 7438, Pitch_bend_c, 4, 12612
7, 7444, Pitch_bend_c, 4, 12092
7, 7448, Pitch_bend_c, 4, 11702
7, 7452, Pitch_bend_c, 4, 11182
7, 7456, Pitch_bend_c, 4, 10792
7, 7458, Pitch_bend_c, 4, 9882
7, 7462, Pitch_bend_c, 4, 9492
7, 7464, Pitch_bend_c, 4, 9102
7, 7468, Pitch_bend_c, 4, 8712
7, 7474, Pitch_bend_c, 4, 8452
7, 7486, Pitch_bend_c, 4, 8842
7, 7490, Pitch_bend_c, 4, 10272
7, 7492, Pitch_bend_c, 4, 10662
7, 7496, Pitch_bend_c, 4, 11442
7, 7500, Pitch_bend_c, 4, 11832
7, 7502, Pitch_bend_c, 4, 12352
7, 7508, Pitch_bend_c, 4, 12612
7, 7518, Pitch_bend_c, 4, 12092
7, 7526, Pitch_bend_c, 4, 11572
7, 7528, Pitch_bend_c, 4, 11182
7, 7532, Pitch_bend_c, 4, 10792
7, 7536, Pitch_bend_c, 4, 9882
7, 7538, Pitch_bend_c, 4, 9492
7, 7540, Note_on_c, 4, 43, 0
7, 7542, Pitch_bend_c, 4, 8972
7, 7544, Pitch_bend_c, 4, 8582
7, 7550, Pitch_bend_c, 4, 8192
7, 7566, Note_on_c, 4, 45, 127
7, 7666, Note_on_c, 4, 45, 0
7, 7678, Note_on_c, 4, 45, 127
7, 7710, Pitch_bend_c, 4, 8842
7, 7712, Pitch_bend_c, 4, 9362
7, 7716, Pitch_bend_c, 4, 10922
7, 7718, Pitch_bend_c, 4, 11702
7, 7722, Pitch_bend_c, 4, 13522
7, 7726, Pitch_bend_c, 4, 14562
7, 7730, Pitch_bend_c, 4, 15862
7, 7732, Pitch_bend_c, 4, 16252
7, 7736, Pitch_bend_c, 4, 16382
7, 7774, Note_on_c, 4, 45, 0
7, 7804, Note_on_c, 4, 53, 122
7, 7890, Pitch_bend_c, 4, 15992
7, 7894, Pitch_bend_c, 4, 15212
7, 7898, Pitch_bend_c, 4, 14692
7, 7900, Pitch_bend_c, 4, 13002
7, 7904, Pitch_bend_c, 4, 11702
7, 7908, Pitch_bend_c, 4, 9752
7, 7910, Pitch_bend_c, 4, 9362
7, 7912, Note_on_c, 4, 53, 0
7, 7914, Pitch_bend_c, 4, 8582
7, 7916, Note_on_c, 4, 57, 122
7, 7918, Pitch_bend_c, 4, 8192
7, 7942, Pitch_bend_c, 4, 8582
7, 7944, Pitch_bend_c, 4, 9752
7, 7948, Pitch_bend_c, 4, 10662
7, 7950, Pitch_bend_c, 4, 12092
7, 7954, Pitch_bend_c, 4, 13912
7, 7958, Pitch_bend_c, 4, 15732
7, 7962, Pitch_bend_c, 4, 16122
7, 7964, Pitch_bend_c, 4, 16382
7, 8018, Pitch_bend_c, 4, 15992
7, 8020, Pitch_bend_c, 4, 15472
7, 8024, Pitch_bend_c, 4, 13652
7, 8028, Pitch_bend_c, 4, 11702
7, 8032, Note_on_c, 4, 57, 0
7, 8032, Pitch_bend_c, 4, 10012
7, 8036, Pitch_bend_c, 4, 9102
7, 8038, Pitch_bend_c, 4, 8192
7, 8038, Note_on_c, 4, 55, 125
7, 8044, Pitch_bend_c, 4, 7680
7, 8048, Pitch_bend_c, 4, 7296
7, 8050, Pitch_bend_c, 4, 7168
7, 8058, Pitch_bend_c, 4, 7552
7, 8062, Pitch_bend_c, 4, 7936
7, 8068, Pitch_bend_c, 4, 8192
7, 8072, Pitch_bend_c, 4, 8582
7, 8076, Pitch_bend_c, 4, 9752
7, 8078, Pitch_bend_c, 4, 11052
7, 8082, Pitch_bend_c, 4, 11962
7, 8084, Pitch_bend_c, 4, 14172
7, 8088, Pitch_bend_c, 4, 15212
7, 8090, Pitch_bend_c, 4, 15992
7, 8096, Pitch_bend_c, 4, 16382
7, 8228, Control_c, 4, 1, 6
7, 8236, Control_c, 4, 1, 12
7, 8246, Control_c, 4, 1, 18
7, 8260, Control_c, 4, 1, 26
7, 8274, Control_c, 4, 1, 32
7, 8292, Control_c, 4, 1, 38
7, 8308, Control_c, 4, 1, 44
7, 8322, Control_c, 4, 1, 50
7, 8356, Control_c, 4, 1, 56
7, 8370, Control_c, 4, 1, 62
7, 8390, Control_c, 4, 1, 68
7, 8394, Note_on_c, 4, 55, 0
7, 8400, Control_c, 4, 1, 1
7, 8400, Pitch_bend_c, 4, 8256
7, 8404, Note_on_c, 4, 55, 127
7, 8516, Note_on_c, 4, 55, 0
7, 8518, Note_on_c, 4, 50, 127
7, 8636, Note_on_c, 4, 57, 125
7, 8638, Note_on_c, 4, 50, 0
7, 8680, Pitch_bend_c, 4, 8712
7, 8682, Pitch_bend_c, 4, 9232
7, 8686, Pitch_bend_c, 4, 9752
7, 8690, Pitch_bend_c, 4, 11052
7, 8692, Pitch_bend_c, 4, 11962
7, 8696, Pitch_bend_c, 4, 13652
7, 8698, Pitch_bend_c, 4, 14952
7, 8706, Pitch_bend_c, 4, 15602
7, 8710, Pitch_bend_c, 4, 16382
7, 8758, Note_on_c, 4, 57, 0
7, 8770, Note_on_c, 4, 60, 126
7, 8838, Note_on_c, 4, 60, 0
7, 8888, Note_on_c, 4, 60, 127
7, 8968, Note_on_c, 4, 60, 0
7, 8986, Pitch_bend_c, 4, 15992
7, 8988, Pitch_bend_c, 4, 15472
7, 8992, Pitch_bend_c, 4, 14692
7, 8996, Pitch_bend_c, 4, 14042
7, 8998, Pitch_bend_c, 4, 13002
7, 9002, Pitch_bend_c, 4, 12352
7, 9006, Pitch_bend_c, 4, 10792
7, 9010, Pitch_bend_c, 4, 9882
7, 9012, Pitch_bend_c, 4, 9362
7, 9012, Note_on_c, 4, 62, 127
7, 9016, Pitch_bend_c, 4, 8972
7, 9020, Pitch_bend_c, 4, 8452
7, 9022, Pitch_bend_c, 4, 8192
7, 9054, Pitch_bend_c, 4, 8582
7, 9058, Pitch_bend_c, 4, 9102
7, 9060, Pitch_bend_c, 4, 10272
7, 9066, Pitch_bend_c, 4, 11442
7, 9070, Pitch_bend_c, 4, 13262
7, 9072, Pitch_bend_c, 4, 14172
7, 9076, Pitch_bend_c, 4, 15082
7, 9080, Pitch_bend_c, 4, 15862
7, 9084, Pitch_bend_c, 4, 16252
7, 9086, Pitch_bend_c, 4, 16382
7, 9162, Control_c, 4, 1, 6
7, 9168, Control_c, 4, 1, 12
7, 9172, Control_c, 4, 1, 18
7, 9180, Control_c, 4, 1, 24
7, 9186, Control_c, 4, 1, 30
7, 9192, Control_c, 4, 1, 36
7, 9202, Control_c, 4, 1, 42
7, 9210, Control_c, 4, 1, 48
7, 9218, Control_c, 4, 1, 54
7, 9226, Control_c, 4, 1, 60
7, 9236, Control_c, 4, 1, 66
7, 9268, Control_c, 4, 1, 72
7, 9356, Note_on_c, 4, 62, 0
7, 9360, Control_c, 4, 1, 0
7, 9366, Pitch_bend_c, 4, 8322
7, 9368, Pitch_bend_c, 4, 8712
7, 9372, Pitch_bend_c, 4, 9102
7, 9372, Note_on_c, 4, 50, 91
7, 9374, Pitch_bend_c, 4, 9752
7, 9378, Pitch_bend_c, 4, 10792
7, 9382, Pitch_bend_c, 4, 11702
7, 9386, Pitch_bend_c, 4, 13132
7, 9390, Pitch_bend_c, 4, 13782
7, 9394, Pitch_bend_c, 4, 15472
7, 9396, Pitch_bend_c, 4, 16122
7, 9400, Pitch_bend_c, 4, 16382
7, 9492, Note_on_c, 4, 45, 90
7, 9498, Note_on_c, 4, 50, 0
7, 9500, Pitch_bend_c, 4, 15992
7, 9502, Pitch_bend_c, 4, 15602
7, 9506, Pitch_bend_c, 4, 14692
7, 9510, Pitch_bend_c, 4, 14042
7, 9512, Pitch_bend_c, 4, 13782
7, 9512, Pitch_bend_c, 4, 16252
7, 9514, Pitch_bend_c, 4, 13132
7, 9514, Pitch_bend_c, 4, 15992
7, 9514, Pitch_bend_c, 4, 12742
7, 9516, Pitch_bend_c, 4, 15732
7, 9516, Pitch_bend_c, 4, 12352
7, 9518, Pitch_bend_c, 4, 14952
7, 9518, Pitch_bend_c, 4, 11832
7, 9520, Pitch_bend_c, 4, 14562
7, 9520, Pitch_bend_c, 4, 11442
7, 9520, Pitch_bend_c, 4, 14042
7, 9522, Pitch_bend_c, 4, 10012
7, 9524, Pitch_bend_c, 4, 13262
7, 9524, Pitch_bend_c, 4, 9752
7, 9524, Pitch_bend_c, 4, 13002
7, 9526, Pitch_bend_c, 4, 9492
7, 9526, Pitch_bend_c, 4, 11962
7, 9528, Pitch_bend_c, 4, 9232
7, 9528, Pitch_bend_c, 4, 11052
7, 9528, Pitch_bend_c, 4, 9102
7, 9530, Pitch_bend_c, 4, 10662
7, 9530, Pitch_bend_c, 4, 8712
7, 9532, Pitch_bend_c, 4, 10272
7, 9532, Pitch_bend_c, 4, 8582
7, 9534, Pitch_bend_c, 4, 9362
7, 9534, Pitch_bend_c, 4, 8452
7, 9536, Pitch_bend_c, 4, 9102
7, 9536, Pitch_bend_c, 4, 8322
7, 9536, Pitch_bend_c, 4, 8842
7, 9538, Pitch_bend_c, 4, 8192
7, 9544, Pitch_bend_c, 4, 7680
7, 9548, Pitch_bend_c, 4, 6272
7, 9552, Pitch_bend_c, 4, 5120
7, 9554, Pitch_bend_c, 4, 4096
7, 9558, Pitch_bend_c, 4, 3328
7, 9562, Pitch_bend_c, 4, 2048
7, 9566, Pitch_bend_c, 4, 896
7, 9570, Pitch_bend_c, 4, 128
7, 9570, Pitch_bend_c, 4, 0
7, 9598, Note_on_c, 4, 45, 0
7, 9598, Pitch_bend_c, 4, 8256
7, 9600, Note_on_c, 4, 40, 93
7, 9820, Note_on_c, 4, 59, 72
7, 9828, Note_on_c, 4, 64, 72
7, 9832, Note_on_c, 4, 67, 72
7, 9850, Note_on_c, 4, 40, 0
7, 9992, Note_on_c, 4, 59, 0
7, 9996, Note_on_c, 4, 64, 0
7, 9998, Note_on_c, 4, 67, 0
7, 10026, Note_on_c, 4, 59, 72
7, 10030, Note_on_c, 4, 64, 72
7, 10030, Note_on_c, 4, 67, 72
7, 10054, Note_on_c, 4, 59, 0
7, 10054, Note_on_c, 4, 64, 0
7, 10064, Note_on_c, 4, 67, 0
7, 10082, Note_on_c, 4, 40, 98
7, 10116, Note_on_c, 4, 40, 0
7, 10160, Note_on_c, 4, 59, 72
7, 10164, Note_on_c, 4, 64, 72
7, 10166, Note_on_c, 4, 67, 72
7, 10176, Note_on_c, 4, 59, 0
7, 10178, Note_on_c, 4, 64, 0
7, 10182, Note_on_c, 4, 40, 96
7, 10190, Note_on_c, 4, 67, 0
7, 10304, Note_on_c, 4, 59, 72
7, 10316, Note_on_c, 4, 64, 72
7, 10322, Note_on_c, 4, 67, 72
7, 10330, Note_on_c, 4, 40, 0
7, 10536, Note_on_c, 4, 59, 0
7, 10540, Note_on_c, 4, 64, 0
7, 10556, Note_on_c, 4, 67, 0
7, 10556, Note_on_c, 4, 43, 87
7, 10560, Note_on_c, 4, 50, 84
7, 10562, Note_on_c, 4, 55, 84
7, 10760, Note_on_c, 4, 43, 0
7, 10764, Note_on_c, 4, 50, 0
7, 10766, Note_on_c, 4, 55, 0
7, 10796, Note_on_c, 4, 43, 84
7, 10800, Note_on_c, 4, 50, 84
7, 10802, Note_on_c, 4, 55, 84
7, 10914, Note_on_c, 4, 43, 0
7, 11000, Note_on_c, 4, 50, 0
7, 11032, Note_on_c, 4, 55, 0
7, 11040, Note_on_c, 4, 45, 87
7, 11094, Note_on_c, 4, 52, 84
7, 11100, Note_on_c, 4, 57, 84
7, 11124, Note_on_c, 4, 45, 0
7, 11160, Note_on_c, 4, 45, 87
7, 11190, Note_on_c, 4, 52, 0
7, 11208, Note_on_c, 4, 57, 0
7, 11244, Note_on_c, 4, 45, 0
7, 11270, Note_on_c, 4, 45, 84
7, 11280, Note_on_c, 4, 52, 84
7, 11292, Note_on_c, 4, 57, 84
7, 11516, Note_on_c, 4, 52, 0
7, 11518, Note_on_c, 4, 45, 0
7, 11520, Note_on_c, 4, 57, 0
7, 11520, Note_on_c, 4, 40, 93
7, 11740, Note_on_c, 4, 59, 72
7, 11748, Note_on_c, 4, 64, 72
7, 11752, Note_on_c, 4, 67, 72
7, 11770, Note_on_c, 4, 40, 0
7, 11972, Note_on_c, 4, 59, 0
7, 11980, Note_on_c, 4, 64, 0
7, 11988, Note_on_c, 4, 67, 0
7, 12002, Note_on_c, 4, 40, 98
7, 12066, Note_on_c, 4, 40, 0
7, 12080, Note_on_c, 4, 59, 72
7, 12084, Note_on_c, 4, 64, 72
7, 12102, Note_on_c, 4, 40, 96
7, 12104, Note_on_c, 4, 59, 0
7, 12106, Note_on_c, 4, 64, 0
7, 12224, Note_on_c, 4, 59, 72
7, 12236, Note_on_c, 4, 64, 72
7, 12242, Note_on_c, 4, 67, 72
7, 12430, Note_on_c, 4, 40, 0
7, 12456, Note_on_c, 4, 59, 0
7, 12460, Note_on_c, 4, 64, 0
7, 12476, Note_on_c, 4, 67, 0
7, 12476, Note_on_c, 4, 43, 87
7, 12480, Note_on_c, 4, 50, 84
7, 12482, Note_on_c, 4, 55, 84
7, 12680, Note_on_c, 4, 43, 0
7, 12684, Note_on_c, 4, 50, 0
7, 12686, Note_on_c, 4, 55, 0
7, 12716, Note_on_c, 4, 43, 84
7, 12720, Note_on_c, 4, 50, 84
7, 12722, Note_on_c, 4, 55, 84
7, 12834, Note_on_c, 4, 43, 0
7, 12920, Note_on_c, 4, 50, 0
7, 12952, Note_on_c, 4, 55, 0
7, 12960, Note_on_c, 4, 45, 87
7, 13014, Note_on_c, 4, 52, 84
7, 13020, Note_on_c, 4, 57, 84
7, 13044, Note_on_c, 4, 45, 0
7, 13080, Note_on_c, 4, 45, 87
7, 13110, Note_on_c, 4, 52, 0
7, 13128, Note_on_c, 4, 57, 0
7, 13164, Note_on_c, 4, 45, 0
7, 13188, Note_on_c, 4, 45, 84
7, 13200, Note_on_c, 4, 57, 84
7, 13200, Note_on_c, 4, 52, 84
7, 13434, Note_on_c, 4, 45, 0
7, 13436, Note_on_c, 4, 52, 0
7, 13438, Note_on_c, 4, 57, 0
7, 13440, Note_on_c, 4, 40, 93
7, 13660, Note_on_c, 4, 59, 72
7, 13668, Note_on_c, 4, 64, 72
7, 13672, Note_on_c, 4, 67, 72
7, 13690, Note_on_c, 4, 40, 0
7, 13832, Note_on_c, 4, 59, 0
7, 13836, Note_on_c, 4, 64, 0
7, 13838, Note_on_c, 4, 67, 0
7, 13866, Note_on_c, 4, 59, 72
7, 13894, Note_on_c, 4, 59, 0
7, 13922, Note_on_c, 4, 40, 98
7, 14000, Note_on_c, 4, 59, 72
7, 14004, Note_on_c, 4, 40, 0
7, 14016, Note_on_c, 4, 59, 0
7, 14022, Note_on_c, 4, 40, 96
7, 14144, Note_on_c, 4, 59, 72
7, 14156, Note_on_c, 4, 64, 72
7, 14162, Note_on_c, 4, 67, 72
7, 14364, Note_on_c, 4, 40, 0
7, 14376, Note_on_c, 4, 59, 0
7, 14380, Note_on_c, 4, 64, 0
7, 14396, Note_on_c, 4, 67, 0
7, 14396, Note_on_c, 4, 43, 87
7, 14400, Note_on_c, 4, 50, 84
7, 14402, Note_on_c, 4, 55, 84
7, 14600, Note_on_c, 4, 43, 0
7, 14604, Note_on_c, 4, 50, 0
7, 14606, Note_on_c, 4, 55, 0
7, 14636, Note_on_c, 4, 43, 84
7, 14640, Note_on_c, 4, 50, 84
7, 14642, Note_on_c, 4, 55, 84
7, 14754, Note_on_c, 4, 43, 0
7, 14840, Note_on_c, 4, 50, 0
7, 14872, Note_on_c, 4, 55, 0
7, 14880, Note_on_c, 4, 45, 87
7, 14934, Note_on_c, 4, 52, 84
7, 14940, Note_on_c, 4, 57, 84
7, 14964, Note_on_c, 4, 45, 0
7, 15000, Note_on_c, 4, 45, 87
7, 15030, Note_on_c, 4, 52, 0
7, 15048, Note_on_c, 4, 57, 0
7, 15084, Note_on_c, 4, 45, 0
7, 15110, Note_on_c, 4, 45, 84
7, 15120, Note_on_c, 4, 52, 84
7, 15128, Note_on_c, 4, 57, 84
7, 15358, Note_on_c, 4, 45, 0
7, 15360, Note_on_c, 4, 52, 0
7, 15360, Note_on_c, 4, 57, 0
7, 15360, Note_on_c, 4, 40, 93
7, 15580, Note_on_c, 4, 59, 72
7, 15588, Note_on_c, 4, 64, 72
7, 15592, Note_on_c, 4, 67, 72
7, 15610, Note_on_c, 4, 40, 0
7, 15812, Note_on_c, 4, 59, 0
7, 15820, Note_on_c, 4, 64, 0
7, 15828, Note_on_c, 4, 67, 0
7, 15842, Note_on_c, 4, 40, 98
7, 15906, Note_on_c, 4, 40, 0
7, 15920, Note_on_c, 4, 59, 72
7, 15924, Note_on_c, 4, 64, 72
7, 15932, Note_on_c, 4, 59, 0
7, 15934, Note_on_c, 4, 64, 0
7, 15942, Note_on_c, 4, 40, 96
7, 16064, Note_on_c, 4, 59, 72
7, 16076, Note_on_c, 4, 64, 72
7, 16082, Note_on_c, 4, 67, 72
7, 16270, Note_on_c, 4, 40, 0
7, 16296, Note_on_c, 4, 59, 0
7, 16300, Note_on_c, 4, 64, 0
7, 16316, Note_on_c, 4, 67, 0
7, 16316, Note_on_c, 4, 43, 87
7, 16320, Note_on_c, 4, 50, 84
7, 16322, Note_on_c, 4, 55, 84
7, 16520, Note_on_c, 4, 43, 0
7, 16524, Note_on_c, 4, 50, 0
7, 16526, Note_on_c, 4, 55, 0
7, 16556, Note_on_c, 4, 43, 84
7, 16560, Note_on_c, 4, 50, 84
7, 16562, Note_on_c, 4, 55, 84
7, 16674, Note_on_c, 4, 43, 0
7, 16760, Note_on_c, 4, 50, 0
7, 16792, Note_on_c, 4, 55, 0
7, 16800, Note_on_c, 4, 45, 87
7, 16854, Note_on_c, 4, 52, 84
7, 16860, Note_on_c, 4, 57, 84
7, 16884, Note_on_c, 4, 45, 0
7, 16920, Note_on_c, 4, 45, 87
7, 16950, Note_on_c, 4, 52, 0
7, 16968, Note_on_c, 4, 57, 0
7, 17004, Note_on_c, 4, 45, 0
7, 17030, Note_on_c, 4, 45, 84
7, 17040, Note_on_c, 4, 52, 84
7, 17052, Note_on_c, 4, 57, 84
7, 17280, Note_on_c, 4, 45, 0
7, 17280, Note_on_c, 4, 52, 0
7, 17280, Note_on_c, 4, 57, 0
7, 17280, Note_on_c, 4, 40, 93
7, 17500, Note_on_c, 4, 59, 72
7, 17508, Note_on_c, 4, 64, 72
7, 17512, Note_on_c, 4, 67, 72
7, 17530, Note_on_c, 4, 40, 0
7, 17732, Note_on_c, 4, 59, 0
7, 17740, Note_on_c, 4, 64, 0
7, 17748, Note_on_c, 4, 67, 0
7, 17762, Note_on_c, 4, 40, 98
7, 17826, Note_on_c, 4, 40, 0
7, 17840, Note_on_c, 4, 59, 72
7, 17844, Note_on_c, 4, 64, 72
7, 17852, Note_on_c, 4, 59, 0
7, 17854, Note_on_c, 4, 64, 0
7, 17862, Note_on_c, 4, 40, 96
7, 17984, Note_on_c, 4, 59, 72
7, 17996, Note_on_c, 4, 64, 72
7, 18002, Note_on_c, 4, 67, 72
7, 18190, Note_on_c, 4, 40, 0
7, 18216, Note_on_c, 4, 59, 0
7, 18220, Note_on_c, 4, 64, 0
7, 18236, Note_on_c, 4, 67, 0
7, 18236, Note_on_c, 4, 43, 87
7, 18240, Note_on_c, 4, 50, 84
7, 18242, Note_on_c, 4, 55, 84
7, 18440, Note_on_c, 4, 43, 0
7, 18444, Note_on_c, 4, 50, 0
7, 18446, Note_on_c, 4, 55, 0
7, 18476, Note_on_c, 4, 43, 84
7, 18480, Note_on_c, 4, 50, 84
7, 18482, Note_on_c, 4, 55, 84
7, 18594, Note_on_c, 4, 43, 0
7, 18680, Note_on_c, 4, 50, 0
7, 18712, Note_on_c, 4, 55, 0
7, 18720, Note_on_c, 4, 45, 87
7, 18774, Note_on_c, 4, 52, 84
7, 18780, Note_on_c, 4, 57, 84
7, 18804, Note_on_c, 4, 45, 0
7, 18840, Note_on_c, 4, 45, 87
7, 18870, Note_on_c, 4, 52, 0
7, 18888, Note_on_c, 4, 57, 0
7, 18924, Note_on_c, 4, 45, 0
7, 18950, Note_on_c, 4, 45, 84
7, 18960, Note_on_c, 4, 52, 84
7, 18968, Note_on_c, 4, 57, 84
7, 19198, Note_on_c, 4, 45, 0
7, 19198, Note_on_c, 4, 52, 0
7, 19200, Note_on_c, 4, 57, 0
7, 19200, Note_on_c, 4, 40, 84
7, 19346, Note_on_c, 4, 40, 0
7, 20640, Note_on_c, 4, 54, 127
7, 20750, Note_on_c, 4, 54, 0
7, 20760, Note_on_c, 4, 52, 127
7, 20880, Note_on_c, 4, 50, 127
7, 20884, Note_on_c, 4, 52, 0
7, 21116, Note_on_c, 4, 50, 0
7, 21120, Note_on_c, 4, 57, 127
7, 21148, Pitch_bend_c, 4, 8712
7, 21152, Pitch_bend_c, 4, 9622
7, 21156, Pitch_bend_c, 4, 10402
7, 21160, Pitch_bend_c, 4, 11832
7, 21162, Pitch_bend_c, 4, 12872
7, 21166, Pitch_bend_c, 4, 13782
7, 21170, Pitch_bend_c, 4, 15212
7, 21172, Pitch_bend_c, 4, 15732
7, 21176, Pitch_bend_c, 4, 16252
7, 21180, Pitch_bend_c, 4, 16382
7, 21240, Note_on_c, 4, 60, 127
7, 21246, Note_on_c, 4, 57, 0
7, 21354, Control_c, 4, 1, 8
7, 21360, Control_c, 4, 1, 14
7, 21360, Note_on_c, 4, 65, 127
7, 21366, Control_c, 4, 1, 22
7, 21368, Note_on_c, 4, 60, 0
7, 21370, Control_c, 4, 1, 28
7, 21374, Control_c, 4, 1, 34
7, 21380, Control_c, 4, 1, 40
7, 21384, Control_c, 4, 1, 46
7, 21388, Control_c, 4, 1, 52
7, 21396, Control_c, 4, 1, 58
7, 21404, Control_c, 4, 1, 64
7, 21408, Control_c, 4, 1, 70
7, 21416, Control_c, 4, 1, 76
7, 21424, Control_c, 4, 1, 82
7, 21434, Control_c, 4, 1, 88
7, 21474, Control_c, 4, 1, 92
7, 21510, Control_c, 4, 1, 86
7, 21532, Note_on_c, 4, 65, 0
7, 21550, Control_c, 4, 1, 80
7, 21558, Pitch_bend_c, 4, 15732
7, 21560, Pitch_bend_c, 4, 15342
7, 21564, Pitch_bend_c, 4, 14822
7, 21568, Control_c, 4, 1, 74
7, 21568, Pitch_bend_c, 4, 13782
7, 21570, Pitch_bend_c, 4, 13002
7, 21574, Pitch_bend_c, 4, 11702
7, 21576, Control_c, 4, 1, 68
7, 21578, Pitch_bend_c, 4, 10662
7, 21582, Pitch_bend_c, 4, 9622
7, 21582, Control_c, 4, 1, 60
7, 21584, Pitch_bend_c, 4, 8972
7, 21586, Control_c, 4, 1, 54
7, 21588, Pitch_bend_c, 4, 8582
7, 21590, Control_c, 4, 1, 46
7, 21592, Pitch_bend_c, 4, 8192
7, 21594, Control_c, 4, 1, 38
7, 21596, Control_c, 4, 1, 30
7, 21600, Note_on_c, 4, 57, 127
7, 21600, Control_c, 4, 1, 20
7, 21604, Control_c, 4, 1, 6
7, 21610, Control_c, 4, 1, 0
7, 21616, Pitch_bend_c, 4, 8712
7, 21620, Pitch_bend_c, 4, 9362
7, 21622, Pitch_bend_c, 4, 10272
7, 21626, Pitch_bend_c, 4, 11702
7, 21630, Pitch_bend_c, 4, 13132
7, 21634, Pitch_bend_c, 4, 15342
7, 21636, Pitch_bend_c, 4, 15862
7, 21640, Pitch_bend_c, 4, 16252
7, 21644, Pitch_bend_c, 4, 16382
7, 21720, Note_on_c, 4, 60, 127
7, 21724, Note_on_c, 4, 57, 0
7, 21822, Control_c, 4, 1, 6
7, 21826, Control_c, 4, 1, 12
7, 21834, Control_c, 4, 1, 20
7, 21836, Control_c, 4, 1, 26
7, 21838, Note_on_c, 4, 60, 0
7, 21840, Note_on_c, 4, 65, 125
7, 21842, Control_c, 4, 1, 32
7, 21848, Control_c, 4, 1, 40
7, 21852, Control_c, 4, 1, 46
7, 21856, Control_c, 4, 1, 52
7, 21862, Control_c, 4, 1, 60
7, 21870, Control_c, 4, 1, 66
7, 21874, Control_c, 4, 1, 72
7, 21882, Control_c, 4, 1, 78
7, 21888, Control_c, 4, 1, 84
7, 21910, Control_c, 4, 1, 90
7, 21954, Control_c, 4, 1, 88
7, 21984, Control_c, 4, 1, 90
7, 22022, Control_c, 4, 1, 84
7, 22028, Control_c, 4, 1, 78
7, 22034, Control_c, 4, 1, 70
7, 22038, Control_c, 4, 1, 60
7, 22042, Note_on_c, 4, 65, 0
7, 22042, Control_c, 4, 1, 44
7, 22046, Control_c, 4, 1, 32
7, 22048, Control_c, 4, 1, 18
7, 22052, Control_c, 4, 1, 6
7, 22060, Control_c, 4, 1, 0
7, 22064, Pitch_bend_c, 4, 15732
7, 22068, Pitch_bend_c, 4, 14822
7, 22070, Pitch_bend_c, 4, 13262
7, 22074, Pitch_bend_c, 4, 10272
7, 22076, Pitch_bend_c, 4, 8712
7, 22078, Pitch_bend_c, 4, 8256
7, 22080, Note_on_c, 4, 57, 127
7, 22092, Pitch_bend_c, 4, 8576
7, 22096, Pitch_bend_c, 4, 8896
7, 22100, Pitch_bend_c, 4, 9280
7, 22104, Pitch_bend_c, 4, 9600
7, 22106, Pitch_bend_c, 4, 9984
7, 22110, Pitch_bend_c, 4, 10304
7, 22114, Pitch_bend_c, 4, 10752
7, 22116, Pitch_bend_c, 4, 11072
7, 22120, Pitch_bend_c, 4, 11392
7, 22124, Pitch_bend_c, 4, 11712
7, 22126, Pitch_bend_c, 4, 12096
7, 22130, Pitch_bend_c, 4, 12608
7, 22132, Pitch_bend_c, 4, 13120
7, 22136, Pitch_bend_c, 4, 13696
7, 22138, Pitch_bend_c, 4, 14528
7, 22140, Pitch_bend_c, 4, 15936
7, 22194, Note_on_c, 4, 57, 0
7, 22200, Note_on_c, 4, 60, 127
7, 22318, Note_on_c, 4, 60, 0
7, 22320, Note_on_c, 4, 65, 127
7, 22432, Pitch_bend_c, 4, 8256
7, 22438, Note_on_c, 4, 65, 0
7, 22440, Note_on_c, 4, 57, 127
7, 22504, Control_c, 4, 1, 2
7, 22506, Control_c, 4, 1, 8
7, 22510, Control_c, 4, 1, 14
7, 22512, Control_c, 4, 1, 20
7, 22516, Control_c, 4, 1, 28
7, 22520, Control_c, 4, 1, 34
7, 22524, Control_c, 4, 1, 42
7, 22534, Control_c, 4, 1, 48
7, 22570, Control_c, 4, 1, 54
7, 22600, Control_c, 4, 1, 60
7, 22610, Control_c, 4, 1, 62
7, 22818, Control_c, 4, 1, 56
7, 22826, Control_c, 4, 1, 50
7, 22830, Control_c, 4, 1, 44
7, 22832, Control_c, 4, 1, 38
7, 22836, Control_c, 4, 1, 16
7, 22838, Note_on_c, 4, 57, 0
7, 22840, Control_c, 4, 1, 8
7, 22844, Control_c, 4, 1, 0
7, 23040, Note_on_c, 4, 55, 123
7, 23150, Note_on_c, 4, 55, 0
7, 23160, Note_on_c, 4, 50, 127
7, 23256, Note_on_c, 4, 38, 90
7, 23292, Pitch_bend_c, 4, 8712
7, 23296, Pitch_bend_c, 4, 10012
7, 23300, Pitch_bend_c, 4, 10922
7, 23302, Pitch_bend_c, 4, 12352
7, 23306, Pitch_bend_c, 4, 13782
7, 23310, Pitch_bend_c, 4, 15602
7, 23312, Pitch_bend_c, 4, 15992
7, 23318, Pitch_bend_c, 4, 16382
7, 23348, Note_on_c, 4, 50, 0
7, 23392, Note_on_c, 4, 38, 0
7, 23394, Pitch_bend_c, 4, 15992
7, 23396, Pitch_bend_c, 4, 15472
7, 23400, Note_on_c, 4, 50, 127
7, 23400, Pitch_bend_c, 4, 13912
7, 23404, Pitch_bend_c, 4, 13002
7, 23406, Pitch_bend_c, 4, 11312
7, 23410, Pitch_bend_c, 4, 9882
7, 23414, Pitch_bend_c, 4, 9232
7, 23416, Pitch_bend_c, 4, 8712
7, 23422, Pitch_bend_c, 4, 8192
7, 23476, Pitch_bend_c, 4, 8582
7, 23478, Pitch_bend_c, 4, 10662
7, 23482, Pitch_bend_c, 4, 12352
7, 23484, Pitch_bend_c, 4, 14692
7, 23488, Pitch_bend_c, 4, 15472
7, 23490, Pitch_bend_c, 4, 16122
7, 23496, Pitch_bend_c, 4, 16382
7, 23682, Control_c, 4, 1, 6
7, 23690, Control_c, 4, 1, 14
7, 23694, Control_c, 4, 1, 20
7, 23698, Control_c, 4, 1, 26
7, 23710, Control_c, 4, 1, 32
7, 23722, Control_c, 4, 1, 38
7, 23728, Control_c, 4, 1, 44
7, 23740, Control_c, 4, 1, 50
7, 23754, Control_c, 4, 1, 52
7, 23870, Control_c, 4, 1, 46
7, 23874, Control_c, 4, 1, 40
7, 23878, Control_c, 4, 1, 34
7, 23882, Control_c, 4, 1, 24
7, 23888, Note_on_c, 4, 50, 0
7, 23888, Control_c, 4, 1, 12
7, 23892, Control_c, 4, 1, 2
7, 23892, Control_c, 4, 1, 0
7, 24000, Note_on_c, 4, 57, 127
7, 24012, Pitch_bend_c, 4, 8576
7, 24016, Pitch_bend_c, 4, 8896
7, 24020, Pitch_bend_c, 4, 9280
7, 24024, Pitch_bend_c, 4, 9600
7, 24026, Pitch_bend_c, 4, 9984
7, 24030, Pitch_bend_c, 4, 10304
7, 24034, Pitch_bend_c, 4, 10752
7, 24036, Pitch_bend_c, 4, 11072
7, 24040, Pitch_bend_c, 4, 11392
7, 24044, Pitch_bend_c, 4, 11712
7, 24046, Pitch_bend_c, 4, 12096
7, 24050, Pitch_bend_c, 4, 12608
7, 24052, Pitch_bend_c, 4, 13120
7, 24056, Pitch_bend_c, 4, 13696
7, 24058, Pitch_bend_c, 4, 14528
7, 24060, Pitch_bend_c, 4, 15936
7, 24118, Note_on_c, 4, 57, 0
7, 24120, Note_on_c, 4, 60, 127
7, 24240, Note_on_c, 4, 60, 0
7, 24240, Note_on_c, 4, 65, 127
7, 24350, Pitch_bend_c, 4, 15616
7, 24352, Pitch_bend_c, 4, 15104
7, 24354, Note_on_c, 4, 65, 0
7, 24356, Pitch_bend_c, 4, 14656
7, 24358, Pitch_bend_c, 4, 14144
7, 24360, Note_on_c, 4, 57, 127
7, 24362, Pitch_bend_c, 4, 13632
7, 24364, Pitch_bend_c, 4, 13184
7, 24368, Pitch_bend_c, 4, 12672
7, 24370, Pitch_bend_c, 4, 12288
7, 24374, Pitch_bend_c, 4, 11840
7, 24376, Pitch_bend_c, 4, 11456
7, 24380, Pitch_bend_c, 4, 11136
7, 24382, Pitch_bend_c, 4, 10624
7, 24386, Pitch_bend_c, 4, 10112
7, 24388, Pitch_bend_c, 4, 9792
7, 24392, Pitch_bend_c, 4, 9408
7, 24394, Pitch_bend_c, 4, 9024
7, 24398, Pitch_bend_c, 4, 8512
7, 24402, Pitch_bend_c, 4, 8256
7, 24426, Control_c, 4, 1, 8
7, 24430, Control_c, 4, 1, 14
7, 24432, Control_c, 4, 1, 20
7, 24436, Control_c, 4, 1, 28
7, 24440, Control_c, 4, 1, 34
7, 24444, Control_c, 4, 1, 42
7, 24454, Control_c, 4, 1, 48
7, 24490, Control_c, 4, 1, 54
7, 24520, Control_c, 4, 1, 60
7, 24530, Control_c, 4, 1, 62
7, 24738, Control_c, 4, 1, 56
7, 24746, Control_c, 4, 1, 50
7, 24750, Control_c, 4, 1, 44
7, 24752, Control_c, 4, 1, 38
7, 24756, Control_c, 4, 1, 16
7, 24758, Note_on_c, 4, 57, 0
7, 24760, Control_c, 4, 1, 8
7, 24764, Control_c, 4, 1, 0
7, 24960, Note_on_c, 4, 55, 123
7, 25070, Note_on_c, 4, 55, 0
7, 25080, Note_on_c, 4, 50, 127
7, 25182, Note_on_c, 4, 38, 90
7, 25212, Pitch_bend_c, 4, 8712
7, 25216, Pitch_bend_c, 4, 10012
7, 25220, Pitch_bend_c, 4, 10922
7, 25222, Pitch_bend_c, 4, 12352
7, 25226, Pitch_bend_c, 4, 13782
7, 25230, Pitch_bend_c, 4, 15602
7, 25232, Pitch_bend_c, 4, 15992
7, 25238, Pitch_bend_c, 4, 16382
7, 25288, Note_on_c, 4, 50, 0
7, 25314, Pitch_bend_c, 4, 15992
7, 25316, Pitch_bend_c, 4, 15472
7, 25320, Note_on_c, 4, 50, 127
7, 25320, Pitch_bend_c, 4, 13912
7, 25324, Pitch_bend_c, 4, 13002
7, 25326, Note_on_c, 4, 38, 0
7, 25326, Pitch_bend_c, 4, 11312
7, 25330, Pitch_bend_c, 4, 9882
7, 25334, Pitch_bend_c, 4, 9232
7, 25336, Pitch_bend_c, 4, 8712
7, 25342, Pitch_bend_c, 4, 8192
7, 25396, Pitch_bend_c, 4, 8582
7, 25398, Pitch_bend_c, 4, 10662
7, 25402, Pitch_bend_c, 4, 12352
7, 25404, Pitch_bend_c, 4, 14692
7, 25408, Pitch_bend_c, 4, 15472
7, 25410, Pitch_bend_c, 4, 16122
7, 25416, Pitch_bend_c, 4, 16382
7, 25602, Control_c, 4, 1, 6
7, 25610, Control_c, 4, 1, 14
7, 25614, Control_c, 4, 1, 20
7, 25618, Control_c, 4, 1, 26
7, 25630, Control_c, 4, 1, 32
7, 25642, Control_c, 4, 1, 38
7, 25648, Control_c, 4, 1, 44
7, 25660, Control_c, 4, 1, 50
7, 25674, Control_c, 4, 1, 52
7, 25680, Note_on_c, 4, 50, 0
7, 25680, Pitch_bend_c, 4, 8256
7, 25788, Note_on_c, 4, 50, 122
7, 25790, Control_c, 4, 1, 46
7, 25794, Control_c, 4, 1, 40
7, 25798, Control_c, 4, 1, 34
7, 25802, Control_c, 4, 1, 24
7, 25808, Control_c, 4, 1, 12
7, 25812, Pitch_bend_c, 4, 8582
7, 25812, Control_c, 4, 1, 2
7, 25812, Control_c, 4, 1, 0
7, 25814, Pitch_bend_c, 4, 9102
7, 25818, Pitch_bend_c, 4, 10272
7, 25822, Pitch_bend_c, 4, 11052
7, 25824, Pitch_bend_c, 4, 12612
7, 25830, Pitch_bend_c, 4, 14562
7, 25834, Pitch_bend_c, 4, 15862
7, 25838, Pitch_bend_c, 4, 16252
7, 25840, Pitch_bend_c, 4, 16382
7, 25894, Note_on_c, 4, 50, 0
7, 25900, Pitch_bend_c, 4, 15862
7, 25904, Pitch_bend_c, 4, 8256
7, 25904, Pitch_bend_c, 4, 13392
7, 25908, Pitch_bend_c, 4, 10532
7, 25910, Pitch_bend_c, 4, 8192
7, 25912, Pitch_bend_c, 4, 8064
7, 25914, Pitch_bend_c, 4, 8192
7, 25918, Pitch_bend_c, 4, 8582
7, 25920, Note_on_c, 4, 55, 113
7, 25920, Pitch_bend_c, 4, 8972
7, 25926, Pitch_bend_c, 4, 8452
7, 25926, Pitch_bend_c, 4, 8192
7, 25930, Pitch_bend_c, 4, 7936
7, 25936, Pitch_bend_c, 4, 8192
7, 26016, Note_on_c, 4, 55, 0
7, 26040, Note_on_c, 4, 57, 113
7, 26114, Note_on_c, 4, 57, 0
7, 26160, Note_on_c, 4, 59, 113
7, 26264, Note_on_c, 4, 59, 0
7, 26280, Note_on_c, 4, 53, 113
7, 26288, Pitch_bend_c, 4, 8712
7, 26292, Pitch_bend_c, 4, 9102
7, 26294, Pitch_bend_c, 4, 9622
7, 26298, Pitch_bend_c, 4, 10402
7, 26304, Pitch_bend_c, 4, 11312
7, 26308, Pitch_bend_c, 4, 12742
7, 26310, Pitch_bend_c, 4, 13522
7, 26314, Pitch_bend_c, 4, 14692
7, 26318, Pitch_bend_c, 4, 15472
7, 26320, Pitch_bend_c, 4, 15862
7, 26324, Pitch_bend_c, 4, 16252
7, 26326, Pitch_bend_c, 4, 16382
7, 26526, Pitch_bend_c, 4, 15992
7, 26528, Pitch_bend_c, 4, 15472
7, 26532, Pitch_bend_c, 4, 15082
7, 26536, Pitch_bend_c, 4, 14432
7, 26540, Pitch_bend_c, 4, 14042
7, 26544, Pitch_bend_c, 4, 13782
7, 26552, Pitch_bend_c, 4, 14172
7, 26558, Pitch_bend_c, 4, 15212
7, 26560, Pitch_bend_c, 4, 15732
7, 26564, Pitch_bend_c, 4, 16252
7, 26568, Pitch_bend_c, 4, 16382
7, 26586, Pitch_bend_c, 4, 15992
7, 26588, Pitch_bend_c, 4, 15602
7, 26592, Pitch_bend_c, 4, 14692
7, 26594, Pitch_bend_c, 4, 13912
7, 26598, Pitch_bend_c, 4, 13132
7, 26602, Pitch_bend_c, 4, 12742
7, 26604, Pitch_bend_c, 4, 12352
7, 26612, Pitch_bend_c, 4, 12872
7, 26616, Pitch_bend_c, 4, 13652
7, 26618, Pitch_bend_c, 4, 15212
7, 26622, Pitch_bend_c, 4, 15732
7, 26626, Pitch_bend_c, 4, 16252
7, 26630, Pitch_bend_c, 4, 16382
7, 26656, Pitch_bend_c, 4, 15732
7, 26660, Pitch_bend_c, 4, 15342
7, 26664, Pitch_bend_c, 4, 15082
7, 26672, Pitch_bend_c, 4, 15602
7, 26674, Pitch_bend_c, 4, 16122
7, 26680, Pitch_bend_c, 4, 16382
7, 26722, Pitch_bend_c, 4, 16252
7, 26726, Pitch_bend_c, 4, 16382
7, 26776, Pitch_bend_c, 4, 15992
7, 26780, Note_on_c, 4, 53, 0
7, 26786, Pitch_bend_c, 4, 16382
7, 26800, Pitch_bend_c, 4, 15992
7, 26804, Pitch_bend_c, 4, 13522
7, 26806, Pitch_bend_c, 4, 10532
7, 26810, Pitch_bend_c, 4, 7808
7, 26812, Pitch_bend_c, 4, 7552
7, 26816, Pitch_bend_c, 4, 7936
7, 26816, Pitch_bend_c, 4, 8192
7, 26820, Pitch_bend_c, 4, 8972
7, 26824, Pitch_bend_c, 4, 8582
7, 26826, Pitch_bend_c, 4, 8192
7, 26828, Pitch_bend_c, 4, 7808
7, 26836, Pitch_bend_c, 4, 8192
7, 26860, Note_on_c, 4, 53, 108
7, 26886, Pitch_bend_c, 4, 8712
7, 26890, Pitch_bend_c, 4, 9492
7, 26892, Pitch_bend_c, 4, 10402
7, 26896, Pitch_bend_c, 4, 11832
7, 26900, Pitch_bend_c, 4, 13002
7, 26902, Pitch_bend_c, 4, 14172
7, 26906, Pitch_bend_c, 4, 15472
7, 26908, Pitch_bend_c, 4, 15992
7, 26916, Pitch_bend_c, 4, 16382
7, 26994, Note_on_c, 4, 53, 0
7, 27000, Note_on_c, 4, 45, 122
7, 27002, Pitch_bend_c, 4, 14822
7, 27006, Pitch_bend_c, 4, 12742
7, 27010, Pitch_bend_c, 4, 8192
7, 27012, Pitch_bend_c, 4, 7296
7, 27016, Pitch_bend_c, 4, 7936
7, 27016, Pitch_bend_c, 4, 8192
7, 27020, Pitch_bend_c, 4, 8842
7, 27022, Pitch_bend_c, 4, 8972
7, 27026, Pitch_bend_c, 4, 8322
7, 27026, Pitch_bend_c, 4, 8192
7, 27030, Pitch_bend_c, 4, 7680
7, 27034, Pitch_bend_c, 4, 8064
7, 27036, Pitch_bend_c, 4, 8192
7, 27046, Pitch_bend_c, 4, 8064
7, 27048, Pitch_bend_c, 4, 8192
7, 27114, Note_on_c, 4, 45, 0
7, 27120, Note_on_c, 4, 40, 113
7, 27234, Note_on_c, 4, 40, 0
7, 27240, Note_on_c, 4, 43, 104
7, 27366, Pitch_bend_c, 4, 8582
7, 27374, Pitch_bend_c, 4, 8972
7, 27388, Pitch_bend_c, 4, 8582
7, 27394, Pitch_bend_c, 4, 8192
7, 27478, Pitch_bend_c, 4, 7808
7, 27482, Pitch_bend_c, 4, 7552
7, 27494, Pitch_bend_c, 4, 7936
7, 27498, Pitch_bend_c, 4, 8192
7, 27508, Pitch_bend_c, 4, 8582
7, 27512, Pitch_bend_c, 4, 9102
7, 27516, Pitch_bend_c, 4, 9622
7, 27518, Pitch_bend_c, 4, 10532
7, 27522, Pitch_bend_c, 4, 11052
7, 27524, Pitch_bend_c, 4, 11442
7, 27526, Pitch_bend_c, 4, 11572
7, 27536, Pitch_bend_c, 4, 11182
7, 27542, Pitch_bend_c, 4, 10662
7, 27544, Pitch_bend_c, 4, 10012
7, 27548, Pitch_bend_c, 4, 9622
7, 27550, Pitch_bend_c, 4, 9232
7, 27554, Pitch_bend_c, 4, 8842
7, 27558, Pitch_bend_c, 4, 8452
7, 27560, Pitch_bend_c, 4, 8322
7, 27572, Pitch_bend_c, 4, 8712
7, 27576, Pitch_bend_c, 4, 9492
7, 27578, Pitch_bend_c, 4, 9882
7, 27582, Pitch_bend_c, 4, 10792
7, 27586, Pitch_bend_c, 4, 11312
7, 27588, Pitch_bend_c, 4, 11832
7, 27592, Pitch_bend_c, 4, 12352
7, 27598, Pitch_bend_c, 4, 12612
7, 27604, Pitch_bend_c, 4, 12092
7, 27608, Pitch_bend_c, 4, 11702
7, 27612, Pitch_bend_c, 4, 11182
7, 27616, Pitch_bend_c, 4, 10792
7, 27618, Pitch_bend_c, 4, 9882
7, 27622, Pitch_bend_c, 4, 9492
7, 27624, Pitch_bend_c, 4, 9102
7, 27628, Pitch_bend_c, 4, 8712
7, 27634, Pitch_bend_c, 4, 8452
7, 27646, Pitch_bend_c, 4, 8842
7, 27650, Pitch_bend_c, 4, 10272
7, 27652, Pitch_bend_c, 4, 10662
7, 27656, Pitch_bend_c, 4, 11442
7, 27660, Pitch_bend_c, 4, 11832
7, 27662, Pitch_bend_c, 4, 12352
7, 27668, Pitch_bend_c, 4, 12612
7, 27678, Pitch_bend_c, 4, 12092
7, 27686, Pitch_bend_c, 4, 11572
7, 27688, Pitch_bend_c, 4, 11182
7, 27692, Pitch_bend_c, 4, 10792
7, 27696, Pitch_bend_c, 4, 9882
7, 27698, Pitch_bend_c, 4, 9492
7, 27700, Note_on_c, 4, 43, 0
7, 27702, Pitch_bend_c, 4, 8972
7, 27704, Pitch_bend_c, 4, 8582
7, 27710, Pitch_bend_c, 4, 8192
7, 27726, Note_on_c, 4, 45, 127
7, 27826, Note_on_c, 4, 45, 0
7, 27838, Note_on_c, 4, 45, 127
7, 27870, Pitch_bend_c, 4, 8842
7, 27872, Pitch_bend_c, 4, 9362
7, 27876, Pitch_bend_c, 4, 10922
7, 27878, Pitch_bend_c, 4, 11702
7, 27882, Pitch_bend_c, 4, 13522
7, 27886, Pitch_bend_c, 4, 14562
7, 27890, Pitch_bend_c, 4, 15862
7, 27892, Pitch_bend_c, 4, 16252
7, 27896, Pitch_bend_c, 4, 16382
7, 27934, Note_on_c, 4, 45, 0
7, 27964, Note_on_c, 4, 53, 122
7, 28050, Pitch_bend_c, 4, 15992
7, 28054, Pitch_bend_c, 4, 15212
7, 28058, Pitch_bend_c, 4, 14692
7, 28060, Pitch_bend_c, 4, 13002
7, 28064, Pitch_bend_c, 4, 11702
7, 28068, Pitch_bend_c, 4, 9752
7, 28070, Pitch_bend_c, 4, 9362
7, 28072, Note_on_c, 4, 53, 0
7, 28074, Pitch_bend_c, 4, 8582
7, 28076, Note_on_c, 4, 57, 122
7, 28078, Pitch_bend_c, 4, 8192
7, 28102, Pitch_bend_c, 4, 8582
7, 28104, Pitch_bend_c, 4, 9752
7, 28108, Pitch_bend_c, 4, 10662
7, 28110, Pitch_bend_c, 4, 12092
7, 28114, Pitch_bend_c, 4, 13912
7, 28118, Pitch_bend_c, 4, 15732
7, 28122, Pitch_bend_c, 4, 16122
7, 28124, Pitch_bend_c, 4, 16382
7, 28178, Pitch_bend_c, 4, 15992
7, 28180, Pitch_bend_c, 4, 15472
7, 28184, Pitch_bend_c, 4, 13652
7, 28188, Pitch_bend_c, 4, 11702
7, 28192, Note_on_c, 4, 57, 0
7, 28192, Pitch_bend_c, 4, 10012
7, 28196, Pitch_bend_c, 4, 9102
7, 28198, Pitch_bend_c, 4, 8192
7, 28198, Note_on_c, 4, 55, 125
7, 28204, Pitch_bend_c, 4, 7680
7, 28208, Pitch_bend_c, 4, 7296
7, 28210, Pitch_bend_c, 4, 7168
7, 28218, Pitch_bend_c, 4, 7552
7, 28222, Pitch_bend_c, 4, 7936
7, 28228, Pitch_bend_c, 4, 8192
7, 28232, Pitch_bend_c, 4, 8582
7, 28236, Pitch_bend_c, 4, 9752
7, 28238, Pitch_bend_c, 4, 11052
7, 28242, Pitch_bend_c, 4, 11962
7, 28244, Pitch_bend_c, 4, 14172
7, 28248, Pitch_bend_c, 4, 15212
7, 28250, Pitch_bend_c, 4, 15992
7, 28256, Pitch_bend_c, 4, 16382
7, 28388, Control_c, 4, 1, 6
7, 28396, Control_c, 4, 1, 12
7, 28406, Control_c, 4, 1, 18
7, 28420, Control_c, 4, 1, 26
7, 28434, Control_c, 4, 1, 32
7, 28452, Control_c, 4, 1, 38
7, 28468, Control_c, 4, 1, 44
7, 28482, Control_c, 4, 1, 50
7, 28516, Control_c, 4, 1, 56
7, 28530, Control_c, 4, 1, 62
7, 28550, Control_c, 4, 1, 68
7, 28554, Note_on_c, 4, 55, 0
7, 28560, Control_c, 4, 1, 1
7, 28560, Pitch_bend_c, 4, 8256
7, 28564, Note_on_c, 4, 55, 127
7, 28676, Note_on_c, 4, 55, 0
7, 28678, Note_on_c, 4, 50, 127
7, 28796, Note_on_c, 4, 57, 125
7, 28798, Note_on_c, 4, 50, 0
7, 28840, Pitch_bend_c, 4, 8712
7, 28842, Pitch_bend_c, 4, 9232
7, 28846, Pitch_bend_c, 4, 9752
7, 28850, Pitch_bend_c, 4, 11052
7, 28852, Pitch_bend_c, 4, 11962
7, 28856, Pitch_bend_c, 4, 13652
7, 28858, Pitch_bend_c, 4, 14952
7, 28866, Pitch_bend_c, 4, 15602
7, 28870, Pitch_bend_c, 4, 16382
7, 28918, Note_on_c, 4, 57, 0
7, 28930, Note_on_c, 4, 60, 126
7, 28998, Note_on_c, 4, 60, 0
7, 29048, Note_on_c, 4, 60, 127
7, 29128, Note_on_c, 4, 60, 0
7, 29146, Pitch_bend_c, 4, 15992
7, 29148, Pitch_bend_c, 4, 15472
7, 29152, Pitch_bend_c, 4, 14692
7, 29156, Pitch_bend_c, 4, 14042
7, 29158, Pitch_bend_c, 4, 13002
7, 29162, Pitch_bend_c, 4, 12352
7, 29166, Pitch_bend_c, 4, 10792
7, 29170, Pitch_bend_c, 4, 9882
7, 29172, Pitch_bend_c, 4, 9362
7, 29172, Note_on_c, 4, 62, 127
7, 29176, Pitch_bend_c, 4, 8972
7, 29180, Pitch_bend_c, 4, 8452
7, 29182, Pitch_bend_c, 4, 8192
7, 29214, Pitch_bend_c, 4, 8582
7, 29218, Pitch_bend_c, 4, 9102
7, 29220, Pitch_bend_c, 4, 10272
7, 29226, Pitch_bend_c, 4, 11442
7, 29230, Pitch_bend_c, 4, 13262
7, 29232, Pitch_bend_c, 4, 14172
7, 29236, Pitch_bend_c, 4, 15082
7, 29240, Pitch_bend_c, 4, 15862
7, 29244, Pitch_bend_c, 4, 16252
7, 29246, Pitch_bend_c, 4, 16382
7, 29322, Control_c, 4, 1, 6
7, 29328, Control_c, 4, 1, 12
7, 29332, Control_c, 4, 1, 18
7, 29340, Control_c, 4, 1, 24
7, 29346, Control_c, 4, 1, 30
7, 29352, Control_c, 4, 1, 36
7, 29362, Control_c, 4, 1, 42
7, 29370, Control_c, 4, 1, 48
7, 29378, Control_c, 4, 1, 54
7, 29386, Control_c, 4, 1, 60
7, 29396, Control_c, 4, 1, 66
7, 29428, Control_c, 4, 1, 72
7, 29516, Note_on_c, 4, 62, 0
7, 29520, Control_c, 4, 1, 0
7, 29526, Pitch_bend_c, 4, 8322
7, 29528, Pitch_bend_c, 4, 8712
7, 29532, Pitch_bend_c, 4, 9102
7, 29532, Note_on_c, 4, 50, 91
7, 29534, Pitch_bend_c, 4, 9752
7, 29538, Pitch_bend_c, 4, 10792
7, 29542, Pitch_bend_c, 4, 11702
7, 29546, Pitch_bend_c, 4, 13132
7, 29550, Pitch_bend_c, 4, 13782
7, 29554, Pitch_bend_c, 4, 15472
7, 29556, Pitch_bend_c, 4, 16122
7, 29560, Pitch_bend_c, 4, 16382
7, 29652, Note_on_c, 4, 45, 90
7, 29658, Note_on_c, 4, 50, 0
7, 29660, Pitch_bend_c, 4, 15992
7, 29662, Pitch_bend_c, 4, 15602
7, 29666, Pitch_bend_c, 4, 14692
7, 29670, Pitch_bend_c, 4, 14042
7, 29672, Pitch_bend_c, 4, 13782
7, 29672, Pitch_bend_c, 4, 16252
7, 29674, Pitch_bend_c, 4, 13132
7, 29674, Pitch_bend_c, 4, 15992
7, 29674, Pitch_bend_c, 4, 12742
7, 29676, Pitch_bend_c, 4, 15732
7, 29676, Pitch_bend_c, 4, 12352
7, 29678, Pitch_bend_c, 4, 14952
7, 29678, Pitch_bend_c, 4, 11832
7, 29680, Pitch_bend_c, 4, 14562
7, 29680, Pitch_bend_c, 4, 11442
7, 29680, Pitch_bend_c, 4, 14042
7, 29682, Pitch_bend_c, 4, 10012
7, 29684, Pitch_bend_c, 4, 13262
7, 29684, Pitch_bend_c, 4, 9752
7, 29684, Pitch_bend_c, 4, 13002
7, 29686, Pitch_bend_c, 4, 9492
7, 29686, Pitch_bend_c, 4, 11962
7, 29688, Pitch_bend_c, 4, 9232
7, 29688, Pitch_bend_c, 4, 11052
7, 29688, Pitch_bend_c, 4, 9102
7, 29690, Pitch_bend_c, 4, 10662
7, 29690, Pitch_bend_c, 4, 8712
7, 29692, Pitch_bend_c, 4, 10272
7, 29692, Pitch_bend_c, 4, 8582
7, 29694, Pitch_bend_c, 4, 9362
7, 29694, Pitch_bend_c, 4, 8452
7, 29696, Pitch_bend_c, 4, 9102
7, 29696, Pitch_bend_c, 4, 8322
7, 29696, Pitch_bend_c, 4, 8842
7, 29698, Pitch_bend_c, 4, 8192
7, 29704, Pitch_bend_c, 4, 7680
7, 29708, Pitch_bend_c, 4, 6272
7, 29712, Pitch_bend_c, 4, 5120
7, 29714, Pitch_bend_c, 4, 4096
7, 29718, Pitch_bend_c, 4, 3328
7, 29722, Pitch_bend_c, 4, 2048
7, 29726, Pitch_bend_c, 4, 896
7, 29730, Pitch_bend_c, 4, 128
7, 29730, Pitch_bend_c, 4, 0
7, 29758, Note_on_c, 4, 45, 0
7, 29758, Pitch_bend_c, 4, 8256
7, 29760, Note_on_c, 4, 40, 93
7, 29980, Note_on_c, 4, 59, 72
7, 29988, Note_on_c, 4, 64, 72
7, 29992, Note_on_c, 4, 67, 72
7, 30010, Note_on_c, 4, 40, 0
7, 30152, Note_on_c, 4, 59, 0
7, 30156, Note_on_c, 4, 64, 0
7, 30158, Note_on_c, 4, 67, 0
7, 30186, Note_on_c, 4, 59, 72
7, 30190, Note_on_c, 4, 64, 72
7, 30190, Note_on_c, 4, 67, 72
7, 30214, Note_on_c, 4, 59, 0
7, 30214, Note_on_c, 4, 64, 0
7, 30224, Note_on_c, 4, 67, 0
7, 30242, Note_on_c, 4, 40, 98
7, 30276, Note_on_c, 4, 40, 0
7, 30320, Note_on_c, 4, 59, 72
7, 30324, Note_on_c, 4, 64, 72
7, 30326, Note_on_c, 4, 67, 72
7, 30336, Note_on_c, 4, 59, 0
7, 30338, Note_on_c, 4, 64, 0
7, 30342, Note_on_c, 4, 40, 96
7, 30350, Note_on_c, 4, 67, 0
7, 30464, Note_on_c, 4, 59, 72
7, 30476, Note_on_c, 4, 64, 72
7, 30482, Note_on_c, 4, 67, 72
7, 30490, Note_on_c, 4, 40, 0
7, 30696, Note_on_c, 4, 59, 0
7, 30700, Note_on_c, 4, 64, 0
7, 30716, Note_on_c, 4, 67, 0
7, 30716, Note_on_c, 4, 43, 87
7, 30720, Note_on_c, 4, 50, 84
7, 30722, Note_on_c, 4, 55, 84
7, 30920, Note_on_c, 4, 43, 0
7, 30924, Note_on_c, 4, 50, 0
7, 30926, Note_on_c, 4, 55, 0
7, 30956, Note_on_c, 4, 43, 84
7, 30960, Note_on_c, 4, 50, 84
7, 30962, Note_on_c, 4, 55, 84
7, 31074, Note_on_c, 4, 43, 0
7, 31160, Note_on_c, 4, 50, 0
7, 31192, Note_on_c, 4, 55, 0
7, 31200, Note_on_c, 4, 45, 87
7, 31254, Note_on_c, 4, 52, 84
7, 31260, Note_on_c, 4, 57, 84
7, 31284, Note_on_c, 4, 45, 0
7, 31320, Note_on_c, 4, 45, 87
7, 31350, Note_on_c, 4, 52, 0
7, 31368, Note_on_c, 4, 57, 0
7, 31404, Note_on_c, 4, 45, 0
7, 31430, Note_on_c, 4, 45, 84
7, 31440, Note_on_c, 4, 52, 84
7, 31452, Note_on_c, 4, 57, 84
7, 31676, Note_on_c, 4, 52, 0
7, 31678, Note_on_c, 4, 45, 0
7, 31680, Note_on_c, 4, 57, 0
7, 31680, Note_on_c, 4, 40, 93
7, 31900, Note_on_c, 4, 59, 72
7, 31908, Note_on_c, 4, 64, 72
7, 31912, Note_on_c, 4, 67, 72
7, 31930, Note_on_c, 4, 40, 0
7, 32132, Note_on_c, 4, 59, 0
7, 32140, Note_on_c, 4, 64, 0
7, 32148, Note_on_c, 4, 67, 0
7, 32162, Note_on_c, 4, 40, 98
7, 32226, Note_on_c, 4, 40, 0
7, 32240, Note_on_c, 4, 59, 72
7, 32244, Note_on_c, 4, 64, 72
7, 32262, Note_on_c, 4, 40, 96
7, 32264, Note_on_c, 4, 59, 0
7, 32266, Note_on_c, 4, 64, 0
7, 32384, Note_on_c, 4, 59, 72
7, 32396, Note_on_c, 4, 64, 72
7, 32402, Note_on_c, 4, 67, 72
7, 32590, Note_on_c, 4, 40, 0
7, 32616, Note_on_c, 4, 59, 0
7, 32620, Note_on_c, 4, 64, 0
7, 32636, Note_on_c, 4, 67, 0
7, 32636, Note_on_c, 4, 43, 87
7, 32640, Note_on_c, 4, 50, 84
7, 32642, Note_on_c, 4, 55, 84
7, 32840, Note_on_c, 4, 43, 0
7, 32844, Note_on_c, 4, 50, 0
7, 32846, Note_on_c, 4, 55, 0
7, 32876, Note_on_c, 4, 43, 84
7, 32880, Note_on_c, 4, 50, 84
7, 32882, Note_on_c, 4, 55, 84
7, 32994, Note_on_c, 4, 43, 0
7, 33080, Note_on_c, 4, 50, 0
7, 33112, Note_on_c, 4, 55, 0
7, 33120, Note_on_c, 4, 45, 87
7, 33174, Note_on_c, 4, 52, 84
7, 33180, Note_on_c, 4, 57, 84
7, 33204, Note_on_c, 4, 45, 0
7, 33240, Note_on_c, 4, 45, 87
7, 33270, Note_on_c, 4, 52, 0
7, 33288, Note_on_c, 4, 57, 0
7, 33324, Note_on_c, 4, 45, 0
7, 33348, Note_on_c, 4, 45, 84
7, 33360, Note_on_c, 4, 57, 84
7, 33360, Note_on_c, 4, 52, 84
7, 33594, Note_on_c, 4, 45, 0
7, 33596, Note_on_c, 4, 52, 0
7, 33598, Note_on_c, 4, 57, 0
7, 33600, Note_on_c, 4, 40, 93
7, 33820, Note_on_c, 4, 59, 72
7, 33828, Note_on_c, 4, 64, 72
7, 33832, Note_on_c, 4, 67, 72
7, 33850, Note_on_c, 4, 40, 0
7, 33992, Note_on_c, 4, 59, 0
7, 33996, Note_on_c, 4, 64, 0
7, 33998, Note_on_c, 4, 67, 0
7, 34026, Note_on_c, 4, 59, 72
7, 34054, Note_on_c, 4, 59, 0
7, 34082, Note_on_c, 4, 40, 98
7, 34160, Note_on_c, 4, 59, 72
7, 34164, Note_on_c, 4, 40, 0
7, 34176, Note_on_c, 4, 59, 0
7, 34182, Note_on_c, 4, 40, 96
7, 34304, Note_on_c, 4, 59, 72
7, 34316, Note_on_c, 4, 64, 72
7, 34322, Note_on_c, 4, 67, 72
7, 34524, Note_on_c, 4, 40, 0
7, 34536, Note_on_c, 4, 59, 0
7, 34540, Note_on_c, 4, 64, 0
7, 34556, Note_on_c, 4, 67, 0
7, 34556, Note_on_c, 4, 43, 87
7, 34560, Note_on_c, 4, 50, 84
7, 34562, Note_on_c, 4, 55, 84
7, 34760, Note_on_c, 4, 43, 0
7, 34764, Note_on_c, 4, 50, 0
7, 34766, Note_on_c, 4, 55, 0
7, 34796, Note_on_c, 4, 43, 84
7, 34800, Note_on_c, 4, 50, 84
7, 34802, Note_on_c, 4, 55, 84
7, 34914, Note_on_c, 4, 43, 0
7, 35000, Note_on_c, 4, 50, 0
7, 35032, Note_on_c, 4, 55, 0
7, 35040, Note_on_c, 4, 45, 87
7, 35094, Note_on_c, 4, 52, 84
7, 35100, Note_on_c, 4, 57, 84
7, 35124, Note_on_c, 4, 45, 0
7, 35160, Note_on_c, 4, 45, 87
7, 35190, Note_on_c, 4, 52, 0
7, 35208, Note_on_c, 4, 57, 0
7, 35244, Note_on_c, 4, 45, 0
7, 35270, Note_on_c, 4, 45, 84
7, 35280, Note_on_c, 4, 52, 84
7, 35288, Note_on_c, 4, 57, 84
7, 35518, Note_on_c, 4, 45, 0
7, 35520, Note_on_c, 4, 52, 0
7, 35520, Note_on_c, 4, 57, 0
7, 35520, Note_on_c, 4, 40, 93
7, 35740, Note_on_c, 4, 59, 72
7, 35748, Note_on_c, 4, 64, 72
7, 35752, Note_on_c, 4, 67, 72
7, 35770, Note_on_c, 4, 40, 0
7, 35972, Note_on_c, 4, 59, 0
7, 35980, Note_on_c, 4, 64, 0
7, 35988, Note_on_c, 4, 67, 0
7, 36002, Note_on_c, 4, 40, 98
7, 36066, Note_on_c, 4, 40, 0
7, 36080, Note_on_c, 4, 59, 72
7, 36084, Note_on_c, 4, 64, 72
7, 36092, Note_on_c, 4, 59, 0
7, 36094, Note_on_c, 4, 64, 0
7, 36102, Note_on_c, 4, 40, 96
7, 36224, Note_on_c, 4, 59, 72
7, 36236, Note_on_c, 4, 64, 72
7, 36242, Note_on_c, 4, 67, 72
7, 36430, Note_on_c, 4, 40, 0
7, 36456, Note_on_c, 4, 59, 0
7, 36460, Note_on_c, 4, 64, 0
7, 36476, Note_on_c, 4, 67, 0
7, 36476, Note_on_c, 4, 43, 87
7, 36480, Note_on_c, 4, 50, 84
7, 36482, Note_on_c, 4, 55, 84
7, 36680, Note_on_c, 4, 43, 0
7, 36684, Note_on_c, 4, 50, 0
7, 36686, Note_on_c, 4, 55, 0
7, 36716, Note_on_c, 4, 43, 84
7, 36720, Note_on_c, 4, 50, 84
7, 36722, Note_on_c, 4, 55, 84
7, 36834, Note_on_c, 4, 43, 0
7, 36920, Note_on_c, 4, 50, 0
7, 36952, Note_on_c, 4, 55, 0
7, 36960, Note_on_c, 4, 45, 87
7, 37014, Note_on_c, 4, 52, 84
7, 37020, Note_on_c, 4, 57, 84
7, 37044, Note_on_c, 4, 45, 0
7, 37080, Note_on_c, 4, 45, 87
7, 37110, Note_on_c, 4, 52, 0
7, 37128, Note_on_c, 4, 57, 0
7, 37164, Note_on_c, 4, 45, 0
7, 37190, Note_on_c, 4, 45, 84
7, 37200, Note_on_c, 4, 52, 84
7, 37212, Note_on_c, 4, 57, 84
7, 37440, Note_on_c, 4, 45, 0
7, 37440, Note_on_c, 4, 52, 0
7, 37440, Note_on_c, 4, 57, 0
7, 37440, Note_on_c, 4, 40, 93
7, 37660, Note_on_c, 4, 59, 72
7, 37668, Note_on_c, 4, 64, 72
7, 37672, Note_on_c, 4, 67, 72
7, 37690, Note_on_c, 4, 40, 0
7, 37892, Note_on_c, 4, 59, 0
7, 37900, Note_on_c, 4, 64, 0
7, 37908, Note_on_c, 4, 67, 0
7, 37922, Note_on_c, 4, 40, 98
7, 37986, Note_on_c, 4, 40, 0
7, 38000, Note_on_c, 4, 59, 72
7, 38004, Note_on_c, 4, 64, 72
7, 38012, Note_on_c, 4, 59, 0
7, 38014, Note_on_c, 4, 64, 0
7, 38022, Note_on_c, 4, 40, 96
7, 38144, Note_on_c, 4, 59, 72
7, 38156, Note_on_c, 4, 64, 72
7, 38162, Note_on_c, 4, 67, 72
7, 38350, Note_on_c, 4, 40, 0
7, 38376, Note_on_c, 4, 59, 0
7, 38380, Note_on_c, 4, 64, 0
7, 38396, Note_on_c, 4, 67, 0
7, 38396, Note_on_c, 4, 43, 87
7, 38400, Note_on_c, 4, 50, 84
7, 38402, Note_on_c, 4, 55, 84
7, 38600, Note_on_c, 4, 43, 0
7, 38604, Note_on_c, 4, 50, 0
7, 38606, Note_on_c, 4, 55, 0
7, 38636, Note_on_c, 4, 43, 84
7, 38640, Note_on_c, 4, 50, 84
7, 38642, Note_on_c, 4, 55, 84
7, 38754, Note_on_c, 4, 43, 0
7, 38840, Note_on_c, 4, 50, 0
7, 38872, Note_on_c, 4, 55, 0
7, 38880, Note_on_c, 4, 45, 87
7, 38934, Note_on_c, 4, 52, 84
7, 38940, Note_on_c, 4, 57, 84
7, 38964, Note_on_c, 4, 45, 0
7, 39000, Note_on_c, 4, 45, 87
7, 39030, Note_on_c, 4, 52, 0
7, 39048, Note_on_c, 4, 57, 0
7, 39084, Note_on_c, 4, 45, 0
7, 39110, Note_on_c, 4, 45, 84
7, 39120, Note_on_c, 4, 52, 84
7, 39128, Note_on_c, 4, 57, 84
7, 39358, Note_on_c, 4, 45, 0
7, 39358, Note_on_c, 4, 52, 0
7, 39360, Note_on_c, 4, 57, 0
7, 39360, Note_on_c, 4, 40, 84
7, 39506, Note_on_c, 4, 40, 0
7, 40800, Note_on_c, 4, 54, 127
7, 40910, Note_on_c, 4, 54, 0
7, 40920, Note_on_c, 4, 52, 127
7, 41040, Note_on_c, 4, 50, 127
7, 41044, Note_on_c, 4, 52, 0
7, 41276, Note_on_c, 4, 50, 0
7, 41280, Note_on_c, 4, 57, 127
7, 41308, Pitch_bend_c, 4, 8712
7, 41312, Pitch_bend_c, 4, 9622
7, 41316, Pitch_bend_c, 4, 10402
7, 41320, Pitch_bend_c, 4, 11832
7, 41322, Pitch_bend_c, 4, 12872
7, 41326, Pitch_bend_c, 4, 13782
7, 41330, Pitch_bend_c, 4, 15212
7, 41332, Pitch_bend_c, 4, 15732
7, 41336, Pitch_bend_c, 4, 16252
7, 41340, Pitch_bend_c, 4, 16382
7, 41400, Note_on_c, 4, 60, 127
7, 41406, Note_on_c, 4, 57, 0
7, 41514, Control_c, 4, 1, 8
7, 41520, Control_c, 4, 1, 14
7, 41520, Note_on_c, 4, 65, 127
7, 41526, Control_c, 4, 1, 22
7, 41528, Note_on_c, 4, 60, 0
7, 41530, Control_c, 4, 1, 28
7, 41534, Control_c, 4, 1, 34
7, 41540, Control_c, 4, 1, 40
7, 41544, Control_c, 4, 1, 46
7, 41548, Control_c, 4, 1, 52
7, 41556, Control_c, 4, 1, 58
7, 41564, Control_c, 4, 1, 64
7, 41568, Control_c, 4, 1, 70
7, 41576, Control_c, 4, 1, 76
7, 41584, Control_c, 4, 1, 82
7, 41594, Control_c, 4, 1, 88
7, 41634, Control_c, 4, 1, 92
7, 41670, Control_c, 4, 1, 86
7, 41692, Note_on_c, 4, 65, 0
7, 41710, Control_c, 4, 1, 80
7, 41718, Pitch_bend_c, 4, 15732
7, 41720, Pitch_bend_c, 4, 15342
7, 41724, Pitch_bend_c, 4, 14822
7, 41728, Control_c, 4, 1, 74
7, 41728, Pitch_bend_c, 4, 13782
7, 41730, Pitch_bend_c, 4, 13002
7, 41734, Pitch_bend_c, 4, 11702
7, 41736, Control_c, 4, 1, 68
7, 41738, Pitch_bend_c, 4, 10662
7, 41742, Pitch_bend_c, 4, 9622
7, 41742, Control_c, 4, 1, 60
7, 41744, Pitch_bend_c, 4, 8972
7, 41746, Control_c, 4, 1, 54
7, 41748, Pitch_bend_c, 4, 8582
7, 41750, Control_c, 4, 1, 46
7, 41752, Pitch_bend_c, 4, 8192
7, 41754, Control_c, 4, 1, 38
7, 41756, Control_c, 4, 1, 30
7, 41760, Note_on_c, 4, 57, 127
7, 41760, Control_c, 4, 1, 20
7, 41764, Control_c, 4, 1, 6
7, 41770, Control_c, 4, 1, 0
7, 41776, Pitch_bend_c, 4, 8712
7, 41780, Pitch_bend_c, 4, 9362
7, 41782, Pitch_bend_c, 4, 10272
7, 41786, Pitch_bend_c, 4, 11702
7, 41790, Pitch_bend_c, 4, 13132
7, 41794, Pitch_bend_c, 4, 15342
7, 41796, Pitch_bend_c, 4, 15862
7, 41800, Pitch_bend_c, 4, 16252
7, 41804, Pitch_bend_c, 4, 16382
7, 41880, Note_on_c, 4, 60, 127
7, 41884, Note_on_c, 4, 57, 0
7, 41982, Control_c, 4, 1, 6
7, 41986, Control_c, 4, 1, 12
7, 41994, Control_c, 4, 1, 20
7, 41996, Control_c, 4, 1, 26
7, 41998, Note_on_c, 4, 60, 0
7, 42000, Note_on_c, 4, 65, 125
7, 42002, Control_c, 4, 1, 32
7, 42008, Control_c, 4, 1, 40
7, 42012, Control_c, 4, 1, 46
7, 42016, Control_c, 4, 1, 52
7, 42022, Control_c, 4, 1, 60
7, 42030, Control_c, 4, 1, 66
7, 42034, Control_c, 4, 1, 72
7, 42042, Control_c, 4, 1, 78
7, 42048, Control_c, 4, 1, 84
7, 42070, Control_c, 4, 1, 90
7, 42114, Control_c, 4, 1, 88
7, 42144, Control_c, 4, 1, 90
7, 42182, Control_c, 4, 1, 84
7, 42188, Control_c, 4, 1, 78
7, 42194, Control_c, 4, 1, 70
7, 42198, Control_c, 4, 1, 60
7, 42202, Note_on_c, 4, 65, 0
7, 42202, Control_c, 4, 1, 44
7, 42206, Control_c, 4, 1, 32
7, 42208, Control_c, 4, 1, 18
7, 42212, Control_c, 4, 1, 6
7, 42220, Control_c, 4, 1, 0
7, 42224, Pitch_bend_c, 4, 15732
7, 42228, Pitch_bend_c, 4, 14822
7, 42230, Pitch_bend_c, 4, 13262
7, 42234, Pitch_bend_c, 4, 10272
7, 42236, Pitch_bend_c, 4, 8712
7, 42238, Pitch_bend_c, 4, 8256
7, 42240, Note_on_c, 4, 57, 127
7, 42252, Pitch_bend_c, 4, 8576
7, 42256, Pitch_bend_c, 4, 8896
7, 42260, Pitch_bend_c, 4, 9280
7, 42264, Pitch_bend_c, 4, 9600
7, 42266, Pitch_bend_c, 4, 9984
7, 42270, Pitch_bend_c, 4, 10304
7, 42274, Pitch_bend_c, 4, 10752
7, 42276, Pitch_bend_c, 4, 11072
7, 42280, Pitch_bend_c, 4, 11392
7, 42284, Pitch_bend_c, 4, 11712
7, 42286, Pitch_bend_c, 4, 12096
7, 42290, Pitch_bend_c, 4, 12608
7, 42292, Pitch_bend_c, 4, 13120
7, 42296, Pitch_bend_c, 4, 13696
7, 42298, Pitch_bend_c, 4, 14528
7, 42300, Pitch_bend_c, 4, 15936
7, 42354, Note_on_c, 4, 57, 0
7, 42360, Note_on_c, 4, 60, 127
7, 42478, Note_on_c, 4, 60, 0
7, 42480, Note_on_c, 4, 65, 127
7, 42592, Pitch_bend_c, 4, 8256
7, 42598, Note_on_c, 4, 65, 0
7, 42600, Note_on_c, 4, 57, 127
7, 42664, Control_c, 4, 1, 2
7, 42666, Control_c, 4, 1, 8
7, 42670, Control_c, 4, 1, 14
7, 42672, Control_c, 4, 1, 20
7, 42676, Control_c, 4, 1, 28
7, 42680, Control_c, 4, 1, 34
7, 42684, Control_c, 4, 1, 42
7, 42694, Control_c, 4, 1, 48
7, 42730, Control_c, 4, 1, 54
7, 42760, Control_c, 4, 1, 60
7, 42770, Control_c, 4, 1, 62
7, 42978, Control_c, 4, 1, 56
7, 42986, Control_c, 4, 1, 50
7, 42990, Control_c, 4, 1, 44
7, 42992, Control_c, 4, 1, 38
7, 42996, Control_c, 4, 1, 16
7, 42998, Note_on_c, 4, 57, 0
7, 43000, Control_c, 4, 1, 8
7, 43004, Control_c, 4, 1, 0
7, 43200, Note_on_c, 4, 55, 123
7, 43310, Note_on_c, 4, 55, 0
7, 43320, Note_on_c, 4, 50, 127
7, 43416, Note_on_c, 4, 38, 90
7, 43452, Pitch_bend_c, 4, 8712
7, 43456, Pitch_bend_c, 4, 10012
7, 43460, Pitch_bend_c, 4, 10922
7, 43462, Pitch_bend_c, 4, 12352
7, 43466, Pitch_bend_c, 4, 13782
7, 43470, Pitch_bend_c, 4, 15602
7, 43472, Pitch_bend_c, 4, 15992
7, 43478, Pitch_bend_c, 4, 16382
7, 43508, Note_on_c, 4, 50, 0
7, 43552, Note_on_c, 4, 38, 0
7, 43554, Pitch_bend_c, 4, 15992
7, 43556, Pitch_bend_c, 4, 15472
7, 43560, Note_on_c, 4, 50, 127
7, 43560, Pitch_bend_c, 4, 13912
7, 43564, Pitch_bend_c, 4, 13002
7, 43566, Pitch_bend_c, 4, 11312
7, 43570, Pitch_bend_c, 4, 9882
7, 43574, Pitch_bend_c, 4, 9232
7, 43576, Pitch_bend_c, 4, 8712
7, 43582, Pitch_bend_c, 4, 8192
7, 43636, Pitch_bend_c, 4, 8582
7, 43638, Pitch_bend_c, 4, 10662
7, 43642, Pitch_bend_c, 4, 12352
7, 43644, Pitch_bend_c, 4, 14692
7, 43648, Pitch_bend_c, 4, 15472
7, 43650, Pitch_bend_c, 4, 16122
7, 43656, Pitch_bend_c, 4, 16382
7, 43842, Control_c, 4, 1, 6
7, 43850, Control_c, 4, 1, 14
7, 43854, Control_c, 4, 1, 20
7, 43858, Control_c, 4, 1, 26
7, 43870, Control_c, 4, 1, 32
7, 43882, Control_c, 4, 1, 38
7, 43888, Control_c, 4, 1, 44
7, 43900, Control_c, 4, 1, 50
7, 43914, Control_c, 4, 1, 52
7, 44030, Control_c, 4, 1, 46
7, 44034, Control_c, 4, 1, 40
7, 44038, Control_c, 4, 1, 34
7, 44042, Control_c, 4, 1, 24
7, 44048, Note_on_c, 4, 50, 0
7, 44048, Control_c, 4, 1, 12
7, 44052, Control_c, 4, 1, 2
7, 44052, Control_c, 4, 1, 0
7, 44160, Note_on_c, 4, 57, 127
7, 44172, Pitch_bend_c, 4, 8576
7, 44176, Pitch_bend_c, 4, 8896
7, 44180, Pitch_bend_c, 4, 9280
7, 44184, Pitch_bend_c, 4, 9600
7, 44186, Pitch_bend_c, 4, 9984
7, 44190, Pitch_bend_c, 4, 10304
7, 44194, Pitch_bend_c, 4, 10752
7, 44196, Pitch_bend_c, 4, 11072
7, 44200, Pitch_bend_c, 4, 11392
7, 44204, Pitch_bend_c, 4, 11712
7, 44206, Pitch_bend_c, 4, 12096
7, 44210, Pitch_bend_c, 4, 12608
7, 44212, Pitch_bend_c, 4, 13120
7, 44216, Pitch_bend_c, 4, 13696
7, 44218, Pitch_bend_c, 4, 14528
7, 44220, Pitch_bend_c, 4, 15936
7, 44278, Note_on_c, 4, 57, 0
7, 44280, Note_on_c, 4, 60, 127
7, 44400, Note_on_c, 4, 60, 0
7, 44400, Note_on_c, 4, 65, 127
7, 44510, Pitch_bend_c, 4, 15616
7, 44512, Pitch_bend_c, 4, 15104
7, 44514, Note_on_c, 4, 65, 0
7, 44516, Pitch_bend_c, 4, 14656
7, 44518, Pitch_bend_c, 4, 14144
7, 44520, Note_on_c, 4, 57, 127
7, 44522, Pitch_bend_c, 4, 13632
7, 44524, Pitch_bend_c, 4, 13184
7, 44528, Pitch_bend_c, 4, 12672
7, 44530, Pitch_bend_c, 4, 12288
7, 44534, Pitch_bend_c, 4, 11840
7, 44536, Pitch_bend_c, 4, 11456
7, 44540, Pitch_bend_c, 4, 11136
7, 44542, Pitch_bend_c, 4, 10624
7, 44546, Pitch_bend_c, 4, 10112
7, 44548, Pitch_bend_c, 4, 9792
7, 44552, Pitch_bend_c, 4, 9408
7, 44554, Pitch_bend_c, 4, 9024
7, 44558, Pitch_bend_c, 4, 8512
7, 44562, Pitch_bend_c, 4, 8256
7, 44586, Control_c, 4, 1, 8
7, 44590, Control_c, 4, 1, 14
7, 44592, Control_c, 4, 1, 20
7, 44596, Control_c, 4, 1, 28
7, 44600, Control_c, 4, 1, 34
7, 44604, Control_c, 4, 1, 42
7, 44614, Control_c, 4, 1, 48
7, 44650, Control_c, 4, 1, 54
7, 44680, Control_c, 4, 1, 60
7, 44690, Control_c, 4, 1, 62
7, 44898, Control_c, 4, 1, 56
7, 44906, Control_c, 4, 1, 50
7, 44910, Control_c, 4, 1, 44
7, 44912, Control_c, 4, 1, 38
7, 44916, Control_c, 4, 1, 16
7, 44918, Note_on_c, 4, 57, 0
7, 44920, Control_c, 4, 1, 8
7, 44924, Control_c, 4, 1, 0
7, 45120, Note_on_c, 4, 55, 123
7, 45230, Note_on_c, 4, 55, 0
7, 45240, Note_on_c, 4, 50, 127
7, 45342, Note_on_c, 4, 38, 90
7, 45372, Pitch_bend_c, 4, 8712
7, 45376, Pitch_bend_c, 4, 10012
7, 45380, Pitch_bend_c, 4, 10922
7, 45382, Pitch_bend_c, 4, 12352
7, 45386, Pitch_bend_c, 4, 13782
7, 45390, Pitch_bend_c, 4, 15602
7, 45392, Pitch_bend_c, 4, 15992
7, 45398, Pitch_bend_c, 4, 16382
7, 45448, Note_on_c, 4, 50, 0
7, 45474, Pitch_bend_c, 4, 15992
7, 45476, Pitch_bend_c, 4, 15472
7, 45480, Note_on_c, 4, 50, 127
7, 45480, Pitch_bend_c, 4, 13912
7, 45484, Pitch_bend_c, 4, 13002
7, 45486, Note_on_c, 4, 38, 0
7, 45486, Pitch_bend_c, 4, 11312
7, 45490, Pitch_bend_c, 4, 9882
7, 45494, Pitch_bend_c, 4, 9232
7, 45496, Pitch_bend_c, 4, 8712
7, 45502, Pitch_bend_c, 4, 8192
7, 45556, Pitch_bend_c, 4, 8582
7, 45558, Pitch_bend_c, 4, 10662
7, 45562, Pitch_bend_c, 4, 12352
7, 45564, Pitch_bend_c, 4, 14692
7, 45568, Pitch_bend_c, 4, 15472
7, 45570, Pitch_bend_c, 4, 16122
7, 45576, Pitch_bend_c, 4, 16382
7, 45762, Control_c, 4, 1, 6
7, 45770, Control_c, 4, 1, 14
7, 45774, Control_c, 4, 1, 20
7, 45778, Control_c, 4, 1, 26
7, 45790, Control_c, 4, 1, 32
7, 45802, Control_c, 4, 1, 38
7, 45808, Control_c, 4, 1, 44
7, 45820, Control_c, 4, 1, 50
7, 45834, Control_c, 4, 1, 52
7, 45840, Note_on_c, 4, 50, 0
7, 45840, Pitch_bend_c, 4, 8256
7, 45948, Note_on_c, 4, 50, 122
7, 45950, Control_c, 4, 1, 46
7, 45954, Control_c, 4, 1, 40
7, 45958, Control_c, 4, 1, 34
7, 45962, Control_c, 4, 1, 24
7, 45968, Control_c, 4, 1, 12
7, 45972, Pitch_bend_c, 4, 8582
7, 45972, Control_c, 4, 1, 2
7, 45972, Control_c, 4, 1, 0
7, 45974, Pitch_bend_c, 4, 9102
7, 45978, Pitch_bend_c, 4, 10272
7, 45982, Pitch_bend_c, 4, 11052
7, 45984, Pitch_bend_c, 4, 12612
7, 45990, Pitch_bend_c, 4, 14562
7, 45994, Pitch_bend_c, 4, 15862
7, 45998, Pitch_bend_c, 4, 16252
7, 46000, Pitch_bend_c, 4, 16382
7, 46054, Note_on_c, 4, 50, 0
7, 46060, Pitch_bend_c, 4, 15862
7, 46064, Pitch_bend_c, 4, 8256
7, 46064, Pitch_bend_c, 4, 13392
7, 46068, Pitch_bend_c, 4, 10532
7, 46070, Pitch_bend_c, 4, 8192
7, 46072, Pitch_bend_c, 4, 8064
7, 46074, Pitch_bend_c, 4, 8192
7, 46078, Pitch_bend_c, 4, 8582
7, 46080, Note_on_c, 4, 55, 113
7, 46080, Pitch_bend_c, 4, 8972
7, 46086, Pitch_bend_c, 4, 8452
7, 46086, Pitch_bend_c, 4, 8192
7, 46090, Pitch_bend_c, 4, 7936
7, 46096, Pitch_bend_c, 4, 8192
7, 46176, Note_on_c, 4, 55, 0
7, 46200, Note_on_c, 4, 57, 113
7, 46274, Note_on_c, 4, 57, 0
7, 46320, Note_on_c, 4, 59, 113
7, 46424, Note_on_c, 4, 59, 0
7, 46440, Note_on_c, 4, 53, 113
7, 46448, Pitch_bend_c, 4, 8712
7, 46452, Pitch_bend_c, 4, 9102
7, 46454, Pitch_bend_c, 4, 9622
7, 46458, Pitch_bend_c, 4, 10402
7, 46464, Pitch_bend_c, 4, 11312
7, 46468, Pitch_bend_c, 4, 12742
7, 46470, Pitch_bend_c, 4, 13522
7, 46474, Pitch_bend_c, 4, 14692
7, 46478, Pitch_bend_c, 4, 15472
7, 46480, Pitch_bend_c, 4, 15862
7, 46484, Pitch_bend_c, 4, 16252
7, 46486, Pitch_bend_c, 4, 16382
7, 46686, Pitch_bend_c, 4, 15992
7, 46688, Pitch_bend_c, 4, 15472
7, 46692, Pitch_bend_c, 4, 15082
7, 46696, Pitch_bend_c, 4, 14432
7, 46700, Pitch_bend_c, 4, 14042
7, 46704, Pitch_bend_c, 4, 13782
7, 46712, Pitch_bend_c, 4, 14172
7, 46718, Pitch_bend_c, 4, 15212
7, 46720, Pitch_bend_c, 4, 15732
7, 46724, Pitch_bend_c, 4, 16252
7, 46728, Pitch_bend_c, 4, 16382
7, 46746, Pitch_bend_c, 4, 15992
7, 46748, Pitch_bend_c, 4, 15602
7, 46752, Pitch_bend_c, 4, 14692
7, 46754, Pitch_bend_c, 4, 13912
7, 46758, Pitch_bend_c, 4, 13132
7, 46762, Pitch_bend_c, 4, 12742
7, 46764, Pitch_bend_c, 4, 12352
7, 46772, Pitch_bend_c, 4, 12872
7, 46776, Pitch_bend_c, 4, 13652
7, 46778, Pitch_bend_c, 4, 15212
7, 46782, Pitch_bend_c, 4, 15732
7, 46786, Pitch_bend_c, 4, 16252
7, 46790, Pitch_bend_c, 4, 16382
7, 46816, Pitch_bend_c, 4, 15732
7, 46820, Pitch_bend_c, 4, 15342
7, 46824, Pitch_bend_c, 4, 15082
7, 46832, Pitch_bend_c, 4, 15602
7, 46834, Pitch_bend_c, 4, 16122
7, 46840, Pitch_bend_c, 4, 16382
7, 46882, Pitch_bend_c, 4, 16252
7, 46886, Pitch_bend_c, 4, 16382
7, 46936, Pitch_bend_c, 4, 15992
7, 46940, Note_on_c, 4, 53, 0
7, 46946, Pitch_bend_c, 4, 16382
7, 46960, Pitch_bend_c, 4, 15992
7, 46964, Pitch_bend_c, 4, 13522
7, 46966, Pitch_bend_c, 4, 10532
7, 46970, Pitch_bend_c, 4, 7808
7, 46972, Pitch_bend_c, 4, 7552
7, 46976, Pitch_bend_c, 4, 7936
7, 46976, Pitch_bend_c, 4, 8192
7, 46980, Pitch_bend_c, 4, 8972
7, 46984, Pitch_bend_c, 4, 8582
7, 46986, Pitch_bend_c, 4, 8192
7, 46988, Pitch_bend_c, 4, 7808
7, 46996, Pitch_bend_c, 4, 8192
7, 47020, Note_on_c, 4, 53, 108
7, 47046, Pitch_bend_c, 4, 8712
7, 47050, Pitch_bend_c, 4, 9492
7, 47052, Pitch_bend_c, 4, 10402
7, 47056, Pitch_bend_c, 4, 11832
7, 47060, Pitch_bend_c, 4, 13002
7, 47062, Pitch_bend_c, 4, 14172
7, 47066, Pitch_bend_c, 4, 15472
7, 47068, Pitch_bend_c, 4, 15992
7, 47076, Pitch_bend_c, 4, 16382
7, 47154, Note_on_c, 4, 53, 0
7, 47160, Note_on_c, 4, 45, 122
7, 47162, Pitch_bend_c, 4, 14822
7, 47166, Pitch_bend_c, 4, 12742
7, 47170, Pitch_bend_c, 4, 8192
7, 47172, Pitch_bend_c, 4, 7296
7, 47176, Pitch_bend_c, 4, 7936
7, 47176, Pitch_bend_c, 4, 8192
7, 47180, Pitch_bend_c, 4, 8842
7, 47182, Pitch_bend_c, 4, 8972
7, 47186, Pitch_bend_c, 4, 8322
7, 47186, Pitch_bend_c, 4, 8192
7, 47190, Pitch_bend_c, 4, 7680
7, 47194, Pitch_bend_c, 4, 8064
7, 47196, Pitch_bend_c, 4, 8192
7, 47206, Pitch_bend_c, 4, 8064
7, 47208, Pitch_bend_c, 4, 8192
7, 47274, Note_on_c, 4, 45, 0
7, 47280, Note_on_c, 4, 40, 113
7, 47394, Note_on_c, 4, 40, 0
7, 47400, Note_on_c, 4, 43, 104
7, 47526, Pitch_bend_c, 4, 8582
7, 47534, Pitch_bend_c, 4, 8972
7, 47548, Pitch_bend_c, 4, 8582
7, 47554, Pitch_bend_c, 4, 8192
7, 47638, Pitch_bend_c, 4, 7808
7, 47642, Pitch_bend_c, 4, 7552
7, 47654, Pitch_bend_c, 4, 7936
7, 47658, Pitch_bend_c, 4, 8192
7, 47668, Pitch_bend_c, 4, 8582
7, 47672, Pitch_bend_c, 4, 9102
7, 47676, Pitch_bend_c, 4, 9622
7, 47678, Pitch_bend_c, 4, 10532
7, 47682, Pitch_bend_c, 4, 11052
7, 47684, Pitch_bend_c, 4, 11442
7, 47686, Pitch_bend_c, 4, 11572
7, 47696, Pitch_bend_c, 4, 11182
7, 47702, Pitch_bend_c, 4, 10662
7, 47704, Pitch_bend_c, 4, 10012
7, 47708, Pitch_bend_c, 4, 9622
7, 47710, Pitch_bend_c, 4, 9232
7, 47714, Pitch_bend_c, 4, 8842
7, 47718, Pitch_bend_c, 4, 8452
7, 47720, Pitch_bend_c, 4, 8322
7, 47732, Pitch_bend_c, 4, 8712
7, 47736, Pitch_bend_c, 4, 9492
7, 47738, Pitch_bend_c, 4, 9882
7, 47742, Pitch_bend_c, 4, 10792
7, 47746, Pitch_bend_c, 4, 11312
7, 47748, Pitch_bend_c, 4, 11832
7, 47752, Pitch_bend_c, 4, 12352
7, 47758, Pitch_bend_c, 4, 12612
7, 47764, Pitch_bend_c, 4, 12092
7, 47768, Pitch_bend_c, 4, 11702
7, 47772, Pitch_bend_c, 4, 11182
7, 47776, Pitch_bend_c, 4, 10792
7, 47778, Pitch_bend_c, 4, 9882
7, 47782, Pitch_bend_c, 4, 9492
7, 47784, Pitch_bend_c, 4, 9102
7, 47788, Pitch_bend_c, 4, 8712
7, 47794, Pitch_bend_c, 4, 8452
7, 47806, Pitch_bend_c, 4, 8842
7, 47810, Pitch_bend_c, 4, 10272
7, 47812, Pitch_bend_c, 4, 10662
7, 47816, Pitch_bend_c, 4, 11442
7, 47820, Pitch_bend_c, 4, 11832
7, 47822, Pitch_bend_c, 4, 12352
7, 47828, Pitch_bend_c, 4, 12612
7, 47838, Pitch_bend_c, 4, 12092
7, 47846, Pitch_bend_c, 4, 11572
7, 47848, Pitch_bend_c, 4, 11182
7, 47852, Pitch_bend_c, 4, 10792
7, 47856, Pitch_bend_c, 4, 9882
7, 47858, Pitch_bend_c, 4, 9492
7, 47860, Note_on_c, 4, 43, 0
7, 47862, Pitch_bend_c, 4, 8972
7, 47864, Pitch_bend_c, 4, 8582
7, 47870, Pitch_bend_c, 4, 8192
7, 47886, Note_on_c, 4, 45, 127
7, 47986, Note_on_c, 4, 45, 0
7, 47998, Note_on_c, 4, 45, 127
7, 48030, Pitch_bend_c, 4, 8842
7, 48032, Pitch_bend_c, 4, 9362
7, 48036, Pitch_bend_c, 4, 10922
7, 48038, Pitch_bend_c, 4, 11702
7, 48042, Pitch_bend_c, 4, 13522
7, 48046, Pitch_bend_c, 4, 14562
7, 48050, Pitch_bend_c, 4, 15862
7, 48052, Pitch_bend_c, 4, 16252
7, 48056, Pitch_bend_c, 4, 16382
7, 48094, Note_on_c, 4, 45, 0
7, 48124, Note_on_c, 4, 53, 122
7, 48210, Pitch_bend_c, 4, 15992
7, 48214, Pitch_bend_c, 4, 15212
7, 48218, Pitch_bend_c, 4, 14692
7, 48220, Pitch_bend_c, 4, 13002
7, 48224, Pitch_bend_c, 4, 11702
7, 48228, Pitch_bend_c, 4, 9752
7, 48230, Pitch_bend_c, 4, 9362
7, 48232, Note_on_c, 4, 53, 0
7, 48234, Pitch_bend_c, 4, 8582
7, 48236, Note_on_c, 4, 57, 122
7, 48238, Pitch_bend_c, 4, 8192
7, 48262, Pitch_bend_c, 4, 8582
7, 48264, Pitch_bend_c, 4, 9752
7, 48268, Pitch_bend_c, 4, 10662
7, 48270, Pitch_bend_c, 4, 12092
7, 48274, Pitch_bend_c, 4, 13912
7, 48278, Pitch_bend_c, 4, 15732
7, 48282, Pitch_bend_c, 4, 16122
7, 48284, Pitch_bend_c, 4, 16382
7, 48338, Pitch_bend_c, 4, 15992
7, 48340, Pitch_bend_c, 4, 15472
7, 48344, Pitch_bend_c, 4, 13652
7, 48348, Pitch_bend_c, 4, 11702
7, 48352, Note_on_c, 4, 57, 0
7, 48352, Pitch_bend_c, 4, 10012
7, 48356, Pitch_bend_c, 4, 9102
7, 48358, Pitch_bend_c, 4, 8192
7, 48358, Note_on_c, 4, 55, 125
7, 48364, Pitch_bend_c, 4, 7680
7, 48368, Pitch_bend_c, 4, 7296
7, 48370, Pitch_bend_c, 4, 7168
7, 48378, Pitch_bend_c, 4, 7552
7, 48382, Pitch_bend_c, 4, 7936
7, 48388, Pitch_bend_c, 4, 8192
7, 48392, Pitch_bend_c, 4, 8582
7, 48396, Pitch_bend_c, 4, 9752
7, 48398, Pitch_bend_c, 4, 11052
7, 48402, Pitch_bend_c, 4, 11962
7, 48404, Pitch_bend_c, 4, 14172
7, 48408, Pitch_bend_c, 4, 15212
7, 48410, Pitch_bend_c, 4, 15992
7, 48416, Pitch_bend_c, 4, 16382
7, 48548, Control_c, 4, 1, 6
7, 48556, Control_c, 4, 1, 12
7, 48566, Control_c, 4, 1, 18
7, 48580, Control_c, 4, 1, 26
7, 48594, Control_c, 4, 1, 32
7, 48612, Control_c, 4, 1, 38
7, 48628, Control_c, 4, 1, 44
7, 48642, Control_c, 4, 1, 50
7, 48676, Control_c, 4, 1, 56
7, 48690, Control_c, 4, 1, 62
7, 48710, Control_c, 4, 1, 68
7, 48714, Note_on_c, 4, 55, 0
7, 48720, Control_c, 4, 1, 1
7, 48720, Pitch_bend_c, 4, 8256
7, 48724, Note_on_c, 4, 55, 127
7, 48836, Note_on_c, 4, 55, 0
7, 48838, Note_on_c, 4, 50, 127
7, 48956, Note_on_c, 4, 57, 125
7, 48958, Note_on_c, 4, 50, 0
7, 49000, Pitch_bend_c, 4, 8712
7, 49002, Pitch_bend_c, 4, 9232
7, 49006, Pitch_bend_c, 4, 9752
7, 49010, Pitch_bend_c, 4, 11052
7, 49012, Pitch_bend_c, 4, 11962
7, 49016, Pitch_bend_c, 4, 13652
7, 49018, Pitch_bend_c, 4, 14952
7, 49026, Pitch_bend_c, 4, 15602
7, 49030, Pitch_bend_c, 4, 16382
7, 49078, Note_on_c, 4, 57, 0
7, 49090, Note_on_c, 4, 60, 126
7, 49158, Note_on_c, 4, 60, 0
7, 49208, Note_on_c, 4, 60, 127
7, 49288, Note_on_c, 4, 60, 0
7, 49306, Pitch_bend_c, 4, 15992
7, 49308, Pitch_bend_c, 4, 15472
7, 49312, Pitch_bend_c, 4, 14692
7, 49316, Pitch_bend_c, 4, 14042
7, 49318, Pitch_bend_c, 4, 13002
7, 49322, Pitch_bend_c, 4, 12352
7, 49326, Pitch_bend_c, 4, 10792
7, 49330, Pitch_bend_c, 4, 9882
7, 49332, Pitch_bend_c, 4, 9362
7, 49332, Note_on_c, 4, 62, 127
7, 49336, Pitch_bend_c, 4, 8972
7, 49340, Pitch_bend_c, 4, 8452
7, 49342, Pitch_bend_c, 4, 8192
7, 49374, Pitch_bend_c, 4, 8582
7, 49378, Pitch_bend_c, 4, 9102
7, 49380, Pitch_bend_c, 4, 10272
7, 49386, Pitch_bend_c, 4, 11442
7, 49390, Pitch_bend_c, 4, 13262
7, 49392, Pitch_bend_c, 4, 14172
7, 49396, Pitch_bend_c, 4, 15082
7, 49400, Pitch_bend_c, 4, 15862
7, 49404, Pitch_bend_c, 4, 16252
7, 49406, Pitch_bend_c, 4, 16382
7, 49482, Control_c, 4, 1, 6
7, 49488, Control_c, 4, 1, 12
7, 49492, Control_c, 4, 1, 18
7, 49500, Control_c, 4, 1, 24
7, 49506, Control_c, 4, 1, 30
7, 49512, Control_c, 4, 1, 36
7, 49522, Control_c, 4, 1, 42
7, 49530, Control_c, 4, 1, 48
7, 49538, Control_c, 4, 1, 54
7, 49546, Control_c, 4, 1, 60
7, 49556, Control_c, 4, 1, 66
7, 49588, Control_c, 4, 1, 72
7, 49676, Note_on_c, 4, 62, 0
7, 49680, Control_c, 4, 1, 0
7, 49686, Pitch_bend_c, 4, 8322
7, 49688, Pitch_bend_c, 4, 8712
7, 49692, Pitch_bend_c, 4, 9102
7, 49692, Note_on_c, 4, 50, 91
7, 49694, Pitch_bend_c, 4, 9752
7, 49698, Pitch_bend_c, 4, 10792
7, 49702, Pitch_bend_c, 4, 11702
7, 49706, Pitch_bend_c, 4, 13132
7, 49710, Pitch_bend_c, 4, 13782
7, 49714, Pitch_bend_c, 4, 15472
7, 49716, Pitch_bend_c, 4, 16122
7, 49720, Pitch_bend_c, 4, 16382
7, 49812, Note_on_c, 4, 45, 90
7, 49818, Note_on_c, 4, 50, 0
7, 49820, Pitch_bend_c, 4, 15992
7, 49822, Pitch_bend_c, 4, 15602
7, 49826, Pitch_bend_c, 4, 14692
7, 49830, Pitch_bend_c, 4, 14042
7, 49832, Pitch_bend_c, 4, 13782
7, 49832, Pitch_bend_c, 4, 16252
7, 49834, Pitch_bend_c, 4, 13132
7, 49834, Pitch_bend_c, 4, 15992
7, 49834, Pitch_bend_c, 4, 12742
7, 49836, Pitch_bend_c, 4, 15732
7, 49836, Pitch_bend_c, 4, 12352
7, 49838, Pitch_bend_c, 4, 14952
7, 49838, Pitch_bend_c, 4, 11832
7, 49840, Pitch_bend_c, 4, 14562
7, 49840, Pitch_bend_c, 4, 11442
7, 49840, Pitch_bend_c, 4, 14042
7, 49842, Pitch_bend_c, 4, 10012
7, 49844, Pitch_bend_c, 4, 13262
7, 49844, Pitch_bend_c, 4, 9752
7, 49844, Pitch_bend_c, 4, 13002
7, 49846, Pitch_bend_c, 4, 9492
7, 49846, Pitch_bend_c, 4, 11962
7, 49848, Pitch_bend_c, 4, 9232
7, 49848, Pitch_bend_c, 4, 11052
7, 49848, Pitch_bend_c, 4, 9102
7, 49850, Pitch_bend_c, 4, 10662
7, 49850, Pitch_bend_c, 4, 8712
7, 49852, Pitch_bend_c, 4, 10272
7, 49852, Pitch_bend_c, 4, 8582
7, 49854, Pitch_bend_c, 4, 9362
7, 49854, Pitch_bend_c, 4, 8452
7, 49856, Pitch_bend_c, 4, 9102
7, 49856, Pitch_bend_c, 4, 8322
7, 49856, Pitch_bend_c, 4, 8842
7, 49858, Pitch_bend_c, 4, 8192
7, 49864, Pitch_bend_c, 4, 7680
7, 49868, Pitch_bend_c, 4, 6272
7, 49872, Pitch_bend_c, 4, 5120
7, 49874, Pitch_bend_c, 4, 4096
7, 49878, Pitch_bend_c, 4, 3328
7, 49882, Pitch_bend_c, 4, 2048
7, 49886, Pitch_bend_c, 4, 896
7, 49890, Pitch_bend_c, 4, 128
7, 49890, Pitch_bend_c, 4, 0
7, 49918, Note_on_c, 4, 45, 0
7, 49918, Pitch_bend_c, 4, 8256
7, 49920, Note_on_c, 4, 40, 93
7, 50140, Note_on_c, 4, 59, 72
7, 50148, Note_on_c, 4, 64, 72
7, 50152, Note_on_c, 4, 67, 72
7, 50170, Note_on_c, 4, 40, 0
7, 50312, Note_on_c, 4, 59, 0
7, 50316, Note_on_c, 4, 64, 0
7, 50318, Note_on_c, 4, 67, 0
7, 50346, Note_on_c, 4, 59, 72
7, 50350, Note_on_c, 4, 64, 72
7, 50350, Note_on_c, 4, 67, 72
7, 50374, Note_on_c, 4, 59, 0
7, 50374, Note_on_c, 4, 64, 0
7, 50384, Note_on_c, 4, 67, 0
7, 50402, Note_on_c, 4, 40, 98
7, 50436, Note_on_c, 4, 40, 0
7, 50480, Note_on_c, 4, 59, 72
7, 50484, Note_on_c, 4, 64, 72
7, 50486, Note_on_c, 4, 67, 72
7, 50496, Note_on_c, 4, 59, 0
7, 50498, Note_on_c, 4, 64, 0
7, 50502, Note_on_c, 4, 40, 96
7, 50510, Note_on_c, 4, 67, 0
7, 50624, Note_on_c, 4, 59, 72
7, 50636, Note_on_c, 4, 64, 72
7, 50642, Note_on_c, 4, 67, 72
7, 50650, Note_on_c, 4, 40, 0
7, 50856, Note_on_c, 4, 59, 0
7, 50860, Note_on_c, 4, 64, 0
7, 50876, Note_on_c, 4, 67, 0
7, 50876, Note_on_c, 4, 43, 87
7, 50880, Note_on_c, 4, 50, 84
7, 50882, Note_on_c, 4, 55, 84
7, 51080, Note_on_c, 4, 43, 0
7, 51084, Note_on_c, 4, 50, 0
7, 51086, Note_on_c, 4, 55, 0
7, 51116, Note_on_c, 4, 43, 84
7, 51120, Note_on_c, 4, 50, 84
7, 51122, Note_on_c, 4, 55, 84
7, 51234, Note_on_c, 4, 43, 0
7, 51320, Note_on_c, 4, 50, 0
7, 51352, Note_on_c, 4, 55, 0
7, 51360, Note_on_c, 4, 45, 87
7, 51414, Note_on_c, 4, 52, 84
7, 51420, Note_on_c, 4, 57, 84
7, 51444, Note_on_c, 4, 45, 0
7, 51480, Note_on_c, 4, 45, 87
7, 51510, Note_on_c, 4, 52, 0
7, 51528, Note_on_c, 4, 57, 0
7, 51564, Note_on_c, 4, 45, 0
7, 51590, Note_on_c, 4, 45, 84
7, 51600, Note_on_c, 4, 52, 84
7, 51612, Note_on_c, 4, 57, 84
7, 51836, Note_on_c, 4, 52, 0
7, 51838, Note_on_c, 4, 45, 0
7, 51840, Note_on_c, 4, 57, 0
7, 51840, Note_on_c, 4, 40, 93
7, 52060, Note_on_c, 4, 59, 72
7, 52068, Note_on_c, 4, 64, 72
7, 52072, Note_on_c, 4, 67, 72
7, 52090, Note_on_c, 4, 40, 0
7, 52292, Note_on_c, 4, 59, 0
7, 52300, Note_on_c, 4, 64, 0
7, 52308, Note_on_c, 4, 67, 0
7, 52322, Note_on_c, 4, 40, 98
7, 52386, Note_on_c, 4, 40, 0
7, 52400, Note_on_c, 4, 59, 72
7, 52404, Note_on_c, 4, 64, 72
7, 52422, Note_on_c, 4, 40, 96
7, 52424, Note_on_c, 4, 59, 0
7, 52426, Note_on_c, 4, 64, 0
7, 52544, Note_on_c, 4, 59, 72
7, 52556, Note_on_c, 4, 64, 72
7, 52562, Note_on_c, 4, 67, 72
7, 52750, Note_on_c, 4, 40, 0
7, 52776, Note_on_c, 4, 59, 0
7, 52780, Note_on_c, 4, 64, 0
7, 52796, Note_on_c, 4, 67, 0
7, 52796, Note_on_c, 4, 43, 87
7, 52800, Note_on_c, 4, 50, 84
7, 52802, Note_on_c, 4, 55, 84
7, 53000, Note_on_c, 4, 43, 0
7, 53004, Note_on_c, 4, 50, 0
7, 53006, Note_on_c, 4, 55, 0
7, 53036, Note_on_c, 4, 43, 84
7, 53040, Note_on_c, 4, 50, 84
7, 53042, Note_on_c, 4, 55, 84
7, 53154, Note_on_c, 4, 43, 0
7, 53240, Note_on_c, 4, 50, 0
7, 53272, Note_on_c, 4, 55, 0
7, 53280, Note_on_c, 4, 45, 87
7, 53334, Note_on_c, 4, 52, 84
7, 53340, Note_on_c, 4, 57, 84
7, 53364, Note_on_c, 4, 45, 0
7, 53400, Note_on_c, 4, 45, 87
7, 53430, Note_on_c, 4, 52, 0
7, 53448, Note_on_c, 4, 57, 0
7, 53484, Note_on_c, 4, 45, 0
7, 53508, Note_on_c, 4, 45, 84
7, 53520, Note_on_c, 4, 57, 84
7, 53520, Note_on_c, 4, 52, 84
7, 53754, Note_on_c, 4, 45, 0
7, 53756, Note_on_c, 4, 52, 0
7, 53758, Note_on_c, 4, 57, 0
7, 53760, Note_on_c, 4, 40, 93
7, 53980, Note_on_c, 4, 59, 72
7, 53988, Note_on_c, 4, 64, 72
7, 53992, Note_on_c, 4, 67, 72
7, 54010, Note_on_c, 4, 40, 0
7, 54152, Note_on_c, 4, 59, 0
7, 54156, Note_on_c, 4, 64, 0
7, 54158, Note_on_c, 4, 67, 0
7, 54186, Note_on_c, 4, 59, 72
7, 54214, Note_on_c, 4, 59, 0
7, 54242, Note_on_c, 4, 40, 98
7, 54320, Note_on_c, 4, 59, 72
7, 54324, Note_on_c, 4, 40, 0
7, 54336, Note_on_c, 4, 59, 0
7, 54342, Note_on_c, 4, 40, 96
7, 54464, Note_on_c, 4, 59, 72
7, 54476, Note_on_c, 4, 64, 72
7, 54482, Note_on_c, 4, 67, 72
7, 54684, Note_on_c, 4, 40, 0
7, 54696, Note_on_c, 4, 59, 0
7, 54700, Note_on_c, 4, 64, 0
7, 54716, Note_on_c, 4, 67, 0
7, 54716, Note_on_c, 4, 43, 87
7, 54720, Note_on_c, 4, 50, 84
7, 54722, Note_on_c, 4, 55, 84
7, 54920, Note_on_c, 4, 43, 0
7, 54924, Note_on_c, 4, 50, 0
7, 54926, Note_on_c, 4, 55, 0
7, 54956, Note_on_c, 4, 43, 84
7, 54960, Note_on_c, 4, 50, 84
7, 54962, Note_on_c, 4, 55, 84
7, 55074, Note_on_c, 4, 43, 0
7, 55160, Note_on_c, 4, 50, 0
7, 55192, Note_on_c, 4, 55, 0
7, 55200, Note_on_c, 4, 45, 87
7, 55254, Note_on_c, 4, 52, 84
7, 55260, Note_on_c, 4, 57, 84
7, 55284, Note_on_c, 4, 45, 0
7, 55320, Note_on_c, 4, 45, 87
7, 55350, Note_on_c, 4, 52, 0
7, 55368, Note_on_c, 4, 57, 0
7, 55404, Note_on_c, 4, 45, 0
7, 55430, Note_on_c, 4, 45, 84
7, 55440, Note_on_c, 4, 52, 84
7, 55448, Note_on_c, 4, 57, 84
7, 55678, Note_on_c, 4, 45, 0
7, 55680, Note_on_c, 4, 52, 0
7, 55680, Note_on_c, 4, 57, 0
7, 55680, Note_on_c, 4, 40, 93
7, 55900, Note_on_c, 4, 59, 72
7, 55908, Note_on_c, 4, 64, 72
7, 55912, Note_on_c, 4, 67, 72
7, 55930, Note_on_c, 4, 40, 0
7, 56132, Note_on_c, 4, 59, 0
7, 56140, Note_on_c, 4, 64, 0
7, 56148, Note_on_c, 4, 67, 0
7, 56162, Note_on_c, 4, 40, 98
7, 56226, Note_on_c, 4, 40, 0
7, 56240, Note_on_c, 4, 59, 72
7, 56244, Note_on_c, 4, 64, 72
7, 56252, Note_on_c, 4, 59, 0
7, 56254, Note_on_c, 4, 64, 0
7, 56262, Note_on_c, 4, 40, 96
7, 56384, Note_on_c, 4, 59, 72
7, 56396, Note_on_c, 4, 64, 72
7, 56402, Note_on_c, 4, 67, 72
7, 56590, Note_on_c, 4, 40, 0
7, 56616, Note_on_c, 4, 59, 0
7, 56620, Note_on_c, 4, 64, 0
7, 56636, Note_on_c, 4, 67, 0
7, 56636, Note_on_c, 4, 43, 87
7, 56640, Note_on_c, 4, 50, 84
7, 56642, Note_on_c, 4, 55, 84
7, 56840, Note_on_c, 4, 43, 0
7, 56844, Note_on_c, 4, 50, 0
7, 56846, Note_on_c, 4, 55, 0
7, 56876, Note_on_c, 4, 43, 84
7, 56880, Note_on_c, 4, 50, 84
7, 56882, Note_on_c, 4, 55, 84
7, 56994, Note_on_c, 4, 43, 0
7, 57080, Note_on_c, 4, 50, 0
7, 57112, Note_on_c, 4, 55, 0
7, 57120, Note_on_c, 4, 45, 87
7, 57174, Note_on_c, 4, 52, 84
7, 57180, Note_on_c, 4, 57, 84
7, 57204, Note_on_c, 4, 45, 0
7, 57240, Note_on_c, 4, 45, 87
7, 57270, Note_on_c, 4, 52, 0
7, 57288, Note_on_c, 4, 57, 0
7, 57324, Note_on_c, 4, 45, 0
7, 57350, Note_on_c, 4, 45, 84
7, 57360, Note_on_c, 4, 52, 84
7, 57372, Note_on_c, 4, 57, 84
7, 57600, Note_on_c, 4, 45, 0
7, 57600, Note_on_c, 4, 52, 0
7, 57600, Note_on_c, 4, 57, 0
7, 57600, Note_on_c, 4, 40, 93
7, 57820, Note_on_c, 4, 59, 72
7, 57828, Note_on_c, 4, 64, 72
7, 57832, Note_on_c, 4, 67, 72
7, 57850, Note_on_c, 4, 40, 0
7, 58052, Note_on_c, 4, 59, 0
7, 58060, Note_on_c, 4, 64, 0
7, 58068, Note_on_c, 4, 67, 0
7, 58082, Note_on_c, 4, 40, 98
7, 58146, Note_on_c, 4, 40, 0
7, 58160, Note_on_c, 4, 59, 72
7, 58164, Note_on_c, 4, 64, 72
7, 58172, Note_on_c, 4, 59, 0
7, 58174, Note_on_c, 4, 64, 0
7, 58182, Note_on_c, 4, 40, 96
7, 58304, Note_on_c, 4, 59, 72
7, 58316, Note_on_c, 4, 64, 72
7, 58322, Note_on_c, 4, 67, 72
7, 58510, Note_on_c, 4, 40, 0
7, 58536, Note_on_c, 4, 59, 0
7, 58540, Note_on_c, 4, 64, 0
7, 58556, Note_on_c, 4, 67, 0
7, 58556, Note_on_c, 4, 43, 87
7, 58560, Note_on_c, 4, 50, 84
7, 58562, Note_on_c, 4, 55, 84
7, 58760, Note_on_c, 4, 43, 0
7, 58764, Note_on_c, 4, 50, 0
7, 58766, Note_on_c, 4, 55, 0
7, 58796, Note_on_c, 4, 43, 84
7, 58800, Note_on_c, 4, 50, 84
7, 58802, Note_on_c, 4, 55, 84
7, 58914, Note_on_c, 4, 43, 0
7, 59000, Note_on_c, 4, 50, 0
7, 59032, Note_on_c, 4, 55, 0
7, 59040, Note_on_c, 4, 45, 87
7, 59094, Note_on_c, 4, 52, 84
7, 59100, Note_on_c, 4, 57, 84
7, 59124, Note_on_c, 4, 45, 0
7, 59160, Note_on_c, 4, 45, 87
7, 59190, Note_on_c, 4, 52, 0
7, 59208, Note_on_c, 4, 57, 0
7, 59244, Note_on_c, 4, 45, 0
7, 59270, Note_on_c, 4, 45, 84
7, 59280, Note_on_c, 4, 52, 84
7, 59288, Note_on_c, 4, 57, 84
7, 59518, Note_on_c, 4, 45, 0
7, 59518, Note_on_c, 4, 52, 0
7, 59520, Note_on_c, 4, 57, 0
7, 59520, Note_on_c, 4, 40, 84
7, 59666, Note_on_c, 4, 40, 0
7, 60960, Note_on_c, 4, 54, 127
7, 61070, Note_on_c, 4, 54, 0
7, 61080, Note_on_c, 4, 52, 127
7, 61200, Note_on_c, 4, 50, 127
7, 61204, Note_on_c, 4, 52, 0
7, 61436, Note_on_c, 4, 50, 0
7, 61440, Note_on_c, 4, 57, 127
7, 61468, Pitch_bend_c, 4, 8712
7, 61472, Pitch_bend_c, 4, 9622
7, 61476, Pitch_bend_c, 4, 10402
7, 61480, Pitch_bend_c, 4, 11832
7, 61482, Pitch_bend_c, 4, 12872
7, 61486, Pitch_bend_c, 4, 13782
7, 61490, Pitch_bend_c, 4, 15212
7, 61492, Pitch_bend_c, 4, 15732
7, 61496, Pitch_bend_c, 4, 16252
7, 61500, Pitch_bend_c, 4, 16382
7, 61560, Note_on_c, 4, 60, 127
7, 61566, Note_on_c, 4, 57, 0
7, 61674, Control_c, 4, 1, 8
7, 61680, Control_c, 4, 1, 14
7, 61680, Note_on_c, 4, 65, 127
7, 61686, Control_c, 4, 1, 22
7, 61688, Note_on_c, 4, 60, 0
7, 61690, Control_c, 4, 1, 28
7, 61694, Control_c, 4, 1, 34
7, 61700, Control_c, 4, 1, 40
7, 61704, Control_c, 4, 1, 46
7, 61708, Control_c, 4, 1, 52
7, 61716, Control_c, 4, 1, 58
7, 61724, Control_c, 4, 1, 64
7, 61728, Control_c, 4, 1, 70
7, 61736, Control_c, 4, 1, 76
7, 61744, Control_c, 4, 1, 82
7, 61754, Control_c, 4, 1, 88
7, 61794, Control_c, 4, 1, 92
7, 61830, Control_c, 4, 1, 86
7, 61852, Note_on_c, 4, 65, 0
7, 61870, Control_c, 4, 1, 80
7, 61878, Pitch_bend_c, 4, 15732
7, 61880, Pitch_bend_c, 4, 15342
7, 61884, Pitch_bend_c, 4, 14822
7, 61888, Control_c, 4, 1, 74
7, 61888, Pitch_bend_c, 4, 13782
7, 61890, Pitch_bend_c, 4, 13002
7, 61894, Pitch_bend_c, 4, 11702
7, 61896, Control_c, 4, 1, 68
7, 61898, Pitch_bend_c, 4, 10662
7, 61902, Pitch_bend_c, 4, 9622
7, 61902, Control_c, 4, 1, 60
7, 61904, Pitch_bend_c, 4, 8972
7, 61906, Control_c, 4, 1, 54
7, 61908, Pitch_bend_c, 4, 8582
7, 61910, Control_c, 4, 1, 46
7, 61912, Pitch_bend_c, 4, 8192
7, 61914, Control_c, 4, 1, 38
7, 61916, Control_c, 4, 1, 30
7, 61920, Note_on_c, 4, 57, 127
7, 61920, Control_c, 4, 1, 20
7, 61924, Control_c, 4, 1, 6
7, 61930, Control_c, 4, 1, 0
7, 61936, Pitch_bend_c, 4, 8712
7, 61940, Pitch_bend_c, 4, 9362
7, 61942, Pitch_bend_c, 4, 10272
7, 61946, Pitch_bend_c, 4, 11702
7, 61950, Pitch_bend_c, 4, 13132
7, 61954, Pitch_bend_c, 4, 15342
7, 61956, Pitch_bend_c, 4, 15862
7, 61960, Pitch_bend_c, 4, 16252
7, 61964, Pitch_bend_c, 4, 16382
7, 62040, Note_on_c, 4, 60, 127
7, 62044, Note_on_c, 4, 57, 0
7, 62142, Control_c, 4, 1, 6
7, 62146, Control_c, 4, 1, 12
7, 62154, Control_c, 4, 1, 20
7, 62156, Control_c, 4, 1, 26
7, 62158, Note_on_c, 4, 60, 0
7, 62160, Note_on_c, 4, 65, 125
7, 62162, Control_c, 4, 1, 32
7, 62168, Control_c, 4, 1, 40
7, 62172, Control_c, 4, 1, 46
7, 62176, Control_c, 4, 1, 52
7, 62182, Control_c, 4, 1, 60
7, 62190, Control_c, 4, 1, 66
7, 62194, Control_c, 4, 1, 72
7, 62202, Control_c, 4, 1, 78
7, 62208, Control_c, 4, 1, 84
7, 62230, Control_c, 4, 1, 90
7, 62274, Control_c, 4, 1, 88
7, 62304, Control_c, 4, 1, 90
7, 62342, Control_c, 4, 1, 84
7, 62348, Control_c, 4, 1, 78
7, 62354, Control_c, 4, 1, 70
7, 62358, Control_c, 4, 1, 60
7, 62362, Note_on_c, 4, 65, 0
7, 62362, Control_c, 4, 1, 44
7, 62366, Control_c, 4, 1, 32
7, 62368, Control_c, 4, 1, 18
7, 62372, Control_c, 4, 1, 6
7, 62380, Control_c, 4, 1, 0
7, 62384, Pitch_bend_c, 4, 15732
7, 62388, Pitch_bend_c, 4, 14822
7, 62390, Pitch_bend_c, 4, 13262
7, 62394, Pitch_bend_c, 4, 10272
7, 62396, Pitch_bend_c, 4, 8712
7, 62398, Pitch_bend_c, 4, 8256
7, 62400, Note_on_c, 4, 57, 127
7, 62412, Pitch_bend_c, 4, 8576
7, 62416, Pitch_bend_c, 4, 8896
7, 62420, Pitch_bend_c, 4, 9280
7, 62424, Pitch_bend_c, 4, 9600
7, 62426, Pitch_bend_c, 4, 9984
7, 62430, Pitch_bend_c, 4, 10304
7, 62434, Pitch_bend_c, 4, 10752
7, 62436, Pitch_bend_c, 4, 11072
7, 62440, Pitch_bend_c, 4, 11392
7, 62444, Pitch_bend_c, 4, 11712
7, 62446, Pitch_bend_c, 4, 12096
7, 62450, Pitch_bend_c, 4, 12608
7, 62452, Pitch_bend_c, 4, 13120
7, 62456, Pitch_bend_c, 4, 13696
7, 62458, Pitch_bend_c, 4, 14528
7, 62460, Pitch_bend_c, 4, 15936
7, 62514, Note_on_c, 4, 57, 0
7, 62520, Note_on_c, 4, 60, 127
7, 62638, Note_on_c, 4, 60, 0
7, 62640, Note_on_c, 4, 65, 127
7, 62752, Pitch_bend_c, 4, 8256
7, 62758, Note_on_c, 4, 65, 0
7, 62760, Note_on_c, 4, 57, 127
7, 62824, Control_c, 4, 1, 2
7, 62826, Control_c, 4, 1, 8
7, 62830, Control_c, 4, 1, 14
7, 62832, Control_c, 4, 1, 20
7, 62836, Control_c, 4, 1, 28
7, 62840, Control_c, 4, 1, 34
7, 62844, Control_c, 4, 1, 42
7, 62854, Control_c, 4, 1, 48
7, 62890, Control_c, 4, 1, 54
7, 62920, Control_c, 4, 1, 60
7, 62930, Control_c, 4, 1, 62
7, 63138, Control_c, 4, 1, 56
7, 63146, Control_c, 4, 1, 50
7, 63150, Control_c, 4, 1, 44
7, 63152, Control_c, 4, 1, 38
7, 63156, Control_c, 4, 1, 16
7, 63158, Note_on_c, 4, 57, 0
7, 63160, Control_c, 4, 1, 8
7, 63164, Control_c, 4, 1, 0
7, 63360, Note_on_c, 4, 55, 123
7, 63470, Note_on_c, 4, 55, 0
7, 63480, Note_on_c, 4, 50, 127
7, 63576, Note_on_c, 4, 38, 90
7, 63612, Pitch_bend_c, 4, 8712
7, 63616, Pitch_bend_c, 4, 10012
7, 63620, Pitch_bend_c, 4, 10922
7, 63622, Pitch_bend_c, 4, 12352
7, 63626, Pitch_bend_c, 4, 13782
7, 63630, Pitch_bend_c, 4, 15602
7, 63632, Pitch_bend_c, 4, 15992
7, 63638, Pitch_bend_c, 4, 16382
7, 63668, Note_on_c, 4, 50, 0
7, 63712, Note_on_c, 4, 38, 0
7, 63714, Pitch_bend_c, 4, 15992
7, 63716, Pitch_bend_c, 4, 15472
7, 63720, Note_on_c, 4, 50, 127
7, 63720, Pitch_bend_c, 4, 13912
7, 63724, Pitch_bend_c, 4, 13002
7, 63726, Pitch_bend_c, 4, 11312
7, 63730, Pitch_bend_c, 4, 9882
7, 63734, Pitch_bend_c, 4, 9232
7, 63736, Pitch_bend_c, 4, 8712
7, 63742, Pitch_bend_c, 4, 8192
7, 63796, Pitch_bend_c, 4, 8582
7, 63798, Pitch_bend_c, 4, 10662
7, 63802, Pitch_bend_c, 4, 12352
7, 63804, Pitch_bend_c, 4, 14692
7, 63808, Pitch_bend_c, 4, 15472
7, 63810, Pitch_bend_c, 4, 16122
7, 63816, Pitch_bend_c, 4, 16382
7, 64002, Control_c, 4, 1, 6
7, 64010, Control_c, 4, 1, 14
7, 64014, Control_c, 4, 1, 20
7, 64018, Control_c, 4, 1, 26
7, 64030, Control_c, 4, 1, 32
7, 64042, Control_c, 4, 1, 38
7, 64048, Control_c, 4, 1, 44
7, 64060, Control_c, 4, 1, 50
7, 64074, Control_c, 4, 1, 52
7, 64190, Control_c, 4, 1, 46
7, 64194, Control_c, 4, 1, 40
7, 64198, Control_c, 4, 1, 34
7, 64202, Control_c, 4, 1, 24
7, 64208, Note_on_c, 4, 50, 0
7, 64208, Control_c, 4, 1, 12
7, 64212, Control_c, 4, 1, 2
7, 64212, Control_c, 4, 1, 0
7, 64320, Note_on_c, 4, 57, 127
7, 64332, Pitch_bend_c, 4, 8576
7, 64336, Pitch_bend_c, 4, 8896
7, 64340, Pitch_bend_c, 4, 9280
7, 64344, Pitch_bend_c, 4, 9600
7, 64346, Pitch_bend_c, 4, 9984
7, 64350, Pitch_bend_c, 4, 10304
7, 64354, Pitch_bend_c, 4, 10752
7, 64356, Pitch_bend_c, 4, 11072
7, 64360, Pitch_bend_c, 4, 11392
7, 64364, Pitch_bend_c, 4, 11712
7, 64366, Pitch_bend_c, 4, 12096
7, 64370, Pitch_bend_c, 4, 12608
7, 64372, Pitch_bend_c, 4, 13120
7, 64376, Pitch_bend_c, 4, 13696
7, 64378, Pitch_bend_c, 4, 14528
7, 64380, Pitch_bend_c, 4, 15936
7, 64438, Note_on_c, 4, 57, 0
7, 64440, Note_on_c, 4, 60, 127
7, 64560, Note_on_c, 4, 60, 0
7, 64560, Note_on_c, 4, 65, 127
7, 64670, Pitch_bend_c, 4, 15616
7, 64672, Pitch_bend_c, 4, 15104
7, 64674, Note_on_c, 4, 65, 0
7, 64676, Pitch_bend_c, 4, 14656
7, 64678, Pitch_bend_c, 4, 14144
7, 64680, Note_on_c, 4, 57, 127
7, 64682, Pitch_bend_c, 4, 13632
7, 64684, Pitch_bend_c, 4, 13184
7, 64688, Pitch_bend_c, 4, 12672
7, 64690, Pitch_bend_c, 4, 12288
7, 64694, Pitch_bend_c, 4, 11840
7, 64696, Pitch_bend_c, 4, 11456
7, 64700, Pitch_bend_c, 4, 11136
7, 64702, Pitch_bend_c, 4, 10624
7, 64706, Pitch_bend_c, 4, 10112
7, 64708, Pitch_bend_c, 4, 9792
7, 64712, Pitch_bend_c, 4, 9408
7, 64714, Pitch_bend_c, 4, 9024
7, 64718, Pitch_bend_c, 4, 8512
7, 64722, Pitch_bend_c, 4, 8256
7, 64746, Control_c, 4, 1, 8
7, 64750, Control_c, 4, 1, 14
7, 64752, Control_c, 4, 1, 20
7, 64756, Control_c, 4, 1, 28
7, 64760, Control_c, 4, 1, 34
7, 64764, Control_c, 4, 1, 42
7, 64774, Control_c, 4, 1, 48
7, 64810, Control_c, 4, 1, 54
7, 64840, Control_c, 4, 1, 60
7, 64850, Control_c, 4, 1, 62
7, 65058, Control_c, 4, 1, 56
7, 65066, Control_c, 4, 1, 50
7, 65070, Control_c, 4, 1, 44
7, 65072, Control_c, 4, 1, 38
7, 65076, Control_c, 4, 1, 16
7, 65078, Note_on_c, 4, 57, 0
7, 65080, Control_c, 4, 1, 8
7, 65084, Control_c, 4, 1, 0
7, 65280, Note_on_c, 4, 55, 123
7, 65390, Note_on_c, 4, 55, 0
7, 65400, Note_on_c, 4, 50, 127
7, 65502, Note_on_c, 4, 38, 90
7, 65532, Pitch_bend_c, 4, 8712
7, 65536, Pitch_bend_c, 4, 10012
7, 65540, Pitch_bend_c, 4, 10922
7, 65542, Pitch_bend_c, 4, 12352
7, 65546, Pitch_bend_c, 4, 13782
7, 65550, Pitch_bend_c, 4, 15602
7, 65552, Pitch_bend_c, 4, 15992
7, 65558, Pitch_bend_c, 4, 16382
7, 65608, Note_on_c, 4, 50, 0
7, 65634, Pitch_bend_c, 4, 15992
7, 65636, Pitch_bend_c, 4, 15472
7, 65640, Note_on_c, 4, 50, 127
7, 65640, Pitch_bend_c, 4, 13912
7, 65644, Pitch_bend_c, 4, 13002
7, 65646, Note_on_c, 4, 38, 0
7, 65646, Pitch_bend_c, 4, 11312
7, 65650, Pitch_bend_c, 4, 9882
7, 65654, Pitch_bend_c, 4, 9232
7, 65656, Pitch_bend_c, 4, 8712
7, 65662, Pitch_bend_c, 4, 8192
7, 65716, Pitch_bend_c, 4, 8582
7, 65718, Pitch_bend_c, 4, 10662
7, 65722, Pitch_bend_c, 4, 12352
7, 65724, Pitch_bend_c, 4, 14692
7, 65728, Pitch_bend_c, 4, 15472
7, 65730, Pitch_bend_c, 4, 16122
7, 65736, Pitch_bend_c, 4, 16382
7, 65922, Control_c, 4, 1, 6
7, 65930, Control_c, 4, 1, 14
7, 65934, Control_c, 4, 1, 20
7, 65938, Control_c, 4, 1, 26
7, 65950, Control_c, 4, 1, 32
7, 65962, Control_c, 4, 1, 38
7, 65968, Control_c, 4, 1, 44
7, 65980, Control_c, 4, 1, 50
7, 65994, Control_c, 4, 1, 52
7, 66000, Note_on_c, 4, 50, 0
7, 66000, Pitch_bend_c, 4, 8256
7, 66108, Note_on_c, 4, 50, 122
7, 66110, Control_c, 4, 1, 46
7, 66114, Control_c, 4, 1, 40
7, 66118, Control_c, 4, 1, 34
7, 66122, Control_c, 4, 1, 24
7, 66128, Control_c, 4, 1, 12
7, 66132, Pitch_bend_c, 4, 8582
7, 66132, Control_c, 4, 1, 2
7, 66132, Control_c, 4, 1, 0
7, 66134, Pitch_bend_c, 4, 9102
7, 66138, Pitch_bend_c, 4, 10272
7, 66142, Pitch_bend_c, 4, 11052
7, 66144, Pitch_bend_c, 4, 12612
7, 66150, Pitch_bend_c, 4, 14562
7, 66154, Pitch_bend_c, 4, 15862
7, 66158, Pitch_bend_c, 4, 16252
7, 66160, Pitch_bend_c, 4, 16382
7, 66214, Note_on_c, 4, 50, 0
7, 66220, Pitch_bend_c, 4, 15862
7, 66224, Pitch_bend_c, 4, 8256
7, 66224, Pitch_bend_c, 4, 13392
7, 66228, Pitch_bend_c, 4, 10532
7, 66230, Pitch_bend_c, 4, 8192
7, 66232, Pitch_bend_c, 4, 8064
7, 66234, Pitch_bend_c, 4, 8192
7, 66238, Pitch_bend_c, 4, 8582
7, 66240, Note_on_c, 4, 55, 113
7, 66240, Pitch_bend_c, 4, 8972
7, 66246, Pitch_bend_c, 4, 8452
7, 66246, Pitch_bend_c, 4, 8192
7, 66250, Pitch_bend_c, 4, 7936
7, 66256, Pitch_bend_c, 4, 8192
7, 66336, Note_on_c, 4, 55, 0
7, 66360, Note_on_c, 4, 57, 113
7, 66434, Note_on_c, 4, 57, 0
7, 66480, Note_on_c, 4, 59, 113
7, 66584, Note_on_c, 4, 59, 0
7, 66600, Note_on_c, 4, 53, 113
7, 66608, Pitch_bend_c, 4, 8712
7, 66612, Pitch_bend_c, 4, 9102
7, 66614, Pitch_bend_c, 4, 9622
7, 66618, Pitch_bend_c, 4, 10402
7, 66624, Pitch_bend_c, 4, 11312
7, 66628, Pitch_bend_c, 4, 12742
7, 66630, Pitch_bend_c, 4, 13522
7, 66634, Pitch_bend_c, 4, 14692
7, 66638, Pitch_bend_c, 4, 15472
7, 66640, Pitch_bend_c, 4, 15862
7, 66644, Pitch_bend_c, 4, 16252
7, 66646, Pitch_bend_c, 4, 16382
7, 66846, Pitch_bend_c, 4, 15992
7, 66848, Pitch_bend_c, 4, 15472
7, 66852, Pitch_bend_c, 4, 15082
7, 66856, Pitch_bend_c, 4, 14432
7, 66860, Pitch_bend_c, 4, 14042
7, 66864, Pitch_bend_c, 4, 13782
7, 66872, Pitch_bend_c, 4, 14172
7, 66878, Pitch_bend_c, 4, 15212
7, 66880, Pitch_bend_c, 4, 15732
7, 66884, Pitch_bend_c, 4, 16252
7, 66888, Pitch_bend_c, 4, 16382
7, 66906, Pitch_bend_c, 4, 15992
7, 66908, Pitch_bend_c, 4, 15602
7, 66912, Pitch_bend_c, 4, 14692
7, 66914, Pitch_bend_c, 4, 13912
7, 66918, Pitch_bend_c, 4, 13132
7, 66922, Pitch_bend_c, 4, 12742
7, 66924, Pitch_bend_c, 4, 12352
7, 66932, Pitch_bend_c, 4, 12872
7, 66936, Pitch_bend_c, 4, 13652
7, 66938, Pitch_bend_c, 4, 15212
7, 66942, Pitch_bend_c, 4, 15732
7, 66946, Pitch_bend_c, 4, 16252
7, 66950, Pitch_bend_c, 4, 16382
7, 66976, Pitch_bend_c, 4, 15732
7, 66980, Pitch_bend_c, 4, 15342
7, 66984, Pitch_bend_c, 4, 15082
7, 66992, Pitch_bend_c, 4, 15602
7, 66994, Pitch_bend_c, 4, 16122
7, 67000, Pitch_bend_c, 4, 16382
7, 67042, Pitch_bend_c, 4, 16252
7, 67046, Pitch_bend_c, 4, 16382
7, 67096, Pitch_bend_c, 4, 15992
7, 67100, Note_on_c, 4, 53, 0
7, 67106, Pitch_bend_c, 4, 16382
7, 67120, Pitch_bend_c, 4, 15992
7, 67124, Pitch_bend_c, 4, 13522
7, 67126, Pitch_bend_c, 4, 10532
7, 67130, Pitch_bend_c, 4, 7808
7, 67132, Pitch_bend_c, 4, 7552
7, 67136, Pitch_bend_c, 4, 7936
7, 67136, Pitch_bend_c, 4, 8192
7, 67140, Pitch_bend_c, 4, 8972
7, 67144, Pitch_bend_c, 4, 8582
7, 67146, Pitch_bend_c, 4, 8192
7, 67148, Pitch_bend_c, 4, 7808
7, 67156, Pitch_bend_c, 4, 8192
7, 67180, Note_on_c, 4, 53, 108
7, 67206, Pitch_bend_c, 4, 8712
7, 67210, Pitch_bend_c, 4, 9492
7, 67212, Pitch_bend_c, 4, 10402
7, 67216, Pitch_bend_c, 4, 11832
7, 67220, Pitch_bend_c, 4, 13002
7, 67222, Pitch_bend_c, 4, 14172
7, 67226, Pitch_bend_c, 4, 15472
7, 67228, Pitch_bend_c, 4, 15992
7, 67236, Pitch_bend_c, 4, 16382
7, 67314, Note_on_c, 4, 53, 0
7, 67320, Note_on_c, 4, 45, 122
7, 67322, Pitch_bend_c, 4, 14822
7, 67326, Pitch_bend_c, 4, 12742
7, 67330, Pitch_bend_c, 4, 8192
7, 67332, Pitch_bend_c, 4, 7296
7, 67336, Pitch_bend_c, 4, 7936
7, 67336, Pitch_bend_c, 4, 8192
7, 67340, Pitch_bend_c, 4, 8842
7, 67342, Pitch_bend_c, 4, 8972
7, 67346, Pitch_bend_c, 4, 8322
7, 67346, Pitch_bend_c, 4, 8192
7, 67350, Pitch_bend_c, 4, 7680
7, 67354, Pitch_bend_c, 4, 8064
7, 67356, Pitch_bend_c, 4, 8192
7, 67366, Pitch_bend_c, 4, 8064
7, 67368, Pitch_bend_c, 4, 8192
7, 67434, Note_on_c, 4, 45, 0
7, 67440, Note_on_c, 4, 40, 113
7, 67554, Note_on_c, 4, 40, 0
7, 67560, Note_on_c, 4, 43, 104
7, 67686, Pitch_bend_c, 4, 8582
7, 67694, Pitch_bend_c, 4, 8972
7, 67708, Pitch_bend_c, 4, 8582
7, 67714, Pitch_bend_c, 4, 8192
7, 67798, Pitch_bend_c, 4, 7808
7, 67802, Pitch_bend_c, 4, 7552
7, 67814, Pitch_bend_c, 4, 7936
7, 67818, Pitch_bend_c, 4, 8192
7, 67828, Pitch_bend_c, 4, 8582
7, 67832, Pitch_bend_c, 4, 9102
7, 67836, Pitch_bend_c, 4, 9622
7, 67838, Pitch_bend_c, 4, 10532
7, 67842, Pitch_bend_c, 4, 11052
7, 67844, Pitch_bend_c, 4, 11442
7, 67846, Pitch_bend_c, 4, 11572
7, 67856, Pitch_bend_c, 4, 11182
7, 67862, Pitch_bend_c, 4, 10662
7, 67864, Pitch_bend_c, 4, 10012
7, 67868, Pitch_bend_c, 4, 9622
7, 67870, Pitch_bend_c, 4, 9232
7, 67874, Pitch_bend_c, 4, 8842
7, 67878, Pitch_bend_c, 4, 8452
7, 67880, Pitch_bend_c, 4, 8322
7, 67892, Pitch_bend_c, 4, 8712
7, 67896, Pitch_bend_c, 4, 9492
7, 67898, Pitch_bend_c, 4, 9882
7, 67902, Pitch_bend_c, 4, 10792
7, 67906, Pitch_bend_c, 4, 11312
7, 67908, Pitch_bend_c, 4, 11832
7, 67912, Pitch_bend_c, 4, 12352
7, 67918, Pitch_bend_c, 4, 12612
7, 67924, Pitch_bend_c, 4, 12092
7, 67928, Pitch_bend_c, 4, 11702
7, 67932, Pitch_bend_c, 4, 11182
7, 67936, Pitch_bend_c, 4, 10792
7, 67938, Pitch_bend_c, 4, 9882
7, 67942, Pitch_bend_c, 4, 9492
7, 67944, Pitch_bend_c, 4, 9102
7, 67948, Pitch_bend_c, 4, 8712
7, 67954, Pitch_bend_c, 4, 8452
7, 67966, Pitch_bend_c, 4, 8842
7, 67970, Pitch_bend_c, 4, 10272
7, 67972, Pitch_bend_c, 4, 10662
7, 67976, Pitch_bend_c, 4, 11442
7, 67980, Pitch_bend_c, 4, 11832
7, 67982, Pitch_bend_c, 4, 12352
7, 67988, Pitch_bend_c, 4, 12612
7, 67998, Pitch_bend_c, 4, 12092
7, 68006, Pitch_bend_c, 4, 11572
7, 68008, Pitch_bend_c, 4, 11182
7, 68012, Pitch_bend_c, 4, 10792
7, 68016, Pitch_bend_c, 4, 9882
7, 68018, Pitch_bend_c, 4, 9492
7, 68020, Note_on_c, 4, 43, 0
7, 68022, Pitch_bend_c, 4, 8972
7, 68024, Pitch_bend_c, 4, 8582
7, 68030, Pitch_bend_c, 4, 8192
7, 68046, Note_on_c, 4, 45, 127
7, 68146, Note_on_c, 4, 45, 0
7, 68158, Note_on_c, 4, 45, 127
7, 68190, Pitch_bend_c, 4, 8842
7, 68192, Pitch_bend_c, 4, 9362
7, 68196, Pitch_bend_c, 4, 10922
7, 68198, Pitch_bend_c, 4, 11702
7, 68202, Pitch_bend_c, 4, 13522
7, 68206, Pitch_bend_c, 4, 14562
7, 68210, Pitch_bend_c, 4, 15862
7, 68212, Pitch_bend_c, 4, 16252
7, 68216, Pitch_bend_c, 4, 16382
7, 68254, Note_on_c, 4, 45, 0
7, 68284, Note_on_c, 4, 53, 122
7, 68370, Pitch_bend_c, 4, 15992
7, 68374, Pitch_bend_c, 4, 15212
7, 68378, Pitch_bend_c, 4, 14692
7, 68380, Pitch_bend_c, 4, 13002
7, 68384, Pitch_bend_c, 4, 11702
7, 68388, Pitch_bend_c, 4, 9752
7, 68390, Pitch_bend_c, 4, 9362
7, 68392, Note_on_c, 4, 53, 0
7, 68394, Pitch_bend_c, 4, 8582
7, 68396, Note_on_c, 4, 57, 122
7, 68398, Pitch_bend_c, 4, 8192
7, 68422, Pitch_bend_c, 4, 8582
7, 68424, Pitch_bend_c, 4, 9752
7, 68428, Pitch_bend_c, 4, 10662
7, 68430, Pitch_bend_c, 4, 12092
7, 68434, Pitch_bend_c, 4, 13912
7, 68438, Pitch_bend_c, 4, 15732
7, 68442, Pitch_bend_c, 4, 16122
7, 68444, Pitch_bend_c, 4, 16382
7, 68498, Pitch_bend_c, 4, 15992
7, 68500, Pitch_bend_c, 4, 15472
7, 68504, Pitch_bend_c, 4, 13652
7, 68508, Pitch_bend_c, 4, 11702
7, 68512, Note_on_c, 4, 57, 0
7, 68512, Pitch_bend_c, 4, 10012
7, 68516, Pitch_bend_c, 4, 9102
7, 68518, Pitch_bend_c, 4, 8192
7, 68518, Note_on_c, 4, 55, 125
7, 68524, Pitch_bend_c, 4, 7680
7, 68528, Pitch_bend_c, 4, 7296
7, 68530, Pitch_bend_c, 4, 7168
7, 68538, Pitch_bend_c, 4, 7552
7, 68542, Pitch_bend_c, 4, 7936
7, 68548, Pitch_bend_c, 4, 8192
7, 68552, Pitch_bend_c, 4, 8582
7, 68556, Pitch_bend_c, 4, 9752
7, 68558, Pitch_bend_c, 4, 11052
7, 68562, Pitch_bend_c, 4, 11962
7, 68564, Pitch_bend_c, 4, 14172
7, 68568, Pitch_bend_c, 4, 15212
7, 68570, Pitch_bend_c, 4, 15992
7, 68576, Pitch_bend_c, 4, 16382
7, 68708, Control_c, 4, 1, 6
7, 68716, Control_c, 4, 1, 12
7, 68726, Control_c, 4, 1, 18
7, 68740, Control_c, 4, 1, 26
7, 68754, Control_c, 4, 1, 32
7, 68772, Control_c, 4, 1, 38
7, 68788, Control_c, 4, 1, 44
7, 68802, Control_c, 4, 1, 50
7, 68836, Control_c, 4, 1, 56
7, 68850, Control_c, 4, 1, 62
7, 68870, Control_c, 4, 1, 68
7, 68874, Note_on_c, 4, 55, 0
7, 68880, Control_c, 4, 1, 1
7, 68880, Pitch_bend_c, 4, 8256
7, 68884, Note_on_c, 4, 55, 127
7, 68996, Note_on_c, 4, 55, 0
7, 68998, Note_on_c, 4, 50, 127
7, 69116, Note_on_c, 4, 57, 125
7, 69118, Note_on_c, 4, 50, 0
7, 69160, Pitch_bend_c, 4, 8712
7, 69162, Pitch_bend_c, 4, 9232
7, 69166, Pitch_bend_c, 4, 9752
7, 69170, Pitch_bend_c, 4, 11052
7, 69172, Pitch_bend_c, 4, 11962
7, 69176, Pitch_bend_c, 4, 13652
7, 69178, Pitch_bend_c, 4, 14952
7, 69186, Pitch_bend_c, 4, 15602
7, 69190, Pitch_bend_c, 4, 16382
7, 69238, Note_on_c, 4, 57, 0
7, 69250, Note_on_c, 4, 60, 126
7, 69318, Note_on_c, 4, 60, 0
7, 69368, Note_on_c, 4, 60, 127
7, 69448, Note_on_c, 4, 60, 0
7, 69466, Pitch_bend_c, 4, 15992
7, 69468, Pitch_bend_c, 4, 15472
7, 69472, Pitch_bend_c, 4, 14692
7, 69476, Pitch_bend_c, 4, 14042
7, 69478, Pitch_bend_c, 4, 13002
7, 69482, Pitch_bend_c, 4, 12352
7, 69486, Pitch_bend_c, 4, 10792
7, 69490, Pitch_bend_c, 4, 9882
7, 69492, Pitch_bend_c, 4, 9362
7, 69492, Note_on_c, 4, 62, 127
7, 69496, Pitch_bend_c, 4, 8972
7, 69500, Pitch_bend_c, 4, 8452
7, 69502, Pitch_bend_c, 4, 8192
7, 69534, Pitch_bend_c, 4, 8582
7, 69538, Pitch_bend_c, 4, 9102
7, 69540, Pitch_bend_c, 4, 10272
7, 69546, Pitch_bend_c, 4, 11442
7, 69550, Pitch_bend_c, 4, 13262
7, 69552, Pitch_bend_c, 4, 14172
7, 69556, Pitch_bend_c, 4, 15082
7, 69560, Pitch_bend_c, 4, 15862
7, 69564, Pitch_bend_c, 4, 16252
7, 69566, Pitch_bend_c, 4, 16382
7, 69642, Control_c, 4, 1, 6
7, 69648, Control_c, 4, 1, 12
7, 69652, Control_c, 4, 1, 18
7, 69660, Control_c, 4, 1, 24
7, 69666, Control_c, 4, 1, 30
7, 69672, Control_c, 4, 1, 36
7, 69682, Control_c, 4, 1, 42
7, 69690, Control_c, 4, 1, 48
7, 69698, Control_c, 4, 1, 54
7, 69706, Control_c, 4, 1, 60
7, 69716, Control_c, 4, 1, 66
7, 69748, Control_c, 4, 1, 72
7, 69836, Note_on_c, 4, 62, 0
7, 69840, Control_c, 4, 1, 0
7, 69846, Pitch_bend_c, 4, 8322
7, 69848, Pitch_bend_c, 4, 8712
7, 69852, Pitch_bend_c, 4, 9102
7, 69852, Note_on_c, 4, 50, 91
7, 69854, Pitch_bend_c, 4, 9752
7, 69858, Pitch_bend_c, 4, 10792
7, 69862, Pitch_bend_c, 4, 11702
7, 69866, Pitch_bend_c, 4, 13132
7, 69870, Pitch_bend_c, 4, 13782
7, 69874, Pitch_bend_c, 4, 15472
7, 69876, Pitch_bend_c, 4, 16122
7, 69880, Pitch_bend_c, 4, 16382
7, 69972, Note_on_c, 4, 45, 90
7, 69978, Note_on_c, 4, 50, 0
7, 69980, Pitch_bend_c, 4, 15992
7, 69982, Pitch_bend_c, 4, 15602
7, 69986, Pitch_bend_c, 4, 14692
7, 69990, Pitch_bend_c, 4, 14042
7, 69992, Pitch_bend_c, 4, 13782
7, 69992, Pitch_bend_c, 4, 16252
7, 69994, Pitch_bend_c, 4, 13132
7, 69994, Pitch_bend_c, 4, 15992
7, 69994, Pitch_bend_c, 4, 12742
7, 69996, Pitch_bend_c, 4, 15732
7, 69996, Pitch_bend_c, 4, 12352
7, 69998, Pitch_bend_c, 4, 14952
7, 69998, Pitch_bend_c, 4, 11832
7, 70000, Pitch_bend_c, 4, 14562
7, 70000, Pitch_bend_c, 4, 11442
7, 70000, Pitch_bend_c, 4, 14042
7, 70002, Pitch_bend_c, 4, 10012
7, 70004, Pitch_bend_c, 4, 13262
7, 70004, Pitch_bend_c, 4, 9752
7, 70004, Pitch_bend_c, 4, 13002
7, 70006, Pitch_bend_c, 4, 9492
7, 70006, Pitch_bend_c, 4, 11962
7, 70008, Pitch_bend_c, 4, 9232
7, 70008, Pitch_bend_c, 4, 11052
7, 70008, Pitch_bend_c, 4, 9102
7, 70010, Pitch_bend_c, 4, 10662
7, 70010, Pitch_bend_c, 4, 8712
7, 70012, Pitch_bend_c, 4, 10272
7, 70012, Pitch_bend_c, 4, 8582
7, 70014, Pitch_bend_c, 4, 9362
7, 70014, Pitch_bend_c, 4, 8452
7, 70016, Pitch_bend_c, 4, 9102
7, 70016, Pitch_bend_c, 4, 8322
7, 70016, Pitch_bend_c, 4, 8842
7, 70018, Pitch_bend_c, 4, 8192
7, 70024, Pitch_bend_c, 4, 7680
7, 70028, Pitch_bend_c, 4, 6272
7, 70032, Pitch_bend_c, 4, 5120
7, 70034, Pitch_bend_c, 4, 4096
7, 70038, Pitch_bend_c, 4, 3328
7, 70042, Pitch_bend_c, 4, 2048
7, 70046, Pitch_bend_c, 4, 896
7, 70050, Pitch_bend_c, 4, 128
7, 70050, Pitch_bend_c, 4, 0
7, 70078, Note_on_c, 4, 45, 0
7, 70078, Pitch_bend_c, 4, 8256
7, 70080, Note_on_c, 4, 40, 93
7, 70300, Note_on_c, 4, 59, 72
7, 70308, Note_on_c, 4, 64, 72
7, 70312, Note_on_c, 4, 67, 72
7, 70330, Note_on_c, 4, 40, 0
7, 70472, Note_on_c, 4, 59, 0
7, 70476, Note_on_c, 4, 64, 0
7, 70478, Note_on_c, 4, 67, 0
7, 70506, Note_on_c, 4, 59, 72
7, 70510, Note_on_c, 4, 64, 72
7, 70510, Note_on_c, 4, 67, 72
7, 70534, Note_on_c, 4, 59, 0
7, 70534, Note_on_c, 4, 64, 0
7, 70544, Note_on_c, 4, 67, 0
7, 70562, Note_on_c, 4, 40, 98
7, 70596, Note_on_c, 4, 40, 0
7, 70640, Note_on_c, 4, 59, 72
7, 70644, Note_on_c, 4, 64, 72
7, 70646, Note_on_c, 4, 67, 72
7, 70656, Note_on_c, 4, 59, 0
7, 70658, Note_on_c, 4, 64, 0
7, 70662, Note_on_c, 4, 40, 96
7, 70670, Note_on_c, 4, 67, 0
7, 70784, Note_on_c, 4, 59, 72
7, 70796, Note_on_c, 4, 64, 72
7, 70802, Note_on_c, 4, 67, 72
7, 70810, Note_on_c, 4, 40, 0
7, 71016, Note_on_c, 4, 59, 0
7, 71020, Note_on_c, 4, 64, 0
7, 71036, Note_on_c, 4, 67, 0
7, 71036, Note_on_c, 4, 43, 87
7, 71040, Note_on_c, 4, 50, 84
7, 71042, Note_on_c, 4, 55, 84
7, 71240, Note_on_c, 4, 43, 0
7, 71244, Note_on_c, 4, 50, 0
7, 71246, Note_on_c, 4, 55, 0
7, 71276, Note_on_c, 4, 43, 84
7, 71280, Note_on_c, 4, 50, 84
7, 71282, Note_on_c, 4, 55, 84
7, 71394, Note_on_c, 4, 43, 0
7, 71480, Note_on_c, 4, 50, 0
7, 71512, Note_on_c, 4, 55, 0
7, 71520, Note_on_c, 4, 45, 87
7, 71574, Note_on_c, 4, 52, 84
7, 71580, Note_on_c, 4, 57, 84
7, 71604, Note_on_c, 4, 45, 0
7, 71640, Note_on_c, 4, 45, 87
7, 71670, Note_on_c, 4, 52, 0
7, 71688, Note_on_c, 4, 57, 0
7, 71724, Note_on_c, 4, 45, 0
7, 71750, Note_on_c, 4, 45, 84
7, 71760, Note_on_c, 4, 52, 84
7, 71772, Note_on_c, 4, 57, 84
7, 71996, Note_on_c, 4, 52, 0
7, 71998, Note_on_c, 4, 45, 0
7, 72000, Note_on_c, 4, 57, 0
7, 72000, Note_on_c, 4, 40, 93
7, 72220, Note_on_c, 4, 59, 72
7, 72228, Note_on_c, 4, 64, 72
7, 72232, Note_on_c, 4, 67, 72
7, 72250, Note_on_c, 4, 40, 0
7, 72452, Note_on_c, 4, 59, 0
7, 72460, Note_on_c, 4, 64, 0
7, 72468, Note_on_c, 4, 67, 0
7, 72482, Note_on_c, 4, 40, 98
7, 72546, Note_on_c, 4, 40, 0
7, 72560, Note_on_c, 4, 59, 72
7, 72564, Note_on_c, 4, 64, 72
7, 72582, Note_on_c, 4, 40, 96
7, 72584, Note_on_c, 4, 59, 0
7, 72586, Note_on_c, 4, 64, 0
7, 72704, Note_on_c, 4, 59, 72
7, 72716, Note_on_c, 4, 64, 72
7, 72722, Note_on_c, 4, 67, 72
7, 72910, Note_on_c, 4, 40, 0
7, 72936, Note_on_c, 4, 59, 0
7, 72940, Note_on_c, 4, 64, 0
7, 72956, Note_on_c, 4, 67, 0
7, 72956, Note_on_c, 4, 43, 87
7, 72960, Note_on_c, 4, 50, 84
7, 72962, Note_on_c, 4, 55, 84
7, 73160, Note_on_c, 4, 43, 0
7, 73164, Note_on_c, 4, 50, 0
7, 73166, Note_on_c, 4, 55, 0
7, 73196, Note_on_c, 4, 43, 84
7, 73200, Note_on_c, 4, 50, 84
7, 73202, Note_on_c, 4, 55, 84
7, 73314, Note_on_c, 4, 43, 0
7, 73400, Note_on_c, 4, 50, 0
7, 73432, Note_on_c, 4, 55, 0
7, 73440, Note_on_c, 4, 45, 87
7, 73494, Note_on_c, 4, 52, 84
7, 73500, Note_on_c, 4, 57, 84
7, 73524, Note_on_c, 4, 45, 0
7, 73560, Note_on_c, 4, 45, 87
7, 73590, Note_on_c, 4, 52, 0
7, 73608, Note_on_c, 4, 57, 0
7, 73644, Note_on_c, 4, 45, 0
7, 73668, Note_on_c, 4, 45, 84
7, 73680, Note_on_c, 4, 57, 84
7, 73680, Note_on_c, 4, 52, 84
7, 73914, Note_on_c, 4, 45, 0
7, 73916, Note_on_c, 4, 52, 0
7, 73918, Note_on_c, 4, 57, 0
7, 73920, Note_on_c, 4, 40, 93
7, 74140, Note_on_c, 4, 59, 72
7, 74148, Note_on_c, 4, 64, 72
7, 74152, Note_on_c, 4, 67, 72
7, 74170, Note_on_c, 4, 40, 0
7, 74312, Note_on_c, 4, 59, 0
7, 74316, Note_on_c, 4, 64, 0
7, 74318, Note_on_c, 4, 67, 0
7, 74346, Note_on_c, 4, 59, 72
7, 74374, Note_on_c, 4, 59, 0
7, 74402, Note_on_c, 4, 40, 98
7, 74480, Note_on_c, 4, 59, 72
7, 74484, Note_on_c, 4, 40, 0
7, 74496, Note_on_c, 4, 59, 0
7, 74502, Note_on_c, 4, 40, 96
7, 74624, Note_on_c, 4, 59, 72
7, 74636, Note_on_c, 4, 64, 72
7, 74642, Note_on_c, 4, 67, 72
7, 74844, Note_on_c, 4, 40, 0
7, 74856, Note_on_c, 4, 59, 0
7, 74860, Note_on_c, 4, 64, 0
7, 74876, Note_on_c, 4, 67, 0
7, 74876, Note_on_c, 4, 43, 87
7, 74880, Note_on_c, 4, 50, 84
7, 74882, Note_on_c, 4, 55, 84
7, 75080, Note_on_c, 4, 43, 0
7, 75084, Note_on_c, 4, 50, 0
7, 75086, Note_on_c, 4, 55, 0
7, 75116, Note_on_c, 4, 43, 84
7, 75120, Note_on_c, 4, 50, 84
7, 75122, Note_on_c, 4, 55, 84
7, 75234, Note_on_c, 4, 43, 0
7, 75320, Note_on_c, 4, 50, 0
7, 75352, Note_on_c, 4, 55, 0
7, 75360, Note_on_c, 4, 45, 87
7, 75414, Note_on_c, 4, 52, 84
7, 75420, Note_on_c, 4, 57, 84
7, 75444, Note_on_c, 4, 45, 0
7, 75480, Note_on_c, 4, 45, 87
7, 75510, Note_on_c, 4, 52, 0
7, 75528, Note_on_c, 4, 57, 0
7, 75564, Note_on_c, 4, 45, 0
7, 75590, Note_on_c, 4, 45, 84
7, 75600, Note_on_c, 4, 52, 84
7, 75608, Note_on_c, 4, 57, 84
7, 75838, Note_on_c, 4, 45, 0
7, 75840, Note_on_c, 4, 52, 0
7, 75840, Note_on_c, 4, 57, 0
7, 75840, Note_on_c, 4, 40, 93
7, 76060, Note_on_c, 4, 59, 72
7, 76068, Note_on_c, 4, 64, 72
7, 76072, Note_on_c, 4, 67, 72
7, 76090, Note_on_c, 4, 40, 0
7, 76292, Note_on_c, 4, 59, 0
7, 76300, Note_on_c, 4, 64, 0
7, 76308, Note_on_c, 4, 67, 0
7, 76322, Note_on_c, 4, 40, 98
7, 76386, Note_on_c, 4, 40, 0
7, 76400, Note_on_c, 4, 59, 72
7, 76404, Note_on_c, 4, 64, 72
7, 76412, Note_on_c, 4, 59, 0
7, 76414, Note_on_c, 4, 64, 0
7, 76422, Note_on_c, 4, 40, 96
7, 76544, Note_on_c, 4, 59, 72
7, 76556, Note_on_c, 4, 64, 72
7, 76562, Note_on_c, 4, 67, 72
7, 76750, Note_on_c, 4, 40, 0
7, 76776, Note_on_c, 4, 59, 0
7, 76780, Note_on_c, 4, 64, 0
7, 76796, Note_on_c, 4, 67, 0
7, 76796, Note_on_c, 4, 43, 87
7, 76800, Note_on_c, 4, 50, 84
7, 76802, Note_on_c, 4, 55, 84
7, 77000, Note_on_c, 4, 43, 0
7, 77004, Note_on_c, 4, 50, 0
7, 77006, Note_on_c, 4, 55, 0
7, 77036, Note_on_c, 4, 43, 84
7, 77040, Note_on_c, 4, 50, 84
7, 77042, Note_on_c, 4, 55, 84
7, 77154, Note_on_c, 4, 43, 0
7, 77240, Note_on_c, 4, 50, 0
7, 77272, Note_on_c, 4, 55, 0
7, 77280, Note_on_c, 4, 45, 87
7, 77334, Note_on_c, 4, 52, 84
7, 77340, Note_on_c, 4, 57, 84
7, 77364, Note_on_c, 4, 45, 0
7, 77400, Note_on_c, 4, 45, 87
7, 77430, Note_on_c, 4, 52, 0
7, 77448, Note_on_c, 4, 57, 0
7, 77484, Note_on_c, 4, 45, 0
7, 77510, Note_on_c, 4, 45, 84
7, 77520, Note_on_c, 4, 52, 84
7, 77532, Note_on_c, 4, 57, 84
7, 77760, Note_on_c, 4, 45, 0
7, 77760, Note_on_c, 4, 52, 0
7, 77760, Note_on_c, 4, 57, 0
7, 77760, Note_on_c, 4, 40, 93
7, 77980, Note_on_c, 4, 59, 72
7, 77988, Note_on_c, 4, 64, 72
7, 77992, Note_on_c, 4, 67, 72
7, 78010, Note_on_c, 4, 40, 0
7, 78212, Note_on_c, 4, 59, 0
7, 78220, Note_on_c, 4, 64, 0
7, 78228, Note_on_c, 4, 67, 0
7, 78242, Note_on_c, 4, 40, 98
7, 78306, Note_on_c, 4, 40, 0
7, 78320, Note_on_c, 4, 59, 72
7, 78324, Note_on_c, 4, 64, 72
7, 78332, Note_on_c, 4, 59, 0
7, 78334, Note_on_c, 4, 64, 0
7, 78342, Note_on_c, 4, 40, 96
7, 78464, Note_on_c, 4, 59, 72
7, 78476, Note_on_c, 4, 64, 72
7, 78482, Note_on_c, 4, 67, 72
7, 78670, Note_on_c, 4, 40, 0
7, 78696, Note_on_c, 4, 59, 0
7, 78700, Note_on_c, 4, 64, 0
7, 78716, Note_on_c, 4, 67, 0
7, 78716, Note_on_c, 4, 43, 87
7, 78720, Note_on_c, 4, 50, 84
7, 78722, Note_on_c, 4, 55, 84
7, 78920, Note_on_c, 4, 43, 0
7, 78924, Note_on_c, 4, 50, 0
7, 78926, Note_on_c, 4, 55, 0
7, 78956, Note_on_c, 4, 43, 84
7, 78960, Note_on_c, 4, 50, 84
7, 78962, Note_on_c, 4, 55, 84
7, 79074, Note_on_c, 4, 43, 0
7, 79160, Note_on_c, 4, 50, 0
7, 79192, Note_on_c, 4, 55, 0
7, 79200, Note_on_c, 4, 45, 87
7, 79254, Note_on_c, 4, 52, 84
7, 79260, Note_on_c, 4, 57, 84
7, 79284, Note_on_c, 4, 45, 0
7, 79320, Note_on_c, 4, 45, 87
7, 79350, Note_on_c, 4, 52, 0
7, 79368, Note_on_c, 4, 57, 0
7, 79404, Note_on_c, 4, 45, 0
7, 79430, Note_on_c, 4, 45, 84
7, 79440, Note_on_c, 4, 52, 84
7, 79448, Note_on_c, 4, 57, 84
7, 79678, Note_on_c, 4, 45, 0
7, 79678, Note_on_c, 4, 52, 0
7, 79680, Note_on_c, 4, 57, 0
7, 79680, Note_on_c, 4, 40, 84
7, 79826, Note_on_c, 4, 40, 0
7, 81120, Note_on_c, 4, 54, 127
7, 81230, Note_on_c, 4, 54, 0
7, 81240, Note_on_c, 4, 52, 127
7, 81360, Note_on_c, 4, 50, 127
7, 81364, Note_on_c, 4, 52, 0
7, 81596, Note_on_c, 4, 50, 0
7, 81600, Note_on_c, 4, 57, 127
7, 81628, Pitch_bend_c, 4, 8712
7, 81632, Pitch_bend_c, 4, 9622
7, 81636, Pitch_bend_c, 4, 10402
7, 81640, Pitch_bend_c, 4, 11832
7, 81642, Pitch_bend_c, 4, 12872
7, 81646, Pitch_bend_c, 4, 13782
7, 81650, Pitch_bend_c, 4, 15212
7, 81652, Pitch_bend_c, 4, 15732
7, 81656, Pitch_bend_c, 4, 16252
7, 81660, Pitch_bend_c, 4, 16382
7, 81720, Note_on_c, 4, 60, 127
7, 81726, Note_on_c, 4, 57, 0
7, 81834, Control_c, 4, 1, 8
7, 81840, Control_c, 4, 1, 14
7, 81840, Note_on_c, 4, 65, 127
7, 81846, Control_c, 4, 1, 22
7, 81848, Note_on_c, 4, 60, 0
7, 81850, Control_c, 4, 1, 28
7, 81854, Control_c, 4, 1, 34
7, 81860, Control_c, 4, 1, 40
7, 81864, Control_c, 4, 1, 46
7, 81868, Control_c, 4, 1, 52
7, 81876, Control_c, 4, 1, 58
7, 81884, Control_c, 4, 1, 64
7, 81888, Control_c, 4, 1, 70
7, 81896, Control_c, 4, 1, 76
7, 81904, Control_c, 4, 1, 82
7, 81914, Control_c, 4, 1, 88
7, 81954, Control_c, 4, 1, 92
7, 81990, Control_c, 4, 1, 86
7, 82012, Note_on_c, 4, 65, 0
7, 82030, Control_c, 4, 1, 80
7, 82038, Pitch_bend_c, 4, 15732
7, 82040, Pitch_bend_c, 4, 15342
7, 82044, Pitch_bend_c, 4, 14822
7, 82048, Control_c, 4, 1, 74
7, 82048, Pitch_bend_c, 4, 13782
7, 82050, Pitch_bend_c, 4, 13002
7, 82054, Pitch_bend_c, 4, 11702
7, 82056, Control_c, 4, 1, 68
7, 82058, Pitch_bend_c, 4, 10662
7, 82062, Pitch_bend_c, 4, 9622
7, 82062, Control_c, 4, 1, 60
7, 82064, Pitch_bend_c, 4, 8972
7, 82066, Control_c, 4, 1, 54
7, 82068, Pitch_bend_c, 4, 8582
7, 82070, Control_c, 4, 1, 46
7, 82072, Pitch_bend_c, 4, 8192
7, 82074, Control_c, 4, 1, 38
7, 82076, Control_c, 4, 1, 30
7, 82080, Note_on_c, 4, 57, 127
7, 82080, Control_c, 4, 1, 20
7, 82084, Control_c, 4, 1, 6
7, 82090, Control_c, 4, 1, 0
7, 82096, Pitch_bend_c, 4, 8712
7, 82100, Pitch_bend_c, 4, 9362
7, 82102, Pitch_bend_c, 4, 10272
7, 82106, Pitch_bend_c, 4, 11702
7, 82110, Pitch_bend_c, 4, 13132
7, 82114, Pitch_bend_c, 4, 15342
7, 82116, Pitch_bend_c, 4, 15862
7, 82120, Pitch_bend_c, 4, 16252
7, 82124, Pitch_bend_c, 4, 16382
7, 82200, Note_on_c, 4, 60, 127
7, 82204, Note_on_c, 4, 57, 0
7, 82302, Control_c, 4, 1, 6
7, 82306, Control_c, 4, 1, 12
7, 82314, Control_c, 4, 1, 20
7, 82316, Control_c, 4, 1, 26
7, 82318, Note_on_c, 4, 60, 0
7, 82320, Note_on_c, 4, 65, 125
7, 82322, Control_c, 4, 1, 32
7, 82328, Control_c, 4, 1, 40
7, 82332, Control_c, 4, 1, 46
7, 82336, Control_c, 4, 1, 52
7, 82342, Control_c, 4, 1, 60
7, 82350, Control_c, 4, 1, 66
7, 82354, Control_c, 4, 1, 72
7, 82362, Control_c, 4, 1, 78
7, 82368, Control_c, 4, 1, 84
7, 82390, Control_c, 4, 1, 90
7, 82434, Control_c, 4, 1, 88
7, 82464, Control_c, 4, 1, 90
7, 82502, Control_c, 4, 1, 84
7, 82508, Control_c, 4, 1, 78
7, 82514, Control_c, 4, 1, 70
7, 82518, Control_c, 4, 1, 60
7, 82522, Note_on_c, 4, 65, 0
7, 82522, Control_c, 4, 1, 44
7, 82526, Control_c, 4, 1, 32
7, 82528, Control_c, 4, 1, 18
7, 82532, Control_c, 4, 1, 6
7, 82540, Control_c, 4, 1, 0
7, 82544, Pitch_bend_c, 4, 15732
7, 82548, Pitch_bend_c, 4, 14822
7, 82550, Pitch_bend_c, 4, 13262
7, 82554, Pitch_bend_c, 4, 10272
7, 82556, Pitch_bend_c, 4, 8712
7, 82558, Pitch_bend_c, 4, 8256
7, 82558, End_track
8, 0, Start_track
8, 0, Title_t, "6"
8, 0, Program_c, 5, 47
8, 0, Control_c, 5, 7, 100
8, 0, Note_on_c, 5, 46, 127
8, 92, Note_on_c, 5, 46, 0
8, 240, Note_on_c, 5, 58, 127
8, 360, Note_on_c, 5, 58, 0
8, 480, Note_on_c, 5, 46, 127
8, 602, Note_on_c, 5, 46, 0
8, 720, Note_on_c, 5, 58, 127
8, 840, Note_on_c, 5, 58, 0
8, 960, Note_on_c, 5, 46, 127
8, 1068, Note_on_c, 5, 46, 0
8, 1200, Note_on_c, 5, 58, 127
8, 1320, Note_on_c, 5, 58, 0
8, 1440, Note_on_c, 5, 46, 127
8, 1574, Note_on_c, 5, 46, 0
8, 1680, Note_on_c, 5, 58, 127
8, 1800, Note_on_c, 5, 58, 0
8, 1904, Note_on_c, 5, 57, 127
8, 1920, Note_on_c, 5, 57, 0
8, 1920, Note_on_c, 5, 57, 127
8, 1932, Pitch_bend_c, 5, 8576
8, 1936, Pitch_bend_c, 5, 8896
8, 1940, Pitch_bend_c, 5, 9280
8, 1944, Pitch_bend_c, 5, 9600
8, 1946, Pitch_bend_c, 5, 9984
8, 1950, Pitch_bend_c, 5, 10304
8, 1954, Pitch_bend_c, 5, 10752
8, 1956, Pitch_bend_c, 5, 11072
8, 1960, Pitch_bend_c, 5, 11392
8, 1964, Pitch_bend_c, 5, 11712
8, 1966, Pitch_bend_c, 5, 12096
8, 1970, Pitch_bend_c, 5, 12608
8, 1972, Pitch_bend_c, 5, 13120
8, 1976, Pitch_bend_c, 5, 13696
8, 1978, Pitch_bend_c, 5, 14528
8, 1980, Pitch_bend_c, 5, 15936
8, 2034, Note_on_c, 5, 57, 0
8, 2040, Note_on_c, 5, 60, 127
8, 2158, Note_on_c, 5, 60, 0
8, 2160, Note_on_c, 5, 65, 127
8, 2272, Pitch_bend_c, 5, 8256
8, 2278, Note_on_c, 5, 65, 0
8, 2280, Note_on_c, 5, 57, 127
8, 2344, Control_c, 5, 1, 2
8, 2346, Control_c, 5, 1, 8
8, 2350, Control_c, 5, 1, 14
8, 2352, Control_c, 5, 1, 20
8, 2356, Control_c, 5, 1, 28
8, 2360, Control_c, 5, 1, 34
8, 2364, Control_c, 5, 1, 42
8, 2374, Control_c, 5, 1, 48
8, 2410, Control_c, 5, 1, 54
8, 2440, Control_c, 5, 1, 60
8, 2450, Control_c, 5, 1, 62
8, 2658, Control_c, 5, 1, 56
8, 2666, Control_c, 5, 1, 50
8, 2670, Control_c, 5, 1, 44
8, 2672, Control_c, 5, 1, 38
8, 2676, Control_c, 5, 1, 16
8, 2678, Note_on_c, 5, 57, 0
8, 2680, Control_c, 5, 1, 8
8, 2684, Control_c, 5, 1, 0
8, 2880, Note_on_c, 5, 55, 123
8, 2990, Note_on_c, 5, 55, 0
8, 3000, Note_on_c, 5, 50, 127
8, 3096, Note_on_c, 5, 38, 90
8, 3132, Pitch_bend_c, 5, 8712
8, 3136, Pitch_bend_c, 5, 10012
8, 3140, Pitch_bend_c, 5, 10922
8, 3142, Pitch_bend_c, 5, 12352
8, 3146, Pitch_bend_c, 5, 13782
8, 3150, Pitch_bend_c, 5, 15602
8, 3152, Pitch_bend_c, 5, 15992
8, 3158, Pitch_bend_c, 5, 16382
8, 3188, Note_on_c, 5, 50, 0
8, 3232, Note_on_c, 5, 38, 0
8, 3234, Pitch_bend_c, 5, 15992
8, 3236, Pitch_bend_c, 5, 15472
8, 3240, Note_on_c, 5, 50, 127
8, 3240, Pitch_bend_c, 5, 13912
8, 3244, Pitch_bend_c, 5, 13002
8, 3246, Pitch_bend_c, 5, 11312
8, 3250, Pitch_bend_c, 5, 9882
8, 3254, Pitch_bend_c, 5, 9232
8, 3256, Pitch_bend_c, 5, 8712
8, 3262, Pitch_bend_c, 5, 8192
8, 3316, Pitch_bend_c, 5, 8582
8, 3318, Pitch_bend_c, 5, 10662
8, 3322, Pitch_bend_c, 5, 12352
8, 3324, Pitch_bend_c, 5, 14692
8, 3328, Pitch_bend_c, 5, 15472
8, 3330, Pitch_bend_c, 5, 16122
8, 3336, Pitch_bend_c, 5, 16382
8, 3522, Control_c, 5, 1, 6
8, 3530, Control_c, 5, 1, 14
8, 3534, Control_c, 5, 1, 20
8, 3538, Control_c, 5, 1, 26
8, 3550, Control_c, 5, 1, 32
8, 3562, Control_c, 5, 1, 38
8, 3568, Control_c, 5, 1, 44
8, 3580, Control_c, 5, 1, 50
8, 3594, Control_c, 5, 1, 52
8, 3710, Control_c, 5, 1, 46
8, 3714, Control_c, 5, 1, 40
8, 3718, Control_c, 5, 1, 34
8, 3722, Control_c, 5, 1, 24
8, 3728, Note_on_c, 5, 50, 0
8, 3728, Control_c, 5, 1, 12
8, 3732, Control_c, 5, 1, 2
8, 3732, Control_c, 5, 1, 0
8, 3840, Note_on_c, 5, 57, 127
8, 3852, Pitch_bend_c, 5, 8576
8, 3856, Pitch_bend_c, 5, 8896
8, 3860, Pitch_bend_c, 5, 9280
8, 3864, Pitch_bend_c, 5, 9600
8, 3866, Pitch_bend_c, 5, 9984
8, 3870, Pitch_bend_c, 5, 10304
8, 3874, Pitch_bend_c, 5, 10752
8, 3876, Pitch_bend_c, 5, 11072
8, 3880, Pitch_bend_c, 5, 11392
8, 3884, Pitch_bend_c, 5, 11712
8, 3886, Pitch_bend_c, 5, 12096
8, 3890, Pitch_bend_c, 5, 12608
8, 3892, Pitch_bend_c, 5, 13120
8, 3896, Pitch_bend_c, 5, 13696
8, 3898, Pitch_bend_c, 5, 14528
8, 3900, Pitch_bend_c, 5, 15936
8, 3958, Note_on_c, 5, 57, 0
8, 3960, Note_on_c, 5, 60, 127
8, 4080, Note_on_c, 5, 60, 0
8, 4080, Note_on_c, 5, 65, 127
8, 4190, Pitch_bend_c, 5, 15616
8, 4192, Pitch_bend_c, 5, 15104
8, 4194, Note_on_c, 5, 65, 0
8, 4196, Pitch_bend_c, 5, 14656
8, 4198, Pitch_bend_c, 5, 14144
8, 4200, Note_on_c, 5, 57, 127
8, 4202, Pitch_bend_c, 5, 13632
8, 4204, Pitch_bend_c, 5, 13184
8, 4208, Pitch_bend_c, 5, 12672
8, 4210, Pitch_bend_c, 5, 12288
8, 4214, Pitch_bend_c, 5, 11840
8, 4216, Pitch_bend_c, 5, 11456
8, 4220, Pitch_bend_c, 5, 11136
8, 4222, Pitch_bend_c, 5, 10624
8, 4226, Pitch_bend_c, 5, 10112
8, 4228, Pitch_bend_c, 5, 9792
8, 4232, Pitch_bend_c, 5, 9408
8, 4234, Pitch_bend_c, 5, 9024
8, 4238, Pitch_bend_c, 5, 8512
8, 4242, Pitch_bend_c, 5, 8256
8, 4266, Control_c, 5, 1, 8
8, 4270, Control_c, 5, 1, 14
8, 4272, Control_c, 5, 1, 20
8, 4276, Control_c, 5, 1, 28
8, 4280, Control_c, 5, 1, 34
8, 4284, Control_c, 5, 1, 42
8, 4294, Control_c, 5, 1, 48
8, 4330, Control_c, 5, 1, 54
8, 4360, Control_c, 5, 1, 60
8, 4370, Control_c, 5, 1, 62
8, 4578, Control_c, 5, 1, 56
8, 4586, Control_c, 5, 1, 50
8, 4590, Control_c, 5, 1, 44
8, 4592, Control_c, 5, 1, 38
8, 4596, Control_c, 5, 1, 16
8, 4598, Note_on_c, 5, 57, 0
8, 4600, Control_c, 5, 1, 8
8, 4604, Control_c, 5, 1, 0
8, 4800, Note_on_c, 5, 55, 123
8, 4910, Note_on_c, 5, 55, 0
8, 4920, Note_on_c, 5, 50, 127
8, 5022, Note_on_c, 5, 38, 90
8, 5052, Pitch_bend_c, 5, 8712
8, 5056, Pitch_bend_c, 5, 10012
8, 5060, Pitch_bend_c, 5, 10922
8, 5062, Pitch_bend_c, 5, 12352
8, 5066, Pitch_bend_c, 5, 13782
8, 5070, Pitch_bend_c, 5, 15602
8, 5072, Pitch_bend_c, 5, 15992
8, 5078, Pitch_bend_c, 5, 16382
8, 5128, Note_on_c, 5, 50, 0
8, 5154, Pitch_bend_c, 5, 15992
8, 5156, Pitch_bend_c, 5, 15472
8, 5160, Note_on_c, 5, 50, 127
8, 5160, Pitch_bend_c, 5, 13912
8, 5164, Pitch_bend_c, 5, 13002
8, 5166, Note_on_c, 5, 38, 0
8, 5166, Pitch_bend_c, 5, 11312
8, 5170, Pitch_bend_c, 5, 9882
8, 5174, Pitch_bend_c, 5, 9232
8, 5176, Pitch_bend_c, 5, 8712
8, 5182, Pitch_bend_c, 5, 8192
8, 5236, Pitch_bend_c, 5, 8582
8, 5238, Pitch_bend_c, 5, 10662
8, 5242, Pitch_bend_c, 5, 12352
8, 5244, Pitch_bend_c, 5, 14692
8, 5248, Pitch_bend_c, 5, 15472
8, 5250, Pitch_bend_c, 5, 16122
8, 5256, Pitch_bend_c, 5, 16382
8, 5442, Control_c, 5, 1, 6
8, 5450, Control_c, 5, 1, 14
8, 5454, Control_c, 5, 1, 20
8, 5458, Control_c, 5, 1, 26
8, 5470, Control_c, 5, 1, 32
8, 5482, Control_c, 5, 1, 38
8, 5488, Control_c, 5, 1, 44
8, 5500, Control_c, 5, 1, 50
8, 5514, Control_c, 5, 1, 52
8, 5520, Note_on_c, 5, 50, 0
8, 5520, Pitch_bend_c, 5, 8256
8, 5628, Note_on_c, 5, 50, 122
8, 5630, Control_c, 5, 1, 46
8, 5634, Control_c, 5, 1, 40
8, 5638, Control_c, 5, 1, 34
8, 5642, Control_c, 5, 1, 24
8, 5648, Control_c, 5, 1, 12
8, 5652, Pitch_bend_c, 5, 8582
8, 5652, Control_c, 5, 1, 2
8, 5652, Control_c, 5, 1, 0
8, 5654, Pitch_bend_c, 5, 9102
8, 5658, Pitch_bend_c, 5, 10272
8, 5662, Pitch_bend_c, 5, 11052
8, 5664, Pitch_bend_c, 5, 12612
8, 5670, Pitch_bend_c, 5, 14562
8, 5674, Pitch_bend_c, 5, 15862
8, 5678, Pitch_bend_c, 5, 16252
8, 5680, Pitch_bend_c, 5, 16382
8, 5734, Note_on_c, 5, 50, 0
8, 5740, Pitch_bend_c, 5, 15862
8, 5744, Pitch_bend_c, 5, 8256
8, 5744, Pitch_bend_c, 5, 13392
8, 5748, Pitch_bend_c, 5, 10532
8, 5750, Pitch_bend_c, 5, 8192
8, 5752, Pitch_bend_c, 5, 8064
8, 5754, Pitch_bend_c, 5, 8192
8, 5758, Pitch_bend_c, 5, 8582
8, 5760, Note_on_c, 5, 55, 113
8, 5760, Pitch_bend_c, 5, 8972
8, 5766, Pitch_bend_c, 5, 8452
8, 5766, Pitch_bend_c, 5, 8192
8, 5770, Pitch_bend_c, 5, 7936
8, 5776, Pitch_bend_c, 5, 8192
8, 5856, Note_on_c, 5, 55, 0
8, 5880, Note_on_c, 5, 57, 113
8, 5954, Note_on_c, 5, 57, 0
8, 6000, Note_on_c, 5, 59, 113
8, 6104, Note_on_c, 5, 59, 0
8, 6120, Note_on_c, 5, 53, 113
8, 6128, Pitch_bend_c, 5, 8712
8, 6132, Pitch_bend_c, 5, 9102
8, 6134, Pitch_bend_c, 5, 9622
8, 6138, Pitch_bend_c, 5, 10402
8, 6144, Pitch_bend_c, 5, 11312
8, 6148, Pitch_bend_c, 5, 12742
8, 6150, Pitch_bend_c, 5, 13522
8, 6154, Pitch_bend_c, 5, 14692
8, 6158, Pitch_bend_c, 5, 15472
8, 6160, Pitch_bend_c, 5, 15862
8, 6164, Pitch_bend_c, 5, 16252
8, 6166, Pitch_bend_c, 5, 16382
8, 6366, Pitch_bend_c, 5, 15992
8, 6368, Pitch_bend_c, 5, 15472
8, 6372, Pitch_bend_c, 5, 15082
8, 6376, Pitch_bend_c, 5, 14432
8, 6380, Pitch_bend_c, 5, 14042
8, 6384, Pitch_bend_c, 5, 13782
8, 6392, Pitch_bend_c, 5, 14172
8, 6398, Pitch_bend_c, 5, 15212
8, 6400, Pitch_bend_c, 5, 15732
8, 6404, Pitch_bend_c, 5, 16252
8, 6408, Pitch_bend_c, 5, 16382
8, 6426, Pitch_bend_c, 5, 15992
8, 6428, Pitch_bend_c, 5, 15602
8, 6432, Pitch_bend_c, 5, 14692
8, 6434, Pitch_bend_c, 5, 13912
8, 6438, Pitch_bend_c, 5, 13132
8, 6442, Pitch_bend_c, 5, 12742
8, 6444, Pitch_bend_c, 5, 12352
8, 6452, Pitch_bend_c, 5, 12872
8, 6456, Pitch_bend_c, 5, 13652
8, 6458, Pitch_bend_c, 5, 15212
8, 6462, Pitch_bend_c, 5, 15732
8, 6466, Pitch_bend_c, 5, 16252
8, 6470, Pitch_bend_c, 5, 16382
8, 6496, Pitch_bend_c, 5, 15732
8, 6500, Pitch_bend_c, 5, 15342
8, 6504, Pitch_bend_c, 5, 15082
8, 6512, Pitch_bend_c, 5, 15602
8, 6514, Pitch_bend_c, 5, 16122
8, 6520, Pitch_bend_c, 5, 16382
8, 6562, Pitch_bend_c, 5, 16252
8, 6566, Pitch_bend_c, 5, 16382
8, 6616, Pitch_bend_c, 5, 15992
8, 6620, Note_on_c, 5, 53, 0
8, 6626, Pitch_bend_c, 5, 16382
8, 6640, Pitch_bend_c, 5, 15992
8, 6644, Pitch_bend_c, 5, 13522
8, 6646, Pitch_bend_c, 5, 10532
8, 6650, Pitch_bend_c, 5, 7808
8, 6652, Pitch_bend_c, 5, 7552
8, 6656, Pitch_bend_c, 5, 7936
8, 6656, Pitch_bend_c, 5, 8192
8, 6660, Pitch_bend_c, 5, 8972
8, 6664, Pitch_bend_c, 5, 8582
8, 6666, Pitch_bend_c, 5, 8192
8, 6668, Pitch_bend_c, 5, 7808
8, 6676, Pitch_bend_c, 5, 8192
8, 6700, Note_on_c, 5, 53, 108
8, 6726, Pitch_bend_c, 5, 8712
8, 6730, Pitch_bend_c, 5, 9492
8, 6732, Pitch_bend_c, 5, 10402
8, 6736, Pitch_bend_c, 5, 11832
8, 6740, Pitch_bend_c, 5, 13002
8, 6742, Pitch_bend_c, 5, 14172
8, 6746, Pitch_bend_c, 5, 15472
8, 6748, Pitch_bend_c, 5, 15992
8, 6756, Pitch_bend_c, 5, 16382
8, 6834, Note_on_c, 5, 53, 0
8, 6840, Note_on_c, 5, 45, 122
8, 6842, Pitch_bend_c, 5, 14822
8, 6846, Pitch_bend_c, 5, 12742
8, 6850, Pitch_bend_c, 5, 8192
8, 6852, Pitch_bend_c, 5, 7296
8, 6856, Pitch_bend_c, 5, 7936
8, 6856, Pitch_bend_c, 5, 8192
8, 6860, Pitch_bend_c, 5, 8842
8, 6862, Pitch_bend_c, 5, 8972
8, 6866, Pitch_bend_c, 5, 8322
8, 6866, Pitch_bend_c, 5, 8192
8, 6870, Pitch_bend_c, 5, 7680
8, 6874, Pitch_bend_c, 5, 8064
8, 6876, Pitch_bend_c, 5, 8192
8, 6886, Pitch_bend_c, 5, 8064
8, 6888, Pitch_bend_c, 5, 8192
8, 6954, Note_on_c, 5, 45, 0
8, 6960, Note_on_c, 5, 40, 113
8, 7074, Note_on_c, 5, 40, 0
8, 7080, Note_on_c, 5, 43, 104
8, 7206, Pitch_bend_c, 5, 8582
8, 7214, Pitch_bend_c, 5, 8972
8, 7228, Pitch_bend_c, 5, 8582
8, 7234, Pitch_bend_c, 5, 8192
8, 7318, Pitch_bend_c, 5, 7808
8, 7322, Pitch_bend_c, 5, 7552
8, 7334, Pitch_bend_c, 5, 7936
8, 7338, Pitch_bend_c, 5, 8192
8, 7348, Pitch_bend_c, 5, 8582
8, 7352, Pitch_bend_c, 5, 9102
8, 7356, Pitch_bend_c, 5, 9622
8, 7358, Pitch_bend_c, 5, 10532
8, 7362, Pitch_bend_c, 5, 11052
8, 7364, Pitch_bend_c, 5, 11442
8, 7366, Pitch_bend_c, 5, 11572
8, 7376, Pitch_bend_c, 5, 11182
8, 7382, Pitch_bend_c, 5, 10662
8, 7384, Pitch_bend_c, 5, 10012
8, 7388, Pitch_bend_c, 5, 9622
8, 7390, Pitch_bend_c, 5, 9232
8, 7394, Pitch_bend_c, 5, 8842
8, 7398, Pitch_bend_c, 5, 8452
8, 7400, Pitch_bend_c, 5, 8322
8, 7412, Pitch_bend_c, 5, 8712
8, 7416, Pitch_bend_c, 5, 9492
8, 7418, Pitch_bend_c, 5, 9882
8, 7422, Pitch_bend_c, 5, 10792
8, 7426, Pitch_bend_c, 5, 11312
8, 7428, Pitch_bend_c, 5, 11832
8, 7432, Pitch_bend_c, 5, 12352
8, 7438, Pitch_bend_c, 5, 12612
8, 7444, Pitch_bend_c, 5, 12092
8, 7448, Pitch_bend_c, 5, 11702
8, 7452, Pitch_bend_c, 5, 11182
8, 7456, Pitch_bend_c, 5, 10792
8, 7458, Pitch_bend_c, 5, 9882
8, 7462, Pitch_bend_c, 5, 9492
8, 7464, Pitch_bend_c, 5, 9102
8, 7468, Pitch_bend_c, 5, 8712
8, 7474, Pitch_bend_c, 5, 8452
8, 7486, Pitch_bend_c, 5, 8842
8, 7490, Pitch_bend_c, 5, 10272
8, 7492, Pitch_bend_c, 5, 10662
8, 7496, Pitch_bend_c, 5, 11442
8, 7500, Pitch_bend_c, 5, 11832
8, 7502, Pitch_bend_c, 5, 12352
8, 7508, Pitch_bend_c, 5, 12612
8, 7518, Pitch_bend_c, 5, 12092
8, 7526, Pitch_bend_c, 5, 11572
8, 7528, Pitch_bend_c, 5, 11182
8, 7532, Pitch_bend_c, 5, 10792
8, 7536, Pitch_bend_c, 5, 9882
8, 7538, Pitch_bend_c, 5, 9492
8, 7540, Note_on_c, 5, 43, 0
8, 7542, Pitch_bend_c, 5, 8972
8, 7544, Pitch_bend_c, 5, 8582
8, 7550, Pitch_bend_c, 5, 8192
8, 7566, Note_on_c, 5, 45, 127
8, 7666, Note_on_c, 5, 45, 0
8, 7678, Note_on_c, 5, 45, 127
8, 7710, Pitch_bend_c, 5, 8842
8, 7712, Pitch_bend_c, 5, 9362
8, 7716, Pitch_bend_c, 5, 10922
8, 7718, Pitch_bend_c, 5, 11702
8, 7722, Pitch_bend_c, 5, 13522
8, 7726, Pitch_bend_c, 5, 14562
8, 7730, Pitch_bend_c, 5, 15862
8, 7732, Pitch_bend_c, 5, 16252
8, 7736, Pitch_bend_c, 5, 16382
8, 7774, Note_on_c, 5, 45, 0
8, 7804, Note_on_c, 5, 53, 122
8, 7890, Pitch_bend_c, 5, 15992
8, 7894, Pitch_bend_c, 5, 15212
8, 7898, Pitch_bend_c, 5, 14692
8, 7900, Pitch_bend_c, 5, 13002
8, 7904, Pitch_bend_c, 5, 11702
8, 7908, Pitch_bend_c, 5, 9752
8, 7910, Pitch_bend_c, 5, 9362
8, 7912, Note_on_c, 5, 53, 0
8, 7914, Pitch_bend_c, 5, 8582
8, 7916, Note_on_c, 5, 57, 122
8, 7918, Pitch_bend_c, 5, 8192
8, 7942, Pitch_bend_c, 5, 8582
8, 7944, Pitch_bend_c, 5, 9752
8, 7948, Pitch_bend_c, 5, 10662
8, 7950, Pitch_bend_c, 5, 12092
8, 7954, Pitch_bend_c, 5, 13912
8, 7958, Pitch_bend_c, 5, 15732
8, 7962, Pitch_bend_c, 5, 16122
8, 7964, Pitch_bend_c, 5, 16382
8, 8018, Pitch_bend_c, 5, 15992
8, 8020, Pitch_bend_c, 5, 15472
8, 8024, Pitch_bend_c, 5, 13652
8, 8028, Pitch_bend_c, 5, 11702
8, 8032, Note_on_c, 5, 57, 0
8, 8032, Pitch_bend_c, 5, 10012
8, 8036, Pitch_bend_c, 5, 9102
8, 8038, Pitch_bend_c, 5, 8192
8, 8038, Note_on_c, 5, 55, 125
8, 8044, Pitch_bend_c, 5, 7680
8, 8048, Pitch_bend_c, 5, 7296
8, 8050, Pitch_bend_c, 5, 7168
8, 8058, Pitch_bend_c, 5, 7552
8, 8062, Pitch_bend_c, 5, 7936
8, 8068, Pitch_bend_c, 5, 8192
8, 8072, Pitch_bend_c, 5, 8582
8, 8076, Pitch_bend_c, 5, 9752
8, 8078, Pitch_bend_c, 5, 11052
8, 8082, Pitch_bend_c, 5, 11962
8, 8084, Pitch_bend_c, 5, 14172
8, 8088, Pitch_bend_c, 5, 15212
8, 8090, Pitch_bend_c, 5, 15992
8, 8096, Pitch_bend_c, 5, 16382
8, 8228, Control_c, 5, 1, 6
8, 8236, Control_c, 5, 1, 12
8, 8246, Control_c, 5, 1, 18
8, 8260, Control_c, 5, 1, 26
8, 8274, Control_c, 5, 1, 32
8, 8292, Control_c, 5, 1, 38
8, 8308, Control_c, 5, 1, 44
8, 8322, Control_c, 5, 1, 50
8, 8356, Control_c, 5, 1, 56
8, 8370, Control_c, 5, 1, 62
8, 8390, Control_c, 5, 1, 68
8, 8394, Note_on_c, 5, 55, 0
8, 8400, Control_c, 5, 1, 1
8, 8400, Pitch_bend_c, 5, 8256
8, 8404, Note_on_c, 5, 55, 127
8, 8516, Note_on_c, 5, 55, 0
8, 8518, Note_on_c, 5, 50, 127
8, 8636, Note_on_c, 5, 57, 125
8, 8638, Note_on_c, 5, 50, 0
8, 8680, Pitch_bend_c, 5, 8712
8, 8682, Pitch_bend_c, 5, 9232
8, 8686, Pitch_bend_c, 5, 9752
8, 8690, Pitch_bend_c, 5, 11052
8, 8692, Pitch_bend_c, 5, 11962
8, 8696, Pitch_bend_c, 5, 13652
8, 8698, Pitch_bend_c, 5, 14952
8, 8706, Pitch_bend_c, 5, 15602
8, 8710, Pitch_bend_c, 5, 16382
8, 8758, Note_on_c, 5, 57, 0
8, 8770, Note_on_c, 5, 60, 126
8, 8838, Note_on_c, 5, 60, 0
8, 8888, Note_on_c, 5, 60, 127
8, 8968, Note_on_c, 5, 60, 0
8, 8986, Pitch_bend_c, 5, 15992
8, 8988, Pitch_bend_c, 5, 15472
8, 8992, Pitch_bend_c, 5, 14692
8, 8996, Pitch_bend_c, 5, 14042
8, 8998, Pitch_bend_c, 5, 13002
8, 9002, Pitch_bend_c, 5, 12352
8, 9006, Pitch_bend_c, 5, 10792
8, 9010, Pitch_bend_c, 5, 9882
8, 9012, Pitch_bend_c, 5, 9362
8, 9012, Note_on_c, 5, 62, 127
8, 9016, Pitch_bend_c, 5, 8972
8, 9020, Pitch_bend_c, 5, 8452
8, 9022, Pitch_bend_c, 5, 8192
8, 9054, Pitch_bend_c, 5, 8582
8, 9058, Pitch_bend_c, 5, 9102
8, 9060, Pitch_bend_c, 5, 10272
8, 9066, Pitch_bend_c, 5, 11442
8, 9070, Pitch_bend_c, 5, 13262
8, 9072, Pitch_bend_c, 5, 14172
8, 9076, Pitch_bend_c, 5, 15082
8, 9080, Pitch_bend_c, 5, 15862
8, 9084, Pitch_bend_c, 5, 16252
8, 9086, Pitch_bend_c, 5, 16382
8, 9162, Control_c, 5, 1, 6
8, 9168, Control_c, 5, 1, 12
8, 9172, Control_c, 5, 1, 18
8, 9180, Control_c, 5, 1, 24
8, 9186, Control_c, 5, 1, 30
8, 9192, Control_c, 5, 1, 36
8, 9202, Control_c, 5, 1, 42
8, 9210, Control_c, 5, 1, 48
8, 9218, Control_c, 5, 1, 54
8, 9226, Control_c, 5, 1, 60
8, 9236, Control_c, 5, 1, 66
8, 9268, Control_c, 5, 1, 72
8, 9356, Note_on_c, 5, 62, 0
8, 9360, Control_c, 5, 1, 0
8, 9366, Pitch_bend_c, 5, 8322
8, 9368, Pitch_bend_c, 5, 8712
8, 9372, Pitch_bend_c, 5, 9102
8, 9372, Note_on_c, 5, 50, 91
8, 9374, Pitch_bend_c, 5, 9752
8, 9378, Pitch_bend_c, 5, 10792
8, 9382, Pitch_bend_c, 5, 11702
8, 9386, Pitch_bend_c, 5, 13132
8, 9390, Pitch_bend_c, 5, 13782
8, 9394, Pitch_bend_c, 5, 15472
8, 9396, Pitch_bend_c, 5, 16122
8, 9400, Pitch_bend_c, 5, 16382
8, 9492, Note_on_c, 5, 45, 90
8, 9498, Note_on_c, 5, 50, 0
8, 9500, Pitch_bend_c, 5, 15992
8, 9502, Pitch_bend_c, 5, 15602
8, 9506, Pitch_bend_c, 5, 14692
8, 9510, Pitch_bend_c, 5, 14042
8, 9512, Pitch_bend_c, 5, 13782
8, 9512, Pitch_bend_c, 5, 16252
8, 9514, Pitch_bend_c, 5, 13132
8, 9514, Pitch_bend_c, 5, 15992
8, 9514, Pitch_bend_c, 5, 12742
8, 9516, Pitch_bend_c, 5, 15732
8, 9516, Pitch_bend_c, 5, 12352
8, 9518, Pitch_bend_c, 5, 14952
8, 9518, Pitch_bend_c, 5, 11832
8, 9520, Pitch_bend_c, 5, 14562
8, 9520, Pitch_bend_c, 5, 11442
8, 9520, Pitch_bend_c, 5, 14042
8, 9522, Pitch_bend_c, 5, 10012
8, 9524, Pitch_bend_c, 5, 13262
8, 9524, Pitch_bend_c, 5, 9752
8, 9524, Pitch_bend_c, 5, 13002
8, 9526, Pitch_bend_c, 5, 9492
8, 9526, Pitch_bend_c, 5, 11962
8, 9528, Pitch_bend_c, 5, 9232
8, 9528, Pitch_bend_c, 5, 11052
8, 9528, Pitch_bend_c, 5, 9102
8, 9530, Pitch_bend_c, 5, 10662
8, 9530, Pitch_bend_c, 5, 8712
8, 9532, Pitch_bend_c, 5, 10272
8, 9532, Pitch_bend_c, 5, 8582
8, 9534, Pitch_bend_c, 5, 9362
8, 9534, Pitch_bend_c, 5, 8452
8, 9536, Pitch_bend_c, 5, 9102
8, 9536, Pitch_bend_c, 5, 8322
8, 9536, Pitch_bend_c, 5, 8842
8, 9538, Pitch_bend_c, 5, 8192
8, 9544, Pitch_bend_c, 5, 7680
8, 9548, Pitch_bend_c, 5, 6272
8, 9552, Pitch_bend_c, 5, 5120
8, 9554, Pitch_bend_c, 5, 4096
8, 9558, Pitch_bend_c, 5, 3328
8, 9562, Pitch_bend_c, 5, 2048
8, 9566, Pitch_bend_c, 5, 896
8, 9570, Pitch_bend_c, 5, 128
8, 9570, Pitch_bend_c, 5, 0
8, 9598, Note_on_c, 5, 45, 0
8, 9598, Pitch_bend_c, 5, 8256
8, 9600, Note_on_c, 5, 40, 93
8, 9820, Note_on_c, 5, 59, 72
8, 9828, Note_on_c, 5, 64, 72
8, 9832, Note_on_c, 5, 67, 72
8, 9850, Note_on_c, 5, 40, 0
8, 9992, Note_on_c, 5, 59, 0
8, 9996, Note_on_c, 5, 64, 0
8, 9998, Note_on_c, 5, 67, 0
8, 10026, Note_on_c, 5, 59, 72
8, 10030, Note_on_c, 5, 64, 72
8, 10030, Note_on_c, 5, 67, 72
8, 10054, Note_on_c, 5, 59, 0
8, 10054, Note_on_c, 5, 64, 0
8, 10064, Note_on_c, 5, 67, 0
8, 10082, Note_on_c, 5, 40, 98
8, 10116, Note_on_c, 5, 40, 0
8, 10160, Note_on_c, 5, 59, 72
8, 10164, Note_on_c, 5, 64, 72
8, 10166, Note_on_c, 5, 67, 72
8, 10176, Note_on_c, 5, 59, 0
8, 10178, Note_on_c, 5, 64, 0
8, 10182, Note_on_c, 5, 40, 96
8, 10190, Note_on_c, 5, 67, 0
8, 10304, Note_on_c, 5, 59, 72
8, 10316, Note_on_c, 5, 64, 72
8, 10322, Note_on_c, 5, 67, 72
8, 10330, Note_on_c, 5, 40, 0
8, 10536, Note_on_c, 5, 59, 0
8, 10540, Note_on_c, 5, 64, 0
8, 10556, Note_on_c, 5, 67, 0
8, 10556, Note_on_c, 5, 43, 87
8, 10560, Note_on_c, 5, 50, 84
8, 10562, Note_on_c, 5, 55, 84
8, 10760, Note_on_c, 5, 43, 0
8, 10764, Note_on_c, 5, 50, 0
8, 10766, Note_on_c, 5, 55, 0
8, 10796, Note_on_c, 5, 43, 84
8, 10800, Note_on_c, 5, 50, 84
8, 10802, Note_on_c, 5, 55, 84
8, 10914, Note_on_c, 5, 43, 0
8, 11000, Note_on_c, 5, 50, 0
8, 11032, Note_on_c, 5, 55, 0
8, 11040, Note_on_c, 5, 45, 87
8, 11094, Note_on_c, 5, 52, 84
8, 11100, Note_on_c, 5, 57, 84
8, 11124, Note_on_c, 5, 45, 0
8, 11160, Note_on_c, 5, 45, 87
8, 11190, Note_on_c, 5, 52, 0
8, 11208, Note_on_c, 5, 57, 0
8, 11244, Note_on_c, 5, 45, 0
8, 11270, Note_on_c, 5, 45, 84
8, 11280, Note_on_c, 5, 52, 84
8, 11292, Note_on_c, 5, 57, 84
8, 11516, Note_on_c, 5, 52, 0
8, 11518, Note_on_c, 5, 45, 0
8, 11520, Note_on_c, 5, 57, 0
8, 11520, Note_on_c, 5, 40, 93
8, 11740, Note_on_c, 5, 59, 72
8, 11748, Note_on_c, 5, 64, 72
8, 11752, Note_on_c, 5, 67, 72
8, 11770, Note_on_c, 5, 40, 0
8, 11972, Note_on_c, 5, 59, 0
8, 11980, Note_on_c, 5, 64, 0
8, 11988, Note_on_c, 5, 67, 0
8, 12002, Note_on_c, 5, 40, 98
8, 12066, Note_on_c, 5, 40, 0
8, 12080, Note_on_c, 5, 59, 72
8, 12084, Note_on_c, 5, 64, 72
8, 12102, Note_on_c, 5, 40, 96
8, 12104, Note_on_c, 5, 59, 0
8, 12106, Note_on_c, 5, 64, 0
8, 12224, Note_on_c, 5, 59, 72
8, 12236, Note_on_c, 5, 64, 72
8, 12242, Note_on_c, 5, 67, 72
8, 12430, Note_on_c, 5, 40, 0
8, 12456, Note_on_c, 5, 59, 0
8, 12460, Note_on_c, 5, 64, 0
8, 12476, Note_on_c, 5, 67, 0
8, 12476, Note_on_c, 5, 43, 87
8, 12480, Note_on_c, 5, 50, 84
8, 12482, Note_on_c, 5, 55, 84
8, 12680, Note_on_c, 5, 43, 0
8, 12684, Note_on_c, 5, 50, 0
8, 12686, Note_on_c, 5, 55, 0
8, 12716, Note_on_c, 5, 43, 84
8, 12720, Note_on_c, 5, 50, 84
8, 12722, Note_on_c, 5, 55, 84
8, 12834, Note_on_c, 5, 43, 0
8, 12920, Note_on_c, 5, 50, 0
8, 12952, Note_on_c, 5, 55, 0
8, 12960, Note_on_c, 5, 45, 87
8, 13014, Note_on_c, 5, 52, 84
8, 13020, Note_on_c, 5, 57, 84
8, 13044, Note_on_c, 5, 45, 0
8, 13080, Note_on_c, 5, 45, 87
8, 13110, Note_on_c, 5, 52, 0
8, 13128, Note_on_c, 5, 57, 0
8, 13164, Note_on_c, 5, 45, 0
8, 13188, Note_on_c, 5, 45, 84
8, 13200, Note_on_c, 5, 57, 84
8, 13200, Note_on_c, 5, 52, 84
8, 13434, Note_on_c, 5, 45, 0
8, 13436, Note_on_c, 5, 52, 0
8, 13438, Note_on_c, 5, 57, 0
8, 13440, Note_on_c, 5, 40, 93
8, 13660, Note_on_c, 5, 59, 72
8, 13668, Note_on_c, 5, 64, 72
8, 13672, Note_on_c, 5, 67, 72
8, 13690, Note_on_c, 5, 40, 0
8, 13832, Note_on_c, 5, 59, 0
8, 13836, Note_on_c, 5, 64, 0
8, 13838, Note_on_c, 5, 67, 0
8, 13866, Note_on_c, 5, 59, 72
8, 13894, Note_on_c, 5, 59, 0
8, 13922, Note_on_c, 5, 40, 98
8, 14000, Note_on_c, 5, 59, 72
8, 14004, Note_on_c, 5, 40, 0
8, 14016, Note_on_c, 5, 59, 0
8, 14022, Note_on_c, 5, 40, 96
8, 14144, Note_on_c, 5, 59, 72
8, 14156, Note_on_c, 5, 64, 72
8, 14162, Note_on_c, 5, 67, 72
8, 14364, Note_on_c, 5, 40, 0
8, 14376, Note_on_c, 5, 59, 0
8, 14380, Note_on_c, 5, 64, 0
8, 14396, Note_on_c, 5, 67, 0
8, 14396, Note_on_c, 5, 43, 87
8, 14400, Note_on_c, 5, 50, 84
8, 14402, Note_on_c, 5, 55, 84
8, 14600, Note_on_c, 5, 43, 0
8, 14604, Note_on_c, 5, 50, 0
8, 14606, Note_on_c, 5, 55, 0
8, 14636, Note_on_c, 5, 43, 84
8, 14640, Note_on_c, 5, 50, 84
8, 14642, Note_on_c, 5, 55, 84
8, 14754, Note_on_c, 5, 43, 0
8, 14840, Note_on_c, 5, 50, 0
8, 14872, Note_on_c, 5, 55, 0
8, 14880, Note_on_c, 5, 45, 87
8, 14934, Note_on_c, 5, 52, 84
8, 14940, Note_on_c, 5, 57, 84
8, 14964, Note_on_c, 5, 45, 0
8, 15000, Note_on_c, 5, 45, 87
8, 15030, Note_on_c, 5, 52, 0
8, 15048, Note_on_c, 5, 57, 0
8, 15084, Note_on_c, 5, 45, 0
8, 15110, Note_on_c, 5, 45, 84
8, 15120, Note_on_c, 5, 52, 84
8, 15128, Note_on_c, 5, 57, 84
8, 15358, Note_on_c, 5, 45, 0
8, 15360, Note_on_c, 5, 52, 0
8, 15360, Note_on_c, 5, 57, 0
8, 15360, Note_on_c, 5, 40, 93
8, 15580, Note_on_c, 5, 59, 72
8, 15588, Note_on_c, 5, 64, 72
8, 15592, Note_on_c, 5, 67, 72
8, 15610, Note_on_c, 5, 40, 0
8, 15812, Note_on_c, 5, 59, 0
8, 15820, Note_on_c, 5, 64, 0
8, 15828, Note_on_c, 5, 67, 0
8, 15842, Note_on_c, 5, 40, 98
8, 15906, Note_on_c, 5, 40, 0
8, 15920, Note_on_c, 5, 59, 72
8, 15924, Note_on_c, 5, 64, 72
8, 15932, Note_on_c, 5, 59, 0
8, 15934, Note_on_c, 5, 64, 0
8, 15942, Note_on_c, 5, 40, 96
8, 16064, Note_on_c, 5, 59, 72
8, 16076, Note_on_c, 5, 64, 72
8, 16082, Note_on_c, 5, 67, 72
8, 16270, Note_on_c, 5, 40, 0
8, 16296, Note_on_c, 5, 59, 0
8, 16300, Note_on_c, 5, 64, 0
8, 16316, Note_on_c, 5, 67, 0
8, 16316, Note_on_c, 5, 43, 87
8, 16320, Note_on_c, 5, 50, 84
8, 16322, Note_on_c, 5, 55, 84
8, 16520, Note_on_c, 5, 43, 0
8, 16524, Note_on_c, 5, 50, 0
8, 16526, Note_on_c, 5, 55, 0
8, 16556, Note_on_c, 5, 43, 84
8, 16560, Note_on_c, 5, 50, 84
8, 16562, Note_on_c, 5, 55, 84
8, 16674, Note_on_c, 5, 43, 0
8, 16760, Note_on_c, 5, 50, 0
8, 16792, Note_on_c, 5, 55, 0
8, 16800, Note_on_c, 5, 45, 87
8, 16854, Note_on_c, 5, 52, 84
8, 16860, Note_on_c, 5, 57, 84
8, 16884, Note_on_c, 5, 45, 0
8, 16920, Note_on_c, 5, 45, 87
8, 16950, Note_on_c, 5, 52, 0
8, 16968, Note_on_c, 5, 57, 0
8, 17004, Note_on_c, 5, 45, 0
8, 17030, Note_on_c, 5, 45, 84
8, 17040, Note_on_c, 5, 52, 84
8, 17052, Note_on_c, 5, 57, 84
8, 17280, Note_on_c, 5, 45, 0
8, 17280, Note_on_c, 5, 52, 0
8, 17280, Note_on_c, 5, 57, 0
8, 17280, Note_on_c, 5, 40, 93
8, 17500, Note_on_c, 5, 59, 72
8, 17508, Note_on_c, 5, 64, 72
8, 17512, Note_on_c, 5, 67, 72
8, 17530, Note_on_c, 5, 40, 0
8, 17732, Note_on_c, 5, 59, 0
8, 17740, Note_on_c, 5, 64, 0
8, 17748, Note_on_c, 5, 67, 0
8, 17762, Note_on_c, 5, 40, 98
8, 17826, Note_on_c, 5, 40, 0
8, 17840, Note_on_c, 5, 59, 72
8, 17844, Note_on_c, 5, 64, 72
8, 17852, Note_on_c, 5, 59, 0
8, 17854, Note_on_c, 5, 64, 0
8, 17862, Note_on_c, 5, 40, 96
8, 17984, Note_on_c, 5, 59, 72
8, 17996, Note_on_c, 5, 64, 72
8, 18002, Note_on_c, 5, 67, 72
8, 18190, Note_on_c, 5, 40, 0
8, 18216, Note_on_c, 5, 59, 0
8, 18220, Note_on_c, 5, 64, 0
8, 18236, Note_on_c, 5, 67, 0
8, 18236, Note_on_c, 5, 43, 87
8, 18240, Note_on_c, 5, 50, 84
8, 18242, Note_on_c, 5, 55, 84
8, 18440, Note_on_c, 5, 43, 0
8, 18444, Note_on_c, 5, 50, 0
8, 18446, Note_on_c, 5, 55, 0
8, 18476, Note_on_c, 5, 43, 84
8, 18480, Note_on_c, 5, 50, 84
8, 18482, Note_on_c, 5, 55, 84
8, 18594, Note_on_c, 5, 43, 0
8, 18680, Note_on_c, 5, 50, 0
8, 18712, Note_on_c, 5, 55, 0
8, 18720, Note_on_c, 5, 45, 87
8, 18774, Note_on_c, 5, 52, 84
8, 18780, Note_on_c, 5, 57, 84
8, 18804, Note_on_c, 5, 45, 0
8, 18840, Note_on_c, 5, 45, 87
8, 18870, Note_on_c, 5, 52, 0
8, 18888, Note_on_c, 5, 57, 0
8, 18924, Note_on_c, 5, 45, 0
8, 18950, Note_on_c, 5, 45, 84
8, 18960, Note_on_c, 5, 52, 84
8, 18968, Note_on_c, 5, 57, 84
8, 19198, Note_on_c, 5, 45, 0
8, 19198, Note_on_c, 5, 52, 0
8, 19200, Note_on_c, 5, 57, 0
8, 19200, Note_on_c, 5, 40, 84
8, 19346, Note_on_c, 5, 40, 0
8, 20640, Note_on_c, 5, 54, 127
8, 20750, Note_on_c, 5, 54, 0
8, 20760, Note_on_c, 5, 52, 127
8, 20880, Note_on_c, 5, 50, 127
8, 20884, Note_on_c, 5, 52, 0
8, 21116, Note_on_c, 5, 50, 0
8, 21120, Note_on_c, 5, 57, 127
8, 21148, Pitch_bend_c, 5, 8712
8, 21152, Pitch_bend_c, 5, 9622
8, 21156, Pitch_bend_c, 5, 10402
8, 21160, Pitch_bend_c, 5, 11832
8, 21162, Pitch_bend_c, 5, 12872
8, 21166, Pitch_bend_c, 5, 13782
8, 21170, Pitch_bend_c, 5, 15212
8, 21172, Pitch_bend_c, 5, 15732
8, 21176, Pitch_bend_c, 5, 16252
8, 21180, Pitch_bend_c, 5, 16382
8, 21240, Note_on_c, 5, 60, 127
8, 21246, Note_on_c, 5, 57, 0
8, 21354, Control_c, 5, 1, 8
8, 21360, Control_c, 5, 1, 14
8, 21360, Note_on_c, 5, 65, 127
8, 21366, Control_c, 5, 1, 22
8, 21368, Note_on_c, 5, 60, 0
8, 21370, Control_c, 5, 1, 28
8, 21374, Control_c, 5, 1, 34
8, 21380, Control_c, 5, 1, 40
8, 21384, Control_c, 5, 1, 46
8, 21388, Control_c, 5, 1, 52
8, 21396, Control_c, 5, 1, 58
8, 21404, Control_c, 5, 1, 64
8, 21408, Control_c, 5, 1, 70
8, 21416, Control_c, 5, 1, 76
8, 21424, Control_c, 5, 1, 82
8, 21434, Control_c, 5, 1, 88
8, 21474, Control_c, 5, 1, 92
8, 21510, Control_c, 5, 1, 86
8, 21532, Note_on_c, 5, 65, 0
8, 21550, Control_c, 5, 1, 80
8, 21558, Pitch_bend_c, 5, 15732
8, 21560, Pitch_bend_c, 5, 15342
8, 21564, Pitch_bend_c, 5, 14822
8, 21568, Control_c, 5, 1, 74
8, 21568, Pitch_bend_c, 5, 13782
8, 21570, Pitch_bend_c, 5, 13002
8, 21574, Pitch_bend_c, 5, 11702
8, 21576, Control_c, 5, 1, 68
8, 21578, Pitch_bend_c, 5, 10662
8, 21582, Pitch_bend_c, 5, 9622
8, 21582, Control_c, 5, 1, 60
8, 21584, Pitch_bend_c, 5, 8972
8, 21586, Control_c, 5, 1, 54
8, 21588, Pitch_bend_c, 5, 8582
8, 21590, Control_c, 5, 1, 46
8, 21592, Pitch_bend_c, 5, 8192
8, 21594, Control_c, 5, 1, 38
8, 21596, Control_c, 5, 1, 30
8, 21600, Note_on_c, 5, 57, 127
8, 21600, Control_c, 5, 1, 20
8, 21604, Control_c, 5, 1, 6
8, 21610, Control_c, 5, 1, 0
8, 21616, Pitch_bend_c, 5, 8712
8, 21620, Pitch_bend_c, 5, 9362
8, 21622, Pitch_bend_c, 5, 10272
8, 21626, Pitch_bend_c, 5, 11702
8, 21630, Pitch_bend_c, 5, 13132
8, 21634, Pitch_bend_c, 5, 15342
8, 21636, Pitch_bend_c, 5, 15862
8, 21640, Pitch_bend_c, 5, 16252
8, 21644, Pitch_bend_c, 5, 16382
8, 21720, Note_on_c, 5, 60, 127
8, 21724, Note_on_c, 5, 57, 0
8, 21822, Control_c, 5, 1, 6
8, 21826, Control_c, 5, 1, 12
8, 21834, Control_c, 5, 1, 20
8, 21836, Control_c, 5, 1, 26
8, 21838, Note_on_c, 5, 60, 0
8, 21840, Note_on_c, 5, 65, 125
8, 21842, Control_c, 5, 1, 32
8, 21848, Control_c, 5, 1, 40
8, 21852, Control_c, 5, 1, 46
8, 21856, Control_c, 5, 1, 52
8, 21862, Control_c, 5, 1, 60
8, 21870, Control_c, 5, 1, 66
8, 21874, Control_c, 5, 1, 72
8, 21882, Control_c, 5, 1, 78
8, 21888, Control_c, 5, 1, 84
8, 21910, Control_c, 5, 1, 90
8, 21954, Control_c, 5, 1, 88
8, 21984, Control_c, 5, 1, 90
8, 22022, Control_c, 5, 1, 84
8, 22028, Control_c, 5, 1, 78
8, 22034, Control_c, 5, 1, 70
8, 22038, Control_c, 5, 1, 60
8, 22042, Note_on_c, 5, 65, 0
8, 22042, Control_c, 5, 1, 44
8, 22046, Control_c, 5, 1, 32
8, 22048, Control_c, 5, 1, 18
8, 22052, Control_c, 5, 1, 6
8, 22060, Control_c, 5, 1, 0
8, 22064, Pitch_bend_c, 5, 15732
8, 22068, Pitch_bend_c, 5, 14822
8, 22070, Pitch_bend_c, 5, 13262
8, 22074, Pitch_bend_c, 5, 10272
8, 22076, Pitch_bend_c, 5, 8712
8, 22078, Pitch_bend_c, 5, 8256
8, 22080, Note_on_c, 5, 57, 127
8, 22092, Pitch_bend_c, 5, 8576
8, 22096, Pitch_bend_c, 5, 8896
8, 22100, Pitch_bend_c, 5, 9280
8, 22104, Pitch_bend_c, 5, 9600
8, 22106, Pitch_bend_c, 5, 9984
8, 22110, Pitch_bend_c, 5, 10304
8, 22114, Pitch_bend_c, 5, 10752
8, 22116, Pitch_bend_c, 5, 11072
8, 22120, Pitch_bend_c, 5, 11392
8, 22124, Pitch_bend_c, 5, 11712
8, 22126, Pitch_bend_c, 5, 12096
8, 22130, Pitch_bend_c, 5, 12608
8, 22132, Pitch_bend_c, 5, 13120
8, 22136, Pitch_bend_c, 5, 13696
8, 22138, Pitch_bend_c, 5, 14528
8, 22140, Pitch_bend_c, 5, 15936
8, 22194, Note_on_c, 5, 57, 0
8, 22200, Note_on_c, 5, 60, 127
8, 22318, Note_on_c, 5, 60, 0
8, 22320, Note_on_c, 5, 65, 127
8, 22432, Pitch_bend_c, 5, 8256
8, 22438, Note_on_c, 5, 65, 0
8, 22440, Note_on_c, 5, 57, 127
8, 22504, Control_c, 5, 1, 2
8, 22506, Control_c, 5, 1, 8
8, 22510, Control_c, 5, 1, 14
8, 22512, Control_c, 5, 1, 20
8, 22516, Control_c, 5, 1, 28
8, 22520, Control_c, 5, 1, 34
8, 22524, Control_c, 5, 1, 42
8, 22534, Control_c, 5, 1, 48
8, 22570, Control_c, 5, 1, 54
8, 22600, Control_c, 5, 1, 60
8, 22610, Control_c, 5, 1, 62
8, 22818, Control_c, 5, 1, 56
8, 22826, Control_c, 5, 1, 50
8, 22830, Control_c, 5, 1, 44
8, 22832, Control_c, 5, 1, 38
8, 22836, Control_c, 5, 1, 16
8, 22838, Note_on_c, 5, 57, 0
8, 22840, Control_c, 5, 1, 8
8, 22844, Control_c, 5, 1, 0
8, 23040, Note_on_c, 5, 55, 123
8, 23150, Note_on_c, 5, 55, 0
8, 23160, Note_on_c, 5, 50, 127
8, 23256, Note_on_c, 5, 38, 90
8, 23292, Pitch_bend_c, 5, 8712
8, 23296, Pitch_bend_c, 5, 10012
8, 23300, Pitch_bend_c, 5, 10922
8, 23302, Pitch_bend_c, 5, 12352
8, 23306, Pitch_bend_c, 5, 13782
8, 23310, Pitch_bend_c, 5, 15602
8, 23312, Pitch_bend_c, 5, 15992
8, 23318, Pitch_bend_c, 5, 16382
8, 23348, Note_on_c, 5, 50, 0
8, 23392, Note_on_c, 5, 38, 0
8, 23394, Pitch_bend_c, 5, 15992
8, 23396, Pitch_bend_c, 5, 15472
8, 23400, Note_on_c, 5, 50, 127
8, 23400, Pitch_bend_c, 5, 13912
8, 23404, Pitch_bend_c, 5, 13002
8, 23406, Pitch_bend_c, 5, 11312
8, 23410, Pitch_bend_c, 5, 9882
8, 23414, Pitch_bend_c, 5, 9232
8, 23416, Pitch_bend_c, 5, 8712
8, 23422, Pitch_bend_c, 5, 8192
8, 23476, Pitch_bend_c, 5, 8582
8, 23478, Pitch_bend_c, 5, 10662
8, 23482, Pitch_bend_c, 5, 12352
8, 23484, Pitch_bend_c, 5, 14692
8, 23488, Pitch_bend_c, 5, 15472
8, 23490, Pitch_bend_c, 5, 16122
8, 23496, Pitch_bend_c, 5, 16382
8, 23682, Control_c, 5, 1, 6
8, 23690, Control_c, 5, 1, 14
8, 23694, Control_c, 5, 1, 20
8, 23698, Control_c, 5, 1, 26
8, 23710, Control_c, 5, 1, 32
8, 23722, Control_c, 5, 1, 38
8, 23728, Control_c, 5, 1, 44
8, 23740, Control_c, 5, 1, 50
8, 23754, Control_c, 5, 1, 52
8, 23870, Control_c, 5, 1, 46
8, 23874, Control_c, 5, 1, 40
8, 23878, Control_c, 5, 1, 34
8, 23882, Control_c, 5, 1, 24
8, 23888, Note_on_c, 5, 50, 0
8, 23888, Control_c, 5, 1, 12
8, 23892, Control_c, 5, 1, 2
8, 23892, Control_c, 5, 1, 0
8, 24000, Note_on_c, 5, 57, 127
8, 24012, Pitch_bend_c, 5, 8576
8, 24016, Pitch_bend_c, 5, 8896
8, 24020, Pitch_bend_c, 5, 9280
8, 24024, Pitch_bend_c, 5, 9600
8, 24026, Pitch_bend_c, 5, 9984
8, 24030, Pitch_bend_c, 5, 10304
8, 24034, Pitch_bend_c, 5, 10752
8, 24036, Pitch_bend_c, 5, 11072
8, 24040, Pitch_bend_c, 5, 11392
8, 24044, Pitch_bend_c, 5, 11712
8, 24046, Pitch_bend_c, 5, 12096
8, 24050, Pitch_bend_c, 5, 12608
8, 24052, Pitch_bend_c, 5, 13120
8, 24056, Pitch_bend_c, 5, 13696
8, 24058, Pitch_bend_c, 5, 14528
8, 24060, Pitch_bend_c, 5, 15936
8, 24118, Note_on_c, 5, 57, 0
8, 24120, Note_on_c, 5, 60, 127
8, 24240, Note_on_c, 5, 60, 0
8, 24240, Note_on_c, 5, 65, 127
8, 24350, Pitch_bend_c, 5, 15616
8, 24352, Pitch_bend_c, 5, 15104
8, 24354, Note_on_c, 5, 65, 0
8, 24356, Pitch_bend_c, 5, 14656
8, 24358, Pitch_bend_c, 5, 14144
8, 24360, Note_on_c, 5, 57, 127
8, 24362, Pitch_bend_c, 5, 13632
8, 24364, Pitch_bend_c, 5, 13184
8, 24368, Pitch_bend_c, 5, 12672
8, 24370, Pitch_bend_c, 5, 12288
8, 24374, Pitch_bend_c, 5, 11840
8, 24376, Pitch_bend_c, 5, 11456
8, 24380, Pitch_bend_c, 5, 11136
8, 24382, Pitch_bend_c, 5, 10624
8, 24386, Pitch_bend_c, 5, 10112
8, 24388, Pitch_bend_c, 5, 9792
8, 24392, Pitch_bend_c, 5, 9408
8, 24394, Pitch_bend_c, 5, 9024
8, 24398, Pitch_bend_c, 5, 8512
8, 24402, Pitch_bend_c, 5, 8256
8, 24426, Control_c, 5, 1, 8
8, 24430, Control_c, 5, 1, 14
8, 24432, Control_c, 5, 1, 20
8, 24436, Control_c, 5, 1, 28
8, 24440, Control_c, 5, 1, 34
8, 24444, Control_c, 5, 1, 42
8, 24454, Control_c, 5, 1, 48
8, 24490, Control_c, 5, 1, 54
8, 24520, Control_c, 5, 1, 60
8, 24530, Control_c, 5, 1, 62
8, 24738, Control_c, 5, 1, 56
8, 24746, Control_c, 5, 1, 50
8, 24750, Control_c, 5, 1, 44
8, 24752, Control_c, 5, 1, 38
8, 24756, Control_c, 5, 1, 16
8, 24758, Note_on_c, 5, 57, 0
8, 24760, Control_c, 5, 1, 8
8, 24764, Control_c, 5, 1, 0
8, 24960, Note_on_c, 5, 55, 123
8, 25070, Note_on_c, 5, 55, 0
8, 25080, Note_on_c, 5, 50, 127
8, 25182, Note_on_c, 5, 38, 90
8, 25212, Pitch_bend_c, 5, 8712
8, 25216, Pitch_bend_c, 5, 10012
8, 25220, Pitch_bend_c, 5, 10922
8, 25222, Pitch_bend_c, 5, 12352
8, 25226, Pitch_bend_c, 5, 13782
8, 25230, Pitch_bend_c, 5, 15602
8, 25232, Pitch_bend_c, 5, 15992
8, 25238, Pitch_bend_c, 5, 16382
8, 25288, Note_on_c, 5, 50, 0
8, 25314, Pitch_bend_c, 5, 15992
8, 25316, Pitch_bend_c, 5, 15472
8, 25320, Note_on_c, 5, 50, 127
8, 25320, Pitch_bend_c, 5, 13912
8, 25324, Pitch_bend_c, 5, 13002
8, 25326, Note_on_c, 5, 38, 0
8, 25326, Pitch_bend_c, 5, 11312
8, 25330, Pitch_bend_c, 5, 9882
8, 25334, Pitch_bend_c, 5, 9232
8, 25336, Pitch_bend_c, 5, 8712
8, 25342, Pitch_bend_c, 5, 8192
8, 25396, Pitch_bend_c, 5, 8582
8, 25398, Pitch_bend_c, 5, 10662
8, 25402, Pitch_bend_c, 5, 12352
8, 25404, Pitch_bend_c, 5, 14692
8, 25408, Pitch_bend_c, 5, 15472
8, 25410, Pitch_bend_c, 5, 16122
8, 25416, Pitch_bend_c, 5, 16382
8, 25602, Control_c, 5, 1, 6
8, 25610, Control_c, 5, 1, 14
8, 25614, Control_c, 5, 1, 20
8, 25618, Control_c, 5, 1, 26
8, 25630, Control_c, 5, 1, 32
8, 25642, Control_c, 5, 1, 38
8, 25648, Control_c, 5, 1, 44
8, 25660, Control_c, 5, 1, 50
8, 25674, Control_c, 5, 1, 52
8, 25680, Note_on_c, 5, 50, 0
8, 25680, Pitch_bend_c, 5, 8256
8, 25788, Note_on_c, 5, 50, 122
8, 25790, Control_c, 5, 1, 46
8, 25794, Control_c, 5, 1, 40
8, 25798, Control_c, 5, 1, 34
8, 25802, Control_c, 5, 1, 24
8, 25808, Control_c, 5, 1, 12
8, 25812, Pitch_bend_c, 5, 8582
8, 25812, Control_c, 5, 1, 2
8, 25812, Control_c, 5, 1, 0
8, 25814, Pitch_bend_c, 5, 9102
8, 25818, Pitch_bend_c, 5, 10272
8, 25822, Pitch_bend_c, 5, 11052
8, 25824, Pitch_bend_c, 5, 12612
8, 25830, Pitch_bend_c, 5, 14562
8, 25834, Pitch_bend_c, 5, 15862
8, 25838, Pitch_bend_c, 5, 16252
8, 25840, Pitch_bend_c, 5, 16382
8, 25894, Note_on_c, 5, 50, 0
8, 25900, Pitch_bend_c, 5, 15862
8, 25904, Pitch_bend_c, 5, 8256
8, 25904, Pitch_bend_c, 5, 13392
8, 25908, Pitch_bend_c, 5, 10532
8, 25910, Pitch_bend_c, 5, 8192
8, 25912, Pitch_bend_c, 5, 8064
8, 25914, Pitch_bend_c, 5, 8192
8, 25918, Pitch_bend_c, 5, 8582
8, 25920, Note_on_c, 5, 55, 113
8, 25920, Pitch_bend_c, 5, 8972
8, 25926, Pitch_bend_c, 5, 8452
8, 25926, Pitch_bend_c, 5, 8192
8, 25930, Pitch_bend_c, 5, 7936
8, 25936, Pitch_bend_c, 5, 8192
8, 26016, Note_on_c, 5, 55, 0
8, 26040, Note_on_c, 5, 57, 113
8, 26114, Note_on_c, 5, 57, 0
8, 26160, Note_on_c, 5, 59, 113
8, 26264, Note_on_c, 5, 59, 0
8, 26280, Note_on_c, 5, 53, 113
8, 26288, Pitch_bend_c, 5, 8712
8, 26292, Pitch_bend_c, 5, 9102
8, 26294, Pitch_bend_c, 5, 9622
8, 26298, Pitch_bend_c, 5, 10402
8, 26304, Pitch_bend_c, 5, 11312
8, 26308, Pitch_bend_c, 5, 12742
8, 26310, Pitch_bend_c, 5, 13522
8, 26314, Pitch_bend_c, 5, 14692
8, 26318, Pitch_bend_c, 5, 15472
8, 26320, Pitch_bend_c, 5, 15862
8, 26324, Pitch_bend_c, 5, 16252
8, 26326, Pitch_bend_c, 5, 16382
8, 26526, Pitch_bend_c, 5, 15992
8, 26528, Pitch_bend_c, 5, 15472
8, 26532, Pitch_bend_c, 5, 15082
8, 26536, Pitch_bend_c, 5, 14432
8, 26540, Pitch_bend_c, 5, 14042
8, 26544, Pitch_bend_c, 5, 13782
8, 26552, Pitch_bend_c, 5, 14172
8, 26558, Pitch_bend_c, 5, 15212
8, 26560, Pitch_bend_c, 5, 15732
8, 26564, Pitch_bend_c, 5, 16252
8, 26568, Pitch_bend_c, 5, 16382
8, 26586, Pitch_bend_c, 5, 15992
8, 26588, Pitch_bend_c, 5, 15602
8, 26592, Pitch_bend_c, 5, 14692
8, 26594, Pitch_bend_c, 5, 13912
8, 26598, Pitch_bend_c, 5, 13132
8, 26602, Pitch_bend_c, 5, 12742
8, 26604, Pitch_bend_c, 5, 12352
8, 26612, Pitch_bend_c, 5, 12872
8, 26616, Pitch_bend_c, 5, 13652
8, 26618, Pitch_bend_c, 5, 15212
8, 26622, Pitch_bend_c, 5, 15732
8, 26626, Pitch_bend_c, 5, 16252
8, 26630, Pitch_bend_c, 5, 16382
8, 26656, Pitch_bend_c, 5, 15732
8, 26660, Pitch_bend_c, 5, 15342
8, 26664, Pitch_bend_c, 5, 15082
8, 26672, Pitch_bend_c, 5, 15602
8, 26674, Pitch_bend_c, 5, 16122
8, 26680, Pitch_bend_c, 5, 16382
8, 26722, Pitch_bend_c, 5, 16252
8, 26726, Pitch_bend_c, 5, 16382
8, 26776, Pitch_bend_c, 5, 15992
8, 26780, Note_on_c, 5, 53, 0
8, 26786, Pitch_bend_c, 5, 16382
8, 26800, Pitch_bend_c, 5, 15992
8, 26804, Pitch_bend_c, 5, 13522
8, 26806, Pitch_bend_c, 5, 10532
8, 26810, Pitch_bend_c, 5, 7808
8, 26812, Pitch_bend_c, 5, 7552
8, 26816, Pitch_bend_c, 5, 7936
8, 26816, Pitch_bend_c, 5, 8192
8, 26820, Pitch_bend_c, 5, 8972
8, 26824, Pitch_bend_c, 5, 8582
8, 26826, Pitch_bend_c, 5, 8192
8, 26828, Pitch_bend_c, 5, 7808
8, 26836, Pitch_bend_c, 5, 8192
8, 26860, Note_on_c, 5, 53, 108
8, 26886, Pitch_bend_c, 5, 8712
8, 26890, Pitch_bend_c, 5, 9492
8, 26892, Pitch_bend_c, 5, 10402
8, 26896, Pitch_bend_c, 5, 11832
8, 26900, Pitch_bend_c, 5, 13002
8, 26902, Pitch_bend_c, 5, 14172
8, 26906, Pitch_bend_c, 5, 15472
8, 26908, Pitch_bend_c, 5, 15992
8, 26916, Pitch_bend_c, 5, 16382
8, 26994, Note_on_c, 5, 53, 0
8, 27000, Note_on_c, 5, 45, 122
8, 27002, Pitch_bend_c, 5, 14822
8, 27006, Pitch_bend_c, 5, 12742
8, 27010, Pitch_bend_c, 5, 8192
8, 27012, Pitch_bend_c, 5, 7296
8, 27016, Pitch_bend_c, 5, 7936
8, 27016, Pitch_bend_c, 5, 8192
8, 27020, Pitch_bend_c, 5, 8842
8, 27022, Pitch_bend_c, 5, 8972
8, 27026, Pitch_bend_c, 5, 8322
8, 27026, Pitch_bend_c, 5, 8192
8, 27030, Pitch_bend_c, 5, 7680
8, 27034, Pitch_bend_c, 5, 8064
8, 27036, Pitch_bend_c, 5, 8192
8, 27046, Pitch_bend_c, 5, 8064
8, 27048, Pitch_bend_c, 5, 8192
8, 27114, Note_on_c, 5, 45, 0
8, 27120, Note_on_c, 5, 40, 113
8, 27234, Note_on_c, 5, 40, 0
8, 27240, Note_on_c, 5, 43, 104
8, 27366, Pitch_bend_c, 5, 8582
8, 27374, Pitch_bend_c, 5, 8972
8, 27388, Pitch_bend_c, 5, 8582
8, 27394, Pitch_bend_c, 5, 8192
8, 27478, Pitch_bend_c, 5, 7808
8, 27482, Pitch_bend_c, 5, 7552
8, 27494, Pitch_bend_c, 5, 7936
8, 27498, Pitch_bend_c, 5, 8192
8, 27508, Pitch_bend_c, 5, 8582
8, 27512, Pitch_bend_c, 5, 9102
8, 27516, Pitch_bend_c, 5, 9622
8, 27518, Pitch_bend_c, 5, 10532
8, 27522, Pitch_bend_c, 5, 11052
8, 27524, Pitch_bend_c, 5, 11442
8, 27526, Pitch_bend_c, 5, 11572
8, 27536, Pitch_bend_c, 5, 11182
8, 27542, Pitch_bend_c, 5, 10662
8, 27544, Pitch_bend_c, 5, 10012
8, 27548, Pitch_bend_c, 5, 9622
8, 27550, Pitch_bend_c, 5, 9232
8, 27554, Pitch_bend_c, 5, 8842
8, 27558, Pitch_bend_c, 5, 8452
8, 27560, Pitch_bend_c, 5, 8322
8, 27572, Pitch_bend_c, 5, 8712
8, 27576, Pitch_bend_c, 5, 9492
8, 27578, Pitch_bend_c, 5, 9882
8, 27582, Pitch_bend_c, 5, 10792
8, 27586, Pitch_bend_c, 5, 11312
8, 27588, Pitch_bend_c, 5, 11832
8, 27592, Pitch_bend_c, 5, 12352
8, 27598, Pitch_bend_c, 5, 12612
8, 27604, Pitch_bend_c, 5, 12092
8, 27608, Pitch_bend_c, 5, 11702
8, 27612, Pitch_bend_c, 5, 11182
8, 27616, Pitch_bend_c, 5, 10792
8, 27618, Pitch_bend_c, 5, 9882
8, 27622, Pitch_bend_c, 5, 9492
8, 27624, Pitch_bend_c, 5, 9102
8, 27628, Pitch_bend_c, 5, 8712
8, 27634, Pitch_bend_c, 5, 8452
8, 27646, Pitch_bend_c, 5, 8842
8, 27650, Pitch_bend_c, 5, 10272
8, 27652, Pitch_bend_c, 5, 10662
8, 27656, Pitch_bend_c, 5, 11442
8, 27660, Pitch_bend_c, 5, 11832
8, 27662, Pitch_bend_c, 5, 12352
8, 27668, Pitch_bend_c, 5, 12612
8, 27678, Pitch_bend_c, 5, 12092
8, 27686, Pitch_bend_c, 5, 11572
8, 27688, Pitch_bend_c, 5, 11182
8, 27692, Pitch_bend_c, 5, 10792
8, 27696, Pitch_bend_c, 5, 9882
8, 27698, Pitch_bend_c, 5, 9492
8, 27700, Note_on_c, 5, 43, 0
8, 27702, Pitch_bend_c, 5, 8972
8, 27704, Pitch_bend_c, 5, 8582
8, 27710, Pitch_bend_c, 5, 8192
8, 27726, Note_on_c, 5, 45, 127
8, 27826, Note_on_c, 5, 45, 0
8, 27838, Note_on_c, 5, 45, 127
8, 27870, Pitch_bend_c, 5, 8842
8, 27872, Pitch_bend_c, 5, 9362
8, 27876, Pitch_bend_c, 5, 10922
8, 27878, Pitch_bend_c, 5, 11702
8, 27882, Pitch_bend_c, 5, 13522
8, 27886, Pitch_bend_c, 5, 14562
8, 27890, Pitch_bend_c, 5, 15862
8, 27892, Pitch_bend_c, 5, 16252
8, 27896, Pitch_bend_c, 5, 16382
8, 27934, Note_on_c, 5, 45, 0
8, 27964, Note_on_c, 5, 53, 122
8, 28050, Pitch_bend_c, 5, 15992
8, 28054, Pitch_bend_c, 5, 15212
8, 28058, Pitch_bend_c, 5, 14692
8, 28060, Pitch_bend_c, 5, 13002
8, 28064, Pitch_bend_c, 5, 11702
8, 28068, Pitch_bend_c, 5, 9752
8, 28070, Pitch_bend_c, 5, 9362
8, 28072, Note_on_c, 5, 53, 0
8, 28074, Pitch_bend_c, 5, 8582
8, 28076, Note_on_c, 5, 57, 122
8, 28078, Pitch_bend_c, 5, 8192
8, 28102, Pitch_bend_c, 5, 8582
8, 28104, Pitch_bend_c, 5, 9752
8, 28108, Pitch_bend_c, 5, 10662
8, 28110, Pitch_bend_c, 5, 12092
8, 28114, Pitch_bend_c, 5, 13912
8, 28118, Pitch_bend_c, 5, 15732
8, 28122, Pitch_bend_c, 5, 16122
8, 28124, Pitch_bend_c, 5, 16382
8, 28178, Pitch_bend_c, 5, 15992
8, 28180, Pitch_bend_c, 5, 15472
8, 28184, Pitch_bend_c, 5, 13652
8, 28188, Pitch_bend_c, 5, 11702
8, 28192, Note_on_c, 5, 57, 0
8, 28192, Pitch_bend_c, 5, 10012
8, 28196, Pitch_bend_c, 5, 9102
8, 28198, Pitch_bend_c, 5, 8192
8, 28198, Note_on_c, 5, 55, 125
8, 28204, Pitch_bend_c, 5, 7680
8, 28208, Pitch_bend_c, 5, 7296
8, 28210, Pitch_bend_c, 5, 7168
8, 28218, Pitch_bend_c, 5, 7552
8, 28222, Pitch_bend_c, 5, 7936
8, 28228, Pitch_bend_c, 5, 8192
8, 28232, Pitch_bend_c, 5, 8582
8, 28236, Pitch_bend_c, 5, 9752
8, 28238, Pitch_bend_c, 5, 11052
8, 28242, Pitch_bend_c, 5, 11962
8, 28244, Pitch_bend_c, 5, 14172
8, 28248, Pitch_bend_c, 5, 15212
8, 28250, Pitch_bend_c, 5, 15992
8, 28256, Pitch_bend_c, 5, 16382
8, 28388, Control_c, 5, 1, 6
8, 28396, Control_c, 5, 1, 12
8, 28406, Control_c, 5, 1, 18
8, 28420, Control_c, 5, 1, 26
8, 28434, Control_c, 5, 1, 32
8, 28452, Control_c, 5, 1, 38
8, 28468, Control_c, 5, 1, 44
8, 28482, Control_c, 5, 1, 50
8, 28516, Control_c, 5, 1, 56
8, 28530, Control_c, 5, 1, 62
8, 28550, Control_c, 5, 1, 68
8, 28554, Note_on_c, 5, 55, 0
8, 28560, Control_c, 5, 1, 1
8, 28560, Pitch_bend_c, 5, 8256
8, 28564, Note_on_c, 5, 55, 127
8, 28676, Note_on_c, 5, 55, 0
8, 28678, Note_on_c, 5, 50, 127
8, 28796, Note_on_c, 5, 57, 125
8, 28798, Note_on_c, 5, 50, 0
8, 28840, Pitch_bend_c, 5, 8712
8, 28842, Pitch_bend_c, 5, 9232
8, 28846, Pitch_bend_c, 5, 9752
8, 28850, Pitch_bend_c, 5, 11052
8, 28852, Pitch_bend_c, 5, 11962
8, 28856, Pitch_bend_c, 5, 13652
8, 28858, Pitch_bend_c, 5, 14952
8, 28866, Pitch_bend_c, 5, 15602
8, 28870, Pitch_bend_c, 5, 16382
8, 28918, Note_on_c, 5, 57, 0
8, 28930, Note_on_c, 5, 60, 126
8, 28998, Note_on_c, 5, 60, 0
8, 29048, Note_on_c, 5, 60, 127
8, 29128, Note_on_c, 5, 60, 0
8, 29146, Pitch_bend_c, 5, 15992
8, 29148, Pitch_bend_c, 5, 15472
8, 29152, Pitch_bend_c, 5, 14692
8, 29156, Pitch_bend_c, 5, 14042
8, 29158, Pitch_bend_c, 5, 13002
8, 29162, Pitch_bend_c, 5, 12352
8, 29166, Pitch_bend_c, 5, 10792
8, 29170, Pitch_bend_c, 5, 9882
8, 29172, Pitch_bend_c, 5, 9362
8, 29172, Note_on_c, 5, 62, 127
8, 29176, Pitch_bend_c, 5, 8972
8, 29180, Pitch_bend_c, 5, 8452
8, 29182, Pitch_bend_c, 5, 8192
8, 29214, Pitch_bend_c, 5, 8582
8, 29218, Pitch_bend_c, 5, 9102
8, 29220, Pitch_bend_c, 5, 10272
8, 29226, Pitch_bend_c, 5, 11442
8, 29230, Pitch_bend_c, 5, 13262
8, 29232, Pitch_bend_c, 5, 14172
8, 29236, Pitch_bend_c, 5, 15082
8, 29240, Pitch_bend_c, 5, 15862
8, 29244, Pitch_bend_c, 5, 16252
8, 29246, Pitch_bend_c, 5, 16382
8, 29322, Control_c, 5, 1, 6
8, 29328, Control_c, 5, 1, 12
8, 29332, Control_c, 5, 1, 18
8, 29340, Control_c, 5, 1, 24
8, 29346, Control_c, 5, 1, 30
8, 29352, Control_c, 5, 1, 36
8, 29362, Control_c, 5, 1, 42
8, 29370, Control_c, 5, 1, 48
8, 29378, Control_c, 5, 1, 54
8, 29386, Control_c, 5, 1, 60
8, 29396, Control_c, 5, 1, 66
8, 29428, Control_c, 5, 1, 72
8, 29516, Note_on_c, 5, 62, 0
8, 29520, Control_c, 5, 1, 0
8, 29526, Pitch_bend_c, 5, 8322
8, 29528, Pitch_bend_c, 5, 8712
8, 29532, Pitch_bend_c, 5, 9102
8, 29532, Note_on_c, 5, 50, 91
8, 29534, Pitch_bend_c, 5, 9752
8, 29538, Pitch_bend_c, 5, 10792
8, 29542, Pitch_bend_c, 5, 11702
8, 29546, Pitch_bend_c, 5, 13132
8, 29550, Pitch_bend_c, 5, 13782
8, 29554, Pitch_bend_c, 5, 15472
8, 29556, Pitch_bend_c, 5, 16122
8, 29560, Pitch_bend_c, 5, 16382
8, 29652, Note_on_c, 5, 45, 90
8, 29658, Note_on_c, 5, 50, 0
8, 29660, Pitch_bend_c, 5, 15992
8, 29662, Pitch_bend_c, 5, 15602
8, 29666, Pitch_bend_c, 5, 14692
8, 29670, Pitch_bend_c, 5, 14042
8, 29672, Pitch_bend_c, 5, 13782
8, 29672, Pitch_bend_c, 5, 16252
8, 29674, Pitch_bend_c, 5, 13132
8, 29674, Pitch_bend_c, 5, 15992
8, 29674, Pitch_bend_c, 5, 12742
8, 29676, Pitch_bend_c, 5, 15732
8, 29676, Pitch_bend_c, 5, 12352
8, 29678, Pitch_bend_c, 5, 14952
8, 29678, Pitch_bend_c, 5, 11832
8, 29680, Pitch_bend_c, 5, 14562
8, 29680, Pitch_bend_c, 5, 11442
8, 29680, Pitch_bend_c, 5, 14042
8, 29682, Pitch_bend_c, 5, 10012
8, 29684, Pitch_bend_c, 5, 13262
8, 29684, Pitch_bend_c, 5, 9752
8, 29684, Pitch_bend_c, 5, 13002
8, 29686, Pitch_bend_c, 5, 9492
8, 29686, Pitch_bend_c, 5, 11962
8, 29688, Pitch_bend_c, 5, 9232
8, 29688, Pitch_bend_c, 5, 11052
8, 29688, Pitch_bend_c, 5, 9102
8, 29690, Pitch_bend_c, 5, 10662
8, 29690, Pitch_bend_c, 5, 8712
8, 29692, Pitch_bend_c, 5, 10272
8, 29692, Pitch_bend_c, 5, 8582
8, 29694, Pitch_bend_c, 5, 9362
8, 29694, Pitch_bend_c, 5, 8452
8, 29696, Pitch_bend_c, 5, 9102
8, 29696, Pitch_bend_c, 5, 8322
8, 29696, Pitch_bend_c, 5, 8842
8, 29698, Pitch_bend_c, 5, 8192
8, 29704, Pitch_bend_c, 5, 7680
8, 29708, Pitch_bend_c, 5, 6272
8, 29712, Pitch_bend_c, 5, 5120
8, 29714, Pitch_bend_c, 5, 4096
8, 29718, Pitch_bend_c, 5, 3328
8, 29722, Pitch_bend_c, 5, 2048
8, 29726, Pitch_bend_c, 5, 896
8, 29730, Pitch_bend_c, 5, 128
8, 29730, Pitch_bend_c, 5, 0
8, 29758, Note_on_c, 5, 45, 0
8, 29758, Pitch_bend_c, 5, 8256
8, 29760, Note_on_c, 5, 40, 93
8, 29980, Note_on_c, 5, 59, 72
8, 29988, Note_on_c, 5, 64, 72
8, 29992, Note_on_c, 5, 67, 72
8, 30010, Note_on_c, 5, 40, 0
8, 30152, Note_on_c, 5, 59, 0
8, 30156, Note_on_c, 5, 64, 0
8, 30158, Note_on_c, 5, 67, 0
8, 30186, Note_on_c, 5, 59, 72
8, 30190, Note_on_c, 5, 64, 72
8, 30190, Note_on_c, 5, 67, 72
8, 30214, Note_on_c, 5, 59, 0
8, 30214, Note_on_c, 5, 64, 0
8, 30224, Note_on_c, 5, 67, 0
8, 30242, Note_on_c, 5, 40, 98
8, 30276, Note_on_c, 5, 40, 0
8, 30320, Note_on_c, 5, 59, 72
8, 30324, Note_on_c, 5, 64, 72
8, 30326, Note_on_c, 5, 67, 72
8, 30336, Note_on_c, 5, 59, 0
8, 30338, Note_on_c, 5, 64, 0
8, 30342, Note_on_c, 5, 40, 96
8, 30350, Note_on_c, 5, 67, 0
8, 30464, Note_on_c, 5, 59, 72
8, 30476, Note_on_c, 5, 64, 72
8, 30482, Note_on_c, 5, 67, 72
8, 30490, Note_on_c, 5, 40, 0
8, 30696, Note_on_c, 5, 59, 0
8, 30700, Note_on_c, 5, 64, 0
8, 30716, Note_on_c, 5, 67, 0
8, 30716, Note_on_c, 5, 43, 87
8, 30720, Note_on_c, 5, 50, 84
8, 30722, Note_on_c, 5, 55, 84
8, 30920, Note_on_c, 5, 43, 0
8, 30924, Note_on_c, 5, 50, 0
8, 30926, Note_on_c, 5, 55, 0
8, 30956, Note_on_c, 5, 43, 84
8, 30960, Note_on_c, 5, 50, 84
8, 30962, Note_on_c, 5, 55, 84
8, 31074, Note_on_c, 5, 43, 0
8, 31160, Note_on_c, 5, 50, 0
8, 31192, Note_on_c, 5, 55, 0
8, 31200, Note_on_c, 5, 45, 87
8, 31254, Note_on_c, 5, 52, 84
8, 31260, Note_on_c, 5, 57, 84
8, 31284, Note_on_c, 5, 45, 0
8, 31320, Note_on_c, 5, 45, 87
8, 31350, Note_on_c, 5, 52, 0
8, 31368, Note_on_c, 5, 57, 0
8, 31404, Note_on_c, 5, 45, 0
8, 31430, Note_on_c, 5, 45, 84
8, 31440, Note_on_c, 5, 52, 84
8, 31452, Note_on_c, 5, 57, 84
8, 31676, Note_on_c, 5, 52, 0
8, 31678, Note_on_c, 5, 45, 0
8, 31680, Note_on_c, 5, 57, 0
8, 31680, Note_on_c, 5, 40, 93
8, 31900, Note_on_c, 5, 59, 72
8, 31908, Note_on_c, 5, 64, 72
8, 31912, Note_on_c, 5, 67, 72
8, 31930, Note_on_c, 5, 40, 0
8, 32132, Note_on_c, 5, 59, 0
8, 32140, Note_on_c, 5, 64, 0
8, 32148, Note_on_c, 5, 67, 0
8, 32162, Note_on_c, 5, 40, 98
8, 32226, Note_on_c, 5, 40, 0
8, 32240, Note_on_c, 5, 59, 72
8, 32244, Note_on_c, 5, 64, 72
8, 32262, Note_on_c, 5, 40, 96
8, 32264, Note_on_c, 5, 59, 0
8, 32266, Note_on_c, 5, 64, 0
8, 32384, Note_on_c, 5, 59, 72
8, 32396, Note_on_c, 5, 64, 72
8, 32402, Note_on_c, 5, 67, 72
8, 32590, Note_on_c, 5, 40, 0
8, 32616, Note_on_c, 5, 59, 0
8, 32620, Note_on_c, 5, 64, 0
8, 32636, Note_on_c, 5, 67, 0
8, 32636, Note_on_c, 5, 43, 87
8, 32640, Note_on_c, 5, 50, 84
8, 32642, Note_on_c, 5, 55, 84
8, 32840, Note_on_c, 5, 43, 0
8, 32844, Note_on_c, 5, 50, 0
8, 32846, Note_on_c, 5, 55, 0
8, 32876, Note_on_c, 5, 43, 84
8, 32880, Note_on_c, 5, 50, 84
8, 32882, Note_on_c, 5, 55, 84
8, 32994, Note_on_c, 5, 43, 0
8, 33080, Note_on_c, 5, 50, 0
8, 33112, Note_on_c, 5, 55, 0
8, 33120, Note_on_c, 5, 45, 87
8, 33174, Note_on_c, 5, 52, 84
8, 33180, Note_on_c, 5, 57, 84
8, 33204, Note_on_c, 5, 45, 0
8, 33240, Note_on_c, 5, 45, 87
8, 33270, Note_on_c, 5, 52, 0
8, 33288, Note_on_c, 5, 57, 0
8, 33324, Note_on_c, 5, 45, 0
8, 33348, Note_on_c, 5, 45, 84
8, 33360, Note_on_c, 5, 57, 84
8, 33360, Note_on_c, 5, 52, 84
8, 33594, Note_on_c, 5, 45, 0
8, 33596, Note_on_c, 5, 52, 0
8, 33598, Note_on_c, 5, 57, 0
8, 33600, Note_on_c, 5, 40, 93
8, 33820, Note_on_c, 5, 59, 72
8, 33828, Note_on_c, 5, 64, 72
8, 33832, Note_on_c, 5, 67, 72
8, 33850, Note_on_c, 5, 40, 0
8, 33992, Note_on_c, 5, 59, 0
8, 33996, Note_on_c, 5, 64, 0
8, 33998, Note_on_c, 5, 67, 0
8, 34026, Note_on_c, 5, 59, 72
8, 34054, Note_on_c, 5, 59, 0
8, 34082, Note_on_c, 5, 40, 98
8, 34160, Note_on_c, 5, 59, 72
8, 34164, Note_on_c, 5, 40, 0
8, 34176, Note_on_c, 5, 59, 0
8, 34182, Note_on_c, 5, 40, 96
8, 34304, Note_on_c, 5, 59, 72
8, 34316, Note_on_c, 5, 64, 72
8, 34322, Note_on_c, 5, 67, 72
8, 34524, Note_on_c, 5, 40, 0
8, 34536, Note_on_c, 5, 59, 0
8, 34540, Note_on_c, 5, 64, 0
8, 34556, Note_on_c, 5, 67, 0
8, 34556, Note_on_c, 5, 43, 87
8, 34560, Note_on_c, 5, 50, 84
8, 34562, Note_on_c, 5, 55, 84
8, 34760, Note_on_c, 5, 43, 0
8, 34764, Note_on_c, 5, 50, 0
8, 34766, Note_on_c, 5, 55, 0
8, 34796, Note_on_c, 5, 43, 84
8, 34800, Note_on_c, 5, 50, 84
8, 34802, Note_on_c, 5, 55, 84
8, 34914, Note_on_c, 5, 43, 0
8, 35000, Note_on_c, 5, 50, 0
8, 35032, Note_on_c, 5, 55, 0
8, 35040, Note_on_c, 5, 45, 87
8, 35094, Note_on_c, 5, 52, 84
8, 35100, Note_on_c, 5, 57, 84
8, 35124, Note_on_c, 5, 45, 0
8, 35160, Note_on_c, 5, 45, 87
8, 35190, Note_on_c, 5, 52, 0
8, 35208, Note_on_c, 5, 57, 0
8, 35244, Note_on_c, 5, 45, 0
8, 35270, Note_on_c, 5, 45, 84
8, 35280, Note_on_c, 5, 52, 84
8, 35288, Note_on_c, 5, 57, 84
8, 35518, Note_on_c, 5, 45, 0
8, 35520, Note_on_c, 5, 52, 0
8, 35520, Note_on_c, 5, 57, 0
8, 35520, Note_on_c, 5, 40, 93
8, 35740, Note_on_c, 5, 59, 72
8, 35748, Note_on_c, 5, 64, 72
8, 35752, Note_on_c, 5, 67, 72
8, 35770, Note_on_c, 5, 40, 0
8, 35972, Note_on_c, 5, 59, 0
8, 35980, Note_on_c, 5, 64, 0
8, 35988, Note_on_c, 5, 67, 0
8, 36002, Note_on_c, 5, 40, 98
8, 36066, Note_on_c, 5, 40, 0
8, 36080, Note_on_c, 5, 59, 72
8, 36084, Note_on_c, 5, 64, 72
8, 36092, Note_on_c, 5, 59, 0
8, 36094, Note_on_c, 5, 64, 0
8, 36102, Note_on_c, 5, 40, 96
8, 36224, Note_on_c, 5, 59, 72
8, 36236, Note_on_c, 5, 64, 72
8, 36242, Note_on_c, 5, 67, 72
8, 36430, Note_on_c, 5, 40, 0
8, 36456, Note_on_c, 5, 59, 0
8, 36460, Note_on_c, 5, 64, 0
8, 36476, Note_on_c, 5, 67, 0
8, 36476, Note_on_c, 5, 43, 87
8, 36480, Note_on_c, 5, 50, 84
8, 36482, Note_on_c, 5, 55, 84
8, 36680, Note_on_c, 5, 43, 0
8, 36684, Note_on_c, 5, 50, 0
8, 36686, Note_on_c, 5, 55, 0
8, 36716, Note_on_c, 5, 43, 84
8, 36720, Note_on_c, 5, 50, 84
8, 36722, Note_on_c, 5, 55, 84
8, 36834, Note_on_c, 5, 43, 0
8, 36920, Note_on_c, 5, 50, 0
8, 36952, Note_on_c, 5, 55, 0
8, 36960, Note_on_c, 5, 45, 87
8, 37014, Note_on_c, 5, 52, 84
8, 37020, Note_on_c, 5, 57, 84
8, 37044, Note_on_c, 5, 45, 0
8, 37080, Note_on_c, 5, 45, 87
8, 37110, Note_on_c, 5, 52, 0
8, 37128, Note_on_c, 5, 57, 0
8, 37164, Note_on_c, 5, 45, 0
8, 37190, Note_on_c, 5, 45, 84
8, 37200, Note_on_c, 5, 52, 84
8, 37212, Note_on_c, 5, 57, 84
8, 37440, Note_on_c, 5, 45, 0
8, 37440, Note_on_c, 5, 52, 0
8, 37440, Note_on_c, 5, 57, 0
8, 37440, Note_on_c, 5, 40, 93
8, 37660, Note_on_c, 5, 59, 72
8, 37668, Note_on_c, 5, 64, 72
8, 37672, Note_on_c, 5, 67, 72
8, 37690, Note_on_c, 5, 40, 0
8, 37892, Note_on_c, 5, 59, 0
8, 37900, Note_on_c, 5, 64, 0
8, 37908, Note_on_c, 5, 67, 0
8, 37922, Note_on_c, 5, 40, 98
8, 37986, Note_on_c, 5, 40, 0
8, 38000, Note_on_c, 5, 59, 72
8, 38004, Note_on_c, 5, 64, 72
8, 38012, Note_on_c, 5, 59, 0
8, 38014, Note_on_c, 5, 64, 0
8, 38022, Note_on_c, 5, 40, 96
8, 38144, Note_on_c, 5, 59, 72
8, 38156, Note_on_c, 5, 64, 72
8, 38162, Note_on_c, 5, 67, 72
8, 38350, Note_on_c, 5, 40, 0
8, 38376, Note_on_c, 5, 59, 0
8, 38380, Note_on_c, 5, 64, 0
8, 38396, Note_on_c, 5, 67, 0
8, 38396, Note_on_c, 5, 43, 87
8, 38400, Note_on_c, 5, 50, 84
8, 38402, Note_on_c, 5, 55, 84
8, 38600, Note_on_c, 5, 43, 0
8, 38604, Note_on_c, 5, 50, 0
8, 38606, Note_on_c, 5, 55, 0
8, 38636, Note_on_c, 5, 43, 84
8, 38640, Note_on_c, 5, 50, 84
8, 38642, Note_on_c, 5, 55, 84
8, 38754, Note_on_c, 5, 43, 0
8, 38840, Note_on_c, 5, 50, 0
8, 38872, Note_on_c, 5, 55, 0
8, 38880, Note_on_c, 5, 45, 87
8, 38934, Note_on_c, 5, 52, 84
8, 38940, Note_on_c, 5, 57, 84
8, 38964, Note_on_c, 5, 45, 0
8, 39000, Note_on_c, 5, 45, 87
8, 39030, Note_on_c, 5, 52, 0
8, 39048, Note_on_c, 5, 57, 0
8, 39084, Note_on_c, 5, 45, 0
8, 39110, Note_on_c, 5, 45, 84
8, 39120, Note_on_c, 5, 52, 84
8, 39128, Note_on_c, 5, 57, 84
8, 39358, Note_on_c, 5, 45, 0
8, 39358, Note_on_c, 5, 52, 0
8, 39360, Note_on_c, 5, 57, 0
8, 39360, Note_on_c, 5, 40, 84
8, 39506, Note_on_c, 5, 40, 0
8, 40800, Note_on_c, 5, 54, 127
8, 40910, Note_on_c, 5, 54, 0
8, 40920, Note_on_c, 5, 52, 127
8, 41040, Note_on_c, 5, 50, 127
8, 41044, Note_on_c, 5, 52, 0
8, 41276, Note_on_c, 5, 50, 0
8, 41280, Note_on_c, 5, 57, 127
8, 41308, Pitch_bend_c, 5, 8712
8, 41312, Pitch_bend_c, 5, 9622
8, 41316, Pitch_bend_c, 5, 10402
8, 41320, Pitch_bend_c, 5, 11832
8, 41322, Pitch_bend_c, 5, 12872
8, 41326, Pitch_bend_c, 5, 13782
8, 41330, Pitch_bend_c, 5, 15212
8, 41332, Pitch_bend_c, 5, 15732
8, 41336, Pitch_bend_c, 5, 16252
8, 41340, Pitch_bend_c, 5, 16382
8, 41400, Note_on_c, 5, 60, 127
8, 41406, Note_on_c, 5, 57, 0
8, 41514, Control_c, 5, 1, 8
8, 41520, Control_c, 5, 1, 14
8, 41520, Note_on_c, 5, 65, 127
8, 41526, Control_c, 5, 1, 22
8, 41528, Note_on_c, 5, 60, 0
8, 41530, Control_c, 5, 1, 28
8, 41534, Control_c, 5, 1, 34
8, 41540, Control_c, 5, 1, 40
8, 41544, Control_c, 5, 1, 46
8, 41548, Control_c, 5, 1, 52
8, 41556, Control_c, 5, 1, 58
8, 41564, Control_c, 5, 1, 64
8, 41568, Control_c, 5, 1, 70
8, 41576, Control_c, 5, 1, 76
8, 41584, Control_c, 5, 1, 82
8, 41594, Control_c, 5, 1, 88
8, 41634, Control_c, 5, 1, 92
8, 41670, Control_c, 5, 1, 86
8, 41692, Note_on_c, 5, 65, 0
8, 41710, Control_c, 5, 1, 80
8, 41718, Pitch_bend_c, 5, 15732
8, 41720, Pitch_bend_c, 5, 15342
8, 41724, Pitch_bend_c, 5, 14822
8, 41728, Control_c, 5, 1, 74
8, 41728, Pitch_bend_c, 5, 13782
8, 41730, Pitch_bend_c, 5, 13002
8, 41734, Pitch_bend_c, 5, 11702
8, 41736, Control_c, 5, 1, 68
8, 41738, Pitch_bend_c, 5, 10662
8, 41742, Pitch_bend_c, 5, 9622
8, 41742, Control_c, 5, 1, 60
8, 41744, Pitch_bend_c, 5, 8972
8, 41746, Control_c, 5, 1, 54
8, 41748, Pitch_bend_c, 5, 8582
8, 41750, Control_c, 5, 1, 46
8, 41752, Pitch_bend_c, 5, 8192
8, 41754, Control_c, 5, 1, 38
8, 41756, Control_c, 5, 1, 30
8, 41760, Note_on_c, 5, 57, 127
8, 41760, Control_c, 5, 1, 20
8, 41764, Control_c, 5, 1, 6
8, 41770, Control_c, 5, 1, 0
8, 41776, Pitch_bend_c, 5, 8712
8, 41780, Pitch_bend_c, 5, 9362
8, 41782, Pitch_bend_c, 5, 10272
8, 41786, Pitch_bend_c, 5, 11702
8, 41790, Pitch_bend_c, 5, 13132
8, 41794, Pitch_bend_c, 5, 15342
8, 41796, Pitch_bend_c, 5, 15862
8, 41800, Pitch_bend_c, 5, 16252
8, 41804, Pitch_bend_c, 5, 16382
8, 41880, Note_on_c, 5, 60, 127
8, 41884, Note_on_c, 5, 57, 0
8, 41982, Control_c, 5, 1, 6
8, 41986, Control_c, 5, 1, 12
8, 41994, Control_c, 5, 1, 20
8, 41996, Control_c, 5, 1, 26
8, 41998, Note_on_c, 5, 60, 0
8, 42000, Note_on_c, 5, 65, 125
8, 42002, Control_c, 5, 1, 32
8, 42008, Control_c, 5, 1, 40
8, 42012, Control_c, 5, 1, 46
8, 42016, Control_c, 5, 1, 52
8, 42022, Control_c, 5, 1, 60
8, 42030, Control_c, 5, 1, 66
8, 42034, Control_c, 5, 1, 72
8, 42042, Control_c, 5, 1, 78
8, 42048, Control_c, 5, 1, 84
8, 42070, Control_c, 5, 1, 90
8, 42114, Control_c, 5, 1, 88
8, 42144, Control_c, 5, 1, 90
8, 42182, Control_c, 5, 1, 84
8, 42188, Control_c, 5, 1, 78
8, 42194, Control_c, 5, 1, 70
8, 42198, Control_c, 5, 1, 60
8, 42202, Note_on_c, 5, 65, 0
8, 42202, Control_c, 5, 1, 44
8, 42206, Control_c, 5, 1, 32
8, 42208, Control_c, 5, 1, 18
8, 42212, Control_c, 5, 1, 6
8, 42220, Control_c, 5, 1, 0
8, 42224, Pitch_bend_c, 5, 15732
8, 42228, Pitch_bend_c, 5, 14822
8, 42230, Pitch_bend_c, 5, 13262
8, 42234, Pitch_bend_c, 5, 10272
8, 42236, Pitch_bend_c, 5, 8712
8, 42238, Pitch_bend_c, 5, 8256
8, 42240, Note_on_c, 5, 57, 127
8, 42252, Pitch_bend_c, 5, 8576
8, 42256, Pitch_bend_c, 5, 8896
8, 42260, Pitch_bend_c, 5, 9280
8, 42264, Pitch_bend_c, 5, 9600
8, 42266, Pitch_bend_c, 5, 9984
8, 42270, Pitch_bend_c, 5, 10304
8, 42274, Pitch_bend_c, 5, 10752
8, 42276, Pitch_bend_c, 5, 11072
8, 42280, Pitch_bend_c, 5, 11392
8, 42284, Pitch_bend_c, 5, 11712
8, 42286, Pitch_bend_c, 5, 12096
8, 42290, Pitch_bend_c, 5, 12608
8, 42292, Pitch_bend_c, 5, 13120
8, 42296, Pitch_bend_c, 5, 13696
8, 42298, Pitch_bend_c, 5, 14528
8, 42300, Pitch_bend_c, 5, 15936
8, 42354, Note_on_c, 5, 57, 0
8, 42360, Note_on_c, 5, 60, 127
8, 42478, Note_on_c, 5, 60, 0
8, 42480, Note_on_c, 5, 65, 127
8, 42592, Pitch_bend_c, 5, 8256
8, 42598, Note_on_c, 5, 65, 0
8, 42600, Note_on_c, 5, 57, 127
8, 42664, Control_c, 5, 1, 2
8, 42666, Control_c, 5, 1, 8
8, 42670, Control_c, 5, 1, 14
8, 42672, Control_c, 5, 1, 20
8, 42676, Control_c, 5, 1, 28
8, 42680, Control_c, 5, 1, 34
8, 42684, Control_c, 5, 1, 42
8, 42694, Control_c, 5, 1, 48
8, 42730, Control_c, 5, 1, 54
8, 42760, Control_c, 5, 1, 60
8, 42770, Control_c, 5, 1, 62
8, 42978, Control_c, 5, 1, 56
8, 42986, Control_c, 5, 1, 50
8, 42990, Control_c, 5, 1, 44
8, 42992, Control_c, 5, 1, 38
8, 42996, Control_c, 5, 1, 16
8, 42998, Note_on_c, 5, 57, 0
8, 43000, Control_c, 5, 1, 8
8, 43004, Control_c, 5, 1, 0
8, 43200, Note_on_c, 5, 55, 123
8, 43310, Note_on_c, 5, 55, 0
8, 43320, Note_on_c, 5, 50, 127
8, 43416, Note_on_c, 5, 38, 90
8, 43452, Pitch_bend_c, 5, 8712
8, 43456, Pitch_bend_c, 5, 10012
8, 43460, Pitch_bend_c, 5, 10922
8, 43462, Pitch_bend_c, 5, 12352
8, 43466, Pitch_bend_c, 5, 13782
8, 43470, Pitch_bend_c, 5, 15602
8, 43472, Pitch_bend_c, 5, 15992
8, 43478, Pitch_bend_c, 5, 16382
8, 43508, Note_on_c, 5, 50, 0
8, 43552, Note_on_c, 5, 38, 0
8, 43554, Pitch_bend_c, 5, 15992
8, 43556, Pitch_bend_c, 5, 15472
8, 43560, Note_on_c, 5, 50, 127
8, 43560, Pitch_bend_c, 5, 13912
8, 43564, Pitch_bend_c, 5, 13002
8, 43566, Pitch_bend_c, 5, 11312
8, 43570, Pitch_bend_c, 5, 9882
8, 43574, Pitch_bend_c, 5, 9232
8, 43576, Pitch_bend_c, 5, 8712
8, 43582, Pitch_bend_c, 5, 8192
8, 43636, Pitch_bend_c, 5, 8582
8, 43638, Pitch_bend_c, 5, 10662
8, 43642, Pitch_bend_c, 5, 12352
8, 43644, Pitch_bend_c, 5, 14692
8, 43648, Pitch_bend_c, 5, 15472
8, 43650, Pitch_bend_c, 5, 16122
8, 43656, Pitch_bend_c, 5, 16382
8, 43842, Control_c, 5, 1, 6
8, 43850, Control_c, 5, 1, 14
8, 43854, Control_c, 5, 1, 20
8, 43858, Control_c, 5, 1, 26
8, 43870, Control_c, 5, 1, 32
8, 43882, Control_c, 5, 1, 38
8, 43888, Control_c, 5, 1, 44
8, 43900, Control_c, 5, 1, 50
8, 43914, Control_c, 5, 1, 52
8, 44030, Control_c, 5, 1, 46
8, 44034, Control_c, 5, 1, 40
8, 44038, Control_c, 5, 1, 34
8, 44042, Control_c, 5, 1, 24
8, 44048, Note_on_c, 5, 50, 0
8, 44048, Control_c, 5, 1, 12
8, 44052, Control_c, 5, 1, 2
8, 44052, Control_c, 5, 1, 0
8, 44160, Note_on_c, 5, 57, 127
8, 44172, Pitch_bend_c, 5, 8576
8, 44176, Pitch_bend_c, 5, 8896
8, 44180, Pitch_bend_c, 5, 9280
8, 44184, Pitch_bend_c, 5, 9600
8, 44186, Pitch_bend_c, 5, 9984
8, 44190, Pitch_bend_c, 5, 10304
8, 44194, Pitch_bend_c, 5, 10752
8, 44196, Pitch_bend_c, 5, 11072
8, 44200, Pitch_bend_c, 5, 11392
8, 44204, Pitch_bend_c, 5, 11712
8, 44206, Pitch_bend_c, 5, 12096
8, 44210, Pitch_bend_c, 5, 12608
8, 44212, Pitch_bend_c, 5, 13120
8, 44216, Pitch_bend_c, 5, 13696
8, 44218, Pitch_bend_c, 5, 14528
8, 44220, Pitch_bend_c, 5, 15936
8, 44278, Note_on_c, 5, 57, 0
8, 44280, Note_on_c, 5, 60, 127
8, 44400, Note_on_c, 5, 60, 0
8, 44400, Note_on_c, 5, 65, 127
8, 44510, Pitch_bend_c, 5, 15616
8, 44512, Pitch_bend_c, 5, 15104
8, 44514, Note_on_c, 5, 65, 0
8, 44516, Pitch_bend_c, 5, 14656
8, 44518, Pitch_bend_c, 5, 14144
8, 44520, Note_on_c, 5, 57, 127
8, 44522, Pitch_bend_c, 5, 13632
8, 44524, Pitch_bend_c, 5, 13184
8, 44528, Pitch_bend_c, 5, 12672
8, 44530, Pitch_bend_c, 5, 12288
8, 44534, Pitch_bend_c, 5, 11840
8, 44536, Pitch_bend_c, 5, 11456
8, 44540, Pitch_bend_c, 5, 11136
8, 44542, Pitch_bend_c, 5, 10624
8, 44546, Pitch_bend_c, 5, 10112
8, 44548, Pitch_bend_c, 5, 9792
8, 44552, Pitch_bend_c, 5, 9408
8, 44554, Pitch_bend_c, 5, 9024
8, 44558, Pitch_bend_c, 5, 8512
8, 44562, Pitch_bend_c, 5, 8256
8, 44586, Control_c, 5, 1, 8
8, 44590, Control_c, 5, 1, 14
8, 44592, Control_c, 5, 1, 20
8, 44596, Control_c, 5, 1, 28
8, 44600, Control_c, 5, 1, 34
8, 44604, Control_c, 5, 1, 42
8, 44614, Control_c, 5, 1, 48
8, 44650, Control_c, 5, 1, 54
8, 44680, Control_c, 5, 1, 60
8, 44690, Control_c, 5, 1, 62
8, 44898, Control_c, 5, 1, 56
8, 44906, Control_c, 5, 1, 50
8, 44910, Control_c, 5, 1, 44
8, 44912, Control_c, 5, 1, 38
8, 44916, Control_c, 5, 1, 16
8, 44918, Note_on_c, 5, 57, 0
8, 44920, Control_c, 5, 1, 8
8, 44924, Control_c, 5, 1, 0
8, 45120, Note_on_c, 5, 55, 123
8, 45230, Note_on_c, 5, 55, 0
8, 45240, Note_on_c, 5, 50, 127
8, 45342, Note_on_c, 5, 38, 90
8, 45372, Pitch_bend_c, 5, 8712
8, 45376, Pitch_bend_c, 5, 10012
8, 45380, Pitch_bend_c, 5, 10922
8, 45382, Pitch_bend_c, 5, 12352
8, 45386, Pitch_bend_c, 5, 13782
8, 45390, Pitch_bend_c, 5, 15602
8, 45392, Pitch_bend_c, 5, 15992
8, 45398, Pitch_bend_c, 5, 16382
8, 45448, Note_on_c, 5, 50, 0
8, 45474, Pitch_bend_c, 5, 15992
8, 45476, Pitch_bend_c, 5, 15472
8, 45480, Note_on_c, 5, 50, 127
8, 45480, Pitch_bend_c, 5, 13912
8, 45484, Pitch_bend_c, 5, 13002
8, 45486, Note_on_c, 5, 38, 0
8, 45486, Pitch_bend_c, 5, 11312
8, 45490, Pitch_bend_c, 5, 9882
8, 45494, Pitch_bend_c, 5, 9232
8, 45496, Pitch_bend_c, 5, 8712
8, 45502, Pitch_bend_c, 5, 8192
8, 45556, Pitch_bend_c, 5, 8582
8, 45558, Pitch_bend_c, 5, 10662
8, 45562, Pitch_bend_c, 5, 12352
8, 45564, Pitch_bend_c, 5, 14692
8, 45568, Pitch_bend_c, 5, 15472
8, 45570, Pitch_bend_c, 5, 16122
8, 45576, Pitch_bend_c, 5, 16382
8, 45762, Control_c, 5, 1, 6
8, 45770, Control_c, 5, 1, 14
8, 45774, Control_c, 5, 1, 20
8, 45778, Control_c, 5, 1, 26
8, 45790, Control_c, 5, 1, 32
8, 45802, Control_c, 5, 1, 38
8, 45808, Control_c, 5, 1, 44
8, 45820, Control_c, 5, 1, 50
8, 45834, Control_c, 5, 1, 52
8, 45840, Note_on_c, 5, 50, 0
8, 45840, Pitch_bend_c, 5, 8256
8, 45948, Note_on_c, 5, 50, 122
8, 45950, Control_c, 5, 1, 46
8, 45954, Control_c, 5, 1, 40
8, 45958, Control_c, 5, 1, 34
8, 45962, Control_c, 5, 1, 24
8, 45968, Control_c, 5, 1, 12
8, 45972, Pitch_bend_c, 5, 8582
8, 45972, Control_c, 5, 1, 2
8, 45972, Control_c, 5, 1, 0
8, 45974, Pitch_bend_c, 5, 9102
8, 45978, Pitch_bend_c, 5, 10272
8, 45982, Pitch_bend_c, 5, 11052
8, 45984, Pitch_bend_c, 5, 12612
8, 45990, Pitch_bend_c, 5, 14562
8, 45994, Pitch_bend_c, 5, 15862
8, 45998, Pitch_bend_c, 5, 16252
8, 46000, Pitch_bend_c, 5, 16382
8, 46054, Note_on_c, 5, 50, 0
8, 46060, Pitch_bend_c, 5, 15862
8, 46064, Pitch_bend_c, 5, 8256
8, 46064, Pitch_bend_c, 5, 13392
8, 46068, Pitch_bend_c, 5, 10532
8, 46070, Pitch_bend_c, 5, 8192
8, 46072, Pitch_bend_c, 5, 8064
8, 46074, Pitch_bend_c, 5, 8192
8, 46078, Pitch_bend_c, 5, 8582
8, 46080, Note_on_c, 5, 55, 113
8, 46080, Pitch_bend_c, 5, 8972
8, 46086, Pitch_bend_c, 5, 8452
8, 46086, Pitch_bend_c, 5, 8192
8, 46090, Pitch_bend_c, 5, 7936
8, 46096, Pitch_bend_c, 5, 8192
8, 46176, Note_on_c, 5, 55, 0
8, 46200, Note_on_c, 5, 57, 113
8, 46274, Note_on_c, 5, 57, 0
8, 46320, Note_on_c, 5, 59, 113
8, 46424, Note_on_c, 5, 59, 0
8, 46440, Note_on_c, 5, 53, 113
8, 46448, Pitch_bend_c, 5, 8712
8, 46452, Pitch_bend_c, 5, 9102
8, 46454, Pitch_bend_c, 5, 9622
8, 46458, Pitch_bend_c, 5, 10402
8, 46464, Pitch_bend_c, 5, 11312
8, 46468, Pitch_bend_c, 5, 12742
8, 46470, Pitch_bend_c, 5, 13522
8, 46474, Pitch_bend_c, 5, 14692
8, 46478, Pitch_bend_c, 5, 15472
8, 46480, Pitch_bend_c, 5, 15862
8, 46484, Pitch_bend_c, 5, 16252
8, 46486, Pitch_bend_c, 5, 16382
8, 46686, Pitch_bend_c, 5, 15992
8, 46688, Pitch_bend_c, 5, 15472
8, 46692, Pitch_bend_c, 5, 15082
8, 46696, Pitch_bend_c, 5, 14432
8, 46700, Pitch_bend_c, 5, 14042
8, 46704, Pitch_bend_c, 5, 13782
8, 46712, Pitch_bend_c, 5, 14172
8, 46718, Pitch_bend_c, 5, 15212
8, 46720, Pitch_bend_c, 5, 15732
8, 46724, Pitch_bend_c, 5, 16252
8, 46728, Pitch_bend_c, 5, 16382
8, 46746, Pitch_bend_c, 5, 15992
8, 46748, Pitch_bend_c, 5, 15602
8, 46752, Pitch_bend_c, 5, 14692
8, 46754, Pitch_bend_c, 5, 13912
8, 46758, Pitch_bend_c, 5, 13132
8, 46762, Pitch_bend_c, 5, 12742
8, 46764, Pitch_bend_c, 5, 12352
8, 46772, Pitch_bend_c, 5, 12872
8, 46776, Pitch_bend_c, 5, 13652
8, 46778, Pitch_bend_c, 5, 15212
8, 46782, Pitch_bend_c, 5, 15732
8, 46786, Pitch_bend_c, 5, 16252
8, 46790, Pitch_bend_c, 5, 16382
8, 46816, Pitch_bend_c, 5, 15732
8, 46820, Pitch_bend_c, 5, 15342
8, 46824, Pitch_bend_c, 5, 15082
8, 46832, Pitch_bend_c, 5, 15602
8, 46834, Pitch_bend_c, 5, 16122
8, 46840, Pitch_bend_c, 5, 16382
8, 46882, Pitch_bend_c, 5, 16252
8, 46886, Pitch_bend_c, 5, 16382
8, 46936, Pitch_bend_c, 5, 15992
8, 46940, Note_on_c, 5, 53, 0
8, 46946, Pitch_bend_c, 5, 16382
8, 46960, Pitch_bend_c, 5, 15992
8, 46964, Pitch_bend_c, 5, 13522
8, 46966, Pitch_bend_c, 5, 10532
8, 46970, Pitch_bend_c, 5, 7808
8, 46972, Pitch_bend_c, 5, 7552
8, 46976, Pitch_bend_c, 5, 7936
8, 46976, Pitch_bend_c, 5, 8192
8, 46980, Pitch_bend_c, 5, 8972
8, 46984, Pitch_bend_c, 5, 8582
8, 46986, Pitch_bend_c, 5, 8192
8, 46988, Pitch_bend_c, 5, 7808
8, 46996, Pitch_bend_c, 5, 8192
8, 47020, Note_on_c, 5, 53, 108
8, 47046, Pitch_bend_c, 5, 8712
8, 47050, Pitch_bend_c, 5, 9492
8, 47052, Pitch_bend_c, 5, 10402
8, 47056, Pitch_bend_c, 5, 11832
8, 47060, Pitch_bend_c, 5, 13002
8, 47062, Pitch_bend_c, 5, 14172
8, 47066, Pitch_bend_c, 5, 15472
8, 47068, Pitch_bend_c, 5, 15992
8, 47076, Pitch_bend_c, 5, 16382
8, 47154, Note_on_c, 5, 53, 0
8, 47160, Note_on_c, 5, 45, 122
8, 47162, Pitch_bend_c, 5, 14822
8, 47166, Pitch_bend_c, 5, 12742
8, 47170, Pitch_bend_c, 5, 8192
8, 47172, Pitch_bend_c, 5, 7296
8, 47176, Pitch_bend_c, 5, 7936
8, 47176, Pitch_bend_c, 5, 8192
8, 47180, Pitch_bend_c, 5, 8842
8, 47182, Pitch_bend_c, 5, 8972
8, 47186, Pitch_bend_c, 5, 8322
8, 47186, Pitch_bend_c, 5, 8192
8, 47190, Pitch_bend_c, 5, 7680
8, 47194, Pitch_bend_c, 5, 8064
8, 47196, Pitch_bend_c, 5, 8192
8, 47206, Pitch_bend_c, 5, 8064
8, 47208, Pitch_bend_c, 5, 8192
8, 47274, Note_on_c, 5, 45, 0
8, 47280, Note_on_c, 5, 40, 113
8, 47394, Note_on_c, 5, 40, 0
8, 47400, Note_on_c, 5, 43, 104
8, 47526, Pitch_bend_c, 5, 8582
8, 47534, Pitch_bend_c, 5, 8972
8, 47548, Pitch_bend_c, 5, 8582
8, 47554, Pitch_bend_c, 5, 8192
8, 47638, Pitch_bend_c, 5, 7808
8, 47642, Pitch_bend_c, 5, 7552
8, 47654, Pitch_bend_c, 5, 7936
8, 47658, Pitch_bend_c, 5, 8192
8, 47668, Pitch_bend_c, 5, 8582
8, 47672, Pitch_bend_c, 5, 9102
8, 47676, Pitch_bend_c, 5, 9622
8, 47678, Pitch_bend_c, 5, 10532
8, 47682, Pitch_bend_c, 5, 11052
8, 47684, Pitch_bend_c, 5, 11442
8, 47686, Pitch_bend_c, 5, 11572
8, 47696, Pitch_bend_c, 5, 11182
8, 47702, Pitch_bend_c, 5, 10662
8, 47704, Pitch_bend_c, 5, 10012
8, 47708, Pitch_bend_c, 5, 9622
8, 47710, Pitch_bend_c, 5, 9232
8, 47714, Pitch_bend_c, 5, 8842
8, 47718, Pitch_bend_c, 5, 8452
8, 47720, Pitch_bend_c, 5, 8322
8, 47732, Pitch_bend_c, 5, 8712
8, 47736, Pitch_bend_c, 5, 9492
8, 47738, Pitch_bend_c, 5, 9882
8, 47742, Pitch_bend_c, 5, 10792
8, 47746, Pitch_bend_c, 5, 11312
8, 47748, Pitch_bend_c, 5, 11832
8, 47752, Pitch_bend_c, 5, 12352
8, 47758, Pitch_bend_c, 5, 12612
8, 47764, Pitch_bend_c, 5, 12092
8, 47768, Pitch_bend_c, 5, 11702
8, 47772, Pitch_bend_c, 5, 11182
8, 47776, Pitch_bend_c, 5, 10792
8, 47778, Pitch_bend_c, 5, 9882
8, 47782, Pitch_bend_c, 5, 9492
8, 47784, Pitch_bend_c, 5, 9102
8, 47788, Pitch_bend_c, 5, 8712
8, 47794, Pitch_bend_c, 5, 8452
8, 47806, Pitch_bend_c, 5, 8842
8, 47810, Pitch_bend_c, 5, 10272
8, 47812, Pitch_bend_c, 5, 10662
8, 47816, Pitch_bend_c, 5, 11442
8, 47820, Pitch_bend_c, 5, 11832
8, 47822, Pitch_bend_c, 5, 12352
8, 47828, Pitch_bend_c, 5, 12612
8, 47838, Pitch_bend_c, 5, 12092
8, 47846, Pitch_bend_c, 5, 11572
8, 47848, Pitch_bend_c, 5, 11182
8, 47852, Pitch_bend_c, 5, 10792
8, 47856, Pitch_bend_c, 5, 9882
8, 47858, Pitch_bend_c, 5, 9492
8, 47860, Note_on_c, 5, 43, 0
8, 47862, Pitch_bend_c, 5, 8972
8, 47864, Pitch_bend_c, 5, 8582
8, 47870, Pitch_bend_c, 5, 8192
8, 47886, Note_on_c, 5, 45, 127
8, 47986, Note_on_c, 5, 45, 0
8, 47998, Note_on_c, 5, 45, 127
8, 48030, Pitch_bend_c, 5, 8842
8, 48032, Pitch_bend_c, 5, 9362
8, 48036, Pitch_bend_c, 5, 10922
8, 48038, Pitch_bend_c, 5, 11702
8, 48042, Pitch_bend_c, 5, 13522
8, 48046, Pitch_bend_c, 5, 14562
8, 48050, Pitch_bend_c, 5, 15862
8, 48052, Pitch_bend_c, 5, 16252
8, 48056, Pitch_bend_c, 5, 16382
8, 48094, Note_on_c, 5, 45, 0
8, 48124, Note_on_c, 5, 53, 122
8, 48210, Pitch_bend_c, 5, 15992
8, 48214, Pitch_bend_c, 5, 15212
8, 48218, Pitch_bend_c, 5, 14692
8, 48220, Pitch_bend_c, 5, 13002
8, 48224, Pitch_bend_c, 5, 11702
8, 48228, Pitch_bend_c, 5, 9752
8, 48230, Pitch_bend_c, 5, 9362
8, 48232, Note_on_c, 5, 53, 0
8, 48234, Pitch_bend_c, 5, 8582
8, 48236, Note_on_c, 5, 57, 122
8, 48238, Pitch_bend_c, 5, 8192
8, 48262, Pitch_bend_c, 5, 8582
8, 48264, Pitch_bend_c, 5, 9752
8, 48268, Pitch_bend_c, 5, 10662
8, 48270, Pitch_bend_c, 5, 12092
8, 48274, Pitch_bend_c, 5, 13912
8, 48278, Pitch_bend_c, 5, 15732
8, 48282, Pitch_bend_c, 5, 16122
8, 48284, Pitch_bend_c, 5, 16382
8, 48338, Pitch_bend_c, 5, 15992
8, 48340, Pitch_bend_c, 5, 15472
8, 48344, Pitch_bend_c, 5, 13652
8, 48348, Pitch_bend_c, 5, 11702
8, 48352, Note_on_c, 5, 57, 0
8, 48352, Pitch_bend_c, 5, 10012
8, 48356, Pitch_bend_c, 5, 9102
8, 48358, Pitch_bend_c, 5, 8192
8, 48358, Note_on_c, 5, 55, 125
8, 48364, Pitch_bend_c, 5, 7680
8, 48368, Pitch_bend_c, 5, 7296
8, 48370, Pitch_bend_c, 5, 7168
8, 48378, Pitch_bend_c, 5, 7552
8, 48382, Pitch_bend_c, 5, 7936
8, 48388, Pitch_bend_c, 5, 8192
8, 48392, Pitch_bend_c, 5, 8582
8, 48396, Pitch_bend_c, 5, 9752
8, 48398, Pitch_bend_c, 5, 11052
8, 48402, Pitch_bend_c, 5, 11962
8, 48404, Pitch_bend_c, 5, 14172
8, 48408, Pitch_bend_c, 5, 15212
8, 48410, Pitch_bend_c, 5, 15992
8, 48416, Pitch_bend_c, 5, 16382
8, 48548, Control_c, 5, 1, 6
8, 48556, Control_c, 5, 1, 12
8, 48566, Control_c, 5, 1, 18
8, 48580, Control_c, 5, 1, 26
8, 48594, Control_c, 5, 1, 32
8, 48612, Control_c, 5, 1, 38
8, 48628, Control_c, 5, 1, 44
8, 48642, Control_c, 5, 1, 50
8, 48676, Control_c, 5, 1, 56
8, 48690, Control_c, 5, 1, 62
8, 48710, Control_c, 5, 1, 68
8, 48714, Note_on_c, 5, 55, 0
8, 48720, Control_c, 5, 1, 1
8, 48720, Pitch_bend_c, 5, 8256
8, 48724, Note_on_c, 5, 55, 127
8, 48836, Note_on_c, 5, 55, 0
8, 48838, Note_on_c, 5, 50, 127
8, 48956, Note_on_c, 5, 57, 125
8, 48958, Note_on_c, 5, 50, 0
8, 49000, Pitch_bend_c, 5, 8712
8, 49002, Pitch_bend_c, 5, 9232
8, 49006, Pitch_bend_c, 5, 9752
8, 49010, Pitch_bend_c, 5, 11052
8, 49012, Pitch_bend_c, 5, 11962
8, 49016, Pitch_bend_c, 5, 13652
8, 49018, Pitch_bend_c, 5, 14952
8, 49026, Pitch_bend_c, 5, 15602
8, 49030, Pitch_bend_c, 5, 16382
8, 49078, Note_on_c, 5, 57, 0
8, 49090, Note_on_c, 5, 60, 126
8, 49158, Note_on_c, 5, 60, 0
8, 49208, Note_on_c, 5, 60, 127
8, 49288, Note_on_c, 5, 60, 0
8, 49306, Pitch_bend_c, 5, 15992
8, 49308, Pitch_bend_c, 5, 15472
8, 49312, Pitch_bend_c, 5, 14692
8, 49316, Pitch_bend_c, 5, 14042
8, 49318, Pitch_bend_c, 5, 13002
8, 49322, Pitch_bend_c, 5, 12352
8, 49326, Pitch_bend_c, 5, 10792
8, 49330, Pitch_bend_c, 5, 9882
8, 49332, Pitch_bend_c, 5, 9362
8, 49332, Note_on_c, 5, 62, 127
8, 49336, Pitch_bend_c, 5, 8972
8, 49340, Pitch_bend_c, 5, 8452
8, 49342, Pitch_bend_c, 5, 8192
8, 49374, Pitch_bend_c, 5, 8582
8, 49378, Pitch_bend_c, 5, 9102
8, 49380, Pitch_bend_c, 5, 10272
8, 49386, Pitch_bend_c, 5, 11442
8, 49390, Pitch_bend_c, 5, 13262
8, 49392, Pitch_bend_c, 5, 14172
8, 49396, Pitch_bend_c, 5, 15082
8, 49400, Pitch_bend_c, 5, 15862
8, 49404, Pitch_bend_c, 5, 16252
8, 49406, Pitch_bend_c, 5, 16382
8, 49482, Control_c, 5, 1, 6
8, 49488, Control_c, 5, 1, 12
8, 49492, Control_c, 5, 1, 18
8, 49500, Control_c, 5, 1, 24
8, 49506, Control_c, 5, 1, 30
8, 49512, Control_c, 5, 1, 36
8, 49522, Control_c, 5, 1, 42
8, 49530, Control_c, 5, 1, 48
8, 49538, Control_c, 5, 1, 54
8, 49546, Control_c, 5, 1, 60
8, 49556, Control_c, 5, 1, 66
8, 49588, Control_c, 5, 1, 72
8, 49676, Note_on_c, 5, 62, 0
8, 49680, Control_c, 5, 1, 0
8, 49686, Pitch_bend_c, 5, 8322
8, 49688, Pitch_bend_c, 5, 8712
8, 49692, Pitch_bend_c, 5, 9102
8, 49692, Note_on_c, 5, 50, 91
8, 49694, Pitch_bend_c, 5, 9752
8, 49698, Pitch_bend_c, 5, 10792
8, 49702, Pitch_bend_c, 5, 11702
8, 49706, Pitch_bend_c, 5, 13132
8, 49710, Pitch_bend_c, 5, 13782
8, 49714, Pitch_bend_c, 5, 15472
8, 49716, Pitch_bend_c, 5, 16122
8, 49720, Pitch_bend_c, 5, 16382
8, 49812, Note_on_c, 5, 45, 90
8, 49818, Note_on_c, 5, 50, 0
8, 49820, Pitch_bend_c, 5, 15992
8, 49822, Pitch_bend_c, 5, 15602
8, 49826, Pitch_bend_c, 5, 14692
8, 49830, Pitch_bend_c, 5, 14042
8, 49832, Pitch_bend_c, 5, 13782
8, 49832, Pitch_bend_c, 5, 16252
8, 49834, Pitch_bend_c, 5, 13132
8, 49834, Pitch_bend_c, 5, 15992
8, 49834, Pitch_bend_c, 5, 12742
8, 49836, Pitch_bend_c, 5, 15732
8, 49836, Pitch_bend_c, 5, 12352
8, 49838, Pitch_bend_c, 5, 14952
8, 49838, Pitch_bend_c, 5, 11832
8, 49840, Pitch_bend_c, 5, 14562
8, 49840, Pitch_bend_c, 5, 11442
8, 49840, Pitch_bend_c, 5, 14042
8, 49842, Pitch_bend_c, 5, 10012
8, 49844, Pitch_bend_c, 5, 13262
8, 49844, Pitch_bend_c, 5, 9752
8, 49844, Pitch_bend_c, 5, 13002
8, 49846, Pitch_bend_c, 5, 9492
8, 49846, Pitch_bend_c, 5, 11962
8, 49848, Pitch_bend_c, 5, 9232
8, 49848, Pitch_bend_c, 5, 11052
8, 49848, Pitch_bend_c, 5, 9102
8, 49850, Pitch_bend_c, 5, 10662
8, 49850, Pitch_bend_c, 5, 8712
8, 49852, Pitch_bend_c, 5, 10272
8, 49852, Pitch_bend_c, 5, 8582
8, 49854, Pitch_bend_c, 5, 9362
8, 49854, Pitch_bend_c, 5, 8452
8, 49856, Pitch_bend_c, 5, 9102
8, 49856, Pitch_bend_c, 5, 8322
8, 49856, Pitch_bend_c, 5, 8842
8, 49858, Pitch_bend_c, 5, 8192
8, 49864, Pitch_bend_c, 5, 7680
8, 49868, Pitch_bend_c, 5, 6272
8, 49872, Pitch_bend_c, 5, 5120
8, 49874, Pitch_bend_c, 5, 4096
8, 49878, Pitch_bend_c, 5, 3328
8, 49882, Pitch_bend_c, 5, 2048
8, 49886, Pitch_bend_c, 5, 896
8, 49890, Pitch_bend_c, 5, 128
8, 49890, Pitch_bend_c, 5, 0
8, 49918, Note_on_c, 5, 45, 0
8, 49918, Pitch_bend_c, 5, 8256
8, 49920, Note_on_c, 5, 40, 93
8, 50140, Note_on_c, 5, 59, 72
8, 50148, Note_on_c, 5, 64, 72
8, 50152, Note_on_c, 5, 67, 72
8, 50170, Note_on_c, 5, 40, 0
8, 50312, Note_on_c, 5, 59, 0
8, 50316, Note_on_c, 5, 64, 0
8, 50318, Note_on_c, 5, 67, 0
8, 50346, Note_on_c, 5, 59, 72
8, 50350, Note_on_c, 5, 64, 72
8, 50350, Note_on_c, 5, 67, 72
8, 50374, Note_on_c, 5, 59, 0
8, 50374, Note_on_c, 5, 64, 0
8, 50384, Note_on_c, 5, 67, 0
8, 50402, Note_on_c, 5, 40, 98
8, 50436, Note_on_c, 5, 40, 0
8, 50480, Note_on_c, 5, 59, 72
8, 50484, Note_on_c, 5, 64, 72
8, 50486, Note_on_c, 5, 67, 72
8, 50496, Note_on_c, 5, 59, 0
8, 50498, Note_on_c, 5, 64, 0
8, 50502, Note_on_c, 5, 40, 96
8, 50510, Note_on_c, 5, 67, 0
8, 50624, Note_on_c, 5, 59, 72
8, 50636, Note_on_c, 5, 64, 72
8, 50642, Note_on_c, 5, 67, 72
8, 50650, Note_on_c, 5, 40, 0
8, 50856, Note_on_c, 5, 59, 0
8, 50860, Note_on_c, 5, 64, 0
8, 50876, Note_on_c, 5, 67, 0
8, 50876, Note_on_c, 5, 43, 87
8, 50880, Note_on_c, 5, 50, 84
8, 50882, Note_on_c, 5, 55, 84
8, 51080, Note_on_c, 5, 43, 0
8, 51084, Note_on_c, 5, 50, 0
8, 51086, Note_on_c, 5, 55, 0
8, 51116, Note_on_c, 5, 43, 84
8, 51120, Note_on_c, 5, 50, 84
8, 51122, Note_on_c, 5, 55, 84
8, 51234, Note_on_c, 5, 43, 0
8, 51320, Note_on_c, 5, 50, 0
8, 51352, Note_on_c, 5, 55, 0
8, 51360, Note_on_c, 5, 45, 87
8, 51414, Note_on_c, 5, 52, 84
8, 51420, Note_on_c, 5, 57, 84
8, 51444, Note_on_c, 5, 45, 0
8, 51480, Note_on_c, 5, 45, 87
8, 51510, Note_on_c, 5, 52, 0
8, 51528, Note_on_c, 5, 57, 0
8, 51564, Note_on_c, 5, 45, 0
8, 51590, Note_on_c, 5, 45, 84
8, 51600, Note_on_c, 5, 52, 84
8, 51612, Note_on_c, 5, 57, 84
8, 51836, Note_on_c, 5, 52, 0
8, 51838, Note_on_c, 5, 45, 0
8, 51840, Note_on_c, 5, 57, 0
8, 51840, Note_on_c, 5, 40, 93
8, 52060, Note_on_c, 5, 59, 72
8, 52068, Note_on_c, 5, 64, 72
8, 52072, Note_on_c, 5, 67, 72
8, 52090, Note_on_c, 5, 40, 0
8, 52292, Note_on_c, 5, 59, 0
8, 52300, Note_on_c, 5, 64, 0
8, 52308, Note_on_c, 5, 67, 0
8, 52322, Note_on_c, 5, 40, 98
8, 52386, Note_on_c, 5, 40, 0
8, 52400, Note_on_c, 5, 59, 72
8, 52404, Note_on_c, 5, 64, 72
8, 52422, Note_on_c, 5, 40, 96
8, 52424, Note_on_c, 5, 59, 0
8, 52426, Note_on_c, 5, 64, 0
8, 52544, Note_on_c, 5, 59, 72
8, 52556, Note_on_c, 5, 64, 72
8, 52562, Note_on_c, 5, 67, 72
8, 52750, Note_on_c, 5, 40, 0
8, 52776, Note_on_c, 5, 59, 0
8, 52780, Note_on_c, 5, 64, 0
8, 52796, Note_on_c, 5, 67, 0
8, 52796, Note_on_c, 5, 43, 87
8, 52800, Note_on_c, 5, 50, 84
8, 52802, Note_on_c, 5, 55, 84
8, 53000, Note_on_c, 5, 43, 0
8, 53004, Note_on_c, 5, 50, 0
8, 53006, Note_on_c, 5, 55, 0
8, 53036, Note_on_c, 5, 43, 84
8, 53040, Note_on_c, 5, 50, 84
8, 53042, Note_on_c, 5, 55, 84
8, 53154, Note_on_c, 5, 43, 0
8, 53240, Note_on_c, 5, 50, 0
8, 53272, Note_on_c, 5, 55, 0
8, 53280, Note_on_c, 5, 45, 87
8, 53334, Note_on_c, 5, 52, 84
8, 53340, Note_on_c, 5, 57, 84
8, 53364, Note_on_c, 5, 45, 0
8, 53400, Note_on_c, 5, 45, 87
8, 53430, Note_on_c, 5, 52, 0
8, 53448, Note_on_c, 5, 57, 0
8, 53484, Note_on_c, 5, 45, 0
8, 53508, Note_on_c, 5, 45, 84
8, 53520, Note_on_c, 5, 57, 84
8, 53520, Note_on_c, 5, 52, 84
8, 53754, Note_on_c, 5, 45, 0
8, 53756, Note_on_c, 5, 52, 0
8, 53758, Note_on_c, 5, 57, 0
8, 53760, Note_on_c, 5, 40, 93
8, 53980, Note_on_c, 5, 59, 72
8, 53988, Note_on_c, 5, 64, 72
8, 53992, Note_on_c, 5, 67, 72
8, 54010, Note_on_c, 5, 40, 0
8, 54152, Note_on_c, 5, 59, 0
8, 54156, Note_on_c, 5, 64, 0
8, 54158, Note_on_c, 5, 67, 0
8, 54186, Note_on_c, 5, 59, 72
8, 54214, Note_on_c, 5, 59, 0
8, 54242, Note_on_c, 5, 40, 98
8, 54320, Note_on_c, 5, 59, 72
8, 54324, Note_on_c, 5, 40, 0
8, 54336, Note_on_c, 5, 59, 0
8, 54342, Note_on_c, 5, 40, 96
8, 54464, Note_on_c, 5, 59, 72
8, 54476, Note_on_c, 5, 64, 72
8, 54482, Note_on_c, 5, 67, 72
8, 54684, Note_on_c, 5, 40, 0
8, 54696, Note_on_c, 5, 59, 0
8, 54700, Note_on_c, 5, 64, 0
8, 54716, Note_on_c, 5, 67, 0
8, 54716, Note_on_c, 5, 43, 87
8, 54720, Note_on_c, 5, 50, 84
8, 54722, Note_on_c, 5, 55, 84
8, 54920, Note_on_c, 5, 43, 0
8, 54924, Note_on_c, 5, 50, 0
8, 54926, Note_on_c, 5, 55, 0
8, 54956, Note_on_c, 5, 43, 84
8, 54960, Note_on_c, 5, 50, 84
8, 54962, Note_on_c, 5, 55, 84
8, 55074, Note_on_c, 5, 43, 0
8, 55160, Note_on_c, 5, 50, 0
8, 55192, Note_on_c, 5, 55, 0
8, 55200, Note_on_c, 5, 45, 87
8, 55254, Note_on_c, 5, 52, 84
8, 55260, Note_on_c, 5, 57, 84
8, 55284, Note_on_c, 5, 45, 0
8, 55320, Note_on_c, 5, 45, 87
8, 55350, Note_on_c, 5, 52, 0
8, 55368, Note_on_c, 5, 57, 0
8, 55404, Note_on_c, 5, 45, 0
8, 55430, Note_on_c, 5, 45, 84
8, 55440, Note_on_c, 5, 52, 84
8, 55448, Note_on_c, 5, 57, 84
8, 55678, Note_on_c, 5, 45, 0
8, 55680, Note_on_c, 5, 52, 0
8, 55680, Note_on_c, 5, 57, 0
8, 55680, Note_on_c, 5, 40, 93
8, 55900, Note_on_c, 5, 59, 72
8, 55908, Note_on_c, 5, 64, 72
8, 55912, Note_on_c, 5, 67, 72
8, 55930, Note_on_c, 5, 40, 0
8, 56132, Note_on_c, 5, 59, 0
8, 56140, Note_on_c, 5, 64, 0
8, 56148, Note_on_c, 5, 67, 0
8, 56162, Note_on_c, 5, 40, 98
8, 56226, Note_on_c, 5, 40, 0
8, 56240, Note_on_c, 5, 59, 72
8, 56244, Note_on_c, 5, 64, 72
8, 56252, Note_on_c, 5, 59, 0
8, 56254, Note_on_c, 5, 64, 0
8, 56262, Note_on_c, 5, 40, 96
8, 56384, Note_on_c, 5, 59, 72
8, 56396, Note_on_c, 5, 64, 72
8, 56402, Note_on_c, 5, 67, 72
8, 56590, Note_on_c, 5, 40, 0
8, 56616, Note_on_c, 5, 59, 0
8, 56620, Note_on_c, 5, 64, 0
8, 56636, Note_on_c, 5, 67, 0
8, 56636, Note_on_c, 5, 43, 87
8, 56640, Note_on_c, 5, 50, 84
8, 56642, Note_on_c, 5, 55, 84
8, 56840, Note_on_c, 5, 43, 0
8, 56844, Note_on_c, 5, 50, 0
8, 56846, Note_on_c, 5, 55, 0
8, 56876, Note_on_c, 5, 43, 84
8, 56880, Note_on_c, 5, 50, 84
8, 56882, Note_on_c, 5, 55, 84
8, 56994, Note_on_c, 5, 43, 0
8, 57080, Note_on_c, 5, 50, 0
8, 57112, Note_on_c, 5, 55, 0
8, 57120, Note_on_c, 5, 45, 87
8, 57174, Note_on_c, 5, 52, 84
8, 57180, Note_on_c, 5, 57, 84
8, 57204, Note_on_c, 5, 45, 0
8, 57240, Note_on_c, 5, 45, 87
8, 57270, Note_on_c, 5, 52, 0
8, 57288, Note_on_c, 5, 57, 0
8, 57324, Note_on_c, 5, 45, 0
8, 57350, Note_on_c, 5, 45, 84
8, 57360, Note_on_c, 5, 52, 84
8, 57372, Note_on_c, 5, 57, 84
8, 57600, Note_on_c, 5, 45, 0
8, 57600, Note_on_c, 5, 52, 0
8, 57600, Note_on_c, 5, 57, 0
8, 57600, Note_on_c, 5, 40, 93
8, 57820, Note_on_c, 5, 59, 72
8, 57828, Note_on_c, 5, 64, 72
8, 57832, Note_on_c, 5, 67, 72
8, 57850, Note_on_c, 5, 40, 0
8, 58052, Note_on_c, 5, 59, 0
8, 58060, Note_on_c, 5, 64, 0
8, 58068, Note_on_c, 5, 67, 0
8, 58082, Note_on_c, 5, 40, 98
8, 58146, Note_on_c, 5, 40, 0
8, 58160, Note_on_c, 5, 59, 72
8, 58164, Note_on_c, 5, 64, 72
8, 58172, Note_on_c, 5, 59, 0
8, 58174, Note_on_c, 5, 64, 0
8, 58182, Note_on_c, 5, 40, 96
8, 58304, Note_on_c, 5, 59, 72
8, 58316, Note_on_c, 5, 64, 72
8, 58322, Note_on_c, 5, 67, 72
8, 58510, Note_on_c, 5, 40, 0
8, 58536, Note_on_c, 5, 59, 0
8, 58540, Note_on_c, 5, 64, 0
8, 58556, Note_on_c, 5, 67, 0
8, 58556, Note_on_c, 5, 43, 87
8, 58560, Note_on_c, 5, 50, 84
8, 58562, Note_on_c, 5, 55, 84
8, 58760, Note_on_c, 5, 43, 0
8, 58764, Note_on_c, 5, 50, 0
8, 58766, Note_on_c, 5, 55, 0
8, 58796, Note_on_c, 5, 43, 84
8, 58800, Note_on_c, 5, 50, 84
8, 58802, Note_on_c, 5, 55, 84
8, 58914, Note_on_c, 5, 43, 0
8, 59000, Note_on_c, 5, 50, 0
8, 59032, Note_on_c, 5, 55, 0
8, 59040, Note_on_c, 5, 45, 87
8, 59094, Note_on_c, 5, 52, 84
8, 59100, Note_on_c, 5, 57, 84
8, 59124, Note_on_c, 5, 45, 0
8, 59160, Note_on_c, 5, 45, 87
8, 59190, Note_on_c, 5, 52, 0
8, 59208, Note_on_c, 5, 57, 0
8, 59244, Note_on_c, 5, 45, 0
8, 59270, Note_on_c, 5, 45, 84
8, 59280, Note_on_c, 5, 52, 84
8, 59288, Note_on_c, 5, 57, 84
8, 59518, Note_on_c, 5, 45, 0
8, 59518, Note_on_c, 5, 52, 0
8, 59520, Note_on_c, 5, 57, 0
8, 59520, Note_on_c, 5, 40, 84
8, 59666, Note_on_c, 5, 40, 0
8, 60960, Note_on_c, 5, 54, 127
8, 61070, Note_on_c, 5, 54, 0
8, 61080, Note_on_c, 5, 52, 127
8, 61200, Note_on_c, 5, 50, 127
8, 61204, Note_on_c, 5, 52, 0
8, 61436, Note_on_c, 5, 50, 0
8, 61440, Note_on_c, 5, 57, 127
8, 61468, Pitch_bend_c, 5, 8712
8, 61472, Pitch_bend_c, 5, 9622
8, 61476, Pitch_bend_c, 5, 10402
8, 61480, Pitch_bend_c, 5, 11832
8, 61482, Pitch_bend_c, 5, 12872
8, 61486, Pitch_bend_c, 5, 13782
8, 61490, Pitch_bend_c, 5, 15212
8, 61492, Pitch_bend_c, 5, 15732
8, 61496, Pitch_bend_c, 5, 16252
8, 61500, Pitch_bend_c, 5, 16382
8, 61560, Note_on_c, 5, 60, 127
8, 61566, Note_on_c, 5, 57, 0
8, 61674, Control_c, 5, 1, 8
8, 61680, Control_c, 5, 1, 14
8, 61680, Note_on_c, 5, 65, 127
8, 61686, Control_c, 5, 1, 22
8, 61688, Note_on_c, 5, 60, 0
8, 61690, Control_c, 5, 1, 28
8, 61694, Control_c, 5, 1, 34
8, 61700, Control_c, 5, 1, 40
8, 61704, Control_c, 5, 1, 46
8, 61708, Control_c, 5, 1, 52
8, 61716, Control_c, 5, 1, 58
8, 61724, Control_c, 5, 1, 64
8, 61728, Control_c, 5, 1, 70
8, 61736, Control_c, 5, 1, 76
8, 61744, Control_c, 5, 1, 82
8, 61754, Control_c, 5, 1, 88
8, 61794, Control_c, 5, 1, 92
8, 61830, Control_c, 5, 1, 86
8, 61852, Note_on_c, 5, 65, 0
8, 61870, Control_c, 5, 1, 80
8, 61878, Pitch_bend_c, 5, 15732
8, 61880, Pitch_bend_c, 5, 15342
8, 61884, Pitch_bend_c, 5, 14822
8, 61888, Control_c, 5, 1, 74
8, 61888, Pitch_bend_c, 5, 13782
8, 61890, Pitch_bend_c, 5, 13002
8, 61894, Pitch_bend_c, 5, 11702
8, 61896, Control_c, 5, 1, 68
8, 61898, Pitch_bend_c, 5, 10662
8, 61902, Pitch_bend_c, 5, 9622
8, 61902, Control_c, 5, 1, 60
8, 61904, Pitch_bend_c, 5, 8972
8, 61906, Control_c, 5, 1, 54
8, 61908, Pitch_bend_c, 5, 8582
8, 61910, Control_c, 5, 1, 46
8, 61912, Pitch_bend_c, 5, 8192
8, 61914, Control_c, 5, 1, 38
8, 61916, Control_c, 5, 1, 30
8, 61920, Note_on_c, 5, 57, 127
8, 61920, Control_c, 5, 1, 20
8, 61924, Control_c, 5, 1, 6
8, 61930, Control_c, 5, 1, 0
8, 61936, Pitch_bend_c, 5, 8712
8, 61940, Pitch_bend_c, 5, 9362
8, 61942, Pitch_bend_c, 5, 10272
8, 61946, Pitch_bend_c, 5, 11702
8, 61950, Pitch_bend_c, 5, 13132
8, 61954, Pitch_bend_c, 5, 15342
8, 61956, Pitch_bend_c, 5, 15862
8, 61960, Pitch_bend_c, 5, 16252
8, 61964, Pitch_bend_c, 5, 16382
8, 62040, Note_on_c, 5, 60, 127
8, 62044, Note_on_c, 5, 57, 0
8, 62142, Control_c, 5, 1, 6
8, 62146, Control_c, 5, 1, 12
8, 62154, Control_c, 5, 1, 20
8, 62156, Control_c, 5, 1, 26
8, 62158, Note_on_c, 5, 60, 0
8, 62160, Note_on_c, 5, 65, 125
8, 62162, Control_c, 5, 1, 32
8, 62168, Control_c, 5, 1, 40
8, 62172, Control_c, 5, 1, 46
8, 62176, Control_c, 5, 1, 52
8, 62182, Control_c, 5, 1, 60
8, 62190, Control_c, 5, 1, 66
8, 62194, Control_c, 5, 1, 72
8, 62202, Control_c, 5, 1, 78
8, 62208, Control_c, 5, 1, 84
8, 62230, Control_c, 5, 1, 90
8, 62274, Control_c, 5, 1, 88
8, 62304, Control_c, 5, 1, 90
8, 62342, Control_c, 5, 1, 84
8, 62348, Control_c, 5, 1, 78
8, 62354, Control_c, 5, 1, 70
8, 62358, Control_c, 5, 1, 60
8, 62362, Note_on_c, 5, 65, 0
8, 62362, Control_c, 5, 1, 44
8, 62366, Control_c, 5, 1, 32
8, 62368, Control_c, 5, 1, 18
8, 62372, Control_c, 5, 1, 6
8, 62380, Control_c, 5, 1, 0
8, 62384, Pitch_bend_c, 5, 15732
8, 62388, Pitch_bend_c, 5, 14822
8, 62390, Pitch_bend_c, 5, 13262
8, 62394, Pitch_bend_c, 5, 10272
8, 62396, Pitch_bend_c, 5, 8712
8, 62398, Pitch_bend_c, 5, 8256
8, 62400, Note_on_c, 5, 57, 127
8, 62412, Pitch_bend_c, 5, 8576
8, 62416, Pitch_bend_c, 5, 8896
8, 62420, Pitch_bend_c, 5, 9280
8, 62424, Pitch_bend_c, 5, 9600
8, 62426, Pitch_bend_c, 5, 9984
8, 62430, Pitch_bend_c, 5, 10304
8, 62434, Pitch_bend_c, 5, 10752
8, 62436, Pitch_bend_c, 5, 11072
8, 62440, Pitch_bend_c, 5, 11392
8, 62444, Pitch_bend_c, 5, 11712
8, 62446, Pitch_bend_c, 5, 12096
8, 62450, Pitch_bend_c, 5, 12608
8, 62452, Pitch_bend_c, 5, 13120
8, 62456, Pitch_bend_c, 5, 13696
8, 62458, Pitch_bend_c, 5, 14528
8, 62460, Pitch_bend_c, 5, 15936
8, 62514, Note_on_c, 5, 57, 0
8, 62520, Note_on_c, 5, 60, 127
8, 62638, Note_on_c, 5, 60, 0
8, 62640, Note_on_c, 5, 65, 127
8, 62752, Pitch_bend_c, 5, 8256
8, 62758, Note_on_c, 5, 65, 0
8, 62760, Note_on_c, 5, 57, 127
8, 62824, Control_c, 5, 1, 2
8, 62826, Control_c, 5, 1, 8
8, 62830, Control_c, 5, 1, 14
8, 62832, Control_c, 5, 1, 20
8, 62836, Control_c, 5, 1, 28
8, 62840, Control_c, 5, 1, 34
8, 62844, Control_c, 5, 1, 42
8, 62854, Control_c, 5, 1, 48
8, 62890, Control_c, 5, 1, 54
8, 62920, Control_c, 5, 1, 60
8, 62930, Control_c, 5, 1, 62
8, 63138, Control_c, 5, 1, 56
8, 63146, Control_c, 5, 1, 50
8, 63150, Control_c, 5, 1, 44
8, 63152, Control_c, 5, 1, 38
8, 63156, Control_c, 5, 1, 16
8, 63158, Note_on_c, 5, 57, 0
8, 63160, Control_c, 5, 1, 8
8, 63164, Control_c, 5, 1, 0
8, 63360, Note_on_c, 5, 55, 123
8, 63470, Note_on_c, 5, 55, 0
8, 63480, Note_on_c, 5, 50, 127
8, 63576, Note_on_c, 5, 38, 90
8, 63612, Pitch_bend_c, 5, 8712
8, 63616, Pitch_bend_c, 5, 10012
8, 63620, Pitch_bend_c, 5, 10922
8, 63622, Pitch_bend_c, 5, 12352
8, 63626, Pitch_bend_c, 5, 13782
8, 63630, Pitch_bend_c, 5, 15602
8, 63632, Pitch_bend_c, 5, 15992
8, 63638, Pitch_bend_c, 5, 16382
8, 63668, Note_on_c, 5, 50, 0
8, 63712, Note_on_c, 5, 38, 0
8, 63714, Pitch_bend_c, 5, 15992
8, 63716, Pitch_bend_c, 5, 15472
8, 63720, Note_on_c, 5, 50, 127
8, 63720, Pitch_bend_c, 5, 13912
8, 63724, Pitch_bend_c, 5, 13002
8, 63726, Pitch_bend_c, 5, 11312
8, 63730, Pitch_bend_c, 5, 9882
8, 63734, Pitch_bend_c, 5, 9232
8, 63736, Pitch_bend_c, 5, 8712
8, 63742, Pitch_bend_c, 5, 8192
8, 63796, Pitch_bend_c, 5, 8582
8, 63798, Pitch_bend_c, 5, 10662
8, 63802, Pitch_bend_c, 5, 12352
8, 63804, Pitch_bend_c, 5, 14692
8, 63808, Pitch_bend_c, 5, 15472
8, 63810, Pitch_bend_c, 5, 16122
8, 63816, Pitch_bend_c, 5, 16382
8, 64002, Control_c, 5, 1, 6
8, 64010, Control_c, 5, 1, 14
8, 64014, Control_c, 5, 1, 20
8, 64018, Control_c, 5, 1, 26
8, 64030, Control_c, 5, 1, 32
8, 64042, Control_c, 5, 1, 38
8, 64048, Control_c, 5, 1, 44
8, 64060, Control_c, 5, 1, 50
8, 64074, Control_c, 5, 1, 52
8, 64190, Control_c, 5, 1, 46
8, 64194, Control_c, 5, 1, 40
8, 64198, Control_c, 5, 1, 34
8, 64202, Control_c, 5, 1, 24
8, 64208, Note_on_c, 5, 50, 0
8, 64208, Control_c, 5, 1, 12
8, 64212, Control_c, 5, 1, 2
8, 64212, Control_c, 5, 1, 0
8, 64320, Note_on_c, 5, 57, 127
8, 64332, Pitch_bend_c, 5, 8576
8, 64336, Pitch_bend_c, 5, 8896
8, 64340, Pitch_bend_c, 5, 9280
8, 64344, Pitch_bend_c, 5, 9600
8, 64346, Pitch_bend_c, 5, 9984
8, 64350, Pitch_bend_c, 5, 10304
8, 64354, Pitch_bend_c, 5, 10752
8, 64356, Pitch_bend_c, 5, 11072
8, 64360, Pitch_bend_c, 5, 11392
8, 64364, Pitch_bend_c, 5, 11712
8, 64366, Pitch_bend_c, 5, 12096
8, 64370, Pitch_bend_c, 5, 12608
8, 64372, Pitch_bend_c, 5, 13120
8, 64376, Pitch_bend_c, 5, 13696
8, 64378, Pitch_bend_c, 5, 14528
8, 64380, Pitch_bend_c, 5, 15936
8, 64438, Note_on_c, 5, 57, 0
8, 64440, Note_on_c, 5, 60, 127
8, 64560, Note_on_c, 5, 60, 0
8, 64560, Note_on_c, 5, 65, 127
8, 64670, Pitch_bend_c, 5, 15616
8, 64672, Pitch_bend_c, 5, 15104
8, 64674, Note_on_c, 5, 65, 0
8, 64676, Pitch_bend_c, 5, 14656
8, 64678, Pitch_bend_c, 5, 14144
8, 64680, Note_on_c, 5, 57, 127
8, 64682, Pitch_bend_c, 5, 13632
8, 64684, Pitch_bend_c, 5, 13184
8, 64688, Pitch_bend_c, 5, 12672
8, 64690, Pitch_bend_c, 5, 12288
8, 64694, Pitch_bend_c, 5, 11840
8, 64696, Pitch_bend_c, 5, 11456
8, 64700, Pitch_bend_c, 5, 11136
8, 64702, Pitch_bend_c, 5, 10624
8, 64706, Pitch_bend_c, 5, 10112
8, 64708, Pitch_bend_c, 5, 9792
8, 64712, Pitch_bend_c, 5, 9408
8, 64714, Pitch_bend_c, 5, 9024
8, 64718, Pitch_bend_c, 5, 8512
8, 64722, Pitch_bend_c, 5, 8256
8, 64746, Control_c, 5, 1, 8
8, 64750, Control_c, 5, 1, 14
8, 64752, Control_c, 5, 1, 20
8, 64756, Control_c, 5, 1, 28
8, 64760, Control_c, 5, 1, 34
8, 64764, Control_c, 5, 1, 42
8, 64774, Control_c, 5, 1, 48
8, 64810, Control_c, 5, 1, 54
8, 64840, Control_c, 5, 1, 60
8, 64850, Control_c, 5, 1, 62
8, 65058, Control_c, 5, 1, 56
8, 65066, Control_c, 5, 1, 50
8, 65070, Control_c, 5, 1, 44
8, 65072, Control_c, 5, 1, 38
8, 65076, Control_c, 5, 1, 16
8, 65078, Note_on_c, 5, 57, 0
8, 65080, Control_c, 5, 1, 8
8, 65084, Control_c, 5, 1, 0
8, 65280, Note_on_c, 5, 55, 123
8, 65390, Note_on_c, 5, 55, 0
8, 65400, Note_on_c, 5, 50, 127
8, 65502, Note_on_c, 5, 38, 90
8, 65532, Pitch_bend_c, 5, 8712
8, 65536, Pitch_bend_c, 5, 10012
8, 65540, Pitch_bend_c, 5, 10922
8, 65542, Pitch_bend_c, 5, 12352
8, 65546, Pitch_bend_c, 5, 13782
8, 65550, Pitch_bend_c, 5, 15602
8, 65552, Pitch_bend_c, 5, 15992
8, 65558, Pitch_bend_c, 5, 16382
8, 65608, Note_on_c, 5, 50, 0
8, 65634, Pitch_bend_c, 5, 15992
8, 65636, Pitch_bend_c, 5, 15472
8, 65640, Note_on_c, 5, 50, 127
8, 65640, Pitch_bend_c, 5, 13912
8, 65644, Pitch_bend_c, 5, 13002
8, 65646, Note_on_c, 5, 38, 0
8, 65646, Pitch_bend_c, 5, 11312
8, 65650, Pitch_bend_c, 5, 9882
8, 65654, Pitch_bend_c, 5, 9232
8, 65656, Pitch_bend_c, 5, 8712
8, 65662, Pitch_bend_c, 5, 8192
8, 65716, Pitch_bend_c, 5, 8582
8, 65718, Pitch_bend_c, 5, 10662
8, 65722, Pitch_bend_c, 5, 12352
8, 65724, Pitch_bend_c, 5, 14692
8, 65728, Pitch_bend_c, 5, 15472
8, 65730, Pitch_bend_c, 5, 16122
8, 65736, Pitch_bend_c, 5, 16382
8, 65922, Control_c, 5, 1, 6
8, 65930, Control_c, 5, 1, 14
8, 65934, Control_c, 5, 1, 20
8, 65938, Control_c, 5, 1, 26
8, 65950, Control_c, 5, 1, 32
8, 65962, Control_c, 5, 1, 38
8, 65968, Control_c, 5, 1, 44
8, 65980, Control_c, 5, 1, 50
8, 65994, Control_c, 5, 1, 52
8, 66000, Note_on_c, 5, 50, 0
8, 66000, Pitch_bend_c, 5, 8256
8, 66108, Note_on_c, 5, 50, 122
8, 66110, Control_c, 5, 1, 46
8, 66114, Control_c, 5, 1, 40
8, 66118, Control_c, 5, 1, 34
8, 66122, Control_c, 5, 1, 24
8, 66128, Control_c, 5, 1, 12
8, 66132, Pitch_bend_c, 5, 8582
8, 66132, Control_c, 5, 1, 2
8, 66132, Control_c, 5, 1, 0
8, 66134, Pitch_bend_c, 5, 9102
8, 66138, Pitch_bend_c, 5, 10272
8, 66142, Pitch_bend_c, 5, 11052
8, 66144, Pitch_bend_c, 5, 12612
8, 66150, Pitch_bend_c, 5, 14562
8, 66154, Pitch_bend_c, 5, 15862
8, 66158, Pitch_bend_c, 5, 16252
8, 66160, Pitch_bend_c, 5, 16382
8, 66214, Note_on_c, 5, 50, 0
8, 66220, Pitch_bend_c, 5, 15862
8, 66224, Pitch_bend_c, 5, 8256
8, 66224, Pitch_bend_c, 5, 13392
8, 66228, Pitch_bend_c, 5, 10532
8, 66230, Pitch_bend_c, 5, 8192
8, 66232, Pitch_bend_c, 5, 8064
8, 66234, Pitch_bend_c, 5, 8192
8, 66238, Pitch_bend_c, 5, 8582
8, 66240, Note_on_c, 5, 55, 113
8, 66240, Pitch_bend_c, 5, 8972
8, 66246, Pitch_bend_c, 5, 8452
8, 66246, Pitch_bend_c, 5, 8192
8, 66250, Pitch_bend_c, 5, 7936
8, 66256, Pitch_bend_c, 5, 8192
8, 66336, Note_on_c, 5, 55, 0
8, 66360, Note_on_c, 5, 57, 113
8, 66434, Note_on_c, 5, 57, 0
8, 66480, Note_on_c, 5, 59, 113
8, 66584, Note_on_c, 5, 59, 0
8, 66600, Note_on_c, 5, 53, 113
8, 66608, Pitch_bend_c, 5, 8712
8, 66612, Pitch_bend_c, 5, 9102
8, 66614, Pitch_bend_c, 5, 9622
8, 66618, Pitch_bend_c, 5, 10402
8, 66624, Pitch_bend_c, 5, 11312
8, 66628, Pitch_bend_c, 5, 12742
8, 66630, Pitch_bend_c, 5, 13522
8, 66634, Pitch_bend_c, 5, 14692
8, 66638, Pitch_bend_c, 5, 15472
8, 66640, Pitch_bend_c, 5, 15862
8, 66644, Pitch_bend_c, 5, 16252
8, 66646, Pitch_bend_c, 5, 16382
8, 66846, Pitch_bend_c, 5, 15992
8, 66848, Pitch_bend_c, 5, 15472
8, 66852, Pitch_bend_c, 5, 15082
8, 66856, Pitch_bend_c, 5, 14432
8, 66860, Pitch_bend_c, 5, 14042
8, 66864, Pitch_bend_c, 5, 13782
8, 66872, Pitch_bend_c, 5, 14172
8, 66878, Pitch_bend_c, 5, 15212
8, 66880, Pitch_bend_c, 5, 15732
8, 66884, Pitch_bend_c, 5, 16252
8, 66888, Pitch_bend_c, 5, 16382
8, 66906, Pitch_bend_c, 5, 15992
8, 66908, Pitch_bend_c, 5, 15602
8, 66912, Pitch_bend_c, 5, 14692
8, 66914, Pitch_bend_c, 5, 13912
8, 66918, Pitch_bend_c, 5, 13132
8, 66922, Pitch_bend_c, 5, 12742
8, 66924, Pitch_bend_c, 5, 12352
8, 66932, Pitch_bend_c, 5, 12872
8, 66936, Pitch_bend_c, 5, 13652
8, 66938, Pitch_bend_c, 5, 15212
8, 66942, Pitch_bend_c, 5, 15732
8, 66946, Pitch_bend_c, 5, 16252
8, 66950, Pitch_bend_c, 5, 16382
8, 66976, Pitch_bend_c, 5, 15732
8, 66980, Pitch_bend_c, 5, 15342
8, 66984, Pitch_bend_c, 5, 15082
8, 66992, Pitch_bend_c, 5, 15602
8, 66994, Pitch_bend_c, 5, 16122
8, 67000, Pitch_bend_c, 5, 16382
8, 67042, Pitch_bend_c, 5, 16252
8, 67046, Pitch_bend_c, 5, 16382
8, 67096, Pitch_bend_c, 5, 15992
8, 67100, Note_on_c, 5, 53, 0
8, 67106, Pitch_bend_c, 5, 16382
8, 67120, Pitch_bend_c, 5, 15992
8, 67124, Pitch_bend_c, 5, 13522
8, 67126, Pitch_bend_c, 5, 10532
8, 67130, Pitch_bend_c, 5, 7808
8, 67132, Pitch_bend_c, 5, 7552
8, 67136, Pitch_bend_c, 5, 7936
8, 67136, Pitch_bend_c, 5, 8192
8, 67140, Pitch_bend_c, 5, 8972
8, 67144, Pitch_bend_c, 5, 8582
8, 67146, Pitch_bend_c, 5, 8192
8, 67148, Pitch_bend_c, 5, 7808
8, 67156, Pitch_bend_c, 5, 8192
8, 67180, Note_on_c, 5, 53, 108
8, 67206, Pitch_bend_c, 5, 8712
8, 67210, Pitch_bend_c, 5, 9492
8, 67212, Pitch_bend_c, 5, 10402
8, 67216, Pitch_bend_c, 5, 11832
8, 67220, Pitch_bend_c, 5, 13002
8, 67222, Pitch_bend_c, 5, 14172
8, 67226, Pitch_bend_c, 5, 15472
8, 67228, Pitch_bend_c, 5, 15992
8, 67236, Pitch_bend_c, 5, 16382
8, 67314, Note_on_c, 5, 53, 0
8, 67320, Note_on_c, 5, 45, 122
8, 67322, Pitch_bend_c, 5, 14822
8, 67326, Pitch_bend_c, 5, 12742
8, 67330, Pitch_bend_c, 5, 8192
8, 67332, Pitch_bend_c, 5, 7296
8, 67336, Pitch_bend_c, 5, 7936
8, 67336, Pitch_bend_c, 5, 8192
8, 67340, Pitch_bend_c, 5, 8842
8, 67342, Pitch_bend_c, 5, 8972
8, 67346, Pitch_bend_c, 5, 8322
8, 67346, Pitch_bend_c, 5, 8192
8, 67350, Pitch_bend_c, 5, 7680
8, 67354, Pitch_bend_c, 5, 8064
8, 67356, Pitch_bend_c, 5, 8192
8, 67366, Pitch_bend_c, 5, 8064
8, 67368, Pitch_bend_c, 5, 8192
8, 67434, Note_on_c, 5, 45, 0
8, 67440, Note_on_c, 5, 40, 113
8, 67554, Note_on_c, 5, 40, 0
8, 67560, Note_on_c, 5, 43, 104
8, 67686, Pitch_bend_c, 5, 8582
8, 67694, Pitch_bend_c, 5, 8972
8, 67708, Pitch_bend_c, 5, 8582
8, 67714, Pitch_bend_c, 5, 8192
8, 67798, Pitch_bend_c, 5, 7808
8, 67802, Pitch_bend_c, 5, 7552
8, 67814, Pitch_bend_c, 5, 7936
8, 67818, Pitch_bend_c, 5, 8192
8, 67828, Pitch_bend_c, 5, 8582
8, 67832, Pitch_bend_c, 5, 9102
8, 67836, Pitch_bend_c, 5, 9622
8, 67838, Pitch_bend_c, 5, 10532
8, 67842, Pitch_bend_c, 5, 11052
8, 67844, Pitch_bend_c, 5, 11442
8, 67846, Pitch_bend_c, 5, 11572
8, 67856, Pitch_bend_c, 5, 11182
8, 67862, Pitch_bend_c, 5, 10662
8, 67864, Pitch_bend_c, 5, 10012
8, 67868, Pitch_bend_c, 5, 9622
8, 67870, Pitch_bend_c, 5, 9232
8, 67874, Pitch_bend_c, 5, 8842
8, 67878, Pitch_bend_c, 5, 8452
8, 67880, Pitch_bend_c, 5, 8322
8, 67892, Pitch_bend_c, 5, 8712
8, 67896, Pitch_bend_c, 5, 9492
8, 67898, Pitch_bend_c, 5, 9882
8, 67902, Pitch_bend_c, 5, 10792
8, 67906, Pitch_bend_c, 5, 11312
8, 67908, Pitch_bend_c, 5, 11832
8, 67912, Pitch_bend_c, 5, 12352
8, 67918, Pitch_bend_c, 5, 12612
8, 67924, Pitch_bend_c, 5, 12092
8, 67928, Pitch_bend_c, 5, 11702
8, 67932, Pitch_bend_c, 5, 11182
8, 67936, Pitch_bend_c, 5, 10792
8, 67938, Pitch_bend_c, 5, 9882
8, 67942, Pitch_bend_c, 5, 9492
8, 67944, Pitch_bend_c, 5, 9102
8, 67948, Pitch_bend_c, 5, 8712
8, 67954, Pitch_bend_c, 5, 8452
8, 67966, Pitch_bend_c, 5, 8842
8, 67970, Pitch_bend_c, 5, 10272
8, 67972, Pitch_bend_c, 5, 10662
8, 67976, Pitch_bend_c, 5, 11442
8, 67980, Pitch_bend_c, 5, 11832
8, 67982, Pitch_bend_c, 5, 12352
8, 67988, Pitch_bend_c, 5, 12612
8, 67998, Pitch_bend_c, 5, 12092
8, 68006, Pitch_bend_c, 5, 11572
8, 68008, Pitch_bend_c, 5, 11182
8, 68012, Pitch_bend_c, 5, 10792
8, 68016, Pitch_bend_c, 5, 9882
8, 68018, Pitch_bend_c, 5, 9492
8, 68020, Note_on_c, 5, 43, 0
8, 68022, Pitch_bend_c, 5, 8972
8, 68024, Pitch_bend_c, 5, 8582
8, 68030, Pitch_bend_c, 5, 8192
8, 68046, Note_on_c, 5, 45, 127
8, 68146, Note_on_c, 5, 45, 0
8, 68158, Note_on_c, 5, 45, 127
8, 68190, Pitch_bend_c, 5, 8842
8, 68192, Pitch_bend_c, 5, 9362
8, 68196, Pitch_bend_c, 5, 10922
8, 68198, Pitch_bend_c, 5, 11702
8, 68202, Pitch_bend_c, 5, 13522
8, 68206, Pitch_bend_c, 5, 14562
8, 68210, Pitch_bend_c, 5, 15862
8, 68212, Pitch_bend_c, 5, 16252
8, 68216, Pitch_bend_c, 5, 16382
8, 68254, Note_on_c, 5, 45, 0
8, 68284, Note_on_c, 5, 53, 122
8, 68370, Pitch_bend_c, 5, 15992
8, 68374, Pitch_bend_c, 5, 15212
8, 68378, Pitch_bend_c, 5, 14692
8, 68380, Pitch_bend_c, 5, 13002
8, 68384, Pitch_bend_c, 5, 11702
8, 68388, Pitch_bend_c, 5, 9752
8, 68390, Pitch_bend_c, 5, 9362
8, 68392, Note_on_c, 5, 53, 0
8, 68394, Pitch_bend_c, 5, 8582
8, 68396, Note_on_c, 5, 57, 122
8, 68398, Pitch_bend_c, 5, 8192
8, 68422, Pitch_bend_c, 5, 8582
8, 68424, Pitch_bend_c, 5, 9752
8, 68428, Pitch_bend_c, 5, 10662
8, 68430, Pitch_bend_c, 5, 12092
8, 68434, Pitch_bend_c, 5, 13912
8, 68438, Pitch_bend_c, 5, 15732
8, 68442, Pitch_bend_c, 5, 16122
8, 68444, Pitch_bend_c, 5, 16382
8, 68498, Pitch_bend_c, 5, 15992
8, 68500, Pitch_bend_c, 5, 15472
8, 68504, Pitch_bend_c, 5, 13652
8, 68508, Pitch_bend_c, 5, 11702
8, 68512, Note_on_c, 5, 57, 0
8, 68512, Pitch_bend_c, 5, 10012
8, 68516, Pitch_bend_c, 5, 9102
8, 68518, Pitch_bend_c, 5, 8192
8, 68518, Note_on_c, 5, 55, 125
8, 68524, Pitch_bend_c, 5, 7680
8, 68528, Pitch_bend_c, 5, 7296
8, 68530, Pitch_bend_c, 5, 7168
8, 68538, Pitch_bend_c, 5, 7552
8, 68542, Pitch_bend_c, 5, 7936
8, 68548, Pitch_bend_c, 5, 8192
8, 68552, Pitch_bend_c, 5, 8582
8, 68556, Pitch_bend_c, 5, 9752
8, 68558, Pitch_bend_c, 5, 11052
8, 68562, Pitch_bend_c, 5, 11962
8, 68564, Pitch_bend_c, 5, 14172
8, 68568, Pitch_bend_c, 5, 15212
8, 68570, Pitch_bend_c, 5, 15992
8, 68576, Pitch_bend_c, 5, 16382
8, 68708, Control_c, 5, 1, 6
8, 68716, Control_c, 5, 1, 12
8, 68726, Control_c, 5, 1, 18
8, 68740, Control_c, 5, 1, 26
8, 68754, Control_c, 5, 1, 32
8, 68772, Control_c, 5, 1, 38
8, 68788, Control_c, 5, 1, 44
8, 68802, Control_c, 5, 1, 50
8, 68836, Control_c, 5, 1, 56
8, 68850, Control_c, 5, 1, 62
8, 68870, Control_c, 5, 1, 68
8, 68874, Note_on_c, 5, 55, 0
8, 68880, Control_c, 5, 1, 1
8, 68880, Pitch_bend_c, 5, 8256
8, 68884, Note_on_c, 5, 55, 127
8, 68996, Note_on_c, 5, 55, 0
8, 68998, Note_on_c, 5, 50, 127
8, 69116, Note_on_c, 5, 57, 125
8, 69118, Note_on_c, 5, 50, 0
8, 69160, Pitch_bend_c, 5, 8712
8, 69162, Pitch_bend_c, 5, 9232
8, 69166, Pitch_bend_c, 5, 9752
8, 69170, Pitch_bend_c, 5, 11052
8, 69172, Pitch_bend_c, 5, 11962
8, 69176, Pitch_bend_c, 5, 13652
8, 69178, Pitch_bend_c, 5, 14952
8, 69186, Pitch_bend_c, 5, 15602
8, 69190, Pitch_bend_c, 5, 16382
8, 69238, Note_on_c, 5, 57, 0
8, 69250, Note_on_c, 5, 60, 126
8, 69318, Note_on_c, 5, 60, 0
8, 69368, Note_on_c, 5, 60, 127
8, 69448, Note_on_c, 5, 60, 0
8, 69466, Pitch_bend_c, 5, 15992
8, 69468, Pitch_bend_c, 5, 15472
8, 69472, Pitch_bend_c, 5, 14692
8, 69476, Pitch_bend_c, 5, 14042
8, 69478, Pitch_bend_c, 5, 13002
8, 69482, Pitch_bend_c, 5, 12352
8, 69486, Pitch_bend_c, 5, 10792
8, 69490, Pitch_bend_c, 5, 9882
8, 69492, Pitch_bend_c, 5, 9362
8, 69492, Note_on_c, 5, 62, 127
8, 69496, Pitch_bend_c, 5, 8972
8, 69500, Pitch_bend_c, 5, 8452
8, 69502, Pitch_bend_c, 5, 8192
8, 69534, Pitch_bend_c, 5, 8582
8, 69538, Pitch_bend_c, 5, 9102
8, 69540, Pitch_bend_c, 5, 10272
8, 69546, Pitch_bend_c, 5, 11442
8, 69550, Pitch_bend_c, 5, 13262
8, 69552, Pitch_bend_c, 5, 14172
8, 69556, Pitch_bend_c, 5, 15082
8, 69560, Pitch_bend_c, 5, 15862
8, 69564, Pitch_bend_c, 5, 16252
8, 69566, Pitch_bend_c, 5, 16382
8, 69642, Control_c, 5, 1, 6
8, 69648, Control_c, 5, 1, 12
8, 69652, Control_c, 5, 1, 18
8, 69660, Control_c, 5, 1, 24
8, 69666, Control_c, 5, 1, 30
8, 69672, Control_c, 5, 1, 36
8, 69682, Control_c, 5, 1, 42
8, 69690, Control_c, 5, 1, 48
8, 69698, Control_c, 5, 1, 54
8, 69706, Control_c, 5, 1, 60
8, 69716, Control_c, 5, 1, 66
8, 69748, Control_c, 5, 1, 72
8, 69836, Note_on_c, 5, 62, 0
8, 69840, Control_c, 5, 1, 0
8, 69846, Pitch_bend_c, 5, 8322
8, 69848, Pitch_bend_c, 5, 8712
8, 69852, Pitch_bend_c, 5, 9102
8, 69852, Note_on_c, 5, 50, 91
8, 69854, Pitch_bend_c, 5, 9752
8, 69858, Pitch_bend_c, 5, 10792
8, 69862, Pitch_bend_c, 5, 11702
8, 69866, Pitch_bend_c, 5, 13132
8, 69870, Pitch_bend_c, 5, 13782
8, 69874, Pitch_bend_c, 5, 15472
8, 69876, Pitch_bend_c, 5, 16122
8, 69880, Pitch_bend_c, 5, 16382
8, 69972, Note_on_c, 5, 45, 90
8, 69978, Note_on_c, 5, 50, 0
8, 69980, Pitch_bend_c, 5, 15992
8, 69982, Pitch_bend_c, 5, 15602
8, 69986, Pitch_bend_c, 5, 14692
8, 69990, Pitch_bend_c, 5, 14042
8, 69992, Pitch_bend_c, 5, 13782
8, 69992, Pitch_bend_c, 5, 16252
8, 69994, Pitch_bend_c, 5, 13132
8, 69994, Pitch_bend_c, 5, 15992
8, 69994, Pitch_bend_c, 5, 12742
8, 69996, Pitch_bend_c, 5, 15732
8, 69996, Pitch_bend_c, 5, 12352
8, 69998, Pitch_bend_c, 5, 14952
8, 69998, Pitch_bend_c, 5, 11832
8, 70000, Pitch_bend_c, 5, 14562
8, 70000, Pitch_bend_c, 5, 11442
8, 70000, Pitch_bend_c, 5, 14042
8, 70002, Pitch_bend_c, 5, 10012
8, 70004, Pitch_bend_c, 5, 13262
8, 70004, Pitch_bend_c, 5, 9752
8, 70004, Pitch_bend_c, 5, 13002
8, 70006, Pitch_bend_c, 5, 9492
8, 70006, Pitch_bend_c, 5, 11962
8, 70008, Pitch_bend_c, 5, 9232
8, 70008, Pitch_bend_c, 5, 11052
8, 70008, Pitch_bend_c, 5, 9102
8, 70010, Pitch_bend_c, 5, 10662
8, 70010, Pitch_bend_c, 5, 8712
8, 70012, Pitch_bend_c, 5, 10272
8, 70012, Pitch_bend_c, 5, 8582
8, 70014, Pitch_bend_c, 5, 9362
8, 70014, Pitch_bend_c, 5, 8452
8, 70016, Pitch_bend_c, 5, 9102
8, 70016, Pitch_bend_c, 5, 8322
8, 70016, Pitch_bend_c, 5, 8842
8, 70018, Pitch_bend_c, 5, 8192
8, 70024, Pitch_bend_c, 5, 7680
8, 70028, Pitch_bend_c, 5, 6272
8, 70032, Pitch_bend_c, 5, 5120
8, 70034, Pitch_bend_c, 5, 4096
8, 70038, Pitch_bend_c, 5, 3328
8, 70042, Pitch_bend_c, 5, 2048
8, 70046, Pitch_bend_c, 5, 896
8, 70050, Pitch_bend_c, 5, 128
8, 70050, Pitch_bend_c, 5, 0
8, 70078, Note_on_c, 5, 45, 0
8, 70078, Pitch_bend_c, 5, 8256
8, 70080, Note_on_c, 5, 40, 93
8, 70300, Note_on_c, 5, 59, 72
8, 70308, Note_on_c, 5, 64, 72
8, 70312, Note_on_c, 5, 67, 72
8, 70330, Note_on_c, 5, 40, 0
8, 70472, Note_on_c, 5, 59, 0
8, 70476, Note_on_c, 5, 64, 0
8, 70478, Note_on_c, 5, 67, 0
8, 70506, Note_on_c, 5, 59, 72
8, 70510, Note_on_c, 5, 64, 72
8, 70510, Note_on_c, 5, 67, 72
8, 70534, Note_on_c, 5, 59, 0
8, 70534, Note_on_c, 5, 64, 0
8, 70544, Note_on_c, 5, 67, 0
8, 70562, Note_on_c, 5, 40, 98
8, 70596, Note_on_c, 5, 40, 0
8, 70640, Note_on_c, 5, 59, 72
8, 70644, Note_on_c, 5, 64, 72
8, 70646, Note_on_c, 5, 67, 72
8, 70656, Note_on_c, 5, 59, 0
8, 70658, Note_on_c, 5, 64, 0
8, 70662, Note_on_c, 5, 40, 96
8, 70670, Note_on_c, 5, 67, 0
8, 70784, Note_on_c, 5, 59, 72
8, 70796, Note_on_c, 5, 64, 72
8, 70802, Note_on_c, 5, 67, 72
8, 70810, Note_on_c, 5, 40, 0
8, 71016, Note_on_c, 5, 59, 0
8, 71020, Note_on_c, 5, 64, 0
8, 71036, Note_on_c, 5, 67, 0
8, 71036, Note_on_c, 5, 43, 87
8, 71040, Note_on_c, 5, 50, 84
8, 71042, Note_on_c, 5, 55, 84
8, 71240, Note_on_c, 5, 43, 0
8, 71244, Note_on_c, 5, 50, 0
8, 71246, Note_on_c, 5, 55, 0
8, 71276, Note_on_c, 5, 43, 84
8, 71280, Note_on_c, 5, 50, 84
8, 71282, Note_on_c, 5, 55, 84
8, 71394, Note_on_c, 5, 43, 0
8, 71480, Note_on_c, 5, 50, 0
8, 71512, Note_on_c, 5, 55, 0
8, 71520, Note_on_c, 5, 45, 87
8, 71574, Note_on_c, 5, 52, 84
8, 71580, Note_on_c, 5, 57, 84
8, 71604, Note_on_c, 5, 45, 0
8, 71640, Note_on_c, 5, 45, 87
8, 71670, Note_on_c, 5, 52, 0
8, 71688, Note_on_c, 5, 57, 0
8, 71724, Note_on_c, 5, 45, 0
8, 71750, Note_on_c, 5, 45, 84
8, 71760, Note_on_c, 5, 52, 84
8, 71772, Note_on_c, 5, 57, 84
8, 71996, Note_on_c, 5, 52, 0
8, 71998, Note_on_c, 5, 45, 0
8, 72000, Note_on_c, 5, 57, 0
8, 72000, Note_on_c, 5, 40, 93
8, 72220, Note_on_c, 5, 59, 72
8, 72228, Note_on_c, 5, 64, 72
8, 72232, Note_on_c, 5, 67, 72
8, 72250, Note_on_c, 5, 40, 0
8, 72452, Note_on_c, 5, 59, 0
8, 72460, Note_on_c, 5, 64, 0
8, 72468, Note_on_c, 5, 67, 0
8, 72482, Note_on_c, 5, 40, 98
8, 72546, Note_on_c, 5, 40, 0
8, 72560, Note_on_c, 5, 59, 72
8, 72564, Note_on_c, 5, 64, 72
8, 72582, Note_on_c, 5, 40, 96
8, 72584, Note_on_c, 5, 59, 0
8, 72586, Note_on_c, 5, 64, 0
8, 72704, Note_on_c, 5, 59, 72
8, 72716, Note_on_c, 5, 64, 72
8, 72722, Note_on_c, 5, 67, 72
8, 72910, Note_on_c, 5, 40, 0
8, 72936, Note_on_c, 5, 59, 0
8, 72940, Note_on_c, 5, 64, 0
8, 72956, Note_on_c, 5, 67, 0
8, 72956, Note_on_c, 5, 43, 87
8, 72960, Note_on_c, 5, 50, 84
8, 72962, Note_on_c, 5, 55, 84
8, 73160, Note_on_c, 5, 43, 0
8, 73164, Note_on_c, 5, 50, 0
8, 73166, Note_on_c, 5, 55, 0
8, 73196, Note_on_c, 5, 43, 84
8, 73200, Note_on_c, 5, 50, 84
8, 73202, Note_on_c, 5, 55, 84
8, 73314, Note_on_c, 5, 43, 0
8, 73400, Note_on_c, 5, 50, 0
8, 73432, Note_on_c, 5, 55, 0
8, 73440, Note_on_c, 5, 45, 87
8, 73494, Note_on_c, 5, 52, 84
8, 73500, Note_on_c, 5, 57, 84
8, 73524, Note_on_c, 5, 45, 0
8, 73560, Note_on_c, 5, 45, 87
8, 73590, Note_on_c, 5, 52, 0
8, 73608, Note_on_c, 5, 57, 0
8, 73644, Note_on_c, 5, 45, 0
8, 73668, Note_on_c, 5, 45, 84
8, 73680, Note_on_c, 5, 57, 84
8, 73680, Note_on_c, 5, 52, 84
8, 73914, Note_on_c, 5, 45, 0
8, 73916, Note_on_c, 5, 52, 0
8, 73918, Note_on_c, 5, 57, 0
8, 73920, Note_on_c, 5, 40, 93
8, 74140, Note_on_c, 5, 59, 72
8, 74148, Note_on_c, 5, 64, 72
8, 74152, Note_on_c, 5, 67, 72
8, 74170, Note_on_c, 5, 40, 0
8, 74312, Note_on_c, 5, 59, 0
8, 74316, Note_on_c, 5, 64, 0
8, 74318, Note_on_c, 5, 67, 0
8, 74346, Note_on_c, 5, 59, 72
8, 74374, Note_on_c, 5, 59, 0
8, 74402, Note_on_c, 5, 40, 98
8, 74480, Note_on_c, 5, 59, 72
8, 74484, Note_on_c, 5, 40, 0
8, 74496, Note_on_c, 5, 59, 0
8, 74502, Note_on_c, 5, 40, 96
8, 74624, Note_on_c, 5, 59, 72
8, 74636, Note_on_c, 5, 64, 72
8, 74642, Note_on_c, 5, 67, 72
8, 74844, Note_on_c, 5, 40, 0
8, 74856, Note_on_c, 5, 59, 0
8, 74860, Note_on_c, 5, 64, 0
8, 74876, Note_on_c, 5, 67, 0
8, 74876, Note_on_c, 5, 43, 87
8, 74880, Note_on_c, 5, 50, 84
8, 74882, Note_on_c, 5, 55, 84
8, 75080, Note_on_c, 5, 43, 0
8, 75084, Note_on_c, 5, 50, 0
8, 75086, Note_on_c, 5, 55, 0
8, 75116, Note_on_c, 5, 43, 84
8, 75120, Note_on_c, 5, 50, 84
8, 75122, Note_on_c, 5, 55, 84
8, 75234, Note_on_c, 5, 43, 0
8, 75320, Note_on_c, 5, 50, 0
8, 75352, Note_on_c, 5, 55, 0
8, 75360, Note_on_c, 5, 45, 87
8, 75414, Note_on_c, 5, 52, 84
8, 75420, Note_on_c, 5, 57, 84
8, 75444, Note_on_c, 5, 45, 0
8, 75480, Note_on_c, 5, 45, 87
8, 75510, Note_on_c, 5, 52, 0
8, 75528, Note_on_c, 5, 57, 0
8, 75564, Note_on_c, 5, 45, 0
8, 75590, Note_on_c, 5, 45, 84
8, 75600, Note_on_c, 5, 52, 84
8, 75608, Note_on_c, 5, 57, 84
8, 75838, Note_on_c, 5, 45, 0
8, 75840, Note_on_c, 5, 52, 0
8, 75840, Note_on_c, 5, 57, 0
8, 75840, Note_on_c, 5, 40, 93
8, 76060, Note_on_c, 5, 59, 72
8, 76068, Note_on_c, 5, 64, 72
8, 76072, Note_on_c, 5, 67, 72
8, 76090, Note_on_c, 5, 40, 0
8, 76292, Note_on_c, 5, 59, 0
8, 76300, Note_on_c, 5, 64, 0
8, 76308, Note_on_c, 5, 67, 0
8, 76322, Note_on_c, 5, 40, 98
8, 76386, Note_on_c, 5, 40, 0
8, 76400, Note_on_c, 5, 59, 72
8, 76404, Note_on_c, 5, 64, 72
8, 76412, Note_on_c, 5, 59, 0
8, 76414, Note_on_c, 5, 64, 0
8, 76422, Note_on_c, 5, 40, 96
8, 76544, Note_on_c, 5, 59, 72
8, 76556, Note_on_c, 5, 64, 72
8, 76562, Note_on_c, 5, 67, 72
8, 76750, Note_on_c, 5, 40, 0
8, 76776, Note_on_c, 5, 59, 0
8, 76780, Note_on_c, 5, 64, 0
8, 76796, Note_on_c, 5, 67, 0
8, 76796, Note_on_c, 5, 43, 87
8, 76800, Note_on_c, 5, 50, 84
8, 76802, Note_on_c, 5, 55, 84
8, 77000, Note_on_c, 5, 43, 0
8, 77004, Note_on_c, 5, 50, 0
8, 77006, Note_on_c, 5, 55, 0
8, 77036, Note_on_c, 5, 43, 84
8, 77040, Note_on_c, 5, 50, 84
8, 77042, Note_on_c, 5, 55, 84
8, 77154, Note_on_c, 5, 43, 0
8, 77240, Note_on_c, 5, 50, 0
8, 77272, Note_on_c, 5, 55, 0
8, 77280, Note_on_c, 5, 45, 87
8, 77334, Note_on_c, 5, 52, 84
8, 77340, Note_on_c, 5, 57, 84
8, 77364, Note_on_c, 5, 45, 0
8, 77400, Note_on_c, 5, 45, 87
8, 77430, Note_on_c, 5, 52, 0
8, 77448, Note_on_c, 5, 57, 0
8, 77484, Note_on_c, 5, 45, 0
8, 77510, Note_on_c, 5, 45, 84
8, 77520, Note_on_c, 5, 52, 84
8, 77532, Note_on_c, 5, 57, 84
8, 77760, Note_on_c, 5, 45, 0
8, 77760, Note_on_c, 5, 52, 0
8, 77760, Note_on_c, 5, 57, 0
8, 77760, Note_on_c, 5, 40, 93
8, 77980, Note_on_c, 5, 59, 72
8, 77988, Note_on_c, 5, 64, 72
8, 77992, Note_on_c, 5, 67, 72
8, 78010, Note_on_c, 5, 40, 0
8, 78212, Note_on_c, 5, 59, 0
8, 78220, Note_on_c, 5, 64, 0
8, 78228, Note_on_c, 5, 67, 0
8, 78242, Note_on_c, 5, 40, 98
8, 78306, Note_on_c, 5, 40, 0
8, 78320, Note_on_c, 5, 59, 72
8, 78324, Note_on_c, 5, 64, 72
8, 78332, Note_on_c, 5, 59, 0
8, 78334, Note_on_c, 5, 64, 0
8, 78342, Note_on_c, 5, 40, 96
8, 78464, Note_on_c, 5, 59, 72
8, 78476, Note_on_c, 5, 64, 72
8, 78482, Note_on_c, 5, 67, 72
8, 78670, Note_on_c, 5, 40, 0
8, 78696, Note_on_c, 5, 59, 0
8, 78700, Note_on_c, 5, 64, 0
8, 78716, Note_on_c, 5, 67, 0
8, 78716, Note_on_c, 5, 43, 87
8, 78720, Note_on_c, 5, 50, 84
8, 78722, Note_on_c, 5, 55, 84
8, 78920, Note_on_c, 5, 43, 0
8, 78924, Note_on_c, 5, 50, 0
8, 78926, Note_on_c, 5, 55, 0
8, 78956, Note_on_c, 5, 43, 84
8, 78960, Note_on_c, 5, 50, 84
8, 78962, Note_on_c, 5, 55, 84
8, 79074, Note_on_c, 5, 43, 0
8, 79160, Note_on_c, 5, 50, 0
8, 79192, Note_on_c, 5, 55, 0
8, 79200, Note_on_c, 5, 45, 87
8, 79254, Note_on_c, 5, 52, 84
8, 79260, Note_on_c, 5, 57, 84
8, 79284, Note_on_c, 5, 45, 0
8, 79320, Note_on_c, 5, 45, 87
8, 79350, Note_on_c, 5, 52, 0
8, 79368, Note_on_c, 5, 57, 0
8, 79404, Note_on_c, 5, 45, 0
8, 79430, Note_on_c, 5, 45, 84
8, 79440, Note_on_c, 5, 52, 84
8, 79448, Note_on_c, 5, 57, 84
8, 79678, Note_on_c, 5, 45, 0
8, 79678, Note_on_c, 5, 52, 0
8, 79680, Note_on_c, 5, 57, 0
8, 79680, Note_on_c, 5, 40, 84
8, 79826, Note_on_c, 5, 40, 0
8, 81120, Note_on_c, 5, 54, 127
8, 81230, Note_on_c, 5, 54, 0
8, 81240, Note_on_c, 5, 52, 127
8, 81360, Note_on_c, 5, 50, 127
8, 81364, Note_on_c, 5, 52, 0
8, 81596, Note_on_c, 5, 50, 0
8, 81600, Note_on_c, 5, 57, 127
8, 81628, Pitch_bend_c, 5, 8712
8, 81632, Pitch_bend_c, 5, 9622
8, 81636, Pitch_bend_c, 5, 10402
8, 81640, Pitch_bend_c, 5, 11832
8, 81642, Pitch_bend_c, 5, 12872
8, 81646, Pitch_bend_c, 5, 13782
8, 81650, Pitch_bend_c, 5, 15212
8, 81652, Pitch_bend_c, 5, 15732
8, 81656, Pitch_bend_c, 5, 16252
8, 81660, Pitch_bend_c, 5, 16382
8, 81720, Note_on_c, 5, 60, 127
8, 81726, Note_on_c, 5, 57, 0
8, 81834, Control_c, 5, 1, 8
8, 81840, Control_c, 5, 1, 14
8, 81840, Note_on_c, 5, 65, 127
8, 81846, Control_c, 5, 1, 22
8, 81848, Note_on_c, 5, 60, 0
8, 81850, Control_c, 5, 1, 28
8, 81854, Control_c, 5, 1, 34
8, 81860, Control_c, 5, 1, 40
8, 81864, Control_c, 5, 1, 46
8, 81868, Control_c, 5, 1, 52
8, 81876, Control_c, 5, 1, 58
8, 81884, Control_c, 5, 1, 64
8, 81888, Control_c, 5, 1, 70
8, 81896, Control_c, 5, 1, 76
8, 81904, Control_c, 5, 1, 82
8, 81914, Control_c, 5, 1, 88
8, 81954, Control_c, 5, 1, 92
8, 81990, Control_c, 5, 1, 86
8, 82012, Note_on_c, 5, 65, 0
8, 82030, Control_c, 5, 1, 80
8, 82038, Pitch_bend_c, 5, 15732
8, 82040, Pitch_bend_c, 5, 15342
8, 82044, Pitch_bend_c, 5, 14822
8, 82048, Control_c, 5, 1, 74
8, 82048, Pitch_bend_c, 5, 13782
8, 82050, Pitch_bend_c, 5, 13002
8, 82054, Pitch_bend_c, 5, 11702
8, 82056, Control_c, 5, 1, 68
8, 82058, Pitch_bend_c, 5, 10662
8, 82062, Pitch_bend_c, 5, 9622
8, 82062, Control_c, 5, 1, 60
8, 82064, Pitch_bend_c, 5, 8972
8, 82066, Control_c, 5, 1, 54
8, 82068, Pitch_bend_c, 5, 8582
8, 82070, Control_c, 5, 1, 46
8, 82072, Pitch_bend_c, 5, 8192
8, 82074, Control_c, 5, 1, 38
8, 82076, Control_c, 5, 1, 30
8, 82080, Note_on_c, 5, 57, 127
8, 82080, Control_c, 5, 1, 20
8, 82084, Control_c, 5, 1, 6
8, 82090, Control_c, 5, 1, 0
8, 82096, Pitch_bend_c, 5, 8712
8, 82100, Pitch_bend_c, 5, 9362
8, 82102, Pitch_bend_c, 5, 10272
8, 82106, Pitch_bend_c, 5, 11702
8, 82110, Pitch_bend_c, 5, 13132
8, 82114, Pitch_bend_c, 5, 15342
8, 82116, Pitch_bend_c, 5, 15862
8, 82120, Pitch_bend_c, 5, 16252
8, 82124, Pitch_bend_c, 5, 16382
8, 82200, Note_on_c, 5, 60, 127
8, 82204, Note_on_c, 5, 57, 0
8, 82302, Control_c, 5, 1, 6
8, 82306, Control_c, 5, 1, 12
8, 82314, Control_c, 5, 1, 20
8, 82316, Control_c, 5, 1, 26
8, 82318, Note_on_c, 5, 60, 0
8, 82320, Note_on_c, 5, 65, 125
8, 82322, Control_c, 5, 1, 32
8, 82328, Control_c, 5, 1, 40
8, 82332, Control_c, 5, 1, 46
8, 82336, Control_c, 5, 1, 52
8, 82342, Control_c, 5, 1, 60
8, 82350, Control_c, 5, 1, 66
8, 82354, Control_c, 5, 1, 72
8, 82362, Control_c, 5, 1, 78
8, 82368, Control_c, 5, 1, 84
8, 82390, Control_c, 5, 1, 90
8, 82434, Control_c, 5, 1, 88
8, 82464, Control_c, 5, 1, 90
8, 82502, Control_c, 5, 1, 84
8, 82508, Control_c, 5, 1, 78
8, 82514, Control_c, 5, 1, 70
8, 82518, Control_c, 5, 1, 60
8, 82522, Note_on_c, 5, 65, 0
8, 82522, Control_c, 5, 1, 44
8, 82526, Control_c, 5, 1, 32
8, 82528, Control_c, 5, 1, 18
8, 82532, Control_c, 5, 1, 6
8, 82540, Control_c, 5, 1, 0
8, 82544, Pitch_bend_c, 5, 15732
8, 82548, Pitch_bend_c, 5, 14822
8, 82550, Pitch_bend_c, 5, 13262
8, 82554, Pitch_bend_c, 5, 10272
8, 82556, Pitch_bend_c, 5, 8712
8, 82558, Pitch_bend_c, 5, 8256
8, 82558, End_track
9, 0, Start_track
9, 0, Program_c, 6, 30
9, 19240, Pitch_bend_c, 6, 8712
9, 19242, Pitch_bend_c, 6, 9232
9, 19246, Pitch_bend_c, 6, 9752
9, 19250, Pitch_bend_c, 6, 11052
9, 19252, Pitch_bend_c, 6, 11962
9, 19256, Pitch_bend_c, 6, 13652
9, 19258, Pitch_bend_c, 6, 14952
9, 19266, Pitch_bend_c, 6, 15602
9, 19270, Pitch_bend_c, 6, 16382
9, 19330, Note_on_c, 6, 72, 126
9, 19398, Note_on_c, 6, 72, 0
9, 19448, Note_on_c, 6, 72, 127
9, 19528, Note_on_c, 6, 72, 0
9, 19546, Pitch_bend_c, 6, 15992
9, 19548, Pitch_bend_c, 6, 15472
9, 19552, Pitch_bend_c, 6, 14692
9, 19556, Pitch_bend_c, 6, 14042
9, 19558, Pitch_bend_c, 6, 13002
9, 19562, Pitch_bend_c, 6, 12352
9, 19566, Pitch_bend_c, 6, 10792
9, 19570, Pitch_bend_c, 6, 9882
9, 19572, Pitch_bend_c, 6, 9362
9, 19572, Note_on_c, 6, 74, 127
9, 19576, Pitch_bend_c, 6, 8972
9, 19580, Pitch_bend_c, 6, 8452
9, 19582, Pitch_bend_c, 6, 8192
9, 19614, Pitch_bend_c, 6, 8582
9, 19618, Pitch_bend_c, 6, 9102
9, 19620, Pitch_bend_c, 6, 10272
9, 19626, Pitch_bend_c, 6, 11442
9, 19630, Pitch_bend_c, 6, 13262
9, 19632, Pitch_bend_c, 6, 14172
9, 19636, Pitch_bend_c, 6, 15082
9, 19640, Pitch_bend_c, 6, 15862
9, 19644, Pitch_bend_c, 6, 16252
9, 19646, Pitch_bend_c, 6, 16382
9, 19722, Control_c, 6, 1, 6
9, 19728, Control_c, 6, 1, 12
9, 19732, Control_c, 6, 1, 18
9, 19740, Control_c, 6, 1, 24
9, 19746, Control_c, 6, 1, 30
9, 19752, Control_c, 6, 1, 36
9, 19762, Control_c, 6, 1, 42
9, 19770, Control_c, 6, 1, 48
9, 19778, Control_c, 6, 1, 54
9, 19786, Control_c, 6, 1, 60
9, 19796, Control_c, 6, 1, 66
9, 19828, Control_c, 6, 1, 72
9, 19916, Note_on_c, 6, 74, 0
9, 19920, Control_c, 6, 1, 0
9, 19926, Pitch_bend_c, 6, 8322
9, 19928, Pitch_bend_c, 6, 8712
9, 19932, Pitch_bend_c, 6, 9102
9, 19932, Note_on_c, 6, 62, 91
9, 19934, Pitch_bend_c, 6, 9752
9, 19938, Pitch_bend_c, 6, 10792
9, 19942, Pitch_bend_c, 6, 11702
9, 19946, Pitch_bend_c, 6, 13132
9, 19950, Pitch_bend_c, 6, 13782
9, 19954, Pitch_bend_c, 6, 15472
9, 19956, Pitch_bend_c, 6, 16122
9, 19960, Pitch_bend_c, 6, 16382
9, 20052, Note_on_c, 6, 57, 90
9, 20058, Note_on_c, 6, 62, 0
9, 20060, Pitch_bend_c, 6, 15992
9, 20062, Pitch_bend_c, 6, 15602
9, 20066, Pitch_bend_c, 6, 14692
9, 20070, Pitch_bend_c, 6, 14042
9, 20072, Pitch_bend_c, 6, 13782
9, 20072, Pitch_bend_c, 6, 16252
9, 20074, Pitch_bend_c, 6, 13132
9, 20074, Pitch_bend_c, 6, 15992
9, 20074, Pitch_bend_c, 6, 12742
9, 20076, Pitch_bend_c, 6, 15732
9, 20076, Pitch_bend_c, 6, 12352
9, 20078, Pitch_bend_c, 6, 14952
9, 20078, Pitch_bend_c, 6, 11832
9, 20080, Pitch_bend_c, 6, 14562
9, 20080, Pitch_bend_c, 6, 11442
9, 20080, Pitch_bend_c, 6, 14042
9, 20082, Pitch_bend_c, 6, 10012
9, 20084, Pitch_bend_c, 6, 13262
9, 20084, Pitch_bend_c, 6, 9752
9, 20084, Pitch_bend_c, 6, 13002
9, 20086, Pitch_bend_c, 6, 9492
9, 20086, Pitch_bend_c, 6, 11962
9, 20088, Pitch_bend_c, 6, 9232
9, 20088, Pitch_bend_c, 6, 11052
9, 20088, Pitch_bend_c, 6, 9102
9, 20090, Pitch_bend_c, 6, 10662
9, 20090, Pitch_bend_c, 6, 8712
9, 20092, Pitch_bend_c, 6, 10272
9, 20092, Pitch_bend_c, 6, 8582
9, 20094, Pitch_bend_c, 6, 9362
9, 20094, Pitch_bend_c, 6, 8452
9, 20096, Pitch_bend_c, 6, 9102
9, 20096, Pitch_bend_c, 6, 8322
9, 20096, Pitch_bend_c, 6, 8842
9, 20098, Pitch_bend_c, 6, 8192
9, 20104, Pitch_bend_c, 6, 7680
9, 20108, Pitch_bend_c, 6, 6272
9, 20112, Pitch_bend_c, 6, 5120
9, 20114, Pitch_bend_c, 6, 4096
9, 20118, Pitch_bend_c, 6, 3328
9, 20122, Pitch_bend_c, 6, 2048
9, 20126, Pitch_bend_c, 6, 896
9, 20130, Pitch_bend_c, 6, 128
9, 20130, Pitch_bend_c, 6, 0
9, 20158, Note_on_c, 6, 57, 0
9, 20158, Pitch_bend_c, 6, 8256
9, 39400, Pitch_bend_c, 6, 8712
9, 39402, Pitch_bend_c, 6, 9232
9, 39406, Pitch_bend_c, 6, 9752
9, 39410, Pitch_bend_c, 6, 11052
9, 39412, Pitch_bend_c, 6, 11962
9, 39416, Pitch_bend_c, 6, 13652
9, 39418, Pitch_bend_c, 6, 14952
9, 39426, Pitch_bend_c, 6, 15602
9, 39430, Pitch_bend_c, 6, 16382
9, 39490, Note_on_c, 6, 72, 126
9, 39558, Note_on_c, 6, 72, 0
9, 39608, Note_on_c, 6, 72, 127
9, 39688, Note_on_c, 6, 72, 0
9, 39706, Pitch_bend_c, 6, 15992
9, 39708, Pitch_bend_c, 6, 15472
9, 39712, Pitch_bend_c, 6, 14692
9, 39716, Pitch_bend_c, 6, 14042
9, 39718, Pitch_bend_c, 6, 13002
9, 39722, Pitch_bend_c, 6, 12352
9, 39726, Pitch_bend_c, 6, 10792
9, 39730, Pitch_bend_c, 6, 9882
9, 39732, Pitch_bend_c, 6, 9362
9, 39732, Note_on_c, 6, 74, 127
9, 39736, Pitch_bend_c, 6, 8972
9, 39740, Pitch_bend_c, 6, 8452
9, 39742, Pitch_bend_c, 6, 8192
9, 39774, Pitch_bend_c, 6, 8582
9, 39778, Pitch_bend_c, 6, 9102
9, 39780, Pitch_bend_c, 6, 10272
9, 39786, Pitch_bend_c, 6, 11442
9, 39790, Pitch_bend_c, 6, 13262
9, 39792, Pitch_bend_c, 6, 14172
9, 39796, Pitch_bend_c, 6, 15082
9, 39800, Pitch_bend_c, 6, 15862
9, 39804, Pitch_bend_c, 6, 16252
9, 39806, Pitch_bend_c, 6, 16382
9, 39882, Control_c, 6, 1, 6
9, 39888, Control_c, 6, 1, 12
9, 39892, Control_c, 6, 1, 18
9, 39900, Control_c, 6, 1, 24
9, 39906, Control_c, 6, 1, 30
9, 39912, Control_c, 6, 1, 36
9, 39922, Control_c, 6, 1, 42
9, 39930, Control_c, 6, 1, 48
9, 39938, Control_c, 6, 1, 54
9, 39946, Control_c, 6, 1, 60
9, 39956, Control_c, 6, 1, 66
9, 39988, Control_c, 6, 1, 72
9, 40076, Note_on_c, 6, 74, 0
9, 40080, Control_c, 6, 1, 0
9, 40086, Pitch_bend_c, 6, 8322
9, 40088, Pitch_bend_c, 6, 8712
9, 40092, Pitch_bend_c, 6, 9102
9, 40092, Note_on_c, 6, 62, 91
9, 40094, Pitch_bend_c, 6, 9752
9, 40098, Pitch_bend_c, 6, 10792
9, 40102, Pitch_bend_c, 6, 11702
9, 40106, Pitch_bend_c, 6, 13132
9, 40110, Pitch_bend_c, 6, 13782
9, 40114, Pitch_bend_c, 6, 15472
9, 40116, Pitch_bend_c, 6, 16122
9, 40120, Pitch_bend_c, 6, 16382
9, 40212, Note_on_c, 6, 57, 90
9, 40218, Note_on_c, 6, 62, 0
9, 40220, Pitch_bend_c, 6, 15992
9, 40222, Pitch_bend_c, 6, 15602
9, 40226, Pitch_bend_c, 6, 14692
9, 40230, Pitch_bend_c, 6, 14042
9, 40232, Pitch_bend_c, 6, 13782
9, 40232, Pitch_bend_c, 6, 16252
9, 40234, Pitch_bend_c, 6, 13132
9, 40234, Pitch_bend_c, 6, 15992
9, 40234, Pitch_bend_c, 6, 12742
9, 40236, Pitch_bend_c, 6, 15732
9, 40236, Pitch_bend_c, 6, 12352
9, 40238, Pitch_bend_c, 6, 14952
9, 40238, Pitch_bend_c, 6, 11832
9, 40240, Pitch_bend_c, 6, 14562
9, 40240, Pitch_bend_c, 6, 11442
9, 40240, Pitch_bend_c, 6, 14042
9, 40242, Pitch_bend_c, 6, 10012
9, 40244, Pitch_bend_c, 6, 13262
9, 40244, Pitch_bend_c, 6, 9752
9, 40244, Pitch_bend_c, 6, 13002
9, 40246, Pitch_bend_c, 6, 9492
9, 40246, Pitch_bend_c, 6, 11962
9, 40248, Pitch_bend_c, 6, 9232
9, 40248, Pitch_bend_c, 6, 11052
9, 40248, Pitch_bend_c, 6, 9102
9, 40250, Pitch_bend_c, 6, 10662
9, 40250, Pitch_bend_c, 6, 8712
9, 40252, Pitch_bend_c, 6, 10272
9, 40252, Pitch_bend_c, 6, 8582
9, 40254, Pitch_bend_c, 6, 9362
9, 40254, Pitch_bend_c, 6, 8452
9, 40256, Pitch_bend_c, 6, 9102
9, 40256, Pitch_bend_c, 6, 8322
9, 40256, Pitch_bend_c, 6, 8842
9, 40258, Pitch_bend_c, 6, 8192
9, 40264, Pitch_bend_c, 6, 7680
9, 40268, Pitch_bend_c, 6, 6272
9, 40272, Pitch_bend_c, 6, 5120
9, 40274, Pitch_bend_c, 6, 4096
9, 40278, Pitch_bend_c, 6, 3328
9, 40282, Pitch_bend_c, 6, 2048
9, 40286, Pitch_bend_c, 6, 896
9, 40290, Pitch_bend_c, 6, 128
9, 40290, Pitch_bend_c, 6, 0
9, 40318, Note_on_c, 6, 57, 0
9, 40318, Pitch_bend_c, 6, 8256
9, 59560, Pitch_bend_c, 6, 8712
9, 59562, Pitch_bend_c, 6, 9232
9, 59566, Pitch_bend_c, 6, 9752
9, 59570, Pitch_bend_c, 6, 11052
9, 59572, Pitch_bend_c, 6, 11962
9, 59576, Pitch_bend_c, 6, 13652
9, 59578, Pitch_bend_c, 6, 14952
9, 59586, Pitch_bend_c, 6, 15602
9, 59590, Pitch_bend_c, 6, 16382
9, 59650, Note_on_c, 6, 72, 126
9, 59718, Note_on_c, 6, 72, 0
9, 59768, Note_on_c, 6, 72, 127
9, 59848, Note_on_c, 6, 72, 0
9, 59866, Pitch_bend_c, 6, 15992
9, 59868, Pitch_bend_c, 6, 15472
9, 59872, Pitch_bend_c, 6, 14692
9, 59876, Pitch_bend_c, 6, 14042
9, 59878, Pitch_bend_c, 6, 13002
9, 59882, Pitch_bend_c, 6, 12352
9, 59886, Pitch_bend_c, 6, 10792
9, 59890, Pitch_bend_c, 6, 9882
9, 59892, Pitch_bend_c, 6, 9362
9, 59892, Note_on_c, 6, 74, 127
9, 59896, Pitch_bend_c, 6, 8972
9, 59900, Pitch_bend_c, 6, 8452
9, 59902, Pitch_bend_c, 6, 8192
9, 59934, Pitch_bend_c, 6, 8582
9, 59938, Pitch_bend_c, 6, 9102
9, 59940, Pitch_bend_c, 6, 10272
9, 59946, Pitch_bend_c, 6, 11442
9, 59950, Pitch_bend_c, 6, 13262
9, 59952, Pitch_bend_c, 6, 14172
9, 59956, Pitch_bend_c, 6, 15082
9, 59960, Pitch_bend_c, 6, 15862
9, 59964, Pitch_bend_c, 6, 16252
9, 59966, Pitch_bend_c, 6, 16382
9, 60042, Control_c, 6, 1, 6
9, 60048, Control_c, 6, 1, 12
9, 60052, Control_c, 6, 1, 18
9, 60060, Control_c, 6, 1, 24
9, 60066, Control_c, 6, 1, 30
9, 60072, Control_c, 6, 1, 36
9, 60082, Control_c, 6, 1, 42
9, 60090, Control_c, 6, 1, 48
9, 60098, Control_c, 6, 1, 54
9, 60106, Control_c, 6, 1, 60
9, 60116, Control_c, 6, 1, 66
9, 60148, Control_c, 6, 1, 72
9, 60236, Note_on_c, 6, 74, 0
9, 60240, Control_c, 6, 1, 0
9, 60246, Pitch_bend_c, 6, 8322
9, 60248, Pitch_bend_c, 6, 8712
9, 60252, Pitch_bend_c, 6, 9102
9, 60252, Note_on_c, 6, 62, 91
9, 60254, Pitch_bend_c, 6, 9752
9, 60258, Pitch_bend_c, 6, 10792
9, 60262, Pitch_bend_c, 6, 11702
9, 60266, Pitch_bend_c, 6, 13132
9, 60270, Pitch_bend_c, 6, 13782
9, 60274, Pitch_bend_c, 6, 15472
9, 60276, Pitch_bend_c, 6, 16122
9, 60280, Pitch_bend_c, 6, 16382
9, 60372, Note_on_c, 6, 57, 90
9, 60378, Note_on_c, 6, 62, 0
9, 60380, Pitch_bend_c, 6, 15992
9, 60382, Pitch_bend_c, 6, 15602
9, 60386, Pitch_bend_c, 6, 14692
9, 60390, Pitch_bend_c, 6, 14042
9, 60392, Pitch_bend_c, 6, 13782
9, 60392, Pitch_bend_c, 6, 16252
9, 60394, Pitch_bend_c, 6, 13132
9, 60394, Pitch_bend_c, 6, 15992
9, 60394, Pitch_bend_c, 6, 12742
9, 60396, Pitch_bend_c, 6, 15732
9, 60396, Pitch_bend_c, 6, 12352
9, 60398, Pitch_bend_c, 6, 14952
9, 60398, Pitch_bend_c, 6, 11832
9, 60400, Pitch_bend_c, 6, 14562
9, 60400, Pitch_bend_c, 6, 11442
9, 60400, Pitch_bend_c, 6, 14042
9, 60402, Pitch_bend_c, 6, 10012
9, 60404, Pitch_bend_c, 6, 13262
9, 60404, Pitch_bend_c, 6, 9752
9, 60404, Pitch_bend_c, 6, 13002
9, 60406, Pitch_bend_c, 6, 9492
9, 60406, Pitch_bend_c, 6, 11962
9, 60408, Pitch_bend_c, 6, 9232
9, 60408, Pitch_bend_c, 6, 11052
9, 60408, Pitch_bend_c, 6, 9102
9, 60410, Pitch_bend_c, 6, 10662
9, 60410, Pitch_bend_c, 6, 8712
9, 60412, Pitch_bend_c, 6, 10272
9, 60412, Pitch_bend_c, 6, 8582
9, 60414, Pitch_bend_c, 6, 9362
9, 60414, Pitch_bend_c, 6, 8452
9, 60416, Pitch_bend_c, 6, 9102
9, 60416, Pitch_bend_c, 6, 8322
9, 60416, Pitch_bend_c, 6, 8842
9, 60418, Pitch_bend_c, 6, 8192
9, 60424, Pitch_bend_c, 6, 7680
9, 60428, Pitch_bend_c, 6, 6272
9, 60432, Pitch_bend_c, 6, 5120
9, 60434, Pitch_bend_c, 6, 4096
9, 60438, Pitch_bend_c, 6, 3328
9, 60442, Pitch_bend_c, 6, 2048
9, 60446, Pitch_bend_c, 6, 896
9, 60450, Pitch_bend_c, 6, 128
9, 60450, Pitch_bend_c, 6, 0
9, 60478, Note_on_c, 6, 57, 0
9, 60478, Pitch_bend_c, 6, 8256
9, 79720, Pitch_bend_c, 6, 8712
9, 79722, Pitch_bend_c, 6, 9232
9, 79726, Pitch_bend_c, 6, 9752
9, 79730, Pitch_bend_c, 6, 11052
9, 79732, Pitch_bend_c, 6, 11962
9, 79736, Pitch_bend_c, 6, 13652
9, 79738, Pitch_bend_c, 6, 14952
9, 79746, Pitch_bend_c, 6, 15602
9, 79750, Pitch_bend_c, 6, 16382
9, 79810, Note_on_c, 6, 72, 126
9, 79878, Note_on_c, 6, 72, 0
9, 79928, Note_on_c, 6, 72, 127
9, 80008, Note_on_c, 6, 72, 0
9, 80026, Pitch_bend_c, 6, 15992
9, 80028, Pitch_bend_c, 6, 15472
9, 80032, Pitch_bend_c, 6, 14692
9, 80036, Pitch_bend_c, 6, 14042
9, 80038, Pitch_bend_c, 6, 13002
9, 80042, Pitch_bend_c, 6, 12352
9, 80046, Pitch_bend_c, 6, 10792
9, 80050, Pitch_bend_c, 6, 9882
9, 80052, Pitch_bend_c, 6, 9362
9, 80052, Note_on_c, 6, 74, 127
9, 80056, Pitch_bend_c, 6, 8972
9, 80060, Pitch_bend_c, 6, 8452
9, 80062, Pitch_bend_c, 6, 8192
9, 80094, Pitch_bend_c, 6, 8582
9, 80098, Pitch_bend_c, 6, 9102
9, 80100, Pitch_bend_c, 6, 10272
9, 80106, Pitch_bend_c, 6, 11442
9, 80110, Pitch_bend_c, 6, 13262
9, 80112, Pitch_bend_c, 6, 14172
9, 80116, Pitch_bend_c, 6, 15082
9, 80120, Pitch_bend_c, 6, 15862
9, 80124, Pitch_bend_c, 6, 16252
9, 80126, Pitch_bend_c, 6, 16382
9, 80202, Control_c, 6, 1, 6
9, 80208, Control_c, 6, 1, 12
9, 80212, Control_c, 6, 1, 18
9, 80220, Control_c, 6, 1, 24
9, 80226, Control_c, 6, 1, 30
9, 80232, Control_c, 6, 1, 36
9, 80242, Control_c, 6, 1, 42
9, 80250, Control_c, 6, 1, 48
9, 80258, Control_c, 6, 1, 54
9, 80266, Control_c, 6, 1, 60
9, 80276, Control_c, 6, 1, 66
9, 80308, Control_c, 6, 1, 72
9, 80396, Note_on_c, 6, 74, 0
9, 80400, Control_c, 6, 1, 0
9, 80406, Pitch_bend_c, 6, 8322
9, 80408, Pitch_bend_c, 6, 8712
9, 80412, Pitch_bend_c, 6, 9102
9, 80412, Note_on_c, 6, 62, 91
9, 80414, Pitch_bend_c, 6, 9752
9, 80418, Pitch_bend_c, 6, 10792
9, 80422, Pitch_bend_c, 6, 11702
9, 80426, Pitch_bend_c, 6, 13132
9, 80430, Pitch_bend_c, 6, 13782
9, 80434, Pitch_bend_c, 6, 15472
9, 80436, Pitch_bend_c, 6, 16122
9, 80440, Pitch_bend_c, 6, 16382
9, 80532, Note_on_c, 6, 57, 90
9, 80538, Note_on_c, 6, 62, 0
9, 80540, Pitch_bend_c, 6, 15992
9, 80542, Pitch_bend_c, 6, 15602
9, 80546, Pitch_bend_c, 6, 14692
9, 80550, Pitch_bend_c, 6, 14042
9, 80552, Pitch_bend_c, 6, 13782
9, 80552, Pitch_bend_c, 6, 16252
9, 80554, Pitch_bend_c, 6, 13132
9, 80554, Pitch_bend_c, 6, 15992
9, 80554, Pitch_bend_c, 6, 12742
9, 80556, Pitch_bend_c, 6, 15732
9, 80556, Pitch_bend_c, 6, 12352
9, 80558, Pitch_bend_c, 6, 14952
9, 80558, Pitch_bend_c, 6, 11832
9, 80560, Pitch_bend_c, 6, 14562
9, 80560, Pitch_bend_c, 6, 11442
9, 80560, Pitch_bend_c, 6, 14042
9, 80562, Pitch_bend_c, 6, 10012
9, 80564, Pitch_bend_c, 6, 13262
9, 80564, Pitch_bend_c, 6, 9752
9, 80564, Pitch_bend_c, 6, 13002
9, 80566, Pitch_bend_c, 6, 9492
9, 80566, Pitch_bend_c, 6, 11962
9, 80568, Pitch_bend_c, 6, 9232
9, 80568, Pitch_bend_c, 6, 11052
9, 80568, Pitch_bend_c, 6, 9102
9, 80570, Pitch_bend_c, 6, 10662
9, 80570, Pitch_bend_c, 6, 8712
9, 80572, Pitch_bend_c, 6, 10272
9, 80572, Pitch_bend_c, 6, 8582
9, 80574, Pitch_bend_c, 6, 9362
9, 80574, Pitch_bend_c, 6, 8452
9, 80576, Pitch_bend_c, 6, 9102
9, 80576, Pitch_bend_c, 6, 8322
9, 80576, Pitch_bend_c, 6, 8842
9, 80578, Pitch_bend_c, 6, 8192
9, 80584, Pitch_bend_c, 6, 7680
9, 80588, Pitch_bend_c, 6, 6272
9, 80592, Pitch_bend_c, 6, 5120
9, 80594, Pitch_bend_c, 6, 4096
9, 80598, Pitch_bend_c, 6, 3328
9, 80602, Pitch_bend_c, 6, 2048
9, 80606, Pitch_bend_c, 6, 896
9, 80610, Pitch_bend_c, 6, 128
9, 80610, Pitch_bend_c, 6, 0
9, 80638, Note_on_c, 6, 57, 0
9, 80638, Pitch_bend_c, 6, 8256
9, 80638, End_track
0, 0, End_of_file
