0, 0, Header, 1, 4, 960
1, 0, Start_track
1, 0, Control_c, 0, 101, 0
1, 0, Control_c, 0, 100, 0
1, 0, Control_c, 0, 6, 12
1, 0, Control_c, 0, 38, 0
1, 0, Control_c, 1, 101, 0
1, 0, Control_c, 1, 100, 0
1, 0, Control_c, 1, 6, 12
1, 0, Control_c, 1, 38, 0
1, 0, Control_c, 2, 101, 0
1, 0, Control_c, 2, 100, 0
1, 0, Control_c, 2, 6, 12
1, 0, Control_c, 2, 38, 0
1, 0, Control_c, 3, 101, 0
1, 0, Control_c, 3, 100, 0
1, 0, Control_c, 3, 6, 12
1, 0, Control_c, 3, 38, 0
1, 0, Control_c, 4, 101, 0
1, 0, Control_c, 4, 100, 0
1, 0, Control_c, 4, 6, 12
1, 0, Control_c, 4, 38, 0
1, 0, Control_c, 5, 101, 0
1, 0, Control_c, 5, 100, 0
1, 0, Control_c, 5, 6, 12
1, 0, Control_c, 5, 38, 0
1, 0, Control_c, 6, 101, 0
1, 0, Control_c, 6, 100, 0
1, 0, Control_c, 6, 6, 12
1, 0, Control_c, 6, 38, 0
1, 0, Control_c, 7, 101, 0
1, 0, Control_c, 7, 100, 0
1, 0, Control_c, 7, 6, 12
1, 0, Control_c, 7, 38, 0
1, 0, Control_c, 8, 101, 0
1, 0, Control_c, 8, 100, 0
1, 0, Control_c, 8, 6, 12
1, 0, Control_c, 8, 38, 0
1, 0, Control_c, 9, 101, 0
1, 0, Control_c, 9, 100, 0
1, 0, Control_c, 9, 6, 12
1, 0, Control_c, 9, 38, 0
1, 0, Control_c, 10, 101, 0
1, 0, Control_c, 10, 100, 0
1, 0, Control_c, 10, 6, 12
1, 0, Control_c, 10, 38, 0
1, 0, Control_c, 11, 101, 0
1, 0, Control_c, 11, 100, 0
1, 0, Control_c, 11, 6, 12
1, 0, Control_c, 11, 38, 0
1, 0, Control_c, 12, 101, 0
1, 0, Control_c, 12, 100, 0
1, 0, Control_c, 12, 6, 12
1, 0, Control_c, 12, 38, 0
1, 0, Control_c, 13, 101, 0
1, 0, Control_c, 13, 100, 0
1, 0, Control_c, 13, 6, 12
1, 0, Control_c, 13, 38, 0
1, 0, Control_c, 14, 101, 0
1, 0, Control_c, 14, 100, 0
1, 0, Control_c, 14, 6, 12
1, 0, Control_c, 14, 38, 0
1, 0, Control_c, 15, 101, 0
1, 0, Control_c, 15, 100, 0
1, 0, Control_c, 15, 6, 12
1, 0, Control_c, 15, 38, 0
1, 0, Time_signature, 4, 2, 24, 8
1, 0, Tempo, 416666
1, 0, End_track
2, 0, Start_track
2, 0, Pitch_bend_c, 0, 8192
2, 0, Control_c, 0, 7, 87
2, 0, Control_c, 0, 10, 63
2, 0, Control_c, 0, 93, 0
2, 0, Control_c, 0, 91, 0
2, 0, Control_c, 0, 95, 0
2, 0, Control_c, 0, 92, 0
2, 0, Control_c, 0, 11, 127
2, 0, Program_c, 0, 26
2, 0, Control_c, 1, 7, 87
2, 0, Control_c, 1, 10, 63
2, 0, Control_c, 1, 93, 0
2, 0, Control_c, 1, 91, 0
2, 0, Control_c, 1, 95, 0
2, 0, Control_c, 1, 92, 0
2, 0, Control_c, 1, 11, 127
2, 0, Program_c, 1, 26
2, 3360, Note_on_c, 0, 48, 79
2, 3360, Note_on_c, 0, 41, 79
2, 3840, Note_off_c, 0, 48, 79
2, 3840, Note_off_c, 0, 41, 79
2, 3840, Note_on_c, 0, 48, 95
2, 3840, Note_on_c, 0, 41, 95
2, 7680, Note_off_c, 0, 48, 95
2, 7680, Note_off_c, 0, 41, 95
2, 7680, Note_on_c, 0, 48, 47
2, 7680, Note_on_c, 0, 41, 47
2, 10560, Note_off_c, 0, 48, 47
2, 10560, Note_off_c, 0, 41, 47
2, 11040, Note_on_c, 0, 48, 95
2, 11040, Note_on_c, 0, 41, 95
2, 11520, Note_off_c, 0, 48, 95
2, 11520, Note_off_c, 0, 41, 95
2, 11520, Note_on_c, 0, 48, 95
2, 11520, Note_on_c, 0, 41, 95
2, 15360, Note_off_c, 0, 48, 95
2, 15360, Note_off_c, 0, 41, 95
2, 15360, Note_on_c, 0, 48, 47
2, 15360, Note_on_c, 0, 41, 47
2, 18240, Note_off_c, 0, 48, 47
2, 18240, Note_off_c, 0, 41, 47
2, 18720, Note_on_c, 0, 48, 95
2, 18720, Note_on_c, 0, 41, 95
2, 19200, Note_off_c, 0, 48, 95
2, 19200, Note_off_c, 0, 41, 95
2, 19200, Note_on_c, 0, 48, 95
2, 19200, Note_on_c, 0, 41, 95
2, 23040, Note_off_c, 0, 48, 95
2, 23040, Note_off_c, 0, 41, 95
2, 23040, Note_on_c, 0, 48, 47
2, 23040, Note_on_c, 0, 41, 47
2, 25920, Note_off_c, 0, 48, 47
2, 25920, Note_off_c, 0, 41, 47
2, 26400, Note_on_c, 0, 48, 95
2, 26400, Note_on_c, 0, 41, 95
2, 26880, Note_off_c, 0, 48, 95
2, 26880, Note_off_c, 0, 41, 95
2, 26880, Note_on_c, 0, 48, 95
2, 26880, Note_on_c, 0, 41, 95
2, 30720, Note_off_c, 0, 48, 95
2, 30720, Note_off_c, 0, 41, 95
2, 30720, Note_on_c, 0, 48, 47
2, 30720, Note_on_c, 0, 41, 47
2, 33600, Note_off_c, 0, 48, 47
2, 33600, Note_off_c, 0, 41, 47
2, 34080, Note_on_c, 0, 48, 95
2, 34080, Note_on_c, 0, 41, 95
2, 34560, Note_off_c, 0, 48, 95
2, 34560, Note_off_c, 0, 41, 95
2, 34560, Note_on_c, 0, 48, 95
2, 34560, Note_on_c, 0, 41, 95
2, 38400, Note_off_c, 0, 48, 95
2, 38400, Note_off_c, 0, 41, 95
2, 38400, Note_on_c, 0, 48, 47
2, 38400, Note_on_c, 0, 41, 47
2, 41280, Note_off_c, 0, 48, 47
2, 41280, Note_off_c, 0, 41, 47
2, 41760, Note_on_c, 0, 41, 95
2, 42240, Note_off_c, 0, 41, 95
2, 42240, Note_on_c, 0, 41, 95
2, 43200, Note_off_c, 0, 41, 95
2, 43200, Note_on_c, 0, 53, 95
2, 45600, Note_off_c, 0, 53, 95
2, 45600, Note_on_c, 0, 51, 95
2, 46080, Note_off_c, 0, 51, 95
2, 46080, Note_on_c, 0, 51, 47
2, 47520, Note_off_c, 0, 51, 47
2, 47520, Note_on_c, 0, 48, 95
2, 48480, Note_off_c, 0, 48, 95
2, 48480, Note_on_c, 0, 46, 95
2, 49440, Note_off_c, 0, 46, 95
2, 49440, Note_on_c, 0, 48, 95
2, 49920, Note_off_c, 0, 48, 95
2, 49920, Note_on_c, 0, 41, 95
2, 50880, Note_off_c, 0, 41, 95
2, 50880, Note_on_c, 0, 53, 95
2, 53280, Note_off_c, 0, 53, 95
2, 53280, Note_on_c, 0, 51, 95
2, 53760, Note_off_c, 0, 51, 95
2, 53760, Note_on_c, 0, 51, 47
2, 55200, Note_off_c, 0, 51, 47
2, 55200, Note_on_c, 0, 48, 95
2, 56160, Note_off_c, 0, 48, 95
2, 56160, Note_on_c, 0, 46, 95
2, 57120, Note_off_c, 0, 46, 95
2, 57120, Note_on_c, 0, 48, 95
2, 57600, Note_off_c, 0, 48, 95
2, 57600, Note_on_c, 0, 41, 95
2, 58560, Note_off_c, 0, 41, 95
2, 58560, Note_on_c, 0, 53, 95
2, 60960, Note_off_c, 0, 53, 95
2, 60960, Note_on_c, 0, 51, 95
2, 61440, Note_off_c, 0, 51, 95
2, 61440, Note_on_c, 0, 51, 47
2, 62880, Note_off_c, 0, 51, 47
2, 62880, Note_on_c, 0, 48, 95
2, 63840, Note_off_c, 0, 48, 95
2, 63840, Note_on_c, 0, 46, 95
2, 64800, Note_off_c, 0, 46, 95
2, 64800, Note_on_c, 0, 48, 95
2, 65280, Note_off_c, 0, 48, 95
2, 65280, Note_on_c, 0, 41, 95
2, 66240, Note_off_c, 0, 41, 95
2, 66240, Note_on_c, 0, 53, 95
2, 68640, Note_off_c, 0, 53, 95
2, 68640, Note_on_c, 0, 51, 95
2, 69120, Note_off_c, 0, 51, 95
2, 69120, Note_on_c, 0, 51, 47
2, 70560, Note_off_c, 0, 51, 47
2, 70560, Note_on_c, 0, 48, 95
2, 71520, Note_off_c, 0, 48, 95
2, 71520, Note_on_c, 0, 46, 95
2, 72480, Note_off_c, 0, 46, 95
2, 72480, Note_on_c, 0, 48, 95
2, 72960, Note_off_c, 0, 48, 95
2, 72960, Note_on_c, 0, 41, 95
2, 73920, Note_off_c, 0, 41, 95
2, 73920, Note_on_c, 0, 53, 95
2, 76320, Note_off_c, 0, 53, 95
2, 76320, Note_on_c, 0, 51, 95
2, 76800, Note_off_c, 0, 51, 95
2, 76800, Note_on_c, 0, 51, 47
2, 78240, Note_off_c, 0, 51, 47
2, 78240, Note_on_c, 0, 48, 95
2, 79200, Note_off_c, 0, 48, 95
2, 79200, Note_on_c, 0, 46, 95
2, 80160, Note_off_c, 0, 46, 95
2, 80160, Note_on_c, 0, 48, 95
2, 80640, Note_off_c, 0, 48, 95
2, 80640, Note_on_c, 0, 41, 95
2, 81600, Note_off_c, 0, 41, 95
2, 81600, Note_on_c, 0, 53, 95
2, 84000, Note_off_c, 0, 53, 95
2, 84000, Note_on_c, 0, 51, 95
2, 84480, Note_off_c, 0, 51, 95
2, 84480, Note_on_c, 0, 51, 47
2, 85920, Note_off_c, 0, 51, 47
2, 85920, Note_on_c, 0, 48, 95
2, 86880, Note_off_c, 0, 48, 95
2, 86880, Note_on_c, 0, 46, 95
2, 87840, Note_off_c, 0, 46, 95
2, 87840, Note_on_c, 0, 48, 95
2, 88320, Note_off_c, 0, 48, 95
2, 88320, Note_on_c, 0, 41, 95
2, 89280, Note_off_c, 0, 41, 95
2, 89280, Note_on_c, 0, 53, 95
2, 91680, Note_off_c, 0, 53, 95
2, 91680, Note_on_c, 0, 51, 95
2, 92160, Note_off_c, 0, 51, 95
2, 92160, Note_on_c, 0, 51, 47
2, 93600, Note_off_c, 0, 51, 47
2, 93600, Note_on_c, 0, 48, 95
2, 94560, Note_off_c, 0, 48, 95
2, 94560, Note_on_c, 0, 46, 95
2, 95520, Note_off_c, 0, 46, 95
2, 95520, Note_on_c, 0, 48, 95
2, 96000, Note_off_c, 0, 48, 95
2, 96000, Note_on_c, 0, 41, 95
2, 96960, Note_off_c, 0, 41, 95
2, 96960, Note_on_c, 0, 53, 95
2, 99360, Note_off_c, 0, 53, 95
2, 99360, Note_on_c, 0, 51, 95
2, 99840, Note_off_c, 0, 51, 95
2, 99840, Note_on_c, 0, 51, 47
2, 101280, Note_off_c, 0, 51, 47
2, 101280, Note_on_c, 0, 48, 95
2, 102240, Note_off_c, 0, 48, 95
2, 102240, Note_on_c, 0, 46, 95
2, 103200, Note_off_c, 0, 46, 95
2, 103200, Note_on_c, 0, 48, 95
2, 103680, Note_off_c, 0, 48, 95
2, 104160, Note_on_c, 0, 72, 95
2, 104160, Note_on_c, 0, 67, 95
2, 104160, Note_on_c, 0, 63, 95
2, 104160, Note_on_c, 0, 57, 95
2, 104160, Note_on_c, 0, 53, 95
2, 104400, Note_off_c, 0, 72, 95
2, 104400, Note_off_c, 0, 67, 95
2, 104400, Note_off_c, 0, 63, 95
2, 104400, Note_off_c, 0, 57, 95
2, 104400, Note_off_c, 0, 53, 95
2, 104400, Note_on_c, 0, 72, 95
2, 104400, Note_on_c, 0, 67, 95
2, 104400, Note_on_c, 0, 63, 95
2, 104400, Note_on_c, 0, 57, 95
2, 104400, Note_on_c, 0, 53, 95
2, 104640, Note_off_c, 0, 72, 95
2, 104640, Note_off_c, 0, 67, 95
2, 104640, Note_off_c, 0, 63, 95
2, 104640, Note_off_c, 0, 57, 95
2, 104640, Note_off_c, 0, 53, 95
2, 104640, Note_on_c, 0, 72, 95
2, 104640, Note_on_c, 0, 67, 95
2, 104640, Note_on_c, 0, 63, 95
2, 104640, Note_on_c, 0, 57, 95
2, 104640, Note_on_c, 0, 53, 95
2, 104880, Note_off_c, 0, 72, 95
2, 104880, Note_off_c, 0, 67, 95
2, 104880, Note_off_c, 0, 63, 95
2, 104880, Note_off_c, 0, 57, 95
2, 104880, Note_off_c, 0, 53, 95
2, 104880, Note_on_c, 0, 72, 95
2, 104880, Note_on_c, 0, 67, 95
2, 104880, Note_on_c, 0, 63, 95
2, 104880, Note_on_c, 0, 57, 95
2, 104880, Note_on_c, 0, 53, 95
2, 105120, Note_off_c, 0, 72, 95
2, 105120, Note_off_c, 0, 67, 95
2, 105120, Note_off_c, 0, 63, 95
2, 105120, Note_off_c, 0, 57, 95
2, 105120, Note_off_c, 0, 53, 95
2, 105120, Note_on_c, 0, 72, 95
2, 105120, Note_on_c, 0, 67, 95
2, 105120, Note_on_c, 0, 63, 95
2, 105120, Note_on_c, 0, 57, 95
2, 105120, Note_on_c, 0, 53, 95
2, 105600, Note_off_c, 0, 72, 95
2, 105600, Note_off_c, 0, 67, 95
2, 105600, Note_off_c, 0, 63, 95
2, 105600, Note_off_c, 0, 57, 95
2, 105600, Note_off_c, 0, 53, 95
2, 106080, Note_on_c, 0, 72, 95
2, 106080, Note_on_c, 0, 67, 95
2, 106080, Note_on_c, 0, 63, 95
2, 106080, Note_on_c, 0, 57, 95
2, 106080, Note_on_c, 0, 53, 95
2, 106320, Note_off_c, 0, 72, 95
2, 106320, Note_off_c, 0, 67, 95
2, 106320, Note_off_c, 0, 63, 95
2, 106320, Note_off_c, 0, 57, 95
2, 106320, Note_off_c, 0, 53, 95
2, 106320, Note_on_c, 0, 72, 95
2, 106320, Note_on_c, 0, 67, 95
2, 106320, Note_on_c, 0, 63, 95
2, 106320, Note_on_c, 0, 57, 95
2, 106320, Note_on_c, 0, 53, 95
2, 106560, Note_off_c, 0, 72, 95
2, 106560, Note_off_c, 0, 67, 95
2, 106560, Note_off_c, 0, 63, 95
2, 106560, Note_off_c, 0, 57, 95
2, 106560, Note_off_c, 0, 53, 95
2, 106560, Note_on_c, 0, 72, 95
2, 106560, Note_on_c, 0, 67, 95
2, 106560, Note_on_c, 0, 63, 95
2, 106560, Note_on_c, 0, 57, 95
2, 106560, Note_on_c, 0, 53, 95
2, 106800, Note_off_c, 0, 72, 95
2, 106800, Note_off_c, 0, 67, 95
2, 106800, Note_off_c, 0, 63, 95
2, 106800, Note_off_c, 0, 57, 95
2, 106800, Note_off_c, 0, 53, 95
2, 106800, Note_on_c, 0, 72, 95
2, 106800, Note_on_c, 0, 67, 95
2, 106800, Note_on_c, 0, 63, 95
2, 106800, Note_on_c, 0, 57, 95
2, 106800, Note_on_c, 0, 53, 95
2, 107040, Note_off_c, 0, 72, 95
2, 107040, Note_off_c, 0, 67, 95
2, 107040, Note_off_c, 0, 63, 95
2, 107040, Note_off_c, 0, 57, 95
2, 107040, Note_off_c, 0, 53, 95
2, 107040, Note_on_c, 0, 72, 95
2, 107040, Note_on_c, 0, 67, 95
2, 107040, Note_on_c, 0, 63, 95
2, 107040, Note_on_c, 0, 57, 95
2, 107040, Note_on_c, 0, 53, 95
2, 107520, Note_off_c, 0, 72, 95
2, 107520, Note_off_c, 0, 67, 95
2, 107520, Note_off_c, 0, 63, 95
2, 107520, Note_off_c, 0, 57, 95
2, 107520, Note_off_c, 0, 53, 95
2, 108000, Note_on_c, 0, 72, 95
2, 108000, Note_on_c, 0, 67, 95
2, 108000, Note_on_c, 0, 63, 95
2, 108000, Note_on_c, 0, 57, 95
2, 108000, Note_on_c, 0, 53, 95
2, 108240, Note_off_c, 0, 72, 95
2, 108240, Note_off_c, 0, 67, 95
2, 108240, Note_off_c, 0, 63, 95
2, 108240, Note_off_c, 0, 57, 95
2, 108240, Note_off_c, 0, 53, 95
2, 108240, Note_on_c, 0, 72, 95
2, 108240, Note_on_c, 0, 67, 95
2, 108240, Note_on_c, 0, 63, 95
2, 108240, Note_on_c, 0, 57, 95
2, 108240, Note_on_c, 0, 53, 95
2, 108480, Note_off_c, 0, 72, 95
2, 108480, Note_off_c, 0, 67, 95
2, 108480, Note_off_c, 0, 63, 95
2, 108480, Note_off_c, 0, 57, 95
2, 108480, Note_off_c, 0, 53, 95
2, 108480, Note_on_c, 0, 72, 95
2, 108480, Note_on_c, 0, 67, 95
2, 108480, Note_on_c, 0, 63, 95
2, 108480, Note_on_c, 0, 57, 95
2, 108480, Note_on_c, 0, 53, 95
2, 108720, Note_off_c, 0, 72, 95
2, 108720, Note_off_c, 0, 67, 95
2, 108720, Note_off_c, 0, 63, 95
2, 108720, Note_off_c, 0, 57, 95
2, 108720, Note_off_c, 0, 53, 95
2, 108720, Note_on_c, 0, 72, 95
2, 108720, Note_on_c, 0, 67, 95
2, 108720, Note_on_c, 0, 63, 95
2, 108720, Note_on_c, 0, 57, 95
2, 108720, Note_on_c, 0, 53, 95
2, 108960, Note_off_c, 0, 72, 95
2, 108960, Note_off_c, 0, 67, 95
2, 108960, Note_off_c, 0, 63, 95
2, 108960, Note_off_c, 0, 57, 95
2, 108960, Note_off_c, 0, 53, 95
2, 108960, Note_on_c, 0, 72, 95
2, 108960, Note_on_c, 0, 67, 95
2, 108960, Note_on_c, 0, 63, 95
2, 108960, Note_on_c, 0, 57, 95
2, 108960, Note_on_c, 0, 53, 95
2, 109440, Note_off_c, 0, 72, 95
2, 109440, Note_off_c, 0, 67, 95
2, 109440, Note_off_c, 0, 63, 95
2, 109440, Note_off_c, 0, 57, 95
2, 109440, Note_off_c, 0, 53, 95
2, 109920, Note_on_c, 0, 72, 95
2, 109920, Note_on_c, 0, 67, 95
2, 109920, Note_on_c, 0, 63, 95
2, 109920, Note_on_c, 0, 57, 95
2, 109920, Note_on_c, 0, 53, 95
2, 110160, Note_off_c, 0, 72, 95
2, 110160, Note_off_c, 0, 67, 95
2, 110160, Note_off_c, 0, 63, 95
2, 110160, Note_off_c, 0, 57, 95
2, 110160, Note_off_c, 0, 53, 95
2, 110160, Note_on_c, 0, 72, 95
2, 110160, Note_on_c, 0, 67, 95
2, 110160, Note_on_c, 0, 63, 95
2, 110160, Note_on_c, 0, 57, 95
2, 110160, Note_on_c, 0, 53, 95
2, 110400, Note_off_c, 0, 72, 95
2, 110400, Note_off_c, 0, 67, 95
2, 110400, Note_off_c, 0, 63, 95
2, 110400, Note_off_c, 0, 57, 95
2, 110400, Note_off_c, 0, 53, 95
2, 110400, Note_on_c, 0, 72, 95
2, 110400, Note_on_c, 0, 67, 95
2, 110400, Note_on_c, 0, 63, 95
2, 110400, Note_on_c, 0, 57, 95
2, 110400, Note_on_c, 0, 53, 95
2, 110880, Note_off_c, 0, 72, 95
2, 110880, Note_off_c, 0, 67, 95
2, 110880, Note_off_c, 0, 63, 95
2, 110880, Note_off_c, 0, 57, 95
2, 110880, Note_off_c, 0, 53, 95
2, 110880, Note_on_c, 0, 74, 95
2, 110880, Note_on_c, 0, 69, 95
2, 110880, Note_on_c, 0, 65, 95
2, 110880, Note_on_c, 0, 60, 95
2, 111360, Note_off_c, 0, 74, 95
2, 111360, Note_off_c, 0, 69, 95
2, 111360, Note_off_c, 0, 65, 95
2, 111360, Note_off_c, 0, 60, 95
2, 111840, Note_on_c, 0, 72, 95
2, 111840, Note_on_c, 0, 67, 95
2, 111840, Note_on_c, 0, 63, 95
2, 111840, Note_on_c, 0, 57, 95
2, 111840, Note_on_c, 0, 53, 95
2, 112080, Note_off_c, 0, 72, 95
2, 112080, Note_off_c, 0, 67, 95
2, 112080, Note_off_c, 0, 63, 95
2, 112080, Note_off_c, 0, 57, 95
2, 112080, Note_off_c, 0, 53, 95
2, 112080, Note_on_c, 0, 72, 95
2, 112080, Note_on_c, 0, 67, 95
2, 112080, Note_on_c, 0, 63, 95
2, 112080, Note_on_c, 0, 57, 95
2, 112080, Note_on_c, 0, 53, 95
2, 112320, Note_off_c, 0, 72, 95
2, 112320, Note_off_c, 0, 67, 95
2, 112320, Note_off_c, 0, 63, 95
2, 112320, Note_off_c, 0, 57, 95
2, 112320, Note_off_c, 0, 53, 95
2, 112320, Note_on_c, 0, 72, 95
2, 112320, Note_on_c, 0, 67, 95
2, 112320, Note_on_c, 0, 63, 95
2, 112320, Note_on_c, 0, 57, 95
2, 112320, Note_on_c, 0, 53, 95
2, 112560, Note_off_c, 0, 72, 95
2, 112560, Note_off_c, 0, 67, 95
2, 112560, Note_off_c, 0, 63, 95
2, 112560, Note_off_c, 0, 57, 95
2, 112560, Note_off_c, 0, 53, 95
2, 112560, Note_on_c, 0, 72, 95
2, 112560, Note_on_c, 0, 67, 95
2, 112560, Note_on_c, 0, 63, 95
2, 112560, Note_on_c, 0, 57, 95
2, 112560, Note_on_c, 0, 53, 95
2, 112800, Note_off_c, 0, 72, 95
2, 112800, Note_off_c, 0, 67, 95
2, 112800, Note_off_c, 0, 63, 95
2, 112800, Note_off_c, 0, 57, 95
2, 112800, Note_off_c, 0, 53, 95
2, 112800, Note_on_c, 0, 72, 95
2, 112800, Note_on_c, 0, 67, 95
2, 112800, Note_on_c, 0, 63, 95
2, 112800, Note_on_c, 0, 57, 95
2, 112800, Note_on_c, 0, 53, 95
2, 113280, Note_off_c, 0, 72, 95
2, 113280, Note_off_c, 0, 67, 95
2, 113280, Note_off_c, 0, 63, 95
2, 113280, Note_off_c, 0, 57, 95
2, 113280, Note_off_c, 0, 53, 95
2, 113760, Note_on_c, 0, 72, 95
2, 113760, Note_on_c, 0, 67, 95
2, 113760, Note_on_c, 0, 63, 95
2, 113760, Note_on_c, 0, 57, 95
2, 113760, Note_on_c, 0, 53, 95
2, 114000, Note_off_c, 0, 72, 95
2, 114000, Note_off_c, 0, 67, 95
2, 114000, Note_off_c, 0, 63, 95
2, 114000, Note_off_c, 0, 57, 95
2, 114000, Note_off_c, 0, 53, 95
2, 114000, Note_on_c, 0, 72, 95
2, 114000, Note_on_c, 0, 67, 95
2, 114000, Note_on_c, 0, 63, 95
2, 114000, Note_on_c, 0, 57, 95
2, 114000, Note_on_c, 0, 53, 95
2, 114240, Note_off_c, 0, 72, 95
2, 114240, Note_off_c, 0, 67, 95
2, 114240, Note_off_c, 0, 63, 95
2, 114240, Note_off_c, 0, 57, 95
2, 114240, Note_off_c, 0, 53, 95
2, 114240, Note_on_c, 0, 72, 95
2, 114240, Note_on_c, 0, 67, 95
2, 114240, Note_on_c, 0, 63, 95
2, 114240, Note_on_c, 0, 57, 95
2, 114240, Note_on_c, 0, 53, 95
2, 114480, Note_off_c, 0, 72, 95
2, 114480, Note_off_c, 0, 67, 95
2, 114480, Note_off_c, 0, 63, 95
2, 114480, Note_off_c, 0, 57, 95
2, 114480, Note_off_c, 0, 53, 95
2, 114480, Note_on_c, 0, 72, 95
2, 114480, Note_on_c, 0, 67, 95
2, 114480, Note_on_c, 0, 63, 95
2, 114480, Note_on_c, 0, 57, 95
2, 114480, Note_on_c, 0, 53, 95
2, 114720, Note_off_c, 0, 72, 95
2, 114720, Note_off_c, 0, 67, 95
2, 114720, Note_off_c, 0, 63, 95
2, 114720, Note_off_c, 0, 57, 95
2, 114720, Note_off_c, 0, 53, 95
2, 114720, Note_on_c, 0, 72, 95
2, 114720, Note_on_c, 0, 67, 95
2, 114720, Note_on_c, 0, 63, 95
2, 114720, Note_on_c, 0, 57, 95
2, 114720, Note_on_c, 0, 53, 95
2, 115200, Note_off_c, 0, 72, 95
2, 115200, Note_off_c, 0, 67, 95
2, 115200, Note_off_c, 0, 63, 95
2, 115200, Note_off_c, 0, 57, 95
2, 115200, Note_off_c, 0, 53, 95
2, 115680, Note_on_c, 0, 72, 95
2, 115680, Note_on_c, 0, 67, 95
2, 115680, Note_on_c, 0, 63, 95
2, 115680, Note_on_c, 0, 57, 95
2, 115680, Note_on_c, 0, 53, 95
2, 115920, Note_off_c, 0, 72, 95
2, 115920, Note_off_c, 0, 67, 95
2, 115920, Note_off_c, 0, 63, 95
2, 115920, Note_off_c, 0, 57, 95
2, 115920, Note_off_c, 0, 53, 95
2, 115920, Note_on_c, 0, 72, 95
2, 115920, Note_on_c, 0, 67, 95
2, 115920, Note_on_c, 0, 63, 95
2, 115920, Note_on_c, 0, 57, 95
2, 115920, Note_on_c, 0, 53, 95
2, 116160, Note_off_c, 0, 72, 95
2, 116160, Note_off_c, 0, 67, 95
2, 116160, Note_off_c, 0, 63, 95
2, 116160, Note_off_c, 0, 57, 95
2, 116160, Note_off_c, 0, 53, 95
2, 116160, Note_on_c, 0, 72, 95
2, 116160, Note_on_c, 0, 67, 95
2, 116160, Note_on_c, 0, 63, 95
2, 116160, Note_on_c, 0, 57, 95
2, 116160, Note_on_c, 0, 53, 95
2, 116400, Note_off_c, 0, 72, 95
2, 116400, Note_off_c, 0, 67, 95
2, 116400, Note_off_c, 0, 63, 95
2, 116400, Note_off_c, 0, 57, 95
2, 116400, Note_off_c, 0, 53, 95
2, 116400, Note_on_c, 0, 72, 95
2, 116400, Note_on_c, 0, 67, 95
2, 116400, Note_on_c, 0, 63, 95
2, 116400, Note_on_c, 0, 57, 95
2, 116400, Note_on_c, 0, 53, 95
2, 116640, Note_off_c, 0, 72, 95
2, 116640, Note_off_c, 0, 67, 95
2, 116640, Note_off_c, 0, 63, 95
2, 116640, Note_off_c, 0, 57, 95
2, 116640, Note_off_c, 0, 53, 95
2, 116640, Note_on_c, 0, 72, 95
2, 116640, Note_on_c, 0, 67, 95
2, 116640, Note_on_c, 0, 63, 95
2, 116640, Note_on_c, 0, 57, 95
2, 116640, Note_on_c, 0, 53, 95
2, 117120, Note_off_c, 0, 72, 95
2, 117120, Note_off_c, 0, 67, 95
2, 117120, Note_off_c, 0, 63, 95
2, 117120, Note_off_c, 0, 57, 95
2, 117120, Note_off_c, 0, 53, 95
2, 117600, Note_on_c, 0, 72, 95
2, 117600, Note_on_c, 0, 67, 95
2, 117600, Note_on_c, 0, 63, 95
2, 117600, Note_on_c, 0, 57, 95
2, 117600, Note_on_c, 0, 53, 95
2, 117840, Note_off_c, 0, 72, 95
2, 117840, Note_off_c, 0, 67, 95
2, 117840, Note_off_c, 0, 63, 95
2, 117840, Note_off_c, 0, 57, 95
2, 117840, Note_off_c, 0, 53, 95
2, 117840, Note_on_c, 0, 72, 95
2, 117840, Note_on_c, 0, 67, 95
2, 117840, Note_on_c, 0, 63, 95
2, 117840, Note_on_c, 0, 57, 95
2, 117840, Note_on_c, 0, 53, 95
2, 118080, Note_off_c, 0, 72, 95
2, 118080, Note_off_c, 0, 67, 95
2, 118080, Note_off_c, 0, 63, 95
2, 118080, Note_off_c, 0, 57, 95
2, 118080, Note_off_c, 0, 53, 95
2, 118080, Note_on_c, 0, 72, 95
2, 118080, Note_on_c, 0, 67, 95
2, 118080, Note_on_c, 0, 63, 95
2, 118080, Note_on_c, 0, 57, 95
2, 118080, Note_on_c, 0, 53, 95
2, 118560, Note_off_c, 0, 72, 95
2, 118560, Note_off_c, 0, 67, 95
2, 118560, Note_off_c, 0, 63, 95
2, 118560, Note_off_c, 0, 57, 95
2, 118560, Note_off_c, 0, 53, 95
2, 118560, Note_on_c, 0, 74, 95
2, 118560, Note_on_c, 0, 69, 95
2, 118560, Note_on_c, 0, 65, 95
2, 118560, Note_on_c, 0, 60, 95
2, 119040, Note_off_c, 0, 74, 95
2, 119040, Note_off_c, 0, 69, 95
2, 119040, Note_off_c, 0, 65, 95
2, 119040, Note_off_c, 0, 60, 95
2, 119520, Note_on_c, 0, 72, 95
2, 119520, Note_on_c, 0, 67, 95
2, 119520, Note_on_c, 0, 63, 95
2, 119520, Note_on_c, 0, 57, 95
2, 119520, Note_on_c, 0, 53, 95
2, 119760, Note_off_c, 0, 72, 95
2, 119760, Note_off_c, 0, 67, 95
2, 119760, Note_off_c, 0, 63, 95
2, 119760, Note_off_c, 0, 57, 95
2, 119760, Note_off_c, 0, 53, 95
2, 119760, Note_on_c, 0, 72, 95
2, 119760, Note_on_c, 0, 67, 95
2, 119760, Note_on_c, 0, 63, 95
2, 119760, Note_on_c, 0, 57, 95
2, 119760, Note_on_c, 0, 53, 95
2, 120000, Note_off_c, 0, 72, 95
2, 120000, Note_off_c, 0, 67, 95
2, 120000, Note_off_c, 0, 63, 95
2, 120000, Note_off_c, 0, 57, 95
2, 120000, Note_off_c, 0, 53, 95
2, 120000, Note_on_c, 0, 72, 95
2, 120000, Note_on_c, 0, 67, 95
2, 120000, Note_on_c, 0, 63, 95
2, 120000, Note_on_c, 0, 57, 95
2, 120000, Note_on_c, 0, 53, 95
2, 120240, Note_off_c, 0, 72, 95
2, 120240, Note_off_c, 0, 67, 95
2, 120240, Note_off_c, 0, 63, 95
2, 120240, Note_off_c, 0, 57, 95
2, 120240, Note_off_c, 0, 53, 95
2, 120240, Note_on_c, 0, 72, 95
2, 120240, Note_on_c, 0, 67, 95
2, 120240, Note_on_c, 0, 63, 95
2, 120240, Note_on_c, 0, 57, 95
2, 120240, Note_on_c, 0, 53, 95
2, 120480, Note_off_c, 0, 72, 95
2, 120480, Note_off_c, 0, 67, 95
2, 120480, Note_off_c, 0, 63, 95
2, 120480, Note_off_c, 0, 57, 95
2, 120480, Note_off_c, 0, 53, 95
2, 120480, Note_on_c, 0, 72, 95
2, 120480, Note_on_c, 0, 67, 95
2, 120480, Note_on_c, 0, 63, 95
2, 120480, Note_on_c, 0, 57, 95
2, 120480, Note_on_c, 0, 53, 95
2, 120960, Note_off_c, 0, 72, 95
2, 120960, Note_off_c, 0, 67, 95
2, 120960, Note_off_c, 0, 63, 95
2, 120960, Note_off_c, 0, 57, 95
2, 120960, Note_off_c, 0, 53, 95
2, 121440, Note_on_c, 0, 72, 95
2, 121440, Note_on_c, 0, 67, 95
2, 121440, Note_on_c, 0, 63, 95
2, 121440, Note_on_c, 0, 57, 95
2, 121440, Note_on_c, 0, 53, 95
2, 121680, Note_off_c, 0, 72, 95
2, 121680, Note_off_c, 0, 67, 95
2, 121680, Note_off_c, 0, 63, 95
2, 121680, Note_off_c, 0, 57, 95
2, 121680, Note_off_c, 0, 53, 95
2, 121680, Note_on_c, 0, 72, 95
2, 121680, Note_on_c, 0, 67, 95
2, 121680, Note_on_c, 0, 63, 95
2, 121680, Note_on_c, 0, 57, 95
2, 121680, Note_on_c, 0, 53, 95
2, 121920, Note_off_c, 0, 72, 95
2, 121920, Note_off_c, 0, 67, 95
2, 121920, Note_off_c, 0, 63, 95
2, 121920, Note_off_c, 0, 57, 95
2, 121920, Note_off_c, 0, 53, 95
2, 121920, Note_on_c, 0, 72, 95
2, 121920, Note_on_c, 0, 67, 95
2, 121920, Note_on_c, 0, 63, 95
2, 121920, Note_on_c, 0, 57, 95
2, 121920, Note_on_c, 0, 53, 95
2, 122160, Note_off_c, 0, 72, 95
2, 122160, Note_off_c, 0, 67, 95
2, 122160, Note_off_c, 0, 63, 95
2, 122160, Note_off_c, 0, 57, 95
2, 122160, Note_off_c, 0, 53, 95
2, 122160, Note_on_c, 0, 72, 95
2, 122160, Note_on_c, 0, 67, 95
2, 122160, Note_on_c, 0, 63, 95
2, 122160, Note_on_c, 0, 57, 95
2, 122160, Note_on_c, 0, 53, 95
2, 122400, Note_off_c, 0, 72, 95
2, 122400, Note_off_c, 0, 67, 95
2, 122400, Note_off_c, 0, 63, 95
2, 122400, Note_off_c, 0, 57, 95
2, 122400, Note_off_c, 0, 53, 95
2, 122400, Note_on_c, 0, 72, 95
2, 122400, Note_on_c, 0, 67, 95
2, 122400, Note_on_c, 0, 63, 95
2, 122400, Note_on_c, 0, 57, 95
2, 122400, Note_on_c, 0, 53, 95
2, 122880, Note_off_c, 0, 72, 95
2, 122880, Note_off_c, 0, 67, 95
2, 122880, Note_off_c, 0, 63, 95
2, 122880, Note_off_c, 0, 57, 95
2, 122880, Note_off_c, 0, 53, 95
2, 123360, Note_on_c, 0, 72, 95
2, 123360, Note_on_c, 0, 67, 95
2, 123360, Note_on_c, 0, 63, 95
2, 123360, Note_on_c, 0, 57, 95
2, 123360, Note_on_c, 0, 53, 95
2, 123600, Note_off_c, 0, 72, 95
2, 123600, Note_off_c, 0, 67, 95
2, 123600, Note_off_c, 0, 63, 95
2, 123600, Note_off_c, 0, 57, 95
2, 123600, Note_off_c, 0, 53, 95
2, 123600, Note_on_c, 0, 72, 95
2, 123600, Note_on_c, 0, 67, 95
2, 123600, Note_on_c, 0, 63, 95
2, 123600, Note_on_c, 0, 57, 95
2, 123600, Note_on_c, 0, 53, 95
2, 123840, Note_off_c, 0, 72, 95
2, 123840, Note_off_c, 0, 67, 95
2, 123840, Note_off_c, 0, 63, 95
2, 123840, Note_off_c, 0, 57, 95
2, 123840, Note_off_c, 0, 53, 95
2, 123840, Note_on_c, 0, 72, 95
2, 123840, Note_on_c, 0, 67, 95
2, 123840, Note_on_c, 0, 63, 95
2, 123840, Note_on_c, 0, 57, 95
2, 123840, Note_on_c, 0, 53, 95
2, 124080, Note_off_c, 0, 72, 95
2, 124080, Note_off_c, 0, 67, 95
2, 124080, Note_off_c, 0, 63, 95
2, 124080, Note_off_c, 0, 57, 95
2, 124080, Note_off_c, 0, 53, 95
2, 124080, Note_on_c, 0, 72, 95
2, 124080, Note_on_c, 0, 67, 95
2, 124080, Note_on_c, 0, 63, 95
2, 124080, Note_on_c, 0, 57, 95
2, 124080, Note_on_c, 0, 53, 95
2, 124320, Note_off_c, 0, 72, 95
2, 124320, Note_off_c, 0, 67, 95
2, 124320, Note_off_c, 0, 63, 95
2, 124320, Note_off_c, 0, 57, 95
2, 124320, Note_off_c, 0, 53, 95
2, 124320, Note_on_c, 0, 72, 95
2, 124320, Note_on_c, 0, 67, 95
2, 124320, Note_on_c, 0, 63, 95
2, 124320, Note_on_c, 0, 57, 95
2, 124320, Note_on_c, 0, 53, 95
2, 124800, Note_off_c, 0, 72, 95
2, 124800, Note_off_c, 0, 67, 95
2, 124800, Note_off_c, 0, 63, 95
2, 124800, Note_off_c, 0, 57, 95
2, 124800, Note_off_c, 0, 53, 95
2, 125280, Note_on_c, 0, 72, 95
2, 125280, Note_on_c, 0, 67, 95
2, 125280, Note_on_c, 0, 63, 95
2, 125280, Note_on_c, 0, 57, 95
2, 125280, Note_on_c, 0, 53, 95
2, 125520, Note_off_c, 0, 72, 95
2, 125520, Note_off_c, 0, 67, 95
2, 125520, Note_off_c, 0, 63, 95
2, 125520, Note_off_c, 0, 57, 95
2, 125520, Note_off_c, 0, 53, 95
2, 125520, Note_on_c, 0, 72, 95
2, 125520, Note_on_c, 0, 67, 95
2, 125520, Note_on_c, 0, 63, 95
2, 125520, Note_on_c, 0, 57, 95
2, 125520, Note_on_c, 0, 53, 95
2, 125760, Note_off_c, 0, 72, 95
2, 125760, Note_off_c, 0, 67, 95
2, 125760, Note_off_c, 0, 63, 95
2, 125760, Note_off_c, 0, 57, 95
2, 125760, Note_off_c, 0, 53, 95
2, 125760, Note_on_c, 0, 72, 95
2, 125760, Note_on_c, 0, 67, 95
2, 125760, Note_on_c, 0, 63, 95
2, 125760, Note_on_c, 0, 57, 95
2, 125760, Note_on_c, 0, 53, 95
2, 126240, Note_off_c, 0, 72, 95
2, 126240, Note_off_c, 0, 67, 95
2, 126240, Note_off_c, 0, 63, 95
2, 126240, Note_off_c, 0, 57, 95
2, 126240, Note_off_c, 0, 53, 95
2, 126240, Note_on_c, 0, 74, 95
2, 126240, Note_on_c, 0, 69, 95
2, 126240, Note_on_c, 0, 65, 95
2, 126240, Note_on_c, 0, 60, 95
2, 126720, Note_off_c, 0, 74, 95
2, 126720, Note_off_c, 0, 69, 95
2, 126720, Note_off_c, 0, 65, 95
2, 126720, Note_off_c, 0, 60, 95
2, 127200, Note_on_c, 0, 72, 95
2, 127200, Note_on_c, 0, 67, 95
2, 127200, Note_on_c, 0, 63, 95
2, 127200, Note_on_c, 0, 57, 95
2, 127200, Note_on_c, 0, 53, 95
2, 127440, Note_off_c, 0, 72, 95
2, 127440, Note_off_c, 0, 67, 95
2, 127440, Note_off_c, 0, 63, 95
2, 127440, Note_off_c, 0, 57, 95
2, 127440, Note_off_c, 0, 53, 95
2, 127440, Note_on_c, 0, 72, 95
2, 127440, Note_on_c, 0, 67, 95
2, 127440, Note_on_c, 0, 63, 95
2, 127440, Note_on_c, 0, 57, 95
2, 127440, Note_on_c, 0, 53, 95
2, 127680, Note_off_c, 0, 72, 95
2, 127680, Note_off_c, 0, 67, 95
2, 127680, Note_off_c, 0, 63, 95
2, 127680, Note_off_c, 0, 57, 95
2, 127680, Note_off_c, 0, 53, 95
2, 127680, Note_on_c, 0, 72, 95
2, 127680, Note_on_c, 0, 67, 95
2, 127680, Note_on_c, 0, 63, 95
2, 127680, Note_on_c, 0, 57, 95
2, 127680, Note_on_c, 0, 53, 95
2, 127920, Note_off_c, 0, 72, 95
2, 127920, Note_off_c, 0, 67, 95
2, 127920, Note_off_c, 0, 63, 95
2, 127920, Note_off_c, 0, 57, 95
2, 127920, Note_off_c, 0, 53, 95
2, 127920, Note_on_c, 0, 72, 95
2, 127920, Note_on_c, 0, 67, 95
2, 127920, Note_on_c, 0, 63, 95
2, 127920, Note_on_c, 0, 57, 95
2, 127920, Note_on_c, 0, 53, 95
2, 128160, Note_off_c, 0, 72, 95
2, 128160, Note_off_c, 0, 67, 95
2, 128160, Note_off_c, 0, 63, 95
2, 128160, Note_off_c, 0, 57, 95
2, 128160, Note_off_c, 0, 53, 95
2, 128160, Note_on_c, 0, 72, 95
2, 128160, Note_on_c, 0, 67, 95
2, 128160, Note_on_c, 0, 63, 95
2, 128160, Note_on_c, 0, 57, 95
2, 128160, Note_on_c, 0, 53, 95
2, 128640, Note_off_c, 0, 72, 95
2, 128640, Note_off_c, 0, 67, 95
2, 128640, Note_off_c, 0, 63, 95
2, 128640, Note_off_c, 0, 57, 95
2, 128640, Note_off_c, 0, 53, 95
2, 129120, Note_on_c, 0, 72, 95
2, 129120, Note_on_c, 0, 67, 95
2, 129120, Note_on_c, 0, 63, 95
2, 129120, Note_on_c, 0, 57, 95
2, 129120, Note_on_c, 0, 53, 95
2, 129360, Note_off_c, 0, 72, 95
2, 129360, Note_off_c, 0, 67, 95
2, 129360, Note_off_c, 0, 63, 95
2, 129360, Note_off_c, 0, 57, 95
2, 129360, Note_off_c, 0, 53, 95
2, 129360, Note_on_c, 0, 72, 95
2, 129360, Note_on_c, 0, 67, 95
2, 129360, Note_on_c, 0, 63, 95
2, 129360, Note_on_c, 0, 57, 95
2, 129360, Note_on_c, 0, 53, 95
2, 129600, Note_off_c, 0, 72, 95
2, 129600, Note_off_c, 0, 67, 95
2, 129600, Note_off_c, 0, 63, 95
2, 129600, Note_off_c, 0, 57, 95
2, 129600, Note_off_c, 0, 53, 95
2, 129600, Note_on_c, 0, 72, 95
2, 129600, Note_on_c, 0, 67, 95
2, 129600, Note_on_c, 0, 63, 95
2, 129600, Note_on_c, 0, 57, 95
2, 129600, Note_on_c, 0, 53, 95
2, 129840, Note_off_c, 0, 72, 95
2, 129840, Note_off_c, 0, 67, 95
2, 129840, Note_off_c, 0, 63, 95
2, 129840, Note_off_c, 0, 57, 95
2, 129840, Note_off_c, 0, 53, 95
2, 129840, Note_on_c, 0, 72, 95
2, 129840, Note_on_c, 0, 67, 95
2, 129840, Note_on_c, 0, 63, 95
2, 129840, Note_on_c, 0, 57, 95
2, 129840, Note_on_c, 0, 53, 95
2, 130080, Note_off_c, 0, 72, 95
2, 130080, Note_off_c, 0, 67, 95
2, 130080, Note_off_c, 0, 63, 95
2, 130080, Note_off_c, 0, 57, 95
2, 130080, Note_off_c, 0, 53, 95
2, 130080, Note_on_c, 0, 72, 95
2, 130080, Note_on_c, 0, 67, 95
2, 130080, Note_on_c, 0, 63, 95
2, 130080, Note_on_c, 0, 57, 95
2, 130080, Note_on_c, 0, 53, 95
2, 130560, Note_off_c, 0, 72, 95
2, 130560, Note_off_c, 0, 67, 95
2, 130560, Note_off_c, 0, 63, 95
2, 130560, Note_off_c, 0, 57, 95
2, 130560, Note_off_c, 0, 53, 95
2, 131040, Note_on_c, 0, 72, 95
2, 131040, Note_on_c, 0, 67, 95
2, 131040, Note_on_c, 0, 63, 95
2, 131040, Note_on_c, 0, 57, 95
2, 131040, Note_on_c, 0, 53, 95
2, 131280, Note_off_c, 0, 72, 95
2, 131280, Note_off_c, 0, 67, 95
2, 131280, Note_off_c, 0, 63, 95
2, 131280, Note_off_c, 0, 57, 95
2, 131280, Note_off_c, 0, 53, 95
2, 131280, Note_on_c, 0, 72, 95
2, 131280, Note_on_c, 0, 67, 95
2, 131280, Note_on_c, 0, 63, 95
2, 131280, Note_on_c, 0, 57, 95
2, 131280, Note_on_c, 0, 53, 95
2, 131520, Note_off_c, 0, 72, 95
2, 131520, Note_off_c, 0, 67, 95
2, 131520, Note_off_c, 0, 63, 95
2, 131520, Note_off_c, 0, 57, 95
2, 131520, Note_off_c, 0, 53, 95
2, 131520, Note_on_c, 0, 72, 95
2, 131520, Note_on_c, 0, 67, 95
2, 131520, Note_on_c, 0, 63, 95
2, 131520, Note_on_c, 0, 57, 95
2, 131520, Note_on_c, 0, 53, 95
2, 131760, Note_off_c, 0, 72, 95
2, 131760, Note_off_c, 0, 67, 95
2, 131760, Note_off_c, 0, 63, 95
2, 131760, Note_off_c, 0, 57, 95
2, 131760, Note_off_c, 0, 53, 95
2, 131760, Note_on_c, 0, 72, 95
2, 131760, Note_on_c, 0, 67, 95
2, 131760, Note_on_c, 0, 63, 95
2, 131760, Note_on_c, 0, 57, 95
2, 131760, Note_on_c, 0, 53, 95
2, 132000, Note_off_c, 0, 72, 95
2, 132000, Note_off_c, 0, 67, 95
2, 132000, Note_off_c, 0, 63, 95
2, 132000, Note_off_c, 0, 57, 95
2, 132000, Note_off_c, 0, 53, 95
2, 132000, Note_on_c, 0, 72, 95
2, 132000, Note_on_c, 0, 67, 95
2, 132000, Note_on_c, 0, 63, 95
2, 132000, Note_on_c, 0, 57, 95
2, 132000, Note_on_c, 0, 53, 95
2, 132480, Note_off_c, 0, 72, 95
2, 132480, Note_off_c, 0, 67, 95
2, 132480, Note_off_c, 0, 63, 95
2, 132480, Note_off_c, 0, 57, 95
2, 132480, Note_off_c, 0, 53, 95
2, 132960, Note_on_c, 0, 72, 95
2, 132960, Note_on_c, 0, 67, 95
2, 132960, Note_on_c, 0, 63, 95
2, 132960, Note_on_c, 0, 57, 95
2, 132960, Note_on_c, 0, 53, 95
2, 133200, Note_off_c, 0, 72, 95
2, 133200, Note_off_c, 0, 67, 95
2, 133200, Note_off_c, 0, 63, 95
2, 133200, Note_off_c, 0, 57, 95
2, 133200, Note_off_c, 0, 53, 95
2, 133200, Note_on_c, 0, 72, 95
2, 133200, Note_on_c, 0, 67, 95
2, 133200, Note_on_c, 0, 63, 95
2, 133200, Note_on_c, 0, 57, 95
2, 133200, Note_on_c, 0, 53, 95
2, 133440, Note_off_c, 0, 72, 95
2, 133440, Note_off_c, 0, 67, 95
2, 133440, Note_off_c, 0, 63, 95
2, 133440, Note_off_c, 0, 57, 95
2, 133440, Note_off_c, 0, 53, 95
2, 133440, Note_on_c, 0, 72, 95
2, 133440, Note_on_c, 0, 67, 95
2, 133440, Note_on_c, 0, 63, 95
2, 133440, Note_on_c, 0, 57, 95
2, 133440, Note_on_c, 0, 53, 95
2, 133920, Note_off_c, 0, 72, 95
2, 133920, Note_off_c, 0, 67, 95
2, 133920, Note_off_c, 0, 63, 95
2, 133920, Note_off_c, 0, 57, 95
2, 133920, Note_off_c, 0, 53, 95
2, 133920, Note_on_c, 0, 74, 95
2, 133920, Note_on_c, 0, 69, 95
2, 133920, Note_on_c, 0, 65, 95
2, 133920, Note_on_c, 0, 60, 95
2, 134400, Note_off_c, 0, 74, 95
2, 134400, Note_off_c, 0, 69, 95
2, 134400, Note_off_c, 0, 65, 95
2, 134400, Note_off_c, 0, 60, 95
2, 135360, Note_on_c, 0, 72, 95
2, 135360, Note_on_c, 0, 67, 95
2, 135360, Note_on_c, 0, 63, 95
2, 135360, Note_on_c, 0, 57, 95
2, 135360, Note_on_c, 0, 53, 95
2, 142080, Note_off_c, 0, 72, 95
2, 142080, Note_off_c, 0, 67, 95
2, 142080, Note_off_c, 0, 63, 95
2, 142080, Note_off_c, 0, 57, 95
2, 142080, Note_off_c, 0, 53, 95
2, 142080, Note_on_c, 0, 41, 95
2, 143040, Note_off_c, 0, 41, 95
2, 143040, Note_on_c, 0, 53, 95
2, 145440, Note_off_c, 0, 53, 95
2, 145440, Note_on_c, 0, 51, 95
2, 145920, Note_off_c, 0, 51, 95
2, 145920, Note_on_c, 0, 51, 47
2, 147360, Note_off_c, 0, 51, 47
2, 147360, Note_on_c, 0, 48, 95
2, 148320, Note_off_c, 0, 48, 95
2, 148320, Note_on_c, 0, 46, 95
2, 149280, Note_off_c, 0, 46, 95
2, 149280, Note_on_c, 0, 48, 95
2, 149760, Note_off_c, 0, 48, 95
2, 149760, Note_on_c, 0, 41, 95
2, 150720, Note_off_c, 0, 41, 95
2, 150720, Note_on_c, 0, 53, 95
2, 153120, Note_off_c, 0, 53, 95
2, 153120, Note_on_c, 0, 51, 95
2, 153600, Note_off_c, 0, 51, 95
2, 153600, Note_on_c, 0, 51, 47
2, 155040, Note_off_c, 0, 51, 47
2, 155040, Note_on_c, 0, 48, 95
2, 156000, Note_off_c, 0, 48, 95
2, 156000, Note_on_c, 0, 46, 95
2, 156960, Note_off_c, 0, 46, 95
2, 156960, Note_on_c, 0, 48, 95
2, 157440, Note_off_c, 0, 48, 95
2, 157440, Note_on_c, 0, 41, 95
2, 158400, Note_off_c, 0, 41, 95
2, 158400, Note_on_c, 0, 53, 95
2, 160800, Note_off_c, 0, 53, 95
2, 160800, Note_on_c, 0, 51, 95
2, 161280, Note_off_c, 0, 51, 95
2, 161280, Note_on_c, 0, 51, 47
2, 162720, Note_off_c, 0, 51, 47
2, 162720, Note_on_c, 0, 48, 95
2, 163680, Note_off_c, 0, 48, 95
2, 163680, Note_on_c, 0, 46, 95
2, 164640, Note_off_c, 0, 46, 95
2, 164640, Note_on_c, 0, 48, 95
2, 165120, Note_off_c, 0, 48, 95
2, 165120, Note_on_c, 0, 41, 95
2, 166080, Note_off_c, 0, 41, 95
2, 166080, Note_on_c, 0, 53, 95
2, 168480, Note_off_c, 0, 53, 95
2, 168480, Note_on_c, 0, 51, 95
2, 168960, Note_off_c, 0, 51, 95
2, 168960, Note_on_c, 0, 51, 47
2, 170400, Note_off_c, 0, 51, 47
2, 170400, Note_on_c, 0, 48, 95
2, 171360, Note_off_c, 0, 48, 95
2, 171360, Note_on_c, 0, 46, 95
2, 172320, Note_off_c, 0, 46, 95
2, 172320, Note_on_c, 0, 48, 95
2, 172800, Note_off_c, 0, 48, 95
2, 172800, Note_on_c, 0, 41, 95
2, 173760, Note_off_c, 0, 41, 95
2, 173760, Note_on_c, 0, 53, 95
2, 176160, Note_off_c, 0, 53, 95
2, 176160, Note_on_c, 0, 51, 95
2, 176640, Note_off_c, 0, 51, 95
2, 176640, Note_on_c, 0, 51, 47
2, 178080, Note_off_c, 0, 51, 47
2, 178080, Note_on_c, 0, 48, 95
2, 179040, Note_off_c, 0, 48, 95
2, 179040, Note_on_c, 0, 46, 95
2, 180000, Note_off_c, 0, 46, 95
2, 180000, Note_on_c, 0, 48, 95
2, 180480, Note_off_c, 0, 48, 95
2, 180480, Note_on_c, 0, 41, 95
2, 181440, Note_off_c, 0, 41, 95
2, 181440, Note_on_c, 0, 53, 95
2, 183840, Note_off_c, 0, 53, 95
2, 183840, Note_on_c, 0, 51, 95
2, 184320, Note_off_c, 0, 51, 95
2, 184320, Note_on_c, 0, 51, 47
2, 185760, Note_off_c, 0, 51, 47
2, 185760, Note_on_c, 0, 48, 95
2, 186720, Note_off_c, 0, 48, 95
2, 186720, Note_on_c, 0, 46, 95
2, 187680, Note_off_c, 0, 46, 95
2, 187680, Note_on_c, 0, 48, 95
2, 188160, Note_off_c, 0, 48, 95
2, 188160, Note_on_c, 0, 41, 95
2, 189120, Note_off_c, 0, 41, 95
2, 189120, Note_on_c, 0, 53, 95
2, 191520, Note_off_c, 0, 53, 95
2, 191520, Note_on_c, 0, 51, 95
2, 192000, Note_off_c, 0, 51, 95
2, 192000, Note_on_c, 0, 51, 47
2, 193440, Note_off_c, 0, 51, 47
2, 193440, Note_on_c, 0, 48, 95
2, 194400, Note_off_c, 0, 48, 95
2, 194400, Note_on_c, 0, 46, 95
2, 195360, Note_off_c, 0, 46, 95
2, 195360, Note_on_c, 0, 48, 95
2, 195840, Note_off_c, 0, 48, 95
2, 195840, Note_on_c, 0, 41, 95
2, 196800, Note_off_c, 0, 41, 95
2, 196800, Note_on_c, 0, 53, 95
2, 199200, Note_off_c, 0, 53, 95
2, 199200, Note_on_c, 0, 51, 95
2, 199680, Note_off_c, 0, 51, 95
2, 199680, Note_on_c, 0, 51, 47
2, 201120, Note_off_c, 0, 51, 47
2, 201120, Note_on_c, 0, 48, 95
2, 202080, Note_off_c, 0, 48, 95
2, 202080, Note_on_c, 0, 46, 95
2, 203040, Note_off_c, 0, 46, 95
2, 203040, Note_on_c, 0, 48, 95
2, 203520, Note_off_c, 0, 48, 95
2, 203520, Note_on_c, 0, 41, 95
2, 204480, Note_off_c, 0, 41, 95
2, 204480, Note_on_c, 0, 53, 95
2, 206880, Note_off_c, 0, 53, 95
2, 206880, Note_on_c, 0, 51, 95
2, 207360, Note_off_c, 0, 51, 95
2, 207360, Note_on_c, 0, 51, 47
2, 208800, Note_off_c, 0, 51, 47
2, 208800, Note_on_c, 0, 48, 95
2, 209760, Note_off_c, 0, 48, 95
2, 209760, Note_on_c, 0, 46, 95
2, 210720, Note_off_c, 0, 46, 95
2, 210720, Note_on_c, 0, 48, 95
2, 211200, Note_off_c, 0, 48, 95
2, 211200, Note_on_c, 0, 64, 95
2, 211200, Note_on_c, 0, 59, 95
2, 211200, Note_on_c, 0, 55, 95
2, 211200, Note_on_c, 0, 50, 95
2, 211272, Note_off_c, 0, 64, 95
2, 211272, Note_off_c, 0, 59, 95
2, 211272, Note_off_c, 0, 55, 95
2, 211272, Note_off_c, 0, 50, 95
2, 211440, Note_on_c, 0, 64, 95
2, 211440, Note_on_c, 0, 59, 95
2, 211440, Note_on_c, 0, 55, 95
2, 211440, Note_on_c, 0, 50, 95
2, 211512, Note_off_c, 0, 64, 95
2, 211512, Note_off_c, 0, 59, 95
2, 211512, Note_off_c, 0, 55, 95
2, 211512, Note_off_c, 0, 50, 95
2, 211680, Note_on_c, 0, 64, 95
2, 211680, Note_on_c, 0, 59, 95
2, 211680, Note_on_c, 0, 55, 95
2, 211680, Note_on_c, 0, 50, 95
2, 211752, Note_off_c, 0, 64, 95
2, 211752, Note_off_c, 0, 59, 95
2, 211752, Note_off_c, 0, 55, 95
2, 211752, Note_off_c, 0, 50, 95
2, 211920, Note_on_c, 0, 64, 95
2, 211920, Note_on_c, 0, 59, 95
2, 211920, Note_on_c, 0, 55, 95
2, 211920, Note_on_c, 0, 50, 95
2, 211992, Note_off_c, 0, 64, 95
2, 211992, Note_off_c, 0, 59, 95
2, 211992, Note_off_c, 0, 55, 95
2, 211992, Note_off_c, 0, 50, 95
2, 212160, Note_on_c, 0, 64, 95
2, 212160, Note_on_c, 0, 59, 95
2, 212160, Note_on_c, 0, 55, 95
2, 212160, Note_on_c, 0, 50, 95
2, 212232, Note_off_c, 0, 64, 95
2, 212232, Note_off_c, 0, 59, 95
2, 212232, Note_off_c, 0, 55, 95
2, 212232, Note_off_c, 0, 50, 95
2, 212400, Note_on_c, 0, 64, 95
2, 212400, Note_on_c, 0, 59, 95
2, 212400, Note_on_c, 0, 55, 95
2, 212400, Note_on_c, 0, 50, 95
2, 212472, Note_off_c, 0, 64, 95
2, 212472, Note_off_c, 0, 59, 95
2, 212472, Note_off_c, 0, 55, 95
2, 212472, Note_off_c, 0, 50, 95
2, 212640, Note_on_c, 0, 64, 95
2, 212640, Note_on_c, 0, 59, 95
2, 212640, Note_on_c, 0, 55, 95
2, 212640, Note_on_c, 0, 50, 95
2, 212712, Note_off_c, 0, 64, 95
2, 212712, Note_off_c, 0, 59, 95
2, 212712, Note_off_c, 0, 55, 95
2, 212712, Note_off_c, 0, 50, 95
2, 212880, Note_on_c, 0, 64, 95
2, 212880, Note_on_c, 0, 59, 95
2, 212880, Note_on_c, 0, 55, 95
2, 212880, Note_on_c, 0, 50, 95
2, 212952, Note_off_c, 0, 64, 95
2, 212952, Note_off_c, 0, 59, 95
2, 212952, Note_off_c, 0, 55, 95
2, 212952, Note_off_c, 0, 50, 95
2, 213120, Note_on_c, 0, 64, 95
2, 213120, Note_on_c, 0, 59, 95
2, 213120, Note_on_c, 0, 55, 95
2, 213120, Note_on_c, 0, 50, 95
2, 213192, Note_off_c, 0, 64, 95
2, 213192, Note_off_c, 0, 59, 95
2, 213192, Note_off_c, 0, 55, 95
2, 213192, Note_off_c, 0, 50, 95
2, 213360, Note_on_c, 0, 64, 95
2, 213360, Note_on_c, 0, 59, 95
2, 213360, Note_on_c, 0, 55, 95
2, 213360, Note_on_c, 0, 50, 95
2, 213432, Note_off_c, 0, 64, 95
2, 213432, Note_off_c, 0, 59, 95
2, 213432, Note_off_c, 0, 55, 95
2, 213432, Note_off_c, 0, 50, 95
2, 213600, Note_on_c, 0, 64, 95
2, 213600, Note_on_c, 0, 59, 95
2, 213600, Note_on_c, 0, 55, 95
2, 213600, Note_on_c, 0, 50, 95
2, 213672, Note_off_c, 0, 64, 95
2, 213672, Note_off_c, 0, 59, 95
2, 213672, Note_off_c, 0, 55, 95
2, 213672, Note_off_c, 0, 50, 95
2, 213840, Note_on_c, 0, 64, 95
2, 213840, Note_on_c, 0, 59, 95
2, 213840, Note_on_c, 0, 55, 95
2, 213840, Note_on_c, 0, 50, 95
2, 213912, Note_off_c, 0, 64, 95
2, 213912, Note_off_c, 0, 59, 95
2, 213912, Note_off_c, 0, 55, 95
2, 213912, Note_off_c, 0, 50, 95
2, 214080, Note_on_c, 0, 64, 95
2, 214080, Note_on_c, 0, 59, 95
2, 214080, Note_on_c, 0, 55, 95
2, 214080, Note_on_c, 0, 50, 95
2, 214152, Note_off_c, 0, 64, 95
2, 214152, Note_off_c, 0, 59, 95
2, 214152, Note_off_c, 0, 55, 95
2, 214152, Note_off_c, 0, 50, 95
2, 214320, Note_on_c, 0, 64, 95
2, 214320, Note_on_c, 0, 59, 95
2, 214320, Note_on_c, 0, 55, 95
2, 214320, Note_on_c, 0, 50, 95
2, 214392, Note_off_c, 0, 64, 95
2, 214392, Note_off_c, 0, 59, 95
2, 214392, Note_off_c, 0, 55, 95
2, 214392, Note_off_c, 0, 50, 95
2, 214560, Note_on_c, 0, 64, 95
2, 214560, Note_on_c, 0, 59, 95
2, 214560, Note_on_c, 0, 55, 95
2, 214560, Note_on_c, 0, 50, 95
2, 214632, Note_off_c, 0, 64, 95
2, 214632, Note_off_c, 0, 59, 95
2, 214632, Note_off_c, 0, 55, 95
2, 214632, Note_off_c, 0, 50, 95
2, 214800, Note_on_c, 0, 64, 95
2, 214800, Note_on_c, 0, 59, 95
2, 214800, Note_on_c, 0, 55, 95
2, 214800, Note_on_c, 0, 50, 95
2, 214872, Note_off_c, 0, 64, 95
2, 214872, Note_off_c, 0, 59, 95
2, 214872, Note_off_c, 0, 55, 95
2, 214872, Note_off_c, 0, 50, 95
2, 272640, Note_on_c, 0, 41, 95
2, 273600, Note_off_c, 0, 41, 95
2, 273600, Note_on_c, 0, 53, 95
2, 276000, Note_off_c, 0, 53, 95
2, 276000, Note_on_c, 0, 51, 95
2, 276480, Note_off_c, 0, 51, 95
2, 276480, Note_on_c, 0, 51, 47
2, 277920, Note_off_c, 0, 51, 47
2, 277920, Note_on_c, 0, 48, 95
2, 278880, Note_off_c, 0, 48, 95
2, 278880, Note_on_c, 0, 46, 95
2, 279840, Note_off_c, 0, 46, 95
2, 279840, Note_on_c, 0, 48, 95
2, 280320, Note_off_c, 0, 48, 95
2, 280320, Note_on_c, 0, 41, 95
2, 281280, Note_off_c, 0, 41, 95
2, 281280, Note_on_c, 0, 53, 95
2, 283680, Note_off_c, 0, 53, 95
2, 283680, Note_on_c, 0, 51, 95
2, 284160, Note_off_c, 0, 51, 95
2, 284160, Note_on_c, 0, 51, 47
2, 285600, Note_off_c, 0, 51, 47
2, 285600, Note_on_c, 0, 48, 95
2, 286560, Note_off_c, 0, 48, 95
2, 286560, Note_on_c, 0, 46, 95
2, 287520, Note_off_c, 0, 46, 95
2, 287520, Note_on_c, 0, 48, 95
2, 288000, Note_off_c, 0, 48, 95
2, 288000, Note_on_c, 0, 41, 95
2, 288960, Note_off_c, 0, 41, 95
2, 288960, Note_on_c, 0, 53, 95
2, 291360, Note_off_c, 0, 53, 95
2, 291360, Note_on_c, 0, 51, 95
2, 291840, Note_off_c, 0, 51, 95
2, 291840, Note_on_c, 0, 51, 47
2, 293280, Note_off_c, 0, 51, 47
2, 293280, Note_on_c, 0, 48, 95
2, 294240, Note_off_c, 0, 48, 95
2, 294240, Note_on_c, 0, 46, 95
2, 295200, Note_off_c, 0, 46, 95
2, 295200, Note_on_c, 0, 48, 95
2, 295680, Note_off_c, 0, 48, 95
2, 295680, Note_on_c, 0, 41, 95
2, 296640, Note_off_c, 0, 41, 95
2, 296640, Note_on_c, 0, 53, 95
2, 299040, Note_off_c, 0, 53, 95
2, 299040, Note_on_c, 0, 51, 95
2, 299520, Note_off_c, 0, 51, 95
2, 299520, Note_on_c, 0, 51, 47
2, 300960, Note_off_c, 0, 51, 47
2, 300960, Note_on_c, 0, 48, 95
2, 301920, Note_off_c, 0, 48, 95
2, 301920, Note_on_c, 0, 46, 95
2, 302880, Note_off_c, 0, 46, 95
2, 302880, Note_on_c, 0, 48, 95
2, 303360, Note_off_c, 0, 48, 95
2, 303840, Note_on_c, 0, 72, 95
2, 303840, Note_on_c, 0, 67, 95
2, 303840, Note_on_c, 0, 63, 95
2, 303840, Note_on_c, 0, 57, 95
2, 303840, Note_on_c, 0, 53, 95
2, 304080, Note_off_c, 0, 72, 95
2, 304080, Note_off_c, 0, 67, 95
2, 304080, Note_off_c, 0, 63, 95
2, 304080, Note_off_c, 0, 57, 95
2, 304080, Note_off_c, 0, 53, 95
2, 304080, Note_on_c, 0, 72, 95
2, 304080, Note_on_c, 0, 67, 95
2, 304080, Note_on_c, 0, 63, 95
2, 304080, Note_on_c, 0, 57, 95
2, 304080, Note_on_c, 0, 53, 95
2, 304320, Note_off_c, 0, 72, 95
2, 304320, Note_off_c, 0, 67, 95
2, 304320, Note_off_c, 0, 63, 95
2, 304320, Note_off_c, 0, 57, 95
2, 304320, Note_off_c, 0, 53, 95
2, 304320, Note_on_c, 0, 72, 95
2, 304320, Note_on_c, 0, 67, 95
2, 304320, Note_on_c, 0, 63, 95
2, 304320, Note_on_c, 0, 57, 95
2, 304320, Note_on_c, 0, 53, 95
2, 304560, Note_off_c, 0, 72, 95
2, 304560, Note_off_c, 0, 67, 95
2, 304560, Note_off_c, 0, 63, 95
2, 304560, Note_off_c, 0, 57, 95
2, 304560, Note_off_c, 0, 53, 95
2, 304560, Note_on_c, 0, 72, 95
2, 304560, Note_on_c, 0, 67, 95
2, 304560, Note_on_c, 0, 63, 95
2, 304560, Note_on_c, 0, 57, 95
2, 304560, Note_on_c, 0, 53, 95
2, 304800, Note_off_c, 0, 72, 95
2, 304800, Note_off_c, 0, 67, 95
2, 304800, Note_off_c, 0, 63, 95
2, 304800, Note_off_c, 0, 57, 95
2, 304800, Note_off_c, 0, 53, 95
2, 304800, Note_on_c, 0, 72, 95
2, 304800, Note_on_c, 0, 67, 95
2, 304800, Note_on_c, 0, 63, 95
2, 304800, Note_on_c, 0, 57, 95
2, 304800, Note_on_c, 0, 53, 95
2, 305280, Note_off_c, 0, 72, 95
2, 305280, Note_off_c, 0, 67, 95
2, 305280, Note_off_c, 0, 63, 95
2, 305280, Note_off_c, 0, 57, 95
2, 305280, Note_off_c, 0, 53, 95
2, 305760, Note_on_c, 0, 72, 95
2, 305760, Note_on_c, 0, 67, 95
2, 305760, Note_on_c, 0, 63, 95
2, 305760, Note_on_c, 0, 57, 95
2, 305760, Note_on_c, 0, 53, 95
2, 306000, Note_off_c, 0, 72, 95
2, 306000, Note_off_c, 0, 67, 95
2, 306000, Note_off_c, 0, 63, 95
2, 306000, Note_off_c, 0, 57, 95
2, 306000, Note_off_c, 0, 53, 95
2, 306000, Note_on_c, 0, 72, 95
2, 306000, Note_on_c, 0, 67, 95
2, 306000, Note_on_c, 0, 63, 95
2, 306000, Note_on_c, 0, 57, 95
2, 306000, Note_on_c, 0, 53, 95
2, 306240, Note_off_c, 0, 72, 95
2, 306240, Note_off_c, 0, 67, 95
2, 306240, Note_off_c, 0, 63, 95
2, 306240, Note_off_c, 0, 57, 95
2, 306240, Note_off_c, 0, 53, 95
2, 306240, Note_on_c, 0, 72, 95
2, 306240, Note_on_c, 0, 67, 95
2, 306240, Note_on_c, 0, 63, 95
2, 306240, Note_on_c, 0, 57, 95
2, 306240, Note_on_c, 0, 53, 95
2, 306480, Note_off_c, 0, 72, 95
2, 306480, Note_off_c, 0, 67, 95
2, 306480, Note_off_c, 0, 63, 95
2, 306480, Note_off_c, 0, 57, 95
2, 306480, Note_off_c, 0, 53, 95
2, 306480, Note_on_c, 0, 72, 95
2, 306480, Note_on_c, 0, 67, 95
2, 306480, Note_on_c, 0, 63, 95
2, 306480, Note_on_c, 0, 57, 95
2, 306480, Note_on_c, 0, 53, 95
2, 306720, Note_off_c, 0, 72, 95
2, 306720, Note_off_c, 0, 67, 95
2, 306720, Note_off_c, 0, 63, 95
2, 306720, Note_off_c, 0, 57, 95
2, 306720, Note_off_c, 0, 53, 95
2, 306720, Note_on_c, 0, 72, 95
2, 306720, Note_on_c, 0, 67, 95
2, 306720, Note_on_c, 0, 63, 95
2, 306720, Note_on_c, 0, 57, 95
2, 306720, Note_on_c, 0, 53, 95
2, 307200, Note_off_c, 0, 72, 95
2, 307200, Note_off_c, 0, 67, 95
2, 307200, Note_off_c, 0, 63, 95
2, 307200, Note_off_c, 0, 57, 95
2, 307200, Note_off_c, 0, 53, 95
2, 307680, Note_on_c, 0, 72, 95
2, 307680, Note_on_c, 0, 67, 95
2, 307680, Note_on_c, 0, 63, 95
2, 307680, Note_on_c, 0, 57, 95
2, 307680, Note_on_c, 0, 53, 95
2, 307920, Note_off_c, 0, 72, 95
2, 307920, Note_off_c, 0, 67, 95
2, 307920, Note_off_c, 0, 63, 95
2, 307920, Note_off_c, 0, 57, 95
2, 307920, Note_off_c, 0, 53, 95
2, 307920, Note_on_c, 0, 72, 95
2, 307920, Note_on_c, 0, 67, 95
2, 307920, Note_on_c, 0, 63, 95
2, 307920, Note_on_c, 0, 57, 95
2, 307920, Note_on_c, 0, 53, 95
2, 308160, Note_off_c, 0, 72, 95
2, 308160, Note_off_c, 0, 67, 95
2, 308160, Note_off_c, 0, 63, 95
2, 308160, Note_off_c, 0, 57, 95
2, 308160, Note_off_c, 0, 53, 95
2, 308160, Note_on_c, 0, 72, 95
2, 308160, Note_on_c, 0, 67, 95
2, 308160, Note_on_c, 0, 63, 95
2, 308160, Note_on_c, 0, 57, 95
2, 308160, Note_on_c, 0, 53, 95
2, 308400, Note_off_c, 0, 72, 95
2, 308400, Note_off_c, 0, 67, 95
2, 308400, Note_off_c, 0, 63, 95
2, 308400, Note_off_c, 0, 57, 95
2, 308400, Note_off_c, 0, 53, 95
2, 308400, Note_on_c, 0, 72, 95
2, 308400, Note_on_c, 0, 67, 95
2, 308400, Note_on_c, 0, 63, 95
2, 308400, Note_on_c, 0, 57, 95
2, 308400, Note_on_c, 0, 53, 95
2, 308640, Note_off_c, 0, 72, 95
2, 308640, Note_off_c, 0, 67, 95
2, 308640, Note_off_c, 0, 63, 95
2, 308640, Note_off_c, 0, 57, 95
2, 308640, Note_off_c, 0, 53, 95
2, 308640, Note_on_c, 0, 72, 95
2, 308640, Note_on_c, 0, 67, 95
2, 308640, Note_on_c, 0, 63, 95
2, 308640, Note_on_c, 0, 57, 95
2, 308640, Note_on_c, 0, 53, 95
2, 309120, Note_off_c, 0, 72, 95
2, 309120, Note_off_c, 0, 67, 95
2, 309120, Note_off_c, 0, 63, 95
2, 309120, Note_off_c, 0, 57, 95
2, 309120, Note_off_c, 0, 53, 95
2, 309600, Note_on_c, 0, 72, 95
2, 309600, Note_on_c, 0, 67, 95
2, 309600, Note_on_c, 0, 63, 95
2, 309600, Note_on_c, 0, 57, 95
2, 309600, Note_on_c, 0, 53, 95
2, 309840, Note_off_c, 0, 72, 95
2, 309840, Note_off_c, 0, 67, 95
2, 309840, Note_off_c, 0, 63, 95
2, 309840, Note_off_c, 0, 57, 95
2, 309840, Note_off_c, 0, 53, 95
2, 309840, Note_on_c, 0, 72, 95
2, 309840, Note_on_c, 0, 67, 95
2, 309840, Note_on_c, 0, 63, 95
2, 309840, Note_on_c, 0, 57, 95
2, 309840, Note_on_c, 0, 53, 95
2, 310080, Note_off_c, 0, 72, 95
2, 310080, Note_off_c, 0, 67, 95
2, 310080, Note_off_c, 0, 63, 95
2, 310080, Note_off_c, 0, 57, 95
2, 310080, Note_off_c, 0, 53, 95
2, 310080, Note_on_c, 1, 72, 95
2, 310080, Note_on_c, 1, 67, 95
2, 310080, Note_on_c, 1, 63, 95
2, 310080, Note_on_c, 1, 57, 95
2, 310080, Note_on_c, 0, 53, 95
2, 310200, Pitch_bend_c, 1, 8448
2, 310200, Pitch_bend_c, 1, 8448
2, 310200, Pitch_bend_c, 1, 8448
2, 310200, Pitch_bend_c, 1, 8704
2, 310320, Pitch_bend_c, 1, 8832
2, 310320, Pitch_bend_c, 1, 8832
2, 310320, Pitch_bend_c, 1, 8832
2, 310320, Pitch_bend_c, 1, 9216
2, 310440, Pitch_bend_c, 1, 9216
2, 310440, Pitch_bend_c, 1, 9216
2, 310440, Pitch_bend_c, 1, 9216
2, 310440, Pitch_bend_c, 1, 9728
2, 310560, Pitch_bend_c, 1, 9600
2, 310560, Pitch_bend_c, 1, 8192
2, 310560, Note_off_c, 1, 72, 95
2, 310560, Pitch_bend_c, 1, 9600
2, 310560, Pitch_bend_c, 1, 8192
2, 310560, Note_off_c, 1, 67, 95
2, 310560, Pitch_bend_c, 1, 9600
2, 310560, Pitch_bend_c, 1, 8192
2, 310560, Note_off_c, 1, 63, 95
2, 310560, Pitch_bend_c, 1, 10240
2, 310560, Pitch_bend_c, 1, 8192
2, 310560, Note_off_c, 1, 57, 95
2, 310560, Note_off_c, 0, 53, 95
2, 310560, Note_on_c, 0, 74, 95
2, 310560, Note_on_c, 0, 69, 95
2, 310560, Note_on_c, 0, 65, 95
2, 310560, Note_on_c, 0, 60, 95
2, 311040, Note_off_c, 0, 74, 95
2, 311040, Note_off_c, 0, 69, 95
2, 311040, Note_off_c, 0, 65, 95
2, 311040, Note_off_c, 0, 60, 95
2, 311520, Note_on_c, 0, 72, 95
2, 311520, Note_on_c, 0, 67, 95
2, 311520, Note_on_c, 0, 63, 95
2, 311520, Note_on_c, 0, 57, 95
2, 311520, Note_on_c, 0, 53, 95
2, 311760, Note_off_c, 0, 72, 95
2, 311760, Note_off_c, 0, 67, 95
2, 311760, Note_off_c, 0, 63, 95
2, 311760, Note_off_c, 0, 57, 95
2, 311760, Note_off_c, 0, 53, 95
2, 311760, Note_on_c, 0, 72, 95
2, 311760, Note_on_c, 0, 67, 95
2, 311760, Note_on_c, 0, 63, 95
2, 311760, Note_on_c, 0, 57, 95
2, 311760, Note_on_c, 0, 53, 95
2, 312000, Note_off_c, 0, 72, 95
2, 312000, Note_off_c, 0, 67, 95
2, 312000, Note_off_c, 0, 63, 95
2, 312000, Note_off_c, 0, 57, 95
2, 312000, Note_off_c, 0, 53, 95
2, 312000, Note_on_c, 0, 72, 95
2, 312000, Note_on_c, 0, 67, 95
2, 312000, Note_on_c, 0, 63, 95
2, 312000, Note_on_c, 0, 57, 95
2, 312000, Note_on_c, 0, 53, 95
2, 312240, Note_off_c, 0, 72, 95
2, 312240, Note_off_c, 0, 67, 95
2, 312240, Note_off_c, 0, 63, 95
2, 312240, Note_off_c, 0, 57, 95
2, 312240, Note_off_c, 0, 53, 95
2, 312240, Note_on_c, 0, 72, 95
2, 312240, Note_on_c, 0, 67, 95
2, 312240, Note_on_c, 0, 63, 95
2, 312240, Note_on_c, 0, 57, 95
2, 312240, Note_on_c, 0, 53, 95
2, 312480, Note_off_c, 0, 72, 95
2, 312480, Note_off_c, 0, 67, 95
2, 312480, Note_off_c, 0, 63, 95
2, 312480, Note_off_c, 0, 57, 95
2, 312480, Note_off_c, 0, 53, 95
2, 312480, Note_on_c, 0, 72, 95
2, 312480, Note_on_c, 0, 67, 95
2, 312480, Note_on_c, 0, 63, 95
2, 312480, Note_on_c, 0, 57, 95
2, 312480, Note_on_c, 0, 53, 95
2, 312960, Note_off_c, 0, 72, 95
2, 312960, Note_off_c, 0, 67, 95
2, 312960, Note_off_c, 0, 63, 95
2, 312960, Note_off_c, 0, 57, 95
2, 312960, Note_off_c, 0, 53, 95
2, 313440, Note_on_c, 0, 72, 95
2, 313440, Note_on_c, 0, 67, 95
2, 313440, Note_on_c, 0, 63, 95
2, 313440, Note_on_c, 0, 57, 95
2, 313440, Note_on_c, 0, 53, 95
2, 313680, Note_off_c, 0, 72, 95
2, 313680, Note_off_c, 0, 67, 95
2, 313680, Note_off_c, 0, 63, 95
2, 313680, Note_off_c, 0, 57, 95
2, 313680, Note_off_c, 0, 53, 95
2, 313680, Note_on_c, 0, 72, 95
2, 313680, Note_on_c, 0, 67, 95
2, 313680, Note_on_c, 0, 63, 95
2, 313680, Note_on_c, 0, 57, 95
2, 313680, Note_on_c, 0, 53, 95
2, 313920, Note_off_c, 0, 72, 95
2, 313920, Note_off_c, 0, 67, 95
2, 313920, Note_off_c, 0, 63, 95
2, 313920, Note_off_c, 0, 57, 95
2, 313920, Note_off_c, 0, 53, 95
2, 313920, Note_on_c, 0, 72, 95
2, 313920, Note_on_c, 0, 67, 95
2, 313920, Note_on_c, 0, 63, 95
2, 313920, Note_on_c, 0, 57, 95
2, 313920, Note_on_c, 0, 53, 95
2, 314160, Note_off_c, 0, 72, 95
2, 314160, Note_off_c, 0, 67, 95
2, 314160, Note_off_c, 0, 63, 95
2, 314160, Note_off_c, 0, 57, 95
2, 314160, Note_off_c, 0, 53, 95
2, 314160, Note_on_c, 0, 72, 95
2, 314160, Note_on_c, 0, 67, 95
2, 314160, Note_on_c, 0, 63, 95
2, 314160, Note_on_c, 0, 57, 95
2, 314160, Note_on_c, 0, 53, 95
2, 314400, Note_off_c, 0, 72, 95
2, 314400, Note_off_c, 0, 67, 95
2, 314400, Note_off_c, 0, 63, 95
2, 314400, Note_off_c, 0, 57, 95
2, 314400, Note_off_c, 0, 53, 95
2, 314400, Note_on_c, 0, 72, 95
2, 314400, Note_on_c, 0, 67, 95
2, 314400, Note_on_c, 0, 63, 95
2, 314400, Note_on_c, 0, 57, 95
2, 314400, Note_on_c, 0, 53, 95
2, 314880, Note_off_c, 0, 72, 95
2, 314880, Note_off_c, 0, 67, 95
2, 314880, Note_off_c, 0, 63, 95
2, 314880, Note_off_c, 0, 57, 95
2, 314880, Note_off_c, 0, 53, 95
2, 315360, Note_on_c, 0, 72, 95
2, 315360, Note_on_c, 0, 67, 95
2, 315360, Note_on_c, 0, 63, 95
2, 315360, Note_on_c, 0, 57, 95
2, 315360, Note_on_c, 0, 53, 95
2, 315600, Note_off_c, 0, 72, 95
2, 315600, Note_off_c, 0, 67, 95
2, 315600, Note_off_c, 0, 63, 95
2, 315600, Note_off_c, 0, 57, 95
2, 315600, Note_off_c, 0, 53, 95
2, 315600, Note_on_c, 0, 72, 95
2, 315600, Note_on_c, 0, 67, 95
2, 315600, Note_on_c, 0, 63, 95
2, 315600, Note_on_c, 0, 57, 95
2, 315600, Note_on_c, 0, 53, 95
2, 315840, Note_off_c, 0, 72, 95
2, 315840, Note_off_c, 0, 67, 95
2, 315840, Note_off_c, 0, 63, 95
2, 315840, Note_off_c, 0, 57, 95
2, 315840, Note_off_c, 0, 53, 95
2, 315840, Note_on_c, 0, 72, 95
2, 315840, Note_on_c, 0, 67, 95
2, 315840, Note_on_c, 0, 63, 95
2, 315840, Note_on_c, 0, 57, 95
2, 315840, Note_on_c, 0, 53, 95
2, 316080, Note_off_c, 0, 72, 95
2, 316080, Note_off_c, 0, 67, 95
2, 316080, Note_off_c, 0, 63, 95
2, 316080, Note_off_c, 0, 57, 95
2, 316080, Note_off_c, 0, 53, 95
2, 316080, Note_on_c, 0, 72, 95
2, 316080, Note_on_c, 0, 67, 95
2, 316080, Note_on_c, 0, 63, 95
2, 316080, Note_on_c, 0, 57, 95
2, 316080, Note_on_c, 0, 53, 95
2, 316320, Note_off_c, 0, 72, 95
2, 316320, Note_off_c, 0, 67, 95
2, 316320, Note_off_c, 0, 63, 95
2, 316320, Note_off_c, 0, 57, 95
2, 316320, Note_off_c, 0, 53, 95
2, 316320, Note_on_c, 0, 72, 95
2, 316320, Note_on_c, 0, 67, 95
2, 316320, Note_on_c, 0, 63, 95
2, 316320, Note_on_c, 0, 57, 95
2, 316320, Note_on_c, 0, 53, 95
2, 316800, Note_off_c, 0, 72, 95
2, 316800, Note_off_c, 0, 67, 95
2, 316800, Note_off_c, 0, 63, 95
2, 316800, Note_off_c, 0, 57, 95
2, 316800, Note_off_c, 0, 53, 95
2, 317280, Note_on_c, 0, 72, 95
2, 317280, Note_on_c, 0, 67, 95
2, 317280, Note_on_c, 0, 63, 95
2, 317280, Note_on_c, 0, 57, 95
2, 317280, Note_on_c, 0, 53, 95
2, 317520, Note_off_c, 0, 72, 95
2, 317520, Note_off_c, 0, 67, 95
2, 317520, Note_off_c, 0, 63, 95
2, 317520, Note_off_c, 0, 57, 95
2, 317520, Note_off_c, 0, 53, 95
2, 317520, Note_on_c, 0, 72, 95
2, 317520, Note_on_c, 0, 67, 95
2, 317520, Note_on_c, 0, 63, 95
2, 317520, Note_on_c, 0, 57, 95
2, 317520, Note_on_c, 0, 53, 95
2, 317760, Note_off_c, 0, 72, 95
2, 317760, Note_off_c, 0, 67, 95
2, 317760, Note_off_c, 0, 63, 95
2, 317760, Note_off_c, 0, 57, 95
2, 317760, Note_off_c, 0, 53, 95
2, 317760, Note_on_c, 1, 72, 95
2, 317760, Note_on_c, 1, 67, 95
2, 317760, Note_on_c, 1, 63, 95
2, 317760, Note_on_c, 1, 57, 95
2, 317760, Note_on_c, 0, 53, 95
2, 317880, Pitch_bend_c, 1, 8448
2, 317880, Pitch_bend_c, 1, 8448
2, 317880, Pitch_bend_c, 1, 8448
2, 317880, Pitch_bend_c, 1, 8704
2, 318000, Pitch_bend_c, 1, 8832
2, 318000, Pitch_bend_c, 1, 8832
2, 318000, Pitch_bend_c, 1, 8832
2, 318000, Pitch_bend_c, 1, 9216
2, 318120, Pitch_bend_c, 1, 9216
2, 318120, Pitch_bend_c, 1, 9216
2, 318120, Pitch_bend_c, 1, 9216
2, 318120, Pitch_bend_c, 1, 9728
2, 318240, Pitch_bend_c, 1, 9600
2, 318240, Pitch_bend_c, 1, 8192
2, 318240, Note_off_c, 1, 72, 95
2, 318240, Pitch_bend_c, 1, 9600
2, 318240, Pitch_bend_c, 1, 8192
2, 318240, Note_off_c, 1, 67, 95
2, 318240, Pitch_bend_c, 1, 9600
2, 318240, Pitch_bend_c, 1, 8192
2, 318240, Note_off_c, 1, 63, 95
2, 318240, Pitch_bend_c, 1, 10240
2, 318240, Pitch_bend_c, 1, 8192
2, 318240, Note_off_c, 1, 57, 95
2, 318240, Note_off_c, 0, 53, 95
2, 318240, Note_on_c, 0, 74, 95
2, 318240, Note_on_c, 0, 69, 95
2, 318240, Note_on_c, 0, 65, 95
2, 318240, Note_on_c, 0, 60, 95
2, 318720, Note_off_c, 0, 74, 95
2, 318720, Note_off_c, 0, 69, 95
2, 318720, Note_off_c, 0, 65, 95
2, 318720, Note_off_c, 0, 60, 95
2, 319200, Note_on_c, 0, 72, 95
2, 319200, Note_on_c, 0, 67, 95
2, 319200, Note_on_c, 0, 63, 95
2, 319200, Note_on_c, 0, 57, 95
2, 319200, Note_on_c, 0, 53, 95
2, 319440, Note_off_c, 0, 72, 95
2, 319440, Note_off_c, 0, 67, 95
2, 319440, Note_off_c, 0, 63, 95
2, 319440, Note_off_c, 0, 57, 95
2, 319440, Note_off_c, 0, 53, 95
2, 319440, Note_on_c, 0, 72, 95
2, 319440, Note_on_c, 0, 67, 95
2, 319440, Note_on_c, 0, 63, 95
2, 319440, Note_on_c, 0, 57, 95
2, 319440, Note_on_c, 0, 53, 95
2, 319680, Note_off_c, 0, 72, 95
2, 319680, Note_off_c, 0, 67, 95
2, 319680, Note_off_c, 0, 63, 95
2, 319680, Note_off_c, 0, 57, 95
2, 319680, Note_off_c, 0, 53, 95
2, 319680, Note_on_c, 0, 72, 95
2, 319680, Note_on_c, 0, 67, 95
2, 319680, Note_on_c, 0, 63, 95
2, 319680, Note_on_c, 0, 57, 95
2, 319680, Note_on_c, 0, 53, 95
2, 319920, Note_off_c, 0, 72, 95
2, 319920, Note_off_c, 0, 67, 95
2, 319920, Note_off_c, 0, 63, 95
2, 319920, Note_off_c, 0, 57, 95
2, 319920, Note_off_c, 0, 53, 95
2, 319920, Note_on_c, 0, 72, 95
2, 319920, Note_on_c, 0, 67, 95
2, 319920, Note_on_c, 0, 63, 95
2, 319920, Note_on_c, 0, 57, 95
2, 319920, Note_on_c, 0, 53, 95
2, 320160, Note_off_c, 0, 72, 95
2, 320160, Note_off_c, 0, 67, 95
2, 320160, Note_off_c, 0, 63, 95
2, 320160, Note_off_c, 0, 57, 95
2, 320160, Note_off_c, 0, 53, 95
2, 320160, Note_on_c, 0, 72, 95
2, 320160, Note_on_c, 0, 67, 95
2, 320160, Note_on_c, 0, 63, 95
2, 320160, Note_on_c, 0, 57, 95
2, 320160, Note_on_c, 0, 53, 95
2, 320640, Note_off_c, 0, 72, 95
2, 320640, Note_off_c, 0, 67, 95
2, 320640, Note_off_c, 0, 63, 95
2, 320640, Note_off_c, 0, 57, 95
2, 320640, Note_off_c, 0, 53, 95
2, 321120, Note_on_c, 0, 72, 95
2, 321120, Note_on_c, 0, 67, 95
2, 321120, Note_on_c, 0, 63, 95
2, 321120, Note_on_c, 0, 57, 95
2, 321120, Note_on_c, 0, 53, 95
2, 321360, Note_off_c, 0, 72, 95
2, 321360, Note_off_c, 0, 67, 95
2, 321360, Note_off_c, 0, 63, 95
2, 321360, Note_off_c, 0, 57, 95
2, 321360, Note_off_c, 0, 53, 95
2, 321360, Note_on_c, 0, 72, 95
2, 321360, Note_on_c, 0, 67, 95
2, 321360, Note_on_c, 0, 63, 95
2, 321360, Note_on_c, 0, 57, 95
2, 321360, Note_on_c, 0, 53, 95
2, 321600, Note_off_c, 0, 72, 95
2, 321600, Note_off_c, 0, 67, 95
2, 321600, Note_off_c, 0, 63, 95
2, 321600, Note_off_c, 0, 57, 95
2, 321600, Note_off_c, 0, 53, 95
2, 321600, Note_on_c, 0, 72, 95
2, 321600, Note_on_c, 0, 67, 95
2, 321600, Note_on_c, 0, 63, 95
2, 321600, Note_on_c, 0, 57, 95
2, 321600, Note_on_c, 0, 53, 95
2, 321840, Note_off_c, 0, 72, 95
2, 321840, Note_off_c, 0, 67, 95
2, 321840, Note_off_c, 0, 63, 95
2, 321840, Note_off_c, 0, 57, 95
2, 321840, Note_off_c, 0, 53, 95
2, 321840, Note_on_c, 0, 72, 95
2, 321840, Note_on_c, 0, 67, 95
2, 321840, Note_on_c, 0, 63, 95
2, 321840, Note_on_c, 0, 57, 95
2, 321840, Note_on_c, 0, 53, 95
2, 322080, Note_off_c, 0, 72, 95
2, 322080, Note_off_c, 0, 67, 95
2, 322080, Note_off_c, 0, 63, 95
2, 322080, Note_off_c, 0, 57, 95
2, 322080, Note_off_c, 0, 53, 95
2, 322080, Note_on_c, 0, 72, 95
2, 322080, Note_on_c, 0, 67, 95
2, 322080, Note_on_c, 0, 63, 95
2, 322080, Note_on_c, 0, 57, 95
2, 322080, Note_on_c, 0, 53, 95
2, 322560, Note_off_c, 0, 72, 95
2, 322560, Note_off_c, 0, 67, 95
2, 322560, Note_off_c, 0, 63, 95
2, 322560, Note_off_c, 0, 57, 95
2, 322560, Note_off_c, 0, 53, 95
2, 323040, Note_on_c, 0, 72, 95
2, 323040, Note_on_c, 0, 67, 95
2, 323040, Note_on_c, 0, 63, 95
2, 323040, Note_on_c, 0, 57, 95
2, 323040, Note_on_c, 0, 53, 95
2, 323280, Note_off_c, 0, 72, 95
2, 323280, Note_off_c, 0, 67, 95
2, 323280, Note_off_c, 0, 63, 95
2, 323280, Note_off_c, 0, 57, 95
2, 323280, Note_off_c, 0, 53, 95
2, 323280, Note_on_c, 0, 72, 95
2, 323280, Note_on_c, 0, 67, 95
2, 323280, Note_on_c, 0, 63, 95
2, 323280, Note_on_c, 0, 57, 95
2, 323280, Note_on_c, 0, 53, 95
2, 323520, Note_off_c, 0, 72, 95
2, 323520, Note_off_c, 0, 67, 95
2, 323520, Note_off_c, 0, 63, 95
2, 323520, Note_off_c, 0, 57, 95
2, 323520, Note_off_c, 0, 53, 95
2, 323520, Note_on_c, 0, 72, 95
2, 323520, Note_on_c, 0, 67, 95
2, 323520, Note_on_c, 0, 63, 95
2, 323520, Note_on_c, 0, 57, 95
2, 323520, Note_on_c, 0, 53, 95
2, 323760, Note_off_c, 0, 72, 95
2, 323760, Note_off_c, 0, 67, 95
2, 323760, Note_off_c, 0, 63, 95
2, 323760, Note_off_c, 0, 57, 95
2, 323760, Note_off_c, 0, 53, 95
2, 323760, Note_on_c, 0, 72, 95
2, 323760, Note_on_c, 0, 67, 95
2, 323760, Note_on_c, 0, 63, 95
2, 323760, Note_on_c, 0, 57, 95
2, 323760, Note_on_c, 0, 53, 95
2, 324000, Note_off_c, 0, 72, 95
2, 324000, Note_off_c, 0, 67, 95
2, 324000, Note_off_c, 0, 63, 95
2, 324000, Note_off_c, 0, 57, 95
2, 324000, Note_off_c, 0, 53, 95
2, 324000, Note_on_c, 0, 72, 95
2, 324000, Note_on_c, 0, 67, 95
2, 324000, Note_on_c, 0, 63, 95
2, 324000, Note_on_c, 0, 57, 95
2, 324000, Note_on_c, 0, 53, 95
2, 324480, Note_off_c, 0, 72, 95
2, 324480, Note_off_c, 0, 67, 95
2, 324480, Note_off_c, 0, 63, 95
2, 324480, Note_off_c, 0, 57, 95
2, 324480, Note_off_c, 0, 53, 95
2, 324960, Note_on_c, 0, 72, 95
2, 324960, Note_on_c, 0, 67, 95
2, 324960, Note_on_c, 0, 63, 95
2, 324960, Note_on_c, 0, 57, 95
2, 324960, Note_on_c, 0, 53, 95
2, 325200, Note_off_c, 0, 72, 95
2, 325200, Note_off_c, 0, 67, 95
2, 325200, Note_off_c, 0, 63, 95
2, 325200, Note_off_c, 0, 57, 95
2, 325200, Note_off_c, 0, 53, 95
2, 325200, Note_on_c, 0, 72, 95
2, 325200, Note_on_c, 0, 67, 95
2, 325200, Note_on_c, 0, 63, 95
2, 325200, Note_on_c, 0, 57, 95
2, 325200, Note_on_c, 0, 53, 95
2, 325440, Note_off_c, 0, 72, 95
2, 325440, Note_off_c, 0, 67, 95
2, 325440, Note_off_c, 0, 63, 95
2, 325440, Note_off_c, 0, 57, 95
2, 325440, Note_off_c, 0, 53, 95
2, 325440, Note_on_c, 1, 72, 95
2, 325440, Note_on_c, 1, 67, 95
2, 325440, Note_on_c, 1, 63, 95
2, 325440, Note_on_c, 1, 57, 95
2, 325440, Note_on_c, 0, 53, 95
2, 325560, Pitch_bend_c, 1, 8448
2, 325560, Pitch_bend_c, 1, 8448
2, 325560, Pitch_bend_c, 1, 8448
2, 325560, Pitch_bend_c, 1, 8704
2, 325680, Pitch_bend_c, 1, 8832
2, 325680, Pitch_bend_c, 1, 8832
2, 325680, Pitch_bend_c, 1, 8832
2, 325680, Pitch_bend_c, 1, 9216
2, 325800, Pitch_bend_c, 1, 9216
2, 325800, Pitch_bend_c, 1, 9216
2, 325800, Pitch_bend_c, 1, 9216
2, 325800, Pitch_bend_c, 1, 9728
2, 325920, Pitch_bend_c, 1, 9600
2, 325920, Pitch_bend_c, 1, 8192
2, 325920, Note_off_c, 1, 72, 95
2, 325920, Pitch_bend_c, 1, 9600
2, 325920, Pitch_bend_c, 1, 8192
2, 325920, Note_off_c, 1, 67, 95
2, 325920, Pitch_bend_c, 1, 9600
2, 325920, Pitch_bend_c, 1, 8192
2, 325920, Note_off_c, 1, 63, 95
2, 325920, Pitch_bend_c, 1, 10240
2, 325920, Pitch_bend_c, 1, 8192
2, 325920, Note_off_c, 1, 57, 95
2, 325920, Note_off_c, 0, 53, 95
2, 325920, Note_on_c, 0, 74, 95
2, 325920, Note_on_c, 0, 69, 95
2, 325920, Note_on_c, 0, 65, 95
2, 325920, Note_on_c, 0, 60, 95
2, 326400, Note_off_c, 0, 74, 95
2, 326400, Note_off_c, 0, 69, 95
2, 326400, Note_off_c, 0, 65, 95
2, 326400, Note_off_c, 0, 60, 95
2, 326880, Note_on_c, 0, 74, 95
2, 326880, Note_on_c, 0, 69, 95
2, 326880, Note_on_c, 0, 65, 95
2, 326880, Note_on_c, 0, 60, 95
2, 327120, Note_off_c, 0, 74, 95
2, 327120, Note_off_c, 0, 69, 95
2, 327120, Note_off_c, 0, 65, 95
2, 327120, Note_off_c, 0, 60, 95
2, 327120, Note_on_c, 0, 74, 95
2, 327120, Note_on_c, 0, 69, 95
2, 327120, Note_on_c, 0, 65, 95
2, 327120, Note_on_c, 0, 60, 95
2, 327360, Note_off_c, 0, 74, 95
2, 327360, Note_off_c, 0, 69, 95
2, 327360, Note_off_c, 0, 65, 95
2, 327360, Note_off_c, 0, 60, 95
2, 327360, Note_on_c, 0, 62, 31
2, 327360, Note_on_c, 0, 74, 95
2, 327360, Note_on_c, 0, 57, 31
2, 327360, Note_on_c, 0, 69, 95
2, 327360, Note_on_c, 0, 53, 31
2, 327360, Note_on_c, 0, 65, 95
2, 327360, Note_on_c, 0, 48, 31
2, 327360, Note_on_c, 0, 60, 95
2, 334080, Note_off_c, 0, 62, 31
2, 334080, Note_off_c, 0, 74, 95
2, 334080, Note_off_c, 0, 57, 31
2, 334080, Note_off_c, 0, 69, 95
2, 334080, Note_off_c, 0, 53, 31
2, 334080, Note_off_c, 0, 65, 95
2, 334080, Note_off_c, 0, 48, 31
2, 334080, Note_off_c, 0, 60, 95
2, 334080, Note_on_c, 0, 41, 95
2, 335040, Note_off_c, 0, 41, 95
2, 335040, Note_on_c, 0, 53, 95
2, 337440, Note_off_c, 0, 53, 95
2, 337440, Note_on_c, 0, 51, 95
2, 337920, Note_off_c, 0, 51, 95
2, 337920, Note_on_c, 0, 51, 47
2, 339360, Note_off_c, 0, 51, 47
2, 339360, Note_on_c, 0, 48, 95
2, 340320, Note_off_c, 0, 48, 95
2, 340320, Note_on_c, 0, 46, 95
2, 341280, Note_off_c, 0, 46, 95
2, 341280, Note_on_c, 0, 48, 95
2, 341760, Note_off_c, 0, 48, 95
2, 341760, Note_on_c, 0, 41, 95
2, 342720, Note_off_c, 0, 41, 95
2, 342720, Note_on_c, 0, 53, 95
2, 345120, Note_off_c, 0, 53, 95
2, 345120, Note_on_c, 0, 51, 95
2, 345600, Note_off_c, 0, 51, 95
2, 345600, Note_on_c, 0, 51, 47
2, 347040, Note_off_c, 0, 51, 47
2, 347040, Note_on_c, 0, 48, 95
2, 348000, Note_off_c, 0, 48, 95
2, 348000, Note_on_c, 0, 46, 95
2, 348960, Note_off_c, 0, 46, 95
2, 348960, Note_on_c, 0, 48, 95
2, 349440, Note_off_c, 0, 48, 95
2, 349440, Note_on_c, 0, 41, 95
2, 350400, Note_off_c, 0, 41, 95
2, 350400, Note_on_c, 0, 53, 95
2, 352800, Note_off_c, 0, 53, 95
2, 352800, Note_on_c, 0, 51, 95
2, 353280, Note_off_c, 0, 51, 95
2, 353280, Note_on_c, 0, 51, 47
2, 354720, Note_off_c, 0, 51, 47
2, 354720, Note_on_c, 0, 48, 95
2, 355680, Note_off_c, 0, 48, 95
2, 355680, Note_on_c, 0, 46, 95
2, 356640, Note_off_c, 0, 46, 95
2, 356640, Note_on_c, 0, 48, 95
2, 357120, Note_off_c, 0, 48, 95
2, 357120, Note_on_c, 0, 41, 95
2, 358080, Note_off_c, 0, 41, 95
2, 358080, Note_on_c, 0, 53, 95
2, 360480, Note_off_c, 0, 53, 95
2, 360480, Note_on_c, 0, 51, 95
2, 360960, Note_off_c, 0, 51, 95
2, 360960, Note_on_c, 0, 51, 47
2, 362400, Note_off_c, 0, 51, 47
2, 362400, Note_on_c, 0, 48, 95
2, 363360, Note_off_c, 0, 48, 95
2, 363360, Note_on_c, 0, 46, 95
2, 364320, Note_off_c, 0, 46, 95
2, 364320, Note_on_c, 0, 48, 95
2, 364800, Note_off_c, 0, 48, 95
2, 364800, Note_on_c, 0, 41, 95
2, 365760, Note_off_c, 0, 41, 95
2, 365760, Note_on_c, 0, 53, 95
2, 368160, Note_off_c, 0, 53, 95
2, 368160, Note_on_c, 0, 51, 95
2, 368640, Note_off_c, 0, 51, 95
2, 368640, Note_on_c, 0, 51, 47
2, 370080, Note_off_c, 0, 51, 47
2, 370080, Note_on_c, 0, 48, 95
2, 371040, Note_off_c, 0, 48, 95
2, 371040, Note_on_c, 0, 46, 95
2, 372000, Note_off_c, 0, 46, 95
2, 372000, Note_on_c, 0, 48, 95
2, 372480, Note_off_c, 0, 48, 95
2, 372480, Note_on_c, 0, 41, 95
2, 373440, Note_off_c, 0, 41, 95
2, 373440, Note_on_c, 0, 53, 95
2, 375840, Note_off_c, 0, 53, 95
2, 375840, Note_on_c, 0, 51, 95
2, 376320, Note_off_c, 0, 51, 95
2, 376320, Note_on_c, 0, 51, 47
2, 377760, Note_off_c, 0, 51, 47
2, 377760, Note_on_c, 0, 48, 95
2, 378720, Note_off_c, 0, 48, 95
2, 378720, Note_on_c, 0, 46, 95
2, 379680, Note_off_c, 0, 46, 95
2, 379680, Note_on_c, 0, 48, 95
2, 380160, Note_off_c, 0, 48, 95
2, 380160, Note_on_c, 0, 41, 95
2, 381120, Note_off_c, 0, 41, 95
2, 381120, Note_on_c, 0, 53, 95
2, 383520, Note_off_c, 0, 53, 95
2, 383520, Note_on_c, 0, 51, 95
2, 384000, Note_off_c, 0, 51, 95
2, 384000, Note_on_c, 0, 51, 47
2, 385440, Note_off_c, 0, 51, 47
2, 385440, Note_on_c, 0, 48, 95
2, 386400, Note_off_c, 0, 48, 95
2, 386400, Note_on_c, 0, 46, 95
2, 387360, Note_off_c, 0, 46, 95
2, 387360, Note_on_c, 0, 48, 95
2, 387840, Note_off_c, 0, 48, 95
2, 387840, Note_on_c, 0, 41, 95
2, 388800, Note_off_c, 0, 41, 95
2, 388800, Note_on_c, 0, 53, 95
2, 391200, Note_off_c, 0, 53, 95
2, 391200, Note_on_c, 0, 51, 95
2, 391680, Note_off_c, 0, 51, 95
2, 391680, Note_on_c, 0, 51, 47
2, 393120, Note_off_c, 0, 51, 47
2, 393120, Note_on_c, 0, 48, 95
2, 394080, Note_off_c, 0, 48, 95
2, 394080, Note_on_c, 0, 46, 95
2, 395040, Note_off_c, 0, 46, 95
2, 395040, Note_on_c, 0, 48, 95
2, 395520, Note_off_c, 0, 48, 95
2, 395520, Note_on_c, 0, 41, 95
2, 396480, Note_off_c, 0, 41, 95
2, 396480, Note_on_c, 0, 53, 95
2, 398880, Note_off_c, 0, 53, 95
2, 398880, Note_on_c, 0, 51, 95
2, 399360, Note_off_c, 0, 51, 95
2, 399360, Note_on_c, 0, 51, 47
2, 400800, Note_off_c, 0, 51, 47
2, 400800, Note_on_c, 0, 48, 95
2, 401760, Note_off_c, 0, 48, 95
2, 401760, Note_on_c, 0, 46, 95
2, 402720, Note_off_c, 0, 46, 95
2, 402720, Note_on_c, 0, 48, 95
2, 403200, Note_off_c, 0, 48, 95
2, 403200, Note_on_c, 0, 41, 95
2, 404160, Note_off_c, 0, 41, 95
2, 404160, Note_on_c, 0, 53, 95
2, 406560, Note_off_c, 0, 53, 95
2, 406560, Note_on_c, 0, 51, 95
2, 407040, Note_off_c, 0, 51, 95
2, 407040, Note_on_c, 0, 51, 47
2, 408480, Note_off_c, 0, 51, 47
2, 408480, Note_on_c, 0, 48, 95
2, 409440, Note_off_c, 0, 48, 95
2, 409440, Note_on_c, 0, 46, 95
2, 410400, Note_off_c, 0, 46, 95
2, 410400, Note_on_c, 0, 48, 95
2, 410880, Note_off_c, 0, 48, 95
2, 411360, Note_on_c, 0, 63, 95
2, 411360, Note_on_c, 0, 50, 95
2, 411360, Note_on_c, 0, 51, 95
2, 411432, Note_off_c, 0, 50, 95
2, 411840, Note_off_c, 0, 63, 95
2, 411840, Note_off_c, 0, 51, 95
2, 411840, Note_on_c, 0, 65, 95
2, 411840, Note_on_c, 0, 50, 95
2, 411840, Note_on_c, 0, 53, 95
2, 411912, Note_off_c, 0, 50, 95
2, 412320, Note_off_c, 0, 65, 95
2, 412320, Note_off_c, 0, 53, 95
2, 412320, Note_on_c, 0, 68, 95
2, 412320, Note_on_c, 0, 55, 95
2, 412320, Note_on_c, 0, 56, 95
2, 412392, Note_off_c, 0, 55, 95
2, 412800, Note_off_c, 0, 68, 95
2, 412800, Note_off_c, 0, 56, 95
2, 413280, Note_on_c, 0, 63, 95
2, 413280, Note_on_c, 0, 50, 95
2, 413280, Note_on_c, 0, 51, 95
2, 413352, Note_off_c, 0, 50, 95
2, 413760, Note_off_c, 0, 63, 95
2, 413760, Note_off_c, 0, 51, 95
2, 413760, Note_on_c, 0, 65, 95
2, 413760, Note_on_c, 0, 50, 95
2, 413760, Note_on_c, 0, 53, 95
2, 413832, Note_off_c, 0, 50, 95
2, 414240, Note_off_c, 0, 65, 95
2, 414240, Note_off_c, 0, 53, 95
2, 414240, Note_on_c, 0, 68, 95
2, 414240, Note_on_c, 0, 55, 95
2, 414240, Note_on_c, 0, 56, 95
2, 414312, Note_off_c, 0, 55, 95
2, 414720, Note_off_c, 0, 68, 95
2, 414720, Note_off_c, 0, 56, 95
2, 415200, Note_on_c, 0, 63, 95
2, 415200, Note_on_c, 0, 50, 95
2, 415200, Note_on_c, 0, 51, 95
2, 415272, Note_off_c, 0, 50, 95
2, 415680, Note_off_c, 0, 63, 95
2, 415680, Note_off_c, 0, 51, 95
2, 415680, Note_on_c, 0, 65, 95
2, 415680, Note_on_c, 0, 50, 95
2, 415680, Note_on_c, 0, 53, 95
2, 415752, Note_off_c, 0, 50, 95
2, 416160, Note_off_c, 0, 65, 95
2, 416160, Note_off_c, 0, 53, 95
2, 416160, Note_on_c, 0, 65, 95
2, 416160, Note_on_c, 0, 50, 95
2, 416160, Note_on_c, 0, 53, 95
2, 416232, Note_off_c, 0, 50, 95
2, 416640, Note_off_c, 0, 65, 95
2, 416640, Note_off_c, 0, 53, 95
2, 417120, Note_on_c, 0, 63, 95
2, 417120, Note_on_c, 0, 50, 95
2, 417120, Note_on_c, 0, 51, 95
2, 417192, Note_off_c, 0, 50, 95
2, 417600, Note_off_c, 0, 63, 95
2, 417600, Note_off_c, 0, 51, 95
2, 417600, Note_on_c, 0, 65, 95
2, 417600, Note_on_c, 0, 50, 95
2, 417600, Note_on_c, 0, 53, 95
2, 417672, Note_off_c, 0, 50, 95
2, 418080, Note_off_c, 0, 65, 95
2, 418080, Note_off_c, 0, 53, 95
2, 418080, Note_on_c, 0, 68, 95
2, 418080, Note_on_c, 0, 55, 95
2, 418080, Note_on_c, 0, 56, 95
2, 418152, Note_off_c, 0, 55, 95
2, 418560, Note_off_c, 0, 68, 95
2, 418560, Note_off_c, 0, 56, 95
2, 419040, Note_on_c, 0, 63, 95
2, 419040, Note_on_c, 0, 50, 95
2, 419040, Note_on_c, 0, 51, 95
2, 419112, Note_off_c, 0, 50, 95
2, 419520, Note_off_c, 0, 63, 95
2, 419520, Note_off_c, 0, 51, 95
2, 419520, Note_on_c, 0, 65, 95
2, 419520, Note_on_c, 0, 50, 95
2, 419520, Note_on_c, 0, 53, 95
2, 419592, Note_off_c, 0, 50, 95
2, 420000, Note_off_c, 0, 65, 95
2, 420000, Note_off_c, 0, 53, 95
2, 420000, Note_on_c, 0, 68, 95
2, 420000, Note_on_c, 0, 55, 95
2, 420000, Note_on_c, 0, 56, 95
2, 420072, Note_off_c, 0, 55, 95
2, 420480, Note_off_c, 0, 68, 95
2, 420480, Note_off_c, 0, 56, 95
2, 420960, Note_on_c, 0, 63, 95
2, 420960, Note_on_c, 0, 50, 95
2, 420960, Note_on_c, 0, 51, 95
2, 421032, Note_off_c, 0, 50, 95
2, 421440, Note_off_c, 0, 63, 95
2, 421440, Note_off_c, 0, 51, 95
2, 421440, Note_on_c, 0, 65, 95
2, 421440, Note_on_c, 0, 50, 95
2, 421440, Note_on_c, 0, 53, 95
2, 421512, Note_off_c, 0, 50, 95
2, 421920, Note_off_c, 0, 65, 95
2, 421920, Note_off_c, 0, 53, 95
2, 421920, Note_on_c, 0, 68, 95
2, 421920, Note_on_c, 0, 55, 95
2, 421920, Note_on_c, 0, 56, 95
2, 421992, Note_off_c, 0, 55, 95
2, 422400, Note_off_c, 0, 68, 95
2, 422400, Note_off_c, 0, 56, 95
2, 422880, Note_on_c, 0, 63, 95
2, 422880, Note_on_c, 0, 50, 95
2, 422880, Note_on_c, 0, 51, 95
2, 422952, Note_off_c, 0, 50, 95
2, 423360, Note_off_c, 0, 63, 95
2, 423360, Note_off_c, 0, 51, 95
2, 423360, Note_on_c, 0, 65, 95
2, 423360, Note_on_c, 0, 50, 95
2, 423360, Note_on_c, 0, 53, 95
2, 423432, Note_off_c, 0, 50, 95
2, 423840, Note_off_c, 0, 65, 95
2, 423840, Note_off_c, 0, 53, 95
2, 423840, Note_on_c, 0, 65, 95
2, 423840, Note_on_c, 0, 50, 95
2, 423840, Note_on_c, 0, 53, 95
2, 423912, Note_off_c, 0, 50, 95
2, 424320, Note_off_c, 0, 65, 95
2, 424320, Note_off_c, 0, 53, 95
2, 424800, Note_on_c, 0, 63, 95
2, 424800, Note_on_c, 0, 50, 95
2, 424800, Note_on_c, 0, 51, 95
2, 424872, Note_off_c, 0, 50, 95
2, 425280, Note_off_c, 0, 63, 95
2, 425280, Note_off_c, 0, 51, 95
2, 425280, Note_on_c, 0, 65, 95
2, 425280, Note_on_c, 0, 50, 95
2, 425280, Note_on_c, 0, 53, 95
2, 425352, Note_off_c, 0, 50, 95
2, 425760, Note_off_c, 0, 65, 95
2, 425760, Note_off_c, 0, 53, 95
2, 425760, Note_on_c, 0, 68, 95
2, 425760, Note_on_c, 0, 55, 95
2, 425760, Note_on_c, 0, 56, 95
2, 425832, Note_off_c, 0, 55, 95
2, 426240, Note_off_c, 0, 68, 95
2, 426240, Note_off_c, 0, 56, 95
2, 426720, Note_on_c, 0, 63, 95
2, 426720, Note_on_c, 0, 50, 95
2, 426720, Note_on_c, 0, 51, 95
2, 426792, Note_off_c, 0, 50, 95
2, 427200, Note_off_c, 0, 63, 95
2, 427200, Note_off_c, 0, 51, 95
2, 427200, Note_on_c, 0, 65, 95
2, 427200, Note_on_c, 0, 50, 95
2, 427200, Note_on_c, 0, 53, 95
2, 427272, Note_off_c, 0, 50, 95
2, 427680, Note_off_c, 0, 65, 95
2, 427680, Note_off_c, 0, 53, 95
2, 427680, Note_on_c, 0, 68, 95
2, 427680, Note_on_c, 0, 55, 95
2, 427680, Note_on_c, 0, 56, 95
2, 427752, Note_off_c, 0, 55, 95
2, 428160, Note_off_c, 0, 68, 95
2, 428160, Note_off_c, 0, 56, 95
2, 428640, Note_on_c, 0, 63, 95
2, 428640, Note_on_c, 0, 50, 95
2, 428640, Note_on_c, 0, 51, 95
2, 428712, Note_off_c, 0, 50, 95
2, 429120, Note_off_c, 0, 63, 95
2, 429120, Note_off_c, 0, 51, 95
2, 429120, Note_on_c, 0, 65, 95
2, 429120, Note_on_c, 0, 50, 95
2, 429120, Note_on_c, 0, 53, 95
2, 429192, Note_off_c, 0, 50, 95
2, 429600, Note_off_c, 0, 65, 95
2, 429600, Note_off_c, 0, 53, 95
2, 429600, Note_on_c, 0, 68, 95
2, 429600, Note_on_c, 0, 55, 95
2, 429600, Note_on_c, 0, 56, 95
2, 429672, Note_off_c, 0, 55, 95
2, 430080, Note_off_c, 0, 68, 95
2, 430080, Note_off_c, 0, 56, 95
2, 430560, Note_on_c, 0, 63, 95
2, 430560, Note_on_c, 0, 50, 95
2, 430560, Note_on_c, 0, 51, 95
2, 430632, Note_off_c, 0, 50, 95
2, 431040, Note_off_c, 0, 63, 95
2, 431040, Note_off_c, 0, 51, 95
2, 431040, Note_on_c, 0, 65, 95
2, 431040, Note_on_c, 0, 50, 95
2, 431040, Note_on_c, 0, 53, 95
2, 431112, Note_off_c, 0, 50, 95
2, 431520, Note_off_c, 0, 65, 95
2, 431520, Note_off_c, 0, 53, 95
2, 431520, Note_on_c, 0, 65, 95
2, 431520, Note_on_c, 0, 50, 95
2, 431520, Note_on_c, 0, 53, 95
2, 431592, Note_off_c, 0, 50, 95
2, 432000, Note_off_c, 0, 65, 95
2, 432000, Note_off_c, 0, 53, 95
2, 432480, Note_on_c, 0, 63, 95
2, 432480, Note_on_c, 0, 50, 95
2, 432480, Note_on_c, 0, 51, 95
2, 432552, Note_off_c, 0, 50, 95
2, 432960, Note_off_c, 0, 63, 95
2, 432960, Note_off_c, 0, 51, 95
2, 432960, Note_on_c, 0, 65, 95
2, 432960, Note_on_c, 0, 50, 95
2, 432960, Note_on_c, 0, 53, 95
2, 433032, Note_off_c, 0, 50, 95
2, 433440, Note_off_c, 0, 65, 95
2, 433440, Note_off_c, 0, 53, 95
2, 433440, Note_on_c, 0, 68, 95
2, 433440, Note_on_c, 0, 55, 95
2, 433440, Note_on_c, 0, 56, 95
2, 433512, Note_off_c, 0, 55, 95
2, 433920, Note_off_c, 0, 68, 95
2, 433920, Note_off_c, 0, 56, 95
2, 434400, Note_on_c, 0, 63, 95
2, 434400, Note_on_c, 0, 50, 95
2, 434400, Note_on_c, 0, 51, 95
2, 434472, Note_off_c, 0, 50, 95
2, 434880, Note_off_c, 0, 63, 95
2, 434880, Note_off_c, 0, 51, 95
2, 434880, Note_on_c, 0, 65, 95
2, 434880, Note_on_c, 0, 50, 95
2, 434880, Note_on_c, 0, 53, 95
2, 434952, Note_off_c, 0, 50, 95
2, 435360, Note_off_c, 0, 65, 95
2, 435360, Note_off_c, 0, 53, 95
2, 435360, Note_on_c, 0, 68, 95
2, 435360, Note_on_c, 0, 55, 95
2, 435360, Note_on_c, 0, 56, 95
2, 435432, Note_off_c, 0, 55, 95
2, 435840, Note_off_c, 0, 68, 95
2, 435840, Note_off_c, 0, 56, 95
2, 436320, Note_on_c, 0, 63, 95
2, 436320, Note_on_c, 0, 50, 95
2, 436320, Note_on_c, 0, 51, 95
2, 436392, Note_off_c, 0, 50, 95
2, 436800, Note_off_c, 0, 63, 95
2, 436800, Note_off_c, 0, 51, 95
2, 436800, Note_on_c, 0, 65, 95
2, 436800, Note_on_c, 0, 50, 95
2, 436800, Note_on_c, 0, 53, 95
2, 436872, Note_off_c, 0, 50, 95
2, 437280, Note_off_c, 0, 65, 95
2, 437280, Note_off_c, 0, 53, 95
2, 437280, Note_on_c, 0, 68, 95
2, 437280, Note_on_c, 0, 55, 95
2, 437280, Note_on_c, 0, 56, 95
2, 437352, Note_off_c, 0, 55, 95
2, 437760, Note_off_c, 0, 68, 95
2, 437760, Note_off_c, 0, 56, 95
2, 438240, Note_on_c, 0, 63, 95
2, 438240, Note_on_c, 0, 50, 95
2, 438240, Note_on_c, 0, 51, 95
2, 438312, Note_off_c, 0, 50, 95
2, 438720, Note_off_c, 0, 63, 95
2, 438720, Note_off_c, 0, 51, 95
2, 438720, Note_on_c, 0, 65, 95
2, 438720, Note_on_c, 0, 50, 95
2, 438720, Note_on_c, 0, 53, 95
2, 438792, Note_off_c, 0, 50, 95
2, 439200, Note_off_c, 0, 65, 95
2, 439200, Note_off_c, 0, 53, 95
2, 439200, Note_on_c, 0, 65, 95
2, 439200, Note_on_c, 0, 50, 95
2, 439200, Note_on_c, 0, 53, 95
2, 439272, Note_off_c, 0, 50, 95
2, 439680, Note_off_c, 0, 65, 95
2, 439680, Note_off_c, 0, 53, 95
2, 440160, Note_on_c, 0, 63, 95
2, 440160, Note_on_c, 0, 50, 95
2, 440160, Note_on_c, 0, 51, 95
2, 440232, Note_off_c, 0, 50, 95
2, 440640, Note_off_c, 0, 63, 95
2, 440640, Note_off_c, 0, 51, 95
2, 440640, Note_on_c, 0, 65, 95
2, 440640, Note_on_c, 0, 50, 95
2, 440640, Note_on_c, 0, 53, 95
2, 440712, Note_off_c, 0, 50, 95
2, 441120, Note_off_c, 0, 65, 95
2, 441120, Note_off_c, 0, 53, 95
2, 441120, Note_on_c, 0, 63, 95
2, 441120, Note_on_c, 0, 50, 95
2, 441120, Note_on_c, 0, 51, 95
2, 441192, Note_off_c, 0, 50, 95
2, 441600, Note_off_c, 0, 63, 95
2, 441600, Note_off_c, 0, 51, 95
2, 442560, Note_on_c, 0, 74, 95
2, 442560, Note_on_c, 0, 69, 95
2, 442560, Note_on_c, 0, 65, 95
2, 445440, Note_off_c, 0, 74, 95
2, 445440, Note_off_c, 0, 69, 95
2, 445440, Note_off_c, 0, 65, 95
2, 445440, Note_on_c, 0, 74, 47
2, 445440, Note_on_c, 0, 69, 47
2, 445440, Note_on_c, 0, 65, 47
2, 449280, Note_off_c, 0, 74, 47
2, 449280, Note_off_c, 0, 69, 47
2, 449280, Note_off_c, 0, 65, 47
2, 449280, Note_on_c, 0, 41, 95
2, 450240, Note_off_c, 0, 41, 95
2, 450240, Note_on_c, 0, 53, 95
2, 452640, Note_off_c, 0, 53, 95
2, 452640, Note_on_c, 0, 51, 95
2, 453120, Note_off_c, 0, 51, 95
2, 453120, Note_on_c, 0, 51, 47
2, 454560, Note_off_c, 0, 51, 47
2, 454560, Note_on_c, 0, 48, 95
2, 455520, Note_off_c, 0, 48, 95
2, 455520, Note_on_c, 0, 46, 95
2, 456480, Note_off_c, 0, 46, 95
2, 456480, Note_on_c, 0, 48, 95
2, 456960, Note_off_c, 0, 48, 95
2, 456960, Note_on_c, 0, 41, 95
2, 457920, Note_off_c, 0, 41, 95
2, 457920, Note_on_c, 0, 53, 95
2, 460320, Note_off_c, 0, 53, 95
2, 460320, Note_on_c, 0, 51, 95
2, 460800, Note_off_c, 0, 51, 95
2, 460800, Note_on_c, 0, 51, 47
2, 462240, Note_off_c, 0, 51, 47
2, 462240, Note_on_c, 0, 48, 95
2, 463200, Note_off_c, 0, 48, 95
2, 463200, Note_on_c, 0, 46, 95
2, 464160, Note_off_c, 0, 46, 95
2, 464160, Note_on_c, 0, 48, 95
2, 464640, Note_off_c, 0, 48, 95
2, 464640, Note_on_c, 0, 41, 95
2, 465600, Note_off_c, 0, 41, 95
2, 465600, Note_on_c, 0, 53, 95
2, 468000, Note_off_c, 0, 53, 95
2, 468000, Note_on_c, 0, 51, 95
2, 468480, Note_off_c, 0, 51, 95
2, 468480, Note_on_c, 0, 51, 47
2, 469920, Note_off_c, 0, 51, 47
2, 469920, Note_on_c, 0, 48, 95
2, 470880, Note_off_c, 0, 48, 95
2, 470880, Note_on_c, 0, 46, 95
2, 471840, Note_off_c, 0, 46, 95
2, 471840, Note_on_c, 0, 48, 95
2, 472320, Note_off_c, 0, 48, 95
2, 472320, Note_on_c, 0, 41, 95
2, 473280, Note_off_c, 0, 41, 95
2, 473280, Note_on_c, 0, 53, 95
2, 475680, Note_off_c, 0, 53, 95
2, 475680, Note_on_c, 0, 51, 95
2, 476160, Note_off_c, 0, 51, 95
2, 476160, Note_on_c, 0, 51, 47
2, 477600, Note_off_c, 0, 51, 47
2, 477600, Note_on_c, 0, 48, 95
2, 478560, Note_off_c, 0, 48, 95
2, 478560, Note_on_c, 0, 46, 95
2, 479520, Note_off_c, 0, 46, 95
2, 479520, Note_on_c, 0, 48, 95
2, 480000, Note_off_c, 0, 48, 95
2, 480000, Note_on_c, 0, 41, 95
2, 480960, Note_off_c, 0, 41, 95
2, 480960, Note_on_c, 0, 53, 95
2, 483360, Note_off_c, 0, 53, 95
2, 483360, Note_on_c, 0, 51, 95
2, 483840, Note_off_c, 0, 51, 95
2, 483840, Note_on_c, 0, 51, 47
2, 485280, Note_off_c, 0, 51, 47
2, 485280, Note_on_c, 0, 48, 95
2, 486240, Note_off_c, 0, 48, 95
2, 486240, Note_on_c, 0, 46, 95
2, 487200, Note_off_c, 0, 46, 95
2, 487200, Note_on_c, 0, 48, 95
2, 487680, Note_off_c, 0, 48, 95
2, 487680, End_track
3, 0, Start_track
3, 0, Pitch_bend_c, 4, 8192
3, 0, Control_c, 4, 7, 87
3, 0, Control_c, 4, 10, 63
3, 0, Control_c, 4, 93, 0
3, 0, Control_c, 4, 91, 0
3, 0, Control_c, 4, 95, 0
3, 0, Control_c, 4, 92, 0
3, 0, Control_c, 4, 11, 127
3, 0, Program_c, 4, 26
3, 0, Control_c, 5, 7, 87
3, 0, Control_c, 5, 10, 63
3, 0, Control_c, 5, 93, 0
3, 0, Control_c, 5, 91, 0
3, 0, Control_c, 5, 95, 0
3, 0, Control_c, 5, 92, 0
3, 0, Control_c, 5, 11, 127
3, 0, Program_c, 5, 26
3, 35520, Note_on_c, 4, 74, 95
3, 35520, Note_on_c, 4, 69, 95
3, 35520, Note_on_c, 4, 65, 95
3, 35520, Note_on_c, 4, 60, 95
3, 42240, Note_off_c, 4, 74, 95
3, 42240, Note_off_c, 4, 69, 95
3, 42240, Note_off_c, 4, 65, 95
3, 42240, Note_off_c, 4, 60, 95
3, 43200, Note_on_c, 4, 72, 95
3, 43200, Note_on_c, 4, 67, 95
3, 43200, Note_on_c, 4, 63, 95
3, 43200, Note_on_c, 4, 60, 95
3, 49920, Note_off_c, 4, 72, 95
3, 49920, Note_off_c, 4, 67, 95
3, 49920, Note_off_c, 4, 63, 95
3, 49920, Note_off_c, 4, 60, 95
3, 50880, Note_on_c, 4, 74, 95
3, 50880, Note_on_c, 4, 69, 95
3, 50880, Note_on_c, 4, 65, 95
3, 50880, Note_on_c, 4, 60, 95
3, 57600, Note_off_c, 4, 74, 95
3, 57600, Note_off_c, 4, 69, 95
3, 57600, Note_off_c, 4, 65, 95
3, 57600, Note_off_c, 4, 60, 95
3, 58560, Note_on_c, 4, 72, 95
3, 58560, Note_on_c, 4, 67, 95
3, 58560, Note_on_c, 4, 63, 95
3, 58560, Note_on_c, 4, 60, 95
3, 65280, Note_off_c, 4, 72, 95
3, 65280, Note_off_c, 4, 67, 95
3, 65280, Note_off_c, 4, 63, 95
3, 65280, Note_off_c, 4, 60, 95
3, 66240, Note_on_c, 4, 74, 95
3, 66240, Note_on_c, 4, 69, 95
3, 66240, Note_on_c, 4, 65, 95
3, 66240, Note_on_c, 4, 60, 95
3, 72960, Note_off_c, 4, 74, 95
3, 72960, Note_off_c, 4, 69, 95
3, 72960, Note_off_c, 4, 65, 95
3, 72960, Note_off_c, 4, 60, 95
3, 73920, Note_on_c, 4, 72, 95
3, 73920, Note_on_c, 4, 67, 95
3, 73920, Note_on_c, 4, 63, 95
3, 73920, Note_on_c, 4, 60, 95
3, 80640, Note_off_c, 4, 72, 95
3, 80640, Note_off_c, 4, 67, 95
3, 80640, Note_off_c, 4, 63, 95
3, 80640, Note_off_c, 4, 60, 95
3, 81600, Note_on_c, 4, 74, 95
3, 81600, Note_on_c, 4, 69, 95
3, 81600, Note_on_c, 4, 65, 95
3, 81600, Note_on_c, 4, 60, 95
3, 88320, Note_off_c, 4, 74, 95
3, 88320, Note_off_c, 4, 69, 95
3, 88320, Note_off_c, 4, 65, 95
3, 88320, Note_off_c, 4, 60, 95
3, 89280, Note_on_c, 4, 72, 95
3, 89280, Note_on_c, 4, 67, 95
3, 89280, Note_on_c, 4, 63, 95
3, 89280, Note_on_c, 4, 60, 95
3, 96000, Note_off_c, 4, 72, 95
3, 96000, Note_off_c, 4, 67, 95
3, 96000, Note_off_c, 4, 63, 95
3, 96000, Note_off_c, 4, 60, 95
3, 96960, Note_on_c, 4, 72, 95
3, 96960, Note_on_c, 4, 67, 95
3, 96960, Note_on_c, 4, 63, 95
3, 96960, Note_on_c, 4, 60, 95
3, 99840, Note_off_c, 4, 72, 95
3, 99840, Note_off_c, 4, 67, 95
3, 99840, Note_off_c, 4, 63, 95
3, 99840, Note_off_c, 4, 60, 95
3, 99840, Note_on_c, 4, 72, 47
3, 99840, Note_on_c, 4, 67, 47
3, 99840, Note_on_c, 4, 63, 47
3, 99840, Note_on_c, 4, 60, 47
3, 102240, Note_off_c, 4, 72, 47
3, 102240, Note_off_c, 4, 67, 47
3, 102240, Note_off_c, 4, 63, 47
3, 102240, Note_off_c, 4, 60, 47
3, 102240, Note_on_c, 4, 63, 95
3, 102240, Note_on_c, 4, 50, 95
3, 102240, Note_on_c, 4, 51, 95
3, 102312, Note_off_c, 4, 50, 95
3, 102720, Note_off_c, 4, 63, 95
3, 102720, Note_off_c, 4, 51, 95
3, 102720, Note_on_c, 4, 65, 95
3, 102720, Note_on_c, 4, 50, 95
3, 102720, Note_on_c, 4, 53, 95
3, 102792, Note_off_c, 4, 50, 95
3, 103200, Note_off_c, 4, 65, 95
3, 103200, Note_off_c, 4, 53, 95
3, 103200, Note_on_c, 4, 68, 95
3, 103200, Note_on_c, 4, 55, 95
3, 103200, Note_on_c, 4, 56, 95
3, 103272, Note_off_c, 4, 55, 95
3, 103680, Note_off_c, 4, 68, 95
3, 103680, Note_off_c, 4, 56, 95
3, 104160, Note_on_c, 4, 63, 95
3, 104160, Note_on_c, 4, 50, 95
3, 104160, Note_on_c, 4, 51, 95
3, 104232, Note_off_c, 4, 50, 95
3, 104640, Note_off_c, 4, 63, 95
3, 104640, Note_off_c, 4, 51, 95
3, 104640, Note_on_c, 4, 65, 95
3, 104640, Note_on_c, 4, 50, 95
3, 104640, Note_on_c, 4, 53, 95
3, 104712, Note_off_c, 4, 50, 95
3, 105120, Note_off_c, 4, 65, 95
3, 105120, Note_off_c, 4, 53, 95
3, 105120, Note_on_c, 4, 68, 95
3, 105120, Note_on_c, 4, 55, 95
3, 105120, Note_on_c, 4, 56, 95
3, 105192, Note_off_c, 4, 55, 95
3, 105600, Note_off_c, 4, 68, 95
3, 105600, Note_off_c, 4, 56, 95
3, 106080, Note_on_c, 4, 63, 95
3, 106080, Note_on_c, 4, 50, 95
3, 106080, Note_on_c, 4, 51, 95
3, 106152, Note_off_c, 4, 50, 95
3, 106560, Note_off_c, 4, 63, 95
3, 106560, Note_off_c, 4, 51, 95
3, 106560, Note_on_c, 4, 65, 95
3, 106560, Note_on_c, 4, 50, 95
3, 106560, Note_on_c, 4, 53, 95
3, 106632, Note_off_c, 4, 50, 95
3, 107040, Note_off_c, 4, 65, 95
3, 107040, Note_off_c, 4, 53, 95
3, 107040, Note_on_c, 4, 68, 95
3, 107040, Note_on_c, 4, 55, 95
3, 107040, Note_on_c, 4, 56, 95
3, 107112, Note_off_c, 4, 55, 95
3, 107520, Note_off_c, 4, 68, 95
3, 107520, Note_off_c, 4, 56, 95
3, 108000, Note_on_c, 4, 63, 95
3, 108000, Note_on_c, 4, 50, 95
3, 108000, Note_on_c, 4, 51, 95
3, 108072, Note_off_c, 4, 50, 95
3, 108480, Note_off_c, 4, 63, 95
3, 108480, Note_off_c, 4, 51, 95
3, 108480, Note_on_c, 4, 65, 95
3, 108480, Note_on_c, 4, 50, 95
3, 108480, Note_on_c, 4, 53, 95
3, 108552, Note_off_c, 4, 50, 95
3, 108960, Note_off_c, 4, 65, 95
3, 108960, Note_off_c, 4, 53, 95
3, 108960, Note_on_c, 4, 65, 95
3, 108960, Note_on_c, 4, 50, 95
3, 108960, Note_on_c, 4, 53, 95
3, 109032, Note_off_c, 4, 50, 95
3, 109440, Note_off_c, 4, 65, 95
3, 109440, Note_off_c, 4, 53, 95
3, 109920, Note_on_c, 4, 63, 95
3, 109920, Note_on_c, 4, 50, 95
3, 109920, Note_on_c, 4, 51, 95
3, 109992, Note_off_c, 4, 50, 95
3, 110400, Note_off_c, 4, 63, 95
3, 110400, Note_off_c, 4, 51, 95
3, 110400, Note_on_c, 4, 65, 95
3, 110400, Note_on_c, 4, 50, 95
3, 110400, Note_on_c, 4, 53, 95
3, 110472, Note_off_c, 4, 50, 95
3, 110880, Note_off_c, 4, 65, 95
3, 110880, Note_off_c, 4, 53, 95
3, 110880, Note_on_c, 4, 68, 95
3, 110880, Note_on_c, 4, 55, 95
3, 110880, Note_on_c, 4, 56, 95
3, 110952, Note_off_c, 4, 55, 95
3, 111360, Note_off_c, 4, 68, 95
3, 111360, Note_off_c, 4, 56, 95
3, 111840, Note_on_c, 4, 63, 95
3, 111840, Note_on_c, 4, 50, 95
3, 111840, Note_on_c, 4, 51, 95
3, 111912, Note_off_c, 4, 50, 95
3, 112320, Note_off_c, 4, 63, 95
3, 112320, Note_off_c, 4, 51, 95
3, 112320, Note_on_c, 4, 65, 95
3, 112320, Note_on_c, 4, 50, 95
3, 112320, Note_on_c, 4, 53, 95
3, 112392, Note_off_c, 4, 50, 95
3, 112800, Note_off_c, 4, 65, 95
3, 112800, Note_off_c, 4, 53, 95
3, 112800, Note_on_c, 4, 68, 95
3, 112800, Note_on_c, 4, 55, 95
3, 112800, Note_on_c, 4, 56, 95
3, 112872, Note_off_c, 4, 55, 95
3, 113280, Note_off_c, 4, 68, 95
3, 113280, Note_off_c, 4, 56, 95
3, 113760, Note_on_c, 4, 63, 95
3, 113760, Note_on_c, 4, 50, 95
3, 113760, Note_on_c, 4, 51, 95
3, 113832, Note_off_c, 4, 50, 95
3, 114240, Note_off_c, 4, 63, 95
3, 114240, Note_off_c, 4, 51, 95
3, 114240, Note_on_c, 4, 65, 95
3, 114240, Note_on_c, 4, 50, 95
3, 114240, Note_on_c, 4, 53, 95
3, 114312, Note_off_c, 4, 50, 95
3, 114720, Note_off_c, 4, 65, 95
3, 114720, Note_off_c, 4, 53, 95
3, 114720, Note_on_c, 4, 68, 95
3, 114720, Note_on_c, 4, 55, 95
3, 114720, Note_on_c, 4, 56, 95
3, 114792, Note_off_c, 4, 55, 95
3, 115200, Note_off_c, 4, 68, 95
3, 115200, Note_off_c, 4, 56, 95
3, 115680, Note_on_c, 4, 63, 95
3, 115680, Note_on_c, 4, 50, 95
3, 115680, Note_on_c, 4, 51, 95
3, 115752, Note_off_c, 4, 50, 95
3, 116160, Note_off_c, 4, 63, 95
3, 116160, Note_off_c, 4, 51, 95
3, 116160, Note_on_c, 4, 65, 95
3, 116160, Note_on_c, 4, 50, 95
3, 116160, Note_on_c, 4, 53, 95
3, 116232, Note_off_c, 4, 50, 95
3, 116640, Note_off_c, 4, 65, 95
3, 116640, Note_off_c, 4, 53, 95
3, 116640, Note_on_c, 4, 65, 95
3, 116640, Note_on_c, 4, 50, 95
3, 116640, Note_on_c, 4, 53, 95
3, 116712, Note_off_c, 4, 50, 95
3, 117120, Note_off_c, 4, 65, 95
3, 117120, Note_off_c, 4, 53, 95
3, 117600, Note_on_c, 4, 63, 95
3, 117600, Note_on_c, 4, 50, 95
3, 117600, Note_on_c, 4, 51, 95
3, 117672, Note_off_c, 4, 50, 95
3, 118080, Note_off_c, 4, 63, 95
3, 118080, Note_off_c, 4, 51, 95
3, 118080, Note_on_c, 4, 65, 95
3, 118080, Note_on_c, 4, 50, 95
3, 118080, Note_on_c, 4, 53, 95
3, 118152, Note_off_c, 4, 50, 95
3, 118560, Note_off_c, 4, 65, 95
3, 118560, Note_off_c, 4, 53, 95
3, 118560, Note_on_c, 4, 68, 95
3, 118560, Note_on_c, 4, 55, 95
3, 118560, Note_on_c, 4, 56, 95
3, 118632, Note_off_c, 4, 55, 95
3, 119040, Note_off_c, 4, 68, 95
3, 119040, Note_off_c, 4, 56, 95
3, 119520, Note_on_c, 4, 63, 95
3, 119520, Note_on_c, 4, 50, 95
3, 119520, Note_on_c, 4, 51, 95
3, 119592, Note_off_c, 4, 50, 95
3, 120000, Note_off_c, 4, 63, 95
3, 120000, Note_off_c, 4, 51, 95
3, 120000, Note_on_c, 4, 65, 95
3, 120000, Note_on_c, 4, 50, 95
3, 120000, Note_on_c, 4, 53, 95
3, 120072, Note_off_c, 4, 50, 95
3, 120480, Note_off_c, 4, 65, 95
3, 120480, Note_off_c, 4, 53, 95
3, 120480, Note_on_c, 4, 68, 95
3, 120480, Note_on_c, 4, 55, 95
3, 120480, Note_on_c, 4, 56, 95
3, 120552, Note_off_c, 4, 55, 95
3, 120960, Note_off_c, 4, 68, 95
3, 120960, Note_off_c, 4, 56, 95
3, 121440, Note_on_c, 4, 63, 95
3, 121440, Note_on_c, 4, 50, 95
3, 121440, Note_on_c, 4, 51, 95
3, 121512, Note_off_c, 4, 50, 95
3, 121920, Note_off_c, 4, 63, 95
3, 121920, Note_off_c, 4, 51, 95
3, 121920, Note_on_c, 4, 65, 95
3, 121920, Note_on_c, 4, 50, 95
3, 121920, Note_on_c, 4, 53, 95
3, 121992, Note_off_c, 4, 50, 95
3, 122400, Note_off_c, 4, 65, 95
3, 122400, Note_off_c, 4, 53, 95
3, 122400, Note_on_c, 4, 68, 95
3, 122400, Note_on_c, 4, 55, 95
3, 122400, Note_on_c, 4, 56, 95
3, 122472, Note_off_c, 4, 55, 95
3, 122880, Note_off_c, 4, 68, 95
3, 122880, Note_off_c, 4, 56, 95
3, 123360, Note_on_c, 4, 63, 95
3, 123360, Note_on_c, 4, 50, 95
3, 123360, Note_on_c, 4, 51, 95
3, 123432, Note_off_c, 4, 50, 95
3, 123840, Note_off_c, 4, 63, 95
3, 123840, Note_off_c, 4, 51, 95
3, 123840, Note_on_c, 4, 65, 95
3, 123840, Note_on_c, 4, 50, 95
3, 123840, Note_on_c, 4, 53, 95
3, 123912, Note_off_c, 4, 50, 95
3, 124320, Note_off_c, 4, 65, 95
3, 124320, Note_off_c, 4, 53, 95
3, 124320, Note_on_c, 4, 65, 95
3, 124320, Note_on_c, 4, 50, 95
3, 124320, Note_on_c, 4, 53, 95
3, 124392, Note_off_c, 4, 50, 95
3, 124800, Note_off_c, 4, 65, 95
3, 124800, Note_off_c, 4, 53, 95
3, 125280, Note_on_c, 4, 63, 95
3, 125280, Note_on_c, 4, 50, 95
3, 125280, Note_on_c, 4, 51, 95
3, 125352, Note_off_c, 4, 50, 95
3, 125760, Note_off_c, 4, 63, 95
3, 125760, Note_off_c, 4, 51, 95
3, 125760, Note_on_c, 4, 65, 95
3, 125760, Note_on_c, 4, 50, 95
3, 125760, Note_on_c, 4, 53, 95
3, 125832, Note_off_c, 4, 50, 95
3, 126240, Note_off_c, 4, 65, 95
3, 126240, Note_off_c, 4, 53, 95
3, 126240, Note_on_c, 4, 68, 95
3, 126240, Note_on_c, 4, 55, 95
3, 126240, Note_on_c, 4, 56, 95
3, 126312, Note_off_c, 4, 55, 95
3, 126720, Note_off_c, 4, 68, 95
3, 126720, Note_off_c, 4, 56, 95
3, 127200, Note_on_c, 4, 63, 95
3, 127200, Note_on_c, 4, 50, 95
3, 127200, Note_on_c, 4, 51, 95
3, 127272, Note_off_c, 4, 50, 95
3, 127680, Note_off_c, 4, 63, 95
3, 127680, Note_off_c, 4, 51, 95
3, 127680, Note_on_c, 4, 65, 95
3, 127680, Note_on_c, 4, 50, 95
3, 127680, Note_on_c, 4, 53, 95
3, 127752, Note_off_c, 4, 50, 95
3, 128160, Note_off_c, 4, 65, 95
3, 128160, Note_off_c, 4, 53, 95
3, 128160, Note_on_c, 4, 68, 95
3, 128160, Note_on_c, 4, 55, 95
3, 128160, Note_on_c, 4, 56, 95
3, 128232, Note_off_c, 4, 55, 95
3, 128640, Note_off_c, 4, 68, 95
3, 128640, Note_off_c, 4, 56, 95
3, 129120, Note_on_c, 4, 63, 95
3, 129120, Note_on_c, 4, 50, 95
3, 129120, Note_on_c, 4, 51, 95
3, 129192, Note_off_c, 4, 50, 95
3, 129600, Note_off_c, 4, 63, 95
3, 129600, Note_off_c, 4, 51, 95
3, 129600, Note_on_c, 4, 65, 95
3, 129600, Note_on_c, 4, 50, 95
3, 129600, Note_on_c, 4, 53, 95
3, 129672, Note_off_c, 4, 50, 95
3, 130080, Note_off_c, 4, 65, 95
3, 130080, Note_off_c, 4, 53, 95
3, 130080, Note_on_c, 4, 68, 95
3, 130080, Note_on_c, 4, 55, 95
3, 130080, Note_on_c, 4, 56, 95
3, 130152, Note_off_c, 4, 55, 95
3, 130560, Note_off_c, 4, 68, 95
3, 130560, Note_off_c, 4, 56, 95
3, 131040, Note_on_c, 4, 63, 95
3, 131040, Note_on_c, 4, 50, 95
3, 131040, Note_on_c, 4, 51, 95
3, 131112, Note_off_c, 4, 50, 95
3, 131520, Note_off_c, 4, 63, 95
3, 131520, Note_off_c, 4, 51, 95
3, 131520, Note_on_c, 4, 65, 95
3, 131520, Note_on_c, 4, 50, 95
3, 131520, Note_on_c, 4, 53, 95
3, 131592, Note_off_c, 4, 50, 95
3, 132000, Note_off_c, 4, 65, 95
3, 132000, Note_off_c, 4, 53, 95
3, 132000, Note_on_c, 4, 65, 95
3, 132000, Note_on_c, 4, 50, 95
3, 132000, Note_on_c, 4, 53, 95
3, 132072, Note_off_c, 4, 50, 95
3, 132480, Note_off_c, 4, 65, 95
3, 132480, Note_off_c, 4, 53, 95
3, 132960, Note_on_c, 4, 63, 95
3, 132960, Note_on_c, 4, 50, 95
3, 132960, Note_on_c, 4, 51, 95
3, 133032, Note_off_c, 4, 50, 95
3, 133440, Note_off_c, 4, 63, 95
3, 133440, Note_off_c, 4, 51, 95
3, 133440, Note_on_c, 4, 65, 95
3, 133440, Note_on_c, 4, 50, 95
3, 133440, Note_on_c, 4, 53, 95
3, 133512, Note_off_c, 4, 50, 95
3, 133920, Note_off_c, 4, 65, 95
3, 133920, Note_off_c, 4, 53, 95
3, 135360, Note_on_c, 4, 74, 95
3, 135360, Note_on_c, 4, 69, 95
3, 135360, Note_on_c, 4, 65, 95
3, 135360, Note_on_c, 4, 60, 95
3, 138240, Note_off_c, 4, 74, 95
3, 138240, Note_off_c, 4, 69, 95
3, 138240, Note_off_c, 4, 65, 95
3, 138240, Note_off_c, 4, 60, 95
3, 138240, Note_on_c, 4, 74, 47
3, 138240, Note_on_c, 4, 69, 47
3, 138240, Note_on_c, 4, 65, 47
3, 138240, Note_on_c, 4, 60, 47
3, 142080, Note_off_c, 4, 74, 47
3, 142080, Note_off_c, 4, 69, 47
3, 142080, Note_off_c, 4, 65, 47
3, 142080, Note_off_c, 4, 60, 47
3, 143040, Note_on_c, 4, 72, 95
3, 143040, Note_on_c, 4, 67, 95
3, 143040, Note_on_c, 4, 63, 95
3, 143040, Note_on_c, 4, 60, 95
3, 145920, Note_off_c, 4, 72, 95
3, 145920, Note_off_c, 4, 67, 95
3, 145920, Note_off_c, 4, 63, 95
3, 145920, Note_off_c, 4, 60, 95
3, 145920, Note_on_c, 4, 72, 47
3, 145920, Note_on_c, 4, 67, 47
3, 145920, Note_on_c, 4, 63, 47
3, 145920, Note_on_c, 4, 60, 47
3, 149760, Note_off_c, 4, 72, 47
3, 149760, Note_off_c, 4, 67, 47
3, 149760, Note_off_c, 4, 63, 47
3, 149760, Note_off_c, 4, 60, 47
3, 150720, Note_on_c, 4, 74, 95
3, 150720, Note_on_c, 4, 69, 95
3, 150720, Note_on_c, 4, 65, 95
3, 150720, Note_on_c, 4, 60, 95
3, 153600, Note_off_c, 4, 74, 95
3, 153600, Note_off_c, 4, 69, 95
3, 153600, Note_off_c, 4, 65, 95
3, 153600, Note_off_c, 4, 60, 95
3, 153600, Note_on_c, 4, 74, 47
3, 153600, Note_on_c, 4, 69, 47
3, 153600, Note_on_c, 4, 65, 47
3, 153600, Note_on_c, 4, 60, 47
3, 157440, Note_off_c, 4, 74, 47
3, 157440, Note_off_c, 4, 69, 47
3, 157440, Note_off_c, 4, 65, 47
3, 157440, Note_off_c, 4, 60, 47
3, 158400, Note_on_c, 4, 72, 95
3, 158400, Note_on_c, 4, 67, 95
3, 158400, Note_on_c, 4, 63, 95
3, 158400, Note_on_c, 4, 60, 95
3, 161280, Note_off_c, 4, 72, 95
3, 161280, Note_off_c, 4, 67, 95
3, 161280, Note_off_c, 4, 63, 95
3, 161280, Note_off_c, 4, 60, 95
3, 161280, Note_on_c, 4, 72, 47
3, 161280, Note_on_c, 4, 67, 47
3, 161280, Note_on_c, 4, 63, 47
3, 161280, Note_on_c, 4, 60, 47
3, 165120, Note_off_c, 4, 72, 47
3, 165120, Note_off_c, 4, 67, 47
3, 165120, Note_off_c, 4, 63, 47
3, 165120, Note_off_c, 4, 60, 47
3, 166080, Note_on_c, 4, 74, 95
3, 166080, Note_on_c, 4, 69, 95
3, 166080, Note_on_c, 4, 65, 95
3, 166080, Note_on_c, 4, 60, 95
3, 172800, Note_off_c, 4, 74, 95
3, 172800, Note_off_c, 4, 69, 95
3, 172800, Note_off_c, 4, 65, 95
3, 172800, Note_off_c, 4, 60, 95
3, 173760, Note_on_c, 4, 72, 95
3, 173760, Note_on_c, 4, 67, 95
3, 173760, Note_on_c, 4, 63, 95
3, 173760, Note_on_c, 4, 60, 95
3, 180480, Note_off_c, 4, 72, 95
3, 180480, Note_off_c, 4, 67, 95
3, 180480, Note_off_c, 4, 63, 95
3, 180480, Note_off_c, 4, 60, 95
3, 181440, Note_on_c, 4, 74, 95
3, 181440, Note_on_c, 4, 69, 95
3, 181440, Note_on_c, 4, 65, 95
3, 181440, Note_on_c, 4, 60, 95
3, 188160, Note_off_c, 4, 74, 95
3, 188160, Note_off_c, 4, 69, 95
3, 188160, Note_off_c, 4, 65, 95
3, 188160, Note_off_c, 4, 60, 95
3, 189120, Note_on_c, 4, 72, 95
3, 189120, Note_on_c, 4, 67, 95
3, 189120, Note_on_c, 4, 63, 95
3, 189120, Note_on_c, 4, 60, 95
3, 195840, Note_off_c, 4, 72, 95
3, 195840, Note_off_c, 4, 67, 95
3, 195840, Note_off_c, 4, 63, 95
3, 195840, Note_off_c, 4, 60, 95
3, 196800, Note_on_c, 4, 72, 95
3, 196800, Note_on_c, 4, 67, 95
3, 196800, Note_on_c, 4, 63, 95
3, 196800, Note_on_c, 4, 60, 95
3, 203520, Note_off_c, 4, 72, 95
3, 203520, Note_off_c, 4, 67, 95
3, 203520, Note_off_c, 4, 63, 95
3, 203520, Note_off_c, 4, 60, 95
3, 204480, Note_on_c, 4, 72, 95
3, 204480, Note_on_c, 4, 67, 95
3, 204480, Note_on_c, 4, 63, 95
3, 204480, Note_on_c, 4, 60, 95
3, 211200, Note_off_c, 4, 72, 95
3, 211200, Note_off_c, 4, 67, 95
3, 211200, Note_off_c, 4, 63, 95
3, 211200, Note_off_c, 4, 60, 95
3, 211200, Note_on_c, 4, 65, 95
3, 211200, Note_on_c, 4, 61, 95
3, 211200, Note_on_c, 4, 56, 95
3, 212640, Note_off_c, 4, 65, 95
3, 212640, Note_off_c, 4, 61, 95
3, 212640, Note_off_c, 4, 56, 95
3, 212640, Note_on_c, 4, 65, 95
3, 212640, Note_on_c, 4, 61, 95
3, 212640, Note_on_c, 4, 56, 95
3, 215040, Note_off_c, 4, 65, 95
3, 215040, Note_off_c, 4, 61, 95
3, 215040, Note_off_c, 4, 56, 95
3, 215040, Note_on_c, 4, 65, 47
3, 215040, Note_on_c, 4, 61, 47
3, 215040, Note_on_c, 4, 56, 47
3, 216960, Note_off_c, 4, 65, 47
3, 216960, Note_off_c, 4, 61, 47
3, 216960, Note_off_c, 4, 56, 47
3, 218880, Note_on_c, 4, 61, 95
3, 218880, Note_on_c, 4, 56, 95
3, 220320, Note_off_c, 4, 61, 95
3, 220320, Note_off_c, 4, 56, 95
3, 220320, Note_on_c, 4, 61, 95
3, 220320, Note_on_c, 4, 56, 95
3, 221280, Note_off_c, 4, 61, 95
3, 221280, Note_off_c, 4, 56, 95
3, 221280, Note_on_c, 4, 61, 95
3, 221280, Note_on_c, 4, 56, 95
3, 221760, Note_off_c, 4, 61, 95
3, 221760, Note_off_c, 4, 56, 95
3, 221760, Note_on_c, 4, 61, 95
3, 221760, Note_on_c, 4, 56, 95
3, 222240, Note_off_c, 4, 61, 95
3, 222240, Note_off_c, 4, 56, 95
3, 222240, Note_on_c, 4, 61, 95
3, 222240, Note_on_c, 4, 56, 95
3, 222720, Note_off_c, 4, 61, 95
3, 222720, Note_off_c, 4, 56, 95
3, 222720, Note_on_c, 4, 65, 127
3, 222720, Note_on_c, 4, 61, 127
3, 222720, Note_on_c, 4, 56, 127
3, 223200, Note_off_c, 4, 65, 127
3, 223200, Note_off_c, 4, 61, 127
3, 223200, Note_off_c, 4, 56, 127
3, 223200, Note_on_c, 4, 65, 95
3, 223200, Note_on_c, 4, 61, 95
3, 223200, Note_on_c, 4, 56, 95
3, 223680, Note_off_c, 4, 65, 95
3, 223680, Note_off_c, 4, 61, 95
3, 223680, Note_off_c, 4, 56, 95
3, 223680, Note_on_c, 4, 65, 95
3, 223680, Note_on_c, 4, 61, 95
3, 223680, Note_on_c, 4, 56, 95
3, 224160, Note_off_c, 4, 65, 95
3, 224160, Note_off_c, 4, 61, 95
3, 224160, Note_off_c, 4, 56, 95
3, 224160, Note_on_c, 4, 65, 95
3, 224160, Note_on_c, 4, 61, 95
3, 224160, Note_on_c, 4, 56, 95
3, 225120, Note_off_c, 4, 65, 95
3, 225120, Note_off_c, 4, 61, 95
3, 225120, Note_off_c, 4, 56, 95
3, 225120, Note_on_c, 4, 61, 95
3, 225120, Note_on_c, 4, 56, 95
3, 225600, Note_off_c, 4, 61, 95
3, 225600, Note_off_c, 4, 56, 95
3, 225600, Note_on_c, 4, 61, 95
3, 225600, Note_on_c, 4, 56, 95
3, 226080, Note_off_c, 4, 61, 95
3, 226080, Note_off_c, 4, 56, 95
3, 226080, Note_on_c, 4, 61, 95
3, 226080, Note_on_c, 4, 56, 95
3, 226560, Note_off_c, 4, 61, 95
3, 226560, Note_off_c, 4, 56, 95
3, 226560, Note_on_c, 4, 65, 127
3, 226560, Note_on_c, 4, 61, 127
3, 226560, Note_on_c, 4, 56, 127
3, 228000, Note_off_c, 4, 65, 127
3, 228000, Note_off_c, 4, 61, 127
3, 228000, Note_off_c, 4, 56, 127
3, 228000, Note_on_c, 4, 61, 95
3, 228000, Note_on_c, 4, 56, 95
3, 228960, Note_off_c, 4, 61, 95
3, 228960, Note_off_c, 4, 56, 95
3, 228960, Note_on_c, 4, 61, 95
3, 228960, Note_on_c, 4, 56, 95
3, 229440, Note_off_c, 4, 61, 95
3, 229440, Note_off_c, 4, 56, 95
3, 229440, Note_on_c, 4, 61, 95
3, 229440, Note_on_c, 4, 56, 95
3, 230400, Note_off_c, 4, 61, 95
3, 230400, Note_off_c, 4, 56, 95
3, 230400, Note_on_c, 4, 61, 127
3, 230400, Note_on_c, 4, 56, 127
3, 231360, Note_off_c, 4, 61, 127
3, 231360, Note_off_c, 4, 56, 127
3, 231360, Note_on_c, 4, 65, 95
3, 231360, Note_on_c, 4, 61, 95
3, 231360, Note_on_c, 4, 56, 95
3, 233280, Note_off_c, 4, 65, 95
3, 233280, Note_off_c, 4, 61, 95
3, 233280, Note_off_c, 4, 56, 95
3, 233280, Note_on_c, 4, 61, 95
3, 233280, Note_on_c, 4, 56, 95
3, 233760, Note_off_c, 4, 61, 95
3, 233760, Note_off_c, 4, 56, 95
3, 233760, Note_on_c, 4, 61, 95
3, 233760, Note_on_c, 4, 56, 95
3, 234240, Note_off_c, 4, 61, 95
3, 234240, Note_off_c, 4, 56, 95
3, 234240, Note_on_c, 4, 65, 95
3, 234240, Note_on_c, 4, 61, 95
3, 234240, Note_on_c, 4, 56, 95
3, 235680, Note_off_c, 4, 65, 95
3, 235680, Note_off_c, 4, 61, 95
3, 235680, Note_off_c, 4, 56, 95
3, 235680, Note_on_c, 4, 65, 95
3, 235680, Note_on_c, 4, 61, 95
3, 235680, Note_on_c, 4, 56, 95
3, 237120, Note_off_c, 4, 65, 95
3, 237120, Note_off_c, 4, 61, 95
3, 237120, Note_off_c, 4, 56, 95
3, 237120, Note_on_c, 4, 61, 95
3, 237120, Note_on_c, 4, 56, 95
3, 237600, Note_off_c, 4, 61, 95
3, 237600, Note_off_c, 4, 56, 95
3, 237600, Note_on_c, 4, 61, 95
3, 237600, Note_on_c, 4, 56, 95
3, 238080, Note_off_c, 4, 61, 95
3, 238080, Note_off_c, 4, 56, 95
3, 238080, Note_on_c, 4, 65, 95
3, 238080, Note_on_c, 4, 61, 95
3, 238080, Note_on_c, 4, 56, 95
3, 239040, Note_off_c, 4, 65, 95
3, 239040, Note_off_c, 4, 61, 95
3, 239040, Note_off_c, 4, 56, 95
3, 239040, Note_on_c, 4, 61, 95
3, 239040, Note_on_c, 4, 56, 95
3, 239520, Note_off_c, 4, 61, 95
3, 239520, Note_off_c, 4, 56, 95
3, 239520, Note_on_c, 4, 61, 95
3, 239520, Note_on_c, 4, 56, 95
3, 240480, Note_off_c, 4, 61, 95
3, 240480, Note_off_c, 4, 56, 95
3, 240480, Note_on_c, 4, 61, 95
3, 240480, Note_on_c, 4, 56, 95
3, 240960, Note_off_c, 4, 61, 95
3, 240960, Note_off_c, 4, 56, 95
3, 240960, Note_on_c, 4, 61, 95
3, 240960, Note_on_c, 4, 56, 95
3, 241440, Note_off_c, 4, 61, 95
3, 241440, Note_off_c, 4, 56, 95
3, 241440, Note_on_c, 4, 61, 95
3, 241440, Note_on_c, 4, 56, 95
3, 241920, Note_off_c, 4, 61, 95
3, 241920, Note_off_c, 4, 56, 95
3, 241920, Note_on_c, 4, 65, 127
3, 241920, Note_on_c, 4, 61, 127
3, 241920, Note_on_c, 4, 56, 127
3, 243360, Note_off_c, 4, 65, 127
3, 243360, Note_off_c, 4, 61, 127
3, 243360, Note_off_c, 4, 56, 127
3, 243360, Note_on_c, 4, 61, 95
3, 243360, Note_on_c, 4, 56, 95
3, 244320, Note_off_c, 4, 61, 95
3, 244320, Note_off_c, 4, 56, 95
3, 244320, Note_on_c, 4, 61, 95
3, 244320, Note_on_c, 4, 56, 95
3, 244800, Note_off_c, 4, 61, 95
3, 244800, Note_off_c, 4, 56, 95
3, 244800, Note_on_c, 4, 61, 95
3, 244800, Note_on_c, 4, 56, 95
3, 245280, Note_off_c, 4, 61, 95
3, 245280, Note_off_c, 4, 56, 95
3, 245280, Note_on_c, 4, 61, 95
3, 245280, Note_on_c, 4, 56, 95
3, 245760, Note_off_c, 4, 61, 95
3, 245760, Note_off_c, 4, 56, 95
3, 245760, Note_on_c, 4, 61, 95
3, 245760, Note_on_c, 4, 56, 95
3, 248640, Note_off_c, 4, 61, 95
3, 248640, Note_off_c, 4, 56, 95
3, 249600, Note_on_c, 4, 65, 95
3, 249600, Note_on_c, 4, 61, 95
3, 249600, Note_on_c, 4, 56, 95
3, 251040, Note_off_c, 4, 65, 95
3, 251040, Note_off_c, 4, 61, 95
3, 251040, Note_off_c, 4, 56, 95
3, 251040, Note_on_c, 4, 65, 95
3, 251040, Note_on_c, 4, 61, 95
3, 251040, Note_on_c, 4, 56, 95
3, 252000, Note_off_c, 4, 65, 95
3, 252000, Note_off_c, 4, 61, 95
3, 252000, Note_off_c, 4, 56, 95
3, 252000, Note_on_c, 4, 61, 95
3, 252000, Note_on_c, 4, 56, 95
3, 252960, Note_off_c, 4, 61, 95
3, 252960, Note_off_c, 4, 56, 95
3, 252960, Note_on_c, 4, 61, 95
3, 252960, Note_on_c, 4, 56, 95
3, 253440, Note_off_c, 4, 61, 95
3, 253440, Note_off_c, 4, 56, 95
3, 253440, Note_on_c, 4, 61, 95
3, 253440, Note_on_c, 4, 56, 95
3, 254400, Note_off_c, 4, 61, 95
3, 254400, Note_off_c, 4, 56, 95
3, 254400, Note_on_c, 4, 61, 95
3, 254400, Note_on_c, 4, 56, 95
3, 254880, Note_off_c, 4, 61, 95
3, 254880, Note_off_c, 4, 56, 95
3, 254880, Note_on_c, 4, 61, 95
3, 254880, Note_on_c, 4, 56, 95
3, 257280, Note_off_c, 4, 61, 95
3, 257280, Note_off_c, 4, 56, 95
3, 257280, Note_on_c, 4, 61, 95
3, 257280, Note_on_c, 4, 56, 95
3, 258720, Note_off_c, 4, 61, 95
3, 258720, Note_off_c, 4, 56, 95
3, 258720, Note_on_c, 4, 61, 95
3, 258720, Note_on_c, 4, 56, 95
3, 259680, Note_off_c, 4, 61, 95
3, 259680, Note_off_c, 4, 56, 95
3, 259680, Note_on_c, 4, 61, 95
3, 259680, Note_on_c, 4, 56, 95
3, 260160, Note_off_c, 4, 61, 95
3, 260160, Note_off_c, 4, 56, 95
3, 260160, Note_on_c, 4, 61, 95
3, 260160, Note_on_c, 4, 56, 95
3, 261120, Note_off_c, 4, 61, 95
3, 261120, Note_off_c, 4, 56, 95
3, 261120, Note_on_c, 4, 61, 47
3, 261120, Note_on_c, 4, 56, 47
3, 264000, Note_off_c, 4, 61, 47
3, 264000, Note_off_c, 4, 56, 47
3, 264960, Note_on_c, 4, 61, 95
3, 264960, Note_on_c, 4, 56, 95
3, 266400, Note_off_c, 4, 61, 95
3, 266400, Note_off_c, 4, 56, 95
3, 266400, Note_on_c, 4, 61, 95
3, 266400, Note_on_c, 4, 56, 95
3, 267360, Note_off_c, 4, 61, 95
3, 267360, Note_off_c, 4, 56, 95
3, 267360, Note_on_c, 4, 61, 95
3, 267360, Note_on_c, 4, 56, 95
3, 268800, Note_off_c, 4, 61, 95
3, 268800, Note_off_c, 4, 56, 95
3, 268800, Note_on_c, 4, 59, 95
3, 268800, Note_on_c, 4, 55, 95
3, 268800, Note_on_c, 4, 50, 95
3, 268800, Note_on_c, 4, 40, 95
3, 268872, Note_off_c, 4, 59, 95
3, 268872, Note_off_c, 4, 55, 95
3, 268872, Note_off_c, 4, 50, 95
3, 268872, Note_off_c, 4, 40, 95
3, 269040, Note_on_c, 4, 59, 95
3, 269040, Note_on_c, 4, 55, 95
3, 269040, Note_on_c, 4, 50, 95
3, 269040, Note_on_c, 4, 40, 95
3, 269112, Note_off_c, 4, 59, 95
3, 269112, Note_off_c, 4, 55, 95
3, 269112, Note_off_c, 4, 50, 95
3, 269112, Note_off_c, 4, 40, 95
3, 269280, Note_on_c, 4, 59, 95
3, 269280, Note_on_c, 4, 55, 95
3, 269280, Note_on_c, 4, 50, 95
3, 269280, Note_on_c, 4, 40, 95
3, 269352, Note_off_c, 4, 59, 95
3, 269352, Note_off_c, 4, 55, 95
3, 269352, Note_off_c, 4, 50, 95
3, 269352, Note_off_c, 4, 40, 95
3, 269520, Note_on_c, 4, 59, 95
3, 269520, Note_on_c, 4, 55, 95
3, 269520, Note_on_c, 4, 50, 95
3, 269520, Note_on_c, 4, 40, 95
3, 269592, Note_off_c, 4, 59, 95
3, 269592, Note_off_c, 4, 55, 95
3, 269592, Note_off_c, 4, 50, 95
3, 269592, Note_off_c, 4, 40, 95
3, 269760, Note_on_c, 4, 59, 95
3, 269760, Note_on_c, 4, 55, 95
3, 269760, Note_on_c, 4, 50, 95
3, 269760, Note_on_c, 4, 40, 95
3, 269832, Note_off_c, 4, 59, 95
3, 269832, Note_off_c, 4, 55, 95
3, 269832, Note_off_c, 4, 50, 95
3, 269832, Note_off_c, 4, 40, 95
3, 270240, Note_on_c, 4, 59, 95
3, 270240, Note_on_c, 4, 55, 95
3, 270240, Note_on_c, 4, 50, 95
3, 270240, Note_on_c, 4, 40, 95
3, 270312, Note_off_c, 4, 59, 95
3, 270312, Note_off_c, 4, 55, 95
3, 270312, Note_off_c, 4, 50, 95
3, 270312, Note_off_c, 4, 40, 95
3, 270720, Note_on_c, 4, 65, 95
3, 270720, Note_on_c, 4, 61, 95
3, 270720, Note_on_c, 4, 56, 95
3, 270720, Note_on_c, 4, 46, 95
3, 272640, Note_off_c, 4, 65, 95
3, 272640, Note_off_c, 4, 61, 95
3, 272640, Note_off_c, 4, 56, 95
3, 272640, Note_off_c, 4, 46, 95
3, 273600, Note_on_c, 4, 74, 95
3, 273600, Note_on_c, 4, 69, 95
3, 273600, Note_on_c, 4, 65, 95
3, 273600, Note_on_c, 4, 60, 95
3, 280320, Note_off_c, 4, 74, 95
3, 280320, Note_off_c, 4, 69, 95
3, 280320, Note_off_c, 4, 65, 95
3, 280320, Note_off_c, 4, 60, 95
3, 281280, Note_on_c, 4, 72, 95
3, 281280, Note_on_c, 4, 67, 95
3, 281280, Note_on_c, 4, 63, 95
3, 281280, Note_on_c, 4, 60, 95
3, 288000, Note_off_c, 4, 72, 95
3, 288000, Note_off_c, 4, 67, 95
3, 288000, Note_off_c, 4, 63, 95
3, 288000, Note_off_c, 4, 60, 95
3, 288960, Note_on_c, 4, 74, 95
3, 288960, Note_on_c, 4, 69, 95
3, 288960, Note_on_c, 4, 65, 95
3, 288960, Note_on_c, 4, 60, 95
3, 295680, Note_off_c, 4, 74, 95
3, 295680, Note_off_c, 4, 69, 95
3, 295680, Note_off_c, 4, 65, 95
3, 295680, Note_off_c, 4, 60, 95
3, 296640, Note_on_c, 4, 72, 95
3, 296640, Note_on_c, 4, 67, 95
3, 296640, Note_on_c, 4, 63, 95
3, 296640, Note_on_c, 4, 60, 95
3, 299520, Note_off_c, 4, 72, 95
3, 299520, Note_off_c, 4, 67, 95
3, 299520, Note_off_c, 4, 63, 95
3, 299520, Note_off_c, 4, 60, 95
3, 299520, Note_on_c, 4, 72, 47
3, 299520, Note_on_c, 4, 67, 47
3, 299520, Note_on_c, 4, 63, 47
3, 299520, Note_on_c, 4, 60, 47
3, 301920, Note_off_c, 4, 72, 47
3, 301920, Note_off_c, 4, 67, 47
3, 301920, Note_off_c, 4, 63, 47
3, 301920, Note_off_c, 4, 60, 47
3, 301920, Note_on_c, 4, 63, 95
3, 301920, Note_on_c, 4, 50, 95
3, 301920, Note_on_c, 4, 51, 95
3, 301992, Note_off_c, 4, 50, 95
3, 302400, Note_off_c, 4, 63, 95
3, 302400, Note_off_c, 4, 51, 95
3, 302400, Note_on_c, 4, 65, 95
3, 302400, Note_on_c, 4, 50, 95
3, 302400, Note_on_c, 4, 53, 95
3, 302472, Note_off_c, 4, 50, 95
3, 302880, Note_off_c, 4, 65, 95
3, 302880, Note_off_c, 4, 53, 95
3, 302880, Note_on_c, 4, 68, 95
3, 302880, Note_on_c, 4, 55, 95
3, 302880, Note_on_c, 4, 56, 95
3, 302952, Note_off_c, 4, 55, 95
3, 303360, Note_off_c, 4, 68, 95
3, 303360, Note_off_c, 4, 56, 95
3, 303840, Note_on_c, 4, 63, 95
3, 303840, Note_on_c, 4, 50, 95
3, 303840, Note_on_c, 4, 51, 95
3, 303912, Note_off_c, 4, 50, 95
3, 304320, Note_off_c, 4, 63, 95
3, 304320, Note_off_c, 4, 51, 95
3, 304320, Note_on_c, 4, 65, 95
3, 304320, Note_on_c, 4, 50, 95
3, 304320, Note_on_c, 4, 53, 95
3, 304392, Note_off_c, 4, 50, 95
3, 304800, Note_off_c, 4, 65, 95
3, 304800, Note_off_c, 4, 53, 95
3, 304800, Note_on_c, 4, 68, 95
3, 304800, Note_on_c, 4, 55, 95
3, 304800, Note_on_c, 4, 56, 95
3, 304872, Note_off_c, 4, 55, 95
3, 305280, Note_off_c, 4, 68, 95
3, 305280, Note_off_c, 4, 56, 95
3, 305760, Note_on_c, 4, 63, 95
3, 305760, Note_on_c, 4, 50, 95
3, 305760, Note_on_c, 4, 51, 95
3, 305832, Note_off_c, 4, 50, 95
3, 306240, Note_off_c, 4, 63, 95
3, 306240, Note_off_c, 4, 51, 95
3, 306240, Note_on_c, 4, 65, 95
3, 306240, Note_on_c, 4, 50, 95
3, 306240, Note_on_c, 4, 53, 95
3, 306312, Note_off_c, 4, 50, 95
3, 306720, Note_off_c, 4, 65, 95
3, 306720, Note_off_c, 4, 53, 95
3, 306720, Note_on_c, 4, 68, 95
3, 306720, Note_on_c, 4, 55, 95
3, 306720, Note_on_c, 4, 56, 95
3, 306792, Note_off_c, 4, 55, 95
3, 307200, Note_off_c, 4, 68, 95
3, 307200, Note_off_c, 4, 56, 95
3, 307680, Note_on_c, 4, 63, 95
3, 307680, Note_on_c, 4, 50, 95
3, 307680, Note_on_c, 4, 51, 95
3, 307752, Note_off_c, 4, 50, 95
3, 308160, Note_off_c, 4, 63, 95
3, 308160, Note_off_c, 4, 51, 95
3, 308160, Note_on_c, 4, 65, 95
3, 308160, Note_on_c, 4, 50, 95
3, 308160, Note_on_c, 4, 53, 95
3, 308232, Note_off_c, 4, 50, 95
3, 308640, Note_off_c, 4, 65, 95
3, 308640, Note_off_c, 4, 53, 95
3, 308640, Note_on_c, 4, 65, 95
3, 308640, Note_on_c, 4, 50, 95
3, 308640, Note_on_c, 4, 53, 95
3, 308712, Note_off_c, 4, 50, 95
3, 309120, Note_off_c, 4, 65, 95
3, 309120, Note_off_c, 4, 53, 95
3, 309600, Note_on_c, 4, 63, 95
3, 309600, Note_on_c, 4, 50, 95
3, 309600, Note_on_c, 4, 51, 95
3, 309672, Note_off_c, 4, 50, 95
3, 310080, Note_off_c, 4, 63, 95
3, 310080, Note_off_c, 4, 51, 95
3, 310080, Note_on_c, 4, 65, 95
3, 310080, Note_on_c, 4, 50, 95
3, 310080, Note_on_c, 4, 53, 95
3, 310152, Note_off_c, 4, 50, 95
3, 310560, Note_off_c, 4, 65, 95
3, 310560, Note_off_c, 4, 53, 95
3, 310560, Note_on_c, 4, 68, 95
3, 310560, Note_on_c, 4, 55, 95
3, 310560, Note_on_c, 4, 56, 95
3, 310632, Note_off_c, 4, 55, 95
3, 311040, Note_off_c, 4, 68, 95
3, 311040, Note_off_c, 4, 56, 95
3, 311520, Note_on_c, 4, 63, 95
3, 311520, Note_on_c, 4, 50, 95
3, 311520, Note_on_c, 4, 51, 95
3, 311592, Note_off_c, 4, 50, 95
3, 312000, Note_off_c, 4, 63, 95
3, 312000, Note_off_c, 4, 51, 95
3, 312000, Note_on_c, 4, 65, 95
3, 312000, Note_on_c, 4, 50, 95
3, 312000, Note_on_c, 4, 53, 95
3, 312072, Note_off_c, 4, 50, 95
3, 312480, Note_off_c, 4, 65, 95
3, 312480, Note_off_c, 4, 53, 95
3, 312480, Note_on_c, 4, 68, 95
3, 312480, Note_on_c, 4, 55, 95
3, 312480, Note_on_c, 4, 56, 95
3, 312552, Note_off_c, 4, 55, 95
3, 312960, Note_off_c, 4, 68, 95
3, 312960, Note_off_c, 4, 56, 95
3, 313440, Note_on_c, 4, 63, 95
3, 313440, Note_on_c, 4, 50, 95
3, 313440, Note_on_c, 4, 51, 95
3, 313512, Note_off_c, 4, 50, 95
3, 313920, Note_off_c, 4, 63, 95
3, 313920, Note_off_c, 4, 51, 95
3, 313920, Note_on_c, 4, 65, 95
3, 313920, Note_on_c, 4, 50, 95
3, 313920, Note_on_c, 4, 53, 95
3, 313992, Note_off_c, 4, 50, 95
3, 314400, Note_off_c, 4, 65, 95
3, 314400, Note_off_c, 4, 53, 95
3, 314400, Note_on_c, 4, 68, 95
3, 314400, Note_on_c, 4, 55, 95
3, 314400, Note_on_c, 4, 56, 95
3, 314472, Note_off_c, 4, 55, 95
3, 314880, Note_off_c, 4, 68, 95
3, 314880, Note_off_c, 4, 56, 95
3, 315360, Note_on_c, 4, 63, 95
3, 315360, Note_on_c, 4, 50, 95
3, 315360, Note_on_c, 4, 51, 95
3, 315432, Note_off_c, 4, 50, 95
3, 315840, Note_off_c, 4, 63, 95
3, 315840, Note_off_c, 4, 51, 95
3, 315840, Note_on_c, 4, 65, 95
3, 315840, Note_on_c, 4, 50, 95
3, 315840, Note_on_c, 4, 53, 95
3, 315912, Note_off_c, 4, 50, 95
3, 316320, Note_off_c, 4, 65, 95
3, 316320, Note_off_c, 4, 53, 95
3, 316320, Note_on_c, 4, 65, 95
3, 316320, Note_on_c, 4, 50, 95
3, 316320, Note_on_c, 4, 53, 95
3, 316392, Note_off_c, 4, 50, 95
3, 316800, Note_off_c, 4, 65, 95
3, 316800, Note_off_c, 4, 53, 95
3, 317280, Note_on_c, 4, 63, 95
3, 317280, Note_on_c, 4, 50, 95
3, 317280, Note_on_c, 4, 51, 95
3, 317352, Note_off_c, 4, 50, 95
3, 317760, Note_off_c, 4, 63, 95
3, 317760, Note_off_c, 4, 51, 95
3, 317760, Note_on_c, 4, 65, 95
3, 317760, Note_on_c, 4, 50, 95
3, 317760, Note_on_c, 4, 53, 95
3, 317832, Note_off_c, 4, 50, 95
3, 318240, Note_off_c, 4, 65, 95
3, 318240, Note_off_c, 4, 53, 95
3, 318240, Note_on_c, 4, 68, 95
3, 318240, Note_on_c, 4, 55, 95
3, 318240, Note_on_c, 4, 56, 95
3, 318312, Note_off_c, 4, 55, 95
3, 318720, Note_off_c, 4, 68, 95
3, 318720, Note_off_c, 4, 56, 95
3, 319200, Note_on_c, 4, 63, 95
3, 319200, Note_on_c, 4, 50, 95
3, 319200, Note_on_c, 4, 51, 95
3, 319272, Note_off_c, 4, 50, 95
3, 319680, Note_off_c, 4, 63, 95
3, 319680, Note_off_c, 4, 51, 95
3, 319680, Note_on_c, 4, 65, 95
3, 319680, Note_on_c, 4, 50, 95
3, 319680, Note_on_c, 4, 53, 95
3, 319752, Note_off_c, 4, 50, 95
3, 320160, Note_off_c, 4, 65, 95
3, 320160, Note_off_c, 4, 53, 95
3, 320160, Note_on_c, 4, 68, 95
3, 320160, Note_on_c, 4, 55, 95
3, 320160, Note_on_c, 4, 56, 95
3, 320232, Note_off_c, 4, 55, 95
3, 320640, Note_off_c, 4, 68, 95
3, 320640, Note_off_c, 4, 56, 95
3, 321120, Note_on_c, 4, 63, 95
3, 321120, Note_on_c, 4, 50, 95
3, 321120, Note_on_c, 4, 51, 95
3, 321192, Note_off_c, 4, 50, 95
3, 321600, Note_off_c, 4, 63, 95
3, 321600, Note_off_c, 4, 51, 95
3, 321600, Note_on_c, 4, 65, 95
3, 321600, Note_on_c, 4, 50, 95
3, 321600, Note_on_c, 4, 53, 95
3, 321672, Note_off_c, 4, 50, 95
3, 322080, Note_off_c, 4, 65, 95
3, 322080, Note_off_c, 4, 53, 95
3, 322080, Note_on_c, 4, 68, 95
3, 322080, Note_on_c, 4, 55, 95
3, 322080, Note_on_c, 4, 56, 95
3, 322152, Note_off_c, 4, 55, 95
3, 322560, Note_off_c, 4, 68, 95
3, 322560, Note_off_c, 4, 56, 95
3, 323040, Note_on_c, 4, 63, 95
3, 323040, Note_on_c, 4, 50, 95
3, 323040, Note_on_c, 4, 51, 95
3, 323112, Note_off_c, 4, 50, 95
3, 323520, Note_off_c, 4, 63, 95
3, 323520, Note_off_c, 4, 51, 95
3, 323520, Note_on_c, 4, 65, 95
3, 323520, Note_on_c, 4, 50, 95
3, 323520, Note_on_c, 4, 53, 95
3, 323592, Note_off_c, 4, 50, 95
3, 324000, Note_off_c, 4, 65, 95
3, 324000, Note_off_c, 4, 53, 95
3, 324000, Note_on_c, 4, 65, 95
3, 324000, Note_on_c, 4, 50, 95
3, 324000, Note_on_c, 4, 53, 95
3, 324072, Note_off_c, 4, 50, 95
3, 324480, Note_off_c, 4, 65, 95
3, 324480, Note_off_c, 4, 53, 95
3, 324960, Note_on_c, 4, 63, 95
3, 324960, Note_on_c, 4, 50, 95
3, 324960, Note_on_c, 4, 51, 95
3, 325032, Note_off_c, 4, 50, 95
3, 325440, Note_off_c, 4, 63, 95
3, 325440, Note_off_c, 4, 51, 95
3, 325440, Note_on_c, 4, 65, 95
3, 325440, Note_on_c, 4, 50, 95
3, 325440, Note_on_c, 4, 53, 95
3, 325512, Note_off_c, 4, 50, 95
3, 325920, Note_off_c, 4, 65, 95
3, 325920, Note_off_c, 4, 53, 95
3, 325920, Note_on_c, 4, 63, 95
3, 325920, Note_on_c, 4, 50, 95
3, 325920, Note_on_c, 4, 51, 95
3, 325992, Note_off_c, 4, 50, 95
3, 326400, Note_off_c, 4, 63, 95
3, 326400, Note_off_c, 4, 51, 95
3, 327360, Note_on_c, 4, 74, 95
3, 327360, Note_on_c, 4, 69, 95
3, 327360, Note_on_c, 4, 65, 95
3, 327360, Note_on_c, 4, 60, 95
3, 330240, Note_off_c, 4, 74, 95
3, 330240, Note_off_c, 4, 69, 95
3, 330240, Note_off_c, 4, 65, 95
3, 330240, Note_off_c, 4, 60, 95
3, 330240, Note_on_c, 4, 74, 47
3, 330240, Note_on_c, 4, 69, 47
3, 330240, Note_on_c, 4, 65, 47
3, 330240, Note_on_c, 4, 60, 47
3, 334080, Note_off_c, 4, 74, 47
3, 334080, Note_off_c, 4, 69, 47
3, 334080, Note_off_c, 4, 65, 47
3, 334080, Note_off_c, 4, 60, 47
3, 335040, Note_on_c, 4, 72, 95
3, 335040, Note_on_c, 4, 67, 95
3, 335040, Note_on_c, 4, 63, 95
3, 335040, Note_on_c, 4, 60, 95
3, 337920, Note_off_c, 4, 72, 95
3, 337920, Note_off_c, 4, 67, 95
3, 337920, Note_off_c, 4, 63, 95
3, 337920, Note_off_c, 4, 60, 95
3, 337920, Note_on_c, 4, 72, 47
3, 337920, Note_on_c, 4, 67, 47
3, 337920, Note_on_c, 4, 63, 47
3, 337920, Note_on_c, 4, 60, 47
3, 341760, Note_off_c, 4, 72, 47
3, 341760, Note_off_c, 4, 67, 47
3, 341760, Note_off_c, 4, 63, 47
3, 341760, Note_off_c, 4, 60, 47
3, 342720, Note_on_c, 4, 74, 95
3, 342720, Note_on_c, 4, 69, 95
3, 342720, Note_on_c, 4, 65, 95
3, 342720, Note_on_c, 4, 60, 95
3, 345600, Note_off_c, 4, 74, 95
3, 345600, Note_off_c, 4, 69, 95
3, 345600, Note_off_c, 4, 65, 95
3, 345600, Note_off_c, 4, 60, 95
3, 345600, Note_on_c, 4, 74, 47
3, 345600, Note_on_c, 4, 69, 47
3, 345600, Note_on_c, 4, 65, 47
3, 345600, Note_on_c, 4, 60, 47
3, 349440, Note_off_c, 4, 74, 47
3, 349440, Note_off_c, 4, 69, 47
3, 349440, Note_off_c, 4, 65, 47
3, 349440, Note_off_c, 4, 60, 47
3, 350400, Note_on_c, 4, 72, 95
3, 350400, Note_on_c, 4, 67, 95
3, 350400, Note_on_c, 4, 63, 95
3, 350400, Note_on_c, 4, 60, 95
3, 353280, Note_off_c, 4, 72, 95
3, 353280, Note_off_c, 4, 67, 95
3, 353280, Note_off_c, 4, 63, 95
3, 353280, Note_off_c, 4, 60, 95
3, 353280, Note_on_c, 4, 72, 47
3, 353280, Note_on_c, 4, 67, 47
3, 353280, Note_on_c, 4, 63, 47
3, 353280, Note_on_c, 4, 60, 47
3, 357120, Note_off_c, 4, 72, 47
3, 357120, Note_off_c, 4, 67, 47
3, 357120, Note_off_c, 4, 63, 47
3, 357120, Note_off_c, 4, 60, 47
3, 358080, Note_on_c, 4, 72, 95
3, 358080, Note_on_c, 4, 67, 95
3, 358080, Note_on_c, 4, 63, 95
3, 358080, Note_on_c, 4, 60, 95
3, 364800, Note_off_c, 4, 72, 95
3, 364800, Note_off_c, 4, 67, 95
3, 364800, Note_off_c, 4, 63, 95
3, 364800, Note_off_c, 4, 60, 95
3, 365760, Note_on_c, 4, 74, 95
3, 365760, Note_on_c, 4, 69, 95
3, 365760, Note_on_c, 4, 65, 95
3, 365760, Note_on_c, 4, 60, 95
3, 372480, Note_off_c, 4, 74, 95
3, 372480, Note_off_c, 4, 69, 95
3, 372480, Note_off_c, 4, 65, 95
3, 372480, Note_off_c, 4, 60, 95
3, 373440, Note_on_c, 4, 71, 95
3, 373440, Note_on_c, 4, 66, 95
3, 373440, Note_on_c, 4, 62, 95
3, 373440, Note_on_c, 4, 60, 95
3, 373440, Note_on_c, 4, 52, 95
3, 373512, Note_off_c, 4, 60, 95
3, 380160, Note_off_c, 4, 71, 95
3, 380160, Note_off_c, 4, 66, 95
3, 380160, Note_off_c, 4, 62, 95
3, 380160, Note_off_c, 4, 52, 95
3, 381120, Note_on_c, 4, 74, 95
3, 381120, Note_on_c, 4, 69, 95
3, 381120, Note_on_c, 4, 65, 95
3, 381120, Note_on_c, 4, 60, 95
3, 387840, Note_off_c, 4, 74, 95
3, 387840, Note_off_c, 4, 69, 95
3, 387840, Note_off_c, 4, 65, 95
3, 387840, Note_off_c, 4, 60, 95
3, 388800, Note_on_c, 4, 71, 95
3, 388800, Note_on_c, 4, 66, 95
3, 388800, Note_on_c, 4, 62, 95
3, 388800, Note_on_c, 4, 60, 95
3, 388800, Note_on_c, 4, 52, 95
3, 388872, Note_off_c, 4, 60, 95
3, 395520, Note_off_c, 4, 71, 95
3, 395520, Note_off_c, 4, 66, 95
3, 395520, Note_off_c, 4, 62, 95
3, 395520, Note_off_c, 4, 52, 95
3, 396480, Note_on_c, 4, 71, 95
3, 396480, Note_on_c, 4, 66, 95
3, 396480, Note_on_c, 4, 62, 95
3, 396480, Note_on_c, 4, 60, 95
3, 396480, Note_on_c, 4, 52, 95
3, 396552, Note_off_c, 4, 60, 95
3, 403200, Note_off_c, 4, 71, 95
3, 403200, Note_off_c, 4, 66, 95
3, 403200, Note_off_c, 4, 62, 95
3, 403200, Note_off_c, 4, 52, 95
3, 404160, Note_on_c, 4, 72, 95
3, 404160, Note_on_c, 4, 67, 95
3, 404160, Note_on_c, 4, 63, 95
3, 404160, Note_on_c, 4, 60, 95
3, 407040, Note_off_c, 4, 72, 95
3, 407040, Note_off_c, 4, 67, 95
3, 407040, Note_off_c, 4, 63, 95
3, 407040, Note_off_c, 4, 60, 95
3, 407040, Note_on_c, 4, 72, 47
3, 407040, Note_on_c, 4, 67, 47
3, 407040, Note_on_c, 4, 63, 47
3, 407040, Note_on_c, 4, 60, 47
3, 409440, Note_off_c, 4, 72, 47
3, 409440, Note_off_c, 4, 67, 47
3, 409440, Note_off_c, 4, 63, 47
3, 409440, Note_off_c, 4, 60, 47
3, 409440, Note_on_c, 4, 63, 95
3, 409440, Note_on_c, 4, 50, 95
3, 409440, Note_on_c, 4, 51, 95
3, 409512, Note_off_c, 4, 50, 95
3, 409920, Note_off_c, 4, 63, 95
3, 409920, Note_off_c, 4, 51, 95
3, 409920, Note_on_c, 4, 65, 95
3, 409920, Note_on_c, 4, 50, 95
3, 409920, Note_on_c, 4, 53, 95
3, 409992, Note_off_c, 4, 50, 95
3, 410400, Note_off_c, 4, 65, 95
3, 410400, Note_off_c, 4, 53, 95
3, 410400, Note_on_c, 4, 68, 95
3, 410400, Note_on_c, 4, 55, 95
3, 410400, Note_on_c, 4, 56, 95
3, 410472, Note_off_c, 4, 55, 95
3, 410880, Note_off_c, 4, 68, 95
3, 410880, Note_off_c, 4, 56, 95
3, 411360, Note_on_c, 4, 72, 95
3, 411360, Note_on_c, 4, 67, 95
3, 411360, Note_on_c, 4, 63, 95
3, 411360, Note_on_c, 4, 57, 95
3, 411360, Note_on_c, 4, 53, 95
3, 411600, Note_off_c, 4, 72, 95
3, 411600, Note_off_c, 4, 67, 95
3, 411600, Note_off_c, 4, 63, 95
3, 411600, Note_off_c, 4, 57, 95
3, 411600, Note_off_c, 4, 53, 95
3, 411600, Note_on_c, 4, 72, 95
3, 411600, Note_on_c, 4, 67, 95
3, 411600, Note_on_c, 4, 63, 95
3, 411600, Note_on_c, 4, 57, 95
3, 411600, Note_on_c, 4, 53, 95
3, 411840, Note_off_c, 4, 72, 95
3, 411840, Note_off_c, 4, 67, 95
3, 411840, Note_off_c, 4, 63, 95
3, 411840, Note_off_c, 4, 57, 95
3, 411840, Note_off_c, 4, 53, 95
3, 411840, Note_on_c, 4, 72, 95
3, 411840, Note_on_c, 4, 67, 95
3, 411840, Note_on_c, 4, 63, 95
3, 411840, Note_on_c, 4, 57, 95
3, 411840, Note_on_c, 4, 53, 95
3, 412080, Note_off_c, 4, 72, 95
3, 412080, Note_off_c, 4, 67, 95
3, 412080, Note_off_c, 4, 63, 95
3, 412080, Note_off_c, 4, 57, 95
3, 412080, Note_off_c, 4, 53, 95
3, 412080, Note_on_c, 4, 72, 95
3, 412080, Note_on_c, 4, 67, 95
3, 412080, Note_on_c, 4, 63, 95
3, 412080, Note_on_c, 4, 57, 95
3, 412080, Note_on_c, 4, 53, 95
3, 412320, Note_off_c, 4, 72, 95
3, 412320, Note_off_c, 4, 67, 95
3, 412320, Note_off_c, 4, 63, 95
3, 412320, Note_off_c, 4, 57, 95
3, 412320, Note_off_c, 4, 53, 95
3, 412320, Note_on_c, 4, 72, 95
3, 412320, Note_on_c, 4, 67, 95
3, 412320, Note_on_c, 4, 63, 95
3, 412320, Note_on_c, 4, 57, 95
3, 412320, Note_on_c, 4, 53, 95
3, 412800, Note_off_c, 4, 72, 95
3, 412800, Note_off_c, 4, 67, 95
3, 412800, Note_off_c, 4, 63, 95
3, 412800, Note_off_c, 4, 57, 95
3, 412800, Note_off_c, 4, 53, 95
3, 413280, Note_on_c, 4, 72, 95
3, 413280, Note_on_c, 4, 67, 95
3, 413280, Note_on_c, 4, 63, 95
3, 413280, Note_on_c, 4, 57, 95
3, 413280, Note_on_c, 4, 53, 95
3, 413520, Note_off_c, 4, 72, 95
3, 413520, Note_off_c, 4, 67, 95
3, 413520, Note_off_c, 4, 63, 95
3, 413520, Note_off_c, 4, 57, 95
3, 413520, Note_off_c, 4, 53, 95
3, 413520, Note_on_c, 4, 72, 95
3, 413520, Note_on_c, 4, 67, 95
3, 413520, Note_on_c, 4, 63, 95
3, 413520, Note_on_c, 4, 57, 95
3, 413520, Note_on_c, 4, 53, 95
3, 413760, Note_off_c, 4, 72, 95
3, 413760, Note_off_c, 4, 67, 95
3, 413760, Note_off_c, 4, 63, 95
3, 413760, Note_off_c, 4, 57, 95
3, 413760, Note_off_c, 4, 53, 95
3, 413760, Note_on_c, 4, 72, 95
3, 413760, Note_on_c, 4, 67, 95
3, 413760, Note_on_c, 4, 63, 95
3, 413760, Note_on_c, 4, 57, 95
3, 413760, Note_on_c, 4, 53, 95
3, 414000, Note_off_c, 4, 72, 95
3, 414000, Note_off_c, 4, 67, 95
3, 414000, Note_off_c, 4, 63, 95
3, 414000, Note_off_c, 4, 57, 95
3, 414000, Note_off_c, 4, 53, 95
3, 414000, Note_on_c, 4, 72, 95
3, 414000, Note_on_c, 4, 67, 95
3, 414000, Note_on_c, 4, 63, 95
3, 414000, Note_on_c, 4, 57, 95
3, 414000, Note_on_c, 4, 53, 95
3, 414240, Note_off_c, 4, 72, 95
3, 414240, Note_off_c, 4, 67, 95
3, 414240, Note_off_c, 4, 63, 95
3, 414240, Note_off_c, 4, 57, 95
3, 414240, Note_off_c, 4, 53, 95
3, 414240, Note_on_c, 4, 72, 95
3, 414240, Note_on_c, 4, 67, 95
3, 414240, Note_on_c, 4, 63, 95
3, 414240, Note_on_c, 4, 57, 95
3, 414240, Note_on_c, 4, 53, 95
3, 414720, Note_off_c, 4, 72, 95
3, 414720, Note_off_c, 4, 67, 95
3, 414720, Note_off_c, 4, 63, 95
3, 414720, Note_off_c, 4, 57, 95
3, 414720, Note_off_c, 4, 53, 95
3, 415200, Note_on_c, 4, 72, 95
3, 415200, Note_on_c, 4, 67, 95
3, 415200, Note_on_c, 4, 63, 95
3, 415200, Note_on_c, 4, 57, 95
3, 415200, Note_on_c, 4, 53, 95
3, 415440, Note_off_c, 4, 72, 95
3, 415440, Note_off_c, 4, 67, 95
3, 415440, Note_off_c, 4, 63, 95
3, 415440, Note_off_c, 4, 57, 95
3, 415440, Note_off_c, 4, 53, 95
3, 415440, Note_on_c, 4, 72, 95
3, 415440, Note_on_c, 4, 67, 95
3, 415440, Note_on_c, 4, 63, 95
3, 415440, Note_on_c, 4, 57, 95
3, 415440, Note_on_c, 4, 53, 95
3, 415680, Note_off_c, 4, 72, 95
3, 415680, Note_off_c, 4, 67, 95
3, 415680, Note_off_c, 4, 63, 95
3, 415680, Note_off_c, 4, 57, 95
3, 415680, Note_off_c, 4, 53, 95
3, 415680, Note_on_c, 4, 72, 95
3, 415680, Note_on_c, 4, 67, 95
3, 415680, Note_on_c, 4, 63, 95
3, 415680, Note_on_c, 4, 57, 95
3, 415680, Note_on_c, 4, 53, 95
3, 415920, Note_off_c, 4, 72, 95
3, 415920, Note_off_c, 4, 67, 95
3, 415920, Note_off_c, 4, 63, 95
3, 415920, Note_off_c, 4, 57, 95
3, 415920, Note_off_c, 4, 53, 95
3, 415920, Note_on_c, 4, 72, 95
3, 415920, Note_on_c, 4, 67, 95
3, 415920, Note_on_c, 4, 63, 95
3, 415920, Note_on_c, 4, 57, 95
3, 415920, Note_on_c, 4, 53, 95
3, 416160, Note_off_c, 4, 72, 95
3, 416160, Note_off_c, 4, 67, 95
3, 416160, Note_off_c, 4, 63, 95
3, 416160, Note_off_c, 4, 57, 95
3, 416160, Note_off_c, 4, 53, 95
3, 416160, Note_on_c, 4, 72, 95
3, 416160, Note_on_c, 4, 67, 95
3, 416160, Note_on_c, 4, 63, 95
3, 416160, Note_on_c, 4, 57, 95
3, 416160, Note_on_c, 4, 53, 95
3, 416640, Note_off_c, 4, 72, 95
3, 416640, Note_off_c, 4, 67, 95
3, 416640, Note_off_c, 4, 63, 95
3, 416640, Note_off_c, 4, 57, 95
3, 416640, Note_off_c, 4, 53, 95
3, 417120, Note_on_c, 4, 72, 95
3, 417120, Note_on_c, 4, 67, 95
3, 417120, Note_on_c, 4, 63, 95
3, 417120, Note_on_c, 4, 57, 95
3, 417120, Note_on_c, 4, 53, 95
3, 417360, Note_off_c, 4, 72, 95
3, 417360, Note_off_c, 4, 67, 95
3, 417360, Note_off_c, 4, 63, 95
3, 417360, Note_off_c, 4, 57, 95
3, 417360, Note_off_c, 4, 53, 95
3, 417360, Note_on_c, 4, 72, 95
3, 417360, Note_on_c, 4, 67, 95
3, 417360, Note_on_c, 4, 63, 95
3, 417360, Note_on_c, 4, 57, 95
3, 417360, Note_on_c, 4, 53, 95
3, 417600, Note_off_c, 4, 72, 95
3, 417600, Note_off_c, 4, 67, 95
3, 417600, Note_off_c, 4, 63, 95
3, 417600, Note_off_c, 4, 57, 95
3, 417600, Note_off_c, 4, 53, 95
3, 417600, Note_on_c, 4, 72, 95
3, 417600, Note_on_c, 4, 67, 95
3, 417600, Note_on_c, 4, 63, 95
3, 417600, Note_on_c, 4, 57, 95
3, 417600, Note_on_c, 4, 53, 95
3, 417840, Note_off_c, 4, 72, 95
3, 417840, Note_off_c, 4, 67, 95
3, 417840, Note_off_c, 4, 63, 95
3, 417840, Note_off_c, 4, 57, 95
3, 417840, Note_off_c, 4, 53, 95
3, 417840, Note_on_c, 4, 72, 95
3, 417840, Note_on_c, 4, 67, 95
3, 417840, Note_on_c, 4, 63, 95
3, 417840, Note_on_c, 4, 57, 95
3, 417840, Note_on_c, 4, 53, 95
3, 418080, Note_off_c, 4, 72, 95
3, 418080, Note_off_c, 4, 67, 95
3, 418080, Note_off_c, 4, 63, 95
3, 418080, Note_off_c, 4, 57, 95
3, 418080, Note_off_c, 4, 53, 95
3, 418080, Note_on_c, 4, 74, 95
3, 418080, Note_on_c, 4, 69, 95
3, 418080, Note_on_c, 4, 65, 95
3, 418080, Note_on_c, 4, 60, 95
3, 418560, Note_off_c, 4, 74, 95
3, 418560, Note_off_c, 4, 69, 95
3, 418560, Note_off_c, 4, 65, 95
3, 418560, Note_off_c, 4, 60, 95
3, 419040, Note_on_c, 4, 72, 95
3, 419040, Note_on_c, 4, 67, 95
3, 419040, Note_on_c, 4, 63, 95
3, 419040, Note_on_c, 4, 57, 95
3, 419040, Note_on_c, 4, 53, 95
3, 419280, Note_off_c, 4, 72, 95
3, 419280, Note_off_c, 4, 67, 95
3, 419280, Note_off_c, 4, 63, 95
3, 419280, Note_off_c, 4, 57, 95
3, 419280, Note_off_c, 4, 53, 95
3, 419280, Note_on_c, 4, 72, 95
3, 419280, Note_on_c, 4, 67, 95
3, 419280, Note_on_c, 4, 63, 95
3, 419280, Note_on_c, 4, 57, 95
3, 419280, Note_on_c, 4, 53, 95
3, 419520, Note_off_c, 4, 72, 95
3, 419520, Note_off_c, 4, 67, 95
3, 419520, Note_off_c, 4, 63, 95
3, 419520, Note_off_c, 4, 57, 95
3, 419520, Note_off_c, 4, 53, 95
3, 419520, Note_on_c, 4, 72, 95
3, 419520, Note_on_c, 4, 67, 95
3, 419520, Note_on_c, 4, 63, 95
3, 419520, Note_on_c, 4, 57, 95
3, 419520, Note_on_c, 4, 53, 95
3, 419760, Note_off_c, 4, 72, 95
3, 419760, Note_off_c, 4, 67, 95
3, 419760, Note_off_c, 4, 63, 95
3, 419760, Note_off_c, 4, 57, 95
3, 419760, Note_off_c, 4, 53, 95
3, 419760, Note_on_c, 4, 72, 95
3, 419760, Note_on_c, 4, 67, 95
3, 419760, Note_on_c, 4, 63, 95
3, 419760, Note_on_c, 4, 57, 95
3, 419760, Note_on_c, 4, 53, 95
3, 420000, Note_off_c, 4, 72, 95
3, 420000, Note_off_c, 4, 67, 95
3, 420000, Note_off_c, 4, 63, 95
3, 420000, Note_off_c, 4, 57, 95
3, 420000, Note_off_c, 4, 53, 95
3, 420000, Note_on_c, 4, 72, 95
3, 420000, Note_on_c, 4, 67, 95
3, 420000, Note_on_c, 4, 63, 95
3, 420000, Note_on_c, 4, 57, 95
3, 420000, Note_on_c, 4, 53, 95
3, 420480, Note_off_c, 4, 72, 95
3, 420480, Note_off_c, 4, 67, 95
3, 420480, Note_off_c, 4, 63, 95
3, 420480, Note_off_c, 4, 57, 95
3, 420480, Note_off_c, 4, 53, 95
3, 420960, Note_on_c, 4, 72, 95
3, 420960, Note_on_c, 4, 67, 95
3, 420960, Note_on_c, 4, 63, 95
3, 420960, Note_on_c, 4, 57, 95
3, 420960, Note_on_c, 4, 53, 95
3, 421200, Note_off_c, 4, 72, 95
3, 421200, Note_off_c, 4, 67, 95
3, 421200, Note_off_c, 4, 63, 95
3, 421200, Note_off_c, 4, 57, 95
3, 421200, Note_off_c, 4, 53, 95
3, 421200, Note_on_c, 4, 72, 95
3, 421200, Note_on_c, 4, 67, 95
3, 421200, Note_on_c, 4, 63, 95
3, 421200, Note_on_c, 4, 57, 95
3, 421200, Note_on_c, 4, 53, 95
3, 421440, Note_off_c, 4, 72, 95
3, 421440, Note_off_c, 4, 67, 95
3, 421440, Note_off_c, 4, 63, 95
3, 421440, Note_off_c, 4, 57, 95
3, 421440, Note_off_c, 4, 53, 95
3, 421440, Note_on_c, 4, 72, 95
3, 421440, Note_on_c, 4, 67, 95
3, 421440, Note_on_c, 4, 63, 95
3, 421440, Note_on_c, 4, 57, 95
3, 421440, Note_on_c, 4, 53, 95
3, 421680, Note_off_c, 4, 72, 95
3, 421680, Note_off_c, 4, 67, 95
3, 421680, Note_off_c, 4, 63, 95
3, 421680, Note_off_c, 4, 57, 95
3, 421680, Note_off_c, 4, 53, 95
3, 421680, Note_on_c, 4, 72, 95
3, 421680, Note_on_c, 4, 67, 95
3, 421680, Note_on_c, 4, 63, 95
3, 421680, Note_on_c, 4, 57, 95
3, 421680, Note_on_c, 4, 53, 95
3, 421920, Note_off_c, 4, 72, 95
3, 421920, Note_off_c, 4, 67, 95
3, 421920, Note_off_c, 4, 63, 95
3, 421920, Note_off_c, 4, 57, 95
3, 421920, Note_off_c, 4, 53, 95
3, 421920, Note_on_c, 4, 72, 95
3, 421920, Note_on_c, 4, 67, 95
3, 421920, Note_on_c, 4, 63, 95
3, 421920, Note_on_c, 4, 57, 95
3, 421920, Note_on_c, 4, 53, 95
3, 422400, Note_off_c, 4, 72, 95
3, 422400, Note_off_c, 4, 67, 95
3, 422400, Note_off_c, 4, 63, 95
3, 422400, Note_off_c, 4, 57, 95
3, 422400, Note_off_c, 4, 53, 95
3, 422880, Note_on_c, 4, 72, 95
3, 422880, Note_on_c, 4, 67, 95
3, 422880, Note_on_c, 4, 63, 95
3, 422880, Note_on_c, 4, 57, 95
3, 422880, Note_on_c, 4, 53, 95
3, 423120, Note_off_c, 4, 72, 95
3, 423120, Note_off_c, 4, 67, 95
3, 423120, Note_off_c, 4, 63, 95
3, 423120, Note_off_c, 4, 57, 95
3, 423120, Note_off_c, 4, 53, 95
3, 423120, Note_on_c, 4, 72, 95
3, 423120, Note_on_c, 4, 67, 95
3, 423120, Note_on_c, 4, 63, 95
3, 423120, Note_on_c, 4, 57, 95
3, 423120, Note_on_c, 4, 53, 95
3, 423360, Note_off_c, 4, 72, 95
3, 423360, Note_off_c, 4, 67, 95
3, 423360, Note_off_c, 4, 63, 95
3, 423360, Note_off_c, 4, 57, 95
3, 423360, Note_off_c, 4, 53, 95
3, 423360, Note_on_c, 4, 72, 95
3, 423360, Note_on_c, 4, 67, 95
3, 423360, Note_on_c, 4, 63, 95
3, 423360, Note_on_c, 4, 57, 95
3, 423360, Note_on_c, 4, 53, 95
3, 423600, Note_off_c, 4, 72, 95
3, 423600, Note_off_c, 4, 67, 95
3, 423600, Note_off_c, 4, 63, 95
3, 423600, Note_off_c, 4, 57, 95
3, 423600, Note_off_c, 4, 53, 95
3, 423600, Note_on_c, 4, 72, 95
3, 423600, Note_on_c, 4, 67, 95
3, 423600, Note_on_c, 4, 63, 95
3, 423600, Note_on_c, 4, 57, 95
3, 423600, Note_on_c, 4, 53, 95
3, 423840, Note_off_c, 4, 72, 95
3, 423840, Note_off_c, 4, 67, 95
3, 423840, Note_off_c, 4, 63, 95
3, 423840, Note_off_c, 4, 57, 95
3, 423840, Note_off_c, 4, 53, 95
3, 423840, Note_on_c, 4, 72, 95
3, 423840, Note_on_c, 4, 67, 95
3, 423840, Note_on_c, 4, 63, 95
3, 423840, Note_on_c, 4, 57, 95
3, 423840, Note_on_c, 4, 53, 95
3, 424320, Note_off_c, 4, 72, 95
3, 424320, Note_off_c, 4, 67, 95
3, 424320, Note_off_c, 4, 63, 95
3, 424320, Note_off_c, 4, 57, 95
3, 424320, Note_off_c, 4, 53, 95
3, 424800, Note_on_c, 4, 72, 95
3, 424800, Note_on_c, 4, 67, 95
3, 424800, Note_on_c, 4, 63, 95
3, 424800, Note_on_c, 4, 57, 95
3, 424800, Note_on_c, 4, 53, 95
3, 425040, Note_off_c, 4, 72, 95
3, 425040, Note_off_c, 4, 67, 95
3, 425040, Note_off_c, 4, 63, 95
3, 425040, Note_off_c, 4, 57, 95
3, 425040, Note_off_c, 4, 53, 95
3, 425040, Note_on_c, 4, 72, 95
3, 425040, Note_on_c, 4, 67, 95
3, 425040, Note_on_c, 4, 63, 95
3, 425040, Note_on_c, 4, 57, 95
3, 425040, Note_on_c, 4, 53, 95
3, 425280, Note_off_c, 4, 72, 95
3, 425280, Note_off_c, 4, 67, 95
3, 425280, Note_off_c, 4, 63, 95
3, 425280, Note_off_c, 4, 57, 95
3, 425280, Note_off_c, 4, 53, 95
3, 425280, Note_on_c, 4, 72, 95
3, 425280, Note_on_c, 4, 67, 95
3, 425280, Note_on_c, 4, 63, 95
3, 425280, Note_on_c, 4, 57, 95
3, 425280, Note_on_c, 4, 53, 95
3, 425520, Note_off_c, 4, 72, 95
3, 425520, Note_off_c, 4, 67, 95
3, 425520, Note_off_c, 4, 63, 95
3, 425520, Note_off_c, 4, 57, 95
3, 425520, Note_off_c, 4, 53, 95
3, 425520, Note_on_c, 4, 72, 95
3, 425520, Note_on_c, 4, 67, 95
3, 425520, Note_on_c, 4, 63, 95
3, 425520, Note_on_c, 4, 57, 95
3, 425520, Note_on_c, 4, 53, 95
3, 425760, Note_off_c, 4, 72, 95
3, 425760, Note_off_c, 4, 67, 95
3, 425760, Note_off_c, 4, 63, 95
3, 425760, Note_off_c, 4, 57, 95
3, 425760, Note_off_c, 4, 53, 95
3, 425760, Note_on_c, 4, 74, 95
3, 425760, Note_on_c, 4, 69, 95
3, 425760, Note_on_c, 4, 65, 95
3, 425760, Note_on_c, 4, 60, 95
3, 426240, Note_off_c, 4, 74, 95
3, 426240, Note_off_c, 4, 69, 95
3, 426240, Note_off_c, 4, 65, 95
3, 426240, Note_off_c, 4, 60, 95
3, 426720, Note_on_c, 4, 72, 95
3, 426720, Note_on_c, 4, 67, 95
3, 426720, Note_on_c, 4, 63, 95
3, 426720, Note_on_c, 4, 57, 95
3, 426720, Note_on_c, 4, 53, 95
3, 426960, Note_off_c, 4, 72, 95
3, 426960, Note_off_c, 4, 67, 95
3, 426960, Note_off_c, 4, 63, 95
3, 426960, Note_off_c, 4, 57, 95
3, 426960, Note_off_c, 4, 53, 95
3, 426960, Note_on_c, 4, 72, 95
3, 426960, Note_on_c, 4, 67, 95
3, 426960, Note_on_c, 4, 63, 95
3, 426960, Note_on_c, 4, 57, 95
3, 426960, Note_on_c, 4, 53, 95
3, 427200, Note_off_c, 4, 72, 95
3, 427200, Note_off_c, 4, 67, 95
3, 427200, Note_off_c, 4, 63, 95
3, 427200, Note_off_c, 4, 57, 95
3, 427200, Note_off_c, 4, 53, 95
3, 427200, Note_on_c, 4, 72, 95
3, 427200, Note_on_c, 4, 67, 95
3, 427200, Note_on_c, 4, 63, 95
3, 427200, Note_on_c, 4, 57, 95
3, 427200, Note_on_c, 4, 53, 95
3, 427440, Note_off_c, 4, 72, 95
3, 427440, Note_off_c, 4, 67, 95
3, 427440, Note_off_c, 4, 63, 95
3, 427440, Note_off_c, 4, 57, 95
3, 427440, Note_off_c, 4, 53, 95
3, 427440, Note_on_c, 4, 72, 95
3, 427440, Note_on_c, 4, 67, 95
3, 427440, Note_on_c, 4, 63, 95
3, 427440, Note_on_c, 4, 57, 95
3, 427440, Note_on_c, 4, 53, 95
3, 427680, Note_off_c, 4, 72, 95
3, 427680, Note_off_c, 4, 67, 95
3, 427680, Note_off_c, 4, 63, 95
3, 427680, Note_off_c, 4, 57, 95
3, 427680, Note_off_c, 4, 53, 95
3, 427680, Note_on_c, 4, 72, 95
3, 427680, Note_on_c, 4, 67, 95
3, 427680, Note_on_c, 4, 63, 95
3, 427680, Note_on_c, 4, 57, 95
3, 427680, Note_on_c, 4, 53, 95
3, 428160, Note_off_c, 4, 72, 95
3, 428160, Note_off_c, 4, 67, 95
3, 428160, Note_off_c, 4, 63, 95
3, 428160, Note_off_c, 4, 57, 95
3, 428160, Note_off_c, 4, 53, 95
3, 428640, Note_on_c, 4, 72, 95
3, 428640, Note_on_c, 4, 67, 95
3, 428640, Note_on_c, 4, 63, 95
3, 428640, Note_on_c, 4, 57, 95
3, 428640, Note_on_c, 4, 53, 95
3, 428880, Note_off_c, 4, 72, 95
3, 428880, Note_off_c, 4, 67, 95
3, 428880, Note_off_c, 4, 63, 95
3, 428880, Note_off_c, 4, 57, 95
3, 428880, Note_off_c, 4, 53, 95
3, 428880, Note_on_c, 4, 72, 95
3, 428880, Note_on_c, 4, 67, 95
3, 428880, Note_on_c, 4, 63, 95
3, 428880, Note_on_c, 4, 57, 95
3, 428880, Note_on_c, 4, 53, 95
3, 429120, Note_off_c, 4, 72, 95
3, 429120, Note_off_c, 4, 67, 95
3, 429120, Note_off_c, 4, 63, 95
3, 429120, Note_off_c, 4, 57, 95
3, 429120, Note_off_c, 4, 53, 95
3, 429120, Note_on_c, 4, 72, 95
3, 429120, Note_on_c, 4, 67, 95
3, 429120, Note_on_c, 4, 63, 95
3, 429120, Note_on_c, 4, 57, 95
3, 429120, Note_on_c, 4, 53, 95
3, 429360, Note_off_c, 4, 72, 95
3, 429360, Note_off_c, 4, 67, 95
3, 429360, Note_off_c, 4, 63, 95
3, 429360, Note_off_c, 4, 57, 95
3, 429360, Note_off_c, 4, 53, 95
3, 429360, Note_on_c, 4, 72, 95
3, 429360, Note_on_c, 4, 67, 95
3, 429360, Note_on_c, 4, 63, 95
3, 429360, Note_on_c, 4, 57, 95
3, 429360, Note_on_c, 4, 53, 95
3, 429600, Note_off_c, 4, 72, 95
3, 429600, Note_off_c, 4, 67, 95
3, 429600, Note_off_c, 4, 63, 95
3, 429600, Note_off_c, 4, 57, 95
3, 429600, Note_off_c, 4, 53, 95
3, 429600, Note_on_c, 4, 72, 95
3, 429600, Note_on_c, 4, 67, 95
3, 429600, Note_on_c, 4, 63, 95
3, 429600, Note_on_c, 4, 57, 95
3, 429600, Note_on_c, 4, 53, 95
3, 430080, Note_off_c, 4, 72, 95
3, 430080, Note_off_c, 4, 67, 95
3, 430080, Note_off_c, 4, 63, 95
3, 430080, Note_off_c, 4, 57, 95
3, 430080, Note_off_c, 4, 53, 95
3, 430560, Note_on_c, 4, 72, 95
3, 430560, Note_on_c, 4, 67, 95
3, 430560, Note_on_c, 4, 63, 95
3, 430560, Note_on_c, 4, 57, 95
3, 430560, Note_on_c, 4, 53, 95
3, 430800, Note_off_c, 4, 72, 95
3, 430800, Note_off_c, 4, 67, 95
3, 430800, Note_off_c, 4, 63, 95
3, 430800, Note_off_c, 4, 57, 95
3, 430800, Note_off_c, 4, 53, 95
3, 430800, Note_on_c, 4, 72, 95
3, 430800, Note_on_c, 4, 67, 95
3, 430800, Note_on_c, 4, 63, 95
3, 430800, Note_on_c, 4, 57, 95
3, 430800, Note_on_c, 4, 53, 95
3, 431040, Note_off_c, 4, 72, 95
3, 431040, Note_off_c, 4, 67, 95
3, 431040, Note_off_c, 4, 63, 95
3, 431040, Note_off_c, 4, 57, 95
3, 431040, Note_off_c, 4, 53, 95
3, 431040, Note_on_c, 4, 72, 95
3, 431040, Note_on_c, 4, 67, 95
3, 431040, Note_on_c, 4, 63, 95
3, 431040, Note_on_c, 4, 57, 95
3, 431040, Note_on_c, 4, 53, 95
3, 431280, Note_off_c, 4, 72, 95
3, 431280, Note_off_c, 4, 67, 95
3, 431280, Note_off_c, 4, 63, 95
3, 431280, Note_off_c, 4, 57, 95
3, 431280, Note_off_c, 4, 53, 95
3, 431280, Note_on_c, 4, 72, 95
3, 431280, Note_on_c, 4, 67, 95
3, 431280, Note_on_c, 4, 63, 95
3, 431280, Note_on_c, 4, 57, 95
3, 431280, Note_on_c, 4, 53, 95
3, 431520, Note_off_c, 4, 72, 95
3, 431520, Note_off_c, 4, 67, 95
3, 431520, Note_off_c, 4, 63, 95
3, 431520, Note_off_c, 4, 57, 95
3, 431520, Note_off_c, 4, 53, 95
3, 431520, Note_on_c, 4, 72, 95
3, 431520, Note_on_c, 4, 67, 95
3, 431520, Note_on_c, 4, 63, 95
3, 431520, Note_on_c, 4, 57, 95
3, 431520, Note_on_c, 4, 53, 95
3, 432000, Note_off_c, 4, 72, 95
3, 432000, Note_off_c, 4, 67, 95
3, 432000, Note_off_c, 4, 63, 95
3, 432000, Note_off_c, 4, 57, 95
3, 432000, Note_off_c, 4, 53, 95
3, 432480, Note_on_c, 4, 72, 95
3, 432480, Note_on_c, 4, 67, 95
3, 432480, Note_on_c, 4, 63, 95
3, 432480, Note_on_c, 4, 57, 95
3, 432480, Note_on_c, 4, 53, 95
3, 432720, Note_off_c, 4, 72, 95
3, 432720, Note_off_c, 4, 67, 95
3, 432720, Note_off_c, 4, 63, 95
3, 432720, Note_off_c, 4, 57, 95
3, 432720, Note_off_c, 4, 53, 95
3, 432720, Note_on_c, 4, 72, 95
3, 432720, Note_on_c, 4, 67, 95
3, 432720, Note_on_c, 4, 63, 95
3, 432720, Note_on_c, 4, 57, 95
3, 432720, Note_on_c, 4, 53, 95
3, 432960, Note_off_c, 4, 72, 95
3, 432960, Note_off_c, 4, 67, 95
3, 432960, Note_off_c, 4, 63, 95
3, 432960, Note_off_c, 4, 57, 95
3, 432960, Note_off_c, 4, 53, 95
3, 432960, Note_on_c, 4, 72, 95
3, 432960, Note_on_c, 4, 67, 95
3, 432960, Note_on_c, 4, 63, 95
3, 432960, Note_on_c, 4, 57, 95
3, 432960, Note_on_c, 4, 53, 95
3, 433200, Note_off_c, 4, 72, 95
3, 433200, Note_off_c, 4, 67, 95
3, 433200, Note_off_c, 4, 63, 95
3, 433200, Note_off_c, 4, 57, 95
3, 433200, Note_off_c, 4, 53, 95
3, 433200, Note_on_c, 4, 72, 95
3, 433200, Note_on_c, 4, 67, 95
3, 433200, Note_on_c, 4, 63, 95
3, 433200, Note_on_c, 4, 57, 95
3, 433200, Note_on_c, 4, 53, 95
3, 433440, Note_off_c, 4, 72, 95
3, 433440, Note_off_c, 4, 67, 95
3, 433440, Note_off_c, 4, 63, 95
3, 433440, Note_off_c, 4, 57, 95
3, 433440, Note_off_c, 4, 53, 95
3, 433440, Note_on_c, 4, 74, 95
3, 433440, Note_on_c, 4, 69, 95
3, 433440, Note_on_c, 4, 65, 95
3, 433440, Note_on_c, 4, 60, 95
3, 433920, Note_off_c, 4, 74, 95
3, 433920, Note_off_c, 4, 69, 95
3, 433920, Note_off_c, 4, 65, 95
3, 433920, Note_off_c, 4, 60, 95
3, 434400, Note_on_c, 4, 72, 95
3, 434400, Note_on_c, 4, 67, 95
3, 434400, Note_on_c, 4, 63, 95
3, 434400, Note_on_c, 4, 57, 95
3, 434400, Note_on_c, 4, 53, 95
3, 434640, Note_off_c, 4, 72, 95
3, 434640, Note_off_c, 4, 67, 95
3, 434640, Note_off_c, 4, 63, 95
3, 434640, Note_off_c, 4, 57, 95
3, 434640, Note_off_c, 4, 53, 95
3, 434640, Note_on_c, 4, 72, 95
3, 434640, Note_on_c, 4, 67, 95
3, 434640, Note_on_c, 4, 63, 95
3, 434640, Note_on_c, 4, 57, 95
3, 434640, Note_on_c, 4, 53, 95
3, 434880, Note_off_c, 4, 72, 95
3, 434880, Note_off_c, 4, 67, 95
3, 434880, Note_off_c, 4, 63, 95
3, 434880, Note_off_c, 4, 57, 95
3, 434880, Note_off_c, 4, 53, 95
3, 434880, Note_on_c, 4, 72, 95
3, 434880, Note_on_c, 4, 67, 95
3, 434880, Note_on_c, 4, 63, 95
3, 434880, Note_on_c, 4, 57, 95
3, 434880, Note_on_c, 4, 53, 95
3, 435120, Note_off_c, 4, 72, 95
3, 435120, Note_off_c, 4, 67, 95
3, 435120, Note_off_c, 4, 63, 95
3, 435120, Note_off_c, 4, 57, 95
3, 435120, Note_off_c, 4, 53, 95
3, 435120, Note_on_c, 4, 72, 95
3, 435120, Note_on_c, 4, 67, 95
3, 435120, Note_on_c, 4, 63, 95
3, 435120, Note_on_c, 4, 57, 95
3, 435120, Note_on_c, 4, 53, 95
3, 435360, Note_off_c, 4, 72, 95
3, 435360, Note_off_c, 4, 67, 95
3, 435360, Note_off_c, 4, 63, 95
3, 435360, Note_off_c, 4, 57, 95
3, 435360, Note_off_c, 4, 53, 95
3, 435360, Note_on_c, 4, 72, 95
3, 435360, Note_on_c, 4, 67, 95
3, 435360, Note_on_c, 4, 63, 95
3, 435360, Note_on_c, 4, 57, 95
3, 435360, Note_on_c, 4, 53, 95
3, 435840, Note_off_c, 4, 72, 95
3, 435840, Note_off_c, 4, 67, 95
3, 435840, Note_off_c, 4, 63, 95
3, 435840, Note_off_c, 4, 57, 95
3, 435840, Note_off_c, 4, 53, 95
3, 436320, Note_on_c, 4, 72, 95
3, 436320, Note_on_c, 4, 67, 95
3, 436320, Note_on_c, 4, 63, 95
3, 436320, Note_on_c, 4, 57, 95
3, 436320, Note_on_c, 4, 53, 95
3, 436560, Note_off_c, 4, 72, 95
3, 436560, Note_off_c, 4, 67, 95
3, 436560, Note_off_c, 4, 63, 95
3, 436560, Note_off_c, 4, 57, 95
3, 436560, Note_off_c, 4, 53, 95
3, 436560, Note_on_c, 4, 72, 95
3, 436560, Note_on_c, 4, 67, 95
3, 436560, Note_on_c, 4, 63, 95
3, 436560, Note_on_c, 4, 57, 95
3, 436560, Note_on_c, 4, 53, 95
3, 436800, Note_off_c, 4, 72, 95
3, 436800, Note_off_c, 4, 67, 95
3, 436800, Note_off_c, 4, 63, 95
3, 436800, Note_off_c, 4, 57, 95
3, 436800, Note_off_c, 4, 53, 95
3, 436800, Note_on_c, 4, 72, 95
3, 436800, Note_on_c, 4, 67, 95
3, 436800, Note_on_c, 4, 63, 95
3, 436800, Note_on_c, 4, 57, 95
3, 436800, Note_on_c, 4, 53, 95
3, 437040, Note_off_c, 4, 72, 95
3, 437040, Note_off_c, 4, 67, 95
3, 437040, Note_off_c, 4, 63, 95
3, 437040, Note_off_c, 4, 57, 95
3, 437040, Note_off_c, 4, 53, 95
3, 437040, Note_on_c, 4, 72, 95
3, 437040, Note_on_c, 4, 67, 95
3, 437040, Note_on_c, 4, 63, 95
3, 437040, Note_on_c, 4, 57, 95
3, 437040, Note_on_c, 4, 53, 95
3, 437280, Note_off_c, 4, 72, 95
3, 437280, Note_off_c, 4, 67, 95
3, 437280, Note_off_c, 4, 63, 95
3, 437280, Note_off_c, 4, 57, 95
3, 437280, Note_off_c, 4, 53, 95
3, 437280, Note_on_c, 4, 72, 95
3, 437280, Note_on_c, 4, 67, 95
3, 437280, Note_on_c, 4, 63, 95
3, 437280, Note_on_c, 4, 57, 95
3, 437280, Note_on_c, 4, 53, 95
3, 437760, Note_off_c, 4, 72, 95
3, 437760, Note_off_c, 4, 67, 95
3, 437760, Note_off_c, 4, 63, 95
3, 437760, Note_off_c, 4, 57, 95
3, 437760, Note_off_c, 4, 53, 95
3, 438240, Note_on_c, 4, 72, 95
3, 438240, Note_on_c, 4, 67, 95
3, 438240, Note_on_c, 4, 63, 95
3, 438240, Note_on_c, 4, 57, 95
3, 438240, Note_on_c, 4, 53, 95
3, 438480, Note_off_c, 4, 72, 95
3, 438480, Note_off_c, 4, 67, 95
3, 438480, Note_off_c, 4, 63, 95
3, 438480, Note_off_c, 4, 57, 95
3, 438480, Note_off_c, 4, 53, 95
3, 438480, Note_on_c, 4, 72, 95
3, 438480, Note_on_c, 4, 67, 95
3, 438480, Note_on_c, 4, 63, 95
3, 438480, Note_on_c, 4, 57, 95
3, 438480, Note_on_c, 4, 53, 95
3, 438720, Note_off_c, 4, 72, 95
3, 438720, Note_off_c, 4, 67, 95
3, 438720, Note_off_c, 4, 63, 95
3, 438720, Note_off_c, 4, 57, 95
3, 438720, Note_off_c, 4, 53, 95
3, 438720, Note_on_c, 4, 72, 95
3, 438720, Note_on_c, 4, 67, 95
3, 438720, Note_on_c, 4, 63, 95
3, 438720, Note_on_c, 4, 57, 95
3, 438720, Note_on_c, 4, 53, 95
3, 439200, Note_off_c, 4, 72, 95
3, 439200, Note_off_c, 4, 67, 95
3, 439200, Note_off_c, 4, 63, 95
3, 439200, Note_off_c, 4, 57, 95
3, 439200, Note_off_c, 4, 53, 95
3, 439200, Note_on_c, 4, 72, 95
3, 439200, Note_on_c, 4, 67, 95
3, 439200, Note_on_c, 4, 63, 95
3, 439200, Note_on_c, 4, 57, 95
3, 439200, Note_on_c, 4, 53, 95
3, 439680, Note_off_c, 4, 72, 95
3, 439680, Note_off_c, 4, 67, 95
3, 439680, Note_off_c, 4, 63, 95
3, 439680, Note_off_c, 4, 57, 95
3, 439680, Note_off_c, 4, 53, 95
3, 440160, Note_on_c, 4, 72, 95
3, 440160, Note_on_c, 4, 67, 95
3, 440160, Note_on_c, 4, 63, 95
3, 440160, Note_on_c, 4, 57, 95
3, 440160, Note_on_c, 4, 53, 95
3, 440400, Note_off_c, 4, 72, 95
3, 440400, Note_off_c, 4, 67, 95
3, 440400, Note_off_c, 4, 63, 95
3, 440400, Note_off_c, 4, 57, 95
3, 440400, Note_off_c, 4, 53, 95
3, 440400, Note_on_c, 4, 72, 95
3, 440400, Note_on_c, 4, 67, 95
3, 440400, Note_on_c, 4, 63, 95
3, 440400, Note_on_c, 4, 57, 95
3, 440400, Note_on_c, 4, 53, 95
3, 440640, Note_off_c, 4, 72, 95
3, 440640, Note_off_c, 4, 67, 95
3, 440640, Note_off_c, 4, 63, 95
3, 440640, Note_off_c, 4, 57, 95
3, 440640, Note_off_c, 4, 53, 95
3, 440640, Note_on_c, 4, 72, 95
3, 440640, Note_on_c, 4, 67, 95
3, 440640, Note_on_c, 4, 63, 95
3, 440640, Note_on_c, 4, 57, 95
3, 440640, Note_on_c, 4, 53, 95
3, 441120, Note_off_c, 4, 72, 95
3, 441120, Note_off_c, 4, 67, 95
3, 441120, Note_off_c, 4, 63, 95
3, 441120, Note_off_c, 4, 57, 95
3, 441120, Note_off_c, 4, 53, 95
3, 441120, Note_on_c, 4, 74, 95
3, 441120, Note_on_c, 4, 69, 95
3, 441120, Note_on_c, 4, 65, 95
3, 441120, Note_on_c, 4, 60, 95
3, 441600, Note_off_c, 4, 74, 95
3, 441600, Note_off_c, 4, 69, 95
3, 441600, Note_off_c, 4, 65, 95
3, 441600, Note_off_c, 4, 60, 95
3, 442080, Note_on_c, 4, 74, 95
3, 442080, Note_on_c, 4, 69, 95
3, 442080, Note_on_c, 4, 65, 95
3, 442080, Note_on_c, 4, 60, 95
3, 442320, Note_off_c, 4, 74, 95
3, 442320, Note_off_c, 4, 69, 95
3, 442320, Note_off_c, 4, 65, 95
3, 442320, Note_off_c, 4, 60, 95
3, 442320, Note_on_c, 4, 74, 95
3, 442320, Note_on_c, 4, 69, 95
3, 442320, Note_on_c, 4, 65, 95
3, 442320, Note_on_c, 4, 60, 95
3, 442560, Note_off_c, 4, 74, 95
3, 442560, Note_off_c, 4, 69, 95
3, 442560, Note_off_c, 4, 65, 95
3, 442560, Note_off_c, 4, 60, 95
3, 442560, Note_on_c, 4, 62, 31
3, 442560, Note_on_c, 4, 74, 95
3, 442560, Note_on_c, 4, 57, 31
3, 442560, Note_on_c, 4, 69, 95
3, 442560, Note_on_c, 4, 53, 31
3, 442560, Note_on_c, 4, 65, 95
3, 442560, Note_on_c, 4, 48, 31
3, 442560, Note_on_c, 4, 60, 95
3, 449280, Note_off_c, 4, 62, 31
3, 449280, Note_off_c, 4, 74, 95
3, 449280, Note_off_c, 4, 57, 31
3, 449280, Note_off_c, 4, 69, 95
3, 449280, Note_off_c, 4, 53, 31
3, 449280, Note_off_c, 4, 65, 95
3, 449280, Note_off_c, 4, 48, 31
3, 449280, Note_off_c, 4, 60, 95
3, 450240, Note_on_c, 4, 72, 95
3, 450240, Note_on_c, 4, 67, 95
3, 450240, Note_on_c, 4, 63, 95
3, 450240, Note_on_c, 4, 60, 95
3, 456960, Note_off_c, 4, 72, 95
3, 456960, Note_off_c, 4, 67, 95
3, 456960, Note_off_c, 4, 63, 95
3, 456960, Note_off_c, 4, 60, 95
3, 457920, Note_on_c, 4, 74, 95
3, 457920, Note_on_c, 4, 69, 95
3, 457920, Note_on_c, 4, 65, 95
3, 457920, Note_on_c, 4, 60, 95
3, 464640, Note_off_c, 4, 74, 95
3, 464640, Note_off_c, 4, 69, 95
3, 464640, Note_off_c, 4, 65, 95
3, 464640, Note_off_c, 4, 60, 95
3, 465600, Note_on_c, 4, 72, 95
3, 465600, Note_on_c, 4, 67, 95
3, 465600, Note_on_c, 4, 63, 95
3, 465600, Note_on_c, 4, 60, 95
3, 472320, Note_off_c, 4, 72, 95
3, 472320, Note_off_c, 4, 67, 95
3, 472320, Note_off_c, 4, 63, 95
3, 472320, Note_off_c, 4, 60, 95
3, 473280, Note_on_c, 4, 74, 95
3, 473280, Note_on_c, 4, 69, 95
3, 473280, Note_on_c, 4, 65, 95
3, 473280, Note_on_c, 4, 60, 95
3, 480000, Note_off_c, 4, 74, 95
3, 480000, Note_off_c, 4, 69, 95
3, 480000, Note_off_c, 4, 65, 95
3, 480000, Note_off_c, 4, 60, 95
3, 480960, Note_on_c, 4, 72, 95
3, 480960, Note_on_c, 4, 67, 95
3, 480960, Note_on_c, 4, 63, 95
3, 480960, Note_on_c, 4, 60, 95
3, 487680, Note_off_c, 4, 72, 95
3, 487680, Note_off_c, 4, 67, 95
3, 487680, Note_off_c, 4, 63, 95
3, 487680, Note_off_c, 4, 60, 95
3, 487680, End_track
4, 0, Start_track
4, 0, Pitch_bend_c, 2, 8192
4, 0, Control_c, 2, 7, 103
4, 0, Control_c, 2, 10, 63
4, 0, Control_c, 2, 93, 0
4, 0, Control_c, 2, 91, 0
4, 0, Control_c, 2, 95, 0
4, 0, Control_c, 2, 92, 0
4, 0, Control_c, 2, 11, 127
4, 0, Program_c, 2, 33
4, 0, Control_c, 3, 7, 103
4, 0, Control_c, 3, 10, 63
4, 0, Control_c, 3, 93, 0
4, 0, Control_c, 3, 91, 0
4, 0, Control_c, 3, 95, 0
4, 0, Control_c, 3, 92, 0
4, 0, Control_c, 3, 11, 127
4, 0, Program_c, 3, 33
4, 3360, Note_on_c, 2, 29, 95
4, 3840, Note_off_c, 2, 29, 95
4, 3840, Note_on_c, 2, 29, 95
4, 4800, Note_off_c, 2, 29, 95
4, 4800, Note_on_c, 2, 41, 95
4, 7200, Note_off_c, 2, 41, 95
4, 7200, Note_on_c, 2, 40, 95
4, 7680, Note_off_c, 2, 40, 95
4, 7680, Note_on_c, 2, 40, 95
4, 9120, Note_off_c, 2, 40, 95
4, 9120, Note_on_c, 2, 36, 95
4, 10080, Note_off_c, 2, 36, 95
4, 10080, Note_on_c, 2, 35, 95
4, 11040, Note_off_c, 2, 35, 95
4, 11040, Note_on_c, 2, 36, 95
4, 11520, Note_off_c, 2, 36, 95
4, 11520, Note_on_c, 2, 29, 95
4, 12480, Note_off_c, 2, 29, 95
4, 12480, Note_on_c, 2, 41, 95
4, 14880, Note_off_c, 2, 41, 95
4, 14880, Note_on_c, 2, 40, 95
4, 15360, Note_off_c, 2, 40, 95
4, 15360, Note_on_c, 2, 40, 95
4, 16800, Note_off_c, 2, 40, 95
4, 16800, Note_on_c, 2, 36, 95
4, 17760, Note_off_c, 2, 36, 95
4, 17760, Note_on_c, 2, 35, 95
4, 18720, Note_off_c, 2, 35, 95
4, 18720, Note_on_c, 2, 36, 95
4, 19200, Note_off_c, 2, 36, 95
4, 19200, Note_on_c, 2, 29, 95
4, 20160, Note_off_c, 2, 29, 95
4, 20160, Note_on_c, 2, 41, 95
4, 22560, Note_off_c, 2, 41, 95
4, 22560, Note_on_c, 2, 40, 95
4, 23040, Note_off_c, 2, 40, 95
4, 23040, Note_on_c, 2, 40, 95
4, 24480, Note_off_c, 2, 40, 95
4, 24480, Note_on_c, 2, 36, 95
4, 25440, Note_off_c, 2, 36, 95
4, 25440, Note_on_c, 2, 35, 95
4, 26400, Note_off_c, 2, 35, 95
4, 26400, Note_on_c, 2, 36, 95
4, 26880, Note_off_c, 2, 36, 95
4, 26880, Note_on_c, 2, 29, 95
4, 27840, Note_off_c, 2, 29, 95
4, 27840, Note_on_c, 2, 41, 95
4, 30240, Note_off_c, 2, 41, 95
4, 30240, Note_on_c, 2, 40, 95
4, 30720, Note_off_c, 2, 40, 95
4, 30720, Note_on_c, 2, 40, 95
4, 32160, Note_off_c, 2, 40, 95
4, 32160, Note_on_c, 2, 36, 95
4, 33120, Note_off_c, 2, 36, 95
4, 33120, Note_on_c, 2, 35, 95
4, 34080, Note_off_c, 2, 35, 95
4, 34080, Note_on_c, 2, 36, 95
4, 34560, Note_off_c, 2, 36, 95
4, 211200, Note_on_c, 2, 35, 95
4, 212640, Note_off_c, 2, 35, 95
4, 212640, Note_on_c, 2, 38, 95
4, 214080, Note_off_c, 2, 38, 95
4, 214080, Note_on_c, 2, 41, 95
4, 215040, Note_off_c, 2, 41, 95
4, 215880, Note_on_c, 3, 46, 95
4, 216000, Note_off_c, 3, 46, 95
4, 216000, Note_on_c, 3, 48, 95
4, 218880, Note_off_c, 3, 48, 95
4, 220320, Note_on_c, 2, 47, 95
4, 221280, Note_off_c, 2, 47, 95
4, 221280, Note_on_c, 2, 45, 95
4, 222240, Note_off_c, 2, 45, 95
4, 222240, Note_on_c, 2, 41, 95
4, 223200, Note_off_c, 2, 41, 95
4, 223200, Note_on_c, 2, 38, 95
4, 223680, Note_off_c, 2, 38, 95
4, 223680, Note_on_c, 2, 40, 95
4, 224640, Note_off_c, 2, 40, 95
4, 224640, Note_on_c, 2, 36, 95
4, 225120, Note_off_c, 2, 36, 95
4, 225120, Note_on_c, 2, 35, 95
4, 225600, Note_off_c, 2, 35, 95
4, 225600, Note_on_c, 2, 36, 95
4, 226560, Note_off_c, 2, 36, 95
4, 226560, Note_on_c, 2, 35, 95
4, 228000, Note_off_c, 2, 35, 95
4, 228000, Note_on_c, 2, 38, 95
4, 229440, Note_off_c, 2, 38, 95
4, 229440, Note_on_c, 2, 41, 95
4, 230400, Note_off_c, 2, 41, 95
4, 231240, Note_on_c, 3, 46, 95
4, 231360, Note_off_c, 3, 46, 95
4, 231360, Note_on_c, 3, 48, 95
4, 234240, Note_off_c, 3, 48, 95
4, 235680, Note_on_c, 2, 47, 95
4, 236640, Note_off_c, 2, 47, 95
4, 236640, Note_on_c, 2, 45, 95
4, 237600, Note_off_c, 2, 45, 95
4, 237600, Note_on_c, 2, 41, 95
4, 238560, Note_off_c, 2, 41, 95
4, 238560, Note_on_c, 2, 38, 95
4, 239040, Note_off_c, 2, 38, 95
4, 239040, Note_on_c, 2, 40, 95
4, 240000, Note_off_c, 2, 40, 95
4, 240000, Note_on_c, 2, 36, 95
4, 240480, Note_off_c, 2, 36, 95
4, 240480, Note_on_c, 2, 35, 95
4, 240960, Note_off_c, 2, 35, 95
4, 240960, Note_on_c, 2, 36, 95
4, 241920, Note_off_c, 2, 36, 95
4, 241920, Note_on_c, 2, 35, 95
4, 243360, Note_off_c, 2, 35, 95
4, 243360, Note_on_c, 2, 38, 95
4, 244800, Note_off_c, 2, 38, 95
4, 244800, Note_on_c, 2, 41, 95
4, 245760, Note_off_c, 2, 41, 95
4, 246600, Note_on_c, 3, 46, 95
4, 246720, Note_off_c, 3, 46, 95
4, 246720, Note_on_c, 3, 48, 95
4, 249600, Note_off_c, 3, 48, 95
4, 251040, Note_on_c, 2, 47, 95
4, 252000, Note_off_c, 2, 47, 95
4, 252000, Note_on_c, 2, 45, 95
4, 252960, Note_off_c, 2, 45, 95
4, 252960, Note_on_c, 2, 41, 95
4, 253920, Note_off_c, 2, 41, 95
4, 253920, Note_on_c, 2, 38, 95
4, 254400, Note_off_c, 2, 38, 95
4, 254400, Note_on_c, 2, 40, 95
4, 255360, Note_off_c, 2, 40, 95
4, 255360, Note_on_c, 2, 36, 95
4, 255840, Note_off_c, 2, 36, 95
4, 255840, Note_on_c, 2, 35, 95
4, 256320, Note_off_c, 2, 35, 95
4, 256320, Note_on_c, 2, 36, 95
4, 257280, Note_off_c, 2, 36, 95
4, 257280, Note_on_c, 2, 35, 95
4, 258720, Note_off_c, 2, 35, 95
4, 258720, Note_on_c, 2, 38, 95
4, 260160, Note_off_c, 2, 38, 95
4, 260160, Note_on_c, 2, 41, 95
4, 261120, Note_off_c, 2, 41, 95
4, 261960, Note_on_c, 3, 46, 95
4, 262080, Note_off_c, 3, 46, 95
4, 262080, Note_on_c, 3, 48, 95
4, 264960, Note_off_c, 3, 48, 95
4, 266400, Note_on_c, 2, 47, 95
4, 267360, Note_off_c, 2, 47, 95
4, 267360, Note_on_c, 2, 45, 95
4, 268320, Note_off_c, 2, 45, 95
4, 268320, Note_on_c, 2, 41, 95
4, 269280, Note_off_c, 2, 41, 95
4, 269280, Note_on_c, 2, 38, 95
4, 269760, Note_off_c, 2, 38, 95
4, 269760, Note_on_c, 2, 40, 95
4, 270720, Note_off_c, 2, 40, 95
4, 270720, Note_on_c, 2, 36, 95
4, 271200, Note_off_c, 2, 36, 95
4, 271200, Note_on_c, 2, 35, 95
4, 271680, Note_off_c, 2, 35, 95
4, 271680, Note_on_c, 2, 36, 95
4, 272640, Note_off_c, 2, 36, 95
4, 272640, End_track
0, 0, End_of_file
