0, 0, Header, 1, 17, 384
1, 0, Start_track
1, 0, Time_signature, 12, 3, 96, 8
1, 0, Sequencer_specific, 3, 0, 0, 65
1, 0, Tempo, 500000
1, 9216, Time_signature, 4, 2, 96, 8
1, 9216, Tempo, 500000
1, 130560, Time_signature, 12, 3, 96, 8
1, 130560, Tempo, 500000
1, 130560, End_track
2, 0, Start_track
2, 0, Title_t, "Vocals/Flute"
2, 0, Control_c, 0, 0, 0
2, 0, Program_c, 0, 0
2, 0, Key_signature, -2, "minor"
2, 9408, Note_on_c, 0, 74, 127
2, 9560, Note_off_c, 0, 74, 99
2, 9600, Note_on_c, 0, 72, 127
2, 9752, Note_off_c, 0, 72, 99
2, 9792, Note_on_c, 0, 70, 127
2, 9984, Note_on_c, 0, 72, 127
2, 10288, Note_off_c, 0, 72, 99
2, 10368, Note_on_c, 0, 74, 127
2, 10520, Note_off_c, 0, 74, 99
2, 10560, Note_on_c, 0, 72, 127
2, 10752, Note_off_c, 0, 70, 99
2, 10944, Note_on_c, 0, 70, 127
2, 11328, Note_off_c, 0, 70, 99
2, 12288, Note_off_c, 0, 72, 99
2, 12480, Note_on_c, 0, 74, 127
2, 12608, Note_off_c, 0, 74, 99
2, 12672, Note_on_c, 0, 72, 127
2, 12800, Note_off_c, 0, 72, 99
2, 12864, Note_on_c, 0, 70, 127
2, 12992, Note_off_c, 0, 70, 99
2, 13056, Note_on_c, 0, 72, 127
2, 13184, Note_off_c, 0, 72, 99
2, 13248, Note_on_c, 0, 70, 127
2, 13504, Note_off_c, 0, 70, 99
2, 13632, Note_on_c, 0, 67, 127
2, 13760, Note_off_c, 0, 67, 99
2, 13824, Note_on_c, 0, 70, 127
2, 13952, Note_off_c, 0, 70, 99
2, 14016, Note_on_c, 0, 72, 127
2, 14144, Note_off_c, 0, 72, 99
2, 14208, Note_on_c, 0, 74, 127
2, 14336, Note_off_c, 0, 74, 99
2, 14400, Note_on_c, 0, 75, 127
2, 14656, Note_off_c, 0, 75, 99
2, 14784, Note_on_c, 0, 74, 127
2, 14912, Note_off_c, 0, 74, 99
2, 14976, Note_on_c, 0, 72, 127
2, 15168, Note_on_c, 0, 74, 127
2, 15360, Note_off_c, 0, 72, 99
2, 15488, Note_off_c, 0, 74, 99
2, 15552, Note_on_c, 0, 72, 127
2, 15680, Note_off_c, 0, 72, 99
2, 15744, Note_on_c, 0, 70, 127
2, 15872, Note_off_c, 0, 70, 99
2, 15936, Note_on_c, 0, 74, 127
2, 16064, Note_off_c, 0, 74, 99
2, 16128, Note_on_c, 0, 72, 127
2, 16384, Note_off_c, 0, 72, 99
2, 16512, Note_on_c, 0, 74, 127
2, 16640, Note_off_c, 0, 74, 99
2, 16704, Note_on_c, 0, 72, 127
2, 16832, Note_off_c, 0, 72, 99
2, 16896, Note_on_c, 0, 72, 127
2, 16960, Note_off_c, 0, 72, 99
2, 16992, Note_on_c, 0, 74, 127
2, 17056, Note_off_c, 0, 74, 99
2, 17088, Note_on_c, 0, 72, 127
2, 17216, Note_off_c, 0, 72, 99
2, 17280, Note_on_c, 0, 70, 127
2, 17536, Note_off_c, 0, 70, 99
2, 18048, Note_on_c, 0, 65, 127
2, 18176, Note_off_c, 0, 65, 99
2, 18240, Note_on_c, 0, 65, 127
2, 18368, Note_off_c, 0, 65, 99
2, 18432, Note_on_c, 0, 74, 127
2, 18560, Note_off_c, 0, 74, 99
2, 18624, Note_on_c, 0, 72, 127
2, 18752, Note_off_c, 0, 72, 99
2, 18816, Note_on_c, 0, 72, 127
2, 18944, Note_off_c, 0, 72, 99
2, 19008, Note_on_c, 0, 70, 127
2, 19392, Note_off_c, 0, 70, 99
2, 19776, Note_on_c, 0, 67, 127
2, 19904, Note_off_c, 0, 67, 99
2, 19968, Note_on_c, 0, 70, 127
2, 20096, Note_off_c, 0, 70, 99
2, 20160, Note_on_c, 0, 72, 127
2, 20288, Note_off_c, 0, 72, 99
2, 20352, Note_on_c, 0, 74, 127
2, 20480, Note_off_c, 0, 74, 99
2, 20544, Note_on_c, 0, 75, 127
2, 20800, Note_off_c, 0, 75, 99
2, 20928, Note_on_c, 0, 75, 127
2, 21056, Note_off_c, 0, 75, 99
2, 21120, Note_on_c, 0, 74, 127
2, 21248, Note_off_c, 0, 74, 99
2, 21312, Note_on_c, 0, 74, 127
2, 21632, Note_off_c, 0, 74, 99
2, 21696, Note_on_c, 0, 72, 127
2, 21824, Note_off_c, 0, 72, 99
2, 21888, Note_on_c, 0, 72, 127
2, 22016, Note_off_c, 0, 72, 99
2, 22080, Note_on_c, 0, 75, 127
2, 22464, Note_off_c, 0, 75, 99
2, 22656, Note_on_c, 0, 75, 127
2, 22784, Note_off_c, 0, 75, 99
2, 22848, Note_on_c, 0, 77, 127
2, 22976, Note_off_c, 0, 77, 99
2, 23040, Note_on_c, 0, 74, 127
2, 23168, Note_off_c, 0, 74, 99
2, 23232, Note_on_c, 0, 72, 127
2, 23360, Note_off_c, 0, 72, 99
2, 24000, Note_on_c, 0, 70, 127
2, 24128, Note_off_c, 0, 70, 99
2, 24192, Note_on_c, 0, 72, 127
2, 24320, Note_off_c, 0, 72, 99
2, 24384, Note_on_c, 0, 74, 127
2, 24704, Note_off_c, 0, 74, 99
2, 24768, Note_on_c, 0, 74, 127
2, 24896, Note_off_c, 0, 74, 99
2, 24960, Note_on_c, 0, 74, 127
2, 25088, Note_off_c, 0, 74, 99
2, 25152, Note_on_c, 0, 74, 127
2, 25280, Note_off_c, 0, 74, 99
2, 25344, Note_on_c, 0, 72, 127
2, 25472, Note_off_c, 0, 72, 99
2, 25536, Note_on_c, 0, 70, 127
2, 25664, Note_off_c, 0, 70, 99
2, 25728, Note_on_c, 0, 74, 127
2, 25856, Note_off_c, 0, 74, 99
2, 25920, Note_on_c, 0, 72, 127
2, 26176, Note_off_c, 0, 72, 99
2, 26208, Note_on_c, 0, 70, 127
2, 26272, Note_off_c, 0, 70, 99
2, 26304, Note_on_c, 0, 67, 127
2, 26432, Note_off_c, 0, 67, 99
2, 27264, Note_on_c, 0, 67, 127
2, 27392, Note_off_c, 0, 67, 99
2, 27456, Note_on_c, 0, 70, 127
2, 27584, Note_off_c, 0, 70, 99
2, 27648, Note_on_c, 0, 72, 127
2, 27904, Note_off_c, 0, 72, 99
2, 28032, Note_on_c, 0, 72, 127
2, 28160, Note_off_c, 0, 72, 99
2, 28224, Note_on_c, 0, 72, 127
2, 28352, Note_off_c, 0, 72, 99
2, 28416, Note_on_c, 0, 75, 127
2, 28544, Note_off_c, 0, 75, 99
2, 28608, Note_on_c, 0, 75, 127
2, 28736, Note_off_c, 0, 75, 99
2, 28800, Note_on_c, 0, 77, 127
2, 28928, Note_off_c, 0, 77, 99
2, 28992, Note_on_c, 0, 74, 127
2, 29248, Note_off_c, 0, 74, 99
2, 29280, Note_on_c, 0, 75, 127
2, 29344, Note_off_c, 0, 75, 99
2, 29376, Note_on_c, 0, 74, 127
2, 29504, Note_off_c, 0, 74, 99
2, 29568, Note_on_c, 0, 72, 127
2, 29824, Note_off_c, 0, 72, 99
2, 30144, Note_on_c, 0, 70, 127
2, 30272, Note_off_c, 0, 70, 99
2, 30336, Note_on_c, 0, 70, 127
2, 30464, Note_off_c, 0, 70, 99
2, 30528, Note_on_c, 0, 72, 127
2, 30656, Note_off_c, 0, 72, 99
2, 30720, Note_on_c, 0, 74, 127
2, 30848, Note_off_c, 0, 74, 99
2, 30912, Note_on_c, 0, 74, 127
2, 31040, Note_off_c, 0, 74, 99
2, 31104, Note_on_c, 0, 74, 127
2, 31232, Note_off_c, 0, 74, 99
2, 31296, Note_on_c, 0, 74, 127
2, 31424, Note_off_c, 0, 74, 99
2, 31488, Note_on_c, 0, 74, 127
2, 31616, Note_off_c, 0, 74, 99
2, 31680, Note_on_c, 0, 72, 127
2, 31808, Note_off_c, 0, 72, 99
2, 31872, Note_on_c, 0, 70, 127
2, 32000, Note_off_c, 0, 70, 99
2, 32064, Note_on_c, 0, 74, 127
2, 32384, Note_off_c, 0, 74, 99
2, 32448, Note_on_c, 0, 74, 127
2, 32576, Note_off_c, 0, 74, 99
2, 32640, Note_on_c, 0, 78, 127
2, 32896, Note_off_c, 0, 78, 99
2, 33216, Note_on_c, 0, 74, 127
2, 33344, Note_off_c, 0, 74, 99
2, 33408, Note_on_c, 0, 72, 127
2, 33536, Note_off_c, 0, 72, 99
2, 33600, Note_on_c, 0, 70, 127
2, 33792, Note_off_c, 0, 70, 99
2, 33792, Note_on_c, 0, 70, 112
2, 34048, Note_off_c, 0, 70, 71
2, 34176, Note_on_c, 0, 74, 112
2, 34304, Note_off_c, 0, 74, 71
2, 34368, Note_on_c, 0, 70, 112
2, 34496, Note_off_c, 0, 70, 71
2, 34560, Note_on_c, 0, 72, 112
2, 34816, Note_off_c, 0, 72, 71
2, 34944, Note_on_c, 0, 77, 112
2, 35072, Note_off_c, 0, 77, 71
2, 35136, Note_on_c, 0, 74, 112
2, 35392, Note_off_c, 0, 74, 71
2, 35424, Note_on_c, 0, 72, 112
2, 35488, Note_off_c, 0, 72, 71
2, 35520, Note_on_c, 0, 70, 112
2, 35648, Note_off_c, 0, 70, 71
2, 36480, Note_on_c, 0, 67, 112
2, 36608, Note_off_c, 0, 67, 71
2, 36672, Note_on_c, 0, 65, 112
2, 36800, Note_off_c, 0, 65, 71
2, 36864, Note_on_c, 0, 70, 112
2, 37120, Note_off_c, 0, 70, 71
2, 37248, Note_on_c, 0, 74, 112
2, 37376, Note_off_c, 0, 74, 71
2, 37440, Note_on_c, 0, 70, 112
2, 37568, Note_off_c, 0, 70, 71
2, 37632, Note_on_c, 0, 72, 112
2, 38016, Note_on_c, 0, 77, 112
2, 38144, Note_off_c, 0, 77, 71
2, 38208, Note_on_c, 0, 74, 112
2, 38336, Note_off_c, 0, 74, 71
2, 38400, Note_off_c, 0, 72, 71
2, 38400, Note_on_c, 0, 72, 112
2, 38528, Note_off_c, 0, 72, 71
2, 38592, Note_on_c, 0, 70, 112
2, 38720, Note_off_c, 0, 70, 71
2, 38784, Note_on_c, 0, 74, 112
2, 38912, Note_off_c, 0, 74, 71
2, 38976, Note_on_c, 0, 72, 112
2, 39232, Note_off_c, 0, 72, 71
2, 39360, Note_on_c, 0, 74, 112
2, 39488, Note_off_c, 0, 74, 71
2, 39552, Note_on_c, 0, 72, 112
2, 39680, Note_off_c, 0, 72, 71
2, 39744, Note_on_c, 0, 70, 112
2, 39872, Note_off_c, 0, 70, 71
2, 39936, Note_on_c, 0, 67, 112
2, 40192, Note_off_c, 0, 67, 71
2, 40320, Note_on_c, 0, 74, 112
2, 40448, Note_off_c, 0, 74, 71
2, 40512, Note_on_c, 0, 72, 112
2, 40896, Note_off_c, 0, 72, 71
2, 41088, Note_on_c, 0, 77, 112
2, 41216, Note_off_c, 0, 77, 71
2, 41280, Note_on_c, 0, 74, 112
2, 41600, Note_off_c, 0, 74, 71
2, 41664, Note_on_c, 0, 72, 112
2, 41792, Note_off_c, 0, 72, 71
2, 41856, Note_on_c, 0, 70, 112
2, 41984, Note_off_c, 0, 70, 71
2, 42048, Note_on_c, 0, 72, 112
2, 42176, Note_off_c, 0, 72, 71
2, 42240, Note_on_c, 0, 70, 112
2, 42368, Note_off_c, 0, 70, 71
2, 42432, Note_on_c, 0, 67, 112
2, 42560, Note_off_c, 0, 67, 71
2, 42816, Note_on_c, 0, 65, 112
2, 42944, Note_off_c, 0, 65, 71
2, 43008, Note_on_c, 0, 74, 112
2, 43136, Note_off_c, 0, 74, 71
2, 43200, Note_on_c, 0, 74, 112
2, 43328, Note_off_c, 0, 74, 71
2, 43392, Note_on_c, 0, 74, 112
2, 43520, Note_off_c, 0, 74, 71
2, 43584, Note_on_c, 0, 72, 112
2, 43712, Note_off_c, 0, 72, 71
2, 43776, Note_on_c, 0, 70, 112
2, 43904, Note_off_c, 0, 70, 71
2, 43968, Note_on_c, 0, 72, 112
2, 44096, Note_off_c, 0, 72, 71
2, 44160, Note_on_c, 0, 74, 112
2, 44288, Note_off_c, 0, 74, 71
2, 44352, Note_on_c, 0, 74, 112
2, 44672, Note_off_c, 0, 74, 71
2, 44736, Note_on_c, 0, 74, 112
2, 44864, Note_off_c, 0, 74, 71
2, 44928, Note_on_c, 0, 78, 112
2, 45184, Note_off_c, 0, 78, 71
2, 45504, Note_on_c, 0, 74, 112
2, 45632, Note_off_c, 0, 74, 71
2, 45696, Note_on_c, 0, 72, 112
2, 45824, Note_off_c, 0, 72, 71
2, 45888, Note_on_c, 0, 70, 112
2, 46016, Note_off_c, 0, 70, 71
2, 46272, Note_on_c, 0, 74, 127
2, 46424, Note_off_c, 0, 74, 99
2, 46464, Note_on_c, 0, 72, 127
2, 46616, Note_off_c, 0, 72, 99
2, 46656, Note_on_c, 0, 70, 127
2, 46848, Note_on_c, 0, 72, 127
2, 47152, Note_off_c, 0, 72, 99
2, 47232, Note_on_c, 0, 74, 127
2, 47384, Note_off_c, 0, 74, 99
2, 47424, Note_on_c, 0, 72, 127
2, 47616, Note_off_c, 0, 70, 99
2, 47808, Note_on_c, 0, 70, 127
2, 48192, Note_off_c, 0, 70, 99
2, 49152, Note_off_c, 0, 72, 71
2, 49344, Note_on_c, 0, 74, 127
2, 49472, Note_off_c, 0, 74, 99
2, 49536, Note_on_c, 0, 72, 127
2, 49664, Note_off_c, 0, 72, 99
2, 49728, Note_on_c, 0, 70, 127
2, 49856, Note_off_c, 0, 70, 99
2, 49920, Note_on_c, 0, 72, 127
2, 50048, Note_off_c, 0, 72, 99
2, 50112, Note_on_c, 0, 70, 127
2, 50368, Note_off_c, 0, 70, 99
2, 50496, Note_on_c, 0, 67, 127
2, 50624, Note_off_c, 0, 67, 99
2, 50688, Note_on_c, 0, 70, 127
2, 50816, Note_off_c, 0, 70, 99
2, 50880, Note_on_c, 0, 72, 127
2, 51008, Note_off_c, 0, 72, 99
2, 51072, Note_on_c, 0, 74, 127
2, 51200, Note_off_c, 0, 74, 99
2, 51264, Note_on_c, 0, 75, 127
2, 51520, Note_off_c, 0, 75, 99
2, 51648, Note_on_c, 0, 74, 127
2, 51776, Note_off_c, 0, 74, 99
2, 51840, Note_on_c, 0, 72, 127
2, 52032, Note_on_c, 0, 74, 127
2, 52224, Note_off_c, 0, 72, 99
2, 52352, Note_off_c, 0, 74, 71
2, 52416, Note_on_c, 0, 72, 127
2, 52544, Note_off_c, 0, 72, 99
2, 52608, Note_on_c, 0, 70, 127
2, 52736, Note_off_c, 0, 70, 99
2, 52800, Note_on_c, 0, 74, 127
2, 52928, Note_off_c, 0, 74, 99
2, 52992, Note_on_c, 0, 72, 127
2, 53248, Note_off_c, 0, 72, 99
2, 53376, Note_on_c, 0, 74, 127
2, 53504, Note_off_c, 0, 74, 99
2, 53568, Note_on_c, 0, 72, 127
2, 53696, Note_off_c, 0, 72, 99
2, 53760, Note_on_c, 0, 72, 127
2, 53824, Note_off_c, 0, 72, 99
2, 53856, Note_on_c, 0, 74, 127
2, 53920, Note_off_c, 0, 74, 99
2, 53952, Note_on_c, 0, 72, 127
2, 54080, Note_off_c, 0, 72, 99
2, 54144, Note_on_c, 0, 70, 127
2, 54400, Note_off_c, 0, 70, 99
2, 54912, Note_on_c, 0, 65, 127
2, 55040, Note_off_c, 0, 65, 99
2, 55104, Note_on_c, 0, 65, 127
2, 55232, Note_off_c, 0, 65, 99
2, 55296, Note_on_c, 0, 74, 127
2, 55424, Note_off_c, 0, 74, 99
2, 55488, Note_on_c, 0, 72, 127
2, 55616, Note_off_c, 0, 72, 99
2, 55680, Note_on_c, 0, 72, 127
2, 55808, Note_off_c, 0, 72, 99
2, 55872, Note_on_c, 0, 70, 127
2, 56256, Note_off_c, 0, 70, 99
2, 56448, Note_on_c, 0, 70, 112
2, 56576, Note_off_c, 0, 70, 71
2, 56640, Note_on_c, 0, 67, 127
2, 56768, Note_off_c, 0, 67, 99
2, 56832, Note_on_c, 0, 70, 127
2, 56960, Note_off_c, 0, 70, 99
2, 57024, Note_on_c, 0, 72, 127
2, 57152, Note_off_c, 0, 72, 99
2, 57216, Note_on_c, 0, 74, 127
2, 57344, Note_off_c, 0, 74, 99
2, 57408, Note_on_c, 0, 75, 127
2, 57664, Note_off_c, 0, 75, 99
2, 57792, Note_on_c, 0, 75, 127
2, 57920, Note_off_c, 0, 75, 99
2, 57984, Note_on_c, 0, 74, 127
2, 58112, Note_off_c, 0, 74, 99
2, 58176, Note_on_c, 0, 74, 127
2, 58496, Note_off_c, 0, 74, 71
2, 58560, Note_on_c, 0, 72, 127
2, 58688, Note_off_c, 0, 72, 99
2, 58752, Note_on_c, 0, 72, 127
2, 58880, Note_off_c, 0, 72, 99
2, 58944, Note_on_c, 0, 75, 127
2, 59328, Note_off_c, 0, 75, 99
2, 59520, Note_on_c, 0, 75, 127
2, 59648, Note_off_c, 0, 75, 99
2, 59712, Note_on_c, 0, 77, 127
2, 59840, Note_off_c, 0, 77, 99
2, 59904, Note_on_c, 0, 74, 127
2, 60032, Note_off_c, 0, 74, 99
2, 60096, Note_on_c, 0, 72, 127
2, 60224, Note_off_c, 0, 72, 99
2, 60288, Note_on_c, 0, 72, 112
2, 60544, Note_off_c, 0, 72, 71
2, 60864, Note_on_c, 0, 70, 127
2, 60992, Note_off_c, 0, 70, 99
2, 61056, Note_on_c, 0, 72, 127
2, 61184, Note_off_c, 0, 72, 99
2, 61248, Note_on_c, 0, 74, 127
2, 61568, Note_off_c, 0, 74, 71
2, 61632, Note_on_c, 0, 74, 127
2, 61760, Note_off_c, 0, 74, 99
2, 61824, Note_on_c, 0, 74, 127
2, 61952, Note_off_c, 0, 74, 99
2, 62016, Note_on_c, 0, 74, 127
2, 62144, Note_off_c, 0, 74, 99
2, 62208, Note_on_c, 0, 72, 127
2, 62336, Note_off_c, 0, 72, 99
2, 62400, Note_on_c, 0, 70, 127
2, 62528, Note_off_c, 0, 70, 99
2, 62592, Note_on_c, 0, 74, 127
2, 62720, Note_off_c, 0, 74, 99
2, 62784, Note_on_c, 0, 72, 127
2, 63040, Note_off_c, 0, 72, 71
2, 63072, Note_on_c, 0, 70, 127
2, 63136, Note_off_c, 0, 70, 99
2, 63168, Note_on_c, 0, 67, 127
2, 63296, Note_off_c, 0, 67, 99
2, 64128, Note_on_c, 0, 67, 127
2, 64256, Note_off_c, 0, 67, 99
2, 64320, Note_on_c, 0, 70, 127
2, 64448, Note_off_c, 0, 70, 99
2, 64512, Note_on_c, 0, 72, 127
2, 64768, Note_off_c, 0, 72, 99
2, 64896, Note_on_c, 0, 72, 127
2, 65024, Note_off_c, 0, 72, 99
2, 65088, Note_on_c, 0, 72, 127
2, 65216, Note_off_c, 0, 72, 99
2, 65280, Note_on_c, 0, 75, 127
2, 65408, Note_off_c, 0, 75, 99
2, 65472, Note_on_c, 0, 75, 127
2, 65600, Note_off_c, 0, 75, 99
2, 65664, Note_on_c, 0, 77, 127
2, 65792, Note_off_c, 0, 77, 99
2, 65856, Note_on_c, 0, 74, 127
2, 66112, Note_off_c, 0, 74, 71
2, 66144, Note_on_c, 0, 75, 127
2, 66208, Note_off_c, 0, 75, 99
2, 66240, Note_on_c, 0, 74, 127
2, 66368, Note_off_c, 0, 74, 99
2, 66432, Note_on_c, 0, 72, 127
2, 66688, Note_off_c, 0, 72, 99
2, 67008, Note_on_c, 0, 70, 127
2, 67136, Note_off_c, 0, 70, 99
2, 67200, Note_on_c, 0, 70, 127
2, 67328, Note_off_c, 0, 70, 99
2, 67392, Note_on_c, 0, 72, 127
2, 67520, Note_off_c, 0, 72, 99
2, 67584, Note_on_c, 0, 74, 127
2, 67712, Note_off_c, 0, 74, 99
2, 67776, Note_on_c, 0, 74, 127
2, 67904, Note_off_c, 0, 74, 99
2, 67968, Note_on_c, 0, 74, 127
2, 68096, Note_off_c, 0, 74, 99
2, 68160, Note_on_c, 0, 74, 127
2, 68288, Note_off_c, 0, 74, 99
2, 68352, Note_on_c, 0, 74, 127
2, 68480, Note_off_c, 0, 74, 99
2, 68544, Note_on_c, 0, 72, 127
2, 68672, Note_off_c, 0, 72, 99
2, 68736, Note_on_c, 0, 70, 127
2, 68864, Note_off_c, 0, 70, 99
2, 68928, Note_on_c, 0, 74, 127
2, 69248, Note_off_c, 0, 74, 71
2, 69312, Note_on_c, 0, 74, 127
2, 69440, Note_off_c, 0, 74, 99
2, 69504, Note_on_c, 0, 78, 127
2, 69760, Note_off_c, 0, 78, 99
2, 70080, Note_on_c, 0, 74, 127
2, 70208, Note_off_c, 0, 74, 99
2, 70272, Note_on_c, 0, 72, 127
2, 70400, Note_off_c, 0, 72, 99
2, 70464, Note_on_c, 0, 70, 127
2, 70656, Note_off_c, 0, 70, 99
2, 70656, Note_on_c, 0, 70, 112
2, 70912, Note_off_c, 0, 70, 71
2, 71040, Note_on_c, 0, 74, 112
2, 71168, Note_off_c, 0, 74, 71
2, 71232, Note_on_c, 0, 70, 112
2, 71360, Note_off_c, 0, 70, 71
2, 71424, Note_on_c, 0, 72, 112
2, 71680, Note_off_c, 0, 72, 71
2, 71808, Note_on_c, 0, 77, 112
2, 71936, Note_off_c, 0, 77, 71
2, 72000, Note_on_c, 0, 74, 112
2, 72256, Note_off_c, 0, 74, 71
2, 72288, Note_on_c, 0, 72, 112
2, 72352, Note_off_c, 0, 72, 71
2, 72384, Note_on_c, 0, 70, 112
2, 72512, Note_off_c, 0, 70, 71
2, 73344, Note_on_c, 0, 67, 112
2, 73472, Note_off_c, 0, 67, 71
2, 73536, Note_on_c, 0, 65, 112
2, 73664, Note_off_c, 0, 65, 71
2, 73728, Note_on_c, 0, 70, 112
2, 73984, Note_off_c, 0, 70, 71
2, 74112, Note_on_c, 0, 74, 112
2, 74240, Note_off_c, 0, 74, 71
2, 74304, Note_on_c, 0, 70, 112
2, 74432, Note_off_c, 0, 70, 71
2, 74496, Note_on_c, 0, 72, 112
2, 74880, Note_on_c, 0, 77, 112
2, 75008, Note_off_c, 0, 77, 71
2, 75072, Note_on_c, 0, 74, 112
2, 75200, Note_off_c, 0, 74, 71
2, 75264, Note_off_c, 0, 72, 71
2, 75264, Note_on_c, 0, 72, 112
2, 75392, Note_off_c, 0, 72, 71
2, 75456, Note_on_c, 0, 70, 112
2, 75584, Note_off_c, 0, 70, 71
2, 75648, Note_on_c, 0, 74, 112
2, 75776, Note_off_c, 0, 74, 71
2, 75840, Note_on_c, 0, 72, 112
2, 76096, Note_off_c, 0, 72, 71
2, 76224, Note_on_c, 0, 74, 112
2, 76352, Note_off_c, 0, 74, 71
2, 76416, Note_on_c, 0, 72, 112
2, 76544, Note_off_c, 0, 72, 71
2, 76608, Note_on_c, 0, 70, 112
2, 76736, Note_off_c, 0, 70, 71
2, 76800, Note_on_c, 0, 67, 112
2, 77056, Note_off_c, 0, 67, 71
2, 77184, Note_on_c, 0, 74, 112
2, 77312, Note_off_c, 0, 74, 71
2, 77376, Note_on_c, 0, 72, 112
2, 77760, Note_off_c, 0, 72, 71
2, 77952, Note_on_c, 0, 77, 112
2, 78080, Note_off_c, 0, 77, 71
2, 78144, Note_on_c, 0, 74, 112
2, 78464, Note_off_c, 0, 74, 71
2, 78528, Note_on_c, 0, 72, 112
2, 78656, Note_off_c, 0, 72, 71
2, 78720, Note_on_c, 0, 70, 112
2, 78848, Note_off_c, 0, 70, 71
2, 78912, Note_on_c, 0, 72, 112
2, 79040, Note_off_c, 0, 72, 71
2, 79104, Note_on_c, 0, 70, 112
2, 79232, Note_off_c, 0, 70, 71
2, 79296, Note_on_c, 0, 67, 112
2, 79424, Note_off_c, 0, 67, 71
2, 79680, Note_on_c, 0, 65, 112
2, 79808, Note_off_c, 0, 65, 71
2, 79872, Note_on_c, 0, 74, 112
2, 80000, Note_off_c, 0, 74, 71
2, 80064, Note_on_c, 0, 74, 112
2, 80192, Note_off_c, 0, 74, 71
2, 80256, Note_on_c, 0, 74, 112
2, 80384, Note_off_c, 0, 74, 71
2, 80448, Note_on_c, 0, 72, 112
2, 80576, Note_off_c, 0, 72, 71
2, 80640, Note_on_c, 0, 70, 112
2, 80768, Note_off_c, 0, 70, 71
2, 80832, Note_on_c, 0, 72, 112
2, 80960, Note_off_c, 0, 72, 71
2, 81024, Note_on_c, 0, 74, 112
2, 81152, Note_off_c, 0, 74, 71
2, 81216, Note_on_c, 0, 74, 112
2, 81536, Note_off_c, 0, 74, 71
2, 81600, Note_on_c, 0, 74, 112
2, 81728, Note_off_c, 0, 74, 71
2, 81792, Note_on_c, 0, 78, 112
2, 82048, Note_off_c, 0, 78, 71
2, 82368, Note_on_c, 0, 74, 112
2, 82496, Note_off_c, 0, 74, 71
2, 82560, Note_on_c, 0, 72, 112
2, 82688, Note_off_c, 0, 72, 71
2, 82752, Note_on_c, 0, 70, 112
2, 82880, Note_off_c, 0, 70, 71
2, 83136, Note_on_c, 0, 74, 127
2, 83288, Note_off_c, 0, 74, 99
2, 83328, Note_on_c, 0, 72, 127
2, 83480, Note_off_c, 0, 72, 99
2, 83520, Note_on_c, 0, 70, 127
2, 83712, Note_on_c, 0, 72, 127
2, 84016, Note_off_c, 0, 72, 99
2, 84096, Note_on_c, 0, 74, 127
2, 84248, Note_off_c, 0, 74, 99
2, 84288, Note_on_c, 0, 72, 127
2, 84480, Note_off_c, 0, 70, 99
2, 84672, Note_on_c, 0, 70, 127
2, 85056, Note_off_c, 0, 70, 99
2, 86016, Note_off_c, 0, 72, 71
2, 86208, Note_on_c, 0, 74, 127
2, 86336, Note_off_c, 0, 74, 99
2, 86400, Note_on_c, 0, 72, 127
2, 86528, Note_off_c, 0, 72, 99
2, 86592, Note_on_c, 0, 70, 127
2, 86720, Note_off_c, 0, 70, 99
2, 86784, Note_on_c, 0, 72, 127
2, 86912, Note_off_c, 0, 72, 99
2, 86976, Note_on_c, 0, 70, 127
2, 87232, Note_off_c, 0, 70, 99
2, 87360, Note_on_c, 0, 67, 127
2, 87488, Note_off_c, 0, 67, 99
2, 87552, Note_on_c, 0, 70, 127
2, 87680, Note_off_c, 0, 70, 99
2, 87744, Note_on_c, 0, 72, 127
2, 87872, Note_off_c, 0, 72, 99
2, 87936, Note_on_c, 0, 74, 127
2, 88064, Note_off_c, 0, 74, 99
2, 88128, Note_on_c, 0, 75, 127
2, 88384, Note_off_c, 0, 75, 99
2, 88512, Note_on_c, 0, 74, 127
2, 88640, Note_off_c, 0, 74, 99
2, 88704, Note_on_c, 0, 72, 127
2, 88896, Note_on_c, 0, 74, 127
2, 89088, Note_off_c, 0, 72, 99
2, 89216, Note_off_c, 0, 74, 71
2, 89280, Note_on_c, 0, 72, 127
2, 89408, Note_off_c, 0, 72, 99
2, 89472, Note_on_c, 0, 70, 127
2, 89600, Note_off_c, 0, 70, 99
2, 89664, Note_on_c, 0, 74, 127
2, 89792, Note_off_c, 0, 74, 99
2, 89856, Note_on_c, 0, 72, 127
2, 90112, Note_off_c, 0, 72, 99
2, 90240, Note_on_c, 0, 74, 127
2, 90368, Note_off_c, 0, 74, 99
2, 90432, Note_on_c, 0, 72, 127
2, 90560, Note_off_c, 0, 72, 99
2, 90624, Note_on_c, 0, 72, 127
2, 90688, Note_off_c, 0, 72, 99
2, 90720, Note_on_c, 0, 74, 127
2, 90784, Note_off_c, 0, 74, 99
2, 90816, Note_on_c, 0, 72, 127
2, 90944, Note_off_c, 0, 72, 99
2, 91008, Note_on_c, 0, 70, 127
2, 91264, Note_off_c, 0, 70, 99
2, 91776, Note_on_c, 0, 65, 127
2, 91904, Note_off_c, 0, 65, 99
2, 91968, Note_on_c, 0, 65, 127
2, 92096, Note_off_c, 0, 65, 99
2, 92160, Note_on_c, 0, 74, 127
2, 92288, Note_off_c, 0, 74, 99
2, 92352, Note_on_c, 0, 72, 127
2, 92480, Note_off_c, 0, 72, 99
2, 92544, Note_on_c, 0, 72, 127
2, 92672, Note_off_c, 0, 72, 99
2, 92736, Note_on_c, 0, 70, 127
2, 93120, Note_off_c, 0, 70, 99
2, 93312, Note_on_c, 0, 70, 112
2, 93440, Note_off_c, 0, 70, 71
2, 93504, Note_on_c, 0, 67, 127
2, 93632, Note_off_c, 0, 67, 99
2, 93696, Note_on_c, 0, 70, 127
2, 93824, Note_off_c, 0, 70, 99
2, 93888, Note_on_c, 0, 72, 127
2, 94016, Note_off_c, 0, 72, 99
2, 94080, Note_on_c, 0, 74, 127
2, 94208, Note_off_c, 0, 74, 99
2, 94272, Note_on_c, 0, 75, 127
2, 94528, Note_off_c, 0, 75, 99
2, 94656, Note_on_c, 0, 75, 127
2, 94784, Note_off_c, 0, 75, 99
2, 94848, Note_on_c, 0, 74, 127
2, 94976, Note_off_c, 0, 74, 99
2, 95040, Note_on_c, 0, 74, 127
2, 95360, Note_off_c, 0, 74, 71
2, 95424, Note_on_c, 0, 72, 127
2, 95552, Note_off_c, 0, 72, 99
2, 95616, Note_on_c, 0, 72, 127
2, 95744, Note_off_c, 0, 72, 99
2, 95808, Note_on_c, 0, 75, 127
2, 96192, Note_off_c, 0, 75, 99
2, 96384, Note_on_c, 0, 75, 127
2, 96512, Note_off_c, 0, 75, 99
2, 96576, Note_on_c, 0, 77, 127
2, 96704, Note_off_c, 0, 77, 99
2, 96768, Note_on_c, 0, 74, 127
2, 96896, Note_off_c, 0, 74, 99
2, 96960, Note_on_c, 0, 72, 127
2, 97088, Note_off_c, 0, 72, 99
2, 97152, Note_on_c, 0, 72, 112
2, 97408, Note_off_c, 0, 72, 71
2, 97728, Note_on_c, 0, 70, 127
2, 97856, Note_off_c, 0, 70, 99
2, 97920, Note_on_c, 0, 72, 127
2, 98048, Note_off_c, 0, 72, 99
2, 98112, Note_on_c, 0, 74, 127
2, 98432, Note_off_c, 0, 74, 71
2, 98496, Note_on_c, 0, 74, 127
2, 98624, Note_off_c, 0, 74, 99
2, 98688, Note_on_c, 0, 74, 127
2, 98816, Note_off_c, 0, 74, 99
2, 98880, Note_on_c, 0, 74, 127
2, 99008, Note_off_c, 0, 74, 99
2, 99072, Note_on_c, 0, 72, 127
2, 99200, Note_off_c, 0, 72, 99
2, 99264, Note_on_c, 0, 70, 127
2, 99392, Note_off_c, 0, 70, 99
2, 99456, Note_on_c, 0, 74, 127
2, 99584, Note_off_c, 0, 74, 99
2, 99648, Note_on_c, 0, 72, 127
2, 99904, Note_off_c, 0, 72, 71
2, 99936, Note_on_c, 0, 70, 127
2, 100000, Note_off_c, 0, 70, 99
2, 100032, Note_on_c, 0, 67, 127
2, 100160, Note_off_c, 0, 67, 99
2, 100800, Note_on_c, 0, 67, 112
2, 100928, Note_off_c, 0, 67, 71
2, 100992, Note_on_c, 0, 67, 127
2, 101120, Note_off_c, 0, 67, 99
2, 101184, Note_on_c, 0, 70, 127
2, 101312, Note_off_c, 0, 70, 99
2, 101376, Note_on_c, 0, 72, 127
2, 101632, Note_off_c, 0, 72, 99
2, 101760, Note_on_c, 0, 72, 127
2, 101888, Note_off_c, 0, 72, 99
2, 101952, Note_on_c, 0, 72, 127
2, 102080, Note_off_c, 0, 72, 99
2, 102144, Note_on_c, 0, 75, 127
2, 102272, Note_off_c, 0, 75, 99
2, 102336, Note_on_c, 0, 75, 127
2, 102464, Note_off_c, 0, 75, 99
2, 102528, Note_on_c, 0, 77, 127
2, 102656, Note_off_c, 0, 77, 99
2, 102720, Note_on_c, 0, 74, 127
2, 102976, Note_off_c, 0, 74, 71
2, 103008, Note_on_c, 0, 75, 127
2, 103072, Note_off_c, 0, 75, 99
2, 103104, Note_on_c, 0, 74, 127
2, 103232, Note_off_c, 0, 74, 99
2, 103296, Note_on_c, 0, 72, 127
2, 103552, Note_off_c, 0, 72, 99
2, 103872, Note_on_c, 0, 70, 127
2, 104000, Note_off_c, 0, 70, 99
2, 104064, Note_on_c, 0, 70, 127
2, 104192, Note_off_c, 0, 70, 99
2, 104256, Note_on_c, 0, 72, 127
2, 104384, Note_off_c, 0, 72, 99
2, 104448, Note_on_c, 0, 74, 127
2, 104576, Note_off_c, 0, 74, 99
2, 104640, Note_on_c, 0, 74, 127
2, 104768, Note_off_c, 0, 74, 99
2, 104832, Note_on_c, 0, 74, 127
2, 104960, Note_off_c, 0, 74, 99
2, 105024, Note_on_c, 0, 74, 127
2, 105152, Note_off_c, 0, 74, 99
2, 105216, Note_on_c, 0, 74, 127
2, 105344, Note_off_c, 0, 74, 99
2, 105408, Note_on_c, 0, 72, 127
2, 105536, Note_off_c, 0, 72, 99
2, 105600, Note_on_c, 0, 70, 127
2, 105728, Note_off_c, 0, 70, 99
2, 105792, Note_on_c, 0, 74, 127
2, 106112, Note_off_c, 0, 74, 71
2, 106176, Note_on_c, 0, 74, 127
2, 106304, Note_off_c, 0, 74, 99
2, 106368, Note_on_c, 0, 78, 127
2, 106624, Note_off_c, 0, 78, 99
2, 106944, Note_on_c, 0, 74, 127
2, 107072, Note_off_c, 0, 74, 99
2, 107136, Note_on_c, 0, 72, 127
2, 107264, Note_off_c, 0, 72, 99
2, 107328, Note_on_c, 0, 70, 127
2, 107520, Note_off_c, 0, 70, 99
2, 107520, Note_on_c, 0, 70, 112
2, 107776, Note_off_c, 0, 70, 71
2, 107904, Note_on_c, 0, 74, 112
2, 108032, Note_off_c, 0, 74, 71
2, 108096, Note_on_c, 0, 70, 112
2, 108224, Note_off_c, 0, 70, 71
2, 108288, Note_on_c, 0, 72, 112
2, 108544, Note_off_c, 0, 72, 71
2, 108672, Note_on_c, 0, 77, 112
2, 108800, Note_off_c, 0, 77, 71
2, 108864, Note_on_c, 0, 74, 112
2, 109120, Note_off_c, 0, 74, 71
2, 109152, Note_on_c, 0, 72, 112
2, 109216, Note_off_c, 0, 72, 71
2, 109248, Note_on_c, 0, 70, 112
2, 109376, Note_off_c, 0, 70, 71
2, 110208, Note_on_c, 0, 67, 112
2, 110336, Note_off_c, 0, 67, 71
2, 110400, Note_on_c, 0, 65, 112
2, 110528, Note_off_c, 0, 65, 71
2, 110592, Note_on_c, 0, 70, 112
2, 110848, Note_off_c, 0, 70, 71
2, 110976, Note_on_c, 0, 74, 112
2, 111104, Note_off_c, 0, 74, 71
2, 111168, Note_on_c, 0, 70, 112
2, 111296, Note_off_c, 0, 70, 71
2, 111360, Note_on_c, 0, 72, 112
2, 111744, Note_on_c, 0, 77, 112
2, 111872, Note_off_c, 0, 77, 71
2, 111936, Note_on_c, 0, 74, 112
2, 112064, Note_off_c, 0, 74, 71
2, 112128, Note_off_c, 0, 72, 71
2, 112128, Note_on_c, 0, 72, 112
2, 112256, Note_off_c, 0, 72, 71
2, 112320, Note_on_c, 0, 70, 112
2, 112448, Note_off_c, 0, 70, 71
2, 112512, Note_on_c, 0, 74, 112
2, 112640, Note_off_c, 0, 74, 71
2, 112704, Note_on_c, 0, 72, 112
2, 112960, Note_off_c, 0, 72, 71
2, 113088, Note_on_c, 0, 74, 112
2, 113216, Note_off_c, 0, 74, 71
2, 113280, Note_on_c, 0, 72, 112
2, 113408, Note_off_c, 0, 72, 71
2, 113472, Note_on_c, 0, 70, 112
2, 113600, Note_off_c, 0, 70, 71
2, 113664, Note_on_c, 0, 67, 112
2, 113920, Note_off_c, 0, 67, 71
2, 114048, Note_on_c, 0, 74, 112
2, 114176, Note_off_c, 0, 74, 71
2, 114240, Note_on_c, 0, 72, 112
2, 114624, Note_off_c, 0, 72, 71
2, 114816, Note_on_c, 0, 77, 112
2, 114944, Note_off_c, 0, 77, 71
2, 115008, Note_on_c, 0, 74, 112
2, 115328, Note_off_c, 0, 74, 71
2, 115392, Note_on_c, 0, 72, 112
2, 115520, Note_off_c, 0, 72, 71
2, 115584, Note_on_c, 0, 70, 112
2, 115712, Note_off_c, 0, 70, 71
2, 115776, Note_on_c, 0, 72, 112
2, 115904, Note_off_c, 0, 72, 71
2, 115968, Note_on_c, 0, 70, 112
2, 116096, Note_off_c, 0, 70, 71
2, 116160, Note_on_c, 0, 67, 112
2, 116288, Note_off_c, 0, 67, 71
2, 116544, Note_on_c, 0, 65, 112
2, 116672, Note_off_c, 0, 65, 71
2, 116736, Note_on_c, 0, 74, 112
2, 116864, Note_off_c, 0, 74, 71
2, 116928, Note_on_c, 0, 74, 112
2, 117056, Note_off_c, 0, 74, 71
2, 117120, Note_on_c, 0, 74, 112
2, 117248, Note_off_c, 0, 74, 71
2, 117312, Note_on_c, 0, 72, 112
2, 117440, Note_off_c, 0, 72, 71
2, 117504, Note_on_c, 0, 70, 112
2, 117632, Note_off_c, 0, 70, 71
2, 117696, Note_on_c, 0, 72, 112
2, 117824, Note_off_c, 0, 72, 71
2, 117888, Note_on_c, 0, 74, 112
2, 118016, Note_off_c, 0, 74, 71
2, 118080, Note_on_c, 0, 74, 112
2, 118400, Note_off_c, 0, 74, 71
2, 118464, Note_on_c, 0, 74, 112
2, 118592, Note_off_c, 0, 74, 71
2, 118656, Note_on_c, 0, 78, 112
2, 118912, Note_off_c, 0, 78, 71
2, 119232, Note_on_c, 0, 74, 112
2, 119360, Note_off_c, 0, 74, 71
2, 119424, Note_on_c, 0, 72, 112
2, 119552, Note_off_c, 0, 72, 71
2, 119616, Note_on_c, 0, 70, 112
2, 119744, Note_off_c, 0, 70, 71
2, 119808, Note_on_c, 0, 70, 112
2, 120064, Note_off_c, 0, 70, 71
2, 120192, Note_on_c, 0, 74, 112
2, 120320, Note_off_c, 0, 74, 71
2, 120384, Note_on_c, 0, 70, 112
2, 120512, Note_off_c, 0, 70, 71
2, 120576, Note_on_c, 0, 72, 112
2, 120832, Note_off_c, 0, 72, 71
2, 120960, Note_on_c, 0, 77, 112
2, 121088, Note_off_c, 0, 77, 71
2, 121152, Note_on_c, 0, 74, 112
2, 121408, Note_off_c, 0, 74, 71
2, 121440, Note_on_c, 0, 72, 112
2, 121504, Note_off_c, 0, 72, 71
2, 121536, Note_on_c, 0, 70, 112
2, 121664, Note_off_c, 0, 70, 71
2, 122496, Note_on_c, 0, 67, 112
2, 122624, Note_off_c, 0, 67, 71
2, 122688, Note_on_c, 0, 65, 112
2, 122816, Note_off_c, 0, 65, 71
2, 122880, Note_on_c, 0, 70, 112
2, 123136, Note_off_c, 0, 70, 71
2, 123264, Note_on_c, 0, 74, 112
2, 123392, Note_off_c, 0, 74, 71
2, 123456, Note_on_c, 0, 70, 112
2, 123584, Note_off_c, 0, 70, 71
2, 123648, Note_on_c, 0, 72, 112
2, 124032, Note_on_c, 0, 77, 112
2, 124160, Note_off_c, 0, 77, 71
2, 124224, Note_on_c, 0, 74, 112
2, 124352, Note_off_c, 0, 74, 71
2, 124416, Note_off_c, 0, 72, 71
2, 124416, Note_on_c, 0, 72, 112
2, 124544, Note_off_c, 0, 72, 71
2, 124608, Note_on_c, 0, 70, 112
2, 124736, Note_off_c, 0, 70, 71
2, 124800, Note_on_c, 0, 74, 112
2, 124928, Note_off_c, 0, 74, 71
2, 124992, Note_on_c, 0, 72, 112
2, 125248, Note_off_c, 0, 72, 71
2, 125376, Note_on_c, 0, 74, 112
2, 125504, Note_off_c, 0, 74, 71
2, 125568, Note_on_c, 0, 72, 112
2, 125696, Note_off_c, 0, 72, 71
2, 125760, Note_on_c, 0, 70, 112
2, 125888, Note_off_c, 0, 70, 71
2, 125952, Note_on_c, 0, 67, 112
2, 126208, Note_off_c, 0, 67, 71
2, 126336, Note_on_c, 0, 74, 112
2, 126464, Note_off_c, 0, 74, 71
2, 126528, Note_on_c, 0, 72, 112
2, 126912, Note_off_c, 0, 72, 71
2, 127104, Note_on_c, 0, 77, 112
2, 127232, Note_off_c, 0, 77, 71
2, 127296, Note_on_c, 0, 74, 112
2, 127616, Note_off_c, 0, 74, 71
2, 127680, Note_on_c, 0, 72, 112
2, 127808, Note_off_c, 0, 72, 71
2, 127872, Note_on_c, 0, 70, 112
2, 128000, Note_off_c, 0, 70, 71
2, 128064, Note_on_c, 0, 72, 112
2, 128192, Note_off_c, 0, 72, 71
2, 128256, Note_on_c, 0, 70, 112
2, 128384, Note_off_c, 0, 70, 71
2, 128448, Note_on_c, 0, 67, 112
2, 128576, Note_off_c, 0, 67, 71
2, 128832, Note_on_c, 0, 65, 112
2, 128960, Note_off_c, 0, 65, 71
2, 129024, Note_on_c, 0, 74, 112
2, 129152, Note_off_c, 0, 74, 71
2, 129216, Note_on_c, 0, 74, 112
2, 129472, Note_off_c, 0, 74, 71
2, 129600, Note_on_c, 0, 72, 112
2, 129728, Note_off_c, 0, 72, 71
2, 129792, Note_on_c, 0, 70, 112
2, 129920, Note_off_c, 0, 70, 71
2, 129984, Note_on_c, 0, 72, 112
2, 130112, Note_off_c, 0, 72, 71
2, 130176, Note_on_c, 0, 74, 112
2, 130304, Note_off_c, 0, 74, 71
2, 130368, Note_on_c, 0, 74, 112
2, 130688, Note_off_c, 0, 74, 71
2, 130752, Note_on_c, 0, 74, 112
2, 130880, Note_off_c, 0, 74, 71
2, 130944, Note_on_c, 0, 78, 112
2, 131072, Note_off_c, 0, 78, 71
2, 131072, End_track
3, 0, Start_track
3, 0, Title_t, "Guitar"
3, 0, Control_c, 1, 0, 0
3, 0, Program_c, 1, 25
3, 0, Key_signature, -2, "minor"
3, 0, Note_on_c, 1, 74, 57
3, 0, Note_on_c, 1, 69, 57
3, 0, Note_on_c, 1, 66, 57
3, 1840, Note_off_c, 1, 74, 35
3, 1840, Note_off_c, 1, 69, 35
3, 1840, Note_off_c, 1, 66, 35
3, 2304, Note_on_c, 1, 64, 57
3, 2304, Note_on_c, 1, 72, 57
3, 2304, Note_on_c, 1, 67, 57
3, 4144, Note_off_c, 1, 64, 35
3, 4144, Note_off_c, 1, 72, 35
3, 4608, Note_off_c, 1, 67, 35
3, 4608, Note_on_c, 1, 71, 57
3, 4608, Note_on_c, 1, 67, 57
3, 4608, Note_on_c, 1, 62, 57
3, 5008, Note_off_c, 1, 71, 35
3, 5008, Note_off_c, 1, 67, 35
3, 5008, Note_off_c, 1, 62, 35
3, 5184, Note_on_c, 1, 62, 57
3, 5184, Note_on_c, 1, 67, 57
3, 5184, Note_on_c, 1, 71, 57
3, 5584, Note_off_c, 1, 62, 35
3, 5584, Note_off_c, 1, 67, 35
3, 5584, Note_off_c, 1, 71, 35
3, 5760, Note_on_c, 1, 72, 57
3, 5760, Note_on_c, 1, 67, 57
3, 5760, Note_on_c, 1, 64, 57
3, 6160, Note_off_c, 1, 72, 35
3, 6160, Note_off_c, 1, 67, 35
3, 6160, Note_off_c, 1, 64, 35
3, 6336, Note_on_c, 1, 72, 57
3, 6336, Note_on_c, 1, 67, 57
3, 6336, Note_on_c, 1, 63, 57
3, 6736, Note_off_c, 1, 72, 35
3, 6736, Note_off_c, 1, 67, 35
3, 6736, Note_off_c, 1, 63, 35
3, 6912, Note_on_c, 1, 69, 57
3, 6912, Note_on_c, 1, 74, 57
3, 6912, Note_on_c, 1, 66, 57
3, 7948, Note_off_c, 1, 69, 35
3, 7948, Note_off_c, 1, 74, 35
3, 7948, Note_off_c, 1, 66, 35
3, 8064, Note_on_c, 1, 74, 57
3, 8064, Note_on_c, 1, 69, 57
3, 8064, Note_on_c, 1, 66, 57
3, 8216, Note_off_c, 1, 74, 35
3, 8216, Note_off_c, 1, 69, 35
3, 8216, Note_off_c, 1, 66, 35
3, 9216, Note_on_c, 1, 70, 57
3, 9216, Note_on_c, 1, 67, 57
3, 9216, Note_on_c, 1, 62, 57
3, 9828, Note_off_c, 1, 70, 35
3, 9828, Note_off_c, 1, 67, 35
3, 9828, Note_off_c, 1, 62, 35
3, 9984, Note_on_c, 1, 69, 57
3, 9984, Note_on_c, 1, 65, 57
3, 9984, Note_on_c, 1, 60, 57
3, 10596, Note_off_c, 1, 69, 35
3, 10596, Note_off_c, 1, 65, 35
3, 10596, Note_off_c, 1, 60, 35
3, 10752, Note_on_c, 1, 70, 85
3, 10752, Note_on_c, 1, 67, 85
3, 10752, Note_on_c, 1, 63, 85
3, 11264, Note_off_c, 1, 70, 53
3, 11264, Note_off_c, 1, 67, 53
3, 11264, Note_off_c, 1, 63, 53
3, 11520, Note_on_c, 1, 65, 85
3, 11520, Note_on_c, 1, 62, 85
3, 11520, Note_on_c, 1, 70, 85
3, 11776, Note_off_c, 1, 65, 53
3, 11776, Note_off_c, 1, 62, 53
3, 11904, Note_on_c, 1, 69, 85
3, 11904, Note_on_c, 1, 65, 85
3, 11904, Note_on_c, 1, 60, 85
3, 12160, Note_off_c, 1, 69, 53
3, 12160, Note_off_c, 1, 65, 53
3, 12160, Note_off_c, 1, 60, 53
3, 12288, Note_off_c, 1, 70, 53
3, 12288, Note_on_c, 1, 70, 85
3, 12288, Note_on_c, 1, 67, 85
3, 12288, Note_on_c, 1, 62, 85
3, 12800, Note_off_c, 1, 70, 53
3, 12800, Note_off_c, 1, 67, 53
3, 12800, Note_off_c, 1, 62, 53
3, 13056, Note_on_c, 1, 60, 85
3, 13056, Note_on_c, 1, 65, 85
3, 13056, Note_on_c, 1, 69, 85
3, 13568, Note_off_c, 1, 60, 53
3, 13568, Note_off_c, 1, 65, 53
3, 13568, Note_off_c, 1, 69, 53
3, 13824, Note_on_c, 1, 62, 85
3, 13824, Note_on_c, 1, 65, 85
3, 13824, Note_on_c, 1, 70, 85
3, 14208, Note_off_c, 1, 62, 53
3, 14208, Note_off_c, 1, 65, 53
3, 14208, Note_off_c, 1, 70, 53
3, 14400, Note_on_c, 1, 70, 85
3, 14400, Note_on_c, 1, 67, 85
3, 14400, Note_on_c, 1, 63, 85
3, 14912, Note_off_c, 1, 70, 53
3, 14912, Note_off_c, 1, 67, 53
3, 14912, Note_off_c, 1, 63, 53
3, 15168, Note_on_c, 1, 70, 85
3, 15168, Note_on_c, 1, 65, 85
3, 15168, Note_on_c, 1, 62, 85
3, 15872, Note_off_c, 1, 62, 53
3, 15872, Note_off_c, 1, 70, 53
3, 16128, Note_on_c, 1, 60, 85
3, 16128, Note_on_c, 1, 65, 85
3, 16128, Note_on_c, 1, 69, 85
3, 16640, Note_off_c, 1, 65, 53
3, 16640, Note_off_c, 1, 60, 53
3, 16640, Note_off_c, 1, 65, 53
3, 16640, Note_off_c, 1, 69, 53
3, 16896, Note_on_c, 1, 70, 85
3, 16896, Note_on_c, 1, 67, 85
3, 16896, Note_on_c, 1, 63, 85
3, 17408, Note_off_c, 1, 70, 53
3, 17408, Note_off_c, 1, 67, 53
3, 17408, Note_off_c, 1, 63, 53
3, 17664, Note_on_c, 1, 70, 85
3, 17664, Note_on_c, 1, 65, 85
3, 17664, Note_on_c, 1, 62, 85
3, 17920, Note_off_c, 1, 70, 53
3, 17920, Note_off_c, 1, 65, 53
3, 17920, Note_off_c, 1, 62, 53
3, 18048, Note_on_c, 1, 69, 85
3, 18048, Note_on_c, 1, 65, 85
3, 18048, Note_on_c, 1, 60, 85
3, 18304, Note_off_c, 1, 69, 53
3, 18304, Note_off_c, 1, 65, 53
3, 18304, Note_off_c, 1, 60, 53
3, 18432, Note_on_c, 1, 70, 85
3, 18432, Note_on_c, 1, 67, 85
3, 18432, Note_on_c, 1, 62, 85
3, 18944, Note_off_c, 1, 70, 53
3, 18944, Note_off_c, 1, 67, 53
3, 18944, Note_off_c, 1, 62, 53
3, 19200, Note_on_c, 1, 69, 85
3, 19200, Note_on_c, 1, 65, 85
3, 19200, Note_on_c, 1, 60, 85
3, 19712, Note_off_c, 1, 69, 53
3, 19712, Note_off_c, 1, 65, 53
3, 19712, Note_off_c, 1, 60, 53
3, 19968, Note_on_c, 1, 70, 85
3, 19968, Note_on_c, 1, 65, 85
3, 19968, Note_on_c, 1, 62, 85
3, 20352, Note_off_c, 1, 70, 53
3, 20352, Note_off_c, 1, 65, 53
3, 20352, Note_off_c, 1, 62, 53
3, 20544, Note_on_c, 1, 65, 85
3, 20544, Note_on_c, 1, 62, 85
3, 20544, Note_on_c, 1, 70, 85
3, 21056, Note_off_c, 1, 65, 53
3, 21056, Note_off_c, 1, 62, 53
3, 21312, Note_on_c, 1, 72, 85
3, 21312, Note_on_c, 1, 67, 85
3, 21312, Note_on_c, 1, 63, 85
3, 21504, Note_off_c, 1, 70, 53
3, 22016, Note_off_c, 1, 63, 53
3, 22016, Note_off_c, 1, 67, 53
3, 22016, Note_off_c, 1, 72, 53
3, 22272, Note_on_c, 1, 70, 85
3, 22272, Note_on_c, 1, 67, 85
3, 22272, Note_on_c, 1, 63, 85
3, 22784, Note_off_c, 1, 70, 53
3, 22784, Note_off_c, 1, 67, 53
3, 22784, Note_off_c, 1, 63, 53
3, 23040, Note_on_c, 1, 69, 85
3, 23040, Note_on_c, 1, 65, 85
3, 23040, Note_on_c, 1, 60, 85
3, 23552, Note_off_c, 1, 69, 53
3, 23552, Note_off_c, 1, 65, 53
3, 23552, Note_off_c, 1, 60, 53
3, 23808, Note_on_c, 1, 69, 85
3, 23808, Note_on_c, 1, 65, 85
3, 23808, Note_on_c, 1, 60, 85
3, 24320, Note_off_c, 1, 69, 53
3, 24320, Note_off_c, 1, 65, 53
3, 24320, Note_off_c, 1, 60, 53
3, 24576, Note_on_c, 1, 70, 85
3, 24576, Note_on_c, 1, 67, 85
3, 24576, Note_on_c, 1, 62, 85
3, 25088, Note_off_c, 1, 70, 53
3, 25088, Note_off_c, 1, 67, 53
3, 25088, Note_off_c, 1, 62, 53
3, 25344, Note_on_c, 1, 70, 85
3, 25344, Note_on_c, 1, 65, 85
3, 25344, Note_on_c, 1, 62, 85
3, 25728, Note_off_c, 1, 70, 53
3, 25728, Note_off_c, 1, 65, 53
3, 25728, Note_off_c, 1, 62, 53
3, 25920, Note_on_c, 1, 72, 85
3, 25920, Note_on_c, 1, 67, 85
3, 25920, Note_on_c, 1, 63, 85
3, 26624, Note_off_c, 1, 63, 53
3, 26624, Note_off_c, 1, 67, 53
3, 26624, Note_off_c, 1, 72, 53
3, 26880, Note_on_c, 1, 72, 85
3, 26880, Note_on_c, 1, 67, 85
3, 26880, Note_on_c, 1, 63, 85
3, 27392, Note_off_c, 1, 72, 53
3, 27392, Note_off_c, 1, 67, 53
3, 27392, Note_off_c, 1, 63, 53
3, 27648, Note_on_c, 1, 72, 85
3, 27648, Note_on_c, 1, 69, 85
3, 27648, Note_on_c, 1, 65, 85
3, 28160, Note_off_c, 1, 72, 53
3, 28160, Note_off_c, 1, 69, 53
3, 28160, Note_off_c, 1, 65, 53
3, 28416, Note_on_c, 1, 70, 85
3, 28416, Note_on_c, 1, 67, 85
3, 28416, Note_on_c, 1, 63, 85
3, 28928, Note_off_c, 1, 70, 53
3, 28928, Note_off_c, 1, 67, 53
3, 28928, Note_off_c, 1, 63, 53
3, 29184, Note_on_c, 1, 72, 85
3, 29184, Note_on_c, 1, 69, 85
3, 29184, Note_on_c, 1, 65, 85
3, 29568, Note_off_c, 1, 72, 53
3, 29568, Note_off_c, 1, 69, 53
3, 29568, Note_off_c, 1, 65, 53
3, 29760, Note_on_c, 1, 70, 85
3, 29760, Note_on_c, 1, 67, 85
3, 29760, Note_on_c, 1, 63, 85
3, 30144, Note_off_c, 1, 70, 53
3, 30144, Note_off_c, 1, 67, 53
3, 30144, Note_off_c, 1, 63, 53
3, 30336, Note_on_c, 1, 72, 85
3, 30336, Note_on_c, 1, 69, 85
3, 30336, Note_on_c, 1, 65, 85
3, 30592, Note_off_c, 1, 72, 53
3, 30720, Note_off_c, 1, 69, 53
3, 30720, Note_off_c, 1, 65, 53
3, 30720, Note_on_c, 1, 74, 85
3, 30720, Note_on_c, 1, 70, 85
3, 30720, Note_on_c, 1, 67, 85
3, 31872, Note_off_c, 1, 74, 53
3, 31872, Note_off_c, 1, 70, 53
3, 31872, Note_off_c, 1, 67, 53
3, 32064, Note_on_c, 1, 74, 85
3, 32064, Note_on_c, 1, 69, 85
3, 32064, Note_on_c, 1, 66, 85
3, 33284, Note_off_c, 1, 69, 53
3, 33284, Note_off_c, 1, 74, 53
3, 33604, Note_off_c, 1, 66, 53
3, 33792, Note_on_c, 1, 70, 78
3, 33792, Note_on_c, 1, 65, 78
3, 33792, Note_on_c, 1, 62, 78
3, 34304, Note_off_c, 1, 70, 49
3, 34304, Note_off_c, 1, 65, 49
3, 34304, Note_off_c, 1, 62, 49
3, 34560, Note_on_c, 1, 72, 78
3, 34560, Note_on_c, 1, 69, 78
3, 34560, Note_on_c, 1, 65, 78
3, 34944, Note_off_c, 1, 72, 49
3, 34944, Note_off_c, 1, 69, 49
3, 34944, Note_off_c, 1, 65, 49
3, 35520, Note_on_c, 1, 65, 78
3, 35520, Note_on_c, 1, 60, 78
3, 35648, Note_off_c, 1, 65, 49
3, 35648, Note_off_c, 1, 60, 49
3, 35712, Note_on_c, 1, 62, 78
3, 35712, Note_on_c, 1, 67, 78
3, 35840, Note_off_c, 1, 62, 49
3, 35840, Note_off_c, 1, 67, 49
3, 35904, Note_on_c, 1, 65, 78
3, 35904, Note_on_c, 1, 60, 78
3, 36032, Note_off_c, 1, 65, 49
3, 36032, Note_off_c, 1, 60, 49
3, 36096, Note_on_c, 1, 63, 78
3, 36096, Note_on_c, 1, 67, 78
3, 36096, Note_on_c, 1, 70, 78
3, 36352, Note_off_c, 1, 63, 49
3, 36352, Note_off_c, 1, 67, 49
3, 36352, Note_off_c, 1, 70, 49
3, 36480, Note_on_c, 1, 65, 78
3, 36480, Note_on_c, 1, 69, 78
3, 36480, Note_on_c, 1, 72, 78
3, 36736, Note_off_c, 1, 65, 49
3, 36736, Note_off_c, 1, 69, 49
3, 36736, Note_off_c, 1, 72, 49
3, 36864, Note_on_c, 1, 70, 78
3, 36864, Note_on_c, 1, 65, 78
3, 36864, Note_on_c, 1, 62, 78
3, 37376, Note_off_c, 1, 70, 49
3, 37376, Note_off_c, 1, 65, 49
3, 37376, Note_off_c, 1, 62, 49
3, 37632, Note_on_c, 1, 72, 78
3, 37632, Note_on_c, 1, 69, 78
3, 37632, Note_on_c, 1, 65, 78
3, 38016, Note_off_c, 1, 72, 49
3, 38016, Note_off_c, 1, 69, 49
3, 38016, Note_off_c, 1, 65, 49
3, 38592, Note_on_c, 1, 65, 78
3, 38592, Note_on_c, 1, 60, 78
3, 38720, Note_off_c, 1, 65, 49
3, 38720, Note_off_c, 1, 60, 49
3, 38784, Note_on_c, 1, 62, 78
3, 38784, Note_on_c, 1, 67, 78
3, 38912, Note_off_c, 1, 62, 49
3, 38912, Note_off_c, 1, 67, 49
3, 38976, Note_on_c, 1, 65, 78
3, 38976, Note_on_c, 1, 60, 78
3, 39104, Note_off_c, 1, 65, 49
3, 39104, Note_off_c, 1, 60, 49
3, 39168, Note_on_c, 1, 69, 78
3, 39168, Note_on_c, 1, 65, 78
3, 39168, Note_on_c, 1, 60, 78
3, 39424, Note_off_c, 1, 69, 49
3, 39424, Note_off_c, 1, 65, 49
3, 39424, Note_off_c, 1, 60, 49
3, 39552, Note_on_c, 1, 69, 78
3, 39552, Note_on_c, 1, 65, 78
3, 39552, Note_on_c, 1, 60, 78
3, 39808, Note_off_c, 1, 69, 49
3, 39808, Note_off_c, 1, 65, 49
3, 39808, Note_off_c, 1, 60, 49
3, 39936, Note_on_c, 1, 70, 78
3, 39936, Note_on_c, 1, 67, 78
3, 39936, Note_on_c, 1, 62, 78
3, 40448, Note_off_c, 1, 70, 49
3, 40448, Note_off_c, 1, 67, 49
3, 40448, Note_off_c, 1, 62, 49
3, 40704, Note_on_c, 1, 69, 78
3, 40704, Note_on_c, 1, 65, 78
3, 40704, Note_on_c, 1, 60, 78
3, 41088, Note_off_c, 1, 69, 49
3, 41088, Note_off_c, 1, 65, 49
3, 41088, Note_off_c, 1, 60, 49
3, 41664, Note_on_c, 1, 65, 78
3, 41664, Note_on_c, 1, 60, 78
3, 41792, Note_off_c, 1, 65, 49
3, 41792, Note_off_c, 1, 60, 49
3, 41856, Note_on_c, 1, 67, 78
3, 41856, Note_on_c, 1, 62, 78
3, 41984, Note_off_c, 1, 67, 49
3, 41984, Note_off_c, 1, 62, 49
3, 42048, Note_on_c, 1, 65, 78
3, 42048, Note_on_c, 1, 60, 78
3, 42176, Note_off_c, 1, 65, 49
3, 42176, Note_off_c, 1, 60, 49
3, 42240, Note_on_c, 1, 70, 78
3, 42240, Note_on_c, 1, 67, 78
3, 42240, Note_on_c, 1, 63, 78
3, 42496, Note_off_c, 1, 70, 49
3, 42496, Note_off_c, 1, 67, 49
3, 42496, Note_off_c, 1, 63, 49
3, 42624, Note_on_c, 1, 72, 78
3, 42624, Note_on_c, 1, 69, 78
3, 42624, Note_on_c, 1, 65, 78
3, 42880, Note_off_c, 1, 72, 49
3, 42880, Note_off_c, 1, 69, 49
3, 42880, Note_off_c, 1, 65, 49
3, 43008, Note_on_c, 1, 74, 78
3, 43008, Note_on_c, 1, 70, 78
3, 43008, Note_on_c, 1, 67, 78
3, 44160, Note_off_c, 1, 74, 49
3, 44160, Note_off_c, 1, 70, 49
3, 44160, Note_off_c, 1, 67, 49
3, 44352, Note_on_c, 1, 74, 78
3, 44352, Note_on_c, 1, 69, 78
3, 44352, Note_on_c, 1, 66, 78
3, 45892, Note_off_c, 1, 74, 49
3, 45892, Note_off_c, 1, 69, 49
3, 45892, Note_off_c, 1, 66, 49
3, 46080, Note_on_c, 1, 70, 57
3, 46080, Note_on_c, 1, 67, 57
3, 46080, Note_on_c, 1, 62, 57
3, 46692, Note_off_c, 1, 70, 35
3, 46692, Note_off_c, 1, 67, 35
3, 46692, Note_off_c, 1, 62, 35
3, 46848, Note_on_c, 1, 69, 57
3, 46848, Note_on_c, 1, 65, 57
3, 46848, Note_on_c, 1, 60, 57
3, 47460, Note_off_c, 1, 69, 35
3, 47460, Note_off_c, 1, 65, 35
3, 47460, Note_off_c, 1, 60, 35
3, 47616, Note_on_c, 1, 70, 85
3, 47616, Note_on_c, 1, 67, 85
3, 47616, Note_on_c, 1, 63, 85
3, 48128, Note_off_c, 1, 70, 53
3, 48128, Note_off_c, 1, 67, 53
3, 48128, Note_off_c, 1, 63, 53
3, 48384, Note_on_c, 1, 65, 85
3, 48384, Note_on_c, 1, 62, 85
3, 48384, Note_on_c, 1, 70, 85
3, 48640, Note_off_c, 1, 65, 53
3, 48640, Note_off_c, 1, 62, 53
3, 48768, Note_on_c, 1, 69, 85
3, 48768, Note_on_c, 1, 65, 85
3, 48768, Note_on_c, 1, 60, 85
3, 49024, Note_off_c, 1, 69, 53
3, 49024, Note_off_c, 1, 65, 53
3, 49024, Note_off_c, 1, 60, 53
3, 49152, Note_off_c, 1, 70, 53
3, 49152, Note_on_c, 1, 70, 85
3, 49152, Note_on_c, 1, 67, 85
3, 49152, Note_on_c, 1, 62, 85
3, 49664, Note_off_c, 1, 70, 53
3, 49664, Note_off_c, 1, 67, 53
3, 49664, Note_off_c, 1, 62, 53
3, 49920, Note_on_c, 1, 60, 85
3, 49920, Note_on_c, 1, 65, 85
3, 49920, Note_on_c, 1, 69, 85
3, 50432, Note_off_c, 1, 60, 53
3, 50432, Note_off_c, 1, 65, 53
3, 50432, Note_off_c, 1, 69, 53
3, 50688, Note_on_c, 1, 62, 85
3, 50688, Note_on_c, 1, 65, 85
3, 50688, Note_on_c, 1, 70, 85
3, 51072, Note_off_c, 1, 62, 53
3, 51072, Note_off_c, 1, 65, 53
3, 51072, Note_off_c, 1, 70, 53
3, 51264, Note_on_c, 1, 70, 85
3, 51264, Note_on_c, 1, 67, 85
3, 51264, Note_on_c, 1, 63, 85
3, 51776, Note_off_c, 1, 70, 53
3, 51776, Note_off_c, 1, 67, 53
3, 51776, Note_off_c, 1, 63, 53
3, 52032, Note_on_c, 1, 70, 85
3, 52032, Note_on_c, 1, 65, 85
3, 52032, Note_on_c, 1, 62, 85
3, 52736, Note_off_c, 1, 70, 49
3, 52736, Note_off_c, 1, 62, 49
3, 52992, Note_on_c, 1, 60, 85
3, 52992, Note_on_c, 1, 65, 85
3, 52992, Note_on_c, 1, 69, 85
3, 53504, Note_off_c, 1, 65, 49
3, 53504, Note_off_c, 1, 60, 53
3, 53504, Note_off_c, 1, 65, 53
3, 53504, Note_off_c, 1, 69, 53
3, 53760, Note_on_c, 1, 70, 85
3, 53760, Note_on_c, 1, 67, 85
3, 53760, Note_on_c, 1, 63, 85
3, 54272, Note_off_c, 1, 70, 53
3, 54272, Note_off_c, 1, 67, 53
3, 54272, Note_off_c, 1, 63, 53
3, 54528, Note_on_c, 1, 70, 85
3, 54528, Note_on_c, 1, 65, 85
3, 54528, Note_on_c, 1, 62, 85
3, 54784, Note_off_c, 1, 70, 53
3, 54784, Note_off_c, 1, 65, 53
3, 54784, Note_off_c, 1, 62, 53
3, 54912, Note_on_c, 1, 69, 85
3, 54912, Note_on_c, 1, 65, 85
3, 54912, Note_on_c, 1, 60, 85
3, 55168, Note_off_c, 1, 69, 53
3, 55168, Note_off_c, 1, 65, 53
3, 55168, Note_off_c, 1, 60, 53
3, 55296, Note_on_c, 1, 70, 85
3, 55296, Note_on_c, 1, 67, 85
3, 55296, Note_on_c, 1, 62, 85
3, 55808, Note_off_c, 1, 70, 53
3, 55808, Note_off_c, 1, 67, 53
3, 55808, Note_off_c, 1, 62, 53
3, 56064, Note_on_c, 1, 69, 85
3, 56064, Note_on_c, 1, 65, 85
3, 56064, Note_on_c, 1, 60, 85
3, 56576, Note_off_c, 1, 69, 53
3, 56576, Note_off_c, 1, 65, 53
3, 56576, Note_off_c, 1, 60, 53
3, 56832, Note_on_c, 1, 70, 85
3, 56832, Note_on_c, 1, 65, 85
3, 56832, Note_on_c, 1, 62, 85
3, 57216, Note_off_c, 1, 70, 53
3, 57216, Note_off_c, 1, 65, 53
3, 57216, Note_off_c, 1, 62, 53
3, 57408, Note_on_c, 1, 65, 85
3, 57408, Note_on_c, 1, 62, 85
3, 57408, Note_on_c, 1, 70, 85
3, 57920, Note_off_c, 1, 65, 53
3, 57920, Note_off_c, 1, 62, 53
3, 58176, Note_on_c, 1, 72, 85
3, 58176, Note_on_c, 1, 67, 85
3, 58176, Note_on_c, 1, 63, 85
3, 58368, Note_off_c, 1, 70, 53
3, 58880, Note_off_c, 1, 72, 49
3, 58880, Note_off_c, 1, 67, 49
3, 58880, Note_off_c, 1, 63, 49
3, 59136, Note_on_c, 1, 70, 85
3, 59136, Note_on_c, 1, 67, 85
3, 59136, Note_on_c, 1, 63, 85
3, 59648, Note_off_c, 1, 70, 53
3, 59648, Note_off_c, 1, 67, 53
3, 59648, Note_off_c, 1, 63, 53
3, 59904, Note_on_c, 1, 69, 85
3, 59904, Note_on_c, 1, 65, 85
3, 59904, Note_on_c, 1, 60, 85
3, 60416, Note_off_c, 1, 69, 53
3, 60416, Note_off_c, 1, 65, 53
3, 60416, Note_off_c, 1, 60, 53
3, 60672, Note_on_c, 1, 69, 85
3, 60672, Note_on_c, 1, 65, 85
3, 60672, Note_on_c, 1, 60, 85
3, 61184, Note_off_c, 1, 69, 53
3, 61184, Note_off_c, 1, 65, 53
3, 61184, Note_off_c, 1, 60, 53
3, 61440, Note_on_c, 1, 70, 85
3, 61440, Note_on_c, 1, 67, 85
3, 61440, Note_on_c, 1, 62, 85
3, 61952, Note_off_c, 1, 70, 53
3, 61952, Note_off_c, 1, 67, 53
3, 61952, Note_off_c, 1, 62, 53
3, 62208, Note_on_c, 1, 70, 85
3, 62208, Note_on_c, 1, 65, 85
3, 62208, Note_on_c, 1, 62, 85
3, 62592, Note_off_c, 1, 70, 53
3, 62592, Note_off_c, 1, 65, 53
3, 62592, Note_off_c, 1, 62, 53
3, 62784, Note_on_c, 1, 72, 85
3, 62784, Note_on_c, 1, 67, 85
3, 62784, Note_on_c, 1, 63, 85
3, 63488, Note_off_c, 1, 72, 49
3, 63488, Note_off_c, 1, 67, 49
3, 63488, Note_off_c, 1, 63, 49
3, 63744, Note_on_c, 1, 72, 85
3, 63744, Note_on_c, 1, 67, 85
3, 63744, Note_on_c, 1, 63, 85
3, 64256, Note_off_c, 1, 72, 53
3, 64256, Note_off_c, 1, 67, 53
3, 64256, Note_off_c, 1, 63, 53
3, 64512, Note_on_c, 1, 72, 85
3, 64512, Note_on_c, 1, 69, 85
3, 64512, Note_on_c, 1, 65, 85
3, 65024, Note_off_c, 1, 72, 53
3, 65024, Note_off_c, 1, 69, 53
3, 65024, Note_off_c, 1, 65, 53
3, 65280, Note_on_c, 1, 70, 85
3, 65280, Note_on_c, 1, 67, 85
3, 65280, Note_on_c, 1, 63, 85
3, 65792, Note_off_c, 1, 70, 53
3, 65792, Note_off_c, 1, 67, 53
3, 65792, Note_off_c, 1, 63, 53
3, 66048, Note_on_c, 1, 72, 85
3, 66048, Note_on_c, 1, 69, 85
3, 66048, Note_on_c, 1, 65, 85
3, 66432, Note_off_c, 1, 72, 53
3, 66432, Note_off_c, 1, 69, 53
3, 66432, Note_off_c, 1, 65, 53
3, 66624, Note_on_c, 1, 70, 85
3, 66624, Note_on_c, 1, 67, 85
3, 66624, Note_on_c, 1, 63, 85
3, 67008, Note_off_c, 1, 70, 53
3, 67008, Note_off_c, 1, 67, 53
3, 67008, Note_off_c, 1, 63, 53
3, 67200, Note_on_c, 1, 72, 85
3, 67200, Note_on_c, 1, 69, 85
3, 67200, Note_on_c, 1, 65, 85
3, 67456, Note_off_c, 1, 72, 53
3, 67584, Note_off_c, 1, 69, 53
3, 67584, Note_off_c, 1, 65, 53
3, 67584, Note_on_c, 1, 74, 85
3, 67584, Note_on_c, 1, 70, 85
3, 67584, Note_on_c, 1, 67, 85
3, 68736, Note_off_c, 1, 74, 53
3, 68736, Note_off_c, 1, 70, 53
3, 68736, Note_off_c, 1, 67, 53
3, 68928, Note_on_c, 1, 74, 85
3, 68928, Note_on_c, 1, 69, 85
3, 68928, Note_on_c, 1, 66, 85
3, 70148, Note_off_c, 1, 74, 49
3, 70148, Note_off_c, 1, 69, 49
3, 70468, Note_off_c, 1, 66, 49
3, 70656, Note_on_c, 1, 70, 78
3, 70656, Note_on_c, 1, 65, 78
3, 70656, Note_on_c, 1, 62, 78
3, 71168, Note_off_c, 1, 70, 49
3, 71168, Note_off_c, 1, 65, 49
3, 71168, Note_off_c, 1, 62, 49
3, 71424, Note_on_c, 1, 72, 78
3, 71424, Note_on_c, 1, 69, 78
3, 71424, Note_on_c, 1, 65, 78
3, 71808, Note_off_c, 1, 72, 49
3, 71808, Note_off_c, 1, 69, 49
3, 71808, Note_off_c, 1, 65, 49
3, 72384, Note_on_c, 1, 65, 78
3, 72384, Note_on_c, 1, 60, 78
3, 72512, Note_off_c, 1, 65, 49
3, 72512, Note_off_c, 1, 60, 49
3, 72576, Note_on_c, 1, 62, 78
3, 72576, Note_on_c, 1, 67, 78
3, 72704, Note_off_c, 1, 62, 49
3, 72704, Note_off_c, 1, 67, 49
3, 72768, Note_on_c, 1, 65, 78
3, 72768, Note_on_c, 1, 60, 78
3, 72896, Note_off_c, 1, 65, 49
3, 72896, Note_off_c, 1, 60, 49
3, 72960, Note_on_c, 1, 63, 78
3, 72960, Note_on_c, 1, 67, 78
3, 72960, Note_on_c, 1, 70, 78
3, 73216, Note_off_c, 1, 63, 49
3, 73216, Note_off_c, 1, 67, 49
3, 73216, Note_off_c, 1, 70, 49
3, 73344, Note_on_c, 1, 65, 78
3, 73344, Note_on_c, 1, 69, 78
3, 73344, Note_on_c, 1, 72, 78
3, 73600, Note_off_c, 1, 65, 49
3, 73600, Note_off_c, 1, 69, 49
3, 73600, Note_off_c, 1, 72, 49
3, 73728, Note_on_c, 1, 70, 78
3, 73728, Note_on_c, 1, 65, 78
3, 73728, Note_on_c, 1, 62, 78
3, 74240, Note_off_c, 1, 70, 49
3, 74240, Note_off_c, 1, 65, 49
3, 74240, Note_off_c, 1, 62, 49
3, 74496, Note_on_c, 1, 72, 78
3, 74496, Note_on_c, 1, 69, 78
3, 74496, Note_on_c, 1, 65, 78
3, 74880, Note_off_c, 1, 72, 49
3, 74880, Note_off_c, 1, 69, 49
3, 74880, Note_off_c, 1, 65, 49
3, 75456, Note_on_c, 1, 65, 78
3, 75456, Note_on_c, 1, 60, 78
3, 75584, Note_off_c, 1, 65, 49
3, 75584, Note_off_c, 1, 60, 49
3, 75648, Note_on_c, 1, 62, 78
3, 75648, Note_on_c, 1, 67, 78
3, 75776, Note_off_c, 1, 62, 49
3, 75776, Note_off_c, 1, 67, 49
3, 75840, Note_on_c, 1, 65, 78
3, 75840, Note_on_c, 1, 60, 78
3, 75968, Note_off_c, 1, 65, 49
3, 75968, Note_off_c, 1, 60, 49
3, 76032, Note_on_c, 1, 69, 78
3, 76032, Note_on_c, 1, 65, 78
3, 76032, Note_on_c, 1, 60, 78
3, 76288, Note_off_c, 1, 69, 49
3, 76288, Note_off_c, 1, 65, 49
3, 76288, Note_off_c, 1, 60, 49
3, 76416, Note_on_c, 1, 69, 78
3, 76416, Note_on_c, 1, 65, 78
3, 76416, Note_on_c, 1, 60, 78
3, 76672, Note_off_c, 1, 69, 49
3, 76672, Note_off_c, 1, 65, 49
3, 76672, Note_off_c, 1, 60, 49
3, 76800, Note_on_c, 1, 70, 78
3, 76800, Note_on_c, 1, 67, 78
3, 76800, Note_on_c, 1, 62, 78
3, 77312, Note_off_c, 1, 70, 49
3, 77312, Note_off_c, 1, 67, 49
3, 77312, Note_off_c, 1, 62, 49
3, 77568, Note_on_c, 1, 69, 78
3, 77568, Note_on_c, 1, 65, 78
3, 77568, Note_on_c, 1, 60, 78
3, 77952, Note_off_c, 1, 69, 49
3, 77952, Note_off_c, 1, 65, 49
3, 77952, Note_off_c, 1, 60, 49
3, 78528, Note_on_c, 1, 65, 78
3, 78528, Note_on_c, 1, 60, 78
3, 78656, Note_off_c, 1, 65, 49
3, 78656, Note_off_c, 1, 60, 49
3, 78720, Note_on_c, 1, 67, 78
3, 78720, Note_on_c, 1, 62, 78
3, 78848, Note_off_c, 1, 67, 49
3, 78848, Note_off_c, 1, 62, 49
3, 78912, Note_on_c, 1, 65, 78
3, 78912, Note_on_c, 1, 60, 78
3, 79040, Note_off_c, 1, 65, 49
3, 79040, Note_off_c, 1, 60, 49
3, 79104, Note_on_c, 1, 70, 78
3, 79104, Note_on_c, 1, 67, 78
3, 79104, Note_on_c, 1, 63, 78
3, 79360, Note_off_c, 1, 70, 49
3, 79360, Note_off_c, 1, 67, 49
3, 79360, Note_off_c, 1, 63, 49
3, 79488, Note_on_c, 1, 72, 78
3, 79488, Note_on_c, 1, 69, 78
3, 79488, Note_on_c, 1, 65, 78
3, 79744, Note_off_c, 1, 72, 49
3, 79744, Note_off_c, 1, 69, 49
3, 79744, Note_off_c, 1, 65, 49
3, 79872, Note_on_c, 1, 74, 78
3, 79872, Note_on_c, 1, 70, 78
3, 79872, Note_on_c, 1, 67, 78
3, 81024, Note_off_c, 1, 74, 49
3, 81024, Note_off_c, 1, 70, 49
3, 81024, Note_off_c, 1, 67, 49
3, 81216, Note_on_c, 1, 74, 78
3, 81216, Note_on_c, 1, 69, 78
3, 81216, Note_on_c, 1, 66, 78
3, 82756, Note_off_c, 1, 74, 49
3, 82756, Note_off_c, 1, 69, 49
3, 82756, Note_off_c, 1, 66, 49
3, 82944, Note_on_c, 1, 70, 57
3, 82944, Note_on_c, 1, 67, 57
3, 82944, Note_on_c, 1, 62, 57
3, 83556, Note_off_c, 1, 70, 35
3, 83556, Note_off_c, 1, 67, 35
3, 83556, Note_off_c, 1, 62, 35
3, 83712, Note_on_c, 1, 69, 57
3, 83712, Note_on_c, 1, 65, 57
3, 83712, Note_on_c, 1, 60, 57
3, 84324, Note_off_c, 1, 69, 35
3, 84324, Note_off_c, 1, 65, 35
3, 84324, Note_off_c, 1, 60, 35
3, 84480, Note_on_c, 1, 70, 85
3, 84480, Note_on_c, 1, 67, 85
3, 84480, Note_on_c, 1, 63, 85
3, 84992, Note_off_c, 1, 70, 53
3, 84992, Note_off_c, 1, 67, 53
3, 84992, Note_off_c, 1, 63, 53
3, 85248, Note_on_c, 1, 65, 85
3, 85248, Note_on_c, 1, 62, 85
3, 85248, Note_on_c, 1, 70, 85
3, 85504, Note_off_c, 1, 65, 53
3, 85504, Note_off_c, 1, 62, 53
3, 85632, Note_on_c, 1, 69, 85
3, 85632, Note_on_c, 1, 65, 85
3, 85632, Note_on_c, 1, 60, 85
3, 85888, Note_off_c, 1, 69, 53
3, 85888, Note_off_c, 1, 65, 53
3, 85888, Note_off_c, 1, 60, 53
3, 86016, Note_off_c, 1, 70, 53
3, 86016, Note_on_c, 1, 70, 85
3, 86016, Note_on_c, 1, 67, 85
3, 86016, Note_on_c, 1, 62, 85
3, 86528, Note_off_c, 1, 70, 53
3, 86528, Note_off_c, 1, 67, 53
3, 86528, Note_off_c, 1, 62, 53
3, 86784, Note_on_c, 1, 60, 85
3, 86784, Note_on_c, 1, 65, 85
3, 86784, Note_on_c, 1, 69, 85
3, 87296, Note_off_c, 1, 60, 53
3, 87296, Note_off_c, 1, 65, 53
3, 87296, Note_off_c, 1, 69, 53
3, 87552, Note_on_c, 1, 62, 85
3, 87552, Note_on_c, 1, 65, 85
3, 87552, Note_on_c, 1, 70, 85
3, 87936, Note_off_c, 1, 62, 53
3, 87936, Note_off_c, 1, 65, 53
3, 87936, Note_off_c, 1, 70, 53
3, 88128, Note_on_c, 1, 70, 85
3, 88128, Note_on_c, 1, 67, 85
3, 88128, Note_on_c, 1, 63, 85
3, 88640, Note_off_c, 1, 70, 53
3, 88640, Note_off_c, 1, 67, 53
3, 88640, Note_off_c, 1, 63, 53
3, 88896, Note_on_c, 1, 70, 85
3, 88896, Note_on_c, 1, 65, 85
3, 88896, Note_on_c, 1, 62, 85
3, 89600, Note_off_c, 1, 70, 49
3, 89600, Note_off_c, 1, 62, 49
3, 89856, Note_on_c, 1, 60, 85
3, 89856, Note_on_c, 1, 65, 85
3, 89856, Note_on_c, 1, 69, 85
3, 90368, Note_off_c, 1, 65, 49
3, 90368, Note_off_c, 1, 60, 53
3, 90368, Note_off_c, 1, 65, 53
3, 90368, Note_off_c, 1, 69, 53
3, 90624, Note_on_c, 1, 70, 85
3, 90624, Note_on_c, 1, 67, 85
3, 90624, Note_on_c, 1, 63, 85
3, 91136, Note_off_c, 1, 70, 53
3, 91136, Note_off_c, 1, 67, 53
3, 91136, Note_off_c, 1, 63, 53
3, 91392, Note_on_c, 1, 70, 85
3, 91392, Note_on_c, 1, 65, 85
3, 91392, Note_on_c, 1, 62, 85
3, 91648, Note_off_c, 1, 70, 53
3, 91648, Note_off_c, 1, 65, 53
3, 91648, Note_off_c, 1, 62, 53
3, 91776, Note_on_c, 1, 69, 85
3, 91776, Note_on_c, 1, 65, 85
3, 91776, Note_on_c, 1, 60, 85
3, 92032, Note_off_c, 1, 69, 53
3, 92032, Note_off_c, 1, 65, 53
3, 92032, Note_off_c, 1, 60, 53
3, 92160, Note_on_c, 1, 70, 85
3, 92160, Note_on_c, 1, 67, 85
3, 92160, Note_on_c, 1, 62, 85
3, 92672, Note_off_c, 1, 70, 53
3, 92672, Note_off_c, 1, 67, 53
3, 92672, Note_off_c, 1, 62, 53
3, 92928, Note_on_c, 1, 69, 85
3, 92928, Note_on_c, 1, 65, 85
3, 92928, Note_on_c, 1, 60, 85
3, 93440, Note_off_c, 1, 69, 53
3, 93440, Note_off_c, 1, 65, 53
3, 93440, Note_off_c, 1, 60, 53
3, 93696, Note_on_c, 1, 70, 85
3, 93696, Note_on_c, 1, 65, 85
3, 93696, Note_on_c, 1, 62, 85
3, 94080, Note_off_c, 1, 70, 53
3, 94080, Note_off_c, 1, 65, 53
3, 94080, Note_off_c, 1, 62, 53
3, 94272, Note_on_c, 1, 65, 85
3, 94272, Note_on_c, 1, 62, 85
3, 94272, Note_on_c, 1, 70, 85
3, 94784, Note_off_c, 1, 65, 53
3, 94784, Note_off_c, 1, 62, 53
3, 95040, Note_on_c, 1, 72, 85
3, 95040, Note_on_c, 1, 67, 85
3, 95040, Note_on_c, 1, 63, 85
3, 95232, Note_off_c, 1, 70, 53
3, 95744, Note_off_c, 1, 72, 49
3, 95744, Note_off_c, 1, 67, 49
3, 95744, Note_off_c, 1, 63, 49
3, 96000, Note_on_c, 1, 70, 85
3, 96000, Note_on_c, 1, 67, 85
3, 96000, Note_on_c, 1, 63, 85
3, 96512, Note_off_c, 1, 70, 53
3, 96512, Note_off_c, 1, 67, 53
3, 96512, Note_off_c, 1, 63, 53
3, 96768, Note_on_c, 1, 69, 85
3, 96768, Note_on_c, 1, 65, 85
3, 96768, Note_on_c, 1, 60, 85
3, 97280, Note_off_c, 1, 69, 53
3, 97280, Note_off_c, 1, 65, 53
3, 97280, Note_off_c, 1, 60, 53
3, 97536, Note_on_c, 1, 69, 85
3, 97536, Note_on_c, 1, 65, 85
3, 97536, Note_on_c, 1, 60, 85
3, 98048, Note_off_c, 1, 69, 53
3, 98048, Note_off_c, 1, 65, 53
3, 98048, Note_off_c, 1, 60, 53
3, 98304, Note_on_c, 1, 70, 85
3, 98304, Note_on_c, 1, 67, 85
3, 98304, Note_on_c, 1, 62, 85
3, 98816, Note_off_c, 1, 70, 53
3, 98816, Note_off_c, 1, 67, 53
3, 98816, Note_off_c, 1, 62, 53
3, 99072, Note_on_c, 1, 70, 85
3, 99072, Note_on_c, 1, 65, 85
3, 99072, Note_on_c, 1, 62, 85
3, 99456, Note_off_c, 1, 70, 53
3, 99456, Note_off_c, 1, 65, 53
3, 99456, Note_off_c, 1, 62, 53
3, 99648, Note_on_c, 1, 72, 85
3, 99648, Note_on_c, 1, 67, 85
3, 99648, Note_on_c, 1, 63, 85
3, 100352, Note_off_c, 1, 72, 49
3, 100352, Note_off_c, 1, 67, 49
3, 100352, Note_off_c, 1, 63, 49
3, 100608, Note_on_c, 1, 72, 85
3, 100608, Note_on_c, 1, 67, 85
3, 100608, Note_on_c, 1, 63, 85
3, 101120, Note_off_c, 1, 72, 53
3, 101120, Note_off_c, 1, 67, 53
3, 101120, Note_off_c, 1, 63, 53
3, 101376, Note_on_c, 1, 72, 85
3, 101376, Note_on_c, 1, 69, 85
3, 101376, Note_on_c, 1, 65, 85
3, 101888, Note_off_c, 1, 72, 53
3, 101888, Note_off_c, 1, 69, 53
3, 101888, Note_off_c, 1, 65, 53
3, 102144, Note_on_c, 1, 70, 85
3, 102144, Note_on_c, 1, 67, 85
3, 102144, Note_on_c, 1, 63, 85
3, 102656, Note_off_c, 1, 70, 53
3, 102656, Note_off_c, 1, 67, 53
3, 102656, Note_off_c, 1, 63, 53
3, 102912, Note_on_c, 1, 72, 85
3, 102912, Note_on_c, 1, 69, 85
3, 102912, Note_on_c, 1, 65, 85
3, 103296, Note_off_c, 1, 72, 53
3, 103296, Note_off_c, 1, 69, 53
3, 103296, Note_off_c, 1, 65, 53
3, 103488, Note_on_c, 1, 70, 85
3, 103488, Note_on_c, 1, 67, 85
3, 103488, Note_on_c, 1, 63, 85
3, 103872, Note_off_c, 1, 70, 53
3, 103872, Note_off_c, 1, 67, 53
3, 103872, Note_off_c, 1, 63, 53
3, 104064, Note_on_c, 1, 72, 85
3, 104064, Note_on_c, 1, 69, 85
3, 104064, Note_on_c, 1, 65, 85
3, 104320, Note_off_c, 1, 72, 53
3, 104448, Note_off_c, 1, 69, 53
3, 104448, Note_off_c, 1, 65, 53
3, 104448, Note_on_c, 1, 74, 85
3, 104448, Note_on_c, 1, 70, 85
3, 104448, Note_on_c, 1, 67, 85
3, 105600, Note_off_c, 1, 74, 53
3, 105600, Note_off_c, 1, 70, 53
3, 105600, Note_off_c, 1, 67, 53
3, 105792, Note_on_c, 1, 74, 85
3, 105792, Note_on_c, 1, 69, 85
3, 105792, Note_on_c, 1, 66, 85
3, 107012, Note_off_c, 1, 74, 49
3, 107012, Note_off_c, 1, 69, 49
3, 107332, Note_off_c, 1, 66, 49
3, 107520, Note_on_c, 1, 70, 78
3, 107520, Note_on_c, 1, 65, 78
3, 107520, Note_on_c, 1, 62, 78
3, 108032, Note_off_c, 1, 70, 49
3, 108032, Note_off_c, 1, 65, 49
3, 108032, Note_off_c, 1, 62, 49
3, 108288, Note_on_c, 1, 72, 78
3, 108288, Note_on_c, 1, 69, 78
3, 108288, Note_on_c, 1, 65, 78
3, 108672, Note_off_c, 1, 72, 49
3, 108672, Note_off_c, 1, 69, 49
3, 108672, Note_off_c, 1, 65, 49
3, 109248, Note_on_c, 1, 65, 78
3, 109248, Note_on_c, 1, 60, 78
3, 109376, Note_off_c, 1, 65, 49
3, 109376, Note_off_c, 1, 60, 49
3, 109440, Note_on_c, 1, 62, 78
3, 109440, Note_on_c, 1, 67, 78
3, 109568, Note_off_c, 1, 62, 49
3, 109568, Note_off_c, 1, 67, 49
3, 109632, Note_on_c, 1, 65, 78
3, 109632, Note_on_c, 1, 60, 78
3, 109760, Note_off_c, 1, 65, 49
3, 109760, Note_off_c, 1, 60, 49
3, 109824, Note_on_c, 1, 63, 78
3, 109824, Note_on_c, 1, 67, 78
3, 109824, Note_on_c, 1, 70, 78
3, 110080, Note_off_c, 1, 63, 49
3, 110080, Note_off_c, 1, 67, 49
3, 110080, Note_off_c, 1, 70, 49
3, 110208, Note_on_c, 1, 65, 78
3, 110208, Note_on_c, 1, 69, 78
3, 110208, Note_on_c, 1, 72, 78
3, 110464, Note_off_c, 1, 65, 49
3, 110464, Note_off_c, 1, 69, 49
3, 110464, Note_off_c, 1, 72, 49
3, 110592, Note_on_c, 1, 70, 78
3, 110592, Note_on_c, 1, 65, 78
3, 110592, Note_on_c, 1, 62, 78
3, 111104, Note_off_c, 1, 70, 49
3, 111104, Note_off_c, 1, 65, 49
3, 111104, Note_off_c, 1, 62, 49
3, 111360, Note_on_c, 1, 72, 78
3, 111360, Note_on_c, 1, 69, 78
3, 111360, Note_on_c, 1, 65, 78
3, 111744, Note_off_c, 1, 72, 49
3, 111744, Note_off_c, 1, 69, 49
3, 111744, Note_off_c, 1, 65, 49
3, 112320, Note_on_c, 1, 65, 78
3, 112320, Note_on_c, 1, 60, 78
3, 112448, Note_off_c, 1, 65, 49
3, 112448, Note_off_c, 1, 60, 49
3, 112512, Note_on_c, 1, 62, 78
3, 112512, Note_on_c, 1, 67, 78
3, 112640, Note_off_c, 1, 62, 49
3, 112640, Note_off_c, 1, 67, 49
3, 112704, Note_on_c, 1, 65, 78
3, 112704, Note_on_c, 1, 60, 78
3, 112832, Note_off_c, 1, 65, 49
3, 112832, Note_off_c, 1, 60, 49
3, 112896, Note_on_c, 1, 69, 78
3, 112896, Note_on_c, 1, 65, 78
3, 112896, Note_on_c, 1, 60, 78
3, 113152, Note_off_c, 1, 69, 49
3, 113152, Note_off_c, 1, 65, 49
3, 113152, Note_off_c, 1, 60, 49
3, 113280, Note_on_c, 1, 69, 78
3, 113280, Note_on_c, 1, 65, 78
3, 113280, Note_on_c, 1, 60, 78
3, 113536, Note_off_c, 1, 69, 49
3, 113536, Note_off_c, 1, 65, 49
3, 113536, Note_off_c, 1, 60, 49
3, 113664, Note_on_c, 1, 70, 78
3, 113664, Note_on_c, 1, 67, 78
3, 113664, Note_on_c, 1, 62, 78
3, 114176, Note_off_c, 1, 70, 49
3, 114176, Note_off_c, 1, 67, 49
3, 114176, Note_off_c, 1, 62, 49
3, 114432, Note_on_c, 1, 69, 78
3, 114432, Note_on_c, 1, 65, 78
3, 114432, Note_on_c, 1, 60, 78
3, 114816, Note_off_c, 1, 69, 49
3, 114816, Note_off_c, 1, 65, 49
3, 114816, Note_off_c, 1, 60, 49
3, 115392, Note_on_c, 1, 65, 78
3, 115392, Note_on_c, 1, 60, 78
3, 115520, Note_off_c, 1, 65, 49
3, 115520, Note_off_c, 1, 60, 49
3, 115584, Note_on_c, 1, 67, 78
3, 115584, Note_on_c, 1, 62, 78
3, 115712, Note_off_c, 1, 67, 49
3, 115712, Note_off_c, 1, 62, 49
3, 115776, Note_on_c, 1, 65, 78
3, 115776, Note_on_c, 1, 60, 78
3, 115904, Note_off_c, 1, 65, 49
3, 115904, Note_off_c, 1, 60, 49
3, 115968, Note_on_c, 1, 70, 78
3, 115968, Note_on_c, 1, 67, 78
3, 115968, Note_on_c, 1, 63, 78
3, 116224, Note_off_c, 1, 70, 49
3, 116224, Note_off_c, 1, 67, 49
3, 116224, Note_off_c, 1, 63, 49
3, 116352, Note_on_c, 1, 72, 78
3, 116352, Note_on_c, 1, 69, 78
3, 116352, Note_on_c, 1, 65, 78
3, 116608, Note_off_c, 1, 72, 49
3, 116608, Note_off_c, 1, 69, 49
3, 116608, Note_off_c, 1, 65, 49
3, 116736, Note_on_c, 1, 74, 78
3, 116736, Note_on_c, 1, 70, 78
3, 116736, Note_on_c, 1, 67, 78
3, 117888, Note_off_c, 1, 74, 49
3, 117888, Note_off_c, 1, 70, 49
3, 117888, Note_off_c, 1, 67, 49
3, 118080, Note_on_c, 1, 74, 78
3, 118080, Note_on_c, 1, 69, 78
3, 118080, Note_on_c, 1, 66, 78
3, 119620, Note_off_c, 1, 74, 49
3, 119620, Note_off_c, 1, 69, 49
3, 119620, Note_off_c, 1, 66, 49
3, 119808, Note_on_c, 1, 70, 78
3, 119808, Note_on_c, 1, 65, 78
3, 119808, Note_on_c, 1, 62, 78
3, 120320, Note_off_c, 1, 70, 49
3, 120320, Note_off_c, 1, 65, 49
3, 120320, Note_off_c, 1, 62, 49
3, 120576, Note_on_c, 1, 72, 78
3, 120576, Note_on_c, 1, 69, 78
3, 120576, Note_on_c, 1, 65, 78
3, 120960, Note_off_c, 1, 72, 49
3, 120960, Note_off_c, 1, 69, 49
3, 120960, Note_off_c, 1, 65, 49
3, 121536, Note_on_c, 1, 65, 78
3, 121536, Note_on_c, 1, 60, 78
3, 121664, Note_off_c, 1, 65, 49
3, 121664, Note_off_c, 1, 60, 49
3, 121728, Note_on_c, 1, 62, 78
3, 121728, Note_on_c, 1, 67, 78
3, 121856, Note_off_c, 1, 62, 49
3, 121856, Note_off_c, 1, 67, 49
3, 121920, Note_on_c, 1, 65, 78
3, 121920, Note_on_c, 1, 60, 78
3, 122048, Note_off_c, 1, 65, 49
3, 122048, Note_off_c, 1, 60, 49
3, 122112, Note_on_c, 1, 63, 78
3, 122112, Note_on_c, 1, 67, 78
3, 122112, Note_on_c, 1, 70, 78
3, 122368, Note_off_c, 1, 63, 49
3, 122368, Note_off_c, 1, 67, 49
3, 122368, Note_off_c, 1, 70, 49
3, 122496, Note_on_c, 1, 65, 78
3, 122496, Note_on_c, 1, 69, 78
3, 122496, Note_on_c, 1, 72, 78
3, 122752, Note_off_c, 1, 65, 49
3, 122752, Note_off_c, 1, 69, 49
3, 122752, Note_off_c, 1, 72, 49
3, 122880, Note_on_c, 1, 70, 78
3, 122880, Note_on_c, 1, 65, 78
3, 122880, Note_on_c, 1, 62, 78
3, 123392, Note_off_c, 1, 70, 49
3, 123392, Note_off_c, 1, 65, 49
3, 123392, Note_off_c, 1, 62, 49
3, 123648, Note_on_c, 1, 72, 78
3, 123648, Note_on_c, 1, 69, 78
3, 123648, Note_on_c, 1, 65, 78
3, 124032, Note_off_c, 1, 72, 49
3, 124032, Note_off_c, 1, 69, 49
3, 124032, Note_off_c, 1, 65, 49
3, 124608, Note_on_c, 1, 65, 78
3, 124608, Note_on_c, 1, 60, 78
3, 124736, Note_off_c, 1, 65, 49
3, 124736, Note_off_c, 1, 60, 49
3, 124800, Note_on_c, 1, 62, 78
3, 124800, Note_on_c, 1, 67, 78
3, 124928, Note_off_c, 1, 62, 49
3, 124928, Note_off_c, 1, 67, 49
3, 124992, Note_on_c, 1, 65, 78
3, 124992, Note_on_c, 1, 60, 78
3, 125120, Note_off_c, 1, 65, 49
3, 125120, Note_off_c, 1, 60, 49
3, 125184, Note_on_c, 1, 69, 78
3, 125184, Note_on_c, 1, 65, 78
3, 125184, Note_on_c, 1, 60, 78
3, 125440, Note_off_c, 1, 69, 49
3, 125440, Note_off_c, 1, 65, 49
3, 125440, Note_off_c, 1, 60, 49
3, 125568, Note_on_c, 1, 69, 78
3, 125568, Note_on_c, 1, 65, 78
3, 125568, Note_on_c, 1, 60, 78
3, 125824, Note_off_c, 1, 69, 49
3, 125824, Note_off_c, 1, 65, 49
3, 125824, Note_off_c, 1, 60, 49
3, 125952, Note_on_c, 1, 70, 78
3, 125952, Note_on_c, 1, 67, 78
3, 125952, Note_on_c, 1, 62, 78
3, 126464, Note_off_c, 1, 70, 49
3, 126464, Note_off_c, 1, 67, 49
3, 126464, Note_off_c, 1, 62, 49
3, 126720, Note_on_c, 1, 69, 78
3, 126720, Note_on_c, 1, 65, 78
3, 126720, Note_on_c, 1, 60, 78
3, 127104, Note_off_c, 1, 69, 49
3, 127104, Note_off_c, 1, 65, 49
3, 127104, Note_off_c, 1, 60, 49
3, 127680, Note_on_c, 1, 65, 78
3, 127680, Note_on_c, 1, 60, 78
3, 127808, Note_off_c, 1, 65, 49
3, 127808, Note_off_c, 1, 60, 49
3, 127872, Note_on_c, 1, 67, 78
3, 127872, Note_on_c, 1, 62, 78
3, 128000, Note_off_c, 1, 67, 49
3, 128000, Note_off_c, 1, 62, 49
3, 128064, Note_on_c, 1, 65, 78
3, 128064, Note_on_c, 1, 60, 78
3, 128192, Note_off_c, 1, 65, 49
3, 128192, Note_off_c, 1, 60, 49
3, 128256, Note_on_c, 1, 70, 78
3, 128256, Note_on_c, 1, 67, 78
3, 128256, Note_on_c, 1, 63, 78
3, 128512, Note_off_c, 1, 70, 49
3, 128512, Note_off_c, 1, 67, 49
3, 128512, Note_off_c, 1, 63, 49
3, 128640, Note_on_c, 1, 72, 78
3, 128640, Note_on_c, 1, 69, 78
3, 128640, Note_on_c, 1, 65, 78
3, 128896, Note_off_c, 1, 72, 49
3, 128896, Note_off_c, 1, 69, 49
3, 128896, Note_off_c, 1, 65, 49
3, 129024, Note_on_c, 1, 74, 78
3, 129024, Note_on_c, 1, 67, 78
3, 130176, Note_off_c, 1, 74, 49
3, 130176, Note_off_c, 1, 67, 49
3, 130368, Note_on_c, 1, 74, 78
3, 130368, Note_on_c, 1, 66, 78
3, 130368, Note_on_c, 1, 69, 78
3, 131300, Note_off_c, 1, 66, 49
3, 131328, Note_off_c, 1, 74, 49
3, 131328, Note_off_c, 1, 69, 49
3, 131712, Note_on_c, 1, 69, 78
3, 131712, Note_on_c, 1, 65, 78
3, 131712, Note_on_c, 1, 74, 78
3, 132480, Note_off_c, 1, 69, 49
3, 132480, Note_off_c, 1, 65, 49
3, 132480, Note_off_c, 1, 74, 49
3, 132864, Note_on_c, 1, 72, 78
3, 132864, Note_on_c, 1, 64, 78
3, 132864, Note_on_c, 1, 67, 78
3, 134404, Note_off_c, 1, 72, 49
3, 134404, Note_off_c, 1, 64, 49
3, 135168, Note_off_c, 1, 67, 49
3, 135168, Note_on_c, 1, 71, 78
3, 135168, Note_on_c, 1, 67, 78
3, 135168, Note_on_c, 1, 62, 78
3, 135552, Note_off_c, 1, 71, 49
3, 135552, Note_off_c, 1, 67, 49
3, 135552, Note_off_c, 1, 62, 49
3, 135744, Note_on_c, 1, 71, 78
3, 135744, Note_on_c, 1, 67, 78
3, 135744, Note_on_c, 1, 62, 78
3, 136128, Note_off_c, 1, 71, 49
3, 136128, Note_off_c, 1, 67, 49
3, 136128, Note_off_c, 1, 62, 49
3, 136320, Note_on_c, 1, 72, 78
3, 136320, Note_on_c, 1, 67, 78
3, 136320, Note_on_c, 1, 64, 78
3, 136704, Note_off_c, 1, 72, 49
3, 136704, Note_off_c, 1, 67, 49
3, 136704, Note_off_c, 1, 64, 49
3, 136896, Note_on_c, 1, 72, 78
3, 136896, Note_on_c, 1, 67, 78
3, 136896, Note_on_c, 1, 63, 78
3, 137280, Note_off_c, 1, 72, 49
3, 137280, Note_off_c, 1, 67, 49
3, 137280, Note_off_c, 1, 63, 49
3, 137472, Note_on_c, 1, 74, 78
3, 137472, Note_on_c, 1, 69, 78
3, 137472, Note_on_c, 1, 66, 78
3, 139012, Note_off_c, 1, 74, 49
3, 139012, Note_off_c, 1, 69, 49
3, 139012, Note_off_c, 1, 66, 49
3, 139012, End_track
4, 0, Start_track
4, 0, Title_t, "Bass"
4, 0, Control_c, 2, 0, 0
4, 0, Program_c, 2, 35
4, 0, Key_signature, -2, "minor"
4, 0, Note_on_c, 2, 38, 127
4, 304, Note_off_c, 2, 38, 127
4, 384, Note_on_c, 2, 38, 127
4, 536, Note_off_c, 2, 38, 127
4, 576, Note_on_c, 2, 50, 127
4, 880, Note_off_c, 2, 50, 127
4, 960, Note_on_c, 2, 50, 127
4, 1112, Note_off_c, 2, 50, 127
4, 1152, Note_on_c, 2, 48, 127
4, 1456, Note_off_c, 2, 48, 127
4, 1536, Note_on_c, 2, 48, 127
4, 1688, Note_off_c, 2, 48, 127
4, 1728, Note_on_c, 2, 44, 127
4, 1880, Note_off_c, 2, 44, 127
4, 1920, Note_on_c, 2, 45, 127
4, 2072, Note_off_c, 2, 45, 127
4, 2112, Note_on_c, 2, 48, 127
4, 2264, Note_off_c, 2, 48, 127
4, 2304, Note_on_c, 2, 36, 127
4, 2608, Note_off_c, 2, 36, 127
4, 2688, Note_on_c, 2, 36, 127
4, 2840, Note_off_c, 2, 36, 127
4, 2880, Note_on_c, 2, 48, 127
4, 3184, Note_off_c, 2, 48, 127
4, 3264, Note_on_c, 2, 46, 127
4, 3568, Note_off_c, 2, 46, 127
4, 3648, Note_on_c, 2, 41, 127
4, 3952, Note_off_c, 2, 41, 127
4, 4032, Note_on_c, 2, 42, 127
4, 4184, Note_off_c, 2, 42, 127
4, 4224, Note_on_c, 2, 43, 127
4, 4376, Note_off_c, 2, 43, 127
4, 4416, Note_on_c, 2, 46, 127
4, 4568, Note_off_c, 2, 46, 127
4, 4608, Note_on_c, 2, 43, 127
4, 4912, Note_off_c, 2, 43, 127
4, 4992, Note_on_c, 2, 43, 127
4, 5144, Note_off_c, 2, 43, 127
4, 5184, Note_on_c, 2, 53, 127
4, 5488, Note_off_c, 2, 53, 127
4, 5568, Note_on_c, 2, 53, 127
4, 5720, Note_off_c, 2, 53, 127
4, 5952, Note_on_c, 2, 52, 127
4, 6256, Note_off_c, 2, 52, 127
4, 6336, Note_on_c, 2, 51, 127
4, 6640, Note_off_c, 2, 51, 127
4, 6720, Note_on_c, 2, 51, 127
4, 6796, Note_off_c, 2, 51, 127
4, 6816, Note_on_c, 2, 53, 127
4, 6892, Note_off_c, 2, 53, 127
4, 6912, Note_on_c, 2, 50, 127
4, 7524, Note_off_c, 2, 50, 127
4, 7680, Note_on_c, 2, 48, 127
4, 7756, Note_off_c, 2, 48, 127
4, 7776, Note_on_c, 2, 49, 127
4, 7852, Note_off_c, 2, 49, 127
4, 7872, Note_on_c, 2, 50, 127
4, 7948, Note_off_c, 2, 50, 127
4, 7968, Note_on_c, 2, 53, 127
4, 8044, Note_off_c, 2, 53, 127
4, 8256, Note_on_c, 2, 50, 127
4, 8408, Note_off_c, 2, 50, 127
4, 8448, Note_on_c, 2, 43, 127
4, 8600, Note_off_c, 2, 43, 127
4, 8640, Note_on_c, 2, 48, 127
4, 8716, Note_off_c, 2, 48, 127
4, 8736, Note_on_c, 2, 48, 127
4, 8812, Note_off_c, 2, 48, 127
4, 8832, Note_on_c, 2, 48, 127
4, 8908, Note_off_c, 2, 48, 127
4, 8928, Note_on_c, 2, 48, 127
4, 9004, Note_off_c, 2, 48, 127
4, 9024, Note_on_c, 2, 46, 127
4, 9100, Note_off_c, 2, 46, 127
4, 9120, Note_on_c, 2, 45, 127
4, 9196, Note_off_c, 2, 45, 127
4, 9216, Note_on_c, 2, 43, 127
4, 9520, Note_off_c, 2, 43, 127
4, 9600, Note_on_c, 2, 55, 127
4, 9904, Note_off_c, 2, 55, 127
4, 9984, Note_on_c, 2, 53, 127
4, 10288, Note_off_c, 2, 53, 127
4, 10368, Note_on_c, 2, 48, 127
4, 10672, Note_off_c, 2, 48, 127
4, 10752, Note_on_c, 2, 51, 127
4, 10880, Note_off_c, 2, 51, 123
4, 10944, Note_on_c, 2, 46, 127
4, 11072, Note_off_c, 2, 46, 123
4, 11136, Note_on_c, 2, 55, 127
4, 11264, Note_off_c, 2, 55, 123
4, 11328, Note_on_c, 2, 51, 127
4, 11456, Note_off_c, 2, 51, 123
4, 11520, Note_on_c, 2, 46, 127
4, 11648, Note_off_c, 2, 46, 123
4, 11712, Note_on_c, 2, 50, 127
4, 11840, Note_off_c, 2, 50, 123
4, 11904, Note_on_c, 2, 48, 127
4, 12032, Note_off_c, 2, 48, 123
4, 12096, Note_on_c, 2, 41, 127
4, 12224, Note_off_c, 2, 41, 123
4, 12288, Note_on_c, 2, 43, 127
4, 12544, Note_off_c, 2, 43, 123
4, 12672, Note_on_c, 2, 55, 127
4, 12928, Note_off_c, 2, 55, 123
4, 13056, Note_on_c, 2, 53, 127
4, 13312, Note_off_c, 2, 53, 123
4, 13440, Note_on_c, 2, 48, 127
4, 13696, Note_off_c, 2, 48, 123
4, 13824, Note_on_c, 2, 46, 127
4, 13952, Note_off_c, 2, 46, 123
4, 14016, Note_on_c, 2, 48, 127
4, 14144, Note_off_c, 2, 48, 123
4, 14208, Note_on_c, 2, 50, 127
4, 14336, Note_off_c, 2, 50, 123
4, 14400, Note_on_c, 2, 51, 127
4, 14656, Note_off_c, 2, 51, 123
4, 14784, Note_on_c, 2, 50, 127
4, 14912, Note_off_c, 2, 50, 123
4, 14976, Note_on_c, 2, 48, 127
4, 15104, Note_off_c, 2, 48, 123
4, 15168, Note_on_c, 2, 46, 127
4, 15616, Note_off_c, 2, 46, 123
4, 15744, Note_on_c, 2, 41, 127
4, 16000, Note_off_c, 2, 41, 123
4, 16128, Note_on_c, 2, 53, 127
4, 16256, Note_off_c, 2, 53, 123
4, 16320, Note_on_c, 2, 41, 127
4, 16448, Note_off_c, 2, 41, 123
4, 16512, Note_on_c, 2, 48, 127
4, 16768, Note_off_c, 2, 48, 123
4, 16896, Note_on_c, 2, 51, 127
4, 17024, Note_off_c, 2, 51, 123
4, 17088, Note_on_c, 2, 46, 127
4, 17216, Note_off_c, 2, 46, 123
4, 17280, Note_on_c, 2, 55, 127
4, 17408, Note_off_c, 2, 55, 123
4, 17472, Note_on_c, 2, 51, 127
4, 17600, Note_off_c, 2, 51, 123
4, 17664, Note_on_c, 2, 46, 127
4, 17920, Note_off_c, 2, 46, 123
4, 18048, Note_on_c, 2, 53, 127
4, 18304, Note_off_c, 2, 53, 123
4, 18432, Note_on_c, 2, 43, 127
4, 18688, Note_off_c, 2, 43, 123
4, 18816, Note_on_c, 2, 55, 127
4, 19072, Note_off_c, 2, 55, 123
4, 19200, Note_on_c, 2, 53, 127
4, 19456, Note_off_c, 2, 53, 123
4, 19584, Note_on_c, 2, 48, 127
4, 19840, Note_off_c, 2, 48, 123
4, 19968, Note_on_c, 2, 46, 127
4, 20096, Note_off_c, 2, 46, 123
4, 20160, Note_on_c, 2, 48, 127
4, 20288, Note_off_c, 2, 48, 123
4, 20352, Note_on_c, 2, 50, 127
4, 20480, Note_off_c, 2, 50, 123
4, 20544, Note_on_c, 2, 51, 127
4, 20800, Note_off_c, 2, 51, 123
4, 20928, Note_on_c, 2, 50, 127
4, 21056, Note_off_c, 2, 50, 123
4, 21120, Note_on_c, 2, 48, 127
4, 21248, Note_off_c, 2, 48, 123
4, 21312, Note_on_c, 2, 46, 127
4, 21760, Note_off_c, 2, 46, 123
4, 21888, Note_on_c, 2, 48, 127
4, 22016, Note_off_c, 2, 48, 123
4, 22080, Note_on_c, 2, 41, 127
4, 22208, Note_off_c, 2, 41, 123
4, 22272, Note_on_c, 2, 43, 127
4, 22528, Note_off_c, 2, 43, 123
4, 22656, Note_on_c, 2, 43, 127
4, 22784, Note_off_c, 2, 43, 123
4, 22848, Note_on_c, 2, 46, 127
4, 22976, Note_off_c, 2, 46, 123
4, 23040, Note_on_c, 2, 48, 127
4, 23296, Note_off_c, 2, 48, 123
4, 23424, Note_on_c, 2, 48, 127
4, 23552, Note_off_c, 2, 48, 123
4, 23616, Note_on_c, 2, 48, 127
4, 23872, Note_off_c, 2, 48, 123
4, 24000, Note_on_c, 2, 46, 127
4, 24128, Note_off_c, 2, 46, 123
4, 24192, Note_on_c, 2, 45, 127
4, 24320, Note_off_c, 2, 45, 123
4, 24384, Note_on_c, 2, 41, 127
4, 24512, Note_off_c, 2, 41, 123
4, 24576, Note_on_c, 2, 50, 127
4, 24832, Note_off_c, 2, 50, 123
4, 24960, Note_on_c, 2, 50, 127
4, 25152, Note_on_c, 2, 48, 127
4, 25216, Note_off_c, 2, 50, 123
4, 25344, Note_on_c, 2, 46, 127
4, 25408, Note_off_c, 2, 48, 123
4, 25472, Note_off_c, 2, 46, 123
4, 25536, Note_on_c, 2, 50, 127
4, 25664, Note_off_c, 2, 50, 123
4, 25728, Note_on_c, 2, 55, 127
4, 25856, Note_off_c, 2, 55, 123
4, 25920, Note_on_c, 2, 41, 127
4, 26048, Note_off_c, 2, 41, 123
4, 26112, Note_on_c, 2, 43, 127
4, 26240, Note_off_c, 2, 43, 123
4, 26304, Note_on_c, 2, 60, 127
4, 26432, Note_off_c, 2, 60, 123
4, 26496, Note_on_c, 2, 60, 127
4, 26624, Note_off_c, 2, 60, 123
4, 26688, Note_on_c, 2, 55, 127
4, 26816, Note_off_c, 2, 55, 123
4, 26880, Note_on_c, 2, 55, 127
4, 27008, Note_off_c, 2, 55, 123
4, 27072, Note_on_c, 2, 48, 127
4, 27200, Note_off_c, 2, 48, 123
4, 27264, Note_on_c, 2, 48, 127
4, 27392, Note_off_c, 2, 48, 123
4, 27456, Note_on_c, 2, 51, 127
4, 27584, Note_off_c, 2, 51, 123
4, 27648, Note_on_c, 2, 53, 127
4, 27776, Note_off_c, 2, 53, 123
4, 27840, Note_on_c, 2, 53, 127
4, 27968, Note_off_c, 2, 53, 123
4, 28032, Note_on_c, 2, 53, 127
4, 28160, Note_off_c, 2, 53, 123
4, 28224, Note_on_c, 2, 48, 127
4, 28352, Note_off_c, 2, 48, 123
4, 28416, Note_on_c, 2, 51, 127
4, 28544, Note_off_c, 2, 51, 123
4, 28608, Note_on_c, 2, 51, 127
4, 28736, Note_off_c, 2, 51, 123
4, 28800, Note_on_c, 2, 51, 127
4, 28928, Note_off_c, 2, 51, 123
4, 28992, Note_on_c, 2, 50, 127
4, 29120, Note_off_c, 2, 50, 123
4, 29184, Note_on_c, 2, 48, 127
4, 29312, Note_off_c, 2, 48, 123
4, 29376, Note_on_c, 2, 48, 127
4, 29504, Note_off_c, 2, 48, 123
4, 29568, Note_on_c, 2, 48, 127
4, 29696, Note_off_c, 2, 48, 123
4, 29760, Note_on_c, 2, 46, 127
4, 29888, Note_off_c, 2, 46, 123
4, 29952, Note_on_c, 2, 46, 127
4, 30080, Note_off_c, 2, 46, 123
4, 30144, Note_on_c, 2, 46, 127
4, 30272, Note_off_c, 2, 46, 123
4, 30336, Note_on_c, 2, 48, 127
4, 30464, Note_off_c, 2, 48, 123
4, 30528, Note_on_c, 2, 41, 127
4, 30656, Note_off_c, 2, 41, 123
4, 30720, Note_on_c, 2, 43, 127
4, 30848, Note_off_c, 2, 43, 123
4, 30912, Note_on_c, 2, 43, 127
4, 31040, Note_off_c, 2, 43, 123
4, 31104, Note_on_c, 2, 43, 127
4, 31232, Note_off_c, 2, 43, 123
4, 31296, Note_on_c, 2, 43, 127
4, 31424, Note_off_c, 2, 43, 123
4, 31488, Note_on_c, 2, 43, 127
4, 31616, Note_off_c, 2, 43, 123
4, 31680, Note_on_c, 2, 46, 127
4, 31808, Note_off_c, 2, 46, 123
4, 31872, Note_on_c, 2, 48, 127
4, 32000, Note_off_c, 2, 48, 123
4, 32064, Note_on_c, 2, 50, 127
4, 32384, Note_off_c, 2, 50, 123
4, 32448, Note_on_c, 2, 50, 127
4, 32704, Note_off_c, 2, 50, 123
4, 32832, Note_on_c, 2, 50, 127
4, 33152, Note_off_c, 2, 50, 123
4, 33216, Note_on_c, 2, 48, 127
4, 33344, Note_off_c, 2, 48, 123
4, 33408, Note_on_c, 2, 46, 127
4, 33536, Note_off_c, 2, 46, 123
4, 33600, Note_on_c, 2, 43, 127
4, 33728, Note_off_c, 2, 43, 123
4, 33792, Note_on_c, 2, 46, 115
4, 34304, Note_off_c, 2, 46, 73
4, 34560, Note_on_c, 2, 48, 115
4, 34944, Note_off_c, 2, 48, 73
4, 35136, Note_on_c, 2, 58, 115
4, 35456, Note_off_c, 2, 58, 73
4, 35520, Note_on_c, 2, 41, 115
4, 35648, Note_off_c, 2, 41, 73
4, 35712, Note_on_c, 2, 43, 115
4, 35840, Note_off_c, 2, 43, 73
4, 35904, Note_on_c, 2, 41, 115
4, 36032, Note_off_c, 2, 41, 73
4, 36096, Note_on_c, 2, 46, 115
4, 36352, Note_off_c, 2, 46, 73
4, 36480, Note_on_c, 2, 48, 115
4, 36736, Note_off_c, 2, 48, 73
4, 36864, Note_on_c, 2, 46, 115
4, 37376, Note_off_c, 2, 46, 73
4, 37632, Note_on_c, 2, 48, 115
4, 38016, Note_off_c, 2, 48, 73
4, 38208, Note_on_c, 2, 58, 115
4, 38528, Note_off_c, 2, 58, 73
4, 38592, Note_on_c, 2, 41, 115
4, 38720, Note_off_c, 2, 41, 73
4, 38784, Note_on_c, 2, 43, 115
4, 38912, Note_off_c, 2, 43, 73
4, 38976, Note_on_c, 2, 41, 115
4, 39104, Note_off_c, 2, 41, 73
4, 39168, Note_on_c, 2, 41, 115
4, 39424, Note_off_c, 2, 41, 73
4, 39552, Note_on_c, 2, 41, 115
4, 39808, Note_off_c, 2, 41, 73
4, 39936, Note_on_c, 2, 43, 115
4, 40320, Note_off_c, 2, 43, 73
4, 40512, Note_on_c, 2, 46, 115
4, 40640, Note_off_c, 2, 46, 73
4, 40704, Note_on_c, 2, 48, 115
4, 41088, Note_off_c, 2, 48, 73
4, 41280, Note_on_c, 2, 58, 115
4, 41600, Note_off_c, 2, 58, 73
4, 41664, Note_on_c, 2, 53, 115
4, 41792, Note_off_c, 2, 53, 73
4, 41856, Note_on_c, 2, 55, 115
4, 41984, Note_off_c, 2, 55, 73
4, 42048, Note_on_c, 2, 50, 115
4, 42176, Note_off_c, 2, 50, 73
4, 42240, Note_on_c, 2, 51, 115
4, 42368, Note_off_c, 2, 51, 73
4, 42432, Note_on_c, 2, 46, 115
4, 42560, Note_off_c, 2, 46, 73
4, 42624, Note_on_c, 2, 48, 115
4, 42752, Note_off_c, 2, 48, 73
4, 42816, Note_on_c, 2, 41, 115
4, 42944, Note_off_c, 2, 41, 73
4, 43008, Note_on_c, 2, 43, 115
4, 43136, Note_off_c, 2, 43, 73
4, 43200, Note_on_c, 2, 43, 115
4, 43328, Note_off_c, 2, 43, 73
4, 43392, Note_on_c, 2, 43, 115
4, 43520, Note_off_c, 2, 43, 73
4, 43584, Note_on_c, 2, 43, 115
4, 43712, Note_off_c, 2, 43, 73
4, 43776, Note_on_c, 2, 43, 115
4, 43904, Note_off_c, 2, 43, 73
4, 43968, Note_on_c, 2, 46, 115
4, 44096, Note_off_c, 2, 46, 73
4, 44160, Note_on_c, 2, 48, 115
4, 44288, Note_off_c, 2, 48, 73
4, 44352, Note_on_c, 2, 50, 115
4, 44672, Note_off_c, 2, 50, 73
4, 44736, Note_on_c, 2, 50, 115
4, 44992, Note_off_c, 2, 50, 73
4, 45120, Note_on_c, 2, 50, 115
4, 45376, Note_off_c, 2, 50, 73
4, 45504, Note_on_c, 2, 48, 115
4, 45632, Note_off_c, 2, 48, 73
4, 45696, Note_on_c, 2, 46, 115
4, 45824, Note_off_c, 2, 46, 73
4, 45888, Note_on_c, 2, 43, 115
4, 46016, Note_off_c, 2, 43, 73
4, 46080, Note_on_c, 2, 43, 127
4, 46384, Note_off_c, 2, 43, 127
4, 46464, Note_on_c, 2, 55, 127
4, 46768, Note_off_c, 2, 55, 127
4, 46848, Note_on_c, 2, 53, 127
4, 47152, Note_off_c, 2, 53, 127
4, 47232, Note_on_c, 2, 48, 127
4, 47536, Note_off_c, 2, 48, 127
4, 47616, Note_on_c, 2, 51, 127
4, 47744, Note_off_c, 2, 51, 123
4, 47808, Note_on_c, 2, 46, 127
4, 47936, Note_off_c, 2, 46, 123
4, 48000, Note_on_c, 2, 55, 127
4, 48128, Note_off_c, 2, 55, 123
4, 48192, Note_on_c, 2, 51, 127
4, 48320, Note_off_c, 2, 51, 123
4, 48384, Note_on_c, 2, 46, 127
4, 48512, Note_off_c, 2, 46, 123
4, 48576, Note_on_c, 2, 50, 127
4, 48704, Note_off_c, 2, 50, 123
4, 48768, Note_on_c, 2, 48, 127
4, 48896, Note_off_c, 2, 48, 123
4, 48960, Note_on_c, 2, 41, 127
4, 49088, Note_off_c, 2, 41, 123
4, 49152, Note_on_c, 2, 43, 127
4, 49408, Note_off_c, 2, 43, 123
4, 49536, Note_on_c, 2, 55, 127
4, 49792, Note_off_c, 2, 55, 123
4, 49920, Note_on_c, 2, 53, 127
4, 50176, Note_off_c, 2, 53, 123
4, 50304, Note_on_c, 2, 48, 127
4, 50560, Note_off_c, 2, 48, 123
4, 50688, Note_on_c, 2, 46, 127
4, 50816, Note_off_c, 2, 46, 123
4, 50880, Note_on_c, 2, 48, 127
4, 51008, Note_off_c, 2, 48, 123
4, 51072, Note_on_c, 2, 50, 127
4, 51200, Note_off_c, 2, 50, 123
4, 51264, Note_on_c, 2, 51, 127
4, 51520, Note_off_c, 2, 51, 123
4, 51648, Note_on_c, 2, 50, 127
4, 51776, Note_off_c, 2, 50, 123
4, 51840, Note_on_c, 2, 48, 127
4, 51968, Note_off_c, 2, 48, 123
4, 52032, Note_on_c, 2, 46, 127
4, 52480, Note_off_c, 2, 46, 73
4, 52608, Note_on_c, 2, 41, 127
4, 52864, Note_off_c, 2, 41, 123
4, 52992, Note_on_c, 2, 53, 127
4, 53120, Note_off_c, 2, 53, 123
4, 53184, Note_on_c, 2, 41, 127
4, 53312, Note_off_c, 2, 41, 123
4, 53376, Note_on_c, 2, 48, 127
4, 53632, Note_off_c, 2, 48, 123
4, 53760, Note_on_c, 2, 51, 127
4, 53888, Note_off_c, 2, 51, 123
4, 53952, Note_on_c, 2, 46, 127
4, 54080, Note_off_c, 2, 46, 123
4, 54144, Note_on_c, 2, 55, 127
4, 54272, Note_off_c, 2, 55, 123
4, 54336, Note_on_c, 2, 51, 127
4, 54464, Note_off_c, 2, 51, 123
4, 54528, Note_on_c, 2, 46, 127
4, 54784, Note_off_c, 2, 46, 123
4, 54912, Note_on_c, 2, 53, 127
4, 55168, Note_off_c, 2, 53, 123
4, 55296, Note_on_c, 2, 43, 127
4, 55552, Note_off_c, 2, 43, 123
4, 55680, Note_on_c, 2, 55, 127
4, 55936, Note_off_c, 2, 55, 123
4, 56064, Note_on_c, 2, 53, 127
4, 56320, Note_off_c, 2, 53, 123
4, 56448, Note_on_c, 2, 48, 127
4, 56704, Note_off_c, 2, 48, 123
4, 56832, Note_on_c, 2, 46, 127
4, 56960, Note_off_c, 2, 46, 123
4, 57024, Note_on_c, 2, 48, 127
4, 57152, Note_off_c, 2, 48, 123
4, 57216, Note_on_c, 2, 50, 127
4, 57344, Note_off_c, 2, 50, 123
4, 57408, Note_on_c, 2, 51, 127
4, 57664, Note_off_c, 2, 51, 123
4, 57792, Note_on_c, 2, 50, 127
4, 57920, Note_off_c, 2, 50, 123
4, 57984, Note_on_c, 2, 48, 127
4, 58112, Note_off_c, 2, 48, 123
4, 58176, Note_on_c, 2, 46, 127
4, 58624, Note_off_c, 2, 46, 73
4, 58752, Note_on_c, 2, 48, 127
4, 58880, Note_off_c, 2, 48, 123
4, 58944, Note_on_c, 2, 41, 127
4, 59072, Note_off_c, 2, 41, 123
4, 59136, Note_on_c, 2, 43, 127
4, 59392, Note_off_c, 2, 43, 123
4, 59520, Note_on_c, 2, 43, 127
4, 59648, Note_off_c, 2, 43, 123
4, 59712, Note_on_c, 2, 46, 127
4, 59840, Note_off_c, 2, 46, 123
4, 59904, Note_on_c, 2, 48, 127
4, 60160, Note_off_c, 2, 48, 123
4, 60288, Note_on_c, 2, 48, 127
4, 60416, Note_off_c, 2, 48, 123
4, 60480, Note_on_c, 2, 48, 127
4, 60736, Note_off_c, 2, 48, 123
4, 60864, Note_on_c, 2, 46, 127
4, 60992, Note_off_c, 2, 46, 123
4, 61056, Note_on_c, 2, 45, 127
4, 61184, Note_off_c, 2, 45, 123
4, 61248, Note_on_c, 2, 41, 127
4, 61376, Note_off_c, 2, 41, 123
4, 61440, Note_on_c, 2, 50, 127
4, 61696, Note_off_c, 2, 50, 123
4, 61824, Note_on_c, 2, 50, 127
4, 62016, Note_on_c, 2, 48, 127
4, 62080, Note_off_c, 2, 50, 123
4, 62208, Note_on_c, 2, 46, 127
4, 62272, Note_off_c, 2, 48, 123
4, 62336, Note_off_c, 2, 46, 123
4, 62400, Note_on_c, 2, 50, 127
4, 62528, Note_off_c, 2, 50, 123
4, 62592, Note_on_c, 2, 55, 127
4, 62720, Note_off_c, 2, 55, 123
4, 62784, Note_on_c, 2, 41, 127
4, 62912, Note_off_c, 2, 41, 123
4, 62976, Note_on_c, 2, 43, 127
4, 63104, Note_off_c, 2, 43, 123
4, 63168, Note_on_c, 2, 60, 127
4, 63296, Note_off_c, 2, 60, 123
4, 63360, Note_on_c, 2, 60, 127
4, 63488, Note_off_c, 2, 60, 123
4, 63552, Note_on_c, 2, 55, 127
4, 63680, Note_off_c, 2, 55, 123
4, 63744, Note_on_c, 2, 55, 127
4, 63872, Note_off_c, 2, 55, 123
4, 63936, Note_on_c, 2, 48, 127
4, 64064, Note_off_c, 2, 48, 123
4, 64128, Note_on_c, 2, 48, 127
4, 64256, Note_off_c, 2, 48, 123
4, 64320, Note_on_c, 2, 51, 127
4, 64448, Note_off_c, 2, 51, 123
4, 64512, Note_on_c, 2, 53, 127
4, 64640, Note_off_c, 2, 53, 123
4, 64704, Note_on_c, 2, 53, 127
4, 64832, Note_off_c, 2, 53, 123
4, 64896, Note_on_c, 2, 53, 127
4, 65024, Note_off_c, 2, 53, 123
4, 65088, Note_on_c, 2, 48, 127
4, 65216, Note_off_c, 2, 48, 123
4, 65280, Note_on_c, 2, 51, 127
4, 65408, Note_off_c, 2, 51, 123
4, 65472, Note_on_c, 2, 51, 127
4, 65600, Note_off_c, 2, 51, 123
4, 65664, Note_on_c, 2, 51, 127
4, 65792, Note_off_c, 2, 51, 123
4, 65856, Note_on_c, 2, 50, 127
4, 65984, Note_off_c, 2, 50, 123
4, 66048, Note_on_c, 2, 48, 127
4, 66176, Note_off_c, 2, 48, 123
4, 66240, Note_on_c, 2, 48, 127
4, 66368, Note_off_c, 2, 48, 123
4, 66432, Note_on_c, 2, 48, 127
4, 66560, Note_off_c, 2, 48, 123
4, 66624, Note_on_c, 2, 46, 127
4, 66752, Note_off_c, 2, 46, 123
4, 66816, Note_on_c, 2, 46, 127
4, 66944, Note_off_c, 2, 46, 123
4, 67008, Note_on_c, 2, 46, 127
4, 67136, Note_off_c, 2, 46, 123
4, 67200, Note_on_c, 2, 48, 127
4, 67328, Note_off_c, 2, 48, 123
4, 67392, Note_on_c, 2, 41, 127
4, 67520, Note_off_c, 2, 41, 123
4, 67584, Note_on_c, 2, 43, 127
4, 67712, Note_off_c, 2, 43, 123
4, 67776, Note_on_c, 2, 43, 127
4, 67904, Note_off_c, 2, 43, 123
4, 67968, Note_on_c, 2, 43, 127
4, 68096, Note_off_c, 2, 43, 123
4, 68160, Note_on_c, 2, 43, 127
4, 68288, Note_off_c, 2, 43, 123
4, 68352, Note_on_c, 2, 43, 127
4, 68480, Note_off_c, 2, 43, 123
4, 68544, Note_on_c, 2, 46, 127
4, 68672, Note_off_c, 2, 46, 123
4, 68736, Note_on_c, 2, 48, 127
4, 68864, Note_off_c, 2, 48, 123
4, 68928, Note_on_c, 2, 50, 127
4, 69248, Note_off_c, 2, 50, 73
4, 69312, Note_on_c, 2, 50, 127
4, 69568, Note_off_c, 2, 50, 123
4, 69696, Note_on_c, 2, 50, 127
4, 70016, Note_off_c, 2, 50, 123
4, 70080, Note_on_c, 2, 48, 127
4, 70208, Note_off_c, 2, 48, 123
4, 70272, Note_on_c, 2, 46, 127
4, 70400, Note_off_c, 2, 46, 123
4, 70464, Note_on_c, 2, 43, 127
4, 70592, Note_off_c, 2, 43, 123
4, 70656, Note_on_c, 2, 46, 115
4, 71168, Note_off_c, 2, 46, 73
4, 71424, Note_on_c, 2, 48, 115
4, 71808, Note_off_c, 2, 48, 73
4, 72000, Note_on_c, 2, 58, 115
4, 72320, Note_off_c, 2, 58, 73
4, 72384, Note_on_c, 2, 41, 115
4, 72512, Note_off_c, 2, 41, 73
4, 72576, Note_on_c, 2, 43, 115
4, 72704, Note_off_c, 2, 43, 73
4, 72768, Note_on_c, 2, 41, 115
4, 72896, Note_off_c, 2, 41, 73
4, 72960, Note_on_c, 2, 46, 115
4, 73216, Note_off_c, 2, 46, 73
4, 73344, Note_on_c, 2, 48, 115
4, 73600, Note_off_c, 2, 48, 73
4, 73728, Note_on_c, 2, 46, 115
4, 74240, Note_off_c, 2, 46, 73
4, 74496, Note_on_c, 2, 48, 115
4, 74880, Note_off_c, 2, 48, 73
4, 75072, Note_on_c, 2, 58, 115
4, 75392, Note_off_c, 2, 58, 73
4, 75456, Note_on_c, 2, 41, 115
4, 75584, Note_off_c, 2, 41, 73
4, 75648, Note_on_c, 2, 43, 115
4, 75776, Note_off_c, 2, 43, 73
4, 75840, Note_on_c, 2, 41, 115
4, 75968, Note_off_c, 2, 41, 73
4, 76032, Note_on_c, 2, 41, 115
4, 76288, Note_off_c, 2, 41, 73
4, 76416, Note_on_c, 2, 41, 115
4, 76672, Note_off_c, 2, 41, 73
4, 76800, Note_on_c, 2, 43, 115
4, 77184, Note_off_c, 2, 43, 73
4, 77376, Note_on_c, 2, 46, 115
4, 77504, Note_off_c, 2, 46, 73
4, 77568, Note_on_c, 2, 48, 115
4, 77952, Note_off_c, 2, 48, 73
4, 78144, Note_on_c, 2, 58, 115
4, 78464, Note_off_c, 2, 58, 73
4, 78528, Note_on_c, 2, 53, 115
4, 78656, Note_off_c, 2, 53, 73
4, 78720, Note_on_c, 2, 55, 115
4, 78848, Note_off_c, 2, 55, 73
4, 78912, Note_on_c, 2, 50, 115
4, 79040, Note_off_c, 2, 50, 73
4, 79104, Note_on_c, 2, 51, 115
4, 79232, Note_off_c, 2, 51, 73
4, 79296, Note_on_c, 2, 46, 115
4, 79424, Note_off_c, 2, 46, 73
4, 79488, Note_on_c, 2, 48, 115
4, 79616, Note_off_c, 2, 48, 73
4, 79680, Note_on_c, 2, 41, 115
4, 79808, Note_off_c, 2, 41, 73
4, 79872, Note_on_c, 2, 43, 115
4, 80000, Note_off_c, 2, 43, 73
4, 80064, Note_on_c, 2, 43, 115
4, 80192, Note_off_c, 2, 43, 73
4, 80256, Note_on_c, 2, 43, 115
4, 80384, Note_off_c, 2, 43, 73
4, 80448, Note_on_c, 2, 43, 115
4, 80576, Note_off_c, 2, 43, 73
4, 80640, Note_on_c, 2, 43, 115
4, 80768, Note_off_c, 2, 43, 73
4, 80832, Note_on_c, 2, 46, 115
4, 80960, Note_off_c, 2, 46, 73
4, 81024, Note_on_c, 2, 48, 115
4, 81152, Note_off_c, 2, 48, 73
4, 81216, Note_on_c, 2, 50, 115
4, 81536, Note_off_c, 2, 50, 73
4, 81600, Note_on_c, 2, 50, 115
4, 81856, Note_off_c, 2, 50, 73
4, 81984, Note_on_c, 2, 50, 115
4, 82240, Note_off_c, 2, 50, 73
4, 82368, Note_on_c, 2, 48, 115
4, 82496, Note_off_c, 2, 48, 73
4, 82560, Note_on_c, 2, 46, 115
4, 82688, Note_off_c, 2, 46, 73
4, 82752, Note_on_c, 2, 43, 115
4, 82880, Note_off_c, 2, 43, 73
4, 82944, Note_on_c, 2, 43, 127
4, 83248, Note_off_c, 2, 43, 127
4, 83328, Note_on_c, 2, 55, 127
4, 83632, Note_off_c, 2, 55, 127
4, 83712, Note_on_c, 2, 53, 127
4, 84016, Note_off_c, 2, 53, 127
4, 84096, Note_on_c, 2, 48, 127
4, 84400, Note_off_c, 2, 48, 127
4, 84480, Note_on_c, 2, 51, 127
4, 84608, Note_off_c, 2, 51, 123
4, 84672, Note_on_c, 2, 46, 127
4, 84800, Note_off_c, 2, 46, 123
4, 84864, Note_on_c, 2, 55, 127
4, 84992, Note_off_c, 2, 55, 123
4, 85056, Note_on_c, 2, 51, 127
4, 85184, Note_off_c, 2, 51, 123
4, 85248, Note_on_c, 2, 46, 127
4, 85376, Note_off_c, 2, 46, 123
4, 85440, Note_on_c, 2, 50, 127
4, 85568, Note_off_c, 2, 50, 123
4, 85632, Note_on_c, 2, 48, 127
4, 85760, Note_off_c, 2, 48, 123
4, 85824, Note_on_c, 2, 41, 127
4, 85952, Note_off_c, 2, 41, 123
4, 86016, Note_on_c, 2, 43, 127
4, 86272, Note_off_c, 2, 43, 123
4, 86400, Note_on_c, 2, 55, 127
4, 86656, Note_off_c, 2, 55, 123
4, 86784, Note_on_c, 2, 53, 127
4, 87040, Note_off_c, 2, 53, 123
4, 87168, Note_on_c, 2, 48, 127
4, 87424, Note_off_c, 2, 48, 123
4, 87552, Note_on_c, 2, 46, 127
4, 87680, Note_off_c, 2, 46, 123
4, 87744, Note_on_c, 2, 48, 127
4, 87872, Note_off_c, 2, 48, 123
4, 87936, Note_on_c, 2, 50, 127
4, 88064, Note_off_c, 2, 50, 123
4, 88128, Note_on_c, 2, 51, 127
4, 88384, Note_off_c, 2, 51, 123
4, 88512, Note_on_c, 2, 50, 127
4, 88640, Note_off_c, 2, 50, 123
4, 88704, Note_on_c, 2, 48, 127
4, 88832, Note_off_c, 2, 48, 123
4, 88896, Note_on_c, 2, 46, 127
4, 89344, Note_off_c, 2, 46, 73
4, 89472, Note_on_c, 2, 41, 127
4, 89728, Note_off_c, 2, 41, 123
4, 89856, Note_on_c, 2, 53, 127
4, 89984, Note_off_c, 2, 53, 123
4, 90048, Note_on_c, 2, 41, 127
4, 90176, Note_off_c, 2, 41, 123
4, 90240, Note_on_c, 2, 48, 127
4, 90496, Note_off_c, 2, 48, 123
4, 90624, Note_on_c, 2, 51, 127
4, 90752, Note_off_c, 2, 51, 123
4, 90816, Note_on_c, 2, 46, 127
4, 90944, Note_off_c, 2, 46, 123
4, 91008, Note_on_c, 2, 55, 127
4, 91136, Note_off_c, 2, 55, 123
4, 91200, Note_on_c, 2, 51, 127
4, 91328, Note_off_c, 2, 51, 123
4, 91392, Note_on_c, 2, 46, 127
4, 91648, Note_off_c, 2, 46, 123
4, 91776, Note_on_c, 2, 53, 127
4, 92032, Note_off_c, 2, 53, 123
4, 92160, Note_on_c, 2, 43, 127
4, 92416, Note_off_c, 2, 43, 123
4, 92544, Note_on_c, 2, 55, 127
4, 92800, Note_off_c, 2, 55, 123
4, 92928, Note_on_c, 2, 53, 127
4, 93184, Note_off_c, 2, 53, 123
4, 93312, Note_on_c, 2, 48, 127
4, 93568, Note_off_c, 2, 48, 123
4, 93696, Note_on_c, 2, 46, 127
4, 93824, Note_off_c, 2, 46, 123
4, 93888, Note_on_c, 2, 48, 127
4, 94016, Note_off_c, 2, 48, 123
4, 94080, Note_on_c, 2, 50, 127
4, 94208, Note_off_c, 2, 50, 123
4, 94272, Note_on_c, 2, 51, 127
4, 94528, Note_off_c, 2, 51, 123
4, 94656, Note_on_c, 2, 50, 127
4, 94784, Note_off_c, 2, 50, 123
4, 94848, Note_on_c, 2, 48, 127
4, 94976, Note_off_c, 2, 48, 123
4, 95040, Note_on_c, 2, 46, 127
4, 95488, Note_off_c, 2, 46, 73
4, 95616, Note_on_c, 2, 48, 127
4, 95744, Note_off_c, 2, 48, 123
4, 95808, Note_on_c, 2, 41, 127
4, 95936, Note_off_c, 2, 41, 123
4, 96000, Note_on_c, 2, 43, 127
4, 96256, Note_off_c, 2, 43, 123
4, 96384, Note_on_c, 2, 43, 127
4, 96512, Note_off_c, 2, 43, 123
4, 96576, Note_on_c, 2, 46, 127
4, 96704, Note_off_c, 2, 46, 123
4, 96768, Note_on_c, 2, 48, 127
4, 97024, Note_off_c, 2, 48, 123
4, 97152, Note_on_c, 2, 48, 127
4, 97280, Note_off_c, 2, 48, 123
4, 97344, Note_on_c, 2, 48, 127
4, 97600, Note_off_c, 2, 48, 123
4, 97728, Note_on_c, 2, 46, 127
4, 97856, Note_off_c, 2, 46, 123
4, 97920, Note_on_c, 2, 45, 127
4, 98048, Note_off_c, 2, 45, 123
4, 98112, Note_on_c, 2, 41, 127
4, 98240, Note_off_c, 2, 41, 123
4, 98304, Note_on_c, 2, 50, 127
4, 98560, Note_off_c, 2, 50, 123
4, 98688, Note_on_c, 2, 50, 127
4, 98880, Note_on_c, 2, 48, 127
4, 98944, Note_off_c, 2, 50, 123
4, 99072, Note_on_c, 2, 46, 127
4, 99136, Note_off_c, 2, 48, 123
4, 99200, Note_off_c, 2, 46, 123
4, 99264, Note_on_c, 2, 50, 127
4, 99392, Note_off_c, 2, 50, 123
4, 99456, Note_on_c, 2, 55, 127
4, 99584, Note_off_c, 2, 55, 123
4, 99648, Note_on_c, 2, 41, 127
4, 99776, Note_off_c, 2, 41, 123
4, 99840, Note_on_c, 2, 43, 127
4, 99968, Note_off_c, 2, 43, 123
4, 100032, Note_on_c, 2, 60, 127
4, 100160, Note_off_c, 2, 60, 123
4, 100224, Note_on_c, 2, 60, 127
4, 100352, Note_off_c, 2, 60, 123
4, 100416, Note_on_c, 2, 55, 127
4, 100544, Note_off_c, 2, 55, 123
4, 100608, Note_on_c, 2, 55, 127
4, 100736, Note_off_c, 2, 55, 123
4, 100800, Note_on_c, 2, 48, 127
4, 100928, Note_off_c, 2, 48, 123
4, 100992, Note_on_c, 2, 48, 127
4, 101120, Note_off_c, 2, 48, 123
4, 101184, Note_on_c, 2, 51, 127
4, 101312, Note_off_c, 2, 51, 123
4, 101376, Note_on_c, 2, 53, 127
4, 101504, Note_off_c, 2, 53, 123
4, 101568, Note_on_c, 2, 53, 127
4, 101696, Note_off_c, 2, 53, 123
4, 101760, Note_on_c, 2, 53, 127
4, 101888, Note_off_c, 2, 53, 123
4, 101952, Note_on_c, 2, 48, 127
4, 102080, Note_off_c, 2, 48, 123
4, 102144, Note_on_c, 2, 51, 127
4, 102272, Note_off_c, 2, 51, 123
4, 102336, Note_on_c, 2, 51, 127
4, 102464, Note_off_c, 2, 51, 123
4, 102528, Note_on_c, 2, 51, 127
4, 102656, Note_off_c, 2, 51, 123
4, 102720, Note_on_c, 2, 50, 127
4, 102848, Note_off_c, 2, 50, 123
4, 102912, Note_on_c, 2, 48, 127
4, 103040, Note_off_c, 2, 48, 123
4, 103104, Note_on_c, 2, 48, 127
4, 103232, Note_off_c, 2, 48, 123
4, 103296, Note_on_c, 2, 48, 127
4, 103424, Note_off_c, 2, 48, 123
4, 103488, Note_on_c, 2, 46, 127
4, 103616, Note_off_c, 2, 46, 123
4, 103680, Note_on_c, 2, 46, 127
4, 103808, Note_off_c, 2, 46, 123
4, 103872, Note_on_c, 2, 46, 127
4, 104000, Note_off_c, 2, 46, 123
4, 104064, Note_on_c, 2, 48, 127
4, 104192, Note_off_c, 2, 48, 123
4, 104256, Note_on_c, 2, 41, 127
4, 104384, Note_off_c, 2, 41, 123
4, 104448, Note_on_c, 2, 43, 127
4, 104576, Note_off_c, 2, 43, 123
4, 104640, Note_on_c, 2, 43, 127
4, 104768, Note_off_c, 2, 43, 123
4, 104832, Note_on_c, 2, 43, 127
4, 104960, Note_off_c, 2, 43, 123
4, 105024, Note_on_c, 2, 43, 127
4, 105152, Note_off_c, 2, 43, 123
4, 105216, Note_on_c, 2, 43, 127
4, 105344, Note_off_c, 2, 43, 123
4, 105408, Note_on_c, 2, 46, 127
4, 105536, Note_off_c, 2, 46, 123
4, 105600, Note_on_c, 2, 48, 127
4, 105728, Note_off_c, 2, 48, 123
4, 105792, Note_on_c, 2, 50, 127
4, 106112, Note_off_c, 2, 50, 73
4, 106176, Note_on_c, 2, 50, 127
4, 106432, Note_off_c, 2, 50, 123
4, 106560, Note_on_c, 2, 50, 127
4, 106880, Note_off_c, 2, 50, 123
4, 106944, Note_on_c, 2, 48, 127
4, 107072, Note_off_c, 2, 48, 123
4, 107136, Note_on_c, 2, 46, 127
4, 107264, Note_off_c, 2, 46, 123
4, 107328, Note_on_c, 2, 43, 127
4, 107456, Note_off_c, 2, 43, 123
4, 107520, Note_on_c, 2, 46, 115
4, 108032, Note_off_c, 2, 46, 73
4, 108288, Note_on_c, 2, 48, 115
4, 108672, Note_off_c, 2, 48, 73
4, 108864, Note_on_c, 2, 58, 115
4, 109184, Note_off_c, 2, 58, 73
4, 109248, Note_on_c, 2, 41, 115
4, 109376, Note_off_c, 2, 41, 73
4, 109440, Note_on_c, 2, 43, 115
4, 109568, Note_off_c, 2, 43, 73
4, 109632, Note_on_c, 2, 41, 115
4, 109760, Note_off_c, 2, 41, 73
4, 109824, Note_on_c, 2, 46, 115
4, 110080, Note_off_c, 2, 46, 73
4, 110208, Note_on_c, 2, 48, 115
4, 110464, Note_off_c, 2, 48, 73
4, 110592, Note_on_c, 2, 46, 115
4, 111104, Note_off_c, 2, 46, 73
4, 111360, Note_on_c, 2, 48, 115
4, 111744, Note_off_c, 2, 48, 73
4, 111936, Note_on_c, 2, 58, 115
4, 112256, Note_off_c, 2, 58, 73
4, 112320, Note_on_c, 2, 41, 115
4, 112448, Note_off_c, 2, 41, 73
4, 112512, Note_on_c, 2, 43, 115
4, 112640, Note_off_c, 2, 43, 73
4, 112704, Note_on_c, 2, 41, 115
4, 112832, Note_off_c, 2, 41, 73
4, 112896, Note_on_c, 2, 41, 115
4, 113152, Note_off_c, 2, 41, 73
4, 113280, Note_on_c, 2, 41, 115
4, 113536, Note_off_c, 2, 41, 73
4, 113664, Note_on_c, 2, 43, 115
4, 114048, Note_off_c, 2, 43, 73
4, 114240, Note_on_c, 2, 46, 115
4, 114368, Note_off_c, 2, 46, 73
4, 114432, Note_on_c, 2, 48, 115
4, 114816, Note_off_c, 2, 48, 73
4, 115008, Note_on_c, 2, 58, 115
4, 115328, Note_off_c, 2, 58, 73
4, 115392, Note_on_c, 2, 53, 115
4, 115520, Note_off_c, 2, 53, 73
4, 115584, Note_on_c, 2, 55, 115
4, 115712, Note_off_c, 2, 55, 73
4, 115776, Note_on_c, 2, 50, 115
4, 115904, Note_off_c, 2, 50, 73
4, 115968, Note_on_c, 2, 51, 115
4, 116096, Note_off_c, 2, 51, 73
4, 116160, Note_on_c, 2, 46, 115
4, 116288, Note_off_c, 2, 46, 73
4, 116352, Note_on_c, 2, 48, 115
4, 116480, Note_off_c, 2, 48, 73
4, 116544, Note_on_c, 2, 41, 115
4, 116672, Note_off_c, 2, 41, 73
4, 116736, Note_on_c, 2, 43, 115
4, 116864, Note_off_c, 2, 43, 73
4, 116928, Note_on_c, 2, 43, 115
4, 117056, Note_off_c, 2, 43, 73
4, 117120, Note_on_c, 2, 43, 115
4, 117248, Note_off_c, 2, 43, 73
4, 117312, Note_on_c, 2, 43, 115
4, 117440, Note_off_c, 2, 43, 73
4, 117504, Note_on_c, 2, 43, 115
4, 117632, Note_off_c, 2, 43, 73
4, 117696, Note_on_c, 2, 46, 115
4, 117824, Note_off_c, 2, 46, 73
4, 117888, Note_on_c, 2, 48, 115
4, 118016, Note_off_c, 2, 48, 73
4, 118080, Note_on_c, 2, 50, 115
4, 118400, Note_off_c, 2, 50, 73
4, 118464, Note_on_c, 2, 50, 115
4, 118720, Note_off_c, 2, 50, 73
4, 118848, Note_on_c, 2, 50, 115
4, 119104, Note_off_c, 2, 50, 73
4, 119232, Note_on_c, 2, 48, 115
4, 119360, Note_off_c, 2, 48, 73
4, 119424, Note_on_c, 2, 46, 115
4, 119552, Note_off_c, 2, 46, 73
4, 119616, Note_on_c, 2, 43, 115
4, 119744, Note_off_c, 2, 43, 73
4, 119808, Note_on_c, 2, 46, 115
4, 120320, Note_off_c, 2, 46, 73
4, 120576, Note_on_c, 2, 48, 115
4, 120960, Note_off_c, 2, 48, 73
4, 121152, Note_on_c, 2, 58, 115
4, 121472, Note_off_c, 2, 58, 73
4, 121536, Note_on_c, 2, 41, 115
4, 121664, Note_off_c, 2, 41, 73
4, 121728, Note_on_c, 2, 43, 115
4, 121856, Note_off_c, 2, 43, 73
4, 121920, Note_on_c, 2, 41, 115
4, 122048, Note_off_c, 2, 41, 73
4, 122112, Note_on_c, 2, 46, 115
4, 122368, Note_off_c, 2, 46, 73
4, 122496, Note_on_c, 2, 48, 115
4, 122752, Note_off_c, 2, 48, 73
4, 122880, Note_on_c, 2, 46, 115
4, 123392, Note_off_c, 2, 46, 73
4, 123648, Note_on_c, 2, 48, 115
4, 124032, Note_off_c, 2, 48, 73
4, 124224, Note_on_c, 2, 58, 115
4, 124544, Note_off_c, 2, 58, 73
4, 124608, Note_on_c, 2, 41, 115
4, 124736, Note_off_c, 2, 41, 73
4, 124800, Note_on_c, 2, 43, 115
4, 124928, Note_off_c, 2, 43, 73
4, 124992, Note_on_c, 2, 41, 115
4, 125120, Note_off_c, 2, 41, 73
4, 125184, Note_on_c, 2, 41, 115
4, 125440, Note_off_c, 2, 41, 73
4, 125568, Note_on_c, 2, 41, 115
4, 125824, Note_off_c, 2, 41, 73
4, 125952, Note_on_c, 2, 43, 115
4, 126336, Note_off_c, 2, 43, 73
4, 126528, Note_on_c, 2, 46, 115
4, 126656, Note_off_c, 2, 46, 73
4, 126720, Note_on_c, 2, 48, 115
4, 127104, Note_off_c, 2, 48, 73
4, 127296, Note_on_c, 2, 58, 115
4, 127616, Note_off_c, 2, 58, 73
4, 127680, Note_on_c, 2, 53, 115
4, 127808, Note_off_c, 2, 53, 73
4, 127872, Note_on_c, 2, 55, 115
4, 128000, Note_off_c, 2, 55, 73
4, 128064, Note_on_c, 2, 50, 115
4, 128192, Note_off_c, 2, 50, 73
4, 128256, Note_on_c, 2, 51, 115
4, 128384, Note_off_c, 2, 51, 73
4, 128448, Note_on_c, 2, 46, 115
4, 128576, Note_off_c, 2, 46, 73
4, 128640, Note_on_c, 2, 48, 115
4, 128768, Note_off_c, 2, 48, 73
4, 128832, Note_on_c, 2, 41, 115
4, 128960, Note_off_c, 2, 41, 73
4, 129024, Note_on_c, 2, 43, 115
4, 129152, Note_off_c, 2, 43, 73
4, 129216, Note_on_c, 2, 43, 115
4, 129344, Note_off_c, 2, 43, 73
4, 129408, Note_on_c, 2, 43, 115
4, 129536, Note_off_c, 2, 43, 73
4, 129600, Note_on_c, 2, 43, 115
4, 129728, Note_off_c, 2, 43, 73
4, 129792, Note_on_c, 2, 43, 115
4, 129920, Note_off_c, 2, 43, 73
4, 129984, Note_on_c, 2, 46, 115
4, 130112, Note_off_c, 2, 46, 73
4, 130176, Note_on_c, 2, 48, 115
4, 130304, Note_off_c, 2, 48, 73
4, 130368, Note_on_c, 2, 50, 115
4, 130816, Note_off_c, 2, 50, 73
4, 130944, Note_on_c, 2, 50, 115
4, 131072, Note_off_c, 2, 50, 73
4, 131136, Note_on_c, 2, 50, 115
4, 131392, Note_off_c, 2, 50, 73
4, 131520, Note_on_c, 2, 50, 115
4, 131648, Note_off_c, 2, 50, 73
4, 131712, Note_on_c, 2, 48, 115
4, 131968, Note_off_c, 2, 48, 73
4, 132096, Note_on_c, 2, 48, 115
4, 132224, Note_off_c, 2, 48, 73
4, 132288, Note_on_c, 2, 44, 115
4, 132416, Note_off_c, 2, 44, 73
4, 132480, Note_on_c, 2, 45, 115
4, 132608, Note_off_c, 2, 45, 73
4, 132672, Note_on_c, 2, 48, 115
4, 132800, Note_off_c, 2, 48, 73
4, 132864, Note_on_c, 2, 36, 115
4, 133120, Note_off_c, 2, 36, 73
4, 133248, Note_on_c, 2, 36, 115
4, 133376, Note_off_c, 2, 36, 73
4, 133440, Note_on_c, 2, 48, 115
4, 133696, Note_off_c, 2, 48, 73
4, 133824, Note_on_c, 2, 46, 115
4, 134080, Note_off_c, 2, 46, 73
4, 134208, Note_on_c, 2, 41, 115
4, 134464, Note_off_c, 2, 41, 73
4, 134592, Note_on_c, 2, 42, 115
4, 134720, Note_off_c, 2, 42, 73
4, 134784, Note_on_c, 2, 43, 115
4, 134912, Note_off_c, 2, 43, 73
4, 134976, Note_on_c, 2, 46, 115
4, 135104, Note_off_c, 2, 46, 73
4, 135168, Note_on_c, 2, 43, 115
4, 135424, Note_off_c, 2, 43, 73
4, 135552, Note_on_c, 2, 43, 115
4, 135680, Note_off_c, 2, 43, 73
4, 135744, Note_on_c, 2, 53, 115
4, 136000, Note_off_c, 2, 53, 73
4, 136128, Note_on_c, 2, 53, 115
4, 136256, Note_off_c, 2, 53, 73
4, 136320, Note_on_c, 2, 52, 115
4, 136576, Note_off_c, 2, 52, 73
4, 136704, Note_on_c, 2, 52, 115
4, 136832, Note_off_c, 2, 52, 73
4, 136896, Note_on_c, 2, 51, 115
4, 137152, Note_off_c, 2, 51, 73
4, 137280, Note_on_c, 2, 51, 115
4, 137408, Note_off_c, 2, 51, 73
4, 137472, Note_on_c, 2, 50, 115
4, 139392, Note_off_c, 2, 50, 73
4, 139392, End_track
5, 0, Start_track
5, 0, Title_t, "Rainbow Blues"
5, 0, Key_signature, 0, "major"
5, 0, End_track
6, 0, Start_track
6, 0, Title_t, "by Jethro Tull"
6, 0, Key_signature, 0, "major"
6, 0, End_track
7, 0, Start_track
7, 0, Title_t, "Midi-ized by"
7, 0, Key_signature, 0, "major"
7, 0, End_track
8, 0, Start_track
8, 0, Title_t, "Matt Whitehead"
8, 0, Key_signature, 0, "major"
8, 0, End_track
9, 0, Start_track
9, 0, Key_signature, 0, "major"
9, 0, End_track
10, 0, Start_track
10, 0, Key_signature, 0, "major"
10, 0, End_track
11, 0, Start_track
11, 0, Key_signature, 0, "major"
11, 0, End_track
12, 0, Start_track
12, 0, Key_signature, 0, "major"
12, 0, End_track
13, 0, Start_track
13, 0, Key_signature, 0, "major"
13, 0, End_track
14, 0, Start_track
14, 0, Key_signature, 0, "major"
14, 0, End_track
15, 0, Start_track
15, 0, Key_signature, 0, "major"
15, 0, End_track
16, 0, Start_track
16, 0, Key_signature, 0, "major"
16, 0, End_track
17, 0, Start_track
17, 0, Key_signature, 0, "major"
17, 0, End_track
0, 0, End_of_file
