0, 0, Header, 1, 7, 960
1, 0, Start_track
1, 0, Control_c, 0, 101, 0
1, 0, Control_c, 0, 100, 0
1, 0, Control_c, 0, 6, 12
1, 0, Control_c, 0, 38, 0
1, 0, Control_c, 1, 101, 0
1, 0, Control_c, 1, 100, 0
1, 0, Control_c, 1, 6, 12
1, 0, Control_c, 1, 38, 0
1, 0, Control_c, 2, 101, 0
1, 0, Control_c, 2, 100, 0
1, 0, Control_c, 2, 6, 12
1, 0, Control_c, 2, 38, 0
1, 0, Control_c, 3, 101, 0
1, 0, Control_c, 3, 100, 0
1, 0, Control_c, 3, 6, 12
1, 0, Control_c, 3, 38, 0
1, 0, Control_c, 4, 101, 0
1, 0, Control_c, 4, 100, 0
1, 0, Control_c, 4, 6, 12
1, 0, Control_c, 4, 38, 0
1, 0, Control_c, 5, 101, 0
1, 0, Control_c, 5, 100, 0
1, 0, Control_c, 5, 6, 12
1, 0, Control_c, 5, 38, 0
1, 0, Control_c, 6, 101, 0
1, 0, Control_c, 6, 100, 0
1, 0, Control_c, 6, 6, 12
1, 0, Control_c, 6, 38, 0
1, 0, Control_c, 7, 101, 0
1, 0, Control_c, 7, 100, 0
1, 0, Control_c, 7, 6, 12
1, 0, Control_c, 7, 38, 0
1, 0, Control_c, 8, 101, 0
1, 0, Control_c, 8, 100, 0
1, 0, Control_c, 8, 6, 12
1, 0, Control_c, 8, 38, 0
1, 0, Control_c, 9, 101, 0
1, 0, Control_c, 9, 100, 0
1, 0, Control_c, 9, 6, 12
1, 0, Control_c, 9, 38, 0
1, 0, Control_c, 10, 101, 0
1, 0, Control_c, 10, 100, 0
1, 0, Control_c, 10, 6, 12
1, 0, Control_c, 10, 38, 0
1, 0, Control_c, 11, 101, 0
1, 0, Control_c, 11, 100, 0
1, 0, Control_c, 11, 6, 12
1, 0, Control_c, 11, 38, 0
1, 0, Control_c, 12, 101, 0
1, 0, Control_c, 12, 100, 0
1, 0, Control_c, 12, 6, 12
1, 0, Control_c, 12, 38, 0
1, 0, Control_c, 13, 101, 0
1, 0, Control_c, 13, 100, 0
1, 0, Control_c, 13, 6, 12
1, 0, Control_c, 13, 38, 0
1, 0, Control_c, 14, 101, 0
1, 0, Control_c, 14, 100, 0
1, 0, Control_c, 14, 6, 12
1, 0, Control_c, 14, 38, 0
1, 0, Control_c, 15, 101, 0
1, 0, Control_c, 15, 100, 0
1, 0, Control_c, 15, 6, 12
1, 0, Control_c, 15, 38, 0
1, 0, Time_signature, 12, 3, 12, 8
1, 0, Tempo, 454545
1, 11520, Time_signature, 6, 3, 12, 8
1, 14400, Time_signature, 12, 3, 12, 8
1, 14400, End_track
2, 0, Start_track
2, 0, Pitch_bend_c, 8, 8192
2, 0, Control_c, 8, 7, 103
2, 0, Control_c, 8, 10, 63
2, 0, Control_c, 8, 93, 0
2, 0, Control_c, 8, 91, 0
2, 0, Control_c, 8, 95, 0
2, 0, Control_c, 8, 92, 0
2, 0, Control_c, 8, 11, 127
2, 0, Program_c, 8, 61
2, 0, Control_c, 10, 7, 103
2, 0, Control_c, 10, 10, 63
2, 0, Control_c, 10, 93, 0
2, 0, Control_c, 10, 91, 0
2, 0, Control_c, 10, 95, 0
2, 0, Control_c, 10, 92, 0
2, 0, Control_c, 10, 11, 127
2, 0, Program_c, 10, 61
2, 82020, Note_on_c, 10, 74, 95
2, 82080, Note_off_c, 10, 74, 95
2, 82080, Note_on_c, 10, 77, 95
2, 84000, Note_off_c, 10, 77, 95
2, 84000, Note_on_c, 8, 74, 95
2, 84480, Note_off_c, 8, 74, 95
2, 84480, Note_on_c, 8, 72, 95
2, 84960, Note_off_c, 8, 72, 95
2, 84960, Note_on_c, 8, 70, 95
2, 85440, Note_off_c, 8, 70, 95
2, 85440, Note_on_c, 8, 67, 95
2, 87840, Note_off_c, 8, 67, 95
2, 90240, Note_on_c, 8, 72, 95
2, 90720, Note_off_c, 8, 72, 95
2, 90720, Note_on_c, 8, 72, 95
2, 91200, Note_off_c, 8, 72, 95
2, 91200, Note_on_c, 8, 72, 95
2, 91680, Note_off_c, 8, 72, 95
2, 91680, Note_on_c, 8, 70, 95
2, 92160, Note_off_c, 8, 70, 95
2, 92160, Note_on_c, 8, 69, 95
2, 92640, Note_off_c, 8, 69, 95
2, 92640, Note_on_c, 8, 67, 95
2, 93600, Note_off_c, 8, 67, 95
2, 93600, Note_on_c, 8, 72, 95
2, 94080, Note_off_c, 8, 72, 95
2, 94080, Note_on_c, 8, 67, 95
2, 94560, Note_off_c, 8, 67, 95
2, 94560, Note_on_c, 8, 70, 95
2, 96480, Note_off_c, 8, 70, 95
2, 104400, Note_on_c, 8, 76, 95
2, 104640, Note_off_c, 8, 76, 95
2, 104640, Note_on_c, 8, 77, 95
2, 106500, Note_on_c, 10, 73, 95
2, 106560, Note_off_c, 8, 77, 95
2, 106560, Note_off_c, 10, 73, 95
2, 106560, Note_on_c, 10, 74, 95
2, 107520, Note_off_c, 10, 74, 95
2, 107520, Note_on_c, 8, 72, 95
2, 108000, Note_off_c, 8, 72, 95
2, 108000, Note_on_c, 8, 70, 95
2, 108240, Note_off_c, 8, 70, 95
2, 108240, Note_on_c, 8, 67, 95
2, 110400, Note_off_c, 8, 67, 95
2, 113220, Note_on_c, 10, 70, 95
2, 113280, Note_off_c, 10, 70, 95
2, 113280, Note_on_c, 10, 72, 95
2, 113760, Note_off_c, 10, 72, 95
2, 113760, Note_on_c, 8, 72, 95
2, 114240, Note_off_c, 8, 72, 95
2, 114240, Note_on_c, 8, 72, 95
2, 114720, Note_off_c, 8, 72, 95
2, 114720, Note_on_c, 8, 70, 95
2, 115200, Note_off_c, 8, 70, 95
2, 115200, Note_on_c, 8, 69, 95
2, 115680, Note_off_c, 8, 69, 95
2, 115680, Note_on_c, 8, 67, 95
2, 116640, Note_off_c, 8, 67, 95
2, 116640, Note_on_c, 8, 72, 95
2, 117120, Note_off_c, 8, 72, 95
2, 117120, Note_on_c, 8, 67, 70
2, 117600, Note_off_c, 8, 67, 70
2, 117600, Note_on_c, 8, 70, 95
2, 119520, Note_off_c, 8, 70, 95
2, 127680, Note_on_c, 8, 70, 95
2, 128160, Note_off_c, 8, 70, 95
2, 128160, Note_on_c, 8, 71, 70
2, 129120, Note_off_c, 8, 71, 70
2, 129120, Note_on_c, 8, 71, 95
2, 129540, Note_on_c, 10, 71, 95
2, 129600, Note_off_c, 8, 71, 95
2, 129600, Note_off_c, 10, 71, 95
2, 129600, Note_on_c, 10, 72, 95
2, 130560, Note_off_c, 10, 72, 95
2, 130560, Note_on_c, 8, 74, 95
2, 130800, Note_off_c, 8, 74, 95
2, 130800, Note_on_c, 8, 70, 95
2, 131520, Note_off_c, 8, 70, 95
2, 131520, Note_on_c, 8, 69, 95
2, 132000, Note_off_c, 8, 69, 95
2, 132000, Note_on_c, 8, 67, 95
2, 132480, Note_off_c, 8, 67, 95
2, 132480, Note_on_c, 8, 62, 95
2, 133920, Note_off_c, 8, 62, 95
2, 136740, Note_on_c, 10, 74, 95
2, 136800, Note_off_c, 10, 74, 95
2, 136800, Note_on_c, 10, 77, 95
2, 138000, Note_off_c, 10, 77, 95
2, 138000, Note_on_c, 8, 74, 95
2, 138720, Note_off_c, 8, 74, 95
2, 138720, Note_on_c, 8, 72, 95
2, 139200, Note_off_c, 8, 72, 95
2, 139200, Note_on_c, 8, 70, 95
2, 139680, Note_off_c, 8, 70, 95
2, 139680, Note_on_c, 8, 67, 95
2, 140160, Note_off_c, 8, 67, 95
2, 140160, Note_on_c, 8, 72, 95
2, 140640, Note_off_c, 8, 72, 95
2, 140640, Note_on_c, 8, 70, 95
2, 140880, Note_off_c, 8, 70, 95
2, 140880, Note_on_c, 8, 67, 70
2, 142560, Note_off_c, 8, 67, 70
2, 150660, Note_on_c, 10, 74, 95
2, 150720, Note_off_c, 10, 74, 95
2, 150720, Note_on_c, 10, 77, 95
2, 151200, Note_off_c, 10, 77, 95
2, 151200, Note_on_c, 8, 77, 95
2, 151680, Note_off_c, 8, 77, 95
2, 151680, Note_on_c, 8, 74, 95
2, 152160, Note_off_c, 8, 74, 95
2, 152160, Note_on_c, 8, 77, 95
2, 153600, Note_off_c, 8, 77, 95
2, 153600, Note_on_c, 8, 79, 95
2, 154080, Note_off_c, 8, 79, 95
2, 154080, Note_on_c, 8, 74, 95
2, 154560, Note_off_c, 8, 74, 95
2, 154560, Note_on_c, 8, 72, 70
2, 155040, Note_off_c, 8, 72, 70
2, 155040, Note_on_c, 8, 70, 95
2, 155280, Note_off_c, 8, 70, 95
2, 155280, Note_on_c, 8, 67, 70
2, 156960, Note_off_c, 8, 67, 70
2, 159360, Note_on_c, 8, 72, 95
2, 159840, Note_off_c, 8, 72, 95
2, 159840, Note_on_c, 8, 72, 95
2, 160320, Note_off_c, 8, 72, 95
2, 160320, Note_on_c, 8, 67, 95
2, 160800, Note_off_c, 8, 67, 95
2, 160800, Note_on_c, 8, 70, 95
2, 161280, Note_off_c, 8, 70, 95
2, 161280, Note_on_c, 8, 69, 95
2, 161760, Note_off_c, 8, 69, 95
2, 161760, Note_on_c, 8, 67, 95
2, 162720, Note_off_c, 8, 67, 95
2, 162720, Note_on_c, 8, 72, 95
2, 163200, Note_off_c, 8, 72, 95
2, 163200, Note_on_c, 8, 67, 95
2, 163680, Note_off_c, 8, 67, 95
2, 163680, Note_on_c, 8, 70, 95
2, 164160, Note_off_c, 8, 70, 95
2, 164160, Note_on_c, 8, 71, 95
2, 165600, Note_off_c, 8, 71, 95
2, 173700, Note_on_c, 10, 74, 95
2, 173760, Note_off_c, 10, 74, 95
2, 173760, Note_on_c, 10, 77, 95
2, 174240, Note_off_c, 10, 77, 95
2, 174240, Note_on_c, 8, 77, 95
2, 174720, Note_off_c, 8, 77, 95
2, 174720, Note_on_c, 8, 74, 95
2, 175200, Note_off_c, 8, 74, 95
2, 175200, Note_on_c, 8, 77, 95
2, 176160, Note_off_c, 8, 77, 95
2, 176160, Note_on_c, 8, 79, 95
2, 176640, Note_off_c, 8, 79, 95
2, 176640, Note_on_c, 8, 79, 95
2, 177120, Note_off_c, 8, 79, 95
2, 177120, Note_on_c, 8, 74, 95
2, 177600, Note_off_c, 8, 74, 95
2, 177600, Note_on_c, 8, 72, 70
2, 178080, Note_off_c, 8, 72, 70
2, 178080, Note_on_c, 8, 70, 95
2, 178320, Note_off_c, 8, 70, 95
2, 178320, Note_on_c, 8, 67, 70
2, 180000, Note_off_c, 8, 67, 70
2, 182400, Note_on_c, 8, 72, 95
2, 182880, Note_off_c, 8, 72, 95
2, 182880, Note_on_c, 8, 72, 95
2, 183360, Note_off_c, 8, 72, 95
2, 183360, Note_on_c, 8, 67, 95
2, 183840, Note_off_c, 8, 67, 95
2, 183840, Note_on_c, 8, 70, 95
2, 184320, Note_off_c, 8, 70, 95
2, 184320, Note_on_c, 8, 69, 95
2, 184800, Note_off_c, 8, 69, 95
2, 184800, Note_on_c, 8, 67, 95
2, 185760, Note_off_c, 8, 67, 95
2, 185760, Note_on_c, 8, 72, 95
2, 186240, Note_off_c, 8, 72, 95
2, 186240, Note_on_c, 8, 67, 95
2, 186720, Note_off_c, 8, 67, 95
2, 186720, Note_on_c, 8, 70, 95
2, 187200, Note_off_c, 8, 70, 95
2, 187200, Note_on_c, 8, 71, 95
2, 188640, Note_off_c, 8, 71, 95
2, 196740, Note_on_c, 10, 70, 95
2, 196800, Note_off_c, 10, 70, 95
2, 196800, Note_on_c, 10, 71, 95
2, 197760, Note_off_c, 10, 71, 95
2, 197760, Note_on_c, 8, 72, 95
2, 198000, Note_off_c, 8, 72, 95
2, 198000, Note_on_c, 8, 71, 95
2, 198240, Note_off_c, 8, 71, 95
2, 198240, Note_on_c, 8, 72, 95
2, 198720, Note_off_c, 8, 72, 95
2, 198720, Note_on_c, 8, 71, 95
2, 199200, Note_off_c, 8, 71, 95
2, 199200, Note_on_c, 8, 72, 95
2, 199440, Note_off_c, 8, 72, 95
2, 199440, Note_on_c, 8, 74, 70
2, 199680, Note_off_c, 8, 74, 70
2, 199680, Note_on_c, 8, 70, 95
2, 200100, Note_on_c, 10, 69, 95
2, 200160, Note_off_c, 8, 70, 95
2, 200160, Note_off_c, 10, 69, 95
2, 200160, Note_on_c, 10, 70, 95
2, 200640, Note_off_c, 10, 70, 95
2, 200640, Note_on_c, 8, 69, 95
2, 201120, Note_off_c, 8, 69, 95
2, 201120, Note_on_c, 8, 67, 95
2, 201360, Note_off_c, 8, 67, 95
2, 201360, Note_on_c, 8, 62, 95
2, 201600, Note_off_c, 8, 62, 95
2, 201600, Note_on_c, 8, 62, 95
2, 203040, Note_off_c, 8, 62, 95
2, 205380, Note_on_c, 10, 74, 95
2, 205440, Note_off_c, 10, 74, 95
2, 205440, Note_on_c, 10, 77, 95
2, 206400, Note_off_c, 10, 77, 95
2, 206400, Note_on_c, 8, 77, 95
2, 206880, Note_off_c, 8, 77, 95
2, 206880, Note_on_c, 8, 76, 95
2, 207360, Note_off_c, 8, 76, 95
2, 207360, Note_on_c, 8, 74, 95
2, 207600, Note_off_c, 8, 74, 95
2, 207600, Note_on_c, 8, 70, 95
2, 208320, Note_off_c, 8, 70, 95
2, 208320, Note_on_c, 8, 71, 95
2, 208800, Note_off_c, 8, 71, 95
2, 208800, Note_on_c, 8, 67, 95
2, 210240, Note_off_c, 8, 67, 95
2, 210240, Note_on_c, 8, 72, 95
2, 210720, Note_off_c, 8, 72, 95
2, 210720, Note_on_c, 8, 67, 95
2, 211140, Note_on_c, 10, 70, 95
2, 211200, Note_off_c, 8, 67, 95
2, 211200, Note_off_c, 10, 70, 95
2, 211200, Note_on_c, 10, 71, 95
2, 211440, Note_off_c, 10, 71, 95
2, 211440, Note_on_c, 8, 67, 95
2, 213120, Note_off_c, 8, 67, 95
2, 358020, Note_on_c, 10, 76, 95
2, 358080, Note_off_c, 10, 76, 95
2, 358080, Note_on_c, 10, 77, 95
2, 359040, Note_off_c, 10, 77, 95
2, 359040, Note_on_c, 8, 77, 95
2, 359520, Note_off_c, 8, 77, 95
2, 359520, Note_on_c, 8, 74, 95
2, 360000, Note_off_c, 8, 74, 95
2, 360000, Note_on_c, 8, 77, 95
2, 360960, Note_off_c, 8, 77, 95
2, 360960, Note_on_c, 8, 79, 70
2, 361440, Note_off_c, 8, 79, 70
2, 361440, Note_on_c, 8, 73, 95
2, 361680, Note_off_c, 8, 73, 95
2, 361680, Note_on_c, 8, 72, 70
2, 362400, Note_off_c, 8, 72, 70
2, 362400, Note_on_c, 8, 69, 95
2, 362880, Note_off_c, 8, 69, 95
2, 362880, Note_on_c, 8, 67, 95
2, 364320, Note_off_c, 8, 67, 95
2, 366660, Note_on_c, 10, 70, 95
2, 366720, Note_off_c, 10, 70, 95
2, 366720, Note_on_c, 10, 72, 95
2, 367200, Note_off_c, 10, 72, 95
2, 367200, Note_on_c, 8, 72, 95
2, 367440, Note_off_c, 8, 72, 95
2, 367440, Note_on_c, 8, 72, 95
2, 367680, Note_off_c, 8, 72, 95
2, 368160, Note_on_c, 8, 71, 95
2, 369120, Note_off_c, 8, 71, 95
2, 369120, Note_on_c, 8, 69, 95
2, 370080, Note_off_c, 8, 69, 95
2, 370080, Note_on_c, 8, 67, 95
2, 371040, Note_off_c, 8, 67, 95
2, 371040, Note_on_c, 8, 72, 95
2, 371520, Note_on_c, 8, 67, 95
2, 372000, Note_off_c, 8, 72, 95
2, 372000, Note_off_c, 8, 67, 95
2, 372000, Note_on_c, 8, 70, 95
2, 372480, Note_off_c, 8, 70, 95
2, 372480, Note_on_c, 8, 71, 95
2, 374400, Note_off_c, 8, 71, 95
2, 381000, Note_on_c, 10, 74, 95
2, 381120, Note_off_c, 10, 74, 95
2, 381120, Note_on_c, 10, 77, 95
2, 382080, Note_off_c, 10, 77, 95
2, 382080, Note_on_c, 8, 77, 95
2, 382560, Note_off_c, 8, 77, 95
2, 382560, Note_on_c, 8, 74, 95
2, 383040, Note_off_c, 8, 74, 95
2, 383040, Note_on_c, 8, 77, 95
2, 384000, Note_off_c, 8, 77, 95
2, 384000, Note_on_c, 8, 79, 70
2, 384480, Note_off_c, 8, 79, 70
2, 384480, Note_on_c, 8, 73, 95
2, 384720, Note_off_c, 8, 73, 95
2, 384720, Note_on_c, 8, 72, 70
2, 385440, Note_off_c, 8, 72, 70
2, 385440, Note_on_c, 8, 70, 95
2, 385920, Note_off_c, 8, 70, 95
2, 385920, Note_on_c, 8, 67, 95
2, 387360, Note_off_c, 8, 67, 95
2, 389700, Note_on_c, 10, 70, 95
2, 389760, Note_off_c, 10, 70, 95
2, 389760, Note_on_c, 10, 72, 95
2, 390240, Note_off_c, 10, 72, 95
2, 390240, Note_on_c, 8, 72, 95
2, 390480, Note_off_c, 8, 72, 95
2, 390480, Note_on_c, 8, 72, 95
2, 390720, Note_off_c, 8, 72, 95
2, 391200, Note_on_c, 8, 70, 95
2, 392160, Note_off_c, 8, 70, 95
2, 392160, Note_on_c, 8, 69, 95
2, 392640, Note_off_c, 8, 69, 95
2, 392640, Note_on_c, 8, 67, 95
2, 393600, Note_off_c, 8, 67, 95
2, 393600, Note_on_c, 8, 72, 95
2, 394080, Note_off_c, 8, 72, 95
2, 394080, Note_on_c, 8, 67, 70
2, 394560, Note_off_c, 8, 67, 70
2, 394560, Note_on_c, 8, 70, 95
2, 395040, Note_off_c, 8, 70, 95
2, 395040, Note_on_c, 8, 71, 70
2, 396000, Note_off_c, 8, 71, 70
2, 404100, Note_on_c, 10, 71, 95
2, 404160, Note_off_c, 10, 71, 95
2, 404160, Note_on_c, 10, 72, 95
2, 404640, Note_off_c, 10, 72, 95
2, 404640, Note_on_c, 8, 72, 95
2, 405120, Note_off_c, 8, 72, 95
2, 405120, Note_on_c, 8, 71, 95
2, 405600, Note_off_c, 8, 71, 95
2, 405600, Note_on_c, 8, 74, 95
2, 406500, Note_on_c, 10, 69, 95
2, 406560, Note_off_c, 8, 74, 95
2, 406560, Note_off_c, 10, 69, 95
2, 406560, Note_on_c, 10, 70, 95
2, 407520, Note_off_c, 10, 70, 95
2, 407520, Note_on_c, 8, 70, 95
2, 408000, Note_off_c, 8, 70, 95
2, 408000, Note_on_c, 8, 69, 95
2, 408480, Note_off_c, 8, 69, 95
2, 408480, Note_on_c, 8, 67, 95
2, 408720, Note_off_c, 8, 67, 95
2, 408720, Note_on_c, 8, 62, 95
2, 408900, Note_on_c, 10, 60, 95
2, 408960, Note_off_c, 8, 62, 95
2, 408960, Note_off_c, 10, 60, 95
2, 408960, Note_on_c, 10, 62, 95
2, 410400, Note_off_c, 10, 62, 95
2, 412740, Note_on_c, 10, 74, 95
2, 412800, Note_off_c, 10, 74, 95
2, 412800, Note_on_c, 10, 77, 95
2, 413760, Note_off_c, 10, 77, 95
2, 413760, Note_on_c, 8, 74, 95
2, 414000, Note_off_c, 8, 74, 95
2, 414000, Note_on_c, 8, 72, 70
2, 414720, Note_off_c, 8, 72, 70
2, 414720, Note_on_c, 8, 70, 95
2, 415200, Note_off_c, 8, 70, 95
2, 415200, Note_on_c, 8, 67, 95
2, 415440, Note_off_c, 8, 67, 95
2, 415440, Note_on_c, 8, 65, 95
2, 416160, Note_off_c, 8, 65, 95
2, 416160, Note_on_c, 8, 67, 95
2, 416400, Note_off_c, 8, 67, 95
2, 416400, Note_on_c, 8, 65, 95
2, 417060, Note_on_c, 10, 71, 95
2, 417120, Note_off_c, 8, 65, 95
2, 417120, Note_off_c, 10, 71, 95
2, 417120, Note_on_c, 10, 72, 95
2, 418080, Note_off_c, 10, 72, 95
2, 418080, Note_on_c, 8, 70, 95
2, 418560, Note_off_c, 8, 70, 95
2, 418560, Note_on_c, 8, 67, 70
2, 420480, Note_off_c, 8, 67, 70
2, 420480, End_track
3, 0, Start_track
3, 0, Pitch_bend_c, 6, 8192
3, 0, Control_c, 6, 7, 103
3, 0, Control_c, 6, 10, 63
3, 0, Control_c, 6, 93, 0
3, 0, Control_c, 6, 91, 0
3, 0, Control_c, 6, 95, 0
3, 0, Control_c, 6, 92, 0
3, 0, Control_c, 6, 11, 127
3, 0, Program_c, 6, 61
3, 0, Control_c, 7, 7, 103
3, 0, Control_c, 7, 10, 63
3, 0, Control_c, 7, 93, 0
3, 0, Control_c, 7, 91, 0
3, 0, Control_c, 7, 95, 0
3, 0, Control_c, 7, 92, 0
3, 0, Control_c, 7, 11, 127
3, 0, Program_c, 7, 61
3, 82020, Note_on_c, 7, 62, 95
3, 82080, Note_off_c, 7, 62, 95
3, 82080, Note_on_c, 7, 65, 95
3, 84000, Note_off_c, 7, 65, 95
3, 84000, Note_on_c, 6, 62, 95
3, 84480, Note_off_c, 6, 62, 95
3, 84480, Note_on_c, 6, 60, 95
3, 84960, Note_off_c, 6, 60, 95
3, 84960, Note_on_c, 6, 58, 95
3, 85440, Note_off_c, 6, 58, 95
3, 85440, Note_on_c, 6, 55, 95
3, 87840, Note_off_c, 6, 55, 95
3, 90240, Note_on_c, 6, 60, 95
3, 90720, Note_off_c, 6, 60, 95
3, 90720, Note_on_c, 6, 60, 95
3, 91200, Note_off_c, 6, 60, 95
3, 91200, Note_on_c, 6, 60, 95
3, 91680, Note_off_c, 6, 60, 95
3, 91680, Note_on_c, 6, 58, 95
3, 92160, Note_off_c, 6, 58, 95
3, 92160, Note_on_c, 6, 57, 95
3, 92640, Note_off_c, 6, 57, 95
3, 92640, Note_on_c, 6, 55, 95
3, 93600, Note_off_c, 6, 55, 95
3, 93600, Note_on_c, 6, 60, 95
3, 94080, Note_off_c, 6, 60, 95
3, 94080, Note_on_c, 6, 55, 95
3, 94560, Note_off_c, 6, 55, 95
3, 94560, Note_on_c, 6, 58, 95
3, 96480, Note_off_c, 6, 58, 95
3, 104400, Note_on_c, 6, 64, 95
3, 104640, Note_off_c, 6, 64, 95
3, 104640, Note_on_c, 6, 65, 95
3, 106500, Note_on_c, 7, 61, 95
3, 106560, Note_off_c, 6, 65, 95
3, 106560, Note_off_c, 7, 61, 95
3, 106560, Note_on_c, 7, 62, 95
3, 107520, Note_off_c, 7, 62, 95
3, 107520, Note_on_c, 6, 60, 95
3, 108000, Note_off_c, 6, 60, 95
3, 108000, Note_on_c, 6, 58, 95
3, 108240, Note_off_c, 6, 58, 95
3, 108240, Note_on_c, 6, 55, 95
3, 110400, Note_off_c, 6, 55, 95
3, 113220, Note_on_c, 7, 58, 95
3, 113280, Note_off_c, 7, 58, 95
3, 113280, Note_on_c, 7, 60, 95
3, 113760, Note_off_c, 7, 60, 95
3, 113760, Note_on_c, 6, 60, 95
3, 114240, Note_off_c, 6, 60, 95
3, 114240, Note_on_c, 6, 60, 95
3, 114720, Note_off_c, 6, 60, 95
3, 114720, Note_on_c, 6, 58, 95
3, 115200, Note_off_c, 6, 58, 95
3, 115200, Note_on_c, 6, 57, 95
3, 115680, Note_off_c, 6, 57, 95
3, 115680, Note_on_c, 6, 55, 95
3, 116640, Note_off_c, 6, 55, 95
3, 116640, Note_on_c, 6, 60, 95
3, 117120, Note_off_c, 6, 60, 95
3, 117120, Note_on_c, 6, 55, 70
3, 117600, Note_off_c, 6, 55, 70
3, 117600, Note_on_c, 6, 58, 95
3, 119520, Note_off_c, 6, 58, 95
3, 127680, Note_on_c, 6, 58, 95
3, 128160, Note_off_c, 6, 58, 95
3, 128160, Note_on_c, 6, 59, 70
3, 129120, Note_off_c, 6, 59, 70
3, 129120, Note_on_c, 6, 59, 95
3, 129540, Note_on_c, 7, 59, 95
3, 129600, Note_off_c, 6, 59, 95
3, 129600, Note_off_c, 7, 59, 95
3, 129600, Note_on_c, 7, 60, 95
3, 130560, Note_off_c, 7, 60, 95
3, 130560, Note_on_c, 6, 62, 95
3, 130800, Note_off_c, 6, 62, 95
3, 130800, Note_on_c, 6, 58, 95
3, 131520, Note_off_c, 6, 58, 95
3, 131520, Note_on_c, 6, 57, 95
3, 132000, Note_off_c, 6, 57, 95
3, 132000, Note_on_c, 6, 55, 95
3, 132480, Note_off_c, 6, 55, 95
3, 132480, Note_on_c, 6, 50, 95
3, 133920, Note_off_c, 6, 50, 95
3, 136740, Note_on_c, 7, 62, 95
3, 136800, Note_off_c, 7, 62, 95
3, 136800, Note_on_c, 7, 65, 95
3, 138000, Note_off_c, 7, 65, 95
3, 138000, Note_on_c, 6, 62, 95
3, 138720, Note_off_c, 6, 62, 95
3, 138720, Note_on_c, 6, 60, 95
3, 139200, Note_off_c, 6, 60, 95
3, 139200, Note_on_c, 6, 58, 95
3, 139680, Note_off_c, 6, 58, 95
3, 139680, Note_on_c, 6, 55, 95
3, 140160, Note_off_c, 6, 55, 95
3, 140160, Note_on_c, 6, 60, 95
3, 140640, Note_off_c, 6, 60, 95
3, 140640, Note_on_c, 6, 58, 95
3, 140880, Note_off_c, 6, 58, 95
3, 140880, Note_on_c, 6, 55, 70
3, 142560, Note_off_c, 6, 55, 70
3, 150660, Note_on_c, 7, 62, 95
3, 150720, Note_off_c, 7, 62, 95
3, 150720, Note_on_c, 7, 65, 95
3, 151200, Note_off_c, 7, 65, 95
3, 151200, Note_on_c, 6, 65, 95
3, 151680, Note_off_c, 6, 65, 95
3, 151680, Note_on_c, 6, 62, 95
3, 152160, Note_off_c, 6, 62, 95
3, 152160, Note_on_c, 6, 65, 95
3, 153600, Note_off_c, 6, 65, 95
3, 153600, Note_on_c, 6, 67, 95
3, 154080, Note_off_c, 6, 67, 95
3, 154080, Note_on_c, 6, 62, 95
3, 154560, Note_off_c, 6, 62, 95
3, 154560, Note_on_c, 6, 60, 70
3, 155040, Note_off_c, 6, 60, 70
3, 155040, Note_on_c, 6, 58, 95
3, 155280, Note_off_c, 6, 58, 95
3, 155280, Note_on_c, 6, 55, 70
3, 156960, Note_off_c, 6, 55, 70
3, 159360, Note_on_c, 6, 60, 95
3, 159840, Note_off_c, 6, 60, 95
3, 159840, Note_on_c, 6, 60, 95
3, 160320, Note_off_c, 6, 60, 95
3, 160320, Note_on_c, 6, 55, 95
3, 160800, Note_off_c, 6, 55, 95
3, 160800, Note_on_c, 6, 58, 95
3, 161280, Note_off_c, 6, 58, 95
3, 161280, Note_on_c, 6, 57, 95
3, 161760, Note_off_c, 6, 57, 95
3, 161760, Note_on_c, 6, 55, 95
3, 162720, Note_off_c, 6, 55, 95
3, 162720, Note_on_c, 6, 60, 95
3, 163200, Note_off_c, 6, 60, 95
3, 163200, Note_on_c, 6, 55, 95
3, 163680, Note_off_c, 6, 55, 95
3, 163680, Note_on_c, 6, 58, 95
3, 164160, Note_off_c, 6, 58, 95
3, 164160, Note_on_c, 6, 59, 95
3, 165600, Note_off_c, 6, 59, 95
3, 173700, Note_on_c, 7, 62, 95
3, 173760, Note_off_c, 7, 62, 95
3, 173760, Note_on_c, 7, 65, 95
3, 174240, Note_off_c, 7, 65, 95
3, 174240, Note_on_c, 6, 65, 95
3, 174720, Note_off_c, 6, 65, 95
3, 174720, Note_on_c, 6, 62, 95
3, 175200, Note_off_c, 6, 62, 95
3, 175200, Note_on_c, 6, 65, 95
3, 176160, Note_off_c, 6, 65, 95
3, 176160, Note_on_c, 6, 67, 95
3, 176640, Note_off_c, 6, 67, 95
3, 176640, Note_on_c, 6, 67, 95
3, 177120, Note_off_c, 6, 67, 95
3, 177120, Note_on_c, 6, 62, 95
3, 177600, Note_off_c, 6, 62, 95
3, 177600, Note_on_c, 6, 60, 70
3, 178080, Note_off_c, 6, 60, 70
3, 178080, Note_on_c, 6, 58, 95
3, 178320, Note_off_c, 6, 58, 95
3, 178320, Note_on_c, 6, 55, 70
3, 180000, Note_off_c, 6, 55, 70
3, 182400, Note_on_c, 6, 60, 95
3, 182880, Note_off_c, 6, 60, 95
3, 182880, Note_on_c, 6, 60, 95
3, 183360, Note_off_c, 6, 60, 95
3, 183360, Note_on_c, 6, 55, 95
3, 183840, Note_off_c, 6, 55, 95
3, 183840, Note_on_c, 6, 58, 95
3, 184320, Note_off_c, 6, 58, 95
3, 184320, Note_on_c, 6, 57, 95
3, 184800, Note_off_c, 6, 57, 95
3, 184800, Note_on_c, 6, 55, 95
3, 185760, Note_off_c, 6, 55, 95
3, 185760, Note_on_c, 6, 60, 95
3, 186240, Note_off_c, 6, 60, 95
3, 186240, Note_on_c, 6, 55, 95
3, 186720, Note_off_c, 6, 55, 95
3, 186720, Note_on_c, 6, 58, 95
3, 187200, Note_off_c, 6, 58, 95
3, 187200, Note_on_c, 6, 59, 95
3, 188640, Note_off_c, 6, 59, 95
3, 196740, Note_on_c, 7, 58, 95
3, 196800, Note_off_c, 7, 58, 95
3, 196800, Note_on_c, 7, 59, 95
3, 197760, Note_off_c, 7, 59, 95
3, 197760, Note_on_c, 6, 60, 95
3, 198000, Note_off_c, 6, 60, 95
3, 198000, Note_on_c, 6, 59, 95
3, 198240, Note_off_c, 6, 59, 95
3, 198240, Note_on_c, 6, 60, 95
3, 198720, Note_off_c, 6, 60, 95
3, 198720, Note_on_c, 6, 59, 95
3, 199200, Note_off_c, 6, 59, 95
3, 199200, Note_on_c, 6, 60, 95
3, 199440, Note_off_c, 6, 60, 95
3, 199440, Note_on_c, 6, 62, 70
3, 199680, Note_off_c, 6, 62, 70
3, 199680, Note_on_c, 6, 58, 95
3, 200100, Note_on_c, 7, 57, 95
3, 200160, Note_off_c, 6, 58, 95
3, 200160, Note_off_c, 7, 57, 95
3, 200160, Note_on_c, 7, 58, 95
3, 200640, Note_off_c, 7, 58, 95
3, 200640, Note_on_c, 6, 57, 95
3, 201120, Note_off_c, 6, 57, 95
3, 201120, Note_on_c, 6, 55, 95
3, 201360, Note_off_c, 6, 55, 95
3, 201360, Note_on_c, 6, 50, 95
3, 201600, Note_off_c, 6, 50, 95
3, 201600, Note_on_c, 6, 50, 95
3, 203040, Note_off_c, 6, 50, 95
3, 205380, Note_on_c, 7, 62, 95
3, 205440, Note_off_c, 7, 62, 95
3, 205440, Note_on_c, 7, 65, 95
3, 206400, Note_off_c, 7, 65, 95
3, 206400, Note_on_c, 6, 65, 95
3, 206880, Note_off_c, 6, 65, 95
3, 206880, Note_on_c, 6, 64, 95
3, 207360, Note_off_c, 6, 64, 95
3, 207360, Note_on_c, 6, 62, 95
3, 207600, Note_off_c, 6, 62, 95
3, 207600, Note_on_c, 6, 58, 95
3, 208320, Note_off_c, 6, 58, 95
3, 208320, Note_on_c, 6, 59, 95
3, 208800, Note_off_c, 6, 59, 95
3, 208800, Note_on_c, 6, 55, 95
3, 210240, Note_off_c, 6, 55, 95
3, 210240, Note_on_c, 6, 60, 95
3, 210720, Note_off_c, 6, 60, 95
3, 210720, Note_on_c, 6, 55, 95
3, 211140, Note_on_c, 7, 58, 95
3, 211200, Note_off_c, 6, 55, 95
3, 211200, Note_off_c, 7, 58, 95
3, 211200, Note_on_c, 7, 59, 95
3, 211440, Note_off_c, 7, 59, 95
3, 211440, Note_on_c, 6, 55, 95
3, 213120, Note_off_c, 6, 55, 95
3, 358020, Note_on_c, 7, 64, 95
3, 358080, Note_off_c, 7, 64, 95
3, 358080, Note_on_c, 7, 65, 95
3, 359040, Note_off_c, 7, 65, 95
3, 359040, Note_on_c, 6, 65, 95
3, 359520, Note_off_c, 6, 65, 95
3, 359520, Note_on_c, 6, 62, 95
3, 360000, Note_off_c, 6, 62, 95
3, 360000, Note_on_c, 6, 65, 95
3, 360960, Note_off_c, 6, 65, 95
3, 360960, Note_on_c, 6, 67, 70
3, 361440, Note_off_c, 6, 67, 70
3, 361440, Note_on_c, 6, 61, 95
3, 361680, Note_off_c, 6, 61, 95
3, 361680, Note_on_c, 6, 60, 70
3, 362400, Note_off_c, 6, 60, 70
3, 362400, Note_on_c, 6, 57, 95
3, 362880, Note_off_c, 6, 57, 95
3, 362880, Note_on_c, 6, 55, 95
3, 364320, Note_off_c, 6, 55, 95
3, 366660, Note_on_c, 7, 58, 95
3, 366720, Note_off_c, 7, 58, 95
3, 366720, Note_on_c, 7, 60, 95
3, 367200, Note_off_c, 7, 60, 95
3, 367200, Note_on_c, 6, 60, 95
3, 367440, Note_off_c, 6, 60, 95
3, 367440, Note_on_c, 6, 60, 95
3, 367680, Note_off_c, 6, 60, 95
3, 368160, Note_on_c, 6, 59, 95
3, 369120, Note_off_c, 6, 59, 95
3, 369120, Note_on_c, 6, 57, 95
3, 370080, Note_off_c, 6, 57, 95
3, 370080, Note_on_c, 6, 55, 95
3, 371040, Note_off_c, 6, 55, 95
3, 371040, Note_on_c, 6, 60, 95
3, 371520, Note_on_c, 6, 55, 95
3, 372000, Note_off_c, 6, 60, 95
3, 372000, Note_off_c, 6, 55, 95
3, 372000, Note_on_c, 6, 58, 95
3, 372480, Note_off_c, 6, 58, 95
3, 372480, Note_on_c, 6, 59, 95
3, 374400, Note_off_c, 6, 59, 95
3, 381000, Note_on_c, 7, 62, 95
3, 381120, Note_off_c, 7, 62, 95
3, 381120, Note_on_c, 7, 65, 95
3, 382080, Note_off_c, 7, 65, 95
3, 382080, Note_on_c, 6, 65, 95
3, 382560, Note_off_c, 6, 65, 95
3, 382560, Note_on_c, 6, 62, 95
3, 383040, Note_off_c, 6, 62, 95
3, 383040, Note_on_c, 6, 65, 95
3, 384000, Note_off_c, 6, 65, 95
3, 384000, Note_on_c, 6, 67, 70
3, 384480, Note_off_c, 6, 67, 70
3, 384480, Note_on_c, 6, 61, 95
3, 384720, Note_off_c, 6, 61, 95
3, 384720, Note_on_c, 6, 60, 70
3, 385440, Note_off_c, 6, 60, 70
3, 385440, Note_on_c, 6, 58, 95
3, 385920, Note_off_c, 6, 58, 95
3, 385920, Note_on_c, 6, 55, 95
3, 387360, Note_off_c, 6, 55, 95
3, 389700, Note_on_c, 7, 58, 95
3, 389760, Note_off_c, 7, 58, 95
3, 389760, Note_on_c, 7, 60, 95
3, 390240, Note_off_c, 7, 60, 95
3, 390240, Note_on_c, 6, 60, 95
3, 390480, Note_off_c, 6, 60, 95
3, 390480, Note_on_c, 6, 60, 95
3, 390720, Note_off_c, 6, 60, 95
3, 391200, Note_on_c, 6, 58, 95
3, 392160, Note_off_c, 6, 58, 95
3, 392160, Note_on_c, 6, 57, 95
3, 392640, Note_off_c, 6, 57, 95
3, 392640, Note_on_c, 6, 55, 95
3, 393600, Note_off_c, 6, 55, 95
3, 393600, Note_on_c, 6, 60, 95
3, 394080, Note_off_c, 6, 60, 95
3, 394080, Note_on_c, 6, 55, 70
3, 394560, Note_off_c, 6, 55, 70
3, 394560, Note_on_c, 6, 58, 95
3, 395040, Note_off_c, 6, 58, 95
3, 395040, Note_on_c, 6, 59, 70
3, 396000, Note_off_c, 6, 59, 70
3, 404100, Note_on_c, 7, 59, 95
3, 404160, Note_off_c, 7, 59, 95
3, 404160, Note_on_c, 7, 60, 95
3, 404640, Note_off_c, 7, 60, 95
3, 404640, Note_on_c, 6, 60, 95
3, 405120, Note_off_c, 6, 60, 95
3, 405120, Note_on_c, 6, 59, 95
3, 405600, Note_off_c, 6, 59, 95
3, 405600, Note_on_c, 6, 62, 95
3, 406500, Note_on_c, 7, 57, 95
3, 406560, Note_off_c, 6, 62, 95
3, 406560, Note_off_c, 7, 57, 95
3, 406560, Note_on_c, 7, 58, 95
3, 407520, Note_off_c, 7, 58, 95
3, 407520, Note_on_c, 6, 58, 95
3, 408000, Note_off_c, 6, 58, 95
3, 408000, Note_on_c, 6, 57, 95
3, 408480, Note_off_c, 6, 57, 95
3, 408480, Note_on_c, 6, 55, 95
3, 408720, Note_off_c, 6, 55, 95
3, 408720, Note_on_c, 6, 50, 95
3, 408900, Note_on_c, 7, 48, 95
3, 408960, Note_off_c, 6, 50, 95
3, 408960, Note_off_c, 7, 48, 95
3, 408960, Note_on_c, 7, 50, 95
3, 410400, Note_off_c, 7, 50, 95
3, 412740, Note_on_c, 7, 62, 95
3, 412800, Note_off_c, 7, 62, 95
3, 412800, Note_on_c, 7, 65, 95
3, 413760, Note_off_c, 7, 65, 95
3, 413760, Note_on_c, 6, 62, 95
3, 414000, Note_off_c, 6, 62, 95
3, 414000, Note_on_c, 6, 60, 70
3, 414720, Note_off_c, 6, 60, 70
3, 414720, Note_on_c, 6, 58, 95
3, 415200, Note_off_c, 6, 58, 95
3, 415200, Note_on_c, 6, 55, 95
3, 415440, Note_off_c, 6, 55, 95
3, 415440, Note_on_c, 6, 53, 95
3, 416160, Note_off_c, 6, 53, 95
3, 416160, Note_on_c, 6, 55, 95
3, 416400, Note_off_c, 6, 55, 95
3, 416400, Note_on_c, 6, 53, 95
3, 417060, Note_on_c, 7, 59, 95
3, 417120, Note_off_c, 6, 53, 95
3, 417120, Note_off_c, 7, 59, 95
3, 417120, Note_on_c, 7, 60, 95
3, 418080, Note_off_c, 7, 60, 95
3, 418080, Note_on_c, 6, 58, 95
3, 418560, Note_off_c, 6, 58, 95
3, 418560, Note_on_c, 6, 55, 70
3, 420480, Note_off_c, 6, 55, 70
3, 420480, End_track
4, 0, Start_track
4, 0, Pitch_bend_c, 0, 8192
4, 0, Control_c, 0, 7, 103
4, 0, Control_c, 0, 10, 63
4, 0, Control_c, 0, 93, 0
4, 0, Control_c, 0, 91, 0
4, 0, Control_c, 0, 95, 0
4, 0, Control_c, 0, 92, 0
4, 0, Control_c, 0, 11, 127
4, 0, Program_c, 0, 30
4, 0, Control_c, 1, 7, 103
4, 0, Control_c, 1, 10, 63
4, 0, Control_c, 1, 93, 0
4, 0, Control_c, 1, 91, 0
4, 0, Control_c, 1, 95, 0
4, 0, Control_c, 1, 92, 0
4, 0, Control_c, 1, 11, 127
4, 0, Program_c, 1, 30
4, 0, Pitch_bend_c, 1, 8192
4, 0, Note_on_c, 1, 60, 95
4, 21, Pitch_bend_c, 1, 8320
4, 42, Pitch_bend_c, 1, 8448
4, 63, Pitch_bend_c, 1, 8576
4, 84, Pitch_bend_c, 1, 8704
4, 105, Pitch_bend_c, 1, 8832
4, 126, Pitch_bend_c, 1, 8960
4, 147, Pitch_bend_c, 1, 9088
4, 168, Pitch_bend_c, 1, 9216
4, 189, Pitch_bend_c, 1, 9344
4, 210, Pitch_bend_c, 1, 9472
4, 231, Pitch_bend_c, 1, 9600
4, 240, Pitch_bend_c, 1, 9600
4, 480, Pitch_bend_c, 1, 9600
4, 480, Pitch_bend_c, 1, 8192
4, 480, Note_off_c, 1, 60, 95
4, 480, Note_on_c, 0, 62, 95
4, 960, Note_off_c, 0, 62, 95
4, 960, Note_on_c, 0, 67, 95
4, 1440, Note_off_c, 0, 67, 95
4, 1440, Pitch_bend_c, 1, 8192
4, 1440, Note_on_c, 1, 65, 95
4, 1560, Pitch_bend_c, 1, 8320
4, 1680, Pitch_bend_c, 1, 8448
4, 1680, Pitch_bend_c, 1, 8448
4, 1920, Pitch_bend_c, 1, 8448
4, 1920, Pitch_bend_c, 1, 8192
4, 1920, Note_off_c, 1, 65, 95
4, 1920, Note_on_c, 0, 67, 95
4, 2400, Note_off_c, 0, 67, 95
4, 2400, Pitch_bend_c, 1, 8192
4, 2400, Note_on_c, 1, 70, 95
4, 2448, Pitch_bend_c, 1, 8320
4, 2496, Pitch_bend_c, 1, 8448
4, 2544, Pitch_bend_c, 1, 8576
4, 2592, Pitch_bend_c, 1, 8704
4, 2640, Pitch_bend_c, 1, 8832
4, 2640, Pitch_bend_c, 1, 8832
4, 2880, Pitch_bend_c, 1, 8832
4, 2880, Pitch_bend_c, 1, 8192
4, 2880, Note_off_c, 1, 70, 95
4, 2880, Note_on_c, 0, 67, 95
4, 3360, Note_off_c, 0, 67, 95
4, 3360, Note_on_c, 0, 62, 95
4, 3840, Note_off_c, 0, 62, 95
4, 3840, Pitch_bend_c, 1, 9600
4, 3840, Note_on_c, 1, 60, 95
4, 4160, Pitch_bend_c, 1, 9600
4, 4189, Pitch_bend_c, 1, 9472
4, 4218, Pitch_bend_c, 1, 9344
4, 4247, Pitch_bend_c, 1, 9216
4, 4276, Pitch_bend_c, 1, 9088
4, 4305, Pitch_bend_c, 1, 8960
4, 4334, Pitch_bend_c, 1, 8832
4, 4363, Pitch_bend_c, 1, 8704
4, 4392, Pitch_bend_c, 1, 8576
4, 4421, Pitch_bend_c, 1, 8448
4, 4450, Pitch_bend_c, 1, 8320
4, 4479, Pitch_bend_c, 1, 8192
4, 4480, Pitch_bend_c, 1, 8192
4, 4800, Pitch_bend_c, 1, 8192
4, 4800, Pitch_bend_c, 1, 8192
4, 4800, Note_off_c, 1, 60, 95
4, 4800, Note_on_c, 0, 58, 95
4, 5280, Note_off_c, 0, 58, 95
4, 5280, Note_on_c, 0, 55, 95
4, 5640, Note_on_c, 1, 58, 95
4, 5760, Note_off_c, 0, 55, 95
4, 5760, Note_off_c, 1, 58, 95
4, 5760, Note_on_c, 1, 59, 95
4, 6240, Note_off_c, 1, 59, 95
4, 6240, Note_on_c, 0, 55, 95
4, 6720, Note_off_c, 0, 55, 95
4, 6720, Note_on_c, 0, 50, 95
4, 7200, Note_off_c, 0, 50, 95
4, 7200, Note_on_c, 0, 48, 95
4, 8160, Note_off_c, 0, 48, 95
4, 8160, Note_on_c, 0, 47, 95
4, 8640, Note_off_c, 0, 47, 95
4, 12360, Note_on_c, 1, 53, 95
4, 12480, Note_off_c, 1, 53, 95
4, 12480, Note_on_c, 1, 55, 95
4, 13920, Note_off_c, 1, 55, 95
4, 13920, Note_on_c, 1, 53, 95
4, 14080, Pitch_bend_c, 1, 8192
4, 14240, Pitch_bend_c, 1, 8320
4, 14400, Pitch_bend_c, 1, 8192
4, 14560, Pitch_bend_c, 1, 8320
4, 14720, Pitch_bend_c, 1, 8192
4, 14880, Pitch_bend_c, 1, 8320
4, 15040, Pitch_bend_c, 1, 8192
4, 15200, Pitch_bend_c, 1, 8320
4, 15360, Pitch_bend_c, 1, 8192
4, 15520, Pitch_bend_c, 1, 8320
4, 15680, Pitch_bend_c, 1, 8192
4, 15840, Pitch_bend_c, 1, 8320
4, 15840, Pitch_bend_c, 1, 8192
4, 15840, Note_off_c, 1, 53, 95
4, 18600, Note_on_c, 1, 58, 95
4, 18720, Note_off_c, 1, 58, 95
4, 18720, Note_on_c, 1, 60, 95
4, 19680, Note_off_c, 1, 60, 95
4, 19680, Note_on_c, 1, 58, 95
4, 19840, Pitch_bend_c, 1, 8192
4, 20000, Pitch_bend_c, 1, 8320
4, 20160, Pitch_bend_c, 1, 8192
4, 20320, Pitch_bend_c, 1, 8320
4, 20480, Pitch_bend_c, 1, 8192
4, 20640, Pitch_bend_c, 1, 8320
4, 20800, Pitch_bend_c, 1, 8192
4, 20960, Pitch_bend_c, 1, 8320
4, 21120, Pitch_bend_c, 1, 8192
4, 21280, Pitch_bend_c, 1, 8320
4, 21440, Pitch_bend_c, 1, 8192
4, 21600, Pitch_bend_c, 1, 8320
4, 21600, Pitch_bend_c, 1, 8192
4, 21600, Note_off_c, 1, 58, 95
4, 24360, Note_on_c, 1, 53, 95
4, 24480, Note_off_c, 1, 53, 95
4, 24480, Note_on_c, 1, 55, 95
4, 25440, Note_off_c, 1, 55, 95
4, 25440, Note_on_c, 0, 53, 95
4, 27360, Note_off_c, 0, 53, 95
4, 28680, Note_on_c, 1, 64, 95
4, 28800, Note_off_c, 1, 64, 95
4, 28800, Note_on_c, 1, 65, 95
4, 29280, Note_off_c, 1, 65, 95
4, 29280, Note_on_c, 0, 64, 95
4, 29760, Note_off_c, 0, 64, 95
4, 29760, Note_on_c, 0, 62, 95
4, 30240, Note_off_c, 0, 62, 95
4, 30240, Note_on_c, 0, 60, 95
4, 30480, Note_off_c, 0, 60, 95
4, 30480, Note_on_c, 0, 62, 95
4, 30720, Note_off_c, 0, 62, 95
4, 30720, Pitch_bend_c, 1, 8192
4, 30720, Note_on_c, 1, 60, 95
4, 30730, Pitch_bend_c, 1, 8320
4, 30740, Pitch_bend_c, 1, 8448
4, 30750, Pitch_bend_c, 1, 8576
4, 30760, Pitch_bend_c, 1, 8704
4, 30770, Pitch_bend_c, 1, 8832
4, 30780, Pitch_bend_c, 1, 8960
4, 30790, Pitch_bend_c, 1, 9088
4, 30800, Pitch_bend_c, 1, 9216
4, 30810, Pitch_bend_c, 1, 9344
4, 30820, Pitch_bend_c, 1, 9472
4, 30830, Pitch_bend_c, 1, 9600
4, 30840, Pitch_bend_c, 1, 9600
4, 30960, Pitch_bend_c, 1, 9600
4, 30970, Pitch_bend_c, 1, 9472
4, 30980, Pitch_bend_c, 1, 9344
4, 30990, Pitch_bend_c, 1, 9216
4, 31000, Pitch_bend_c, 1, 9088
4, 31010, Pitch_bend_c, 1, 8960
4, 31020, Pitch_bend_c, 1, 8832
4, 31030, Pitch_bend_c, 1, 8704
4, 31040, Pitch_bend_c, 1, 8576
4, 31050, Pitch_bend_c, 1, 8448
4, 31060, Pitch_bend_c, 1, 8320
4, 31070, Pitch_bend_c, 1, 8192
4, 31080, Pitch_bend_c, 1, 8192
4, 31200, Pitch_bend_c, 1, 8192
4, 31200, Pitch_bend_c, 1, 8192
4, 31200, Note_off_c, 1, 60, 95
4, 31200, Note_on_c, 0, 58, 95
4, 31440, Note_off_c, 0, 58, 95
4, 31440, Note_on_c, 0, 55, 95
4, 31680, Note_off_c, 0, 55, 95
4, 31680, Note_on_c, 0, 60, 95
4, 31920, Note_off_c, 0, 60, 95
4, 31920, Note_on_c, 0, 55, 95
4, 32160, Note_off_c, 0, 55, 95
4, 32160, Note_on_c, 0, 58, 95
4, 32400, Note_off_c, 0, 58, 95
4, 32400, Pitch_bend_c, 1, 8192
4, 32400, Note_on_c, 1, 60, 95
4, 32421, Pitch_bend_c, 1, 8320
4, 32442, Pitch_bend_c, 1, 8448
4, 32463, Pitch_bend_c, 1, 8576
4, 32484, Pitch_bend_c, 1, 8704
4, 32505, Pitch_bend_c, 1, 8832
4, 32526, Pitch_bend_c, 1, 8960
4, 32547, Pitch_bend_c, 1, 9088
4, 32568, Pitch_bend_c, 1, 9216
4, 32589, Pitch_bend_c, 1, 9344
4, 32610, Pitch_bend_c, 1, 9472
4, 32631, Pitch_bend_c, 1, 9600
4, 32640, Pitch_bend_c, 1, 9600
4, 32880, Pitch_bend_c, 1, 9600
4, 32880, Pitch_bend_c, 1, 8192
4, 32880, Note_off_c, 1, 60, 95
4, 32880, Note_on_c, 0, 62, 95
4, 33120, Note_off_c, 0, 62, 95
4, 33120, Note_on_c, 0, 67, 95
4, 33360, Note_off_c, 0, 67, 95
4, 33360, Note_on_c, 0, 62, 95
4, 33600, Note_off_c, 0, 62, 95
4, 33600, Pitch_bend_c, 1, 8192
4, 33600, Note_on_c, 1, 70, 95
4, 33720, Pitch_bend_c, 1, 8320
4, 33840, Pitch_bend_c, 1, 8448
4, 33840, Pitch_bend_c, 1, 8448
4, 34080, Pitch_bend_c, 1, 8448
4, 34080, Pitch_bend_c, 1, 8192
4, 34080, Note_off_c, 1, 70, 95
4, 34080, Note_on_c, 0, 67, 95
4, 34560, Note_off_c, 0, 67, 95
4, 35880, Note_on_c, 1, 53, 95
4, 36000, Note_off_c, 1, 53, 95
4, 36000, Note_on_c, 1, 55, 95
4, 36480, Note_off_c, 1, 55, 95
4, 36480, Note_on_c, 0, 58, 95
4, 36960, Note_off_c, 0, 58, 95
4, 36960, Note_on_c, 0, 60, 95
4, 37440, Note_off_c, 0, 60, 95
4, 37440, Pitch_bend_c, 1, 8192
4, 37440, Note_on_c, 1, 60, 95
4, 37464, Pitch_bend_c, 1, 8320
4, 37488, Pitch_bend_c, 1, 8448
4, 37512, Pitch_bend_c, 1, 8576
4, 37536, Pitch_bend_c, 1, 8704
4, 37560, Pitch_bend_c, 1, 8832
4, 37560, Pitch_bend_c, 1, 8832
4, 37680, Pitch_bend_c, 1, 8832
4, 37704, Pitch_bend_c, 1, 8704
4, 37728, Pitch_bend_c, 1, 8576
4, 37752, Pitch_bend_c, 1, 8448
4, 37776, Pitch_bend_c, 1, 8320
4, 37800, Pitch_bend_c, 1, 8192
4, 37800, Pitch_bend_c, 1, 8192
4, 37920, Pitch_bend_c, 1, 8192
4, 37920, Pitch_bend_c, 1, 8192
4, 37920, Note_off_c, 1, 60, 95
4, 37920, Note_on_c, 0, 58, 95
4, 38160, Note_off_c, 0, 58, 95
4, 38160, Note_on_c, 0, 55, 95
4, 38400, Note_off_c, 0, 55, 95
4, 38880, Pitch_bend_c, 1, 8192
4, 38880, Note_on_c, 1, 60, 95
4, 38923, Pitch_bend_c, 1, 8320
4, 38966, Pitch_bend_c, 1, 8448
4, 39009, Pitch_bend_c, 1, 8576
4, 39052, Pitch_bend_c, 1, 8704
4, 39095, Pitch_bend_c, 1, 8832
4, 39138, Pitch_bend_c, 1, 8960
4, 39181, Pitch_bend_c, 1, 9088
4, 39224, Pitch_bend_c, 1, 9216
4, 39267, Pitch_bend_c, 1, 9344
4, 39310, Pitch_bend_c, 1, 9472
4, 39353, Pitch_bend_c, 1, 9600
4, 39360, Pitch_bend_c, 1, 9600
4, 39840, Pitch_bend_c, 1, 9600
4, 39840, Pitch_bend_c, 1, 8192
4, 39840, Note_off_c, 1, 60, 95
4, 39840, Note_on_c, 0, 62, 95
4, 40320, Note_off_c, 0, 62, 95
4, 40320, Pitch_bend_c, 1, 8192
4, 40320, Note_on_c, 1, 60, 95
4, 40344, Pitch_bend_c, 1, 8320
4, 40368, Pitch_bend_c, 1, 8448
4, 40392, Pitch_bend_c, 1, 8576
4, 40416, Pitch_bend_c, 1, 8704
4, 40440, Pitch_bend_c, 1, 8832
4, 40440, Pitch_bend_c, 1, 8832
4, 40560, Pitch_bend_c, 1, 8832
4, 40584, Pitch_bend_c, 1, 8704
4, 40608, Pitch_bend_c, 1, 8576
4, 40632, Pitch_bend_c, 1, 8448
4, 40656, Pitch_bend_c, 1, 8320
4, 40680, Pitch_bend_c, 1, 8192
4, 40680, Pitch_bend_c, 1, 8192
4, 40800, Pitch_bend_c, 1, 8192
4, 40800, Pitch_bend_c, 1, 8192
4, 40800, Note_off_c, 1, 60, 95
4, 40800, Note_on_c, 0, 59, 95
4, 41280, Note_off_c, 0, 59, 95
4, 44160, Note_on_c, 0, 70, 95
4, 44160, Pitch_bend_c, 1, 8192
4, 44160, Note_on_c, 1, 64, 95
4, 44352, Pitch_bend_c, 1, 8320
4, 44544, Pitch_bend_c, 1, 8448
4, 44640, Note_off_c, 0, 70, 95
4, 44736, Pitch_bend_c, 1, 8576
4, 44928, Pitch_bend_c, 1, 8704
4, 45120, Pitch_bend_c, 1, 8832
4, 45120, Pitch_bend_c, 1, 8832
4, 46080, Pitch_bend_c, 1, 8832
4, 46080, Pitch_bend_c, 1, 8192
4, 46080, Note_off_c, 1, 64, 95
4, 46080, Note_on_c, 0, 67, 95
4, 47040, Note_off_c, 0, 67, 95
4, 47280, Note_on_c, 0, 62, 95
4, 47520, Note_off_c, 0, 62, 95
4, 47520, Pitch_bend_c, 1, 8192
4, 47520, Note_on_c, 1, 60, 95
4, 47544, Pitch_bend_c, 1, 8320
4, 47568, Pitch_bend_c, 1, 8448
4, 47592, Pitch_bend_c, 1, 8576
4, 47616, Pitch_bend_c, 1, 8704
4, 47640, Pitch_bend_c, 1, 8832
4, 47640, Pitch_bend_c, 1, 8832
4, 47760, Pitch_bend_c, 1, 8832
4, 47784, Pitch_bend_c, 1, 8704
4, 47808, Pitch_bend_c, 1, 8576
4, 47832, Pitch_bend_c, 1, 8448
4, 47856, Pitch_bend_c, 1, 8320
4, 47880, Pitch_bend_c, 1, 8192
4, 47880, Pitch_bend_c, 1, 8192
4, 48000, Pitch_bend_c, 1, 8192
4, 48000, Pitch_bend_c, 1, 8192
4, 48000, Note_off_c, 1, 60, 95
4, 48000, Note_on_c, 0, 58, 95
4, 48480, Note_off_c, 0, 58, 95
4, 48480, Note_on_c, 0, 55, 95
4, 48840, Note_on_c, 1, 58, 95
4, 48960, Note_off_c, 0, 55, 95
4, 48960, Note_off_c, 1, 58, 95
4, 48960, Note_on_c, 1, 59, 95
4, 49440, Note_off_c, 1, 59, 95
4, 49440, Note_on_c, 0, 55, 95
4, 49920, Note_off_c, 0, 55, 95
4, 49920, Note_on_c, 0, 50, 95
4, 50400, Note_off_c, 0, 50, 95
4, 53520, Note_on_c, 1, 53, 95
4, 53640, Note_off_c, 1, 53, 95
4, 53640, Note_on_c, 1, 55, 95
4, 54000, Note_off_c, 1, 55, 95
4, 54000, Note_on_c, 0, 58, 95
4, 54360, Note_off_c, 0, 58, 95
4, 54360, Note_on_c, 0, 60, 95
4, 54720, Note_off_c, 0, 60, 95
4, 54720, Pitch_bend_c, 1, 8192
4, 54720, Note_on_c, 1, 60, 95
4, 54741, Pitch_bend_c, 1, 8320
4, 54762, Pitch_bend_c, 1, 8448
4, 54783, Pitch_bend_c, 1, 8576
4, 54804, Pitch_bend_c, 1, 8704
4, 54825, Pitch_bend_c, 1, 8832
4, 54846, Pitch_bend_c, 1, 8960
4, 54867, Pitch_bend_c, 1, 9088
4, 54888, Pitch_bend_c, 1, 9216
4, 54909, Pitch_bend_c, 1, 9344
4, 54930, Pitch_bend_c, 1, 9472
4, 54951, Pitch_bend_c, 1, 9600
4, 54960, Pitch_bend_c, 1, 9600
4, 55200, Pitch_bend_c, 1, 9600
4, 55200, Pitch_bend_c, 1, 8192
4, 55200, Note_off_c, 1, 60, 95
4, 55200, Note_on_c, 0, 62, 95
4, 55680, Note_off_c, 0, 62, 95
4, 55680, Pitch_bend_c, 1, 8192
4, 55680, Note_on_c, 1, 60, 95
4, 55704, Pitch_bend_c, 1, 8320
4, 55728, Pitch_bend_c, 1, 8448
4, 55752, Pitch_bend_c, 1, 8576
4, 55776, Pitch_bend_c, 1, 8704
4, 55800, Pitch_bend_c, 1, 8832
4, 55800, Pitch_bend_c, 1, 8832
4, 55920, Pitch_bend_c, 1, 8832
4, 55944, Pitch_bend_c, 1, 8704
4, 55968, Pitch_bend_c, 1, 8576
4, 55992, Pitch_bend_c, 1, 8448
4, 56016, Pitch_bend_c, 1, 8320
4, 56040, Pitch_bend_c, 1, 8192
4, 56040, Pitch_bend_c, 1, 8192
4, 56160, Pitch_bend_c, 1, 8192
4, 56160, Pitch_bend_c, 1, 8192
4, 56160, Note_off_c, 1, 60, 95
4, 56160, Note_on_c, 0, 58, 95
4, 56400, Note_off_c, 0, 58, 95
4, 56400, Note_on_c, 0, 55, 95
4, 56640, Note_off_c, 0, 55, 95
4, 56640, Note_on_c, 0, 60, 95
4, 56880, Note_off_c, 0, 60, 95
4, 56880, Note_on_c, 0, 55, 95
4, 57120, Note_off_c, 0, 55, 95
4, 57120, Note_on_c, 0, 58, 95
4, 57360, Note_off_c, 0, 58, 95
4, 57360, Pitch_bend_c, 1, 8192
4, 57360, Note_on_c, 1, 60, 95
4, 57381, Pitch_bend_c, 1, 8320
4, 57402, Pitch_bend_c, 1, 8448
4, 57423, Pitch_bend_c, 1, 8576
4, 57444, Pitch_bend_c, 1, 8704
4, 57465, Pitch_bend_c, 1, 8832
4, 57486, Pitch_bend_c, 1, 8960
4, 57507, Pitch_bend_c, 1, 9088
4, 57528, Pitch_bend_c, 1, 9216
4, 57549, Pitch_bend_c, 1, 9344
4, 57570, Pitch_bend_c, 1, 9472
4, 57591, Pitch_bend_c, 1, 9600
4, 57600, Pitch_bend_c, 1, 9600
4, 57840, Pitch_bend_c, 1, 9600
4, 57840, Pitch_bend_c, 1, 8192
4, 57840, Note_off_c, 1, 60, 95
4, 57840, Note_on_c, 0, 62, 95
4, 58080, Note_off_c, 0, 62, 95
4, 58080, Note_on_c, 0, 67, 95
4, 58320, Note_off_c, 0, 67, 95
4, 59040, Note_on_c, 0, 62, 95
4, 59520, Note_off_c, 0, 62, 95
4, 59520, Note_on_c, 0, 65, 95
4, 60000, Note_off_c, 0, 65, 95
4, 60000, Note_on_c, 0, 67, 95
4, 60480, Note_off_c, 0, 67, 95
4, 60480, Pitch_bend_c, 1, 8192
4, 60480, Note_on_c, 1, 70, 95
4, 60576, Pitch_bend_c, 1, 8320
4, 60672, Pitch_bend_c, 1, 8448
4, 60768, Pitch_bend_c, 1, 8576
4, 60864, Pitch_bend_c, 1, 8704
4, 60960, Pitch_bend_c, 1, 8832
4, 60960, Pitch_bend_c, 1, 8832
4, 61440, Pitch_bend_c, 1, 8832
4, 61440, Pitch_bend_c, 1, 8192
4, 61440, Note_off_c, 1, 70, 95
4, 61440, Pitch_bend_c, 1, 8192
4, 61440, Note_on_c, 1, 70, 95
4, 61488, Pitch_bend_c, 1, 8320
4, 61536, Pitch_bend_c, 1, 8448
4, 61584, Pitch_bend_c, 1, 8576
4, 61632, Pitch_bend_c, 1, 8704
4, 61680, Pitch_bend_c, 1, 8832
4, 61680, Pitch_bend_c, 1, 8832
4, 61920, Pitch_bend_c, 1, 8832
4, 61920, Pitch_bend_c, 1, 8192
4, 61920, Note_off_c, 1, 70, 95
4, 61920, Note_on_c, 0, 67, 95
4, 62400, Note_off_c, 0, 67, 95
4, 62400, Note_on_c, 0, 62, 95
4, 62880, Note_off_c, 0, 62, 95
4, 62880, Note_on_c, 0, 60, 95
4, 63360, Note_off_c, 0, 60, 95
4, 63360, Pitch_bend_c, 1, 8192
4, 63360, Note_on_c, 1, 58, 95
4, 63408, Pitch_bend_c, 1, 8320
4, 63456, Pitch_bend_c, 1, 8448
4, 63504, Pitch_bend_c, 1, 8576
4, 63552, Pitch_bend_c, 1, 8704
4, 63600, Pitch_bend_c, 1, 8832
4, 63600, Pitch_bend_c, 1, 8832
4, 63840, Pitch_bend_c, 1, 8832
4, 63840, Pitch_bend_c, 1, 8192
4, 63840, Note_off_c, 1, 58, 95
4, 63840, Note_on_c, 0, 55, 95
4, 64320, Note_off_c, 0, 55, 95
4, 64320, Note_on_c, 0, 50, 95
4, 64800, Note_off_c, 0, 50, 95
4, 68040, Note_on_c, 1, 70, 95
4, 68160, Note_off_c, 1, 70, 95
4, 68160, Pitch_bend_c, 1, 8192
4, 68160, Note_on_c, 1, 72, 95
4, 68400, Pitch_bend_c, 1, 8320
4, 68640, Pitch_bend_c, 1, 8448
4, 68640, Pitch_bend_c, 1, 8448
4, 69120, Pitch_bend_c, 1, 8448
4, 69120, Pitch_bend_c, 1, 8192
4, 69120, Note_off_c, 1, 72, 95
4, 69120, Pitch_bend_c, 1, 8192
4, 69120, Note_on_c, 1, 70, 95
4, 69480, Pitch_bend_c, 1, 8320
4, 69840, Pitch_bend_c, 1, 8448
4, 69840, Pitch_bend_c, 1, 8448
4, 70560, Pitch_bend_c, 1, 8448
4, 70560, Pitch_bend_c, 1, 8192
4, 70560, Note_off_c, 1, 70, 95
4, 70560, Note_on_c, 0, 67, 95
4, 70920, Note_on_c, 1, 61, 95
4, 71040, Note_off_c, 0, 67, 95
4, 71040, Note_off_c, 1, 61, 95
4, 71040, Note_on_c, 1, 60, 95
4, 71400, Note_on_c, 1, 58, 95
4, 71520, Note_off_c, 1, 60, 95
4, 71520, Note_off_c, 1, 58, 95
4, 71520, Note_on_c, 1, 59, 95
4, 72000, Note_off_c, 1, 59, 95
4, 72000, Note_on_c, 1, 55, 95
4, 72160, Pitch_bend_c, 1, 8192
4, 72320, Pitch_bend_c, 1, 8320
4, 72480, Pitch_bend_c, 1, 8192
4, 72640, Pitch_bend_c, 1, 8320
4, 72800, Pitch_bend_c, 1, 8192
4, 72960, Pitch_bend_c, 1, 8320
4, 72960, Pitch_bend_c, 1, 8192
4, 72960, Note_off_c, 1, 55, 95
4, 72960, Note_on_c, 0, 50, 95
4, 73320, Note_on_c, 1, 58, 95
4, 73440, Note_off_c, 0, 50, 95
4, 73440, Note_off_c, 1, 58, 95
4, 73440, Note_on_c, 1, 59, 95
4, 73920, Note_off_c, 1, 59, 95
4, 73920, Note_on_c, 0, 62, 95
4, 74400, Note_off_c, 0, 62, 95
4, 74400, Note_on_c, 0, 67, 95
4, 74880, Note_off_c, 0, 67, 95
4, 74880, Pitch_bend_c, 1, 8192
4, 74880, Note_on_c, 1, 65, 95
4, 75000, Pitch_bend_c, 1, 8320
4, 75120, Pitch_bend_c, 1, 8448
4, 75120, Pitch_bend_c, 1, 8448
4, 75360, Pitch_bend_c, 1, 8448
4, 75360, Pitch_bend_c, 1, 8192
4, 75360, Note_off_c, 1, 65, 95
4, 75840, Note_on_c, 0, 65, 95
4, 76320, Note_off_c, 0, 65, 95
4, 76320, Note_on_c, 0, 62, 95
4, 76800, Note_off_c, 0, 62, 95
4, 76800, Note_on_c, 0, 60, 95
4, 77280, Note_off_c, 0, 60, 95
4, 77280, Note_on_c, 0, 62, 95
4, 77760, Note_off_c, 0, 62, 95
4, 77760, Note_on_c, 1, 65, 95
4, 77880, Pitch_bend_c, 1, 7936
4, 78000, Pitch_bend_c, 1, 7552
4, 78000, Pitch_bend_c, 1, 8192
4, 78000, Note_off_c, 1, 65, 95
4, 78000, Note_on_c, 0, 64, 95
4, 78240, Note_off_c, 0, 64, 95
4, 78240, Pitch_bend_c, 1, 8192
4, 78240, Note_on_c, 1, 58, 95
4, 78360, Pitch_bend_c, 1, 8320
4, 78480, Pitch_bend_c, 1, 8448
4, 78480, Pitch_bend_c, 1, 8448
4, 78720, Pitch_bend_c, 1, 8448
4, 78720, Pitch_bend_c, 1, 8192
4, 78720, Note_off_c, 1, 58, 95
4, 79200, Pitch_bend_c, 1, 8192
4, 79200, Note_on_c, 1, 58, 95
4, 79296, Pitch_bend_c, 1, 8320
4, 79392, Pitch_bend_c, 1, 8448
4, 79488, Pitch_bend_c, 1, 8576
4, 79584, Pitch_bend_c, 1, 8704
4, 79680, Pitch_bend_c, 1, 8832
4, 79680, Pitch_bend_c, 1, 8832
4, 80160, Pitch_bend_c, 1, 8832
4, 80160, Pitch_bend_c, 1, 8192
4, 80160, Note_off_c, 1, 58, 95
4, 80160, Note_on_c, 1, 50, 95
4, 80320, Pitch_bend_c, 1, 8192
4, 80480, Pitch_bend_c, 1, 8320
4, 80640, Pitch_bend_c, 1, 8192
4, 80800, Pitch_bend_c, 1, 8320
4, 80960, Pitch_bend_c, 1, 8192
4, 81120, Pitch_bend_c, 1, 8320
4, 81280, Pitch_bend_c, 1, 8192
4, 81440, Pitch_bend_c, 1, 8320
4, 81600, Pitch_bend_c, 1, 8192
4, 81760, Pitch_bend_c, 1, 8320
4, 81920, Pitch_bend_c, 1, 8192
4, 82080, Pitch_bend_c, 1, 8320
4, 82080, Pitch_bend_c, 1, 8192
4, 82080, Note_off_c, 1, 50, 95
4, 87720, Note_on_c, 1, 61, 95
4, 87840, Note_off_c, 1, 61, 95
4, 87840, Note_on_c, 1, 60, 95
4, 88320, Note_off_c, 1, 60, 95
4, 88320, Note_on_c, 0, 58, 70
4, 88800, Note_off_c, 0, 58, 70
4, 88800, Note_on_c, 0, 55, 95
4, 90720, Note_off_c, 0, 55, 95
4, 96480, Pitch_bend_c, 1, 8192
4, 96480, Note_on_c, 1, 60, 95
4, 96501, Pitch_bend_c, 1, 8320
4, 96522, Pitch_bend_c, 1, 8448
4, 96543, Pitch_bend_c, 1, 8576
4, 96564, Pitch_bend_c, 1, 8704
4, 96585, Pitch_bend_c, 1, 8832
4, 96606, Pitch_bend_c, 1, 8960
4, 96627, Pitch_bend_c, 1, 9088
4, 96648, Pitch_bend_c, 1, 9216
4, 96669, Pitch_bend_c, 1, 9344
4, 96690, Pitch_bend_c, 1, 9472
4, 96711, Pitch_bend_c, 1, 9600
4, 96720, Pitch_bend_c, 1, 9600
4, 96960, Pitch_bend_c, 1, 9600
4, 96960, Pitch_bend_c, 1, 8192
4, 96960, Note_off_c, 1, 60, 95
4, 96960, Note_on_c, 0, 62, 95
4, 97440, Note_off_c, 0, 62, 95
4, 97440, Note_on_c, 0, 67, 95
4, 97920, Note_off_c, 0, 67, 95
4, 97920, Pitch_bend_c, 1, 8192
4, 97920, Note_on_c, 1, 65, 95
4, 97985, Pitch_bend_c, 1, 8320
4, 98050, Pitch_bend_c, 1, 8448
4, 98115, Pitch_bend_c, 1, 8576
4, 98180, Pitch_bend_c, 1, 8704
4, 98245, Pitch_bend_c, 1, 8832
4, 98310, Pitch_bend_c, 1, 8960
4, 98375, Pitch_bend_c, 1, 9088
4, 98440, Pitch_bend_c, 1, 9216
4, 98505, Pitch_bend_c, 1, 9344
4, 98570, Pitch_bend_c, 1, 9472
4, 98635, Pitch_bend_c, 1, 9600
4, 98640, Pitch_bend_c, 1, 9600
4, 99360, Pitch_bend_c, 1, 9600
4, 99360, Pitch_bend_c, 1, 8192
4, 99360, Note_off_c, 1, 65, 95
4, 99360, Note_on_c, 0, 67, 95
4, 99840, Note_off_c, 0, 67, 95
4, 99840, Note_on_c, 0, 62, 95
4, 100320, Note_off_c, 0, 62, 95
4, 100320, Note_on_c, 0, 60, 95
4, 100800, Note_off_c, 0, 60, 95
4, 100800, Note_on_c, 0, 59, 95
4, 101280, Note_off_c, 0, 59, 95
4, 101280, Note_on_c, 0, 55, 95
4, 101760, Note_off_c, 0, 55, 95
4, 101760, Note_on_c, 0, 50, 95
4, 102240, Note_off_c, 0, 50, 95
4, 102240, Note_on_c, 0, 48, 95
4, 103200, Note_off_c, 0, 48, 95
4, 103200, Note_on_c, 0, 47, 95
4, 103680, Note_off_c, 0, 47, 95
4, 110400, Note_on_c, 0, 62, 95
4, 110760, Note_on_c, 1, 61, 95
4, 110880, Note_off_c, 0, 62, 95
4, 110880, Note_off_c, 1, 61, 95
4, 110880, Note_on_c, 1, 60, 95
4, 111360, Note_off_c, 1, 60, 95
4, 111360, Note_on_c, 0, 58, 70
4, 111840, Note_off_c, 0, 58, 70
4, 111840, Note_on_c, 0, 55, 95
4, 112320, Note_off_c, 0, 55, 95
4, 112320, Pitch_bend_c, 1, 8192
4, 112320, Note_on_c, 1, 58, 95
4, 112344, Pitch_bend_c, 1, 8320
4, 112368, Pitch_bend_c, 1, 8448
4, 112392, Pitch_bend_c, 1, 8576
4, 112416, Pitch_bend_c, 1, 8704
4, 112440, Pitch_bend_c, 1, 8832
4, 112440, Pitch_bend_c, 1, 8832
4, 112560, Pitch_bend_c, 1, 8832
4, 112560, Pitch_bend_c, 1, 8192
4, 112560, Note_off_c, 1, 58, 95
4, 119520, Pitch_bend_c, 1, 8192
4, 119520, Note_on_c, 1, 60, 95
4, 119541, Pitch_bend_c, 1, 8320
4, 119562, Pitch_bend_c, 1, 8448
4, 119583, Pitch_bend_c, 1, 8576
4, 119604, Pitch_bend_c, 1, 8704
4, 119625, Pitch_bend_c, 1, 8832
4, 119646, Pitch_bend_c, 1, 8960
4, 119667, Pitch_bend_c, 1, 9088
4, 119688, Pitch_bend_c, 1, 9216
4, 119709, Pitch_bend_c, 1, 9344
4, 119730, Pitch_bend_c, 1, 9472
4, 119751, Pitch_bend_c, 1, 9600
4, 119760, Pitch_bend_c, 1, 9600
4, 120000, Pitch_bend_c, 1, 9600
4, 120000, Pitch_bend_c, 1, 8192
4, 120000, Note_off_c, 1, 60, 95
4, 120000, Note_on_c, 0, 62, 95
4, 120480, Note_off_c, 0, 62, 95
4, 120480, Note_on_c, 0, 67, 95
4, 120960, Note_off_c, 0, 67, 95
4, 120960, Pitch_bend_c, 1, 8192
4, 120960, Note_on_c, 1, 70, 95
4, 121008, Pitch_bend_c, 1, 8320
4, 121056, Pitch_bend_c, 1, 8448
4, 121104, Pitch_bend_c, 1, 8576
4, 121152, Pitch_bend_c, 1, 8704
4, 121200, Pitch_bend_c, 1, 8832
4, 121200, Pitch_bend_c, 1, 8832
4, 121440, Pitch_bend_c, 1, 8832
4, 121440, Pitch_bend_c, 1, 8192
4, 121440, Note_off_c, 1, 70, 95
4, 121440, Note_on_c, 0, 67, 95
4, 121920, Note_off_c, 0, 67, 95
4, 121920, Pitch_bend_c, 1, 8192
4, 121920, Note_on_c, 1, 70, 95
4, 121968, Pitch_bend_c, 1, 8320
4, 122016, Pitch_bend_c, 1, 8448
4, 122064, Pitch_bend_c, 1, 8576
4, 122112, Pitch_bend_c, 1, 8704
4, 122160, Pitch_bend_c, 1, 8832
4, 122160, Pitch_bend_c, 1, 8832
4, 122400, Pitch_bend_c, 1, 8832
4, 122400, Pitch_bend_c, 1, 8192
4, 122400, Note_off_c, 1, 70, 95
4, 122400, Note_on_c, 0, 67, 95
4, 122880, Note_off_c, 0, 67, 95
4, 122880, Note_on_c, 0, 62, 95
4, 123360, Note_off_c, 0, 62, 95
4, 123360, Note_on_c, 0, 60, 95
4, 123720, Note_on_c, 1, 58, 95
4, 123840, Note_off_c, 0, 60, 95
4, 123840, Note_off_c, 1, 58, 95
4, 123840, Note_on_c, 1, 59, 95
4, 124320, Note_off_c, 1, 59, 95
4, 124320, Note_on_c, 0, 55, 95
4, 124800, Note_off_c, 0, 55, 95
4, 124800, Note_on_c, 0, 50, 95
4, 125280, Note_off_c, 0, 50, 95
4, 125280, Note_on_c, 0, 48, 95
4, 126240, Note_off_c, 0, 48, 95
4, 126240, Note_on_c, 0, 47, 95
4, 126720, Note_off_c, 0, 47, 95
4, 133920, Pitch_bend_c, 1, 8192
4, 133920, Note_on_c, 1, 60, 95
4, 133941, Pitch_bend_c, 1, 8320
4, 133962, Pitch_bend_c, 1, 8448
4, 133983, Pitch_bend_c, 1, 8576
4, 134004, Pitch_bend_c, 1, 8704
4, 134025, Pitch_bend_c, 1, 8832
4, 134046, Pitch_bend_c, 1, 8960
4, 134067, Pitch_bend_c, 1, 9088
4, 134088, Pitch_bend_c, 1, 9216
4, 134109, Pitch_bend_c, 1, 9344
4, 134130, Pitch_bend_c, 1, 9472
4, 134151, Pitch_bend_c, 1, 9600
4, 134160, Pitch_bend_c, 1, 9600
4, 134400, Pitch_bend_c, 1, 9600
4, 134400, Pitch_bend_c, 1, 8192
4, 134400, Note_off_c, 1, 60, 95
4, 134400, Note_on_c, 0, 62, 95
4, 134880, Note_off_c, 0, 62, 95
4, 134880, Pitch_bend_c, 1, 8192
4, 134880, Note_on_c, 1, 60, 95
4, 134904, Pitch_bend_c, 1, 8320
4, 134928, Pitch_bend_c, 1, 8448
4, 134952, Pitch_bend_c, 1, 8576
4, 134976, Pitch_bend_c, 1, 8704
4, 135000, Pitch_bend_c, 1, 8832
4, 135000, Pitch_bend_c, 1, 8832
4, 135120, Pitch_bend_c, 1, 8832
4, 135144, Pitch_bend_c, 1, 8704
4, 135168, Pitch_bend_c, 1, 8576
4, 135192, Pitch_bend_c, 1, 8448
4, 135216, Pitch_bend_c, 1, 8320
4, 135240, Pitch_bend_c, 1, 8192
4, 135240, Pitch_bend_c, 1, 8192
4, 135360, Pitch_bend_c, 1, 8192
4, 135360, Pitch_bend_c, 1, 8192
4, 135360, Note_off_c, 1, 60, 95
4, 135360, Pitch_bend_c, 1, 8192
4, 135360, Note_on_c, 1, 58, 95
4, 135480, Pitch_bend_c, 1, 8320
4, 135600, Pitch_bend_c, 1, 8448
4, 135600, Pitch_bend_c, 1, 8448
4, 135840, Pitch_bend_c, 1, 8448
4, 135840, Pitch_bend_c, 1, 8192
4, 135840, Note_off_c, 1, 58, 95
4, 142560, Pitch_bend_c, 1, 8192
4, 142560, Note_on_c, 1, 60, 95
4, 142581, Pitch_bend_c, 1, 8320
4, 142602, Pitch_bend_c, 1, 8448
4, 142623, Pitch_bend_c, 1, 8576
4, 142644, Pitch_bend_c, 1, 8704
4, 142665, Pitch_bend_c, 1, 8832
4, 142686, Pitch_bend_c, 1, 8960
4, 142707, Pitch_bend_c, 1, 9088
4, 142728, Pitch_bend_c, 1, 9216
4, 142749, Pitch_bend_c, 1, 9344
4, 142770, Pitch_bend_c, 1, 9472
4, 142791, Pitch_bend_c, 1, 9600
4, 142800, Pitch_bend_c, 1, 9600
4, 143040, Pitch_bend_c, 1, 9600
4, 143040, Pitch_bend_c, 1, 8192
4, 143040, Note_off_c, 1, 60, 95
4, 143040, Note_on_c, 0, 62, 95
4, 143520, Note_off_c, 0, 62, 95
4, 143520, Note_on_c, 0, 67, 95
4, 144000, Note_off_c, 0, 67, 95
4, 144000, Pitch_bend_c, 1, 8192
4, 144000, Note_on_c, 1, 65, 95
4, 144120, Pitch_bend_c, 1, 8320
4, 144240, Pitch_bend_c, 1, 8448
4, 144240, Pitch_bend_c, 1, 8448
4, 144480, Pitch_bend_c, 1, 8448
4, 144480, Pitch_bend_c, 1, 8192
4, 144480, Note_off_c, 1, 65, 95
4, 144480, Note_on_c, 0, 67, 95
4, 144960, Note_off_c, 0, 67, 95
4, 144960, Note_on_c, 0, 62, 95
4, 145440, Note_off_c, 0, 62, 95
4, 145440, Pitch_bend_c, 1, 8192
4, 145440, Note_on_c, 1, 60, 95
4, 145464, Pitch_bend_c, 1, 8320
4, 145488, Pitch_bend_c, 1, 8448
4, 145512, Pitch_bend_c, 1, 8576
4, 145536, Pitch_bend_c, 1, 8704
4, 145560, Pitch_bend_c, 1, 8832
4, 145560, Pitch_bend_c, 1, 8832
4, 145680, Pitch_bend_c, 1, 8832
4, 145704, Pitch_bend_c, 1, 8704
4, 145728, Pitch_bend_c, 1, 8576
4, 145752, Pitch_bend_c, 1, 8448
4, 145776, Pitch_bend_c, 1, 8320
4, 145800, Pitch_bend_c, 1, 8192
4, 145800, Pitch_bend_c, 1, 8192
4, 145920, Pitch_bend_c, 1, 8192
4, 145920, Pitch_bend_c, 1, 8192
4, 145920, Note_off_c, 1, 60, 95
4, 145920, Pitch_bend_c, 1, 8192
4, 145920, Note_on_c, 1, 58, 95
4, 146040, Pitch_bend_c, 1, 8320
4, 146160, Pitch_bend_c, 1, 8448
4, 146160, Pitch_bend_c, 1, 8448
4, 146400, Pitch_bend_c, 1, 8448
4, 146400, Pitch_bend_c, 1, 8192
4, 146400, Note_off_c, 1, 58, 95
4, 146400, Note_on_c, 0, 55, 95
4, 146880, Note_off_c, 0, 55, 95
4, 146880, Note_on_c, 0, 58, 95
4, 147000, Note_off_c, 0, 58, 95
4, 147000, Note_on_c, 0, 59, 70
4, 147120, Note_off_c, 0, 59, 70
4, 147120, Note_on_c, 0, 58, 70
4, 147240, Note_off_c, 0, 58, 70
4, 147240, Note_on_c, 0, 59, 70
4, 147360, Note_off_c, 0, 59, 70
4, 147360, Note_on_c, 0, 58, 70
4, 147840, Note_off_c, 0, 58, 70
4, 147840, Note_on_c, 0, 55, 95
4, 148320, Note_off_c, 0, 55, 95
4, 148320, Note_on_c, 0, 50, 95
4, 149280, Note_off_c, 0, 50, 95
4, 149280, Note_on_c, 0, 50, 95
4, 149760, Note_off_c, 0, 50, 95
4, 156480, Pitch_bend_c, 1, 8192
4, 156480, Note_on_c, 1, 60, 95
4, 156501, Pitch_bend_c, 1, 8320
4, 156522, Pitch_bend_c, 1, 8448
4, 156543, Pitch_bend_c, 1, 8576
4, 156564, Pitch_bend_c, 1, 8704
4, 156585, Pitch_bend_c, 1, 8832
4, 156606, Pitch_bend_c, 1, 8960
4, 156627, Pitch_bend_c, 1, 9088
4, 156648, Pitch_bend_c, 1, 9216
4, 156669, Pitch_bend_c, 1, 9344
4, 156690, Pitch_bend_c, 1, 9472
4, 156711, Pitch_bend_c, 1, 9600
4, 156720, Pitch_bend_c, 1, 9600
4, 156960, Pitch_bend_c, 1, 9600
4, 156960, Pitch_bend_c, 1, 8192
4, 156960, Note_off_c, 1, 60, 95
4, 156960, Note_on_c, 0, 60, 95
4, 157440, Note_off_c, 0, 60, 95
4, 157440, Note_on_c, 0, 58, 70
4, 157920, Note_off_c, 0, 58, 70
4, 157920, Note_on_c, 0, 55, 95
4, 158400, Note_off_c, 0, 55, 95
4, 158400, Pitch_bend_c, 1, 8192
4, 158400, Note_on_c, 1, 58, 95
4, 158520, Pitch_bend_c, 1, 8320
4, 158640, Pitch_bend_c, 1, 8448
4, 158640, Pitch_bend_c, 1, 8448
4, 158880, Pitch_bend_c, 1, 8448
4, 158880, Pitch_bend_c, 1, 8192
4, 158880, Note_off_c, 1, 58, 95
4, 166080, Pitch_bend_c, 1, 8192
4, 166080, Note_on_c, 1, 60, 95
4, 166101, Pitch_bend_c, 1, 8320
4, 166122, Pitch_bend_c, 1, 8448
4, 166143, Pitch_bend_c, 1, 8576
4, 166164, Pitch_bend_c, 1, 8704
4, 166185, Pitch_bend_c, 1, 8832
4, 166206, Pitch_bend_c, 1, 8960
4, 166227, Pitch_bend_c, 1, 9088
4, 166248, Pitch_bend_c, 1, 9216
4, 166269, Pitch_bend_c, 1, 9344
4, 166290, Pitch_bend_c, 1, 9472
4, 166311, Pitch_bend_c, 1, 9600
4, 166320, Pitch_bend_c, 1, 9600
4, 166560, Pitch_bend_c, 1, 9600
4, 166560, Pitch_bend_c, 1, 8192
4, 166560, Note_off_c, 1, 60, 95
4, 166560, Note_on_c, 0, 62, 95
4, 167040, Note_off_c, 0, 62, 95
4, 167040, Note_on_c, 0, 67, 95
4, 167280, Note_off_c, 0, 67, 95
4, 167280, Note_on_c, 0, 62, 95
4, 167520, Note_off_c, 0, 62, 95
4, 167520, Pitch_bend_c, 1, 8192
4, 167520, Note_on_c, 1, 65, 95
4, 167568, Pitch_bend_c, 1, 8320
4, 167616, Pitch_bend_c, 1, 8448
4, 167664, Pitch_bend_c, 1, 8576
4, 167712, Pitch_bend_c, 1, 8704
4, 167760, Pitch_bend_c, 1, 8832
4, 167760, Pitch_bend_c, 1, 8832
4, 168000, Pitch_bend_c, 1, 8832
4, 168000, Pitch_bend_c, 1, 8192
4, 168000, Note_off_c, 1, 65, 95
4, 168000, Note_on_c, 0, 67, 95
4, 168240, Note_off_c, 0, 67, 95
4, 168240, Note_on_c, 0, 62, 95
4, 168480, Note_off_c, 0, 62, 95
4, 168480, Pitch_bend_c, 1, 8192
4, 168480, Note_on_c, 1, 60, 95
4, 168504, Pitch_bend_c, 1, 8320
4, 168528, Pitch_bend_c, 1, 8448
4, 168552, Pitch_bend_c, 1, 8576
4, 168576, Pitch_bend_c, 1, 8704
4, 168600, Pitch_bend_c, 1, 8832
4, 168600, Pitch_bend_c, 1, 8832
4, 168720, Pitch_bend_c, 1, 8832
4, 168744, Pitch_bend_c, 1, 8704
4, 168768, Pitch_bend_c, 1, 8576
4, 168792, Pitch_bend_c, 1, 8448
4, 168816, Pitch_bend_c, 1, 8320
4, 168840, Pitch_bend_c, 1, 8192
4, 168840, Pitch_bend_c, 1, 8192
4, 168960, Pitch_bend_c, 1, 8192
4, 168960, Pitch_bend_c, 1, 8192
4, 168960, Note_off_c, 1, 60, 95
4, 168960, Note_on_c, 0, 58, 95
4, 169200, Note_off_c, 0, 58, 95
4, 169200, Note_on_c, 0, 55, 95
4, 169440, Note_off_c, 0, 55, 95
4, 169440, Note_on_c, 0, 60, 95
4, 169680, Note_off_c, 0, 60, 95
4, 169680, Note_on_c, 0, 55, 95
4, 169920, Note_off_c, 0, 55, 95
4, 169920, Note_on_c, 0, 58, 95
4, 170160, Note_off_c, 0, 58, 95
4, 170160, Note_on_c, 1, 55, 95
4, 170320, Pitch_bend_c, 1, 8192
4, 170480, Pitch_bend_c, 1, 8320
4, 170640, Pitch_bend_c, 1, 8192
4, 170800, Pitch_bend_c, 1, 8320
4, 170960, Pitch_bend_c, 1, 8192
4, 171120, Pitch_bend_c, 1, 8320
4, 171240, Note_on_c, 1, 58, 95
4, 171280, Pitch_bend_c, 1, 8192
4, 171360, Pitch_bend_c, 1, 8320
4, 171360, Pitch_bend_c, 1, 8192
4, 171360, Note_off_c, 1, 55, 95
4, 171360, Note_off_c, 1, 58, 95
4, 171360, Note_on_c, 1, 59, 95
4, 171840, Note_off_c, 1, 59, 95
4, 171840, Note_on_c, 0, 62, 95
4, 172320, Note_off_c, 0, 62, 95
4, 172320, Note_on_c, 0, 67, 95
4, 172800, Note_off_c, 0, 67, 95
4, 179520, Pitch_bend_c, 1, 8192
4, 179520, Note_on_c, 1, 60, 95
4, 179541, Pitch_bend_c, 1, 8320
4, 179562, Pitch_bend_c, 1, 8448
4, 179583, Pitch_bend_c, 1, 8576
4, 179604, Pitch_bend_c, 1, 8704
4, 179625, Pitch_bend_c, 1, 8832
4, 179646, Pitch_bend_c, 1, 8960
4, 179667, Pitch_bend_c, 1, 9088
4, 179688, Pitch_bend_c, 1, 9216
4, 179709, Pitch_bend_c, 1, 9344
4, 179730, Pitch_bend_c, 1, 9472
4, 179751, Pitch_bend_c, 1, 9600
4, 179760, Pitch_bend_c, 1, 9600
4, 180000, Pitch_bend_c, 1, 9600
4, 180000, Pitch_bend_c, 1, 8192
4, 180000, Note_off_c, 1, 60, 95
4, 180000, Note_on_c, 0, 60, 95
4, 180480, Note_off_c, 0, 60, 95
4, 180480, Note_on_c, 0, 58, 70
4, 180960, Note_off_c, 0, 58, 70
4, 180960, Note_on_c, 0, 55, 95
4, 181440, Note_off_c, 0, 55, 95
4, 181440, Pitch_bend_c, 1, 8192
4, 181440, Note_on_c, 1, 58, 95
4, 181560, Pitch_bend_c, 1, 8320
4, 181680, Pitch_bend_c, 1, 8448
4, 181680, Pitch_bend_c, 1, 8448
4, 181920, Pitch_bend_c, 1, 8448
4, 181920, Pitch_bend_c, 1, 8192
4, 181920, Note_off_c, 1, 58, 95
4, 189120, Pitch_bend_c, 1, 8192
4, 189120, Note_on_c, 1, 60, 95
4, 189141, Pitch_bend_c, 1, 8320
4, 189162, Pitch_bend_c, 1, 8448
4, 189183, Pitch_bend_c, 1, 8576
4, 189204, Pitch_bend_c, 1, 8704
4, 189225, Pitch_bend_c, 1, 8832
4, 189246, Pitch_bend_c, 1, 8960
4, 189267, Pitch_bend_c, 1, 9088
4, 189288, Pitch_bend_c, 1, 9216
4, 189309, Pitch_bend_c, 1, 9344
4, 189330, Pitch_bend_c, 1, 9472
4, 189351, Pitch_bend_c, 1, 9600
4, 189360, Pitch_bend_c, 1, 9600
4, 189600, Pitch_bend_c, 1, 9600
4, 189600, Pitch_bend_c, 1, 8192
4, 189600, Note_off_c, 1, 60, 95
4, 189600, Note_on_c, 0, 55, 95
4, 189666, Note_off_c, 0, 55, 95
4, 189840, Note_on_c, 0, 59, 95
4, 189906, Note_off_c, 0, 59, 95
4, 190080, Note_on_c, 0, 67, 95
4, 190320, Note_off_c, 0, 67, 95
4, 190320, Note_on_c, 0, 62, 95
4, 190560, Note_off_c, 0, 62, 95
4, 190560, Pitch_bend_c, 1, 8192
4, 190560, Note_on_c, 1, 65, 95
4, 190680, Pitch_bend_c, 1, 8320
4, 190800, Pitch_bend_c, 1, 8448
4, 190800, Pitch_bend_c, 1, 8448
4, 191040, Pitch_bend_c, 1, 8448
4, 191040, Pitch_bend_c, 1, 8192
4, 191040, Note_off_c, 1, 65, 95
4, 191040, Note_on_c, 0, 67, 95
4, 191280, Note_off_c, 0, 67, 95
4, 191280, Note_on_c, 0, 62, 95
4, 191520, Note_off_c, 0, 62, 95
4, 191520, Pitch_bend_c, 1, 8192
4, 191520, Note_on_c, 1, 60, 95
4, 191544, Pitch_bend_c, 1, 8320
4, 191568, Pitch_bend_c, 1, 8448
4, 191592, Pitch_bend_c, 1, 8576
4, 191616, Pitch_bend_c, 1, 8704
4, 191640, Pitch_bend_c, 1, 8832
4, 191640, Pitch_bend_c, 1, 8832
4, 191760, Pitch_bend_c, 1, 8832
4, 191784, Pitch_bend_c, 1, 8704
4, 191808, Pitch_bend_c, 1, 8576
4, 191832, Pitch_bend_c, 1, 8448
4, 191856, Pitch_bend_c, 1, 8320
4, 191880, Pitch_bend_c, 1, 8192
4, 191880, Pitch_bend_c, 1, 8192
4, 192000, Pitch_bend_c, 1, 8192
4, 192000, Pitch_bend_c, 1, 8192
4, 192000, Note_off_c, 1, 60, 95
4, 192000, Note_on_c, 0, 58, 95
4, 192240, Note_off_c, 0, 58, 95
4, 192240, Note_on_c, 0, 55, 95
4, 192480, Note_off_c, 0, 55, 95
4, 192480, Note_on_c, 0, 60, 95
4, 192720, Note_off_c, 0, 60, 95
4, 192720, Note_on_c, 0, 55, 95
4, 192960, Note_off_c, 0, 55, 95
4, 192960, Pitch_bend_c, 1, 8192
4, 192960, Note_on_c, 1, 58, 95
4, 193080, Pitch_bend_c, 1, 8320
4, 193200, Pitch_bend_c, 1, 8448
4, 193200, Pitch_bend_c, 1, 8448
4, 193440, Pitch_bend_c, 1, 8448
4, 193440, Pitch_bend_c, 1, 8192
4, 193440, Note_off_c, 1, 58, 95
4, 193440, Note_on_c, 0, 55, 95
4, 193920, Note_off_c, 0, 55, 95
4, 193920, Note_on_c, 0, 50, 95
4, 195840, Note_off_c, 0, 50, 95
4, 203040, Pitch_bend_c, 1, 8192
4, 203040, Note_on_c, 1, 60, 95
4, 203064, Pitch_bend_c, 1, 8320
4, 203088, Pitch_bend_c, 1, 8448
4, 203112, Pitch_bend_c, 1, 8576
4, 203136, Pitch_bend_c, 1, 8704
4, 203160, Pitch_bend_c, 1, 8832
4, 203160, Pitch_bend_c, 1, 8832
4, 203280, Pitch_bend_c, 1, 8832
4, 203304, Pitch_bend_c, 1, 8704
4, 203328, Pitch_bend_c, 1, 8576
4, 203352, Pitch_bend_c, 1, 8448
4, 203376, Pitch_bend_c, 1, 8320
4, 203400, Pitch_bend_c, 1, 8192
4, 203400, Pitch_bend_c, 1, 8192
4, 203520, Pitch_bend_c, 1, 8192
4, 203520, Pitch_bend_c, 1, 8192
4, 203520, Note_off_c, 1, 60, 95
4, 203520, Note_on_c, 0, 58, 95
4, 204000, Note_off_c, 0, 58, 95
4, 204000, Note_on_c, 0, 55, 95
4, 204480, Note_off_c, 0, 55, 95
4, 204480, Pitch_bend_c, 1, 8192
4, 204480, Note_on_c, 1, 58, 95
4, 204600, Pitch_bend_c, 1, 8320
4, 204720, Pitch_bend_c, 1, 8448
4, 204720, Pitch_bend_c, 1, 8448
4, 204960, Pitch_bend_c, 1, 8448
4, 204960, Pitch_bend_c, 1, 8192
4, 204960, Note_off_c, 1, 58, 95
4, 212400, Pitch_bend_c, 1, 8192
4, 212400, Note_on_c, 1, 60, 95
4, 212454, Pitch_bend_c, 1, 8320
4, 212508, Pitch_bend_c, 1, 8448
4, 212562, Pitch_bend_c, 1, 8576
4, 212616, Pitch_bend_c, 1, 8704
4, 212670, Pitch_bend_c, 1, 8832
4, 212724, Pitch_bend_c, 1, 8960
4, 212778, Pitch_bend_c, 1, 9088
4, 212832, Pitch_bend_c, 1, 9216
4, 212886, Pitch_bend_c, 1, 9344
4, 212940, Pitch_bend_c, 1, 9472
4, 212994, Pitch_bend_c, 1, 9600
4, 213000, Pitch_bend_c, 1, 9600
4, 213600, Pitch_bend_c, 1, 9600
4, 213600, Pitch_bend_c, 1, 8192
4, 213600, Note_off_c, 1, 60, 95
4, 213600, Note_on_c, 0, 62, 95
4, 214080, Note_off_c, 0, 62, 95
4, 214080, Pitch_bend_c, 1, 8192
4, 214080, Note_on_c, 1, 60, 95
4, 214101, Pitch_bend_c, 1, 8320
4, 214122, Pitch_bend_c, 1, 8448
4, 214143, Pitch_bend_c, 1, 8576
4, 214164, Pitch_bend_c, 1, 8704
4, 214185, Pitch_bend_c, 1, 8832
4, 214206, Pitch_bend_c, 1, 8960
4, 214227, Pitch_bend_c, 1, 9088
4, 214248, Pitch_bend_c, 1, 9216
4, 214269, Pitch_bend_c, 1, 9344
4, 214290, Pitch_bend_c, 1, 9472
4, 214311, Pitch_bend_c, 1, 9600
4, 214320, Pitch_bend_c, 1, 9600
4, 214440, Note_on_c, 1, 60, 95
4, 214560, Pitch_bend_c, 1, 9600
4, 214560, Pitch_bend_c, 1, 8192
4, 214560, Note_off_c, 1, 60, 95
4, 214560, Note_off_c, 1, 60, 95
4, 214560, Note_on_c, 1, 61, 95
4, 214680, Pitch_bend_c, 1, 7936
4, 214800, Pitch_bend_c, 1, 7552
4, 214800, Pitch_bend_c, 1, 8192
4, 214800, Note_off_c, 1, 61, 95
4, 214800, Note_on_c, 0, 60, 95
4, 215040, Note_off_c, 0, 60, 95
4, 215040, Note_on_c, 0, 59, 95
4, 215280, Note_off_c, 0, 59, 95
4, 215280, Note_on_c, 0, 55, 95
4, 215520, Note_off_c, 0, 55, 95
4, 215520, Note_on_c, 0, 60, 95
4, 215760, Note_off_c, 0, 60, 95
4, 215760, Note_on_c, 0, 55, 95
4, 216000, Note_off_c, 0, 55, 95
4, 216000, Note_on_c, 0, 58, 95
4, 216240, Note_off_c, 0, 58, 95
4, 216240, Note_on_c, 1, 55, 95
4, 216400, Pitch_bend_c, 1, 8192
4, 216560, Pitch_bend_c, 1, 8320
4, 216720, Pitch_bend_c, 1, 8192
4, 216880, Pitch_bend_c, 1, 8320
4, 217040, Pitch_bend_c, 1, 8192
4, 217200, Pitch_bend_c, 1, 8320
4, 217320, Note_on_c, 1, 58, 95
4, 217360, Pitch_bend_c, 1, 8192
4, 217440, Pitch_bend_c, 1, 8320
4, 217440, Pitch_bend_c, 1, 8192
4, 217440, Note_off_c, 1, 55, 95
4, 217440, Note_off_c, 1, 58, 95
4, 217440, Note_on_c, 1, 59, 95
4, 218160, Note_off_c, 1, 59, 95
4, 218400, Note_on_c, 0, 50, 95
4, 218880, Note_off_c, 0, 50, 95
4, 219840, Note_on_c, 0, 55, 95
4, 220320, Note_off_c, 0, 55, 95
4, 220320, Note_on_c, 0, 58, 95
4, 220560, Note_off_c, 0, 58, 95
4, 220800, Note_on_c, 0, 60, 95
4, 221040, Note_off_c, 0, 60, 95
4, 221280, Note_on_c, 0, 58, 95
4, 221520, Note_off_c, 0, 58, 95
4, 221760, Pitch_bend_c, 1, 8192
4, 221760, Note_on_c, 1, 60, 95
4, 221781, Pitch_bend_c, 1, 8320
4, 221802, Pitch_bend_c, 1, 8448
4, 221823, Pitch_bend_c, 1, 8576
4, 221844, Pitch_bend_c, 1, 8704
4, 221865, Pitch_bend_c, 1, 8832
4, 221886, Pitch_bend_c, 1, 8960
4, 221907, Pitch_bend_c, 1, 9088
4, 221928, Pitch_bend_c, 1, 9216
4, 221949, Pitch_bend_c, 1, 9344
4, 221970, Pitch_bend_c, 1, 9472
4, 221991, Pitch_bend_c, 1, 9600
4, 222000, Pitch_bend_c, 1, 9600
4, 222240, Pitch_bend_c, 1, 9600
4, 222240, Pitch_bend_c, 1, 8192
4, 222240, Note_off_c, 1, 60, 95
4, 222240, Note_on_c, 0, 62, 95
4, 222720, Note_off_c, 0, 62, 95
4, 222720, Note_on_c, 0, 67, 95
4, 223200, Note_off_c, 0, 67, 95
4, 223200, Note_on_c, 0, 65, 95
4, 223680, Note_off_c, 0, 65, 95
4, 223680, Note_on_c, 0, 62, 70
4, 224160, Note_off_c, 0, 62, 70
4, 224160, Pitch_bend_c, 1, 8192
4, 224160, Note_on_c, 1, 70, 95
4, 224208, Pitch_bend_c, 1, 8320
4, 224256, Pitch_bend_c, 1, 8448
4, 224304, Pitch_bend_c, 1, 8576
4, 224352, Pitch_bend_c, 1, 8704
4, 224400, Pitch_bend_c, 1, 8832
4, 224400, Pitch_bend_c, 1, 8832
4, 224640, Pitch_bend_c, 1, 8832
4, 224640, Pitch_bend_c, 1, 8192
4, 224640, Note_off_c, 1, 70, 95
4, 224640, Note_on_c, 0, 67, 95
4, 226080, Note_off_c, 0, 67, 95
4, 226080, Note_on_c, 0, 65, 95
4, 226560, Note_off_c, 0, 65, 95
4, 228480, Pitch_bend_c, 1, 8192
4, 228480, Note_on_c, 1, 60, 95
4, 228501, Pitch_bend_c, 1, 8320
4, 228522, Pitch_bend_c, 1, 8448
4, 228543, Pitch_bend_c, 1, 8576
4, 228564, Pitch_bend_c, 1, 8704
4, 228585, Pitch_bend_c, 1, 8832
4, 228606, Pitch_bend_c, 1, 8960
4, 228627, Pitch_bend_c, 1, 9088
4, 228648, Pitch_bend_c, 1, 9216
4, 228669, Pitch_bend_c, 1, 9344
4, 228690, Pitch_bend_c, 1, 9472
4, 228711, Pitch_bend_c, 1, 9600
4, 228720, Pitch_bend_c, 1, 9600
4, 228960, Pitch_bend_c, 1, 9600
4, 228960, Pitch_bend_c, 1, 8192
4, 228960, Note_off_c, 1, 60, 95
4, 228960, Pitch_bend_c, 1, 9600
4, 228960, Note_on_c, 1, 60, 95
4, 229120, Pitch_bend_c, 1, 9600
4, 229134, Pitch_bend_c, 1, 9472
4, 229148, Pitch_bend_c, 1, 9344
4, 229162, Pitch_bend_c, 1, 9216
4, 229176, Pitch_bend_c, 1, 9088
4, 229190, Pitch_bend_c, 1, 8960
4, 229204, Pitch_bend_c, 1, 8832
4, 229218, Pitch_bend_c, 1, 8704
4, 229232, Pitch_bend_c, 1, 8576
4, 229246, Pitch_bend_c, 1, 8448
4, 229260, Pitch_bend_c, 1, 8320
4, 229274, Pitch_bend_c, 1, 8192
4, 229280, Pitch_bend_c, 1, 8192
4, 229440, Pitch_bend_c, 1, 8192
4, 229440, Pitch_bend_c, 1, 8192
4, 229440, Note_off_c, 1, 60, 95
4, 229440, Note_on_c, 0, 58, 95
4, 229920, Note_off_c, 0, 58, 95
4, 229920, Note_on_c, 0, 55, 95
4, 230400, Note_off_c, 0, 55, 95
4, 230400, Pitch_bend_c, 1, 8192
4, 230400, Note_on_c, 1, 60, 95
4, 230421, Pitch_bend_c, 1, 8320
4, 230442, Pitch_bend_c, 1, 8448
4, 230463, Pitch_bend_c, 1, 8576
4, 230484, Pitch_bend_c, 1, 8704
4, 230505, Pitch_bend_c, 1, 8832
4, 230526, Pitch_bend_c, 1, 8960
4, 230547, Pitch_bend_c, 1, 9088
4, 230568, Pitch_bend_c, 1, 9216
4, 230589, Pitch_bend_c, 1, 9344
4, 230610, Pitch_bend_c, 1, 9472
4, 230631, Pitch_bend_c, 1, 9600
4, 230640, Pitch_bend_c, 1, 9600
4, 230880, Pitch_bend_c, 1, 9600
4, 230880, Pitch_bend_c, 1, 8192
4, 230880, Note_off_c, 1, 60, 95
4, 230880, Note_on_c, 0, 62, 95
4, 231360, Note_off_c, 0, 62, 95
4, 231360, Note_on_c, 0, 67, 95
4, 231840, Note_off_c, 0, 67, 95
4, 231840, Note_on_c, 0, 65, 95
4, 232320, Note_off_c, 0, 65, 95
4, 232320, Note_on_c, 0, 62, 95
4, 232800, Note_off_c, 0, 62, 95
4, 232800, Pitch_bend_c, 1, 8192
4, 232800, Note_on_c, 1, 60, 95
4, 232821, Pitch_bend_c, 1, 8320
4, 232842, Pitch_bend_c, 1, 8448
4, 232863, Pitch_bend_c, 1, 8576
4, 232884, Pitch_bend_c, 1, 8704
4, 232905, Pitch_bend_c, 1, 8832
4, 232926, Pitch_bend_c, 1, 8960
4, 232947, Pitch_bend_c, 1, 9088
4, 232968, Pitch_bend_c, 1, 9216
4, 232989, Pitch_bend_c, 1, 9344
4, 233010, Pitch_bend_c, 1, 9472
4, 233031, Pitch_bend_c, 1, 9600
4, 233040, Pitch_bend_c, 1, 9600
4, 233280, Pitch_bend_c, 1, 9600
4, 233280, Pitch_bend_c, 1, 8192
4, 233280, Note_off_c, 1, 60, 95
4, 233280, Note_on_c, 0, 58, 95
4, 233760, Note_off_c, 0, 58, 95
4, 233760, Note_on_c, 0, 55, 95
4, 234240, Note_off_c, 0, 55, 95
4, 234240, Note_on_c, 0, 50, 95
4, 235200, Note_off_c, 0, 50, 95
4, 238560, Note_on_c, 0, 71, 95
4, 238560, Pitch_bend_c, 1, 8192
4, 238560, Note_on_c, 1, 64, 95
4, 238752, Pitch_bend_c, 1, 8320
4, 238944, Pitch_bend_c, 1, 8448
4, 239136, Pitch_bend_c, 1, 8576
4, 239328, Pitch_bend_c, 1, 8704
4, 239520, Pitch_bend_c, 1, 8832
4, 239520, Pitch_bend_c, 1, 8832
4, 240480, Note_off_c, 0, 71, 95
4, 240480, Pitch_bend_c, 1, 8832
4, 240480, Pitch_bend_c, 1, 8192
4, 240480, Note_off_c, 1, 64, 95
4, 240480, Note_on_c, 0, 67, 95
4, 240960, Note_off_c, 0, 67, 95
4, 242400, Note_on_c, 0, 70, 95
4, 242400, Pitch_bend_c, 1, 8192
4, 242400, Note_on_c, 1, 64, 95
4, 242448, Pitch_bend_c, 1, 8320
4, 242496, Pitch_bend_c, 1, 8448
4, 242544, Pitch_bend_c, 1, 8576
4, 242592, Pitch_bend_c, 1, 8704
4, 242640, Pitch_bend_c, 1, 8832
4, 242640, Pitch_bend_c, 1, 8832
4, 242880, Note_off_c, 0, 70, 95
4, 242880, Pitch_bend_c, 1, 8832
4, 242880, Pitch_bend_c, 1, 8192
4, 242880, Note_off_c, 1, 64, 95
4, 243360, Note_on_c, 0, 70, 95
4, 243360, Pitch_bend_c, 1, 8192
4, 243360, Note_on_c, 1, 64, 95
4, 243408, Pitch_bend_c, 1, 8320
4, 243456, Pitch_bend_c, 1, 8448
4, 243504, Pitch_bend_c, 1, 8576
4, 243552, Pitch_bend_c, 1, 8704
4, 243600, Pitch_bend_c, 1, 8832
4, 243600, Pitch_bend_c, 1, 8832
4, 243840, Note_off_c, 0, 70, 95
4, 243840, Pitch_bend_c, 1, 8832
4, 243840, Pitch_bend_c, 1, 8192
4, 243840, Note_off_c, 1, 64, 95
4, 244320, Note_on_c, 0, 70, 95
4, 244320, Pitch_bend_c, 1, 8192
4, 244320, Note_on_c, 1, 64, 95
4, 244416, Pitch_bend_c, 1, 8320
4, 244512, Pitch_bend_c, 1, 8448
4, 244608, Pitch_bend_c, 1, 8576
4, 244704, Pitch_bend_c, 1, 8704
4, 244800, Pitch_bend_c, 1, 8832
4, 244800, Pitch_bend_c, 1, 8832
4, 245280, Note_off_c, 0, 70, 95
4, 245280, Pitch_bend_c, 1, 8832
4, 245280, Pitch_bend_c, 1, 8192
4, 245280, Note_off_c, 1, 64, 95
4, 245280, Note_on_c, 0, 67, 95
4, 245520, Note_off_c, 0, 67, 95
4, 245520, Note_on_c, 0, 62, 95
4, 245760, Note_off_c, 0, 62, 95
4, 245760, Pitch_bend_c, 1, 8192
4, 245760, Note_on_c, 1, 60, 95
4, 245770, Pitch_bend_c, 1, 8320
4, 245780, Pitch_bend_c, 1, 8448
4, 245790, Pitch_bend_c, 1, 8576
4, 245800, Pitch_bend_c, 1, 8704
4, 245810, Pitch_bend_c, 1, 8832
4, 245820, Pitch_bend_c, 1, 8960
4, 245830, Pitch_bend_c, 1, 9088
4, 245840, Pitch_bend_c, 1, 9216
4, 245850, Pitch_bend_c, 1, 9344
4, 245860, Pitch_bend_c, 1, 9472
4, 245870, Pitch_bend_c, 1, 9600
4, 245880, Pitch_bend_c, 1, 9600
4, 246000, Pitch_bend_c, 1, 9600
4, 246010, Pitch_bend_c, 1, 9472
4, 246020, Pitch_bend_c, 1, 9344
4, 246030, Pitch_bend_c, 1, 9216
4, 246040, Pitch_bend_c, 1, 9088
4, 246050, Pitch_bend_c, 1, 8960
4, 246060, Pitch_bend_c, 1, 8832
4, 246070, Pitch_bend_c, 1, 8704
4, 246080, Pitch_bend_c, 1, 8576
4, 246090, Pitch_bend_c, 1, 8448
4, 246100, Pitch_bend_c, 1, 8320
4, 246110, Pitch_bend_c, 1, 8192
4, 246120, Pitch_bend_c, 1, 8192
4, 246240, Pitch_bend_c, 1, 8192
4, 246240, Pitch_bend_c, 1, 8192
4, 246240, Note_off_c, 1, 60, 95
4, 246240, Note_on_c, 0, 58, 95
4, 246720, Note_off_c, 0, 58, 95
4, 246720, Note_on_c, 0, 55, 95
4, 246960, Note_off_c, 0, 55, 95
4, 246960, Note_on_c, 0, 60, 95
4, 247200, Note_off_c, 0, 60, 95
4, 247200, Note_on_c, 0, 55, 95
4, 247440, Note_off_c, 0, 55, 95
4, 247440, Note_on_c, 0, 58, 95
4, 247680, Note_off_c, 0, 58, 95
4, 247680, Pitch_bend_c, 1, 8192
4, 247680, Note_on_c, 1, 60, 95
4, 247701, Pitch_bend_c, 1, 8320
4, 247722, Pitch_bend_c, 1, 8448
4, 247743, Pitch_bend_c, 1, 8576
4, 247764, Pitch_bend_c, 1, 8704
4, 247785, Pitch_bend_c, 1, 8832
4, 247806, Pitch_bend_c, 1, 8960
4, 247827, Pitch_bend_c, 1, 9088
4, 247848, Pitch_bend_c, 1, 9216
4, 247869, Pitch_bend_c, 1, 9344
4, 247890, Pitch_bend_c, 1, 9472
4, 247911, Pitch_bend_c, 1, 9600
4, 247920, Pitch_bend_c, 1, 9600
4, 248160, Pitch_bend_c, 1, 9600
4, 248160, Pitch_bend_c, 1, 8192
4, 248160, Note_off_c, 1, 60, 95
4, 248160, Note_on_c, 0, 62, 95
4, 248400, Note_off_c, 0, 62, 95
4, 248400, Note_on_c, 0, 67, 95
4, 248640, Note_off_c, 0, 67, 95
4, 251040, Note_on_c, 0, 62, 95
4, 251520, Note_off_c, 0, 62, 95
4, 252000, Pitch_bend_c, 1, 8192
4, 252000, Note_on_c, 1, 70, 95
4, 252240, Pitch_bend_c, 1, 8320
4, 252480, Pitch_bend_c, 1, 8448
4, 252480, Pitch_bend_c, 1, 8448
4, 252960, Pitch_bend_c, 1, 8448
4, 252960, Pitch_bend_c, 1, 8192
4, 252960, Note_off_c, 1, 70, 95
4, 252960, Pitch_bend_c, 1, 8192
4, 252960, Note_on_c, 1, 70, 95
4, 253080, Pitch_bend_c, 1, 8320
4, 253200, Pitch_bend_c, 1, 8448
4, 253200, Pitch_bend_c, 1, 8448
4, 253440, Pitch_bend_c, 1, 8448
4, 253440, Pitch_bend_c, 1, 8192
4, 253440, Note_off_c, 1, 70, 95
4, 253440, Note_on_c, 0, 67, 95
4, 253680, Note_off_c, 0, 67, 95
4, 253680, Note_on_c, 0, 62, 95
4, 253920, Note_off_c, 0, 62, 95
4, 253920, Pitch_bend_c, 1, 8192
4, 253920, Note_on_c, 1, 60, 95
4, 253941, Pitch_bend_c, 1, 8320
4, 253962, Pitch_bend_c, 1, 8448
4, 253983, Pitch_bend_c, 1, 8576
4, 254004, Pitch_bend_c, 1, 8704
4, 254025, Pitch_bend_c, 1, 8832
4, 254046, Pitch_bend_c, 1, 8960
4, 254067, Pitch_bend_c, 1, 9088
4, 254088, Pitch_bend_c, 1, 9216
4, 254109, Pitch_bend_c, 1, 9344
4, 254130, Pitch_bend_c, 1, 9472
4, 254151, Pitch_bend_c, 1, 9600
4, 254160, Pitch_bend_c, 1, 9600
4, 254400, Pitch_bend_c, 1, 9600
4, 254400, Pitch_bend_c, 1, 8192
4, 254400, Note_off_c, 1, 60, 95
4, 254400, Note_on_c, 0, 62, 95
4, 254640, Note_off_c, 0, 62, 95
4, 254640, Pitch_bend_c, 1, 8192
4, 254640, Note_on_c, 1, 60, 95
4, 254650, Pitch_bend_c, 1, 8320
4, 254660, Pitch_bend_c, 1, 8448
4, 254670, Pitch_bend_c, 1, 8576
4, 254680, Pitch_bend_c, 1, 8704
4, 254690, Pitch_bend_c, 1, 8832
4, 254700, Pitch_bend_c, 1, 8960
4, 254710, Pitch_bend_c, 1, 9088
4, 254720, Pitch_bend_c, 1, 9216
4, 254730, Pitch_bend_c, 1, 9344
4, 254740, Pitch_bend_c, 1, 9472
4, 254750, Pitch_bend_c, 1, 9600
4, 254760, Pitch_bend_c, 1, 9600
4, 254880, Pitch_bend_c, 1, 9600
4, 254890, Pitch_bend_c, 1, 9472
4, 254900, Pitch_bend_c, 1, 9344
4, 254910, Pitch_bend_c, 1, 9216
4, 254920, Pitch_bend_c, 1, 9088
4, 254930, Pitch_bend_c, 1, 8960
4, 254940, Pitch_bend_c, 1, 8832
4, 254950, Pitch_bend_c, 1, 8704
4, 254960, Pitch_bend_c, 1, 8576
4, 254970, Pitch_bend_c, 1, 8448
4, 254980, Pitch_bend_c, 1, 8320
4, 254990, Pitch_bend_c, 1, 8192
4, 255000, Pitch_bend_c, 1, 8192
4, 255120, Pitch_bend_c, 1, 8192
4, 255120, Pitch_bend_c, 1, 8192
4, 255120, Note_off_c, 1, 60, 95
4, 255120, Note_on_c, 0, 58, 95
4, 255360, Note_off_c, 0, 58, 95
4, 255360, Note_on_c, 0, 55, 95
4, 255600, Note_off_c, 0, 55, 95
4, 255600, Note_on_c, 0, 60, 95
4, 255840, Note_off_c, 0, 60, 95
4, 255840, Note_on_c, 0, 55, 95
4, 256080, Note_off_c, 0, 55, 95
4, 256080, Note_on_c, 0, 58, 95
4, 256320, Note_off_c, 0, 58, 95
4, 256320, Pitch_bend_c, 1, 8192
4, 256320, Note_on_c, 1, 60, 95
4, 256341, Pitch_bend_c, 1, 8320
4, 256362, Pitch_bend_c, 1, 8448
4, 256383, Pitch_bend_c, 1, 8576
4, 256404, Pitch_bend_c, 1, 8704
4, 256425, Pitch_bend_c, 1, 8832
4, 256446, Pitch_bend_c, 1, 8960
4, 256467, Pitch_bend_c, 1, 9088
4, 256488, Pitch_bend_c, 1, 9216
4, 256509, Pitch_bend_c, 1, 9344
4, 256530, Pitch_bend_c, 1, 9472
4, 256551, Pitch_bend_c, 1, 9600
4, 256560, Pitch_bend_c, 1, 9600
4, 256800, Pitch_bend_c, 1, 9600
4, 256800, Pitch_bend_c, 1, 8192
4, 256800, Note_off_c, 1, 60, 95
4, 256800, Note_on_c, 0, 62, 95
4, 257280, Note_off_c, 0, 62, 95
4, 257280, Pitch_bend_c, 1, 8192
4, 257280, Note_on_c, 1, 60, 95
4, 257290, Pitch_bend_c, 1, 8320
4, 257300, Pitch_bend_c, 1, 8448
4, 257310, Pitch_bend_c, 1, 8576
4, 257320, Pitch_bend_c, 1, 8704
4, 257330, Pitch_bend_c, 1, 8832
4, 257340, Pitch_bend_c, 1, 8960
4, 257350, Pitch_bend_c, 1, 9088
4, 257360, Pitch_bend_c, 1, 9216
4, 257370, Pitch_bend_c, 1, 9344
4, 257380, Pitch_bend_c, 1, 9472
4, 257390, Pitch_bend_c, 1, 9600
4, 257400, Pitch_bend_c, 1, 9600
4, 257520, Pitch_bend_c, 1, 9600
4, 257530, Pitch_bend_c, 1, 9472
4, 257540, Pitch_bend_c, 1, 9344
4, 257550, Pitch_bend_c, 1, 9216
4, 257560, Pitch_bend_c, 1, 9088
4, 257570, Pitch_bend_c, 1, 8960
4, 257580, Pitch_bend_c, 1, 8832
4, 257590, Pitch_bend_c, 1, 8704
4, 257600, Pitch_bend_c, 1, 8576
4, 257610, Pitch_bend_c, 1, 8448
4, 257620, Pitch_bend_c, 1, 8320
4, 257630, Pitch_bend_c, 1, 8192
4, 257640, Pitch_bend_c, 1, 8192
4, 257760, Pitch_bend_c, 1, 8192
4, 257760, Pitch_bend_c, 1, 8192
4, 257760, Note_off_c, 1, 60, 95
4, 257760, Note_on_c, 0, 58, 95
4, 258000, Note_off_c, 0, 58, 95
4, 258000, Note_on_c, 0, 55, 95
4, 258240, Note_off_c, 0, 55, 95
4, 258240, Note_on_c, 0, 60, 95
4, 258480, Note_off_c, 0, 60, 95
4, 258480, Note_on_c, 0, 55, 95
4, 258720, Note_off_c, 0, 55, 95
4, 258720, Note_on_c, 0, 58, 95
4, 258960, Note_off_c, 0, 58, 95
4, 258960, Note_on_c, 0, 55, 95
4, 259200, Note_off_c, 0, 55, 95
4, 259200, Note_on_c, 1, 49, 95
4, 259320, Pitch_bend_c, 1, 7936
4, 259440, Pitch_bend_c, 1, 7552
4, 259440, Pitch_bend_c, 1, 8192
4, 259440, Note_off_c, 1, 49, 95
4, 259440, Note_on_c, 0, 48, 95
4, 259680, Note_off_c, 0, 48, 95
4, 259680, Note_on_c, 0, 46, 70
4, 260160, Note_off_c, 0, 46, 70
4, 262080, Pitch_bend_c, 1, 8192
4, 262080, Note_on_c, 1, 60, 95
4, 262101, Pitch_bend_c, 1, 8320
4, 262122, Pitch_bend_c, 1, 8448
4, 262143, Pitch_bend_c, 1, 8576
4, 262164, Pitch_bend_c, 1, 8704
4, 262185, Pitch_bend_c, 1, 8832
4, 262206, Pitch_bend_c, 1, 8960
4, 262227, Pitch_bend_c, 1, 9088
4, 262248, Pitch_bend_c, 1, 9216
4, 262269, Pitch_bend_c, 1, 9344
4, 262290, Pitch_bend_c, 1, 9472
4, 262311, Pitch_bend_c, 1, 9600
4, 262320, Pitch_bend_c, 1, 9600
4, 262560, Pitch_bend_c, 1, 9600
4, 262560, Pitch_bend_c, 1, 8192
4, 262560, Note_off_c, 1, 60, 95
4, 262560, Note_on_c, 0, 62, 95
4, 263040, Note_off_c, 0, 62, 95
4, 263040, Note_on_c, 0, 67, 95
4, 263520, Note_off_c, 0, 67, 95
4, 263520, Note_on_c, 0, 65, 95
4, 264000, Note_off_c, 0, 65, 95
4, 264000, Note_on_c, 0, 62, 70
4, 264480, Note_off_c, 0, 62, 70
4, 264480, Note_on_c, 0, 69, 95
4, 264960, Note_off_c, 0, 69, 95
4, 264960, Note_on_c, 0, 67, 95
4, 265440, Note_off_c, 0, 67, 95
4, 265920, Note_on_c, 0, 65, 95
4, 266400, Note_off_c, 0, 65, 95
4, 266400, Note_on_c, 0, 62, 95
4, 266880, Note_off_c, 0, 62, 95
4, 266880, Note_on_c, 0, 60, 95
4, 267360, Note_off_c, 0, 60, 95
4, 267360, Note_on_c, 0, 62, 95
4, 267840, Note_off_c, 0, 62, 95
4, 267840, Pitch_bend_c, 1, 8192
4, 267840, Note_on_c, 1, 60, 95
4, 267861, Pitch_bend_c, 1, 8320
4, 267882, Pitch_bend_c, 1, 8448
4, 267903, Pitch_bend_c, 1, 8576
4, 267924, Pitch_bend_c, 1, 8704
4, 267945, Pitch_bend_c, 1, 8832
4, 267966, Pitch_bend_c, 1, 8960
4, 267987, Pitch_bend_c, 1, 9088
4, 268008, Pitch_bend_c, 1, 9216
4, 268029, Pitch_bend_c, 1, 9344
4, 268050, Pitch_bend_c, 1, 9472
4, 268071, Pitch_bend_c, 1, 9600
4, 268080, Pitch_bend_c, 1, 9600
4, 268320, Pitch_bend_c, 1, 9600
4, 268320, Pitch_bend_c, 1, 8192
4, 268320, Note_off_c, 1, 60, 95
4, 269280, Note_on_c, 0, 62, 95
4, 269760, Note_off_c, 0, 62, 95
4, 270720, Pitch_bend_c, 1, 8192
4, 270720, Note_on_c, 1, 60, 95
4, 270785, Pitch_bend_c, 1, 8320
4, 270850, Pitch_bend_c, 1, 8448
4, 270915, Pitch_bend_c, 1, 8576
4, 270980, Pitch_bend_c, 1, 8704
4, 271045, Pitch_bend_c, 1, 8832
4, 271110, Pitch_bend_c, 1, 8960
4, 271175, Pitch_bend_c, 1, 9088
4, 271240, Pitch_bend_c, 1, 9216
4, 271305, Pitch_bend_c, 1, 9344
4, 271370, Pitch_bend_c, 1, 9472
4, 271435, Pitch_bend_c, 1, 9600
4, 271440, Pitch_bend_c, 1, 9600
4, 272160, Pitch_bend_c, 1, 9600
4, 272160, Pitch_bend_c, 1, 8192
4, 272160, Note_off_c, 1, 60, 95
4, 272160, Note_on_c, 0, 62, 95
4, 272640, Note_off_c, 0, 62, 95
4, 273120, Pitch_bend_c, 1, 8192
4, 273120, Note_on_c, 1, 60, 95
4, 273130, Pitch_bend_c, 1, 8320
4, 273140, Pitch_bend_c, 1, 8448
4, 273150, Pitch_bend_c, 1, 8576
4, 273160, Pitch_bend_c, 1, 8704
4, 273170, Pitch_bend_c, 1, 8832
4, 273180, Pitch_bend_c, 1, 8960
4, 273190, Pitch_bend_c, 1, 9088
4, 273200, Pitch_bend_c, 1, 9216
4, 273210, Pitch_bend_c, 1, 9344
4, 273220, Pitch_bend_c, 1, 9472
4, 273230, Pitch_bend_c, 1, 9600
4, 273240, Pitch_bend_c, 1, 9600
4, 273360, Pitch_bend_c, 1, 9600
4, 273370, Pitch_bend_c, 1, 9472
4, 273380, Pitch_bend_c, 1, 9344
4, 273390, Pitch_bend_c, 1, 9216
4, 273400, Pitch_bend_c, 1, 9088
4, 273410, Pitch_bend_c, 1, 8960
4, 273420, Pitch_bend_c, 1, 8832
4, 273430, Pitch_bend_c, 1, 8704
4, 273440, Pitch_bend_c, 1, 8576
4, 273450, Pitch_bend_c, 1, 8448
4, 273460, Pitch_bend_c, 1, 8320
4, 273470, Pitch_bend_c, 1, 8192
4, 273480, Pitch_bend_c, 1, 8192
4, 273600, Pitch_bend_c, 1, 8192
4, 273600, Pitch_bend_c, 1, 8192
4, 273600, Note_off_c, 1, 60, 95
4, 273600, Note_on_c, 0, 58, 95
4, 274080, Note_off_c, 0, 58, 95
4, 274560, Note_on_c, 0, 62, 95
4, 275040, Note_off_c, 0, 62, 95
4, 275040, Pitch_bend_c, 1, 8192
4, 275040, Note_on_c, 1, 60, 95
4, 275083, Pitch_bend_c, 1, 8320
4, 275126, Pitch_bend_c, 1, 8448
4, 275169, Pitch_bend_c, 1, 8576
4, 275212, Pitch_bend_c, 1, 8704
4, 275255, Pitch_bend_c, 1, 8832
4, 275298, Pitch_bend_c, 1, 8960
4, 275341, Pitch_bend_c, 1, 9088
4, 275384, Pitch_bend_c, 1, 9216
4, 275427, Pitch_bend_c, 1, 9344
4, 275470, Pitch_bend_c, 1, 9472
4, 275513, Pitch_bend_c, 1, 9600
4, 275520, Pitch_bend_c, 1, 9600
4, 276000, Pitch_bend_c, 1, 9600
4, 276000, Pitch_bend_c, 1, 8192
4, 276000, Note_off_c, 1, 60, 95
4, 276000, Note_on_c, 0, 60, 95
4, 276480, Note_off_c, 0, 60, 95
4, 276480, Note_on_c, 0, 58, 95
4, 276720, Note_off_c, 0, 58, 95
4, 276720, Note_on_c, 0, 60, 70
4, 276960, Note_off_c, 0, 60, 70
4, 276960, Note_on_c, 0, 58, 70
4, 277440, Note_off_c, 0, 58, 70
4, 277440, Note_on_c, 0, 55, 95
4, 277920, Note_off_c, 0, 55, 95
4, 277920, Note_on_c, 0, 60, 95
4, 278400, Note_off_c, 0, 60, 95
4, 278880, Note_on_c, 0, 58, 95
4, 279360, Note_off_c, 0, 58, 95
4, 279360, Note_on_c, 0, 59, 70
4, 279840, Note_off_c, 0, 59, 70
4, 279840, Note_on_c, 1, 55, 95
4, 280000, Pitch_bend_c, 1, 8192
4, 280160, Pitch_bend_c, 1, 8320
4, 280320, Pitch_bend_c, 1, 8192
4, 280480, Pitch_bend_c, 1, 8320
4, 280640, Pitch_bend_c, 1, 8192
4, 280800, Pitch_bend_c, 1, 8320
4, 280800, Pitch_bend_c, 1, 8192
4, 280800, Note_off_c, 1, 55, 95
4, 280800, Note_on_c, 1, 55, 95
4, 280960, Pitch_bend_c, 1, 8192
4, 281120, Pitch_bend_c, 1, 8320
4, 281280, Pitch_bend_c, 1, 8192
4, 281440, Pitch_bend_c, 1, 8320
4, 281600, Pitch_bend_c, 1, 8192
4, 281760, Pitch_bend_c, 1, 8320
4, 281920, Pitch_bend_c, 1, 8192
4, 282080, Pitch_bend_c, 1, 8320
4, 282120, Note_on_c, 1, 58, 95
4, 282240, Pitch_bend_c, 1, 8192
4, 282240, Pitch_bend_c, 1, 8320
4, 282240, Pitch_bend_c, 1, 8192
4, 282240, Note_off_c, 1, 55, 95
4, 282240, Note_off_c, 1, 58, 95
4, 282240, Note_on_c, 1, 59, 95
4, 282720, Note_off_c, 1, 59, 95
4, 282720, Note_on_c, 0, 62, 95
4, 283200, Note_off_c, 0, 62, 95
4, 283200, Note_on_c, 0, 67, 95
4, 283680, Note_off_c, 0, 67, 95
4, 283680, Note_on_c, 0, 65, 95
4, 284160, Note_off_c, 0, 65, 95
4, 284160, Note_on_c, 0, 62, 95
4, 284640, Note_off_c, 0, 62, 95
4, 284640, Note_on_c, 0, 60, 95
4, 285120, Note_off_c, 0, 60, 95
4, 285120, Note_on_c, 0, 58, 95
4, 285240, Note_off_c, 0, 58, 95
4, 285240, Note_on_c, 0, 59, 70
4, 285360, Note_off_c, 0, 59, 70
4, 285360, Note_on_c, 0, 58, 70
4, 285480, Note_off_c, 0, 58, 70
4, 285480, Note_on_c, 0, 59, 70
4, 285600, Note_off_c, 0, 59, 70
4, 285600, Note_on_c, 0, 58, 70
4, 286080, Note_off_c, 0, 58, 70
4, 286080, Note_on_c, 0, 55, 95
4, 286560, Note_off_c, 0, 55, 95
4, 286560, Note_on_c, 0, 49, 95
4, 287520, Note_off_c, 0, 49, 95
4, 287520, Note_on_c, 0, 50, 95
4, 288000, Note_off_c, 0, 50, 95
4, 288960, Note_on_c, 0, 62, 95
4, 289440, Note_off_c, 0, 62, 95
4, 289920, Note_on_c, 0, 64, 95
4, 290400, Note_off_c, 0, 64, 95
4, 290400, Note_on_c, 0, 67, 95
4, 290880, Note_off_c, 0, 67, 95
4, 290880, Pitch_bend_c, 1, 8192
4, 290880, Note_on_c, 1, 70, 95
4, 290880, Pitch_bend_c, 1, 8192
4, 290880, Note_on_c, 1, 64, 95
4, 291024, Pitch_bend_c, 1, 8320
4, 291168, Pitch_bend_c, 1, 8448
4, 291240, Pitch_bend_c, 1, 8320
4, 291312, Pitch_bend_c, 1, 8576
4, 291456, Pitch_bend_c, 1, 8704
4, 291600, Pitch_bend_c, 1, 8448
4, 291600, Pitch_bend_c, 1, 8448
4, 291600, Pitch_bend_c, 1, 8832
4, 291600, Pitch_bend_c, 1, 8832
4, 292320, Pitch_bend_c, 1, 8448
4, 292320, Pitch_bend_c, 1, 8192
4, 292320, Note_off_c, 1, 70, 95
4, 292320, Pitch_bend_c, 1, 8832
4, 292320, Pitch_bend_c, 1, 8192
4, 292320, Note_off_c, 1, 64, 95
4, 292320, Note_on_c, 0, 67, 95
4, 293280, Note_off_c, 0, 67, 95
4, 293280, Note_on_c, 0, 64, 95
4, 293760, Note_off_c, 0, 64, 95
4, 293760, Pitch_bend_c, 1, 8192
4, 293760, Note_on_c, 1, 70, 95
4, 293760, Pitch_bend_c, 1, 8192
4, 293760, Note_on_c, 1, 64, 95
4, 293856, Pitch_bend_c, 1, 8320
4, 293952, Pitch_bend_c, 1, 8448
4, 294000, Pitch_bend_c, 1, 8320
4, 294048, Pitch_bend_c, 1, 8576
4, 294144, Pitch_bend_c, 1, 8704
4, 294240, Pitch_bend_c, 1, 8448
4, 294240, Pitch_bend_c, 1, 8448
4, 294240, Pitch_bend_c, 1, 8832
4, 294240, Pitch_bend_c, 1, 8832
4, 294720, Pitch_bend_c, 1, 8448
4, 294720, Pitch_bend_c, 1, 8192
4, 294720, Note_off_c, 1, 70, 95
4, 294720, Pitch_bend_c, 1, 8832
4, 294720, Pitch_bend_c, 1, 8192
4, 294720, Note_off_c, 1, 64, 95
4, 295680, Note_on_c, 0, 64, 95
4, 296160, Note_off_c, 0, 64, 95
4, 296160, Note_on_c, 0, 67, 95
4, 296640, Note_off_c, 0, 67, 95
4, 296640, Pitch_bend_c, 1, 8192
4, 296640, Note_on_c, 1, 70, 95
4, 296640, Pitch_bend_c, 1, 8192
4, 296640, Note_on_c, 1, 64, 95
4, 296784, Pitch_bend_c, 1, 8320
4, 296928, Pitch_bend_c, 1, 8448
4, 297000, Pitch_bend_c, 1, 8320
4, 297072, Pitch_bend_c, 1, 8576
4, 297216, Pitch_bend_c, 1, 8704
4, 297360, Pitch_bend_c, 1, 8448
4, 297360, Pitch_bend_c, 1, 8448
4, 297360, Pitch_bend_c, 1, 8832
4, 297360, Pitch_bend_c, 1, 8832
4, 298080, Pitch_bend_c, 1, 8448
4, 298080, Pitch_bend_c, 1, 8192
4, 298080, Note_off_c, 1, 70, 95
4, 298080, Pitch_bend_c, 1, 8832
4, 298080, Pitch_bend_c, 1, 8192
4, 298080, Note_off_c, 1, 64, 95
4, 298080, Note_on_c, 0, 67, 95
4, 299040, Note_off_c, 0, 67, 95
4, 299040, Note_on_c, 0, 64, 95
4, 299520, Note_off_c, 0, 64, 95
4, 299520, Note_on_c, 0, 69, 95
4, 300480, Note_off_c, 0, 69, 95
4, 301440, Note_on_c, 0, 64, 95
4, 301920, Note_off_c, 0, 64, 95
4, 301920, Note_on_c, 0, 67, 95
4, 302400, Note_off_c, 0, 67, 95
4, 302880, Pitch_bend_c, 1, 8192
4, 302880, Note_on_c, 1, 70, 95
4, 302976, Pitch_bend_c, 1, 8320
4, 303072, Pitch_bend_c, 1, 8448
4, 303168, Pitch_bend_c, 1, 8576
4, 303264, Pitch_bend_c, 1, 8704
4, 303360, Pitch_bend_c, 1, 8832
4, 303360, Pitch_bend_c, 1, 8832
4, 303840, Pitch_bend_c, 1, 8832
4, 303840, Pitch_bend_c, 1, 8192
4, 303840, Note_off_c, 1, 70, 95
4, 303840, Note_on_c, 0, 67, 95
4, 304800, Note_off_c, 0, 67, 95
4, 304800, Note_on_c, 0, 62, 95
4, 305280, Note_off_c, 0, 62, 95
4, 305520, Pitch_bend_c, 1, 9600
4, 305520, Note_on_c, 1, 70, 95
4, 305840, Pitch_bend_c, 1, 9600
4, 305869, Pitch_bend_c, 1, 9472
4, 305898, Pitch_bend_c, 1, 9344
4, 305927, Pitch_bend_c, 1, 9216
4, 305956, Pitch_bend_c, 1, 9088
4, 305985, Pitch_bend_c, 1, 8960
4, 306014, Pitch_bend_c, 1, 8832
4, 306043, Pitch_bend_c, 1, 8704
4, 306072, Pitch_bend_c, 1, 8576
4, 306101, Pitch_bend_c, 1, 8448
4, 306130, Pitch_bend_c, 1, 8320
4, 306159, Pitch_bend_c, 1, 8192
4, 306160, Pitch_bend_c, 1, 8192
4, 306480, Pitch_bend_c, 1, 8192
4, 306480, Pitch_bend_c, 1, 8192
4, 306480, Note_off_c, 1, 70, 95
4, 306480, Note_on_c, 0, 67, 95
4, 306960, Note_off_c, 0, 67, 95
4, 306960, Note_on_c, 0, 62, 95
4, 307440, Note_off_c, 0, 62, 95
4, 307440, Pitch_bend_c, 1, 8192
4, 307440, Note_on_c, 1, 70, 95
4, 307560, Pitch_bend_c, 1, 8320
4, 307680, Pitch_bend_c, 1, 8448
4, 307680, Pitch_bend_c, 1, 8448
4, 307920, Pitch_bend_c, 1, 8448
4, 307920, Pitch_bend_c, 1, 8192
4, 307920, Note_off_c, 1, 70, 95
4, 307920, Note_on_c, 0, 67, 95
4, 308160, Note_off_c, 0, 67, 95
4, 308160, Note_on_c, 0, 62, 95
4, 308400, Note_off_c, 0, 62, 95
4, 308400, Pitch_bend_c, 1, 8192
4, 308400, Note_on_c, 1, 70, 95
4, 308520, Pitch_bend_c, 1, 8320
4, 308640, Pitch_bend_c, 1, 8448
4, 308640, Pitch_bend_c, 1, 8448
4, 308880, Pitch_bend_c, 1, 8448
4, 308880, Pitch_bend_c, 1, 8192
4, 308880, Note_off_c, 1, 70, 95
4, 308880, Note_on_c, 0, 67, 95
4, 309120, Note_off_c, 0, 67, 95
4, 309120, Note_on_c, 0, 62, 95
4, 309360, Note_off_c, 0, 62, 95
4, 309360, Pitch_bend_c, 1, 8192
4, 309360, Note_on_c, 1, 70, 95
4, 309480, Pitch_bend_c, 1, 8320
4, 309600, Pitch_bend_c, 1, 8448
4, 309600, Pitch_bend_c, 1, 8448
4, 309840, Pitch_bend_c, 1, 8448
4, 309840, Pitch_bend_c, 1, 8192
4, 309840, Note_off_c, 1, 70, 95
4, 309840, Note_on_c, 0, 67, 95
4, 310080, Note_off_c, 0, 67, 95
4, 310080, Note_on_c, 0, 62, 95
4, 310560, Note_off_c, 0, 62, 95
4, 310560, Pitch_bend_c, 1, 8192
4, 310560, Note_on_c, 1, 60, 95
4, 310581, Pitch_bend_c, 1, 8320
4, 310602, Pitch_bend_c, 1, 8448
4, 310623, Pitch_bend_c, 1, 8576
4, 310644, Pitch_bend_c, 1, 8704
4, 310665, Pitch_bend_c, 1, 8832
4, 310686, Pitch_bend_c, 1, 8960
4, 310707, Pitch_bend_c, 1, 9088
4, 310728, Pitch_bend_c, 1, 9216
4, 310749, Pitch_bend_c, 1, 9344
4, 310770, Pitch_bend_c, 1, 9472
4, 310791, Pitch_bend_c, 1, 9600
4, 310800, Pitch_bend_c, 1, 9600
4, 311040, Pitch_bend_c, 1, 9600
4, 311040, Pitch_bend_c, 1, 8192
4, 311040, Note_off_c, 1, 60, 95
4, 311040, Note_on_c, 0, 62, 95
4, 311520, Note_off_c, 0, 62, 95
4, 311520, Note_on_c, 0, 67, 95
4, 311760, Note_off_c, 0, 67, 95
4, 311760, Note_on_c, 0, 65, 95
4, 312000, Note_off_c, 0, 65, 95
4, 312240, Note_on_c, 0, 62, 95
4, 312480, Note_off_c, 0, 62, 95
4, 312480, Pitch_bend_c, 1, 8192
4, 312480, Note_on_c, 1, 60, 95
4, 312490, Pitch_bend_c, 1, 8320
4, 312500, Pitch_bend_c, 1, 8448
4, 312510, Pitch_bend_c, 1, 8576
4, 312520, Pitch_bend_c, 1, 8704
4, 312530, Pitch_bend_c, 1, 8832
4, 312540, Pitch_bend_c, 1, 8960
4, 312550, Pitch_bend_c, 1, 9088
4, 312560, Pitch_bend_c, 1, 9216
4, 312570, Pitch_bend_c, 1, 9344
4, 312580, Pitch_bend_c, 1, 9472
4, 312590, Pitch_bend_c, 1, 9600
4, 312600, Pitch_bend_c, 1, 9600
4, 312720, Pitch_bend_c, 1, 9600
4, 312730, Pitch_bend_c, 1, 9472
4, 312740, Pitch_bend_c, 1, 9344
4, 312750, Pitch_bend_c, 1, 9216
4, 312760, Pitch_bend_c, 1, 9088
4, 312770, Pitch_bend_c, 1, 8960
4, 312780, Pitch_bend_c, 1, 8832
4, 312790, Pitch_bend_c, 1, 8704
4, 312800, Pitch_bend_c, 1, 8576
4, 312810, Pitch_bend_c, 1, 8448
4, 312820, Pitch_bend_c, 1, 8320
4, 312830, Pitch_bend_c, 1, 8192
4, 312840, Pitch_bend_c, 1, 8192
4, 312960, Pitch_bend_c, 1, 8192
4, 312960, Pitch_bend_c, 1, 8192
4, 312960, Note_off_c, 1, 60, 95
4, 312960, Note_on_c, 0, 58, 95
4, 313200, Note_off_c, 0, 58, 95
4, 313200, Note_on_c, 0, 55, 95
4, 313440, Note_off_c, 0, 55, 95
4, 313440, Note_on_c, 0, 60, 95
4, 313680, Note_off_c, 0, 60, 95
4, 313680, Note_on_c, 0, 55, 95
4, 313920, Note_off_c, 0, 55, 95
4, 313920, Note_on_c, 0, 58, 95
4, 314160, Note_off_c, 0, 58, 95
4, 314160, Pitch_bend_c, 1, 8192
4, 314160, Note_on_c, 1, 60, 95
4, 314181, Pitch_bend_c, 1, 8320
4, 314202, Pitch_bend_c, 1, 8448
4, 314223, Pitch_bend_c, 1, 8576
4, 314244, Pitch_bend_c, 1, 8704
4, 314265, Pitch_bend_c, 1, 8832
4, 314286, Pitch_bend_c, 1, 8960
4, 314307, Pitch_bend_c, 1, 9088
4, 314328, Pitch_bend_c, 1, 9216
4, 314349, Pitch_bend_c, 1, 9344
4, 314370, Pitch_bend_c, 1, 9472
4, 314391, Pitch_bend_c, 1, 9600
4, 314400, Pitch_bend_c, 1, 9600
4, 314640, Pitch_bend_c, 1, 9600
4, 314640, Pitch_bend_c, 1, 8192
4, 314640, Note_off_c, 1, 60, 95
4, 314640, Note_on_c, 0, 62, 95
4, 314880, Note_off_c, 0, 62, 95
4, 314880, Pitch_bend_c, 1, 8192
4, 314880, Note_on_c, 1, 60, 95
4, 314890, Pitch_bend_c, 1, 8320
4, 314900, Pitch_bend_c, 1, 8448
4, 314910, Pitch_bend_c, 1, 8576
4, 314920, Pitch_bend_c, 1, 8704
4, 314930, Pitch_bend_c, 1, 8832
4, 314940, Pitch_bend_c, 1, 8960
4, 314950, Pitch_bend_c, 1, 9088
4, 314960, Pitch_bend_c, 1, 9216
4, 314970, Pitch_bend_c, 1, 9344
4, 314980, Pitch_bend_c, 1, 9472
4, 314990, Pitch_bend_c, 1, 9600
4, 315000, Pitch_bend_c, 1, 9600
4, 315120, Pitch_bend_c, 1, 9600
4, 315130, Pitch_bend_c, 1, 9472
4, 315140, Pitch_bend_c, 1, 9344
4, 315150, Pitch_bend_c, 1, 9216
4, 315160, Pitch_bend_c, 1, 9088
4, 315170, Pitch_bend_c, 1, 8960
4, 315180, Pitch_bend_c, 1, 8832
4, 315190, Pitch_bend_c, 1, 8704
4, 315200, Pitch_bend_c, 1, 8576
4, 315210, Pitch_bend_c, 1, 8448
4, 315220, Pitch_bend_c, 1, 8320
4, 315230, Pitch_bend_c, 1, 8192
4, 315240, Pitch_bend_c, 1, 8192
4, 315360, Pitch_bend_c, 1, 8192
4, 315360, Pitch_bend_c, 1, 8192
4, 315360, Note_off_c, 1, 60, 95
4, 315360, Note_on_c, 0, 58, 95
4, 315600, Note_off_c, 0, 58, 95
4, 315600, Note_on_c, 0, 55, 95
4, 315840, Note_off_c, 0, 55, 95
4, 315840, Note_on_c, 0, 60, 95
4, 316080, Note_off_c, 0, 60, 95
4, 316080, Note_on_c, 0, 55, 95
4, 316320, Note_off_c, 0, 55, 95
4, 316320, Note_on_c, 0, 58, 95
4, 316560, Note_off_c, 0, 58, 95
4, 316560, Note_on_c, 0, 55, 95
4, 316800, Note_off_c, 0, 55, 95
4, 316800, Note_on_c, 0, 53, 95
4, 317040, Note_off_c, 0, 53, 95
4, 317040, Note_on_c, 0, 55, 70
4, 317760, Note_off_c, 0, 55, 70
4, 319920, Note_on_c, 0, 55, 95
4, 320160, Note_off_c, 0, 55, 95
4, 320160, Note_on_c, 0, 58, 95
4, 320400, Note_off_c, 0, 58, 95
4, 320400, Note_on_c, 0, 60, 95
4, 320640, Note_off_c, 0, 60, 95
4, 320640, Pitch_bend_c, 1, 8192
4, 320640, Note_on_c, 1, 60, 95
4, 320650, Pitch_bend_c, 1, 8320
4, 320660, Pitch_bend_c, 1, 8448
4, 320670, Pitch_bend_c, 1, 8576
4, 320680, Pitch_bend_c, 1, 8704
4, 320690, Pitch_bend_c, 1, 8832
4, 320700, Pitch_bend_c, 1, 8960
4, 320710, Pitch_bend_c, 1, 9088
4, 320720, Pitch_bend_c, 1, 9216
4, 320730, Pitch_bend_c, 1, 9344
4, 320740, Pitch_bend_c, 1, 9472
4, 320750, Pitch_bend_c, 1, 9600
4, 320760, Pitch_bend_c, 1, 9600
4, 320880, Pitch_bend_c, 1, 9600
4, 320890, Pitch_bend_c, 1, 9472
4, 320900, Pitch_bend_c, 1, 9344
4, 320910, Pitch_bend_c, 1, 9216
4, 320920, Pitch_bend_c, 1, 9088
4, 320930, Pitch_bend_c, 1, 8960
4, 320940, Pitch_bend_c, 1, 8832
4, 320950, Pitch_bend_c, 1, 8704
4, 320960, Pitch_bend_c, 1, 8576
4, 320970, Pitch_bend_c, 1, 8448
4, 320980, Pitch_bend_c, 1, 8320
4, 320990, Pitch_bend_c, 1, 8192
4, 321000, Pitch_bend_c, 1, 8192
4, 321120, Pitch_bend_c, 1, 8192
4, 321120, Pitch_bend_c, 1, 8192
4, 321120, Note_off_c, 1, 60, 95
4, 321120, Note_on_c, 0, 58, 95
4, 321600, Note_off_c, 0, 58, 95
4, 321600, Note_on_c, 0, 55, 95
4, 321840, Note_off_c, 0, 55, 95
4, 321840, Note_on_c, 0, 60, 95
4, 322080, Note_off_c, 0, 60, 95
4, 322080, Note_on_c, 0, 55, 95
4, 322320, Note_off_c, 0, 55, 95
4, 322320, Note_on_c, 0, 58, 95
4, 322560, Note_off_c, 0, 58, 95
4, 322560, Pitch_bend_c, 1, 8192
4, 322560, Note_on_c, 1, 60, 95
4, 322570, Pitch_bend_c, 1, 8320
4, 322580, Pitch_bend_c, 1, 8448
4, 322590, Pitch_bend_c, 1, 8576
4, 322600, Pitch_bend_c, 1, 8704
4, 322610, Pitch_bend_c, 1, 8832
4, 322620, Pitch_bend_c, 1, 8960
4, 322630, Pitch_bend_c, 1, 9088
4, 322640, Pitch_bend_c, 1, 9216
4, 322650, Pitch_bend_c, 1, 9344
4, 322660, Pitch_bend_c, 1, 9472
4, 322670, Pitch_bend_c, 1, 9600
4, 322680, Pitch_bend_c, 1, 9600
4, 322800, Pitch_bend_c, 1, 9600
4, 322800, Pitch_bend_c, 1, 8192
4, 322800, Note_off_c, 1, 60, 95
4, 322800, Note_on_c, 0, 62, 95
4, 323040, Note_off_c, 0, 62, 95
4, 323040, Note_on_c, 0, 67, 95
4, 323280, Note_off_c, 0, 67, 95
4, 323280, Note_on_c, 0, 62, 95
4, 323520, Note_off_c, 0, 62, 95
4, 323520, Pitch_bend_c, 1, 8192
4, 323520, Note_on_c, 1, 65, 95
4, 323563, Pitch_bend_c, 1, 8320
4, 323606, Pitch_bend_c, 1, 8448
4, 323649, Pitch_bend_c, 1, 8576
4, 323692, Pitch_bend_c, 1, 8704
4, 323735, Pitch_bend_c, 1, 8832
4, 323778, Pitch_bend_c, 1, 8960
4, 323821, Pitch_bend_c, 1, 9088
4, 323864, Pitch_bend_c, 1, 9216
4, 323907, Pitch_bend_c, 1, 9344
4, 323950, Pitch_bend_c, 1, 9472
4, 323993, Pitch_bend_c, 1, 9600
4, 324000, Pitch_bend_c, 1, 9600
4, 324480, Pitch_bend_c, 1, 9600
4, 324480, Pitch_bend_c, 1, 8192
4, 324480, Note_off_c, 1, 65, 95
4, 324480, Note_on_c, 0, 67, 95
4, 324720, Note_off_c, 0, 67, 95
4, 324720, Note_on_c, 0, 62, 95
4, 324960, Note_off_c, 0, 62, 95
4, 324960, Pitch_bend_c, 1, 8192
4, 324960, Note_on_c, 1, 60, 95
4, 325008, Pitch_bend_c, 1, 8320
4, 325056, Pitch_bend_c, 1, 8448
4, 325104, Pitch_bend_c, 1, 8576
4, 325152, Pitch_bend_c, 1, 8704
4, 325200, Pitch_bend_c, 1, 8832
4, 325200, Pitch_bend_c, 1, 8832
4, 325440, Pitch_bend_c, 1, 8832
4, 325488, Pitch_bend_c, 1, 8704
4, 325536, Pitch_bend_c, 1, 8576
4, 325584, Pitch_bend_c, 1, 8448
4, 325632, Pitch_bend_c, 1, 8320
4, 325680, Pitch_bend_c, 1, 8192
4, 325680, Pitch_bend_c, 1, 8192
4, 325920, Pitch_bend_c, 1, 8192
4, 325920, Pitch_bend_c, 1, 8192
4, 325920, Note_off_c, 1, 60, 95
4, 325920, Note_on_c, 0, 58, 95
4, 326160, Note_off_c, 0, 58, 95
4, 326160, Note_on_c, 0, 55, 95
4, 326400, Note_off_c, 0, 55, 95
4, 326400, Note_on_c, 0, 60, 95
4, 326640, Note_off_c, 0, 60, 95
4, 326640, Note_on_c, 0, 55, 95
4, 326760, Note_on_c, 1, 58, 95
4, 326880, Note_off_c, 0, 55, 95
4, 326880, Note_off_c, 1, 58, 95
4, 326880, Note_on_c, 1, 59, 95
4, 327120, Note_off_c, 1, 59, 95
4, 327120, Note_on_c, 0, 55, 95
4, 327360, Note_off_c, 0, 55, 95
4, 327360, Note_on_c, 0, 50, 95
4, 327840, Note_off_c, 0, 50, 95
4, 327840, Note_on_c, 0, 48, 95
4, 328320, Note_off_c, 0, 48, 95
4, 328320, Note_on_c, 0, 47, 95
4, 328800, Note_off_c, 0, 47, 95
4, 330720, Note_on_c, 0, 70, 95
4, 330720, Pitch_bend_c, 1, 8192
4, 330720, Note_on_c, 1, 64, 95
4, 330816, Pitch_bend_c, 1, 8320
4, 330912, Pitch_bend_c, 1, 8448
4, 331008, Pitch_bend_c, 1, 8576
4, 331104, Pitch_bend_c, 1, 8704
4, 331200, Pitch_bend_c, 1, 8832
4, 331200, Pitch_bend_c, 1, 8832
4, 331680, Note_off_c, 0, 70, 95
4, 331680, Pitch_bend_c, 1, 8832
4, 331680, Pitch_bend_c, 1, 8192
4, 331680, Note_off_c, 1, 64, 95
4, 331680, Note_on_c, 0, 67, 95
4, 332160, Note_off_c, 0, 67, 95
4, 332160, Note_on_c, 0, 62, 95
4, 332640, Note_off_c, 0, 62, 95
4, 332640, Note_on_c, 0, 60, 95
4, 333600, Note_off_c, 0, 60, 95
4, 333600, Note_on_c, 0, 59, 95
4, 334080, Note_off_c, 0, 59, 95
4, 334080, Note_on_c, 1, 55, 95
4, 334240, Pitch_bend_c, 1, 8192
4, 334400, Pitch_bend_c, 1, 8320
4, 334560, Pitch_bend_c, 1, 8192
4, 334720, Pitch_bend_c, 1, 8320
4, 334880, Pitch_bend_c, 1, 8192
4, 335040, Pitch_bend_c, 1, 8320
4, 335040, Pitch_bend_c, 1, 8192
4, 335040, Note_off_c, 1, 55, 95
4, 335040, Note_on_c, 0, 55, 95
4, 335520, Note_off_c, 0, 55, 95
4, 335520, Note_on_c, 0, 58, 95
4, 336000, Note_off_c, 0, 58, 95
4, 336480, Pitch_bend_c, 1, 8192
4, 336480, Note_on_c, 1, 60, 95
4, 336545, Pitch_bend_c, 1, 8320
4, 336610, Pitch_bend_c, 1, 8448
4, 336675, Pitch_bend_c, 1, 8576
4, 336740, Pitch_bend_c, 1, 8704
4, 336805, Pitch_bend_c, 1, 8832
4, 336870, Pitch_bend_c, 1, 8960
4, 336935, Pitch_bend_c, 1, 9088
4, 337000, Pitch_bend_c, 1, 9216
4, 337065, Pitch_bend_c, 1, 9344
4, 337130, Pitch_bend_c, 1, 9472
4, 337195, Pitch_bend_c, 1, 9600
4, 337200, Pitch_bend_c, 1, 9600
4, 337920, Pitch_bend_c, 1, 9600
4, 337920, Pitch_bend_c, 1, 8192
4, 337920, Note_off_c, 1, 60, 95
4, 337920, Note_on_c, 0, 62, 95
4, 338400, Note_off_c, 0, 62, 95
4, 338400, Pitch_bend_c, 1, 8192
4, 338400, Note_on_c, 1, 60, 95
4, 338410, Pitch_bend_c, 1, 8320
4, 338420, Pitch_bend_c, 1, 8448
4, 338430, Pitch_bend_c, 1, 8576
4, 338440, Pitch_bend_c, 1, 8704
4, 338450, Pitch_bend_c, 1, 8832
4, 338460, Pitch_bend_c, 1, 8960
4, 338470, Pitch_bend_c, 1, 9088
4, 338480, Pitch_bend_c, 1, 9216
4, 338490, Pitch_bend_c, 1, 9344
4, 338500, Pitch_bend_c, 1, 9472
4, 338510, Pitch_bend_c, 1, 9600
4, 338520, Pitch_bend_c, 1, 9600
4, 338640, Pitch_bend_c, 1, 9600
4, 338650, Pitch_bend_c, 1, 9472
4, 338660, Pitch_bend_c, 1, 9344
4, 338670, Pitch_bend_c, 1, 9216
4, 338680, Pitch_bend_c, 1, 9088
4, 338690, Pitch_bend_c, 1, 8960
4, 338700, Pitch_bend_c, 1, 8832
4, 338710, Pitch_bend_c, 1, 8704
4, 338720, Pitch_bend_c, 1, 8576
4, 338730, Pitch_bend_c, 1, 8448
4, 338740, Pitch_bend_c, 1, 8320
4, 338750, Pitch_bend_c, 1, 8192
4, 338760, Pitch_bend_c, 1, 8192
4, 338880, Pitch_bend_c, 1, 8192
4, 338880, Pitch_bend_c, 1, 8192
4, 338880, Note_off_c, 1, 60, 95
4, 338880, Note_on_c, 0, 58, 95
4, 339360, Note_off_c, 0, 58, 95
4, 339360, Note_on_c, 0, 55, 95
4, 339840, Note_off_c, 0, 55, 95
4, 339840, Pitch_bend_c, 1, 8192
4, 339840, Note_on_c, 1, 58, 95
4, 339936, Pitch_bend_c, 1, 8320
4, 340032, Pitch_bend_c, 1, 8448
4, 340128, Pitch_bend_c, 1, 8576
4, 340224, Pitch_bend_c, 1, 8704
4, 340320, Pitch_bend_c, 1, 8832
4, 340320, Pitch_bend_c, 1, 8832
4, 340800, Pitch_bend_c, 1, 8832
4, 340800, Pitch_bend_c, 1, 8192
4, 340800, Note_off_c, 1, 58, 95
4, 340800, Note_on_c, 1, 50, 95
4, 340960, Pitch_bend_c, 1, 8192
4, 341120, Pitch_bend_c, 1, 8320
4, 341280, Pitch_bend_c, 1, 8192
4, 341440, Pitch_bend_c, 1, 8320
4, 341600, Pitch_bend_c, 1, 8192
4, 341760, Pitch_bend_c, 1, 8320
4, 341920, Pitch_bend_c, 1, 8192
4, 342080, Pitch_bend_c, 1, 8320
4, 342240, Pitch_bend_c, 1, 8192
4, 342400, Pitch_bend_c, 1, 8320
4, 342560, Pitch_bend_c, 1, 8192
4, 342720, Pitch_bend_c, 1, 8320
4, 342720, Pitch_bend_c, 1, 8192
4, 342720, Note_off_c, 1, 50, 95
4, 343680, Pitch_bend_c, 1, 8192
4, 343680, Note_on_c, 1, 70, 95
4, 343872, Pitch_bend_c, 1, 8320
4, 344064, Pitch_bend_c, 1, 8448
4, 344256, Pitch_bend_c, 1, 8576
4, 344448, Pitch_bend_c, 1, 8704
4, 344640, Pitch_bend_c, 1, 8832
4, 344640, Pitch_bend_c, 1, 8832
4, 345600, Pitch_bend_c, 1, 8832
4, 345600, Pitch_bend_c, 1, 8192
4, 345600, Note_off_c, 1, 70, 95
4, 345600, Note_on_c, 0, 67, 95
4, 346560, Note_off_c, 0, 67, 95
4, 346560, Note_on_c, 0, 62, 95
4, 347040, Note_off_c, 0, 62, 95
4, 347040, Pitch_bend_c, 1, 8192
4, 347040, Note_on_c, 1, 60, 95
4, 347064, Pitch_bend_c, 1, 8320
4, 347088, Pitch_bend_c, 1, 8448
4, 347112, Pitch_bend_c, 1, 8576
4, 347136, Pitch_bend_c, 1, 8704
4, 347160, Pitch_bend_c, 1, 8832
4, 347160, Pitch_bend_c, 1, 8832
4, 347280, Pitch_bend_c, 1, 8832
4, 347304, Pitch_bend_c, 1, 8704
4, 347328, Pitch_bend_c, 1, 8576
4, 347352, Pitch_bend_c, 1, 8448
4, 347376, Pitch_bend_c, 1, 8320
4, 347400, Pitch_bend_c, 1, 8192
4, 347400, Pitch_bend_c, 1, 8192
4, 347520, Pitch_bend_c, 1, 8192
4, 347520, Pitch_bend_c, 1, 8192
4, 347520, Note_off_c, 1, 60, 95
4, 347520, Note_on_c, 0, 58, 95
4, 348000, Note_off_c, 0, 58, 95
4, 348000, Note_on_c, 0, 55, 95
4, 348480, Note_off_c, 0, 55, 95
4, 348480, Note_on_c, 1, 55, 95
4, 348640, Pitch_bend_c, 1, 8192
4, 348800, Pitch_bend_c, 1, 8320
4, 348960, Pitch_bend_c, 1, 8192
4, 349120, Pitch_bend_c, 1, 8320
4, 349280, Pitch_bend_c, 1, 8192
4, 349440, Pitch_bend_c, 1, 8320
4, 349600, Pitch_bend_c, 1, 8192
4, 349760, Pitch_bend_c, 1, 8320
4, 349800, Note_on_c, 1, 58, 95
4, 349920, Pitch_bend_c, 1, 8192
4, 349920, Pitch_bend_c, 1, 8320
4, 349920, Pitch_bend_c, 1, 8192
4, 349920, Note_off_c, 1, 55, 95
4, 349920, Note_off_c, 1, 58, 95
4, 349920, Note_on_c, 1, 59, 95
4, 350400, Note_off_c, 1, 59, 95
4, 350400, Note_on_c, 0, 62, 95
4, 350880, Note_off_c, 0, 62, 95
4, 350880, Note_on_c, 0, 67, 95
4, 351360, Note_off_c, 0, 67, 95
4, 351360, Note_on_c, 0, 65, 95
4, 351840, Note_off_c, 0, 65, 95
4, 351840, Note_on_c, 0, 67, 95
4, 352320, Note_off_c, 0, 67, 95
4, 352320, Note_on_c, 0, 69, 95
4, 352800, Note_off_c, 0, 69, 95
4, 352800, Note_on_c, 0, 67, 95
4, 353280, Note_off_c, 0, 67, 95
4, 353280, Note_on_c, 0, 62, 95
4, 353760, Note_off_c, 0, 62, 95
4, 353760, Note_on_c, 0, 60, 95
4, 354240, Note_off_c, 0, 60, 95
4, 354240, Note_on_c, 0, 58, 95
4, 354360, Note_off_c, 0, 58, 95
4, 354360, Note_on_c, 0, 59, 70
4, 354480, Note_off_c, 0, 59, 70
4, 354480, Note_on_c, 0, 58, 70
4, 354600, Note_off_c, 0, 58, 70
4, 354600, Note_on_c, 0, 59, 70
4, 354720, Note_off_c, 0, 59, 70
4, 354720, Note_on_c, 0, 58, 70
4, 355200, Note_off_c, 0, 58, 70
4, 355200, Note_on_c, 0, 55, 95
4, 355680, Note_off_c, 0, 55, 95
4, 355680, Note_on_c, 0, 50, 95
4, 356640, Note_off_c, 0, 50, 95
4, 356640, Note_on_c, 0, 48, 70
4, 357120, Note_off_c, 0, 48, 70
4, 364200, Note_on_c, 1, 61, 95
4, 364320, Note_off_c, 1, 61, 95
4, 364320, Note_on_c, 1, 60, 95
4, 364800, Note_off_c, 1, 60, 95
4, 364800, Note_on_c, 0, 58, 70
4, 365040, Note_off_c, 0, 58, 70
4, 365040, Note_on_c, 1, 55, 95
4, 365200, Pitch_bend_c, 1, 8192
4, 365360, Pitch_bend_c, 1, 8320
4, 365520, Pitch_bend_c, 1, 8192
4, 365680, Pitch_bend_c, 1, 8320
4, 365840, Pitch_bend_c, 1, 8192
4, 366000, Pitch_bend_c, 1, 8320
4, 366160, Pitch_bend_c, 1, 8192
4, 366320, Pitch_bend_c, 1, 8320
4, 366480, Pitch_bend_c, 1, 8192
4, 366640, Pitch_bend_c, 1, 8320
4, 366720, Pitch_bend_c, 1, 8192
4, 366720, Pitch_bend_c, 1, 8320
4, 366720, Pitch_bend_c, 1, 8192
4, 366720, Note_off_c, 1, 55, 95
4, 373920, Pitch_bend_c, 1, 8192
4, 373920, Note_on_c, 1, 60, 95
4, 373963, Pitch_bend_c, 1, 8320
4, 374006, Pitch_bend_c, 1, 8448
4, 374049, Pitch_bend_c, 1, 8576
4, 374092, Pitch_bend_c, 1, 8704
4, 374135, Pitch_bend_c, 1, 8832
4, 374178, Pitch_bend_c, 1, 8960
4, 374221, Pitch_bend_c, 1, 9088
4, 374264, Pitch_bend_c, 1, 9216
4, 374307, Pitch_bend_c, 1, 9344
4, 374350, Pitch_bend_c, 1, 9472
4, 374393, Pitch_bend_c, 1, 9600
4, 374400, Pitch_bend_c, 1, 9600
4, 374880, Pitch_bend_c, 1, 9600
4, 374880, Pitch_bend_c, 1, 8192
4, 374880, Note_off_c, 1, 60, 95
4, 374880, Note_on_c, 0, 62, 95
4, 375360, Note_off_c, 0, 62, 95
4, 375360, Note_on_c, 0, 67, 95
4, 375840, Note_off_c, 0, 67, 95
4, 375840, Note_on_c, 0, 62, 95
4, 376320, Note_off_c, 0, 62, 95
4, 376800, Note_on_c, 1, 61, 95
4, 376960, Pitch_bend_c, 1, 7552
4, 376960, Pitch_bend_c, 1, 8192
4, 376960, Note_off_c, 1, 61, 95
4, 376960, Note_on_c, 0, 60, 95
4, 377120, Note_off_c, 0, 60, 95
4, 377120, Note_on_c, 0, 58, 70
4, 378240, Note_off_c, 0, 58, 70
4, 378240, Note_on_c, 0, 55, 95
4, 378720, Note_off_c, 0, 55, 95
4, 378720, Note_on_c, 0, 48, 95
4, 379680, Note_off_c, 0, 48, 95
4, 379680, Note_on_c, 0, 47, 95
4, 380160, Note_off_c, 0, 47, 95
4, 386880, Pitch_bend_c, 1, 8192
4, 386880, Note_on_c, 1, 60, 95
4, 386901, Pitch_bend_c, 1, 8320
4, 386922, Pitch_bend_c, 1, 8448
4, 386943, Pitch_bend_c, 1, 8576
4, 386964, Pitch_bend_c, 1, 8704
4, 386985, Pitch_bend_c, 1, 8832
4, 387006, Pitch_bend_c, 1, 8960
4, 387027, Pitch_bend_c, 1, 9088
4, 387048, Pitch_bend_c, 1, 9216
4, 387069, Pitch_bend_c, 1, 9344
4, 387090, Pitch_bend_c, 1, 9472
4, 387111, Pitch_bend_c, 1, 9600
4, 387120, Pitch_bend_c, 1, 9600
4, 387360, Pitch_bend_c, 1, 9600
4, 387360, Pitch_bend_c, 1, 8192
4, 387360, Note_off_c, 1, 60, 95
4, 387360, Note_on_c, 0, 62, 95
4, 388320, Note_off_c, 0, 62, 95
4, 388320, Note_on_c, 0, 67, 95
4, 388800, Note_off_c, 0, 67, 95
4, 396000, Pitch_bend_c, 1, 8192
4, 396000, Note_on_c, 1, 60, 95
4, 396021, Pitch_bend_c, 1, 8320
4, 396042, Pitch_bend_c, 1, 8448
4, 396063, Pitch_bend_c, 1, 8576
4, 396084, Pitch_bend_c, 1, 8704
4, 396105, Pitch_bend_c, 1, 8832
4, 396126, Pitch_bend_c, 1, 8960
4, 396147, Pitch_bend_c, 1, 9088
4, 396168, Pitch_bend_c, 1, 9216
4, 396189, Pitch_bend_c, 1, 9344
4, 396210, Pitch_bend_c, 1, 9472
4, 396231, Pitch_bend_c, 1, 9600
4, 396240, Pitch_bend_c, 1, 9600
4, 396480, Pitch_bend_c, 1, 9600
4, 396480, Pitch_bend_c, 1, 8192
4, 396480, Note_off_c, 1, 60, 95
4, 396480, Note_on_c, 0, 62, 95
4, 396960, Note_off_c, 0, 62, 95
4, 396960, Note_on_c, 0, 67, 95
4, 397440, Note_off_c, 0, 67, 95
4, 397440, Pitch_bend_c, 1, 8192
4, 397440, Note_on_c, 1, 70, 95
4, 397488, Pitch_bend_c, 1, 8320
4, 397536, Pitch_bend_c, 1, 8448
4, 397584, Pitch_bend_c, 1, 8576
4, 397632, Pitch_bend_c, 1, 8704
4, 397680, Pitch_bend_c, 1, 8832
4, 397680, Pitch_bend_c, 1, 8832
4, 397920, Pitch_bend_c, 1, 8832
4, 397920, Pitch_bend_c, 1, 8192
4, 397920, Note_off_c, 1, 70, 95
4, 397920, Note_on_c, 0, 67, 95
4, 398400, Note_off_c, 0, 67, 95
4, 398400, Pitch_bend_c, 1, 8192
4, 398400, Note_on_c, 1, 70, 95
4, 398448, Pitch_bend_c, 1, 8320
4, 398496, Pitch_bend_c, 1, 8448
4, 398544, Pitch_bend_c, 1, 8576
4, 398592, Pitch_bend_c, 1, 8704
4, 398640, Pitch_bend_c, 1, 8832
4, 398640, Pitch_bend_c, 1, 8832
4, 398880, Pitch_bend_c, 1, 8832
4, 398880, Pitch_bend_c, 1, 8192
4, 398880, Note_off_c, 1, 70, 95
4, 398880, Note_on_c, 0, 67, 95
4, 399360, Note_off_c, 0, 67, 95
4, 399360, Note_on_c, 0, 62, 95
4, 399840, Note_off_c, 0, 62, 95
4, 399840, Note_on_c, 0, 60, 95
4, 400200, Note_on_c, 1, 58, 95
4, 400320, Note_off_c, 0, 60, 95
4, 400320, Note_off_c, 1, 58, 95
4, 400320, Note_on_c, 1, 59, 95
4, 400800, Note_off_c, 1, 59, 95
4, 400800, Note_on_c, 0, 55, 95
4, 401280, Note_off_c, 0, 55, 95
4, 401280, Note_on_c, 0, 50, 95
4, 401760, Note_off_c, 0, 50, 95
4, 401760, Note_on_c, 0, 48, 95
4, 402720, Note_off_c, 0, 48, 95
4, 402720, Note_on_c, 0, 47, 95
4, 403200, Note_off_c, 0, 47, 95
4, 409920, Pitch_bend_c, 1, 8192
4, 409920, Note_on_c, 1, 60, 95
4, 409941, Pitch_bend_c, 1, 8320
4, 409962, Pitch_bend_c, 1, 8448
4, 409983, Pitch_bend_c, 1, 8576
4, 410004, Pitch_bend_c, 1, 8704
4, 410025, Pitch_bend_c, 1, 8832
4, 410046, Pitch_bend_c, 1, 8960
4, 410067, Pitch_bend_c, 1, 9088
4, 410088, Pitch_bend_c, 1, 9216
4, 410109, Pitch_bend_c, 1, 9344
4, 410130, Pitch_bend_c, 1, 9472
4, 410151, Pitch_bend_c, 1, 9600
4, 410160, Pitch_bend_c, 1, 9600
4, 410400, Pitch_bend_c, 1, 9600
4, 410421, Pitch_bend_c, 1, 9472
4, 410442, Pitch_bend_c, 1, 9344
4, 410463, Pitch_bend_c, 1, 9216
4, 410484, Pitch_bend_c, 1, 9088
4, 410505, Pitch_bend_c, 1, 8960
4, 410526, Pitch_bend_c, 1, 8832
4, 410547, Pitch_bend_c, 1, 8704
4, 410568, Pitch_bend_c, 1, 8576
4, 410589, Pitch_bend_c, 1, 8448
4, 410610, Pitch_bend_c, 1, 8320
4, 410631, Pitch_bend_c, 1, 8192
4, 410640, Pitch_bend_c, 1, 8192
4, 410880, Pitch_bend_c, 1, 8192
4, 410880, Pitch_bend_c, 1, 8192
4, 410880, Note_off_c, 1, 60, 95
4, 410880, Note_on_c, 0, 58, 95
4, 411360, Note_off_c, 0, 58, 95
4, 411360, Note_on_c, 0, 55, 95
4, 411840, Note_off_c, 0, 55, 95
4, 411840, Pitch_bend_c, 1, 8192
4, 411840, Note_on_c, 1, 58, 95
4, 411960, Pitch_bend_c, 1, 8320
4, 412080, Pitch_bend_c, 1, 8448
4, 412080, Pitch_bend_c, 1, 8448
4, 412320, Pitch_bend_c, 1, 8448
4, 412320, Pitch_bend_c, 1, 8192
4, 412320, Note_off_c, 1, 58, 95
4, 420000, Pitch_bend_c, 1, 8192
4, 420000, Note_on_c, 1, 60, 95
4, 420021, Pitch_bend_c, 1, 8320
4, 420042, Pitch_bend_c, 1, 8448
4, 420063, Pitch_bend_c, 1, 8576
4, 420084, Pitch_bend_c, 1, 8704
4, 420105, Pitch_bend_c, 1, 8832
4, 420126, Pitch_bend_c, 1, 8960
4, 420147, Pitch_bend_c, 1, 9088
4, 420168, Pitch_bend_c, 1, 9216
4, 420189, Pitch_bend_c, 1, 9344
4, 420210, Pitch_bend_c, 1, 9472
4, 420231, Pitch_bend_c, 1, 9600
4, 420240, Pitch_bend_c, 1, 9600
4, 420480, Pitch_bend_c, 1, 9600
4, 420480, Pitch_bend_c, 1, 8192
4, 420480, Note_off_c, 1, 60, 95
4, 420480, Note_on_c, 0, 60, 95
4, 420960, Note_off_c, 0, 60, 95
4, 420960, Note_on_c, 0, 58, 70
4, 421440, Note_off_c, 0, 58, 70
4, 421440, Note_on_c, 0, 55, 95
4, 421920, Note_off_c, 0, 55, 95
4, 421920, Note_on_c, 0, 60, 95
4, 422880, Note_off_c, 0, 60, 95
4, 422880, Note_on_c, 0, 55, 95
4, 423360, Note_off_c, 0, 55, 95
4, 423360, Note_on_c, 0, 58, 95
4, 423480, Note_off_c, 0, 58, 95
4, 423480, Note_on_c, 0, 59, 70
4, 423600, Note_off_c, 0, 59, 70
4, 423600, Note_on_c, 0, 58, 70
4, 423720, Note_off_c, 0, 58, 70
4, 423720, Note_on_c, 0, 59, 70
4, 423840, Note_off_c, 0, 59, 70
4, 423840, Note_on_c, 0, 58, 70
4, 424320, Note_off_c, 0, 58, 70
4, 424680, Note_on_c, 1, 69, 95
4, 424680, Note_on_c, 1, 65, 95
4, 424680, Note_on_c, 1, 59, 95
4, 424680, Note_on_c, 1, 55, 95
4, 424800, Note_off_c, 1, 69, 95
4, 424800, Note_on_c, 1, 70, 95
4, 424800, Note_off_c, 1, 65, 95
4, 424800, Note_on_c, 1, 66, 95
4, 424800, Note_off_c, 1, 59, 95
4, 424800, Note_on_c, 1, 60, 95
4, 424800, Note_off_c, 1, 55, 95
4, 424800, Note_on_c, 1, 56, 95
4, 425760, Note_off_c, 1, 70, 95
4, 425760, Note_off_c, 1, 66, 95
4, 425760, Note_off_c, 1, 60, 95
4, 425760, Note_off_c, 1, 56, 95
4, 425760, Note_on_c, 0, 69, 95
4, 425760, Note_on_c, 0, 65, 95
4, 425760, Note_on_c, 0, 59, 95
4, 425760, Note_on_c, 0, 55, 95
4, 428160, Note_off_c, 0, 69, 95
4, 428160, Note_off_c, 0, 65, 95
4, 428160, Note_off_c, 0, 59, 95
4, 428160, Note_off_c, 0, 55, 95
4, 428160, Note_on_c, 1, 69, 95
4, 428160, Note_on_c, 1, 65, 95
4, 428160, Note_on_c, 1, 59, 95
4, 428160, Note_on_c, 1, 55, 95
4, 428280, Pitch_bend_c, 1, 6528
4, 428280, Pitch_bend_c, 1, 6528
4, 428280, Pitch_bend_c, 1, 6656
4, 428280, Pitch_bend_c, 1, 6528
4, 428400, Pitch_bend_c, 1, 4736
4, 428400, Pitch_bend_c, 1, 4736
4, 428400, Pitch_bend_c, 1, 5120
4, 428400, Pitch_bend_c, 1, 4736
4, 428520, Pitch_bend_c, 1, 2944
4, 428520, Pitch_bend_c, 1, 2944
4, 428520, Pitch_bend_c, 1, 3456
4, 428520, Pitch_bend_c, 1, 2944
4, 428640, Pitch_bend_c, 1, 1152
4, 428640, Pitch_bend_c, 1, 8192
4, 428640, Note_off_c, 1, 69, 95
4, 428640, Pitch_bend_c, 1, 1152
4, 428640, Pitch_bend_c, 1, 8192
4, 428640, Note_off_c, 1, 65, 95
4, 428640, Pitch_bend_c, 1, 1920
4, 428640, Pitch_bend_c, 1, 8192
4, 428640, Note_off_c, 1, 59, 95
4, 428640, Pitch_bend_c, 1, 1152
4, 428640, Pitch_bend_c, 1, 8192
4, 428640, Note_off_c, 1, 55, 95
4, 428640, Note_on_c, 0, 59, 95
4, 428640, Note_on_c, 0, 55, 95
4, 428640, Note_on_c, 0, 50, 95
4, 428640, Note_on_c, 0, 45, 95
4, 428706, Note_off_c, 0, 59, 95
4, 428706, Note_off_c, 0, 55, 95
4, 428706, Note_off_c, 0, 50, 95
4, 428706, Note_off_c, 0, 45, 95
4, 428706, End_track
5, 0, Start_track
5, 0, Pitch_bend_c, 2, 8192
5, 0, Control_c, 2, 7, 79
5, 0, Control_c, 2, 10, 63
5, 0, Control_c, 2, 93, 0
5, 0, Control_c, 2, 91, 0
5, 0, Control_c, 2, 95, 0
5, 0, Control_c, 2, 92, 0
5, 0, Control_c, 2, 11, 127
5, 0, Program_c, 2, 29
5, 0, Control_c, 3, 7, 79
5, 0, Control_c, 3, 10, 63
5, 0, Control_c, 3, 93, 0
5, 0, Control_c, 3, 91, 0
5, 0, Control_c, 3, 95, 0
5, 0, Control_c, 3, 92, 0
5, 0, Control_c, 3, 11, 127
5, 0, Program_c, 3, 29
5, 15360, Note_on_c, 2, 74, 63
5, 15360, Note_on_c, 2, 69, 63
5, 15360, Note_on_c, 2, 65, 63
5, 15360, Note_on_c, 2, 59, 63
5, 15360, Note_on_c, 2, 55, 63
5, 15840, Note_off_c, 2, 74, 63
5, 15840, Note_off_c, 2, 69, 63
5, 15840, Note_off_c, 2, 65, 63
5, 15840, Note_off_c, 2, 59, 63
5, 15840, Note_off_c, 2, 55, 63
5, 16800, Note_on_c, 2, 74, 63
5, 16800, Note_on_c, 2, 69, 63
5, 16800, Note_on_c, 2, 65, 63
5, 16800, Note_on_c, 2, 59, 63
5, 16800, Note_on_c, 2, 55, 63
5, 17280, Note_off_c, 2, 74, 63
5, 17280, Note_off_c, 2, 69, 63
5, 17280, Note_off_c, 2, 65, 63
5, 17280, Note_off_c, 2, 59, 63
5, 17280, Note_off_c, 2, 55, 63
5, 18240, Note_on_c, 2, 74, 63
5, 18240, Note_on_c, 2, 69, 63
5, 18240, Note_on_c, 2, 65, 63
5, 18240, Note_on_c, 2, 59, 63
5, 18240, Note_on_c, 2, 55, 63
5, 18720, Note_off_c, 2, 74, 63
5, 18720, Note_off_c, 2, 69, 63
5, 18720, Note_off_c, 2, 65, 63
5, 18720, Note_off_c, 2, 59, 63
5, 18720, Note_off_c, 2, 55, 63
5, 19680, Note_on_c, 2, 74, 63
5, 19680, Note_on_c, 2, 69, 63
5, 19680, Note_on_c, 2, 65, 63
5, 19680, Note_on_c, 2, 59, 63
5, 19680, Note_on_c, 2, 55, 63
5, 20160, Note_off_c, 2, 74, 63
5, 20160, Note_off_c, 2, 69, 63
5, 20160, Note_off_c, 2, 65, 63
5, 20160, Note_off_c, 2, 59, 63
5, 20160, Note_off_c, 2, 55, 63
5, 21120, Note_on_c, 2, 67, 63
5, 21120, Note_on_c, 2, 62, 63
5, 21120, Note_on_c, 2, 58, 63
5, 21120, Note_on_c, 2, 52, 63
5, 21120, Note_on_c, 2, 48, 63
5, 21600, Note_off_c, 2, 67, 63
5, 21600, Note_off_c, 2, 62, 63
5, 21600, Note_off_c, 2, 58, 63
5, 21600, Note_off_c, 2, 52, 63
5, 21600, Note_off_c, 2, 48, 63
5, 22560, Note_on_c, 2, 67, 63
5, 22560, Note_on_c, 2, 62, 63
5, 22560, Note_on_c, 2, 58, 63
5, 22560, Note_on_c, 2, 52, 63
5, 22560, Note_on_c, 2, 48, 63
5, 23040, Note_off_c, 2, 67, 63
5, 23040, Note_off_c, 2, 62, 63
5, 23040, Note_off_c, 2, 58, 63
5, 23040, Note_off_c, 2, 52, 63
5, 23040, Note_off_c, 2, 48, 63
5, 24000, Note_on_c, 2, 67, 63
5, 24000, Note_on_c, 2, 62, 63
5, 24000, Note_on_c, 2, 58, 63
5, 24000, Note_on_c, 2, 52, 63
5, 24000, Note_on_c, 2, 48, 63
5, 24480, Note_off_c, 2, 67, 63
5, 24480, Note_off_c, 2, 62, 63
5, 24480, Note_off_c, 2, 58, 63
5, 24480, Note_off_c, 2, 52, 63
5, 24480, Note_off_c, 2, 48, 63
5, 25440, Note_on_c, 2, 67, 63
5, 25440, Note_on_c, 2, 62, 63
5, 25440, Note_on_c, 2, 58, 63
5, 25440, Note_on_c, 2, 52, 63
5, 25440, Note_on_c, 2, 48, 63
5, 25920, Note_off_c, 2, 67, 63
5, 25920, Note_off_c, 2, 62, 63
5, 25920, Note_off_c, 2, 58, 63
5, 25920, Note_off_c, 2, 52, 63
5, 25920, Note_off_c, 2, 48, 63
5, 26880, Note_on_c, 2, 74, 63
5, 26880, Note_on_c, 2, 69, 63
5, 26880, Note_on_c, 2, 65, 63
5, 26880, Note_on_c, 2, 59, 63
5, 26880, Note_on_c, 2, 55, 63
5, 27360, Note_off_c, 2, 74, 63
5, 27360, Note_off_c, 2, 69, 63
5, 27360, Note_off_c, 2, 65, 63
5, 27360, Note_off_c, 2, 59, 63
5, 27360, Note_off_c, 2, 55, 63
5, 28320, Note_on_c, 2, 74, 63
5, 28320, Note_on_c, 2, 69, 63
5, 28320, Note_on_c, 2, 65, 63
5, 28320, Note_on_c, 2, 59, 63
5, 28320, Note_on_c, 2, 55, 63
5, 28800, Note_off_c, 2, 74, 63
5, 28800, Note_off_c, 2, 69, 63
5, 28800, Note_off_c, 2, 65, 63
5, 28800, Note_off_c, 2, 59, 63
5, 28800, Note_off_c, 2, 55, 63
5, 29760, Note_on_c, 2, 74, 63
5, 29760, Note_on_c, 2, 69, 63
5, 29760, Note_on_c, 2, 65, 63
5, 29760, Note_on_c, 2, 59, 63
5, 29760, Note_on_c, 2, 55, 63
5, 30240, Note_off_c, 2, 74, 63
5, 30240, Note_off_c, 2, 69, 63
5, 30240, Note_off_c, 2, 65, 63
5, 30240, Note_off_c, 2, 59, 63
5, 30240, Note_off_c, 2, 55, 63
5, 31200, Note_on_c, 2, 74, 63
5, 31200, Note_on_c, 2, 69, 63
5, 31200, Note_on_c, 2, 65, 63
5, 31200, Note_on_c, 2, 59, 63
5, 31200, Note_on_c, 2, 55, 63
5, 31680, Note_off_c, 2, 74, 63
5, 31680, Note_off_c, 2, 69, 63
5, 31680, Note_off_c, 2, 65, 63
5, 31680, Note_off_c, 2, 59, 63
5, 31680, Note_off_c, 2, 55, 63
5, 32640, Note_on_c, 2, 74, 63
5, 32640, Note_on_c, 2, 69, 63
5, 32640, Note_on_c, 2, 65, 63
5, 32640, Note_on_c, 2, 59, 63
5, 32640, Note_on_c, 2, 55, 63
5, 33120, Note_off_c, 2, 74, 63
5, 33120, Note_off_c, 2, 69, 63
5, 33120, Note_off_c, 2, 65, 63
5, 33120, Note_off_c, 2, 59, 63
5, 33120, Note_off_c, 2, 55, 63
5, 34080, Note_on_c, 2, 74, 63
5, 34080, Note_on_c, 2, 69, 63
5, 34080, Note_on_c, 2, 65, 63
5, 34080, Note_on_c, 2, 59, 63
5, 34080, Note_on_c, 2, 55, 63
5, 34560, Note_off_c, 2, 74, 63
5, 34560, Note_off_c, 2, 69, 63
5, 34560, Note_off_c, 2, 65, 63
5, 34560, Note_off_c, 2, 59, 63
5, 34560, Note_off_c, 2, 55, 63
5, 35520, Note_on_c, 2, 74, 63
5, 35520, Note_on_c, 2, 69, 63
5, 35520, Note_on_c, 2, 65, 63
5, 35520, Note_on_c, 2, 59, 63
5, 35520, Note_on_c, 2, 55, 63
5, 36000, Note_off_c, 2, 74, 63
5, 36000, Note_off_c, 2, 69, 63
5, 36000, Note_off_c, 2, 65, 63
5, 36000, Note_off_c, 2, 59, 63
5, 36000, Note_off_c, 2, 55, 63
5, 36960, Note_on_c, 2, 74, 63
5, 36960, Note_on_c, 2, 69, 63
5, 36960, Note_on_c, 2, 65, 63
5, 36960, Note_on_c, 2, 59, 63
5, 36960, Note_on_c, 2, 55, 63
5, 37440, Note_off_c, 2, 74, 63
5, 37440, Note_off_c, 2, 69, 63
5, 37440, Note_off_c, 2, 65, 63
5, 37440, Note_off_c, 2, 59, 63
5, 37440, Note_off_c, 2, 55, 63
5, 38400, Note_on_c, 2, 67, 63
5, 38400, Note_on_c, 2, 62, 63
5, 38400, Note_on_c, 2, 58, 63
5, 38400, Note_on_c, 2, 52, 63
5, 38400, Note_on_c, 2, 48, 63
5, 38880, Note_off_c, 2, 67, 63
5, 38880, Note_off_c, 2, 62, 63
5, 38880, Note_off_c, 2, 58, 63
5, 38880, Note_off_c, 2, 52, 63
5, 38880, Note_off_c, 2, 48, 63
5, 39840, Note_on_c, 2, 67, 63
5, 39840, Note_on_c, 2, 62, 63
5, 39840, Note_on_c, 2, 58, 63
5, 39840, Note_on_c, 2, 52, 63
5, 39840, Note_on_c, 2, 48, 63
5, 40320, Note_off_c, 2, 67, 63
5, 40320, Note_off_c, 2, 62, 63
5, 40320, Note_off_c, 2, 58, 63
5, 40320, Note_off_c, 2, 52, 63
5, 40320, Note_off_c, 2, 48, 63
5, 41280, Note_on_c, 2, 67, 63
5, 41280, Note_on_c, 2, 62, 63
5, 41280, Note_on_c, 2, 58, 63
5, 41280, Note_on_c, 2, 52, 63
5, 41280, Note_on_c, 2, 48, 63
5, 41760, Note_off_c, 2, 67, 63
5, 41760, Note_off_c, 2, 62, 63
5, 41760, Note_off_c, 2, 58, 63
5, 41760, Note_off_c, 2, 52, 63
5, 41760, Note_off_c, 2, 48, 63
5, 42720, Note_on_c, 2, 67, 63
5, 42720, Note_on_c, 2, 62, 63
5, 42720, Note_on_c, 2, 58, 63
5, 42720, Note_on_c, 2, 52, 63
5, 42720, Note_on_c, 2, 48, 63
5, 43200, Note_off_c, 2, 67, 63
5, 43200, Note_off_c, 2, 62, 63
5, 43200, Note_off_c, 2, 58, 63
5, 43200, Note_off_c, 2, 52, 63
5, 43200, Note_off_c, 2, 48, 63
5, 44160, Note_on_c, 2, 67, 63
5, 44160, Note_on_c, 2, 62, 63
5, 44160, Note_on_c, 2, 58, 63
5, 44160, Note_on_c, 2, 52, 63
5, 44160, Note_on_c, 2, 48, 63
5, 44640, Note_off_c, 2, 67, 63
5, 44640, Note_off_c, 2, 62, 63
5, 44640, Note_off_c, 2, 58, 63
5, 44640, Note_off_c, 2, 52, 63
5, 44640, Note_off_c, 2, 48, 63
5, 45600, Note_on_c, 2, 67, 63
5, 45600, Note_on_c, 2, 62, 63
5, 45600, Note_on_c, 2, 58, 63
5, 45600, Note_on_c, 2, 52, 63
5, 45600, Note_on_c, 2, 48, 63
5, 46080, Note_off_c, 2, 67, 63
5, 46080, Note_off_c, 2, 62, 63
5, 46080, Note_off_c, 2, 58, 63
5, 46080, Note_off_c, 2, 52, 63
5, 46080, Note_off_c, 2, 48, 63
5, 47040, Note_on_c, 2, 67, 63
5, 47040, Note_on_c, 2, 62, 63
5, 47040, Note_on_c, 2, 58, 63
5, 47040, Note_on_c, 2, 52, 63
5, 47040, Note_on_c, 2, 48, 63
5, 47520, Note_off_c, 2, 67, 63
5, 47520, Note_off_c, 2, 62, 63
5, 47520, Note_off_c, 2, 58, 63
5, 47520, Note_off_c, 2, 52, 63
5, 47520, Note_off_c, 2, 48, 63
5, 48480, Note_on_c, 2, 67, 63
5, 48480, Note_on_c, 2, 62, 63
5, 48480, Note_on_c, 2, 58, 63
5, 48480, Note_on_c, 2, 52, 63
5, 48480, Note_on_c, 2, 48, 63
5, 48960, Note_off_c, 2, 67, 63
5, 48960, Note_off_c, 2, 62, 63
5, 48960, Note_off_c, 2, 58, 63
5, 48960, Note_off_c, 2, 52, 63
5, 48960, Note_off_c, 2, 48, 63
5, 49920, Note_on_c, 2, 74, 63
5, 49920, Note_on_c, 2, 69, 63
5, 49920, Note_on_c, 2, 65, 63
5, 49920, Note_on_c, 2, 59, 63
5, 49920, Note_on_c, 2, 55, 63
5, 50400, Note_off_c, 2, 74, 63
5, 50400, Note_off_c, 2, 69, 63
5, 50400, Note_off_c, 2, 65, 63
5, 50400, Note_off_c, 2, 59, 63
5, 50400, Note_off_c, 2, 55, 63
5, 51360, Note_on_c, 2, 74, 63
5, 51360, Note_on_c, 2, 69, 63
5, 51360, Note_on_c, 2, 65, 63
5, 51360, Note_on_c, 2, 59, 63
5, 51360, Note_on_c, 2, 55, 63
5, 51840, Note_off_c, 2, 74, 63
5, 51840, Note_off_c, 2, 69, 63
5, 51840, Note_off_c, 2, 65, 63
5, 51840, Note_off_c, 2, 59, 63
5, 51840, Note_off_c, 2, 55, 63
5, 52800, Note_on_c, 2, 74, 63
5, 52800, Note_on_c, 2, 69, 63
5, 52800, Note_on_c, 2, 65, 63
5, 52800, Note_on_c, 2, 59, 63
5, 52800, Note_on_c, 2, 55, 63
5, 53280, Note_off_c, 2, 74, 63
5, 53280, Note_off_c, 2, 69, 63
5, 53280, Note_off_c, 2, 65, 63
5, 53280, Note_off_c, 2, 59, 63
5, 53280, Note_off_c, 2, 55, 63
5, 54240, Note_on_c, 2, 74, 63
5, 54240, Note_on_c, 2, 69, 63
5, 54240, Note_on_c, 2, 65, 63
5, 54240, Note_on_c, 2, 59, 63
5, 54240, Note_on_c, 2, 55, 63
5, 54720, Note_off_c, 2, 74, 63
5, 54720, Note_off_c, 2, 69, 63
5, 54720, Note_off_c, 2, 65, 63
5, 54720, Note_off_c, 2, 59, 63
5, 54720, Note_off_c, 2, 55, 63
5, 55680, Note_on_c, 2, 74, 63
5, 55680, Note_on_c, 2, 69, 63
5, 55680, Note_on_c, 2, 65, 63
5, 55680, Note_on_c, 2, 59, 63
5, 55680, Note_on_c, 2, 55, 63
5, 56160, Note_off_c, 2, 74, 63
5, 56160, Note_off_c, 2, 69, 63
5, 56160, Note_off_c, 2, 65, 63
5, 56160, Note_off_c, 2, 59, 63
5, 56160, Note_off_c, 2, 55, 63
5, 57120, Note_on_c, 2, 74, 63
5, 57120, Note_on_c, 2, 69, 63
5, 57120, Note_on_c, 2, 65, 63
5, 57120, Note_on_c, 2, 59, 63
5, 57120, Note_on_c, 2, 55, 63
5, 57600, Note_off_c, 2, 74, 63
5, 57600, Note_off_c, 2, 69, 63
5, 57600, Note_off_c, 2, 65, 63
5, 57600, Note_off_c, 2, 59, 63
5, 57600, Note_off_c, 2, 55, 63
5, 58560, Note_on_c, 2, 74, 63
5, 58560, Note_on_c, 2, 69, 63
5, 58560, Note_on_c, 2, 65, 63
5, 58560, Note_on_c, 2, 59, 63
5, 58560, Note_on_c, 2, 55, 63
5, 59040, Note_off_c, 2, 74, 63
5, 59040, Note_off_c, 2, 69, 63
5, 59040, Note_off_c, 2, 65, 63
5, 59040, Note_off_c, 2, 59, 63
5, 59040, Note_off_c, 2, 55, 63
5, 60000, Note_on_c, 2, 74, 63
5, 60000, Note_on_c, 2, 69, 63
5, 60000, Note_on_c, 2, 65, 63
5, 60000, Note_on_c, 2, 59, 63
5, 60000, Note_on_c, 2, 55, 63
5, 60480, Note_off_c, 2, 74, 63
5, 60480, Note_off_c, 2, 69, 63
5, 60480, Note_off_c, 2, 65, 63
5, 60480, Note_off_c, 2, 59, 63
5, 60480, Note_off_c, 2, 55, 63
5, 61440, Note_on_c, 2, 69, 63
5, 61440, Note_on_c, 2, 64, 63
5, 61440, Note_on_c, 2, 60, 63
5, 61440, Note_on_c, 2, 54, 63
5, 61440, Note_on_c, 2, 50, 63
5, 61920, Note_off_c, 2, 69, 63
5, 61920, Note_off_c, 2, 64, 63
5, 61920, Note_off_c, 2, 60, 63
5, 61920, Note_off_c, 2, 54, 63
5, 61920, Note_off_c, 2, 50, 63
5, 62880, Note_on_c, 2, 69, 63
5, 62880, Note_on_c, 2, 64, 63
5, 62880, Note_on_c, 2, 60, 63
5, 62880, Note_on_c, 2, 54, 63
5, 62880, Note_on_c, 2, 50, 63
5, 63360, Note_off_c, 2, 69, 63
5, 63360, Note_off_c, 2, 64, 63
5, 63360, Note_off_c, 2, 60, 63
5, 63360, Note_off_c, 2, 54, 63
5, 63360, Note_off_c, 2, 50, 63
5, 64320, Note_on_c, 2, 69, 63
5, 64320, Note_on_c, 2, 64, 63
5, 64320, Note_on_c, 2, 60, 63
5, 64320, Note_on_c, 2, 54, 63
5, 64320, Note_on_c, 2, 50, 63
5, 64800, Note_off_c, 2, 69, 63
5, 64800, Note_off_c, 2, 64, 63
5, 64800, Note_off_c, 2, 60, 63
5, 64800, Note_off_c, 2, 54, 63
5, 64800, Note_off_c, 2, 50, 63
5, 65760, Note_on_c, 2, 69, 63
5, 65760, Note_on_c, 2, 64, 63
5, 65760, Note_on_c, 2, 60, 63
5, 65760, Note_on_c, 2, 54, 63
5, 65760, Note_on_c, 2, 50, 63
5, 66240, Note_off_c, 2, 69, 63
5, 66240, Note_off_c, 2, 64, 63
5, 66240, Note_off_c, 2, 60, 63
5, 66240, Note_off_c, 2, 54, 63
5, 66240, Note_off_c, 2, 50, 63
5, 67200, Note_on_c, 2, 67, 63
5, 67200, Note_on_c, 2, 62, 63
5, 67200, Note_on_c, 2, 58, 63
5, 67200, Note_on_c, 2, 52, 63
5, 67200, Note_on_c, 2, 48, 63
5, 67680, Note_off_c, 2, 67, 63
5, 67680, Note_off_c, 2, 62, 63
5, 67680, Note_off_c, 2, 58, 63
5, 67680, Note_off_c, 2, 52, 63
5, 67680, Note_off_c, 2, 48, 63
5, 68640, Note_on_c, 2, 67, 63
5, 68640, Note_on_c, 2, 62, 63
5, 68640, Note_on_c, 2, 58, 63
5, 68640, Note_on_c, 2, 52, 63
5, 68640, Note_on_c, 2, 48, 63
5, 69120, Note_off_c, 2, 67, 63
5, 69120, Note_off_c, 2, 62, 63
5, 69120, Note_off_c, 2, 58, 63
5, 69120, Note_off_c, 2, 52, 63
5, 69120, Note_off_c, 2, 48, 63
5, 70080, Note_on_c, 2, 67, 63
5, 70080, Note_on_c, 2, 62, 63
5, 70080, Note_on_c, 2, 58, 63
5, 70080, Note_on_c, 2, 52, 63
5, 70080, Note_on_c, 2, 48, 63
5, 70560, Note_off_c, 2, 67, 63
5, 70560, Note_off_c, 2, 62, 63
5, 70560, Note_off_c, 2, 58, 63
5, 70560, Note_off_c, 2, 52, 63
5, 70560, Note_off_c, 2, 48, 63
5, 71520, Note_on_c, 2, 67, 63
5, 71520, Note_on_c, 2, 62, 63
5, 71520, Note_on_c, 2, 58, 63
5, 71520, Note_on_c, 2, 52, 63
5, 71520, Note_on_c, 2, 48, 63
5, 72000, Note_off_c, 2, 67, 63
5, 72000, Note_off_c, 2, 62, 63
5, 72000, Note_off_c, 2, 58, 63
5, 72000, Note_off_c, 2, 52, 63
5, 72000, Note_off_c, 2, 48, 63
5, 72960, Note_on_c, 2, 74, 63
5, 72960, Note_on_c, 2, 69, 63
5, 72960, Note_on_c, 2, 65, 63
5, 72960, Note_on_c, 2, 59, 63
5, 72960, Note_on_c, 2, 55, 63
5, 73440, Note_off_c, 2, 74, 63
5, 73440, Note_off_c, 2, 69, 63
5, 73440, Note_off_c, 2, 65, 63
5, 73440, Note_off_c, 2, 59, 63
5, 73440, Note_off_c, 2, 55, 63
5, 74400, Note_on_c, 2, 74, 63
5, 74400, Note_on_c, 2, 69, 63
5, 74400, Note_on_c, 2, 65, 63
5, 74400, Note_on_c, 2, 59, 63
5, 74400, Note_on_c, 2, 55, 63
5, 74880, Note_off_c, 2, 74, 63
5, 74880, Note_off_c, 2, 69, 63
5, 74880, Note_off_c, 2, 65, 63
5, 74880, Note_off_c, 2, 59, 63
5, 74880, Note_off_c, 2, 55, 63
5, 75840, Note_on_c, 2, 74, 63
5, 75840, Note_on_c, 2, 69, 63
5, 75840, Note_on_c, 2, 65, 63
5, 75840, Note_on_c, 2, 59, 63
5, 75840, Note_on_c, 2, 55, 63
5, 76320, Note_off_c, 2, 74, 63
5, 76320, Note_off_c, 2, 69, 63
5, 76320, Note_off_c, 2, 65, 63
5, 76320, Note_off_c, 2, 59, 63
5, 76320, Note_off_c, 2, 55, 63
5, 77280, Note_on_c, 2, 74, 63
5, 77280, Note_on_c, 2, 69, 63
5, 77280, Note_on_c, 2, 65, 63
5, 77280, Note_on_c, 2, 59, 63
5, 77280, Note_on_c, 2, 55, 63
5, 77760, Note_off_c, 2, 74, 63
5, 77760, Note_off_c, 2, 69, 63
5, 77760, Note_off_c, 2, 65, 63
5, 77760, Note_off_c, 2, 59, 63
5, 77760, Note_off_c, 2, 55, 63
5, 78720, Note_on_c, 2, 74, 63
5, 78720, Note_on_c, 2, 69, 63
5, 78720, Note_on_c, 2, 65, 63
5, 78720, Note_on_c, 2, 59, 63
5, 78720, Note_on_c, 2, 55, 63
5, 79200, Note_off_c, 2, 74, 63
5, 79200, Note_off_c, 2, 69, 63
5, 79200, Note_off_c, 2, 65, 63
5, 79200, Note_off_c, 2, 59, 63
5, 79200, Note_off_c, 2, 55, 63
5, 80160, Note_on_c, 2, 74, 63
5, 80160, Note_on_c, 2, 69, 63
5, 80160, Note_on_c, 2, 65, 63
5, 80160, Note_on_c, 2, 59, 63
5, 80160, Note_on_c, 2, 55, 63
5, 80640, Note_off_c, 2, 74, 63
5, 80640, Note_off_c, 2, 69, 63
5, 80640, Note_off_c, 2, 65, 63
5, 80640, Note_off_c, 2, 59, 63
5, 80640, Note_off_c, 2, 55, 63
5, 81600, Note_on_c, 2, 74, 63
5, 81600, Note_on_c, 2, 69, 63
5, 81600, Note_on_c, 2, 65, 63
5, 81600, Note_on_c, 2, 59, 63
5, 81600, Note_on_c, 2, 55, 63
5, 82080, Note_off_c, 2, 74, 63
5, 82080, Note_off_c, 2, 69, 63
5, 82080, Note_off_c, 2, 65, 63
5, 82080, Note_off_c, 2, 59, 63
5, 82080, Note_off_c, 2, 55, 63
5, 83040, Note_on_c, 2, 74, 63
5, 83040, Note_on_c, 2, 69, 63
5, 83040, Note_on_c, 2, 65, 63
5, 83040, Note_on_c, 2, 59, 63
5, 83040, Note_on_c, 2, 55, 63
5, 83520, Note_off_c, 2, 74, 63
5, 83520, Note_off_c, 2, 69, 63
5, 83520, Note_off_c, 2, 65, 63
5, 83520, Note_off_c, 2, 59, 63
5, 83520, Note_off_c, 2, 55, 63
5, 84480, Note_on_c, 2, 74, 63
5, 84480, Note_on_c, 2, 69, 63
5, 84480, Note_on_c, 2, 65, 63
5, 84480, Note_on_c, 2, 59, 63
5, 84480, Note_on_c, 2, 55, 63
5, 84960, Note_off_c, 2, 74, 63
5, 84960, Note_off_c, 2, 69, 63
5, 84960, Note_off_c, 2, 65, 63
5, 84960, Note_off_c, 2, 59, 63
5, 84960, Note_off_c, 2, 55, 63
5, 85920, Note_on_c, 2, 74, 63
5, 85920, Note_on_c, 2, 69, 63
5, 85920, Note_on_c, 2, 65, 63
5, 85920, Note_on_c, 2, 59, 63
5, 85920, Note_on_c, 2, 55, 63
5, 86400, Note_off_c, 2, 74, 63
5, 86400, Note_off_c, 2, 69, 63
5, 86400, Note_off_c, 2, 65, 63
5, 86400, Note_off_c, 2, 59, 63
5, 86400, Note_off_c, 2, 55, 63
5, 87360, Note_on_c, 2, 74, 63
5, 87360, Note_on_c, 2, 69, 63
5, 87360, Note_on_c, 2, 65, 63
5, 87360, Note_on_c, 2, 59, 63
5, 87360, Note_on_c, 2, 55, 63
5, 87840, Note_off_c, 2, 74, 63
5, 87840, Note_off_c, 2, 69, 63
5, 87840, Note_off_c, 2, 65, 63
5, 87840, Note_off_c, 2, 59, 63
5, 87840, Note_off_c, 2, 55, 63
5, 88800, Note_on_c, 2, 74, 63
5, 88800, Note_on_c, 2, 69, 63
5, 88800, Note_on_c, 2, 65, 63
5, 88800, Note_on_c, 2, 59, 63
5, 88800, Note_on_c, 2, 55, 63
5, 89280, Note_off_c, 2, 74, 63
5, 89280, Note_off_c, 2, 69, 63
5, 89280, Note_off_c, 2, 65, 63
5, 89280, Note_off_c, 2, 59, 63
5, 89280, Note_off_c, 2, 55, 63
5, 90240, Note_on_c, 2, 67, 63
5, 90240, Note_on_c, 2, 62, 63
5, 90240, Note_on_c, 2, 58, 63
5, 90240, Note_on_c, 2, 52, 63
5, 90240, Note_on_c, 2, 48, 63
5, 90720, Note_off_c, 2, 67, 63
5, 90720, Note_off_c, 2, 62, 63
5, 90720, Note_off_c, 2, 58, 63
5, 90720, Note_off_c, 2, 52, 63
5, 90720, Note_off_c, 2, 48, 63
5, 91680, Note_on_c, 2, 67, 63
5, 91680, Note_on_c, 2, 62, 63
5, 91680, Note_on_c, 2, 58, 63
5, 91680, Note_on_c, 2, 52, 63
5, 91680, Note_on_c, 2, 48, 63
5, 92160, Note_off_c, 2, 67, 63
5, 92160, Note_off_c, 2, 62, 63
5, 92160, Note_off_c, 2, 58, 63
5, 92160, Note_off_c, 2, 52, 63
5, 92160, Note_off_c, 2, 48, 63
5, 93120, Note_on_c, 2, 67, 63
5, 93120, Note_on_c, 2, 62, 63
5, 93120, Note_on_c, 2, 58, 63
5, 93120, Note_on_c, 2, 52, 63
5, 93120, Note_on_c, 2, 48, 63
5, 93600, Note_off_c, 2, 67, 63
5, 93600, Note_off_c, 2, 62, 63
5, 93600, Note_off_c, 2, 58, 63
5, 93600, Note_off_c, 2, 52, 63
5, 93600, Note_off_c, 2, 48, 63
5, 94560, Note_on_c, 2, 67, 63
5, 94560, Note_on_c, 2, 62, 63
5, 94560, Note_on_c, 2, 58, 63
5, 94560, Note_on_c, 2, 52, 63
5, 94560, Note_on_c, 2, 48, 63
5, 95040, Note_off_c, 2, 67, 63
5, 95040, Note_off_c, 2, 62, 63
5, 95040, Note_off_c, 2, 58, 63
5, 95040, Note_off_c, 2, 52, 63
5, 95040, Note_off_c, 2, 48, 63
5, 96000, Note_on_c, 2, 74, 63
5, 96000, Note_on_c, 2, 69, 63
5, 96000, Note_on_c, 2, 65, 63
5, 96000, Note_on_c, 2, 59, 63
5, 96000, Note_on_c, 2, 55, 63
5, 96480, Note_off_c, 2, 74, 63
5, 96480, Note_off_c, 2, 69, 63
5, 96480, Note_off_c, 2, 65, 63
5, 96480, Note_off_c, 2, 59, 63
5, 96480, Note_off_c, 2, 55, 63
5, 97440, Note_on_c, 2, 74, 63
5, 97440, Note_on_c, 2, 69, 63
5, 97440, Note_on_c, 2, 65, 63
5, 97440, Note_on_c, 2, 59, 63
5, 97440, Note_on_c, 2, 55, 63
5, 97920, Note_off_c, 2, 74, 63
5, 97920, Note_off_c, 2, 69, 63
5, 97920, Note_off_c, 2, 65, 63
5, 97920, Note_off_c, 2, 59, 63
5, 97920, Note_off_c, 2, 55, 63
5, 98880, Note_on_c, 2, 74, 63
5, 98880, Note_on_c, 2, 69, 63
5, 98880, Note_on_c, 2, 65, 63
5, 98880, Note_on_c, 2, 59, 63
5, 98880, Note_on_c, 2, 55, 63
5, 99360, Note_off_c, 2, 74, 63
5, 99360, Note_off_c, 2, 69, 63
5, 99360, Note_off_c, 2, 65, 63
5, 99360, Note_off_c, 2, 59, 63
5, 99360, Note_off_c, 2, 55, 63
5, 100320, Note_on_c, 2, 74, 63
5, 100320, Note_on_c, 2, 69, 63
5, 100320, Note_on_c, 2, 65, 63
5, 100320, Note_on_c, 2, 59, 63
5, 100320, Note_on_c, 2, 55, 63
5, 100800, Note_off_c, 2, 74, 63
5, 100800, Note_off_c, 2, 69, 63
5, 100800, Note_off_c, 2, 65, 63
5, 100800, Note_off_c, 2, 59, 63
5, 100800, Note_off_c, 2, 55, 63
5, 101760, Note_on_c, 2, 74, 63
5, 101760, Note_on_c, 2, 69, 63
5, 101760, Note_on_c, 2, 65, 63
5, 101760, Note_on_c, 2, 59, 63
5, 101760, Note_on_c, 2, 55, 63
5, 102240, Note_off_c, 2, 74, 63
5, 102240, Note_off_c, 2, 69, 63
5, 102240, Note_off_c, 2, 65, 63
5, 102240, Note_off_c, 2, 59, 63
5, 102240, Note_off_c, 2, 55, 63
5, 103200, Note_on_c, 2, 74, 63
5, 103200, Note_on_c, 2, 69, 63
5, 103200, Note_on_c, 2, 65, 63
5, 103200, Note_on_c, 2, 59, 63
5, 103200, Note_on_c, 2, 55, 63
5, 103680, Note_off_c, 2, 74, 63
5, 103680, Note_off_c, 2, 69, 63
5, 103680, Note_off_c, 2, 65, 63
5, 103680, Note_off_c, 2, 59, 63
5, 103680, Note_off_c, 2, 55, 63
5, 104640, Note_on_c, 2, 74, 63
5, 104640, Note_on_c, 2, 69, 63
5, 104640, Note_on_c, 2, 65, 63
5, 104640, Note_on_c, 2, 59, 63
5, 104640, Note_on_c, 2, 55, 63
5, 105120, Note_off_c, 2, 74, 63
5, 105120, Note_off_c, 2, 69, 63
5, 105120, Note_off_c, 2, 65, 63
5, 105120, Note_off_c, 2, 59, 63
5, 105120, Note_off_c, 2, 55, 63
5, 106080, Note_on_c, 2, 74, 63
5, 106080, Note_on_c, 2, 69, 63
5, 106080, Note_on_c, 2, 65, 63
5, 106080, Note_on_c, 2, 59, 63
5, 106080, Note_on_c, 2, 55, 63
5, 106560, Note_off_c, 2, 74, 63
5, 106560, Note_off_c, 2, 69, 63
5, 106560, Note_off_c, 2, 65, 63
5, 106560, Note_off_c, 2, 59, 63
5, 106560, Note_off_c, 2, 55, 63
5, 107520, Note_on_c, 2, 67, 63
5, 107520, Note_on_c, 2, 62, 63
5, 107520, Note_on_c, 2, 58, 63
5, 107520, Note_on_c, 2, 52, 63
5, 107520, Note_on_c, 2, 48, 63
5, 108000, Note_off_c, 2, 67, 63
5, 108000, Note_off_c, 2, 62, 63
5, 108000, Note_off_c, 2, 58, 63
5, 108000, Note_off_c, 2, 52, 63
5, 108000, Note_off_c, 2, 48, 63
5, 108960, Note_on_c, 2, 67, 63
5, 108960, Note_on_c, 2, 62, 63
5, 108960, Note_on_c, 2, 58, 63
5, 108960, Note_on_c, 2, 52, 63
5, 108960, Note_on_c, 2, 48, 63
5, 109440, Note_off_c, 2, 67, 63
5, 109440, Note_off_c, 2, 62, 63
5, 109440, Note_off_c, 2, 58, 63
5, 109440, Note_off_c, 2, 52, 63
5, 109440, Note_off_c, 2, 48, 63
5, 110400, Note_on_c, 2, 67, 63
5, 110400, Note_on_c, 2, 62, 63
5, 110400, Note_on_c, 2, 58, 63
5, 110400, Note_on_c, 2, 52, 63
5, 110400, Note_on_c, 2, 48, 63
5, 110880, Note_off_c, 2, 67, 63
5, 110880, Note_off_c, 2, 62, 63
5, 110880, Note_off_c, 2, 58, 63
5, 110880, Note_off_c, 2, 52, 63
5, 110880, Note_off_c, 2, 48, 63
5, 111840, Note_on_c, 2, 67, 63
5, 111840, Note_on_c, 2, 62, 63
5, 111840, Note_on_c, 2, 58, 63
5, 111840, Note_on_c, 2, 52, 63
5, 111840, Note_on_c, 2, 48, 63
5, 112320, Note_off_c, 2, 67, 63
5, 112320, Note_off_c, 2, 62, 63
5, 112320, Note_off_c, 2, 58, 63
5, 112320, Note_off_c, 2, 52, 63
5, 112320, Note_off_c, 2, 48, 63
5, 113280, Note_on_c, 2, 67, 63
5, 113280, Note_on_c, 2, 62, 63
5, 113280, Note_on_c, 2, 58, 63
5, 113280, Note_on_c, 2, 52, 63
5, 113280, Note_on_c, 2, 48, 63
5, 113760, Note_off_c, 2, 67, 63
5, 113760, Note_off_c, 2, 62, 63
5, 113760, Note_off_c, 2, 58, 63
5, 113760, Note_off_c, 2, 52, 63
5, 113760, Note_off_c, 2, 48, 63
5, 114720, Note_on_c, 2, 67, 63
5, 114720, Note_on_c, 2, 62, 63
5, 114720, Note_on_c, 2, 58, 63
5, 114720, Note_on_c, 2, 52, 63
5, 114720, Note_on_c, 2, 48, 63
5, 115200, Note_off_c, 2, 67, 63
5, 115200, Note_off_c, 2, 62, 63
5, 115200, Note_off_c, 2, 58, 63
5, 115200, Note_off_c, 2, 52, 63
5, 115200, Note_off_c, 2, 48, 63
5, 116160, Note_on_c, 2, 67, 63
5, 116160, Note_on_c, 2, 62, 63
5, 116160, Note_on_c, 2, 58, 63
5, 116160, Note_on_c, 2, 52, 63
5, 116160, Note_on_c, 2, 48, 63
5, 116640, Note_off_c, 2, 67, 63
5, 116640, Note_off_c, 2, 62, 63
5, 116640, Note_off_c, 2, 58, 63
5, 116640, Note_off_c, 2, 52, 63
5, 116640, Note_off_c, 2, 48, 63
5, 117600, Note_on_c, 2, 67, 63
5, 117600, Note_on_c, 2, 62, 63
5, 117600, Note_on_c, 2, 58, 63
5, 117600, Note_on_c, 2, 52, 63
5, 117600, Note_on_c, 2, 48, 63
5, 118080, Note_off_c, 2, 67, 63
5, 118080, Note_off_c, 2, 62, 63
5, 118080, Note_off_c, 2, 58, 63
5, 118080, Note_off_c, 2, 52, 63
5, 118080, Note_off_c, 2, 48, 63
5, 119040, Note_on_c, 2, 74, 63
5, 119040, Note_on_c, 2, 69, 63
5, 119040, Note_on_c, 2, 65, 63
5, 119040, Note_on_c, 2, 59, 63
5, 119040, Note_on_c, 2, 55, 63
5, 119520, Note_off_c, 2, 74, 63
5, 119520, Note_off_c, 2, 69, 63
5, 119520, Note_off_c, 2, 65, 63
5, 119520, Note_off_c, 2, 59, 63
5, 119520, Note_off_c, 2, 55, 63
5, 120480, Note_on_c, 2, 74, 63
5, 120480, Note_on_c, 2, 69, 63
5, 120480, Note_on_c, 2, 65, 63
5, 120480, Note_on_c, 2, 59, 63
5, 120480, Note_on_c, 2, 55, 63
5, 120960, Note_off_c, 2, 74, 63
5, 120960, Note_off_c, 2, 69, 63
5, 120960, Note_off_c, 2, 65, 63
5, 120960, Note_off_c, 2, 59, 63
5, 120960, Note_off_c, 2, 55, 63
5, 121920, Note_on_c, 2, 74, 63
5, 121920, Note_on_c, 2, 69, 63
5, 121920, Note_on_c, 2, 65, 63
5, 121920, Note_on_c, 2, 59, 63
5, 121920, Note_on_c, 2, 55, 63
5, 122400, Note_off_c, 2, 74, 63
5, 122400, Note_off_c, 2, 69, 63
5, 122400, Note_off_c, 2, 65, 63
5, 122400, Note_off_c, 2, 59, 63
5, 122400, Note_off_c, 2, 55, 63
5, 123360, Note_on_c, 2, 74, 63
5, 123360, Note_on_c, 2, 69, 63
5, 123360, Note_on_c, 2, 65, 63
5, 123360, Note_on_c, 2, 59, 63
5, 123360, Note_on_c, 2, 55, 63
5, 123840, Note_off_c, 2, 74, 63
5, 123840, Note_off_c, 2, 69, 63
5, 123840, Note_off_c, 2, 65, 63
5, 123840, Note_off_c, 2, 59, 63
5, 123840, Note_off_c, 2, 55, 63
5, 124800, Note_on_c, 2, 74, 63
5, 124800, Note_on_c, 2, 69, 63
5, 124800, Note_on_c, 2, 65, 63
5, 124800, Note_on_c, 2, 59, 63
5, 124800, Note_on_c, 2, 55, 63
5, 125280, Note_off_c, 2, 74, 63
5, 125280, Note_off_c, 2, 69, 63
5, 125280, Note_off_c, 2, 65, 63
5, 125280, Note_off_c, 2, 59, 63
5, 125280, Note_off_c, 2, 55, 63
5, 126240, Note_on_c, 2, 74, 63
5, 126240, Note_on_c, 2, 69, 63
5, 126240, Note_on_c, 2, 65, 63
5, 126240, Note_on_c, 2, 59, 63
5, 126240, Note_on_c, 2, 55, 63
5, 126720, Note_off_c, 2, 74, 63
5, 126720, Note_off_c, 2, 69, 63
5, 126720, Note_off_c, 2, 65, 63
5, 126720, Note_off_c, 2, 59, 63
5, 126720, Note_off_c, 2, 55, 63
5, 127680, Note_on_c, 2, 74, 63
5, 127680, Note_on_c, 2, 69, 63
5, 127680, Note_on_c, 2, 65, 63
5, 127680, Note_on_c, 2, 59, 63
5, 127680, Note_on_c, 2, 55, 63
5, 128160, Note_off_c, 2, 74, 63
5, 128160, Note_off_c, 2, 69, 63
5, 128160, Note_off_c, 2, 65, 63
5, 128160, Note_off_c, 2, 59, 63
5, 128160, Note_off_c, 2, 55, 63
5, 129120, Note_on_c, 2, 74, 63
5, 129120, Note_on_c, 2, 69, 63
5, 129120, Note_on_c, 2, 65, 63
5, 129120, Note_on_c, 2, 59, 63
5, 129120, Note_on_c, 2, 55, 63
5, 129600, Note_off_c, 2, 74, 63
5, 129600, Note_off_c, 2, 69, 63
5, 129600, Note_off_c, 2, 65, 63
5, 129600, Note_off_c, 2, 59, 63
5, 129600, Note_off_c, 2, 55, 63
5, 130560, Note_on_c, 2, 69, 63
5, 130560, Note_on_c, 2, 64, 63
5, 130560, Note_on_c, 2, 60, 63
5, 130560, Note_on_c, 2, 54, 63
5, 130560, Note_on_c, 2, 50, 63
5, 131040, Note_off_c, 2, 69, 63
5, 131040, Note_off_c, 2, 64, 63
5, 131040, Note_off_c, 2, 60, 63
5, 131040, Note_off_c, 2, 54, 63
5, 131040, Note_off_c, 2, 50, 63
5, 132000, Note_on_c, 2, 69, 63
5, 132000, Note_on_c, 2, 64, 63
5, 132000, Note_on_c, 2, 60, 63
5, 132000, Note_on_c, 2, 54, 63
5, 132000, Note_on_c, 2, 50, 63
5, 132480, Note_off_c, 2, 69, 63
5, 132480, Note_off_c, 2, 64, 63
5, 132480, Note_off_c, 2, 60, 63
5, 132480, Note_off_c, 2, 54, 63
5, 132480, Note_off_c, 2, 50, 63
5, 133440, Note_on_c, 2, 69, 63
5, 133440, Note_on_c, 2, 64, 63
5, 133440, Note_on_c, 2, 60, 63
5, 133440, Note_on_c, 2, 54, 63
5, 133440, Note_on_c, 2, 50, 63
5, 133920, Note_off_c, 2, 69, 63
5, 133920, Note_off_c, 2, 64, 63
5, 133920, Note_off_c, 2, 60, 63
5, 133920, Note_off_c, 2, 54, 63
5, 133920, Note_off_c, 2, 50, 63
5, 134880, Note_on_c, 2, 69, 63
5, 134880, Note_on_c, 2, 64, 63
5, 134880, Note_on_c, 2, 60, 63
5, 134880, Note_on_c, 2, 54, 63
5, 134880, Note_on_c, 2, 50, 63
5, 135360, Note_off_c, 2, 69, 63
5, 135360, Note_off_c, 2, 64, 63
5, 135360, Note_off_c, 2, 60, 63
5, 135360, Note_off_c, 2, 54, 63
5, 135360, Note_off_c, 2, 50, 63
5, 136320, Note_on_c, 2, 67, 63
5, 136320, Note_on_c, 2, 62, 63
5, 136320, Note_on_c, 2, 58, 63
5, 136320, Note_on_c, 2, 52, 63
5, 136320, Note_on_c, 2, 48, 63
5, 136800, Note_off_c, 2, 67, 63
5, 136800, Note_off_c, 2, 62, 63
5, 136800, Note_off_c, 2, 58, 63
5, 136800, Note_off_c, 2, 52, 63
5, 136800, Note_off_c, 2, 48, 63
5, 137760, Note_on_c, 2, 67, 63
5, 137760, Note_on_c, 2, 62, 63
5, 137760, Note_on_c, 2, 58, 63
5, 137760, Note_on_c, 2, 52, 63
5, 137760, Note_on_c, 2, 48, 63
5, 138240, Note_off_c, 2, 67, 63
5, 138240, Note_off_c, 2, 62, 63
5, 138240, Note_off_c, 2, 58, 63
5, 138240, Note_off_c, 2, 52, 63
5, 138240, Note_off_c, 2, 48, 63
5, 139200, Note_on_c, 2, 67, 63
5, 139200, Note_on_c, 2, 62, 63
5, 139200, Note_on_c, 2, 58, 63
5, 139200, Note_on_c, 2, 52, 63
5, 139200, Note_on_c, 2, 48, 63
5, 139680, Note_off_c, 2, 67, 63
5, 139680, Note_off_c, 2, 62, 63
5, 139680, Note_off_c, 2, 58, 63
5, 139680, Note_off_c, 2, 52, 63
5, 139680, Note_off_c, 2, 48, 63
5, 140640, Note_on_c, 2, 67, 63
5, 140640, Note_on_c, 2, 62, 63
5, 140640, Note_on_c, 2, 58, 63
5, 140640, Note_on_c, 2, 52, 63
5, 140640, Note_on_c, 2, 48, 63
5, 141120, Note_off_c, 2, 67, 63
5, 141120, Note_off_c, 2, 62, 63
5, 141120, Note_off_c, 2, 58, 63
5, 141120, Note_off_c, 2, 52, 63
5, 141120, Note_off_c, 2, 48, 63
5, 142080, Note_on_c, 2, 74, 63
5, 142080, Note_on_c, 2, 69, 63
5, 142080, Note_on_c, 2, 65, 63
5, 142080, Note_on_c, 2, 59, 63
5, 142080, Note_on_c, 2, 55, 63
5, 142560, Note_off_c, 2, 74, 63
5, 142560, Note_off_c, 2, 69, 63
5, 142560, Note_off_c, 2, 65, 63
5, 142560, Note_off_c, 2, 59, 63
5, 142560, Note_off_c, 2, 55, 63
5, 143520, Note_on_c, 2, 74, 63
5, 143520, Note_on_c, 2, 69, 63
5, 143520, Note_on_c, 2, 65, 63
5, 143520, Note_on_c, 2, 59, 63
5, 143520, Note_on_c, 2, 55, 63
5, 144000, Note_off_c, 2, 74, 63
5, 144000, Note_off_c, 2, 69, 63
5, 144000, Note_off_c, 2, 65, 63
5, 144000, Note_off_c, 2, 59, 63
5, 144000, Note_off_c, 2, 55, 63
5, 144960, Note_on_c, 2, 74, 63
5, 144960, Note_on_c, 2, 69, 63
5, 144960, Note_on_c, 2, 65, 63
5, 144960, Note_on_c, 2, 59, 63
5, 144960, Note_on_c, 2, 55, 63
5, 145440, Note_off_c, 2, 74, 63
5, 145440, Note_off_c, 2, 69, 63
5, 145440, Note_off_c, 2, 65, 63
5, 145440, Note_off_c, 2, 59, 63
5, 145440, Note_off_c, 2, 55, 63
5, 146400, Note_on_c, 2, 74, 63
5, 146400, Note_on_c, 2, 69, 63
5, 146400, Note_on_c, 2, 65, 63
5, 146400, Note_on_c, 2, 59, 63
5, 146400, Note_on_c, 2, 55, 63
5, 146880, Note_off_c, 2, 74, 63
5, 146880, Note_off_c, 2, 69, 63
5, 146880, Note_off_c, 2, 65, 63
5, 146880, Note_off_c, 2, 59, 63
5, 146880, Note_off_c, 2, 55, 63
5, 147840, Note_on_c, 2, 74, 63
5, 147840, Note_on_c, 2, 69, 63
5, 147840, Note_on_c, 2, 65, 63
5, 147840, Note_on_c, 2, 59, 63
5, 147840, Note_on_c, 2, 55, 63
5, 148320, Note_off_c, 2, 74, 63
5, 148320, Note_off_c, 2, 69, 63
5, 148320, Note_off_c, 2, 65, 63
5, 148320, Note_off_c, 2, 59, 63
5, 148320, Note_off_c, 2, 55, 63
5, 149280, Note_on_c, 2, 74, 63
5, 149280, Note_on_c, 2, 69, 63
5, 149280, Note_on_c, 2, 65, 63
5, 149280, Note_on_c, 2, 59, 63
5, 149280, Note_on_c, 2, 55, 63
5, 149760, Note_off_c, 2, 74, 63
5, 149760, Note_off_c, 2, 69, 63
5, 149760, Note_off_c, 2, 65, 63
5, 149760, Note_off_c, 2, 59, 63
5, 149760, Note_off_c, 2, 55, 63
5, 150720, Note_on_c, 2, 74, 63
5, 150720, Note_on_c, 2, 69, 63
5, 150720, Note_on_c, 2, 65, 63
5, 150720, Note_on_c, 2, 59, 63
5, 150720, Note_on_c, 2, 55, 63
5, 151200, Note_off_c, 2, 74, 63
5, 151200, Note_off_c, 2, 69, 63
5, 151200, Note_off_c, 2, 65, 63
5, 151200, Note_off_c, 2, 59, 63
5, 151200, Note_off_c, 2, 55, 63
5, 152160, Note_on_c, 2, 74, 63
5, 152160, Note_on_c, 2, 69, 63
5, 152160, Note_on_c, 2, 65, 63
5, 152160, Note_on_c, 2, 59, 63
5, 152160, Note_on_c, 2, 55, 63
5, 152640, Note_off_c, 2, 74, 63
5, 152640, Note_off_c, 2, 69, 63
5, 152640, Note_off_c, 2, 65, 63
5, 152640, Note_off_c, 2, 59, 63
5, 152640, Note_off_c, 2, 55, 63
5, 153600, Note_on_c, 2, 74, 63
5, 153600, Note_on_c, 2, 69, 63
5, 153600, Note_on_c, 2, 65, 63
5, 153600, Note_on_c, 2, 59, 63
5, 153600, Note_on_c, 2, 55, 63
5, 154080, Note_off_c, 2, 74, 63
5, 154080, Note_off_c, 2, 69, 63
5, 154080, Note_off_c, 2, 65, 63
5, 154080, Note_off_c, 2, 59, 63
5, 154080, Note_off_c, 2, 55, 63
5, 155040, Note_on_c, 2, 74, 63
5, 155040, Note_on_c, 2, 69, 63
5, 155040, Note_on_c, 2, 65, 63
5, 155040, Note_on_c, 2, 59, 63
5, 155040, Note_on_c, 2, 55, 63
5, 155520, Note_off_c, 2, 74, 63
5, 155520, Note_off_c, 2, 69, 63
5, 155520, Note_off_c, 2, 65, 63
5, 155520, Note_off_c, 2, 59, 63
5, 155520, Note_off_c, 2, 55, 63
5, 156480, Note_on_c, 2, 74, 63
5, 156480, Note_on_c, 2, 69, 63
5, 156480, Note_on_c, 2, 65, 63
5, 156480, Note_on_c, 2, 59, 63
5, 156480, Note_on_c, 2, 55, 63
5, 156960, Note_off_c, 2, 74, 63
5, 156960, Note_off_c, 2, 69, 63
5, 156960, Note_off_c, 2, 65, 63
5, 156960, Note_off_c, 2, 59, 63
5, 156960, Note_off_c, 2, 55, 63
5, 157920, Note_on_c, 2, 74, 63
5, 157920, Note_on_c, 2, 69, 63
5, 157920, Note_on_c, 2, 65, 63
5, 157920, Note_on_c, 2, 59, 63
5, 157920, Note_on_c, 2, 55, 63
5, 158400, Note_off_c, 2, 74, 63
5, 158400, Note_off_c, 2, 69, 63
5, 158400, Note_off_c, 2, 65, 63
5, 158400, Note_off_c, 2, 59, 63
5, 158400, Note_off_c, 2, 55, 63
5, 159360, Note_on_c, 2, 67, 63
5, 159360, Note_on_c, 2, 62, 63
5, 159360, Note_on_c, 2, 58, 63
5, 159360, Note_on_c, 2, 52, 63
5, 159360, Note_on_c, 2, 48, 63
5, 159840, Note_off_c, 2, 67, 63
5, 159840, Note_off_c, 2, 62, 63
5, 159840, Note_off_c, 2, 58, 63
5, 159840, Note_off_c, 2, 52, 63
5, 159840, Note_off_c, 2, 48, 63
5, 160800, Note_on_c, 2, 67, 63
5, 160800, Note_on_c, 2, 62, 63
5, 160800, Note_on_c, 2, 58, 63
5, 160800, Note_on_c, 2, 52, 63
5, 160800, Note_on_c, 2, 48, 63
5, 161280, Note_off_c, 2, 67, 63
5, 161280, Note_off_c, 2, 62, 63
5, 161280, Note_off_c, 2, 58, 63
5, 161280, Note_off_c, 2, 52, 63
5, 161280, Note_off_c, 2, 48, 63
5, 162240, Note_on_c, 2, 67, 63
5, 162240, Note_on_c, 2, 62, 63
5, 162240, Note_on_c, 2, 58, 63
5, 162240, Note_on_c, 2, 52, 63
5, 162240, Note_on_c, 2, 48, 63
5, 162720, Note_off_c, 2, 67, 63
5, 162720, Note_off_c, 2, 62, 63
5, 162720, Note_off_c, 2, 58, 63
5, 162720, Note_off_c, 2, 52, 63
5, 162720, Note_off_c, 2, 48, 63
5, 163680, Note_on_c, 2, 67, 63
5, 163680, Note_on_c, 2, 62, 63
5, 163680, Note_on_c, 2, 58, 63
5, 163680, Note_on_c, 2, 52, 63
5, 163680, Note_on_c, 2, 48, 63
5, 164160, Note_off_c, 2, 67, 63
5, 164160, Note_off_c, 2, 62, 63
5, 164160, Note_off_c, 2, 58, 63
5, 164160, Note_off_c, 2, 52, 63
5, 164160, Note_off_c, 2, 48, 63
5, 165120, Note_on_c, 2, 74, 63
5, 165120, Note_on_c, 2, 69, 63
5, 165120, Note_on_c, 2, 65, 63
5, 165120, Note_on_c, 2, 59, 63
5, 165120, Note_on_c, 2, 55, 63
5, 165600, Note_off_c, 2, 74, 63
5, 165600, Note_off_c, 2, 69, 63
5, 165600, Note_off_c, 2, 65, 63
5, 165600, Note_off_c, 2, 59, 63
5, 165600, Note_off_c, 2, 55, 63
5, 166560, Note_on_c, 2, 74, 63
5, 166560, Note_on_c, 2, 69, 63
5, 166560, Note_on_c, 2, 65, 63
5, 166560, Note_on_c, 2, 59, 63
5, 166560, Note_on_c, 2, 55, 63
5, 167040, Note_off_c, 2, 74, 63
5, 167040, Note_off_c, 2, 69, 63
5, 167040, Note_off_c, 2, 65, 63
5, 167040, Note_off_c, 2, 59, 63
5, 167040, Note_off_c, 2, 55, 63
5, 168000, Note_on_c, 2, 74, 63
5, 168000, Note_on_c, 2, 69, 63
5, 168000, Note_on_c, 2, 65, 63
5, 168000, Note_on_c, 2, 59, 63
5, 168000, Note_on_c, 2, 55, 63
5, 168480, Note_off_c, 2, 74, 63
5, 168480, Note_off_c, 2, 69, 63
5, 168480, Note_off_c, 2, 65, 63
5, 168480, Note_off_c, 2, 59, 63
5, 168480, Note_off_c, 2, 55, 63
5, 169440, Note_on_c, 2, 74, 63
5, 169440, Note_on_c, 2, 69, 63
5, 169440, Note_on_c, 2, 65, 63
5, 169440, Note_on_c, 2, 59, 63
5, 169440, Note_on_c, 2, 55, 63
5, 169920, Note_off_c, 2, 74, 63
5, 169920, Note_off_c, 2, 69, 63
5, 169920, Note_off_c, 2, 65, 63
5, 169920, Note_off_c, 2, 59, 63
5, 169920, Note_off_c, 2, 55, 63
5, 170880, Note_on_c, 2, 74, 63
5, 170880, Note_on_c, 2, 69, 63
5, 170880, Note_on_c, 2, 65, 63
5, 170880, Note_on_c, 2, 59, 63
5, 170880, Note_on_c, 2, 55, 63
5, 171360, Note_off_c, 2, 74, 63
5, 171360, Note_off_c, 2, 69, 63
5, 171360, Note_off_c, 2, 65, 63
5, 171360, Note_off_c, 2, 59, 63
5, 171360, Note_off_c, 2, 55, 63
5, 172320, Note_on_c, 2, 74, 63
5, 172320, Note_on_c, 2, 69, 63
5, 172320, Note_on_c, 2, 65, 63
5, 172320, Note_on_c, 2, 59, 63
5, 172320, Note_on_c, 2, 55, 63
5, 172800, Note_off_c, 2, 74, 63
5, 172800, Note_off_c, 2, 69, 63
5, 172800, Note_off_c, 2, 65, 63
5, 172800, Note_off_c, 2, 59, 63
5, 172800, Note_off_c, 2, 55, 63
5, 173760, Note_on_c, 2, 74, 63
5, 173760, Note_on_c, 2, 69, 63
5, 173760, Note_on_c, 2, 65, 63
5, 173760, Note_on_c, 2, 59, 63
5, 173760, Note_on_c, 2, 55, 63
5, 174240, Note_off_c, 2, 74, 63
5, 174240, Note_off_c, 2, 69, 63
5, 174240, Note_off_c, 2, 65, 63
5, 174240, Note_off_c, 2, 59, 63
5, 174240, Note_off_c, 2, 55, 63
5, 175200, Note_on_c, 2, 74, 63
5, 175200, Note_on_c, 2, 69, 63
5, 175200, Note_on_c, 2, 65, 63
5, 175200, Note_on_c, 2, 59, 63
5, 175200, Note_on_c, 2, 55, 63
5, 175680, Note_off_c, 2, 74, 63
5, 175680, Note_off_c, 2, 69, 63
5, 175680, Note_off_c, 2, 65, 63
5, 175680, Note_off_c, 2, 59, 63
5, 175680, Note_off_c, 2, 55, 63
5, 176640, Note_on_c, 2, 67, 63
5, 176640, Note_on_c, 2, 62, 63
5, 176640, Note_on_c, 2, 58, 63
5, 176640, Note_on_c, 2, 52, 63
5, 176640, Note_on_c, 2, 48, 63
5, 177120, Note_off_c, 2, 67, 63
5, 177120, Note_off_c, 2, 62, 63
5, 177120, Note_off_c, 2, 58, 63
5, 177120, Note_off_c, 2, 52, 63
5, 177120, Note_off_c, 2, 48, 63
5, 178080, Note_on_c, 2, 67, 63
5, 178080, Note_on_c, 2, 62, 63
5, 178080, Note_on_c, 2, 58, 63
5, 178080, Note_on_c, 2, 52, 63
5, 178080, Note_on_c, 2, 48, 63
5, 178560, Note_off_c, 2, 67, 63
5, 178560, Note_off_c, 2, 62, 63
5, 178560, Note_off_c, 2, 58, 63
5, 178560, Note_off_c, 2, 52, 63
5, 178560, Note_off_c, 2, 48, 63
5, 179520, Note_on_c, 2, 67, 63
5, 179520, Note_on_c, 2, 62, 63
5, 179520, Note_on_c, 2, 58, 63
5, 179520, Note_on_c, 2, 52, 63
5, 179520, Note_on_c, 2, 48, 63
5, 180000, Note_off_c, 2, 67, 63
5, 180000, Note_off_c, 2, 62, 63
5, 180000, Note_off_c, 2, 58, 63
5, 180000, Note_off_c, 2, 52, 63
5, 180000, Note_off_c, 2, 48, 63
5, 180960, Note_on_c, 2, 67, 63
5, 180960, Note_on_c, 2, 62, 63
5, 180960, Note_on_c, 2, 58, 63
5, 180960, Note_on_c, 2, 52, 63
5, 180960, Note_on_c, 2, 48, 63
5, 181440, Note_off_c, 2, 67, 63
5, 181440, Note_off_c, 2, 62, 63
5, 181440, Note_off_c, 2, 58, 63
5, 181440, Note_off_c, 2, 52, 63
5, 181440, Note_off_c, 2, 48, 63
5, 182400, Note_on_c, 2, 67, 63
5, 182400, Note_on_c, 2, 62, 63
5, 182400, Note_on_c, 2, 58, 63
5, 182400, Note_on_c, 2, 52, 63
5, 182400, Note_on_c, 2, 48, 63
5, 182880, Note_off_c, 2, 67, 63
5, 182880, Note_off_c, 2, 62, 63
5, 182880, Note_off_c, 2, 58, 63
5, 182880, Note_off_c, 2, 52, 63
5, 182880, Note_off_c, 2, 48, 63
5, 183840, Note_on_c, 2, 67, 63
5, 183840, Note_on_c, 2, 62, 63
5, 183840, Note_on_c, 2, 58, 63
5, 183840, Note_on_c, 2, 52, 63
5, 183840, Note_on_c, 2, 48, 63
5, 184320, Note_off_c, 2, 67, 63
5, 184320, Note_off_c, 2, 62, 63
5, 184320, Note_off_c, 2, 58, 63
5, 184320, Note_off_c, 2, 52, 63
5, 184320, Note_off_c, 2, 48, 63
5, 185280, Note_on_c, 2, 67, 63
5, 185280, Note_on_c, 2, 62, 63
5, 185280, Note_on_c, 2, 58, 63
5, 185280, Note_on_c, 2, 52, 63
5, 185280, Note_on_c, 2, 48, 63
5, 185760, Note_off_c, 2, 67, 63
5, 185760, Note_off_c, 2, 62, 63
5, 185760, Note_off_c, 2, 58, 63
5, 185760, Note_off_c, 2, 52, 63
5, 185760, Note_off_c, 2, 48, 63
5, 186720, Note_on_c, 2, 67, 63
5, 186720, Note_on_c, 2, 62, 63
5, 186720, Note_on_c, 2, 58, 63
5, 186720, Note_on_c, 2, 52, 63
5, 186720, Note_on_c, 2, 48, 63
5, 187200, Note_off_c, 2, 67, 63
5, 187200, Note_off_c, 2, 62, 63
5, 187200, Note_off_c, 2, 58, 63
5, 187200, Note_off_c, 2, 52, 63
5, 187200, Note_off_c, 2, 48, 63
5, 188160, Note_on_c, 2, 74, 63
5, 188160, Note_on_c, 2, 69, 63
5, 188160, Note_on_c, 2, 65, 63
5, 188160, Note_on_c, 2, 59, 63
5, 188160, Note_on_c, 2, 55, 63
5, 188640, Note_off_c, 2, 74, 63
5, 188640, Note_off_c, 2, 69, 63
5, 188640, Note_off_c, 2, 65, 63
5, 188640, Note_off_c, 2, 59, 63
5, 188640, Note_off_c, 2, 55, 63
5, 189600, Note_on_c, 2, 74, 63
5, 189600, Note_on_c, 2, 69, 63
5, 189600, Note_on_c, 2, 65, 63
5, 189600, Note_on_c, 2, 59, 63
5, 189600, Note_on_c, 2, 55, 63
5, 190080, Note_off_c, 2, 74, 63
5, 190080, Note_off_c, 2, 69, 63
5, 190080, Note_off_c, 2, 65, 63
5, 190080, Note_off_c, 2, 59, 63
5, 190080, Note_off_c, 2, 55, 63
5, 191040, Note_on_c, 2, 74, 63
5, 191040, Note_on_c, 2, 69, 63
5, 191040, Note_on_c, 2, 65, 63
5, 191040, Note_on_c, 2, 59, 63
5, 191040, Note_on_c, 2, 55, 63
5, 191520, Note_off_c, 2, 74, 63
5, 191520, Note_off_c, 2, 69, 63
5, 191520, Note_off_c, 2, 65, 63
5, 191520, Note_off_c, 2, 59, 63
5, 191520, Note_off_c, 2, 55, 63
5, 192480, Note_on_c, 2, 74, 63
5, 192480, Note_on_c, 2, 69, 63
5, 192480, Note_on_c, 2, 65, 63
5, 192480, Note_on_c, 2, 59, 63
5, 192480, Note_on_c, 2, 55, 63
5, 192960, Note_off_c, 2, 74, 63
5, 192960, Note_off_c, 2, 69, 63
5, 192960, Note_off_c, 2, 65, 63
5, 192960, Note_off_c, 2, 59, 63
5, 192960, Note_off_c, 2, 55, 63
5, 193920, Note_on_c, 2, 74, 63
5, 193920, Note_on_c, 2, 69, 63
5, 193920, Note_on_c, 2, 65, 63
5, 193920, Note_on_c, 2, 59, 63
5, 193920, Note_on_c, 2, 55, 63
5, 194400, Note_off_c, 2, 74, 63
5, 194400, Note_off_c, 2, 69, 63
5, 194400, Note_off_c, 2, 65, 63
5, 194400, Note_off_c, 2, 59, 63
5, 194400, Note_off_c, 2, 55, 63
5, 195360, Note_on_c, 2, 74, 63
5, 195360, Note_on_c, 2, 69, 63
5, 195360, Note_on_c, 2, 65, 63
5, 195360, Note_on_c, 2, 59, 63
5, 195360, Note_on_c, 2, 55, 63
5, 195840, Note_off_c, 2, 74, 63
5, 195840, Note_off_c, 2, 69, 63
5, 195840, Note_off_c, 2, 65, 63
5, 195840, Note_off_c, 2, 59, 63
5, 195840, Note_off_c, 2, 55, 63
5, 196800, Note_on_c, 2, 74, 63
5, 196800, Note_on_c, 2, 69, 63
5, 196800, Note_on_c, 2, 65, 63
5, 196800, Note_on_c, 2, 59, 63
5, 196800, Note_on_c, 2, 55, 63
5, 197280, Note_off_c, 2, 74, 63
5, 197280, Note_off_c, 2, 69, 63
5, 197280, Note_off_c, 2, 65, 63
5, 197280, Note_off_c, 2, 59, 63
5, 197280, Note_off_c, 2, 55, 63
5, 198240, Note_on_c, 2, 74, 63
5, 198240, Note_on_c, 2, 69, 63
5, 198240, Note_on_c, 2, 65, 63
5, 198240, Note_on_c, 2, 59, 63
5, 198240, Note_on_c, 2, 55, 63
5, 198720, Note_off_c, 2, 74, 63
5, 198720, Note_off_c, 2, 69, 63
5, 198720, Note_off_c, 2, 65, 63
5, 198720, Note_off_c, 2, 59, 63
5, 198720, Note_off_c, 2, 55, 63
5, 199680, Note_on_c, 2, 69, 63
5, 199680, Note_on_c, 2, 64, 63
5, 199680, Note_on_c, 2, 60, 63
5, 199680, Note_on_c, 2, 54, 63
5, 199680, Note_on_c, 2, 50, 63
5, 200160, Note_off_c, 2, 69, 63
5, 200160, Note_off_c, 2, 64, 63
5, 200160, Note_off_c, 2, 60, 63
5, 200160, Note_off_c, 2, 54, 63
5, 200160, Note_off_c, 2, 50, 63
5, 201120, Note_on_c, 2, 69, 63
5, 201120, Note_on_c, 2, 64, 63
5, 201120, Note_on_c, 2, 60, 63
5, 201120, Note_on_c, 2, 54, 63
5, 201120, Note_on_c, 2, 50, 63
5, 201600, Note_off_c, 2, 69, 63
5, 201600, Note_off_c, 2, 64, 63
5, 201600, Note_off_c, 2, 60, 63
5, 201600, Note_off_c, 2, 54, 63
5, 201600, Note_off_c, 2, 50, 63
5, 202560, Note_on_c, 2, 69, 63
5, 202560, Note_on_c, 2, 64, 63
5, 202560, Note_on_c, 2, 60, 63
5, 202560, Note_on_c, 2, 54, 63
5, 202560, Note_on_c, 2, 50, 63
5, 203040, Note_off_c, 2, 69, 63
5, 203040, Note_off_c, 2, 64, 63
5, 203040, Note_off_c, 2, 60, 63
5, 203040, Note_off_c, 2, 54, 63
5, 203040, Note_off_c, 2, 50, 63
5, 204000, Note_on_c, 2, 69, 63
5, 204000, Note_on_c, 2, 64, 63
5, 204000, Note_on_c, 2, 60, 63
5, 204000, Note_on_c, 2, 54, 63
5, 204000, Note_on_c, 2, 50, 63
5, 204480, Note_off_c, 2, 69, 63
5, 204480, Note_off_c, 2, 64, 63
5, 204480, Note_off_c, 2, 60, 63
5, 204480, Note_off_c, 2, 54, 63
5, 204480, Note_off_c, 2, 50, 63
5, 205440, Note_on_c, 2, 67, 63
5, 205440, Note_on_c, 2, 62, 63
5, 205440, Note_on_c, 2, 58, 63
5, 205440, Note_on_c, 2, 52, 63
5, 205440, Note_on_c, 2, 48, 63
5, 205920, Note_off_c, 2, 67, 63
5, 205920, Note_off_c, 2, 62, 63
5, 205920, Note_off_c, 2, 58, 63
5, 205920, Note_off_c, 2, 52, 63
5, 205920, Note_off_c, 2, 48, 63
5, 206880, Note_on_c, 2, 67, 63
5, 206880, Note_on_c, 2, 62, 63
5, 206880, Note_on_c, 2, 58, 63
5, 206880, Note_on_c, 2, 52, 63
5, 206880, Note_on_c, 2, 48, 63
5, 207360, Note_off_c, 2, 67, 63
5, 207360, Note_off_c, 2, 62, 63
5, 207360, Note_off_c, 2, 58, 63
5, 207360, Note_off_c, 2, 52, 63
5, 207360, Note_off_c, 2, 48, 63
5, 208320, Note_on_c, 2, 67, 63
5, 208320, Note_on_c, 2, 62, 63
5, 208320, Note_on_c, 2, 58, 63
5, 208320, Note_on_c, 2, 52, 63
5, 208320, Note_on_c, 2, 48, 63
5, 208800, Note_off_c, 2, 67, 63
5, 208800, Note_off_c, 2, 62, 63
5, 208800, Note_off_c, 2, 58, 63
5, 208800, Note_off_c, 2, 52, 63
5, 208800, Note_off_c, 2, 48, 63
5, 209760, Note_on_c, 2, 67, 63
5, 209760, Note_on_c, 2, 62, 63
5, 209760, Note_on_c, 2, 58, 63
5, 209760, Note_on_c, 2, 52, 63
5, 209760, Note_on_c, 2, 48, 63
5, 210240, Note_off_c, 2, 67, 63
5, 210240, Note_off_c, 2, 62, 63
5, 210240, Note_off_c, 2, 58, 63
5, 210240, Note_off_c, 2, 52, 63
5, 210240, Note_off_c, 2, 48, 63
5, 211200, Note_on_c, 2, 74, 63
5, 211200, Note_on_c, 2, 69, 63
5, 211200, Note_on_c, 2, 65, 63
5, 211200, Note_on_c, 2, 59, 63
5, 211200, Note_on_c, 2, 55, 63
5, 211680, Note_off_c, 2, 74, 63
5, 211680, Note_off_c, 2, 69, 63
5, 211680, Note_off_c, 2, 65, 63
5, 211680, Note_off_c, 2, 59, 63
5, 211680, Note_off_c, 2, 55, 63
5, 212640, Note_on_c, 2, 74, 63
5, 212640, Note_on_c, 2, 69, 63
5, 212640, Note_on_c, 2, 65, 63
5, 212640, Note_on_c, 2, 59, 63
5, 212640, Note_on_c, 2, 55, 63
5, 213120, Note_off_c, 2, 74, 63
5, 213120, Note_off_c, 2, 69, 63
5, 213120, Note_off_c, 2, 65, 63
5, 213120, Note_off_c, 2, 59, 63
5, 213120, Note_off_c, 2, 55, 63
5, 214080, Note_on_c, 2, 74, 63
5, 214080, Note_on_c, 2, 69, 63
5, 214080, Note_on_c, 2, 65, 63
5, 214080, Note_on_c, 2, 59, 63
5, 214080, Note_on_c, 2, 55, 63
5, 214560, Note_off_c, 2, 74, 63
5, 214560, Note_off_c, 2, 69, 63
5, 214560, Note_off_c, 2, 65, 63
5, 214560, Note_off_c, 2, 59, 63
5, 214560, Note_off_c, 2, 55, 63
5, 215520, Note_on_c, 2, 74, 63
5, 215520, Note_on_c, 2, 69, 63
5, 215520, Note_on_c, 2, 65, 63
5, 215520, Note_on_c, 2, 59, 63
5, 215520, Note_on_c, 2, 55, 63
5, 216000, Note_off_c, 2, 74, 63
5, 216000, Note_off_c, 2, 69, 63
5, 216000, Note_off_c, 2, 65, 63
5, 216000, Note_off_c, 2, 59, 63
5, 216000, Note_off_c, 2, 55, 63
5, 216960, Note_on_c, 2, 74, 63
5, 216960, Note_on_c, 2, 69, 63
5, 216960, Note_on_c, 2, 65, 63
5, 216960, Note_on_c, 2, 59, 63
5, 216960, Note_on_c, 2, 55, 63
5, 217440, Note_off_c, 2, 74, 63
5, 217440, Note_off_c, 2, 69, 63
5, 217440, Note_off_c, 2, 65, 63
5, 217440, Note_off_c, 2, 59, 63
5, 217440, Note_off_c, 2, 55, 63
5, 218400, Note_on_c, 2, 74, 63
5, 218400, Note_on_c, 2, 69, 63
5, 218400, Note_on_c, 2, 65, 63
5, 218400, Note_on_c, 2, 59, 63
5, 218400, Note_on_c, 2, 55, 63
5, 218880, Note_off_c, 2, 74, 63
5, 218880, Note_off_c, 2, 69, 63
5, 218880, Note_off_c, 2, 65, 63
5, 218880, Note_off_c, 2, 59, 63
5, 218880, Note_off_c, 2, 55, 63
5, 219840, Note_on_c, 2, 74, 63
5, 219840, Note_on_c, 2, 69, 63
5, 219840, Note_on_c, 2, 65, 63
5, 219840, Note_on_c, 2, 59, 63
5, 219840, Note_on_c, 2, 55, 63
5, 220320, Note_off_c, 2, 74, 63
5, 220320, Note_off_c, 2, 69, 63
5, 220320, Note_off_c, 2, 65, 63
5, 220320, Note_off_c, 2, 59, 63
5, 220320, Note_off_c, 2, 55, 63
5, 221280, Note_on_c, 2, 74, 63
5, 221280, Note_on_c, 2, 69, 63
5, 221280, Note_on_c, 2, 65, 63
5, 221280, Note_on_c, 2, 59, 63
5, 221280, Note_on_c, 2, 55, 63
5, 221760, Note_off_c, 2, 74, 63
5, 221760, Note_off_c, 2, 69, 63
5, 221760, Note_off_c, 2, 65, 63
5, 221760, Note_off_c, 2, 59, 63
5, 221760, Note_off_c, 2, 55, 63
5, 222720, Note_on_c, 2, 74, 63
5, 222720, Note_on_c, 2, 69, 63
5, 222720, Note_on_c, 2, 65, 63
5, 222720, Note_on_c, 2, 59, 63
5, 222720, Note_on_c, 2, 55, 63
5, 223200, Note_off_c, 2, 74, 63
5, 223200, Note_off_c, 2, 69, 63
5, 223200, Note_off_c, 2, 65, 63
5, 223200, Note_off_c, 2, 59, 63
5, 223200, Note_off_c, 2, 55, 63
5, 224160, Note_on_c, 2, 74, 63
5, 224160, Note_on_c, 2, 69, 63
5, 224160, Note_on_c, 2, 65, 63
5, 224160, Note_on_c, 2, 59, 63
5, 224160, Note_on_c, 2, 55, 63
5, 224640, Note_off_c, 2, 74, 63
5, 224640, Note_off_c, 2, 69, 63
5, 224640, Note_off_c, 2, 65, 63
5, 224640, Note_off_c, 2, 59, 63
5, 224640, Note_off_c, 2, 55, 63
5, 225600, Note_on_c, 2, 74, 63
5, 225600, Note_on_c, 2, 69, 63
5, 225600, Note_on_c, 2, 65, 63
5, 225600, Note_on_c, 2, 59, 63
5, 225600, Note_on_c, 2, 55, 63
5, 226080, Note_off_c, 2, 74, 63
5, 226080, Note_off_c, 2, 69, 63
5, 226080, Note_off_c, 2, 65, 63
5, 226080, Note_off_c, 2, 59, 63
5, 226080, Note_off_c, 2, 55, 63
5, 227040, Note_on_c, 2, 74, 63
5, 227040, Note_on_c, 2, 69, 63
5, 227040, Note_on_c, 2, 65, 63
5, 227040, Note_on_c, 2, 59, 63
5, 227040, Note_on_c, 2, 55, 63
5, 227520, Note_off_c, 2, 74, 63
5, 227520, Note_off_c, 2, 69, 63
5, 227520, Note_off_c, 2, 65, 63
5, 227520, Note_off_c, 2, 59, 63
5, 227520, Note_off_c, 2, 55, 63
5, 228480, Note_on_c, 2, 67, 63
5, 228480, Note_on_c, 2, 62, 63
5, 228480, Note_on_c, 2, 58, 63
5, 228480, Note_on_c, 2, 52, 63
5, 228480, Note_on_c, 2, 48, 63
5, 228960, Note_off_c, 2, 67, 63
5, 228960, Note_off_c, 2, 62, 63
5, 228960, Note_off_c, 2, 58, 63
5, 228960, Note_off_c, 2, 52, 63
5, 228960, Note_off_c, 2, 48, 63
5, 229920, Note_on_c, 2, 67, 63
5, 229920, Note_on_c, 2, 62, 63
5, 229920, Note_on_c, 2, 58, 63
5, 229920, Note_on_c, 2, 52, 63
5, 229920, Note_on_c, 2, 48, 63
5, 230400, Note_off_c, 2, 67, 63
5, 230400, Note_off_c, 2, 62, 63
5, 230400, Note_off_c, 2, 58, 63
5, 230400, Note_off_c, 2, 52, 63
5, 230400, Note_off_c, 2, 48, 63
5, 231360, Note_on_c, 2, 67, 63
5, 231360, Note_on_c, 2, 62, 63
5, 231360, Note_on_c, 2, 58, 63
5, 231360, Note_on_c, 2, 52, 63
5, 231360, Note_on_c, 2, 48, 63
5, 231840, Note_off_c, 2, 67, 63
5, 231840, Note_off_c, 2, 62, 63
5, 231840, Note_off_c, 2, 58, 63
5, 231840, Note_off_c, 2, 52, 63
5, 231840, Note_off_c, 2, 48, 63
5, 232800, Note_on_c, 2, 67, 63
5, 232800, Note_on_c, 2, 62, 63
5, 232800, Note_on_c, 2, 58, 63
5, 232800, Note_on_c, 2, 52, 63
5, 232800, Note_on_c, 2, 48, 63
5, 233280, Note_off_c, 2, 67, 63
5, 233280, Note_off_c, 2, 62, 63
5, 233280, Note_off_c, 2, 58, 63
5, 233280, Note_off_c, 2, 52, 63
5, 233280, Note_off_c, 2, 48, 63
5, 234240, Note_on_c, 2, 74, 63
5, 234240, Note_on_c, 2, 69, 63
5, 234240, Note_on_c, 2, 65, 63
5, 234240, Note_on_c, 2, 59, 63
5, 234240, Note_on_c, 2, 55, 63
5, 234720, Note_off_c, 2, 74, 63
5, 234720, Note_off_c, 2, 69, 63
5, 234720, Note_off_c, 2, 65, 63
5, 234720, Note_off_c, 2, 59, 63
5, 234720, Note_off_c, 2, 55, 63
5, 235680, Note_on_c, 2, 74, 63
5, 235680, Note_on_c, 2, 69, 63
5, 235680, Note_on_c, 2, 65, 63
5, 235680, Note_on_c, 2, 59, 63
5, 235680, Note_on_c, 2, 55, 63
5, 236160, Note_off_c, 2, 74, 63
5, 236160, Note_off_c, 2, 69, 63
5, 236160, Note_off_c, 2, 65, 63
5, 236160, Note_off_c, 2, 59, 63
5, 236160, Note_off_c, 2, 55, 63
5, 237120, Note_on_c, 2, 74, 63
5, 237120, Note_on_c, 2, 69, 63
5, 237120, Note_on_c, 2, 65, 63
5, 237120, Note_on_c, 2, 59, 63
5, 237120, Note_on_c, 2, 55, 63
5, 237600, Note_off_c, 2, 74, 63
5, 237600, Note_off_c, 2, 69, 63
5, 237600, Note_off_c, 2, 65, 63
5, 237600, Note_off_c, 2, 59, 63
5, 237600, Note_off_c, 2, 55, 63
5, 238560, Note_on_c, 2, 74, 63
5, 238560, Note_on_c, 2, 69, 63
5, 238560, Note_on_c, 2, 65, 63
5, 238560, Note_on_c, 2, 59, 63
5, 238560, Note_on_c, 2, 55, 63
5, 239040, Note_off_c, 2, 74, 63
5, 239040, Note_off_c, 2, 69, 63
5, 239040, Note_off_c, 2, 65, 63
5, 239040, Note_off_c, 2, 59, 63
5, 239040, Note_off_c, 2, 55, 63
5, 240000, Note_on_c, 2, 74, 63
5, 240000, Note_on_c, 2, 69, 63
5, 240000, Note_on_c, 2, 65, 63
5, 240000, Note_on_c, 2, 59, 63
5, 240000, Note_on_c, 2, 55, 63
5, 240480, Note_off_c, 2, 74, 63
5, 240480, Note_off_c, 2, 69, 63
5, 240480, Note_off_c, 2, 65, 63
5, 240480, Note_off_c, 2, 59, 63
5, 240480, Note_off_c, 2, 55, 63
5, 241440, Note_on_c, 2, 74, 63
5, 241440, Note_on_c, 2, 69, 63
5, 241440, Note_on_c, 2, 65, 63
5, 241440, Note_on_c, 2, 59, 63
5, 241440, Note_on_c, 2, 55, 63
5, 241920, Note_off_c, 2, 74, 63
5, 241920, Note_off_c, 2, 69, 63
5, 241920, Note_off_c, 2, 65, 63
5, 241920, Note_off_c, 2, 59, 63
5, 241920, Note_off_c, 2, 55, 63
5, 242880, Note_on_c, 2, 74, 63
5, 242880, Note_on_c, 2, 69, 63
5, 242880, Note_on_c, 2, 65, 63
5, 242880, Note_on_c, 2, 59, 63
5, 242880, Note_on_c, 2, 55, 63
5, 243360, Note_off_c, 2, 74, 63
5, 243360, Note_off_c, 2, 69, 63
5, 243360, Note_off_c, 2, 65, 63
5, 243360, Note_off_c, 2, 59, 63
5, 243360, Note_off_c, 2, 55, 63
5, 244320, Note_on_c, 2, 74, 63
5, 244320, Note_on_c, 2, 69, 63
5, 244320, Note_on_c, 2, 65, 63
5, 244320, Note_on_c, 2, 59, 63
5, 244320, Note_on_c, 2, 55, 63
5, 244800, Note_off_c, 2, 74, 63
5, 244800, Note_off_c, 2, 69, 63
5, 244800, Note_off_c, 2, 65, 63
5, 244800, Note_off_c, 2, 59, 63
5, 244800, Note_off_c, 2, 55, 63
5, 245760, Note_on_c, 2, 67, 63
5, 245760, Note_on_c, 2, 62, 63
5, 245760, Note_on_c, 2, 58, 63
5, 245760, Note_on_c, 2, 52, 63
5, 245760, Note_on_c, 2, 48, 63
5, 246240, Note_off_c, 2, 67, 63
5, 246240, Note_off_c, 2, 62, 63
5, 246240, Note_off_c, 2, 58, 63
5, 246240, Note_off_c, 2, 52, 63
5, 246240, Note_off_c, 2, 48, 63
5, 247200, Note_on_c, 2, 67, 63
5, 247200, Note_on_c, 2, 62, 63
5, 247200, Note_on_c, 2, 58, 63
5, 247200, Note_on_c, 2, 52, 63
5, 247200, Note_on_c, 2, 48, 63
5, 247680, Note_off_c, 2, 67, 63
5, 247680, Note_off_c, 2, 62, 63
5, 247680, Note_off_c, 2, 58, 63
5, 247680, Note_off_c, 2, 52, 63
5, 247680, Note_off_c, 2, 48, 63
5, 248640, Note_on_c, 2, 67, 63
5, 248640, Note_on_c, 2, 62, 63
5, 248640, Note_on_c, 2, 58, 63
5, 248640, Note_on_c, 2, 52, 63
5, 248640, Note_on_c, 2, 48, 63
5, 249120, Note_off_c, 2, 67, 63
5, 249120, Note_off_c, 2, 62, 63
5, 249120, Note_off_c, 2, 58, 63
5, 249120, Note_off_c, 2, 52, 63
5, 249120, Note_off_c, 2, 48, 63
5, 250080, Note_on_c, 2, 67, 63
5, 250080, Note_on_c, 2, 62, 63
5, 250080, Note_on_c, 2, 58, 63
5, 250080, Note_on_c, 2, 52, 63
5, 250080, Note_on_c, 2, 48, 63
5, 250560, Note_off_c, 2, 67, 63
5, 250560, Note_off_c, 2, 62, 63
5, 250560, Note_off_c, 2, 58, 63
5, 250560, Note_off_c, 2, 52, 63
5, 250560, Note_off_c, 2, 48, 63
5, 251520, Note_on_c, 2, 67, 63
5, 251520, Note_on_c, 2, 62, 63
5, 251520, Note_on_c, 2, 58, 63
5, 251520, Note_on_c, 2, 52, 63
5, 251520, Note_on_c, 2, 48, 63
5, 252000, Note_off_c, 2, 67, 63
5, 252000, Note_off_c, 2, 62, 63
5, 252000, Note_off_c, 2, 58, 63
5, 252000, Note_off_c, 2, 52, 63
5, 252000, Note_off_c, 2, 48, 63
5, 252960, Note_on_c, 2, 67, 63
5, 252960, Note_on_c, 2, 62, 63
5, 252960, Note_on_c, 2, 58, 63
5, 252960, Note_on_c, 2, 52, 63
5, 252960, Note_on_c, 2, 48, 63
5, 253440, Note_off_c, 2, 67, 63
5, 253440, Note_off_c, 2, 62, 63
5, 253440, Note_off_c, 2, 58, 63
5, 253440, Note_off_c, 2, 52, 63
5, 253440, Note_off_c, 2, 48, 63
5, 254400, Note_on_c, 2, 67, 63
5, 254400, Note_on_c, 2, 62, 63
5, 254400, Note_on_c, 2, 58, 63
5, 254400, Note_on_c, 2, 52, 63
5, 254400, Note_on_c, 2, 48, 63
5, 254880, Note_off_c, 2, 67, 63
5, 254880, Note_off_c, 2, 62, 63
5, 254880, Note_off_c, 2, 58, 63
5, 254880, Note_off_c, 2, 52, 63
5, 254880, Note_off_c, 2, 48, 63
5, 255840, Note_on_c, 2, 67, 63
5, 255840, Note_on_c, 2, 62, 63
5, 255840, Note_on_c, 2, 58, 63
5, 255840, Note_on_c, 2, 52, 63
5, 255840, Note_on_c, 2, 48, 63
5, 256320, Note_off_c, 2, 67, 63
5, 256320, Note_off_c, 2, 62, 63
5, 256320, Note_off_c, 2, 58, 63
5, 256320, Note_off_c, 2, 52, 63
5, 256320, Note_off_c, 2, 48, 63
5, 257280, Note_on_c, 2, 74, 63
5, 257280, Note_on_c, 2, 69, 63
5, 257280, Note_on_c, 2, 65, 63
5, 257280, Note_on_c, 2, 59, 63
5, 257280, Note_on_c, 2, 55, 63
5, 257760, Note_off_c, 2, 74, 63
5, 257760, Note_off_c, 2, 69, 63
5, 257760, Note_off_c, 2, 65, 63
5, 257760, Note_off_c, 2, 59, 63
5, 257760, Note_off_c, 2, 55, 63
5, 258720, Note_on_c, 2, 74, 63
5, 258720, Note_on_c, 2, 69, 63
5, 258720, Note_on_c, 2, 65, 63
5, 258720, Note_on_c, 2, 59, 63
5, 258720, Note_on_c, 2, 55, 63
5, 259200, Note_off_c, 2, 74, 63
5, 259200, Note_off_c, 2, 69, 63
5, 259200, Note_off_c, 2, 65, 63
5, 259200, Note_off_c, 2, 59, 63
5, 259200, Note_off_c, 2, 55, 63
5, 260160, Note_on_c, 2, 74, 63
5, 260160, Note_on_c, 2, 69, 63
5, 260160, Note_on_c, 2, 65, 63
5, 260160, Note_on_c, 2, 59, 63
5, 260160, Note_on_c, 2, 55, 63
5, 260640, Note_off_c, 2, 74, 63
5, 260640, Note_off_c, 2, 69, 63
5, 260640, Note_off_c, 2, 65, 63
5, 260640, Note_off_c, 2, 59, 63
5, 260640, Note_off_c, 2, 55, 63
5, 261600, Note_on_c, 2, 74, 63
5, 261600, Note_on_c, 2, 69, 63
5, 261600, Note_on_c, 2, 65, 63
5, 261600, Note_on_c, 2, 59, 63
5, 261600, Note_on_c, 2, 55, 63
5, 262080, Note_off_c, 2, 74, 63
5, 262080, Note_off_c, 2, 69, 63
5, 262080, Note_off_c, 2, 65, 63
5, 262080, Note_off_c, 2, 59, 63
5, 262080, Note_off_c, 2, 55, 63
5, 263040, Note_on_c, 2, 74, 63
5, 263040, Note_on_c, 2, 69, 63
5, 263040, Note_on_c, 2, 65, 63
5, 263040, Note_on_c, 2, 59, 63
5, 263040, Note_on_c, 2, 55, 63
5, 263520, Note_off_c, 2, 74, 63
5, 263520, Note_off_c, 2, 69, 63
5, 263520, Note_off_c, 2, 65, 63
5, 263520, Note_off_c, 2, 59, 63
5, 263520, Note_off_c, 2, 55, 63
5, 264480, Note_on_c, 2, 74, 63
5, 264480, Note_on_c, 2, 69, 63
5, 264480, Note_on_c, 2, 65, 63
5, 264480, Note_on_c, 2, 59, 63
5, 264480, Note_on_c, 2, 55, 63
5, 264960, Note_off_c, 2, 74, 63
5, 264960, Note_off_c, 2, 69, 63
5, 264960, Note_off_c, 2, 65, 63
5, 264960, Note_off_c, 2, 59, 63
5, 264960, Note_off_c, 2, 55, 63
5, 265920, Note_on_c, 2, 74, 63
5, 265920, Note_on_c, 2, 69, 63
5, 265920, Note_on_c, 2, 65, 63
5, 265920, Note_on_c, 2, 59, 63
5, 265920, Note_on_c, 2, 55, 63
5, 266400, Note_off_c, 2, 74, 63
5, 266400, Note_off_c, 2, 69, 63
5, 266400, Note_off_c, 2, 65, 63
5, 266400, Note_off_c, 2, 59, 63
5, 266400, Note_off_c, 2, 55, 63
5, 267360, Note_on_c, 2, 74, 63
5, 267360, Note_on_c, 2, 69, 63
5, 267360, Note_on_c, 2, 65, 63
5, 267360, Note_on_c, 2, 59, 63
5, 267360, Note_on_c, 2, 55, 63
5, 267840, Note_off_c, 2, 74, 63
5, 267840, Note_off_c, 2, 69, 63
5, 267840, Note_off_c, 2, 65, 63
5, 267840, Note_off_c, 2, 59, 63
5, 267840, Note_off_c, 2, 55, 63
5, 268800, Note_on_c, 2, 69, 63
5, 268800, Note_on_c, 2, 64, 63
5, 268800, Note_on_c, 2, 60, 63
5, 268800, Note_on_c, 2, 54, 63
5, 268800, Note_on_c, 2, 50, 63
5, 269280, Note_off_c, 2, 69, 63
5, 269280, Note_off_c, 2, 64, 63
5, 269280, Note_off_c, 2, 60, 63
5, 269280, Note_off_c, 2, 54, 63
5, 269280, Note_off_c, 2, 50, 63
5, 270240, Note_on_c, 2, 69, 63
5, 270240, Note_on_c, 2, 64, 63
5, 270240, Note_on_c, 2, 60, 63
5, 270240, Note_on_c, 2, 54, 63
5, 270240, Note_on_c, 2, 50, 63
5, 270720, Note_off_c, 2, 69, 63
5, 270720, Note_off_c, 2, 64, 63
5, 270720, Note_off_c, 2, 60, 63
5, 270720, Note_off_c, 2, 54, 63
5, 270720, Note_off_c, 2, 50, 63
5, 271680, Note_on_c, 2, 69, 63
5, 271680, Note_on_c, 2, 64, 63
5, 271680, Note_on_c, 2, 60, 63
5, 271680, Note_on_c, 2, 54, 63
5, 271680, Note_on_c, 2, 50, 63
5, 272160, Note_off_c, 2, 69, 63
5, 272160, Note_off_c, 2, 64, 63
5, 272160, Note_off_c, 2, 60, 63
5, 272160, Note_off_c, 2, 54, 63
5, 272160, Note_off_c, 2, 50, 63
5, 273120, Note_on_c, 2, 69, 63
5, 273120, Note_on_c, 2, 64, 63
5, 273120, Note_on_c, 2, 60, 63
5, 273120, Note_on_c, 2, 54, 63
5, 273120, Note_on_c, 2, 50, 63
5, 273600, Note_off_c, 2, 69, 63
5, 273600, Note_off_c, 2, 64, 63
5, 273600, Note_off_c, 2, 60, 63
5, 273600, Note_off_c, 2, 54, 63
5, 273600, Note_off_c, 2, 50, 63
5, 274560, Note_on_c, 2, 67, 63
5, 274560, Note_on_c, 2, 62, 63
5, 274560, Note_on_c, 2, 58, 63
5, 274560, Note_on_c, 2, 52, 63
5, 274560, Note_on_c, 2, 48, 63
5, 275040, Note_off_c, 2, 67, 63
5, 275040, Note_off_c, 2, 62, 63
5, 275040, Note_off_c, 2, 58, 63
5, 275040, Note_off_c, 2, 52, 63
5, 275040, Note_off_c, 2, 48, 63
5, 276000, Note_on_c, 2, 67, 63
5, 276000, Note_on_c, 2, 62, 63
5, 276000, Note_on_c, 2, 58, 63
5, 276000, Note_on_c, 2, 52, 63
5, 276000, Note_on_c, 2, 48, 63
5, 276480, Note_off_c, 2, 67, 63
5, 276480, Note_off_c, 2, 62, 63
5, 276480, Note_off_c, 2, 58, 63
5, 276480, Note_off_c, 2, 52, 63
5, 276480, Note_off_c, 2, 48, 63
5, 277440, Note_on_c, 2, 67, 63
5, 277440, Note_on_c, 2, 62, 63
5, 277440, Note_on_c, 2, 58, 63
5, 277440, Note_on_c, 2, 52, 63
5, 277440, Note_on_c, 2, 48, 63
5, 277920, Note_off_c, 2, 67, 63
5, 277920, Note_off_c, 2, 62, 63
5, 277920, Note_off_c, 2, 58, 63
5, 277920, Note_off_c, 2, 52, 63
5, 277920, Note_off_c, 2, 48, 63
5, 278880, Note_on_c, 2, 67, 63
5, 278880, Note_on_c, 2, 62, 63
5, 278880, Note_on_c, 2, 58, 63
5, 278880, Note_on_c, 2, 52, 63
5, 278880, Note_on_c, 2, 48, 63
5, 279360, Note_off_c, 2, 67, 63
5, 279360, Note_off_c, 2, 62, 63
5, 279360, Note_off_c, 2, 58, 63
5, 279360, Note_off_c, 2, 52, 63
5, 279360, Note_off_c, 2, 48, 63
5, 280320, Note_on_c, 2, 74, 63
5, 280320, Note_on_c, 2, 69, 63
5, 280320, Note_on_c, 2, 65, 63
5, 280320, Note_on_c, 2, 59, 63
5, 280320, Note_on_c, 2, 55, 63
5, 280800, Note_off_c, 2, 74, 63
5, 280800, Note_off_c, 2, 69, 63
5, 280800, Note_off_c, 2, 65, 63
5, 280800, Note_off_c, 2, 59, 63
5, 280800, Note_off_c, 2, 55, 63
5, 281760, Note_on_c, 2, 74, 63
5, 281760, Note_on_c, 2, 69, 63
5, 281760, Note_on_c, 2, 65, 63
5, 281760, Note_on_c, 2, 59, 63
5, 281760, Note_on_c, 2, 55, 63
5, 282240, Note_off_c, 2, 74, 63
5, 282240, Note_off_c, 2, 69, 63
5, 282240, Note_off_c, 2, 65, 63
5, 282240, Note_off_c, 2, 59, 63
5, 282240, Note_off_c, 2, 55, 63
5, 283200, Note_on_c, 2, 74, 63
5, 283200, Note_on_c, 2, 69, 63
5, 283200, Note_on_c, 2, 65, 63
5, 283200, Note_on_c, 2, 59, 63
5, 283200, Note_on_c, 2, 55, 63
5, 283680, Note_off_c, 2, 74, 63
5, 283680, Note_off_c, 2, 69, 63
5, 283680, Note_off_c, 2, 65, 63
5, 283680, Note_off_c, 2, 59, 63
5, 283680, Note_off_c, 2, 55, 63
5, 284640, Note_on_c, 2, 74, 63
5, 284640, Note_on_c, 2, 69, 63
5, 284640, Note_on_c, 2, 65, 63
5, 284640, Note_on_c, 2, 59, 63
5, 284640, Note_on_c, 2, 55, 63
5, 285120, Note_off_c, 2, 74, 63
5, 285120, Note_off_c, 2, 69, 63
5, 285120, Note_off_c, 2, 65, 63
5, 285120, Note_off_c, 2, 59, 63
5, 285120, Note_off_c, 2, 55, 63
5, 286080, Note_on_c, 2, 74, 63
5, 286080, Note_on_c, 2, 69, 63
5, 286080, Note_on_c, 2, 65, 63
5, 286080, Note_on_c, 2, 59, 63
5, 286080, Note_on_c, 2, 55, 63
5, 286560, Note_off_c, 2, 74, 63
5, 286560, Note_off_c, 2, 69, 63
5, 286560, Note_off_c, 2, 65, 63
5, 286560, Note_off_c, 2, 59, 63
5, 286560, Note_off_c, 2, 55, 63
5, 287520, Note_on_c, 2, 74, 63
5, 287520, Note_on_c, 2, 69, 63
5, 287520, Note_on_c, 2, 65, 63
5, 287520, Note_on_c, 2, 59, 63
5, 287520, Note_on_c, 2, 55, 63
5, 288000, Note_off_c, 2, 74, 63
5, 288000, Note_off_c, 2, 69, 63
5, 288000, Note_off_c, 2, 65, 63
5, 288000, Note_off_c, 2, 59, 63
5, 288000, Note_off_c, 2, 55, 63
5, 288960, Note_on_c, 2, 74, 63
5, 288960, Note_on_c, 2, 69, 63
5, 288960, Note_on_c, 2, 65, 63
5, 288960, Note_on_c, 2, 59, 63
5, 288960, Note_on_c, 2, 55, 63
5, 289440, Note_off_c, 2, 74, 63
5, 289440, Note_off_c, 2, 69, 63
5, 289440, Note_off_c, 2, 65, 63
5, 289440, Note_off_c, 2, 59, 63
5, 289440, Note_off_c, 2, 55, 63
5, 290400, Note_on_c, 2, 74, 63
5, 290400, Note_on_c, 2, 69, 63
5, 290400, Note_on_c, 2, 65, 63
5, 290400, Note_on_c, 2, 59, 63
5, 290400, Note_on_c, 2, 55, 63
5, 290880, Note_off_c, 2, 74, 63
5, 290880, Note_off_c, 2, 69, 63
5, 290880, Note_off_c, 2, 65, 63
5, 290880, Note_off_c, 2, 59, 63
5, 290880, Note_off_c, 2, 55, 63
5, 291840, Note_on_c, 2, 74, 63
5, 291840, Note_on_c, 2, 69, 63
5, 291840, Note_on_c, 2, 65, 63
5, 291840, Note_on_c, 2, 59, 63
5, 291840, Note_on_c, 2, 55, 63
5, 292320, Note_off_c, 2, 74, 63
5, 292320, Note_off_c, 2, 69, 63
5, 292320, Note_off_c, 2, 65, 63
5, 292320, Note_off_c, 2, 59, 63
5, 292320, Note_off_c, 2, 55, 63
5, 293280, Note_on_c, 2, 74, 63
5, 293280, Note_on_c, 2, 69, 63
5, 293280, Note_on_c, 2, 65, 63
5, 293280, Note_on_c, 2, 59, 63
5, 293280, Note_on_c, 2, 55, 63
5, 293760, Note_off_c, 2, 74, 63
5, 293760, Note_off_c, 2, 69, 63
5, 293760, Note_off_c, 2, 65, 63
5, 293760, Note_off_c, 2, 59, 63
5, 293760, Note_off_c, 2, 55, 63
5, 294720, Note_on_c, 2, 74, 63
5, 294720, Note_on_c, 2, 69, 63
5, 294720, Note_on_c, 2, 65, 63
5, 294720, Note_on_c, 2, 59, 63
5, 294720, Note_on_c, 2, 55, 63
5, 295200, Note_off_c, 2, 74, 63
5, 295200, Note_off_c, 2, 69, 63
5, 295200, Note_off_c, 2, 65, 63
5, 295200, Note_off_c, 2, 59, 63
5, 295200, Note_off_c, 2, 55, 63
5, 296160, Note_on_c, 2, 74, 63
5, 296160, Note_on_c, 2, 69, 63
5, 296160, Note_on_c, 2, 65, 63
5, 296160, Note_on_c, 2, 59, 63
5, 296160, Note_on_c, 2, 55, 63
5, 296640, Note_off_c, 2, 74, 63
5, 296640, Note_off_c, 2, 69, 63
5, 296640, Note_off_c, 2, 65, 63
5, 296640, Note_off_c, 2, 59, 63
5, 296640, Note_off_c, 2, 55, 63
5, 297600, Note_on_c, 2, 67, 63
5, 297600, Note_on_c, 2, 62, 63
5, 297600, Note_on_c, 2, 58, 63
5, 297600, Note_on_c, 2, 52, 63
5, 297600, Note_on_c, 2, 48, 63
5, 298080, Note_off_c, 2, 67, 63
5, 298080, Note_off_c, 2, 62, 63
5, 298080, Note_off_c, 2, 58, 63
5, 298080, Note_off_c, 2, 52, 63
5, 298080, Note_off_c, 2, 48, 63
5, 299040, Note_on_c, 2, 67, 63
5, 299040, Note_on_c, 2, 62, 63
5, 299040, Note_on_c, 2, 58, 63
5, 299040, Note_on_c, 2, 52, 63
5, 299040, Note_on_c, 2, 48, 63
5, 299520, Note_off_c, 2, 67, 63
5, 299520, Note_off_c, 2, 62, 63
5, 299520, Note_off_c, 2, 58, 63
5, 299520, Note_off_c, 2, 52, 63
5, 299520, Note_off_c, 2, 48, 63
5, 300480, Note_on_c, 2, 67, 63
5, 300480, Note_on_c, 2, 62, 63
5, 300480, Note_on_c, 2, 58, 63
5, 300480, Note_on_c, 2, 52, 63
5, 300480, Note_on_c, 2, 48, 63
5, 300960, Note_off_c, 2, 67, 63
5, 300960, Note_off_c, 2, 62, 63
5, 300960, Note_off_c, 2, 58, 63
5, 300960, Note_off_c, 2, 52, 63
5, 300960, Note_off_c, 2, 48, 63
5, 301920, Note_on_c, 2, 67, 63
5, 301920, Note_on_c, 2, 62, 63
5, 301920, Note_on_c, 2, 58, 63
5, 301920, Note_on_c, 2, 52, 63
5, 301920, Note_on_c, 2, 48, 63
5, 302400, Note_off_c, 2, 67, 63
5, 302400, Note_off_c, 2, 62, 63
5, 302400, Note_off_c, 2, 58, 63
5, 302400, Note_off_c, 2, 52, 63
5, 302400, Note_off_c, 2, 48, 63
5, 303360, Note_on_c, 2, 74, 63
5, 303360, Note_on_c, 2, 69, 63
5, 303360, Note_on_c, 2, 65, 63
5, 303360, Note_on_c, 2, 59, 63
5, 303360, Note_on_c, 2, 55, 63
5, 303840, Note_off_c, 2, 74, 63
5, 303840, Note_off_c, 2, 69, 63
5, 303840, Note_off_c, 2, 65, 63
5, 303840, Note_off_c, 2, 59, 63
5, 303840, Note_off_c, 2, 55, 63
5, 304800, Note_on_c, 2, 74, 63
5, 304800, Note_on_c, 2, 69, 63
5, 304800, Note_on_c, 2, 65, 63
5, 304800, Note_on_c, 2, 59, 63
5, 304800, Note_on_c, 2, 55, 63
5, 305280, Note_off_c, 2, 74, 63
5, 305280, Note_off_c, 2, 69, 63
5, 305280, Note_off_c, 2, 65, 63
5, 305280, Note_off_c, 2, 59, 63
5, 305280, Note_off_c, 2, 55, 63
5, 306240, Note_on_c, 2, 74, 63
5, 306240, Note_on_c, 2, 69, 63
5, 306240, Note_on_c, 2, 65, 63
5, 306240, Note_on_c, 2, 59, 63
5, 306240, Note_on_c, 2, 55, 63
5, 306720, Note_off_c, 2, 74, 63
5, 306720, Note_off_c, 2, 69, 63
5, 306720, Note_off_c, 2, 65, 63
5, 306720, Note_off_c, 2, 59, 63
5, 306720, Note_off_c, 2, 55, 63
5, 307680, Note_on_c, 2, 74, 63
5, 307680, Note_on_c, 2, 69, 63
5, 307680, Note_on_c, 2, 65, 63
5, 307680, Note_on_c, 2, 59, 63
5, 307680, Note_on_c, 2, 55, 63
5, 308160, Note_off_c, 2, 74, 63
5, 308160, Note_off_c, 2, 69, 63
5, 308160, Note_off_c, 2, 65, 63
5, 308160, Note_off_c, 2, 59, 63
5, 308160, Note_off_c, 2, 55, 63
5, 309120, Note_on_c, 2, 74, 63
5, 309120, Note_on_c, 2, 69, 63
5, 309120, Note_on_c, 2, 65, 63
5, 309120, Note_on_c, 2, 59, 63
5, 309120, Note_on_c, 2, 55, 63
5, 309600, Note_off_c, 2, 74, 63
5, 309600, Note_off_c, 2, 69, 63
5, 309600, Note_off_c, 2, 65, 63
5, 309600, Note_off_c, 2, 59, 63
5, 309600, Note_off_c, 2, 55, 63
5, 310560, Note_on_c, 2, 74, 63
5, 310560, Note_on_c, 2, 69, 63
5, 310560, Note_on_c, 2, 65, 63
5, 310560, Note_on_c, 2, 59, 63
5, 310560, Note_on_c, 2, 55, 63
5, 311040, Note_off_c, 2, 74, 63
5, 311040, Note_off_c, 2, 69, 63
5, 311040, Note_off_c, 2, 65, 63
5, 311040, Note_off_c, 2, 59, 63
5, 311040, Note_off_c, 2, 55, 63
5, 312000, Note_on_c, 2, 74, 63
5, 312000, Note_on_c, 2, 69, 63
5, 312000, Note_on_c, 2, 65, 63
5, 312000, Note_on_c, 2, 59, 63
5, 312000, Note_on_c, 2, 55, 63
5, 312480, Note_off_c, 2, 74, 63
5, 312480, Note_off_c, 2, 69, 63
5, 312480, Note_off_c, 2, 65, 63
5, 312480, Note_off_c, 2, 59, 63
5, 312480, Note_off_c, 2, 55, 63
5, 313440, Note_on_c, 2, 74, 63
5, 313440, Note_on_c, 2, 69, 63
5, 313440, Note_on_c, 2, 65, 63
5, 313440, Note_on_c, 2, 59, 63
5, 313440, Note_on_c, 2, 55, 63
5, 313920, Note_off_c, 2, 74, 63
5, 313920, Note_off_c, 2, 69, 63
5, 313920, Note_off_c, 2, 65, 63
5, 313920, Note_off_c, 2, 59, 63
5, 313920, Note_off_c, 2, 55, 63
5, 314880, Note_on_c, 2, 67, 63
5, 314880, Note_on_c, 2, 62, 63
5, 314880, Note_on_c, 2, 58, 63
5, 314880, Note_on_c, 2, 52, 63
5, 314880, Note_on_c, 2, 48, 63
5, 315360, Note_off_c, 2, 67, 63
5, 315360, Note_off_c, 2, 62, 63
5, 315360, Note_off_c, 2, 58, 63
5, 315360, Note_off_c, 2, 52, 63
5, 315360, Note_off_c, 2, 48, 63
5, 316320, Note_on_c, 2, 67, 63
5, 316320, Note_on_c, 2, 62, 63
5, 316320, Note_on_c, 2, 58, 63
5, 316320, Note_on_c, 2, 52, 63
5, 316320, Note_on_c, 2, 48, 63
5, 316800, Note_off_c, 2, 67, 63
5, 316800, Note_off_c, 2, 62, 63
5, 316800, Note_off_c, 2, 58, 63
5, 316800, Note_off_c, 2, 52, 63
5, 316800, Note_off_c, 2, 48, 63
5, 317760, Note_on_c, 2, 67, 63
5, 317760, Note_on_c, 2, 62, 63
5, 317760, Note_on_c, 2, 58, 63
5, 317760, Note_on_c, 2, 52, 63
5, 317760, Note_on_c, 2, 48, 63
5, 318240, Note_off_c, 2, 67, 63
5, 318240, Note_off_c, 2, 62, 63
5, 318240, Note_off_c, 2, 58, 63
5, 318240, Note_off_c, 2, 52, 63
5, 318240, Note_off_c, 2, 48, 63
5, 319200, Note_on_c, 2, 67, 63
5, 319200, Note_on_c, 2, 62, 63
5, 319200, Note_on_c, 2, 58, 63
5, 319200, Note_on_c, 2, 52, 63
5, 319200, Note_on_c, 2, 48, 63
5, 319680, Note_off_c, 2, 67, 63
5, 319680, Note_off_c, 2, 62, 63
5, 319680, Note_off_c, 2, 58, 63
5, 319680, Note_off_c, 2, 52, 63
5, 319680, Note_off_c, 2, 48, 63
5, 320640, Note_on_c, 2, 67, 63
5, 320640, Note_on_c, 2, 62, 63
5, 320640, Note_on_c, 2, 58, 63
5, 320640, Note_on_c, 2, 52, 63
5, 320640, Note_on_c, 2, 48, 63
5, 321120, Note_off_c, 2, 67, 63
5, 321120, Note_off_c, 2, 62, 63
5, 321120, Note_off_c, 2, 58, 63
5, 321120, Note_off_c, 2, 52, 63
5, 321120, Note_off_c, 2, 48, 63
5, 322080, Note_on_c, 2, 67, 63
5, 322080, Note_on_c, 2, 62, 63
5, 322080, Note_on_c, 2, 58, 63
5, 322080, Note_on_c, 2, 52, 63
5, 322080, Note_on_c, 2, 48, 63
5, 322560, Note_off_c, 2, 67, 63
5, 322560, Note_off_c, 2, 62, 63
5, 322560, Note_off_c, 2, 58, 63
5, 322560, Note_off_c, 2, 52, 63
5, 322560, Note_off_c, 2, 48, 63
5, 323520, Note_on_c, 2, 67, 63
5, 323520, Note_on_c, 2, 62, 63
5, 323520, Note_on_c, 2, 58, 63
5, 323520, Note_on_c, 2, 52, 63
5, 323520, Note_on_c, 2, 48, 63
5, 324000, Note_off_c, 2, 67, 63
5, 324000, Note_off_c, 2, 62, 63
5, 324000, Note_off_c, 2, 58, 63
5, 324000, Note_off_c, 2, 52, 63
5, 324000, Note_off_c, 2, 48, 63
5, 324960, Note_on_c, 2, 67, 63
5, 324960, Note_on_c, 2, 62, 63
5, 324960, Note_on_c, 2, 58, 63
5, 324960, Note_on_c, 2, 52, 63
5, 324960, Note_on_c, 2, 48, 63
5, 325440, Note_off_c, 2, 67, 63
5, 325440, Note_off_c, 2, 62, 63
5, 325440, Note_off_c, 2, 58, 63
5, 325440, Note_off_c, 2, 52, 63
5, 325440, Note_off_c, 2, 48, 63
5, 326400, Note_on_c, 2, 74, 63
5, 326400, Note_on_c, 2, 69, 63
5, 326400, Note_on_c, 2, 65, 63
5, 326400, Note_on_c, 2, 59, 63
5, 326400, Note_on_c, 2, 55, 63
5, 326880, Note_off_c, 2, 74, 63
5, 326880, Note_off_c, 2, 69, 63
5, 326880, Note_off_c, 2, 65, 63
5, 326880, Note_off_c, 2, 59, 63
5, 326880, Note_off_c, 2, 55, 63
5, 327840, Note_on_c, 2, 74, 63
5, 327840, Note_on_c, 2, 69, 63
5, 327840, Note_on_c, 2, 65, 63
5, 327840, Note_on_c, 2, 59, 63
5, 327840, Note_on_c, 2, 55, 63
5, 328320, Note_off_c, 2, 74, 63
5, 328320, Note_off_c, 2, 69, 63
5, 328320, Note_off_c, 2, 65, 63
5, 328320, Note_off_c, 2, 59, 63
5, 328320, Note_off_c, 2, 55, 63
5, 329280, Note_on_c, 2, 74, 63
5, 329280, Note_on_c, 2, 69, 63
5, 329280, Note_on_c, 2, 65, 63
5, 329280, Note_on_c, 2, 59, 63
5, 329280, Note_on_c, 2, 55, 63
5, 329760, Note_off_c, 2, 74, 63
5, 329760, Note_off_c, 2, 69, 63
5, 329760, Note_off_c, 2, 65, 63
5, 329760, Note_off_c, 2, 59, 63
5, 329760, Note_off_c, 2, 55, 63
5, 330720, Note_on_c, 2, 74, 63
5, 330720, Note_on_c, 2, 69, 63
5, 330720, Note_on_c, 2, 65, 63
5, 330720, Note_on_c, 2, 59, 63
5, 330720, Note_on_c, 2, 55, 63
5, 331200, Note_off_c, 2, 74, 63
5, 331200, Note_off_c, 2, 69, 63
5, 331200, Note_off_c, 2, 65, 63
5, 331200, Note_off_c, 2, 59, 63
5, 331200, Note_off_c, 2, 55, 63
5, 332160, Note_on_c, 2, 74, 63
5, 332160, Note_on_c, 2, 69, 63
5, 332160, Note_on_c, 2, 65, 63
5, 332160, Note_on_c, 2, 59, 63
5, 332160, Note_on_c, 2, 55, 63
5, 332640, Note_off_c, 2, 74, 63
5, 332640, Note_off_c, 2, 69, 63
5, 332640, Note_off_c, 2, 65, 63
5, 332640, Note_off_c, 2, 59, 63
5, 332640, Note_off_c, 2, 55, 63
5, 333600, Note_on_c, 2, 74, 63
5, 333600, Note_on_c, 2, 69, 63
5, 333600, Note_on_c, 2, 65, 63
5, 333600, Note_on_c, 2, 59, 63
5, 333600, Note_on_c, 2, 55, 63
5, 334080, Note_off_c, 2, 74, 63
5, 334080, Note_off_c, 2, 69, 63
5, 334080, Note_off_c, 2, 65, 63
5, 334080, Note_off_c, 2, 59, 63
5, 334080, Note_off_c, 2, 55, 63
5, 335040, Note_on_c, 2, 74, 63
5, 335040, Note_on_c, 2, 69, 63
5, 335040, Note_on_c, 2, 65, 63
5, 335040, Note_on_c, 2, 59, 63
5, 335040, Note_on_c, 2, 55, 63
5, 335520, Note_off_c, 2, 74, 63
5, 335520, Note_off_c, 2, 69, 63
5, 335520, Note_off_c, 2, 65, 63
5, 335520, Note_off_c, 2, 59, 63
5, 335520, Note_off_c, 2, 55, 63
5, 336480, Note_on_c, 2, 74, 63
5, 336480, Note_on_c, 2, 69, 63
5, 336480, Note_on_c, 2, 65, 63
5, 336480, Note_on_c, 2, 59, 63
5, 336480, Note_on_c, 2, 55, 63
5, 336960, Note_off_c, 2, 74, 63
5, 336960, Note_off_c, 2, 69, 63
5, 336960, Note_off_c, 2, 65, 63
5, 336960, Note_off_c, 2, 59, 63
5, 336960, Note_off_c, 2, 55, 63
5, 337920, Note_on_c, 2, 69, 63
5, 337920, Note_on_c, 2, 64, 63
5, 337920, Note_on_c, 2, 60, 63
5, 337920, Note_on_c, 2, 54, 63
5, 337920, Note_on_c, 2, 50, 63
5, 338400, Note_off_c, 2, 69, 63
5, 338400, Note_off_c, 2, 64, 63
5, 338400, Note_off_c, 2, 60, 63
5, 338400, Note_off_c, 2, 54, 63
5, 338400, Note_off_c, 2, 50, 63
5, 339360, Note_on_c, 2, 69, 63
5, 339360, Note_on_c, 2, 64, 63
5, 339360, Note_on_c, 2, 60, 63
5, 339360, Note_on_c, 2, 54, 63
5, 339360, Note_on_c, 2, 50, 63
5, 339840, Note_off_c, 2, 69, 63
5, 339840, Note_off_c, 2, 64, 63
5, 339840, Note_off_c, 2, 60, 63
5, 339840, Note_off_c, 2, 54, 63
5, 339840, Note_off_c, 2, 50, 63
5, 340800, Note_on_c, 2, 69, 63
5, 340800, Note_on_c, 2, 64, 63
5, 340800, Note_on_c, 2, 60, 63
5, 340800, Note_on_c, 2, 54, 63
5, 340800, Note_on_c, 2, 50, 63
5, 341280, Note_off_c, 2, 69, 63
5, 341280, Note_off_c, 2, 64, 63
5, 341280, Note_off_c, 2, 60, 63
5, 341280, Note_off_c, 2, 54, 63
5, 341280, Note_off_c, 2, 50, 63
5, 342240, Note_on_c, 2, 69, 63
5, 342240, Note_on_c, 2, 64, 63
5, 342240, Note_on_c, 2, 60, 63
5, 342240, Note_on_c, 2, 54, 63
5, 342240, Note_on_c, 2, 50, 63
5, 342720, Note_off_c, 2, 69, 63
5, 342720, Note_off_c, 2, 64, 63
5, 342720, Note_off_c, 2, 60, 63
5, 342720, Note_off_c, 2, 54, 63
5, 342720, Note_off_c, 2, 50, 63
5, 343680, Note_on_c, 2, 67, 63
5, 343680, Note_on_c, 2, 62, 63
5, 343680, Note_on_c, 2, 58, 63
5, 343680, Note_on_c, 2, 52, 63
5, 343680, Note_on_c, 2, 48, 63
5, 344160, Note_off_c, 2, 67, 63
5, 344160, Note_off_c, 2, 62, 63
5, 344160, Note_off_c, 2, 58, 63
5, 344160, Note_off_c, 2, 52, 63
5, 344160, Note_off_c, 2, 48, 63
5, 345120, Note_on_c, 2, 67, 63
5, 345120, Note_on_c, 2, 62, 63
5, 345120, Note_on_c, 2, 58, 63
5, 345120, Note_on_c, 2, 52, 63
5, 345120, Note_on_c, 2, 48, 63
5, 345600, Note_off_c, 2, 67, 63
5, 345600, Note_off_c, 2, 62, 63
5, 345600, Note_off_c, 2, 58, 63
5, 345600, Note_off_c, 2, 52, 63
5, 345600, Note_off_c, 2, 48, 63
5, 346560, Note_on_c, 2, 67, 63
5, 346560, Note_on_c, 2, 62, 63
5, 346560, Note_on_c, 2, 58, 63
5, 346560, Note_on_c, 2, 52, 63
5, 346560, Note_on_c, 2, 48, 63
5, 347040, Note_off_c, 2, 67, 63
5, 347040, Note_off_c, 2, 62, 63
5, 347040, Note_off_c, 2, 58, 63
5, 347040, Note_off_c, 2, 52, 63
5, 347040, Note_off_c, 2, 48, 63
5, 348000, Note_on_c, 2, 67, 63
5, 348000, Note_on_c, 2, 62, 63
5, 348000, Note_on_c, 2, 58, 63
5, 348000, Note_on_c, 2, 52, 63
5, 348000, Note_on_c, 2, 48, 63
5, 348480, Note_off_c, 2, 67, 63
5, 348480, Note_off_c, 2, 62, 63
5, 348480, Note_off_c, 2, 58, 63
5, 348480, Note_off_c, 2, 52, 63
5, 348480, Note_off_c, 2, 48, 63
5, 349440, Note_on_c, 2, 74, 63
5, 349440, Note_on_c, 2, 69, 63
5, 349440, Note_on_c, 2, 65, 63
5, 349440, Note_on_c, 2, 59, 63
5, 349440, Note_on_c, 2, 55, 63
5, 349920, Note_off_c, 2, 74, 63
5, 349920, Note_off_c, 2, 69, 63
5, 349920, Note_off_c, 2, 65, 63
5, 349920, Note_off_c, 2, 59, 63
5, 349920, Note_off_c, 2, 55, 63
5, 350880, Note_on_c, 2, 74, 63
5, 350880, Note_on_c, 2, 69, 63
5, 350880, Note_on_c, 2, 65, 63
5, 350880, Note_on_c, 2, 59, 63
5, 350880, Note_on_c, 2, 55, 63
5, 351360, Note_off_c, 2, 74, 63
5, 351360, Note_off_c, 2, 69, 63
5, 351360, Note_off_c, 2, 65, 63
5, 351360, Note_off_c, 2, 59, 63
5, 351360, Note_off_c, 2, 55, 63
5, 352320, Note_on_c, 2, 74, 63
5, 352320, Note_on_c, 2, 69, 63
5, 352320, Note_on_c, 2, 65, 63
5, 352320, Note_on_c, 2, 59, 63
5, 352320, Note_on_c, 2, 55, 63
5, 352800, Note_off_c, 2, 74, 63
5, 352800, Note_off_c, 2, 69, 63
5, 352800, Note_off_c, 2, 65, 63
5, 352800, Note_off_c, 2, 59, 63
5, 352800, Note_off_c, 2, 55, 63
5, 353760, Note_on_c, 2, 74, 63
5, 353760, Note_on_c, 2, 69, 63
5, 353760, Note_on_c, 2, 65, 63
5, 353760, Note_on_c, 2, 59, 63
5, 353760, Note_on_c, 2, 55, 63
5, 354240, Note_off_c, 2, 74, 63
5, 354240, Note_off_c, 2, 69, 63
5, 354240, Note_off_c, 2, 65, 63
5, 354240, Note_off_c, 2, 59, 63
5, 354240, Note_off_c, 2, 55, 63
5, 355200, Note_on_c, 2, 74, 63
5, 355200, Note_on_c, 2, 69, 63
5, 355200, Note_on_c, 2, 65, 63
5, 355200, Note_on_c, 2, 59, 63
5, 355200, Note_on_c, 2, 55, 63
5, 355680, Note_off_c, 2, 74, 63
5, 355680, Note_off_c, 2, 69, 63
5, 355680, Note_off_c, 2, 65, 63
5, 355680, Note_off_c, 2, 59, 63
5, 355680, Note_off_c, 2, 55, 63
5, 356640, Note_on_c, 2, 74, 63
5, 356640, Note_on_c, 2, 69, 63
5, 356640, Note_on_c, 2, 65, 63
5, 356640, Note_on_c, 2, 59, 63
5, 356640, Note_on_c, 2, 55, 63
5, 357120, Note_off_c, 2, 74, 63
5, 357120, Note_off_c, 2, 69, 63
5, 357120, Note_off_c, 2, 65, 63
5, 357120, Note_off_c, 2, 59, 63
5, 357120, Note_off_c, 2, 55, 63
5, 358080, Note_on_c, 2, 74, 63
5, 358080, Note_on_c, 2, 69, 63
5, 358080, Note_on_c, 2, 65, 63
5, 358080, Note_on_c, 2, 59, 63
5, 358080, Note_on_c, 2, 55, 63
5, 358560, Note_off_c, 2, 74, 63
5, 358560, Note_off_c, 2, 69, 63
5, 358560, Note_off_c, 2, 65, 63
5, 358560, Note_off_c, 2, 59, 63
5, 358560, Note_off_c, 2, 55, 63
5, 359520, Note_on_c, 2, 74, 63
5, 359520, Note_on_c, 2, 69, 63
5, 359520, Note_on_c, 2, 65, 63
5, 359520, Note_on_c, 2, 59, 63
5, 359520, Note_on_c, 2, 55, 63
5, 360000, Note_off_c, 2, 74, 63
5, 360000, Note_off_c, 2, 69, 63
5, 360000, Note_off_c, 2, 65, 63
5, 360000, Note_off_c, 2, 59, 63
5, 360000, Note_off_c, 2, 55, 63
5, 360960, Note_on_c, 2, 74, 63
5, 360960, Note_on_c, 2, 69, 63
5, 360960, Note_on_c, 2, 65, 63
5, 360960, Note_on_c, 2, 59, 63
5, 360960, Note_on_c, 2, 55, 63
5, 361440, Note_off_c, 2, 74, 63
5, 361440, Note_off_c, 2, 69, 63
5, 361440, Note_off_c, 2, 65, 63
5, 361440, Note_off_c, 2, 59, 63
5, 361440, Note_off_c, 2, 55, 63
5, 362400, Note_on_c, 2, 74, 63
5, 362400, Note_on_c, 2, 69, 63
5, 362400, Note_on_c, 2, 65, 63
5, 362400, Note_on_c, 2, 59, 63
5, 362400, Note_on_c, 2, 55, 63
5, 362880, Note_off_c, 2, 74, 63
5, 362880, Note_off_c, 2, 69, 63
5, 362880, Note_off_c, 2, 65, 63
5, 362880, Note_off_c, 2, 59, 63
5, 362880, Note_off_c, 2, 55, 63
5, 363840, Note_on_c, 2, 74, 63
5, 363840, Note_on_c, 2, 69, 63
5, 363840, Note_on_c, 2, 65, 63
5, 363840, Note_on_c, 2, 59, 63
5, 363840, Note_on_c, 2, 55, 63
5, 364320, Note_off_c, 2, 74, 63
5, 364320, Note_off_c, 2, 69, 63
5, 364320, Note_off_c, 2, 65, 63
5, 364320, Note_off_c, 2, 59, 63
5, 364320, Note_off_c, 2, 55, 63
5, 365280, Note_on_c, 2, 74, 63
5, 365280, Note_on_c, 2, 69, 63
5, 365280, Note_on_c, 2, 65, 63
5, 365280, Note_on_c, 2, 59, 63
5, 365280, Note_on_c, 2, 55, 63
5, 365760, Note_off_c, 2, 74, 63
5, 365760, Note_off_c, 2, 69, 63
5, 365760, Note_off_c, 2, 65, 63
5, 365760, Note_off_c, 2, 59, 63
5, 365760, Note_off_c, 2, 55, 63
5, 366720, Note_on_c, 2, 67, 63
5, 366720, Note_on_c, 2, 62, 63
5, 366720, Note_on_c, 2, 58, 63
5, 366720, Note_on_c, 2, 52, 63
5, 366720, Note_on_c, 2, 48, 63
5, 367200, Note_off_c, 2, 67, 63
5, 367200, Note_off_c, 2, 62, 63
5, 367200, Note_off_c, 2, 58, 63
5, 367200, Note_off_c, 2, 52, 63
5, 367200, Note_off_c, 2, 48, 63
5, 368160, Note_on_c, 2, 67, 63
5, 368160, Note_on_c, 2, 62, 63
5, 368160, Note_on_c, 2, 58, 63
5, 368160, Note_on_c, 2, 52, 63
5, 368160, Note_on_c, 2, 48, 63
5, 368640, Note_off_c, 2, 67, 63
5, 368640, Note_off_c, 2, 62, 63
5, 368640, Note_off_c, 2, 58, 63
5, 368640, Note_off_c, 2, 52, 63
5, 368640, Note_off_c, 2, 48, 63
5, 369600, Note_on_c, 2, 67, 63
5, 369600, Note_on_c, 2, 62, 63
5, 369600, Note_on_c, 2, 58, 63
5, 369600, Note_on_c, 2, 52, 63
5, 369600, Note_on_c, 2, 48, 63
5, 370080, Note_off_c, 2, 67, 63
5, 370080, Note_off_c, 2, 62, 63
5, 370080, Note_off_c, 2, 58, 63
5, 370080, Note_off_c, 2, 52, 63
5, 370080, Note_off_c, 2, 48, 63
5, 371040, Note_on_c, 2, 67, 63
5, 371040, Note_on_c, 2, 62, 63
5, 371040, Note_on_c, 2, 58, 63
5, 371040, Note_on_c, 2, 52, 63
5, 371040, Note_on_c, 2, 48, 63
5, 371520, Note_off_c, 2, 67, 63
5, 371520, Note_off_c, 2, 62, 63
5, 371520, Note_off_c, 2, 58, 63
5, 371520, Note_off_c, 2, 52, 63
5, 371520, Note_off_c, 2, 48, 63
5, 372480, Note_on_c, 2, 74, 63
5, 372480, Note_on_c, 2, 69, 63
5, 372480, Note_on_c, 2, 65, 63
5, 372480, Note_on_c, 2, 59, 63
5, 372480, Note_on_c, 2, 55, 63
5, 372960, Note_off_c, 2, 74, 63
5, 372960, Note_off_c, 2, 69, 63
5, 372960, Note_off_c, 2, 65, 63
5, 372960, Note_off_c, 2, 59, 63
5, 372960, Note_off_c, 2, 55, 63
5, 373920, Note_on_c, 2, 74, 63
5, 373920, Note_on_c, 2, 69, 63
5, 373920, Note_on_c, 2, 65, 63
5, 373920, Note_on_c, 2, 59, 63
5, 373920, Note_on_c, 2, 55, 63
5, 374400, Note_off_c, 2, 74, 63
5, 374400, Note_off_c, 2, 69, 63
5, 374400, Note_off_c, 2, 65, 63
5, 374400, Note_off_c, 2, 59, 63
5, 374400, Note_off_c, 2, 55, 63
5, 375360, Note_on_c, 2, 74, 63
5, 375360, Note_on_c, 2, 69, 63
5, 375360, Note_on_c, 2, 65, 63
5, 375360, Note_on_c, 2, 59, 63
5, 375360, Note_on_c, 2, 55, 63
5, 375840, Note_off_c, 2, 74, 63
5, 375840, Note_off_c, 2, 69, 63
5, 375840, Note_off_c, 2, 65, 63
5, 375840, Note_off_c, 2, 59, 63
5, 375840, Note_off_c, 2, 55, 63
5, 376800, Note_on_c, 2, 74, 63
5, 376800, Note_on_c, 2, 69, 63
5, 376800, Note_on_c, 2, 65, 63
5, 376800, Note_on_c, 2, 59, 63
5, 376800, Note_on_c, 2, 55, 63
5, 377280, Note_off_c, 2, 74, 63
5, 377280, Note_off_c, 2, 69, 63
5, 377280, Note_off_c, 2, 65, 63
5, 377280, Note_off_c, 2, 59, 63
5, 377280, Note_off_c, 2, 55, 63
5, 378240, Note_on_c, 2, 74, 63
5, 378240, Note_on_c, 2, 69, 63
5, 378240, Note_on_c, 2, 65, 63
5, 378240, Note_on_c, 2, 59, 63
5, 378240, Note_on_c, 2, 55, 63
5, 378720, Note_off_c, 2, 74, 63
5, 378720, Note_off_c, 2, 69, 63
5, 378720, Note_off_c, 2, 65, 63
5, 378720, Note_off_c, 2, 59, 63
5, 378720, Note_off_c, 2, 55, 63
5, 379680, Note_on_c, 2, 74, 63
5, 379680, Note_on_c, 2, 69, 63
5, 379680, Note_on_c, 2, 65, 63
5, 379680, Note_on_c, 2, 59, 63
5, 379680, Note_on_c, 2, 55, 63
5, 380160, Note_off_c, 2, 74, 63
5, 380160, Note_off_c, 2, 69, 63
5, 380160, Note_off_c, 2, 65, 63
5, 380160, Note_off_c, 2, 59, 63
5, 380160, Note_off_c, 2, 55, 63
5, 381120, Note_on_c, 2, 74, 63
5, 381120, Note_on_c, 2, 69, 63
5, 381120, Note_on_c, 2, 65, 63
5, 381120, Note_on_c, 2, 59, 63
5, 381120, Note_on_c, 2, 55, 63
5, 381600, Note_off_c, 2, 74, 63
5, 381600, Note_off_c, 2, 69, 63
5, 381600, Note_off_c, 2, 65, 63
5, 381600, Note_off_c, 2, 59, 63
5, 381600, Note_off_c, 2, 55, 63
5, 382560, Note_on_c, 2, 74, 63
5, 382560, Note_on_c, 2, 69, 63
5, 382560, Note_on_c, 2, 65, 63
5, 382560, Note_on_c, 2, 59, 63
5, 382560, Note_on_c, 2, 55, 63
5, 383040, Note_off_c, 2, 74, 63
5, 383040, Note_off_c, 2, 69, 63
5, 383040, Note_off_c, 2, 65, 63
5, 383040, Note_off_c, 2, 59, 63
5, 383040, Note_off_c, 2, 55, 63
5, 384000, Note_on_c, 2, 67, 63
5, 384000, Note_on_c, 2, 62, 63
5, 384000, Note_on_c, 2, 58, 63
5, 384000, Note_on_c, 2, 52, 63
5, 384000, Note_on_c, 2, 48, 63
5, 384480, Note_off_c, 2, 67, 63
5, 384480, Note_off_c, 2, 62, 63
5, 384480, Note_off_c, 2, 58, 63
5, 384480, Note_off_c, 2, 52, 63
5, 384480, Note_off_c, 2, 48, 63
5, 385440, Note_on_c, 2, 67, 63
5, 385440, Note_on_c, 2, 62, 63
5, 385440, Note_on_c, 2, 58, 63
5, 385440, Note_on_c, 2, 52, 63
5, 385440, Note_on_c, 2, 48, 63
5, 385920, Note_off_c, 2, 67, 63
5, 385920, Note_off_c, 2, 62, 63
5, 385920, Note_off_c, 2, 58, 63
5, 385920, Note_off_c, 2, 52, 63
5, 385920, Note_off_c, 2, 48, 63
5, 386880, Note_on_c, 2, 67, 63
5, 386880, Note_on_c, 2, 62, 63
5, 386880, Note_on_c, 2, 58, 63
5, 386880, Note_on_c, 2, 52, 63
5, 386880, Note_on_c, 2, 48, 63
5, 387360, Note_off_c, 2, 67, 63
5, 387360, Note_off_c, 2, 62, 63
5, 387360, Note_off_c, 2, 58, 63
5, 387360, Note_off_c, 2, 52, 63
5, 387360, Note_off_c, 2, 48, 63
5, 388320, Note_on_c, 2, 67, 63
5, 388320, Note_on_c, 2, 62, 63
5, 388320, Note_on_c, 2, 58, 63
5, 388320, Note_on_c, 2, 52, 63
5, 388320, Note_on_c, 2, 48, 63
5, 388800, Note_off_c, 2, 67, 63
5, 388800, Note_off_c, 2, 62, 63
5, 388800, Note_off_c, 2, 58, 63
5, 388800, Note_off_c, 2, 52, 63
5, 388800, Note_off_c, 2, 48, 63
5, 389760, Note_on_c, 2, 67, 63
5, 389760, Note_on_c, 2, 62, 63
5, 389760, Note_on_c, 2, 58, 63
5, 389760, Note_on_c, 2, 52, 63
5, 389760, Note_on_c, 2, 48, 63
5, 390240, Note_off_c, 2, 67, 63
5, 390240, Note_off_c, 2, 62, 63
5, 390240, Note_off_c, 2, 58, 63
5, 390240, Note_off_c, 2, 52, 63
5, 390240, Note_off_c, 2, 48, 63
5, 391200, Note_on_c, 2, 67, 63
5, 391200, Note_on_c, 2, 62, 63
5, 391200, Note_on_c, 2, 58, 63
5, 391200, Note_on_c, 2, 52, 63
5, 391200, Note_on_c, 2, 48, 63
5, 391680, Note_off_c, 2, 67, 63
5, 391680, Note_off_c, 2, 62, 63
5, 391680, Note_off_c, 2, 58, 63
5, 391680, Note_off_c, 2, 52, 63
5, 391680, Note_off_c, 2, 48, 63
5, 392640, Note_on_c, 2, 67, 63
5, 392640, Note_on_c, 2, 62, 63
5, 392640, Note_on_c, 2, 58, 63
5, 392640, Note_on_c, 2, 52, 63
5, 392640, Note_on_c, 2, 48, 63
5, 393120, Note_off_c, 2, 67, 63
5, 393120, Note_off_c, 2, 62, 63
5, 393120, Note_off_c, 2, 58, 63
5, 393120, Note_off_c, 2, 52, 63
5, 393120, Note_off_c, 2, 48, 63
5, 394080, Note_on_c, 2, 67, 63
5, 394080, Note_on_c, 2, 62, 63
5, 394080, Note_on_c, 2, 58, 63
5, 394080, Note_on_c, 2, 52, 63
5, 394080, Note_on_c, 2, 48, 63
5, 394560, Note_off_c, 2, 67, 63
5, 394560, Note_off_c, 2, 62, 63
5, 394560, Note_off_c, 2, 58, 63
5, 394560, Note_off_c, 2, 52, 63
5, 394560, Note_off_c, 2, 48, 63
5, 395520, Note_on_c, 2, 74, 63
5, 395520, Note_on_c, 2, 69, 63
5, 395520, Note_on_c, 2, 65, 63
5, 395520, Note_on_c, 2, 59, 63
5, 395520, Note_on_c, 2, 55, 63
5, 396000, Note_off_c, 2, 74, 63
5, 396000, Note_off_c, 2, 69, 63
5, 396000, Note_off_c, 2, 65, 63
5, 396000, Note_off_c, 2, 59, 63
5, 396000, Note_off_c, 2, 55, 63
5, 396960, Note_on_c, 2, 74, 63
5, 396960, Note_on_c, 2, 69, 63
5, 396960, Note_on_c, 2, 65, 63
5, 396960, Note_on_c, 2, 59, 63
5, 396960, Note_on_c, 2, 55, 63
5, 397440, Note_off_c, 2, 74, 63
5, 397440, Note_off_c, 2, 69, 63
5, 397440, Note_off_c, 2, 65, 63
5, 397440, Note_off_c, 2, 59, 63
5, 397440, Note_off_c, 2, 55, 63
5, 398400, Note_on_c, 2, 74, 63
5, 398400, Note_on_c, 2, 69, 63
5, 398400, Note_on_c, 2, 65, 63
5, 398400, Note_on_c, 2, 59, 63
5, 398400, Note_on_c, 2, 55, 63
5, 398880, Note_off_c, 2, 74, 63
5, 398880, Note_off_c, 2, 69, 63
5, 398880, Note_off_c, 2, 65, 63
5, 398880, Note_off_c, 2, 59, 63
5, 398880, Note_off_c, 2, 55, 63
5, 399840, Note_on_c, 2, 74, 63
5, 399840, Note_on_c, 2, 69, 63
5, 399840, Note_on_c, 2, 65, 63
5, 399840, Note_on_c, 2, 59, 63
5, 399840, Note_on_c, 2, 55, 63
5, 400320, Note_off_c, 2, 74, 63
5, 400320, Note_off_c, 2, 69, 63
5, 400320, Note_off_c, 2, 65, 63
5, 400320, Note_off_c, 2, 59, 63
5, 400320, Note_off_c, 2, 55, 63
5, 401280, Note_on_c, 2, 74, 63
5, 401280, Note_on_c, 2, 69, 63
5, 401280, Note_on_c, 2, 65, 63
5, 401280, Note_on_c, 2, 59, 63
5, 401280, Note_on_c, 2, 55, 63
5, 401760, Note_off_c, 2, 74, 63
5, 401760, Note_off_c, 2, 69, 63
5, 401760, Note_off_c, 2, 65, 63
5, 401760, Note_off_c, 2, 59, 63
5, 401760, Note_off_c, 2, 55, 63
5, 402720, Note_on_c, 2, 74, 63
5, 402720, Note_on_c, 2, 69, 63
5, 402720, Note_on_c, 2, 65, 63
5, 402720, Note_on_c, 2, 59, 63
5, 402720, Note_on_c, 2, 55, 63
5, 403200, Note_off_c, 2, 74, 63
5, 403200, Note_off_c, 2, 69, 63
5, 403200, Note_off_c, 2, 65, 63
5, 403200, Note_off_c, 2, 59, 63
5, 403200, Note_off_c, 2, 55, 63
5, 404160, Note_on_c, 2, 74, 63
5, 404160, Note_on_c, 2, 69, 63
5, 404160, Note_on_c, 2, 65, 63
5, 404160, Note_on_c, 2, 59, 63
5, 404160, Note_on_c, 2, 55, 63
5, 404640, Note_off_c, 2, 74, 63
5, 404640, Note_off_c, 2, 69, 63
5, 404640, Note_off_c, 2, 65, 63
5, 404640, Note_off_c, 2, 59, 63
5, 404640, Note_off_c, 2, 55, 63
5, 405600, Note_on_c, 2, 74, 63
5, 405600, Note_on_c, 2, 69, 63
5, 405600, Note_on_c, 2, 65, 63
5, 405600, Note_on_c, 2, 59, 63
5, 405600, Note_on_c, 2, 55, 63
5, 406080, Note_off_c, 2, 74, 63
5, 406080, Note_off_c, 2, 69, 63
5, 406080, Note_off_c, 2, 65, 63
5, 406080, Note_off_c, 2, 59, 63
5, 406080, Note_off_c, 2, 55, 63
5, 407040, Note_on_c, 2, 69, 63
5, 407040, Note_on_c, 2, 64, 63
5, 407040, Note_on_c, 2, 60, 63
5, 407040, Note_on_c, 2, 54, 63
5, 407040, Note_on_c, 2, 50, 63
5, 407520, Note_off_c, 2, 69, 63
5, 407520, Note_off_c, 2, 64, 63
5, 407520, Note_off_c, 2, 60, 63
5, 407520, Note_off_c, 2, 54, 63
5, 407520, Note_off_c, 2, 50, 63
5, 408480, Note_on_c, 2, 69, 63
5, 408480, Note_on_c, 2, 64, 63
5, 408480, Note_on_c, 2, 60, 63
5, 408480, Note_on_c, 2, 54, 63
5, 408480, Note_on_c, 2, 50, 63
5, 408960, Note_off_c, 2, 69, 63
5, 408960, Note_off_c, 2, 64, 63
5, 408960, Note_off_c, 2, 60, 63
5, 408960, Note_off_c, 2, 54, 63
5, 408960, Note_off_c, 2, 50, 63
5, 409920, Note_on_c, 2, 69, 63
5, 409920, Note_on_c, 2, 64, 63
5, 409920, Note_on_c, 2, 60, 63
5, 409920, Note_on_c, 2, 54, 63
5, 409920, Note_on_c, 2, 50, 63
5, 410400, Note_off_c, 2, 69, 63
5, 410400, Note_off_c, 2, 64, 63
5, 410400, Note_off_c, 2, 60, 63
5, 410400, Note_off_c, 2, 54, 63
5, 410400, Note_off_c, 2, 50, 63
5, 411360, Note_on_c, 2, 69, 63
5, 411360, Note_on_c, 2, 64, 63
5, 411360, Note_on_c, 2, 60, 63
5, 411360, Note_on_c, 2, 54, 63
5, 411360, Note_on_c, 2, 50, 63
5, 411840, Note_off_c, 2, 69, 63
5, 411840, Note_off_c, 2, 64, 63
5, 411840, Note_off_c, 2, 60, 63
5, 411840, Note_off_c, 2, 54, 63
5, 411840, Note_off_c, 2, 50, 63
5, 412800, Note_on_c, 2, 67, 63
5, 412800, Note_on_c, 2, 62, 63
5, 412800, Note_on_c, 2, 58, 63
5, 412800, Note_on_c, 2, 52, 63
5, 412800, Note_on_c, 2, 48, 63
5, 413280, Note_off_c, 2, 67, 63
5, 413280, Note_off_c, 2, 62, 63
5, 413280, Note_off_c, 2, 58, 63
5, 413280, Note_off_c, 2, 52, 63
5, 413280, Note_off_c, 2, 48, 63
5, 414240, Note_on_c, 2, 67, 63
5, 414240, Note_on_c, 2, 62, 63
5, 414240, Note_on_c, 2, 58, 63
5, 414240, Note_on_c, 2, 52, 63
5, 414240, Note_on_c, 2, 48, 63
5, 414720, Note_off_c, 2, 67, 63
5, 414720, Note_off_c, 2, 62, 63
5, 414720, Note_off_c, 2, 58, 63
5, 414720, Note_off_c, 2, 52, 63
5, 414720, Note_off_c, 2, 48, 63
5, 415680, Note_on_c, 2, 67, 63
5, 415680, Note_on_c, 2, 62, 63
5, 415680, Note_on_c, 2, 58, 63
5, 415680, Note_on_c, 2, 52, 63
5, 415680, Note_on_c, 2, 48, 63
5, 416160, Note_off_c, 2, 67, 63
5, 416160, Note_off_c, 2, 62, 63
5, 416160, Note_off_c, 2, 58, 63
5, 416160, Note_off_c, 2, 52, 63
5, 416160, Note_off_c, 2, 48, 63
5, 417120, Note_on_c, 2, 67, 63
5, 417120, Note_on_c, 2, 62, 63
5, 417120, Note_on_c, 2, 58, 63
5, 417120, Note_on_c, 2, 52, 63
5, 417120, Note_on_c, 2, 48, 63
5, 417600, Note_off_c, 2, 67, 63
5, 417600, Note_off_c, 2, 62, 63
5, 417600, Note_off_c, 2, 58, 63
5, 417600, Note_off_c, 2, 52, 63
5, 417600, Note_off_c, 2, 48, 63
5, 424680, Note_on_c, 3, 69, 95
5, 424680, Note_on_c, 3, 65, 95
5, 424680, Note_on_c, 3, 59, 95
5, 424680, Note_on_c, 3, 55, 95
5, 424800, Note_off_c, 3, 69, 95
5, 424800, Note_on_c, 3, 70, 95
5, 424800, Note_off_c, 3, 65, 95
5, 424800, Note_on_c, 3, 66, 95
5, 424800, Note_off_c, 3, 59, 95
5, 424800, Note_on_c, 3, 60, 95
5, 424800, Note_off_c, 3, 55, 95
5, 424800, Note_on_c, 3, 56, 95
5, 425760, Note_off_c, 3, 70, 95
5, 425760, Note_off_c, 3, 66, 95
5, 425760, Note_off_c, 3, 60, 95
5, 425760, Note_off_c, 3, 56, 95
5, 425760, Note_on_c, 2, 69, 95
5, 425760, Note_on_c, 2, 65, 95
5, 425760, Note_on_c, 2, 59, 95
5, 425760, Note_on_c, 2, 55, 95
5, 426240, Note_off_c, 2, 69, 95
5, 428160, Note_off_c, 2, 65, 95
5, 428160, Note_off_c, 2, 59, 95
5, 428160, Note_off_c, 2, 55, 95
5, 428160, Note_on_c, 3, 69, 70
5, 428160, Note_on_c, 3, 65, 95
5, 428160, Note_on_c, 3, 59, 95
5, 428160, Note_on_c, 3, 55, 95
5, 428280, Pitch_bend_c, 3, 6528
5, 428280, Pitch_bend_c, 3, 6528
5, 428280, Pitch_bend_c, 3, 6656
5, 428280, Pitch_bend_c, 3, 6528
5, 428400, Pitch_bend_c, 3, 4736
5, 428400, Pitch_bend_c, 3, 4736
5, 428400, Pitch_bend_c, 3, 5120
5, 428400, Pitch_bend_c, 3, 4736
5, 428520, Pitch_bend_c, 3, 2944
5, 428520, Pitch_bend_c, 3, 2944
5, 428520, Pitch_bend_c, 3, 3456
5, 428520, Pitch_bend_c, 3, 2944
5, 428640, Pitch_bend_c, 3, 1152
5, 428640, Pitch_bend_c, 3, 8192
5, 428640, Note_off_c, 3, 69, 70
5, 428640, Pitch_bend_c, 3, 1152
5, 428640, Pitch_bend_c, 3, 8192
5, 428640, Note_off_c, 3, 65, 95
5, 428640, Pitch_bend_c, 3, 1920
5, 428640, Pitch_bend_c, 3, 8192
5, 428640, Note_off_c, 3, 59, 95
5, 428640, Pitch_bend_c, 3, 1152
5, 428640, Pitch_bend_c, 3, 8192
5, 428640, Note_off_c, 3, 55, 95
5, 428640, Note_on_c, 2, 59, 95
5, 428640, Note_on_c, 2, 55, 95
5, 428640, Note_on_c, 2, 50, 95
5, 428640, Note_on_c, 2, 45, 95
5, 428706, Note_off_c, 2, 59, 95
5, 428706, Note_off_c, 2, 55, 95
5, 428706, Note_off_c, 2, 50, 95
5, 428706, Note_off_c, 2, 45, 95
5, 428706, End_track
6, 0, Start_track
6, 0, Pitch_bend_c, 4, 8192
6, 0, Control_c, 4, 7, 87
6, 0, Control_c, 4, 10, 63
6, 0, Control_c, 4, 93, 0
6, 0, Control_c, 4, 91, 0
6, 0, Control_c, 4, 95, 0
6, 0, Control_c, 4, 92, 0
6, 0, Control_c, 4, 11, 127
6, 0, Program_c, 4, 33
6, 0, Control_c, 5, 7, 87
6, 0, Control_c, 5, 10, 63
6, 0, Control_c, 5, 93, 0
6, 0, Control_c, 5, 91, 0
6, 0, Control_c, 5, 95, 0
6, 0, Control_c, 5, 92, 0
6, 0, Control_c, 5, 11, 127
6, 0, Program_c, 5, 33
6, 14400, Note_on_c, 4, 31, 95
6, 15840, Note_off_c, 4, 31, 95
6, 15840, Note_on_c, 4, 31, 95
6, 17280, Note_off_c, 4, 31, 95
6, 17280, Note_on_c, 4, 31, 95
6, 18240, Note_off_c, 4, 31, 95
6, 18240, Note_on_c, 4, 31, 95
6, 18720, Note_off_c, 4, 31, 95
6, 18720, Note_on_c, 4, 31, 95
6, 19680, Note_off_c, 4, 31, 95
6, 19680, Note_on_c, 4, 31, 95
6, 20160, Note_off_c, 4, 31, 95
6, 20160, Note_on_c, 4, 36, 95
6, 21600, Note_off_c, 4, 36, 95
6, 21600, Note_on_c, 4, 36, 95
6, 23040, Note_off_c, 4, 36, 95
6, 23040, Note_on_c, 4, 36, 95
6, 24000, Note_off_c, 4, 36, 95
6, 24000, Note_on_c, 4, 36, 95
6, 24480, Note_off_c, 4, 36, 95
6, 24480, Note_on_c, 4, 36, 95
6, 25440, Note_off_c, 4, 36, 95
6, 25440, Note_on_c, 4, 36, 95
6, 25920, Note_off_c, 4, 36, 95
6, 25920, Note_on_c, 4, 31, 95
6, 27360, Note_off_c, 4, 31, 95
6, 27360, Note_on_c, 4, 31, 95
6, 28800, Note_off_c, 4, 31, 95
6, 28800, Note_on_c, 4, 31, 95
6, 29760, Note_off_c, 4, 31, 95
6, 29760, Note_on_c, 4, 31, 95
6, 30240, Note_off_c, 4, 31, 95
6, 30240, Note_on_c, 4, 31, 95
6, 31200, Note_off_c, 4, 31, 95
6, 31200, Note_on_c, 4, 31, 95
6, 31680, Note_off_c, 4, 31, 95
6, 31680, Note_on_c, 4, 31, 95
6, 33120, Note_off_c, 4, 31, 95
6, 33120, Note_on_c, 4, 31, 95
6, 34560, Note_off_c, 4, 31, 95
6, 34560, Note_on_c, 4, 31, 95
6, 35520, Note_off_c, 4, 31, 95
6, 35520, Note_on_c, 4, 31, 95
6, 36000, Note_off_c, 4, 31, 95
6, 36000, Note_on_c, 4, 31, 95
6, 36960, Note_off_c, 4, 31, 95
6, 36960, Note_on_c, 4, 31, 95
6, 37440, Note_off_c, 4, 31, 95
6, 37440, Note_on_c, 4, 36, 95
6, 38880, Note_off_c, 4, 36, 95
6, 38880, Note_on_c, 4, 36, 95
6, 40320, Note_off_c, 4, 36, 95
6, 40320, Note_on_c, 4, 36, 95
6, 41280, Note_off_c, 4, 36, 95
6, 41280, Note_on_c, 4, 36, 95
6, 41760, Note_off_c, 4, 36, 95
6, 41760, Note_on_c, 4, 36, 95
6, 42720, Note_off_c, 4, 36, 95
6, 42720, Note_on_c, 4, 36, 95
6, 43200, Note_off_c, 4, 36, 95
6, 43200, Note_on_c, 4, 36, 95
6, 44640, Note_off_c, 4, 36, 95
6, 44640, Note_on_c, 4, 36, 95
6, 46080, Note_off_c, 4, 36, 95
6, 46080, Note_on_c, 4, 36, 95
6, 47040, Note_off_c, 4, 36, 95
6, 47040, Note_on_c, 4, 36, 95
6, 47520, Note_off_c, 4, 36, 95
6, 47520, Note_on_c, 4, 36, 95
6, 48480, Note_off_c, 4, 36, 95
6, 48480, Note_on_c, 4, 36, 95
6, 48960, Note_off_c, 4, 36, 95
6, 48960, Note_on_c, 4, 31, 95
6, 50400, Note_off_c, 4, 31, 95
6, 50400, Note_on_c, 4, 31, 95
6, 51840, Note_off_c, 4, 31, 95
6, 51840, Note_on_c, 4, 31, 95
6, 52800, Note_off_c, 4, 31, 95
6, 52800, Note_on_c, 4, 31, 95
6, 53280, Note_off_c, 4, 31, 95
6, 53280, Note_on_c, 4, 31, 95
6, 54240, Note_off_c, 4, 31, 95
6, 54240, Note_on_c, 4, 31, 95
6, 54720, Note_off_c, 4, 31, 95
6, 54720, Note_on_c, 4, 31, 95
6, 56160, Note_off_c, 4, 31, 95
6, 56160, Note_on_c, 4, 31, 95
6, 57600, Note_off_c, 4, 31, 95
6, 57600, Note_on_c, 4, 31, 95
6, 58560, Note_off_c, 4, 31, 95
6, 58560, Note_on_c, 4, 31, 95
6, 59040, Note_off_c, 4, 31, 95
6, 59040, Note_on_c, 4, 31, 95
6, 60000, Note_off_c, 4, 31, 95
6, 60000, Note_on_c, 4, 31, 95
6, 60480, Note_off_c, 4, 31, 95
6, 60480, Note_on_c, 4, 38, 95
6, 61920, Note_off_c, 4, 38, 95
6, 61920, Note_on_c, 4, 38, 95
6, 63360, Note_off_c, 4, 38, 95
6, 63360, Note_on_c, 4, 38, 95
6, 64320, Note_off_c, 4, 38, 95
6, 64320, Note_on_c, 4, 38, 95
6, 64800, Note_off_c, 4, 38, 95
6, 64800, Note_on_c, 4, 38, 95
6, 65760, Note_off_c, 4, 38, 95
6, 65760, Note_on_c, 4, 38, 95
6, 66240, Note_off_c, 4, 38, 95
6, 66240, Note_on_c, 4, 36, 95
6, 67680, Note_off_c, 4, 36, 95
6, 67680, Note_on_c, 4, 36, 95
6, 69120, Note_off_c, 4, 36, 95
6, 69120, Note_on_c, 4, 36, 95
6, 70080, Note_off_c, 4, 36, 95
6, 70080, Note_on_c, 4, 36, 95
6, 70560, Note_off_c, 4, 36, 95
6, 70560, Note_on_c, 4, 36, 95
6, 71520, Note_off_c, 4, 36, 95
6, 71520, Note_on_c, 4, 36, 95
6, 72000, Note_off_c, 4, 36, 95
6, 72000, Note_on_c, 4, 31, 95
6, 73440, Note_off_c, 4, 31, 95
6, 73440, Note_on_c, 4, 31, 95
6, 74880, Note_off_c, 4, 31, 95
6, 74880, Note_on_c, 4, 31, 95
6, 75840, Note_off_c, 4, 31, 95
6, 75840, Note_on_c, 4, 31, 95
6, 76320, Note_off_c, 4, 31, 95
6, 76320, Note_on_c, 4, 31, 95
6, 77280, Note_off_c, 4, 31, 95
6, 77280, Note_on_c, 4, 31, 95
6, 77760, Note_off_c, 4, 31, 95
6, 77760, Note_on_c, 4, 31, 95
6, 79200, Note_off_c, 4, 31, 95
6, 79200, Note_on_c, 4, 31, 95
6, 80640, Note_off_c, 4, 31, 95
6, 80640, Note_on_c, 4, 31, 95
6, 81120, Note_off_c, 4, 31, 95
6, 81120, Note_on_c, 4, 31, 95
6, 81600, Note_off_c, 4, 31, 95
6, 81600, Note_on_c, 4, 31, 95
6, 82080, Note_off_c, 4, 31, 95
6, 82080, Note_on_c, 4, 31, 95
6, 82560, Note_off_c, 4, 31, 95
6, 82560, Note_on_c, 4, 31, 95
6, 83040, Note_off_c, 4, 31, 95
6, 83040, Note_on_c, 4, 31, 95
6, 83520, Note_off_c, 4, 31, 95
6, 83520, Note_on_c, 4, 31, 95
6, 84960, Note_off_c, 4, 31, 95
6, 84960, Note_on_c, 4, 31, 95
6, 86400, Note_off_c, 4, 31, 95
6, 86400, Note_on_c, 4, 31, 95
6, 87360, Note_off_c, 4, 31, 95
6, 87360, Note_on_c, 4, 31, 95
6, 87840, Note_off_c, 4, 31, 95
6, 87840, Note_on_c, 4, 31, 95
6, 88800, Note_off_c, 4, 31, 95
6, 88800, Note_on_c, 4, 31, 95
6, 89280, Note_off_c, 4, 31, 95
6, 89280, Note_on_c, 4, 36, 95
6, 90720, Note_off_c, 4, 36, 95
6, 90720, Note_on_c, 4, 36, 95
6, 92160, Note_off_c, 4, 36, 95
6, 92160, Note_on_c, 4, 36, 95
6, 93120, Note_off_c, 4, 36, 95
6, 93120, Note_on_c, 4, 36, 95
6, 93600, Note_off_c, 4, 36, 95
6, 93600, Note_on_c, 4, 36, 95
6, 94560, Note_off_c, 4, 36, 95
6, 94560, Note_on_c, 4, 36, 95
6, 95040, Note_off_c, 4, 36, 95
6, 95040, Note_on_c, 4, 31, 95
6, 96480, Note_off_c, 4, 31, 95
6, 96480, Note_on_c, 4, 31, 95
6, 97920, Note_off_c, 4, 31, 95
6, 97920, Note_on_c, 4, 31, 95
6, 98880, Note_off_c, 4, 31, 95
6, 98880, Note_on_c, 4, 31, 95
6, 99360, Note_off_c, 4, 31, 95
6, 99360, Note_on_c, 4, 31, 95
6, 100320, Note_off_c, 4, 31, 95
6, 100320, Note_on_c, 4, 31, 95
6, 100800, Note_off_c, 4, 31, 95
6, 100800, Note_on_c, 4, 31, 95
6, 102240, Note_off_c, 4, 31, 95
6, 102240, Note_on_c, 4, 31, 95
6, 103680, Note_off_c, 4, 31, 95
6, 103680, Note_on_c, 4, 31, 95
6, 104640, Note_off_c, 4, 31, 95
6, 104640, Note_on_c, 4, 31, 95
6, 105120, Note_off_c, 4, 31, 95
6, 105120, Note_on_c, 4, 31, 95
6, 106080, Note_off_c, 4, 31, 95
6, 106080, Note_on_c, 4, 31, 95
6, 106560, Note_off_c, 4, 31, 95
6, 106560, Note_on_c, 4, 36, 95
6, 108000, Note_off_c, 4, 36, 95
6, 108000, Note_on_c, 4, 36, 95
6, 109440, Note_off_c, 4, 36, 95
6, 109440, Note_on_c, 4, 36, 95
6, 110400, Note_off_c, 4, 36, 95
6, 110400, Note_on_c, 4, 36, 95
6, 110880, Note_off_c, 4, 36, 95
6, 110880, Note_on_c, 4, 36, 95
6, 111840, Note_off_c, 4, 36, 95
6, 111840, Note_on_c, 4, 36, 95
6, 112320, Note_off_c, 4, 36, 95
6, 112320, Note_on_c, 4, 36, 95
6, 113760, Note_off_c, 4, 36, 95
6, 113760, Note_on_c, 4, 36, 95
6, 115200, Note_off_c, 4, 36, 95
6, 115200, Note_on_c, 4, 36, 95
6, 116160, Note_off_c, 4, 36, 95
6, 116160, Note_on_c, 4, 36, 95
6, 116640, Note_off_c, 4, 36, 95
6, 116640, Note_on_c, 4, 36, 95
6, 117600, Note_off_c, 4, 36, 95
6, 117600, Note_on_c, 4, 36, 95
6, 118080, Note_off_c, 4, 36, 95
6, 118080, Note_on_c, 4, 31, 95
6, 119520, Note_off_c, 4, 31, 95
6, 119520, Note_on_c, 4, 31, 95
6, 120960, Note_off_c, 4, 31, 95
6, 120960, Note_on_c, 4, 31, 95
6, 121920, Note_off_c, 4, 31, 95
6, 121920, Note_on_c, 4, 31, 95
6, 122400, Note_off_c, 4, 31, 95
6, 122400, Note_on_c, 4, 31, 95
6, 123360, Note_off_c, 4, 31, 95
6, 123360, Note_on_c, 4, 31, 95
6, 123840, Note_off_c, 4, 31, 95
6, 123840, Note_on_c, 4, 31, 95
6, 125280, Note_off_c, 4, 31, 95
6, 125280, Note_on_c, 4, 31, 95
6, 126720, Note_off_c, 4, 31, 95
6, 126720, Note_on_c, 4, 31, 95
6, 127680, Note_off_c, 4, 31, 95
6, 127680, Note_on_c, 4, 31, 95
6, 128160, Note_off_c, 4, 31, 95
6, 128160, Note_on_c, 4, 31, 95
6, 129120, Note_off_c, 4, 31, 95
6, 129120, Note_on_c, 4, 31, 95
6, 129600, Note_off_c, 4, 31, 95
6, 129600, Note_on_c, 4, 38, 95
6, 131040, Note_off_c, 4, 38, 95
6, 131040, Note_on_c, 4, 38, 95
6, 132480, Note_off_c, 4, 38, 95
6, 132480, Note_on_c, 4, 38, 95
6, 133440, Note_off_c, 4, 38, 95
6, 133440, Note_on_c, 4, 38, 95
6, 133920, Note_off_c, 4, 38, 95
6, 133920, Note_on_c, 4, 38, 95
6, 134880, Note_off_c, 4, 38, 95
6, 134880, Note_on_c, 4, 38, 95
6, 135360, Note_off_c, 4, 38, 95
6, 135360, Note_on_c, 4, 36, 95
6, 136800, Note_off_c, 4, 36, 95
6, 136800, Note_on_c, 4, 36, 95
6, 138240, Note_off_c, 4, 36, 95
6, 138240, Note_on_c, 4, 36, 95
6, 139200, Note_off_c, 4, 36, 95
6, 139200, Note_on_c, 4, 36, 95
6, 139680, Note_off_c, 4, 36, 95
6, 139680, Note_on_c, 4, 36, 95
6, 140640, Note_off_c, 4, 36, 95
6, 140640, Note_on_c, 4, 36, 95
6, 141120, Note_off_c, 4, 36, 95
6, 141120, Note_on_c, 4, 31, 95
6, 142560, Note_off_c, 4, 31, 95
6, 142560, Note_on_c, 4, 31, 95
6, 144000, Note_off_c, 4, 31, 95
6, 144000, Note_on_c, 4, 31, 95
6, 144960, Note_off_c, 4, 31, 95
6, 144960, Note_on_c, 4, 31, 95
6, 145440, Note_off_c, 4, 31, 95
6, 145440, Note_on_c, 4, 31, 95
6, 146400, Note_off_c, 4, 31, 95
6, 146400, Note_on_c, 4, 31, 95
6, 146880, Note_off_c, 4, 31, 95
6, 146880, Note_on_c, 4, 31, 95
6, 148320, Note_off_c, 4, 31, 95
6, 148320, Note_on_c, 4, 31, 95
6, 149760, Note_off_c, 4, 31, 95
6, 149760, Note_on_c, 4, 31, 95
6, 150240, Note_off_c, 4, 31, 95
6, 150240, Note_on_c, 4, 31, 95
6, 150720, Note_off_c, 4, 31, 95
6, 150720, Note_on_c, 4, 31, 95
6, 151200, Note_off_c, 4, 31, 95
6, 151200, Note_on_c, 4, 31, 95
6, 151680, Note_off_c, 4, 31, 95
6, 151680, Note_on_c, 4, 31, 95
6, 152160, Note_off_c, 4, 31, 95
6, 152160, Note_on_c, 4, 31, 95
6, 152640, Note_off_c, 4, 31, 95
6, 152640, Note_on_c, 4, 31, 95
6, 154080, Note_off_c, 4, 31, 95
6, 154080, Note_on_c, 4, 31, 95
6, 155520, Note_off_c, 4, 31, 95
6, 155520, Note_on_c, 4, 31, 95
6, 156480, Note_off_c, 4, 31, 95
6, 156480, Note_on_c, 4, 31, 95
6, 156960, Note_off_c, 4, 31, 95
6, 156960, Note_on_c, 4, 31, 95
6, 157920, Note_off_c, 4, 31, 95
6, 157920, Note_on_c, 4, 31, 95
6, 158400, Note_off_c, 4, 31, 95
6, 158400, Note_on_c, 4, 36, 95
6, 159840, Note_off_c, 4, 36, 95
6, 159840, Note_on_c, 4, 36, 95
6, 161280, Note_off_c, 4, 36, 95
6, 161280, Note_on_c, 4, 36, 95
6, 162240, Note_off_c, 4, 36, 95
6, 162240, Note_on_c, 4, 36, 95
6, 162720, Note_off_c, 4, 36, 95
6, 162720, Note_on_c, 4, 36, 95
6, 163680, Note_off_c, 4, 36, 95
6, 163680, Note_on_c, 4, 36, 95
6, 164160, Note_off_c, 4, 36, 95
6, 164160, Note_on_c, 4, 31, 95
6, 165600, Note_off_c, 4, 31, 95
6, 165600, Note_on_c, 4, 31, 95
6, 167040, Note_off_c, 4, 31, 95
6, 167040, Note_on_c, 4, 31, 95
6, 168000, Note_off_c, 4, 31, 95
6, 168000, Note_on_c, 4, 31, 95
6, 168480, Note_off_c, 4, 31, 95
6, 168480, Note_on_c, 4, 31, 95
6, 169440, Note_off_c, 4, 31, 95
6, 169440, Note_on_c, 4, 31, 95
6, 169920, Note_off_c, 4, 31, 95
6, 169920, Note_on_c, 4, 31, 95
6, 171360, Note_off_c, 4, 31, 95
6, 171360, Note_on_c, 4, 31, 95
6, 172800, Note_off_c, 4, 31, 95
6, 172800, Note_on_c, 4, 31, 95
6, 173760, Note_off_c, 4, 31, 95
6, 173760, Note_on_c, 4, 31, 95
6, 174240, Note_off_c, 4, 31, 95
6, 174240, Note_on_c, 4, 31, 95
6, 175200, Note_off_c, 4, 31, 95
6, 175200, Note_on_c, 4, 31, 95
6, 175680, Note_off_c, 4, 31, 95
6, 175680, Note_on_c, 4, 36, 95
6, 177120, Note_off_c, 4, 36, 95
6, 177120, Note_on_c, 4, 36, 95
6, 178560, Note_off_c, 4, 36, 95
6, 178560, Note_on_c, 4, 36, 95
6, 179520, Note_off_c, 4, 36, 95
6, 179520, Note_on_c, 4, 36, 95
6, 180000, Note_off_c, 4, 36, 95
6, 180000, Note_on_c, 4, 36, 95
6, 180960, Note_off_c, 4, 36, 95
6, 180960, Note_on_c, 4, 36, 95
6, 181440, Note_off_c, 4, 36, 95
6, 181440, Note_on_c, 4, 36, 95
6, 182880, Note_off_c, 4, 36, 95
6, 182880, Note_on_c, 4, 36, 95
6, 184320, Note_off_c, 4, 36, 95
6, 184320, Note_on_c, 4, 36, 95
6, 185280, Note_off_c, 4, 36, 95
6, 185280, Note_on_c, 4, 36, 95
6, 185760, Note_off_c, 4, 36, 95
6, 185760, Note_on_c, 4, 36, 95
6, 186720, Note_off_c, 4, 36, 95
6, 186720, Note_on_c, 4, 36, 95
6, 187200, Note_off_c, 4, 36, 95
6, 187200, Note_on_c, 4, 31, 95
6, 188640, Note_off_c, 4, 31, 95
6, 188640, Note_on_c, 4, 31, 95
6, 190080, Note_off_c, 4, 31, 95
6, 190080, Note_on_c, 4, 31, 95
6, 191040, Note_off_c, 4, 31, 95
6, 191040, Note_on_c, 4, 31, 95
6, 191520, Note_off_c, 4, 31, 95
6, 191520, Note_on_c, 4, 31, 95
6, 192480, Note_off_c, 4, 31, 95
6, 192480, Note_on_c, 4, 31, 95
6, 192960, Note_off_c, 4, 31, 95
6, 192960, Note_on_c, 4, 31, 95
6, 194400, Note_off_c, 4, 31, 95
6, 194400, Note_on_c, 4, 31, 95
6, 195840, Note_off_c, 4, 31, 95
6, 195840, Note_on_c, 4, 31, 95
6, 196800, Note_off_c, 4, 31, 95
6, 196800, Note_on_c, 4, 31, 95
6, 197280, Note_off_c, 4, 31, 95
6, 197280, Note_on_c, 4, 31, 95
6, 198240, Note_off_c, 4, 31, 95
6, 198240, Note_on_c, 4, 31, 95
6, 198720, Note_off_c, 4, 31, 95
6, 198720, Note_on_c, 4, 38, 95
6, 200160, Note_off_c, 4, 38, 95
6, 200160, Note_on_c, 4, 38, 95
6, 201600, Note_off_c, 4, 38, 95
6, 201600, Note_on_c, 4, 38, 95
6, 202560, Note_off_c, 4, 38, 95
6, 202560, Note_on_c, 4, 38, 95
6, 203040, Note_off_c, 4, 38, 95
6, 203040, Note_on_c, 4, 38, 95
6, 204000, Note_off_c, 4, 38, 95
6, 204000, Note_on_c, 4, 38, 95
6, 204480, Note_off_c, 4, 38, 95
6, 204480, Note_on_c, 4, 36, 95
6, 205920, Note_off_c, 4, 36, 95
6, 205920, Note_on_c, 4, 36, 95
6, 207360, Note_off_c, 4, 36, 95
6, 207360, Note_on_c, 4, 36, 95
6, 208320, Note_off_c, 4, 36, 95
6, 208320, Note_on_c, 4, 36, 95
6, 208800, Note_off_c, 4, 36, 95
6, 208800, Note_on_c, 4, 36, 95
6, 209760, Note_off_c, 4, 36, 95
6, 209760, Note_on_c, 4, 36, 95
6, 210240, Note_off_c, 4, 36, 95
6, 210240, Note_on_c, 4, 31, 95
6, 211680, Note_off_c, 4, 31, 95
6, 211680, Note_on_c, 4, 31, 95
6, 213120, Note_off_c, 4, 31, 95
6, 213120, Note_on_c, 4, 31, 95
6, 214080, Note_off_c, 4, 31, 95
6, 214080, Note_on_c, 4, 31, 95
6, 214560, Note_off_c, 4, 31, 95
6, 214560, Note_on_c, 4, 31, 95
6, 215520, Note_off_c, 4, 31, 95
6, 215520, Note_on_c, 4, 31, 95
6, 216000, Note_off_c, 4, 31, 95
6, 216000, Note_on_c, 4, 31, 95
6, 217440, Note_off_c, 4, 31, 95
6, 217440, Note_on_c, 4, 31, 95
6, 218880, Note_off_c, 4, 31, 95
6, 218880, Note_on_c, 4, 31, 95
6, 219360, Note_off_c, 4, 31, 95
6, 219360, Note_on_c, 4, 31, 95
6, 219840, Note_off_c, 4, 31, 95
6, 219840, Note_on_c, 4, 31, 95
6, 220320, Note_off_c, 4, 31, 95
6, 220320, Note_on_c, 4, 31, 95
6, 220800, Note_off_c, 4, 31, 95
6, 220800, Note_on_c, 4, 31, 95
6, 221280, Note_off_c, 4, 31, 95
6, 221280, Note_on_c, 4, 31, 95
6, 221760, Note_off_c, 4, 31, 95
6, 221760, Note_on_c, 4, 31, 95
6, 223200, Note_off_c, 4, 31, 95
6, 223200, Note_on_c, 4, 31, 95
6, 224640, Note_off_c, 4, 31, 95
6, 224640, Note_on_c, 4, 31, 95
6, 225600, Note_off_c, 4, 31, 95
6, 225600, Note_on_c, 4, 31, 95
6, 226080, Note_off_c, 4, 31, 95
6, 226080, Note_on_c, 4, 31, 95
6, 227040, Note_off_c, 4, 31, 95
6, 227040, Note_on_c, 4, 31, 95
6, 227520, Note_off_c, 4, 31, 95
6, 227520, Note_on_c, 4, 36, 95
6, 228960, Note_off_c, 4, 36, 95
6, 228960, Note_on_c, 4, 36, 95
6, 230400, Note_off_c, 4, 36, 95
6, 230400, Note_on_c, 4, 36, 95
6, 231360, Note_off_c, 4, 36, 95
6, 231360, Note_on_c, 4, 36, 95
6, 231840, Note_off_c, 4, 36, 95
6, 231840, Note_on_c, 4, 36, 95
6, 232800, Note_off_c, 4, 36, 95
6, 232800, Note_on_c, 4, 36, 95
6, 233280, Note_off_c, 4, 36, 95
6, 233280, Note_on_c, 4, 31, 95
6, 234720, Note_off_c, 4, 31, 95
6, 234720, Note_on_c, 4, 31, 95
6, 236160, Note_off_c, 4, 31, 95
6, 236160, Note_on_c, 4, 31, 95
6, 237120, Note_off_c, 4, 31, 95
6, 237120, Note_on_c, 4, 31, 95
6, 237600, Note_off_c, 4, 31, 95
6, 237600, Note_on_c, 4, 31, 95
6, 238560, Note_off_c, 4, 31, 95
6, 238560, Note_on_c, 4, 31, 95
6, 239040, Note_off_c, 4, 31, 95
6, 239040, Note_on_c, 4, 31, 95
6, 240480, Note_off_c, 4, 31, 95
6, 240480, Note_on_c, 4, 31, 95
6, 241920, Note_off_c, 4, 31, 95
6, 241920, Note_on_c, 4, 31, 95
6, 242880, Note_off_c, 4, 31, 95
6, 242880, Note_on_c, 4, 31, 95
6, 243360, Note_off_c, 4, 31, 95
6, 243360, Note_on_c, 4, 31, 95
6, 244320, Note_off_c, 4, 31, 95
6, 244320, Note_on_c, 4, 31, 95
6, 244800, Note_off_c, 4, 31, 95
6, 244800, Note_on_c, 4, 36, 95
6, 246240, Note_off_c, 4, 36, 95
6, 246240, Note_on_c, 4, 36, 95
6, 247680, Note_off_c, 4, 36, 95
6, 247680, Note_on_c, 4, 36, 95
6, 248640, Note_off_c, 4, 36, 95
6, 248640, Note_on_c, 4, 36, 95
6, 249120, Note_off_c, 4, 36, 95
6, 249120, Note_on_c, 4, 36, 95
6, 250080, Note_off_c, 4, 36, 95
6, 250080, Note_on_c, 4, 36, 95
6, 250560, Note_off_c, 4, 36, 95
6, 250560, Note_on_c, 4, 36, 95
6, 252000, Note_off_c, 4, 36, 95
6, 252000, Note_on_c, 4, 36, 95
6, 253440, Note_off_c, 4, 36, 95
6, 253440, Note_on_c, 4, 36, 95
6, 254400, Note_off_c, 4, 36, 95
6, 254400, Note_on_c, 4, 36, 95
6, 254880, Note_off_c, 4, 36, 95
6, 254880, Note_on_c, 4, 36, 95
6, 255840, Note_off_c, 4, 36, 95
6, 255840, Note_on_c, 4, 36, 95
6, 256320, Note_off_c, 4, 36, 95
6, 256320, Note_on_c, 4, 31, 95
6, 257760, Note_off_c, 4, 31, 95
6, 257760, Note_on_c, 4, 31, 95
6, 259200, Note_off_c, 4, 31, 95
6, 259200, Note_on_c, 4, 31, 95
6, 260160, Note_off_c, 4, 31, 95
6, 260160, Note_on_c, 4, 31, 95
6, 260640, Note_off_c, 4, 31, 95
6, 260640, Note_on_c, 4, 31, 95
6, 261600, Note_off_c, 4, 31, 95
6, 261600, Note_on_c, 4, 31, 95
6, 262080, Note_off_c, 4, 31, 95
6, 262080, Note_on_c, 4, 31, 95
6, 263520, Note_off_c, 4, 31, 95
6, 263520, Note_on_c, 4, 31, 95
6, 264960, Note_off_c, 4, 31, 95
6, 264960, Note_on_c, 4, 31, 95
6, 265920, Note_off_c, 4, 31, 95
6, 265920, Note_on_c, 4, 31, 95
6, 266400, Note_off_c, 4, 31, 95
6, 266400, Note_on_c, 4, 31, 95
6, 267360, Note_off_c, 4, 31, 95
6, 267360, Note_on_c, 4, 31, 95
6, 267840, Note_off_c, 4, 31, 95
6, 267840, Note_on_c, 4, 38, 95
6, 269280, Note_off_c, 4, 38, 95
6, 269280, Note_on_c, 4, 38, 95
6, 270720, Note_off_c, 4, 38, 95
6, 270720, Note_on_c, 4, 38, 95
6, 271680, Note_off_c, 4, 38, 95
6, 271680, Note_on_c, 4, 38, 95
6, 272160, Note_off_c, 4, 38, 95
6, 272160, Note_on_c, 4, 38, 95
6, 273120, Note_off_c, 4, 38, 95
6, 273120, Note_on_c, 4, 38, 95
6, 273600, Note_off_c, 4, 38, 95
6, 273600, Note_on_c, 4, 36, 95
6, 275040, Note_off_c, 4, 36, 95
6, 275040, Note_on_c, 4, 36, 95
6, 276480, Note_off_c, 4, 36, 95
6, 276480, Note_on_c, 4, 36, 95
6, 277440, Note_off_c, 4, 36, 95
6, 277440, Note_on_c, 4, 36, 95
6, 277920, Note_off_c, 4, 36, 95
6, 277920, Note_on_c, 4, 36, 95
6, 278880, Note_off_c, 4, 36, 95
6, 278880, Note_on_c, 4, 36, 95
6, 279360, Note_off_c, 4, 36, 95
6, 279360, Note_on_c, 4, 31, 95
6, 280800, Note_off_c, 4, 31, 95
6, 280800, Note_on_c, 4, 31, 95
6, 282240, Note_off_c, 4, 31, 95
6, 282240, Note_on_c, 4, 31, 95
6, 283200, Note_off_c, 4, 31, 95
6, 283200, Note_on_c, 4, 31, 95
6, 283680, Note_off_c, 4, 31, 95
6, 283680, Note_on_c, 4, 31, 95
6, 284640, Note_off_c, 4, 31, 95
6, 284640, Note_on_c, 4, 31, 95
6, 285120, Note_off_c, 4, 31, 95
6, 285120, Note_on_c, 4, 31, 95
6, 286560, Note_off_c, 4, 31, 95
6, 286560, Note_on_c, 4, 31, 95
6, 288000, Note_off_c, 4, 31, 95
6, 288000, Note_on_c, 4, 31, 95
6, 288480, Note_off_c, 4, 31, 95
6, 288480, Note_on_c, 4, 31, 95
6, 288960, Note_off_c, 4, 31, 95
6, 288960, Note_on_c, 4, 31, 95
6, 289440, Note_off_c, 4, 31, 95
6, 289440, Note_on_c, 4, 31, 95
6, 289920, Note_off_c, 4, 31, 95
6, 289920, Note_on_c, 4, 31, 95
6, 290400, Note_off_c, 4, 31, 95
6, 290400, Note_on_c, 4, 31, 95
6, 290880, Note_off_c, 4, 31, 95
6, 290880, Note_on_c, 4, 31, 95
6, 292320, Note_off_c, 4, 31, 95
6, 292320, Note_on_c, 4, 31, 95
6, 293760, Note_off_c, 4, 31, 95
6, 293760, Note_on_c, 4, 31, 95
6, 294720, Note_off_c, 4, 31, 95
6, 294720, Note_on_c, 4, 31, 95
6, 295200, Note_off_c, 4, 31, 95
6, 295200, Note_on_c, 4, 31, 95
6, 296160, Note_off_c, 4, 31, 95
6, 296160, Note_on_c, 4, 31, 95
6, 296640, Note_off_c, 4, 31, 95
6, 296640, Note_on_c, 4, 36, 95
6, 298080, Note_off_c, 4, 36, 95
6, 298080, Note_on_c, 4, 36, 95
6, 299520, Note_off_c, 4, 36, 95
6, 299520, Note_on_c, 4, 36, 95
6, 300480, Note_off_c, 4, 36, 95
6, 300480, Note_on_c, 4, 36, 95
6, 300960, Note_off_c, 4, 36, 95
6, 300960, Note_on_c, 4, 36, 95
6, 301920, Note_off_c, 4, 36, 95
6, 301920, Note_on_c, 4, 36, 95
6, 302400, Note_off_c, 4, 36, 95
6, 302400, Note_on_c, 4, 31, 95
6, 303840, Note_off_c, 4, 31, 95
6, 303840, Note_on_c, 4, 31, 95
6, 305280, Note_off_c, 4, 31, 95
6, 305280, Note_on_c, 4, 31, 95
6, 306240, Note_off_c, 4, 31, 95
6, 306240, Note_on_c, 4, 31, 95
6, 306720, Note_off_c, 4, 31, 95
6, 306720, Note_on_c, 4, 31, 95
6, 307680, Note_off_c, 4, 31, 95
6, 307680, Note_on_c, 4, 31, 95
6, 308160, Note_off_c, 4, 31, 95
6, 308160, Note_on_c, 4, 31, 95
6, 309600, Note_off_c, 4, 31, 95
6, 309600, Note_on_c, 4, 31, 95
6, 311040, Note_off_c, 4, 31, 95
6, 311040, Note_on_c, 4, 31, 95
6, 312000, Note_off_c, 4, 31, 95
6, 312000, Note_on_c, 4, 31, 95
6, 312480, Note_off_c, 4, 31, 95
6, 312480, Note_on_c, 4, 31, 95
6, 313440, Note_off_c, 4, 31, 95
6, 313440, Note_on_c, 4, 31, 95
6, 313920, Note_off_c, 4, 31, 95
6, 313920, Note_on_c, 4, 36, 95
6, 315360, Note_off_c, 4, 36, 95
6, 315360, Note_on_c, 4, 36, 95
6, 316800, Note_off_c, 4, 36, 95
6, 316800, Note_on_c, 4, 36, 95
6, 317760, Note_off_c, 4, 36, 95
6, 317760, Note_on_c, 4, 36, 95
6, 318240, Note_off_c, 4, 36, 95
6, 318240, Note_on_c, 4, 36, 95
6, 319200, Note_off_c, 4, 36, 95
6, 319200, Note_on_c, 4, 36, 95
6, 319680, Note_off_c, 4, 36, 95
6, 319680, Note_on_c, 4, 36, 95
6, 321120, Note_off_c, 4, 36, 95
6, 321120, Note_on_c, 4, 36, 95
6, 322560, Note_off_c, 4, 36, 95
6, 322560, Note_on_c, 4, 36, 95
6, 323520, Note_off_c, 4, 36, 95
6, 323520, Note_on_c, 4, 36, 95
6, 324000, Note_off_c, 4, 36, 95
6, 324000, Note_on_c, 4, 36, 95
6, 324960, Note_off_c, 4, 36, 95
6, 324960, Note_on_c, 4, 36, 95
6, 325440, Note_off_c, 4, 36, 95
6, 325440, Note_on_c, 4, 31, 95
6, 326880, Note_off_c, 4, 31, 95
6, 326880, Note_on_c, 4, 31, 95
6, 328320, Note_off_c, 4, 31, 95
6, 328320, Note_on_c, 4, 31, 95
6, 329280, Note_off_c, 4, 31, 95
6, 329280, Note_on_c, 4, 31, 95
6, 329760, Note_off_c, 4, 31, 95
6, 329760, Note_on_c, 4, 31, 95
6, 330720, Note_off_c, 4, 31, 95
6, 330720, Note_on_c, 4, 31, 95
6, 331200, Note_off_c, 4, 31, 95
6, 331200, Note_on_c, 4, 31, 95
6, 332640, Note_off_c, 4, 31, 95
6, 332640, Note_on_c, 4, 31, 95
6, 334080, Note_off_c, 4, 31, 95
6, 334080, Note_on_c, 4, 31, 95
6, 335040, Note_off_c, 4, 31, 95
6, 335040, Note_on_c, 4, 31, 95
6, 335520, Note_off_c, 4, 31, 95
6, 335520, Note_on_c, 4, 31, 95
6, 336480, Note_off_c, 4, 31, 95
6, 336480, Note_on_c, 4, 31, 95
6, 336960, Note_off_c, 4, 31, 95
6, 336960, Note_on_c, 4, 38, 95
6, 338400, Note_off_c, 4, 38, 95
6, 338400, Note_on_c, 4, 38, 95
6, 339840, Note_off_c, 4, 38, 95
6, 339840, Note_on_c, 4, 38, 95
6, 340800, Note_off_c, 4, 38, 95
6, 340800, Note_on_c, 4, 38, 95
6, 341280, Note_off_c, 4, 38, 95
6, 341280, Note_on_c, 4, 38, 95
6, 342240, Note_off_c, 4, 38, 95
6, 342240, Note_on_c, 4, 38, 95
6, 342720, Note_off_c, 4, 38, 95
6, 342720, Note_on_c, 4, 36, 95
6, 344160, Note_off_c, 4, 36, 95
6, 344160, Note_on_c, 4, 36, 95
6, 345600, Note_off_c, 4, 36, 95
6, 345600, Note_on_c, 4, 36, 95
6, 346560, Note_off_c, 4, 36, 95
6, 346560, Note_on_c, 4, 36, 95
6, 347040, Note_off_c, 4, 36, 95
6, 347040, Note_on_c, 4, 36, 95
6, 348000, Note_off_c, 4, 36, 95
6, 348000, Note_on_c, 4, 36, 95
6, 348480, Note_off_c, 4, 36, 95
6, 348480, Note_on_c, 4, 31, 95
6, 349920, Note_off_c, 4, 31, 95
6, 349920, Note_on_c, 4, 31, 95
6, 351360, Note_off_c, 4, 31, 95
6, 351360, Note_on_c, 4, 31, 95
6, 352320, Note_off_c, 4, 31, 95
6, 352320, Note_on_c, 4, 31, 95
6, 352800, Note_off_c, 4, 31, 95
6, 352800, Note_on_c, 4, 31, 95
6, 353760, Note_off_c, 4, 31, 95
6, 353760, Note_on_c, 4, 31, 95
6, 354240, Note_off_c, 4, 31, 95
6, 354240, Note_on_c, 4, 31, 95
6, 355680, Note_off_c, 4, 31, 95
6, 355680, Note_on_c, 4, 31, 95
6, 357120, Note_off_c, 4, 31, 95
6, 357120, Note_on_c, 4, 31, 95
6, 357600, Note_off_c, 4, 31, 95
6, 357600, Note_on_c, 4, 31, 95
6, 358080, Note_off_c, 4, 31, 95
6, 358080, Note_on_c, 4, 31, 95
6, 358560, Note_off_c, 4, 31, 95
6, 358560, Note_on_c, 4, 31, 95
6, 359040, Note_off_c, 4, 31, 95
6, 359040, Note_on_c, 4, 31, 95
6, 359520, Note_off_c, 4, 31, 95
6, 359520, Note_on_c, 4, 31, 95
6, 360000, Note_off_c, 4, 31, 95
6, 360000, Note_on_c, 4, 31, 95
6, 361440, Note_off_c, 4, 31, 95
6, 361440, Note_on_c, 4, 31, 95
6, 362880, Note_off_c, 4, 31, 95
6, 362880, Note_on_c, 4, 31, 95
6, 363840, Note_off_c, 4, 31, 95
6, 363840, Note_on_c, 4, 31, 95
6, 364320, Note_off_c, 4, 31, 95
6, 364320, Note_on_c, 4, 31, 95
6, 365280, Note_off_c, 4, 31, 95
6, 365280, Note_on_c, 4, 31, 95
6, 365760, Note_off_c, 4, 31, 95
6, 365760, Note_on_c, 4, 36, 95
6, 367200, Note_off_c, 4, 36, 95
6, 367200, Note_on_c, 4, 36, 95
6, 368640, Note_off_c, 4, 36, 95
6, 368640, Note_on_c, 4, 36, 95
6, 369600, Note_off_c, 4, 36, 95
6, 369600, Note_on_c, 4, 36, 95
6, 370080, Note_off_c, 4, 36, 95
6, 370080, Note_on_c, 4, 36, 95
6, 371040, Note_off_c, 4, 36, 95
6, 371040, Note_on_c, 4, 36, 95
6, 371520, Note_off_c, 4, 36, 95
6, 371520, Note_on_c, 4, 31, 95
6, 372960, Note_off_c, 4, 31, 95
6, 372960, Note_on_c, 4, 31, 95
6, 374400, Note_off_c, 4, 31, 95
6, 374400, Note_on_c, 4, 31, 95
6, 375360, Note_off_c, 4, 31, 95
6, 375360, Note_on_c, 4, 31, 95
6, 375840, Note_off_c, 4, 31, 95
6, 375840, Note_on_c, 4, 31, 95
6, 376800, Note_off_c, 4, 31, 95
6, 376800, Note_on_c, 4, 31, 95
6, 377280, Note_off_c, 4, 31, 95
6, 377280, Note_on_c, 4, 31, 95
6, 378720, Note_off_c, 4, 31, 95
6, 378720, Note_on_c, 4, 31, 95
6, 380160, Note_off_c, 4, 31, 95
6, 380160, Note_on_c, 4, 31, 95
6, 381120, Note_off_c, 4, 31, 95
6, 381120, Note_on_c, 4, 31, 95
6, 381600, Note_off_c, 4, 31, 95
6, 381600, Note_on_c, 4, 31, 95
6, 382560, Note_off_c, 4, 31, 95
6, 382560, Note_on_c, 4, 31, 95
6, 383040, Note_off_c, 4, 31, 95
6, 383040, Note_on_c, 4, 36, 95
6, 384480, Note_off_c, 4, 36, 95
6, 384480, Note_on_c, 4, 36, 95
6, 385920, Note_off_c, 4, 36, 95
6, 385920, Note_on_c, 4, 36, 95
6, 386880, Note_off_c, 4, 36, 95
6, 386880, Note_on_c, 4, 36, 95
6, 387360, Note_off_c, 4, 36, 95
6, 387360, Note_on_c, 4, 36, 95
6, 388320, Note_off_c, 4, 36, 95
6, 388320, Note_on_c, 4, 36, 95
6, 388800, Note_off_c, 4, 36, 95
6, 388800, Note_on_c, 4, 36, 95
6, 390240, Note_off_c, 4, 36, 95
6, 390240, Note_on_c, 4, 36, 95
6, 391680, Note_off_c, 4, 36, 95
6, 391680, Note_on_c, 4, 36, 95
6, 392640, Note_off_c, 4, 36, 95
6, 392640, Note_on_c, 4, 36, 95
6, 393120, Note_off_c, 4, 36, 95
6, 393120, Note_on_c, 4, 36, 95
6, 394080, Note_off_c, 4, 36, 95
6, 394080, Note_on_c, 4, 36, 95
6, 394560, Note_off_c, 4, 36, 95
6, 394560, Note_on_c, 4, 31, 95
6, 396000, Note_off_c, 4, 31, 95
6, 396000, Note_on_c, 4, 31, 95
6, 397440, Note_off_c, 4, 31, 95
6, 397440, Note_on_c, 4, 31, 95
6, 398400, Note_off_c, 4, 31, 95
6, 398400, Note_on_c, 4, 31, 95
6, 398880, Note_off_c, 4, 31, 95
6, 398880, Note_on_c, 4, 31, 95
6, 399840, Note_off_c, 4, 31, 95
6, 399840, Note_on_c, 4, 31, 95
6, 400320, Note_off_c, 4, 31, 95
6, 400320, Note_on_c, 4, 31, 95
6, 401760, Note_off_c, 4, 31, 95
6, 401760, Note_on_c, 4, 31, 95
6, 403200, Note_off_c, 4, 31, 95
6, 403200, Note_on_c, 4, 31, 95
6, 404160, Note_off_c, 4, 31, 95
6, 404160, Note_on_c, 4, 31, 95
6, 404640, Note_off_c, 4, 31, 95
6, 404640, Note_on_c, 4, 31, 95
6, 405600, Note_off_c, 4, 31, 95
6, 405600, Note_on_c, 4, 31, 95
6, 406080, Note_off_c, 4, 31, 95
6, 406080, Note_on_c, 4, 38, 95
6, 407520, Note_off_c, 4, 38, 95
6, 407520, Note_on_c, 4, 38, 95
6, 408960, Note_off_c, 4, 38, 95
6, 408960, Note_on_c, 4, 38, 95
6, 409920, Note_off_c, 4, 38, 95
6, 409920, Note_on_c, 4, 38, 95
6, 410400, Note_off_c, 4, 38, 95
6, 410400, Note_on_c, 4, 38, 95
6, 411360, Note_off_c, 4, 38, 95
6, 411360, Note_on_c, 4, 38, 95
6, 411840, Note_off_c, 4, 38, 95
6, 411840, Note_on_c, 4, 36, 95
6, 413280, Note_off_c, 4, 36, 95
6, 413280, Note_on_c, 4, 36, 95
6, 414720, Note_off_c, 4, 36, 95
6, 414720, Note_on_c, 4, 36, 95
6, 415680, Note_off_c, 4, 36, 95
6, 415680, Note_on_c, 4, 36, 95
6, 416160, Note_off_c, 4, 36, 95
6, 416160, Note_on_c, 4, 36, 95
6, 417120, Note_off_c, 4, 36, 95
6, 417120, Note_on_c, 4, 36, 95
6, 417600, Note_off_c, 4, 36, 95
6, 417600, Note_on_c, 4, 36, 95
6, 418080, Note_off_c, 4, 36, 95
6, 424800, Note_on_c, 4, 32, 95
6, 425760, Note_off_c, 4, 32, 95
6, 425760, Note_on_c, 4, 31, 95
6, 428160, Note_off_c, 4, 31, 95
6, 428160, Note_on_c, 5, 31, 95
6, 428280, Pitch_bend_c, 5, 7680
6, 428400, Pitch_bend_c, 5, 7168
6, 428520, Pitch_bend_c, 5, 6656
6, 428640, Pitch_bend_c, 5, 6144
6, 428640, Pitch_bend_c, 5, 8192
6, 428640, Note_off_c, 5, 31, 95
6, 428640, Note_on_c, 4, 28, 95
6, 428706, Note_off_c, 4, 28, 95
6, 428706, End_track
7, 0, Start_track
7, 0, Pitch_bend_c, 9, 8192
7, 0, Control_c, 9, 7, 103
7, 0, Control_c, 9, 10, 63
7, 0, Control_c, 9, 93, 0
7, 0, Control_c, 9, 91, 0
7, 0, Control_c, 9, 95, 0
7, 0, Control_c, 9, 92, 0
7, 0, Control_c, 9, 11, 127
7, 0, Program_c, 9, 0
7, 11040, Note_on_c, 9, 42, 95
7, 11520, Note_off_c, 9, 42, 95
7, 11520, Note_on_c, 9, 35, 95
7, 12960, Note_off_c, 9, 35, 95
7, 12960, Note_on_c, 9, 38, 95
7, 13920, Note_off_c, 9, 38, 95
7, 13920, Note_on_c, 9, 42, 95
7, 14400, Note_off_c, 9, 42, 95
7, 14400, Note_on_c, 9, 42, 95
7, 14400, Note_on_c, 9, 35, 95
7, 14880, Note_off_c, 9, 42, 95
7, 14880, Note_off_c, 9, 35, 95
7, 15360, Note_on_c, 9, 42, 95
7, 15840, Note_off_c, 9, 42, 95
7, 15840, Note_on_c, 9, 42, 95
7, 15840, Note_on_c, 9, 38, 95
7, 16320, Note_off_c, 9, 42, 95
7, 16320, Note_off_c, 9, 38, 95
7, 16800, Note_on_c, 9, 42, 95
7, 17280, Note_off_c, 9, 42, 95
7, 17280, Note_on_c, 9, 42, 95
7, 17280, Note_on_c, 9, 35, 95
7, 17760, Note_off_c, 9, 42, 95
7, 17760, Note_off_c, 9, 35, 95
7, 18240, Note_on_c, 9, 42, 95
7, 18720, Note_off_c, 9, 42, 95
7, 18720, Note_on_c, 9, 42, 95
7, 18720, Note_on_c, 9, 38, 95
7, 19200, Note_off_c, 9, 42, 95
7, 19200, Note_off_c, 9, 38, 95
7, 19680, Note_on_c, 9, 42, 95
7, 19680, Note_on_c, 9, 35, 95
7, 20160, Note_off_c, 9, 42, 95
7, 20160, Note_off_c, 9, 35, 95
7, 20160, Note_on_c, 9, 42, 95
7, 20160, Note_on_c, 9, 35, 95
7, 20640, Note_off_c, 9, 42, 95
7, 20640, Note_off_c, 9, 35, 95
7, 21120, Note_on_c, 9, 42, 95
7, 21600, Note_off_c, 9, 42, 95
7, 21600, Note_on_c, 9, 42, 95
7, 21600, Note_on_c, 9, 38, 95
7, 22080, Note_off_c, 9, 42, 95
7, 22080, Note_off_c, 9, 38, 95
7, 22560, Note_on_c, 9, 42, 95
7, 23040, Note_off_c, 9, 42, 95
7, 23040, Note_on_c, 9, 42, 95
7, 23040, Note_on_c, 9, 35, 95
7, 23520, Note_off_c, 9, 42, 95
7, 23520, Note_off_c, 9, 35, 95
7, 24000, Note_on_c, 9, 42, 95
7, 24480, Note_off_c, 9, 42, 95
7, 24480, Note_on_c, 9, 42, 95
7, 24480, Note_on_c, 9, 38, 95
7, 24960, Note_off_c, 9, 42, 95
7, 24960, Note_off_c, 9, 38, 95
7, 25440, Note_on_c, 9, 42, 95
7, 25440, Note_on_c, 9, 35, 95
7, 25920, Note_off_c, 9, 42, 95
7, 25920, Note_off_c, 9, 35, 95
7, 25920, Note_on_c, 9, 42, 95
7, 25920, Note_on_c, 9, 35, 95
7, 26400, Note_off_c, 9, 42, 95
7, 26400, Note_off_c, 9, 35, 95
7, 26880, Note_on_c, 9, 42, 95
7, 27360, Note_off_c, 9, 42, 95
7, 27360, Note_on_c, 9, 42, 95
7, 27360, Note_on_c, 9, 38, 95
7, 27840, Note_off_c, 9, 42, 95
7, 27840, Note_off_c, 9, 38, 95
7, 28320, Note_on_c, 9, 42, 95
7, 28800, Note_off_c, 9, 42, 95
7, 28800, Note_on_c, 9, 42, 95
7, 28800, Note_on_c, 9, 35, 95
7, 29280, Note_off_c, 9, 42, 95
7, 29280, Note_off_c, 9, 35, 95
7, 29760, Note_on_c, 9, 42, 95
7, 30240, Note_off_c, 9, 42, 95
7, 30240, Note_on_c, 9, 42, 95
7, 30240, Note_on_c, 9, 38, 95
7, 30720, Note_off_c, 9, 42, 95
7, 30720, Note_off_c, 9, 38, 95
7, 31200, Note_on_c, 9, 42, 95
7, 31200, Note_on_c, 9, 35, 95
7, 31680, Note_off_c, 9, 42, 95
7, 31680, Note_off_c, 9, 35, 95
7, 31680, Note_on_c, 9, 42, 95
7, 31680, Note_on_c, 9, 35, 95
7, 32160, Note_off_c, 9, 42, 95
7, 32160, Note_off_c, 9, 35, 95
7, 32640, Note_on_c, 9, 42, 95
7, 33120, Note_off_c, 9, 42, 95
7, 33120, Note_on_c, 9, 42, 95
7, 33120, Note_on_c, 9, 38, 95
7, 33600, Note_off_c, 9, 42, 95
7, 33600, Note_off_c, 9, 38, 95
7, 34080, Note_on_c, 9, 42, 95
7, 34560, Note_off_c, 9, 42, 95
7, 34560, Note_on_c, 9, 42, 95
7, 34560, Note_on_c, 9, 35, 95
7, 35040, Note_off_c, 9, 42, 95
7, 35040, Note_off_c, 9, 35, 95
7, 35520, Note_on_c, 9, 42, 95
7, 36000, Note_off_c, 9, 42, 95
7, 36000, Note_on_c, 9, 42, 95
7, 36000, Note_on_c, 9, 38, 95
7, 36480, Note_off_c, 9, 42, 95
7, 36480, Note_off_c, 9, 38, 95
7, 36960, Note_on_c, 9, 42, 95
7, 36960, Note_on_c, 9, 35, 95
7, 37440, Note_off_c, 9, 42, 95
7, 37440, Note_off_c, 9, 35, 95
7, 37440, Note_on_c, 9, 42, 95
7, 37440, Note_on_c, 9, 35, 95
7, 37920, Note_off_c, 9, 42, 95
7, 37920, Note_off_c, 9, 35, 95
7, 38400, Note_on_c, 9, 42, 95
7, 38880, Note_off_c, 9, 42, 95
7, 38880, Note_on_c, 9, 42, 95
7, 38880, Note_on_c, 9, 38, 95
7, 39360, Note_off_c, 9, 42, 95
7, 39360, Note_off_c, 9, 38, 95
7, 39840, Note_on_c, 9, 42, 95
7, 40320, Note_off_c, 9, 42, 95
7, 40320, Note_on_c, 9, 42, 95
7, 40320, Note_on_c, 9, 35, 95
7, 40800, Note_off_c, 9, 42, 95
7, 40800, Note_off_c, 9, 35, 95
7, 41280, Note_on_c, 9, 42, 95
7, 41760, Note_off_c, 9, 42, 95
7, 41760, Note_on_c, 9, 42, 95
7, 41760, Note_on_c, 9, 38, 95
7, 42240, Note_off_c, 9, 42, 95
7, 42240, Note_off_c, 9, 38, 95
7, 42720, Note_on_c, 9, 42, 95
7, 42720, Note_on_c, 9, 35, 95
7, 43200, Note_off_c, 9, 42, 95
7, 43200, Note_off_c, 9, 35, 95
7, 43200, Note_on_c, 9, 42, 95
7, 43200, Note_on_c, 9, 35, 95
7, 43680, Note_off_c, 9, 42, 95
7, 43680, Note_off_c, 9, 35, 95
7, 44160, Note_on_c, 9, 42, 95
7, 44640, Note_off_c, 9, 42, 95
7, 44640, Note_on_c, 9, 42, 95
7, 44640, Note_on_c, 9, 38, 95
7, 45120, Note_off_c, 9, 42, 95
7, 45120, Note_off_c, 9, 38, 95
7, 45600, Note_on_c, 9, 42, 95
7, 46080, Note_off_c, 9, 42, 95
7, 46080, Note_on_c, 9, 42, 95
7, 46080, Note_on_c, 9, 35, 95
7, 46560, Note_off_c, 9, 42, 95
7, 46560, Note_off_c, 9, 35, 95
7, 47040, Note_on_c, 9, 42, 95
7, 47520, Note_off_c, 9, 42, 95
7, 47520, Note_on_c, 9, 42, 95
7, 47520, Note_on_c, 9, 38, 95
7, 48000, Note_off_c, 9, 42, 95
7, 48000, Note_off_c, 9, 38, 95
7, 48480, Note_on_c, 9, 42, 95
7, 48480, Note_on_c, 9, 35, 95
7, 48960, Note_off_c, 9, 42, 95
7, 48960, Note_off_c, 9, 35, 95
7, 48960, Note_on_c, 9, 42, 95
7, 48960, Note_on_c, 9, 35, 95
7, 49440, Note_off_c, 9, 42, 95
7, 49440, Note_off_c, 9, 35, 95
7, 49920, Note_on_c, 9, 42, 95
7, 50400, Note_off_c, 9, 42, 95
7, 50400, Note_on_c, 9, 42, 95
7, 50400, Note_on_c, 9, 38, 95
7, 50880, Note_off_c, 9, 42, 95
7, 50880, Note_off_c, 9, 38, 95
7, 51360, Note_on_c, 9, 42, 95
7, 51840, Note_off_c, 9, 42, 95
7, 51840, Note_on_c, 9, 42, 95
7, 51840, Note_on_c, 9, 35, 95
7, 52320, Note_off_c, 9, 42, 95
7, 52320, Note_off_c, 9, 35, 95
7, 52800, Note_on_c, 9, 42, 95
7, 53280, Note_off_c, 9, 42, 95
7, 53280, Note_on_c, 9, 42, 95
7, 53280, Note_on_c, 9, 38, 95
7, 53760, Note_off_c, 9, 42, 95
7, 53760, Note_off_c, 9, 38, 95
7, 54240, Note_on_c, 9, 42, 95
7, 54240, Note_on_c, 9, 35, 95
7, 54720, Note_off_c, 9, 42, 95
7, 54720, Note_off_c, 9, 35, 95
7, 54720, Note_on_c, 9, 42, 95
7, 54720, Note_on_c, 9, 35, 95
7, 55200, Note_off_c, 9, 42, 95
7, 55200, Note_off_c, 9, 35, 95
7, 55680, Note_on_c, 9, 42, 95
7, 56160, Note_off_c, 9, 42, 95
7, 56160, Note_on_c, 9, 42, 95
7, 56160, Note_on_c, 9, 38, 95
7, 56640, Note_off_c, 9, 42, 95
7, 56640, Note_off_c, 9, 38, 95
7, 57120, Note_on_c, 9, 42, 95
7, 57600, Note_off_c, 9, 42, 95
7, 57600, Note_on_c, 9, 42, 95
7, 57600, Note_on_c, 9, 35, 95
7, 58080, Note_off_c, 9, 42, 95
7, 58080, Note_off_c, 9, 35, 95
7, 58560, Note_on_c, 9, 42, 95
7, 59040, Note_off_c, 9, 42, 95
7, 59040, Note_on_c, 9, 42, 95
7, 59040, Note_on_c, 9, 38, 95
7, 59520, Note_off_c, 9, 42, 95
7, 59520, Note_off_c, 9, 38, 95
7, 60000, Note_on_c, 9, 42, 95
7, 60000, Note_on_c, 9, 35, 95
7, 60480, Note_off_c, 9, 42, 95
7, 60480, Note_off_c, 9, 35, 95
7, 60480, Note_on_c, 9, 42, 95
7, 60480, Note_on_c, 9, 35, 95
7, 60960, Note_off_c, 9, 42, 95
7, 60960, Note_off_c, 9, 35, 95
7, 61440, Note_on_c, 9, 42, 95
7, 61920, Note_off_c, 9, 42, 95
7, 61920, Note_on_c, 9, 42, 95
7, 61920, Note_on_c, 9, 38, 95
7, 62400, Note_off_c, 9, 42, 95
7, 62400, Note_off_c, 9, 38, 95
7, 62880, Note_on_c, 9, 42, 95
7, 63360, Note_off_c, 9, 42, 95
7, 63360, Note_on_c, 9, 42, 95
7, 63360, Note_on_c, 9, 35, 95
7, 63840, Note_off_c, 9, 42, 95
7, 63840, Note_off_c, 9, 35, 95
7, 64320, Note_on_c, 9, 42, 95
7, 64800, Note_off_c, 9, 42, 95
7, 64800, Note_on_c, 9, 42, 95
7, 64800, Note_on_c, 9, 38, 95
7, 65280, Note_off_c, 9, 42, 95
7, 65280, Note_off_c, 9, 38, 95
7, 65760, Note_on_c, 9, 42, 95
7, 65760, Note_on_c, 9, 35, 95
7, 66240, Note_off_c, 9, 42, 95
7, 66240, Note_off_c, 9, 35, 95
7, 66240, Note_on_c, 9, 42, 95
7, 66240, Note_on_c, 9, 35, 95
7, 66720, Note_off_c, 9, 42, 95
7, 66720, Note_off_c, 9, 35, 95
7, 67200, Note_on_c, 9, 42, 95
7, 67680, Note_off_c, 9, 42, 95
7, 67680, Note_on_c, 9, 42, 95
7, 67680, Note_on_c, 9, 38, 95
7, 68160, Note_off_c, 9, 42, 95
7, 68160, Note_off_c, 9, 38, 95
7, 68640, Note_on_c, 9, 42, 95
7, 69120, Note_off_c, 9, 42, 95
7, 69120, Note_on_c, 9, 42, 95
7, 69120, Note_on_c, 9, 35, 95
7, 69600, Note_off_c, 9, 42, 95
7, 69600, Note_off_c, 9, 35, 95
7, 70080, Note_on_c, 9, 42, 95
7, 70560, Note_off_c, 9, 42, 95
7, 70560, Note_on_c, 9, 42, 95
7, 70560, Note_on_c, 9, 38, 95
7, 71040, Note_off_c, 9, 42, 95
7, 71040, Note_off_c, 9, 38, 95
7, 71520, Note_on_c, 9, 42, 95
7, 71520, Note_on_c, 9, 35, 95
7, 72000, Note_off_c, 9, 42, 95
7, 72000, Note_off_c, 9, 35, 95
7, 72000, Note_on_c, 9, 42, 95
7, 72000, Note_on_c, 9, 35, 95
7, 72480, Note_off_c, 9, 42, 95
7, 72480, Note_off_c, 9, 35, 95
7, 72960, Note_on_c, 9, 42, 95
7, 73440, Note_off_c, 9, 42, 95
7, 73440, Note_on_c, 9, 42, 95
7, 73440, Note_on_c, 9, 38, 95
7, 73920, Note_off_c, 9, 42, 95
7, 73920, Note_off_c, 9, 38, 95
7, 74400, Note_on_c, 9, 42, 95
7, 74880, Note_off_c, 9, 42, 95
7, 74880, Note_on_c, 9, 42, 95
7, 74880, Note_on_c, 9, 35, 95
7, 75360, Note_off_c, 9, 42, 95
7, 75360, Note_off_c, 9, 35, 95
7, 75840, Note_on_c, 9, 42, 95
7, 76320, Note_off_c, 9, 42, 95
7, 76320, Note_on_c, 9, 42, 95
7, 76320, Note_on_c, 9, 38, 95
7, 76800, Note_off_c, 9, 42, 95
7, 76800, Note_off_c, 9, 38, 95
7, 77280, Note_on_c, 9, 42, 95
7, 77280, Note_on_c, 9, 35, 95
7, 77760, Note_off_c, 9, 42, 95
7, 77760, Note_off_c, 9, 35, 95
7, 77760, Note_on_c, 9, 42, 95
7, 77760, Note_on_c, 9, 35, 95
7, 78240, Note_off_c, 9, 42, 95
7, 78240, Note_off_c, 9, 35, 95
7, 78720, Note_on_c, 9, 42, 95
7, 79200, Note_off_c, 9, 42, 95
7, 79200, Note_on_c, 9, 42, 95
7, 79200, Note_on_c, 9, 38, 95
7, 79680, Note_off_c, 9, 42, 95
7, 79680, Note_off_c, 9, 38, 95
7, 80160, Note_on_c, 9, 42, 95
7, 80640, Note_off_c, 9, 42, 95
7, 80640, Note_on_c, 9, 42, 95
7, 80640, Note_on_c, 9, 35, 95
7, 81120, Note_off_c, 9, 42, 95
7, 81120, Note_off_c, 9, 35, 95
7, 81600, Note_on_c, 9, 42, 95
7, 82080, Note_off_c, 9, 42, 95
7, 82080, Note_on_c, 9, 42, 95
7, 82080, Note_on_c, 9, 38, 95
7, 82560, Note_off_c, 9, 42, 95
7, 82560, Note_off_c, 9, 38, 95
7, 83040, Note_on_c, 9, 42, 95
7, 83040, Note_on_c, 9, 35, 95
7, 83520, Note_off_c, 9, 42, 95
7, 83520, Note_off_c, 9, 35, 95
7, 83520, Note_on_c, 9, 42, 95
7, 83520, Note_on_c, 9, 35, 95
7, 84000, Note_off_c, 9, 42, 95
7, 84000, Note_off_c, 9, 35, 95
7, 84480, Note_on_c, 9, 42, 95
7, 84960, Note_off_c, 9, 42, 95
7, 84960, Note_on_c, 9, 42, 95
7, 84960, Note_on_c, 9, 38, 95
7, 85440, Note_off_c, 9, 42, 95
7, 85440, Note_off_c, 9, 38, 95
7, 85920, Note_on_c, 9, 42, 95
7, 86400, Note_off_c, 9, 42, 95
7, 86400, Note_on_c, 9, 42, 95
7, 86400, Note_on_c, 9, 35, 95
7, 86880, Note_off_c, 9, 42, 95
7, 86880, Note_off_c, 9, 35, 95
7, 87360, Note_on_c, 9, 42, 95
7, 87840, Note_off_c, 9, 42, 95
7, 87840, Note_on_c, 9, 42, 95
7, 87840, Note_on_c, 9, 38, 95
7, 88320, Note_off_c, 9, 42, 95
7, 88320, Note_off_c, 9, 38, 95
7, 88800, Note_on_c, 9, 42, 95
7, 88800, Note_on_c, 9, 35, 95
7, 89280, Note_off_c, 9, 42, 95
7, 89280, Note_off_c, 9, 35, 95
7, 89280, Note_on_c, 9, 42, 95
7, 89280, Note_on_c, 9, 35, 95
7, 89760, Note_off_c, 9, 42, 95
7, 89760, Note_off_c, 9, 35, 95
7, 90240, Note_on_c, 9, 42, 95
7, 90720, Note_off_c, 9, 42, 95
7, 90720, Note_on_c, 9, 42, 95
7, 90720, Note_on_c, 9, 38, 95
7, 91200, Note_off_c, 9, 42, 95
7, 91200, Note_off_c, 9, 38, 95
7, 91680, Note_on_c, 9, 42, 95
7, 92160, Note_off_c, 9, 42, 95
7, 92160, Note_on_c, 9, 42, 95
7, 92160, Note_on_c, 9, 35, 95
7, 92640, Note_off_c, 9, 42, 95
7, 92640, Note_off_c, 9, 35, 95
7, 93120, Note_on_c, 9, 42, 95
7, 93600, Note_off_c, 9, 42, 95
7, 93600, Note_on_c, 9, 42, 95
7, 93600, Note_on_c, 9, 38, 95
7, 94080, Note_off_c, 9, 42, 95
7, 94080, Note_off_c, 9, 38, 95
7, 94560, Note_on_c, 9, 42, 95
7, 94560, Note_on_c, 9, 35, 95
7, 95040, Note_off_c, 9, 42, 95
7, 95040, Note_off_c, 9, 35, 95
7, 95040, Note_on_c, 9, 42, 95
7, 95040, Note_on_c, 9, 35, 95
7, 95520, Note_off_c, 9, 42, 95
7, 95520, Note_off_c, 9, 35, 95
7, 96000, Note_on_c, 9, 42, 95
7, 96480, Note_off_c, 9, 42, 95
7, 96480, Note_on_c, 9, 42, 95
7, 96480, Note_on_c, 9, 38, 95
7, 96960, Note_off_c, 9, 42, 95
7, 96960, Note_off_c, 9, 38, 95
7, 97440, Note_on_c, 9, 42, 95
7, 97920, Note_off_c, 9, 42, 95
7, 97920, Note_on_c, 9, 42, 95
7, 97920, Note_on_c, 9, 35, 95
7, 98400, Note_off_c, 9, 42, 95
7, 98400, Note_off_c, 9, 35, 95
7, 98880, Note_on_c, 9, 42, 95
7, 99360, Note_off_c, 9, 42, 95
7, 99360, Note_on_c, 9, 42, 95
7, 99360, Note_on_c, 9, 38, 95
7, 99840, Note_off_c, 9, 42, 95
7, 99840, Note_off_c, 9, 38, 95
7, 100320, Note_on_c, 9, 42, 95
7, 100320, Note_on_c, 9, 35, 95
7, 100800, Note_off_c, 9, 42, 95
7, 100800, Note_off_c, 9, 35, 95
7, 100800, Note_on_c, 9, 42, 95
7, 100800, Note_on_c, 9, 35, 95
7, 101280, Note_off_c, 9, 42, 95
7, 101280, Note_off_c, 9, 35, 95
7, 101760, Note_on_c, 9, 42, 95
7, 102240, Note_off_c, 9, 42, 95
7, 102240, Note_on_c, 9, 42, 95
7, 102240, Note_on_c, 9, 38, 95
7, 102720, Note_off_c, 9, 42, 95
7, 102720, Note_off_c, 9, 38, 95
7, 103200, Note_on_c, 9, 42, 95
7, 103680, Note_off_c, 9, 42, 95
7, 103680, Note_on_c, 9, 42, 95
7, 103680, Note_on_c, 9, 35, 95
7, 104160, Note_off_c, 9, 42, 95
7, 104160, Note_off_c, 9, 35, 95
7, 104640, Note_on_c, 9, 42, 95
7, 105120, Note_off_c, 9, 42, 95
7, 105120, Note_on_c, 9, 42, 95
7, 105120, Note_on_c, 9, 38, 95
7, 105600, Note_off_c, 9, 42, 95
7, 105600, Note_off_c, 9, 38, 95
7, 106080, Note_on_c, 9, 42, 95
7, 106080, Note_on_c, 9, 35, 95
7, 106560, Note_off_c, 9, 42, 95
7, 106560, Note_off_c, 9, 35, 95
7, 106560, Note_on_c, 9, 42, 95
7, 106560, Note_on_c, 9, 35, 95
7, 107040, Note_off_c, 9, 42, 95
7, 107040, Note_off_c, 9, 35, 95
7, 107520, Note_on_c, 9, 42, 95
7, 108000, Note_off_c, 9, 42, 95
7, 108000, Note_on_c, 9, 42, 95
7, 108000, Note_on_c, 9, 38, 95
7, 108480, Note_off_c, 9, 42, 95
7, 108480, Note_off_c, 9, 38, 95
7, 108960, Note_on_c, 9, 42, 95
7, 109440, Note_off_c, 9, 42, 95
7, 109440, Note_on_c, 9, 42, 95
7, 109440, Note_on_c, 9, 35, 95
7, 109920, Note_off_c, 9, 42, 95
7, 109920, Note_off_c, 9, 35, 95
7, 110400, Note_on_c, 9, 42, 95
7, 110880, Note_off_c, 9, 42, 95
7, 110880, Note_on_c, 9, 42, 95
7, 110880, Note_on_c, 9, 38, 95
7, 111360, Note_off_c, 9, 42, 95
7, 111360, Note_off_c, 9, 38, 95
7, 111840, Note_on_c, 9, 42, 95
7, 111840, Note_on_c, 9, 35, 95
7, 112320, Note_off_c, 9, 42, 95
7, 112320, Note_off_c, 9, 35, 95
7, 112320, Note_on_c, 9, 42, 95
7, 112320, Note_on_c, 9, 35, 95
7, 112800, Note_off_c, 9, 42, 95
7, 112800, Note_off_c, 9, 35, 95
7, 113280, Note_on_c, 9, 42, 95
7, 113760, Note_off_c, 9, 42, 95
7, 113760, Note_on_c, 9, 42, 95
7, 113760, Note_on_c, 9, 38, 95
7, 114240, Note_off_c, 9, 42, 95
7, 114240, Note_off_c, 9, 38, 95
7, 114720, Note_on_c, 9, 42, 95
7, 115200, Note_off_c, 9, 42, 95
7, 115200, Note_on_c, 9, 42, 95
7, 115200, Note_on_c, 9, 35, 95
7, 115680, Note_off_c, 9, 42, 95
7, 115680, Note_off_c, 9, 35, 95
7, 116160, Note_on_c, 9, 42, 95
7, 116640, Note_off_c, 9, 42, 95
7, 116640, Note_on_c, 9, 42, 95
7, 116640, Note_on_c, 9, 38, 95
7, 117120, Note_off_c, 9, 42, 95
7, 117120, Note_off_c, 9, 38, 95
7, 117600, Note_on_c, 9, 42, 95
7, 117600, Note_on_c, 9, 35, 95
7, 118080, Note_off_c, 9, 42, 95
7, 118080, Note_off_c, 9, 35, 95
7, 118080, Note_on_c, 9, 42, 95
7, 118080, Note_on_c, 9, 35, 95
7, 118560, Note_off_c, 9, 42, 95
7, 118560, Note_off_c, 9, 35, 95
7, 119040, Note_on_c, 9, 42, 95
7, 119520, Note_off_c, 9, 42, 95
7, 119520, Note_on_c, 9, 42, 95
7, 119520, Note_on_c, 9, 38, 95
7, 120000, Note_off_c, 9, 42, 95
7, 120000, Note_off_c, 9, 38, 95
7, 120480, Note_on_c, 9, 42, 95
7, 120960, Note_off_c, 9, 42, 95
7, 120960, Note_on_c, 9, 42, 95
7, 120960, Note_on_c, 9, 35, 95
7, 121440, Note_off_c, 9, 42, 95
7, 121440, Note_off_c, 9, 35, 95
7, 121920, Note_on_c, 9, 42, 95
7, 122400, Note_off_c, 9, 42, 95
7, 122400, Note_on_c, 9, 42, 95
7, 122400, Note_on_c, 9, 38, 95
7, 122880, Note_off_c, 9, 42, 95
7, 122880, Note_off_c, 9, 38, 95
7, 123360, Note_on_c, 9, 42, 95
7, 123360, Note_on_c, 9, 35, 95
7, 123840, Note_off_c, 9, 42, 95
7, 123840, Note_off_c, 9, 35, 95
7, 123840, Note_on_c, 9, 42, 95
7, 123840, Note_on_c, 9, 35, 95
7, 124320, Note_off_c, 9, 42, 95
7, 124320, Note_off_c, 9, 35, 95
7, 124800, Note_on_c, 9, 42, 95
7, 125280, Note_off_c, 9, 42, 95
7, 125280, Note_on_c, 9, 42, 95
7, 125280, Note_on_c, 9, 38, 95
7, 125760, Note_off_c, 9, 42, 95
7, 125760, Note_off_c, 9, 38, 95
7, 126240, Note_on_c, 9, 42, 95
7, 126720, Note_off_c, 9, 42, 95
7, 126720, Note_on_c, 9, 42, 95
7, 126720, Note_on_c, 9, 35, 95
7, 127200, Note_off_c, 9, 42, 95
7, 127200, Note_off_c, 9, 35, 95
7, 127680, Note_on_c, 9, 42, 95
7, 128160, Note_off_c, 9, 42, 95
7, 128160, Note_on_c, 9, 42, 95
7, 128160, Note_on_c, 9, 38, 95
7, 128640, Note_off_c, 9, 42, 95
7, 128640, Note_off_c, 9, 38, 95
7, 129120, Note_on_c, 9, 42, 95
7, 129120, Note_on_c, 9, 35, 95
7, 129600, Note_off_c, 9, 42, 95
7, 129600, Note_off_c, 9, 35, 95
7, 129600, Note_on_c, 9, 42, 95
7, 129600, Note_on_c, 9, 35, 95
7, 130080, Note_off_c, 9, 42, 95
7, 130080, Note_off_c, 9, 35, 95
7, 130560, Note_on_c, 9, 42, 95
7, 131040, Note_off_c, 9, 42, 95
7, 131040, Note_on_c, 9, 42, 95
7, 131040, Note_on_c, 9, 38, 95
7, 131520, Note_off_c, 9, 42, 95
7, 131520, Note_off_c, 9, 38, 95
7, 132000, Note_on_c, 9, 42, 95
7, 132480, Note_off_c, 9, 42, 95
7, 132480, Note_on_c, 9, 42, 95
7, 132480, Note_on_c, 9, 35, 95
7, 132960, Note_off_c, 9, 42, 95
7, 132960, Note_off_c, 9, 35, 95
7, 133440, Note_on_c, 9, 42, 95
7, 133920, Note_off_c, 9, 42, 95
7, 133920, Note_on_c, 9, 42, 95
7, 133920, Note_on_c, 9, 38, 95
7, 134400, Note_off_c, 9, 42, 95
7, 134400, Note_off_c, 9, 38, 95
7, 134880, Note_on_c, 9, 42, 95
7, 134880, Note_on_c, 9, 35, 95
7, 135360, Note_off_c, 9, 42, 95
7, 135360, Note_off_c, 9, 35, 95
7, 135360, Note_on_c, 9, 42, 95
7, 135360, Note_on_c, 9, 35, 95
7, 135840, Note_off_c, 9, 42, 95
7, 135840, Note_off_c, 9, 35, 95
7, 136320, Note_on_c, 9, 42, 95
7, 136800, Note_off_c, 9, 42, 95
7, 136800, Note_on_c, 9, 42, 95
7, 136800, Note_on_c, 9, 38, 95
7, 137280, Note_off_c, 9, 42, 95
7, 137280, Note_off_c, 9, 38, 95
7, 137760, Note_on_c, 9, 42, 95
7, 138240, Note_off_c, 9, 42, 95
7, 138240, Note_on_c, 9, 42, 95
7, 138240, Note_on_c, 9, 35, 95
7, 138720, Note_off_c, 9, 42, 95
7, 138720, Note_off_c, 9, 35, 95
7, 139200, Note_on_c, 9, 42, 95
7, 139680, Note_off_c, 9, 42, 95
7, 139680, Note_on_c, 9, 42, 95
7, 139680, Note_on_c, 9, 38, 95
7, 140160, Note_off_c, 9, 42, 95
7, 140160, Note_off_c, 9, 38, 95
7, 140640, Note_on_c, 9, 42, 95
7, 140640, Note_on_c, 9, 35, 95
7, 141120, Note_off_c, 9, 42, 95
7, 141120, Note_off_c, 9, 35, 95
7, 141120, Note_on_c, 9, 42, 95
7, 141120, Note_on_c, 9, 35, 95
7, 141600, Note_off_c, 9, 42, 95
7, 141600, Note_off_c, 9, 35, 95
7, 142080, Note_on_c, 9, 42, 95
7, 142560, Note_off_c, 9, 42, 95
7, 142560, Note_on_c, 9, 42, 95
7, 142560, Note_on_c, 9, 38, 95
7, 143040, Note_off_c, 9, 42, 95
7, 143040, Note_off_c, 9, 38, 95
7, 143520, Note_on_c, 9, 42, 95
7, 144000, Note_off_c, 9, 42, 95
7, 144000, Note_on_c, 9, 42, 95
7, 144000, Note_on_c, 9, 35, 95
7, 144480, Note_off_c, 9, 42, 95
7, 144480, Note_off_c, 9, 35, 95
7, 144960, Note_on_c, 9, 42, 95
7, 145440, Note_off_c, 9, 42, 95
7, 145440, Note_on_c, 9, 42, 95
7, 145440, Note_on_c, 9, 38, 95
7, 145920, Note_off_c, 9, 42, 95
7, 145920, Note_off_c, 9, 38, 95
7, 146400, Note_on_c, 9, 42, 95
7, 146400, Note_on_c, 9, 35, 95
7, 146880, Note_off_c, 9, 42, 95
7, 146880, Note_off_c, 9, 35, 95
7, 146880, Note_on_c, 9, 42, 95
7, 146880, Note_on_c, 9, 35, 95
7, 147360, Note_off_c, 9, 42, 95
7, 147360, Note_off_c, 9, 35, 95
7, 147840, Note_on_c, 9, 42, 95
7, 148320, Note_off_c, 9, 42, 95
7, 148320, Note_on_c, 9, 42, 95
7, 148320, Note_on_c, 9, 38, 95
7, 148800, Note_off_c, 9, 42, 95
7, 148800, Note_off_c, 9, 38, 95
7, 149280, Note_on_c, 9, 42, 95
7, 149760, Note_off_c, 9, 42, 95
7, 149760, Note_on_c, 9, 42, 95
7, 149760, Note_on_c, 9, 35, 95
7, 150240, Note_off_c, 9, 42, 95
7, 150240, Note_off_c, 9, 35, 95
7, 150720, Note_on_c, 9, 42, 95
7, 151200, Note_off_c, 9, 42, 95
7, 151200, Note_on_c, 9, 42, 95
7, 151200, Note_on_c, 9, 38, 95
7, 151680, Note_off_c, 9, 42, 95
7, 151680, Note_off_c, 9, 38, 95
7, 152160, Note_on_c, 9, 42, 95
7, 152160, Note_on_c, 9, 35, 95
7, 152640, Note_off_c, 9, 42, 95
7, 152640, Note_off_c, 9, 35, 95
7, 152640, Note_on_c, 9, 42, 95
7, 152640, Note_on_c, 9, 35, 95
7, 153120, Note_off_c, 9, 42, 95
7, 153120, Note_off_c, 9, 35, 95
7, 153600, Note_on_c, 9, 42, 95
7, 154080, Note_off_c, 9, 42, 95
7, 154080, Note_on_c, 9, 42, 95
7, 154080, Note_on_c, 9, 38, 95
7, 154560, Note_off_c, 9, 42, 95
7, 154560, Note_off_c, 9, 38, 95
7, 155040, Note_on_c, 9, 42, 95
7, 155520, Note_off_c, 9, 42, 95
7, 155520, Note_on_c, 9, 42, 95
7, 155520, Note_on_c, 9, 35, 95
7, 156000, Note_off_c, 9, 42, 95
7, 156000, Note_off_c, 9, 35, 95
7, 156480, Note_on_c, 9, 42, 95
7, 156960, Note_off_c, 9, 42, 95
7, 156960, Note_on_c, 9, 42, 95
7, 156960, Note_on_c, 9, 38, 95
7, 157440, Note_off_c, 9, 42, 95
7, 157440, Note_off_c, 9, 38, 95
7, 157920, Note_on_c, 9, 42, 95
7, 157920, Note_on_c, 9, 35, 95
7, 158400, Note_off_c, 9, 42, 95
7, 158400, Note_off_c, 9, 35, 95
7, 158400, Note_on_c, 9, 42, 95
7, 158400, Note_on_c, 9, 35, 95
7, 158880, Note_off_c, 9, 42, 95
7, 158880, Note_off_c, 9, 35, 95
7, 159360, Note_on_c, 9, 42, 95
7, 159840, Note_off_c, 9, 42, 95
7, 159840, Note_on_c, 9, 42, 95
7, 159840, Note_on_c, 9, 38, 95
7, 160320, Note_off_c, 9, 42, 95
7, 160320, Note_off_c, 9, 38, 95
7, 160800, Note_on_c, 9, 42, 95
7, 161280, Note_off_c, 9, 42, 95
7, 161280, Note_on_c, 9, 42, 95
7, 161280, Note_on_c, 9, 35, 95
7, 161760, Note_off_c, 9, 42, 95
7, 161760, Note_off_c, 9, 35, 95
7, 162240, Note_on_c, 9, 42, 95
7, 162720, Note_off_c, 9, 42, 95
7, 162720, Note_on_c, 9, 42, 95
7, 162720, Note_on_c, 9, 38, 95
7, 163200, Note_off_c, 9, 42, 95
7, 163200, Note_off_c, 9, 38, 95
7, 163680, Note_on_c, 9, 42, 95
7, 163680, Note_on_c, 9, 35, 95
7, 164160, Note_off_c, 9, 42, 95
7, 164160, Note_off_c, 9, 35, 95
7, 164160, Note_on_c, 9, 42, 95
7, 164160, Note_on_c, 9, 35, 95
7, 164640, Note_off_c, 9, 42, 95
7, 164640, Note_off_c, 9, 35, 95
7, 165120, Note_on_c, 9, 42, 95
7, 165600, Note_off_c, 9, 42, 95
7, 165600, Note_on_c, 9, 42, 95
7, 165600, Note_on_c, 9, 38, 95
7, 166080, Note_off_c, 9, 42, 95
7, 166080, Note_off_c, 9, 38, 95
7, 166560, Note_on_c, 9, 42, 95
7, 167040, Note_off_c, 9, 42, 95
7, 167040, Note_on_c, 9, 42, 95
7, 167040, Note_on_c, 9, 35, 95
7, 167520, Note_off_c, 9, 42, 95
7, 167520, Note_off_c, 9, 35, 95
7, 168000, Note_on_c, 9, 42, 95
7, 168480, Note_off_c, 9, 42, 95
7, 168480, Note_on_c, 9, 42, 95
7, 168480, Note_on_c, 9, 38, 95
7, 168960, Note_off_c, 9, 42, 95
7, 168960, Note_off_c, 9, 38, 95
7, 169440, Note_on_c, 9, 42, 95
7, 169440, Note_on_c, 9, 35, 95
7, 169920, Note_off_c, 9, 42, 95
7, 169920, Note_off_c, 9, 35, 95
7, 169920, Note_on_c, 9, 42, 95
7, 169920, Note_on_c, 9, 35, 95
7, 170400, Note_off_c, 9, 42, 95
7, 170400, Note_off_c, 9, 35, 95
7, 170880, Note_on_c, 9, 42, 95
7, 171360, Note_off_c, 9, 42, 95
7, 171360, Note_on_c, 9, 42, 95
7, 171360, Note_on_c, 9, 38, 95
7, 171840, Note_off_c, 9, 42, 95
7, 171840, Note_off_c, 9, 38, 95
7, 172320, Note_on_c, 9, 42, 95
7, 172800, Note_off_c, 9, 42, 95
7, 172800, Note_on_c, 9, 42, 95
7, 172800, Note_on_c, 9, 35, 95
7, 173280, Note_off_c, 9, 42, 95
7, 173280, Note_off_c, 9, 35, 95
7, 173760, Note_on_c, 9, 42, 95
7, 174240, Note_off_c, 9, 42, 95
7, 174240, Note_on_c, 9, 42, 95
7, 174240, Note_on_c, 9, 38, 95
7, 174720, Note_off_c, 9, 42, 95
7, 174720, Note_off_c, 9, 38, 95
7, 175200, Note_on_c, 9, 42, 95
7, 175200, Note_on_c, 9, 35, 95
7, 175680, Note_off_c, 9, 42, 95
7, 175680, Note_off_c, 9, 35, 95
7, 175680, Note_on_c, 9, 42, 95
7, 175680, Note_on_c, 9, 35, 95
7, 176160, Note_off_c, 9, 42, 95
7, 176160, Note_off_c, 9, 35, 95
7, 176640, Note_on_c, 9, 42, 95
7, 177120, Note_off_c, 9, 42, 95
7, 177120, Note_on_c, 9, 42, 95
7, 177120, Note_on_c, 9, 38, 95
7, 177600, Note_off_c, 9, 42, 95
7, 177600, Note_off_c, 9, 38, 95
7, 178080, Note_on_c, 9, 42, 95
7, 178560, Note_off_c, 9, 42, 95
7, 178560, Note_on_c, 9, 42, 95
7, 178560, Note_on_c, 9, 35, 95
7, 179040, Note_off_c, 9, 42, 95
7, 179040, Note_off_c, 9, 35, 95
7, 179520, Note_on_c, 9, 42, 95
7, 180000, Note_off_c, 9, 42, 95
7, 180000, Note_on_c, 9, 42, 95
7, 180000, Note_on_c, 9, 38, 95
7, 180480, Note_off_c, 9, 42, 95
7, 180480, Note_off_c, 9, 38, 95
7, 180960, Note_on_c, 9, 42, 95
7, 180960, Note_on_c, 9, 35, 95
7, 181440, Note_off_c, 9, 42, 95
7, 181440, Note_off_c, 9, 35, 95
7, 181440, Note_on_c, 9, 42, 95
7, 181440, Note_on_c, 9, 35, 95
7, 181920, Note_off_c, 9, 42, 95
7, 181920, Note_off_c, 9, 35, 95
7, 182400, Note_on_c, 9, 42, 95
7, 182880, Note_off_c, 9, 42, 95
7, 182880, Note_on_c, 9, 42, 95
7, 182880, Note_on_c, 9, 38, 95
7, 183360, Note_off_c, 9, 42, 95
7, 183360, Note_off_c, 9, 38, 95
7, 183840, Note_on_c, 9, 42, 95
7, 184320, Note_off_c, 9, 42, 95
7, 184320, Note_on_c, 9, 42, 95
7, 184320, Note_on_c, 9, 35, 95
7, 184800, Note_off_c, 9, 42, 95
7, 184800, Note_off_c, 9, 35, 95
7, 185280, Note_on_c, 9, 42, 95
7, 185760, Note_off_c, 9, 42, 95
7, 185760, Note_on_c, 9, 42, 95
7, 185760, Note_on_c, 9, 38, 95
7, 186240, Note_off_c, 9, 42, 95
7, 186240, Note_off_c, 9, 38, 95
7, 186720, Note_on_c, 9, 42, 95
7, 186720, Note_on_c, 9, 35, 95
7, 187200, Note_off_c, 9, 42, 95
7, 187200, Note_off_c, 9, 35, 95
7, 187200, Note_on_c, 9, 42, 95
7, 187200, Note_on_c, 9, 35, 95
7, 187680, Note_off_c, 9, 42, 95
7, 187680, Note_off_c, 9, 35, 95
7, 188160, Note_on_c, 9, 42, 95
7, 188640, Note_off_c, 9, 42, 95
7, 188640, Note_on_c, 9, 42, 95
7, 188640, Note_on_c, 9, 38, 95
7, 189120, Note_off_c, 9, 42, 95
7, 189120, Note_off_c, 9, 38, 95
7, 189600, Note_on_c, 9, 42, 95
7, 190080, Note_off_c, 9, 42, 95
7, 190080, Note_on_c, 9, 42, 95
7, 190080, Note_on_c, 9, 35, 95
7, 190560, Note_off_c, 9, 42, 95
7, 190560, Note_off_c, 9, 35, 95
7, 191040, Note_on_c, 9, 42, 95
7, 191520, Note_off_c, 9, 42, 95
7, 191520, Note_on_c, 9, 42, 95
7, 191520, Note_on_c, 9, 38, 95
7, 192000, Note_off_c, 9, 42, 95
7, 192000, Note_off_c, 9, 38, 95
7, 192480, Note_on_c, 9, 42, 95
7, 192480, Note_on_c, 9, 35, 95
7, 192960, Note_off_c, 9, 42, 95
7, 192960, Note_off_c, 9, 35, 95
7, 192960, Note_on_c, 9, 42, 95
7, 192960, Note_on_c, 9, 35, 95
7, 193440, Note_off_c, 9, 42, 95
7, 193440, Note_off_c, 9, 35, 95
7, 193920, Note_on_c, 9, 42, 95
7, 194400, Note_off_c, 9, 42, 95
7, 194400, Note_on_c, 9, 42, 95
7, 194400, Note_on_c, 9, 38, 95
7, 194880, Note_off_c, 9, 42, 95
7, 194880, Note_off_c, 9, 38, 95
7, 195360, Note_on_c, 9, 42, 95
7, 195840, Note_off_c, 9, 42, 95
7, 195840, Note_on_c, 9, 42, 95
7, 195840, Note_on_c, 9, 35, 95
7, 196320, Note_off_c, 9, 42, 95
7, 196320, Note_off_c, 9, 35, 95
7, 196800, Note_on_c, 9, 42, 95
7, 197280, Note_off_c, 9, 42, 95
7, 197280, Note_on_c, 9, 42, 95
7, 197280, Note_on_c, 9, 38, 95
7, 197760, Note_off_c, 9, 42, 95
7, 197760, Note_off_c, 9, 38, 95
7, 198240, Note_on_c, 9, 42, 95
7, 198240, Note_on_c, 9, 35, 95
7, 198720, Note_off_c, 9, 42, 95
7, 198720, Note_off_c, 9, 35, 95
7, 198720, Note_on_c, 9, 42, 95
7, 198720, Note_on_c, 9, 35, 95
7, 199200, Note_off_c, 9, 42, 95
7, 199200, Note_off_c, 9, 35, 95
7, 199680, Note_on_c, 9, 42, 95
7, 200160, Note_off_c, 9, 42, 95
7, 200160, Note_on_c, 9, 42, 95
7, 200160, Note_on_c, 9, 38, 95
7, 200640, Note_off_c, 9, 42, 95
7, 200640, Note_off_c, 9, 38, 95
7, 201120, Note_on_c, 9, 42, 95
7, 201600, Note_off_c, 9, 42, 95
7, 201600, Note_on_c, 9, 42, 95
7, 201600, Note_on_c, 9, 35, 95
7, 202080, Note_off_c, 9, 42, 95
7, 202080, Note_off_c, 9, 35, 95
7, 202560, Note_on_c, 9, 42, 95
7, 203040, Note_off_c, 9, 42, 95
7, 203040, Note_on_c, 9, 42, 95
7, 203040, Note_on_c, 9, 38, 95
7, 203520, Note_off_c, 9, 42, 95
7, 203520, Note_off_c, 9, 38, 95
7, 204000, Note_on_c, 9, 42, 95
7, 204000, Note_on_c, 9, 35, 95
7, 204480, Note_off_c, 9, 42, 95
7, 204480, Note_off_c, 9, 35, 95
7, 204480, Note_on_c, 9, 42, 95
7, 204480, Note_on_c, 9, 35, 95
7, 204960, Note_off_c, 9, 42, 95
7, 204960, Note_off_c, 9, 35, 95
7, 205440, Note_on_c, 9, 42, 95
7, 205920, Note_off_c, 9, 42, 95
7, 205920, Note_on_c, 9, 42, 95
7, 205920, Note_on_c, 9, 38, 95
7, 206400, Note_off_c, 9, 42, 95
7, 206400, Note_off_c, 9, 38, 95
7, 206880, Note_on_c, 9, 42, 95
7, 207360, Note_off_c, 9, 42, 95
7, 207360, Note_on_c, 9, 42, 95
7, 207360, Note_on_c, 9, 35, 95
7, 207840, Note_off_c, 9, 42, 95
7, 207840, Note_off_c, 9, 35, 95
7, 208320, Note_on_c, 9, 42, 95
7, 208800, Note_off_c, 9, 42, 95
7, 208800, Note_on_c, 9, 42, 95
7, 208800, Note_on_c, 9, 38, 95
7, 209280, Note_off_c, 9, 42, 95
7, 209280, Note_off_c, 9, 38, 95
7, 209760, Note_on_c, 9, 42, 95
7, 209760, Note_on_c, 9, 35, 95
7, 210240, Note_off_c, 9, 42, 95
7, 210240, Note_off_c, 9, 35, 95
7, 210240, Note_on_c, 9, 42, 95
7, 210240, Note_on_c, 9, 35, 95
7, 210720, Note_off_c, 9, 42, 95
7, 210720, Note_off_c, 9, 35, 95
7, 211200, Note_on_c, 9, 42, 95
7, 211680, Note_off_c, 9, 42, 95
7, 211680, Note_on_c, 9, 42, 95
7, 211680, Note_on_c, 9, 38, 95
7, 212160, Note_off_c, 9, 42, 95
7, 212160, Note_off_c, 9, 38, 95
7, 212640, Note_on_c, 9, 42, 95
7, 213120, Note_off_c, 9, 42, 95
7, 213120, Note_on_c, 9, 42, 95
7, 213120, Note_on_c, 9, 35, 95
7, 213600, Note_off_c, 9, 42, 95
7, 213600, Note_off_c, 9, 35, 95
7, 214080, Note_on_c, 9, 42, 95
7, 214560, Note_off_c, 9, 42, 95
7, 214560, Note_on_c, 9, 42, 95
7, 214560, Note_on_c, 9, 38, 95
7, 215040, Note_off_c, 9, 42, 95
7, 215040, Note_off_c, 9, 38, 95
7, 215520, Note_on_c, 9, 42, 95
7, 215520, Note_on_c, 9, 35, 95
7, 216000, Note_off_c, 9, 42, 95
7, 216000, Note_off_c, 9, 35, 95
7, 216000, Note_on_c, 9, 42, 95
7, 216000, Note_on_c, 9, 35, 95
7, 216480, Note_off_c, 9, 42, 95
7, 216480, Note_off_c, 9, 35, 95
7, 216960, Note_on_c, 9, 42, 95
7, 217440, Note_off_c, 9, 42, 95
7, 217440, Note_on_c, 9, 42, 95
7, 217440, Note_on_c, 9, 38, 95
7, 217920, Note_off_c, 9, 42, 95
7, 217920, Note_off_c, 9, 38, 95
7, 218400, Note_on_c, 9, 42, 95
7, 218880, Note_off_c, 9, 42, 95
7, 218880, Note_on_c, 9, 42, 95
7, 218880, Note_on_c, 9, 35, 95
7, 219360, Note_off_c, 9, 42, 95
7, 219360, Note_off_c, 9, 35, 95
7, 219840, Note_on_c, 9, 42, 95
7, 220320, Note_off_c, 9, 42, 95
7, 220320, Note_on_c, 9, 42, 95
7, 220320, Note_on_c, 9, 38, 95
7, 220800, Note_off_c, 9, 42, 95
7, 220800, Note_off_c, 9, 38, 95
7, 221280, Note_on_c, 9, 42, 95
7, 221280, Note_on_c, 9, 35, 95
7, 221760, Note_off_c, 9, 42, 95
7, 221760, Note_off_c, 9, 35, 95
7, 221760, Note_on_c, 9, 42, 95
7, 221760, Note_on_c, 9, 35, 95
7, 222240, Note_off_c, 9, 42, 95
7, 222240, Note_off_c, 9, 35, 95
7, 222720, Note_on_c, 9, 42, 95
7, 223200, Note_off_c, 9, 42, 95
7, 223200, Note_on_c, 9, 42, 95
7, 223200, Note_on_c, 9, 38, 95
7, 223680, Note_off_c, 9, 42, 95
7, 223680, Note_off_c, 9, 38, 95
7, 224160, Note_on_c, 9, 42, 95
7, 224640, Note_off_c, 9, 42, 95
7, 224640, Note_on_c, 9, 42, 95
7, 224640, Note_on_c, 9, 35, 95
7, 225120, Note_off_c, 9, 42, 95
7, 225120, Note_off_c, 9, 35, 95
7, 225600, Note_on_c, 9, 42, 95
7, 226080, Note_off_c, 9, 42, 95
7, 226080, Note_on_c, 9, 42, 95
7, 226080, Note_on_c, 9, 38, 95
7, 226560, Note_off_c, 9, 42, 95
7, 226560, Note_off_c, 9, 38, 95
7, 227040, Note_on_c, 9, 42, 95
7, 227040, Note_on_c, 9, 35, 95
7, 227520, Note_off_c, 9, 42, 95
7, 227520, Note_off_c, 9, 35, 95
7, 227520, Note_on_c, 9, 42, 95
7, 227520, Note_on_c, 9, 35, 95
7, 228000, Note_off_c, 9, 42, 95
7, 228000, Note_off_c, 9, 35, 95
7, 228480, Note_on_c, 9, 42, 95
7, 228960, Note_off_c, 9, 42, 95
7, 228960, Note_on_c, 9, 42, 95
7, 228960, Note_on_c, 9, 38, 95
7, 229440, Note_off_c, 9, 42, 95
7, 229440, Note_off_c, 9, 38, 95
7, 229920, Note_on_c, 9, 42, 95
7, 230400, Note_off_c, 9, 42, 95
7, 230400, Note_on_c, 9, 42, 95
7, 230400, Note_on_c, 9, 35, 95
7, 230880, Note_off_c, 9, 42, 95
7, 230880, Note_off_c, 9, 35, 95
7, 231360, Note_on_c, 9, 42, 95
7, 231840, Note_off_c, 9, 42, 95
7, 231840, Note_on_c, 9, 42, 95
7, 231840, Note_on_c, 9, 38, 95
7, 232320, Note_off_c, 9, 42, 95
7, 232320, Note_off_c, 9, 38, 95
7, 232800, Note_on_c, 9, 42, 95
7, 232800, Note_on_c, 9, 35, 95
7, 233280, Note_off_c, 9, 42, 95
7, 233280, Note_off_c, 9, 35, 95
7, 233280, Note_on_c, 9, 42, 95
7, 233280, Note_on_c, 9, 35, 95
7, 233760, Note_off_c, 9, 42, 95
7, 233760, Note_off_c, 9, 35, 95
7, 234240, Note_on_c, 9, 42, 95
7, 234720, Note_off_c, 9, 42, 95
7, 234720, Note_on_c, 9, 42, 95
7, 234720, Note_on_c, 9, 38, 95
7, 235200, Note_off_c, 9, 42, 95
7, 235200, Note_off_c, 9, 38, 95
7, 235680, Note_on_c, 9, 42, 95
7, 236160, Note_off_c, 9, 42, 95
7, 236160, Note_on_c, 9, 42, 95
7, 236160, Note_on_c, 9, 35, 95
7, 236640, Note_off_c, 9, 42, 95
7, 236640, Note_off_c, 9, 35, 95
7, 237120, Note_on_c, 9, 42, 95
7, 237600, Note_off_c, 9, 42, 95
7, 237600, Note_on_c, 9, 42, 95
7, 237600, Note_on_c, 9, 38, 95
7, 238080, Note_off_c, 9, 42, 95
7, 238080, Note_off_c, 9, 38, 95
7, 238560, Note_on_c, 9, 42, 95
7, 238560, Note_on_c, 9, 35, 95
7, 239040, Note_off_c, 9, 42, 95
7, 239040, Note_off_c, 9, 35, 95
7, 239040, Note_on_c, 9, 42, 95
7, 239040, Note_on_c, 9, 35, 95
7, 239520, Note_off_c, 9, 42, 95
7, 239520, Note_off_c, 9, 35, 95
7, 240000, Note_on_c, 9, 42, 95
7, 240480, Note_off_c, 9, 42, 95
7, 240480, Note_on_c, 9, 42, 95
7, 240480, Note_on_c, 9, 38, 95
7, 240960, Note_off_c, 9, 42, 95
7, 240960, Note_off_c, 9, 38, 95
7, 241440, Note_on_c, 9, 42, 95
7, 241920, Note_off_c, 9, 42, 95
7, 241920, Note_on_c, 9, 42, 95
7, 241920, Note_on_c, 9, 35, 95
7, 242400, Note_off_c, 9, 42, 95
7, 242400, Note_off_c, 9, 35, 95
7, 242880, Note_on_c, 9, 42, 95
7, 243360, Note_off_c, 9, 42, 95
7, 243360, Note_on_c, 9, 42, 95
7, 243360, Note_on_c, 9, 38, 95
7, 243840, Note_off_c, 9, 42, 95
7, 243840, Note_off_c, 9, 38, 95
7, 244320, Note_on_c, 9, 42, 95
7, 244320, Note_on_c, 9, 35, 95
7, 244800, Note_off_c, 9, 42, 95
7, 244800, Note_off_c, 9, 35, 95
7, 244800, Note_on_c, 9, 42, 95
7, 244800, Note_on_c, 9, 35, 95
7, 245280, Note_off_c, 9, 42, 95
7, 245280, Note_off_c, 9, 35, 95
7, 245760, Note_on_c, 9, 42, 95
7, 246240, Note_off_c, 9, 42, 95
7, 246240, Note_on_c, 9, 42, 95
7, 246240, Note_on_c, 9, 38, 95
7, 246720, Note_off_c, 9, 42, 95
7, 246720, Note_off_c, 9, 38, 95
7, 247200, Note_on_c, 9, 42, 95
7, 247680, Note_off_c, 9, 42, 95
7, 247680, Note_on_c, 9, 42, 95
7, 247680, Note_on_c, 9, 35, 95
7, 248160, Note_off_c, 9, 42, 95
7, 248160, Note_off_c, 9, 35, 95
7, 248640, Note_on_c, 9, 42, 95
7, 249120, Note_off_c, 9, 42, 95
7, 249120, Note_on_c, 9, 42, 95
7, 249120, Note_on_c, 9, 38, 95
7, 249600, Note_off_c, 9, 42, 95
7, 249600, Note_off_c, 9, 38, 95
7, 250080, Note_on_c, 9, 42, 95
7, 250080, Note_on_c, 9, 35, 95
7, 250560, Note_off_c, 9, 42, 95
7, 250560, Note_off_c, 9, 35, 95
7, 250560, Note_on_c, 9, 42, 95
7, 250560, Note_on_c, 9, 35, 95
7, 251040, Note_off_c, 9, 42, 95
7, 251040, Note_off_c, 9, 35, 95
7, 251520, Note_on_c, 9, 42, 95
7, 252000, Note_off_c, 9, 42, 95
7, 252000, Note_on_c, 9, 42, 95
7, 252000, Note_on_c, 9, 38, 95
7, 252480, Note_off_c, 9, 42, 95
7, 252480, Note_off_c, 9, 38, 95
7, 252960, Note_on_c, 9, 42, 95
7, 253440, Note_off_c, 9, 42, 95
7, 253440, Note_on_c, 9, 42, 95
7, 253440, Note_on_c, 9, 35, 95
7, 253920, Note_off_c, 9, 42, 95
7, 253920, Note_off_c, 9, 35, 95
7, 254400, Note_on_c, 9, 42, 95
7, 254880, Note_off_c, 9, 42, 95
7, 254880, Note_on_c, 9, 42, 95
7, 254880, Note_on_c, 9, 38, 95
7, 255360, Note_off_c, 9, 42, 95
7, 255360, Note_off_c, 9, 38, 95
7, 255840, Note_on_c, 9, 42, 95
7, 255840, Note_on_c, 9, 35, 95
7, 256320, Note_off_c, 9, 42, 95
7, 256320, Note_off_c, 9, 35, 95
7, 256320, Note_on_c, 9, 42, 95
7, 256320, Note_on_c, 9, 35, 95
7, 256800, Note_off_c, 9, 42, 95
7, 256800, Note_off_c, 9, 35, 95
7, 257280, Note_on_c, 9, 42, 95
7, 257760, Note_off_c, 9, 42, 95
7, 257760, Note_on_c, 9, 42, 95
7, 257760, Note_on_c, 9, 38, 95
7, 258240, Note_off_c, 9, 42, 95
7, 258240, Note_off_c, 9, 38, 95
7, 258720, Note_on_c, 9, 42, 95
7, 259200, Note_off_c, 9, 42, 95
7, 259200, Note_on_c, 9, 42, 95
7, 259200, Note_on_c, 9, 35, 95
7, 259680, Note_off_c, 9, 42, 95
7, 259680, Note_off_c, 9, 35, 95
7, 260160, Note_on_c, 9, 42, 95
7, 260640, Note_off_c, 9, 42, 95
7, 260640, Note_on_c, 9, 42, 95
7, 260640, Note_on_c, 9, 38, 95
7, 261120, Note_off_c, 9, 42, 95
7, 261120, Note_off_c, 9, 38, 95
7, 261600, Note_on_c, 9, 42, 95
7, 261600, Note_on_c, 9, 35, 95
7, 262080, Note_off_c, 9, 42, 95
7, 262080, Note_off_c, 9, 35, 95
7, 262080, Note_on_c, 9, 42, 95
7, 262080, Note_on_c, 9, 35, 95
7, 262560, Note_off_c, 9, 42, 95
7, 262560, Note_off_c, 9, 35, 95
7, 263040, Note_on_c, 9, 42, 95
7, 263520, Note_off_c, 9, 42, 95
7, 263520, Note_on_c, 9, 42, 95
7, 263520, Note_on_c, 9, 38, 95
7, 264000, Note_off_c, 9, 42, 95
7, 264000, Note_off_c, 9, 38, 95
7, 264480, Note_on_c, 9, 42, 95
7, 264960, Note_off_c, 9, 42, 95
7, 264960, Note_on_c, 9, 42, 95
7, 264960, Note_on_c, 9, 35, 95
7, 265440, Note_off_c, 9, 42, 95
7, 265440, Note_off_c, 9, 35, 95
7, 265920, Note_on_c, 9, 42, 95
7, 266400, Note_off_c, 9, 42, 95
7, 266400, Note_on_c, 9, 42, 95
7, 266400, Note_on_c, 9, 38, 95
7, 266880, Note_off_c, 9, 42, 95
7, 266880, Note_off_c, 9, 38, 95
7, 267360, Note_on_c, 9, 42, 95
7, 267360, Note_on_c, 9, 35, 95
7, 267840, Note_off_c, 9, 42, 95
7, 267840, Note_off_c, 9, 35, 95
7, 267840, Note_on_c, 9, 42, 95
7, 267840, Note_on_c, 9, 35, 95
7, 268320, Note_off_c, 9, 42, 95
7, 268320, Note_off_c, 9, 35, 95
7, 268800, Note_on_c, 9, 42, 95
7, 269280, Note_off_c, 9, 42, 95
7, 269280, Note_on_c, 9, 42, 95
7, 269280, Note_on_c, 9, 38, 95
7, 269760, Note_off_c, 9, 42, 95
7, 269760, Note_off_c, 9, 38, 95
7, 270240, Note_on_c, 9, 42, 95
7, 270720, Note_off_c, 9, 42, 95
7, 270720, Note_on_c, 9, 42, 95
7, 270720, Note_on_c, 9, 35, 95
7, 271200, Note_off_c, 9, 42, 95
7, 271200, Note_off_c, 9, 35, 95
7, 271680, Note_on_c, 9, 42, 95
7, 272160, Note_off_c, 9, 42, 95
7, 272160, Note_on_c, 9, 42, 95
7, 272160, Note_on_c, 9, 38, 95
7, 272640, Note_off_c, 9, 42, 95
7, 272640, Note_off_c, 9, 38, 95
7, 273120, Note_on_c, 9, 42, 95
7, 273120, Note_on_c, 9, 35, 95
7, 273600, Note_off_c, 9, 42, 95
7, 273600, Note_off_c, 9, 35, 95
7, 273600, Note_on_c, 9, 42, 95
7, 273600, Note_on_c, 9, 35, 95
7, 274080, Note_off_c, 9, 42, 95
7, 274080, Note_off_c, 9, 35, 95
7, 274560, Note_on_c, 9, 42, 95
7, 275040, Note_off_c, 9, 42, 95
7, 275040, Note_on_c, 9, 42, 95
7, 275040, Note_on_c, 9, 38, 95
7, 275520, Note_off_c, 9, 42, 95
7, 275520, Note_off_c, 9, 38, 95
7, 276000, Note_on_c, 9, 42, 95
7, 276480, Note_off_c, 9, 42, 95
7, 276480, Note_on_c, 9, 42, 95
7, 276480, Note_on_c, 9, 35, 95
7, 276960, Note_off_c, 9, 42, 95
7, 276960, Note_off_c, 9, 35, 95
7, 277440, Note_on_c, 9, 42, 95
7, 277920, Note_off_c, 9, 42, 95
7, 277920, Note_on_c, 9, 42, 95
7, 277920, Note_on_c, 9, 38, 95
7, 278400, Note_off_c, 9, 42, 95
7, 278400, Note_off_c, 9, 38, 95
7, 278880, Note_on_c, 9, 42, 95
7, 278880, Note_on_c, 9, 35, 95
7, 279360, Note_off_c, 9, 42, 95
7, 279360, Note_off_c, 9, 35, 95
7, 279360, Note_on_c, 9, 42, 95
7, 279360, Note_on_c, 9, 35, 95
7, 279840, Note_off_c, 9, 42, 95
7, 279840, Note_off_c, 9, 35, 95
7, 280320, Note_on_c, 9, 42, 95
7, 280800, Note_off_c, 9, 42, 95
7, 280800, Note_on_c, 9, 42, 95
7, 280800, Note_on_c, 9, 38, 95
7, 281280, Note_off_c, 9, 42, 95
7, 281280, Note_off_c, 9, 38, 95
7, 281760, Note_on_c, 9, 42, 95
7, 282240, Note_off_c, 9, 42, 95
7, 282240, Note_on_c, 9, 42, 95
7, 282240, Note_on_c, 9, 35, 95
7, 282720, Note_off_c, 9, 42, 95
7, 282720, Note_off_c, 9, 35, 95
7, 283200, Note_on_c, 9, 42, 95
7, 283680, Note_off_c, 9, 42, 95
7, 283680, Note_on_c, 9, 42, 95
7, 283680, Note_on_c, 9, 38, 95
7, 284160, Note_off_c, 9, 42, 95
7, 284160, Note_off_c, 9, 38, 95
7, 284640, Note_on_c, 9, 42, 95
7, 284640, Note_on_c, 9, 35, 95
7, 285120, Note_off_c, 9, 42, 95
7, 285120, Note_off_c, 9, 35, 95
7, 285120, Note_on_c, 9, 42, 95
7, 285120, Note_on_c, 9, 35, 95
7, 285600, Note_off_c, 9, 42, 95
7, 285600, Note_off_c, 9, 35, 95
7, 286080, Note_on_c, 9, 42, 95
7, 286560, Note_off_c, 9, 42, 95
7, 286560, Note_on_c, 9, 42, 95
7, 286560, Note_on_c, 9, 38, 95
7, 287040, Note_off_c, 9, 42, 95
7, 287040, Note_off_c, 9, 38, 95
7, 287520, Note_on_c, 9, 42, 95
7, 288000, Note_off_c, 9, 42, 95
7, 288000, Note_on_c, 9, 42, 95
7, 288000, Note_on_c, 9, 35, 95
7, 288480, Note_off_c, 9, 42, 95
7, 288480, Note_off_c, 9, 35, 95
7, 288960, Note_on_c, 9, 42, 95
7, 289440, Note_off_c, 9, 42, 95
7, 289440, Note_on_c, 9, 42, 95
7, 289440, Note_on_c, 9, 38, 95
7, 289920, Note_off_c, 9, 42, 95
7, 289920, Note_off_c, 9, 38, 95
7, 290400, Note_on_c, 9, 42, 95
7, 290400, Note_on_c, 9, 35, 95
7, 290880, Note_off_c, 9, 42, 95
7, 290880, Note_off_c, 9, 35, 95
7, 290880, Note_on_c, 9, 42, 95
7, 290880, Note_on_c, 9, 35, 95
7, 291360, Note_off_c, 9, 42, 95
7, 291360, Note_off_c, 9, 35, 95
7, 291840, Note_on_c, 9, 42, 95
7, 292320, Note_off_c, 9, 42, 95
7, 292320, Note_on_c, 9, 42, 95
7, 292320, Note_on_c, 9, 38, 95
7, 292800, Note_off_c, 9, 42, 95
7, 292800, Note_off_c, 9, 38, 95
7, 293280, Note_on_c, 9, 42, 95
7, 293760, Note_off_c, 9, 42, 95
7, 293760, Note_on_c, 9, 42, 95
7, 293760, Note_on_c, 9, 35, 95
7, 294240, Note_off_c, 9, 42, 95
7, 294240, Note_off_c, 9, 35, 95
7, 294720, Note_on_c, 9, 42, 95
7, 295200, Note_off_c, 9, 42, 95
7, 295200, Note_on_c, 9, 42, 95
7, 295200, Note_on_c, 9, 38, 95
7, 295680, Note_off_c, 9, 42, 95
7, 295680, Note_off_c, 9, 38, 95
7, 296160, Note_on_c, 9, 42, 95
7, 296160, Note_on_c, 9, 35, 95
7, 296640, Note_off_c, 9, 42, 95
7, 296640, Note_off_c, 9, 35, 95
7, 296640, Note_on_c, 9, 42, 95
7, 296640, Note_on_c, 9, 35, 95
7, 297120, Note_off_c, 9, 42, 95
7, 297120, Note_off_c, 9, 35, 95
7, 297600, Note_on_c, 9, 42, 95
7, 298080, Note_off_c, 9, 42, 95
7, 298080, Note_on_c, 9, 42, 95
7, 298080, Note_on_c, 9, 38, 95
7, 298560, Note_off_c, 9, 42, 95
7, 298560, Note_off_c, 9, 38, 95
7, 299040, Note_on_c, 9, 42, 95
7, 299520, Note_off_c, 9, 42, 95
7, 299520, Note_on_c, 9, 42, 95
7, 299520, Note_on_c, 9, 35, 95
7, 300000, Note_off_c, 9, 42, 95
7, 300000, Note_off_c, 9, 35, 95
7, 300480, Note_on_c, 9, 42, 95
7, 300960, Note_off_c, 9, 42, 95
7, 300960, Note_on_c, 9, 42, 95
7, 300960, Note_on_c, 9, 38, 95
7, 301440, Note_off_c, 9, 42, 95
7, 301440, Note_off_c, 9, 38, 95
7, 301920, Note_on_c, 9, 42, 95
7, 301920, Note_on_c, 9, 35, 95
7, 302400, Note_off_c, 9, 42, 95
7, 302400, Note_off_c, 9, 35, 95
7, 302400, Note_on_c, 9, 42, 95
7, 302400, Note_on_c, 9, 35, 95
7, 302880, Note_off_c, 9, 42, 95
7, 302880, Note_off_c, 9, 35, 95
7, 303360, Note_on_c, 9, 42, 95
7, 303840, Note_off_c, 9, 42, 95
7, 303840, Note_on_c, 9, 42, 95
7, 303840, Note_on_c, 9, 38, 95
7, 304320, Note_off_c, 9, 42, 95
7, 304320, Note_off_c, 9, 38, 95
7, 304800, Note_on_c, 9, 42, 95
7, 305280, Note_off_c, 9, 42, 95
7, 305280, Note_on_c, 9, 42, 95
7, 305280, Note_on_c, 9, 35, 95
7, 305760, Note_off_c, 9, 42, 95
7, 305760, Note_off_c, 9, 35, 95
7, 306240, Note_on_c, 9, 42, 95
7, 306720, Note_off_c, 9, 42, 95
7, 306720, Note_on_c, 9, 42, 95
7, 306720, Note_on_c, 9, 38, 95
7, 307200, Note_off_c, 9, 42, 95
7, 307200, Note_off_c, 9, 38, 95
7, 307680, Note_on_c, 9, 42, 95
7, 307680, Note_on_c, 9, 35, 95
7, 308160, Note_off_c, 9, 42, 95
7, 308160, Note_off_c, 9, 35, 95
7, 308160, Note_on_c, 9, 42, 95
7, 308160, Note_on_c, 9, 35, 95
7, 308640, Note_off_c, 9, 42, 95
7, 308640, Note_off_c, 9, 35, 95
7, 309120, Note_on_c, 9, 42, 95
7, 309600, Note_off_c, 9, 42, 95
7, 309600, Note_on_c, 9, 42, 95
7, 309600, Note_on_c, 9, 38, 95
7, 310080, Note_off_c, 9, 42, 95
7, 310080, Note_off_c, 9, 38, 95
7, 310560, Note_on_c, 9, 42, 95
7, 311040, Note_off_c, 9, 42, 95
7, 311040, Note_on_c, 9, 42, 95
7, 311040, Note_on_c, 9, 35, 95
7, 311520, Note_off_c, 9, 42, 95
7, 311520, Note_off_c, 9, 35, 95
7, 312000, Note_on_c, 9, 42, 95
7, 312480, Note_off_c, 9, 42, 95
7, 312480, Note_on_c, 9, 42, 95
7, 312480, Note_on_c, 9, 38, 95
7, 312960, Note_off_c, 9, 42, 95
7, 312960, Note_off_c, 9, 38, 95
7, 313440, Note_on_c, 9, 42, 95
7, 313440, Note_on_c, 9, 35, 95
7, 313920, Note_off_c, 9, 42, 95
7, 313920, Note_off_c, 9, 35, 95
7, 313920, Note_on_c, 9, 42, 95
7, 313920, Note_on_c, 9, 35, 95
7, 314400, Note_off_c, 9, 42, 95
7, 314400, Note_off_c, 9, 35, 95
7, 314880, Note_on_c, 9, 42, 95
7, 315360, Note_off_c, 9, 42, 95
7, 315360, Note_on_c, 9, 42, 95
7, 315360, Note_on_c, 9, 38, 95
7, 315840, Note_off_c, 9, 42, 95
7, 315840, Note_off_c, 9, 38, 95
7, 316320, Note_on_c, 9, 42, 95
7, 316800, Note_off_c, 9, 42, 95
7, 316800, Note_on_c, 9, 42, 95
7, 316800, Note_on_c, 9, 35, 95
7, 317280, Note_off_c, 9, 42, 95
7, 317280, Note_off_c, 9, 35, 95
7, 317760, Note_on_c, 9, 42, 95
7, 318240, Note_off_c, 9, 42, 95
7, 318240, Note_on_c, 9, 42, 95
7, 318240, Note_on_c, 9, 38, 95
7, 318720, Note_off_c, 9, 42, 95
7, 318720, Note_off_c, 9, 38, 95
7, 319200, Note_on_c, 9, 42, 95
7, 319200, Note_on_c, 9, 35, 95
7, 319680, Note_off_c, 9, 42, 95
7, 319680, Note_off_c, 9, 35, 95
7, 319680, Note_on_c, 9, 42, 95
7, 319680, Note_on_c, 9, 35, 95
7, 320160, Note_off_c, 9, 42, 95
7, 320160, Note_off_c, 9, 35, 95
7, 320640, Note_on_c, 9, 42, 95
7, 321120, Note_off_c, 9, 42, 95
7, 321120, Note_on_c, 9, 42, 95
7, 321120, Note_on_c, 9, 38, 95
7, 321600, Note_off_c, 9, 42, 95
7, 321600, Note_off_c, 9, 38, 95
7, 322080, Note_on_c, 9, 42, 95
7, 322560, Note_off_c, 9, 42, 95
7, 322560, Note_on_c, 9, 42, 95
7, 322560, Note_on_c, 9, 35, 95
7, 323040, Note_off_c, 9, 42, 95
7, 323040, Note_off_c, 9, 35, 95
7, 323520, Note_on_c, 9, 42, 95
7, 324000, Note_off_c, 9, 42, 95
7, 324000, Note_on_c, 9, 42, 95
7, 324000, Note_on_c, 9, 38, 95
7, 324480, Note_off_c, 9, 42, 95
7, 324480, Note_off_c, 9, 38, 95
7, 324960, Note_on_c, 9, 42, 95
7, 324960, Note_on_c, 9, 35, 95
7, 325440, Note_off_c, 9, 42, 95
7, 325440, Note_off_c, 9, 35, 95
7, 325440, Note_on_c, 9, 42, 95
7, 325440, Note_on_c, 9, 35, 95
7, 325920, Note_off_c, 9, 42, 95
7, 325920, Note_off_c, 9, 35, 95
7, 326400, Note_on_c, 9, 42, 95
7, 326880, Note_off_c, 9, 42, 95
7, 326880, Note_on_c, 9, 42, 95
7, 326880, Note_on_c, 9, 38, 95
7, 327360, Note_off_c, 9, 42, 95
7, 327360, Note_off_c, 9, 38, 95
7, 327840, Note_on_c, 9, 42, 95
7, 328320, Note_off_c, 9, 42, 95
7, 328320, Note_on_c, 9, 42, 95
7, 328320, Note_on_c, 9, 35, 95
7, 328800, Note_off_c, 9, 42, 95
7, 328800, Note_off_c, 9, 35, 95
7, 329280, Note_on_c, 9, 42, 95
7, 329760, Note_off_c, 9, 42, 95
7, 329760, Note_on_c, 9, 42, 95
7, 329760, Note_on_c, 9, 38, 95
7, 330240, Note_off_c, 9, 42, 95
7, 330240, Note_off_c, 9, 38, 95
7, 330720, Note_on_c, 9, 42, 95
7, 330720, Note_on_c, 9, 35, 95
7, 331200, Note_off_c, 9, 42, 95
7, 331200, Note_off_c, 9, 35, 95
7, 331200, Note_on_c, 9, 42, 95
7, 331200, Note_on_c, 9, 35, 95
7, 331680, Note_off_c, 9, 42, 95
7, 331680, Note_off_c, 9, 35, 95
7, 332160, Note_on_c, 9, 42, 95
7, 332640, Note_off_c, 9, 42, 95
7, 332640, Note_on_c, 9, 42, 95
7, 332640, Note_on_c, 9, 38, 95
7, 333120, Note_off_c, 9, 42, 95
7, 333120, Note_off_c, 9, 38, 95
7, 333600, Note_on_c, 9, 42, 95
7, 334080, Note_off_c, 9, 42, 95
7, 334080, Note_on_c, 9, 42, 95
7, 334080, Note_on_c, 9, 35, 95
7, 334560, Note_off_c, 9, 42, 95
7, 334560, Note_off_c, 9, 35, 95
7, 335040, Note_on_c, 9, 42, 95
7, 335520, Note_off_c, 9, 42, 95
7, 335520, Note_on_c, 9, 42, 95
7, 335520, Note_on_c, 9, 38, 95
7, 336000, Note_off_c, 9, 42, 95
7, 336000, Note_off_c, 9, 38, 95
7, 336480, Note_on_c, 9, 42, 95
7, 336480, Note_on_c, 9, 35, 95
7, 336960, Note_off_c, 9, 42, 95
7, 336960, Note_off_c, 9, 35, 95
7, 336960, Note_on_c, 9, 42, 95
7, 336960, Note_on_c, 9, 35, 95
7, 337440, Note_off_c, 9, 42, 95
7, 337440, Note_off_c, 9, 35, 95
7, 337920, Note_on_c, 9, 42, 95
7, 338400, Note_off_c, 9, 42, 95
7, 338400, Note_on_c, 9, 42, 95
7, 338400, Note_on_c, 9, 38, 95
7, 338880, Note_off_c, 9, 42, 95
7, 338880, Note_off_c, 9, 38, 95
7, 339360, Note_on_c, 9, 42, 95
7, 339840, Note_off_c, 9, 42, 95
7, 339840, Note_on_c, 9, 42, 95
7, 339840, Note_on_c, 9, 35, 95
7, 340320, Note_off_c, 9, 42, 95
7, 340320, Note_off_c, 9, 35, 95
7, 340800, Note_on_c, 9, 42, 95
7, 341280, Note_off_c, 9, 42, 95
7, 341280, Note_on_c, 9, 42, 95
7, 341280, Note_on_c, 9, 38, 95
7, 341760, Note_off_c, 9, 42, 95
7, 341760, Note_off_c, 9, 38, 95
7, 342240, Note_on_c, 9, 42, 95
7, 342240, Note_on_c, 9, 35, 95
7, 342720, Note_off_c, 9, 42, 95
7, 342720, Note_off_c, 9, 35, 95
7, 342720, Note_on_c, 9, 42, 95
7, 342720, Note_on_c, 9, 35, 95
7, 343200, Note_off_c, 9, 42, 95
7, 343200, Note_off_c, 9, 35, 95
7, 343680, Note_on_c, 9, 42, 95
7, 344160, Note_off_c, 9, 42, 95
7, 344160, Note_on_c, 9, 42, 95
7, 344160, Note_on_c, 9, 38, 95
7, 344640, Note_off_c, 9, 42, 95
7, 344640, Note_off_c, 9, 38, 95
7, 345120, Note_on_c, 9, 42, 95
7, 345600, Note_off_c, 9, 42, 95
7, 345600, Note_on_c, 9, 42, 95
7, 345600, Note_on_c, 9, 35, 95
7, 346080, Note_off_c, 9, 42, 95
7, 346080, Note_off_c, 9, 35, 95
7, 346560, Note_on_c, 9, 42, 95
7, 347040, Note_off_c, 9, 42, 95
7, 347040, Note_on_c, 9, 42, 95
7, 347040, Note_on_c, 9, 38, 95
7, 347520, Note_off_c, 9, 42, 95
7, 347520, Note_off_c, 9, 38, 95
7, 348000, Note_on_c, 9, 42, 95
7, 348000, Note_on_c, 9, 35, 95
7, 348480, Note_off_c, 9, 42, 95
7, 348480, Note_off_c, 9, 35, 95
7, 348480, Note_on_c, 9, 42, 95
7, 348480, Note_on_c, 9, 35, 95
7, 348960, Note_off_c, 9, 42, 95
7, 348960, Note_off_c, 9, 35, 95
7, 349440, Note_on_c, 9, 42, 95
7, 349920, Note_off_c, 9, 42, 95
7, 349920, Note_on_c, 9, 42, 95
7, 349920, Note_on_c, 9, 38, 95
7, 350400, Note_off_c, 9, 42, 95
7, 350400, Note_off_c, 9, 38, 95
7, 350880, Note_on_c, 9, 42, 95
7, 351360, Note_off_c, 9, 42, 95
7, 351360, Note_on_c, 9, 42, 95
7, 351360, Note_on_c, 9, 35, 95
7, 351840, Note_off_c, 9, 42, 95
7, 351840, Note_off_c, 9, 35, 95
7, 352320, Note_on_c, 9, 42, 95
7, 352800, Note_off_c, 9, 42, 95
7, 352800, Note_on_c, 9, 42, 95
7, 352800, Note_on_c, 9, 38, 95
7, 353280, Note_off_c, 9, 42, 95
7, 353280, Note_off_c, 9, 38, 95
7, 353760, Note_on_c, 9, 42, 95
7, 353760, Note_on_c, 9, 35, 95
7, 354240, Note_off_c, 9, 42, 95
7, 354240, Note_off_c, 9, 35, 95
7, 354240, Note_on_c, 9, 42, 95
7, 354240, Note_on_c, 9, 35, 95
7, 354720, Note_off_c, 9, 42, 95
7, 354720, Note_off_c, 9, 35, 95
7, 355200, Note_on_c, 9, 42, 95
7, 355680, Note_off_c, 9, 42, 95
7, 355680, Note_on_c, 9, 42, 95
7, 355680, Note_on_c, 9, 38, 95
7, 356160, Note_off_c, 9, 42, 95
7, 356160, Note_off_c, 9, 38, 95
7, 356640, Note_on_c, 9, 42, 95
7, 357120, Note_off_c, 9, 42, 95
7, 357120, Note_on_c, 9, 42, 95
7, 357120, Note_on_c, 9, 35, 95
7, 357600, Note_off_c, 9, 42, 95
7, 357600, Note_off_c, 9, 35, 95
7, 358080, Note_on_c, 9, 42, 95
7, 358560, Note_off_c, 9, 42, 95
7, 358560, Note_on_c, 9, 42, 95
7, 358560, Note_on_c, 9, 38, 95
7, 359040, Note_off_c, 9, 42, 95
7, 359040, Note_off_c, 9, 38, 95
7, 359520, Note_on_c, 9, 42, 95
7, 359520, Note_on_c, 9, 35, 95
7, 360000, Note_off_c, 9, 42, 95
7, 360000, Note_off_c, 9, 35, 95
7, 360000, Note_on_c, 9, 42, 95
7, 360000, Note_on_c, 9, 35, 95
7, 360480, Note_off_c, 9, 42, 95
7, 360480, Note_off_c, 9, 35, 95
7, 360960, Note_on_c, 9, 42, 95
7, 361440, Note_off_c, 9, 42, 95
7, 361440, Note_on_c, 9, 42, 95
7, 361440, Note_on_c, 9, 38, 95
7, 361920, Note_off_c, 9, 42, 95
7, 361920, Note_off_c, 9, 38, 95
7, 362400, Note_on_c, 9, 42, 95
7, 362880, Note_off_c, 9, 42, 95
7, 362880, Note_on_c, 9, 42, 95
7, 362880, Note_on_c, 9, 35, 95
7, 363360, Note_off_c, 9, 42, 95
7, 363360, Note_off_c, 9, 35, 95
7, 363840, Note_on_c, 9, 42, 95
7, 364320, Note_off_c, 9, 42, 95
7, 364320, Note_on_c, 9, 42, 95
7, 364320, Note_on_c, 9, 38, 95
7, 364800, Note_off_c, 9, 42, 95
7, 364800, Note_off_c, 9, 38, 95
7, 365280, Note_on_c, 9, 42, 95
7, 365280, Note_on_c, 9, 35, 95
7, 365760, Note_off_c, 9, 42, 95
7, 365760, Note_off_c, 9, 35, 95
7, 365760, Note_on_c, 9, 42, 95
7, 365760, Note_on_c, 9, 35, 95
7, 366240, Note_off_c, 9, 42, 95
7, 366240, Note_off_c, 9, 35, 95
7, 366720, Note_on_c, 9, 42, 95
7, 367200, Note_off_c, 9, 42, 95
7, 367200, Note_on_c, 9, 42, 95
7, 367200, Note_on_c, 9, 38, 95
7, 367680, Note_off_c, 9, 42, 95
7, 367680, Note_off_c, 9, 38, 95
7, 368160, Note_on_c, 9, 42, 95
7, 368640, Note_off_c, 9, 42, 95
7, 368640, Note_on_c, 9, 42, 95
7, 368640, Note_on_c, 9, 35, 95
7, 369120, Note_off_c, 9, 42, 95
7, 369120, Note_off_c, 9, 35, 95
7, 369600, Note_on_c, 9, 42, 95
7, 370080, Note_off_c, 9, 42, 95
7, 370080, Note_on_c, 9, 42, 95
7, 370080, Note_on_c, 9, 38, 95
7, 370560, Note_off_c, 9, 42, 95
7, 370560, Note_off_c, 9, 38, 95
7, 371040, Note_on_c, 9, 42, 95
7, 371040, Note_on_c, 9, 35, 95
7, 371520, Note_off_c, 9, 42, 95
7, 371520, Note_off_c, 9, 35, 95
7, 371520, Note_on_c, 9, 42, 95
7, 371520, Note_on_c, 9, 35, 95
7, 372000, Note_off_c, 9, 42, 95
7, 372000, Note_off_c, 9, 35, 95
7, 372480, Note_on_c, 9, 42, 95
7, 372960, Note_off_c, 9, 42, 95
7, 372960, Note_on_c, 9, 42, 95
7, 372960, Note_on_c, 9, 38, 95
7, 373440, Note_off_c, 9, 42, 95
7, 373440, Note_off_c, 9, 38, 95
7, 373920, Note_on_c, 9, 42, 95
7, 374400, Note_off_c, 9, 42, 95
7, 374400, Note_on_c, 9, 42, 95
7, 374400, Note_on_c, 9, 35, 95
7, 374880, Note_off_c, 9, 42, 95
7, 374880, Note_off_c, 9, 35, 95
7, 375360, Note_on_c, 9, 42, 95
7, 375840, Note_off_c, 9, 42, 95
7, 375840, Note_on_c, 9, 42, 95
7, 375840, Note_on_c, 9, 38, 95
7, 376320, Note_off_c, 9, 42, 95
7, 376320, Note_off_c, 9, 38, 95
7, 376800, Note_on_c, 9, 42, 95
7, 376800, Note_on_c, 9, 35, 95
7, 377280, Note_off_c, 9, 42, 95
7, 377280, Note_off_c, 9, 35, 95
7, 377280, Note_on_c, 9, 42, 95
7, 377280, Note_on_c, 9, 35, 95
7, 377760, Note_off_c, 9, 42, 95
7, 377760, Note_off_c, 9, 35, 95
7, 378240, Note_on_c, 9, 42, 95
7, 378720, Note_off_c, 9, 42, 95
7, 378720, Note_on_c, 9, 42, 95
7, 378720, Note_on_c, 9, 38, 95
7, 379200, Note_off_c, 9, 42, 95
7, 379200, Note_off_c, 9, 38, 95
7, 379680, Note_on_c, 9, 42, 95
7, 380160, Note_off_c, 9, 42, 95
7, 380160, Note_on_c, 9, 42, 95
7, 380160, Note_on_c, 9, 35, 95
7, 380640, Note_off_c, 9, 42, 95
7, 380640, Note_off_c, 9, 35, 95
7, 381120, Note_on_c, 9, 42, 95
7, 381600, Note_off_c, 9, 42, 95
7, 381600, Note_on_c, 9, 42, 95
7, 381600, Note_on_c, 9, 38, 95
7, 382080, Note_off_c, 9, 42, 95
7, 382080, Note_off_c, 9, 38, 95
7, 382560, Note_on_c, 9, 42, 95
7, 382560, Note_on_c, 9, 35, 95
7, 383040, Note_off_c, 9, 42, 95
7, 383040, Note_off_c, 9, 35, 95
7, 383040, Note_on_c, 9, 42, 95
7, 383040, Note_on_c, 9, 35, 95
7, 383520, Note_off_c, 9, 42, 95
7, 383520, Note_off_c, 9, 35, 95
7, 384000, Note_on_c, 9, 42, 95
7, 384480, Note_off_c, 9, 42, 95
7, 384480, Note_on_c, 9, 42, 95
7, 384480, Note_on_c, 9, 38, 95
7, 384960, Note_off_c, 9, 42, 95
7, 384960, Note_off_c, 9, 38, 95
7, 385440, Note_on_c, 9, 42, 95
7, 385920, Note_off_c, 9, 42, 95
7, 385920, Note_on_c, 9, 42, 95
7, 385920, Note_on_c, 9, 35, 95
7, 386400, Note_off_c, 9, 42, 95
7, 386400, Note_off_c, 9, 35, 95
7, 386880, Note_on_c, 9, 42, 95
7, 387360, Note_off_c, 9, 42, 95
7, 387360, Note_on_c, 9, 42, 95
7, 387360, Note_on_c, 9, 38, 95
7, 387840, Note_off_c, 9, 42, 95
7, 387840, Note_off_c, 9, 38, 95
7, 388320, Note_on_c, 9, 42, 95
7, 388320, Note_on_c, 9, 35, 95
7, 388800, Note_off_c, 9, 42, 95
7, 388800, Note_off_c, 9, 35, 95
7, 388800, Note_on_c, 9, 42, 95
7, 388800, Note_on_c, 9, 35, 95
7, 389280, Note_off_c, 9, 42, 95
7, 389280, Note_off_c, 9, 35, 95
7, 389760, Note_on_c, 9, 42, 95
7, 390240, Note_off_c, 9, 42, 95
7, 390240, Note_on_c, 9, 42, 95
7, 390240, Note_on_c, 9, 38, 95
7, 390720, Note_off_c, 9, 42, 95
7, 390720, Note_off_c, 9, 38, 95
7, 391200, Note_on_c, 9, 42, 95
7, 391680, Note_off_c, 9, 42, 95
7, 391680, Note_on_c, 9, 42, 95
7, 391680, Note_on_c, 9, 35, 95
7, 392160, Note_off_c, 9, 42, 95
7, 392160, Note_off_c, 9, 35, 95
7, 392640, Note_on_c, 9, 42, 95
7, 393120, Note_off_c, 9, 42, 95
7, 393120, Note_on_c, 9, 42, 95
7, 393120, Note_on_c, 9, 38, 95
7, 393600, Note_off_c, 9, 42, 95
7, 393600, Note_off_c, 9, 38, 95
7, 394080, Note_on_c, 9, 42, 95
7, 394080, Note_on_c, 9, 35, 95
7, 394560, Note_off_c, 9, 42, 95
7, 394560, Note_off_c, 9, 35, 95
7, 394560, Note_on_c, 9, 42, 95
7, 394560, Note_on_c, 9, 35, 95
7, 395040, Note_off_c, 9, 42, 95
7, 395040, Note_off_c, 9, 35, 95
7, 395520, Note_on_c, 9, 42, 95
7, 396000, Note_off_c, 9, 42, 95
7, 396000, Note_on_c, 9, 42, 95
7, 396000, Note_on_c, 9, 38, 95
7, 396480, Note_off_c, 9, 42, 95
7, 396480, Note_off_c, 9, 38, 95
7, 396960, Note_on_c, 9, 42, 95
7, 397440, Note_off_c, 9, 42, 95
7, 397440, Note_on_c, 9, 42, 95
7, 397440, Note_on_c, 9, 35, 95
7, 397920, Note_off_c, 9, 42, 95
7, 397920, Note_off_c, 9, 35, 95
7, 398400, Note_on_c, 9, 42, 95
7, 398880, Note_off_c, 9, 42, 95
7, 398880, Note_on_c, 9, 42, 95
7, 398880, Note_on_c, 9, 38, 95
7, 399360, Note_off_c, 9, 42, 95
7, 399360, Note_off_c, 9, 38, 95
7, 399840, Note_on_c, 9, 42, 95
7, 399840, Note_on_c, 9, 35, 95
7, 400320, Note_off_c, 9, 42, 95
7, 400320, Note_off_c, 9, 35, 95
7, 400320, Note_on_c, 9, 42, 95
7, 400320, Note_on_c, 9, 35, 95
7, 400800, Note_off_c, 9, 42, 95
7, 400800, Note_off_c, 9, 35, 95
7, 401280, Note_on_c, 9, 42, 95
7, 401760, Note_off_c, 9, 42, 95
7, 401760, Note_on_c, 9, 42, 95
7, 401760, Note_on_c, 9, 38, 95
7, 402240, Note_off_c, 9, 42, 95
7, 402240, Note_off_c, 9, 38, 95
7, 402720, Note_on_c, 9, 42, 95
7, 403200, Note_off_c, 9, 42, 95
7, 403200, Note_on_c, 9, 42, 95
7, 403200, Note_on_c, 9, 35, 95
7, 403680, Note_off_c, 9, 42, 95
7, 403680, Note_off_c, 9, 35, 95
7, 404160, Note_on_c, 9, 42, 95
7, 404640, Note_off_c, 9, 42, 95
7, 404640, Note_on_c, 9, 42, 95
7, 404640, Note_on_c, 9, 38, 95
7, 405120, Note_off_c, 9, 42, 95
7, 405120, Note_off_c, 9, 38, 95
7, 405600, Note_on_c, 9, 42, 95
7, 405600, Note_on_c, 9, 35, 95
7, 406080, Note_off_c, 9, 42, 95
7, 406080, Note_off_c, 9, 35, 95
7, 406080, Note_on_c, 9, 42, 95
7, 406080, Note_on_c, 9, 35, 95
7, 406560, Note_off_c, 9, 42, 95
7, 406560, Note_off_c, 9, 35, 95
7, 407040, Note_on_c, 9, 42, 95
7, 407520, Note_off_c, 9, 42, 95
7, 407520, Note_on_c, 9, 42, 95
7, 407520, Note_on_c, 9, 38, 95
7, 408000, Note_off_c, 9, 42, 95
7, 408000, Note_off_c, 9, 38, 95
7, 408480, Note_on_c, 9, 42, 95
7, 408960, Note_off_c, 9, 42, 95
7, 408960, Note_on_c, 9, 42, 95
7, 408960, Note_on_c, 9, 35, 95
7, 409440, Note_off_c, 9, 42, 95
7, 409440, Note_off_c, 9, 35, 95
7, 409920, Note_on_c, 9, 42, 95
7, 410400, Note_off_c, 9, 42, 95
7, 410400, Note_on_c, 9, 42, 95
7, 410400, Note_on_c, 9, 38, 95
7, 410880, Note_off_c, 9, 42, 95
7, 410880, Note_off_c, 9, 38, 95
7, 411360, Note_on_c, 9, 42, 95
7, 411360, Note_on_c, 9, 35, 95
7, 411840, Note_off_c, 9, 42, 95
7, 411840, Note_off_c, 9, 35, 95
7, 411840, Note_on_c, 9, 42, 95
7, 411840, Note_on_c, 9, 35, 95
7, 412320, Note_off_c, 9, 42, 95
7, 412320, Note_off_c, 9, 35, 95
7, 412800, Note_on_c, 9, 42, 95
7, 413280, Note_off_c, 9, 42, 95
7, 413280, Note_on_c, 9, 42, 95
7, 413280, Note_on_c, 9, 38, 95
7, 413760, Note_off_c, 9, 42, 95
7, 413760, Note_off_c, 9, 38, 95
7, 414240, Note_on_c, 9, 42, 95
7, 414720, Note_off_c, 9, 42, 95
7, 414720, Note_on_c, 9, 42, 95
7, 414720, Note_on_c, 9, 35, 95
7, 415200, Note_off_c, 9, 42, 95
7, 415200, Note_off_c, 9, 35, 95
7, 415680, Note_on_c, 9, 42, 95
7, 416160, Note_off_c, 9, 42, 95
7, 416160, Note_on_c, 9, 42, 95
7, 416160, Note_on_c, 9, 38, 95
7, 416640, Note_off_c, 9, 42, 95
7, 416640, Note_off_c, 9, 38, 95
7, 417120, Note_on_c, 9, 42, 95
7, 417120, Note_on_c, 9, 35, 95
7, 417600, Note_off_c, 9, 42, 95
7, 417600, Note_off_c, 9, 35, 95
7, 417600, Note_on_c, 9, 42, 95
7, 417600, Note_on_c, 9, 38, 95
7, 417600, Note_on_c, 9, 35, 95
7, 418080, Note_off_c, 9, 42, 95
7, 418080, Note_off_c, 9, 38, 95
7, 418080, Note_off_c, 9, 35, 95
7, 424320, Note_on_c, 9, 42, 95
7, 424800, Note_off_c, 9, 42, 95
7, 424800, Note_on_c, 9, 42, 95
7, 424800, Note_on_c, 9, 35, 95
7, 425280, Note_off_c, 9, 42, 95
7, 425280, Note_off_c, 9, 35, 95
7, 425280, Note_on_c, 9, 49, 95
7, 425280, Note_on_c, 9, 38, 95
7, 426240, Note_off_c, 9, 49, 95
7, 426240, Note_off_c, 9, 38, 95
7, 426240, End_track
0, 0, End_of_file
