0, 0, Header, 1, 6, 960
1, 0, Start_track
1, 0, Control_c, 0, 101, 0
1, 0, Control_c, 0, 100, 0
1, 0, Control_c, 0, 6, 12
1, 0, Control_c, 0, 38, 0
1, 0, Control_c, 1, 101, 0
1, 0, Control_c, 1, 100, 0
1, 0, Control_c, 1, 6, 12
1, 0, Control_c, 1, 38, 0
1, 0, Control_c, 2, 101, 0
1, 0, Control_c, 2, 100, 0
1, 0, Control_c, 2, 6, 12
1, 0, Control_c, 2, 38, 0
1, 0, Control_c, 3, 101, 0
1, 0, Control_c, 3, 100, 0
1, 0, Control_c, 3, 6, 12
1, 0, Control_c, 3, 38, 0
1, 0, Control_c, 4, 101, 0
1, 0, Control_c, 4, 100, 0
1, 0, Control_c, 4, 6, 12
1, 0, Control_c, 4, 38, 0
1, 0, Control_c, 5, 101, 0
1, 0, Control_c, 5, 100, 0
1, 0, Control_c, 5, 6, 12
1, 0, Control_c, 5, 38, 0
1, 0, Control_c, 6, 101, 0
1, 0, Control_c, 6, 100, 0
1, 0, Control_c, 6, 6, 12
1, 0, Control_c, 6, 38, 0
1, 0, Control_c, 7, 101, 0
1, 0, Control_c, 7, 100, 0
1, 0, Control_c, 7, 6, 12
1, 0, Control_c, 7, 38, 0
1, 0, Control_c, 8, 101, 0
1, 0, Control_c, 8, 100, 0
1, 0, Control_c, 8, 6, 12
1, 0, Control_c, 8, 38, 0
1, 0, Control_c, 9, 101, 0
1, 0, Control_c, 9, 100, 0
1, 0, Control_c, 9, 6, 12
1, 0, Control_c, 9, 38, 0
1, 0, Control_c, 10, 101, 0
1, 0, Control_c, 10, 100, 0
1, 0, Control_c, 10, 6, 12
1, 0, Control_c, 10, 38, 0
1, 0, Control_c, 11, 101, 0
1, 0, Control_c, 11, 100, 0
1, 0, Control_c, 11, 6, 12
1, 0, Control_c, 11, 38, 0
1, 0, Control_c, 12, 101, 0
1, 0, Control_c, 12, 100, 0
1, 0, Control_c, 12, 6, 12
1, 0, Control_c, 12, 38, 0
1, 0, Control_c, 13, 101, 0
1, 0, Control_c, 13, 100, 0
1, 0, Control_c, 13, 6, 12
1, 0, Control_c, 13, 38, 0
1, 0, Control_c, 14, 101, 0
1, 0, Control_c, 14, 100, 0
1, 0, Control_c, 14, 6, 12
1, 0, Control_c, 14, 38, 0
1, 0, Control_c, 15, 101, 0
1, 0, Control_c, 15, 100, 0
1, 0, Control_c, 15, 6, 12
1, 0, Control_c, 15, 38, 0
1, 0, Time_signature, 12, 3, 12, 8
1, 0, Tempo, 666666
1, 23040, Tempo, 714285
1, 408960, Tempo, 769230
1, 408960, End_track
2, 0, Start_track
2, 0, Pitch_bend_c, 6, 8192
2, 0, Control_c, 6, 7, 111
2, 0, Control_c, 6, 10, 63
2, 0, Control_c, 6, 93, 31
2, 0, Control_c, 6, 91, 63
2, 0, Control_c, 6, 95, 0
2, 0, Control_c, 6, 92, 0
2, 0, Control_c, 6, 11, 127
2, 0, Program_c, 6, 73
2, 0, Control_c, 7, 7, 111
2, 0, Control_c, 7, 10, 63
2, 0, Control_c, 7, 93, 31
2, 0, Control_c, 7, 91, 63
2, 0, Control_c, 7, 95, 0
2, 0, Control_c, 7, 92, 0
2, 0, Control_c, 7, 11, 127
2, 0, Program_c, 7, 73
2, 140320, Note_on_c, 6, 56, 95
2, 140480, Note_off_c, 6, 56, 95
2, 140480, Note_on_c, 6, 58, 95
2, 140640, Note_off_c, 6, 58, 95
2, 140640, Note_on_c, 6, 64, 95
2, 140800, Note_off_c, 6, 64, 95
2, 140800, Note_on_c, 6, 64, 95
2, 141120, Note_off_c, 6, 64, 95
2, 141120, Note_on_c, 6, 65, 95
2, 141280, Note_off_c, 6, 65, 95
2, 141280, Note_on_c, 6, 63, 95
2, 141440, Note_off_c, 6, 63, 95
2, 141440, Note_on_c, 6, 61, 95
2, 141600, Note_off_c, 6, 61, 95
2, 141600, Note_on_c, 6, 63, 70
2, 142080, Note_off_c, 6, 63, 70
2, 142080, Note_on_c, 6, 58, 95
2, 142320, Note_off_c, 6, 58, 95
2, 142320, Note_on_c, 6, 58, 95
2, 143040, Note_off_c, 6, 58, 95
2, 143040, Note_on_c, 6, 56, 95
2, 143520, Note_off_c, 6, 56, 95
2, 147480, Note_on_c, 7, 66, 79
2, 147600, Note_off_c, 7, 66, 79
2, 147600, Note_on_c, 7, 68, 95
2, 148080, Note_off_c, 7, 68, 95
2, 148080, Note_on_c, 6, 65, 95
2, 148320, Note_off_c, 6, 65, 95
2, 148320, Note_on_c, 6, 64, 95
2, 148680, Note_off_c, 6, 64, 95
2, 148680, Note_on_c, 6, 62, 95
2, 149040, Note_off_c, 6, 62, 95
2, 149040, Note_on_c, 6, 65, 95
2, 149400, Note_off_c, 6, 65, 95
2, 149400, Note_on_c, 6, 60, 95
2, 149760, Note_off_c, 6, 60, 95
2, 149760, Note_on_c, 6, 61, 95
2, 150000, Note_off_c, 6, 61, 95
2, 150000, Note_on_c, 6, 58, 79
2, 150720, Note_off_c, 6, 58, 79
2, 150720, Note_on_c, 6, 55, 54
2, 150960, Note_off_c, 6, 55, 54
2, 150960, Note_on_c, 6, 53, 63
2, 151200, Note_off_c, 6, 53, 63
2, 163680, Note_on_c, 6, 67, 95
2, 163920, Note_off_c, 6, 67, 95
2, 163920, Note_on_c, 6, 65, 95
2, 164160, Note_off_c, 6, 65, 95
2, 164160, Note_on_c, 6, 64, 95
2, 164340, Note_off_c, 6, 64, 95
2, 164340, Note_on_c, 6, 64, 95
2, 164520, Note_off_c, 6, 64, 95
2, 164520, Note_on_c, 6, 63, 95
2, 164700, Note_off_c, 6, 63, 95
2, 164700, Note_on_c, 6, 63, 95
2, 164880, Note_off_c, 6, 63, 95
2, 164880, Note_on_c, 6, 63, 95
2, 165060, Note_off_c, 6, 63, 95
2, 165060, Note_on_c, 6, 63, 95
2, 165240, Note_off_c, 6, 63, 95
2, 165240, Note_on_c, 6, 63, 95
2, 165420, Note_off_c, 6, 63, 95
2, 165420, Note_on_c, 6, 63, 95
2, 165480, Note_on_c, 7, 63, 79
2, 165600, Note_off_c, 6, 63, 95
2, 165600, Note_off_c, 7, 63, 79
2, 165600, Note_on_c, 7, 65, 95
2, 166080, Note_off_c, 7, 65, 95
2, 166080, Note_on_c, 6, 60, 70
2, 166320, Note_off_c, 6, 60, 70
2, 166320, Note_on_c, 6, 61, 70
2, 166560, Note_off_c, 6, 61, 70
2, 166560, Note_on_c, 7, 58, 54
2, 167040, Note_off_c, 7, 58, 54
2, 171960, Note_on_c, 7, 66, 79
2, 172080, Note_off_c, 7, 66, 79
2, 172080, Note_on_c, 7, 68, 95
2, 172560, Note_off_c, 7, 68, 95
2, 172560, Note_on_c, 6, 65, 70
2, 172680, Note_on_c, 7, 66, 79
2, 172800, Note_off_c, 6, 65, 70
2, 172800, Note_off_c, 7, 66, 79
2, 172800, Note_on_c, 7, 68, 95
2, 173160, Note_on_c, 7, 65, 79
2, 173280, Note_off_c, 7, 68, 95
2, 173280, Note_off_c, 7, 65, 79
2, 173280, Note_on_c, 7, 64, 95
2, 173760, Note_off_c, 7, 64, 95
2, 173760, Note_on_c, 6, 63, 95
2, 174000, Note_off_c, 6, 63, 95
2, 174000, Note_on_c, 6, 62, 95
2, 174120, Note_on_c, 7, 63, 79
2, 174240, Note_off_c, 6, 62, 95
2, 174240, Note_off_c, 7, 63, 79
2, 174240, Note_on_c, 7, 64, 95
2, 174480, Note_off_c, 7, 64, 95
2, 174480, Note_on_c, 6, 62, 70
2, 174960, Note_off_c, 6, 62, 70
2, 174960, Note_on_c, 7, 58, 79
2, 175680, Note_off_c, 7, 58, 79
2, 186720, Note_on_c, 6, 68, 95
2, 186960, Note_off_c, 6, 68, 95
2, 186960, Note_on_c, 6, 65, 70
2, 187200, Note_off_c, 6, 65, 70
2, 187200, Note_on_c, 6, 68, 95
2, 187680, Note_off_c, 6, 68, 95
2, 187680, Note_on_c, 6, 65, 95
2, 187920, Note_off_c, 6, 65, 95
2, 187920, Note_on_c, 6, 69, 95
2, 188400, Note_off_c, 6, 69, 95
2, 188400, Note_on_c, 6, 65, 95
2, 188520, Note_on_c, 7, 66, 79
2, 188640, Note_off_c, 6, 65, 95
2, 188640, Note_off_c, 7, 66, 79
2, 188640, Note_on_c, 7, 68, 95
2, 188880, Note_off_c, 7, 68, 95
2, 188880, Note_on_c, 6, 69, 95
2, 189120, Note_off_c, 6, 69, 95
2, 189120, Note_on_c, 7, 65, 95
2, 189360, Note_off_c, 7, 65, 95
2, 189360, Note_on_c, 7, 54, 95
2, 189840, Note_off_c, 7, 54, 95
2, 194880, Note_on_c, 6, 62, 95
2, 194880, Note_on_c, 6, 54, 95
2, 194922, Note_off_c, 6, 54, 95
2, 195120, Note_off_c, 6, 62, 95
2, 195120, Note_on_c, 6, 65, 95
2, 195120, Note_on_c, 6, 58, 95
2, 195162, Note_off_c, 6, 58, 95
2, 195360, Note_off_c, 6, 65, 95
2, 195360, Note_on_c, 6, 64, 95
2, 195360, Note_on_c, 6, 58, 95
2, 195402, Note_off_c, 6, 58, 95
2, 195520, Note_off_c, 6, 64, 95
2, 195520, Note_on_c, 6, 63, 95
2, 195520, Note_on_c, 6, 58, 95
2, 195562, Note_off_c, 6, 58, 95
2, 195680, Note_off_c, 6, 63, 95
2, 195680, Note_on_c, 6, 61, 95
2, 195680, Note_on_c, 6, 54, 95
2, 195722, Note_off_c, 6, 54, 95
2, 195840, Note_off_c, 6, 61, 95
2, 195840, Note_on_c, 6, 64, 95
2, 195840, Note_on_c, 6, 58, 95
2, 195882, Note_off_c, 6, 58, 95
2, 195960, Note_off_c, 6, 64, 95
2, 195960, Note_on_c, 6, 63, 70
2, 195960, Note_on_c, 6, 58, 95
2, 196002, Note_off_c, 6, 58, 95
2, 196080, Note_off_c, 6, 63, 70
2, 196080, Note_on_c, 6, 63, 95
2, 196080, Note_on_c, 6, 58, 95
2, 196122, Note_off_c, 6, 58, 95
2, 196200, Note_off_c, 6, 63, 95
2, 196200, Note_on_c, 6, 62, 95
2, 196200, Note_on_c, 6, 54, 95
2, 196242, Note_off_c, 6, 54, 95
2, 196320, Note_off_c, 6, 62, 95
2, 196320, Note_on_c, 6, 63, 95
2, 196440, Note_off_c, 6, 63, 95
2, 196440, Note_on_c, 6, 62, 95
2, 196560, Note_off_c, 6, 62, 95
2, 196560, Note_on_c, 6, 63, 95
2, 196680, Note_off_c, 6, 63, 95
2, 196680, Note_on_c, 6, 62, 95
2, 196800, Note_off_c, 6, 62, 95
2, 196800, Note_on_c, 6, 63, 95
2, 197040, Note_off_c, 6, 63, 95
2, 197040, Note_on_c, 6, 62, 95
2, 197160, Note_off_c, 6, 62, 95
2, 197160, Note_on_c, 6, 63, 95
2, 197280, Note_off_c, 6, 63, 95
2, 197280, Note_on_c, 6, 65, 70
2, 197600, Note_off_c, 6, 65, 70
2, 197600, Note_on_c, 6, 65, 95
2, 197760, Note_off_c, 6, 65, 95
2, 197760, Note_on_c, 6, 60, 95
2, 197920, Note_off_c, 6, 60, 95
2, 197920, Note_on_c, 6, 61, 95
2, 198240, Note_off_c, 6, 61, 95
2, 198240, Note_on_c, 6, 61, 95
2, 198480, Note_off_c, 6, 61, 95
2, 198480, Note_on_c, 6, 56, 79
2, 198720, Note_off_c, 6, 56, 79
2, 198720, Note_on_c, 6, 56, 79
2, 198960, Note_off_c, 6, 56, 79
2, 198960, Note_on_c, 6, 58, 54
2, 200160, Note_off_c, 6, 58, 54
2, 203280, Note_on_c, 6, 59, 70
2, 203280, Note_on_c, 6, 54, 95
2, 203322, Note_off_c, 6, 54, 95
2, 203520, Note_off_c, 6, 59, 70
2, 203520, Note_on_c, 6, 58, 95
2, 203520, Note_on_c, 6, 54, 95
2, 203562, Note_off_c, 6, 54, 95
2, 203640, Note_off_c, 6, 58, 95
2, 203640, Note_on_c, 6, 58, 95
2, 203640, Note_on_c, 6, 54, 95
2, 203682, Note_off_c, 6, 54, 95
2, 203760, Note_off_c, 6, 58, 95
2, 203760, Note_on_c, 6, 59, 95
2, 203760, Note_on_c, 6, 54, 95
2, 203802, Note_off_c, 6, 54, 95
2, 204000, Note_off_c, 6, 59, 95
2, 204000, Note_on_c, 6, 61, 95
2, 204000, Note_on_c, 6, 49, 95
2, 204042, Note_off_c, 6, 49, 95
2, 204120, Note_off_c, 6, 61, 95
2, 204120, Note_on_c, 6, 56, 70
2, 204120, Note_on_c, 6, 49, 95
2, 204162, Note_off_c, 6, 49, 95
2, 204360, Note_off_c, 6, 56, 70
2, 204360, Note_on_c, 6, 59, 95
2, 204360, Note_on_c, 6, 54, 95
2, 204402, Note_off_c, 6, 54, 95
2, 204480, Note_off_c, 6, 59, 95
2, 204480, Note_on_c, 6, 59, 95
2, 204480, Note_on_c, 6, 54, 95
2, 204522, Note_off_c, 6, 54, 95
2, 204720, Note_off_c, 6, 59, 95
2, 204720, Note_on_c, 6, 59, 95
2, 204720, Note_on_c, 6, 54, 95
2, 204762, Note_off_c, 6, 54, 95
2, 204840, Note_off_c, 6, 59, 95
2, 204840, Note_on_c, 6, 59, 95
2, 204840, Note_on_c, 6, 54, 95
2, 204882, Note_off_c, 6, 54, 95
2, 204960, Note_off_c, 6, 59, 95
2, 204960, Note_on_c, 6, 60, 95
2, 204960, Note_on_c, 6, 54, 95
2, 205002, Note_off_c, 6, 54, 95
2, 205440, Note_off_c, 6, 60, 95
2, 209160, Note_on_c, 7, 65, 79
2, 209280, Note_off_c, 7, 65, 79
2, 209280, Note_on_c, 7, 68, 95
2, 209520, Note_off_c, 7, 68, 95
2, 209520, Note_on_c, 6, 68, 95
2, 209760, Note_off_c, 6, 68, 95
2, 209760, Note_on_c, 6, 67, 95
2, 210080, Note_off_c, 6, 67, 95
2, 210080, Note_on_c, 6, 67, 95
2, 210240, Note_off_c, 6, 67, 95
2, 210240, Note_on_c, 6, 65, 95
2, 210360, Note_off_c, 6, 65, 95
2, 210360, Note_on_c, 6, 65, 95
2, 210600, Note_off_c, 6, 65, 95
2, 210600, Note_on_c, 6, 65, 95
2, 210720, Note_off_c, 6, 65, 95
2, 210720, Note_on_c, 6, 63, 79
2, 210960, Note_off_c, 6, 63, 79
2, 210960, Note_on_c, 6, 61, 54
2, 211200, Note_off_c, 6, 61, 54
2, 211200, Note_on_c, 6, 58, 63
2, 211440, Note_off_c, 6, 58, 63
2, 211440, Note_on_c, 6, 56, 38
2, 211680, Note_off_c, 6, 56, 38
2, 217800, Note_on_c, 7, 68, 79
2, 217920, Note_off_c, 7, 68, 79
2, 217920, Note_on_c, 7, 70, 70
2, 218400, Note_off_c, 7, 70, 70
2, 218400, Note_on_c, 6, 67, 95
2, 218760, Note_on_c, 7, 65, 79
2, 218880, Note_off_c, 6, 67, 95
2, 218880, Note_off_c, 7, 65, 79
2, 218880, Note_on_c, 7, 64, 95
2, 219040, Note_off_c, 7, 64, 95
2, 219040, Note_on_c, 6, 64, 95
2, 219200, Note_off_c, 6, 64, 95
2, 219200, Note_on_c, 6, 63, 95
2, 219360, Note_off_c, 6, 63, 95
2, 219360, Note_on_c, 6, 63, 95
2, 219840, Note_off_c, 6, 63, 95
2, 219840, Note_on_c, 6, 63, 95
2, 220000, Note_off_c, 6, 63, 95
2, 220000, Note_on_c, 6, 65, 95
2, 220160, Note_off_c, 6, 65, 95
2, 220160, Note_on_c, 6, 61, 70
2, 220640, Note_off_c, 6, 61, 70
2, 220640, Note_on_c, 6, 61, 95
2, 220800, Note_off_c, 6, 61, 95
2, 220800, Note_on_c, 6, 61, 95
2, 220960, Note_off_c, 6, 61, 95
2, 220960, Note_on_c, 6, 56, 79
2, 221120, Note_off_c, 6, 56, 79
2, 221120, Note_on_c, 6, 58, 54
2, 221760, Note_off_c, 6, 58, 54
2, 232680, Note_on_c, 7, 65, 79
2, 232800, Note_off_c, 7, 65, 79
2, 232800, Note_on_c, 7, 68, 95
2, 233120, Note_off_c, 7, 68, 95
2, 233120, Note_on_c, 6, 68, 95
2, 233280, Note_off_c, 6, 68, 95
2, 233280, Note_on_c, 6, 67, 95
2, 233440, Note_off_c, 6, 67, 95
2, 233440, Note_on_c, 6, 67, 95
2, 233760, Note_off_c, 6, 67, 95
2, 233760, Note_on_c, 6, 63, 95
2, 233920, Note_off_c, 6, 63, 95
2, 233920, Note_on_c, 6, 65, 95
2, 234240, Note_off_c, 6, 65, 95
2, 234240, Note_on_c, 6, 65, 95
2, 234400, Note_off_c, 6, 65, 95
2, 234400, Note_on_c, 6, 64, 70
2, 234560, Note_off_c, 6, 64, 70
2, 234560, Note_on_c, 6, 63, 70
2, 234720, Note_off_c, 6, 63, 70
2, 234720, Note_on_c, 6, 61, 54
2, 234880, Note_off_c, 6, 61, 54
2, 234880, Note_on_c, 6, 58, 54
2, 235680, Note_off_c, 6, 58, 54
2, 235680, Note_on_c, 7, 61, 63
2, 235800, Pitch_bend_c, 7, 7552
2, 235920, Pitch_bend_c, 7, 6784
2, 236040, Pitch_bend_c, 7, 6144
2, 236040, Pitch_bend_c, 7, 8192
2, 236040, Note_off_c, 7, 61, 63
2, 236040, Note_on_c, 6, 58, 15
2, 236160, Note_off_c, 6, 58, 15
2, 239040, Note_on_c, 6, 56, 95
2, 239400, Note_off_c, 6, 56, 95
2, 239400, Note_on_c, 6, 58, 95
2, 240480, Note_off_c, 6, 58, 95
2, 240480, Note_on_c, 6, 56, 95
2, 240840, Note_off_c, 6, 56, 95
2, 240840, Note_on_c, 6, 58, 95
2, 241200, Note_off_c, 6, 58, 95
2, 241200, Pitch_bend_c, 7, 8192
2, 241200, Note_on_c, 7, 63, 95
2, 241290, Pitch_bend_c, 7, 8320
2, 241380, Pitch_bend_c, 7, 8448
2, 241380, Pitch_bend_c, 7, 8448
2, 241560, Pitch_bend_c, 7, 8448
2, 241560, Pitch_bend_c, 7, 8192
2, 241560, Note_off_c, 7, 63, 95
2, 241560, Note_on_c, 6, 61, 95
2, 241920, Note_off_c, 6, 61, 95
2, 241920, Note_on_c, 6, 62, 70
2, 242160, Note_off_c, 6, 62, 70
2, 242160, Note_on_c, 6, 56, 95
2, 242280, Note_on_c, 7, 56, 79
2, 242400, Note_off_c, 6, 56, 95
2, 242400, Note_off_c, 7, 56, 79
2, 242400, Note_on_c, 7, 58, 95
2, 243120, Note_off_c, 7, 58, 95
2, 243120, Note_on_c, 6, 56, 70
2, 243360, Note_off_c, 6, 56, 70
2, 243360, Note_on_c, 6, 53, 79
2, 243480, Note_off_c, 6, 53, 79
2, 243480, Note_on_c, 6, 51, 54
2, 243600, Note_off_c, 6, 51, 54
2, 243600, Note_on_c, 6, 50, 54
2, 243840, Note_off_c, 6, 50, 54
2, 255840, Note_on_c, 6, 68, 70
2, 256080, Note_off_c, 6, 68, 70
2, 256080, Note_on_c, 6, 64, 95
2, 256320, Note_off_c, 6, 64, 95
2, 256320, Note_on_c, 6, 64, 95
2, 256440, Note_off_c, 6, 64, 95
2, 256440, Note_on_c, 6, 62, 95
2, 256800, Note_off_c, 6, 62, 95
2, 256800, Note_on_c, 6, 64, 95
2, 257040, Note_off_c, 6, 64, 95
2, 257040, Note_on_c, 6, 62, 70
2, 257280, Note_off_c, 6, 62, 70
2, 257280, Note_on_c, 6, 65, 95
2, 257520, Note_off_c, 6, 65, 95
2, 257520, Note_on_c, 7, 58, 70
2, 257760, Note_off_c, 7, 58, 70
2, 263040, Note_on_c, 6, 68, 95
2, 263280, Note_off_c, 6, 68, 95
2, 263280, Note_on_c, 6, 65, 95
2, 263520, Note_off_c, 6, 65, 95
2, 263520, Note_on_c, 6, 63, 95
2, 263700, Note_off_c, 6, 63, 95
2, 263700, Note_on_c, 6, 63, 95
2, 263880, Note_off_c, 6, 63, 95
2, 263880, Note_on_c, 6, 63, 95
2, 264120, Note_on_c, 7, 63, 79
2, 264240, Note_off_c, 6, 63, 95
2, 264240, Note_off_c, 7, 63, 79
2, 264240, Note_on_c, 7, 65, 95
2, 264600, Note_off_c, 7, 65, 95
2, 264600, Note_on_c, 6, 61, 95
2, 264960, Note_off_c, 6, 61, 95
2, 264960, Note_on_c, 6, 61, 95
2, 265120, Note_off_c, 6, 61, 95
2, 265120, Note_on_c, 6, 61, 95
2, 265440, Note_off_c, 6, 61, 95
2, 265440, Note_on_c, 6, 58, 79
2, 266400, Note_off_c, 6, 58, 79
2, 347880, Note_on_c, 7, 63, 79
2, 348000, Note_off_c, 7, 63, 79
2, 348000, Note_on_c, 7, 65, 95
2, 348240, Note_off_c, 7, 65, 95
2, 348240, Note_on_c, 6, 63, 95
2, 348360, Note_off_c, 6, 63, 95
2, 348360, Note_on_c, 6, 63, 95
2, 348480, Note_off_c, 6, 63, 95
2, 348480, Note_on_c, 6, 63, 95
2, 348720, Note_off_c, 6, 63, 95
2, 348720, Note_on_c, 6, 63, 95
2, 348960, Note_off_c, 6, 63, 95
2, 348960, Note_on_c, 6, 63, 95
2, 349080, Note_off_c, 6, 63, 95
2, 349080, Note_on_c, 6, 63, 95
2, 349200, Note_off_c, 6, 63, 95
2, 349200, Note_on_c, 6, 63, 95
2, 349320, Note_off_c, 6, 63, 95
2, 349320, Note_on_c, 6, 63, 95
2, 349440, Note_off_c, 6, 63, 95
2, 349440, Note_on_c, 6, 65, 95
2, 349680, Note_off_c, 6, 65, 95
2, 349680, Note_on_c, 7, 61, 95
2, 349800, Pitch_bend_c, 7, 8192
2, 349920, Pitch_bend_c, 7, 8192
2, 349920, Pitch_bend_c, 7, 8192
2, 350400, Note_off_c, 7, 61, 95
2, 350400, Note_on_c, 6, 58, 15
2, 350880, Note_off_c, 6, 58, 15
2, 356160, Note_on_c, 6, 61, 95
2, 356400, Note_off_c, 6, 61, 95
2, 356400, Note_on_c, 6, 62, 95
2, 356640, Note_off_c, 6, 62, 95
2, 356640, Note_on_c, 6, 62, 95
2, 356760, Note_off_c, 6, 62, 95
2, 356760, Note_on_c, 6, 62, 95
2, 356820, Note_on_c, 7, 62, 95
2, 356880, Note_off_c, 6, 62, 95
2, 356880, Note_on_c, 6, 65, 95
2, 356880, Note_off_c, 7, 62, 95
2, 356880, Note_on_c, 7, 58, 95
2, 357120, Note_off_c, 6, 65, 95
2, 357120, Note_off_c, 7, 58, 95
2, 357120, Note_on_c, 6, 61, 95
2, 357360, Note_off_c, 6, 61, 95
2, 357360, Note_on_c, 6, 61, 95
2, 357600, Note_off_c, 6, 61, 95
2, 357600, Note_on_c, 6, 61, 95
2, 357760, Note_off_c, 6, 61, 95
2, 357760, Note_on_c, 6, 56, 79
2, 357920, Note_off_c, 6, 56, 79
2, 357920, Note_on_c, 6, 56, 79
2, 358080, Note_off_c, 6, 56, 79
2, 358080, Note_on_c, 6, 56, 79
2, 358240, Note_off_c, 6, 56, 79
2, 358240, Note_on_c, 6, 58, 54
2, 359280, Note_off_c, 6, 58, 54
2, 359280, Note_on_c, 6, 60, 63
2, 359520, Note_off_c, 6, 60, 63
2, 369000, Note_on_c, 7, 65, 79
2, 369120, Note_off_c, 7, 65, 79
2, 369120, Note_on_c, 7, 67, 95
2, 369240, Pitch_bend_c, 7, 7552
2, 369360, Pitch_bend_c, 7, 6784
2, 369480, Pitch_bend_c, 7, 6144
2, 369600, Pitch_bend_c, 7, 5376
2, 369600, Pitch_bend_c, 7, 8192
2, 369600, Note_off_c, 7, 67, 95
2, 369600, Note_on_c, 6, 63, 95
2, 370080, Note_off_c, 6, 63, 95
2, 370080, Note_on_c, 6, 63, 95
2, 370200, Note_off_c, 6, 63, 95
2, 370200, Note_on_c, 6, 62, 70
2, 370560, Note_off_c, 6, 62, 70
2, 370560, Note_on_c, 6, 63, 95
2, 370680, Note_off_c, 6, 63, 95
2, 370680, Note_on_c, 6, 63, 95
2, 370800, Note_off_c, 6, 63, 95
2, 370800, Note_on_c, 6, 63, 95
2, 370920, Note_off_c, 6, 63, 95
2, 370920, Note_on_c, 6, 62, 95
2, 371040, Note_off_c, 6, 62, 95
2, 371040, Note_on_c, 6, 64, 95
2, 371400, Note_on_c, 7, 63, 79
2, 371520, Note_off_c, 6, 64, 95
2, 371520, Note_off_c, 7, 63, 79
2, 371520, Note_on_c, 7, 64, 95
2, 371880, Note_on_c, 7, 63, 79
2, 372000, Note_off_c, 7, 64, 95
2, 372000, Note_off_c, 7, 63, 79
2, 372000, Note_on_c, 7, 64, 95
2, 372160, Note_off_c, 7, 64, 95
2, 372160, Note_on_c, 6, 61, 79
2, 372320, Note_off_c, 6, 61, 79
2, 372320, Note_on_c, 6, 58, 54
2, 372480, Note_off_c, 6, 58, 54
2, 372480, Note_on_c, 6, 61, 54
2, 372720, Note_off_c, 6, 61, 54
2, 372720, Note_on_c, 7, 58, 63
2, 372840, Pitch_bend_c, 7, 8192
2, 372960, Pitch_bend_c, 7, 8192
2, 372960, Pitch_bend_c, 7, 8192
2, 373440, Note_off_c, 7, 58, 63
2, 377760, Note_on_c, 6, 70, 70
2, 378000, Note_off_c, 6, 70, 70
2, 378000, Note_on_c, 6, 65, 70
2, 378240, Note_off_c, 6, 65, 70
2, 378240, Note_on_c, 6, 67, 70
2, 378480, Note_off_c, 6, 67, 70
2, 378480, Note_on_c, 6, 73, 70
2, 378720, Note_off_c, 6, 73, 70
2, 378720, Note_on_c, 6, 65, 70
2, 378840, Note_off_c, 6, 65, 70
2, 378840, Note_on_c, 6, 63, 70
2, 379200, Note_off_c, 6, 63, 70
2, 379200, Note_on_c, 6, 63, 70
2, 379320, Note_off_c, 6, 63, 70
2, 379320, Note_on_c, 6, 65, 70
2, 379440, Note_off_c, 6, 65, 70
2, 379440, Note_on_c, 6, 61, 79
2, 379920, Note_off_c, 6, 61, 79
2, 379920, Note_on_c, 6, 61, 95
2, 380040, Note_off_c, 6, 61, 95
2, 380040, Note_on_c, 6, 62, 95
2, 380160, Note_off_c, 6, 62, 95
2, 380160, Note_on_c, 6, 56, 95
2, 380520, Note_off_c, 6, 56, 95
2, 380520, Note_on_c, 6, 56, 95
2, 380760, Note_off_c, 6, 56, 95
2, 380760, Note_on_c, 6, 56, 95
2, 380880, Note_off_c, 6, 56, 95
2, 380880, Note_on_c, 6, 56, 95
2, 381000, Note_off_c, 6, 56, 95
2, 381000, Note_on_c, 6, 58, 70
2, 381440, Note_off_c, 6, 58, 70
2, 381440, Note_on_c, 6, 56, 79
2, 381480, Note_on_c, 7, 60, 79
2, 381600, Note_off_c, 6, 56, 79
2, 381600, Note_off_c, 7, 60, 79
2, 381600, Note_on_c, 7, 61, 95
2, 381840, Note_off_c, 7, 61, 95
2, 381840, Note_on_c, 6, 56, 79
2, 382080, Note_off_c, 6, 56, 79
2, 382080, Note_on_c, 6, 58, 54
2, 383040, Note_off_c, 6, 58, 54
2, 393480, Note_on_c, 7, 65, 79
2, 393600, Note_off_c, 7, 65, 79
2, 393600, Note_on_c, 7, 66, 70
2, 393840, Note_off_c, 7, 66, 70
2, 393840, Note_on_c, 6, 63, 95
2, 393960, Note_off_c, 6, 63, 95
2, 393960, Note_on_c, 6, 63, 95
2, 394080, Note_off_c, 6, 63, 95
2, 394080, Note_on_c, 6, 63, 95
2, 394240, Note_off_c, 6, 63, 95
2, 394240, Note_on_c, 6, 63, 95
2, 394400, Note_off_c, 6, 63, 95
2, 394400, Note_on_c, 6, 62, 70
2, 394560, Note_off_c, 6, 62, 70
2, 394560, Note_on_c, 6, 63, 95
2, 394720, Note_off_c, 6, 63, 95
2, 394720, Note_on_c, 6, 63, 95
2, 394880, Note_off_c, 6, 63, 95
2, 394880, Note_on_c, 6, 63, 95
2, 395040, Note_off_c, 6, 63, 95
2, 395040, Note_on_c, 6, 63, 95
2, 395280, Note_off_c, 6, 63, 95
2, 395280, Note_on_c, 7, 65, 95
2, 395400, Pitch_bend_c, 7, 7936
2, 395520, Pitch_bend_c, 7, 7552
2, 395640, Pitch_bend_c, 7, 7168
2, 395760, Pitch_bend_c, 7, 6784
2, 395760, Pitch_bend_c, 7, 8192
2, 395760, Note_off_c, 7, 65, 95
2, 395760, Note_on_c, 6, 63, 15
2, 396000, Note_off_c, 6, 63, 15
2, 398280, Note_on_c, 7, 66, 79
2, 398400, Note_off_c, 7, 66, 79
2, 398400, Note_on_c, 7, 68, 95
2, 398640, Note_off_c, 7, 68, 95
2, 398640, Note_on_c, 6, 64, 95
2, 398880, Note_off_c, 6, 64, 95
2, 398880, Note_on_c, 6, 63, 95
2, 399120, Note_off_c, 6, 63, 95
2, 399120, Note_on_c, 6, 63, 95
2, 399240, Note_off_c, 6, 63, 95
2, 399240, Note_on_c, 6, 63, 95
2, 399360, Note_off_c, 6, 63, 95
2, 399360, Note_on_c, 6, 61, 95
2, 399720, Note_on_c, 7, 60, 79
2, 399840, Note_off_c, 6, 61, 95
2, 399840, Note_off_c, 7, 60, 79
2, 399840, Note_on_c, 7, 61, 95
2, 400080, Note_off_c, 7, 61, 95
2, 400080, Note_on_c, 6, 55, 95
2, 400320, Note_off_c, 6, 55, 95
2, 401160, Note_on_c, 7, 66, 79
2, 401280, Note_off_c, 7, 66, 79
2, 401280, Note_on_c, 7, 68, 95
2, 401760, Note_off_c, 7, 68, 95
2, 401760, Note_on_c, 6, 64, 95
2, 402000, Note_off_c, 6, 64, 95
2, 402000, Note_on_c, 6, 65, 95
2, 402120, Note_on_c, 7, 64, 79
2, 402240, Note_off_c, 6, 65, 95
2, 402240, Note_off_c, 7, 64, 79
2, 402240, Note_on_c, 7, 63, 95
2, 402560, Note_off_c, 7, 63, 95
2, 402560, Note_on_c, 6, 61, 95
2, 402720, Note_off_c, 6, 61, 95
2, 402720, Note_on_c, 6, 58, 70
2, 403200, Note_off_c, 6, 58, 70
2, 403200, End_track
3, 0, Start_track
3, 0, Pitch_bend_c, 0, 8192
3, 0, Control_c, 0, 7, 95
3, 0, Control_c, 0, 10, 31
3, 0, Control_c, 0, 93, 31
3, 0, Control_c, 0, 91, 63
3, 0, Control_c, 0, 95, 0
3, 0, Control_c, 0, 92, 0
3, 0, Control_c, 0, 11, 127
3, 0, Program_c, 0, 29
3, 0, Control_c, 1, 7, 95
3, 0, Control_c, 1, 10, 31
3, 0, Control_c, 1, 93, 31
3, 0, Control_c, 1, 91, 63
3, 0, Control_c, 1, 95, 0
3, 0, Control_c, 1, 92, 0
3, 0, Control_c, 1, 11, 127
3, 0, Program_c, 1, 29
3, 0, Note_on_c, 0, 74, 79
3, 480, Note_off_c, 0, 74, 79
3, 480, Note_on_c, 1, 68, 63
3, 640, Pitch_bend_c, 1, 8192
3, 800, Pitch_bend_c, 1, 8320
3, 960, Pitch_bend_c, 1, 8192
3, 960, Pitch_bend_c, 1, 8320
3, 960, Pitch_bend_c, 1, 8192
3, 960, Note_off_c, 1, 68, 63
3, 960, Note_on_c, 1, 65, 63
3, 1120, Pitch_bend_c, 1, 8192
3, 1280, Pitch_bend_c, 1, 8320
3, 1440, Pitch_bend_c, 1, 8192
3, 1440, Pitch_bend_c, 1, 8320
3, 1440, Pitch_bend_c, 1, 8192
3, 1440, Note_off_c, 1, 65, 63
3, 1440, Note_on_c, 1, 74, 79
3, 1600, Pitch_bend_c, 1, 8192
3, 1760, Pitch_bend_c, 1, 8320
3, 1920, Pitch_bend_c, 1, 8192
3, 1920, Pitch_bend_c, 1, 8320
3, 1920, Pitch_bend_c, 1, 8192
3, 1920, Note_off_c, 1, 74, 79
3, 1920, Note_on_c, 1, 68, 63
3, 2080, Pitch_bend_c, 1, 8192
3, 2240, Pitch_bend_c, 1, 8320
3, 2400, Pitch_bend_c, 1, 8192
3, 2400, Pitch_bend_c, 1, 8320
3, 2400, Pitch_bend_c, 1, 8192
3, 2400, Note_off_c, 1, 68, 63
3, 2400, Note_on_c, 1, 65, 63
3, 2560, Pitch_bend_c, 1, 8192
3, 2720, Pitch_bend_c, 1, 8320
3, 2880, Pitch_bend_c, 1, 8192
3, 2880, Pitch_bend_c, 1, 8320
3, 2880, Pitch_bend_c, 1, 8192
3, 2880, Note_off_c, 1, 65, 63
3, 2880, Note_on_c, 1, 74, 79
3, 3040, Pitch_bend_c, 1, 8192
3, 3200, Pitch_bend_c, 1, 8320
3, 3360, Pitch_bend_c, 1, 8192
3, 3360, Pitch_bend_c, 1, 8320
3, 3360, Pitch_bend_c, 1, 8192
3, 3360, Note_off_c, 1, 74, 79
3, 3360, Note_on_c, 1, 68, 63
3, 3520, Pitch_bend_c, 1, 8192
3, 3680, Pitch_bend_c, 1, 8320
3, 3840, Pitch_bend_c, 1, 8192
3, 3840, Pitch_bend_c, 1, 8320
3, 3840, Pitch_bend_c, 1, 8192
3, 3840, Note_off_c, 1, 68, 63
3, 3840, Note_on_c, 0, 65, 63
3, 3840, Note_on_c, 0, 49, 95
3, 3885, Note_off_c, 0, 49, 95
3, 4320, Note_off_c, 0, 65, 63
3, 4320, Note_on_c, 0, 74, 79
3, 4800, Note_off_c, 0, 74, 79
3, 4800, Note_on_c, 0, 68, 63
3, 5280, Note_off_c, 0, 68, 63
3, 5280, Note_on_c, 1, 65, 63
3, 5400, Pitch_bend_c, 1, 7936
3, 5520, Pitch_bend_c, 1, 7552
3, 5520, Pitch_bend_c, 1, 8192
3, 5520, Note_off_c, 1, 65, 63
3, 5520, Note_on_c, 0, 64, 63
3, 5760, Note_off_c, 0, 64, 63
3, 5760, Note_on_c, 1, 73, 79
3, 5920, Pitch_bend_c, 1, 8192
3, 6080, Pitch_bend_c, 1, 8320
3, 6240, Pitch_bend_c, 1, 8192
3, 6240, Pitch_bend_c, 1, 8320
3, 6240, Pitch_bend_c, 1, 8192
3, 6240, Note_off_c, 1, 73, 79
3, 6240, Note_on_c, 1, 67, 63
3, 6400, Pitch_bend_c, 1, 8192
3, 6560, Pitch_bend_c, 1, 8320
3, 6720, Pitch_bend_c, 1, 8192
3, 6720, Pitch_bend_c, 1, 8320
3, 6720, Pitch_bend_c, 1, 8192
3, 6720, Note_off_c, 1, 67, 63
3, 6720, Note_on_c, 1, 64, 79
3, 6880, Pitch_bend_c, 1, 8192
3, 7040, Pitch_bend_c, 1, 8320
3, 7200, Pitch_bend_c, 1, 8192
3, 7200, Pitch_bend_c, 1, 8320
3, 7200, Pitch_bend_c, 1, 8192
3, 7200, Note_off_c, 1, 64, 79
3, 7200, Note_on_c, 1, 73, 79
3, 7360, Pitch_bend_c, 1, 8192
3, 7520, Pitch_bend_c, 1, 8320
3, 7680, Pitch_bend_c, 1, 8192
3, 7680, Pitch_bend_c, 1, 8320
3, 7680, Pitch_bend_c, 1, 8192
3, 7680, Note_off_c, 1, 73, 79
3, 7680, Note_on_c, 1, 67, 63
3, 7840, Pitch_bend_c, 1, 8192
3, 8000, Pitch_bend_c, 1, 8320
3, 8160, Pitch_bend_c, 1, 8192
3, 8160, Pitch_bend_c, 1, 8320
3, 8160, Pitch_bend_c, 1, 8192
3, 8160, Note_off_c, 1, 67, 63
3, 8160, Note_on_c, 1, 64, 79
3, 8320, Pitch_bend_c, 1, 8192
3, 8480, Pitch_bend_c, 1, 8320
3, 8640, Pitch_bend_c, 1, 8192
3, 8640, Pitch_bend_c, 1, 8320
3, 8640, Pitch_bend_c, 1, 8192
3, 8640, Note_off_c, 1, 64, 79
3, 8640, Note_on_c, 1, 73, 95
3, 8800, Pitch_bend_c, 1, 8192
3, 8960, Pitch_bend_c, 1, 8320
3, 9120, Pitch_bend_c, 1, 8192
3, 9120, Pitch_bend_c, 1, 8320
3, 9120, Pitch_bend_c, 1, 8192
3, 9120, Note_off_c, 1, 73, 95
3, 9120, Note_on_c, 1, 67, 79
3, 9280, Pitch_bend_c, 1, 8192
3, 9440, Pitch_bend_c, 1, 8320
3, 9600, Pitch_bend_c, 1, 8192
3, 9600, Pitch_bend_c, 1, 8320
3, 9600, Pitch_bend_c, 1, 8192
3, 9600, Note_off_c, 1, 67, 79
3, 9600, Note_on_c, 1, 64, 79
3, 9760, Pitch_bend_c, 1, 8192
3, 9920, Pitch_bend_c, 1, 8320
3, 10080, Pitch_bend_c, 1, 8192
3, 10080, Pitch_bend_c, 1, 8320
3, 10080, Pitch_bend_c, 1, 8192
3, 10080, Note_off_c, 1, 64, 79
3, 10080, Note_on_c, 1, 73, 95
3, 10240, Pitch_bend_c, 1, 8192
3, 10400, Pitch_bend_c, 1, 8320
3, 10560, Pitch_bend_c, 1, 8192
3, 10560, Pitch_bend_c, 1, 8320
3, 10560, Pitch_bend_c, 1, 8192
3, 10560, Note_off_c, 1, 73, 95
3, 10560, Note_on_c, 1, 67, 79
3, 10720, Pitch_bend_c, 1, 8192
3, 10880, Pitch_bend_c, 1, 8320
3, 11040, Pitch_bend_c, 1, 8192
3, 11040, Pitch_bend_c, 1, 8320
3, 11040, Pitch_bend_c, 1, 8192
3, 11040, Note_off_c, 1, 67, 79
3, 11040, Note_on_c, 0, 64, 79
3, 11520, Note_off_c, 0, 64, 79
3, 11520, Note_on_c, 1, 74, 95
3, 11520, Note_on_c, 1, 68, 95
3, 11520, Note_on_c, 1, 65, 95
3, 11640, Pitch_bend_c, 1, 7168
3, 11640, Pitch_bend_c, 1, 7552
3, 11640, Pitch_bend_c, 1, 7168
3, 11760, Pitch_bend_c, 1, 6144
3, 11760, Pitch_bend_c, 1, 6784
3, 11760, Pitch_bend_c, 1, 6144
3, 11880, Pitch_bend_c, 1, 5120
3, 11880, Pitch_bend_c, 1, 6144
3, 11880, Pitch_bend_c, 1, 5120
3, 12000, Pitch_bend_c, 1, 3968
3, 12000, Pitch_bend_c, 1, 8192
3, 12000, Note_off_c, 1, 74, 95
3, 12000, Pitch_bend_c, 1, 5376
3, 12000, Pitch_bend_c, 1, 8192
3, 12000, Note_off_c, 1, 68, 95
3, 12000, Pitch_bend_c, 1, 3968
3, 12000, Pitch_bend_c, 1, 8192
3, 12000, Note_off_c, 1, 65, 95
3, 12000, Note_on_c, 0, 68, 15
3, 12000, Note_on_c, 0, 64, 15
3, 12000, Note_on_c, 0, 59, 15
3, 12480, Note_off_c, 0, 68, 15
3, 12480, Note_off_c, 0, 64, 15
3, 12480, Note_off_c, 0, 59, 15
3, 12960, Pitch_bend_c, 1, 8192
3, 12960, Note_on_c, 1, 68, 95
3, 13003, Pitch_bend_c, 1, 8320
3, 13046, Pitch_bend_c, 1, 8448
3, 13089, Pitch_bend_c, 1, 8576
3, 13132, Pitch_bend_c, 1, 8704
3, 13175, Pitch_bend_c, 1, 8832
3, 13218, Pitch_bend_c, 1, 8960
3, 13261, Pitch_bend_c, 1, 9088
3, 13304, Pitch_bend_c, 1, 9216
3, 13347, Pitch_bend_c, 1, 9344
3, 13390, Pitch_bend_c, 1, 9472
3, 13433, Pitch_bend_c, 1, 9600
3, 13440, Pitch_bend_c, 1, 9600
3, 14400, Pitch_bend_c, 1, 9600
3, 14400, Pitch_bend_c, 1, 8192
3, 14400, Note_off_c, 1, 68, 95
3, 14400, Pitch_bend_c, 1, 8192
3, 14400, Note_on_c, 1, 68, 95
3, 14410, Pitch_bend_c, 1, 8320
3, 14420, Pitch_bend_c, 1, 8448
3, 14430, Pitch_bend_c, 1, 8576
3, 14440, Pitch_bend_c, 1, 8704
3, 14450, Pitch_bend_c, 1, 8832
3, 14460, Pitch_bend_c, 1, 8960
3, 14470, Pitch_bend_c, 1, 9088
3, 14480, Pitch_bend_c, 1, 9216
3, 14490, Pitch_bend_c, 1, 9344
3, 14500, Pitch_bend_c, 1, 9472
3, 14510, Pitch_bend_c, 1, 9600
3, 14520, Pitch_bend_c, 1, 9600
3, 14640, Pitch_bend_c, 1, 9600
3, 14640, Pitch_bend_c, 1, 8192
3, 14640, Note_off_c, 1, 68, 95
3, 14640, Pitch_bend_c, 1, 8832
3, 14640, Note_on_c, 1, 64, 95
3, 14760, Pitch_bend_c, 1, 8832
3, 14784, Pitch_bend_c, 1, 8704
3, 14808, Pitch_bend_c, 1, 8576
3, 14832, Pitch_bend_c, 1, 8448
3, 14856, Pitch_bend_c, 1, 8320
3, 14880, Pitch_bend_c, 1, 8192
3, 14880, Pitch_bend_c, 1, 8192
3, 15120, Pitch_bend_c, 1, 8192
3, 15120, Pitch_bend_c, 1, 8192
3, 15120, Note_off_c, 1, 64, 95
3, 15120, Pitch_bend_c, 1, 8192
3, 15120, Note_on_c, 1, 63, 79
3, 15130, Pitch_bend_c, 1, 8320
3, 15140, Pitch_bend_c, 1, 8448
3, 15150, Pitch_bend_c, 1, 8576
3, 15160, Pitch_bend_c, 1, 8704
3, 15170, Pitch_bend_c, 1, 8832
3, 15180, Pitch_bend_c, 1, 8960
3, 15190, Pitch_bend_c, 1, 9088
3, 15200, Pitch_bend_c, 1, 9216
3, 15210, Pitch_bend_c, 1, 9344
3, 15220, Pitch_bend_c, 1, 9472
3, 15230, Pitch_bend_c, 1, 9600
3, 15240, Pitch_bend_c, 1, 9600
3, 15360, Pitch_bend_c, 1, 9600
3, 15360, Pitch_bend_c, 1, 8192
3, 15360, Note_off_c, 1, 63, 79
3, 15360, Note_on_c, 0, 61, 79
3, 15840, Note_off_c, 0, 61, 79
3, 15840, Pitch_bend_c, 1, 8192
3, 15840, Note_on_c, 1, 68, 95
3, 15883, Pitch_bend_c, 1, 8320
3, 15926, Pitch_bend_c, 1, 8448
3, 15969, Pitch_bend_c, 1, 8576
3, 16012, Pitch_bend_c, 1, 8704
3, 16055, Pitch_bend_c, 1, 8832
3, 16098, Pitch_bend_c, 1, 8960
3, 16141, Pitch_bend_c, 1, 9088
3, 16184, Pitch_bend_c, 1, 9216
3, 16227, Pitch_bend_c, 1, 9344
3, 16270, Pitch_bend_c, 1, 9472
3, 16313, Pitch_bend_c, 1, 9600
3, 16320, Pitch_bend_c, 1, 9600
3, 16800, Pitch_bend_c, 1, 9600
3, 16800, Pitch_bend_c, 1, 8192
3, 16800, Note_off_c, 1, 68, 95
3, 17280, Pitch_bend_c, 1, 8192
3, 17280, Note_on_c, 1, 68, 95
3, 17301, Pitch_bend_c, 1, 8320
3, 17322, Pitch_bend_c, 1, 8448
3, 17343, Pitch_bend_c, 1, 8576
3, 17364, Pitch_bend_c, 1, 8704
3, 17385, Pitch_bend_c, 1, 8832
3, 17406, Pitch_bend_c, 1, 8960
3, 17427, Pitch_bend_c, 1, 9088
3, 17448, Pitch_bend_c, 1, 9216
3, 17469, Pitch_bend_c, 1, 9344
3, 17490, Pitch_bend_c, 1, 9472
3, 17511, Pitch_bend_c, 1, 9600
3, 17520, Pitch_bend_c, 1, 9600
3, 17760, Pitch_bend_c, 1, 9600
3, 17760, Pitch_bend_c, 1, 8192
3, 17760, Note_off_c, 1, 68, 95
3, 17760, Note_on_c, 0, 68, 79
3, 18240, Note_off_c, 0, 68, 79
3, 18240, Pitch_bend_c, 1, 9600
3, 18240, Note_on_c, 1, 63, 79
3, 18360, Pitch_bend_c, 1, 9600
3, 18370, Pitch_bend_c, 1, 9472
3, 18380, Pitch_bend_c, 1, 9344
3, 18390, Pitch_bend_c, 1, 9216
3, 18400, Pitch_bend_c, 1, 9088
3, 18410, Pitch_bend_c, 1, 8960
3, 18420, Pitch_bend_c, 1, 8832
3, 18430, Pitch_bend_c, 1, 8704
3, 18440, Pitch_bend_c, 1, 8576
3, 18450, Pitch_bend_c, 1, 8448
3, 18460, Pitch_bend_c, 1, 8320
3, 18470, Pitch_bend_c, 1, 8192
3, 18480, Pitch_bend_c, 1, 8192
3, 18720, Pitch_bend_c, 1, 8192
3, 18720, Pitch_bend_c, 1, 8192
3, 18720, Note_off_c, 1, 63, 79
3, 18720, Pitch_bend_c, 1, 8192
3, 18720, Note_on_c, 1, 63, 95
3, 18741, Pitch_bend_c, 1, 8320
3, 18762, Pitch_bend_c, 1, 8448
3, 18783, Pitch_bend_c, 1, 8576
3, 18804, Pitch_bend_c, 1, 8704
3, 18825, Pitch_bend_c, 1, 8832
3, 18846, Pitch_bend_c, 1, 8960
3, 18867, Pitch_bend_c, 1, 9088
3, 18888, Pitch_bend_c, 1, 9216
3, 18909, Pitch_bend_c, 1, 9344
3, 18930, Pitch_bend_c, 1, 9472
3, 18951, Pitch_bend_c, 1, 9600
3, 18960, Pitch_bend_c, 1, 9600
3, 19200, Pitch_bend_c, 1, 9600
3, 19200, Pitch_bend_c, 1, 8192
3, 19200, Note_off_c, 1, 63, 95
3, 19200, Note_on_c, 0, 61, 79
3, 19680, Note_off_c, 0, 61, 79
3, 19680, Note_on_c, 0, 58, 79
3, 20160, Note_off_c, 0, 58, 79
3, 20160, Pitch_bend_c, 1, 8192
3, 20160, Note_on_c, 1, 56, 95
3, 20320, Pitch_bend_c, 1, 8320
3, 20480, Pitch_bend_c, 1, 8448
3, 20480, Pitch_bend_c, 1, 8448
3, 20640, Pitch_bend_c, 1, 8448
3, 20640, Pitch_bend_c, 1, 8192
3, 20640, Note_off_c, 1, 56, 95
3, 20640, Note_on_c, 0, 53, 79
3, 20960, Note_off_c, 0, 53, 79
3, 20960, Note_on_c, 0, 52, 79
3, 21120, Note_off_c, 0, 52, 79
3, 21120, Note_on_c, 0, 51, 79
3, 21600, Note_off_c, 0, 51, 79
3, 21600, Note_on_c, 0, 54, 31
3, 21600, Pitch_bend_c, 1, 8192
3, 21600, Note_on_c, 1, 54, 79
3, 21600, Pitch_bend_c, 1, 8192
3, 21600, Note_on_c, 1, 49, 79
3, 21840, Pitch_bend_c, 1, 8320
3, 21840, Pitch_bend_c, 1, 8320
3, 22080, Pitch_bend_c, 1, 8448
3, 22080, Pitch_bend_c, 1, 8448
3, 22080, Pitch_bend_c, 1, 8448
3, 22080, Pitch_bend_c, 1, 8448
3, 22560, Note_off_c, 0, 54, 31
3, 22560, Pitch_bend_c, 1, 8448
3, 22560, Pitch_bend_c, 1, 8192
3, 22560, Note_off_c, 1, 54, 79
3, 22560, Pitch_bend_c, 1, 8448
3, 22560, Pitch_bend_c, 1, 8192
3, 22560, Note_off_c, 1, 49, 79
3, 22560, Note_on_c, 0, 46, 79
3, 23040, Note_off_c, 0, 46, 79
3, 23040, Pitch_bend_c, 1, 8192
3, 23040, Note_on_c, 1, 63, 95
3, 23061, Pitch_bend_c, 1, 8320
3, 23082, Pitch_bend_c, 1, 8448
3, 23103, Pitch_bend_c, 1, 8576
3, 23124, Pitch_bend_c, 1, 8704
3, 23145, Pitch_bend_c, 1, 8832
3, 23166, Pitch_bend_c, 1, 8960
3, 23187, Pitch_bend_c, 1, 9088
3, 23208, Pitch_bend_c, 1, 9216
3, 23229, Pitch_bend_c, 1, 9344
3, 23250, Pitch_bend_c, 1, 9472
3, 23271, Pitch_bend_c, 1, 9600
3, 23280, Pitch_bend_c, 1, 9600
3, 23520, Pitch_bend_c, 1, 9600
3, 23520, Pitch_bend_c, 1, 8192
3, 23520, Note_off_c, 1, 63, 95
3, 23520, Note_on_c, 0, 65, 79
3, 23760, Note_off_c, 0, 65, 79
3, 23760, Note_on_c, 0, 70, 79
3, 24000, Note_off_c, 0, 70, 79
3, 24000, Note_on_c, 0, 68, 79
3, 24120, Note_off_c, 0, 68, 79
3, 24120, Note_on_c, 0, 65, 79
3, 24480, Note_off_c, 0, 65, 79
3, 24480, Pitch_bend_c, 1, 8192
3, 24480, Note_on_c, 1, 63, 79
3, 24490, Pitch_bend_c, 1, 8320
3, 24500, Pitch_bend_c, 1, 8448
3, 24510, Pitch_bend_c, 1, 8576
3, 24520, Pitch_bend_c, 1, 8704
3, 24530, Pitch_bend_c, 1, 8832
3, 24540, Pitch_bend_c, 1, 8960
3, 24550, Pitch_bend_c, 1, 9088
3, 24560, Pitch_bend_c, 1, 9216
3, 24570, Pitch_bend_c, 1, 9344
3, 24580, Pitch_bend_c, 1, 9472
3, 24590, Pitch_bend_c, 1, 9600
3, 24600, Pitch_bend_c, 1, 9600
3, 24720, Pitch_bend_c, 1, 9600
3, 24720, Pitch_bend_c, 1, 8192
3, 24720, Note_off_c, 1, 63, 79
3, 24720, Note_on_c, 0, 63, 79
3, 24960, Note_off_c, 0, 63, 79
3, 24960, Note_on_c, 0, 61, 79
3, 25200, Note_off_c, 0, 61, 79
3, 25200, Pitch_bend_c, 1, 8192
3, 25200, Note_on_c, 1, 63, 79
3, 25221, Pitch_bend_c, 1, 8320
3, 25242, Pitch_bend_c, 1, 8448
3, 25263, Pitch_bend_c, 1, 8576
3, 25284, Pitch_bend_c, 1, 8704
3, 25305, Pitch_bend_c, 1, 8832
3, 25326, Pitch_bend_c, 1, 8960
3, 25347, Pitch_bend_c, 1, 9088
3, 25368, Pitch_bend_c, 1, 9216
3, 25389, Pitch_bend_c, 1, 9344
3, 25410, Pitch_bend_c, 1, 9472
3, 25431, Pitch_bend_c, 1, 9600
3, 25440, Pitch_bend_c, 1, 9600
3, 25680, Pitch_bend_c, 1, 9600
3, 25680, Pitch_bend_c, 1, 8192
3, 25680, Note_off_c, 1, 63, 79
3, 25680, Note_on_c, 0, 63, 79
3, 25800, Note_off_c, 0, 63, 79
3, 25800, Note_on_c, 0, 61, 54
3, 25920, Note_off_c, 0, 61, 54
3, 25920, Note_on_c, 0, 58, 79
3, 26160, Note_off_c, 0, 58, 79
3, 26160, Note_on_c, 0, 61, 79
3, 26400, Note_off_c, 0, 61, 79
3, 26400, Note_on_c, 0, 58, 63
3, 26520, Note_off_c, 0, 58, 63
3, 26520, Note_on_c, 0, 56, 38
3, 26640, Note_off_c, 0, 56, 38
3, 26640, Note_on_c, 0, 53, 63
3, 26760, Note_off_c, 0, 53, 63
3, 26760, Note_on_c, 0, 51, 22
3, 26880, Note_off_c, 0, 51, 22
3, 31200, Pitch_bend_c, 1, 8192
3, 31200, Note_on_c, 1, 63, 95
3, 31221, Pitch_bend_c, 1, 8320
3, 31242, Pitch_bend_c, 1, 8448
3, 31263, Pitch_bend_c, 1, 8576
3, 31284, Pitch_bend_c, 1, 8704
3, 31305, Pitch_bend_c, 1, 8832
3, 31326, Pitch_bend_c, 1, 8960
3, 31347, Pitch_bend_c, 1, 9088
3, 31368, Pitch_bend_c, 1, 9216
3, 31389, Pitch_bend_c, 1, 9344
3, 31410, Pitch_bend_c, 1, 9472
3, 31431, Pitch_bend_c, 1, 9600
3, 31440, Pitch_bend_c, 1, 9600
3, 31680, Pitch_bend_c, 1, 9600
3, 31680, Pitch_bend_c, 1, 8192
3, 31680, Note_off_c, 1, 63, 95
3, 31680, Note_on_c, 0, 65, 95
3, 31920, Note_off_c, 0, 65, 95
3, 31920, Note_on_c, 0, 70, 79
3, 32160, Note_off_c, 0, 70, 79
3, 32160, Note_on_c, 0, 68, 79
3, 32400, Note_off_c, 0, 68, 79
3, 32400, Note_on_c, 0, 65, 79
3, 32640, Note_off_c, 0, 65, 79
3, 32640, Pitch_bend_c, 1, 8192
3, 32640, Note_on_c, 1, 68, 79
3, 32661, Pitch_bend_c, 1, 8320
3, 32682, Pitch_bend_c, 1, 8448
3, 32703, Pitch_bend_c, 1, 8576
3, 32724, Pitch_bend_c, 1, 8704
3, 32745, Pitch_bend_c, 1, 8832
3, 32766, Pitch_bend_c, 1, 8960
3, 32787, Pitch_bend_c, 1, 9088
3, 32808, Pitch_bend_c, 1, 9216
3, 32829, Pitch_bend_c, 1, 9344
3, 32850, Pitch_bend_c, 1, 9472
3, 32871, Pitch_bend_c, 1, 9600
3, 32880, Pitch_bend_c, 1, 9600
3, 33120, Pitch_bend_c, 1, 9600
3, 33120, Pitch_bend_c, 1, 8192
3, 33120, Note_off_c, 1, 68, 79
3, 33120, Note_on_c, 0, 70, 95
3, 33280, Note_off_c, 0, 70, 95
3, 33280, Note_on_c, 0, 68, 79
3, 33440, Note_off_c, 0, 68, 79
3, 33440, Note_on_c, 0, 70, 79
3, 33440, Note_on_c, 0, 65, 79
3, 33600, Note_off_c, 0, 70, 79
3, 33600, Note_off_c, 0, 65, 79
3, 33600, Pitch_bend_c, 1, 8192
3, 33600, Note_on_c, 1, 63, 95
3, 33610, Pitch_bend_c, 1, 8320
3, 33620, Pitch_bend_c, 1, 8448
3, 33630, Pitch_bend_c, 1, 8576
3, 33640, Pitch_bend_c, 1, 8704
3, 33650, Pitch_bend_c, 1, 8832
3, 33660, Pitch_bend_c, 1, 8960
3, 33670, Pitch_bend_c, 1, 9088
3, 33680, Pitch_bend_c, 1, 9216
3, 33690, Pitch_bend_c, 1, 9344
3, 33700, Pitch_bend_c, 1, 9472
3, 33710, Pitch_bend_c, 1, 9600
3, 33720, Pitch_bend_c, 1, 9600
3, 33840, Pitch_bend_c, 1, 9600
3, 33840, Pitch_bend_c, 1, 8192
3, 33840, Note_off_c, 1, 63, 95
3, 34080, Note_on_c, 0, 70, 79
3, 34240, Note_off_c, 0, 70, 79
3, 34240, Note_on_c, 0, 68, 79
3, 34400, Note_off_c, 0, 68, 79
3, 34400, Note_on_c, 0, 65, 79
3, 34560, Note_off_c, 0, 65, 79
3, 34560, Note_on_c, 0, 64, 79
3, 34800, Note_off_c, 0, 64, 79
3, 34800, Note_on_c, 0, 63, 79
3, 34920, Note_off_c, 0, 63, 79
3, 34920, Note_on_c, 0, 61, 79
3, 35040, Note_off_c, 0, 61, 79
3, 35040, Note_on_c, 0, 58, 79
3, 35200, Note_off_c, 0, 58, 79
3, 35200, Note_on_c, 0, 61, 79
3, 35360, Note_off_c, 0, 61, 79
3, 35360, Pitch_bend_c, 1, 8192
3, 35360, Note_on_c, 1, 63, 79
3, 35379, Pitch_bend_c, 1, 8320
3, 35398, Pitch_bend_c, 1, 8448
3, 35417, Pitch_bend_c, 1, 8576
3, 35436, Pitch_bend_c, 1, 8704
3, 35455, Pitch_bend_c, 1, 8832
3, 35474, Pitch_bend_c, 1, 8960
3, 35493, Pitch_bend_c, 1, 9088
3, 35512, Pitch_bend_c, 1, 9216
3, 35531, Pitch_bend_c, 1, 9344
3, 35550, Pitch_bend_c, 1, 9472
3, 35569, Pitch_bend_c, 1, 9600
3, 35573, Pitch_bend_c, 1, 9600
3, 36000, Pitch_bend_c, 1, 9600
3, 36000, Pitch_bend_c, 1, 8192
3, 36000, Note_off_c, 1, 63, 79
3, 36000, Note_on_c, 0, 63, 95
3, 36120, Note_off_c, 0, 63, 95
3, 36120, Note_on_c, 0, 61, 54
3, 36240, Note_off_c, 0, 61, 54
3, 36240, Note_on_c, 0, 58, 79
3, 36360, Note_off_c, 0, 58, 79
3, 36360, Note_on_c, 0, 61, 79
3, 36480, Note_off_c, 0, 61, 79
3, 36480, Note_on_c, 0, 58, 79
3, 36600, Note_off_c, 0, 58, 79
3, 36600, Note_on_c, 0, 56, 38
3, 36720, Note_off_c, 0, 56, 38
3, 36720, Note_on_c, 0, 53, 15
3, 37200, Note_off_c, 0, 53, 15
3, 39920, Pitch_bend_c, 1, 8192
3, 39920, Note_on_c, 1, 68, 79
3, 39932, Pitch_bend_c, 1, 8320
3, 39944, Pitch_bend_c, 1, 8448
3, 39956, Pitch_bend_c, 1, 8576
3, 39968, Pitch_bend_c, 1, 8704
3, 39980, Pitch_bend_c, 1, 8832
3, 39992, Pitch_bend_c, 1, 8960
3, 40004, Pitch_bend_c, 1, 9088
3, 40016, Pitch_bend_c, 1, 9216
3, 40028, Pitch_bend_c, 1, 9344
3, 40040, Pitch_bend_c, 1, 9472
3, 40052, Pitch_bend_c, 1, 9600
3, 40053, Pitch_bend_c, 1, 9600
3, 40320, Pitch_bend_c, 1, 9600
3, 40320, Pitch_bend_c, 1, 8192
3, 40320, Note_off_c, 1, 68, 79
3, 40320, Note_on_c, 0, 70, 95
3, 40560, Note_off_c, 0, 70, 95
3, 40560, Note_on_c, 0, 68, 79
3, 40800, Note_off_c, 0, 68, 79
3, 40800, Note_on_c, 0, 65, 79
3, 41040, Note_off_c, 0, 65, 79
3, 41040, Pitch_bend_c, 1, 8192
3, 41040, Note_on_c, 1, 63, 79
3, 41050, Pitch_bend_c, 1, 8320
3, 41060, Pitch_bend_c, 1, 8448
3, 41070, Pitch_bend_c, 1, 8576
3, 41080, Pitch_bend_c, 1, 8704
3, 41090, Pitch_bend_c, 1, 8832
3, 41100, Pitch_bend_c, 1, 8960
3, 41110, Pitch_bend_c, 1, 9088
3, 41120, Pitch_bend_c, 1, 9216
3, 41130, Pitch_bend_c, 1, 9344
3, 41140, Pitch_bend_c, 1, 9472
3, 41150, Pitch_bend_c, 1, 9600
3, 41160, Pitch_bend_c, 1, 9600
3, 41280, Pitch_bend_c, 1, 9600
3, 41280, Pitch_bend_c, 1, 8192
3, 41280, Note_off_c, 1, 63, 79
3, 41280, Note_on_c, 0, 63, 79
3, 41520, Note_off_c, 0, 63, 79
3, 41520, Note_on_c, 1, 61, 79
3, 41680, Pitch_bend_c, 1, 8192
3, 41840, Pitch_bend_c, 1, 8320
3, 42000, Pitch_bend_c, 1, 8192
3, 42160, Pitch_bend_c, 1, 8320
3, 42240, Pitch_bend_c, 1, 8192
3, 42240, Pitch_bend_c, 1, 8320
3, 42240, Pitch_bend_c, 1, 8192
3, 42240, Note_off_c, 1, 61, 79
3, 46080, Note_on_c, 0, 63, 95
3, 46240, Note_off_c, 0, 63, 95
3, 46240, Note_on_c, 0, 65, 79
3, 46400, Note_off_c, 0, 65, 79
3, 46400, Note_on_c, 0, 65, 79
3, 46560, Note_off_c, 0, 65, 79
3, 46560, Note_on_c, 0, 70, 79
3, 46720, Note_off_c, 0, 70, 79
3, 46720, Pitch_bend_c, 1, 8192
3, 46720, Note_on_c, 1, 72, 95
3, 46734, Pitch_bend_c, 1, 8320
3, 46748, Pitch_bend_c, 1, 8448
3, 46762, Pitch_bend_c, 1, 8576
3, 46776, Pitch_bend_c, 1, 8704
3, 46790, Pitch_bend_c, 1, 8832
3, 46804, Pitch_bend_c, 1, 8960
3, 46818, Pitch_bend_c, 1, 9088
3, 46832, Pitch_bend_c, 1, 9216
3, 46846, Pitch_bend_c, 1, 9344
3, 46860, Pitch_bend_c, 1, 9472
3, 46874, Pitch_bend_c, 1, 9600
3, 46880, Pitch_bend_c, 1, 9600
3, 47040, Pitch_bend_c, 1, 9600
3, 47040, Pitch_bend_c, 1, 8192
3, 47040, Note_off_c, 1, 72, 95
3, 47040, Note_on_c, 1, 72, 79
3, 47200, Pitch_bend_c, 1, 8192
3, 47360, Pitch_bend_c, 1, 8320
3, 47520, Pitch_bend_c, 1, 8192
3, 47680, Pitch_bend_c, 1, 8320
3, 47680, Pitch_bend_c, 1, 8192
3, 47680, Note_off_c, 1, 72, 79
3, 47680, Note_on_c, 0, 70, 79
3, 47840, Note_off_c, 0, 70, 79
3, 47840, Pitch_bend_c, 1, 8192
3, 47840, Note_on_c, 1, 72, 54
3, 47854, Pitch_bend_c, 1, 8320
3, 47868, Pitch_bend_c, 1, 8448
3, 47882, Pitch_bend_c, 1, 8576
3, 47896, Pitch_bend_c, 1, 8704
3, 47910, Pitch_bend_c, 1, 8832
3, 47924, Pitch_bend_c, 1, 8960
3, 47938, Pitch_bend_c, 1, 9088
3, 47952, Pitch_bend_c, 1, 9216
3, 47966, Pitch_bend_c, 1, 9344
3, 47980, Pitch_bend_c, 1, 9472
3, 47994, Pitch_bend_c, 1, 9600
3, 48000, Pitch_bend_c, 1, 9600
3, 48320, Pitch_bend_c, 1, 9600
3, 48320, Pitch_bend_c, 1, 8192
3, 48320, Note_off_c, 1, 72, 54
3, 48320, Note_on_c, 0, 72, 79
3, 48480, Note_off_c, 0, 72, 79
3, 48480, Note_on_c, 0, 70, 79
3, 48640, Note_off_c, 0, 70, 79
3, 48640, Note_on_c, 0, 72, 54
3, 48800, Note_off_c, 0, 72, 54
3, 48800, Note_on_c, 0, 70, 54
3, 48960, Note_off_c, 0, 70, 54
3, 48960, Note_on_c, 0, 68, 79
3, 49120, Note_off_c, 0, 68, 79
3, 49120, Note_on_c, 0, 67, 54
3, 49280, Note_off_c, 0, 67, 54
3, 49280, Note_on_c, 0, 65, 54
3, 49280, Note_on_c, 0, 54, 31
3, 49440, Note_off_c, 0, 65, 54
3, 49440, Note_off_c, 0, 54, 31
3, 49440, Note_on_c, 0, 63, 79
3, 49760, Note_off_c, 0, 63, 79
3, 49760, Note_on_c, 0, 65, 79
3, 49920, Note_off_c, 0, 65, 79
3, 49920, Pitch_bend_c, 1, 8192
3, 49920, Note_on_c, 1, 67, 54
3, 49941, Pitch_bend_c, 1, 8320
3, 49962, Pitch_bend_c, 1, 8448
3, 49983, Pitch_bend_c, 1, 8576
3, 50004, Pitch_bend_c, 1, 8704
3, 50025, Pitch_bend_c, 1, 8832
3, 50046, Pitch_bend_c, 1, 8960
3, 50067, Pitch_bend_c, 1, 9088
3, 50088, Pitch_bend_c, 1, 9216
3, 50109, Pitch_bend_c, 1, 9344
3, 50130, Pitch_bend_c, 1, 9472
3, 50151, Pitch_bend_c, 1, 9600
3, 50160, Pitch_bend_c, 1, 9600
3, 50400, Pitch_bend_c, 1, 9600
3, 50400, Pitch_bend_c, 1, 8192
3, 50400, Note_off_c, 1, 67, 54
3, 50400, Note_on_c, 0, 67, 95
3, 50520, Note_off_c, 0, 67, 95
3, 50520, Note_on_c, 0, 65, 54
3, 50640, Note_off_c, 0, 65, 54
3, 50640, Note_on_c, 0, 63, 79
3, 50880, Note_off_c, 0, 63, 79
3, 50880, Note_on_c, 1, 65, 95
3, 51040, Pitch_bend_c, 1, 8192
3, 51200, Pitch_bend_c, 1, 8320
3, 51360, Pitch_bend_c, 1, 8192
3, 51520, Pitch_bend_c, 1, 8320
3, 51680, Pitch_bend_c, 1, 8192
3, 51840, Pitch_bend_c, 1, 8320
3, 51840, Pitch_bend_c, 1, 8192
3, 51840, Note_off_c, 1, 65, 95
3, 52080, Pitch_bend_c, 1, 8192
3, 52080, Note_on_c, 1, 65, 79
3, 52101, Pitch_bend_c, 1, 8320
3, 52122, Pitch_bend_c, 1, 8448
3, 52143, Pitch_bend_c, 1, 8576
3, 52164, Pitch_bend_c, 1, 8704
3, 52185, Pitch_bend_c, 1, 8832
3, 52206, Pitch_bend_c, 1, 8960
3, 52227, Pitch_bend_c, 1, 9088
3, 52248, Pitch_bend_c, 1, 9216
3, 52269, Pitch_bend_c, 1, 9344
3, 52290, Pitch_bend_c, 1, 9472
3, 52311, Pitch_bend_c, 1, 9600
3, 52320, Pitch_bend_c, 1, 9600
3, 52560, Pitch_bend_c, 1, 9600
3, 52560, Pitch_bend_c, 1, 8192
3, 52560, Note_off_c, 1, 65, 79
3, 52560, Note_on_c, 0, 65, 79
3, 52800, Note_off_c, 0, 65, 79
3, 52800, Note_on_c, 0, 65, 79
3, 52960, Note_off_c, 0, 65, 79
3, 52960, Note_on_c, 0, 67, 54
3, 53120, Note_off_c, 0, 67, 54
3, 53120, Note_on_c, 0, 65, 54
3, 53280, Note_off_c, 0, 65, 54
3, 53280, Note_on_c, 0, 63, 79
3, 53400, Note_off_c, 0, 63, 79
3, 53400, Note_on_c, 0, 65, 54
3, 53520, Note_off_c, 0, 65, 54
3, 53520, Note_on_c, 1, 63, 54
3, 53640, Pitch_bend_c, 1, 6784
3, 53640, Pitch_bend_c, 1, 8192
3, 53640, Note_off_c, 1, 63, 54
3, 53640, Note_on_c, 0, 61, 79
3, 53760, Note_off_c, 0, 61, 79
3, 53760, Note_on_c, 0, 58, 79
3, 53920, Note_off_c, 0, 58, 79
3, 53920, Note_on_c, 0, 61, 79
3, 54080, Note_off_c, 0, 61, 79
3, 54080, Pitch_bend_c, 1, 8192
3, 54080, Note_on_c, 1, 63, 54
3, 54094, Pitch_bend_c, 1, 8320
3, 54108, Pitch_bend_c, 1, 8448
3, 54122, Pitch_bend_c, 1, 8576
3, 54136, Pitch_bend_c, 1, 8704
3, 54150, Pitch_bend_c, 1, 8832
3, 54164, Pitch_bend_c, 1, 8960
3, 54178, Pitch_bend_c, 1, 9088
3, 54192, Pitch_bend_c, 1, 9216
3, 54206, Pitch_bend_c, 1, 9344
3, 54220, Pitch_bend_c, 1, 9472
3, 54234, Pitch_bend_c, 1, 9600
3, 54240, Pitch_bend_c, 1, 9600
3, 54400, Pitch_bend_c, 1, 9600
3, 54400, Pitch_bend_c, 1, 8192
3, 54400, Note_off_c, 1, 63, 54
3, 54400, Note_on_c, 0, 65, 79
3, 54560, Note_off_c, 0, 65, 79
3, 54560, Note_on_c, 0, 70, 79
3, 54720, Note_off_c, 0, 70, 79
3, 54720, Note_on_c, 0, 68, 95
3, 54880, Note_off_c, 0, 68, 95
3, 54880, Note_on_c, 0, 65, 79
3, 55040, Note_off_c, 0, 65, 79
3, 55040, Pitch_bend_c, 1, 8192
3, 55040, Note_on_c, 1, 63, 79
3, 55047, Pitch_bend_c, 1, 8320
3, 55054, Pitch_bend_c, 1, 8448
3, 55061, Pitch_bend_c, 1, 8576
3, 55068, Pitch_bend_c, 1, 8704
3, 55075, Pitch_bend_c, 1, 8832
3, 55082, Pitch_bend_c, 1, 8960
3, 55089, Pitch_bend_c, 1, 9088
3, 55096, Pitch_bend_c, 1, 9216
3, 55103, Pitch_bend_c, 1, 9344
3, 55110, Pitch_bend_c, 1, 9472
3, 55117, Pitch_bend_c, 1, 9600
3, 55120, Pitch_bend_c, 1, 9600
3, 55200, Pitch_bend_c, 1, 9600
3, 55200, Pitch_bend_c, 1, 8192
3, 55200, Note_off_c, 1, 63, 79
3, 55200, Note_on_c, 0, 63, 79
3, 55320, Note_off_c, 0, 63, 79
3, 55320, Note_on_c, 0, 61, 54
3, 55440, Note_off_c, 0, 61, 54
3, 55440, Note_on_c, 0, 58, 79
3, 55680, Note_off_c, 0, 58, 79
3, 55680, Pitch_bend_c, 1, 8192
3, 55680, Note_on_c, 1, 61, 95
3, 55740, Pitch_bend_c, 1, 8320
3, 55800, Pitch_bend_c, 1, 8448
3, 55800, Pitch_bend_c, 1, 8448
3, 55826, Pitch_bend_c, 1, 8576
3, 55852, Pitch_bend_c, 1, 8704
3, 55878, Pitch_bend_c, 1, 8832
3, 55904, Pitch_bend_c, 1, 8960
3, 55930, Pitch_bend_c, 1, 9088
3, 55956, Pitch_bend_c, 1, 9216
3, 55982, Pitch_bend_c, 1, 9344
3, 56008, Pitch_bend_c, 1, 9472
3, 56034, Pitch_bend_c, 1, 9600
3, 56040, Pitch_bend_c, 1, 9600
3, 56160, Pitch_bend_c, 1, 9600
3, 56160, Pitch_bend_c, 1, 8192
3, 56160, Note_off_c, 1, 61, 95
3, 56640, Note_on_c, 0, 58, 79
3, 56800, Note_off_c, 0, 58, 79
3, 56800, Note_on_c, 0, 61, 79
3, 56960, Note_off_c, 0, 61, 79
3, 56960, Pitch_bend_c, 1, 8192
3, 56960, Note_on_c, 1, 63, 79
3, 56974, Pitch_bend_c, 1, 8320
3, 56988, Pitch_bend_c, 1, 8448
3, 57002, Pitch_bend_c, 1, 8576
3, 57016, Pitch_bend_c, 1, 8704
3, 57030, Pitch_bend_c, 1, 8832
3, 57044, Pitch_bend_c, 1, 8960
3, 57058, Pitch_bend_c, 1, 9088
3, 57072, Pitch_bend_c, 1, 9216
3, 57086, Pitch_bend_c, 1, 9344
3, 57100, Pitch_bend_c, 1, 9472
3, 57114, Pitch_bend_c, 1, 9600
3, 57120, Pitch_bend_c, 1, 9600
3, 57440, Pitch_bend_c, 1, 9600
3, 57440, Pitch_bend_c, 1, 8192
3, 57440, Note_off_c, 1, 63, 79
3, 57440, Note_on_c, 0, 65, 79
3, 57600, Note_off_c, 0, 65, 79
3, 57600, Pitch_bend_c, 1, 8192
3, 57600, Note_on_c, 1, 63, 95
3, 57610, Pitch_bend_c, 1, 8320
3, 57620, Pitch_bend_c, 1, 8448
3, 57630, Pitch_bend_c, 1, 8576
3, 57640, Pitch_bend_c, 1, 8704
3, 57650, Pitch_bend_c, 1, 8832
3, 57660, Pitch_bend_c, 1, 8960
3, 57670, Pitch_bend_c, 1, 9088
3, 57680, Pitch_bend_c, 1, 9216
3, 57690, Pitch_bend_c, 1, 9344
3, 57700, Pitch_bend_c, 1, 9472
3, 57710, Pitch_bend_c, 1, 9600
3, 57720, Pitch_bend_c, 1, 9600
3, 57840, Pitch_bend_c, 1, 9600
3, 57840, Pitch_bend_c, 1, 8192
3, 57840, Note_off_c, 1, 63, 95
3, 57840, Note_on_c, 0, 65, 79
3, 58080, Note_off_c, 0, 65, 79
3, 58080, Pitch_bend_c, 1, 8192
3, 58080, Note_on_c, 1, 63, 95
3, 58090, Pitch_bend_c, 1, 8320
3, 58100, Pitch_bend_c, 1, 8448
3, 58110, Pitch_bend_c, 1, 8576
3, 58120, Pitch_bend_c, 1, 8704
3, 58130, Pitch_bend_c, 1, 8832
3, 58140, Pitch_bend_c, 1, 8960
3, 58150, Pitch_bend_c, 1, 9088
3, 58160, Pitch_bend_c, 1, 9216
3, 58170, Pitch_bend_c, 1, 9344
3, 58180, Pitch_bend_c, 1, 9472
3, 58190, Pitch_bend_c, 1, 9600
3, 58200, Pitch_bend_c, 1, 9600
3, 58320, Pitch_bend_c, 1, 9600
3, 58320, Pitch_bend_c, 1, 8192
3, 58320, Note_off_c, 1, 63, 95
3, 58320, Note_on_c, 0, 63, 79
3, 58440, Note_off_c, 0, 63, 79
3, 58440, Note_on_c, 0, 61, 54
3, 58560, Note_off_c, 0, 61, 54
3, 58560, Note_on_c, 0, 58, 79
3, 58680, Note_off_c, 0, 58, 79
3, 58680, Note_on_c, 0, 56, 79
3, 58680, Note_on_c, 0, 51, 31
3, 58800, Note_off_c, 0, 56, 79
3, 58800, Note_off_c, 0, 51, 31
3, 60000, Pitch_bend_c, 1, 8192
3, 60000, Note_on_c, 1, 63, 79
3, 60014, Pitch_bend_c, 1, 8320
3, 60028, Pitch_bend_c, 1, 8448
3, 60042, Pitch_bend_c, 1, 8576
3, 60056, Pitch_bend_c, 1, 8704
3, 60070, Pitch_bend_c, 1, 8832
3, 60084, Pitch_bend_c, 1, 8960
3, 60098, Pitch_bend_c, 1, 9088
3, 60112, Pitch_bend_c, 1, 9216
3, 60126, Pitch_bend_c, 1, 9344
3, 60140, Pitch_bend_c, 1, 9472
3, 60154, Pitch_bend_c, 1, 9600
3, 60160, Pitch_bend_c, 1, 9600
3, 60320, Pitch_bend_c, 1, 9600
3, 60320, Pitch_bend_c, 1, 8192
3, 60320, Note_off_c, 1, 63, 79
3, 60320, Note_on_c, 0, 65, 79
3, 60480, Note_off_c, 0, 65, 79
3, 60480, Note_on_c, 0, 68, 79
3, 60720, Note_off_c, 0, 68, 79
3, 60720, Note_on_c, 0, 65, 79
3, 60960, Note_off_c, 0, 65, 79
3, 60960, Note_on_c, 1, 68, 79
3, 61120, Pitch_bend_c, 1, 8192
3, 61280, Pitch_bend_c, 1, 8320
3, 61440, Pitch_bend_c, 1, 8192
3, 61600, Pitch_bend_c, 1, 8320
3, 61760, Pitch_bend_c, 1, 8192
3, 61920, Pitch_bend_c, 1, 8320
3, 61920, Pitch_bend_c, 1, 8192
3, 61920, Note_off_c, 1, 68, 79
3, 61920, Note_on_c, 0, 70, 79
3, 62100, Note_on_c, 1, 58, 95
3, 62142, Note_off_c, 1, 58, 95
3, 62160, Note_off_c, 0, 70, 79
3, 62160, Note_on_c, 0, 70, 79
3, 62160, Note_on_c, 1, 58, 95
3, 62400, Note_off_c, 0, 70, 79
3, 62400, Note_off_c, 1, 58, 95
3, 62400, Note_on_c, 0, 70, 79
3, 62640, Note_off_c, 0, 70, 79
3, 62640, Pitch_bend_c, 1, 8192
3, 62640, Note_on_c, 1, 68, 79
3, 62661, Pitch_bend_c, 1, 8320
3, 62682, Pitch_bend_c, 1, 8448
3, 62703, Pitch_bend_c, 1, 8576
3, 62724, Pitch_bend_c, 1, 8704
3, 62745, Pitch_bend_c, 1, 8832
3, 62766, Pitch_bend_c, 1, 8960
3, 62787, Pitch_bend_c, 1, 9088
3, 62808, Pitch_bend_c, 1, 9216
3, 62829, Pitch_bend_c, 1, 9344
3, 62850, Pitch_bend_c, 1, 9472
3, 62871, Pitch_bend_c, 1, 9600
3, 62873, Pitch_bend_c, 1, 9600
3, 63200, Pitch_bend_c, 1, 9600
3, 63200, Pitch_bend_c, 1, 8192
3, 63200, Note_off_c, 1, 68, 79
3, 63200, Note_on_c, 0, 70, 79
3, 63360, Note_off_c, 0, 70, 79
3, 63360, Note_on_c, 0, 68, 79
3, 63520, Note_off_c, 0, 68, 79
3, 63520, Note_on_c, 0, 70, 79
3, 63680, Note_off_c, 0, 70, 79
3, 63680, Pitch_bend_c, 1, 8192
3, 63680, Note_on_c, 1, 63, 79
3, 63687, Pitch_bend_c, 1, 8320
3, 63694, Pitch_bend_c, 1, 8448
3, 63701, Pitch_bend_c, 1, 8576
3, 63708, Pitch_bend_c, 1, 8704
3, 63715, Pitch_bend_c, 1, 8832
3, 63722, Pitch_bend_c, 1, 8960
3, 63729, Pitch_bend_c, 1, 9088
3, 63736, Pitch_bend_c, 1, 9216
3, 63743, Pitch_bend_c, 1, 9344
3, 63750, Pitch_bend_c, 1, 9472
3, 63757, Pitch_bend_c, 1, 9600
3, 63760, Pitch_bend_c, 1, 9600
3, 63840, Pitch_bend_c, 1, 9600
3, 63840, Pitch_bend_c, 1, 8192
3, 63840, Note_off_c, 1, 63, 79
3, 63840, Note_on_c, 0, 63, 79
3, 63840, Note_on_c, 0, 49, 79
3, 63960, Note_off_c, 0, 63, 79
3, 63960, Note_off_c, 0, 49, 79
3, 63960, Note_on_c, 0, 61, 54
3, 64080, Note_off_c, 0, 61, 54
3, 64080, Note_on_c, 0, 58, 79
3, 64320, Note_off_c, 0, 58, 79
3, 64320, Note_on_c, 0, 61, 79
3, 64560, Note_off_c, 0, 61, 79
3, 64560, Note_on_c, 0, 58, 79
3, 64680, Note_off_c, 0, 58, 79
3, 64680, Note_on_c, 0, 56, 54
3, 64800, Note_off_c, 0, 56, 54
3, 64800, Note_on_c, 0, 53, 79
3, 64960, Note_off_c, 0, 53, 79
3, 64960, Note_on_c, 0, 51, 54
3, 65120, Note_off_c, 0, 51, 54
3, 65120, Note_on_c, 0, 48, 63
3, 65280, Note_off_c, 0, 48, 63
3, 65280, Note_on_c, 0, 49, 95
3, 65322, Note_off_c, 0, 49, 95
3, 65760, Pitch_bend_c, 1, 8192
3, 65760, Note_on_c, 1, 56, 79
3, 65880, Pitch_bend_c, 1, 8320
3, 66000, Pitch_bend_c, 1, 8448
3, 66000, Pitch_bend_c, 1, 8448
3, 66240, Pitch_bend_c, 1, 8448
3, 66240, Pitch_bend_c, 1, 8192
3, 66240, Note_off_c, 1, 56, 79
3, 66240, Note_on_c, 0, 53, 95
3, 66960, Note_off_c, 0, 53, 95
3, 66960, Note_on_c, 0, 51, 54
3, 67200, Note_off_c, 0, 51, 54
3, 67200, Note_on_c, 0, 48, 63
3, 67680, Note_off_c, 0, 48, 63
3, 68160, Note_on_c, 0, 49, 79
3, 68202, Note_off_c, 0, 49, 79
3, 68520, Note_on_c, 1, 56, 79
3, 68640, Note_off_c, 1, 56, 79
3, 68640, Note_on_c, 1, 58, 79
3, 68880, Note_off_c, 1, 58, 79
3, 68880, Note_on_c, 1, 61, 79
3, 69000, Pitch_bend_c, 1, 10240
3, 69000, Pitch_bend_c, 1, 8192
3, 69000, Note_off_c, 1, 61, 79
3, 69000, Note_on_c, 0, 64, 79
3, 69120, Note_off_c, 0, 64, 79
3, 69120, Note_on_c, 1, 74, 95
3, 69120, Note_on_c, 1, 65, 95
3, 69280, Pitch_bend_c, 1, 8192
3, 69280, Pitch_bend_c, 1, 8192
3, 69440, Pitch_bend_c, 1, 8320
3, 69440, Pitch_bend_c, 1, 8320
3, 69600, Pitch_bend_c, 1, 8192
3, 69600, Pitch_bend_c, 1, 8192
3, 69760, Pitch_bend_c, 1, 8320
3, 69760, Pitch_bend_c, 1, 8320
3, 69920, Pitch_bend_c, 1, 8192
3, 69920, Pitch_bend_c, 1, 8192
3, 70080, Pitch_bend_c, 1, 8320
3, 70080, Pitch_bend_c, 1, 8320
3, 70240, Pitch_bend_c, 1, 8192
3, 70240, Pitch_bend_c, 1, 8192
3, 70400, Pitch_bend_c, 1, 8320
3, 70400, Pitch_bend_c, 1, 8320
3, 70560, Pitch_bend_c, 1, 8192
3, 70560, Pitch_bend_c, 1, 8192
3, 70720, Pitch_bend_c, 1, 8320
3, 70720, Pitch_bend_c, 1, 8320
3, 70880, Pitch_bend_c, 1, 8192
3, 70880, Pitch_bend_c, 1, 8192
3, 71040, Pitch_bend_c, 1, 8320
3, 71040, Pitch_bend_c, 1, 8320
3, 71200, Pitch_bend_c, 1, 8192
3, 71200, Pitch_bend_c, 1, 8192
3, 71360, Pitch_bend_c, 1, 8320
3, 71360, Pitch_bend_c, 1, 8320
3, 71520, Pitch_bend_c, 1, 8192
3, 71520, Pitch_bend_c, 1, 8320
3, 71520, Pitch_bend_c, 1, 8192
3, 71520, Note_off_c, 1, 74, 95
3, 71520, Pitch_bend_c, 1, 8192
3, 71520, Pitch_bend_c, 1, 8320
3, 71520, Pitch_bend_c, 1, 8192
3, 71520, Note_off_c, 1, 65, 95
3, 71520, Note_on_c, 1, 74, 63
3, 71680, Pitch_bend_c, 1, 8192
3, 71840, Pitch_bend_c, 1, 8320
3, 72000, Pitch_bend_c, 1, 8192
3, 72000, Pitch_bend_c, 1, 8320
3, 72000, Pitch_bend_c, 1, 8192
3, 72000, Note_off_c, 1, 74, 63
3, 72000, Note_on_c, 1, 68, 63
3, 72160, Pitch_bend_c, 1, 8192
3, 72320, Pitch_bend_c, 1, 8320
3, 72480, Pitch_bend_c, 1, 8192
3, 72480, Pitch_bend_c, 1, 8320
3, 72480, Pitch_bend_c, 1, 8192
3, 72480, Note_off_c, 1, 68, 63
3, 72480, Note_on_c, 1, 65, 63
3, 72640, Pitch_bend_c, 1, 8192
3, 72800, Pitch_bend_c, 1, 8320
3, 72960, Pitch_bend_c, 1, 8192
3, 72960, Pitch_bend_c, 1, 8320
3, 72960, Pitch_bend_c, 1, 8192
3, 72960, Note_off_c, 1, 65, 63
3, 72960, Note_on_c, 0, 74, 63
3, 73440, Note_off_c, 0, 74, 63
3, 73440, Note_on_c, 0, 58, 95
3, 73482, Note_off_c, 0, 58, 95
3, 73920, Note_on_c, 1, 65, 63
3, 74080, Pitch_bend_c, 1, 8192
3, 74240, Pitch_bend_c, 1, 8320
3, 74400, Pitch_bend_c, 1, 8192
3, 74400, Pitch_bend_c, 1, 8320
3, 74400, Pitch_bend_c, 1, 8192
3, 74400, Note_off_c, 1, 65, 63
3, 74400, Note_on_c, 1, 74, 79
3, 74560, Pitch_bend_c, 1, 8192
3, 74720, Pitch_bend_c, 1, 8320
3, 74760, Note_on_c, 1, 65, 95
3, 74880, Pitch_bend_c, 1, 8192
3, 74880, Pitch_bend_c, 1, 8320
3, 74880, Pitch_bend_c, 1, 8192
3, 74880, Note_off_c, 1, 74, 79
3, 74880, Note_off_c, 1, 65, 95
3, 74880, Note_on_c, 1, 64, 95
3, 75040, Pitch_bend_c, 1, 8192
3, 75200, Pitch_bend_c, 1, 8320
3, 75360, Pitch_bend_c, 1, 8192
3, 75360, Pitch_bend_c, 1, 8320
3, 75360, Pitch_bend_c, 1, 8192
3, 75360, Note_off_c, 1, 64, 95
3, 75360, Note_on_c, 1, 73, 79
3, 75520, Pitch_bend_c, 1, 8192
3, 75680, Pitch_bend_c, 1, 8320
3, 75840, Pitch_bend_c, 1, 8192
3, 75840, Pitch_bend_c, 1, 8320
3, 75840, Pitch_bend_c, 1, 8192
3, 75840, Note_off_c, 1, 73, 79
3, 75840, Note_on_c, 0, 64, 79
3, 76320, Note_off_c, 0, 64, 79
3, 76320, Note_on_c, 1, 64, 95
3, 76480, Pitch_bend_c, 1, 8192
3, 76640, Pitch_bend_c, 1, 8320
3, 76800, Pitch_bend_c, 1, 8192
3, 76800, Pitch_bend_c, 1, 8320
3, 76800, Pitch_bend_c, 1, 8192
3, 76800, Note_off_c, 1, 64, 95
3, 76800, Note_on_c, 1, 73, 79
3, 76960, Pitch_bend_c, 1, 8192
3, 77120, Pitch_bend_c, 1, 8320
3, 77280, Pitch_bend_c, 1, 8192
3, 77280, Pitch_bend_c, 1, 8320
3, 77280, Pitch_bend_c, 1, 8192
3, 77280, Note_off_c, 1, 73, 79
3, 77280, Note_on_c, 0, 64, 79
3, 77640, Note_on_c, 1, 64, 95
3, 77760, Note_off_c, 0, 64, 79
3, 77760, Note_off_c, 1, 64, 95
3, 77760, Note_on_c, 1, 70, 95
3, 77880, Pitch_bend_c, 1, 8448
3, 78000, Pitch_bend_c, 1, 8832
3, 78000, Pitch_bend_c, 1, 8192
3, 78000, Note_off_c, 1, 70, 95
3, 78000, Note_on_c, 0, 71, 79
3, 78240, Note_off_c, 0, 71, 79
3, 78240, Note_on_c, 0, 80, 79
3, 78720, Note_off_c, 0, 80, 79
3, 78720, Note_on_c, 1, 71, 95
3, 78880, Pitch_bend_c, 1, 7552
3, 78880, Pitch_bend_c, 1, 8192
3, 78880, Note_off_c, 1, 71, 95
3, 78880, Note_on_c, 0, 70, 79
3, 79200, Note_off_c, 0, 70, 79
3, 79200, Note_on_c, 0, 79, 79
3, 79680, Note_off_c, 0, 79, 79
3, 79680, Note_on_c, 1, 70, 95
3, 79840, Pitch_bend_c, 1, 7552
3, 79840, Pitch_bend_c, 1, 8192
3, 79840, Note_off_c, 1, 70, 95
3, 79840, Note_on_c, 0, 69, 79
3, 80160, Note_off_c, 0, 69, 79
3, 80160, Note_on_c, 0, 78, 79
3, 80520, Note_on_c, 1, 69, 95
3, 80640, Note_off_c, 0, 78, 79
3, 80640, Note_off_c, 1, 69, 95
3, 80640, Note_on_c, 1, 68, 95
3, 81120, Note_off_c, 1, 68, 95
3, 81120, Note_on_c, 1, 77, 79
3, 81280, Pitch_bend_c, 1, 8192
3, 81360, Pitch_bend_c, 1, 8320
3, 81360, Pitch_bend_c, 1, 8192
3, 81360, Note_off_c, 1, 77, 79
3, 81360, Note_on_c, 1, 68, 79
3, 81520, Pitch_bend_c, 1, 8192
3, 81680, Pitch_bend_c, 1, 8320
3, 81840, Pitch_bend_c, 1, 8192
3, 82000, Pitch_bend_c, 1, 8320
3, 82080, Pitch_bend_c, 1, 8192
3, 82080, Pitch_bend_c, 1, 8320
3, 82080, Pitch_bend_c, 1, 8192
3, 82080, Note_off_c, 1, 68, 79
3, 82080, Note_on_c, 1, 77, 79
3, 82240, Pitch_bend_c, 1, 8192
3, 82400, Pitch_bend_c, 1, 8320
3, 82560, Pitch_bend_c, 1, 8192
3, 82560, Pitch_bend_c, 1, 8320
3, 82560, Pitch_bend_c, 1, 8192
3, 82560, Note_off_c, 1, 77, 79
3, 82560, Note_on_c, 1, 68, 79
3, 82720, Pitch_bend_c, 1, 8192
3, 82880, Pitch_bend_c, 1, 8320
3, 83040, Pitch_bend_c, 1, 8192
3, 83040, Pitch_bend_c, 1, 8320
3, 83040, Pitch_bend_c, 1, 8192
3, 83040, Note_off_c, 1, 68, 79
3, 83040, Note_on_c, 1, 77, 79
3, 83200, Pitch_bend_c, 1, 8192
3, 83360, Pitch_bend_c, 1, 8320
3, 83520, Pitch_bend_c, 1, 8192
3, 83520, Pitch_bend_c, 1, 8320
3, 83520, Pitch_bend_c, 1, 8192
3, 83520, Note_off_c, 1, 77, 79
3, 83520, Note_on_c, 1, 68, 95
3, 83680, Pitch_bend_c, 1, 8192
3, 83840, Pitch_bend_c, 1, 8320
3, 84000, Pitch_bend_c, 1, 8192
3, 84000, Pitch_bend_c, 1, 8320
3, 84000, Pitch_bend_c, 1, 8192
3, 84000, Note_off_c, 1, 68, 95
3, 84000, Note_on_c, 1, 77, 79
3, 84160, Pitch_bend_c, 1, 8192
3, 84320, Pitch_bend_c, 1, 8320
3, 84480, Pitch_bend_c, 1, 8192
3, 84480, Pitch_bend_c, 1, 8320
3, 84480, Pitch_bend_c, 1, 8192
3, 84480, Note_off_c, 1, 77, 79
3, 84480, Note_on_c, 1, 68, 79
3, 84640, Pitch_bend_c, 1, 8192
3, 84800, Pitch_bend_c, 1, 8320
3, 84960, Pitch_bend_c, 1, 8192
3, 84960, Pitch_bend_c, 1, 8320
3, 84960, Pitch_bend_c, 1, 8192
3, 84960, Note_off_c, 1, 68, 79
3, 84960, Note_on_c, 1, 77, 79
3, 85120, Pitch_bend_c, 1, 8192
3, 85280, Pitch_bend_c, 1, 8320
3, 85440, Pitch_bend_c, 1, 8192
3, 85440, Pitch_bend_c, 1, 8320
3, 85440, Pitch_bend_c, 1, 8192
3, 85440, Note_off_c, 1, 77, 79
3, 85440, Note_on_c, 0, 68, 79
3, 85920, Note_off_c, 0, 68, 79
3, 85920, Note_on_c, 1, 77, 79
3, 86080, Pitch_bend_c, 1, 8192
3, 86080, Pitch_bend_c, 1, 8192
3, 86240, Note_off_c, 1, 77, 79
3, 86240, Note_on_c, 0, 79, 79
3, 86400, Note_off_c, 0, 79, 79
3, 86400, Note_on_c, 0, 79, 111
3, 86560, Note_off_c, 0, 79, 111
3, 86560, Note_on_c, 0, 78, 70
3, 86720, Note_off_c, 0, 78, 70
3, 86720, Note_on_c, 0, 77, 70
3, 86880, Note_off_c, 0, 77, 70
3, 86880, Note_on_c, 0, 74, 111
3, 87040, Note_off_c, 0, 74, 111
3, 87040, Note_on_c, 0, 73, 70
3, 87200, Note_off_c, 0, 73, 70
3, 87200, Note_on_c, 0, 72, 70
3, 87360, Note_off_c, 0, 72, 70
3, 87360, Note_on_c, 0, 70, 111
3, 87520, Note_off_c, 0, 70, 111
3, 87520, Note_on_c, 0, 69, 70
3, 87680, Note_off_c, 0, 69, 70
3, 87680, Note_on_c, 0, 68, 70
3, 87840, Note_off_c, 0, 68, 70
3, 87840, Note_on_c, 0, 79, 111
3, 88000, Note_off_c, 0, 79, 111
3, 88000, Note_on_c, 0, 78, 70
3, 88160, Note_off_c, 0, 78, 70
3, 88160, Note_on_c, 0, 77, 70
3, 88320, Note_off_c, 0, 77, 70
3, 88320, Note_on_c, 0, 74, 111
3, 88480, Note_off_c, 0, 74, 111
3, 88480, Note_on_c, 0, 73, 70
3, 88640, Note_off_c, 0, 73, 70
3, 88640, Note_on_c, 0, 72, 70
3, 88800, Note_off_c, 0, 72, 70
3, 88800, Note_on_c, 0, 70, 111
3, 88960, Note_off_c, 0, 70, 111
3, 88960, Note_on_c, 0, 69, 70
3, 89120, Note_off_c, 0, 69, 70
3, 89120, Note_on_c, 0, 68, 70
3, 89280, Note_off_c, 0, 68, 70
3, 89280, Note_on_c, 0, 79, 111
3, 89440, Note_off_c, 0, 79, 111
3, 89440, Note_on_c, 0, 78, 70
3, 89600, Note_off_c, 0, 78, 70
3, 89600, Note_on_c, 0, 77, 70
3, 89760, Note_off_c, 0, 77, 70
3, 89760, Note_on_c, 0, 74, 111
3, 89920, Note_off_c, 0, 74, 111
3, 89920, Note_on_c, 0, 73, 70
3, 90080, Note_off_c, 0, 73, 70
3, 90080, Note_on_c, 0, 72, 70
3, 90240, Note_off_c, 0, 72, 70
3, 90240, Note_on_c, 0, 70, 111
3, 90400, Note_off_c, 0, 70, 111
3, 90400, Note_on_c, 0, 69, 70
3, 90560, Note_off_c, 0, 69, 70
3, 90560, Note_on_c, 0, 68, 70
3, 90720, Note_off_c, 0, 68, 70
3, 90720, Note_on_c, 0, 79, 111
3, 90880, Note_off_c, 0, 79, 111
3, 90880, Note_on_c, 0, 78, 70
3, 91040, Note_off_c, 0, 78, 70
3, 91040, Note_on_c, 0, 77, 70
3, 91200, Note_off_c, 0, 77, 70
3, 91200, Note_on_c, 0, 74, 111
3, 91360, Note_off_c, 0, 74, 111
3, 91360, Note_on_c, 0, 73, 70
3, 91520, Note_off_c, 0, 73, 70
3, 91520, Note_on_c, 0, 72, 70
3, 91680, Note_off_c, 0, 72, 70
3, 91680, Note_on_c, 0, 70, 111
3, 91800, Note_off_c, 0, 70, 111
3, 91800, Note_on_c, 0, 68, 70
3, 91920, Note_off_c, 0, 68, 70
3, 91920, Note_on_c, 0, 54, 54
3, 92160, Note_off_c, 0, 54, 54
3, 92160, Pitch_bend_c, 1, 8192
3, 92160, Note_on_c, 1, 77, 111
3, 92181, Pitch_bend_c, 1, 8320
3, 92202, Pitch_bend_c, 1, 8448
3, 92223, Pitch_bend_c, 1, 8576
3, 92244, Pitch_bend_c, 1, 8704
3, 92265, Pitch_bend_c, 1, 8832
3, 92286, Pitch_bend_c, 1, 8960
3, 92307, Pitch_bend_c, 1, 9088
3, 92328, Pitch_bend_c, 1, 9216
3, 92349, Pitch_bend_c, 1, 9344
3, 92370, Pitch_bend_c, 1, 9472
3, 92391, Pitch_bend_c, 1, 9600
3, 92400, Pitch_bend_c, 1, 9600
3, 93120, Pitch_bend_c, 1, 9600
3, 93120, Pitch_bend_c, 1, 8192
3, 93120, Note_off_c, 1, 77, 111
3, 93120, Pitch_bend_c, 1, 8192
3, 93120, Note_on_c, 1, 77, 95
3, 93130, Pitch_bend_c, 1, 8320
3, 93140, Pitch_bend_c, 1, 8448
3, 93150, Pitch_bend_c, 1, 8576
3, 93160, Pitch_bend_c, 1, 8704
3, 93170, Pitch_bend_c, 1, 8832
3, 93180, Pitch_bend_c, 1, 8960
3, 93190, Pitch_bend_c, 1, 9088
3, 93200, Pitch_bend_c, 1, 9216
3, 93210, Pitch_bend_c, 1, 9344
3, 93220, Pitch_bend_c, 1, 9472
3, 93230, Pitch_bend_c, 1, 9600
3, 93240, Pitch_bend_c, 1, 9600
3, 93360, Pitch_bend_c, 1, 9600
3, 93360, Pitch_bend_c, 1, 8192
3, 93360, Note_off_c, 1, 77, 95
3, 93360, Note_on_c, 0, 77, 95
3, 93600, Note_off_c, 0, 77, 95
3, 93600, Note_on_c, 0, 75, 95
3, 93840, Note_off_c, 0, 75, 95
3, 93840, Note_on_c, 0, 77, 70
3, 93960, Note_off_c, 0, 77, 70
3, 93960, Note_on_c, 0, 75, 70
3, 94080, Note_off_c, 0, 75, 70
3, 94080, Note_on_c, 0, 72, 95
3, 94320, Note_off_c, 0, 72, 95
3, 94320, Note_on_c, 0, 75, 95
3, 94560, Note_off_c, 0, 75, 95
3, 94560, Note_on_c, 0, 77, 95
3, 94800, Note_off_c, 0, 77, 95
3, 94800, Note_on_c, 0, 75, 95
3, 94920, Note_on_c, 1, 70, 79
3, 95040, Note_off_c, 0, 75, 95
3, 95040, Note_on_c, 0, 75, 95
3, 95040, Note_off_c, 1, 70, 79
3, 95040, Note_on_c, 1, 72, 95
3, 95280, Note_on_c, 1, 70, 79
3, 95400, Note_off_c, 0, 75, 95
3, 95400, Note_off_c, 1, 72, 95
3, 95400, Note_on_c, 0, 75, 95
3, 95400, Note_off_c, 1, 70, 79
3, 95400, Note_on_c, 1, 72, 95
3, 95760, Note_off_c, 0, 75, 95
3, 95760, Note_off_c, 1, 72, 95
3, 95760, Note_on_c, 0, 70, 95
3, 95760, Note_on_c, 0, 65, 95
3, 95880, Note_off_c, 0, 70, 95
3, 95880, Note_off_c, 0, 65, 95
3, 95880, Note_on_c, 0, 66, 70
3, 96000, Note_off_c, 0, 66, 70
3, 96000, Note_on_c, 0, 65, 70
3, 96120, Note_off_c, 0, 65, 70
3, 96120, Note_on_c, 0, 63, 79
3, 96480, Note_off_c, 0, 63, 79
3, 96480, Note_on_c, 0, 61, 79
3, 97200, Note_off_c, 0, 61, 79
3, 97800, Note_on_c, 1, 65, 95
3, 97920, Note_off_c, 1, 65, 95
3, 97920, Note_on_c, 1, 67, 86
3, 98160, Note_off_c, 1, 67, 86
3, 98160, Note_on_c, 0, 70, 95
3, 98400, Note_off_c, 0, 70, 95
3, 98400, Note_on_c, 0, 75, 95
3, 98640, Note_off_c, 0, 75, 95
3, 98640, Pitch_bend_c, 1, 8192
3, 98640, Note_on_c, 1, 77, 111
3, 98661, Pitch_bend_c, 1, 8320
3, 98682, Pitch_bend_c, 1, 8448
3, 98703, Pitch_bend_c, 1, 8576
3, 98724, Pitch_bend_c, 1, 8704
3, 98745, Pitch_bend_c, 1, 8832
3, 98766, Pitch_bend_c, 1, 8960
3, 98787, Pitch_bend_c, 1, 9088
3, 98808, Pitch_bend_c, 1, 9216
3, 98829, Pitch_bend_c, 1, 9344
3, 98850, Pitch_bend_c, 1, 9472
3, 98871, Pitch_bend_c, 1, 9600
3, 98873, Pitch_bend_c, 1, 9600
3, 99200, Pitch_bend_c, 1, 9600
3, 99200, Pitch_bend_c, 1, 8192
3, 99200, Note_off_c, 1, 77, 111
3, 99200, Note_on_c, 0, 77, 95
3, 99360, Note_off_c, 0, 77, 95
3, 99360, Note_on_c, 0, 75, 95
3, 99540, Note_off_c, 0, 75, 95
3, 99540, Note_on_c, 0, 77, 70
3, 99720, Note_off_c, 0, 77, 70
3, 99720, Note_on_c, 0, 76, 70
3, 99900, Note_off_c, 0, 76, 70
3, 99900, Note_on_c, 0, 75, 70
3, 100080, Note_off_c, 0, 75, 70
3, 100080, Note_on_c, 0, 73, 95
3, 100260, Note_off_c, 0, 73, 95
3, 100260, Note_on_c, 0, 72, 70
3, 100440, Note_off_c, 0, 72, 70
3, 100440, Note_on_c, 0, 70, 70
3, 100680, Note_off_c, 0, 70, 70
3, 100680, Pitch_bend_c, 1, 8192
3, 100680, Note_on_c, 1, 72, 95
3, 100693, Pitch_bend_c, 1, 8320
3, 100706, Pitch_bend_c, 1, 8448
3, 100719, Pitch_bend_c, 1, 8576
3, 100732, Pitch_bend_c, 1, 8704
3, 100745, Pitch_bend_c, 1, 8832
3, 100758, Pitch_bend_c, 1, 8960
3, 100771, Pitch_bend_c, 1, 9088
3, 100784, Pitch_bend_c, 1, 9216
3, 100797, Pitch_bend_c, 1, 9344
3, 100810, Pitch_bend_c, 1, 9472
3, 100823, Pitch_bend_c, 1, 9600
3, 100830, Pitch_bend_c, 1, 9600
3, 101040, Pitch_bend_c, 1, 9600
3, 101040, Pitch_bend_c, 1, 8192
3, 101040, Note_off_c, 1, 72, 95
3, 101040, Note_on_c, 0, 72, 95
3, 101160, Note_off_c, 0, 72, 95
3, 101160, Note_on_c, 0, 70, 70
3, 101280, Note_off_c, 0, 70, 70
3, 101280, Note_on_c, 0, 72, 70
3, 101400, Note_off_c, 0, 72, 70
3, 101400, Note_on_c, 0, 70, 70
3, 101520, Note_off_c, 0, 70, 70
3, 101520, Note_on_c, 0, 68, 79
3, 101760, Note_off_c, 0, 68, 79
3, 102000, Note_on_c, 0, 68, 95
3, 102240, Note_off_c, 0, 68, 95
3, 102240, Pitch_bend_c, 1, 8192
3, 102240, Note_on_c, 1, 68, 95
3, 102288, Pitch_bend_c, 1, 8320
3, 102336, Pitch_bend_c, 1, 8448
3, 102384, Pitch_bend_c, 1, 8576
3, 102432, Pitch_bend_c, 1, 8704
3, 102480, Pitch_bend_c, 1, 8832
3, 102480, Pitch_bend_c, 1, 8832
3, 102720, Pitch_bend_c, 1, 8832
3, 102720, Pitch_bend_c, 1, 8192
3, 102720, Note_off_c, 1, 68, 95
3, 102960, Pitch_bend_c, 1, 8192
3, 102960, Note_on_c, 1, 68, 95
3, 103008, Pitch_bend_c, 1, 8320
3, 103056, Pitch_bend_c, 1, 8448
3, 103104, Pitch_bend_c, 1, 8576
3, 103152, Pitch_bend_c, 1, 8704
3, 103200, Pitch_bend_c, 1, 8832
3, 103200, Pitch_bend_c, 1, 8832
3, 103440, Pitch_bend_c, 1, 8832
3, 103440, Pitch_bend_c, 1, 8192
3, 103440, Note_off_c, 1, 68, 95
3, 103440, Note_on_c, 0, 70, 95
3, 103440, Pitch_bend_c, 1, 8192
3, 103440, Note_on_c, 1, 68, 95
3, 103461, Pitch_bend_c, 1, 8320
3, 103482, Pitch_bend_c, 1, 8448
3, 103503, Pitch_bend_c, 1, 8576
3, 103524, Pitch_bend_c, 1, 8704
3, 103545, Pitch_bend_c, 1, 8832
3, 103566, Pitch_bend_c, 1, 8960
3, 103587, Pitch_bend_c, 1, 9088
3, 103608, Pitch_bend_c, 1, 9216
3, 103629, Pitch_bend_c, 1, 9344
3, 103650, Pitch_bend_c, 1, 9472
3, 103671, Pitch_bend_c, 1, 9600
3, 103680, Pitch_bend_c, 1, 9600
3, 103920, Note_off_c, 0, 70, 95
3, 103920, Pitch_bend_c, 1, 9600
3, 103920, Pitch_bend_c, 1, 8192
3, 103920, Note_off_c, 1, 68, 95
3, 103920, Note_on_c, 0, 70, 95
3, 103920, Pitch_bend_c, 1, 8192
3, 103920, Note_on_c, 1, 68, 95
3, 103930, Pitch_bend_c, 1, 8320
3, 103940, Pitch_bend_c, 1, 8448
3, 103950, Pitch_bend_c, 1, 8576
3, 103960, Pitch_bend_c, 1, 8704
3, 103970, Pitch_bend_c, 1, 8832
3, 103980, Pitch_bend_c, 1, 8960
3, 103990, Pitch_bend_c, 1, 9088
3, 104000, Pitch_bend_c, 1, 9216
3, 104010, Pitch_bend_c, 1, 9344
3, 104020, Pitch_bend_c, 1, 9472
3, 104030, Pitch_bend_c, 1, 9600
3, 104040, Pitch_bend_c, 1, 9600
3, 104160, Note_off_c, 0, 70, 95
3, 104160, Pitch_bend_c, 1, 9600
3, 104160, Pitch_bend_c, 1, 8192
3, 104160, Note_off_c, 1, 68, 95
3, 104160, Pitch_bend_c, 1, 8192
3, 104160, Note_on_c, 1, 68, 95
3, 104170, Pitch_bend_c, 1, 8320
3, 104180, Pitch_bend_c, 1, 8448
3, 104190, Pitch_bend_c, 1, 8576
3, 104200, Pitch_bend_c, 1, 8704
3, 104210, Pitch_bend_c, 1, 8832
3, 104220, Pitch_bend_c, 1, 8960
3, 104230, Pitch_bend_c, 1, 9088
3, 104240, Pitch_bend_c, 1, 9216
3, 104250, Pitch_bend_c, 1, 9344
3, 104260, Pitch_bend_c, 1, 9472
3, 104270, Pitch_bend_c, 1, 9600
3, 104280, Pitch_bend_c, 1, 9600
3, 104400, Pitch_bend_c, 1, 9600
3, 104400, Pitch_bend_c, 1, 8192
3, 104400, Note_off_c, 1, 68, 95
3, 104400, Note_on_c, 0, 54, 95
3, 104442, Note_off_c, 0, 54, 95
3, 105480, Pitch_bend_c, 1, 8192
3, 105480, Note_on_c, 1, 68, 95
3, 105496, Pitch_bend_c, 1, 8320
3, 105512, Pitch_bend_c, 1, 8448
3, 105528, Pitch_bend_c, 1, 8576
3, 105544, Pitch_bend_c, 1, 8704
3, 105560, Pitch_bend_c, 1, 8832
3, 105576, Pitch_bend_c, 1, 8960
3, 105592, Pitch_bend_c, 1, 9088
3, 105608, Pitch_bend_c, 1, 9216
3, 105624, Pitch_bend_c, 1, 9344
3, 105640, Pitch_bend_c, 1, 9472
3, 105656, Pitch_bend_c, 1, 9600
3, 105660, Pitch_bend_c, 1, 9600
3, 105840, Pitch_bend_c, 1, 9600
3, 105840, Pitch_bend_c, 1, 8192
3, 105840, Note_off_c, 1, 68, 95
3, 105840, Pitch_bend_c, 1, 8192
3, 105840, Note_on_c, 1, 68, 95
3, 105856, Pitch_bend_c, 1, 8320
3, 105872, Pitch_bend_c, 1, 8448
3, 105888, Pitch_bend_c, 1, 8576
3, 105904, Pitch_bend_c, 1, 8704
3, 105920, Pitch_bend_c, 1, 8832
3, 105936, Pitch_bend_c, 1, 8960
3, 105952, Pitch_bend_c, 1, 9088
3, 105968, Pitch_bend_c, 1, 9216
3, 105984, Pitch_bend_c, 1, 9344
3, 106000, Pitch_bend_c, 1, 9472
3, 106016, Pitch_bend_c, 1, 9600
3, 106020, Pitch_bend_c, 1, 9600
3, 106200, Pitch_bend_c, 1, 9600
3, 106200, Pitch_bend_c, 1, 8192
3, 106200, Note_off_c, 1, 68, 95
3, 106200, Note_on_c, 1, 68, 95
3, 106360, Pitch_bend_c, 1, 8192
3, 106520, Pitch_bend_c, 1, 8320
3, 106680, Pitch_bend_c, 1, 8192
3, 106840, Pitch_bend_c, 1, 8320
3, 107000, Pitch_bend_c, 1, 8192
3, 107160, Pitch_bend_c, 1, 8320
3, 107280, Pitch_bend_c, 1, 8192
3, 107280, Pitch_bend_c, 1, 8320
3, 107280, Pitch_bend_c, 1, 8192
3, 107280, Note_off_c, 1, 68, 95
3, 107280, Note_on_c, 0, 54, 95
3, 107322, Note_off_c, 0, 54, 95
3, 109120, Pitch_bend_c, 1, 8192
3, 109120, Note_on_c, 1, 68, 95
3, 109134, Pitch_bend_c, 1, 8320
3, 109148, Pitch_bend_c, 1, 8448
3, 109162, Pitch_bend_c, 1, 8576
3, 109176, Pitch_bend_c, 1, 8704
3, 109190, Pitch_bend_c, 1, 8832
3, 109204, Pitch_bend_c, 1, 8960
3, 109218, Pitch_bend_c, 1, 9088
3, 109232, Pitch_bend_c, 1, 9216
3, 109246, Pitch_bend_c, 1, 9344
3, 109260, Pitch_bend_c, 1, 9472
3, 109274, Pitch_bend_c, 1, 9600
3, 109280, Pitch_bend_c, 1, 9600
3, 109440, Pitch_bend_c, 1, 9600
3, 109440, Pitch_bend_c, 1, 8192
3, 109440, Note_off_c, 1, 68, 95
3, 109440, Pitch_bend_c, 1, 8192
3, 109440, Note_on_c, 1, 68, 111
3, 109450, Pitch_bend_c, 1, 8320
3, 109460, Pitch_bend_c, 1, 8448
3, 109470, Pitch_bend_c, 1, 8576
3, 109480, Pitch_bend_c, 1, 8704
3, 109490, Pitch_bend_c, 1, 8832
3, 109500, Pitch_bend_c, 1, 8960
3, 109510, Pitch_bend_c, 1, 9088
3, 109520, Pitch_bend_c, 1, 9216
3, 109530, Pitch_bend_c, 1, 9344
3, 109540, Pitch_bend_c, 1, 9472
3, 109550, Pitch_bend_c, 1, 9600
3, 109560, Pitch_bend_c, 1, 9600
3, 109680, Pitch_bend_c, 1, 9600
3, 109680, Pitch_bend_c, 1, 8192
3, 109680, Note_off_c, 1, 68, 111
3, 109680, Note_on_c, 1, 68, 111
3, 109840, Pitch_bend_c, 1, 8192
3, 110000, Pitch_bend_c, 1, 8320
3, 110160, Pitch_bend_c, 1, 8192
3, 110320, Pitch_bend_c, 1, 8320
3, 110400, Pitch_bend_c, 1, 8192
3, 110400, Pitch_bend_c, 1, 8320
3, 110400, Pitch_bend_c, 1, 8192
3, 110400, Note_off_c, 1, 68, 111
3, 110400, Pitch_bend_c, 1, 9600
3, 110400, Note_on_c, 1, 63, 95
3, 110520, Pitch_bend_c, 1, 9600
3, 110540, Pitch_bend_c, 1, 9472
3, 110560, Pitch_bend_c, 1, 9344
3, 110580, Pitch_bend_c, 1, 9216
3, 110600, Pitch_bend_c, 1, 9088
3, 110620, Pitch_bend_c, 1, 8960
3, 110640, Pitch_bend_c, 1, 8832
3, 110640, Pitch_bend_c, 1, 8832
3, 110688, Pitch_bend_c, 1, 8704
3, 110736, Pitch_bend_c, 1, 8576
3, 110784, Pitch_bend_c, 1, 8448
3, 110832, Pitch_bend_c, 1, 8320
3, 110880, Pitch_bend_c, 1, 8192
3, 110880, Pitch_bend_c, 1, 8192
3, 111120, Pitch_bend_c, 1, 8192
3, 111120, Pitch_bend_c, 1, 8192
3, 111120, Note_off_c, 1, 63, 95
3, 111120, Note_on_c, 0, 61, 95
3, 111360, Note_off_c, 0, 61, 95
3, 111360, Pitch_bend_c, 1, 8192
3, 111360, Note_on_c, 1, 63, 111
3, 111378, Pitch_bend_c, 1, 8320
3, 111396, Pitch_bend_c, 1, 8448
3, 111414, Pitch_bend_c, 1, 8576
3, 111432, Pitch_bend_c, 1, 8704
3, 111450, Pitch_bend_c, 1, 8832
3, 111468, Pitch_bend_c, 1, 8960
3, 111486, Pitch_bend_c, 1, 9088
3, 111504, Pitch_bend_c, 1, 9216
3, 111522, Pitch_bend_c, 1, 9344
3, 111540, Pitch_bend_c, 1, 9472
3, 111558, Pitch_bend_c, 1, 9600
3, 111576, Pitch_bend_c, 1, 9728
3, 111594, Pitch_bend_c, 1, 9856
3, 111600, Pitch_bend_c, 1, 9856
3, 111840, Pitch_bend_c, 1, 9856
3, 111840, Pitch_bend_c, 1, 8192
3, 111840, Note_off_c, 1, 63, 111
3, 111840, Note_on_c, 1, 61, 111
3, 112000, Pitch_bend_c, 1, 8192
3, 112160, Pitch_bend_c, 1, 8320
3, 112320, Pitch_bend_c, 1, 8192
3, 112480, Pitch_bend_c, 1, 8320
3, 112640, Pitch_bend_c, 1, 8192
3, 112800, Pitch_bend_c, 1, 8320
3, 112800, Pitch_bend_c, 1, 8192
3, 112800, Note_off_c, 1, 61, 111
3, 112800, Note_on_c, 0, 54, 79
3, 112842, Note_off_c, 0, 54, 79
3, 113760, Pitch_bend_c, 1, 8192
3, 113760, Note_on_c, 1, 63, 111
3, 113789, Pitch_bend_c, 1, 8320
3, 113818, Pitch_bend_c, 1, 8448
3, 113847, Pitch_bend_c, 1, 8576
3, 113876, Pitch_bend_c, 1, 8704
3, 113905, Pitch_bend_c, 1, 8832
3, 113934, Pitch_bend_c, 1, 8960
3, 113963, Pitch_bend_c, 1, 9088
3, 113992, Pitch_bend_c, 1, 9216
3, 114021, Pitch_bend_c, 1, 9344
3, 114050, Pitch_bend_c, 1, 9472
3, 114079, Pitch_bend_c, 1, 9600
3, 114080, Pitch_bend_c, 1, 9600
3, 114720, Pitch_bend_c, 1, 9600
3, 114720, Pitch_bend_c, 1, 8192
3, 114720, Note_off_c, 1, 63, 111
3, 114720, Note_on_c, 0, 65, 95
3, 115200, Note_off_c, 0, 65, 95
3, 115200, Note_on_c, 0, 70, 111
3, 115440, Note_off_c, 0, 70, 111
3, 115440, Note_on_c, 0, 68, 95
3, 115560, Note_off_c, 0, 68, 95
3, 115560, Note_on_c, 0, 65, 95
3, 115680, Note_off_c, 0, 65, 95
3, 115680, Note_on_c, 0, 72, 111
3, 115840, Note_off_c, 0, 72, 111
3, 115840, Note_on_c, 0, 70, 95
3, 116000, Note_off_c, 0, 70, 95
3, 116000, Note_on_c, 0, 65, 95
3, 116160, Note_off_c, 0, 65, 95
3, 116160, Note_on_c, 0, 68, 95
3, 116400, Note_off_c, 0, 68, 95
3, 116400, Note_on_c, 0, 65, 95
3, 116520, Note_off_c, 0, 65, 95
3, 116520, Note_on_c, 0, 67, 70
3, 116640, Note_off_c, 0, 67, 70
3, 116640, Note_on_c, 0, 65, 70
3, 116880, Note_off_c, 0, 65, 70
3, 116880, Pitch_bend_c, 1, 8192
3, 116880, Note_on_c, 1, 63, 95
3, 116940, Pitch_bend_c, 1, 8320
3, 117000, Pitch_bend_c, 1, 8448
3, 117000, Pitch_bend_c, 1, 8448
3, 117120, Pitch_bend_c, 1, 8448
3, 117120, Pitch_bend_c, 1, 8192
3, 117120, Note_off_c, 1, 63, 95
3, 117120, Note_on_c, 0, 65, 95
3, 117360, Note_off_c, 0, 65, 95
3, 117360, Note_on_c, 1, 66, 95
3, 117480, Pitch_bend_c, 1, 8832
3, 117480, Pitch_bend_c, 1, 8192
3, 117480, Note_off_c, 1, 66, 95
3, 117480, Note_on_c, 1, 67, 95
3, 117600, Pitch_bend_c, 1, 9600
3, 117600, Pitch_bend_c, 1, 8192
3, 117600, Note_off_c, 1, 67, 95
3, 117600, Note_on_c, 0, 69, 95
3, 117840, Note_off_c, 0, 69, 95
3, 117840, Note_on_c, 0, 72, 95
3, 118080, Note_off_c, 0, 72, 95
3, 118080, Note_on_c, 0, 74, 111
3, 118320, Note_off_c, 0, 74, 111
3, 118560, Pitch_bend_c, 1, 8192
3, 118560, Note_on_c, 1, 74, 95
3, 118592, Pitch_bend_c, 1, 8320
3, 118624, Pitch_bend_c, 1, 8448
3, 118656, Pitch_bend_c, 1, 8576
3, 118688, Pitch_bend_c, 1, 8704
3, 118720, Pitch_bend_c, 1, 8832
3, 118720, Pitch_bend_c, 1, 8832
3, 118880, Pitch_bend_c, 1, 8832
3, 118880, Pitch_bend_c, 1, 8192
3, 118880, Note_off_c, 1, 74, 95
3, 118880, Note_on_c, 0, 74, 95
3, 119040, Note_off_c, 0, 74, 95
3, 119040, Note_on_c, 0, 72, 95
3, 119200, Note_off_c, 0, 72, 95
3, 119200, Note_on_c, 0, 69, 95
3, 119360, Note_off_c, 0, 69, 95
3, 119360, Note_on_c, 0, 67, 95
3, 119520, Note_off_c, 0, 67, 95
3, 119520, Note_on_c, 0, 65, 95
3, 119680, Note_off_c, 0, 65, 95
3, 119680, Note_on_c, 0, 64, 95
3, 119840, Note_off_c, 0, 64, 95
3, 119840, Note_on_c, 1, 63, 111
3, 120000, Pitch_bend_c, 1, 8192
3, 120160, Pitch_bend_c, 1, 8320
3, 120320, Pitch_bend_c, 1, 8192
3, 120480, Pitch_bend_c, 1, 8320
3, 120640, Pitch_bend_c, 1, 8192
3, 120800, Pitch_bend_c, 1, 8320
3, 120960, Pitch_bend_c, 1, 8192
3, 120960, Pitch_bend_c, 1, 8320
3, 120960, Pitch_bend_c, 1, 8192
3, 120960, Note_off_c, 1, 63, 111
3, 121800, Note_on_c, 1, 65, 79
3, 121920, Note_off_c, 1, 65, 79
3, 121920, Note_on_c, 1, 67, 95
3, 121920, Note_on_c, 0, 49, 79
3, 122160, Note_off_c, 1, 67, 95
3, 122160, Note_off_c, 0, 49, 79
3, 122160, Note_on_c, 0, 70, 95
3, 122400, Note_off_c, 0, 70, 95
3, 122400, Pitch_bend_c, 1, 8192
3, 122400, Note_on_c, 1, 73, 95
3, 122410, Pitch_bend_c, 1, 8320
3, 122420, Pitch_bend_c, 1, 8448
3, 122430, Pitch_bend_c, 1, 8576
3, 122440, Pitch_bend_c, 1, 8704
3, 122450, Pitch_bend_c, 1, 8832
3, 122460, Pitch_bend_c, 1, 8960
3, 122470, Pitch_bend_c, 1, 9088
3, 122480, Pitch_bend_c, 1, 9216
3, 122490, Pitch_bend_c, 1, 9344
3, 122500, Pitch_bend_c, 1, 9472
3, 122510, Pitch_bend_c, 1, 9600
3, 122520, Pitch_bend_c, 1, 9728
3, 122530, Pitch_bend_c, 1, 9856
3, 122540, Pitch_bend_c, 1, 9984
3, 122550, Pitch_bend_c, 1, 10112
3, 122560, Pitch_bend_c, 1, 10240
3, 122570, Pitch_bend_c, 1, 10368
3, 122580, Pitch_bend_c, 1, 10496
3, 122590, Pitch_bend_c, 1, 10624
3, 122600, Pitch_bend_c, 1, 10752
3, 122610, Pitch_bend_c, 1, 10880
3, 122620, Pitch_bend_c, 1, 11008
3, 122640, Pitch_bend_c, 1, 11008
3, 122880, Pitch_bend_c, 1, 11008
3, 122880, Pitch_bend_c, 1, 8192
3, 122880, Note_off_c, 1, 73, 95
3, 122880, Pitch_bend_c, 1, 8192
3, 122880, Note_on_c, 1, 73, 95
3, 122901, Pitch_bend_c, 1, 8320
3, 122922, Pitch_bend_c, 1, 8448
3, 122943, Pitch_bend_c, 1, 8576
3, 122964, Pitch_bend_c, 1, 8704
3, 122985, Pitch_bend_c, 1, 8832
3, 123006, Pitch_bend_c, 1, 8960
3, 123027, Pitch_bend_c, 1, 9088
3, 123048, Pitch_bend_c, 1, 9216
3, 123069, Pitch_bend_c, 1, 9344
3, 123090, Pitch_bend_c, 1, 9472
3, 123111, Pitch_bend_c, 1, 9600
3, 123120, Pitch_bend_c, 1, 9600
3, 123840, Pitch_bend_c, 1, 9600
3, 123840, Pitch_bend_c, 1, 8192
3, 123840, Note_off_c, 1, 73, 95
3, 123840, Note_on_c, 0, 73, 95
3, 124080, Note_off_c, 0, 73, 95
3, 124080, Note_on_c, 0, 70, 95
3, 124320, Note_off_c, 0, 70, 95
3, 124320, Note_on_c, 0, 73, 95
3, 124560, Note_off_c, 0, 73, 95
3, 124560, Note_on_c, 1, 70, 95
3, 124720, Pitch_bend_c, 1, 8192
3, 124880, Pitch_bend_c, 1, 8320
3, 125040, Pitch_bend_c, 1, 8192
3, 125200, Pitch_bend_c, 1, 8320
3, 125280, Pitch_bend_c, 1, 8192
3, 125280, Pitch_bend_c, 1, 8320
3, 125280, Pitch_bend_c, 1, 8192
3, 125280, Note_off_c, 1, 70, 95
3, 125280, Note_on_c, 0, 68, 95
3, 125520, Note_off_c, 0, 68, 95
3, 125520, Note_on_c, 0, 70, 95
3, 125760, Note_off_c, 0, 70, 95
3, 125760, Pitch_bend_c, 1, 8192
3, 125760, Note_on_c, 1, 68, 95
3, 125880, Pitch_bend_c, 1, 8320
3, 126000, Pitch_bend_c, 1, 8448
3, 126000, Pitch_bend_c, 1, 8448
3, 126240, Pitch_bend_c, 1, 8448
3, 126240, Pitch_bend_c, 1, 8192
3, 126240, Note_off_c, 1, 68, 95
3, 126240, Note_on_c, 1, 64, 95
3, 126400, Pitch_bend_c, 1, 8192
3, 126400, Pitch_bend_c, 1, 8192
3, 126560, Note_off_c, 1, 64, 95
3, 126560, Note_on_c, 1, 63, 95
3, 126720, Pitch_bend_c, 1, 6784
3, 126720, Pitch_bend_c, 1, 8192
3, 126720, Note_off_c, 1, 63, 95
3, 126720, Note_on_c, 0, 61, 95
3, 126880, Note_off_c, 0, 61, 95
3, 126880, Note_on_c, 0, 58, 95
3, 127040, Note_off_c, 0, 58, 95
3, 127040, Note_on_c, 0, 63, 95
3, 127200, Note_off_c, 0, 63, 95
3, 127200, Note_on_c, 0, 61, 95
3, 127320, Note_on_c, 1, 49, 79
3, 127440, Note_off_c, 0, 61, 95
3, 127440, Note_off_c, 1, 49, 79
3, 127440, Note_on_c, 1, 58, 95
3, 127560, Note_off_c, 1, 58, 95
3, 127560, Note_on_c, 0, 56, 70
3, 127680, Note_off_c, 0, 56, 70
3, 127680, Note_on_c, 0, 46, 79
3, 127920, Note_off_c, 0, 46, 79
3, 127920, Note_on_c, 0, 58, 95
3, 128160, Note_off_c, 0, 58, 95
3, 129120, Note_on_c, 0, 53, 95
3, 129280, Note_off_c, 0, 53, 95
3, 129280, Note_on_c, 0, 56, 95
3, 129440, Note_off_c, 0, 56, 95
3, 129440, Note_on_c, 0, 58, 95
3, 129600, Note_off_c, 0, 58, 95
3, 129600, Note_on_c, 1, 58, 111
3, 129760, Pitch_bend_c, 1, 8192
3, 129920, Pitch_bend_c, 1, 8320
3, 130080, Pitch_bend_c, 1, 8192
3, 130240, Pitch_bend_c, 1, 8320
3, 130320, Pitch_bend_c, 1, 8192
3, 130320, Pitch_bend_c, 1, 8320
3, 130320, Pitch_bend_c, 1, 8192
3, 130320, Note_off_c, 1, 58, 111
3, 130320, Note_on_c, 0, 61, 95
3, 130440, Note_off_c, 0, 61, 95
3, 130440, Note_on_c, 0, 58, 95
3, 130560, Note_off_c, 0, 58, 95
3, 130560, Note_on_c, 0, 56, 70
3, 130680, Note_off_c, 0, 56, 70
3, 130680, Note_on_c, 0, 53, 95
3, 130800, Note_off_c, 0, 53, 95
3, 130800, Note_on_c, 0, 51, 54
3, 131040, Note_off_c, 0, 51, 54
3, 131640, Note_on_c, 1, 64, 79
3, 131760, Note_off_c, 1, 64, 79
3, 131760, Note_on_c, 1, 65, 95
3, 132000, Note_off_c, 1, 65, 95
3, 132000, Note_on_c, 0, 70, 95
3, 132240, Note_off_c, 0, 70, 95
3, 132240, Note_on_c, 0, 73, 95
3, 132480, Note_off_c, 0, 73, 95
3, 132480, Note_on_c, 0, 70, 111
3, 132960, Note_off_c, 0, 70, 111
3, 132960, Note_on_c, 0, 63, 95
3, 133200, Note_off_c, 0, 63, 95
3, 133200, Note_on_c, 0, 72, 95
3, 133440, Note_off_c, 0, 72, 95
3, 133440, Note_on_c, 0, 61, 95
3, 133680, Note_off_c, 0, 61, 95
3, 133680, Note_on_c, 1, 70, 111
3, 133840, Pitch_bend_c, 1, 8192
3, 134000, Pitch_bend_c, 1, 8320
3, 134160, Pitch_bend_c, 1, 8192
3, 134320, Pitch_bend_c, 1, 8320
3, 134400, Pitch_bend_c, 1, 8192
3, 134400, Pitch_bend_c, 1, 8320
3, 134400, Pitch_bend_c, 1, 8192
3, 134400, Note_off_c, 1, 70, 111
3, 134520, Note_on_c, 1, 64, 79
3, 134640, Note_off_c, 1, 64, 79
3, 134640, Note_on_c, 1, 65, 95
3, 134880, Note_off_c, 1, 65, 95
3, 134880, Note_on_c, 0, 70, 95
3, 135040, Note_off_c, 0, 70, 95
3, 135040, Note_on_c, 0, 68, 95
3, 135120, Note_off_c, 0, 68, 95
3, 135120, Note_on_c, 0, 67, 70
3, 135200, Note_off_c, 0, 67, 70
3, 135200, Note_on_c, 0, 65, 70
3, 135280, Note_off_c, 0, 65, 70
3, 135280, Note_on_c, 0, 63, 95
3, 135360, Note_off_c, 0, 63, 95
3, 135360, Pitch_bend_c, 1, 8192
3, 135360, Note_on_c, 1, 61, 111
3, 135440, Pitch_bend_c, 1, 8320
3, 135520, Pitch_bend_c, 1, 8448
3, 135520, Pitch_bend_c, 1, 8448
3, 135680, Pitch_bend_c, 1, 8448
3, 135680, Pitch_bend_c, 1, 8192
3, 135680, Note_off_c, 1, 61, 111
3, 135680, Note_on_c, 0, 58, 95
3, 136000, Note_off_c, 0, 58, 95
3, 136000, Note_on_c, 1, 53, 111
3, 136160, Pitch_bend_c, 1, 8192
3, 136320, Pitch_bend_c, 1, 8320
3, 136320, Pitch_bend_c, 1, 8192
3, 136320, Note_off_c, 1, 53, 111
3, 136320, Note_on_c, 0, 51, 54
3, 136560, Note_off_c, 0, 51, 54
3, 137280, Pitch_bend_c, 1, 8192
3, 137280, Note_on_c, 1, 63, 111
3, 137323, Pitch_bend_c, 1, 8320
3, 137366, Pitch_bend_c, 1, 8448
3, 137409, Pitch_bend_c, 1, 8576
3, 137452, Pitch_bend_c, 1, 8704
3, 137495, Pitch_bend_c, 1, 8832
3, 137538, Pitch_bend_c, 1, 8960
3, 137581, Pitch_bend_c, 1, 9088
3, 137624, Pitch_bend_c, 1, 9216
3, 137667, Pitch_bend_c, 1, 9344
3, 137710, Pitch_bend_c, 1, 9472
3, 137753, Pitch_bend_c, 1, 9600
3, 137760, Pitch_bend_c, 1, 9600
3, 138240, Pitch_bend_c, 1, 9600
3, 138240, Pitch_bend_c, 1, 8192
3, 138240, Note_off_c, 1, 63, 111
3, 138240, Pitch_bend_c, 1, 8192
3, 138240, Note_on_c, 1, 63, 111
3, 138242, Pitch_bend_c, 1, 8320
3, 138244, Pitch_bend_c, 1, 8448
3, 138246, Pitch_bend_c, 1, 8576
3, 138248, Pitch_bend_c, 1, 8704
3, 138250, Pitch_bend_c, 1, 8832
3, 138252, Pitch_bend_c, 1, 8960
3, 138254, Pitch_bend_c, 1, 9088
3, 138256, Pitch_bend_c, 1, 9216
3, 138258, Pitch_bend_c, 1, 9344
3, 138260, Pitch_bend_c, 1, 9472
3, 138262, Pitch_bend_c, 1, 9600
3, 138270, Pitch_bend_c, 1, 9600
3, 138300, Pitch_bend_c, 1, 9600
3, 138305, Pitch_bend_c, 1, 9472
3, 138310, Pitch_bend_c, 1, 9344
3, 138315, Pitch_bend_c, 1, 9216
3, 138320, Pitch_bend_c, 1, 9088
3, 138325, Pitch_bend_c, 1, 8960
3, 138330, Pitch_bend_c, 1, 8832
3, 138335, Pitch_bend_c, 1, 8704
3, 138340, Pitch_bend_c, 1, 8576
3, 138345, Pitch_bend_c, 1, 8448
3, 138350, Pitch_bend_c, 1, 8320
3, 138355, Pitch_bend_c, 1, 8192
3, 138360, Pitch_bend_c, 1, 8192
3, 138360, Pitch_bend_c, 1, 8192
3, 138360, Note_off_c, 1, 63, 111
3, 138360, Note_on_c, 0, 63, 63
3, 138480, Note_off_c, 0, 63, 63
3, 138480, Note_on_c, 0, 61, 70
3, 138600, Note_off_c, 0, 61, 70
3, 138600, Note_on_c, 0, 58, 95
3, 138720, Note_off_c, 0, 58, 95
3, 138720, Note_on_c, 0, 61, 111
3, 139040, Note_off_c, 0, 61, 111
3, 139040, Note_on_c, 0, 58, 95
3, 139200, Note_off_c, 0, 58, 95
3, 139200, Note_on_c, 1, 56, 54
3, 139360, Pitch_bend_c, 1, 8192
3, 139520, Pitch_bend_c, 1, 8320
3, 139680, Pitch_bend_c, 1, 8192
3, 139840, Pitch_bend_c, 1, 8320
3, 140000, Pitch_bend_c, 1, 8192
3, 140160, Pitch_bend_c, 1, 8320
3, 140320, Pitch_bend_c, 1, 8192
3, 140480, Pitch_bend_c, 1, 8320
3, 140640, Pitch_bend_c, 1, 8192
3, 140800, Pitch_bend_c, 1, 8320
3, 140960, Pitch_bend_c, 1, 8192
3, 141120, Pitch_bend_c, 1, 8320
3, 141280, Pitch_bend_c, 1, 8192
3, 141440, Pitch_bend_c, 1, 8320
3, 141600, Pitch_bend_c, 1, 8192
3, 141600, Pitch_bend_c, 1, 8320
3, 141600, Pitch_bend_c, 1, 8192
3, 141600, Note_off_c, 1, 56, 54
3, 143280, Pitch_bend_c, 1, 8192
3, 143280, Note_on_c, 1, 63, 111
3, 143301, Pitch_bend_c, 1, 8320
3, 143322, Pitch_bend_c, 1, 8448
3, 143343, Pitch_bend_c, 1, 8576
3, 143364, Pitch_bend_c, 1, 8704
3, 143385, Pitch_bend_c, 1, 8832
3, 143406, Pitch_bend_c, 1, 8960
3, 143427, Pitch_bend_c, 1, 9088
3, 143448, Pitch_bend_c, 1, 9216
3, 143469, Pitch_bend_c, 1, 9344
3, 143490, Pitch_bend_c, 1, 9472
3, 143511, Pitch_bend_c, 1, 9600
3, 143520, Pitch_bend_c, 1, 9600
3, 144000, Pitch_bend_c, 1, 9600
3, 144000, Pitch_bend_c, 1, 8192
3, 144000, Note_off_c, 1, 63, 111
3, 144000, Pitch_bend_c, 1, 8192
3, 144000, Note_on_c, 1, 61, 95
3, 144054, Pitch_bend_c, 1, 8320
3, 144108, Pitch_bend_c, 1, 8448
3, 144162, Pitch_bend_c, 1, 8576
3, 144216, Pitch_bend_c, 1, 8704
3, 144270, Pitch_bend_c, 1, 8832
3, 144324, Pitch_bend_c, 1, 8960
3, 144378, Pitch_bend_c, 1, 9088
3, 144432, Pitch_bend_c, 1, 9216
3, 144486, Pitch_bend_c, 1, 9344
3, 144540, Pitch_bend_c, 1, 9472
3, 144594, Pitch_bend_c, 1, 9600
3, 144600, Pitch_bend_c, 1, 9600
3, 144900, Pitch_bend_c, 1, 9600
3, 144954, Pitch_bend_c, 1, 9472
3, 145008, Pitch_bend_c, 1, 9344
3, 145062, Pitch_bend_c, 1, 9216
3, 145116, Pitch_bend_c, 1, 9088
3, 145170, Pitch_bend_c, 1, 8960
3, 145224, Pitch_bend_c, 1, 8832
3, 145278, Pitch_bend_c, 1, 8704
3, 145332, Pitch_bend_c, 1, 8576
3, 145386, Pitch_bend_c, 1, 8448
3, 145440, Pitch_bend_c, 1, 8320
3, 145494, Pitch_bend_c, 1, 8192
3, 145500, Pitch_bend_c, 1, 8192
3, 145554, Pitch_bend_c, 1, 8320
3, 145608, Pitch_bend_c, 1, 8448
3, 145662, Pitch_bend_c, 1, 8576
3, 145716, Pitch_bend_c, 1, 8704
3, 145770, Pitch_bend_c, 1, 8832
3, 145824, Pitch_bend_c, 1, 8960
3, 145878, Pitch_bend_c, 1, 9088
3, 145932, Pitch_bend_c, 1, 9216
3, 145986, Pitch_bend_c, 1, 9344
3, 146040, Pitch_bend_c, 1, 9472
3, 146094, Pitch_bend_c, 1, 9600
3, 146100, Pitch_bend_c, 1, 9600
3, 146400, Pitch_bend_c, 1, 9600
3, 146454, Pitch_bend_c, 1, 9472
3, 146508, Pitch_bend_c, 1, 9344
3, 146562, Pitch_bend_c, 1, 9216
3, 146616, Pitch_bend_c, 1, 9088
3, 146670, Pitch_bend_c, 1, 8960
3, 146724, Pitch_bend_c, 1, 8832
3, 146778, Pitch_bend_c, 1, 8704
3, 146832, Pitch_bend_c, 1, 8576
3, 146886, Pitch_bend_c, 1, 8448
3, 146940, Pitch_bend_c, 1, 8320
3, 146994, Pitch_bend_c, 1, 8192
3, 147000, Pitch_bend_c, 1, 8192
3, 147027, Pitch_bend_c, 1, 8320
3, 147054, Pitch_bend_c, 1, 8448
3, 147081, Pitch_bend_c, 1, 8576
3, 147108, Pitch_bend_c, 1, 8704
3, 147135, Pitch_bend_c, 1, 8832
3, 147162, Pitch_bend_c, 1, 8960
3, 147189, Pitch_bend_c, 1, 9088
3, 147216, Pitch_bend_c, 1, 9216
3, 147243, Pitch_bend_c, 1, 9344
3, 147270, Pitch_bend_c, 1, 9472
3, 147297, Pitch_bend_c, 1, 9600
3, 147300, Pitch_bend_c, 1, 9600
3, 147600, Pitch_bend_c, 1, 9600
3, 147600, Pitch_bend_c, 1, 8192
3, 147600, Note_off_c, 1, 61, 95
3, 151200, Note_on_c, 0, 68, 111
3, 151200, Note_on_c, 0, 63, 111
3, 151440, Note_off_c, 0, 68, 111
3, 151440, Note_off_c, 0, 63, 111
3, 151440, Pitch_bend_c, 1, 9600
3, 151440, Note_on_c, 1, 63, 111
3, 151461, Pitch_bend_c, 1, 9472
3, 151482, Pitch_bend_c, 1, 9344
3, 151503, Pitch_bend_c, 1, 9216
3, 151524, Pitch_bend_c, 1, 9088
3, 151545, Pitch_bend_c, 1, 8960
3, 151566, Pitch_bend_c, 1, 8832
3, 151587, Pitch_bend_c, 1, 8704
3, 151608, Pitch_bend_c, 1, 8576
3, 151629, Pitch_bend_c, 1, 8448
3, 151650, Pitch_bend_c, 1, 8320
3, 151671, Pitch_bend_c, 1, 8192
3, 151680, Pitch_bend_c, 1, 8192
3, 151690, Pitch_bend_c, 1, 8320
3, 151700, Pitch_bend_c, 1, 8448
3, 151710, Pitch_bend_c, 1, 8576
3, 151720, Pitch_bend_c, 1, 8704
3, 151730, Pitch_bend_c, 1, 8832
3, 151740, Pitch_bend_c, 1, 8960
3, 151750, Pitch_bend_c, 1, 9088
3, 151760, Pitch_bend_c, 1, 9216
3, 151770, Pitch_bend_c, 1, 9344
3, 151780, Pitch_bend_c, 1, 9472
3, 151790, Pitch_bend_c, 1, 9600
3, 151800, Pitch_bend_c, 1, 9600
3, 152640, Note_on_c, 0, 68, 111
3, 152880, Pitch_bend_c, 1, 9600
3, 152880, Pitch_bend_c, 1, 8192
3, 152880, Note_off_c, 1, 63, 111
3, 152880, Note_off_c, 0, 68, 111
3, 152880, Pitch_bend_c, 1, 9600
3, 152880, Note_on_c, 1, 63, 95
3, 152940, Pitch_bend_c, 1, 9600
3, 152945, Pitch_bend_c, 1, 9472
3, 152950, Pitch_bend_c, 1, 9344
3, 152955, Pitch_bend_c, 1, 9216
3, 152960, Pitch_bend_c, 1, 9088
3, 152965, Pitch_bend_c, 1, 8960
3, 152970, Pitch_bend_c, 1, 8832
3, 152975, Pitch_bend_c, 1, 8704
3, 152980, Pitch_bend_c, 1, 8576
3, 152985, Pitch_bend_c, 1, 8448
3, 152990, Pitch_bend_c, 1, 8320
3, 152995, Pitch_bend_c, 1, 8192
3, 153000, Pitch_bend_c, 1, 8192
3, 153000, Pitch_bend_c, 1, 8192
3, 153000, Note_off_c, 1, 63, 95
3, 153000, Note_on_c, 0, 63, 63
3, 153120, Note_off_c, 0, 63, 63
3, 153120, Note_on_c, 0, 61, 70
3, 153280, Note_off_c, 0, 61, 70
3, 153280, Note_on_c, 0, 58, 95
3, 153440, Note_off_c, 0, 58, 95
3, 153440, Note_on_c, 0, 61, 95
3, 153600, Note_off_c, 0, 61, 95
3, 153600, Pitch_bend_c, 1, 8192
3, 153600, Note_on_c, 1, 63, 70
3, 153607, Pitch_bend_c, 1, 8320
3, 153614, Pitch_bend_c, 1, 8448
3, 153621, Pitch_bend_c, 1, 8576
3, 153628, Pitch_bend_c, 1, 8704
3, 153635, Pitch_bend_c, 1, 8832
3, 153642, Pitch_bend_c, 1, 8960
3, 153649, Pitch_bend_c, 1, 9088
3, 153656, Pitch_bend_c, 1, 9216
3, 153663, Pitch_bend_c, 1, 9344
3, 153670, Pitch_bend_c, 1, 9472
3, 153677, Pitch_bend_c, 1, 9600
3, 153680, Pitch_bend_c, 1, 9600
3, 153760, Pitch_bend_c, 1, 9600
3, 153760, Pitch_bend_c, 1, 8192
3, 153760, Note_off_c, 1, 63, 70
3, 153760, Note_on_c, 0, 65, 95
3, 153920, Note_off_c, 0, 65, 95
3, 153920, Note_on_c, 0, 70, 111
3, 154080, Note_off_c, 0, 70, 111
3, 156960, Pitch_bend_c, 1, 8192
3, 156960, Note_on_c, 1, 63, 111
3, 156974, Pitch_bend_c, 1, 8320
3, 156988, Pitch_bend_c, 1, 8448
3, 157002, Pitch_bend_c, 1, 8576
3, 157016, Pitch_bend_c, 1, 8704
3, 157030, Pitch_bend_c, 1, 8832
3, 157044, Pitch_bend_c, 1, 8960
3, 157058, Pitch_bend_c, 1, 9088
3, 157072, Pitch_bend_c, 1, 9216
3, 157086, Pitch_bend_c, 1, 9344
3, 157100, Pitch_bend_c, 1, 9472
3, 157114, Pitch_bend_c, 1, 9600
3, 157120, Pitch_bend_c, 1, 9600
3, 157280, Pitch_bend_c, 1, 9600
3, 157280, Pitch_bend_c, 1, 8192
3, 157280, Note_off_c, 1, 63, 111
3, 157280, Note_on_c, 0, 65, 95
3, 157440, Note_off_c, 0, 65, 95
3, 157440, Note_on_c, 0, 70, 111
3, 157600, Note_off_c, 0, 70, 111
3, 157600, Note_on_c, 0, 70, 95
3, 157600, Note_on_c, 0, 68, 95
3, 157760, Note_off_c, 0, 70, 95
3, 157760, Note_off_c, 0, 68, 95
3, 157760, Note_on_c, 0, 65, 95
3, 157920, Note_off_c, 0, 65, 95
3, 157920, Note_on_c, 0, 73, 111
3, 158080, Note_off_c, 0, 73, 111
3, 158080, Note_on_c, 0, 70, 95
3, 158240, Note_off_c, 0, 70, 95
3, 158240, Note_on_c, 0, 65, 95
3, 158400, Note_off_c, 0, 65, 95
3, 158400, Note_on_c, 0, 72, 111
3, 158560, Note_off_c, 0, 72, 111
3, 158560, Note_on_c, 0, 70, 95
3, 158720, Note_off_c, 0, 70, 95
3, 158720, Note_on_c, 0, 65, 95
3, 158880, Note_off_c, 0, 65, 95
3, 158880, Note_on_c, 1, 68, 111
3, 159040, Pitch_bend_c, 1, 8192
3, 159200, Pitch_bend_c, 1, 8320
3, 159360, Pitch_bend_c, 1, 8192
3, 159520, Pitch_bend_c, 1, 8320
3, 159520, Pitch_bend_c, 1, 8192
3, 159520, Note_off_c, 1, 68, 111
3, 159520, Note_on_c, 0, 70, 95
3, 159680, Note_off_c, 0, 70, 95
3, 159680, Note_on_c, 0, 68, 95
3, 159840, Note_off_c, 0, 68, 95
3, 159840, Note_on_c, 0, 65, 95
3, 160080, Note_off_c, 0, 65, 95
3, 160080, Pitch_bend_c, 1, 8192
3, 160080, Note_on_c, 1, 63, 95
3, 160090, Pitch_bend_c, 1, 8320
3, 160100, Pitch_bend_c, 1, 8448
3, 160110, Pitch_bend_c, 1, 8576
3, 160120, Pitch_bend_c, 1, 8704
3, 160130, Pitch_bend_c, 1, 8832
3, 160140, Pitch_bend_c, 1, 8960
3, 160150, Pitch_bend_c, 1, 9088
3, 160160, Pitch_bend_c, 1, 9216
3, 160170, Pitch_bend_c, 1, 9344
3, 160180, Pitch_bend_c, 1, 9472
3, 160190, Pitch_bend_c, 1, 9600
3, 160200, Pitch_bend_c, 1, 9600
3, 160320, Pitch_bend_c, 1, 9600
3, 160320, Pitch_bend_c, 1, 8192
3, 160320, Note_off_c, 1, 63, 95
3, 160320, Note_on_c, 0, 63, 95
3, 160440, Note_off_c, 0, 63, 95
3, 160440, Note_on_c, 0, 61, 70
3, 160560, Note_off_c, 0, 61, 70
3, 160560, Note_on_c, 0, 58, 95
3, 160800, Note_off_c, 0, 58, 95
3, 160800, Note_on_c, 0, 61, 95
3, 161040, Note_off_c, 0, 61, 95
3, 161040, Pitch_bend_c, 1, 8192
3, 161040, Note_on_c, 1, 63, 70
3, 161050, Pitch_bend_c, 1, 8320
3, 161060, Pitch_bend_c, 1, 8448
3, 161070, Pitch_bend_c, 1, 8576
3, 161080, Pitch_bend_c, 1, 8704
3, 161090, Pitch_bend_c, 1, 8832
3, 161100, Pitch_bend_c, 1, 8960
3, 161110, Pitch_bend_c, 1, 9088
3, 161120, Pitch_bend_c, 1, 9216
3, 161130, Pitch_bend_c, 1, 9344
3, 161140, Pitch_bend_c, 1, 9472
3, 161150, Pitch_bend_c, 1, 9600
3, 161160, Pitch_bend_c, 1, 9600
3, 161220, Note_on_c, 1, 61, 79
3, 161280, Pitch_bend_c, 1, 9600
3, 161280, Pitch_bend_c, 1, 8192
3, 161280, Note_off_c, 1, 63, 70
3, 161280, Note_off_c, 1, 61, 79
3, 161280, Note_on_c, 1, 63, 95
3, 161360, Note_off_c, 1, 63, 95
3, 161360, Note_on_c, 0, 61, 70
3, 161440, Note_off_c, 0, 61, 70
3, 161440, Note_on_c, 0, 63, 70
3, 161520, Note_off_c, 0, 63, 70
3, 161520, Note_on_c, 0, 61, 70
3, 161600, Note_off_c, 0, 61, 70
3, 161600, Note_on_c, 0, 63, 70
3, 161680, Note_off_c, 0, 63, 70
3, 161680, Note_on_c, 0, 61, 54
3, 161760, Note_off_c, 0, 61, 54
3, 161760, Note_on_c, 0, 63, 54
3, 161840, Note_off_c, 0, 63, 54
3, 161840, Note_on_c, 0, 61, 54
3, 161920, Note_off_c, 0, 61, 54
3, 161920, Note_on_c, 0, 63, 54
3, 162000, Note_off_c, 0, 63, 54
3, 162000, Note_on_c, 0, 61, 54
3, 162080, Note_off_c, 0, 61, 54
3, 162080, Note_on_c, 0, 63, 54
3, 162160, Note_off_c, 0, 63, 54
3, 162160, Note_on_c, 0, 61, 70
3, 162240, Note_off_c, 0, 61, 70
3, 162240, Note_on_c, 0, 63, 54
3, 162320, Note_off_c, 0, 63, 54
3, 162320, Note_on_c, 0, 61, 54
3, 162400, Note_off_c, 0, 61, 54
3, 162400, Note_on_c, 0, 63, 54
3, 162480, Note_off_c, 0, 63, 54
3, 162480, Note_on_c, 0, 61, 38
3, 162560, Note_off_c, 0, 61, 38
3, 162560, Note_on_c, 0, 63, 38
3, 162640, Note_off_c, 0, 63, 38
3, 162640, Note_on_c, 0, 61, 38
3, 162720, Note_off_c, 0, 61, 38
3, 162720, Note_on_c, 0, 63, 22
3, 162960, Note_off_c, 0, 63, 22
3, 162960, Note_on_c, 0, 61, 22
3, 163200, Note_off_c, 0, 61, 22
3, 167460, Note_on_c, 1, 61, 95
3, 167520, Pitch_bend_c, 1, 8192
3, 167520, Note_on_c, 1, 67, 95
3, 167520, Note_off_c, 1, 61, 95
3, 167520, Note_on_c, 1, 54, 95
3, 167541, Pitch_bend_c, 1, 8320
3, 167562, Pitch_bend_c, 1, 8448
3, 167583, Pitch_bend_c, 1, 8576
3, 167604, Pitch_bend_c, 1, 8704
3, 167625, Pitch_bend_c, 1, 8832
3, 167646, Pitch_bend_c, 1, 8960
3, 167667, Pitch_bend_c, 1, 9088
3, 167688, Pitch_bend_c, 1, 9216
3, 167709, Pitch_bend_c, 1, 9344
3, 167730, Pitch_bend_c, 1, 9472
3, 167751, Pitch_bend_c, 1, 9600
3, 167760, Pitch_bend_c, 1, 9600
3, 168000, Pitch_bend_c, 1, 9600
3, 168000, Pitch_bend_c, 1, 8192
3, 168000, Note_off_c, 1, 67, 95
3, 168000, Note_off_c, 1, 54, 95
3, 168000, Note_on_c, 0, 67, 95
3, 168240, Note_off_c, 0, 67, 95
3, 168240, Note_on_c, 0, 65, 95
3, 168360, Note_off_c, 0, 65, 95
3, 168360, Note_on_c, 0, 67, 70
3, 168480, Note_off_c, 0, 67, 70
3, 168480, Note_on_c, 0, 65, 70
3, 168640, Note_off_c, 0, 65, 70
3, 168640, Note_on_c, 0, 63, 95
3, 168800, Note_off_c, 0, 63, 95
3, 168800, Note_on_c, 0, 65, 95
3, 168960, Note_off_c, 0, 65, 95
3, 168960, Note_on_c, 0, 63, 95
3, 169200, Note_off_c, 0, 63, 95
3, 169200, Note_on_c, 0, 61, 95
3, 169440, Note_off_c, 0, 61, 95
3, 169440, Note_on_c, 0, 63, 95
3, 169680, Note_off_c, 0, 63, 95
3, 169680, Pitch_bend_c, 1, 9600
3, 169680, Note_on_c, 1, 63, 95
3, 169920, Pitch_bend_c, 1, 9600
3, 169920, Pitch_bend_c, 1, 8192
3, 169920, Note_off_c, 1, 63, 95
3, 169920, Pitch_bend_c, 1, 8192
3, 169920, Note_on_c, 1, 61, 95
3, 169941, Pitch_bend_c, 1, 8320
3, 169962, Pitch_bend_c, 1, 8448
3, 169983, Pitch_bend_c, 1, 8576
3, 170004, Pitch_bend_c, 1, 8704
3, 170025, Pitch_bend_c, 1, 8832
3, 170046, Pitch_bend_c, 1, 8960
3, 170067, Pitch_bend_c, 1, 9088
3, 170088, Pitch_bend_c, 1, 9216
3, 170109, Pitch_bend_c, 1, 9344
3, 170130, Pitch_bend_c, 1, 9472
3, 170151, Pitch_bend_c, 1, 9600
3, 170160, Pitch_bend_c, 1, 9600
3, 170400, Pitch_bend_c, 1, 9600
3, 171360, Pitch_bend_c, 1, 9600
3, 171360, Pitch_bend_c, 1, 8192
3, 171360, Note_off_c, 1, 61, 95
3, 175680, Pitch_bend_c, 1, 8192
3, 175680, Note_on_c, 1, 63, 111
3, 175690, Pitch_bend_c, 1, 8320
3, 175700, Pitch_bend_c, 1, 8448
3, 175710, Pitch_bend_c, 1, 8576
3, 175720, Pitch_bend_c, 1, 8704
3, 175730, Pitch_bend_c, 1, 8832
3, 175740, Pitch_bend_c, 1, 8960
3, 175750, Pitch_bend_c, 1, 9088
3, 175760, Pitch_bend_c, 1, 9216
3, 175770, Pitch_bend_c, 1, 9344
3, 175780, Pitch_bend_c, 1, 9472
3, 175790, Pitch_bend_c, 1, 9600
3, 175800, Pitch_bend_c, 1, 9600
3, 175920, Pitch_bend_c, 1, 9600
3, 175920, Pitch_bend_c, 1, 8192
3, 175920, Note_off_c, 1, 63, 111
3, 175920, Note_on_c, 0, 65, 95
3, 176040, Note_off_c, 0, 65, 95
3, 176040, Note_on_c, 0, 70, 95
3, 176160, Note_off_c, 0, 70, 95
3, 176160, Pitch_bend_c, 1, 8192
3, 176160, Note_on_c, 1, 68, 111
3, 176203, Pitch_bend_c, 1, 8320
3, 176246, Pitch_bend_c, 1, 8448
3, 176289, Pitch_bend_c, 1, 8576
3, 176332, Pitch_bend_c, 1, 8704
3, 176375, Pitch_bend_c, 1, 8832
3, 176418, Pitch_bend_c, 1, 8960
3, 176461, Pitch_bend_c, 1, 9088
3, 176504, Pitch_bend_c, 1, 9216
3, 176547, Pitch_bend_c, 1, 9344
3, 176590, Pitch_bend_c, 1, 9472
3, 176633, Pitch_bend_c, 1, 9600
3, 176640, Pitch_bend_c, 1, 9600
3, 177120, Pitch_bend_c, 1, 9600
3, 177120, Pitch_bend_c, 1, 8192
3, 177120, Note_off_c, 1, 68, 111
3, 177120, Note_on_c, 0, 70, 95
3, 177360, Note_off_c, 0, 70, 95
3, 177360, Note_on_c, 0, 70, 95
3, 177600, Note_off_c, 0, 70, 95
3, 177600, Note_on_c, 0, 70, 95
3, 177840, Note_off_c, 0, 70, 95
3, 177840, Pitch_bend_c, 1, 8192
3, 177840, Note_on_c, 1, 63, 95
3, 177850, Pitch_bend_c, 1, 8320
3, 177860, Pitch_bend_c, 1, 8448
3, 177870, Pitch_bend_c, 1, 8576
3, 177880, Pitch_bend_c, 1, 8704
3, 177890, Pitch_bend_c, 1, 8832
3, 177900, Pitch_bend_c, 1, 8960
3, 177910, Pitch_bend_c, 1, 9088
3, 177920, Pitch_bend_c, 1, 9216
3, 177930, Pitch_bend_c, 1, 9344
3, 177940, Pitch_bend_c, 1, 9472
3, 177950, Pitch_bend_c, 1, 9600
3, 177960, Pitch_bend_c, 1, 9600
3, 178080, Pitch_bend_c, 1, 9600
3, 178080, Pitch_bend_c, 1, 8192
3, 178080, Note_off_c, 1, 63, 95
3, 178080, Note_on_c, 0, 65, 95
3, 178200, Note_off_c, 0, 65, 95
3, 178200, Note_on_c, 0, 70, 95
3, 178440, Note_off_c, 0, 70, 95
3, 178440, Note_on_c, 0, 68, 95
3, 178500, Note_off_c, 0, 68, 95
3, 178500, Note_on_c, 0, 70, 95
3, 178560, Note_off_c, 0, 70, 95
3, 178560, Pitch_bend_c, 1, 8192
3, 178560, Note_on_c, 1, 63, 95
3, 178570, Pitch_bend_c, 1, 8320
3, 178580, Pitch_bend_c, 1, 8448
3, 178590, Pitch_bend_c, 1, 8576
3, 178600, Pitch_bend_c, 1, 8704
3, 178610, Pitch_bend_c, 1, 8832
3, 178620, Pitch_bend_c, 1, 8960
3, 178630, Pitch_bend_c, 1, 9088
3, 178640, Pitch_bend_c, 1, 9216
3, 178650, Pitch_bend_c, 1, 9344
3, 178660, Pitch_bend_c, 1, 9472
3, 178670, Pitch_bend_c, 1, 9600
3, 178680, Pitch_bend_c, 1, 9600
3, 178800, Pitch_bend_c, 1, 9600
3, 178800, Pitch_bend_c, 1, 8192
3, 178800, Note_off_c, 1, 63, 95
3, 178800, Note_on_c, 0, 63, 95
3, 179040, Note_off_c, 0, 63, 95
3, 179040, Note_on_c, 0, 61, 70
3, 179280, Note_off_c, 0, 61, 70
3, 179280, Note_on_c, 0, 58, 95
3, 179520, Note_off_c, 0, 58, 95
3, 179520, Note_on_c, 0, 61, 95
3, 179760, Note_off_c, 0, 61, 95
3, 179760, Note_on_c, 0, 58, 95
3, 179880, Note_off_c, 0, 58, 95
3, 179880, Note_on_c, 0, 56, 70
3, 180000, Note_off_c, 0, 56, 70
3, 180000, Note_on_c, 0, 53, 79
3, 180120, Note_off_c, 0, 53, 79
3, 180120, Note_on_c, 0, 51, 54
3, 180240, Note_off_c, 0, 51, 54
3, 180240, Note_on_c, 0, 49, 63
3, 180480, Note_off_c, 0, 49, 63
3, 180480, Note_on_c, 0, 44, 95
3, 180522, Note_off_c, 0, 44, 95
3, 180900, Note_on_c, 1, 51, 79
3, 180960, Note_off_c, 1, 51, 79
3, 180960, Note_on_c, 1, 53, 95
3, 181120, Note_off_c, 1, 53, 95
3, 181120, Note_on_c, 0, 52, 70
3, 181280, Note_off_c, 0, 52, 70
3, 181280, Note_on_c, 0, 51, 70
3, 181440, Note_off_c, 0, 51, 70
3, 181440, Note_on_c, 0, 50, 95
3, 181600, Note_off_c, 0, 50, 95
3, 181600, Note_on_c, 0, 46, 95
3, 181840, Note_off_c, 0, 46, 95
3, 181840, Note_on_c, 0, 58, 95
3, 181920, Note_off_c, 0, 58, 95
3, 181920, Note_on_c, 0, 61, 95
3, 182040, Note_off_c, 0, 61, 95
3, 182040, Note_on_c, 0, 62, 70
3, 182160, Note_off_c, 0, 62, 70
3, 182160, Note_on_c, 0, 65, 95
3, 182280, Note_off_c, 0, 65, 95
3, 182280, Note_on_c, 0, 70, 95
3, 182400, Note_off_c, 0, 70, 95
3, 182400, Note_on_c, 1, 68, 95
3, 182560, Pitch_bend_c, 1, 8192
3, 182720, Pitch_bend_c, 1, 8320
3, 182880, Pitch_bend_c, 1, 8192
3, 182880, Pitch_bend_c, 1, 8320
3, 182880, Pitch_bend_c, 1, 8192
3, 182880, Note_off_c, 1, 68, 95
3, 182880, Note_on_c, 0, 65, 95
3, 183040, Note_off_c, 0, 65, 95
3, 183040, Note_on_c, 0, 63, 95
3, 183200, Note_off_c, 0, 63, 95
3, 183200, Note_on_c, 0, 61, 95
3, 183360, Note_off_c, 0, 61, 95
3, 183360, Note_on_c, 1, 61, 95
3, 183520, Pitch_bend_c, 1, 8192
3, 183680, Pitch_bend_c, 1, 8320
3, 183840, Pitch_bend_c, 1, 8192
3, 184000, Pitch_bend_c, 1, 8320
3, 184080, Pitch_bend_c, 1, 8192
3, 184080, Pitch_bend_c, 1, 8320
3, 184080, Pitch_bend_c, 1, 8192
3, 184080, Note_off_c, 1, 61, 95
3, 184320, Note_on_c, 1, 61, 95
3, 184480, Pitch_bend_c, 1, 8192
3, 184480, Pitch_bend_c, 1, 8192
3, 184640, Note_off_c, 1, 61, 95
3, 184640, Note_on_c, 1, 60, 95
3, 184800, Pitch_bend_c, 1, 8192
3, 184960, Pitch_bend_c, 1, 8320
3, 185120, Pitch_bend_c, 1, 8192
3, 185280, Pitch_bend_c, 1, 8320
3, 185440, Pitch_bend_c, 1, 8192
3, 185600, Pitch_bend_c, 1, 8320
3, 185760, Pitch_bend_c, 1, 8192
3, 185920, Pitch_bend_c, 1, 8320
3, 186080, Pitch_bend_c, 1, 8192
3, 186240, Pitch_bend_c, 1, 8320
3, 186240, Pitch_bend_c, 1, 8192
3, 186240, Note_off_c, 1, 60, 95
3, 186240, Note_on_c, 0, 54, 79
3, 186282, Note_off_c, 0, 54, 79
3, 189920, Pitch_bend_c, 1, 8192
3, 189920, Note_on_c, 1, 65, 95
3, 189936, Pitch_bend_c, 1, 8320
3, 189952, Pitch_bend_c, 1, 8448
3, 189968, Pitch_bend_c, 1, 8576
3, 189984, Pitch_bend_c, 1, 8704
3, 190000, Pitch_bend_c, 1, 8832
3, 190016, Pitch_bend_c, 1, 8960
3, 190032, Pitch_bend_c, 1, 9088
3, 190048, Pitch_bend_c, 1, 9216
3, 190064, Pitch_bend_c, 1, 9344
3, 190080, Pitch_bend_c, 1, 9472
3, 190096, Pitch_bend_c, 1, 9600
3, 190106, Pitch_bend_c, 1, 9600
3, 190480, Pitch_bend_c, 1, 9600
3, 190554, Pitch_bend_c, 1, 9728
3, 190628, Pitch_bend_c, 1, 9856
3, 190702, Pitch_bend_c, 1, 9984
3, 190776, Pitch_bend_c, 1, 10112
3, 190850, Pitch_bend_c, 1, 10240
3, 190853, Pitch_bend_c, 1, 10240
3, 191040, Pitch_bend_c, 1, 10240
3, 191040, Pitch_bend_c, 1, 8192
3, 191040, Note_off_c, 1, 65, 95
3, 191040, Pitch_bend_c, 1, 9600
3, 191040, Note_on_c, 1, 63, 95
3, 191100, Pitch_bend_c, 1, 9600
3, 191105, Pitch_bend_c, 1, 9472
3, 191110, Pitch_bend_c, 1, 9344
3, 191115, Pitch_bend_c, 1, 9216
3, 191120, Pitch_bend_c, 1, 9088
3, 191125, Pitch_bend_c, 1, 8960
3, 191130, Pitch_bend_c, 1, 8832
3, 191135, Pitch_bend_c, 1, 8704
3, 191140, Pitch_bend_c, 1, 8576
3, 191145, Pitch_bend_c, 1, 8448
3, 191150, Pitch_bend_c, 1, 8320
3, 191155, Pitch_bend_c, 1, 8192
3, 191160, Pitch_bend_c, 1, 8192
3, 191280, Pitch_bend_c, 1, 8192
3, 191280, Pitch_bend_c, 1, 8192
3, 191280, Note_off_c, 1, 63, 95
3, 191280, Note_on_c, 0, 58, 95
3, 191520, Note_off_c, 0, 58, 95
3, 192000, Pitch_bend_c, 1, 8192
3, 192000, Note_on_c, 1, 65, 95
3, 192014, Pitch_bend_c, 1, 8320
3, 192028, Pitch_bend_c, 1, 8448
3, 192042, Pitch_bend_c, 1, 8576
3, 192056, Pitch_bend_c, 1, 8704
3, 192070, Pitch_bend_c, 1, 8832
3, 192084, Pitch_bend_c, 1, 8960
3, 192098, Pitch_bend_c, 1, 9088
3, 192112, Pitch_bend_c, 1, 9216
3, 192126, Pitch_bend_c, 1, 9344
3, 192140, Pitch_bend_c, 1, 9472
3, 192154, Pitch_bend_c, 1, 9600
3, 192160, Pitch_bend_c, 1, 9600
3, 192320, Pitch_bend_c, 1, 9600
3, 192320, Pitch_bend_c, 1, 8192
3, 192320, Note_off_c, 1, 65, 95
3, 192480, Note_on_c, 0, 65, 95
3, 192720, Note_off_c, 0, 65, 95
3, 192720, Note_on_c, 0, 63, 95
3, 192960, Note_off_c, 0, 63, 95
3, 192960, Note_on_c, 0, 65, 95
3, 193200, Note_off_c, 0, 65, 95
3, 193200, Note_on_c, 0, 63, 95
3, 193440, Note_off_c, 0, 63, 95
3, 193440, Note_on_c, 0, 61, 95
3, 193600, Note_off_c, 0, 61, 95
3, 193600, Note_on_c, 0, 58, 95
3, 193760, Note_off_c, 0, 58, 95
3, 193760, Note_on_c, 0, 63, 95
3, 193920, Note_off_c, 0, 63, 95
3, 193920, Note_on_c, 1, 61, 111
3, 194080, Pitch_bend_c, 1, 8192
3, 194240, Pitch_bend_c, 1, 8320
3, 194400, Pitch_bend_c, 1, 8192
3, 194560, Pitch_bend_c, 1, 8320
3, 194720, Pitch_bend_c, 1, 8192
3, 194880, Pitch_bend_c, 1, 8320
3, 194880, Pitch_bend_c, 1, 8192
3, 194880, Note_off_c, 1, 61, 111
3, 199440, Pitch_bend_c, 1, 8192
3, 199440, Note_on_c, 1, 63, 111
3, 199456, Pitch_bend_c, 1, 8320
3, 199472, Pitch_bend_c, 1, 8448
3, 199488, Pitch_bend_c, 1, 8576
3, 199504, Pitch_bend_c, 1, 8704
3, 199520, Pitch_bend_c, 1, 8832
3, 199536, Pitch_bend_c, 1, 8960
3, 199552, Pitch_bend_c, 1, 9088
3, 199568, Pitch_bend_c, 1, 9216
3, 199584, Pitch_bend_c, 1, 9344
3, 199600, Pitch_bend_c, 1, 9472
3, 199616, Pitch_bend_c, 1, 9600
3, 199626, Pitch_bend_c, 1, 9600
3, 200000, Pitch_bend_c, 1, 9600
3, 200000, Pitch_bend_c, 1, 8192
3, 200000, Note_off_c, 1, 63, 111
3, 200000, Pitch_bend_c, 1, 9600
3, 200000, Note_on_c, 1, 63, 95
3, 200160, Pitch_bend_c, 1, 9600
3, 200160, Pitch_bend_c, 1, 8192
3, 200160, Note_off_c, 1, 63, 95
3, 200160, Note_on_c, 0, 63, 95
3, 200480, Note_off_c, 0, 63, 95
3, 200480, Pitch_bend_c, 1, 8192
3, 200480, Note_on_c, 1, 63, 95
3, 200487, Pitch_bend_c, 1, 8320
3, 200494, Pitch_bend_c, 1, 8448
3, 200501, Pitch_bend_c, 1, 8576
3, 200508, Pitch_bend_c, 1, 8704
3, 200515, Pitch_bend_c, 1, 8832
3, 200522, Pitch_bend_c, 1, 8960
3, 200529, Pitch_bend_c, 1, 9088
3, 200536, Pitch_bend_c, 1, 9216
3, 200543, Pitch_bend_c, 1, 9344
3, 200550, Pitch_bend_c, 1, 9472
3, 200557, Pitch_bend_c, 1, 9600
3, 200560, Pitch_bend_c, 1, 9600
3, 200640, Pitch_bend_c, 1, 9600
3, 200640, Pitch_bend_c, 1, 8192
3, 200640, Note_off_c, 1, 63, 95
3, 200640, Note_on_c, 1, 61, 95
3, 200800, Pitch_bend_c, 1, 8192
3, 200960, Pitch_bend_c, 1, 8320
3, 201120, Pitch_bend_c, 1, 8192
3, 201120, Pitch_bend_c, 1, 8320
3, 201120, Pitch_bend_c, 1, 8192
3, 201120, Note_off_c, 1, 61, 95
3, 201120, Note_on_c, 1, 58, 95
3, 201280, Pitch_bend_c, 1, 8192
3, 201440, Pitch_bend_c, 1, 8320
3, 201600, Pitch_bend_c, 1, 8192
3, 201600, Pitch_bend_c, 1, 8320
3, 201600, Pitch_bend_c, 1, 8192
3, 201600, Note_off_c, 1, 58, 95
3, 201600, Note_on_c, 0, 56, 95
3, 201720, Note_off_c, 0, 56, 95
3, 201720, Note_on_c, 1, 58, 95
3, 201880, Pitch_bend_c, 1, 8192
3, 202040, Pitch_bend_c, 1, 8320
3, 202200, Pitch_bend_c, 1, 8192
3, 202360, Pitch_bend_c, 1, 8320
3, 202440, Pitch_bend_c, 1, 8192
3, 202440, Pitch_bend_c, 1, 8320
3, 202440, Pitch_bend_c, 1, 8192
3, 202440, Note_off_c, 1, 58, 95
3, 202440, Note_on_c, 0, 61, 95
3, 202560, Note_off_c, 0, 61, 95
3, 202560, Note_on_c, 0, 58, 95
3, 202680, Note_off_c, 0, 58, 95
3, 202680, Note_on_c, 0, 56, 70
3, 202800, Note_off_c, 0, 56, 70
3, 202800, Note_on_c, 0, 53, 79
3, 202920, Note_off_c, 0, 53, 79
3, 202920, Note_on_c, 0, 51, 54
3, 203040, Note_off_c, 0, 51, 54
3, 203040, Note_on_c, 0, 48, 63
3, 203160, Note_off_c, 0, 48, 63
3, 203160, Note_on_c, 0, 46, 22
3, 203280, Note_off_c, 0, 46, 22
3, 204960, Pitch_bend_c, 1, 8192
3, 204960, Note_on_c, 1, 63, 95
3, 204970, Pitch_bend_c, 1, 8320
3, 204980, Pitch_bend_c, 1, 8448
3, 204990, Pitch_bend_c, 1, 8576
3, 205000, Pitch_bend_c, 1, 8704
3, 205010, Pitch_bend_c, 1, 8832
3, 205020, Pitch_bend_c, 1, 8960
3, 205030, Pitch_bend_c, 1, 9088
3, 205040, Pitch_bend_c, 1, 9216
3, 205050, Pitch_bend_c, 1, 9344
3, 205060, Pitch_bend_c, 1, 9472
3, 205070, Pitch_bend_c, 1, 9600
3, 205080, Pitch_bend_c, 1, 9600
3, 205200, Pitch_bend_c, 1, 9600
3, 205200, Pitch_bend_c, 1, 8192
3, 205200, Note_off_c, 1, 63, 95
3, 205200, Note_on_c, 0, 65, 95
3, 205380, Note_on_c, 1, 65, 95
3, 205440, Note_off_c, 0, 65, 95
3, 205440, Note_on_c, 0, 70, 95
3, 205440, Note_off_c, 1, 65, 95
3, 205440, Note_on_c, 1, 58, 95
3, 205680, Note_off_c, 0, 70, 95
3, 205680, Note_off_c, 1, 58, 95
3, 205680, Note_on_c, 0, 68, 95
3, 205800, Note_off_c, 0, 68, 95
3, 205800, Note_on_c, 0, 65, 95
3, 205920, Note_off_c, 0, 65, 95
3, 205920, Pitch_bend_c, 1, 8192
3, 205920, Note_on_c, 1, 63, 95
3, 205930, Pitch_bend_c, 1, 8320
3, 205940, Pitch_bend_c, 1, 8448
3, 205950, Pitch_bend_c, 1, 8576
3, 205960, Pitch_bend_c, 1, 8704
3, 205970, Pitch_bend_c, 1, 8832
3, 205980, Pitch_bend_c, 1, 8960
3, 205990, Pitch_bend_c, 1, 9088
3, 206000, Pitch_bend_c, 1, 9216
3, 206010, Pitch_bend_c, 1, 9344
3, 206020, Pitch_bend_c, 1, 9472
3, 206030, Pitch_bend_c, 1, 9600
3, 206040, Pitch_bend_c, 1, 9600
3, 206160, Pitch_bend_c, 1, 9600
3, 206160, Pitch_bend_c, 1, 8192
3, 206160, Note_off_c, 1, 63, 95
3, 206160, Note_on_c, 0, 63, 95
3, 206400, Note_off_c, 0, 63, 95
3, 206400, Note_on_c, 0, 61, 95
3, 206640, Note_off_c, 0, 61, 95
3, 206640, Pitch_bend_c, 1, 8192
3, 206640, Note_on_c, 1, 63, 95
3, 206661, Pitch_bend_c, 1, 8320
3, 206682, Pitch_bend_c, 1, 8448
3, 206703, Pitch_bend_c, 1, 8576
3, 206724, Pitch_bend_c, 1, 8704
3, 206745, Pitch_bend_c, 1, 8832
3, 206766, Pitch_bend_c, 1, 8960
3, 206787, Pitch_bend_c, 1, 9088
3, 206808, Pitch_bend_c, 1, 9216
3, 206829, Pitch_bend_c, 1, 9344
3, 206850, Pitch_bend_c, 1, 9472
3, 206871, Pitch_bend_c, 1, 9600
3, 206880, Pitch_bend_c, 1, 9600
3, 207360, Pitch_bend_c, 1, 9600
3, 207360, Pitch_bend_c, 1, 8192
3, 207360, Note_off_c, 1, 63, 95
3, 207360, Note_on_c, 0, 63, 95
3, 207480, Note_off_c, 0, 63, 95
3, 207480, Note_on_c, 0, 61, 70
3, 207600, Note_off_c, 0, 61, 70
3, 207600, Note_on_c, 0, 58, 95
3, 207600, Note_on_c, 0, 53, 95
3, 207840, Note_off_c, 0, 58, 95
3, 207840, Note_off_c, 0, 53, 95
3, 207840, Note_on_c, 0, 61, 95
3, 207840, Note_on_c, 0, 49, 95
3, 207840, Note_on_c, 0, 44, 95
3, 208560, Note_off_c, 0, 61, 95
3, 208560, Note_off_c, 0, 49, 95
3, 208560, Note_off_c, 0, 44, 95
3, 212160, Pitch_bend_c, 1, 8192
3, 212160, Note_on_c, 1, 68, 111
3, 212203, Pitch_bend_c, 1, 8320
3, 212246, Pitch_bend_c, 1, 8448
3, 212289, Pitch_bend_c, 1, 8576
3, 212332, Pitch_bend_c, 1, 8704
3, 212375, Pitch_bend_c, 1, 8832
3, 212418, Pitch_bend_c, 1, 8960
3, 212461, Pitch_bend_c, 1, 9088
3, 212504, Pitch_bend_c, 1, 9216
3, 212547, Pitch_bend_c, 1, 9344
3, 212590, Pitch_bend_c, 1, 9472
3, 212633, Pitch_bend_c, 1, 9600
3, 212640, Pitch_bend_c, 1, 9600
3, 213120, Pitch_bend_c, 1, 9600
3, 213120, Pitch_bend_c, 1, 8192
3, 213120, Note_off_c, 1, 68, 111
3, 213120, Pitch_bend_c, 1, 8448
3, 213120, Note_on_c, 1, 68, 111
3, 213360, Pitch_bend_c, 1, 8448
3, 213360, Pitch_bend_c, 1, 8192
3, 213360, Note_off_c, 1, 68, 111
3, 213600, Pitch_bend_c, 1, 8192
3, 213600, Note_on_c, 1, 68, 95
3, 213610, Pitch_bend_c, 1, 8320
3, 213620, Pitch_bend_c, 1, 8448
3, 213630, Pitch_bend_c, 1, 8576
3, 213640, Pitch_bend_c, 1, 8704
3, 213650, Pitch_bend_c, 1, 8832
3, 213660, Pitch_bend_c, 1, 8960
3, 213670, Pitch_bend_c, 1, 9088
3, 213680, Pitch_bend_c, 1, 9216
3, 213690, Pitch_bend_c, 1, 9344
3, 213700, Pitch_bend_c, 1, 9472
3, 213710, Pitch_bend_c, 1, 9600
3, 213720, Pitch_bend_c, 1, 9600
3, 213840, Pitch_bend_c, 1, 9600
3, 213840, Pitch_bend_c, 1, 8192
3, 213840, Note_off_c, 1, 68, 95
3, 213840, Pitch_bend_c, 1, 8192
3, 213840, Note_on_c, 1, 68, 111
3, 213878, Pitch_bend_c, 1, 8320
3, 213916, Pitch_bend_c, 1, 8448
3, 213954, Pitch_bend_c, 1, 8576
3, 213992, Pitch_bend_c, 1, 8704
3, 214030, Pitch_bend_c, 1, 8832
3, 214068, Pitch_bend_c, 1, 8960
3, 214106, Pitch_bend_c, 1, 9088
3, 214144, Pitch_bend_c, 1, 9216
3, 214182, Pitch_bend_c, 1, 9344
3, 214220, Pitch_bend_c, 1, 9472
3, 214258, Pitch_bend_c, 1, 9600
3, 214260, Pitch_bend_c, 1, 9600
3, 215520, Pitch_bend_c, 1, 9600
3, 215520, Pitch_bend_c, 1, 8192
3, 215520, Note_off_c, 1, 68, 111
3, 215520, Pitch_bend_c, 1, 8192
3, 215520, Note_on_c, 1, 68, 111
3, 215525, Pitch_bend_c, 1, 8320
3, 215530, Pitch_bend_c, 1, 8448
3, 215535, Pitch_bend_c, 1, 8576
3, 215540, Pitch_bend_c, 1, 8704
3, 215545, Pitch_bend_c, 1, 8832
3, 215550, Pitch_bend_c, 1, 8960
3, 215555, Pitch_bend_c, 1, 9088
3, 215560, Pitch_bend_c, 1, 9216
3, 215565, Pitch_bend_c, 1, 9344
3, 215570, Pitch_bend_c, 1, 9472
3, 215575, Pitch_bend_c, 1, 9600
3, 215580, Pitch_bend_c, 1, 9600
3, 215640, Pitch_bend_c, 1, 9600
3, 215650, Pitch_bend_c, 1, 9472
3, 215660, Pitch_bend_c, 1, 9344
3, 215670, Pitch_bend_c, 1, 9216
3, 215680, Pitch_bend_c, 1, 9088
3, 215690, Pitch_bend_c, 1, 8960
3, 215700, Pitch_bend_c, 1, 8832
3, 215710, Pitch_bend_c, 1, 8704
3, 215720, Pitch_bend_c, 1, 8576
3, 215730, Pitch_bend_c, 1, 8448
3, 215740, Pitch_bend_c, 1, 8320
3, 215750, Pitch_bend_c, 1, 8192
3, 215760, Pitch_bend_c, 1, 8192
3, 215760, Pitch_bend_c, 1, 8192
3, 215760, Note_off_c, 1, 68, 111
3, 215760, Note_on_c, 0, 68, 63
3, 215880, Note_off_c, 0, 68, 63
3, 215880, Note_on_c, 0, 65, 70
3, 216000, Note_off_c, 0, 65, 70
3, 216000, Note_on_c, 0, 63, 79
3, 216120, Note_off_c, 0, 63, 79
3, 216120, Note_on_c, 0, 61, 54
3, 216240, Note_off_c, 0, 61, 54
3, 216240, Note_on_c, 0, 58, 63
3, 216360, Note_off_c, 0, 58, 63
3, 216360, Note_on_c, 0, 56, 22
3, 216480, Note_off_c, 0, 56, 22
3, 216480, Note_on_c, 0, 39, 79
3, 216522, Note_off_c, 0, 39, 79
3, 221760, Note_on_c, 0, 68, 95
3, 221760, Pitch_bend_c, 1, 8192
3, 221760, Note_on_c, 1, 63, 111
3, 221781, Pitch_bend_c, 1, 8320
3, 221802, Pitch_bend_c, 1, 8448
3, 221823, Pitch_bend_c, 1, 8576
3, 221844, Pitch_bend_c, 1, 8704
3, 221865, Pitch_bend_c, 1, 8832
3, 221886, Pitch_bend_c, 1, 8960
3, 221907, Pitch_bend_c, 1, 9088
3, 221928, Pitch_bend_c, 1, 9216
3, 221949, Pitch_bend_c, 1, 9344
3, 221970, Pitch_bend_c, 1, 9472
3, 221991, Pitch_bend_c, 1, 9600
3, 222000, Pitch_bend_c, 1, 9600
3, 223200, Note_off_c, 0, 68, 95
3, 223200, Pitch_bend_c, 1, 9600
3, 223200, Pitch_bend_c, 1, 8192
3, 223200, Note_off_c, 1, 63, 111
3, 223200, Note_on_c, 0, 68, 95
3, 223200, Note_on_c, 0, 61, 95
3, 223680, Note_off_c, 0, 68, 95
3, 223680, Note_off_c, 0, 61, 95
3, 223680, Note_on_c, 0, 68, 95
3, 223680, Note_on_c, 0, 63, 95
3, 224160, Note_off_c, 0, 68, 95
3, 224160, Note_off_c, 0, 63, 95
3, 224160, Note_on_c, 0, 68, 95
3, 224160, Pitch_bend_c, 1, 8832
3, 224160, Note_on_c, 1, 63, 95
3, 224640, Note_off_c, 0, 68, 95
3, 224640, Pitch_bend_c, 1, 8832
3, 224640, Pitch_bend_c, 1, 8192
3, 224640, Note_off_c, 1, 63, 95
3, 224640, Note_on_c, 1, 68, 111
3, 224640, Pitch_bend_c, 1, 9600
3, 224640, Note_on_c, 1, 63, 111
3, 224800, Pitch_bend_c, 1, 8192
3, 224960, Pitch_bend_c, 1, 8320
3, 225120, Pitch_bend_c, 1, 8192
3, 225280, Pitch_bend_c, 1, 8320
3, 225360, Pitch_bend_c, 1, 8192
3, 225360, Pitch_bend_c, 1, 8320
3, 225360, Pitch_bend_c, 1, 8192
3, 225360, Note_off_c, 1, 68, 111
3, 225360, Pitch_bend_c, 1, 9600
3, 225360, Pitch_bend_c, 1, 8192
3, 225360, Note_off_c, 1, 63, 111
3, 225360, Note_on_c, 0, 68, 95
3, 225360, Note_on_c, 0, 63, 95
3, 225480, Note_off_c, 0, 68, 95
3, 225480, Note_off_c, 0, 63, 95
3, 225480, Note_on_c, 0, 61, 70
3, 225600, Note_off_c, 0, 61, 70
3, 225600, Note_on_c, 0, 58, 111
3, 225720, Note_off_c, 0, 58, 111
3, 225720, Note_on_c, 0, 56, 70
3, 225840, Note_off_c, 0, 56, 70
3, 225840, Note_on_c, 0, 61, 95
3, 225960, Note_off_c, 0, 61, 95
3, 225960, Note_on_c, 0, 58, 95
3, 226080, Note_off_c, 0, 58, 95
3, 226080, Note_on_c, 0, 56, 70
3, 226200, Note_off_c, 0, 56, 70
3, 226200, Note_on_c, 0, 53, 79
3, 226320, Note_off_c, 0, 53, 79
3, 226320, Note_on_c, 0, 51, 54
3, 226440, Note_off_c, 0, 51, 54
3, 226440, Note_on_c, 0, 39, 63
3, 226482, Note_off_c, 0, 39, 63
3, 227760, Note_on_c, 0, 61, 95
3, 228000, Note_off_c, 0, 61, 95
3, 228000, Note_on_c, 0, 62, 95
3, 228240, Note_off_c, 0, 62, 95
3, 228240, Note_on_c, 0, 65, 95
3, 228480, Note_off_c, 0, 65, 95
3, 228480, Note_on_c, 0, 72, 95
3, 228640, Note_off_c, 0, 72, 95
3, 228640, Note_on_c, 0, 71, 95
3, 228800, Note_off_c, 0, 71, 95
3, 228800, Note_on_c, 0, 70, 95
3, 228960, Note_off_c, 0, 70, 95
3, 228960, Note_on_c, 1, 68, 111
3, 229120, Pitch_bend_c, 1, 8192
3, 229280, Pitch_bend_c, 1, 8320
3, 229440, Pitch_bend_c, 1, 8192
3, 229600, Pitch_bend_c, 1, 8320
3, 229680, Pitch_bend_c, 1, 8192
3, 229680, Pitch_bend_c, 1, 8320
3, 229680, Pitch_bend_c, 1, 8192
3, 229680, Note_off_c, 1, 68, 111
3, 229680, Note_on_c, 0, 70, 95
3, 229800, Note_off_c, 0, 70, 95
3, 229800, Note_on_c, 0, 68, 95
3, 229920, Note_off_c, 0, 68, 95
3, 229920, Note_on_c, 0, 65, 70
3, 230040, Note_off_c, 0, 65, 70
3, 230040, Note_on_c, 0, 63, 95
3, 230160, Note_off_c, 0, 63, 95
3, 230160, Note_on_c, 0, 61, 70
3, 230280, Note_off_c, 0, 61, 70
3, 230280, Note_on_c, 0, 58, 95
3, 230400, Note_off_c, 0, 58, 95
3, 230400, Note_on_c, 0, 65, 111
3, 230520, Note_off_c, 0, 65, 111
3, 230520, Note_on_c, 0, 66, 70
3, 230640, Note_off_c, 0, 66, 70
3, 230640, Note_on_c, 0, 67, 70
3, 230760, Note_off_c, 0, 67, 70
3, 230760, Note_on_c, 0, 70, 95
3, 230880, Note_off_c, 0, 70, 95
3, 230880, Note_on_c, 1, 63, 95
3, 230880, Note_on_c, 1, 65, 111
3, 231040, Pitch_bend_c, 1, 8192
3, 231040, Pitch_bend_c, 1, 8192
3, 231200, Pitch_bend_c, 1, 8320
3, 231200, Pitch_bend_c, 1, 8320
3, 231360, Pitch_bend_c, 1, 8192
3, 231360, Pitch_bend_c, 1, 8192
3, 231520, Pitch_bend_c, 1, 8320
3, 231520, Pitch_bend_c, 1, 8320
3, 231680, Pitch_bend_c, 1, 8192
3, 231680, Pitch_bend_c, 1, 8192
3, 231840, Pitch_bend_c, 1, 8320
3, 231840, Pitch_bend_c, 1, 8320
3, 232000, Pitch_bend_c, 1, 8192
3, 232000, Pitch_bend_c, 1, 8320
3, 232000, Pitch_bend_c, 1, 8192
3, 232000, Note_off_c, 1, 63, 95
3, 232000, Pitch_bend_c, 1, 8192
3, 232000, Pitch_bend_c, 1, 8320
3, 232000, Pitch_bend_c, 1, 8192
3, 232000, Note_off_c, 1, 65, 111
3, 232000, Note_on_c, 0, 66, 79
3, 232160, Note_off_c, 0, 66, 79
3, 232160, Note_on_c, 0, 67, 54
3, 232320, Note_off_c, 0, 67, 54
3, 236160, Pitch_bend_c, 1, 8192
3, 236160, Note_on_c, 1, 63, 111
3, 236181, Pitch_bend_c, 1, 8320
3, 236202, Pitch_bend_c, 1, 8448
3, 236223, Pitch_bend_c, 1, 8576
3, 236244, Pitch_bend_c, 1, 8704
3, 236265, Pitch_bend_c, 1, 8832
3, 236286, Pitch_bend_c, 1, 8960
3, 236307, Pitch_bend_c, 1, 9088
3, 236328, Pitch_bend_c, 1, 9216
3, 236349, Pitch_bend_c, 1, 9344
3, 236370, Pitch_bend_c, 1, 9472
3, 236391, Pitch_bend_c, 1, 9600
3, 236400, Pitch_bend_c, 1, 9600
3, 236640, Pitch_bend_c, 1, 9600
3, 236640, Pitch_bend_c, 1, 8192
3, 236640, Note_off_c, 1, 63, 111
3, 236640, Note_on_c, 0, 63, 95
3, 236880, Note_off_c, 0, 63, 95
3, 236880, Note_on_c, 0, 61, 95
3, 237120, Note_off_c, 0, 61, 95
3, 237120, Note_on_c, 0, 63, 95
3, 237280, Note_off_c, 0, 63, 95
3, 237280, Note_on_c, 0, 63, 95
3, 237440, Note_off_c, 0, 63, 95
3, 237440, Pitch_bend_c, 1, 9600
3, 237440, Note_on_c, 1, 63, 95
3, 237480, Pitch_bend_c, 1, 9600
3, 237483, Pitch_bend_c, 1, 9472
3, 237486, Pitch_bend_c, 1, 9344
3, 237489, Pitch_bend_c, 1, 9216
3, 237492, Pitch_bend_c, 1, 9088
3, 237495, Pitch_bend_c, 1, 8960
3, 237498, Pitch_bend_c, 1, 8832
3, 237501, Pitch_bend_c, 1, 8704
3, 237504, Pitch_bend_c, 1, 8576
3, 237507, Pitch_bend_c, 1, 8448
3, 237510, Pitch_bend_c, 1, 8320
3, 237513, Pitch_bend_c, 1, 8192
3, 237520, Pitch_bend_c, 1, 8192
3, 237520, Pitch_bend_c, 1, 8192
3, 237520, Note_off_c, 1, 63, 95
3, 237520, Note_on_c, 0, 63, 63
3, 237600, Note_off_c, 0, 63, 63
3, 237600, Note_on_c, 0, 61, 86
3, 237760, Note_off_c, 0, 61, 86
3, 237760, Note_on_c, 0, 58, 95
3, 237920, Note_off_c, 0, 58, 95
3, 237920, Note_on_c, 0, 61, 95
3, 238080, Note_off_c, 0, 61, 95
3, 238080, Note_on_c, 0, 58, 95
3, 238200, Note_off_c, 0, 58, 95
3, 238200, Note_on_c, 0, 56, 70
3, 238320, Note_off_c, 0, 56, 70
3, 238320, Note_on_c, 0, 53, 79
3, 238440, Note_off_c, 0, 53, 79
3, 238440, Note_on_c, 0, 51, 54
3, 238560, Note_off_c, 0, 51, 54
3, 238560, Note_on_c, 0, 48, 63
3, 238800, Note_off_c, 0, 48, 63
3, 238980, Note_on_c, 1, 44, 95
3, 239022, Note_off_c, 1, 44, 95
3, 239040, Note_on_c, 0, 56, 95
3, 239040, Note_on_c, 1, 44, 95
3, 239400, Note_off_c, 0, 56, 95
3, 239400, Note_off_c, 1, 44, 95
3, 239400, Note_on_c, 1, 58, 95
3, 239560, Pitch_bend_c, 1, 8192
3, 239720, Pitch_bend_c, 1, 8320
3, 239880, Pitch_bend_c, 1, 8192
3, 240040, Pitch_bend_c, 1, 8320
3, 240200, Pitch_bend_c, 1, 8192
3, 240360, Pitch_bend_c, 1, 8320
3, 240480, Pitch_bend_c, 1, 8192
3, 240480, Pitch_bend_c, 1, 8320
3, 240480, Pitch_bend_c, 1, 8192
3, 240480, Note_off_c, 1, 58, 95
3, 240480, Note_on_c, 0, 56, 95
3, 240840, Note_off_c, 0, 56, 95
3, 240840, Note_on_c, 0, 58, 95
3, 241200, Note_off_c, 0, 58, 95
3, 241200, Pitch_bend_c, 1, 8192
3, 241200, Note_on_c, 1, 63, 95
3, 241290, Pitch_bend_c, 1, 8320
3, 241380, Pitch_bend_c, 1, 8448
3, 241380, Pitch_bend_c, 1, 8448
3, 241560, Pitch_bend_c, 1, 8448
3, 241560, Pitch_bend_c, 1, 8192
3, 241560, Note_off_c, 1, 63, 95
3, 241560, Pitch_bend_c, 1, 8192
3, 241560, Note_on_c, 1, 61, 95
3, 241620, Pitch_bend_c, 1, 8320
3, 241680, Pitch_bend_c, 1, 8448
3, 241740, Pitch_bend_c, 1, 8576
3, 241800, Pitch_bend_c, 1, 8704
3, 241860, Pitch_bend_c, 1, 8832
3, 241860, Pitch_bend_c, 1, 8832
3, 242160, Pitch_bend_c, 1, 8832
3, 242160, Pitch_bend_c, 1, 8192
3, 242160, Note_off_c, 1, 61, 95
3, 242160, Note_on_c, 0, 58, 95
3, 242400, Note_off_c, 0, 58, 95
3, 242400, Note_on_c, 0, 56, 70
3, 242640, Note_off_c, 0, 56, 70
3, 242640, Note_on_c, 1, 58, 70
3, 242800, Pitch_bend_c, 1, 8192
3, 242960, Pitch_bend_c, 1, 8320
3, 243120, Pitch_bend_c, 1, 8192
3, 243120, Pitch_bend_c, 1, 8320
3, 243120, Pitch_bend_c, 1, 8192
3, 243120, Note_off_c, 1, 58, 70
3, 243120, Note_on_c, 0, 61, 63
3, 243120, Note_on_c, 0, 56, 54
3, 243360, Note_off_c, 0, 61, 63
3, 243360, Note_off_c, 0, 56, 54
3, 243360, Note_on_c, 0, 53, 79
3, 243480, Note_off_c, 0, 53, 79
3, 243480, Note_on_c, 1, 51, 54
3, 243600, Pitch_bend_c, 1, 7552
3, 243600, Pitch_bend_c, 1, 8192
3, 243600, Note_off_c, 1, 51, 54
3, 243600, Note_on_c, 0, 50, 63
3, 243840, Note_off_c, 0, 50, 63
3, 244200, Note_on_c, 1, 56, 79
3, 244320, Note_off_c, 1, 56, 79
3, 244320, Note_on_c, 1, 58, 95
3, 244800, Note_off_c, 1, 58, 95
3, 244800, Note_on_c, 0, 56, 95
3, 245040, Note_off_c, 0, 56, 95
3, 245040, Note_on_c, 0, 51, 95
3, 245280, Note_off_c, 0, 51, 95
3, 245280, Note_on_c, 0, 52, 70
3, 245440, Note_off_c, 0, 52, 70
3, 245440, Note_on_c, 0, 51, 70
3, 245600, Note_off_c, 0, 51, 70
3, 245600, Note_on_c, 0, 39, 95
3, 245642, Note_off_c, 0, 39, 95
3, 245760, Note_on_c, 0, 39, 95
3, 245802, Note_off_c, 0, 39, 95
3, 246240, Pitch_bend_c, 1, 8192
3, 246240, Note_on_c, 1, 63, 95
3, 246261, Pitch_bend_c, 1, 8320
3, 246282, Pitch_bend_c, 1, 8448
3, 246303, Pitch_bend_c, 1, 8576
3, 246324, Pitch_bend_c, 1, 8704
3, 246345, Pitch_bend_c, 1, 8832
3, 246366, Pitch_bend_c, 1, 8960
3, 246387, Pitch_bend_c, 1, 9088
3, 246408, Pitch_bend_c, 1, 9216
3, 246429, Pitch_bend_c, 1, 9344
3, 246450, Pitch_bend_c, 1, 9472
3, 246471, Pitch_bend_c, 1, 9600
3, 246480, Pitch_bend_c, 1, 9600
3, 246720, Pitch_bend_c, 1, 9600
3, 246720, Pitch_bend_c, 1, 8192
3, 246720, Note_off_c, 1, 63, 95
3, 246720, Note_on_c, 0, 70, 95
3, 246960, Note_off_c, 0, 70, 95
3, 246960, Note_on_c, 0, 68, 95
3, 247200, Note_off_c, 0, 68, 95
3, 247200, Note_on_c, 0, 65, 95
3, 247440, Note_off_c, 0, 65, 95
3, 247440, Pitch_bend_c, 1, 8192
3, 247440, Note_on_c, 1, 63, 95
3, 247450, Pitch_bend_c, 1, 8320
3, 247460, Pitch_bend_c, 1, 8448
3, 247470, Pitch_bend_c, 1, 8576
3, 247480, Pitch_bend_c, 1, 8704
3, 247490, Pitch_bend_c, 1, 8832
3, 247500, Pitch_bend_c, 1, 8960
3, 247510, Pitch_bend_c, 1, 9088
3, 247520, Pitch_bend_c, 1, 9216
3, 247530, Pitch_bend_c, 1, 9344
3, 247540, Pitch_bend_c, 1, 9472
3, 247550, Pitch_bend_c, 1, 9600
3, 247560, Pitch_bend_c, 1, 9600
3, 247680, Pitch_bend_c, 1, 9600
3, 247680, Pitch_bend_c, 1, 8192
3, 247680, Note_off_c, 1, 63, 95
3, 247680, Note_on_c, 0, 63, 95
3, 247920, Note_off_c, 0, 63, 95
3, 247920, Pitch_bend_c, 1, 8192
3, 247920, Note_on_c, 1, 61, 95
3, 247980, Pitch_bend_c, 1, 8320
3, 248040, Pitch_bend_c, 1, 8448
3, 248040, Pitch_bend_c, 1, 8448
3, 248160, Pitch_bend_c, 1, 8448
3, 248160, Pitch_bend_c, 1, 8192
3, 248160, Note_off_c, 1, 61, 95
3, 248160, Note_on_c, 0, 58, 95
3, 248320, Note_off_c, 0, 58, 95
3, 248320, Note_on_c, 0, 63, 95
3, 248480, Note_off_c, 0, 63, 95
3, 248480, Note_on_c, 0, 61, 95
3, 248640, Note_off_c, 0, 61, 95
3, 248640, Note_on_c, 0, 58, 95
3, 248760, Note_off_c, 0, 58, 95
3, 248760, Note_on_c, 0, 56, 70
3, 248880, Note_off_c, 0, 56, 70
3, 248880, Note_on_c, 0, 53, 79
3, 249000, Note_off_c, 0, 53, 79
3, 249000, Note_on_c, 0, 51, 54
3, 249120, Note_off_c, 0, 51, 54
3, 249120, Note_on_c, 0, 49, 63
3, 249360, Note_off_c, 0, 49, 63
3, 251520, Pitch_bend_c, 1, 8192
3, 251520, Note_on_c, 1, 63, 111
3, 251530, Pitch_bend_c, 1, 8320
3, 251540, Pitch_bend_c, 1, 8448
3, 251550, Pitch_bend_c, 1, 8576
3, 251560, Pitch_bend_c, 1, 8704
3, 251570, Pitch_bend_c, 1, 8832
3, 251580, Pitch_bend_c, 1, 8960
3, 251590, Pitch_bend_c, 1, 9088
3, 251600, Pitch_bend_c, 1, 9216
3, 251610, Pitch_bend_c, 1, 9344
3, 251620, Pitch_bend_c, 1, 9472
3, 251630, Pitch_bend_c, 1, 9600
3, 251640, Pitch_bend_c, 1, 9600
3, 251760, Pitch_bend_c, 1, 9600
3, 251760, Pitch_bend_c, 1, 8192
3, 251760, Note_off_c, 1, 63, 111
3, 251760, Note_on_c, 0, 65, 95
3, 251880, Note_off_c, 0, 65, 95
3, 251880, Note_on_c, 0, 70, 95
3, 252000, Note_off_c, 0, 70, 95
3, 252000, Note_on_c, 0, 68, 111
3, 252160, Note_off_c, 0, 68, 111
3, 252160, Note_on_c, 0, 65, 95
3, 252320, Note_off_c, 0, 65, 95
3, 252320, Pitch_bend_c, 1, 8192
3, 252320, Note_on_c, 1, 63, 95
3, 252323, Pitch_bend_c, 1, 8320
3, 252326, Pitch_bend_c, 1, 8448
3, 252329, Pitch_bend_c, 1, 8576
3, 252332, Pitch_bend_c, 1, 8704
3, 252335, Pitch_bend_c, 1, 8832
3, 252338, Pitch_bend_c, 1, 8960
3, 252341, Pitch_bend_c, 1, 9088
3, 252344, Pitch_bend_c, 1, 9216
3, 252347, Pitch_bend_c, 1, 9344
3, 252350, Pitch_bend_c, 1, 9472
3, 252353, Pitch_bend_c, 1, 9600
3, 252360, Pitch_bend_c, 1, 9600
3, 252400, Pitch_bend_c, 1, 9600
3, 252407, Pitch_bend_c, 1, 9472
3, 252414, Pitch_bend_c, 1, 9344
3, 252421, Pitch_bend_c, 1, 9216
3, 252428, Pitch_bend_c, 1, 9088
3, 252435, Pitch_bend_c, 1, 8960
3, 252442, Pitch_bend_c, 1, 8832
3, 252449, Pitch_bend_c, 1, 8704
3, 252456, Pitch_bend_c, 1, 8576
3, 252463, Pitch_bend_c, 1, 8448
3, 252470, Pitch_bend_c, 1, 8320
3, 252477, Pitch_bend_c, 1, 8192
3, 252480, Pitch_bend_c, 1, 8192
3, 252480, Pitch_bend_c, 1, 8192
3, 252480, Note_off_c, 1, 63, 95
3, 252480, Note_on_c, 0, 63, 63
3, 252600, Note_off_c, 0, 63, 63
3, 252600, Note_on_c, 0, 61, 70
3, 252600, Note_on_c, 0, 49, 79
3, 252720, Note_off_c, 0, 61, 70
3, 252720, Note_off_c, 0, 49, 79
3, 252720, Note_on_c, 0, 58, 95
3, 252840, Note_off_c, 0, 58, 95
3, 252840, Note_on_c, 0, 61, 95
3, 252960, Note_off_c, 0, 61, 95
3, 252960, Pitch_bend_c, 1, 8192
3, 252960, Note_on_c, 1, 63, 95
3, 252974, Pitch_bend_c, 1, 8320
3, 252988, Pitch_bend_c, 1, 8448
3, 253002, Pitch_bend_c, 1, 8576
3, 253016, Pitch_bend_c, 1, 8704
3, 253030, Pitch_bend_c, 1, 8832
3, 253044, Pitch_bend_c, 1, 8960
3, 253058, Pitch_bend_c, 1, 9088
3, 253072, Pitch_bend_c, 1, 9216
3, 253086, Pitch_bend_c, 1, 9344
3, 253100, Pitch_bend_c, 1, 9472
3, 253114, Pitch_bend_c, 1, 9600
3, 253120, Pitch_bend_c, 1, 9600
3, 253280, Pitch_bend_c, 1, 9600
3, 253280, Pitch_bend_c, 1, 8192
3, 253280, Note_off_c, 1, 63, 95
3, 253280, Note_on_c, 0, 65, 95
3, 253440, Note_off_c, 0, 65, 95
3, 253440, Note_on_c, 0, 70, 95
3, 253600, Note_off_c, 0, 70, 95
3, 253600, Note_on_c, 1, 68, 111
3, 253760, Pitch_bend_c, 1, 8192
3, 253920, Pitch_bend_c, 1, 8320
3, 254080, Pitch_bend_c, 1, 8192
3, 254240, Pitch_bend_c, 1, 8320
3, 254400, Pitch_bend_c, 1, 8192
3, 254560, Pitch_bend_c, 1, 8320
3, 254720, Pitch_bend_c, 1, 8192
3, 254880, Pitch_bend_c, 1, 8320
3, 254880, Note_on_c, 0, 64, 47
3, 255040, Pitch_bend_c, 1, 8192
3, 255200, Pitch_bend_c, 1, 8320
3, 255360, Pitch_bend_c, 1, 8192
3, 255520, Pitch_bend_c, 1, 8320
3, 255680, Pitch_bend_c, 1, 8192
3, 255840, Pitch_bend_c, 1, 8320
3, 255840, Pitch_bend_c, 1, 8192
3, 255840, Note_off_c, 1, 68, 111
3, 255840, Note_off_c, 0, 64, 47
3, 257760, Note_on_c, 0, 68, 95
3, 257920, Note_off_c, 0, 68, 95
3, 257920, Note_on_c, 0, 67, 70
3, 258080, Note_off_c, 0, 67, 70
3, 258080, Note_on_c, 0, 65, 70
3, 258240, Note_off_c, 0, 65, 70
3, 258240, Note_on_c, 0, 63, 95
3, 258720, Note_off_c, 0, 63, 95
3, 258720, Note_on_c, 0, 65, 95
3, 258880, Note_off_c, 0, 65, 95
3, 258880, Note_on_c, 0, 67, 70
3, 259040, Note_off_c, 0, 67, 70
3, 259040, Note_on_c, 0, 68, 70
3, 259200, Note_off_c, 0, 68, 70
3, 259200, Note_on_c, 0, 67, 95
3, 259680, Note_off_c, 0, 67, 95
3, 259680, Note_on_c, 0, 65, 95
3, 259800, Note_off_c, 0, 65, 95
3, 259800, Note_on_c, 0, 67, 70
3, 259920, Note_off_c, 0, 67, 70
3, 259920, Note_on_c, 0, 65, 70
3, 260040, Note_off_c, 0, 65, 70
3, 260040, Note_on_c, 0, 63, 95
3, 260160, Note_off_c, 0, 63, 95
3, 260160, Note_on_c, 0, 65, 95
3, 260256, Note_off_c, 0, 65, 95
3, 260256, Note_on_c, 0, 67, 70
3, 260352, Note_off_c, 0, 67, 70
3, 260352, Note_on_c, 0, 65, 70
3, 260448, Note_off_c, 0, 65, 70
3, 260448, Note_on_c, 0, 63, 95
3, 260544, Note_off_c, 0, 63, 95
3, 260544, Note_on_c, 0, 61, 70
3, 260640, Note_off_c, 0, 61, 70
3, 260640, Note_on_c, 0, 63, 95
3, 260760, Note_off_c, 0, 63, 95
3, 260760, Note_on_c, 0, 61, 70
3, 260880, Note_off_c, 0, 61, 70
3, 260880, Note_on_c, 0, 58, 95
3, 261120, Note_off_c, 0, 58, 95
3, 261120, Note_on_c, 0, 61, 95
3, 261240, Note_off_c, 0, 61, 95
3, 261240, Note_on_c, 0, 63, 70
3, 261360, Note_off_c, 0, 63, 70
3, 261360, Note_on_c, 0, 65, 95
3, 261480, Note_off_c, 0, 65, 95
3, 261480, Note_on_c, 0, 68, 70
3, 261600, Note_off_c, 0, 68, 70
3, 261600, Note_on_c, 0, 65, 70
3, 261720, Note_off_c, 0, 65, 70
3, 261720, Pitch_bend_c, 1, 8192
3, 261720, Note_on_c, 1, 63, 95
3, 261738, Pitch_bend_c, 1, 8320
3, 261756, Pitch_bend_c, 1, 8448
3, 261774, Pitch_bend_c, 1, 8576
3, 261792, Pitch_bend_c, 1, 8704
3, 261810, Pitch_bend_c, 1, 8832
3, 261810, Pitch_bend_c, 1, 8832
3, 261900, Pitch_bend_c, 1, 8832
3, 261936, Pitch_bend_c, 1, 8704
3, 261972, Pitch_bend_c, 1, 8576
3, 262008, Pitch_bend_c, 1, 8448
3, 262044, Pitch_bend_c, 1, 8320
3, 262080, Pitch_bend_c, 1, 8192
3, 262080, Pitch_bend_c, 1, 8192
3, 262080, Pitch_bend_c, 1, 8192
3, 262080, Note_off_c, 1, 63, 95
3, 262080, Note_on_c, 0, 63, 63
3, 262240, Note_off_c, 0, 63, 63
3, 262240, Note_on_c, 0, 61, 70
3, 262400, Note_off_c, 0, 61, 70
3, 262400, Note_on_c, 0, 58, 95
3, 262560, Note_off_c, 0, 58, 95
3, 262560, Note_on_c, 0, 53, 79
3, 263040, Note_off_c, 0, 53, 79
3, 266400, Pitch_bend_c, 1, 8192
3, 266400, Note_on_c, 1, 68, 111
3, 266443, Pitch_bend_c, 1, 8320
3, 266486, Pitch_bend_c, 1, 8448
3, 266529, Pitch_bend_c, 1, 8576
3, 266572, Pitch_bend_c, 1, 8704
3, 266615, Pitch_bend_c, 1, 8832
3, 266658, Pitch_bend_c, 1, 8960
3, 266701, Pitch_bend_c, 1, 9088
3, 266744, Pitch_bend_c, 1, 9216
3, 266787, Pitch_bend_c, 1, 9344
3, 266830, Pitch_bend_c, 1, 9472
3, 266873, Pitch_bend_c, 1, 9600
3, 266880, Pitch_bend_c, 1, 9600
3, 267360, Pitch_bend_c, 1, 9600
3, 267360, Pitch_bend_c, 1, 8192
3, 267360, Note_off_c, 1, 68, 111
3, 267360, Pitch_bend_c, 1, 8192
3, 267360, Note_on_c, 1, 68, 95
3, 267480, Pitch_bend_c, 1, 8320
3, 267600, Pitch_bend_c, 1, 8448
3, 267600, Pitch_bend_c, 1, 8448
3, 267840, Pitch_bend_c, 1, 8448
3, 267840, Pitch_bend_c, 1, 8192
3, 267840, Note_off_c, 1, 68, 95
3, 267840, Pitch_bend_c, 1, 8192
3, 267840, Note_on_c, 1, 68, 111
3, 267854, Pitch_bend_c, 1, 8320
3, 267868, Pitch_bend_c, 1, 8448
3, 267882, Pitch_bend_c, 1, 8576
3, 267896, Pitch_bend_c, 1, 8704
3, 267910, Pitch_bend_c, 1, 8832
3, 267924, Pitch_bend_c, 1, 8960
3, 267938, Pitch_bend_c, 1, 9088
3, 267952, Pitch_bend_c, 1, 9216
3, 267966, Pitch_bend_c, 1, 9344
3, 267980, Pitch_bend_c, 1, 9472
3, 267994, Pitch_bend_c, 1, 9600
3, 268000, Pitch_bend_c, 1, 9600
3, 268160, Pitch_bend_c, 1, 9600
3, 268160, Pitch_bend_c, 1, 8192
3, 268160, Note_off_c, 1, 68, 111
3, 268160, Note_on_c, 0, 73, 95
3, 268320, Note_off_c, 0, 73, 95
3, 268320, Pitch_bend_c, 1, 8832
3, 268320, Note_on_c, 1, 68, 95
3, 268640, Pitch_bend_c, 1, 8832
3, 268640, Pitch_bend_c, 1, 8192
3, 268640, Note_off_c, 1, 68, 95
3, 268640, Pitch_bend_c, 1, 9600
3, 268640, Note_on_c, 1, 68, 95
3, 268800, Pitch_bend_c, 1, 9600
3, 268800, Pitch_bend_c, 1, 8192
3, 268800, Note_off_c, 1, 68, 95
3, 268800, Pitch_bend_c, 1, 8832
3, 268800, Note_on_c, 1, 64, 95
3, 268880, Pitch_bend_c, 1, 8832
3, 268896, Pitch_bend_c, 1, 8704
3, 268912, Pitch_bend_c, 1, 8576
3, 268928, Pitch_bend_c, 1, 8448
3, 268944, Pitch_bend_c, 1, 8320
3, 268960, Pitch_bend_c, 1, 8192
3, 268960, Pitch_bend_c, 1, 8192
3, 269120, Pitch_bend_c, 1, 8192
3, 269120, Pitch_bend_c, 1, 8192
3, 269120, Note_off_c, 1, 64, 95
3, 269120, Note_on_c, 0, 63, 95
3, 269280, Note_off_c, 0, 63, 95
3, 269280, Note_on_c, 0, 61, 95
3, 269520, Note_off_c, 0, 61, 95
3, 269520, Note_on_c, 0, 63, 70
3, 269640, Note_off_c, 0, 63, 70
3, 269640, Note_on_c, 0, 61, 70
3, 269760, Note_off_c, 0, 61, 70
3, 269760, Note_on_c, 0, 58, 95
3, 269920, Note_off_c, 0, 58, 95
3, 269920, Note_on_c, 0, 61, 95
3, 270000, Note_off_c, 0, 61, 95
3, 270000, Pitch_bend_c, 1, 8192
3, 270000, Note_on_c, 1, 63, 70
3, 270007, Pitch_bend_c, 1, 8320
3, 270014, Pitch_bend_c, 1, 8448
3, 270021, Pitch_bend_c, 1, 8576
3, 270028, Pitch_bend_c, 1, 8704
3, 270035, Pitch_bend_c, 1, 8832
3, 270042, Pitch_bend_c, 1, 8960
3, 270049, Pitch_bend_c, 1, 9088
3, 270056, Pitch_bend_c, 1, 9216
3, 270063, Pitch_bend_c, 1, 9344
3, 270070, Pitch_bend_c, 1, 9472
3, 270077, Pitch_bend_c, 1, 9600
3, 270080, Pitch_bend_c, 1, 9600
3, 270240, Pitch_bend_c, 1, 9600
3, 270240, Pitch_bend_c, 1, 8192
3, 270240, Note_off_c, 1, 63, 70
3, 270240, Note_on_c, 0, 68, 95
3, 270480, Note_off_c, 0, 68, 95
3, 270480, Pitch_bend_c, 1, 8192
3, 270480, Note_on_c, 1, 63, 111
3, 270501, Pitch_bend_c, 1, 8320
3, 270522, Pitch_bend_c, 1, 8448
3, 270543, Pitch_bend_c, 1, 8576
3, 270564, Pitch_bend_c, 1, 8704
3, 270585, Pitch_bend_c, 1, 8832
3, 270606, Pitch_bend_c, 1, 8960
3, 270627, Pitch_bend_c, 1, 9088
3, 270648, Pitch_bend_c, 1, 9216
3, 270669, Pitch_bend_c, 1, 9344
3, 270690, Pitch_bend_c, 1, 9472
3, 270711, Pitch_bend_c, 1, 9600
3, 270720, Pitch_bend_c, 1, 9600
3, 271200, Pitch_bend_c, 1, 9600
3, 271200, Pitch_bend_c, 1, 8192
3, 271200, Note_off_c, 1, 63, 111
3, 271200, Note_on_c, 1, 61, 111
3, 271360, Pitch_bend_c, 1, 8192
3, 271520, Pitch_bend_c, 1, 8320
3, 271680, Pitch_bend_c, 1, 8192
3, 271840, Pitch_bend_c, 1, 8320
3, 271920, Pitch_bend_c, 1, 8192
3, 271920, Pitch_bend_c, 1, 8320
3, 271920, Pitch_bend_c, 1, 8192
3, 271920, Note_off_c, 1, 61, 111
3, 276000, Pitch_bend_c, 1, 8192
3, 276000, Note_on_c, 1, 63, 95
3, 276010, Pitch_bend_c, 1, 8320
3, 276020, Pitch_bend_c, 1, 8448
3, 276030, Pitch_bend_c, 1, 8576
3, 276040, Pitch_bend_c, 1, 8704
3, 276050, Pitch_bend_c, 1, 8832
3, 276060, Pitch_bend_c, 1, 8960
3, 276070, Pitch_bend_c, 1, 9088
3, 276080, Pitch_bend_c, 1, 9216
3, 276090, Pitch_bend_c, 1, 9344
3, 276100, Pitch_bend_c, 1, 9472
3, 276110, Pitch_bend_c, 1, 9600
3, 276120, Pitch_bend_c, 1, 9600
3, 276240, Pitch_bend_c, 1, 9600
3, 276240, Pitch_bend_c, 1, 8192
3, 276240, Note_off_c, 1, 63, 95
3, 276240, Note_on_c, 0, 65, 95
3, 276480, Note_off_c, 0, 65, 95
3, 276480, Note_on_c, 0, 70, 111
3, 276720, Note_off_c, 0, 70, 111
3, 276720, Note_on_c, 0, 68, 95
3, 276960, Note_off_c, 0, 68, 95
3, 276960, Note_on_c, 0, 61, 95
3, 277200, Note_off_c, 0, 61, 95
3, 277200, Note_on_c, 1, 61, 111
3, 277360, Pitch_bend_c, 1, 8192
3, 277520, Pitch_bend_c, 1, 8320
3, 277680, Pitch_bend_c, 1, 8192
3, 277840, Pitch_bend_c, 1, 8320
3, 277920, Pitch_bend_c, 1, 8192
3, 277920, Pitch_bend_c, 1, 8320
3, 277920, Pitch_bend_c, 1, 8192
3, 277920, Note_off_c, 1, 61, 111
3, 279680, Note_on_c, 0, 61, 95
3, 279840, Note_off_c, 0, 61, 95
3, 279840, Note_on_c, 0, 62, 111
3, 280000, Note_off_c, 0, 62, 111
3, 280000, Note_on_c, 0, 65, 95
3, 280320, Note_off_c, 0, 65, 95
3, 280320, Pitch_bend_c, 1, 8192
3, 280320, Note_on_c, 1, 72, 95
3, 280334, Pitch_bend_c, 1, 8320
3, 280348, Pitch_bend_c, 1, 8448
3, 280362, Pitch_bend_c, 1, 8576
3, 280376, Pitch_bend_c, 1, 8704
3, 280390, Pitch_bend_c, 1, 8832
3, 280404, Pitch_bend_c, 1, 8960
3, 280418, Pitch_bend_c, 1, 9088
3, 280432, Pitch_bend_c, 1, 9216
3, 280446, Pitch_bend_c, 1, 9344
3, 280460, Pitch_bend_c, 1, 9472
3, 280474, Pitch_bend_c, 1, 9600
3, 280480, Pitch_bend_c, 1, 9600
3, 280640, Pitch_bend_c, 1, 9600
3, 280640, Pitch_bend_c, 1, 8192
3, 280640, Note_off_c, 1, 72, 95
3, 280640, Note_on_c, 0, 72, 95
3, 280800, Note_off_c, 0, 72, 95
3, 280800, Note_on_c, 1, 61, 111
3, 280960, Pitch_bend_c, 1, 8192
3, 281120, Pitch_bend_c, 1, 8320
3, 281280, Pitch_bend_c, 1, 8192
3, 281440, Pitch_bend_c, 1, 8320
3, 281600, Pitch_bend_c, 1, 8192
3, 281760, Pitch_bend_c, 1, 8320
3, 281760, Pitch_bend_c, 1, 8192
3, 281760, Note_off_c, 1, 61, 111
3, 281760, Note_on_c, 0, 67, 47
3, 281760, Note_on_c, 0, 63, 47
3, 282000, Note_off_c, 0, 67, 47
3, 282000, Note_off_c, 0, 63, 47
3, 282000, Note_on_c, 0, 65, 47
3, 282000, Note_on_c, 0, 61, 47
3, 282240, Note_off_c, 0, 65, 47
3, 282240, Note_off_c, 0, 61, 47
3, 282240, Pitch_bend_c, 1, 8192
3, 282240, Note_on_c, 1, 63, 111
3, 282261, Pitch_bend_c, 1, 8320
3, 282282, Pitch_bend_c, 1, 8448
3, 282303, Pitch_bend_c, 1, 8576
3, 282324, Pitch_bend_c, 1, 8704
3, 282345, Pitch_bend_c, 1, 8832
3, 282366, Pitch_bend_c, 1, 8960
3, 282387, Pitch_bend_c, 1, 9088
3, 282408, Pitch_bend_c, 1, 9216
3, 282429, Pitch_bend_c, 1, 9344
3, 282450, Pitch_bend_c, 1, 9472
3, 282471, Pitch_bend_c, 1, 9600
3, 282480, Pitch_bend_c, 1, 9600
3, 282720, Pitch_bend_c, 1, 9600
3, 282720, Pitch_bend_c, 1, 8192
3, 282720, Note_off_c, 1, 63, 111
3, 282720, Note_on_c, 0, 65, 95
3, 282880, Note_off_c, 0, 65, 95
3, 282880, Note_on_c, 0, 70, 95
3, 283040, Note_off_c, 0, 70, 95
3, 283040, Note_on_c, 0, 68, 95
3, 283200, Note_off_c, 0, 68, 95
3, 283200, Pitch_bend_c, 1, 8192
3, 283200, Note_on_c, 1, 65, 95
3, 283224, Pitch_bend_c, 1, 8320
3, 283248, Pitch_bend_c, 1, 8448
3, 283272, Pitch_bend_c, 1, 8576
3, 283296, Pitch_bend_c, 1, 8704
3, 283320, Pitch_bend_c, 1, 8832
3, 283320, Pitch_bend_c, 1, 8832
3, 283360, Pitch_bend_c, 1, 8960
3, 283400, Pitch_bend_c, 1, 9088
3, 283440, Pitch_bend_c, 1, 9216
3, 283480, Pitch_bend_c, 1, 9344
3, 283520, Pitch_bend_c, 1, 9472
3, 283560, Pitch_bend_c, 1, 9600
3, 283560, Pitch_bend_c, 1, 9600
3, 283680, Pitch_bend_c, 1, 9600
3, 284640, Pitch_bend_c, 1, 9600
3, 284640, Pitch_bend_c, 1, 8192
3, 284640, Note_off_c, 1, 65, 95
3, 284640, Pitch_bend_c, 1, 8192
3, 284640, Note_on_c, 1, 65, 95
3, 284688, Pitch_bend_c, 1, 8320
3, 284736, Pitch_bend_c, 1, 8448
3, 284784, Pitch_bend_c, 1, 8576
3, 284832, Pitch_bend_c, 1, 8704
3, 284880, Pitch_bend_c, 1, 8832
3, 284880, Pitch_bend_c, 1, 8832
3, 285120, Pitch_bend_c, 1, 8832
3, 285120, Pitch_bend_c, 1, 8192
3, 285120, Note_off_c, 1, 65, 95
3, 285120, Note_on_c, 0, 72, 95
3, 285280, Note_off_c, 0, 72, 95
3, 285280, Note_on_c, 0, 71, 70
3, 285440, Note_off_c, 0, 71, 70
3, 285440, Note_on_c, 0, 70, 70
3, 285600, Note_off_c, 0, 70, 70
3, 285600, Note_on_c, 0, 68, 95
3, 285760, Note_off_c, 0, 68, 95
3, 285760, Note_on_c, 0, 67, 70
3, 285920, Note_off_c, 0, 67, 70
3, 285920, Note_on_c, 0, 65, 70
3, 286080, Note_off_c, 0, 65, 70
3, 286080, Pitch_bend_c, 1, 8192
3, 286080, Note_on_c, 1, 63, 95
3, 286109, Pitch_bend_c, 1, 8320
3, 286138, Pitch_bend_c, 1, 8448
3, 286167, Pitch_bend_c, 1, 8576
3, 286196, Pitch_bend_c, 1, 8704
3, 286225, Pitch_bend_c, 1, 8832
3, 286254, Pitch_bend_c, 1, 8960
3, 286283, Pitch_bend_c, 1, 9088
3, 286312, Pitch_bend_c, 1, 9216
3, 286341, Pitch_bend_c, 1, 9344
3, 286370, Pitch_bend_c, 1, 9472
3, 286399, Pitch_bend_c, 1, 9600
3, 286400, Pitch_bend_c, 1, 9600
3, 286560, Pitch_bend_c, 1, 9600
3, 286560, Pitch_bend_c, 1, 8192
3, 286560, Note_off_c, 1, 63, 95
3, 286560, Note_on_c, 0, 68, 95
3, 286800, Note_off_c, 0, 68, 95
3, 286800, Pitch_bend_c, 1, 8192
3, 286800, Note_on_c, 1, 63, 95
3, 286810, Pitch_bend_c, 1, 8320
3, 286820, Pitch_bend_c, 1, 8448
3, 286830, Pitch_bend_c, 1, 8576
3, 286840, Pitch_bend_c, 1, 8704
3, 286850, Pitch_bend_c, 1, 8832
3, 286860, Pitch_bend_c, 1, 8960
3, 286870, Pitch_bend_c, 1, 9088
3, 286880, Pitch_bend_c, 1, 9216
3, 286890, Pitch_bend_c, 1, 9344
3, 286900, Pitch_bend_c, 1, 9472
3, 286910, Pitch_bend_c, 1, 9600
3, 286920, Pitch_bend_c, 1, 9600
3, 287040, Pitch_bend_c, 1, 9600
3, 287040, Pitch_bend_c, 1, 8192
3, 287040, Note_off_c, 1, 63, 95
3, 287040, Note_on_c, 0, 63, 95
3, 287200, Note_off_c, 0, 63, 95
3, 287200, Note_on_c, 0, 61, 70
3, 287360, Note_off_c, 0, 61, 70
3, 287360, Note_on_c, 0, 58, 95
3, 287520, Note_off_c, 0, 58, 95
3, 287520, Note_on_c, 0, 61, 95
3, 287760, Note_off_c, 0, 61, 95
3, 287760, Note_on_c, 0, 63, 95
3, 288000, Note_off_c, 0, 63, 95
3, 288000, Pitch_bend_c, 1, 8192
3, 288000, Note_on_c, 1, 65, 95
3, 288043, Pitch_bend_c, 1, 8320
3, 288086, Pitch_bend_c, 1, 8448
3, 288129, Pitch_bend_c, 1, 8576
3, 288172, Pitch_bend_c, 1, 8704
3, 288215, Pitch_bend_c, 1, 8832
3, 288258, Pitch_bend_c, 1, 8960
3, 288301, Pitch_bend_c, 1, 9088
3, 288344, Pitch_bend_c, 1, 9216
3, 288387, Pitch_bend_c, 1, 9344
3, 288430, Pitch_bend_c, 1, 9472
3, 288473, Pitch_bend_c, 1, 9600
3, 288480, Pitch_bend_c, 1, 9600
3, 288960, Pitch_bend_c, 1, 9600
3, 288960, Pitch_bend_c, 1, 8192
3, 288960, Note_off_c, 1, 65, 95
3, 288960, Note_on_c, 0, 65, 95
3, 289200, Note_off_c, 0, 65, 95
3, 289200, Note_on_c, 0, 63, 95
3, 289440, Note_off_c, 0, 63, 95
3, 289440, Pitch_bend_c, 1, 9600
3, 289440, Note_on_c, 1, 63, 95
3, 289600, Pitch_bend_c, 1, 9600
3, 289607, Pitch_bend_c, 1, 9472
3, 289614, Pitch_bend_c, 1, 9344
3, 289621, Pitch_bend_c, 1, 9216
3, 289628, Pitch_bend_c, 1, 9088
3, 289635, Pitch_bend_c, 1, 8960
3, 289642, Pitch_bend_c, 1, 8832
3, 289649, Pitch_bend_c, 1, 8704
3, 289656, Pitch_bend_c, 1, 8576
3, 289663, Pitch_bend_c, 1, 8448
3, 289670, Pitch_bend_c, 1, 8320
3, 289677, Pitch_bend_c, 1, 8192
3, 289680, Pitch_bend_c, 1, 8192
3, 290400, Pitch_bend_c, 1, 8192
3, 290400, Pitch_bend_c, 1, 8192
3, 290400, Note_off_c, 1, 63, 95
3, 290400, Pitch_bend_c, 1, 8192
3, 290400, Note_on_c, 1, 61, 95
3, 290460, Pitch_bend_c, 1, 8320
3, 290520, Pitch_bend_c, 1, 8448
3, 290520, Pitch_bend_c, 1, 8448
3, 290640, Pitch_bend_c, 1, 8448
3, 290640, Pitch_bend_c, 1, 8192
3, 290640, Note_off_c, 1, 61, 95
3, 290640, Note_on_c, 0, 63, 95
3, 290880, Note_off_c, 0, 63, 95
3, 290880, Pitch_bend_c, 1, 8192
3, 290880, Note_on_c, 1, 61, 95
3, 290910, Pitch_bend_c, 1, 8320
3, 290940, Pitch_bend_c, 1, 8448
3, 290970, Pitch_bend_c, 1, 8576
3, 291000, Pitch_bend_c, 1, 8704
3, 291030, Pitch_bend_c, 1, 8832
3, 291060, Pitch_bend_c, 1, 8960
3, 291090, Pitch_bend_c, 1, 9088
3, 291120, Pitch_bend_c, 1, 9216
3, 291150, Pitch_bend_c, 1, 9344
3, 291180, Pitch_bend_c, 1, 9472
3, 291210, Pitch_bend_c, 1, 9600
3, 291240, Pitch_bend_c, 1, 9728
3, 291270, Pitch_bend_c, 1, 9856
3, 291300, Pitch_bend_c, 1, 9984
3, 291330, Pitch_bend_c, 1, 10112
3, 291360, Pitch_bend_c, 1, 10240
3, 291360, Pitch_bend_c, 1, 10240
3, 291600, Pitch_bend_c, 1, 10240
3, 291600, Pitch_bend_c, 1, 8192
3, 291600, Note_off_c, 1, 61, 95
3, 291840, Note_on_c, 0, 54, 47
3, 291882, Note_off_c, 0, 54, 47
3, 292000, Note_on_c, 0, 54, 95
3, 292042, Note_off_c, 0, 54, 95
3, 293280, Pitch_bend_c, 1, 10240
3, 293280, Note_on_c, 1, 61, 95
3, 293380, Pitch_bend_c, 1, 10240
3, 293392, Pitch_bend_c, 1, 10112
3, 293404, Pitch_bend_c, 1, 9984
3, 293416, Pitch_bend_c, 1, 9856
3, 293428, Pitch_bend_c, 1, 9728
3, 293440, Pitch_bend_c, 1, 9600
3, 293452, Pitch_bend_c, 1, 9472
3, 293464, Pitch_bend_c, 1, 9344
3, 293476, Pitch_bend_c, 1, 9216
3, 293488, Pitch_bend_c, 1, 9088
3, 293500, Pitch_bend_c, 1, 8960
3, 293512, Pitch_bend_c, 1, 8832
3, 293524, Pitch_bend_c, 1, 8704
3, 293536, Pitch_bend_c, 1, 8576
3, 293548, Pitch_bend_c, 1, 8448
3, 293560, Pitch_bend_c, 1, 8320
3, 293572, Pitch_bend_c, 1, 8192
3, 293580, Pitch_bend_c, 1, 8192
3, 293589, Pitch_bend_c, 1, 8320
3, 293598, Pitch_bend_c, 1, 8448
3, 293607, Pitch_bend_c, 1, 8576
3, 293616, Pitch_bend_c, 1, 8704
3, 293625, Pitch_bend_c, 1, 8832
3, 293634, Pitch_bend_c, 1, 8960
3, 293643, Pitch_bend_c, 1, 9088
3, 293652, Pitch_bend_c, 1, 9216
3, 293661, Pitch_bend_c, 1, 9344
3, 293670, Pitch_bend_c, 1, 9472
3, 293679, Pitch_bend_c, 1, 9600
3, 293680, Pitch_bend_c, 1, 9600
3, 294480, Pitch_bend_c, 1, 9600
3, 294480, Pitch_bend_c, 1, 8192
3, 294480, Note_off_c, 1, 61, 95
3, 294480, Note_on_c, 0, 61, 95
3, 294720, Note_off_c, 0, 61, 95
3, 294720, Note_on_c, 0, 58, 95
3, 294960, Note_off_c, 0, 58, 95
3, 294960, Pitch_bend_c, 1, 8192
3, 294960, Note_on_c, 1, 56, 95
3, 294984, Pitch_bend_c, 1, 8320
3, 295008, Pitch_bend_c, 1, 8448
3, 295032, Pitch_bend_c, 1, 8576
3, 295056, Pitch_bend_c, 1, 8704
3, 295080, Pitch_bend_c, 1, 8832
3, 295080, Pitch_bend_c, 1, 8832
3, 295200, Pitch_bend_c, 1, 8832
3, 295200, Pitch_bend_c, 1, 8192
3, 295200, Note_off_c, 1, 56, 95
3, 295200, Note_on_c, 0, 53, 95
3, 295360, Note_off_c, 0, 53, 95
3, 295360, Note_on_c, 0, 52, 95
3, 295520, Note_off_c, 0, 52, 95
3, 295520, Note_on_c, 0, 51, 95
3, 295620, Note_on_c, 1, 39, 95
3, 295662, Note_off_c, 1, 39, 95
3, 295680, Note_off_c, 0, 51, 95
3, 295680, Note_on_c, 0, 51, 95
3, 295680, Note_on_c, 1, 39, 95
3, 295840, Note_off_c, 0, 51, 95
3, 295840, Note_off_c, 1, 39, 95
3, 295840, Note_on_c, 0, 46, 95
3, 296160, Note_off_c, 0, 46, 95
3, 296160, Note_on_c, 0, 46, 95
3, 296175, Note_on_c, 0, 53, 95
3, 296190, Note_on_c, 0, 58, 95
3, 296205, Note_on_c, 0, 62, 95
3, 296220, Note_on_c, 0, 65, 95
3, 296235, Note_on_c, 0, 70, 95
3, 296640, Note_off_c, 0, 70, 95
3, 296640, Note_off_c, 0, 65, 95
3, 296640, Note_off_c, 0, 62, 95
3, 296640, Note_off_c, 0, 58, 95
3, 296640, Note_off_c, 0, 53, 95
3, 296640, Note_off_c, 0, 46, 95
3, 296640, Note_on_c, 0, 68, 95
3, 296880, Note_off_c, 0, 68, 95
3, 296880, Note_on_c, 0, 65, 95
3, 297120, Note_off_c, 0, 65, 95
3, 297120, Pitch_bend_c, 1, 8192
3, 297120, Note_on_c, 1, 68, 95
3, 297130, Pitch_bend_c, 1, 8320
3, 297140, Pitch_bend_c, 1, 8448
3, 297150, Pitch_bend_c, 1, 8576
3, 297160, Pitch_bend_c, 1, 8704
3, 297170, Pitch_bend_c, 1, 8832
3, 297180, Pitch_bend_c, 1, 8960
3, 297190, Pitch_bend_c, 1, 9088
3, 297200, Pitch_bend_c, 1, 9216
3, 297210, Pitch_bend_c, 1, 9344
3, 297220, Pitch_bend_c, 1, 9472
3, 297230, Pitch_bend_c, 1, 9600
3, 297240, Pitch_bend_c, 1, 9600
3, 297360, Pitch_bend_c, 1, 9600
3, 297360, Pitch_bend_c, 1, 8192
3, 297360, Note_off_c, 1, 68, 95
3, 297360, Pitch_bend_c, 1, 8832
3, 297360, Note_on_c, 1, 64, 95
3, 297450, Pitch_bend_c, 1, 8832
3, 297468, Pitch_bend_c, 1, 8704
3, 297486, Pitch_bend_c, 1, 8576
3, 297504, Pitch_bend_c, 1, 8448
3, 297522, Pitch_bend_c, 1, 8320
3, 297540, Pitch_bend_c, 1, 8192
3, 297540, Pitch_bend_c, 1, 8192
3, 297720, Pitch_bend_c, 1, 8192
3, 297720, Pitch_bend_c, 1, 8192
3, 297720, Note_off_c, 1, 64, 95
3, 297720, Note_on_c, 0, 63, 95
3, 297900, Note_off_c, 0, 63, 95
3, 297900, Note_on_c, 0, 61, 95
3, 298080, Note_off_c, 0, 61, 95
3, 298080, Note_on_c, 0, 68, 95
3, 298320, Note_off_c, 0, 68, 95
3, 298320, Pitch_bend_c, 1, 8192
3, 298320, Note_on_c, 1, 61, 95
3, 298335, Pitch_bend_c, 1, 8320
3, 298350, Pitch_bend_c, 1, 8448
3, 298365, Pitch_bend_c, 1, 8576
3, 298380, Pitch_bend_c, 1, 8704
3, 298395, Pitch_bend_c, 1, 8832
3, 298410, Pitch_bend_c, 1, 8960
3, 298425, Pitch_bend_c, 1, 9088
3, 298440, Pitch_bend_c, 1, 9216
3, 298455, Pitch_bend_c, 1, 9344
3, 298470, Pitch_bend_c, 1, 9472
3, 298485, Pitch_bend_c, 1, 9600
3, 298500, Pitch_bend_c, 1, 9728
3, 298515, Pitch_bend_c, 1, 9856
3, 298530, Pitch_bend_c, 1, 9984
3, 298545, Pitch_bend_c, 1, 10112
3, 298560, Pitch_bend_c, 1, 10240
3, 298560, Pitch_bend_c, 1, 10240
3, 298800, Pitch_bend_c, 1, 10240
3, 298800, Pitch_bend_c, 1, 8192
3, 298800, Note_off_c, 1, 61, 95
3, 299200, Pitch_bend_c, 1, 8192
3, 299200, Note_on_c, 1, 63, 95
3, 299207, Pitch_bend_c, 1, 8320
3, 299214, Pitch_bend_c, 1, 8448
3, 299221, Pitch_bend_c, 1, 8576
3, 299228, Pitch_bend_c, 1, 8704
3, 299235, Pitch_bend_c, 1, 8832
3, 299242, Pitch_bend_c, 1, 8960
3, 299249, Pitch_bend_c, 1, 9088
3, 299256, Pitch_bend_c, 1, 9216
3, 299263, Pitch_bend_c, 1, 9344
3, 299270, Pitch_bend_c, 1, 9472
3, 299277, Pitch_bend_c, 1, 9600
3, 299280, Pitch_bend_c, 1, 9600
3, 299360, Pitch_bend_c, 1, 9600
3, 299360, Pitch_bend_c, 1, 8192
3, 299360, Note_off_c, 1, 63, 95
3, 299360, Note_on_c, 0, 65, 95
3, 299520, Note_off_c, 0, 65, 95
3, 299520, Note_on_c, 0, 70, 95
3, 299680, Note_off_c, 0, 70, 95
3, 299680, Pitch_bend_c, 1, 8192
3, 299680, Note_on_c, 1, 73, 111
3, 299712, Pitch_bend_c, 1, 8320
3, 299744, Pitch_bend_c, 1, 8448
3, 299776, Pitch_bend_c, 1, 8576
3, 299808, Pitch_bend_c, 1, 8704
3, 299840, Pitch_bend_c, 1, 8832
3, 299840, Pitch_bend_c, 1, 8832
3, 300000, Pitch_bend_c, 1, 8832
3, 300000, Pitch_bend_c, 1, 8192
3, 300000, Note_off_c, 1, 73, 111
3, 300000, Pitch_bend_c, 1, 9600
3, 300000, Note_on_c, 1, 68, 95
3, 300000, Pitch_bend_c, 1, 8832
3, 300000, Note_on_c, 1, 64, 95
3, 300120, Pitch_bend_c, 1, 9600
3, 300120, Pitch_bend_c, 1, 8832
3, 300130, Pitch_bend_c, 1, 9472
3, 300140, Pitch_bend_c, 1, 9344
3, 300144, Pitch_bend_c, 1, 8704
3, 300150, Pitch_bend_c, 1, 9216
3, 300160, Pitch_bend_c, 1, 9088
3, 300168, Pitch_bend_c, 1, 8576
3, 300170, Pitch_bend_c, 1, 8960
3, 300180, Pitch_bend_c, 1, 8832
3, 300190, Pitch_bend_c, 1, 8704
3, 300192, Pitch_bend_c, 1, 8448
3, 300200, Pitch_bend_c, 1, 8576
3, 300210, Pitch_bend_c, 1, 8448
3, 300216, Pitch_bend_c, 1, 8320
3, 300220, Pitch_bend_c, 1, 8320
3, 300230, Pitch_bend_c, 1, 8192
3, 300240, Pitch_bend_c, 1, 8192
3, 300240, Pitch_bend_c, 1, 8192
3, 300240, Pitch_bend_c, 1, 8192
3, 300480, Pitch_bend_c, 1, 8192
3, 300480, Pitch_bend_c, 1, 8192
3, 300480, Note_off_c, 1, 68, 95
3, 300480, Pitch_bend_c, 1, 8192
3, 300480, Pitch_bend_c, 1, 8192
3, 300480, Note_off_c, 1, 64, 95
3, 301440, Pitch_bend_c, 1, 8192
3, 301440, Note_on_c, 1, 68, 95
3, 301472, Pitch_bend_c, 1, 8320
3, 301504, Pitch_bend_c, 1, 8448
3, 301536, Pitch_bend_c, 1, 8576
3, 301568, Pitch_bend_c, 1, 8704
3, 301600, Pitch_bend_c, 1, 8832
3, 301632, Pitch_bend_c, 1, 8960
3, 301664, Pitch_bend_c, 1, 9088
3, 301696, Pitch_bend_c, 1, 9216
3, 301728, Pitch_bend_c, 1, 9344
3, 301760, Pitch_bend_c, 1, 9472
3, 301792, Pitch_bend_c, 1, 9600
3, 301800, Pitch_bend_c, 1, 9600
3, 302160, Pitch_bend_c, 1, 9600
3, 302160, Pitch_bend_c, 1, 8192
3, 302160, Note_off_c, 1, 68, 95
3, 302160, Pitch_bend_c, 1, 8448
3, 302160, Note_on_c, 1, 68, 95
3, 302400, Pitch_bend_c, 1, 8448
3, 302400, Pitch_bend_c, 1, 8192
3, 302400, Note_off_c, 1, 68, 95
3, 302400, Pitch_bend_c, 1, 9600
3, 302400, Note_on_c, 1, 68, 95
3, 302640, Pitch_bend_c, 1, 9600
3, 302640, Pitch_bend_c, 1, 8192
3, 302640, Note_off_c, 1, 68, 95
3, 302640, Pitch_bend_c, 1, 8448
3, 302640, Note_on_c, 1, 68, 95
3, 302880, Pitch_bend_c, 1, 8448
3, 302880, Pitch_bend_c, 1, 8192
3, 302880, Note_off_c, 1, 68, 95
3, 302880, Pitch_bend_c, 1, 9600
3, 302880, Note_on_c, 1, 68, 95
3, 303360, Pitch_bend_c, 1, 9600
3, 303360, Pitch_bend_c, 1, 8192
3, 303360, Note_off_c, 1, 68, 95
3, 303680, Pitch_bend_c, 1, 8192
3, 303680, Note_on_c, 1, 68, 95
3, 303684, Pitch_bend_c, 1, 8320
3, 303688, Pitch_bend_c, 1, 8448
3, 303692, Pitch_bend_c, 1, 8576
3, 303696, Pitch_bend_c, 1, 8704
3, 303700, Pitch_bend_c, 1, 8832
3, 303704, Pitch_bend_c, 1, 8960
3, 303708, Pitch_bend_c, 1, 9088
3, 303712, Pitch_bend_c, 1, 9216
3, 303716, Pitch_bend_c, 1, 9344
3, 303720, Pitch_bend_c, 1, 9472
3, 303724, Pitch_bend_c, 1, 9600
3, 303728, Pitch_bend_c, 1, 9728
3, 303732, Pitch_bend_c, 1, 9856
3, 303736, Pitch_bend_c, 1, 9984
3, 303740, Pitch_bend_c, 1, 10112
3, 303744, Pitch_bend_c, 1, 10240
3, 303748, Pitch_bend_c, 1, 10368
3, 303752, Pitch_bend_c, 1, 10496
3, 303756, Pitch_bend_c, 1, 10624
3, 303760, Pitch_bend_c, 1, 10752
3, 303764, Pitch_bend_c, 1, 10880
3, 303768, Pitch_bend_c, 1, 11008
3, 303786, Pitch_bend_c, 1, 11008
3, 303946, Pitch_bend_c, 1, 11008
3, 303953, Pitch_bend_c, 1, 10880
3, 303960, Pitch_bend_c, 1, 10752
3, 303967, Pitch_bend_c, 1, 10624
3, 303974, Pitch_bend_c, 1, 10496
3, 303981, Pitch_bend_c, 1, 10368
3, 303988, Pitch_bend_c, 1, 10240
3, 303995, Pitch_bend_c, 1, 10112
3, 304002, Pitch_bend_c, 1, 9984
3, 304009, Pitch_bend_c, 1, 9856
3, 304016, Pitch_bend_c, 1, 9728
3, 304023, Pitch_bend_c, 1, 9600
3, 304030, Pitch_bend_c, 1, 9472
3, 304037, Pitch_bend_c, 1, 9344
3, 304044, Pitch_bend_c, 1, 9216
3, 304051, Pitch_bend_c, 1, 9088
3, 304058, Pitch_bend_c, 1, 8960
3, 304065, Pitch_bend_c, 1, 8832
3, 304072, Pitch_bend_c, 1, 8704
3, 304079, Pitch_bend_c, 1, 8576
3, 304086, Pitch_bend_c, 1, 8448
3, 304093, Pitch_bend_c, 1, 8320
3, 304100, Pitch_bend_c, 1, 8192
3, 304106, Pitch_bend_c, 1, 8192
3, 304320, Pitch_bend_c, 1, 8192
3, 304320, Pitch_bend_c, 1, 8192
3, 304320, Note_off_c, 1, 68, 95
3, 304320, Note_on_c, 0, 65, 95
3, 304560, Note_off_c, 0, 65, 95
3, 304560, Pitch_bend_c, 1, 8192
3, 304560, Note_on_c, 1, 68, 95
3, 304570, Pitch_bend_c, 1, 8320
3, 304580, Pitch_bend_c, 1, 8448
3, 304590, Pitch_bend_c, 1, 8576
3, 304600, Pitch_bend_c, 1, 8704
3, 304610, Pitch_bend_c, 1, 8832
3, 304620, Pitch_bend_c, 1, 8960
3, 304630, Pitch_bend_c, 1, 9088
3, 304640, Pitch_bend_c, 1, 9216
3, 304650, Pitch_bend_c, 1, 9344
3, 304660, Pitch_bend_c, 1, 9472
3, 304670, Pitch_bend_c, 1, 9600
3, 304680, Pitch_bend_c, 1, 9600
3, 304800, Pitch_bend_c, 1, 9600
3, 304800, Pitch_bend_c, 1, 8192
3, 304800, Note_off_c, 1, 68, 95
3, 304800, Pitch_bend_c, 1, 9600
3, 304800, Note_on_c, 1, 68, 95
3, 305760, Pitch_bend_c, 1, 9600
3, 305760, Pitch_bend_c, 1, 8192
3, 305760, Note_off_c, 1, 68, 95
3, 306720, Pitch_bend_c, 1, 8192
3, 306720, Note_on_c, 1, 68, 95
3, 306752, Pitch_bend_c, 1, 8320
3, 306784, Pitch_bend_c, 1, 8448
3, 306816, Pitch_bend_c, 1, 8576
3, 306848, Pitch_bend_c, 1, 8704
3, 306880, Pitch_bend_c, 1, 8832
3, 306912, Pitch_bend_c, 1, 8960
3, 306944, Pitch_bend_c, 1, 9088
3, 306976, Pitch_bend_c, 1, 9216
3, 307008, Pitch_bend_c, 1, 9344
3, 307040, Pitch_bend_c, 1, 9472
3, 307072, Pitch_bend_c, 1, 9600
3, 307080, Pitch_bend_c, 1, 9600
3, 307440, Pitch_bend_c, 1, 9600
3, 307440, Pitch_bend_c, 1, 8192
3, 307440, Note_off_c, 1, 68, 95
3, 307440, Note_on_c, 0, 65, 95
3, 307680, Note_off_c, 0, 65, 95
3, 307680, Note_on_c, 0, 68, 95
3, 307920, Note_off_c, 0, 68, 95
3, 307920, Note_on_c, 0, 65, 95
3, 308040, Note_off_c, 0, 65, 95
3, 308040, Note_on_c, 0, 67, 70
3, 308160, Note_off_c, 0, 67, 70
3, 308160, Note_on_c, 0, 65, 70
3, 308320, Note_off_c, 0, 65, 70
3, 308320, Note_on_c, 0, 63, 95
3, 308480, Note_off_c, 0, 63, 95
3, 308480, Note_on_c, 0, 65, 95
3, 308640, Note_off_c, 0, 65, 95
3, 308640, Note_on_c, 0, 63, 95
3, 308800, Note_off_c, 0, 63, 95
3, 308800, Note_on_c, 0, 65, 47
3, 308800, Note_on_c, 0, 61, 22
3, 308960, Note_off_c, 0, 65, 47
3, 308960, Note_off_c, 0, 61, 22
3, 308960, Note_on_c, 0, 58, 95
3, 309120, Note_off_c, 0, 58, 95
3, 309120, Note_on_c, 0, 61, 95
3, 309120, Note_on_c, 0, 49, 95
3, 309280, Note_off_c, 0, 61, 95
3, 309280, Note_off_c, 0, 49, 95
3, 309280, Pitch_bend_c, 1, 8192
3, 309280, Note_on_c, 1, 63, 95
3, 309312, Pitch_bend_c, 1, 8320
3, 309344, Pitch_bend_c, 1, 8448
3, 309376, Pitch_bend_c, 1, 8576
3, 309408, Pitch_bend_c, 1, 8704
3, 309440, Pitch_bend_c, 1, 8832
3, 309440, Pitch_bend_c, 1, 8832
3, 309600, Pitch_bend_c, 1, 8832
3, 309600, Pitch_bend_c, 1, 8192
3, 309600, Note_off_c, 1, 63, 95
3, 309600, Note_on_c, 0, 65, 95
3, 309840, Note_off_c, 0, 65, 95
3, 309840, Note_on_c, 0, 68, 95
3, 310080, Note_off_c, 0, 68, 95
3, 310080, Pitch_bend_c, 1, 8192
3, 310080, Note_on_c, 1, 68, 95
3, 310090, Pitch_bend_c, 1, 8320
3, 310100, Pitch_bend_c, 1, 8448
3, 310110, Pitch_bend_c, 1, 8576
3, 310120, Pitch_bend_c, 1, 8704
3, 310130, Pitch_bend_c, 1, 8832
3, 310140, Pitch_bend_c, 1, 8960
3, 310150, Pitch_bend_c, 1, 9088
3, 310160, Pitch_bend_c, 1, 9216
3, 310170, Pitch_bend_c, 1, 9344
3, 310180, Pitch_bend_c, 1, 9472
3, 310190, Pitch_bend_c, 1, 9600
3, 310200, Pitch_bend_c, 1, 9600
3, 310320, Pitch_bend_c, 1, 9600
3, 310320, Pitch_bend_c, 1, 8192
3, 310320, Note_off_c, 1, 68, 95
3, 310320, Note_on_c, 0, 68, 95
3, 310560, Note_off_c, 0, 68, 95
3, 310560, Note_on_c, 0, 65, 95
3, 310800, Note_off_c, 0, 65, 95
3, 310800, Pitch_bend_c, 1, 8192
3, 310800, Note_on_c, 1, 68, 95
3, 310810, Pitch_bend_c, 1, 8320
3, 310820, Pitch_bend_c, 1, 8448
3, 310830, Pitch_bend_c, 1, 8576
3, 310840, Pitch_bend_c, 1, 8704
3, 310850, Pitch_bend_c, 1, 8832
3, 310860, Pitch_bend_c, 1, 8960
3, 310870, Pitch_bend_c, 1, 9088
3, 310880, Pitch_bend_c, 1, 9216
3, 310890, Pitch_bend_c, 1, 9344
3, 310900, Pitch_bend_c, 1, 9472
3, 310910, Pitch_bend_c, 1, 9600
3, 310920, Pitch_bend_c, 1, 9600
3, 311040, Pitch_bend_c, 1, 9600
3, 311040, Pitch_bend_c, 1, 8192
3, 311040, Note_off_c, 1, 68, 95
3, 311040, Note_on_c, 1, 65, 111
3, 311040, Note_on_c, 1, 54, 47
3, 311200, Pitch_bend_c, 1, 8192
3, 311200, Pitch_bend_c, 1, 8192
3, 311360, Pitch_bend_c, 1, 8320
3, 311360, Pitch_bend_c, 1, 8320
3, 311520, Pitch_bend_c, 1, 8192
3, 311520, Pitch_bend_c, 1, 8192
3, 311680, Pitch_bend_c, 1, 8320
3, 311680, Pitch_bend_c, 1, 8320
3, 311840, Pitch_bend_c, 1, 8192
3, 311840, Pitch_bend_c, 1, 8192
3, 312000, Pitch_bend_c, 1, 8320
3, 312000, Pitch_bend_c, 1, 8320
3, 312160, Pitch_bend_c, 1, 8192
3, 312160, Pitch_bend_c, 1, 8192
3, 312320, Pitch_bend_c, 1, 8320
3, 312320, Pitch_bend_c, 1, 8320
3, 312420, Note_on_c, 1, 64, 95
3, 312480, Pitch_bend_c, 1, 8192
3, 312480, Pitch_bend_c, 1, 8320
3, 312480, Pitch_bend_c, 1, 8192
3, 312480, Note_off_c, 1, 65, 111
3, 312480, Pitch_bend_c, 1, 8192
3, 312480, Pitch_bend_c, 1, 8320
3, 312480, Pitch_bend_c, 1, 8192
3, 312480, Note_off_c, 1, 54, 47
3, 312480, Note_on_c, 0, 68, 95
3, 312480, Note_off_c, 1, 64, 95
3, 312480, Note_on_c, 1, 54, 95
3, 312640, Note_off_c, 0, 68, 95
3, 312640, Note_off_c, 1, 54, 95
3, 312640, Note_on_c, 0, 67, 70
3, 312800, Note_off_c, 0, 67, 70
3, 312800, Note_on_c, 0, 65, 70
3, 312960, Note_off_c, 0, 65, 70
3, 312960, Note_on_c, 0, 63, 95
3, 313280, Note_off_c, 0, 63, 95
3, 313280, Note_on_c, 0, 65, 95
3, 313440, Note_off_c, 0, 65, 95
3, 313440, Pitch_bend_c, 1, 8192
3, 313440, Note_on_c, 1, 63, 95
3, 313450, Pitch_bend_c, 1, 8320
3, 313460, Pitch_bend_c, 1, 8448
3, 313470, Pitch_bend_c, 1, 8576
3, 313480, Pitch_bend_c, 1, 8704
3, 313490, Pitch_bend_c, 1, 8832
3, 313500, Pitch_bend_c, 1, 8960
3, 313510, Pitch_bend_c, 1, 9088
3, 313520, Pitch_bend_c, 1, 9216
3, 313530, Pitch_bend_c, 1, 9344
3, 313540, Pitch_bend_c, 1, 9472
3, 313550, Pitch_bend_c, 1, 9600
3, 313560, Pitch_bend_c, 1, 9600
3, 313680, Pitch_bend_c, 1, 9600
3, 313701, Pitch_bend_c, 1, 9472
3, 313722, Pitch_bend_c, 1, 9344
3, 313743, Pitch_bend_c, 1, 9216
3, 313764, Pitch_bend_c, 1, 9088
3, 313785, Pitch_bend_c, 1, 8960
3, 313806, Pitch_bend_c, 1, 8832
3, 313827, Pitch_bend_c, 1, 8704
3, 313848, Pitch_bend_c, 1, 8576
3, 313869, Pitch_bend_c, 1, 8448
3, 313890, Pitch_bend_c, 1, 8320
3, 313911, Pitch_bend_c, 1, 8192
3, 313920, Pitch_bend_c, 1, 8192
3, 313920, Pitch_bend_c, 1, 8192
3, 313920, Note_off_c, 1, 63, 95
3, 313920, Note_on_c, 0, 63, 63
3, 314040, Note_off_c, 0, 63, 63
3, 314040, Note_on_c, 0, 61, 70
3, 314160, Note_off_c, 0, 61, 70
3, 314160, Note_on_c, 0, 58, 95
3, 314400, Note_off_c, 0, 58, 95
3, 315680, Note_on_c, 0, 58, 95
3, 315840, Note_off_c, 0, 58, 95
3, 315840, Note_on_c, 0, 61, 95
3, 316160, Note_off_c, 0, 61, 95
3, 316160, Pitch_bend_c, 1, 8192
3, 316160, Note_on_c, 1, 63, 95
3, 316200, Pitch_bend_c, 1, 8320
3, 316240, Pitch_bend_c, 1, 8448
3, 316280, Pitch_bend_c, 1, 8576
3, 316320, Pitch_bend_c, 1, 8704
3, 316360, Pitch_bend_c, 1, 8832
3, 316360, Pitch_bend_c, 1, 8832
3, 316560, Pitch_bend_c, 1, 8832
3, 316560, Pitch_bend_c, 1, 8192
3, 316560, Note_off_c, 1, 63, 95
3, 316560, Pitch_bend_c, 1, 8192
3, 316560, Note_on_c, 1, 63, 95
3, 316570, Pitch_bend_c, 1, 8320
3, 316580, Pitch_bend_c, 1, 8448
3, 316590, Pitch_bend_c, 1, 8576
3, 316600, Pitch_bend_c, 1, 8704
3, 316610, Pitch_bend_c, 1, 8832
3, 316620, Pitch_bend_c, 1, 8960
3, 316630, Pitch_bend_c, 1, 9088
3, 316640, Pitch_bend_c, 1, 9216
3, 316650, Pitch_bend_c, 1, 9344
3, 316660, Pitch_bend_c, 1, 9472
3, 316670, Pitch_bend_c, 1, 9600
3, 316680, Pitch_bend_c, 1, 9600
3, 316800, Pitch_bend_c, 1, 9600
3, 316800, Pitch_bend_c, 1, 8192
3, 316800, Note_off_c, 1, 63, 95
3, 316800, Pitch_bend_c, 1, 8192
3, 316800, Note_on_c, 1, 63, 95
3, 316821, Pitch_bend_c, 1, 8320
3, 316842, Pitch_bend_c, 1, 8448
3, 316863, Pitch_bend_c, 1, 8576
3, 316884, Pitch_bend_c, 1, 8704
3, 316905, Pitch_bend_c, 1, 8832
3, 316926, Pitch_bend_c, 1, 8960
3, 316947, Pitch_bend_c, 1, 9088
3, 316968, Pitch_bend_c, 1, 9216
3, 316989, Pitch_bend_c, 1, 9344
3, 317010, Pitch_bend_c, 1, 9472
3, 317031, Pitch_bend_c, 1, 9600
3, 317040, Pitch_bend_c, 1, 9600
3, 317280, Pitch_bend_c, 1, 9600
3, 317280, Pitch_bend_c, 1, 8192
3, 317280, Note_off_c, 1, 63, 95
3, 317280, Pitch_bend_c, 1, 8192
3, 317280, Note_on_c, 1, 63, 95
3, 317323, Pitch_bend_c, 1, 8320
3, 317366, Pitch_bend_c, 1, 8448
3, 317409, Pitch_bend_c, 1, 8576
3, 317452, Pitch_bend_c, 1, 8704
3, 317495, Pitch_bend_c, 1, 8832
3, 317538, Pitch_bend_c, 1, 8960
3, 317581, Pitch_bend_c, 1, 9088
3, 317624, Pitch_bend_c, 1, 9216
3, 317667, Pitch_bend_c, 1, 9344
3, 317710, Pitch_bend_c, 1, 9472
3, 317753, Pitch_bend_c, 1, 9600
3, 317760, Pitch_bend_c, 1, 9600
3, 318720, Pitch_bend_c, 1, 9600
3, 318720, Pitch_bend_c, 1, 8192
3, 318720, Note_off_c, 1, 63, 95
3, 318720, Pitch_bend_c, 1, 8192
3, 318720, Note_on_c, 1, 68, 95
3, 318727, Pitch_bend_c, 1, 8320
3, 318734, Pitch_bend_c, 1, 8448
3, 318741, Pitch_bend_c, 1, 8576
3, 318748, Pitch_bend_c, 1, 8704
3, 318755, Pitch_bend_c, 1, 8832
3, 318762, Pitch_bend_c, 1, 8960
3, 318769, Pitch_bend_c, 1, 9088
3, 318776, Pitch_bend_c, 1, 9216
3, 318783, Pitch_bend_c, 1, 9344
3, 318790, Pitch_bend_c, 1, 9472
3, 318797, Pitch_bend_c, 1, 9600
3, 318800, Pitch_bend_c, 1, 9600
3, 318880, Pitch_bend_c, 1, 9600
3, 318893, Pitch_bend_c, 1, 9472
3, 318906, Pitch_bend_c, 1, 9344
3, 318919, Pitch_bend_c, 1, 9216
3, 318932, Pitch_bend_c, 1, 9088
3, 318945, Pitch_bend_c, 1, 8960
3, 318958, Pitch_bend_c, 1, 8832
3, 318960, Pitch_bend_c, 1, 8832
3, 319200, Pitch_bend_c, 1, 8832
3, 319200, Pitch_bend_c, 1, 8192
3, 319200, Note_off_c, 1, 68, 95
3, 319200, Pitch_bend_c, 1, 8192
3, 319200, Note_on_c, 1, 63, 95
3, 319210, Pitch_bend_c, 1, 8320
3, 319220, Pitch_bend_c, 1, 8448
3, 319230, Pitch_bend_c, 1, 8576
3, 319240, Pitch_bend_c, 1, 8704
3, 319250, Pitch_bend_c, 1, 8832
3, 319260, Pitch_bend_c, 1, 8960
3, 319270, Pitch_bend_c, 1, 9088
3, 319280, Pitch_bend_c, 1, 9216
3, 319290, Pitch_bend_c, 1, 9344
3, 319300, Pitch_bend_c, 1, 9472
3, 319310, Pitch_bend_c, 1, 9600
3, 319320, Pitch_bend_c, 1, 9600
3, 319680, Pitch_bend_c, 1, 9600
3, 319680, Pitch_bend_c, 1, 8192
3, 319680, Note_off_c, 1, 63, 95
3, 319680, Note_on_c, 0, 63, 95
3, 319920, Note_off_c, 0, 63, 95
3, 319920, Pitch_bend_c, 1, 8192
3, 319920, Note_on_c, 1, 61, 95
3, 319980, Pitch_bend_c, 1, 8320
3, 320040, Pitch_bend_c, 1, 8448
3, 320040, Pitch_bend_c, 1, 8448
3, 320160, Pitch_bend_c, 1, 8448
3, 320160, Pitch_bend_c, 1, 8192
3, 320160, Note_off_c, 1, 61, 95
3, 320160, Note_on_c, 0, 63, 95
3, 320320, Note_off_c, 0, 63, 95
3, 320320, Pitch_bend_c, 1, 8192
3, 320320, Note_on_c, 1, 61, 95
3, 320360, Pitch_bend_c, 1, 8320
3, 320400, Pitch_bend_c, 1, 8448
3, 320400, Pitch_bend_c, 1, 8448
3, 320480, Pitch_bend_c, 1, 8448
3, 320480, Pitch_bend_c, 1, 8192
3, 320480, Note_off_c, 1, 61, 95
3, 320480, Note_on_c, 0, 58, 95
3, 320640, Note_off_c, 0, 58, 95
3, 320640, Note_on_c, 1, 58, 95
3, 320800, Pitch_bend_c, 1, 8192
3, 320880, Pitch_bend_c, 1, 8320
3, 320880, Pitch_bend_c, 1, 8192
3, 320880, Note_off_c, 1, 58, 95
3, 320880, Note_on_c, 0, 56, 70
3, 321000, Note_off_c, 0, 56, 70
3, 321000, Note_on_c, 0, 53, 95
3, 321120, Note_off_c, 0, 53, 95
3, 321120, Note_on_c, 0, 51, 70
3, 321240, Note_off_c, 0, 51, 70
3, 321240, Note_on_c, 0, 49, 95
3, 321360, Note_off_c, 0, 49, 95
3, 321360, Note_on_c, 0, 46, 70
3, 321600, Note_off_c, 0, 46, 70
3, 321600, Pitch_bend_c, 1, 8192
3, 321600, Note_on_c, 1, 63, 95
3, 321614, Pitch_bend_c, 1, 8320
3, 321628, Pitch_bend_c, 1, 8448
3, 321642, Pitch_bend_c, 1, 8576
3, 321656, Pitch_bend_c, 1, 8704
3, 321670, Pitch_bend_c, 1, 8832
3, 321684, Pitch_bend_c, 1, 8960
3, 321698, Pitch_bend_c, 1, 9088
3, 321712, Pitch_bend_c, 1, 9216
3, 321726, Pitch_bend_c, 1, 9344
3, 321740, Pitch_bend_c, 1, 9472
3, 321754, Pitch_bend_c, 1, 9600
3, 321760, Pitch_bend_c, 1, 9600
3, 322080, Pitch_bend_c, 1, 9600
3, 322080, Pitch_bend_c, 1, 8192
3, 322080, Note_off_c, 1, 63, 95
3, 322080, Note_on_c, 0, 65, 95
3, 322560, Note_off_c, 0, 65, 95
3, 322800, Pitch_bend_c, 1, 8192
3, 322800, Note_on_c, 1, 68, 95
3, 322816, Pitch_bend_c, 1, 8320
3, 322832, Pitch_bend_c, 1, 8448
3, 322848, Pitch_bend_c, 1, 8576
3, 322864, Pitch_bend_c, 1, 8704
3, 322880, Pitch_bend_c, 1, 8832
3, 322896, Pitch_bend_c, 1, 8960
3, 322912, Pitch_bend_c, 1, 9088
3, 322928, Pitch_bend_c, 1, 9216
3, 322944, Pitch_bend_c, 1, 9344
3, 322960, Pitch_bend_c, 1, 9472
3, 322976, Pitch_bend_c, 1, 9600
3, 322992, Pitch_bend_c, 1, 9728
3, 323008, Pitch_bend_c, 1, 9856
3, 323024, Pitch_bend_c, 1, 9984
3, 323040, Pitch_bend_c, 1, 10112
3, 323056, Pitch_bend_c, 1, 10240
3, 323072, Pitch_bend_c, 1, 10368
3, 323088, Pitch_bend_c, 1, 10496
3, 323104, Pitch_bend_c, 1, 10624
3, 323120, Pitch_bend_c, 1, 10752
3, 323136, Pitch_bend_c, 1, 10880
3, 323152, Pitch_bend_c, 1, 11008
3, 323160, Pitch_bend_c, 1, 11008
3, 323520, Pitch_bend_c, 1, 11008
3, 323520, Pitch_bend_c, 1, 8192
3, 323520, Note_off_c, 1, 68, 95
3, 323520, Pitch_bend_c, 1, 8192
3, 323520, Note_on_c, 1, 68, 95
3, 323541, Pitch_bend_c, 1, 8320
3, 323562, Pitch_bend_c, 1, 8448
3, 323583, Pitch_bend_c, 1, 8576
3, 323604, Pitch_bend_c, 1, 8704
3, 323625, Pitch_bend_c, 1, 8832
3, 323646, Pitch_bend_c, 1, 8960
3, 323667, Pitch_bend_c, 1, 9088
3, 323688, Pitch_bend_c, 1, 9216
3, 323709, Pitch_bend_c, 1, 9344
3, 323730, Pitch_bend_c, 1, 9472
3, 323751, Pitch_bend_c, 1, 9600
3, 323760, Pitch_bend_c, 1, 9600
3, 324000, Pitch_bend_c, 1, 9600
3, 324000, Pitch_bend_c, 1, 8192
3, 324000, Note_off_c, 1, 68, 95
3, 324000, Pitch_bend_c, 1, 8192
3, 324000, Note_on_c, 1, 68, 95
3, 324009, Pitch_bend_c, 1, 8320
3, 324018, Pitch_bend_c, 1, 8448
3, 324027, Pitch_bend_c, 1, 8576
3, 324036, Pitch_bend_c, 1, 8704
3, 324045, Pitch_bend_c, 1, 8832
3, 324054, Pitch_bend_c, 1, 8960
3, 324063, Pitch_bend_c, 1, 9088
3, 324072, Pitch_bend_c, 1, 9216
3, 324081, Pitch_bend_c, 1, 9344
3, 324090, Pitch_bend_c, 1, 9472
3, 324099, Pitch_bend_c, 1, 9600
3, 324100, Pitch_bend_c, 1, 9600
3, 324118, Pitch_bend_c, 1, 9728
3, 324136, Pitch_bend_c, 1, 9856
3, 324154, Pitch_bend_c, 1, 9984
3, 324172, Pitch_bend_c, 1, 10112
3, 324190, Pitch_bend_c, 1, 10240
3, 324208, Pitch_bend_c, 1, 10368
3, 324226, Pitch_bend_c, 1, 10496
3, 324244, Pitch_bend_c, 1, 10624
3, 324262, Pitch_bend_c, 1, 10752
3, 324280, Pitch_bend_c, 1, 10880
3, 324298, Pitch_bend_c, 1, 11008
3, 324300, Pitch_bend_c, 1, 11008
3, 325200, Pitch_bend_c, 1, 11008
3, 325200, Pitch_bend_c, 1, 8192
3, 325200, Note_off_c, 1, 68, 95
3, 325200, Pitch_bend_c, 1, 8192
3, 325200, Note_on_c, 1, 68, 95
3, 325221, Pitch_bend_c, 1, 8320
3, 325242, Pitch_bend_c, 1, 8448
3, 325263, Pitch_bend_c, 1, 8576
3, 325284, Pitch_bend_c, 1, 8704
3, 325305, Pitch_bend_c, 1, 8832
3, 325326, Pitch_bend_c, 1, 8960
3, 325347, Pitch_bend_c, 1, 9088
3, 325368, Pitch_bend_c, 1, 9216
3, 325389, Pitch_bend_c, 1, 9344
3, 325410, Pitch_bend_c, 1, 9472
3, 325431, Pitch_bend_c, 1, 9600
3, 325440, Pitch_bend_c, 1, 9600
3, 325680, Pitch_bend_c, 1, 9600
3, 325680, Pitch_bend_c, 1, 8192
3, 325680, Note_off_c, 1, 68, 95
3, 325680, Note_on_c, 0, 65, 95
3, 326400, Note_off_c, 0, 65, 95
3, 326400, Pitch_bend_c, 1, 8192
3, 326400, Note_on_c, 1, 68, 95
3, 326414, Pitch_bend_c, 1, 8320
3, 326428, Pitch_bend_c, 1, 8448
3, 326442, Pitch_bend_c, 1, 8576
3, 326456, Pitch_bend_c, 1, 8704
3, 326470, Pitch_bend_c, 1, 8832
3, 326484, Pitch_bend_c, 1, 8960
3, 326498, Pitch_bend_c, 1, 9088
3, 326512, Pitch_bend_c, 1, 9216
3, 326526, Pitch_bend_c, 1, 9344
3, 326540, Pitch_bend_c, 1, 9472
3, 326554, Pitch_bend_c, 1, 9600
3, 326560, Pitch_bend_c, 1, 9600
3, 326720, Pitch_bend_c, 1, 9600
3, 326720, Pitch_bend_c, 1, 8192
3, 326720, Note_off_c, 1, 68, 95
3, 326720, Pitch_bend_c, 1, 8192
3, 326720, Note_on_c, 1, 68, 95
3, 326738, Pitch_bend_c, 1, 8320
3, 326756, Pitch_bend_c, 1, 8448
3, 326774, Pitch_bend_c, 1, 8576
3, 326792, Pitch_bend_c, 1, 8704
3, 326810, Pitch_bend_c, 1, 8832
3, 326813, Pitch_bend_c, 1, 8832
3, 326828, Pitch_bend_c, 1, 8960
3, 326843, Pitch_bend_c, 1, 9088
3, 326858, Pitch_bend_c, 1, 9216
3, 326873, Pitch_bend_c, 1, 9344
3, 326888, Pitch_bend_c, 1, 9472
3, 326903, Pitch_bend_c, 1, 9600
3, 326906, Pitch_bend_c, 1, 9600
3, 326914, Pitch_bend_c, 1, 9728
3, 326922, Pitch_bend_c, 1, 9856
3, 326930, Pitch_bend_c, 1, 9984
3, 326938, Pitch_bend_c, 1, 10112
3, 326946, Pitch_bend_c, 1, 10240
3, 326954, Pitch_bend_c, 1, 10368
3, 326962, Pitch_bend_c, 1, 10496
3, 326970, Pitch_bend_c, 1, 10624
3, 326978, Pitch_bend_c, 1, 10752
3, 326986, Pitch_bend_c, 1, 10880
3, 326994, Pitch_bend_c, 1, 11008
3, 327000, Pitch_bend_c, 1, 11008
3, 327840, Pitch_bend_c, 1, 11008
3, 327840, Pitch_bend_c, 1, 8192
3, 327840, Note_off_c, 1, 68, 95
3, 328320, Pitch_bend_c, 1, 8192
3, 328320, Note_on_c, 1, 70, 95
3, 328330, Pitch_bend_c, 1, 8320
3, 328340, Pitch_bend_c, 1, 8448
3, 328350, Pitch_bend_c, 1, 8576
3, 328360, Pitch_bend_c, 1, 8704
3, 328370, Pitch_bend_c, 1, 8832
3, 328380, Pitch_bend_c, 1, 8960
3, 328390, Pitch_bend_c, 1, 9088
3, 328400, Pitch_bend_c, 1, 9216
3, 328410, Pitch_bend_c, 1, 9344
3, 328420, Pitch_bend_c, 1, 9472
3, 328430, Pitch_bend_c, 1, 9600
3, 328440, Pitch_bend_c, 1, 9728
3, 328450, Pitch_bend_c, 1, 9856
3, 328460, Pitch_bend_c, 1, 9984
3, 328470, Pitch_bend_c, 1, 10112
3, 328480, Pitch_bend_c, 1, 10240
3, 328490, Pitch_bend_c, 1, 10368
3, 328500, Pitch_bend_c, 1, 10496
3, 328510, Pitch_bend_c, 1, 10624
3, 328520, Pitch_bend_c, 1, 10752
3, 328530, Pitch_bend_c, 1, 10880
3, 328540, Pitch_bend_c, 1, 11008
3, 328560, Pitch_bend_c, 1, 11008
3, 328800, Pitch_bend_c, 1, 11008
3, 328800, Pitch_bend_c, 1, 8192
3, 328800, Note_off_c, 1, 70, 95
3, 329280, Pitch_bend_c, 1, 8192
3, 329280, Note_on_c, 1, 68, 95
3, 329295, Pitch_bend_c, 1, 8320
3, 329310, Pitch_bend_c, 1, 8448
3, 329325, Pitch_bend_c, 1, 8576
3, 329340, Pitch_bend_c, 1, 8704
3, 329355, Pitch_bend_c, 1, 8832
3, 329370, Pitch_bend_c, 1, 8960
3, 329385, Pitch_bend_c, 1, 9088
3, 329400, Pitch_bend_c, 1, 9216
3, 329415, Pitch_bend_c, 1, 9344
3, 329430, Pitch_bend_c, 1, 9472
3, 329445, Pitch_bend_c, 1, 9600
3, 329460, Pitch_bend_c, 1, 9728
3, 329475, Pitch_bend_c, 1, 9856
3, 329490, Pitch_bend_c, 1, 9984
3, 329505, Pitch_bend_c, 1, 10112
3, 329520, Pitch_bend_c, 1, 10240
3, 329520, Pitch_bend_c, 1, 10240
3, 329760, Pitch_bend_c, 1, 10240
3, 329760, Pitch_bend_c, 1, 8192
3, 329760, Note_off_c, 1, 68, 95
3, 329760, Pitch_bend_c, 1, 8192
3, 329760, Note_on_c, 1, 68, 111
3, 329803, Pitch_bend_c, 1, 8320
3, 329846, Pitch_bend_c, 1, 8448
3, 329889, Pitch_bend_c, 1, 8576
3, 329932, Pitch_bend_c, 1, 8704
3, 329975, Pitch_bend_c, 1, 8832
3, 330018, Pitch_bend_c, 1, 8960
3, 330061, Pitch_bend_c, 1, 9088
3, 330104, Pitch_bend_c, 1, 9216
3, 330147, Pitch_bend_c, 1, 9344
3, 330190, Pitch_bend_c, 1, 9472
3, 330233, Pitch_bend_c, 1, 9600
3, 330240, Pitch_bend_c, 1, 9600
3, 330720, Pitch_bend_c, 1, 9600
3, 330720, Pitch_bend_c, 1, 8192
3, 330720, Note_off_c, 1, 68, 111
3, 330720, Note_on_c, 0, 68, 95
3, 330960, Note_off_c, 0, 68, 95
3, 330960, Note_on_c, 0, 65, 95
3, 331200, Note_off_c, 0, 65, 95
3, 331200, Note_on_c, 0, 68, 95
3, 331440, Note_off_c, 0, 68, 95
3, 331440, Note_on_c, 0, 65, 95
3, 331560, Note_off_c, 0, 65, 95
3, 331560, Note_on_c, 0, 67, 70
3, 331680, Note_off_c, 0, 67, 70
3, 331680, Note_on_c, 0, 65, 70
3, 331920, Note_off_c, 0, 65, 70
3, 331920, Pitch_bend_c, 1, 8192
3, 331920, Note_on_c, 1, 63, 95
3, 331944, Pitch_bend_c, 1, 8320
3, 331968, Pitch_bend_c, 1, 8448
3, 331992, Pitch_bend_c, 1, 8576
3, 332016, Pitch_bend_c, 1, 8704
3, 332040, Pitch_bend_c, 1, 8832
3, 332040, Pitch_bend_c, 1, 8832
3, 332160, Pitch_bend_c, 1, 8832
3, 332160, Pitch_bend_c, 1, 8192
3, 332160, Note_off_c, 1, 63, 95
3, 332160, Note_on_c, 0, 65, 95
3, 332400, Note_off_c, 0, 65, 95
3, 332400, Pitch_bend_c, 1, 8192
3, 332400, Note_on_c, 1, 63, 95
3, 332421, Pitch_bend_c, 1, 8320
3, 332442, Pitch_bend_c, 1, 8448
3, 332463, Pitch_bend_c, 1, 8576
3, 332484, Pitch_bend_c, 1, 8704
3, 332505, Pitch_bend_c, 1, 8832
3, 332526, Pitch_bend_c, 1, 8960
3, 332547, Pitch_bend_c, 1, 9088
3, 332568, Pitch_bend_c, 1, 9216
3, 332589, Pitch_bend_c, 1, 9344
3, 332610, Pitch_bend_c, 1, 9472
3, 332631, Pitch_bend_c, 1, 9600
3, 332640, Pitch_bend_c, 1, 9600
3, 332880, Pitch_bend_c, 1, 9600
3, 332880, Pitch_bend_c, 1, 8192
3, 332880, Note_off_c, 1, 63, 95
3, 332880, Note_on_c, 0, 68, 95
3, 332880, Note_on_c, 0, 63, 95
3, 333120, Note_off_c, 0, 68, 95
3, 333120, Note_off_c, 0, 63, 95
3, 333120, Pitch_bend_c, 1, 8192
3, 333120, Note_on_c, 1, 63, 111
3, 333127, Pitch_bend_c, 1, 8320
3, 333134, Pitch_bend_c, 1, 8448
3, 333141, Pitch_bend_c, 1, 8576
3, 333148, Pitch_bend_c, 1, 8704
3, 333155, Pitch_bend_c, 1, 8832
3, 333162, Pitch_bend_c, 1, 8960
3, 333169, Pitch_bend_c, 1, 9088
3, 333176, Pitch_bend_c, 1, 9216
3, 333183, Pitch_bend_c, 1, 9344
3, 333190, Pitch_bend_c, 1, 9472
3, 333197, Pitch_bend_c, 1, 9600
3, 333200, Pitch_bend_c, 1, 9600
3, 333280, Pitch_bend_c, 1, 9600
3, 333280, Pitch_bend_c, 1, 8192
3, 333280, Note_off_c, 1, 63, 111
3, 333280, Note_on_c, 0, 68, 95
3, 333440, Note_off_c, 0, 68, 95
3, 333440, Note_on_c, 0, 63, 111
3, 333600, Note_off_c, 0, 63, 111
3, 333600, Note_on_c, 0, 68, 95
3, 333760, Note_off_c, 0, 68, 95
3, 333760, Note_on_c, 0, 63, 111
3, 333920, Note_off_c, 0, 63, 111
3, 333920, Note_on_c, 0, 68, 95
3, 334080, Note_off_c, 0, 68, 95
3, 334080, Note_on_c, 0, 65, 95
3, 334240, Note_off_c, 0, 65, 95
3, 334240, Note_on_c, 1, 61, 111
3, 334400, Pitch_bend_c, 1, 8192
3, 334560, Pitch_bend_c, 1, 8320
3, 334720, Pitch_bend_c, 1, 8192
3, 334880, Pitch_bend_c, 1, 8320
3, 335040, Pitch_bend_c, 1, 8192
3, 335200, Pitch_bend_c, 1, 8320
3, 335360, Pitch_bend_c, 1, 8192
3, 335520, Pitch_bend_c, 1, 8320
3, 335520, Pitch_bend_c, 1, 8192
3, 335520, Note_off_c, 1, 61, 111
3, 336360, Pitch_bend_c, 1, 8192
3, 336360, Note_on_c, 1, 63, 95
3, 336373, Pitch_bend_c, 1, 8320
3, 336386, Pitch_bend_c, 1, 8448
3, 336399, Pitch_bend_c, 1, 8576
3, 336412, Pitch_bend_c, 1, 8704
3, 336425, Pitch_bend_c, 1, 8832
3, 336438, Pitch_bend_c, 1, 8960
3, 336451, Pitch_bend_c, 1, 9088
3, 336464, Pitch_bend_c, 1, 9216
3, 336477, Pitch_bend_c, 1, 9344
3, 336490, Pitch_bend_c, 1, 9472
3, 336503, Pitch_bend_c, 1, 9600
3, 336510, Pitch_bend_c, 1, 9600
3, 336960, Pitch_bend_c, 1, 9600
3, 336960, Pitch_bend_c, 1, 8192
3, 336960, Note_off_c, 1, 63, 95
3, 336960, Note_on_c, 0, 68, 95
3, 337200, Note_off_c, 0, 68, 95
3, 337200, Note_on_c, 0, 65, 95
3, 337440, Note_off_c, 0, 65, 95
3, 337440, Note_on_c, 0, 67, 95
3, 337680, Note_off_c, 0, 67, 95
3, 337680, Note_on_c, 0, 65, 95
3, 337920, Note_off_c, 0, 65, 95
3, 337920, Note_on_c, 0, 67, 95
3, 338080, Note_off_c, 0, 67, 95
3, 338080, Note_on_c, 0, 65, 70
3, 338240, Note_off_c, 0, 65, 70
3, 338240, Note_on_c, 0, 63, 95
3, 338400, Note_off_c, 0, 63, 95
3, 338400, Note_on_c, 0, 65, 95
3, 338520, Note_on_c, 1, 61, 79
3, 338640, Note_off_c, 0, 65, 95
3, 338640, Note_off_c, 1, 61, 79
3, 338640, Note_on_c, 1, 63, 95
3, 339120, Note_off_c, 1, 63, 95
3, 339120, Pitch_bend_c, 1, 8192
3, 339120, Note_on_c, 1, 63, 95
3, 339163, Pitch_bend_c, 1, 8320
3, 339206, Pitch_bend_c, 1, 8448
3, 339249, Pitch_bend_c, 1, 8576
3, 339292, Pitch_bend_c, 1, 8704
3, 339335, Pitch_bend_c, 1, 8832
3, 339378, Pitch_bend_c, 1, 8960
3, 339421, Pitch_bend_c, 1, 9088
3, 339464, Pitch_bend_c, 1, 9216
3, 339507, Pitch_bend_c, 1, 9344
3, 339550, Pitch_bend_c, 1, 9472
3, 339593, Pitch_bend_c, 1, 9600
3, 339600, Pitch_bend_c, 1, 9600
3, 340080, Pitch_bend_c, 1, 9600
3, 340080, Pitch_bend_c, 1, 8192
3, 340080, Note_off_c, 1, 63, 95
3, 340080, Note_on_c, 0, 63, 95
3, 340320, Note_off_c, 0, 63, 95
3, 340320, Note_on_c, 0, 58, 95
3, 340560, Note_off_c, 0, 58, 95
3, 340560, Note_on_c, 1, 53, 95
3, 340720, Pitch_bend_c, 1, 8192
3, 340880, Pitch_bend_c, 1, 8320
3, 341040, Pitch_bend_c, 1, 8192
3, 341200, Pitch_bend_c, 1, 8320
3, 341280, Pitch_bend_c, 1, 8192
3, 341280, Pitch_bend_c, 1, 8320
3, 341280, Pitch_bend_c, 1, 8192
3, 341280, Note_off_c, 1, 53, 95
3, 341280, Note_on_c, 0, 51, 54
3, 341760, Note_off_c, 0, 51, 54
3, 342240, Note_on_c, 0, 64, 95
3, 342400, Note_off_c, 0, 64, 95
3, 342400, Note_on_c, 0, 63, 70
3, 342560, Note_off_c, 0, 63, 70
3, 342560, Note_on_c, 0, 61, 70
3, 342720, Note_off_c, 0, 61, 70
3, 342720, Note_on_c, 0, 58, 95
3, 342880, Note_off_c, 0, 58, 95
3, 342880, Note_on_c, 0, 61, 95
3, 343040, Note_off_c, 0, 61, 95
3, 343040, Note_on_c, 0, 56, 95
3, 343200, Note_off_c, 0, 56, 95
3, 343200, Note_on_c, 0, 51, 95
3, 343320, Note_off_c, 0, 51, 95
3, 343320, Note_on_c, 0, 53, 70
3, 343440, Note_off_c, 0, 53, 70
3, 343440, Note_on_c, 0, 51, 70
3, 343560, Note_off_c, 0, 51, 70
3, 343560, Note_on_c, 0, 53, 70
3, 343680, Note_off_c, 0, 53, 70
3, 343680, Note_on_c, 0, 51, 54
3, 343800, Note_off_c, 0, 51, 54
3, 343800, Note_on_c, 0, 53, 54
3, 343920, Note_off_c, 0, 53, 54
3, 343920, Note_on_c, 0, 51, 38
3, 344040, Note_off_c, 0, 51, 38
3, 344040, Note_on_c, 0, 53, 22
3, 344160, Note_off_c, 0, 53, 22
3, 344160, Note_on_c, 0, 44, 95
3, 344202, Note_off_c, 0, 44, 95
3, 344400, Note_on_c, 0, 51, 95
3, 344640, Note_off_c, 0, 51, 95
3, 344640, Note_on_c, 0, 53, 70
3, 344880, Note_off_c, 0, 53, 70
3, 344880, Note_on_c, 0, 63, 95
3, 344880, Note_on_c, 0, 58, 95
3, 345120, Note_off_c, 0, 63, 95
3, 345120, Note_off_c, 0, 58, 95
3, 345120, Note_on_c, 0, 58, 95
3, 345240, Note_off_c, 0, 58, 95
3, 345240, Note_on_c, 0, 56, 70
3, 345360, Note_off_c, 0, 56, 70
3, 345360, Note_on_c, 0, 52, 95
3, 345480, Note_off_c, 0, 52, 95
3, 345480, Note_on_c, 1, 51, 70
3, 345600, Pitch_bend_c, 1, 6784
3, 345600, Pitch_bend_c, 1, 8192
3, 345600, Note_off_c, 1, 51, 70
3, 345600, Note_on_c, 0, 49, 95
3, 345840, Note_off_c, 0, 49, 95
3, 345840, Note_on_c, 0, 46, 95
3, 346080, Note_off_c, 0, 46, 95
3, 346080, Note_on_c, 0, 56, 95
3, 346320, Note_off_c, 0, 56, 95
3, 346320, Note_on_c, 0, 58, 95
3, 346560, Note_off_c, 0, 58, 95
3, 346560, Note_on_c, 0, 56, 70
3, 346680, Note_off_c, 0, 56, 70
3, 346680, Note_on_c, 0, 58, 70
3, 346800, Note_off_c, 0, 58, 70
3, 346800, Note_on_c, 0, 56, 70
3, 346920, Note_off_c, 0, 56, 70
3, 346920, Note_on_c, 0, 58, 70
3, 347040, Note_off_c, 0, 58, 70
3, 347040, Note_on_c, 0, 56, 70
3, 347160, Note_off_c, 0, 56, 70
3, 347160, Note_on_c, 0, 58, 70
3, 347280, Note_off_c, 0, 58, 70
3, 347280, Note_on_c, 0, 56, 70
3, 347400, Note_off_c, 0, 56, 70
3, 347400, Note_on_c, 0, 58, 70
3, 347520, Note_off_c, 0, 58, 70
3, 347520, Note_on_c, 0, 56, 70
3, 347640, Note_off_c, 0, 56, 70
3, 347640, Note_on_c, 0, 58, 70
3, 347760, Note_off_c, 0, 58, 70
3, 347760, Note_on_c, 0, 56, 70
3, 347880, Note_off_c, 0, 56, 70
3, 347880, Note_on_c, 0, 58, 70
3, 348000, Note_off_c, 0, 58, 70
3, 348000, Note_on_c, 0, 56, 70
3, 348120, Note_off_c, 0, 56, 70
3, 348120, Note_on_c, 0, 58, 70
3, 348240, Note_off_c, 0, 58, 70
3, 348240, Note_on_c, 0, 56, 70
3, 348360, Note_off_c, 0, 56, 70
3, 348360, Note_on_c, 0, 58, 70
3, 348480, Note_off_c, 0, 58, 70
3, 348480, Note_on_c, 0, 56, 70
3, 348600, Note_off_c, 0, 56, 70
3, 348600, Note_on_c, 0, 58, 70
3, 348720, Note_off_c, 0, 58, 70
3, 348720, Note_on_c, 0, 56, 70
3, 348840, Note_off_c, 0, 56, 70
3, 348840, Note_on_c, 0, 58, 70
3, 348960, Note_off_c, 0, 58, 70
3, 348960, Note_on_c, 0, 56, 70
3, 349080, Note_off_c, 0, 56, 70
3, 349080, Note_on_c, 0, 58, 70
3, 349200, Note_off_c, 0, 58, 70
3, 349200, Note_on_c, 0, 56, 70
3, 349320, Note_off_c, 0, 56, 70
3, 349320, Note_on_c, 0, 58, 70
3, 349440, Note_off_c, 0, 58, 70
3, 349440, Note_on_c, 0, 56, 70
3, 349560, Note_off_c, 0, 56, 70
3, 349560, Note_on_c, 0, 58, 70
3, 349680, Note_off_c, 0, 58, 70
3, 349680, Note_on_c, 0, 56, 70
3, 349800, Note_off_c, 0, 56, 70
3, 349800, Note_on_c, 0, 58, 70
3, 349920, Note_off_c, 0, 58, 70
3, 349920, Note_on_c, 0, 56, 54
3, 350040, Note_off_c, 0, 56, 54
3, 350040, Note_on_c, 0, 58, 54
3, 350160, Note_off_c, 0, 58, 54
3, 350160, Note_on_c, 0, 56, 38
3, 350280, Note_off_c, 0, 56, 38
3, 350280, Note_on_c, 0, 58, 22
3, 350400, Note_off_c, 0, 58, 22
3, 350400, Pitch_bend_c, 1, 8192
3, 350400, Note_on_c, 1, 63, 111
3, 350410, Pitch_bend_c, 1, 8320
3, 350420, Pitch_bend_c, 1, 8448
3, 350430, Pitch_bend_c, 1, 8576
3, 350440, Pitch_bend_c, 1, 8704
3, 350450, Pitch_bend_c, 1, 8832
3, 350460, Pitch_bend_c, 1, 8960
3, 350470, Pitch_bend_c, 1, 9088
3, 350480, Pitch_bend_c, 1, 9216
3, 350490, Pitch_bend_c, 1, 9344
3, 350500, Pitch_bend_c, 1, 9472
3, 350510, Pitch_bend_c, 1, 9600
3, 350520, Pitch_bend_c, 1, 9600
3, 350640, Pitch_bend_c, 1, 9600
3, 350640, Pitch_bend_c, 1, 8192
3, 350640, Note_off_c, 1, 63, 111
3, 350640, Note_on_c, 1, 61, 111
3, 350800, Pitch_bend_c, 1, 8192
3, 350960, Pitch_bend_c, 1, 8320
3, 351120, Pitch_bend_c, 1, 8192
3, 351280, Pitch_bend_c, 1, 8320
3, 351360, Pitch_bend_c, 1, 8192
3, 351360, Pitch_bend_c, 1, 8320
3, 351360, Pitch_bend_c, 1, 8192
3, 351360, Note_off_c, 1, 61, 111
3, 351360, Note_on_c, 0, 51, 95
3, 352800, Note_off_c, 0, 51, 95
3, 354240, Note_on_c, 1, 56, 95
3, 354400, Pitch_bend_c, 1, 8192
3, 354560, Pitch_bend_c, 1, 8320
3, 354720, Pitch_bend_c, 1, 8192
3, 354880, Pitch_bend_c, 1, 8320
3, 355040, Pitch_bend_c, 1, 8192
3, 355200, Pitch_bend_c, 1, 8320
3, 355360, Pitch_bend_c, 1, 8192
3, 355520, Pitch_bend_c, 1, 8320
3, 355680, Pitch_bend_c, 1, 8192
3, 355680, Pitch_bend_c, 1, 8320
3, 355680, Pitch_bend_c, 1, 8192
3, 355680, Note_off_c, 1, 56, 95
3, 355680, Note_on_c, 0, 57, 95
3, 356640, Note_off_c, 0, 57, 95
3, 356640, Note_on_c, 0, 58, 70
3, 357120, Note_off_c, 0, 58, 70
3, 357120, Note_on_c, 0, 62, 95
3, 357120, Note_on_c, 0, 56, 95
3, 357600, Note_off_c, 0, 62, 95
3, 357600, Note_off_c, 0, 56, 95
3, 357600, Note_on_c, 0, 62, 95
3, 357600, Note_on_c, 0, 56, 95
3, 358080, Note_off_c, 0, 62, 95
3, 358080, Note_off_c, 0, 56, 95
3, 358080, Note_on_c, 0, 46, 95
3, 358560, Note_off_c, 0, 46, 95
3, 358560, Note_on_c, 0, 62, 95
3, 358560, Note_on_c, 0, 56, 95
3, 359040, Note_off_c, 0, 62, 95
3, 359040, Note_off_c, 0, 56, 95
3, 359040, Note_on_c, 0, 46, 95
3, 359520, Note_off_c, 0, 46, 95
3, 359520, Note_on_c, 0, 62, 95
3, 359520, Note_on_c, 0, 56, 95
3, 359520, Note_on_c, 0, 44, 95
3, 359520, Note_on_c, 0, 46, 95
3, 359562, Note_off_c, 0, 44, 95
3, 360000, Note_off_c, 0, 62, 95
3, 360000, Note_off_c, 0, 56, 95
3, 360000, Note_off_c, 0, 46, 95
3, 360000, Note_on_c, 1, 62, 111
3, 360000, Note_on_c, 1, 56, 111
3, 360160, Pitch_bend_c, 1, 8832
3, 360160, Pitch_bend_c, 1, 8192
3, 360160, Note_off_c, 1, 62, 111
3, 360160, Pitch_bend_c, 1, 8832
3, 360160, Pitch_bend_c, 1, 8192
3, 360160, Note_off_c, 1, 56, 111
3, 360160, Note_on_c, 0, 63, 95
3, 360160, Note_on_c, 0, 57, 95
3, 360480, Note_off_c, 0, 63, 95
3, 360480, Note_off_c, 0, 57, 95
3, 360480, Note_on_c, 0, 63, 111
3, 360480, Note_on_c, 0, 57, 111
3, 360720, Note_off_c, 0, 63, 111
3, 360720, Note_off_c, 0, 57, 111
3, 360720, Note_on_c, 0, 47, 95
3, 360960, Note_off_c, 0, 47, 95
3, 360960, Note_on_c, 0, 63, 111
3, 360960, Note_on_c, 0, 57, 111
3, 361200, Note_off_c, 0, 63, 111
3, 361200, Note_off_c, 0, 57, 111
3, 361200, Note_on_c, 0, 47, 95
3, 361440, Note_off_c, 0, 47, 95
3, 361440, Note_on_c, 0, 63, 111
3, 361440, Note_on_c, 0, 57, 111
3, 361680, Note_off_c, 0, 63, 111
3, 361680, Note_off_c, 0, 57, 111
3, 361680, Note_on_c, 0, 47, 95
3, 361920, Note_off_c, 0, 47, 95
3, 361920, Note_on_c, 0, 68, 111
3, 361920, Note_on_c, 0, 63, 111
3, 361920, Note_on_c, 0, 57, 111
3, 362040, Note_on_c, 1, 57, 79
3, 362160, Note_off_c, 0, 68, 111
3, 362160, Note_off_c, 0, 63, 111
3, 362160, Note_off_c, 0, 57, 111
3, 362160, Note_off_c, 1, 57, 79
3, 362160, Note_on_c, 1, 59, 95
3, 362400, Note_off_c, 1, 59, 95
3, 362400, Note_on_c, 0, 63, 111
3, 362400, Note_on_c, 0, 57, 111
3, 362640, Note_off_c, 0, 63, 111
3, 362640, Note_off_c, 0, 57, 111
3, 362640, Note_on_c, 0, 63, 95
3, 362640, Note_on_c, 0, 57, 95
3, 362640, Note_on_c, 0, 44, 95
3, 362640, Note_on_c, 0, 47, 95
3, 362682, Note_off_c, 0, 44, 95
3, 362880, Note_off_c, 0, 63, 95
3, 362880, Note_off_c, 0, 57, 95
3, 362880, Note_off_c, 0, 47, 95
3, 362880, Note_on_c, 0, 56, 95
3, 362880, Note_on_c, 0, 46, 47
3, 363120, Note_off_c, 0, 56, 95
3, 363120, Note_off_c, 0, 46, 47
3, 363120, Note_on_c, 0, 65, 95
3, 363120, Note_on_c, 0, 62, 95
3, 363120, Note_on_c, 0, 56, 95
3, 363240, Note_off_c, 0, 65, 95
3, 363240, Note_off_c, 0, 62, 95
3, 363240, Note_off_c, 0, 56, 95
3, 363240, Note_on_c, 0, 65, 95
3, 363240, Note_on_c, 0, 62, 95
3, 363360, Note_off_c, 0, 65, 95
3, 363360, Note_off_c, 0, 62, 95
3, 363360, Note_on_c, 0, 65, 111
3, 363360, Note_on_c, 0, 62, 111
3, 363360, Note_on_c, 0, 56, 111
3, 363600, Note_off_c, 0, 65, 111
3, 363600, Note_off_c, 0, 62, 111
3, 363600, Note_off_c, 0, 56, 111
3, 363600, Note_on_c, 0, 46, 95
3, 363840, Note_off_c, 0, 46, 95
3, 363840, Note_on_c, 0, 65, 95
3, 363840, Note_on_c, 0, 62, 95
3, 363840, Note_on_c, 0, 56, 95
3, 363960, Note_off_c, 0, 65, 95
3, 363960, Note_off_c, 0, 62, 95
3, 363960, Note_off_c, 0, 56, 95
3, 363960, Note_on_c, 0, 65, 95
3, 363960, Note_on_c, 0, 62, 95
3, 363960, Note_on_c, 0, 56, 95
3, 364080, Note_off_c, 0, 65, 95
3, 364080, Note_off_c, 0, 62, 95
3, 364080, Note_off_c, 0, 56, 95
3, 364080, Note_on_c, 0, 46, 95
3, 364320, Note_off_c, 0, 46, 95
3, 364320, Note_on_c, 0, 68, 111
3, 364320, Note_on_c, 0, 63, 111
3, 364320, Note_on_c, 0, 57, 111
3, 364560, Note_off_c, 0, 68, 111
3, 364560, Note_off_c, 0, 63, 111
3, 364560, Note_off_c, 0, 57, 111
3, 364560, Note_on_c, 0, 58, 95
3, 364560, Note_on_c, 0, 54, 95
3, 364560, Note_on_c, 0, 49, 95
3, 364602, Note_off_c, 0, 58, 95
3, 364602, Note_off_c, 0, 54, 95
3, 364602, Note_off_c, 0, 49, 95
3, 364680, Note_on_c, 0, 58, 95
3, 364680, Note_on_c, 0, 54, 95
3, 364680, Note_on_c, 0, 49, 95
3, 364722, Note_off_c, 0, 58, 95
3, 364722, Note_off_c, 0, 54, 95
3, 364722, Note_off_c, 0, 49, 95
3, 364800, Note_on_c, 0, 68, 111
3, 364800, Note_on_c, 0, 63, 111
3, 364800, Note_on_c, 0, 57, 111
3, 365040, Note_off_c, 0, 68, 111
3, 365040, Note_off_c, 0, 63, 111
3, 365040, Note_off_c, 0, 57, 111
3, 365040, Note_on_c, 0, 58, 95
3, 365040, Note_on_c, 0, 54, 95
3, 365040, Note_on_c, 0, 49, 95
3, 365082, Note_off_c, 0, 58, 95
3, 365082, Note_off_c, 0, 54, 95
3, 365082, Note_off_c, 0, 49, 95
3, 365160, Note_on_c, 0, 58, 95
3, 365160, Note_on_c, 0, 54, 95
3, 365160, Note_on_c, 0, 49, 95
3, 365202, Note_off_c, 0, 58, 95
3, 365202, Note_off_c, 0, 54, 95
3, 365202, Note_off_c, 0, 49, 95
3, 365280, Note_on_c, 0, 68, 111
3, 365280, Note_on_c, 0, 63, 111
3, 365280, Note_on_c, 0, 57, 111
3, 365520, Note_off_c, 0, 68, 111
3, 365520, Note_off_c, 0, 63, 111
3, 365520, Note_off_c, 0, 57, 111
3, 365520, Note_on_c, 0, 57, 95
3, 365520, Note_on_c, 0, 47, 47
3, 365760, Note_off_c, 0, 57, 95
3, 365760, Note_off_c, 0, 47, 47
3, 365760, Note_on_c, 0, 46, 47
3, 366000, Note_off_c, 0, 46, 47
3, 366000, Note_on_c, 0, 44, 95
3, 366000, Note_on_c, 0, 39, 95
3, 366240, Note_off_c, 0, 44, 95
3, 366240, Note_off_c, 0, 39, 95
3, 366240, Note_on_c, 0, 60, 111
3, 366240, Note_on_c, 0, 56, 111
3, 366240, Note_on_c, 0, 50, 111
3, 366240, Note_on_c, 0, 44, 95
3, 366240, Note_on_c, 0, 41, 111
3, 366282, Note_off_c, 0, 44, 95
3, 366720, Note_off_c, 0, 60, 111
3, 366720, Note_off_c, 0, 56, 111
3, 366720, Note_off_c, 0, 50, 111
3, 366720, Note_off_c, 0, 41, 111
3, 366720, Note_on_c, 0, 61, 111
3, 366720, Note_on_c, 0, 57, 111
3, 366720, Note_on_c, 0, 51, 111
3, 366720, Note_on_c, 0, 44, 95
3, 366720, Note_on_c, 0, 42, 111
3, 366762, Note_off_c, 0, 44, 95
3, 367200, Note_off_c, 0, 61, 111
3, 367200, Note_off_c, 0, 57, 111
3, 367200, Note_off_c, 0, 51, 111
3, 367200, Note_off_c, 0, 42, 111
3, 367200, Note_on_c, 0, 62, 111
3, 367200, Note_on_c, 0, 58, 111
3, 367440, Note_off_c, 0, 62, 111
3, 367440, Note_off_c, 0, 58, 111
3, 367440, Note_on_c, 0, 52, 95
3, 367680, Note_off_c, 0, 52, 95
3, 367680, Note_on_c, 0, 63, 111
3, 367680, Note_on_c, 0, 59, 111
3, 367920, Note_off_c, 0, 63, 111
3, 367920, Note_off_c, 0, 59, 111
3, 367920, Note_on_c, 0, 53, 95
3, 368160, Note_off_c, 0, 53, 95
3, 368160, Note_on_c, 0, 64, 111
3, 368160, Note_on_c, 0, 60, 111
3, 368400, Note_off_c, 0, 64, 111
3, 368400, Note_off_c, 0, 60, 111
3, 368400, Note_on_c, 0, 54, 95
3, 368640, Note_off_c, 0, 54, 95
3, 368640, Note_on_c, 0, 61, 111
3, 368640, Note_on_c, 0, 55, 111
3, 368640, Note_on_c, 0, 51, 111
3, 368880, Note_off_c, 0, 61, 111
3, 368880, Note_off_c, 0, 55, 111
3, 368880, Note_off_c, 0, 51, 111
3, 368880, Note_on_c, 0, 51, 95
3, 369120, Note_off_c, 0, 51, 95
3, 369120, Note_on_c, 0, 61, 95
3, 369120, Note_on_c, 0, 55, 95
3, 369360, Note_off_c, 0, 61, 95
3, 369360, Note_off_c, 0, 55, 95
3, 369360, Note_on_c, 0, 51, 95
3, 369600, Note_off_c, 0, 51, 95
3, 369600, Note_on_c, 0, 51, 95
3, 369840, Note_off_c, 0, 51, 95
3, 369840, Note_on_c, 0, 49, 95
3, 370080, Note_off_c, 0, 49, 95
3, 370080, Note_on_c, 0, 61, 95
3, 370080, Note_on_c, 0, 55, 95
3, 370080, Note_on_c, 0, 51, 95
3, 370560, Note_off_c, 0, 61, 95
3, 370560, Note_off_c, 0, 55, 95
3, 370560, Note_off_c, 0, 51, 95
3, 370560, Note_on_c, 0, 61, 95
3, 370560, Note_on_c, 0, 55, 95
3, 370800, Note_off_c, 0, 61, 95
3, 370800, Note_off_c, 0, 55, 95
3, 370800, Note_on_c, 0, 51, 95
3, 371040, Note_off_c, 0, 51, 95
3, 371040, Note_on_c, 0, 61, 95
3, 371040, Note_on_c, 0, 55, 95
3, 371520, Note_off_c, 0, 61, 95
3, 371520, Note_off_c, 0, 55, 95
3, 371520, Note_on_c, 0, 61, 95
3, 371520, Note_on_c, 0, 55, 95
3, 371520, Note_on_c, 0, 51, 95
3, 372000, Note_off_c, 0, 61, 95
3, 372000, Note_off_c, 0, 55, 95
3, 372000, Note_off_c, 0, 51, 95
3, 372000, Note_on_c, 0, 61, 95
3, 372000, Note_on_c, 0, 55, 95
3, 372240, Note_off_c, 0, 61, 95
3, 372240, Note_off_c, 0, 55, 95
3, 372240, Note_on_c, 0, 51, 95
3, 372480, Note_off_c, 0, 51, 95
3, 372480, Note_on_c, 0, 61, 95
3, 372480, Note_on_c, 0, 55, 95
3, 372960, Note_off_c, 0, 61, 95
3, 372960, Note_off_c, 0, 55, 95
3, 372960, Note_on_c, 0, 61, 95
3, 372960, Note_on_c, 0, 55, 95
3, 372960, Note_on_c, 0, 51, 95
3, 373440, Note_off_c, 0, 61, 95
3, 373440, Note_off_c, 0, 55, 95
3, 373440, Note_off_c, 0, 51, 95
3, 373440, Note_on_c, 0, 66, 95
3, 373440, Note_on_c, 0, 62, 95
3, 373440, Note_on_c, 0, 56, 95
3, 373440, Note_on_c, 0, 52, 95
3, 373920, Note_off_c, 0, 66, 95
3, 373920, Note_off_c, 0, 62, 95
3, 373920, Note_off_c, 0, 56, 95
3, 373920, Note_off_c, 0, 52, 95
3, 373920, Note_on_c, 0, 66, 95
3, 373920, Note_on_c, 0, 62, 95
3, 373920, Note_on_c, 0, 56, 95
3, 374160, Note_off_c, 0, 66, 95
3, 374160, Note_off_c, 0, 62, 95
3, 374160, Note_off_c, 0, 56, 95
3, 374160, Note_on_c, 0, 66, 47
3, 374160, Note_on_c, 0, 62, 47
3, 374160, Note_on_c, 0, 56, 95
3, 374400, Note_off_c, 0, 66, 47
3, 374400, Note_off_c, 0, 62, 47
3, 374400, Note_off_c, 0, 56, 95
3, 374400, Note_on_c, 0, 61, 111
3, 374400, Note_on_c, 0, 55, 111
3, 374400, Note_on_c, 0, 51, 111
3, 374640, Note_off_c, 0, 61, 111
3, 374640, Note_off_c, 0, 55, 111
3, 374640, Note_off_c, 0, 51, 111
3, 374640, Note_on_c, 0, 61, 95
3, 374640, Note_on_c, 0, 55, 95
3, 374640, Note_on_c, 0, 51, 95
3, 374880, Note_off_c, 0, 61, 95
3, 374880, Note_off_c, 0, 55, 95
3, 374880, Note_off_c, 0, 51, 95
3, 374880, Note_on_c, 0, 61, 95
3, 374880, Note_on_c, 0, 55, 95
3, 374880, Note_on_c, 0, 51, 95
3, 375120, Note_off_c, 0, 61, 95
3, 375120, Note_off_c, 0, 55, 95
3, 375120, Note_off_c, 0, 51, 95
3, 375120, Note_on_c, 0, 61, 95
3, 375120, Note_on_c, 0, 55, 95
3, 375120, Note_on_c, 0, 51, 95
3, 375360, Note_off_c, 0, 61, 95
3, 375360, Note_off_c, 0, 55, 95
3, 375360, Note_off_c, 0, 51, 95
3, 375360, Note_on_c, 0, 61, 95
3, 375360, Note_on_c, 0, 55, 95
3, 375360, Note_on_c, 0, 51, 95
3, 375600, Note_off_c, 0, 61, 95
3, 375600, Note_off_c, 0, 55, 95
3, 375600, Note_off_c, 0, 51, 95
3, 375600, Note_on_c, 0, 61, 95
3, 375600, Note_on_c, 0, 55, 95
3, 375600, Note_on_c, 0, 51, 95
3, 375840, Note_off_c, 0, 61, 95
3, 375840, Note_off_c, 0, 55, 95
3, 375840, Note_off_c, 0, 51, 95
3, 375840, Note_on_c, 0, 61, 95
3, 375840, Note_on_c, 0, 55, 95
3, 375840, Note_on_c, 0, 51, 95
3, 376080, Note_off_c, 0, 61, 95
3, 376080, Note_off_c, 0, 55, 95
3, 376080, Note_off_c, 0, 51, 95
3, 376080, Note_on_c, 0, 61, 95
3, 376080, Note_on_c, 0, 55, 95
3, 376080, Note_on_c, 0, 51, 95
3, 376320, Note_off_c, 0, 61, 95
3, 376320, Note_off_c, 0, 55, 95
3, 376320, Note_off_c, 0, 51, 95
3, 376320, Note_on_c, 0, 61, 95
3, 376320, Note_on_c, 0, 55, 95
3, 376320, Note_on_c, 0, 51, 95
3, 376560, Note_off_c, 0, 61, 95
3, 376560, Note_off_c, 0, 55, 95
3, 376560, Note_off_c, 0, 51, 95
3, 376560, Note_on_c, 0, 61, 95
3, 376560, Note_on_c, 0, 55, 95
3, 376560, Note_on_c, 0, 51, 95
3, 376800, Note_off_c, 0, 61, 95
3, 376800, Note_off_c, 0, 55, 95
3, 376800, Note_off_c, 0, 51, 95
3, 376800, Note_on_c, 0, 61, 95
3, 376800, Note_on_c, 0, 55, 95
3, 376800, Note_on_c, 0, 51, 95
3, 377040, Note_off_c, 0, 61, 95
3, 377040, Note_off_c, 0, 55, 95
3, 377040, Note_off_c, 0, 51, 95
3, 377040, Note_on_c, 0, 61, 95
3, 377040, Note_on_c, 0, 55, 95
3, 377040, Note_on_c, 0, 51, 95
3, 377280, Note_off_c, 0, 61, 95
3, 377280, Note_off_c, 0, 55, 95
3, 377280, Note_off_c, 0, 51, 95
3, 377280, Note_on_c, 0, 61, 95
3, 377280, Note_on_c, 0, 55, 95
3, 377280, Note_on_c, 0, 51, 95
3, 377520, Note_off_c, 0, 61, 95
3, 377520, Note_off_c, 0, 55, 95
3, 377520, Note_off_c, 0, 51, 95
3, 377520, Note_on_c, 0, 61, 95
3, 377520, Note_on_c, 0, 55, 95
3, 377520, Note_on_c, 0, 51, 95
3, 377760, Note_off_c, 0, 61, 95
3, 377760, Note_off_c, 0, 55, 95
3, 377760, Note_off_c, 0, 51, 95
3, 377760, Note_on_c, 0, 61, 95
3, 377760, Note_on_c, 0, 55, 95
3, 377760, Note_on_c, 0, 51, 95
3, 378000, Note_off_c, 0, 61, 95
3, 378000, Note_off_c, 0, 55, 95
3, 378000, Note_off_c, 0, 51, 95
3, 378000, Note_on_c, 0, 61, 95
3, 378000, Note_on_c, 0, 55, 95
3, 378000, Note_on_c, 0, 51, 95
3, 378240, Note_off_c, 0, 61, 95
3, 378240, Note_off_c, 0, 55, 95
3, 378240, Note_off_c, 0, 51, 95
3, 378240, Note_on_c, 0, 61, 95
3, 378240, Note_on_c, 0, 55, 95
3, 378240, Note_on_c, 0, 51, 95
3, 378480, Note_off_c, 0, 61, 95
3, 378480, Note_off_c, 0, 55, 95
3, 378480, Note_off_c, 0, 51, 95
3, 378480, Note_on_c, 0, 61, 95
3, 378480, Note_on_c, 0, 55, 95
3, 378480, Note_on_c, 0, 51, 95
3, 378720, Note_off_c, 0, 61, 95
3, 378720, Note_off_c, 0, 55, 95
3, 378720, Note_off_c, 0, 51, 95
3, 378720, Note_on_c, 0, 61, 95
3, 378720, Note_on_c, 0, 55, 95
3, 378720, Note_on_c, 0, 51, 95
3, 379200, Note_off_c, 0, 61, 95
3, 379200, Note_off_c, 0, 55, 95
3, 379200, Note_off_c, 0, 51, 95
3, 379200, Note_on_c, 0, 61, 95
3, 379200, Note_on_c, 0, 55, 95
3, 379200, Note_on_c, 0, 51, 95
3, 379440, Note_off_c, 0, 61, 95
3, 379440, Note_off_c, 0, 55, 95
3, 379440, Note_off_c, 0, 51, 95
3, 379440, Note_on_c, 0, 61, 95
3, 379440, Note_on_c, 0, 55, 95
3, 379440, Note_on_c, 0, 51, 95
3, 379680, Note_off_c, 0, 61, 95
3, 379680, Note_off_c, 0, 55, 95
3, 379680, Note_off_c, 0, 51, 95
3, 379680, Note_on_c, 0, 61, 95
3, 379680, Note_on_c, 0, 55, 95
3, 379680, Note_on_c, 0, 51, 95
3, 379920, Note_off_c, 0, 61, 95
3, 379920, Note_off_c, 0, 55, 95
3, 379920, Note_off_c, 0, 51, 95
3, 379920, Note_on_c, 0, 61, 95
3, 379920, Note_on_c, 0, 55, 95
3, 379920, Note_on_c, 0, 51, 95
3, 380160, Note_off_c, 0, 61, 95
3, 380160, Note_off_c, 0, 55, 95
3, 380160, Note_off_c, 0, 51, 95
3, 380160, Note_on_c, 0, 62, 95
3, 380160, Note_on_c, 0, 56, 95
3, 380880, Note_off_c, 0, 62, 95
3, 380880, Note_off_c, 0, 56, 95
3, 380880, Note_on_c, 0, 46, 95
3, 381120, Note_off_c, 0, 46, 95
3, 381120, Note_on_c, 0, 62, 95
3, 381120, Note_on_c, 0, 56, 95
3, 381600, Note_off_c, 0, 62, 95
3, 381600, Note_off_c, 0, 56, 95
3, 381600, Note_on_c, 0, 62, 95
3, 381600, Note_on_c, 0, 56, 95
3, 382080, Note_off_c, 0, 62, 95
3, 382080, Note_off_c, 0, 56, 95
3, 382080, Note_on_c, 0, 67, 95
3, 382080, Note_on_c, 0, 62, 95
3, 382080, Note_on_c, 0, 56, 95
3, 382560, Note_off_c, 0, 67, 95
3, 382560, Note_off_c, 0, 62, 95
3, 382560, Note_off_c, 0, 56, 95
3, 382560, Note_on_c, 0, 67, 95
3, 382560, Note_on_c, 0, 62, 95
3, 382560, Note_on_c, 0, 56, 95
3, 382800, Note_off_c, 0, 67, 95
3, 382800, Note_off_c, 0, 62, 95
3, 382800, Note_off_c, 0, 56, 95
3, 382800, Note_on_c, 0, 44, 95
3, 382920, Note_on_c, 1, 67, 79
3, 382920, Note_on_c, 1, 62, 79
3, 382920, Note_on_c, 1, 56, 79
3, 382920, Note_on_c, 1, 46, 79
3, 383040, Note_off_c, 0, 44, 95
3, 383040, Note_off_c, 1, 67, 79
3, 383040, Note_on_c, 1, 68, 95
3, 383040, Note_off_c, 1, 62, 79
3, 383040, Note_on_c, 1, 63, 95
3, 383040, Note_off_c, 1, 56, 79
3, 383040, Note_on_c, 1, 57, 95
3, 383040, Note_off_c, 1, 46, 79
3, 383040, Note_on_c, 1, 47, 95
3, 383280, Note_off_c, 1, 68, 95
3, 383280, Note_off_c, 1, 63, 95
3, 383280, Note_off_c, 1, 57, 95
3, 383280, Note_off_c, 1, 47, 95
3, 383280, Note_on_c, 0, 68, 95
3, 383280, Note_on_c, 0, 63, 95
3, 383280, Note_on_c, 0, 57, 95
3, 383400, Note_off_c, 0, 68, 95
3, 383400, Note_off_c, 0, 63, 95
3, 383400, Note_off_c, 0, 57, 95
3, 383400, Note_on_c, 0, 68, 95
3, 383400, Note_on_c, 0, 63, 95
3, 383520, Note_off_c, 0, 68, 95
3, 383520, Note_off_c, 0, 63, 95
3, 383520, Note_on_c, 0, 68, 95
3, 383520, Note_on_c, 0, 63, 95
3, 383520, Note_on_c, 0, 57, 95
3, 383520, Note_on_c, 0, 44, 95
3, 383520, Note_on_c, 0, 47, 95
3, 383562, Note_off_c, 0, 44, 95
3, 383760, Note_off_c, 0, 68, 95
3, 383760, Note_off_c, 0, 63, 95
3, 383760, Note_off_c, 0, 57, 95
3, 383760, Note_off_c, 0, 47, 95
3, 383760, Note_on_c, 0, 57, 95
3, 384000, Note_off_c, 0, 57, 95
3, 384000, Note_on_c, 0, 68, 95
3, 384000, Note_on_c, 0, 63, 95
3, 384240, Note_off_c, 0, 68, 95
3, 384240, Note_off_c, 0, 63, 95
3, 384240, Note_on_c, 0, 63, 95
3, 384240, Note_on_c, 0, 57, 95
3, 384240, Note_on_c, 0, 44, 95
3, 384240, Note_on_c, 0, 47, 95
3, 384282, Note_off_c, 0, 44, 95
3, 384360, Note_off_c, 0, 63, 95
3, 384360, Note_off_c, 0, 57, 95
3, 384360, Note_off_c, 0, 47, 95
3, 384360, Note_on_c, 0, 63, 95
3, 384360, Note_on_c, 0, 57, 95
3, 384360, Note_on_c, 0, 44, 95
3, 384360, Note_on_c, 0, 47, 95
3, 384360, Note_on_c, 1, 68, 79
3, 384360, Note_on_c, 1, 63, 79
3, 384360, Note_on_c, 1, 57, 79
3, 384402, Note_off_c, 0, 44, 95
3, 384480, Note_off_c, 0, 63, 95
3, 384480, Note_off_c, 0, 57, 95
3, 384480, Note_off_c, 0, 47, 95
3, 384480, Note_off_c, 1, 68, 79
3, 384480, Note_on_c, 1, 70, 95
3, 384480, Note_off_c, 1, 63, 79
3, 384480, Note_on_c, 1, 65, 95
3, 384480, Note_off_c, 1, 57, 79
3, 384480, Note_on_c, 1, 59, 95
3, 384720, Note_off_c, 1, 70, 95
3, 384720, Note_off_c, 1, 65, 95
3, 384720, Note_off_c, 1, 59, 95
3, 384720, Note_on_c, 0, 70, 95
3, 384720, Note_on_c, 0, 65, 95
3, 384720, Note_on_c, 0, 59, 95
3, 384840, Note_off_c, 0, 70, 95
3, 384840, Note_off_c, 0, 65, 95
3, 384840, Note_off_c, 0, 59, 95
3, 384840, Note_on_c, 0, 70, 95
3, 384840, Note_on_c, 0, 65, 95
3, 384840, Note_on_c, 0, 59, 95
3, 384960, Note_off_c, 0, 70, 95
3, 384960, Note_off_c, 0, 65, 95
3, 384960, Note_off_c, 0, 59, 95
3, 384960, Note_on_c, 1, 70, 95
3, 384960, Note_on_c, 1, 65, 95
3, 384960, Note_on_c, 1, 59, 95
3, 385080, Pitch_bend_c, 1, 9600
3, 385080, Pitch_bend_c, 1, 8192
3, 385080, Note_off_c, 1, 70, 95
3, 385080, Pitch_bend_c, 1, 9600
3, 385080, Pitch_bend_c, 1, 8192
3, 385080, Note_off_c, 1, 65, 95
3, 385080, Pitch_bend_c, 1, 9600
3, 385080, Pitch_bend_c, 1, 8192
3, 385080, Note_off_c, 1, 59, 95
3, 385080, Note_on_c, 0, 72, 95
3, 385080, Note_on_c, 0, 67, 95
3, 385080, Note_on_c, 0, 61, 95
3, 385200, Note_off_c, 0, 72, 95
3, 385200, Note_off_c, 0, 67, 95
3, 385200, Note_off_c, 0, 61, 95
3, 385200, Note_on_c, 0, 72, 95
3, 385200, Note_on_c, 0, 67, 95
3, 385200, Note_on_c, 0, 61, 95
3, 385320, Note_off_c, 0, 72, 95
3, 385320, Note_off_c, 0, 67, 95
3, 385320, Note_off_c, 0, 61, 95
3, 385320, Note_on_c, 0, 72, 95
3, 385320, Note_on_c, 0, 67, 95
3, 385440, Note_off_c, 0, 72, 95
3, 385440, Note_off_c, 0, 67, 95
3, 385440, Note_on_c, 0, 70, 95
3, 385440, Note_on_c, 0, 65, 95
3, 385440, Note_on_c, 0, 59, 95
3, 385680, Note_off_c, 0, 70, 95
3, 385680, Note_off_c, 0, 65, 95
3, 385680, Note_off_c, 0, 59, 95
3, 385680, Note_on_c, 0, 70, 95
3, 385680, Note_on_c, 0, 65, 95
3, 385680, Note_on_c, 0, 59, 95
3, 385800, Note_off_c, 0, 70, 95
3, 385800, Note_off_c, 0, 65, 95
3, 385800, Note_off_c, 0, 59, 95
3, 385800, Note_on_c, 0, 70, 95
3, 385800, Note_on_c, 0, 65, 95
3, 385800, Note_on_c, 0, 59, 47
3, 385920, Note_off_c, 0, 70, 95
3, 385920, Note_off_c, 0, 65, 95
3, 385920, Note_off_c, 0, 59, 47
3, 385920, Note_on_c, 0, 68, 95
3, 385920, Note_on_c, 0, 63, 95
3, 385920, Note_on_c, 0, 57, 95
3, 386040, Note_off_c, 0, 68, 95
3, 386040, Note_off_c, 0, 63, 95
3, 386040, Note_off_c, 0, 57, 95
3, 386040, Note_on_c, 0, 68, 95
3, 386040, Note_on_c, 0, 63, 95
3, 386040, Note_on_c, 0, 57, 95
3, 386160, Note_off_c, 0, 68, 95
3, 386160, Note_off_c, 0, 63, 95
3, 386160, Note_off_c, 0, 57, 95
3, 386160, Note_on_c, 0, 68, 95
3, 386160, Note_on_c, 0, 63, 95
3, 386160, Note_on_c, 0, 57, 95
3, 386400, Note_off_c, 0, 68, 95
3, 386400, Note_off_c, 0, 63, 95
3, 386400, Note_off_c, 0, 57, 95
3, 386400, Note_on_c, 0, 67, 95
3, 386400, Note_on_c, 0, 62, 95
3, 386400, Note_on_c, 0, 56, 95
3, 386640, Note_off_c, 0, 67, 95
3, 386640, Note_off_c, 0, 62, 95
3, 386640, Note_off_c, 0, 56, 95
3, 386640, Note_on_c, 0, 67, 95
3, 386640, Note_on_c, 0, 62, 95
3, 386640, Note_on_c, 0, 56, 95
3, 386880, Note_off_c, 0, 67, 95
3, 386880, Note_off_c, 0, 62, 95
3, 386880, Note_off_c, 0, 56, 95
3, 386880, Note_on_c, 0, 67, 95
3, 386880, Note_on_c, 0, 62, 95
3, 386880, Note_on_c, 0, 56, 95
3, 386880, Note_on_c, 0, 44, 95
3, 386880, Note_on_c, 0, 46, 95
3, 386922, Note_off_c, 0, 44, 95
3, 387120, Note_off_c, 0, 67, 95
3, 387120, Note_off_c, 0, 62, 95
3, 387120, Note_off_c, 0, 56, 95
3, 387120, Note_off_c, 0, 46, 95
3, 387120, Note_on_c, 0, 44, 95
3, 387360, Note_off_c, 0, 44, 95
3, 387360, Note_on_c, 0, 67, 95
3, 387360, Note_on_c, 0, 62, 95
3, 387360, Note_on_c, 0, 56, 95
3, 387360, Note_on_c, 0, 44, 95
3, 387360, Note_on_c, 0, 46, 95
3, 387402, Note_off_c, 0, 44, 95
3, 387600, Note_off_c, 0, 67, 95
3, 387600, Note_off_c, 0, 62, 95
3, 387600, Note_off_c, 0, 56, 95
3, 387600, Note_off_c, 0, 46, 95
3, 387600, Note_on_c, 0, 67, 95
3, 387600, Note_on_c, 0, 62, 95
3, 387600, Note_on_c, 0, 56, 95
3, 387840, Note_off_c, 0, 67, 95
3, 387840, Note_off_c, 0, 62, 95
3, 387840, Note_off_c, 0, 56, 95
3, 387840, Note_on_c, 0, 67, 95
3, 387840, Note_on_c, 0, 62, 95
3, 387840, Note_on_c, 0, 56, 95
3, 388080, Note_off_c, 0, 67, 95
3, 388080, Note_off_c, 0, 62, 95
3, 388080, Note_off_c, 0, 56, 95
3, 388080, Note_on_c, 0, 67, 95
3, 388080, Note_on_c, 0, 62, 95
3, 388080, Note_on_c, 0, 56, 95
3, 388200, Note_off_c, 0, 67, 95
3, 388200, Note_off_c, 0, 62, 95
3, 388200, Note_off_c, 0, 56, 95
3, 388200, Note_on_c, 0, 67, 95
3, 388200, Note_on_c, 0, 62, 95
3, 388200, Note_on_c, 0, 56, 95
3, 388320, Note_off_c, 0, 67, 95
3, 388320, Note_off_c, 0, 62, 95
3, 388320, Note_off_c, 0, 56, 95
3, 388320, Note_on_c, 0, 67, 95
3, 388320, Note_on_c, 0, 62, 95
3, 388320, Note_on_c, 0, 56, 95
3, 388560, Note_off_c, 0, 67, 95
3, 388560, Note_off_c, 0, 62, 95
3, 388560, Note_off_c, 0, 56, 95
3, 388560, Note_on_c, 0, 67, 95
3, 388560, Note_on_c, 0, 62, 95
3, 388560, Note_on_c, 0, 56, 95
3, 388800, Note_off_c, 0, 67, 95
3, 388800, Note_off_c, 0, 62, 95
3, 388800, Note_off_c, 0, 56, 95
3, 388800, Note_on_c, 0, 65, 95
3, 388960, Note_off_c, 0, 65, 95
3, 388960, Pitch_bend_c, 1, 9600
3, 388960, Note_on_c, 1, 68, 95
3, 389120, Pitch_bend_c, 1, 9600
3, 389120, Pitch_bend_c, 1, 8192
3, 389120, Note_off_c, 1, 68, 95
3, 389120, Note_on_c, 0, 65, 95
3, 389120, Note_on_c, 0, 61, 95
3, 389280, Note_off_c, 0, 65, 95
3, 389280, Note_off_c, 0, 61, 95
3, 389280, Note_on_c, 0, 61, 95
3, 389600, Note_off_c, 0, 61, 95
3, 389600, Note_on_c, 0, 58, 95
3, 389760, Note_off_c, 0, 58, 95
3, 389760, Note_on_c, 0, 61, 95
3, 390000, Note_off_c, 0, 61, 95
3, 390000, Note_on_c, 0, 63, 95
3, 390240, Note_off_c, 0, 63, 95
3, 390240, Pitch_bend_c, 1, 8192
3, 390240, Note_on_c, 1, 63, 95
3, 390264, Pitch_bend_c, 1, 8320
3, 390288, Pitch_bend_c, 1, 8448
3, 390312, Pitch_bend_c, 1, 8576
3, 390336, Pitch_bend_c, 1, 8704
3, 390360, Pitch_bend_c, 1, 8832
3, 390360, Pitch_bend_c, 1, 8832
3, 390480, Pitch_bend_c, 1, 8832
3, 390480, Pitch_bend_c, 1, 8192
3, 390480, Note_off_c, 1, 63, 95
3, 390480, Note_on_c, 0, 63, 95
3, 390600, Note_off_c, 0, 63, 95
3, 390600, Note_on_c, 0, 65, 95
3, 390600, Note_on_c, 0, 61, 95
3, 390720, Note_off_c, 0, 65, 95
3, 390720, Note_off_c, 0, 61, 95
3, 390720, Note_on_c, 0, 63, 95
3, 390840, Note_off_c, 0, 63, 95
3, 390840, Note_on_c, 0, 61, 95
3, 390960, Note_off_c, 0, 61, 95
3, 390960, Note_on_c, 0, 58, 95
3, 391200, Note_off_c, 0, 58, 95
3, 391200, Note_on_c, 0, 61, 95
3, 391440, Note_off_c, 0, 61, 95
3, 391440, Note_on_c, 0, 63, 95
3, 391680, Note_off_c, 0, 63, 95
3, 391680, Pitch_bend_c, 1, 9600
3, 391680, Note_on_c, 1, 63, 111
3, 391680, Note_on_c, 1, 58, 111
3, 391840, Pitch_bend_c, 1, 8192
3, 392000, Pitch_bend_c, 1, 8320
3, 392160, Pitch_bend_c, 1, 8192
3, 392320, Pitch_bend_c, 1, 9600
3, 392320, Pitch_bend_c, 1, 8320
3, 392349, Pitch_bend_c, 1, 9472
3, 392378, Pitch_bend_c, 1, 9344
3, 392407, Pitch_bend_c, 1, 9216
3, 392436, Pitch_bend_c, 1, 9088
3, 392465, Pitch_bend_c, 1, 8960
3, 392480, Pitch_bend_c, 1, 8192
3, 392494, Pitch_bend_c, 1, 8832
3, 392523, Pitch_bend_c, 1, 8704
3, 392552, Pitch_bend_c, 1, 8576
3, 392581, Pitch_bend_c, 1, 8448
3, 392610, Pitch_bend_c, 1, 8320
3, 392639, Pitch_bend_c, 1, 8192
3, 392640, Pitch_bend_c, 1, 8192
3, 392640, Pitch_bend_c, 1, 8192
3, 392640, Note_off_c, 1, 63, 111
3, 392640, Pitch_bend_c, 1, 8320
3, 392640, Pitch_bend_c, 1, 8192
3, 392640, Note_off_c, 1, 58, 111
3, 392640, Note_on_c, 0, 63, 63
3, 392760, Note_off_c, 0, 63, 63
3, 392760, Note_on_c, 0, 61, 70
3, 392880, Note_off_c, 0, 61, 70
3, 392880, Note_on_c, 0, 58, 79
3, 393000, Note_off_c, 0, 58, 79
3, 393000, Note_on_c, 0, 56, 54
3, 393120, Note_off_c, 0, 56, 54
3, 393120, Note_on_c, 0, 58, 70
3, 393240, Note_off_c, 0, 58, 70
3, 393240, Note_on_c, 0, 56, 70
3, 393360, Note_off_c, 0, 56, 70
3, 393360, Note_on_c, 0, 58, 70
3, 393480, Note_off_c, 0, 58, 70
3, 393480, Note_on_c, 0, 56, 70
3, 393600, Note_off_c, 0, 56, 70
3, 393600, Note_on_c, 0, 58, 70
3, 393720, Note_off_c, 0, 58, 70
3, 393720, Note_on_c, 0, 56, 70
3, 393840, Note_off_c, 0, 56, 70
3, 393840, Note_on_c, 0, 58, 70
3, 393960, Note_off_c, 0, 58, 70
3, 393960, Note_on_c, 0, 56, 70
3, 394080, Note_off_c, 0, 56, 70
3, 394080, Note_on_c, 0, 53, 79
3, 394200, Note_off_c, 0, 53, 79
3, 394200, Note_on_c, 0, 51, 54
3, 394320, Note_off_c, 0, 51, 54
3, 394320, Note_on_c, 0, 48, 63
3, 394560, Note_off_c, 0, 48, 63
3, 395520, Note_on_c, 0, 48, 95
3, 395760, Note_off_c, 0, 48, 95
3, 395760, Note_on_c, 0, 48, 95
3, 396000, Note_off_c, 0, 48, 95
3, 396000, Note_on_c, 0, 51, 95
3, 396240, Note_off_c, 0, 51, 95
3, 396240, Note_on_c, 0, 53, 70
3, 396480, Note_off_c, 0, 53, 70
3, 396480, Note_on_c, 0, 56, 95
3, 396720, Note_off_c, 0, 56, 95
3, 396720, Note_on_c, 0, 58, 95
3, 396960, Note_off_c, 0, 58, 95
3, 396960, Note_on_c, 0, 56, 95
3, 397200, Note_off_c, 0, 56, 95
3, 397200, Note_on_c, 0, 53, 95
3, 397440, Note_off_c, 0, 53, 95
3, 397440, Note_on_c, 0, 61, 111
3, 397440, Note_on_c, 0, 49, 95
3, 397440, Note_on_c, 0, 51, 111
3, 397482, Note_off_c, 0, 49, 95
3, 397920, Note_off_c, 0, 61, 111
3, 397920, Note_off_c, 0, 51, 111
3, 403200, Note_on_c, 0, 65, 111
3, 403200, Note_on_c, 0, 62, 111
3, 403200, Note_on_c, 0, 58, 111
3, 403200, Note_on_c, 0, 53, 111
3, 403200, Note_on_c, 0, 46, 111
3, 404640, Note_off_c, 0, 65, 111
3, 404640, Note_off_c, 0, 62, 111
3, 404640, Note_off_c, 0, 58, 111
3, 404640, Note_off_c, 0, 53, 111
3, 404640, Note_off_c, 0, 46, 111
3, 404640, Pitch_bend_c, 1, 8192
3, 404640, Note_on_c, 1, 63, 111
3, 404654, Pitch_bend_c, 1, 8320
3, 404668, Pitch_bend_c, 1, 8448
3, 404682, Pitch_bend_c, 1, 8576
3, 404696, Pitch_bend_c, 1, 8704
3, 404710, Pitch_bend_c, 1, 8832
3, 404724, Pitch_bend_c, 1, 8960
3, 404738, Pitch_bend_c, 1, 9088
3, 404752, Pitch_bend_c, 1, 9216
3, 404766, Pitch_bend_c, 1, 9344
3, 404780, Pitch_bend_c, 1, 9472
3, 404794, Pitch_bend_c, 1, 9600
3, 404800, Pitch_bend_c, 1, 9600
3, 405600, Pitch_bend_c, 1, 9600
3, 405600, Pitch_bend_c, 1, 8192
3, 405600, Note_off_c, 1, 63, 111
3, 405600, Note_on_c, 0, 65, 95
3, 405920, Note_off_c, 0, 65, 95
3, 405920, Note_on_c, 0, 54, 47
3, 406080, Note_off_c, 0, 54, 47
3, 406080, Pitch_bend_c, 1, 9600
3, 406080, Note_on_c, 1, 68, 95
3, 406320, Pitch_bend_c, 1, 9600
3, 406320, Pitch_bend_c, 1, 8192
3, 406320, Note_off_c, 1, 68, 95
3, 406320, Note_on_c, 0, 68, 95
3, 406560, Note_off_c, 0, 68, 95
3, 406560, Note_on_c, 0, 65, 95
3, 406800, Note_off_c, 0, 65, 95
3, 406800, Pitch_bend_c, 1, 8192
3, 406800, Note_on_c, 1, 63, 95
3, 406810, Pitch_bend_c, 1, 8320
3, 406820, Pitch_bend_c, 1, 8448
3, 406830, Pitch_bend_c, 1, 8576
3, 406840, Pitch_bend_c, 1, 8704
3, 406850, Pitch_bend_c, 1, 8832
3, 406860, Pitch_bend_c, 1, 8960
3, 406870, Pitch_bend_c, 1, 9088
3, 406880, Pitch_bend_c, 1, 9216
3, 406890, Pitch_bend_c, 1, 9344
3, 406900, Pitch_bend_c, 1, 9472
3, 406910, Pitch_bend_c, 1, 9600
3, 406920, Pitch_bend_c, 1, 9600
3, 407040, Pitch_bend_c, 1, 9600
3, 407040, Pitch_bend_c, 1, 8192
3, 407040, Note_off_c, 1, 63, 95
3, 407040, Note_on_c, 0, 63, 95
3, 407280, Note_off_c, 0, 63, 95
3, 407280, Note_on_c, 0, 61, 95
3, 407520, Note_off_c, 0, 61, 95
3, 407520, Note_on_c, 0, 63, 95
3, 407760, Note_off_c, 0, 63, 95
3, 407760, Note_on_c, 0, 61, 95
3, 408000, Note_off_c, 0, 61, 95
3, 408000, Note_on_c, 0, 58, 95
3, 408240, Note_off_c, 0, 58, 95
3, 408240, Note_on_c, 0, 61, 95
3, 408480, Note_off_c, 0, 61, 95
3, 408480, Note_on_c, 0, 63, 95
3, 408720, Note_off_c, 0, 63, 95
3, 408720, Pitch_bend_c, 1, 8192
3, 408720, Note_on_c, 1, 63, 95
3, 408730, Pitch_bend_c, 1, 8320
3, 408740, Pitch_bend_c, 1, 8448
3, 408750, Pitch_bend_c, 1, 8576
3, 408760, Pitch_bend_c, 1, 8704
3, 408770, Pitch_bend_c, 1, 8832
3, 408780, Pitch_bend_c, 1, 8960
3, 408790, Pitch_bend_c, 1, 9088
3, 408800, Pitch_bend_c, 1, 9216
3, 408810, Pitch_bend_c, 1, 9344
3, 408820, Pitch_bend_c, 1, 9472
3, 408830, Pitch_bend_c, 1, 9600
3, 408840, Pitch_bend_c, 1, 9600
3, 408960, Pitch_bend_c, 1, 9600
3, 408960, Pitch_bend_c, 1, 8192
3, 408960, Note_off_c, 1, 63, 95
3, 408960, Note_on_c, 0, 61, 95
3, 409200, Note_off_c, 0, 61, 95
3, 409200, Note_on_c, 0, 58, 95
3, 409320, Note_off_c, 0, 58, 95
3, 409320, Note_on_c, 0, 54, 47
3, 409320, Note_on_c, 0, 49, 22
3, 409440, Note_off_c, 0, 54, 47
3, 409440, Note_off_c, 0, 49, 22
3, 409440, Note_on_c, 1, 56, 95
3, 410400, Note_off_c, 1, 56, 95
3, 410400, Note_on_c, 0, 51, 95
3, 410430, Note_on_c, 0, 57, 95
3, 410460, Note_on_c, 0, 61, 95
3, 410490, Note_on_c, 0, 66, 95
3, 410880, Note_off_c, 0, 66, 95
3, 410880, Note_off_c, 0, 61, 95
3, 410880, Note_off_c, 0, 57, 95
3, 410880, Note_off_c, 0, 51, 95
3, 411360, Note_on_c, 0, 50, 111
3, 411390, Note_on_c, 0, 56, 111
3, 411420, Note_on_c, 0, 60, 111
3, 411450, Note_on_c, 0, 65, 111
3, 412800, Note_off_c, 0, 65, 111
3, 412800, Note_off_c, 0, 60, 111
3, 412800, Note_off_c, 0, 56, 111
3, 412800, Note_off_c, 0, 50, 111
3, 412800, Note_on_c, 0, 65, 95
3, 412830, Note_on_c, 0, 60, 95
3, 412860, Note_on_c, 0, 56, 95
3, 412890, Note_on_c, 0, 50, 95
3, 413760, Note_off_c, 0, 65, 95
3, 413760, Note_off_c, 0, 60, 95
3, 413760, Note_off_c, 0, 56, 95
3, 413760, Note_off_c, 0, 50, 95
3, 413760, Note_on_c, 0, 56, 95
3, 413760, Note_on_c, 0, 50, 95
3, 414720, Note_off_c, 0, 56, 95
3, 414720, Note_off_c, 0, 50, 95
3, 414720, Note_on_c, 0, 39, 95
3, 414759, Note_off_c, 0, 58, 95
3, 414759, Note_off_c, 0, 54, 95
3, 414759, Note_off_c, 0, 49, 95
3, 414759, Note_off_c, 0, 44, 95
3, 414759, Note_off_c, 0, 39, 95
3, 414780, Note_on_c, 0, 44, 95
3, 414840, Note_on_c, 0, 49, 95
3, 414900, Note_on_c, 0, 54, 95
3, 414960, Note_on_c, 0, 58, 95
3, 414960, End_track
4, 0, Start_track
4, 0, Pitch_bend_c, 2, 8192
4, 0, Control_c, 2, 7, 79
4, 0, Control_c, 2, 10, 47
4, 0, Control_c, 2, 93, 31
4, 0, Control_c, 2, 91, 31
4, 0, Control_c, 2, 95, 0
4, 0, Control_c, 2, 92, 0
4, 0, Control_c, 2, 11, 127
4, 0, Program_c, 2, 35
4, 0, Control_c, 3, 7, 79
4, 0, Control_c, 3, 10, 47
4, 0, Control_c, 3, 93, 31
4, 0, Control_c, 3, 91, 31
4, 0, Control_c, 3, 95, 0
4, 0, Control_c, 3, 92, 0
4, 0, Control_c, 3, 11, 127
4, 0, Program_c, 3, 35
4, 0, Note_on_c, 2, 74, 79
4, 480, Note_off_c, 2, 74, 79
4, 480, Note_on_c, 3, 68, 63
4, 640, Pitch_bend_c, 3, 8192
4, 800, Pitch_bend_c, 3, 8320
4, 960, Pitch_bend_c, 3, 8192
4, 960, Pitch_bend_c, 3, 8320
4, 960, Pitch_bend_c, 3, 8192
4, 960, Note_off_c, 3, 68, 63
4, 960, Note_on_c, 3, 65, 63
4, 1120, Pitch_bend_c, 3, 8192
4, 1280, Pitch_bend_c, 3, 8320
4, 1440, Pitch_bend_c, 3, 8192
4, 1440, Pitch_bend_c, 3, 8320
4, 1440, Pitch_bend_c, 3, 8192
4, 1440, Note_off_c, 3, 65, 63
4, 1440, Note_on_c, 3, 74, 79
4, 1600, Pitch_bend_c, 3, 8192
4, 1760, Pitch_bend_c, 3, 8320
4, 1920, Pitch_bend_c, 3, 8192
4, 1920, Pitch_bend_c, 3, 8320
4, 1920, Pitch_bend_c, 3, 8192
4, 1920, Note_off_c, 3, 74, 79
4, 1920, Note_on_c, 3, 68, 63
4, 2080, Pitch_bend_c, 3, 8192
4, 2240, Pitch_bend_c, 3, 8320
4, 2400, Pitch_bend_c, 3, 8192
4, 2400, Pitch_bend_c, 3, 8320
4, 2400, Pitch_bend_c, 3, 8192
4, 2400, Note_off_c, 3, 68, 63
4, 2400, Note_on_c, 3, 65, 63
4, 2560, Pitch_bend_c, 3, 8192
4, 2720, Pitch_bend_c, 3, 8320
4, 2880, Pitch_bend_c, 3, 8192
4, 2880, Pitch_bend_c, 3, 8320
4, 2880, Pitch_bend_c, 3, 8192
4, 2880, Note_off_c, 3, 65, 63
4, 2880, Note_on_c, 3, 74, 79
4, 3040, Pitch_bend_c, 3, 8192
4, 3200, Pitch_bend_c, 3, 8320
4, 3360, Pitch_bend_c, 3, 8192
4, 3360, Pitch_bend_c, 3, 8320
4, 3360, Pitch_bend_c, 3, 8192
4, 3360, Note_off_c, 3, 74, 79
4, 3360, Note_on_c, 3, 68, 63
4, 3520, Pitch_bend_c, 3, 8192
4, 3680, Pitch_bend_c, 3, 8320
4, 3840, Pitch_bend_c, 3, 8192
4, 3840, Pitch_bend_c, 3, 8320
4, 3840, Pitch_bend_c, 3, 8192
4, 3840, Note_off_c, 3, 68, 63
4, 3840, Note_on_c, 2, 65, 63
4, 3840, Note_on_c, 2, 49, 95
4, 3885, Note_off_c, 2, 49, 95
4, 4320, Note_off_c, 2, 65, 63
4, 4320, Note_on_c, 2, 74, 79
4, 4800, Note_off_c, 2, 74, 79
4, 4800, Note_on_c, 2, 68, 63
4, 5280, Note_off_c, 2, 68, 63
4, 5280, Note_on_c, 3, 65, 63
4, 5400, Pitch_bend_c, 3, 7936
4, 5520, Pitch_bend_c, 3, 7552
4, 5520, Pitch_bend_c, 3, 8192
4, 5520, Note_off_c, 3, 65, 63
4, 5520, Note_on_c, 2, 64, 63
4, 5760, Note_off_c, 2, 64, 63
4, 5760, Note_on_c, 3, 73, 79
4, 5920, Pitch_bend_c, 3, 8192
4, 6080, Pitch_bend_c, 3, 8320
4, 6240, Pitch_bend_c, 3, 8192
4, 6240, Pitch_bend_c, 3, 8320
4, 6240, Pitch_bend_c, 3, 8192
4, 6240, Note_off_c, 3, 73, 79
4, 6240, Note_on_c, 3, 67, 63
4, 6400, Pitch_bend_c, 3, 8192
4, 6560, Pitch_bend_c, 3, 8320
4, 6720, Pitch_bend_c, 3, 8192
4, 6720, Pitch_bend_c, 3, 8320
4, 6720, Pitch_bend_c, 3, 8192
4, 6720, Note_off_c, 3, 67, 63
4, 6720, Note_on_c, 3, 64, 79
4, 6880, Pitch_bend_c, 3, 8192
4, 7040, Pitch_bend_c, 3, 8320
4, 7200, Pitch_bend_c, 3, 8192
4, 7200, Pitch_bend_c, 3, 8320
4, 7200, Pitch_bend_c, 3, 8192
4, 7200, Note_off_c, 3, 64, 79
4, 7200, Note_on_c, 3, 73, 79
4, 7360, Pitch_bend_c, 3, 8192
4, 7520, Pitch_bend_c, 3, 8320
4, 7680, Pitch_bend_c, 3, 8192
4, 7680, Pitch_bend_c, 3, 8320
4, 7680, Pitch_bend_c, 3, 8192
4, 7680, Note_off_c, 3, 73, 79
4, 7680, Note_on_c, 3, 67, 63
4, 7840, Pitch_bend_c, 3, 8192
4, 8000, Pitch_bend_c, 3, 8320
4, 8160, Pitch_bend_c, 3, 8192
4, 8160, Pitch_bend_c, 3, 8320
4, 8160, Pitch_bend_c, 3, 8192
4, 8160, Note_off_c, 3, 67, 63
4, 8160, Note_on_c, 3, 64, 79
4, 8320, Pitch_bend_c, 3, 8192
4, 8480, Pitch_bend_c, 3, 8320
4, 8640, Pitch_bend_c, 3, 8192
4, 8640, Pitch_bend_c, 3, 8320
4, 8640, Pitch_bend_c, 3, 8192
4, 8640, Note_off_c, 3, 64, 79
4, 8640, Note_on_c, 3, 73, 95
4, 8800, Pitch_bend_c, 3, 8192
4, 8960, Pitch_bend_c, 3, 8320
4, 9120, Pitch_bend_c, 3, 8192
4, 9120, Pitch_bend_c, 3, 8320
4, 9120, Pitch_bend_c, 3, 8192
4, 9120, Note_off_c, 3, 73, 95
4, 9120, Note_on_c, 3, 67, 79
4, 9280, Pitch_bend_c, 3, 8192
4, 9440, Pitch_bend_c, 3, 8320
4, 9600, Pitch_bend_c, 3, 8192
4, 9600, Pitch_bend_c, 3, 8320
4, 9600, Pitch_bend_c, 3, 8192
4, 9600, Note_off_c, 3, 67, 79
4, 9600, Note_on_c, 3, 64, 79
4, 9760, Pitch_bend_c, 3, 8192
4, 9920, Pitch_bend_c, 3, 8320
4, 10080, Pitch_bend_c, 3, 8192
4, 10080, Pitch_bend_c, 3, 8320
4, 10080, Pitch_bend_c, 3, 8192
4, 10080, Note_off_c, 3, 64, 79
4, 10080, Note_on_c, 3, 73, 95
4, 10240, Pitch_bend_c, 3, 8192
4, 10400, Pitch_bend_c, 3, 8320
4, 10560, Pitch_bend_c, 3, 8192
4, 10560, Pitch_bend_c, 3, 8320
4, 10560, Pitch_bend_c, 3, 8192
4, 10560, Note_off_c, 3, 73, 95
4, 10560, Note_on_c, 3, 67, 79
4, 10720, Pitch_bend_c, 3, 8192
4, 10880, Pitch_bend_c, 3, 8320
4, 11040, Pitch_bend_c, 3, 8192
4, 11040, Pitch_bend_c, 3, 8320
4, 11040, Pitch_bend_c, 3, 8192
4, 11040, Note_off_c, 3, 67, 79
4, 11040, Note_on_c, 2, 64, 79
4, 11520, Note_off_c, 2, 64, 79
4, 11520, Note_on_c, 3, 74, 95
4, 11520, Note_on_c, 3, 68, 95
4, 11520, Note_on_c, 3, 65, 95
4, 11640, Pitch_bend_c, 3, 7168
4, 11640, Pitch_bend_c, 3, 7552
4, 11640, Pitch_bend_c, 3, 7168
4, 11760, Pitch_bend_c, 3, 6144
4, 11760, Pitch_bend_c, 3, 6784
4, 11760, Pitch_bend_c, 3, 6144
4, 11880, Pitch_bend_c, 3, 5120
4, 11880, Pitch_bend_c, 3, 6144
4, 11880, Pitch_bend_c, 3, 5120
4, 12000, Pitch_bend_c, 3, 3968
4, 12000, Pitch_bend_c, 3, 8192
4, 12000, Note_off_c, 3, 74, 95
4, 12000, Pitch_bend_c, 3, 5376
4, 12000, Pitch_bend_c, 3, 8192
4, 12000, Note_off_c, 3, 68, 95
4, 12000, Pitch_bend_c, 3, 3968
4, 12000, Pitch_bend_c, 3, 8192
4, 12000, Note_off_c, 3, 65, 95
4, 12000, Note_on_c, 2, 68, 15
4, 12000, Note_on_c, 2, 64, 15
4, 12000, Note_on_c, 2, 59, 15
4, 12480, Note_off_c, 2, 68, 15
4, 12480, Note_off_c, 2, 64, 15
4, 12480, Note_off_c, 2, 59, 15
4, 12960, Pitch_bend_c, 3, 8192
4, 12960, Note_on_c, 3, 68, 95
4, 13003, Pitch_bend_c, 3, 8320
4, 13046, Pitch_bend_c, 3, 8448
4, 13089, Pitch_bend_c, 3, 8576
4, 13132, Pitch_bend_c, 3, 8704
4, 13175, Pitch_bend_c, 3, 8832
4, 13218, Pitch_bend_c, 3, 8960
4, 13261, Pitch_bend_c, 3, 9088
4, 13304, Pitch_bend_c, 3, 9216
4, 13347, Pitch_bend_c, 3, 9344
4, 13390, Pitch_bend_c, 3, 9472
4, 13433, Pitch_bend_c, 3, 9600
4, 13440, Pitch_bend_c, 3, 9600
4, 14400, Pitch_bend_c, 3, 9600
4, 14400, Pitch_bend_c, 3, 8192
4, 14400, Note_off_c, 3, 68, 95
4, 14400, Pitch_bend_c, 3, 8192
4, 14400, Note_on_c, 3, 68, 95
4, 14410, Pitch_bend_c, 3, 8320
4, 14420, Pitch_bend_c, 3, 8448
4, 14430, Pitch_bend_c, 3, 8576
4, 14440, Pitch_bend_c, 3, 8704
4, 14450, Pitch_bend_c, 3, 8832
4, 14460, Pitch_bend_c, 3, 8960
4, 14470, Pitch_bend_c, 3, 9088
4, 14480, Pitch_bend_c, 3, 9216
4, 14490, Pitch_bend_c, 3, 9344
4, 14500, Pitch_bend_c, 3, 9472
4, 14510, Pitch_bend_c, 3, 9600
4, 14520, Pitch_bend_c, 3, 9600
4, 14640, Pitch_bend_c, 3, 9600
4, 14640, Pitch_bend_c, 3, 8192
4, 14640, Note_off_c, 3, 68, 95
4, 14640, Pitch_bend_c, 3, 8832
4, 14640, Note_on_c, 3, 64, 95
4, 14760, Pitch_bend_c, 3, 8832
4, 14784, Pitch_bend_c, 3, 8704
4, 14808, Pitch_bend_c, 3, 8576
4, 14832, Pitch_bend_c, 3, 8448
4, 14856, Pitch_bend_c, 3, 8320
4, 14880, Pitch_bend_c, 3, 8192
4, 14880, Pitch_bend_c, 3, 8192
4, 15120, Pitch_bend_c, 3, 8192
4, 15120, Pitch_bend_c, 3, 8192
4, 15120, Note_off_c, 3, 64, 95
4, 15120, Pitch_bend_c, 3, 8192
4, 15120, Note_on_c, 3, 63, 79
4, 15130, Pitch_bend_c, 3, 8320
4, 15140, Pitch_bend_c, 3, 8448
4, 15150, Pitch_bend_c, 3, 8576
4, 15160, Pitch_bend_c, 3, 8704
4, 15170, Pitch_bend_c, 3, 8832
4, 15180, Pitch_bend_c, 3, 8960
4, 15190, Pitch_bend_c, 3, 9088
4, 15200, Pitch_bend_c, 3, 9216
4, 15210, Pitch_bend_c, 3, 9344
4, 15220, Pitch_bend_c, 3, 9472
4, 15230, Pitch_bend_c, 3, 9600
4, 15240, Pitch_bend_c, 3, 9600
4, 15360, Pitch_bend_c, 3, 9600
4, 15360, Pitch_bend_c, 3, 8192
4, 15360, Note_off_c, 3, 63, 79
4, 15360, Note_on_c, 2, 61, 79
4, 15840, Note_off_c, 2, 61, 79
4, 15840, Pitch_bend_c, 3, 8192
4, 15840, Note_on_c, 3, 68, 95
4, 15883, Pitch_bend_c, 3, 8320
4, 15926, Pitch_bend_c, 3, 8448
4, 15969, Pitch_bend_c, 3, 8576
4, 16012, Pitch_bend_c, 3, 8704
4, 16055, Pitch_bend_c, 3, 8832
4, 16098, Pitch_bend_c, 3, 8960
4, 16141, Pitch_bend_c, 3, 9088
4, 16184, Pitch_bend_c, 3, 9216
4, 16227, Pitch_bend_c, 3, 9344
4, 16270, Pitch_bend_c, 3, 9472
4, 16313, Pitch_bend_c, 3, 9600
4, 16320, Pitch_bend_c, 3, 9600
4, 16800, Pitch_bend_c, 3, 9600
4, 16800, Pitch_bend_c, 3, 8192
4, 16800, Note_off_c, 3, 68, 95
4, 17280, Pitch_bend_c, 3, 8192
4, 17280, Note_on_c, 3, 68, 95
4, 17301, Pitch_bend_c, 3, 8320
4, 17322, Pitch_bend_c, 3, 8448
4, 17343, Pitch_bend_c, 3, 8576
4, 17364, Pitch_bend_c, 3, 8704
4, 17385, Pitch_bend_c, 3, 8832
4, 17406, Pitch_bend_c, 3, 8960
4, 17427, Pitch_bend_c, 3, 9088
4, 17448, Pitch_bend_c, 3, 9216
4, 17469, Pitch_bend_c, 3, 9344
4, 17490, Pitch_bend_c, 3, 9472
4, 17511, Pitch_bend_c, 3, 9600
4, 17520, Pitch_bend_c, 3, 9600
4, 17760, Pitch_bend_c, 3, 9600
4, 17760, Pitch_bend_c, 3, 8192
4, 17760, Note_off_c, 3, 68, 95
4, 17760, Note_on_c, 2, 68, 79
4, 18240, Note_off_c, 2, 68, 79
4, 18240, Pitch_bend_c, 3, 9600
4, 18240, Note_on_c, 3, 63, 79
4, 18360, Pitch_bend_c, 3, 9600
4, 18370, Pitch_bend_c, 3, 9472
4, 18380, Pitch_bend_c, 3, 9344
4, 18390, Pitch_bend_c, 3, 9216
4, 18400, Pitch_bend_c, 3, 9088
4, 18410, Pitch_bend_c, 3, 8960
4, 18420, Pitch_bend_c, 3, 8832
4, 18430, Pitch_bend_c, 3, 8704
4, 18440, Pitch_bend_c, 3, 8576
4, 18450, Pitch_bend_c, 3, 8448
4, 18460, Pitch_bend_c, 3, 8320
4, 18470, Pitch_bend_c, 3, 8192
4, 18480, Pitch_bend_c, 3, 8192
4, 18720, Pitch_bend_c, 3, 8192
4, 18720, Pitch_bend_c, 3, 8192
4, 18720, Note_off_c, 3, 63, 79
4, 18720, Pitch_bend_c, 3, 8192
4, 18720, Note_on_c, 3, 63, 95
4, 18741, Pitch_bend_c, 3, 8320
4, 18762, Pitch_bend_c, 3, 8448
4, 18783, Pitch_bend_c, 3, 8576
4, 18804, Pitch_bend_c, 3, 8704
4, 18825, Pitch_bend_c, 3, 8832
4, 18846, Pitch_bend_c, 3, 8960
4, 18867, Pitch_bend_c, 3, 9088
4, 18888, Pitch_bend_c, 3, 9216
4, 18909, Pitch_bend_c, 3, 9344
4, 18930, Pitch_bend_c, 3, 9472
4, 18951, Pitch_bend_c, 3, 9600
4, 18960, Pitch_bend_c, 3, 9600
4, 19200, Pitch_bend_c, 3, 9600
4, 19200, Pitch_bend_c, 3, 8192
4, 19200, Note_off_c, 3, 63, 95
4, 19200, Note_on_c, 2, 61, 79
4, 19680, Note_off_c, 2, 61, 79
4, 19680, Note_on_c, 2, 58, 79
4, 20160, Note_off_c, 2, 58, 79
4, 20160, Pitch_bend_c, 3, 8192
4, 20160, Note_on_c, 3, 56, 95
4, 20320, Pitch_bend_c, 3, 8320
4, 20480, Pitch_bend_c, 3, 8448
4, 20480, Pitch_bend_c, 3, 8448
4, 20640, Pitch_bend_c, 3, 8448
4, 20640, Pitch_bend_c, 3, 8192
4, 20640, Note_off_c, 3, 56, 95
4, 20640, Note_on_c, 2, 53, 79
4, 20960, Note_off_c, 2, 53, 79
4, 20960, Note_on_c, 2, 52, 79
4, 21120, Note_off_c, 2, 52, 79
4, 21120, Note_on_c, 2, 51, 79
4, 21600, Note_off_c, 2, 51, 79
4, 21600, Note_on_c, 2, 54, 31
4, 21600, Pitch_bend_c, 3, 8192
4, 21600, Note_on_c, 3, 54, 79
4, 21600, Pitch_bend_c, 3, 8192
4, 21600, Note_on_c, 3, 49, 79
4, 21840, Pitch_bend_c, 3, 8320
4, 21840, Pitch_bend_c, 3, 8320
4, 22080, Pitch_bend_c, 3, 8448
4, 22080, Pitch_bend_c, 3, 8448
4, 22080, Pitch_bend_c, 3, 8448
4, 22080, Pitch_bend_c, 3, 8448
4, 22560, Note_off_c, 2, 54, 31
4, 22560, Pitch_bend_c, 3, 8448
4, 22560, Pitch_bend_c, 3, 8192
4, 22560, Note_off_c, 3, 54, 79
4, 22560, Pitch_bend_c, 3, 8448
4, 22560, Pitch_bend_c, 3, 8192
4, 22560, Note_off_c, 3, 49, 79
4, 22560, Note_on_c, 2, 46, 79
4, 23040, Note_off_c, 2, 46, 79
4, 23040, Pitch_bend_c, 3, 8192
4, 23040, Note_on_c, 3, 63, 95
4, 23061, Pitch_bend_c, 3, 8320
4, 23082, Pitch_bend_c, 3, 8448
4, 23103, Pitch_bend_c, 3, 8576
4, 23124, Pitch_bend_c, 3, 8704
4, 23145, Pitch_bend_c, 3, 8832
4, 23166, Pitch_bend_c, 3, 8960
4, 23187, Pitch_bend_c, 3, 9088
4, 23208, Pitch_bend_c, 3, 9216
4, 23229, Pitch_bend_c, 3, 9344
4, 23250, Pitch_bend_c, 3, 9472
4, 23271, Pitch_bend_c, 3, 9600
4, 23280, Pitch_bend_c, 3, 9600
4, 23520, Pitch_bend_c, 3, 9600
4, 23520, Pitch_bend_c, 3, 8192
4, 23520, Note_off_c, 3, 63, 95
4, 23520, Note_on_c, 2, 65, 79
4, 23760, Note_off_c, 2, 65, 79
4, 23760, Note_on_c, 2, 70, 79
4, 24000, Note_off_c, 2, 70, 79
4, 24000, Note_on_c, 2, 68, 79
4, 24120, Note_off_c, 2, 68, 79
4, 24120, Note_on_c, 2, 65, 79
4, 24480, Note_off_c, 2, 65, 79
4, 24480, Pitch_bend_c, 3, 8192
4, 24480, Note_on_c, 3, 63, 79
4, 24490, Pitch_bend_c, 3, 8320
4, 24500, Pitch_bend_c, 3, 8448
4, 24510, Pitch_bend_c, 3, 8576
4, 24520, Pitch_bend_c, 3, 8704
4, 24530, Pitch_bend_c, 3, 8832
4, 24540, Pitch_bend_c, 3, 8960
4, 24550, Pitch_bend_c, 3, 9088
4, 24560, Pitch_bend_c, 3, 9216
4, 24570, Pitch_bend_c, 3, 9344
4, 24580, Pitch_bend_c, 3, 9472
4, 24590, Pitch_bend_c, 3, 9600
4, 24600, Pitch_bend_c, 3, 9600
4, 24720, Pitch_bend_c, 3, 9600
4, 24720, Pitch_bend_c, 3, 8192
4, 24720, Note_off_c, 3, 63, 79
4, 24720, Note_on_c, 2, 63, 79
4, 24960, Note_off_c, 2, 63, 79
4, 24960, Note_on_c, 2, 61, 79
4, 25200, Note_off_c, 2, 61, 79
4, 25200, Pitch_bend_c, 3, 8192
4, 25200, Note_on_c, 3, 63, 79
4, 25221, Pitch_bend_c, 3, 8320
4, 25242, Pitch_bend_c, 3, 8448
4, 25263, Pitch_bend_c, 3, 8576
4, 25284, Pitch_bend_c, 3, 8704
4, 25305, Pitch_bend_c, 3, 8832
4, 25326, Pitch_bend_c, 3, 8960
4, 25347, Pitch_bend_c, 3, 9088
4, 25368, Pitch_bend_c, 3, 9216
4, 25389, Pitch_bend_c, 3, 9344
4, 25410, Pitch_bend_c, 3, 9472
4, 25431, Pitch_bend_c, 3, 9600
4, 25440, Pitch_bend_c, 3, 9600
4, 25680, Pitch_bend_c, 3, 9600
4, 25680, Pitch_bend_c, 3, 8192
4, 25680, Note_off_c, 3, 63, 79
4, 25680, Note_on_c, 2, 63, 79
4, 25800, Note_off_c, 2, 63, 79
4, 25800, Note_on_c, 2, 61, 54
4, 25920, Note_off_c, 2, 61, 54
4, 25920, Note_on_c, 2, 58, 79
4, 26160, Note_off_c, 2, 58, 79
4, 26160, Note_on_c, 2, 61, 79
4, 26400, Note_off_c, 2, 61, 79
4, 26400, Note_on_c, 2, 58, 63
4, 26520, Note_off_c, 2, 58, 63
4, 26520, Note_on_c, 2, 56, 38
4, 26640, Note_off_c, 2, 56, 38
4, 26640, Note_on_c, 2, 53, 63
4, 26760, Note_off_c, 2, 53, 63
4, 26760, Note_on_c, 2, 51, 22
4, 26880, Note_off_c, 2, 51, 22
4, 31200, Pitch_bend_c, 3, 8192
4, 31200, Note_on_c, 3, 63, 95
4, 31221, Pitch_bend_c, 3, 8320
4, 31242, Pitch_bend_c, 3, 8448
4, 31263, Pitch_bend_c, 3, 8576
4, 31284, Pitch_bend_c, 3, 8704
4, 31305, Pitch_bend_c, 3, 8832
4, 31326, Pitch_bend_c, 3, 8960
4, 31347, Pitch_bend_c, 3, 9088
4, 31368, Pitch_bend_c, 3, 9216
4, 31389, Pitch_bend_c, 3, 9344
4, 31410, Pitch_bend_c, 3, 9472
4, 31431, Pitch_bend_c, 3, 9600
4, 31440, Pitch_bend_c, 3, 9600
4, 31680, Pitch_bend_c, 3, 9600
4, 31680, Pitch_bend_c, 3, 8192
4, 31680, Note_off_c, 3, 63, 95
4, 31680, Note_on_c, 2, 65, 95
4, 31920, Note_off_c, 2, 65, 95
4, 31920, Note_on_c, 2, 70, 79
4, 32160, Note_off_c, 2, 70, 79
4, 32160, Note_on_c, 2, 68, 79
4, 32400, Note_off_c, 2, 68, 79
4, 32400, Note_on_c, 2, 65, 79
4, 32640, Note_off_c, 2, 65, 79
4, 32640, Pitch_bend_c, 3, 8192
4, 32640, Note_on_c, 3, 68, 79
4, 32661, Pitch_bend_c, 3, 8320
4, 32682, Pitch_bend_c, 3, 8448
4, 32703, Pitch_bend_c, 3, 8576
4, 32724, Pitch_bend_c, 3, 8704
4, 32745, Pitch_bend_c, 3, 8832
4, 32766, Pitch_bend_c, 3, 8960
4, 32787, Pitch_bend_c, 3, 9088
4, 32808, Pitch_bend_c, 3, 9216
4, 32829, Pitch_bend_c, 3, 9344
4, 32850, Pitch_bend_c, 3, 9472
4, 32871, Pitch_bend_c, 3, 9600
4, 32880, Pitch_bend_c, 3, 9600
4, 33120, Pitch_bend_c, 3, 9600
4, 33120, Pitch_bend_c, 3, 8192
4, 33120, Note_off_c, 3, 68, 79
4, 33120, Note_on_c, 2, 70, 95
4, 33280, Note_off_c, 2, 70, 95
4, 33280, Note_on_c, 2, 68, 79
4, 33440, Note_off_c, 2, 68, 79
4, 33440, Note_on_c, 2, 70, 79
4, 33440, Note_on_c, 2, 65, 79
4, 33600, Note_off_c, 2, 70, 79
4, 33600, Note_off_c, 2, 65, 79
4, 33600, Pitch_bend_c, 3, 8192
4, 33600, Note_on_c, 3, 63, 95
4, 33610, Pitch_bend_c, 3, 8320
4, 33620, Pitch_bend_c, 3, 8448
4, 33630, Pitch_bend_c, 3, 8576
4, 33640, Pitch_bend_c, 3, 8704
4, 33650, Pitch_bend_c, 3, 8832
4, 33660, Pitch_bend_c, 3, 8960
4, 33670, Pitch_bend_c, 3, 9088
4, 33680, Pitch_bend_c, 3, 9216
4, 33690, Pitch_bend_c, 3, 9344
4, 33700, Pitch_bend_c, 3, 9472
4, 33710, Pitch_bend_c, 3, 9600
4, 33720, Pitch_bend_c, 3, 9600
4, 33840, Pitch_bend_c, 3, 9600
4, 33840, Pitch_bend_c, 3, 8192
4, 33840, Note_off_c, 3, 63, 95
4, 34080, Note_on_c, 2, 70, 79
4, 34240, Note_off_c, 2, 70, 79
4, 34240, Note_on_c, 2, 68, 79
4, 34400, Note_off_c, 2, 68, 79
4, 34400, Note_on_c, 2, 65, 79
4, 34560, Note_off_c, 2, 65, 79
4, 34560, Note_on_c, 2, 64, 79
4, 34800, Note_off_c, 2, 64, 79
4, 34800, Note_on_c, 2, 63, 79
4, 34920, Note_off_c, 2, 63, 79
4, 34920, Note_on_c, 2, 61, 79
4, 35040, Note_off_c, 2, 61, 79
4, 35040, Note_on_c, 2, 58, 79
4, 35200, Note_off_c, 2, 58, 79
4, 35200, Note_on_c, 2, 61, 79
4, 35360, Note_off_c, 2, 61, 79
4, 35360, Pitch_bend_c, 3, 8192
4, 35360, Note_on_c, 3, 63, 79
4, 35379, Pitch_bend_c, 3, 8320
4, 35398, Pitch_bend_c, 3, 8448
4, 35417, Pitch_bend_c, 3, 8576
4, 35436, Pitch_bend_c, 3, 8704
4, 35455, Pitch_bend_c, 3, 8832
4, 35474, Pitch_bend_c, 3, 8960
4, 35493, Pitch_bend_c, 3, 9088
4, 35512, Pitch_bend_c, 3, 9216
4, 35531, Pitch_bend_c, 3, 9344
4, 35550, Pitch_bend_c, 3, 9472
4, 35569, Pitch_bend_c, 3, 9600
4, 35573, Pitch_bend_c, 3, 9600
4, 36000, Pitch_bend_c, 3, 9600
4, 36000, Pitch_bend_c, 3, 8192
4, 36000, Note_off_c, 3, 63, 79
4, 36000, Note_on_c, 2, 63, 95
4, 36120, Note_off_c, 2, 63, 95
4, 36120, Note_on_c, 2, 61, 54
4, 36240, Note_off_c, 2, 61, 54
4, 36240, Note_on_c, 2, 58, 79
4, 36360, Note_off_c, 2, 58, 79
4, 36360, Note_on_c, 2, 61, 79
4, 36480, Note_off_c, 2, 61, 79
4, 36480, Note_on_c, 2, 58, 79
4, 36600, Note_off_c, 2, 58, 79
4, 36600, Note_on_c, 2, 56, 38
4, 36720, Note_off_c, 2, 56, 38
4, 36720, Note_on_c, 2, 53, 15
4, 37200, Note_off_c, 2, 53, 15
4, 39920, Pitch_bend_c, 3, 8192
4, 39920, Note_on_c, 3, 68, 79
4, 39932, Pitch_bend_c, 3, 8320
4, 39944, Pitch_bend_c, 3, 8448
4, 39956, Pitch_bend_c, 3, 8576
4, 39968, Pitch_bend_c, 3, 8704
4, 39980, Pitch_bend_c, 3, 8832
4, 39992, Pitch_bend_c, 3, 8960
4, 40004, Pitch_bend_c, 3, 9088
4, 40016, Pitch_bend_c, 3, 9216
4, 40028, Pitch_bend_c, 3, 9344
4, 40040, Pitch_bend_c, 3, 9472
4, 40052, Pitch_bend_c, 3, 9600
4, 40053, Pitch_bend_c, 3, 9600
4, 40320, Pitch_bend_c, 3, 9600
4, 40320, Pitch_bend_c, 3, 8192
4, 40320, Note_off_c, 3, 68, 79
4, 40320, Note_on_c, 2, 70, 95
4, 40560, Note_off_c, 2, 70, 95
4, 40560, Note_on_c, 2, 68, 79
4, 40800, Note_off_c, 2, 68, 79
4, 40800, Note_on_c, 2, 65, 79
4, 41040, Note_off_c, 2, 65, 79
4, 41040, Pitch_bend_c, 3, 8192
4, 41040, Note_on_c, 3, 63, 79
4, 41050, Pitch_bend_c, 3, 8320
4, 41060, Pitch_bend_c, 3, 8448
4, 41070, Pitch_bend_c, 3, 8576
4, 41080, Pitch_bend_c, 3, 8704
4, 41090, Pitch_bend_c, 3, 8832
4, 41100, Pitch_bend_c, 3, 8960
4, 41110, Pitch_bend_c, 3, 9088
4, 41120, Pitch_bend_c, 3, 9216
4, 41130, Pitch_bend_c, 3, 9344
4, 41140, Pitch_bend_c, 3, 9472
4, 41150, Pitch_bend_c, 3, 9600
4, 41160, Pitch_bend_c, 3, 9600
4, 41280, Pitch_bend_c, 3, 9600
4, 41280, Pitch_bend_c, 3, 8192
4, 41280, Note_off_c, 3, 63, 79
4, 41280, Note_on_c, 2, 63, 79
4, 41520, Note_off_c, 2, 63, 79
4, 41520, Note_on_c, 3, 61, 79
4, 41680, Pitch_bend_c, 3, 8192
4, 41840, Pitch_bend_c, 3, 8320
4, 42000, Pitch_bend_c, 3, 8192
4, 42160, Pitch_bend_c, 3, 8320
4, 42240, Pitch_bend_c, 3, 8192
4, 42240, Pitch_bend_c, 3, 8320
4, 42240, Pitch_bend_c, 3, 8192
4, 42240, Note_off_c, 3, 61, 79
4, 46080, Note_on_c, 2, 63, 95
4, 46240, Note_off_c, 2, 63, 95
4, 46240, Note_on_c, 2, 65, 79
4, 46400, Note_off_c, 2, 65, 79
4, 46400, Note_on_c, 2, 65, 79
4, 46560, Note_off_c, 2, 65, 79
4, 46560, Note_on_c, 2, 70, 79
4, 46720, Note_off_c, 2, 70, 79
4, 46720, Pitch_bend_c, 3, 8192
4, 46720, Note_on_c, 3, 72, 95
4, 46734, Pitch_bend_c, 3, 8320
4, 46748, Pitch_bend_c, 3, 8448
4, 46762, Pitch_bend_c, 3, 8576
4, 46776, Pitch_bend_c, 3, 8704
4, 46790, Pitch_bend_c, 3, 8832
4, 46804, Pitch_bend_c, 3, 8960
4, 46818, Pitch_bend_c, 3, 9088
4, 46832, Pitch_bend_c, 3, 9216
4, 46846, Pitch_bend_c, 3, 9344
4, 46860, Pitch_bend_c, 3, 9472
4, 46874, Pitch_bend_c, 3, 9600
4, 46880, Pitch_bend_c, 3, 9600
4, 47040, Pitch_bend_c, 3, 9600
4, 47040, Pitch_bend_c, 3, 8192
4, 47040, Note_off_c, 3, 72, 95
4, 47040, Note_on_c, 3, 72, 79
4, 47200, Pitch_bend_c, 3, 8192
4, 47360, Pitch_bend_c, 3, 8320
4, 47520, Pitch_bend_c, 3, 8192
4, 47680, Pitch_bend_c, 3, 8320
4, 47680, Pitch_bend_c, 3, 8192
4, 47680, Note_off_c, 3, 72, 79
4, 47680, Note_on_c, 2, 70, 79
4, 47840, Note_off_c, 2, 70, 79
4, 47840, Pitch_bend_c, 3, 8192
4, 47840, Note_on_c, 3, 72, 54
4, 47854, Pitch_bend_c, 3, 8320
4, 47868, Pitch_bend_c, 3, 8448
4, 47882, Pitch_bend_c, 3, 8576
4, 47896, Pitch_bend_c, 3, 8704
4, 47910, Pitch_bend_c, 3, 8832
4, 47924, Pitch_bend_c, 3, 8960
4, 47938, Pitch_bend_c, 3, 9088
4, 47952, Pitch_bend_c, 3, 9216
4, 47966, Pitch_bend_c, 3, 9344
4, 47980, Pitch_bend_c, 3, 9472
4, 47994, Pitch_bend_c, 3, 9600
4, 48000, Pitch_bend_c, 3, 9600
4, 48320, Pitch_bend_c, 3, 9600
4, 48320, Pitch_bend_c, 3, 8192
4, 48320, Note_off_c, 3, 72, 54
4, 48320, Note_on_c, 2, 72, 79
4, 48480, Note_off_c, 2, 72, 79
4, 48480, Note_on_c, 2, 70, 79
4, 48640, Note_off_c, 2, 70, 79
4, 48640, Note_on_c, 2, 72, 54
4, 48800, Note_off_c, 2, 72, 54
4, 48800, Note_on_c, 2, 70, 54
4, 48960, Note_off_c, 2, 70, 54
4, 48960, Note_on_c, 2, 68, 79
4, 49120, Note_off_c, 2, 68, 79
4, 49120, Note_on_c, 2, 67, 54
4, 49280, Note_off_c, 2, 67, 54
4, 49280, Note_on_c, 2, 65, 54
4, 49280, Note_on_c, 2, 54, 31
4, 49440, Note_off_c, 2, 65, 54
4, 49440, Note_off_c, 2, 54, 31
4, 49440, Note_on_c, 2, 63, 79
4, 49760, Note_off_c, 2, 63, 79
4, 49760, Note_on_c, 2, 65, 79
4, 49920, Note_off_c, 2, 65, 79
4, 49920, Pitch_bend_c, 3, 8192
4, 49920, Note_on_c, 3, 67, 54
4, 49941, Pitch_bend_c, 3, 8320
4, 49962, Pitch_bend_c, 3, 8448
4, 49983, Pitch_bend_c, 3, 8576
4, 50004, Pitch_bend_c, 3, 8704
4, 50025, Pitch_bend_c, 3, 8832
4, 50046, Pitch_bend_c, 3, 8960
4, 50067, Pitch_bend_c, 3, 9088
4, 50088, Pitch_bend_c, 3, 9216
4, 50109, Pitch_bend_c, 3, 9344
4, 50130, Pitch_bend_c, 3, 9472
4, 50151, Pitch_bend_c, 3, 9600
4, 50160, Pitch_bend_c, 3, 9600
4, 50400, Pitch_bend_c, 3, 9600
4, 50400, Pitch_bend_c, 3, 8192
4, 50400, Note_off_c, 3, 67, 54
4, 50400, Note_on_c, 2, 67, 95
4, 50520, Note_off_c, 2, 67, 95
4, 50520, Note_on_c, 2, 65, 54
4, 50640, Note_off_c, 2, 65, 54
4, 50640, Note_on_c, 2, 63, 79
4, 50880, Note_off_c, 2, 63, 79
4, 50880, Note_on_c, 3, 65, 95
4, 51040, Pitch_bend_c, 3, 8192
4, 51200, Pitch_bend_c, 3, 8320
4, 51360, Pitch_bend_c, 3, 8192
4, 51520, Pitch_bend_c, 3, 8320
4, 51680, Pitch_bend_c, 3, 8192
4, 51840, Pitch_bend_c, 3, 8320
4, 51840, Pitch_bend_c, 3, 8192
4, 51840, Note_off_c, 3, 65, 95
4, 52080, Pitch_bend_c, 3, 8192
4, 52080, Note_on_c, 3, 65, 79
4, 52101, Pitch_bend_c, 3, 8320
4, 52122, Pitch_bend_c, 3, 8448
4, 52143, Pitch_bend_c, 3, 8576
4, 52164, Pitch_bend_c, 3, 8704
4, 52185, Pitch_bend_c, 3, 8832
4, 52206, Pitch_bend_c, 3, 8960
4, 52227, Pitch_bend_c, 3, 9088
4, 52248, Pitch_bend_c, 3, 9216
4, 52269, Pitch_bend_c, 3, 9344
4, 52290, Pitch_bend_c, 3, 9472
4, 52311, Pitch_bend_c, 3, 9600
4, 52320, Pitch_bend_c, 3, 9600
4, 52560, Pitch_bend_c, 3, 9600
4, 52560, Pitch_bend_c, 3, 8192
4, 52560, Note_off_c, 3, 65, 79
4, 52560, Note_on_c, 2, 65, 79
4, 52800, Note_off_c, 2, 65, 79
4, 52800, Note_on_c, 2, 65, 79
4, 52960, Note_off_c, 2, 65, 79
4, 52960, Note_on_c, 2, 67, 54
4, 53120, Note_off_c, 2, 67, 54
4, 53120, Note_on_c, 2, 65, 54
4, 53280, Note_off_c, 2, 65, 54
4, 53280, Note_on_c, 2, 63, 79
4, 53400, Note_off_c, 2, 63, 79
4, 53400, Note_on_c, 2, 65, 54
4, 53520, Note_off_c, 2, 65, 54
4, 53520, Note_on_c, 3, 63, 54
4, 53640, Pitch_bend_c, 3, 6784
4, 53640, Pitch_bend_c, 3, 8192
4, 53640, Note_off_c, 3, 63, 54
4, 53640, Note_on_c, 2, 61, 79
4, 53760, Note_off_c, 2, 61, 79
4, 53760, Note_on_c, 2, 58, 79
4, 53920, Note_off_c, 2, 58, 79
4, 53920, Note_on_c, 2, 61, 79
4, 54080, Note_off_c, 2, 61, 79
4, 54080, Pitch_bend_c, 3, 8192
4, 54080, Note_on_c, 3, 63, 54
4, 54094, Pitch_bend_c, 3, 8320
4, 54108, Pitch_bend_c, 3, 8448
4, 54122, Pitch_bend_c, 3, 8576
4, 54136, Pitch_bend_c, 3, 8704
4, 54150, Pitch_bend_c, 3, 8832
4, 54164, Pitch_bend_c, 3, 8960
4, 54178, Pitch_bend_c, 3, 9088
4, 54192, Pitch_bend_c, 3, 9216
4, 54206, Pitch_bend_c, 3, 9344
4, 54220, Pitch_bend_c, 3, 9472
4, 54234, Pitch_bend_c, 3, 9600
4, 54240, Pitch_bend_c, 3, 9600
4, 54400, Pitch_bend_c, 3, 9600
4, 54400, Pitch_bend_c, 3, 8192
4, 54400, Note_off_c, 3, 63, 54
4, 54400, Note_on_c, 2, 65, 79
4, 54560, Note_off_c, 2, 65, 79
4, 54560, Note_on_c, 2, 70, 79
4, 54720, Note_off_c, 2, 70, 79
4, 54720, Note_on_c, 2, 68, 95
4, 54880, Note_off_c, 2, 68, 95
4, 54880, Note_on_c, 2, 65, 79
4, 55040, Note_off_c, 2, 65, 79
4, 55040, Pitch_bend_c, 3, 8192
4, 55040, Note_on_c, 3, 63, 79
4, 55047, Pitch_bend_c, 3, 8320
4, 55054, Pitch_bend_c, 3, 8448
4, 55061, Pitch_bend_c, 3, 8576
4, 55068, Pitch_bend_c, 3, 8704
4, 55075, Pitch_bend_c, 3, 8832
4, 55082, Pitch_bend_c, 3, 8960
4, 55089, Pitch_bend_c, 3, 9088
4, 55096, Pitch_bend_c, 3, 9216
4, 55103, Pitch_bend_c, 3, 9344
4, 55110, Pitch_bend_c, 3, 9472
4, 55117, Pitch_bend_c, 3, 9600
4, 55120, Pitch_bend_c, 3, 9600
4, 55200, Pitch_bend_c, 3, 9600
4, 55200, Pitch_bend_c, 3, 8192
4, 55200, Note_off_c, 3, 63, 79
4, 55200, Note_on_c, 2, 63, 79
4, 55320, Note_off_c, 2, 63, 79
4, 55320, Note_on_c, 2, 61, 54
4, 55440, Note_off_c, 2, 61, 54
4, 55440, Note_on_c, 2, 58, 79
4, 55680, Note_off_c, 2, 58, 79
4, 55680, Pitch_bend_c, 3, 8192
4, 55680, Note_on_c, 3, 61, 95
4, 55740, Pitch_bend_c, 3, 8320
4, 55800, Pitch_bend_c, 3, 8448
4, 55800, Pitch_bend_c, 3, 8448
4, 55826, Pitch_bend_c, 3, 8576
4, 55852, Pitch_bend_c, 3, 8704
4, 55878, Pitch_bend_c, 3, 8832
4, 55904, Pitch_bend_c, 3, 8960
4, 55930, Pitch_bend_c, 3, 9088
4, 55956, Pitch_bend_c, 3, 9216
4, 55982, Pitch_bend_c, 3, 9344
4, 56008, Pitch_bend_c, 3, 9472
4, 56034, Pitch_bend_c, 3, 9600
4, 56040, Pitch_bend_c, 3, 9600
4, 56160, Pitch_bend_c, 3, 9600
4, 56160, Pitch_bend_c, 3, 8192
4, 56160, Note_off_c, 3, 61, 95
4, 56640, Note_on_c, 2, 58, 79
4, 56800, Note_off_c, 2, 58, 79
4, 56800, Note_on_c, 2, 61, 79
4, 56960, Note_off_c, 2, 61, 79
4, 56960, Pitch_bend_c, 3, 8192
4, 56960, Note_on_c, 3, 63, 79
4, 56974, Pitch_bend_c, 3, 8320
4, 56988, Pitch_bend_c, 3, 8448
4, 57002, Pitch_bend_c, 3, 8576
4, 57016, Pitch_bend_c, 3, 8704
4, 57030, Pitch_bend_c, 3, 8832
4, 57044, Pitch_bend_c, 3, 8960
4, 57058, Pitch_bend_c, 3, 9088
4, 57072, Pitch_bend_c, 3, 9216
4, 57086, Pitch_bend_c, 3, 9344
4, 57100, Pitch_bend_c, 3, 9472
4, 57114, Pitch_bend_c, 3, 9600
4, 57120, Pitch_bend_c, 3, 9600
4, 57440, Pitch_bend_c, 3, 9600
4, 57440, Pitch_bend_c, 3, 8192
4, 57440, Note_off_c, 3, 63, 79
4, 57440, Note_on_c, 2, 65, 79
4, 57600, Note_off_c, 2, 65, 79
4, 57600, Pitch_bend_c, 3, 8192
4, 57600, Note_on_c, 3, 63, 95
4, 57610, Pitch_bend_c, 3, 8320
4, 57620, Pitch_bend_c, 3, 8448
4, 57630, Pitch_bend_c, 3, 8576
4, 57640, Pitch_bend_c, 3, 8704
4, 57650, Pitch_bend_c, 3, 8832
4, 57660, Pitch_bend_c, 3, 8960
4, 57670, Pitch_bend_c, 3, 9088
4, 57680, Pitch_bend_c, 3, 9216
4, 57690, Pitch_bend_c, 3, 9344
4, 57700, Pitch_bend_c, 3, 9472
4, 57710, Pitch_bend_c, 3, 9600
4, 57720, Pitch_bend_c, 3, 9600
4, 57840, Pitch_bend_c, 3, 9600
4, 57840, Pitch_bend_c, 3, 8192
4, 57840, Note_off_c, 3, 63, 95
4, 57840, Note_on_c, 2, 65, 79
4, 58080, Note_off_c, 2, 65, 79
4, 58080, Pitch_bend_c, 3, 8192
4, 58080, Note_on_c, 3, 63, 95
4, 58090, Pitch_bend_c, 3, 8320
4, 58100, Pitch_bend_c, 3, 8448
4, 58110, Pitch_bend_c, 3, 8576
4, 58120, Pitch_bend_c, 3, 8704
4, 58130, Pitch_bend_c, 3, 8832
4, 58140, Pitch_bend_c, 3, 8960
4, 58150, Pitch_bend_c, 3, 9088
4, 58160, Pitch_bend_c, 3, 9216
4, 58170, Pitch_bend_c, 3, 9344
4, 58180, Pitch_bend_c, 3, 9472
4, 58190, Pitch_bend_c, 3, 9600
4, 58200, Pitch_bend_c, 3, 9600
4, 58320, Pitch_bend_c, 3, 9600
4, 58320, Pitch_bend_c, 3, 8192
4, 58320, Note_off_c, 3, 63, 95
4, 58320, Note_on_c, 2, 63, 79
4, 58440, Note_off_c, 2, 63, 79
4, 58440, Note_on_c, 2, 61, 54
4, 58560, Note_off_c, 2, 61, 54
4, 58560, Note_on_c, 2, 58, 79
4, 58680, Note_off_c, 2, 58, 79
4, 58680, Note_on_c, 2, 56, 79
4, 58680, Note_on_c, 2, 51, 31
4, 58800, Note_off_c, 2, 56, 79
4, 58800, Note_off_c, 2, 51, 31
4, 60000, Pitch_bend_c, 3, 8192
4, 60000, Note_on_c, 3, 63, 79
4, 60014, Pitch_bend_c, 3, 8320
4, 60028, Pitch_bend_c, 3, 8448
4, 60042, Pitch_bend_c, 3, 8576
4, 60056, Pitch_bend_c, 3, 8704
4, 60070, Pitch_bend_c, 3, 8832
4, 60084, Pitch_bend_c, 3, 8960
4, 60098, Pitch_bend_c, 3, 9088
4, 60112, Pitch_bend_c, 3, 9216
4, 60126, Pitch_bend_c, 3, 9344
4, 60140, Pitch_bend_c, 3, 9472
4, 60154, Pitch_bend_c, 3, 9600
4, 60160, Pitch_bend_c, 3, 9600
4, 60320, Pitch_bend_c, 3, 9600
4, 60320, Pitch_bend_c, 3, 8192
4, 60320, Note_off_c, 3, 63, 79
4, 60320, Note_on_c, 2, 65, 79
4, 60480, Note_off_c, 2, 65, 79
4, 60480, Note_on_c, 2, 68, 79
4, 60720, Note_off_c, 2, 68, 79
4, 60720, Note_on_c, 2, 65, 79
4, 60960, Note_off_c, 2, 65, 79
4, 60960, Note_on_c, 3, 68, 79
4, 61120, Pitch_bend_c, 3, 8192
4, 61280, Pitch_bend_c, 3, 8320
4, 61440, Pitch_bend_c, 3, 8192
4, 61600, Pitch_bend_c, 3, 8320
4, 61760, Pitch_bend_c, 3, 8192
4, 61920, Pitch_bend_c, 3, 8320
4, 61920, Pitch_bend_c, 3, 8192
4, 61920, Note_off_c, 3, 68, 79
4, 61920, Note_on_c, 2, 70, 79
4, 62100, Note_on_c, 3, 58, 95
4, 62142, Note_off_c, 3, 58, 95
4, 62160, Note_off_c, 2, 70, 79
4, 62160, Note_on_c, 2, 70, 79
4, 62160, Note_on_c, 3, 58, 95
4, 62400, Note_off_c, 2, 70, 79
4, 62400, Note_off_c, 3, 58, 95
4, 62400, Note_on_c, 2, 70, 79
4, 62640, Note_off_c, 2, 70, 79
4, 62640, Pitch_bend_c, 3, 8192
4, 62640, Note_on_c, 3, 68, 79
4, 62661, Pitch_bend_c, 3, 8320
4, 62682, Pitch_bend_c, 3, 8448
4, 62703, Pitch_bend_c, 3, 8576
4, 62724, Pitch_bend_c, 3, 8704
4, 62745, Pitch_bend_c, 3, 8832
4, 62766, Pitch_bend_c, 3, 8960
4, 62787, Pitch_bend_c, 3, 9088
4, 62808, Pitch_bend_c, 3, 9216
4, 62829, Pitch_bend_c, 3, 9344
4, 62850, Pitch_bend_c, 3, 9472
4, 62871, Pitch_bend_c, 3, 9600
4, 62873, Pitch_bend_c, 3, 9600
4, 63200, Pitch_bend_c, 3, 9600
4, 63200, Pitch_bend_c, 3, 8192
4, 63200, Note_off_c, 3, 68, 79
4, 63200, Note_on_c, 2, 70, 79
4, 63360, Note_off_c, 2, 70, 79
4, 63360, Note_on_c, 2, 68, 79
4, 63520, Note_off_c, 2, 68, 79
4, 63520, Note_on_c, 2, 70, 79
4, 63680, Note_off_c, 2, 70, 79
4, 63680, Pitch_bend_c, 3, 8192
4, 63680, Note_on_c, 3, 63, 79
4, 63687, Pitch_bend_c, 3, 8320
4, 63694, Pitch_bend_c, 3, 8448
4, 63701, Pitch_bend_c, 3, 8576
4, 63708, Pitch_bend_c, 3, 8704
4, 63715, Pitch_bend_c, 3, 8832
4, 63722, Pitch_bend_c, 3, 8960
4, 63729, Pitch_bend_c, 3, 9088
4, 63736, Pitch_bend_c, 3, 9216
4, 63743, Pitch_bend_c, 3, 9344
4, 63750, Pitch_bend_c, 3, 9472
4, 63757, Pitch_bend_c, 3, 9600
4, 63760, Pitch_bend_c, 3, 9600
4, 63840, Pitch_bend_c, 3, 9600
4, 63840, Pitch_bend_c, 3, 8192
4, 63840, Note_off_c, 3, 63, 79
4, 63840, Note_on_c, 2, 63, 79
4, 63840, Note_on_c, 2, 49, 79
4, 63960, Note_off_c, 2, 63, 79
4, 63960, Note_off_c, 2, 49, 79
4, 63960, Note_on_c, 2, 61, 54
4, 64080, Note_off_c, 2, 61, 54
4, 64080, Note_on_c, 2, 58, 79
4, 64320, Note_off_c, 2, 58, 79
4, 64320, Note_on_c, 2, 61, 79
4, 64560, Note_off_c, 2, 61, 79
4, 64560, Note_on_c, 2, 58, 79
4, 64680, Note_off_c, 2, 58, 79
4, 64680, Note_on_c, 2, 56, 54
4, 64800, Note_off_c, 2, 56, 54
4, 64800, Note_on_c, 2, 53, 79
4, 64960, Note_off_c, 2, 53, 79
4, 64960, Note_on_c, 2, 51, 54
4, 65120, Note_off_c, 2, 51, 54
4, 65120, Note_on_c, 2, 48, 63
4, 65280, Note_off_c, 2, 48, 63
4, 65280, Note_on_c, 2, 49, 95
4, 65322, Note_off_c, 2, 49, 95
4, 65760, Pitch_bend_c, 3, 8192
4, 65760, Note_on_c, 3, 56, 79
4, 65880, Pitch_bend_c, 3, 8320
4, 66000, Pitch_bend_c, 3, 8448
4, 66000, Pitch_bend_c, 3, 8448
4, 66240, Pitch_bend_c, 3, 8448
4, 66240, Pitch_bend_c, 3, 8192
4, 66240, Note_off_c, 3, 56, 79
4, 66240, Note_on_c, 2, 53, 95
4, 66960, Note_off_c, 2, 53, 95
4, 66960, Note_on_c, 2, 51, 54
4, 67200, Note_off_c, 2, 51, 54
4, 67200, Note_on_c, 2, 48, 63
4, 67680, Note_off_c, 2, 48, 63
4, 68160, Note_on_c, 2, 49, 79
4, 68202, Note_off_c, 2, 49, 79
4, 68520, Note_on_c, 3, 56, 79
4, 68640, Note_off_c, 3, 56, 79
4, 68640, Note_on_c, 3, 58, 79
4, 68880, Note_off_c, 3, 58, 79
4, 68880, Note_on_c, 3, 61, 79
4, 69000, Pitch_bend_c, 3, 10240
4, 69000, Pitch_bend_c, 3, 8192
4, 69000, Note_off_c, 3, 61, 79
4, 69000, Note_on_c, 2, 64, 79
4, 69120, Note_off_c, 2, 64, 79
4, 69120, Note_on_c, 3, 74, 95
4, 69120, Note_on_c, 3, 65, 95
4, 69280, Pitch_bend_c, 3, 8192
4, 69280, Pitch_bend_c, 3, 8192
4, 69440, Pitch_bend_c, 3, 8320
4, 69440, Pitch_bend_c, 3, 8320
4, 69600, Pitch_bend_c, 3, 8192
4, 69600, Pitch_bend_c, 3, 8192
4, 69760, Pitch_bend_c, 3, 8320
4, 69760, Pitch_bend_c, 3, 8320
4, 69920, Pitch_bend_c, 3, 8192
4, 69920, Pitch_bend_c, 3, 8192
4, 70080, Pitch_bend_c, 3, 8320
4, 70080, Pitch_bend_c, 3, 8320
4, 70240, Pitch_bend_c, 3, 8192
4, 70240, Pitch_bend_c, 3, 8192
4, 70400, Pitch_bend_c, 3, 8320
4, 70400, Pitch_bend_c, 3, 8320
4, 70560, Pitch_bend_c, 3, 8192
4, 70560, Pitch_bend_c, 3, 8192
4, 70720, Pitch_bend_c, 3, 8320
4, 70720, Pitch_bend_c, 3, 8320
4, 70880, Pitch_bend_c, 3, 8192
4, 70880, Pitch_bend_c, 3, 8192
4, 71040, Pitch_bend_c, 3, 8320
4, 71040, Pitch_bend_c, 3, 8320
4, 71200, Pitch_bend_c, 3, 8192
4, 71200, Pitch_bend_c, 3, 8192
4, 71360, Pitch_bend_c, 3, 8320
4, 71360, Pitch_bend_c, 3, 8320
4, 71520, Pitch_bend_c, 3, 8192
4, 71520, Pitch_bend_c, 3, 8320
4, 71520, Pitch_bend_c, 3, 8192
4, 71520, Note_off_c, 3, 74, 95
4, 71520, Pitch_bend_c, 3, 8192
4, 71520, Pitch_bend_c, 3, 8320
4, 71520, Pitch_bend_c, 3, 8192
4, 71520, Note_off_c, 3, 65, 95
4, 71520, Note_on_c, 3, 74, 63
4, 71680, Pitch_bend_c, 3, 8192
4, 71840, Pitch_bend_c, 3, 8320
4, 72000, Pitch_bend_c, 3, 8192
4, 72000, Pitch_bend_c, 3, 8320
4, 72000, Pitch_bend_c, 3, 8192
4, 72000, Note_off_c, 3, 74, 63
4, 72000, Note_on_c, 3, 68, 63
4, 72160, Pitch_bend_c, 3, 8192
4, 72320, Pitch_bend_c, 3, 8320
4, 72480, Pitch_bend_c, 3, 8192
4, 72480, Pitch_bend_c, 3, 8320
4, 72480, Pitch_bend_c, 3, 8192
4, 72480, Note_off_c, 3, 68, 63
4, 72480, Note_on_c, 3, 65, 63
4, 72640, Pitch_bend_c, 3, 8192
4, 72800, Pitch_bend_c, 3, 8320
4, 72960, Pitch_bend_c, 3, 8192
4, 72960, Pitch_bend_c, 3, 8320
4, 72960, Pitch_bend_c, 3, 8192
4, 72960, Note_off_c, 3, 65, 63
4, 72960, Note_on_c, 2, 74, 63
4, 73440, Note_off_c, 2, 74, 63
4, 73440, Note_on_c, 2, 58, 95
4, 73482, Note_off_c, 2, 58, 95
4, 73920, Note_on_c, 3, 65, 63
4, 74080, Pitch_bend_c, 3, 8192
4, 74240, Pitch_bend_c, 3, 8320
4, 74400, Pitch_bend_c, 3, 8192
4, 74400, Pitch_bend_c, 3, 8320
4, 74400, Pitch_bend_c, 3, 8192
4, 74400, Note_off_c, 3, 65, 63
4, 74400, Note_on_c, 3, 74, 79
4, 74560, Pitch_bend_c, 3, 8192
4, 74720, Pitch_bend_c, 3, 8320
4, 74760, Note_on_c, 3, 65, 95
4, 74880, Pitch_bend_c, 3, 8192
4, 74880, Pitch_bend_c, 3, 8320
4, 74880, Pitch_bend_c, 3, 8192
4, 74880, Note_off_c, 3, 74, 79
4, 74880, Note_off_c, 3, 65, 95
4, 74880, Note_on_c, 3, 64, 95
4, 75040, Pitch_bend_c, 3, 8192
4, 75200, Pitch_bend_c, 3, 8320
4, 75360, Pitch_bend_c, 3, 8192
4, 75360, Pitch_bend_c, 3, 8320
4, 75360, Pitch_bend_c, 3, 8192
4, 75360, Note_off_c, 3, 64, 95
4, 75360, Note_on_c, 3, 73, 79
4, 75520, Pitch_bend_c, 3, 8192
4, 75680, Pitch_bend_c, 3, 8320
4, 75840, Pitch_bend_c, 3, 8192
4, 75840, Pitch_bend_c, 3, 8320
4, 75840, Pitch_bend_c, 3, 8192
4, 75840, Note_off_c, 3, 73, 79
4, 75840, Note_on_c, 2, 64, 79
4, 76320, Note_off_c, 2, 64, 79
4, 76320, Note_on_c, 3, 64, 95
4, 76480, Pitch_bend_c, 3, 8192
4, 76640, Pitch_bend_c, 3, 8320
4, 76800, Pitch_bend_c, 3, 8192
4, 76800, Pitch_bend_c, 3, 8320
4, 76800, Pitch_bend_c, 3, 8192
4, 76800, Note_off_c, 3, 64, 95
4, 76800, Note_on_c, 3, 73, 79
4, 76960, Pitch_bend_c, 3, 8192
4, 77120, Pitch_bend_c, 3, 8320
4, 77280, Pitch_bend_c, 3, 8192
4, 77280, Pitch_bend_c, 3, 8320
4, 77280, Pitch_bend_c, 3, 8192
4, 77280, Note_off_c, 3, 73, 79
4, 77280, Note_on_c, 2, 64, 79
4, 77640, Note_on_c, 3, 64, 95
4, 77760, Note_off_c, 2, 64, 79
4, 77760, Note_off_c, 3, 64, 95
4, 77760, Note_on_c, 3, 70, 95
4, 77880, Pitch_bend_c, 3, 8448
4, 78000, Pitch_bend_c, 3, 8832
4, 78000, Pitch_bend_c, 3, 8192
4, 78000, Note_off_c, 3, 70, 95
4, 78000, Note_on_c, 2, 71, 79
4, 78240, Note_off_c, 2, 71, 79
4, 78240, Note_on_c, 2, 80, 79
4, 78720, Note_off_c, 2, 80, 79
4, 78720, Note_on_c, 3, 71, 95
4, 78880, Pitch_bend_c, 3, 7552
4, 78880, Pitch_bend_c, 3, 8192
4, 78880, Note_off_c, 3, 71, 95
4, 78880, Note_on_c, 2, 70, 79
4, 79200, Note_off_c, 2, 70, 79
4, 79200, Note_on_c, 2, 79, 79
4, 79680, Note_off_c, 2, 79, 79
4, 79680, Note_on_c, 3, 70, 95
4, 79840, Pitch_bend_c, 3, 7552
4, 79840, Pitch_bend_c, 3, 8192
4, 79840, Note_off_c, 3, 70, 95
4, 79840, Note_on_c, 2, 69, 79
4, 80160, Note_off_c, 2, 69, 79
4, 80160, Note_on_c, 2, 78, 79
4, 80520, Note_on_c, 3, 69, 95
4, 80640, Note_off_c, 2, 78, 79
4, 80640, Note_off_c, 3, 69, 95
4, 80640, Note_on_c, 3, 68, 95
4, 81120, Note_off_c, 3, 68, 95
4, 81120, Note_on_c, 3, 77, 79
4, 81280, Pitch_bend_c, 3, 8192
4, 81360, Pitch_bend_c, 3, 8320
4, 81360, Pitch_bend_c, 3, 8192
4, 81360, Note_off_c, 3, 77, 79
4, 81360, Note_on_c, 3, 68, 79
4, 81520, Pitch_bend_c, 3, 8192
4, 81680, Pitch_bend_c, 3, 8320
4, 81840, Pitch_bend_c, 3, 8192
4, 82000, Pitch_bend_c, 3, 8320
4, 82080, Pitch_bend_c, 3, 8192
4, 82080, Pitch_bend_c, 3, 8320
4, 82080, Pitch_bend_c, 3, 8192
4, 82080, Note_off_c, 3, 68, 79
4, 82080, Note_on_c, 3, 77, 79
4, 82240, Pitch_bend_c, 3, 8192
4, 82400, Pitch_bend_c, 3, 8320
4, 82560, Pitch_bend_c, 3, 8192
4, 82560, Pitch_bend_c, 3, 8320
4, 82560, Pitch_bend_c, 3, 8192
4, 82560, Note_off_c, 3, 77, 79
4, 82560, Note_on_c, 3, 68, 79
4, 82720, Pitch_bend_c, 3, 8192
4, 82880, Pitch_bend_c, 3, 8320
4, 83040, Pitch_bend_c, 3, 8192
4, 83040, Pitch_bend_c, 3, 8320
4, 83040, Pitch_bend_c, 3, 8192
4, 83040, Note_off_c, 3, 68, 79
4, 83040, Note_on_c, 3, 77, 79
4, 83200, Pitch_bend_c, 3, 8192
4, 83360, Pitch_bend_c, 3, 8320
4, 83520, Pitch_bend_c, 3, 8192
4, 83520, Pitch_bend_c, 3, 8320
4, 83520, Pitch_bend_c, 3, 8192
4, 83520, Note_off_c, 3, 77, 79
4, 83520, Note_on_c, 3, 68, 95
4, 83680, Pitch_bend_c, 3, 8192
4, 83840, Pitch_bend_c, 3, 8320
4, 84000, Pitch_bend_c, 3, 8192
4, 84000, Pitch_bend_c, 3, 8320
4, 84000, Pitch_bend_c, 3, 8192
4, 84000, Note_off_c, 3, 68, 95
4, 84000, Note_on_c, 3, 77, 79
4, 84160, Pitch_bend_c, 3, 8192
4, 84320, Pitch_bend_c, 3, 8320
4, 84480, Pitch_bend_c, 3, 8192
4, 84480, Pitch_bend_c, 3, 8320
4, 84480, Pitch_bend_c, 3, 8192
4, 84480, Note_off_c, 3, 77, 79
4, 84480, Note_on_c, 3, 68, 79
4, 84640, Pitch_bend_c, 3, 8192
4, 84800, Pitch_bend_c, 3, 8320
4, 84960, Pitch_bend_c, 3, 8192
4, 84960, Pitch_bend_c, 3, 8320
4, 84960, Pitch_bend_c, 3, 8192
4, 84960, Note_off_c, 3, 68, 79
4, 84960, Note_on_c, 3, 77, 79
4, 85120, Pitch_bend_c, 3, 8192
4, 85280, Pitch_bend_c, 3, 8320
4, 85440, Pitch_bend_c, 3, 8192
4, 85440, Pitch_bend_c, 3, 8320
4, 85440, Pitch_bend_c, 3, 8192
4, 85440, Note_off_c, 3, 77, 79
4, 85440, Note_on_c, 2, 68, 79
4, 85920, Note_off_c, 2, 68, 79
4, 85920, Note_on_c, 3, 77, 79
4, 86080, Pitch_bend_c, 3, 8192
4, 86080, Pitch_bend_c, 3, 8192
4, 86240, Note_off_c, 3, 77, 79
4, 86240, Note_on_c, 2, 79, 79
4, 86400, Note_off_c, 2, 79, 79
4, 86400, Note_on_c, 2, 79, 111
4, 86560, Note_off_c, 2, 79, 111
4, 86560, Note_on_c, 2, 78, 70
4, 86720, Note_off_c, 2, 78, 70
4, 86720, Note_on_c, 2, 77, 70
4, 86880, Note_off_c, 2, 77, 70
4, 86880, Note_on_c, 2, 74, 111
4, 87040, Note_off_c, 2, 74, 111
4, 87040, Note_on_c, 2, 73, 70
4, 87200, Note_off_c, 2, 73, 70
4, 87200, Note_on_c, 2, 72, 70
4, 87360, Note_off_c, 2, 72, 70
4, 87360, Note_on_c, 2, 70, 111
4, 87520, Note_off_c, 2, 70, 111
4, 87520, Note_on_c, 2, 69, 70
4, 87680, Note_off_c, 2, 69, 70
4, 87680, Note_on_c, 2, 68, 70
4, 87840, Note_off_c, 2, 68, 70
4, 87840, Note_on_c, 2, 79, 111
4, 88000, Note_off_c, 2, 79, 111
4, 88000, Note_on_c, 2, 78, 70
4, 88160, Note_off_c, 2, 78, 70
4, 88160, Note_on_c, 2, 77, 70
4, 88320, Note_off_c, 2, 77, 70
4, 88320, Note_on_c, 2, 74, 111
4, 88480, Note_off_c, 2, 74, 111
4, 88480, Note_on_c, 2, 73, 70
4, 88640, Note_off_c, 2, 73, 70
4, 88640, Note_on_c, 2, 72, 70
4, 88800, Note_off_c, 2, 72, 70
4, 88800, Note_on_c, 2, 70, 111
4, 88960, Note_off_c, 2, 70, 111
4, 88960, Note_on_c, 2, 69, 70
4, 89120, Note_off_c, 2, 69, 70
4, 89120, Note_on_c, 2, 68, 70
4, 89280, Note_off_c, 2, 68, 70
4, 89280, Note_on_c, 2, 79, 111
4, 89440, Note_off_c, 2, 79, 111
4, 89440, Note_on_c, 2, 78, 70
4, 89600, Note_off_c, 2, 78, 70
4, 89600, Note_on_c, 2, 77, 70
4, 89760, Note_off_c, 2, 77, 70
4, 89760, Note_on_c, 2, 74, 111
4, 89920, Note_off_c, 2, 74, 111
4, 89920, Note_on_c, 2, 73, 70
4, 90080, Note_off_c, 2, 73, 70
4, 90080, Note_on_c, 2, 72, 70
4, 90240, Note_off_c, 2, 72, 70
4, 90240, Note_on_c, 2, 70, 111
4, 90400, Note_off_c, 2, 70, 111
4, 90400, Note_on_c, 2, 69, 70
4, 90560, Note_off_c, 2, 69, 70
4, 90560, Note_on_c, 2, 68, 70
4, 90720, Note_off_c, 2, 68, 70
4, 90720, Note_on_c, 2, 79, 111
4, 90880, Note_off_c, 2, 79, 111
4, 90880, Note_on_c, 2, 78, 70
4, 91040, Note_off_c, 2, 78, 70
4, 91040, Note_on_c, 2, 77, 70
4, 91200, Note_off_c, 2, 77, 70
4, 91200, Note_on_c, 2, 74, 111
4, 91360, Note_off_c, 2, 74, 111
4, 91360, Note_on_c, 2, 73, 70
4, 91520, Note_off_c, 2, 73, 70
4, 91520, Note_on_c, 2, 72, 70
4, 91680, Note_off_c, 2, 72, 70
4, 91680, Note_on_c, 2, 70, 111
4, 91800, Note_off_c, 2, 70, 111
4, 91800, Note_on_c, 2, 68, 70
4, 91920, Note_off_c, 2, 68, 70
4, 91920, Note_on_c, 2, 54, 54
4, 92160, Note_off_c, 2, 54, 54
4, 92160, Pitch_bend_c, 3, 8192
4, 92160, Note_on_c, 3, 77, 111
4, 92181, Pitch_bend_c, 3, 8320
4, 92202, Pitch_bend_c, 3, 8448
4, 92223, Pitch_bend_c, 3, 8576
4, 92244, Pitch_bend_c, 3, 8704
4, 92265, Pitch_bend_c, 3, 8832
4, 92286, Pitch_bend_c, 3, 8960
4, 92307, Pitch_bend_c, 3, 9088
4, 92328, Pitch_bend_c, 3, 9216
4, 92349, Pitch_bend_c, 3, 9344
4, 92370, Pitch_bend_c, 3, 9472
4, 92391, Pitch_bend_c, 3, 9600
4, 92400, Pitch_bend_c, 3, 9600
4, 93120, Pitch_bend_c, 3, 9600
4, 93120, Pitch_bend_c, 3, 8192
4, 93120, Note_off_c, 3, 77, 111
4, 93120, Pitch_bend_c, 3, 8192
4, 93120, Note_on_c, 3, 77, 95
4, 93130, Pitch_bend_c, 3, 8320
4, 93140, Pitch_bend_c, 3, 8448
4, 93150, Pitch_bend_c, 3, 8576
4, 93160, Pitch_bend_c, 3, 8704
4, 93170, Pitch_bend_c, 3, 8832
4, 93180, Pitch_bend_c, 3, 8960
4, 93190, Pitch_bend_c, 3, 9088
4, 93200, Pitch_bend_c, 3, 9216
4, 93210, Pitch_bend_c, 3, 9344
4, 93220, Pitch_bend_c, 3, 9472
4, 93230, Pitch_bend_c, 3, 9600
4, 93240, Pitch_bend_c, 3, 9600
4, 93360, Pitch_bend_c, 3, 9600
4, 93360, Pitch_bend_c, 3, 8192
4, 93360, Note_off_c, 3, 77, 95
4, 93360, Note_on_c, 2, 77, 95
4, 93600, Note_off_c, 2, 77, 95
4, 93600, Note_on_c, 2, 75, 95
4, 93840, Note_off_c, 2, 75, 95
4, 93840, Note_on_c, 2, 77, 70
4, 93960, Note_off_c, 2, 77, 70
4, 93960, Note_on_c, 2, 75, 70
4, 94080, Note_off_c, 2, 75, 70
4, 94080, Note_on_c, 2, 72, 95
4, 94320, Note_off_c, 2, 72, 95
4, 94320, Note_on_c, 2, 75, 95
4, 94560, Note_off_c, 2, 75, 95
4, 94560, Note_on_c, 2, 77, 95
4, 94800, Note_off_c, 2, 77, 95
4, 94800, Note_on_c, 2, 75, 95
4, 94920, Note_on_c, 3, 70, 79
4, 95040, Note_off_c, 2, 75, 95
4, 95040, Note_on_c, 2, 75, 95
4, 95040, Note_off_c, 3, 70, 79
4, 95040, Note_on_c, 3, 72, 95
4, 95280, Note_on_c, 3, 70, 79
4, 95400, Note_off_c, 2, 75, 95
4, 95400, Note_off_c, 3, 72, 95
4, 95400, Note_on_c, 2, 75, 95
4, 95400, Note_off_c, 3, 70, 79
4, 95400, Note_on_c, 3, 72, 95
4, 95760, Note_off_c, 2, 75, 95
4, 95760, Note_off_c, 3, 72, 95
4, 95760, Note_on_c, 2, 70, 95
4, 95760, Note_on_c, 2, 65, 95
4, 95880, Note_off_c, 2, 70, 95
4, 95880, Note_off_c, 2, 65, 95
4, 95880, Note_on_c, 2, 66, 70
4, 96000, Note_off_c, 2, 66, 70
4, 96000, Note_on_c, 2, 65, 70
4, 96120, Note_off_c, 2, 65, 70
4, 96120, Note_on_c, 2, 63, 79
4, 96480, Note_off_c, 2, 63, 79
4, 96480, Note_on_c, 2, 61, 79
4, 97200, Note_off_c, 2, 61, 79
4, 97800, Note_on_c, 3, 65, 95
4, 97920, Note_off_c, 3, 65, 95
4, 97920, Note_on_c, 3, 67, 86
4, 98160, Note_off_c, 3, 67, 86
4, 98160, Note_on_c, 2, 70, 95
4, 98400, Note_off_c, 2, 70, 95
4, 98400, Note_on_c, 2, 75, 95
4, 98640, Note_off_c, 2, 75, 95
4, 98640, Pitch_bend_c, 3, 8192
4, 98640, Note_on_c, 3, 77, 111
4, 98661, Pitch_bend_c, 3, 8320
4, 98682, Pitch_bend_c, 3, 8448
4, 98703, Pitch_bend_c, 3, 8576
4, 98724, Pitch_bend_c, 3, 8704
4, 98745, Pitch_bend_c, 3, 8832
4, 98766, Pitch_bend_c, 3, 8960
4, 98787, Pitch_bend_c, 3, 9088
4, 98808, Pitch_bend_c, 3, 9216
4, 98829, Pitch_bend_c, 3, 9344
4, 98850, Pitch_bend_c, 3, 9472
4, 98871, Pitch_bend_c, 3, 9600
4, 98873, Pitch_bend_c, 3, 9600
4, 99200, Pitch_bend_c, 3, 9600
4, 99200, Pitch_bend_c, 3, 8192
4, 99200, Note_off_c, 3, 77, 111
4, 99200, Note_on_c, 2, 77, 95
4, 99360, Note_off_c, 2, 77, 95
4, 99360, Note_on_c, 2, 75, 95
4, 99540, Note_off_c, 2, 75, 95
4, 99540, Note_on_c, 2, 77, 70
4, 99720, Note_off_c, 2, 77, 70
4, 99720, Note_on_c, 2, 76, 70
4, 99900, Note_off_c, 2, 76, 70
4, 99900, Note_on_c, 2, 75, 70
4, 100080, Note_off_c, 2, 75, 70
4, 100080, Note_on_c, 2, 73, 95
4, 100260, Note_off_c, 2, 73, 95
4, 100260, Note_on_c, 2, 72, 70
4, 100440, Note_off_c, 2, 72, 70
4, 100440, Note_on_c, 2, 70, 70
4, 100680, Note_off_c, 2, 70, 70
4, 100680, Pitch_bend_c, 3, 8192
4, 100680, Note_on_c, 3, 72, 95
4, 100693, Pitch_bend_c, 3, 8320
4, 100706, Pitch_bend_c, 3, 8448
4, 100719, Pitch_bend_c, 3, 8576
4, 100732, Pitch_bend_c, 3, 8704
4, 100745, Pitch_bend_c, 3, 8832
4, 100758, Pitch_bend_c, 3, 8960
4, 100771, Pitch_bend_c, 3, 9088
4, 100784, Pitch_bend_c, 3, 9216
4, 100797, Pitch_bend_c, 3, 9344
4, 100810, Pitch_bend_c, 3, 9472
4, 100823, Pitch_bend_c, 3, 9600
4, 100830, Pitch_bend_c, 3, 9600
4, 101040, Pitch_bend_c, 3, 9600
4, 101040, Pitch_bend_c, 3, 8192
4, 101040, Note_off_c, 3, 72, 95
4, 101040, Note_on_c, 2, 72, 95
4, 101160, Note_off_c, 2, 72, 95
4, 101160, Note_on_c, 2, 70, 70
4, 101280, Note_off_c, 2, 70, 70
4, 101280, Note_on_c, 2, 72, 70
4, 101400, Note_off_c, 2, 72, 70
4, 101400, Note_on_c, 2, 70, 70
4, 101520, Note_off_c, 2, 70, 70
4, 101520, Note_on_c, 2, 68, 79
4, 101760, Note_off_c, 2, 68, 79
4, 102000, Note_on_c, 2, 68, 95
4, 102240, Note_off_c, 2, 68, 95
4, 102240, Pitch_bend_c, 3, 8192
4, 102240, Note_on_c, 3, 68, 95
4, 102288, Pitch_bend_c, 3, 8320
4, 102336, Pitch_bend_c, 3, 8448
4, 102384, Pitch_bend_c, 3, 8576
4, 102432, Pitch_bend_c, 3, 8704
4, 102480, Pitch_bend_c, 3, 8832
4, 102480, Pitch_bend_c, 3, 8832
4, 102720, Pitch_bend_c, 3, 8832
4, 102720, Pitch_bend_c, 3, 8192
4, 102720, Note_off_c, 3, 68, 95
4, 102960, Pitch_bend_c, 3, 8192
4, 102960, Note_on_c, 3, 68, 95
4, 103008, Pitch_bend_c, 3, 8320
4, 103056, Pitch_bend_c, 3, 8448
4, 103104, Pitch_bend_c, 3, 8576
4, 103152, Pitch_bend_c, 3, 8704
4, 103200, Pitch_bend_c, 3, 8832
4, 103200, Pitch_bend_c, 3, 8832
4, 103440, Pitch_bend_c, 3, 8832
4, 103440, Pitch_bend_c, 3, 8192
4, 103440, Note_off_c, 3, 68, 95
4, 103440, Note_on_c, 2, 70, 95
4, 103440, Pitch_bend_c, 3, 8192
4, 103440, Note_on_c, 3, 68, 95
4, 103461, Pitch_bend_c, 3, 8320
4, 103482, Pitch_bend_c, 3, 8448
4, 103503, Pitch_bend_c, 3, 8576
4, 103524, Pitch_bend_c, 3, 8704
4, 103545, Pitch_bend_c, 3, 8832
4, 103566, Pitch_bend_c, 3, 8960
4, 103587, Pitch_bend_c, 3, 9088
4, 103608, Pitch_bend_c, 3, 9216
4, 103629, Pitch_bend_c, 3, 9344
4, 103650, Pitch_bend_c, 3, 9472
4, 103671, Pitch_bend_c, 3, 9600
4, 103680, Pitch_bend_c, 3, 9600
4, 103920, Note_off_c, 2, 70, 95
4, 103920, Pitch_bend_c, 3, 9600
4, 103920, Pitch_bend_c, 3, 8192
4, 103920, Note_off_c, 3, 68, 95
4, 103920, Note_on_c, 2, 70, 95
4, 103920, Pitch_bend_c, 3, 8192
4, 103920, Note_on_c, 3, 68, 95
4, 103930, Pitch_bend_c, 3, 8320
4, 103940, Pitch_bend_c, 3, 8448
4, 103950, Pitch_bend_c, 3, 8576
4, 103960, Pitch_bend_c, 3, 8704
4, 103970, Pitch_bend_c, 3, 8832
4, 103980, Pitch_bend_c, 3, 8960
4, 103990, Pitch_bend_c, 3, 9088
4, 104000, Pitch_bend_c, 3, 9216
4, 104010, Pitch_bend_c, 3, 9344
4, 104020, Pitch_bend_c, 3, 9472
4, 104030, Pitch_bend_c, 3, 9600
4, 104040, Pitch_bend_c, 3, 9600
4, 104160, Note_off_c, 2, 70, 95
4, 104160, Pitch_bend_c, 3, 9600
4, 104160, Pitch_bend_c, 3, 8192
4, 104160, Note_off_c, 3, 68, 95
4, 104160, Pitch_bend_c, 3, 8192
4, 104160, Note_on_c, 3, 68, 95
4, 104170, Pitch_bend_c, 3, 8320
4, 104180, Pitch_bend_c, 3, 8448
4, 104190, Pitch_bend_c, 3, 8576
4, 104200, Pitch_bend_c, 3, 8704
4, 104210, Pitch_bend_c, 3, 8832
4, 104220, Pitch_bend_c, 3, 8960
4, 104230, Pitch_bend_c, 3, 9088
4, 104240, Pitch_bend_c, 3, 9216
4, 104250, Pitch_bend_c, 3, 9344
4, 104260, Pitch_bend_c, 3, 9472
4, 104270, Pitch_bend_c, 3, 9600
4, 104280, Pitch_bend_c, 3, 9600
4, 104400, Pitch_bend_c, 3, 9600
4, 104400, Pitch_bend_c, 3, 8192
4, 104400, Note_off_c, 3, 68, 95
4, 104400, Note_on_c, 2, 54, 95
4, 104442, Note_off_c, 2, 54, 95
4, 105480, Pitch_bend_c, 3, 8192
4, 105480, Note_on_c, 3, 68, 95
4, 105496, Pitch_bend_c, 3, 8320
4, 105512, Pitch_bend_c, 3, 8448
4, 105528, Pitch_bend_c, 3, 8576
4, 105544, Pitch_bend_c, 3, 8704
4, 105560, Pitch_bend_c, 3, 8832
4, 105576, Pitch_bend_c, 3, 8960
4, 105592, Pitch_bend_c, 3, 9088
4, 105608, Pitch_bend_c, 3, 9216
4, 105624, Pitch_bend_c, 3, 9344
4, 105640, Pitch_bend_c, 3, 9472
4, 105656, Pitch_bend_c, 3, 9600
4, 105660, Pitch_bend_c, 3, 9600
4, 105840, Pitch_bend_c, 3, 9600
4, 105840, Pitch_bend_c, 3, 8192
4, 105840, Note_off_c, 3, 68, 95
4, 105840, Pitch_bend_c, 3, 8192
4, 105840, Note_on_c, 3, 68, 95
4, 105856, Pitch_bend_c, 3, 8320
4, 105872, Pitch_bend_c, 3, 8448
4, 105888, Pitch_bend_c, 3, 8576
4, 105904, Pitch_bend_c, 3, 8704
4, 105920, Pitch_bend_c, 3, 8832
4, 105936, Pitch_bend_c, 3, 8960
4, 105952, Pitch_bend_c, 3, 9088
4, 105968, Pitch_bend_c, 3, 9216
4, 105984, Pitch_bend_c, 3, 9344
4, 106000, Pitch_bend_c, 3, 9472
4, 106016, Pitch_bend_c, 3, 9600
4, 106020, Pitch_bend_c, 3, 9600
4, 106200, Pitch_bend_c, 3, 9600
4, 106200, Pitch_bend_c, 3, 8192
4, 106200, Note_off_c, 3, 68, 95
4, 106200, Note_on_c, 3, 68, 95
4, 106360, Pitch_bend_c, 3, 8192
4, 106520, Pitch_bend_c, 3, 8320
4, 106680, Pitch_bend_c, 3, 8192
4, 106840, Pitch_bend_c, 3, 8320
4, 107000, Pitch_bend_c, 3, 8192
4, 107160, Pitch_bend_c, 3, 8320
4, 107280, Pitch_bend_c, 3, 8192
4, 107280, Pitch_bend_c, 3, 8320
4, 107280, Pitch_bend_c, 3, 8192
4, 107280, Note_off_c, 3, 68, 95
4, 107280, Note_on_c, 2, 54, 95
4, 107322, Note_off_c, 2, 54, 95
4, 109120, Pitch_bend_c, 3, 8192
4, 109120, Note_on_c, 3, 68, 95
4, 109134, Pitch_bend_c, 3, 8320
4, 109148, Pitch_bend_c, 3, 8448
4, 109162, Pitch_bend_c, 3, 8576
4, 109176, Pitch_bend_c, 3, 8704
4, 109190, Pitch_bend_c, 3, 8832
4, 109204, Pitch_bend_c, 3, 8960
4, 109218, Pitch_bend_c, 3, 9088
4, 109232, Pitch_bend_c, 3, 9216
4, 109246, Pitch_bend_c, 3, 9344
4, 109260, Pitch_bend_c, 3, 9472
4, 109274, Pitch_bend_c, 3, 9600
4, 109280, Pitch_bend_c, 3, 9600
4, 109440, Pitch_bend_c, 3, 9600
4, 109440, Pitch_bend_c, 3, 8192
4, 109440, Note_off_c, 3, 68, 95
4, 109440, Pitch_bend_c, 3, 8192
4, 109440, Note_on_c, 3, 68, 111
4, 109450, Pitch_bend_c, 3, 8320
4, 109460, Pitch_bend_c, 3, 8448
4, 109470, Pitch_bend_c, 3, 8576
4, 109480, Pitch_bend_c, 3, 8704
4, 109490, Pitch_bend_c, 3, 8832
4, 109500, Pitch_bend_c, 3, 8960
4, 109510, Pitch_bend_c, 3, 9088
4, 109520, Pitch_bend_c, 3, 9216
4, 109530, Pitch_bend_c, 3, 9344
4, 109540, Pitch_bend_c, 3, 9472
4, 109550, Pitch_bend_c, 3, 9600
4, 109560, Pitch_bend_c, 3, 9600
4, 109680, Pitch_bend_c, 3, 9600
4, 109680, Pitch_bend_c, 3, 8192
4, 109680, Note_off_c, 3, 68, 111
4, 109680, Note_on_c, 3, 68, 111
4, 109840, Pitch_bend_c, 3, 8192
4, 110000, Pitch_bend_c, 3, 8320
4, 110160, Pitch_bend_c, 3, 8192
4, 110320, Pitch_bend_c, 3, 8320
4, 110400, Pitch_bend_c, 3, 8192
4, 110400, Pitch_bend_c, 3, 8320
4, 110400, Pitch_bend_c, 3, 8192
4, 110400, Note_off_c, 3, 68, 111
4, 110400, Pitch_bend_c, 3, 9600
4, 110400, Note_on_c, 3, 63, 95
4, 110520, Pitch_bend_c, 3, 9600
4, 110540, Pitch_bend_c, 3, 9472
4, 110560, Pitch_bend_c, 3, 9344
4, 110580, Pitch_bend_c, 3, 9216
4, 110600, Pitch_bend_c, 3, 9088
4, 110620, Pitch_bend_c, 3, 8960
4, 110640, Pitch_bend_c, 3, 8832
4, 110640, Pitch_bend_c, 3, 8832
4, 110688, Pitch_bend_c, 3, 8704
4, 110736, Pitch_bend_c, 3, 8576
4, 110784, Pitch_bend_c, 3, 8448
4, 110832, Pitch_bend_c, 3, 8320
4, 110880, Pitch_bend_c, 3, 8192
4, 110880, Pitch_bend_c, 3, 8192
4, 111120, Pitch_bend_c, 3, 8192
4, 111120, Pitch_bend_c, 3, 8192
4, 111120, Note_off_c, 3, 63, 95
4, 111120, Note_on_c, 2, 61, 95
4, 111360, Note_off_c, 2, 61, 95
4, 111360, Pitch_bend_c, 3, 8192
4, 111360, Note_on_c, 3, 63, 111
4, 111378, Pitch_bend_c, 3, 8320
4, 111396, Pitch_bend_c, 3, 8448
4, 111414, Pitch_bend_c, 3, 8576
4, 111432, Pitch_bend_c, 3, 8704
4, 111450, Pitch_bend_c, 3, 8832
4, 111468, Pitch_bend_c, 3, 8960
4, 111486, Pitch_bend_c, 3, 9088
4, 111504, Pitch_bend_c, 3, 9216
4, 111522, Pitch_bend_c, 3, 9344
4, 111540, Pitch_bend_c, 3, 9472
4, 111558, Pitch_bend_c, 3, 9600
4, 111576, Pitch_bend_c, 3, 9728
4, 111594, Pitch_bend_c, 3, 9856
4, 111600, Pitch_bend_c, 3, 9856
4, 111840, Pitch_bend_c, 3, 9856
4, 111840, Pitch_bend_c, 3, 8192
4, 111840, Note_off_c, 3, 63, 111
4, 111840, Note_on_c, 3, 61, 111
4, 112000, Pitch_bend_c, 3, 8192
4, 112160, Pitch_bend_c, 3, 8320
4, 112320, Pitch_bend_c, 3, 8192
4, 112480, Pitch_bend_c, 3, 8320
4, 112640, Pitch_bend_c, 3, 8192
4, 112800, Pitch_bend_c, 3, 8320
4, 112800, Pitch_bend_c, 3, 8192
4, 112800, Note_off_c, 3, 61, 111
4, 112800, Note_on_c, 2, 54, 79
4, 112842, Note_off_c, 2, 54, 79
4, 113760, Pitch_bend_c, 3, 8192
4, 113760, Note_on_c, 3, 63, 111
4, 113789, Pitch_bend_c, 3, 8320
4, 113818, Pitch_bend_c, 3, 8448
4, 113847, Pitch_bend_c, 3, 8576
4, 113876, Pitch_bend_c, 3, 8704
4, 113905, Pitch_bend_c, 3, 8832
4, 113934, Pitch_bend_c, 3, 8960
4, 113963, Pitch_bend_c, 3, 9088
4, 113992, Pitch_bend_c, 3, 9216
4, 114021, Pitch_bend_c, 3, 9344
4, 114050, Pitch_bend_c, 3, 9472
4, 114079, Pitch_bend_c, 3, 9600
4, 114080, Pitch_bend_c, 3, 9600
4, 114720, Pitch_bend_c, 3, 9600
4, 114720, Pitch_bend_c, 3, 8192
4, 114720, Note_off_c, 3, 63, 111
4, 114720, Note_on_c, 2, 65, 95
4, 115200, Note_off_c, 2, 65, 95
4, 115200, Note_on_c, 2, 70, 111
4, 115440, Note_off_c, 2, 70, 111
4, 115440, Note_on_c, 2, 68, 95
4, 115560, Note_off_c, 2, 68, 95
4, 115560, Note_on_c, 2, 65, 95
4, 115680, Note_off_c, 2, 65, 95
4, 115680, Note_on_c, 2, 72, 111
4, 115840, Note_off_c, 2, 72, 111
4, 115840, Note_on_c, 2, 70, 95
4, 116000, Note_off_c, 2, 70, 95
4, 116000, Note_on_c, 2, 65, 95
4, 116160, Note_off_c, 2, 65, 95
4, 116160, Note_on_c, 2, 68, 95
4, 116400, Note_off_c, 2, 68, 95
4, 116400, Note_on_c, 2, 65, 95
4, 116520, Note_off_c, 2, 65, 95
4, 116520, Note_on_c, 2, 67, 70
4, 116640, Note_off_c, 2, 67, 70
4, 116640, Note_on_c, 2, 65, 70
4, 116880, Note_off_c, 2, 65, 70
4, 116880, Pitch_bend_c, 3, 8192
4, 116880, Note_on_c, 3, 63, 95
4, 116940, Pitch_bend_c, 3, 8320
4, 117000, Pitch_bend_c, 3, 8448
4, 117000, Pitch_bend_c, 3, 8448
4, 117120, Pitch_bend_c, 3, 8448
4, 117120, Pitch_bend_c, 3, 8192
4, 117120, Note_off_c, 3, 63, 95
4, 117120, Note_on_c, 2, 65, 95
4, 117360, Note_off_c, 2, 65, 95
4, 117360, Note_on_c, 3, 66, 95
4, 117480, Pitch_bend_c, 3, 8832
4, 117480, Pitch_bend_c, 3, 8192
4, 117480, Note_off_c, 3, 66, 95
4, 117480, Note_on_c, 3, 67, 95
4, 117600, Pitch_bend_c, 3, 9600
4, 117600, Pitch_bend_c, 3, 8192
4, 117600, Note_off_c, 3, 67, 95
4, 117600, Note_on_c, 2, 69, 95
4, 117840, Note_off_c, 2, 69, 95
4, 117840, Note_on_c, 2, 72, 95
4, 118080, Note_off_c, 2, 72, 95
4, 118080, Note_on_c, 2, 74, 111
4, 118320, Note_off_c, 2, 74, 111
4, 118560, Pitch_bend_c, 3, 8192
4, 118560, Note_on_c, 3, 74, 95
4, 118592, Pitch_bend_c, 3, 8320
4, 118624, Pitch_bend_c, 3, 8448
4, 118656, Pitch_bend_c, 3, 8576
4, 118688, Pitch_bend_c, 3, 8704
4, 118720, Pitch_bend_c, 3, 8832
4, 118720, Pitch_bend_c, 3, 8832
4, 118880, Pitch_bend_c, 3, 8832
4, 118880, Pitch_bend_c, 3, 8192
4, 118880, Note_off_c, 3, 74, 95
4, 118880, Note_on_c, 2, 74, 95
4, 119040, Note_off_c, 2, 74, 95
4, 119040, Note_on_c, 2, 72, 95
4, 119200, Note_off_c, 2, 72, 95
4, 119200, Note_on_c, 2, 69, 95
4, 119360, Note_off_c, 2, 69, 95
4, 119360, Note_on_c, 2, 67, 95
4, 119520, Note_off_c, 2, 67, 95
4, 119520, Note_on_c, 2, 65, 95
4, 119680, Note_off_c, 2, 65, 95
4, 119680, Note_on_c, 2, 64, 95
4, 119840, Note_off_c, 2, 64, 95
4, 119840, Note_on_c, 3, 63, 111
4, 120000, Pitch_bend_c, 3, 8192
4, 120160, Pitch_bend_c, 3, 8320
4, 120320, Pitch_bend_c, 3, 8192
4, 120480, Pitch_bend_c, 3, 8320
4, 120640, Pitch_bend_c, 3, 8192
4, 120800, Pitch_bend_c, 3, 8320
4, 120960, Pitch_bend_c, 3, 8192
4, 120960, Pitch_bend_c, 3, 8320
4, 120960, Pitch_bend_c, 3, 8192
4, 120960, Note_off_c, 3, 63, 111
4, 121800, Note_on_c, 3, 65, 79
4, 121920, Note_off_c, 3, 65, 79
4, 121920, Note_on_c, 3, 67, 95
4, 121920, Note_on_c, 2, 49, 79
4, 122160, Note_off_c, 3, 67, 95
4, 122160, Note_off_c, 2, 49, 79
4, 122160, Note_on_c, 2, 70, 95
4, 122400, Note_off_c, 2, 70, 95
4, 122400, Pitch_bend_c, 3, 8192
4, 122400, Note_on_c, 3, 73, 95
4, 122410, Pitch_bend_c, 3, 8320
4, 122420, Pitch_bend_c, 3, 8448
4, 122430, Pitch_bend_c, 3, 8576
4, 122440, Pitch_bend_c, 3, 8704
4, 122450, Pitch_bend_c, 3, 8832
4, 122460, Pitch_bend_c, 3, 8960
4, 122470, Pitch_bend_c, 3, 9088
4, 122480, Pitch_bend_c, 3, 9216
4, 122490, Pitch_bend_c, 3, 9344
4, 122500, Pitch_bend_c, 3, 9472
4, 122510, Pitch_bend_c, 3, 9600
4, 122520, Pitch_bend_c, 3, 9728
4, 122530, Pitch_bend_c, 3, 9856
4, 122540, Pitch_bend_c, 3, 9984
4, 122550, Pitch_bend_c, 3, 10112
4, 122560, Pitch_bend_c, 3, 10240
4, 122570, Pitch_bend_c, 3, 10368
4, 122580, Pitch_bend_c, 3, 10496
4, 122590, Pitch_bend_c, 3, 10624
4, 122600, Pitch_bend_c, 3, 10752
4, 122610, Pitch_bend_c, 3, 10880
4, 122620, Pitch_bend_c, 3, 11008
4, 122640, Pitch_bend_c, 3, 11008
4, 122880, Pitch_bend_c, 3, 11008
4, 122880, Pitch_bend_c, 3, 8192
4, 122880, Note_off_c, 3, 73, 95
4, 122880, Pitch_bend_c, 3, 8192
4, 122880, Note_on_c, 3, 73, 95
4, 122901, Pitch_bend_c, 3, 8320
4, 122922, Pitch_bend_c, 3, 8448
4, 122943, Pitch_bend_c, 3, 8576
4, 122964, Pitch_bend_c, 3, 8704
4, 122985, Pitch_bend_c, 3, 8832
4, 123006, Pitch_bend_c, 3, 8960
4, 123027, Pitch_bend_c, 3, 9088
4, 123048, Pitch_bend_c, 3, 9216
4, 123069, Pitch_bend_c, 3, 9344
4, 123090, Pitch_bend_c, 3, 9472
4, 123111, Pitch_bend_c, 3, 9600
4, 123120, Pitch_bend_c, 3, 9600
4, 123840, Pitch_bend_c, 3, 9600
4, 123840, Pitch_bend_c, 3, 8192
4, 123840, Note_off_c, 3, 73, 95
4, 123840, Note_on_c, 2, 73, 95
4, 124080, Note_off_c, 2, 73, 95
4, 124080, Note_on_c, 2, 70, 95
4, 124320, Note_off_c, 2, 70, 95
4, 124320, Note_on_c, 2, 73, 95
4, 124560, Note_off_c, 2, 73, 95
4, 124560, Note_on_c, 3, 70, 95
4, 124720, Pitch_bend_c, 3, 8192
4, 124880, Pitch_bend_c, 3, 8320
4, 125040, Pitch_bend_c, 3, 8192
4, 125200, Pitch_bend_c, 3, 8320
4, 125280, Pitch_bend_c, 3, 8192
4, 125280, Pitch_bend_c, 3, 8320
4, 125280, Pitch_bend_c, 3, 8192
4, 125280, Note_off_c, 3, 70, 95
4, 125280, Note_on_c, 2, 68, 95
4, 125520, Note_off_c, 2, 68, 95
4, 125520, Note_on_c, 2, 70, 95
4, 125760, Note_off_c, 2, 70, 95
4, 125760, Pitch_bend_c, 3, 8192
4, 125760, Note_on_c, 3, 68, 95
4, 125880, Pitch_bend_c, 3, 8320
4, 126000, Pitch_bend_c, 3, 8448
4, 126000, Pitch_bend_c, 3, 8448
4, 126240, Pitch_bend_c, 3, 8448
4, 126240, Pitch_bend_c, 3, 8192
4, 126240, Note_off_c, 3, 68, 95
4, 126240, Note_on_c, 3, 64, 95
4, 126400, Pitch_bend_c, 3, 8192
4, 126400, Pitch_bend_c, 3, 8192
4, 126560, Note_off_c, 3, 64, 95
4, 126560, Note_on_c, 3, 63, 95
4, 126720, Pitch_bend_c, 3, 6784
4, 126720, Pitch_bend_c, 3, 8192
4, 126720, Note_off_c, 3, 63, 95
4, 126720, Note_on_c, 2, 61, 95
4, 126880, Note_off_c, 2, 61, 95
4, 126880, Note_on_c, 2, 58, 95
4, 127040, Note_off_c, 2, 58, 95
4, 127040, Note_on_c, 2, 63, 95
4, 127200, Note_off_c, 2, 63, 95
4, 127200, Note_on_c, 2, 61, 95
4, 127320, Note_on_c, 3, 49, 79
4, 127440, Note_off_c, 2, 61, 95
4, 127440, Note_off_c, 3, 49, 79
4, 127440, Note_on_c, 3, 58, 95
4, 127560, Note_off_c, 3, 58, 95
4, 127560, Note_on_c, 2, 56, 70
4, 127680, Note_off_c, 2, 56, 70
4, 127680, Note_on_c, 2, 46, 79
4, 127920, Note_off_c, 2, 46, 79
4, 127920, Note_on_c, 2, 58, 95
4, 128160, Note_off_c, 2, 58, 95
4, 129120, Note_on_c, 2, 53, 95
4, 129280, Note_off_c, 2, 53, 95
4, 129280, Note_on_c, 2, 56, 95
4, 129440, Note_off_c, 2, 56, 95
4, 129440, Note_on_c, 2, 58, 95
4, 129600, Note_off_c, 2, 58, 95
4, 129600, Note_on_c, 3, 58, 111
4, 129760, Pitch_bend_c, 3, 8192
4, 129920, Pitch_bend_c, 3, 8320
4, 130080, Pitch_bend_c, 3, 8192
4, 130240, Pitch_bend_c, 3, 8320
4, 130320, Pitch_bend_c, 3, 8192
4, 130320, Pitch_bend_c, 3, 8320
4, 130320, Pitch_bend_c, 3, 8192
4, 130320, Note_off_c, 3, 58, 111
4, 130320, Note_on_c, 2, 61, 95
4, 130440, Note_off_c, 2, 61, 95
4, 130440, Note_on_c, 2, 58, 95
4, 130560, Note_off_c, 2, 58, 95
4, 130560, Note_on_c, 2, 56, 70
4, 130680, Note_off_c, 2, 56, 70
4, 130680, Note_on_c, 2, 53, 95
4, 130800, Note_off_c, 2, 53, 95
4, 130800, Note_on_c, 2, 51, 54
4, 131040, Note_off_c, 2, 51, 54
4, 131640, Note_on_c, 3, 64, 79
4, 131760, Note_off_c, 3, 64, 79
4, 131760, Note_on_c, 3, 65, 95
4, 132000, Note_off_c, 3, 65, 95
4, 132000, Note_on_c, 2, 70, 95
4, 132240, Note_off_c, 2, 70, 95
4, 132240, Note_on_c, 2, 73, 95
4, 132480, Note_off_c, 2, 73, 95
4, 132480, Note_on_c, 2, 70, 111
4, 132960, Note_off_c, 2, 70, 111
4, 132960, Note_on_c, 2, 63, 95
4, 133200, Note_off_c, 2, 63, 95
4, 133200, Note_on_c, 2, 72, 95
4, 133440, Note_off_c, 2, 72, 95
4, 133440, Note_on_c, 2, 61, 95
4, 133680, Note_off_c, 2, 61, 95
4, 133680, Note_on_c, 3, 70, 111
4, 133840, Pitch_bend_c, 3, 8192
4, 134000, Pitch_bend_c, 3, 8320
4, 134160, Pitch_bend_c, 3, 8192
4, 134320, Pitch_bend_c, 3, 8320
4, 134400, Pitch_bend_c, 3, 8192
4, 134400, Pitch_bend_c, 3, 8320
4, 134400, Pitch_bend_c, 3, 8192
4, 134400, Note_off_c, 3, 70, 111
4, 134520, Note_on_c, 3, 64, 79
4, 134640, Note_off_c, 3, 64, 79
4, 134640, Note_on_c, 3, 65, 95
4, 134880, Note_off_c, 3, 65, 95
4, 134880, Note_on_c, 2, 70, 95
4, 135040, Note_off_c, 2, 70, 95
4, 135040, Note_on_c, 2, 68, 95
4, 135120, Note_off_c, 2, 68, 95
4, 135120, Note_on_c, 2, 67, 70
4, 135200, Note_off_c, 2, 67, 70
4, 135200, Note_on_c, 2, 65, 70
4, 135280, Note_off_c, 2, 65, 70
4, 135280, Note_on_c, 2, 63, 95
4, 135360, Note_off_c, 2, 63, 95
4, 135360, Pitch_bend_c, 3, 8192
4, 135360, Note_on_c, 3, 61, 111
4, 135440, Pitch_bend_c, 3, 8320
4, 135520, Pitch_bend_c, 3, 8448
4, 135520, Pitch_bend_c, 3, 8448
4, 135680, Pitch_bend_c, 3, 8448
4, 135680, Pitch_bend_c, 3, 8192
4, 135680, Note_off_c, 3, 61, 111
4, 135680, Note_on_c, 2, 58, 95
4, 136000, Note_off_c, 2, 58, 95
4, 136000, Note_on_c, 3, 53, 111
4, 136160, Pitch_bend_c, 3, 8192
4, 136320, Pitch_bend_c, 3, 8320
4, 136320, Pitch_bend_c, 3, 8192
4, 136320, Note_off_c, 3, 53, 111
4, 136320, Note_on_c, 2, 51, 54
4, 136560, Note_off_c, 2, 51, 54
4, 137280, Pitch_bend_c, 3, 8192
4, 137280, Note_on_c, 3, 63, 111
4, 137323, Pitch_bend_c, 3, 8320
4, 137366, Pitch_bend_c, 3, 8448
4, 137409, Pitch_bend_c, 3, 8576
4, 137452, Pitch_bend_c, 3, 8704
4, 137495, Pitch_bend_c, 3, 8832
4, 137538, Pitch_bend_c, 3, 8960
4, 137581, Pitch_bend_c, 3, 9088
4, 137624, Pitch_bend_c, 3, 9216
4, 137667, Pitch_bend_c, 3, 9344
4, 137710, Pitch_bend_c, 3, 9472
4, 137753, Pitch_bend_c, 3, 9600
4, 137760, Pitch_bend_c, 3, 9600
4, 138240, Pitch_bend_c, 3, 9600
4, 138240, Pitch_bend_c, 3, 8192
4, 138240, Note_off_c, 3, 63, 111
4, 138240, Pitch_bend_c, 3, 8192
4, 138240, Note_on_c, 3, 63, 111
4, 138242, Pitch_bend_c, 3, 8320
4, 138244, Pitch_bend_c, 3, 8448
4, 138246, Pitch_bend_c, 3, 8576
4, 138248, Pitch_bend_c, 3, 8704
4, 138250, Pitch_bend_c, 3, 8832
4, 138252, Pitch_bend_c, 3, 8960
4, 138254, Pitch_bend_c, 3, 9088
4, 138256, Pitch_bend_c, 3, 9216
4, 138258, Pitch_bend_c, 3, 9344
4, 138260, Pitch_bend_c, 3, 9472
4, 138262, Pitch_bend_c, 3, 9600
4, 138270, Pitch_bend_c, 3, 9600
4, 138300, Pitch_bend_c, 3, 9600
4, 138305, Pitch_bend_c, 3, 9472
4, 138310, Pitch_bend_c, 3, 9344
4, 138315, Pitch_bend_c, 3, 9216
4, 138320, Pitch_bend_c, 3, 9088
4, 138325, Pitch_bend_c, 3, 8960
4, 138330, Pitch_bend_c, 3, 8832
4, 138335, Pitch_bend_c, 3, 8704
4, 138340, Pitch_bend_c, 3, 8576
4, 138345, Pitch_bend_c, 3, 8448
4, 138350, Pitch_bend_c, 3, 8320
4, 138355, Pitch_bend_c, 3, 8192
4, 138360, Pitch_bend_c, 3, 8192
4, 138360, Pitch_bend_c, 3, 8192
4, 138360, Note_off_c, 3, 63, 111
4, 138360, Note_on_c, 2, 63, 63
4, 138480, Note_off_c, 2, 63, 63
4, 138480, Note_on_c, 2, 61, 70
4, 138600, Note_off_c, 2, 61, 70
4, 138600, Note_on_c, 2, 58, 95
4, 138720, Note_off_c, 2, 58, 95
4, 138720, Note_on_c, 2, 61, 111
4, 139040, Note_off_c, 2, 61, 111
4, 139040, Note_on_c, 2, 58, 95
4, 139200, Note_off_c, 2, 58, 95
4, 139200, Note_on_c, 3, 56, 54
4, 139360, Pitch_bend_c, 3, 8192
4, 139520, Pitch_bend_c, 3, 8320
4, 139680, Pitch_bend_c, 3, 8192
4, 139840, Pitch_bend_c, 3, 8320
4, 140000, Pitch_bend_c, 3, 8192
4, 140160, Pitch_bend_c, 3, 8320
4, 140320, Pitch_bend_c, 3, 8192
4, 140480, Pitch_bend_c, 3, 8320
4, 140640, Pitch_bend_c, 3, 8192
4, 140800, Pitch_bend_c, 3, 8320
4, 140960, Pitch_bend_c, 3, 8192
4, 141120, Pitch_bend_c, 3, 8320
4, 141280, Pitch_bend_c, 3, 8192
4, 141440, Pitch_bend_c, 3, 8320
4, 141600, Pitch_bend_c, 3, 8192
4, 141600, Pitch_bend_c, 3, 8320
4, 141600, Pitch_bend_c, 3, 8192
4, 141600, Note_off_c, 3, 56, 54
4, 143280, Pitch_bend_c, 3, 8192
4, 143280, Note_on_c, 3, 63, 111
4, 143301, Pitch_bend_c, 3, 8320
4, 143322, Pitch_bend_c, 3, 8448
4, 143343, Pitch_bend_c, 3, 8576
4, 143364, Pitch_bend_c, 3, 8704
4, 143385, Pitch_bend_c, 3, 8832
4, 143406, Pitch_bend_c, 3, 8960
4, 143427, Pitch_bend_c, 3, 9088
4, 143448, Pitch_bend_c, 3, 9216
4, 143469, Pitch_bend_c, 3, 9344
4, 143490, Pitch_bend_c, 3, 9472
4, 143511, Pitch_bend_c, 3, 9600
4, 143520, Pitch_bend_c, 3, 9600
4, 144000, Pitch_bend_c, 3, 9600
4, 144000, Pitch_bend_c, 3, 8192
4, 144000, Note_off_c, 3, 63, 111
4, 144000, Pitch_bend_c, 3, 8192
4, 144000, Note_on_c, 3, 61, 95
4, 144054, Pitch_bend_c, 3, 8320
4, 144108, Pitch_bend_c, 3, 8448
4, 144162, Pitch_bend_c, 3, 8576
4, 144216, Pitch_bend_c, 3, 8704
4, 144270, Pitch_bend_c, 3, 8832
4, 144324, Pitch_bend_c, 3, 8960
4, 144378, Pitch_bend_c, 3, 9088
4, 144432, Pitch_bend_c, 3, 9216
4, 144486, Pitch_bend_c, 3, 9344
4, 144540, Pitch_bend_c, 3, 9472
4, 144594, Pitch_bend_c, 3, 9600
4, 144600, Pitch_bend_c, 3, 9600
4, 144900, Pitch_bend_c, 3, 9600
4, 144954, Pitch_bend_c, 3, 9472
4, 145008, Pitch_bend_c, 3, 9344
4, 145062, Pitch_bend_c, 3, 9216
4, 145116, Pitch_bend_c, 3, 9088
4, 145170, Pitch_bend_c, 3, 8960
4, 145224, Pitch_bend_c, 3, 8832
4, 145278, Pitch_bend_c, 3, 8704
4, 145332, Pitch_bend_c, 3, 8576
4, 145386, Pitch_bend_c, 3, 8448
4, 145440, Pitch_bend_c, 3, 8320
4, 145494, Pitch_bend_c, 3, 8192
4, 145500, Pitch_bend_c, 3, 8192
4, 145554, Pitch_bend_c, 3, 8320
4, 145608, Pitch_bend_c, 3, 8448
4, 145662, Pitch_bend_c, 3, 8576
4, 145716, Pitch_bend_c, 3, 8704
4, 145770, Pitch_bend_c, 3, 8832
4, 145824, Pitch_bend_c, 3, 8960
4, 145878, Pitch_bend_c, 3, 9088
4, 145932, Pitch_bend_c, 3, 9216
4, 145986, Pitch_bend_c, 3, 9344
4, 146040, Pitch_bend_c, 3, 9472
4, 146094, Pitch_bend_c, 3, 9600
4, 146100, Pitch_bend_c, 3, 9600
4, 146400, Pitch_bend_c, 3, 9600
4, 146454, Pitch_bend_c, 3, 9472
4, 146508, Pitch_bend_c, 3, 9344
4, 146562, Pitch_bend_c, 3, 9216
4, 146616, Pitch_bend_c, 3, 9088
4, 146670, Pitch_bend_c, 3, 8960
4, 146724, Pitch_bend_c, 3, 8832
4, 146778, Pitch_bend_c, 3, 8704
4, 146832, Pitch_bend_c, 3, 8576
4, 146886, Pitch_bend_c, 3, 8448
4, 146940, Pitch_bend_c, 3, 8320
4, 146994, Pitch_bend_c, 3, 8192
4, 147000, Pitch_bend_c, 3, 8192
4, 147027, Pitch_bend_c, 3, 8320
4, 147054, Pitch_bend_c, 3, 8448
4, 147081, Pitch_bend_c, 3, 8576
4, 147108, Pitch_bend_c, 3, 8704
4, 147135, Pitch_bend_c, 3, 8832
4, 147162, Pitch_bend_c, 3, 8960
4, 147189, Pitch_bend_c, 3, 9088
4, 147216, Pitch_bend_c, 3, 9216
4, 147243, Pitch_bend_c, 3, 9344
4, 147270, Pitch_bend_c, 3, 9472
4, 147297, Pitch_bend_c, 3, 9600
4, 147300, Pitch_bend_c, 3, 9600
4, 147600, Pitch_bend_c, 3, 9600
4, 147600, Pitch_bend_c, 3, 8192
4, 147600, Note_off_c, 3, 61, 95
4, 151200, Note_on_c, 2, 68, 111
4, 151200, Note_on_c, 2, 63, 111
4, 151440, Note_off_c, 2, 68, 111
4, 151440, Note_off_c, 2, 63, 111
4, 151440, Pitch_bend_c, 3, 9600
4, 151440, Note_on_c, 3, 63, 111
4, 151461, Pitch_bend_c, 3, 9472
4, 151482, Pitch_bend_c, 3, 9344
4, 151503, Pitch_bend_c, 3, 9216
4, 151524, Pitch_bend_c, 3, 9088
4, 151545, Pitch_bend_c, 3, 8960
4, 151566, Pitch_bend_c, 3, 8832
4, 151587, Pitch_bend_c, 3, 8704
4, 151608, Pitch_bend_c, 3, 8576
4, 151629, Pitch_bend_c, 3, 8448
4, 151650, Pitch_bend_c, 3, 8320
4, 151671, Pitch_bend_c, 3, 8192
4, 151680, Pitch_bend_c, 3, 8192
4, 151690, Pitch_bend_c, 3, 8320
4, 151700, Pitch_bend_c, 3, 8448
4, 151710, Pitch_bend_c, 3, 8576
4, 151720, Pitch_bend_c, 3, 8704
4, 151730, Pitch_bend_c, 3, 8832
4, 151740, Pitch_bend_c, 3, 8960
4, 151750, Pitch_bend_c, 3, 9088
4, 151760, Pitch_bend_c, 3, 9216
4, 151770, Pitch_bend_c, 3, 9344
4, 151780, Pitch_bend_c, 3, 9472
4, 151790, Pitch_bend_c, 3, 9600
4, 151800, Pitch_bend_c, 3, 9600
4, 152640, Note_on_c, 2, 68, 111
4, 152880, Pitch_bend_c, 3, 9600
4, 152880, Pitch_bend_c, 3, 8192
4, 152880, Note_off_c, 3, 63, 111
4, 152880, Note_off_c, 2, 68, 111
4, 152880, Pitch_bend_c, 3, 9600
4, 152880, Note_on_c, 3, 63, 95
4, 152940, Pitch_bend_c, 3, 9600
4, 152945, Pitch_bend_c, 3, 9472
4, 152950, Pitch_bend_c, 3, 9344
4, 152955, Pitch_bend_c, 3, 9216
4, 152960, Pitch_bend_c, 3, 9088
4, 152965, Pitch_bend_c, 3, 8960
4, 152970, Pitch_bend_c, 3, 8832
4, 152975, Pitch_bend_c, 3, 8704
4, 152980, Pitch_bend_c, 3, 8576
4, 152985, Pitch_bend_c, 3, 8448
4, 152990, Pitch_bend_c, 3, 8320
4, 152995, Pitch_bend_c, 3, 8192
4, 153000, Pitch_bend_c, 3, 8192
4, 153000, Pitch_bend_c, 3, 8192
4, 153000, Note_off_c, 3, 63, 95
4, 153000, Note_on_c, 2, 63, 63
4, 153120, Note_off_c, 2, 63, 63
4, 153120, Note_on_c, 2, 61, 70
4, 153280, Note_off_c, 2, 61, 70
4, 153280, Note_on_c, 2, 58, 95
4, 153440, Note_off_c, 2, 58, 95
4, 153440, Note_on_c, 2, 61, 95
4, 153600, Note_off_c, 2, 61, 95
4, 153600, Pitch_bend_c, 3, 8192
4, 153600, Note_on_c, 3, 63, 70
4, 153607, Pitch_bend_c, 3, 8320
4, 153614, Pitch_bend_c, 3, 8448
4, 153621, Pitch_bend_c, 3, 8576
4, 153628, Pitch_bend_c, 3, 8704
4, 153635, Pitch_bend_c, 3, 8832
4, 153642, Pitch_bend_c, 3, 8960
4, 153649, Pitch_bend_c, 3, 9088
4, 153656, Pitch_bend_c, 3, 9216
4, 153663, Pitch_bend_c, 3, 9344
4, 153670, Pitch_bend_c, 3, 9472
4, 153677, Pitch_bend_c, 3, 9600
4, 153680, Pitch_bend_c, 3, 9600
4, 153760, Pitch_bend_c, 3, 9600
4, 153760, Pitch_bend_c, 3, 8192
4, 153760, Note_off_c, 3, 63, 70
4, 153760, Note_on_c, 2, 65, 95
4, 153920, Note_off_c, 2, 65, 95
4, 153920, Note_on_c, 2, 70, 111
4, 154080, Note_off_c, 2, 70, 111
4, 156960, Pitch_bend_c, 3, 8192
4, 156960, Note_on_c, 3, 63, 111
4, 156974, Pitch_bend_c, 3, 8320
4, 156988, Pitch_bend_c, 3, 8448
4, 157002, Pitch_bend_c, 3, 8576
4, 157016, Pitch_bend_c, 3, 8704
4, 157030, Pitch_bend_c, 3, 8832
4, 157044, Pitch_bend_c, 3, 8960
4, 157058, Pitch_bend_c, 3, 9088
4, 157072, Pitch_bend_c, 3, 9216
4, 157086, Pitch_bend_c, 3, 9344
4, 157100, Pitch_bend_c, 3, 9472
4, 157114, Pitch_bend_c, 3, 9600
4, 157120, Pitch_bend_c, 3, 9600
4, 157280, Pitch_bend_c, 3, 9600
4, 157280, Pitch_bend_c, 3, 8192
4, 157280, Note_off_c, 3, 63, 111
4, 157280, Note_on_c, 2, 65, 95
4, 157440, Note_off_c, 2, 65, 95
4, 157440, Note_on_c, 2, 70, 111
4, 157600, Note_off_c, 2, 70, 111
4, 157600, Note_on_c, 2, 70, 95
4, 157600, Note_on_c, 2, 68, 95
4, 157760, Note_off_c, 2, 70, 95
4, 157760, Note_off_c, 2, 68, 95
4, 157760, Note_on_c, 2, 65, 95
4, 157920, Note_off_c, 2, 65, 95
4, 157920, Note_on_c, 2, 73, 111
4, 158080, Note_off_c, 2, 73, 111
4, 158080, Note_on_c, 2, 70, 95
4, 158240, Note_off_c, 2, 70, 95
4, 158240, Note_on_c, 2, 65, 95
4, 158400, Note_off_c, 2, 65, 95
4, 158400, Note_on_c, 2, 72, 111
4, 158560, Note_off_c, 2, 72, 111
4, 158560, Note_on_c, 2, 70, 95
4, 158720, Note_off_c, 2, 70, 95
4, 158720, Note_on_c, 2, 65, 95
4, 158880, Note_off_c, 2, 65, 95
4, 158880, Note_on_c, 3, 68, 111
4, 159040, Pitch_bend_c, 3, 8192
4, 159200, Pitch_bend_c, 3, 8320
4, 159360, Pitch_bend_c, 3, 8192
4, 159520, Pitch_bend_c, 3, 8320
4, 159520, Pitch_bend_c, 3, 8192
4, 159520, Note_off_c, 3, 68, 111
4, 159520, Note_on_c, 2, 70, 95
4, 159680, Note_off_c, 2, 70, 95
4, 159680, Note_on_c, 2, 68, 95
4, 159840, Note_off_c, 2, 68, 95
4, 159840, Note_on_c, 2, 65, 95
4, 160080, Note_off_c, 2, 65, 95
4, 160080, Pitch_bend_c, 3, 8192
4, 160080, Note_on_c, 3, 63, 95
4, 160090, Pitch_bend_c, 3, 8320
4, 160100, Pitch_bend_c, 3, 8448
4, 160110, Pitch_bend_c, 3, 8576
4, 160120, Pitch_bend_c, 3, 8704
4, 160130, Pitch_bend_c, 3, 8832
4, 160140, Pitch_bend_c, 3, 8960
4, 160150, Pitch_bend_c, 3, 9088
4, 160160, Pitch_bend_c, 3, 9216
4, 160170, Pitch_bend_c, 3, 9344
4, 160180, Pitch_bend_c, 3, 9472
4, 160190, Pitch_bend_c, 3, 9600
4, 160200, Pitch_bend_c, 3, 9600
4, 160320, Pitch_bend_c, 3, 9600
4, 160320, Pitch_bend_c, 3, 8192
4, 160320, Note_off_c, 3, 63, 95
4, 160320, Note_on_c, 2, 63, 95
4, 160440, Note_off_c, 2, 63, 95
4, 160440, Note_on_c, 2, 61, 70
4, 160560, Note_off_c, 2, 61, 70
4, 160560, Note_on_c, 2, 58, 95
4, 160800, Note_off_c, 2, 58, 95
4, 160800, Note_on_c, 2, 61, 95
4, 161040, Note_off_c, 2, 61, 95
4, 161040, Pitch_bend_c, 3, 8192
4, 161040, Note_on_c, 3, 63, 70
4, 161050, Pitch_bend_c, 3, 8320
4, 161060, Pitch_bend_c, 3, 8448
4, 161070, Pitch_bend_c, 3, 8576
4, 161080, Pitch_bend_c, 3, 8704
4, 161090, Pitch_bend_c, 3, 8832
4, 161100, Pitch_bend_c, 3, 8960
4, 161110, Pitch_bend_c, 3, 9088
4, 161120, Pitch_bend_c, 3, 9216
4, 161130, Pitch_bend_c, 3, 9344
4, 161140, Pitch_bend_c, 3, 9472
4, 161150, Pitch_bend_c, 3, 9600
4, 161160, Pitch_bend_c, 3, 9600
4, 161220, Note_on_c, 3, 61, 79
4, 161280, Pitch_bend_c, 3, 9600
4, 161280, Pitch_bend_c, 3, 8192
4, 161280, Note_off_c, 3, 63, 70
4, 161280, Note_off_c, 3, 61, 79
4, 161280, Note_on_c, 3, 63, 95
4, 161360, Note_off_c, 3, 63, 95
4, 161360, Note_on_c, 2, 61, 70
4, 161440, Note_off_c, 2, 61, 70
4, 161440, Note_on_c, 2, 63, 70
4, 161520, Note_off_c, 2, 63, 70
4, 161520, Note_on_c, 2, 61, 70
4, 161600, Note_off_c, 2, 61, 70
4, 161600, Note_on_c, 2, 63, 70
4, 161680, Note_off_c, 2, 63, 70
4, 161680, Note_on_c, 2, 61, 54
4, 161760, Note_off_c, 2, 61, 54
4, 161760, Note_on_c, 2, 63, 54
4, 161840, Note_off_c, 2, 63, 54
4, 161840, Note_on_c, 2, 61, 54
4, 161920, Note_off_c, 2, 61, 54
4, 161920, Note_on_c, 2, 63, 54
4, 162000, Note_off_c, 2, 63, 54
4, 162000, Note_on_c, 2, 61, 54
4, 162080, Note_off_c, 2, 61, 54
4, 162080, Note_on_c, 2, 63, 54
4, 162160, Note_off_c, 2, 63, 54
4, 162160, Note_on_c, 2, 61, 70
4, 162240, Note_off_c, 2, 61, 70
4, 162240, Note_on_c, 2, 63, 54
4, 162320, Note_off_c, 2, 63, 54
4, 162320, Note_on_c, 2, 61, 54
4, 162400, Note_off_c, 2, 61, 54
4, 162400, Note_on_c, 2, 63, 54
4, 162480, Note_off_c, 2, 63, 54
4, 162480, Note_on_c, 2, 61, 38
4, 162560, Note_off_c, 2, 61, 38
4, 162560, Note_on_c, 2, 63, 38
4, 162640, Note_off_c, 2, 63, 38
4, 162640, Note_on_c, 2, 61, 38
4, 162720, Note_off_c, 2, 61, 38
4, 162720, Note_on_c, 2, 63, 22
4, 162960, Note_off_c, 2, 63, 22
4, 162960, Note_on_c, 2, 61, 22
4, 163200, Note_off_c, 2, 61, 22
4, 167460, Note_on_c, 3, 61, 95
4, 167520, Pitch_bend_c, 3, 8192
4, 167520, Note_on_c, 3, 67, 95
4, 167520, Note_off_c, 3, 61, 95
4, 167520, Note_on_c, 3, 54, 95
4, 167541, Pitch_bend_c, 3, 8320
4, 167562, Pitch_bend_c, 3, 8448
4, 167583, Pitch_bend_c, 3, 8576
4, 167604, Pitch_bend_c, 3, 8704
4, 167625, Pitch_bend_c, 3, 8832
4, 167646, Pitch_bend_c, 3, 8960
4, 167667, Pitch_bend_c, 3, 9088
4, 167688, Pitch_bend_c, 3, 9216
4, 167709, Pitch_bend_c, 3, 9344
4, 167730, Pitch_bend_c, 3, 9472
4, 167751, Pitch_bend_c, 3, 9600
4, 167760, Pitch_bend_c, 3, 9600
4, 168000, Pitch_bend_c, 3, 9600
4, 168000, Pitch_bend_c, 3, 8192
4, 168000, Note_off_c, 3, 67, 95
4, 168000, Note_off_c, 3, 54, 95
4, 168000, Note_on_c, 2, 67, 95
4, 168240, Note_off_c, 2, 67, 95
4, 168240, Note_on_c, 2, 65, 95
4, 168360, Note_off_c, 2, 65, 95
4, 168360, Note_on_c, 2, 67, 70
4, 168480, Note_off_c, 2, 67, 70
4, 168480, Note_on_c, 2, 65, 70
4, 168640, Note_off_c, 2, 65, 70
4, 168640, Note_on_c, 2, 63, 95
4, 168800, Note_off_c, 2, 63, 95
4, 168800, Note_on_c, 2, 65, 95
4, 168960, Note_off_c, 2, 65, 95
4, 168960, Note_on_c, 2, 63, 95
4, 169200, Note_off_c, 2, 63, 95
4, 169200, Note_on_c, 2, 61, 95
4, 169440, Note_off_c, 2, 61, 95
4, 169440, Note_on_c, 2, 63, 95
4, 169680, Note_off_c, 2, 63, 95
4, 169680, Pitch_bend_c, 3, 9600
4, 169680, Note_on_c, 3, 63, 95
4, 169920, Pitch_bend_c, 3, 9600
4, 169920, Pitch_bend_c, 3, 8192
4, 169920, Note_off_c, 3, 63, 95
4, 169920, Pitch_bend_c, 3, 8192
4, 169920, Note_on_c, 3, 61, 95
4, 169941, Pitch_bend_c, 3, 8320
4, 169962, Pitch_bend_c, 3, 8448
4, 169983, Pitch_bend_c, 3, 8576
4, 170004, Pitch_bend_c, 3, 8704
4, 170025, Pitch_bend_c, 3, 8832
4, 170046, Pitch_bend_c, 3, 8960
4, 170067, Pitch_bend_c, 3, 9088
4, 170088, Pitch_bend_c, 3, 9216
4, 170109, Pitch_bend_c, 3, 9344
4, 170130, Pitch_bend_c, 3, 9472
4, 170151, Pitch_bend_c, 3, 9600
4, 170160, Pitch_bend_c, 3, 9600
4, 170400, Pitch_bend_c, 3, 9600
4, 171360, Pitch_bend_c, 3, 9600
4, 171360, Pitch_bend_c, 3, 8192
4, 171360, Note_off_c, 3, 61, 95
4, 175680, Pitch_bend_c, 3, 8192
4, 175680, Note_on_c, 3, 63, 111
4, 175690, Pitch_bend_c, 3, 8320
4, 175700, Pitch_bend_c, 3, 8448
4, 175710, Pitch_bend_c, 3, 8576
4, 175720, Pitch_bend_c, 3, 8704
4, 175730, Pitch_bend_c, 3, 8832
4, 175740, Pitch_bend_c, 3, 8960
4, 175750, Pitch_bend_c, 3, 9088
4, 175760, Pitch_bend_c, 3, 9216
4, 175770, Pitch_bend_c, 3, 9344
4, 175780, Pitch_bend_c, 3, 9472
4, 175790, Pitch_bend_c, 3, 9600
4, 175800, Pitch_bend_c, 3, 9600
4, 175920, Pitch_bend_c, 3, 9600
4, 175920, Pitch_bend_c, 3, 8192
4, 175920, Note_off_c, 3, 63, 111
4, 175920, Note_on_c, 2, 65, 95
4, 176040, Note_off_c, 2, 65, 95
4, 176040, Note_on_c, 2, 70, 95
4, 176160, Note_off_c, 2, 70, 95
4, 176160, Pitch_bend_c, 3, 8192
4, 176160, Note_on_c, 3, 68, 111
4, 176203, Pitch_bend_c, 3, 8320
4, 176246, Pitch_bend_c, 3, 8448
4, 176289, Pitch_bend_c, 3, 8576
4, 176332, Pitch_bend_c, 3, 8704
4, 176375, Pitch_bend_c, 3, 8832
4, 176418, Pitch_bend_c, 3, 8960
4, 176461, Pitch_bend_c, 3, 9088
4, 176504, Pitch_bend_c, 3, 9216
4, 176547, Pitch_bend_c, 3, 9344
4, 176590, Pitch_bend_c, 3, 9472
4, 176633, Pitch_bend_c, 3, 9600
4, 176640, Pitch_bend_c, 3, 9600
4, 177120, Pitch_bend_c, 3, 9600
4, 177120, Pitch_bend_c, 3, 8192
4, 177120, Note_off_c, 3, 68, 111
4, 177120, Note_on_c, 2, 70, 95
4, 177360, Note_off_c, 2, 70, 95
4, 177360, Note_on_c, 2, 70, 95
4, 177600, Note_off_c, 2, 70, 95
4, 177600, Note_on_c, 2, 70, 95
4, 177840, Note_off_c, 2, 70, 95
4, 177840, Pitch_bend_c, 3, 8192
4, 177840, Note_on_c, 3, 63, 95
4, 177850, Pitch_bend_c, 3, 8320
4, 177860, Pitch_bend_c, 3, 8448
4, 177870, Pitch_bend_c, 3, 8576
4, 177880, Pitch_bend_c, 3, 8704
4, 177890, Pitch_bend_c, 3, 8832
4, 177900, Pitch_bend_c, 3, 8960
4, 177910, Pitch_bend_c, 3, 9088
4, 177920, Pitch_bend_c, 3, 9216
4, 177930, Pitch_bend_c, 3, 9344
4, 177940, Pitch_bend_c, 3, 9472
4, 177950, Pitch_bend_c, 3, 9600
4, 177960, Pitch_bend_c, 3, 9600
4, 178080, Pitch_bend_c, 3, 9600
4, 178080, Pitch_bend_c, 3, 8192
4, 178080, Note_off_c, 3, 63, 95
4, 178080, Note_on_c, 2, 65, 95
4, 178200, Note_off_c, 2, 65, 95
4, 178200, Note_on_c, 2, 70, 95
4, 178440, Note_off_c, 2, 70, 95
4, 178440, Note_on_c, 2, 68, 95
4, 178500, Note_off_c, 2, 68, 95
4, 178500, Note_on_c, 2, 70, 95
4, 178560, Note_off_c, 2, 70, 95
4, 178560, Pitch_bend_c, 3, 8192
4, 178560, Note_on_c, 3, 63, 95
4, 178570, Pitch_bend_c, 3, 8320
4, 178580, Pitch_bend_c, 3, 8448
4, 178590, Pitch_bend_c, 3, 8576
4, 178600, Pitch_bend_c, 3, 8704
4, 178610, Pitch_bend_c, 3, 8832
4, 178620, Pitch_bend_c, 3, 8960
4, 178630, Pitch_bend_c, 3, 9088
4, 178640, Pitch_bend_c, 3, 9216
4, 178650, Pitch_bend_c, 3, 9344
4, 178660, Pitch_bend_c, 3, 9472
4, 178670, Pitch_bend_c, 3, 9600
4, 178680, Pitch_bend_c, 3, 9600
4, 178800, Pitch_bend_c, 3, 9600
4, 178800, Pitch_bend_c, 3, 8192
4, 178800, Note_off_c, 3, 63, 95
4, 178800, Note_on_c, 2, 63, 95
4, 179040, Note_off_c, 2, 63, 95
4, 179040, Note_on_c, 2, 61, 70
4, 179280, Note_off_c, 2, 61, 70
4, 179280, Note_on_c, 2, 58, 95
4, 179520, Note_off_c, 2, 58, 95
4, 179520, Note_on_c, 2, 61, 95
4, 179760, Note_off_c, 2, 61, 95
4, 179760, Note_on_c, 2, 58, 95
4, 179880, Note_off_c, 2, 58, 95
4, 179880, Note_on_c, 2, 56, 70
4, 180000, Note_off_c, 2, 56, 70
4, 180000, Note_on_c, 2, 53, 79
4, 180120, Note_off_c, 2, 53, 79
4, 180120, Note_on_c, 2, 51, 54
4, 180240, Note_off_c, 2, 51, 54
4, 180240, Note_on_c, 2, 49, 63
4, 180480, Note_off_c, 2, 49, 63
4, 180480, Note_on_c, 2, 44, 95
4, 180522, Note_off_c, 2, 44, 95
4, 180900, Note_on_c, 3, 51, 79
4, 180960, Note_off_c, 3, 51, 79
4, 180960, Note_on_c, 3, 53, 95
4, 181120, Note_off_c, 3, 53, 95
4, 181120, Note_on_c, 2, 52, 70
4, 181280, Note_off_c, 2, 52, 70
4, 181280, Note_on_c, 2, 51, 70
4, 181440, Note_off_c, 2, 51, 70
4, 181440, Note_on_c, 2, 50, 95
4, 181600, Note_off_c, 2, 50, 95
4, 181600, Note_on_c, 2, 46, 95
4, 181840, Note_off_c, 2, 46, 95
4, 181840, Note_on_c, 2, 58, 95
4, 181920, Note_off_c, 2, 58, 95
4, 181920, Note_on_c, 2, 61, 95
4, 182040, Note_off_c, 2, 61, 95
4, 182040, Note_on_c, 2, 62, 70
4, 182160, Note_off_c, 2, 62, 70
4, 182160, Note_on_c, 2, 65, 95
4, 182280, Note_off_c, 2, 65, 95
4, 182280, Note_on_c, 2, 70, 95
4, 182400, Note_off_c, 2, 70, 95
4, 182400, Note_on_c, 3, 68, 95
4, 182560, Pitch_bend_c, 3, 8192
4, 182720, Pitch_bend_c, 3, 8320
4, 182880, Pitch_bend_c, 3, 8192
4, 182880, Pitch_bend_c, 3, 8320
4, 182880, Pitch_bend_c, 3, 8192
4, 182880, Note_off_c, 3, 68, 95
4, 182880, Note_on_c, 2, 65, 95
4, 183040, Note_off_c, 2, 65, 95
4, 183040, Note_on_c, 2, 63, 95
4, 183200, Note_off_c, 2, 63, 95
4, 183200, Note_on_c, 2, 61, 95
4, 183360, Note_off_c, 2, 61, 95
4, 183360, Note_on_c, 3, 61, 95
4, 183520, Pitch_bend_c, 3, 8192
4, 183680, Pitch_bend_c, 3, 8320
4, 183840, Pitch_bend_c, 3, 8192
4, 184000, Pitch_bend_c, 3, 8320
4, 184080, Pitch_bend_c, 3, 8192
4, 184080, Pitch_bend_c, 3, 8320
4, 184080, Pitch_bend_c, 3, 8192
4, 184080, Note_off_c, 3, 61, 95
4, 184320, Note_on_c, 3, 61, 95
4, 184480, Pitch_bend_c, 3, 8192
4, 184480, Pitch_bend_c, 3, 8192
4, 184640, Note_off_c, 3, 61, 95
4, 184640, Note_on_c, 3, 60, 95
4, 184800, Pitch_bend_c, 3, 8192
4, 184960, Pitch_bend_c, 3, 8320
4, 185120, Pitch_bend_c, 3, 8192
4, 185280, Pitch_bend_c, 3, 8320
4, 185440, Pitch_bend_c, 3, 8192
4, 185600, Pitch_bend_c, 3, 8320
4, 185760, Pitch_bend_c, 3, 8192
4, 185920, Pitch_bend_c, 3, 8320
4, 186080, Pitch_bend_c, 3, 8192
4, 186240, Pitch_bend_c, 3, 8320
4, 186240, Pitch_bend_c, 3, 8192
4, 186240, Note_off_c, 3, 60, 95
4, 186240, Note_on_c, 2, 54, 79
4, 186282, Note_off_c, 2, 54, 79
4, 189920, Pitch_bend_c, 3, 8192
4, 189920, Note_on_c, 3, 65, 95
4, 189936, Pitch_bend_c, 3, 8320
4, 189952, Pitch_bend_c, 3, 8448
4, 189968, Pitch_bend_c, 3, 8576
4, 189984, Pitch_bend_c, 3, 8704
4, 190000, Pitch_bend_c, 3, 8832
4, 190016, Pitch_bend_c, 3, 8960
4, 190032, Pitch_bend_c, 3, 9088
4, 190048, Pitch_bend_c, 3, 9216
4, 190064, Pitch_bend_c, 3, 9344
4, 190080, Pitch_bend_c, 3, 9472
4, 190096, Pitch_bend_c, 3, 9600
4, 190106, Pitch_bend_c, 3, 9600
4, 190480, Pitch_bend_c, 3, 9600
4, 190554, Pitch_bend_c, 3, 9728
4, 190628, Pitch_bend_c, 3, 9856
4, 190702, Pitch_bend_c, 3, 9984
4, 190776, Pitch_bend_c, 3, 10112
4, 190850, Pitch_bend_c, 3, 10240
4, 190853, Pitch_bend_c, 3, 10240
4, 191040, Pitch_bend_c, 3, 10240
4, 191040, Pitch_bend_c, 3, 8192
4, 191040, Note_off_c, 3, 65, 95
4, 191040, Pitch_bend_c, 3, 9600
4, 191040, Note_on_c, 3, 63, 95
4, 191100, Pitch_bend_c, 3, 9600
4, 191105, Pitch_bend_c, 3, 9472
4, 191110, Pitch_bend_c, 3, 9344
4, 191115, Pitch_bend_c, 3, 9216
4, 191120, Pitch_bend_c, 3, 9088
4, 191125, Pitch_bend_c, 3, 8960
4, 191130, Pitch_bend_c, 3, 8832
4, 191135, Pitch_bend_c, 3, 8704
4, 191140, Pitch_bend_c, 3, 8576
4, 191145, Pitch_bend_c, 3, 8448
4, 191150, Pitch_bend_c, 3, 8320
4, 191155, Pitch_bend_c, 3, 8192
4, 191160, Pitch_bend_c, 3, 8192
4, 191280, Pitch_bend_c, 3, 8192
4, 191280, Pitch_bend_c, 3, 8192
4, 191280, Note_off_c, 3, 63, 95
4, 191280, Note_on_c, 2, 58, 95
4, 191520, Note_off_c, 2, 58, 95
4, 192000, Pitch_bend_c, 3, 8192
4, 192000, Note_on_c, 3, 65, 95
4, 192014, Pitch_bend_c, 3, 8320
4, 192028, Pitch_bend_c, 3, 8448
4, 192042, Pitch_bend_c, 3, 8576
4, 192056, Pitch_bend_c, 3, 8704
4, 192070, Pitch_bend_c, 3, 8832
4, 192084, Pitch_bend_c, 3, 8960
4, 192098, Pitch_bend_c, 3, 9088
4, 192112, Pitch_bend_c, 3, 9216
4, 192126, Pitch_bend_c, 3, 9344
4, 192140, Pitch_bend_c, 3, 9472
4, 192154, Pitch_bend_c, 3, 9600
4, 192160, Pitch_bend_c, 3, 9600
4, 192320, Pitch_bend_c, 3, 9600
4, 192320, Pitch_bend_c, 3, 8192
4, 192320, Note_off_c, 3, 65, 95
4, 192480, Note_on_c, 2, 65, 95
4, 192720, Note_off_c, 2, 65, 95
4, 192720, Note_on_c, 2, 63, 95
4, 192960, Note_off_c, 2, 63, 95
4, 192960, Note_on_c, 2, 65, 95
4, 193200, Note_off_c, 2, 65, 95
4, 193200, Note_on_c, 2, 63, 95
4, 193440, Note_off_c, 2, 63, 95
4, 193440, Note_on_c, 2, 61, 95
4, 193600, Note_off_c, 2, 61, 95
4, 193600, Note_on_c, 2, 58, 95
4, 193760, Note_off_c, 2, 58, 95
4, 193760, Note_on_c, 2, 63, 95
4, 193920, Note_off_c, 2, 63, 95
4, 193920, Note_on_c, 3, 61, 111
4, 194080, Pitch_bend_c, 3, 8192
4, 194240, Pitch_bend_c, 3, 8320
4, 194400, Pitch_bend_c, 3, 8192
4, 194560, Pitch_bend_c, 3, 8320
4, 194720, Pitch_bend_c, 3, 8192
4, 194880, Pitch_bend_c, 3, 8320
4, 194880, Pitch_bend_c, 3, 8192
4, 194880, Note_off_c, 3, 61, 111
4, 199440, Pitch_bend_c, 3, 8192
4, 199440, Note_on_c, 3, 63, 111
4, 199456, Pitch_bend_c, 3, 8320
4, 199472, Pitch_bend_c, 3, 8448
4, 199488, Pitch_bend_c, 3, 8576
4, 199504, Pitch_bend_c, 3, 8704
4, 199520, Pitch_bend_c, 3, 8832
4, 199536, Pitch_bend_c, 3, 8960
4, 199552, Pitch_bend_c, 3, 9088
4, 199568, Pitch_bend_c, 3, 9216
4, 199584, Pitch_bend_c, 3, 9344
4, 199600, Pitch_bend_c, 3, 9472
4, 199616, Pitch_bend_c, 3, 9600
4, 199626, Pitch_bend_c, 3, 9600
4, 200000, Pitch_bend_c, 3, 9600
4, 200000, Pitch_bend_c, 3, 8192
4, 200000, Note_off_c, 3, 63, 111
4, 200000, Pitch_bend_c, 3, 9600
4, 200000, Note_on_c, 3, 63, 95
4, 200160, Pitch_bend_c, 3, 9600
4, 200160, Pitch_bend_c, 3, 8192
4, 200160, Note_off_c, 3, 63, 95
4, 200160, Note_on_c, 2, 63, 95
4, 200480, Note_off_c, 2, 63, 95
4, 200480, Pitch_bend_c, 3, 8192
4, 200480, Note_on_c, 3, 63, 95
4, 200487, Pitch_bend_c, 3, 8320
4, 200494, Pitch_bend_c, 3, 8448
4, 200501, Pitch_bend_c, 3, 8576
4, 200508, Pitch_bend_c, 3, 8704
4, 200515, Pitch_bend_c, 3, 8832
4, 200522, Pitch_bend_c, 3, 8960
4, 200529, Pitch_bend_c, 3, 9088
4, 200536, Pitch_bend_c, 3, 9216
4, 200543, Pitch_bend_c, 3, 9344
4, 200550, Pitch_bend_c, 3, 9472
4, 200557, Pitch_bend_c, 3, 9600
4, 200560, Pitch_bend_c, 3, 9600
4, 200640, Pitch_bend_c, 3, 9600
4, 200640, Pitch_bend_c, 3, 8192
4, 200640, Note_off_c, 3, 63, 95
4, 200640, Note_on_c, 3, 61, 95
4, 200800, Pitch_bend_c, 3, 8192
4, 200960, Pitch_bend_c, 3, 8320
4, 201120, Pitch_bend_c, 3, 8192
4, 201120, Pitch_bend_c, 3, 8320
4, 201120, Pitch_bend_c, 3, 8192
4, 201120, Note_off_c, 3, 61, 95
4, 201120, Note_on_c, 3, 58, 95
4, 201280, Pitch_bend_c, 3, 8192
4, 201440, Pitch_bend_c, 3, 8320
4, 201600, Pitch_bend_c, 3, 8192
4, 201600, Pitch_bend_c, 3, 8320
4, 201600, Pitch_bend_c, 3, 8192
4, 201600, Note_off_c, 3, 58, 95
4, 201600, Note_on_c, 2, 56, 95
4, 201720, Note_off_c, 2, 56, 95
4, 201720, Note_on_c, 3, 58, 95
4, 201880, Pitch_bend_c, 3, 8192
4, 202040, Pitch_bend_c, 3, 8320
4, 202200, Pitch_bend_c, 3, 8192
4, 202360, Pitch_bend_c, 3, 8320
4, 202440, Pitch_bend_c, 3, 8192
4, 202440, Pitch_bend_c, 3, 8320
4, 202440, Pitch_bend_c, 3, 8192
4, 202440, Note_off_c, 3, 58, 95
4, 202440, Note_on_c, 2, 61, 95
4, 202560, Note_off_c, 2, 61, 95
4, 202560, Note_on_c, 2, 58, 95
4, 202680, Note_off_c, 2, 58, 95
4, 202680, Note_on_c, 2, 56, 70
4, 202800, Note_off_c, 2, 56, 70
4, 202800, Note_on_c, 2, 53, 79
4, 202920, Note_off_c, 2, 53, 79
4, 202920, Note_on_c, 2, 51, 54
4, 203040, Note_off_c, 2, 51, 54
4, 203040, Note_on_c, 2, 48, 63
4, 203160, Note_off_c, 2, 48, 63
4, 203160, Note_on_c, 2, 46, 22
4, 203280, Note_off_c, 2, 46, 22
4, 204960, Pitch_bend_c, 3, 8192
4, 204960, Note_on_c, 3, 63, 95
4, 204970, Pitch_bend_c, 3, 8320
4, 204980, Pitch_bend_c, 3, 8448
4, 204990, Pitch_bend_c, 3, 8576
4, 205000, Pitch_bend_c, 3, 8704
4, 205010, Pitch_bend_c, 3, 8832
4, 205020, Pitch_bend_c, 3, 8960
4, 205030, Pitch_bend_c, 3, 9088
4, 205040, Pitch_bend_c, 3, 9216
4, 205050, Pitch_bend_c, 3, 9344
4, 205060, Pitch_bend_c, 3, 9472
4, 205070, Pitch_bend_c, 3, 9600
4, 205080, Pitch_bend_c, 3, 9600
4, 205200, Pitch_bend_c, 3, 9600
4, 205200, Pitch_bend_c, 3, 8192
4, 205200, Note_off_c, 3, 63, 95
4, 205200, Note_on_c, 2, 65, 95
4, 205380, Note_on_c, 3, 65, 95
4, 205440, Note_off_c, 2, 65, 95
4, 205440, Note_on_c, 2, 70, 95
4, 205440, Note_off_c, 3, 65, 95
4, 205440, Note_on_c, 3, 58, 95
4, 205680, Note_off_c, 2, 70, 95
4, 205680, Note_off_c, 3, 58, 95
4, 205680, Note_on_c, 2, 68, 95
4, 205800, Note_off_c, 2, 68, 95
4, 205800, Note_on_c, 2, 65, 95
4, 205920, Note_off_c, 2, 65, 95
4, 205920, Pitch_bend_c, 3, 8192
4, 205920, Note_on_c, 3, 63, 95
4, 205930, Pitch_bend_c, 3, 8320
4, 205940, Pitch_bend_c, 3, 8448
4, 205950, Pitch_bend_c, 3, 8576
4, 205960, Pitch_bend_c, 3, 8704
4, 205970, Pitch_bend_c, 3, 8832
4, 205980, Pitch_bend_c, 3, 8960
4, 205990, Pitch_bend_c, 3, 9088
4, 206000, Pitch_bend_c, 3, 9216
4, 206010, Pitch_bend_c, 3, 9344
4, 206020, Pitch_bend_c, 3, 9472
4, 206030, Pitch_bend_c, 3, 9600
4, 206040, Pitch_bend_c, 3, 9600
4, 206160, Pitch_bend_c, 3, 9600
4, 206160, Pitch_bend_c, 3, 8192
4, 206160, Note_off_c, 3, 63, 95
4, 206160, Note_on_c, 2, 63, 95
4, 206400, Note_off_c, 2, 63, 95
4, 206400, Note_on_c, 2, 61, 95
4, 206640, Note_off_c, 2, 61, 95
4, 206640, Pitch_bend_c, 3, 8192
4, 206640, Note_on_c, 3, 63, 95
4, 206661, Pitch_bend_c, 3, 8320
4, 206682, Pitch_bend_c, 3, 8448
4, 206703, Pitch_bend_c, 3, 8576
4, 206724, Pitch_bend_c, 3, 8704
4, 206745, Pitch_bend_c, 3, 8832
4, 206766, Pitch_bend_c, 3, 8960
4, 206787, Pitch_bend_c, 3, 9088
4, 206808, Pitch_bend_c, 3, 9216
4, 206829, Pitch_bend_c, 3, 9344
4, 206850, Pitch_bend_c, 3, 9472
4, 206871, Pitch_bend_c, 3, 9600
4, 206880, Pitch_bend_c, 3, 9600
4, 207360, Pitch_bend_c, 3, 9600
4, 207360, Pitch_bend_c, 3, 8192
4, 207360, Note_off_c, 3, 63, 95
4, 207360, Note_on_c, 2, 63, 95
4, 207480, Note_off_c, 2, 63, 95
4, 207480, Note_on_c, 2, 61, 70
4, 207600, Note_off_c, 2, 61, 70
4, 207600, Note_on_c, 2, 58, 95
4, 207600, Note_on_c, 2, 53, 95
4, 207840, Note_off_c, 2, 58, 95
4, 207840, Note_off_c, 2, 53, 95
4, 207840, Note_on_c, 2, 61, 95
4, 207840, Note_on_c, 2, 49, 95
4, 207840, Note_on_c, 2, 44, 95
4, 208560, Note_off_c, 2, 61, 95
4, 208560, Note_off_c, 2, 49, 95
4, 208560, Note_off_c, 2, 44, 95
4, 212160, Pitch_bend_c, 3, 8192
4, 212160, Note_on_c, 3, 68, 111
4, 212203, Pitch_bend_c, 3, 8320
4, 212246, Pitch_bend_c, 3, 8448
4, 212289, Pitch_bend_c, 3, 8576
4, 212332, Pitch_bend_c, 3, 8704
4, 212375, Pitch_bend_c, 3, 8832
4, 212418, Pitch_bend_c, 3, 8960
4, 212461, Pitch_bend_c, 3, 9088
4, 212504, Pitch_bend_c, 3, 9216
4, 212547, Pitch_bend_c, 3, 9344
4, 212590, Pitch_bend_c, 3, 9472
4, 212633, Pitch_bend_c, 3, 9600
4, 212640, Pitch_bend_c, 3, 9600
4, 213120, Pitch_bend_c, 3, 9600
4, 213120, Pitch_bend_c, 3, 8192
4, 213120, Note_off_c, 3, 68, 111
4, 213120, Pitch_bend_c, 3, 8448
4, 213120, Note_on_c, 3, 68, 111
4, 213360, Pitch_bend_c, 3, 8448
4, 213360, Pitch_bend_c, 3, 8192
4, 213360, Note_off_c, 3, 68, 111
4, 213600, Pitch_bend_c, 3, 8192
4, 213600, Note_on_c, 3, 68, 95
4, 213610, Pitch_bend_c, 3, 8320
4, 213620, Pitch_bend_c, 3, 8448
4, 213630, Pitch_bend_c, 3, 8576
4, 213640, Pitch_bend_c, 3, 8704
4, 213650, Pitch_bend_c, 3, 8832
4, 213660, Pitch_bend_c, 3, 8960
4, 213670, Pitch_bend_c, 3, 9088
4, 213680, Pitch_bend_c, 3, 9216
4, 213690, Pitch_bend_c, 3, 9344
4, 213700, Pitch_bend_c, 3, 9472
4, 213710, Pitch_bend_c, 3, 9600
4, 213720, Pitch_bend_c, 3, 9600
4, 213840, Pitch_bend_c, 3, 9600
4, 213840, Pitch_bend_c, 3, 8192
4, 213840, Note_off_c, 3, 68, 95
4, 213840, Pitch_bend_c, 3, 8192
4, 213840, Note_on_c, 3, 68, 111
4, 213878, Pitch_bend_c, 3, 8320
4, 213916, Pitch_bend_c, 3, 8448
4, 213954, Pitch_bend_c, 3, 8576
4, 213992, Pitch_bend_c, 3, 8704
4, 214030, Pitch_bend_c, 3, 8832
4, 214068, Pitch_bend_c, 3, 8960
4, 214106, Pitch_bend_c, 3, 9088
4, 214144, Pitch_bend_c, 3, 9216
4, 214182, Pitch_bend_c, 3, 9344
4, 214220, Pitch_bend_c, 3, 9472
4, 214258, Pitch_bend_c, 3, 9600
4, 214260, Pitch_bend_c, 3, 9600
4, 215520, Pitch_bend_c, 3, 9600
4, 215520, Pitch_bend_c, 3, 8192
4, 215520, Note_off_c, 3, 68, 111
4, 215520, Pitch_bend_c, 3, 8192
4, 215520, Note_on_c, 3, 68, 111
4, 215525, Pitch_bend_c, 3, 8320
4, 215530, Pitch_bend_c, 3, 8448
4, 215535, Pitch_bend_c, 3, 8576
4, 215540, Pitch_bend_c, 3, 8704
4, 215545, Pitch_bend_c, 3, 8832
4, 215550, Pitch_bend_c, 3, 8960
4, 215555, Pitch_bend_c, 3, 9088
4, 215560, Pitch_bend_c, 3, 9216
4, 215565, Pitch_bend_c, 3, 9344
4, 215570, Pitch_bend_c, 3, 9472
4, 215575, Pitch_bend_c, 3, 9600
4, 215580, Pitch_bend_c, 3, 9600
4, 215640, Pitch_bend_c, 3, 9600
4, 215650, Pitch_bend_c, 3, 9472
4, 215660, Pitch_bend_c, 3, 9344
4, 215670, Pitch_bend_c, 3, 9216
4, 215680, Pitch_bend_c, 3, 9088
4, 215690, Pitch_bend_c, 3, 8960
4, 215700, Pitch_bend_c, 3, 8832
4, 215710, Pitch_bend_c, 3, 8704
4, 215720, Pitch_bend_c, 3, 8576
4, 215730, Pitch_bend_c, 3, 8448
4, 215740, Pitch_bend_c, 3, 8320
4, 215750, Pitch_bend_c, 3, 8192
4, 215760, Pitch_bend_c, 3, 8192
4, 215760, Pitch_bend_c, 3, 8192
4, 215760, Note_off_c, 3, 68, 111
4, 215760, Note_on_c, 2, 68, 63
4, 215880, Note_off_c, 2, 68, 63
4, 215880, Note_on_c, 2, 65, 70
4, 216000, Note_off_c, 2, 65, 70
4, 216000, Note_on_c, 2, 63, 79
4, 216120, Note_off_c, 2, 63, 79
4, 216120, Note_on_c, 2, 61, 54
4, 216240, Note_off_c, 2, 61, 54
4, 216240, Note_on_c, 2, 58, 63
4, 216360, Note_off_c, 2, 58, 63
4, 216360, Note_on_c, 2, 56, 22
4, 216480, Note_off_c, 2, 56, 22
4, 216480, Note_on_c, 2, 39, 79
4, 216522, Note_off_c, 2, 39, 79
4, 221760, Note_on_c, 2, 68, 95
4, 221760, Pitch_bend_c, 3, 8192
4, 221760, Note_on_c, 3, 63, 111
4, 221781, Pitch_bend_c, 3, 8320
4, 221802, Pitch_bend_c, 3, 8448
4, 221823, Pitch_bend_c, 3, 8576
4, 221844, Pitch_bend_c, 3, 8704
4, 221865, Pitch_bend_c, 3, 8832
4, 221886, Pitch_bend_c, 3, 8960
4, 221907, Pitch_bend_c, 3, 9088
4, 221928, Pitch_bend_c, 3, 9216
4, 221949, Pitch_bend_c, 3, 9344
4, 221970, Pitch_bend_c, 3, 9472
4, 221991, Pitch_bend_c, 3, 9600
4, 222000, Pitch_bend_c, 3, 9600
4, 223200, Note_off_c, 2, 68, 95
4, 223200, Pitch_bend_c, 3, 9600
4, 223200, Pitch_bend_c, 3, 8192
4, 223200, Note_off_c, 3, 63, 111
4, 223200, Note_on_c, 2, 68, 95
4, 223200, Note_on_c, 2, 61, 95
4, 223680, Note_off_c, 2, 68, 95
4, 223680, Note_off_c, 2, 61, 95
4, 223680, Note_on_c, 2, 68, 95
4, 223680, Note_on_c, 2, 63, 95
4, 224160, Note_off_c, 2, 68, 95
4, 224160, Note_off_c, 2, 63, 95
4, 224160, Note_on_c, 2, 68, 95
4, 224160, Pitch_bend_c, 3, 8832
4, 224160, Note_on_c, 3, 63, 95
4, 224640, Note_off_c, 2, 68, 95
4, 224640, Pitch_bend_c, 3, 8832
4, 224640, Pitch_bend_c, 3, 8192
4, 224640, Note_off_c, 3, 63, 95
4, 224640, Note_on_c, 3, 68, 111
4, 224640, Pitch_bend_c, 3, 9600
4, 224640, Note_on_c, 3, 63, 111
4, 224800, Pitch_bend_c, 3, 8192
4, 224960, Pitch_bend_c, 3, 8320
4, 225120, Pitch_bend_c, 3, 8192
4, 225280, Pitch_bend_c, 3, 8320
4, 225360, Pitch_bend_c, 3, 8192
4, 225360, Pitch_bend_c, 3, 8320
4, 225360, Pitch_bend_c, 3, 8192
4, 225360, Note_off_c, 3, 68, 111
4, 225360, Pitch_bend_c, 3, 9600
4, 225360, Pitch_bend_c, 3, 8192
4, 225360, Note_off_c, 3, 63, 111
4, 225360, Note_on_c, 2, 68, 95
4, 225360, Note_on_c, 2, 63, 95
4, 225480, Note_off_c, 2, 68, 95
4, 225480, Note_off_c, 2, 63, 95
4, 225480, Note_on_c, 2, 61, 70
4, 225600, Note_off_c, 2, 61, 70
4, 225600, Note_on_c, 2, 58, 111
4, 225720, Note_off_c, 2, 58, 111
4, 225720, Note_on_c, 2, 56, 70
4, 225840, Note_off_c, 2, 56, 70
4, 225840, Note_on_c, 2, 61, 95
4, 225960, Note_off_c, 2, 61, 95
4, 225960, Note_on_c, 2, 58, 95
4, 226080, Note_off_c, 2, 58, 95
4, 226080, Note_on_c, 2, 56, 70
4, 226200, Note_off_c, 2, 56, 70
4, 226200, Note_on_c, 2, 53, 79
4, 226320, Note_off_c, 2, 53, 79
4, 226320, Note_on_c, 2, 51, 54
4, 226440, Note_off_c, 2, 51, 54
4, 226440, Note_on_c, 2, 39, 63
4, 226482, Note_off_c, 2, 39, 63
4, 227760, Note_on_c, 2, 61, 95
4, 228000, Note_off_c, 2, 61, 95
4, 228000, Note_on_c, 2, 62, 95
4, 228240, Note_off_c, 2, 62, 95
4, 228240, Note_on_c, 2, 65, 95
4, 228480, Note_off_c, 2, 65, 95
4, 228480, Note_on_c, 2, 72, 95
4, 228640, Note_off_c, 2, 72, 95
4, 228640, Note_on_c, 2, 71, 95
4, 228800, Note_off_c, 2, 71, 95
4, 228800, Note_on_c, 2, 70, 95
4, 228960, Note_off_c, 2, 70, 95
4, 228960, Note_on_c, 3, 68, 111
4, 229120, Pitch_bend_c, 3, 8192
4, 229280, Pitch_bend_c, 3, 8320
4, 229440, Pitch_bend_c, 3, 8192
4, 229600, Pitch_bend_c, 3, 8320
4, 229680, Pitch_bend_c, 3, 8192
4, 229680, Pitch_bend_c, 3, 8320
4, 229680, Pitch_bend_c, 3, 8192
4, 229680, Note_off_c, 3, 68, 111
4, 229680, Note_on_c, 2, 70, 95
4, 229800, Note_off_c, 2, 70, 95
4, 229800, Note_on_c, 2, 68, 95
4, 229920, Note_off_c, 2, 68, 95
4, 229920, Note_on_c, 2, 65, 70
4, 230040, Note_off_c, 2, 65, 70
4, 230040, Note_on_c, 2, 63, 95
4, 230160, Note_off_c, 2, 63, 95
4, 230160, Note_on_c, 2, 61, 70
4, 230280, Note_off_c, 2, 61, 70
4, 230280, Note_on_c, 2, 58, 95
4, 230400, Note_off_c, 2, 58, 95
4, 230400, Note_on_c, 2, 65, 111
4, 230520, Note_off_c, 2, 65, 111
4, 230520, Note_on_c, 2, 66, 70
4, 230640, Note_off_c, 2, 66, 70
4, 230640, Note_on_c, 2, 67, 70
4, 230760, Note_off_c, 2, 67, 70
4, 230760, Note_on_c, 2, 70, 95
4, 230880, Note_off_c, 2, 70, 95
4, 230880, Note_on_c, 3, 63, 95
4, 230880, Note_on_c, 3, 65, 111
4, 231040, Pitch_bend_c, 3, 8192
4, 231040, Pitch_bend_c, 3, 8192
4, 231200, Pitch_bend_c, 3, 8320
4, 231200, Pitch_bend_c, 3, 8320
4, 231360, Pitch_bend_c, 3, 8192
4, 231360, Pitch_bend_c, 3, 8192
4, 231520, Pitch_bend_c, 3, 8320
4, 231520, Pitch_bend_c, 3, 8320
4, 231680, Pitch_bend_c, 3, 8192
4, 231680, Pitch_bend_c, 3, 8192
4, 231840, Pitch_bend_c, 3, 8320
4, 231840, Pitch_bend_c, 3, 8320
4, 232000, Pitch_bend_c, 3, 8192
4, 232000, Pitch_bend_c, 3, 8320
4, 232000, Pitch_bend_c, 3, 8192
4, 232000, Note_off_c, 3, 63, 95
4, 232000, Pitch_bend_c, 3, 8192
4, 232000, Pitch_bend_c, 3, 8320
4, 232000, Pitch_bend_c, 3, 8192
4, 232000, Note_off_c, 3, 65, 111
4, 232000, Note_on_c, 2, 66, 79
4, 232160, Note_off_c, 2, 66, 79
4, 232160, Note_on_c, 2, 67, 54
4, 232320, Note_off_c, 2, 67, 54
4, 236160, Pitch_bend_c, 3, 8192
4, 236160, Note_on_c, 3, 63, 111
4, 236181, Pitch_bend_c, 3, 8320
4, 236202, Pitch_bend_c, 3, 8448
4, 236223, Pitch_bend_c, 3, 8576
4, 236244, Pitch_bend_c, 3, 8704
4, 236265, Pitch_bend_c, 3, 8832
4, 236286, Pitch_bend_c, 3, 8960
4, 236307, Pitch_bend_c, 3, 9088
4, 236328, Pitch_bend_c, 3, 9216
4, 236349, Pitch_bend_c, 3, 9344
4, 236370, Pitch_bend_c, 3, 9472
4, 236391, Pitch_bend_c, 3, 9600
4, 236400, Pitch_bend_c, 3, 9600
4, 236640, Pitch_bend_c, 3, 9600
4, 236640, Pitch_bend_c, 3, 8192
4, 236640, Note_off_c, 3, 63, 111
4, 236640, Note_on_c, 2, 63, 95
4, 236880, Note_off_c, 2, 63, 95
4, 236880, Note_on_c, 2, 61, 95
4, 237120, Note_off_c, 2, 61, 95
4, 237120, Note_on_c, 2, 63, 95
4, 237280, Note_off_c, 2, 63, 95
4, 237280, Note_on_c, 2, 63, 95
4, 237440, Note_off_c, 2, 63, 95
4, 237440, Pitch_bend_c, 3, 9600
4, 237440, Note_on_c, 3, 63, 95
4, 237480, Pitch_bend_c, 3, 9600
4, 237483, Pitch_bend_c, 3, 9472
4, 237486, Pitch_bend_c, 3, 9344
4, 237489, Pitch_bend_c, 3, 9216
4, 237492, Pitch_bend_c, 3, 9088
4, 237495, Pitch_bend_c, 3, 8960
4, 237498, Pitch_bend_c, 3, 8832
4, 237501, Pitch_bend_c, 3, 8704
4, 237504, Pitch_bend_c, 3, 8576
4, 237507, Pitch_bend_c, 3, 8448
4, 237510, Pitch_bend_c, 3, 8320
4, 237513, Pitch_bend_c, 3, 8192
4, 237520, Pitch_bend_c, 3, 8192
4, 237520, Pitch_bend_c, 3, 8192
4, 237520, Note_off_c, 3, 63, 95
4, 237520, Note_on_c, 2, 63, 63
4, 237600, Note_off_c, 2, 63, 63
4, 237600, Note_on_c, 2, 61, 86
4, 237760, Note_off_c, 2, 61, 86
4, 237760, Note_on_c, 2, 58, 95
4, 237920, Note_off_c, 2, 58, 95
4, 237920, Note_on_c, 2, 61, 95
4, 238080, Note_off_c, 2, 61, 95
4, 238080, Note_on_c, 2, 58, 95
4, 238200, Note_off_c, 2, 58, 95
4, 238200, Note_on_c, 2, 56, 70
4, 238320, Note_off_c, 2, 56, 70
4, 238320, Note_on_c, 2, 53, 79
4, 238440, Note_off_c, 2, 53, 79
4, 238440, Note_on_c, 2, 51, 54
4, 238560, Note_off_c, 2, 51, 54
4, 238560, Note_on_c, 2, 48, 63
4, 238800, Note_off_c, 2, 48, 63
4, 238980, Note_on_c, 3, 44, 95
4, 239022, Note_off_c, 3, 44, 95
4, 239040, Note_on_c, 2, 56, 95
4, 239040, Note_on_c, 3, 44, 95
4, 239400, Note_off_c, 2, 56, 95
4, 239400, Note_off_c, 3, 44, 95
4, 239400, Note_on_c, 3, 58, 95
4, 239560, Pitch_bend_c, 3, 8192
4, 239720, Pitch_bend_c, 3, 8320
4, 239880, Pitch_bend_c, 3, 8192
4, 240040, Pitch_bend_c, 3, 8320
4, 240200, Pitch_bend_c, 3, 8192
4, 240360, Pitch_bend_c, 3, 8320
4, 240480, Pitch_bend_c, 3, 8192
4, 240480, Pitch_bend_c, 3, 8320
4, 240480, Pitch_bend_c, 3, 8192
4, 240480, Note_off_c, 3, 58, 95
4, 240480, Note_on_c, 2, 56, 95
4, 240840, Note_off_c, 2, 56, 95
4, 240840, Note_on_c, 2, 58, 95
4, 241200, Note_off_c, 2, 58, 95
4, 241200, Pitch_bend_c, 3, 8192
4, 241200, Note_on_c, 3, 63, 95
4, 241290, Pitch_bend_c, 3, 8320
4, 241380, Pitch_bend_c, 3, 8448
4, 241380, Pitch_bend_c, 3, 8448
4, 241560, Pitch_bend_c, 3, 8448
4, 241560, Pitch_bend_c, 3, 8192
4, 241560, Note_off_c, 3, 63, 95
4, 241560, Pitch_bend_c, 3, 8192
4, 241560, Note_on_c, 3, 61, 95
4, 241620, Pitch_bend_c, 3, 8320
4, 241680, Pitch_bend_c, 3, 8448
4, 241740, Pitch_bend_c, 3, 8576
4, 241800, Pitch_bend_c, 3, 8704
4, 241860, Pitch_bend_c, 3, 8832
4, 241860, Pitch_bend_c, 3, 8832
4, 242160, Pitch_bend_c, 3, 8832
4, 242160, Pitch_bend_c, 3, 8192
4, 242160, Note_off_c, 3, 61, 95
4, 242160, Note_on_c, 2, 58, 95
4, 242400, Note_off_c, 2, 58, 95
4, 242400, Note_on_c, 2, 56, 70
4, 242640, Note_off_c, 2, 56, 70
4, 242640, Note_on_c, 3, 58, 70
4, 242800, Pitch_bend_c, 3, 8192
4, 242960, Pitch_bend_c, 3, 8320
4, 243120, Pitch_bend_c, 3, 8192
4, 243120, Pitch_bend_c, 3, 8320
4, 243120, Pitch_bend_c, 3, 8192
4, 243120, Note_off_c, 3, 58, 70
4, 243120, Note_on_c, 2, 61, 63
4, 243120, Note_on_c, 2, 56, 54
4, 243360, Note_off_c, 2, 61, 63
4, 243360, Note_off_c, 2, 56, 54
4, 243360, Note_on_c, 2, 53, 79
4, 243480, Note_off_c, 2, 53, 79
4, 243480, Note_on_c, 3, 51, 54
4, 243600, Pitch_bend_c, 3, 7552
4, 243600, Pitch_bend_c, 3, 8192
4, 243600, Note_off_c, 3, 51, 54
4, 243600, Note_on_c, 2, 50, 63
4, 243840, Note_off_c, 2, 50, 63
4, 244200, Note_on_c, 3, 56, 79
4, 244320, Note_off_c, 3, 56, 79
4, 244320, Note_on_c, 3, 58, 95
4, 244800, Note_off_c, 3, 58, 95
4, 244800, Note_on_c, 2, 56, 95
4, 245040, Note_off_c, 2, 56, 95
4, 245040, Note_on_c, 2, 51, 95
4, 245280, Note_off_c, 2, 51, 95
4, 245280, Note_on_c, 2, 52, 70
4, 245440, Note_off_c, 2, 52, 70
4, 245440, Note_on_c, 2, 51, 70
4, 245600, Note_off_c, 2, 51, 70
4, 245600, Note_on_c, 2, 39, 95
4, 245642, Note_off_c, 2, 39, 95
4, 245760, Note_on_c, 2, 39, 95
4, 245802, Note_off_c, 2, 39, 95
4, 246240, Pitch_bend_c, 3, 8192
4, 246240, Note_on_c, 3, 63, 95
4, 246261, Pitch_bend_c, 3, 8320
4, 246282, Pitch_bend_c, 3, 8448
4, 246303, Pitch_bend_c, 3, 8576
4, 246324, Pitch_bend_c, 3, 8704
4, 246345, Pitch_bend_c, 3, 8832
4, 246366, Pitch_bend_c, 3, 8960
4, 246387, Pitch_bend_c, 3, 9088
4, 246408, Pitch_bend_c, 3, 9216
4, 246429, Pitch_bend_c, 3, 9344
4, 246450, Pitch_bend_c, 3, 9472
4, 246471, Pitch_bend_c, 3, 9600
4, 246480, Pitch_bend_c, 3, 9600
4, 246720, Pitch_bend_c, 3, 9600
4, 246720, Pitch_bend_c, 3, 8192
4, 246720, Note_off_c, 3, 63, 95
4, 246720, Note_on_c, 2, 70, 95
4, 246960, Note_off_c, 2, 70, 95
4, 246960, Note_on_c, 2, 68, 95
4, 247200, Note_off_c, 2, 68, 95
4, 247200, Note_on_c, 2, 65, 95
4, 247440, Note_off_c, 2, 65, 95
4, 247440, Pitch_bend_c, 3, 8192
4, 247440, Note_on_c, 3, 63, 95
4, 247450, Pitch_bend_c, 3, 8320
4, 247460, Pitch_bend_c, 3, 8448
4, 247470, Pitch_bend_c, 3, 8576
4, 247480, Pitch_bend_c, 3, 8704
4, 247490, Pitch_bend_c, 3, 8832
4, 247500, Pitch_bend_c, 3, 8960
4, 247510, Pitch_bend_c, 3, 9088
4, 247520, Pitch_bend_c, 3, 9216
4, 247530, Pitch_bend_c, 3, 9344
4, 247540, Pitch_bend_c, 3, 9472
4, 247550, Pitch_bend_c, 3, 9600
4, 247560, Pitch_bend_c, 3, 9600
4, 247680, Pitch_bend_c, 3, 9600
4, 247680, Pitch_bend_c, 3, 8192
4, 247680, Note_off_c, 3, 63, 95
4, 247680, Note_on_c, 2, 63, 95
4, 247920, Note_off_c, 2, 63, 95
4, 247920, Pitch_bend_c, 3, 8192
4, 247920, Note_on_c, 3, 61, 95
4, 247980, Pitch_bend_c, 3, 8320
4, 248040, Pitch_bend_c, 3, 8448
4, 248040, Pitch_bend_c, 3, 8448
4, 248160, Pitch_bend_c, 3, 8448
4, 248160, Pitch_bend_c, 3, 8192
4, 248160, Note_off_c, 3, 61, 95
4, 248160, Note_on_c, 2, 58, 95
4, 248320, Note_off_c, 2, 58, 95
4, 248320, Note_on_c, 2, 63, 95
4, 248480, Note_off_c, 2, 63, 95
4, 248480, Note_on_c, 2, 61, 95
4, 248640, Note_off_c, 2, 61, 95
4, 248640, Note_on_c, 2, 58, 95
4, 248760, Note_off_c, 2, 58, 95
4, 248760, Note_on_c, 2, 56, 70
4, 248880, Note_off_c, 2, 56, 70
4, 248880, Note_on_c, 2, 53, 79
4, 249000, Note_off_c, 2, 53, 79
4, 249000, Note_on_c, 2, 51, 54
4, 249120, Note_off_c, 2, 51, 54
4, 249120, Note_on_c, 2, 49, 63
4, 249360, Note_off_c, 2, 49, 63
4, 251520, Pitch_bend_c, 3, 8192
4, 251520, Note_on_c, 3, 63, 111
4, 251530, Pitch_bend_c, 3, 8320
4, 251540, Pitch_bend_c, 3, 8448
4, 251550, Pitch_bend_c, 3, 8576
4, 251560, Pitch_bend_c, 3, 8704
4, 251570, Pitch_bend_c, 3, 8832
4, 251580, Pitch_bend_c, 3, 8960
4, 251590, Pitch_bend_c, 3, 9088
4, 251600, Pitch_bend_c, 3, 9216
4, 251610, Pitch_bend_c, 3, 9344
4, 251620, Pitch_bend_c, 3, 9472
4, 251630, Pitch_bend_c, 3, 9600
4, 251640, Pitch_bend_c, 3, 9600
4, 251760, Pitch_bend_c, 3, 9600
4, 251760, Pitch_bend_c, 3, 8192
4, 251760, Note_off_c, 3, 63, 111
4, 251760, Note_on_c, 2, 65, 95
4, 251880, Note_off_c, 2, 65, 95
4, 251880, Note_on_c, 2, 70, 95
4, 252000, Note_off_c, 2, 70, 95
4, 252000, Note_on_c, 2, 68, 111
4, 252160, Note_off_c, 2, 68, 111
4, 252160, Note_on_c, 2, 65, 95
4, 252320, Note_off_c, 2, 65, 95
4, 252320, Pitch_bend_c, 3, 8192
4, 252320, Note_on_c, 3, 63, 95
4, 252323, Pitch_bend_c, 3, 8320
4, 252326, Pitch_bend_c, 3, 8448
4, 252329, Pitch_bend_c, 3, 8576
4, 252332, Pitch_bend_c, 3, 8704
4, 252335, Pitch_bend_c, 3, 8832
4, 252338, Pitch_bend_c, 3, 8960
4, 252341, Pitch_bend_c, 3, 9088
4, 252344, Pitch_bend_c, 3, 9216
4, 252347, Pitch_bend_c, 3, 9344
4, 252350, Pitch_bend_c, 3, 9472
4, 252353, Pitch_bend_c, 3, 9600
4, 252360, Pitch_bend_c, 3, 9600
4, 252400, Pitch_bend_c, 3, 9600
4, 252407, Pitch_bend_c, 3, 9472
4, 252414, Pitch_bend_c, 3, 9344
4, 252421, Pitch_bend_c, 3, 9216
4, 252428, Pitch_bend_c, 3, 9088
4, 252435, Pitch_bend_c, 3, 8960
4, 252442, Pitch_bend_c, 3, 8832
4, 252449, Pitch_bend_c, 3, 8704
4, 252456, Pitch_bend_c, 3, 8576
4, 252463, Pitch_bend_c, 3, 8448
4, 252470, Pitch_bend_c, 3, 8320
4, 252477, Pitch_bend_c, 3, 8192
4, 252480, Pitch_bend_c, 3, 8192
4, 252480, Pitch_bend_c, 3, 8192
4, 252480, Note_off_c, 3, 63, 95
4, 252480, Note_on_c, 2, 63, 63
4, 252600, Note_off_c, 2, 63, 63
4, 252600, Note_on_c, 2, 61, 70
4, 252600, Note_on_c, 2, 49, 79
4, 252720, Note_off_c, 2, 61, 70
4, 252720, Note_off_c, 2, 49, 79
4, 252720, Note_on_c, 2, 58, 95
4, 252840, Note_off_c, 2, 58, 95
4, 252840, Note_on_c, 2, 61, 95
4, 252960, Note_off_c, 2, 61, 95
4, 252960, Pitch_bend_c, 3, 8192
4, 252960, Note_on_c, 3, 63, 95
4, 252974, Pitch_bend_c, 3, 8320
4, 252988, Pitch_bend_c, 3, 8448
4, 253002, Pitch_bend_c, 3, 8576
4, 253016, Pitch_bend_c, 3, 8704
4, 253030, Pitch_bend_c, 3, 8832
4, 253044, Pitch_bend_c, 3, 8960
4, 253058, Pitch_bend_c, 3, 9088
4, 253072, Pitch_bend_c, 3, 9216
4, 253086, Pitch_bend_c, 3, 9344
4, 253100, Pitch_bend_c, 3, 9472
4, 253114, Pitch_bend_c, 3, 9600
4, 253120, Pitch_bend_c, 3, 9600
4, 253280, Pitch_bend_c, 3, 9600
4, 253280, Pitch_bend_c, 3, 8192
4, 253280, Note_off_c, 3, 63, 95
4, 253280, Note_on_c, 2, 65, 95
4, 253440, Note_off_c, 2, 65, 95
4, 253440, Note_on_c, 2, 70, 95
4, 253600, Note_off_c, 2, 70, 95
4, 253600, Note_on_c, 3, 68, 111
4, 253760, Pitch_bend_c, 3, 8192
4, 253920, Pitch_bend_c, 3, 8320
4, 254080, Pitch_bend_c, 3, 8192
4, 254240, Pitch_bend_c, 3, 8320
4, 254400, Pitch_bend_c, 3, 8192
4, 254560, Pitch_bend_c, 3, 8320
4, 254720, Pitch_bend_c, 3, 8192
4, 254880, Pitch_bend_c, 3, 8320
4, 254880, Note_on_c, 2, 64, 47
4, 255040, Pitch_bend_c, 3, 8192
4, 255200, Pitch_bend_c, 3, 8320
4, 255360, Pitch_bend_c, 3, 8192
4, 255520, Pitch_bend_c, 3, 8320
4, 255680, Pitch_bend_c, 3, 8192
4, 255840, Pitch_bend_c, 3, 8320
4, 255840, Pitch_bend_c, 3, 8192
4, 255840, Note_off_c, 3, 68, 111
4, 255840, Note_off_c, 2, 64, 47
4, 257760, Note_on_c, 2, 68, 95
4, 257920, Note_off_c, 2, 68, 95
4, 257920, Note_on_c, 2, 67, 70
4, 258080, Note_off_c, 2, 67, 70
4, 258080, Note_on_c, 2, 65, 70
4, 258240, Note_off_c, 2, 65, 70
4, 258240, Note_on_c, 2, 63, 95
4, 258720, Note_off_c, 2, 63, 95
4, 258720, Note_on_c, 2, 65, 95
4, 258880, Note_off_c, 2, 65, 95
4, 258880, Note_on_c, 2, 67, 70
4, 259040, Note_off_c, 2, 67, 70
4, 259040, Note_on_c, 2, 68, 70
4, 259200, Note_off_c, 2, 68, 70
4, 259200, Note_on_c, 2, 67, 95
4, 259680, Note_off_c, 2, 67, 95
4, 259680, Note_on_c, 2, 65, 95
4, 259800, Note_off_c, 2, 65, 95
4, 259800, Note_on_c, 2, 67, 70
4, 259920, Note_off_c, 2, 67, 70
4, 259920, Note_on_c, 2, 65, 70
4, 260040, Note_off_c, 2, 65, 70
4, 260040, Note_on_c, 2, 63, 95
4, 260160, Note_off_c, 2, 63, 95
4, 260160, Note_on_c, 2, 65, 95
4, 260256, Note_off_c, 2, 65, 95
4, 260256, Note_on_c, 2, 67, 70
4, 260352, Note_off_c, 2, 67, 70
4, 260352, Note_on_c, 2, 65, 70
4, 260448, Note_off_c, 2, 65, 70
4, 260448, Note_on_c, 2, 63, 95
4, 260544, Note_off_c, 2, 63, 95
4, 260544, Note_on_c, 2, 61, 70
4, 260640, Note_off_c, 2, 61, 70
4, 260640, Note_on_c, 2, 63, 95
4, 260760, Note_off_c, 2, 63, 95
4, 260760, Note_on_c, 2, 61, 70
4, 260880, Note_off_c, 2, 61, 70
4, 260880, Note_on_c, 2, 58, 95
4, 261120, Note_off_c, 2, 58, 95
4, 261120, Note_on_c, 2, 61, 95
4, 261240, Note_off_c, 2, 61, 95
4, 261240, Note_on_c, 2, 63, 70
4, 261360, Note_off_c, 2, 63, 70
4, 261360, Note_on_c, 2, 65, 95
4, 261480, Note_off_c, 2, 65, 95
4, 261480, Note_on_c, 2, 68, 70
4, 261600, Note_off_c, 2, 68, 70
4, 261600, Note_on_c, 2, 65, 70
4, 261720, Note_off_c, 2, 65, 70
4, 261720, Pitch_bend_c, 3, 8192
4, 261720, Note_on_c, 3, 63, 95
4, 261738, Pitch_bend_c, 3, 8320
4, 261756, Pitch_bend_c, 3, 8448
4, 261774, Pitch_bend_c, 3, 8576
4, 261792, Pitch_bend_c, 3, 8704
4, 261810, Pitch_bend_c, 3, 8832
4, 261810, Pitch_bend_c, 3, 8832
4, 261900, Pitch_bend_c, 3, 8832
4, 261936, Pitch_bend_c, 3, 8704
4, 261972, Pitch_bend_c, 3, 8576
4, 262008, Pitch_bend_c, 3, 8448
4, 262044, Pitch_bend_c, 3, 8320
4, 262080, Pitch_bend_c, 3, 8192
4, 262080, Pitch_bend_c, 3, 8192
4, 262080, Pitch_bend_c, 3, 8192
4, 262080, Note_off_c, 3, 63, 95
4, 262080, Note_on_c, 2, 63, 63
4, 262240, Note_off_c, 2, 63, 63
4, 262240, Note_on_c, 2, 61, 70
4, 262400, Note_off_c, 2, 61, 70
4, 262400, Note_on_c, 2, 58, 95
4, 262560, Note_off_c, 2, 58, 95
4, 262560, Note_on_c, 2, 53, 79
4, 263040, Note_off_c, 2, 53, 79
4, 266400, Pitch_bend_c, 3, 8192
4, 266400, Note_on_c, 3, 68, 111
4, 266443, Pitch_bend_c, 3, 8320
4, 266486, Pitch_bend_c, 3, 8448
4, 266529, Pitch_bend_c, 3, 8576
4, 266572, Pitch_bend_c, 3, 8704
4, 266615, Pitch_bend_c, 3, 8832
4, 266658, Pitch_bend_c, 3, 8960
4, 266701, Pitch_bend_c, 3, 9088
4, 266744, Pitch_bend_c, 3, 9216
4, 266787, Pitch_bend_c, 3, 9344
4, 266830, Pitch_bend_c, 3, 9472
4, 266873, Pitch_bend_c, 3, 9600
4, 266880, Pitch_bend_c, 3, 9600
4, 267360, Pitch_bend_c, 3, 9600
4, 267360, Pitch_bend_c, 3, 8192
4, 267360, Note_off_c, 3, 68, 111
4, 267360, Pitch_bend_c, 3, 8192
4, 267360, Note_on_c, 3, 68, 95
4, 267480, Pitch_bend_c, 3, 8320
4, 267600, Pitch_bend_c, 3, 8448
4, 267600, Pitch_bend_c, 3, 8448
4, 267840, Pitch_bend_c, 3, 8448
4, 267840, Pitch_bend_c, 3, 8192
4, 267840, Note_off_c, 3, 68, 95
4, 267840, Pitch_bend_c, 3, 8192
4, 267840, Note_on_c, 3, 68, 111
4, 267854, Pitch_bend_c, 3, 8320
4, 267868, Pitch_bend_c, 3, 8448
4, 267882, Pitch_bend_c, 3, 8576
4, 267896, Pitch_bend_c, 3, 8704
4, 267910, Pitch_bend_c, 3, 8832
4, 267924, Pitch_bend_c, 3, 8960
4, 267938, Pitch_bend_c, 3, 9088
4, 267952, Pitch_bend_c, 3, 9216
4, 267966, Pitch_bend_c, 3, 9344
4, 267980, Pitch_bend_c, 3, 9472
4, 267994, Pitch_bend_c, 3, 9600
4, 268000, Pitch_bend_c, 3, 9600
4, 268160, Pitch_bend_c, 3, 9600
4, 268160, Pitch_bend_c, 3, 8192
4, 268160, Note_off_c, 3, 68, 111
4, 268160, Note_on_c, 2, 73, 95
4, 268320, Note_off_c, 2, 73, 95
4, 268320, Pitch_bend_c, 3, 8832
4, 268320, Note_on_c, 3, 68, 95
4, 268640, Pitch_bend_c, 3, 8832
4, 268640, Pitch_bend_c, 3, 8192
4, 268640, Note_off_c, 3, 68, 95
4, 268640, Pitch_bend_c, 3, 9600
4, 268640, Note_on_c, 3, 68, 95
4, 268800, Pitch_bend_c, 3, 9600
4, 268800, Pitch_bend_c, 3, 8192
4, 268800, Note_off_c, 3, 68, 95
4, 268800, Pitch_bend_c, 3, 8832
4, 268800, Note_on_c, 3, 64, 95
4, 268880, Pitch_bend_c, 3, 8832
4, 268896, Pitch_bend_c, 3, 8704
4, 268912, Pitch_bend_c, 3, 8576
4, 268928, Pitch_bend_c, 3, 8448
4, 268944, Pitch_bend_c, 3, 8320
4, 268960, Pitch_bend_c, 3, 8192
4, 268960, Pitch_bend_c, 3, 8192
4, 269120, Pitch_bend_c, 3, 8192
4, 269120, Pitch_bend_c, 3, 8192
4, 269120, Note_off_c, 3, 64, 95
4, 269120, Note_on_c, 2, 63, 95
4, 269280, Note_off_c, 2, 63, 95
4, 269280, Note_on_c, 2, 61, 95
4, 269520, Note_off_c, 2, 61, 95
4, 269520, Note_on_c, 2, 63, 70
4, 269640, Note_off_c, 2, 63, 70
4, 269640, Note_on_c, 2, 61, 70
4, 269760, Note_off_c, 2, 61, 70
4, 269760, Note_on_c, 2, 58, 95
4, 269920, Note_off_c, 2, 58, 95
4, 269920, Note_on_c, 2, 61, 95
4, 270000, Note_off_c, 2, 61, 95
4, 270000, Pitch_bend_c, 3, 8192
4, 270000, Note_on_c, 3, 63, 70
4, 270007, Pitch_bend_c, 3, 8320
4, 270014, Pitch_bend_c, 3, 8448
4, 270021, Pitch_bend_c, 3, 8576
4, 270028, Pitch_bend_c, 3, 8704
4, 270035, Pitch_bend_c, 3, 8832
4, 270042, Pitch_bend_c, 3, 8960
4, 270049, Pitch_bend_c, 3, 9088
4, 270056, Pitch_bend_c, 3, 9216
4, 270063, Pitch_bend_c, 3, 9344
4, 270070, Pitch_bend_c, 3, 9472
4, 270077, Pitch_bend_c, 3, 9600
4, 270080, Pitch_bend_c, 3, 9600
4, 270240, Pitch_bend_c, 3, 9600
4, 270240, Pitch_bend_c, 3, 8192
4, 270240, Note_off_c, 3, 63, 70
4, 270240, Note_on_c, 2, 68, 95
4, 270480, Note_off_c, 2, 68, 95
4, 270480, Pitch_bend_c, 3, 8192
4, 270480, Note_on_c, 3, 63, 111
4, 270501, Pitch_bend_c, 3, 8320
4, 270522, Pitch_bend_c, 3, 8448
4, 270543, Pitch_bend_c, 3, 8576
4, 270564, Pitch_bend_c, 3, 8704
4, 270585, Pitch_bend_c, 3, 8832
4, 270606, Pitch_bend_c, 3, 8960
4, 270627, Pitch_bend_c, 3, 9088
4, 270648, Pitch_bend_c, 3, 9216
4, 270669, Pitch_bend_c, 3, 9344
4, 270690, Pitch_bend_c, 3, 9472
4, 270711, Pitch_bend_c, 3, 9600
4, 270720, Pitch_bend_c, 3, 9600
4, 271200, Pitch_bend_c, 3, 9600
4, 271200, Pitch_bend_c, 3, 8192
4, 271200, Note_off_c, 3, 63, 111
4, 271200, Note_on_c, 3, 61, 111
4, 271360, Pitch_bend_c, 3, 8192
4, 271520, Pitch_bend_c, 3, 8320
4, 271680, Pitch_bend_c, 3, 8192
4, 271840, Pitch_bend_c, 3, 8320
4, 271920, Pitch_bend_c, 3, 8192
4, 271920, Pitch_bend_c, 3, 8320
4, 271920, Pitch_bend_c, 3, 8192
4, 271920, Note_off_c, 3, 61, 111
4, 276000, Pitch_bend_c, 3, 8192
4, 276000, Note_on_c, 3, 63, 95
4, 276010, Pitch_bend_c, 3, 8320
4, 276020, Pitch_bend_c, 3, 8448
4, 276030, Pitch_bend_c, 3, 8576
4, 276040, Pitch_bend_c, 3, 8704
4, 276050, Pitch_bend_c, 3, 8832
4, 276060, Pitch_bend_c, 3, 8960
4, 276070, Pitch_bend_c, 3, 9088
4, 276080, Pitch_bend_c, 3, 9216
4, 276090, Pitch_bend_c, 3, 9344
4, 276100, Pitch_bend_c, 3, 9472
4, 276110, Pitch_bend_c, 3, 9600
4, 276120, Pitch_bend_c, 3, 9600
4, 276240, Pitch_bend_c, 3, 9600
4, 276240, Pitch_bend_c, 3, 8192
4, 276240, Note_off_c, 3, 63, 95
4, 276240, Note_on_c, 2, 65, 95
4, 276480, Note_off_c, 2, 65, 95
4, 276480, Note_on_c, 2, 70, 111
4, 276720, Note_off_c, 2, 70, 111
4, 276720, Note_on_c, 2, 68, 95
4, 276960, Note_off_c, 2, 68, 95
4, 276960, Note_on_c, 2, 61, 95
4, 277200, Note_off_c, 2, 61, 95
4, 277200, Note_on_c, 3, 61, 111
4, 277360, Pitch_bend_c, 3, 8192
4, 277520, Pitch_bend_c, 3, 8320
4, 277680, Pitch_bend_c, 3, 8192
4, 277840, Pitch_bend_c, 3, 8320
4, 277920, Pitch_bend_c, 3, 8192
4, 277920, Pitch_bend_c, 3, 8320
4, 277920, Pitch_bend_c, 3, 8192
4, 277920, Note_off_c, 3, 61, 111
4, 279680, Note_on_c, 2, 61, 95
4, 279840, Note_off_c, 2, 61, 95
4, 279840, Note_on_c, 2, 62, 111
4, 280000, Note_off_c, 2, 62, 111
4, 280000, Note_on_c, 2, 65, 95
4, 280320, Note_off_c, 2, 65, 95
4, 280320, Pitch_bend_c, 3, 8192
4, 280320, Note_on_c, 3, 72, 95
4, 280334, Pitch_bend_c, 3, 8320
4, 280348, Pitch_bend_c, 3, 8448
4, 280362, Pitch_bend_c, 3, 8576
4, 280376, Pitch_bend_c, 3, 8704
4, 280390, Pitch_bend_c, 3, 8832
4, 280404, Pitch_bend_c, 3, 8960
4, 280418, Pitch_bend_c, 3, 9088
4, 280432, Pitch_bend_c, 3, 9216
4, 280446, Pitch_bend_c, 3, 9344
4, 280460, Pitch_bend_c, 3, 9472
4, 280474, Pitch_bend_c, 3, 9600
4, 280480, Pitch_bend_c, 3, 9600
4, 280640, Pitch_bend_c, 3, 9600
4, 280640, Pitch_bend_c, 3, 8192
4, 280640, Note_off_c, 3, 72, 95
4, 280640, Note_on_c, 2, 72, 95
4, 280800, Note_off_c, 2, 72, 95
4, 280800, Note_on_c, 3, 61, 111
4, 280960, Pitch_bend_c, 3, 8192
4, 281120, Pitch_bend_c, 3, 8320
4, 281280, Pitch_bend_c, 3, 8192
4, 281440, Pitch_bend_c, 3, 8320
4, 281600, Pitch_bend_c, 3, 8192
4, 281760, Pitch_bend_c, 3, 8320
4, 281760, Pitch_bend_c, 3, 8192
4, 281760, Note_off_c, 3, 61, 111
4, 281760, Note_on_c, 2, 67, 47
4, 281760, Note_on_c, 2, 63, 47
4, 282000, Note_off_c, 2, 67, 47
4, 282000, Note_off_c, 2, 63, 47
4, 282000, Note_on_c, 2, 65, 47
4, 282000, Note_on_c, 2, 61, 47
4, 282240, Note_off_c, 2, 65, 47
4, 282240, Note_off_c, 2, 61, 47
4, 282240, Pitch_bend_c, 3, 8192
4, 282240, Note_on_c, 3, 63, 111
4, 282261, Pitch_bend_c, 3, 8320
4, 282282, Pitch_bend_c, 3, 8448
4, 282303, Pitch_bend_c, 3, 8576
4, 282324, Pitch_bend_c, 3, 8704
4, 282345, Pitch_bend_c, 3, 8832
4, 282366, Pitch_bend_c, 3, 8960
4, 282387, Pitch_bend_c, 3, 9088
4, 282408, Pitch_bend_c, 3, 9216
4, 282429, Pitch_bend_c, 3, 9344
4, 282450, Pitch_bend_c, 3, 9472
4, 282471, Pitch_bend_c, 3, 9600
4, 282480, Pitch_bend_c, 3, 9600
4, 282720, Pitch_bend_c, 3, 9600
4, 282720, Pitch_bend_c, 3, 8192
4, 282720, Note_off_c, 3, 63, 111
4, 282720, Note_on_c, 2, 65, 95
4, 282880, Note_off_c, 2, 65, 95
4, 282880, Note_on_c, 2, 70, 95
4, 283040, Note_off_c, 2, 70, 95
4, 283040, Note_on_c, 2, 68, 95
4, 283200, Note_off_c, 2, 68, 95
4, 283200, Pitch_bend_c, 3, 8192
4, 283200, Note_on_c, 3, 65, 95
4, 283224, Pitch_bend_c, 3, 8320
4, 283248, Pitch_bend_c, 3, 8448
4, 283272, Pitch_bend_c, 3, 8576
4, 283296, Pitch_bend_c, 3, 8704
4, 283320, Pitch_bend_c, 3, 8832
4, 283320, Pitch_bend_c, 3, 8832
4, 283360, Pitch_bend_c, 3, 8960
4, 283400, Pitch_bend_c, 3, 9088
4, 283440, Pitch_bend_c, 3, 9216
4, 283480, Pitch_bend_c, 3, 9344
4, 283520, Pitch_bend_c, 3, 9472
4, 283560, Pitch_bend_c, 3, 9600
4, 283560, Pitch_bend_c, 3, 9600
4, 283680, Pitch_bend_c, 3, 9600
4, 284640, Pitch_bend_c, 3, 9600
4, 284640, Pitch_bend_c, 3, 8192
4, 284640, Note_off_c, 3, 65, 95
4, 284640, Pitch_bend_c, 3, 8192
4, 284640, Note_on_c, 3, 65, 95
4, 284688, Pitch_bend_c, 3, 8320
4, 284736, Pitch_bend_c, 3, 8448
4, 284784, Pitch_bend_c, 3, 8576
4, 284832, Pitch_bend_c, 3, 8704
4, 284880, Pitch_bend_c, 3, 8832
4, 284880, Pitch_bend_c, 3, 8832
4, 285120, Pitch_bend_c, 3, 8832
4, 285120, Pitch_bend_c, 3, 8192
4, 285120, Note_off_c, 3, 65, 95
4, 285120, Note_on_c, 2, 72, 95
4, 285280, Note_off_c, 2, 72, 95
4, 285280, Note_on_c, 2, 71, 70
4, 285440, Note_off_c, 2, 71, 70
4, 285440, Note_on_c, 2, 70, 70
4, 285600, Note_off_c, 2, 70, 70
4, 285600, Note_on_c, 2, 68, 95
4, 285760, Note_off_c, 2, 68, 95
4, 285760, Note_on_c, 2, 67, 70
4, 285920, Note_off_c, 2, 67, 70
4, 285920, Note_on_c, 2, 65, 70
4, 286080, Note_off_c, 2, 65, 70
4, 286080, Pitch_bend_c, 3, 8192
4, 286080, Note_on_c, 3, 63, 95
4, 286109, Pitch_bend_c, 3, 8320
4, 286138, Pitch_bend_c, 3, 8448
4, 286167, Pitch_bend_c, 3, 8576
4, 286196, Pitch_bend_c, 3, 8704
4, 286225, Pitch_bend_c, 3, 8832
4, 286254, Pitch_bend_c, 3, 8960
4, 286283, Pitch_bend_c, 3, 9088
4, 286312, Pitch_bend_c, 3, 9216
4, 286341, Pitch_bend_c, 3, 9344
4, 286370, Pitch_bend_c, 3, 9472
4, 286399, Pitch_bend_c, 3, 9600
4, 286400, Pitch_bend_c, 3, 9600
4, 286560, Pitch_bend_c, 3, 9600
4, 286560, Pitch_bend_c, 3, 8192
4, 286560, Note_off_c, 3, 63, 95
4, 286560, Note_on_c, 2, 68, 95
4, 286800, Note_off_c, 2, 68, 95
4, 286800, Pitch_bend_c, 3, 8192
4, 286800, Note_on_c, 3, 63, 95
4, 286810, Pitch_bend_c, 3, 8320
4, 286820, Pitch_bend_c, 3, 8448
4, 286830, Pitch_bend_c, 3, 8576
4, 286840, Pitch_bend_c, 3, 8704
4, 286850, Pitch_bend_c, 3, 8832
4, 286860, Pitch_bend_c, 3, 8960
4, 286870, Pitch_bend_c, 3, 9088
4, 286880, Pitch_bend_c, 3, 9216
4, 286890, Pitch_bend_c, 3, 9344
4, 286900, Pitch_bend_c, 3, 9472
4, 286910, Pitch_bend_c, 3, 9600
4, 286920, Pitch_bend_c, 3, 9600
4, 287040, Pitch_bend_c, 3, 9600
4, 287040, Pitch_bend_c, 3, 8192
4, 287040, Note_off_c, 3, 63, 95
4, 287040, Note_on_c, 2, 63, 95
4, 287200, Note_off_c, 2, 63, 95
4, 287200, Note_on_c, 2, 61, 70
4, 287360, Note_off_c, 2, 61, 70
4, 287360, Note_on_c, 2, 58, 95
4, 287520, Note_off_c, 2, 58, 95
4, 287520, Note_on_c, 2, 61, 95
4, 287760, Note_off_c, 2, 61, 95
4, 287760, Note_on_c, 2, 63, 95
4, 288000, Note_off_c, 2, 63, 95
4, 288000, Pitch_bend_c, 3, 8192
4, 288000, Note_on_c, 3, 65, 95
4, 288043, Pitch_bend_c, 3, 8320
4, 288086, Pitch_bend_c, 3, 8448
4, 288129, Pitch_bend_c, 3, 8576
4, 288172, Pitch_bend_c, 3, 8704
4, 288215, Pitch_bend_c, 3, 8832
4, 288258, Pitch_bend_c, 3, 8960
4, 288301, Pitch_bend_c, 3, 9088
4, 288344, Pitch_bend_c, 3, 9216
4, 288387, Pitch_bend_c, 3, 9344
4, 288430, Pitch_bend_c, 3, 9472
4, 288473, Pitch_bend_c, 3, 9600
4, 288480, Pitch_bend_c, 3, 9600
4, 288960, Pitch_bend_c, 3, 9600
4, 288960, Pitch_bend_c, 3, 8192
4, 288960, Note_off_c, 3, 65, 95
4, 288960, Note_on_c, 2, 65, 95
4, 289200, Note_off_c, 2, 65, 95
4, 289200, Note_on_c, 2, 63, 95
4, 289440, Note_off_c, 2, 63, 95
4, 289440, Pitch_bend_c, 3, 9600
4, 289440, Note_on_c, 3, 63, 95
4, 289600, Pitch_bend_c, 3, 9600
4, 289607, Pitch_bend_c, 3, 9472
4, 289614, Pitch_bend_c, 3, 9344
4, 289621, Pitch_bend_c, 3, 9216
4, 289628, Pitch_bend_c, 3, 9088
4, 289635, Pitch_bend_c, 3, 8960
4, 289642, Pitch_bend_c, 3, 8832
4, 289649, Pitch_bend_c, 3, 8704
4, 289656, Pitch_bend_c, 3, 8576
4, 289663, Pitch_bend_c, 3, 8448
4, 289670, Pitch_bend_c, 3, 8320
4, 289677, Pitch_bend_c, 3, 8192
4, 289680, Pitch_bend_c, 3, 8192
4, 290400, Pitch_bend_c, 3, 8192
4, 290400, Pitch_bend_c, 3, 8192
4, 290400, Note_off_c, 3, 63, 95
4, 290400, Pitch_bend_c, 3, 8192
4, 290400, Note_on_c, 3, 61, 95
4, 290460, Pitch_bend_c, 3, 8320
4, 290520, Pitch_bend_c, 3, 8448
4, 290520, Pitch_bend_c, 3, 8448
4, 290640, Pitch_bend_c, 3, 8448
4, 290640, Pitch_bend_c, 3, 8192
4, 290640, Note_off_c, 3, 61, 95
4, 290640, Note_on_c, 2, 63, 95
4, 290880, Note_off_c, 2, 63, 95
4, 290880, Pitch_bend_c, 3, 8192
4, 290880, Note_on_c, 3, 61, 95
4, 290910, Pitch_bend_c, 3, 8320
4, 290940, Pitch_bend_c, 3, 8448
4, 290970, Pitch_bend_c, 3, 8576
4, 291000, Pitch_bend_c, 3, 8704
4, 291030, Pitch_bend_c, 3, 8832
4, 291060, Pitch_bend_c, 3, 8960
4, 291090, Pitch_bend_c, 3, 9088
4, 291120, Pitch_bend_c, 3, 9216
4, 291150, Pitch_bend_c, 3, 9344
4, 291180, Pitch_bend_c, 3, 9472
4, 291210, Pitch_bend_c, 3, 9600
4, 291240, Pitch_bend_c, 3, 9728
4, 291270, Pitch_bend_c, 3, 9856
4, 291300, Pitch_bend_c, 3, 9984
4, 291330, Pitch_bend_c, 3, 10112
4, 291360, Pitch_bend_c, 3, 10240
4, 291360, Pitch_bend_c, 3, 10240
4, 291600, Pitch_bend_c, 3, 10240
4, 291600, Pitch_bend_c, 3, 8192
4, 291600, Note_off_c, 3, 61, 95
4, 291840, Note_on_c, 2, 54, 47
4, 291882, Note_off_c, 2, 54, 47
4, 292000, Note_on_c, 2, 54, 95
4, 292042, Note_off_c, 2, 54, 95
4, 293280, Pitch_bend_c, 3, 10240
4, 293280, Note_on_c, 3, 61, 95
4, 293380, Pitch_bend_c, 3, 10240
4, 293392, Pitch_bend_c, 3, 10112
4, 293404, Pitch_bend_c, 3, 9984
4, 293416, Pitch_bend_c, 3, 9856
4, 293428, Pitch_bend_c, 3, 9728
4, 293440, Pitch_bend_c, 3, 9600
4, 293452, Pitch_bend_c, 3, 9472
4, 293464, Pitch_bend_c, 3, 9344
4, 293476, Pitch_bend_c, 3, 9216
4, 293488, Pitch_bend_c, 3, 9088
4, 293500, Pitch_bend_c, 3, 8960
4, 293512, Pitch_bend_c, 3, 8832
4, 293524, Pitch_bend_c, 3, 8704
4, 293536, Pitch_bend_c, 3, 8576
4, 293548, Pitch_bend_c, 3, 8448
4, 293560, Pitch_bend_c, 3, 8320
4, 293572, Pitch_bend_c, 3, 8192
4, 293580, Pitch_bend_c, 3, 8192
4, 293589, Pitch_bend_c, 3, 8320
4, 293598, Pitch_bend_c, 3, 8448
4, 293607, Pitch_bend_c, 3, 8576
4, 293616, Pitch_bend_c, 3, 8704
4, 293625, Pitch_bend_c, 3, 8832
4, 293634, Pitch_bend_c, 3, 8960
4, 293643, Pitch_bend_c, 3, 9088
4, 293652, Pitch_bend_c, 3, 9216
4, 293661, Pitch_bend_c, 3, 9344
4, 293670, Pitch_bend_c, 3, 9472
4, 293679, Pitch_bend_c, 3, 9600
4, 293680, Pitch_bend_c, 3, 9600
4, 294480, Pitch_bend_c, 3, 9600
4, 294480, Pitch_bend_c, 3, 8192
4, 294480, Note_off_c, 3, 61, 95
4, 294480, Note_on_c, 2, 61, 95
4, 294720, Note_off_c, 2, 61, 95
4, 294720, Note_on_c, 2, 58, 95
4, 294960, Note_off_c, 2, 58, 95
4, 294960, Pitch_bend_c, 3, 8192
4, 294960, Note_on_c, 3, 56, 95
4, 294984, Pitch_bend_c, 3, 8320
4, 295008, Pitch_bend_c, 3, 8448
4, 295032, Pitch_bend_c, 3, 8576
4, 295056, Pitch_bend_c, 3, 8704
4, 295080, Pitch_bend_c, 3, 8832
4, 295080, Pitch_bend_c, 3, 8832
4, 295200, Pitch_bend_c, 3, 8832
4, 295200, Pitch_bend_c, 3, 8192
4, 295200, Note_off_c, 3, 56, 95
4, 295200, Note_on_c, 2, 53, 95
4, 295360, Note_off_c, 2, 53, 95
4, 295360, Note_on_c, 2, 52, 95
4, 295520, Note_off_c, 2, 52, 95
4, 295520, Note_on_c, 2, 51, 95
4, 295620, Note_on_c, 3, 39, 95
4, 295662, Note_off_c, 3, 39, 95
4, 295680, Note_off_c, 2, 51, 95
4, 295680, Note_on_c, 2, 51, 95
4, 295680, Note_on_c, 3, 39, 95
4, 295840, Note_off_c, 2, 51, 95
4, 295840, Note_off_c, 3, 39, 95
4, 295840, Note_on_c, 2, 46, 95
4, 296160, Note_off_c, 2, 46, 95
4, 296160, Note_on_c, 2, 46, 95
4, 296175, Note_on_c, 2, 53, 95
4, 296190, Note_on_c, 2, 58, 95
4, 296205, Note_on_c, 2, 62, 95
4, 296220, Note_on_c, 2, 65, 95
4, 296235, Note_on_c, 2, 70, 95
4, 296640, Note_off_c, 2, 70, 95
4, 296640, Note_off_c, 2, 65, 95
4, 296640, Note_off_c, 2, 62, 95
4, 296640, Note_off_c, 2, 58, 95
4, 296640, Note_off_c, 2, 53, 95
4, 296640, Note_off_c, 2, 46, 95
4, 296640, Note_on_c, 2, 68, 95
4, 296880, Note_off_c, 2, 68, 95
4, 296880, Note_on_c, 2, 65, 95
4, 297120, Note_off_c, 2, 65, 95
4, 297120, Pitch_bend_c, 3, 8192
4, 297120, Note_on_c, 3, 68, 95
4, 297130, Pitch_bend_c, 3, 8320
4, 297140, Pitch_bend_c, 3, 8448
4, 297150, Pitch_bend_c, 3, 8576
4, 297160, Pitch_bend_c, 3, 8704
4, 297170, Pitch_bend_c, 3, 8832
4, 297180, Pitch_bend_c, 3, 8960
4, 297190, Pitch_bend_c, 3, 9088
4, 297200, Pitch_bend_c, 3, 9216
4, 297210, Pitch_bend_c, 3, 9344
4, 297220, Pitch_bend_c, 3, 9472
4, 297230, Pitch_bend_c, 3, 9600
4, 297240, Pitch_bend_c, 3, 9600
4, 297360, Pitch_bend_c, 3, 9600
4, 297360, Pitch_bend_c, 3, 8192
4, 297360, Note_off_c, 3, 68, 95
4, 297360, Pitch_bend_c, 3, 8832
4, 297360, Note_on_c, 3, 64, 95
4, 297450, Pitch_bend_c, 3, 8832
4, 297468, Pitch_bend_c, 3, 8704
4, 297486, Pitch_bend_c, 3, 8576
4, 297504, Pitch_bend_c, 3, 8448
4, 297522, Pitch_bend_c, 3, 8320
4, 297540, Pitch_bend_c, 3, 8192
4, 297540, Pitch_bend_c, 3, 8192
4, 297720, Pitch_bend_c, 3, 8192
4, 297720, Pitch_bend_c, 3, 8192
4, 297720, Note_off_c, 3, 64, 95
4, 297720, Note_on_c, 2, 63, 95
4, 297900, Note_off_c, 2, 63, 95
4, 297900, Note_on_c, 2, 61, 95
4, 298080, Note_off_c, 2, 61, 95
4, 298080, Note_on_c, 2, 68, 95
4, 298320, Note_off_c, 2, 68, 95
4, 298320, Pitch_bend_c, 3, 8192
4, 298320, Note_on_c, 3, 61, 95
4, 298335, Pitch_bend_c, 3, 8320
4, 298350, Pitch_bend_c, 3, 8448
4, 298365, Pitch_bend_c, 3, 8576
4, 298380, Pitch_bend_c, 3, 8704
4, 298395, Pitch_bend_c, 3, 8832
4, 298410, Pitch_bend_c, 3, 8960
4, 298425, Pitch_bend_c, 3, 9088
4, 298440, Pitch_bend_c, 3, 9216
4, 298455, Pitch_bend_c, 3, 9344
4, 298470, Pitch_bend_c, 3, 9472
4, 298485, Pitch_bend_c, 3, 9600
4, 298500, Pitch_bend_c, 3, 9728
4, 298515, Pitch_bend_c, 3, 9856
4, 298530, Pitch_bend_c, 3, 9984
4, 298545, Pitch_bend_c, 3, 10112
4, 298560, Pitch_bend_c, 3, 10240
4, 298560, Pitch_bend_c, 3, 10240
4, 298800, Pitch_bend_c, 3, 10240
4, 298800, Pitch_bend_c, 3, 8192
4, 298800, Note_off_c, 3, 61, 95
4, 299200, Pitch_bend_c, 3, 8192
4, 299200, Note_on_c, 3, 63, 95
4, 299207, Pitch_bend_c, 3, 8320
4, 299214, Pitch_bend_c, 3, 8448
4, 299221, Pitch_bend_c, 3, 8576
4, 299228, Pitch_bend_c, 3, 8704
4, 299235, Pitch_bend_c, 3, 8832
4, 299242, Pitch_bend_c, 3, 8960
4, 299249, Pitch_bend_c, 3, 9088
4, 299256, Pitch_bend_c, 3, 9216
4, 299263, Pitch_bend_c, 3, 9344
4, 299270, Pitch_bend_c, 3, 9472
4, 299277, Pitch_bend_c, 3, 9600
4, 299280, Pitch_bend_c, 3, 9600
4, 299360, Pitch_bend_c, 3, 9600
4, 299360, Pitch_bend_c, 3, 8192
4, 299360, Note_off_c, 3, 63, 95
4, 299360, Note_on_c, 2, 65, 95
4, 299520, Note_off_c, 2, 65, 95
4, 299520, Note_on_c, 2, 70, 95
4, 299680, Note_off_c, 2, 70, 95
4, 299680, Pitch_bend_c, 3, 8192
4, 299680, Note_on_c, 3, 73, 111
4, 299712, Pitch_bend_c, 3, 8320
4, 299744, Pitch_bend_c, 3, 8448
4, 299776, Pitch_bend_c, 3, 8576
4, 299808, Pitch_bend_c, 3, 8704
4, 299840, Pitch_bend_c, 3, 8832
4, 299840, Pitch_bend_c, 3, 8832
4, 300000, Pitch_bend_c, 3, 8832
4, 300000, Pitch_bend_c, 3, 8192
4, 300000, Note_off_c, 3, 73, 111
4, 300000, Pitch_bend_c, 3, 9600
4, 300000, Note_on_c, 3, 68, 95
4, 300000, Pitch_bend_c, 3, 8832
4, 300000, Note_on_c, 3, 64, 95
4, 300120, Pitch_bend_c, 3, 9600
4, 300120, Pitch_bend_c, 3, 8832
4, 300130, Pitch_bend_c, 3, 9472
4, 300140, Pitch_bend_c, 3, 9344
4, 300144, Pitch_bend_c, 3, 8704
4, 300150, Pitch_bend_c, 3, 9216
4, 300160, Pitch_bend_c, 3, 9088
4, 300168, Pitch_bend_c, 3, 8576
4, 300170, Pitch_bend_c, 3, 8960
4, 300180, Pitch_bend_c, 3, 8832
4, 300190, Pitch_bend_c, 3, 8704
4, 300192, Pitch_bend_c, 3, 8448
4, 300200, Pitch_bend_c, 3, 8576
4, 300210, Pitch_bend_c, 3, 8448
4, 300216, Pitch_bend_c, 3, 8320
4, 300220, Pitch_bend_c, 3, 8320
4, 300230, Pitch_bend_c, 3, 8192
4, 300240, Pitch_bend_c, 3, 8192
4, 300240, Pitch_bend_c, 3, 8192
4, 300240, Pitch_bend_c, 3, 8192
4, 300480, Pitch_bend_c, 3, 8192
4, 300480, Pitch_bend_c, 3, 8192
4, 300480, Note_off_c, 3, 68, 95
4, 300480, Pitch_bend_c, 3, 8192
4, 300480, Pitch_bend_c, 3, 8192
4, 300480, Note_off_c, 3, 64, 95
4, 301440, Pitch_bend_c, 3, 8192
4, 301440, Note_on_c, 3, 68, 95
4, 301472, Pitch_bend_c, 3, 8320
4, 301504, Pitch_bend_c, 3, 8448
4, 301536, Pitch_bend_c, 3, 8576
4, 301568, Pitch_bend_c, 3, 8704
4, 301600, Pitch_bend_c, 3, 8832
4, 301632, Pitch_bend_c, 3, 8960
4, 301664, Pitch_bend_c, 3, 9088
4, 301696, Pitch_bend_c, 3, 9216
4, 301728, Pitch_bend_c, 3, 9344
4, 301760, Pitch_bend_c, 3, 9472
4, 301792, Pitch_bend_c, 3, 9600
4, 301800, Pitch_bend_c, 3, 9600
4, 302160, Pitch_bend_c, 3, 9600
4, 302160, Pitch_bend_c, 3, 8192
4, 302160, Note_off_c, 3, 68, 95
4, 302160, Pitch_bend_c, 3, 8448
4, 302160, Note_on_c, 3, 68, 95
4, 302400, Pitch_bend_c, 3, 8448
4, 302400, Pitch_bend_c, 3, 8192
4, 302400, Note_off_c, 3, 68, 95
4, 302400, Pitch_bend_c, 3, 9600
4, 302400, Note_on_c, 3, 68, 95
4, 302640, Pitch_bend_c, 3, 9600
4, 302640, Pitch_bend_c, 3, 8192
4, 302640, Note_off_c, 3, 68, 95
4, 302640, Pitch_bend_c, 3, 8448
4, 302640, Note_on_c, 3, 68, 95
4, 302880, Pitch_bend_c, 3, 8448
4, 302880, Pitch_bend_c, 3, 8192
4, 302880, Note_off_c, 3, 68, 95
4, 302880, Pitch_bend_c, 3, 9600
4, 302880, Note_on_c, 3, 68, 95
4, 303360, Pitch_bend_c, 3, 9600
4, 303360, Pitch_bend_c, 3, 8192
4, 303360, Note_off_c, 3, 68, 95
4, 303680, Pitch_bend_c, 3, 8192
4, 303680, Note_on_c, 3, 68, 95
4, 303684, Pitch_bend_c, 3, 8320
4, 303688, Pitch_bend_c, 3, 8448
4, 303692, Pitch_bend_c, 3, 8576
4, 303696, Pitch_bend_c, 3, 8704
4, 303700, Pitch_bend_c, 3, 8832
4, 303704, Pitch_bend_c, 3, 8960
4, 303708, Pitch_bend_c, 3, 9088
4, 303712, Pitch_bend_c, 3, 9216
4, 303716, Pitch_bend_c, 3, 9344
4, 303720, Pitch_bend_c, 3, 9472
4, 303724, Pitch_bend_c, 3, 9600
4, 303728, Pitch_bend_c, 3, 9728
4, 303732, Pitch_bend_c, 3, 9856
4, 303736, Pitch_bend_c, 3, 9984
4, 303740, Pitch_bend_c, 3, 10112
4, 303744, Pitch_bend_c, 3, 10240
4, 303748, Pitch_bend_c, 3, 10368
4, 303752, Pitch_bend_c, 3, 10496
4, 303756, Pitch_bend_c, 3, 10624
4, 303760, Pitch_bend_c, 3, 10752
4, 303764, Pitch_bend_c, 3, 10880
4, 303768, Pitch_bend_c, 3, 11008
4, 303786, Pitch_bend_c, 3, 11008
4, 303946, Pitch_bend_c, 3, 11008
4, 303953, Pitch_bend_c, 3, 10880
4, 303960, Pitch_bend_c, 3, 10752
4, 303967, Pitch_bend_c, 3, 10624
4, 303974, Pitch_bend_c, 3, 10496
4, 303981, Pitch_bend_c, 3, 10368
4, 303988, Pitch_bend_c, 3, 10240
4, 303995, Pitch_bend_c, 3, 10112
4, 304002, Pitch_bend_c, 3, 9984
4, 304009, Pitch_bend_c, 3, 9856
4, 304016, Pitch_bend_c, 3, 9728
4, 304023, Pitch_bend_c, 3, 9600
4, 304030, Pitch_bend_c, 3, 9472
4, 304037, Pitch_bend_c, 3, 9344
4, 304044, Pitch_bend_c, 3, 9216
4, 304051, Pitch_bend_c, 3, 9088
4, 304058, Pitch_bend_c, 3, 8960
4, 304065, Pitch_bend_c, 3, 8832
4, 304072, Pitch_bend_c, 3, 8704
4, 304079, Pitch_bend_c, 3, 8576
4, 304086, Pitch_bend_c, 3, 8448
4, 304093, Pitch_bend_c, 3, 8320
4, 304100, Pitch_bend_c, 3, 8192
4, 304106, Pitch_bend_c, 3, 8192
4, 304320, Pitch_bend_c, 3, 8192
4, 304320, Pitch_bend_c, 3, 8192
4, 304320, Note_off_c, 3, 68, 95
4, 304320, Note_on_c, 2, 65, 95
4, 304560, Note_off_c, 2, 65, 95
4, 304560, Pitch_bend_c, 3, 8192
4, 304560, Note_on_c, 3, 68, 95
4, 304570, Pitch_bend_c, 3, 8320
4, 304580, Pitch_bend_c, 3, 8448
4, 304590, Pitch_bend_c, 3, 8576
4, 304600, Pitch_bend_c, 3, 8704
4, 304610, Pitch_bend_c, 3, 8832
4, 304620, Pitch_bend_c, 3, 8960
4, 304630, Pitch_bend_c, 3, 9088
4, 304640, Pitch_bend_c, 3, 9216
4, 304650, Pitch_bend_c, 3, 9344
4, 304660, Pitch_bend_c, 3, 9472
4, 304670, Pitch_bend_c, 3, 9600
4, 304680, Pitch_bend_c, 3, 9600
4, 304800, Pitch_bend_c, 3, 9600
4, 304800, Pitch_bend_c, 3, 8192
4, 304800, Note_off_c, 3, 68, 95
4, 304800, Pitch_bend_c, 3, 9600
4, 304800, Note_on_c, 3, 68, 95
4, 305760, Pitch_bend_c, 3, 9600
4, 305760, Pitch_bend_c, 3, 8192
4, 305760, Note_off_c, 3, 68, 95
4, 306720, Pitch_bend_c, 3, 8192
4, 306720, Note_on_c, 3, 68, 95
4, 306752, Pitch_bend_c, 3, 8320
4, 306784, Pitch_bend_c, 3, 8448
4, 306816, Pitch_bend_c, 3, 8576
4, 306848, Pitch_bend_c, 3, 8704
4, 306880, Pitch_bend_c, 3, 8832
4, 306912, Pitch_bend_c, 3, 8960
4, 306944, Pitch_bend_c, 3, 9088
4, 306976, Pitch_bend_c, 3, 9216
4, 307008, Pitch_bend_c, 3, 9344
4, 307040, Pitch_bend_c, 3, 9472
4, 307072, Pitch_bend_c, 3, 9600
4, 307080, Pitch_bend_c, 3, 9600
4, 307440, Pitch_bend_c, 3, 9600
4, 307440, Pitch_bend_c, 3, 8192
4, 307440, Note_off_c, 3, 68, 95
4, 307440, Note_on_c, 2, 65, 95
4, 307680, Note_off_c, 2, 65, 95
4, 307680, Note_on_c, 2, 68, 95
4, 307920, Note_off_c, 2, 68, 95
4, 307920, Note_on_c, 2, 65, 95
4, 308040, Note_off_c, 2, 65, 95
4, 308040, Note_on_c, 2, 67, 70
4, 308160, Note_off_c, 2, 67, 70
4, 308160, Note_on_c, 2, 65, 70
4, 308320, Note_off_c, 2, 65, 70
4, 308320, Note_on_c, 2, 63, 95
4, 308480, Note_off_c, 2, 63, 95
4, 308480, Note_on_c, 2, 65, 95
4, 308640, Note_off_c, 2, 65, 95
4, 308640, Note_on_c, 2, 63, 95
4, 308800, Note_off_c, 2, 63, 95
4, 308800, Note_on_c, 2, 65, 47
4, 308800, Note_on_c, 2, 61, 22
4, 308960, Note_off_c, 2, 65, 47
4, 308960, Note_off_c, 2, 61, 22
4, 308960, Note_on_c, 2, 58, 95
4, 309120, Note_off_c, 2, 58, 95
4, 309120, Note_on_c, 2, 61, 95
4, 309120, Note_on_c, 2, 49, 95
4, 309280, Note_off_c, 2, 61, 95
4, 309280, Note_off_c, 2, 49, 95
4, 309280, Pitch_bend_c, 3, 8192
4, 309280, Note_on_c, 3, 63, 95
4, 309312, Pitch_bend_c, 3, 8320
4, 309344, Pitch_bend_c, 3, 8448
4, 309376, Pitch_bend_c, 3, 8576
4, 309408, Pitch_bend_c, 3, 8704
4, 309440, Pitch_bend_c, 3, 8832
4, 309440, Pitch_bend_c, 3, 8832
4, 309600, Pitch_bend_c, 3, 8832
4, 309600, Pitch_bend_c, 3, 8192
4, 309600, Note_off_c, 3, 63, 95
4, 309600, Note_on_c, 2, 65, 95
4, 309840, Note_off_c, 2, 65, 95
4, 309840, Note_on_c, 2, 68, 95
4, 310080, Note_off_c, 2, 68, 95
4, 310080, Pitch_bend_c, 3, 8192
4, 310080, Note_on_c, 3, 68, 95
4, 310090, Pitch_bend_c, 3, 8320
4, 310100, Pitch_bend_c, 3, 8448
4, 310110, Pitch_bend_c, 3, 8576
4, 310120, Pitch_bend_c, 3, 8704
4, 310130, Pitch_bend_c, 3, 8832
4, 310140, Pitch_bend_c, 3, 8960
4, 310150, Pitch_bend_c, 3, 9088
4, 310160, Pitch_bend_c, 3, 9216
4, 310170, Pitch_bend_c, 3, 9344
4, 310180, Pitch_bend_c, 3, 9472
4, 310190, Pitch_bend_c, 3, 9600
4, 310200, Pitch_bend_c, 3, 9600
4, 310320, Pitch_bend_c, 3, 9600
4, 310320, Pitch_bend_c, 3, 8192
4, 310320, Note_off_c, 3, 68, 95
4, 310320, Note_on_c, 2, 68, 95
4, 310560, Note_off_c, 2, 68, 95
4, 310560, Note_on_c, 2, 65, 95
4, 310800, Note_off_c, 2, 65, 95
4, 310800, Pitch_bend_c, 3, 8192
4, 310800, Note_on_c, 3, 68, 95
4, 310810, Pitch_bend_c, 3, 8320
4, 310820, Pitch_bend_c, 3, 8448
4, 310830, Pitch_bend_c, 3, 8576
4, 310840, Pitch_bend_c, 3, 8704
4, 310850, Pitch_bend_c, 3, 8832
4, 310860, Pitch_bend_c, 3, 8960
4, 310870, Pitch_bend_c, 3, 9088
4, 310880, Pitch_bend_c, 3, 9216
4, 310890, Pitch_bend_c, 3, 9344
4, 310900, Pitch_bend_c, 3, 9472
4, 310910, Pitch_bend_c, 3, 9600
4, 310920, Pitch_bend_c, 3, 9600
4, 311040, Pitch_bend_c, 3, 9600
4, 311040, Pitch_bend_c, 3, 8192
4, 311040, Note_off_c, 3, 68, 95
4, 311040, Note_on_c, 3, 65, 111
4, 311040, Note_on_c, 3, 54, 47
4, 311200, Pitch_bend_c, 3, 8192
4, 311200, Pitch_bend_c, 3, 8192
4, 311360, Pitch_bend_c, 3, 8320
4, 311360, Pitch_bend_c, 3, 8320
4, 311520, Pitch_bend_c, 3, 8192
4, 311520, Pitch_bend_c, 3, 8192
4, 311680, Pitch_bend_c, 3, 8320
4, 311680, Pitch_bend_c, 3, 8320
4, 311840, Pitch_bend_c, 3, 8192
4, 311840, Pitch_bend_c, 3, 8192
4, 312000, Pitch_bend_c, 3, 8320
4, 312000, Pitch_bend_c, 3, 8320
4, 312160, Pitch_bend_c, 3, 8192
4, 312160, Pitch_bend_c, 3, 8192
4, 312320, Pitch_bend_c, 3, 8320
4, 312320, Pitch_bend_c, 3, 8320
4, 312420, Note_on_c, 3, 64, 95
4, 312480, Pitch_bend_c, 3, 8192
4, 312480, Pitch_bend_c, 3, 8320
4, 312480, Pitch_bend_c, 3, 8192
4, 312480, Note_off_c, 3, 65, 111
4, 312480, Pitch_bend_c, 3, 8192
4, 312480, Pitch_bend_c, 3, 8320
4, 312480, Pitch_bend_c, 3, 8192
4, 312480, Note_off_c, 3, 54, 47
4, 312480, Note_on_c, 2, 68, 95
4, 312480, Note_off_c, 3, 64, 95
4, 312480, Note_on_c, 3, 54, 95
4, 312640, Note_off_c, 2, 68, 95
4, 312640, Note_off_c, 3, 54, 95
4, 312640, Note_on_c, 2, 67, 70
4, 312800, Note_off_c, 2, 67, 70
4, 312800, Note_on_c, 2, 65, 70
4, 312960, Note_off_c, 2, 65, 70
4, 312960, Note_on_c, 2, 63, 95
4, 313280, Note_off_c, 2, 63, 95
4, 313280, Note_on_c, 2, 65, 95
4, 313440, Note_off_c, 2, 65, 95
4, 313440, Pitch_bend_c, 3, 8192
4, 313440, Note_on_c, 3, 63, 95
4, 313450, Pitch_bend_c, 3, 8320
4, 313460, Pitch_bend_c, 3, 8448
4, 313470, Pitch_bend_c, 3, 8576
4, 313480, Pitch_bend_c, 3, 8704
4, 313490, Pitch_bend_c, 3, 8832
4, 313500, Pitch_bend_c, 3, 8960
4, 313510, Pitch_bend_c, 3, 9088
4, 313520, Pitch_bend_c, 3, 9216
4, 313530, Pitch_bend_c, 3, 9344
4, 313540, Pitch_bend_c, 3, 9472
4, 313550, Pitch_bend_c, 3, 9600
4, 313560, Pitch_bend_c, 3, 9600
4, 313680, Pitch_bend_c, 3, 9600
4, 313701, Pitch_bend_c, 3, 9472
4, 313722, Pitch_bend_c, 3, 9344
4, 313743, Pitch_bend_c, 3, 9216
4, 313764, Pitch_bend_c, 3, 9088
4, 313785, Pitch_bend_c, 3, 8960
4, 313806, Pitch_bend_c, 3, 8832
4, 313827, Pitch_bend_c, 3, 8704
4, 313848, Pitch_bend_c, 3, 8576
4, 313869, Pitch_bend_c, 3, 8448
4, 313890, Pitch_bend_c, 3, 8320
4, 313911, Pitch_bend_c, 3, 8192
4, 313920, Pitch_bend_c, 3, 8192
4, 313920, Pitch_bend_c, 3, 8192
4, 313920, Note_off_c, 3, 63, 95
4, 313920, Note_on_c, 2, 63, 63
4, 314040, Note_off_c, 2, 63, 63
4, 314040, Note_on_c, 2, 61, 70
4, 314160, Note_off_c, 2, 61, 70
4, 314160, Note_on_c, 2, 58, 95
4, 314400, Note_off_c, 2, 58, 95
4, 315680, Note_on_c, 2, 58, 95
4, 315840, Note_off_c, 2, 58, 95
4, 315840, Note_on_c, 2, 61, 95
4, 316160, Note_off_c, 2, 61, 95
4, 316160, Pitch_bend_c, 3, 8192
4, 316160, Note_on_c, 3, 63, 95
4, 316200, Pitch_bend_c, 3, 8320
4, 316240, Pitch_bend_c, 3, 8448
4, 316280, Pitch_bend_c, 3, 8576
4, 316320, Pitch_bend_c, 3, 8704
4, 316360, Pitch_bend_c, 3, 8832
4, 316360, Pitch_bend_c, 3, 8832
4, 316560, Pitch_bend_c, 3, 8832
4, 316560, Pitch_bend_c, 3, 8192
4, 316560, Note_off_c, 3, 63, 95
4, 316560, Pitch_bend_c, 3, 8192
4, 316560, Note_on_c, 3, 63, 95
4, 316570, Pitch_bend_c, 3, 8320
4, 316580, Pitch_bend_c, 3, 8448
4, 316590, Pitch_bend_c, 3, 8576
4, 316600, Pitch_bend_c, 3, 8704
4, 316610, Pitch_bend_c, 3, 8832
4, 316620, Pitch_bend_c, 3, 8960
4, 316630, Pitch_bend_c, 3, 9088
4, 316640, Pitch_bend_c, 3, 9216
4, 316650, Pitch_bend_c, 3, 9344
4, 316660, Pitch_bend_c, 3, 9472
4, 316670, Pitch_bend_c, 3, 9600
4, 316680, Pitch_bend_c, 3, 9600
4, 316800, Pitch_bend_c, 3, 9600
4, 316800, Pitch_bend_c, 3, 8192
4, 316800, Note_off_c, 3, 63, 95
4, 316800, Pitch_bend_c, 3, 8192
4, 316800, Note_on_c, 3, 63, 95
4, 316821, Pitch_bend_c, 3, 8320
4, 316842, Pitch_bend_c, 3, 8448
4, 316863, Pitch_bend_c, 3, 8576
4, 316884, Pitch_bend_c, 3, 8704
4, 316905, Pitch_bend_c, 3, 8832
4, 316926, Pitch_bend_c, 3, 8960
4, 316947, Pitch_bend_c, 3, 9088
4, 316968, Pitch_bend_c, 3, 9216
4, 316989, Pitch_bend_c, 3, 9344
4, 317010, Pitch_bend_c, 3, 9472
4, 317031, Pitch_bend_c, 3, 9600
4, 317040, Pitch_bend_c, 3, 9600
4, 317280, Pitch_bend_c, 3, 9600
4, 317280, Pitch_bend_c, 3, 8192
4, 317280, Note_off_c, 3, 63, 95
4, 317280, Pitch_bend_c, 3, 8192
4, 317280, Note_on_c, 3, 63, 95
4, 317323, Pitch_bend_c, 3, 8320
4, 317366, Pitch_bend_c, 3, 8448
4, 317409, Pitch_bend_c, 3, 8576
4, 317452, Pitch_bend_c, 3, 8704
4, 317495, Pitch_bend_c, 3, 8832
4, 317538, Pitch_bend_c, 3, 8960
4, 317581, Pitch_bend_c, 3, 9088
4, 317624, Pitch_bend_c, 3, 9216
4, 317667, Pitch_bend_c, 3, 9344
4, 317710, Pitch_bend_c, 3, 9472
4, 317753, Pitch_bend_c, 3, 9600
4, 317760, Pitch_bend_c, 3, 9600
4, 318720, Pitch_bend_c, 3, 9600
4, 318720, Pitch_bend_c, 3, 8192
4, 318720, Note_off_c, 3, 63, 95
4, 318720, Pitch_bend_c, 3, 8192
4, 318720, Note_on_c, 3, 68, 95
4, 318727, Pitch_bend_c, 3, 8320
4, 318734, Pitch_bend_c, 3, 8448
4, 318741, Pitch_bend_c, 3, 8576
4, 318748, Pitch_bend_c, 3, 8704
4, 318755, Pitch_bend_c, 3, 8832
4, 318762, Pitch_bend_c, 3, 8960
4, 318769, Pitch_bend_c, 3, 9088
4, 318776, Pitch_bend_c, 3, 9216
4, 318783, Pitch_bend_c, 3, 9344
4, 318790, Pitch_bend_c, 3, 9472
4, 318797, Pitch_bend_c, 3, 9600
4, 318800, Pitch_bend_c, 3, 9600
4, 318880, Pitch_bend_c, 3, 9600
4, 318893, Pitch_bend_c, 3, 9472
4, 318906, Pitch_bend_c, 3, 9344
4, 318919, Pitch_bend_c, 3, 9216
4, 318932, Pitch_bend_c, 3, 9088
4, 318945, Pitch_bend_c, 3, 8960
4, 318958, Pitch_bend_c, 3, 8832
4, 318960, Pitch_bend_c, 3, 8832
4, 319200, Pitch_bend_c, 3, 8832
4, 319200, Pitch_bend_c, 3, 8192
4, 319200, Note_off_c, 3, 68, 95
4, 319200, Pitch_bend_c, 3, 8192
4, 319200, Note_on_c, 3, 63, 95
4, 319210, Pitch_bend_c, 3, 8320
4, 319220, Pitch_bend_c, 3, 8448
4, 319230, Pitch_bend_c, 3, 8576
4, 319240, Pitch_bend_c, 3, 8704
4, 319250, Pitch_bend_c, 3, 8832
4, 319260, Pitch_bend_c, 3, 8960
4, 319270, Pitch_bend_c, 3, 9088
4, 319280, Pitch_bend_c, 3, 9216
4, 319290, Pitch_bend_c, 3, 9344
4, 319300, Pitch_bend_c, 3, 9472
4, 319310, Pitch_bend_c, 3, 9600
4, 319320, Pitch_bend_c, 3, 9600
4, 319680, Pitch_bend_c, 3, 9600
4, 319680, Pitch_bend_c, 3, 8192
4, 319680, Note_off_c, 3, 63, 95
4, 319680, Note_on_c, 2, 63, 95
4, 319920, Note_off_c, 2, 63, 95
4, 319920, Pitch_bend_c, 3, 8192
4, 319920, Note_on_c, 3, 61, 95
4, 319980, Pitch_bend_c, 3, 8320
4, 320040, Pitch_bend_c, 3, 8448
4, 320040, Pitch_bend_c, 3, 8448
4, 320160, Pitch_bend_c, 3, 8448
4, 320160, Pitch_bend_c, 3, 8192
4, 320160, Note_off_c, 3, 61, 95
4, 320160, Note_on_c, 2, 63, 95
4, 320320, Note_off_c, 2, 63, 95
4, 320320, Pitch_bend_c, 3, 8192
4, 320320, Note_on_c, 3, 61, 95
4, 320360, Pitch_bend_c, 3, 8320
4, 320400, Pitch_bend_c, 3, 8448
4, 320400, Pitch_bend_c, 3, 8448
4, 320480, Pitch_bend_c, 3, 8448
4, 320480, Pitch_bend_c, 3, 8192
4, 320480, Note_off_c, 3, 61, 95
4, 320480, Note_on_c, 2, 58, 95
4, 320640, Note_off_c, 2, 58, 95
4, 320640, Note_on_c, 3, 58, 95
4, 320800, Pitch_bend_c, 3, 8192
4, 320880, Pitch_bend_c, 3, 8320
4, 320880, Pitch_bend_c, 3, 8192
4, 320880, Note_off_c, 3, 58, 95
4, 320880, Note_on_c, 2, 56, 70
4, 321000, Note_off_c, 2, 56, 70
4, 321000, Note_on_c, 2, 53, 95
4, 321120, Note_off_c, 2, 53, 95
4, 321120, Note_on_c, 2, 51, 70
4, 321240, Note_off_c, 2, 51, 70
4, 321240, Note_on_c, 2, 49, 95
4, 321360, Note_off_c, 2, 49, 95
4, 321360, Note_on_c, 2, 46, 70
4, 321600, Note_off_c, 2, 46, 70
4, 321600, Pitch_bend_c, 3, 8192
4, 321600, Note_on_c, 3, 63, 95
4, 321614, Pitch_bend_c, 3, 8320
4, 321628, Pitch_bend_c, 3, 8448
4, 321642, Pitch_bend_c, 3, 8576
4, 321656, Pitch_bend_c, 3, 8704
4, 321670, Pitch_bend_c, 3, 8832
4, 321684, Pitch_bend_c, 3, 8960
4, 321698, Pitch_bend_c, 3, 9088
4, 321712, Pitch_bend_c, 3, 9216
4, 321726, Pitch_bend_c, 3, 9344
4, 321740, Pitch_bend_c, 3, 9472
4, 321754, Pitch_bend_c, 3, 9600
4, 321760, Pitch_bend_c, 3, 9600
4, 322080, Pitch_bend_c, 3, 9600
4, 322080, Pitch_bend_c, 3, 8192
4, 322080, Note_off_c, 3, 63, 95
4, 322080, Note_on_c, 2, 65, 95
4, 322560, Note_off_c, 2, 65, 95
4, 322800, Pitch_bend_c, 3, 8192
4, 322800, Note_on_c, 3, 68, 95
4, 322816, Pitch_bend_c, 3, 8320
4, 322832, Pitch_bend_c, 3, 8448
4, 322848, Pitch_bend_c, 3, 8576
4, 322864, Pitch_bend_c, 3, 8704
4, 322880, Pitch_bend_c, 3, 8832
4, 322896, Pitch_bend_c, 3, 8960
4, 322912, Pitch_bend_c, 3, 9088
4, 322928, Pitch_bend_c, 3, 9216
4, 322944, Pitch_bend_c, 3, 9344
4, 322960, Pitch_bend_c, 3, 9472
4, 322976, Pitch_bend_c, 3, 9600
4, 322992, Pitch_bend_c, 3, 9728
4, 323008, Pitch_bend_c, 3, 9856
4, 323024, Pitch_bend_c, 3, 9984
4, 323040, Pitch_bend_c, 3, 10112
4, 323056, Pitch_bend_c, 3, 10240
4, 323072, Pitch_bend_c, 3, 10368
4, 323088, Pitch_bend_c, 3, 10496
4, 323104, Pitch_bend_c, 3, 10624
4, 323120, Pitch_bend_c, 3, 10752
4, 323136, Pitch_bend_c, 3, 10880
4, 323152, Pitch_bend_c, 3, 11008
4, 323160, Pitch_bend_c, 3, 11008
4, 323520, Pitch_bend_c, 3, 11008
4, 323520, Pitch_bend_c, 3, 8192
4, 323520, Note_off_c, 3, 68, 95
4, 323520, Pitch_bend_c, 3, 8192
4, 323520, Note_on_c, 3, 68, 95
4, 323541, Pitch_bend_c, 3, 8320
4, 323562, Pitch_bend_c, 3, 8448
4, 323583, Pitch_bend_c, 3, 8576
4, 323604, Pitch_bend_c, 3, 8704
4, 323625, Pitch_bend_c, 3, 8832
4, 323646, Pitch_bend_c, 3, 8960
4, 323667, Pitch_bend_c, 3, 9088
4, 323688, Pitch_bend_c, 3, 9216
4, 323709, Pitch_bend_c, 3, 9344
4, 323730, Pitch_bend_c, 3, 9472
4, 323751, Pitch_bend_c, 3, 9600
4, 323760, Pitch_bend_c, 3, 9600
4, 324000, Pitch_bend_c, 3, 9600
4, 324000, Pitch_bend_c, 3, 8192
4, 324000, Note_off_c, 3, 68, 95
4, 324000, Pitch_bend_c, 3, 8192
4, 324000, Note_on_c, 3, 68, 95
4, 324009, Pitch_bend_c, 3, 8320
4, 324018, Pitch_bend_c, 3, 8448
4, 324027, Pitch_bend_c, 3, 8576
4, 324036, Pitch_bend_c, 3, 8704
4, 324045, Pitch_bend_c, 3, 8832
4, 324054, Pitch_bend_c, 3, 8960
4, 324063, Pitch_bend_c, 3, 9088
4, 324072, Pitch_bend_c, 3, 9216
4, 324081, Pitch_bend_c, 3, 9344
4, 324090, Pitch_bend_c, 3, 9472
4, 324099, Pitch_bend_c, 3, 9600
4, 324100, Pitch_bend_c, 3, 9600
4, 324118, Pitch_bend_c, 3, 9728
4, 324136, Pitch_bend_c, 3, 9856
4, 324154, Pitch_bend_c, 3, 9984
4, 324172, Pitch_bend_c, 3, 10112
4, 324190, Pitch_bend_c, 3, 10240
4, 324208, Pitch_bend_c, 3, 10368
4, 324226, Pitch_bend_c, 3, 10496
4, 324244, Pitch_bend_c, 3, 10624
4, 324262, Pitch_bend_c, 3, 10752
4, 324280, Pitch_bend_c, 3, 10880
4, 324298, Pitch_bend_c, 3, 11008
4, 324300, Pitch_bend_c, 3, 11008
4, 325200, Pitch_bend_c, 3, 11008
4, 325200, Pitch_bend_c, 3, 8192
4, 325200, Note_off_c, 3, 68, 95
4, 325200, Pitch_bend_c, 3, 8192
4, 325200, Note_on_c, 3, 68, 95
4, 325221, Pitch_bend_c, 3, 8320
4, 325242, Pitch_bend_c, 3, 8448
4, 325263, Pitch_bend_c, 3, 8576
4, 325284, Pitch_bend_c, 3, 8704
4, 325305, Pitch_bend_c, 3, 8832
4, 325326, Pitch_bend_c, 3, 8960
4, 325347, Pitch_bend_c, 3, 9088
4, 325368, Pitch_bend_c, 3, 9216
4, 325389, Pitch_bend_c, 3, 9344
4, 325410, Pitch_bend_c, 3, 9472
4, 325431, Pitch_bend_c, 3, 9600
4, 325440, Pitch_bend_c, 3, 9600
4, 325680, Pitch_bend_c, 3, 9600
4, 325680, Pitch_bend_c, 3, 8192
4, 325680, Note_off_c, 3, 68, 95
4, 325680, Note_on_c, 2, 65, 95
4, 326400, Note_off_c, 2, 65, 95
4, 326400, Pitch_bend_c, 3, 8192
4, 326400, Note_on_c, 3, 68, 95
4, 326414, Pitch_bend_c, 3, 8320
4, 326428, Pitch_bend_c, 3, 8448
4, 326442, Pitch_bend_c, 3, 8576
4, 326456, Pitch_bend_c, 3, 8704
4, 326470, Pitch_bend_c, 3, 8832
4, 326484, Pitch_bend_c, 3, 8960
4, 326498, Pitch_bend_c, 3, 9088
4, 326512, Pitch_bend_c, 3, 9216
4, 326526, Pitch_bend_c, 3, 9344
4, 326540, Pitch_bend_c, 3, 9472
4, 326554, Pitch_bend_c, 3, 9600
4, 326560, Pitch_bend_c, 3, 9600
4, 326720, Pitch_bend_c, 3, 9600
4, 326720, Pitch_bend_c, 3, 8192
4, 326720, Note_off_c, 3, 68, 95
4, 326720, Pitch_bend_c, 3, 8192
4, 326720, Note_on_c, 3, 68, 95
4, 326738, Pitch_bend_c, 3, 8320
4, 326756, Pitch_bend_c, 3, 8448
4, 326774, Pitch_bend_c, 3, 8576
4, 326792, Pitch_bend_c, 3, 8704
4, 326810, Pitch_bend_c, 3, 8832
4, 326813, Pitch_bend_c, 3, 8832
4, 326828, Pitch_bend_c, 3, 8960
4, 326843, Pitch_bend_c, 3, 9088
4, 326858, Pitch_bend_c, 3, 9216
4, 326873, Pitch_bend_c, 3, 9344
4, 326888, Pitch_bend_c, 3, 9472
4, 326903, Pitch_bend_c, 3, 9600
4, 326906, Pitch_bend_c, 3, 9600
4, 326914, Pitch_bend_c, 3, 9728
4, 326922, Pitch_bend_c, 3, 9856
4, 326930, Pitch_bend_c, 3, 9984
4, 326938, Pitch_bend_c, 3, 10112
4, 326946, Pitch_bend_c, 3, 10240
4, 326954, Pitch_bend_c, 3, 10368
4, 326962, Pitch_bend_c, 3, 10496
4, 326970, Pitch_bend_c, 3, 10624
4, 326978, Pitch_bend_c, 3, 10752
4, 326986, Pitch_bend_c, 3, 10880
4, 326994, Pitch_bend_c, 3, 11008
4, 327000, Pitch_bend_c, 3, 11008
4, 327840, Pitch_bend_c, 3, 11008
4, 327840, Pitch_bend_c, 3, 8192
4, 327840, Note_off_c, 3, 68, 95
4, 328320, Pitch_bend_c, 3, 8192
4, 328320, Note_on_c, 3, 70, 95
4, 328330, Pitch_bend_c, 3, 8320
4, 328340, Pitch_bend_c, 3, 8448
4, 328350, Pitch_bend_c, 3, 8576
4, 328360, Pitch_bend_c, 3, 8704
4, 328370, Pitch_bend_c, 3, 8832
4, 328380, Pitch_bend_c, 3, 8960
4, 328390, Pitch_bend_c, 3, 9088
4, 328400, Pitch_bend_c, 3, 9216
4, 328410, Pitch_bend_c, 3, 9344
4, 328420, Pitch_bend_c, 3, 9472
4, 328430, Pitch_bend_c, 3, 9600
4, 328440, Pitch_bend_c, 3, 9728
4, 328450, Pitch_bend_c, 3, 9856
4, 328460, Pitch_bend_c, 3, 9984
4, 328470, Pitch_bend_c, 3, 10112
4, 328480, Pitch_bend_c, 3, 10240
4, 328490, Pitch_bend_c, 3, 10368
4, 328500, Pitch_bend_c, 3, 10496
4, 328510, Pitch_bend_c, 3, 10624
4, 328520, Pitch_bend_c, 3, 10752
4, 328530, Pitch_bend_c, 3, 10880
4, 328540, Pitch_bend_c, 3, 11008
4, 328560, Pitch_bend_c, 3, 11008
4, 328800, Pitch_bend_c, 3, 11008
4, 328800, Pitch_bend_c, 3, 8192
4, 328800, Note_off_c, 3, 70, 95
4, 329280, Pitch_bend_c, 3, 8192
4, 329280, Note_on_c, 3, 68, 95
4, 329295, Pitch_bend_c, 3, 8320
4, 329310, Pitch_bend_c, 3, 8448
4, 329325, Pitch_bend_c, 3, 8576
4, 329340, Pitch_bend_c, 3, 8704
4, 329355, Pitch_bend_c, 3, 8832
4, 329370, Pitch_bend_c, 3, 8960
4, 329385, Pitch_bend_c, 3, 9088
4, 329400, Pitch_bend_c, 3, 9216
4, 329415, Pitch_bend_c, 3, 9344
4, 329430, Pitch_bend_c, 3, 9472
4, 329445, Pitch_bend_c, 3, 9600
4, 329460, Pitch_bend_c, 3, 9728
4, 329475, Pitch_bend_c, 3, 9856
4, 329490, Pitch_bend_c, 3, 9984
4, 329505, Pitch_bend_c, 3, 10112
4, 329520, Pitch_bend_c, 3, 10240
4, 329520, Pitch_bend_c, 3, 10240
4, 329760, Pitch_bend_c, 3, 10240
4, 329760, Pitch_bend_c, 3, 8192
4, 329760, Note_off_c, 3, 68, 95
4, 329760, Pitch_bend_c, 3, 8192
4, 329760, Note_on_c, 3, 68, 111
4, 329803, Pitch_bend_c, 3, 8320
4, 329846, Pitch_bend_c, 3, 8448
4, 329889, Pitch_bend_c, 3, 8576
4, 329932, Pitch_bend_c, 3, 8704
4, 329975, Pitch_bend_c, 3, 8832
4, 330018, Pitch_bend_c, 3, 8960
4, 330061, Pitch_bend_c, 3, 9088
4, 330104, Pitch_bend_c, 3, 9216
4, 330147, Pitch_bend_c, 3, 9344
4, 330190, Pitch_bend_c, 3, 9472
4, 330233, Pitch_bend_c, 3, 9600
4, 330240, Pitch_bend_c, 3, 9600
4, 330720, Pitch_bend_c, 3, 9600
4, 330720, Pitch_bend_c, 3, 8192
4, 330720, Note_off_c, 3, 68, 111
4, 330720, Note_on_c, 2, 68, 95
4, 330960, Note_off_c, 2, 68, 95
4, 330960, Note_on_c, 2, 65, 95
4, 331200, Note_off_c, 2, 65, 95
4, 331200, Note_on_c, 2, 68, 95
4, 331440, Note_off_c, 2, 68, 95
4, 331440, Note_on_c, 2, 65, 95
4, 331560, Note_off_c, 2, 65, 95
4, 331560, Note_on_c, 2, 67, 70
4, 331680, Note_off_c, 2, 67, 70
4, 331680, Note_on_c, 2, 65, 70
4, 331920, Note_off_c, 2, 65, 70
4, 331920, Pitch_bend_c, 3, 8192
4, 331920, Note_on_c, 3, 63, 95
4, 331944, Pitch_bend_c, 3, 8320
4, 331968, Pitch_bend_c, 3, 8448
4, 331992, Pitch_bend_c, 3, 8576
4, 332016, Pitch_bend_c, 3, 8704
4, 332040, Pitch_bend_c, 3, 8832
4, 332040, Pitch_bend_c, 3, 8832
4, 332160, Pitch_bend_c, 3, 8832
4, 332160, Pitch_bend_c, 3, 8192
4, 332160, Note_off_c, 3, 63, 95
4, 332160, Note_on_c, 2, 65, 95
4, 332400, Note_off_c, 2, 65, 95
4, 332400, Pitch_bend_c, 3, 8192
4, 332400, Note_on_c, 3, 63, 95
4, 332421, Pitch_bend_c, 3, 8320
4, 332442, Pitch_bend_c, 3, 8448
4, 332463, Pitch_bend_c, 3, 8576
4, 332484, Pitch_bend_c, 3, 8704
4, 332505, Pitch_bend_c, 3, 8832
4, 332526, Pitch_bend_c, 3, 8960
4, 332547, Pitch_bend_c, 3, 9088
4, 332568, Pitch_bend_c, 3, 9216
4, 332589, Pitch_bend_c, 3, 9344
4, 332610, Pitch_bend_c, 3, 9472
4, 332631, Pitch_bend_c, 3, 9600
4, 332640, Pitch_bend_c, 3, 9600
4, 332880, Pitch_bend_c, 3, 9600
4, 332880, Pitch_bend_c, 3, 8192
4, 332880, Note_off_c, 3, 63, 95
4, 332880, Note_on_c, 2, 68, 95
4, 332880, Note_on_c, 2, 63, 95
4, 333120, Note_off_c, 2, 68, 95
4, 333120, Note_off_c, 2, 63, 95
4, 333120, Pitch_bend_c, 3, 8192
4, 333120, Note_on_c, 3, 63, 111
4, 333127, Pitch_bend_c, 3, 8320
4, 333134, Pitch_bend_c, 3, 8448
4, 333141, Pitch_bend_c, 3, 8576
4, 333148, Pitch_bend_c, 3, 8704
4, 333155, Pitch_bend_c, 3, 8832
4, 333162, Pitch_bend_c, 3, 8960
4, 333169, Pitch_bend_c, 3, 9088
4, 333176, Pitch_bend_c, 3, 9216
4, 333183, Pitch_bend_c, 3, 9344
4, 333190, Pitch_bend_c, 3, 9472
4, 333197, Pitch_bend_c, 3, 9600
4, 333200, Pitch_bend_c, 3, 9600
4, 333280, Pitch_bend_c, 3, 9600
4, 333280, Pitch_bend_c, 3, 8192
4, 333280, Note_off_c, 3, 63, 111
4, 333280, Note_on_c, 2, 68, 95
4, 333440, Note_off_c, 2, 68, 95
4, 333440, Note_on_c, 2, 63, 111
4, 333600, Note_off_c, 2, 63, 111
4, 333600, Note_on_c, 2, 68, 95
4, 333760, Note_off_c, 2, 68, 95
4, 333760, Note_on_c, 2, 63, 111
4, 333920, Note_off_c, 2, 63, 111
4, 333920, Note_on_c, 2, 68, 95
4, 334080, Note_off_c, 2, 68, 95
4, 334080, Note_on_c, 2, 65, 95
4, 334240, Note_off_c, 2, 65, 95
4, 334240, Note_on_c, 3, 61, 111
4, 334400, Pitch_bend_c, 3, 8192
4, 334560, Pitch_bend_c, 3, 8320
4, 334720, Pitch_bend_c, 3, 8192
4, 334880, Pitch_bend_c, 3, 8320
4, 335040, Pitch_bend_c, 3, 8192
4, 335200, Pitch_bend_c, 3, 8320
4, 335360, Pitch_bend_c, 3, 8192
4, 335520, Pitch_bend_c, 3, 8320
4, 335520, Pitch_bend_c, 3, 8192
4, 335520, Note_off_c, 3, 61, 111
4, 336360, Pitch_bend_c, 3, 8192
4, 336360, Note_on_c, 3, 63, 95
4, 336373, Pitch_bend_c, 3, 8320
4, 336386, Pitch_bend_c, 3, 8448
4, 336399, Pitch_bend_c, 3, 8576
4, 336412, Pitch_bend_c, 3, 8704
4, 336425, Pitch_bend_c, 3, 8832
4, 336438, Pitch_bend_c, 3, 8960
4, 336451, Pitch_bend_c, 3, 9088
4, 336464, Pitch_bend_c, 3, 9216
4, 336477, Pitch_bend_c, 3, 9344
4, 336490, Pitch_bend_c, 3, 9472
4, 336503, Pitch_bend_c, 3, 9600
4, 336510, Pitch_bend_c, 3, 9600
4, 336960, Pitch_bend_c, 3, 9600
4, 336960, Pitch_bend_c, 3, 8192
4, 336960, Note_off_c, 3, 63, 95
4, 336960, Note_on_c, 2, 68, 95
4, 337200, Note_off_c, 2, 68, 95
4, 337200, Note_on_c, 2, 65, 95
4, 337440, Note_off_c, 2, 65, 95
4, 337440, Note_on_c, 2, 67, 95
4, 337680, Note_off_c, 2, 67, 95
4, 337680, Note_on_c, 2, 65, 95
4, 337920, Note_off_c, 2, 65, 95
4, 337920, Note_on_c, 2, 67, 95
4, 338080, Note_off_c, 2, 67, 95
4, 338080, Note_on_c, 2, 65, 70
4, 338240, Note_off_c, 2, 65, 70
4, 338240, Note_on_c, 2, 63, 95
4, 338400, Note_off_c, 2, 63, 95
4, 338400, Note_on_c, 2, 65, 95
4, 338520, Note_on_c, 3, 61, 79
4, 338640, Note_off_c, 2, 65, 95
4, 338640, Note_off_c, 3, 61, 79
4, 338640, Note_on_c, 3, 63, 95
4, 339120, Note_off_c, 3, 63, 95
4, 339120, Pitch_bend_c, 3, 8192
4, 339120, Note_on_c, 3, 63, 95
4, 339163, Pitch_bend_c, 3, 8320
4, 339206, Pitch_bend_c, 3, 8448
4, 339249, Pitch_bend_c, 3, 8576
4, 339292, Pitch_bend_c, 3, 8704
4, 339335, Pitch_bend_c, 3, 8832
4, 339378, Pitch_bend_c, 3, 8960
4, 339421, Pitch_bend_c, 3, 9088
4, 339464, Pitch_bend_c, 3, 9216
4, 339507, Pitch_bend_c, 3, 9344
4, 339550, Pitch_bend_c, 3, 9472
4, 339593, Pitch_bend_c, 3, 9600
4, 339600, Pitch_bend_c, 3, 9600
4, 340080, Pitch_bend_c, 3, 9600
4, 340080, Pitch_bend_c, 3, 8192
4, 340080, Note_off_c, 3, 63, 95
4, 340080, Note_on_c, 2, 63, 95
4, 340320, Note_off_c, 2, 63, 95
4, 340320, Note_on_c, 2, 58, 95
4, 340560, Note_off_c, 2, 58, 95
4, 340560, Note_on_c, 3, 53, 95
4, 340720, Pitch_bend_c, 3, 8192
4, 340880, Pitch_bend_c, 3, 8320
4, 341040, Pitch_bend_c, 3, 8192
4, 341200, Pitch_bend_c, 3, 8320
4, 341280, Pitch_bend_c, 3, 8192
4, 341280, Pitch_bend_c, 3, 8320
4, 341280, Pitch_bend_c, 3, 8192
4, 341280, Note_off_c, 3, 53, 95
4, 341280, Note_on_c, 2, 51, 54
4, 341760, Note_off_c, 2, 51, 54
4, 342240, Note_on_c, 2, 64, 95
4, 342400, Note_off_c, 2, 64, 95
4, 342400, Note_on_c, 2, 63, 70
4, 342560, Note_off_c, 2, 63, 70
4, 342560, Note_on_c, 2, 61, 70
4, 342720, Note_off_c, 2, 61, 70
4, 342720, Note_on_c, 2, 58, 95
4, 342880, Note_off_c, 2, 58, 95
4, 342880, Note_on_c, 2, 61, 95
4, 343040, Note_off_c, 2, 61, 95
4, 343040, Note_on_c, 2, 56, 95
4, 343200, Note_off_c, 2, 56, 95
4, 343200, Note_on_c, 2, 51, 95
4, 343320, Note_off_c, 2, 51, 95
4, 343320, Note_on_c, 2, 53, 70
4, 343440, Note_off_c, 2, 53, 70
4, 343440, Note_on_c, 2, 51, 70
4, 343560, Note_off_c, 2, 51, 70
4, 343560, Note_on_c, 2, 53, 70
4, 343680, Note_off_c, 2, 53, 70
4, 343680, Note_on_c, 2, 51, 54
4, 343800, Note_off_c, 2, 51, 54
4, 343800, Note_on_c, 2, 53, 54
4, 343920, Note_off_c, 2, 53, 54
4, 343920, Note_on_c, 2, 51, 38
4, 344040, Note_off_c, 2, 51, 38
4, 344040, Note_on_c, 2, 53, 22
4, 344160, Note_off_c, 2, 53, 22
4, 344160, Note_on_c, 2, 44, 95
4, 344202, Note_off_c, 2, 44, 95
4, 344400, Note_on_c, 2, 51, 95
4, 344640, Note_off_c, 2, 51, 95
4, 344640, Note_on_c, 2, 53, 70
4, 344880, Note_off_c, 2, 53, 70
4, 344880, Note_on_c, 2, 63, 95
4, 344880, Note_on_c, 2, 58, 95
4, 345120, Note_off_c, 2, 63, 95
4, 345120, Note_off_c, 2, 58, 95
4, 345120, Note_on_c, 2, 58, 95
4, 345240, Note_off_c, 2, 58, 95
4, 345240, Note_on_c, 2, 56, 70
4, 345360, Note_off_c, 2, 56, 70
4, 345360, Note_on_c, 2, 52, 95
4, 345480, Note_off_c, 2, 52, 95
4, 345480, Note_on_c, 3, 51, 70
4, 345600, Pitch_bend_c, 3, 6784
4, 345600, Pitch_bend_c, 3, 8192
4, 345600, Note_off_c, 3, 51, 70
4, 345600, Note_on_c, 2, 49, 95
4, 345840, Note_off_c, 2, 49, 95
4, 345840, Note_on_c, 2, 46, 95
4, 346080, Note_off_c, 2, 46, 95
4, 346080, Note_on_c, 2, 56, 95
4, 346320, Note_off_c, 2, 56, 95
4, 346320, Note_on_c, 2, 58, 95
4, 346560, Note_off_c, 2, 58, 95
4, 346560, Note_on_c, 2, 56, 70
4, 346680, Note_off_c, 2, 56, 70
4, 346680, Note_on_c, 2, 58, 70
4, 346800, Note_off_c, 2, 58, 70
4, 346800, Note_on_c, 2, 56, 70
4, 346920, Note_off_c, 2, 56, 70
4, 346920, Note_on_c, 2, 58, 70
4, 347040, Note_off_c, 2, 58, 70
4, 347040, Note_on_c, 2, 56, 70
4, 347160, Note_off_c, 2, 56, 70
4, 347160, Note_on_c, 2, 58, 70
4, 347280, Note_off_c, 2, 58, 70
4, 347280, Note_on_c, 2, 56, 70
4, 347400, Note_off_c, 2, 56, 70
4, 347400, Note_on_c, 2, 58, 70
4, 347520, Note_off_c, 2, 58, 70
4, 347520, Note_on_c, 2, 56, 70
4, 347640, Note_off_c, 2, 56, 70
4, 347640, Note_on_c, 2, 58, 70
4, 347760, Note_off_c, 2, 58, 70
4, 347760, Note_on_c, 2, 56, 70
4, 347880, Note_off_c, 2, 56, 70
4, 347880, Note_on_c, 2, 58, 70
4, 348000, Note_off_c, 2, 58, 70
4, 348000, Note_on_c, 2, 56, 70
4, 348120, Note_off_c, 2, 56, 70
4, 348120, Note_on_c, 2, 58, 70
4, 348240, Note_off_c, 2, 58, 70
4, 348240, Note_on_c, 2, 56, 70
4, 348360, Note_off_c, 2, 56, 70
4, 348360, Note_on_c, 2, 58, 70
4, 348480, Note_off_c, 2, 58, 70
4, 348480, Note_on_c, 2, 56, 70
4, 348600, Note_off_c, 2, 56, 70
4, 348600, Note_on_c, 2, 58, 70
4, 348720, Note_off_c, 2, 58, 70
4, 348720, Note_on_c, 2, 56, 70
4, 348840, Note_off_c, 2, 56, 70
4, 348840, Note_on_c, 2, 58, 70
4, 348960, Note_off_c, 2, 58, 70
4, 348960, Note_on_c, 2, 56, 70
4, 349080, Note_off_c, 2, 56, 70
4, 349080, Note_on_c, 2, 58, 70
4, 349200, Note_off_c, 2, 58, 70
4, 349200, Note_on_c, 2, 56, 70
4, 349320, Note_off_c, 2, 56, 70
4, 349320, Note_on_c, 2, 58, 70
4, 349440, Note_off_c, 2, 58, 70
4, 349440, Note_on_c, 2, 56, 70
4, 349560, Note_off_c, 2, 56, 70
4, 349560, Note_on_c, 2, 58, 70
4, 349680, Note_off_c, 2, 58, 70
4, 349680, Note_on_c, 2, 56, 70
4, 349800, Note_off_c, 2, 56, 70
4, 349800, Note_on_c, 2, 58, 70
4, 349920, Note_off_c, 2, 58, 70
4, 349920, Note_on_c, 2, 56, 54
4, 350040, Note_off_c, 2, 56, 54
4, 350040, Note_on_c, 2, 58, 54
4, 350160, Note_off_c, 2, 58, 54
4, 350160, Note_on_c, 2, 56, 38
4, 350280, Note_off_c, 2, 56, 38
4, 350280, Note_on_c, 2, 58, 22
4, 350400, Note_off_c, 2, 58, 22
4, 350400, Pitch_bend_c, 3, 8192
4, 350400, Note_on_c, 3, 63, 111
4, 350410, Pitch_bend_c, 3, 8320
4, 350420, Pitch_bend_c, 3, 8448
4, 350430, Pitch_bend_c, 3, 8576
4, 350440, Pitch_bend_c, 3, 8704
4, 350450, Pitch_bend_c, 3, 8832
4, 350460, Pitch_bend_c, 3, 8960
4, 350470, Pitch_bend_c, 3, 9088
4, 350480, Pitch_bend_c, 3, 9216
4, 350490, Pitch_bend_c, 3, 9344
4, 350500, Pitch_bend_c, 3, 9472
4, 350510, Pitch_bend_c, 3, 9600
4, 350520, Pitch_bend_c, 3, 9600
4, 350640, Pitch_bend_c, 3, 9600
4, 350640, Pitch_bend_c, 3, 8192
4, 350640, Note_off_c, 3, 63, 111
4, 350640, Note_on_c, 3, 61, 111
4, 350800, Pitch_bend_c, 3, 8192
4, 350960, Pitch_bend_c, 3, 8320
4, 351120, Pitch_bend_c, 3, 8192
4, 351280, Pitch_bend_c, 3, 8320
4, 351360, Pitch_bend_c, 3, 8192
4, 351360, Pitch_bend_c, 3, 8320
4, 351360, Pitch_bend_c, 3, 8192
4, 351360, Note_off_c, 3, 61, 111
4, 351360, Note_on_c, 2, 51, 95
4, 352800, Note_off_c, 2, 51, 95
4, 354240, Note_on_c, 3, 56, 95
4, 354400, Pitch_bend_c, 3, 8192
4, 354560, Pitch_bend_c, 3, 8320
4, 354720, Pitch_bend_c, 3, 8192
4, 354880, Pitch_bend_c, 3, 8320
4, 355040, Pitch_bend_c, 3, 8192
4, 355200, Pitch_bend_c, 3, 8320
4, 355360, Pitch_bend_c, 3, 8192
4, 355520, Pitch_bend_c, 3, 8320
4, 355680, Pitch_bend_c, 3, 8192
4, 355680, Pitch_bend_c, 3, 8320
4, 355680, Pitch_bend_c, 3, 8192
4, 355680, Note_off_c, 3, 56, 95
4, 355680, Note_on_c, 2, 57, 95
4, 356640, Note_off_c, 2, 57, 95
4, 356640, Note_on_c, 2, 58, 70
4, 357120, Note_off_c, 2, 58, 70
4, 357120, Note_on_c, 2, 62, 95
4, 357120, Note_on_c, 2, 56, 95
4, 357600, Note_off_c, 2, 62, 95
4, 357600, Note_off_c, 2, 56, 95
4, 357600, Note_on_c, 2, 62, 95
4, 357600, Note_on_c, 2, 56, 95
4, 358080, Note_off_c, 2, 62, 95
4, 358080, Note_off_c, 2, 56, 95
4, 358080, Note_on_c, 2, 46, 95
4, 358560, Note_off_c, 2, 46, 95
4, 358560, Note_on_c, 2, 62, 95
4, 358560, Note_on_c, 2, 56, 95
4, 359040, Note_off_c, 2, 62, 95
4, 359040, Note_off_c, 2, 56, 95
4, 359040, Note_on_c, 2, 46, 95
4, 359520, Note_off_c, 2, 46, 95
4, 359520, Note_on_c, 2, 62, 95
4, 359520, Note_on_c, 2, 56, 95
4, 359520, Note_on_c, 2, 44, 95
4, 359520, Note_on_c, 2, 46, 95
4, 359562, Note_off_c, 2, 44, 95
4, 360000, Note_off_c, 2, 62, 95
4, 360000, Note_off_c, 2, 56, 95
4, 360000, Note_off_c, 2, 46, 95
4, 360000, Note_on_c, 3, 62, 111
4, 360000, Note_on_c, 3, 56, 111
4, 360160, Pitch_bend_c, 3, 8832
4, 360160, Pitch_bend_c, 3, 8192
4, 360160, Note_off_c, 3, 62, 111
4, 360160, Pitch_bend_c, 3, 8832
4, 360160, Pitch_bend_c, 3, 8192
4, 360160, Note_off_c, 3, 56, 111
4, 360160, Note_on_c, 2, 63, 95
4, 360160, Note_on_c, 2, 57, 95
4, 360480, Note_off_c, 2, 63, 95
4, 360480, Note_off_c, 2, 57, 95
4, 360480, Note_on_c, 2, 63, 111
4, 360480, Note_on_c, 2, 57, 111
4, 360720, Note_off_c, 2, 63, 111
4, 360720, Note_off_c, 2, 57, 111
4, 360720, Note_on_c, 2, 47, 95
4, 360960, Note_off_c, 2, 47, 95
4, 360960, Note_on_c, 2, 63, 111
4, 360960, Note_on_c, 2, 57, 111
4, 361200, Note_off_c, 2, 63, 111
4, 361200, Note_off_c, 2, 57, 111
4, 361200, Note_on_c, 2, 47, 95
4, 361440, Note_off_c, 2, 47, 95
4, 361440, Note_on_c, 2, 63, 111
4, 361440, Note_on_c, 2, 57, 111
4, 361680, Note_off_c, 2, 63, 111
4, 361680, Note_off_c, 2, 57, 111
4, 361680, Note_on_c, 2, 47, 95
4, 361920, Note_off_c, 2, 47, 95
4, 361920, Note_on_c, 2, 68, 111
4, 361920, Note_on_c, 2, 63, 111
4, 361920, Note_on_c, 2, 57, 111
4, 362040, Note_on_c, 3, 57, 79
4, 362160, Note_off_c, 2, 68, 111
4, 362160, Note_off_c, 2, 63, 111
4, 362160, Note_off_c, 2, 57, 111
4, 362160, Note_off_c, 3, 57, 79
4, 362160, Note_on_c, 3, 59, 95
4, 362400, Note_off_c, 3, 59, 95
4, 362400, Note_on_c, 2, 63, 111
4, 362400, Note_on_c, 2, 57, 111
4, 362640, Note_off_c, 2, 63, 111
4, 362640, Note_off_c, 2, 57, 111
4, 362640, Note_on_c, 2, 63, 95
4, 362640, Note_on_c, 2, 57, 95
4, 362640, Note_on_c, 2, 44, 95
4, 362640, Note_on_c, 2, 47, 95
4, 362682, Note_off_c, 2, 44, 95
4, 362880, Note_off_c, 2, 63, 95
4, 362880, Note_off_c, 2, 57, 95
4, 362880, Note_off_c, 2, 47, 95
4, 362880, Note_on_c, 2, 56, 95
4, 362880, Note_on_c, 2, 46, 47
4, 363120, Note_off_c, 2, 56, 95
4, 363120, Note_off_c, 2, 46, 47
4, 363120, Note_on_c, 2, 65, 95
4, 363120, Note_on_c, 2, 62, 95
4, 363120, Note_on_c, 2, 56, 95
4, 363240, Note_off_c, 2, 65, 95
4, 363240, Note_off_c, 2, 62, 95
4, 363240, Note_off_c, 2, 56, 95
4, 363240, Note_on_c, 2, 65, 95
4, 363240, Note_on_c, 2, 62, 95
4, 363360, Note_off_c, 2, 65, 95
4, 363360, Note_off_c, 2, 62, 95
4, 363360, Note_on_c, 2, 65, 111
4, 363360, Note_on_c, 2, 62, 111
4, 363360, Note_on_c, 2, 56, 111
4, 363600, Note_off_c, 2, 65, 111
4, 363600, Note_off_c, 2, 62, 111
4, 363600, Note_off_c, 2, 56, 111
4, 363600, Note_on_c, 2, 46, 95
4, 363840, Note_off_c, 2, 46, 95
4, 363840, Note_on_c, 2, 65, 95
4, 363840, Note_on_c, 2, 62, 95
4, 363840, Note_on_c, 2, 56, 95
4, 363960, Note_off_c, 2, 65, 95
4, 363960, Note_off_c, 2, 62, 95
4, 363960, Note_off_c, 2, 56, 95
4, 363960, Note_on_c, 2, 65, 95
4, 363960, Note_on_c, 2, 62, 95
4, 363960, Note_on_c, 2, 56, 95
4, 364080, Note_off_c, 2, 65, 95
4, 364080, Note_off_c, 2, 62, 95
4, 364080, Note_off_c, 2, 56, 95
4, 364080, Note_on_c, 2, 46, 95
4, 364320, Note_off_c, 2, 46, 95
4, 364320, Note_on_c, 2, 68, 111
4, 364320, Note_on_c, 2, 63, 111
4, 364320, Note_on_c, 2, 57, 111
4, 364560, Note_off_c, 2, 68, 111
4, 364560, Note_off_c, 2, 63, 111
4, 364560, Note_off_c, 2, 57, 111
4, 364560, Note_on_c, 2, 58, 95
4, 364560, Note_on_c, 2, 54, 95
4, 364560, Note_on_c, 2, 49, 95
4, 364602, Note_off_c, 2, 58, 95
4, 364602, Note_off_c, 2, 54, 95
4, 364602, Note_off_c, 2, 49, 95
4, 364680, Note_on_c, 2, 58, 95
4, 364680, Note_on_c, 2, 54, 95
4, 364680, Note_on_c, 2, 49, 95
4, 364722, Note_off_c, 2, 58, 95
4, 364722, Note_off_c, 2, 54, 95
4, 364722, Note_off_c, 2, 49, 95
4, 364800, Note_on_c, 2, 68, 111
4, 364800, Note_on_c, 2, 63, 111
4, 364800, Note_on_c, 2, 57, 111
4, 365040, Note_off_c, 2, 68, 111
4, 365040, Note_off_c, 2, 63, 111
4, 365040, Note_off_c, 2, 57, 111
4, 365040, Note_on_c, 2, 58, 95
4, 365040, Note_on_c, 2, 54, 95
4, 365040, Note_on_c, 2, 49, 95
4, 365082, Note_off_c, 2, 58, 95
4, 365082, Note_off_c, 2, 54, 95
4, 365082, Note_off_c, 2, 49, 95
4, 365160, Note_on_c, 2, 58, 95
4, 365160, Note_on_c, 2, 54, 95
4, 365160, Note_on_c, 2, 49, 95
4, 365202, Note_off_c, 2, 58, 95
4, 365202, Note_off_c, 2, 54, 95
4, 365202, Note_off_c, 2, 49, 95
4, 365280, Note_on_c, 2, 68, 111
4, 365280, Note_on_c, 2, 63, 111
4, 365280, Note_on_c, 2, 57, 111
4, 365520, Note_off_c, 2, 68, 111
4, 365520, Note_off_c, 2, 63, 111
4, 365520, Note_off_c, 2, 57, 111
4, 365520, Note_on_c, 2, 57, 95
4, 365520, Note_on_c, 2, 47, 47
4, 365760, Note_off_c, 2, 57, 95
4, 365760, Note_off_c, 2, 47, 47
4, 365760, Note_on_c, 2, 46, 47
4, 366000, Note_off_c, 2, 46, 47
4, 366000, Note_on_c, 2, 44, 95
4, 366000, Note_on_c, 2, 39, 95
4, 366240, Note_off_c, 2, 44, 95
4, 366240, Note_off_c, 2, 39, 95
4, 366240, Note_on_c, 2, 60, 111
4, 366240, Note_on_c, 2, 56, 111
4, 366240, Note_on_c, 2, 50, 111
4, 366240, Note_on_c, 2, 44, 95
4, 366240, Note_on_c, 2, 41, 111
4, 366282, Note_off_c, 2, 44, 95
4, 366720, Note_off_c, 2, 60, 111
4, 366720, Note_off_c, 2, 56, 111
4, 366720, Note_off_c, 2, 50, 111
4, 366720, Note_off_c, 2, 41, 111
4, 366720, Note_on_c, 2, 61, 111
4, 366720, Note_on_c, 2, 57, 111
4, 366720, Note_on_c, 2, 51, 111
4, 366720, Note_on_c, 2, 44, 95
4, 366720, Note_on_c, 2, 42, 111
4, 366762, Note_off_c, 2, 44, 95
4, 367200, Note_off_c, 2, 61, 111
4, 367200, Note_off_c, 2, 57, 111
4, 367200, Note_off_c, 2, 51, 111
4, 367200, Note_off_c, 2, 42, 111
4, 367200, Note_on_c, 2, 62, 111
4, 367200, Note_on_c, 2, 58, 111
4, 367440, Note_off_c, 2, 62, 111
4, 367440, Note_off_c, 2, 58, 111
4, 367440, Note_on_c, 2, 52, 95
4, 367680, Note_off_c, 2, 52, 95
4, 367680, Note_on_c, 2, 63, 111
4, 367680, Note_on_c, 2, 59, 111
4, 367920, Note_off_c, 2, 63, 111
4, 367920, Note_off_c, 2, 59, 111
4, 367920, Note_on_c, 2, 53, 95
4, 368160, Note_off_c, 2, 53, 95
4, 368160, Note_on_c, 2, 64, 111
4, 368160, Note_on_c, 2, 60, 111
4, 368400, Note_off_c, 2, 64, 111
4, 368400, Note_off_c, 2, 60, 111
4, 368400, Note_on_c, 2, 54, 95
4, 368640, Note_off_c, 2, 54, 95
4, 368640, Note_on_c, 2, 61, 111
4, 368640, Note_on_c, 2, 55, 111
4, 368640, Note_on_c, 2, 51, 111
4, 368880, Note_off_c, 2, 61, 111
4, 368880, Note_off_c, 2, 55, 111
4, 368880, Note_off_c, 2, 51, 111
4, 368880, Note_on_c, 2, 51, 95
4, 369120, Note_off_c, 2, 51, 95
4, 369120, Note_on_c, 2, 61, 95
4, 369120, Note_on_c, 2, 55, 95
4, 369360, Note_off_c, 2, 61, 95
4, 369360, Note_off_c, 2, 55, 95
4, 369360, Note_on_c, 2, 51, 95
4, 369600, Note_off_c, 2, 51, 95
4, 369600, Note_on_c, 2, 51, 95
4, 369840, Note_off_c, 2, 51, 95
4, 369840, Note_on_c, 2, 49, 95
4, 370080, Note_off_c, 2, 49, 95
4, 370080, Note_on_c, 2, 61, 95
4, 370080, Note_on_c, 2, 55, 95
4, 370080, Note_on_c, 2, 51, 95
4, 370560, Note_off_c, 2, 61, 95
4, 370560, Note_off_c, 2, 55, 95
4, 370560, Note_off_c, 2, 51, 95
4, 370560, Note_on_c, 2, 61, 95
4, 370560, Note_on_c, 2, 55, 95
4, 370800, Note_off_c, 2, 61, 95
4, 370800, Note_off_c, 2, 55, 95
4, 370800, Note_on_c, 2, 51, 95
4, 371040, Note_off_c, 2, 51, 95
4, 371040, Note_on_c, 2, 61, 95
4, 371040, Note_on_c, 2, 55, 95
4, 371520, Note_off_c, 2, 61, 95
4, 371520, Note_off_c, 2, 55, 95
4, 371520, Note_on_c, 2, 61, 95
4, 371520, Note_on_c, 2, 55, 95
4, 371520, Note_on_c, 2, 51, 95
4, 372000, Note_off_c, 2, 61, 95
4, 372000, Note_off_c, 2, 55, 95
4, 372000, Note_off_c, 2, 51, 95
4, 372000, Note_on_c, 2, 61, 95
4, 372000, Note_on_c, 2, 55, 95
4, 372240, Note_off_c, 2, 61, 95
4, 372240, Note_off_c, 2, 55, 95
4, 372240, Note_on_c, 2, 51, 95
4, 372480, Note_off_c, 2, 51, 95
4, 372480, Note_on_c, 2, 61, 95
4, 372480, Note_on_c, 2, 55, 95
4, 372960, Note_off_c, 2, 61, 95
4, 372960, Note_off_c, 2, 55, 95
4, 372960, Note_on_c, 2, 61, 95
4, 372960, Note_on_c, 2, 55, 95
4, 372960, Note_on_c, 2, 51, 95
4, 373440, Note_off_c, 2, 61, 95
4, 373440, Note_off_c, 2, 55, 95
4, 373440, Note_off_c, 2, 51, 95
4, 373440, Note_on_c, 2, 66, 95
4, 373440, Note_on_c, 2, 62, 95
4, 373440, Note_on_c, 2, 56, 95
4, 373440, Note_on_c, 2, 52, 95
4, 373920, Note_off_c, 2, 66, 95
4, 373920, Note_off_c, 2, 62, 95
4, 373920, Note_off_c, 2, 56, 95
4, 373920, Note_off_c, 2, 52, 95
4, 373920, Note_on_c, 2, 66, 95
4, 373920, Note_on_c, 2, 62, 95
4, 373920, Note_on_c, 2, 56, 95
4, 374160, Note_off_c, 2, 66, 95
4, 374160, Note_off_c, 2, 62, 95
4, 374160, Note_off_c, 2, 56, 95
4, 374160, Note_on_c, 2, 66, 47
4, 374160, Note_on_c, 2, 62, 47
4, 374160, Note_on_c, 2, 56, 95
4, 374400, Note_off_c, 2, 66, 47
4, 374400, Note_off_c, 2, 62, 47
4, 374400, Note_off_c, 2, 56, 95
4, 374400, Note_on_c, 2, 61, 111
4, 374400, Note_on_c, 2, 55, 111
4, 374400, Note_on_c, 2, 51, 111
4, 374640, Note_off_c, 2, 61, 111
4, 374640, Note_off_c, 2, 55, 111
4, 374640, Note_off_c, 2, 51, 111
4, 374640, Note_on_c, 2, 61, 95
4, 374640, Note_on_c, 2, 55, 95
4, 374640, Note_on_c, 2, 51, 95
4, 374880, Note_off_c, 2, 61, 95
4, 374880, Note_off_c, 2, 55, 95
4, 374880, Note_off_c, 2, 51, 95
4, 374880, Note_on_c, 2, 61, 95
4, 374880, Note_on_c, 2, 55, 95
4, 374880, Note_on_c, 2, 51, 95
4, 375120, Note_off_c, 2, 61, 95
4, 375120, Note_off_c, 2, 55, 95
4, 375120, Note_off_c, 2, 51, 95
4, 375120, Note_on_c, 2, 61, 95
4, 375120, Note_on_c, 2, 55, 95
4, 375120, Note_on_c, 2, 51, 95
4, 375360, Note_off_c, 2, 61, 95
4, 375360, Note_off_c, 2, 55, 95
4, 375360, Note_off_c, 2, 51, 95
4, 375360, Note_on_c, 2, 61, 95
4, 375360, Note_on_c, 2, 55, 95
4, 375360, Note_on_c, 2, 51, 95
4, 375600, Note_off_c, 2, 61, 95
4, 375600, Note_off_c, 2, 55, 95
4, 375600, Note_off_c, 2, 51, 95
4, 375600, Note_on_c, 2, 61, 95
4, 375600, Note_on_c, 2, 55, 95
4, 375600, Note_on_c, 2, 51, 95
4, 375840, Note_off_c, 2, 61, 95
4, 375840, Note_off_c, 2, 55, 95
4, 375840, Note_off_c, 2, 51, 95
4, 375840, Note_on_c, 2, 61, 95
4, 375840, Note_on_c, 2, 55, 95
4, 375840, Note_on_c, 2, 51, 95
4, 376080, Note_off_c, 2, 61, 95
4, 376080, Note_off_c, 2, 55, 95
4, 376080, Note_off_c, 2, 51, 95
4, 376080, Note_on_c, 2, 61, 95
4, 376080, Note_on_c, 2, 55, 95
4, 376080, Note_on_c, 2, 51, 95
4, 376320, Note_off_c, 2, 61, 95
4, 376320, Note_off_c, 2, 55, 95
4, 376320, Note_off_c, 2, 51, 95
4, 376320, Note_on_c, 2, 61, 95
4, 376320, Note_on_c, 2, 55, 95
4, 376320, Note_on_c, 2, 51, 95
4, 376560, Note_off_c, 2, 61, 95
4, 376560, Note_off_c, 2, 55, 95
4, 376560, Note_off_c, 2, 51, 95
4, 376560, Note_on_c, 2, 61, 95
4, 376560, Note_on_c, 2, 55, 95
4, 376560, Note_on_c, 2, 51, 95
4, 376800, Note_off_c, 2, 61, 95
4, 376800, Note_off_c, 2, 55, 95
4, 376800, Note_off_c, 2, 51, 95
4, 376800, Note_on_c, 2, 61, 95
4, 376800, Note_on_c, 2, 55, 95
4, 376800, Note_on_c, 2, 51, 95
4, 377040, Note_off_c, 2, 61, 95
4, 377040, Note_off_c, 2, 55, 95
4, 377040, Note_off_c, 2, 51, 95
4, 377040, Note_on_c, 2, 61, 95
4, 377040, Note_on_c, 2, 55, 95
4, 377040, Note_on_c, 2, 51, 95
4, 377280, Note_off_c, 2, 61, 95
4, 377280, Note_off_c, 2, 55, 95
4, 377280, Note_off_c, 2, 51, 95
4, 377280, Note_on_c, 2, 61, 95
4, 377280, Note_on_c, 2, 55, 95
4, 377280, Note_on_c, 2, 51, 95
4, 377520, Note_off_c, 2, 61, 95
4, 377520, Note_off_c, 2, 55, 95
4, 377520, Note_off_c, 2, 51, 95
4, 377520, Note_on_c, 2, 61, 95
4, 377520, Note_on_c, 2, 55, 95
4, 377520, Note_on_c, 2, 51, 95
4, 377760, Note_off_c, 2, 61, 95
4, 377760, Note_off_c, 2, 55, 95
4, 377760, Note_off_c, 2, 51, 95
4, 377760, Note_on_c, 2, 61, 95
4, 377760, Note_on_c, 2, 55, 95
4, 377760, Note_on_c, 2, 51, 95
4, 378000, Note_off_c, 2, 61, 95
4, 378000, Note_off_c, 2, 55, 95
4, 378000, Note_off_c, 2, 51, 95
4, 378000, Note_on_c, 2, 61, 95
4, 378000, Note_on_c, 2, 55, 95
4, 378000, Note_on_c, 2, 51, 95
4, 378240, Note_off_c, 2, 61, 95
4, 378240, Note_off_c, 2, 55, 95
4, 378240, Note_off_c, 2, 51, 95
4, 378240, Note_on_c, 2, 61, 95
4, 378240, Note_on_c, 2, 55, 95
4, 378240, Note_on_c, 2, 51, 95
4, 378480, Note_off_c, 2, 61, 95
4, 378480, Note_off_c, 2, 55, 95
4, 378480, Note_off_c, 2, 51, 95
4, 378480, Note_on_c, 2, 61, 95
4, 378480, Note_on_c, 2, 55, 95
4, 378480, Note_on_c, 2, 51, 95
4, 378720, Note_off_c, 2, 61, 95
4, 378720, Note_off_c, 2, 55, 95
4, 378720, Note_off_c, 2, 51, 95
4, 378720, Note_on_c, 2, 61, 95
4, 378720, Note_on_c, 2, 55, 95
4, 378720, Note_on_c, 2, 51, 95
4, 379200, Note_off_c, 2, 61, 95
4, 379200, Note_off_c, 2, 55, 95
4, 379200, Note_off_c, 2, 51, 95
4, 379200, Note_on_c, 2, 61, 95
4, 379200, Note_on_c, 2, 55, 95
4, 379200, Note_on_c, 2, 51, 95
4, 379440, Note_off_c, 2, 61, 95
4, 379440, Note_off_c, 2, 55, 95
4, 379440, Note_off_c, 2, 51, 95
4, 379440, Note_on_c, 2, 61, 95
4, 379440, Note_on_c, 2, 55, 95
4, 379440, Note_on_c, 2, 51, 95
4, 379680, Note_off_c, 2, 61, 95
4, 379680, Note_off_c, 2, 55, 95
4, 379680, Note_off_c, 2, 51, 95
4, 379680, Note_on_c, 2, 61, 95
4, 379680, Note_on_c, 2, 55, 95
4, 379680, Note_on_c, 2, 51, 95
4, 379920, Note_off_c, 2, 61, 95
4, 379920, Note_off_c, 2, 55, 95
4, 379920, Note_off_c, 2, 51, 95
4, 379920, Note_on_c, 2, 61, 95
4, 379920, Note_on_c, 2, 55, 95
4, 379920, Note_on_c, 2, 51, 95
4, 380160, Note_off_c, 2, 61, 95
4, 380160, Note_off_c, 2, 55, 95
4, 380160, Note_off_c, 2, 51, 95
4, 380160, Note_on_c, 2, 62, 95
4, 380160, Note_on_c, 2, 56, 95
4, 380880, Note_off_c, 2, 62, 95
4, 380880, Note_off_c, 2, 56, 95
4, 380880, Note_on_c, 2, 46, 95
4, 381120, Note_off_c, 2, 46, 95
4, 381120, Note_on_c, 2, 62, 95
4, 381120, Note_on_c, 2, 56, 95
4, 381600, Note_off_c, 2, 62, 95
4, 381600, Note_off_c, 2, 56, 95
4, 381600, Note_on_c, 2, 62, 95
4, 381600, Note_on_c, 2, 56, 95
4, 382080, Note_off_c, 2, 62, 95
4, 382080, Note_off_c, 2, 56, 95
4, 382080, Note_on_c, 2, 67, 95
4, 382080, Note_on_c, 2, 62, 95
4, 382080, Note_on_c, 2, 56, 95
4, 382560, Note_off_c, 2, 67, 95
4, 382560, Note_off_c, 2, 62, 95
4, 382560, Note_off_c, 2, 56, 95
4, 382560, Note_on_c, 2, 67, 95
4, 382560, Note_on_c, 2, 62, 95
4, 382560, Note_on_c, 2, 56, 95
4, 382800, Note_off_c, 2, 67, 95
4, 382800, Note_off_c, 2, 62, 95
4, 382800, Note_off_c, 2, 56, 95
4, 382800, Note_on_c, 2, 44, 95
4, 382920, Note_on_c, 3, 67, 79
4, 382920, Note_on_c, 3, 62, 79
4, 382920, Note_on_c, 3, 56, 79
4, 382920, Note_on_c, 3, 46, 79
4, 383040, Note_off_c, 2, 44, 95
4, 383040, Note_off_c, 3, 67, 79
4, 383040, Note_on_c, 3, 68, 95
4, 383040, Note_off_c, 3, 62, 79
4, 383040, Note_on_c, 3, 63, 95
4, 383040, Note_off_c, 3, 56, 79
4, 383040, Note_on_c, 3, 57, 95
4, 383040, Note_off_c, 3, 46, 79
4, 383040, Note_on_c, 3, 47, 95
4, 383280, Note_off_c, 3, 68, 95
4, 383280, Note_off_c, 3, 63, 95
4, 383280, Note_off_c, 3, 57, 95
4, 383280, Note_off_c, 3, 47, 95
4, 383280, Note_on_c, 2, 68, 95
4, 383280, Note_on_c, 2, 63, 95
4, 383280, Note_on_c, 2, 57, 95
4, 383400, Note_off_c, 2, 68, 95
4, 383400, Note_off_c, 2, 63, 95
4, 383400, Note_off_c, 2, 57, 95
4, 383400, Note_on_c, 2, 68, 95
4, 383400, Note_on_c, 2, 63, 95
4, 383520, Note_off_c, 2, 68, 95
4, 383520, Note_off_c, 2, 63, 95
4, 383520, Note_on_c, 2, 68, 95
4, 383520, Note_on_c, 2, 63, 95
4, 383520, Note_on_c, 2, 57, 95
4, 383520, Note_on_c, 2, 44, 95
4, 383520, Note_on_c, 2, 47, 95
4, 383562, Note_off_c, 2, 44, 95
4, 383760, Note_off_c, 2, 68, 95
4, 383760, Note_off_c, 2, 63, 95
4, 383760, Note_off_c, 2, 57, 95
4, 383760, Note_off_c, 2, 47, 95
4, 383760, Note_on_c, 2, 57, 95
4, 384000, Note_off_c, 2, 57, 95
4, 384000, Note_on_c, 2, 68, 95
4, 384000, Note_on_c, 2, 63, 95
4, 384240, Note_off_c, 2, 68, 95
4, 384240, Note_off_c, 2, 63, 95
4, 384240, Note_on_c, 2, 63, 95
4, 384240, Note_on_c, 2, 57, 95
4, 384240, Note_on_c, 2, 44, 95
4, 384240, Note_on_c, 2, 47, 95
4, 384282, Note_off_c, 2, 44, 95
4, 384360, Note_off_c, 2, 63, 95
4, 384360, Note_off_c, 2, 57, 95
4, 384360, Note_off_c, 2, 47, 95
4, 384360, Note_on_c, 2, 63, 95
4, 384360, Note_on_c, 2, 57, 95
4, 384360, Note_on_c, 2, 44, 95
4, 384360, Note_on_c, 2, 47, 95
4, 384360, Note_on_c, 3, 68, 79
4, 384360, Note_on_c, 3, 63, 79
4, 384360, Note_on_c, 3, 57, 79
4, 384402, Note_off_c, 2, 44, 95
4, 384480, Note_off_c, 2, 63, 95
4, 384480, Note_off_c, 2, 57, 95
4, 384480, Note_off_c, 2, 47, 95
4, 384480, Note_off_c, 3, 68, 79
4, 384480, Note_on_c, 3, 70, 95
4, 384480, Note_off_c, 3, 63, 79
4, 384480, Note_on_c, 3, 65, 95
4, 384480, Note_off_c, 3, 57, 79
4, 384480, Note_on_c, 3, 59, 95
4, 384720, Note_off_c, 3, 70, 95
4, 384720, Note_off_c, 3, 65, 95
4, 384720, Note_off_c, 3, 59, 95
4, 384720, Note_on_c, 2, 70, 95
4, 384720, Note_on_c, 2, 65, 95
4, 384720, Note_on_c, 2, 59, 95
4, 384840, Note_off_c, 2, 70, 95
4, 384840, Note_off_c, 2, 65, 95
4, 384840, Note_off_c, 2, 59, 95
4, 384840, Note_on_c, 2, 70, 95
4, 384840, Note_on_c, 2, 65, 95
4, 384840, Note_on_c, 2, 59, 95
4, 384960, Note_off_c, 2, 70, 95
4, 384960, Note_off_c, 2, 65, 95
4, 384960, Note_off_c, 2, 59, 95
4, 384960, Note_on_c, 3, 70, 95
4, 384960, Note_on_c, 3, 65, 95
4, 384960, Note_on_c, 3, 59, 95
4, 385080, Pitch_bend_c, 3, 9600
4, 385080, Pitch_bend_c, 3, 8192
4, 385080, Note_off_c, 3, 70, 95
4, 385080, Pitch_bend_c, 3, 9600
4, 385080, Pitch_bend_c, 3, 8192
4, 385080, Note_off_c, 3, 65, 95
4, 385080, Pitch_bend_c, 3, 9600
4, 385080, Pitch_bend_c, 3, 8192
4, 385080, Note_off_c, 3, 59, 95
4, 385080, Note_on_c, 2, 72, 95
4, 385080, Note_on_c, 2, 67, 95
4, 385080, Note_on_c, 2, 61, 95
4, 385200, Note_off_c, 2, 72, 95
4, 385200, Note_off_c, 2, 67, 95
4, 385200, Note_off_c, 2, 61, 95
4, 385200, Note_on_c, 2, 72, 95
4, 385200, Note_on_c, 2, 67, 95
4, 385200, Note_on_c, 2, 61, 95
4, 385320, Note_off_c, 2, 72, 95
4, 385320, Note_off_c, 2, 67, 95
4, 385320, Note_off_c, 2, 61, 95
4, 385320, Note_on_c, 2, 72, 95
4, 385320, Note_on_c, 2, 67, 95
4, 385440, Note_off_c, 2, 72, 95
4, 385440, Note_off_c, 2, 67, 95
4, 385440, Note_on_c, 2, 70, 95
4, 385440, Note_on_c, 2, 65, 95
4, 385440, Note_on_c, 2, 59, 95
4, 385680, Note_off_c, 2, 70, 95
4, 385680, Note_off_c, 2, 65, 95
4, 385680, Note_off_c, 2, 59, 95
4, 385680, Note_on_c, 2, 70, 95
4, 385680, Note_on_c, 2, 65, 95
4, 385680, Note_on_c, 2, 59, 95
4, 385800, Note_off_c, 2, 70, 95
4, 385800, Note_off_c, 2, 65, 95
4, 385800, Note_off_c, 2, 59, 95
4, 385800, Note_on_c, 2, 70, 95
4, 385800, Note_on_c, 2, 65, 95
4, 385800, Note_on_c, 2, 59, 47
4, 385920, Note_off_c, 2, 70, 95
4, 385920, Note_off_c, 2, 65, 95
4, 385920, Note_off_c, 2, 59, 47
4, 385920, Note_on_c, 2, 68, 95
4, 385920, Note_on_c, 2, 63, 95
4, 385920, Note_on_c, 2, 57, 95
4, 386040, Note_off_c, 2, 68, 95
4, 386040, Note_off_c, 2, 63, 95
4, 386040, Note_off_c, 2, 57, 95
4, 386040, Note_on_c, 2, 68, 95
4, 386040, Note_on_c, 2, 63, 95
4, 386040, Note_on_c, 2, 57, 95
4, 386160, Note_off_c, 2, 68, 95
4, 386160, Note_off_c, 2, 63, 95
4, 386160, Note_off_c, 2, 57, 95
4, 386160, Note_on_c, 2, 68, 95
4, 386160, Note_on_c, 2, 63, 95
4, 386160, Note_on_c, 2, 57, 95
4, 386400, Note_off_c, 2, 68, 95
4, 386400, Note_off_c, 2, 63, 95
4, 386400, Note_off_c, 2, 57, 95
4, 386400, Note_on_c, 2, 67, 95
4, 386400, Note_on_c, 2, 62, 95
4, 386400, Note_on_c, 2, 56, 95
4, 386640, Note_off_c, 2, 67, 95
4, 386640, Note_off_c, 2, 62, 95
4, 386640, Note_off_c, 2, 56, 95
4, 386640, Note_on_c, 2, 67, 95
4, 386640, Note_on_c, 2, 62, 95
4, 386640, Note_on_c, 2, 56, 95
4, 386880, Note_off_c, 2, 67, 95
4, 386880, Note_off_c, 2, 62, 95
4, 386880, Note_off_c, 2, 56, 95
4, 386880, Note_on_c, 2, 67, 95
4, 386880, Note_on_c, 2, 62, 95
4, 386880, Note_on_c, 2, 56, 95
4, 386880, Note_on_c, 2, 44, 95
4, 386880, Note_on_c, 2, 46, 95
4, 386922, Note_off_c, 2, 44, 95
4, 387120, Note_off_c, 2, 67, 95
4, 387120, Note_off_c, 2, 62, 95
4, 387120, Note_off_c, 2, 56, 95
4, 387120, Note_off_c, 2, 46, 95
4, 387120, Note_on_c, 2, 44, 95
4, 387360, Note_off_c, 2, 44, 95
4, 387360, Note_on_c, 2, 67, 95
4, 387360, Note_on_c, 2, 62, 95
4, 387360, Note_on_c, 2, 56, 95
4, 387360, Note_on_c, 2, 44, 95
4, 387360, Note_on_c, 2, 46, 95
4, 387402, Note_off_c, 2, 44, 95
4, 387600, Note_off_c, 2, 67, 95
4, 387600, Note_off_c, 2, 62, 95
4, 387600, Note_off_c, 2, 56, 95
4, 387600, Note_off_c, 2, 46, 95
4, 387600, Note_on_c, 2, 67, 95
4, 387600, Note_on_c, 2, 62, 95
4, 387600, Note_on_c, 2, 56, 95
4, 387840, Note_off_c, 2, 67, 95
4, 387840, Note_off_c, 2, 62, 95
4, 387840, Note_off_c, 2, 56, 95
4, 387840, Note_on_c, 2, 67, 95
4, 387840, Note_on_c, 2, 62, 95
4, 387840, Note_on_c, 2, 56, 95
4, 388080, Note_off_c, 2, 67, 95
4, 388080, Note_off_c, 2, 62, 95
4, 388080, Note_off_c, 2, 56, 95
4, 388080, Note_on_c, 2, 67, 95
4, 388080, Note_on_c, 2, 62, 95
4, 388080, Note_on_c, 2, 56, 95
4, 388200, Note_off_c, 2, 67, 95
4, 388200, Note_off_c, 2, 62, 95
4, 388200, Note_off_c, 2, 56, 95
4, 388200, Note_on_c, 2, 67, 95
4, 388200, Note_on_c, 2, 62, 95
4, 388200, Note_on_c, 2, 56, 95
4, 388320, Note_off_c, 2, 67, 95
4, 388320, Note_off_c, 2, 62, 95
4, 388320, Note_off_c, 2, 56, 95
4, 388320, Note_on_c, 2, 67, 95
4, 388320, Note_on_c, 2, 62, 95
4, 388320, Note_on_c, 2, 56, 95
4, 388560, Note_off_c, 2, 67, 95
4, 388560, Note_off_c, 2, 62, 95
4, 388560, Note_off_c, 2, 56, 95
4, 388560, Note_on_c, 2, 67, 95
4, 388560, Note_on_c, 2, 62, 95
4, 388560, Note_on_c, 2, 56, 95
4, 388800, Note_off_c, 2, 67, 95
4, 388800, Note_off_c, 2, 62, 95
4, 388800, Note_off_c, 2, 56, 95
4, 388800, Note_on_c, 2, 65, 95
4, 388960, Note_off_c, 2, 65, 95
4, 388960, Pitch_bend_c, 3, 9600
4, 388960, Note_on_c, 3, 68, 95
4, 389120, Pitch_bend_c, 3, 9600
4, 389120, Pitch_bend_c, 3, 8192
4, 389120, Note_off_c, 3, 68, 95
4, 389120, Note_on_c, 2, 65, 95
4, 389120, Note_on_c, 2, 61, 95
4, 389280, Note_off_c, 2, 65, 95
4, 389280, Note_off_c, 2, 61, 95
4, 389280, Note_on_c, 2, 61, 95
4, 389600, Note_off_c, 2, 61, 95
4, 389600, Note_on_c, 2, 58, 95
4, 389760, Note_off_c, 2, 58, 95
4, 389760, Note_on_c, 2, 61, 95
4, 390000, Note_off_c, 2, 61, 95
4, 390000, Note_on_c, 2, 63, 95
4, 390240, Note_off_c, 2, 63, 95
4, 390240, Pitch_bend_c, 3, 8192
4, 390240, Note_on_c, 3, 63, 95
4, 390264, Pitch_bend_c, 3, 8320
4, 390288, Pitch_bend_c, 3, 8448
4, 390312, Pitch_bend_c, 3, 8576
4, 390336, Pitch_bend_c, 3, 8704
4, 390360, Pitch_bend_c, 3, 8832
4, 390360, Pitch_bend_c, 3, 8832
4, 390480, Pitch_bend_c, 3, 8832
4, 390480, Pitch_bend_c, 3, 8192
4, 390480, Note_off_c, 3, 63, 95
4, 390480, Note_on_c, 2, 63, 95
4, 390600, Note_off_c, 2, 63, 95
4, 390600, Note_on_c, 2, 65, 95
4, 390600, Note_on_c, 2, 61, 95
4, 390720, Note_off_c, 2, 65, 95
4, 390720, Note_off_c, 2, 61, 95
4, 390720, Note_on_c, 2, 63, 95
4, 390840, Note_off_c, 2, 63, 95
4, 390840, Note_on_c, 2, 61, 95
4, 390960, Note_off_c, 2, 61, 95
4, 390960, Note_on_c, 2, 58, 95
4, 391200, Note_off_c, 2, 58, 95
4, 391200, Note_on_c, 2, 61, 95
4, 391440, Note_off_c, 2, 61, 95
4, 391440, Note_on_c, 2, 63, 95
4, 391680, Note_off_c, 2, 63, 95
4, 391680, Pitch_bend_c, 3, 9600
4, 391680, Note_on_c, 3, 63, 111
4, 391680, Note_on_c, 3, 58, 111
4, 391840, Pitch_bend_c, 3, 8192
4, 392000, Pitch_bend_c, 3, 8320
4, 392160, Pitch_bend_c, 3, 8192
4, 392320, Pitch_bend_c, 3, 9600
4, 392320, Pitch_bend_c, 3, 8320
4, 392349, Pitch_bend_c, 3, 9472
4, 392378, Pitch_bend_c, 3, 9344
4, 392407, Pitch_bend_c, 3, 9216
4, 392436, Pitch_bend_c, 3, 9088
4, 392465, Pitch_bend_c, 3, 8960
4, 392480, Pitch_bend_c, 3, 8192
4, 392494, Pitch_bend_c, 3, 8832
4, 392523, Pitch_bend_c, 3, 8704
4, 392552, Pitch_bend_c, 3, 8576
4, 392581, Pitch_bend_c, 3, 8448
4, 392610, Pitch_bend_c, 3, 8320
4, 392639, Pitch_bend_c, 3, 8192
4, 392640, Pitch_bend_c, 3, 8192
4, 392640, Pitch_bend_c, 3, 8192
4, 392640, Note_off_c, 3, 63, 111
4, 392640, Pitch_bend_c, 3, 8320
4, 392640, Pitch_bend_c, 3, 8192
4, 392640, Note_off_c, 3, 58, 111
4, 392640, Note_on_c, 2, 63, 63
4, 392760, Note_off_c, 2, 63, 63
4, 392760, Note_on_c, 2, 61, 70
4, 392880, Note_off_c, 2, 61, 70
4, 392880, Note_on_c, 2, 58, 79
4, 393000, Note_off_c, 2, 58, 79
4, 393000, Note_on_c, 2, 56, 54
4, 393120, Note_off_c, 2, 56, 54
4, 393120, Note_on_c, 2, 58, 70
4, 393240, Note_off_c, 2, 58, 70
4, 393240, Note_on_c, 2, 56, 70
4, 393360, Note_off_c, 2, 56, 70
4, 393360, Note_on_c, 2, 58, 70
4, 393480, Note_off_c, 2, 58, 70
4, 393480, Note_on_c, 2, 56, 70
4, 393600, Note_off_c, 2, 56, 70
4, 393600, Note_on_c, 2, 58, 70
4, 393720, Note_off_c, 2, 58, 70
4, 393720, Note_on_c, 2, 56, 70
4, 393840, Note_off_c, 2, 56, 70
4, 393840, Note_on_c, 2, 58, 70
4, 393960, Note_off_c, 2, 58, 70
4, 393960, Note_on_c, 2, 56, 70
4, 394080, Note_off_c, 2, 56, 70
4, 394080, Note_on_c, 2, 53, 79
4, 394200, Note_off_c, 2, 53, 79
4, 394200, Note_on_c, 2, 51, 54
4, 394320, Note_off_c, 2, 51, 54
4, 394320, Note_on_c, 2, 48, 63
4, 394560, Note_off_c, 2, 48, 63
4, 395520, Note_on_c, 2, 48, 95
4, 395760, Note_off_c, 2, 48, 95
4, 395760, Note_on_c, 2, 48, 95
4, 396000, Note_off_c, 2, 48, 95
4, 396000, Note_on_c, 2, 51, 95
4, 396240, Note_off_c, 2, 51, 95
4, 396240, Note_on_c, 2, 53, 70
4, 396480, Note_off_c, 2, 53, 70
4, 396480, Note_on_c, 2, 56, 95
4, 396720, Note_off_c, 2, 56, 95
4, 396720, Note_on_c, 2, 58, 95
4, 396960, Note_off_c, 2, 58, 95
4, 396960, Note_on_c, 2, 56, 95
4, 397200, Note_off_c, 2, 56, 95
4, 397200, Note_on_c, 2, 53, 95
4, 397440, Note_off_c, 2, 53, 95
4, 397440, Note_on_c, 2, 61, 111
4, 397440, Note_on_c, 2, 49, 95
4, 397440, Note_on_c, 2, 51, 111
4, 397482, Note_off_c, 2, 49, 95
4, 397920, Note_off_c, 2, 61, 111
4, 397920, Note_off_c, 2, 51, 111
4, 403200, Note_on_c, 2, 65, 111
4, 403200, Note_on_c, 2, 62, 111
4, 403200, Note_on_c, 2, 58, 111
4, 403200, Note_on_c, 2, 53, 111
4, 403200, Note_on_c, 2, 46, 111
4, 404640, Note_off_c, 2, 65, 111
4, 404640, Note_off_c, 2, 62, 111
4, 404640, Note_off_c, 2, 58, 111
4, 404640, Note_off_c, 2, 53, 111
4, 404640, Note_off_c, 2, 46, 111
4, 404640, Pitch_bend_c, 3, 8192
4, 404640, Note_on_c, 3, 63, 111
4, 404654, Pitch_bend_c, 3, 8320
4, 404668, Pitch_bend_c, 3, 8448
4, 404682, Pitch_bend_c, 3, 8576
4, 404696, Pitch_bend_c, 3, 8704
4, 404710, Pitch_bend_c, 3, 8832
4, 404724, Pitch_bend_c, 3, 8960
4, 404738, Pitch_bend_c, 3, 9088
4, 404752, Pitch_bend_c, 3, 9216
4, 404766, Pitch_bend_c, 3, 9344
4, 404780, Pitch_bend_c, 3, 9472
4, 404794, Pitch_bend_c, 3, 9600
4, 404800, Pitch_bend_c, 3, 9600
4, 405600, Pitch_bend_c, 3, 9600
4, 405600, Pitch_bend_c, 3, 8192
4, 405600, Note_off_c, 3, 63, 111
4, 405600, Note_on_c, 2, 65, 95
4, 405920, Note_off_c, 2, 65, 95
4, 405920, Note_on_c, 2, 54, 47
4, 406080, Note_off_c, 2, 54, 47
4, 406080, Pitch_bend_c, 3, 9600
4, 406080, Note_on_c, 3, 68, 95
4, 406320, Pitch_bend_c, 3, 9600
4, 406320, Pitch_bend_c, 3, 8192
4, 406320, Note_off_c, 3, 68, 95
4, 406320, Note_on_c, 2, 68, 95
4, 406560, Note_off_c, 2, 68, 95
4, 406560, Note_on_c, 2, 65, 95
4, 406800, Note_off_c, 2, 65, 95
4, 406800, Pitch_bend_c, 3, 8192
4, 406800, Note_on_c, 3, 63, 95
4, 406810, Pitch_bend_c, 3, 8320
4, 406820, Pitch_bend_c, 3, 8448
4, 406830, Pitch_bend_c, 3, 8576
4, 406840, Pitch_bend_c, 3, 8704
4, 406850, Pitch_bend_c, 3, 8832
4, 406860, Pitch_bend_c, 3, 8960
4, 406870, Pitch_bend_c, 3, 9088
4, 406880, Pitch_bend_c, 3, 9216
4, 406890, Pitch_bend_c, 3, 9344
4, 406900, Pitch_bend_c, 3, 9472
4, 406910, Pitch_bend_c, 3, 9600
4, 406920, Pitch_bend_c, 3, 9600
4, 407040, Pitch_bend_c, 3, 9600
4, 407040, Pitch_bend_c, 3, 8192
4, 407040, Note_off_c, 3, 63, 95
4, 407040, Note_on_c, 2, 63, 95
4, 407280, Note_off_c, 2, 63, 95
4, 407280, Note_on_c, 2, 61, 95
4, 407520, Note_off_c, 2, 61, 95
4, 407520, Note_on_c, 2, 63, 95
4, 407760, Note_off_c, 2, 63, 95
4, 407760, Note_on_c, 2, 61, 95
4, 408000, Note_off_c, 2, 61, 95
4, 408000, Note_on_c, 2, 58, 95
4, 408240, Note_off_c, 2, 58, 95
4, 408240, Note_on_c, 2, 61, 95
4, 408480, Note_off_c, 2, 61, 95
4, 408480, Note_on_c, 2, 63, 95
4, 408720, Note_off_c, 2, 63, 95
4, 408720, Pitch_bend_c, 3, 8192
4, 408720, Note_on_c, 3, 63, 95
4, 408730, Pitch_bend_c, 3, 8320
4, 408740, Pitch_bend_c, 3, 8448
4, 408750, Pitch_bend_c, 3, 8576
4, 408760, Pitch_bend_c, 3, 8704
4, 408770, Pitch_bend_c, 3, 8832
4, 408780, Pitch_bend_c, 3, 8960
4, 408790, Pitch_bend_c, 3, 9088
4, 408800, Pitch_bend_c, 3, 9216
4, 408810, Pitch_bend_c, 3, 9344
4, 408820, Pitch_bend_c, 3, 9472
4, 408830, Pitch_bend_c, 3, 9600
4, 408840, Pitch_bend_c, 3, 9600
4, 408960, Pitch_bend_c, 3, 9600
4, 408960, Pitch_bend_c, 3, 8192
4, 408960, Note_off_c, 3, 63, 95
4, 408960, Note_on_c, 2, 61, 95
4, 409200, Note_off_c, 2, 61, 95
4, 409200, Note_on_c, 2, 58, 95
4, 409320, Note_off_c, 2, 58, 95
4, 409320, Note_on_c, 2, 54, 47
4, 409320, Note_on_c, 2, 49, 22
4, 409440, Note_off_c, 2, 54, 47
4, 409440, Note_off_c, 2, 49, 22
4, 409440, Note_on_c, 3, 56, 95
4, 410400, Note_off_c, 3, 56, 95
4, 410400, Note_on_c, 2, 51, 95
4, 410430, Note_on_c, 2, 57, 95
4, 410460, Note_on_c, 2, 61, 95
4, 410490, Note_on_c, 2, 66, 95
4, 410880, Note_off_c, 2, 66, 95
4, 410880, Note_off_c, 2, 61, 95
4, 410880, Note_off_c, 2, 57, 95
4, 410880, Note_off_c, 2, 51, 95
4, 411360, Note_on_c, 2, 50, 111
4, 411390, Note_on_c, 2, 56, 111
4, 411420, Note_on_c, 2, 60, 111
4, 411450, Note_on_c, 2, 65, 111
4, 412800, Note_off_c, 2, 65, 111
4, 412800, Note_off_c, 2, 60, 111
4, 412800, Note_off_c, 2, 56, 111
4, 412800, Note_off_c, 2, 50, 111
4, 412800, Note_on_c, 2, 65, 95
4, 412830, Note_on_c, 2, 60, 95
4, 412860, Note_on_c, 2, 56, 95
4, 412890, Note_on_c, 2, 50, 95
4, 413760, Note_off_c, 2, 65, 95
4, 413760, Note_off_c, 2, 60, 95
4, 413760, Note_off_c, 2, 56, 95
4, 413760, Note_off_c, 2, 50, 95
4, 413760, Note_on_c, 2, 56, 95
4, 413760, Note_on_c, 2, 50, 95
4, 414720, Note_off_c, 2, 56, 95
4, 414720, Note_off_c, 2, 50, 95
4, 414720, Note_on_c, 2, 39, 95
4, 414759, Note_off_c, 2, 58, 95
4, 414759, Note_off_c, 2, 54, 95
4, 414759, Note_off_c, 2, 49, 95
4, 414759, Note_off_c, 2, 44, 95
4, 414759, Note_off_c, 2, 39, 95
4, 414780, Note_on_c, 2, 44, 95
4, 414840, Note_on_c, 2, 49, 95
4, 414900, Note_on_c, 2, 54, 95
4, 414960, Note_on_c, 2, 58, 95
4, 414960, End_track
5, 0, Start_track
5, 0, Pitch_bend_c, 4, 8192
5, 0, Control_c, 4, 7, 95
5, 0, Control_c, 4, 10, 79
5, 0, Control_c, 4, 93, 31
5, 0, Control_c, 4, 91, 31
5, 0, Control_c, 4, 95, 0
5, 0, Control_c, 4, 92, 0
5, 0, Control_c, 4, 11, 127
5, 0, Program_c, 4, 33
5, 0, Control_c, 5, 7, 95
5, 0, Control_c, 5, 10, 79
5, 0, Control_c, 5, 93, 31
5, 0, Control_c, 5, 91, 31
5, 0, Control_c, 5, 95, 0
5, 0, Control_c, 5, 92, 0
5, 0, Control_c, 5, 11, 127
5, 0, Program_c, 5, 33
5, 0, Note_on_c, 4, 34, 63
5, 1440, Note_off_c, 4, 34, 63
5, 1440, Note_on_c, 4, 34, 79
5, 2880, Note_off_c, 4, 34, 79
5, 2880, Note_on_c, 4, 34, 79
5, 4320, Note_off_c, 4, 34, 79
5, 4320, Note_on_c, 4, 34, 79
5, 5760, Note_off_c, 4, 34, 79
5, 5760, Note_on_c, 4, 34, 79
5, 7200, Note_off_c, 4, 34, 79
5, 7200, Note_on_c, 4, 34, 79
5, 8640, Note_off_c, 4, 34, 79
5, 8640, Note_on_c, 4, 34, 79
5, 10080, Note_off_c, 4, 34, 79
5, 10080, Note_on_c, 4, 34, 79
5, 11520, Note_off_c, 4, 34, 79
5, 11520, Note_on_c, 4, 34, 95
5, 12960, Note_off_c, 4, 34, 95
5, 21480, Note_on_c, 5, 37, 79
5, 21600, Note_off_c, 5, 37, 79
5, 21600, Note_on_c, 5, 37, 95
5, 23040, Note_off_c, 5, 37, 95
5, 23040, Note_on_c, 4, 39, 95
5, 24000, Note_off_c, 4, 39, 95
5, 24000, Note_on_c, 4, 39, 95
5, 24240, Note_off_c, 4, 39, 95
5, 24240, Note_on_c, 5, 41, 95
5, 24360, Pitch_bend_c, 5, 8832
5, 24480, Pitch_bend_c, 5, 9600
5, 24480, Pitch_bend_c, 5, 8192
5, 24480, Note_off_c, 5, 41, 95
5, 24480, Note_on_c, 4, 43, 95
5, 25440, Note_off_c, 4, 43, 95
5, 25440, Note_on_c, 4, 43, 95
5, 25920, Note_off_c, 4, 43, 95
5, 25920, Note_on_c, 4, 46, 95
5, 26400, Note_off_c, 4, 46, 95
5, 26880, Note_on_c, 4, 46, 95
5, 27360, Note_off_c, 4, 46, 95
5, 27360, Note_on_c, 4, 49, 95
5, 27600, Note_off_c, 4, 49, 95
5, 27600, Note_on_c, 4, 46, 95
5, 27840, Note_off_c, 4, 46, 95
5, 27840, Note_on_c, 4, 49, 95
5, 28320, Note_off_c, 4, 49, 95
5, 28320, Note_on_c, 4, 51, 95
5, 28800, Note_off_c, 4, 51, 95
5, 28800, Note_on_c, 4, 39, 95
5, 29280, Note_off_c, 4, 39, 95
5, 29760, Note_on_c, 4, 39, 95
5, 30000, Note_off_c, 4, 39, 95
5, 30000, Note_on_c, 5, 41, 95
5, 30120, Pitch_bend_c, 5, 8832
5, 30240, Pitch_bend_c, 5, 9600
5, 30240, Pitch_bend_c, 5, 8192
5, 30240, Note_off_c, 5, 41, 95
5, 30240, Note_on_c, 4, 43, 95
5, 31200, Note_off_c, 4, 43, 95
5, 31200, Note_on_c, 4, 43, 95
5, 31680, Note_off_c, 4, 43, 95
5, 31680, Note_on_c, 4, 46, 95
5, 32160, Note_off_c, 4, 46, 95
5, 32640, Note_on_c, 4, 46, 95
5, 33120, Note_off_c, 4, 46, 95
5, 33120, Note_on_c, 4, 49, 95
5, 33600, Note_off_c, 4, 49, 95
5, 33600, Note_on_c, 4, 46, 95
5, 34080, Note_off_c, 4, 46, 95
5, 34080, Note_on_c, 5, 44, 95
5, 34200, Pitch_bend_c, 5, 7552
5, 34320, Pitch_bend_c, 5, 6784
5, 34320, Pitch_bend_c, 5, 8192
5, 34320, Note_off_c, 5, 44, 95
5, 34320, Note_on_c, 4, 42, 47
5, 34560, Note_off_c, 4, 42, 47
5, 34560, Note_on_c, 4, 34, 95
5, 35520, Note_off_c, 4, 34, 95
5, 35520, Note_on_c, 4, 34, 95
5, 36000, Note_off_c, 4, 34, 95
5, 36000, Note_on_c, 4, 38, 95
5, 36960, Note_off_c, 4, 38, 95
5, 36960, Note_on_c, 4, 38, 95
5, 37440, Note_off_c, 4, 38, 95
5, 37440, Note_on_c, 4, 41, 95
5, 38400, Note_off_c, 4, 41, 95
5, 38400, Note_on_c, 4, 41, 95
5, 38880, Note_off_c, 4, 41, 95
5, 38880, Note_on_c, 4, 44, 95
5, 39360, Note_off_c, 4, 44, 95
5, 39360, Note_on_c, 4, 46, 95
5, 39840, Note_off_c, 4, 46, 95
5, 39840, Note_on_c, 4, 44, 95
5, 40320, Note_off_c, 4, 44, 95
5, 40320, Note_on_c, 4, 34, 95
5, 41280, Note_off_c, 4, 34, 95
5, 41280, Note_on_c, 4, 34, 95
5, 41760, Note_off_c, 4, 34, 95
5, 41760, Note_on_c, 4, 38, 95
5, 42720, Note_off_c, 4, 38, 95
5, 42720, Note_on_c, 4, 38, 95
5, 43200, Note_off_c, 4, 38, 95
5, 43200, Note_on_c, 4, 41, 95
5, 44160, Note_off_c, 4, 41, 95
5, 44160, Note_on_c, 4, 41, 95
5, 44640, Note_off_c, 4, 41, 95
5, 44640, Note_on_c, 4, 44, 95
5, 45600, Note_off_c, 4, 44, 95
5, 45600, Note_on_c, 4, 44, 95
5, 46080, Note_off_c, 4, 44, 95
5, 46080, Note_on_c, 4, 41, 95
5, 47040, Note_off_c, 4, 41, 95
5, 47040, Note_on_c, 4, 41, 95
5, 47520, Note_off_c, 4, 41, 95
5, 47520, Note_on_c, 4, 41, 95
5, 48000, Note_off_c, 4, 41, 95
5, 48000, Note_on_c, 4, 36, 95
5, 48480, Note_off_c, 4, 36, 95
5, 48480, Note_on_c, 4, 39, 95
5, 48960, Note_off_c, 4, 39, 95
5, 48960, Note_on_c, 4, 41, 95
5, 49920, Note_off_c, 4, 41, 95
5, 49920, Note_on_c, 4, 41, 95
5, 50400, Note_off_c, 4, 41, 95
5, 50400, Note_on_c, 4, 41, 95
5, 50880, Note_off_c, 4, 41, 95
5, 50880, Note_on_c, 4, 36, 95
5, 51360, Note_off_c, 4, 36, 95
5, 51360, Note_on_c, 4, 40, 95
5, 51840, Note_off_c, 4, 40, 95
5, 51840, Note_on_c, 4, 39, 95
5, 52800, Note_off_c, 4, 39, 95
5, 52800, Note_on_c, 4, 39, 95
5, 53280, Note_off_c, 4, 39, 95
5, 53280, Note_on_c, 4, 39, 95
5, 53760, Note_off_c, 4, 39, 95
5, 53760, Note_on_c, 4, 39, 95
5, 54240, Note_off_c, 4, 39, 95
5, 54240, Note_on_c, 4, 39, 95
5, 54720, Note_off_c, 4, 39, 95
5, 54720, Note_on_c, 4, 37, 95
5, 55680, Note_off_c, 4, 37, 95
5, 55680, Note_on_c, 4, 37, 95
5, 56160, Note_off_c, 4, 37, 95
5, 56160, Note_on_c, 4, 36, 95
5, 57120, Note_off_c, 4, 36, 95
5, 57120, Note_on_c, 4, 36, 95
5, 57600, Note_off_c, 4, 36, 95
5, 57600, Note_on_c, 4, 34, 95
5, 58560, Note_off_c, 4, 34, 95
5, 58560, Note_on_c, 4, 34, 95
5, 59040, Note_off_c, 4, 34, 95
5, 59040, Note_on_c, 4, 38, 95
5, 60000, Note_off_c, 4, 38, 95
5, 60000, Note_on_c, 4, 38, 95
5, 60480, Note_off_c, 4, 38, 95
5, 60480, Note_on_c, 4, 41, 95
5, 61440, Note_off_c, 4, 41, 95
5, 61440, Note_on_c, 4, 41, 95
5, 61920, Note_off_c, 4, 41, 95
5, 61920, Note_on_c, 4, 44, 95
5, 62400, Note_off_c, 4, 44, 95
5, 62400, Note_on_c, 4, 46, 95
5, 62880, Note_off_c, 4, 46, 95
5, 62880, Note_on_c, 4, 44, 95
5, 63360, Note_off_c, 4, 44, 95
5, 63360, Note_on_c, 4, 34, 95
5, 64320, Note_off_c, 4, 34, 95
5, 64320, Note_on_c, 4, 34, 95
5, 64800, Note_off_c, 4, 34, 95
5, 64800, Note_on_c, 4, 38, 95
5, 65280, Note_off_c, 4, 38, 95
5, 65280, Note_on_c, 4, 39, 95
5, 65760, Note_off_c, 4, 39, 95
5, 65760, Note_on_c, 4, 40, 95
5, 66240, Note_off_c, 4, 40, 95
5, 66240, Note_on_c, 4, 41, 95
5, 67200, Note_off_c, 4, 41, 95
5, 67200, Note_on_c, 4, 41, 95
5, 67680, Note_off_c, 4, 41, 95
5, 67680, Note_on_c, 4, 41, 95
5, 69120, Note_off_c, 4, 41, 95
5, 69120, Note_on_c, 4, 34, 95
5, 70080, Note_off_c, 4, 34, 95
5, 70080, Note_on_c, 4, 34, 95
5, 70320, Note_off_c, 4, 34, 95
5, 70320, Note_on_c, 5, 36, 95
5, 70440, Pitch_bend_c, 5, 8832
5, 70560, Pitch_bend_c, 5, 9600
5, 70560, Pitch_bend_c, 5, 8192
5, 70560, Note_off_c, 5, 36, 95
5, 70560, Note_on_c, 4, 38, 95
5, 71520, Note_off_c, 4, 38, 95
5, 71520, Note_on_c, 4, 38, 95
5, 72000, Note_off_c, 4, 38, 95
5, 72000, Note_on_c, 4, 41, 95
5, 72960, Note_off_c, 4, 41, 95
5, 72960, Note_on_c, 4, 41, 95
5, 73440, Note_off_c, 4, 41, 95
5, 73440, Note_on_c, 4, 44, 95
5, 73680, Note_off_c, 4, 44, 95
5, 73680, Note_on_c, 4, 41, 95
5, 73920, Note_off_c, 4, 41, 95
5, 73920, Note_on_c, 4, 44, 95
5, 74400, Note_off_c, 4, 44, 95
5, 74400, Note_on_c, 4, 46, 95
5, 74880, Note_off_c, 4, 46, 95
5, 74880, Note_on_c, 4, 39, 95
5, 75840, Note_off_c, 4, 39, 95
5, 75840, Note_on_c, 4, 39, 95
5, 76320, Note_off_c, 4, 39, 95
5, 76320, Note_on_c, 4, 43, 95
5, 77280, Note_off_c, 4, 43, 95
5, 77280, Note_on_c, 4, 43, 95
5, 77760, Note_off_c, 4, 43, 95
5, 77760, Note_on_c, 4, 46, 95
5, 78720, Note_off_c, 4, 46, 95
5, 78720, Note_on_c, 4, 46, 95
5, 79200, Note_off_c, 4, 46, 95
5, 79200, Note_on_c, 4, 51, 95
5, 79680, Note_off_c, 4, 51, 95
5, 79680, Note_on_c, 4, 49, 95
5, 80160, Note_off_c, 4, 49, 95
5, 80160, Note_on_c, 4, 46, 95
5, 80640, Note_off_c, 4, 46, 95
5, 80640, Note_on_c, 4, 34, 95
5, 81600, Note_off_c, 4, 34, 95
5, 81600, Note_on_c, 4, 34, 95
5, 82080, Note_off_c, 4, 34, 95
5, 82080, Note_on_c, 4, 38, 95
5, 83040, Note_off_c, 4, 38, 95
5, 83040, Note_on_c, 4, 38, 95
5, 83520, Note_off_c, 4, 38, 95
5, 83520, Note_on_c, 4, 41, 95
5, 84480, Note_off_c, 4, 41, 95
5, 84480, Note_on_c, 4, 41, 95
5, 84960, Note_off_c, 4, 41, 95
5, 84960, Note_on_c, 4, 44, 95
5, 85200, Note_off_c, 4, 44, 95
5, 85200, Note_on_c, 4, 41, 95
5, 85440, Note_off_c, 4, 41, 95
5, 85440, Note_on_c, 4, 44, 95
5, 85920, Note_off_c, 4, 44, 95
5, 85920, Note_on_c, 4, 46, 95
5, 86400, Note_off_c, 4, 46, 95
5, 86400, Note_on_c, 4, 34, 95
5, 87840, Note_off_c, 4, 34, 95
5, 87840, Note_on_c, 4, 44, 95
5, 88320, Note_off_c, 4, 44, 95
5, 88320, Note_on_c, 4, 46, 95
5, 88800, Note_off_c, 4, 46, 95
5, 88800, Note_on_c, 4, 44, 95
5, 89280, Note_off_c, 4, 44, 95
5, 89760, Note_on_c, 4, 44, 95
5, 90240, Note_off_c, 4, 44, 95
5, 90240, Note_on_c, 4, 46, 70
5, 90720, Note_off_c, 4, 46, 70
5, 91200, Note_on_c, 4, 44, 95
5, 91680, Note_off_c, 4, 44, 95
5, 91680, Note_on_c, 4, 46, 70
5, 92160, Note_off_c, 4, 46, 70
5, 92160, Note_on_c, 4, 39, 95
5, 93120, Note_off_c, 4, 39, 95
5, 93120, Note_on_c, 4, 39, 95
5, 93600, Note_off_c, 4, 39, 95
5, 93600, Note_on_c, 4, 49, 95
5, 94080, Note_off_c, 4, 49, 95
5, 94080, Note_on_c, 4, 50, 95
5, 94560, Note_off_c, 4, 50, 95
5, 94560, Note_on_c, 4, 51, 95
5, 95040, Note_off_c, 4, 51, 95
5, 95040, Note_on_c, 4, 39, 95
5, 96000, Note_off_c, 4, 39, 95
5, 96000, Note_on_c, 4, 39, 95
5, 96480, Note_off_c, 4, 39, 95
5, 96480, Note_on_c, 4, 51, 95
5, 96960, Note_off_c, 4, 51, 95
5, 96960, Note_on_c, 4, 49, 95
5, 97440, Note_off_c, 4, 49, 95
5, 97440, Note_on_c, 4, 38, 95
5, 97920, Note_off_c, 4, 38, 95
5, 97920, Note_on_c, 4, 39, 95
5, 98880, Note_off_c, 4, 39, 95
5, 98880, Note_on_c, 4, 39, 95
5, 99360, Note_off_c, 4, 39, 95
5, 99360, Note_on_c, 4, 49, 95
5, 99840, Note_off_c, 4, 49, 95
5, 99840, Note_on_c, 4, 50, 95
5, 100320, Note_off_c, 4, 50, 95
5, 100320, Note_on_c, 4, 51, 95
5, 100800, Note_off_c, 4, 51, 95
5, 100800, Note_on_c, 4, 39, 95
5, 101760, Note_off_c, 4, 39, 95
5, 101760, Note_on_c, 4, 39, 95
5, 102240, Note_off_c, 4, 39, 95
5, 102240, Note_on_c, 4, 38, 95
5, 103200, Note_off_c, 4, 38, 95
5, 103200, Note_on_c, 4, 38, 95
5, 103680, Note_off_c, 4, 38, 95
5, 103680, Note_on_c, 4, 34, 95
5, 104640, Note_off_c, 4, 34, 95
5, 104640, Note_on_c, 4, 34, 95
5, 105120, Note_off_c, 4, 34, 95
5, 105120, Note_on_c, 4, 34, 95
5, 106080, Note_off_c, 4, 34, 95
5, 106080, Note_on_c, 4, 34, 95
5, 106560, Note_off_c, 4, 34, 95
5, 106560, Note_on_c, 4, 34, 95
5, 107520, Note_off_c, 4, 34, 95
5, 107520, Note_on_c, 4, 34, 95
5, 108000, Note_off_c, 4, 34, 95
5, 108000, Note_on_c, 4, 38, 95
5, 108480, Note_off_c, 4, 38, 95
5, 108480, Note_on_c, 4, 39, 95
5, 108960, Note_off_c, 4, 39, 95
5, 108960, Note_on_c, 4, 41, 95
5, 109440, Note_off_c, 4, 41, 95
5, 109440, Note_on_c, 4, 34, 95
5, 110400, Note_off_c, 4, 34, 95
5, 110400, Note_on_c, 4, 34, 95
5, 110880, Note_off_c, 4, 34, 95
5, 110880, Note_on_c, 4, 38, 95
5, 111360, Note_off_c, 4, 38, 95
5, 111360, Note_on_c, 4, 39, 95
5, 111840, Note_off_c, 4, 39, 95
5, 111840, Note_on_c, 4, 41, 95
5, 112320, Note_off_c, 4, 41, 95
5, 112320, Note_on_c, 4, 46, 95
5, 112800, Note_off_c, 4, 46, 95
5, 112800, Note_on_c, 4, 37, 95
5, 112842, Note_off_c, 4, 37, 95
5, 113280, Note_on_c, 4, 46, 95
5, 113760, Note_off_c, 4, 46, 95
5, 113760, Note_on_c, 4, 46, 95
5, 114720, Note_off_c, 4, 46, 95
5, 114720, Note_on_c, 4, 46, 95
5, 115200, Note_off_c, 4, 46, 95
5, 115200, Note_on_c, 4, 41, 95
5, 116160, Note_off_c, 4, 41, 95
5, 116160, Note_on_c, 4, 41, 95
5, 116640, Note_off_c, 4, 41, 95
5, 116640, Note_on_c, 4, 51, 95
5, 117120, Note_off_c, 4, 51, 95
5, 117120, Note_on_c, 4, 52, 95
5, 117600, Note_off_c, 4, 52, 95
5, 117600, Note_on_c, 4, 53, 95
5, 118080, Note_off_c, 4, 53, 95
5, 118080, Note_on_c, 4, 41, 95
5, 119040, Note_off_c, 4, 41, 95
5, 119040, Note_on_c, 4, 41, 95
5, 119520, Note_off_c, 4, 41, 95
5, 119520, Note_on_c, 4, 41, 95
5, 120000, Note_off_c, 4, 41, 95
5, 120000, Note_on_c, 4, 41, 95
5, 120480, Note_off_c, 4, 41, 95
5, 120480, Note_on_c, 4, 40, 95
5, 120960, Note_off_c, 4, 40, 95
5, 120960, Note_on_c, 4, 39, 95
5, 121920, Note_off_c, 4, 39, 95
5, 121920, Note_on_c, 4, 39, 95
5, 122400, Note_off_c, 4, 39, 95
5, 122400, Note_on_c, 4, 39, 95
5, 123360, Note_off_c, 4, 39, 95
5, 123360, Note_on_c, 4, 39, 95
5, 123840, Note_off_c, 4, 39, 95
5, 123840, Note_on_c, 4, 37, 95
5, 124800, Note_off_c, 4, 37, 95
5, 124800, Note_on_c, 4, 37, 95
5, 125280, Note_off_c, 4, 37, 95
5, 125280, Note_on_c, 4, 37, 95
5, 126240, Note_off_c, 4, 37, 95
5, 126240, Note_on_c, 4, 36, 95
5, 126720, Note_off_c, 4, 36, 95
5, 126720, Note_on_c, 4, 34, 95
5, 127680, Note_off_c, 4, 34, 95
5, 127680, Note_on_c, 4, 34, 95
5, 128160, Note_off_c, 4, 34, 95
5, 128160, Note_on_c, 4, 38, 95
5, 129120, Note_off_c, 4, 38, 95
5, 129120, Note_on_c, 4, 38, 95
5, 129600, Note_off_c, 4, 38, 95
5, 129600, Note_on_c, 4, 41, 95
5, 130560, Note_off_c, 4, 41, 95
5, 130560, Note_on_c, 4, 41, 95
5, 131040, Note_off_c, 4, 41, 95
5, 131040, Note_on_c, 4, 44, 95
5, 131520, Note_off_c, 4, 44, 95
5, 131520, Note_on_c, 4, 45, 95
5, 132000, Note_off_c, 4, 45, 95
5, 132000, Note_on_c, 4, 46, 95
5, 132480, Note_off_c, 4, 46, 95
5, 132480, Note_on_c, 5, 46, 95
5, 132640, Pitch_bend_c, 5, 8192
5, 132800, Pitch_bend_c, 5, 8320
5, 132960, Pitch_bend_c, 5, 8192
5, 133120, Pitch_bend_c, 5, 8320
5, 133280, Pitch_bend_c, 5, 8192
5, 133440, Pitch_bend_c, 5, 8320
5, 133440, Pitch_bend_c, 5, 8192
5, 133440, Note_off_c, 5, 46, 95
5, 133440, Note_on_c, 4, 46, 95
5, 133920, Note_off_c, 4, 46, 95
5, 133920, Note_on_c, 5, 44, 95
5, 134080, Pitch_bend_c, 5, 8192
5, 134240, Pitch_bend_c, 5, 8320
5, 134400, Pitch_bend_c, 5, 8192
5, 134560, Pitch_bend_c, 5, 8320
5, 134720, Pitch_bend_c, 5, 8192
5, 134880, Pitch_bend_c, 5, 8320
5, 134880, Pitch_bend_c, 5, 8192
5, 134880, Note_off_c, 5, 44, 95
5, 134880, Note_on_c, 4, 44, 95
5, 135360, Note_off_c, 4, 44, 95
5, 135360, Note_on_c, 4, 41, 95
5, 136320, Note_off_c, 4, 41, 95
5, 136320, Note_on_c, 4, 41, 95
5, 136800, Note_off_c, 4, 41, 95
5, 136800, Note_on_c, 4, 41, 95
5, 137760, Note_off_c, 4, 41, 95
5, 137760, Note_on_c, 4, 41, 95
5, 138240, Note_off_c, 4, 41, 95
5, 138240, Note_on_c, 4, 34, 95
5, 139680, Note_off_c, 4, 34, 95
5, 139680, Note_on_c, 4, 34, 95
5, 140640, Note_off_c, 4, 34, 95
5, 140640, Note_on_c, 4, 34, 95
5, 141120, Note_off_c, 4, 34, 95
5, 141120, Note_on_c, 4, 34, 95
5, 142080, Note_off_c, 4, 34, 95
5, 142080, Note_on_c, 4, 34, 95
5, 142560, Note_off_c, 4, 34, 95
5, 142560, Note_on_c, 4, 34, 95
5, 143040, Note_off_c, 4, 34, 95
5, 143040, Note_on_c, 4, 38, 95
5, 143520, Note_off_c, 4, 38, 95
5, 143520, Note_on_c, 4, 41, 95
5, 144000, Note_off_c, 4, 41, 95
5, 144000, Note_on_c, 4, 39, 95
5, 144960, Note_off_c, 4, 39, 95
5, 144960, Note_on_c, 4, 39, 95
5, 145200, Note_off_c, 4, 39, 95
5, 145200, Note_on_c, 5, 41, 95
5, 145320, Pitch_bend_c, 5, 8832
5, 145440, Pitch_bend_c, 5, 9600
5, 145440, Pitch_bend_c, 5, 8192
5, 145440, Note_off_c, 5, 41, 95
5, 145440, Note_on_c, 4, 43, 95
5, 146400, Note_off_c, 4, 43, 95
5, 146400, Note_on_c, 4, 43, 95
5, 146880, Note_off_c, 4, 43, 95
5, 146880, Note_on_c, 4, 46, 95
5, 147840, Note_off_c, 4, 46, 95
5, 147840, Note_on_c, 4, 46, 95
5, 148320, Note_off_c, 4, 46, 95
5, 148320, Note_on_c, 4, 46, 95
5, 149280, Note_off_c, 4, 46, 95
5, 149280, Note_on_c, 4, 44, 95
5, 149760, Note_off_c, 4, 44, 95
5, 149760, Note_on_c, 4, 34, 95
5, 150720, Note_off_c, 4, 34, 95
5, 150720, Note_on_c, 4, 34, 95
5, 151200, Note_off_c, 4, 34, 95
5, 151200, Note_on_c, 4, 44, 95
5, 151680, Note_off_c, 4, 44, 95
5, 151680, Note_on_c, 4, 45, 95
5, 152160, Note_off_c, 4, 45, 95
5, 152160, Note_on_c, 4, 46, 95
5, 152640, Note_off_c, 4, 46, 95
5, 152640, Note_on_c, 4, 34, 95
5, 153600, Note_off_c, 4, 34, 95
5, 153600, Note_on_c, 4, 34, 95
5, 154080, Note_off_c, 4, 34, 95
5, 154080, Note_on_c, 4, 46, 95
5, 155040, Note_off_c, 4, 46, 95
5, 155040, Note_on_c, 4, 46, 95
5, 155520, Note_off_c, 4, 46, 95
5, 155520, Note_on_c, 4, 34, 95
5, 156480, Note_off_c, 4, 34, 95
5, 156480, Note_on_c, 4, 34, 95
5, 156960, Note_off_c, 4, 34, 95
5, 156960, Note_on_c, 4, 44, 95
5, 157440, Note_off_c, 4, 44, 95
5, 157440, Note_on_c, 4, 45, 95
5, 157920, Note_off_c, 4, 45, 95
5, 157920, Note_on_c, 4, 46, 95
5, 158400, Note_off_c, 4, 46, 95
5, 158400, Note_on_c, 4, 34, 95
5, 159360, Note_off_c, 4, 34, 95
5, 159360, Note_on_c, 4, 34, 95
5, 159840, Note_off_c, 4, 34, 95
5, 159840, Note_on_c, 4, 34, 95
5, 160320, Note_off_c, 4, 34, 95
5, 160320, Note_on_c, 4, 38, 95
5, 160800, Note_off_c, 4, 38, 95
5, 160800, Note_on_c, 4, 41, 95
5, 161280, Note_off_c, 4, 41, 95
5, 161280, Note_on_c, 4, 39, 95
5, 162240, Note_off_c, 4, 39, 95
5, 162240, Note_on_c, 4, 39, 95
5, 162480, Note_off_c, 4, 39, 95
5, 162480, Note_on_c, 5, 41, 95
5, 162600, Pitch_bend_c, 5, 8832
5, 162720, Pitch_bend_c, 5, 9600
5, 162720, Pitch_bend_c, 5, 8192
5, 162720, Note_off_c, 5, 41, 95
5, 162720, Note_on_c, 4, 43, 95
5, 163680, Note_off_c, 4, 43, 95
5, 163680, Note_on_c, 4, 43, 95
5, 164160, Note_off_c, 4, 43, 95
5, 164160, Note_on_c, 4, 46, 95
5, 165120, Note_off_c, 4, 46, 95
5, 165120, Note_on_c, 4, 46, 95
5, 165600, Note_off_c, 4, 46, 95
5, 165600, Note_on_c, 4, 49, 95
5, 165840, Note_off_c, 4, 49, 95
5, 165840, Note_on_c, 4, 46, 95
5, 166080, Note_off_c, 4, 46, 95
5, 166080, Note_on_c, 4, 49, 95
5, 166560, Note_off_c, 4, 49, 95
5, 166560, Note_on_c, 4, 51, 95
5, 167040, Note_off_c, 4, 51, 95
5, 167040, Note_on_c, 4, 39, 95
5, 168000, Note_off_c, 4, 39, 95
5, 168000, Note_on_c, 4, 39, 95
5, 168480, Note_off_c, 4, 39, 95
5, 168480, Note_on_c, 4, 43, 95
5, 169440, Note_off_c, 4, 43, 95
5, 169440, Note_on_c, 4, 43, 95
5, 169920, Note_off_c, 4, 43, 95
5, 169920, Note_on_c, 4, 46, 95
5, 170880, Note_off_c, 4, 46, 95
5, 170880, Note_on_c, 4, 46, 95
5, 171360, Note_off_c, 4, 46, 95
5, 171360, Note_on_c, 4, 49, 95
5, 171840, Note_off_c, 4, 49, 95
5, 171840, Note_on_c, 4, 46, 95
5, 172320, Note_off_c, 4, 46, 95
5, 172320, Note_on_c, 4, 44, 95
5, 172800, Note_off_c, 4, 44, 95
5, 172800, Note_on_c, 4, 34, 95
5, 173760, Note_off_c, 4, 34, 95
5, 173760, Note_on_c, 4, 34, 95
5, 174240, Note_off_c, 4, 34, 95
5, 174240, Note_on_c, 4, 38, 95
5, 175200, Note_off_c, 4, 38, 95
5, 175200, Note_on_c, 4, 38, 95
5, 175680, Note_off_c, 4, 38, 95
5, 175680, Note_on_c, 4, 41, 95
5, 176640, Note_off_c, 4, 41, 95
5, 176640, Note_on_c, 4, 41, 95
5, 177120, Note_off_c, 4, 41, 95
5, 177120, Note_on_c, 4, 44, 95
5, 177360, Note_off_c, 4, 44, 95
5, 177360, Note_on_c, 4, 44, 95
5, 177600, Note_off_c, 4, 44, 95
5, 177600, Note_on_c, 4, 44, 95
5, 178080, Note_off_c, 4, 44, 95
5, 178080, Note_on_c, 4, 44, 95
5, 178560, Note_off_c, 4, 44, 95
5, 178560, Note_on_c, 4, 34, 95
5, 179520, Note_off_c, 4, 34, 95
5, 179520, Note_on_c, 4, 34, 95
5, 180000, Note_off_c, 4, 34, 95
5, 180000, Note_on_c, 4, 38, 95
5, 180960, Note_off_c, 4, 38, 95
5, 180960, Note_on_c, 4, 38, 95
5, 181440, Note_off_c, 4, 38, 95
5, 181440, Note_on_c, 4, 41, 95
5, 182400, Note_off_c, 4, 41, 95
5, 182400, Note_on_c, 4, 41, 95
5, 182880, Note_off_c, 4, 41, 95
5, 182880, Note_on_c, 4, 44, 95
5, 183840, Note_off_c, 4, 44, 95
5, 183840, Note_on_c, 4, 44, 95
5, 184320, Note_off_c, 4, 44, 95
5, 184320, Note_on_c, 4, 41, 95
5, 185280, Note_off_c, 4, 41, 95
5, 185280, Note_on_c, 4, 41, 95
5, 185760, Note_off_c, 4, 41, 95
5, 185760, Note_on_c, 4, 41, 95
5, 186240, Note_off_c, 4, 41, 95
5, 186240, Note_on_c, 4, 36, 95
5, 186720, Note_off_c, 4, 36, 95
5, 186720, Note_on_c, 4, 39, 95
5, 187200, Note_off_c, 4, 39, 95
5, 187200, Note_on_c, 4, 41, 95
5, 188160, Note_off_c, 4, 41, 95
5, 188160, Note_on_c, 4, 41, 95
5, 188640, Note_off_c, 4, 41, 95
5, 188640, Note_on_c, 4, 41, 95
5, 189120, Note_off_c, 4, 41, 95
5, 189120, Note_on_c, 4, 36, 95
5, 189600, Note_off_c, 4, 36, 95
5, 189600, Note_on_c, 4, 40, 95
5, 190080, Note_off_c, 4, 40, 95
5, 190080, Note_on_c, 4, 39, 95
5, 191040, Note_off_c, 4, 39, 95
5, 191040, Note_on_c, 4, 39, 95
5, 191520, Note_off_c, 4, 39, 95
5, 191520, Note_on_c, 4, 39, 95
5, 192480, Note_off_c, 4, 39, 95
5, 192480, Note_on_c, 4, 39, 95
5, 192960, Note_off_c, 4, 39, 95
5, 192960, Note_on_c, 4, 51, 95
5, 193920, Note_off_c, 4, 51, 95
5, 193920, Note_on_c, 4, 51, 95
5, 194400, Note_off_c, 4, 51, 95
5, 194400, Note_on_c, 4, 53, 95
5, 195360, Note_off_c, 4, 53, 95
5, 195360, Note_on_c, 4, 53, 95
5, 195840, Note_off_c, 4, 53, 95
5, 195840, Note_on_c, 4, 34, 95
5, 196800, Note_off_c, 4, 34, 95
5, 196800, Note_on_c, 4, 34, 95
5, 197280, Note_off_c, 4, 34, 95
5, 197280, Note_on_c, 4, 38, 95
5, 198240, Note_off_c, 4, 38, 95
5, 198240, Note_on_c, 4, 38, 95
5, 198720, Note_off_c, 4, 38, 95
5, 198720, Note_on_c, 4, 41, 95
5, 199680, Note_off_c, 4, 41, 95
5, 199680, Note_on_c, 4, 41, 95
5, 200160, Note_off_c, 4, 41, 95
5, 200160, Note_on_c, 4, 44, 95
5, 201120, Note_off_c, 4, 44, 95
5, 201120, Note_on_c, 4, 44, 95
5, 201600, Note_off_c, 4, 44, 95
5, 201600, Note_on_c, 4, 34, 95
5, 202560, Note_off_c, 4, 34, 95
5, 202560, Note_on_c, 4, 34, 95
5, 203040, Note_off_c, 4, 34, 95
5, 203040, Note_on_c, 4, 38, 95
5, 203520, Note_off_c, 4, 38, 95
5, 203520, Note_on_c, 4, 39, 95
5, 204000, Note_off_c, 4, 39, 95
5, 204000, Note_on_c, 4, 40, 95
5, 204480, Note_off_c, 4, 40, 95
5, 204480, Note_on_c, 4, 41, 95
5, 205440, Note_off_c, 4, 41, 95
5, 205440, Note_on_c, 4, 41, 95
5, 205920, Note_off_c, 4, 41, 95
5, 205920, Note_on_c, 4, 41, 95
5, 206880, Note_off_c, 4, 41, 95
5, 206880, Note_on_c, 5, 33, 95
5, 207000, Pitch_bend_c, 5, 8320
5, 207120, Pitch_bend_c, 5, 8448
5, 207240, Pitch_bend_c, 5, 8704
5, 207360, Pitch_bend_c, 5, 8832
5, 207360, Pitch_bend_c, 5, 8192
5, 207360, Note_off_c, 5, 33, 95
5, 207360, Note_on_c, 4, 34, 95
5, 208320, Note_off_c, 4, 34, 95
5, 208320, Note_on_c, 4, 34, 95
5, 208560, Note_off_c, 4, 34, 95
5, 208560, Note_on_c, 5, 36, 95
5, 208680, Pitch_bend_c, 5, 8832
5, 208800, Pitch_bend_c, 5, 9600
5, 208800, Pitch_bend_c, 5, 8192
5, 208800, Note_off_c, 5, 36, 95
5, 208800, Note_on_c, 4, 38, 95
5, 209760, Note_off_c, 4, 38, 95
5, 209760, Note_on_c, 4, 38, 95
5, 210240, Note_off_c, 4, 38, 95
5, 210240, Note_on_c, 4, 41, 95
5, 211200, Note_off_c, 4, 41, 95
5, 211200, Note_on_c, 4, 41, 95
5, 211680, Note_off_c, 4, 41, 95
5, 211680, Note_on_c, 4, 44, 95
5, 212160, Note_off_c, 4, 44, 95
5, 212160, Note_on_c, 4, 46, 95
5, 212640, Note_off_c, 4, 46, 95
5, 212640, Note_on_c, 4, 44, 95
5, 213120, Note_off_c, 4, 44, 95
5, 213120, Note_on_c, 4, 39, 95
5, 214080, Note_off_c, 4, 39, 95
5, 214080, Note_on_c, 4, 39, 95
5, 214560, Note_off_c, 4, 39, 95
5, 214560, Note_on_c, 4, 43, 95
5, 215520, Note_off_c, 4, 43, 95
5, 215520, Note_on_c, 4, 43, 95
5, 216000, Note_off_c, 4, 43, 95
5, 216000, Note_on_c, 4, 46, 95
5, 216960, Note_off_c, 4, 46, 95
5, 216960, Note_on_c, 4, 46, 95
5, 217440, Note_off_c, 4, 46, 95
5, 217440, Note_on_c, 4, 49, 95
5, 218400, Note_off_c, 4, 49, 95
5, 218400, Note_on_c, 4, 44, 95
5, 218880, Note_off_c, 4, 44, 95
5, 218880, Note_on_c, 4, 34, 95
5, 219840, Note_off_c, 4, 34, 95
5, 219840, Note_on_c, 4, 34, 95
5, 220320, Note_off_c, 4, 34, 95
5, 220320, Note_on_c, 4, 38, 95
5, 221280, Note_off_c, 4, 38, 95
5, 221280, Note_on_c, 4, 38, 95
5, 221760, Note_off_c, 4, 38, 95
5, 221760, Note_on_c, 4, 41, 95
5, 222720, Note_off_c, 4, 41, 95
5, 222720, Note_on_c, 4, 41, 95
5, 223200, Note_off_c, 4, 41, 95
5, 223200, Note_on_c, 4, 38, 95
5, 223680, Note_off_c, 4, 38, 95
5, 223680, Note_on_c, 4, 39, 95
5, 224160, Note_off_c, 4, 39, 95
5, 224160, Note_on_c, 4, 44, 95
5, 224640, Note_off_c, 4, 44, 95
5, 224640, Note_on_c, 4, 46, 95
5, 225600, Note_off_c, 4, 46, 95
5, 225600, Note_on_c, 4, 46, 95
5, 226080, Note_off_c, 4, 46, 95
5, 226080, Note_on_c, 4, 44, 95
5, 227040, Note_off_c, 4, 44, 95
5, 227040, Note_on_c, 4, 44, 95
5, 227520, Note_off_c, 4, 44, 95
5, 227520, Note_on_c, 4, 41, 95
5, 228480, Note_off_c, 4, 41, 95
5, 228480, Note_on_c, 4, 41, 95
5, 228960, Note_off_c, 4, 41, 95
5, 228960, Note_on_c, 4, 38, 95
5, 229440, Note_off_c, 4, 38, 95
5, 229440, Note_on_c, 4, 39, 95
5, 229920, Note_off_c, 4, 39, 95
5, 229920, Note_on_c, 4, 41, 95
5, 230400, Note_off_c, 4, 41, 95
5, 230400, Note_on_c, 4, 39, 95
5, 231360, Note_off_c, 4, 39, 95
5, 231360, Note_on_c, 4, 39, 95
5, 231840, Note_off_c, 4, 39, 95
5, 231840, Note_on_c, 4, 39, 95
5, 232800, Note_off_c, 4, 39, 95
5, 232800, Note_on_c, 4, 51, 95
5, 233280, Note_off_c, 4, 51, 95
5, 233280, Note_on_c, 4, 39, 95
5, 234240, Note_off_c, 4, 39, 95
5, 234240, Note_on_c, 4, 39, 95
5, 234720, Note_off_c, 4, 39, 95
5, 234720, Note_on_c, 4, 39, 95
5, 235680, Note_off_c, 4, 39, 95
5, 235680, Note_on_c, 4, 27, 95
5, 236160, Note_off_c, 4, 27, 95
5, 236160, Note_on_c, 4, 39, 95
5, 237120, Note_off_c, 4, 39, 95
5, 237120, Note_on_c, 4, 39, 95
5, 237600, Note_off_c, 4, 39, 95
5, 237600, Note_on_c, 4, 39, 95
5, 238560, Note_off_c, 4, 39, 95
5, 238560, Note_on_c, 4, 39, 95
5, 239040, Note_off_c, 4, 39, 95
5, 239040, Note_on_c, 4, 49, 95
5, 240000, Note_off_c, 4, 49, 95
5, 240000, Note_on_c, 4, 49, 95
5, 240480, Note_off_c, 4, 49, 95
5, 240480, Note_on_c, 4, 51, 95
5, 241440, Note_off_c, 4, 51, 95
5, 241440, Note_on_c, 4, 51, 95
5, 241920, Note_off_c, 4, 51, 95
5, 241920, Note_on_c, 4, 34, 95
5, 242880, Note_off_c, 4, 34, 95
5, 242880, Note_on_c, 4, 34, 95
5, 243360, Note_off_c, 4, 34, 95
5, 243360, Note_on_c, 4, 38, 95
5, 244320, Note_off_c, 4, 38, 95
5, 244320, Note_on_c, 4, 38, 95
5, 244800, Note_off_c, 4, 38, 95
5, 244800, Note_on_c, 4, 41, 95
5, 245760, Note_off_c, 4, 41, 95
5, 245760, Note_on_c, 4, 41, 95
5, 246240, Note_off_c, 4, 41, 95
5, 246240, Note_on_c, 4, 44, 95
5, 247200, Note_off_c, 4, 44, 95
5, 247200, Note_on_c, 4, 46, 95
5, 247680, Note_off_c, 4, 46, 95
5, 247680, Note_on_c, 4, 34, 95
5, 248640, Note_off_c, 4, 34, 95
5, 248640, Note_on_c, 4, 34, 95
5, 249120, Note_off_c, 4, 34, 95
5, 249120, Note_on_c, 4, 38, 95
5, 250080, Note_off_c, 4, 38, 95
5, 250080, Note_on_c, 4, 38, 95
5, 250560, Note_off_c, 4, 38, 95
5, 250560, Note_on_c, 4, 41, 95
5, 251520, Note_off_c, 4, 41, 95
5, 251520, Note_on_c, 4, 41, 95
5, 252000, Note_off_c, 4, 41, 95
5, 252000, Note_on_c, 4, 38, 95
5, 252480, Note_off_c, 4, 38, 95
5, 252480, Note_on_c, 4, 39, 95
5, 252960, Note_off_c, 4, 39, 95
5, 252960, Note_on_c, 4, 41, 95
5, 253440, Note_off_c, 4, 41, 95
5, 253440, Note_on_c, 4, 41, 95
5, 254400, Note_off_c, 4, 41, 95
5, 254400, Note_on_c, 4, 41, 95
5, 254880, Note_off_c, 4, 41, 95
5, 254880, Note_on_c, 4, 51, 95
5, 255360, Note_off_c, 4, 51, 95
5, 255360, Note_on_c, 4, 52, 95
5, 255840, Note_off_c, 4, 52, 95
5, 255840, Note_on_c, 4, 53, 95
5, 256320, Note_off_c, 4, 53, 95
5, 256320, Note_on_c, 4, 41, 95
5, 257280, Note_off_c, 4, 41, 95
5, 257280, Note_on_c, 4, 41, 95
5, 257760, Note_off_c, 4, 41, 95
5, 257760, Note_on_c, 4, 51, 95
5, 258240, Note_off_c, 4, 51, 95
5, 258240, Note_on_c, 4, 52, 95
5, 258720, Note_off_c, 4, 52, 95
5, 258720, Note_on_c, 4, 53, 95
5, 259200, Note_off_c, 4, 53, 95
5, 259200, Note_on_c, 4, 39, 95
5, 260160, Note_off_c, 4, 39, 95
5, 260160, Note_on_c, 4, 39, 95
5, 260640, Note_off_c, 4, 39, 95
5, 260640, Note_on_c, 4, 39, 95
5, 261600, Note_off_c, 4, 39, 95
5, 261600, Note_on_c, 4, 39, 95
5, 262080, Note_off_c, 4, 39, 95
5, 262080, Note_on_c, 4, 37, 95
5, 263040, Note_off_c, 4, 37, 95
5, 263040, Note_on_c, 4, 37, 95
5, 263520, Note_off_c, 4, 37, 95
5, 263520, Note_on_c, 4, 44, 95
5, 264480, Note_off_c, 4, 44, 95
5, 264480, Note_on_c, 4, 44, 95
5, 264960, Note_off_c, 4, 44, 95
5, 264960, Note_on_c, 4, 34, 95
5, 265920, Note_off_c, 4, 34, 95
5, 265920, Note_on_c, 4, 34, 95
5, 266400, Note_off_c, 4, 34, 95
5, 266400, Note_on_c, 4, 38, 95
5, 267360, Note_off_c, 4, 38, 95
5, 267360, Note_on_c, 4, 38, 95
5, 267840, Note_off_c, 4, 38, 95
5, 267840, Note_on_c, 4, 41, 95
5, 268800, Note_off_c, 4, 41, 95
5, 268800, Note_on_c, 4, 41, 95
5, 269280, Note_off_c, 4, 41, 95
5, 269280, Note_on_c, 4, 44, 95
5, 269760, Note_off_c, 4, 44, 95
5, 269760, Note_on_c, 4, 46, 95
5, 270240, Note_off_c, 4, 46, 95
5, 270240, Note_on_c, 4, 44, 95
5, 270720, Note_off_c, 4, 44, 95
5, 270720, Note_on_c, 4, 34, 95
5, 271680, Note_off_c, 4, 34, 95
5, 271680, Note_on_c, 4, 34, 95
5, 272160, Note_off_c, 4, 34, 95
5, 272160, Note_on_c, 4, 38, 95
5, 272640, Note_off_c, 4, 38, 95
5, 272640, Note_on_c, 4, 39, 95
5, 273120, Note_off_c, 4, 39, 95
5, 273120, Note_on_c, 4, 41, 95
5, 273600, Note_off_c, 4, 41, 95
5, 273600, Note_on_c, 4, 41, 95
5, 274560, Note_off_c, 4, 41, 95
5, 274560, Note_on_c, 4, 41, 95
5, 275040, Note_off_c, 4, 41, 95
5, 275040, Note_on_c, 4, 38, 95
5, 275520, Note_off_c, 4, 38, 95
5, 275520, Note_on_c, 4, 39, 95
5, 276000, Note_off_c, 4, 39, 95
5, 276000, Note_on_c, 4, 41, 95
5, 276480, Note_off_c, 4, 41, 95
5, 276480, Note_on_c, 4, 34, 95
5, 277440, Note_off_c, 4, 34, 95
5, 277440, Note_on_c, 4, 34, 95
5, 277920, Note_off_c, 4, 34, 95
5, 277920, Note_on_c, 4, 34, 95
5, 278880, Note_off_c, 4, 34, 95
5, 278880, Note_on_c, 4, 32, 95
5, 279360, Note_off_c, 4, 32, 95
5, 279360, Note_on_c, 4, 34, 70
5, 280320, Note_off_c, 4, 34, 70
5, 280320, Note_on_c, 4, 34, 95
5, 280800, Note_off_c, 4, 34, 95
5, 280800, Note_on_c, 4, 34, 95
5, 281760, Note_off_c, 4, 34, 95
5, 281760, Note_on_c, 5, 37, 95
5, 281880, Pitch_bend_c, 5, 8448
5, 282000, Pitch_bend_c, 5, 8832
5, 282120, Pitch_bend_c, 5, 9216
5, 282240, Pitch_bend_c, 5, 9600
5, 282240, Pitch_bend_c, 5, 8192
5, 282240, Note_off_c, 5, 37, 95
5, 282240, Note_on_c, 4, 39, 95
5, 283200, Note_off_c, 4, 39, 95
5, 283200, Note_on_c, 4, 39, 95
5, 283680, Note_off_c, 4, 39, 95
5, 283680, Note_on_c, 4, 39, 95
5, 284640, Note_off_c, 4, 39, 95
5, 284640, Note_on_c, 4, 37, 95
5, 285120, Note_off_c, 4, 37, 95
5, 285120, Note_on_c, 4, 39, 70
5, 286080, Note_off_c, 4, 39, 70
5, 286080, Note_on_c, 4, 39, 95
5, 286560, Note_off_c, 4, 39, 95
5, 286560, Note_on_c, 4, 37, 95
5, 287520, Note_off_c, 4, 37, 95
5, 287520, Note_on_c, 4, 37, 95
5, 288000, Note_on_c, 4, 34, 95
5, 288960, Note_off_c, 4, 34, 95
5, 288960, Note_on_c, 4, 34, 95
5, 289440, Note_off_c, 4, 34, 95
5, 289440, Note_on_c, 4, 46, 95
5, 290400, Note_off_c, 4, 37, 95
5, 290400, Note_off_c, 4, 46, 95
5, 290400, Note_on_c, 4, 46, 95
5, 290880, Note_off_c, 4, 46, 95
5, 290880, Note_on_c, 4, 34, 95
5, 291840, Note_off_c, 4, 34, 95
5, 291840, Note_on_c, 4, 34, 95
5, 292320, Note_off_c, 4, 34, 95
5, 292320, Note_on_c, 4, 46, 95
5, 293280, Note_off_c, 4, 46, 95
5, 293280, Note_on_c, 4, 44, 95
5, 293760, Note_off_c, 4, 44, 95
5, 293760, Note_on_c, 4, 34, 95
5, 294720, Note_off_c, 4, 34, 95
5, 294720, Note_on_c, 4, 34, 95
5, 295200, Note_off_c, 4, 34, 95
5, 295200, Note_on_c, 4, 41, 95
5, 296160, Note_off_c, 4, 41, 95
5, 296160, Note_on_c, 4, 46, 95
5, 296160, Note_on_c, 4, 34, 95
5, 296640, Note_off_c, 4, 46, 95
5, 296640, Note_off_c, 4, 34, 95
5, 296640, Note_on_c, 4, 46, 95
5, 296640, Note_on_c, 4, 34, 95
5, 297120, Note_off_c, 4, 46, 95
5, 297120, Note_off_c, 4, 34, 95
5, 297120, Note_on_c, 4, 46, 95
5, 297120, Note_on_c, 4, 34, 95
5, 297600, Note_off_c, 4, 46, 95
5, 297600, Note_off_c, 4, 34, 95
5, 297600, Note_on_c, 4, 46, 95
5, 297600, Note_on_c, 4, 34, 95
5, 298080, Note_off_c, 4, 46, 95
5, 298080, Note_off_c, 4, 34, 95
5, 298080, Note_on_c, 4, 46, 95
5, 298080, Note_on_c, 4, 34, 95
5, 298560, Note_off_c, 4, 46, 95
5, 298560, Note_off_c, 4, 34, 95
5, 298560, Note_on_c, 4, 46, 95
5, 298560, Note_on_c, 4, 34, 95
5, 299040, Note_off_c, 4, 46, 95
5, 299040, Note_off_c, 4, 34, 95
5, 299040, Note_on_c, 4, 34, 95
5, 299280, Note_off_c, 4, 34, 95
5, 299280, Note_on_c, 5, 38, 47
5, 299400, Pitch_bend_c, 5, 8448
5, 299520, Pitch_bend_c, 5, 8832
5, 299520, Pitch_bend_c, 5, 8192
5, 299520, Note_off_c, 5, 38, 47
5, 299520, Note_on_c, 4, 39, 95
5, 300480, Note_off_c, 4, 39, 95
5, 300480, Note_on_c, 4, 39, 95
5, 300960, Note_off_c, 4, 39, 95
5, 300960, Note_on_c, 4, 39, 95
5, 301920, Note_off_c, 4, 39, 95
5, 301920, Note_on_c, 4, 39, 95
5, 302400, Note_off_c, 4, 39, 95
5, 302400, Note_on_c, 4, 39, 95
5, 303360, Note_off_c, 4, 39, 95
5, 303360, Note_on_c, 4, 39, 95
5, 303840, Note_off_c, 4, 39, 95
5, 303840, Note_on_c, 4, 49, 95
5, 304320, Note_off_c, 4, 49, 95
5, 304320, Note_on_c, 4, 46, 95
5, 304800, Note_off_c, 4, 46, 95
5, 304800, Note_on_c, 4, 49, 95
5, 305280, Note_off_c, 4, 49, 95
5, 305280, Note_on_c, 4, 39, 95
5, 306240, Note_off_c, 4, 39, 95
5, 306240, Note_on_c, 4, 39, 95
5, 306720, Note_off_c, 4, 39, 95
5, 306720, Note_on_c, 4, 39, 95
5, 307680, Note_off_c, 4, 39, 95
5, 307680, Note_on_c, 4, 39, 95
5, 308160, Note_off_c, 4, 39, 95
5, 308160, Note_on_c, 4, 49, 95
5, 309120, Note_off_c, 4, 49, 95
5, 309120, Note_on_c, 4, 49, 95
5, 309600, Note_off_c, 4, 49, 95
5, 309600, Note_on_c, 4, 51, 95
5, 310560, Note_off_c, 4, 51, 95
5, 310560, Note_on_c, 4, 51, 95
5, 311040, Note_off_c, 4, 51, 95
5, 311040, Note_on_c, 4, 34, 95
5, 312000, Note_off_c, 4, 34, 95
5, 312000, Note_on_c, 4, 34, 95
5, 312480, Note_off_c, 4, 34, 95
5, 312480, Note_on_c, 4, 34, 95
5, 313440, Note_off_c, 4, 34, 95
5, 313440, Note_on_c, 4, 34, 95
5, 313920, Note_off_c, 4, 34, 95
5, 313920, Note_on_c, 4, 34, 95
5, 314880, Note_off_c, 4, 34, 95
5, 314880, Note_on_c, 4, 34, 95
5, 315360, Note_off_c, 4, 34, 95
5, 315360, Note_on_c, 4, 44, 95
5, 315840, Note_off_c, 4, 44, 95
5, 315840, Note_on_c, 4, 45, 95
5, 316320, Note_off_c, 4, 45, 95
5, 316320, Note_on_c, 4, 46, 95
5, 316800, Note_off_c, 4, 46, 95
5, 316800, Note_on_c, 4, 34, 95
5, 317760, Note_off_c, 4, 34, 95
5, 317760, Note_on_c, 4, 34, 95
5, 318240, Note_off_c, 4, 34, 95
5, 318240, Note_on_c, 4, 27, 95
5, 318720, Note_off_c, 4, 27, 95
5, 318720, Note_on_c, 4, 32, 95
5, 319200, Note_off_c, 4, 32, 95
5, 319200, Note_on_c, 4, 34, 95
5, 319680, Note_off_c, 4, 34, 95
5, 319680, Note_on_c, 4, 34, 95
5, 320640, Note_off_c, 4, 34, 95
5, 320640, Note_on_c, 4, 34, 95
5, 321120, Note_off_c, 4, 34, 95
5, 321120, Note_on_c, 4, 34, 95
5, 321600, Note_off_c, 4, 34, 95
5, 321600, Note_on_c, 4, 44, 95
5, 322080, Note_off_c, 4, 44, 95
5, 322080, Note_on_c, 4, 46, 70
5, 322560, Note_off_c, 4, 46, 70
5, 322560, Note_on_c, 4, 41, 95
5, 323520, Note_off_c, 4, 41, 95
5, 323520, Note_on_c, 4, 41, 95
5, 324000, Note_off_c, 4, 41, 95
5, 324000, Note_on_c, 4, 51, 95
5, 324480, Note_off_c, 4, 51, 95
5, 324480, Note_on_c, 4, 52, 95
5, 324960, Note_off_c, 4, 52, 95
5, 324960, Note_on_c, 4, 53, 95
5, 325440, Note_off_c, 4, 53, 95
5, 325440, Note_on_c, 4, 41, 95
5, 326400, Note_off_c, 4, 41, 95
5, 326400, Note_on_c, 4, 41, 95
5, 326880, Note_off_c, 4, 41, 95
5, 326880, Note_on_c, 4, 51, 95
5, 327360, Note_off_c, 4, 51, 95
5, 327360, Note_on_c, 4, 52, 95
5, 327840, Note_off_c, 4, 52, 95
5, 327840, Note_on_c, 4, 53, 95
5, 328320, Note_off_c, 4, 53, 95
5, 328320, Note_on_c, 4, 39, 95
5, 329280, Note_off_c, 4, 39, 95
5, 329280, Note_on_c, 4, 39, 95
5, 329760, Note_off_c, 4, 39, 95
5, 329760, Note_on_c, 4, 51, 95
5, 330720, Note_off_c, 4, 51, 95
5, 330720, Note_on_c, 4, 51, 95
5, 331200, Note_off_c, 4, 51, 95
5, 331200, Note_on_c, 4, 52, 95
5, 332160, Note_off_c, 4, 52, 95
5, 332160, Note_on_c, 4, 52, 95
5, 332640, Note_off_c, 4, 52, 95
5, 332640, Note_on_c, 4, 53, 95
5, 333600, Note_off_c, 4, 53, 95
5, 333600, Note_on_c, 4, 33, 95
5, 334080, Note_off_c, 4, 33, 95
5, 334080, Note_on_c, 4, 34, 95
5, 335040, Note_off_c, 4, 34, 95
5, 335040, Note_on_c, 4, 34, 95
5, 335520, Note_off_c, 4, 34, 95
5, 335520, Note_on_c, 4, 34, 95
5, 336480, Note_off_c, 4, 34, 95
5, 336480, Note_on_c, 4, 34, 95
5, 336720, Note_off_c, 4, 34, 95
5, 336720, Note_on_c, 4, 32, 70
5, 336960, Note_off_c, 4, 32, 70
5, 336960, Note_on_c, 4, 34, 95
5, 337920, Note_off_c, 4, 34, 95
5, 337920, Note_on_c, 4, 34, 95
5, 338400, Note_off_c, 4, 34, 95
5, 338400, Note_on_c, 4, 34, 95
5, 339360, Note_off_c, 4, 34, 95
5, 339360, Note_on_c, 4, 34, 95
5, 339840, Note_off_c, 4, 34, 95
5, 339840, Note_on_c, 4, 32, 95
5, 340320, Note_off_c, 4, 32, 95
5, 340320, Note_on_c, 4, 29, 95
5, 340800, Note_off_c, 4, 29, 95
5, 340800, Note_on_c, 4, 29, 95
5, 341280, Note_off_c, 4, 29, 95
5, 341280, Note_on_c, 4, 29, 95
5, 342240, Note_off_c, 4, 29, 95
5, 342240, Note_on_c, 4, 29, 95
5, 342720, Note_off_c, 4, 29, 95
5, 342720, Note_on_c, 4, 29, 95
5, 343680, Note_off_c, 4, 29, 95
5, 343680, Note_on_c, 4, 29, 95
5, 344160, Note_off_c, 4, 29, 95
5, 344160, Note_on_c, 4, 29, 95
5, 344640, Note_off_c, 4, 29, 95
5, 344640, Note_on_c, 4, 29, 95
5, 345120, Note_off_c, 4, 29, 95
5, 345120, Note_on_c, 5, 32, 95
5, 345240, Pitch_bend_c, 5, 8448
5, 345360, Pitch_bend_c, 5, 8832
5, 345480, Pitch_bend_c, 5, 9216
5, 345600, Pitch_bend_c, 5, 9600
5, 345600, Pitch_bend_c, 5, 8192
5, 345600, Note_off_c, 5, 32, 95
5, 345600, Note_on_c, 4, 34, 95
5, 346560, Note_off_c, 4, 34, 95
5, 346560, Note_on_c, 4, 34, 95
5, 347040, Note_off_c, 4, 34, 95
5, 347040, Note_on_c, 4, 44, 95
5, 347520, Note_off_c, 4, 44, 95
5, 347520, Note_on_c, 4, 45, 95
5, 348000, Note_off_c, 4, 45, 95
5, 348000, Note_on_c, 4, 46, 111
5, 348480, Note_off_c, 4, 46, 111
5, 348480, Note_on_c, 4, 34, 95
5, 349440, Note_off_c, 4, 34, 95
5, 349440, Note_on_c, 4, 34, 95
5, 349920, Note_off_c, 4, 34, 95
5, 349920, Note_on_c, 5, 44, 95
5, 350040, Pitch_bend_c, 5, 8832
5, 350160, Pitch_bend_c, 5, 9600
5, 350160, Pitch_bend_c, 5, 8192
5, 350160, Note_off_c, 5, 44, 95
5, 350160, Note_on_c, 4, 46, 95
5, 350400, Note_off_c, 4, 46, 95
5, 350400, Note_on_c, 4, 41, 95
5, 350640, Note_off_c, 4, 41, 95
5, 350640, Note_on_c, 4, 39, 70
5, 350880, Note_off_c, 4, 39, 70
5, 350880, Note_on_c, 4, 41, 95
5, 351360, Note_off_c, 4, 41, 95
5, 351360, Note_on_c, 4, 39, 95
5, 352320, Note_off_c, 4, 39, 95
5, 352320, Note_on_c, 4, 51, 95
5, 352560, Note_off_c, 4, 51, 95
5, 352560, Note_on_c, 4, 49, 70
5, 352800, Note_off_c, 4, 49, 70
5, 352800, Note_on_c, 4, 51, 70
5, 353760, Note_off_c, 4, 51, 70
5, 353760, Note_on_c, 4, 51, 95
5, 354000, Note_off_c, 4, 51, 95
5, 354000, Note_on_c, 4, 49, 70
5, 354240, Note_off_c, 4, 49, 70
5, 354240, Note_on_c, 4, 51, 70
5, 355200, Note_off_c, 4, 51, 70
5, 355200, Note_on_c, 4, 51, 95
5, 355440, Note_off_c, 4, 51, 95
5, 355440, Note_on_c, 4, 49, 70
5, 355680, Note_off_c, 4, 49, 70
5, 355680, Note_on_c, 4, 51, 70
5, 355920, Note_off_c, 4, 51, 70
5, 355920, Note_on_c, 4, 49, 95
5, 356160, Note_off_c, 4, 49, 95
5, 356160, Note_on_c, 4, 46, 95
5, 356400, Note_off_c, 4, 46, 95
5, 356400, Note_on_c, 4, 49, 95
5, 356640, Note_off_c, 4, 49, 95
5, 356640, Note_on_c, 4, 44, 95
5, 356880, Note_off_c, 4, 44, 95
5, 356880, Note_on_c, 4, 46, 70
5, 357120, Note_off_c, 4, 46, 70
5, 357120, Note_on_c, 4, 34, 95
5, 358080, Note_off_c, 4, 34, 95
5, 358080, Note_on_c, 4, 46, 95
5, 358560, Note_off_c, 4, 46, 95
5, 358560, Note_on_c, 4, 44, 95
5, 358800, Note_off_c, 4, 44, 95
5, 358800, Note_on_c, 4, 46, 70
5, 359520, Note_off_c, 4, 46, 70
5, 359520, Note_on_c, 4, 46, 95
5, 360000, Note_off_c, 4, 46, 95
5, 360000, Note_on_c, 4, 46, 95
5, 360240, Note_off_c, 4, 46, 95
5, 360240, Note_on_c, 4, 47, 70
5, 360960, Note_off_c, 4, 47, 70
5, 360960, Note_on_c, 4, 47, 95
5, 361440, Note_off_c, 4, 47, 95
5, 361440, Note_on_c, 4, 27, 95
5, 362160, Note_off_c, 4, 27, 95
5, 362160, Note_on_c, 4, 40, 95
5, 362400, Note_off_c, 4, 40, 95
5, 362400, Note_on_c, 4, 42, 70
5, 362640, Note_off_c, 4, 42, 70
5, 362640, Note_on_c, 4, 45, 95
5, 362880, Note_off_c, 4, 45, 95
5, 362880, Note_on_c, 4, 46, 111
5, 363360, Note_off_c, 4, 46, 111
5, 363360, Note_on_c, 4, 46, 111
5, 363840, Note_off_c, 4, 46, 111
5, 363840, Note_on_c, 4, 46, 111
5, 364320, Note_off_c, 4, 46, 111
5, 364320, Note_on_c, 4, 47, 111
5, 364800, Note_off_c, 4, 47, 111
5, 364800, Note_on_c, 4, 47, 111
5, 365280, Note_off_c, 4, 47, 111
5, 365280, Note_on_c, 4, 47, 111
5, 365760, Note_off_c, 4, 47, 111
5, 365760, Note_on_c, 4, 46, 95
5, 366240, Note_off_c, 4, 46, 95
5, 366240, Note_on_c, 4, 46, 95
5, 366720, Note_off_c, 4, 46, 95
5, 366720, Note_on_c, 4, 47, 95
5, 367200, Note_off_c, 4, 47, 95
5, 367200, Note_on_c, 4, 48, 95
5, 367680, Note_off_c, 4, 48, 95
5, 367680, Note_on_c, 4, 49, 95
5, 368160, Note_off_c, 4, 49, 95
5, 368160, Note_on_c, 4, 50, 95
5, 368640, Note_off_c, 4, 50, 95
5, 368640, Note_on_c, 4, 51, 95
5, 369600, Note_off_c, 4, 51, 95
5, 369600, Note_on_c, 4, 51, 95
5, 369840, Note_off_c, 4, 51, 95
5, 369840, Note_on_c, 4, 46, 95
5, 370080, Note_off_c, 4, 46, 95
5, 370080, Note_on_c, 4, 51, 95
5, 371040, Note_off_c, 4, 51, 95
5, 371040, Note_on_c, 4, 51, 95
5, 371280, Note_off_c, 4, 51, 95
5, 371280, Note_on_c, 4, 46, 95
5, 371520, Note_off_c, 4, 46, 95
5, 371520, Note_on_c, 4, 51, 95
5, 372480, Note_off_c, 4, 51, 95
5, 372480, Note_on_c, 4, 51, 95
5, 372720, Note_off_c, 4, 51, 95
5, 372720, Note_on_c, 4, 46, 95
5, 372960, Note_off_c, 4, 46, 95
5, 372960, Note_on_c, 4, 51, 95
5, 373440, Note_off_c, 4, 51, 95
5, 373440, Note_on_c, 4, 52, 95
5, 373920, Note_off_c, 4, 52, 95
5, 373920, Note_on_c, 4, 52, 95
5, 374400, Note_off_c, 4, 52, 95
5, 374400, Note_on_c, 4, 51, 95
5, 375360, Note_off_c, 4, 51, 95
5, 375360, Note_on_c, 4, 51, 95
5, 375600, Note_off_c, 4, 51, 95
5, 375600, Note_on_c, 4, 46, 95
5, 375840, Note_off_c, 4, 46, 95
5, 375840, Note_on_c, 4, 51, 95
5, 376800, Note_off_c, 4, 51, 95
5, 376800, Note_on_c, 4, 51, 95
5, 377040, Note_off_c, 4, 51, 95
5, 377040, Note_on_c, 4, 46, 95
5, 377280, Note_off_c, 4, 46, 95
5, 377280, Note_on_c, 4, 51, 95
5, 378240, Note_off_c, 4, 51, 95
5, 378240, Note_on_c, 4, 51, 95
5, 378480, Note_off_c, 4, 51, 95
5, 378480, Note_on_c, 4, 46, 95
5, 378720, Note_off_c, 4, 46, 95
5, 378720, Note_on_c, 4, 51, 95
5, 379200, Note_off_c, 4, 51, 95
5, 379200, Note_on_c, 4, 49, 95
5, 379680, Note_off_c, 4, 49, 95
5, 379680, Note_on_c, 4, 46, 95
5, 380160, Note_off_c, 4, 46, 95
5, 380160, Note_on_c, 4, 34, 95
5, 381120, Note_off_c, 4, 34, 95
5, 381120, Note_on_c, 4, 46, 95
5, 381360, Note_off_c, 4, 46, 95
5, 381360, Note_on_c, 4, 41, 95
5, 381600, Note_off_c, 4, 41, 95
5, 381600, Note_on_c, 4, 46, 95
5, 382560, Note_off_c, 4, 46, 95
5, 382560, Note_on_c, 4, 34, 95
5, 383040, Note_off_c, 4, 34, 95
5, 383040, Note_on_c, 4, 35, 95
5, 384000, Note_off_c, 4, 35, 95
5, 384000, Note_on_c, 4, 35, 95
5, 384480, Note_off_c, 4, 35, 95
5, 384480, Note_on_c, 4, 37, 95
5, 384960, Note_off_c, 4, 37, 95
5, 384960, Note_on_c, 4, 39, 95
5, 385440, Note_off_c, 4, 39, 95
5, 385440, Note_on_c, 4, 37, 95
5, 385920, Note_off_c, 4, 37, 95
5, 385920, Note_on_c, 4, 35, 95
5, 386400, Note_off_c, 4, 35, 95
5, 386400, Note_on_c, 4, 34, 95
5, 386880, Note_off_c, 4, 34, 95
5, 386880, Note_on_c, 4, 34, 95
5, 387360, Note_off_c, 4, 34, 95
5, 387360, Note_on_c, 4, 34, 95
5, 388320, Note_off_c, 4, 34, 95
5, 388320, Note_on_c, 4, 34, 95
5, 388800, Note_off_c, 4, 34, 95
5, 388800, Note_on_c, 4, 46, 95
5, 389040, Note_off_c, 4, 46, 95
5, 389040, Note_on_c, 4, 46, 95
5, 389280, Note_off_c, 4, 46, 95
5, 389280, Note_on_c, 4, 46, 95
5, 389760, Note_off_c, 4, 46, 95
5, 389760, Note_on_c, 4, 46, 95
5, 390240, Note_off_c, 4, 46, 95
5, 390240, Note_on_c, 4, 34, 95
5, 390720, Note_off_c, 4, 34, 95
5, 390720, Note_on_c, 4, 39, 95
5, 391200, Note_off_c, 4, 39, 95
5, 391200, Note_on_c, 4, 40, 95
5, 391680, Note_off_c, 4, 40, 95
5, 391680, Note_on_c, 4, 41, 95
5, 392640, Note_off_c, 4, 41, 95
5, 392640, Note_on_c, 4, 51, 95
5, 392880, Note_off_c, 4, 51, 95
5, 392880, Note_on_c, 4, 52, 70
5, 393120, Note_off_c, 4, 52, 70
5, 393120, Note_on_c, 4, 53, 70
5, 394080, Note_off_c, 4, 53, 70
5, 394080, Note_on_c, 4, 53, 95
5, 394560, Note_off_c, 4, 53, 95
5, 394560, Note_on_c, 4, 41, 95
5, 395520, Note_off_c, 4, 41, 95
5, 395520, Note_on_c, 4, 51, 95
5, 395760, Note_off_c, 4, 51, 95
5, 395760, Note_on_c, 4, 52, 70
5, 396000, Note_off_c, 4, 52, 70
5, 396000, Note_on_c, 4, 53, 70
5, 396480, Note_off_c, 4, 53, 70
5, 396480, Note_on_c, 4, 51, 95
5, 396720, Note_off_c, 4, 51, 95
5, 396720, Note_on_c, 4, 53, 95
5, 396960, Note_off_c, 4, 53, 95
5, 396960, Note_on_c, 4, 51, 95
5, 397200, Note_off_c, 4, 51, 95
5, 397200, Note_on_c, 4, 48, 95
5, 397440, Note_off_c, 4, 48, 95
5, 397440, Note_on_c, 4, 39, 95
5, 397920, Note_off_c, 4, 39, 95
5, 403200, Note_on_c, 4, 34, 111
5, 404160, Note_off_c, 4, 34, 111
5, 404160, Note_on_c, 4, 34, 95
5, 404640, Note_off_c, 4, 34, 95
5, 404640, Note_on_c, 4, 38, 95
5, 405600, Note_off_c, 4, 38, 95
5, 405600, Note_on_c, 4, 38, 95
5, 406080, Note_off_c, 4, 38, 95
5, 406080, Note_on_c, 4, 39, 95
5, 406560, Note_off_c, 4, 39, 95
5, 406560, Note_on_c, 4, 39, 95
5, 407040, Note_off_c, 4, 39, 95
5, 407040, Note_on_c, 4, 39, 95
5, 407520, Note_off_c, 4, 39, 95
5, 407520, Note_on_c, 4, 40, 95
5, 408480, Note_off_c, 4, 40, 95
5, 408480, Note_on_c, 4, 40, 95
5, 408960, Note_off_c, 4, 40, 95
5, 408960, Note_on_c, 4, 41, 95
5, 409920, Note_off_c, 4, 41, 95
5, 410400, Note_on_c, 4, 39, 95
5, 411360, Note_off_c, 4, 39, 95
5, 411360, Note_on_c, 4, 38, 95
5, 417600, Note_off_c, 4, 38, 95
5, 417600, End_track
6, 0, Start_track
6, 0, Pitch_bend_c, 9, 8192
6, 0, Control_c, 9, 7, 103
6, 0, Control_c, 9, 10, 95
6, 0, Control_c, 9, 93, 31
6, 0, Control_c, 9, 91, 63
6, 0, Control_c, 9, 95, 0
6, 0, Control_c, 9, 92, 0
6, 0, Control_c, 9, 11, 127
6, 0, Program_c, 9, 0
6, 11520, Note_on_c, 9, 40, 63
6, 12960, Note_off_c, 9, 40, 63
6, 22320, Note_on_c, 9, 40, 31
6, 22440, Note_off_c, 9, 40, 31
6, 22440, Note_on_c, 9, 40, 47
6, 22560, Note_off_c, 9, 40, 47
6, 22560, Note_on_c, 9, 40, 63
6, 23040, Note_off_c, 9, 40, 63
6, 23040, Note_on_c, 9, 49, 95
6, 23040, Note_on_c, 9, 36, 95
6, 24000, Note_off_c, 9, 49, 95
6, 24000, Note_off_c, 9, 36, 95
6, 24000, Note_on_c, 9, 36, 95
6, 24480, Note_off_c, 9, 36, 95
6, 24480, Note_on_c, 9, 51, 95
6, 24480, Note_on_c, 9, 40, 95
6, 24960, Note_off_c, 9, 40, 95
6, 25440, Note_off_c, 9, 51, 95
6, 25440, Note_on_c, 9, 51, 95
6, 25440, Note_on_c, 9, 36, 95
6, 25920, Note_off_c, 9, 51, 95
6, 25920, Note_off_c, 9, 36, 95
6, 25920, Note_on_c, 9, 51, 95
6, 25920, Note_on_c, 9, 36, 95
6, 26400, Note_off_c, 9, 51, 95
6, 26400, Note_off_c, 9, 36, 95
6, 26400, Note_on_c, 9, 51, 47
6, 26880, Note_off_c, 9, 51, 47
6, 26880, Note_on_c, 9, 51, 95
6, 26880, Note_on_c, 9, 36, 95
6, 27360, Note_off_c, 9, 51, 95
6, 27360, Note_off_c, 9, 36, 95
6, 27360, Note_on_c, 9, 51, 95
6, 27360, Note_on_c, 9, 40, 95
6, 27840, Note_off_c, 9, 51, 95
6, 27840, Note_off_c, 9, 40, 95
6, 27840, Note_on_c, 9, 51, 47
6, 28320, Note_off_c, 9, 51, 47
6, 28320, Note_on_c, 9, 51, 95
6, 28320, Note_on_c, 9, 36, 95
6, 28800, Note_off_c, 9, 51, 95
6, 28800, Note_off_c, 9, 36, 95
6, 28800, Note_on_c, 9, 51, 95
6, 28800, Note_on_c, 9, 36, 95
6, 29280, Note_off_c, 9, 51, 95
6, 29280, Note_off_c, 9, 36, 95
6, 29280, Note_on_c, 9, 51, 47
6, 29760, Note_off_c, 9, 51, 47
6, 29760, Note_on_c, 9, 51, 95
6, 29760, Note_on_c, 9, 36, 95
6, 30240, Note_off_c, 9, 51, 95
6, 30240, Note_off_c, 9, 36, 95
6, 30240, Note_on_c, 9, 51, 95
6, 30240, Note_on_c, 9, 40, 95
6, 30720, Note_off_c, 9, 51, 95
6, 30720, Note_off_c, 9, 40, 95
6, 30720, Note_on_c, 9, 51, 47
6, 31200, Note_off_c, 9, 51, 47
6, 31200, Note_on_c, 9, 51, 95
6, 31200, Note_on_c, 9, 36, 95
6, 31680, Note_off_c, 9, 51, 95
6, 31680, Note_off_c, 9, 36, 95
6, 31680, Note_on_c, 9, 51, 95
6, 31680, Note_on_c, 9, 36, 95
6, 32160, Note_off_c, 9, 51, 95
6, 32160, Note_off_c, 9, 36, 95
6, 32160, Note_on_c, 9, 51, 47
6, 32640, Note_off_c, 9, 51, 47
6, 32640, Note_on_c, 9, 51, 95
6, 32640, Note_on_c, 9, 36, 95
6, 33120, Note_off_c, 9, 51, 95
6, 33120, Note_off_c, 9, 36, 95
6, 33120, Note_on_c, 9, 51, 95
6, 33120, Note_on_c, 9, 40, 95
6, 33600, Note_off_c, 9, 51, 95
6, 33600, Note_off_c, 9, 40, 95
6, 33600, Note_on_c, 9, 51, 47
6, 33840, Note_off_c, 9, 51, 47
6, 33840, Note_on_c, 9, 36, 95
6, 33960, Note_off_c, 9, 36, 95
6, 33960, Note_on_c, 9, 36, 95
6, 34080, Note_off_c, 9, 36, 95
6, 34080, Note_on_c, 9, 51, 95
6, 34080, Note_on_c, 9, 36, 95
6, 34560, Note_off_c, 9, 51, 95
6, 34560, Note_off_c, 9, 36, 95
6, 34560, Note_on_c, 9, 51, 95
6, 34560, Note_on_c, 9, 36, 95
6, 35040, Note_off_c, 9, 51, 95
6, 35040, Note_off_c, 9, 36, 95
6, 35040, Note_on_c, 9, 51, 47
6, 35520, Note_off_c, 9, 51, 47
6, 35520, Note_on_c, 9, 51, 95
6, 35520, Note_on_c, 9, 36, 95
6, 36000, Note_off_c, 9, 51, 95
6, 36000, Note_off_c, 9, 36, 95
6, 36000, Note_on_c, 9, 51, 95
6, 36000, Note_on_c, 9, 40, 95
6, 36480, Note_off_c, 9, 51, 95
6, 36480, Note_off_c, 9, 40, 95
6, 36480, Note_on_c, 9, 51, 47
6, 36960, Note_off_c, 9, 51, 47
6, 36960, Note_on_c, 9, 51, 95
6, 36960, Note_on_c, 9, 36, 95
6, 37440, Note_off_c, 9, 51, 95
6, 37440, Note_off_c, 9, 36, 95
6, 37440, Note_on_c, 9, 51, 95
6, 37440, Note_on_c, 9, 36, 95
6, 37920, Note_off_c, 9, 51, 95
6, 37920, Note_off_c, 9, 36, 95
6, 37920, Note_on_c, 9, 51, 47
6, 38400, Note_off_c, 9, 51, 47
6, 38400, Note_on_c, 9, 51, 95
6, 38400, Note_on_c, 9, 36, 95
6, 38880, Note_off_c, 9, 51, 95
6, 38880, Note_off_c, 9, 36, 95
6, 38880, Note_on_c, 9, 51, 95
6, 38880, Note_on_c, 9, 40, 95
6, 39360, Note_off_c, 9, 51, 95
6, 39360, Note_off_c, 9, 40, 95
6, 39360, Note_on_c, 9, 51, 47
6, 39360, Note_on_c, 9, 45, 47
6, 39480, Note_off_c, 9, 51, 47
6, 39480, Note_off_c, 9, 45, 47
6, 39480, Note_on_c, 9, 45, 47
6, 39600, Note_off_c, 9, 45, 47
6, 39600, Note_on_c, 9, 45, 47
6, 39840, Note_off_c, 9, 45, 47
6, 39840, Note_on_c, 9, 51, 95
6, 39840, Note_on_c, 9, 43, 47
6, 39960, Note_off_c, 9, 51, 95
6, 39960, Note_off_c, 9, 43, 47
6, 39960, Note_on_c, 9, 43, 47
6, 40080, Note_off_c, 9, 43, 47
6, 40080, Note_on_c, 9, 43, 47
6, 40320, Note_off_c, 9, 43, 47
6, 40320, Note_on_c, 9, 51, 95
6, 40320, Note_on_c, 9, 36, 95
6, 40800, Note_off_c, 9, 51, 95
6, 40800, Note_off_c, 9, 36, 95
6, 40800, Note_on_c, 9, 51, 47
6, 41280, Note_off_c, 9, 51, 47
6, 41280, Note_on_c, 9, 51, 95
6, 41280, Note_on_c, 9, 36, 95
6, 41760, Note_off_c, 9, 51, 95
6, 41760, Note_off_c, 9, 36, 95
6, 41760, Note_on_c, 9, 51, 95
6, 41760, Note_on_c, 9, 40, 95
6, 42240, Note_off_c, 9, 51, 95
6, 42240, Note_off_c, 9, 40, 95
6, 42240, Note_on_c, 9, 51, 47
6, 42720, Note_off_c, 9, 51, 47
6, 42720, Note_on_c, 9, 51, 95
6, 42720, Note_on_c, 9, 36, 95
6, 43200, Note_off_c, 9, 51, 95
6, 43200, Note_off_c, 9, 36, 95
6, 43200, Note_on_c, 9, 51, 95
6, 43200, Note_on_c, 9, 36, 95
6, 43680, Note_off_c, 9, 51, 95
6, 43680, Note_off_c, 9, 36, 95
6, 43680, Note_on_c, 9, 51, 47
6, 44160, Note_off_c, 9, 51, 47
6, 44160, Note_on_c, 9, 51, 95
6, 44400, Note_off_c, 9, 51, 95
6, 44400, Note_on_c, 9, 36, 95
6, 44640, Note_off_c, 9, 36, 95
6, 44640, Note_on_c, 9, 51, 95
6, 44640, Note_on_c, 9, 40, 95
6, 45120, Note_off_c, 9, 51, 95
6, 45120, Note_off_c, 9, 40, 95
6, 45120, Note_on_c, 9, 51, 47
6, 45120, Note_on_c, 9, 36, 95
6, 45360, Note_off_c, 9, 51, 47
6, 45360, Note_off_c, 9, 36, 95
6, 45360, Note_on_c, 9, 40, 95
6, 45600, Note_off_c, 9, 40, 95
6, 45600, Note_on_c, 9, 51, 95
6, 46080, Note_off_c, 9, 51, 95
6, 46080, Note_on_c, 9, 51, 95
6, 46080, Note_on_c, 9, 36, 95
6, 46560, Note_off_c, 9, 51, 95
6, 46560, Note_off_c, 9, 36, 95
6, 46560, Note_on_c, 9, 51, 47
6, 47040, Note_off_c, 9, 51, 47
6, 47040, Note_on_c, 9, 51, 95
6, 47040, Note_on_c, 9, 36, 95
6, 47520, Note_off_c, 9, 51, 95
6, 47520, Note_off_c, 9, 36, 95
6, 47520, Note_on_c, 9, 51, 95
6, 47520, Note_on_c, 9, 40, 95
6, 48000, Note_off_c, 9, 51, 95
6, 48000, Note_off_c, 9, 40, 95
6, 48000, Note_on_c, 9, 51, 47
6, 48480, Note_off_c, 9, 51, 47
6, 48480, Note_on_c, 9, 51, 95
6, 48480, Note_on_c, 9, 36, 95
6, 48960, Note_off_c, 9, 51, 95
6, 48960, Note_off_c, 9, 36, 95
6, 48960, Note_on_c, 9, 51, 95
6, 48960, Note_on_c, 9, 36, 95
6, 49440, Note_off_c, 9, 51, 95
6, 49440, Note_off_c, 9, 36, 95
6, 49440, Note_on_c, 9, 51, 47
6, 49920, Note_off_c, 9, 51, 47
6, 49920, Note_on_c, 9, 51, 95
6, 49920, Note_on_c, 9, 36, 95
6, 50400, Note_off_c, 9, 51, 95
6, 50400, Note_off_c, 9, 36, 95
6, 50400, Note_on_c, 9, 51, 95
6, 50400, Note_on_c, 9, 40, 95
6, 50880, Note_off_c, 9, 51, 95
6, 50880, Note_off_c, 9, 40, 95
6, 50880, Note_on_c, 9, 51, 47
6, 51360, Note_off_c, 9, 51, 47
6, 51360, Note_on_c, 9, 51, 95
6, 51360, Note_on_c, 9, 45, 47
6, 51480, Note_off_c, 9, 51, 95
6, 51480, Note_off_c, 9, 45, 47
6, 51480, Note_on_c, 9, 45, 47
6, 51600, Note_off_c, 9, 45, 47
6, 51600, Note_on_c, 9, 45, 47
6, 51840, Note_off_c, 9, 45, 47
6, 51840, Note_on_c, 9, 51, 95
6, 51840, Note_on_c, 9, 36, 95
6, 52320, Note_off_c, 9, 51, 95
6, 52320, Note_off_c, 9, 36, 95
6, 52320, Note_on_c, 9, 51, 47
6, 52800, Note_off_c, 9, 51, 47
6, 52800, Note_on_c, 9, 51, 95
6, 52800, Note_on_c, 9, 36, 95
6, 53280, Note_off_c, 9, 51, 95
6, 53280, Note_off_c, 9, 36, 95
6, 53280, Note_on_c, 9, 51, 95
6, 53280, Note_on_c, 9, 40, 95
6, 53760, Note_off_c, 9, 51, 95
6, 53760, Note_off_c, 9, 40, 95
6, 53760, Note_on_c, 9, 51, 47
6, 54240, Note_off_c, 9, 51, 47
6, 54240, Note_on_c, 9, 51, 95
6, 54240, Note_on_c, 9, 36, 95
6, 54720, Note_off_c, 9, 51, 95
6, 54720, Note_off_c, 9, 36, 95
6, 54720, Note_on_c, 9, 51, 95
6, 54720, Note_on_c, 9, 36, 95
6, 55200, Note_off_c, 9, 51, 95
6, 55200, Note_off_c, 9, 36, 95
6, 55200, Note_on_c, 9, 51, 47
6, 55680, Note_off_c, 9, 51, 47
6, 55680, Note_on_c, 9, 51, 95
6, 55680, Note_on_c, 9, 36, 95
6, 56160, Note_off_c, 9, 51, 95
6, 56160, Note_off_c, 9, 36, 95
6, 56160, Note_on_c, 9, 51, 95
6, 56160, Note_on_c, 9, 40, 95
6, 56640, Note_off_c, 9, 51, 95
6, 56640, Note_off_c, 9, 40, 95
6, 56640, Note_on_c, 9, 51, 47
6, 56880, Note_off_c, 9, 51, 47
6, 56880, Note_on_c, 9, 40, 47
6, 57000, Note_off_c, 9, 40, 47
6, 57000, Note_on_c, 9, 40, 47
6, 57120, Note_off_c, 9, 40, 47
6, 57120, Note_on_c, 9, 51, 95
6, 57120, Note_on_c, 9, 40, 47
6, 57600, Note_off_c, 9, 51, 95
6, 57600, Note_off_c, 9, 40, 47
6, 57600, Note_on_c, 9, 51, 95
6, 57600, Note_on_c, 9, 36, 95
6, 58080, Note_off_c, 9, 51, 95
6, 58080, Note_off_c, 9, 36, 95
6, 58080, Note_on_c, 9, 51, 47
6, 58560, Note_off_c, 9, 51, 47
6, 58560, Note_on_c, 9, 51, 95
6, 58560, Note_on_c, 9, 36, 95
6, 59040, Note_off_c, 9, 51, 95
6, 59040, Note_off_c, 9, 36, 95
6, 59040, Note_on_c, 9, 51, 95
6, 59040, Note_on_c, 9, 40, 95
6, 59520, Note_off_c, 9, 51, 95
6, 59520, Note_off_c, 9, 40, 95
6, 59520, Note_on_c, 9, 51, 47
6, 60000, Note_off_c, 9, 51, 47
6, 60000, Note_on_c, 9, 51, 95
6, 60000, Note_on_c, 9, 36, 95
6, 60480, Note_off_c, 9, 51, 95
6, 60480, Note_off_c, 9, 36, 95
6, 60480, Note_on_c, 9, 51, 95
6, 60480, Note_on_c, 9, 36, 95
6, 60960, Note_off_c, 9, 51, 95
6, 60960, Note_off_c, 9, 36, 95
6, 60960, Note_on_c, 9, 51, 47
6, 61440, Note_off_c, 9, 51, 47
6, 61440, Note_on_c, 9, 51, 95
6, 61440, Note_on_c, 9, 36, 95
6, 61920, Note_off_c, 9, 51, 95
6, 61920, Note_off_c, 9, 36, 95
6, 61920, Note_on_c, 9, 51, 95
6, 61920, Note_on_c, 9, 40, 95
6, 62400, Note_off_c, 9, 51, 95
6, 62400, Note_off_c, 9, 40, 95
6, 62400, Note_on_c, 9, 51, 47
6, 62880, Note_off_c, 9, 51, 47
6, 62880, Note_on_c, 9, 51, 95
6, 62880, Note_on_c, 9, 36, 95
6, 63360, Note_off_c, 9, 51, 95
6, 63360, Note_off_c, 9, 36, 95
6, 63360, Note_on_c, 9, 51, 95
6, 63360, Note_on_c, 9, 36, 95
6, 63840, Note_off_c, 9, 51, 95
6, 63840, Note_off_c, 9, 36, 95
6, 63840, Note_on_c, 9, 51, 47
6, 64320, Note_off_c, 9, 51, 47
6, 64320, Note_on_c, 9, 51, 95
6, 64320, Note_on_c, 9, 36, 95
6, 64800, Note_off_c, 9, 51, 95
6, 64800, Note_off_c, 9, 36, 95
6, 64800, Note_on_c, 9, 51, 95
6, 64800, Note_on_c, 9, 40, 95
6, 65280, Note_off_c, 9, 51, 95
6, 65280, Note_off_c, 9, 40, 95
6, 65280, Note_on_c, 9, 51, 47
6, 65760, Note_off_c, 9, 51, 47
6, 65760, Note_on_c, 9, 51, 95
6, 65760, Note_on_c, 9, 36, 95
6, 66240, Note_off_c, 9, 51, 95
6, 66240, Note_off_c, 9, 36, 95
6, 66240, Note_on_c, 9, 51, 95
6, 66240, Note_on_c, 9, 36, 95
6, 66720, Note_off_c, 9, 51, 95
6, 66720, Note_off_c, 9, 36, 95
6, 66720, Note_on_c, 9, 51, 47
6, 67200, Note_off_c, 9, 51, 47
6, 67200, Note_on_c, 9, 51, 95
6, 67200, Note_on_c, 9, 36, 95
6, 67680, Note_off_c, 9, 51, 95
6, 67680, Note_off_c, 9, 36, 95
6, 67680, Note_on_c, 9, 51, 95
6, 67680, Note_on_c, 9, 40, 95
6, 68160, Note_off_c, 9, 51, 95
6, 68160, Note_off_c, 9, 40, 95
6, 68160, Note_on_c, 9, 51, 47
6, 68400, Note_off_c, 9, 51, 47
6, 68400, Note_on_c, 9, 40, 47
6, 68520, Note_off_c, 9, 40, 47
6, 68520, Note_on_c, 9, 40, 47
6, 68640, Note_off_c, 9, 40, 47
6, 68640, Note_on_c, 9, 51, 95
6, 68640, Note_on_c, 9, 40, 47
6, 69120, Note_off_c, 9, 51, 95
6, 69120, Note_off_c, 9, 40, 47
6, 69120, Note_on_c, 9, 51, 95
6, 69120, Note_on_c, 9, 36, 95
6, 69600, Note_off_c, 9, 51, 95
6, 69600, Note_off_c, 9, 36, 95
6, 69600, Note_on_c, 9, 51, 47
6, 70080, Note_off_c, 9, 51, 47
6, 70080, Note_on_c, 9, 51, 95
6, 70080, Note_on_c, 9, 36, 95
6, 70560, Note_off_c, 9, 51, 95
6, 70560, Note_off_c, 9, 36, 95
6, 70560, Note_on_c, 9, 51, 111
6, 70560, Note_on_c, 9, 33, 95
6, 71040, Note_off_c, 9, 51, 111
6, 71040, Note_off_c, 9, 33, 95
6, 71040, Note_on_c, 9, 51, 47
6, 71520, Note_off_c, 9, 51, 47
6, 71520, Note_on_c, 9, 51, 95
6, 71520, Note_on_c, 9, 36, 95
6, 72000, Note_off_c, 9, 51, 95
6, 72000, Note_off_c, 9, 36, 95
6, 72000, Note_on_c, 9, 51, 95
6, 72000, Note_on_c, 9, 36, 95
6, 72480, Note_off_c, 9, 51, 95
6, 72480, Note_off_c, 9, 36, 95
6, 72480, Note_on_c, 9, 51, 47
6, 72960, Note_off_c, 9, 51, 47
6, 72960, Note_on_c, 9, 51, 95
6, 72960, Note_on_c, 9, 36, 95
6, 73440, Note_off_c, 9, 51, 95
6, 73440, Note_off_c, 9, 36, 95
6, 73440, Note_on_c, 9, 51, 95
6, 73440, Note_on_c, 9, 40, 47
6, 73920, Note_off_c, 9, 51, 95
6, 73920, Note_off_c, 9, 40, 47
6, 73920, Note_on_c, 9, 51, 47
6, 74400, Note_off_c, 9, 51, 47
6, 74400, Note_on_c, 9, 51, 95
6, 74400, Note_on_c, 9, 36, 95
6, 74880, Note_off_c, 9, 51, 95
6, 74880, Note_off_c, 9, 36, 95
6, 74880, Note_on_c, 9, 51, 95
6, 74880, Note_on_c, 9, 36, 95
6, 75360, Note_off_c, 9, 51, 95
6, 75360, Note_off_c, 9, 36, 95
6, 75360, Note_on_c, 9, 51, 47
6, 75840, Note_off_c, 9, 51, 47
6, 75840, Note_on_c, 9, 51, 95
6, 75840, Note_on_c, 9, 36, 95
6, 76320, Note_off_c, 9, 51, 95
6, 76320, Note_off_c, 9, 36, 95
6, 76320, Note_on_c, 9, 51, 111
6, 76320, Note_on_c, 9, 40, 95
6, 76800, Note_off_c, 9, 51, 111
6, 76800, Note_off_c, 9, 40, 95
6, 76800, Note_on_c, 9, 51, 47
6, 77280, Note_off_c, 9, 51, 47
6, 77280, Note_on_c, 9, 51, 95
6, 77280, Note_on_c, 9, 36, 95
6, 77760, Note_off_c, 9, 51, 95
6, 77760, Note_off_c, 9, 36, 95
6, 77760, Note_on_c, 9, 51, 95
6, 77760, Note_on_c, 9, 36, 95
6, 78240, Note_off_c, 9, 51, 95
6, 78240, Note_off_c, 9, 36, 95
6, 78240, Note_on_c, 9, 51, 47
6, 78720, Note_off_c, 9, 51, 47
6, 78720, Note_on_c, 9, 51, 95
6, 78720, Note_on_c, 9, 36, 95
6, 79200, Note_off_c, 9, 51, 95
6, 79200, Note_off_c, 9, 36, 95
6, 79200, Note_on_c, 9, 51, 95
6, 79200, Note_on_c, 9, 40, 95
6, 79680, Note_off_c, 9, 51, 95
6, 79680, Note_off_c, 9, 40, 95
6, 79680, Note_on_c, 9, 51, 47
6, 80160, Note_off_c, 9, 51, 47
6, 80160, Note_on_c, 9, 51, 95
6, 80160, Note_on_c, 9, 40, 47
6, 80400, Note_off_c, 9, 51, 95
6, 80400, Note_off_c, 9, 40, 47
6, 80400, Note_on_c, 9, 40, 47
6, 80640, Note_off_c, 9, 40, 47
6, 80640, Note_on_c, 9, 51, 95
6, 80640, Note_on_c, 9, 36, 95
6, 81120, Note_off_c, 9, 51, 95
6, 81120, Note_off_c, 9, 36, 95
6, 81120, Note_on_c, 9, 51, 47
6, 81600, Note_off_c, 9, 51, 47
6, 81600, Note_on_c, 9, 51, 95
6, 81600, Note_on_c, 9, 36, 95
6, 82080, Note_off_c, 9, 51, 95
6, 82080, Note_off_c, 9, 36, 95
6, 82080, Note_on_c, 9, 51, 111
6, 82080, Note_on_c, 9, 40, 95
6, 82560, Note_off_c, 9, 51, 111
6, 82560, Note_off_c, 9, 40, 95
6, 82560, Note_on_c, 9, 51, 47
6, 83040, Note_off_c, 9, 51, 47
6, 83040, Note_on_c, 9, 51, 95
6, 83040, Note_on_c, 9, 36, 95
6, 83520, Note_off_c, 9, 51, 95
6, 83520, Note_off_c, 9, 36, 95
6, 83520, Note_on_c, 9, 51, 95
6, 83520, Note_on_c, 9, 36, 95
6, 84000, Note_off_c, 9, 51, 95
6, 84000, Note_off_c, 9, 36, 95
6, 84000, Note_on_c, 9, 51, 47
6, 84480, Note_off_c, 9, 51, 47
6, 84480, Note_on_c, 9, 51, 95
6, 84480, Note_on_c, 9, 36, 95
6, 84960, Note_off_c, 9, 51, 95
6, 84960, Note_off_c, 9, 36, 95
6, 84960, Note_on_c, 9, 51, 95
6, 84960, Note_on_c, 9, 40, 95
6, 85440, Note_off_c, 9, 51, 95
6, 85440, Note_off_c, 9, 40, 95
6, 85440, Note_on_c, 9, 51, 47
6, 85920, Note_off_c, 9, 51, 47
6, 85920, Note_on_c, 9, 51, 95
6, 85920, Note_on_c, 9, 36, 95
6, 86400, Note_off_c, 9, 51, 95
6, 86400, Note_off_c, 9, 36, 95
6, 86400, Note_on_c, 9, 51, 95
6, 86400, Note_on_c, 9, 36, 95
6, 86640, Note_off_c, 9, 51, 95
6, 86640, Note_off_c, 9, 36, 95
6, 86640, Note_on_c, 9, 40, 95
6, 86880, Note_off_c, 9, 40, 95
6, 86880, Note_on_c, 9, 51, 95
6, 87120, Note_off_c, 9, 51, 95
6, 87120, Note_on_c, 9, 40, 95
6, 87360, Note_off_c, 9, 40, 95
6, 87360, Note_on_c, 9, 51, 95
6, 87360, Note_on_c, 9, 40, 95
6, 87600, Note_off_c, 9, 51, 95
6, 87600, Note_off_c, 9, 40, 95
6, 87600, Note_on_c, 9, 36, 95
6, 87840, Note_off_c, 9, 36, 95
6, 87840, Note_on_c, 9, 51, 95
6, 87840, Note_on_c, 9, 36, 95
6, 88080, Note_off_c, 9, 51, 95
6, 88080, Note_off_c, 9, 36, 95
6, 88080, Note_on_c, 9, 40, 95
6, 88320, Note_off_c, 9, 40, 95
6, 88320, Note_on_c, 9, 51, 95
6, 88560, Note_off_c, 9, 51, 95
6, 88560, Note_on_c, 9, 40, 95
6, 88800, Note_off_c, 9, 40, 95
6, 88800, Note_on_c, 9, 51, 95
6, 88800, Note_on_c, 9, 40, 95
6, 89040, Note_off_c, 9, 51, 95
6, 89040, Note_off_c, 9, 40, 95
6, 89040, Note_on_c, 9, 36, 95
6, 89280, Note_off_c, 9, 36, 95
6, 89280, Note_on_c, 9, 51, 95
6, 89280, Note_on_c, 9, 45, 95
6, 89520, Note_off_c, 9, 51, 95
6, 89520, Note_off_c, 9, 45, 95
6, 89520, Note_on_c, 9, 40, 95
6, 89760, Note_off_c, 9, 40, 95
6, 89760, Note_on_c, 9, 51, 95
6, 89760, Note_on_c, 9, 40, 95
6, 90000, Note_off_c, 9, 51, 95
6, 90000, Note_off_c, 9, 40, 95
6, 90000, Note_on_c, 9, 40, 95
6, 90240, Note_off_c, 9, 40, 95
6, 90240, Note_on_c, 9, 51, 95
6, 90240, Note_on_c, 9, 40, 95
6, 90480, Note_off_c, 9, 51, 95
6, 90480, Note_off_c, 9, 40, 95
6, 90480, Note_on_c, 9, 40, 95
6, 90720, Note_off_c, 9, 40, 95
6, 90720, Note_on_c, 9, 51, 95
6, 90720, Note_on_c, 9, 40, 95
6, 90960, Note_off_c, 9, 51, 95
6, 90960, Note_off_c, 9, 40, 95
6, 90960, Note_on_c, 9, 40, 95
6, 91200, Note_off_c, 9, 40, 95
6, 91200, Note_on_c, 9, 40, 95
6, 91200, Note_on_c, 9, 36, 95
6, 91680, Note_off_c, 9, 40, 95
6, 91680, Note_off_c, 9, 36, 95
6, 91680, Note_on_c, 9, 45, 95
6, 91680, Note_on_c, 9, 36, 95
6, 92160, Note_off_c, 9, 45, 95
6, 92160, Note_off_c, 9, 36, 95
6, 92160, Note_on_c, 9, 51, 95
6, 92160, Note_on_c, 9, 36, 95
6, 92640, Note_off_c, 9, 51, 95
6, 92640, Note_off_c, 9, 36, 95
6, 92640, Note_on_c, 9, 51, 47
6, 93120, Note_off_c, 9, 51, 47
6, 93120, Note_on_c, 9, 51, 95
6, 93120, Note_on_c, 9, 36, 95
6, 93600, Note_off_c, 9, 51, 95
6, 93600, Note_off_c, 9, 36, 95
6, 93600, Note_on_c, 9, 51, 111
6, 93600, Note_on_c, 9, 40, 95
6, 93840, Note_off_c, 9, 51, 111
6, 93840, Note_off_c, 9, 40, 95
6, 93840, Note_on_c, 9, 40, 47
6, 94080, Note_off_c, 9, 40, 47
6, 94080, Note_on_c, 9, 51, 47
6, 94560, Note_off_c, 9, 51, 47
6, 94560, Note_on_c, 9, 51, 95
6, 94560, Note_on_c, 9, 36, 95
6, 95040, Note_off_c, 9, 51, 95
6, 95040, Note_off_c, 9, 36, 95
6, 95040, Note_on_c, 9, 51, 95
6, 95040, Note_on_c, 9, 36, 95
6, 95520, Note_off_c, 9, 51, 95
6, 95520, Note_off_c, 9, 36, 95
6, 95520, Note_on_c, 9, 51, 47
6, 96000, Note_off_c, 9, 51, 47
6, 96000, Note_on_c, 9, 51, 95
6, 96000, Note_on_c, 9, 36, 95
6, 96480, Note_off_c, 9, 51, 95
6, 96480, Note_off_c, 9, 36, 95
6, 96480, Note_on_c, 9, 51, 95
6, 96480, Note_on_c, 9, 40, 95
6, 96960, Note_off_c, 9, 51, 95
6, 96960, Note_off_c, 9, 40, 95
6, 96960, Note_on_c, 9, 51, 47
6, 97440, Note_off_c, 9, 51, 47
6, 97440, Note_on_c, 9, 51, 95
6, 97440, Note_on_c, 9, 40, 47
6, 97680, Note_off_c, 9, 51, 95
6, 97680, Note_off_c, 9, 40, 47
6, 97680, Note_on_c, 9, 40, 47
6, 97920, Note_off_c, 9, 40, 47
6, 97920, Note_on_c, 9, 51, 95
6, 97920, Note_on_c, 9, 36, 95
6, 98400, Note_off_c, 9, 51, 95
6, 98400, Note_off_c, 9, 36, 95
6, 98400, Note_on_c, 9, 51, 47
6, 98880, Note_off_c, 9, 51, 47
6, 98880, Note_on_c, 9, 51, 95
6, 98880, Note_on_c, 9, 36, 95
6, 99360, Note_off_c, 9, 51, 95
6, 99360, Note_off_c, 9, 36, 95
6, 99360, Note_on_c, 9, 51, 111
6, 99360, Note_on_c, 9, 40, 95
6, 99840, Note_off_c, 9, 51, 111
6, 99840, Note_off_c, 9, 40, 95
6, 99840, Note_on_c, 9, 51, 47
6, 100320, Note_off_c, 9, 51, 47
6, 100320, Note_on_c, 9, 51, 95
6, 100320, Note_on_c, 9, 36, 95
6, 100800, Note_off_c, 9, 51, 95
6, 100800, Note_off_c, 9, 36, 95
6, 100800, Note_on_c, 9, 51, 95
6, 100800, Note_on_c, 9, 36, 95
6, 101280, Note_off_c, 9, 51, 95
6, 101280, Note_off_c, 9, 36, 95
6, 101280, Note_on_c, 9, 51, 47
6, 101760, Note_off_c, 9, 51, 47
6, 101760, Note_on_c, 9, 51, 95
6, 101760, Note_on_c, 9, 36, 95
6, 102240, Note_off_c, 9, 51, 95
6, 102240, Note_off_c, 9, 36, 95
6, 102240, Note_on_c, 9, 51, 95
6, 102240, Note_on_c, 9, 45, 95
6, 102720, Note_off_c, 9, 51, 95
6, 102720, Note_off_c, 9, 45, 95
6, 102720, Note_on_c, 9, 51, 47
6, 103200, Note_off_c, 9, 51, 47
6, 103200, Note_on_c, 9, 51, 95
6, 103200, Note_on_c, 9, 40, 47
6, 103440, Note_off_c, 9, 51, 95
6, 103440, Note_off_c, 9, 40, 47
6, 103440, Note_on_c, 9, 40, 47
6, 103680, Note_off_c, 9, 40, 47
6, 103680, Note_on_c, 9, 51, 95
6, 103680, Note_on_c, 9, 36, 95
6, 104160, Note_off_c, 9, 51, 95
6, 104160, Note_off_c, 9, 36, 95
6, 104160, Note_on_c, 9, 51, 47
6, 104640, Note_off_c, 9, 51, 47
6, 104640, Note_on_c, 9, 51, 95
6, 104640, Note_on_c, 9, 36, 95
6, 105120, Note_off_c, 9, 51, 95
6, 105120, Note_off_c, 9, 36, 95
6, 105120, Note_on_c, 9, 51, 111
6, 105120, Note_on_c, 9, 40, 95
6, 105600, Note_off_c, 9, 51, 111
6, 105600, Note_off_c, 9, 40, 95
6, 105600, Note_on_c, 9, 51, 47
6, 106080, Note_off_c, 9, 51, 47
6, 106080, Note_on_c, 9, 51, 95
6, 106080, Note_on_c, 9, 36, 95
6, 106560, Note_off_c, 9, 51, 95
6, 106560, Note_off_c, 9, 36, 95
6, 106560, Note_on_c, 9, 51, 95
6, 106560, Note_on_c, 9, 36, 95
6, 107040, Note_off_c, 9, 51, 95
6, 107040, Note_off_c, 9, 36, 95
6, 107040, Note_on_c, 9, 51, 47
6, 107520, Note_off_c, 9, 51, 47
6, 107520, Note_on_c, 9, 51, 95
6, 107520, Note_on_c, 9, 36, 95
6, 108000, Note_off_c, 9, 51, 95
6, 108000, Note_off_c, 9, 36, 95
6, 108000, Note_on_c, 9, 51, 95
6, 108000, Note_on_c, 9, 40, 95
6, 108480, Note_off_c, 9, 51, 95
6, 108480, Note_off_c, 9, 40, 95
6, 108480, Note_on_c, 9, 51, 47
6, 108960, Note_off_c, 9, 51, 47
6, 108960, Note_on_c, 9, 51, 95
6, 108960, Note_on_c, 9, 36, 95
6, 109440, Note_off_c, 9, 51, 95
6, 109440, Note_off_c, 9, 36, 95
6, 109440, Note_on_c, 9, 51, 95
6, 109440, Note_on_c, 9, 36, 95
6, 109920, Note_off_c, 9, 51, 95
6, 109920, Note_off_c, 9, 36, 95
6, 109920, Note_on_c, 9, 51, 47
6, 110400, Note_off_c, 9, 51, 47
6, 110400, Note_on_c, 9, 51, 95
6, 110400, Note_on_c, 9, 36, 95
6, 110880, Note_off_c, 9, 51, 95
6, 110880, Note_off_c, 9, 36, 95
6, 110880, Note_on_c, 9, 51, 111
6, 110880, Note_on_c, 9, 40, 95
6, 111360, Note_off_c, 9, 51, 111
6, 111360, Note_off_c, 9, 40, 95
6, 111360, Note_on_c, 9, 51, 47
6, 111840, Note_off_c, 9, 51, 47
6, 111840, Note_on_c, 9, 51, 95
6, 111840, Note_on_c, 9, 36, 95
6, 112320, Note_off_c, 9, 51, 95
6, 112320, Note_off_c, 9, 36, 95
6, 112320, Note_on_c, 9, 51, 95
6, 112320, Note_on_c, 9, 36, 95
6, 112800, Note_off_c, 9, 51, 95
6, 112800, Note_off_c, 9, 36, 95
6, 112800, Note_on_c, 9, 51, 47
6, 113280, Note_off_c, 9, 51, 47
6, 113280, Note_on_c, 9, 51, 95
6, 113280, Note_on_c, 9, 36, 95
6, 113760, Note_off_c, 9, 51, 95
6, 113760, Note_off_c, 9, 36, 95
6, 113760, Note_on_c, 9, 51, 95
6, 113760, Note_on_c, 9, 40, 95
6, 114000, Note_off_c, 9, 51, 95
6, 114000, Note_off_c, 9, 40, 95
6, 114000, Note_on_c, 9, 40, 47
6, 114240, Note_off_c, 9, 40, 47
6, 114240, Note_on_c, 9, 51, 47
6, 114720, Note_off_c, 9, 51, 47
6, 114720, Note_on_c, 9, 51, 111
6, 114720, Note_on_c, 9, 36, 95
6, 115200, Note_off_c, 9, 51, 111
6, 115200, Note_off_c, 9, 36, 95
6, 115200, Note_on_c, 9, 51, 95
6, 115200, Note_on_c, 9, 36, 95
6, 115680, Note_off_c, 9, 51, 95
6, 115680, Note_off_c, 9, 36, 95
6, 115680, Note_on_c, 9, 51, 47
6, 116160, Note_off_c, 9, 51, 47
6, 116160, Note_on_c, 9, 51, 95
6, 116160, Note_on_c, 9, 36, 95
6, 116640, Note_off_c, 9, 51, 95
6, 116640, Note_off_c, 9, 36, 95
6, 116640, Note_on_c, 9, 57, 95
6, 116640, Note_on_c, 9, 40, 95
6, 117120, Note_off_c, 9, 40, 95
6, 117600, Note_off_c, 9, 57, 95
6, 117600, Note_on_c, 9, 51, 95
6, 117600, Note_on_c, 9, 36, 95
6, 118080, Note_off_c, 9, 51, 95
6, 118080, Note_off_c, 9, 36, 95
6, 118080, Note_on_c, 9, 51, 95
6, 118080, Note_on_c, 9, 36, 95
6, 118560, Note_off_c, 9, 51, 95
6, 118560, Note_off_c, 9, 36, 95
6, 118560, Note_on_c, 9, 51, 47
6, 119040, Note_off_c, 9, 51, 47
6, 119040, Note_on_c, 9, 51, 95
6, 119040, Note_on_c, 9, 36, 95
6, 119520, Note_off_c, 9, 51, 95
6, 119520, Note_off_c, 9, 36, 95
6, 119520, Note_on_c, 9, 51, 95
6, 119520, Note_on_c, 9, 40, 95
6, 120000, Note_off_c, 9, 51, 95
6, 120000, Note_off_c, 9, 40, 95
6, 120000, Note_on_c, 9, 51, 47
6, 120000, Note_on_c, 9, 40, 63
6, 120480, Note_off_c, 9, 51, 47
6, 120480, Note_off_c, 9, 40, 63
6, 120480, Note_on_c, 9, 51, 95
6, 120480, Note_on_c, 9, 40, 47
6, 120600, Note_off_c, 9, 51, 95
6, 120600, Note_off_c, 9, 40, 47
6, 120600, Note_on_c, 9, 40, 47
6, 120720, Note_off_c, 9, 40, 47
6, 120720, Note_on_c, 9, 40, 95
6, 120960, Note_off_c, 9, 40, 95
6, 120960, Note_on_c, 9, 51, 95
6, 120960, Note_on_c, 9, 36, 95
6, 121440, Note_off_c, 9, 51, 95
6, 121440, Note_off_c, 9, 36, 95
6, 121440, Note_on_c, 9, 51, 47
6, 121920, Note_off_c, 9, 51, 47
6, 121920, Note_on_c, 9, 51, 95
6, 121920, Note_on_c, 9, 36, 95
6, 122400, Note_off_c, 9, 51, 95
6, 122400, Note_off_c, 9, 36, 95
6, 122400, Note_on_c, 9, 51, 111
6, 122400, Note_on_c, 9, 40, 95
6, 122880, Note_off_c, 9, 51, 111
6, 122880, Note_off_c, 9, 40, 95
6, 122880, Note_on_c, 9, 51, 47
6, 123360, Note_off_c, 9, 51, 47
6, 123360, Note_on_c, 9, 51, 95
6, 123360, Note_on_c, 9, 36, 95
6, 123840, Note_off_c, 9, 51, 95
6, 123840, Note_off_c, 9, 36, 95
6, 123840, Note_on_c, 9, 51, 95
6, 123840, Note_on_c, 9, 36, 95
6, 124320, Note_off_c, 9, 51, 95
6, 124320, Note_off_c, 9, 36, 95
6, 124320, Note_on_c, 9, 51, 47
6, 124800, Note_off_c, 9, 51, 47
6, 124800, Note_on_c, 9, 51, 95
6, 124800, Note_on_c, 9, 36, 95
6, 125280, Note_off_c, 9, 51, 95
6, 125280, Note_off_c, 9, 36, 95
6, 125280, Note_on_c, 9, 51, 95
6, 125280, Note_on_c, 9, 40, 95
6, 125760, Note_off_c, 9, 51, 95
6, 125760, Note_off_c, 9, 40, 95
6, 125760, Note_on_c, 9, 51, 47
6, 125760, Note_on_c, 9, 40, 63
6, 125880, Note_off_c, 9, 51, 47
6, 125880, Note_off_c, 9, 40, 63
6, 125880, Note_on_c, 9, 40, 79
6, 126000, Note_off_c, 9, 40, 79
6, 126000, Note_on_c, 9, 40, 95
6, 126120, Note_off_c, 9, 40, 95
6, 126120, Note_on_c, 9, 40, 95
6, 126240, Note_off_c, 9, 40, 95
6, 126240, Note_on_c, 9, 51, 95
6, 126240, Note_on_c, 9, 40, 47
6, 126240, Note_on_c, 9, 36, 95
6, 126480, Note_off_c, 9, 51, 95
6, 126480, Note_off_c, 9, 40, 47
6, 126480, Note_off_c, 9, 36, 95
6, 126480, Note_on_c, 9, 40, 111
6, 126720, Note_off_c, 9, 40, 111
6, 126720, Note_on_c, 9, 51, 95
6, 126720, Note_on_c, 9, 36, 95
6, 127200, Note_off_c, 9, 51, 95
6, 127200, Note_off_c, 9, 36, 95
6, 127200, Note_on_c, 9, 51, 47
6, 127680, Note_off_c, 9, 51, 47
6, 127680, Note_on_c, 9, 51, 95
6, 127680, Note_on_c, 9, 36, 95
6, 128160, Note_off_c, 9, 51, 95
6, 128160, Note_off_c, 9, 36, 95
6, 128160, Note_on_c, 9, 51, 95
6, 128160, Note_on_c, 9, 40, 95
6, 128640, Note_off_c, 9, 51, 95
6, 128640, Note_off_c, 9, 40, 95
6, 128640, Note_on_c, 9, 51, 47
6, 129120, Note_off_c, 9, 51, 47
6, 129120, Note_on_c, 9, 51, 95
6, 129120, Note_on_c, 9, 36, 95
6, 129600, Note_off_c, 9, 51, 95
6, 129600, Note_off_c, 9, 36, 95
6, 129600, Note_on_c, 9, 51, 95
6, 129600, Note_on_c, 9, 36, 95
6, 130080, Note_off_c, 9, 51, 95
6, 130080, Note_off_c, 9, 36, 95
6, 130080, Note_on_c, 9, 51, 47
6, 130560, Note_off_c, 9, 51, 47
6, 130560, Note_on_c, 9, 51, 95
6, 130560, Note_on_c, 9, 36, 95
6, 131040, Note_off_c, 9, 51, 95
6, 131040, Note_off_c, 9, 36, 95
6, 131040, Note_on_c, 9, 51, 95
6, 131040, Note_on_c, 9, 40, 95
6, 131520, Note_off_c, 9, 51, 95
6, 131520, Note_off_c, 9, 40, 95
6, 131520, Note_on_c, 9, 51, 47
6, 131520, Note_on_c, 9, 36, 95
6, 132000, Note_off_c, 9, 51, 47
6, 132000, Note_off_c, 9, 36, 95
6, 132000, Note_on_c, 9, 51, 95
6, 132000, Note_on_c, 9, 36, 95
6, 132480, Note_off_c, 9, 51, 95
6, 132480, Note_off_c, 9, 36, 95
6, 132480, Note_on_c, 9, 51, 95
6, 132480, Note_on_c, 9, 36, 95
6, 132960, Note_off_c, 9, 51, 95
6, 132960, Note_off_c, 9, 36, 95
6, 132960, Note_on_c, 9, 51, 47
6, 133440, Note_off_c, 9, 51, 47
6, 133440, Note_on_c, 9, 51, 95
6, 133440, Note_on_c, 9, 36, 95
6, 133920, Note_off_c, 9, 51, 95
6, 133920, Note_off_c, 9, 36, 95
6, 133920, Note_on_c, 9, 51, 95
6, 133920, Note_on_c, 9, 40, 95
6, 134400, Note_off_c, 9, 51, 95
6, 134400, Note_off_c, 9, 40, 95
6, 134400, Note_on_c, 9, 51, 47
6, 134880, Note_off_c, 9, 51, 47
6, 134880, Note_on_c, 9, 51, 95
6, 134880, Note_on_c, 9, 36, 95
6, 135360, Note_off_c, 9, 51, 95
6, 135360, Note_off_c, 9, 36, 95
6, 135360, Note_on_c, 9, 51, 95
6, 135360, Note_on_c, 9, 40, 95
6, 135600, Note_off_c, 9, 51, 95
6, 135600, Note_off_c, 9, 40, 95
6, 135600, Note_on_c, 9, 40, 47
6, 135840, Note_off_c, 9, 40, 47
6, 135840, Note_on_c, 9, 51, 47
6, 135840, Note_on_c, 9, 40, 95
6, 136080, Note_off_c, 9, 51, 47
6, 136080, Note_off_c, 9, 40, 95
6, 136080, Note_on_c, 9, 45, 95
6, 136320, Note_off_c, 9, 45, 95
6, 136320, Note_on_c, 9, 51, 95
6, 136320, Note_on_c, 9, 40, 47
6, 136560, Note_off_c, 9, 51, 95
6, 136560, Note_off_c, 9, 40, 47
6, 136560, Note_on_c, 9, 40, 95
6, 136800, Note_off_c, 9, 40, 95
6, 136800, Note_on_c, 9, 57, 63
6, 136800, Note_on_c, 9, 45, 95
6, 136800, Note_on_c, 9, 36, 95
6, 137040, Note_off_c, 9, 57, 63
6, 137040, Note_off_c, 9, 45, 95
6, 137040, Note_off_c, 9, 36, 95
6, 137040, Note_on_c, 9, 45, 63
6, 137160, Note_off_c, 9, 45, 63
6, 137160, Note_on_c, 9, 45, 79
6, 137280, Note_off_c, 9, 45, 79
6, 137280, Note_on_c, 9, 45, 95
6, 137400, Note_off_c, 9, 45, 95
6, 137400, Note_on_c, 9, 43, 95
6, 137520, Note_off_c, 9, 43, 95
6, 137520, Note_on_c, 9, 43, 95
6, 137640, Note_off_c, 9, 43, 95
6, 137640, Note_on_c, 9, 43, 95
6, 137760, Note_off_c, 9, 43, 95
6, 137760, Note_on_c, 9, 51, 95
6, 137760, Note_on_c, 9, 41, 95
6, 137760, Note_on_c, 9, 36, 95
6, 138240, Note_off_c, 9, 51, 95
6, 138240, Note_off_c, 9, 41, 95
6, 138240, Note_off_c, 9, 36, 95
6, 138240, Note_on_c, 9, 49, 95
6, 138240, Note_on_c, 9, 36, 95
6, 138720, Note_off_c, 9, 49, 95
6, 138720, Note_off_c, 9, 36, 95
6, 138720, Note_on_c, 9, 57, 31
6, 139200, Note_on_c, 9, 36, 95
6, 139680, Note_off_c, 9, 57, 31
6, 139680, Note_off_c, 9, 36, 95
6, 139680, Note_on_c, 9, 51, 95
6, 139680, Note_on_c, 9, 40, 95
6, 140160, Note_off_c, 9, 51, 95
6, 140160, Note_on_c, 9, 44, 47
6, 140640, Note_off_c, 9, 40, 95
6, 140640, Note_off_c, 9, 44, 47
6, 140640, Note_on_c, 9, 44, 95
6, 141120, Note_off_c, 9, 44, 95
6, 141120, Note_on_c, 9, 44, 95
6, 141120, Note_on_c, 9, 36, 95
6, 141600, Note_off_c, 9, 44, 95
6, 141600, Note_off_c, 9, 36, 95
6, 141600, Note_on_c, 9, 44, 47
6, 142080, Note_off_c, 9, 44, 47
6, 142080, Note_on_c, 9, 44, 95
6, 142080, Note_on_c, 9, 36, 95
6, 142560, Note_off_c, 9, 44, 95
6, 142560, Note_off_c, 9, 36, 95
6, 142560, Note_on_c, 9, 46, 95
6, 142560, Note_on_c, 9, 40, 95
6, 142800, Note_off_c, 9, 40, 95
6, 142800, Note_on_c, 9, 40, 47
6, 143040, Note_off_c, 9, 40, 47
6, 143520, Note_off_c, 9, 46, 95
6, 143520, Note_on_c, 9, 42, 111
6, 143520, Note_on_c, 9, 36, 95
6, 144000, Note_off_c, 9, 42, 111
6, 144000, Note_off_c, 9, 36, 95
6, 144000, Note_on_c, 9, 44, 95
6, 144000, Note_on_c, 9, 36, 95
6, 144480, Note_off_c, 9, 44, 95
6, 144480, Note_off_c, 9, 36, 95
6, 144480, Note_on_c, 9, 44, 47
6, 144960, Note_off_c, 9, 44, 47
6, 144960, Note_on_c, 9, 44, 95
6, 144960, Note_on_c, 9, 36, 95
6, 145440, Note_off_c, 9, 44, 95
6, 145440, Note_off_c, 9, 36, 95
6, 145440, Note_on_c, 9, 46, 95
6, 145440, Note_on_c, 9, 40, 47
6, 145680, Note_off_c, 9, 40, 47
6, 145680, Note_on_c, 9, 40, 47
6, 145920, Note_off_c, 9, 40, 47
6, 146400, Note_off_c, 9, 46, 95
6, 146400, Note_on_c, 9, 42, 95
6, 146400, Note_on_c, 9, 36, 95
6, 146880, Note_off_c, 9, 42, 95
6, 146880, Note_off_c, 9, 36, 95
6, 146880, Note_on_c, 9, 44, 95
6, 146880, Note_on_c, 9, 36, 95
6, 147360, Note_off_c, 9, 44, 95
6, 147360, Note_off_c, 9, 36, 95
6, 147360, Note_on_c, 9, 44, 47
6, 147840, Note_off_c, 9, 44, 47
6, 147840, Note_on_c, 9, 44, 95
6, 147840, Note_on_c, 9, 36, 95
6, 148320, Note_off_c, 9, 44, 95
6, 148320, Note_off_c, 9, 36, 95
6, 148320, Note_on_c, 9, 46, 95
6, 148320, Note_on_c, 9, 40, 95
6, 148560, Note_off_c, 9, 40, 95
6, 148560, Note_on_c, 9, 40, 31
6, 148800, Note_off_c, 9, 40, 31
6, 149280, Note_off_c, 9, 46, 95
6, 149280, Note_on_c, 9, 42, 111
6, 149280, Note_on_c, 9, 36, 95
6, 149760, Note_off_c, 9, 42, 111
6, 149760, Note_off_c, 9, 36, 95
6, 149760, Note_on_c, 9, 44, 95
6, 149760, Note_on_c, 9, 36, 95
6, 150240, Note_off_c, 9, 44, 95
6, 150240, Note_off_c, 9, 36, 95
6, 150240, Note_on_c, 9, 44, 47
6, 150720, Note_off_c, 9, 44, 47
6, 150720, Note_on_c, 9, 44, 95
6, 150720, Note_on_c, 9, 36, 95
6, 151200, Note_off_c, 9, 44, 95
6, 151200, Note_off_c, 9, 36, 95
6, 151200, Note_on_c, 9, 46, 95
6, 151200, Note_on_c, 9, 40, 95
6, 151680, Note_off_c, 9, 40, 95
6, 152160, Note_off_c, 9, 46, 95
6, 152160, Note_on_c, 9, 42, 95
6, 152160, Note_on_c, 9, 36, 95
6, 152640, Note_off_c, 9, 42, 95
6, 152640, Note_off_c, 9, 36, 95
6, 152640, Note_on_c, 9, 44, 95
6, 152640, Note_on_c, 9, 36, 95
6, 153120, Note_off_c, 9, 44, 95
6, 153120, Note_off_c, 9, 36, 95
6, 153120, Note_on_c, 9, 44, 47
6, 153600, Note_off_c, 9, 44, 47
6, 153600, Note_on_c, 9, 44, 95
6, 153600, Note_on_c, 9, 36, 95
6, 154080, Note_off_c, 9, 44, 95
6, 154080, Note_off_c, 9, 36, 95
6, 154080, Note_on_c, 9, 46, 95
6, 154080, Note_on_c, 9, 40, 95
6, 154560, Note_off_c, 9, 40, 95
6, 155040, Note_off_c, 9, 46, 95
6, 155040, Note_on_c, 9, 42, 111
6, 155040, Note_on_c, 9, 36, 95
6, 155520, Note_off_c, 9, 42, 111
6, 155520, Note_off_c, 9, 36, 95
6, 155520, Note_on_c, 9, 44, 95
6, 155520, Note_on_c, 9, 36, 95
6, 156000, Note_off_c, 9, 44, 95
6, 156000, Note_on_c, 9, 44, 47
6, 156480, Note_off_c, 9, 36, 95
6, 156480, Note_off_c, 9, 44, 47
6, 156480, Note_on_c, 9, 44, 95
6, 156480, Note_on_c, 9, 36, 95
6, 156960, Note_off_c, 9, 44, 95
6, 156960, Note_off_c, 9, 36, 95
6, 156960, Note_on_c, 9, 46, 95
6, 156960, Note_on_c, 9, 40, 95
6, 157920, Note_off_c, 9, 46, 95
6, 157920, Note_off_c, 9, 40, 95
6, 157920, Note_on_c, 9, 42, 95
6, 157920, Note_on_c, 9, 36, 95
6, 158400, Note_off_c, 9, 42, 95
6, 158400, Note_off_c, 9, 36, 95
6, 158400, Note_on_c, 9, 44, 95
6, 158400, Note_on_c, 9, 36, 95
6, 158880, Note_off_c, 9, 44, 95
6, 158880, Note_off_c, 9, 36, 95
6, 158880, Note_on_c, 9, 44, 47
6, 159360, Note_off_c, 9, 44, 47
6, 159360, Note_on_c, 9, 44, 95
6, 159360, Note_on_c, 9, 36, 95
6, 159840, Note_off_c, 9, 44, 95
6, 159840, Note_off_c, 9, 36, 95
6, 159840, Note_on_c, 9, 46, 95
6, 159840, Note_on_c, 9, 40, 31
6, 160080, Note_off_c, 9, 46, 95
6, 160080, Note_off_c, 9, 40, 31
6, 160080, Note_on_c, 9, 40, 95
6, 160320, Note_off_c, 9, 40, 95
6, 160320, Note_on_c, 9, 40, 31
6, 160560, Note_off_c, 9, 40, 31
6, 160560, Note_on_c, 9, 40, 95
6, 160800, Note_off_c, 9, 40, 95
6, 160800, Note_on_c, 9, 42, 95
6, 160800, Note_on_c, 9, 40, 95
6, 161280, Note_off_c, 9, 42, 95
6, 161280, Note_off_c, 9, 40, 95
6, 161280, Note_on_c, 9, 44, 95
6, 161280, Note_on_c, 9, 36, 95
6, 161760, Note_off_c, 9, 44, 95
6, 161760, Note_off_c, 9, 36, 95
6, 161760, Note_on_c, 9, 44, 47
6, 162240, Note_off_c, 9, 44, 47
6, 162240, Note_on_c, 9, 44, 95
6, 162240, Note_on_c, 9, 36, 95
6, 162720, Note_off_c, 9, 44, 95
6, 162720, Note_off_c, 9, 36, 95
6, 162720, Note_on_c, 9, 46, 95
6, 162720, Note_on_c, 9, 40, 95
6, 163200, Note_off_c, 9, 40, 95
6, 163680, Note_off_c, 9, 46, 95
6, 163680, Note_on_c, 9, 42, 95
6, 163680, Note_on_c, 9, 36, 95
6, 164160, Note_off_c, 9, 42, 95
6, 164160, Note_off_c, 9, 36, 95
6, 164160, Note_on_c, 9, 44, 95
6, 164160, Note_on_c, 9, 36, 95
6, 164640, Note_off_c, 9, 44, 95
6, 164640, Note_off_c, 9, 36, 95
6, 164640, Note_on_c, 9, 44, 47
6, 165120, Note_off_c, 9, 44, 47
6, 165120, Note_on_c, 9, 44, 95
6, 165120, Note_on_c, 9, 36, 95
6, 165600, Note_off_c, 9, 44, 95
6, 165600, Note_off_c, 9, 36, 95
6, 165600, Note_on_c, 9, 46, 95
6, 165600, Note_on_c, 9, 40, 95
6, 165840, Note_off_c, 9, 40, 95
6, 165840, Note_on_c, 9, 40, 31
6, 166080, Note_off_c, 9, 40, 31
6, 166560, Note_off_c, 9, 46, 95
6, 166560, Note_on_c, 9, 42, 111
6, 166560, Note_on_c, 9, 36, 95
6, 167040, Note_off_c, 9, 42, 111
6, 167040, Note_off_c, 9, 36, 95
6, 167040, Note_on_c, 9, 44, 95
6, 167040, Note_on_c, 9, 36, 95
6, 167520, Note_off_c, 9, 44, 95
6, 167520, Note_off_c, 9, 36, 95
6, 167520, Note_on_c, 9, 44, 47
6, 168000, Note_off_c, 9, 44, 47
6, 168000, Note_on_c, 9, 44, 95
6, 168000, Note_on_c, 9, 36, 95
6, 168480, Note_off_c, 9, 44, 95
6, 168480, Note_off_c, 9, 36, 95
6, 168480, Note_on_c, 9, 46, 95
6, 168480, Note_on_c, 9, 40, 95
6, 168960, Note_off_c, 9, 40, 95
6, 169440, Note_off_c, 9, 46, 95
6, 169440, Note_on_c, 9, 42, 95
6, 169440, Note_on_c, 9, 36, 95
6, 169920, Note_off_c, 9, 42, 95
6, 169920, Note_off_c, 9, 36, 95
6, 169920, Note_on_c, 9, 44, 95
6, 169920, Note_on_c, 9, 36, 95
6, 170400, Note_off_c, 9, 44, 95
6, 170400, Note_off_c, 9, 36, 95
6, 170400, Note_on_c, 9, 44, 47
6, 170880, Note_off_c, 9, 44, 47
6, 170880, Note_on_c, 9, 44, 95
6, 170880, Note_on_c, 9, 36, 95
6, 171360, Note_off_c, 9, 44, 95
6, 171360, Note_off_c, 9, 36, 95
6, 171360, Note_on_c, 9, 46, 95
6, 171360, Note_on_c, 9, 40, 95
6, 171840, Note_off_c, 9, 40, 95
6, 172320, Note_off_c, 9, 46, 95
6, 172320, Note_on_c, 9, 42, 111
6, 172320, Note_on_c, 9, 36, 95
6, 172800, Note_off_c, 9, 42, 111
6, 172800, Note_off_c, 9, 36, 95
6, 172800, Note_on_c, 9, 44, 95
6, 172800, Note_on_c, 9, 36, 95
6, 173280, Note_off_c, 9, 44, 95
6, 173280, Note_off_c, 9, 36, 95
6, 173280, Note_on_c, 9, 44, 47
6, 173760, Note_off_c, 9, 44, 47
6, 173760, Note_on_c, 9, 44, 95
6, 173760, Note_on_c, 9, 36, 95
6, 174240, Note_off_c, 9, 44, 95
6, 174240, Note_off_c, 9, 36, 95
6, 174240, Note_on_c, 9, 46, 95
6, 174240, Note_on_c, 9, 40, 95
6, 174720, Note_off_c, 9, 40, 95
6, 175200, Note_off_c, 9, 46, 95
6, 175200, Note_on_c, 9, 42, 95
6, 175200, Note_on_c, 9, 36, 95
6, 175680, Note_off_c, 9, 42, 95
6, 175680, Note_off_c, 9, 36, 95
6, 175680, Note_on_c, 9, 44, 95
6, 175680, Note_on_c, 9, 36, 95
6, 176160, Note_off_c, 9, 44, 95
6, 176160, Note_off_c, 9, 36, 95
6, 176160, Note_on_c, 9, 44, 47
6, 176640, Note_off_c, 9, 44, 47
6, 176640, Note_on_c, 9, 44, 95
6, 176640, Note_on_c, 9, 36, 95
6, 177120, Note_off_c, 9, 44, 95
6, 177120, Note_off_c, 9, 36, 95
6, 177120, Note_on_c, 9, 46, 95
6, 177120, Note_on_c, 9, 40, 95
6, 177600, Note_off_c, 9, 40, 95
6, 178080, Note_off_c, 9, 46, 95
6, 178080, Note_on_c, 9, 42, 111
6, 178080, Note_on_c, 9, 36, 95
6, 178560, Note_off_c, 9, 42, 111
6, 178560, Note_off_c, 9, 36, 95
6, 178560, Note_on_c, 9, 44, 95
6, 178560, Note_on_c, 9, 36, 95
6, 179040, Note_off_c, 9, 44, 95
6, 179040, Note_off_c, 9, 36, 95
6, 179040, Note_on_c, 9, 44, 47
6, 179520, Note_off_c, 9, 44, 47
6, 179520, Note_on_c, 9, 44, 95
6, 179520, Note_on_c, 9, 36, 95
6, 180000, Note_off_c, 9, 44, 95
6, 180000, Note_off_c, 9, 36, 95
6, 180000, Note_on_c, 9, 46, 95
6, 180000, Note_on_c, 9, 40, 95
6, 180480, Note_off_c, 9, 40, 95
6, 180960, Note_off_c, 9, 46, 95
6, 180960, Note_on_c, 9, 42, 95
6, 180960, Note_on_c, 9, 36, 95
6, 181440, Note_off_c, 9, 42, 95
6, 181440, Note_off_c, 9, 36, 95
6, 181440, Note_on_c, 9, 44, 95
6, 181440, Note_on_c, 9, 36, 95
6, 181920, Note_off_c, 9, 44, 95
6, 181920, Note_off_c, 9, 36, 95
6, 181920, Note_on_c, 9, 44, 47
6, 182400, Note_off_c, 9, 44, 47
6, 182400, Note_on_c, 9, 44, 95
6, 182400, Note_on_c, 9, 36, 95
6, 182880, Note_off_c, 9, 44, 95
6, 182880, Note_off_c, 9, 36, 95
6, 182880, Note_on_c, 9, 46, 95
6, 182880, Note_on_c, 9, 40, 95
6, 183120, Note_off_c, 9, 40, 95
6, 183120, Note_on_c, 9, 40, 47
6, 183360, Note_off_c, 9, 40, 47
6, 183840, Note_off_c, 9, 46, 95
6, 183840, Note_on_c, 9, 42, 111
6, 183840, Note_on_c, 9, 36, 95
6, 184320, Note_off_c, 9, 42, 111
6, 184320, Note_off_c, 9, 36, 95
6, 184320, Note_on_c, 9, 44, 95
6, 184320, Note_on_c, 9, 36, 95
6, 184800, Note_off_c, 9, 44, 95
6, 184800, Note_off_c, 9, 36, 95
6, 184800, Note_on_c, 9, 44, 47
6, 185280, Note_off_c, 9, 44, 47
6, 185280, Note_on_c, 9, 44, 95
6, 185280, Note_on_c, 9, 36, 95
6, 185760, Note_off_c, 9, 44, 95
6, 185760, Note_off_c, 9, 36, 95
6, 185760, Note_on_c, 9, 46, 95
6, 185760, Note_on_c, 9, 40, 95
6, 186240, Note_off_c, 9, 40, 95
6, 186720, Note_off_c, 9, 46, 95
6, 186720, Note_on_c, 9, 42, 95
6, 186720, Note_on_c, 9, 36, 95
6, 187200, Note_off_c, 9, 42, 95
6, 187200, Note_off_c, 9, 36, 95
6, 187200, Note_on_c, 9, 44, 95
6, 187200, Note_on_c, 9, 36, 95
6, 187680, Note_off_c, 9, 44, 95
6, 187680, Note_off_c, 9, 36, 95
6, 187680, Note_on_c, 9, 44, 47
6, 188160, Note_off_c, 9, 44, 47
6, 188160, Note_on_c, 9, 44, 95
6, 188160, Note_on_c, 9, 36, 95
6, 188640, Note_off_c, 9, 44, 95
6, 188640, Note_off_c, 9, 36, 95
6, 188640, Note_on_c, 9, 46, 95
6, 188640, Note_on_c, 9, 40, 95
6, 189120, Note_off_c, 9, 40, 95
6, 189600, Note_off_c, 9, 46, 95
6, 189600, Note_on_c, 9, 42, 111
6, 189600, Note_on_c, 9, 36, 95
6, 189840, Note_off_c, 9, 42, 111
6, 189840, Note_off_c, 9, 36, 95
6, 189840, Note_on_c, 9, 36, 95
6, 190080, Note_off_c, 9, 36, 95
6, 190080, Note_on_c, 9, 44, 95
6, 190080, Note_on_c, 9, 36, 95
6, 190560, Note_off_c, 9, 44, 95
6, 190560, Note_off_c, 9, 36, 95
6, 190560, Note_on_c, 9, 44, 47
6, 191040, Note_off_c, 9, 44, 47
6, 191040, Note_on_c, 9, 44, 95
6, 191040, Note_on_c, 9, 36, 95
6, 191520, Note_off_c, 9, 44, 95
6, 191520, Note_off_c, 9, 36, 95
6, 191520, Note_on_c, 9, 46, 95
6, 191520, Note_on_c, 9, 40, 95
6, 192000, Note_off_c, 9, 40, 95
6, 192480, Note_off_c, 9, 46, 95
6, 192480, Note_on_c, 9, 42, 95
6, 192480, Note_on_c, 9, 36, 95
6, 192960, Note_off_c, 9, 42, 95
6, 192960, Note_off_c, 9, 36, 95
6, 192960, Note_on_c, 9, 44, 95
6, 192960, Note_on_c, 9, 36, 95
6, 193440, Note_off_c, 9, 44, 95
6, 193440, Note_off_c, 9, 36, 95
6, 193440, Note_on_c, 9, 46, 95
6, 193440, Note_on_c, 9, 40, 95
6, 193920, Note_off_c, 9, 46, 95
6, 193920, Note_off_c, 9, 40, 95
6, 193920, Note_on_c, 9, 42, 95
6, 193920, Note_on_c, 9, 36, 95
6, 194400, Note_off_c, 9, 42, 95
6, 194400, Note_off_c, 9, 36, 95
6, 194400, Note_on_c, 9, 46, 95
6, 194400, Note_on_c, 9, 40, 95
6, 194880, Note_off_c, 9, 46, 95
6, 194880, Note_off_c, 9, 40, 95
6, 194880, Note_on_c, 9, 46, 95
6, 194880, Note_on_c, 9, 40, 111
6, 195360, Note_off_c, 9, 46, 95
6, 195360, Note_off_c, 9, 40, 111
6, 195360, Note_on_c, 9, 46, 47
6, 195360, Note_on_c, 9, 40, 95
6, 195600, Note_off_c, 9, 46, 47
6, 195600, Note_off_c, 9, 40, 95
6, 195600, Note_on_c, 9, 40, 95
6, 195840, Note_off_c, 9, 40, 95
6, 195840, Note_on_c, 9, 44, 95
6, 195840, Note_on_c, 9, 36, 95
6, 196320, Note_off_c, 9, 44, 95
6, 196320, Note_off_c, 9, 36, 95
6, 196320, Note_on_c, 9, 44, 47
6, 196800, Note_off_c, 9, 44, 47
6, 196800, Note_on_c, 9, 44, 95
6, 196800, Note_on_c, 9, 36, 95
6, 197280, Note_off_c, 9, 44, 95
6, 197280, Note_off_c, 9, 36, 95
6, 197280, Note_on_c, 9, 46, 95
6, 197280, Note_on_c, 9, 40, 95
6, 197760, Note_off_c, 9, 46, 95
6, 197760, Note_off_c, 9, 40, 95
6, 197760, Note_on_c, 9, 46, 95
6, 198240, Note_off_c, 9, 46, 95
6, 198240, Note_on_c, 9, 46, 47
6, 198240, Note_on_c, 9, 36, 95
6, 198720, Note_off_c, 9, 46, 47
6, 198720, Note_off_c, 9, 36, 95
6, 198720, Note_on_c, 9, 44, 95
6, 198720, Note_on_c, 9, 36, 95
6, 199200, Note_off_c, 9, 44, 95
6, 199200, Note_off_c, 9, 36, 95
6, 199200, Note_on_c, 9, 44, 47
6, 199680, Note_off_c, 9, 44, 47
6, 199680, Note_on_c, 9, 44, 95
6, 199680, Note_on_c, 9, 36, 95
6, 200160, Note_off_c, 9, 44, 95
6, 200160, Note_off_c, 9, 36, 95
6, 200160, Note_on_c, 9, 46, 95
6, 200160, Note_on_c, 9, 40, 95
6, 200640, Note_off_c, 9, 46, 95
6, 200640, Note_off_c, 9, 40, 95
6, 200640, Note_on_c, 9, 46, 95
6, 201120, Note_off_c, 9, 46, 95
6, 201120, Note_on_c, 9, 46, 47
6, 201120, Note_on_c, 9, 36, 95
6, 201600, Note_off_c, 9, 46, 47
6, 201600, Note_off_c, 9, 36, 95
6, 201600, Note_on_c, 9, 44, 95
6, 201600, Note_on_c, 9, 36, 95
6, 202080, Note_off_c, 9, 44, 95
6, 202080, Note_off_c, 9, 36, 95
6, 202080, Note_on_c, 9, 44, 47
6, 202560, Note_off_c, 9, 44, 47
6, 202560, Note_on_c, 9, 44, 95
6, 202560, Note_on_c, 9, 36, 95
6, 203040, Note_off_c, 9, 44, 95
6, 203040, Note_off_c, 9, 36, 95
6, 203040, Note_on_c, 9, 46, 95
6, 203040, Note_on_c, 9, 40, 95
6, 203520, Note_off_c, 9, 46, 95
6, 203520, Note_off_c, 9, 40, 95
6, 203520, Note_on_c, 9, 46, 95
6, 204000, Note_off_c, 9, 46, 95
6, 204000, Note_on_c, 9, 42, 95
6, 204000, Note_on_c, 9, 36, 95
6, 204480, Note_off_c, 9, 42, 95
6, 204480, Note_off_c, 9, 36, 95
6, 204480, Note_on_c, 9, 46, 47
6, 204480, Note_on_c, 9, 36, 95
6, 204960, Note_off_c, 9, 46, 47
6, 204960, Note_off_c, 9, 36, 95
6, 204960, Note_on_c, 9, 46, 63
6, 205440, Note_off_c, 9, 46, 63
6, 205440, Note_on_c, 9, 46, 95
6, 205440, Note_on_c, 9, 36, 95
6, 205920, Note_off_c, 9, 46, 95
6, 205920, Note_off_c, 9, 36, 95
6, 205920, Note_on_c, 9, 46, 95
6, 205920, Note_on_c, 9, 40, 95
6, 206400, Note_off_c, 9, 46, 95
6, 206400, Note_off_c, 9, 40, 95
6, 206400, Note_on_c, 9, 46, 95
6, 206640, Note_off_c, 9, 46, 95
6, 206640, Note_on_c, 9, 40, 47
6, 206880, Note_off_c, 9, 40, 47
6, 206880, Note_on_c, 9, 46, 111
6, 206880, Note_on_c, 9, 40, 95
6, 207120, Note_off_c, 9, 46, 111
6, 207120, Note_off_c, 9, 40, 95
6, 207120, Note_on_c, 9, 45, 95
6, 207360, Note_off_c, 9, 45, 95
6, 207360, Note_on_c, 9, 49, 111
6, 207360, Note_on_c, 9, 43, 95
6, 207360, Note_on_c, 9, 36, 111
6, 207840, Note_off_c, 9, 49, 111
6, 207840, Note_off_c, 9, 43, 95
6, 207840, Note_off_c, 9, 36, 111
6, 207840, Note_on_c, 9, 57, 31
6, 208320, Note_on_c, 9, 36, 95
6, 208800, Note_off_c, 9, 57, 31
6, 208800, Note_off_c, 9, 36, 95
6, 208800, Note_on_c, 9, 51, 95
6, 208800, Note_on_c, 9, 40, 95
6, 209280, Note_off_c, 9, 51, 95
6, 209280, Note_on_c, 9, 44, 47
6, 209760, Note_off_c, 9, 40, 95
6, 209760, Note_off_c, 9, 44, 47
6, 209760, Note_on_c, 9, 44, 95
6, 210240, Note_off_c, 9, 44, 95
6, 210240, Note_on_c, 9, 44, 95
6, 210240, Note_on_c, 9, 36, 95
6, 210720, Note_off_c, 9, 44, 95
6, 210720, Note_off_c, 9, 36, 95
6, 210720, Note_on_c, 9, 44, 47
6, 211200, Note_off_c, 9, 44, 47
6, 211200, Note_on_c, 9, 44, 95
6, 211200, Note_on_c, 9, 36, 95
6, 211680, Note_off_c, 9, 44, 95
6, 211680, Note_off_c, 9, 36, 95
6, 211680, Note_on_c, 9, 46, 95
6, 211680, Note_on_c, 9, 40, 95
6, 212160, Note_off_c, 9, 40, 95
6, 212400, Note_off_c, 9, 46, 95
6, 212400, Note_on_c, 9, 36, 95
6, 212640, Note_off_c, 9, 36, 95
6, 212640, Note_on_c, 9, 42, 111
6, 212640, Note_on_c, 9, 36, 95
6, 213120, Note_off_c, 9, 42, 111
6, 213120, Note_off_c, 9, 36, 95
6, 213120, Note_on_c, 9, 44, 95
6, 213120, Note_on_c, 9, 36, 95
6, 213600, Note_off_c, 9, 44, 95
6, 213600, Note_off_c, 9, 36, 95
6, 213600, Note_on_c, 9, 44, 47
6, 214080, Note_off_c, 9, 44, 47
6, 214080, Note_on_c, 9, 44, 95
6, 214080, Note_on_c, 9, 36, 95
6, 214560, Note_off_c, 9, 44, 95
6, 214560, Note_off_c, 9, 36, 95
6, 214560, Note_on_c, 9, 46, 95
6, 214560, Note_on_c, 9, 40, 95
6, 215520, Note_off_c, 9, 46, 95
6, 215520, Note_off_c, 9, 40, 95
6, 215520, Note_on_c, 9, 42, 95
6, 215520, Note_on_c, 9, 36, 95
6, 216000, Note_off_c, 9, 42, 95
6, 216000, Note_off_c, 9, 36, 95
6, 216000, Note_on_c, 9, 44, 95
6, 216000, Note_on_c, 9, 36, 95
6, 216480, Note_off_c, 9, 44, 95
6, 216480, Note_off_c, 9, 36, 95
6, 216480, Note_on_c, 9, 44, 47
6, 216960, Note_off_c, 9, 44, 47
6, 216960, Note_on_c, 9, 44, 95
6, 216960, Note_on_c, 9, 36, 95
6, 217440, Note_off_c, 9, 44, 95
6, 217440, Note_off_c, 9, 36, 95
6, 217440, Note_on_c, 9, 46, 95
6, 217440, Note_on_c, 9, 40, 95
6, 217920, Note_off_c, 9, 40, 95
6, 218400, Note_off_c, 9, 46, 95
6, 218400, Note_on_c, 9, 42, 111
6, 218400, Note_on_c, 9, 36, 95
6, 218880, Note_off_c, 9, 42, 111
6, 218880, Note_off_c, 9, 36, 95
6, 218880, Note_on_c, 9, 44, 95
6, 218880, Note_on_c, 9, 36, 95
6, 219360, Note_off_c, 9, 44, 95
6, 219360, Note_off_c, 9, 36, 95
6, 219360, Note_on_c, 9, 44, 47
6, 219840, Note_off_c, 9, 44, 47
6, 219840, Note_on_c, 9, 44, 95
6, 219840, Note_on_c, 9, 36, 95
6, 220320, Note_off_c, 9, 44, 95
6, 220320, Note_off_c, 9, 36, 95
6, 220320, Note_on_c, 9, 46, 95
6, 220320, Note_on_c, 9, 40, 95
6, 221040, Note_off_c, 9, 46, 95
6, 221040, Note_off_c, 9, 40, 95
6, 221040, Note_on_c, 9, 36, 95
6, 221280, Note_off_c, 9, 36, 95
6, 221280, Note_on_c, 9, 42, 95
6, 221280, Note_on_c, 9, 36, 95
6, 221760, Note_off_c, 9, 42, 95
6, 221760, Note_off_c, 9, 36, 95
6, 221760, Note_on_c, 9, 44, 95
6, 221760, Note_on_c, 9, 36, 95
6, 222240, Note_off_c, 9, 44, 95
6, 222240, Note_off_c, 9, 36, 95
6, 222240, Note_on_c, 9, 44, 47
6, 222720, Note_off_c, 9, 44, 47
6, 222720, Note_on_c, 9, 44, 95
6, 222720, Note_on_c, 9, 36, 95
6, 223200, Note_off_c, 9, 44, 95
6, 223200, Note_off_c, 9, 36, 95
6, 223200, Note_on_c, 9, 46, 95
6, 223200, Note_on_c, 9, 40, 95
6, 223680, Note_off_c, 9, 40, 95
6, 223680, Note_on_c, 9, 36, 95
6, 224160, Note_off_c, 9, 46, 95
6, 224160, Note_off_c, 9, 36, 95
6, 224160, Note_on_c, 9, 42, 111
6, 224160, Note_on_c, 9, 36, 95
6, 224640, Note_off_c, 9, 42, 111
6, 224640, Note_off_c, 9, 36, 95
6, 224640, Note_on_c, 9, 44, 95
6, 224640, Note_on_c, 9, 36, 95
6, 225120, Note_off_c, 9, 44, 95
6, 225120, Note_off_c, 9, 36, 95
6, 225120, Note_on_c, 9, 44, 47
6, 225120, Note_on_c, 9, 36, 95
6, 225600, Note_off_c, 9, 44, 47
6, 225600, Note_off_c, 9, 36, 95
6, 225600, Note_on_c, 9, 44, 95
6, 225600, Note_on_c, 9, 36, 95
6, 226080, Note_off_c, 9, 44, 95
6, 226080, Note_off_c, 9, 36, 95
6, 226080, Note_on_c, 9, 46, 95
6, 226080, Note_on_c, 9, 40, 95
6, 227040, Note_off_c, 9, 46, 95
6, 227040, Note_off_c, 9, 40, 95
6, 227040, Note_on_c, 9, 42, 95
6, 227040, Note_on_c, 9, 36, 95
6, 227520, Note_off_c, 9, 42, 95
6, 227520, Note_off_c, 9, 36, 95
6, 227520, Note_on_c, 9, 44, 95
6, 227520, Note_on_c, 9, 36, 95
6, 228000, Note_off_c, 9, 44, 95
6, 228000, Note_off_c, 9, 36, 95
6, 228000, Note_on_c, 9, 44, 47
6, 228480, Note_off_c, 9, 44, 47
6, 228480, Note_on_c, 9, 44, 95
6, 228480, Note_on_c, 9, 36, 95
6, 228960, Note_off_c, 9, 44, 95
6, 228960, Note_off_c, 9, 36, 95
6, 228960, Note_on_c, 9, 46, 95
6, 228960, Note_on_c, 9, 40, 31
6, 229200, Note_off_c, 9, 40, 31
6, 229200, Note_on_c, 9, 40, 95
6, 229440, Note_off_c, 9, 40, 95
6, 229440, Note_on_c, 9, 40, 31
6, 229680, Note_off_c, 9, 46, 95
6, 229680, Note_off_c, 9, 40, 31
6, 229680, Note_on_c, 9, 40, 95
6, 229920, Note_off_c, 9, 40, 95
6, 229920, Note_on_c, 9, 42, 111
6, 229920, Note_on_c, 9, 40, 95
6, 230400, Note_off_c, 9, 42, 111
6, 230400, Note_off_c, 9, 40, 95
6, 230400, Note_on_c, 9, 44, 95
6, 230400, Note_on_c, 9, 36, 95
6, 230880, Note_off_c, 9, 44, 95
6, 230880, Note_off_c, 9, 36, 95
6, 230880, Note_on_c, 9, 44, 47
6, 231360, Note_off_c, 9, 44, 47
6, 231360, Note_on_c, 9, 44, 95
6, 231360, Note_on_c, 9, 36, 95
6, 231840, Note_off_c, 9, 44, 95
6, 231840, Note_off_c, 9, 36, 95
6, 231840, Note_on_c, 9, 46, 95
6, 231840, Note_on_c, 9, 40, 95
6, 232800, Note_off_c, 9, 46, 95
6, 232800, Note_off_c, 9, 40, 95
6, 232800, Note_on_c, 9, 42, 95
6, 232800, Note_on_c, 9, 36, 95
6, 233280, Note_off_c, 9, 42, 95
6, 233280, Note_off_c, 9, 36, 95
6, 233280, Note_on_c, 9, 44, 95
6, 233280, Note_on_c, 9, 36, 95
6, 233760, Note_off_c, 9, 44, 95
6, 233760, Note_off_c, 9, 36, 95
6, 233760, Note_on_c, 9, 44, 47
6, 234240, Note_off_c, 9, 44, 47
6, 234240, Note_on_c, 9, 44, 95
6, 234240, Note_on_c, 9, 36, 95
6, 234720, Note_off_c, 9, 44, 95
6, 234720, Note_off_c, 9, 36, 95
6, 234720, Note_on_c, 9, 46, 95
6, 234720, Note_on_c, 9, 40, 95
6, 235440, Note_off_c, 9, 46, 95
6, 235440, Note_off_c, 9, 40, 95
6, 235440, Note_on_c, 9, 36, 95
6, 235680, Note_off_c, 9, 36, 95
6, 235680, Note_on_c, 9, 42, 111
6, 235680, Note_on_c, 9, 36, 95
6, 236160, Note_off_c, 9, 42, 111
6, 236160, Note_off_c, 9, 36, 95
6, 236160, Note_on_c, 9, 44, 95
6, 236160, Note_on_c, 9, 36, 95
6, 236640, Note_off_c, 9, 44, 95
6, 236640, Note_on_c, 9, 44, 47
6, 237120, Note_off_c, 9, 36, 95
6, 237120, Note_off_c, 9, 44, 47
6, 237120, Note_on_c, 9, 44, 95
6, 237120, Note_on_c, 9, 36, 95
6, 237600, Note_off_c, 9, 44, 95
6, 237600, Note_off_c, 9, 36, 95
6, 237600, Note_on_c, 9, 46, 95
6, 237600, Note_on_c, 9, 40, 95
6, 238560, Note_off_c, 9, 46, 95
6, 238560, Note_off_c, 9, 40, 95
6, 238560, Note_on_c, 9, 42, 95
6, 238560, Note_on_c, 9, 36, 95
6, 239040, Note_off_c, 9, 42, 95
6, 239040, Note_off_c, 9, 36, 95
6, 239040, Note_on_c, 9, 44, 95
6, 239040, Note_on_c, 9, 36, 95
6, 239520, Note_off_c, 9, 44, 95
6, 239520, Note_off_c, 9, 36, 95
6, 239520, Note_on_c, 9, 44, 47
6, 240000, Note_off_c, 9, 44, 47
6, 240000, Note_on_c, 9, 44, 95
6, 240000, Note_on_c, 9, 36, 95
6, 240480, Note_off_c, 9, 44, 95
6, 240480, Note_off_c, 9, 36, 95
6, 240480, Note_on_c, 9, 46, 95
6, 240480, Note_on_c, 9, 40, 95
6, 240960, Note_off_c, 9, 40, 95
6, 240960, Note_on_c, 9, 40, 95
6, 241200, Note_off_c, 9, 46, 95
6, 241200, Note_off_c, 9, 40, 95
6, 241200, Note_on_c, 9, 40, 95
6, 241440, Note_off_c, 9, 40, 95
6, 241440, Note_on_c, 9, 42, 111
6, 241440, Note_on_c, 9, 40, 47
6, 241440, Note_on_c, 9, 36, 95
6, 241920, Note_off_c, 9, 42, 111
6, 241920, Note_off_c, 9, 40, 47
6, 241920, Note_off_c, 9, 36, 95
6, 241920, Note_on_c, 9, 44, 95
6, 241920, Note_on_c, 9, 36, 95
6, 242400, Note_off_c, 9, 44, 95
6, 242400, Note_off_c, 9, 36, 95
6, 242400, Note_on_c, 9, 44, 47
6, 242880, Note_off_c, 9, 44, 47
6, 242880, Note_on_c, 9, 44, 95
6, 242880, Note_on_c, 9, 36, 95
6, 243360, Note_off_c, 9, 44, 95
6, 243360, Note_off_c, 9, 36, 95
6, 243360, Note_on_c, 9, 46, 95
6, 243360, Note_on_c, 9, 40, 95
6, 244320, Note_off_c, 9, 46, 95
6, 244320, Note_off_c, 9, 40, 95
6, 244320, Note_on_c, 9, 42, 95
6, 244320, Note_on_c, 9, 36, 95
6, 244800, Note_off_c, 9, 42, 95
6, 244800, Note_off_c, 9, 36, 95
6, 244800, Note_on_c, 9, 44, 95
6, 244800, Note_on_c, 9, 36, 95
6, 245280, Note_off_c, 9, 44, 95
6, 245280, Note_off_c, 9, 36, 95
6, 245280, Note_on_c, 9, 44, 47
6, 245760, Note_off_c, 9, 44, 47
6, 245760, Note_on_c, 9, 44, 95
6, 245760, Note_on_c, 9, 36, 95
6, 246240, Note_off_c, 9, 44, 95
6, 246240, Note_off_c, 9, 36, 95
6, 246240, Note_on_c, 9, 46, 95
6, 246240, Note_on_c, 9, 40, 95
6, 246960, Note_off_c, 9, 46, 95
6, 246960, Note_off_c, 9, 40, 95
6, 246960, Note_on_c, 9, 36, 95
6, 247200, Note_off_c, 9, 36, 95
6, 247200, Note_on_c, 9, 42, 111
6, 247200, Note_on_c, 9, 36, 95
6, 247680, Note_off_c, 9, 42, 111
6, 247680, Note_off_c, 9, 36, 95
6, 247680, Note_on_c, 9, 44, 95
6, 247680, Note_on_c, 9, 36, 95
6, 248160, Note_off_c, 9, 44, 95
6, 248160, Note_on_c, 9, 44, 47
6, 248640, Note_off_c, 9, 36, 95
6, 248640, Note_off_c, 9, 44, 47
6, 248640, Note_on_c, 9, 44, 95
6, 248640, Note_on_c, 9, 36, 95
6, 249120, Note_off_c, 9, 44, 95
6, 249120, Note_off_c, 9, 36, 95
6, 249120, Note_on_c, 9, 46, 95
6, 249120, Note_on_c, 9, 40, 95
6, 250080, Note_off_c, 9, 46, 95
6, 250080, Note_off_c, 9, 40, 95
6, 250080, Note_on_c, 9, 42, 95
6, 250080, Note_on_c, 9, 36, 95
6, 250560, Note_off_c, 9, 42, 95
6, 250560, Note_off_c, 9, 36, 95
6, 250560, Note_on_c, 9, 44, 95
6, 250560, Note_on_c, 9, 36, 95
6, 251040, Note_off_c, 9, 44, 95
6, 251040, Note_off_c, 9, 36, 95
6, 251040, Note_on_c, 9, 44, 47
6, 251520, Note_off_c, 9, 44, 47
6, 251520, Note_on_c, 9, 44, 95
6, 251520, Note_on_c, 9, 36, 95
6, 252000, Note_off_c, 9, 44, 95
6, 252000, Note_off_c, 9, 36, 95
6, 252000, Note_on_c, 9, 46, 95
6, 252000, Note_on_c, 9, 40, 95
6, 252480, Note_off_c, 9, 40, 95
6, 252480, Note_on_c, 9, 40, 95
6, 252720, Note_off_c, 9, 46, 95
6, 252720, Note_off_c, 9, 40, 95
6, 252720, Note_on_c, 9, 40, 95
6, 252960, Note_off_c, 9, 40, 95
6, 252960, Note_on_c, 9, 42, 111
6, 252960, Note_on_c, 9, 40, 95
6, 253440, Note_off_c, 9, 42, 111
6, 253440, Note_off_c, 9, 40, 95
6, 253440, Note_on_c, 9, 44, 95
6, 253440, Note_on_c, 9, 36, 95
6, 253920, Note_off_c, 9, 44, 95
6, 253920, Note_off_c, 9, 36, 95
6, 253920, Note_on_c, 9, 44, 47
6, 254400, Note_off_c, 9, 44, 47
6, 254400, Note_on_c, 9, 44, 95
6, 254400, Note_on_c, 9, 36, 95
6, 254880, Note_off_c, 9, 44, 95
6, 254880, Note_off_c, 9, 36, 95
6, 254880, Note_on_c, 9, 46, 95
6, 254880, Note_on_c, 9, 40, 95
6, 255840, Note_off_c, 9, 46, 95
6, 255840, Note_off_c, 9, 40, 95
6, 255840, Note_on_c, 9, 42, 95
6, 256080, Note_off_c, 9, 42, 95
6, 256080, Note_on_c, 9, 36, 95
6, 256320, Note_off_c, 9, 36, 95
6, 256320, Note_on_c, 9, 44, 95
6, 256320, Note_on_c, 9, 36, 95
6, 256800, Note_off_c, 9, 44, 95
6, 256800, Note_off_c, 9, 36, 95
6, 256800, Note_on_c, 9, 44, 47
6, 257280, Note_off_c, 9, 44, 47
6, 257280, Note_on_c, 9, 44, 95
6, 257280, Note_on_c, 9, 36, 95
6, 257760, Note_off_c, 9, 44, 95
6, 257760, Note_off_c, 9, 36, 95
6, 257760, Note_on_c, 9, 46, 95
6, 257760, Note_on_c, 9, 40, 95
6, 258720, Note_off_c, 9, 46, 95
6, 258720, Note_off_c, 9, 40, 95
6, 258720, Note_on_c, 9, 42, 111
6, 258720, Note_on_c, 9, 36, 95
6, 259200, Note_off_c, 9, 42, 111
6, 259200, Note_off_c, 9, 36, 95
6, 259200, Note_on_c, 9, 44, 95
6, 259200, Note_on_c, 9, 36, 95
6, 259680, Note_off_c, 9, 44, 95
6, 259680, Note_on_c, 9, 44, 47
6, 260160, Note_off_c, 9, 36, 95
6, 260160, Note_off_c, 9, 44, 47
6, 260160, Note_on_c, 9, 44, 95
6, 260160, Note_on_c, 9, 36, 95
6, 260640, Note_off_c, 9, 44, 95
6, 260640, Note_off_c, 9, 36, 95
6, 260640, Note_on_c, 9, 46, 95
6, 260640, Note_on_c, 9, 40, 95
6, 261600, Note_off_c, 9, 46, 95
6, 261600, Note_off_c, 9, 40, 95
6, 261600, Note_on_c, 9, 42, 95
6, 261600, Note_on_c, 9, 36, 95
6, 262080, Note_off_c, 9, 42, 95
6, 262080, Note_off_c, 9, 36, 95
6, 262080, Note_on_c, 9, 44, 95
6, 262080, Note_on_c, 9, 36, 95
6, 262560, Note_off_c, 9, 44, 95
6, 262560, Note_off_c, 9, 36, 95
6, 262560, Note_on_c, 9, 44, 47
6, 263040, Note_off_c, 9, 44, 47
6, 263040, Note_on_c, 9, 44, 95
6, 263040, Note_on_c, 9, 36, 95
6, 263520, Note_off_c, 9, 44, 95
6, 263520, Note_off_c, 9, 36, 95
6, 263520, Note_on_c, 9, 46, 95
6, 263520, Note_on_c, 9, 40, 31
6, 263760, Note_off_c, 9, 40, 31
6, 263760, Note_on_c, 9, 40, 95
6, 264000, Note_off_c, 9, 40, 95
6, 264000, Note_on_c, 9, 40, 31
6, 264240, Note_off_c, 9, 46, 95
6, 264240, Note_off_c, 9, 40, 31
6, 264240, Note_on_c, 9, 40, 95
6, 264480, Note_off_c, 9, 40, 95
6, 264480, Note_on_c, 9, 42, 111
6, 264480, Note_on_c, 9, 40, 95
6, 264960, Note_off_c, 9, 42, 111
6, 264960, Note_off_c, 9, 40, 95
6, 264960, Note_on_c, 9, 44, 95
6, 264960, Note_on_c, 9, 36, 95
6, 265440, Note_off_c, 9, 44, 95
6, 265440, Note_off_c, 9, 36, 95
6, 265440, Note_on_c, 9, 44, 47
6, 265920, Note_off_c, 9, 44, 47
6, 265920, Note_on_c, 9, 44, 95
6, 265920, Note_on_c, 9, 36, 95
6, 266400, Note_off_c, 9, 44, 95
6, 266400, Note_off_c, 9, 36, 95
6, 266400, Note_on_c, 9, 46, 95
6, 266400, Note_on_c, 9, 40, 95
6, 266880, Note_off_c, 9, 40, 95
6, 266880, Note_on_c, 9, 36, 95
6, 267360, Note_off_c, 9, 46, 95
6, 267360, Note_off_c, 9, 36, 95
6, 267360, Note_on_c, 9, 42, 95
6, 267360, Note_on_c, 9, 36, 95
6, 267840, Note_off_c, 9, 42, 95
6, 267840, Note_off_c, 9, 36, 95
6, 267840, Note_on_c, 9, 44, 95
6, 267840, Note_on_c, 9, 36, 95
6, 268320, Note_off_c, 9, 44, 95
6, 268320, Note_on_c, 9, 44, 47
6, 268800, Note_off_c, 9, 36, 95
6, 268800, Note_off_c, 9, 44, 47
6, 268800, Note_on_c, 9, 44, 95
6, 268800, Note_on_c, 9, 36, 95
6, 269280, Note_off_c, 9, 44, 95
6, 269280, Note_off_c, 9, 36, 95
6, 269280, Note_on_c, 9, 46, 95
6, 269280, Note_on_c, 9, 40, 95
6, 270240, Note_off_c, 9, 46, 95
6, 270240, Note_off_c, 9, 40, 95
6, 270240, Note_on_c, 9, 42, 111
6, 270240, Note_on_c, 9, 36, 95
6, 270720, Note_off_c, 9, 42, 111
6, 270720, Note_off_c, 9, 36, 95
6, 270720, Note_on_c, 9, 44, 95
6, 270720, Note_on_c, 9, 36, 95
6, 271200, Note_off_c, 9, 44, 95
6, 271200, Note_off_c, 9, 36, 95
6, 271200, Note_on_c, 9, 44, 47
6, 271680, Note_off_c, 9, 44, 47
6, 271680, Note_on_c, 9, 44, 95
6, 271680, Note_on_c, 9, 36, 95
6, 272160, Note_off_c, 9, 44, 95
6, 272160, Note_off_c, 9, 36, 95
6, 272160, Note_on_c, 9, 46, 95
6, 272160, Note_on_c, 9, 40, 95
6, 273120, Note_off_c, 9, 46, 95
6, 273120, Note_off_c, 9, 40, 95
6, 273120, Note_on_c, 9, 51, 95
6, 273120, Note_on_c, 9, 36, 95
6, 273600, Note_off_c, 9, 51, 95
6, 273600, Note_off_c, 9, 36, 95
6, 273600, Note_on_c, 9, 51, 95
6, 273600, Note_on_c, 9, 36, 95
6, 274080, Note_off_c, 9, 51, 95
6, 274080, Note_on_c, 9, 51, 47
6, 274560, Note_off_c, 9, 36, 95
6, 274560, Note_off_c, 9, 51, 47
6, 274560, Note_on_c, 9, 51, 95
6, 274560, Note_on_c, 9, 36, 95
6, 275040, Note_off_c, 9, 51, 95
6, 275040, Note_off_c, 9, 36, 95
6, 275040, Note_on_c, 9, 51, 95
6, 275040, Note_on_c, 9, 40, 95
6, 275040, Note_on_c, 9, 36, 95
6, 275520, Note_off_c, 9, 51, 95
6, 275520, Note_off_c, 9, 40, 95
6, 275520, Note_off_c, 9, 36, 95
6, 275520, Note_on_c, 9, 40, 95
6, 275520, Note_on_c, 9, 36, 95
6, 276000, Note_off_c, 9, 40, 95
6, 276000, Note_off_c, 9, 36, 95
6, 276000, Note_on_c, 9, 40, 95
6, 276000, Note_on_c, 9, 36, 95
6, 276240, Note_off_c, 9, 40, 95
6, 276240, Note_off_c, 9, 36, 95
6, 276240, Note_on_c, 9, 45, 79
6, 276360, Note_off_c, 9, 45, 79
6, 276360, Note_on_c, 9, 45, 63
6, 276480, Note_off_c, 9, 45, 63
6, 276480, Note_on_c, 9, 49, 95
6, 276480, Note_on_c, 9, 36, 95
6, 277440, Note_off_c, 9, 49, 95
6, 277440, Note_off_c, 9, 36, 95
6, 277440, Note_on_c, 9, 51, 95
6, 277440, Note_on_c, 9, 36, 95
6, 277920, Note_off_c, 9, 51, 95
6, 277920, Note_off_c, 9, 36, 95
6, 277920, Note_on_c, 9, 51, 95
6, 277920, Note_on_c, 9, 40, 95
6, 278160, Note_off_c, 9, 51, 95
6, 278160, Note_off_c, 9, 40, 95
6, 278160, Note_on_c, 9, 40, 47
6, 278400, Note_off_c, 9, 40, 47
6, 278400, Note_on_c, 9, 51, 47
6, 278880, Note_off_c, 9, 51, 47
6, 278880, Note_on_c, 9, 51, 95
6, 278880, Note_on_c, 9, 36, 95
6, 279360, Note_off_c, 9, 51, 95
6, 279360, Note_off_c, 9, 36, 95
6, 279360, Note_on_c, 9, 51, 95
6, 279360, Note_on_c, 9, 36, 95
6, 279840, Note_off_c, 9, 51, 95
6, 279840, Note_off_c, 9, 36, 95
6, 279840, Note_on_c, 9, 51, 47
6, 280320, Note_off_c, 9, 51, 47
6, 280320, Note_on_c, 9, 51, 95
6, 280320, Note_on_c, 9, 36, 95
6, 280800, Note_off_c, 9, 51, 95
6, 280800, Note_off_c, 9, 36, 95
6, 280800, Note_on_c, 9, 51, 95
6, 280800, Note_on_c, 9, 40, 95
6, 281040, Note_off_c, 9, 51, 95
6, 281040, Note_off_c, 9, 40, 95
6, 281040, Note_on_c, 9, 40, 47
6, 281280, Note_off_c, 9, 40, 47
6, 281280, Note_on_c, 9, 51, 47
6, 281760, Note_off_c, 9, 51, 47
6, 281760, Note_on_c, 9, 51, 111
6, 281760, Note_on_c, 9, 36, 95
6, 282240, Note_off_c, 9, 51, 111
6, 282240, Note_off_c, 9, 36, 95
6, 282240, Note_on_c, 9, 51, 95
6, 282240, Note_on_c, 9, 36, 95
6, 282720, Note_off_c, 9, 51, 95
6, 282720, Note_on_c, 9, 51, 47
6, 283200, Note_off_c, 9, 36, 95
6, 283200, Note_off_c, 9, 51, 47
6, 283200, Note_on_c, 9, 51, 95
6, 283200, Note_on_c, 9, 36, 95
6, 283680, Note_off_c, 9, 51, 95
6, 283680, Note_off_c, 9, 36, 95
6, 283680, Note_on_c, 9, 51, 95
6, 283680, Note_on_c, 9, 40, 47
6, 283920, Note_off_c, 9, 51, 95
6, 283920, Note_off_c, 9, 40, 47
6, 283920, Note_on_c, 9, 40, 47
6, 284160, Note_off_c, 9, 40, 47
6, 284160, Note_on_c, 9, 51, 47
6, 284640, Note_off_c, 9, 51, 47
6, 284640, Note_on_c, 9, 51, 95
6, 284640, Note_on_c, 9, 36, 95
6, 285120, Note_off_c, 9, 51, 95
6, 285120, Note_off_c, 9, 36, 95
6, 285120, Note_on_c, 9, 51, 95
6, 285120, Note_on_c, 9, 36, 95
6, 285600, Note_off_c, 9, 51, 95
6, 285600, Note_off_c, 9, 36, 95
6, 285600, Note_on_c, 9, 51, 47
6, 286080, Note_off_c, 9, 51, 47
6, 286080, Note_on_c, 9, 51, 95
6, 286080, Note_on_c, 9, 36, 95
6, 286320, Note_off_c, 9, 51, 95
6, 286320, Note_off_c, 9, 36, 95
6, 286320, Note_on_c, 9, 43, 47
6, 286440, Note_off_c, 9, 43, 47
6, 286440, Note_on_c, 9, 45, 63
6, 286560, Note_off_c, 9, 45, 63
6, 286560, Note_on_c, 9, 51, 95
6, 286560, Note_on_c, 9, 40, 79
6, 287040, Note_off_c, 9, 51, 95
6, 287040, Note_off_c, 9, 40, 79
6, 287040, Note_on_c, 9, 51, 47
6, 287520, Note_off_c, 9, 51, 47
6, 287520, Note_on_c, 9, 51, 111
6, 287520, Note_on_c, 9, 36, 95
6, 288000, Note_off_c, 9, 51, 111
6, 288000, Note_off_c, 9, 36, 95
6, 288000, Note_on_c, 9, 51, 95
6, 288000, Note_on_c, 9, 36, 95
6, 288480, Note_off_c, 9, 51, 95
6, 288480, Note_on_c, 9, 51, 47
6, 288960, Note_off_c, 9, 36, 95
6, 288960, Note_off_c, 9, 51, 47
6, 288960, Note_on_c, 9, 51, 95
6, 288960, Note_on_c, 9, 36, 95
6, 289440, Note_off_c, 9, 51, 95
6, 289440, Note_off_c, 9, 36, 95
6, 289440, Note_on_c, 9, 51, 95
6, 289440, Note_on_c, 9, 40, 95
6, 289920, Note_off_c, 9, 51, 95
6, 289920, Note_off_c, 9, 40, 95
6, 289920, Note_on_c, 9, 51, 47
6, 290400, Note_off_c, 9, 51, 47
6, 290400, Note_on_c, 9, 51, 95
6, 290400, Note_on_c, 9, 36, 95
6, 290880, Note_off_c, 9, 51, 95
6, 290880, Note_off_c, 9, 36, 95
6, 290880, Note_on_c, 9, 51, 95
6, 290880, Note_on_c, 9, 36, 95
6, 291360, Note_off_c, 9, 51, 95
6, 291360, Note_off_c, 9, 36, 95
6, 291360, Note_on_c, 9, 51, 47
6, 291840, Note_off_c, 9, 51, 47
6, 291840, Note_on_c, 9, 51, 95
6, 291840, Note_on_c, 9, 36, 95
6, 292320, Note_off_c, 9, 51, 95
6, 292320, Note_off_c, 9, 36, 95
6, 292320, Note_on_c, 9, 51, 95
6, 292320, Note_on_c, 9, 40, 63
6, 292440, Note_off_c, 9, 51, 95
6, 292440, Note_off_c, 9, 40, 63
6, 292440, Note_on_c, 9, 40, 47
6, 292560, Note_off_c, 9, 40, 47
6, 292560, Note_on_c, 9, 40, 31
6, 292800, Note_off_c, 9, 40, 31
6, 292800, Note_on_c, 9, 51, 47
6, 293280, Note_off_c, 9, 51, 47
6, 293280, Note_on_c, 9, 51, 111
6, 293280, Note_on_c, 9, 36, 95
6, 293760, Note_off_c, 9, 51, 111
6, 293760, Note_off_c, 9, 36, 95
6, 293760, Note_on_c, 9, 51, 95
6, 293760, Note_on_c, 9, 36, 95
6, 294240, Note_off_c, 9, 51, 95
6, 294240, Note_on_c, 9, 51, 47
6, 294720, Note_off_c, 9, 36, 95
6, 294720, Note_off_c, 9, 51, 47
6, 294720, Note_on_c, 9, 51, 95
6, 294720, Note_on_c, 9, 36, 95
6, 295200, Note_off_c, 9, 51, 95
6, 295200, Note_off_c, 9, 36, 95
6, 295200, Note_on_c, 9, 51, 95
6, 295200, Note_on_c, 9, 40, 47
6, 295440, Note_off_c, 9, 51, 95
6, 295440, Note_off_c, 9, 40, 47
6, 295440, Note_on_c, 9, 40, 47
6, 295680, Note_off_c, 9, 40, 47
6, 295680, Note_on_c, 9, 51, 47
6, 296160, Note_off_c, 9, 51, 47
6, 296160, Note_on_c, 9, 51, 95
6, 296160, Note_on_c, 9, 36, 95
6, 296640, Note_off_c, 9, 51, 95
6, 296640, Note_off_c, 9, 36, 95
6, 296640, Note_on_c, 9, 51, 95
6, 296640, Note_on_c, 9, 36, 95
6, 297120, Note_off_c, 9, 51, 95
6, 297120, Note_off_c, 9, 36, 95
6, 297120, Note_on_c, 9, 51, 47
6, 297120, Note_on_c, 9, 36, 95
6, 297600, Note_off_c, 9, 51, 47
6, 297600, Note_off_c, 9, 36, 95
6, 297600, Note_on_c, 9, 51, 95
6, 297600, Note_on_c, 9, 40, 47
6, 297600, Note_on_c, 9, 36, 95
6, 298080, Note_off_c, 9, 51, 95
6, 298080, Note_off_c, 9, 40, 47
6, 298080, Note_off_c, 9, 36, 95
6, 298080, Note_on_c, 9, 51, 95
6, 298080, Note_on_c, 9, 40, 79
6, 298080, Note_on_c, 9, 36, 95
6, 298560, Note_off_c, 9, 51, 95
6, 298560, Note_off_c, 9, 40, 79
6, 298560, Note_off_c, 9, 36, 95
6, 298560, Note_on_c, 9, 51, 47
6, 298560, Note_on_c, 9, 40, 95
6, 298800, Note_off_c, 9, 51, 47
6, 298800, Note_off_c, 9, 40, 95
6, 298800, Note_on_c, 9, 40, 95
6, 299040, Note_off_c, 9, 40, 95
6, 299040, Note_on_c, 9, 51, 111
6, 299040, Note_on_c, 9, 40, 47
6, 299040, Note_on_c, 9, 36, 95
6, 299520, Note_off_c, 9, 51, 111
6, 299520, Note_off_c, 9, 40, 47
6, 299520, Note_off_c, 9, 36, 95
6, 299520, Note_on_c, 9, 49, 95
6, 299520, Note_on_c, 9, 36, 95
6, 300480, Note_off_c, 9, 49, 95
6, 300480, Note_off_c, 9, 36, 95
6, 300480, Note_on_c, 9, 51, 95
6, 300480, Note_on_c, 9, 36, 95
6, 300960, Note_off_c, 9, 51, 95
6, 300960, Note_off_c, 9, 36, 95
6, 300960, Note_on_c, 9, 51, 95
6, 300960, Note_on_c, 9, 40, 95
6, 301440, Note_off_c, 9, 51, 95
6, 301440, Note_off_c, 9, 40, 95
6, 301440, Note_on_c, 9, 51, 47
6, 301920, Note_off_c, 9, 51, 47
6, 301920, Note_on_c, 9, 51, 95
6, 301920, Note_on_c, 9, 36, 95
6, 302400, Note_off_c, 9, 51, 95
6, 302400, Note_off_c, 9, 36, 95
6, 302400, Note_on_c, 9, 51, 95
6, 302400, Note_on_c, 9, 36, 95
6, 302880, Note_off_c, 9, 51, 95
6, 302880, Note_off_c, 9, 36, 95
6, 302880, Note_on_c, 9, 51, 47
6, 303360, Note_off_c, 9, 51, 47
6, 303360, Note_on_c, 9, 51, 95
6, 303360, Note_on_c, 9, 36, 95
6, 303840, Note_off_c, 9, 51, 95
6, 303840, Note_off_c, 9, 36, 95
6, 303840, Note_on_c, 9, 51, 95
6, 303840, Note_on_c, 9, 40, 95
6, 304320, Note_off_c, 9, 51, 95
6, 304320, Note_off_c, 9, 40, 95
6, 304320, Note_on_c, 9, 51, 47
6, 304320, Note_on_c, 9, 40, 47
6, 304560, Note_off_c, 9, 51, 47
6, 304560, Note_off_c, 9, 40, 47
6, 304560, Note_on_c, 9, 40, 95
6, 304800, Note_off_c, 9, 40, 95
6, 304800, Note_on_c, 9, 51, 111
6, 304800, Note_on_c, 9, 40, 95
6, 304800, Note_on_c, 9, 36, 95
6, 305280, Note_off_c, 9, 51, 111
6, 305280, Note_off_c, 9, 40, 95
6, 305280, Note_off_c, 9, 36, 95
6, 305280, Note_on_c, 9, 51, 95
6, 305280, Note_on_c, 9, 36, 95
6, 305760, Note_off_c, 9, 51, 95
6, 305760, Note_on_c, 9, 51, 47
6, 306240, Note_off_c, 9, 36, 95
6, 306240, Note_off_c, 9, 51, 47
6, 306240, Note_on_c, 9, 51, 95
6, 306240, Note_on_c, 9, 36, 95
6, 306720, Note_off_c, 9, 51, 95
6, 306720, Note_off_c, 9, 36, 95
6, 306720, Note_on_c, 9, 51, 95
6, 306720, Note_on_c, 9, 40, 95
6, 307200, Note_off_c, 9, 51, 95
6, 307200, Note_off_c, 9, 40, 95
6, 307200, Note_on_c, 9, 51, 47
6, 307680, Note_off_c, 9, 51, 47
6, 307680, Note_on_c, 9, 51, 95
6, 307680, Note_on_c, 9, 36, 95
6, 308160, Note_off_c, 9, 51, 95
6, 308160, Note_off_c, 9, 36, 95
6, 308160, Note_on_c, 9, 51, 95
6, 308160, Note_on_c, 9, 36, 95
6, 308640, Note_off_c, 9, 51, 95
6, 308640, Note_off_c, 9, 36, 95
6, 308640, Note_on_c, 9, 51, 47
6, 309120, Note_off_c, 9, 51, 47
6, 309120, Note_on_c, 9, 51, 95
6, 309120, Note_on_c, 9, 36, 95
6, 309600, Note_off_c, 9, 51, 95
6, 309600, Note_off_c, 9, 36, 95
6, 309600, Note_on_c, 9, 51, 95
6, 309600, Note_on_c, 9, 47, 95
6, 309840, Note_off_c, 9, 51, 95
6, 309840, Note_off_c, 9, 47, 95
6, 309840, Note_on_c, 9, 45, 95
6, 309960, Note_off_c, 9, 45, 95
6, 309960, Note_on_c, 9, 45, 95
6, 310080, Note_off_c, 9, 45, 95
6, 310080, Note_on_c, 9, 51, 47
6, 310080, Note_on_c, 9, 45, 95
6, 310320, Note_off_c, 9, 51, 47
6, 310320, Note_off_c, 9, 45, 95
6, 310320, Note_on_c, 9, 43, 95
6, 310440, Note_off_c, 9, 43, 95
6, 310440, Note_on_c, 9, 43, 95
6, 310560, Note_off_c, 9, 43, 95
6, 310560, Note_on_c, 9, 51, 111
6, 310560, Note_on_c, 9, 43, 95
6, 310560, Note_on_c, 9, 36, 95
6, 311040, Note_off_c, 9, 51, 111
6, 311040, Note_off_c, 9, 43, 95
6, 311040, Note_off_c, 9, 36, 95
6, 311040, Note_on_c, 9, 51, 95
6, 311040, Note_on_c, 9, 36, 95
6, 311520, Note_off_c, 9, 51, 95
6, 311520, Note_on_c, 9, 51, 47
6, 312000, Note_off_c, 9, 36, 95
6, 312000, Note_off_c, 9, 51, 47
6, 312000, Note_on_c, 9, 51, 95
6, 312000, Note_on_c, 9, 36, 95
6, 312480, Note_off_c, 9, 51, 95
6, 312480, Note_off_c, 9, 36, 95
6, 312480, Note_on_c, 9, 51, 95
6, 312480, Note_on_c, 9, 40, 95
6, 312960, Note_off_c, 9, 51, 95
6, 312960, Note_on_c, 9, 51, 47
6, 313440, Note_off_c, 9, 40, 95
6, 313440, Note_off_c, 9, 51, 47
6, 313440, Note_on_c, 9, 51, 95
6, 313440, Note_on_c, 9, 36, 95
6, 313920, Note_off_c, 9, 51, 95
6, 313920, Note_off_c, 9, 36, 95
6, 313920, Note_on_c, 9, 51, 95
6, 313920, Note_on_c, 9, 36, 95
6, 314400, Note_off_c, 9, 51, 95
6, 314400, Note_off_c, 9, 36, 95
6, 314400, Note_on_c, 9, 51, 47
6, 314880, Note_off_c, 9, 51, 47
6, 314880, Note_on_c, 9, 51, 95
6, 314880, Note_on_c, 9, 36, 95
6, 315360, Note_off_c, 9, 51, 95
6, 315360, Note_off_c, 9, 36, 95
6, 315360, Note_on_c, 9, 51, 95
6, 315360, Note_on_c, 9, 40, 31
6, 315600, Note_off_c, 9, 51, 95
6, 315600, Note_off_c, 9, 40, 31
6, 315600, Note_on_c, 9, 40, 95
6, 315840, Note_off_c, 9, 40, 95
6, 315840, Note_on_c, 9, 51, 47
6, 315840, Note_on_c, 9, 40, 31
6, 316080, Note_off_c, 9, 51, 47
6, 316080, Note_off_c, 9, 40, 31
6, 316080, Note_on_c, 9, 40, 95
6, 316320, Note_off_c, 9, 40, 95
6, 316320, Note_on_c, 9, 51, 95
6, 316320, Note_on_c, 9, 40, 95
6, 316800, Note_off_c, 9, 51, 95
6, 316800, Note_off_c, 9, 40, 95
6, 316800, Note_on_c, 9, 51, 95
6, 316800, Note_on_c, 9, 36, 95
6, 317280, Note_off_c, 9, 51, 95
6, 317280, Note_on_c, 9, 51, 47
6, 317760, Note_off_c, 9, 36, 95
6, 317760, Note_off_c, 9, 51, 47
6, 317760, Note_on_c, 9, 51, 95
6, 317760, Note_on_c, 9, 36, 95
6, 318240, Note_off_c, 9, 51, 95
6, 318240, Note_off_c, 9, 36, 95
6, 318240, Note_on_c, 9, 51, 95
6, 318240, Note_on_c, 9, 40, 95
6, 318720, Note_off_c, 9, 51, 95
6, 318720, Note_on_c, 9, 51, 47
6, 319200, Note_off_c, 9, 40, 95
6, 319200, Note_off_c, 9, 51, 47
6, 319200, Note_on_c, 9, 51, 95
6, 319200, Note_on_c, 9, 36, 95
6, 319680, Note_off_c, 9, 51, 95
6, 319680, Note_off_c, 9, 36, 95
6, 319680, Note_on_c, 9, 51, 95
6, 319680, Note_on_c, 9, 36, 95
6, 320160, Note_off_c, 9, 51, 95
6, 320160, Note_off_c, 9, 36, 95
6, 320160, Note_on_c, 9, 51, 47
6, 320640, Note_off_c, 9, 51, 47
6, 320640, Note_on_c, 9, 51, 95
6, 320640, Note_on_c, 9, 36, 95
6, 320880, Note_off_c, 9, 51, 95
6, 320880, Note_off_c, 9, 36, 95
6, 320880, Note_on_c, 9, 40, 95
6, 321120, Note_off_c, 9, 40, 95
6, 321120, Note_on_c, 9, 51, 95
6, 321120, Note_on_c, 9, 40, 63
6, 321240, Note_off_c, 9, 51, 95
6, 321240, Note_off_c, 9, 40, 63
6, 321240, Note_on_c, 9, 40, 79
6, 321360, Note_off_c, 9, 40, 79
6, 321360, Note_on_c, 9, 40, 95
6, 321480, Note_off_c, 9, 40, 95
6, 321480, Note_on_c, 9, 40, 95
6, 321600, Note_off_c, 9, 40, 95
6, 321600, Note_on_c, 9, 51, 47
6, 321600, Note_on_c, 9, 45, 95
6, 321840, Note_off_c, 9, 51, 47
6, 321840, Note_off_c, 9, 45, 95
6, 321840, Note_on_c, 9, 40, 95
6, 322080, Note_off_c, 9, 40, 95
6, 322080, Note_on_c, 9, 51, 95
6, 322080, Note_on_c, 9, 40, 95
6, 322200, Note_off_c, 9, 51, 95
6, 322200, Note_off_c, 9, 40, 95
6, 322200, Note_on_c, 9, 40, 79
6, 322320, Note_off_c, 9, 40, 79
6, 322320, Note_on_c, 9, 40, 95
6, 322440, Note_off_c, 9, 40, 95
6, 322440, Note_on_c, 9, 40, 95
6, 322560, Note_off_c, 9, 40, 95
6, 322560, Note_on_c, 9, 49, 95
6, 322560, Note_on_c, 9, 43, 95
6, 322560, Note_on_c, 9, 36, 95
6, 323040, Note_off_c, 9, 43, 95
6, 323520, Note_off_c, 9, 49, 95
6, 323520, Note_off_c, 9, 36, 95
6, 323520, Note_on_c, 9, 51, 95
6, 323520, Note_on_c, 9, 36, 95
6, 324000, Note_off_c, 9, 51, 95
6, 324000, Note_off_c, 9, 36, 95
6, 324000, Note_on_c, 9, 51, 95
6, 324000, Note_on_c, 9, 40, 95
6, 324480, Note_off_c, 9, 51, 95
6, 324480, Note_off_c, 9, 40, 95
6, 324480, Note_on_c, 9, 51, 47
6, 324960, Note_off_c, 9, 51, 47
6, 324960, Note_on_c, 9, 51, 95
6, 324960, Note_on_c, 9, 36, 95
6, 325440, Note_off_c, 9, 51, 95
6, 325440, Note_off_c, 9, 36, 95
6, 325440, Note_on_c, 9, 51, 95
6, 325440, Note_on_c, 9, 36, 95
6, 325920, Note_off_c, 9, 51, 95
6, 325920, Note_off_c, 9, 36, 95
6, 325920, Note_on_c, 9, 51, 47
6, 326400, Note_off_c, 9, 51, 47
6, 326400, Note_on_c, 9, 51, 95
6, 326400, Note_on_c, 9, 36, 95
6, 326880, Note_off_c, 9, 51, 95
6, 326880, Note_off_c, 9, 36, 95
6, 326880, Note_on_c, 9, 51, 95
6, 326880, Note_on_c, 9, 40, 95
6, 327360, Note_off_c, 9, 51, 95
6, 327360, Note_off_c, 9, 40, 95
6, 327360, Note_on_c, 9, 51, 47
6, 327360, Note_on_c, 9, 40, 95
6, 327600, Note_off_c, 9, 51, 47
6, 327600, Note_off_c, 9, 40, 95
6, 327600, Note_on_c, 9, 40, 95
6, 327840, Note_off_c, 9, 40, 95
6, 327840, Note_on_c, 9, 51, 111
6, 327840, Note_on_c, 9, 40, 47
6, 327840, Note_on_c, 9, 36, 95
6, 328320, Note_off_c, 9, 51, 111
6, 328320, Note_off_c, 9, 40, 47
6, 328320, Note_off_c, 9, 36, 95
6, 328320, Note_on_c, 9, 49, 95
6, 328320, Note_on_c, 9, 36, 95
6, 329280, Note_off_c, 9, 49, 95
6, 329280, Note_off_c, 9, 36, 95
6, 329280, Note_on_c, 9, 51, 95
6, 329280, Note_on_c, 9, 36, 95
6, 329760, Note_off_c, 9, 51, 95
6, 329760, Note_off_c, 9, 36, 95
6, 329760, Note_on_c, 9, 51, 95
6, 329760, Note_on_c, 9, 40, 95
6, 330240, Note_off_c, 9, 51, 95
6, 330240, Note_off_c, 9, 40, 95
6, 330240, Note_on_c, 9, 51, 47
6, 330720, Note_off_c, 9, 51, 47
6, 330720, Note_on_c, 9, 51, 95
6, 330720, Note_on_c, 9, 36, 95
6, 331200, Note_off_c, 9, 51, 95
6, 331200, Note_off_c, 9, 36, 95
6, 331200, Note_on_c, 9, 51, 95
6, 331200, Note_on_c, 9, 36, 95
6, 331680, Note_off_c, 9, 51, 95
6, 331680, Note_off_c, 9, 36, 95
6, 331680, Note_on_c, 9, 51, 47
6, 332160, Note_off_c, 9, 51, 47
6, 332160, Note_on_c, 9, 51, 95
6, 332160, Note_on_c, 9, 36, 95
6, 332640, Note_off_c, 9, 51, 95
6, 332640, Note_off_c, 9, 36, 95
6, 332640, Note_on_c, 9, 51, 95
6, 332640, Note_on_c, 9, 40, 95
6, 333120, Note_off_c, 9, 51, 95
6, 333120, Note_off_c, 9, 40, 95
6, 333120, Note_on_c, 9, 51, 47
6, 333120, Note_on_c, 9, 40, 47
6, 333360, Note_off_c, 9, 51, 47
6, 333360, Note_off_c, 9, 40, 47
6, 333360, Note_on_c, 9, 40, 95
6, 333600, Note_off_c, 9, 40, 95
6, 333600, Note_on_c, 9, 51, 111
6, 333600, Note_on_c, 9, 40, 95
6, 333600, Note_on_c, 9, 36, 95
6, 334080, Note_off_c, 9, 51, 111
6, 334080, Note_off_c, 9, 40, 95
6, 334080, Note_off_c, 9, 36, 95
6, 334080, Note_on_c, 9, 51, 95
6, 334080, Note_on_c, 9, 36, 95
6, 334560, Note_off_c, 9, 51, 95
6, 334560, Note_on_c, 9, 51, 47
6, 335040, Note_off_c, 9, 36, 95
6, 335040, Note_off_c, 9, 51, 47
6, 335040, Note_on_c, 9, 51, 95
6, 335040, Note_on_c, 9, 36, 95
6, 335520, Note_off_c, 9, 51, 95
6, 335520, Note_off_c, 9, 36, 95
6, 335520, Note_on_c, 9, 51, 95
6, 335520, Note_on_c, 9, 40, 95
6, 336000, Note_off_c, 9, 51, 95
6, 336000, Note_off_c, 9, 40, 95
6, 336000, Note_on_c, 9, 51, 47
6, 336480, Note_off_c, 9, 51, 47
6, 336480, Note_on_c, 9, 51, 95
6, 336480, Note_on_c, 9, 36, 95
6, 336960, Note_off_c, 9, 51, 95
6, 336960, Note_off_c, 9, 36, 95
6, 336960, Note_on_c, 9, 51, 95
6, 336960, Note_on_c, 9, 36, 95
6, 337440, Note_off_c, 9, 51, 95
6, 337440, Note_off_c, 9, 36, 95
6, 337440, Note_on_c, 9, 51, 47
6, 337920, Note_off_c, 9, 51, 47
6, 337920, Note_on_c, 9, 51, 95
6, 337920, Note_on_c, 9, 36, 95
6, 338400, Note_off_c, 9, 51, 95
6, 338400, Note_off_c, 9, 36, 95
6, 338400, Note_on_c, 9, 51, 95
6, 338400, Note_on_c, 9, 40, 95
6, 338880, Note_off_c, 9, 51, 95
6, 338880, Note_off_c, 9, 40, 95
6, 338880, Note_on_c, 9, 51, 47
6, 338880, Note_on_c, 9, 36, 95
6, 339360, Note_off_c, 9, 51, 47
6, 339360, Note_off_c, 9, 36, 95
6, 339360, Note_on_c, 9, 51, 111
6, 339360, Note_on_c, 9, 36, 95
6, 339840, Note_off_c, 9, 51, 111
6, 339840, Note_off_c, 9, 36, 95
6, 339840, Note_on_c, 9, 51, 95
6, 339840, Note_on_c, 9, 36, 95
6, 340320, Note_off_c, 9, 51, 95
6, 340320, Note_on_c, 9, 51, 47
6, 340800, Note_off_c, 9, 36, 95
6, 340800, Note_off_c, 9, 51, 47
6, 340800, Note_on_c, 9, 51, 95
6, 340800, Note_on_c, 9, 36, 95
6, 341280, Note_off_c, 9, 51, 95
6, 341280, Note_off_c, 9, 36, 95
6, 341280, Note_on_c, 9, 51, 95
6, 341280, Note_on_c, 9, 40, 95
6, 341760, Note_off_c, 9, 51, 95
6, 341760, Note_off_c, 9, 40, 95
6, 341760, Note_on_c, 9, 51, 47
6, 341760, Note_on_c, 9, 36, 95
6, 342240, Note_off_c, 9, 51, 47
6, 342240, Note_off_c, 9, 36, 95
6, 342240, Note_on_c, 9, 57, 47
6, 342240, Note_on_c, 9, 40, 47
6, 342240, Note_on_c, 9, 36, 95
6, 342720, Note_off_c, 9, 57, 47
6, 342720, Note_off_c, 9, 40, 47
6, 342720, Note_off_c, 9, 36, 95
6, 342720, Note_on_c, 9, 57, 63
6, 342720, Note_on_c, 9, 40, 63
6, 342720, Note_on_c, 9, 36, 95
6, 343200, Note_off_c, 9, 57, 63
6, 343200, Note_off_c, 9, 40, 63
6, 343200, Note_off_c, 9, 36, 95
6, 343200, Note_on_c, 9, 57, 95
6, 343200, Note_on_c, 9, 40, 95
6, 343200, Note_on_c, 9, 36, 95
6, 343440, Note_off_c, 9, 57, 95
6, 343440, Note_off_c, 9, 40, 95
6, 343440, Note_off_c, 9, 36, 95
6, 343440, Note_on_c, 9, 40, 31
6, 343560, Note_off_c, 9, 40, 31
6, 343560, Note_on_c, 9, 40, 47
6, 343680, Note_off_c, 9, 40, 47
6, 343680, Note_on_c, 9, 45, 95
6, 343680, Note_on_c, 9, 36, 95
6, 343920, Note_off_c, 9, 45, 95
6, 343920, Note_off_c, 9, 36, 95
6, 343920, Note_on_c, 9, 40, 31
6, 344040, Note_off_c, 9, 40, 31
6, 344040, Note_on_c, 9, 40, 47
6, 344160, Note_off_c, 9, 40, 47
6, 344160, Note_on_c, 9, 43, 95
6, 344160, Note_on_c, 9, 36, 95
6, 344400, Note_off_c, 9, 43, 95
6, 344400, Note_off_c, 9, 36, 95
6, 344400, Note_on_c, 9, 40, 47
6, 344520, Note_off_c, 9, 40, 47
6, 344520, Note_on_c, 9, 40, 47
6, 344640, Note_off_c, 9, 40, 47
6, 344640, Note_on_c, 9, 45, 111
6, 344880, Note_off_c, 9, 45, 111
6, 344880, Note_on_c, 9, 40, 111
6, 345120, Note_off_c, 9, 40, 111
6, 345120, Note_on_c, 9, 40, 111
6, 345600, Note_off_c, 9, 40, 111
6, 345600, Note_on_c, 9, 49, 111
6, 345600, Note_on_c, 9, 45, 111
6, 345600, Note_on_c, 9, 36, 111
6, 346080, Note_off_c, 9, 49, 111
6, 346080, Note_off_c, 9, 45, 111
6, 346080, Note_off_c, 9, 36, 111
6, 346080, Note_on_c, 9, 57, 31
6, 346560, Note_on_c, 9, 36, 95
6, 347040, Note_off_c, 9, 57, 31
6, 347040, Note_off_c, 9, 36, 95
6, 347040, Note_on_c, 9, 51, 95
6, 347040, Note_on_c, 9, 40, 95
6, 347520, Note_off_c, 9, 51, 95
6, 347520, Note_on_c, 9, 51, 47
6, 348000, Note_off_c, 9, 40, 95
6, 348000, Note_off_c, 9, 51, 47
6, 348000, Note_on_c, 9, 51, 95
6, 348000, Note_on_c, 9, 36, 95
6, 348480, Note_off_c, 9, 51, 95
6, 348480, Note_off_c, 9, 36, 95
6, 348480, Note_on_c, 9, 51, 95
6, 348480, Note_on_c, 9, 53, 47
6, 348480, Note_on_c, 9, 36, 95
6, 348960, Note_off_c, 9, 51, 95
6, 348960, Note_off_c, 9, 36, 95
6, 348960, Note_on_c, 9, 51, 47
6, 349440, Note_off_c, 9, 53, 47
6, 349440, Note_off_c, 9, 51, 47
6, 349440, Note_on_c, 9, 51, 95
6, 349440, Note_on_c, 9, 36, 95
6, 349920, Note_off_c, 9, 51, 95
6, 349920, Note_off_c, 9, 36, 95
6, 349920, Note_on_c, 9, 57, 31
6, 349920, Note_on_c, 9, 40, 95
6, 350400, Note_off_c, 9, 57, 31
6, 350400, Note_off_c, 9, 40, 95
6, 350400, Note_on_c, 9, 51, 47
6, 350880, Note_off_c, 9, 51, 47
6, 350880, Note_on_c, 9, 51, 111
6, 350880, Note_on_c, 9, 36, 95
6, 351360, Note_off_c, 9, 51, 111
6, 351360, Note_off_c, 9, 36, 95
6, 351360, Note_on_c, 9, 51, 95
6, 351360, Note_on_c, 9, 36, 95
6, 351840, Note_off_c, 9, 51, 95
6, 351840, Note_off_c, 9, 36, 95
6, 351840, Note_on_c, 9, 51, 47
6, 352320, Note_off_c, 9, 51, 47
6, 352320, Note_on_c, 9, 51, 95
6, 352320, Note_on_c, 9, 36, 95
6, 352800, Note_off_c, 9, 51, 95
6, 352800, Note_off_c, 9, 36, 95
6, 352800, Note_on_c, 9, 57, 63
6, 352800, Note_on_c, 9, 40, 95
6, 353280, Note_off_c, 9, 57, 63
6, 353280, Note_on_c, 9, 51, 47
6, 353760, Note_off_c, 9, 40, 95
6, 353760, Note_off_c, 9, 51, 47
6, 353760, Note_on_c, 9, 51, 95
6, 353760, Note_on_c, 9, 36, 95
6, 354240, Note_off_c, 9, 51, 95
6, 354240, Note_off_c, 9, 36, 95
6, 354240, Note_on_c, 9, 51, 95
6, 354240, Note_on_c, 9, 53, 47
6, 354240, Note_on_c, 9, 36, 95
6, 354720, Note_off_c, 9, 51, 95
6, 354720, Note_off_c, 9, 36, 95
6, 354720, Note_on_c, 9, 51, 47
6, 355200, Note_off_c, 9, 53, 47
6, 355200, Note_off_c, 9, 51, 47
6, 355200, Note_on_c, 9, 51, 95
6, 355200, Note_on_c, 9, 36, 95
6, 355680, Note_off_c, 9, 51, 95
6, 355680, Note_off_c, 9, 36, 95
6, 355680, Note_on_c, 9, 57, 47
6, 355680, Note_on_c, 9, 40, 95
6, 356160, Note_off_c, 9, 57, 47
6, 356160, Note_off_c, 9, 40, 95
6, 356160, Note_on_c, 9, 51, 47
6, 356640, Note_off_c, 9, 51, 47
6, 356640, Note_on_c, 9, 51, 111
6, 356880, Note_off_c, 9, 51, 111
6, 356880, Note_on_c, 9, 40, 47
6, 357120, Note_off_c, 9, 40, 47
6, 357120, Note_on_c, 9, 49, 95
6, 357120, Note_on_c, 9, 36, 95
6, 357600, Note_off_c, 9, 49, 95
6, 357600, Note_off_c, 9, 36, 95
6, 357600, Note_on_c, 9, 51, 47
6, 358080, Note_off_c, 9, 51, 47
6, 358080, Note_on_c, 9, 51, 95
6, 358080, Note_on_c, 9, 36, 95
6, 358560, Note_off_c, 9, 51, 95
6, 358560, Note_off_c, 9, 36, 95
6, 358560, Note_on_c, 9, 57, 47
6, 358560, Note_on_c, 9, 40, 95
6, 359040, Note_off_c, 9, 57, 47
6, 359040, Note_on_c, 9, 51, 47
6, 359520, Note_off_c, 9, 40, 95
6, 359520, Note_off_c, 9, 51, 47
6, 359520, Note_on_c, 9, 51, 95
6, 359520, Note_on_c, 9, 36, 95
6, 360000, Note_off_c, 9, 51, 95
6, 360000, Note_off_c, 9, 36, 95
6, 360000, Note_on_c, 9, 51, 95
6, 360000, Note_on_c, 9, 53, 47
6, 360000, Note_on_c, 9, 36, 95
6, 360480, Note_off_c, 9, 51, 95
6, 360480, Note_off_c, 9, 53, 47
6, 360480, Note_off_c, 9, 36, 95
6, 360480, Note_on_c, 9, 51, 95
6, 360960, Note_off_c, 9, 51, 95
6, 360960, Note_on_c, 9, 51, 95
6, 360960, Note_on_c, 9, 36, 95
6, 361440, Note_off_c, 9, 51, 95
6, 361440, Note_off_c, 9, 36, 95
6, 361440, Note_on_c, 9, 51, 95
6, 361440, Note_on_c, 9, 45, 47
6, 361920, Note_off_c, 9, 51, 95
6, 361920, Note_off_c, 9, 45, 47
6, 361920, Note_on_c, 9, 51, 111
6, 361920, Note_on_c, 9, 47, 47
6, 362160, Note_off_c, 9, 51, 111
6, 362160, Note_off_c, 9, 47, 47
6, 362160, Note_on_c, 9, 36, 95
6, 362400, Note_off_c, 9, 36, 95
6, 362400, Note_on_c, 9, 51, 111
6, 362400, Note_on_c, 9, 45, 95
6, 362640, Note_off_c, 9, 51, 111
6, 362640, Note_off_c, 9, 45, 95
6, 362640, Note_on_c, 9, 36, 95
6, 362880, Note_off_c, 9, 36, 95
6, 362880, Note_on_c, 9, 51, 95
6, 362880, Note_on_c, 9, 45, 95
6, 363120, Note_off_c, 9, 51, 95
6, 363120, Note_off_c, 9, 45, 95
6, 363120, Note_on_c, 9, 36, 95
6, 363360, Note_off_c, 9, 36, 95
6, 363360, Note_on_c, 9, 51, 95
6, 363360, Note_on_c, 9, 45, 95
6, 363600, Note_off_c, 9, 51, 95
6, 363600, Note_off_c, 9, 45, 95
6, 363600, Note_on_c, 9, 36, 95
6, 363840, Note_off_c, 9, 36, 95
6, 363840, Note_on_c, 9, 51, 95
6, 363840, Note_on_c, 9, 43, 95
6, 364080, Note_off_c, 9, 51, 95
6, 364080, Note_off_c, 9, 43, 95
6, 364080, Note_on_c, 9, 36, 95
6, 364320, Note_off_c, 9, 36, 95
6, 364320, Note_on_c, 9, 51, 95
6, 364320, Note_on_c, 9, 47, 95
6, 364560, Note_off_c, 9, 51, 95
6, 364560, Note_off_c, 9, 47, 95
6, 364560, Note_on_c, 9, 36, 95
6, 364800, Note_off_c, 9, 36, 95
6, 364800, Note_on_c, 9, 51, 95
6, 364800, Note_on_c, 9, 45, 95
6, 365040, Note_off_c, 9, 51, 95
6, 365040, Note_off_c, 9, 45, 95
6, 365040, Note_on_c, 9, 36, 95
6, 365280, Note_off_c, 9, 36, 95
6, 365280, Note_on_c, 9, 51, 95
6, 365280, Note_on_c, 9, 43, 95
6, 365520, Note_off_c, 9, 51, 95
6, 365520, Note_off_c, 9, 43, 95
6, 365520, Note_on_c, 9, 36, 95
6, 365760, Note_off_c, 9, 36, 95
6, 365760, Note_on_c, 9, 51, 95
6, 365760, Note_on_c, 9, 45, 95
6, 366000, Note_off_c, 9, 51, 95
6, 366000, Note_off_c, 9, 45, 95
6, 366000, Note_on_c, 9, 36, 95
6, 366240, Note_off_c, 9, 36, 95
6, 366240, Note_on_c, 9, 57, 47
6, 366240, Note_on_c, 9, 43, 95
6, 366480, Note_off_c, 9, 57, 47
6, 366480, Note_off_c, 9, 43, 95
6, 366480, Note_on_c, 9, 45, 95
6, 366720, Note_off_c, 9, 45, 95
6, 366720, Note_on_c, 9, 49, 47
6, 366720, Note_on_c, 9, 40, 95
6, 366720, Note_on_c, 9, 36, 95
6, 366960, Note_off_c, 9, 49, 47
6, 366960, Note_off_c, 9, 40, 95
6, 366960, Note_off_c, 9, 36, 95
6, 366960, Note_on_c, 9, 49, 47
6, 366960, Note_on_c, 9, 40, 95
6, 366960, Note_on_c, 9, 36, 95
6, 367200, Note_off_c, 9, 49, 47
6, 367200, Note_off_c, 9, 40, 95
6, 367200, Note_off_c, 9, 36, 95
6, 367200, Note_on_c, 9, 49, 47
6, 367200, Note_on_c, 9, 40, 95
6, 367200, Note_on_c, 9, 36, 95
6, 367440, Note_off_c, 9, 49, 47
6, 367440, Note_off_c, 9, 40, 95
6, 367440, Note_off_c, 9, 36, 95
6, 367440, Note_on_c, 9, 49, 63
6, 367440, Note_on_c, 9, 40, 95
6, 367440, Note_on_c, 9, 36, 95
6, 367680, Note_off_c, 9, 49, 63
6, 367680, Note_off_c, 9, 40, 95
6, 367680, Note_off_c, 9, 36, 95
6, 367680, Note_on_c, 9, 57, 63
6, 367680, Note_on_c, 9, 40, 95
6, 367680, Note_on_c, 9, 36, 95
6, 367920, Note_off_c, 9, 57, 63
6, 367920, Note_off_c, 9, 40, 95
6, 367920, Note_off_c, 9, 36, 95
6, 367920, Note_on_c, 9, 57, 63
6, 367920, Note_on_c, 9, 40, 95
6, 367920, Note_on_c, 9, 36, 95
6, 368160, Note_off_c, 9, 57, 63
6, 368160, Note_off_c, 9, 40, 95
6, 368160, Note_off_c, 9, 36, 95
6, 368160, Note_on_c, 9, 49, 63
6, 368160, Note_on_c, 9, 40, 95
6, 368160, Note_on_c, 9, 36, 95
6, 368400, Note_off_c, 9, 49, 63
6, 368400, Note_off_c, 9, 40, 95
6, 368400, Note_off_c, 9, 36, 95
6, 368400, Note_on_c, 9, 49, 63
6, 368400, Note_on_c, 9, 40, 95
6, 368400, Note_on_c, 9, 36, 95
6, 368640, Note_off_c, 9, 49, 63
6, 368640, Note_off_c, 9, 40, 95
6, 368640, Note_off_c, 9, 36, 95
6, 368640, Note_on_c, 9, 49, 95
6, 368640, Note_on_c, 9, 36, 95
6, 369120, Note_off_c, 9, 49, 95
6, 369120, Note_off_c, 9, 36, 95
6, 369120, Note_on_c, 9, 51, 47
6, 369600, Note_off_c, 9, 51, 47
6, 369600, Note_on_c, 9, 51, 95
6, 369600, Note_on_c, 9, 36, 95
6, 370080, Note_off_c, 9, 51, 95
6, 370080, Note_off_c, 9, 36, 95
6, 370080, Note_on_c, 9, 51, 95
6, 370080, Note_on_c, 9, 40, 95
6, 370560, Note_off_c, 9, 51, 95
6, 370560, Note_on_c, 9, 51, 47
6, 371040, Note_off_c, 9, 40, 95
6, 371040, Note_off_c, 9, 51, 47
6, 371040, Note_on_c, 9, 51, 95
6, 371040, Note_on_c, 9, 36, 95
6, 371520, Note_off_c, 9, 51, 95
6, 371520, Note_off_c, 9, 36, 95
6, 371520, Note_on_c, 9, 51, 95
6, 371520, Note_on_c, 9, 53, 47
6, 371520, Note_on_c, 9, 36, 95
6, 372000, Note_off_c, 9, 51, 95
6, 372000, Note_off_c, 9, 36, 95
6, 372000, Note_on_c, 9, 51, 47
6, 372480, Note_off_c, 9, 53, 47
6, 372480, Note_off_c, 9, 51, 47
6, 372480, Note_on_c, 9, 51, 95
6, 372480, Note_on_c, 9, 36, 95
6, 372960, Note_off_c, 9, 51, 95
6, 372960, Note_off_c, 9, 36, 95
6, 372960, Note_on_c, 9, 51, 95
6, 372960, Note_on_c, 9, 40, 95
6, 373440, Note_off_c, 9, 51, 95
6, 373440, Note_off_c, 9, 40, 95
6, 373440, Note_on_c, 9, 51, 111
6, 373920, Note_off_c, 9, 51, 111
6, 373920, Note_on_c, 9, 51, 111
6, 373920, Note_on_c, 9, 36, 95
6, 374400, Note_off_c, 9, 51, 111
6, 374400, Note_off_c, 9, 36, 95
6, 374400, Note_on_c, 9, 57, 95
6, 374400, Note_on_c, 9, 36, 95
6, 374880, Note_off_c, 9, 57, 95
6, 374880, Note_off_c, 9, 36, 95
6, 374880, Note_on_c, 9, 51, 47
6, 375360, Note_off_c, 9, 51, 47
6, 375360, Note_on_c, 9, 51, 95
6, 375360, Note_on_c, 9, 36, 95
6, 375840, Note_off_c, 9, 51, 95
6, 375840, Note_off_c, 9, 36, 95
6, 375840, Note_on_c, 9, 51, 95
6, 375840, Note_on_c, 9, 40, 95
6, 376320, Note_off_c, 9, 51, 95
6, 376320, Note_off_c, 9, 40, 95
6, 376320, Note_on_c, 9, 51, 47
6, 376800, Note_off_c, 9, 51, 47
6, 376800, Note_on_c, 9, 51, 95
6, 376800, Note_on_c, 9, 36, 95
6, 377280, Note_off_c, 9, 51, 95
6, 377280, Note_off_c, 9, 36, 95
6, 377280, Note_on_c, 9, 51, 95
6, 377280, Note_on_c, 9, 53, 47
6, 377280, Note_on_c, 9, 36, 95
6, 377760, Note_off_c, 9, 51, 95
6, 377760, Note_off_c, 9, 53, 47
6, 377760, Note_off_c, 9, 36, 95
6, 377760, Note_on_c, 9, 51, 95
6, 378240, Note_off_c, 9, 51, 95
6, 378240, Note_on_c, 9, 51, 95
6, 378240, Note_on_c, 9, 36, 95
6, 378720, Note_off_c, 9, 51, 95
6, 378720, Note_off_c, 9, 36, 95
6, 378720, Note_on_c, 9, 51, 95
6, 378720, Note_on_c, 9, 47, 95
6, 378960, Note_off_c, 9, 51, 95
6, 378960, Note_off_c, 9, 47, 95
6, 378960, Note_on_c, 9, 47, 95
6, 379200, Note_off_c, 9, 47, 95
6, 379200, Note_on_c, 9, 45, 95
6, 379320, Note_off_c, 9, 45, 95
6, 379320, Note_on_c, 9, 45, 95
6, 379440, Note_off_c, 9, 45, 95
6, 379440, Note_on_c, 9, 45, 95
6, 379680, Note_off_c, 9, 45, 95
6, 379680, Note_on_c, 9, 43, 95
6, 379800, Note_off_c, 9, 43, 95
6, 379800, Note_on_c, 9, 43, 95
6, 379920, Note_off_c, 9, 43, 95
6, 379920, Note_on_c, 9, 43, 95
6, 380160, Note_off_c, 9, 43, 95
6, 380160, Note_on_c, 9, 49, 95
6, 380160, Note_on_c, 9, 36, 95
6, 380640, Note_off_c, 9, 49, 95
6, 380640, Note_off_c, 9, 36, 95
6, 380640, Note_on_c, 9, 51, 47
6, 381120, Note_off_c, 9, 51, 47
6, 381120, Note_on_c, 9, 51, 95
6, 381120, Note_on_c, 9, 36, 95
6, 381600, Note_off_c, 9, 51, 95
6, 381600, Note_off_c, 9, 36, 95
6, 381600, Note_on_c, 9, 51, 95
6, 381600, Note_on_c, 9, 40, 95
6, 382080, Note_off_c, 9, 51, 95
6, 382080, Note_on_c, 9, 51, 47
6, 382560, Note_off_c, 9, 40, 95
6, 382560, Note_off_c, 9, 51, 47
6, 382560, Note_on_c, 9, 51, 95
6, 382560, Note_on_c, 9, 36, 95
6, 383040, Note_off_c, 9, 51, 95
6, 383040, Note_off_c, 9, 36, 95
6, 383040, Note_on_c, 9, 51, 95
6, 383040, Note_on_c, 9, 53, 47
6, 383040, Note_on_c, 9, 36, 95
6, 383520, Note_off_c, 9, 51, 95
6, 383520, Note_off_c, 9, 53, 47
6, 383520, Note_off_c, 9, 36, 95
6, 383520, Note_on_c, 9, 51, 95
6, 384000, Note_off_c, 9, 51, 95
6, 384000, Note_on_c, 9, 51, 95
6, 384000, Note_on_c, 9, 36, 95
6, 384480, Note_off_c, 9, 51, 95
6, 384480, Note_off_c, 9, 36, 95
6, 384480, Note_on_c, 9, 57, 63
6, 384480, Note_on_c, 9, 40, 95
6, 384960, Note_off_c, 9, 57, 63
6, 384960, Note_off_c, 9, 40, 95
6, 384960, Note_on_c, 9, 51, 95
6, 384960, Note_on_c, 9, 40, 95
6, 385440, Note_off_c, 9, 51, 95
6, 385440, Note_off_c, 9, 40, 95
6, 385440, Note_on_c, 9, 51, 95
6, 385440, Note_on_c, 9, 40, 95
6, 385920, Note_off_c, 9, 51, 95
6, 385920, Note_off_c, 9, 40, 95
6, 385920, Note_on_c, 9, 51, 95
6, 385920, Note_on_c, 9, 40, 95
6, 386400, Note_off_c, 9, 51, 95
6, 386400, Note_off_c, 9, 40, 95
6, 386400, Note_on_c, 9, 51, 95
6, 386400, Note_on_c, 9, 40, 95
6, 386880, Note_off_c, 9, 51, 95
6, 386880, Note_off_c, 9, 40, 95
6, 386880, Note_on_c, 9, 51, 95
6, 386880, Note_on_c, 9, 36, 95
6, 387360, Note_off_c, 9, 51, 95
6, 387360, Note_off_c, 9, 36, 95
6, 387360, Note_on_c, 9, 57, 95
6, 387360, Note_on_c, 9, 40, 95
6, 387840, Note_off_c, 9, 57, 95
6, 387840, Note_off_c, 9, 40, 95
6, 387840, Note_on_c, 9, 51, 95
6, 387840, Note_on_c, 9, 40, 95
6, 388080, Note_off_c, 9, 51, 95
6, 388080, Note_off_c, 9, 40, 95
6, 388080, Note_on_c, 9, 40, 95
6, 388320, Note_off_c, 9, 40, 95
6, 388320, Note_on_c, 9, 51, 95
6, 388320, Note_on_c, 9, 40, 47
6, 388320, Note_on_c, 9, 36, 95
6, 388800, Note_off_c, 9, 51, 95
6, 388800, Note_off_c, 9, 40, 47
6, 388800, Note_off_c, 9, 36, 95
6, 388800, Note_on_c, 9, 57, 47
6, 388800, Note_on_c, 9, 45, 95
6, 389280, Note_off_c, 9, 57, 47
6, 389280, Note_off_c, 9, 45, 95
6, 389280, Note_on_c, 9, 51, 95
6, 389280, Note_on_c, 9, 40, 95
6, 389520, Note_off_c, 9, 51, 95
6, 389520, Note_off_c, 9, 40, 95
6, 389520, Note_on_c, 9, 40, 95
6, 389760, Note_off_c, 9, 40, 95
6, 389760, Note_on_c, 9, 51, 95
6, 389760, Note_on_c, 9, 40, 47
6, 389760, Note_on_c, 9, 36, 95
6, 390240, Note_off_c, 9, 51, 95
6, 390240, Note_off_c, 9, 40, 47
6, 390240, Note_off_c, 9, 36, 95
6, 390240, Note_on_c, 9, 51, 95
6, 390240, Note_on_c, 9, 45, 95
6, 390720, Note_off_c, 9, 51, 95
6, 390720, Note_off_c, 9, 45, 95
6, 390720, Note_on_c, 9, 51, 95
6, 390720, Note_on_c, 9, 40, 95
6, 391200, Note_off_c, 9, 51, 95
6, 391200, Note_off_c, 9, 40, 95
6, 391200, Note_on_c, 9, 40, 95
6, 391440, Note_off_c, 9, 40, 95
6, 391440, Note_on_c, 9, 40, 95
6, 391680, Note_off_c, 9, 40, 95
6, 391680, Note_on_c, 9, 49, 95
6, 391680, Note_on_c, 9, 36, 95
6, 392160, Note_off_c, 9, 49, 95
6, 392640, Note_off_c, 9, 36, 95
6, 392640, Note_on_c, 9, 51, 47
6, 392640, Note_on_c, 9, 36, 95
6, 393120, Note_off_c, 9, 51, 47
6, 393120, Note_off_c, 9, 36, 95
6, 393120, Note_on_c, 9, 57, 63
6, 393120, Note_on_c, 9, 40, 95
6, 393600, Note_off_c, 9, 57, 63
6, 393600, Note_off_c, 9, 40, 95
6, 393600, Note_on_c, 9, 51, 95
6, 394080, Note_off_c, 9, 51, 95
6, 394080, Note_on_c, 9, 51, 95
6, 394080, Note_on_c, 9, 36, 95
6, 394560, Note_off_c, 9, 51, 95
6, 394560, Note_off_c, 9, 36, 95
6, 394560, Note_on_c, 9, 57, 95
6, 394560, Note_on_c, 9, 36, 95
6, 395040, Note_off_c, 9, 36, 95
6, 395520, Note_off_c, 9, 57, 95
6, 395520, Note_on_c, 9, 51, 95
6, 395520, Note_on_c, 9, 36, 95
6, 396000, Note_off_c, 9, 51, 95
6, 396000, Note_off_c, 9, 36, 95
6, 396000, Note_on_c, 9, 57, 31
6, 396000, Note_on_c, 9, 40, 95
6, 396240, Note_off_c, 9, 57, 31
6, 396240, Note_off_c, 9, 40, 95
6, 396240, Note_on_c, 9, 40, 95
6, 396480, Note_off_c, 9, 40, 95
6, 396480, Note_on_c, 9, 40, 95
6, 396720, Note_off_c, 9, 40, 95
6, 396720, Note_on_c, 9, 45, 95
6, 396960, Note_off_c, 9, 45, 95
6, 396960, Note_on_c, 9, 45, 95
6, 397200, Note_off_c, 9, 45, 95
6, 397200, Note_on_c, 9, 45, 95
6, 397440, Note_off_c, 9, 45, 95
6, 397440, Note_on_c, 9, 45, 95
6, 397440, Note_on_c, 9, 36, 95
6, 398880, Note_off_c, 9, 45, 95
6, 398880, Note_off_c, 9, 36, 95
6, 403200, Note_on_c, 9, 49, 111
6, 403200, Note_on_c, 9, 36, 111
6, 404160, Note_off_c, 9, 49, 111
6, 404160, Note_off_c, 9, 36, 111
6, 404160, Note_on_c, 9, 49, 47
6, 404160, Note_on_c, 9, 36, 111
6, 404640, Note_off_c, 9, 49, 47
6, 404640, Note_off_c, 9, 36, 111
6, 404640, Note_on_c, 9, 57, 63
6, 404640, Note_on_c, 9, 40, 95
6, 404880, Note_off_c, 9, 57, 63
6, 404880, Note_off_c, 9, 40, 95
6, 404880, Note_on_c, 9, 40, 95
6, 405120, Note_off_c, 9, 40, 95
6, 405120, Note_on_c, 9, 51, 95
6, 405360, Note_off_c, 9, 51, 95
6, 405360, Note_on_c, 9, 40, 95
6, 405600, Note_off_c, 9, 40, 95
6, 405600, Note_on_c, 9, 51, 95
6, 405600, Note_on_c, 9, 40, 95
6, 405840, Note_off_c, 9, 51, 95
6, 405840, Note_off_c, 9, 40, 95
6, 405840, Note_on_c, 9, 40, 47
6, 406080, Note_off_c, 9, 40, 47
6, 406080, Note_on_c, 9, 49, 95
6, 406080, Note_on_c, 9, 36, 95
6, 406560, Note_off_c, 9, 49, 95
6, 406560, Note_off_c, 9, 36, 95
6, 406560, Note_on_c, 9, 51, 95
6, 407040, Note_off_c, 9, 51, 95
6, 407040, Note_on_c, 9, 51, 95
6, 407040, Note_on_c, 9, 36, 95
6, 407520, Note_off_c, 9, 51, 95
6, 407520, Note_off_c, 9, 36, 95
6, 407520, Note_on_c, 9, 57, 95
6, 407520, Note_on_c, 9, 40, 95
6, 408000, Note_off_c, 9, 57, 95
6, 408000, Note_off_c, 9, 40, 95
6, 408000, Note_on_c, 9, 45, 95
6, 408240, Note_off_c, 9, 45, 95
6, 408240, Note_on_c, 9, 36, 95
6, 408480, Note_off_c, 9, 36, 95
6, 408480, Note_on_c, 9, 45, 95
6, 408720, Note_off_c, 9, 45, 95
6, 408720, Note_on_c, 9, 36, 95
6, 408960, Note_off_c, 9, 36, 95
6, 408960, Note_on_c, 9, 45, 95
6, 409080, Note_off_c, 9, 45, 95
6, 409080, Note_on_c, 9, 45, 95
6, 409200, Note_off_c, 9, 45, 95
6, 409200, Note_on_c, 9, 43, 95
6, 409200, Note_on_c, 9, 36, 95
6, 409440, Note_off_c, 9, 43, 95
6, 409440, Note_off_c, 9, 36, 95
6, 409440, Note_on_c, 9, 45, 95
6, 409560, Note_off_c, 9, 45, 95
6, 409560, Note_on_c, 9, 45, 95
6, 409680, Note_off_c, 9, 45, 95
6, 409680, Note_on_c, 9, 43, 95
6, 409680, Note_on_c, 9, 36, 95
6, 409920, Note_off_c, 9, 43, 95
6, 409920, Note_off_c, 9, 36, 95
6, 409920, Note_on_c, 9, 41, 95
6, 410160, Note_off_c, 9, 41, 95
6, 410160, Note_on_c, 9, 41, 95
6, 410400, Note_off_c, 9, 41, 95
6, 410400, Note_on_c, 9, 49, 95
6, 410400, Note_on_c, 9, 43, 95
6, 410400, Note_on_c, 9, 36, 95
6, 411360, Note_off_c, 9, 49, 95
6, 411360, Note_off_c, 9, 43, 95
6, 411360, Note_off_c, 9, 36, 95
6, 411360, Note_on_c, 9, 57, 95
6, 411360, Note_on_c, 9, 45, 95
6, 411360, Note_on_c, 9, 36, 95
6, 411840, Note_off_c, 9, 57, 95
6, 411840, Note_off_c, 9, 45, 95
6, 411840, Note_off_c, 9, 36, 95
6, 411840, Note_on_c, 9, 45, 95
6, 411960, Note_off_c, 9, 45, 95
6, 411960, Note_on_c, 9, 45, 95
6, 412080, Note_off_c, 9, 45, 95
6, 412080, Note_on_c, 9, 45, 47
6, 412200, Note_off_c, 9, 45, 47
6, 412200, Note_on_c, 9, 45, 47
6, 412320, Note_off_c, 9, 45, 47
6, 412320, Note_on_c, 9, 43, 95
6, 412440, Note_off_c, 9, 43, 95
6, 412440, Note_on_c, 9, 43, 95
6, 412560, Note_off_c, 9, 43, 95
6, 412560, Note_on_c, 9, 43, 47
6, 412680, Note_off_c, 9, 43, 47
6, 412680, Note_on_c, 9, 43, 47
6, 412800, Note_off_c, 9, 43, 47
6, 412800, Note_on_c, 9, 45, 95
6, 413040, Note_off_c, 9, 45, 95
6, 413040, Note_on_c, 9, 43, 95
6, 413280, Note_off_c, 9, 43, 95
6, 413280, Note_on_c, 9, 41, 95
6, 413520, Note_off_c, 9, 41, 95
6, 413520, Note_on_c, 9, 41, 95
6, 413760, Note_off_c, 9, 41, 95
6, 413760, Note_on_c, 9, 45, 95
6, 414080, Note_off_c, 9, 45, 95
6, 414080, Note_on_c, 9, 43, 95
6, 414400, Note_off_c, 9, 43, 95
6, 414400, Note_on_c, 9, 41, 95
6, 414720, Note_off_c, 9, 41, 95
6, 414720, Note_on_c, 9, 45, 95
6, 414780, Note_on_c, 9, 43, 95
6, 414840, Note_on_c, 9, 41, 95
6, 420480, Note_off_c, 9, 41, 95
6, 420480, Note_off_c, 9, 43, 95
6, 420480, Note_off_c, 9, 45, 95
6, 420480, End_track
0, 0, End_of_file
