0, 0, Header, 1, 14, 480
1, 0, Start_track
1, 0, Tempo, 588235
1, 0, Time_signature, 4, 2, 24, 8
1, 0, Key_signature, 0, "major"
1, 0, End_track
2, 0, Start_track
2, 0, End_track
3, 0, Start_track
3, 0, Title_t, "WWST\000"
3, 0, System_exclusive, 10, 65, 16, 66, 18, 64, 0, 127, 0, 65, 247
3, 15, System_exclusive, 10, 65, 16, 66, 18, 64, 1, 52, 93, 46, 247
3, 30, System_exclusive, 25, 65, 16, 66, 18, 64, 1, 16, 2, 0, 2, 2, 2, 2, 2, 2, 2, 1, 1, 0, 0, 0, 0, 0, 29, 247
3, 45, System_exclusive, 38, 65, 16, 69, 18, 16, 0, 0, 40, 99, 41, 32, 49, 57, 57, 57, 32, 98, 121, 32, 71, 69, 69, 82, 68, 69, 83, 32, 109, 105, 100, 105, 109, 117, 115, 105, 99, 66, 247
3, 170596, System_exclusive, 5, 126, 127, 9, 2, 247
3, 170596, End_track
4, 0, Start_track
4, 0, Title_t, "\000"
4, 0, Program_c, 1, 33
4, 0, Control_c, 1, 7, 100
4, 0, Control_c, 1, 10, 64
4, 0, Control_c, 1, 91, 12
4, 0, Control_c, 1, 93, 15
4, 550, Control_c, 1, 11, 127
4, 9600, Note_on_c, 1, 43, 112
4, 11520, Note_on_c, 1, 38, 122
4, 11553, Note_off_c, 1, 43, 0
4, 13412, Note_off_c, 1, 38, 0
4, 13440, Note_on_c, 1, 41, 117
4, 14400, Note_on_c, 1, 36, 118
4, 14413, Note_off_c, 1, 41, 0
4, 15353, Note_off_c, 1, 36, 0
4, 15360, Note_on_c, 1, 43, 115
4, 17246, Note_off_c, 1, 43, 0
4, 17280, Note_on_c, 1, 33, 127
4, 17595, Note_off_c, 1, 33, 0
4, 17640, Note_on_c, 1, 33, 126
4, 17807, Note_off_c, 1, 33, 0
4, 18000, Note_on_c, 1, 33, 127
4, 18100, Note_off_c, 1, 33, 0
4, 18240, Note_on_c, 1, 33, 127
4, 18550, Note_off_c, 1, 33, 0
4, 18600, Note_on_c, 1, 33, 127
4, 18748, Note_off_c, 1, 33, 0
4, 18960, Note_on_c, 1, 33, 127
4, 19099, Note_off_c, 1, 33, 0
4, 19200, Note_on_c, 1, 33, 127
4, 19515, Note_off_c, 1, 33, 0
4, 19560, Note_on_c, 1, 33, 126
4, 19727, Note_off_c, 1, 33, 0
4, 19920, Note_on_c, 1, 33, 127
4, 20020, Note_off_c, 1, 33, 0
4, 20160, Note_on_c, 1, 33, 127
4, 20470, Note_off_c, 1, 33, 0
4, 20520, Note_on_c, 1, 33, 127
4, 20668, Note_off_c, 1, 33, 0
4, 20880, Note_on_c, 1, 33, 127
4, 21019, Note_off_c, 1, 33, 0
4, 21120, Note_on_c, 1, 33, 127
4, 21435, Note_off_c, 1, 33, 0
4, 21480, Note_on_c, 1, 33, 126
4, 21647, Note_off_c, 1, 33, 0
4, 21840, Note_on_c, 1, 33, 127
4, 21940, Note_off_c, 1, 33, 0
4, 22080, Note_on_c, 1, 33, 127
4, 22390, Note_off_c, 1, 33, 0
4, 22440, Note_on_c, 1, 33, 127
4, 22588, Note_off_c, 1, 33, 0
4, 22800, Note_on_c, 1, 33, 127
4, 22939, Note_off_c, 1, 33, 0
4, 23040, Note_on_c, 1, 31, 127
4, 23314, Note_off_c, 1, 31, 0
4, 23400, Note_on_c, 1, 31, 127
4, 23555, Note_off_c, 1, 31, 0
4, 23760, Note_on_c, 1, 31, 127
4, 23869, Note_off_c, 1, 31, 0
4, 24000, Note_on_c, 1, 29, 127
4, 24299, Note_off_c, 1, 29, 0
4, 24360, Note_on_c, 1, 29, 127
4, 24517, Note_off_c, 1, 29, 0
4, 24720, Note_on_c, 1, 29, 127
4, 24815, Note_off_c, 1, 29, 0
4, 24960, Note_on_c, 1, 29, 127
4, 25276, Note_off_c, 1, 29, 0
4, 25320, Note_on_c, 1, 29, 127
4, 25482, Note_off_c, 1, 29, 0
4, 25680, Note_on_c, 1, 29, 127
4, 25778, Note_off_c, 1, 29, 0
4, 25920, Note_on_c, 1, 29, 127
4, 26228, Note_off_c, 1, 29, 0
4, 26280, Note_on_c, 1, 29, 127
4, 26435, Note_off_c, 1, 29, 0
4, 26640, Note_on_c, 1, 29, 127
4, 26790, Note_off_c, 1, 29, 0
4, 26880, Note_on_c, 1, 33, 127
4, 27195, Note_off_c, 1, 33, 0
4, 27240, Note_on_c, 1, 33, 126
4, 27407, Note_off_c, 1, 33, 0
4, 27600, Note_on_c, 1, 33, 127
4, 27700, Note_off_c, 1, 33, 0
4, 27840, Note_on_c, 1, 33, 127
4, 28150, Note_off_c, 1, 33, 0
4, 28200, Note_on_c, 1, 33, 127
4, 28348, Note_off_c, 1, 33, 0
4, 28560, Note_on_c, 1, 33, 127
4, 28699, Note_off_c, 1, 33, 0
4, 28800, Note_on_c, 1, 33, 127
4, 29115, Note_off_c, 1, 33, 0
4, 29160, Note_on_c, 1, 33, 126
4, 29327, Note_off_c, 1, 33, 0
4, 29520, Note_on_c, 1, 33, 127
4, 29620, Note_off_c, 1, 33, 0
4, 29760, Note_on_c, 1, 33, 127
4, 30070, Note_off_c, 1, 33, 0
4, 30120, Note_on_c, 1, 33, 127
4, 30268, Note_off_c, 1, 33, 0
4, 30480, Note_on_c, 1, 33, 127
4, 30619, Note_off_c, 1, 33, 0
4, 30720, Note_on_c, 1, 33, 127
4, 31035, Note_off_c, 1, 33, 0
4, 31080, Note_on_c, 1, 33, 126
4, 31247, Note_off_c, 1, 33, 0
4, 31440, Note_on_c, 1, 33, 127
4, 31540, Note_off_c, 1, 33, 0
4, 31680, Note_on_c, 1, 33, 127
4, 31990, Note_off_c, 1, 33, 0
4, 32040, Note_on_c, 1, 33, 127
4, 32188, Note_off_c, 1, 33, 0
4, 32400, Note_on_c, 1, 33, 127
4, 32539, Note_off_c, 1, 33, 0
4, 32640, Note_on_c, 1, 31, 127
4, 32914, Note_off_c, 1, 31, 0
4, 33000, Note_on_c, 1, 31, 127
4, 33155, Note_off_c, 1, 31, 0
4, 33360, Note_on_c, 1, 31, 127
4, 33469, Note_off_c, 1, 31, 0
4, 33600, Note_on_c, 1, 29, 127
4, 33899, Note_off_c, 1, 29, 0
4, 33960, Note_on_c, 1, 29, 127
4, 34117, Note_off_c, 1, 29, 0
4, 34320, Note_on_c, 1, 29, 127
4, 34415, Note_off_c, 1, 29, 0
4, 34560, Note_on_c, 1, 29, 127
4, 34876, Note_off_c, 1, 29, 0
4, 34920, Note_on_c, 1, 29, 127
4, 35082, Note_off_c, 1, 29, 0
4, 35280, Note_on_c, 1, 29, 127
4, 35378, Note_off_c, 1, 29, 0
4, 35520, Note_on_c, 1, 29, 127
4, 35708, Note_off_c, 1, 29, 0
4, 36480, Note_on_c, 1, 43, 127
4, 36686, Note_off_c, 1, 43, 0
4, 36840, Note_on_c, 1, 38, 127
4, 37062, Note_off_c, 1, 38, 0
4, 37200, Note_on_c, 1, 43, 116
4, 37303, Note_off_c, 1, 43, 0
4, 37440, Note_on_c, 1, 43, 127
4, 37679, Note_off_c, 1, 43, 0
4, 37800, Note_on_c, 1, 38, 127
4, 38040, Note_off_c, 1, 38, 0
4, 38160, Note_on_c, 1, 43, 126
4, 38297, Note_off_c, 1, 43, 0
4, 38400, Note_on_c, 1, 38, 127
4, 38638, Note_off_c, 1, 38, 0
4, 38760, Note_on_c, 1, 45, 127
4, 39013, Note_off_c, 1, 45, 0
4, 39120, Note_on_c, 1, 38, 127
4, 39214, Note_off_c, 1, 38, 0
4, 39360, Note_on_c, 1, 38, 127
4, 39598, Note_off_c, 1, 38, 0
4, 39720, Note_on_c, 1, 45, 127
4, 39946, Note_off_c, 1, 45, 0
4, 40080, Note_on_c, 1, 38, 127
4, 40221, Note_off_c, 1, 38, 0
4, 40320, Note_on_c, 1, 41, 127
4, 40600, Note_off_c, 1, 41, 0
4, 40680, Note_on_c, 1, 41, 127
4, 40991, Note_off_c, 1, 41, 0
4, 41040, Note_on_c, 1, 33, 127
4, 41270, Note_off_c, 1, 33, 0
4, 41280, Note_on_c, 1, 36, 127
4, 41570, Note_off_c, 1, 36, 0
4, 41640, Note_on_c, 1, 36, 127
4, 41944, Note_off_c, 1, 36, 0
4, 42000, Note_on_c, 1, 38, 127
4, 42224, Note_off_c, 1, 38, 0
4, 42240, Note_on_c, 1, 43, 127
4, 42531, Note_off_c, 1, 43, 0
4, 42600, Note_on_c, 1, 43, 127
4, 42892, Note_off_c, 1, 43, 0
4, 42960, Note_on_c, 1, 38, 127
4, 43150, Note_off_c, 1, 38, 0
4, 43200, Note_on_c, 1, 43, 127
4, 43522, Note_off_c, 1, 43, 0
4, 43560, Note_on_c, 1, 43, 127
4, 43839, Note_off_c, 1, 43, 0
4, 43920, Note_on_c, 1, 38, 127
4, 44098, Note_off_c, 1, 38, 0
4, 44160, Note_on_c, 1, 43, 127
4, 44366, Note_off_c, 1, 43, 0
4, 44520, Note_on_c, 1, 38, 127
4, 44742, Note_off_c, 1, 38, 0
4, 44880, Note_on_c, 1, 43, 116
4, 44983, Note_off_c, 1, 43, 0
4, 45120, Note_on_c, 1, 43, 127
4, 45359, Note_off_c, 1, 43, 0
4, 45480, Note_on_c, 1, 38, 127
4, 45720, Note_off_c, 1, 38, 0
4, 45840, Note_on_c, 1, 43, 126
4, 45977, Note_off_c, 1, 43, 0
4, 46080, Note_on_c, 1, 38, 127
4, 46318, Note_off_c, 1, 38, 0
4, 46440, Note_on_c, 1, 45, 127
4, 46693, Note_off_c, 1, 45, 0
4, 46800, Note_on_c, 1, 38, 127
4, 46894, Note_off_c, 1, 38, 0
4, 47040, Note_on_c, 1, 38, 127
4, 47278, Note_off_c, 1, 38, 0
4, 47400, Note_on_c, 1, 45, 127
4, 47626, Note_off_c, 1, 45, 0
4, 47760, Note_on_c, 1, 38, 127
4, 47901, Note_off_c, 1, 38, 0
4, 48000, Note_on_c, 1, 41, 127
4, 48280, Note_off_c, 1, 41, 0
4, 48360, Note_on_c, 1, 41, 127
4, 48671, Note_off_c, 1, 41, 0
4, 48720, Note_on_c, 1, 33, 127
4, 48950, Note_off_c, 1, 33, 0
4, 48960, Note_on_c, 1, 36, 127
4, 49250, Note_off_c, 1, 36, 0
4, 49320, Note_on_c, 1, 36, 127
4, 49624, Note_off_c, 1, 36, 0
4, 49680, Note_on_c, 1, 38, 127
4, 49904, Note_off_c, 1, 38, 0
4, 49920, Note_on_c, 1, 43, 127
4, 50211, Note_off_c, 1, 43, 0
4, 50280, Note_on_c, 1, 43, 127
4, 50572, Note_off_c, 1, 43, 0
4, 50640, Note_on_c, 1, 38, 127
4, 50830, Note_off_c, 1, 38, 0
4, 50880, Note_on_c, 1, 43, 127
4, 51000, Note_off_c, 1, 43, 0
4, 51840, Note_on_c, 1, 33, 127
4, 52155, Note_off_c, 1, 33, 0
4, 52200, Note_on_c, 1, 33, 126
4, 52367, Note_off_c, 1, 33, 0
4, 52560, Note_on_c, 1, 33, 127
4, 52660, Note_off_c, 1, 33, 0
4, 52800, Note_on_c, 1, 33, 127
4, 53110, Note_off_c, 1, 33, 0
4, 53160, Note_on_c, 1, 33, 127
4, 53308, Note_off_c, 1, 33, 0
4, 53520, Note_on_c, 1, 33, 127
4, 53659, Note_off_c, 1, 33, 0
4, 53760, Note_on_c, 1, 33, 127
4, 54075, Note_off_c, 1, 33, 0
4, 54120, Note_on_c, 1, 33, 126
4, 54287, Note_off_c, 1, 33, 0
4, 54480, Note_on_c, 1, 33, 127
4, 54580, Note_off_c, 1, 33, 0
4, 54720, Note_on_c, 1, 33, 127
4, 55030, Note_off_c, 1, 33, 0
4, 55080, Note_on_c, 1, 33, 127
4, 55228, Note_off_c, 1, 33, 0
4, 55440, Note_on_c, 1, 33, 127
4, 55579, Note_off_c, 1, 33, 0
4, 55680, Note_on_c, 1, 33, 127
4, 55995, Note_off_c, 1, 33, 0
4, 56040, Note_on_c, 1, 33, 126
4, 56207, Note_off_c, 1, 33, 0
4, 56400, Note_on_c, 1, 33, 127
4, 56500, Note_off_c, 1, 33, 0
4, 56640, Note_on_c, 1, 33, 127
4, 56950, Note_off_c, 1, 33, 0
4, 57000, Note_on_c, 1, 33, 127
4, 57148, Note_off_c, 1, 33, 0
4, 57360, Note_on_c, 1, 33, 127
4, 57499, Note_off_c, 1, 33, 0
4, 57600, Note_on_c, 1, 31, 127
4, 57874, Note_off_c, 1, 31, 0
4, 57960, Note_on_c, 1, 31, 127
4, 58115, Note_off_c, 1, 31, 0
4, 58320, Note_on_c, 1, 31, 127
4, 58429, Note_off_c, 1, 31, 0
4, 58560, Note_on_c, 1, 29, 127
4, 58859, Note_off_c, 1, 29, 0
4, 58920, Note_on_c, 1, 29, 127
4, 59077, Note_off_c, 1, 29, 0
4, 59280, Note_on_c, 1, 29, 127
4, 59375, Note_off_c, 1, 29, 0
4, 59520, Note_on_c, 1, 29, 127
4, 59836, Note_off_c, 1, 29, 0
4, 59880, Note_on_c, 1, 29, 127
4, 60042, Note_off_c, 1, 29, 0
4, 60240, Note_on_c, 1, 29, 127
4, 60338, Note_off_c, 1, 29, 0
4, 60480, Note_on_c, 1, 29, 127
4, 60788, Note_off_c, 1, 29, 0
4, 60840, Note_on_c, 1, 29, 127
4, 60995, Note_off_c, 1, 29, 0
4, 61200, Note_on_c, 1, 29, 127
4, 61350, Note_off_c, 1, 29, 0
4, 61440, Note_on_c, 1, 33, 127
4, 61755, Note_off_c, 1, 33, 0
4, 61800, Note_on_c, 1, 33, 126
4, 61967, Note_off_c, 1, 33, 0
4, 62160, Note_on_c, 1, 33, 127
4, 62260, Note_off_c, 1, 33, 0
4, 62400, Note_on_c, 1, 33, 127
4, 62710, Note_off_c, 1, 33, 0
4, 62760, Note_on_c, 1, 33, 127
4, 62908, Note_off_c, 1, 33, 0
4, 63120, Note_on_c, 1, 33, 127
4, 63259, Note_off_c, 1, 33, 0
4, 63360, Note_on_c, 1, 33, 127
4, 63675, Note_off_c, 1, 33, 0
4, 63720, Note_on_c, 1, 33, 126
4, 63887, Note_off_c, 1, 33, 0
4, 64080, Note_on_c, 1, 33, 127
4, 64180, Note_off_c, 1, 33, 0
4, 64320, Note_on_c, 1, 33, 127
4, 64630, Note_off_c, 1, 33, 0
4, 64680, Note_on_c, 1, 33, 127
4, 64828, Note_off_c, 1, 33, 0
4, 65040, Note_on_c, 1, 33, 127
4, 65179, Note_off_c, 1, 33, 0
4, 65280, Note_on_c, 1, 33, 127
4, 65595, Note_off_c, 1, 33, 0
4, 65640, Note_on_c, 1, 33, 126
4, 65807, Note_off_c, 1, 33, 0
4, 66000, Note_on_c, 1, 33, 127
4, 66100, Note_off_c, 1, 33, 0
4, 66240, Note_on_c, 1, 33, 127
4, 66550, Note_off_c, 1, 33, 0
4, 66600, Note_on_c, 1, 33, 127
4, 66748, Note_off_c, 1, 33, 0
4, 66960, Note_on_c, 1, 33, 127
4, 67099, Note_off_c, 1, 33, 0
4, 67200, Note_on_c, 1, 31, 127
4, 67474, Note_off_c, 1, 31, 0
4, 67560, Note_on_c, 1, 31, 127
4, 67715, Note_off_c, 1, 31, 0
4, 67920, Note_on_c, 1, 31, 127
4, 68029, Note_off_c, 1, 31, 0
4, 68160, Note_on_c, 1, 29, 127
4, 68459, Note_off_c, 1, 29, 0
4, 68520, Note_on_c, 1, 29, 127
4, 68677, Note_off_c, 1, 29, 0
4, 68880, Note_on_c, 1, 29, 127
4, 68975, Note_off_c, 1, 29, 0
4, 69120, Note_on_c, 1, 29, 127
4, 69436, Note_off_c, 1, 29, 0
4, 69480, Note_on_c, 1, 29, 127
4, 69642, Note_off_c, 1, 29, 0
4, 69840, Note_on_c, 1, 29, 127
4, 69938, Note_off_c, 1, 29, 0
4, 70080, Note_on_c, 1, 29, 127
4, 70268, Note_off_c, 1, 29, 0
4, 71040, Note_on_c, 1, 43, 127
4, 71246, Note_off_c, 1, 43, 0
4, 71400, Note_on_c, 1, 38, 127
4, 71622, Note_off_c, 1, 38, 0
4, 71760, Note_on_c, 1, 43, 116
4, 71863, Note_off_c, 1, 43, 0
4, 72000, Note_on_c, 1, 43, 127
4, 72239, Note_off_c, 1, 43, 0
4, 72360, Note_on_c, 1, 38, 127
4, 72600, Note_off_c, 1, 38, 0
4, 72720, Note_on_c, 1, 43, 126
4, 72857, Note_off_c, 1, 43, 0
4, 72960, Note_on_c, 1, 38, 127
4, 73198, Note_off_c, 1, 38, 0
4, 73320, Note_on_c, 1, 45, 127
4, 73573, Note_off_c, 1, 45, 0
4, 73680, Note_on_c, 1, 38, 127
4, 73774, Note_off_c, 1, 38, 0
4, 73920, Note_on_c, 1, 38, 127
4, 74158, Note_off_c, 1, 38, 0
4, 74280, Note_on_c, 1, 45, 127
4, 74506, Note_off_c, 1, 45, 0
4, 74640, Note_on_c, 1, 38, 127
4, 74781, Note_off_c, 1, 38, 0
4, 74880, Note_on_c, 1, 41, 127
4, 75160, Note_off_c, 1, 41, 0
4, 75240, Note_on_c, 1, 41, 127
4, 75551, Note_off_c, 1, 41, 0
4, 75600, Note_on_c, 1, 33, 127
4, 75830, Note_off_c, 1, 33, 0
4, 75840, Note_on_c, 1, 36, 127
4, 76130, Note_off_c, 1, 36, 0
4, 76200, Note_on_c, 1, 36, 127
4, 76504, Note_off_c, 1, 36, 0
4, 76560, Note_on_c, 1, 38, 127
4, 76784, Note_off_c, 1, 38, 0
4, 76800, Note_on_c, 1, 43, 127
4, 77091, Note_off_c, 1, 43, 0
4, 77160, Note_on_c, 1, 43, 127
4, 77452, Note_off_c, 1, 43, 0
4, 77520, Note_on_c, 1, 38, 127
4, 77710, Note_off_c, 1, 38, 0
4, 77760, Note_on_c, 1, 43, 127
4, 78082, Note_off_c, 1, 43, 0
4, 78120, Note_on_c, 1, 43, 127
4, 78399, Note_off_c, 1, 43, 0
4, 78480, Note_on_c, 1, 38, 127
4, 78658, Note_off_c, 1, 38, 0
4, 78720, Note_on_c, 1, 43, 127
4, 78926, Note_off_c, 1, 43, 0
4, 79080, Note_on_c, 1, 38, 127
4, 79302, Note_off_c, 1, 38, 0
4, 79440, Note_on_c, 1, 43, 116
4, 79543, Note_off_c, 1, 43, 0
4, 79680, Note_on_c, 1, 43, 127
4, 79919, Note_off_c, 1, 43, 0
4, 80040, Note_on_c, 1, 38, 127
4, 80280, Note_off_c, 1, 38, 0
4, 80400, Note_on_c, 1, 43, 126
4, 80537, Note_off_c, 1, 43, 0
4, 80640, Note_on_c, 1, 38, 127
4, 80878, Note_off_c, 1, 38, 0
4, 81000, Note_on_c, 1, 45, 127
4, 81253, Note_off_c, 1, 45, 0
4, 81360, Note_on_c, 1, 38, 127
4, 81454, Note_off_c, 1, 38, 0
4, 81600, Note_on_c, 1, 38, 127
4, 81838, Note_off_c, 1, 38, 0
4, 81960, Note_on_c, 1, 45, 127
4, 82186, Note_off_c, 1, 45, 0
4, 82320, Note_on_c, 1, 38, 127
4, 82461, Note_off_c, 1, 38, 0
4, 82560, Note_on_c, 1, 41, 127
4, 82840, Note_off_c, 1, 41, 0
4, 82920, Note_on_c, 1, 41, 127
4, 83231, Note_off_c, 1, 41, 0
4, 83280, Note_on_c, 1, 33, 127
4, 83510, Note_off_c, 1, 33, 0
4, 83520, Note_on_c, 1, 36, 127
4, 83810, Note_off_c, 1, 36, 0
4, 83880, Note_on_c, 1, 36, 127
4, 84184, Note_off_c, 1, 36, 0
4, 84240, Note_on_c, 1, 38, 127
4, 84464, Note_off_c, 1, 38, 0
4, 84480, Note_on_c, 1, 43, 127
4, 84771, Note_off_c, 1, 43, 0
4, 84840, Note_on_c, 1, 43, 127
4, 85132, Note_off_c, 1, 43, 0
4, 85200, Note_on_c, 1, 38, 127
4, 85390, Note_off_c, 1, 38, 0
4, 85440, Note_on_c, 1, 43, 127
4, 85560, Note_off_c, 1, 43, 0
4, 86400, Note_on_c, 1, 33, 127
4, 86715, Note_off_c, 1, 33, 0
4, 86760, Note_on_c, 1, 33, 126
4, 86927, Note_off_c, 1, 33, 0
4, 87120, Note_on_c, 1, 33, 127
4, 87220, Note_off_c, 1, 33, 0
4, 87360, Note_on_c, 1, 33, 127
4, 87670, Note_off_c, 1, 33, 0
4, 87720, Note_on_c, 1, 33, 127
4, 87868, Note_off_c, 1, 33, 0
4, 88080, Note_on_c, 1, 33, 127
4, 88219, Note_off_c, 1, 33, 0
4, 88320, Note_on_c, 1, 33, 127
4, 88635, Note_off_c, 1, 33, 0
4, 88680, Note_on_c, 1, 33, 126
4, 88847, Note_off_c, 1, 33, 0
4, 89040, Note_on_c, 1, 33, 127
4, 89140, Note_off_c, 1, 33, 0
4, 89280, Note_on_c, 1, 33, 127
4, 89590, Note_off_c, 1, 33, 0
4, 89640, Note_on_c, 1, 33, 127
4, 89788, Note_off_c, 1, 33, 0
4, 90000, Note_on_c, 1, 33, 127
4, 90139, Note_off_c, 1, 33, 0
4, 90240, Note_on_c, 1, 31, 127
4, 90514, Note_off_c, 1, 31, 0
4, 90600, Note_on_c, 1, 31, 127
4, 90828, Note_off_c, 1, 31, 0
4, 90960, Note_on_c, 1, 31, 126
4, 91095, Note_off_c, 1, 31, 0
4, 91200, Note_on_c, 1, 29, 127
4, 91503, Note_off_c, 1, 29, 0
4, 91560, Note_on_c, 1, 29, 127
4, 91774, Note_off_c, 1, 29, 0
4, 91920, Note_on_c, 1, 29, 127
4, 92089, Note_off_c, 1, 29, 0
4, 92160, Note_on_c, 1, 36, 127
4, 92444, Note_off_c, 1, 36, 0
4, 92520, Note_on_c, 1, 36, 127
4, 92694, Note_off_c, 1, 36, 0
4, 92880, Note_on_c, 1, 31, 127
4, 92999, Note_off_c, 1, 31, 0
4, 93120, Note_on_c, 1, 36, 127
4, 93449, Note_off_c, 1, 36, 0
4, 93480, Note_on_c, 1, 36, 127
4, 93529, Note_off_c, 1, 36, 0
4, 93600, Note_on_c, 1, 36, 127
4, 93800, Note_off_c, 1, 36, 0
4, 93840, Note_on_c, 1, 35, 127
4, 94026, Note_off_c, 1, 35, 0
4, 94080, Note_on_c, 1, 33, 127
4, 94395, Note_off_c, 1, 33, 0
4, 94440, Note_on_c, 1, 33, 126
4, 94607, Note_off_c, 1, 33, 0
4, 94800, Note_on_c, 1, 33, 127
4, 94900, Note_off_c, 1, 33, 0
4, 95040, Note_on_c, 1, 33, 127
4, 95350, Note_off_c, 1, 33, 0
4, 95400, Note_on_c, 1, 33, 127
4, 95548, Note_off_c, 1, 33, 0
4, 95760, Note_on_c, 1, 33, 127
4, 95899, Note_off_c, 1, 33, 0
4, 96000, Note_on_c, 1, 33, 127
4, 96315, Note_off_c, 1, 33, 0
4, 96360, Note_on_c, 1, 33, 126
4, 96527, Note_off_c, 1, 33, 0
4, 96720, Note_on_c, 1, 33, 127
4, 96820, Note_off_c, 1, 33, 0
4, 96960, Note_on_c, 1, 33, 127
4, 97270, Note_off_c, 1, 33, 0
4, 97320, Note_on_c, 1, 33, 127
4, 97468, Note_off_c, 1, 33, 0
4, 97680, Note_on_c, 1, 33, 127
4, 97819, Note_off_c, 1, 33, 0
4, 97920, Note_on_c, 1, 31, 127
4, 98194, Note_off_c, 1, 31, 0
4, 98280, Note_on_c, 1, 31, 127
4, 98508, Note_off_c, 1, 31, 0
4, 98640, Note_on_c, 1, 31, 126
4, 98775, Note_off_c, 1, 31, 0
4, 98880, Note_on_c, 1, 29, 127
4, 99183, Note_off_c, 1, 29, 0
4, 99240, Note_on_c, 1, 29, 127
4, 99454, Note_off_c, 1, 29, 0
4, 99600, Note_on_c, 1, 29, 127
4, 99769, Note_off_c, 1, 29, 0
4, 99840, Note_on_c, 1, 28, 127
4, 100124, Note_off_c, 1, 28, 0
4, 100200, Note_on_c, 1, 28, 127
4, 100374, Note_off_c, 1, 28, 0
4, 100560, Note_on_c, 1, 35, 127
4, 100679, Note_off_c, 1, 35, 0
4, 100800, Note_on_c, 1, 28, 127
4, 101129, Note_off_c, 1, 28, 0
4, 101160, Note_on_c, 1, 28, 127
4, 101209, Note_off_c, 1, 28, 0
4, 101280, Note_on_c, 1, 28, 127
4, 101480, Note_off_c, 1, 28, 0
4, 101520, Note_on_c, 1, 35, 127
4, 101706, Note_off_c, 1, 35, 0
4, 101760, Note_on_c, 1, 38, 127
4, 103662, Note_off_c, 1, 38, 0
4, 103680, Note_on_c, 1, 33, 127
4, 107442, Note_off_c, 1, 33, 0
4, 107520, Note_on_c, 1, 43, 127
4, 107726, Note_off_c, 1, 43, 0
4, 107880, Note_on_c, 1, 38, 127
4, 108102, Note_off_c, 1, 38, 0
4, 108240, Note_on_c, 1, 43, 116
4, 108343, Note_off_c, 1, 43, 0
4, 108480, Note_on_c, 1, 43, 127
4, 108719, Note_off_c, 1, 43, 0
4, 108840, Note_on_c, 1, 38, 127
4, 109080, Note_off_c, 1, 38, 0
4, 109200, Note_on_c, 1, 43, 126
4, 109337, Note_off_c, 1, 43, 0
4, 109440, Note_on_c, 1, 38, 127
4, 109678, Note_off_c, 1, 38, 0
4, 109800, Note_on_c, 1, 45, 127
4, 110053, Note_off_c, 1, 45, 0
4, 110160, Note_on_c, 1, 38, 127
4, 110254, Note_off_c, 1, 38, 0
4, 110400, Note_on_c, 1, 38, 127
4, 110638, Note_off_c, 1, 38, 0
4, 110760, Note_on_c, 1, 45, 127
4, 110986, Note_off_c, 1, 45, 0
4, 111120, Note_on_c, 1, 38, 127
4, 111261, Note_off_c, 1, 38, 0
4, 111360, Note_on_c, 1, 41, 127
4, 111640, Note_off_c, 1, 41, 0
4, 111720, Note_on_c, 1, 41, 127
4, 112031, Note_off_c, 1, 41, 0
4, 112080, Note_on_c, 1, 33, 127
4, 112310, Note_off_c, 1, 33, 0
4, 112320, Note_on_c, 1, 36, 127
4, 112610, Note_off_c, 1, 36, 0
4, 112680, Note_on_c, 1, 36, 127
4, 112984, Note_off_c, 1, 36, 0
4, 113040, Note_on_c, 1, 38, 127
4, 113264, Note_off_c, 1, 38, 0
4, 113280, Note_on_c, 1, 43, 127
4, 113571, Note_off_c, 1, 43, 0
4, 113640, Note_on_c, 1, 43, 127
4, 113932, Note_off_c, 1, 43, 0
4, 114000, Note_on_c, 1, 38, 127
4, 114190, Note_off_c, 1, 38, 0
4, 114240, Note_on_c, 1, 43, 127
4, 114562, Note_off_c, 1, 43, 0
4, 114600, Note_on_c, 1, 43, 127
4, 114879, Note_off_c, 1, 43, 0
4, 114960, Note_on_c, 1, 38, 127
4, 115138, Note_off_c, 1, 38, 0
4, 115200, Note_on_c, 1, 43, 127
4, 115406, Note_off_c, 1, 43, 0
4, 115560, Note_on_c, 1, 38, 127
4, 115782, Note_off_c, 1, 38, 0
4, 115920, Note_on_c, 1, 43, 116
4, 116023, Note_off_c, 1, 43, 0
4, 116160, Note_on_c, 1, 43, 127
4, 116399, Note_off_c, 1, 43, 0
4, 116520, Note_on_c, 1, 38, 127
4, 116760, Note_off_c, 1, 38, 0
4, 116880, Note_on_c, 1, 43, 126
4, 117017, Note_off_c, 1, 43, 0
4, 117120, Note_on_c, 1, 38, 127
4, 117358, Note_off_c, 1, 38, 0
4, 117480, Note_on_c, 1, 45, 127
4, 117733, Note_off_c, 1, 45, 0
4, 117840, Note_on_c, 1, 38, 127
4, 117934, Note_off_c, 1, 38, 0
4, 118080, Note_on_c, 1, 38, 127
4, 118318, Note_off_c, 1, 38, 0
4, 118440, Note_on_c, 1, 45, 127
4, 118666, Note_off_c, 1, 45, 0
4, 118800, Note_on_c, 1, 38, 127
4, 118941, Note_off_c, 1, 38, 0
4, 119040, Note_on_c, 1, 41, 127
4, 119320, Note_off_c, 1, 41, 0
4, 119400, Note_on_c, 1, 41, 127
4, 119711, Note_off_c, 1, 41, 0
4, 119760, Note_on_c, 1, 33, 127
4, 119990, Note_off_c, 1, 33, 0
4, 120000, Note_on_c, 1, 36, 127
4, 120290, Note_off_c, 1, 36, 0
4, 120360, Note_on_c, 1, 36, 127
4, 120664, Note_off_c, 1, 36, 0
4, 120720, Note_on_c, 1, 38, 127
4, 120944, Note_off_c, 1, 38, 0
4, 120960, Note_on_c, 1, 43, 127
4, 121251, Note_off_c, 1, 43, 0
4, 121320, Note_on_c, 1, 43, 127
4, 121612, Note_off_c, 1, 43, 0
4, 121680, Note_on_c, 1, 38, 127
4, 121870, Note_off_c, 1, 38, 0
4, 121920, Note_on_c, 1, 43, 127
4, 122242, Note_off_c, 1, 43, 0
4, 122280, Note_on_c, 1, 43, 127
4, 122559, Note_off_c, 1, 43, 0
4, 122640, Note_on_c, 1, 38, 127
4, 122818, Note_off_c, 1, 38, 0
4, 122880, Note_on_c, 1, 43, 127
4, 123086, Note_off_c, 1, 43, 0
4, 123240, Note_on_c, 1, 38, 127
4, 123462, Note_off_c, 1, 38, 0
4, 123600, Note_on_c, 1, 43, 116
4, 123703, Note_off_c, 1, 43, 0
4, 123840, Note_on_c, 1, 43, 127
4, 124079, Note_off_c, 1, 43, 0
4, 124200, Note_on_c, 1, 38, 127
4, 124440, Note_off_c, 1, 38, 0
4, 124560, Note_on_c, 1, 43, 126
4, 124697, Note_off_c, 1, 43, 0
4, 124800, Note_on_c, 1, 38, 127
4, 125038, Note_off_c, 1, 38, 0
4, 125160, Note_on_c, 1, 45, 127
4, 125413, Note_off_c, 1, 45, 0
4, 125520, Note_on_c, 1, 38, 127
4, 125614, Note_off_c, 1, 38, 0
4, 125760, Note_on_c, 1, 38, 127
4, 125998, Note_off_c, 1, 38, 0
4, 126120, Note_on_c, 1, 45, 127
4, 126346, Note_off_c, 1, 45, 0
4, 126480, Note_on_c, 1, 38, 127
4, 126621, Note_off_c, 1, 38, 0
4, 126720, Note_on_c, 1, 41, 127
4, 127000, Note_off_c, 1, 41, 0
4, 127080, Note_on_c, 1, 41, 127
4, 127391, Note_off_c, 1, 41, 0
4, 127440, Note_on_c, 1, 33, 127
4, 127670, Note_off_c, 1, 33, 0
4, 127680, Note_on_c, 1, 36, 127
4, 127970, Note_off_c, 1, 36, 0
4, 128040, Note_on_c, 1, 36, 127
4, 128344, Note_off_c, 1, 36, 0
4, 128400, Note_on_c, 1, 38, 127
4, 128624, Note_off_c, 1, 38, 0
4, 128640, Note_on_c, 1, 43, 127
4, 128931, Note_off_c, 1, 43, 0
4, 129000, Note_on_c, 1, 43, 127
4, 129292, Note_off_c, 1, 43, 0
4, 129360, Note_on_c, 1, 38, 127
4, 129550, Note_off_c, 1, 38, 0
4, 129600, Note_on_c, 1, 43, 127
4, 129922, Note_off_c, 1, 43, 0
4, 129960, Note_on_c, 1, 43, 127
4, 130239, Note_off_c, 1, 43, 0
4, 130320, Note_on_c, 1, 38, 127
4, 130498, Note_off_c, 1, 38, 0
4, 130560, Note_on_c, 1, 43, 127
4, 130766, Note_off_c, 1, 43, 0
4, 130920, Note_on_c, 1, 38, 127
4, 131142, Note_off_c, 1, 38, 0
4, 131280, Note_on_c, 1, 43, 116
4, 131383, Note_off_c, 1, 43, 0
4, 131520, Note_on_c, 1, 43, 127
4, 131759, Note_off_c, 1, 43, 0
4, 131880, Note_on_c, 1, 38, 127
4, 132120, Note_off_c, 1, 38, 0
4, 132240, Note_on_c, 1, 43, 126
4, 132377, Note_off_c, 1, 43, 0
4, 132480, Note_on_c, 1, 38, 127
4, 132718, Note_off_c, 1, 38, 0
4, 132840, Note_on_c, 1, 45, 127
4, 133093, Note_off_c, 1, 45, 0
4, 133200, Note_on_c, 1, 38, 127
4, 133294, Note_off_c, 1, 38, 0
4, 133440, Note_on_c, 1, 38, 127
4, 133678, Note_off_c, 1, 38, 0
4, 133800, Note_on_c, 1, 45, 127
4, 134026, Note_off_c, 1, 45, 0
4, 134160, Note_on_c, 1, 38, 127
4, 134301, Note_off_c, 1, 38, 0
4, 134400, Note_on_c, 1, 41, 127
4, 134680, Note_off_c, 1, 41, 0
4, 134760, Note_on_c, 1, 41, 127
4, 135071, Note_off_c, 1, 41, 0
4, 135120, Note_on_c, 1, 33, 127
4, 135350, Note_off_c, 1, 33, 0
4, 135360, Note_on_c, 1, 36, 127
4, 135650, Note_off_c, 1, 36, 0
4, 135720, Note_on_c, 1, 36, 127
4, 136024, Note_off_c, 1, 36, 0
4, 136080, Note_on_c, 1, 38, 127
4, 136304, Note_off_c, 1, 38, 0
4, 136320, Note_on_c, 1, 43, 127
4, 136611, Note_off_c, 1, 43, 0
4, 136680, Note_on_c, 1, 43, 127
4, 136972, Note_off_c, 1, 43, 0
4, 137040, Note_on_c, 1, 38, 127
4, 137230, Note_off_c, 1, 38, 0
4, 137280, Note_on_c, 1, 43, 127
4, 137400, Note_off_c, 1, 43, 0
4, 138240, Note_on_c, 1, 43, 127
4, 138446, Note_off_c, 1, 43, 0
4, 138600, Note_on_c, 1, 38, 127
4, 138822, Note_off_c, 1, 38, 0
4, 138960, Note_on_c, 1, 43, 116
4, 139063, Note_off_c, 1, 43, 0
4, 139200, Note_on_c, 1, 43, 127
4, 139439, Note_off_c, 1, 43, 0
4, 139560, Note_on_c, 1, 38, 127
4, 139800, Note_off_c, 1, 38, 0
4, 139920, Note_on_c, 1, 43, 126
4, 140057, Note_off_c, 1, 43, 0
4, 140160, Note_on_c, 1, 38, 127
4, 140398, Note_off_c, 1, 38, 0
4, 140520, Note_on_c, 1, 45, 127
4, 140773, Note_off_c, 1, 45, 0
4, 140880, Note_on_c, 1, 38, 127
4, 140974, Note_off_c, 1, 38, 0
4, 141120, Note_on_c, 1, 38, 127
4, 141358, Note_off_c, 1, 38, 0
4, 141480, Note_on_c, 1, 45, 127
4, 141706, Note_off_c, 1, 45, 0
4, 141840, Note_on_c, 1, 38, 127
4, 141981, Note_off_c, 1, 38, 0
4, 142080, Note_on_c, 1, 41, 127
4, 142360, Note_off_c, 1, 41, 0
4, 142440, Note_on_c, 1, 41, 127
4, 142751, Note_off_c, 1, 41, 0
4, 142800, Note_on_c, 1, 33, 127
4, 143030, Note_off_c, 1, 33, 0
4, 143040, Note_on_c, 1, 36, 127
4, 143330, Note_off_c, 1, 36, 0
4, 143400, Note_on_c, 1, 36, 127
4, 143704, Note_off_c, 1, 36, 0
4, 143760, Note_on_c, 1, 38, 127
4, 143984, Note_off_c, 1, 38, 0
4, 144000, Note_on_c, 1, 43, 127
4, 144291, Note_off_c, 1, 43, 0
4, 144360, Note_on_c, 1, 43, 127
4, 144652, Note_off_c, 1, 43, 0
4, 144720, Note_on_c, 1, 38, 127
4, 144910, Note_off_c, 1, 38, 0
4, 144960, Note_on_c, 1, 43, 127
4, 145282, Note_off_c, 1, 43, 0
4, 145320, Note_on_c, 1, 43, 127
4, 145599, Note_off_c, 1, 43, 0
4, 145680, Note_on_c, 1, 38, 127
4, 145858, Note_off_c, 1, 38, 0
4, 145920, Note_on_c, 1, 43, 127
4, 146126, Note_off_c, 1, 43, 0
4, 146280, Note_on_c, 1, 38, 127
4, 146502, Note_off_c, 1, 38, 0
4, 146640, Note_on_c, 1, 43, 116
4, 146743, Note_off_c, 1, 43, 0
4, 146880, Note_on_c, 1, 43, 127
4, 147119, Note_off_c, 1, 43, 0
4, 147240, Note_on_c, 1, 38, 127
4, 147480, Note_off_c, 1, 38, 0
4, 147600, Note_on_c, 1, 43, 126
4, 147737, Note_off_c, 1, 43, 0
4, 147840, Note_on_c, 1, 38, 127
4, 148078, Note_off_c, 1, 38, 0
4, 148200, Note_on_c, 1, 45, 127
4, 148453, Note_off_c, 1, 45, 0
4, 148560, Note_on_c, 1, 38, 127
4, 148654, Note_off_c, 1, 38, 0
4, 148800, Note_on_c, 1, 38, 127
4, 149038, Note_off_c, 1, 38, 0
4, 149160, Note_on_c, 1, 45, 127
4, 149386, Note_off_c, 1, 45, 0
4, 149520, Note_on_c, 1, 38, 127
4, 149661, Note_off_c, 1, 38, 0
4, 149760, Note_on_c, 1, 41, 127
4, 150040, Note_off_c, 1, 41, 0
4, 150120, Note_on_c, 1, 41, 127
4, 150431, Note_off_c, 1, 41, 0
4, 150480, Note_on_c, 1, 33, 127
4, 150710, Note_off_c, 1, 33, 0
4, 150720, Note_on_c, 1, 36, 127
4, 151010, Note_off_c, 1, 36, 0
4, 151080, Note_on_c, 1, 36, 127
4, 151384, Note_off_c, 1, 36, 0
4, 151440, Note_on_c, 1, 38, 127
4, 151664, Note_off_c, 1, 38, 0
4, 151680, Note_on_c, 1, 43, 127
4, 151971, Note_off_c, 1, 43, 0
4, 152040, Note_on_c, 1, 43, 127
4, 152332, Note_off_c, 1, 43, 0
4, 152400, Note_on_c, 1, 38, 127
4, 152590, Note_off_c, 1, 38, 0
4, 152640, Note_on_c, 1, 43, 127
4, 152962, Note_off_c, 1, 43, 0
4, 153000, Note_on_c, 1, 43, 127
4, 153279, Note_off_c, 1, 43, 0
4, 153360, Note_on_c, 1, 38, 127
4, 153538, Note_off_c, 1, 38, 0
4, 153600, Note_on_c, 1, 43, 127
4, 153806, Note_off_c, 1, 43, 0
4, 153960, Note_on_c, 1, 38, 127
4, 154182, Note_off_c, 1, 38, 0
4, 154320, Note_on_c, 1, 43, 116
4, 154423, Note_off_c, 1, 43, 0
4, 154560, Note_on_c, 1, 43, 127
4, 154799, Note_off_c, 1, 43, 0
4, 154920, Note_on_c, 1, 38, 127
4, 155160, Note_off_c, 1, 38, 0
4, 155280, Note_on_c, 1, 43, 126
4, 155417, Note_off_c, 1, 43, 0
4, 155520, Note_on_c, 1, 38, 127
4, 155758, Note_off_c, 1, 38, 0
4, 155880, Note_on_c, 1, 45, 127
4, 156133, Note_off_c, 1, 45, 0
4, 156240, Note_on_c, 1, 38, 127
4, 156334, Note_off_c, 1, 38, 0
4, 156480, Note_on_c, 1, 38, 127
4, 156718, Note_off_c, 1, 38, 0
4, 156840, Note_on_c, 1, 45, 127
4, 157066, Note_off_c, 1, 45, 0
4, 157200, Note_on_c, 1, 38, 127
4, 157341, Note_off_c, 1, 38, 0
4, 157440, Note_on_c, 1, 41, 127
4, 157720, Note_off_c, 1, 41, 0
4, 157800, Note_on_c, 1, 41, 127
4, 158111, Note_off_c, 1, 41, 0
4, 158160, Note_on_c, 1, 33, 127
4, 158390, Note_off_c, 1, 33, 0
4, 158400, Note_on_c, 1, 36, 127
4, 158690, Note_off_c, 1, 36, 0
4, 158760, Note_on_c, 1, 36, 127
4, 159064, Note_off_c, 1, 36, 0
4, 159120, Note_on_c, 1, 38, 127
4, 159344, Note_off_c, 1, 38, 0
4, 159360, Note_on_c, 1, 43, 127
4, 159651, Note_off_c, 1, 43, 0
4, 159720, Note_on_c, 1, 43, 127
4, 160012, Note_off_c, 1, 43, 0
4, 160080, Note_on_c, 1, 38, 127
4, 160270, Note_off_c, 1, 38, 0
4, 160320, Note_on_c, 1, 43, 127
4, 160642, Note_off_c, 1, 43, 0
4, 160680, Note_on_c, 1, 43, 127
4, 160959, Note_off_c, 1, 43, 0
4, 161040, Note_on_c, 1, 38, 127
4, 161218, Note_off_c, 1, 38, 0
4, 161280, Note_on_c, 1, 43, 127
4, 161486, Note_off_c, 1, 43, 0
4, 161640, Note_on_c, 1, 38, 127
4, 161862, Note_off_c, 1, 38, 0
4, 162000, Note_on_c, 1, 43, 116
4, 162103, Note_off_c, 1, 43, 0
4, 162240, Note_on_c, 1, 43, 127
4, 162479, Note_off_c, 1, 43, 0
4, 162600, Note_on_c, 1, 38, 127
4, 162840, Note_off_c, 1, 38, 0
4, 162960, Note_on_c, 1, 43, 126
4, 163097, Note_off_c, 1, 43, 0
4, 163200, Note_on_c, 1, 38, 127
4, 163438, Note_off_c, 1, 38, 0
4, 163560, Note_on_c, 1, 45, 127
4, 163813, Note_off_c, 1, 45, 0
4, 163920, Note_on_c, 1, 38, 127
4, 164014, Note_off_c, 1, 38, 0
4, 164160, Note_on_c, 1, 38, 127
4, 164398, Note_off_c, 1, 38, 0
4, 164520, Note_on_c, 1, 45, 127
4, 164746, Note_off_c, 1, 45, 0
4, 164880, Note_on_c, 1, 38, 127
4, 165021, Note_off_c, 1, 38, 0
4, 165120, Note_on_c, 1, 41, 127
4, 165400, Note_off_c, 1, 41, 0
4, 165480, Note_on_c, 1, 41, 127
4, 165791, Note_off_c, 1, 41, 0
4, 165840, Note_on_c, 1, 33, 127
4, 166070, Note_off_c, 1, 33, 0
4, 166080, Note_on_c, 1, 36, 127
4, 166370, Note_off_c, 1, 36, 0
4, 166440, Note_on_c, 1, 36, 127
4, 166744, Note_off_c, 1, 36, 0
4, 166800, Note_on_c, 1, 38, 127
4, 167024, Note_off_c, 1, 38, 0
4, 167040, Note_on_c, 1, 31, 127
4, 167335, Note_off_c, 1, 31, 0
4, 167400, Note_on_c, 1, 31, 127
4, 167760, Note_on_c, 1, 26, 127
4, 167762, Note_off_c, 1, 31, 0
4, 168000, Note_on_c, 1, 33, 126
4, 168017, Note_off_c, 1, 26, 0
4, 168289, Note_off_c, 1, 33, 0
4, 168360, Note_on_c, 1, 31, 127
4, 168651, Note_off_c, 1, 31, 0
4, 170641, Control_c, 1, 7, 100
4, 170641, End_track
5, 0, Start_track
5, 0, Title_t, "\000"
5, 0, Program_c, 2, 24
5, 0, Control_c, 2, 7, 100
5, 0, Control_c, 2, 10, 47
5, 0, Control_c, 2, 91, 67
5, 0, Control_c, 2, 93, 10
5, 590, Control_c, 2, 11, 127
5, 5427, Note_on_c, 2, 76, 91
5, 5513, Note_off_c, 2, 76, 0
5, 5606, Note_on_c, 2, 76, 118
5, 5688, Note_off_c, 2, 76, 0
5, 5775, Note_on_c, 2, 76, 125
5, 5880, Pitch_bend_c, 2, 8912
5, 5896, Pitch_bend_c, 2, 9520
5, 5912, Pitch_bend_c, 2, 9312
5, 5929, Pitch_bend_c, 2, 8192
5, 5970, Note_on_c, 2, 74, 113
5, 5976, Note_off_c, 2, 76, 0
5, 6063, Note_off_c, 2, 74, 0
5, 6124, Note_on_c, 2, 72, 109
5, 6220, Note_off_c, 2, 72, 0
5, 6280, Note_on_c, 2, 74, 113
5, 6391, Pitch_bend_c, 2, 8288
5, 6407, Pitch_bend_c, 2, 9088
5, 6424, Pitch_bend_c, 2, 9520
5, 6440, Pitch_bend_c, 2, 9456
5, 6457, Pitch_bend_c, 2, 8880
5, 6473, Pitch_bend_c, 2, 8192
5, 6596, Pitch_bend_c, 2, 8432
5, 6613, Pitch_bend_c, 2, 8192
5, 6721, Pitch_bend_c, 2, 8880
5, 6742, Pitch_bend_c, 2, 9344
5, 6759, Pitch_bend_c, 2, 8880
5, 6775, Pitch_bend_c, 2, 8192
5, 6857, Pitch_bend_c, 2, 9232
5, 6874, Pitch_bend_c, 2, 9376
5, 6890, Pitch_bend_c, 2, 8976
5, 6907, Pitch_bend_c, 2, 8192
5, 6982, Pitch_bend_c, 2, 8400
5, 6999, Pitch_bend_c, 2, 8432
5, 7015, Pitch_bend_c, 2, 8192
5, 7353, Note_off_c, 2, 74, 0
5, 8610, Note_on_c, 2, 62, 109
5, 8635, Note_on_c, 2, 67, 115
5, 8656, Note_on_c, 2, 71, 118
5, 8687, Note_off_c, 2, 62, 0
5, 8700, Note_off_c, 2, 67, 0
5, 8850, Note_off_c, 2, 71, 0
5, 8895, Note_on_c, 2, 72, 111
5, 8979, Note_off_c, 2, 72, 0
5, 9016, Note_on_c, 2, 71, 118
5, 9190, Note_off_c, 2, 71, 0
5, 9230, Note_on_c, 2, 72, 110
5, 9304, Note_off_c, 2, 72, 0
5, 9340, Note_on_c, 2, 71, 117
5, 9445, Note_off_c, 2, 71, 0
5, 9472, Note_on_c, 2, 69, 113
5, 9561, Note_off_c, 2, 69, 0
5, 9597, Note_on_c, 2, 71, 117
5, 9758, Pitch_bend_c, 2, 9056
5, 9774, Pitch_bend_c, 2, 9568
5, 9791, Pitch_bend_c, 2, 9632
5, 9807, Pitch_bend_c, 2, 9056
5, 9824, Pitch_bend_c, 2, 8192
5, 9914, Pitch_bend_c, 2, 8368
5, 9930, Pitch_bend_c, 2, 8800
5, 9947, Pitch_bend_c, 2, 9056
5, 9973, Pitch_bend_c, 2, 8976
5, 9990, Pitch_bend_c, 2, 8192
5, 10064, Pitch_bend_c, 2, 9056
5, 10080, Pitch_bend_c, 2, 9744
5, 10090, Pitch_bend_c, 2, 9920
5, 10106, Pitch_bend_c, 2, 9744
5, 10123, Pitch_bend_c, 2, 9056
5, 10139, Pitch_bend_c, 2, 8192
5, 10223, Pitch_bend_c, 2, 8800
5, 10247, Pitch_bend_c, 2, 8768
5, 10272, Pitch_bend_c, 2, 8192
5, 11134, Note_off_c, 2, 71, 0
5, 11280, Note_on_c, 2, 69, 122
5, 11387, Note_off_c, 2, 69, 0
5, 11400, Note_on_c, 2, 67, 110
5, 11508, Note_off_c, 2, 67, 0
5, 11520, Note_on_c, 2, 69, 109
5, 11728, Pitch_bend_c, 2, 8400
5, 11744, Pitch_bend_c, 2, 8976
5, 11760, Pitch_bend_c, 2, 9344
5, 11785, Pitch_bend_c, 2, 9424
5, 11801, Pitch_bend_c, 2, 9232
5, 11818, Pitch_bend_c, 2, 8192
5, 11907, Pitch_bend_c, 2, 8656
5, 11924, Pitch_bend_c, 2, 9120
5, 11941, Pitch_bend_c, 2, 9376
5, 11957, Pitch_bend_c, 2, 9344
5, 11973, Pitch_bend_c, 2, 9088
5, 11990, Pitch_bend_c, 2, 8192
5, 12071, Pitch_bend_c, 2, 8576
5, 12087, Pitch_bend_c, 2, 9168
5, 12104, Pitch_bend_c, 2, 9488
5, 12120, Pitch_bend_c, 2, 9424
5, 12137, Pitch_bend_c, 2, 8976
5, 12153, Pitch_bend_c, 2, 8192
5, 12235, Pitch_bend_c, 2, 8288
5, 12260, Pitch_bend_c, 2, 9456
5, 12276, Pitch_bend_c, 2, 9632
5, 12293, Pitch_bend_c, 2, 9568
5, 12309, Pitch_bend_c, 2, 9024
5, 12326, Pitch_bend_c, 2, 8192
5, 12399, Pitch_bend_c, 2, 9056
5, 12416, Pitch_bend_c, 2, 10000
5, 12432, Pitch_bend_c, 2, 10256
5, 12449, Pitch_bend_c, 2, 9968
5, 12465, Pitch_bend_c, 2, 9264
5, 12482, Pitch_bend_c, 2, 8192
5, 12860, Note_off_c, 2, 69, 0
5, 13194, Note_on_c, 2, 64, 120
5, 13386, Pitch_bend_c, 2, 7056
5, 13390, Note_off_c, 2, 64, 0
5, 13405, Pitch_bend_c, 2, 4992
5, 13422, Pitch_bend_c, 2, 4432
5, 13429, Note_on_c, 2, 65, 119
5, 13438, Pitch_bend_c, 2, 4320
5, 13475, Pitch_bend_c, 2, 4848
5, 13486, Pitch_bend_c, 2, 5168
5, 13502, Pitch_bend_c, 2, 6800
5, 13520, Pitch_bend_c, 2, 8192
5, 14076, Note_off_c, 2, 65, 0
5, 14152, Note_on_c, 2, 65, 122
5, 14188, Pitch_bend_c, 2, 11776
5, 14204, Pitch_bend_c, 2, 16383
5, 14386, Pitch_bend_c, 2, 8192
5, 14414, Note_off_c, 2, 65, 0
5, 14423, Note_on_c, 2, 64, 119
5, 15022, Note_off_c, 2, 64, 0
5, 15123, Note_on_c, 2, 64, 122
5, 15257, Note_off_c, 2, 64, 0
5, 15267, Note_on_c, 2, 65, 110
5, 15298, Note_on_c, 2, 64, 109
5, 15308, Note_off_c, 2, 65, 0
5, 15357, Note_on_c, 2, 62, 113
5, 15371, Note_off_c, 2, 64, 0
5, 15600, Pitch_bend_c, 2, 9568
5, 15617, Pitch_bend_c, 2, 10832
5, 15633, Pitch_bend_c, 2, 11968
5, 15649, Pitch_bend_c, 2, 12400
5, 15666, Pitch_bend_c, 2, 12192
5, 15683, Pitch_bend_c, 2, 11360
5, 15700, Pitch_bend_c, 2, 9792
5, 15716, Pitch_bend_c, 2, 8192
5, 15788, Pitch_bend_c, 2, 8496
5, 15805, Pitch_bend_c, 2, 9600
5, 15821, Pitch_bend_c, 2, 10608
5, 15838, Pitch_bend_c, 2, 10800
5, 15863, Pitch_bend_c, 2, 10016
5, 15879, Pitch_bend_c, 2, 8912
5, 15896, Pitch_bend_c, 2, 8192
5, 15970, Pitch_bend_c, 2, 8976
5, 15986, Pitch_bend_c, 2, 9568
5, 16011, Pitch_bend_c, 2, 9408
5, 16027, Pitch_bend_c, 2, 9008
5, 16044, Pitch_bend_c, 2, 8192
5, 16116, Pitch_bend_c, 2, 8336
5, 16132, Pitch_bend_c, 2, 9136
5, 16149, Pitch_bend_c, 2, 9632
5, 16165, Pitch_bend_c, 2, 9696
5, 16182, Pitch_bend_c, 2, 9408
5, 16198, Pitch_bend_c, 2, 8912
5, 16214, Pitch_bend_c, 2, 8192
5, 16272, Pitch_bend_c, 2, 8912
5, 16288, Pitch_bend_c, 2, 9664
5, 16305, Pitch_bend_c, 2, 9696
5, 16321, Pitch_bend_c, 2, 9632
5, 16332, Pitch_bend_c, 2, 9312
5, 16348, Pitch_bend_c, 2, 8528
5, 16365, Pitch_bend_c, 2, 8192
5, 16406, Pitch_bend_c, 2, 8336
5, 16422, Pitch_bend_c, 2, 9472
5, 16439, Pitch_bend_c, 2, 10144
5, 16455, Pitch_bend_c, 2, 10144
5, 16472, Pitch_bend_c, 2, 9696
5, 16488, Pitch_bend_c, 2, 9104
5, 16504, Pitch_bend_c, 2, 8192
5, 16562, Pitch_bend_c, 2, 9664
5, 16578, Pitch_bend_c, 2, 11152
5, 16595, Pitch_bend_c, 2, 11936
5, 16611, Pitch_bend_c, 2, 11392
5, 16628, Pitch_bend_c, 2, 10256
5, 16644, Pitch_bend_c, 2, 8192
5, 16680, Note_on_c, 2, 60, 119
5, 16762, Note_off_c, 2, 60, 0
5, 16800, Note_on_c, 2, 59, 95
5, 16889, Note_off_c, 2, 59, 0
5, 16920, Note_on_c, 2, 57, 93
5, 17006, Note_off_c, 2, 57, 0
5, 17034, Note_off_c, 2, 62, 0
5, 17040, Note_on_c, 2, 55, 102
5, 17160, Note_on_c, 2, 52, 108
5, 17164, Note_off_c, 2, 55, 0
5, 17257, Note_off_c, 2, 52, 0
5, 17280, Note_on_c, 2, 55, 120
5, 17423, Pitch_bend_c, 2, 12000
5, 17440, Pitch_bend_c, 2, 14896
5, 17456, Pitch_bend_c, 2, 16383
5, 17832, Pitch_bend_c, 2, 15968
5, 17849, Pitch_bend_c, 2, 15520
5, 17865, Pitch_bend_c, 2, 15360
5, 17881, Pitch_bend_c, 2, 15392
5, 17913, Pitch_bend_c, 2, 15360
5, 17929, Pitch_bend_c, 2, 15520
5, 17945, Pitch_bend_c, 2, 16383
5, 18053, Pitch_bend_c, 2, 15216
5, 18069, Pitch_bend_c, 2, 14272
5, 18086, Pitch_bend_c, 2, 14336
5, 18102, Pitch_bend_c, 2, 15024
5, 18119, Pitch_bend_c, 2, 16064
5, 18135, Pitch_bend_c, 2, 16383
5, 18225, Pitch_bend_c, 2, 14800
5, 18241, Pitch_bend_c, 2, 13440
5, 18269, Pitch_bend_c, 2, 13824
5, 18285, Pitch_bend_c, 2, 15184
5, 18302, Pitch_bend_c, 2, 16383
5, 18383, Pitch_bend_c, 2, 16160
5, 18400, Pitch_bend_c, 2, 14272
5, 18416, Pitch_bend_c, 2, 13920
5, 18432, Pitch_bend_c, 2, 13920
5, 18449, Pitch_bend_c, 2, 15024
5, 18465, Pitch_bend_c, 2, 16383
5, 18968, Note_off_c, 2, 55, 0
5, 19095, Pitch_bend_c, 2, 14832
5, 19111, Pitch_bend_c, 2, 8192
5, 25462, Note_on_c, 2, 64, 122
5, 25596, Note_off_c, 2, 64, 0
5, 25673, Note_on_c, 2, 65, 119
5, 25760, Note_off_c, 2, 65, 0
5, 25801, Note_on_c, 2, 64, 122
5, 26156, Pitch_bend_c, 2, 8496
5, 26187, Pitch_bend_c, 2, 8192
5, 26278, Pitch_bend_c, 2, 8592
5, 26307, Pitch_bend_c, 2, 8192
5, 26493, Note_off_c, 2, 64, 0
5, 26522, Note_on_c, 2, 60, 122
5, 26593, Note_off_c, 2, 60, 0
5, 26655, Note_on_c, 2, 59, 120
5, 26790, Note_off_c, 2, 59, 0
5, 26793, Note_on_c, 2, 60, 117
5, 26836, Note_on_c, 2, 59, 116
5, 26845, Note_off_c, 2, 60, 0
5, 26905, Note_on_c, 2, 57, 111
5, 26906, Note_off_c, 2, 59, 0
5, 27210, Pitch_bend_c, 2, 8720
5, 27226, Pitch_bend_c, 2, 8976
5, 27252, Pitch_bend_c, 2, 9072
5, 27268, Pitch_bend_c, 2, 8656
5, 27285, Pitch_bend_c, 2, 8192
5, 27580, Pitch_bend_c, 2, 8720
5, 27596, Pitch_bend_c, 2, 8592
5, 27620, Pitch_bend_c, 2, 8192
5, 27751, Pitch_bend_c, 2, 8496
5, 27767, Pitch_bend_c, 2, 8528
5, 27784, Pitch_bend_c, 2, 8496
5, 27800, Pitch_bend_c, 2, 8192
5, 27901, Pitch_bend_c, 2, 8240
5, 27917, Pitch_bend_c, 2, 8304
5, 27933, Pitch_bend_c, 2, 8432
5, 27950, Pitch_bend_c, 2, 8192
5, 28630, Note_off_c, 2, 57, 0
5, 32160, Note_on_c, 2, 55, 118
5, 32263, Note_off_c, 2, 55, 0
5, 32280, Note_on_c, 2, 57, 111
5, 32382, Note_off_c, 2, 57, 0
5, 32400, Note_on_c, 2, 55, 113
5, 32468, Note_off_c, 2, 55, 0
5, 32520, Note_on_c, 2, 55, 113
5, 32640, Note_on_c, 2, 65, 126
5, 32642, Note_off_c, 2, 55, 0
5, 32689, Pitch_bend_c, 2, 10256
5, 32706, Pitch_bend_c, 2, 16383
5, 33928, Note_off_c, 2, 65, 0
5, 33938, Pitch_bend_c, 2, 13104
5, 33955, Pitch_bend_c, 2, 8192
5, 34428, Note_on_c, 2, 67, 107
5, 34499, Note_off_c, 2, 67, 0
5, 34598, Note_on_c, 2, 67, 122
5, 34753, Note_off_c, 2, 67, 0
5, 34756, Note_on_c, 2, 65, 110
5, 34918, Note_on_c, 2, 64, 102
5, 34919, Note_off_c, 2, 65, 0
5, 35027, Note_off_c, 2, 64, 0
5, 35067, Note_on_c, 2, 64, 105
5, 35144, Note_on_c, 2, 65, 113
5, 35150, Note_off_c, 2, 64, 0
5, 35473, Note_off_c, 2, 65, 0
5, 43569, Note_on_c, 2, 62, 125
5, 43657, Note_off_c, 2, 62, 0
5, 43685, Note_on_c, 2, 67, 125
5, 43903, Note_off_c, 2, 67, 0
5, 43931, Note_on_c, 2, 69, 124
5, 44103, Note_off_c, 2, 69, 0
5, 44125, Pitch_bend_c, 2, 6656
5, 44142, Pitch_bend_c, 2, 2880
5, 44156, Note_on_c, 2, 71, 125
5, 44158, Pitch_bend_c, 2, 0
5, 44180, Pitch_bend_c, 2, 1296
5, 44197, Pitch_bend_c, 2, 5248
5, 44213, Pitch_bend_c, 2, 8192
5, 45647, Note_off_c, 2, 71, 0
5, 60022, Note_on_c, 2, 64, 122
5, 60156, Note_off_c, 2, 64, 0
5, 60233, Note_on_c, 2, 65, 119
5, 60320, Note_off_c, 2, 65, 0
5, 60361, Note_on_c, 2, 64, 122
5, 60716, Pitch_bend_c, 2, 8496
5, 60747, Pitch_bend_c, 2, 8192
5, 60838, Pitch_bend_c, 2, 8592
5, 60867, Pitch_bend_c, 2, 8192
5, 61053, Note_off_c, 2, 64, 0
5, 61082, Note_on_c, 2, 60, 122
5, 61153, Note_off_c, 2, 60, 0
5, 61215, Note_on_c, 2, 59, 120
5, 61350, Note_off_c, 2, 59, 0
5, 61353, Note_on_c, 2, 60, 117
5, 61396, Note_on_c, 2, 59, 116
5, 61405, Note_off_c, 2, 60, 0
5, 61465, Note_on_c, 2, 57, 111
5, 61466, Note_off_c, 2, 59, 0
5, 61770, Pitch_bend_c, 2, 8720
5, 61786, Pitch_bend_c, 2, 8976
5, 61812, Pitch_bend_c, 2, 9072
5, 61828, Pitch_bend_c, 2, 8656
5, 61845, Pitch_bend_c, 2, 8192
5, 62140, Pitch_bend_c, 2, 8720
5, 62156, Pitch_bend_c, 2, 8592
5, 62180, Pitch_bend_c, 2, 8192
5, 62311, Pitch_bend_c, 2, 8496
5, 62327, Pitch_bend_c, 2, 8528
5, 62344, Pitch_bend_c, 2, 8496
5, 62360, Pitch_bend_c, 2, 8192
5, 62461, Pitch_bend_c, 2, 8240
5, 62477, Pitch_bend_c, 2, 8304
5, 62493, Pitch_bend_c, 2, 8432
5, 62510, Pitch_bend_c, 2, 8192
5, 63190, Note_off_c, 2, 57, 0
5, 66720, Note_on_c, 2, 55, 118
5, 66823, Note_off_c, 2, 55, 0
5, 66840, Note_on_c, 2, 57, 111
5, 66942, Note_off_c, 2, 57, 0
5, 66960, Note_on_c, 2, 55, 113
5, 67028, Note_off_c, 2, 55, 0
5, 67080, Note_on_c, 2, 55, 113
5, 67200, Note_on_c, 2, 65, 126
5, 67202, Note_off_c, 2, 55, 0
5, 67249, Pitch_bend_c, 2, 10256
5, 67266, Pitch_bend_c, 2, 16383
5, 68488, Note_off_c, 2, 65, 0
5, 68498, Pitch_bend_c, 2, 13104
5, 68515, Pitch_bend_c, 2, 8192
5, 68988, Note_on_c, 2, 67, 107
5, 69059, Note_off_c, 2, 67, 0
5, 69158, Note_on_c, 2, 67, 122
5, 69313, Note_off_c, 2, 67, 0
5, 69316, Note_on_c, 2, 65, 110
5, 69478, Note_on_c, 2, 64, 102
5, 69479, Note_off_c, 2, 65, 0
5, 69587, Note_off_c, 2, 64, 0
5, 69627, Note_on_c, 2, 64, 105
5, 69704, Note_on_c, 2, 65, 113
5, 69710, Note_off_c, 2, 64, 0
5, 70033, Note_off_c, 2, 65, 0
5, 78129, Note_on_c, 2, 62, 125
5, 78217, Note_off_c, 2, 62, 0
5, 78245, Note_on_c, 2, 67, 125
5, 78463, Note_off_c, 2, 67, 0
5, 78491, Note_on_c, 2, 69, 124
5, 78663, Note_off_c, 2, 69, 0
5, 78685, Pitch_bend_c, 2, 6656
5, 78702, Pitch_bend_c, 2, 2880
5, 78716, Note_on_c, 2, 71, 125
5, 78718, Pitch_bend_c, 2, 0
5, 78740, Pitch_bend_c, 2, 1296
5, 78757, Pitch_bend_c, 2, 5248
5, 78773, Pitch_bend_c, 2, 8192
5, 80207, Note_off_c, 2, 71, 0
5, 93480, Note_on_c, 2, 43, 127
5, 93592, Note_off_c, 2, 43, 0
5, 93600, Note_on_c, 2, 48, 127
5, 93822, Note_off_c, 2, 48, 0
5, 93840, Note_on_c, 2, 47, 127
5, 94067, Note_off_c, 2, 47, 0
5, 94080, Note_on_c, 2, 45, 127
5, 94328, Pitch_bend_c, 2, 8272
5, 94345, Pitch_bend_c, 2, 9312
5, 94361, Pitch_bend_c, 2, 10208
5, 94378, Pitch_bend_c, 2, 10544
5, 94394, Pitch_bend_c, 2, 10240
5, 94411, Pitch_bend_c, 2, 9472
5, 94428, Pitch_bend_c, 2, 8192
5, 94525, Pitch_bend_c, 2, 9104
5, 94541, Pitch_bend_c, 2, 9856
5, 94558, Pitch_bend_c, 2, 10288
5, 94575, Pitch_bend_c, 2, 10320
5, 94591, Pitch_bend_c, 2, 9664
5, 94608, Pitch_bend_c, 2, 8720
5, 94624, Pitch_bend_c, 2, 8192
5, 94665, Pitch_bend_c, 2, 8208
5, 94682, Pitch_bend_c, 2, 8944
5, 94698, Pitch_bend_c, 2, 9312
5, 94714, Pitch_bend_c, 2, 9568
5, 94731, Pitch_bend_c, 2, 9312
5, 94747, Pitch_bend_c, 2, 9072
5, 94764, Pitch_bend_c, 2, 8784
5, 94780, Pitch_bend_c, 2, 8528
5, 94797, Pitch_bend_c, 2, 8192
5, 95594, Note_off_c, 2, 45, 0
5, 101520, Note_on_c, 2, 67, 118
5, 101595, Note_off_c, 2, 67, 0
5, 101760, Note_on_c, 2, 67, 122
5, 101863, Pitch_bend_c, 2, 16383
5, 103142, Note_off_c, 2, 67, 0
5, 103217, Pitch_bend_c, 2, 14848
5, 103234, Pitch_bend_c, 2, 11184
5, 103250, Pitch_bend_c, 2, 8192
5, 106462, Note_on_c, 2, 45, 103
5, 106501, Note_on_c, 2, 48, 116
5, 106528, Note_off_c, 2, 45, 0
5, 106570, Note_on_c, 2, 52, 113
5, 106591, Note_off_c, 2, 48, 0
5, 106609, Note_on_c, 2, 60, 125
5, 106641, Note_off_c, 2, 52, 0
5, 106875, Note_off_c, 2, 60, 0
5, 106914, Note_on_c, 2, 59, 126
5, 107233, Note_off_c, 2, 59, 0
5, 107278, Note_on_c, 2, 57, 120
5, 107522, Note_off_c, 2, 57, 0
5, 107537, Note_on_c, 2, 55, 122
5, 107704, Pitch_bend_c, 2, 8896
5, 107721, Pitch_bend_c, 2, 10528
5, 107737, Pitch_bend_c, 2, 12064
5, 107754, Pitch_bend_c, 2, 12720
5, 107770, Pitch_bend_c, 2, 12592
5, 107786, Pitch_bend_c, 2, 11936
5, 107803, Pitch_bend_c, 2, 10528
5, 107819, Pitch_bend_c, 2, 9152
5, 107836, Pitch_bend_c, 2, 8192
5, 107902, Pitch_bend_c, 2, 8896
5, 107919, Pitch_bend_c, 2, 9872
5, 107935, Pitch_bend_c, 2, 10560
5, 107952, Pitch_bend_c, 2, 10816
5, 107968, Pitch_bend_c, 2, 10688
5, 107984, Pitch_bend_c, 2, 9712
5, 108001, Pitch_bend_c, 2, 8928
5, 108020, Pitch_bend_c, 2, 8192
5, 108069, Pitch_bend_c, 2, 8400
5, 108086, Pitch_bend_c, 2, 9152
5, 108102, Pitch_bend_c, 2, 9936
5, 108118, Pitch_bend_c, 2, 10432
5, 108135, Pitch_bend_c, 2, 10224
5, 108151, Pitch_bend_c, 2, 9680
5, 108168, Pitch_bend_c, 2, 8896
5, 108184, Pitch_bend_c, 2, 8192
5, 108241, Pitch_bend_c, 2, 8208
5, 108258, Pitch_bend_c, 2, 8960
5, 108274, Pitch_bend_c, 2, 9680
5, 108291, Pitch_bend_c, 2, 10064
5, 108324, Pitch_bend_c, 2, 9584
5, 108340, Pitch_bend_c, 2, 8720
5, 108356, Pitch_bend_c, 2, 8192
5, 108431, Pitch_bend_c, 2, 8624
5, 108448, Pitch_bend_c, 2, 9440
5, 108464, Pitch_bend_c, 2, 9936
5, 108480, Pitch_bend_c, 2, 9648
5, 108498, Pitch_bend_c, 2, 8928
5, 108514, Pitch_bend_c, 2, 8192
5, 108580, Pitch_bend_c, 2, 8368
5, 108596, Pitch_bend_c, 2, 9280
5, 108606, Pitch_bend_c, 2, 9680
5, 108622, Pitch_bend_c, 2, 9648
5, 108639, Pitch_bend_c, 2, 8992
5, 108655, Pitch_bend_c, 2, 8192
5, 108746, Pitch_bend_c, 2, 8400
5, 108762, Pitch_bend_c, 2, 8784
5, 108787, Pitch_bend_c, 2, 8688
5, 108803, Pitch_bend_c, 2, 8192
5, 109353, Note_off_c, 2, 55, 0
5, 114609, Note_on_c, 2, 62, 125
5, 114697, Note_off_c, 2, 62, 0
5, 114725, Note_on_c, 2, 67, 125
5, 114943, Note_off_c, 2, 67, 0
5, 114971, Note_on_c, 2, 69, 124
5, 115143, Note_off_c, 2, 69, 0
5, 115165, Pitch_bend_c, 2, 6656
5, 115182, Pitch_bend_c, 2, 2880
5, 115196, Note_on_c, 2, 71, 125
5, 115198, Pitch_bend_c, 2, 0
5, 115220, Pitch_bend_c, 2, 1296
5, 115237, Pitch_bend_c, 2, 5248
5, 115253, Pitch_bend_c, 2, 8192
5, 116687, Note_off_c, 2, 71, 0
5, 153360, Note_on_c, 2, 72, 127
5, 153402, Note_off_c, 2, 72, 0
5, 153480, Note_on_c, 2, 72, 127
5, 153514, Note_off_c, 2, 72, 0
5, 153600, Note_on_c, 2, 72, 127
5, 153720, Note_on_c, 2, 71, 124
5, 153743, Note_off_c, 2, 72, 0
5, 153817, Note_off_c, 2, 71, 0
5, 153840, Note_on_c, 2, 69, 124
5, 153927, Note_off_c, 2, 69, 0
5, 153960, Note_on_c, 2, 71, 127
5, 154148, Note_off_c, 2, 71, 0
5, 154200, Note_on_c, 2, 69, 127
5, 154348, Note_off_c, 2, 69, 0
5, 154415, Pitch_bend_c, 2, 5872
5, 154432, Pitch_bend_c, 2, 3216
5, 154440, Note_on_c, 2, 71, 127
5, 154448, Pitch_bend_c, 2, 1072
5, 154465, Pitch_bend_c, 2, 160
5, 154482, Pitch_bend_c, 2, 1040
5, 154498, Pitch_bend_c, 2, 3664
5, 154515, Pitch_bend_c, 2, 8192
5, 155180, Note_off_c, 2, 71, 0
5, 155280, Note_on_c, 2, 74, 127
5, 155329, Note_off_c, 2, 74, 0
5, 155400, Note_on_c, 2, 74, 127
5, 155447, Note_off_c, 2, 74, 0
5, 155520, Note_on_c, 2, 74, 127
5, 155640, Note_on_c, 2, 72, 127
5, 155651, Note_off_c, 2, 74, 0
5, 155754, Note_off_c, 2, 72, 0
5, 155760, Note_on_c, 2, 71, 127
5, 155834, Note_off_c, 2, 71, 0
5, 155880, Note_on_c, 2, 72, 127
5, 156019, Note_off_c, 2, 72, 0
5, 156120, Note_on_c, 2, 71, 127
5, 156248, Note_off_c, 2, 71, 0
5, 156358, Pitch_bend_c, 2, 6240
5, 156360, Note_on_c, 2, 72, 127
5, 156375, Pitch_bend_c, 2, 3632
5, 156391, Pitch_bend_c, 2, 2288
5, 156408, Pitch_bend_c, 2, 3248
5, 156424, Pitch_bend_c, 2, 4816
5, 156440, Pitch_bend_c, 2, 8192
5, 156840, Note_off_c, 2, 72, 0
5, 156982, Note_on_c, 2, 71, 127
5, 157073, Note_off_c, 2, 71, 0
5, 157096, Note_on_c, 2, 72, 122
5, 157135, Note_on_c, 2, 71, 127
5, 157144, Note_off_c, 2, 72, 0
5, 157199, Note_on_c, 2, 69, 122
5, 157204, Note_off_c, 2, 71, 0
5, 157276, Note_off_c, 2, 69, 0
5, 157291, Note_on_c, 2, 67, 127
5, 157398, Note_off_c, 2, 67, 0
5, 157439, Note_on_c, 2, 69, 127
5, 157653, Note_off_c, 2, 69, 0
5, 157679, Note_on_c, 2, 67, 127
5, 157759, Note_off_c, 2, 67, 0
5, 157801, Note_on_c, 2, 67, 127
5, 157964, Pitch_bend_c, 2, 8528
5, 157981, Pitch_bend_c, 2, 9088
5, 157997, Pitch_bend_c, 2, 8720
5, 158013, Pitch_bend_c, 2, 8192
5, 158066, Pitch_bend_c, 2, 8992
5, 158082, Pitch_bend_c, 2, 10880
5, 158099, Pitch_bend_c, 2, 10784
5, 158115, Pitch_bend_c, 2, 8192
5, 158184, Note_off_c, 2, 67, 0
5, 158545, Note_on_c, 2, 67, 127
5, 158655, Note_off_c, 2, 67, 0
5, 158678, Note_on_c, 2, 65, 127
5, 158769, Note_off_c, 2, 65, 0
5, 158793, Note_on_c, 2, 64, 127
5, 158887, Note_off_c, 2, 64, 0
5, 158908, Note_on_c, 2, 60, 127
5, 158991, Note_off_c, 2, 60, 0
5, 159022, Note_on_c, 2, 55, 124
5, 159114, Note_off_c, 2, 55, 0
5, 159147, Note_on_c, 2, 60, 124
5, 159244, Note_off_c, 2, 60, 0
5, 159262, Note_on_c, 2, 64, 120
5, 159302, Note_off_c, 2, 64, 0
5, 159385, Note_on_c, 2, 72, 127
5, 159565, Note_off_c, 2, 72, 0
5, 159621, Note_on_c, 2, 71, 127
5, 159684, Note_off_c, 2, 71, 0
5, 159754, Note_on_c, 2, 67, 127
5, 160085, Note_off_c, 2, 67, 0
5, 160098, Note_on_c, 2, 62, 127
5, 160196, Note_off_c, 2, 62, 0
5, 160213, Note_on_c, 2, 67, 127
5, 160296, Note_off_c, 2, 67, 0
5, 160339, Note_on_c, 2, 72, 127
5, 160580, Note_on_c, 2, 71, 127
5, 160592, Note_off_c, 2, 72, 0
5, 160664, Note_off_c, 2, 71, 0
5, 160702, Note_on_c, 2, 67, 127
5, 160916, Note_off_c, 2, 67, 0
5, 160931, Note_on_c, 2, 62, 127
5, 161014, Note_off_c, 2, 62, 0
5, 161038, Note_on_c, 2, 60, 127
5, 161138, Note_off_c, 2, 60, 0
5, 161148, Note_on_c, 2, 62, 127
5, 161231, Note_off_c, 2, 62, 0
5, 161280, Note_on_c, 2, 59, 127
5, 161400, Note_on_c, 2, 55, 124
5, 161416, Note_off_c, 2, 59, 0
5, 161520, Note_on_c, 2, 50, 127
5, 161535, Note_off_c, 2, 55, 0
5, 161640, Note_on_c, 2, 55, 127
5, 161645, Note_off_c, 2, 50, 0
5, 161758, Note_off_c, 2, 55, 0
5, 161880, Note_on_c, 2, 48, 127
5, 161996, Note_off_c, 2, 48, 0
5, 162000, Note_on_c, 2, 50, 127
5, 162106, Note_off_c, 2, 50, 0
5, 162120, Note_on_c, 2, 47, 127
5, 162308, Pitch_bend_c, 2, 8848
5, 162325, Pitch_bend_c, 2, 9056
5, 162341, Pitch_bend_c, 2, 9088
5, 162358, Pitch_bend_c, 2, 8992
5, 162375, Pitch_bend_c, 2, 8240
5, 162393, Pitch_bend_c, 2, 8192
5, 162467, Pitch_bend_c, 2, 8896
5, 162484, Pitch_bend_c, 2, 10192
5, 162503, Pitch_bend_c, 2, 10592
5, 162519, Pitch_bend_c, 2, 9744
5, 162536, Pitch_bend_c, 2, 8192
5, 162620, Pitch_bend_c, 2, 8784
5, 162647, Pitch_bend_c, 2, 8192
5, 162798, Note_off_c, 2, 47, 0
5, 163200, Note_on_c, 2, 53, 127
5, 163320, Note_on_c, 2, 57, 121
5, 163329, Note_off_c, 2, 53, 0
5, 163440, Note_on_c, 2, 60, 127
5, 163465, Note_off_c, 2, 57, 0
5, 163546, Note_off_c, 2, 60, 0
5, 163560, Note_on_c, 2, 65, 127
5, 163666, Note_off_c, 2, 65, 0
5, 163800, Note_on_c, 2, 64, 127
5, 163914, Note_off_c, 2, 64, 0
5, 163920, Note_on_c, 2, 62, 127
5, 164017, Note_off_c, 2, 62, 0
5, 164040, Note_on_c, 2, 64, 127
5, 164206, Pitch_bend_c, 2, 9024
5, 164222, Pitch_bend_c, 2, 9776
5, 164239, Pitch_bend_c, 2, 10224
5, 164255, Pitch_bend_c, 2, 10160
5, 164272, Pitch_bend_c, 2, 9904
5, 164282, Pitch_bend_c, 2, 9376
5, 164298, Pitch_bend_c, 2, 8240
5, 164308, Pitch_bend_c, 2, 8192
5, 164382, Pitch_bend_c, 2, 9056
5, 164398, Pitch_bend_c, 2, 9776
5, 164415, Pitch_bend_c, 2, 9904
5, 164431, Pitch_bend_c, 2, 9712
5, 164448, Pitch_bend_c, 2, 8896
5, 164464, Pitch_bend_c, 2, 8192
5, 164522, Pitch_bend_c, 2, 8656
5, 164542, Pitch_bend_c, 2, 9648
5, 164570, Pitch_bend_c, 2, 9120
5, 164586, Pitch_bend_c, 2, 8192
5, 164730, Note_off_c, 2, 64, 0
5, 165080, Pitch_bend_c, 2, 7824
5, 165096, Pitch_bend_c, 2, 5248
5, 165113, Pitch_bend_c, 2, 4064
5, 165120, Note_on_c, 2, 67, 127
5, 165123, Pitch_bend_c, 2, 4032
5, 165142, Pitch_bend_c, 2, 5664
5, 165167, Pitch_bend_c, 2, 8192
5, 165220, Note_off_c, 2, 67, 0
5, 165240, Note_on_c, 2, 67, 122
5, 165303, Note_off_c, 2, 67, 0
5, 165360, Note_on_c, 2, 67, 127
5, 165419, Note_off_c, 2, 67, 0
5, 165480, Note_on_c, 2, 67, 127
5, 165664, Note_off_c, 2, 67, 0
5, 165720, Note_on_c, 2, 62, 127
5, 165788, Note_off_c, 2, 62, 0
5, 165840, Note_on_c, 2, 67, 127
5, 165960, Note_on_c, 2, 62, 127
5, 165967, Note_off_c, 2, 67, 0
5, 166030, Note_off_c, 2, 62, 0
5, 166056, Pitch_bend_c, 2, 5024
5, 166073, Pitch_bend_c, 2, 2896
5, 166080, Note_on_c, 2, 67, 127
5, 166083, Pitch_bend_c, 2, 2288
5, 166100, Pitch_bend_c, 2, 4448
5, 166122, Pitch_bend_c, 2, 8192
5, 166187, Note_off_c, 2, 67, 0
5, 166200, Note_on_c, 2, 67, 127
5, 166260, Note_off_c, 2, 67, 0
5, 166320, Note_on_c, 2, 67, 127
5, 166380, Note_off_c, 2, 67, 0
5, 166440, Note_on_c, 2, 67, 127
5, 166666, Note_off_c, 2, 67, 0
5, 166680, Note_on_c, 2, 62, 127
5, 166756, Note_off_c, 2, 62, 0
5, 166800, Note_on_c, 2, 67, 127
5, 166920, Note_on_c, 2, 62, 127
5, 166936, Note_off_c, 2, 67, 0
5, 166999, Note_off_c, 2, 62, 0
5, 167031, Pitch_bend_c, 2, 5056
5, 167040, Note_on_c, 2, 69, 127
5, 167044, Pitch_bend_c, 2, 3296
5, 167093, Pitch_bend_c, 2, 4592
5, 167109, Pitch_bend_c, 2, 8192
5, 167383, Note_off_c, 2, 69, 0
5, 167400, Note_on_c, 2, 67, 127
5, 167729, Note_off_c, 2, 67, 0
5, 167760, Note_on_c, 2, 62, 127
5, 167988, Note_off_c, 2, 62, 0
5, 167997, Pitch_bend_c, 2, 7648
5, 168000, Note_on_c, 2, 69, 127
5, 168052, Pitch_bend_c, 2, 4288
5, 168069, Pitch_bend_c, 2, 8192
5, 168311, Note_off_c, 2, 69, 0
5, 168360, Note_on_c, 2, 67, 127
5, 168577, Note_off_c, 2, 67, 0
5, 170641, Control_c, 2, 7, 100
5, 170641, End_track
6, 0, Start_track
6, 0, Title_t, "\000"
6, 0, Program_c, 3, 65
6, 0, Control_c, 3, 7, 100
6, 0, Control_c, 3, 10, 64
6, 0, Control_c, 3, 91, 67
6, 0, Control_c, 3, 93, 13
6, 630, Control_c, 3, 11, 127
6, 16818, Note_on_c, 3, 76, 126
6, 17020, Note_off_c, 3, 76, 0
6, 17023, Note_on_c, 3, 77, 116
6, 17134, Note_off_c, 3, 77, 0
6, 17171, Note_on_c, 3, 76, 120
6, 17439, Note_off_c, 3, 76, 0
6, 17441, Note_on_c, 3, 72, 111
6, 17654, Note_off_c, 3, 72, 0
6, 17683, Note_on_c, 3, 74, 125
6, 17908, Note_on_c, 3, 72, 117
6, 17909, Note_off_c, 3, 74, 0
6, 18020, Note_off_c, 3, 72, 0
6, 18129, Note_on_c, 3, 72, 119
6, 18343, Note_off_c, 3, 72, 0
6, 18359, Note_on_c, 3, 69, 113
6, 18590, Control_c, 3, 1, 6
6, 18628, Control_c, 3, 1, 0
6, 18729, Note_on_c, 3, 76, 127
6, 18739, Note_off_c, 3, 69, 0
6, 18925, Note_off_c, 3, 76, 0
6, 18938, Note_on_c, 3, 77, 116
6, 19064, Note_off_c, 3, 77, 0
6, 19080, Note_on_c, 3, 76, 122
6, 19281, Control_c, 3, 1, 18
6, 19315, Control_c, 3, 1, 0
6, 19364, Note_off_c, 3, 76, 0
6, 19364, Note_on_c, 3, 72, 113
6, 19569, Note_off_c, 3, 72, 0
6, 19589, Note_on_c, 3, 74, 124
6, 19807, Note_off_c, 3, 74, 0
6, 19816, Note_on_c, 3, 72, 117
6, 19959, Note_off_c, 3, 72, 0
6, 20051, Note_on_c, 3, 72, 122
6, 20278, Control_c, 3, 1, 20
6, 20323, Control_c, 3, 1, 41
6, 20356, Control_c, 3, 1, 45
6, 20397, Control_c, 3, 1, 41
6, 20427, Control_c, 3, 1, 0
6, 20589, Note_off_c, 3, 72, 0
6, 20622, Pitch_bend_c, 3, 7616
6, 20638, Pitch_bend_c, 3, 6320
6, 20649, Note_on_c, 3, 76, 126
6, 20666, Pitch_bend_c, 3, 5872
6, 20682, Pitch_bend_c, 3, 6768
6, 20699, Pitch_bend_c, 3, 8192
6, 20869, Note_off_c, 3, 76, 0
6, 20870, Note_on_c, 3, 77, 116
6, 20994, Note_off_c, 3, 77, 0
6, 21009, Note_on_c, 3, 76, 124
6, 21268, Note_off_c, 3, 76, 0
6, 21270, Note_on_c, 3, 72, 120
6, 21489, Note_off_c, 3, 72, 0
6, 21503, Note_on_c, 3, 74, 126
6, 21741, Note_off_c, 3, 74, 0
6, 21745, Note_on_c, 3, 72, 124
6, 21865, Note_off_c, 3, 72, 0
6, 21979, Note_on_c, 3, 72, 120
6, 22195, Note_off_c, 3, 72, 0
6, 22210, Note_on_c, 3, 69, 118
6, 22484, Control_c, 3, 1, 48
6, 22518, Control_c, 3, 1, 64
6, 22551, Control_c, 3, 1, 0
6, 22595, Note_off_c, 3, 69, 0
6, 22688, Note_on_c, 3, 72, 113
6, 22855, Note_off_c, 3, 72, 0
6, 22929, Note_on_c, 3, 72, 117
6, 22993, Note_off_c, 3, 72, 0
6, 23064, Note_on_c, 3, 72, 122
6, 23286, Note_on_c, 3, 71, 113
6, 23287, Note_off_c, 3, 72, 0
6, 23367, Note_off_c, 3, 71, 0
6, 23423, Note_on_c, 3, 71, 115
6, 23572, Note_off_c, 3, 71, 0
6, 23651, Note_on_c, 3, 71, 119
6, 23826, Note_off_c, 3, 71, 0
6, 23896, Note_on_c, 3, 71, 119
6, 24130, Note_off_c, 3, 71, 0
6, 24133, Note_on_c, 3, 69, 113
6, 24365, Note_off_c, 3, 69, 0
6, 24374, Note_on_c, 3, 67, 117
6, 24593, Note_off_c, 3, 67, 0
6, 24601, Note_on_c, 3, 69, 116
6, 24791, Note_off_c, 3, 69, 0
6, 24810, Pitch_bend_c, 3, 6832
6, 24827, Pitch_bend_c, 3, 5104
6, 24844, Pitch_bend_c, 3, 4800
6, 24844, Note_on_c, 3, 69, 116
6, 24874, Pitch_bend_c, 3, 8192
6, 25405, Control_c, 3, 1, 4
6, 25438, Control_c, 3, 1, 36
6, 25480, Control_c, 3, 1, 50
6, 25521, Control_c, 3, 1, 57
6, 25554, Control_c, 3, 1, 61
6, 25586, Control_c, 3, 1, 68
6, 25619, Control_c, 3, 1, 68
6, 25652, Control_c, 3, 1, 0
6, 25706, Note_off_c, 3, 69, 0
6, 26418, Note_on_c, 3, 76, 126
6, 26620, Note_off_c, 3, 76, 0
6, 26623, Note_on_c, 3, 77, 116
6, 26734, Note_off_c, 3, 77, 0
6, 26771, Note_on_c, 3, 76, 120
6, 27039, Note_off_c, 3, 76, 0
6, 27041, Note_on_c, 3, 72, 111
6, 27254, Note_off_c, 3, 72, 0
6, 27283, Note_on_c, 3, 74, 125
6, 27508, Note_on_c, 3, 72, 117
6, 27509, Note_off_c, 3, 74, 0
6, 27620, Note_off_c, 3, 72, 0
6, 27729, Note_on_c, 3, 72, 119
6, 27943, Note_off_c, 3, 72, 0
6, 27959, Note_on_c, 3, 69, 113
6, 28190, Control_c, 3, 1, 6
6, 28228, Control_c, 3, 1, 0
6, 28329, Note_on_c, 3, 76, 127
6, 28339, Note_off_c, 3, 69, 0
6, 28525, Note_off_c, 3, 76, 0
6, 28538, Note_on_c, 3, 77, 116
6, 28664, Note_off_c, 3, 77, 0
6, 28680, Note_on_c, 3, 76, 122
6, 28881, Control_c, 3, 1, 18
6, 28915, Control_c, 3, 1, 0
6, 28964, Note_off_c, 3, 76, 0
6, 28964, Note_on_c, 3, 72, 113
6, 29169, Note_off_c, 3, 72, 0
6, 29189, Note_on_c, 3, 74, 124
6, 29407, Note_off_c, 3, 74, 0
6, 29416, Note_on_c, 3, 72, 117
6, 29559, Note_off_c, 3, 72, 0
6, 29651, Note_on_c, 3, 72, 122
6, 29878, Control_c, 3, 1, 20
6, 29923, Control_c, 3, 1, 41
6, 29956, Control_c, 3, 1, 45
6, 29997, Control_c, 3, 1, 41
6, 30027, Control_c, 3, 1, 0
6, 30189, Note_off_c, 3, 72, 0
6, 30222, Pitch_bend_c, 3, 7616
6, 30238, Pitch_bend_c, 3, 6320
6, 30249, Note_on_c, 3, 76, 126
6, 30266, Pitch_bend_c, 3, 5872
6, 30282, Pitch_bend_c, 3, 6768
6, 30299, Pitch_bend_c, 3, 8192
6, 30469, Note_off_c, 3, 76, 0
6, 30470, Note_on_c, 3, 77, 116
6, 30594, Note_off_c, 3, 77, 0
6, 30609, Note_on_c, 3, 76, 124
6, 30868, Note_off_c, 3, 76, 0
6, 30870, Note_on_c, 3, 72, 120
6, 31089, Note_off_c, 3, 72, 0
6, 31103, Note_on_c, 3, 74, 126
6, 31341, Note_off_c, 3, 74, 0
6, 31345, Note_on_c, 3, 72, 124
6, 31465, Note_off_c, 3, 72, 0
6, 31579, Note_on_c, 3, 72, 120
6, 31795, Note_off_c, 3, 72, 0
6, 31810, Note_on_c, 3, 69, 118
6, 32084, Control_c, 3, 1, 48
6, 32118, Control_c, 3, 1, 64
6, 32151, Control_c, 3, 1, 0
6, 32195, Note_off_c, 3, 69, 0
6, 32288, Note_on_c, 3, 72, 113
6, 32455, Note_off_c, 3, 72, 0
6, 32529, Note_on_c, 3, 72, 117
6, 32593, Note_off_c, 3, 72, 0
6, 32664, Note_on_c, 3, 72, 122
6, 32886, Note_on_c, 3, 71, 113
6, 32887, Note_off_c, 3, 72, 0
6, 32967, Note_off_c, 3, 71, 0
6, 33023, Note_on_c, 3, 71, 115
6, 33172, Note_off_c, 3, 71, 0
6, 33251, Note_on_c, 3, 71, 119
6, 33426, Note_off_c, 3, 71, 0
6, 33496, Note_on_c, 3, 71, 119
6, 33730, Note_off_c, 3, 71, 0
6, 33733, Note_on_c, 3, 69, 113
6, 33965, Note_off_c, 3, 69, 0
6, 33974, Note_on_c, 3, 67, 117
6, 34193, Note_off_c, 3, 67, 0
6, 34201, Note_on_c, 3, 69, 116
6, 34391, Note_off_c, 3, 69, 0
6, 34410, Pitch_bend_c, 3, 6832
6, 34427, Pitch_bend_c, 3, 5104
6, 34444, Pitch_bend_c, 3, 4800
6, 34444, Note_on_c, 3, 69, 116
6, 34474, Pitch_bend_c, 3, 8192
6, 35005, Control_c, 3, 1, 4
6, 35038, Control_c, 3, 1, 36
6, 35080, Control_c, 3, 1, 50
6, 35121, Control_c, 3, 1, 57
6, 35154, Control_c, 3, 1, 61
6, 35186, Control_c, 3, 1, 68
6, 35219, Control_c, 3, 1, 68
6, 35252, Control_c, 3, 1, 0
6, 35306, Note_off_c, 3, 69, 0
6, 36011, Note_on_c, 3, 71, 127
6, 36232, Note_on_c, 3, 72, 125
6, 36234, Note_off_c, 3, 71, 0
6, 36469, Note_on_c, 3, 74, 125
6, 36489, Note_off_c, 3, 72, 0
6, 36963, Note_on_c, 3, 79, 127
6, 36982, Note_off_c, 3, 74, 0
6, 37599, Control_c, 3, 1, 4
6, 37632, Control_c, 3, 1, 11
6, 37682, Control_c, 3, 1, 16
6, 37714, Control_c, 3, 1, 20
6, 37747, Control_c, 3, 1, 29
6, 37780, Control_c, 3, 1, 41
6, 37820, Control_c, 3, 1, 45
6, 37862, Control_c, 3, 1, 54
6, 37903, Control_c, 3, 1, 43
6, 37936, Control_c, 3, 1, 0
6, 38040, Note_off_c, 3, 79, 0
6, 38080, Note_on_c, 3, 79, 113
6, 38166, Note_off_c, 3, 79, 0
6, 38244, Note_on_c, 3, 79, 118
6, 38327, Note_off_c, 3, 79, 0
6, 38388, Note_on_c, 3, 79, 115
6, 38567, Note_on_c, 3, 77, 117
6, 38601, Note_off_c, 3, 79, 0
6, 38753, Note_off_c, 3, 77, 0
6, 38764, Note_on_c, 3, 76, 122
6, 38891, Note_off_c, 3, 76, 0
6, 38899, Note_on_c, 3, 77, 122
6, 39181, Control_c, 3, 1, 27
6, 39214, Control_c, 3, 1, 52
6, 39246, Control_c, 3, 1, 61
6, 39288, Control_c, 3, 1, 0
6, 39304, Note_off_c, 3, 77, 0
6, 40302, Note_on_c, 3, 77, 127
6, 40645, Note_off_c, 3, 77, 0
6, 40659, Note_on_c, 3, 76, 127
6, 40997, Note_on_c, 3, 74, 122
6, 40998, Note_off_c, 3, 76, 0
6, 41256, Note_on_c, 3, 76, 125
6, 41271, Note_off_c, 3, 74, 0
6, 41629, Note_on_c, 3, 74, 124
6, 41649, Note_off_c, 3, 76, 0
6, 41959, Note_on_c, 3, 72, 118
6, 41960, Note_off_c, 3, 74, 0
6, 42168, Note_off_c, 3, 72, 0
6, 42198, Pitch_bend_c, 3, 7088
6, 42212, Note_on_c, 3, 72, 127
6, 42215, Pitch_bend_c, 3, 6720
6, 42231, Pitch_bend_c, 3, 7680
6, 42243, Pitch_bend_c, 3, 8192
6, 42576, Note_on_c, 3, 71, 125
6, 42577, Note_off_c, 3, 72, 0
6, 42923, Note_on_c, 3, 69, 122
6, 42924, Note_off_c, 3, 71, 0
6, 43167, Note_on_c, 3, 67, 127
6, 43191, Note_off_c, 3, 69, 0
6, 43489, Note_off_c, 3, 67, 0
6, 43691, Note_on_c, 3, 71, 127
6, 43912, Note_on_c, 3, 72, 125
6, 43914, Note_off_c, 3, 71, 0
6, 44149, Note_on_c, 3, 74, 125
6, 44169, Note_off_c, 3, 72, 0
6, 44643, Note_on_c, 3, 79, 127
6, 44662, Note_off_c, 3, 74, 0
6, 45279, Control_c, 3, 1, 4
6, 45312, Control_c, 3, 1, 11
6, 45362, Control_c, 3, 1, 16
6, 45394, Control_c, 3, 1, 20
6, 45427, Control_c, 3, 1, 29
6, 45460, Control_c, 3, 1, 41
6, 45500, Control_c, 3, 1, 45
6, 45542, Control_c, 3, 1, 54
6, 45583, Control_c, 3, 1, 43
6, 45616, Control_c, 3, 1, 0
6, 45720, Note_off_c, 3, 79, 0
6, 45760, Note_on_c, 3, 79, 113
6, 45846, Note_off_c, 3, 79, 0
6, 45924, Note_on_c, 3, 79, 118
6, 46007, Note_off_c, 3, 79, 0
6, 46068, Note_on_c, 3, 79, 115
6, 46247, Note_on_c, 3, 77, 117
6, 46281, Note_off_c, 3, 79, 0
6, 46433, Note_off_c, 3, 77, 0
6, 46444, Note_on_c, 3, 76, 122
6, 46571, Note_off_c, 3, 76, 0
6, 46579, Note_on_c, 3, 77, 122
6, 46861, Control_c, 3, 1, 27
6, 46894, Control_c, 3, 1, 52
6, 46926, Control_c, 3, 1, 61
6, 46968, Control_c, 3, 1, 0
6, 46984, Note_off_c, 3, 77, 0
6, 47982, Note_on_c, 3, 77, 127
6, 48325, Note_off_c, 3, 77, 0
6, 48339, Note_on_c, 3, 76, 127
6, 48677, Note_on_c, 3, 74, 122
6, 48678, Note_off_c, 3, 76, 0
6, 48936, Note_on_c, 3, 76, 125
6, 48951, Note_off_c, 3, 74, 0
6, 49309, Note_on_c, 3, 74, 124
6, 49329, Note_off_c, 3, 76, 0
6, 49639, Note_on_c, 3, 72, 118
6, 49640, Note_off_c, 3, 74, 0
6, 49848, Note_off_c, 3, 72, 0
6, 49878, Pitch_bend_c, 3, 7088
6, 49892, Note_on_c, 3, 72, 127
6, 49895, Pitch_bend_c, 3, 6720
6, 49911, Pitch_bend_c, 3, 7680
6, 49923, Pitch_bend_c, 3, 8192
6, 50256, Note_on_c, 3, 71, 125
6, 50257, Note_off_c, 3, 72, 0
6, 50603, Note_on_c, 3, 69, 122
6, 50604, Note_off_c, 3, 71, 0
6, 50847, Note_on_c, 3, 67, 127
6, 50871, Note_off_c, 3, 69, 0
6, 51000, Note_off_c, 3, 67, 0
6, 51378, Note_on_c, 3, 76, 126
6, 51580, Note_off_c, 3, 76, 0
6, 51583, Note_on_c, 3, 77, 116
6, 51694, Note_off_c, 3, 77, 0
6, 51731, Note_on_c, 3, 76, 120
6, 51999, Note_off_c, 3, 76, 0
6, 52001, Note_on_c, 3, 72, 111
6, 52214, Note_off_c, 3, 72, 0
6, 52243, Note_on_c, 3, 74, 125
6, 52468, Note_on_c, 3, 72, 117
6, 52469, Note_off_c, 3, 74, 0
6, 52580, Note_off_c, 3, 72, 0
6, 52689, Note_on_c, 3, 72, 119
6, 52903, Note_off_c, 3, 72, 0
6, 52919, Note_on_c, 3, 69, 113
6, 53150, Control_c, 3, 1, 6
6, 53188, Control_c, 3, 1, 0
6, 53289, Note_on_c, 3, 76, 127
6, 53299, Note_off_c, 3, 69, 0
6, 53485, Note_off_c, 3, 76, 0
6, 53498, Note_on_c, 3, 77, 116
6, 53624, Note_off_c, 3, 77, 0
6, 53640, Note_on_c, 3, 76, 122
6, 53841, Control_c, 3, 1, 18
6, 53875, Control_c, 3, 1, 0
6, 53924, Note_off_c, 3, 76, 0
6, 53924, Note_on_c, 3, 72, 113
6, 54129, Note_off_c, 3, 72, 0
6, 54149, Note_on_c, 3, 74, 124
6, 54367, Note_off_c, 3, 74, 0
6, 54376, Note_on_c, 3, 72, 117
6, 54519, Note_off_c, 3, 72, 0
6, 54611, Note_on_c, 3, 72, 122
6, 54838, Control_c, 3, 1, 20
6, 54883, Control_c, 3, 1, 41
6, 54916, Control_c, 3, 1, 45
6, 54957, Control_c, 3, 1, 41
6, 54987, Control_c, 3, 1, 0
6, 55149, Note_off_c, 3, 72, 0
6, 55182, Pitch_bend_c, 3, 7616
6, 55198, Pitch_bend_c, 3, 6320
6, 55209, Note_on_c, 3, 76, 126
6, 55226, Pitch_bend_c, 3, 5872
6, 55242, Pitch_bend_c, 3, 6768
6, 55259, Pitch_bend_c, 3, 8192
6, 55429, Note_off_c, 3, 76, 0
6, 55430, Note_on_c, 3, 77, 116
6, 55554, Note_off_c, 3, 77, 0
6, 55569, Note_on_c, 3, 76, 124
6, 55828, Note_off_c, 3, 76, 0
6, 55830, Note_on_c, 3, 72, 120
6, 56049, Note_off_c, 3, 72, 0
6, 56063, Note_on_c, 3, 74, 126
6, 56301, Note_off_c, 3, 74, 0
6, 56305, Note_on_c, 3, 72, 124
6, 56425, Note_off_c, 3, 72, 0
6, 56539, Note_on_c, 3, 72, 120
6, 56755, Note_off_c, 3, 72, 0
6, 56770, Note_on_c, 3, 69, 118
6, 57044, Control_c, 3, 1, 48
6, 57078, Control_c, 3, 1, 64
6, 57111, Control_c, 3, 1, 0
6, 57155, Note_off_c, 3, 69, 0
6, 57248, Note_on_c, 3, 72, 113
6, 57415, Note_off_c, 3, 72, 0
6, 57489, Note_on_c, 3, 72, 117
6, 57553, Note_off_c, 3, 72, 0
6, 57624, Note_on_c, 3, 72, 122
6, 57846, Note_on_c, 3, 71, 113
6, 57847, Note_off_c, 3, 72, 0
6, 57927, Note_off_c, 3, 71, 0
6, 57983, Note_on_c, 3, 71, 115
6, 58132, Note_off_c, 3, 71, 0
6, 58211, Note_on_c, 3, 71, 119
6, 58386, Note_off_c, 3, 71, 0
6, 58456, Note_on_c, 3, 71, 119
6, 58690, Note_off_c, 3, 71, 0
6, 58693, Note_on_c, 3, 69, 113
6, 58925, Note_off_c, 3, 69, 0
6, 58934, Note_on_c, 3, 67, 117
6, 59153, Note_off_c, 3, 67, 0
6, 59161, Note_on_c, 3, 69, 116
6, 59351, Note_off_c, 3, 69, 0
6, 59370, Pitch_bend_c, 3, 6832
6, 59387, Pitch_bend_c, 3, 5104
6, 59404, Pitch_bend_c, 3, 4800
6, 59404, Note_on_c, 3, 69, 116
6, 59434, Pitch_bend_c, 3, 8192
6, 59965, Control_c, 3, 1, 4
6, 59998, Control_c, 3, 1, 36
6, 60040, Control_c, 3, 1, 50
6, 60081, Control_c, 3, 1, 57
6, 60114, Control_c, 3, 1, 61
6, 60146, Control_c, 3, 1, 68
6, 60179, Control_c, 3, 1, 68
6, 60212, Control_c, 3, 1, 0
6, 60266, Note_off_c, 3, 69, 0
6, 60978, Note_on_c, 3, 76, 126
6, 61180, Note_off_c, 3, 76, 0
6, 61183, Note_on_c, 3, 77, 116
6, 61294, Note_off_c, 3, 77, 0
6, 61331, Note_on_c, 3, 76, 120
6, 61599, Note_off_c, 3, 76, 0
6, 61601, Note_on_c, 3, 72, 111
6, 61814, Note_off_c, 3, 72, 0
6, 61843, Note_on_c, 3, 74, 125
6, 62068, Note_on_c, 3, 72, 117
6, 62069, Note_off_c, 3, 74, 0
6, 62180, Note_off_c, 3, 72, 0
6, 62289, Note_on_c, 3, 72, 119
6, 62503, Note_off_c, 3, 72, 0
6, 62519, Note_on_c, 3, 69, 113
6, 62750, Control_c, 3, 1, 6
6, 62788, Control_c, 3, 1, 0
6, 62889, Note_on_c, 3, 76, 127
6, 62899, Note_off_c, 3, 69, 0
6, 63085, Note_off_c, 3, 76, 0
6, 63098, Note_on_c, 3, 77, 116
6, 63224, Note_off_c, 3, 77, 0
6, 63240, Note_on_c, 3, 76, 122
6, 63441, Control_c, 3, 1, 18
6, 63475, Control_c, 3, 1, 0
6, 63524, Note_off_c, 3, 76, 0
6, 63524, Note_on_c, 3, 72, 113
6, 63729, Note_off_c, 3, 72, 0
6, 63749, Note_on_c, 3, 74, 124
6, 63967, Note_off_c, 3, 74, 0
6, 63976, Note_on_c, 3, 72, 117
6, 64119, Note_off_c, 3, 72, 0
6, 64211, Note_on_c, 3, 72, 122
6, 64438, Control_c, 3, 1, 20
6, 64483, Control_c, 3, 1, 41
6, 64516, Control_c, 3, 1, 45
6, 64557, Control_c, 3, 1, 41
6, 64587, Control_c, 3, 1, 0
6, 64749, Note_off_c, 3, 72, 0
6, 64782, Pitch_bend_c, 3, 7616
6, 64798, Pitch_bend_c, 3, 6320
6, 64809, Note_on_c, 3, 76, 126
6, 64826, Pitch_bend_c, 3, 5872
6, 64842, Pitch_bend_c, 3, 6768
6, 64859, Pitch_bend_c, 3, 8192
6, 65029, Note_off_c, 3, 76, 0
6, 65030, Note_on_c, 3, 77, 116
6, 65154, Note_off_c, 3, 77, 0
6, 65169, Note_on_c, 3, 76, 124
6, 65428, Note_off_c, 3, 76, 0
6, 65430, Note_on_c, 3, 72, 120
6, 65649, Note_off_c, 3, 72, 0
6, 65663, Note_on_c, 3, 74, 126
6, 65901, Note_off_c, 3, 74, 0
6, 65905, Note_on_c, 3, 72, 124
6, 66025, Note_off_c, 3, 72, 0
6, 66139, Note_on_c, 3, 72, 120
6, 66355, Note_off_c, 3, 72, 0
6, 66370, Note_on_c, 3, 69, 118
6, 66644, Control_c, 3, 1, 48
6, 66678, Control_c, 3, 1, 64
6, 66711, Control_c, 3, 1, 0
6, 66755, Note_off_c, 3, 69, 0
6, 66848, Note_on_c, 3, 72, 113
6, 67015, Note_off_c, 3, 72, 0
6, 67089, Note_on_c, 3, 72, 117
6, 67153, Note_off_c, 3, 72, 0
6, 67224, Note_on_c, 3, 72, 122
6, 67446, Note_on_c, 3, 71, 113
6, 67447, Note_off_c, 3, 72, 0
6, 67527, Note_off_c, 3, 71, 0
6, 67583, Note_on_c, 3, 71, 115
6, 67732, Note_off_c, 3, 71, 0
6, 67811, Note_on_c, 3, 71, 119
6, 67986, Note_off_c, 3, 71, 0
6, 68056, Note_on_c, 3, 71, 119
6, 68290, Note_off_c, 3, 71, 0
6, 68293, Note_on_c, 3, 69, 113
6, 68525, Note_off_c, 3, 69, 0
6, 68534, Note_on_c, 3, 67, 117
6, 68753, Note_off_c, 3, 67, 0
6, 68761, Note_on_c, 3, 69, 116
6, 68951, Note_off_c, 3, 69, 0
6, 68970, Pitch_bend_c, 3, 6832
6, 68987, Pitch_bend_c, 3, 5104
6, 69004, Pitch_bend_c, 3, 4800
6, 69004, Note_on_c, 3, 69, 116
6, 69034, Pitch_bend_c, 3, 8192
6, 69565, Control_c, 3, 1, 4
6, 69598, Control_c, 3, 1, 36
6, 69640, Control_c, 3, 1, 50
6, 69681, Control_c, 3, 1, 57
6, 69714, Control_c, 3, 1, 61
6, 69746, Control_c, 3, 1, 68
6, 69779, Control_c, 3, 1, 68
6, 69812, Control_c, 3, 1, 0
6, 69866, Note_off_c, 3, 69, 0
6, 70571, Note_on_c, 3, 71, 127
6, 70792, Note_on_c, 3, 72, 125
6, 70794, Note_off_c, 3, 71, 0
6, 71029, Note_on_c, 3, 74, 125
6, 71049, Note_off_c, 3, 72, 0
6, 71523, Note_on_c, 3, 79, 127
6, 71542, Note_off_c, 3, 74, 0
6, 72159, Control_c, 3, 1, 4
6, 72192, Control_c, 3, 1, 11
6, 72242, Control_c, 3, 1, 16
6, 72274, Control_c, 3, 1, 20
6, 72307, Control_c, 3, 1, 29
6, 72340, Control_c, 3, 1, 41
6, 72380, Control_c, 3, 1, 45
6, 72422, Control_c, 3, 1, 54
6, 72463, Control_c, 3, 1, 43
6, 72496, Control_c, 3, 1, 0
6, 72600, Note_off_c, 3, 79, 0
6, 72640, Note_on_c, 3, 79, 113
6, 72726, Note_off_c, 3, 79, 0
6, 72804, Note_on_c, 3, 79, 118
6, 72887, Note_off_c, 3, 79, 0
6, 72948, Note_on_c, 3, 79, 115
6, 73127, Note_on_c, 3, 77, 117
6, 73161, Note_off_c, 3, 79, 0
6, 73313, Note_off_c, 3, 77, 0
6, 73324, Note_on_c, 3, 76, 122
6, 73451, Note_off_c, 3, 76, 0
6, 73459, Note_on_c, 3, 77, 122
6, 73741, Control_c, 3, 1, 27
6, 73774, Control_c, 3, 1, 52
6, 73806, Control_c, 3, 1, 61
6, 73848, Control_c, 3, 1, 0
6, 73864, Note_off_c, 3, 77, 0
6, 74862, Note_on_c, 3, 77, 127
6, 75205, Note_off_c, 3, 77, 0
6, 75219, Note_on_c, 3, 76, 127
6, 75557, Note_on_c, 3, 74, 122
6, 75558, Note_off_c, 3, 76, 0
6, 75816, Note_on_c, 3, 76, 125
6, 75831, Note_off_c, 3, 74, 0
6, 76189, Note_on_c, 3, 74, 124
6, 76209, Note_off_c, 3, 76, 0
6, 76519, Note_on_c, 3, 72, 118
6, 76520, Note_off_c, 3, 74, 0
6, 76728, Note_off_c, 3, 72, 0
6, 76758, Pitch_bend_c, 3, 7088
6, 76772, Note_on_c, 3, 72, 127
6, 76775, Pitch_bend_c, 3, 6720
6, 76791, Pitch_bend_c, 3, 7680
6, 76803, Pitch_bend_c, 3, 8192
6, 77136, Note_on_c, 3, 71, 125
6, 77137, Note_off_c, 3, 72, 0
6, 77483, Note_on_c, 3, 69, 122
6, 77484, Note_off_c, 3, 71, 0
6, 77727, Note_on_c, 3, 67, 127
6, 77751, Note_off_c, 3, 69, 0
6, 78049, Note_off_c, 3, 67, 0
6, 78251, Note_on_c, 3, 71, 127
6, 78472, Note_on_c, 3, 72, 125
6, 78474, Note_off_c, 3, 71, 0
6, 78709, Note_on_c, 3, 74, 125
6, 78729, Note_off_c, 3, 72, 0
6, 79203, Note_on_c, 3, 79, 127
6, 79222, Note_off_c, 3, 74, 0
6, 79839, Control_c, 3, 1, 4
6, 79872, Control_c, 3, 1, 11
6, 79922, Control_c, 3, 1, 16
6, 79954, Control_c, 3, 1, 20
6, 79987, Control_c, 3, 1, 29
6, 80020, Control_c, 3, 1, 41
6, 80060, Control_c, 3, 1, 45
6, 80102, Control_c, 3, 1, 54
6, 80143, Control_c, 3, 1, 43
6, 80176, Control_c, 3, 1, 0
6, 80280, Note_off_c, 3, 79, 0
6, 80320, Note_on_c, 3, 79, 113
6, 80406, Note_off_c, 3, 79, 0
6, 80484, Note_on_c, 3, 79, 118
6, 80567, Note_off_c, 3, 79, 0
6, 80628, Note_on_c, 3, 79, 115
6, 80807, Note_on_c, 3, 77, 117
6, 80841, Note_off_c, 3, 79, 0
6, 80993, Note_off_c, 3, 77, 0
6, 81004, Note_on_c, 3, 76, 122
6, 81131, Note_off_c, 3, 76, 0
6, 81139, Note_on_c, 3, 77, 122
6, 81421, Control_c, 3, 1, 27
6, 81454, Control_c, 3, 1, 52
6, 81486, Control_c, 3, 1, 61
6, 81528, Control_c, 3, 1, 0
6, 81544, Note_off_c, 3, 77, 0
6, 82542, Note_on_c, 3, 77, 127
6, 82885, Note_off_c, 3, 77, 0
6, 82899, Note_on_c, 3, 76, 127
6, 83237, Note_on_c, 3, 74, 122
6, 83238, Note_off_c, 3, 76, 0
6, 83496, Note_on_c, 3, 76, 125
6, 83511, Note_off_c, 3, 74, 0
6, 83869, Note_on_c, 3, 74, 124
6, 83889, Note_off_c, 3, 76, 0
6, 84199, Note_on_c, 3, 72, 118
6, 84200, Note_off_c, 3, 74, 0
6, 84408, Note_off_c, 3, 72, 0
6, 84438, Pitch_bend_c, 3, 7088
6, 84452, Note_on_c, 3, 72, 127
6, 84455, Pitch_bend_c, 3, 6720
6, 84471, Pitch_bend_c, 3, 7680
6, 84483, Pitch_bend_c, 3, 8192
6, 84816, Note_on_c, 3, 71, 125
6, 84817, Note_off_c, 3, 72, 0
6, 85163, Note_on_c, 3, 69, 122
6, 85164, Note_off_c, 3, 71, 0
6, 85407, Note_on_c, 3, 67, 127
6, 85431, Note_off_c, 3, 69, 0
6, 85560, Note_off_c, 3, 67, 0
6, 86655, Note_on_c, 3, 81, 125
6, 86729, Note_off_c, 3, 81, 0
6, 86781, Note_on_c, 3, 81, 122
6, 86837, Note_off_c, 3, 81, 0
6, 86893, Note_on_c, 3, 81, 120
6, 86958, Note_off_c, 3, 81, 0
6, 87023, Note_on_c, 3, 81, 124
6, 87163, Note_off_c, 3, 81, 0
6, 87258, Note_on_c, 3, 81, 122
6, 87427, Note_off_c, 3, 81, 0
6, 87499, Note_on_c, 3, 81, 125
6, 87654, Note_off_c, 3, 81, 0
6, 87722, Note_on_c, 3, 81, 118
6, 87816, Note_off_c, 3, 81, 0
6, 87853, Note_on_c, 3, 83, 127
6, 88051, Note_off_c, 3, 83, 0
6, 88069, Note_on_c, 3, 81, 122
6, 88283, Control_c, 3, 1, 73
6, 88316, Control_c, 3, 1, 89
6, 88368, Control_c, 3, 1, 0
6, 88406, Note_off_c, 3, 81, 0
6, 88565, Note_on_c, 3, 81, 127
6, 88659, Note_off_c, 3, 81, 0
6, 88684, Note_on_c, 3, 81, 116
6, 88756, Note_off_c, 3, 81, 0
6, 88810, Note_on_c, 3, 81, 122
6, 88891, Note_off_c, 3, 81, 0
6, 88938, Note_on_c, 3, 81, 117
6, 89084, Note_off_c, 3, 81, 0
6, 89166, Note_on_c, 3, 81, 120
6, 89332, Note_off_c, 3, 81, 0
6, 89415, Note_on_c, 3, 81, 122
6, 89566, Note_off_c, 3, 81, 0
6, 89656, Note_on_c, 3, 81, 124
6, 89776, Note_on_c, 3, 83, 124
6, 89778, Note_off_c, 3, 81, 0
6, 89979, Note_off_c, 3, 83, 0
6, 89988, Note_on_c, 3, 81, 125
6, 90149, Note_off_c, 3, 81, 0
6, 90237, Note_on_c, 3, 81, 125
6, 90615, Note_on_c, 3, 79, 122
6, 90616, Note_off_c, 3, 81, 0
6, 90906, Note_off_c, 3, 79, 0
6, 90960, Note_on_c, 3, 79, 122
6, 91147, Note_off_c, 3, 79, 0
6, 91223, Note_on_c, 3, 79, 126
6, 91573, Note_on_c, 3, 77, 125
6, 91600, Note_off_c, 3, 79, 0
6, 91925, Note_on_c, 3, 76, 122
6, 91928, Note_off_c, 3, 77, 0
6, 92158, Note_off_c, 3, 76, 0
6, 92174, Note_on_c, 3, 77, 127
6, 92539, Note_on_c, 3, 76, 126
6, 92568, Note_off_c, 3, 77, 0
6, 92882, Note_on_c, 3, 74, 126
6, 92886, Note_off_c, 3, 76, 0
6, 93121, Note_off_c, 3, 74, 0
6, 93134, Note_on_c, 3, 76, 127
6, 93448, Control_c, 3, 1, 13
6, 93481, Control_c, 3, 1, 77
6, 93513, Control_c, 3, 1, 91
6, 93546, Control_c, 3, 1, 107
6, 93597, Control_c, 3, 1, 22
6, 93619, Note_off_c, 3, 76, 0
6, 93638, Control_c, 3, 1, 0
6, 94335, Note_on_c, 3, 81, 125
6, 94409, Note_off_c, 3, 81, 0
6, 94461, Note_on_c, 3, 81, 122
6, 94517, Note_off_c, 3, 81, 0
6, 94573, Note_on_c, 3, 81, 120
6, 94638, Note_off_c, 3, 81, 0
6, 94703, Note_on_c, 3, 81, 124
6, 94843, Note_off_c, 3, 81, 0
6, 94938, Note_on_c, 3, 81, 122
6, 95107, Note_off_c, 3, 81, 0
6, 95179, Note_on_c, 3, 81, 125
6, 95334, Note_off_c, 3, 81, 0
6, 95402, Note_on_c, 3, 81, 118
6, 95496, Note_off_c, 3, 81, 0
6, 95533, Note_on_c, 3, 83, 127
6, 95731, Note_off_c, 3, 83, 0
6, 95749, Note_on_c, 3, 81, 122
6, 95963, Control_c, 3, 1, 73
6, 95996, Control_c, 3, 1, 89
6, 96048, Control_c, 3, 1, 0
6, 96086, Note_off_c, 3, 81, 0
6, 96245, Note_on_c, 3, 81, 127
6, 96339, Note_off_c, 3, 81, 0
6, 96364, Note_on_c, 3, 81, 116
6, 96436, Note_off_c, 3, 81, 0
6, 96490, Note_on_c, 3, 81, 122
6, 96571, Note_off_c, 3, 81, 0
6, 96618, Note_on_c, 3, 81, 117
6, 96764, Note_off_c, 3, 81, 0
6, 96846, Note_on_c, 3, 81, 120
6, 97012, Note_off_c, 3, 81, 0
6, 97095, Note_on_c, 3, 81, 122
6, 97246, Note_off_c, 3, 81, 0
6, 97336, Note_on_c, 3, 81, 124
6, 97456, Note_on_c, 3, 83, 124
6, 97458, Note_off_c, 3, 81, 0
6, 97659, Note_off_c, 3, 83, 0
6, 97668, Note_on_c, 3, 81, 125
6, 97829, Note_off_c, 3, 81, 0
6, 97917, Note_on_c, 3, 81, 125
6, 98295, Note_on_c, 3, 79, 122
6, 98296, Note_off_c, 3, 81, 0
6, 98586, Note_off_c, 3, 79, 0
6, 98640, Note_on_c, 3, 79, 122
6, 98827, Note_off_c, 3, 79, 0
6, 98903, Note_on_c, 3, 79, 126
6, 99253, Note_on_c, 3, 77, 125
6, 99280, Note_off_c, 3, 79, 0
6, 99605, Note_on_c, 3, 76, 122
6, 99608, Note_off_c, 3, 77, 0
6, 99838, Note_off_c, 3, 76, 0
6, 99854, Note_on_c, 3, 77, 127
6, 100219, Note_on_c, 3, 76, 126
6, 100248, Note_off_c, 3, 77, 0
6, 100562, Note_on_c, 3, 74, 126
6, 100566, Note_off_c, 3, 76, 0
6, 100801, Note_off_c, 3, 74, 0
6, 100814, Note_on_c, 3, 76, 127
6, 101128, Control_c, 3, 1, 13
6, 101161, Control_c, 3, 1, 77
6, 101193, Control_c, 3, 1, 91
6, 101226, Control_c, 3, 1, 107
6, 101277, Control_c, 3, 1, 22
6, 101299, Note_off_c, 3, 76, 0
6, 101318, Control_c, 3, 1, 0
6, 101687, Pitch_bend_c, 3, 6944
6, 101704, Pitch_bend_c, 3, 5056
6, 101720, Pitch_bend_c, 3, 3632
6, 101737, Pitch_bend_c, 3, 2560
6, 101753, Pitch_bend_c, 3, 2480
6, 101759, Note_on_c, 3, 76, 126
6, 101786, Pitch_bend_c, 3, 4544
6, 101803, Pitch_bend_c, 3, 6608
6, 101819, Pitch_bend_c, 3, 8192
6, 102090, Note_off_c, 3, 76, 0
6, 102110, Note_on_c, 3, 74, 124
6, 102470, Note_on_c, 3, 72, 122
6, 102474, Note_off_c, 3, 74, 0
6, 102708, Note_on_c, 3, 74, 119
6, 102717, Note_off_c, 3, 72, 0
6, 103335, Note_off_c, 3, 74, 0
6, 103433, Note_on_c, 3, 74, 119
6, 103583, Note_off_c, 3, 74, 0
6, 103631, Pitch_bend_c, 3, 6976
6, 103648, Pitch_bend_c, 3, 5072
6, 103664, Pitch_bend_c, 3, 3408
6, 103675, Note_on_c, 3, 74, 120
6, 103681, Pitch_bend_c, 3, 3488
6, 103696, Pitch_bend_c, 3, 4320
6, 103712, Pitch_bend_c, 3, 6240
6, 103728, Pitch_bend_c, 3, 8192
6, 104033, Note_off_c, 3, 74, 0
6, 104053, Note_on_c, 3, 72, 118
6, 104403, Note_on_c, 3, 71, 117
6, 104415, Note_off_c, 3, 72, 0
6, 104655, Note_on_c, 3, 72, 116
6, 104664, Note_off_c, 3, 71, 0
6, 104756, Note_off_c, 3, 72, 0
6, 104763, Note_on_c, 3, 71, 106
6, 104869, Note_off_c, 3, 71, 0
6, 104876, Note_on_c, 3, 69, 106
6, 105519, Control_c, 3, 1, 2
6, 105552, Control_c, 3, 1, 20
6, 105585, Control_c, 3, 1, 34
6, 105616, Control_c, 3, 1, 48
6, 105649, Control_c, 3, 1, 57
6, 105682, Control_c, 3, 1, 84
6, 105715, Control_c, 3, 1, 107
6, 105750, Control_c, 3, 1, 105
6, 105799, Control_c, 3, 1, 121
6, 105832, Control_c, 3, 1, 84
6, 105866, Control_c, 3, 1, 68
6, 105898, Control_c, 3, 1, 0
6, 105952, Note_off_c, 3, 69, 0
6, 107051, Note_on_c, 3, 71, 127
6, 107272, Note_on_c, 3, 72, 125
6, 107274, Note_off_c, 3, 71, 0
6, 107509, Note_on_c, 3, 74, 125
6, 107529, Note_off_c, 3, 72, 0
6, 108003, Note_on_c, 3, 79, 127
6, 108022, Note_off_c, 3, 74, 0
6, 108639, Control_c, 3, 1, 4
6, 108672, Control_c, 3, 1, 11
6, 108722, Control_c, 3, 1, 16
6, 108754, Control_c, 3, 1, 20
6, 108787, Control_c, 3, 1, 29
6, 108820, Control_c, 3, 1, 41
6, 108860, Control_c, 3, 1, 45
6, 108902, Control_c, 3, 1, 54
6, 108943, Control_c, 3, 1, 43
6, 108976, Control_c, 3, 1, 0
6, 109080, Note_off_c, 3, 79, 0
6, 109120, Note_on_c, 3, 79, 113
6, 109206, Note_off_c, 3, 79, 0
6, 109284, Note_on_c, 3, 79, 118
6, 109367, Note_off_c, 3, 79, 0
6, 109428, Note_on_c, 3, 79, 115
6, 109607, Note_on_c, 3, 77, 117
6, 109641, Note_off_c, 3, 79, 0
6, 109793, Note_off_c, 3, 77, 0
6, 109804, Note_on_c, 3, 76, 122
6, 109931, Note_off_c, 3, 76, 0
6, 109939, Note_on_c, 3, 77, 122
6, 110221, Control_c, 3, 1, 27
6, 110254, Control_c, 3, 1, 52
6, 110286, Control_c, 3, 1, 61
6, 110328, Control_c, 3, 1, 0
6, 110344, Note_off_c, 3, 77, 0
6, 111342, Note_on_c, 3, 77, 127
6, 111685, Note_off_c, 3, 77, 0
6, 111699, Note_on_c, 3, 76, 127
6, 112037, Note_on_c, 3, 74, 122
6, 112038, Note_off_c, 3, 76, 0
6, 112296, Note_on_c, 3, 76, 125
6, 112311, Note_off_c, 3, 74, 0
6, 112669, Note_on_c, 3, 74, 124
6, 112689, Note_off_c, 3, 76, 0
6, 112999, Note_on_c, 3, 72, 118
6, 113000, Note_off_c, 3, 74, 0
6, 113208, Note_off_c, 3, 72, 0
6, 113238, Pitch_bend_c, 3, 7088
6, 113252, Note_on_c, 3, 72, 127
6, 113255, Pitch_bend_c, 3, 6720
6, 113271, Pitch_bend_c, 3, 7680
6, 113283, Pitch_bend_c, 3, 8192
6, 113616, Note_on_c, 3, 71, 125
6, 113617, Note_off_c, 3, 72, 0
6, 113963, Note_on_c, 3, 69, 122
6, 113964, Note_off_c, 3, 71, 0
6, 114207, Note_on_c, 3, 67, 127
6, 114231, Note_off_c, 3, 69, 0
6, 114529, Note_off_c, 3, 67, 0
6, 114731, Note_on_c, 3, 71, 127
6, 114952, Note_on_c, 3, 72, 125
6, 114954, Note_off_c, 3, 71, 0
6, 115189, Note_on_c, 3, 74, 125
6, 115209, Note_off_c, 3, 72, 0
6, 115683, Note_on_c, 3, 79, 127
6, 115702, Note_off_c, 3, 74, 0
6, 116319, Control_c, 3, 1, 4
6, 116352, Control_c, 3, 1, 11
6, 116402, Control_c, 3, 1, 16
6, 116434, Control_c, 3, 1, 20
6, 116467, Control_c, 3, 1, 29
6, 116500, Control_c, 3, 1, 41
6, 116540, Control_c, 3, 1, 45
6, 116582, Control_c, 3, 1, 54
6, 116623, Control_c, 3, 1, 43
6, 116656, Control_c, 3, 1, 0
6, 116760, Note_off_c, 3, 79, 0
6, 116800, Note_on_c, 3, 79, 113
6, 116886, Note_off_c, 3, 79, 0
6, 116964, Note_on_c, 3, 79, 118
6, 117047, Note_off_c, 3, 79, 0
6, 117108, Note_on_c, 3, 79, 115
6, 117287, Note_on_c, 3, 77, 117
6, 117321, Note_off_c, 3, 79, 0
6, 117473, Note_off_c, 3, 77, 0
6, 117484, Note_on_c, 3, 76, 122
6, 117611, Note_off_c, 3, 76, 0
6, 117619, Note_on_c, 3, 77, 122
6, 117901, Control_c, 3, 1, 27
6, 117934, Control_c, 3, 1, 52
6, 117966, Control_c, 3, 1, 61
6, 118008, Control_c, 3, 1, 0
6, 118024, Note_off_c, 3, 77, 0
6, 119022, Note_on_c, 3, 77, 127
6, 119365, Note_off_c, 3, 77, 0
6, 119379, Note_on_c, 3, 76, 127
6, 119717, Note_on_c, 3, 74, 122
6, 119718, Note_off_c, 3, 76, 0
6, 119976, Note_on_c, 3, 76, 125
6, 119991, Note_off_c, 3, 74, 0
6, 120349, Note_on_c, 3, 74, 124
6, 120369, Note_off_c, 3, 76, 0
6, 120679, Note_on_c, 3, 72, 118
6, 120680, Note_off_c, 3, 74, 0
6, 120888, Note_off_c, 3, 72, 0
6, 120918, Pitch_bend_c, 3, 7088
6, 120932, Note_on_c, 3, 72, 127
6, 120935, Pitch_bend_c, 3, 6720
6, 120951, Pitch_bend_c, 3, 7680
6, 120963, Pitch_bend_c, 3, 8192
6, 121296, Note_on_c, 3, 71, 125
6, 121297, Note_off_c, 3, 72, 0
6, 121643, Note_on_c, 3, 69, 122
6, 121644, Note_off_c, 3, 71, 0
6, 121887, Note_on_c, 3, 67, 127
6, 121911, Note_off_c, 3, 69, 0
6, 122040, Note_off_c, 3, 67, 0
6, 122411, Note_on_c, 3, 71, 127
6, 122632, Note_on_c, 3, 72, 125
6, 122634, Note_off_c, 3, 71, 0
6, 122869, Note_on_c, 3, 74, 125
6, 122889, Note_off_c, 3, 72, 0
6, 123363, Note_on_c, 3, 79, 127
6, 123382, Note_off_c, 3, 74, 0
6, 123999, Control_c, 3, 1, 4
6, 124032, Control_c, 3, 1, 11
6, 124082, Control_c, 3, 1, 16
6, 124114, Control_c, 3, 1, 20
6, 124147, Control_c, 3, 1, 29
6, 124180, Control_c, 3, 1, 41
6, 124220, Control_c, 3, 1, 45
6, 124262, Control_c, 3, 1, 54
6, 124303, Control_c, 3, 1, 43
6, 124336, Control_c, 3, 1, 0
6, 124440, Note_off_c, 3, 79, 0
6, 124480, Note_on_c, 3, 79, 113
6, 124566, Note_off_c, 3, 79, 0
6, 124644, Note_on_c, 3, 79, 118
6, 124727, Note_off_c, 3, 79, 0
6, 124788, Note_on_c, 3, 79, 115
6, 124967, Note_on_c, 3, 77, 117
6, 125001, Note_off_c, 3, 79, 0
6, 125153, Note_off_c, 3, 77, 0
6, 125164, Note_on_c, 3, 76, 122
6, 125291, Note_off_c, 3, 76, 0
6, 125299, Note_on_c, 3, 77, 122
6, 125581, Control_c, 3, 1, 27
6, 125614, Control_c, 3, 1, 52
6, 125646, Control_c, 3, 1, 61
6, 125688, Control_c, 3, 1, 0
6, 125704, Note_off_c, 3, 77, 0
6, 126702, Note_on_c, 3, 77, 127
6, 127045, Note_off_c, 3, 77, 0
6, 127059, Note_on_c, 3, 76, 127
6, 127397, Note_on_c, 3, 74, 122
6, 127398, Note_off_c, 3, 76, 0
6, 127656, Note_on_c, 3, 76, 125
6, 127671, Note_off_c, 3, 74, 0
6, 128029, Note_on_c, 3, 74, 124
6, 128049, Note_off_c, 3, 76, 0
6, 128359, Note_on_c, 3, 72, 118
6, 128360, Note_off_c, 3, 74, 0
6, 128568, Note_off_c, 3, 72, 0
6, 128598, Pitch_bend_c, 3, 7088
6, 128612, Note_on_c, 3, 72, 127
6, 128615, Pitch_bend_c, 3, 6720
6, 128631, Pitch_bend_c, 3, 7680
6, 128643, Pitch_bend_c, 3, 8192
6, 128976, Note_on_c, 3, 71, 125
6, 128977, Note_off_c, 3, 72, 0
6, 129323, Note_on_c, 3, 69, 122
6, 129324, Note_off_c, 3, 71, 0
6, 129567, Note_on_c, 3, 67, 127
6, 129591, Note_off_c, 3, 69, 0
6, 129889, Note_off_c, 3, 67, 0
6, 130091, Note_on_c, 3, 71, 127
6, 130312, Note_on_c, 3, 72, 125
6, 130314, Note_off_c, 3, 71, 0
6, 130549, Note_on_c, 3, 74, 125
6, 130569, Note_off_c, 3, 72, 0
6, 131043, Note_on_c, 3, 79, 127
6, 131062, Note_off_c, 3, 74, 0
6, 131679, Control_c, 3, 1, 4
6, 131712, Control_c, 3, 1, 11
6, 131762, Control_c, 3, 1, 16
6, 131794, Control_c, 3, 1, 20
6, 131827, Control_c, 3, 1, 29
6, 131860, Control_c, 3, 1, 41
6, 131900, Control_c, 3, 1, 45
6, 131942, Control_c, 3, 1, 54
6, 131983, Control_c, 3, 1, 43
6, 132016, Control_c, 3, 1, 0
6, 132120, Note_off_c, 3, 79, 0
6, 132160, Note_on_c, 3, 79, 113
6, 132246, Note_off_c, 3, 79, 0
6, 132324, Note_on_c, 3, 79, 118
6, 132407, Note_off_c, 3, 79, 0
6, 132468, Note_on_c, 3, 79, 115
6, 132647, Note_on_c, 3, 77, 117
6, 132681, Note_off_c, 3, 79, 0
6, 132833, Note_off_c, 3, 77, 0
6, 132844, Note_on_c, 3, 76, 122
6, 132971, Note_off_c, 3, 76, 0
6, 132979, Note_on_c, 3, 77, 122
6, 133261, Control_c, 3, 1, 27
6, 133294, Control_c, 3, 1, 52
6, 133326, Control_c, 3, 1, 61
6, 133368, Control_c, 3, 1, 0
6, 133384, Note_off_c, 3, 77, 0
6, 134382, Note_on_c, 3, 77, 127
6, 134725, Note_off_c, 3, 77, 0
6, 134739, Note_on_c, 3, 76, 127
6, 135077, Note_on_c, 3, 74, 122
6, 135078, Note_off_c, 3, 76, 0
6, 135336, Note_on_c, 3, 76, 125
6, 135351, Note_off_c, 3, 74, 0
6, 135709, Note_on_c, 3, 74, 124
6, 135729, Note_off_c, 3, 76, 0
6, 136039, Note_on_c, 3, 72, 118
6, 136040, Note_off_c, 3, 74, 0
6, 136248, Note_off_c, 3, 72, 0
6, 136278, Pitch_bend_c, 3, 7088
6, 136292, Note_on_c, 3, 72, 127
6, 136295, Pitch_bend_c, 3, 6720
6, 136311, Pitch_bend_c, 3, 7680
6, 136323, Pitch_bend_c, 3, 8192
6, 136656, Note_on_c, 3, 71, 125
6, 136657, Note_off_c, 3, 72, 0
6, 137003, Note_on_c, 3, 69, 122
6, 137004, Note_off_c, 3, 71, 0
6, 137247, Note_on_c, 3, 67, 127
6, 137271, Note_off_c, 3, 69, 0
6, 137400, Note_off_c, 3, 67, 0
6, 138720, Note_on_c, 3, 67, 124
6, 138864, Note_off_c, 3, 67, 0
6, 138960, Note_on_c, 3, 67, 118
6, 139038, Note_off_c, 3, 67, 0
6, 139080, Note_on_c, 3, 67, 118
6, 139238, Note_off_c, 3, 67, 0
6, 139320, Note_on_c, 3, 67, 119
6, 139457, Note_off_c, 3, 67, 0
6, 139511, Pitch_bend_c, 3, 7344
6, 139528, Pitch_bend_c, 3, 5072
6, 139545, Pitch_bend_c, 3, 3440
6, 139560, Note_on_c, 3, 69, 125
6, 139561, Pitch_bend_c, 3, 3408
6, 139580, Pitch_bend_c, 3, 5280
6, 139604, Pitch_bend_c, 3, 8192
6, 139800, Note_on_c, 3, 67, 122
6, 139832, Note_off_c, 3, 69, 0
6, 140001, Note_off_c, 3, 67, 0
6, 140640, Note_on_c, 3, 67, 122
6, 140811, Note_off_c, 3, 67, 0
6, 140880, Note_on_c, 3, 67, 116
6, 140952, Note_off_c, 3, 67, 0
6, 141000, Note_on_c, 3, 67, 120
6, 141167, Note_off_c, 3, 67, 0
6, 141240, Note_on_c, 3, 67, 119
6, 141398, Note_off_c, 3, 67, 0
6, 141432, Pitch_bend_c, 3, 6320
6, 141449, Pitch_bend_c, 3, 4368
6, 141465, Pitch_bend_c, 3, 3008
6, 141480, Note_on_c, 3, 69, 124
6, 141481, Pitch_bend_c, 3, 3152
6, 141501, Pitch_bend_c, 3, 5168
6, 141517, Pitch_bend_c, 3, 8192
6, 141720, Note_on_c, 3, 67, 122
6, 141745, Note_off_c, 3, 69, 0
6, 141923, Note_off_c, 3, 67, 0
6, 142560, Note_on_c, 3, 67, 127
6, 142717, Note_off_c, 3, 67, 0
6, 142800, Note_on_c, 3, 67, 120
6, 142886, Note_off_c, 3, 67, 0
6, 142920, Note_on_c, 3, 67, 118
6, 143090, Note_off_c, 3, 67, 0
6, 143160, Note_on_c, 3, 67, 120
6, 143286, Note_off_c, 3, 67, 0
6, 143358, Pitch_bend_c, 3, 6944
6, 143375, Pitch_bend_c, 3, 4960
6, 143391, Pitch_bend_c, 3, 3520
6, 143400, Note_on_c, 3, 69, 125
6, 143401, Pitch_bend_c, 3, 2896
6, 143423, Pitch_bend_c, 3, 4112
6, 143446, Pitch_bend_c, 3, 8192
6, 143623, Note_off_c, 3, 69, 0
6, 143640, Note_on_c, 3, 67, 117
6, 143762, Note_off_c, 3, 67, 0
6, 143985, Pitch_bend_c, 3, 7024
6, 144000, Note_on_c, 3, 69, 126
6, 144003, Pitch_bend_c, 3, 5248
6, 144060, Pitch_bend_c, 3, 8192
6, 144360, Note_on_c, 3, 67, 120
6, 144386, Note_off_c, 3, 69, 0
6, 144682, Note_off_c, 3, 67, 0
6, 144720, Note_on_c, 3, 62, 122
6, 144935, Note_off_c, 3, 62, 0
6, 144945, Pitch_bend_c, 3, 6032
6, 144960, Note_on_c, 3, 69, 124
6, 144961, Pitch_bend_c, 3, 3488
6, 144978, Pitch_bend_c, 3, 3600
6, 145009, Pitch_bend_c, 3, 8192
6, 145320, Note_on_c, 3, 67, 124
6, 145331, Note_off_c, 3, 69, 0
6, 145686, Note_off_c, 3, 67, 0
6, 146400, Note_on_c, 3, 67, 124
6, 146544, Note_off_c, 3, 67, 0
6, 146640, Note_on_c, 3, 67, 118
6, 146718, Note_off_c, 3, 67, 0
6, 146760, Note_on_c, 3, 67, 118
6, 146918, Note_off_c, 3, 67, 0
6, 147000, Note_on_c, 3, 67, 119
6, 147137, Note_off_c, 3, 67, 0
6, 147191, Pitch_bend_c, 3, 7344
6, 147208, Pitch_bend_c, 3, 5072
6, 147225, Pitch_bend_c, 3, 3440
6, 147240, Note_on_c, 3, 69, 125
6, 147241, Pitch_bend_c, 3, 3408
6, 147260, Pitch_bend_c, 3, 5280
6, 147284, Pitch_bend_c, 3, 8192
6, 147480, Note_on_c, 3, 67, 122
6, 147512, Note_off_c, 3, 69, 0
6, 147681, Note_off_c, 3, 67, 0
6, 148320, Note_on_c, 3, 67, 122
6, 148491, Note_off_c, 3, 67, 0
6, 148560, Note_on_c, 3, 67, 116
6, 148632, Note_off_c, 3, 67, 0
6, 148680, Note_on_c, 3, 67, 120
6, 148847, Note_off_c, 3, 67, 0
6, 148920, Note_on_c, 3, 67, 119
6, 149078, Note_off_c, 3, 67, 0
6, 149112, Pitch_bend_c, 3, 6320
6, 149129, Pitch_bend_c, 3, 4368
6, 149145, Pitch_bend_c, 3, 3008
6, 149160, Note_on_c, 3, 69, 124
6, 149161, Pitch_bend_c, 3, 3152
6, 149181, Pitch_bend_c, 3, 5168
6, 149197, Pitch_bend_c, 3, 8192
6, 149400, Note_on_c, 3, 67, 122
6, 149425, Note_off_c, 3, 69, 0
6, 149603, Note_off_c, 3, 67, 0
6, 150240, Note_on_c, 3, 67, 127
6, 150397, Note_off_c, 3, 67, 0
6, 150480, Note_on_c, 3, 67, 120
6, 150566, Note_off_c, 3, 67, 0
6, 150600, Note_on_c, 3, 67, 118
6, 150770, Note_off_c, 3, 67, 0
6, 150840, Note_on_c, 3, 67, 120
6, 150966, Note_off_c, 3, 67, 0
6, 151038, Pitch_bend_c, 3, 6944
6, 151055, Pitch_bend_c, 3, 4960
6, 151071, Pitch_bend_c, 3, 3520
6, 151080, Note_on_c, 3, 69, 125
6, 151081, Pitch_bend_c, 3, 2896
6, 151103, Pitch_bend_c, 3, 4112
6, 151126, Pitch_bend_c, 3, 8192
6, 151303, Note_off_c, 3, 69, 0
6, 151320, Note_on_c, 3, 67, 117
6, 151442, Note_off_c, 3, 67, 0
6, 151665, Pitch_bend_c, 3, 7024
6, 151680, Note_on_c, 3, 69, 126
6, 151683, Pitch_bend_c, 3, 5248
6, 151740, Pitch_bend_c, 3, 8192
6, 152040, Note_on_c, 3, 67, 120
6, 152066, Note_off_c, 3, 69, 0
6, 152362, Note_off_c, 3, 67, 0
6, 152400, Note_on_c, 3, 62, 122
6, 152615, Note_off_c, 3, 62, 0
6, 152625, Pitch_bend_c, 3, 6032
6, 152640, Note_on_c, 3, 69, 124
6, 152641, Pitch_bend_c, 3, 3488
6, 152658, Pitch_bend_c, 3, 3600
6, 152689, Pitch_bend_c, 3, 8192
6, 153000, Note_on_c, 3, 67, 124
6, 153011, Note_off_c, 3, 69, 0
6, 153366, Note_off_c, 3, 67, 0
6, 154080, Note_on_c, 3, 67, 124
6, 154224, Note_off_c, 3, 67, 0
6, 154320, Note_on_c, 3, 67, 118
6, 154398, Note_off_c, 3, 67, 0
6, 154440, Note_on_c, 3, 67, 118
6, 154598, Note_off_c, 3, 67, 0
6, 154680, Note_on_c, 3, 67, 119
6, 154817, Note_off_c, 3, 67, 0
6, 154871, Pitch_bend_c, 3, 7344
6, 154888, Pitch_bend_c, 3, 5072
6, 154905, Pitch_bend_c, 3, 3440
6, 154920, Note_on_c, 3, 69, 125
6, 154921, Pitch_bend_c, 3, 3408
6, 154940, Pitch_bend_c, 3, 5280
6, 154964, Pitch_bend_c, 3, 8192
6, 155160, Note_on_c, 3, 67, 122
6, 155192, Note_off_c, 3, 69, 0
6, 155361, Note_off_c, 3, 67, 0
6, 156000, Note_on_c, 3, 67, 122
6, 156171, Note_off_c, 3, 67, 0
6, 156240, Note_on_c, 3, 67, 116
6, 156312, Note_off_c, 3, 67, 0
6, 156360, Note_on_c, 3, 67, 120
6, 156527, Note_off_c, 3, 67, 0
6, 156600, Note_on_c, 3, 67, 119
6, 156758, Note_off_c, 3, 67, 0
6, 156792, Pitch_bend_c, 3, 6320
6, 156809, Pitch_bend_c, 3, 4368
6, 156825, Pitch_bend_c, 3, 3008
6, 156840, Note_on_c, 3, 69, 124
6, 156841, Pitch_bend_c, 3, 3152
6, 156861, Pitch_bend_c, 3, 5168
6, 156877, Pitch_bend_c, 3, 8192
6, 157080, Note_on_c, 3, 67, 122
6, 157105, Note_off_c, 3, 69, 0
6, 157283, Note_off_c, 3, 67, 0
6, 157920, Note_on_c, 3, 67, 127
6, 158077, Note_off_c, 3, 67, 0
6, 158160, Note_on_c, 3, 67, 120
6, 158246, Note_off_c, 3, 67, 0
6, 158280, Note_on_c, 3, 67, 118
6, 158450, Note_off_c, 3, 67, 0
6, 158520, Note_on_c, 3, 67, 120
6, 158646, Note_off_c, 3, 67, 0
6, 158718, Pitch_bend_c, 3, 6944
6, 158735, Pitch_bend_c, 3, 4960
6, 158751, Pitch_bend_c, 3, 3520
6, 158760, Note_on_c, 3, 69, 125
6, 158761, Pitch_bend_c, 3, 2896
6, 158783, Pitch_bend_c, 3, 4112
6, 158806, Pitch_bend_c, 3, 8192
6, 158983, Note_off_c, 3, 69, 0
6, 159000, Note_on_c, 3, 67, 117
6, 159122, Note_off_c, 3, 67, 0
6, 159345, Pitch_bend_c, 3, 7024
6, 159360, Note_on_c, 3, 69, 126
6, 159363, Pitch_bend_c, 3, 5248
6, 159420, Pitch_bend_c, 3, 8192
6, 159720, Note_on_c, 3, 67, 120
6, 159746, Note_off_c, 3, 69, 0
6, 160042, Note_off_c, 3, 67, 0
6, 160080, Note_on_c, 3, 62, 122
6, 160295, Note_off_c, 3, 62, 0
6, 160305, Pitch_bend_c, 3, 6032
6, 160320, Note_on_c, 3, 69, 124
6, 160321, Pitch_bend_c, 3, 3488
6, 160338, Pitch_bend_c, 3, 3600
6, 160369, Pitch_bend_c, 3, 8192
6, 160680, Note_on_c, 3, 67, 124
6, 160691, Note_off_c, 3, 69, 0
6, 161046, Note_off_c, 3, 67, 0
6, 161760, Note_on_c, 3, 67, 124
6, 161904, Note_off_c, 3, 67, 0
6, 162000, Note_on_c, 3, 67, 118
6, 162078, Note_off_c, 3, 67, 0
6, 162120, Note_on_c, 3, 67, 118
6, 162278, Note_off_c, 3, 67, 0
6, 162360, Note_on_c, 3, 67, 119
6, 162497, Note_off_c, 3, 67, 0
6, 162551, Pitch_bend_c, 3, 7344
6, 162568, Pitch_bend_c, 3, 5072
6, 162585, Pitch_bend_c, 3, 3440
6, 162600, Note_on_c, 3, 69, 125
6, 162601, Pitch_bend_c, 3, 3408
6, 162620, Pitch_bend_c, 3, 5280
6, 162644, Pitch_bend_c, 3, 8192
6, 162840, Note_on_c, 3, 67, 122
6, 162872, Note_off_c, 3, 69, 0
6, 163041, Note_off_c, 3, 67, 0
6, 163680, Note_on_c, 3, 67, 122
6, 163851, Note_off_c, 3, 67, 0
6, 163920, Note_on_c, 3, 67, 116
6, 163992, Note_off_c, 3, 67, 0
6, 164040, Note_on_c, 3, 67, 120
6, 164207, Note_off_c, 3, 67, 0
6, 164280, Note_on_c, 3, 67, 119
6, 164438, Note_off_c, 3, 67, 0
6, 164472, Pitch_bend_c, 3, 6320
6, 164489, Pitch_bend_c, 3, 4368
6, 164505, Pitch_bend_c, 3, 3008
6, 164520, Note_on_c, 3, 69, 124
6, 164521, Pitch_bend_c, 3, 3152
6, 164541, Pitch_bend_c, 3, 5168
6, 164557, Pitch_bend_c, 3, 8192
6, 164760, Note_on_c, 3, 67, 122
6, 164785, Note_off_c, 3, 69, 0
6, 164963, Note_off_c, 3, 67, 0
6, 165600, Note_on_c, 3, 67, 127
6, 165757, Note_off_c, 3, 67, 0
6, 165840, Note_on_c, 3, 67, 120
6, 165926, Note_off_c, 3, 67, 0
6, 165960, Note_on_c, 3, 67, 118
6, 166130, Note_off_c, 3, 67, 0
6, 166200, Note_on_c, 3, 67, 120
6, 166326, Note_off_c, 3, 67, 0
6, 166398, Pitch_bend_c, 3, 6944
6, 166415, Pitch_bend_c, 3, 4960
6, 166431, Pitch_bend_c, 3, 3520
6, 166440, Note_on_c, 3, 69, 125
6, 166441, Pitch_bend_c, 3, 2896
6, 166463, Pitch_bend_c, 3, 4112
6, 166486, Pitch_bend_c, 3, 8192
6, 166663, Note_off_c, 3, 69, 0
6, 166680, Note_on_c, 3, 67, 117
6, 166802, Note_off_c, 3, 67, 0
6, 167025, Pitch_bend_c, 3, 7024
6, 167040, Note_on_c, 3, 69, 126
6, 167043, Pitch_bend_c, 3, 5248
6, 167100, Pitch_bend_c, 3, 8192
6, 167400, Note_on_c, 3, 67, 120
6, 167426, Note_off_c, 3, 69, 0
6, 167722, Note_off_c, 3, 67, 0
6, 167760, Note_on_c, 3, 62, 122
6, 167975, Note_off_c, 3, 62, 0
6, 167985, Pitch_bend_c, 3, 6032
6, 168000, Note_on_c, 3, 69, 124
6, 168001, Pitch_bend_c, 3, 3488
6, 168018, Pitch_bend_c, 3, 3600
6, 168049, Pitch_bend_c, 3, 8192
6, 168360, Note_on_c, 3, 67, 124
6, 168371, Note_off_c, 3, 69, 0
6, 168726, Note_off_c, 3, 67, 0
6, 170641, Control_c, 3, 7, 100
6, 170641, End_track
7, 0, Start_track
7, 0, Title_t, "\000"
7, 0, Program_c, 4, 7
7, 0, Control_c, 4, 7, 90
7, 0, Control_c, 4, 10, 81
7, 0, Control_c, 4, 91, 67
7, 0, Control_c, 4, 93, 127
7, 670, Control_c, 4, 11, 127
7, 27000, Note_on_c, 4, 45, 94
7, 27081, Note_off_c, 4, 45, 0
7, 27120, Note_on_c, 4, 52, 101
7, 27120, Note_on_c, 4, 57, 94
7, 27174, Note_off_c, 4, 57, 0
7, 27177, Note_off_c, 4, 52, 0
7, 27240, Note_on_c, 4, 52, 101
7, 27240, Note_on_c, 4, 57, 98
7, 27307, Note_off_c, 4, 52, 0
7, 27312, Note_off_c, 4, 57, 0
7, 27480, Note_on_c, 4, 45, 83
7, 27544, Note_off_c, 4, 45, 0
7, 27600, Note_on_c, 4, 52, 95
7, 27600, Note_on_c, 4, 57, 88
7, 27648, Note_off_c, 4, 57, 0
7, 27650, Note_off_c, 4, 52, 0
7, 27720, Note_on_c, 4, 52, 86
7, 27720, Note_on_c, 4, 57, 87
7, 27774, Note_off_c, 4, 52, 0
7, 27774, Note_off_c, 4, 57, 0
7, 27960, Note_on_c, 4, 45, 69
7, 28010, Note_off_c, 4, 45, 0
7, 28080, Note_on_c, 4, 52, 70
7, 28080, Note_on_c, 4, 57, 64
7, 28135, Note_off_c, 4, 57, 0
7, 28145, Note_off_c, 4, 52, 0
7, 28200, Note_on_c, 4, 52, 77
7, 28200, Note_on_c, 4, 57, 77
7, 28260, Note_off_c, 4, 52, 0
7, 28263, Note_off_c, 4, 57, 0
7, 28440, Note_on_c, 4, 45, 77
7, 28492, Note_off_c, 4, 45, 0
7, 28560, Note_on_c, 4, 52, 96
7, 28560, Note_on_c, 4, 57, 94
7, 28620, Note_off_c, 4, 52, 0
7, 28623, Note_off_c, 4, 57, 0
7, 28680, Note_on_c, 4, 52, 101
7, 28680, Note_on_c, 4, 57, 99
7, 28758, Note_off_c, 4, 57, 0
7, 28763, Note_off_c, 4, 52, 0
7, 28920, Note_on_c, 4, 45, 71
7, 28979, Note_off_c, 4, 45, 0
7, 29040, Note_on_c, 4, 52, 82
7, 29040, Note_on_c, 4, 57, 69
7, 29073, Note_off_c, 4, 57, 0
7, 29094, Note_off_c, 4, 52, 0
7, 29160, Note_on_c, 4, 52, 94
7, 29160, Note_on_c, 4, 57, 92
7, 29217, Note_off_c, 4, 57, 0
7, 29223, Note_off_c, 4, 52, 0
7, 29400, Note_on_c, 4, 45, 86
7, 29465, Note_off_c, 4, 45, 0
7, 29520, Note_on_c, 4, 52, 96
7, 29520, Note_on_c, 4, 57, 92
7, 29564, Note_off_c, 4, 57, 0
7, 29571, Note_off_c, 4, 52, 0
7, 29640, Note_on_c, 4, 52, 94
7, 29640, Note_on_c, 4, 57, 92
7, 29707, Note_off_c, 4, 57, 0
7, 29709, Note_off_c, 4, 52, 0
7, 29880, Note_on_c, 4, 45, 74
7, 29941, Note_off_c, 4, 45, 0
7, 30000, Note_on_c, 4, 52, 92
7, 30000, Note_on_c, 4, 57, 82
7, 30042, Note_off_c, 4, 57, 0
7, 30051, Note_off_c, 4, 52, 0
7, 30120, Note_on_c, 4, 52, 94
7, 30120, Note_on_c, 4, 57, 89
7, 30175, Note_off_c, 4, 57, 0
7, 30181, Note_off_c, 4, 52, 0
7, 30360, Note_on_c, 4, 45, 76
7, 30424, Note_off_c, 4, 45, 0
7, 30480, Note_on_c, 4, 52, 90
7, 30480, Note_on_c, 4, 57, 86
7, 30523, Note_off_c, 4, 52, 0
7, 30524, Note_off_c, 4, 57, 0
7, 30600, Note_on_c, 4, 52, 92
7, 30600, Note_on_c, 4, 57, 90
7, 30654, Note_off_c, 4, 57, 0
7, 30657, Note_off_c, 4, 52, 0
7, 30840, Note_on_c, 4, 45, 77
7, 30896, Note_off_c, 4, 45, 0
7, 30960, Note_on_c, 4, 52, 76
7, 31013, Note_off_c, 4, 52, 0
7, 31080, Note_on_c, 4, 52, 82
7, 31080, Note_on_c, 4, 57, 82
7, 31138, Note_off_c, 4, 57, 0
7, 31141, Note_off_c, 4, 52, 0
7, 31320, Note_on_c, 4, 45, 87
7, 31379, Note_off_c, 4, 45, 0
7, 31440, Note_on_c, 4, 52, 101
7, 31440, Note_on_c, 4, 57, 97
7, 31483, Note_off_c, 4, 57, 0
7, 31489, Note_off_c, 4, 52, 0
7, 31560, Note_on_c, 4, 52, 104
7, 31560, Note_on_c, 4, 57, 103
7, 31611, Note_off_c, 4, 52, 0
7, 31618, Note_off_c, 4, 57, 0
7, 31800, Note_on_c, 4, 45, 71
7, 31861, Note_off_c, 4, 45, 0
7, 31920, Note_on_c, 4, 52, 81
7, 31920, Note_on_c, 4, 57, 78
7, 31963, Note_off_c, 4, 57, 0
7, 31967, Note_off_c, 4, 52, 0
7, 32040, Note_on_c, 4, 52, 101
7, 32040, Note_on_c, 4, 57, 98
7, 32096, Note_off_c, 4, 52, 0
7, 32098, Note_off_c, 4, 57, 0
7, 32280, Note_on_c, 4, 45, 81
7, 32345, Note_off_c, 4, 45, 0
7, 32400, Note_on_c, 4, 52, 95
7, 32400, Note_on_c, 4, 57, 88
7, 32441, Note_off_c, 4, 57, 0
7, 32443, Note_off_c, 4, 52, 0
7, 32520, Note_on_c, 4, 52, 94
7, 32520, Note_on_c, 4, 57, 92
7, 32570, Note_off_c, 4, 57, 0
7, 32577, Note_off_c, 4, 52, 0
7, 32880, Note_on_c, 4, 43, 81
7, 32880, Note_on_c, 4, 50, 97
7, 32880, Note_on_c, 4, 55, 94
7, 32910, Note_off_c, 4, 43, 0
7, 32928, Note_off_c, 4, 50, 0
7, 32930, Note_off_c, 4, 55, 0
7, 33000, Note_on_c, 4, 50, 92
7, 33000, Note_on_c, 4, 55, 95
7, 33047, Note_off_c, 4, 50, 0
7, 33056, Note_off_c, 4, 55, 0
7, 33240, Note_on_c, 4, 43, 71
7, 33290, Note_off_c, 4, 43, 0
7, 33360, Note_on_c, 4, 50, 92
7, 33360, Note_on_c, 4, 55, 87
7, 33399, Note_off_c, 4, 50, 0
7, 33400, Note_off_c, 4, 55, 0
7, 33480, Note_on_c, 4, 50, 95
7, 33480, Note_on_c, 4, 55, 92
7, 33531, Note_off_c, 4, 50, 0
7, 33539, Note_off_c, 4, 55, 0
7, 33720, Note_on_c, 4, 41, 77
7, 33773, Note_off_c, 4, 41, 0
7, 33840, Note_on_c, 4, 48, 95
7, 33840, Note_on_c, 4, 53, 90
7, 33880, Note_off_c, 4, 48, 0
7, 33881, Note_off_c, 4, 53, 0
7, 33960, Note_on_c, 4, 48, 97
7, 33960, Note_on_c, 4, 53, 95
7, 34008, Note_off_c, 4, 48, 0
7, 34016, Note_off_c, 4, 53, 0
7, 34200, Note_on_c, 4, 41, 81
7, 34251, Note_off_c, 4, 41, 0
7, 34320, Note_on_c, 4, 48, 90
7, 34320, Note_on_c, 4, 53, 86
7, 34358, Note_off_c, 4, 53, 0
7, 34363, Note_off_c, 4, 48, 0
7, 34440, Note_on_c, 4, 48, 97
7, 34440, Note_on_c, 4, 53, 95
7, 34494, Note_off_c, 4, 48, 0
7, 34501, Note_off_c, 4, 53, 0
7, 34680, Note_on_c, 4, 41, 81
7, 34736, Note_off_c, 4, 41, 0
7, 34800, Note_on_c, 4, 48, 90
7, 34800, Note_on_c, 4, 53, 84
7, 34841, Note_off_c, 4, 53, 0
7, 34846, Note_off_c, 4, 48, 0
7, 34920, Note_on_c, 4, 48, 96
7, 34920, Note_on_c, 4, 53, 94
7, 34984, Note_off_c, 4, 48, 0
7, 34988, Note_off_c, 4, 53, 0
7, 35160, Note_on_c, 4, 41, 92
7, 35208, Note_off_c, 4, 41, 0
7, 35280, Note_on_c, 4, 48, 99
7, 35280, Note_on_c, 4, 53, 99
7, 35335, Note_off_c, 4, 48, 0
7, 35339, Note_off_c, 4, 53, 0
7, 36480, Note_on_c, 4, 50, 89
7, 36553, Note_off_c, 4, 50, 0
7, 36600, Note_on_c, 4, 55, 85
7, 36600, Note_on_c, 4, 59, 83
7, 36655, Note_off_c, 4, 59, 0
7, 36670, Note_off_c, 4, 55, 0
7, 36840, Note_on_c, 4, 55, 92
7, 36840, Note_on_c, 4, 59, 95
7, 36896, Note_off_c, 4, 59, 0
7, 36905, Note_off_c, 4, 55, 0
7, 37080, Note_on_c, 4, 50, 86
7, 37139, Note_off_c, 4, 50, 0
7, 37200, Note_on_c, 4, 55, 92
7, 37200, Note_on_c, 4, 59, 95
7, 37247, Note_off_c, 4, 59, 0
7, 37252, Note_off_c, 4, 55, 0
7, 37320, Note_on_c, 4, 55, 98
7, 37320, Note_on_c, 4, 59, 101
7, 37377, Note_off_c, 4, 59, 0
7, 37387, Note_off_c, 4, 55, 0
7, 37440, Note_on_c, 4, 50, 96
7, 37511, Note_off_c, 4, 50, 0
7, 37560, Note_on_c, 4, 55, 94
7, 37560, Note_on_c, 4, 59, 98
7, 37616, Note_off_c, 4, 59, 0
7, 37620, Note_off_c, 4, 55, 0
7, 37800, Note_on_c, 4, 55, 96
7, 37800, Note_on_c, 4, 59, 101
7, 37854, Note_off_c, 4, 59, 0
7, 37860, Note_off_c, 4, 55, 0
7, 38040, Note_on_c, 4, 50, 96
7, 38098, Note_off_c, 4, 50, 0
7, 38160, Note_on_c, 4, 55, 92
7, 38160, Note_on_c, 4, 59, 97
7, 38207, Note_off_c, 4, 59, 0
7, 38213, Note_off_c, 4, 55, 0
7, 38280, Note_on_c, 4, 55, 87
7, 38280, Note_on_c, 4, 59, 92
7, 38333, Note_off_c, 4, 59, 0
7, 38354, Note_off_c, 4, 55, 0
7, 38400, Note_on_c, 4, 50, 95
7, 38464, Note_off_c, 4, 50, 0
7, 38520, Note_on_c, 4, 53, 92
7, 38520, Note_on_c, 4, 57, 94
7, 38520, Note_on_c, 4, 60, 96
7, 38573, Note_off_c, 4, 57, 0
7, 38577, Note_off_c, 4, 60, 0
7, 38583, Note_off_c, 4, 53, 0
7, 38760, Note_on_c, 4, 53, 92
7, 38760, Note_on_c, 4, 57, 94
7, 38760, Note_on_c, 4, 60, 97
7, 38816, Note_off_c, 4, 57, 0
7, 38825, Note_off_c, 4, 53, 0
7, 38825, Note_off_c, 4, 60, 0
7, 39000, Note_on_c, 4, 50, 88
7, 39054, Note_off_c, 4, 50, 0
7, 39120, Note_on_c, 4, 53, 86
7, 39120, Note_on_c, 4, 57, 88
7, 39120, Note_on_c, 4, 60, 92
7, 39164, Note_off_c, 4, 60, 0
7, 39171, Note_off_c, 4, 57, 0
7, 39175, Note_off_c, 4, 53, 0
7, 39240, Note_on_c, 4, 53, 82
7, 39240, Note_on_c, 4, 57, 87
7, 39240, Note_on_c, 4, 60, 89
7, 39300, Note_off_c, 4, 57, 0
7, 39300, Note_off_c, 4, 60, 0
7, 39309, Note_off_c, 4, 53, 0
7, 39360, Note_on_c, 4, 50, 92
7, 39422, Note_off_c, 4, 50, 0
7, 39480, Note_on_c, 4, 53, 92
7, 39480, Note_on_c, 4, 57, 94
7, 39480, Note_on_c, 4, 60, 97
7, 39535, Note_off_c, 4, 60, 0
7, 39537, Note_off_c, 4, 57, 0
7, 39543, Note_off_c, 4, 53, 0
7, 39720, Note_on_c, 4, 53, 94
7, 39720, Note_on_c, 4, 57, 96
7, 39720, Note_on_c, 4, 60, 98
7, 39776, Note_off_c, 4, 57, 0
7, 39779, Note_off_c, 4, 53, 0
7, 39780, Note_off_c, 4, 60, 0
7, 39960, Note_on_c, 4, 50, 95
7, 40002, Note_off_c, 4, 50, 0
7, 40080, Note_on_c, 4, 53, 87
7, 40080, Note_on_c, 4, 57, 89
7, 40080, Note_on_c, 4, 60, 92
7, 40128, Note_off_c, 4, 60, 0
7, 40138, Note_off_c, 4, 53, 0
7, 40138, Note_off_c, 4, 57, 0
7, 40200, Note_on_c, 4, 53, 88
7, 40200, Note_on_c, 4, 57, 90
7, 40200, Note_on_c, 4, 60, 97
7, 40249, Note_off_c, 4, 53, 0
7, 40249, Note_off_c, 4, 57, 0
7, 40255, Note_off_c, 4, 60, 0
7, 40320, Note_on_c, 4, 53, 92
7, 40382, Note_off_c, 4, 53, 0
7, 40440, Note_on_c, 4, 57, 92
7, 40440, Note_on_c, 4, 60, 92
7, 40495, Note_off_c, 4, 57, 0
7, 40499, Note_off_c, 4, 60, 0
7, 40680, Note_on_c, 4, 57, 90
7, 40680, Note_on_c, 4, 60, 92
7, 40731, Note_off_c, 4, 57, 0
7, 40735, Note_off_c, 4, 60, 0
7, 40920, Note_on_c, 4, 53, 92
7, 40984, Note_off_c, 4, 53, 0
7, 41040, Note_on_c, 4, 57, 95
7, 41040, Note_on_c, 4, 60, 88
7, 41069, Note_off_c, 4, 60, 0
7, 41081, Note_off_c, 4, 57, 0
7, 41160, Note_on_c, 4, 57, 95
7, 41160, Note_on_c, 4, 60, 94
7, 41212, Note_off_c, 4, 60, 0
7, 41216, Note_off_c, 4, 57, 0
7, 41280, Note_on_c, 4, 52, 94
7, 41341, Note_off_c, 4, 52, 0
7, 41400, Note_on_c, 4, 55, 95
7, 41400, Note_on_c, 4, 60, 97
7, 41451, Note_off_c, 4, 55, 0
7, 41452, Note_off_c, 4, 60, 0
7, 41640, Note_on_c, 4, 55, 96
7, 41640, Note_on_c, 4, 60, 98
7, 41698, Note_off_c, 4, 55, 0
7, 41700, Note_off_c, 4, 60, 0
7, 41880, Note_on_c, 4, 52, 92
7, 41945, Note_off_c, 4, 52, 0
7, 42000, Note_on_c, 4, 55, 89
7, 42000, Note_on_c, 4, 60, 90
7, 42036, Note_off_c, 4, 60, 0
7, 42045, Note_off_c, 4, 55, 0
7, 42120, Note_on_c, 4, 55, 90
7, 42120, Note_on_c, 4, 60, 86
7, 42165, Note_off_c, 4, 60, 0
7, 42186, Note_off_c, 4, 55, 0
7, 42240, Note_on_c, 4, 50, 97
7, 42300, Note_off_c, 4, 50, 0
7, 42360, Note_on_c, 4, 55, 94
7, 42360, Note_on_c, 4, 59, 92
7, 42387, Note_off_c, 4, 59, 0
7, 42405, Note_off_c, 4, 55, 0
7, 42480, Note_on_c, 4, 55, 92
7, 42480, Note_on_c, 4, 59, 95
7, 42519, Note_off_c, 4, 59, 0
7, 42535, Note_off_c, 4, 55, 0
7, 42600, Note_on_c, 4, 55, 98
7, 42600, Note_on_c, 4, 59, 101
7, 42646, Note_off_c, 4, 59, 0
7, 42656, Note_off_c, 4, 55, 0
7, 42840, Note_on_c, 4, 50, 88
7, 42902, Note_off_c, 4, 50, 0
7, 42960, Note_on_c, 4, 55, 89
7, 42960, Note_on_c, 4, 59, 89
7, 42999, Note_off_c, 4, 59, 0
7, 43009, Note_off_c, 4, 55, 0
7, 43080, Note_on_c, 4, 55, 98
7, 43080, Note_on_c, 4, 59, 98
7, 43133, Note_off_c, 4, 59, 0
7, 43140, Note_off_c, 4, 55, 0
7, 43200, Note_on_c, 4, 50, 92
7, 43252, Note_off_c, 4, 50, 0
7, 43320, Note_on_c, 4, 55, 87
7, 43320, Note_on_c, 4, 59, 83
7, 43358, Note_off_c, 4, 59, 0
7, 43370, Note_off_c, 4, 55, 0
7, 43560, Note_on_c, 4, 55, 98
7, 43560, Note_on_c, 4, 59, 97
7, 43604, Note_off_c, 4, 59, 0
7, 43612, Note_off_c, 4, 55, 0
7, 43800, Note_on_c, 4, 50, 95
7, 43838, Note_off_c, 4, 50, 0
7, 43920, Note_on_c, 4, 55, 90
7, 43920, Note_on_c, 4, 59, 83
7, 43949, Note_off_c, 4, 59, 0
7, 43964, Note_off_c, 4, 55, 0
7, 44040, Note_on_c, 4, 55, 94
7, 44040, Note_on_c, 4, 59, 95
7, 44079, Note_off_c, 4, 59, 0
7, 44083, Note_off_c, 4, 55, 0
7, 44160, Note_on_c, 4, 50, 89
7, 44233, Note_off_c, 4, 50, 0
7, 44280, Note_on_c, 4, 55, 85
7, 44280, Note_on_c, 4, 59, 83
7, 44335, Note_off_c, 4, 59, 0
7, 44350, Note_off_c, 4, 55, 0
7, 44520, Note_on_c, 4, 55, 92
7, 44520, Note_on_c, 4, 59, 95
7, 44576, Note_off_c, 4, 59, 0
7, 44585, Note_off_c, 4, 55, 0
7, 44760, Note_on_c, 4, 50, 86
7, 44819, Note_off_c, 4, 50, 0
7, 44880, Note_on_c, 4, 55, 92
7, 44880, Note_on_c, 4, 59, 95
7, 44927, Note_off_c, 4, 59, 0
7, 44932, Note_off_c, 4, 55, 0
7, 45000, Note_on_c, 4, 55, 98
7, 45000, Note_on_c, 4, 59, 101
7, 45057, Note_off_c, 4, 59, 0
7, 45067, Note_off_c, 4, 55, 0
7, 45120, Note_on_c, 4, 50, 96
7, 45191, Note_off_c, 4, 50, 0
7, 45240, Note_on_c, 4, 55, 94
7, 45240, Note_on_c, 4, 59, 98
7, 45296, Note_off_c, 4, 59, 0
7, 45300, Note_off_c, 4, 55, 0
7, 45480, Note_on_c, 4, 55, 96
7, 45480, Note_on_c, 4, 59, 101
7, 45534, Note_off_c, 4, 59, 0
7, 45540, Note_off_c, 4, 55, 0
7, 45720, Note_on_c, 4, 50, 96
7, 45778, Note_off_c, 4, 50, 0
7, 45840, Note_on_c, 4, 55, 92
7, 45840, Note_on_c, 4, 59, 97
7, 45887, Note_off_c, 4, 59, 0
7, 45893, Note_off_c, 4, 55, 0
7, 45960, Note_on_c, 4, 55, 87
7, 45960, Note_on_c, 4, 59, 92
7, 46013, Note_off_c, 4, 59, 0
7, 46034, Note_off_c, 4, 55, 0
7, 46080, Note_on_c, 4, 50, 95
7, 46144, Note_off_c, 4, 50, 0
7, 46200, Note_on_c, 4, 53, 92
7, 46200, Note_on_c, 4, 57, 94
7, 46200, Note_on_c, 4, 60, 96
7, 46253, Note_off_c, 4, 57, 0
7, 46257, Note_off_c, 4, 60, 0
7, 46263, Note_off_c, 4, 53, 0
7, 46440, Note_on_c, 4, 53, 92
7, 46440, Note_on_c, 4, 57, 94
7, 46440, Note_on_c, 4, 60, 97
7, 46496, Note_off_c, 4, 57, 0
7, 46505, Note_off_c, 4, 53, 0
7, 46505, Note_off_c, 4, 60, 0
7, 46680, Note_on_c, 4, 50, 88
7, 46734, Note_off_c, 4, 50, 0
7, 46800, Note_on_c, 4, 53, 86
7, 46800, Note_on_c, 4, 57, 88
7, 46800, Note_on_c, 4, 60, 92
7, 46844, Note_off_c, 4, 60, 0
7, 46851, Note_off_c, 4, 57, 0
7, 46855, Note_off_c, 4, 53, 0
7, 46920, Note_on_c, 4, 53, 82
7, 46920, Note_on_c, 4, 57, 87
7, 46920, Note_on_c, 4, 60, 89
7, 46980, Note_off_c, 4, 57, 0
7, 46980, Note_off_c, 4, 60, 0
7, 46989, Note_off_c, 4, 53, 0
7, 47040, Note_on_c, 4, 50, 92
7, 47102, Note_off_c, 4, 50, 0
7, 47160, Note_on_c, 4, 53, 92
7, 47160, Note_on_c, 4, 57, 94
7, 47160, Note_on_c, 4, 60, 97
7, 47215, Note_off_c, 4, 60, 0
7, 47217, Note_off_c, 4, 57, 0
7, 47223, Note_off_c, 4, 53, 0
7, 47400, Note_on_c, 4, 53, 94
7, 47400, Note_on_c, 4, 57, 96
7, 47400, Note_on_c, 4, 60, 98
7, 47456, Note_off_c, 4, 57, 0
7, 47459, Note_off_c, 4, 53, 0
7, 47460, Note_off_c, 4, 60, 0
7, 47640, Note_on_c, 4, 50, 95
7, 47682, Note_off_c, 4, 50, 0
7, 47760, Note_on_c, 4, 53, 87
7, 47760, Note_on_c, 4, 57, 89
7, 47760, Note_on_c, 4, 60, 92
7, 47808, Note_off_c, 4, 60, 0
7, 47818, Note_off_c, 4, 53, 0
7, 47818, Note_off_c, 4, 57, 0
7, 47880, Note_on_c, 4, 53, 88
7, 47880, Note_on_c, 4, 57, 90
7, 47880, Note_on_c, 4, 60, 97
7, 47929, Note_off_c, 4, 53, 0
7, 47929, Note_off_c, 4, 57, 0
7, 47935, Note_off_c, 4, 60, 0
7, 48000, Note_on_c, 4, 53, 92
7, 48062, Note_off_c, 4, 53, 0
7, 48120, Note_on_c, 4, 57, 92
7, 48120, Note_on_c, 4, 60, 92
7, 48175, Note_off_c, 4, 57, 0
7, 48179, Note_off_c, 4, 60, 0
7, 48360, Note_on_c, 4, 57, 90
7, 48360, Note_on_c, 4, 60, 92
7, 48411, Note_off_c, 4, 57, 0
7, 48415, Note_off_c, 4, 60, 0
7, 48600, Note_on_c, 4, 53, 92
7, 48664, Note_off_c, 4, 53, 0
7, 48720, Note_on_c, 4, 57, 95
7, 48720, Note_on_c, 4, 60, 88
7, 48749, Note_off_c, 4, 60, 0
7, 48761, Note_off_c, 4, 57, 0
7, 48840, Note_on_c, 4, 57, 95
7, 48840, Note_on_c, 4, 60, 94
7, 48892, Note_off_c, 4, 60, 0
7, 48896, Note_off_c, 4, 57, 0
7, 48960, Note_on_c, 4, 52, 94
7, 49021, Note_off_c, 4, 52, 0
7, 49080, Note_on_c, 4, 55, 95
7, 49080, Note_on_c, 4, 60, 97
7, 49131, Note_off_c, 4, 55, 0
7, 49132, Note_off_c, 4, 60, 0
7, 49320, Note_on_c, 4, 55, 96
7, 49320, Note_on_c, 4, 60, 98
7, 49378, Note_off_c, 4, 55, 0
7, 49380, Note_off_c, 4, 60, 0
7, 49560, Note_on_c, 4, 52, 92
7, 49625, Note_off_c, 4, 52, 0
7, 49680, Note_on_c, 4, 55, 89
7, 49680, Note_on_c, 4, 60, 90
7, 49716, Note_off_c, 4, 60, 0
7, 49725, Note_off_c, 4, 55, 0
7, 49800, Note_on_c, 4, 55, 90
7, 49800, Note_on_c, 4, 60, 86
7, 49845, Note_off_c, 4, 60, 0
7, 49866, Note_off_c, 4, 55, 0
7, 49920, Note_on_c, 4, 50, 97
7, 49980, Note_off_c, 4, 50, 0
7, 50040, Note_on_c, 4, 55, 94
7, 50040, Note_on_c, 4, 59, 92
7, 50067, Note_off_c, 4, 59, 0
7, 50085, Note_off_c, 4, 55, 0
7, 50160, Note_on_c, 4, 55, 92
7, 50160, Note_on_c, 4, 59, 95
7, 50199, Note_off_c, 4, 59, 0
7, 50215, Note_off_c, 4, 55, 0
7, 50280, Note_on_c, 4, 55, 98
7, 50280, Note_on_c, 4, 59, 101
7, 50326, Note_off_c, 4, 59, 0
7, 50336, Note_off_c, 4, 55, 0
7, 50520, Note_on_c, 4, 50, 88
7, 50582, Note_off_c, 4, 50, 0
7, 50640, Note_on_c, 4, 55, 89
7, 50640, Note_on_c, 4, 59, 89
7, 50679, Note_off_c, 4, 59, 0
7, 50689, Note_off_c, 4, 55, 0
7, 50760, Note_on_c, 4, 55, 98
7, 50760, Note_on_c, 4, 59, 98
7, 50813, Note_off_c, 4, 59, 0
7, 50820, Note_off_c, 4, 55, 0
7, 50880, Note_on_c, 4, 50, 92
7, 50932, Note_off_c, 4, 50, 0
7, 51960, Note_on_c, 4, 45, 94
7, 52041, Note_off_c, 4, 45, 0
7, 52080, Note_on_c, 4, 52, 101
7, 52080, Note_on_c, 4, 57, 94
7, 52134, Note_off_c, 4, 57, 0
7, 52137, Note_off_c, 4, 52, 0
7, 52200, Note_on_c, 4, 52, 101
7, 52200, Note_on_c, 4, 57, 98
7, 52267, Note_off_c, 4, 52, 0
7, 52272, Note_off_c, 4, 57, 0
7, 52440, Note_on_c, 4, 45, 83
7, 52504, Note_off_c, 4, 45, 0
7, 52560, Note_on_c, 4, 52, 95
7, 52560, Note_on_c, 4, 57, 88
7, 52608, Note_off_c, 4, 57, 0
7, 52610, Note_off_c, 4, 52, 0
7, 52680, Note_on_c, 4, 52, 86
7, 52680, Note_on_c, 4, 57, 87
7, 52734, Note_off_c, 4, 52, 0
7, 52734, Note_off_c, 4, 57, 0
7, 52920, Note_on_c, 4, 45, 69
7, 52970, Note_off_c, 4, 45, 0
7, 53040, Note_on_c, 4, 52, 70
7, 53040, Note_on_c, 4, 57, 64
7, 53095, Note_off_c, 4, 57, 0
7, 53105, Note_off_c, 4, 52, 0
7, 53160, Note_on_c, 4, 52, 77
7, 53160, Note_on_c, 4, 57, 77
7, 53220, Note_off_c, 4, 52, 0
7, 53223, Note_off_c, 4, 57, 0
7, 53400, Note_on_c, 4, 45, 77
7, 53452, Note_off_c, 4, 45, 0
7, 53520, Note_on_c, 4, 52, 96
7, 53520, Note_on_c, 4, 57, 94
7, 53580, Note_off_c, 4, 52, 0
7, 53583, Note_off_c, 4, 57, 0
7, 53640, Note_on_c, 4, 52, 101
7, 53640, Note_on_c, 4, 57, 99
7, 53718, Note_off_c, 4, 57, 0
7, 53723, Note_off_c, 4, 52, 0
7, 53880, Note_on_c, 4, 45, 71
7, 53939, Note_off_c, 4, 45, 0
7, 54000, Note_on_c, 4, 52, 82
7, 54000, Note_on_c, 4, 57, 69
7, 54033, Note_off_c, 4, 57, 0
7, 54054, Note_off_c, 4, 52, 0
7, 54120, Note_on_c, 4, 52, 94
7, 54120, Note_on_c, 4, 57, 92
7, 54177, Note_off_c, 4, 57, 0
7, 54183, Note_off_c, 4, 52, 0
7, 54360, Note_on_c, 4, 45, 86
7, 54425, Note_off_c, 4, 45, 0
7, 54480, Note_on_c, 4, 52, 96
7, 54480, Note_on_c, 4, 57, 92
7, 54524, Note_off_c, 4, 57, 0
7, 54531, Note_off_c, 4, 52, 0
7, 54600, Note_on_c, 4, 52, 94
7, 54600, Note_on_c, 4, 57, 92
7, 54667, Note_off_c, 4, 57, 0
7, 54669, Note_off_c, 4, 52, 0
7, 54840, Note_on_c, 4, 45, 74
7, 54901, Note_off_c, 4, 45, 0
7, 54960, Note_on_c, 4, 52, 92
7, 54960, Note_on_c, 4, 57, 82
7, 55002, Note_off_c, 4, 57, 0
7, 55011, Note_off_c, 4, 52, 0
7, 55080, Note_on_c, 4, 52, 94
7, 55080, Note_on_c, 4, 57, 89
7, 55135, Note_off_c, 4, 57, 0
7, 55141, Note_off_c, 4, 52, 0
7, 55320, Note_on_c, 4, 45, 76
7, 55384, Note_off_c, 4, 45, 0
7, 55440, Note_on_c, 4, 52, 90
7, 55440, Note_on_c, 4, 57, 86
7, 55483, Note_off_c, 4, 52, 0
7, 55484, Note_off_c, 4, 57, 0
7, 55560, Note_on_c, 4, 52, 92
7, 55560, Note_on_c, 4, 57, 90
7, 55614, Note_off_c, 4, 57, 0
7, 55617, Note_off_c, 4, 52, 0
7, 55800, Note_on_c, 4, 45, 77
7, 55856, Note_off_c, 4, 45, 0
7, 55920, Note_on_c, 4, 52, 76
7, 55973, Note_off_c, 4, 52, 0
7, 56040, Note_on_c, 4, 52, 82
7, 56040, Note_on_c, 4, 57, 82
7, 56098, Note_off_c, 4, 57, 0
7, 56101, Note_off_c, 4, 52, 0
7, 56280, Note_on_c, 4, 45, 87
7, 56339, Note_off_c, 4, 45, 0
7, 56400, Note_on_c, 4, 52, 101
7, 56400, Note_on_c, 4, 57, 97
7, 56443, Note_off_c, 4, 57, 0
7, 56449, Note_off_c, 4, 52, 0
7, 56520, Note_on_c, 4, 52, 104
7, 56520, Note_on_c, 4, 57, 103
7, 56571, Note_off_c, 4, 52, 0
7, 56578, Note_off_c, 4, 57, 0
7, 56760, Note_on_c, 4, 45, 71
7, 56821, Note_off_c, 4, 45, 0
7, 56880, Note_on_c, 4, 52, 81
7, 56880, Note_on_c, 4, 57, 78
7, 56923, Note_off_c, 4, 57, 0
7, 56927, Note_off_c, 4, 52, 0
7, 57000, Note_on_c, 4, 52, 101
7, 57000, Note_on_c, 4, 57, 98
7, 57056, Note_off_c, 4, 52, 0
7, 57058, Note_off_c, 4, 57, 0
7, 57240, Note_on_c, 4, 45, 81
7, 57305, Note_off_c, 4, 45, 0
7, 57360, Note_on_c, 4, 52, 95
7, 57360, Note_on_c, 4, 57, 88
7, 57401, Note_off_c, 4, 57, 0
7, 57403, Note_off_c, 4, 52, 0
7, 57480, Note_on_c, 4, 52, 94
7, 57480, Note_on_c, 4, 57, 92
7, 57530, Note_off_c, 4, 57, 0
7, 57537, Note_off_c, 4, 52, 0
7, 57840, Note_on_c, 4, 43, 81
7, 57840, Note_on_c, 4, 50, 97
7, 57840, Note_on_c, 4, 55, 94
7, 57870, Note_off_c, 4, 43, 0
7, 57888, Note_off_c, 4, 50, 0
7, 57890, Note_off_c, 4, 55, 0
7, 57960, Note_on_c, 4, 50, 92
7, 57960, Note_on_c, 4, 55, 95
7, 58007, Note_off_c, 4, 50, 0
7, 58016, Note_off_c, 4, 55, 0
7, 58200, Note_on_c, 4, 43, 71
7, 58250, Note_off_c, 4, 43, 0
7, 58320, Note_on_c, 4, 50, 92
7, 58320, Note_on_c, 4, 55, 87
7, 58359, Note_off_c, 4, 50, 0
7, 58360, Note_off_c, 4, 55, 0
7, 58440, Note_on_c, 4, 50, 95
7, 58440, Note_on_c, 4, 55, 92
7, 58491, Note_off_c, 4, 50, 0
7, 58499, Note_off_c, 4, 55, 0
7, 58680, Note_on_c, 4, 41, 77
7, 58733, Note_off_c, 4, 41, 0
7, 58800, Note_on_c, 4, 48, 95
7, 58800, Note_on_c, 4, 53, 90
7, 58840, Note_off_c, 4, 48, 0
7, 58841, Note_off_c, 4, 53, 0
7, 58920, Note_on_c, 4, 48, 97
7, 58920, Note_on_c, 4, 53, 95
7, 58968, Note_off_c, 4, 48, 0
7, 58976, Note_off_c, 4, 53, 0
7, 59160, Note_on_c, 4, 41, 81
7, 59211, Note_off_c, 4, 41, 0
7, 59280, Note_on_c, 4, 48, 90
7, 59280, Note_on_c, 4, 53, 86
7, 59318, Note_off_c, 4, 53, 0
7, 59323, Note_off_c, 4, 48, 0
7, 59400, Note_on_c, 4, 48, 97
7, 59400, Note_on_c, 4, 53, 95
7, 59454, Note_off_c, 4, 48, 0
7, 59461, Note_off_c, 4, 53, 0
7, 59640, Note_on_c, 4, 41, 81
7, 59696, Note_off_c, 4, 41, 0
7, 59760, Note_on_c, 4, 48, 90
7, 59760, Note_on_c, 4, 53, 84
7, 59801, Note_off_c, 4, 53, 0
7, 59806, Note_off_c, 4, 48, 0
7, 59880, Note_on_c, 4, 48, 96
7, 59880, Note_on_c, 4, 53, 94
7, 59944, Note_off_c, 4, 48, 0
7, 59948, Note_off_c, 4, 53, 0
7, 60120, Note_on_c, 4, 41, 92
7, 60168, Note_off_c, 4, 41, 0
7, 60240, Note_on_c, 4, 48, 99
7, 60240, Note_on_c, 4, 53, 99
7, 60295, Note_off_c, 4, 48, 0
7, 60299, Note_off_c, 4, 53, 0
7, 61560, Note_on_c, 4, 45, 94
7, 61641, Note_off_c, 4, 45, 0
7, 61680, Note_on_c, 4, 52, 101
7, 61680, Note_on_c, 4, 57, 94
7, 61734, Note_off_c, 4, 57, 0
7, 61737, Note_off_c, 4, 52, 0
7, 61800, Note_on_c, 4, 52, 101
7, 61800, Note_on_c, 4, 57, 98
7, 61867, Note_off_c, 4, 52, 0
7, 61872, Note_off_c, 4, 57, 0
7, 62040, Note_on_c, 4, 45, 83
7, 62104, Note_off_c, 4, 45, 0
7, 62160, Note_on_c, 4, 52, 95
7, 62160, Note_on_c, 4, 57, 88
7, 62208, Note_off_c, 4, 57, 0
7, 62210, Note_off_c, 4, 52, 0
7, 62280, Note_on_c, 4, 52, 86
7, 62280, Note_on_c, 4, 57, 87
7, 62334, Note_off_c, 4, 52, 0
7, 62334, Note_off_c, 4, 57, 0
7, 62520, Note_on_c, 4, 45, 69
7, 62570, Note_off_c, 4, 45, 0
7, 62640, Note_on_c, 4, 52, 70
7, 62640, Note_on_c, 4, 57, 64
7, 62695, Note_off_c, 4, 57, 0
7, 62705, Note_off_c, 4, 52, 0
7, 62760, Note_on_c, 4, 52, 77
7, 62760, Note_on_c, 4, 57, 77
7, 62820, Note_off_c, 4, 52, 0
7, 62823, Note_off_c, 4, 57, 0
7, 63000, Note_on_c, 4, 45, 77
7, 63052, Note_off_c, 4, 45, 0
7, 63120, Note_on_c, 4, 52, 96
7, 63120, Note_on_c, 4, 57, 94
7, 63180, Note_off_c, 4, 52, 0
7, 63183, Note_off_c, 4, 57, 0
7, 63240, Note_on_c, 4, 52, 101
7, 63240, Note_on_c, 4, 57, 99
7, 63318, Note_off_c, 4, 57, 0
7, 63323, Note_off_c, 4, 52, 0
7, 63480, Note_on_c, 4, 45, 71
7, 63539, Note_off_c, 4, 45, 0
7, 63600, Note_on_c, 4, 52, 82
7, 63600, Note_on_c, 4, 57, 69
7, 63633, Note_off_c, 4, 57, 0
7, 63654, Note_off_c, 4, 52, 0
7, 63720, Note_on_c, 4, 52, 94
7, 63720, Note_on_c, 4, 57, 92
7, 63777, Note_off_c, 4, 57, 0
7, 63783, Note_off_c, 4, 52, 0
7, 63960, Note_on_c, 4, 45, 86
7, 64025, Note_off_c, 4, 45, 0
7, 64080, Note_on_c, 4, 52, 96
7, 64080, Note_on_c, 4, 57, 92
7, 64124, Note_off_c, 4, 57, 0
7, 64131, Note_off_c, 4, 52, 0
7, 64200, Note_on_c, 4, 52, 94
7, 64200, Note_on_c, 4, 57, 92
7, 64267, Note_off_c, 4, 57, 0
7, 64269, Note_off_c, 4, 52, 0
7, 64440, Note_on_c, 4, 45, 74
7, 64501, Note_off_c, 4, 45, 0
7, 64560, Note_on_c, 4, 52, 92
7, 64560, Note_on_c, 4, 57, 82
7, 64602, Note_off_c, 4, 57, 0
7, 64611, Note_off_c, 4, 52, 0
7, 64680, Note_on_c, 4, 52, 94
7, 64680, Note_on_c, 4, 57, 89
7, 64735, Note_off_c, 4, 57, 0
7, 64741, Note_off_c, 4, 52, 0
7, 64920, Note_on_c, 4, 45, 76
7, 64984, Note_off_c, 4, 45, 0
7, 65040, Note_on_c, 4, 52, 90
7, 65040, Note_on_c, 4, 57, 86
7, 65083, Note_off_c, 4, 52, 0
7, 65084, Note_off_c, 4, 57, 0
7, 65160, Note_on_c, 4, 52, 92
7, 65160, Note_on_c, 4, 57, 90
7, 65214, Note_off_c, 4, 57, 0
7, 65217, Note_off_c, 4, 52, 0
7, 65400, Note_on_c, 4, 45, 77
7, 65456, Note_off_c, 4, 45, 0
7, 65520, Note_on_c, 4, 52, 76
7, 65573, Note_off_c, 4, 52, 0
7, 65640, Note_on_c, 4, 52, 82
7, 65640, Note_on_c, 4, 57, 82
7, 65698, Note_off_c, 4, 57, 0
7, 65701, Note_off_c, 4, 52, 0
7, 65880, Note_on_c, 4, 45, 87
7, 65939, Note_off_c, 4, 45, 0
7, 66000, Note_on_c, 4, 52, 101
7, 66000, Note_on_c, 4, 57, 97
7, 66043, Note_off_c, 4, 57, 0
7, 66049, Note_off_c, 4, 52, 0
7, 66120, Note_on_c, 4, 52, 104
7, 66120, Note_on_c, 4, 57, 103
7, 66171, Note_off_c, 4, 52, 0
7, 66178, Note_off_c, 4, 57, 0
7, 66360, Note_on_c, 4, 45, 71
7, 66421, Note_off_c, 4, 45, 0
7, 66480, Note_on_c, 4, 52, 81
7, 66480, Note_on_c, 4, 57, 78
7, 66523, Note_off_c, 4, 57, 0
7, 66527, Note_off_c, 4, 52, 0
7, 66600, Note_on_c, 4, 52, 101
7, 66600, Note_on_c, 4, 57, 98
7, 66656, Note_off_c, 4, 52, 0
7, 66658, Note_off_c, 4, 57, 0
7, 66840, Note_on_c, 4, 45, 81
7, 66905, Note_off_c, 4, 45, 0
7, 66960, Note_on_c, 4, 52, 95
7, 66960, Note_on_c, 4, 57, 88
7, 67001, Note_off_c, 4, 57, 0
7, 67003, Note_off_c, 4, 52, 0
7, 67080, Note_on_c, 4, 52, 94
7, 67080, Note_on_c, 4, 57, 92
7, 67130, Note_off_c, 4, 57, 0
7, 67137, Note_off_c, 4, 52, 0
7, 67440, Note_on_c, 4, 43, 81
7, 67440, Note_on_c, 4, 50, 97
7, 67440, Note_on_c, 4, 55, 94
7, 67470, Note_off_c, 4, 43, 0
7, 67488, Note_off_c, 4, 50, 0
7, 67490, Note_off_c, 4, 55, 0
7, 67560, Note_on_c, 4, 50, 92
7, 67560, Note_on_c, 4, 55, 95
7, 67607, Note_off_c, 4, 50, 0
7, 67616, Note_off_c, 4, 55, 0
7, 67800, Note_on_c, 4, 43, 71
7, 67850, Note_off_c, 4, 43, 0
7, 67920, Note_on_c, 4, 50, 92
7, 67920, Note_on_c, 4, 55, 87
7, 67959, Note_off_c, 4, 50, 0
7, 67960, Note_off_c, 4, 55, 0
7, 68040, Note_on_c, 4, 50, 95
7, 68040, Note_on_c, 4, 55, 92
7, 68091, Note_off_c, 4, 50, 0
7, 68099, Note_off_c, 4, 55, 0
7, 68280, Note_on_c, 4, 41, 77
7, 68333, Note_off_c, 4, 41, 0
7, 68400, Note_on_c, 4, 48, 95
7, 68400, Note_on_c, 4, 53, 90
7, 68440, Note_off_c, 4, 48, 0
7, 68441, Note_off_c, 4, 53, 0
7, 68520, Note_on_c, 4, 48, 97
7, 68520, Note_on_c, 4, 53, 95
7, 68568, Note_off_c, 4, 48, 0
7, 68576, Note_off_c, 4, 53, 0
7, 68760, Note_on_c, 4, 41, 81
7, 68811, Note_off_c, 4, 41, 0
7, 68880, Note_on_c, 4, 48, 90
7, 68880, Note_on_c, 4, 53, 86
7, 68918, Note_off_c, 4, 53, 0
7, 68923, Note_off_c, 4, 48, 0
7, 69000, Note_on_c, 4, 48, 97
7, 69000, Note_on_c, 4, 53, 95
7, 69054, Note_off_c, 4, 48, 0
7, 69061, Note_off_c, 4, 53, 0
7, 69240, Note_on_c, 4, 41, 81
7, 69296, Note_off_c, 4, 41, 0
7, 69360, Note_on_c, 4, 48, 90
7, 69360, Note_on_c, 4, 53, 84
7, 69401, Note_off_c, 4, 53, 0
7, 69406, Note_off_c, 4, 48, 0
7, 69480, Note_on_c, 4, 48, 96
7, 69480, Note_on_c, 4, 53, 94
7, 69544, Note_off_c, 4, 48, 0
7, 69548, Note_off_c, 4, 53, 0
7, 69720, Note_on_c, 4, 41, 92
7, 69768, Note_off_c, 4, 41, 0
7, 69840, Note_on_c, 4, 48, 99
7, 69840, Note_on_c, 4, 53, 99
7, 69895, Note_off_c, 4, 48, 0
7, 69899, Note_off_c, 4, 53, 0
7, 71040, Note_on_c, 4, 50, 89
7, 71113, Note_off_c, 4, 50, 0
7, 71160, Note_on_c, 4, 55, 85
7, 71160, Note_on_c, 4, 59, 83
7, 71215, Note_off_c, 4, 59, 0
7, 71230, Note_off_c, 4, 55, 0
7, 71400, Note_on_c, 4, 55, 92
7, 71400, Note_on_c, 4, 59, 95
7, 71456, Note_off_c, 4, 59, 0
7, 71465, Note_off_c, 4, 55, 0
7, 71640, Note_on_c, 4, 50, 86
7, 71699, Note_off_c, 4, 50, 0
7, 71760, Note_on_c, 4, 55, 92
7, 71760, Note_on_c, 4, 59, 95
7, 71807, Note_off_c, 4, 59, 0
7, 71812, Note_off_c, 4, 55, 0
7, 71880, Note_on_c, 4, 55, 98
7, 71880, Note_on_c, 4, 59, 101
7, 71937, Note_off_c, 4, 59, 0
7, 71947, Note_off_c, 4, 55, 0
7, 72000, Note_on_c, 4, 50, 96
7, 72071, Note_off_c, 4, 50, 0
7, 72120, Note_on_c, 4, 55, 94
7, 72120, Note_on_c, 4, 59, 98
7, 72176, Note_off_c, 4, 59, 0
7, 72180, Note_off_c, 4, 55, 0
7, 72360, Note_on_c, 4, 55, 96
7, 72360, Note_on_c, 4, 59, 101
7, 72414, Note_off_c, 4, 59, 0
7, 72420, Note_off_c, 4, 55, 0
7, 72600, Note_on_c, 4, 50, 96
7, 72658, Note_off_c, 4, 50, 0
7, 72720, Note_on_c, 4, 55, 92
7, 72720, Note_on_c, 4, 59, 97
7, 72767, Note_off_c, 4, 59, 0
7, 72773, Note_off_c, 4, 55, 0
7, 72840, Note_on_c, 4, 55, 87
7, 72840, Note_on_c, 4, 59, 92
7, 72893, Note_off_c, 4, 59, 0
7, 72914, Note_off_c, 4, 55, 0
7, 72960, Note_on_c, 4, 50, 95
7, 73024, Note_off_c, 4, 50, 0
7, 73080, Note_on_c, 4, 53, 92
7, 73080, Note_on_c, 4, 57, 94
7, 73080, Note_on_c, 4, 60, 96
7, 73133, Note_off_c, 4, 57, 0
7, 73137, Note_off_c, 4, 60, 0
7, 73143, Note_off_c, 4, 53, 0
7, 73320, Note_on_c, 4, 53, 92
7, 73320, Note_on_c, 4, 57, 94
7, 73320, Note_on_c, 4, 60, 97
7, 73376, Note_off_c, 4, 57, 0
7, 73385, Note_off_c, 4, 53, 0
7, 73385, Note_off_c, 4, 60, 0
7, 73560, Note_on_c, 4, 50, 88
7, 73614, Note_off_c, 4, 50, 0
7, 73680, Note_on_c, 4, 53, 86
7, 73680, Note_on_c, 4, 57, 88
7, 73680, Note_on_c, 4, 60, 92
7, 73724, Note_off_c, 4, 60, 0
7, 73731, Note_off_c, 4, 57, 0
7, 73735, Note_off_c, 4, 53, 0
7, 73800, Note_on_c, 4, 53, 82
7, 73800, Note_on_c, 4, 57, 87
7, 73800, Note_on_c, 4, 60, 89
7, 73860, Note_off_c, 4, 57, 0
7, 73860, Note_off_c, 4, 60, 0
7, 73869, Note_off_c, 4, 53, 0
7, 73920, Note_on_c, 4, 50, 92
7, 73982, Note_off_c, 4, 50, 0
7, 74040, Note_on_c, 4, 53, 92
7, 74040, Note_on_c, 4, 57, 94
7, 74040, Note_on_c, 4, 60, 97
7, 74095, Note_off_c, 4, 60, 0
7, 74097, Note_off_c, 4, 57, 0
7, 74103, Note_off_c, 4, 53, 0
7, 74280, Note_on_c, 4, 53, 94
7, 74280, Note_on_c, 4, 57, 96
7, 74280, Note_on_c, 4, 60, 98
7, 74336, Note_off_c, 4, 57, 0
7, 74339, Note_off_c, 4, 53, 0
7, 74340, Note_off_c, 4, 60, 0
7, 74520, Note_on_c, 4, 50, 95
7, 74562, Note_off_c, 4, 50, 0
7, 74640, Note_on_c, 4, 53, 87
7, 74640, Note_on_c, 4, 57, 89
7, 74640, Note_on_c, 4, 60, 92
7, 74688, Note_off_c, 4, 60, 0
7, 74698, Note_off_c, 4, 53, 0
7, 74698, Note_off_c, 4, 57, 0
7, 74760, Note_on_c, 4, 53, 88
7, 74760, Note_on_c, 4, 57, 90
7, 74760, Note_on_c, 4, 60, 97
7, 74809, Note_off_c, 4, 53, 0
7, 74809, Note_off_c, 4, 57, 0
7, 74815, Note_off_c, 4, 60, 0
7, 74880, Note_on_c, 4, 53, 92
7, 74942, Note_off_c, 4, 53, 0
7, 75000, Note_on_c, 4, 57, 92
7, 75000, Note_on_c, 4, 60, 92
7, 75055, Note_off_c, 4, 57, 0
7, 75059, Note_off_c, 4, 60, 0
7, 75240, Note_on_c, 4, 57, 90
7, 75240, Note_on_c, 4, 60, 92
7, 75291, Note_off_c, 4, 57, 0
7, 75295, Note_off_c, 4, 60, 0
7, 75480, Note_on_c, 4, 53, 92
7, 75544, Note_off_c, 4, 53, 0
7, 75600, Note_on_c, 4, 57, 95
7, 75600, Note_on_c, 4, 60, 88
7, 75629, Note_off_c, 4, 60, 0
7, 75641, Note_off_c, 4, 57, 0
7, 75720, Note_on_c, 4, 57, 95
7, 75720, Note_on_c, 4, 60, 94
7, 75772, Note_off_c, 4, 60, 0
7, 75776, Note_off_c, 4, 57, 0
7, 75840, Note_on_c, 4, 52, 94
7, 75901, Note_off_c, 4, 52, 0
7, 75960, Note_on_c, 4, 55, 95
7, 75960, Note_on_c, 4, 60, 97
7, 76011, Note_off_c, 4, 55, 0
7, 76012, Note_off_c, 4, 60, 0
7, 76200, Note_on_c, 4, 55, 96
7, 76200, Note_on_c, 4, 60, 98
7, 76258, Note_off_c, 4, 55, 0
7, 76260, Note_off_c, 4, 60, 0
7, 76440, Note_on_c, 4, 52, 92
7, 76505, Note_off_c, 4, 52, 0
7, 76560, Note_on_c, 4, 55, 89
7, 76560, Note_on_c, 4, 60, 90
7, 76596, Note_off_c, 4, 60, 0
7, 76605, Note_off_c, 4, 55, 0
7, 76680, Note_on_c, 4, 55, 90
7, 76680, Note_on_c, 4, 60, 86
7, 76725, Note_off_c, 4, 60, 0
7, 76746, Note_off_c, 4, 55, 0
7, 76800, Note_on_c, 4, 50, 97
7, 76860, Note_off_c, 4, 50, 0
7, 76920, Note_on_c, 4, 55, 94
7, 76920, Note_on_c, 4, 59, 92
7, 76947, Note_off_c, 4, 59, 0
7, 76965, Note_off_c, 4, 55, 0
7, 77040, Note_on_c, 4, 55, 92
7, 77040, Note_on_c, 4, 59, 95
7, 77079, Note_off_c, 4, 59, 0
7, 77095, Note_off_c, 4, 55, 0
7, 77160, Note_on_c, 4, 55, 98
7, 77160, Note_on_c, 4, 59, 101
7, 77206, Note_off_c, 4, 59, 0
7, 77216, Note_off_c, 4, 55, 0
7, 77400, Note_on_c, 4, 50, 88
7, 77462, Note_off_c, 4, 50, 0
7, 77520, Note_on_c, 4, 55, 89
7, 77520, Note_on_c, 4, 59, 89
7, 77559, Note_off_c, 4, 59, 0
7, 77569, Note_off_c, 4, 55, 0
7, 77640, Note_on_c, 4, 55, 98
7, 77640, Note_on_c, 4, 59, 98
7, 77693, Note_off_c, 4, 59, 0
7, 77700, Note_off_c, 4, 55, 0
7, 77760, Note_on_c, 4, 50, 92
7, 77812, Note_off_c, 4, 50, 0
7, 77880, Note_on_c, 4, 55, 87
7, 77880, Note_on_c, 4, 59, 83
7, 77918, Note_off_c, 4, 59, 0
7, 77930, Note_off_c, 4, 55, 0
7, 78120, Note_on_c, 4, 55, 98
7, 78120, Note_on_c, 4, 59, 97
7, 78164, Note_off_c, 4, 59, 0
7, 78172, Note_off_c, 4, 55, 0
7, 78360, Note_on_c, 4, 50, 95
7, 78398, Note_off_c, 4, 50, 0
7, 78480, Note_on_c, 4, 55, 90
7, 78480, Note_on_c, 4, 59, 83
7, 78509, Note_off_c, 4, 59, 0
7, 78524, Note_off_c, 4, 55, 0
7, 78600, Note_on_c, 4, 55, 94
7, 78600, Note_on_c, 4, 59, 95
7, 78639, Note_off_c, 4, 59, 0
7, 78643, Note_off_c, 4, 55, 0
7, 78720, Note_on_c, 4, 50, 89
7, 78793, Note_off_c, 4, 50, 0
7, 78840, Note_on_c, 4, 55, 85
7, 78840, Note_on_c, 4, 59, 83
7, 78895, Note_off_c, 4, 59, 0
7, 78910, Note_off_c, 4, 55, 0
7, 79080, Note_on_c, 4, 55, 92
7, 79080, Note_on_c, 4, 59, 95
7, 79136, Note_off_c, 4, 59, 0
7, 79145, Note_off_c, 4, 55, 0
7, 79320, Note_on_c, 4, 50, 86
7, 79379, Note_off_c, 4, 50, 0
7, 79440, Note_on_c, 4, 55, 92
7, 79440, Note_on_c, 4, 59, 95
7, 79487, Note_off_c, 4, 59, 0
7, 79492, Note_off_c, 4, 55, 0
7, 79560, Note_on_c, 4, 55, 98
7, 79560, Note_on_c, 4, 59, 101
7, 79617, Note_off_c, 4, 59, 0
7, 79627, Note_off_c, 4, 55, 0
7, 79680, Note_on_c, 4, 50, 96
7, 79751, Note_off_c, 4, 50, 0
7, 79800, Note_on_c, 4, 55, 94
7, 79800, Note_on_c, 4, 59, 98
7, 79856, Note_off_c, 4, 59, 0
7, 79860, Note_off_c, 4, 55, 0
7, 80040, Note_on_c, 4, 55, 96
7, 80040, Note_on_c, 4, 59, 101
7, 80094, Note_off_c, 4, 59, 0
7, 80100, Note_off_c, 4, 55, 0
7, 80280, Note_on_c, 4, 50, 96
7, 80338, Note_off_c, 4, 50, 0
7, 80400, Note_on_c, 4, 55, 92
7, 80400, Note_on_c, 4, 59, 97
7, 80447, Note_off_c, 4, 59, 0
7, 80453, Note_off_c, 4, 55, 0
7, 80520, Note_on_c, 4, 55, 87
7, 80520, Note_on_c, 4, 59, 92
7, 80573, Note_off_c, 4, 59, 0
7, 80594, Note_off_c, 4, 55, 0
7, 80640, Note_on_c, 4, 50, 95
7, 80704, Note_off_c, 4, 50, 0
7, 80760, Note_on_c, 4, 53, 92
7, 80760, Note_on_c, 4, 57, 94
7, 80760, Note_on_c, 4, 60, 96
7, 80813, Note_off_c, 4, 57, 0
7, 80817, Note_off_c, 4, 60, 0
7, 80823, Note_off_c, 4, 53, 0
7, 81000, Note_on_c, 4, 53, 92
7, 81000, Note_on_c, 4, 57, 94
7, 81000, Note_on_c, 4, 60, 97
7, 81056, Note_off_c, 4, 57, 0
7, 81065, Note_off_c, 4, 53, 0
7, 81065, Note_off_c, 4, 60, 0
7, 81240, Note_on_c, 4, 50, 88
7, 81294, Note_off_c, 4, 50, 0
7, 81360, Note_on_c, 4, 53, 86
7, 81360, Note_on_c, 4, 57, 88
7, 81360, Note_on_c, 4, 60, 92
7, 81404, Note_off_c, 4, 60, 0
7, 81411, Note_off_c, 4, 57, 0
7, 81415, Note_off_c, 4, 53, 0
7, 81480, Note_on_c, 4, 53, 82
7, 81480, Note_on_c, 4, 57, 87
7, 81480, Note_on_c, 4, 60, 89
7, 81540, Note_off_c, 4, 57, 0
7, 81540, Note_off_c, 4, 60, 0
7, 81549, Note_off_c, 4, 53, 0
7, 81600, Note_on_c, 4, 50, 92
7, 81662, Note_off_c, 4, 50, 0
7, 81720, Note_on_c, 4, 53, 92
7, 81720, Note_on_c, 4, 57, 94
7, 81720, Note_on_c, 4, 60, 97
7, 81775, Note_off_c, 4, 60, 0
7, 81777, Note_off_c, 4, 57, 0
7, 81783, Note_off_c, 4, 53, 0
7, 81960, Note_on_c, 4, 53, 94
7, 81960, Note_on_c, 4, 57, 96
7, 81960, Note_on_c, 4, 60, 98
7, 82016, Note_off_c, 4, 57, 0
7, 82019, Note_off_c, 4, 53, 0
7, 82020, Note_off_c, 4, 60, 0
7, 82200, Note_on_c, 4, 50, 95
7, 82242, Note_off_c, 4, 50, 0
7, 82320, Note_on_c, 4, 53, 87
7, 82320, Note_on_c, 4, 57, 89
7, 82320, Note_on_c, 4, 60, 92
7, 82368, Note_off_c, 4, 60, 0
7, 82378, Note_off_c, 4, 53, 0
7, 82378, Note_off_c, 4, 57, 0
7, 82440, Note_on_c, 4, 53, 88
7, 82440, Note_on_c, 4, 57, 90
7, 82440, Note_on_c, 4, 60, 97
7, 82489, Note_off_c, 4, 53, 0
7, 82489, Note_off_c, 4, 57, 0
7, 82495, Note_off_c, 4, 60, 0
7, 82560, Note_on_c, 4, 53, 92
7, 82622, Note_off_c, 4, 53, 0
7, 82680, Note_on_c, 4, 57, 92
7, 82680, Note_on_c, 4, 60, 92
7, 82735, Note_off_c, 4, 57, 0
7, 82739, Note_off_c, 4, 60, 0
7, 82920, Note_on_c, 4, 57, 90
7, 82920, Note_on_c, 4, 60, 92
7, 82971, Note_off_c, 4, 57, 0
7, 82975, Note_off_c, 4, 60, 0
7, 83160, Note_on_c, 4, 53, 92
7, 83224, Note_off_c, 4, 53, 0
7, 83280, Note_on_c, 4, 57, 95
7, 83280, Note_on_c, 4, 60, 88
7, 83309, Note_off_c, 4, 60, 0
7, 83321, Note_off_c, 4, 57, 0
7, 83400, Note_on_c, 4, 57, 95
7, 83400, Note_on_c, 4, 60, 94
7, 83452, Note_off_c, 4, 60, 0
7, 83456, Note_off_c, 4, 57, 0
7, 83520, Note_on_c, 4, 52, 94
7, 83581, Note_off_c, 4, 52, 0
7, 83640, Note_on_c, 4, 55, 95
7, 83640, Note_on_c, 4, 60, 97
7, 83691, Note_off_c, 4, 55, 0
7, 83692, Note_off_c, 4, 60, 0
7, 83880, Note_on_c, 4, 55, 96
7, 83880, Note_on_c, 4, 60, 98
7, 83938, Note_off_c, 4, 55, 0
7, 83940, Note_off_c, 4, 60, 0
7, 84120, Note_on_c, 4, 52, 92
7, 84185, Note_off_c, 4, 52, 0
7, 84240, Note_on_c, 4, 55, 89
7, 84240, Note_on_c, 4, 60, 90
7, 84276, Note_off_c, 4, 60, 0
7, 84285, Note_off_c, 4, 55, 0
7, 84360, Note_on_c, 4, 55, 90
7, 84360, Note_on_c, 4, 60, 86
7, 84405, Note_off_c, 4, 60, 0
7, 84426, Note_off_c, 4, 55, 0
7, 84480, Note_on_c, 4, 50, 97
7, 84540, Note_off_c, 4, 50, 0
7, 84600, Note_on_c, 4, 55, 94
7, 84600, Note_on_c, 4, 59, 92
7, 84627, Note_off_c, 4, 59, 0
7, 84645, Note_off_c, 4, 55, 0
7, 84720, Note_on_c, 4, 55, 92
7, 84720, Note_on_c, 4, 59, 95
7, 84759, Note_off_c, 4, 59, 0
7, 84775, Note_off_c, 4, 55, 0
7, 84840, Note_on_c, 4, 55, 98
7, 84840, Note_on_c, 4, 59, 101
7, 84886, Note_off_c, 4, 59, 0
7, 84896, Note_off_c, 4, 55, 0
7, 85080, Note_on_c, 4, 50, 88
7, 85142, Note_off_c, 4, 50, 0
7, 85200, Note_on_c, 4, 55, 89
7, 85200, Note_on_c, 4, 59, 89
7, 85239, Note_off_c, 4, 59, 0
7, 85249, Note_off_c, 4, 55, 0
7, 85320, Note_on_c, 4, 55, 98
7, 85320, Note_on_c, 4, 59, 98
7, 85373, Note_off_c, 4, 59, 0
7, 85380, Note_off_c, 4, 55, 0
7, 85440, Note_on_c, 4, 50, 92
7, 85492, Note_off_c, 4, 50, 0
7, 86520, Note_on_c, 4, 57, 90
7, 86585, Note_off_c, 4, 57, 0
7, 86640, Note_on_c, 4, 69, 85
7, 86700, Note_off_c, 4, 69, 0
7, 86760, Note_on_c, 4, 69, 76
7, 86814, Note_off_c, 4, 69, 0
7, 86880, Note_on_c, 4, 64, 94
7, 86928, Note_off_c, 4, 64, 0
7, 87000, Note_on_c, 4, 69, 88
7, 87052, Note_off_c, 4, 69, 0
7, 87120, Note_on_c, 4, 64, 88
7, 87160, Note_off_c, 4, 64, 0
7, 87240, Note_on_c, 4, 64, 94
7, 87287, Note_off_c, 4, 64, 0
7, 87360, Note_on_c, 4, 60, 97
7, 87413, Note_off_c, 4, 60, 0
7, 87480, Note_on_c, 4, 64, 92
7, 87534, Note_off_c, 4, 64, 0
7, 87600, Note_on_c, 4, 60, 73
7, 87632, Note_off_c, 4, 60, 0
7, 87720, Note_on_c, 4, 60, 94
7, 87779, Note_off_c, 4, 60, 0
7, 87840, Note_on_c, 4, 57, 95
7, 87894, Note_off_c, 4, 57, 0
7, 87960, Note_on_c, 4, 57, 95
7, 88021, Note_off_c, 4, 57, 0
7, 88200, Note_on_c, 4, 57, 99
7, 88258, Note_off_c, 4, 57, 0
7, 88440, Note_on_c, 4, 57, 94
7, 88496, Note_off_c, 4, 57, 0
7, 88560, Note_on_c, 4, 69, 92
7, 88603, Note_off_c, 4, 69, 0
7, 88680, Note_on_c, 4, 69, 87
7, 88726, Note_off_c, 4, 69, 0
7, 88800, Note_on_c, 4, 64, 87
7, 88852, Note_off_c, 4, 64, 0
7, 88920, Note_on_c, 4, 69, 94
7, 88969, Note_off_c, 4, 69, 0
7, 89040, Note_on_c, 4, 64, 94
7, 89089, Note_off_c, 4, 64, 0
7, 89160, Note_on_c, 4, 64, 95
7, 89216, Note_off_c, 4, 64, 0
7, 89280, Note_on_c, 4, 60, 97
7, 89330, Note_off_c, 4, 60, 0
7, 89400, Note_on_c, 4, 64, 96
7, 89431, Note_off_c, 4, 64, 0
7, 89520, Note_on_c, 4, 60, 101
7, 89569, Note_off_c, 4, 60, 0
7, 89640, Note_on_c, 4, 60, 97
7, 89682, Note_off_c, 4, 60, 0
7, 89760, Note_on_c, 4, 57, 101
7, 89821, Note_off_c, 4, 57, 0
7, 89880, Note_on_c, 4, 57, 99
7, 89946, Note_off_c, 4, 57, 0
7, 90120, Note_on_c, 4, 57, 99
7, 90169, Note_off_c, 4, 57, 0
7, 90360, Note_on_c, 4, 55, 92
7, 90429, Note_off_c, 4, 55, 0
7, 90480, Note_on_c, 4, 67, 92
7, 90531, Note_off_c, 4, 67, 0
7, 90600, Note_on_c, 4, 67, 88
7, 90670, Note_off_c, 4, 67, 0
7, 90720, Note_on_c, 4, 62, 95
7, 90775, Note_off_c, 4, 62, 0
7, 90840, Note_on_c, 4, 67, 92
7, 90899, Note_off_c, 4, 67, 0
7, 90960, Note_on_c, 4, 62, 96
7, 91009, Note_off_c, 4, 62, 0
7, 91080, Note_on_c, 4, 62, 99
7, 91136, Note_off_c, 4, 62, 0
7, 91200, Note_on_c, 4, 53, 88
7, 91263, Note_off_c, 4, 53, 0
7, 91320, Note_on_c, 4, 53, 87
7, 91379, Note_off_c, 4, 53, 0
7, 91440, Note_on_c, 4, 65, 101
7, 91494, Note_off_c, 4, 65, 0
7, 91560, Note_on_c, 4, 65, 92
7, 91623, Note_off_c, 4, 65, 0
7, 91680, Note_on_c, 4, 60, 97
7, 91729, Note_off_c, 4, 60, 0
7, 91800, Note_on_c, 4, 65, 101
7, 91869, Note_off_c, 4, 65, 0
7, 91920, Note_on_c, 4, 60, 89
7, 91972, Note_off_c, 4, 60, 0
7, 92280, Note_on_c, 4, 52, 97
7, 92346, Note_off_c, 4, 52, 0
7, 92400, Note_on_c, 4, 60, 87
7, 92439, Note_off_c, 4, 60, 0
7, 92520, Note_on_c, 4, 60, 96
7, 92587, Note_off_c, 4, 60, 0
7, 92640, Note_on_c, 4, 55, 89
7, 92701, Note_off_c, 4, 55, 0
7, 92760, Note_on_c, 4, 60, 87
7, 92823, Note_off_c, 4, 60, 0
7, 92880, Note_on_c, 4, 55, 85
7, 92947, Note_off_c, 4, 55, 0
7, 93000, Note_on_c, 4, 55, 85
7, 93062, Note_off_c, 4, 55, 0
7, 93120, Note_on_c, 4, 64, 94
7, 93170, Note_off_c, 4, 64, 0
7, 93360, Note_on_c, 4, 60, 101
7, 93414, Note_off_c, 4, 60, 0
7, 93480, Note_on_c, 4, 60, 98
7, 93533, Note_off_c, 4, 60, 0
7, 93600, Note_on_c, 4, 48, 98
7, 93778, Note_off_c, 4, 48, 0
7, 93840, Note_on_c, 4, 47, 98
7, 94003, Note_off_c, 4, 47, 0
7, 94200, Note_on_c, 4, 57, 90
7, 94265, Note_off_c, 4, 57, 0
7, 94320, Note_on_c, 4, 69, 85
7, 94380, Note_off_c, 4, 69, 0
7, 94440, Note_on_c, 4, 69, 76
7, 94494, Note_off_c, 4, 69, 0
7, 94560, Note_on_c, 4, 64, 94
7, 94608, Note_off_c, 4, 64, 0
7, 94680, Note_on_c, 4, 69, 88
7, 94732, Note_off_c, 4, 69, 0
7, 94800, Note_on_c, 4, 64, 88
7, 94840, Note_off_c, 4, 64, 0
7, 94920, Note_on_c, 4, 64, 94
7, 94967, Note_off_c, 4, 64, 0
7, 95040, Note_on_c, 4, 60, 97
7, 95093, Note_off_c, 4, 60, 0
7, 95160, Note_on_c, 4, 64, 92
7, 95214, Note_off_c, 4, 64, 0
7, 95280, Note_on_c, 4, 60, 73
7, 95312, Note_off_c, 4, 60, 0
7, 95400, Note_on_c, 4, 60, 94
7, 95459, Note_off_c, 4, 60, 0
7, 95520, Note_on_c, 4, 57, 95
7, 95574, Note_off_c, 4, 57, 0
7, 95640, Note_on_c, 4, 57, 95
7, 95701, Note_off_c, 4, 57, 0
7, 95880, Note_on_c, 4, 57, 99
7, 95938, Note_off_c, 4, 57, 0
7, 96120, Note_on_c, 4, 57, 94
7, 96176, Note_off_c, 4, 57, 0
7, 96240, Note_on_c, 4, 69, 92
7, 96283, Note_off_c, 4, 69, 0
7, 96360, Note_on_c, 4, 69, 87
7, 96406, Note_off_c, 4, 69, 0
7, 96480, Note_on_c, 4, 64, 87
7, 96532, Note_off_c, 4, 64, 0
7, 96600, Note_on_c, 4, 69, 94
7, 96649, Note_off_c, 4, 69, 0
7, 96720, Note_on_c, 4, 64, 94
7, 96769, Note_off_c, 4, 64, 0
7, 96840, Note_on_c, 4, 64, 95
7, 96896, Note_off_c, 4, 64, 0
7, 96960, Note_on_c, 4, 60, 97
7, 97010, Note_off_c, 4, 60, 0
7, 97080, Note_on_c, 4, 64, 96
7, 97111, Note_off_c, 4, 64, 0
7, 97200, Note_on_c, 4, 60, 101
7, 97249, Note_off_c, 4, 60, 0
7, 97320, Note_on_c, 4, 60, 97
7, 97362, Note_off_c, 4, 60, 0
7, 97440, Note_on_c, 4, 57, 101
7, 97501, Note_off_c, 4, 57, 0
7, 97560, Note_on_c, 4, 57, 99
7, 97626, Note_off_c, 4, 57, 0
7, 97800, Note_on_c, 4, 57, 99
7, 97849, Note_off_c, 4, 57, 0
7, 98040, Note_on_c, 4, 55, 92
7, 98109, Note_off_c, 4, 55, 0
7, 98160, Note_on_c, 4, 67, 92
7, 98211, Note_off_c, 4, 67, 0
7, 98280, Note_on_c, 4, 67, 88
7, 98350, Note_off_c, 4, 67, 0
7, 98400, Note_on_c, 4, 62, 95
7, 98455, Note_off_c, 4, 62, 0
7, 98520, Note_on_c, 4, 67, 92
7, 98579, Note_off_c, 4, 67, 0
7, 98640, Note_on_c, 4, 62, 96
7, 98689, Note_off_c, 4, 62, 0
7, 98760, Note_on_c, 4, 62, 99
7, 98816, Note_off_c, 4, 62, 0
7, 98880, Note_on_c, 4, 53, 88
7, 98943, Note_off_c, 4, 53, 0
7, 99000, Note_on_c, 4, 53, 87
7, 99059, Note_off_c, 4, 53, 0
7, 99120, Note_on_c, 4, 65, 101
7, 99174, Note_off_c, 4, 65, 0
7, 99240, Note_on_c, 4, 65, 92
7, 99303, Note_off_c, 4, 65, 0
7, 99360, Note_on_c, 4, 60, 97
7, 99409, Note_off_c, 4, 60, 0
7, 99480, Note_on_c, 4, 65, 101
7, 99549, Note_off_c, 4, 65, 0
7, 99600, Note_on_c, 4, 60, 89
7, 99652, Note_off_c, 4, 60, 0
7, 99960, Note_on_c, 4, 52, 97
7, 100026, Note_off_c, 4, 52, 0
7, 100080, Note_on_c, 4, 59, 87
7, 100119, Note_off_c, 4, 59, 0
7, 100200, Note_on_c, 4, 59, 96
7, 100267, Note_off_c, 4, 59, 0
7, 100320, Note_on_c, 4, 55, 89
7, 100381, Note_off_c, 4, 55, 0
7, 100440, Note_on_c, 4, 59, 87
7, 100503, Note_off_c, 4, 59, 0
7, 100560, Note_on_c, 4, 55, 85
7, 100627, Note_off_c, 4, 55, 0
7, 100680, Note_on_c, 4, 55, 85
7, 100742, Note_off_c, 4, 55, 0
7, 100800, Note_on_c, 4, 64, 94
7, 100850, Note_off_c, 4, 64, 0
7, 101040, Note_on_c, 4, 59, 101
7, 101094, Note_off_c, 4, 59, 0
7, 101160, Note_on_c, 4, 59, 98
7, 101213, Note_off_c, 4, 59, 0
7, 101280, Note_on_c, 4, 52, 98
7, 101458, Note_off_c, 4, 52, 0
7, 101520, Note_on_c, 4, 55, 98
7, 101683, Note_off_c, 4, 55, 0
7, 101760, Note_on_c, 4, 50, 77
7, 101815, Note_off_c, 4, 50, 0
7, 102000, Note_on_c, 4, 50, 97
7, 102056, Note_off_c, 4, 50, 0
7, 102120, Note_on_c, 4, 45, 81
7, 102190, Note_off_c, 4, 45, 0
7, 102240, Note_on_c, 4, 50, 90
7, 102313, Note_off_c, 4, 50, 0
7, 102360, Note_on_c, 4, 45, 74
7, 102451, Note_off_c, 4, 45, 0
7, 102480, Note_on_c, 4, 57, 54
7, 102545, Note_off_c, 4, 57, 0
7, 102600, Note_on_c, 4, 45, 64
7, 102671, Note_off_c, 4, 45, 0
7, 102720, Note_on_c, 4, 50, 77
7, 102777, Note_off_c, 4, 50, 0
7, 102960, Note_on_c, 4, 50, 94
7, 103019, Note_off_c, 4, 50, 0
7, 103080, Note_on_c, 4, 45, 75
7, 103146, Note_off_c, 4, 45, 0
7, 103200, Note_on_c, 4, 50, 81
7, 103265, Note_off_c, 4, 50, 0
7, 103320, Note_on_c, 4, 45, 62
7, 103385, Note_off_c, 4, 45, 0
7, 103440, Note_on_c, 4, 57, 89
7, 103503, Note_off_c, 4, 57, 0
7, 103560, Note_on_c, 4, 45, 83
7, 103629, Note_off_c, 4, 45, 0
7, 103680, Note_on_c, 4, 57, 79
7, 103743, Note_off_c, 4, 57, 0
7, 103920, Note_on_c, 4, 57, 86
7, 103987, Note_off_c, 4, 57, 0
7, 104040, Note_on_c, 4, 52, 74
7, 104124, Note_off_c, 4, 52, 0
7, 104160, Note_on_c, 4, 57, 90
7, 104231, Note_off_c, 4, 57, 0
7, 104280, Note_on_c, 4, 45, 79
7, 104361, Note_off_c, 4, 45, 0
7, 104400, Note_on_c, 4, 52, 78
7, 104471, Note_off_c, 4, 52, 0
7, 104520, Note_on_c, 4, 45, 83
7, 104603, Note_off_c, 4, 45, 0
7, 104640, Note_on_c, 4, 57, 92
7, 104706, Note_off_c, 4, 57, 0
7, 104880, Note_on_c, 4, 57, 97
7, 104945, Note_off_c, 4, 57, 0
7, 105000, Note_on_c, 4, 52, 85
7, 105081, Note_off_c, 4, 52, 0
7, 105120, Note_on_c, 4, 57, 62
7, 105203, Note_off_c, 4, 57, 0
7, 105240, Note_on_c, 4, 45, 65
7, 105318, Note_off_c, 4, 45, 0
7, 105360, Note_on_c, 4, 52, 86
7, 105428, Note_off_c, 4, 52, 0
7, 105480, Note_on_c, 4, 45, 97
7, 105544, Note_off_c, 4, 45, 0
7, 105600, Note_on_c, 4, 57, 73
7, 105659, Note_off_c, 4, 57, 0
7, 105840, Note_on_c, 4, 57, 95
7, 105903, Note_off_c, 4, 57, 0
7, 105960, Note_on_c, 4, 52, 81
7, 106029, Note_off_c, 4, 52, 0
7, 106080, Note_on_c, 4, 57, 76
7, 106152, Note_off_c, 4, 57, 0
7, 106200, Note_on_c, 4, 45, 83
7, 106270, Note_off_c, 4, 45, 0
7, 106320, Note_on_c, 4, 52, 97
7, 106381, Note_off_c, 4, 52, 0
7, 106440, Note_on_c, 4, 45, 80
7, 106494, Note_off_c, 4, 45, 0
7, 106560, Note_on_c, 4, 57, 104
7, 106619, Note_off_c, 4, 57, 0
7, 106800, Note_on_c, 4, 57, 54
7, 106874, Note_off_c, 4, 57, 0
7, 106920, Note_on_c, 4, 52, 97
7, 106990, Note_off_c, 4, 52, 0
7, 107040, Note_on_c, 4, 57, 71
7, 107120, Note_off_c, 4, 57, 0
7, 107160, Note_on_c, 4, 45, 62
7, 107227, Note_off_c, 4, 45, 0
7, 107280, Note_on_c, 4, 52, 81
7, 107343, Note_off_c, 4, 52, 0
7, 107400, Note_on_c, 4, 45, 64
7, 107439, Note_off_c, 4, 45, 0
7, 115200, Note_on_c, 4, 50, 89
7, 115273, Note_off_c, 4, 50, 0
7, 115320, Note_on_c, 4, 55, 85
7, 115320, Note_on_c, 4, 59, 83
7, 115375, Note_off_c, 4, 59, 0
7, 115390, Note_off_c, 4, 55, 0
7, 115560, Note_on_c, 4, 55, 92
7, 115560, Note_on_c, 4, 59, 95
7, 115616, Note_off_c, 4, 59, 0
7, 115625, Note_off_c, 4, 55, 0
7, 115800, Note_on_c, 4, 50, 86
7, 115859, Note_off_c, 4, 50, 0
7, 115920, Note_on_c, 4, 55, 92
7, 115920, Note_on_c, 4, 59, 95
7, 115967, Note_off_c, 4, 59, 0
7, 115972, Note_off_c, 4, 55, 0
7, 116040, Note_on_c, 4, 55, 98
7, 116040, Note_on_c, 4, 59, 101
7, 116097, Note_off_c, 4, 59, 0
7, 116107, Note_off_c, 4, 55, 0
7, 116160, Note_on_c, 4, 50, 96
7, 116231, Note_off_c, 4, 50, 0
7, 116280, Note_on_c, 4, 55, 94
7, 116280, Note_on_c, 4, 59, 98
7, 116336, Note_off_c, 4, 59, 0
7, 116340, Note_off_c, 4, 55, 0
7, 116520, Note_on_c, 4, 55, 96
7, 116520, Note_on_c, 4, 59, 101
7, 116574, Note_off_c, 4, 59, 0
7, 116580, Note_off_c, 4, 55, 0
7, 116760, Note_on_c, 4, 50, 96
7, 116818, Note_off_c, 4, 50, 0
7, 116880, Note_on_c, 4, 55, 92
7, 116880, Note_on_c, 4, 59, 97
7, 116927, Note_off_c, 4, 59, 0
7, 116933, Note_off_c, 4, 55, 0
7, 117000, Note_on_c, 4, 55, 87
7, 117000, Note_on_c, 4, 59, 92
7, 117053, Note_off_c, 4, 59, 0
7, 117074, Note_off_c, 4, 55, 0
7, 117120, Note_on_c, 4, 50, 95
7, 117184, Note_off_c, 4, 50, 0
7, 117240, Note_on_c, 4, 53, 92
7, 117240, Note_on_c, 4, 57, 94
7, 117240, Note_on_c, 4, 60, 96
7, 117293, Note_off_c, 4, 57, 0
7, 117297, Note_off_c, 4, 60, 0
7, 117303, Note_off_c, 4, 53, 0
7, 117480, Note_on_c, 4, 53, 92
7, 117480, Note_on_c, 4, 57, 94
7, 117480, Note_on_c, 4, 60, 97
7, 117536, Note_off_c, 4, 57, 0
7, 117545, Note_off_c, 4, 53, 0
7, 117545, Note_off_c, 4, 60, 0
7, 117720, Note_on_c, 4, 50, 88
7, 117774, Note_off_c, 4, 50, 0
7, 117840, Note_on_c, 4, 53, 86
7, 117840, Note_on_c, 4, 57, 88
7, 117840, Note_on_c, 4, 60, 92
7, 117884, Note_off_c, 4, 60, 0
7, 117891, Note_off_c, 4, 57, 0
7, 117895, Note_off_c, 4, 53, 0
7, 117960, Note_on_c, 4, 53, 82
7, 117960, Note_on_c, 4, 57, 87
7, 117960, Note_on_c, 4, 60, 89
7, 118020, Note_off_c, 4, 57, 0
7, 118020, Note_off_c, 4, 60, 0
7, 118029, Note_off_c, 4, 53, 0
7, 118080, Note_on_c, 4, 50, 92
7, 118142, Note_off_c, 4, 50, 0
7, 118200, Note_on_c, 4, 53, 92
7, 118200, Note_on_c, 4, 57, 94
7, 118200, Note_on_c, 4, 60, 97
7, 118255, Note_off_c, 4, 60, 0
7, 118257, Note_off_c, 4, 57, 0
7, 118263, Note_off_c, 4, 53, 0
7, 118440, Note_on_c, 4, 53, 94
7, 118440, Note_on_c, 4, 57, 96
7, 118440, Note_on_c, 4, 60, 98
7, 118496, Note_off_c, 4, 57, 0
7, 118499, Note_off_c, 4, 53, 0
7, 118500, Note_off_c, 4, 60, 0
7, 118680, Note_on_c, 4, 50, 95
7, 118722, Note_off_c, 4, 50, 0
7, 118800, Note_on_c, 4, 53, 87
7, 118800, Note_on_c, 4, 57, 89
7, 118800, Note_on_c, 4, 60, 92
7, 118848, Note_off_c, 4, 60, 0
7, 118858, Note_off_c, 4, 53, 0
7, 118858, Note_off_c, 4, 57, 0
7, 118920, Note_on_c, 4, 53, 88
7, 118920, Note_on_c, 4, 57, 90
7, 118920, Note_on_c, 4, 60, 97
7, 118969, Note_off_c, 4, 53, 0
7, 118969, Note_off_c, 4, 57, 0
7, 118975, Note_off_c, 4, 60, 0
7, 130560, Note_on_c, 4, 50, 89
7, 130633, Note_off_c, 4, 50, 0
7, 130680, Note_on_c, 4, 55, 85
7, 130680, Note_on_c, 4, 59, 83
7, 130735, Note_off_c, 4, 59, 0
7, 130750, Note_off_c, 4, 55, 0
7, 130920, Note_on_c, 4, 55, 92
7, 130920, Note_on_c, 4, 59, 95
7, 130976, Note_off_c, 4, 59, 0
7, 130985, Note_off_c, 4, 55, 0
7, 131160, Note_on_c, 4, 50, 86
7, 131219, Note_off_c, 4, 50, 0
7, 131280, Note_on_c, 4, 55, 92
7, 131280, Note_on_c, 4, 59, 95
7, 131327, Note_off_c, 4, 59, 0
7, 131332, Note_off_c, 4, 55, 0
7, 131400, Note_on_c, 4, 55, 98
7, 131400, Note_on_c, 4, 59, 101
7, 131457, Note_off_c, 4, 59, 0
7, 131467, Note_off_c, 4, 55, 0
7, 131520, Note_on_c, 4, 50, 96
7, 131591, Note_off_c, 4, 50, 0
7, 131640, Note_on_c, 4, 55, 94
7, 131640, Note_on_c, 4, 59, 98
7, 131696, Note_off_c, 4, 59, 0
7, 131700, Note_off_c, 4, 55, 0
7, 131880, Note_on_c, 4, 55, 96
7, 131880, Note_on_c, 4, 59, 101
7, 131934, Note_off_c, 4, 59, 0
7, 131940, Note_off_c, 4, 55, 0
7, 132120, Note_on_c, 4, 50, 96
7, 132178, Note_off_c, 4, 50, 0
7, 132240, Note_on_c, 4, 55, 92
7, 132240, Note_on_c, 4, 59, 97
7, 132287, Note_off_c, 4, 59, 0
7, 132293, Note_off_c, 4, 55, 0
7, 132360, Note_on_c, 4, 55, 87
7, 132360, Note_on_c, 4, 59, 92
7, 132413, Note_off_c, 4, 59, 0
7, 132434, Note_off_c, 4, 55, 0
7, 132480, Note_on_c, 4, 50, 95
7, 132544, Note_off_c, 4, 50, 0
7, 132600, Note_on_c, 4, 53, 92
7, 132600, Note_on_c, 4, 57, 94
7, 132600, Note_on_c, 4, 60, 96
7, 132653, Note_off_c, 4, 57, 0
7, 132657, Note_off_c, 4, 60, 0
7, 132663, Note_off_c, 4, 53, 0
7, 132840, Note_on_c, 4, 53, 92
7, 132840, Note_on_c, 4, 57, 94
7, 132840, Note_on_c, 4, 60, 97
7, 132896, Note_off_c, 4, 57, 0
7, 132905, Note_off_c, 4, 53, 0
7, 132905, Note_off_c, 4, 60, 0
7, 133080, Note_on_c, 4, 50, 88
7, 133134, Note_off_c, 4, 50, 0
7, 133200, Note_on_c, 4, 53, 86
7, 133200, Note_on_c, 4, 57, 88
7, 133200, Note_on_c, 4, 60, 92
7, 133244, Note_off_c, 4, 60, 0
7, 133251, Note_off_c, 4, 57, 0
7, 133255, Note_off_c, 4, 53, 0
7, 133320, Note_on_c, 4, 53, 82
7, 133320, Note_on_c, 4, 57, 87
7, 133320, Note_on_c, 4, 60, 89
7, 133380, Note_off_c, 4, 57, 0
7, 133380, Note_off_c, 4, 60, 0
7, 133389, Note_off_c, 4, 53, 0
7, 133440, Note_on_c, 4, 50, 92
7, 133502, Note_off_c, 4, 50, 0
7, 133560, Note_on_c, 4, 53, 92
7, 133560, Note_on_c, 4, 57, 94
7, 133560, Note_on_c, 4, 60, 97
7, 133615, Note_off_c, 4, 60, 0
7, 133617, Note_off_c, 4, 57, 0
7, 133623, Note_off_c, 4, 53, 0
7, 133800, Note_on_c, 4, 53, 94
7, 133800, Note_on_c, 4, 57, 96
7, 133800, Note_on_c, 4, 60, 98
7, 133856, Note_off_c, 4, 57, 0
7, 133859, Note_off_c, 4, 53, 0
7, 133860, Note_off_c, 4, 60, 0
7, 134040, Note_on_c, 4, 50, 95
7, 134082, Note_off_c, 4, 50, 0
7, 134160, Note_on_c, 4, 53, 87
7, 134160, Note_on_c, 4, 57, 89
7, 134160, Note_on_c, 4, 60, 92
7, 134208, Note_off_c, 4, 60, 0
7, 134218, Note_off_c, 4, 53, 0
7, 134218, Note_off_c, 4, 57, 0
7, 134280, Note_on_c, 4, 53, 88
7, 134280, Note_on_c, 4, 57, 90
7, 134280, Note_on_c, 4, 60, 97
7, 134329, Note_off_c, 4, 53, 0
7, 134329, Note_off_c, 4, 57, 0
7, 134335, Note_off_c, 4, 60, 0
7, 134400, Note_on_c, 4, 53, 92
7, 134462, Note_off_c, 4, 53, 0
7, 134520, Note_on_c, 4, 57, 92
7, 134520, Note_on_c, 4, 60, 92
7, 134575, Note_off_c, 4, 57, 0
7, 134579, Note_off_c, 4, 60, 0
7, 134760, Note_on_c, 4, 57, 90
7, 134760, Note_on_c, 4, 60, 92
7, 134811, Note_off_c, 4, 57, 0
7, 134815, Note_off_c, 4, 60, 0
7, 135000, Note_on_c, 4, 53, 92
7, 135064, Note_off_c, 4, 53, 0
7, 135120, Note_on_c, 4, 57, 95
7, 135120, Note_on_c, 4, 60, 88
7, 135149, Note_off_c, 4, 60, 0
7, 135161, Note_off_c, 4, 57, 0
7, 135240, Note_on_c, 4, 57, 95
7, 135240, Note_on_c, 4, 60, 94
7, 135292, Note_off_c, 4, 60, 0
7, 135296, Note_off_c, 4, 57, 0
7, 135360, Note_on_c, 4, 52, 94
7, 135421, Note_off_c, 4, 52, 0
7, 135480, Note_on_c, 4, 55, 95
7, 135480, Note_on_c, 4, 60, 97
7, 135531, Note_off_c, 4, 55, 0
7, 135532, Note_off_c, 4, 60, 0
7, 135720, Note_on_c, 4, 55, 96
7, 135720, Note_on_c, 4, 60, 98
7, 135778, Note_off_c, 4, 55, 0
7, 135780, Note_off_c, 4, 60, 0
7, 135960, Note_on_c, 4, 52, 92
7, 136025, Note_off_c, 4, 52, 0
7, 136080, Note_on_c, 4, 55, 89
7, 136080, Note_on_c, 4, 60, 90
7, 136116, Note_off_c, 4, 60, 0
7, 136125, Note_off_c, 4, 55, 0
7, 136200, Note_on_c, 4, 55, 90
7, 136200, Note_on_c, 4, 60, 86
7, 136245, Note_off_c, 4, 60, 0
7, 136266, Note_off_c, 4, 55, 0
7, 136320, Note_on_c, 4, 50, 97
7, 136380, Note_off_c, 4, 50, 0
7, 136440, Note_on_c, 4, 55, 94
7, 136440, Note_on_c, 4, 59, 92
7, 136467, Note_off_c, 4, 59, 0
7, 136485, Note_off_c, 4, 55, 0
7, 136560, Note_on_c, 4, 55, 92
7, 136560, Note_on_c, 4, 59, 95
7, 136599, Note_off_c, 4, 59, 0
7, 136615, Note_off_c, 4, 55, 0
7, 136680, Note_on_c, 4, 55, 98
7, 136680, Note_on_c, 4, 59, 101
7, 136726, Note_off_c, 4, 59, 0
7, 136736, Note_off_c, 4, 55, 0
7, 136920, Note_on_c, 4, 50, 88
7, 136982, Note_off_c, 4, 50, 0
7, 137040, Note_on_c, 4, 55, 89
7, 137040, Note_on_c, 4, 59, 89
7, 137079, Note_off_c, 4, 59, 0
7, 137089, Note_off_c, 4, 55, 0
7, 137160, Note_on_c, 4, 55, 98
7, 137160, Note_on_c, 4, 59, 98
7, 137213, Note_off_c, 4, 59, 0
7, 137220, Note_off_c, 4, 55, 0
7, 137280, Note_on_c, 4, 50, 92
7, 137332, Note_off_c, 4, 50, 0
7, 170641, Control_c, 4, 7, 90
7, 170641, End_track
8, 0, Start_track
8, 0, Title_t, "\000"
8, 0, Program_c, 5, 52
8, 0, Control_c, 5, 7, 100
8, 0, Control_c, 5, 10, 66
8, 0, Control_c, 5, 91, 67
8, 0, Control_c, 5, 93, 66
8, 710, Control_c, 5, 11, 127
8, 35987, Note_on_c, 5, 59, 122
8, 36229, Note_on_c, 5, 60, 122
8, 36254, Note_off_c, 5, 59, 0
8, 36460, Note_on_c, 5, 62, 122
8, 36485, Note_off_c, 5, 60, 0
8, 36955, Note_on_c, 5, 67, 116
8, 36958, Note_on_c, 5, 71, 118
8, 36996, Note_off_c, 5, 62, 0
8, 38023, Note_off_c, 5, 71, 0
8, 38032, Note_off_c, 5, 67, 0
8, 38094, Note_on_c, 5, 67, 113
8, 38096, Note_on_c, 5, 71, 113
8, 38187, Note_off_c, 5, 71, 0
8, 38189, Note_off_c, 5, 67, 0
8, 38254, Note_on_c, 5, 71, 113
8, 38256, Note_on_c, 5, 67, 111
8, 38325, Note_off_c, 5, 67, 0
8, 38330, Note_off_c, 5, 71, 0
8, 38387, Note_on_c, 5, 71, 111
8, 38389, Note_on_c, 5, 67, 111
8, 38534, Note_off_c, 5, 71, 0
8, 38556, Note_on_c, 5, 65, 106
8, 38558, Note_on_c, 5, 69, 97
8, 38560, Note_off_c, 5, 67, 0
8, 38721, Note_off_c, 5, 69, 0
8, 38740, Note_on_c, 5, 64, 106
8, 38743, Note_off_c, 5, 65, 0
8, 38745, Note_on_c, 5, 67, 99
8, 38888, Note_on_c, 5, 69, 108
8, 38892, Note_off_c, 5, 67, 0
8, 38894, Note_on_c, 5, 65, 113
8, 38896, Note_off_c, 5, 64, 0
8, 39303, Note_off_c, 5, 69, 0
8, 39311, Note_off_c, 5, 65, 0
8, 40325, Note_on_c, 5, 65, 113
8, 40331, Note_on_c, 5, 69, 107
8, 40335, Note_on_c, 5, 60, 95
8, 40587, Note_off_c, 5, 69, 0
8, 40595, Note_off_c, 5, 60, 0
8, 40630, Note_off_c, 5, 65, 0
8, 40681, Note_on_c, 5, 69, 108
8, 40682, Note_on_c, 5, 60, 106
8, 40686, Note_on_c, 5, 64, 109
8, 40929, Note_off_c, 5, 69, 0
8, 40948, Note_off_c, 5, 60, 0
8, 40984, Note_off_c, 5, 64, 0
8, 41011, Note_on_c, 5, 69, 103
8, 41018, Note_on_c, 5, 62, 115
8, 41019, Note_on_c, 5, 60, 105
8, 41213, Note_off_c, 5, 60, 0
8, 41221, Note_off_c, 5, 62, 0
8, 41227, Note_off_c, 5, 69, 0
8, 41285, Note_on_c, 5, 64, 107
8, 41290, Note_on_c, 5, 67, 104
8, 41293, Note_on_c, 5, 60, 106
8, 41551, Note_off_c, 5, 67, 0
8, 41560, Note_off_c, 5, 60, 0
8, 41591, Note_off_c, 5, 64, 0
8, 41635, Note_on_c, 5, 67, 107
8, 41639, Note_on_c, 5, 60, 107
8, 41640, Note_on_c, 5, 62, 113
8, 41919, Note_off_c, 5, 60, 0
8, 41922, Note_off_c, 5, 67, 0
8, 41934, Note_off_c, 5, 62, 0
8, 41993, Note_on_c, 5, 60, 109
8, 41994, Note_on_c, 5, 64, 102
8, 41996, Note_on_c, 5, 67, 106
8, 42152, Note_off_c, 5, 67, 0
8, 42173, Note_off_c, 5, 60, 0
8, 42190, Note_off_c, 5, 64, 0
8, 42242, Note_on_c, 5, 59, 105
8, 42248, Note_on_c, 5, 67, 102
8, 42251, Note_on_c, 5, 62, 108
8, 42525, Note_off_c, 5, 59, 0
8, 42539, Note_off_c, 5, 67, 0
8, 42544, Note_off_c, 5, 62, 0
8, 42595, Note_on_c, 5, 59, 109
8, 42602, Note_on_c, 5, 67, 110
8, 42608, Note_on_c, 5, 62, 109
8, 42844, Note_off_c, 5, 62, 0
8, 42845, Note_off_c, 5, 59, 0
8, 42848, Note_off_c, 5, 67, 0
8, 42925, Note_on_c, 5, 67, 106
8, 42927, Note_on_c, 5, 59, 109
8, 42934, Note_on_c, 5, 62, 106
8, 43073, Note_off_c, 5, 62, 0
8, 43090, Note_off_c, 5, 67, 0
8, 43100, Note_off_c, 5, 59, 0
8, 43175, Note_on_c, 5, 67, 102
8, 43179, Note_on_c, 5, 59, 105
8, 43180, Note_on_c, 5, 62, 106
8, 43667, Note_on_c, 5, 59, 122
8, 43712, Note_off_c, 5, 62, 0
8, 43728, Note_off_c, 5, 59, 0
8, 43733, Note_off_c, 5, 67, 0
8, 43909, Note_on_c, 5, 60, 122
8, 43934, Note_off_c, 5, 59, 0
8, 44140, Note_on_c, 5, 62, 122
8, 44165, Note_off_c, 5, 60, 0
8, 44635, Note_on_c, 5, 67, 116
8, 44638, Note_on_c, 5, 71, 118
8, 44676, Note_off_c, 5, 62, 0
8, 45703, Note_off_c, 5, 71, 0
8, 45712, Note_off_c, 5, 67, 0
8, 45774, Note_on_c, 5, 67, 113
8, 45776, Note_on_c, 5, 71, 113
8, 45867, Note_off_c, 5, 71, 0
8, 45869, Note_off_c, 5, 67, 0
8, 45934, Note_on_c, 5, 71, 113
8, 45936, Note_on_c, 5, 67, 111
8, 46005, Note_off_c, 5, 67, 0
8, 46010, Note_off_c, 5, 71, 0
8, 46067, Note_on_c, 5, 71, 111
8, 46069, Note_on_c, 5, 67, 111
8, 46214, Note_off_c, 5, 71, 0
8, 46236, Note_on_c, 5, 65, 106
8, 46238, Note_on_c, 5, 69, 97
8, 46240, Note_off_c, 5, 67, 0
8, 46401, Note_off_c, 5, 69, 0
8, 46420, Note_on_c, 5, 64, 106
8, 46423, Note_off_c, 5, 65, 0
8, 46425, Note_on_c, 5, 67, 99
8, 46568, Note_on_c, 5, 69, 108
8, 46572, Note_off_c, 5, 67, 0
8, 46574, Note_on_c, 5, 65, 113
8, 46576, Note_off_c, 5, 64, 0
8, 46983, Note_off_c, 5, 69, 0
8, 46991, Note_off_c, 5, 65, 0
8, 48005, Note_on_c, 5, 65, 113
8, 48011, Note_on_c, 5, 69, 107
8, 48015, Note_on_c, 5, 60, 95
8, 48267, Note_off_c, 5, 69, 0
8, 48275, Note_off_c, 5, 60, 0
8, 48310, Note_off_c, 5, 65, 0
8, 48361, Note_on_c, 5, 69, 108
8, 48362, Note_on_c, 5, 60, 106
8, 48366, Note_on_c, 5, 64, 109
8, 48609, Note_off_c, 5, 69, 0
8, 48628, Note_off_c, 5, 60, 0
8, 48664, Note_off_c, 5, 64, 0
8, 48691, Note_on_c, 5, 69, 103
8, 48698, Note_on_c, 5, 62, 115
8, 48699, Note_on_c, 5, 60, 105
8, 48893, Note_off_c, 5, 60, 0
8, 48901, Note_off_c, 5, 62, 0
8, 48907, Note_off_c, 5, 69, 0
8, 48965, Note_on_c, 5, 64, 107
8, 48970, Note_on_c, 5, 67, 104
8, 48973, Note_on_c, 5, 60, 106
8, 49231, Note_off_c, 5, 67, 0
8, 49240, Note_off_c, 5, 60, 0
8, 49271, Note_off_c, 5, 64, 0
8, 49315, Note_on_c, 5, 67, 107
8, 49319, Note_on_c, 5, 60, 107
8, 49320, Note_on_c, 5, 62, 113
8, 49599, Note_off_c, 5, 60, 0
8, 49602, Note_off_c, 5, 67, 0
8, 49614, Note_off_c, 5, 62, 0
8, 49673, Note_on_c, 5, 60, 109
8, 49674, Note_on_c, 5, 64, 102
8, 49676, Note_on_c, 5, 67, 106
8, 49832, Note_off_c, 5, 67, 0
8, 49853, Note_off_c, 5, 60, 0
8, 49870, Note_off_c, 5, 64, 0
8, 49922, Note_on_c, 5, 59, 105
8, 49928, Note_on_c, 5, 67, 102
8, 49931, Note_on_c, 5, 62, 108
8, 50205, Note_off_c, 5, 59, 0
8, 50219, Note_off_c, 5, 67, 0
8, 50224, Note_off_c, 5, 62, 0
8, 50275, Note_on_c, 5, 59, 109
8, 50282, Note_on_c, 5, 67, 110
8, 50288, Note_on_c, 5, 62, 109
8, 50524, Note_off_c, 5, 62, 0
8, 50525, Note_off_c, 5, 59, 0
8, 50528, Note_off_c, 5, 67, 0
8, 50605, Note_on_c, 5, 67, 106
8, 50607, Note_on_c, 5, 59, 109
8, 50614, Note_on_c, 5, 62, 106
8, 50753, Note_off_c, 5, 62, 0
8, 50770, Note_off_c, 5, 67, 0
8, 50780, Note_off_c, 5, 59, 0
8, 50855, Note_on_c, 5, 67, 102
8, 50859, Note_on_c, 5, 59, 105
8, 50860, Note_on_c, 5, 62, 106
8, 51000, Note_off_c, 5, 67, 0
8, 51000, Note_off_c, 5, 59, 0
8, 51000, Note_off_c, 5, 62, 0
8, 70547, Note_on_c, 5, 59, 122
8, 70789, Note_on_c, 5, 60, 122
8, 70814, Note_off_c, 5, 59, 0
8, 71020, Note_on_c, 5, 62, 122
8, 71045, Note_off_c, 5, 60, 0
8, 71515, Note_on_c, 5, 67, 116
8, 71518, Note_on_c, 5, 71, 118
8, 71556, Note_off_c, 5, 62, 0
8, 72583, Note_off_c, 5, 71, 0
8, 72592, Note_off_c, 5, 67, 0
8, 72654, Note_on_c, 5, 67, 113
8, 72656, Note_on_c, 5, 71, 113
8, 72747, Note_off_c, 5, 71, 0
8, 72749, Note_off_c, 5, 67, 0
8, 72814, Note_on_c, 5, 71, 113
8, 72816, Note_on_c, 5, 67, 111
8, 72885, Note_off_c, 5, 67, 0
8, 72890, Note_off_c, 5, 71, 0
8, 72947, Note_on_c, 5, 71, 111
8, 72949, Note_on_c, 5, 67, 111
8, 73094, Note_off_c, 5, 71, 0
8, 73116, Note_on_c, 5, 65, 106
8, 73118, Note_on_c, 5, 69, 97
8, 73120, Note_off_c, 5, 67, 0
8, 73281, Note_off_c, 5, 69, 0
8, 73300, Note_on_c, 5, 64, 106
8, 73303, Note_off_c, 5, 65, 0
8, 73305, Note_on_c, 5, 67, 99
8, 73448, Note_on_c, 5, 69, 108
8, 73452, Note_off_c, 5, 67, 0
8, 73454, Note_on_c, 5, 65, 113
8, 73456, Note_off_c, 5, 64, 0
8, 73863, Note_off_c, 5, 69, 0
8, 73871, Note_off_c, 5, 65, 0
8, 74885, Note_on_c, 5, 65, 113
8, 74891, Note_on_c, 5, 69, 107
8, 74895, Note_on_c, 5, 60, 95
8, 75147, Note_off_c, 5, 69, 0
8, 75155, Note_off_c, 5, 60, 0
8, 75190, Note_off_c, 5, 65, 0
8, 75241, Note_on_c, 5, 69, 108
8, 75242, Note_on_c, 5, 60, 106
8, 75246, Note_on_c, 5, 64, 109
8, 75489, Note_off_c, 5, 69, 0
8, 75508, Note_off_c, 5, 60, 0
8, 75544, Note_off_c, 5, 64, 0
8, 75571, Note_on_c, 5, 69, 103
8, 75578, Note_on_c, 5, 62, 115
8, 75579, Note_on_c, 5, 60, 105
8, 75773, Note_off_c, 5, 60, 0
8, 75781, Note_off_c, 5, 62, 0
8, 75787, Note_off_c, 5, 69, 0
8, 75845, Note_on_c, 5, 64, 107
8, 75850, Note_on_c, 5, 67, 104
8, 75853, Note_on_c, 5, 60, 106
8, 76111, Note_off_c, 5, 67, 0
8, 76120, Note_off_c, 5, 60, 0
8, 76151, Note_off_c, 5, 64, 0
8, 76195, Note_on_c, 5, 67, 107
8, 76199, Note_on_c, 5, 60, 107
8, 76200, Note_on_c, 5, 62, 113
8, 76479, Note_off_c, 5, 60, 0
8, 76482, Note_off_c, 5, 67, 0
8, 76494, Note_off_c, 5, 62, 0
8, 76553, Note_on_c, 5, 60, 109
8, 76554, Note_on_c, 5, 64, 102
8, 76556, Note_on_c, 5, 67, 106
8, 76712, Note_off_c, 5, 67, 0
8, 76733, Note_off_c, 5, 60, 0
8, 76750, Note_off_c, 5, 64, 0
8, 76802, Note_on_c, 5, 59, 105
8, 76808, Note_on_c, 5, 67, 102
8, 76811, Note_on_c, 5, 62, 108
8, 77085, Note_off_c, 5, 59, 0
8, 77099, Note_off_c, 5, 67, 0
8, 77104, Note_off_c, 5, 62, 0
8, 77155, Note_on_c, 5, 59, 109
8, 77162, Note_on_c, 5, 67, 110
8, 77168, Note_on_c, 5, 62, 109
8, 77404, Note_off_c, 5, 62, 0
8, 77405, Note_off_c, 5, 59, 0
8, 77408, Note_off_c, 5, 67, 0
8, 77485, Note_on_c, 5, 67, 106
8, 77487, Note_on_c, 5, 59, 109
8, 77494, Note_on_c, 5, 62, 106
8, 77633, Note_off_c, 5, 62, 0
8, 77650, Note_off_c, 5, 67, 0
8, 77660, Note_off_c, 5, 59, 0
8, 77735, Note_on_c, 5, 67, 102
8, 77739, Note_on_c, 5, 59, 105
8, 77740, Note_on_c, 5, 62, 106
8, 78227, Note_on_c, 5, 59, 122
8, 78272, Note_off_c, 5, 62, 0
8, 78288, Note_off_c, 5, 59, 0
8, 78293, Note_off_c, 5, 67, 0
8, 78469, Note_on_c, 5, 60, 122
8, 78494, Note_off_c, 5, 59, 0
8, 78700, Note_on_c, 5, 62, 122
8, 78725, Note_off_c, 5, 60, 0
8, 79195, Note_on_c, 5, 67, 116
8, 79198, Note_on_c, 5, 71, 118
8, 79236, Note_off_c, 5, 62, 0
8, 80263, Note_off_c, 5, 71, 0
8, 80272, Note_off_c, 5, 67, 0
8, 80334, Note_on_c, 5, 67, 113
8, 80336, Note_on_c, 5, 71, 113
8, 80427, Note_off_c, 5, 71, 0
8, 80429, Note_off_c, 5, 67, 0
8, 80494, Note_on_c, 5, 71, 113
8, 80496, Note_on_c, 5, 67, 111
8, 80565, Note_off_c, 5, 67, 0
8, 80570, Note_off_c, 5, 71, 0
8, 80627, Note_on_c, 5, 71, 111
8, 80629, Note_on_c, 5, 67, 111
8, 80774, Note_off_c, 5, 71, 0
8, 80796, Note_on_c, 5, 65, 106
8, 80798, Note_on_c, 5, 69, 97
8, 80800, Note_off_c, 5, 67, 0
8, 80961, Note_off_c, 5, 69, 0
8, 80980, Note_on_c, 5, 64, 106
8, 80983, Note_off_c, 5, 65, 0
8, 80985, Note_on_c, 5, 67, 99
8, 81128, Note_on_c, 5, 69, 108
8, 81132, Note_off_c, 5, 67, 0
8, 81134, Note_on_c, 5, 65, 113
8, 81136, Note_off_c, 5, 64, 0
8, 81543, Note_off_c, 5, 69, 0
8, 81551, Note_off_c, 5, 65, 0
8, 82565, Note_on_c, 5, 65, 113
8, 82571, Note_on_c, 5, 69, 107
8, 82575, Note_on_c, 5, 60, 95
8, 82827, Note_off_c, 5, 69, 0
8, 82835, Note_off_c, 5, 60, 0
8, 82870, Note_off_c, 5, 65, 0
8, 82921, Note_on_c, 5, 69, 108
8, 82922, Note_on_c, 5, 60, 106
8, 82926, Note_on_c, 5, 64, 109
8, 83169, Note_off_c, 5, 69, 0
8, 83188, Note_off_c, 5, 60, 0
8, 83224, Note_off_c, 5, 64, 0
8, 83251, Note_on_c, 5, 69, 103
8, 83258, Note_on_c, 5, 62, 115
8, 83259, Note_on_c, 5, 60, 105
8, 83453, Note_off_c, 5, 60, 0
8, 83461, Note_off_c, 5, 62, 0
8, 83467, Note_off_c, 5, 69, 0
8, 83525, Note_on_c, 5, 64, 107
8, 83530, Note_on_c, 5, 67, 104
8, 83533, Note_on_c, 5, 60, 106
8, 83791, Note_off_c, 5, 67, 0
8, 83800, Note_off_c, 5, 60, 0
8, 83831, Note_off_c, 5, 64, 0
8, 83875, Note_on_c, 5, 67, 107
8, 83879, Note_on_c, 5, 60, 107
8, 83880, Note_on_c, 5, 62, 113
8, 84159, Note_off_c, 5, 60, 0
8, 84162, Note_off_c, 5, 67, 0
8, 84174, Note_off_c, 5, 62, 0
8, 84233, Note_on_c, 5, 60, 109
8, 84234, Note_on_c, 5, 64, 102
8, 84236, Note_on_c, 5, 67, 106
8, 84392, Note_off_c, 5, 67, 0
8, 84413, Note_off_c, 5, 60, 0
8, 84430, Note_off_c, 5, 64, 0
8, 84482, Note_on_c, 5, 59, 105
8, 84488, Note_on_c, 5, 67, 102
8, 84491, Note_on_c, 5, 62, 108
8, 84765, Note_off_c, 5, 59, 0
8, 84779, Note_off_c, 5, 67, 0
8, 84784, Note_off_c, 5, 62, 0
8, 84835, Note_on_c, 5, 59, 109
8, 84842, Note_on_c, 5, 67, 110
8, 84848, Note_on_c, 5, 62, 109
8, 85084, Note_off_c, 5, 62, 0
8, 85085, Note_off_c, 5, 59, 0
8, 85088, Note_off_c, 5, 67, 0
8, 85165, Note_on_c, 5, 67, 106
8, 85167, Note_on_c, 5, 59, 109
8, 85174, Note_on_c, 5, 62, 106
8, 85313, Note_off_c, 5, 62, 0
8, 85330, Note_off_c, 5, 67, 0
8, 85340, Note_off_c, 5, 59, 0
8, 85415, Note_on_c, 5, 67, 102
8, 85419, Note_on_c, 5, 59, 105
8, 85420, Note_on_c, 5, 62, 106
8, 85560, Note_off_c, 5, 67, 0
8, 85560, Note_off_c, 5, 59, 0
8, 85560, Note_off_c, 5, 62, 0
8, 86642, Note_on_c, 5, 60, 118
8, 86738, Note_off_c, 5, 60, 0
8, 86767, Note_on_c, 5, 60, 110
8, 86834, Note_off_c, 5, 60, 0
8, 86878, Note_on_c, 5, 60, 118
8, 86968, Note_off_c, 5, 60, 0
8, 87010, Note_on_c, 5, 60, 118
8, 87174, Note_off_c, 5, 60, 0
8, 87250, Note_on_c, 5, 60, 118
8, 87437, Note_off_c, 5, 60, 0
8, 87496, Note_on_c, 5, 60, 117
8, 87687, Note_off_c, 5, 60, 0
8, 87749, Note_on_c, 5, 60, 117
8, 87848, Note_off_c, 5, 60, 0
8, 87857, Note_on_c, 5, 62, 118
8, 88081, Note_off_c, 5, 62, 0
8, 88084, Note_on_c, 5, 60, 119
8, 88316, Control_c, 5, 1, 34
8, 88352, Control_c, 5, 1, 0
8, 88407, Note_off_c, 5, 60, 0
8, 88554, Note_on_c, 5, 60, 122
8, 88625, Note_off_c, 5, 60, 0
8, 88686, Note_on_c, 5, 60, 117
8, 88750, Note_off_c, 5, 60, 0
8, 88811, Note_on_c, 5, 60, 119
8, 88879, Note_off_c, 5, 60, 0
8, 88941, Note_on_c, 5, 60, 120
8, 89085, Note_off_c, 5, 60, 0
8, 89160, Note_on_c, 5, 60, 120
8, 89337, Note_off_c, 5, 60, 0
8, 89408, Note_on_c, 5, 60, 119
8, 89575, Note_off_c, 5, 60, 0
8, 89650, Note_on_c, 5, 60, 120
8, 89780, Note_on_c, 5, 62, 120
8, 89788, Note_off_c, 5, 60, 0
8, 89981, Note_off_c, 5, 62, 0
8, 89991, Note_on_c, 5, 60, 122
8, 90162, Note_off_c, 5, 60, 0
8, 90254, Note_on_c, 5, 72, 113
8, 90255, Note_on_c, 5, 69, 110
8, 90261, Note_on_c, 5, 55, 109
8, 90263, Note_on_c, 5, 62, 113
8, 90549, Note_off_c, 5, 62, 0
8, 90550, Note_off_c, 5, 72, 0
8, 90561, Note_off_c, 5, 55, 0
8, 90593, Note_off_c, 5, 69, 0
8, 90633, Note_on_c, 5, 71, 115
8, 90634, Note_on_c, 5, 62, 107
8, 90635, Note_on_c, 5, 67, 107
8, 90638, Note_on_c, 5, 55, 110
8, 90889, Note_off_c, 5, 62, 0
8, 90896, Note_off_c, 5, 55, 0
8, 90902, Note_off_c, 5, 71, 0
8, 90905, Note_off_c, 5, 67, 0
8, 90964, Note_on_c, 5, 62, 105
8, 90965, Note_on_c, 5, 67, 104
8, 90966, Note_on_c, 5, 55, 109
8, 90968, Note_on_c, 5, 71, 115
8, 91115, Note_off_c, 5, 62, 0
8, 91142, Note_off_c, 5, 55, 0
8, 91165, Note_off_c, 5, 71, 0
8, 91167, Note_off_c, 5, 67, 0
8, 91228, Note_on_c, 5, 53, 111
8, 91228, Note_on_c, 5, 60, 98
8, 91235, Note_on_c, 5, 67, 109
8, 91240, Note_on_c, 5, 71, 113
8, 91488, Note_off_c, 5, 53, 0
8, 91502, Note_off_c, 5, 60, 0
8, 91531, Note_off_c, 5, 71, 0
8, 91534, Note_off_c, 5, 67, 0
8, 91581, Note_on_c, 5, 69, 111
8, 91586, Note_on_c, 5, 53, 101
8, 91588, Note_on_c, 5, 65, 115
8, 91591, Note_on_c, 5, 60, 93
8, 91826, Note_off_c, 5, 69, 0
8, 91842, Note_off_c, 5, 60, 0
8, 91845, Note_off_c, 5, 53, 0
8, 91847, Note_off_c, 5, 65, 0
8, 91918, Note_on_c, 5, 65, 113
8, 91924, Note_on_c, 5, 69, 107
8, 91939, Note_on_c, 5, 53, 106
8, 91939, Note_on_c, 5, 60, 101
8, 92059, Note_off_c, 5, 53, 0
8, 92074, Note_off_c, 5, 60, 0
8, 92103, Note_off_c, 5, 69, 0
8, 92110, Note_off_c, 5, 65, 0
8, 92178, Note_on_c, 5, 65, 116
8, 92180, Note_on_c, 5, 69, 115
8, 92185, Note_on_c, 5, 55, 104
8, 92195, Note_on_c, 5, 60, 103
8, 92436, Note_off_c, 5, 60, 0
8, 92447, Note_off_c, 5, 55, 0
8, 92480, Note_off_c, 5, 69, 0
8, 92496, Note_off_c, 5, 65, 0
8, 92524, Note_on_c, 5, 67, 113
8, 92525, Note_on_c, 5, 64, 108
8, 92532, Note_on_c, 5, 60, 97
8, 92533, Note_on_c, 5, 55, 109
8, 92768, Note_off_c, 5, 60, 0
8, 92777, Note_off_c, 5, 64, 0
8, 92791, Note_off_c, 5, 55, 0
8, 92830, Note_off_c, 5, 67, 0
8, 92854, Note_on_c, 5, 62, 113
8, 92863, Note_on_c, 5, 65, 109
8, 92864, Note_on_c, 5, 60, 102
8, 92865, Note_on_c, 5, 55, 109
8, 93016, Note_off_c, 5, 60, 0
8, 93026, Note_off_c, 5, 62, 0
8, 93028, Note_off_c, 5, 55, 0
8, 93119, Note_off_c, 5, 65, 0
8, 93120, Note_on_c, 5, 64, 108
8, 93121, Note_on_c, 5, 60, 104
8, 93122, Note_on_c, 5, 55, 110
8, 93123, Note_on_c, 5, 67, 113
8, 93805, Note_off_c, 5, 60, 0
8, 93809, Note_off_c, 5, 55, 0
8, 93814, Note_off_c, 5, 64, 0
8, 93826, Note_off_c, 5, 67, 0
8, 94322, Note_on_c, 5, 60, 118
8, 94418, Note_off_c, 5, 60, 0
8, 94447, Note_on_c, 5, 60, 110
8, 94514, Note_off_c, 5, 60, 0
8, 94558, Note_on_c, 5, 60, 118
8, 94648, Note_off_c, 5, 60, 0
8, 94690, Note_on_c, 5, 60, 118
8, 94854, Note_off_c, 5, 60, 0
8, 94930, Note_on_c, 5, 60, 118
8, 95117, Note_off_c, 5, 60, 0
8, 95176, Note_on_c, 5, 60, 117
8, 95367, Note_off_c, 5, 60, 0
8, 95429, Note_on_c, 5, 60, 117
8, 95528, Note_off_c, 5, 60, 0
8, 95537, Note_on_c, 5, 62, 118
8, 95761, Note_off_c, 5, 62, 0
8, 95764, Note_on_c, 5, 60, 119
8, 95996, Control_c, 5, 1, 34
8, 96032, Control_c, 5, 1, 0
8, 96087, Note_off_c, 5, 60, 0
8, 96234, Note_on_c, 5, 60, 122
8, 96305, Note_off_c, 5, 60, 0
8, 96366, Note_on_c, 5, 60, 117
8, 96430, Note_off_c, 5, 60, 0
8, 96491, Note_on_c, 5, 60, 119
8, 96559, Note_off_c, 5, 60, 0
8, 96621, Note_on_c, 5, 60, 120
8, 96765, Note_off_c, 5, 60, 0
8, 96840, Note_on_c, 5, 60, 120
8, 97017, Note_off_c, 5, 60, 0
8, 97088, Note_on_c, 5, 60, 119
8, 97255, Note_off_c, 5, 60, 0
8, 97330, Note_on_c, 5, 60, 120
8, 97460, Note_on_c, 5, 62, 120
8, 97468, Note_off_c, 5, 60, 0
8, 97661, Note_off_c, 5, 62, 0
8, 97671, Note_on_c, 5, 60, 122
8, 97842, Note_off_c, 5, 60, 0
8, 97934, Note_on_c, 5, 72, 113
8, 97935, Note_on_c, 5, 69, 110
8, 97941, Note_on_c, 5, 55, 109
8, 97943, Note_on_c, 5, 62, 113
8, 98229, Note_off_c, 5, 62, 0
8, 98230, Note_off_c, 5, 72, 0
8, 98241, Note_off_c, 5, 55, 0
8, 98273, Note_off_c, 5, 69, 0
8, 98313, Note_on_c, 5, 71, 115
8, 98314, Note_on_c, 5, 62, 107
8, 98315, Note_on_c, 5, 67, 107
8, 98318, Note_on_c, 5, 55, 110
8, 98569, Note_off_c, 5, 62, 0
8, 98576, Note_off_c, 5, 55, 0
8, 98582, Note_off_c, 5, 71, 0
8, 98585, Note_off_c, 5, 67, 0
8, 98644, Note_on_c, 5, 62, 105
8, 98645, Note_on_c, 5, 67, 104
8, 98646, Note_on_c, 5, 55, 109
8, 98648, Note_on_c, 5, 71, 115
8, 98795, Note_off_c, 5, 62, 0
8, 98822, Note_off_c, 5, 55, 0
8, 98845, Note_off_c, 5, 71, 0
8, 98847, Note_off_c, 5, 67, 0
8, 98908, Note_on_c, 5, 53, 111
8, 98908, Note_on_c, 5, 60, 98
8, 98915, Note_on_c, 5, 67, 109
8, 98920, Note_on_c, 5, 71, 113
8, 99168, Note_off_c, 5, 53, 0
8, 99182, Note_off_c, 5, 60, 0
8, 99211, Note_off_c, 5, 71, 0
8, 99214, Note_off_c, 5, 67, 0
8, 99261, Note_on_c, 5, 69, 111
8, 99266, Note_on_c, 5, 53, 101
8, 99268, Note_on_c, 5, 65, 115
8, 99271, Note_on_c, 5, 60, 93
8, 99506, Note_off_c, 5, 69, 0
8, 99522, Note_off_c, 5, 60, 0
8, 99525, Note_off_c, 5, 53, 0
8, 99527, Note_off_c, 5, 65, 0
8, 99598, Note_on_c, 5, 65, 113
8, 99604, Note_on_c, 5, 69, 107
8, 99619, Note_on_c, 5, 53, 106
8, 99619, Note_on_c, 5, 60, 101
8, 99739, Note_off_c, 5, 53, 0
8, 99754, Note_off_c, 5, 60, 0
8, 99783, Note_off_c, 5, 69, 0
8, 99790, Note_off_c, 5, 65, 0
8, 99858, Note_on_c, 5, 65, 116
8, 99860, Note_on_c, 5, 69, 115
8, 99865, Note_on_c, 5, 55, 104
8, 99875, Note_on_c, 5, 59, 103
8, 100116, Note_off_c, 5, 59, 0
8, 100127, Note_off_c, 5, 55, 0
8, 100160, Note_off_c, 5, 69, 0
8, 100176, Note_off_c, 5, 65, 0
8, 100204, Note_on_c, 5, 67, 113
8, 100205, Note_on_c, 5, 64, 108
8, 100212, Note_on_c, 5, 59, 97
8, 100213, Note_on_c, 5, 55, 109
8, 100448, Note_off_c, 5, 59, 0
8, 100457, Note_off_c, 5, 64, 0
8, 100471, Note_off_c, 5, 55, 0
8, 100510, Note_off_c, 5, 67, 0
8, 100534, Note_on_c, 5, 62, 113
8, 100543, Note_on_c, 5, 65, 109
8, 100544, Note_on_c, 5, 59, 102
8, 100545, Note_on_c, 5, 55, 109
8, 100696, Note_off_c, 5, 59, 0
8, 100706, Note_off_c, 5, 62, 0
8, 100708, Note_off_c, 5, 55, 0
8, 100799, Note_off_c, 5, 65, 0
8, 100800, Note_on_c, 5, 64, 108
8, 100801, Note_on_c, 5, 59, 104
8, 100802, Note_on_c, 5, 55, 110
8, 100803, Note_on_c, 5, 67, 113
8, 101485, Note_off_c, 5, 59, 0
8, 101489, Note_off_c, 5, 55, 0
8, 101494, Note_off_c, 5, 64, 0
8, 101506, Note_off_c, 5, 67, 0
8, 107027, Note_on_c, 5, 59, 122
8, 107269, Note_on_c, 5, 60, 122
8, 107294, Note_off_c, 5, 59, 0
8, 107500, Note_on_c, 5, 62, 122
8, 107525, Note_off_c, 5, 60, 0
8, 107995, Note_on_c, 5, 67, 116
8, 107998, Note_on_c, 5, 71, 118
8, 108036, Note_off_c, 5, 62, 0
8, 109063, Note_off_c, 5, 71, 0
8, 109072, Note_off_c, 5, 67, 0
8, 109134, Note_on_c, 5, 67, 113
8, 109136, Note_on_c, 5, 71, 113
8, 109227, Note_off_c, 5, 71, 0
8, 109229, Note_off_c, 5, 67, 0
8, 109294, Note_on_c, 5, 71, 113
8, 109296, Note_on_c, 5, 67, 111
8, 109365, Note_off_c, 5, 67, 0
8, 109370, Note_off_c, 5, 71, 0
8, 109427, Note_on_c, 5, 71, 111
8, 109429, Note_on_c, 5, 67, 111
8, 109574, Note_off_c, 5, 71, 0
8, 109596, Note_on_c, 5, 65, 106
8, 109598, Note_on_c, 5, 69, 97
8, 109600, Note_off_c, 5, 67, 0
8, 109761, Note_off_c, 5, 69, 0
8, 109780, Note_on_c, 5, 64, 106
8, 109783, Note_off_c, 5, 65, 0
8, 109785, Note_on_c, 5, 67, 99
8, 109928, Note_on_c, 5, 69, 108
8, 109932, Note_off_c, 5, 67, 0
8, 109934, Note_on_c, 5, 65, 113
8, 109936, Note_off_c, 5, 64, 0
8, 110343, Note_off_c, 5, 69, 0
8, 110351, Note_off_c, 5, 65, 0
8, 111365, Note_on_c, 5, 65, 113
8, 111371, Note_on_c, 5, 69, 107
8, 111375, Note_on_c, 5, 60, 95
8, 111627, Note_off_c, 5, 69, 0
8, 111635, Note_off_c, 5, 60, 0
8, 111670, Note_off_c, 5, 65, 0
8, 111721, Note_on_c, 5, 69, 108
8, 111722, Note_on_c, 5, 60, 106
8, 111726, Note_on_c, 5, 64, 109
8, 111969, Note_off_c, 5, 69, 0
8, 111988, Note_off_c, 5, 60, 0
8, 112024, Note_off_c, 5, 64, 0
8, 112051, Note_on_c, 5, 69, 103
8, 112058, Note_on_c, 5, 62, 115
8, 112059, Note_on_c, 5, 60, 105
8, 112253, Note_off_c, 5, 60, 0
8, 112261, Note_off_c, 5, 62, 0
8, 112267, Note_off_c, 5, 69, 0
8, 112325, Note_on_c, 5, 64, 107
8, 112330, Note_on_c, 5, 67, 104
8, 112333, Note_on_c, 5, 60, 106
8, 112591, Note_off_c, 5, 67, 0
8, 112600, Note_off_c, 5, 60, 0
8, 112631, Note_off_c, 5, 64, 0
8, 112675, Note_on_c, 5, 67, 107
8, 112679, Note_on_c, 5, 60, 107
8, 112680, Note_on_c, 5, 62, 113
8, 112959, Note_off_c, 5, 60, 0
8, 112962, Note_off_c, 5, 67, 0
8, 112974, Note_off_c, 5, 62, 0
8, 113033, Note_on_c, 5, 60, 109
8, 113034, Note_on_c, 5, 64, 102
8, 113036, Note_on_c, 5, 67, 106
8, 113192, Note_off_c, 5, 67, 0
8, 113213, Note_off_c, 5, 60, 0
8, 113230, Note_off_c, 5, 64, 0
8, 113282, Note_on_c, 5, 59, 105
8, 113288, Note_on_c, 5, 67, 102
8, 113291, Note_on_c, 5, 62, 108
8, 113565, Note_off_c, 5, 59, 0
8, 113579, Note_off_c, 5, 67, 0
8, 113584, Note_off_c, 5, 62, 0
8, 113635, Note_on_c, 5, 59, 109
8, 113642, Note_on_c, 5, 67, 110
8, 113648, Note_on_c, 5, 62, 109
8, 113884, Note_off_c, 5, 62, 0
8, 113885, Note_off_c, 5, 59, 0
8, 113888, Note_off_c, 5, 67, 0
8, 113965, Note_on_c, 5, 67, 106
8, 113967, Note_on_c, 5, 59, 109
8, 113974, Note_on_c, 5, 62, 106
8, 114113, Note_off_c, 5, 62, 0
8, 114130, Note_off_c, 5, 67, 0
8, 114140, Note_off_c, 5, 59, 0
8, 114215, Note_on_c, 5, 67, 102
8, 114219, Note_on_c, 5, 59, 105
8, 114220, Note_on_c, 5, 62, 106
8, 114707, Note_on_c, 5, 59, 122
8, 114752, Note_off_c, 5, 62, 0
8, 114768, Note_off_c, 5, 59, 0
8, 114773, Note_off_c, 5, 67, 0
8, 114949, Note_on_c, 5, 60, 122
8, 114974, Note_off_c, 5, 59, 0
8, 115180, Note_on_c, 5, 62, 122
8, 115205, Note_off_c, 5, 60, 0
8, 115675, Note_on_c, 5, 67, 116
8, 115678, Note_on_c, 5, 71, 118
8, 115716, Note_off_c, 5, 62, 0
8, 116743, Note_off_c, 5, 71, 0
8, 116752, Note_off_c, 5, 67, 0
8, 116814, Note_on_c, 5, 67, 113
8, 116816, Note_on_c, 5, 71, 113
8, 116907, Note_off_c, 5, 71, 0
8, 116909, Note_off_c, 5, 67, 0
8, 116974, Note_on_c, 5, 71, 113
8, 116976, Note_on_c, 5, 67, 111
8, 117045, Note_off_c, 5, 67, 0
8, 117050, Note_off_c, 5, 71, 0
8, 117107, Note_on_c, 5, 71, 111
8, 117109, Note_on_c, 5, 67, 111
8, 117254, Note_off_c, 5, 71, 0
8, 117276, Note_on_c, 5, 65, 106
8, 117278, Note_on_c, 5, 69, 97
8, 117280, Note_off_c, 5, 67, 0
8, 117441, Note_off_c, 5, 69, 0
8, 117460, Note_on_c, 5, 64, 106
8, 117463, Note_off_c, 5, 65, 0
8, 117465, Note_on_c, 5, 67, 99
8, 117608, Note_on_c, 5, 69, 108
8, 117612, Note_off_c, 5, 67, 0
8, 117614, Note_on_c, 5, 65, 113
8, 117616, Note_off_c, 5, 64, 0
8, 118023, Note_off_c, 5, 69, 0
8, 118031, Note_off_c, 5, 65, 0
8, 119045, Note_on_c, 5, 65, 113
8, 119051, Note_on_c, 5, 69, 107
8, 119055, Note_on_c, 5, 60, 95
8, 119307, Note_off_c, 5, 69, 0
8, 119315, Note_off_c, 5, 60, 0
8, 119350, Note_off_c, 5, 65, 0
8, 119401, Note_on_c, 5, 69, 108
8, 119402, Note_on_c, 5, 60, 106
8, 119406, Note_on_c, 5, 64, 109
8, 119649, Note_off_c, 5, 69, 0
8, 119668, Note_off_c, 5, 60, 0
8, 119704, Note_off_c, 5, 64, 0
8, 119731, Note_on_c, 5, 69, 103
8, 119738, Note_on_c, 5, 62, 115
8, 119739, Note_on_c, 5, 60, 105
8, 119933, Note_off_c, 5, 60, 0
8, 119941, Note_off_c, 5, 62, 0
8, 119947, Note_off_c, 5, 69, 0
8, 120005, Note_on_c, 5, 64, 107
8, 120010, Note_on_c, 5, 67, 104
8, 120013, Note_on_c, 5, 60, 106
8, 120271, Note_off_c, 5, 67, 0
8, 120280, Note_off_c, 5, 60, 0
8, 120311, Note_off_c, 5, 64, 0
8, 120355, Note_on_c, 5, 67, 107
8, 120359, Note_on_c, 5, 60, 107
8, 120360, Note_on_c, 5, 62, 113
8, 120639, Note_off_c, 5, 60, 0
8, 120642, Note_off_c, 5, 67, 0
8, 120654, Note_off_c, 5, 62, 0
8, 120713, Note_on_c, 5, 60, 109
8, 120714, Note_on_c, 5, 64, 102
8, 120716, Note_on_c, 5, 67, 106
8, 120872, Note_off_c, 5, 67, 0
8, 120893, Note_off_c, 5, 60, 0
8, 120910, Note_off_c, 5, 64, 0
8, 120962, Note_on_c, 5, 59, 105
8, 120968, Note_on_c, 5, 67, 102
8, 120971, Note_on_c, 5, 62, 108
8, 121245, Note_off_c, 5, 59, 0
8, 121259, Note_off_c, 5, 67, 0
8, 121264, Note_off_c, 5, 62, 0
8, 121315, Note_on_c, 5, 59, 109
8, 121322, Note_on_c, 5, 67, 110
8, 121328, Note_on_c, 5, 62, 109
8, 121564, Note_off_c, 5, 62, 0
8, 121565, Note_off_c, 5, 59, 0
8, 121568, Note_off_c, 5, 67, 0
8, 121645, Note_on_c, 5, 67, 106
8, 121647, Note_on_c, 5, 59, 109
8, 121654, Note_on_c, 5, 62, 106
8, 121793, Note_off_c, 5, 62, 0
8, 121810, Note_off_c, 5, 67, 0
8, 121820, Note_off_c, 5, 59, 0
8, 121895, Note_on_c, 5, 67, 102
8, 121899, Note_on_c, 5, 59, 105
8, 121900, Note_on_c, 5, 62, 106
8, 122040, Note_off_c, 5, 67, 0
8, 122040, Note_off_c, 5, 59, 0
8, 122040, Note_off_c, 5, 62, 0
8, 122387, Note_on_c, 5, 59, 122
8, 122629, Note_on_c, 5, 60, 122
8, 122654, Note_off_c, 5, 59, 0
8, 122860, Note_on_c, 5, 62, 122
8, 122885, Note_off_c, 5, 60, 0
8, 123355, Note_on_c, 5, 67, 116
8, 123358, Note_on_c, 5, 71, 118
8, 123396, Note_off_c, 5, 62, 0
8, 124423, Note_off_c, 5, 71, 0
8, 124432, Note_off_c, 5, 67, 0
8, 124494, Note_on_c, 5, 67, 113
8, 124496, Note_on_c, 5, 71, 113
8, 124587, Note_off_c, 5, 71, 0
8, 124589, Note_off_c, 5, 67, 0
8, 124654, Note_on_c, 5, 71, 113
8, 124656, Note_on_c, 5, 67, 111
8, 124725, Note_off_c, 5, 67, 0
8, 124730, Note_off_c, 5, 71, 0
8, 124787, Note_on_c, 5, 71, 111
8, 124789, Note_on_c, 5, 67, 111
8, 124934, Note_off_c, 5, 71, 0
8, 124956, Note_on_c, 5, 65, 106
8, 124958, Note_on_c, 5, 69, 97
8, 124960, Note_off_c, 5, 67, 0
8, 125121, Note_off_c, 5, 69, 0
8, 125140, Note_on_c, 5, 64, 106
8, 125143, Note_off_c, 5, 65, 0
8, 125145, Note_on_c, 5, 67, 99
8, 125288, Note_on_c, 5, 69, 108
8, 125292, Note_off_c, 5, 67, 0
8, 125294, Note_on_c, 5, 65, 113
8, 125296, Note_off_c, 5, 64, 0
8, 125703, Note_off_c, 5, 69, 0
8, 125711, Note_off_c, 5, 65, 0
8, 126725, Note_on_c, 5, 65, 113
8, 126731, Note_on_c, 5, 69, 107
8, 126735, Note_on_c, 5, 60, 95
8, 126987, Note_off_c, 5, 69, 0
8, 126995, Note_off_c, 5, 60, 0
8, 127030, Note_off_c, 5, 65, 0
8, 127081, Note_on_c, 5, 69, 108
8, 127082, Note_on_c, 5, 60, 106
8, 127086, Note_on_c, 5, 64, 109
8, 127329, Note_off_c, 5, 69, 0
8, 127348, Note_off_c, 5, 60, 0
8, 127384, Note_off_c, 5, 64, 0
8, 127411, Note_on_c, 5, 69, 103
8, 127418, Note_on_c, 5, 62, 115
8, 127419, Note_on_c, 5, 60, 105
8, 127613, Note_off_c, 5, 60, 0
8, 127621, Note_off_c, 5, 62, 0
8, 127627, Note_off_c, 5, 69, 0
8, 127685, Note_on_c, 5, 64, 107
8, 127690, Note_on_c, 5, 67, 104
8, 127693, Note_on_c, 5, 60, 106
8, 127951, Note_off_c, 5, 67, 0
8, 127960, Note_off_c, 5, 60, 0
8, 127991, Note_off_c, 5, 64, 0
8, 128035, Note_on_c, 5, 67, 107
8, 128039, Note_on_c, 5, 60, 107
8, 128040, Note_on_c, 5, 62, 113
8, 128319, Note_off_c, 5, 60, 0
8, 128322, Note_off_c, 5, 67, 0
8, 128334, Note_off_c, 5, 62, 0
8, 128393, Note_on_c, 5, 60, 109
8, 128394, Note_on_c, 5, 64, 102
8, 128396, Note_on_c, 5, 67, 106
8, 128552, Note_off_c, 5, 67, 0
8, 128573, Note_off_c, 5, 60, 0
8, 128590, Note_off_c, 5, 64, 0
8, 128642, Note_on_c, 5, 59, 105
8, 128648, Note_on_c, 5, 67, 102
8, 128651, Note_on_c, 5, 62, 108
8, 128925, Note_off_c, 5, 59, 0
8, 128939, Note_off_c, 5, 67, 0
8, 128944, Note_off_c, 5, 62, 0
8, 128995, Note_on_c, 5, 59, 109
8, 129002, Note_on_c, 5, 67, 110
8, 129008, Note_on_c, 5, 62, 109
8, 129244, Note_off_c, 5, 62, 0
8, 129245, Note_off_c, 5, 59, 0
8, 129248, Note_off_c, 5, 67, 0
8, 129325, Note_on_c, 5, 67, 106
8, 129327, Note_on_c, 5, 59, 109
8, 129334, Note_on_c, 5, 62, 106
8, 129473, Note_off_c, 5, 62, 0
8, 129490, Note_off_c, 5, 67, 0
8, 129500, Note_off_c, 5, 59, 0
8, 129575, Note_on_c, 5, 67, 102
8, 129579, Note_on_c, 5, 59, 105
8, 129580, Note_on_c, 5, 62, 106
8, 130067, Note_on_c, 5, 59, 122
8, 130112, Note_off_c, 5, 62, 0
8, 130128, Note_off_c, 5, 59, 0
8, 130133, Note_off_c, 5, 67, 0
8, 130309, Note_on_c, 5, 60, 122
8, 130334, Note_off_c, 5, 59, 0
8, 130540, Note_on_c, 5, 62, 122
8, 130565, Note_off_c, 5, 60, 0
8, 131035, Note_on_c, 5, 67, 116
8, 131038, Note_on_c, 5, 71, 118
8, 131076, Note_off_c, 5, 62, 0
8, 132103, Note_off_c, 5, 71, 0
8, 132112, Note_off_c, 5, 67, 0
8, 132174, Note_on_c, 5, 67, 113
8, 132176, Note_on_c, 5, 71, 113
8, 132267, Note_off_c, 5, 71, 0
8, 132269, Note_off_c, 5, 67, 0
8, 132334, Note_on_c, 5, 71, 113
8, 132336, Note_on_c, 5, 67, 111
8, 132405, Note_off_c, 5, 67, 0
8, 132410, Note_off_c, 5, 71, 0
8, 132467, Note_on_c, 5, 71, 111
8, 132469, Note_on_c, 5, 67, 111
8, 132614, Note_off_c, 5, 71, 0
8, 132636, Note_on_c, 5, 65, 106
8, 132638, Note_on_c, 5, 69, 97
8, 132640, Note_off_c, 5, 67, 0
8, 132801, Note_off_c, 5, 69, 0
8, 132820, Note_on_c, 5, 64, 106
8, 132823, Note_off_c, 5, 65, 0
8, 132825, Note_on_c, 5, 67, 99
8, 132968, Note_on_c, 5, 69, 108
8, 132972, Note_off_c, 5, 67, 0
8, 132974, Note_on_c, 5, 65, 113
8, 132976, Note_off_c, 5, 64, 0
8, 133383, Note_off_c, 5, 69, 0
8, 133391, Note_off_c, 5, 65, 0
8, 134405, Note_on_c, 5, 65, 113
8, 134411, Note_on_c, 5, 69, 107
8, 134415, Note_on_c, 5, 60, 95
8, 134667, Note_off_c, 5, 69, 0
8, 134675, Note_off_c, 5, 60, 0
8, 134710, Note_off_c, 5, 65, 0
8, 134761, Note_on_c, 5, 69, 108
8, 134762, Note_on_c, 5, 60, 106
8, 134766, Note_on_c, 5, 64, 109
8, 135009, Note_off_c, 5, 69, 0
8, 135028, Note_off_c, 5, 60, 0
8, 135064, Note_off_c, 5, 64, 0
8, 135091, Note_on_c, 5, 69, 103
8, 135098, Note_on_c, 5, 62, 115
8, 135099, Note_on_c, 5, 60, 105
8, 135293, Note_off_c, 5, 60, 0
8, 135301, Note_off_c, 5, 62, 0
8, 135307, Note_off_c, 5, 69, 0
8, 135365, Note_on_c, 5, 64, 107
8, 135370, Note_on_c, 5, 67, 104
8, 135373, Note_on_c, 5, 60, 106
8, 135631, Note_off_c, 5, 67, 0
8, 135640, Note_off_c, 5, 60, 0
8, 135671, Note_off_c, 5, 64, 0
8, 135715, Note_on_c, 5, 67, 107
8, 135719, Note_on_c, 5, 60, 107
8, 135720, Note_on_c, 5, 62, 113
8, 135999, Note_off_c, 5, 60, 0
8, 136002, Note_off_c, 5, 67, 0
8, 136014, Note_off_c, 5, 62, 0
8, 136073, Note_on_c, 5, 60, 109
8, 136074, Note_on_c, 5, 64, 102
8, 136076, Note_on_c, 5, 67, 106
8, 136232, Note_off_c, 5, 67, 0
8, 136253, Note_off_c, 5, 60, 0
8, 136270, Note_off_c, 5, 64, 0
8, 136322, Note_on_c, 5, 59, 105
8, 136328, Note_on_c, 5, 67, 102
8, 136331, Note_on_c, 5, 62, 108
8, 136605, Note_off_c, 5, 59, 0
8, 136619, Note_off_c, 5, 67, 0
8, 136624, Note_off_c, 5, 62, 0
8, 136675, Note_on_c, 5, 59, 109
8, 136682, Note_on_c, 5, 67, 110
8, 136688, Note_on_c, 5, 62, 109
8, 136924, Note_off_c, 5, 62, 0
8, 136925, Note_off_c, 5, 59, 0
8, 136928, Note_off_c, 5, 67, 0
8, 137005, Note_on_c, 5, 67, 106
8, 137007, Note_on_c, 5, 59, 109
8, 137014, Note_on_c, 5, 62, 106
8, 137153, Note_off_c, 5, 62, 0
8, 137170, Note_off_c, 5, 67, 0
8, 137180, Note_off_c, 5, 59, 0
8, 137255, Note_on_c, 5, 67, 102
8, 137259, Note_on_c, 5, 59, 105
8, 137260, Note_on_c, 5, 62, 106
8, 137400, Note_off_c, 5, 67, 0
8, 137400, Note_off_c, 5, 59, 0
8, 137400, Note_off_c, 5, 62, 0
8, 138720, Note_on_c, 5, 62, 120
8, 138720, Note_on_c, 5, 67, 117
8, 138720, Note_on_c, 5, 71, 120
8, 138841, Note_off_c, 5, 67, 0
8, 138853, Note_off_c, 5, 71, 0
8, 138855, Note_off_c, 5, 62, 0
8, 138960, Note_on_c, 5, 62, 119
8, 138960, Note_on_c, 5, 67, 92
8, 138960, Note_on_c, 5, 71, 113
8, 139026, Note_off_c, 5, 67, 0
8, 139027, Note_off_c, 5, 62, 0
8, 139027, Note_off_c, 5, 71, 0
8, 139080, Note_on_c, 5, 62, 120
8, 139080, Note_on_c, 5, 67, 98
8, 139080, Note_on_c, 5, 71, 115
8, 139221, Note_off_c, 5, 67, 0
8, 139225, Note_off_c, 5, 71, 0
8, 139229, Note_off_c, 5, 62, 0
8, 139320, Note_on_c, 5, 62, 119
8, 139320, Note_on_c, 5, 67, 99
8, 139320, Note_on_c, 5, 71, 111
8, 139459, Note_off_c, 5, 62, 0
8, 139473, Note_off_c, 5, 67, 0
8, 139482, Note_off_c, 5, 71, 0
8, 139560, Note_on_c, 5, 62, 117
8, 139560, Note_on_c, 5, 69, 109
8, 139560, Note_on_c, 5, 72, 113
8, 139739, Note_off_c, 5, 62, 0
8, 139748, Note_off_c, 5, 72, 0
8, 139789, Note_off_c, 5, 69, 0
8, 139800, Note_on_c, 5, 62, 119
8, 139800, Note_on_c, 5, 67, 110
8, 139800, Note_on_c, 5, 71, 118
8, 139993, Note_off_c, 5, 67, 0
8, 139998, Note_off_c, 5, 71, 0
8, 140006, Note_off_c, 5, 62, 0
8, 140640, Note_on_c, 5, 62, 117
8, 140640, Note_on_c, 5, 65, 107
8, 140640, Note_on_c, 5, 67, 111
8, 140640, Note_on_c, 5, 72, 109
8, 140762, Note_off_c, 5, 65, 0
8, 140772, Note_off_c, 5, 62, 0
8, 140772, Note_off_c, 5, 72, 0
8, 140790, Note_off_c, 5, 67, 0
8, 140880, Note_on_c, 5, 62, 113
8, 140880, Note_on_c, 5, 65, 106
8, 140880, Note_on_c, 5, 67, 106
8, 140880, Note_on_c, 5, 72, 113
8, 140952, Note_off_c, 5, 72, 0
8, 140954, Note_off_c, 5, 62, 0
8, 140957, Note_off_c, 5, 65, 0
8, 140959, Note_off_c, 5, 67, 0
8, 141000, Note_on_c, 5, 62, 117
8, 141000, Note_on_c, 5, 65, 104
8, 141000, Note_on_c, 5, 67, 105
8, 141000, Note_on_c, 5, 72, 117
8, 141125, Note_off_c, 5, 65, 0
8, 141126, Note_off_c, 5, 62, 0
8, 141129, Note_off_c, 5, 72, 0
8, 141140, Note_off_c, 5, 67, 0
8, 141240, Note_on_c, 5, 62, 115
8, 141240, Note_on_c, 5, 65, 108
8, 141240, Note_on_c, 5, 67, 104
8, 141240, Note_on_c, 5, 72, 113
8, 141361, Note_off_c, 5, 65, 0
8, 141363, Note_off_c, 5, 62, 0
8, 141377, Note_off_c, 5, 67, 0
8, 141380, Note_off_c, 5, 72, 0
8, 141480, Note_on_c, 5, 62, 113
8, 141480, Note_on_c, 5, 65, 104
8, 141480, Note_on_c, 5, 69, 106
8, 141480, Note_on_c, 5, 74, 111
8, 141640, Note_off_c, 5, 65, 0
8, 141644, Note_off_c, 5, 62, 0
8, 141659, Note_off_c, 5, 74, 0
8, 141669, Note_off_c, 5, 69, 0
8, 141720, Note_on_c, 5, 62, 116
8, 141720, Note_on_c, 5, 65, 105
8, 141720, Note_on_c, 5, 67, 110
8, 141720, Note_on_c, 5, 72, 113
8, 141896, Note_off_c, 5, 65, 0
8, 141898, Note_off_c, 5, 62, 0
8, 141900, Note_off_c, 5, 67, 0
8, 141901, Note_off_c, 5, 72, 0
8, 142560, Note_on_c, 5, 60, 113
8, 142560, Note_on_c, 5, 64, 109
8, 142560, Note_on_c, 5, 67, 113
8, 142560, Note_on_c, 5, 72, 118
8, 142701, Note_off_c, 5, 72, 0
8, 142708, Note_off_c, 5, 60, 0
8, 142711, Note_off_c, 5, 64, 0
8, 142717, Note_off_c, 5, 67, 0
8, 142800, Note_on_c, 5, 60, 113
8, 142800, Note_on_c, 5, 64, 106
8, 142800, Note_on_c, 5, 67, 109
8, 142800, Note_on_c, 5, 72, 117
8, 142867, Note_off_c, 5, 72, 0
8, 142871, Note_off_c, 5, 64, 0
8, 142873, Note_off_c, 5, 60, 0
8, 142877, Note_off_c, 5, 67, 0
8, 142920, Note_on_c, 5, 60, 117
8, 142920, Note_on_c, 5, 64, 108
8, 142920, Note_on_c, 5, 67, 108
8, 142920, Note_on_c, 5, 72, 118
8, 143057, Note_off_c, 5, 67, 0
8, 143060, Note_off_c, 5, 60, 0
8, 143063, Note_off_c, 5, 72, 0
8, 143069, Note_off_c, 5, 64, 0
8, 143160, Note_on_c, 5, 60, 111
8, 143160, Note_on_c, 5, 64, 104
8, 143160, Note_on_c, 5, 67, 109
8, 143160, Note_on_c, 5, 72, 115
8, 143268, Note_off_c, 5, 64, 0
8, 143269, Note_off_c, 5, 60, 0
8, 143278, Note_off_c, 5, 67, 0
8, 143286, Note_off_c, 5, 72, 0
8, 143400, Note_on_c, 5, 60, 113
8, 143400, Note_on_c, 5, 64, 106
8, 143400, Note_on_c, 5, 69, 117
8, 143400, Note_on_c, 5, 74, 119
8, 143548, Note_off_c, 5, 64, 0
8, 143557, Note_off_c, 5, 60, 0
8, 143577, Note_off_c, 5, 74, 0
8, 143591, Note_off_c, 5, 69, 0
8, 143640, Note_on_c, 5, 60, 109
8, 143640, Note_on_c, 5, 64, 101
8, 143640, Note_on_c, 5, 67, 113
8, 143640, Note_on_c, 5, 72, 113
8, 143838, Note_off_c, 5, 64, 0
8, 143844, Note_off_c, 5, 60, 0
8, 143846, Note_off_c, 5, 72, 0
8, 143855, Note_off_c, 5, 67, 0
8, 144000, Note_on_c, 5, 62, 117
8, 144000, Note_on_c, 5, 69, 116
8, 144000, Note_on_c, 5, 72, 120
8, 144289, Note_off_c, 5, 62, 0
8, 144316, Note_off_c, 5, 72, 0
8, 144345, Note_off_c, 5, 69, 0
8, 144360, Note_on_c, 5, 62, 115
8, 144360, Note_on_c, 5, 67, 113
8, 144360, Note_on_c, 5, 71, 116
8, 144627, Note_off_c, 5, 62, 0
8, 144627, Note_off_c, 5, 67, 0
8, 144669, Note_off_c, 5, 71, 0
8, 144720, Note_on_c, 5, 62, 118
8, 144720, Note_on_c, 5, 67, 111
8, 144908, Note_off_c, 5, 62, 0
8, 144909, Note_off_c, 5, 67, 0
8, 144960, Note_on_c, 5, 62, 118
8, 144960, Note_on_c, 5, 69, 115
8, 144960, Note_on_c, 5, 72, 118
8, 145242, Note_off_c, 5, 62, 0
8, 145261, Note_off_c, 5, 72, 0
8, 145277, Note_off_c, 5, 69, 0
8, 145320, Note_on_c, 5, 62, 119
8, 145320, Note_on_c, 5, 67, 117
8, 145320, Note_on_c, 5, 71, 118
8, 145638, Note_off_c, 5, 67, 0
8, 145644, Note_off_c, 5, 62, 0
8, 145644, Note_off_c, 5, 71, 0
8, 146400, Note_on_c, 5, 62, 120
8, 146400, Note_on_c, 5, 67, 117
8, 146400, Note_on_c, 5, 71, 120
8, 146521, Note_off_c, 5, 67, 0
8, 146533, Note_off_c, 5, 71, 0
8, 146535, Note_off_c, 5, 62, 0
8, 146640, Note_on_c, 5, 62, 119
8, 146640, Note_on_c, 5, 67, 92
8, 146640, Note_on_c, 5, 71, 113
8, 146706, Note_off_c, 5, 67, 0
8, 146707, Note_off_c, 5, 62, 0
8, 146707, Note_off_c, 5, 71, 0
8, 146760, Note_on_c, 5, 62, 120
8, 146760, Note_on_c, 5, 67, 98
8, 146760, Note_on_c, 5, 71, 115
8, 146901, Note_off_c, 5, 67, 0
8, 146905, Note_off_c, 5, 71, 0
8, 146909, Note_off_c, 5, 62, 0
8, 147000, Note_on_c, 5, 62, 119
8, 147000, Note_on_c, 5, 67, 99
8, 147000, Note_on_c, 5, 71, 111
8, 147139, Note_off_c, 5, 62, 0
8, 147153, Note_off_c, 5, 67, 0
8, 147162, Note_off_c, 5, 71, 0
8, 147240, Note_on_c, 5, 62, 117
8, 147240, Note_on_c, 5, 69, 109
8, 147240, Note_on_c, 5, 72, 113
8, 147419, Note_off_c, 5, 62, 0
8, 147428, Note_off_c, 5, 72, 0
8, 147469, Note_off_c, 5, 69, 0
8, 147480, Note_on_c, 5, 62, 119
8, 147480, Note_on_c, 5, 67, 110
8, 147480, Note_on_c, 5, 71, 118
8, 147673, Note_off_c, 5, 67, 0
8, 147678, Note_off_c, 5, 71, 0
8, 147686, Note_off_c, 5, 62, 0
8, 148320, Note_on_c, 5, 62, 117
8, 148320, Note_on_c, 5, 65, 107
8, 148320, Note_on_c, 5, 67, 111
8, 148320, Note_on_c, 5, 72, 109
8, 148442, Note_off_c, 5, 65, 0
8, 148452, Note_off_c, 5, 62, 0
8, 148452, Note_off_c, 5, 72, 0
8, 148470, Note_off_c, 5, 67, 0
8, 148560, Note_on_c, 5, 62, 113
8, 148560, Note_on_c, 5, 65, 106
8, 148560, Note_on_c, 5, 67, 106
8, 148560, Note_on_c, 5, 72, 113
8, 148632, Note_off_c, 5, 72, 0
8, 148634, Note_off_c, 5, 62, 0
8, 148637, Note_off_c, 5, 65, 0
8, 148639, Note_off_c, 5, 67, 0
8, 148680, Note_on_c, 5, 62, 117
8, 148680, Note_on_c, 5, 65, 104
8, 148680, Note_on_c, 5, 67, 105
8, 148680, Note_on_c, 5, 72, 117
8, 148805, Note_off_c, 5, 65, 0
8, 148806, Note_off_c, 5, 62, 0
8, 148809, Note_off_c, 5, 72, 0
8, 148820, Note_off_c, 5, 67, 0
8, 148920, Note_on_c, 5, 62, 115
8, 148920, Note_on_c, 5, 65, 108
8, 148920, Note_on_c, 5, 67, 104
8, 148920, Note_on_c, 5, 72, 113
8, 149041, Note_off_c, 5, 65, 0
8, 149043, Note_off_c, 5, 62, 0
8, 149057, Note_off_c, 5, 67, 0
8, 149060, Note_off_c, 5, 72, 0
8, 149160, Note_on_c, 5, 62, 113
8, 149160, Note_on_c, 5, 65, 104
8, 149160, Note_on_c, 5, 69, 106
8, 149160, Note_on_c, 5, 74, 111
8, 149320, Note_off_c, 5, 65, 0
8, 149324, Note_off_c, 5, 62, 0
8, 149339, Note_off_c, 5, 74, 0
8, 149349, Note_off_c, 5, 69, 0
8, 149400, Note_on_c, 5, 62, 116
8, 149400, Note_on_c, 5, 65, 105
8, 149400, Note_on_c, 5, 67, 110
8, 149400, Note_on_c, 5, 72, 113
8, 149576, Note_off_c, 5, 65, 0
8, 149578, Note_off_c, 5, 62, 0
8, 149580, Note_off_c, 5, 67, 0
8, 149581, Note_off_c, 5, 72, 0
8, 150240, Note_on_c, 5, 60, 113
8, 150240, Note_on_c, 5, 64, 109
8, 150240, Note_on_c, 5, 67, 113
8, 150240, Note_on_c, 5, 72, 118
8, 150381, Note_off_c, 5, 72, 0
8, 150388, Note_off_c, 5, 60, 0
8, 150391, Note_off_c, 5, 64, 0
8, 150397, Note_off_c, 5, 67, 0
8, 150480, Note_on_c, 5, 60, 113
8, 150480, Note_on_c, 5, 64, 106
8, 150480, Note_on_c, 5, 67, 109
8, 150480, Note_on_c, 5, 72, 117
8, 150547, Note_off_c, 5, 72, 0
8, 150551, Note_off_c, 5, 64, 0
8, 150553, Note_off_c, 5, 60, 0
8, 150557, Note_off_c, 5, 67, 0
8, 150600, Note_on_c, 5, 60, 117
8, 150600, Note_on_c, 5, 64, 108
8, 150600, Note_on_c, 5, 67, 108
8, 150600, Note_on_c, 5, 72, 118
8, 150737, Note_off_c, 5, 67, 0
8, 150740, Note_off_c, 5, 60, 0
8, 150743, Note_off_c, 5, 72, 0
8, 150749, Note_off_c, 5, 64, 0
8, 150840, Note_on_c, 5, 60, 111
8, 150840, Note_on_c, 5, 64, 104
8, 150840, Note_on_c, 5, 67, 109
8, 150840, Note_on_c, 5, 72, 115
8, 150948, Note_off_c, 5, 64, 0
8, 150949, Note_off_c, 5, 60, 0
8, 150958, Note_off_c, 5, 67, 0
8, 150966, Note_off_c, 5, 72, 0
8, 151080, Note_on_c, 5, 60, 113
8, 151080, Note_on_c, 5, 64, 106
8, 151080, Note_on_c, 5, 69, 117
8, 151080, Note_on_c, 5, 74, 119
8, 151228, Note_off_c, 5, 64, 0
8, 151237, Note_off_c, 5, 60, 0
8, 151257, Note_off_c, 5, 74, 0
8, 151271, Note_off_c, 5, 69, 0
8, 151320, Note_on_c, 5, 60, 109
8, 151320, Note_on_c, 5, 64, 101
8, 151320, Note_on_c, 5, 67, 113
8, 151320, Note_on_c, 5, 72, 113
8, 151518, Note_off_c, 5, 64, 0
8, 151524, Note_off_c, 5, 60, 0
8, 151526, Note_off_c, 5, 72, 0
8, 151535, Note_off_c, 5, 67, 0
8, 151680, Note_on_c, 5, 62, 117
8, 151680, Note_on_c, 5, 69, 116
8, 151680, Note_on_c, 5, 72, 120
8, 151969, Note_off_c, 5, 62, 0
8, 151996, Note_off_c, 5, 72, 0
8, 152025, Note_off_c, 5, 69, 0
8, 152040, Note_on_c, 5, 62, 115
8, 152040, Note_on_c, 5, 67, 113
8, 152040, Note_on_c, 5, 71, 116
8, 152307, Note_off_c, 5, 62, 0
8, 152307, Note_off_c, 5, 67, 0
8, 152349, Note_off_c, 5, 71, 0
8, 152400, Note_on_c, 5, 62, 118
8, 152400, Note_on_c, 5, 67, 111
8, 152588, Note_off_c, 5, 62, 0
8, 152589, Note_off_c, 5, 67, 0
8, 152640, Note_on_c, 5, 62, 118
8, 152640, Note_on_c, 5, 69, 115
8, 152640, Note_on_c, 5, 72, 118
8, 152922, Note_off_c, 5, 62, 0
8, 152941, Note_off_c, 5, 72, 0
8, 152957, Note_off_c, 5, 69, 0
8, 153000, Note_on_c, 5, 62, 119
8, 153000, Note_on_c, 5, 67, 117
8, 153000, Note_on_c, 5, 71, 118
8, 153318, Note_off_c, 5, 67, 0
8, 153324, Note_off_c, 5, 62, 0
8, 153324, Note_off_c, 5, 71, 0
8, 154080, Note_on_c, 5, 62, 120
8, 154080, Note_on_c, 5, 67, 117
8, 154080, Note_on_c, 5, 71, 120
8, 154201, Note_off_c, 5, 67, 0
8, 154213, Note_off_c, 5, 71, 0
8, 154215, Note_off_c, 5, 62, 0
8, 154320, Note_on_c, 5, 62, 119
8, 154320, Note_on_c, 5, 67, 92
8, 154320, Note_on_c, 5, 71, 113
8, 154386, Note_off_c, 5, 67, 0
8, 154387, Note_off_c, 5, 62, 0
8, 154387, Note_off_c, 5, 71, 0
8, 154440, Note_on_c, 5, 62, 120
8, 154440, Note_on_c, 5, 67, 98
8, 154440, Note_on_c, 5, 71, 115
8, 154581, Note_off_c, 5, 67, 0
8, 154585, Note_off_c, 5, 71, 0
8, 154589, Note_off_c, 5, 62, 0
8, 154680, Note_on_c, 5, 62, 119
8, 154680, Note_on_c, 5, 67, 99
8, 154680, Note_on_c, 5, 71, 111
8, 154819, Note_off_c, 5, 62, 0
8, 154833, Note_off_c, 5, 67, 0
8, 154842, Note_off_c, 5, 71, 0
8, 154920, Note_on_c, 5, 62, 117
8, 154920, Note_on_c, 5, 69, 109
8, 154920, Note_on_c, 5, 72, 113
8, 155099, Note_off_c, 5, 62, 0
8, 155108, Note_off_c, 5, 72, 0
8, 155149, Note_off_c, 5, 69, 0
8, 155160, Note_on_c, 5, 62, 119
8, 155160, Note_on_c, 5, 67, 110
8, 155160, Note_on_c, 5, 71, 118
8, 155353, Note_off_c, 5, 67, 0
8, 155358, Note_off_c, 5, 71, 0
8, 155366, Note_off_c, 5, 62, 0
8, 156000, Note_on_c, 5, 62, 117
8, 156000, Note_on_c, 5, 65, 107
8, 156000, Note_on_c, 5, 67, 111
8, 156000, Note_on_c, 5, 72, 109
8, 156122, Note_off_c, 5, 65, 0
8, 156132, Note_off_c, 5, 62, 0
8, 156132, Note_off_c, 5, 72, 0
8, 156150, Note_off_c, 5, 67, 0
8, 156240, Note_on_c, 5, 62, 113
8, 156240, Note_on_c, 5, 65, 106
8, 156240, Note_on_c, 5, 67, 106
8, 156240, Note_on_c, 5, 72, 113
8, 156312, Note_off_c, 5, 72, 0
8, 156314, Note_off_c, 5, 62, 0
8, 156317, Note_off_c, 5, 65, 0
8, 156319, Note_off_c, 5, 67, 0
8, 156360, Note_on_c, 5, 62, 117
8, 156360, Note_on_c, 5, 65, 104
8, 156360, Note_on_c, 5, 67, 105
8, 156360, Note_on_c, 5, 72, 117
8, 156485, Note_off_c, 5, 65, 0
8, 156486, Note_off_c, 5, 62, 0
8, 156489, Note_off_c, 5, 72, 0
8, 156500, Note_off_c, 5, 67, 0
8, 156600, Note_on_c, 5, 62, 115
8, 156600, Note_on_c, 5, 65, 108
8, 156600, Note_on_c, 5, 67, 104
8, 156600, Note_on_c, 5, 72, 113
8, 156721, Note_off_c, 5, 65, 0
8, 156723, Note_off_c, 5, 62, 0
8, 156737, Note_off_c, 5, 67, 0
8, 156740, Note_off_c, 5, 72, 0
8, 156840, Note_on_c, 5, 62, 113
8, 156840, Note_on_c, 5, 65, 104
8, 156840, Note_on_c, 5, 69, 106
8, 156840, Note_on_c, 5, 74, 111
8, 157000, Note_off_c, 5, 65, 0
8, 157004, Note_off_c, 5, 62, 0
8, 157019, Note_off_c, 5, 74, 0
8, 157029, Note_off_c, 5, 69, 0
8, 157080, Note_on_c, 5, 62, 116
8, 157080, Note_on_c, 5, 65, 105
8, 157080, Note_on_c, 5, 67, 110
8, 157080, Note_on_c, 5, 72, 113
8, 157256, Note_off_c, 5, 65, 0
8, 157258, Note_off_c, 5, 62, 0
8, 157260, Note_off_c, 5, 67, 0
8, 157261, Note_off_c, 5, 72, 0
8, 157920, Note_on_c, 5, 60, 113
8, 157920, Note_on_c, 5, 64, 109
8, 157920, Note_on_c, 5, 67, 113
8, 157920, Note_on_c, 5, 72, 118
8, 158061, Note_off_c, 5, 72, 0
8, 158068, Note_off_c, 5, 60, 0
8, 158071, Note_off_c, 5, 64, 0
8, 158077, Note_off_c, 5, 67, 0
8, 158160, Note_on_c, 5, 60, 113
8, 158160, Note_on_c, 5, 64, 106
8, 158160, Note_on_c, 5, 67, 109
8, 158160, Note_on_c, 5, 72, 117
8, 158227, Note_off_c, 5, 72, 0
8, 158231, Note_off_c, 5, 64, 0
8, 158233, Note_off_c, 5, 60, 0
8, 158237, Note_off_c, 5, 67, 0
8, 158280, Note_on_c, 5, 60, 117
8, 158280, Note_on_c, 5, 64, 108
8, 158280, Note_on_c, 5, 67, 108
8, 158280, Note_on_c, 5, 72, 118
8, 158417, Note_off_c, 5, 67, 0
8, 158420, Note_off_c, 5, 60, 0
8, 158423, Note_off_c, 5, 72, 0
8, 158429, Note_off_c, 5, 64, 0
8, 158520, Note_on_c, 5, 60, 111
8, 158520, Note_on_c, 5, 64, 104
8, 158520, Note_on_c, 5, 67, 109
8, 158520, Note_on_c, 5, 72, 115
8, 158628, Note_off_c, 5, 64, 0
8, 158629, Note_off_c, 5, 60, 0
8, 158638, Note_off_c, 5, 67, 0
8, 158646, Note_off_c, 5, 72, 0
8, 158760, Note_on_c, 5, 60, 113
8, 158760, Note_on_c, 5, 64, 106
8, 158760, Note_on_c, 5, 69, 117
8, 158760, Note_on_c, 5, 74, 119
8, 158908, Note_off_c, 5, 64, 0
8, 158917, Note_off_c, 5, 60, 0
8, 158937, Note_off_c, 5, 74, 0
8, 158951, Note_off_c, 5, 69, 0
8, 159000, Note_on_c, 5, 60, 109
8, 159000, Note_on_c, 5, 64, 101
8, 159000, Note_on_c, 5, 67, 113
8, 159000, Note_on_c, 5, 72, 113
8, 159198, Note_off_c, 5, 64, 0
8, 159204, Note_off_c, 5, 60, 0
8, 159206, Note_off_c, 5, 72, 0
8, 159215, Note_off_c, 5, 67, 0
8, 159360, Note_on_c, 5, 62, 117
8, 159360, Note_on_c, 5, 69, 116
8, 159360, Note_on_c, 5, 72, 120
8, 159649, Note_off_c, 5, 62, 0
8, 159676, Note_off_c, 5, 72, 0
8, 159705, Note_off_c, 5, 69, 0
8, 159720, Note_on_c, 5, 62, 115
8, 159720, Note_on_c, 5, 67, 113
8, 159720, Note_on_c, 5, 71, 116
8, 159987, Note_off_c, 5, 62, 0
8, 159987, Note_off_c, 5, 67, 0
8, 160029, Note_off_c, 5, 71, 0
8, 160080, Note_on_c, 5, 62, 118
8, 160080, Note_on_c, 5, 67, 111
8, 160268, Note_off_c, 5, 62, 0
8, 160269, Note_off_c, 5, 67, 0
8, 160320, Note_on_c, 5, 62, 118
8, 160320, Note_on_c, 5, 69, 115
8, 160320, Note_on_c, 5, 72, 118
8, 160602, Note_off_c, 5, 62, 0
8, 160621, Note_off_c, 5, 72, 0
8, 160637, Note_off_c, 5, 69, 0
8, 160680, Note_on_c, 5, 62, 119
8, 160680, Note_on_c, 5, 67, 117
8, 160680, Note_on_c, 5, 71, 118
8, 160998, Note_off_c, 5, 67, 0
8, 161004, Note_off_c, 5, 62, 0
8, 161004, Note_off_c, 5, 71, 0
8, 161760, Note_on_c, 5, 62, 120
8, 161760, Note_on_c, 5, 67, 117
8, 161760, Note_on_c, 5, 71, 120
8, 161881, Note_off_c, 5, 67, 0
8, 161893, Note_off_c, 5, 71, 0
8, 161895, Note_off_c, 5, 62, 0
8, 162000, Note_on_c, 5, 62, 119
8, 162000, Note_on_c, 5, 67, 92
8, 162000, Note_on_c, 5, 71, 113
8, 162066, Note_off_c, 5, 67, 0
8, 162067, Note_off_c, 5, 62, 0
8, 162067, Note_off_c, 5, 71, 0
8, 162120, Note_on_c, 5, 62, 120
8, 162120, Note_on_c, 5, 67, 98
8, 162120, Note_on_c, 5, 71, 115
8, 162261, Note_off_c, 5, 67, 0
8, 162265, Note_off_c, 5, 71, 0
8, 162269, Note_off_c, 5, 62, 0
8, 162360, Note_on_c, 5, 62, 119
8, 162360, Note_on_c, 5, 67, 99
8, 162360, Note_on_c, 5, 71, 111
8, 162499, Note_off_c, 5, 62, 0
8, 162513, Note_off_c, 5, 67, 0
8, 162522, Note_off_c, 5, 71, 0
8, 162600, Note_on_c, 5, 62, 117
8, 162600, Note_on_c, 5, 69, 109
8, 162600, Note_on_c, 5, 72, 113
8, 162779, Note_off_c, 5, 62, 0
8, 162788, Note_off_c, 5, 72, 0
8, 162829, Note_off_c, 5, 69, 0
8, 162840, Note_on_c, 5, 62, 119
8, 162840, Note_on_c, 5, 67, 110
8, 162840, Note_on_c, 5, 71, 118
8, 163033, Note_off_c, 5, 67, 0
8, 163038, Note_off_c, 5, 71, 0
8, 163046, Note_off_c, 5, 62, 0
8, 163680, Note_on_c, 5, 62, 117
8, 163680, Note_on_c, 5, 65, 107
8, 163680, Note_on_c, 5, 67, 111
8, 163680, Note_on_c, 5, 72, 109
8, 163802, Note_off_c, 5, 65, 0
8, 163812, Note_off_c, 5, 62, 0
8, 163812, Note_off_c, 5, 72, 0
8, 163830, Note_off_c, 5, 67, 0
8, 163920, Note_on_c, 5, 62, 113
8, 163920, Note_on_c, 5, 65, 106
8, 163920, Note_on_c, 5, 67, 106
8, 163920, Note_on_c, 5, 72, 113
8, 163992, Note_off_c, 5, 72, 0
8, 163994, Note_off_c, 5, 62, 0
8, 163997, Note_off_c, 5, 65, 0
8, 163999, Note_off_c, 5, 67, 0
8, 164040, Note_on_c, 5, 62, 117
8, 164040, Note_on_c, 5, 65, 104
8, 164040, Note_on_c, 5, 67, 105
8, 164040, Note_on_c, 5, 72, 117
8, 164165, Note_off_c, 5, 65, 0
8, 164166, Note_off_c, 5, 62, 0
8, 164169, Note_off_c, 5, 72, 0
8, 164180, Note_off_c, 5, 67, 0
8, 164280, Note_on_c, 5, 62, 115
8, 164280, Note_on_c, 5, 65, 108
8, 164280, Note_on_c, 5, 67, 104
8, 164280, Note_on_c, 5, 72, 113
8, 164401, Note_off_c, 5, 65, 0
8, 164403, Note_off_c, 5, 62, 0
8, 164417, Note_off_c, 5, 67, 0
8, 164420, Note_off_c, 5, 72, 0
8, 164520, Note_on_c, 5, 62, 113
8, 164520, Note_on_c, 5, 65, 104
8, 164520, Note_on_c, 5, 69, 106
8, 164520, Note_on_c, 5, 74, 111
8, 164680, Note_off_c, 5, 65, 0
8, 164684, Note_off_c, 5, 62, 0
8, 164699, Note_off_c, 5, 74, 0
8, 164709, Note_off_c, 5, 69, 0
8, 164760, Note_on_c, 5, 62, 116
8, 164760, Note_on_c, 5, 65, 105
8, 164760, Note_on_c, 5, 67, 110
8, 164760, Note_on_c, 5, 72, 113
8, 164936, Note_off_c, 5, 65, 0
8, 164938, Note_off_c, 5, 62, 0
8, 164940, Note_off_c, 5, 67, 0
8, 164941, Note_off_c, 5, 72, 0
8, 165600, Note_on_c, 5, 60, 113
8, 165600, Note_on_c, 5, 64, 109
8, 165600, Note_on_c, 5, 67, 113
8, 165600, Note_on_c, 5, 72, 118
8, 165741, Note_off_c, 5, 72, 0
8, 165748, Note_off_c, 5, 60, 0
8, 165751, Note_off_c, 5, 64, 0
8, 165757, Note_off_c, 5, 67, 0
8, 165840, Note_on_c, 5, 60, 113
8, 165840, Note_on_c, 5, 64, 106
8, 165840, Note_on_c, 5, 67, 109
8, 165840, Note_on_c, 5, 72, 117
8, 165907, Note_off_c, 5, 72, 0
8, 165911, Note_off_c, 5, 64, 0
8, 165913, Note_off_c, 5, 60, 0
8, 165917, Note_off_c, 5, 67, 0
8, 165960, Note_on_c, 5, 60, 117
8, 165960, Note_on_c, 5, 64, 108
8, 165960, Note_on_c, 5, 67, 108
8, 165960, Note_on_c, 5, 72, 118
8, 166097, Note_off_c, 5, 67, 0
8, 166100, Note_off_c, 5, 60, 0
8, 166103, Note_off_c, 5, 72, 0
8, 166109, Note_off_c, 5, 64, 0
8, 166200, Note_on_c, 5, 60, 111
8, 166200, Note_on_c, 5, 64, 104
8, 166200, Note_on_c, 5, 67, 109
8, 166200, Note_on_c, 5, 72, 115
8, 166308, Note_off_c, 5, 64, 0
8, 166309, Note_off_c, 5, 60, 0
8, 166318, Note_off_c, 5, 67, 0
8, 166326, Note_off_c, 5, 72, 0
8, 166440, Note_on_c, 5, 60, 113
8, 166440, Note_on_c, 5, 64, 106
8, 166440, Note_on_c, 5, 69, 117
8, 166440, Note_on_c, 5, 74, 119
8, 166588, Note_off_c, 5, 64, 0
8, 166597, Note_off_c, 5, 60, 0
8, 166617, Note_off_c, 5, 74, 0
8, 166631, Note_off_c, 5, 69, 0
8, 166680, Note_on_c, 5, 60, 109
8, 166680, Note_on_c, 5, 64, 101
8, 166680, Note_on_c, 5, 67, 113
8, 166680, Note_on_c, 5, 72, 113
8, 166878, Note_off_c, 5, 64, 0
8, 166884, Note_off_c, 5, 60, 0
8, 166886, Note_off_c, 5, 72, 0
8, 166895, Note_off_c, 5, 67, 0
8, 167040, Note_on_c, 5, 62, 117
8, 167040, Note_on_c, 5, 69, 116
8, 167040, Note_on_c, 5, 72, 120
8, 167329, Note_off_c, 5, 62, 0
8, 167356, Note_off_c, 5, 72, 0
8, 167385, Note_off_c, 5, 69, 0
8, 167400, Note_on_c, 5, 62, 115
8, 167400, Note_on_c, 5, 67, 113
8, 167400, Note_on_c, 5, 71, 116
8, 167667, Note_off_c, 5, 62, 0
8, 167667, Note_off_c, 5, 67, 0
8, 167709, Note_off_c, 5, 71, 0
8, 167760, Note_on_c, 5, 62, 118
8, 167760, Note_on_c, 5, 67, 111
8, 167948, Note_off_c, 5, 62, 0
8, 167949, Note_off_c, 5, 67, 0
8, 168000, Note_on_c, 5, 62, 118
8, 168000, Note_on_c, 5, 69, 115
8, 168000, Note_on_c, 5, 72, 118
8, 168282, Note_off_c, 5, 62, 0
8, 168301, Note_off_c, 5, 72, 0
8, 168317, Note_off_c, 5, 69, 0
8, 168360, Note_on_c, 5, 62, 119
8, 168360, Note_on_c, 5, 67, 117
8, 168360, Note_on_c, 5, 71, 118
8, 168678, Note_off_c, 5, 67, 0
8, 168684, Note_off_c, 5, 62, 0
8, 168684, Note_off_c, 5, 71, 0
8, 170641, Control_c, 5, 7, 100
8, 170641, End_track
9, 0, Start_track
9, 0, Title_t, "\000"
9, 0, Program_c, 6, 48
9, 0, Control_c, 6, 7, 90
9, 0, Control_c, 6, 10, 42
9, 0, Control_c, 6, 91, 67
9, 0, Control_c, 6, 93, 5
9, 750, Control_c, 6, 11, 127
9, 1920, Note_on_c, 6, 67, 75
9, 1920, Note_on_c, 6, 71, 78
9, 1920, Note_on_c, 6, 83, 111
9, 3836, Note_off_c, 6, 67, 0
9, 3836, Note_off_c, 6, 71, 0
9, 3836, Note_off_c, 6, 83, 0
9, 3840, Note_on_c, 6, 65, 73
9, 3840, Note_on_c, 6, 69, 74
9, 3840, Note_on_c, 6, 84, 100
9, 5756, Note_off_c, 6, 84, 0
9, 5760, Note_on_c, 6, 88, 97
9, 6716, Note_off_c, 6, 65, 0
9, 6716, Note_off_c, 6, 69, 0
9, 6716, Note_off_c, 6, 88, 0
9, 6720, Note_on_c, 6, 64, 74
9, 6720, Note_on_c, 6, 67, 72
9, 6720, Note_on_c, 6, 84, 109
9, 7676, Note_off_c, 6, 64, 0
9, 7676, Note_off_c, 6, 67, 0
9, 7680, Note_on_c, 6, 62, 78
9, 7680, Note_on_c, 6, 67, 75
9, 8156, Note_off_c, 6, 84, 0
9, 8160, Note_on_c, 6, 83, 111
9, 8396, Note_off_c, 6, 83, 0
9, 8400, Note_on_c, 6, 81, 109
9, 8636, Note_off_c, 6, 81, 0
9, 8640, Note_on_c, 6, 79, 105
9, 9596, Note_off_c, 6, 62, 0
9, 9596, Note_off_c, 6, 67, 0
9, 9596, Note_off_c, 6, 79, 0
9, 9600, Note_on_c, 6, 62, 94
9, 9600, Note_on_c, 6, 67, 88
9, 9600, Note_on_c, 6, 71, 87
9, 9600, Note_on_c, 6, 83, 99
9, 11040, Note_on_c, 6, 81, 98
9, 11076, Note_off_c, 6, 83, 0
9, 11271, Note_off_c, 6, 81, 0
9, 11280, Note_on_c, 6, 83, 103
9, 11414, Note_off_c, 6, 71, 0
9, 11478, Note_off_c, 6, 62, 0
9, 11516, Note_off_c, 6, 67, 0
9, 11519, Note_off_c, 6, 83, 0
9, 11520, Note_on_c, 6, 62, 62
9, 11520, Note_on_c, 6, 65, 96
9, 11520, Note_on_c, 6, 69, 92
9, 11520, Note_on_c, 6, 84, 104
9, 12960, Note_on_c, 6, 86, 105
9, 12989, Note_off_c, 6, 84, 0
9, 13199, Note_off_c, 6, 86, 0
9, 13200, Note_on_c, 6, 88, 99
9, 13338, Note_off_c, 6, 62, 0
9, 13353, Note_off_c, 6, 69, 0
9, 13391, Note_off_c, 6, 65, 0
9, 13440, Note_on_c, 6, 60, 92
9, 13440, Note_on_c, 6, 65, 98
9, 13440, Note_on_c, 6, 69, 88
9, 13440, Note_on_c, 6, 89, 98
9, 13442, Note_off_c, 6, 88, 0
9, 14345, Note_off_c, 6, 65, 0
9, 14351, Note_off_c, 6, 60, 0
9, 14355, Note_off_c, 6, 69, 0
9, 14400, Note_on_c, 6, 60, 95
9, 14400, Note_on_c, 6, 64, 99
9, 14400, Note_on_c, 6, 67, 97
9, 14400, Note_on_c, 6, 88, 101
9, 14416, Note_off_c, 6, 89, 0
9, 15194, Note_off_c, 6, 60, 0
9, 15298, Note_off_c, 6, 64, 0
9, 15328, Note_off_c, 6, 67, 0
9, 15358, Note_off_c, 6, 88, 0
9, 15360, Note_on_c, 6, 62, 101
9, 15360, Note_on_c, 6, 67, 70
9, 15360, Note_on_c, 6, 71, 95
9, 15360, Note_on_c, 6, 86, 104
9, 16859, Note_off_c, 6, 71, 0
9, 16865, Note_off_c, 6, 62, 0
9, 16873, Note_off_c, 6, 67, 0
9, 16893, Note_off_c, 6, 86, 0
9, 36480, Note_on_c, 6, 71, 96
9, 36480, Note_on_c, 6, 83, 98
9, 39236, Note_off_c, 6, 71, 0
9, 39236, Note_off_c, 6, 83, 0
9, 39240, Note_on_c, 6, 69, 94
9, 39240, Note_on_c, 6, 81, 90
9, 39356, Note_off_c, 6, 69, 0
9, 39356, Note_off_c, 6, 81, 0
9, 39360, Note_on_c, 6, 71, 88
9, 39360, Note_on_c, 6, 83, 99
9, 39476, Note_off_c, 6, 71, 0
9, 39476, Note_off_c, 6, 83, 0
9, 39480, Note_on_c, 6, 72, 82
9, 39480, Note_on_c, 6, 84, 92
9, 40316, Note_off_c, 6, 72, 0
9, 40316, Note_off_c, 6, 84, 0
9, 40320, Note_on_c, 6, 69, 86
9, 40320, Note_on_c, 6, 72, 86
9, 40320, Note_on_c, 6, 84, 89
9, 41249, Note_off_c, 6, 69, 0
9, 41280, Note_on_c, 6, 67, 85
9, 42163, Note_off_c, 6, 72, 0
9, 42211, Note_off_c, 6, 67, 0
9, 42240, Note_on_c, 6, 67, 83
9, 42240, Note_on_c, 6, 71, 82
9, 42240, Note_on_c, 6, 83, 92
9, 42246, Note_off_c, 6, 84, 0
9, 44156, Note_off_c, 6, 67, 0
9, 44156, Note_off_c, 6, 71, 0
9, 44156, Note_off_c, 6, 83, 0
9, 44160, Note_on_c, 6, 67, 78
9, 44160, Note_on_c, 6, 71, 82
9, 44160, Note_on_c, 6, 83, 91
9, 46027, Note_off_c, 6, 71, 0
9, 46042, Note_off_c, 6, 67, 0
9, 46080, Note_on_c, 6, 69, 27
9, 46080, Note_on_c, 6, 72, 74
9, 46080, Note_on_c, 6, 84, 86
9, 46103, Note_off_c, 6, 83, 0
9, 47506, Note_off_c, 6, 69, 0
9, 47520, Note_on_c, 6, 74, 80
9, 47520, Note_on_c, 6, 86, 89
9, 47525, Note_off_c, 6, 72, 0
9, 47527, Note_off_c, 6, 84, 0
9, 47760, Note_on_c, 6, 76, 89
9, 47760, Note_on_c, 6, 88, 89
9, 47784, Note_off_c, 6, 74, 0
9, 47809, Note_off_c, 6, 86, 0
9, 48000, Note_on_c, 6, 72, 84
9, 48000, Note_on_c, 6, 77, 80
9, 48000, Note_on_c, 6, 89, 86
9, 48022, Note_off_c, 6, 76, 0
9, 48036, Note_off_c, 6, 88, 0
9, 48896, Note_off_c, 6, 77, 0
9, 48900, Note_off_c, 6, 72, 0
9, 48955, Note_off_c, 6, 89, 0
9, 48960, Note_on_c, 6, 72, 84
9, 48960, Note_on_c, 6, 76, 84
9, 48960, Note_on_c, 6, 88, 91
9, 49848, Note_off_c, 6, 72, 0
9, 49862, Note_off_c, 6, 76, 0
9, 49920, Note_on_c, 6, 71, 84
9, 49920, Note_on_c, 6, 74, 82
9, 49920, Note_on_c, 6, 86, 89
9, 49925, Note_off_c, 6, 88, 0
9, 51003, Note_off_c, 6, 86, 0
9, 51011, Note_off_c, 6, 74, 0
9, 51012, Note_off_c, 6, 71, 0
9, 71040, Note_on_c, 6, 71, 96
9, 71040, Note_on_c, 6, 83, 98
9, 73796, Note_off_c, 6, 71, 0
9, 73796, Note_off_c, 6, 83, 0
9, 73800, Note_on_c, 6, 69, 94
9, 73800, Note_on_c, 6, 81, 90
9, 73916, Note_off_c, 6, 69, 0
9, 73916, Note_off_c, 6, 81, 0
9, 73920, Note_on_c, 6, 71, 88
9, 73920, Note_on_c, 6, 83, 99
9, 74036, Note_off_c, 6, 71, 0
9, 74036, Note_off_c, 6, 83, 0
9, 74040, Note_on_c, 6, 72, 82
9, 74040, Note_on_c, 6, 84, 92
9, 74876, Note_off_c, 6, 72, 0
9, 74876, Note_off_c, 6, 84, 0
9, 74880, Note_on_c, 6, 69, 86
9, 74880, Note_on_c, 6, 72, 86
9, 74880, Note_on_c, 6, 84, 89
9, 75809, Note_off_c, 6, 69, 0
9, 75840, Note_on_c, 6, 67, 85
9, 76723, Note_off_c, 6, 72, 0
9, 76771, Note_off_c, 6, 67, 0
9, 76800, Note_on_c, 6, 67, 83
9, 76800, Note_on_c, 6, 71, 82
9, 76800, Note_on_c, 6, 83, 92
9, 76806, Note_off_c, 6, 84, 0
9, 78716, Note_off_c, 6, 67, 0
9, 78716, Note_off_c, 6, 71, 0
9, 78716, Note_off_c, 6, 83, 0
9, 78720, Note_on_c, 6, 67, 78
9, 78720, Note_on_c, 6, 71, 82
9, 78720, Note_on_c, 6, 83, 91
9, 80587, Note_off_c, 6, 71, 0
9, 80602, Note_off_c, 6, 67, 0
9, 80640, Note_on_c, 6, 69, 27
9, 80640, Note_on_c, 6, 72, 74
9, 80640, Note_on_c, 6, 84, 86
9, 80663, Note_off_c, 6, 83, 0
9, 82066, Note_off_c, 6, 69, 0
9, 82080, Note_on_c, 6, 74, 80
9, 82080, Note_on_c, 6, 86, 89
9, 82085, Note_off_c, 6, 72, 0
9, 82087, Note_off_c, 6, 84, 0
9, 82320, Note_on_c, 6, 76, 89
9, 82320, Note_on_c, 6, 88, 89
9, 82344, Note_off_c, 6, 74, 0
9, 82369, Note_off_c, 6, 86, 0
9, 82560, Note_on_c, 6, 72, 84
9, 82560, Note_on_c, 6, 77, 80
9, 82560, Note_on_c, 6, 89, 86
9, 82582, Note_off_c, 6, 76, 0
9, 82596, Note_off_c, 6, 88, 0
9, 83456, Note_off_c, 6, 77, 0
9, 83460, Note_off_c, 6, 72, 0
9, 83515, Note_off_c, 6, 89, 0
9, 83520, Note_on_c, 6, 72, 84
9, 83520, Note_on_c, 6, 76, 84
9, 83520, Note_on_c, 6, 88, 91
9, 84408, Note_off_c, 6, 72, 0
9, 84422, Note_off_c, 6, 76, 0
9, 84480, Note_on_c, 6, 71, 84
9, 84480, Note_on_c, 6, 74, 82
9, 84480, Note_on_c, 6, 86, 89
9, 84485, Note_off_c, 6, 88, 0
9, 85563, Note_off_c, 6, 86, 0
9, 85571, Note_off_c, 6, 74, 0
9, 85572, Note_off_c, 6, 71, 0
9, 101760, Note_on_c, 6, 53, 89
9, 101760, Note_on_c, 6, 62, 85
9, 101760, Note_on_c, 6, 69, 83
9, 101760, Note_on_c, 6, 74, 86
9, 103676, Note_off_c, 6, 53, 0
9, 103676, Note_off_c, 6, 62, 0
9, 103676, Note_off_c, 6, 74, 0
9, 103680, Note_on_c, 6, 52, 86
9, 103680, Note_on_c, 6, 60, 88
9, 103680, Note_on_c, 6, 72, 92
9, 107502, Note_off_c, 6, 69, 0
9, 107516, Note_off_c, 6, 52, 0
9, 107516, Note_off_c, 6, 60, 0
9, 107516, Note_off_c, 6, 72, 0
9, 107520, Note_on_c, 6, 71, 96
9, 107520, Note_on_c, 6, 83, 98
9, 110276, Note_off_c, 6, 71, 0
9, 110276, Note_off_c, 6, 83, 0
9, 110280, Note_on_c, 6, 69, 94
9, 110280, Note_on_c, 6, 81, 90
9, 110396, Note_off_c, 6, 69, 0
9, 110396, Note_off_c, 6, 81, 0
9, 110400, Note_on_c, 6, 71, 88
9, 110400, Note_on_c, 6, 83, 99
9, 110516, Note_off_c, 6, 71, 0
9, 110516, Note_off_c, 6, 83, 0
9, 110520, Note_on_c, 6, 72, 82
9, 110520, Note_on_c, 6, 84, 92
9, 111356, Note_off_c, 6, 72, 0
9, 111356, Note_off_c, 6, 84, 0
9, 111360, Note_on_c, 6, 69, 86
9, 111360, Note_on_c, 6, 72, 86
9, 111360, Note_on_c, 6, 84, 89
9, 112289, Note_off_c, 6, 69, 0
9, 112320, Note_on_c, 6, 67, 85
9, 113203, Note_off_c, 6, 72, 0
9, 113251, Note_off_c, 6, 67, 0
9, 113280, Note_on_c, 6, 67, 83
9, 113280, Note_on_c, 6, 71, 82
9, 113280, Note_on_c, 6, 83, 92
9, 113286, Note_off_c, 6, 84, 0
9, 115196, Note_off_c, 6, 67, 0
9, 115196, Note_off_c, 6, 71, 0
9, 115196, Note_off_c, 6, 83, 0
9, 115200, Note_on_c, 6, 67, 78
9, 115200, Note_on_c, 6, 71, 82
9, 115200, Note_on_c, 6, 83, 91
9, 117067, Note_off_c, 6, 71, 0
9, 117082, Note_off_c, 6, 67, 0
9, 117120, Note_on_c, 6, 69, 27
9, 117120, Note_on_c, 6, 72, 74
9, 117120, Note_on_c, 6, 84, 86
9, 117143, Note_off_c, 6, 83, 0
9, 118546, Note_off_c, 6, 69, 0
9, 118560, Note_on_c, 6, 74, 80
9, 118560, Note_on_c, 6, 86, 89
9, 118565, Note_off_c, 6, 72, 0
9, 118567, Note_off_c, 6, 84, 0
9, 118800, Note_on_c, 6, 76, 89
9, 118800, Note_on_c, 6, 88, 89
9, 118824, Note_off_c, 6, 74, 0
9, 118849, Note_off_c, 6, 86, 0
9, 119040, Note_on_c, 6, 72, 84
9, 119040, Note_on_c, 6, 77, 80
9, 119040, Note_on_c, 6, 89, 86
9, 119062, Note_off_c, 6, 76, 0
9, 119076, Note_off_c, 6, 88, 0
9, 119936, Note_off_c, 6, 77, 0
9, 119940, Note_off_c, 6, 72, 0
9, 119995, Note_off_c, 6, 89, 0
9, 120000, Note_on_c, 6, 72, 84
9, 120000, Note_on_c, 6, 76, 84
9, 120000, Note_on_c, 6, 88, 91
9, 120888, Note_off_c, 6, 72, 0
9, 120902, Note_off_c, 6, 76, 0
9, 120960, Note_on_c, 6, 71, 84
9, 120960, Note_on_c, 6, 74, 82
9, 120960, Note_on_c, 6, 86, 89
9, 120965, Note_off_c, 6, 88, 0
9, 122043, Note_off_c, 6, 86, 0
9, 122051, Note_off_c, 6, 74, 0
9, 122052, Note_off_c, 6, 71, 0
9, 122880, Note_on_c, 6, 71, 96
9, 122880, Note_on_c, 6, 83, 98
9, 125636, Note_off_c, 6, 71, 0
9, 125636, Note_off_c, 6, 83, 0
9, 125640, Note_on_c, 6, 69, 94
9, 125640, Note_on_c, 6, 81, 90
9, 125756, Note_off_c, 6, 69, 0
9, 125756, Note_off_c, 6, 81, 0
9, 125760, Note_on_c, 6, 71, 88
9, 125760, Note_on_c, 6, 83, 99
9, 125876, Note_off_c, 6, 71, 0
9, 125876, Note_off_c, 6, 83, 0
9, 125880, Note_on_c, 6, 72, 82
9, 125880, Note_on_c, 6, 84, 92
9, 126716, Note_off_c, 6, 72, 0
9, 126716, Note_off_c, 6, 84, 0
9, 126720, Note_on_c, 6, 69, 86
9, 126720, Note_on_c, 6, 72, 86
9, 126720, Note_on_c, 6, 84, 89
9, 127649, Note_off_c, 6, 69, 0
9, 127680, Note_on_c, 6, 67, 85
9, 128563, Note_off_c, 6, 72, 0
9, 128611, Note_off_c, 6, 67, 0
9, 128640, Note_on_c, 6, 67, 83
9, 128640, Note_on_c, 6, 71, 82
9, 128640, Note_on_c, 6, 83, 92
9, 128646, Note_off_c, 6, 84, 0
9, 130556, Note_off_c, 6, 67, 0
9, 130556, Note_off_c, 6, 71, 0
9, 130556, Note_off_c, 6, 83, 0
9, 130560, Note_on_c, 6, 67, 78
9, 130560, Note_on_c, 6, 71, 82
9, 130560, Note_on_c, 6, 83, 91
9, 132427, Note_off_c, 6, 71, 0
9, 132442, Note_off_c, 6, 67, 0
9, 132480, Note_on_c, 6, 69, 27
9, 132480, Note_on_c, 6, 72, 74
9, 132480, Note_on_c, 6, 84, 86
9, 132503, Note_off_c, 6, 83, 0
9, 133906, Note_off_c, 6, 69, 0
9, 133920, Note_on_c, 6, 74, 80
9, 133920, Note_on_c, 6, 86, 89
9, 133925, Note_off_c, 6, 72, 0
9, 133927, Note_off_c, 6, 84, 0
9, 134160, Note_on_c, 6, 76, 89
9, 134160, Note_on_c, 6, 88, 89
9, 134184, Note_off_c, 6, 74, 0
9, 134209, Note_off_c, 6, 86, 0
9, 134400, Note_on_c, 6, 72, 84
9, 134400, Note_on_c, 6, 77, 80
9, 134400, Note_on_c, 6, 89, 86
9, 134422, Note_off_c, 6, 76, 0
9, 134436, Note_off_c, 6, 88, 0
9, 135296, Note_off_c, 6, 77, 0
9, 135300, Note_off_c, 6, 72, 0
9, 135355, Note_off_c, 6, 89, 0
9, 135360, Note_on_c, 6, 72, 84
9, 135360, Note_on_c, 6, 76, 84
9, 135360, Note_on_c, 6, 88, 91
9, 136248, Note_off_c, 6, 72, 0
9, 136262, Note_off_c, 6, 76, 0
9, 136320, Note_on_c, 6, 71, 84
9, 136320, Note_on_c, 6, 74, 82
9, 136320, Note_on_c, 6, 86, 89
9, 136325, Note_off_c, 6, 88, 0
9, 137403, Note_off_c, 6, 86, 0
9, 137411, Note_off_c, 6, 74, 0
9, 137412, Note_off_c, 6, 71, 0
9, 138240, Note_on_c, 6, 67, 97
9, 138240, Note_on_c, 6, 71, 98
9, 138240, Note_on_c, 6, 83, 105
9, 140057, Note_off_c, 6, 71, 0
9, 140098, Note_off_c, 6, 67, 0
9, 140160, Note_on_c, 6, 65, 94
9, 140160, Note_on_c, 6, 69, 90
9, 140160, Note_on_c, 6, 72, 88
9, 140160, Note_on_c, 6, 84, 96
9, 140170, Note_off_c, 6, 83, 0
9, 143010, Note_off_c, 6, 65, 0
9, 143031, Note_off_c, 6, 69, 0
9, 143040, Note_on_c, 6, 64, 99
9, 143040, Note_on_c, 6, 67, 81
9, 143915, Note_off_c, 6, 64, 0
9, 143937, Note_off_c, 6, 72, 0
9, 144000, Note_on_c, 6, 62, 97
9, 144000, Note_on_c, 6, 71, 94
9, 144000, Note_on_c, 6, 83, 99
9, 144025, Note_off_c, 6, 84, 0
9, 145874, Note_off_c, 6, 83, 0
9, 145882, Note_off_c, 6, 71, 0
9, 145889, Note_off_c, 6, 62, 0
9, 145892, Note_off_c, 6, 67, 0
9, 145920, Note_on_c, 6, 67, 97
9, 145920, Note_on_c, 6, 71, 98
9, 145920, Note_on_c, 6, 83, 105
9, 147737, Note_off_c, 6, 71, 0
9, 147778, Note_off_c, 6, 67, 0
9, 147840, Note_on_c, 6, 65, 94
9, 147840, Note_on_c, 6, 69, 90
9, 147840, Note_on_c, 6, 72, 88
9, 147840, Note_on_c, 6, 84, 96
9, 147850, Note_off_c, 6, 83, 0
9, 150690, Note_off_c, 6, 65, 0
9, 150711, Note_off_c, 6, 69, 0
9, 150720, Note_on_c, 6, 64, 99
9, 150720, Note_on_c, 6, 67, 81
9, 151595, Note_off_c, 6, 64, 0
9, 151617, Note_off_c, 6, 72, 0
9, 151680, Note_on_c, 6, 62, 97
9, 151680, Note_on_c, 6, 71, 94
9, 151680, Note_on_c, 6, 83, 99
9, 151705, Note_off_c, 6, 84, 0
9, 153554, Note_off_c, 6, 83, 0
9, 153562, Note_off_c, 6, 71, 0
9, 153569, Note_off_c, 6, 62, 0
9, 153572, Note_off_c, 6, 67, 0
9, 153600, Note_on_c, 6, 67, 97
9, 153600, Note_on_c, 6, 71, 98
9, 153600, Note_on_c, 6, 83, 105
9, 155417, Note_off_c, 6, 71, 0
9, 155458, Note_off_c, 6, 67, 0
9, 155520, Note_on_c, 6, 65, 94
9, 155520, Note_on_c, 6, 69, 90
9, 155520, Note_on_c, 6, 72, 88
9, 155520, Note_on_c, 6, 84, 96
9, 155530, Note_off_c, 6, 83, 0
9, 158370, Note_off_c, 6, 65, 0
9, 158391, Note_off_c, 6, 69, 0
9, 158400, Note_on_c, 6, 64, 99
9, 158400, Note_on_c, 6, 67, 81
9, 159275, Note_off_c, 6, 64, 0
9, 159297, Note_off_c, 6, 72, 0
9, 159360, Note_on_c, 6, 62, 97
9, 159360, Note_on_c, 6, 71, 94
9, 159360, Note_on_c, 6, 83, 99
9, 159385, Note_off_c, 6, 84, 0
9, 161234, Note_off_c, 6, 83, 0
9, 161242, Note_off_c, 6, 71, 0
9, 161249, Note_off_c, 6, 62, 0
9, 161252, Note_off_c, 6, 67, 0
9, 161280, Note_on_c, 6, 67, 97
9, 161280, Note_on_c, 6, 71, 98
9, 161280, Note_on_c, 6, 83, 105
9, 163097, Note_off_c, 6, 71, 0
9, 163138, Note_off_c, 6, 67, 0
9, 163200, Note_on_c, 6, 65, 94
9, 163200, Note_on_c, 6, 69, 90
9, 163200, Note_on_c, 6, 72, 88
9, 163200, Note_on_c, 6, 84, 96
9, 163210, Note_off_c, 6, 83, 0
9, 166050, Note_off_c, 6, 65, 0
9, 166071, Note_off_c, 6, 69, 0
9, 166080, Note_on_c, 6, 64, 99
9, 166080, Note_on_c, 6, 67, 81
9, 166955, Note_off_c, 6, 64, 0
9, 166977, Note_off_c, 6, 72, 0
9, 167040, Note_off_c, 6, 67, 0
9, 167040, Note_on_c, 6, 64, 101
9, 167040, Note_on_c, 6, 67, 97
9, 167040, Note_on_c, 6, 72, 97
9, 167040, Note_on_c, 6, 84, 105
9, 167065, Note_off_c, 6, 84, 0
9, 167296, Note_off_c, 6, 72, 0
9, 167308, Note_off_c, 6, 64, 0
9, 167332, Note_off_c, 6, 67, 0
9, 167352, Note_off_c, 6, 84, 0
9, 167400, Note_on_c, 6, 62, 103
9, 167400, Note_on_c, 6, 67, 96
9, 167400, Note_on_c, 6, 71, 87
9, 167400, Note_on_c, 6, 83, 104
9, 167691, Note_off_c, 6, 62, 0
9, 167699, Note_off_c, 6, 67, 0
9, 167700, Note_off_c, 6, 71, 0
9, 167745, Note_off_c, 6, 83, 0
9, 167760, Note_on_c, 6, 62, 101
9, 167760, Note_on_c, 6, 67, 94
9, 167760, Note_on_c, 6, 71, 92
9, 167760, Note_on_c, 6, 79, 98
9, 167886, Note_off_c, 6, 62, 0
9, 167933, Note_off_c, 6, 71, 0
9, 167950, Note_off_c, 6, 67, 0
9, 167982, Note_off_c, 6, 79, 0
9, 168000, Note_on_c, 6, 64, 92
9, 168000, Note_on_c, 6, 67, 90
9, 168000, Note_on_c, 6, 72, 98
9, 168000, Note_on_c, 6, 84, 104
9, 168259, Note_off_c, 6, 72, 0
9, 168269, Note_off_c, 6, 64, 0
9, 168279, Note_off_c, 6, 67, 0
9, 168302, Note_off_c, 6, 84, 0
9, 168360, Note_on_c, 6, 62, 104
9, 168360, Note_on_c, 6, 67, 96
9, 168360, Note_on_c, 6, 71, 97
9, 168360, Note_on_c, 6, 83, 107
9, 168587, Note_off_c, 6, 62, 0
9, 168596, Note_off_c, 6, 71, 0
9, 168598, Note_off_c, 6, 67, 0
9, 168624, Note_off_c, 6, 83, 0
9, 170641, Control_c, 6, 7, 90
9, 170641, End_track
10, 0, Start_track
10, 0, Title_t, "\000"
10, 0, Program_c, 7, 50
10, 0, Control_c, 7, 7, 70
10, 0, Control_c, 7, 10, 90
10, 0, Control_c, 7, 91, 67
10, 0, Control_c, 7, 93, 127
10, 790, Control_c, 7, 11, 127
10, 1920, Note_on_c, 7, 59, 74
10, 1920, Note_on_c, 7, 62, 76
10, 3836, Note_off_c, 7, 59, 0
10, 3836, Note_off_c, 7, 62, 0
10, 3840, Note_on_c, 7, 57, 67
10, 3840, Note_on_c, 7, 60, 74
10, 6716, Note_off_c, 7, 57, 0
10, 6716, Note_off_c, 7, 60, 0
10, 6720, Note_on_c, 7, 55, 71
10, 6720, Note_on_c, 7, 60, 76
10, 7676, Note_off_c, 7, 55, 0
10, 7676, Note_off_c, 7, 60, 0
10, 7680, Note_on_c, 7, 55, 71
10, 7680, Note_on_c, 7, 59, 81
10, 9596, Note_off_c, 7, 55, 0
10, 9596, Note_off_c, 7, 59, 0
10, 9600, Note_on_c, 7, 55, 71
10, 9600, Note_on_c, 7, 59, 71
10, 9600, Note_on_c, 7, 62, 75
10, 11501, Note_off_c, 7, 59, 0
10, 11508, Note_off_c, 7, 55, 0
10, 11520, Note_on_c, 7, 53, 63
10, 11520, Note_on_c, 7, 57, 69
10, 11520, Note_on_c, 7, 60, 74
10, 13297, Note_off_c, 7, 60, 0
10, 13359, Note_off_c, 7, 53, 0
10, 13370, Note_off_c, 7, 57, 0
10, 13440, Note_on_c, 7, 53, 72
10, 13440, Note_on_c, 7, 57, 65
10, 13440, Note_on_c, 7, 60, 74
10, 13440, Note_on_c, 7, 65, 75
10, 13450, Note_off_c, 7, 62, 0
10, 14305, Note_off_c, 7, 60, 0
10, 14371, Note_off_c, 7, 57, 0
10, 14389, Note_off_c, 7, 53, 0
10, 14400, Note_on_c, 7, 55, 71
10, 14400, Note_on_c, 7, 60, 78
10, 14400, Note_on_c, 7, 64, 72
10, 14416, Note_off_c, 7, 65, 0
10, 15324, Note_off_c, 7, 55, 0
10, 15338, Note_off_c, 7, 64, 0
10, 15360, Note_on_c, 7, 55, 73
10, 15360, Note_on_c, 7, 59, 75
10, 15360, Note_on_c, 7, 62, 78
10, 15378, Note_off_c, 7, 60, 0
10, 16939, Note_off_c, 7, 59, 0
10, 16941, Note_off_c, 7, 62, 0
10, 16943, Note_off_c, 7, 55, 0
10, 17280, Note_on_c, 7, 57, 69
10, 17280, Note_on_c, 7, 60, 74
10, 23036, Note_off_c, 7, 57, 0
10, 23036, Note_off_c, 7, 60, 0
10, 23040, Note_on_c, 7, 55, 69
10, 23040, Note_on_c, 7, 59, 74
10, 24000, Note_off_c, 7, 55, 0
10, 24000, Note_off_c, 7, 59, 0
10, 24000, Note_on_c, 7, 53, 69
10, 24000, Note_on_c, 7, 57, 74
10, 26880, Note_off_c, 7, 53, 0
10, 26880, Note_off_c, 7, 57, 0
10, 26880, Note_on_c, 7, 57, 69
10, 26880, Note_on_c, 7, 60, 74
10, 32636, Note_off_c, 7, 57, 0
10, 32636, Note_off_c, 7, 60, 0
10, 32640, Note_on_c, 7, 55, 69
10, 32640, Note_on_c, 7, 59, 74
10, 33600, Note_off_c, 7, 55, 0
10, 33600, Note_off_c, 7, 59, 0
10, 33600, Note_on_c, 7, 53, 69
10, 33600, Note_on_c, 7, 57, 74
10, 35640, Note_off_c, 7, 53, 0
10, 35640, Note_off_c, 7, 57, 0
10, 36480, Note_on_c, 7, 62, 78
10, 36480, Note_on_c, 7, 67, 74
10, 36480, Note_on_c, 7, 71, 78
10, 38396, Note_off_c, 7, 62, 0
10, 38396, Note_off_c, 7, 67, 0
10, 38396, Note_off_c, 7, 71, 0
10, 38400, Note_on_c, 7, 65, 74
10, 38400, Note_on_c, 7, 69, 74
10, 38400, Note_on_c, 7, 72, 74
10, 40316, Note_off_c, 7, 65, 0
10, 40316, Note_off_c, 7, 69, 0
10, 40316, Note_off_c, 7, 72, 0
10, 40320, Note_on_c, 7, 57, 75
10, 40320, Note_on_c, 7, 60, 78
10, 40320, Note_on_c, 7, 65, 78
10, 41276, Note_off_c, 7, 57, 0
10, 41276, Note_off_c, 7, 60, 0
10, 41276, Note_off_c, 7, 65, 0
10, 41280, Note_on_c, 7, 55, 75
10, 41280, Note_on_c, 7, 60, 78
10, 41280, Note_on_c, 7, 64, 78
10, 42236, Note_off_c, 7, 55, 0
10, 42236, Note_off_c, 7, 60, 0
10, 42236, Note_off_c, 7, 64, 0
10, 42240, Note_on_c, 7, 55, 75
10, 42240, Note_on_c, 7, 59, 75
10, 42240, Note_on_c, 7, 62, 80
10, 44156, Note_off_c, 7, 55, 0
10, 44156, Note_off_c, 7, 59, 0
10, 44156, Note_off_c, 7, 62, 0
10, 44160, Note_on_c, 7, 62, 78
10, 44160, Note_on_c, 7, 67, 74
10, 44160, Note_on_c, 7, 71, 78
10, 46076, Note_off_c, 7, 62, 0
10, 46076, Note_off_c, 7, 67, 0
10, 46076, Note_off_c, 7, 71, 0
10, 46080, Note_on_c, 7, 65, 74
10, 46080, Note_on_c, 7, 69, 74
10, 46080, Note_on_c, 7, 72, 74
10, 47996, Note_off_c, 7, 65, 0
10, 47996, Note_off_c, 7, 69, 0
10, 47996, Note_off_c, 7, 72, 0
10, 48000, Note_on_c, 7, 57, 75
10, 48000, Note_on_c, 7, 60, 78
10, 48000, Note_on_c, 7, 65, 78
10, 48956, Note_off_c, 7, 57, 0
10, 48956, Note_off_c, 7, 60, 0
10, 48956, Note_off_c, 7, 65, 0
10, 48960, Note_on_c, 7, 55, 75
10, 48960, Note_on_c, 7, 60, 78
10, 48960, Note_on_c, 7, 64, 78
10, 49916, Note_off_c, 7, 55, 0
10, 49916, Note_off_c, 7, 60, 0
10, 49916, Note_off_c, 7, 64, 0
10, 49920, Note_on_c, 7, 55, 75
10, 49920, Note_on_c, 7, 59, 75
10, 49920, Note_on_c, 7, 62, 80
10, 51000, Note_off_c, 7, 55, 0
10, 51000, Note_off_c, 7, 59, 0
10, 51000, Note_off_c, 7, 62, 0
10, 51840, Note_on_c, 7, 57, 69
10, 51840, Note_on_c, 7, 60, 74
10, 57596, Note_off_c, 7, 57, 0
10, 57596, Note_off_c, 7, 60, 0
10, 57600, Note_on_c, 7, 55, 69
10, 57600, Note_on_c, 7, 59, 74
10, 58560, Note_off_c, 7, 55, 0
10, 58560, Note_off_c, 7, 59, 0
10, 58560, Note_on_c, 7, 53, 69
10, 58560, Note_on_c, 7, 57, 74
10, 61440, Note_off_c, 7, 53, 0
10, 61440, Note_off_c, 7, 57, 0
10, 61440, Note_on_c, 7, 57, 69
10, 61440, Note_on_c, 7, 60, 74
10, 67196, Note_off_c, 7, 57, 0
10, 67196, Note_off_c, 7, 60, 0
10, 67200, Note_on_c, 7, 55, 69
10, 67200, Note_on_c, 7, 59, 74
10, 68160, Note_off_c, 7, 55, 0
10, 68160, Note_off_c, 7, 59, 0
10, 68160, Note_on_c, 7, 53, 69
10, 68160, Note_on_c, 7, 57, 74
10, 70200, Note_off_c, 7, 53, 0
10, 70200, Note_off_c, 7, 57, 0
10, 71040, Note_on_c, 7, 62, 78
10, 71040, Note_on_c, 7, 67, 74
10, 71040, Note_on_c, 7, 71, 78
10, 72956, Note_off_c, 7, 62, 0
10, 72956, Note_off_c, 7, 67, 0
10, 72956, Note_off_c, 7, 71, 0
10, 72960, Note_on_c, 7, 65, 74
10, 72960, Note_on_c, 7, 69, 74
10, 72960, Note_on_c, 7, 72, 74
10, 74876, Note_off_c, 7, 65, 0
10, 74876, Note_off_c, 7, 69, 0
10, 74876, Note_off_c, 7, 72, 0
10, 74880, Note_on_c, 7, 57, 75
10, 74880, Note_on_c, 7, 60, 78
10, 74880, Note_on_c, 7, 65, 78
10, 75836, Note_off_c, 7, 57, 0
10, 75836, Note_off_c, 7, 60, 0
10, 75836, Note_off_c, 7, 65, 0
10, 75840, Note_on_c, 7, 55, 75
10, 75840, Note_on_c, 7, 60, 78
10, 75840, Note_on_c, 7, 64, 78
10, 76796, Note_off_c, 7, 55, 0
10, 76796, Note_off_c, 7, 60, 0
10, 76796, Note_off_c, 7, 64, 0
10, 76800, Note_on_c, 7, 55, 75
10, 76800, Note_on_c, 7, 59, 75
10, 76800, Note_on_c, 7, 62, 80
10, 78716, Note_off_c, 7, 55, 0
10, 78716, Note_off_c, 7, 59, 0
10, 78716, Note_off_c, 7, 62, 0
10, 78720, Note_on_c, 7, 62, 78
10, 78720, Note_on_c, 7, 67, 74
10, 78720, Note_on_c, 7, 71, 78
10, 80636, Note_off_c, 7, 62, 0
10, 80636, Note_off_c, 7, 67, 0
10, 80636, Note_off_c, 7, 71, 0
10, 80640, Note_on_c, 7, 65, 74
10, 80640, Note_on_c, 7, 69, 74
10, 80640, Note_on_c, 7, 72, 74
10, 82556, Note_off_c, 7, 65, 0
10, 82556, Note_off_c, 7, 69, 0
10, 82556, Note_off_c, 7, 72, 0
10, 82560, Note_on_c, 7, 57, 75
10, 82560, Note_on_c, 7, 60, 78
10, 82560, Note_on_c, 7, 65, 78
10, 83516, Note_off_c, 7, 57, 0
10, 83516, Note_off_c, 7, 60, 0
10, 83516, Note_off_c, 7, 65, 0
10, 83520, Note_on_c, 7, 55, 75
10, 83520, Note_on_c, 7, 60, 78
10, 83520, Note_on_c, 7, 64, 78
10, 84476, Note_off_c, 7, 55, 0
10, 84476, Note_off_c, 7, 60, 0
10, 84476, Note_off_c, 7, 64, 0
10, 84480, Note_on_c, 7, 55, 75
10, 84480, Note_on_c, 7, 59, 75
10, 84480, Note_on_c, 7, 62, 80
10, 85560, Note_off_c, 7, 55, 0
10, 85560, Note_off_c, 7, 59, 0
10, 85560, Note_off_c, 7, 62, 0
10, 86400, Note_on_c, 7, 69, 74
10, 86400, Note_on_c, 7, 72, 76
10, 86400, Note_on_c, 7, 76, 80
10, 86400, Note_on_c, 7, 81, 78
10, 90236, Note_off_c, 7, 69, 0
10, 90236, Note_off_c, 7, 72, 0
10, 90236, Note_off_c, 7, 76, 0
10, 90236, Note_off_c, 7, 81, 0
10, 90240, Note_on_c, 7, 67, 72
10, 90240, Note_on_c, 7, 71, 80
10, 90240, Note_on_c, 7, 74, 84
10, 90240, Note_on_c, 7, 79, 76
10, 91196, Note_off_c, 7, 67, 0
10, 91196, Note_off_c, 7, 71, 0
10, 91196, Note_off_c, 7, 74, 0
10, 91196, Note_off_c, 7, 79, 0
10, 91200, Note_on_c, 7, 65, 75
10, 91200, Note_on_c, 7, 69, 75
10, 91200, Note_on_c, 7, 72, 82
10, 91200, Note_on_c, 7, 77, 80
10, 92156, Note_off_c, 7, 65, 0
10, 92156, Note_off_c, 7, 69, 0
10, 92156, Note_off_c, 7, 72, 0
10, 92156, Note_off_c, 7, 77, 0
10, 92160, Note_on_c, 7, 64, 75
10, 92160, Note_on_c, 7, 67, 80
10, 92160, Note_on_c, 7, 72, 82
10, 92160, Note_on_c, 7, 76, 81
10, 93510, Note_off_c, 7, 76, 0
10, 93513, Note_off_c, 7, 67, 0
10, 93531, Note_off_c, 7, 72, 0
10, 93591, Note_off_c, 7, 64, 0
10, 93600, Note_on_c, 7, 67, 81
10, 93600, Note_on_c, 7, 72, 80
10, 93600, Note_on_c, 7, 76, 81
10, 93600, Note_on_c, 7, 79, 81
10, 93600, Note_on_c, 7, 84, 81
10, 93836, Note_off_c, 7, 72, 0
10, 93836, Note_off_c, 7, 76, 0
10, 93836, Note_off_c, 7, 84, 0
10, 93840, Note_on_c, 7, 71, 82
10, 93840, Note_on_c, 7, 74, 81
10, 93840, Note_on_c, 7, 83, 81
10, 94042, Note_off_c, 7, 67, 0
10, 94076, Note_off_c, 7, 79, 0
10, 94076, Note_off_c, 7, 71, 0
10, 94076, Note_off_c, 7, 74, 0
10, 94076, Note_off_c, 7, 83, 0
10, 94080, Note_on_c, 7, 69, 74
10, 94080, Note_on_c, 7, 72, 76
10, 94080, Note_on_c, 7, 76, 80
10, 94080, Note_on_c, 7, 81, 78
10, 97916, Note_off_c, 7, 69, 0
10, 97916, Note_off_c, 7, 72, 0
10, 97916, Note_off_c, 7, 76, 0
10, 97916, Note_off_c, 7, 81, 0
10, 97920, Note_on_c, 7, 67, 72
10, 97920, Note_on_c, 7, 71, 80
10, 97920, Note_on_c, 7, 74, 84
10, 97920, Note_on_c, 7, 79, 76
10, 98876, Note_off_c, 7, 67, 0
10, 98876, Note_off_c, 7, 71, 0
10, 98876, Note_off_c, 7, 74, 0
10, 98876, Note_off_c, 7, 79, 0
10, 98880, Note_on_c, 7, 65, 75
10, 98880, Note_on_c, 7, 69, 75
10, 98880, Note_on_c, 7, 72, 82
10, 98880, Note_on_c, 7, 77, 80
10, 99836, Note_off_c, 7, 65, 0
10, 99836, Note_off_c, 7, 69, 0
10, 99836, Note_off_c, 7, 72, 0
10, 99836, Note_off_c, 7, 77, 0
10, 99840, Note_on_c, 7, 64, 75
10, 99840, Note_on_c, 7, 67, 80
10, 99840, Note_on_c, 7, 71, 82
10, 99840, Note_on_c, 7, 76, 81
10, 101756, Note_off_c, 7, 64, 0
10, 101756, Note_off_c, 7, 67, 0
10, 101756, Note_off_c, 7, 71, 0
10, 101756, Note_off_c, 7, 76, 0
10, 101760, Note_on_c, 7, 50, 78
10, 101760, Note_on_c, 7, 57, 76
10, 101760, Note_on_c, 7, 65, 80
10, 103676, Note_off_c, 7, 50, 0
10, 103676, Note_off_c, 7, 65, 0
10, 103680, Note_on_c, 7, 45, 76
10, 103680, Note_on_c, 7, 64, 74
10, 107486, Note_off_c, 7, 57, 0
10, 107516, Note_off_c, 7, 45, 0
10, 107516, Note_off_c, 7, 64, 0
10, 107520, Note_on_c, 7, 62, 78
10, 107520, Note_on_c, 7, 67, 74
10, 107520, Note_on_c, 7, 71, 78
10, 109436, Note_off_c, 7, 62, 0
10, 109436, Note_off_c, 7, 67, 0
10, 109436, Note_off_c, 7, 71, 0
10, 109440, Note_on_c, 7, 65, 74
10, 109440, Note_on_c, 7, 69, 74
10, 109440, Note_on_c, 7, 72, 74
10, 111356, Note_off_c, 7, 65, 0
10, 111356, Note_off_c, 7, 69, 0
10, 111356, Note_off_c, 7, 72, 0
10, 111360, Note_on_c, 7, 57, 75
10, 111360, Note_on_c, 7, 60, 78
10, 111360, Note_on_c, 7, 65, 78
10, 112316, Note_off_c, 7, 57, 0
10, 112316, Note_off_c, 7, 60, 0
10, 112316, Note_off_c, 7, 65, 0
10, 112320, Note_on_c, 7, 55, 75
10, 112320, Note_on_c, 7, 60, 78
10, 112320, Note_on_c, 7, 64, 78
10, 113276, Note_off_c, 7, 55, 0
10, 113276, Note_off_c, 7, 60, 0
10, 113276, Note_off_c, 7, 64, 0
10, 113280, Note_on_c, 7, 55, 75
10, 113280, Note_on_c, 7, 59, 75
10, 113280, Note_on_c, 7, 62, 80
10, 115196, Note_off_c, 7, 55, 0
10, 115196, Note_off_c, 7, 59, 0
10, 115196, Note_off_c, 7, 62, 0
10, 115200, Note_on_c, 7, 62, 78
10, 115200, Note_on_c, 7, 67, 74
10, 115200, Note_on_c, 7, 71, 78
10, 117116, Note_off_c, 7, 62, 0
10, 117116, Note_off_c, 7, 67, 0
10, 117116, Note_off_c, 7, 71, 0
10, 117120, Note_on_c, 7, 65, 74
10, 117120, Note_on_c, 7, 69, 74
10, 117120, Note_on_c, 7, 72, 74
10, 119036, Note_off_c, 7, 65, 0
10, 119036, Note_off_c, 7, 69, 0
10, 119036, Note_off_c, 7, 72, 0
10, 119040, Note_on_c, 7, 57, 75
10, 119040, Note_on_c, 7, 60, 78
10, 119040, Note_on_c, 7, 65, 78
10, 119996, Note_off_c, 7, 57, 0
10, 119996, Note_off_c, 7, 60, 0
10, 119996, Note_off_c, 7, 65, 0
10, 120000, Note_on_c, 7, 55, 75
10, 120000, Note_on_c, 7, 60, 78
10, 120000, Note_on_c, 7, 64, 78
10, 120956, Note_off_c, 7, 55, 0
10, 120956, Note_off_c, 7, 60, 0
10, 120956, Note_off_c, 7, 64, 0
10, 120960, Note_on_c, 7, 55, 75
10, 120960, Note_on_c, 7, 59, 75
10, 120960, Note_on_c, 7, 62, 80
10, 122876, Note_off_c, 7, 55, 0
10, 122876, Note_off_c, 7, 59, 0
10, 122876, Note_off_c, 7, 62, 0
10, 122880, Note_on_c, 7, 62, 78
10, 122880, Note_on_c, 7, 67, 74
10, 122880, Note_on_c, 7, 71, 78
10, 124796, Note_off_c, 7, 62, 0
10, 124796, Note_off_c, 7, 67, 0
10, 124796, Note_off_c, 7, 71, 0
10, 124800, Note_on_c, 7, 65, 74
10, 124800, Note_on_c, 7, 69, 74
10, 124800, Note_on_c, 7, 72, 74
10, 126716, Note_off_c, 7, 65, 0
10, 126716, Note_off_c, 7, 69, 0
10, 126716, Note_off_c, 7, 72, 0
10, 126720, Note_on_c, 7, 57, 75
10, 126720, Note_on_c, 7, 60, 78
10, 126720, Note_on_c, 7, 65, 78
10, 127676, Note_off_c, 7, 57, 0
10, 127676, Note_off_c, 7, 60, 0
10, 127676, Note_off_c, 7, 65, 0
10, 127680, Note_on_c, 7, 55, 75
10, 127680, Note_on_c, 7, 60, 78
10, 127680, Note_on_c, 7, 64, 78
10, 128636, Note_off_c, 7, 55, 0
10, 128636, Note_off_c, 7, 60, 0
10, 128636, Note_off_c, 7, 64, 0
10, 128640, Note_on_c, 7, 55, 75
10, 128640, Note_on_c, 7, 59, 75
10, 128640, Note_on_c, 7, 62, 80
10, 130556, Note_off_c, 7, 55, 0
10, 130556, Note_off_c, 7, 59, 0
10, 130556, Note_off_c, 7, 62, 0
10, 130560, Note_on_c, 7, 62, 78
10, 130560, Note_on_c, 7, 67, 74
10, 130560, Note_on_c, 7, 71, 78
10, 132476, Note_off_c, 7, 62, 0
10, 132476, Note_off_c, 7, 67, 0
10, 132476, Note_off_c, 7, 71, 0
10, 132480, Note_on_c, 7, 65, 74
10, 132480, Note_on_c, 7, 69, 74
10, 132480, Note_on_c, 7, 72, 74
10, 134396, Note_off_c, 7, 65, 0
10, 134396, Note_off_c, 7, 69, 0
10, 134396, Note_off_c, 7, 72, 0
10, 134400, Note_on_c, 7, 57, 75
10, 134400, Note_on_c, 7, 60, 78
10, 134400, Note_on_c, 7, 65, 78
10, 135356, Note_off_c, 7, 57, 0
10, 135356, Note_off_c, 7, 60, 0
10, 135356, Note_off_c, 7, 65, 0
10, 135360, Note_on_c, 7, 55, 75
10, 135360, Note_on_c, 7, 60, 78
10, 135360, Note_on_c, 7, 64, 78
10, 136316, Note_off_c, 7, 55, 0
10, 136316, Note_off_c, 7, 60, 0
10, 136316, Note_off_c, 7, 64, 0
10, 136320, Note_on_c, 7, 55, 75
10, 136320, Note_on_c, 7, 59, 75
10, 136320, Note_on_c, 7, 62, 80
10, 137400, Note_off_c, 7, 55, 0
10, 137400, Note_off_c, 7, 59, 0
10, 137400, Note_off_c, 7, 62, 0
10, 138240, Note_on_c, 7, 62, 78
10, 138240, Note_on_c, 7, 67, 74
10, 138240, Note_on_c, 7, 71, 78
10, 140156, Note_off_c, 7, 62, 0
10, 140156, Note_off_c, 7, 67, 0
10, 140156, Note_off_c, 7, 71, 0
10, 140160, Note_on_c, 7, 65, 74
10, 140160, Note_on_c, 7, 69, 74
10, 140160, Note_on_c, 7, 72, 74
10, 142076, Note_off_c, 7, 65, 0
10, 142076, Note_off_c, 7, 69, 0
10, 142076, Note_off_c, 7, 72, 0
10, 142080, Note_on_c, 7, 57, 75
10, 142080, Note_on_c, 7, 60, 78
10, 142080, Note_on_c, 7, 65, 78
10, 143036, Note_off_c, 7, 57, 0
10, 143036, Note_off_c, 7, 60, 0
10, 143036, Note_off_c, 7, 65, 0
10, 143040, Note_on_c, 7, 55, 75
10, 143040, Note_on_c, 7, 60, 78
10, 143040, Note_on_c, 7, 64, 78
10, 143996, Note_off_c, 7, 55, 0
10, 143996, Note_off_c, 7, 60, 0
10, 143996, Note_off_c, 7, 64, 0
10, 144000, Note_on_c, 7, 55, 75
10, 144000, Note_on_c, 7, 59, 75
10, 144000, Note_on_c, 7, 62, 80
10, 145916, Note_off_c, 7, 55, 0
10, 145916, Note_off_c, 7, 59, 0
10, 145916, Note_off_c, 7, 62, 0
10, 145920, Note_on_c, 7, 62, 78
10, 145920, Note_on_c, 7, 67, 74
10, 145920, Note_on_c, 7, 71, 78
10, 147836, Note_off_c, 7, 62, 0
10, 147836, Note_off_c, 7, 67, 0
10, 147836, Note_off_c, 7, 71, 0
10, 147840, Note_on_c, 7, 65, 74
10, 147840, Note_on_c, 7, 69, 74
10, 147840, Note_on_c, 7, 72, 74
10, 149756, Note_off_c, 7, 65, 0
10, 149756, Note_off_c, 7, 69, 0
10, 149756, Note_off_c, 7, 72, 0
10, 149760, Note_on_c, 7, 57, 75
10, 149760, Note_on_c, 7, 60, 78
10, 149760, Note_on_c, 7, 65, 78
10, 150716, Note_off_c, 7, 57, 0
10, 150716, Note_off_c, 7, 60, 0
10, 150716, Note_off_c, 7, 65, 0
10, 150720, Note_on_c, 7, 55, 75
10, 150720, Note_on_c, 7, 60, 78
10, 150720, Note_on_c, 7, 64, 78
10, 151676, Note_off_c, 7, 55, 0
10, 151676, Note_off_c, 7, 60, 0
10, 151676, Note_off_c, 7, 64, 0
10, 151680, Note_on_c, 7, 55, 75
10, 151680, Note_on_c, 7, 59, 75
10, 151680, Note_on_c, 7, 62, 80
10, 153596, Note_off_c, 7, 55, 0
10, 153596, Note_off_c, 7, 59, 0
10, 153596, Note_off_c, 7, 62, 0
10, 153600, Note_on_c, 7, 62, 78
10, 153600, Note_on_c, 7, 67, 74
10, 153600, Note_on_c, 7, 71, 78
10, 155516, Note_off_c, 7, 62, 0
10, 155516, Note_off_c, 7, 67, 0
10, 155516, Note_off_c, 7, 71, 0
10, 155520, Note_on_c, 7, 65, 74
10, 155520, Note_on_c, 7, 69, 74
10, 155520, Note_on_c, 7, 72, 74
10, 157436, Note_off_c, 7, 65, 0
10, 157436, Note_off_c, 7, 69, 0
10, 157436, Note_off_c, 7, 72, 0
10, 157440, Note_on_c, 7, 57, 75
10, 157440, Note_on_c, 7, 60, 78
10, 157440, Note_on_c, 7, 65, 78
10, 158396, Note_off_c, 7, 57, 0
10, 158396, Note_off_c, 7, 60, 0
10, 158396, Note_off_c, 7, 65, 0
10, 158400, Note_on_c, 7, 55, 75
10, 158400, Note_on_c, 7, 60, 78
10, 158400, Note_on_c, 7, 64, 78
10, 159356, Note_off_c, 7, 55, 0
10, 159356, Note_off_c, 7, 60, 0
10, 159356, Note_off_c, 7, 64, 0
10, 159360, Note_on_c, 7, 55, 75
10, 159360, Note_on_c, 7, 59, 75
10, 159360, Note_on_c, 7, 62, 80
10, 161276, Note_off_c, 7, 55, 0
10, 161276, Note_off_c, 7, 59, 0
10, 161276, Note_off_c, 7, 62, 0
10, 161280, Note_on_c, 7, 62, 78
10, 161280, Note_on_c, 7, 67, 74
10, 161280, Note_on_c, 7, 71, 78
10, 163196, Note_off_c, 7, 62, 0
10, 163196, Note_off_c, 7, 67, 0
10, 163196, Note_off_c, 7, 71, 0
10, 163200, Note_on_c, 7, 65, 74
10, 163200, Note_on_c, 7, 69, 74
10, 163200, Note_on_c, 7, 72, 74
10, 165116, Note_off_c, 7, 65, 0
10, 165116, Note_off_c, 7, 69, 0
10, 165116, Note_off_c, 7, 72, 0
10, 165120, Note_on_c, 7, 57, 75
10, 165120, Note_on_c, 7, 60, 78
10, 165120, Note_on_c, 7, 65, 78
10, 166076, Note_off_c, 7, 57, 0
10, 166076, Note_off_c, 7, 60, 0
10, 166076, Note_off_c, 7, 65, 0
10, 166080, Note_on_c, 7, 55, 75
10, 166080, Note_on_c, 7, 60, 78
10, 166080, Note_on_c, 7, 64, 78
10, 167036, Note_off_c, 7, 55, 0
10, 167036, Note_off_c, 7, 60, 0
10, 167036, Note_off_c, 7, 64, 0
10, 167040, Note_on_c, 7, 55, 75
10, 167040, Note_on_c, 7, 64, 76
10, 167040, Note_on_c, 7, 67, 80
10, 167040, Note_on_c, 7, 72, 78
10, 167304, Note_off_c, 7, 64, 0
10, 167312, Note_off_c, 7, 67, 0
10, 167319, Note_off_c, 7, 55, 0
10, 167334, Note_off_c, 7, 72, 0
10, 167400, Note_on_c, 7, 55, 73
10, 167400, Note_on_c, 7, 62, 76
10, 167400, Note_on_c, 7, 67, 73
10, 167400, Note_on_c, 7, 71, 75
10, 167684, Note_off_c, 7, 67, 0
10, 167688, Note_off_c, 7, 62, 0
10, 167689, Note_off_c, 7, 55, 0
10, 167736, Note_off_c, 7, 71, 0
10, 167760, Note_on_c, 7, 55, 72
10, 167760, Note_on_c, 7, 62, 72
10, 167760, Note_on_c, 7, 67, 74
10, 167975, Note_off_c, 7, 62, 0
10, 167982, Note_off_c, 7, 67, 0
10, 167992, Note_off_c, 7, 55, 0
10, 168000, Note_on_c, 7, 55, 74
10, 168000, Note_on_c, 7, 64, 63
10, 168000, Note_on_c, 7, 67, 76
10, 168000, Note_on_c, 7, 72, 80
10, 168251, Note_off_c, 7, 64, 0
10, 168276, Note_off_c, 7, 72, 0
10, 168278, Note_off_c, 7, 67, 0
10, 168279, Note_off_c, 7, 55, 0
10, 168360, Note_on_c, 7, 55, 78
10, 168360, Note_on_c, 7, 62, 78
10, 168360, Note_on_c, 7, 67, 78
10, 168360, Note_on_c, 7, 71, 78
10, 168696, Note_off_c, 7, 62, 0
10, 168711, Note_off_c, 7, 67, 0
10, 168711, Note_off_c, 7, 71, 0
10, 168719, Note_off_c, 7, 55, 0
10, 170641, Control_c, 7, 7, 70
10, 170641, End_track
11, 0, Start_track
11, 0, Title_t, "\000"
11, 0, Program_c, 8, 28
11, 0, Control_c, 8, 7, 90
11, 0, Control_c, 8, 10, 33
11, 0, Control_c, 8, 91, 67
11, 0, Control_c, 8, 93, 127
11, 830, Control_c, 8, 11, 127
11, 17280, Note_on_c, 8, 57, 87
11, 17280, Note_on_c, 8, 60, 90
11, 17371, Note_off_c, 8, 60, 0
11, 17396, Note_off_c, 8, 57, 0
11, 17400, Note_on_c, 8, 57, 65
11, 17459, Note_off_c, 8, 57, 0
11, 17520, Note_on_c, 8, 57, 78
11, 17577, Note_off_c, 8, 57, 0
11, 17640, Note_on_c, 8, 57, 90
11, 17640, Note_on_c, 8, 60, 98
11, 17702, Note_off_c, 8, 57, 0
11, 17702, Note_off_c, 8, 60, 0
11, 17880, Note_on_c, 8, 57, 80
11, 17939, Note_off_c, 8, 57, 0
11, 18000, Note_on_c, 8, 57, 95
11, 18053, Note_off_c, 8, 57, 0
11, 18240, Note_on_c, 8, 57, 87
11, 18240, Note_on_c, 8, 60, 90
11, 18331, Note_off_c, 8, 60, 0
11, 18356, Note_off_c, 8, 57, 0
11, 18360, Note_on_c, 8, 57, 65
11, 18419, Note_off_c, 8, 57, 0
11, 18480, Note_on_c, 8, 57, 78
11, 18537, Note_off_c, 8, 57, 0
11, 18600, Note_on_c, 8, 57, 90
11, 18600, Note_on_c, 8, 60, 98
11, 18662, Note_off_c, 8, 57, 0
11, 18662, Note_off_c, 8, 60, 0
11, 18840, Note_on_c, 8, 57, 80
11, 18899, Note_off_c, 8, 57, 0
11, 18960, Note_on_c, 8, 57, 95
11, 19013, Note_off_c, 8, 57, 0
11, 19200, Note_on_c, 8, 57, 87
11, 19200, Note_on_c, 8, 60, 90
11, 19291, Note_off_c, 8, 60, 0
11, 19316, Note_off_c, 8, 57, 0
11, 19320, Note_on_c, 8, 57, 65
11, 19379, Note_off_c, 8, 57, 0
11, 19440, Note_on_c, 8, 57, 78
11, 19497, Note_off_c, 8, 57, 0
11, 19560, Note_on_c, 8, 57, 90
11, 19560, Note_on_c, 8, 60, 98
11, 19622, Note_off_c, 8, 57, 0
11, 19622, Note_off_c, 8, 60, 0
11, 19800, Note_on_c, 8, 57, 80
11, 19859, Note_off_c, 8, 57, 0
11, 19920, Note_on_c, 8, 57, 95
11, 19973, Note_off_c, 8, 57, 0
11, 20160, Note_on_c, 8, 57, 87
11, 20160, Note_on_c, 8, 60, 90
11, 20251, Note_off_c, 8, 60, 0
11, 20276, Note_off_c, 8, 57, 0
11, 20280, Note_on_c, 8, 57, 65
11, 20339, Note_off_c, 8, 57, 0
11, 20400, Note_on_c, 8, 57, 78
11, 20457, Note_off_c, 8, 57, 0
11, 20520, Note_on_c, 8, 57, 90
11, 20520, Note_on_c, 8, 60, 98
11, 20582, Note_off_c, 8, 57, 0
11, 20582, Note_off_c, 8, 60, 0
11, 20760, Note_on_c, 8, 57, 80
11, 20819, Note_off_c, 8, 57, 0
11, 20880, Note_on_c, 8, 57, 95
11, 20933, Note_off_c, 8, 57, 0
11, 21120, Note_on_c, 8, 57, 87
11, 21120, Note_on_c, 8, 60, 90
11, 21211, Note_off_c, 8, 60, 0
11, 21236, Note_off_c, 8, 57, 0
11, 21240, Note_on_c, 8, 57, 65
11, 21299, Note_off_c, 8, 57, 0
11, 21360, Note_on_c, 8, 57, 78
11, 21417, Note_off_c, 8, 57, 0
11, 21480, Note_on_c, 8, 57, 90
11, 21480, Note_on_c, 8, 60, 98
11, 21542, Note_off_c, 8, 57, 0
11, 21542, Note_off_c, 8, 60, 0
11, 21720, Note_on_c, 8, 57, 80
11, 21779, Note_off_c, 8, 57, 0
11, 21840, Note_on_c, 8, 57, 95
11, 21893, Note_off_c, 8, 57, 0
11, 22080, Note_on_c, 8, 57, 87
11, 22080, Note_on_c, 8, 60, 90
11, 22171, Note_off_c, 8, 60, 0
11, 22196, Note_off_c, 8, 57, 0
11, 22200, Note_on_c, 8, 57, 65
11, 22259, Note_off_c, 8, 57, 0
11, 22320, Note_on_c, 8, 57, 78
11, 22377, Note_off_c, 8, 57, 0
11, 22440, Note_on_c, 8, 57, 90
11, 22440, Note_on_c, 8, 60, 98
11, 22502, Note_off_c, 8, 57, 0
11, 22502, Note_off_c, 8, 60, 0
11, 22680, Note_on_c, 8, 57, 80
11, 22739, Note_off_c, 8, 57, 0
11, 22800, Note_on_c, 8, 57, 95
11, 22853, Note_off_c, 8, 57, 0
11, 23040, Note_on_c, 8, 55, 87
11, 23040, Note_on_c, 8, 59, 90
11, 23131, Note_off_c, 8, 59, 0
11, 23156, Note_off_c, 8, 55, 0
11, 23160, Note_on_c, 8, 55, 65
11, 23219, Note_off_c, 8, 55, 0
11, 23280, Note_on_c, 8, 55, 78
11, 23337, Note_off_c, 8, 55, 0
11, 23400, Note_on_c, 8, 55, 90
11, 23400, Note_on_c, 8, 59, 98
11, 23462, Note_off_c, 8, 55, 0
11, 23462, Note_off_c, 8, 59, 0
11, 23640, Note_on_c, 8, 55, 80
11, 23699, Note_off_c, 8, 55, 0
11, 23760, Note_on_c, 8, 55, 95
11, 23813, Note_off_c, 8, 55, 0
11, 24000, Note_on_c, 8, 53, 87
11, 24000, Note_on_c, 8, 57, 90
11, 24091, Note_off_c, 8, 57, 0
11, 24116, Note_off_c, 8, 53, 0
11, 24120, Note_on_c, 8, 53, 65
11, 24179, Note_off_c, 8, 53, 0
11, 24240, Note_on_c, 8, 53, 78
11, 24297, Note_off_c, 8, 53, 0
11, 24360, Note_on_c, 8, 53, 90
11, 24360, Note_on_c, 8, 57, 98
11, 24422, Note_off_c, 8, 53, 0
11, 24422, Note_off_c, 8, 57, 0
11, 24600, Note_on_c, 8, 53, 80
11, 24659, Note_off_c, 8, 53, 0
11, 24720, Note_on_c, 8, 53, 95
11, 24773, Note_off_c, 8, 53, 0
11, 24960, Note_on_c, 8, 53, 87
11, 24960, Note_on_c, 8, 57, 90
11, 25051, Note_off_c, 8, 57, 0
11, 25076, Note_off_c, 8, 53, 0
11, 25080, Note_on_c, 8, 53, 65
11, 25139, Note_off_c, 8, 53, 0
11, 25200, Note_on_c, 8, 53, 78
11, 25257, Note_off_c, 8, 53, 0
11, 25320, Note_on_c, 8, 53, 90
11, 25320, Note_on_c, 8, 57, 98
11, 25382, Note_off_c, 8, 53, 0
11, 25382, Note_off_c, 8, 57, 0
11, 25560, Note_on_c, 8, 53, 80
11, 25619, Note_off_c, 8, 53, 0
11, 25680, Note_on_c, 8, 53, 95
11, 25733, Note_off_c, 8, 53, 0
11, 25920, Note_on_c, 8, 53, 87
11, 25920, Note_on_c, 8, 57, 90
11, 26011, Note_off_c, 8, 57, 0
11, 26036, Note_off_c, 8, 53, 0
11, 26040, Note_on_c, 8, 53, 65
11, 26099, Note_off_c, 8, 53, 0
11, 26160, Note_on_c, 8, 53, 78
11, 26217, Note_off_c, 8, 53, 0
11, 26280, Note_on_c, 8, 53, 90
11, 26280, Note_on_c, 8, 57, 98
11, 26342, Note_off_c, 8, 53, 0
11, 26342, Note_off_c, 8, 57, 0
11, 26520, Note_on_c, 8, 53, 80
11, 26579, Note_off_c, 8, 53, 0
11, 26640, Note_on_c, 8, 53, 95
11, 26693, Note_off_c, 8, 53, 0
11, 26880, Note_on_c, 8, 57, 87
11, 26880, Note_on_c, 8, 60, 90
11, 26971, Note_off_c, 8, 60, 0
11, 26996, Note_off_c, 8, 57, 0
11, 27000, Note_on_c, 8, 57, 65
11, 27059, Note_off_c, 8, 57, 0
11, 27120, Note_on_c, 8, 57, 78
11, 27177, Note_off_c, 8, 57, 0
11, 27240, Note_on_c, 8, 57, 90
11, 27240, Note_on_c, 8, 60, 98
11, 27302, Note_off_c, 8, 57, 0
11, 27302, Note_off_c, 8, 60, 0
11, 27480, Note_on_c, 8, 57, 80
11, 27539, Note_off_c, 8, 57, 0
11, 27600, Note_on_c, 8, 57, 95
11, 27653, Note_off_c, 8, 57, 0
11, 27840, Note_on_c, 8, 57, 87
11, 27840, Note_on_c, 8, 60, 90
11, 27931, Note_off_c, 8, 60, 0
11, 27956, Note_off_c, 8, 57, 0
11, 27960, Note_on_c, 8, 57, 65
11, 28019, Note_off_c, 8, 57, 0
11, 28080, Note_on_c, 8, 57, 78
11, 28137, Note_off_c, 8, 57, 0
11, 28200, Note_on_c, 8, 57, 90
11, 28200, Note_on_c, 8, 60, 98
11, 28262, Note_off_c, 8, 57, 0
11, 28262, Note_off_c, 8, 60, 0
11, 28440, Note_on_c, 8, 57, 80
11, 28499, Note_off_c, 8, 57, 0
11, 28560, Note_on_c, 8, 57, 95
11, 28613, Note_off_c, 8, 57, 0
11, 28800, Note_on_c, 8, 57, 87
11, 28800, Note_on_c, 8, 60, 90
11, 28891, Note_off_c, 8, 60, 0
11, 28916, Note_off_c, 8, 57, 0
11, 28920, Note_on_c, 8, 57, 65
11, 28979, Note_off_c, 8, 57, 0
11, 29040, Note_on_c, 8, 57, 78
11, 29097, Note_off_c, 8, 57, 0
11, 29160, Note_on_c, 8, 57, 90
11, 29160, Note_on_c, 8, 60, 98
11, 29222, Note_off_c, 8, 57, 0
11, 29222, Note_off_c, 8, 60, 0
11, 29400, Note_on_c, 8, 57, 80
11, 29459, Note_off_c, 8, 57, 0
11, 29520, Note_on_c, 8, 57, 95
11, 29573, Note_off_c, 8, 57, 0
11, 29760, Note_on_c, 8, 57, 87
11, 29760, Note_on_c, 8, 60, 90
11, 29851, Note_off_c, 8, 60, 0
11, 29876, Note_off_c, 8, 57, 0
11, 29880, Note_on_c, 8, 57, 65
11, 29939, Note_off_c, 8, 57, 0
11, 30000, Note_on_c, 8, 57, 78
11, 30057, Note_off_c, 8, 57, 0
11, 30120, Note_on_c, 8, 57, 90
11, 30120, Note_on_c, 8, 60, 98
11, 30182, Note_off_c, 8, 57, 0
11, 30182, Note_off_c, 8, 60, 0
11, 30360, Note_on_c, 8, 57, 80
11, 30419, Note_off_c, 8, 57, 0
11, 30480, Note_on_c, 8, 57, 95
11, 30533, Note_off_c, 8, 57, 0
11, 30720, Note_on_c, 8, 57, 87
11, 30720, Note_on_c, 8, 60, 90
11, 30811, Note_off_c, 8, 60, 0
11, 30836, Note_off_c, 8, 57, 0
11, 30840, Note_on_c, 8, 57, 65
11, 30899, Note_off_c, 8, 57, 0
11, 30960, Note_on_c, 8, 57, 78
11, 31017, Note_off_c, 8, 57, 0
11, 31080, Note_on_c, 8, 57, 90
11, 31080, Note_on_c, 8, 60, 98
11, 31142, Note_off_c, 8, 57, 0
11, 31142, Note_off_c, 8, 60, 0
11, 31320, Note_on_c, 8, 57, 80
11, 31379, Note_off_c, 8, 57, 0
11, 31440, Note_on_c, 8, 57, 95
11, 31493, Note_off_c, 8, 57, 0
11, 31680, Note_on_c, 8, 57, 87
11, 31680, Note_on_c, 8, 60, 90
11, 31771, Note_off_c, 8, 60, 0
11, 31796, Note_off_c, 8, 57, 0
11, 31800, Note_on_c, 8, 57, 65
11, 31859, Note_off_c, 8, 57, 0
11, 31920, Note_on_c, 8, 57, 78
11, 31977, Note_off_c, 8, 57, 0
11, 32040, Note_on_c, 8, 57, 90
11, 32040, Note_on_c, 8, 60, 98
11, 32102, Note_off_c, 8, 57, 0
11, 32102, Note_off_c, 8, 60, 0
11, 32280, Note_on_c, 8, 57, 80
11, 32339, Note_off_c, 8, 57, 0
11, 32400, Note_on_c, 8, 57, 95
11, 32453, Note_off_c, 8, 57, 0
11, 32640, Note_on_c, 8, 55, 87
11, 32640, Note_on_c, 8, 59, 90
11, 32731, Note_off_c, 8, 59, 0
11, 32756, Note_off_c, 8, 55, 0
11, 32760, Note_on_c, 8, 55, 65
11, 32819, Note_off_c, 8, 55, 0
11, 32880, Note_on_c, 8, 55, 78
11, 32937, Note_off_c, 8, 55, 0
11, 33000, Note_on_c, 8, 55, 90
11, 33000, Note_on_c, 8, 59, 98
11, 33062, Note_off_c, 8, 55, 0
11, 33062, Note_off_c, 8, 59, 0
11, 33240, Note_on_c, 8, 55, 80
11, 33299, Note_off_c, 8, 55, 0
11, 33360, Note_on_c, 8, 55, 95
11, 33413, Note_off_c, 8, 55, 0
11, 33600, Note_on_c, 8, 53, 87
11, 33600, Note_on_c, 8, 57, 90
11, 33691, Note_off_c, 8, 57, 0
11, 33716, Note_off_c, 8, 53, 0
11, 33720, Note_on_c, 8, 53, 65
11, 33779, Note_off_c, 8, 53, 0
11, 33840, Note_on_c, 8, 53, 78
11, 33897, Note_off_c, 8, 53, 0
11, 33960, Note_on_c, 8, 53, 90
11, 33960, Note_on_c, 8, 57, 98
11, 34022, Note_off_c, 8, 53, 0
11, 34022, Note_off_c, 8, 57, 0
11, 34200, Note_on_c, 8, 53, 80
11, 34259, Note_off_c, 8, 53, 0
11, 34320, Note_on_c, 8, 53, 95
11, 34373, Note_off_c, 8, 53, 0
11, 34560, Note_on_c, 8, 53, 87
11, 34560, Note_on_c, 8, 57, 90
11, 34651, Note_off_c, 8, 57, 0
11, 34676, Note_off_c, 8, 53, 0
11, 34680, Note_on_c, 8, 53, 65
11, 34739, Note_off_c, 8, 53, 0
11, 34800, Note_on_c, 8, 53, 78
11, 34857, Note_off_c, 8, 53, 0
11, 34920, Note_on_c, 8, 53, 90
11, 34920, Note_on_c, 8, 57, 98
11, 34982, Note_off_c, 8, 53, 0
11, 34982, Note_off_c, 8, 57, 0
11, 35160, Note_on_c, 8, 53, 80
11, 35219, Note_off_c, 8, 53, 0
11, 35280, Note_on_c, 8, 53, 95
11, 35333, Note_off_c, 8, 53, 0
11, 35520, Note_on_c, 8, 53, 87
11, 35520, Note_on_c, 8, 57, 90
11, 35611, Note_off_c, 8, 57, 0
11, 35636, Note_off_c, 8, 53, 0
11, 36480, Note_on_c, 8, 55, 87
11, 36480, Note_on_c, 8, 59, 90
11, 36571, Note_off_c, 8, 59, 0
11, 36596, Note_off_c, 8, 55, 0
11, 36600, Note_on_c, 8, 55, 65
11, 36659, Note_off_c, 8, 55, 0
11, 36720, Note_on_c, 8, 55, 78
11, 36777, Note_off_c, 8, 55, 0
11, 36840, Note_on_c, 8, 55, 90
11, 36840, Note_on_c, 8, 59, 98
11, 36902, Note_off_c, 8, 55, 0
11, 36902, Note_off_c, 8, 59, 0
11, 37080, Note_on_c, 8, 55, 80
11, 37139, Note_off_c, 8, 55, 0
11, 37200, Note_on_c, 8, 55, 95
11, 37253, Note_off_c, 8, 55, 0
11, 37440, Note_on_c, 8, 55, 87
11, 37440, Note_on_c, 8, 59, 90
11, 37531, Note_off_c, 8, 59, 0
11, 37556, Note_off_c, 8, 55, 0
11, 37560, Note_on_c, 8, 55, 65
11, 37619, Note_off_c, 8, 55, 0
11, 37680, Note_on_c, 8, 55, 78
11, 37737, Note_off_c, 8, 55, 0
11, 37800, Note_on_c, 8, 55, 90
11, 37800, Note_on_c, 8, 59, 98
11, 37862, Note_off_c, 8, 55, 0
11, 37862, Note_off_c, 8, 59, 0
11, 38040, Note_on_c, 8, 55, 80
11, 38099, Note_off_c, 8, 55, 0
11, 38160, Note_on_c, 8, 55, 95
11, 38213, Note_off_c, 8, 55, 0
11, 38400, Note_on_c, 8, 53, 87
11, 38400, Note_on_c, 8, 57, 90
11, 38491, Note_off_c, 8, 57, 0
11, 38516, Note_off_c, 8, 53, 0
11, 38520, Note_on_c, 8, 53, 65
11, 38579, Note_off_c, 8, 53, 0
11, 38640, Note_on_c, 8, 53, 78
11, 38697, Note_off_c, 8, 53, 0
11, 38760, Note_on_c, 8, 53, 90
11, 38760, Note_on_c, 8, 57, 98
11, 38822, Note_off_c, 8, 53, 0
11, 38822, Note_off_c, 8, 57, 0
11, 39000, Note_on_c, 8, 53, 80
11, 39059, Note_off_c, 8, 53, 0
11, 39120, Note_on_c, 8, 53, 95
11, 39173, Note_off_c, 8, 53, 0
11, 39360, Note_on_c, 8, 53, 87
11, 39360, Note_on_c, 8, 57, 90
11, 39451, Note_off_c, 8, 57, 0
11, 39476, Note_off_c, 8, 53, 0
11, 39480, Note_on_c, 8, 53, 65
11, 39539, Note_off_c, 8, 53, 0
11, 39600, Note_on_c, 8, 53, 78
11, 39657, Note_off_c, 8, 53, 0
11, 39720, Note_on_c, 8, 53, 90
11, 39720, Note_on_c, 8, 57, 98
11, 39782, Note_off_c, 8, 53, 0
11, 39782, Note_off_c, 8, 57, 0
11, 39960, Note_on_c, 8, 53, 80
11, 40019, Note_off_c, 8, 53, 0
11, 40080, Note_on_c, 8, 53, 95
11, 40133, Note_off_c, 8, 53, 0
11, 40320, Note_on_c, 8, 53, 87
11, 40320, Note_on_c, 8, 57, 90
11, 40411, Note_off_c, 8, 57, 0
11, 40436, Note_off_c, 8, 53, 0
11, 40440, Note_on_c, 8, 53, 65
11, 40499, Note_off_c, 8, 53, 0
11, 40560, Note_on_c, 8, 53, 78
11, 40617, Note_off_c, 8, 53, 0
11, 40680, Note_on_c, 8, 53, 90
11, 40680, Note_on_c, 8, 57, 98
11, 40742, Note_off_c, 8, 53, 0
11, 40742, Note_off_c, 8, 57, 0
11, 40920, Note_on_c, 8, 53, 80
11, 40979, Note_off_c, 8, 53, 0
11, 41040, Note_on_c, 8, 53, 95
11, 41093, Note_off_c, 8, 53, 0
11, 41280, Note_on_c, 8, 52, 87
11, 41280, Note_on_c, 8, 55, 90
11, 41371, Note_off_c, 8, 55, 0
11, 41396, Note_off_c, 8, 52, 0
11, 41400, Note_on_c, 8, 52, 65
11, 41459, Note_off_c, 8, 52, 0
11, 41520, Note_on_c, 8, 52, 78
11, 41577, Note_off_c, 8, 52, 0
11, 41640, Note_on_c, 8, 52, 90
11, 41640, Note_on_c, 8, 55, 98
11, 41702, Note_off_c, 8, 52, 0
11, 41702, Note_off_c, 8, 55, 0
11, 41880, Note_on_c, 8, 52, 80
11, 41939, Note_off_c, 8, 52, 0
11, 42000, Note_on_c, 8, 52, 95
11, 42053, Note_off_c, 8, 52, 0
11, 42240, Note_on_c, 8, 55, 87
11, 42240, Note_on_c, 8, 59, 90
11, 42331, Note_off_c, 8, 59, 0
11, 42356, Note_off_c, 8, 55, 0
11, 42360, Note_on_c, 8, 55, 65
11, 42419, Note_off_c, 8, 55, 0
11, 42480, Note_on_c, 8, 55, 78
11, 42537, Note_off_c, 8, 55, 0
11, 42600, Note_on_c, 8, 55, 90
11, 42600, Note_on_c, 8, 59, 98
11, 42662, Note_off_c, 8, 55, 0
11, 42662, Note_off_c, 8, 59, 0
11, 42840, Note_on_c, 8, 55, 80
11, 42899, Note_off_c, 8, 55, 0
11, 42960, Note_on_c, 8, 55, 95
11, 43013, Note_off_c, 8, 55, 0
11, 43200, Note_on_c, 8, 55, 87
11, 43200, Note_on_c, 8, 59, 90
11, 43291, Note_off_c, 8, 59, 0
11, 43316, Note_off_c, 8, 55, 0
11, 43320, Note_on_c, 8, 55, 65
11, 43379, Note_off_c, 8, 55, 0
11, 43440, Note_on_c, 8, 55, 78
11, 43497, Note_off_c, 8, 55, 0
11, 43560, Note_on_c, 8, 55, 90
11, 43560, Note_on_c, 8, 59, 98
11, 43622, Note_off_c, 8, 55, 0
11, 43622, Note_off_c, 8, 59, 0
11, 43800, Note_on_c, 8, 55, 80
11, 43859, Note_off_c, 8, 55, 0
11, 43920, Note_on_c, 8, 55, 95
11, 43973, Note_off_c, 8, 55, 0
11, 44160, Note_on_c, 8, 55, 87
11, 44160, Note_on_c, 8, 59, 90
11, 44251, Note_off_c, 8, 59, 0
11, 44276, Note_off_c, 8, 55, 0
11, 44280, Note_on_c, 8, 55, 65
11, 44339, Note_off_c, 8, 55, 0
11, 44400, Note_on_c, 8, 55, 78
11, 44457, Note_off_c, 8, 55, 0
11, 44520, Note_on_c, 8, 55, 90
11, 44520, Note_on_c, 8, 59, 98
11, 44582, Note_off_c, 8, 55, 0
11, 44582, Note_off_c, 8, 59, 0
11, 44760, Note_on_c, 8, 55, 80
11, 44819, Note_off_c, 8, 55, 0
11, 44880, Note_on_c, 8, 55, 95
11, 44933, Note_off_c, 8, 55, 0
11, 45120, Note_on_c, 8, 55, 87
11, 45120, Note_on_c, 8, 59, 90
11, 45211, Note_off_c, 8, 59, 0
11, 45236, Note_off_c, 8, 55, 0
11, 45240, Note_on_c, 8, 55, 65
11, 45299, Note_off_c, 8, 55, 0
11, 45360, Note_on_c, 8, 55, 78
11, 45417, Note_off_c, 8, 55, 0
11, 45480, Note_on_c, 8, 55, 90
11, 45480, Note_on_c, 8, 59, 98
11, 45542, Note_off_c, 8, 55, 0
11, 45542, Note_off_c, 8, 59, 0
11, 45720, Note_on_c, 8, 55, 80
11, 45779, Note_off_c, 8, 55, 0
11, 45840, Note_on_c, 8, 55, 95
11, 45893, Note_off_c, 8, 55, 0
11, 46080, Note_on_c, 8, 53, 87
11, 46080, Note_on_c, 8, 57, 90
11, 46171, Note_off_c, 8, 57, 0
11, 46196, Note_off_c, 8, 53, 0
11, 46200, Note_on_c, 8, 53, 65
11, 46259, Note_off_c, 8, 53, 0
11, 46320, Note_on_c, 8, 53, 78
11, 46377, Note_off_c, 8, 53, 0
11, 46440, Note_on_c, 8, 53, 90
11, 46440, Note_on_c, 8, 57, 98
11, 46502, Note_off_c, 8, 53, 0
11, 46502, Note_off_c, 8, 57, 0
11, 46680, Note_on_c, 8, 53, 80
11, 46739, Note_off_c, 8, 53, 0
11, 46800, Note_on_c, 8, 53, 95
11, 46853, Note_off_c, 8, 53, 0
11, 47040, Note_on_c, 8, 53, 87
11, 47040, Note_on_c, 8, 57, 90
11, 47131, Note_off_c, 8, 57, 0
11, 47156, Note_off_c, 8, 53, 0
11, 47160, Note_on_c, 8, 53, 65
11, 47219, Note_off_c, 8, 53, 0
11, 47280, Note_on_c, 8, 53, 78
11, 47337, Note_off_c, 8, 53, 0
11, 47400, Note_on_c, 8, 53, 90
11, 47400, Note_on_c, 8, 57, 98
11, 47462, Note_off_c, 8, 53, 0
11, 47462, Note_off_c, 8, 57, 0
11, 47640, Note_on_c, 8, 53, 80
11, 47699, Note_off_c, 8, 53, 0
11, 47760, Note_on_c, 8, 53, 95
11, 47813, Note_off_c, 8, 53, 0
11, 48000, Note_on_c, 8, 53, 87
11, 48000, Note_on_c, 8, 57, 90
11, 48091, Note_off_c, 8, 57, 0
11, 48116, Note_off_c, 8, 53, 0
11, 48120, Note_on_c, 8, 53, 65
11, 48179, Note_off_c, 8, 53, 0
11, 48240, Note_on_c, 8, 53, 78
11, 48297, Note_off_c, 8, 53, 0
11, 48360, Note_on_c, 8, 53, 90
11, 48360, Note_on_c, 8, 57, 98
11, 48422, Note_off_c, 8, 53, 0
11, 48422, Note_off_c, 8, 57, 0
11, 48600, Note_on_c, 8, 53, 80
11, 48659, Note_off_c, 8, 53, 0
11, 48720, Note_on_c, 8, 53, 95
11, 48773, Note_off_c, 8, 53, 0
11, 48960, Note_on_c, 8, 52, 87
11, 48960, Note_on_c, 8, 55, 90
11, 49051, Note_off_c, 8, 55, 0
11, 49076, Note_off_c, 8, 52, 0
11, 49080, Note_on_c, 8, 52, 65
11, 49139, Note_off_c, 8, 52, 0
11, 49200, Note_on_c, 8, 52, 78
11, 49257, Note_off_c, 8, 52, 0
11, 49320, Note_on_c, 8, 52, 90
11, 49320, Note_on_c, 8, 55, 98
11, 49382, Note_off_c, 8, 52, 0
11, 49382, Note_off_c, 8, 55, 0
11, 49560, Note_on_c, 8, 52, 80
11, 49619, Note_off_c, 8, 52, 0
11, 49680, Note_on_c, 8, 52, 95
11, 49733, Note_off_c, 8, 52, 0
11, 49920, Note_on_c, 8, 55, 87
11, 49920, Note_on_c, 8, 59, 90
11, 50011, Note_off_c, 8, 59, 0
11, 50036, Note_off_c, 8, 55, 0
11, 50040, Note_on_c, 8, 55, 65
11, 50099, Note_off_c, 8, 55, 0
11, 50160, Note_on_c, 8, 55, 78
11, 50217, Note_off_c, 8, 55, 0
11, 50280, Note_on_c, 8, 55, 90
11, 50280, Note_on_c, 8, 59, 98
11, 50342, Note_off_c, 8, 55, 0
11, 50342, Note_off_c, 8, 59, 0
11, 50520, Note_on_c, 8, 55, 80
11, 50579, Note_off_c, 8, 55, 0
11, 50640, Note_on_c, 8, 55, 95
11, 50693, Note_off_c, 8, 55, 0
11, 50880, Note_on_c, 8, 55, 87
11, 50880, Note_on_c, 8, 59, 90
11, 50971, Note_off_c, 8, 59, 0
11, 50996, Note_off_c, 8, 55, 0
11, 51840, Note_on_c, 8, 57, 87
11, 51840, Note_on_c, 8, 60, 90
11, 51931, Note_off_c, 8, 60, 0
11, 51956, Note_off_c, 8, 57, 0
11, 51960, Note_on_c, 8, 57, 65
11, 52019, Note_off_c, 8, 57, 0
11, 52080, Note_on_c, 8, 57, 78
11, 52137, Note_off_c, 8, 57, 0
11, 52200, Note_on_c, 8, 57, 90
11, 52200, Note_on_c, 8, 60, 98
11, 52262, Note_off_c, 8, 57, 0
11, 52262, Note_off_c, 8, 60, 0
11, 52440, Note_on_c, 8, 57, 80
11, 52499, Note_off_c, 8, 57, 0
11, 52560, Note_on_c, 8, 57, 95
11, 52613, Note_off_c, 8, 57, 0
11, 52800, Note_on_c, 8, 57, 87
11, 52800, Note_on_c, 8, 60, 90
11, 52891, Note_off_c, 8, 60, 0
11, 52916, Note_off_c, 8, 57, 0
11, 52920, Note_on_c, 8, 57, 65
11, 52979, Note_off_c, 8, 57, 0
11, 53040, Note_on_c, 8, 57, 78
11, 53097, Note_off_c, 8, 57, 0
11, 53160, Note_on_c, 8, 57, 90
11, 53160, Note_on_c, 8, 60, 98
11, 53222, Note_off_c, 8, 57, 0
11, 53222, Note_off_c, 8, 60, 0
11, 53400, Note_on_c, 8, 57, 80
11, 53459, Note_off_c, 8, 57, 0
11, 53520, Note_on_c, 8, 57, 95
11, 53573, Note_off_c, 8, 57, 0
11, 53760, Note_on_c, 8, 57, 87
11, 53760, Note_on_c, 8, 60, 90
11, 53851, Note_off_c, 8, 60, 0
11, 53876, Note_off_c, 8, 57, 0
11, 53880, Note_on_c, 8, 57, 65
11, 53939, Note_off_c, 8, 57, 0
11, 54000, Note_on_c, 8, 57, 78
11, 54057, Note_off_c, 8, 57, 0
11, 54120, Note_on_c, 8, 57, 90
11, 54120, Note_on_c, 8, 60, 98
11, 54182, Note_off_c, 8, 57, 0
11, 54182, Note_off_c, 8, 60, 0
11, 54360, Note_on_c, 8, 57, 80
11, 54419, Note_off_c, 8, 57, 0
11, 54480, Note_on_c, 8, 57, 95
11, 54533, Note_off_c, 8, 57, 0
11, 54720, Note_on_c, 8, 57, 87
11, 54720, Note_on_c, 8, 60, 90
11, 54811, Note_off_c, 8, 60, 0
11, 54836, Note_off_c, 8, 57, 0
11, 54840, Note_on_c, 8, 57, 65
11, 54899, Note_off_c, 8, 57, 0
11, 54960, Note_on_c, 8, 57, 78
11, 55017, Note_off_c, 8, 57, 0
11, 55080, Note_on_c, 8, 57, 90
11, 55080, Note_on_c, 8, 60, 98
11, 55142, Note_off_c, 8, 57, 0
11, 55142, Note_off_c, 8, 60, 0
11, 55320, Note_on_c, 8, 57, 80
11, 55379, Note_off_c, 8, 57, 0
11, 55440, Note_on_c, 8, 57, 95
11, 55493, Note_off_c, 8, 57, 0
11, 55680, Note_on_c, 8, 57, 87
11, 55680, Note_on_c, 8, 60, 90
11, 55771, Note_off_c, 8, 60, 0
11, 55796, Note_off_c, 8, 57, 0
11, 55800, Note_on_c, 8, 57, 65
11, 55859, Note_off_c, 8, 57, 0
11, 55920, Note_on_c, 8, 57, 78
11, 55977, Note_off_c, 8, 57, 0
11, 56040, Note_on_c, 8, 57, 90
11, 56040, Note_on_c, 8, 60, 98
11, 56102, Note_off_c, 8, 57, 0
11, 56102, Note_off_c, 8, 60, 0
11, 56280, Note_on_c, 8, 57, 80
11, 56339, Note_off_c, 8, 57, 0
11, 56400, Note_on_c, 8, 57, 95
11, 56453, Note_off_c, 8, 57, 0
11, 56640, Note_on_c, 8, 57, 87
11, 56640, Note_on_c, 8, 60, 90
11, 56731, Note_off_c, 8, 60, 0
11, 56756, Note_off_c, 8, 57, 0
11, 56760, Note_on_c, 8, 57, 65
11, 56819, Note_off_c, 8, 57, 0
11, 56880, Note_on_c, 8, 57, 78
11, 56937, Note_off_c, 8, 57, 0
11, 57000, Note_on_c, 8, 57, 90
11, 57000, Note_on_c, 8, 60, 98
11, 57062, Note_off_c, 8, 57, 0
11, 57062, Note_off_c, 8, 60, 0
11, 57240, Note_on_c, 8, 57, 80
11, 57299, Note_off_c, 8, 57, 0
11, 57360, Note_on_c, 8, 57, 95
11, 57413, Note_off_c, 8, 57, 0
11, 57600, Note_on_c, 8, 55, 87
11, 57600, Note_on_c, 8, 59, 90
11, 57691, Note_off_c, 8, 59, 0
11, 57716, Note_off_c, 8, 55, 0
11, 57720, Note_on_c, 8, 55, 65
11, 57779, Note_off_c, 8, 55, 0
11, 57840, Note_on_c, 8, 55, 78
11, 57897, Note_off_c, 8, 55, 0
11, 57960, Note_on_c, 8, 55, 90
11, 57960, Note_on_c, 8, 59, 98
11, 58022, Note_off_c, 8, 55, 0
11, 58022, Note_off_c, 8, 59, 0
11, 58200, Note_on_c, 8, 55, 80
11, 58259, Note_off_c, 8, 55, 0
11, 58320, Note_on_c, 8, 55, 95
11, 58373, Note_off_c, 8, 55, 0
11, 58560, Note_on_c, 8, 53, 87
11, 58560, Note_on_c, 8, 57, 90
11, 58651, Note_off_c, 8, 57, 0
11, 58676, Note_off_c, 8, 53, 0
11, 58680, Note_on_c, 8, 53, 65
11, 58739, Note_off_c, 8, 53, 0
11, 58800, Note_on_c, 8, 53, 78
11, 58857, Note_off_c, 8, 53, 0
11, 58920, Note_on_c, 8, 53, 90
11, 58920, Note_on_c, 8, 57, 98
11, 58982, Note_off_c, 8, 53, 0
11, 58982, Note_off_c, 8, 57, 0
11, 59160, Note_on_c, 8, 53, 80
11, 59219, Note_off_c, 8, 53, 0
11, 59280, Note_on_c, 8, 53, 95
11, 59333, Note_off_c, 8, 53, 0
11, 59520, Note_on_c, 8, 53, 87
11, 59520, Note_on_c, 8, 57, 90
11, 59611, Note_off_c, 8, 57, 0
11, 59636, Note_off_c, 8, 53, 0
11, 59640, Note_on_c, 8, 53, 65
11, 59699, Note_off_c, 8, 53, 0
11, 59760, Note_on_c, 8, 53, 78
11, 59817, Note_off_c, 8, 53, 0
11, 59880, Note_on_c, 8, 53, 90
11, 59880, Note_on_c, 8, 57, 98
11, 59942, Note_off_c, 8, 53, 0
11, 59942, Note_off_c, 8, 57, 0
11, 60120, Note_on_c, 8, 53, 80
11, 60179, Note_off_c, 8, 53, 0
11, 60240, Note_on_c, 8, 53, 95
11, 60293, Note_off_c, 8, 53, 0
11, 60480, Note_on_c, 8, 53, 87
11, 60480, Note_on_c, 8, 57, 90
11, 60571, Note_off_c, 8, 57, 0
11, 60596, Note_off_c, 8, 53, 0
11, 60600, Note_on_c, 8, 53, 65
11, 60659, Note_off_c, 8, 53, 0
11, 60720, Note_on_c, 8, 53, 78
11, 60777, Note_off_c, 8, 53, 0
11, 60840, Note_on_c, 8, 53, 90
11, 60840, Note_on_c, 8, 57, 98
11, 60902, Note_off_c, 8, 53, 0
11, 60902, Note_off_c, 8, 57, 0
11, 61080, Note_on_c, 8, 53, 80
11, 61139, Note_off_c, 8, 53, 0
11, 61200, Note_on_c, 8, 53, 95
11, 61253, Note_off_c, 8, 53, 0
11, 61440, Note_on_c, 8, 57, 87
11, 61440, Note_on_c, 8, 60, 90
11, 61531, Note_off_c, 8, 60, 0
11, 61556, Note_off_c, 8, 57, 0
11, 61560, Note_on_c, 8, 57, 65
11, 61619, Note_off_c, 8, 57, 0
11, 61680, Note_on_c, 8, 57, 78
11, 61737, Note_off_c, 8, 57, 0
11, 61800, Note_on_c, 8, 57, 90
11, 61800, Note_on_c, 8, 60, 98
11, 61862, Note_off_c, 8, 57, 0
11, 61862, Note_off_c, 8, 60, 0
11, 62040, Note_on_c, 8, 57, 80
11, 62099, Note_off_c, 8, 57, 0
11, 62160, Note_on_c, 8, 57, 95
11, 62213, Note_off_c, 8, 57, 0
11, 62400, Note_on_c, 8, 57, 87
11, 62400, Note_on_c, 8, 60, 90
11, 62491, Note_off_c, 8, 60, 0
11, 62516, Note_off_c, 8, 57, 0
11, 62520, Note_on_c, 8, 57, 65
11, 62579, Note_off_c, 8, 57, 0
11, 62640, Note_on_c, 8, 57, 78
11, 62697, Note_off_c, 8, 57, 0
11, 62760, Note_on_c, 8, 57, 90
11, 62760, Note_on_c, 8, 60, 98
11, 62822, Note_off_c, 8, 57, 0
11, 62822, Note_off_c, 8, 60, 0
11, 63000, Note_on_c, 8, 57, 80
11, 63059, Note_off_c, 8, 57, 0
11, 63120, Note_on_c, 8, 57, 95
11, 63173, Note_off_c, 8, 57, 0
11, 63360, Note_on_c, 8, 57, 87
11, 63360, Note_on_c, 8, 60, 90
11, 63451, Note_off_c, 8, 60, 0
11, 63476, Note_off_c, 8, 57, 0
11, 63480, Note_on_c, 8, 57, 65
11, 63539, Note_off_c, 8, 57, 0
11, 63600, Note_on_c, 8, 57, 78
11, 63657, Note_off_c, 8, 57, 0
11, 63720, Note_on_c, 8, 57, 90
11, 63720, Note_on_c, 8, 60, 98
11, 63782, Note_off_c, 8, 57, 0
11, 63782, Note_off_c, 8, 60, 0
11, 63960, Note_on_c, 8, 57, 80
11, 64019, Note_off_c, 8, 57, 0
11, 64080, Note_on_c, 8, 57, 95
11, 64133, Note_off_c, 8, 57, 0
11, 64320, Note_on_c, 8, 57, 87
11, 64320, Note_on_c, 8, 60, 90
11, 64411, Note_off_c, 8, 60, 0
11, 64436, Note_off_c, 8, 57, 0
11, 64440, Note_on_c, 8, 57, 65
11, 64499, Note_off_c, 8, 57, 0
11, 64560, Note_on_c, 8, 57, 78
11, 64617, Note_off_c, 8, 57, 0
11, 64680, Note_on_c, 8, 57, 90
11, 64680, Note_on_c, 8, 60, 98
11, 64742, Note_off_c, 8, 57, 0
11, 64742, Note_off_c, 8, 60, 0
11, 64920, Note_on_c, 8, 57, 80
11, 64979, Note_off_c, 8, 57, 0
11, 65040, Note_on_c, 8, 57, 95
11, 65093, Note_off_c, 8, 57, 0
11, 65280, Note_on_c, 8, 57, 87
11, 65280, Note_on_c, 8, 60, 90
11, 65371, Note_off_c, 8, 60, 0
11, 65396, Note_off_c, 8, 57, 0
11, 65400, Note_on_c, 8, 57, 65
11, 65459, Note_off_c, 8, 57, 0
11, 65520, Note_on_c, 8, 57, 78
11, 65577, Note_off_c, 8, 57, 0
11, 65640, Note_on_c, 8, 57, 90
11, 65640, Note_on_c, 8, 60, 98
11, 65702, Note_off_c, 8, 57, 0
11, 65702, Note_off_c, 8, 60, 0
11, 65880, Note_on_c, 8, 57, 80
11, 65939, Note_off_c, 8, 57, 0
11, 66000, Note_on_c, 8, 57, 95
11, 66053, Note_off_c, 8, 57, 0
11, 66240, Note_on_c, 8, 57, 87
11, 66240, Note_on_c, 8, 60, 90
11, 66331, Note_off_c, 8, 60, 0
11, 66356, Note_off_c, 8, 57, 0
11, 66360, Note_on_c, 8, 57, 65
11, 66419, Note_off_c, 8, 57, 0
11, 66480, Note_on_c, 8, 57, 78
11, 66537, Note_off_c, 8, 57, 0
11, 66600, Note_on_c, 8, 57, 90
11, 66600, Note_on_c, 8, 60, 98
11, 66662, Note_off_c, 8, 57, 0
11, 66662, Note_off_c, 8, 60, 0
11, 66840, Note_on_c, 8, 57, 80
11, 66899, Note_off_c, 8, 57, 0
11, 66960, Note_on_c, 8, 57, 95
11, 67013, Note_off_c, 8, 57, 0
11, 67200, Note_on_c, 8, 55, 87
11, 67200, Note_on_c, 8, 59, 90
11, 67291, Note_off_c, 8, 59, 0
11, 67316, Note_off_c, 8, 55, 0
11, 67320, Note_on_c, 8, 55, 65
11, 67379, Note_off_c, 8, 55, 0
11, 67440, Note_on_c, 8, 55, 78
11, 67497, Note_off_c, 8, 55, 0
11, 67560, Note_on_c, 8, 55, 90
11, 67560, Note_on_c, 8, 59, 98
11, 67622, Note_off_c, 8, 55, 0
11, 67622, Note_off_c, 8, 59, 0
11, 67800, Note_on_c, 8, 55, 80
11, 67859, Note_off_c, 8, 55, 0
11, 67920, Note_on_c, 8, 55, 95
11, 67973, Note_off_c, 8, 55, 0
11, 68160, Note_on_c, 8, 53, 87
11, 68160, Note_on_c, 8, 57, 90
11, 68251, Note_off_c, 8, 57, 0
11, 68276, Note_off_c, 8, 53, 0
11, 68280, Note_on_c, 8, 53, 65
11, 68339, Note_off_c, 8, 53, 0
11, 68400, Note_on_c, 8, 53, 78
11, 68457, Note_off_c, 8, 53, 0
11, 68520, Note_on_c, 8, 53, 90
11, 68520, Note_on_c, 8, 57, 98
11, 68582, Note_off_c, 8, 53, 0
11, 68582, Note_off_c, 8, 57, 0
11, 68760, Note_on_c, 8, 53, 80
11, 68819, Note_off_c, 8, 53, 0
11, 68880, Note_on_c, 8, 53, 95
11, 68933, Note_off_c, 8, 53, 0
11, 69120, Note_on_c, 8, 53, 87
11, 69120, Note_on_c, 8, 57, 90
11, 69211, Note_off_c, 8, 57, 0
11, 69236, Note_off_c, 8, 53, 0
11, 69240, Note_on_c, 8, 53, 65
11, 69299, Note_off_c, 8, 53, 0
11, 69360, Note_on_c, 8, 53, 78
11, 69417, Note_off_c, 8, 53, 0
11, 69480, Note_on_c, 8, 53, 90
11, 69480, Note_on_c, 8, 57, 98
11, 69542, Note_off_c, 8, 53, 0
11, 69542, Note_off_c, 8, 57, 0
11, 69720, Note_on_c, 8, 53, 80
11, 69779, Note_off_c, 8, 53, 0
11, 69840, Note_on_c, 8, 53, 95
11, 69893, Note_off_c, 8, 53, 0
11, 70080, Note_on_c, 8, 53, 87
11, 70080, Note_on_c, 8, 57, 90
11, 70171, Note_off_c, 8, 57, 0
11, 70196, Note_off_c, 8, 53, 0
11, 71040, Note_on_c, 8, 55, 87
11, 71040, Note_on_c, 8, 59, 90
11, 71131, Note_off_c, 8, 59, 0
11, 71156, Note_off_c, 8, 55, 0
11, 71160, Note_on_c, 8, 55, 65
11, 71219, Note_off_c, 8, 55, 0
11, 71280, Note_on_c, 8, 55, 78
11, 71337, Note_off_c, 8, 55, 0
11, 71400, Note_on_c, 8, 55, 90
11, 71400, Note_on_c, 8, 59, 98
11, 71462, Note_off_c, 8, 55, 0
11, 71462, Note_off_c, 8, 59, 0
11, 71640, Note_on_c, 8, 55, 80
11, 71699, Note_off_c, 8, 55, 0
11, 71760, Note_on_c, 8, 55, 95
11, 71813, Note_off_c, 8, 55, 0
11, 72000, Note_on_c, 8, 55, 87
11, 72000, Note_on_c, 8, 59, 90
11, 72091, Note_off_c, 8, 59, 0
11, 72116, Note_off_c, 8, 55, 0
11, 72120, Note_on_c, 8, 55, 65
11, 72179, Note_off_c, 8, 55, 0
11, 72240, Note_on_c, 8, 55, 78
11, 72297, Note_off_c, 8, 55, 0
11, 72360, Note_on_c, 8, 55, 90
11, 72360, Note_on_c, 8, 59, 98
11, 72422, Note_off_c, 8, 55, 0
11, 72422, Note_off_c, 8, 59, 0
11, 72600, Note_on_c, 8, 55, 80
11, 72659, Note_off_c, 8, 55, 0
11, 72720, Note_on_c, 8, 55, 95
11, 72773, Note_off_c, 8, 55, 0
11, 72960, Note_on_c, 8, 53, 87
11, 72960, Note_on_c, 8, 57, 90
11, 73051, Note_off_c, 8, 57, 0
11, 73076, Note_off_c, 8, 53, 0
11, 73080, Note_on_c, 8, 53, 65
11, 73139, Note_off_c, 8, 53, 0
11, 73200, Note_on_c, 8, 53, 78
11, 73257, Note_off_c, 8, 53, 0
11, 73320, Note_on_c, 8, 53, 90
11, 73320, Note_on_c, 8, 57, 98
11, 73382, Note_off_c, 8, 53, 0
11, 73382, Note_off_c, 8, 57, 0
11, 73560, Note_on_c, 8, 53, 80
11, 73619, Note_off_c, 8, 53, 0
11, 73680, Note_on_c, 8, 53, 95
11, 73733, Note_off_c, 8, 53, 0
11, 73920, Note_on_c, 8, 53, 87
11, 73920, Note_on_c, 8, 57, 90
11, 74011, Note_off_c, 8, 57, 0
11, 74036, Note_off_c, 8, 53, 0
11, 74040, Note_on_c, 8, 53, 65
11, 74099, Note_off_c, 8, 53, 0
11, 74160, Note_on_c, 8, 53, 78
11, 74217, Note_off_c, 8, 53, 0
11, 74280, Note_on_c, 8, 53, 90
11, 74280, Note_on_c, 8, 57, 98
11, 74342, Note_off_c, 8, 53, 0
11, 74342, Note_off_c, 8, 57, 0
11, 74520, Note_on_c, 8, 53, 80
11, 74579, Note_off_c, 8, 53, 0
11, 74640, Note_on_c, 8, 53, 95
11, 74693, Note_off_c, 8, 53, 0
11, 74880, Note_on_c, 8, 53, 87
11, 74880, Note_on_c, 8, 57, 90
11, 74971, Note_off_c, 8, 57, 0
11, 74996, Note_off_c, 8, 53, 0
11, 75000, Note_on_c, 8, 53, 65
11, 75059, Note_off_c, 8, 53, 0
11, 75120, Note_on_c, 8, 53, 78
11, 75177, Note_off_c, 8, 53, 0
11, 75240, Note_on_c, 8, 53, 90
11, 75240, Note_on_c, 8, 57, 98
11, 75302, Note_off_c, 8, 53, 0
11, 75302, Note_off_c, 8, 57, 0
11, 75480, Note_on_c, 8, 53, 80
11, 75539, Note_off_c, 8, 53, 0
11, 75600, Note_on_c, 8, 53, 95
11, 75653, Note_off_c, 8, 53, 0
11, 75840, Note_on_c, 8, 52, 87
11, 75840, Note_on_c, 8, 55, 90
11, 75931, Note_off_c, 8, 55, 0
11, 75956, Note_off_c, 8, 52, 0
11, 75960, Note_on_c, 8, 52, 65
11, 76019, Note_off_c, 8, 52, 0
11, 76080, Note_on_c, 8, 52, 78
11, 76137, Note_off_c, 8, 52, 0
11, 76200, Note_on_c, 8, 52, 90
11, 76200, Note_on_c, 8, 55, 98
11, 76262, Note_off_c, 8, 52, 0
11, 76262, Note_off_c, 8, 55, 0
11, 76440, Note_on_c, 8, 52, 80
11, 76499, Note_off_c, 8, 52, 0
11, 76560, Note_on_c, 8, 52, 95
11, 76613, Note_off_c, 8, 52, 0
11, 76800, Note_on_c, 8, 55, 87
11, 76800, Note_on_c, 8, 59, 90
11, 76891, Note_off_c, 8, 59, 0
11, 76916, Note_off_c, 8, 55, 0
11, 76920, Note_on_c, 8, 55, 65
11, 76979, Note_off_c, 8, 55, 0
11, 77040, Note_on_c, 8, 55, 78
11, 77097, Note_off_c, 8, 55, 0
11, 77160, Note_on_c, 8, 55, 90
11, 77160, Note_on_c, 8, 59, 98
11, 77222, Note_off_c, 8, 55, 0
11, 77222, Note_off_c, 8, 59, 0
11, 77400, Note_on_c, 8, 55, 80
11, 77459, Note_off_c, 8, 55, 0
11, 77520, Note_on_c, 8, 55, 95
11, 77573, Note_off_c, 8, 55, 0
11, 77760, Note_on_c, 8, 55, 87
11, 77760, Note_on_c, 8, 59, 90
11, 77851, Note_off_c, 8, 59, 0
11, 77876, Note_off_c, 8, 55, 0
11, 77880, Note_on_c, 8, 55, 65
11, 77939, Note_off_c, 8, 55, 0
11, 78000, Note_on_c, 8, 55, 78
11, 78057, Note_off_c, 8, 55, 0
11, 78120, Note_on_c, 8, 55, 90
11, 78120, Note_on_c, 8, 59, 98
11, 78182, Note_off_c, 8, 55, 0
11, 78182, Note_off_c, 8, 59, 0
11, 78360, Note_on_c, 8, 55, 80
11, 78419, Note_off_c, 8, 55, 0
11, 78480, Note_on_c, 8, 55, 95
11, 78533, Note_off_c, 8, 55, 0
11, 78720, Note_on_c, 8, 55, 87
11, 78720, Note_on_c, 8, 59, 90
11, 78811, Note_off_c, 8, 59, 0
11, 78836, Note_off_c, 8, 55, 0
11, 78840, Note_on_c, 8, 55, 65
11, 78899, Note_off_c, 8, 55, 0
11, 78960, Note_on_c, 8, 55, 78
11, 79017, Note_off_c, 8, 55, 0
11, 79080, Note_on_c, 8, 55, 90
11, 79080, Note_on_c, 8, 59, 98
11, 79142, Note_off_c, 8, 55, 0
11, 79142, Note_off_c, 8, 59, 0
11, 79320, Note_on_c, 8, 55, 80
11, 79379, Note_off_c, 8, 55, 0
11, 79440, Note_on_c, 8, 55, 95
11, 79493, Note_off_c, 8, 55, 0
11, 79680, Note_on_c, 8, 55, 87
11, 79680, Note_on_c, 8, 59, 90
11, 79771, Note_off_c, 8, 59, 0
11, 79796, Note_off_c, 8, 55, 0
11, 79800, Note_on_c, 8, 55, 65
11, 79859, Note_off_c, 8, 55, 0
11, 79920, Note_on_c, 8, 55, 78
11, 79977, Note_off_c, 8, 55, 0
11, 80040, Note_on_c, 8, 55, 90
11, 80040, Note_on_c, 8, 59, 98
11, 80102, Note_off_c, 8, 55, 0
11, 80102, Note_off_c, 8, 59, 0
11, 80280, Note_on_c, 8, 55, 80
11, 80339, Note_off_c, 8, 55, 0
11, 80400, Note_on_c, 8, 55, 95
11, 80453, Note_off_c, 8, 55, 0
11, 80640, Note_on_c, 8, 53, 87
11, 80640, Note_on_c, 8, 57, 90
11, 80731, Note_off_c, 8, 57, 0
11, 80756, Note_off_c, 8, 53, 0
11, 80760, Note_on_c, 8, 53, 65
11, 80819, Note_off_c, 8, 53, 0
11, 80880, Note_on_c, 8, 53, 78
11, 80937, Note_off_c, 8, 53, 0
11, 81000, Note_on_c, 8, 53, 90
11, 81000, Note_on_c, 8, 57, 98
11, 81062, Note_off_c, 8, 53, 0
11, 81062, Note_off_c, 8, 57, 0
11, 81240, Note_on_c, 8, 53, 80
11, 81299, Note_off_c, 8, 53, 0
11, 81360, Note_on_c, 8, 53, 95
11, 81413, Note_off_c, 8, 53, 0
11, 81600, Note_on_c, 8, 53, 87
11, 81600, Note_on_c, 8, 57, 90
11, 81691, Note_off_c, 8, 57, 0
11, 81716, Note_off_c, 8, 53, 0
11, 81720, Note_on_c, 8, 53, 65
11, 81779, Note_off_c, 8, 53, 0
11, 81840, Note_on_c, 8, 53, 78
11, 81897, Note_off_c, 8, 53, 0
11, 81960, Note_on_c, 8, 53, 90
11, 81960, Note_on_c, 8, 57, 98
11, 82022, Note_off_c, 8, 53, 0
11, 82022, Note_off_c, 8, 57, 0
11, 82200, Note_on_c, 8, 53, 80
11, 82259, Note_off_c, 8, 53, 0
11, 82320, Note_on_c, 8, 53, 95
11, 82373, Note_off_c, 8, 53, 0
11, 82560, Note_on_c, 8, 53, 87
11, 82560, Note_on_c, 8, 57, 90
11, 82651, Note_off_c, 8, 57, 0
11, 82676, Note_off_c, 8, 53, 0
11, 82680, Note_on_c, 8, 53, 65
11, 82739, Note_off_c, 8, 53, 0
11, 82800, Note_on_c, 8, 53, 78
11, 82857, Note_off_c, 8, 53, 0
11, 82920, Note_on_c, 8, 53, 90
11, 82920, Note_on_c, 8, 57, 98
11, 82982, Note_off_c, 8, 53, 0
11, 82982, Note_off_c, 8, 57, 0
11, 83160, Note_on_c, 8, 53, 80
11, 83219, Note_off_c, 8, 53, 0
11, 83280, Note_on_c, 8, 53, 95
11, 83333, Note_off_c, 8, 53, 0
11, 83520, Note_on_c, 8, 52, 87
11, 83520, Note_on_c, 8, 55, 90
11, 83611, Note_off_c, 8, 55, 0
11, 83636, Note_off_c, 8, 52, 0
11, 83640, Note_on_c, 8, 52, 65
11, 83699, Note_off_c, 8, 52, 0
11, 83760, Note_on_c, 8, 52, 78
11, 83817, Note_off_c, 8, 52, 0
11, 83880, Note_on_c, 8, 52, 90
11, 83880, Note_on_c, 8, 55, 98
11, 83942, Note_off_c, 8, 52, 0
11, 83942, Note_off_c, 8, 55, 0
11, 84120, Note_on_c, 8, 52, 80
11, 84179, Note_off_c, 8, 52, 0
11, 84240, Note_on_c, 8, 52, 95
11, 84293, Note_off_c, 8, 52, 0
11, 84480, Note_on_c, 8, 55, 87
11, 84480, Note_on_c, 8, 59, 90
11, 84571, Note_off_c, 8, 59, 0
11, 84596, Note_off_c, 8, 55, 0
11, 84600, Note_on_c, 8, 55, 65
11, 84659, Note_off_c, 8, 55, 0
11, 84720, Note_on_c, 8, 55, 78
11, 84777, Note_off_c, 8, 55, 0
11, 84840, Note_on_c, 8, 55, 90
11, 84840, Note_on_c, 8, 59, 98
11, 84902, Note_off_c, 8, 55, 0
11, 84902, Note_off_c, 8, 59, 0
11, 85080, Note_on_c, 8, 55, 80
11, 85139, Note_off_c, 8, 55, 0
11, 85200, Note_on_c, 8, 55, 95
11, 85253, Note_off_c, 8, 55, 0
11, 85440, Note_on_c, 8, 55, 87
11, 85440, Note_on_c, 8, 59, 90
11, 85531, Note_off_c, 8, 59, 0
11, 85556, Note_off_c, 8, 55, 0
11, 86400, Note_on_c, 8, 57, 87
11, 86400, Note_on_c, 8, 60, 90
11, 86491, Note_off_c, 8, 60, 0
11, 86516, Note_off_c, 8, 57, 0
11, 86520, Note_on_c, 8, 57, 65
11, 86579, Note_off_c, 8, 57, 0
11, 86640, Note_on_c, 8, 57, 78
11, 86697, Note_off_c, 8, 57, 0
11, 86760, Note_on_c, 8, 57, 90
11, 86760, Note_on_c, 8, 60, 98
11, 86822, Note_off_c, 8, 57, 0
11, 86822, Note_off_c, 8, 60, 0
11, 87000, Note_on_c, 8, 57, 80
11, 87059, Note_off_c, 8, 57, 0
11, 87120, Note_on_c, 8, 57, 95
11, 87173, Note_off_c, 8, 57, 0
11, 87360, Note_on_c, 8, 57, 87
11, 87360, Note_on_c, 8, 60, 90
11, 87451, Note_off_c, 8, 60, 0
11, 87476, Note_off_c, 8, 57, 0
11, 87480, Note_on_c, 8, 57, 65
11, 87539, Note_off_c, 8, 57, 0
11, 87600, Note_on_c, 8, 57, 78
11, 87657, Note_off_c, 8, 57, 0
11, 87720, Note_on_c, 8, 57, 90
11, 87720, Note_on_c, 8, 60, 98
11, 87782, Note_off_c, 8, 57, 0
11, 87782, Note_off_c, 8, 60, 0
11, 87960, Note_on_c, 8, 57, 80
11, 88019, Note_off_c, 8, 57, 0
11, 88080, Note_on_c, 8, 57, 95
11, 88133, Note_off_c, 8, 57, 0
11, 88320, Note_on_c, 8, 57, 87
11, 88320, Note_on_c, 8, 60, 90
11, 88411, Note_off_c, 8, 60, 0
11, 88436, Note_off_c, 8, 57, 0
11, 88440, Note_on_c, 8, 57, 65
11, 88499, Note_off_c, 8, 57, 0
11, 88560, Note_on_c, 8, 57, 78
11, 88617, Note_off_c, 8, 57, 0
11, 88680, Note_on_c, 8, 57, 90
11, 88680, Note_on_c, 8, 60, 98
11, 88742, Note_off_c, 8, 57, 0
11, 88742, Note_off_c, 8, 60, 0
11, 88920, Note_on_c, 8, 57, 80
11, 88979, Note_off_c, 8, 57, 0
11, 89040, Note_on_c, 8, 57, 95
11, 89093, Note_off_c, 8, 57, 0
11, 89280, Note_on_c, 8, 57, 87
11, 89280, Note_on_c, 8, 60, 90
11, 89371, Note_off_c, 8, 60, 0
11, 89396, Note_off_c, 8, 57, 0
11, 89400, Note_on_c, 8, 57, 65
11, 89459, Note_off_c, 8, 57, 0
11, 89520, Note_on_c, 8, 57, 78
11, 89577, Note_off_c, 8, 57, 0
11, 89640, Note_on_c, 8, 57, 90
11, 89640, Note_on_c, 8, 60, 98
11, 89702, Note_off_c, 8, 57, 0
11, 89702, Note_off_c, 8, 60, 0
11, 89880, Note_on_c, 8, 57, 80
11, 89939, Note_off_c, 8, 57, 0
11, 90000, Note_on_c, 8, 57, 95
11, 90053, Note_off_c, 8, 57, 0
11, 90240, Note_on_c, 8, 55, 87
11, 90240, Note_on_c, 8, 59, 90
11, 90331, Note_off_c, 8, 59, 0
11, 90356, Note_off_c, 8, 55, 0
11, 90360, Note_on_c, 8, 55, 65
11, 90419, Note_off_c, 8, 55, 0
11, 90480, Note_on_c, 8, 55, 78
11, 90537, Note_off_c, 8, 55, 0
11, 90600, Note_on_c, 8, 55, 90
11, 90600, Note_on_c, 8, 59, 98
11, 90662, Note_off_c, 8, 55, 0
11, 90662, Note_off_c, 8, 59, 0
11, 90840, Note_on_c, 8, 55, 80
11, 90899, Note_off_c, 8, 55, 0
11, 90960, Note_on_c, 8, 55, 95
11, 91013, Note_off_c, 8, 55, 0
11, 91200, Note_on_c, 8, 53, 87
11, 91200, Note_on_c, 8, 57, 90
11, 91291, Note_off_c, 8, 57, 0
11, 91316, Note_off_c, 8, 53, 0
11, 91320, Note_on_c, 8, 53, 65
11, 91379, Note_off_c, 8, 53, 0
11, 91440, Note_on_c, 8, 53, 78
11, 91497, Note_off_c, 8, 53, 0
11, 91560, Note_on_c, 8, 53, 90
11, 91560, Note_on_c, 8, 57, 98
11, 91622, Note_off_c, 8, 53, 0
11, 91622, Note_off_c, 8, 57, 0
11, 91800, Note_on_c, 8, 53, 80
11, 91859, Note_off_c, 8, 53, 0
11, 91920, Note_on_c, 8, 53, 95
11, 91973, Note_off_c, 8, 53, 0
11, 92160, Note_on_c, 8, 55, 87
11, 92160, Note_on_c, 8, 60, 90
11, 92251, Note_off_c, 8, 60, 0
11, 92276, Note_off_c, 8, 55, 0
11, 92280, Note_on_c, 8, 55, 65
11, 92339, Note_off_c, 8, 55, 0
11, 92400, Note_on_c, 8, 55, 78
11, 92457, Note_off_c, 8, 55, 0
11, 92520, Note_on_c, 8, 55, 90
11, 92520, Note_on_c, 8, 60, 98
11, 92582, Note_off_c, 8, 55, 0
11, 92582, Note_off_c, 8, 60, 0
11, 92760, Note_on_c, 8, 55, 80
11, 92819, Note_off_c, 8, 55, 0
11, 92880, Note_on_c, 8, 55, 95
11, 92933, Note_off_c, 8, 55, 0
11, 93120, Note_on_c, 8, 55, 87
11, 93120, Note_on_c, 8, 60, 90
11, 93211, Note_off_c, 8, 60, 0
11, 93236, Note_off_c, 8, 55, 0
11, 93240, Note_on_c, 8, 55, 65
11, 93299, Note_off_c, 8, 55, 0
11, 93360, Note_on_c, 8, 55, 78
11, 93417, Note_off_c, 8, 55, 0
11, 93480, Note_on_c, 8, 55, 90
11, 93480, Note_on_c, 8, 60, 98
11, 93542, Note_off_c, 8, 55, 0
11, 93542, Note_off_c, 8, 60, 0
11, 93720, Note_on_c, 8, 55, 80
11, 93779, Note_off_c, 8, 55, 0
11, 93840, Note_on_c, 8, 55, 95
11, 93893, Note_off_c, 8, 55, 0
11, 94080, Note_on_c, 8, 57, 87
11, 94080, Note_on_c, 8, 60, 90
11, 94171, Note_off_c, 8, 60, 0
11, 94196, Note_off_c, 8, 57, 0
11, 94200, Note_on_c, 8, 57, 65
11, 94259, Note_off_c, 8, 57, 0
11, 94320, Note_on_c, 8, 57, 78
11, 94377, Note_off_c, 8, 57, 0
11, 94440, Note_on_c, 8, 57, 90
11, 94440, Note_on_c, 8, 60, 98
11, 94502, Note_off_c, 8, 57, 0
11, 94502, Note_off_c, 8, 60, 0
11, 94680, Note_on_c, 8, 57, 80
11, 94739, Note_off_c, 8, 57, 0
11, 94800, Note_on_c, 8, 57, 95
11, 94853, Note_off_c, 8, 57, 0
11, 95040, Note_on_c, 8, 57, 87
11, 95040, Note_on_c, 8, 60, 90
11, 95131, Note_off_c, 8, 60, 0
11, 95156, Note_off_c, 8, 57, 0
11, 95160, Note_on_c, 8, 57, 65
11, 95219, Note_off_c, 8, 57, 0
11, 95280, Note_on_c, 8, 57, 78
11, 95337, Note_off_c, 8, 57, 0
11, 95400, Note_on_c, 8, 57, 90
11, 95400, Note_on_c, 8, 60, 98
11, 95462, Note_off_c, 8, 57, 0
11, 95462, Note_off_c, 8, 60, 0
11, 95640, Note_on_c, 8, 57, 80
11, 95699, Note_off_c, 8, 57, 0
11, 95760, Note_on_c, 8, 57, 95
11, 95813, Note_off_c, 8, 57, 0
11, 96000, Note_on_c, 8, 57, 87
11, 96000, Note_on_c, 8, 60, 90
11, 96091, Note_off_c, 8, 60, 0
11, 96116, Note_off_c, 8, 57, 0
11, 96120, Note_on_c, 8, 57, 65
11, 96179, Note_off_c, 8, 57, 0
11, 96240, Note_on_c, 8, 57, 78
11, 96297, Note_off_c, 8, 57, 0
11, 96360, Note_on_c, 8, 57, 90
11, 96360, Note_on_c, 8, 60, 98
11, 96422, Note_off_c, 8, 57, 0
11, 96422, Note_off_c, 8, 60, 0
11, 96600, Note_on_c, 8, 57, 80
11, 96659, Note_off_c, 8, 57, 0
11, 96720, Note_on_c, 8, 57, 95
11, 96773, Note_off_c, 8, 57, 0
11, 96960, Note_on_c, 8, 57, 87
11, 96960, Note_on_c, 8, 60, 90
11, 97051, Note_off_c, 8, 60, 0
11, 97076, Note_off_c, 8, 57, 0
11, 97080, Note_on_c, 8, 57, 65
11, 97139, Note_off_c, 8, 57, 0
11, 97200, Note_on_c, 8, 57, 78
11, 97257, Note_off_c, 8, 57, 0
11, 97320, Note_on_c, 8, 57, 90
11, 97320, Note_on_c, 8, 60, 98
11, 97382, Note_off_c, 8, 57, 0
11, 97382, Note_off_c, 8, 60, 0
11, 97560, Note_on_c, 8, 57, 80
11, 97619, Note_off_c, 8, 57, 0
11, 97680, Note_on_c, 8, 57, 95
11, 97733, Note_off_c, 8, 57, 0
11, 97920, Note_on_c, 8, 55, 87
11, 97920, Note_on_c, 8, 59, 90
11, 98011, Note_off_c, 8, 59, 0
11, 98036, Note_off_c, 8, 55, 0
11, 98040, Note_on_c, 8, 55, 65
11, 98099, Note_off_c, 8, 55, 0
11, 98160, Note_on_c, 8, 55, 78
11, 98217, Note_off_c, 8, 55, 0
11, 98280, Note_on_c, 8, 55, 90
11, 98280, Note_on_c, 8, 59, 98
11, 98342, Note_off_c, 8, 55, 0
11, 98342, Note_off_c, 8, 59, 0
11, 98520, Note_on_c, 8, 55, 80
11, 98579, Note_off_c, 8, 55, 0
11, 98640, Note_on_c, 8, 55, 95
11, 98693, Note_off_c, 8, 55, 0
11, 98880, Note_on_c, 8, 53, 87
11, 98880, Note_on_c, 8, 57, 90
11, 98971, Note_off_c, 8, 57, 0
11, 98996, Note_off_c, 8, 53, 0
11, 99000, Note_on_c, 8, 53, 65
11, 99059, Note_off_c, 8, 53, 0
11, 99120, Note_on_c, 8, 53, 78
11, 99177, Note_off_c, 8, 53, 0
11, 99240, Note_on_c, 8, 53, 90
11, 99240, Note_on_c, 8, 57, 98
11, 99302, Note_off_c, 8, 53, 0
11, 99302, Note_off_c, 8, 57, 0
11, 99480, Note_on_c, 8, 53, 80
11, 99539, Note_off_c, 8, 53, 0
11, 99600, Note_on_c, 8, 53, 95
11, 99653, Note_off_c, 8, 53, 0
11, 99840, Note_on_c, 8, 55, 87
11, 99840, Note_on_c, 8, 59, 90
11, 99931, Note_off_c, 8, 59, 0
11, 99956, Note_off_c, 8, 55, 0
11, 99960, Note_on_c, 8, 55, 65
11, 100019, Note_off_c, 8, 55, 0
11, 100080, Note_on_c, 8, 55, 78
11, 100137, Note_off_c, 8, 55, 0
11, 100200, Note_on_c, 8, 55, 90
11, 100200, Note_on_c, 8, 59, 98
11, 100262, Note_off_c, 8, 55, 0
11, 100262, Note_off_c, 8, 59, 0
11, 100440, Note_on_c, 8, 55, 80
11, 100499, Note_off_c, 8, 55, 0
11, 100560, Note_on_c, 8, 55, 95
11, 100613, Note_off_c, 8, 55, 0
11, 100800, Note_on_c, 8, 55, 87
11, 100800, Note_on_c, 8, 59, 90
11, 100891, Note_off_c, 8, 59, 0
11, 100916, Note_off_c, 8, 55, 0
11, 100920, Note_on_c, 8, 55, 65
11, 100979, Note_off_c, 8, 55, 0
11, 101040, Note_on_c, 8, 55, 78
11, 101097, Note_off_c, 8, 55, 0
11, 101160, Note_on_c, 8, 55, 90
11, 101160, Note_on_c, 8, 59, 98
11, 101222, Note_off_c, 8, 55, 0
11, 101222, Note_off_c, 8, 59, 0
11, 101400, Note_on_c, 8, 55, 80
11, 101459, Note_off_c, 8, 55, 0
11, 101520, Note_on_c, 8, 55, 95
11, 101573, Note_off_c, 8, 55, 0
11, 107520, Note_on_c, 8, 55, 87
11, 107520, Note_on_c, 8, 59, 90
11, 107611, Note_off_c, 8, 59, 0
11, 107636, Note_off_c, 8, 55, 0
11, 107640, Note_on_c, 8, 55, 65
11, 107699, Note_off_c, 8, 55, 0
11, 107760, Note_on_c, 8, 55, 78
11, 107817, Note_off_c, 8, 55, 0
11, 107880, Note_on_c, 8, 55, 90
11, 107880, Note_on_c, 8, 59, 98
11, 107942, Note_off_c, 8, 55, 0
11, 107942, Note_off_c, 8, 59, 0
11, 108120, Note_on_c, 8, 55, 80
11, 108179, Note_off_c, 8, 55, 0
11, 108240, Note_on_c, 8, 55, 95
11, 108293, Note_off_c, 8, 55, 0
11, 108480, Note_on_c, 8, 55, 87
11, 108480, Note_on_c, 8, 59, 90
11, 108571, Note_off_c, 8, 59, 0
11, 108596, Note_off_c, 8, 55, 0
11, 108600, Note_on_c, 8, 55, 65
11, 108659, Note_off_c, 8, 55, 0
11, 108720, Note_on_c, 8, 55, 78
11, 108777, Note_off_c, 8, 55, 0
11, 108840, Note_on_c, 8, 55, 90
11, 108840, Note_on_c, 8, 59, 98
11, 108902, Note_off_c, 8, 55, 0
11, 108902, Note_off_c, 8, 59, 0
11, 109080, Note_on_c, 8, 55, 80
11, 109139, Note_off_c, 8, 55, 0
11, 109200, Note_on_c, 8, 55, 95
11, 109253, Note_off_c, 8, 55, 0
11, 109440, Note_on_c, 8, 53, 87
11, 109440, Note_on_c, 8, 57, 90
11, 109531, Note_off_c, 8, 57, 0
11, 109556, Note_off_c, 8, 53, 0
11, 109560, Note_on_c, 8, 53, 65
11, 109619, Note_off_c, 8, 53, 0
11, 109680, Note_on_c, 8, 53, 78
11, 109737, Note_off_c, 8, 53, 0
11, 109800, Note_on_c, 8, 53, 90
11, 109800, Note_on_c, 8, 57, 98
11, 109862, Note_off_c, 8, 53, 0
11, 109862, Note_off_c, 8, 57, 0
11, 110040, Note_on_c, 8, 53, 80
11, 110099, Note_off_c, 8, 53, 0
11, 110160, Note_on_c, 8, 53, 95
11, 110213, Note_off_c, 8, 53, 0
11, 110400, Note_on_c, 8, 53, 87
11, 110400, Note_on_c, 8, 57, 90
11, 110491, Note_off_c, 8, 57, 0
11, 110516, Note_off_c, 8, 53, 0
11, 110520, Note_on_c, 8, 53, 65
11, 110579, Note_off_c, 8, 53, 0
11, 110640, Note_on_c, 8, 53, 78
11, 110697, Note_off_c, 8, 53, 0
11, 110760, Note_on_c, 8, 53, 90
11, 110760, Note_on_c, 8, 57, 98
11, 110822, Note_off_c, 8, 53, 0
11, 110822, Note_off_c, 8, 57, 0
11, 111000, Note_on_c, 8, 53, 80
11, 111059, Note_off_c, 8, 53, 0
11, 111120, Note_on_c, 8, 53, 95
11, 111173, Note_off_c, 8, 53, 0
11, 111360, Note_on_c, 8, 53, 87
11, 111360, Note_on_c, 8, 57, 90
11, 111451, Note_off_c, 8, 57, 0
11, 111476, Note_off_c, 8, 53, 0
11, 111480, Note_on_c, 8, 53, 65
11, 111539, Note_off_c, 8, 53, 0
11, 111600, Note_on_c, 8, 53, 78
11, 111657, Note_off_c, 8, 53, 0
11, 111720, Note_on_c, 8, 53, 90
11, 111720, Note_on_c, 8, 57, 98
11, 111782, Note_off_c, 8, 53, 0
11, 111782, Note_off_c, 8, 57, 0
11, 111960, Note_on_c, 8, 53, 80
11, 112019, Note_off_c, 8, 53, 0
11, 112080, Note_on_c, 8, 53, 95
11, 112133, Note_off_c, 8, 53, 0
11, 112320, Note_on_c, 8, 52, 87
11, 112320, Note_on_c, 8, 55, 90
11, 112411, Note_off_c, 8, 55, 0
11, 112436, Note_off_c, 8, 52, 0
11, 112440, Note_on_c, 8, 52, 65
11, 112499, Note_off_c, 8, 52, 0
11, 112560, Note_on_c, 8, 52, 78
11, 112617, Note_off_c, 8, 52, 0
11, 112680, Note_on_c, 8, 52, 90
11, 112680, Note_on_c, 8, 55, 98
11, 112742, Note_off_c, 8, 52, 0
11, 112742, Note_off_c, 8, 55, 0
11, 112920, Note_on_c, 8, 52, 80
11, 112979, Note_off_c, 8, 52, 0
11, 113040, Note_on_c, 8, 52, 95
11, 113093, Note_off_c, 8, 52, 0
11, 113280, Note_on_c, 8, 55, 87
11, 113280, Note_on_c, 8, 59, 90
11, 113371, Note_off_c, 8, 59, 0
11, 113396, Note_off_c, 8, 55, 0
11, 113400, Note_on_c, 8, 55, 65
11, 113459, Note_off_c, 8, 55, 0
11, 113520, Note_on_c, 8, 55, 78
11, 113577, Note_off_c, 8, 55, 0
11, 113640, Note_on_c, 8, 55, 90
11, 113640, Note_on_c, 8, 59, 98
11, 113702, Note_off_c, 8, 55, 0
11, 113702, Note_off_c, 8, 59, 0
11, 113880, Note_on_c, 8, 55, 80
11, 113939, Note_off_c, 8, 55, 0
11, 114000, Note_on_c, 8, 55, 95
11, 114053, Note_off_c, 8, 55, 0
11, 114240, Note_on_c, 8, 55, 87
11, 114240, Note_on_c, 8, 59, 90
11, 114331, Note_off_c, 8, 59, 0
11, 114356, Note_off_c, 8, 55, 0
11, 114360, Note_on_c, 8, 55, 65
11, 114419, Note_off_c, 8, 55, 0
11, 114480, Note_on_c, 8, 55, 78
11, 114537, Note_off_c, 8, 55, 0
11, 114600, Note_on_c, 8, 55, 90
11, 114600, Note_on_c, 8, 59, 98
11, 114662, Note_off_c, 8, 55, 0
11, 114662, Note_off_c, 8, 59, 0
11, 114840, Note_on_c, 8, 55, 80
11, 114899, Note_off_c, 8, 55, 0
11, 114960, Note_on_c, 8, 55, 95
11, 115013, Note_off_c, 8, 55, 0
11, 115200, Note_on_c, 8, 55, 87
11, 115200, Note_on_c, 8, 59, 90
11, 115291, Note_off_c, 8, 59, 0
11, 115316, Note_off_c, 8, 55, 0
11, 115320, Note_on_c, 8, 55, 65
11, 115379, Note_off_c, 8, 55, 0
11, 115440, Note_on_c, 8, 55, 78
11, 115497, Note_off_c, 8, 55, 0
11, 115560, Note_on_c, 8, 55, 90
11, 115560, Note_on_c, 8, 59, 98
11, 115622, Note_off_c, 8, 55, 0
11, 115622, Note_off_c, 8, 59, 0
11, 115800, Note_on_c, 8, 55, 80
11, 115859, Note_off_c, 8, 55, 0
11, 115920, Note_on_c, 8, 55, 95
11, 115973, Note_off_c, 8, 55, 0
11, 116160, Note_on_c, 8, 55, 87
11, 116160, Note_on_c, 8, 59, 90
11, 116251, Note_off_c, 8, 59, 0
11, 116276, Note_off_c, 8, 55, 0
11, 116280, Note_on_c, 8, 55, 65
11, 116339, Note_off_c, 8, 55, 0
11, 116400, Note_on_c, 8, 55, 78
11, 116457, Note_off_c, 8, 55, 0
11, 116520, Note_on_c, 8, 55, 90
11, 116520, Note_on_c, 8, 59, 98
11, 116582, Note_off_c, 8, 55, 0
11, 116582, Note_off_c, 8, 59, 0
11, 116760, Note_on_c, 8, 55, 80
11, 116819, Note_off_c, 8, 55, 0
11, 116880, Note_on_c, 8, 55, 95
11, 116933, Note_off_c, 8, 55, 0
11, 117120, Note_on_c, 8, 53, 87
11, 117120, Note_on_c, 8, 57, 90
11, 117211, Note_off_c, 8, 57, 0
11, 117236, Note_off_c, 8, 53, 0
11, 117240, Note_on_c, 8, 53, 65
11, 117299, Note_off_c, 8, 53, 0
11, 117360, Note_on_c, 8, 53, 78
11, 117417, Note_off_c, 8, 53, 0
11, 117480, Note_on_c, 8, 53, 90
11, 117480, Note_on_c, 8, 57, 98
11, 117542, Note_off_c, 8, 53, 0
11, 117542, Note_off_c, 8, 57, 0
11, 117720, Note_on_c, 8, 53, 80
11, 117779, Note_off_c, 8, 53, 0
11, 117840, Note_on_c, 8, 53, 95
11, 117893, Note_off_c, 8, 53, 0
11, 118080, Note_on_c, 8, 53, 87
11, 118080, Note_on_c, 8, 57, 90
11, 118171, Note_off_c, 8, 57, 0
11, 118196, Note_off_c, 8, 53, 0
11, 118200, Note_on_c, 8, 53, 65
11, 118259, Note_off_c, 8, 53, 0
11, 118320, Note_on_c, 8, 53, 78
11, 118377, Note_off_c, 8, 53, 0
11, 118440, Note_on_c, 8, 53, 90
11, 118440, Note_on_c, 8, 57, 98
11, 118502, Note_off_c, 8, 53, 0
11, 118502, Note_off_c, 8, 57, 0
11, 118680, Note_on_c, 8, 53, 80
11, 118739, Note_off_c, 8, 53, 0
11, 118800, Note_on_c, 8, 53, 95
11, 118853, Note_off_c, 8, 53, 0
11, 119040, Note_on_c, 8, 53, 87
11, 119040, Note_on_c, 8, 57, 90
11, 119131, Note_off_c, 8, 57, 0
11, 119156, Note_off_c, 8, 53, 0
11, 119160, Note_on_c, 8, 53, 65
11, 119219, Note_off_c, 8, 53, 0
11, 119280, Note_on_c, 8, 53, 78
11, 119337, Note_off_c, 8, 53, 0
11, 119400, Note_on_c, 8, 53, 90
11, 119400, Note_on_c, 8, 57, 98
11, 119462, Note_off_c, 8, 53, 0
11, 119462, Note_off_c, 8, 57, 0
11, 119640, Note_on_c, 8, 53, 80
11, 119699, Note_off_c, 8, 53, 0
11, 119760, Note_on_c, 8, 53, 95
11, 119813, Note_off_c, 8, 53, 0
11, 120000, Note_on_c, 8, 52, 87
11, 120000, Note_on_c, 8, 55, 90
11, 120091, Note_off_c, 8, 55, 0
11, 120116, Note_off_c, 8, 52, 0
11, 120120, Note_on_c, 8, 52, 65
11, 120179, Note_off_c, 8, 52, 0
11, 120240, Note_on_c, 8, 52, 78
11, 120297, Note_off_c, 8, 52, 0
11, 120360, Note_on_c, 8, 52, 90
11, 120360, Note_on_c, 8, 55, 98
11, 120422, Note_off_c, 8, 52, 0
11, 120422, Note_off_c, 8, 55, 0
11, 120600, Note_on_c, 8, 52, 80
11, 120659, Note_off_c, 8, 52, 0
11, 120720, Note_on_c, 8, 52, 95
11, 120773, Note_off_c, 8, 52, 0
11, 120960, Note_on_c, 8, 55, 87
11, 120960, Note_on_c, 8, 59, 90
11, 121051, Note_off_c, 8, 59, 0
11, 121076, Note_off_c, 8, 55, 0
11, 121080, Note_on_c, 8, 55, 65
11, 121139, Note_off_c, 8, 55, 0
11, 121200, Note_on_c, 8, 55, 78
11, 121257, Note_off_c, 8, 55, 0
11, 121320, Note_on_c, 8, 55, 90
11, 121320, Note_on_c, 8, 59, 98
11, 121382, Note_off_c, 8, 55, 0
11, 121382, Note_off_c, 8, 59, 0
11, 121560, Note_on_c, 8, 55, 80
11, 121619, Note_off_c, 8, 55, 0
11, 121680, Note_on_c, 8, 55, 95
11, 121733, Note_off_c, 8, 55, 0
11, 121920, Note_on_c, 8, 55, 87
11, 121920, Note_on_c, 8, 59, 90
11, 122011, Note_off_c, 8, 59, 0
11, 122036, Note_off_c, 8, 55, 0
11, 122040, Note_on_c, 8, 55, 65
11, 122099, Note_off_c, 8, 55, 0
11, 122160, Note_on_c, 8, 55, 78
11, 122217, Note_off_c, 8, 55, 0
11, 122280, Note_on_c, 8, 55, 90
11, 122280, Note_on_c, 8, 59, 98
11, 122342, Note_off_c, 8, 55, 0
11, 122342, Note_off_c, 8, 59, 0
11, 122520, Note_on_c, 8, 55, 80
11, 122579, Note_off_c, 8, 55, 0
11, 122640, Note_on_c, 8, 55, 95
11, 122693, Note_off_c, 8, 55, 0
11, 122880, Note_on_c, 8, 55, 87
11, 122880, Note_on_c, 8, 59, 90
11, 122971, Note_off_c, 8, 59, 0
11, 122996, Note_off_c, 8, 55, 0
11, 123000, Note_on_c, 8, 55, 65
11, 123059, Note_off_c, 8, 55, 0
11, 123120, Note_on_c, 8, 55, 78
11, 123177, Note_off_c, 8, 55, 0
11, 123240, Note_on_c, 8, 55, 90
11, 123240, Note_on_c, 8, 59, 98
11, 123302, Note_off_c, 8, 55, 0
11, 123302, Note_off_c, 8, 59, 0
11, 123480, Note_on_c, 8, 55, 80
11, 123539, Note_off_c, 8, 55, 0
11, 123600, Note_on_c, 8, 55, 95
11, 123653, Note_off_c, 8, 55, 0
11, 123840, Note_on_c, 8, 55, 87
11, 123840, Note_on_c, 8, 59, 90
11, 123931, Note_off_c, 8, 59, 0
11, 123956, Note_off_c, 8, 55, 0
11, 123960, Note_on_c, 8, 55, 65
11, 124019, Note_off_c, 8, 55, 0
11, 124080, Note_on_c, 8, 55, 78
11, 124137, Note_off_c, 8, 55, 0
11, 124200, Note_on_c, 8, 55, 90
11, 124200, Note_on_c, 8, 59, 98
11, 124262, Note_off_c, 8, 55, 0
11, 124262, Note_off_c, 8, 59, 0
11, 124440, Note_on_c, 8, 55, 80
11, 124499, Note_off_c, 8, 55, 0
11, 124560, Note_on_c, 8, 55, 95
11, 124613, Note_off_c, 8, 55, 0
11, 124800, Note_on_c, 8, 53, 87
11, 124800, Note_on_c, 8, 57, 90
11, 124891, Note_off_c, 8, 57, 0
11, 124916, Note_off_c, 8, 53, 0
11, 124920, Note_on_c, 8, 53, 65
11, 124979, Note_off_c, 8, 53, 0
11, 125040, Note_on_c, 8, 53, 78
11, 125097, Note_off_c, 8, 53, 0
11, 125160, Note_on_c, 8, 53, 90
11, 125160, Note_on_c, 8, 57, 98
11, 125222, Note_off_c, 8, 53, 0
11, 125222, Note_off_c, 8, 57, 0
11, 125400, Note_on_c, 8, 53, 80
11, 125459, Note_off_c, 8, 53, 0
11, 125520, Note_on_c, 8, 53, 95
11, 125573, Note_off_c, 8, 53, 0
11, 125760, Note_on_c, 8, 53, 87
11, 125760, Note_on_c, 8, 57, 90
11, 125851, Note_off_c, 8, 57, 0
11, 125876, Note_off_c, 8, 53, 0
11, 125880, Note_on_c, 8, 53, 65
11, 125939, Note_off_c, 8, 53, 0
11, 126000, Note_on_c, 8, 53, 78
11, 126057, Note_off_c, 8, 53, 0
11, 126120, Note_on_c, 8, 53, 90
11, 126120, Note_on_c, 8, 57, 98
11, 126182, Note_off_c, 8, 53, 0
11, 126182, Note_off_c, 8, 57, 0
11, 126360, Note_on_c, 8, 53, 80
11, 126419, Note_off_c, 8, 53, 0
11, 126480, Note_on_c, 8, 53, 95
11, 126533, Note_off_c, 8, 53, 0
11, 126720, Note_on_c, 8, 53, 87
11, 126720, Note_on_c, 8, 57, 90
11, 126811, Note_off_c, 8, 57, 0
11, 126836, Note_off_c, 8, 53, 0
11, 126840, Note_on_c, 8, 53, 65
11, 126899, Note_off_c, 8, 53, 0
11, 126960, Note_on_c, 8, 53, 78
11, 127017, Note_off_c, 8, 53, 0
11, 127080, Note_on_c, 8, 53, 90
11, 127080, Note_on_c, 8, 57, 98
11, 127142, Note_off_c, 8, 53, 0
11, 127142, Note_off_c, 8, 57, 0
11, 127320, Note_on_c, 8, 53, 80
11, 127379, Note_off_c, 8, 53, 0
11, 127440, Note_on_c, 8, 53, 95
11, 127493, Note_off_c, 8, 53, 0
11, 127680, Note_on_c, 8, 52, 87
11, 127680, Note_on_c, 8, 55, 90
11, 127771, Note_off_c, 8, 55, 0
11, 127796, Note_off_c, 8, 52, 0
11, 127800, Note_on_c, 8, 52, 65
11, 127859, Note_off_c, 8, 52, 0
11, 127920, Note_on_c, 8, 52, 78
11, 127977, Note_off_c, 8, 52, 0
11, 128040, Note_on_c, 8, 52, 90
11, 128040, Note_on_c, 8, 55, 98
11, 128102, Note_off_c, 8, 52, 0
11, 128102, Note_off_c, 8, 55, 0
11, 128280, Note_on_c, 8, 52, 80
11, 128339, Note_off_c, 8, 52, 0
11, 128400, Note_on_c, 8, 52, 95
11, 128453, Note_off_c, 8, 52, 0
11, 128640, Note_on_c, 8, 55, 87
11, 128640, Note_on_c, 8, 59, 90
11, 128731, Note_off_c, 8, 59, 0
11, 128756, Note_off_c, 8, 55, 0
11, 128760, Note_on_c, 8, 55, 65
11, 128819, Note_off_c, 8, 55, 0
11, 128880, Note_on_c, 8, 55, 78
11, 128937, Note_off_c, 8, 55, 0
11, 129000, Note_on_c, 8, 55, 90
11, 129000, Note_on_c, 8, 59, 98
11, 129062, Note_off_c, 8, 55, 0
11, 129062, Note_off_c, 8, 59, 0
11, 129240, Note_on_c, 8, 55, 80
11, 129299, Note_off_c, 8, 55, 0
11, 129360, Note_on_c, 8, 55, 95
11, 129413, Note_off_c, 8, 55, 0
11, 129600, Note_on_c, 8, 55, 87
11, 129600, Note_on_c, 8, 59, 90
11, 129691, Note_off_c, 8, 59, 0
11, 129716, Note_off_c, 8, 55, 0
11, 129720, Note_on_c, 8, 55, 65
11, 129779, Note_off_c, 8, 55, 0
11, 129840, Note_on_c, 8, 55, 78
11, 129897, Note_off_c, 8, 55, 0
11, 129960, Note_on_c, 8, 55, 90
11, 129960, Note_on_c, 8, 59, 98
11, 130022, Note_off_c, 8, 55, 0
11, 130022, Note_off_c, 8, 59, 0
11, 130200, Note_on_c, 8, 55, 80
11, 130259, Note_off_c, 8, 55, 0
11, 130320, Note_on_c, 8, 55, 95
11, 130373, Note_off_c, 8, 55, 0
11, 130560, Note_on_c, 8, 55, 87
11, 130560, Note_on_c, 8, 59, 90
11, 130651, Note_off_c, 8, 59, 0
11, 130676, Note_off_c, 8, 55, 0
11, 130680, Note_on_c, 8, 55, 65
11, 130739, Note_off_c, 8, 55, 0
11, 130800, Note_on_c, 8, 55, 78
11, 130857, Note_off_c, 8, 55, 0
11, 130920, Note_on_c, 8, 55, 90
11, 130920, Note_on_c, 8, 59, 98
11, 130982, Note_off_c, 8, 55, 0
11, 130982, Note_off_c, 8, 59, 0
11, 131160, Note_on_c, 8, 55, 80
11, 131219, Note_off_c, 8, 55, 0
11, 131280, Note_on_c, 8, 55, 95
11, 131333, Note_off_c, 8, 55, 0
11, 131520, Note_on_c, 8, 55, 87
11, 131520, Note_on_c, 8, 59, 90
11, 131611, Note_off_c, 8, 59, 0
11, 131636, Note_off_c, 8, 55, 0
11, 131640, Note_on_c, 8, 55, 65
11, 131699, Note_off_c, 8, 55, 0
11, 131760, Note_on_c, 8, 55, 78
11, 131817, Note_off_c, 8, 55, 0
11, 131880, Note_on_c, 8, 55, 90
11, 131880, Note_on_c, 8, 59, 98
11, 131942, Note_off_c, 8, 55, 0
11, 131942, Note_off_c, 8, 59, 0
11, 132120, Note_on_c, 8, 55, 80
11, 132179, Note_off_c, 8, 55, 0
11, 132240, Note_on_c, 8, 55, 95
11, 132293, Note_off_c, 8, 55, 0
11, 132480, Note_on_c, 8, 53, 87
11, 132480, Note_on_c, 8, 57, 90
11, 132571, Note_off_c, 8, 57, 0
11, 132596, Note_off_c, 8, 53, 0
11, 132600, Note_on_c, 8, 53, 65
11, 132659, Note_off_c, 8, 53, 0
11, 132720, Note_on_c, 8, 53, 78
11, 132777, Note_off_c, 8, 53, 0
11, 132840, Note_on_c, 8, 53, 90
11, 132840, Note_on_c, 8, 57, 98
11, 132902, Note_off_c, 8, 53, 0
11, 132902, Note_off_c, 8, 57, 0
11, 133080, Note_on_c, 8, 53, 80
11, 133139, Note_off_c, 8, 53, 0
11, 133200, Note_on_c, 8, 53, 95
11, 133253, Note_off_c, 8, 53, 0
11, 133440, Note_on_c, 8, 53, 87
11, 133440, Note_on_c, 8, 57, 90
11, 133531, Note_off_c, 8, 57, 0
11, 133556, Note_off_c, 8, 53, 0
11, 133560, Note_on_c, 8, 53, 65
11, 133619, Note_off_c, 8, 53, 0
11, 133680, Note_on_c, 8, 53, 78
11, 133737, Note_off_c, 8, 53, 0
11, 133800, Note_on_c, 8, 53, 90
11, 133800, Note_on_c, 8, 57, 98
11, 133862, Note_off_c, 8, 53, 0
11, 133862, Note_off_c, 8, 57, 0
11, 134040, Note_on_c, 8, 53, 80
11, 134099, Note_off_c, 8, 53, 0
11, 134160, Note_on_c, 8, 53, 95
11, 134213, Note_off_c, 8, 53, 0
11, 134400, Note_on_c, 8, 53, 87
11, 134400, Note_on_c, 8, 57, 90
11, 134491, Note_off_c, 8, 57, 0
11, 134516, Note_off_c, 8, 53, 0
11, 134520, Note_on_c, 8, 53, 65
11, 134579, Note_off_c, 8, 53, 0
11, 134640, Note_on_c, 8, 53, 78
11, 134697, Note_off_c, 8, 53, 0
11, 134760, Note_on_c, 8, 53, 90
11, 134760, Note_on_c, 8, 57, 98
11, 134822, Note_off_c, 8, 53, 0
11, 134822, Note_off_c, 8, 57, 0
11, 135000, Note_on_c, 8, 53, 80
11, 135059, Note_off_c, 8, 53, 0
11, 135120, Note_on_c, 8, 53, 95
11, 135173, Note_off_c, 8, 53, 0
11, 135360, Note_on_c, 8, 52, 87
11, 135360, Note_on_c, 8, 55, 90
11, 135451, Note_off_c, 8, 55, 0
11, 135476, Note_off_c, 8, 52, 0
11, 135480, Note_on_c, 8, 52, 65
11, 135539, Note_off_c, 8, 52, 0
11, 135600, Note_on_c, 8, 52, 78
11, 135657, Note_off_c, 8, 52, 0
11, 135720, Note_on_c, 8, 52, 90
11, 135720, Note_on_c, 8, 55, 98
11, 135782, Note_off_c, 8, 52, 0
11, 135782, Note_off_c, 8, 55, 0
11, 135960, Note_on_c, 8, 52, 80
11, 136019, Note_off_c, 8, 52, 0
11, 136080, Note_on_c, 8, 52, 95
11, 136133, Note_off_c, 8, 52, 0
11, 136320, Note_on_c, 8, 55, 87
11, 136320, Note_on_c, 8, 59, 90
11, 136411, Note_off_c, 8, 59, 0
11, 136436, Note_off_c, 8, 55, 0
11, 136440, Note_on_c, 8, 55, 65
11, 136499, Note_off_c, 8, 55, 0
11, 136560, Note_on_c, 8, 55, 78
11, 136617, Note_off_c, 8, 55, 0
11, 136680, Note_on_c, 8, 55, 90
11, 136680, Note_on_c, 8, 59, 98
11, 136742, Note_off_c, 8, 55, 0
11, 136742, Note_off_c, 8, 59, 0
11, 136920, Note_on_c, 8, 55, 80
11, 136979, Note_off_c, 8, 55, 0
11, 137040, Note_on_c, 8, 55, 95
11, 137093, Note_off_c, 8, 55, 0
11, 137280, Note_on_c, 8, 55, 87
11, 137280, Note_on_c, 8, 59, 90
11, 137371, Note_off_c, 8, 59, 0
11, 137396, Note_off_c, 8, 55, 0
11, 138240, Note_on_c, 8, 55, 87
11, 138240, Note_on_c, 8, 59, 90
11, 138331, Note_off_c, 8, 59, 0
11, 138356, Note_off_c, 8, 55, 0
11, 138360, Note_on_c, 8, 55, 65
11, 138419, Note_off_c, 8, 55, 0
11, 138480, Note_on_c, 8, 55, 78
11, 138537, Note_off_c, 8, 55, 0
11, 138600, Note_on_c, 8, 55, 90
11, 138600, Note_on_c, 8, 59, 98
11, 138662, Note_off_c, 8, 55, 0
11, 138662, Note_off_c, 8, 59, 0
11, 138840, Note_on_c, 8, 55, 80
11, 138899, Note_off_c, 8, 55, 0
11, 138960, Note_on_c, 8, 55, 95
11, 139013, Note_off_c, 8, 55, 0
11, 139200, Note_on_c, 8, 55, 87
11, 139200, Note_on_c, 8, 59, 90
11, 139291, Note_off_c, 8, 59, 0
11, 139316, Note_off_c, 8, 55, 0
11, 139320, Note_on_c, 8, 55, 65
11, 139379, Note_off_c, 8, 55, 0
11, 139440, Note_on_c, 8, 55, 78
11, 139497, Note_off_c, 8, 55, 0
11, 139560, Note_on_c, 8, 55, 90
11, 139560, Note_on_c, 8, 59, 98
11, 139622, Note_off_c, 8, 55, 0
11, 139622, Note_off_c, 8, 59, 0
11, 139800, Note_on_c, 8, 55, 80
11, 139859, Note_off_c, 8, 55, 0
11, 139920, Note_on_c, 8, 55, 95
11, 139973, Note_off_c, 8, 55, 0
11, 140160, Note_on_c, 8, 53, 87
11, 140160, Note_on_c, 8, 57, 90
11, 140251, Note_off_c, 8, 57, 0
11, 140276, Note_off_c, 8, 53, 0
11, 140280, Note_on_c, 8, 53, 65
11, 140339, Note_off_c, 8, 53, 0
11, 140400, Note_on_c, 8, 53, 78
11, 140457, Note_off_c, 8, 53, 0
11, 140520, Note_on_c, 8, 53, 90
11, 140520, Note_on_c, 8, 57, 98
11, 140582, Note_off_c, 8, 53, 0
11, 140582, Note_off_c, 8, 57, 0
11, 140760, Note_on_c, 8, 53, 80
11, 140819, Note_off_c, 8, 53, 0
11, 140880, Note_on_c, 8, 53, 95
11, 140933, Note_off_c, 8, 53, 0
11, 141120, Note_on_c, 8, 53, 87
11, 141120, Note_on_c, 8, 57, 90
11, 141211, Note_off_c, 8, 57, 0
11, 141236, Note_off_c, 8, 53, 0
11, 141240, Note_on_c, 8, 53, 65
11, 141299, Note_off_c, 8, 53, 0
11, 141360, Note_on_c, 8, 53, 78
11, 141417, Note_off_c, 8, 53, 0
11, 141480, Note_on_c, 8, 53, 90
11, 141480, Note_on_c, 8, 57, 98
11, 141542, Note_off_c, 8, 53, 0
11, 141542, Note_off_c, 8, 57, 0
11, 141720, Note_on_c, 8, 53, 80
11, 141779, Note_off_c, 8, 53, 0
11, 141840, Note_on_c, 8, 53, 95
11, 141893, Note_off_c, 8, 53, 0
11, 142080, Note_on_c, 8, 53, 87
11, 142080, Note_on_c, 8, 57, 90
11, 142171, Note_off_c, 8, 57, 0
11, 142196, Note_off_c, 8, 53, 0
11, 142200, Note_on_c, 8, 53, 65
11, 142259, Note_off_c, 8, 53, 0
11, 142320, Note_on_c, 8, 53, 78
11, 142377, Note_off_c, 8, 53, 0
11, 142440, Note_on_c, 8, 53, 90
11, 142440, Note_on_c, 8, 57, 98
11, 142502, Note_off_c, 8, 53, 0
11, 142502, Note_off_c, 8, 57, 0
11, 142680, Note_on_c, 8, 53, 80
11, 142739, Note_off_c, 8, 53, 0
11, 142800, Note_on_c, 8, 53, 95
11, 142853, Note_off_c, 8, 53, 0
11, 143040, Note_on_c, 8, 52, 87
11, 143040, Note_on_c, 8, 55, 90
11, 143131, Note_off_c, 8, 55, 0
11, 143156, Note_off_c, 8, 52, 0
11, 143160, Note_on_c, 8, 52, 65
11, 143219, Note_off_c, 8, 52, 0
11, 143280, Note_on_c, 8, 52, 78
11, 143337, Note_off_c, 8, 52, 0
11, 143400, Note_on_c, 8, 52, 90
11, 143400, Note_on_c, 8, 55, 98
11, 143462, Note_off_c, 8, 52, 0
11, 143462, Note_off_c, 8, 55, 0
11, 143640, Note_on_c, 8, 52, 80
11, 143699, Note_off_c, 8, 52, 0
11, 143760, Note_on_c, 8, 52, 95
11, 143813, Note_off_c, 8, 52, 0
11, 144000, Note_on_c, 8, 55, 87
11, 144000, Note_on_c, 8, 59, 90
11, 144091, Note_off_c, 8, 59, 0
11, 144116, Note_off_c, 8, 55, 0
11, 144120, Note_on_c, 8, 55, 65
11, 144179, Note_off_c, 8, 55, 0
11, 144240, Note_on_c, 8, 55, 78
11, 144297, Note_off_c, 8, 55, 0
11, 144360, Note_on_c, 8, 55, 90
11, 144360, Note_on_c, 8, 59, 98
11, 144422, Note_off_c, 8, 55, 0
11, 144422, Note_off_c, 8, 59, 0
11, 144600, Note_on_c, 8, 55, 80
11, 144659, Note_off_c, 8, 55, 0
11, 144720, Note_on_c, 8, 55, 95
11, 144773, Note_off_c, 8, 55, 0
11, 144960, Note_on_c, 8, 55, 87
11, 144960, Note_on_c, 8, 59, 90
11, 145051, Note_off_c, 8, 59, 0
11, 145076, Note_off_c, 8, 55, 0
11, 145080, Note_on_c, 8, 55, 65
11, 145139, Note_off_c, 8, 55, 0
11, 145200, Note_on_c, 8, 55, 78
11, 145257, Note_off_c, 8, 55, 0
11, 145320, Note_on_c, 8, 55, 90
11, 145320, Note_on_c, 8, 59, 98
11, 145382, Note_off_c, 8, 55, 0
11, 145382, Note_off_c, 8, 59, 0
11, 145560, Note_on_c, 8, 55, 80
11, 145619, Note_off_c, 8, 55, 0
11, 145680, Note_on_c, 8, 55, 95
11, 145733, Note_off_c, 8, 55, 0
11, 145920, Note_on_c, 8, 55, 87
11, 145920, Note_on_c, 8, 59, 90
11, 146011, Note_off_c, 8, 59, 0
11, 146036, Note_off_c, 8, 55, 0
11, 146040, Note_on_c, 8, 55, 65
11, 146099, Note_off_c, 8, 55, 0
11, 146160, Note_on_c, 8, 55, 78
11, 146217, Note_off_c, 8, 55, 0
11, 146280, Note_on_c, 8, 55, 90
11, 146280, Note_on_c, 8, 59, 98
11, 146342, Note_off_c, 8, 55, 0
11, 146342, Note_off_c, 8, 59, 0
11, 146520, Note_on_c, 8, 55, 80
11, 146579, Note_off_c, 8, 55, 0
11, 146640, Note_on_c, 8, 55, 95
11, 146693, Note_off_c, 8, 55, 0
11, 146880, Note_on_c, 8, 55, 87
11, 146880, Note_on_c, 8, 59, 90
11, 146971, Note_off_c, 8, 59, 0
11, 146996, Note_off_c, 8, 55, 0
11, 147000, Note_on_c, 8, 55, 65
11, 147059, Note_off_c, 8, 55, 0
11, 147120, Note_on_c, 8, 55, 78
11, 147177, Note_off_c, 8, 55, 0
11, 147240, Note_on_c, 8, 55, 90
11, 147240, Note_on_c, 8, 59, 98
11, 147302, Note_off_c, 8, 55, 0
11, 147302, Note_off_c, 8, 59, 0
11, 147480, Note_on_c, 8, 55, 80
11, 147539, Note_off_c, 8, 55, 0
11, 147600, Note_on_c, 8, 55, 95
11, 147653, Note_off_c, 8, 55, 0
11, 147840, Note_on_c, 8, 53, 87
11, 147840, Note_on_c, 8, 57, 90
11, 147931, Note_off_c, 8, 57, 0
11, 147956, Note_off_c, 8, 53, 0
11, 147960, Note_on_c, 8, 53, 65
11, 148019, Note_off_c, 8, 53, 0
11, 148080, Note_on_c, 8, 53, 78
11, 148137, Note_off_c, 8, 53, 0
11, 148200, Note_on_c, 8, 53, 90
11, 148200, Note_on_c, 8, 57, 98
11, 148262, Note_off_c, 8, 53, 0
11, 148262, Note_off_c, 8, 57, 0
11, 148440, Note_on_c, 8, 53, 80
11, 148499, Note_off_c, 8, 53, 0
11, 148560, Note_on_c, 8, 53, 95
11, 148613, Note_off_c, 8, 53, 0
11, 148800, Note_on_c, 8, 53, 87
11, 148800, Note_on_c, 8, 57, 90
11, 148891, Note_off_c, 8, 57, 0
11, 148916, Note_off_c, 8, 53, 0
11, 148920, Note_on_c, 8, 53, 65
11, 148979, Note_off_c, 8, 53, 0
11, 149040, Note_on_c, 8, 53, 78
11, 149097, Note_off_c, 8, 53, 0
11, 149160, Note_on_c, 8, 53, 90
11, 149160, Note_on_c, 8, 57, 98
11, 149222, Note_off_c, 8, 53, 0
11, 149222, Note_off_c, 8, 57, 0
11, 149400, Note_on_c, 8, 53, 80
11, 149459, Note_off_c, 8, 53, 0
11, 149520, Note_on_c, 8, 53, 95
11, 149573, Note_off_c, 8, 53, 0
11, 149760, Note_on_c, 8, 53, 87
11, 149760, Note_on_c, 8, 57, 90
11, 149851, Note_off_c, 8, 57, 0
11, 149876, Note_off_c, 8, 53, 0
11, 149880, Note_on_c, 8, 53, 65
11, 149939, Note_off_c, 8, 53, 0
11, 150000, Note_on_c, 8, 53, 78
11, 150057, Note_off_c, 8, 53, 0
11, 150120, Note_on_c, 8, 53, 90
11, 150120, Note_on_c, 8, 57, 98
11, 150182, Note_off_c, 8, 53, 0
11, 150182, Note_off_c, 8, 57, 0
11, 150360, Note_on_c, 8, 53, 80
11, 150419, Note_off_c, 8, 53, 0
11, 150480, Note_on_c, 8, 53, 95
11, 150533, Note_off_c, 8, 53, 0
11, 150720, Note_on_c, 8, 52, 87
11, 150720, Note_on_c, 8, 55, 90
11, 150811, Note_off_c, 8, 55, 0
11, 150836, Note_off_c, 8, 52, 0
11, 150840, Note_on_c, 8, 52, 65
11, 150899, Note_off_c, 8, 52, 0
11, 150960, Note_on_c, 8, 52, 78
11, 151017, Note_off_c, 8, 52, 0
11, 151080, Note_on_c, 8, 52, 90
11, 151080, Note_on_c, 8, 55, 98
11, 151142, Note_off_c, 8, 52, 0
11, 151142, Note_off_c, 8, 55, 0
11, 151320, Note_on_c, 8, 52, 80
11, 151379, Note_off_c, 8, 52, 0
11, 151440, Note_on_c, 8, 52, 95
11, 151493, Note_off_c, 8, 52, 0
11, 151680, Note_on_c, 8, 55, 87
11, 151680, Note_on_c, 8, 59, 90
11, 151771, Note_off_c, 8, 59, 0
11, 151796, Note_off_c, 8, 55, 0
11, 151800, Note_on_c, 8, 55, 65
11, 151859, Note_off_c, 8, 55, 0
11, 151920, Note_on_c, 8, 55, 78
11, 151977, Note_off_c, 8, 55, 0
11, 152040, Note_on_c, 8, 55, 90
11, 152040, Note_on_c, 8, 59, 98
11, 152102, Note_off_c, 8, 55, 0
11, 152102, Note_off_c, 8, 59, 0
11, 152280, Note_on_c, 8, 55, 80
11, 152339, Note_off_c, 8, 55, 0
11, 152400, Note_on_c, 8, 55, 95
11, 152453, Note_off_c, 8, 55, 0
11, 152640, Note_on_c, 8, 55, 87
11, 152640, Note_on_c, 8, 59, 90
11, 152731, Note_off_c, 8, 59, 0
11, 152756, Note_off_c, 8, 55, 0
11, 152760, Note_on_c, 8, 55, 65
11, 152819, Note_off_c, 8, 55, 0
11, 152880, Note_on_c, 8, 55, 78
11, 152937, Note_off_c, 8, 55, 0
11, 153000, Note_on_c, 8, 55, 90
11, 153000, Note_on_c, 8, 59, 98
11, 153062, Note_off_c, 8, 55, 0
11, 153062, Note_off_c, 8, 59, 0
11, 153240, Note_on_c, 8, 55, 80
11, 153299, Note_off_c, 8, 55, 0
11, 153360, Note_on_c, 8, 55, 95
11, 153413, Note_off_c, 8, 55, 0
11, 153600, Note_on_c, 8, 55, 87
11, 153600, Note_on_c, 8, 59, 90
11, 153691, Note_off_c, 8, 59, 0
11, 153716, Note_off_c, 8, 55, 0
11, 153720, Note_on_c, 8, 55, 65
11, 153779, Note_off_c, 8, 55, 0
11, 153840, Note_on_c, 8, 55, 78
11, 153897, Note_off_c, 8, 55, 0
11, 153960, Note_on_c, 8, 55, 90
11, 153960, Note_on_c, 8, 59, 98
11, 154022, Note_off_c, 8, 55, 0
11, 154022, Note_off_c, 8, 59, 0
11, 154200, Note_on_c, 8, 55, 80
11, 154259, Note_off_c, 8, 55, 0
11, 154320, Note_on_c, 8, 55, 95
11, 154373, Note_off_c, 8, 55, 0
11, 154560, Note_on_c, 8, 55, 87
11, 154560, Note_on_c, 8, 59, 90
11, 154651, Note_off_c, 8, 59, 0
11, 154676, Note_off_c, 8, 55, 0
11, 154680, Note_on_c, 8, 55, 65
11, 154739, Note_off_c, 8, 55, 0
11, 154800, Note_on_c, 8, 55, 78
11, 154857, Note_off_c, 8, 55, 0
11, 154920, Note_on_c, 8, 55, 90
11, 154920, Note_on_c, 8, 59, 98
11, 154982, Note_off_c, 8, 55, 0
11, 154982, Note_off_c, 8, 59, 0
11, 155160, Note_on_c, 8, 55, 80
11, 155219, Note_off_c, 8, 55, 0
11, 155280, Note_on_c, 8, 55, 95
11, 155333, Note_off_c, 8, 55, 0
11, 155520, Note_on_c, 8, 53, 87
11, 155520, Note_on_c, 8, 57, 90
11, 155611, Note_off_c, 8, 57, 0
11, 155636, Note_off_c, 8, 53, 0
11, 155640, Note_on_c, 8, 53, 65
11, 155699, Note_off_c, 8, 53, 0
11, 155760, Note_on_c, 8, 53, 78
11, 155817, Note_off_c, 8, 53, 0
11, 155880, Note_on_c, 8, 53, 90
11, 155880, Note_on_c, 8, 57, 98
11, 155942, Note_off_c, 8, 53, 0
11, 155942, Note_off_c, 8, 57, 0
11, 156120, Note_on_c, 8, 53, 80
11, 156179, Note_off_c, 8, 53, 0
11, 156240, Note_on_c, 8, 53, 95
11, 156293, Note_off_c, 8, 53, 0
11, 156480, Note_on_c, 8, 53, 87
11, 156480, Note_on_c, 8, 57, 90
11, 156571, Note_off_c, 8, 57, 0
11, 156596, Note_off_c, 8, 53, 0
11, 156600, Note_on_c, 8, 53, 65
11, 156659, Note_off_c, 8, 53, 0
11, 156720, Note_on_c, 8, 53, 78
11, 156777, Note_off_c, 8, 53, 0
11, 156840, Note_on_c, 8, 53, 90
11, 156840, Note_on_c, 8, 57, 98
11, 156902, Note_off_c, 8, 53, 0
11, 156902, Note_off_c, 8, 57, 0
11, 157080, Note_on_c, 8, 53, 80
11, 157139, Note_off_c, 8, 53, 0
11, 157200, Note_on_c, 8, 53, 95
11, 157253, Note_off_c, 8, 53, 0
11, 157440, Note_on_c, 8, 53, 87
11, 157440, Note_on_c, 8, 57, 90
11, 157531, Note_off_c, 8, 57, 0
11, 157556, Note_off_c, 8, 53, 0
11, 157560, Note_on_c, 8, 53, 65
11, 157619, Note_off_c, 8, 53, 0
11, 157680, Note_on_c, 8, 53, 78
11, 157737, Note_off_c, 8, 53, 0
11, 157800, Note_on_c, 8, 53, 90
11, 157800, Note_on_c, 8, 57, 98
11, 157862, Note_off_c, 8, 53, 0
11, 157862, Note_off_c, 8, 57, 0
11, 158040, Note_on_c, 8, 53, 80
11, 158099, Note_off_c, 8, 53, 0
11, 158160, Note_on_c, 8, 53, 95
11, 158213, Note_off_c, 8, 53, 0
11, 158400, Note_on_c, 8, 52, 87
11, 158400, Note_on_c, 8, 55, 90
11, 158491, Note_off_c, 8, 55, 0
11, 158516, Note_off_c, 8, 52, 0
11, 158520, Note_on_c, 8, 52, 65
11, 158579, Note_off_c, 8, 52, 0
11, 158640, Note_on_c, 8, 52, 78
11, 158697, Note_off_c, 8, 52, 0
11, 158760, Note_on_c, 8, 52, 90
11, 158760, Note_on_c, 8, 55, 98
11, 158822, Note_off_c, 8, 52, 0
11, 158822, Note_off_c, 8, 55, 0
11, 159000, Note_on_c, 8, 52, 80
11, 159059, Note_off_c, 8, 52, 0
11, 159120, Note_on_c, 8, 52, 95
11, 159173, Note_off_c, 8, 52, 0
11, 159360, Note_on_c, 8, 55, 87
11, 159360, Note_on_c, 8, 59, 90
11, 159451, Note_off_c, 8, 59, 0
11, 159476, Note_off_c, 8, 55, 0
11, 159480, Note_on_c, 8, 55, 65
11, 159539, Note_off_c, 8, 55, 0
11, 159600, Note_on_c, 8, 55, 78
11, 159657, Note_off_c, 8, 55, 0
11, 159720, Note_on_c, 8, 55, 90
11, 159720, Note_on_c, 8, 59, 98
11, 159782, Note_off_c, 8, 55, 0
11, 159782, Note_off_c, 8, 59, 0
11, 159960, Note_on_c, 8, 55, 80
11, 160019, Note_off_c, 8, 55, 0
11, 160080, Note_on_c, 8, 55, 95
11, 160133, Note_off_c, 8, 55, 0
11, 160320, Note_on_c, 8, 55, 87
11, 160320, Note_on_c, 8, 59, 90
11, 160411, Note_off_c, 8, 59, 0
11, 160436, Note_off_c, 8, 55, 0
11, 160440, Note_on_c, 8, 55, 65
11, 160499, Note_off_c, 8, 55, 0
11, 160560, Note_on_c, 8, 55, 78
11, 160617, Note_off_c, 8, 55, 0
11, 160680, Note_on_c, 8, 55, 90
11, 160680, Note_on_c, 8, 59, 98
11, 160742, Note_off_c, 8, 55, 0
11, 160742, Note_off_c, 8, 59, 0
11, 160920, Note_on_c, 8, 55, 80
11, 160979, Note_off_c, 8, 55, 0
11, 161040, Note_on_c, 8, 55, 95
11, 161093, Note_off_c, 8, 55, 0
11, 161280, Note_on_c, 8, 55, 87
11, 161280, Note_on_c, 8, 59, 90
11, 161371, Note_off_c, 8, 59, 0
11, 161396, Note_off_c, 8, 55, 0
11, 161400, Note_on_c, 8, 55, 65
11, 161459, Note_off_c, 8, 55, 0
11, 161520, Note_on_c, 8, 55, 78
11, 161577, Note_off_c, 8, 55, 0
11, 161640, Note_on_c, 8, 55, 90
11, 161640, Note_on_c, 8, 59, 98
11, 161702, Note_off_c, 8, 55, 0
11, 161702, Note_off_c, 8, 59, 0
11, 161880, Note_on_c, 8, 55, 80
11, 161939, Note_off_c, 8, 55, 0
11, 162000, Note_on_c, 8, 55, 95
11, 162053, Note_off_c, 8, 55, 0
11, 162240, Note_on_c, 8, 55, 87
11, 162240, Note_on_c, 8, 59, 90
11, 162331, Note_off_c, 8, 59, 0
11, 162356, Note_off_c, 8, 55, 0
11, 162360, Note_on_c, 8, 55, 65
11, 162419, Note_off_c, 8, 55, 0
11, 162480, Note_on_c, 8, 55, 78
11, 162537, Note_off_c, 8, 55, 0
11, 162600, Note_on_c, 8, 55, 90
11, 162600, Note_on_c, 8, 59, 98
11, 162662, Note_off_c, 8, 55, 0
11, 162662, Note_off_c, 8, 59, 0
11, 162840, Note_on_c, 8, 55, 80
11, 162899, Note_off_c, 8, 55, 0
11, 162960, Note_on_c, 8, 55, 95
11, 163013, Note_off_c, 8, 55, 0
11, 163200, Note_on_c, 8, 53, 87
11, 163200, Note_on_c, 8, 57, 90
11, 163291, Note_off_c, 8, 57, 0
11, 163316, Note_off_c, 8, 53, 0
11, 163320, Note_on_c, 8, 53, 65
11, 163379, Note_off_c, 8, 53, 0
11, 163440, Note_on_c, 8, 53, 78
11, 163497, Note_off_c, 8, 53, 0
11, 163560, Note_on_c, 8, 53, 90
11, 163560, Note_on_c, 8, 57, 98
11, 163622, Note_off_c, 8, 53, 0
11, 163622, Note_off_c, 8, 57, 0
11, 163800, Note_on_c, 8, 53, 80
11, 163859, Note_off_c, 8, 53, 0
11, 163920, Note_on_c, 8, 53, 95
11, 163973, Note_off_c, 8, 53, 0
11, 164160, Note_on_c, 8, 53, 87
11, 164160, Note_on_c, 8, 57, 90
11, 164251, Note_off_c, 8, 57, 0
11, 164276, Note_off_c, 8, 53, 0
11, 164280, Note_on_c, 8, 53, 65
11, 164339, Note_off_c, 8, 53, 0
11, 164400, Note_on_c, 8, 53, 78
11, 164457, Note_off_c, 8, 53, 0
11, 164520, Note_on_c, 8, 53, 90
11, 164520, Note_on_c, 8, 57, 98
11, 164582, Note_off_c, 8, 53, 0
11, 164582, Note_off_c, 8, 57, 0
11, 164760, Note_on_c, 8, 53, 80
11, 164819, Note_off_c, 8, 53, 0
11, 164880, Note_on_c, 8, 53, 95
11, 164933, Note_off_c, 8, 53, 0
11, 165120, Note_on_c, 8, 53, 87
11, 165120, Note_on_c, 8, 57, 90
11, 165211, Note_off_c, 8, 57, 0
11, 165236, Note_off_c, 8, 53, 0
11, 165240, Note_on_c, 8, 53, 65
11, 165299, Note_off_c, 8, 53, 0
11, 165360, Note_on_c, 8, 53, 78
11, 165417, Note_off_c, 8, 53, 0
11, 165480, Note_on_c, 8, 53, 90
11, 165480, Note_on_c, 8, 57, 98
11, 165542, Note_off_c, 8, 53, 0
11, 165542, Note_off_c, 8, 57, 0
11, 165720, Note_on_c, 8, 53, 80
11, 165779, Note_off_c, 8, 53, 0
11, 165840, Note_on_c, 8, 53, 95
11, 165893, Note_off_c, 8, 53, 0
11, 166080, Note_on_c, 8, 52, 87
11, 166080, Note_on_c, 8, 55, 90
11, 166171, Note_off_c, 8, 55, 0
11, 166196, Note_off_c, 8, 52, 0
11, 166200, Note_on_c, 8, 52, 65
11, 166259, Note_off_c, 8, 52, 0
11, 166320, Note_on_c, 8, 52, 78
11, 166377, Note_off_c, 8, 52, 0
11, 166440, Note_on_c, 8, 52, 90
11, 166440, Note_on_c, 8, 55, 98
11, 166502, Note_off_c, 8, 52, 0
11, 166502, Note_off_c, 8, 55, 0
11, 166680, Note_on_c, 8, 52, 80
11, 166739, Note_off_c, 8, 52, 0
11, 166800, Note_on_c, 8, 52, 95
11, 166853, Note_off_c, 8, 52, 0
11, 167040, Note_on_c, 8, 50, 89
11, 167040, Note_on_c, 8, 57, 92
11, 167040, Note_on_c, 8, 60, 97
11, 167272, Note_off_c, 8, 60, 0
11, 167294, Note_off_c, 8, 50, 0
11, 167321, Note_off_c, 8, 57, 0
11, 167400, Note_on_c, 8, 50, 92
11, 167400, Note_on_c, 8, 55, 84
11, 167400, Note_on_c, 8, 59, 89
11, 167638, Note_off_c, 8, 50, 0
11, 167666, Note_off_c, 8, 55, 0
11, 167672, Note_off_c, 8, 59, 0
11, 167760, Note_on_c, 8, 50, 90
11, 167760, Note_on_c, 8, 55, 92
11, 167888, Note_off_c, 8, 55, 0
11, 167906, Note_off_c, 8, 50, 0
11, 168000, Note_on_c, 8, 57, 94
11, 168000, Note_on_c, 8, 60, 97
11, 168241, Note_off_c, 8, 60, 0
11, 168306, Note_off_c, 8, 57, 0
11, 168360, Note_on_c, 8, 55, 96
11, 168360, Note_on_c, 8, 59, 101
11, 168562, Note_off_c, 8, 59, 0
11, 168565, Note_off_c, 8, 55, 0
11, 170641, Control_c, 8, 7, 90
11, 170641, End_track
12, 0, Start_track
12, 0, Title_t, "\000"
12, 0, Program_c, 9, 8
12, 0, Note_on_c, 9, 42, 110
12, 90, Note_off_c, 9, 42, 0
12, 480, Note_on_c, 9, 42, 90
12, 569, Note_off_c, 9, 42, 0
12, 960, Note_on_c, 9, 42, 90
12, 1048, Note_off_c, 9, 42, 0
12, 1440, Note_on_c, 9, 42, 90
12, 1516, Note_off_c, 9, 42, 0
12, 5760, Note_on_c, 9, 70, 105
12, 5760, Note_on_c, 9, 82, 76
12, 5828, Note_off_c, 9, 82, 0
12, 5838, Note_off_c, 9, 70, 0
12, 5880, Note_on_c, 9, 82, 30
12, 5944, Note_off_c, 9, 82, 0
12, 6000, Note_on_c, 9, 82, 56
12, 6054, Note_off_c, 9, 82, 0
12, 6120, Note_on_c, 9, 82, 45
12, 6178, Note_off_c, 9, 82, 0
12, 6240, Note_on_c, 9, 70, 100
12, 6240, Note_on_c, 9, 82, 76
12, 6307, Note_off_c, 9, 82, 0
12, 6323, Note_off_c, 9, 70, 0
12, 6360, Note_on_c, 9, 82, 27
12, 6419, Note_off_c, 9, 82, 0
12, 6480, Note_on_c, 9, 82, 54
12, 6540, Note_off_c, 9, 82, 0
12, 6600, Note_on_c, 9, 82, 45
12, 6659, Note_off_c, 9, 82, 0
12, 6720, Note_on_c, 9, 70, 103
12, 6720, Note_on_c, 9, 82, 77
12, 6795, Note_off_c, 9, 82, 0
12, 6798, Note_off_c, 9, 70, 0
12, 6840, Note_on_c, 9, 82, 27
12, 6878, Note_off_c, 9, 82, 0
12, 6960, Note_on_c, 9, 82, 57
12, 7017, Note_off_c, 9, 82, 0
12, 7080, Note_on_c, 9, 82, 44
12, 7138, Note_off_c, 9, 82, 0
12, 7200, Note_on_c, 9, 70, 100
12, 7200, Note_on_c, 9, 82, 76
12, 7268, Note_off_c, 9, 70, 0
12, 7271, Note_off_c, 9, 82, 0
12, 7320, Note_on_c, 9, 82, 27
12, 7369, Note_off_c, 9, 82, 0
12, 7440, Note_on_c, 9, 82, 59
12, 7492, Note_off_c, 9, 82, 0
12, 7560, Note_on_c, 9, 82, 46
12, 7599, Note_off_c, 9, 82, 0
12, 7680, Note_on_c, 9, 70, 105
12, 7680, Note_on_c, 9, 82, 76
12, 7748, Note_off_c, 9, 82, 0
12, 7758, Note_off_c, 9, 70, 0
12, 7800, Note_on_c, 9, 82, 30
12, 7864, Note_off_c, 9, 82, 0
12, 7920, Note_on_c, 9, 82, 56
12, 7974, Note_off_c, 9, 82, 0
12, 8040, Note_on_c, 9, 82, 45
12, 8098, Note_off_c, 9, 82, 0
12, 8160, Note_on_c, 9, 70, 100
12, 8160, Note_on_c, 9, 82, 76
12, 8227, Note_off_c, 9, 82, 0
12, 8243, Note_off_c, 9, 70, 0
12, 8280, Note_on_c, 9, 82, 27
12, 8339, Note_off_c, 9, 82, 0
12, 8400, Note_on_c, 9, 82, 54
12, 8460, Note_off_c, 9, 82, 0
12, 8520, Note_on_c, 9, 82, 45
12, 8579, Note_off_c, 9, 82, 0
12, 8640, Note_on_c, 9, 70, 103
12, 8640, Note_on_c, 9, 82, 77
12, 8715, Note_off_c, 9, 82, 0
12, 8718, Note_off_c, 9, 70, 0
12, 8760, Note_on_c, 9, 82, 27
12, 8798, Note_off_c, 9, 82, 0
12, 8880, Note_on_c, 9, 82, 57
12, 8937, Note_off_c, 9, 82, 0
12, 9000, Note_on_c, 9, 82, 44
12, 9058, Note_off_c, 9, 82, 0
12, 9120, Note_on_c, 9, 70, 100
12, 9120, Note_on_c, 9, 82, 76
12, 9188, Note_off_c, 9, 70, 0
12, 9191, Note_off_c, 9, 82, 0
12, 9240, Note_on_c, 9, 82, 27
12, 9289, Note_off_c, 9, 82, 0
12, 9360, Note_on_c, 9, 82, 59
12, 9412, Note_off_c, 9, 82, 0
12, 9480, Note_on_c, 9, 82, 46
12, 9519, Note_off_c, 9, 82, 0
12, 9600, Note_on_c, 9, 27, 112
12, 9600, Note_on_c, 9, 35, 117
12, 9600, Note_on_c, 9, 42, 72
12, 9600, Note_on_c, 9, 70, 105
12, 9600, Note_on_c, 9, 82, 76
12, 9654, Note_off_c, 9, 42, 0
12, 9668, Note_off_c, 9, 82, 0
12, 9678, Note_off_c, 9, 70, 0
12, 9685, Note_off_c, 9, 35, 0
12, 9708, Note_off_c, 9, 27, 0
12, 9720, Note_on_c, 9, 82, 30
12, 9784, Note_off_c, 9, 82, 0
12, 9840, Note_on_c, 9, 42, 105
12, 9840, Note_on_c, 9, 82, 56
12, 9894, Note_off_c, 9, 82, 0
12, 9911, Note_off_c, 9, 42, 0
12, 9960, Note_on_c, 9, 27, 114
12, 9960, Note_on_c, 9, 35, 122
12, 9960, Note_on_c, 9, 42, 83
12, 9960, Note_on_c, 9, 82, 45
12, 10008, Note_off_c, 9, 42, 0
12, 10018, Note_off_c, 9, 82, 0
12, 10040, Note_off_c, 9, 35, 0
12, 10054, Note_off_c, 9, 27, 0
12, 10080, Note_on_c, 9, 39, 110
12, 10080, Note_on_c, 9, 40, 107
12, 10080, Note_on_c, 9, 42, 71
12, 10080, Note_on_c, 9, 70, 100
12, 10080, Note_on_c, 9, 82, 76
12, 10147, Note_off_c, 9, 82, 0
12, 10150, Note_off_c, 9, 42, 0
12, 10163, Note_off_c, 9, 70, 0
12, 10171, Note_off_c, 9, 40, 0
12, 10178, Note_off_c, 9, 39, 0
12, 10200, Note_on_c, 9, 82, 27
12, 10259, Note_off_c, 9, 82, 0
12, 10320, Note_on_c, 9, 27, 104
12, 10320, Note_on_c, 9, 35, 118
12, 10320, Note_on_c, 9, 42, 105
12, 10320, Note_on_c, 9, 82, 54
12, 10380, Note_off_c, 9, 82, 0
12, 10384, Note_off_c, 9, 35, 0
12, 10389, Note_off_c, 9, 27, 0
12, 10401, Note_off_c, 9, 42, 0
12, 10440, Note_on_c, 9, 82, 45
12, 10499, Note_off_c, 9, 82, 0
12, 10560, Note_on_c, 9, 42, 65
12, 10560, Note_on_c, 9, 70, 103
12, 10560, Note_on_c, 9, 82, 77
12, 10635, Note_off_c, 9, 82, 0
12, 10638, Note_off_c, 9, 42, 0
12, 10638, Note_off_c, 9, 70, 0
12, 10680, Note_on_c, 9, 82, 27
12, 10718, Note_off_c, 9, 82, 0
12, 10800, Note_on_c, 9, 42, 100
12, 10800, Note_on_c, 9, 82, 57
12, 10857, Note_off_c, 9, 82, 0
12, 10868, Note_off_c, 9, 42, 0
12, 10920, Note_on_c, 9, 27, 112
12, 10920, Note_on_c, 9, 35, 119
12, 10920, Note_on_c, 9, 42, 68
12, 10920, Note_on_c, 9, 82, 44
12, 10969, Note_off_c, 9, 42, 0
12, 10978, Note_off_c, 9, 82, 0
12, 10997, Note_off_c, 9, 35, 0
12, 11008, Note_off_c, 9, 27, 0
12, 11040, Note_on_c, 9, 39, 113
12, 11040, Note_on_c, 9, 40, 111
12, 11040, Note_on_c, 9, 42, 88
12, 11040, Note_on_c, 9, 70, 100
12, 11040, Note_on_c, 9, 82, 76
12, 11103, Note_off_c, 9, 42, 0
12, 11108, Note_off_c, 9, 70, 0
12, 11111, Note_off_c, 9, 82, 0
12, 11130, Note_off_c, 9, 40, 0
12, 11131, Note_off_c, 9, 39, 0
12, 11160, Note_on_c, 9, 82, 27
12, 11209, Note_off_c, 9, 82, 0
12, 11280, Note_on_c, 9, 27, 110
12, 11280, Note_on_c, 9, 35, 122
12, 11280, Note_on_c, 9, 42, 103
12, 11280, Note_on_c, 9, 82, 59
12, 11332, Note_off_c, 9, 82, 0
12, 11354, Note_off_c, 9, 35, 0
12, 11364, Note_off_c, 9, 42, 0
12, 11371, Note_off_c, 9, 27, 0
12, 11400, Note_on_c, 9, 82, 46
12, 11439, Note_off_c, 9, 82, 0
12, 11520, Note_on_c, 9, 42, 72
12, 11520, Note_on_c, 9, 70, 105
12, 11520, Note_on_c, 9, 82, 76
12, 11574, Note_off_c, 9, 42, 0
12, 11588, Note_off_c, 9, 82, 0
12, 11598, Note_off_c, 9, 70, 0
12, 11640, Note_on_c, 9, 82, 30
12, 11704, Note_off_c, 9, 82, 0
12, 11760, Note_on_c, 9, 42, 105
12, 11760, Note_on_c, 9, 82, 56
12, 11814, Note_off_c, 9, 82, 0
12, 11831, Note_off_c, 9, 42, 0
12, 11880, Note_on_c, 9, 27, 114
12, 11880, Note_on_c, 9, 35, 122
12, 11880, Note_on_c, 9, 42, 83
12, 11880, Note_on_c, 9, 82, 45
12, 11928, Note_off_c, 9, 42, 0
12, 11938, Note_off_c, 9, 82, 0
12, 11960, Note_off_c, 9, 35, 0
12, 11974, Note_off_c, 9, 27, 0
12, 12000, Note_on_c, 9, 39, 110
12, 12000, Note_on_c, 9, 40, 107
12, 12000, Note_on_c, 9, 42, 71
12, 12000, Note_on_c, 9, 70, 100
12, 12000, Note_on_c, 9, 82, 76
12, 12067, Note_off_c, 9, 82, 0
12, 12070, Note_off_c, 9, 42, 0
12, 12083, Note_off_c, 9, 70, 0
12, 12091, Note_off_c, 9, 40, 0
12, 12098, Note_off_c, 9, 39, 0
12, 12120, Note_on_c, 9, 82, 27
12, 12179, Note_off_c, 9, 82, 0
12, 12240, Note_on_c, 9, 27, 104
12, 12240, Note_on_c, 9, 35, 118
12, 12240, Note_on_c, 9, 42, 105
12, 12240, Note_on_c, 9, 82, 54
12, 12300, Note_off_c, 9, 82, 0
12, 12304, Note_off_c, 9, 35, 0
12, 12309, Note_off_c, 9, 27, 0
12, 12321, Note_off_c, 9, 42, 0
12, 12360, Note_on_c, 9, 82, 45
12, 12419, Note_off_c, 9, 82, 0
12, 12480, Note_on_c, 9, 42, 65
12, 12480, Note_on_c, 9, 70, 103
12, 12480, Note_on_c, 9, 82, 77
12, 12555, Note_off_c, 9, 82, 0
12, 12558, Note_off_c, 9, 42, 0
12, 12558, Note_off_c, 9, 70, 0
12, 12600, Note_on_c, 9, 82, 27
12, 12638, Note_off_c, 9, 82, 0
12, 12720, Note_on_c, 9, 42, 100
12, 12720, Note_on_c, 9, 82, 57
12, 12777, Note_off_c, 9, 82, 0
12, 12788, Note_off_c, 9, 42, 0
12, 12840, Note_on_c, 9, 27, 112
12, 12840, Note_on_c, 9, 35, 119
12, 12840, Note_on_c, 9, 42, 68
12, 12840, Note_on_c, 9, 82, 44
12, 12889, Note_off_c, 9, 42, 0
12, 12898, Note_off_c, 9, 82, 0
12, 12917, Note_off_c, 9, 35, 0
12, 12928, Note_off_c, 9, 27, 0
12, 12960, Note_on_c, 9, 39, 113
12, 12960, Note_on_c, 9, 40, 111
12, 12960, Note_on_c, 9, 42, 88
12, 12960, Note_on_c, 9, 70, 100
12, 12960, Note_on_c, 9, 82, 76
12, 13023, Note_off_c, 9, 42, 0
12, 13028, Note_off_c, 9, 70, 0
12, 13031, Note_off_c, 9, 82, 0
12, 13050, Note_off_c, 9, 40, 0
12, 13051, Note_off_c, 9, 39, 0
12, 13080, Note_on_c, 9, 82, 27
12, 13129, Note_off_c, 9, 82, 0
12, 13200, Note_on_c, 9, 27, 110
12, 13200, Note_on_c, 9, 35, 122
12, 13200, Note_on_c, 9, 42, 103
12, 13200, Note_on_c, 9, 82, 59
12, 13252, Note_off_c, 9, 82, 0
12, 13274, Note_off_c, 9, 35, 0
12, 13284, Note_off_c, 9, 42, 0
12, 13291, Note_off_c, 9, 27, 0
12, 13320, Note_on_c, 9, 82, 46
12, 13359, Note_off_c, 9, 82, 0
12, 13440, Note_on_c, 9, 42, 72
12, 13440, Note_on_c, 9, 70, 105
12, 13440, Note_on_c, 9, 82, 76
12, 13494, Note_off_c, 9, 42, 0
12, 13508, Note_off_c, 9, 82, 0
12, 13518, Note_off_c, 9, 70, 0
12, 13560, Note_on_c, 9, 82, 30
12, 13624, Note_off_c, 9, 82, 0
12, 13680, Note_on_c, 9, 42, 105
12, 13680, Note_on_c, 9, 82, 56
12, 13734, Note_off_c, 9, 82, 0
12, 13751, Note_off_c, 9, 42, 0
12, 13800, Note_on_c, 9, 27, 114
12, 13800, Note_on_c, 9, 35, 122
12, 13800, Note_on_c, 9, 42, 83
12, 13800, Note_on_c, 9, 82, 45
12, 13848, Note_off_c, 9, 42, 0
12, 13858, Note_off_c, 9, 82, 0
12, 13880, Note_off_c, 9, 35, 0
12, 13894, Note_off_c, 9, 27, 0
12, 13920, Note_on_c, 9, 39, 110
12, 13920, Note_on_c, 9, 40, 107
12, 13920, Note_on_c, 9, 42, 71
12, 13920, Note_on_c, 9, 70, 100
12, 13920, Note_on_c, 9, 82, 76
12, 13987, Note_off_c, 9, 82, 0
12, 13990, Note_off_c, 9, 42, 0
12, 14003, Note_off_c, 9, 70, 0
12, 14011, Note_off_c, 9, 40, 0
12, 14018, Note_off_c, 9, 39, 0
12, 14040, Note_on_c, 9, 82, 27
12, 14099, Note_off_c, 9, 82, 0
12, 14160, Note_on_c, 9, 27, 104
12, 14160, Note_on_c, 9, 35, 118
12, 14160, Note_on_c, 9, 42, 105
12, 14160, Note_on_c, 9, 82, 54
12, 14220, Note_off_c, 9, 82, 0
12, 14224, Note_off_c, 9, 35, 0
12, 14229, Note_off_c, 9, 27, 0
12, 14241, Note_off_c, 9, 42, 0
12, 14280, Note_on_c, 9, 82, 45
12, 14339, Note_off_c, 9, 82, 0
12, 14400, Note_on_c, 9, 42, 65
12, 14400, Note_on_c, 9, 70, 103
12, 14400, Note_on_c, 9, 82, 77
12, 14475, Note_off_c, 9, 82, 0
12, 14478, Note_off_c, 9, 42, 0
12, 14478, Note_off_c, 9, 70, 0
12, 14520, Note_on_c, 9, 82, 27
12, 14558, Note_off_c, 9, 82, 0
12, 14640, Note_on_c, 9, 42, 100
12, 14640, Note_on_c, 9, 82, 57
12, 14697, Note_off_c, 9, 82, 0
12, 14708, Note_off_c, 9, 42, 0
12, 14760, Note_on_c, 9, 27, 112
12, 14760, Note_on_c, 9, 35, 119
12, 14760, Note_on_c, 9, 42, 68
12, 14760, Note_on_c, 9, 82, 44
12, 14809, Note_off_c, 9, 42, 0
12, 14818, Note_off_c, 9, 82, 0
12, 14837, Note_off_c, 9, 35, 0
12, 14848, Note_off_c, 9, 27, 0
12, 14880, Note_on_c, 9, 39, 113
12, 14880, Note_on_c, 9, 40, 111
12, 14880, Note_on_c, 9, 42, 88
12, 14880, Note_on_c, 9, 70, 100
12, 14880, Note_on_c, 9, 82, 76
12, 14943, Note_off_c, 9, 42, 0
12, 14948, Note_off_c, 9, 70, 0
12, 14951, Note_off_c, 9, 82, 0
12, 14970, Note_off_c, 9, 40, 0
12, 14971, Note_off_c, 9, 39, 0
12, 15000, Note_on_c, 9, 82, 27
12, 15049, Note_off_c, 9, 82, 0
12, 15120, Note_on_c, 9, 27, 110
12, 15120, Note_on_c, 9, 35, 122
12, 15120, Note_on_c, 9, 42, 103
12, 15120, Note_on_c, 9, 82, 59
12, 15172, Note_off_c, 9, 82, 0
12, 15194, Note_off_c, 9, 35, 0
12, 15204, Note_off_c, 9, 42, 0
12, 15211, Note_off_c, 9, 27, 0
12, 15240, Note_on_c, 9, 82, 46
12, 15279, Note_off_c, 9, 82, 0
12, 15360, Note_on_c, 9, 42, 72
12, 15360, Note_on_c, 9, 70, 105
12, 15360, Note_on_c, 9, 82, 76
12, 15414, Note_off_c, 9, 42, 0
12, 15428, Note_off_c, 9, 82, 0
12, 15438, Note_off_c, 9, 70, 0
12, 15480, Note_on_c, 9, 82, 30
12, 15544, Note_off_c, 9, 82, 0
12, 15600, Note_on_c, 9, 42, 105
12, 15600, Note_on_c, 9, 82, 56
12, 15654, Note_off_c, 9, 82, 0
12, 15671, Note_off_c, 9, 42, 0
12, 15720, Note_on_c, 9, 27, 114
12, 15720, Note_on_c, 9, 35, 122
12, 15720, Note_on_c, 9, 42, 83
12, 15720, Note_on_c, 9, 82, 45
12, 15768, Note_off_c, 9, 42, 0
12, 15778, Note_off_c, 9, 82, 0
12, 15800, Note_off_c, 9, 35, 0
12, 15814, Note_off_c, 9, 27, 0
12, 15840, Note_on_c, 9, 39, 110
12, 15840, Note_on_c, 9, 40, 107
12, 15840, Note_on_c, 9, 42, 71
12, 15840, Note_on_c, 9, 70, 100
12, 15840, Note_on_c, 9, 82, 76
12, 15907, Note_off_c, 9, 82, 0
12, 15910, Note_off_c, 9, 42, 0
12, 15923, Note_off_c, 9, 70, 0
12, 15931, Note_off_c, 9, 40, 0
12, 15938, Note_off_c, 9, 39, 0
12, 15960, Note_on_c, 9, 82, 27
12, 16019, Note_off_c, 9, 82, 0
12, 16080, Note_on_c, 9, 27, 104
12, 16080, Note_on_c, 9, 35, 118
12, 16080, Note_on_c, 9, 42, 105
12, 16080, Note_on_c, 9, 82, 54
12, 16140, Note_off_c, 9, 82, 0
12, 16144, Note_off_c, 9, 35, 0
12, 16149, Note_off_c, 9, 27, 0
12, 16161, Note_off_c, 9, 42, 0
12, 16200, Note_on_c, 9, 82, 45
12, 16259, Note_off_c, 9, 82, 0
12, 16320, Note_on_c, 9, 42, 65
12, 16320, Note_on_c, 9, 70, 103
12, 16320, Note_on_c, 9, 82, 77
12, 16395, Note_off_c, 9, 82, 0
12, 16398, Note_off_c, 9, 42, 0
12, 16398, Note_off_c, 9, 70, 0
12, 16440, Note_on_c, 9, 82, 27
12, 16478, Note_off_c, 9, 82, 0
12, 16560, Note_on_c, 9, 42, 100
12, 16560, Note_on_c, 9, 82, 57
12, 16617, Note_off_c, 9, 82, 0
12, 16628, Note_off_c, 9, 42, 0
12, 16680, Note_on_c, 9, 27, 112
12, 16680, Note_on_c, 9, 35, 119
12, 16680, Note_on_c, 9, 42, 68
12, 16680, Note_on_c, 9, 82, 44
12, 16729, Note_off_c, 9, 42, 0
12, 16738, Note_off_c, 9, 82, 0
12, 16757, Note_off_c, 9, 35, 0
12, 16768, Note_off_c, 9, 27, 0
12, 16800, Note_on_c, 9, 39, 113
12, 16800, Note_on_c, 9, 40, 111
12, 16800, Note_on_c, 9, 42, 88
12, 16800, Note_on_c, 9, 70, 100
12, 16800, Note_on_c, 9, 82, 76
12, 16863, Note_off_c, 9, 42, 0
12, 16868, Note_off_c, 9, 70, 0
12, 16871, Note_off_c, 9, 82, 0
12, 16890, Note_off_c, 9, 40, 0
12, 16891, Note_off_c, 9, 39, 0
12, 16920, Note_on_c, 9, 82, 27
12, 16969, Note_off_c, 9, 82, 0
12, 17040, Note_on_c, 9, 27, 110
12, 17040, Note_on_c, 9, 35, 122
12, 17040, Note_on_c, 9, 42, 103
12, 17040, Note_on_c, 9, 82, 59
12, 17092, Note_off_c, 9, 82, 0
12, 17114, Note_off_c, 9, 35, 0
12, 17124, Note_off_c, 9, 42, 0
12, 17131, Note_off_c, 9, 27, 0
12, 17160, Note_on_c, 9, 82, 46
12, 17199, Note_off_c, 9, 82, 0
12, 17280, Note_on_c, 9, 27, 112
12, 17280, Note_on_c, 9, 35, 117
12, 17280, Note_on_c, 9, 42, 72
12, 17280, Note_on_c, 9, 57, 90
12, 17280, Note_on_c, 9, 70, 105
12, 17280, Note_on_c, 9, 82, 76
12, 17334, Note_off_c, 9, 42, 0
12, 17348, Note_off_c, 9, 82, 0
12, 17358, Note_off_c, 9, 70, 0
12, 17364, Note_off_c, 9, 57, 0
12, 17365, Note_off_c, 9, 35, 0
12, 17388, Note_off_c, 9, 27, 0
12, 17400, Note_on_c, 9, 82, 30
12, 17464, Note_off_c, 9, 82, 0
12, 17520, Note_on_c, 9, 42, 105
12, 17520, Note_on_c, 9, 82, 56
12, 17574, Note_off_c, 9, 82, 0
12, 17591, Note_off_c, 9, 42, 0
12, 17640, Note_on_c, 9, 27, 114
12, 17640, Note_on_c, 9, 35, 122
12, 17640, Note_on_c, 9, 42, 83
12, 17640, Note_on_c, 9, 82, 45
12, 17688, Note_off_c, 9, 42, 0
12, 17698, Note_off_c, 9, 82, 0
12, 17720, Note_off_c, 9, 35, 0
12, 17734, Note_off_c, 9, 27, 0
12, 17760, Note_on_c, 9, 39, 110
12, 17760, Note_on_c, 9, 40, 107
12, 17760, Note_on_c, 9, 42, 71
12, 17760, Note_on_c, 9, 70, 100
12, 17760, Note_on_c, 9, 82, 76
12, 17827, Note_off_c, 9, 82, 0
12, 17830, Note_off_c, 9, 42, 0
12, 17843, Note_off_c, 9, 70, 0
12, 17851, Note_off_c, 9, 40, 0
12, 17858, Note_off_c, 9, 39, 0
12, 17880, Note_on_c, 9, 82, 27
12, 17939, Note_off_c, 9, 82, 0
12, 18000, Note_on_c, 9, 27, 104
12, 18000, Note_on_c, 9, 35, 118
12, 18000, Note_on_c, 9, 42, 105
12, 18000, Note_on_c, 9, 82, 54
12, 18060, Note_off_c, 9, 82, 0
12, 18064, Note_off_c, 9, 35, 0
12, 18069, Note_off_c, 9, 27, 0
12, 18081, Note_off_c, 9, 42, 0
12, 18120, Note_on_c, 9, 82, 45
12, 18179, Note_off_c, 9, 82, 0
12, 18240, Note_on_c, 9, 42, 65
12, 18240, Note_on_c, 9, 70, 103
12, 18240, Note_on_c, 9, 82, 77
12, 18315, Note_off_c, 9, 82, 0
12, 18318, Note_off_c, 9, 42, 0
12, 18318, Note_off_c, 9, 70, 0
12, 18360, Note_on_c, 9, 82, 27
12, 18398, Note_off_c, 9, 82, 0
12, 18480, Note_on_c, 9, 42, 100
12, 18480, Note_on_c, 9, 82, 57
12, 18537, Note_off_c, 9, 82, 0
12, 18548, Note_off_c, 9, 42, 0
12, 18600, Note_on_c, 9, 27, 112
12, 18600, Note_on_c, 9, 35, 119
12, 18600, Note_on_c, 9, 42, 68
12, 18600, Note_on_c, 9, 82, 44
12, 18649, Note_off_c, 9, 42, 0
12, 18658, Note_off_c, 9, 82, 0
12, 18677, Note_off_c, 9, 35, 0
12, 18688, Note_off_c, 9, 27, 0
12, 18720, Note_on_c, 9, 39, 113
12, 18720, Note_on_c, 9, 40, 111
12, 18720, Note_on_c, 9, 42, 88
12, 18720, Note_on_c, 9, 70, 100
12, 18720, Note_on_c, 9, 82, 76
12, 18783, Note_off_c, 9, 42, 0
12, 18788, Note_off_c, 9, 70, 0
12, 18791, Note_off_c, 9, 82, 0
12, 18810, Note_off_c, 9, 40, 0
12, 18811, Note_off_c, 9, 39, 0
12, 18840, Note_on_c, 9, 82, 27
12, 18889, Note_off_c, 9, 82, 0
12, 18960, Note_on_c, 9, 27, 110
12, 18960, Note_on_c, 9, 35, 122
12, 18960, Note_on_c, 9, 42, 103
12, 18960, Note_on_c, 9, 82, 59
12, 19012, Note_off_c, 9, 82, 0
12, 19034, Note_off_c, 9, 35, 0
12, 19044, Note_off_c, 9, 42, 0
12, 19051, Note_off_c, 9, 27, 0
12, 19080, Note_on_c, 9, 82, 46
12, 19119, Note_off_c, 9, 82, 0
12, 19200, Note_on_c, 9, 27, 112
12, 19200, Note_on_c, 9, 35, 117
12, 19200, Note_on_c, 9, 42, 72
12, 19200, Note_on_c, 9, 70, 105
12, 19200, Note_on_c, 9, 82, 76
12, 19254, Note_off_c, 9, 42, 0
12, 19268, Note_off_c, 9, 82, 0
12, 19278, Note_off_c, 9, 70, 0
12, 19285, Note_off_c, 9, 35, 0
12, 19308, Note_off_c, 9, 27, 0
12, 19320, Note_on_c, 9, 82, 30
12, 19384, Note_off_c, 9, 82, 0
12, 19440, Note_on_c, 9, 42, 105
12, 19440, Note_on_c, 9, 82, 56
12, 19494, Note_off_c, 9, 82, 0
12, 19511, Note_off_c, 9, 42, 0
12, 19560, Note_on_c, 9, 27, 114
12, 19560, Note_on_c, 9, 35, 122
12, 19560, Note_on_c, 9, 42, 83
12, 19560, Note_on_c, 9, 82, 45
12, 19608, Note_off_c, 9, 42, 0
12, 19618, Note_off_c, 9, 82, 0
12, 19640, Note_off_c, 9, 35, 0
12, 19654, Note_off_c, 9, 27, 0
12, 19680, Note_on_c, 9, 39, 110
12, 19680, Note_on_c, 9, 40, 107
12, 19680, Note_on_c, 9, 42, 71
12, 19680, Note_on_c, 9, 70, 100
12, 19680, Note_on_c, 9, 82, 76
12, 19747, Note_off_c, 9, 82, 0
12, 19750, Note_off_c, 9, 42, 0
12, 19763, Note_off_c, 9, 70, 0
12, 19771, Note_off_c, 9, 40, 0
12, 19778, Note_off_c, 9, 39, 0
12, 19800, Note_on_c, 9, 82, 27
12, 19859, Note_off_c, 9, 82, 0
12, 19920, Note_on_c, 9, 27, 104
12, 19920, Note_on_c, 9, 35, 118
12, 19920, Note_on_c, 9, 42, 105
12, 19920, Note_on_c, 9, 82, 54
12, 19980, Note_off_c, 9, 82, 0
12, 19984, Note_off_c, 9, 35, 0
12, 19989, Note_off_c, 9, 27, 0
12, 20001, Note_off_c, 9, 42, 0
12, 20040, Note_on_c, 9, 82, 45
12, 20099, Note_off_c, 9, 82, 0
12, 20160, Note_on_c, 9, 42, 65
12, 20160, Note_on_c, 9, 70, 103
12, 20160, Note_on_c, 9, 82, 77
12, 20235, Note_off_c, 9, 82, 0
12, 20238, Note_off_c, 9, 42, 0
12, 20238, Note_off_c, 9, 70, 0
12, 20280, Note_on_c, 9, 82, 27
12, 20318, Note_off_c, 9, 82, 0
12, 20400, Note_on_c, 9, 42, 100
12, 20400, Note_on_c, 9, 82, 57
12, 20457, Note_off_c, 9, 82, 0
12, 20468, Note_off_c, 9, 42, 0
12, 20520, Note_on_c, 9, 27, 112
12, 20520, Note_on_c, 9, 35, 119
12, 20520, Note_on_c, 9, 42, 68
12, 20520, Note_on_c, 9, 82, 44
12, 20569, Note_off_c, 9, 42, 0
12, 20578, Note_off_c, 9, 82, 0
12, 20597, Note_off_c, 9, 35, 0
12, 20608, Note_off_c, 9, 27, 0
12, 20640, Note_on_c, 9, 39, 113
12, 20640, Note_on_c, 9, 40, 111
12, 20640, Note_on_c, 9, 42, 88
12, 20640, Note_on_c, 9, 70, 100
12, 20640, Note_on_c, 9, 82, 76
12, 20703, Note_off_c, 9, 42, 0
12, 20708, Note_off_c, 9, 70, 0
12, 20711, Note_off_c, 9, 82, 0
12, 20730, Note_off_c, 9, 40, 0
12, 20731, Note_off_c, 9, 39, 0
12, 20760, Note_on_c, 9, 82, 27
12, 20809, Note_off_c, 9, 82, 0
12, 20880, Note_on_c, 9, 27, 110
12, 20880, Note_on_c, 9, 35, 122
12, 20880, Note_on_c, 9, 42, 103
12, 20880, Note_on_c, 9, 82, 59
12, 20932, Note_off_c, 9, 82, 0
12, 20954, Note_off_c, 9, 35, 0
12, 20964, Note_off_c, 9, 42, 0
12, 20971, Note_off_c, 9, 27, 0
12, 21000, Note_on_c, 9, 82, 46
12, 21039, Note_off_c, 9, 82, 0
12, 21120, Note_on_c, 9, 27, 112
12, 21120, Note_on_c, 9, 35, 117
12, 21120, Note_on_c, 9, 42, 72
12, 21120, Note_on_c, 9, 70, 105
12, 21120, Note_on_c, 9, 82, 76
12, 21174, Note_off_c, 9, 42, 0
12, 21188, Note_off_c, 9, 82, 0
12, 21198, Note_off_c, 9, 70, 0
12, 21205, Note_off_c, 9, 35, 0
12, 21228, Note_off_c, 9, 27, 0
12, 21240, Note_on_c, 9, 82, 30
12, 21304, Note_off_c, 9, 82, 0
12, 21360, Note_on_c, 9, 42, 105
12, 21360, Note_on_c, 9, 82, 56
12, 21414, Note_off_c, 9, 82, 0
12, 21431, Note_off_c, 9, 42, 0
12, 21480, Note_on_c, 9, 27, 114
12, 21480, Note_on_c, 9, 35, 122
12, 21480, Note_on_c, 9, 42, 83
12, 21480, Note_on_c, 9, 82, 45
12, 21528, Note_off_c, 9, 42, 0
12, 21538, Note_off_c, 9, 82, 0
12, 21560, Note_off_c, 9, 35, 0
12, 21574, Note_off_c, 9, 27, 0
12, 21600, Note_on_c, 9, 39, 110
12, 21600, Note_on_c, 9, 40, 107
12, 21600, Note_on_c, 9, 42, 71
12, 21600, Note_on_c, 9, 70, 100
12, 21600, Note_on_c, 9, 82, 76
12, 21667, Note_off_c, 9, 82, 0
12, 21670, Note_off_c, 9, 42, 0
12, 21683, Note_off_c, 9, 70, 0
12, 21691, Note_off_c, 9, 40, 0
12, 21698, Note_off_c, 9, 39, 0
12, 21720, Note_on_c, 9, 82, 27
12, 21779, Note_off_c, 9, 82, 0
12, 21840, Note_on_c, 9, 27, 104
12, 21840, Note_on_c, 9, 35, 118
12, 21840, Note_on_c, 9, 42, 105
12, 21840, Note_on_c, 9, 82, 54
12, 21900, Note_off_c, 9, 82, 0
12, 21904, Note_off_c, 9, 35, 0
12, 21909, Note_off_c, 9, 27, 0
12, 21921, Note_off_c, 9, 42, 0
12, 21960, Note_on_c, 9, 82, 45
12, 22019, Note_off_c, 9, 82, 0
12, 22080, Note_on_c, 9, 42, 65
12, 22080, Note_on_c, 9, 70, 103
12, 22080, Note_on_c, 9, 82, 77
12, 22155, Note_off_c, 9, 82, 0
12, 22158, Note_off_c, 9, 42, 0
12, 22158, Note_off_c, 9, 70, 0
12, 22200, Note_on_c, 9, 82, 27
12, 22238, Note_off_c, 9, 82, 0
12, 22320, Note_on_c, 9, 42, 100
12, 22320, Note_on_c, 9, 82, 57
12, 22377, Note_off_c, 9, 82, 0
12, 22388, Note_off_c, 9, 42, 0
12, 22440, Note_on_c, 9, 27, 112
12, 22440, Note_on_c, 9, 35, 119
12, 22440, Note_on_c, 9, 42, 68
12, 22440, Note_on_c, 9, 82, 44
12, 22489, Note_off_c, 9, 42, 0
12, 22498, Note_off_c, 9, 82, 0
12, 22517, Note_off_c, 9, 35, 0
12, 22528, Note_off_c, 9, 27, 0
12, 22560, Note_on_c, 9, 39, 113
12, 22560, Note_on_c, 9, 40, 111
12, 22560, Note_on_c, 9, 42, 88
12, 22560, Note_on_c, 9, 70, 100
12, 22560, Note_on_c, 9, 82, 76
12, 22623, Note_off_c, 9, 42, 0
12, 22628, Note_off_c, 9, 70, 0
12, 22631, Note_off_c, 9, 82, 0
12, 22650, Note_off_c, 9, 40, 0
12, 22651, Note_off_c, 9, 39, 0
12, 22680, Note_on_c, 9, 82, 27
12, 22729, Note_off_c, 9, 82, 0
12, 22800, Note_on_c, 9, 27, 110
12, 22800, Note_on_c, 9, 35, 122
12, 22800, Note_on_c, 9, 42, 103
12, 22800, Note_on_c, 9, 82, 59
12, 22852, Note_off_c, 9, 82, 0
12, 22874, Note_off_c, 9, 35, 0
12, 22884, Note_off_c, 9, 42, 0
12, 22891, Note_off_c, 9, 27, 0
12, 22920, Note_on_c, 9, 82, 46
12, 22959, Note_off_c, 9, 82, 0
12, 23040, Note_on_c, 9, 27, 112
12, 23040, Note_on_c, 9, 35, 117
12, 23040, Note_on_c, 9, 42, 72
12, 23040, Note_on_c, 9, 70, 105
12, 23040, Note_on_c, 9, 82, 76
12, 23094, Note_off_c, 9, 42, 0
12, 23108, Note_off_c, 9, 82, 0
12, 23118, Note_off_c, 9, 70, 0
12, 23125, Note_off_c, 9, 35, 0
12, 23148, Note_off_c, 9, 27, 0
12, 23160, Note_on_c, 9, 82, 30
12, 23224, Note_off_c, 9, 82, 0
12, 23280, Note_on_c, 9, 42, 105
12, 23280, Note_on_c, 9, 82, 56
12, 23334, Note_off_c, 9, 82, 0
12, 23351, Note_off_c, 9, 42, 0
12, 23400, Note_on_c, 9, 27, 114
12, 23400, Note_on_c, 9, 35, 122
12, 23400, Note_on_c, 9, 42, 83
12, 23400, Note_on_c, 9, 82, 45
12, 23448, Note_off_c, 9, 42, 0
12, 23458, Note_off_c, 9, 82, 0
12, 23480, Note_off_c, 9, 35, 0
12, 23494, Note_off_c, 9, 27, 0
12, 23520, Note_on_c, 9, 39, 110
12, 23520, Note_on_c, 9, 40, 107
12, 23520, Note_on_c, 9, 42, 71
12, 23520, Note_on_c, 9, 70, 100
12, 23520, Note_on_c, 9, 82, 76
12, 23587, Note_off_c, 9, 82, 0
12, 23590, Note_off_c, 9, 42, 0
12, 23603, Note_off_c, 9, 70, 0
12, 23611, Note_off_c, 9, 40, 0
12, 23618, Note_off_c, 9, 39, 0
12, 23640, Note_on_c, 9, 82, 27
12, 23699, Note_off_c, 9, 82, 0
12, 23760, Note_on_c, 9, 27, 104
12, 23760, Note_on_c, 9, 35, 118
12, 23760, Note_on_c, 9, 42, 105
12, 23760, Note_on_c, 9, 82, 54
12, 23820, Note_off_c, 9, 82, 0
12, 23824, Note_off_c, 9, 35, 0
12, 23829, Note_off_c, 9, 27, 0
12, 23841, Note_off_c, 9, 42, 0
12, 23880, Note_on_c, 9, 82, 45
12, 23939, Note_off_c, 9, 82, 0
12, 24000, Note_on_c, 9, 42, 65
12, 24000, Note_on_c, 9, 70, 103
12, 24000, Note_on_c, 9, 82, 77
12, 24075, Note_off_c, 9, 82, 0
12, 24078, Note_off_c, 9, 42, 0
12, 24078, Note_off_c, 9, 70, 0
12, 24120, Note_on_c, 9, 82, 27
12, 24158, Note_off_c, 9, 82, 0
12, 24240, Note_on_c, 9, 42, 100
12, 24240, Note_on_c, 9, 82, 57
12, 24297, Note_off_c, 9, 82, 0
12, 24308, Note_off_c, 9, 42, 0
12, 24360, Note_on_c, 9, 27, 112
12, 24360, Note_on_c, 9, 35, 119
12, 24360, Note_on_c, 9, 42, 68
12, 24360, Note_on_c, 9, 82, 44
12, 24409, Note_off_c, 9, 42, 0
12, 24418, Note_off_c, 9, 82, 0
12, 24437, Note_off_c, 9, 35, 0
12, 24448, Note_off_c, 9, 27, 0
12, 24480, Note_on_c, 9, 39, 113
12, 24480, Note_on_c, 9, 40, 111
12, 24480, Note_on_c, 9, 42, 88
12, 24480, Note_on_c, 9, 70, 100
12, 24480, Note_on_c, 9, 82, 76
12, 24543, Note_off_c, 9, 42, 0
12, 24548, Note_off_c, 9, 70, 0
12, 24551, Note_off_c, 9, 82, 0
12, 24570, Note_off_c, 9, 40, 0
12, 24571, Note_off_c, 9, 39, 0
12, 24600, Note_on_c, 9, 82, 27
12, 24649, Note_off_c, 9, 82, 0
12, 24720, Note_on_c, 9, 27, 110
12, 24720, Note_on_c, 9, 35, 122
12, 24720, Note_on_c, 9, 42, 103
12, 24720, Note_on_c, 9, 82, 59
12, 24772, Note_off_c, 9, 82, 0
12, 24794, Note_off_c, 9, 35, 0
12, 24804, Note_off_c, 9, 42, 0
12, 24811, Note_off_c, 9, 27, 0
12, 24840, Note_on_c, 9, 82, 46
12, 24879, Note_off_c, 9, 82, 0
12, 24960, Note_on_c, 9, 27, 112
12, 24960, Note_on_c, 9, 35, 117
12, 24960, Note_on_c, 9, 42, 72
12, 24960, Note_on_c, 9, 70, 105
12, 24960, Note_on_c, 9, 82, 76
12, 25014, Note_off_c, 9, 42, 0
12, 25028, Note_off_c, 9, 82, 0
12, 25038, Note_off_c, 9, 70, 0
12, 25045, Note_off_c, 9, 35, 0
12, 25068, Note_off_c, 9, 27, 0
12, 25080, Note_on_c, 9, 82, 30
12, 25144, Note_off_c, 9, 82, 0
12, 25200, Note_on_c, 9, 42, 105
12, 25200, Note_on_c, 9, 82, 56
12, 25254, Note_off_c, 9, 82, 0
12, 25271, Note_off_c, 9, 42, 0
12, 25320, Note_on_c, 9, 27, 114
12, 25320, Note_on_c, 9, 35, 122
12, 25320, Note_on_c, 9, 42, 83
12, 25320, Note_on_c, 9, 82, 45
12, 25368, Note_off_c, 9, 42, 0
12, 25378, Note_off_c, 9, 82, 0
12, 25400, Note_off_c, 9, 35, 0
12, 25414, Note_off_c, 9, 27, 0
12, 25440, Note_on_c, 9, 39, 110
12, 25440, Note_on_c, 9, 40, 107
12, 25440, Note_on_c, 9, 42, 71
12, 25440, Note_on_c, 9, 70, 100
12, 25440, Note_on_c, 9, 82, 76
12, 25507, Note_off_c, 9, 82, 0
12, 25510, Note_off_c, 9, 42, 0
12, 25523, Note_off_c, 9, 70, 0
12, 25531, Note_off_c, 9, 40, 0
12, 25538, Note_off_c, 9, 39, 0
12, 25560, Note_on_c, 9, 82, 27
12, 25619, Note_off_c, 9, 82, 0
12, 25680, Note_on_c, 9, 27, 104
12, 25680, Note_on_c, 9, 35, 118
12, 25680, Note_on_c, 9, 42, 105
12, 25680, Note_on_c, 9, 82, 54
12, 25740, Note_off_c, 9, 82, 0
12, 25744, Note_off_c, 9, 35, 0
12, 25749, Note_off_c, 9, 27, 0
12, 25761, Note_off_c, 9, 42, 0
12, 25800, Note_on_c, 9, 82, 45
12, 25859, Note_off_c, 9, 82, 0
12, 25920, Note_on_c, 9, 42, 65
12, 25920, Note_on_c, 9, 70, 103
12, 25920, Note_on_c, 9, 82, 77
12, 25995, Note_off_c, 9, 82, 0
12, 25998, Note_off_c, 9, 42, 0
12, 25998, Note_off_c, 9, 70, 0
12, 26040, Note_on_c, 9, 82, 27
12, 26078, Note_off_c, 9, 82, 0
12, 26160, Note_on_c, 9, 42, 100
12, 26160, Note_on_c, 9, 82, 57
12, 26217, Note_off_c, 9, 82, 0
12, 26228, Note_off_c, 9, 42, 0
12, 26280, Note_on_c, 9, 27, 112
12, 26280, Note_on_c, 9, 35, 119
12, 26280, Note_on_c, 9, 42, 68
12, 26280, Note_on_c, 9, 82, 44
12, 26329, Note_off_c, 9, 42, 0
12, 26338, Note_off_c, 9, 82, 0
12, 26357, Note_off_c, 9, 35, 0
12, 26368, Note_off_c, 9, 27, 0
12, 26400, Note_on_c, 9, 39, 113
12, 26400, Note_on_c, 9, 40, 111
12, 26400, Note_on_c, 9, 42, 88
12, 26400, Note_on_c, 9, 70, 100
12, 26400, Note_on_c, 9, 82, 76
12, 26463, Note_off_c, 9, 42, 0
12, 26468, Note_off_c, 9, 70, 0
12, 26471, Note_off_c, 9, 82, 0
12, 26490, Note_off_c, 9, 40, 0
12, 26491, Note_off_c, 9, 39, 0
12, 26520, Note_on_c, 9, 82, 27
12, 26569, Note_off_c, 9, 82, 0
12, 26640, Note_on_c, 9, 27, 110
12, 26640, Note_on_c, 9, 35, 122
12, 26640, Note_on_c, 9, 42, 103
12, 26640, Note_on_c, 9, 82, 59
12, 26692, Note_off_c, 9, 82, 0
12, 26714, Note_off_c, 9, 35, 0
12, 26724, Note_off_c, 9, 42, 0
12, 26731, Note_off_c, 9, 27, 0
12, 26760, Note_on_c, 9, 82, 46
12, 26799, Note_off_c, 9, 82, 0
12, 26880, Note_on_c, 9, 27, 112
12, 26880, Note_on_c, 9, 35, 117
12, 26880, Note_on_c, 9, 42, 72
12, 26880, Note_on_c, 9, 57, 90
12, 26880, Note_on_c, 9, 70, 105
12, 26880, Note_on_c, 9, 82, 76
12, 26934, Note_off_c, 9, 42, 0
12, 26948, Note_off_c, 9, 82, 0
12, 26958, Note_off_c, 9, 70, 0
12, 26964, Note_off_c, 9, 57, 0
12, 26965, Note_off_c, 9, 35, 0
12, 26988, Note_off_c, 9, 27, 0
12, 27000, Note_on_c, 9, 82, 30
12, 27064, Note_off_c, 9, 82, 0
12, 27120, Note_on_c, 9, 42, 105
12, 27120, Note_on_c, 9, 82, 56
12, 27174, Note_off_c, 9, 82, 0
12, 27191, Note_off_c, 9, 42, 0
12, 27240, Note_on_c, 9, 27, 114
12, 27240, Note_on_c, 9, 35, 122
12, 27240, Note_on_c, 9, 42, 83
12, 27240, Note_on_c, 9, 82, 45
12, 27288, Note_off_c, 9, 42, 0
12, 27298, Note_off_c, 9, 82, 0
12, 27320, Note_off_c, 9, 35, 0
12, 27334, Note_off_c, 9, 27, 0
12, 27360, Note_on_c, 9, 39, 110
12, 27360, Note_on_c, 9, 40, 107
12, 27360, Note_on_c, 9, 42, 71
12, 27360, Note_on_c, 9, 70, 100
12, 27360, Note_on_c, 9, 82, 76
12, 27427, Note_off_c, 9, 82, 0
12, 27430, Note_off_c, 9, 42, 0
12, 27443, Note_off_c, 9, 70, 0
12, 27451, Note_off_c, 9, 40, 0
12, 27458, Note_off_c, 9, 39, 0
12, 27480, Note_on_c, 9, 82, 27
12, 27539, Note_off_c, 9, 82, 0
12, 27600, Note_on_c, 9, 27, 104
12, 27600, Note_on_c, 9, 35, 118
12, 27600, Note_on_c, 9, 42, 105
12, 27600, Note_on_c, 9, 82, 54
12, 27660, Note_off_c, 9, 82, 0
12, 27664, Note_off_c, 9, 35, 0
12, 27669, Note_off_c, 9, 27, 0
12, 27681, Note_off_c, 9, 42, 0
12, 27720, Note_on_c, 9, 82, 45
12, 27779, Note_off_c, 9, 82, 0
12, 27840, Note_on_c, 9, 42, 65
12, 27840, Note_on_c, 9, 70, 103
12, 27840, Note_on_c, 9, 82, 77
12, 27915, Note_off_c, 9, 82, 0
12, 27918, Note_off_c, 9, 42, 0
12, 27918, Note_off_c, 9, 70, 0
12, 27960, Note_on_c, 9, 82, 27
12, 27998, Note_off_c, 9, 82, 0
12, 28080, Note_on_c, 9, 42, 100
12, 28080, Note_on_c, 9, 82, 57
12, 28137, Note_off_c, 9, 82, 0
12, 28148, Note_off_c, 9, 42, 0
12, 28200, Note_on_c, 9, 27, 112
12, 28200, Note_on_c, 9, 35, 119
12, 28200, Note_on_c, 9, 42, 68
12, 28200, Note_on_c, 9, 82, 44
12, 28249, Note_off_c, 9, 42, 0
12, 28258, Note_off_c, 9, 82, 0
12, 28277, Note_off_c, 9, 35, 0
12, 28288, Note_off_c, 9, 27, 0
12, 28320, Note_on_c, 9, 39, 113
12, 28320, Note_on_c, 9, 40, 111
12, 28320, Note_on_c, 9, 42, 88
12, 28320, Note_on_c, 9, 70, 100
12, 28320, Note_on_c, 9, 82, 76
12, 28383, Note_off_c, 9, 42, 0
12, 28388, Note_off_c, 9, 70, 0
12, 28391, Note_off_c, 9, 82, 0
12, 28410, Note_off_c, 9, 40, 0
12, 28411, Note_off_c, 9, 39, 0
12, 28440, Note_on_c, 9, 82, 27
12, 28489, Note_off_c, 9, 82, 0
12, 28560, Note_on_c, 9, 27, 110
12, 28560, Note_on_c, 9, 35, 122
12, 28560, Note_on_c, 9, 42, 103
12, 28560, Note_on_c, 9, 82, 59
12, 28612, Note_off_c, 9, 82, 0
12, 28634, Note_off_c, 9, 35, 0
12, 28644, Note_off_c, 9, 42, 0
12, 28651, Note_off_c, 9, 27, 0
12, 28680, Note_on_c, 9, 82, 46
12, 28719, Note_off_c, 9, 82, 0
12, 28800, Note_on_c, 9, 27, 112
12, 28800, Note_on_c, 9, 35, 117
12, 28800, Note_on_c, 9, 42, 72
12, 28800, Note_on_c, 9, 70, 105
12, 28800, Note_on_c, 9, 82, 76
12, 28854, Note_off_c, 9, 42, 0
12, 28868, Note_off_c, 9, 82, 0
12, 28878, Note_off_c, 9, 70, 0
12, 28885, Note_off_c, 9, 35, 0
12, 28908, Note_off_c, 9, 27, 0
12, 28920, Note_on_c, 9, 82, 30
12, 28984, Note_off_c, 9, 82, 0
12, 29040, Note_on_c, 9, 42, 105
12, 29040, Note_on_c, 9, 82, 56
12, 29094, Note_off_c, 9, 82, 0
12, 29111, Note_off_c, 9, 42, 0
12, 29160, Note_on_c, 9, 27, 114
12, 29160, Note_on_c, 9, 35, 122
12, 29160, Note_on_c, 9, 42, 83
12, 29160, Note_on_c, 9, 82, 45
12, 29208, Note_off_c, 9, 42, 0
12, 29218, Note_off_c, 9, 82, 0
12, 29240, Note_off_c, 9, 35, 0
12, 29254, Note_off_c, 9, 27, 0
12, 29280, Note_on_c, 9, 39, 110
12, 29280, Note_on_c, 9, 40, 107
12, 29280, Note_on_c, 9, 42, 71
12, 29280, Note_on_c, 9, 70, 100
12, 29280, Note_on_c, 9, 82, 76
12, 29347, Note_off_c, 9, 82, 0
12, 29350, Note_off_c, 9, 42, 0
12, 29363, Note_off_c, 9, 70, 0
12, 29371, Note_off_c, 9, 40, 0
12, 29378, Note_off_c, 9, 39, 0
12, 29400, Note_on_c, 9, 82, 27
12, 29459, Note_off_c, 9, 82, 0
12, 29520, Note_on_c, 9, 27, 104
12, 29520, Note_on_c, 9, 35, 118
12, 29520, Note_on_c, 9, 42, 105
12, 29520, Note_on_c, 9, 82, 54
12, 29580, Note_off_c, 9, 82, 0
12, 29584, Note_off_c, 9, 35, 0
12, 29589, Note_off_c, 9, 27, 0
12, 29601, Note_off_c, 9, 42, 0
12, 29640, Note_on_c, 9, 82, 45
12, 29699, Note_off_c, 9, 82, 0
12, 29760, Note_on_c, 9, 42, 65
12, 29760, Note_on_c, 9, 70, 103
12, 29760, Note_on_c, 9, 82, 77
12, 29835, Note_off_c, 9, 82, 0
12, 29838, Note_off_c, 9, 42, 0
12, 29838, Note_off_c, 9, 70, 0
12, 29880, Note_on_c, 9, 82, 27
12, 29918, Note_off_c, 9, 82, 0
12, 30000, Note_on_c, 9, 42, 100
12, 30000, Note_on_c, 9, 82, 57
12, 30057, Note_off_c, 9, 82, 0
12, 30068, Note_off_c, 9, 42, 0
12, 30120, Note_on_c, 9, 27, 112
12, 30120, Note_on_c, 9, 35, 119
12, 30120, Note_on_c, 9, 42, 68
12, 30120, Note_on_c, 9, 82, 44
12, 30169, Note_off_c, 9, 42, 0
12, 30178, Note_off_c, 9, 82, 0
12, 30197, Note_off_c, 9, 35, 0
12, 30208, Note_off_c, 9, 27, 0
12, 30240, Note_on_c, 9, 39, 113
12, 30240, Note_on_c, 9, 40, 111
12, 30240, Note_on_c, 9, 42, 88
12, 30240, Note_on_c, 9, 70, 100
12, 30240, Note_on_c, 9, 82, 76
12, 30303, Note_off_c, 9, 42, 0
12, 30308, Note_off_c, 9, 70, 0
12, 30311, Note_off_c, 9, 82, 0
12, 30330, Note_off_c, 9, 40, 0
12, 30331, Note_off_c, 9, 39, 0
12, 30360, Note_on_c, 9, 82, 27
12, 30409, Note_off_c, 9, 82, 0
12, 30480, Note_on_c, 9, 27, 110
12, 30480, Note_on_c, 9, 35, 122
12, 30480, Note_on_c, 9, 42, 103
12, 30480, Note_on_c, 9, 82, 59
12, 30532, Note_off_c, 9, 82, 0
12, 30554, Note_off_c, 9, 35, 0
12, 30564, Note_off_c, 9, 42, 0
12, 30571, Note_off_c, 9, 27, 0
12, 30600, Note_on_c, 9, 82, 46
12, 30639, Note_off_c, 9, 82, 0
12, 30720, Note_on_c, 9, 27, 112
12, 30720, Note_on_c, 9, 35, 117
12, 30720, Note_on_c, 9, 42, 72
12, 30720, Note_on_c, 9, 70, 105
12, 30720, Note_on_c, 9, 82, 76
12, 30774, Note_off_c, 9, 42, 0
12, 30788, Note_off_c, 9, 82, 0
12, 30798, Note_off_c, 9, 70, 0
12, 30805, Note_off_c, 9, 35, 0
12, 30828, Note_off_c, 9, 27, 0
12, 30840, Note_on_c, 9, 82, 30
12, 30904, Note_off_c, 9, 82, 0
12, 30960, Note_on_c, 9, 42, 105
12, 30960, Note_on_c, 9, 82, 56
12, 31014, Note_off_c, 9, 82, 0
12, 31031, Note_off_c, 9, 42, 0
12, 31080, Note_on_c, 9, 27, 114
12, 31080, Note_on_c, 9, 35, 122
12, 31080, Note_on_c, 9, 42, 83
12, 31080, Note_on_c, 9, 82, 45
12, 31128, Note_off_c, 9, 42, 0
12, 31138, Note_off_c, 9, 82, 0
12, 31160, Note_off_c, 9, 35, 0
12, 31174, Note_off_c, 9, 27, 0
12, 31200, Note_on_c, 9, 39, 110
12, 31200, Note_on_c, 9, 40, 107
12, 31200, Note_on_c, 9, 42, 71
12, 31200, Note_on_c, 9, 70, 100
12, 31200, Note_on_c, 9, 82, 76
12, 31267, Note_off_c, 9, 82, 0
12, 31270, Note_off_c, 9, 42, 0
12, 31283, Note_off_c, 9, 70, 0
12, 31291, Note_off_c, 9, 40, 0
12, 31298, Note_off_c, 9, 39, 0
12, 31320, Note_on_c, 9, 82, 27
12, 31379, Note_off_c, 9, 82, 0
12, 31440, Note_on_c, 9, 27, 104
12, 31440, Note_on_c, 9, 35, 118
12, 31440, Note_on_c, 9, 42, 105
12, 31440, Note_on_c, 9, 82, 54
12, 31500, Note_off_c, 9, 82, 0
12, 31504, Note_off_c, 9, 35, 0
12, 31509, Note_off_c, 9, 27, 0
12, 31521, Note_off_c, 9, 42, 0
12, 31560, Note_on_c, 9, 82, 45
12, 31619, Note_off_c, 9, 82, 0
12, 31680, Note_on_c, 9, 42, 65
12, 31680, Note_on_c, 9, 70, 103
12, 31680, Note_on_c, 9, 82, 77
12, 31755, Note_off_c, 9, 82, 0
12, 31758, Note_off_c, 9, 42, 0
12, 31758, Note_off_c, 9, 70, 0
12, 31800, Note_on_c, 9, 82, 27
12, 31838, Note_off_c, 9, 82, 0
12, 31920, Note_on_c, 9, 42, 100
12, 31920, Note_on_c, 9, 82, 57
12, 31977, Note_off_c, 9, 82, 0
12, 31988, Note_off_c, 9, 42, 0
12, 32040, Note_on_c, 9, 27, 112
12, 32040, Note_on_c, 9, 35, 119
12, 32040, Note_on_c, 9, 42, 68
12, 32040, Note_on_c, 9, 82, 44
12, 32089, Note_off_c, 9, 42, 0
12, 32098, Note_off_c, 9, 82, 0
12, 32117, Note_off_c, 9, 35, 0
12, 32128, Note_off_c, 9, 27, 0
12, 32160, Note_on_c, 9, 39, 113
12, 32160, Note_on_c, 9, 40, 111
12, 32160, Note_on_c, 9, 42, 88
12, 32160, Note_on_c, 9, 70, 100
12, 32160, Note_on_c, 9, 82, 76
12, 32223, Note_off_c, 9, 42, 0
12, 32228, Note_off_c, 9, 70, 0
12, 32231, Note_off_c, 9, 82, 0
12, 32250, Note_off_c, 9, 40, 0
12, 32251, Note_off_c, 9, 39, 0
12, 32280, Note_on_c, 9, 82, 27
12, 32329, Note_off_c, 9, 82, 0
12, 32400, Note_on_c, 9, 27, 110
12, 32400, Note_on_c, 9, 35, 122
12, 32400, Note_on_c, 9, 42, 103
12, 32400, Note_on_c, 9, 82, 59
12, 32452, Note_off_c, 9, 82, 0
12, 32474, Note_off_c, 9, 35, 0
12, 32484, Note_off_c, 9, 42, 0
12, 32491, Note_off_c, 9, 27, 0
12, 32520, Note_on_c, 9, 82, 46
12, 32559, Note_off_c, 9, 82, 0
12, 32640, Note_on_c, 9, 27, 112
12, 32640, Note_on_c, 9, 35, 117
12, 32640, Note_on_c, 9, 42, 72
12, 32640, Note_on_c, 9, 70, 105
12, 32640, Note_on_c, 9, 82, 76
12, 32694, Note_off_c, 9, 42, 0
12, 32708, Note_off_c, 9, 82, 0
12, 32718, Note_off_c, 9, 70, 0
12, 32725, Note_off_c, 9, 35, 0
12, 32748, Note_off_c, 9, 27, 0
12, 32760, Note_on_c, 9, 82, 30
12, 32824, Note_off_c, 9, 82, 0
12, 32880, Note_on_c, 9, 42, 105
12, 32880, Note_on_c, 9, 82, 56
12, 32934, Note_off_c, 9, 82, 0
12, 32951, Note_off_c, 9, 42, 0
12, 33000, Note_on_c, 9, 27, 114
12, 33000, Note_on_c, 9, 35, 122
12, 33000, Note_on_c, 9, 42, 83
12, 33000, Note_on_c, 9, 82, 45
12, 33048, Note_off_c, 9, 42, 0
12, 33058, Note_off_c, 9, 82, 0
12, 33080, Note_off_c, 9, 35, 0
12, 33094, Note_off_c, 9, 27, 0
12, 33120, Note_on_c, 9, 39, 110
12, 33120, Note_on_c, 9, 40, 107
12, 33120, Note_on_c, 9, 42, 71
12, 33120, Note_on_c, 9, 70, 100
12, 33120, Note_on_c, 9, 82, 76
12, 33187, Note_off_c, 9, 82, 0
12, 33190, Note_off_c, 9, 42, 0
12, 33203, Note_off_c, 9, 70, 0
12, 33211, Note_off_c, 9, 40, 0
12, 33218, Note_off_c, 9, 39, 0
12, 33240, Note_on_c, 9, 82, 27
12, 33299, Note_off_c, 9, 82, 0
12, 33360, Note_on_c, 9, 27, 104
12, 33360, Note_on_c, 9, 35, 118
12, 33360, Note_on_c, 9, 42, 105
12, 33360, Note_on_c, 9, 82, 54
12, 33420, Note_off_c, 9, 82, 0
12, 33424, Note_off_c, 9, 35, 0
12, 33429, Note_off_c, 9, 27, 0
12, 33441, Note_off_c, 9, 42, 0
12, 33480, Note_on_c, 9, 82, 45
12, 33539, Note_off_c, 9, 82, 0
12, 33600, Note_on_c, 9, 42, 65
12, 33600, Note_on_c, 9, 70, 103
12, 33600, Note_on_c, 9, 82, 77
12, 33675, Note_off_c, 9, 82, 0
12, 33678, Note_off_c, 9, 42, 0
12, 33678, Note_off_c, 9, 70, 0
12, 33720, Note_on_c, 9, 82, 27
12, 33758, Note_off_c, 9, 82, 0
12, 33840, Note_on_c, 9, 42, 100
12, 33840, Note_on_c, 9, 82, 57
12, 33897, Note_off_c, 9, 82, 0
12, 33908, Note_off_c, 9, 42, 0
12, 33960, Note_on_c, 9, 27, 112
12, 33960, Note_on_c, 9, 35, 119
12, 33960, Note_on_c, 9, 42, 68
12, 33960, Note_on_c, 9, 82, 44
12, 34009, Note_off_c, 9, 42, 0
12, 34018, Note_off_c, 9, 82, 0
12, 34037, Note_off_c, 9, 35, 0
12, 34048, Note_off_c, 9, 27, 0
12, 34080, Note_on_c, 9, 39, 113
12, 34080, Note_on_c, 9, 40, 111
12, 34080, Note_on_c, 9, 42, 88
12, 34080, Note_on_c, 9, 70, 100
12, 34080, Note_on_c, 9, 82, 76
12, 34143, Note_off_c, 9, 42, 0
12, 34148, Note_off_c, 9, 70, 0
12, 34151, Note_off_c, 9, 82, 0
12, 34170, Note_off_c, 9, 40, 0
12, 34171, Note_off_c, 9, 39, 0
12, 34200, Note_on_c, 9, 82, 27
12, 34249, Note_off_c, 9, 82, 0
12, 34320, Note_on_c, 9, 27, 110
12, 34320, Note_on_c, 9, 35, 122
12, 34320, Note_on_c, 9, 42, 103
12, 34320, Note_on_c, 9, 82, 59
12, 34372, Note_off_c, 9, 82, 0
12, 34394, Note_off_c, 9, 35, 0
12, 34404, Note_off_c, 9, 42, 0
12, 34411, Note_off_c, 9, 27, 0
12, 34440, Note_on_c, 9, 82, 46
12, 34479, Note_off_c, 9, 82, 0
12, 34560, Note_on_c, 9, 27, 112
12, 34560, Note_on_c, 9, 35, 117
12, 34560, Note_on_c, 9, 42, 72
12, 34560, Note_on_c, 9, 70, 105
12, 34560, Note_on_c, 9, 82, 76
12, 34614, Note_off_c, 9, 42, 0
12, 34628, Note_off_c, 9, 82, 0
12, 34638, Note_off_c, 9, 70, 0
12, 34645, Note_off_c, 9, 35, 0
12, 34668, Note_off_c, 9, 27, 0
12, 34680, Note_on_c, 9, 65, 124
12, 34680, Note_on_c, 9, 82, 30
12, 34744, Note_off_c, 9, 82, 0
12, 34759, Note_off_c, 9, 65, 0
12, 34800, Note_on_c, 9, 42, 105
12, 34800, Note_on_c, 9, 82, 56
12, 34854, Note_off_c, 9, 82, 0
12, 34871, Note_off_c, 9, 42, 0
12, 34920, Note_on_c, 9, 27, 114
12, 34920, Note_on_c, 9, 35, 122
12, 34920, Note_on_c, 9, 42, 83
12, 34920, Note_on_c, 9, 65, 122
12, 34920, Note_on_c, 9, 82, 45
12, 34968, Note_off_c, 9, 42, 0
12, 34978, Note_off_c, 9, 82, 0
12, 34981, Note_off_c, 9, 65, 0
12, 35000, Note_off_c, 9, 35, 0
12, 35014, Note_off_c, 9, 27, 0
12, 35040, Note_on_c, 9, 39, 110
12, 35040, Note_on_c, 9, 40, 107
12, 35040, Note_on_c, 9, 42, 71
12, 35040, Note_on_c, 9, 65, 127
12, 35040, Note_on_c, 9, 70, 100
12, 35040, Note_on_c, 9, 82, 76
12, 35107, Note_off_c, 9, 82, 0
12, 35110, Note_off_c, 9, 42, 0
12, 35112, Note_off_c, 9, 65, 0
12, 35123, Note_off_c, 9, 70, 0
12, 35131, Note_off_c, 9, 40, 0
12, 35138, Note_off_c, 9, 39, 0
12, 35160, Note_on_c, 9, 82, 27
12, 35219, Note_off_c, 9, 82, 0
12, 35280, Note_on_c, 9, 27, 104
12, 35280, Note_on_c, 9, 35, 118
12, 35280, Note_on_c, 9, 42, 105
12, 35280, Note_on_c, 9, 66, 126
12, 35280, Note_on_c, 9, 82, 54
12, 35334, Note_off_c, 9, 66, 0
12, 35340, Note_off_c, 9, 82, 0
12, 35344, Note_off_c, 9, 35, 0
12, 35349, Note_off_c, 9, 27, 0
12, 35361, Note_off_c, 9, 42, 0
12, 35400, Note_on_c, 9, 82, 45
12, 35459, Note_off_c, 9, 82, 0
12, 35520, Note_on_c, 9, 42, 65
12, 35520, Note_on_c, 9, 52, 94
12, 35520, Note_on_c, 9, 66, 105
12, 35520, Note_on_c, 9, 70, 103
12, 35520, Note_on_c, 9, 82, 77
12, 35595, Note_off_c, 9, 82, 0
12, 35598, Note_off_c, 9, 42, 0
12, 35598, Note_off_c, 9, 66, 0
12, 35598, Note_off_c, 9, 70, 0
12, 35601, Note_off_c, 9, 52, 0
12, 35640, Note_on_c, 9, 82, 27
12, 35678, Note_off_c, 9, 82, 0
12, 35760, Note_on_c, 9, 42, 100
12, 35760, Note_on_c, 9, 82, 57
12, 35817, Note_off_c, 9, 82, 0
12, 35828, Note_off_c, 9, 42, 0
12, 35880, Note_on_c, 9, 27, 112
12, 35880, Note_on_c, 9, 35, 119
12, 35880, Note_on_c, 9, 42, 68
12, 35880, Note_on_c, 9, 82, 44
12, 35929, Note_off_c, 9, 42, 0
12, 35938, Note_off_c, 9, 82, 0
12, 35957, Note_off_c, 9, 35, 0
12, 35968, Note_off_c, 9, 27, 0
12, 36000, Note_on_c, 9, 39, 113
12, 36000, Note_on_c, 9, 40, 111
12, 36000, Note_on_c, 9, 42, 88
12, 36000, Note_on_c, 9, 70, 100
12, 36000, Note_on_c, 9, 82, 76
12, 36063, Note_off_c, 9, 42, 0
12, 36068, Note_off_c, 9, 70, 0
12, 36071, Note_off_c, 9, 82, 0
12, 36090, Note_off_c, 9, 40, 0
12, 36091, Note_off_c, 9, 39, 0
12, 36120, Note_on_c, 9, 82, 27
12, 36169, Note_off_c, 9, 82, 0
12, 36240, Note_on_c, 9, 27, 110
12, 36240, Note_on_c, 9, 35, 122
12, 36240, Note_on_c, 9, 42, 103
12, 36240, Note_on_c, 9, 82, 59
12, 36292, Note_off_c, 9, 82, 0
12, 36314, Note_off_c, 9, 35, 0
12, 36324, Note_off_c, 9, 42, 0
12, 36331, Note_off_c, 9, 27, 0
12, 36360, Note_on_c, 9, 82, 46
12, 36399, Note_off_c, 9, 82, 0
12, 36480, Note_on_c, 9, 27, 112
12, 36480, Note_on_c, 9, 35, 117
12, 36480, Note_on_c, 9, 42, 72
12, 36480, Note_on_c, 9, 57, 90
12, 36480, Note_on_c, 9, 70, 105
12, 36480, Note_on_c, 9, 82, 76
12, 36534, Note_off_c, 9, 42, 0
12, 36548, Note_off_c, 9, 82, 0
12, 36558, Note_off_c, 9, 70, 0
12, 36564, Note_off_c, 9, 57, 0
12, 36565, Note_off_c, 9, 35, 0
12, 36588, Note_off_c, 9, 27, 0
12, 36600, Note_on_c, 9, 82, 30
12, 36664, Note_off_c, 9, 82, 0
12, 36720, Note_on_c, 9, 42, 105
12, 36720, Note_on_c, 9, 82, 56
12, 36774, Note_off_c, 9, 82, 0
12, 36791, Note_off_c, 9, 42, 0
12, 36840, Note_on_c, 9, 27, 114
12, 36840, Note_on_c, 9, 35, 122
12, 36840, Note_on_c, 9, 42, 83
12, 36840, Note_on_c, 9, 82, 45
12, 36888, Note_off_c, 9, 42, 0
12, 36898, Note_off_c, 9, 82, 0
12, 36920, Note_off_c, 9, 35, 0
12, 36934, Note_off_c, 9, 27, 0
12, 36960, Note_on_c, 9, 39, 110
12, 36960, Note_on_c, 9, 40, 107
12, 36960, Note_on_c, 9, 42, 71
12, 36960, Note_on_c, 9, 70, 100
12, 36960, Note_on_c, 9, 82, 76
12, 37027, Note_off_c, 9, 82, 0
12, 37030, Note_off_c, 9, 42, 0
12, 37043, Note_off_c, 9, 70, 0
12, 37051, Note_off_c, 9, 40, 0
12, 37058, Note_off_c, 9, 39, 0
12, 37080, Note_on_c, 9, 82, 27
12, 37139, Note_off_c, 9, 82, 0
12, 37200, Note_on_c, 9, 27, 104
12, 37200, Note_on_c, 9, 35, 118
12, 37200, Note_on_c, 9, 42, 105
12, 37200, Note_on_c, 9, 82, 54
12, 37260, Note_off_c, 9, 82, 0
12, 37264, Note_off_c, 9, 35, 0
12, 37269, Note_off_c, 9, 27, 0
12, 37281, Note_off_c, 9, 42, 0
12, 37320, Note_on_c, 9, 82, 45
12, 37379, Note_off_c, 9, 82, 0
12, 37440, Note_on_c, 9, 42, 65
12, 37440, Note_on_c, 9, 70, 103
12, 37440, Note_on_c, 9, 82, 77
12, 37515, Note_off_c, 9, 82, 0
12, 37518, Note_off_c, 9, 42, 0
12, 37518, Note_off_c, 9, 70, 0
12, 37560, Note_on_c, 9, 82, 27
12, 37598, Note_off_c, 9, 82, 0
12, 37680, Note_on_c, 9, 42, 100
12, 37680, Note_on_c, 9, 82, 57
12, 37737, Note_off_c, 9, 82, 0
12, 37748, Note_off_c, 9, 42, 0
12, 37800, Note_on_c, 9, 27, 112
12, 37800, Note_on_c, 9, 35, 119
12, 37800, Note_on_c, 9, 42, 68
12, 37800, Note_on_c, 9, 82, 44
12, 37849, Note_off_c, 9, 42, 0
12, 37858, Note_off_c, 9, 82, 0
12, 37877, Note_off_c, 9, 35, 0
12, 37888, Note_off_c, 9, 27, 0
12, 37920, Note_on_c, 9, 39, 113
12, 37920, Note_on_c, 9, 40, 111
12, 37920, Note_on_c, 9, 42, 88
12, 37920, Note_on_c, 9, 70, 100
12, 37920, Note_on_c, 9, 82, 76
12, 37983, Note_off_c, 9, 42, 0
12, 37988, Note_off_c, 9, 70, 0
12, 37991, Note_off_c, 9, 82, 0
12, 38010, Note_off_c, 9, 40, 0
12, 38011, Note_off_c, 9, 39, 0
12, 38040, Note_on_c, 9, 82, 27
12, 38089, Note_off_c, 9, 82, 0
12, 38160, Note_on_c, 9, 27, 110
12, 38160, Note_on_c, 9, 35, 122
12, 38160, Note_on_c, 9, 42, 103
12, 38160, Note_on_c, 9, 82, 59
12, 38212, Note_off_c, 9, 82, 0
12, 38234, Note_off_c, 9, 35, 0
12, 38244, Note_off_c, 9, 42, 0
12, 38251, Note_off_c, 9, 27, 0
12, 38280, Note_on_c, 9, 82, 46
12, 38319, Note_off_c, 9, 82, 0
12, 38400, Note_on_c, 9, 27, 112
12, 38400, Note_on_c, 9, 35, 117
12, 38400, Note_on_c, 9, 42, 72
12, 38400, Note_on_c, 9, 70, 105
12, 38400, Note_on_c, 9, 82, 76
12, 38454, Note_off_c, 9, 42, 0
12, 38468, Note_off_c, 9, 82, 0
12, 38478, Note_off_c, 9, 70, 0
12, 38485, Note_off_c, 9, 35, 0
12, 38508, Note_off_c, 9, 27, 0
12, 38520, Note_on_c, 9, 82, 30
12, 38584, Note_off_c, 9, 82, 0
12, 38640, Note_on_c, 9, 42, 105
12, 38640, Note_on_c, 9, 82, 56
12, 38694, Note_off_c, 9, 82, 0
12, 38711, Note_off_c, 9, 42, 0
12, 38760, Note_on_c, 9, 27, 114
12, 38760, Note_on_c, 9, 35, 122
12, 38760, Note_on_c, 9, 42, 83
12, 38760, Note_on_c, 9, 82, 45
12, 38808, Note_off_c, 9, 42, 0
12, 38818, Note_off_c, 9, 82, 0
12, 38840, Note_off_c, 9, 35, 0
12, 38854, Note_off_c, 9, 27, 0
12, 38880, Note_on_c, 9, 39, 110
12, 38880, Note_on_c, 9, 40, 107
12, 38880, Note_on_c, 9, 42, 71
12, 38880, Note_on_c, 9, 70, 100
12, 38880, Note_on_c, 9, 82, 76
12, 38947, Note_off_c, 9, 82, 0
12, 38950, Note_off_c, 9, 42, 0
12, 38963, Note_off_c, 9, 70, 0
12, 38971, Note_off_c, 9, 40, 0
12, 38978, Note_off_c, 9, 39, 0
12, 39000, Note_on_c, 9, 82, 27
12, 39059, Note_off_c, 9, 82, 0
12, 39120, Note_on_c, 9, 27, 104
12, 39120, Note_on_c, 9, 35, 118
12, 39120, Note_on_c, 9, 42, 105
12, 39120, Note_on_c, 9, 82, 54
12, 39180, Note_off_c, 9, 82, 0
12, 39184, Note_off_c, 9, 35, 0
12, 39189, Note_off_c, 9, 27, 0
12, 39201, Note_off_c, 9, 42, 0
12, 39240, Note_on_c, 9, 82, 45
12, 39299, Note_off_c, 9, 82, 0
12, 39360, Note_on_c, 9, 42, 65
12, 39360, Note_on_c, 9, 70, 103
12, 39360, Note_on_c, 9, 82, 77
12, 39435, Note_off_c, 9, 82, 0
12, 39438, Note_off_c, 9, 42, 0
12, 39438, Note_off_c, 9, 70, 0
12, 39480, Note_on_c, 9, 82, 27
12, 39518, Note_off_c, 9, 82, 0
12, 39600, Note_on_c, 9, 42, 100
12, 39600, Note_on_c, 9, 82, 57
12, 39657, Note_off_c, 9, 82, 0
12, 39668, Note_off_c, 9, 42, 0
12, 39720, Note_on_c, 9, 27, 112
12, 39720, Note_on_c, 9, 35, 119
12, 39720, Note_on_c, 9, 42, 68
12, 39720, Note_on_c, 9, 82, 44
12, 39769, Note_off_c, 9, 42, 0
12, 39778, Note_off_c, 9, 82, 0
12, 39797, Note_off_c, 9, 35, 0
12, 39808, Note_off_c, 9, 27, 0
12, 39840, Note_on_c, 9, 39, 113
12, 39840, Note_on_c, 9, 40, 111
12, 39840, Note_on_c, 9, 42, 88
12, 39840, Note_on_c, 9, 70, 100
12, 39840, Note_on_c, 9, 82, 76
12, 39903, Note_off_c, 9, 42, 0
12, 39908, Note_off_c, 9, 70, 0
12, 39911, Note_off_c, 9, 82, 0
12, 39930, Note_off_c, 9, 40, 0
12, 39931, Note_off_c, 9, 39, 0
12, 39960, Note_on_c, 9, 82, 27
12, 40009, Note_off_c, 9, 82, 0
12, 40080, Note_on_c, 9, 27, 110
12, 40080, Note_on_c, 9, 35, 122
12, 40080, Note_on_c, 9, 42, 103
12, 40080, Note_on_c, 9, 82, 59
12, 40132, Note_off_c, 9, 82, 0
12, 40154, Note_off_c, 9, 35, 0
12, 40164, Note_off_c, 9, 42, 0
12, 40171, Note_off_c, 9, 27, 0
12, 40200, Note_on_c, 9, 82, 46
12, 40239, Note_off_c, 9, 82, 0
12, 40320, Note_on_c, 9, 27, 112
12, 40320, Note_on_c, 9, 35, 117
12, 40320, Note_on_c, 9, 42, 72
12, 40320, Note_on_c, 9, 70, 105
12, 40320, Note_on_c, 9, 82, 76
12, 40374, Note_off_c, 9, 42, 0
12, 40388, Note_off_c, 9, 82, 0
12, 40398, Note_off_c, 9, 70, 0
12, 40405, Note_off_c, 9, 35, 0
12, 40428, Note_off_c, 9, 27, 0
12, 40440, Note_on_c, 9, 82, 30
12, 40504, Note_off_c, 9, 82, 0
12, 40560, Note_on_c, 9, 42, 105
12, 40560, Note_on_c, 9, 82, 56
12, 40614, Note_off_c, 9, 82, 0
12, 40631, Note_off_c, 9, 42, 0
12, 40680, Note_on_c, 9, 27, 114
12, 40680, Note_on_c, 9, 35, 122
12, 40680, Note_on_c, 9, 42, 83
12, 40680, Note_on_c, 9, 82, 45
12, 40728, Note_off_c, 9, 42, 0
12, 40738, Note_off_c, 9, 82, 0
12, 40760, Note_off_c, 9, 35, 0
12, 40774, Note_off_c, 9, 27, 0
12, 40800, Note_on_c, 9, 39, 110
12, 40800, Note_on_c, 9, 40, 107
12, 40800, Note_on_c, 9, 42, 71
12, 40800, Note_on_c, 9, 70, 100
12, 40800, Note_on_c, 9, 82, 76
12, 40867, Note_off_c, 9, 82, 0
12, 40870, Note_off_c, 9, 42, 0
12, 40883, Note_off_c, 9, 70, 0
12, 40891, Note_off_c, 9, 40, 0
12, 40898, Note_off_c, 9, 39, 0
12, 40920, Note_on_c, 9, 82, 27
12, 40979, Note_off_c, 9, 82, 0
12, 41040, Note_on_c, 9, 27, 104
12, 41040, Note_on_c, 9, 35, 118
12, 41040, Note_on_c, 9, 42, 105
12, 41040, Note_on_c, 9, 82, 54
12, 41100, Note_off_c, 9, 82, 0
12, 41104, Note_off_c, 9, 35, 0
12, 41109, Note_off_c, 9, 27, 0
12, 41121, Note_off_c, 9, 42, 0
12, 41160, Note_on_c, 9, 82, 45
12, 41219, Note_off_c, 9, 82, 0
12, 41280, Note_on_c, 9, 42, 65
12, 41280, Note_on_c, 9, 70, 103
12, 41280, Note_on_c, 9, 82, 77
12, 41355, Note_off_c, 9, 82, 0
12, 41358, Note_off_c, 9, 42, 0
12, 41358, Note_off_c, 9, 70, 0
12, 41400, Note_on_c, 9, 82, 27
12, 41438, Note_off_c, 9, 82, 0
12, 41520, Note_on_c, 9, 42, 100
12, 41520, Note_on_c, 9, 82, 57
12, 41577, Note_off_c, 9, 82, 0
12, 41588, Note_off_c, 9, 42, 0
12, 41640, Note_on_c, 9, 27, 112
12, 41640, Note_on_c, 9, 35, 119
12, 41640, Note_on_c, 9, 42, 68
12, 41640, Note_on_c, 9, 82, 44
12, 41689, Note_off_c, 9, 42, 0
12, 41698, Note_off_c, 9, 82, 0
12, 41717, Note_off_c, 9, 35, 0
12, 41728, Note_off_c, 9, 27, 0
12, 41760, Note_on_c, 9, 39, 113
12, 41760, Note_on_c, 9, 40, 111
12, 41760, Note_on_c, 9, 42, 88
12, 41760, Note_on_c, 9, 70, 100
12, 41760, Note_on_c, 9, 82, 76
12, 41823, Note_off_c, 9, 42, 0
12, 41828, Note_off_c, 9, 70, 0
12, 41831, Note_off_c, 9, 82, 0
12, 41850, Note_off_c, 9, 40, 0
12, 41851, Note_off_c, 9, 39, 0
12, 41880, Note_on_c, 9, 82, 27
12, 41929, Note_off_c, 9, 82, 0
12, 42000, Note_on_c, 9, 27, 110
12, 42000, Note_on_c, 9, 35, 122
12, 42000, Note_on_c, 9, 42, 103
12, 42000, Note_on_c, 9, 82, 59
12, 42052, Note_off_c, 9, 82, 0
12, 42074, Note_off_c, 9, 35, 0
12, 42084, Note_off_c, 9, 42, 0
12, 42091, Note_off_c, 9, 27, 0
12, 42120, Note_on_c, 9, 82, 46
12, 42159, Note_off_c, 9, 82, 0
12, 42240, Note_on_c, 9, 27, 112
12, 42240, Note_on_c, 9, 35, 117
12, 42240, Note_on_c, 9, 42, 72
12, 42240, Note_on_c, 9, 70, 105
12, 42240, Note_on_c, 9, 82, 76
12, 42294, Note_off_c, 9, 42, 0
12, 42308, Note_off_c, 9, 82, 0
12, 42318, Note_off_c, 9, 70, 0
12, 42325, Note_off_c, 9, 35, 0
12, 42348, Note_off_c, 9, 27, 0
12, 42360, Note_on_c, 9, 82, 30
12, 42424, Note_off_c, 9, 82, 0
12, 42480, Note_on_c, 9, 42, 105
12, 42480, Note_on_c, 9, 82, 56
12, 42534, Note_off_c, 9, 82, 0
12, 42551, Note_off_c, 9, 42, 0
12, 42600, Note_on_c, 9, 27, 114
12, 42600, Note_on_c, 9, 35, 122
12, 42600, Note_on_c, 9, 42, 83
12, 42600, Note_on_c, 9, 82, 45
12, 42648, Note_off_c, 9, 42, 0
12, 42658, Note_off_c, 9, 82, 0
12, 42680, Note_off_c, 9, 35, 0
12, 42694, Note_off_c, 9, 27, 0
12, 42720, Note_on_c, 9, 39, 110
12, 42720, Note_on_c, 9, 40, 107
12, 42720, Note_on_c, 9, 42, 71
12, 42720, Note_on_c, 9, 70, 100
12, 42720, Note_on_c, 9, 82, 76
12, 42787, Note_off_c, 9, 82, 0
12, 42790, Note_off_c, 9, 42, 0
12, 42803, Note_off_c, 9, 70, 0
12, 42811, Note_off_c, 9, 40, 0
12, 42818, Note_off_c, 9, 39, 0
12, 42840, Note_on_c, 9, 82, 27
12, 42899, Note_off_c, 9, 82, 0
12, 42960, Note_on_c, 9, 27, 104
12, 42960, Note_on_c, 9, 35, 118
12, 42960, Note_on_c, 9, 42, 105
12, 42960, Note_on_c, 9, 82, 54
12, 43020, Note_off_c, 9, 82, 0
12, 43024, Note_off_c, 9, 35, 0
12, 43029, Note_off_c, 9, 27, 0
12, 43041, Note_off_c, 9, 42, 0
12, 43080, Note_on_c, 9, 82, 45
12, 43139, Note_off_c, 9, 82, 0
12, 43200, Note_on_c, 9, 42, 65
12, 43200, Note_on_c, 9, 70, 103
12, 43200, Note_on_c, 9, 82, 77
12, 43275, Note_off_c, 9, 82, 0
12, 43278, Note_off_c, 9, 42, 0
12, 43278, Note_off_c, 9, 70, 0
12, 43320, Note_on_c, 9, 82, 27
12, 43358, Note_off_c, 9, 82, 0
12, 43440, Note_on_c, 9, 42, 100
12, 43440, Note_on_c, 9, 82, 57
12, 43497, Note_off_c, 9, 82, 0
12, 43508, Note_off_c, 9, 42, 0
12, 43560, Note_on_c, 9, 27, 112
12, 43560, Note_on_c, 9, 35, 119
12, 43560, Note_on_c, 9, 42, 68
12, 43560, Note_on_c, 9, 82, 44
12, 43609, Note_off_c, 9, 42, 0
12, 43618, Note_off_c, 9, 82, 0
12, 43637, Note_off_c, 9, 35, 0
12, 43648, Note_off_c, 9, 27, 0
12, 43680, Note_on_c, 9, 39, 113
12, 43680, Note_on_c, 9, 40, 111
12, 43680, Note_on_c, 9, 42, 88
12, 43680, Note_on_c, 9, 70, 100
12, 43680, Note_on_c, 9, 82, 76
12, 43743, Note_off_c, 9, 42, 0
12, 43748, Note_off_c, 9, 70, 0
12, 43751, Note_off_c, 9, 82, 0
12, 43770, Note_off_c, 9, 40, 0
12, 43771, Note_off_c, 9, 39, 0
12, 43800, Note_on_c, 9, 82, 27
12, 43849, Note_off_c, 9, 82, 0
12, 43920, Note_on_c, 9, 27, 110
12, 43920, Note_on_c, 9, 35, 122
12, 43920, Note_on_c, 9, 42, 103
12, 43920, Note_on_c, 9, 82, 59
12, 43972, Note_off_c, 9, 82, 0
12, 43994, Note_off_c, 9, 35, 0
12, 44004, Note_off_c, 9, 42, 0
12, 44011, Note_off_c, 9, 27, 0
12, 44040, Note_on_c, 9, 82, 46
12, 44079, Note_off_c, 9, 82, 0
12, 44160, Note_on_c, 9, 27, 112
12, 44160, Note_on_c, 9, 35, 117
12, 44160, Note_on_c, 9, 42, 72
12, 44160, Note_on_c, 9, 57, 90
12, 44160, Note_on_c, 9, 70, 105
12, 44160, Note_on_c, 9, 82, 76
12, 44214, Note_off_c, 9, 42, 0
12, 44228, Note_off_c, 9, 82, 0
12, 44238, Note_off_c, 9, 70, 0
12, 44244, Note_off_c, 9, 57, 0
12, 44245, Note_off_c, 9, 35, 0
12, 44268, Note_off_c, 9, 27, 0
12, 44280, Note_on_c, 9, 82, 30
12, 44344, Note_off_c, 9, 82, 0
12, 44400, Note_on_c, 9, 42, 105
12, 44400, Note_on_c, 9, 82, 56
12, 44454, Note_off_c, 9, 82, 0
12, 44471, Note_off_c, 9, 42, 0
12, 44520, Note_on_c, 9, 27, 114
12, 44520, Note_on_c, 9, 35, 122
12, 44520, Note_on_c, 9, 42, 83
12, 44520, Note_on_c, 9, 82, 45
12, 44568, Note_off_c, 9, 42, 0
12, 44578, Note_off_c, 9, 82, 0
12, 44600, Note_off_c, 9, 35, 0
12, 44614, Note_off_c, 9, 27, 0
12, 44640, Note_on_c, 9, 39, 110
12, 44640, Note_on_c, 9, 40, 107
12, 44640, Note_on_c, 9, 42, 71
12, 44640, Note_on_c, 9, 70, 100
12, 44640, Note_on_c, 9, 82, 76
12, 44707, Note_off_c, 9, 82, 0
12, 44710, Note_off_c, 9, 42, 0
12, 44723, Note_off_c, 9, 70, 0
12, 44731, Note_off_c, 9, 40, 0
12, 44738, Note_off_c, 9, 39, 0
12, 44760, Note_on_c, 9, 82, 27
12, 44819, Note_off_c, 9, 82, 0
12, 44880, Note_on_c, 9, 27, 104
12, 44880, Note_on_c, 9, 35, 118
12, 44880, Note_on_c, 9, 42, 105
12, 44880, Note_on_c, 9, 82, 54
12, 44940, Note_off_c, 9, 82, 0
12, 44944, Note_off_c, 9, 35, 0
12, 44949, Note_off_c, 9, 27, 0
12, 44961, Note_off_c, 9, 42, 0
12, 45000, Note_on_c, 9, 82, 45
12, 45059, Note_off_c, 9, 82, 0
12, 45120, Note_on_c, 9, 42, 65
12, 45120, Note_on_c, 9, 70, 103
12, 45120, Note_on_c, 9, 82, 77
12, 45195, Note_off_c, 9, 82, 0
12, 45198, Note_off_c, 9, 42, 0
12, 45198, Note_off_c, 9, 70, 0
12, 45240, Note_on_c, 9, 82, 27
12, 45278, Note_off_c, 9, 82, 0
12, 45360, Note_on_c, 9, 42, 100
12, 45360, Note_on_c, 9, 82, 57
12, 45417, Note_off_c, 9, 82, 0
12, 45428, Note_off_c, 9, 42, 0
12, 45480, Note_on_c, 9, 27, 112
12, 45480, Note_on_c, 9, 35, 119
12, 45480, Note_on_c, 9, 42, 68
12, 45480, Note_on_c, 9, 82, 44
12, 45529, Note_off_c, 9, 42, 0
12, 45538, Note_off_c, 9, 82, 0
12, 45557, Note_off_c, 9, 35, 0
12, 45568, Note_off_c, 9, 27, 0
12, 45600, Note_on_c, 9, 39, 113
12, 45600, Note_on_c, 9, 40, 111
12, 45600, Note_on_c, 9, 42, 88
12, 45600, Note_on_c, 9, 70, 100
12, 45600, Note_on_c, 9, 82, 76
12, 45663, Note_off_c, 9, 42, 0
12, 45668, Note_off_c, 9, 70, 0
12, 45671, Note_off_c, 9, 82, 0
12, 45690, Note_off_c, 9, 40, 0
12, 45691, Note_off_c, 9, 39, 0
12, 45720, Note_on_c, 9, 82, 27
12, 45769, Note_off_c, 9, 82, 0
12, 45840, Note_on_c, 9, 27, 110
12, 45840, Note_on_c, 9, 35, 122
12, 45840, Note_on_c, 9, 42, 103
12, 45840, Note_on_c, 9, 82, 59
12, 45892, Note_off_c, 9, 82, 0
12, 45914, Note_off_c, 9, 35, 0
12, 45924, Note_off_c, 9, 42, 0
12, 45931, Note_off_c, 9, 27, 0
12, 45960, Note_on_c, 9, 82, 46
12, 45999, Note_off_c, 9, 82, 0
12, 46080, Note_on_c, 9, 27, 112
12, 46080, Note_on_c, 9, 35, 117
12, 46080, Note_on_c, 9, 42, 72
12, 46080, Note_on_c, 9, 70, 105
12, 46080, Note_on_c, 9, 82, 76
12, 46134, Note_off_c, 9, 42, 0
12, 46148, Note_off_c, 9, 82, 0
12, 46158, Note_off_c, 9, 70, 0
12, 46165, Note_off_c, 9, 35, 0
12, 46188, Note_off_c, 9, 27, 0
12, 46200, Note_on_c, 9, 82, 30
12, 46264, Note_off_c, 9, 82, 0
12, 46320, Note_on_c, 9, 42, 105
12, 46320, Note_on_c, 9, 82, 56
12, 46374, Note_off_c, 9, 82, 0
12, 46391, Note_off_c, 9, 42, 0
12, 46440, Note_on_c, 9, 27, 114
12, 46440, Note_on_c, 9, 35, 122
12, 46440, Note_on_c, 9, 42, 83
12, 46440, Note_on_c, 9, 82, 45
12, 46488, Note_off_c, 9, 42, 0
12, 46498, Note_off_c, 9, 82, 0
12, 46520, Note_off_c, 9, 35, 0
12, 46534, Note_off_c, 9, 27, 0
12, 46560, Note_on_c, 9, 39, 110
12, 46560, Note_on_c, 9, 40, 107
12, 46560, Note_on_c, 9, 42, 71
12, 46560, Note_on_c, 9, 70, 100
12, 46560, Note_on_c, 9, 82, 76
12, 46627, Note_off_c, 9, 82, 0
12, 46630, Note_off_c, 9, 42, 0
12, 46643, Note_off_c, 9, 70, 0
12, 46651, Note_off_c, 9, 40, 0
12, 46658, Note_off_c, 9, 39, 0
12, 46680, Note_on_c, 9, 82, 27
12, 46739, Note_off_c, 9, 82, 0
12, 46800, Note_on_c, 9, 27, 104
12, 46800, Note_on_c, 9, 35, 118
12, 46800, Note_on_c, 9, 42, 105
12, 46800, Note_on_c, 9, 82, 54
12, 46860, Note_off_c, 9, 82, 0
12, 46864, Note_off_c, 9, 35, 0
12, 46869, Note_off_c, 9, 27, 0
12, 46881, Note_off_c, 9, 42, 0
12, 46920, Note_on_c, 9, 82, 45
12, 46979, Note_off_c, 9, 82, 0
12, 47040, Note_on_c, 9, 42, 65
12, 47040, Note_on_c, 9, 70, 103
12, 47040, Note_on_c, 9, 82, 77
12, 47115, Note_off_c, 9, 82, 0
12, 47118, Note_off_c, 9, 42, 0
12, 47118, Note_off_c, 9, 70, 0
12, 47160, Note_on_c, 9, 82, 27
12, 47198, Note_off_c, 9, 82, 0
12, 47280, Note_on_c, 9, 42, 100
12, 47280, Note_on_c, 9, 82, 57
12, 47337, Note_off_c, 9, 82, 0
12, 47348, Note_off_c, 9, 42, 0
12, 47400, Note_on_c, 9, 27, 112
12, 47400, Note_on_c, 9, 35, 119
12, 47400, Note_on_c, 9, 42, 68
12, 47400, Note_on_c, 9, 82, 44
12, 47449, Note_off_c, 9, 42, 0
12, 47458, Note_off_c, 9, 82, 0
12, 47477, Note_off_c, 9, 35, 0
12, 47488, Note_off_c, 9, 27, 0
12, 47520, Note_on_c, 9, 39, 113
12, 47520, Note_on_c, 9, 40, 111
12, 47520, Note_on_c, 9, 42, 88
12, 47520, Note_on_c, 9, 70, 100
12, 47520, Note_on_c, 9, 82, 76
12, 47583, Note_off_c, 9, 42, 0
12, 47588, Note_off_c, 9, 70, 0
12, 47591, Note_off_c, 9, 82, 0
12, 47610, Note_off_c, 9, 40, 0
12, 47611, Note_off_c, 9, 39, 0
12, 47640, Note_on_c, 9, 82, 27
12, 47689, Note_off_c, 9, 82, 0
12, 47760, Note_on_c, 9, 27, 110
12, 47760, Note_on_c, 9, 35, 122
12, 47760, Note_on_c, 9, 42, 103
12, 47760, Note_on_c, 9, 82, 59
12, 47812, Note_off_c, 9, 82, 0
12, 47834, Note_off_c, 9, 35, 0
12, 47844, Note_off_c, 9, 42, 0
12, 47851, Note_off_c, 9, 27, 0
12, 47880, Note_on_c, 9, 82, 46
12, 47919, Note_off_c, 9, 82, 0
12, 48000, Note_on_c, 9, 27, 112
12, 48000, Note_on_c, 9, 35, 117
12, 48000, Note_on_c, 9, 42, 72
12, 48000, Note_on_c, 9, 70, 105
12, 48000, Note_on_c, 9, 82, 76
12, 48054, Note_off_c, 9, 42, 0
12, 48068, Note_off_c, 9, 82, 0
12, 48078, Note_off_c, 9, 70, 0
12, 48085, Note_off_c, 9, 35, 0
12, 48108, Note_off_c, 9, 27, 0
12, 48120, Note_on_c, 9, 82, 30
12, 48184, Note_off_c, 9, 82, 0
12, 48240, Note_on_c, 9, 42, 105
12, 48240, Note_on_c, 9, 82, 56
12, 48294, Note_off_c, 9, 82, 0
12, 48311, Note_off_c, 9, 42, 0
12, 48360, Note_on_c, 9, 27, 114
12, 48360, Note_on_c, 9, 35, 122
12, 48360, Note_on_c, 9, 42, 83
12, 48360, Note_on_c, 9, 82, 45
12, 48408, Note_off_c, 9, 42, 0
12, 48418, Note_off_c, 9, 82, 0
12, 48440, Note_off_c, 9, 35, 0
12, 48454, Note_off_c, 9, 27, 0
12, 48480, Note_on_c, 9, 39, 110
12, 48480, Note_on_c, 9, 40, 107
12, 48480, Note_on_c, 9, 42, 71
12, 48480, Note_on_c, 9, 70, 100
12, 48480, Note_on_c, 9, 82, 76
12, 48547, Note_off_c, 9, 82, 0
12, 48550, Note_off_c, 9, 42, 0
12, 48563, Note_off_c, 9, 70, 0
12, 48571, Note_off_c, 9, 40, 0
12, 48578, Note_off_c, 9, 39, 0
12, 48600, Note_on_c, 9, 82, 27
12, 48659, Note_off_c, 9, 82, 0
12, 48720, Note_on_c, 9, 27, 104
12, 48720, Note_on_c, 9, 35, 118
12, 48720, Note_on_c, 9, 42, 105
12, 48720, Note_on_c, 9, 82, 54
12, 48780, Note_off_c, 9, 82, 0
12, 48784, Note_off_c, 9, 35, 0
12, 48789, Note_off_c, 9, 27, 0
12, 48801, Note_off_c, 9, 42, 0
12, 48840, Note_on_c, 9, 82, 45
12, 48899, Note_off_c, 9, 82, 0
12, 48960, Note_on_c, 9, 42, 65
12, 48960, Note_on_c, 9, 70, 103
12, 48960, Note_on_c, 9, 82, 77
12, 49035, Note_off_c, 9, 82, 0
12, 49038, Note_off_c, 9, 42, 0
12, 49038, Note_off_c, 9, 70, 0
12, 49080, Note_on_c, 9, 82, 27
12, 49118, Note_off_c, 9, 82, 0
12, 49200, Note_on_c, 9, 42, 100
12, 49200, Note_on_c, 9, 82, 57
12, 49257, Note_off_c, 9, 82, 0
12, 49268, Note_off_c, 9, 42, 0
12, 49320, Note_on_c, 9, 27, 112
12, 49320, Note_on_c, 9, 35, 119
12, 49320, Note_on_c, 9, 42, 68
12, 49320, Note_on_c, 9, 82, 44
12, 49369, Note_off_c, 9, 42, 0
12, 49378, Note_off_c, 9, 82, 0
12, 49397, Note_off_c, 9, 35, 0
12, 49408, Note_off_c, 9, 27, 0
12, 49440, Note_on_c, 9, 39, 113
12, 49440, Note_on_c, 9, 40, 111
12, 49440, Note_on_c, 9, 42, 88
12, 49440, Note_on_c, 9, 70, 100
12, 49440, Note_on_c, 9, 82, 76
12, 49503, Note_off_c, 9, 42, 0
12, 49508, Note_off_c, 9, 70, 0
12, 49511, Note_off_c, 9, 82, 0
12, 49530, Note_off_c, 9, 40, 0
12, 49531, Note_off_c, 9, 39, 0
12, 49560, Note_on_c, 9, 82, 27
12, 49609, Note_off_c, 9, 82, 0
12, 49680, Note_on_c, 9, 27, 110
12, 49680, Note_on_c, 9, 35, 122
12, 49680, Note_on_c, 9, 42, 103
12, 49680, Note_on_c, 9, 82, 59
12, 49732, Note_off_c, 9, 82, 0
12, 49754, Note_off_c, 9, 35, 0
12, 49764, Note_off_c, 9, 42, 0
12, 49771, Note_off_c, 9, 27, 0
12, 49800, Note_on_c, 9, 82, 46
12, 49839, Note_off_c, 9, 82, 0
12, 49920, Note_on_c, 9, 27, 112
12, 49920, Note_on_c, 9, 35, 117
12, 49920, Note_on_c, 9, 42, 72
12, 49920, Note_on_c, 9, 70, 105
12, 49920, Note_on_c, 9, 82, 76
12, 49974, Note_off_c, 9, 42, 0
12, 49988, Note_off_c, 9, 82, 0
12, 49998, Note_off_c, 9, 70, 0
12, 50005, Note_off_c, 9, 35, 0
12, 50028, Note_off_c, 9, 27, 0
12, 50040, Note_on_c, 9, 82, 30
12, 50104, Note_off_c, 9, 82, 0
12, 50160, Note_on_c, 9, 42, 105
12, 50160, Note_on_c, 9, 82, 56
12, 50214, Note_off_c, 9, 82, 0
12, 50231, Note_off_c, 9, 42, 0
12, 50280, Note_on_c, 9, 27, 114
12, 50280, Note_on_c, 9, 35, 122
12, 50280, Note_on_c, 9, 42, 83
12, 50280, Note_on_c, 9, 82, 45
12, 50328, Note_off_c, 9, 42, 0
12, 50338, Note_off_c, 9, 82, 0
12, 50360, Note_off_c, 9, 35, 0
12, 50374, Note_off_c, 9, 27, 0
12, 50400, Note_on_c, 9, 39, 110
12, 50400, Note_on_c, 9, 40, 107
12, 50400, Note_on_c, 9, 42, 71
12, 50400, Note_on_c, 9, 70, 100
12, 50400, Note_on_c, 9, 82, 76
12, 50467, Note_off_c, 9, 82, 0
12, 50470, Note_off_c, 9, 42, 0
12, 50483, Note_off_c, 9, 70, 0
12, 50491, Note_off_c, 9, 40, 0
12, 50498, Note_off_c, 9, 39, 0
12, 50520, Note_on_c, 9, 82, 27
12, 50579, Note_off_c, 9, 82, 0
12, 50640, Note_on_c, 9, 27, 104
12, 50640, Note_on_c, 9, 35, 118
12, 50640, Note_on_c, 9, 42, 105
12, 50640, Note_on_c, 9, 82, 54
12, 50700, Note_off_c, 9, 82, 0
12, 50704, Note_off_c, 9, 35, 0
12, 50709, Note_off_c, 9, 27, 0
12, 50721, Note_off_c, 9, 42, 0
12, 50760, Note_on_c, 9, 82, 45
12, 50819, Note_off_c, 9, 82, 0
12, 50880, Note_on_c, 9, 42, 65
12, 50880, Note_on_c, 9, 49, 73
12, 50880, Note_on_c, 9, 55, 71
12, 50880, Note_on_c, 9, 70, 103
12, 50880, Note_on_c, 9, 82, 77
12, 50955, Note_off_c, 9, 82, 0
12, 50958, Note_off_c, 9, 42, 0
12, 50958, Note_off_c, 9, 70, 0
12, 50970, Note_off_c, 9, 49, 0
12, 50974, Note_off_c, 9, 55, 0
12, 51000, Note_on_c, 9, 82, 27
12, 51038, Note_off_c, 9, 82, 0
12, 51120, Note_on_c, 9, 42, 100
12, 51120, Note_on_c, 9, 48, 120
12, 51120, Note_on_c, 9, 82, 57
12, 51166, Note_off_c, 9, 48, 0
12, 51177, Note_off_c, 9, 82, 0
12, 51188, Note_off_c, 9, 42, 0
12, 51240, Note_on_c, 9, 27, 112
12, 51240, Note_on_c, 9, 35, 119
12, 51240, Note_on_c, 9, 42, 68
12, 51240, Note_on_c, 9, 48, 116
12, 51240, Note_on_c, 9, 82, 44
12, 51289, Note_off_c, 9, 42, 0
12, 51293, Note_off_c, 9, 48, 0
12, 51298, Note_off_c, 9, 82, 0
12, 51317, Note_off_c, 9, 35, 0
12, 51328, Note_off_c, 9, 27, 0
12, 51360, Note_on_c, 9, 39, 113
12, 51360, Note_on_c, 9, 40, 111
12, 51360, Note_on_c, 9, 42, 88
12, 51360, Note_on_c, 9, 48, 122
12, 51360, Note_on_c, 9, 70, 100
12, 51360, Note_on_c, 9, 82, 76
12, 51418, Note_off_c, 9, 48, 0
12, 51423, Note_off_c, 9, 42, 0
12, 51428, Note_off_c, 9, 70, 0
12, 51431, Note_off_c, 9, 82, 0
12, 51450, Note_off_c, 9, 40, 0
12, 51451, Note_off_c, 9, 39, 0
12, 51480, Note_on_c, 9, 48, 119
12, 51480, Note_on_c, 9, 82, 27
12, 51528, Note_off_c, 9, 48, 0
12, 51529, Note_off_c, 9, 82, 0
12, 51600, Note_on_c, 9, 27, 110
12, 51600, Note_on_c, 9, 35, 122
12, 51600, Note_on_c, 9, 42, 103
12, 51600, Note_on_c, 9, 47, 120
12, 51600, Note_on_c, 9, 82, 59
12, 51652, Note_off_c, 9, 82, 0
12, 51653, Note_off_c, 9, 47, 0
12, 51674, Note_off_c, 9, 35, 0
12, 51684, Note_off_c, 9, 42, 0
12, 51691, Note_off_c, 9, 27, 0
12, 51720, Note_on_c, 9, 47, 122
12, 51720, Note_on_c, 9, 82, 46
12, 51759, Note_off_c, 9, 82, 0
12, 51785, Note_off_c, 9, 47, 0
12, 51840, Note_on_c, 9, 27, 112
12, 51840, Note_on_c, 9, 35, 117
12, 51840, Note_on_c, 9, 42, 72
12, 51840, Note_on_c, 9, 57, 90
12, 51840, Note_on_c, 9, 70, 105
12, 51840, Note_on_c, 9, 82, 76
12, 51894, Note_off_c, 9, 42, 0
12, 51908, Note_off_c, 9, 82, 0
12, 51918, Note_off_c, 9, 70, 0
12, 51924, Note_off_c, 9, 57, 0
12, 51925, Note_off_c, 9, 35, 0
12, 51948, Note_off_c, 9, 27, 0
12, 51960, Note_on_c, 9, 82, 30
12, 52024, Note_off_c, 9, 82, 0
12, 52080, Note_on_c, 9, 42, 105
12, 52080, Note_on_c, 9, 82, 56
12, 52134, Note_off_c, 9, 82, 0
12, 52151, Note_off_c, 9, 42, 0
12, 52200, Note_on_c, 9, 27, 114
12, 52200, Note_on_c, 9, 35, 122
12, 52200, Note_on_c, 9, 42, 83
12, 52200, Note_on_c, 9, 82, 45
12, 52248, Note_off_c, 9, 42, 0
12, 52258, Note_off_c, 9, 82, 0
12, 52280, Note_off_c, 9, 35, 0
12, 52294, Note_off_c, 9, 27, 0
12, 52320, Note_on_c, 9, 39, 110
12, 52320, Note_on_c, 9, 40, 107
12, 52320, Note_on_c, 9, 42, 71
12, 52320, Note_on_c, 9, 70, 100
12, 52320, Note_on_c, 9, 82, 76
12, 52387, Note_off_c, 9, 82, 0
12, 52390, Note_off_c, 9, 42, 0
12, 52403, Note_off_c, 9, 70, 0
12, 52411, Note_off_c, 9, 40, 0
12, 52418, Note_off_c, 9, 39, 0
12, 52440, Note_on_c, 9, 82, 27
12, 52499, Note_off_c, 9, 82, 0
12, 52560, Note_on_c, 9, 27, 104
12, 52560, Note_on_c, 9, 35, 118
12, 52560, Note_on_c, 9, 42, 105
12, 52560, Note_on_c, 9, 82, 54
12, 52620, Note_off_c, 9, 82, 0
12, 52624, Note_off_c, 9, 35, 0
12, 52629, Note_off_c, 9, 27, 0
12, 52641, Note_off_c, 9, 42, 0
12, 52680, Note_on_c, 9, 82, 45
12, 52739, Note_off_c, 9, 82, 0
12, 52800, Note_on_c, 9, 42, 65
12, 52800, Note_on_c, 9, 70, 103
12, 52800, Note_on_c, 9, 82, 77
12, 52875, Note_off_c, 9, 82, 0
12, 52878, Note_off_c, 9, 42, 0
12, 52878, Note_off_c, 9, 70, 0
12, 52920, Note_on_c, 9, 82, 27
12, 52958, Note_off_c, 9, 82, 0
12, 53040, Note_on_c, 9, 42, 100
12, 53040, Note_on_c, 9, 82, 57
12, 53097, Note_off_c, 9, 82, 0
12, 53108, Note_off_c, 9, 42, 0
12, 53160, Note_on_c, 9, 27, 112
12, 53160, Note_on_c, 9, 35, 119
12, 53160, Note_on_c, 9, 42, 68
12, 53160, Note_on_c, 9, 82, 44
12, 53209, Note_off_c, 9, 42, 0
12, 53218, Note_off_c, 9, 82, 0
12, 53237, Note_off_c, 9, 35, 0
12, 53248, Note_off_c, 9, 27, 0
12, 53280, Note_on_c, 9, 39, 113
12, 53280, Note_on_c, 9, 40, 111
12, 53280, Note_on_c, 9, 42, 88
12, 53280, Note_on_c, 9, 70, 100
12, 53280, Note_on_c, 9, 82, 76
12, 53343, Note_off_c, 9, 42, 0
12, 53348, Note_off_c, 9, 70, 0
12, 53351, Note_off_c, 9, 82, 0
12, 53370, Note_off_c, 9, 40, 0
12, 53371, Note_off_c, 9, 39, 0
12, 53400, Note_on_c, 9, 82, 27
12, 53449, Note_off_c, 9, 82, 0
12, 53520, Note_on_c, 9, 27, 110
12, 53520, Note_on_c, 9, 35, 122
12, 53520, Note_on_c, 9, 42, 103
12, 53520, Note_on_c, 9, 82, 59
12, 53572, Note_off_c, 9, 82, 0
12, 53594, Note_off_c, 9, 35, 0
12, 53604, Note_off_c, 9, 42, 0
12, 53611, Note_off_c, 9, 27, 0
12, 53640, Note_on_c, 9, 82, 46
12, 53679, Note_off_c, 9, 82, 0
12, 53760, Note_on_c, 9, 27, 112
12, 53760, Note_on_c, 9, 35, 117
12, 53760, Note_on_c, 9, 42, 72
12, 53760, Note_on_c, 9, 70, 105
12, 53760, Note_on_c, 9, 82, 76
12, 53814, Note_off_c, 9, 42, 0
12, 53828, Note_off_c, 9, 82, 0
12, 53838, Note_off_c, 9, 70, 0
12, 53845, Note_off_c, 9, 35, 0
12, 53868, Note_off_c, 9, 27, 0
12, 53880, Note_on_c, 9, 82, 30
12, 53944, Note_off_c, 9, 82, 0
12, 54000, Note_on_c, 9, 42, 105
12, 54000, Note_on_c, 9, 82, 56
12, 54054, Note_off_c, 9, 82, 0
12, 54071, Note_off_c, 9, 42, 0
12, 54120, Note_on_c, 9, 27, 114
12, 54120, Note_on_c, 9, 35, 122
12, 54120, Note_on_c, 9, 42, 83
12, 54120, Note_on_c, 9, 82, 45
12, 54168, Note_off_c, 9, 42, 0
12, 54178, Note_off_c, 9, 82, 0
12, 54200, Note_off_c, 9, 35, 0
12, 54214, Note_off_c, 9, 27, 0
12, 54240, Note_on_c, 9, 39, 110
12, 54240, Note_on_c, 9, 40, 107
12, 54240, Note_on_c, 9, 42, 71
12, 54240, Note_on_c, 9, 70, 100
12, 54240, Note_on_c, 9, 82, 76
12, 54307, Note_off_c, 9, 82, 0
12, 54310, Note_off_c, 9, 42, 0
12, 54323, Note_off_c, 9, 70, 0
12, 54331, Note_off_c, 9, 40, 0
12, 54338, Note_off_c, 9, 39, 0
12, 54360, Note_on_c, 9, 82, 27
12, 54419, Note_off_c, 9, 82, 0
12, 54480, Note_on_c, 9, 27, 104
12, 54480, Note_on_c, 9, 35, 118
12, 54480, Note_on_c, 9, 42, 105
12, 54480, Note_on_c, 9, 82, 54
12, 54540, Note_off_c, 9, 82, 0
12, 54544, Note_off_c, 9, 35, 0
12, 54549, Note_off_c, 9, 27, 0
12, 54561, Note_off_c, 9, 42, 0
12, 54600, Note_on_c, 9, 82, 45
12, 54659, Note_off_c, 9, 82, 0
12, 54720, Note_on_c, 9, 42, 65
12, 54720, Note_on_c, 9, 70, 103
12, 54720, Note_on_c, 9, 82, 77
12, 54795, Note_off_c, 9, 82, 0
12, 54798, Note_off_c, 9, 42, 0
12, 54798, Note_off_c, 9, 70, 0
12, 54840, Note_on_c, 9, 82, 27
12, 54878, Note_off_c, 9, 82, 0
12, 54960, Note_on_c, 9, 42, 100
12, 54960, Note_on_c, 9, 82, 57
12, 55017, Note_off_c, 9, 82, 0
12, 55028, Note_off_c, 9, 42, 0
12, 55080, Note_on_c, 9, 27, 112
12, 55080, Note_on_c, 9, 35, 119
12, 55080, Note_on_c, 9, 42, 68
12, 55080, Note_on_c, 9, 82, 44
12, 55129, Note_off_c, 9, 42, 0
12, 55138, Note_off_c, 9, 82, 0
12, 55157, Note_off_c, 9, 35, 0
12, 55168, Note_off_c, 9, 27, 0
12, 55200, Note_on_c, 9, 39, 113
12, 55200, Note_on_c, 9, 40, 111
12, 55200, Note_on_c, 9, 42, 88
12, 55200, Note_on_c, 9, 70, 100
12, 55200, Note_on_c, 9, 82, 76
12, 55263, Note_off_c, 9, 42, 0
12, 55268, Note_off_c, 9, 70, 0
12, 55271, Note_off_c, 9, 82, 0
12, 55290, Note_off_c, 9, 40, 0
12, 55291, Note_off_c, 9, 39, 0
12, 55320, Note_on_c, 9, 82, 27
12, 55369, Note_off_c, 9, 82, 0
12, 55440, Note_on_c, 9, 27, 110
12, 55440, Note_on_c, 9, 35, 122
12, 55440, Note_on_c, 9, 42, 103
12, 55440, Note_on_c, 9, 82, 59
12, 55492, Note_off_c, 9, 82, 0
12, 55514, Note_off_c, 9, 35, 0
12, 55524, Note_off_c, 9, 42, 0
12, 55531, Note_off_c, 9, 27, 0
12, 55560, Note_on_c, 9, 82, 46
12, 55599, Note_off_c, 9, 82, 0
12, 55680, Note_on_c, 9, 27, 112
12, 55680, Note_on_c, 9, 35, 117
12, 55680, Note_on_c, 9, 42, 72
12, 55680, Note_on_c, 9, 70, 105
12, 55680, Note_on_c, 9, 82, 76
12, 55734, Note_off_c, 9, 42, 0
12, 55748, Note_off_c, 9, 82, 0
12, 55758, Note_off_c, 9, 70, 0
12, 55765, Note_off_c, 9, 35, 0
12, 55788, Note_off_c, 9, 27, 0
12, 55800, Note_on_c, 9, 82, 30
12, 55864, Note_off_c, 9, 82, 0
12, 55920, Note_on_c, 9, 42, 105
12, 55920, Note_on_c, 9, 82, 56
12, 55974, Note_off_c, 9, 82, 0
12, 55991, Note_off_c, 9, 42, 0
12, 56040, Note_on_c, 9, 27, 114
12, 56040, Note_on_c, 9, 35, 122
12, 56040, Note_on_c, 9, 42, 83
12, 56040, Note_on_c, 9, 82, 45
12, 56088, Note_off_c, 9, 42, 0
12, 56098, Note_off_c, 9, 82, 0
12, 56120, Note_off_c, 9, 35, 0
12, 56134, Note_off_c, 9, 27, 0
12, 56160, Note_on_c, 9, 39, 110
12, 56160, Note_on_c, 9, 40, 107
12, 56160, Note_on_c, 9, 42, 71
12, 56160, Note_on_c, 9, 70, 100
12, 56160, Note_on_c, 9, 82, 76
12, 56227, Note_off_c, 9, 82, 0
12, 56230, Note_off_c, 9, 42, 0
12, 56243, Note_off_c, 9, 70, 0
12, 56251, Note_off_c, 9, 40, 0
12, 56258, Note_off_c, 9, 39, 0
12, 56280, Note_on_c, 9, 82, 27
12, 56339, Note_off_c, 9, 82, 0
12, 56400, Note_on_c, 9, 27, 104
12, 56400, Note_on_c, 9, 35, 118
12, 56400, Note_on_c, 9, 42, 105
12, 56400, Note_on_c, 9, 82, 54
12, 56460, Note_off_c, 9, 82, 0
12, 56464, Note_off_c, 9, 35, 0
12, 56469, Note_off_c, 9, 27, 0
12, 56481, Note_off_c, 9, 42, 0
12, 56520, Note_on_c, 9, 82, 45
12, 56579, Note_off_c, 9, 82, 0
12, 56640, Note_on_c, 9, 42, 65
12, 56640, Note_on_c, 9, 70, 103
12, 56640, Note_on_c, 9, 82, 77
12, 56715, Note_off_c, 9, 82, 0
12, 56718, Note_off_c, 9, 42, 0
12, 56718, Note_off_c, 9, 70, 0
12, 56760, Note_on_c, 9, 82, 27
12, 56798, Note_off_c, 9, 82, 0
12, 56880, Note_on_c, 9, 42, 100
12, 56880, Note_on_c, 9, 82, 57
12, 56937, Note_off_c, 9, 82, 0
12, 56948, Note_off_c, 9, 42, 0
12, 57000, Note_on_c, 9, 27, 112
12, 57000, Note_on_c, 9, 35, 119
12, 57000, Note_on_c, 9, 42, 68
12, 57000, Note_on_c, 9, 82, 44
12, 57049, Note_off_c, 9, 42, 0
12, 57058, Note_off_c, 9, 82, 0
12, 57077, Note_off_c, 9, 35, 0
12, 57088, Note_off_c, 9, 27, 0
12, 57120, Note_on_c, 9, 39, 113
12, 57120, Note_on_c, 9, 40, 111
12, 57120, Note_on_c, 9, 42, 88
12, 57120, Note_on_c, 9, 70, 100
12, 57120, Note_on_c, 9, 82, 76
12, 57183, Note_off_c, 9, 42, 0
12, 57188, Note_off_c, 9, 70, 0
12, 57191, Note_off_c, 9, 82, 0
12, 57210, Note_off_c, 9, 40, 0
12, 57211, Note_off_c, 9, 39, 0
12, 57240, Note_on_c, 9, 82, 27
12, 57289, Note_off_c, 9, 82, 0
12, 57360, Note_on_c, 9, 27, 110
12, 57360, Note_on_c, 9, 35, 122
12, 57360, Note_on_c, 9, 42, 103
12, 57360, Note_on_c, 9, 82, 59
12, 57412, Note_off_c, 9, 82, 0
12, 57434, Note_off_c, 9, 35, 0
12, 57444, Note_off_c, 9, 42, 0
12, 57451, Note_off_c, 9, 27, 0
12, 57480, Note_on_c, 9, 82, 46
12, 57519, Note_off_c, 9, 82, 0
12, 57600, Note_on_c, 9, 27, 112
12, 57600, Note_on_c, 9, 35, 117
12, 57600, Note_on_c, 9, 42, 72
12, 57600, Note_on_c, 9, 70, 105
12, 57600, Note_on_c, 9, 82, 76
12, 57654, Note_off_c, 9, 42, 0
12, 57668, Note_off_c, 9, 82, 0
12, 57678, Note_off_c, 9, 70, 0
12, 57685, Note_off_c, 9, 35, 0
12, 57708, Note_off_c, 9, 27, 0
12, 57720, Note_on_c, 9, 82, 30
12, 57784, Note_off_c, 9, 82, 0
12, 57840, Note_on_c, 9, 42, 105
12, 57840, Note_on_c, 9, 82, 56
12, 57894, Note_off_c, 9, 82, 0
12, 57911, Note_off_c, 9, 42, 0
12, 57960, Note_on_c, 9, 27, 114
12, 57960, Note_on_c, 9, 35, 122
12, 57960, Note_on_c, 9, 42, 83
12, 57960, Note_on_c, 9, 82, 45
12, 58008, Note_off_c, 9, 42, 0
12, 58018, Note_off_c, 9, 82, 0
12, 58040, Note_off_c, 9, 35, 0
12, 58054, Note_off_c, 9, 27, 0
12, 58080, Note_on_c, 9, 39, 110
12, 58080, Note_on_c, 9, 40, 107
12, 58080, Note_on_c, 9, 42, 71
12, 58080, Note_on_c, 9, 70, 100
12, 58080, Note_on_c, 9, 82, 76
12, 58147, Note_off_c, 9, 82, 0
12, 58150, Note_off_c, 9, 42, 0
12, 58163, Note_off_c, 9, 70, 0
12, 58171, Note_off_c, 9, 40, 0
12, 58178, Note_off_c, 9, 39, 0
12, 58200, Note_on_c, 9, 82, 27
12, 58259, Note_off_c, 9, 82, 0
12, 58320, Note_on_c, 9, 27, 104
12, 58320, Note_on_c, 9, 35, 118
12, 58320, Note_on_c, 9, 42, 105
12, 58320, Note_on_c, 9, 82, 54
12, 58380, Note_off_c, 9, 82, 0
12, 58384, Note_off_c, 9, 35, 0
12, 58389, Note_off_c, 9, 27, 0
12, 58401, Note_off_c, 9, 42, 0
12, 58440, Note_on_c, 9, 82, 45
12, 58499, Note_off_c, 9, 82, 0
12, 58560, Note_on_c, 9, 42, 65
12, 58560, Note_on_c, 9, 70, 103
12, 58560, Note_on_c, 9, 82, 77
12, 58635, Note_off_c, 9, 82, 0
12, 58638, Note_off_c, 9, 42, 0
12, 58638, Note_off_c, 9, 70, 0
12, 58680, Note_on_c, 9, 82, 27
12, 58718, Note_off_c, 9, 82, 0
12, 58800, Note_on_c, 9, 42, 100
12, 58800, Note_on_c, 9, 82, 57
12, 58857, Note_off_c, 9, 82, 0
12, 58868, Note_off_c, 9, 42, 0
12, 58920, Note_on_c, 9, 27, 112
12, 58920, Note_on_c, 9, 35, 119
12, 58920, Note_on_c, 9, 42, 68
12, 58920, Note_on_c, 9, 82, 44
12, 58969, Note_off_c, 9, 42, 0
12, 58978, Note_off_c, 9, 82, 0
12, 58997, Note_off_c, 9, 35, 0
12, 59008, Note_off_c, 9, 27, 0
12, 59040, Note_on_c, 9, 39, 113
12, 59040, Note_on_c, 9, 40, 111
12, 59040, Note_on_c, 9, 42, 88
12, 59040, Note_on_c, 9, 70, 100
12, 59040, Note_on_c, 9, 82, 76
12, 59103, Note_off_c, 9, 42, 0
12, 59108, Note_off_c, 9, 70, 0
12, 59111, Note_off_c, 9, 82, 0
12, 59130, Note_off_c, 9, 40, 0
12, 59131, Note_off_c, 9, 39, 0
12, 59160, Note_on_c, 9, 82, 27
12, 59209, Note_off_c, 9, 82, 0
12, 59280, Note_on_c, 9, 27, 110
12, 59280, Note_on_c, 9, 35, 122
12, 59280, Note_on_c, 9, 42, 103
12, 59280, Note_on_c, 9, 82, 59
12, 59332, Note_off_c, 9, 82, 0
12, 59354, Note_off_c, 9, 35, 0
12, 59364, Note_off_c, 9, 42, 0
12, 59371, Note_off_c, 9, 27, 0
12, 59400, Note_on_c, 9, 82, 46
12, 59439, Note_off_c, 9, 82, 0
12, 59520, Note_on_c, 9, 27, 112
12, 59520, Note_on_c, 9, 35, 117
12, 59520, Note_on_c, 9, 42, 72
12, 59520, Note_on_c, 9, 70, 105
12, 59520, Note_on_c, 9, 82, 76
12, 59574, Note_off_c, 9, 42, 0
12, 59588, Note_off_c, 9, 82, 0
12, 59598, Note_off_c, 9, 70, 0
12, 59605, Note_off_c, 9, 35, 0
12, 59628, Note_off_c, 9, 27, 0
12, 59640, Note_on_c, 9, 82, 30
12, 59704, Note_off_c, 9, 82, 0
12, 59760, Note_on_c, 9, 42, 105
12, 59760, Note_on_c, 9, 82, 56
12, 59814, Note_off_c, 9, 82, 0
12, 59831, Note_off_c, 9, 42, 0
12, 59880, Note_on_c, 9, 27, 114
12, 59880, Note_on_c, 9, 35, 122
12, 59880, Note_on_c, 9, 42, 83
12, 59880, Note_on_c, 9, 82, 45
12, 59928, Note_off_c, 9, 42, 0
12, 59938, Note_off_c, 9, 82, 0
12, 59960, Note_off_c, 9, 35, 0
12, 59974, Note_off_c, 9, 27, 0
12, 60000, Note_on_c, 9, 39, 110
12, 60000, Note_on_c, 9, 40, 107
12, 60000, Note_on_c, 9, 42, 71
12, 60000, Note_on_c, 9, 70, 100
12, 60000, Note_on_c, 9, 82, 76
12, 60067, Note_off_c, 9, 82, 0
12, 60070, Note_off_c, 9, 42, 0
12, 60083, Note_off_c, 9, 70, 0
12, 60091, Note_off_c, 9, 40, 0
12, 60098, Note_off_c, 9, 39, 0
12, 60120, Note_on_c, 9, 82, 27
12, 60179, Note_off_c, 9, 82, 0
12, 60240, Note_on_c, 9, 27, 104
12, 60240, Note_on_c, 9, 35, 118
12, 60240, Note_on_c, 9, 42, 105
12, 60240, Note_on_c, 9, 82, 54
12, 60300, Note_off_c, 9, 82, 0
12, 60304, Note_off_c, 9, 35, 0
12, 60309, Note_off_c, 9, 27, 0
12, 60321, Note_off_c, 9, 42, 0
12, 60360, Note_on_c, 9, 82, 45
12, 60419, Note_off_c, 9, 82, 0
12, 60480, Note_on_c, 9, 42, 65
12, 60480, Note_on_c, 9, 70, 103
12, 60480, Note_on_c, 9, 82, 77
12, 60555, Note_off_c, 9, 82, 0
12, 60558, Note_off_c, 9, 42, 0
12, 60558, Note_off_c, 9, 70, 0
12, 60600, Note_on_c, 9, 82, 27
12, 60638, Note_off_c, 9, 82, 0
12, 60720, Note_on_c, 9, 42, 100
12, 60720, Note_on_c, 9, 82, 57
12, 60777, Note_off_c, 9, 82, 0
12, 60788, Note_off_c, 9, 42, 0
12, 60840, Note_on_c, 9, 27, 112
12, 60840, Note_on_c, 9, 35, 119
12, 60840, Note_on_c, 9, 42, 68
12, 60840, Note_on_c, 9, 82, 44
12, 60889, Note_off_c, 9, 42, 0
12, 60898, Note_off_c, 9, 82, 0
12, 60917, Note_off_c, 9, 35, 0
12, 60928, Note_off_c, 9, 27, 0
12, 60960, Note_on_c, 9, 39, 113
12, 60960, Note_on_c, 9, 40, 111
12, 60960, Note_on_c, 9, 42, 88
12, 60960, Note_on_c, 9, 70, 100
12, 60960, Note_on_c, 9, 82, 76
12, 61023, Note_off_c, 9, 42, 0
12, 61028, Note_off_c, 9, 70, 0
12, 61031, Note_off_c, 9, 82, 0
12, 61050, Note_off_c, 9, 40, 0
12, 61051, Note_off_c, 9, 39, 0
12, 61080, Note_on_c, 9, 82, 27
12, 61129, Note_off_c, 9, 82, 0
12, 61200, Note_on_c, 9, 27, 110
12, 61200, Note_on_c, 9, 35, 122
12, 61200, Note_on_c, 9, 42, 103
12, 61200, Note_on_c, 9, 82, 59
12, 61252, Note_off_c, 9, 82, 0
12, 61274, Note_off_c, 9, 35, 0
12, 61284, Note_off_c, 9, 42, 0
12, 61291, Note_off_c, 9, 27, 0
12, 61320, Note_on_c, 9, 82, 46
12, 61359, Note_off_c, 9, 82, 0
12, 61440, Note_on_c, 9, 27, 112
12, 61440, Note_on_c, 9, 35, 117
12, 61440, Note_on_c, 9, 42, 72
12, 61440, Note_on_c, 9, 57, 90
12, 61440, Note_on_c, 9, 70, 105
12, 61440, Note_on_c, 9, 82, 76
12, 61494, Note_off_c, 9, 42, 0
12, 61508, Note_off_c, 9, 82, 0
12, 61518, Note_off_c, 9, 70, 0
12, 61524, Note_off_c, 9, 57, 0
12, 61525, Note_off_c, 9, 35, 0
12, 61548, Note_off_c, 9, 27, 0
12, 61560, Note_on_c, 9, 82, 30
12, 61624, Note_off_c, 9, 82, 0
12, 61680, Note_on_c, 9, 42, 105
12, 61680, Note_on_c, 9, 82, 56
12, 61734, Note_off_c, 9, 82, 0
12, 61751, Note_off_c, 9, 42, 0
12, 61800, Note_on_c, 9, 27, 114
12, 61800, Note_on_c, 9, 35, 122
12, 61800, Note_on_c, 9, 42, 83
12, 61800, Note_on_c, 9, 82, 45
12, 61848, Note_off_c, 9, 42, 0
12, 61858, Note_off_c, 9, 82, 0
12, 61880, Note_off_c, 9, 35, 0
12, 61894, Note_off_c, 9, 27, 0
12, 61920, Note_on_c, 9, 39, 110
12, 61920, Note_on_c, 9, 40, 107
12, 61920, Note_on_c, 9, 42, 71
12, 61920, Note_on_c, 9, 70, 100
12, 61920, Note_on_c, 9, 82, 76
12, 61987, Note_off_c, 9, 82, 0
12, 61990, Note_off_c, 9, 42, 0
12, 62003, Note_off_c, 9, 70, 0
12, 62011, Note_off_c, 9, 40, 0
12, 62018, Note_off_c, 9, 39, 0
12, 62040, Note_on_c, 9, 82, 27
12, 62099, Note_off_c, 9, 82, 0
12, 62160, Note_on_c, 9, 27, 104
12, 62160, Note_on_c, 9, 35, 118
12, 62160, Note_on_c, 9, 42, 105
12, 62160, Note_on_c, 9, 82, 54
12, 62220, Note_off_c, 9, 82, 0
12, 62224, Note_off_c, 9, 35, 0
12, 62229, Note_off_c, 9, 27, 0
12, 62241, Note_off_c, 9, 42, 0
12, 62280, Note_on_c, 9, 82, 45
12, 62339, Note_off_c, 9, 82, 0
12, 62400, Note_on_c, 9, 42, 65
12, 62400, Note_on_c, 9, 70, 103
12, 62400, Note_on_c, 9, 82, 77
12, 62475, Note_off_c, 9, 82, 0
12, 62478, Note_off_c, 9, 42, 0
12, 62478, Note_off_c, 9, 70, 0
12, 62520, Note_on_c, 9, 82, 27
12, 62558, Note_off_c, 9, 82, 0
12, 62640, Note_on_c, 9, 42, 100
12, 62640, Note_on_c, 9, 82, 57
12, 62697, Note_off_c, 9, 82, 0
12, 62708, Note_off_c, 9, 42, 0
12, 62760, Note_on_c, 9, 27, 112
12, 62760, Note_on_c, 9, 35, 119
12, 62760, Note_on_c, 9, 42, 68
12, 62760, Note_on_c, 9, 82, 44
12, 62809, Note_off_c, 9, 42, 0
12, 62818, Note_off_c, 9, 82, 0
12, 62837, Note_off_c, 9, 35, 0
12, 62848, Note_off_c, 9, 27, 0
12, 62880, Note_on_c, 9, 39, 113
12, 62880, Note_on_c, 9, 40, 111
12, 62880, Note_on_c, 9, 42, 88
12, 62880, Note_on_c, 9, 70, 100
12, 62880, Note_on_c, 9, 82, 76
12, 62943, Note_off_c, 9, 42, 0
12, 62948, Note_off_c, 9, 70, 0
12, 62951, Note_off_c, 9, 82, 0
12, 62970, Note_off_c, 9, 40, 0
12, 62971, Note_off_c, 9, 39, 0
12, 63000, Note_on_c, 9, 82, 27
12, 63049, Note_off_c, 9, 82, 0
12, 63120, Note_on_c, 9, 27, 110
12, 63120, Note_on_c, 9, 35, 122
12, 63120, Note_on_c, 9, 42, 103
12, 63120, Note_on_c, 9, 82, 59
12, 63172, Note_off_c, 9, 82, 0
12, 63194, Note_off_c, 9, 35, 0
12, 63204, Note_off_c, 9, 42, 0
12, 63211, Note_off_c, 9, 27, 0
12, 63240, Note_on_c, 9, 82, 46
12, 63279, Note_off_c, 9, 82, 0
12, 63360, Note_on_c, 9, 27, 112
12, 63360, Note_on_c, 9, 35, 117
12, 63360, Note_on_c, 9, 42, 72
12, 63360, Note_on_c, 9, 70, 105
12, 63360, Note_on_c, 9, 82, 76
12, 63414, Note_off_c, 9, 42, 0
12, 63428, Note_off_c, 9, 82, 0
12, 63438, Note_off_c, 9, 70, 0
12, 63445, Note_off_c, 9, 35, 0
12, 63468, Note_off_c, 9, 27, 0
12, 63480, Note_on_c, 9, 82, 30
12, 63544, Note_off_c, 9, 82, 0
12, 63600, Note_on_c, 9, 42, 105
12, 63600, Note_on_c, 9, 82, 56
12, 63654, Note_off_c, 9, 82, 0
12, 63671, Note_off_c, 9, 42, 0
12, 63720, Note_on_c, 9, 27, 114
12, 63720, Note_on_c, 9, 35, 122
12, 63720, Note_on_c, 9, 42, 83
12, 63720, Note_on_c, 9, 82, 45
12, 63768, Note_off_c, 9, 42, 0
12, 63778, Note_off_c, 9, 82, 0
12, 63800, Note_off_c, 9, 35, 0
12, 63814, Note_off_c, 9, 27, 0
12, 63840, Note_on_c, 9, 39, 110
12, 63840, Note_on_c, 9, 40, 107
12, 63840, Note_on_c, 9, 42, 71
12, 63840, Note_on_c, 9, 70, 100
12, 63840, Note_on_c, 9, 82, 76
12, 63907, Note_off_c, 9, 82, 0
12, 63910, Note_off_c, 9, 42, 0
12, 63923, Note_off_c, 9, 70, 0
12, 63931, Note_off_c, 9, 40, 0
12, 63938, Note_off_c, 9, 39, 0
12, 63960, Note_on_c, 9, 82, 27
12, 64019, Note_off_c, 9, 82, 0
12, 64080, Note_on_c, 9, 27, 104
12, 64080, Note_on_c, 9, 35, 118
12, 64080, Note_on_c, 9, 42, 105
12, 64080, Note_on_c, 9, 82, 54
12, 64140, Note_off_c, 9, 82, 0
12, 64144, Note_off_c, 9, 35, 0
12, 64149, Note_off_c, 9, 27, 0
12, 64161, Note_off_c, 9, 42, 0
12, 64200, Note_on_c, 9, 82, 45
12, 64259, Note_off_c, 9, 82, 0
12, 64320, Note_on_c, 9, 42, 65
12, 64320, Note_on_c, 9, 70, 103
12, 64320, Note_on_c, 9, 82, 77
12, 64395, Note_off_c, 9, 82, 0
12, 64398, Note_off_c, 9, 42, 0
12, 64398, Note_off_c, 9, 70, 0
12, 64440, Note_on_c, 9, 82, 27
12, 64478, Note_off_c, 9, 82, 0
12, 64560, Note_on_c, 9, 42, 100
12, 64560, Note_on_c, 9, 82, 57
12, 64617, Note_off_c, 9, 82, 0
12, 64628, Note_off_c, 9, 42, 0
12, 64680, Note_on_c, 9, 27, 112
12, 64680, Note_on_c, 9, 35, 119
12, 64680, Note_on_c, 9, 42, 68
12, 64680, Note_on_c, 9, 82, 44
12, 64729, Note_off_c, 9, 42, 0
12, 64738, Note_off_c, 9, 82, 0
12, 64757, Note_off_c, 9, 35, 0
12, 64768, Note_off_c, 9, 27, 0
12, 64800, Note_on_c, 9, 39, 113
12, 64800, Note_on_c, 9, 40, 111
12, 64800, Note_on_c, 9, 42, 88
12, 64800, Note_on_c, 9, 70, 100
12, 64800, Note_on_c, 9, 82, 76
12, 64863, Note_off_c, 9, 42, 0
12, 64868, Note_off_c, 9, 70, 0
12, 64871, Note_off_c, 9, 82, 0
12, 64890, Note_off_c, 9, 40, 0
12, 64891, Note_off_c, 9, 39, 0
12, 64920, Note_on_c, 9, 82, 27
12, 64969, Note_off_c, 9, 82, 0
12, 65040, Note_on_c, 9, 27, 110
12, 65040, Note_on_c, 9, 35, 122
12, 65040, Note_on_c, 9, 42, 103
12, 65040, Note_on_c, 9, 82, 59
12, 65092, Note_off_c, 9, 82, 0
12, 65114, Note_off_c, 9, 35, 0
12, 65124, Note_off_c, 9, 42, 0
12, 65131, Note_off_c, 9, 27, 0
12, 65160, Note_on_c, 9, 82, 46
12, 65199, Note_off_c, 9, 82, 0
12, 65280, Note_on_c, 9, 27, 112
12, 65280, Note_on_c, 9, 35, 117
12, 65280, Note_on_c, 9, 42, 72
12, 65280, Note_on_c, 9, 70, 105
12, 65280, Note_on_c, 9, 82, 76
12, 65334, Note_off_c, 9, 42, 0
12, 65348, Note_off_c, 9, 82, 0
12, 65358, Note_off_c, 9, 70, 0
12, 65365, Note_off_c, 9, 35, 0
12, 65388, Note_off_c, 9, 27, 0
12, 65400, Note_on_c, 9, 82, 30
12, 65464, Note_off_c, 9, 82, 0
12, 65520, Note_on_c, 9, 42, 105
12, 65520, Note_on_c, 9, 82, 56
12, 65574, Note_off_c, 9, 82, 0
12, 65591, Note_off_c, 9, 42, 0
12, 65640, Note_on_c, 9, 27, 114
12, 65640, Note_on_c, 9, 35, 122
12, 65640, Note_on_c, 9, 42, 83
12, 65640, Note_on_c, 9, 82, 45
12, 65688, Note_off_c, 9, 42, 0
12, 65698, Note_off_c, 9, 82, 0
12, 65720, Note_off_c, 9, 35, 0
12, 65734, Note_off_c, 9, 27, 0
12, 65760, Note_on_c, 9, 39, 110
12, 65760, Note_on_c, 9, 40, 107
12, 65760, Note_on_c, 9, 42, 71
12, 65760, Note_on_c, 9, 70, 100
12, 65760, Note_on_c, 9, 82, 76
12, 65827, Note_off_c, 9, 82, 0
12, 65830, Note_off_c, 9, 42, 0
12, 65843, Note_off_c, 9, 70, 0
12, 65851, Note_off_c, 9, 40, 0
12, 65858, Note_off_c, 9, 39, 0
12, 65880, Note_on_c, 9, 82, 27
12, 65939, Note_off_c, 9, 82, 0
12, 66000, Note_on_c, 9, 27, 104
12, 66000, Note_on_c, 9, 35, 118
12, 66000, Note_on_c, 9, 42, 105
12, 66000, Note_on_c, 9, 82, 54
12, 66060, Note_off_c, 9, 82, 0
12, 66064, Note_off_c, 9, 35, 0
12, 66069, Note_off_c, 9, 27, 0
12, 66081, Note_off_c, 9, 42, 0
12, 66120, Note_on_c, 9, 82, 45
12, 66179, Note_off_c, 9, 82, 0
12, 66240, Note_on_c, 9, 42, 65
12, 66240, Note_on_c, 9, 70, 103
12, 66240, Note_on_c, 9, 82, 77
12, 66315, Note_off_c, 9, 82, 0
12, 66318, Note_off_c, 9, 42, 0
12, 66318, Note_off_c, 9, 70, 0
12, 66360, Note_on_c, 9, 82, 27
12, 66398, Note_off_c, 9, 82, 0
12, 66480, Note_on_c, 9, 42, 100
12, 66480, Note_on_c, 9, 82, 57
12, 66537, Note_off_c, 9, 82, 0
12, 66548, Note_off_c, 9, 42, 0
12, 66600, Note_on_c, 9, 27, 112
12, 66600, Note_on_c, 9, 35, 119
12, 66600, Note_on_c, 9, 42, 68
12, 66600, Note_on_c, 9, 82, 44
12, 66649, Note_off_c, 9, 42, 0
12, 66658, Note_off_c, 9, 82, 0
12, 66677, Note_off_c, 9, 35, 0
12, 66688, Note_off_c, 9, 27, 0
12, 66720, Note_on_c, 9, 39, 113
12, 66720, Note_on_c, 9, 40, 111
12, 66720, Note_on_c, 9, 42, 88
12, 66720, Note_on_c, 9, 70, 100
12, 66720, Note_on_c, 9, 82, 76
12, 66783, Note_off_c, 9, 42, 0
12, 66788, Note_off_c, 9, 70, 0
12, 66791, Note_off_c, 9, 82, 0
12, 66810, Note_off_c, 9, 40, 0
12, 66811, Note_off_c, 9, 39, 0
12, 66840, Note_on_c, 9, 82, 27
12, 66889, Note_off_c, 9, 82, 0
12, 66960, Note_on_c, 9, 27, 110
12, 66960, Note_on_c, 9, 35, 122
12, 66960, Note_on_c, 9, 42, 103
12, 66960, Note_on_c, 9, 82, 59
12, 67012, Note_off_c, 9, 82, 0
12, 67034, Note_off_c, 9, 35, 0
12, 67044, Note_off_c, 9, 42, 0
12, 67051, Note_off_c, 9, 27, 0
12, 67080, Note_on_c, 9, 82, 46
12, 67119, Note_off_c, 9, 82, 0
12, 67200, Note_on_c, 9, 27, 112
12, 67200, Note_on_c, 9, 35, 117
12, 67200, Note_on_c, 9, 42, 72
12, 67200, Note_on_c, 9, 70, 105
12, 67200, Note_on_c, 9, 82, 76
12, 67254, Note_off_c, 9, 42, 0
12, 67268, Note_off_c, 9, 82, 0
12, 67278, Note_off_c, 9, 70, 0
12, 67285, Note_off_c, 9, 35, 0
12, 67308, Note_off_c, 9, 27, 0
12, 67320, Note_on_c, 9, 82, 30
12, 67384, Note_off_c, 9, 82, 0
12, 67440, Note_on_c, 9, 42, 105
12, 67440, Note_on_c, 9, 82, 56
12, 67494, Note_off_c, 9, 82, 0
12, 67511, Note_off_c, 9, 42, 0
12, 67560, Note_on_c, 9, 27, 114
12, 67560, Note_on_c, 9, 35, 122
12, 67560, Note_on_c, 9, 42, 83
12, 67560, Note_on_c, 9, 82, 45
12, 67608, Note_off_c, 9, 42, 0
12, 67618, Note_off_c, 9, 82, 0
12, 67640, Note_off_c, 9, 35, 0
12, 67654, Note_off_c, 9, 27, 0
12, 67680, Note_on_c, 9, 39, 110
12, 67680, Note_on_c, 9, 40, 107
12, 67680, Note_on_c, 9, 42, 71
12, 67680, Note_on_c, 9, 70, 100
12, 67680, Note_on_c, 9, 82, 76
12, 67747, Note_off_c, 9, 82, 0
12, 67750, Note_off_c, 9, 42, 0
12, 67763, Note_off_c, 9, 70, 0
12, 67771, Note_off_c, 9, 40, 0
12, 67778, Note_off_c, 9, 39, 0
12, 67800, Note_on_c, 9, 82, 27
12, 67859, Note_off_c, 9, 82, 0
12, 67920, Note_on_c, 9, 27, 104
12, 67920, Note_on_c, 9, 35, 118
12, 67920, Note_on_c, 9, 42, 105
12, 67920, Note_on_c, 9, 82, 54
12, 67980, Note_off_c, 9, 82, 0
12, 67984, Note_off_c, 9, 35, 0
12, 67989, Note_off_c, 9, 27, 0
12, 68001, Note_off_c, 9, 42, 0
12, 68040, Note_on_c, 9, 82, 45
12, 68099, Note_off_c, 9, 82, 0
12, 68160, Note_on_c, 9, 42, 65
12, 68160, Note_on_c, 9, 70, 103
12, 68160, Note_on_c, 9, 82, 77
12, 68235, Note_off_c, 9, 82, 0
12, 68238, Note_off_c, 9, 42, 0
12, 68238, Note_off_c, 9, 70, 0
12, 68280, Note_on_c, 9, 82, 27
12, 68318, Note_off_c, 9, 82, 0
12, 68400, Note_on_c, 9, 42, 100
12, 68400, Note_on_c, 9, 82, 57
12, 68457, Note_off_c, 9, 82, 0
12, 68468, Note_off_c, 9, 42, 0
12, 68520, Note_on_c, 9, 27, 112
12, 68520, Note_on_c, 9, 35, 119
12, 68520, Note_on_c, 9, 42, 68
12, 68520, Note_on_c, 9, 82, 44
12, 68569, Note_off_c, 9, 42, 0
12, 68578, Note_off_c, 9, 82, 0
12, 68597, Note_off_c, 9, 35, 0
12, 68608, Note_off_c, 9, 27, 0
12, 68640, Note_on_c, 9, 39, 113
12, 68640, Note_on_c, 9, 40, 111
12, 68640, Note_on_c, 9, 42, 88
12, 68640, Note_on_c, 9, 70, 100
12, 68640, Note_on_c, 9, 82, 76
12, 68703, Note_off_c, 9, 42, 0
12, 68708, Note_off_c, 9, 70, 0
12, 68711, Note_off_c, 9, 82, 0
12, 68730, Note_off_c, 9, 40, 0
12, 68731, Note_off_c, 9, 39, 0
12, 68760, Note_on_c, 9, 82, 27
12, 68809, Note_off_c, 9, 82, 0
12, 68880, Note_on_c, 9, 27, 110
12, 68880, Note_on_c, 9, 35, 122
12, 68880, Note_on_c, 9, 42, 103
12, 68880, Note_on_c, 9, 82, 59
12, 68932, Note_off_c, 9, 82, 0
12, 68954, Note_off_c, 9, 35, 0
12, 68964, Note_off_c, 9, 42, 0
12, 68971, Note_off_c, 9, 27, 0
12, 69000, Note_on_c, 9, 82, 46
12, 69039, Note_off_c, 9, 82, 0
12, 69120, Note_on_c, 9, 27, 112
12, 69120, Note_on_c, 9, 35, 117
12, 69120, Note_on_c, 9, 42, 72
12, 69120, Note_on_c, 9, 70, 105
12, 69120, Note_on_c, 9, 82, 76
12, 69174, Note_off_c, 9, 42, 0
12, 69188, Note_off_c, 9, 82, 0
12, 69198, Note_off_c, 9, 70, 0
12, 69205, Note_off_c, 9, 35, 0
12, 69228, Note_off_c, 9, 27, 0
12, 69240, Note_on_c, 9, 65, 124
12, 69240, Note_on_c, 9, 82, 30
12, 69304, Note_off_c, 9, 82, 0
12, 69319, Note_off_c, 9, 65, 0
12, 69360, Note_on_c, 9, 42, 105
12, 69360, Note_on_c, 9, 82, 56
12, 69414, Note_off_c, 9, 82, 0
12, 69431, Note_off_c, 9, 42, 0
12, 69480, Note_on_c, 9, 27, 114
12, 69480, Note_on_c, 9, 35, 122
12, 69480, Note_on_c, 9, 42, 83
12, 69480, Note_on_c, 9, 65, 122
12, 69480, Note_on_c, 9, 82, 45
12, 69528, Note_off_c, 9, 42, 0
12, 69538, Note_off_c, 9, 82, 0
12, 69541, Note_off_c, 9, 65, 0
12, 69560, Note_off_c, 9, 35, 0
12, 69574, Note_off_c, 9, 27, 0
12, 69600, Note_on_c, 9, 39, 110
12, 69600, Note_on_c, 9, 40, 107
12, 69600, Note_on_c, 9, 42, 71
12, 69600, Note_on_c, 9, 65, 127
12, 69600, Note_on_c, 9, 70, 100
12, 69600, Note_on_c, 9, 82, 76
12, 69667, Note_off_c, 9, 82, 0
12, 69670, Note_off_c, 9, 42, 0
12, 69672, Note_off_c, 9, 65, 0
12, 69683, Note_off_c, 9, 70, 0
12, 69691, Note_off_c, 9, 40, 0
12, 69698, Note_off_c, 9, 39, 0
12, 69720, Note_on_c, 9, 82, 27
12, 69779, Note_off_c, 9, 82, 0
12, 69840, Note_on_c, 9, 27, 104
12, 69840, Note_on_c, 9, 35, 118
12, 69840, Note_on_c, 9, 42, 105
12, 69840, Note_on_c, 9, 66, 126
12, 69840, Note_on_c, 9, 82, 54
12, 69894, Note_off_c, 9, 66, 0
12, 69900, Note_off_c, 9, 82, 0
12, 69904, Note_off_c, 9, 35, 0
12, 69909, Note_off_c, 9, 27, 0
12, 69921, Note_off_c, 9, 42, 0
12, 69960, Note_on_c, 9, 82, 45
12, 70019, Note_off_c, 9, 82, 0
12, 70080, Note_on_c, 9, 42, 65
12, 70080, Note_on_c, 9, 52, 94
12, 70080, Note_on_c, 9, 66, 105
12, 70080, Note_on_c, 9, 70, 103
12, 70080, Note_on_c, 9, 82, 77
12, 70155, Note_off_c, 9, 82, 0
12, 70158, Note_off_c, 9, 42, 0
12, 70158, Note_off_c, 9, 66, 0
12, 70158, Note_off_c, 9, 70, 0
12, 70161, Note_off_c, 9, 52, 0
12, 70200, Note_on_c, 9, 82, 27
12, 70238, Note_off_c, 9, 82, 0
12, 70320, Note_on_c, 9, 42, 100
12, 70320, Note_on_c, 9, 82, 57
12, 70377, Note_off_c, 9, 82, 0
12, 70388, Note_off_c, 9, 42, 0
12, 70440, Note_on_c, 9, 27, 112
12, 70440, Note_on_c, 9, 35, 119
12, 70440, Note_on_c, 9, 42, 68
12, 70440, Note_on_c, 9, 82, 44
12, 70489, Note_off_c, 9, 42, 0
12, 70498, Note_off_c, 9, 82, 0
12, 70517, Note_off_c, 9, 35, 0
12, 70528, Note_off_c, 9, 27, 0
12, 70560, Note_on_c, 9, 39, 113
12, 70560, Note_on_c, 9, 40, 111
12, 70560, Note_on_c, 9, 42, 88
12, 70560, Note_on_c, 9, 70, 100
12, 70560, Note_on_c, 9, 82, 76
12, 70623, Note_off_c, 9, 42, 0
12, 70628, Note_off_c, 9, 70, 0
12, 70631, Note_off_c, 9, 82, 0
12, 70650, Note_off_c, 9, 40, 0
12, 70651, Note_off_c, 9, 39, 0
12, 70680, Note_on_c, 9, 82, 27
12, 70729, Note_off_c, 9, 82, 0
12, 70800, Note_on_c, 9, 27, 110
12, 70800, Note_on_c, 9, 35, 122
12, 70800, Note_on_c, 9, 42, 103
12, 70800, Note_on_c, 9, 82, 59
12, 70852, Note_off_c, 9, 82, 0
12, 70874, Note_off_c, 9, 35, 0
12, 70884, Note_off_c, 9, 42, 0
12, 70891, Note_off_c, 9, 27, 0
12, 70920, Note_on_c, 9, 82, 46
12, 70959, Note_off_c, 9, 82, 0
12, 71040, Note_on_c, 9, 27, 112
12, 71040, Note_on_c, 9, 35, 117
12, 71040, Note_on_c, 9, 42, 72
12, 71040, Note_on_c, 9, 57, 90
12, 71040, Note_on_c, 9, 70, 105
12, 71040, Note_on_c, 9, 82, 76
12, 71094, Note_off_c, 9, 42, 0
12, 71108, Note_off_c, 9, 82, 0
12, 71118, Note_off_c, 9, 70, 0
12, 71124, Note_off_c, 9, 57, 0
12, 71125, Note_off_c, 9, 35, 0
12, 71148, Note_off_c, 9, 27, 0
12, 71160, Note_on_c, 9, 82, 30
12, 71224, Note_off_c, 9, 82, 0
12, 71280, Note_on_c, 9, 42, 105
12, 71280, Note_on_c, 9, 82, 56
12, 71334, Note_off_c, 9, 82, 0
12, 71351, Note_off_c, 9, 42, 0
12, 71400, Note_on_c, 9, 27, 114
12, 71400, Note_on_c, 9, 35, 122
12, 71400, Note_on_c, 9, 42, 83
12, 71400, Note_on_c, 9, 82, 45
12, 71448, Note_off_c, 9, 42, 0
12, 71458, Note_off_c, 9, 82, 0
12, 71480, Note_off_c, 9, 35, 0
12, 71494, Note_off_c, 9, 27, 0
12, 71520, Note_on_c, 9, 39, 110
12, 71520, Note_on_c, 9, 40, 107
12, 71520, Note_on_c, 9, 42, 71
12, 71520, Note_on_c, 9, 70, 100
12, 71520, Note_on_c, 9, 82, 76
12, 71587, Note_off_c, 9, 82, 0
12, 71590, Note_off_c, 9, 42, 0
12, 71603, Note_off_c, 9, 70, 0
12, 71611, Note_off_c, 9, 40, 0
12, 71618, Note_off_c, 9, 39, 0
12, 71640, Note_on_c, 9, 82, 27
12, 71699, Note_off_c, 9, 82, 0
12, 71760, Note_on_c, 9, 27, 104
12, 71760, Note_on_c, 9, 35, 118
12, 71760, Note_on_c, 9, 42, 105
12, 71760, Note_on_c, 9, 82, 54
12, 71820, Note_off_c, 9, 82, 0
12, 71824, Note_off_c, 9, 35, 0
12, 71829, Note_off_c, 9, 27, 0
12, 71841, Note_off_c, 9, 42, 0
12, 71880, Note_on_c, 9, 82, 45
12, 71939, Note_off_c, 9, 82, 0
12, 72000, Note_on_c, 9, 42, 65
12, 72000, Note_on_c, 9, 70, 103
12, 72000, Note_on_c, 9, 82, 77
12, 72075, Note_off_c, 9, 82, 0
12, 72078, Note_off_c, 9, 42, 0
12, 72078, Note_off_c, 9, 70, 0
12, 72120, Note_on_c, 9, 82, 27
12, 72158, Note_off_c, 9, 82, 0
12, 72240, Note_on_c, 9, 42, 100
12, 72240, Note_on_c, 9, 82, 57
12, 72297, Note_off_c, 9, 82, 0
12, 72308, Note_off_c, 9, 42, 0
12, 72360, Note_on_c, 9, 27, 112
12, 72360, Note_on_c, 9, 35, 119
12, 72360, Note_on_c, 9, 42, 68
12, 72360, Note_on_c, 9, 82, 44
12, 72409, Note_off_c, 9, 42, 0
12, 72418, Note_off_c, 9, 82, 0
12, 72437, Note_off_c, 9, 35, 0
12, 72448, Note_off_c, 9, 27, 0
12, 72480, Note_on_c, 9, 39, 113
12, 72480, Note_on_c, 9, 40, 111
12, 72480, Note_on_c, 9, 42, 88
12, 72480, Note_on_c, 9, 70, 100
12, 72480, Note_on_c, 9, 82, 76
12, 72543, Note_off_c, 9, 42, 0
12, 72548, Note_off_c, 9, 70, 0
12, 72551, Note_off_c, 9, 82, 0
12, 72570, Note_off_c, 9, 40, 0
12, 72571, Note_off_c, 9, 39, 0
12, 72600, Note_on_c, 9, 82, 27
12, 72649, Note_off_c, 9, 82, 0
12, 72720, Note_on_c, 9, 27, 110
12, 72720, Note_on_c, 9, 35, 122
12, 72720, Note_on_c, 9, 42, 103
12, 72720, Note_on_c, 9, 82, 59
12, 72772, Note_off_c, 9, 82, 0
12, 72794, Note_off_c, 9, 35, 0
12, 72804, Note_off_c, 9, 42, 0
12, 72811, Note_off_c, 9, 27, 0
12, 72840, Note_on_c, 9, 82, 46
12, 72879, Note_off_c, 9, 82, 0
12, 72960, Note_on_c, 9, 27, 112
12, 72960, Note_on_c, 9, 35, 117
12, 72960, Note_on_c, 9, 42, 72
12, 72960, Note_on_c, 9, 70, 105
12, 72960, Note_on_c, 9, 82, 76
12, 73014, Note_off_c, 9, 42, 0
12, 73028, Note_off_c, 9, 82, 0
12, 73038, Note_off_c, 9, 70, 0
12, 73045, Note_off_c, 9, 35, 0
12, 73068, Note_off_c, 9, 27, 0
12, 73080, Note_on_c, 9, 82, 30
12, 73144, Note_off_c, 9, 82, 0
12, 73200, Note_on_c, 9, 42, 105
12, 73200, Note_on_c, 9, 82, 56
12, 73254, Note_off_c, 9, 82, 0
12, 73271, Note_off_c, 9, 42, 0
12, 73320, Note_on_c, 9, 27, 114
12, 73320, Note_on_c, 9, 35, 122
12, 73320, Note_on_c, 9, 42, 83
12, 73320, Note_on_c, 9, 82, 45
12, 73368, Note_off_c, 9, 42, 0
12, 73378, Note_off_c, 9, 82, 0
12, 73400, Note_off_c, 9, 35, 0
12, 73414, Note_off_c, 9, 27, 0
12, 73440, Note_on_c, 9, 39, 110
12, 73440, Note_on_c, 9, 40, 107
12, 73440, Note_on_c, 9, 42, 71
12, 73440, Note_on_c, 9, 70, 100
12, 73440, Note_on_c, 9, 82, 76
12, 73507, Note_off_c, 9, 82, 0
12, 73510, Note_off_c, 9, 42, 0
12, 73523, Note_off_c, 9, 70, 0
12, 73531, Note_off_c, 9, 40, 0
12, 73538, Note_off_c, 9, 39, 0
12, 73560, Note_on_c, 9, 82, 27
12, 73619, Note_off_c, 9, 82, 0
12, 73680, Note_on_c, 9, 27, 104
12, 73680, Note_on_c, 9, 35, 118
12, 73680, Note_on_c, 9, 42, 105
12, 73680, Note_on_c, 9, 82, 54
12, 73740, Note_off_c, 9, 82, 0
12, 73744, Note_off_c, 9, 35, 0
12, 73749, Note_off_c, 9, 27, 0
12, 73761, Note_off_c, 9, 42, 0
12, 73800, Note_on_c, 9, 82, 45
12, 73859, Note_off_c, 9, 82, 0
12, 73920, Note_on_c, 9, 42, 65
12, 73920, Note_on_c, 9, 70, 103
12, 73920, Note_on_c, 9, 82, 77
12, 73995, Note_off_c, 9, 82, 0
12, 73998, Note_off_c, 9, 42, 0
12, 73998, Note_off_c, 9, 70, 0
12, 74040, Note_on_c, 9, 82, 27
12, 74078, Note_off_c, 9, 82, 0
12, 74160, Note_on_c, 9, 42, 100
12, 74160, Note_on_c, 9, 82, 57
12, 74217, Note_off_c, 9, 82, 0
12, 74228, Note_off_c, 9, 42, 0
12, 74280, Note_on_c, 9, 27, 112
12, 74280, Note_on_c, 9, 35, 119
12, 74280, Note_on_c, 9, 42, 68
12, 74280, Note_on_c, 9, 82, 44
12, 74329, Note_off_c, 9, 42, 0
12, 74338, Note_off_c, 9, 82, 0
12, 74357, Note_off_c, 9, 35, 0
12, 74368, Note_off_c, 9, 27, 0
12, 74400, Note_on_c, 9, 39, 113
12, 74400, Note_on_c, 9, 40, 111
12, 74400, Note_on_c, 9, 42, 88
12, 74400, Note_on_c, 9, 70, 100
12, 74400, Note_on_c, 9, 82, 76
12, 74463, Note_off_c, 9, 42, 0
12, 74468, Note_off_c, 9, 70, 0
12, 74471, Note_off_c, 9, 82, 0
12, 74490, Note_off_c, 9, 40, 0
12, 74491, Note_off_c, 9, 39, 0
12, 74520, Note_on_c, 9, 82, 27
12, 74569, Note_off_c, 9, 82, 0
12, 74640, Note_on_c, 9, 27, 110
12, 74640, Note_on_c, 9, 35, 122
12, 74640, Note_on_c, 9, 42, 103
12, 74640, Note_on_c, 9, 82, 59
12, 74692, Note_off_c, 9, 82, 0
12, 74714, Note_off_c, 9, 35, 0
12, 74724, Note_off_c, 9, 42, 0
12, 74731, Note_off_c, 9, 27, 0
12, 74760, Note_on_c, 9, 82, 46
12, 74799, Note_off_c, 9, 82, 0
12, 74880, Note_on_c, 9, 27, 112
12, 74880, Note_on_c, 9, 35, 117
12, 74880, Note_on_c, 9, 42, 72
12, 74880, Note_on_c, 9, 70, 105
12, 74880, Note_on_c, 9, 82, 76
12, 74934, Note_off_c, 9, 42, 0
12, 74948, Note_off_c, 9, 82, 0
12, 74958, Note_off_c, 9, 70, 0
12, 74965, Note_off_c, 9, 35, 0
12, 74988, Note_off_c, 9, 27, 0
12, 75000, Note_on_c, 9, 82, 30
12, 75064, Note_off_c, 9, 82, 0
12, 75120, Note_on_c, 9, 42, 105
12, 75120, Note_on_c, 9, 82, 56
12, 75174, Note_off_c, 9, 82, 0
12, 75191, Note_off_c, 9, 42, 0
12, 75240, Note_on_c, 9, 27, 114
12, 75240, Note_on_c, 9, 35, 122
12, 75240, Note_on_c, 9, 42, 83
12, 75240, Note_on_c, 9, 82, 45
12, 75288, Note_off_c, 9, 42, 0
12, 75298, Note_off_c, 9, 82, 0
12, 75320, Note_off_c, 9, 35, 0
12, 75334, Note_off_c, 9, 27, 0
12, 75360, Note_on_c, 9, 39, 110
12, 75360, Note_on_c, 9, 40, 107
12, 75360, Note_on_c, 9, 42, 71
12, 75360, Note_on_c, 9, 70, 100
12, 75360, Note_on_c, 9, 82, 76
12, 75427, Note_off_c, 9, 82, 0
12, 75430, Note_off_c, 9, 42, 0
12, 75443, Note_off_c, 9, 70, 0
12, 75451, Note_off_c, 9, 40, 0
12, 75458, Note_off_c, 9, 39, 0
12, 75480, Note_on_c, 9, 82, 27
12, 75539, Note_off_c, 9, 82, 0
12, 75600, Note_on_c, 9, 27, 104
12, 75600, Note_on_c, 9, 35, 118
12, 75600, Note_on_c, 9, 42, 105
12, 75600, Note_on_c, 9, 82, 54
12, 75660, Note_off_c, 9, 82, 0
12, 75664, Note_off_c, 9, 35, 0
12, 75669, Note_off_c, 9, 27, 0
12, 75681, Note_off_c, 9, 42, 0
12, 75720, Note_on_c, 9, 82, 45
12, 75779, Note_off_c, 9, 82, 0
12, 75840, Note_on_c, 9, 42, 65
12, 75840, Note_on_c, 9, 70, 103
12, 75840, Note_on_c, 9, 82, 77
12, 75915, Note_off_c, 9, 82, 0
12, 75918, Note_off_c, 9, 42, 0
12, 75918, Note_off_c, 9, 70, 0
12, 75960, Note_on_c, 9, 82, 27
12, 75998, Note_off_c, 9, 82, 0
12, 76080, Note_on_c, 9, 42, 100
12, 76080, Note_on_c, 9, 82, 57
12, 76137, Note_off_c, 9, 82, 0
12, 76148, Note_off_c, 9, 42, 0
12, 76200, Note_on_c, 9, 27, 112
12, 76200, Note_on_c, 9, 35, 119
12, 76200, Note_on_c, 9, 42, 68
12, 76200, Note_on_c, 9, 82, 44
12, 76249, Note_off_c, 9, 42, 0
12, 76258, Note_off_c, 9, 82, 0
12, 76277, Note_off_c, 9, 35, 0
12, 76288, Note_off_c, 9, 27, 0
12, 76320, Note_on_c, 9, 39, 113
12, 76320, Note_on_c, 9, 40, 111
12, 76320, Note_on_c, 9, 42, 88
12, 76320, Note_on_c, 9, 70, 100
12, 76320, Note_on_c, 9, 82, 76
12, 76383, Note_off_c, 9, 42, 0
12, 76388, Note_off_c, 9, 70, 0
12, 76391, Note_off_c, 9, 82, 0
12, 76410, Note_off_c, 9, 40, 0
12, 76411, Note_off_c, 9, 39, 0
12, 76440, Note_on_c, 9, 82, 27
12, 76489, Note_off_c, 9, 82, 0
12, 76560, Note_on_c, 9, 27, 110
12, 76560, Note_on_c, 9, 35, 122
12, 76560, Note_on_c, 9, 42, 103
12, 76560, Note_on_c, 9, 82, 59
12, 76612, Note_off_c, 9, 82, 0
12, 76634, Note_off_c, 9, 35, 0
12, 76644, Note_off_c, 9, 42, 0
12, 76651, Note_off_c, 9, 27, 0
12, 76680, Note_on_c, 9, 82, 46
12, 76719, Note_off_c, 9, 82, 0
12, 76800, Note_on_c, 9, 27, 112
12, 76800, Note_on_c, 9, 35, 117
12, 76800, Note_on_c, 9, 42, 72
12, 76800, Note_on_c, 9, 70, 105
12, 76800, Note_on_c, 9, 82, 76
12, 76854, Note_off_c, 9, 42, 0
12, 76868, Note_off_c, 9, 82, 0
12, 76878, Note_off_c, 9, 70, 0
12, 76885, Note_off_c, 9, 35, 0
12, 76908, Note_off_c, 9, 27, 0
12, 76920, Note_on_c, 9, 82, 30
12, 76984, Note_off_c, 9, 82, 0
12, 77040, Note_on_c, 9, 42, 105
12, 77040, Note_on_c, 9, 82, 56
12, 77094, Note_off_c, 9, 82, 0
12, 77111, Note_off_c, 9, 42, 0
12, 77160, Note_on_c, 9, 27, 114
12, 77160, Note_on_c, 9, 35, 122
12, 77160, Note_on_c, 9, 42, 83
12, 77160, Note_on_c, 9, 82, 45
12, 77208, Note_off_c, 9, 42, 0
12, 77218, Note_off_c, 9, 82, 0
12, 77240, Note_off_c, 9, 35, 0
12, 77254, Note_off_c, 9, 27, 0
12, 77280, Note_on_c, 9, 39, 110
12, 77280, Note_on_c, 9, 40, 107
12, 77280, Note_on_c, 9, 42, 71
12, 77280, Note_on_c, 9, 70, 100
12, 77280, Note_on_c, 9, 82, 76
12, 77347, Note_off_c, 9, 82, 0
12, 77350, Note_off_c, 9, 42, 0
12, 77363, Note_off_c, 9, 70, 0
12, 77371, Note_off_c, 9, 40, 0
12, 77378, Note_off_c, 9, 39, 0
12, 77400, Note_on_c, 9, 82, 27
12, 77459, Note_off_c, 9, 82, 0
12, 77520, Note_on_c, 9, 27, 104
12, 77520, Note_on_c, 9, 35, 118
12, 77520, Note_on_c, 9, 42, 105
12, 77520, Note_on_c, 9, 82, 54
12, 77580, Note_off_c, 9, 82, 0
12, 77584, Note_off_c, 9, 35, 0
12, 77589, Note_off_c, 9, 27, 0
12, 77601, Note_off_c, 9, 42, 0
12, 77640, Note_on_c, 9, 82, 45
12, 77699, Note_off_c, 9, 82, 0
12, 77760, Note_on_c, 9, 42, 65
12, 77760, Note_on_c, 9, 70, 103
12, 77760, Note_on_c, 9, 82, 77
12, 77835, Note_off_c, 9, 82, 0
12, 77838, Note_off_c, 9, 42, 0
12, 77838, Note_off_c, 9, 70, 0
12, 77880, Note_on_c, 9, 82, 27
12, 77918, Note_off_c, 9, 82, 0
12, 78000, Note_on_c, 9, 42, 100
12, 78000, Note_on_c, 9, 82, 57
12, 78057, Note_off_c, 9, 82, 0
12, 78068, Note_off_c, 9, 42, 0
12, 78120, Note_on_c, 9, 27, 112
12, 78120, Note_on_c, 9, 35, 119
12, 78120, Note_on_c, 9, 42, 68
12, 78120, Note_on_c, 9, 82, 44
12, 78169, Note_off_c, 9, 42, 0
12, 78178, Note_off_c, 9, 82, 0
12, 78197, Note_off_c, 9, 35, 0
12, 78208, Note_off_c, 9, 27, 0
12, 78240, Note_on_c, 9, 39, 113
12, 78240, Note_on_c, 9, 40, 111
12, 78240, Note_on_c, 9, 42, 88
12, 78240, Note_on_c, 9, 70, 100
12, 78240, Note_on_c, 9, 82, 76
12, 78303, Note_off_c, 9, 42, 0
12, 78308, Note_off_c, 9, 70, 0
12, 78311, Note_off_c, 9, 82, 0
12, 78330, Note_off_c, 9, 40, 0
12, 78331, Note_off_c, 9, 39, 0
12, 78360, Note_on_c, 9, 82, 27
12, 78409, Note_off_c, 9, 82, 0
12, 78480, Note_on_c, 9, 27, 110
12, 78480, Note_on_c, 9, 35, 122
12, 78480, Note_on_c, 9, 42, 103
12, 78480, Note_on_c, 9, 82, 59
12, 78532, Note_off_c, 9, 82, 0
12, 78554, Note_off_c, 9, 35, 0
12, 78564, Note_off_c, 9, 42, 0
12, 78571, Note_off_c, 9, 27, 0
12, 78600, Note_on_c, 9, 82, 46
12, 78639, Note_off_c, 9, 82, 0
12, 78720, Note_on_c, 9, 27, 112
12, 78720, Note_on_c, 9, 35, 117
12, 78720, Note_on_c, 9, 42, 72
12, 78720, Note_on_c, 9, 57, 90
12, 78720, Note_on_c, 9, 70, 105
12, 78720, Note_on_c, 9, 82, 76
12, 78774, Note_off_c, 9, 42, 0
12, 78788, Note_off_c, 9, 82, 0
12, 78798, Note_off_c, 9, 70, 0
12, 78804, Note_off_c, 9, 57, 0
12, 78805, Note_off_c, 9, 35, 0
12, 78828, Note_off_c, 9, 27, 0
12, 78840, Note_on_c, 9, 82, 30
12, 78904, Note_off_c, 9, 82, 0
12, 78960, Note_on_c, 9, 42, 105
12, 78960, Note_on_c, 9, 82, 56
12, 79014, Note_off_c, 9, 82, 0
12, 79031, Note_off_c, 9, 42, 0
12, 79080, Note_on_c, 9, 27, 114
12, 79080, Note_on_c, 9, 35, 122
12, 79080, Note_on_c, 9, 42, 83
12, 79080, Note_on_c, 9, 82, 45
12, 79128, Note_off_c, 9, 42, 0
12, 79138, Note_off_c, 9, 82, 0
12, 79160, Note_off_c, 9, 35, 0
12, 79174, Note_off_c, 9, 27, 0
12, 79200, Note_on_c, 9, 39, 110
12, 79200, Note_on_c, 9, 40, 107
12, 79200, Note_on_c, 9, 42, 71
12, 79200, Note_on_c, 9, 70, 100
12, 79200, Note_on_c, 9, 82, 76
12, 79267, Note_off_c, 9, 82, 0
12, 79270, Note_off_c, 9, 42, 0
12, 79283, Note_off_c, 9, 70, 0
12, 79291, Note_off_c, 9, 40, 0
12, 79298, Note_off_c, 9, 39, 0
12, 79320, Note_on_c, 9, 82, 27
12, 79379, Note_off_c, 9, 82, 0
12, 79440, Note_on_c, 9, 27, 104
12, 79440, Note_on_c, 9, 35, 118
12, 79440, Note_on_c, 9, 42, 105
12, 79440, Note_on_c, 9, 82, 54
12, 79500, Note_off_c, 9, 82, 0
12, 79504, Note_off_c, 9, 35, 0
12, 79509, Note_off_c, 9, 27, 0
12, 79521, Note_off_c, 9, 42, 0
12, 79560, Note_on_c, 9, 82, 45
12, 79619, Note_off_c, 9, 82, 0
12, 79680, Note_on_c, 9, 42, 65
12, 79680, Note_on_c, 9, 70, 103
12, 79680, Note_on_c, 9, 82, 77
12, 79755, Note_off_c, 9, 82, 0
12, 79758, Note_off_c, 9, 42, 0
12, 79758, Note_off_c, 9, 70, 0
12, 79800, Note_on_c, 9, 82, 27
12, 79838, Note_off_c, 9, 82, 0
12, 79920, Note_on_c, 9, 42, 100
12, 79920, Note_on_c, 9, 82, 57
12, 79977, Note_off_c, 9, 82, 0
12, 79988, Note_off_c, 9, 42, 0
12, 80040, Note_on_c, 9, 27, 112
12, 80040, Note_on_c, 9, 35, 119
12, 80040, Note_on_c, 9, 42, 68
12, 80040, Note_on_c, 9, 82, 44
12, 80089, Note_off_c, 9, 42, 0
12, 80098, Note_off_c, 9, 82, 0
12, 80117, Note_off_c, 9, 35, 0
12, 80128, Note_off_c, 9, 27, 0
12, 80160, Note_on_c, 9, 39, 113
12, 80160, Note_on_c, 9, 40, 111
12, 80160, Note_on_c, 9, 42, 88
12, 80160, Note_on_c, 9, 70, 100
12, 80160, Note_on_c, 9, 82, 76
12, 80223, Note_off_c, 9, 42, 0
12, 80228, Note_off_c, 9, 70, 0
12, 80231, Note_off_c, 9, 82, 0
12, 80250, Note_off_c, 9, 40, 0
12, 80251, Note_off_c, 9, 39, 0
12, 80280, Note_on_c, 9, 82, 27
12, 80329, Note_off_c, 9, 82, 0
12, 80400, Note_on_c, 9, 27, 110
12, 80400, Note_on_c, 9, 35, 122
12, 80400, Note_on_c, 9, 42, 103
12, 80400, Note_on_c, 9, 82, 59
12, 80452, Note_off_c, 9, 82, 0
12, 80474, Note_off_c, 9, 35, 0
12, 80484, Note_off_c, 9, 42, 0
12, 80491, Note_off_c, 9, 27, 0
12, 80520, Note_on_c, 9, 82, 46
12, 80559, Note_off_c, 9, 82, 0
12, 80640, Note_on_c, 9, 27, 112
12, 80640, Note_on_c, 9, 35, 117
12, 80640, Note_on_c, 9, 42, 72
12, 80640, Note_on_c, 9, 70, 105
12, 80640, Note_on_c, 9, 82, 76
12, 80694, Note_off_c, 9, 42, 0
12, 80708, Note_off_c, 9, 82, 0
12, 80718, Note_off_c, 9, 70, 0
12, 80725, Note_off_c, 9, 35, 0
12, 80748, Note_off_c, 9, 27, 0
12, 80760, Note_on_c, 9, 82, 30
12, 80824, Note_off_c, 9, 82, 0
12, 80880, Note_on_c, 9, 42, 105
12, 80880, Note_on_c, 9, 82, 56
12, 80934, Note_off_c, 9, 82, 0
12, 80951, Note_off_c, 9, 42, 0
12, 81000, Note_on_c, 9, 27, 114
12, 81000, Note_on_c, 9, 35, 122
12, 81000, Note_on_c, 9, 42, 83
12, 81000, Note_on_c, 9, 82, 45
12, 81048, Note_off_c, 9, 42, 0
12, 81058, Note_off_c, 9, 82, 0
12, 81080, Note_off_c, 9, 35, 0
12, 81094, Note_off_c, 9, 27, 0
12, 81120, Note_on_c, 9, 39, 110
12, 81120, Note_on_c, 9, 40, 107
12, 81120, Note_on_c, 9, 42, 71
12, 81120, Note_on_c, 9, 70, 100
12, 81120, Note_on_c, 9, 82, 76
12, 81187, Note_off_c, 9, 82, 0
12, 81190, Note_off_c, 9, 42, 0
12, 81203, Note_off_c, 9, 70, 0
12, 81211, Note_off_c, 9, 40, 0
12, 81218, Note_off_c, 9, 39, 0
12, 81240, Note_on_c, 9, 82, 27
12, 81299, Note_off_c, 9, 82, 0
12, 81360, Note_on_c, 9, 27, 104
12, 81360, Note_on_c, 9, 35, 118
12, 81360, Note_on_c, 9, 42, 105
12, 81360, Note_on_c, 9, 82, 54
12, 81420, Note_off_c, 9, 82, 0
12, 81424, Note_off_c, 9, 35, 0
12, 81429, Note_off_c, 9, 27, 0
12, 81441, Note_off_c, 9, 42, 0
12, 81480, Note_on_c, 9, 82, 45
12, 81539, Note_off_c, 9, 82, 0
12, 81600, Note_on_c, 9, 42, 65
12, 81600, Note_on_c, 9, 70, 103
12, 81600, Note_on_c, 9, 82, 77
12, 81675, Note_off_c, 9, 82, 0
12, 81678, Note_off_c, 9, 42, 0
12, 81678, Note_off_c, 9, 70, 0
12, 81720, Note_on_c, 9, 82, 27
12, 81758, Note_off_c, 9, 82, 0
12, 81840, Note_on_c, 9, 42, 100
12, 81840, Note_on_c, 9, 82, 57
12, 81897, Note_off_c, 9, 82, 0
12, 81908, Note_off_c, 9, 42, 0
12, 81960, Note_on_c, 9, 27, 112
12, 81960, Note_on_c, 9, 35, 119
12, 81960, Note_on_c, 9, 42, 68
12, 81960, Note_on_c, 9, 82, 44
12, 82009, Note_off_c, 9, 42, 0
12, 82018, Note_off_c, 9, 82, 0
12, 82037, Note_off_c, 9, 35, 0
12, 82048, Note_off_c, 9, 27, 0
12, 82080, Note_on_c, 9, 39, 113
12, 82080, Note_on_c, 9, 40, 111
12, 82080, Note_on_c, 9, 42, 88
12, 82080, Note_on_c, 9, 70, 100
12, 82080, Note_on_c, 9, 82, 76
12, 82143, Note_off_c, 9, 42, 0
12, 82148, Note_off_c, 9, 70, 0
12, 82151, Note_off_c, 9, 82, 0
12, 82170, Note_off_c, 9, 40, 0
12, 82171, Note_off_c, 9, 39, 0
12, 82200, Note_on_c, 9, 82, 27
12, 82249, Note_off_c, 9, 82, 0
12, 82320, Note_on_c, 9, 27, 110
12, 82320, Note_on_c, 9, 35, 122
12, 82320, Note_on_c, 9, 42, 103
12, 82320, Note_on_c, 9, 82, 59
12, 82372, Note_off_c, 9, 82, 0
12, 82394, Note_off_c, 9, 35, 0
12, 82404, Note_off_c, 9, 42, 0
12, 82411, Note_off_c, 9, 27, 0
12, 82440, Note_on_c, 9, 82, 46
12, 82479, Note_off_c, 9, 82, 0
12, 82560, Note_on_c, 9, 27, 112
12, 82560, Note_on_c, 9, 35, 117
12, 82560, Note_on_c, 9, 42, 72
12, 82560, Note_on_c, 9, 70, 105
12, 82560, Note_on_c, 9, 82, 76
12, 82614, Note_off_c, 9, 42, 0
12, 82628, Note_off_c, 9, 82, 0
12, 82638, Note_off_c, 9, 70, 0
12, 82645, Note_off_c, 9, 35, 0
12, 82668, Note_off_c, 9, 27, 0
12, 82680, Note_on_c, 9, 82, 30
12, 82744, Note_off_c, 9, 82, 0
12, 82800, Note_on_c, 9, 42, 105
12, 82800, Note_on_c, 9, 82, 56
12, 82854, Note_off_c, 9, 82, 0
12, 82871, Note_off_c, 9, 42, 0
12, 82920, Note_on_c, 9, 27, 114
12, 82920, Note_on_c, 9, 35, 122
12, 82920, Note_on_c, 9, 42, 83
12, 82920, Note_on_c, 9, 82, 45
12, 82968, Note_off_c, 9, 42, 0
12, 82978, Note_off_c, 9, 82, 0
12, 83000, Note_off_c, 9, 35, 0
12, 83014, Note_off_c, 9, 27, 0
12, 83040, Note_on_c, 9, 39, 110
12, 83040, Note_on_c, 9, 40, 107
12, 83040, Note_on_c, 9, 42, 71
12, 83040, Note_on_c, 9, 70, 100
12, 83040, Note_on_c, 9, 82, 76
12, 83107, Note_off_c, 9, 82, 0
12, 83110, Note_off_c, 9, 42, 0
12, 83123, Note_off_c, 9, 70, 0
12, 83131, Note_off_c, 9, 40, 0
12, 83138, Note_off_c, 9, 39, 0
12, 83160, Note_on_c, 9, 82, 27
12, 83219, Note_off_c, 9, 82, 0
12, 83280, Note_on_c, 9, 27, 104
12, 83280, Note_on_c, 9, 35, 118
12, 83280, Note_on_c, 9, 42, 105
12, 83280, Note_on_c, 9, 82, 54
12, 83340, Note_off_c, 9, 82, 0
12, 83344, Note_off_c, 9, 35, 0
12, 83349, Note_off_c, 9, 27, 0
12, 83361, Note_off_c, 9, 42, 0
12, 83400, Note_on_c, 9, 82, 45
12, 83459, Note_off_c, 9, 82, 0
12, 83520, Note_on_c, 9, 42, 65
12, 83520, Note_on_c, 9, 70, 103
12, 83520, Note_on_c, 9, 82, 77
12, 83595, Note_off_c, 9, 82, 0
12, 83598, Note_off_c, 9, 42, 0
12, 83598, Note_off_c, 9, 70, 0
12, 83640, Note_on_c, 9, 82, 27
12, 83678, Note_off_c, 9, 82, 0
12, 83760, Note_on_c, 9, 42, 100
12, 83760, Note_on_c, 9, 82, 57
12, 83817, Note_off_c, 9, 82, 0
12, 83828, Note_off_c, 9, 42, 0
12, 83880, Note_on_c, 9, 27, 112
12, 83880, Note_on_c, 9, 35, 119
12, 83880, Note_on_c, 9, 42, 68
12, 83880, Note_on_c, 9, 82, 44
12, 83929, Note_off_c, 9, 42, 0
12, 83938, Note_off_c, 9, 82, 0
12, 83957, Note_off_c, 9, 35, 0
12, 83968, Note_off_c, 9, 27, 0
12, 84000, Note_on_c, 9, 39, 113
12, 84000, Note_on_c, 9, 40, 111
12, 84000, Note_on_c, 9, 42, 88
12, 84000, Note_on_c, 9, 70, 100
12, 84000, Note_on_c, 9, 82, 76
12, 84063, Note_off_c, 9, 42, 0
12, 84068, Note_off_c, 9, 70, 0
12, 84071, Note_off_c, 9, 82, 0
12, 84090, Note_off_c, 9, 40, 0
12, 84091, Note_off_c, 9, 39, 0
12, 84120, Note_on_c, 9, 82, 27
12, 84169, Note_off_c, 9, 82, 0
12, 84240, Note_on_c, 9, 27, 110
12, 84240, Note_on_c, 9, 35, 122
12, 84240, Note_on_c, 9, 42, 103
12, 84240, Note_on_c, 9, 82, 59
12, 84292, Note_off_c, 9, 82, 0
12, 84314, Note_off_c, 9, 35, 0
12, 84324, Note_off_c, 9, 42, 0
12, 84331, Note_off_c, 9, 27, 0
12, 84360, Note_on_c, 9, 82, 46
12, 84399, Note_off_c, 9, 82, 0
12, 84480, Note_on_c, 9, 27, 112
12, 84480, Note_on_c, 9, 35, 117
12, 84480, Note_on_c, 9, 42, 72
12, 84480, Note_on_c, 9, 70, 105
12, 84480, Note_on_c, 9, 82, 76
12, 84534, Note_off_c, 9, 42, 0
12, 84548, Note_off_c, 9, 82, 0
12, 84558, Note_off_c, 9, 70, 0
12, 84565, Note_off_c, 9, 35, 0
12, 84588, Note_off_c, 9, 27, 0
12, 84600, Note_on_c, 9, 82, 30
12, 84664, Note_off_c, 9, 82, 0
12, 84720, Note_on_c, 9, 42, 105
12, 84720, Note_on_c, 9, 82, 56
12, 84774, Note_off_c, 9, 82, 0
12, 84791, Note_off_c, 9, 42, 0
12, 84840, Note_on_c, 9, 27, 114
12, 84840, Note_on_c, 9, 35, 122
12, 84840, Note_on_c, 9, 42, 83
12, 84840, Note_on_c, 9, 82, 45
12, 84888, Note_off_c, 9, 42, 0
12, 84898, Note_off_c, 9, 82, 0
12, 84920, Note_off_c, 9, 35, 0
12, 84934, Note_off_c, 9, 27, 0
12, 84960, Note_on_c, 9, 39, 110
12, 84960, Note_on_c, 9, 40, 107
12, 84960, Note_on_c, 9, 42, 71
12, 84960, Note_on_c, 9, 70, 100
12, 84960, Note_on_c, 9, 82, 76
12, 85027, Note_off_c, 9, 82, 0
12, 85030, Note_off_c, 9, 42, 0
12, 85043, Note_off_c, 9, 70, 0
12, 85051, Note_off_c, 9, 40, 0
12, 85058, Note_off_c, 9, 39, 0
12, 85080, Note_on_c, 9, 82, 27
12, 85139, Note_off_c, 9, 82, 0
12, 85200, Note_on_c, 9, 27, 104
12, 85200, Note_on_c, 9, 35, 118
12, 85200, Note_on_c, 9, 42, 105
12, 85200, Note_on_c, 9, 82, 54
12, 85260, Note_off_c, 9, 82, 0
12, 85264, Note_off_c, 9, 35, 0
12, 85269, Note_off_c, 9, 27, 0
12, 85281, Note_off_c, 9, 42, 0
12, 85320, Note_on_c, 9, 82, 45
12, 85379, Note_off_c, 9, 82, 0
12, 85440, Note_on_c, 9, 42, 65
12, 85440, Note_on_c, 9, 49, 73
12, 85440, Note_on_c, 9, 55, 71
12, 85440, Note_on_c, 9, 70, 103
12, 85440, Note_on_c, 9, 82, 77
12, 85515, Note_off_c, 9, 82, 0
12, 85518, Note_off_c, 9, 42, 0
12, 85518, Note_off_c, 9, 70, 0
12, 85530, Note_off_c, 9, 49, 0
12, 85534, Note_off_c, 9, 55, 0
12, 85560, Note_on_c, 9, 82, 27
12, 85598, Note_off_c, 9, 82, 0
12, 85680, Note_on_c, 9, 42, 100
12, 85680, Note_on_c, 9, 48, 120
12, 85680, Note_on_c, 9, 82, 57
12, 85726, Note_off_c, 9, 48, 0
12, 85737, Note_off_c, 9, 82, 0
12, 85748, Note_off_c, 9, 42, 0
12, 85800, Note_on_c, 9, 27, 112
12, 85800, Note_on_c, 9, 35, 119
12, 85800, Note_on_c, 9, 42, 68
12, 85800, Note_on_c, 9, 48, 116
12, 85800, Note_on_c, 9, 82, 44
12, 85849, Note_off_c, 9, 42, 0
12, 85853, Note_off_c, 9, 48, 0
12, 85858, Note_off_c, 9, 82, 0
12, 85877, Note_off_c, 9, 35, 0
12, 85888, Note_off_c, 9, 27, 0
12, 85920, Note_on_c, 9, 39, 113
12, 85920, Note_on_c, 9, 40, 111
12, 85920, Note_on_c, 9, 42, 88
12, 85920, Note_on_c, 9, 48, 122
12, 85920, Note_on_c, 9, 70, 100
12, 85920, Note_on_c, 9, 82, 76
12, 85978, Note_off_c, 9, 48, 0
12, 85983, Note_off_c, 9, 42, 0
12, 85988, Note_off_c, 9, 70, 0
12, 85991, Note_off_c, 9, 82, 0
12, 86010, Note_off_c, 9, 40, 0
12, 86011, Note_off_c, 9, 39, 0
12, 86040, Note_on_c, 9, 48, 119
12, 86040, Note_on_c, 9, 82, 27
12, 86088, Note_off_c, 9, 48, 0
12, 86089, Note_off_c, 9, 82, 0
12, 86160, Note_on_c, 9, 27, 110
12, 86160, Note_on_c, 9, 35, 122
12, 86160, Note_on_c, 9, 42, 103
12, 86160, Note_on_c, 9, 47, 120
12, 86160, Note_on_c, 9, 82, 59
12, 86212, Note_off_c, 9, 82, 0
12, 86213, Note_off_c, 9, 47, 0
12, 86234, Note_off_c, 9, 35, 0
12, 86244, Note_off_c, 9, 42, 0
12, 86251, Note_off_c, 9, 27, 0
12, 86280, Note_on_c, 9, 47, 122
12, 86280, Note_on_c, 9, 82, 46
12, 86319, Note_off_c, 9, 82, 0
12, 86345, Note_off_c, 9, 47, 0
12, 86400, Note_on_c, 9, 27, 112
12, 86400, Note_on_c, 9, 35, 117
12, 86400, Note_on_c, 9, 42, 72
12, 86400, Note_on_c, 9, 57, 90
12, 86400, Note_on_c, 9, 70, 105
12, 86400, Note_on_c, 9, 82, 76
12, 86454, Note_off_c, 9, 42, 0
12, 86468, Note_off_c, 9, 82, 0
12, 86478, Note_off_c, 9, 70, 0
12, 86484, Note_off_c, 9, 57, 0
12, 86485, Note_off_c, 9, 35, 0
12, 86508, Note_off_c, 9, 27, 0
12, 86520, Note_on_c, 9, 82, 30
12, 86584, Note_off_c, 9, 82, 0
12, 86640, Note_on_c, 9, 42, 105
12, 86640, Note_on_c, 9, 82, 56
12, 86694, Note_off_c, 9, 82, 0
12, 86711, Note_off_c, 9, 42, 0
12, 86760, Note_on_c, 9, 27, 114
12, 86760, Note_on_c, 9, 35, 122
12, 86760, Note_on_c, 9, 42, 83
12, 86760, Note_on_c, 9, 82, 45
12, 86808, Note_off_c, 9, 42, 0
12, 86818, Note_off_c, 9, 82, 0
12, 86840, Note_off_c, 9, 35, 0
12, 86854, Note_off_c, 9, 27, 0
12, 86880, Note_on_c, 9, 39, 110
12, 86880, Note_on_c, 9, 40, 107
12, 86880, Note_on_c, 9, 42, 71
12, 86880, Note_on_c, 9, 70, 100
12, 86880, Note_on_c, 9, 82, 76
12, 86947, Note_off_c, 9, 82, 0
12, 86950, Note_off_c, 9, 42, 0
12, 86963, Note_off_c, 9, 70, 0
12, 86971, Note_off_c, 9, 40, 0
12, 86978, Note_off_c, 9, 39, 0
12, 87000, Note_on_c, 9, 82, 27
12, 87059, Note_off_c, 9, 82, 0
12, 87120, Note_on_c, 9, 27, 104
12, 87120, Note_on_c, 9, 35, 118
12, 87120, Note_on_c, 9, 42, 105
12, 87120, Note_on_c, 9, 82, 54
12, 87180, Note_off_c, 9, 82, 0
12, 87184, Note_off_c, 9, 35, 0
12, 87189, Note_off_c, 9, 27, 0
12, 87201, Note_off_c, 9, 42, 0
12, 87240, Note_on_c, 9, 82, 45
12, 87299, Note_off_c, 9, 82, 0
12, 87360, Note_on_c, 9, 42, 65
12, 87360, Note_on_c, 9, 70, 103
12, 87360, Note_on_c, 9, 82, 77
12, 87435, Note_off_c, 9, 82, 0
12, 87438, Note_off_c, 9, 42, 0
12, 87438, Note_off_c, 9, 70, 0
12, 87480, Note_on_c, 9, 82, 27
12, 87518, Note_off_c, 9, 82, 0
12, 87600, Note_on_c, 9, 42, 100
12, 87600, Note_on_c, 9, 82, 57
12, 87657, Note_off_c, 9, 82, 0
12, 87668, Note_off_c, 9, 42, 0
12, 87720, Note_on_c, 9, 27, 112
12, 87720, Note_on_c, 9, 35, 119
12, 87720, Note_on_c, 9, 42, 68
12, 87720, Note_on_c, 9, 82, 44
12, 87769, Note_off_c, 9, 42, 0
12, 87778, Note_off_c, 9, 82, 0
12, 87797, Note_off_c, 9, 35, 0
12, 87808, Note_off_c, 9, 27, 0
12, 87840, Note_on_c, 9, 39, 113
12, 87840, Note_on_c, 9, 40, 111
12, 87840, Note_on_c, 9, 42, 88
12, 87840, Note_on_c, 9, 70, 100
12, 87840, Note_on_c, 9, 82, 76
12, 87903, Note_off_c, 9, 42, 0
12, 87908, Note_off_c, 9, 70, 0
12, 87911, Note_off_c, 9, 82, 0
12, 87930, Note_off_c, 9, 40, 0
12, 87931, Note_off_c, 9, 39, 0
12, 87960, Note_on_c, 9, 82, 27
12, 88009, Note_off_c, 9, 82, 0
12, 88080, Note_on_c, 9, 27, 110
12, 88080, Note_on_c, 9, 35, 122
12, 88080, Note_on_c, 9, 42, 103
12, 88080, Note_on_c, 9, 82, 59
12, 88132, Note_off_c, 9, 82, 0
12, 88154, Note_off_c, 9, 35, 0
12, 88164, Note_off_c, 9, 42, 0
12, 88171, Note_off_c, 9, 27, 0
12, 88200, Note_on_c, 9, 82, 46
12, 88239, Note_off_c, 9, 82, 0
12, 88320, Note_on_c, 9, 27, 112
12, 88320, Note_on_c, 9, 35, 117
12, 88320, Note_on_c, 9, 42, 72
12, 88320, Note_on_c, 9, 70, 105
12, 88320, Note_on_c, 9, 82, 76
12, 88374, Note_off_c, 9, 42, 0
12, 88388, Note_off_c, 9, 82, 0
12, 88398, Note_off_c, 9, 70, 0
12, 88405, Note_off_c, 9, 35, 0
12, 88428, Note_off_c, 9, 27, 0
12, 88440, Note_on_c, 9, 82, 30
12, 88504, Note_off_c, 9, 82, 0
12, 88560, Note_on_c, 9, 42, 105
12, 88560, Note_on_c, 9, 82, 56
12, 88614, Note_off_c, 9, 82, 0
12, 88631, Note_off_c, 9, 42, 0
12, 88680, Note_on_c, 9, 27, 114
12, 88680, Note_on_c, 9, 35, 122
12, 88680, Note_on_c, 9, 42, 83
12, 88680, Note_on_c, 9, 82, 45
12, 88728, Note_off_c, 9, 42, 0
12, 88738, Note_off_c, 9, 82, 0
12, 88760, Note_off_c, 9, 35, 0
12, 88774, Note_off_c, 9, 27, 0
12, 88800, Note_on_c, 9, 39, 110
12, 88800, Note_on_c, 9, 40, 107
12, 88800, Note_on_c, 9, 42, 71
12, 88800, Note_on_c, 9, 70, 100
12, 88800, Note_on_c, 9, 82, 76
12, 88867, Note_off_c, 9, 82, 0
12, 88870, Note_off_c, 9, 42, 0
12, 88883, Note_off_c, 9, 70, 0
12, 88891, Note_off_c, 9, 40, 0
12, 88898, Note_off_c, 9, 39, 0
12, 88920, Note_on_c, 9, 82, 27
12, 88979, Note_off_c, 9, 82, 0
12, 89040, Note_on_c, 9, 27, 104
12, 89040, Note_on_c, 9, 35, 118
12, 89040, Note_on_c, 9, 42, 105
12, 89040, Note_on_c, 9, 82, 54
12, 89100, Note_off_c, 9, 82, 0
12, 89104, Note_off_c, 9, 35, 0
12, 89109, Note_off_c, 9, 27, 0
12, 89121, Note_off_c, 9, 42, 0
12, 89160, Note_on_c, 9, 82, 45
12, 89219, Note_off_c, 9, 82, 0
12, 89280, Note_on_c, 9, 42, 65
12, 89280, Note_on_c, 9, 70, 103
12, 89280, Note_on_c, 9, 82, 77
12, 89355, Note_off_c, 9, 82, 0
12, 89358, Note_off_c, 9, 42, 0
12, 89358, Note_off_c, 9, 70, 0
12, 89400, Note_on_c, 9, 82, 27
12, 89438, Note_off_c, 9, 82, 0
12, 89520, Note_on_c, 9, 42, 100
12, 89520, Note_on_c, 9, 82, 57
12, 89577, Note_off_c, 9, 82, 0
12, 89588, Note_off_c, 9, 42, 0
12, 89640, Note_on_c, 9, 27, 112
12, 89640, Note_on_c, 9, 35, 119
12, 89640, Note_on_c, 9, 42, 68
12, 89640, Note_on_c, 9, 82, 44
12, 89689, Note_off_c, 9, 42, 0
12, 89698, Note_off_c, 9, 82, 0
12, 89717, Note_off_c, 9, 35, 0
12, 89728, Note_off_c, 9, 27, 0
12, 89760, Note_on_c, 9, 39, 113
12, 89760, Note_on_c, 9, 40, 111
12, 89760, Note_on_c, 9, 42, 88
12, 89760, Note_on_c, 9, 70, 100
12, 89760, Note_on_c, 9, 82, 76
12, 89823, Note_off_c, 9, 42, 0
12, 89828, Note_off_c, 9, 70, 0
12, 89831, Note_off_c, 9, 82, 0
12, 89850, Note_off_c, 9, 40, 0
12, 89851, Note_off_c, 9, 39, 0
12, 89880, Note_on_c, 9, 82, 27
12, 89929, Note_off_c, 9, 82, 0
12, 90000, Note_on_c, 9, 27, 110
12, 90000, Note_on_c, 9, 35, 122
12, 90000, Note_on_c, 9, 42, 103
12, 90000, Note_on_c, 9, 82, 59
12, 90052, Note_off_c, 9, 82, 0
12, 90074, Note_off_c, 9, 35, 0
12, 90084, Note_off_c, 9, 42, 0
12, 90091, Note_off_c, 9, 27, 0
12, 90120, Note_on_c, 9, 82, 46
12, 90159, Note_off_c, 9, 82, 0
12, 90240, Note_on_c, 9, 27, 112
12, 90240, Note_on_c, 9, 35, 117
12, 90240, Note_on_c, 9, 42, 72
12, 90240, Note_on_c, 9, 70, 105
12, 90240, Note_on_c, 9, 82, 76
12, 90294, Note_off_c, 9, 42, 0
12, 90308, Note_off_c, 9, 82, 0
12, 90318, Note_off_c, 9, 70, 0
12, 90325, Note_off_c, 9, 35, 0
12, 90348, Note_off_c, 9, 27, 0
12, 90360, Note_on_c, 9, 82, 30
12, 90424, Note_off_c, 9, 82, 0
12, 90480, Note_on_c, 9, 42, 105
12, 90480, Note_on_c, 9, 82, 56
12, 90534, Note_off_c, 9, 82, 0
12, 90551, Note_off_c, 9, 42, 0
12, 90600, Note_on_c, 9, 27, 114
12, 90600, Note_on_c, 9, 35, 122
12, 90600, Note_on_c, 9, 42, 83
12, 90600, Note_on_c, 9, 82, 45
12, 90648, Note_off_c, 9, 42, 0
12, 90658, Note_off_c, 9, 82, 0
12, 90680, Note_off_c, 9, 35, 0
12, 90694, Note_off_c, 9, 27, 0
12, 90720, Note_on_c, 9, 39, 110
12, 90720, Note_on_c, 9, 40, 107
12, 90720, Note_on_c, 9, 42, 71
12, 90720, Note_on_c, 9, 70, 100
12, 90720, Note_on_c, 9, 82, 76
12, 90787, Note_off_c, 9, 82, 0
12, 90790, Note_off_c, 9, 42, 0
12, 90803, Note_off_c, 9, 70, 0
12, 90811, Note_off_c, 9, 40, 0
12, 90818, Note_off_c, 9, 39, 0
12, 90840, Note_on_c, 9, 82, 27
12, 90899, Note_off_c, 9, 82, 0
12, 90960, Note_on_c, 9, 27, 104
12, 90960, Note_on_c, 9, 35, 118
12, 90960, Note_on_c, 9, 42, 105
12, 90960, Note_on_c, 9, 82, 54
12, 91020, Note_off_c, 9, 82, 0
12, 91024, Note_off_c, 9, 35, 0
12, 91029, Note_off_c, 9, 27, 0
12, 91041, Note_off_c, 9, 42, 0
12, 91080, Note_on_c, 9, 82, 45
12, 91139, Note_off_c, 9, 82, 0
12, 91200, Note_on_c, 9, 42, 65
12, 91200, Note_on_c, 9, 70, 103
12, 91200, Note_on_c, 9, 82, 77
12, 91275, Note_off_c, 9, 82, 0
12, 91278, Note_off_c, 9, 42, 0
12, 91278, Note_off_c, 9, 70, 0
12, 91320, Note_on_c, 9, 82, 27
12, 91358, Note_off_c, 9, 82, 0
12, 91440, Note_on_c, 9, 42, 100
12, 91440, Note_on_c, 9, 82, 57
12, 91497, Note_off_c, 9, 82, 0
12, 91508, Note_off_c, 9, 42, 0
12, 91560, Note_on_c, 9, 27, 112
12, 91560, Note_on_c, 9, 35, 119
12, 91560, Note_on_c, 9, 42, 68
12, 91560, Note_on_c, 9, 82, 44
12, 91609, Note_off_c, 9, 42, 0
12, 91618, Note_off_c, 9, 82, 0
12, 91637, Note_off_c, 9, 35, 0
12, 91648, Note_off_c, 9, 27, 0
12, 91680, Note_on_c, 9, 39, 113
12, 91680, Note_on_c, 9, 40, 111
12, 91680, Note_on_c, 9, 42, 88
12, 91680, Note_on_c, 9, 70, 100
12, 91680, Note_on_c, 9, 82, 76
12, 91743, Note_off_c, 9, 42, 0
12, 91748, Note_off_c, 9, 70, 0
12, 91751, Note_off_c, 9, 82, 0
12, 91770, Note_off_c, 9, 40, 0
12, 91771, Note_off_c, 9, 39, 0
12, 91800, Note_on_c, 9, 82, 27
12, 91849, Note_off_c, 9, 82, 0
12, 91920, Note_on_c, 9, 27, 110
12, 91920, Note_on_c, 9, 35, 122
12, 91920, Note_on_c, 9, 42, 103
12, 91920, Note_on_c, 9, 82, 59
12, 91972, Note_off_c, 9, 82, 0
12, 91994, Note_off_c, 9, 35, 0
12, 92004, Note_off_c, 9, 42, 0
12, 92011, Note_off_c, 9, 27, 0
12, 92040, Note_on_c, 9, 82, 46
12, 92079, Note_off_c, 9, 82, 0
12, 92160, Note_on_c, 9, 27, 112
12, 92160, Note_on_c, 9, 35, 117
12, 92160, Note_on_c, 9, 42, 72
12, 92160, Note_on_c, 9, 70, 105
12, 92160, Note_on_c, 9, 82, 76
12, 92214, Note_off_c, 9, 42, 0
12, 92228, Note_off_c, 9, 82, 0
12, 92238, Note_off_c, 9, 70, 0
12, 92245, Note_off_c, 9, 35, 0
12, 92268, Note_off_c, 9, 27, 0
12, 92280, Note_on_c, 9, 82, 30
12, 92344, Note_off_c, 9, 82, 0
12, 92400, Note_on_c, 9, 42, 105
12, 92400, Note_on_c, 9, 82, 56
12, 92454, Note_off_c, 9, 82, 0
12, 92471, Note_off_c, 9, 42, 0
12, 92520, Note_on_c, 9, 27, 114
12, 92520, Note_on_c, 9, 35, 122
12, 92520, Note_on_c, 9, 42, 83
12, 92520, Note_on_c, 9, 82, 45
12, 92568, Note_off_c, 9, 42, 0
12, 92578, Note_off_c, 9, 82, 0
12, 92600, Note_off_c, 9, 35, 0
12, 92614, Note_off_c, 9, 27, 0
12, 92640, Note_on_c, 9, 39, 110
12, 92640, Note_on_c, 9, 40, 107
12, 92640, Note_on_c, 9, 42, 71
12, 92640, Note_on_c, 9, 70, 100
12, 92640, Note_on_c, 9, 82, 76
12, 92707, Note_off_c, 9, 82, 0
12, 92710, Note_off_c, 9, 42, 0
12, 92723, Note_off_c, 9, 70, 0
12, 92731, Note_off_c, 9, 40, 0
12, 92738, Note_off_c, 9, 39, 0
12, 92760, Note_on_c, 9, 82, 27
12, 92819, Note_off_c, 9, 82, 0
12, 92880, Note_on_c, 9, 27, 104
12, 92880, Note_on_c, 9, 35, 118
12, 92880, Note_on_c, 9, 42, 105
12, 92880, Note_on_c, 9, 82, 54
12, 92940, Note_off_c, 9, 82, 0
12, 92944, Note_off_c, 9, 35, 0
12, 92949, Note_off_c, 9, 27, 0
12, 92961, Note_off_c, 9, 42, 0
12, 93000, Note_on_c, 9, 82, 45
12, 93059, Note_off_c, 9, 82, 0
12, 93120, Note_on_c, 9, 42, 65
12, 93120, Note_on_c, 9, 70, 103
12, 93120, Note_on_c, 9, 82, 77
12, 93195, Note_off_c, 9, 82, 0
12, 93198, Note_off_c, 9, 42, 0
12, 93198, Note_off_c, 9, 70, 0
12, 93240, Note_on_c, 9, 82, 27
12, 93278, Note_off_c, 9, 82, 0
12, 93360, Note_on_c, 9, 42, 100
12, 93360, Note_on_c, 9, 82, 57
12, 93417, Note_off_c, 9, 82, 0
12, 93428, Note_off_c, 9, 42, 0
12, 93480, Note_on_c, 9, 27, 112
12, 93480, Note_on_c, 9, 35, 119
12, 93480, Note_on_c, 9, 42, 68
12, 93480, Note_on_c, 9, 82, 44
12, 93529, Note_off_c, 9, 42, 0
12, 93538, Note_off_c, 9, 82, 0
12, 93557, Note_off_c, 9, 35, 0
12, 93568, Note_off_c, 9, 27, 0
12, 93600, Note_on_c, 9, 39, 113
12, 93600, Note_on_c, 9, 40, 111
12, 93600, Note_on_c, 9, 42, 88
12, 93600, Note_on_c, 9, 70, 100
12, 93600, Note_on_c, 9, 82, 76
12, 93663, Note_off_c, 9, 42, 0
12, 93668, Note_off_c, 9, 70, 0
12, 93671, Note_off_c, 9, 82, 0
12, 93690, Note_off_c, 9, 40, 0
12, 93691, Note_off_c, 9, 39, 0
12, 93720, Note_on_c, 9, 82, 27
12, 93769, Note_off_c, 9, 82, 0
12, 93840, Note_on_c, 9, 27, 110
12, 93840, Note_on_c, 9, 35, 122
12, 93840, Note_on_c, 9, 42, 103
12, 93840, Note_on_c, 9, 82, 59
12, 93892, Note_off_c, 9, 82, 0
12, 93914, Note_off_c, 9, 35, 0
12, 93924, Note_off_c, 9, 42, 0
12, 93931, Note_off_c, 9, 27, 0
12, 93960, Note_on_c, 9, 82, 46
12, 93999, Note_off_c, 9, 82, 0
12, 94080, Note_on_c, 9, 27, 112
12, 94080, Note_on_c, 9, 35, 117
12, 94080, Note_on_c, 9, 42, 72
12, 94080, Note_on_c, 9, 57, 90
12, 94080, Note_on_c, 9, 70, 105
12, 94080, Note_on_c, 9, 82, 76
12, 94134, Note_off_c, 9, 42, 0
12, 94148, Note_off_c, 9, 82, 0
12, 94158, Note_off_c, 9, 70, 0
12, 94164, Note_off_c, 9, 57, 0
12, 94165, Note_off_c, 9, 35, 0
12, 94188, Note_off_c, 9, 27, 0
12, 94200, Note_on_c, 9, 82, 30
12, 94264, Note_off_c, 9, 82, 0
12, 94320, Note_on_c, 9, 42, 105
12, 94320, Note_on_c, 9, 82, 56
12, 94374, Note_off_c, 9, 82, 0
12, 94391, Note_off_c, 9, 42, 0
12, 94440, Note_on_c, 9, 27, 114
12, 94440, Note_on_c, 9, 35, 122
12, 94440, Note_on_c, 9, 42, 83
12, 94440, Note_on_c, 9, 82, 45
12, 94488, Note_off_c, 9, 42, 0
12, 94498, Note_off_c, 9, 82, 0
12, 94520, Note_off_c, 9, 35, 0
12, 94534, Note_off_c, 9, 27, 0
12, 94560, Note_on_c, 9, 39, 110
12, 94560, Note_on_c, 9, 40, 107
12, 94560, Note_on_c, 9, 42, 71
12, 94560, Note_on_c, 9, 70, 100
12, 94560, Note_on_c, 9, 82, 76
12, 94627, Note_off_c, 9, 82, 0
12, 94630, Note_off_c, 9, 42, 0
12, 94643, Note_off_c, 9, 70, 0
12, 94651, Note_off_c, 9, 40, 0
12, 94658, Note_off_c, 9, 39, 0
12, 94680, Note_on_c, 9, 82, 27
12, 94739, Note_off_c, 9, 82, 0
12, 94800, Note_on_c, 9, 27, 104
12, 94800, Note_on_c, 9, 35, 118
12, 94800, Note_on_c, 9, 42, 105
12, 94800, Note_on_c, 9, 82, 54
12, 94860, Note_off_c, 9, 82, 0
12, 94864, Note_off_c, 9, 35, 0
12, 94869, Note_off_c, 9, 27, 0
12, 94881, Note_off_c, 9, 42, 0
12, 94920, Note_on_c, 9, 82, 45
12, 94979, Note_off_c, 9, 82, 0
12, 95040, Note_on_c, 9, 42, 65
12, 95040, Note_on_c, 9, 70, 103
12, 95040, Note_on_c, 9, 82, 77
12, 95115, Note_off_c, 9, 82, 0
12, 95118, Note_off_c, 9, 42, 0
12, 95118, Note_off_c, 9, 70, 0
12, 95160, Note_on_c, 9, 82, 27
12, 95198, Note_off_c, 9, 82, 0
12, 95280, Note_on_c, 9, 42, 100
12, 95280, Note_on_c, 9, 82, 57
12, 95337, Note_off_c, 9, 82, 0
12, 95348, Note_off_c, 9, 42, 0
12, 95400, Note_on_c, 9, 27, 112
12, 95400, Note_on_c, 9, 35, 119
12, 95400, Note_on_c, 9, 42, 68
12, 95400, Note_on_c, 9, 82, 44
12, 95449, Note_off_c, 9, 42, 0
12, 95458, Note_off_c, 9, 82, 0
12, 95477, Note_off_c, 9, 35, 0
12, 95488, Note_off_c, 9, 27, 0
12, 95520, Note_on_c, 9, 39, 113
12, 95520, Note_on_c, 9, 40, 111
12, 95520, Note_on_c, 9, 42, 88
12, 95520, Note_on_c, 9, 70, 100
12, 95520, Note_on_c, 9, 82, 76
12, 95583, Note_off_c, 9, 42, 0
12, 95588, Note_off_c, 9, 70, 0
12, 95591, Note_off_c, 9, 82, 0
12, 95610, Note_off_c, 9, 40, 0
12, 95611, Note_off_c, 9, 39, 0
12, 95640, Note_on_c, 9, 82, 27
12, 95689, Note_off_c, 9, 82, 0
12, 95760, Note_on_c, 9, 27, 110
12, 95760, Note_on_c, 9, 35, 122
12, 95760, Note_on_c, 9, 42, 103
12, 95760, Note_on_c, 9, 82, 59
12, 95812, Note_off_c, 9, 82, 0
12, 95834, Note_off_c, 9, 35, 0
12, 95844, Note_off_c, 9, 42, 0
12, 95851, Note_off_c, 9, 27, 0
12, 95880, Note_on_c, 9, 82, 46
12, 95919, Note_off_c, 9, 82, 0
12, 96000, Note_on_c, 9, 27, 112
12, 96000, Note_on_c, 9, 35, 117
12, 96000, Note_on_c, 9, 42, 72
12, 96000, Note_on_c, 9, 70, 105
12, 96000, Note_on_c, 9, 82, 76
12, 96054, Note_off_c, 9, 42, 0
12, 96068, Note_off_c, 9, 82, 0
12, 96078, Note_off_c, 9, 70, 0
12, 96085, Note_off_c, 9, 35, 0
12, 96108, Note_off_c, 9, 27, 0
12, 96120, Note_on_c, 9, 82, 30
12, 96184, Note_off_c, 9, 82, 0
12, 96240, Note_on_c, 9, 42, 105
12, 96240, Note_on_c, 9, 82, 56
12, 96294, Note_off_c, 9, 82, 0
12, 96311, Note_off_c, 9, 42, 0
12, 96360, Note_on_c, 9, 27, 114
12, 96360, Note_on_c, 9, 35, 122
12, 96360, Note_on_c, 9, 42, 83
12, 96360, Note_on_c, 9, 82, 45
12, 96408, Note_off_c, 9, 42, 0
12, 96418, Note_off_c, 9, 82, 0
12, 96440, Note_off_c, 9, 35, 0
12, 96454, Note_off_c, 9, 27, 0
12, 96480, Note_on_c, 9, 39, 110
12, 96480, Note_on_c, 9, 40, 107
12, 96480, Note_on_c, 9, 42, 71
12, 96480, Note_on_c, 9, 70, 100
12, 96480, Note_on_c, 9, 82, 76
12, 96547, Note_off_c, 9, 82, 0
12, 96550, Note_off_c, 9, 42, 0
12, 96563, Note_off_c, 9, 70, 0
12, 96571, Note_off_c, 9, 40, 0
12, 96578, Note_off_c, 9, 39, 0
12, 96600, Note_on_c, 9, 82, 27
12, 96659, Note_off_c, 9, 82, 0
12, 96720, Note_on_c, 9, 27, 104
12, 96720, Note_on_c, 9, 35, 118
12, 96720, Note_on_c, 9, 42, 105
12, 96720, Note_on_c, 9, 82, 54
12, 96780, Note_off_c, 9, 82, 0
12, 96784, Note_off_c, 9, 35, 0
12, 96789, Note_off_c, 9, 27, 0
12, 96801, Note_off_c, 9, 42, 0
12, 96840, Note_on_c, 9, 82, 45
12, 96899, Note_off_c, 9, 82, 0
12, 96960, Note_on_c, 9, 42, 65
12, 96960, Note_on_c, 9, 70, 103
12, 96960, Note_on_c, 9, 82, 77
12, 97035, Note_off_c, 9, 82, 0
12, 97038, Note_off_c, 9, 42, 0
12, 97038, Note_off_c, 9, 70, 0
12, 97080, Note_on_c, 9, 82, 27
12, 97118, Note_off_c, 9, 82, 0
12, 97200, Note_on_c, 9, 42, 100
12, 97200, Note_on_c, 9, 82, 57
12, 97257, Note_off_c, 9, 82, 0
12, 97268, Note_off_c, 9, 42, 0
12, 97320, Note_on_c, 9, 27, 112
12, 97320, Note_on_c, 9, 35, 119
12, 97320, Note_on_c, 9, 42, 68
12, 97320, Note_on_c, 9, 82, 44
12, 97369, Note_off_c, 9, 42, 0
12, 97378, Note_off_c, 9, 82, 0
12, 97397, Note_off_c, 9, 35, 0
12, 97408, Note_off_c, 9, 27, 0
12, 97440, Note_on_c, 9, 39, 113
12, 97440, Note_on_c, 9, 40, 111
12, 97440, Note_on_c, 9, 42, 88
12, 97440, Note_on_c, 9, 70, 100
12, 97440, Note_on_c, 9, 82, 76
12, 97503, Note_off_c, 9, 42, 0
12, 97508, Note_off_c, 9, 70, 0
12, 97511, Note_off_c, 9, 82, 0
12, 97530, Note_off_c, 9, 40, 0
12, 97531, Note_off_c, 9, 39, 0
12, 97560, Note_on_c, 9, 82, 27
12, 97609, Note_off_c, 9, 82, 0
12, 97680, Note_on_c, 9, 27, 110
12, 97680, Note_on_c, 9, 35, 122
12, 97680, Note_on_c, 9, 42, 103
12, 97680, Note_on_c, 9, 82, 59
12, 97732, Note_off_c, 9, 82, 0
12, 97754, Note_off_c, 9, 35, 0
12, 97764, Note_off_c, 9, 42, 0
12, 97771, Note_off_c, 9, 27, 0
12, 97800, Note_on_c, 9, 82, 46
12, 97839, Note_off_c, 9, 82, 0
12, 97920, Note_on_c, 9, 27, 112
12, 97920, Note_on_c, 9, 35, 117
12, 97920, Note_on_c, 9, 42, 72
12, 97920, Note_on_c, 9, 70, 105
12, 97920, Note_on_c, 9, 82, 76
12, 97974, Note_off_c, 9, 42, 0
12, 97988, Note_off_c, 9, 82, 0
12, 97998, Note_off_c, 9, 70, 0
12, 98005, Note_off_c, 9, 35, 0
12, 98028, Note_off_c, 9, 27, 0
12, 98040, Note_on_c, 9, 82, 30
12, 98104, Note_off_c, 9, 82, 0
12, 98160, Note_on_c, 9, 42, 105
12, 98160, Note_on_c, 9, 82, 56
12, 98214, Note_off_c, 9, 82, 0
12, 98231, Note_off_c, 9, 42, 0
12, 98280, Note_on_c, 9, 27, 114
12, 98280, Note_on_c, 9, 35, 122
12, 98280, Note_on_c, 9, 42, 83
12, 98280, Note_on_c, 9, 82, 45
12, 98328, Note_off_c, 9, 42, 0
12, 98338, Note_off_c, 9, 82, 0
12, 98360, Note_off_c, 9, 35, 0
12, 98374, Note_off_c, 9, 27, 0
12, 98400, Note_on_c, 9, 39, 110
12, 98400, Note_on_c, 9, 40, 107
12, 98400, Note_on_c, 9, 42, 71
12, 98400, Note_on_c, 9, 70, 100
12, 98400, Note_on_c, 9, 82, 76
12, 98467, Note_off_c, 9, 82, 0
12, 98470, Note_off_c, 9, 42, 0
12, 98483, Note_off_c, 9, 70, 0
12, 98491, Note_off_c, 9, 40, 0
12, 98498, Note_off_c, 9, 39, 0
12, 98520, Note_on_c, 9, 82, 27
12, 98579, Note_off_c, 9, 82, 0
12, 98640, Note_on_c, 9, 27, 104
12, 98640, Note_on_c, 9, 35, 118
12, 98640, Note_on_c, 9, 42, 105
12, 98640, Note_on_c, 9, 82, 54
12, 98700, Note_off_c, 9, 82, 0
12, 98704, Note_off_c, 9, 35, 0
12, 98709, Note_off_c, 9, 27, 0
12, 98721, Note_off_c, 9, 42, 0
12, 98760, Note_on_c, 9, 82, 45
12, 98819, Note_off_c, 9, 82, 0
12, 98880, Note_on_c, 9, 42, 65
12, 98880, Note_on_c, 9, 70, 103
12, 98880, Note_on_c, 9, 82, 77
12, 98955, Note_off_c, 9, 82, 0
12, 98958, Note_off_c, 9, 42, 0
12, 98958, Note_off_c, 9, 70, 0
12, 99000, Note_on_c, 9, 82, 27
12, 99038, Note_off_c, 9, 82, 0
12, 99120, Note_on_c, 9, 42, 100
12, 99120, Note_on_c, 9, 82, 57
12, 99177, Note_off_c, 9, 82, 0
12, 99188, Note_off_c, 9, 42, 0
12, 99240, Note_on_c, 9, 27, 112
12, 99240, Note_on_c, 9, 35, 119
12, 99240, Note_on_c, 9, 42, 68
12, 99240, Note_on_c, 9, 82, 44
12, 99289, Note_off_c, 9, 42, 0
12, 99298, Note_off_c, 9, 82, 0
12, 99317, Note_off_c, 9, 35, 0
12, 99328, Note_off_c, 9, 27, 0
12, 99360, Note_on_c, 9, 39, 113
12, 99360, Note_on_c, 9, 40, 111
12, 99360, Note_on_c, 9, 42, 88
12, 99360, Note_on_c, 9, 70, 100
12, 99360, Note_on_c, 9, 82, 76
12, 99423, Note_off_c, 9, 42, 0
12, 99428, Note_off_c, 9, 70, 0
12, 99431, Note_off_c, 9, 82, 0
12, 99450, Note_off_c, 9, 40, 0
12, 99451, Note_off_c, 9, 39, 0
12, 99480, Note_on_c, 9, 82, 27
12, 99529, Note_off_c, 9, 82, 0
12, 99600, Note_on_c, 9, 27, 110
12, 99600, Note_on_c, 9, 35, 122
12, 99600, Note_on_c, 9, 42, 103
12, 99600, Note_on_c, 9, 82, 59
12, 99652, Note_off_c, 9, 82, 0
12, 99674, Note_off_c, 9, 35, 0
12, 99684, Note_off_c, 9, 42, 0
12, 99691, Note_off_c, 9, 27, 0
12, 99720, Note_on_c, 9, 82, 46
12, 99759, Note_off_c, 9, 82, 0
12, 99840, Note_on_c, 9, 27, 112
12, 99840, Note_on_c, 9, 35, 117
12, 99840, Note_on_c, 9, 42, 72
12, 99840, Note_on_c, 9, 70, 105
12, 99840, Note_on_c, 9, 82, 76
12, 99894, Note_off_c, 9, 42, 0
12, 99908, Note_off_c, 9, 82, 0
12, 99918, Note_off_c, 9, 70, 0
12, 99925, Note_off_c, 9, 35, 0
12, 99948, Note_off_c, 9, 27, 0
12, 99960, Note_on_c, 9, 82, 30
12, 100024, Note_off_c, 9, 82, 0
12, 100080, Note_on_c, 9, 42, 105
12, 100080, Note_on_c, 9, 82, 56
12, 100134, Note_off_c, 9, 82, 0
12, 100151, Note_off_c, 9, 42, 0
12, 100200, Note_on_c, 9, 27, 114
12, 100200, Note_on_c, 9, 35, 122
12, 100200, Note_on_c, 9, 42, 83
12, 100200, Note_on_c, 9, 82, 45
12, 100248, Note_off_c, 9, 42, 0
12, 100258, Note_off_c, 9, 82, 0
12, 100280, Note_off_c, 9, 35, 0
12, 100294, Note_off_c, 9, 27, 0
12, 100320, Note_on_c, 9, 39, 110
12, 100320, Note_on_c, 9, 40, 107
12, 100320, Note_on_c, 9, 42, 71
12, 100320, Note_on_c, 9, 70, 100
12, 100320, Note_on_c, 9, 82, 76
12, 100387, Note_off_c, 9, 82, 0
12, 100390, Note_off_c, 9, 42, 0
12, 100403, Note_off_c, 9, 70, 0
12, 100411, Note_off_c, 9, 40, 0
12, 100418, Note_off_c, 9, 39, 0
12, 100440, Note_on_c, 9, 82, 27
12, 100499, Note_off_c, 9, 82, 0
12, 100560, Note_on_c, 9, 27, 104
12, 100560, Note_on_c, 9, 35, 118
12, 100560, Note_on_c, 9, 42, 105
12, 100560, Note_on_c, 9, 82, 54
12, 100620, Note_off_c, 9, 82, 0
12, 100624, Note_off_c, 9, 35, 0
12, 100629, Note_off_c, 9, 27, 0
12, 100641, Note_off_c, 9, 42, 0
12, 100680, Note_on_c, 9, 82, 45
12, 100739, Note_off_c, 9, 82, 0
12, 100800, Note_on_c, 9, 42, 65
12, 100800, Note_on_c, 9, 70, 103
12, 100800, Note_on_c, 9, 82, 77
12, 100875, Note_off_c, 9, 82, 0
12, 100878, Note_off_c, 9, 42, 0
12, 100878, Note_off_c, 9, 70, 0
12, 100920, Note_on_c, 9, 82, 27
12, 100958, Note_off_c, 9, 82, 0
12, 101040, Note_on_c, 9, 42, 100
12, 101040, Note_on_c, 9, 82, 57
12, 101097, Note_off_c, 9, 82, 0
12, 101108, Note_off_c, 9, 42, 0
12, 101160, Note_on_c, 9, 27, 112
12, 101160, Note_on_c, 9, 35, 119
12, 101160, Note_on_c, 9, 42, 68
12, 101160, Note_on_c, 9, 82, 44
12, 101209, Note_off_c, 9, 42, 0
12, 101218, Note_off_c, 9, 82, 0
12, 101237, Note_off_c, 9, 35, 0
12, 101248, Note_off_c, 9, 27, 0
12, 101280, Note_on_c, 9, 39, 113
12, 101280, Note_on_c, 9, 40, 111
12, 101280, Note_on_c, 9, 42, 88
12, 101280, Note_on_c, 9, 70, 100
12, 101280, Note_on_c, 9, 82, 76
12, 101343, Note_off_c, 9, 42, 0
12, 101348, Note_off_c, 9, 70, 0
12, 101351, Note_off_c, 9, 82, 0
12, 101370, Note_off_c, 9, 40, 0
12, 101371, Note_off_c, 9, 39, 0
12, 101400, Note_on_c, 9, 82, 27
12, 101449, Note_off_c, 9, 82, 0
12, 101520, Note_on_c, 9, 27, 110
12, 101520, Note_on_c, 9, 35, 122
12, 101520, Note_on_c, 9, 42, 103
12, 101520, Note_on_c, 9, 82, 59
12, 101572, Note_off_c, 9, 82, 0
12, 101594, Note_off_c, 9, 35, 0
12, 101604, Note_off_c, 9, 42, 0
12, 101611, Note_off_c, 9, 27, 0
12, 101640, Note_on_c, 9, 82, 46
12, 101679, Note_off_c, 9, 82, 0
12, 101760, Note_on_c, 9, 35, 125
12, 101760, Note_on_c, 9, 42, 72
12, 101760, Note_on_c, 9, 70, 105
12, 101760, Note_on_c, 9, 82, 76
12, 101814, Note_off_c, 9, 42, 0
12, 101828, Note_off_c, 9, 82, 0
12, 101838, Note_off_c, 9, 70, 0
12, 101880, Note_on_c, 9, 82, 30
12, 101897, Note_off_c, 9, 35, 0
12, 101944, Note_off_c, 9, 82, 0
12, 102000, Note_on_c, 9, 42, 105
12, 102000, Note_on_c, 9, 82, 56
12, 102054, Note_off_c, 9, 82, 0
12, 102071, Note_off_c, 9, 42, 0
12, 102120, Note_on_c, 9, 42, 83
12, 102120, Note_on_c, 9, 82, 45
12, 102168, Note_off_c, 9, 42, 0
12, 102178, Note_off_c, 9, 82, 0
12, 102240, Note_on_c, 9, 28, 72
12, 102240, Note_on_c, 9, 42, 71
12, 102240, Note_on_c, 9, 70, 100
12, 102240, Note_on_c, 9, 82, 76
12, 102307, Note_off_c, 9, 82, 0
12, 102310, Note_off_c, 9, 42, 0
12, 102323, Note_off_c, 9, 70, 0
12, 102354, Note_off_c, 9, 28, 0
12, 102360, Note_on_c, 9, 82, 27
12, 102419, Note_off_c, 9, 82, 0
12, 102480, Note_on_c, 9, 42, 105
12, 102480, Note_on_c, 9, 82, 54
12, 102540, Note_off_c, 9, 82, 0
12, 102561, Note_off_c, 9, 42, 0
12, 102600, Note_on_c, 9, 82, 45
12, 102659, Note_off_c, 9, 82, 0
12, 102720, Note_on_c, 9, 42, 65
12, 102720, Note_on_c, 9, 70, 103
12, 102720, Note_on_c, 9, 82, 77
12, 102795, Note_off_c, 9, 82, 0
12, 102798, Note_off_c, 9, 42, 0
12, 102798, Note_off_c, 9, 70, 0
12, 102840, Note_on_c, 9, 82, 27
12, 102878, Note_off_c, 9, 82, 0
12, 102960, Note_on_c, 9, 42, 100
12, 102960, Note_on_c, 9, 56, 43
12, 102960, Note_on_c, 9, 82, 57
12, 102994, Note_off_c, 9, 56, 0
12, 103017, Note_off_c, 9, 82, 0
12, 103028, Note_off_c, 9, 42, 0
12, 103080, Note_on_c, 9, 42, 68
12, 103080, Note_on_c, 9, 56, 74
12, 103080, Note_on_c, 9, 82, 44
12, 103125, Note_off_c, 9, 56, 0
12, 103129, Note_off_c, 9, 42, 0
12, 103138, Note_off_c, 9, 82, 0
12, 103200, Note_on_c, 9, 28, 84
12, 103200, Note_on_c, 9, 42, 88
12, 103200, Note_on_c, 9, 56, 85
12, 103200, Note_on_c, 9, 70, 100
12, 103200, Note_on_c, 9, 82, 76
12, 103256, Note_off_c, 9, 56, 0
12, 103263, Note_off_c, 9, 42, 0
12, 103268, Note_off_c, 9, 70, 0
12, 103271, Note_off_c, 9, 82, 0
12, 103311, Note_off_c, 9, 28, 0
12, 103320, Note_on_c, 9, 56, 96
12, 103320, Note_on_c, 9, 82, 27
12, 103369, Note_off_c, 9, 82, 0
12, 103375, Note_off_c, 9, 56, 0
12, 103440, Note_on_c, 9, 42, 103
12, 103440, Note_on_c, 9, 56, 100
12, 103440, Note_on_c, 9, 82, 59
12, 103492, Note_off_c, 9, 82, 0
12, 103524, Note_off_c, 9, 42, 0
12, 103528, Note_off_c, 9, 56, 0
12, 103560, Note_on_c, 9, 82, 46
12, 103599, Note_off_c, 9, 82, 0
12, 103680, Note_on_c, 9, 70, 105
12, 103680, Note_on_c, 9, 82, 76
12, 103748, Note_off_c, 9, 82, 0
12, 103758, Note_off_c, 9, 70, 0
12, 103800, Note_on_c, 9, 82, 30
12, 103864, Note_off_c, 9, 82, 0
12, 103920, Note_on_c, 9, 82, 56
12, 103974, Note_off_c, 9, 82, 0
12, 104040, Note_on_c, 9, 82, 45
12, 104098, Note_off_c, 9, 82, 0
12, 104160, Note_on_c, 9, 28, 72
12, 104160, Note_on_c, 9, 70, 100
12, 104160, Note_on_c, 9, 82, 76
12, 104227, Note_off_c, 9, 82, 0
12, 104243, Note_off_c, 9, 70, 0
12, 104274, Note_off_c, 9, 28, 0
12, 104280, Note_on_c, 9, 82, 27
12, 104339, Note_off_c, 9, 82, 0
12, 104400, Note_on_c, 9, 56, 99
12, 104400, Note_on_c, 9, 82, 54
12, 104460, Note_off_c, 9, 82, 0
12, 104470, Note_off_c, 9, 56, 0
12, 104520, Note_on_c, 9, 82, 45
12, 104579, Note_off_c, 9, 82, 0
12, 104640, Note_on_c, 9, 70, 103
12, 104640, Note_on_c, 9, 82, 77
12, 104715, Note_off_c, 9, 82, 0
12, 104718, Note_off_c, 9, 70, 0
12, 104760, Note_on_c, 9, 56, 85
12, 104760, Note_on_c, 9, 82, 27
12, 104798, Note_off_c, 9, 82, 0
12, 104801, Note_off_c, 9, 56, 0
12, 104880, Note_on_c, 9, 56, 98
12, 104880, Note_on_c, 9, 82, 57
12, 104925, Note_off_c, 9, 56, 0
12, 104937, Note_off_c, 9, 82, 0
12, 105000, Note_on_c, 9, 56, 103
12, 105000, Note_on_c, 9, 82, 44
12, 105053, Note_off_c, 9, 56, 0
12, 105058, Note_off_c, 9, 82, 0
12, 105120, Note_on_c, 9, 28, 84
12, 105120, Note_on_c, 9, 56, 108
12, 105120, Note_on_c, 9, 70, 100
12, 105120, Note_on_c, 9, 82, 76
12, 105167, Note_off_c, 9, 56, 0
12, 105188, Note_off_c, 9, 70, 0
12, 105191, Note_off_c, 9, 82, 0
12, 105231, Note_off_c, 9, 28, 0
12, 105240, Note_on_c, 9, 56, 110
12, 105240, Note_on_c, 9, 82, 27
12, 105289, Note_off_c, 9, 82, 0
12, 105299, Note_off_c, 9, 56, 0
12, 105360, Note_on_c, 9, 56, 113
12, 105360, Note_on_c, 9, 82, 59
12, 105412, Note_off_c, 9, 82, 0
12, 105422, Note_off_c, 9, 56, 0
12, 105480, Note_on_c, 9, 82, 46
12, 105519, Note_off_c, 9, 82, 0
12, 105600, Note_on_c, 9, 70, 105
12, 105600, Note_on_c, 9, 82, 76
12, 105668, Note_off_c, 9, 82, 0
12, 105678, Note_off_c, 9, 70, 0
12, 105720, Note_on_c, 9, 82, 30
12, 105784, Note_off_c, 9, 82, 0
12, 105840, Note_on_c, 9, 82, 56
12, 105894, Note_off_c, 9, 82, 0
12, 105960, Note_on_c, 9, 82, 45
12, 106018, Note_off_c, 9, 82, 0
12, 106080, Note_on_c, 9, 28, 72
12, 106080, Note_on_c, 9, 70, 100
12, 106080, Note_on_c, 9, 82, 76
12, 106147, Note_off_c, 9, 82, 0
12, 106163, Note_off_c, 9, 70, 0
12, 106194, Note_off_c, 9, 28, 0
12, 106200, Note_on_c, 9, 82, 27
12, 106259, Note_off_c, 9, 82, 0
12, 106320, Note_on_c, 9, 56, 63
12, 106320, Note_on_c, 9, 82, 54
12, 106374, Note_off_c, 9, 56, 0
12, 106380, Note_off_c, 9, 82, 0
12, 106440, Note_on_c, 9, 82, 45
12, 106499, Note_off_c, 9, 82, 0
12, 106560, Note_on_c, 9, 70, 103
12, 106560, Note_on_c, 9, 82, 77
12, 106635, Note_off_c, 9, 82, 0
12, 106638, Note_off_c, 9, 70, 0
12, 106680, Note_on_c, 9, 56, 74
12, 106680, Note_on_c, 9, 82, 27
12, 106718, Note_off_c, 9, 82, 0
12, 106730, Note_off_c, 9, 56, 0
12, 106800, Note_on_c, 9, 56, 85
12, 106800, Note_on_c, 9, 82, 57
12, 106834, Note_off_c, 9, 56, 0
12, 106857, Note_off_c, 9, 82, 0
12, 106920, Note_on_c, 9, 56, 98
12, 106920, Note_on_c, 9, 82, 44
12, 106978, Note_off_c, 9, 82, 0
12, 106983, Note_off_c, 9, 56, 0
12, 107040, Note_on_c, 9, 28, 84
12, 107040, Note_on_c, 9, 56, 101
12, 107040, Note_on_c, 9, 70, 100
12, 107040, Note_on_c, 9, 82, 76
12, 107085, Note_off_c, 9, 56, 0
12, 107108, Note_off_c, 9, 70, 0
12, 107111, Note_off_c, 9, 82, 0
12, 107151, Note_off_c, 9, 28, 0
12, 107160, Note_on_c, 9, 82, 27
12, 107209, Note_off_c, 9, 82, 0
12, 107280, Note_on_c, 9, 82, 59
12, 107332, Note_off_c, 9, 82, 0
12, 107400, Note_on_c, 9, 82, 46
12, 107439, Note_off_c, 9, 82, 0
12, 107520, Note_on_c, 9, 42, 72
12, 107520, Note_on_c, 9, 57, 90
12, 107520, Note_on_c, 9, 70, 105
12, 107520, Note_on_c, 9, 82, 76
12, 107574, Note_off_c, 9, 42, 0
12, 107588, Note_off_c, 9, 82, 0
12, 107598, Note_off_c, 9, 70, 0
12, 107604, Note_off_c, 9, 57, 0
12, 107640, Note_on_c, 9, 82, 30
12, 107704, Note_off_c, 9, 82, 0
12, 107760, Note_on_c, 9, 42, 105
12, 107760, Note_on_c, 9, 82, 56
12, 107814, Note_off_c, 9, 82, 0
12, 107831, Note_off_c, 9, 42, 0
12, 107880, Note_on_c, 9, 42, 83
12, 107880, Note_on_c, 9, 82, 45
12, 107928, Note_off_c, 9, 42, 0
12, 107938, Note_off_c, 9, 82, 0
12, 108000, Note_on_c, 9, 28, 72
12, 108000, Note_on_c, 9, 42, 71
12, 108000, Note_on_c, 9, 70, 100
12, 108000, Note_on_c, 9, 82, 76
12, 108067, Note_off_c, 9, 82, 0
12, 108070, Note_off_c, 9, 42, 0
12, 108083, Note_off_c, 9, 70, 0
12, 108114, Note_off_c, 9, 28, 0
12, 108120, Note_on_c, 9, 82, 27
12, 108179, Note_off_c, 9, 82, 0
12, 108240, Note_on_c, 9, 42, 105
12, 108240, Note_on_c, 9, 82, 54
12, 108300, Note_off_c, 9, 82, 0
12, 108321, Note_off_c, 9, 42, 0
12, 108360, Note_on_c, 9, 82, 45
12, 108419, Note_off_c, 9, 82, 0
12, 108480, Note_on_c, 9, 42, 65
12, 108480, Note_on_c, 9, 70, 103
12, 108480, Note_on_c, 9, 82, 77
12, 108555, Note_off_c, 9, 82, 0
12, 108558, Note_off_c, 9, 42, 0
12, 108558, Note_off_c, 9, 70, 0
12, 108600, Note_on_c, 9, 82, 27
12, 108638, Note_off_c, 9, 82, 0
12, 108720, Note_on_c, 9, 42, 100
12, 108720, Note_on_c, 9, 82, 57
12, 108777, Note_off_c, 9, 82, 0
12, 108788, Note_off_c, 9, 42, 0
12, 108840, Note_on_c, 9, 42, 68
12, 108840, Note_on_c, 9, 82, 44
12, 108889, Note_off_c, 9, 42, 0
12, 108898, Note_off_c, 9, 82, 0
12, 108960, Note_on_c, 9, 28, 84
12, 108960, Note_on_c, 9, 42, 88
12, 108960, Note_on_c, 9, 70, 100
12, 108960, Note_on_c, 9, 82, 76
12, 109023, Note_off_c, 9, 42, 0
12, 109028, Note_off_c, 9, 70, 0
12, 109031, Note_off_c, 9, 82, 0
12, 109071, Note_off_c, 9, 28, 0
12, 109080, Note_on_c, 9, 82, 27
12, 109129, Note_off_c, 9, 82, 0
12, 109200, Note_on_c, 9, 42, 103
12, 109200, Note_on_c, 9, 82, 59
12, 109252, Note_off_c, 9, 82, 0
12, 109284, Note_off_c, 9, 42, 0
12, 109320, Note_on_c, 9, 82, 46
12, 109359, Note_off_c, 9, 82, 0
12, 109440, Note_on_c, 9, 42, 72
12, 109440, Note_on_c, 9, 70, 105
12, 109440, Note_on_c, 9, 82, 76
12, 109494, Note_off_c, 9, 42, 0
12, 109508, Note_off_c, 9, 82, 0
12, 109518, Note_off_c, 9, 70, 0
12, 109560, Note_on_c, 9, 82, 30
12, 109624, Note_off_c, 9, 82, 0
12, 109680, Note_on_c, 9, 42, 105
12, 109680, Note_on_c, 9, 82, 56
12, 109734, Note_off_c, 9, 82, 0
12, 109751, Note_off_c, 9, 42, 0
12, 109800, Note_on_c, 9, 42, 83
12, 109800, Note_on_c, 9, 82, 45
12, 109848, Note_off_c, 9, 42, 0
12, 109858, Note_off_c, 9, 82, 0
12, 109920, Note_on_c, 9, 28, 72
12, 109920, Note_on_c, 9, 42, 71
12, 109920, Note_on_c, 9, 70, 100
12, 109920, Note_on_c, 9, 82, 76
12, 109987, Note_off_c, 9, 82, 0
12, 109990, Note_off_c, 9, 42, 0
12, 110003, Note_off_c, 9, 70, 0
12, 110034, Note_off_c, 9, 28, 0
12, 110040, Note_on_c, 9, 82, 27
12, 110099, Note_off_c, 9, 82, 0
12, 110160, Note_on_c, 9, 42, 105
12, 110160, Note_on_c, 9, 82, 54
12, 110220, Note_off_c, 9, 82, 0
12, 110241, Note_off_c, 9, 42, 0
12, 110280, Note_on_c, 9, 82, 45
12, 110339, Note_off_c, 9, 82, 0
12, 110400, Note_on_c, 9, 42, 65
12, 110400, Note_on_c, 9, 70, 103
12, 110400, Note_on_c, 9, 82, 77
12, 110475, Note_off_c, 9, 82, 0
12, 110478, Note_off_c, 9, 42, 0
12, 110478, Note_off_c, 9, 70, 0
12, 110520, Note_on_c, 9, 82, 27
12, 110558, Note_off_c, 9, 82, 0
12, 110640, Note_on_c, 9, 42, 100
12, 110640, Note_on_c, 9, 82, 57
12, 110697, Note_off_c, 9, 82, 0
12, 110708, Note_off_c, 9, 42, 0
12, 110760, Note_on_c, 9, 42, 68
12, 110760, Note_on_c, 9, 82, 44
12, 110809, Note_off_c, 9, 42, 0
12, 110818, Note_off_c, 9, 82, 0
12, 110880, Note_on_c, 9, 28, 84
12, 110880, Note_on_c, 9, 42, 88
12, 110880, Note_on_c, 9, 70, 100
12, 110880, Note_on_c, 9, 82, 76
12, 110943, Note_off_c, 9, 42, 0
12, 110948, Note_off_c, 9, 70, 0
12, 110951, Note_off_c, 9, 82, 0
12, 110991, Note_off_c, 9, 28, 0
12, 111000, Note_on_c, 9, 82, 27
12, 111049, Note_off_c, 9, 82, 0
12, 111120, Note_on_c, 9, 42, 103
12, 111120, Note_on_c, 9, 82, 59
12, 111172, Note_off_c, 9, 82, 0
12, 111204, Note_off_c, 9, 42, 0
12, 111240, Note_on_c, 9, 82, 46
12, 111279, Note_off_c, 9, 82, 0
12, 111360, Note_on_c, 9, 42, 72
12, 111360, Note_on_c, 9, 70, 105
12, 111360, Note_on_c, 9, 82, 76
12, 111414, Note_off_c, 9, 42, 0
12, 111428, Note_off_c, 9, 82, 0
12, 111438, Note_off_c, 9, 70, 0
12, 111480, Note_on_c, 9, 82, 30
12, 111544, Note_off_c, 9, 82, 0
12, 111600, Note_on_c, 9, 42, 105
12, 111600, Note_on_c, 9, 82, 56
12, 111654, Note_off_c, 9, 82, 0
12, 111671, Note_off_c, 9, 42, 0
12, 111720, Note_on_c, 9, 42, 83
12, 111720, Note_on_c, 9, 82, 45
12, 111768, Note_off_c, 9, 42, 0
12, 111778, Note_off_c, 9, 82, 0
12, 111840, Note_on_c, 9, 28, 72
12, 111840, Note_on_c, 9, 42, 71
12, 111840, Note_on_c, 9, 70, 100
12, 111840, Note_on_c, 9, 82, 76
12, 111907, Note_off_c, 9, 82, 0
12, 111910, Note_off_c, 9, 42, 0
12, 111923, Note_off_c, 9, 70, 0
12, 111954, Note_off_c, 9, 28, 0
12, 111960, Note_on_c, 9, 82, 27
12, 112019, Note_off_c, 9, 82, 0
12, 112080, Note_on_c, 9, 42, 105
12, 112080, Note_on_c, 9, 82, 54
12, 112140, Note_off_c, 9, 82, 0
12, 112161, Note_off_c, 9, 42, 0
12, 112200, Note_on_c, 9, 82, 45
12, 112259, Note_off_c, 9, 82, 0
12, 112320, Note_on_c, 9, 42, 65
12, 112320, Note_on_c, 9, 70, 103
12, 112320, Note_on_c, 9, 82, 77
12, 112395, Note_off_c, 9, 82, 0
12, 112398, Note_off_c, 9, 42, 0
12, 112398, Note_off_c, 9, 70, 0
12, 112440, Note_on_c, 9, 82, 27
12, 112478, Note_off_c, 9, 82, 0
12, 112560, Note_on_c, 9, 42, 100
12, 112560, Note_on_c, 9, 82, 57
12, 112617, Note_off_c, 9, 82, 0
12, 112628, Note_off_c, 9, 42, 0
12, 112680, Note_on_c, 9, 42, 68
12, 112680, Note_on_c, 9, 82, 44
12, 112729, Note_off_c, 9, 42, 0
12, 112738, Note_off_c, 9, 82, 0
12, 112800, Note_on_c, 9, 28, 84
12, 112800, Note_on_c, 9, 42, 88
12, 112800, Note_on_c, 9, 70, 100
12, 112800, Note_on_c, 9, 82, 76
12, 112863, Note_off_c, 9, 42, 0
12, 112868, Note_off_c, 9, 70, 0
12, 112871, Note_off_c, 9, 82, 0
12, 112911, Note_off_c, 9, 28, 0
12, 112920, Note_on_c, 9, 82, 27
12, 112969, Note_off_c, 9, 82, 0
12, 113040, Note_on_c, 9, 42, 103
12, 113040, Note_on_c, 9, 82, 59
12, 113092, Note_off_c, 9, 82, 0
12, 113124, Note_off_c, 9, 42, 0
12, 113160, Note_on_c, 9, 82, 46
12, 113199, Note_off_c, 9, 82, 0
12, 113280, Note_on_c, 9, 42, 72
12, 113280, Note_on_c, 9, 70, 105
12, 113280, Note_on_c, 9, 82, 76
12, 113334, Note_off_c, 9, 42, 0
12, 113348, Note_off_c, 9, 82, 0
12, 113358, Note_off_c, 9, 70, 0
12, 113400, Note_on_c, 9, 82, 30
12, 113464, Note_off_c, 9, 82, 0
12, 113520, Note_on_c, 9, 42, 105
12, 113520, Note_on_c, 9, 82, 56
12, 113574, Note_off_c, 9, 82, 0
12, 113591, Note_off_c, 9, 42, 0
12, 113640, Note_on_c, 9, 42, 83
12, 113640, Note_on_c, 9, 82, 45
12, 113688, Note_off_c, 9, 42, 0
12, 113698, Note_off_c, 9, 82, 0
12, 113760, Note_on_c, 9, 28, 72
12, 113760, Note_on_c, 9, 42, 71
12, 113760, Note_on_c, 9, 70, 100
12, 113760, Note_on_c, 9, 82, 76
12, 113827, Note_off_c, 9, 82, 0
12, 113830, Note_off_c, 9, 42, 0
12, 113843, Note_off_c, 9, 70, 0
12, 113874, Note_off_c, 9, 28, 0
12, 113880, Note_on_c, 9, 82, 27
12, 113939, Note_off_c, 9, 82, 0
12, 114000, Note_on_c, 9, 42, 105
12, 114000, Note_on_c, 9, 82, 54
12, 114060, Note_off_c, 9, 82, 0
12, 114081, Note_off_c, 9, 42, 0
12, 114120, Note_on_c, 9, 82, 45
12, 114179, Note_off_c, 9, 82, 0
12, 114240, Note_on_c, 9, 42, 65
12, 114240, Note_on_c, 9, 70, 103
12, 114240, Note_on_c, 9, 82, 77
12, 114315, Note_off_c, 9, 82, 0
12, 114318, Note_off_c, 9, 42, 0
12, 114318, Note_off_c, 9, 70, 0
12, 114360, Note_on_c, 9, 82, 27
12, 114398, Note_off_c, 9, 82, 0
12, 114480, Note_on_c, 9, 42, 100
12, 114480, Note_on_c, 9, 82, 57
12, 114537, Note_off_c, 9, 82, 0
12, 114548, Note_off_c, 9, 42, 0
12, 114600, Note_on_c, 9, 42, 68
12, 114600, Note_on_c, 9, 82, 44
12, 114649, Note_off_c, 9, 42, 0
12, 114658, Note_off_c, 9, 82, 0
12, 114720, Note_on_c, 9, 28, 84
12, 114720, Note_on_c, 9, 42, 88
12, 114720, Note_on_c, 9, 70, 100
12, 114720, Note_on_c, 9, 82, 76
12, 114783, Note_off_c, 9, 42, 0
12, 114788, Note_off_c, 9, 70, 0
12, 114791, Note_off_c, 9, 82, 0
12, 114831, Note_off_c, 9, 28, 0
12, 114840, Note_on_c, 9, 82, 27
12, 114889, Note_off_c, 9, 82, 0
12, 114960, Note_on_c, 9, 42, 103
12, 114960, Note_on_c, 9, 45, 108
12, 114960, Note_on_c, 9, 82, 59
12, 115012, Note_off_c, 9, 82, 0
12, 115029, Note_off_c, 9, 45, 0
12, 115044, Note_off_c, 9, 42, 0
12, 115080, Note_on_c, 9, 82, 46
12, 115119, Note_off_c, 9, 82, 0
12, 115200, Note_on_c, 9, 27, 112
12, 115200, Note_on_c, 9, 35, 117
12, 115200, Note_on_c, 9, 42, 72
12, 115200, Note_on_c, 9, 57, 90
12, 115200, Note_on_c, 9, 70, 105
12, 115200, Note_on_c, 9, 82, 76
12, 115254, Note_off_c, 9, 42, 0
12, 115268, Note_off_c, 9, 82, 0
12, 115278, Note_off_c, 9, 70, 0
12, 115284, Note_off_c, 9, 57, 0
12, 115285, Note_off_c, 9, 35, 0
12, 115308, Note_off_c, 9, 27, 0
12, 115320, Note_on_c, 9, 82, 30
12, 115384, Note_off_c, 9, 82, 0
12, 115440, Note_on_c, 9, 42, 105
12, 115440, Note_on_c, 9, 82, 56
12, 115494, Note_off_c, 9, 82, 0
12, 115511, Note_off_c, 9, 42, 0
12, 115560, Note_on_c, 9, 27, 114
12, 115560, Note_on_c, 9, 35, 122
12, 115560, Note_on_c, 9, 42, 83
12, 115560, Note_on_c, 9, 82, 45
12, 115608, Note_off_c, 9, 42, 0
12, 115618, Note_off_c, 9, 82, 0
12, 115640, Note_off_c, 9, 35, 0
12, 115654, Note_off_c, 9, 27, 0
12, 115680, Note_on_c, 9, 28, 72
12, 115680, Note_on_c, 9, 42, 71
12, 115680, Note_on_c, 9, 70, 100
12, 115680, Note_on_c, 9, 82, 76
12, 115747, Note_off_c, 9, 82, 0
12, 115750, Note_off_c, 9, 42, 0
12, 115763, Note_off_c, 9, 70, 0
12, 115794, Note_off_c, 9, 28, 0
12, 115800, Note_on_c, 9, 82, 27
12, 115859, Note_off_c, 9, 82, 0
12, 115920, Note_on_c, 9, 27, 104
12, 115920, Note_on_c, 9, 35, 118
12, 115920, Note_on_c, 9, 42, 105
12, 115920, Note_on_c, 9, 82, 54
12, 115980, Note_off_c, 9, 82, 0
12, 115984, Note_off_c, 9, 35, 0
12, 115989, Note_off_c, 9, 27, 0
12, 116001, Note_off_c, 9, 42, 0
12, 116040, Note_on_c, 9, 82, 45
12, 116099, Note_off_c, 9, 82, 0
12, 116160, Note_on_c, 9, 42, 65
12, 116160, Note_on_c, 9, 70, 103
12, 116160, Note_on_c, 9, 82, 77
12, 116235, Note_off_c, 9, 82, 0
12, 116238, Note_off_c, 9, 42, 0
12, 116238, Note_off_c, 9, 70, 0
12, 116280, Note_on_c, 9, 82, 27
12, 116318, Note_off_c, 9, 82, 0
12, 116400, Note_on_c, 9, 42, 100
12, 116400, Note_on_c, 9, 82, 57
12, 116457, Note_off_c, 9, 82, 0
12, 116468, Note_off_c, 9, 42, 0
12, 116520, Note_on_c, 9, 27, 112
12, 116520, Note_on_c, 9, 35, 119
12, 116520, Note_on_c, 9, 42, 68
12, 116520, Note_on_c, 9, 82, 44
12, 116569, Note_off_c, 9, 42, 0
12, 116578, Note_off_c, 9, 82, 0
12, 116597, Note_off_c, 9, 35, 0
12, 116608, Note_off_c, 9, 27, 0
12, 116640, Note_on_c, 9, 28, 84
12, 116640, Note_on_c, 9, 42, 88
12, 116640, Note_on_c, 9, 70, 100
12, 116640, Note_on_c, 9, 82, 76
12, 116703, Note_off_c, 9, 42, 0
12, 116708, Note_off_c, 9, 70, 0
12, 116711, Note_off_c, 9, 82, 0
12, 116751, Note_off_c, 9, 28, 0
12, 116760, Note_on_c, 9, 82, 27
12, 116809, Note_off_c, 9, 82, 0
12, 116880, Note_on_c, 9, 27, 110
12, 116880, Note_on_c, 9, 35, 122
12, 116880, Note_on_c, 9, 42, 103
12, 116880, Note_on_c, 9, 82, 59
12, 116932, Note_off_c, 9, 82, 0
12, 116954, Note_off_c, 9, 35, 0
12, 116964, Note_off_c, 9, 42, 0
12, 116971, Note_off_c, 9, 27, 0
12, 117000, Note_on_c, 9, 82, 46
12, 117039, Note_off_c, 9, 82, 0
12, 117120, Note_on_c, 9, 27, 112
12, 117120, Note_on_c, 9, 35, 117
12, 117120, Note_on_c, 9, 42, 72
12, 117120, Note_on_c, 9, 70, 105
12, 117120, Note_on_c, 9, 82, 76
12, 117174, Note_off_c, 9, 42, 0
12, 117188, Note_off_c, 9, 82, 0
12, 117198, Note_off_c, 9, 70, 0
12, 117205, Note_off_c, 9, 35, 0
12, 117228, Note_off_c, 9, 27, 0
12, 117240, Note_on_c, 9, 82, 30
12, 117304, Note_off_c, 9, 82, 0
12, 117360, Note_on_c, 9, 42, 105
12, 117360, Note_on_c, 9, 82, 56
12, 117414, Note_off_c, 9, 82, 0
12, 117431, Note_off_c, 9, 42, 0
12, 117480, Note_on_c, 9, 27, 114
12, 117480, Note_on_c, 9, 35, 122
12, 117480, Note_on_c, 9, 42, 83
12, 117480, Note_on_c, 9, 82, 45
12, 117528, Note_off_c, 9, 42, 0
12, 117538, Note_off_c, 9, 82, 0
12, 117560, Note_off_c, 9, 35, 0
12, 117574, Note_off_c, 9, 27, 0
12, 117600, Note_on_c, 9, 28, 72
12, 117600, Note_on_c, 9, 42, 71
12, 117600, Note_on_c, 9, 70, 100
12, 117600, Note_on_c, 9, 82, 76
12, 117667, Note_off_c, 9, 82, 0
12, 117670, Note_off_c, 9, 42, 0
12, 117683, Note_off_c, 9, 70, 0
12, 117714, Note_off_c, 9, 28, 0
12, 117720, Note_on_c, 9, 82, 27
12, 117779, Note_off_c, 9, 82, 0
12, 117840, Note_on_c, 9, 27, 104
12, 117840, Note_on_c, 9, 35, 118
12, 117840, Note_on_c, 9, 42, 105
12, 117840, Note_on_c, 9, 82, 54
12, 117900, Note_off_c, 9, 82, 0
12, 117904, Note_off_c, 9, 35, 0
12, 117909, Note_off_c, 9, 27, 0
12, 117921, Note_off_c, 9, 42, 0
12, 117960, Note_on_c, 9, 82, 45
12, 118019, Note_off_c, 9, 82, 0
12, 118080, Note_on_c, 9, 42, 65
12, 118080, Note_on_c, 9, 70, 103
12, 118080, Note_on_c, 9, 82, 77
12, 118155, Note_off_c, 9, 82, 0
12, 118158, Note_off_c, 9, 42, 0
12, 118158, Note_off_c, 9, 70, 0
12, 118200, Note_on_c, 9, 82, 27
12, 118238, Note_off_c, 9, 82, 0
12, 118320, Note_on_c, 9, 42, 100
12, 118320, Note_on_c, 9, 82, 57
12, 118377, Note_off_c, 9, 82, 0
12, 118388, Note_off_c, 9, 42, 0
12, 118440, Note_on_c, 9, 27, 112
12, 118440, Note_on_c, 9, 35, 119
12, 118440, Note_on_c, 9, 42, 68
12, 118440, Note_on_c, 9, 82, 44
12, 118489, Note_off_c, 9, 42, 0
12, 118498, Note_off_c, 9, 82, 0
12, 118517, Note_off_c, 9, 35, 0
12, 118528, Note_off_c, 9, 27, 0
12, 118560, Note_on_c, 9, 28, 84
12, 118560, Note_on_c, 9, 42, 88
12, 118560, Note_on_c, 9, 70, 100
12, 118560, Note_on_c, 9, 82, 76
12, 118623, Note_off_c, 9, 42, 0
12, 118628, Note_off_c, 9, 70, 0
12, 118631, Note_off_c, 9, 82, 0
12, 118671, Note_off_c, 9, 28, 0
12, 118680, Note_on_c, 9, 82, 27
12, 118729, Note_off_c, 9, 82, 0
12, 118800, Note_on_c, 9, 27, 110
12, 118800, Note_on_c, 9, 35, 122
12, 118800, Note_on_c, 9, 42, 103
12, 118800, Note_on_c, 9, 82, 59
12, 118852, Note_off_c, 9, 82, 0
12, 118874, Note_off_c, 9, 35, 0
12, 118884, Note_off_c, 9, 42, 0
12, 118891, Note_off_c, 9, 27, 0
12, 118920, Note_on_c, 9, 82, 46
12, 118959, Note_off_c, 9, 82, 0
12, 119040, Note_on_c, 9, 27, 112
12, 119040, Note_on_c, 9, 35, 117
12, 119040, Note_on_c, 9, 42, 72
12, 119040, Note_on_c, 9, 70, 105
12, 119040, Note_on_c, 9, 82, 76
12, 119094, Note_off_c, 9, 42, 0
12, 119108, Note_off_c, 9, 82, 0
12, 119118, Note_off_c, 9, 70, 0
12, 119125, Note_off_c, 9, 35, 0
12, 119148, Note_off_c, 9, 27, 0
12, 119160, Note_on_c, 9, 82, 30
12, 119224, Note_off_c, 9, 82, 0
12, 119280, Note_on_c, 9, 42, 105
12, 119280, Note_on_c, 9, 82, 56
12, 119334, Note_off_c, 9, 82, 0
12, 119351, Note_off_c, 9, 42, 0
12, 119400, Note_on_c, 9, 27, 114
12, 119400, Note_on_c, 9, 35, 122
12, 119400, Note_on_c, 9, 42, 83
12, 119400, Note_on_c, 9, 82, 45
12, 119448, Note_off_c, 9, 42, 0
12, 119458, Note_off_c, 9, 82, 0
12, 119480, Note_off_c, 9, 35, 0
12, 119494, Note_off_c, 9, 27, 0
12, 119520, Note_on_c, 9, 28, 72
12, 119520, Note_on_c, 9, 42, 71
12, 119520, Note_on_c, 9, 70, 100
12, 119520, Note_on_c, 9, 82, 76
12, 119587, Note_off_c, 9, 82, 0
12, 119590, Note_off_c, 9, 42, 0
12, 119603, Note_off_c, 9, 70, 0
12, 119634, Note_off_c, 9, 28, 0
12, 119640, Note_on_c, 9, 82, 27
12, 119699, Note_off_c, 9, 82, 0
12, 119760, Note_on_c, 9, 27, 104
12, 119760, Note_on_c, 9, 35, 118
12, 119760, Note_on_c, 9, 42, 105
12, 119760, Note_on_c, 9, 82, 54
12, 119820, Note_off_c, 9, 82, 0
12, 119824, Note_off_c, 9, 35, 0
12, 119829, Note_off_c, 9, 27, 0
12, 119841, Note_off_c, 9, 42, 0
12, 119880, Note_on_c, 9, 82, 45
12, 119939, Note_off_c, 9, 82, 0
12, 120000, Note_on_c, 9, 42, 65
12, 120000, Note_on_c, 9, 70, 103
12, 120000, Note_on_c, 9, 82, 77
12, 120075, Note_off_c, 9, 82, 0
12, 120078, Note_off_c, 9, 42, 0
12, 120078, Note_off_c, 9, 70, 0
12, 120120, Note_on_c, 9, 82, 27
12, 120158, Note_off_c, 9, 82, 0
12, 120240, Note_on_c, 9, 42, 100
12, 120240, Note_on_c, 9, 82, 57
12, 120297, Note_off_c, 9, 82, 0
12, 120308, Note_off_c, 9, 42, 0
12, 120360, Note_on_c, 9, 27, 112
12, 120360, Note_on_c, 9, 35, 119
12, 120360, Note_on_c, 9, 42, 68
12, 120360, Note_on_c, 9, 82, 44
12, 120409, Note_off_c, 9, 42, 0
12, 120418, Note_off_c, 9, 82, 0
12, 120437, Note_off_c, 9, 35, 0
12, 120448, Note_off_c, 9, 27, 0
12, 120480, Note_on_c, 9, 28, 84
12, 120480, Note_on_c, 9, 42, 88
12, 120480, Note_on_c, 9, 70, 100
12, 120480, Note_on_c, 9, 82, 76
12, 120543, Note_off_c, 9, 42, 0
12, 120548, Note_off_c, 9, 70, 0
12, 120551, Note_off_c, 9, 82, 0
12, 120591, Note_off_c, 9, 28, 0
12, 120600, Note_on_c, 9, 82, 27
12, 120649, Note_off_c, 9, 82, 0
12, 120720, Note_on_c, 9, 27, 110
12, 120720, Note_on_c, 9, 35, 122
12, 120720, Note_on_c, 9, 42, 103
12, 120720, Note_on_c, 9, 82, 59
12, 120772, Note_off_c, 9, 82, 0
12, 120794, Note_off_c, 9, 35, 0
12, 120804, Note_off_c, 9, 42, 0
12, 120811, Note_off_c, 9, 27, 0
12, 120840, Note_on_c, 9, 82, 46
12, 120879, Note_off_c, 9, 82, 0
12, 120960, Note_on_c, 9, 27, 112
12, 120960, Note_on_c, 9, 35, 117
12, 120960, Note_on_c, 9, 42, 72
12, 120960, Note_on_c, 9, 70, 105
12, 120960, Note_on_c, 9, 82, 76
12, 121014, Note_off_c, 9, 42, 0
12, 121028, Note_off_c, 9, 82, 0
12, 121038, Note_off_c, 9, 70, 0
12, 121045, Note_off_c, 9, 35, 0
12, 121068, Note_off_c, 9, 27, 0
12, 121080, Note_on_c, 9, 65, 115
12, 121080, Note_on_c, 9, 82, 30
12, 121140, Note_off_c, 9, 65, 0
12, 121144, Note_off_c, 9, 82, 0
12, 121200, Note_on_c, 9, 42, 105
12, 121200, Note_on_c, 9, 82, 56
12, 121254, Note_off_c, 9, 82, 0
12, 121271, Note_off_c, 9, 42, 0
12, 121320, Note_on_c, 9, 27, 114
12, 121320, Note_on_c, 9, 35, 122
12, 121320, Note_on_c, 9, 42, 83
12, 121320, Note_on_c, 9, 65, 109
12, 121320, Note_on_c, 9, 82, 45
12, 121368, Note_off_c, 9, 42, 0
12, 121378, Note_off_c, 9, 82, 0
12, 121381, Note_off_c, 9, 65, 0
12, 121400, Note_off_c, 9, 35, 0
12, 121414, Note_off_c, 9, 27, 0
12, 121440, Note_on_c, 9, 28, 72
12, 121440, Note_on_c, 9, 42, 71
12, 121440, Note_on_c, 9, 55, 96
12, 121440, Note_on_c, 9, 65, 117
12, 121440, Note_on_c, 9, 70, 100
12, 121440, Note_on_c, 9, 82, 76
12, 121492, Note_off_c, 9, 65, 0
12, 121507, Note_off_c, 9, 82, 0
12, 121510, Note_off_c, 9, 42, 0
12, 121518, Note_off_c, 9, 55, 0
12, 121523, Note_off_c, 9, 70, 0
12, 121554, Note_off_c, 9, 28, 0
12, 121560, Note_on_c, 9, 82, 27
12, 121619, Note_off_c, 9, 82, 0
12, 121680, Note_on_c, 9, 27, 104
12, 121680, Note_on_c, 9, 35, 118
12, 121680, Note_on_c, 9, 42, 105
12, 121680, Note_on_c, 9, 66, 117
12, 121680, Note_on_c, 9, 82, 54
12, 121725, Note_off_c, 9, 66, 0
12, 121740, Note_off_c, 9, 82, 0
12, 121744, Note_off_c, 9, 35, 0
12, 121749, Note_off_c, 9, 27, 0
12, 121761, Note_off_c, 9, 42, 0
12, 121800, Note_on_c, 9, 82, 45
12, 121859, Note_off_c, 9, 82, 0
12, 121920, Note_on_c, 9, 42, 65
12, 121920, Note_on_c, 9, 66, 115
12, 121920, Note_on_c, 9, 70, 103
12, 121920, Note_on_c, 9, 82, 77
12, 121972, Note_off_c, 9, 66, 0
12, 121995, Note_off_c, 9, 82, 0
12, 121998, Note_off_c, 9, 42, 0
12, 121998, Note_off_c, 9, 70, 0
12, 122040, Note_on_c, 9, 65, 113
12, 122040, Note_on_c, 9, 82, 27
12, 122078, Note_off_c, 9, 82, 0
12, 122122, Note_off_c, 9, 65, 0
12, 122160, Note_on_c, 9, 42, 100
12, 122160, Note_on_c, 9, 82, 57
12, 122217, Note_off_c, 9, 82, 0
12, 122228, Note_off_c, 9, 42, 0
12, 122280, Note_on_c, 9, 27, 112
12, 122280, Note_on_c, 9, 35, 119
12, 122280, Note_on_c, 9, 42, 68
12, 122280, Note_on_c, 9, 65, 113
12, 122280, Note_on_c, 9, 82, 44
12, 122329, Note_off_c, 9, 42, 0
12, 122329, Note_off_c, 9, 65, 0
12, 122338, Note_off_c, 9, 82, 0
12, 122357, Note_off_c, 9, 35, 0
12, 122368, Note_off_c, 9, 27, 0
12, 122400, Note_on_c, 9, 28, 84
12, 122400, Note_on_c, 9, 42, 88
12, 122400, Note_on_c, 9, 55, 88
12, 122400, Note_on_c, 9, 65, 113
12, 122400, Note_on_c, 9, 70, 100
12, 122400, Note_on_c, 9, 82, 76
12, 122458, Note_off_c, 9, 55, 0
12, 122463, Note_off_c, 9, 42, 0
12, 122468, Note_off_c, 9, 70, 0
12, 122471, Note_off_c, 9, 82, 0
12, 122476, Note_off_c, 9, 65, 0
12, 122511, Note_off_c, 9, 28, 0
12, 122520, Note_on_c, 9, 82, 27
12, 122569, Note_off_c, 9, 82, 0
12, 122640, Note_on_c, 9, 27, 110
12, 122640, Note_on_c, 9, 35, 122
12, 122640, Note_on_c, 9, 42, 103
12, 122640, Note_on_c, 9, 52, 84
12, 122640, Note_on_c, 9, 66, 117
12, 122640, Note_on_c, 9, 82, 59
12, 122692, Note_off_c, 9, 82, 0
12, 122694, Note_off_c, 9, 52, 0
12, 122696, Note_off_c, 9, 66, 0
12, 122714, Note_off_c, 9, 35, 0
12, 122724, Note_off_c, 9, 42, 0
12, 122731, Note_off_c, 9, 27, 0
12, 122760, Note_on_c, 9, 82, 46
12, 122799, Note_off_c, 9, 82, 0
12, 122880, Note_on_c, 9, 27, 112
12, 122880, Note_on_c, 9, 35, 117
12, 122880, Note_on_c, 9, 42, 72
12, 122880, Note_on_c, 9, 57, 90
12, 122880, Note_on_c, 9, 70, 105
12, 122880, Note_on_c, 9, 82, 76
12, 122934, Note_off_c, 9, 42, 0
12, 122948, Note_off_c, 9, 82, 0
12, 122958, Note_off_c, 9, 70, 0
12, 122964, Note_off_c, 9, 57, 0
12, 122965, Note_off_c, 9, 35, 0
12, 122988, Note_off_c, 9, 27, 0
12, 123000, Note_on_c, 9, 82, 30
12, 123064, Note_off_c, 9, 82, 0
12, 123120, Note_on_c, 9, 42, 105
12, 123120, Note_on_c, 9, 82, 56
12, 123174, Note_off_c, 9, 82, 0
12, 123191, Note_off_c, 9, 42, 0
12, 123240, Note_on_c, 9, 27, 114
12, 123240, Note_on_c, 9, 35, 122
12, 123240, Note_on_c, 9, 42, 83
12, 123240, Note_on_c, 9, 82, 45
12, 123288, Note_off_c, 9, 42, 0
12, 123298, Note_off_c, 9, 82, 0
12, 123320, Note_off_c, 9, 35, 0
12, 123334, Note_off_c, 9, 27, 0
12, 123360, Note_on_c, 9, 39, 110
12, 123360, Note_on_c, 9, 40, 107
12, 123360, Note_on_c, 9, 42, 71
12, 123360, Note_on_c, 9, 70, 100
12, 123360, Note_on_c, 9, 82, 76
12, 123427, Note_off_c, 9, 82, 0
12, 123430, Note_off_c, 9, 42, 0
12, 123443, Note_off_c, 9, 70, 0
12, 123451, Note_off_c, 9, 40, 0
12, 123458, Note_off_c, 9, 39, 0
12, 123480, Note_on_c, 9, 82, 27
12, 123539, Note_off_c, 9, 82, 0
12, 123600, Note_on_c, 9, 27, 104
12, 123600, Note_on_c, 9, 35, 118
12, 123600, Note_on_c, 9, 42, 105
12, 123600, Note_on_c, 9, 82, 54
12, 123660, Note_off_c, 9, 82, 0
12, 123664, Note_off_c, 9, 35, 0
12, 123669, Note_off_c, 9, 27, 0
12, 123681, Note_off_c, 9, 42, 0
12, 123720, Note_on_c, 9, 82, 45
12, 123779, Note_off_c, 9, 82, 0
12, 123840, Note_on_c, 9, 42, 65
12, 123840, Note_on_c, 9, 70, 103
12, 123840, Note_on_c, 9, 82, 77
12, 123915, Note_off_c, 9, 82, 0
12, 123918, Note_off_c, 9, 42, 0
12, 123918, Note_off_c, 9, 70, 0
12, 123960, Note_on_c, 9, 82, 27
12, 123998, Note_off_c, 9, 82, 0
12, 124080, Note_on_c, 9, 42, 100
12, 124080, Note_on_c, 9, 82, 57
12, 124137, Note_off_c, 9, 82, 0
12, 124148, Note_off_c, 9, 42, 0
12, 124200, Note_on_c, 9, 27, 112
12, 124200, Note_on_c, 9, 35, 119
12, 124200, Note_on_c, 9, 42, 68
12, 124200, Note_on_c, 9, 82, 44
12, 124249, Note_off_c, 9, 42, 0
12, 124258, Note_off_c, 9, 82, 0
12, 124277, Note_off_c, 9, 35, 0
12, 124288, Note_off_c, 9, 27, 0
12, 124320, Note_on_c, 9, 39, 113
12, 124320, Note_on_c, 9, 40, 111
12, 124320, Note_on_c, 9, 42, 88
12, 124320, Note_on_c, 9, 70, 100
12, 124320, Note_on_c, 9, 82, 76
12, 124383, Note_off_c, 9, 42, 0
12, 124388, Note_off_c, 9, 70, 0
12, 124391, Note_off_c, 9, 82, 0
12, 124410, Note_off_c, 9, 40, 0
12, 124411, Note_off_c, 9, 39, 0
12, 124440, Note_on_c, 9, 82, 27
12, 124489, Note_off_c, 9, 82, 0
12, 124560, Note_on_c, 9, 27, 110
12, 124560, Note_on_c, 9, 35, 122
12, 124560, Note_on_c, 9, 42, 103
12, 124560, Note_on_c, 9, 82, 59
12, 124612, Note_off_c, 9, 82, 0
12, 124634, Note_off_c, 9, 35, 0
12, 124644, Note_off_c, 9, 42, 0
12, 124651, Note_off_c, 9, 27, 0
12, 124680, Note_on_c, 9, 82, 46
12, 124719, Note_off_c, 9, 82, 0
12, 124800, Note_on_c, 9, 27, 112
12, 124800, Note_on_c, 9, 35, 117
12, 124800, Note_on_c, 9, 42, 72
12, 124800, Note_on_c, 9, 70, 105
12, 124800, Note_on_c, 9, 82, 76
12, 124854, Note_off_c, 9, 42, 0
12, 124868, Note_off_c, 9, 82, 0
12, 124878, Note_off_c, 9, 70, 0
12, 124885, Note_off_c, 9, 35, 0
12, 124908, Note_off_c, 9, 27, 0
12, 124920, Note_on_c, 9, 82, 30
12, 124984, Note_off_c, 9, 82, 0
12, 125040, Note_on_c, 9, 42, 105
12, 125040, Note_on_c, 9, 82, 56
12, 125094, Note_off_c, 9, 82, 0
12, 125111, Note_off_c, 9, 42, 0
12, 125160, Note_on_c, 9, 27, 114
12, 125160, Note_on_c, 9, 35, 122
12, 125160, Note_on_c, 9, 42, 83
12, 125160, Note_on_c, 9, 82, 45
12, 125208, Note_off_c, 9, 42, 0
12, 125218, Note_off_c, 9, 82, 0
12, 125240, Note_off_c, 9, 35, 0
12, 125254, Note_off_c, 9, 27, 0
12, 125280, Note_on_c, 9, 39, 110
12, 125280, Note_on_c, 9, 40, 107
12, 125280, Note_on_c, 9, 42, 71
12, 125280, Note_on_c, 9, 70, 100
12, 125280, Note_on_c, 9, 82, 76
12, 125347, Note_off_c, 9, 82, 0
12, 125350, Note_off_c, 9, 42, 0
12, 125363, Note_off_c, 9, 70, 0
12, 125371, Note_off_c, 9, 40, 0
12, 125378, Note_off_c, 9, 39, 0
12, 125400, Note_on_c, 9, 82, 27
12, 125459, Note_off_c, 9, 82, 0
12, 125520, Note_on_c, 9, 27, 104
12, 125520, Note_on_c, 9, 35, 118
12, 125520, Note_on_c, 9, 42, 105
12, 125520, Note_on_c, 9, 82, 54
12, 125580, Note_off_c, 9, 82, 0
12, 125584, Note_off_c, 9, 35, 0
12, 125589, Note_off_c, 9, 27, 0
12, 125601, Note_off_c, 9, 42, 0
12, 125640, Note_on_c, 9, 82, 45
12, 125699, Note_off_c, 9, 82, 0
12, 125760, Note_on_c, 9, 42, 65
12, 125760, Note_on_c, 9, 70, 103
12, 125760, Note_on_c, 9, 82, 77
12, 125835, Note_off_c, 9, 82, 0
12, 125838, Note_off_c, 9, 42, 0
12, 125838, Note_off_c, 9, 70, 0
12, 125880, Note_on_c, 9, 82, 27
12, 125918, Note_off_c, 9, 82, 0
12, 126000, Note_on_c, 9, 42, 100
12, 126000, Note_on_c, 9, 82, 57
12, 126057, Note_off_c, 9, 82, 0
12, 126068, Note_off_c, 9, 42, 0
12, 126120, Note_on_c, 9, 27, 112
12, 126120, Note_on_c, 9, 35, 119
12, 126120, Note_on_c, 9, 42, 68
12, 126120, Note_on_c, 9, 82, 44
12, 126169, Note_off_c, 9, 42, 0
12, 126178, Note_off_c, 9, 82, 0
12, 126197, Note_off_c, 9, 35, 0
12, 126208, Note_off_c, 9, 27, 0
12, 126240, Note_on_c, 9, 39, 113
12, 126240, Note_on_c, 9, 40, 111
12, 126240, Note_on_c, 9, 42, 88
12, 126240, Note_on_c, 9, 70, 100
12, 126240, Note_on_c, 9, 82, 76
12, 126303, Note_off_c, 9, 42, 0
12, 126308, Note_off_c, 9, 70, 0
12, 126311, Note_off_c, 9, 82, 0
12, 126330, Note_off_c, 9, 40, 0
12, 126331, Note_off_c, 9, 39, 0
12, 126360, Note_on_c, 9, 82, 27
12, 126409, Note_off_c, 9, 82, 0
12, 126480, Note_on_c, 9, 27, 110
12, 126480, Note_on_c, 9, 35, 122
12, 126480, Note_on_c, 9, 42, 103
12, 126480, Note_on_c, 9, 82, 59
12, 126532, Note_off_c, 9, 82, 0
12, 126554, Note_off_c, 9, 35, 0
12, 126564, Note_off_c, 9, 42, 0
12, 126571, Note_off_c, 9, 27, 0
12, 126600, Note_on_c, 9, 82, 46
12, 126639, Note_off_c, 9, 82, 0
12, 126720, Note_on_c, 9, 27, 112
12, 126720, Note_on_c, 9, 35, 117
12, 126720, Note_on_c, 9, 42, 72
12, 126720, Note_on_c, 9, 70, 105
12, 126720, Note_on_c, 9, 82, 76
12, 126774, Note_off_c, 9, 42, 0
12, 126788, Note_off_c, 9, 82, 0
12, 126798, Note_off_c, 9, 70, 0
12, 126805, Note_off_c, 9, 35, 0
12, 126828, Note_off_c, 9, 27, 0
12, 126840, Note_on_c, 9, 82, 30
12, 126904, Note_off_c, 9, 82, 0
12, 126960, Note_on_c, 9, 42, 105
12, 126960, Note_on_c, 9, 82, 56
12, 127014, Note_off_c, 9, 82, 0
12, 127031, Note_off_c, 9, 42, 0
12, 127080, Note_on_c, 9, 27, 114
12, 127080, Note_on_c, 9, 35, 122
12, 127080, Note_on_c, 9, 42, 83
12, 127080, Note_on_c, 9, 82, 45
12, 127128, Note_off_c, 9, 42, 0
12, 127138, Note_off_c, 9, 82, 0
12, 127160, Note_off_c, 9, 35, 0
12, 127174, Note_off_c, 9, 27, 0
12, 127200, Note_on_c, 9, 39, 110
12, 127200, Note_on_c, 9, 40, 107
12, 127200, Note_on_c, 9, 42, 71
12, 127200, Note_on_c, 9, 70, 100
12, 127200, Note_on_c, 9, 82, 76
12, 127267, Note_off_c, 9, 82, 0
12, 127270, Note_off_c, 9, 42, 0
12, 127283, Note_off_c, 9, 70, 0
12, 127291, Note_off_c, 9, 40, 0
12, 127298, Note_off_c, 9, 39, 0
12, 127320, Note_on_c, 9, 82, 27
12, 127379, Note_off_c, 9, 82, 0
12, 127440, Note_on_c, 9, 27, 104
12, 127440, Note_on_c, 9, 35, 118
12, 127440, Note_on_c, 9, 42, 105
12, 127440, Note_on_c, 9, 82, 54
12, 127500, Note_off_c, 9, 82, 0
12, 127504, Note_off_c, 9, 35, 0
12, 127509, Note_off_c, 9, 27, 0
12, 127521, Note_off_c, 9, 42, 0
12, 127560, Note_on_c, 9, 82, 45
12, 127619, Note_off_c, 9, 82, 0
12, 127680, Note_on_c, 9, 42, 65
12, 127680, Note_on_c, 9, 70, 103
12, 127680, Note_on_c, 9, 82, 77
12, 127755, Note_off_c, 9, 82, 0
12, 127758, Note_off_c, 9, 42, 0
12, 127758, Note_off_c, 9, 70, 0
12, 127800, Note_on_c, 9, 82, 27
12, 127838, Note_off_c, 9, 82, 0
12, 127920, Note_on_c, 9, 42, 100
12, 127920, Note_on_c, 9, 82, 57
12, 127977, Note_off_c, 9, 82, 0
12, 127988, Note_off_c, 9, 42, 0
12, 128040, Note_on_c, 9, 27, 112
12, 128040, Note_on_c, 9, 35, 119
12, 128040, Note_on_c, 9, 42, 68
12, 128040, Note_on_c, 9, 82, 44
12, 128089, Note_off_c, 9, 42, 0
12, 128098, Note_off_c, 9, 82, 0
12, 128117, Note_off_c, 9, 35, 0
12, 128128, Note_off_c, 9, 27, 0
12, 128160, Note_on_c, 9, 39, 113
12, 128160, Note_on_c, 9, 40, 111
12, 128160, Note_on_c, 9, 42, 88
12, 128160, Note_on_c, 9, 70, 100
12, 128160, Note_on_c, 9, 82, 76
12, 128223, Note_off_c, 9, 42, 0
12, 128228, Note_off_c, 9, 70, 0
12, 128231, Note_off_c, 9, 82, 0
12, 128250, Note_off_c, 9, 40, 0
12, 128251, Note_off_c, 9, 39, 0
12, 128280, Note_on_c, 9, 82, 27
12, 128329, Note_off_c, 9, 82, 0
12, 128400, Note_on_c, 9, 27, 110
12, 128400, Note_on_c, 9, 35, 122
12, 128400, Note_on_c, 9, 42, 103
12, 128400, Note_on_c, 9, 82, 59
12, 128452, Note_off_c, 9, 82, 0
12, 128474, Note_off_c, 9, 35, 0
12, 128484, Note_off_c, 9, 42, 0
12, 128491, Note_off_c, 9, 27, 0
12, 128520, Note_on_c, 9, 82, 46
12, 128559, Note_off_c, 9, 82, 0
12, 128640, Note_on_c, 9, 27, 112
12, 128640, Note_on_c, 9, 35, 117
12, 128640, Note_on_c, 9, 42, 72
12, 128640, Note_on_c, 9, 70, 105
12, 128640, Note_on_c, 9, 82, 76
12, 128694, Note_off_c, 9, 42, 0
12, 128708, Note_off_c, 9, 82, 0
12, 128718, Note_off_c, 9, 70, 0
12, 128725, Note_off_c, 9, 35, 0
12, 128748, Note_off_c, 9, 27, 0
12, 128760, Note_on_c, 9, 82, 30
12, 128824, Note_off_c, 9, 82, 0
12, 128880, Note_on_c, 9, 42, 105
12, 128880, Note_on_c, 9, 82, 56
12, 128934, Note_off_c, 9, 82, 0
12, 128951, Note_off_c, 9, 42, 0
12, 129000, Note_on_c, 9, 27, 114
12, 129000, Note_on_c, 9, 35, 122
12, 129000, Note_on_c, 9, 42, 83
12, 129000, Note_on_c, 9, 82, 45
12, 129048, Note_off_c, 9, 42, 0
12, 129058, Note_off_c, 9, 82, 0
12, 129080, Note_off_c, 9, 35, 0
12, 129094, Note_off_c, 9, 27, 0
12, 129120, Note_on_c, 9, 39, 110
12, 129120, Note_on_c, 9, 40, 107
12, 129120, Note_on_c, 9, 42, 71
12, 129120, Note_on_c, 9, 70, 100
12, 129120, Note_on_c, 9, 82, 76
12, 129187, Note_off_c, 9, 82, 0
12, 129190, Note_off_c, 9, 42, 0
12, 129203, Note_off_c, 9, 70, 0
12, 129211, Note_off_c, 9, 40, 0
12, 129218, Note_off_c, 9, 39, 0
12, 129240, Note_on_c, 9, 82, 27
12, 129299, Note_off_c, 9, 82, 0
12, 129360, Note_on_c, 9, 27, 104
12, 129360, Note_on_c, 9, 35, 118
12, 129360, Note_on_c, 9, 42, 105
12, 129360, Note_on_c, 9, 82, 54
12, 129420, Note_off_c, 9, 82, 0
12, 129424, Note_off_c, 9, 35, 0
12, 129429, Note_off_c, 9, 27, 0
12, 129441, Note_off_c, 9, 42, 0
12, 129480, Note_on_c, 9, 82, 45
12, 129539, Note_off_c, 9, 82, 0
12, 129600, Note_on_c, 9, 42, 65
12, 129600, Note_on_c, 9, 70, 103
12, 129600, Note_on_c, 9, 82, 77
12, 129675, Note_off_c, 9, 82, 0
12, 129678, Note_off_c, 9, 42, 0
12, 129678, Note_off_c, 9, 70, 0
12, 129720, Note_on_c, 9, 82, 27
12, 129758, Note_off_c, 9, 82, 0
12, 129840, Note_on_c, 9, 42, 100
12, 129840, Note_on_c, 9, 82, 57
12, 129897, Note_off_c, 9, 82, 0
12, 129908, Note_off_c, 9, 42, 0
12, 129960, Note_on_c, 9, 27, 112
12, 129960, Note_on_c, 9, 35, 119
12, 129960, Note_on_c, 9, 42, 68
12, 129960, Note_on_c, 9, 82, 44
12, 130009, Note_off_c, 9, 42, 0
12, 130018, Note_off_c, 9, 82, 0
12, 130037, Note_off_c, 9, 35, 0
12, 130048, Note_off_c, 9, 27, 0
12, 130080, Note_on_c, 9, 39, 113
12, 130080, Note_on_c, 9, 40, 111
12, 130080, Note_on_c, 9, 42, 88
12, 130080, Note_on_c, 9, 70, 100
12, 130080, Note_on_c, 9, 82, 76
12, 130143, Note_off_c, 9, 42, 0
12, 130148, Note_off_c, 9, 70, 0
12, 130151, Note_off_c, 9, 82, 0
12, 130170, Note_off_c, 9, 40, 0
12, 130171, Note_off_c, 9, 39, 0
12, 130200, Note_on_c, 9, 82, 27
12, 130249, Note_off_c, 9, 82, 0
12, 130320, Note_on_c, 9, 27, 110
12, 130320, Note_on_c, 9, 35, 122
12, 130320, Note_on_c, 9, 42, 103
12, 130320, Note_on_c, 9, 82, 59
12, 130372, Note_off_c, 9, 82, 0
12, 130394, Note_off_c, 9, 35, 0
12, 130404, Note_off_c, 9, 42, 0
12, 130411, Note_off_c, 9, 27, 0
12, 130440, Note_on_c, 9, 82, 46
12, 130479, Note_off_c, 9, 82, 0
12, 130560, Note_on_c, 9, 27, 112
12, 130560, Note_on_c, 9, 35, 117
12, 130560, Note_on_c, 9, 42, 72
12, 130560, Note_on_c, 9, 57, 90
12, 130560, Note_on_c, 9, 70, 105
12, 130560, Note_on_c, 9, 82, 76
12, 130614, Note_off_c, 9, 42, 0
12, 130628, Note_off_c, 9, 82, 0
12, 130638, Note_off_c, 9, 70, 0
12, 130644, Note_off_c, 9, 57, 0
12, 130645, Note_off_c, 9, 35, 0
12, 130668, Note_off_c, 9, 27, 0
12, 130680, Note_on_c, 9, 82, 30
12, 130744, Note_off_c, 9, 82, 0
12, 130800, Note_on_c, 9, 42, 105
12, 130800, Note_on_c, 9, 82, 56
12, 130854, Note_off_c, 9, 82, 0
12, 130871, Note_off_c, 9, 42, 0
12, 130920, Note_on_c, 9, 27, 114
12, 130920, Note_on_c, 9, 35, 122
12, 130920, Note_on_c, 9, 42, 83
12, 130920, Note_on_c, 9, 82, 45
12, 130968, Note_off_c, 9, 42, 0
12, 130978, Note_off_c, 9, 82, 0
12, 131000, Note_off_c, 9, 35, 0
12, 131014, Note_off_c, 9, 27, 0
12, 131040, Note_on_c, 9, 39, 110
12, 131040, Note_on_c, 9, 40, 107
12, 131040, Note_on_c, 9, 42, 71
12, 131040, Note_on_c, 9, 70, 100
12, 131040, Note_on_c, 9, 82, 76
12, 131107, Note_off_c, 9, 82, 0
12, 131110, Note_off_c, 9, 42, 0
12, 131123, Note_off_c, 9, 70, 0
12, 131131, Note_off_c, 9, 40, 0
12, 131138, Note_off_c, 9, 39, 0
12, 131160, Note_on_c, 9, 82, 27
12, 131219, Note_off_c, 9, 82, 0
12, 131280, Note_on_c, 9, 27, 104
12, 131280, Note_on_c, 9, 35, 118
12, 131280, Note_on_c, 9, 42, 105
12, 131280, Note_on_c, 9, 82, 54
12, 131340, Note_off_c, 9, 82, 0
12, 131344, Note_off_c, 9, 35, 0
12, 131349, Note_off_c, 9, 27, 0
12, 131361, Note_off_c, 9, 42, 0
12, 131400, Note_on_c, 9, 82, 45
12, 131459, Note_off_c, 9, 82, 0
12, 131520, Note_on_c, 9, 42, 65
12, 131520, Note_on_c, 9, 70, 103
12, 131520, Note_on_c, 9, 82, 77
12, 131595, Note_off_c, 9, 82, 0
12, 131598, Note_off_c, 9, 42, 0
12, 131598, Note_off_c, 9, 70, 0
12, 131640, Note_on_c, 9, 82, 27
12, 131678, Note_off_c, 9, 82, 0
12, 131760, Note_on_c, 9, 42, 100
12, 131760, Note_on_c, 9, 82, 57
12, 131817, Note_off_c, 9, 82, 0
12, 131828, Note_off_c, 9, 42, 0
12, 131880, Note_on_c, 9, 27, 112
12, 131880, Note_on_c, 9, 35, 119
12, 131880, Note_on_c, 9, 42, 68
12, 131880, Note_on_c, 9, 82, 44
12, 131929, Note_off_c, 9, 42, 0
12, 131938, Note_off_c, 9, 82, 0
12, 131957, Note_off_c, 9, 35, 0
12, 131968, Note_off_c, 9, 27, 0
12, 132000, Note_on_c, 9, 39, 113
12, 132000, Note_on_c, 9, 40, 111
12, 132000, Note_on_c, 9, 42, 88
12, 132000, Note_on_c, 9, 70, 100
12, 132000, Note_on_c, 9, 82, 76
12, 132063, Note_off_c, 9, 42, 0
12, 132068, Note_off_c, 9, 70, 0
12, 132071, Note_off_c, 9, 82, 0
12, 132090, Note_off_c, 9, 40, 0
12, 132091, Note_off_c, 9, 39, 0
12, 132120, Note_on_c, 9, 82, 27
12, 132169, Note_off_c, 9, 82, 0
12, 132240, Note_on_c, 9, 27, 110
12, 132240, Note_on_c, 9, 35, 122
12, 132240, Note_on_c, 9, 42, 103
12, 132240, Note_on_c, 9, 82, 59
12, 132292, Note_off_c, 9, 82, 0
12, 132314, Note_off_c, 9, 35, 0
12, 132324, Note_off_c, 9, 42, 0
12, 132331, Note_off_c, 9, 27, 0
12, 132360, Note_on_c, 9, 82, 46
12, 132399, Note_off_c, 9, 82, 0
12, 132480, Note_on_c, 9, 27, 112
12, 132480, Note_on_c, 9, 35, 117
12, 132480, Note_on_c, 9, 42, 72
12, 132480, Note_on_c, 9, 70, 105
12, 132480, Note_on_c, 9, 82, 76
12, 132534, Note_off_c, 9, 42, 0
12, 132548, Note_off_c, 9, 82, 0
12, 132558, Note_off_c, 9, 70, 0
12, 132565, Note_off_c, 9, 35, 0
12, 132588, Note_off_c, 9, 27, 0
12, 132600, Note_on_c, 9, 82, 30
12, 132664, Note_off_c, 9, 82, 0
12, 132720, Note_on_c, 9, 42, 105
12, 132720, Note_on_c, 9, 82, 56
12, 132774, Note_off_c, 9, 82, 0
12, 132791, Note_off_c, 9, 42, 0
12, 132840, Note_on_c, 9, 27, 114
12, 132840, Note_on_c, 9, 35, 122
12, 132840, Note_on_c, 9, 42, 83
12, 132840, Note_on_c, 9, 82, 45
12, 132888, Note_off_c, 9, 42, 0
12, 132898, Note_off_c, 9, 82, 0
12, 132920, Note_off_c, 9, 35, 0
12, 132934, Note_off_c, 9, 27, 0
12, 132960, Note_on_c, 9, 39, 110
12, 132960, Note_on_c, 9, 40, 107
12, 132960, Note_on_c, 9, 42, 71
12, 132960, Note_on_c, 9, 70, 100
12, 132960, Note_on_c, 9, 82, 76
12, 133027, Note_off_c, 9, 82, 0
12, 133030, Note_off_c, 9, 42, 0
12, 133043, Note_off_c, 9, 70, 0
12, 133051, Note_off_c, 9, 40, 0
12, 133058, Note_off_c, 9, 39, 0
12, 133080, Note_on_c, 9, 82, 27
12, 133139, Note_off_c, 9, 82, 0
12, 133200, Note_on_c, 9, 27, 104
12, 133200, Note_on_c, 9, 35, 118
12, 133200, Note_on_c, 9, 42, 105
12, 133200, Note_on_c, 9, 82, 54
12, 133260, Note_off_c, 9, 82, 0
12, 133264, Note_off_c, 9, 35, 0
12, 133269, Note_off_c, 9, 27, 0
12, 133281, Note_off_c, 9, 42, 0
12, 133320, Note_on_c, 9, 82, 45
12, 133379, Note_off_c, 9, 82, 0
12, 133440, Note_on_c, 9, 42, 65
12, 133440, Note_on_c, 9, 70, 103
12, 133440, Note_on_c, 9, 82, 77
12, 133515, Note_off_c, 9, 82, 0
12, 133518, Note_off_c, 9, 42, 0
12, 133518, Note_off_c, 9, 70, 0
12, 133560, Note_on_c, 9, 82, 27
12, 133598, Note_off_c, 9, 82, 0
12, 133680, Note_on_c, 9, 42, 100
12, 133680, Note_on_c, 9, 82, 57
12, 133737, Note_off_c, 9, 82, 0
12, 133748, Note_off_c, 9, 42, 0
12, 133800, Note_on_c, 9, 27, 112
12, 133800, Note_on_c, 9, 35, 119
12, 133800, Note_on_c, 9, 42, 68
12, 133800, Note_on_c, 9, 82, 44
12, 133849, Note_off_c, 9, 42, 0
12, 133858, Note_off_c, 9, 82, 0
12, 133877, Note_off_c, 9, 35, 0
12, 133888, Note_off_c, 9, 27, 0
12, 133920, Note_on_c, 9, 39, 113
12, 133920, Note_on_c, 9, 40, 111
12, 133920, Note_on_c, 9, 42, 88
12, 133920, Note_on_c, 9, 70, 100
12, 133920, Note_on_c, 9, 82, 76
12, 133983, Note_off_c, 9, 42, 0
12, 133988, Note_off_c, 9, 70, 0
12, 133991, Note_off_c, 9, 82, 0
12, 134010, Note_off_c, 9, 40, 0
12, 134011, Note_off_c, 9, 39, 0
12, 134040, Note_on_c, 9, 82, 27
12, 134089, Note_off_c, 9, 82, 0
12, 134160, Note_on_c, 9, 27, 110
12, 134160, Note_on_c, 9, 35, 122
12, 134160, Note_on_c, 9, 42, 103
12, 134160, Note_on_c, 9, 82, 59
12, 134212, Note_off_c, 9, 82, 0
12, 134234, Note_off_c, 9, 35, 0
12, 134244, Note_off_c, 9, 42, 0
12, 134251, Note_off_c, 9, 27, 0
12, 134280, Note_on_c, 9, 82, 46
12, 134319, Note_off_c, 9, 82, 0
12, 134400, Note_on_c, 9, 27, 112
12, 134400, Note_on_c, 9, 35, 117
12, 134400, Note_on_c, 9, 42, 72
12, 134400, Note_on_c, 9, 70, 105
12, 134400, Note_on_c, 9, 82, 76
12, 134454, Note_off_c, 9, 42, 0
12, 134468, Note_off_c, 9, 82, 0
12, 134478, Note_off_c, 9, 70, 0
12, 134485, Note_off_c, 9, 35, 0
12, 134508, Note_off_c, 9, 27, 0
12, 134520, Note_on_c, 9, 82, 30
12, 134584, Note_off_c, 9, 82, 0
12, 134640, Note_on_c, 9, 42, 105
12, 134640, Note_on_c, 9, 82, 56
12, 134694, Note_off_c, 9, 82, 0
12, 134711, Note_off_c, 9, 42, 0
12, 134760, Note_on_c, 9, 27, 114
12, 134760, Note_on_c, 9, 35, 122
12, 134760, Note_on_c, 9, 42, 83
12, 134760, Note_on_c, 9, 82, 45
12, 134808, Note_off_c, 9, 42, 0
12, 134818, Note_off_c, 9, 82, 0
12, 134840, Note_off_c, 9, 35, 0
12, 134854, Note_off_c, 9, 27, 0
12, 134880, Note_on_c, 9, 39, 110
12, 134880, Note_on_c, 9, 40, 107
12, 134880, Note_on_c, 9, 42, 71
12, 134880, Note_on_c, 9, 70, 100
12, 134880, Note_on_c, 9, 82, 76
12, 134947, Note_off_c, 9, 82, 0
12, 134950, Note_off_c, 9, 42, 0
12, 134963, Note_off_c, 9, 70, 0
12, 134971, Note_off_c, 9, 40, 0
12, 134978, Note_off_c, 9, 39, 0
12, 135000, Note_on_c, 9, 82, 27
12, 135059, Note_off_c, 9, 82, 0
12, 135120, Note_on_c, 9, 27, 104
12, 135120, Note_on_c, 9, 35, 118
12, 135120, Note_on_c, 9, 42, 105
12, 135120, Note_on_c, 9, 82, 54
12, 135180, Note_off_c, 9, 82, 0
12, 135184, Note_off_c, 9, 35, 0
12, 135189, Note_off_c, 9, 27, 0
12, 135201, Note_off_c, 9, 42, 0
12, 135240, Note_on_c, 9, 82, 45
12, 135299, Note_off_c, 9, 82, 0
12, 135360, Note_on_c, 9, 42, 65
12, 135360, Note_on_c, 9, 70, 103
12, 135360, Note_on_c, 9, 82, 77
12, 135435, Note_off_c, 9, 82, 0
12, 135438, Note_off_c, 9, 42, 0
12, 135438, Note_off_c, 9, 70, 0
12, 135480, Note_on_c, 9, 82, 27
12, 135518, Note_off_c, 9, 82, 0
12, 135600, Note_on_c, 9, 42, 100
12, 135600, Note_on_c, 9, 82, 57
12, 135657, Note_off_c, 9, 82, 0
12, 135668, Note_off_c, 9, 42, 0
12, 135720, Note_on_c, 9, 27, 112
12, 135720, Note_on_c, 9, 35, 119
12, 135720, Note_on_c, 9, 42, 68
12, 135720, Note_on_c, 9, 82, 44
12, 135769, Note_off_c, 9, 42, 0
12, 135778, Note_off_c, 9, 82, 0
12, 135797, Note_off_c, 9, 35, 0
12, 135808, Note_off_c, 9, 27, 0
12, 135840, Note_on_c, 9, 39, 113
12, 135840, Note_on_c, 9, 40, 111
12, 135840, Note_on_c, 9, 42, 88
12, 135840, Note_on_c, 9, 70, 100
12, 135840, Note_on_c, 9, 82, 76
12, 135903, Note_off_c, 9, 42, 0
12, 135908, Note_off_c, 9, 70, 0
12, 135911, Note_off_c, 9, 82, 0
12, 135930, Note_off_c, 9, 40, 0
12, 135931, Note_off_c, 9, 39, 0
12, 135960, Note_on_c, 9, 82, 27
12, 136009, Note_off_c, 9, 82, 0
12, 136080, Note_on_c, 9, 27, 110
12, 136080, Note_on_c, 9, 35, 122
12, 136080, Note_on_c, 9, 42, 103
12, 136080, Note_on_c, 9, 82, 59
12, 136132, Note_off_c, 9, 82, 0
12, 136154, Note_off_c, 9, 35, 0
12, 136164, Note_off_c, 9, 42, 0
12, 136171, Note_off_c, 9, 27, 0
12, 136200, Note_on_c, 9, 82, 46
12, 136239, Note_off_c, 9, 82, 0
12, 136320, Note_on_c, 9, 27, 112
12, 136320, Note_on_c, 9, 35, 117
12, 136320, Note_on_c, 9, 42, 72
12, 136320, Note_on_c, 9, 70, 105
12, 136320, Note_on_c, 9, 82, 76
12, 136374, Note_off_c, 9, 42, 0
12, 136388, Note_off_c, 9, 82, 0
12, 136398, Note_off_c, 9, 70, 0
12, 136405, Note_off_c, 9, 35, 0
12, 136428, Note_off_c, 9, 27, 0
12, 136440, Note_on_c, 9, 82, 30
12, 136504, Note_off_c, 9, 82, 0
12, 136560, Note_on_c, 9, 42, 105
12, 136560, Note_on_c, 9, 82, 56
12, 136614, Note_off_c, 9, 82, 0
12, 136631, Note_off_c, 9, 42, 0
12, 136680, Note_on_c, 9, 27, 114
12, 136680, Note_on_c, 9, 35, 122
12, 136680, Note_on_c, 9, 42, 83
12, 136680, Note_on_c, 9, 82, 45
12, 136728, Note_off_c, 9, 42, 0
12, 136738, Note_off_c, 9, 82, 0
12, 136760, Note_off_c, 9, 35, 0
12, 136774, Note_off_c, 9, 27, 0
12, 136800, Note_on_c, 9, 39, 110
12, 136800, Note_on_c, 9, 40, 107
12, 136800, Note_on_c, 9, 42, 71
12, 136800, Note_on_c, 9, 70, 100
12, 136800, Note_on_c, 9, 82, 76
12, 136867, Note_off_c, 9, 82, 0
12, 136870, Note_off_c, 9, 42, 0
12, 136883, Note_off_c, 9, 70, 0
12, 136891, Note_off_c, 9, 40, 0
12, 136898, Note_off_c, 9, 39, 0
12, 136920, Note_on_c, 9, 82, 27
12, 136979, Note_off_c, 9, 82, 0
12, 137040, Note_on_c, 9, 27, 104
12, 137040, Note_on_c, 9, 35, 118
12, 137040, Note_on_c, 9, 42, 105
12, 137040, Note_on_c, 9, 82, 54
12, 137100, Note_off_c, 9, 82, 0
12, 137104, Note_off_c, 9, 35, 0
12, 137109, Note_off_c, 9, 27, 0
12, 137121, Note_off_c, 9, 42, 0
12, 137160, Note_on_c, 9, 82, 45
12, 137219, Note_off_c, 9, 82, 0
12, 137280, Note_on_c, 9, 42, 65
12, 137280, Note_on_c, 9, 49, 73
12, 137280, Note_on_c, 9, 55, 71
12, 137280, Note_on_c, 9, 70, 103
12, 137280, Note_on_c, 9, 82, 77
12, 137355, Note_off_c, 9, 82, 0
12, 137358, Note_off_c, 9, 42, 0
12, 137358, Note_off_c, 9, 70, 0
12, 137370, Note_off_c, 9, 49, 0
12, 137374, Note_off_c, 9, 55, 0
12, 137400, Note_on_c, 9, 82, 27
12, 137438, Note_off_c, 9, 82, 0
12, 137520, Note_on_c, 9, 42, 100
12, 137520, Note_on_c, 9, 48, 120
12, 137520, Note_on_c, 9, 82, 57
12, 137566, Note_off_c, 9, 48, 0
12, 137577, Note_off_c, 9, 82, 0
12, 137588, Note_off_c, 9, 42, 0
12, 137640, Note_on_c, 9, 27, 112
12, 137640, Note_on_c, 9, 35, 119
12, 137640, Note_on_c, 9, 42, 68
12, 137640, Note_on_c, 9, 48, 116
12, 137640, Note_on_c, 9, 82, 44
12, 137689, Note_off_c, 9, 42, 0
12, 137693, Note_off_c, 9, 48, 0
12, 137698, Note_off_c, 9, 82, 0
12, 137717, Note_off_c, 9, 35, 0
12, 137728, Note_off_c, 9, 27, 0
12, 137760, Note_on_c, 9, 39, 113
12, 137760, Note_on_c, 9, 40, 111
12, 137760, Note_on_c, 9, 42, 88
12, 137760, Note_on_c, 9, 48, 122
12, 137760, Note_on_c, 9, 70, 100
12, 137760, Note_on_c, 9, 82, 76
12, 137818, Note_off_c, 9, 48, 0
12, 137823, Note_off_c, 9, 42, 0
12, 137828, Note_off_c, 9, 70, 0
12, 137831, Note_off_c, 9, 82, 0
12, 137850, Note_off_c, 9, 40, 0
12, 137851, Note_off_c, 9, 39, 0
12, 137880, Note_on_c, 9, 48, 119
12, 137880, Note_on_c, 9, 82, 27
12, 137928, Note_off_c, 9, 48, 0
12, 137929, Note_off_c, 9, 82, 0
12, 138000, Note_on_c, 9, 27, 110
12, 138000, Note_on_c, 9, 35, 122
12, 138000, Note_on_c, 9, 42, 103
12, 138000, Note_on_c, 9, 47, 120
12, 138000, Note_on_c, 9, 82, 59
12, 138052, Note_off_c, 9, 82, 0
12, 138053, Note_off_c, 9, 47, 0
12, 138074, Note_off_c, 9, 35, 0
12, 138084, Note_off_c, 9, 42, 0
12, 138091, Note_off_c, 9, 27, 0
12, 138120, Note_on_c, 9, 47, 122
12, 138120, Note_on_c, 9, 82, 46
12, 138159, Note_off_c, 9, 82, 0
12, 138185, Note_off_c, 9, 47, 0
12, 138240, Note_on_c, 9, 27, 112
12, 138240, Note_on_c, 9, 35, 117
12, 138240, Note_on_c, 9, 42, 72
12, 138240, Note_on_c, 9, 57, 90
12, 138240, Note_on_c, 9, 70, 105
12, 138240, Note_on_c, 9, 82, 76
12, 138294, Note_off_c, 9, 42, 0
12, 138308, Note_off_c, 9, 82, 0
12, 138318, Note_off_c, 9, 70, 0
12, 138324, Note_off_c, 9, 57, 0
12, 138325, Note_off_c, 9, 35, 0
12, 138348, Note_off_c, 9, 27, 0
12, 138360, Note_on_c, 9, 82, 30
12, 138424, Note_off_c, 9, 82, 0
12, 138480, Note_on_c, 9, 42, 105
12, 138480, Note_on_c, 9, 82, 56
12, 138534, Note_off_c, 9, 82, 0
12, 138551, Note_off_c, 9, 42, 0
12, 138600, Note_on_c, 9, 27, 114
12, 138600, Note_on_c, 9, 35, 122
12, 138600, Note_on_c, 9, 42, 83
12, 138600, Note_on_c, 9, 82, 45
12, 138648, Note_off_c, 9, 42, 0
12, 138658, Note_off_c, 9, 82, 0
12, 138680, Note_off_c, 9, 35, 0
12, 138694, Note_off_c, 9, 27, 0
12, 138720, Note_on_c, 9, 39, 110
12, 138720, Note_on_c, 9, 40, 107
12, 138720, Note_on_c, 9, 42, 71
12, 138720, Note_on_c, 9, 70, 100
12, 138720, Note_on_c, 9, 82, 76
12, 138787, Note_off_c, 9, 82, 0
12, 138790, Note_off_c, 9, 42, 0
12, 138803, Note_off_c, 9, 70, 0
12, 138811, Note_off_c, 9, 40, 0
12, 138818, Note_off_c, 9, 39, 0
12, 138840, Note_on_c, 9, 82, 27
12, 138899, Note_off_c, 9, 82, 0
12, 138960, Note_on_c, 9, 27, 104
12, 138960, Note_on_c, 9, 35, 118
12, 138960, Note_on_c, 9, 42, 105
12, 138960, Note_on_c, 9, 82, 54
12, 139020, Note_off_c, 9, 82, 0
12, 139024, Note_off_c, 9, 35, 0
12, 139029, Note_off_c, 9, 27, 0
12, 139041, Note_off_c, 9, 42, 0
12, 139080, Note_on_c, 9, 82, 45
12, 139139, Note_off_c, 9, 82, 0
12, 139200, Note_on_c, 9, 42, 65
12, 139200, Note_on_c, 9, 70, 103
12, 139200, Note_on_c, 9, 82, 77
12, 139275, Note_off_c, 9, 82, 0
12, 139278, Note_off_c, 9, 42, 0
12, 139278, Note_off_c, 9, 70, 0
12, 139320, Note_on_c, 9, 82, 27
12, 139358, Note_off_c, 9, 82, 0
12, 139440, Note_on_c, 9, 42, 100
12, 139440, Note_on_c, 9, 82, 57
12, 139497, Note_off_c, 9, 82, 0
12, 139508, Note_off_c, 9, 42, 0
12, 139560, Note_on_c, 9, 27, 112
12, 139560, Note_on_c, 9, 35, 119
12, 139560, Note_on_c, 9, 42, 68
12, 139560, Note_on_c, 9, 82, 44
12, 139609, Note_off_c, 9, 42, 0
12, 139618, Note_off_c, 9, 82, 0
12, 139637, Note_off_c, 9, 35, 0
12, 139648, Note_off_c, 9, 27, 0
12, 139680, Note_on_c, 9, 39, 113
12, 139680, Note_on_c, 9, 40, 111
12, 139680, Note_on_c, 9, 42, 88
12, 139680, Note_on_c, 9, 70, 100
12, 139680, Note_on_c, 9, 82, 76
12, 139743, Note_off_c, 9, 42, 0
12, 139748, Note_off_c, 9, 70, 0
12, 139751, Note_off_c, 9, 82, 0
12, 139770, Note_off_c, 9, 40, 0
12, 139771, Note_off_c, 9, 39, 0
12, 139800, Note_on_c, 9, 82, 27
12, 139849, Note_off_c, 9, 82, 0
12, 139920, Note_on_c, 9, 27, 110
12, 139920, Note_on_c, 9, 35, 122
12, 139920, Note_on_c, 9, 42, 103
12, 139920, Note_on_c, 9, 82, 59
12, 139972, Note_off_c, 9, 82, 0
12, 139994, Note_off_c, 9, 35, 0
12, 140004, Note_off_c, 9, 42, 0
12, 140011, Note_off_c, 9, 27, 0
12, 140040, Note_on_c, 9, 82, 46
12, 140079, Note_off_c, 9, 82, 0
12, 140160, Note_on_c, 9, 27, 112
12, 140160, Note_on_c, 9, 35, 117
12, 140160, Note_on_c, 9, 42, 72
12, 140160, Note_on_c, 9, 70, 105
12, 140160, Note_on_c, 9, 82, 76
12, 140214, Note_off_c, 9, 42, 0
12, 140228, Note_off_c, 9, 82, 0
12, 140238, Note_off_c, 9, 70, 0
12, 140245, Note_off_c, 9, 35, 0
12, 140268, Note_off_c, 9, 27, 0
12, 140280, Note_on_c, 9, 82, 30
12, 140344, Note_off_c, 9, 82, 0
12, 140400, Note_on_c, 9, 42, 105
12, 140400, Note_on_c, 9, 82, 56
12, 140454, Note_off_c, 9, 82, 0
12, 140471, Note_off_c, 9, 42, 0
12, 140520, Note_on_c, 9, 27, 114
12, 140520, Note_on_c, 9, 35, 122
12, 140520, Note_on_c, 9, 42, 83
12, 140520, Note_on_c, 9, 82, 45
12, 140568, Note_off_c, 9, 42, 0
12, 140578, Note_off_c, 9, 82, 0
12, 140600, Note_off_c, 9, 35, 0
12, 140614, Note_off_c, 9, 27, 0
12, 140640, Note_on_c, 9, 39, 110
12, 140640, Note_on_c, 9, 40, 107
12, 140640, Note_on_c, 9, 42, 71
12, 140640, Note_on_c, 9, 70, 100
12, 140640, Note_on_c, 9, 82, 76
12, 140707, Note_off_c, 9, 82, 0
12, 140710, Note_off_c, 9, 42, 0
12, 140723, Note_off_c, 9, 70, 0
12, 140731, Note_off_c, 9, 40, 0
12, 140738, Note_off_c, 9, 39, 0
12, 140760, Note_on_c, 9, 82, 27
12, 140819, Note_off_c, 9, 82, 0
12, 140880, Note_on_c, 9, 27, 104
12, 140880, Note_on_c, 9, 35, 118
12, 140880, Note_on_c, 9, 42, 105
12, 140880, Note_on_c, 9, 82, 54
12, 140940, Note_off_c, 9, 82, 0
12, 140944, Note_off_c, 9, 35, 0
12, 140949, Note_off_c, 9, 27, 0
12, 140961, Note_off_c, 9, 42, 0
12, 141000, Note_on_c, 9, 82, 45
12, 141059, Note_off_c, 9, 82, 0
12, 141120, Note_on_c, 9, 42, 65
12, 141120, Note_on_c, 9, 70, 103
12, 141120, Note_on_c, 9, 82, 77
12, 141195, Note_off_c, 9, 82, 0
12, 141198, Note_off_c, 9, 42, 0
12, 141198, Note_off_c, 9, 70, 0
12, 141240, Note_on_c, 9, 82, 27
12, 141278, Note_off_c, 9, 82, 0
12, 141360, Note_on_c, 9, 42, 100
12, 141360, Note_on_c, 9, 82, 57
12, 141417, Note_off_c, 9, 82, 0
12, 141428, Note_off_c, 9, 42, 0
12, 141480, Note_on_c, 9, 27, 112
12, 141480, Note_on_c, 9, 35, 119
12, 141480, Note_on_c, 9, 42, 68
12, 141480, Note_on_c, 9, 82, 44
12, 141529, Note_off_c, 9, 42, 0
12, 141538, Note_off_c, 9, 82, 0
12, 141557, Note_off_c, 9, 35, 0
12, 141568, Note_off_c, 9, 27, 0
12, 141600, Note_on_c, 9, 39, 113
12, 141600, Note_on_c, 9, 40, 111
12, 141600, Note_on_c, 9, 42, 88
12, 141600, Note_on_c, 9, 70, 100
12, 141600, Note_on_c, 9, 82, 76
12, 141663, Note_off_c, 9, 42, 0
12, 141668, Note_off_c, 9, 70, 0
12, 141671, Note_off_c, 9, 82, 0
12, 141690, Note_off_c, 9, 40, 0
12, 141691, Note_off_c, 9, 39, 0
12, 141720, Note_on_c, 9, 82, 27
12, 141769, Note_off_c, 9, 82, 0
12, 141840, Note_on_c, 9, 27, 110
12, 141840, Note_on_c, 9, 35, 122
12, 141840, Note_on_c, 9, 42, 103
12, 141840, Note_on_c, 9, 82, 59
12, 141892, Note_off_c, 9, 82, 0
12, 141914, Note_off_c, 9, 35, 0
12, 141924, Note_off_c, 9, 42, 0
12, 141931, Note_off_c, 9, 27, 0
12, 141960, Note_on_c, 9, 82, 46
12, 141999, Note_off_c, 9, 82, 0
12, 142080, Note_on_c, 9, 27, 112
12, 142080, Note_on_c, 9, 35, 117
12, 142080, Note_on_c, 9, 42, 72
12, 142080, Note_on_c, 9, 70, 105
12, 142080, Note_on_c, 9, 82, 76
12, 142134, Note_off_c, 9, 42, 0
12, 142148, Note_off_c, 9, 82, 0
12, 142158, Note_off_c, 9, 70, 0
12, 142165, Note_off_c, 9, 35, 0
12, 142188, Note_off_c, 9, 27, 0
12, 142200, Note_on_c, 9, 82, 30
12, 142264, Note_off_c, 9, 82, 0
12, 142320, Note_on_c, 9, 42, 105
12, 142320, Note_on_c, 9, 82, 56
12, 142374, Note_off_c, 9, 82, 0
12, 142391, Note_off_c, 9, 42, 0
12, 142440, Note_on_c, 9, 27, 114
12, 142440, Note_on_c, 9, 35, 122
12, 142440, Note_on_c, 9, 42, 83
12, 142440, Note_on_c, 9, 82, 45
12, 142488, Note_off_c, 9, 42, 0
12, 142498, Note_off_c, 9, 82, 0
12, 142520, Note_off_c, 9, 35, 0
12, 142534, Note_off_c, 9, 27, 0
12, 142560, Note_on_c, 9, 39, 110
12, 142560, Note_on_c, 9, 40, 107
12, 142560, Note_on_c, 9, 42, 71
12, 142560, Note_on_c, 9, 70, 100
12, 142560, Note_on_c, 9, 82, 76
12, 142627, Note_off_c, 9, 82, 0
12, 142630, Note_off_c, 9, 42, 0
12, 142643, Note_off_c, 9, 70, 0
12, 142651, Note_off_c, 9, 40, 0
12, 142658, Note_off_c, 9, 39, 0
12, 142680, Note_on_c, 9, 82, 27
12, 142739, Note_off_c, 9, 82, 0
12, 142800, Note_on_c, 9, 27, 104
12, 142800, Note_on_c, 9, 35, 118
12, 142800, Note_on_c, 9, 42, 105
12, 142800, Note_on_c, 9, 82, 54
12, 142860, Note_off_c, 9, 82, 0
12, 142864, Note_off_c, 9, 35, 0
12, 142869, Note_off_c, 9, 27, 0
12, 142881, Note_off_c, 9, 42, 0
12, 142920, Note_on_c, 9, 82, 45
12, 142979, Note_off_c, 9, 82, 0
12, 143040, Note_on_c, 9, 42, 65
12, 143040, Note_on_c, 9, 70, 103
12, 143040, Note_on_c, 9, 82, 77
12, 143115, Note_off_c, 9, 82, 0
12, 143118, Note_off_c, 9, 42, 0
12, 143118, Note_off_c, 9, 70, 0
12, 143160, Note_on_c, 9, 82, 27
12, 143198, Note_off_c, 9, 82, 0
12, 143280, Note_on_c, 9, 42, 100
12, 143280, Note_on_c, 9, 82, 57
12, 143337, Note_off_c, 9, 82, 0
12, 143348, Note_off_c, 9, 42, 0
12, 143400, Note_on_c, 9, 27, 112
12, 143400, Note_on_c, 9, 35, 119
12, 143400, Note_on_c, 9, 42, 68
12, 143400, Note_on_c, 9, 82, 44
12, 143449, Note_off_c, 9, 42, 0
12, 143458, Note_off_c, 9, 82, 0
12, 143477, Note_off_c, 9, 35, 0
12, 143488, Note_off_c, 9, 27, 0
12, 143520, Note_on_c, 9, 39, 113
12, 143520, Note_on_c, 9, 40, 111
12, 143520, Note_on_c, 9, 42, 88
12, 143520, Note_on_c, 9, 70, 100
12, 143520, Note_on_c, 9, 82, 76
12, 143583, Note_off_c, 9, 42, 0
12, 143588, Note_off_c, 9, 70, 0
12, 143591, Note_off_c, 9, 82, 0
12, 143610, Note_off_c, 9, 40, 0
12, 143611, Note_off_c, 9, 39, 0
12, 143640, Note_on_c, 9, 82, 27
12, 143689, Note_off_c, 9, 82, 0
12, 143760, Note_on_c, 9, 27, 110
12, 143760, Note_on_c, 9, 35, 122
12, 143760, Note_on_c, 9, 42, 103
12, 143760, Note_on_c, 9, 82, 59
12, 143812, Note_off_c, 9, 82, 0
12, 143834, Note_off_c, 9, 35, 0
12, 143844, Note_off_c, 9, 42, 0
12, 143851, Note_off_c, 9, 27, 0
12, 143880, Note_on_c, 9, 82, 46
12, 143919, Note_off_c, 9, 82, 0
12, 144000, Note_on_c, 9, 27, 112
12, 144000, Note_on_c, 9, 35, 117
12, 144000, Note_on_c, 9, 42, 72
12, 144000, Note_on_c, 9, 70, 105
12, 144000, Note_on_c, 9, 82, 76
12, 144054, Note_off_c, 9, 42, 0
12, 144068, Note_off_c, 9, 82, 0
12, 144078, Note_off_c, 9, 70, 0
12, 144085, Note_off_c, 9, 35, 0
12, 144108, Note_off_c, 9, 27, 0
12, 144120, Note_on_c, 9, 82, 30
12, 144184, Note_off_c, 9, 82, 0
12, 144240, Note_on_c, 9, 42, 105
12, 144240, Note_on_c, 9, 82, 56
12, 144294, Note_off_c, 9, 82, 0
12, 144311, Note_off_c, 9, 42, 0
12, 144360, Note_on_c, 9, 27, 114
12, 144360, Note_on_c, 9, 35, 122
12, 144360, Note_on_c, 9, 42, 83
12, 144360, Note_on_c, 9, 82, 45
12, 144408, Note_off_c, 9, 42, 0
12, 144418, Note_off_c, 9, 82, 0
12, 144440, Note_off_c, 9, 35, 0
12, 144454, Note_off_c, 9, 27, 0
12, 144480, Note_on_c, 9, 39, 110
12, 144480, Note_on_c, 9, 40, 107
12, 144480, Note_on_c, 9, 42, 71
12, 144480, Note_on_c, 9, 70, 100
12, 144480, Note_on_c, 9, 82, 76
12, 144547, Note_off_c, 9, 82, 0
12, 144550, Note_off_c, 9, 42, 0
12, 144563, Note_off_c, 9, 70, 0
12, 144571, Note_off_c, 9, 40, 0
12, 144578, Note_off_c, 9, 39, 0
12, 144600, Note_on_c, 9, 82, 27
12, 144659, Note_off_c, 9, 82, 0
12, 144720, Note_on_c, 9, 27, 104
12, 144720, Note_on_c, 9, 35, 118
12, 144720, Note_on_c, 9, 42, 105
12, 144720, Note_on_c, 9, 82, 54
12, 144780, Note_off_c, 9, 82, 0
12, 144784, Note_off_c, 9, 35, 0
12, 144789, Note_off_c, 9, 27, 0
12, 144801, Note_off_c, 9, 42, 0
12, 144840, Note_on_c, 9, 82, 45
12, 144899, Note_off_c, 9, 82, 0
12, 144960, Note_on_c, 9, 42, 65
12, 144960, Note_on_c, 9, 70, 103
12, 144960, Note_on_c, 9, 82, 77
12, 145035, Note_off_c, 9, 82, 0
12, 145038, Note_off_c, 9, 42, 0
12, 145038, Note_off_c, 9, 70, 0
12, 145080, Note_on_c, 9, 50, 115
12, 145080, Note_on_c, 9, 82, 27
12, 145118, Note_off_c, 9, 82, 0
12, 145137, Note_off_c, 9, 50, 0
12, 145200, Note_on_c, 9, 42, 100
12, 145200, Note_on_c, 9, 50, 119
12, 145200, Note_on_c, 9, 82, 57
12, 145257, Note_off_c, 9, 82, 0
12, 145268, Note_off_c, 9, 42, 0
12, 145283, Note_off_c, 9, 50, 0
12, 145320, Note_on_c, 9, 27, 112
12, 145320, Note_on_c, 9, 35, 119
12, 145320, Note_on_c, 9, 42, 68
12, 145320, Note_on_c, 9, 50, 125
12, 145320, Note_on_c, 9, 82, 44
12, 145369, Note_off_c, 9, 42, 0
12, 145378, Note_off_c, 9, 82, 0
12, 145397, Note_off_c, 9, 35, 0
12, 145398, Note_off_c, 9, 50, 0
12, 145408, Note_off_c, 9, 27, 0
12, 145440, Note_on_c, 9, 39, 113
12, 145440, Note_on_c, 9, 40, 111
12, 145440, Note_on_c, 9, 42, 88
12, 145440, Note_on_c, 9, 70, 100
12, 145440, Note_on_c, 9, 82, 76
12, 145503, Note_off_c, 9, 42, 0
12, 145508, Note_off_c, 9, 70, 0
12, 145511, Note_off_c, 9, 82, 0
12, 145530, Note_off_c, 9, 40, 0
12, 145531, Note_off_c, 9, 39, 0
12, 145560, Note_on_c, 9, 48, 122
12, 145560, Note_on_c, 9, 82, 27
12, 145609, Note_off_c, 9, 82, 0
12, 145622, Note_off_c, 9, 48, 0
12, 145680, Note_on_c, 9, 27, 110
12, 145680, Note_on_c, 9, 35, 122
12, 145680, Note_on_c, 9, 42, 103
12, 145680, Note_on_c, 9, 47, 124
12, 145680, Note_on_c, 9, 82, 59
12, 145732, Note_off_c, 9, 82, 0
12, 145738, Note_off_c, 9, 47, 0
12, 145754, Note_off_c, 9, 35, 0
12, 145764, Note_off_c, 9, 42, 0
12, 145771, Note_off_c, 9, 27, 0
12, 145800, Note_on_c, 9, 47, 124
12, 145800, Note_on_c, 9, 82, 46
12, 145839, Note_off_c, 9, 82, 0
12, 145848, Note_off_c, 9, 47, 0
12, 145920, Note_on_c, 9, 27, 112
12, 145920, Note_on_c, 9, 35, 117
12, 145920, Note_on_c, 9, 42, 72
12, 145920, Note_on_c, 9, 57, 90
12, 145920, Note_on_c, 9, 70, 105
12, 145920, Note_on_c, 9, 82, 76
12, 145974, Note_off_c, 9, 42, 0
12, 145988, Note_off_c, 9, 82, 0
12, 145998, Note_off_c, 9, 70, 0
12, 146004, Note_off_c, 9, 57, 0
12, 146005, Note_off_c, 9, 35, 0
12, 146028, Note_off_c, 9, 27, 0
12, 146040, Note_on_c, 9, 82, 30
12, 146104, Note_off_c, 9, 82, 0
12, 146160, Note_on_c, 9, 42, 105
12, 146160, Note_on_c, 9, 82, 56
12, 146214, Note_off_c, 9, 82, 0
12, 146231, Note_off_c, 9, 42, 0
12, 146280, Note_on_c, 9, 27, 114
12, 146280, Note_on_c, 9, 35, 122
12, 146280, Note_on_c, 9, 42, 83
12, 146280, Note_on_c, 9, 82, 45
12, 146328, Note_off_c, 9, 42, 0
12, 146338, Note_off_c, 9, 82, 0
12, 146360, Note_off_c, 9, 35, 0
12, 146374, Note_off_c, 9, 27, 0
12, 146400, Note_on_c, 9, 39, 110
12, 146400, Note_on_c, 9, 40, 107
12, 146400, Note_on_c, 9, 42, 71
12, 146400, Note_on_c, 9, 70, 100
12, 146400, Note_on_c, 9, 82, 76
12, 146467, Note_off_c, 9, 82, 0
12, 146470, Note_off_c, 9, 42, 0
12, 146483, Note_off_c, 9, 70, 0
12, 146491, Note_off_c, 9, 40, 0
12, 146498, Note_off_c, 9, 39, 0
12, 146520, Note_on_c, 9, 82, 27
12, 146579, Note_off_c, 9, 82, 0
12, 146640, Note_on_c, 9, 27, 104
12, 146640, Note_on_c, 9, 35, 118
12, 146640, Note_on_c, 9, 42, 105
12, 146640, Note_on_c, 9, 82, 54
12, 146700, Note_off_c, 9, 82, 0
12, 146704, Note_off_c, 9, 35, 0
12, 146709, Note_off_c, 9, 27, 0
12, 146721, Note_off_c, 9, 42, 0
12, 146760, Note_on_c, 9, 82, 45
12, 146819, Note_off_c, 9, 82, 0
12, 146880, Note_on_c, 9, 42, 65
12, 146880, Note_on_c, 9, 70, 103
12, 146880, Note_on_c, 9, 82, 77
12, 146955, Note_off_c, 9, 82, 0
12, 146958, Note_off_c, 9, 42, 0
12, 146958, Note_off_c, 9, 70, 0
12, 147000, Note_on_c, 9, 82, 27
12, 147038, Note_off_c, 9, 82, 0
12, 147120, Note_on_c, 9, 42, 100
12, 147120, Note_on_c, 9, 82, 57
12, 147177, Note_off_c, 9, 82, 0
12, 147188, Note_off_c, 9, 42, 0
12, 147240, Note_on_c, 9, 27, 112
12, 147240, Note_on_c, 9, 35, 119
12, 147240, Note_on_c, 9, 42, 68
12, 147240, Note_on_c, 9, 82, 44
12, 147289, Note_off_c, 9, 42, 0
12, 147298, Note_off_c, 9, 82, 0
12, 147317, Note_off_c, 9, 35, 0
12, 147328, Note_off_c, 9, 27, 0
12, 147360, Note_on_c, 9, 39, 113
12, 147360, Note_on_c, 9, 40, 111
12, 147360, Note_on_c, 9, 42, 88
12, 147360, Note_on_c, 9, 70, 100
12, 147360, Note_on_c, 9, 82, 76
12, 147423, Note_off_c, 9, 42, 0
12, 147428, Note_off_c, 9, 70, 0
12, 147431, Note_off_c, 9, 82, 0
12, 147450, Note_off_c, 9, 40, 0
12, 147451, Note_off_c, 9, 39, 0
12, 147480, Note_on_c, 9, 82, 27
12, 147529, Note_off_c, 9, 82, 0
12, 147600, Note_on_c, 9, 27, 110
12, 147600, Note_on_c, 9, 35, 122
12, 147600, Note_on_c, 9, 42, 103
12, 147600, Note_on_c, 9, 82, 59
12, 147652, Note_off_c, 9, 82, 0
12, 147674, Note_off_c, 9, 35, 0
12, 147684, Note_off_c, 9, 42, 0
12, 147691, Note_off_c, 9, 27, 0
12, 147720, Note_on_c, 9, 82, 46
12, 147759, Note_off_c, 9, 82, 0
12, 147840, Note_on_c, 9, 27, 112
12, 147840, Note_on_c, 9, 35, 117
12, 147840, Note_on_c, 9, 42, 72
12, 147840, Note_on_c, 9, 70, 105
12, 147840, Note_on_c, 9, 82, 76
12, 147894, Note_off_c, 9, 42, 0
12, 147908, Note_off_c, 9, 82, 0
12, 147918, Note_off_c, 9, 70, 0
12, 147925, Note_off_c, 9, 35, 0
12, 147948, Note_off_c, 9, 27, 0
12, 147960, Note_on_c, 9, 82, 30
12, 148024, Note_off_c, 9, 82, 0
12, 148080, Note_on_c, 9, 42, 105
12, 148080, Note_on_c, 9, 82, 56
12, 148134, Note_off_c, 9, 82, 0
12, 148151, Note_off_c, 9, 42, 0
12, 148200, Note_on_c, 9, 27, 114
12, 148200, Note_on_c, 9, 35, 122
12, 148200, Note_on_c, 9, 42, 83
12, 148200, Note_on_c, 9, 82, 45
12, 148248, Note_off_c, 9, 42, 0
12, 148258, Note_off_c, 9, 82, 0
12, 148280, Note_off_c, 9, 35, 0
12, 148294, Note_off_c, 9, 27, 0
12, 148320, Note_on_c, 9, 39, 110
12, 148320, Note_on_c, 9, 40, 107
12, 148320, Note_on_c, 9, 42, 71
12, 148320, Note_on_c, 9, 70, 100
12, 148320, Note_on_c, 9, 82, 76
12, 148387, Note_off_c, 9, 82, 0
12, 148390, Note_off_c, 9, 42, 0
12, 148403, Note_off_c, 9, 70, 0
12, 148411, Note_off_c, 9, 40, 0
12, 148418, Note_off_c, 9, 39, 0
12, 148440, Note_on_c, 9, 82, 27
12, 148499, Note_off_c, 9, 82, 0
12, 148560, Note_on_c, 9, 27, 104
12, 148560, Note_on_c, 9, 35, 118
12, 148560, Note_on_c, 9, 42, 105
12, 148560, Note_on_c, 9, 82, 54
12, 148620, Note_off_c, 9, 82, 0
12, 148624, Note_off_c, 9, 35, 0
12, 148629, Note_off_c, 9, 27, 0
12, 148641, Note_off_c, 9, 42, 0
12, 148680, Note_on_c, 9, 82, 45
12, 148739, Note_off_c, 9, 82, 0
12, 148800, Note_on_c, 9, 42, 65
12, 148800, Note_on_c, 9, 70, 103
12, 148800, Note_on_c, 9, 82, 77
12, 148875, Note_off_c, 9, 82, 0
12, 148878, Note_off_c, 9, 42, 0
12, 148878, Note_off_c, 9, 70, 0
12, 148920, Note_on_c, 9, 82, 27
12, 148958, Note_off_c, 9, 82, 0
12, 149040, Note_on_c, 9, 42, 100
12, 149040, Note_on_c, 9, 82, 57
12, 149097, Note_off_c, 9, 82, 0
12, 149108, Note_off_c, 9, 42, 0
12, 149160, Note_on_c, 9, 27, 112
12, 149160, Note_on_c, 9, 35, 119
12, 149160, Note_on_c, 9, 42, 68
12, 149160, Note_on_c, 9, 82, 44
12, 149209, Note_off_c, 9, 42, 0
12, 149218, Note_off_c, 9, 82, 0
12, 149237, Note_off_c, 9, 35, 0
12, 149248, Note_off_c, 9, 27, 0
12, 149280, Note_on_c, 9, 39, 113
12, 149280, Note_on_c, 9, 40, 111
12, 149280, Note_on_c, 9, 42, 88
12, 149280, Note_on_c, 9, 70, 100
12, 149280, Note_on_c, 9, 82, 76
12, 149343, Note_off_c, 9, 42, 0
12, 149348, Note_off_c, 9, 70, 0
12, 149351, Note_off_c, 9, 82, 0
12, 149370, Note_off_c, 9, 40, 0
12, 149371, Note_off_c, 9, 39, 0
12, 149400, Note_on_c, 9, 82, 27
12, 149449, Note_off_c, 9, 82, 0
12, 149520, Note_on_c, 9, 27, 110
12, 149520, Note_on_c, 9, 35, 122
12, 149520, Note_on_c, 9, 42, 103
12, 149520, Note_on_c, 9, 82, 59
12, 149572, Note_off_c, 9, 82, 0
12, 149594, Note_off_c, 9, 35, 0
12, 149604, Note_off_c, 9, 42, 0
12, 149611, Note_off_c, 9, 27, 0
12, 149640, Note_on_c, 9, 82, 46
12, 149679, Note_off_c, 9, 82, 0
12, 149760, Note_on_c, 9, 27, 112
12, 149760, Note_on_c, 9, 35, 117
12, 149760, Note_on_c, 9, 42, 72
12, 149760, Note_on_c, 9, 70, 105
12, 149760, Note_on_c, 9, 82, 76
12, 149814, Note_off_c, 9, 42, 0
12, 149828, Note_off_c, 9, 82, 0
12, 149838, Note_off_c, 9, 70, 0
12, 149845, Note_off_c, 9, 35, 0
12, 149868, Note_off_c, 9, 27, 0
12, 149880, Note_on_c, 9, 82, 30
12, 149944, Note_off_c, 9, 82, 0
12, 150000, Note_on_c, 9, 42, 105
12, 150000, Note_on_c, 9, 82, 56
12, 150054, Note_off_c, 9, 82, 0
12, 150071, Note_off_c, 9, 42, 0
12, 150120, Note_on_c, 9, 27, 114
12, 150120, Note_on_c, 9, 35, 122
12, 150120, Note_on_c, 9, 42, 83
12, 150120, Note_on_c, 9, 82, 45
12, 150168, Note_off_c, 9, 42, 0
12, 150178, Note_off_c, 9, 82, 0
12, 150200, Note_off_c, 9, 35, 0
12, 150214, Note_off_c, 9, 27, 0
12, 150240, Note_on_c, 9, 39, 110
12, 150240, Note_on_c, 9, 40, 107
12, 150240, Note_on_c, 9, 42, 71
12, 150240, Note_on_c, 9, 70, 100
12, 150240, Note_on_c, 9, 82, 76
12, 150307, Note_off_c, 9, 82, 0
12, 150310, Note_off_c, 9, 42, 0
12, 150323, Note_off_c, 9, 70, 0
12, 150331, Note_off_c, 9, 40, 0
12, 150338, Note_off_c, 9, 39, 0
12, 150360, Note_on_c, 9, 82, 27
12, 150419, Note_off_c, 9, 82, 0
12, 150480, Note_on_c, 9, 27, 104
12, 150480, Note_on_c, 9, 35, 118
12, 150480, Note_on_c, 9, 42, 105
12, 150480, Note_on_c, 9, 82, 54
12, 150540, Note_off_c, 9, 82, 0
12, 150544, Note_off_c, 9, 35, 0
12, 150549, Note_off_c, 9, 27, 0
12, 150561, Note_off_c, 9, 42, 0
12, 150600, Note_on_c, 9, 82, 45
12, 150659, Note_off_c, 9, 82, 0
12, 150720, Note_on_c, 9, 42, 65
12, 150720, Note_on_c, 9, 70, 103
12, 150720, Note_on_c, 9, 82, 77
12, 150795, Note_off_c, 9, 82, 0
12, 150798, Note_off_c, 9, 42, 0
12, 150798, Note_off_c, 9, 70, 0
12, 150840, Note_on_c, 9, 82, 27
12, 150878, Note_off_c, 9, 82, 0
12, 150960, Note_on_c, 9, 42, 100
12, 150960, Note_on_c, 9, 82, 57
12, 151017, Note_off_c, 9, 82, 0
12, 151028, Note_off_c, 9, 42, 0
12, 151080, Note_on_c, 9, 27, 112
12, 151080, Note_on_c, 9, 35, 119
12, 151080, Note_on_c, 9, 42, 68
12, 151080, Note_on_c, 9, 82, 44
12, 151129, Note_off_c, 9, 42, 0
12, 151138, Note_off_c, 9, 82, 0
12, 151157, Note_off_c, 9, 35, 0
12, 151168, Note_off_c, 9, 27, 0
12, 151200, Note_on_c, 9, 39, 113
12, 151200, Note_on_c, 9, 40, 111
12, 151200, Note_on_c, 9, 42, 88
12, 151200, Note_on_c, 9, 70, 100
12, 151200, Note_on_c, 9, 82, 76
12, 151263, Note_off_c, 9, 42, 0
12, 151268, Note_off_c, 9, 70, 0
12, 151271, Note_off_c, 9, 82, 0
12, 151290, Note_off_c, 9, 40, 0
12, 151291, Note_off_c, 9, 39, 0
12, 151320, Note_on_c, 9, 82, 27
12, 151369, Note_off_c, 9, 82, 0
12, 151440, Note_on_c, 9, 27, 110
12, 151440, Note_on_c, 9, 35, 122
12, 151440, Note_on_c, 9, 42, 103
12, 151440, Note_on_c, 9, 82, 59
12, 151492, Note_off_c, 9, 82, 0
12, 151514, Note_off_c, 9, 35, 0
12, 151524, Note_off_c, 9, 42, 0
12, 151531, Note_off_c, 9, 27, 0
12, 151560, Note_on_c, 9, 82, 46
12, 151599, Note_off_c, 9, 82, 0
12, 151680, Note_on_c, 9, 27, 112
12, 151680, Note_on_c, 9, 35, 117
12, 151680, Note_on_c, 9, 42, 72
12, 151680, Note_on_c, 9, 70, 105
12, 151680, Note_on_c, 9, 82, 76
12, 151734, Note_off_c, 9, 42, 0
12, 151748, Note_off_c, 9, 82, 0
12, 151758, Note_off_c, 9, 70, 0
12, 151765, Note_off_c, 9, 35, 0
12, 151788, Note_off_c, 9, 27, 0
12, 151800, Note_on_c, 9, 82, 30
12, 151864, Note_off_c, 9, 82, 0
12, 151920, Note_on_c, 9, 42, 105
12, 151920, Note_on_c, 9, 82, 56
12, 151974, Note_off_c, 9, 82, 0
12, 151991, Note_off_c, 9, 42, 0
12, 152040, Note_on_c, 9, 27, 114
12, 152040, Note_on_c, 9, 35, 122
12, 152040, Note_on_c, 9, 42, 83
12, 152040, Note_on_c, 9, 82, 45
12, 152088, Note_off_c, 9, 42, 0
12, 152098, Note_off_c, 9, 82, 0
12, 152120, Note_off_c, 9, 35, 0
12, 152134, Note_off_c, 9, 27, 0
12, 152160, Note_on_c, 9, 39, 110
12, 152160, Note_on_c, 9, 40, 107
12, 152160, Note_on_c, 9, 42, 71
12, 152160, Note_on_c, 9, 70, 100
12, 152160, Note_on_c, 9, 82, 76
12, 152227, Note_off_c, 9, 82, 0
12, 152230, Note_off_c, 9, 42, 0
12, 152243, Note_off_c, 9, 70, 0
12, 152251, Note_off_c, 9, 40, 0
12, 152258, Note_off_c, 9, 39, 0
12, 152280, Note_on_c, 9, 82, 27
12, 152339, Note_off_c, 9, 82, 0
12, 152400, Note_on_c, 9, 27, 104
12, 152400, Note_on_c, 9, 35, 118
12, 152400, Note_on_c, 9, 42, 105
12, 152400, Note_on_c, 9, 82, 54
12, 152460, Note_off_c, 9, 82, 0
12, 152464, Note_off_c, 9, 35, 0
12, 152469, Note_off_c, 9, 27, 0
12, 152481, Note_off_c, 9, 42, 0
12, 152520, Note_on_c, 9, 82, 45
12, 152579, Note_off_c, 9, 82, 0
12, 152640, Note_on_c, 9, 42, 65
12, 152640, Note_on_c, 9, 70, 103
12, 152640, Note_on_c, 9, 82, 77
12, 152715, Note_off_c, 9, 82, 0
12, 152718, Note_off_c, 9, 42, 0
12, 152718, Note_off_c, 9, 70, 0
12, 152760, Note_on_c, 9, 50, 115
12, 152760, Note_on_c, 9, 82, 27
12, 152798, Note_off_c, 9, 82, 0
12, 152817, Note_off_c, 9, 50, 0
12, 152880, Note_on_c, 9, 42, 100
12, 152880, Note_on_c, 9, 50, 119
12, 152880, Note_on_c, 9, 82, 57
12, 152937, Note_off_c, 9, 82, 0
12, 152948, Note_off_c, 9, 42, 0
12, 152963, Note_off_c, 9, 50, 0
12, 153000, Note_on_c, 9, 27, 112
12, 153000, Note_on_c, 9, 35, 119
12, 153000, Note_on_c, 9, 42, 68
12, 153000, Note_on_c, 9, 50, 125
12, 153000, Note_on_c, 9, 82, 44
12, 153049, Note_off_c, 9, 42, 0
12, 153058, Note_off_c, 9, 82, 0
12, 153077, Note_off_c, 9, 35, 0
12, 153078, Note_off_c, 9, 50, 0
12, 153088, Note_off_c, 9, 27, 0
12, 153120, Note_on_c, 9, 39, 113
12, 153120, Note_on_c, 9, 40, 111
12, 153120, Note_on_c, 9, 42, 88
12, 153120, Note_on_c, 9, 70, 100
12, 153120, Note_on_c, 9, 82, 76
12, 153183, Note_off_c, 9, 42, 0
12, 153188, Note_off_c, 9, 70, 0
12, 153191, Note_off_c, 9, 82, 0
12, 153210, Note_off_c, 9, 40, 0
12, 153211, Note_off_c, 9, 39, 0
12, 153240, Note_on_c, 9, 48, 122
12, 153240, Note_on_c, 9, 82, 27
12, 153289, Note_off_c, 9, 82, 0
12, 153302, Note_off_c, 9, 48, 0
12, 153360, Note_on_c, 9, 27, 110
12, 153360, Note_on_c, 9, 35, 122
12, 153360, Note_on_c, 9, 42, 103
12, 153360, Note_on_c, 9, 47, 124
12, 153360, Note_on_c, 9, 82, 59
12, 153412, Note_off_c, 9, 82, 0
12, 153418, Note_off_c, 9, 47, 0
12, 153434, Note_off_c, 9, 35, 0
12, 153444, Note_off_c, 9, 42, 0
12, 153451, Note_off_c, 9, 27, 0
12, 153480, Note_on_c, 9, 47, 124
12, 153480, Note_on_c, 9, 82, 46
12, 153519, Note_off_c, 9, 82, 0
12, 153528, Note_off_c, 9, 47, 0
12, 153600, Note_on_c, 9, 27, 112
12, 153600, Note_on_c, 9, 35, 117
12, 153600, Note_on_c, 9, 42, 72
12, 153600, Note_on_c, 9, 57, 90
12, 153600, Note_on_c, 9, 70, 105
12, 153600, Note_on_c, 9, 82, 76
12, 153654, Note_off_c, 9, 42, 0
12, 153668, Note_off_c, 9, 82, 0
12, 153678, Note_off_c, 9, 70, 0
12, 153684, Note_off_c, 9, 57, 0
12, 153685, Note_off_c, 9, 35, 0
12, 153708, Note_off_c, 9, 27, 0
12, 153720, Note_on_c, 9, 82, 30
12, 153784, Note_off_c, 9, 82, 0
12, 153840, Note_on_c, 9, 42, 105
12, 153840, Note_on_c, 9, 82, 56
12, 153894, Note_off_c, 9, 82, 0
12, 153911, Note_off_c, 9, 42, 0
12, 153960, Note_on_c, 9, 27, 114
12, 153960, Note_on_c, 9, 35, 122
12, 153960, Note_on_c, 9, 42, 83
12, 153960, Note_on_c, 9, 82, 45
12, 154008, Note_off_c, 9, 42, 0
12, 154018, Note_off_c, 9, 82, 0
12, 154040, Note_off_c, 9, 35, 0
12, 154054, Note_off_c, 9, 27, 0
12, 154080, Note_on_c, 9, 39, 110
12, 154080, Note_on_c, 9, 40, 107
12, 154080, Note_on_c, 9, 42, 71
12, 154080, Note_on_c, 9, 70, 100
12, 154080, Note_on_c, 9, 82, 76
12, 154147, Note_off_c, 9, 82, 0
12, 154150, Note_off_c, 9, 42, 0
12, 154163, Note_off_c, 9, 70, 0
12, 154171, Note_off_c, 9, 40, 0
12, 154178, Note_off_c, 9, 39, 0
12, 154200, Note_on_c, 9, 82, 27
12, 154259, Note_off_c, 9, 82, 0
12, 154320, Note_on_c, 9, 27, 104
12, 154320, Note_on_c, 9, 35, 118
12, 154320, Note_on_c, 9, 42, 105
12, 154320, Note_on_c, 9, 82, 54
12, 154380, Note_off_c, 9, 82, 0
12, 154384, Note_off_c, 9, 35, 0
12, 154389, Note_off_c, 9, 27, 0
12, 154401, Note_off_c, 9, 42, 0
12, 154440, Note_on_c, 9, 82, 45
12, 154499, Note_off_c, 9, 82, 0
12, 154560, Note_on_c, 9, 42, 65
12, 154560, Note_on_c, 9, 70, 103
12, 154560, Note_on_c, 9, 82, 77
12, 154635, Note_off_c, 9, 82, 0
12, 154638, Note_off_c, 9, 42, 0
12, 154638, Note_off_c, 9, 70, 0
12, 154680, Note_on_c, 9, 82, 27
12, 154718, Note_off_c, 9, 82, 0
12, 154800, Note_on_c, 9, 42, 100
12, 154800, Note_on_c, 9, 82, 57
12, 154857, Note_off_c, 9, 82, 0
12, 154868, Note_off_c, 9, 42, 0
12, 154920, Note_on_c, 9, 27, 112
12, 154920, Note_on_c, 9, 35, 119
12, 154920, Note_on_c, 9, 42, 68
12, 154920, Note_on_c, 9, 82, 44
12, 154969, Note_off_c, 9, 42, 0
12, 154978, Note_off_c, 9, 82, 0
12, 154997, Note_off_c, 9, 35, 0
12, 155008, Note_off_c, 9, 27, 0
12, 155040, Note_on_c, 9, 39, 113
12, 155040, Note_on_c, 9, 40, 111
12, 155040, Note_on_c, 9, 42, 88
12, 155040, Note_on_c, 9, 70, 100
12, 155040, Note_on_c, 9, 82, 76
12, 155103, Note_off_c, 9, 42, 0
12, 155108, Note_off_c, 9, 70, 0
12, 155111, Note_off_c, 9, 82, 0
12, 155130, Note_off_c, 9, 40, 0
12, 155131, Note_off_c, 9, 39, 0
12, 155160, Note_on_c, 9, 82, 27
12, 155209, Note_off_c, 9, 82, 0
12, 155280, Note_on_c, 9, 27, 110
12, 155280, Note_on_c, 9, 35, 122
12, 155280, Note_on_c, 9, 42, 103
12, 155280, Note_on_c, 9, 82, 59
12, 155332, Note_off_c, 9, 82, 0
12, 155354, Note_off_c, 9, 35, 0
12, 155364, Note_off_c, 9, 42, 0
12, 155371, Note_off_c, 9, 27, 0
12, 155400, Note_on_c, 9, 82, 46
12, 155439, Note_off_c, 9, 82, 0
12, 155520, Note_on_c, 9, 27, 112
12, 155520, Note_on_c, 9, 35, 117
12, 155520, Note_on_c, 9, 42, 72
12, 155520, Note_on_c, 9, 70, 105
12, 155520, Note_on_c, 9, 82, 76
12, 155574, Note_off_c, 9, 42, 0
12, 155588, Note_off_c, 9, 82, 0
12, 155598, Note_off_c, 9, 70, 0
12, 155605, Note_off_c, 9, 35, 0
12, 155628, Note_off_c, 9, 27, 0
12, 155640, Note_on_c, 9, 82, 30
12, 155704, Note_off_c, 9, 82, 0
12, 155760, Note_on_c, 9, 42, 105
12, 155760, Note_on_c, 9, 82, 56
12, 155814, Note_off_c, 9, 82, 0
12, 155831, Note_off_c, 9, 42, 0
12, 155880, Note_on_c, 9, 27, 114
12, 155880, Note_on_c, 9, 35, 122
12, 155880, Note_on_c, 9, 42, 83
12, 155880, Note_on_c, 9, 82, 45
12, 155928, Note_off_c, 9, 42, 0
12, 155938, Note_off_c, 9, 82, 0
12, 155960, Note_off_c, 9, 35, 0
12, 155974, Note_off_c, 9, 27, 0
12, 156000, Note_on_c, 9, 39, 110
12, 156000, Note_on_c, 9, 40, 107
12, 156000, Note_on_c, 9, 42, 71
12, 156000, Note_on_c, 9, 70, 100
12, 156000, Note_on_c, 9, 82, 76
12, 156067, Note_off_c, 9, 82, 0
12, 156070, Note_off_c, 9, 42, 0
12, 156083, Note_off_c, 9, 70, 0
12, 156091, Note_off_c, 9, 40, 0
12, 156098, Note_off_c, 9, 39, 0
12, 156120, Note_on_c, 9, 82, 27
12, 156179, Note_off_c, 9, 82, 0
12, 156240, Note_on_c, 9, 27, 104
12, 156240, Note_on_c, 9, 35, 118
12, 156240, Note_on_c, 9, 42, 105
12, 156240, Note_on_c, 9, 82, 54
12, 156300, Note_off_c, 9, 82, 0
12, 156304, Note_off_c, 9, 35, 0
12, 156309, Note_off_c, 9, 27, 0
12, 156321, Note_off_c, 9, 42, 0
12, 156360, Note_on_c, 9, 82, 45
12, 156419, Note_off_c, 9, 82, 0
12, 156480, Note_on_c, 9, 42, 65
12, 156480, Note_on_c, 9, 70, 103
12, 156480, Note_on_c, 9, 82, 77
12, 156555, Note_off_c, 9, 82, 0
12, 156558, Note_off_c, 9, 42, 0
12, 156558, Note_off_c, 9, 70, 0
12, 156600, Note_on_c, 9, 82, 27
12, 156638, Note_off_c, 9, 82, 0
12, 156720, Note_on_c, 9, 42, 100
12, 156720, Note_on_c, 9, 82, 57
12, 156777, Note_off_c, 9, 82, 0
12, 156788, Note_off_c, 9, 42, 0
12, 156840, Note_on_c, 9, 27, 112
12, 156840, Note_on_c, 9, 35, 119
12, 156840, Note_on_c, 9, 42, 68
12, 156840, Note_on_c, 9, 82, 44
12, 156889, Note_off_c, 9, 42, 0
12, 156898, Note_off_c, 9, 82, 0
12, 156917, Note_off_c, 9, 35, 0
12, 156928, Note_off_c, 9, 27, 0
12, 156960, Note_on_c, 9, 39, 113
12, 156960, Note_on_c, 9, 40, 111
12, 156960, Note_on_c, 9, 42, 88
12, 156960, Note_on_c, 9, 70, 100
12, 156960, Note_on_c, 9, 82, 76
12, 157023, Note_off_c, 9, 42, 0
12, 157028, Note_off_c, 9, 70, 0
12, 157031, Note_off_c, 9, 82, 0
12, 157050, Note_off_c, 9, 40, 0
12, 157051, Note_off_c, 9, 39, 0
12, 157080, Note_on_c, 9, 82, 27
12, 157129, Note_off_c, 9, 82, 0
12, 157200, Note_on_c, 9, 27, 110
12, 157200, Note_on_c, 9, 35, 122
12, 157200, Note_on_c, 9, 42, 103
12, 157200, Note_on_c, 9, 82, 59
12, 157252, Note_off_c, 9, 82, 0
12, 157274, Note_off_c, 9, 35, 0
12, 157284, Note_off_c, 9, 42, 0
12, 157291, Note_off_c, 9, 27, 0
12, 157320, Note_on_c, 9, 82, 46
12, 157359, Note_off_c, 9, 82, 0
12, 157440, Note_on_c, 9, 27, 112
12, 157440, Note_on_c, 9, 35, 117
12, 157440, Note_on_c, 9, 42, 72
12, 157440, Note_on_c, 9, 70, 105
12, 157440, Note_on_c, 9, 82, 76
12, 157494, Note_off_c, 9, 42, 0
12, 157508, Note_off_c, 9, 82, 0
12, 157518, Note_off_c, 9, 70, 0
12, 157525, Note_off_c, 9, 35, 0
12, 157548, Note_off_c, 9, 27, 0
12, 157560, Note_on_c, 9, 82, 30
12, 157624, Note_off_c, 9, 82, 0
12, 157680, Note_on_c, 9, 42, 105
12, 157680, Note_on_c, 9, 82, 56
12, 157734, Note_off_c, 9, 82, 0
12, 157751, Note_off_c, 9, 42, 0
12, 157800, Note_on_c, 9, 27, 114
12, 157800, Note_on_c, 9, 35, 122
12, 157800, Note_on_c, 9, 42, 83
12, 157800, Note_on_c, 9, 82, 45
12, 157848, Note_off_c, 9, 42, 0
12, 157858, Note_off_c, 9, 82, 0
12, 157880, Note_off_c, 9, 35, 0
12, 157894, Note_off_c, 9, 27, 0
12, 157920, Note_on_c, 9, 39, 110
12, 157920, Note_on_c, 9, 40, 107
12, 157920, Note_on_c, 9, 42, 71
12, 157920, Note_on_c, 9, 70, 100
12, 157920, Note_on_c, 9, 82, 76
12, 157987, Note_off_c, 9, 82, 0
12, 157990, Note_off_c, 9, 42, 0
12, 158003, Note_off_c, 9, 70, 0
12, 158011, Note_off_c, 9, 40, 0
12, 158018, Note_off_c, 9, 39, 0
12, 158040, Note_on_c, 9, 82, 27
12, 158099, Note_off_c, 9, 82, 0
12, 158160, Note_on_c, 9, 27, 104
12, 158160, Note_on_c, 9, 35, 118
12, 158160, Note_on_c, 9, 42, 105
12, 158160, Note_on_c, 9, 82, 54
12, 158220, Note_off_c, 9, 82, 0
12, 158224, Note_off_c, 9, 35, 0
12, 158229, Note_off_c, 9, 27, 0
12, 158241, Note_off_c, 9, 42, 0
12, 158280, Note_on_c, 9, 82, 45
12, 158339, Note_off_c, 9, 82, 0
12, 158400, Note_on_c, 9, 42, 65
12, 158400, Note_on_c, 9, 70, 103
12, 158400, Note_on_c, 9, 82, 77
12, 158475, Note_off_c, 9, 82, 0
12, 158478, Note_off_c, 9, 42, 0
12, 158478, Note_off_c, 9, 70, 0
12, 158520, Note_on_c, 9, 82, 27
12, 158558, Note_off_c, 9, 82, 0
12, 158640, Note_on_c, 9, 42, 100
12, 158640, Note_on_c, 9, 82, 57
12, 158697, Note_off_c, 9, 82, 0
12, 158708, Note_off_c, 9, 42, 0
12, 158760, Note_on_c, 9, 27, 112
12, 158760, Note_on_c, 9, 35, 119
12, 158760, Note_on_c, 9, 42, 68
12, 158760, Note_on_c, 9, 82, 44
12, 158809, Note_off_c, 9, 42, 0
12, 158818, Note_off_c, 9, 82, 0
12, 158837, Note_off_c, 9, 35, 0
12, 158848, Note_off_c, 9, 27, 0
12, 158880, Note_on_c, 9, 39, 113
12, 158880, Note_on_c, 9, 40, 111
12, 158880, Note_on_c, 9, 42, 88
12, 158880, Note_on_c, 9, 70, 100
12, 158880, Note_on_c, 9, 82, 76
12, 158943, Note_off_c, 9, 42, 0
12, 158948, Note_off_c, 9, 70, 0
12, 158951, Note_off_c, 9, 82, 0
12, 158970, Note_off_c, 9, 40, 0
12, 158971, Note_off_c, 9, 39, 0
12, 159000, Note_on_c, 9, 82, 27
12, 159049, Note_off_c, 9, 82, 0
12, 159120, Note_on_c, 9, 27, 110
12, 159120, Note_on_c, 9, 35, 122
12, 159120, Note_on_c, 9, 42, 103
12, 159120, Note_on_c, 9, 82, 59
12, 159172, Note_off_c, 9, 82, 0
12, 159194, Note_off_c, 9, 35, 0
12, 159204, Note_off_c, 9, 42, 0
12, 159211, Note_off_c, 9, 27, 0
12, 159240, Note_on_c, 9, 82, 46
12, 159279, Note_off_c, 9, 82, 0
12, 159360, Note_on_c, 9, 27, 112
12, 159360, Note_on_c, 9, 35, 117
12, 159360, Note_on_c, 9, 42, 72
12, 159360, Note_on_c, 9, 70, 105
12, 159360, Note_on_c, 9, 82, 76
12, 159414, Note_off_c, 9, 42, 0
12, 159428, Note_off_c, 9, 82, 0
12, 159438, Note_off_c, 9, 70, 0
12, 159445, Note_off_c, 9, 35, 0
12, 159468, Note_off_c, 9, 27, 0
12, 159480, Note_on_c, 9, 82, 30
12, 159544, Note_off_c, 9, 82, 0
12, 159600, Note_on_c, 9, 42, 105
12, 159600, Note_on_c, 9, 82, 56
12, 159654, Note_off_c, 9, 82, 0
12, 159671, Note_off_c, 9, 42, 0
12, 159720, Note_on_c, 9, 27, 114
12, 159720, Note_on_c, 9, 35, 122
12, 159720, Note_on_c, 9, 42, 83
12, 159720, Note_on_c, 9, 82, 45
12, 159768, Note_off_c, 9, 42, 0
12, 159778, Note_off_c, 9, 82, 0
12, 159800, Note_off_c, 9, 35, 0
12, 159814, Note_off_c, 9, 27, 0
12, 159840, Note_on_c, 9, 39, 110
12, 159840, Note_on_c, 9, 40, 107
12, 159840, Note_on_c, 9, 42, 71
12, 159840, Note_on_c, 9, 70, 100
12, 159840, Note_on_c, 9, 82, 76
12, 159907, Note_off_c, 9, 82, 0
12, 159910, Note_off_c, 9, 42, 0
12, 159923, Note_off_c, 9, 70, 0
12, 159931, Note_off_c, 9, 40, 0
12, 159938, Note_off_c, 9, 39, 0
12, 159960, Note_on_c, 9, 82, 27
12, 160019, Note_off_c, 9, 82, 0
12, 160080, Note_on_c, 9, 27, 104
12, 160080, Note_on_c, 9, 35, 118
12, 160080, Note_on_c, 9, 42, 105
12, 160080, Note_on_c, 9, 82, 54
12, 160140, Note_off_c, 9, 82, 0
12, 160144, Note_off_c, 9, 35, 0
12, 160149, Note_off_c, 9, 27, 0
12, 160161, Note_off_c, 9, 42, 0
12, 160200, Note_on_c, 9, 82, 45
12, 160259, Note_off_c, 9, 82, 0
12, 160320, Note_on_c, 9, 42, 65
12, 160320, Note_on_c, 9, 70, 103
12, 160320, Note_on_c, 9, 82, 77
12, 160395, Note_off_c, 9, 82, 0
12, 160398, Note_off_c, 9, 42, 0
12, 160398, Note_off_c, 9, 70, 0
12, 160440, Note_on_c, 9, 50, 115
12, 160440, Note_on_c, 9, 82, 27
12, 160478, Note_off_c, 9, 82, 0
12, 160497, Note_off_c, 9, 50, 0
12, 160560, Note_on_c, 9, 42, 100
12, 160560, Note_on_c, 9, 50, 119
12, 160560, Note_on_c, 9, 82, 57
12, 160617, Note_off_c, 9, 82, 0
12, 160628, Note_off_c, 9, 42, 0
12, 160643, Note_off_c, 9, 50, 0
12, 160680, Note_on_c, 9, 27, 112
12, 160680, Note_on_c, 9, 35, 119
12, 160680, Note_on_c, 9, 42, 68
12, 160680, Note_on_c, 9, 50, 125
12, 160680, Note_on_c, 9, 82, 44
12, 160729, Note_off_c, 9, 42, 0
12, 160738, Note_off_c, 9, 82, 0
12, 160757, Note_off_c, 9, 35, 0
12, 160758, Note_off_c, 9, 50, 0
12, 160768, Note_off_c, 9, 27, 0
12, 160800, Note_on_c, 9, 39, 113
12, 160800, Note_on_c, 9, 40, 111
12, 160800, Note_on_c, 9, 42, 88
12, 160800, Note_on_c, 9, 70, 100
12, 160800, Note_on_c, 9, 82, 76
12, 160863, Note_off_c, 9, 42, 0
12, 160868, Note_off_c, 9, 70, 0
12, 160871, Note_off_c, 9, 82, 0
12, 160890, Note_off_c, 9, 40, 0
12, 160891, Note_off_c, 9, 39, 0
12, 160920, Note_on_c, 9, 48, 122
12, 160920, Note_on_c, 9, 82, 27
12, 160969, Note_off_c, 9, 82, 0
12, 160982, Note_off_c, 9, 48, 0
12, 161040, Note_on_c, 9, 27, 110
12, 161040, Note_on_c, 9, 35, 122
12, 161040, Note_on_c, 9, 42, 103
12, 161040, Note_on_c, 9, 47, 124
12, 161040, Note_on_c, 9, 82, 59
12, 161092, Note_off_c, 9, 82, 0
12, 161098, Note_off_c, 9, 47, 0
12, 161114, Note_off_c, 9, 35, 0
12, 161124, Note_off_c, 9, 42, 0
12, 161131, Note_off_c, 9, 27, 0
12, 161160, Note_on_c, 9, 47, 124
12, 161160, Note_on_c, 9, 82, 46
12, 161199, Note_off_c, 9, 82, 0
12, 161208, Note_off_c, 9, 47, 0
12, 161280, Note_on_c, 9, 27, 112
12, 161280, Note_on_c, 9, 35, 117
12, 161280, Note_on_c, 9, 42, 72
12, 161280, Note_on_c, 9, 57, 90
12, 161280, Note_on_c, 9, 70, 105
12, 161280, Note_on_c, 9, 82, 76
12, 161334, Note_off_c, 9, 42, 0
12, 161348, Note_off_c, 9, 82, 0
12, 161358, Note_off_c, 9, 70, 0
12, 161364, Note_off_c, 9, 57, 0
12, 161365, Note_off_c, 9, 35, 0
12, 161388, Note_off_c, 9, 27, 0
12, 161400, Note_on_c, 9, 82, 30
12, 161464, Note_off_c, 9, 82, 0
12, 161520, Note_on_c, 9, 42, 105
12, 161520, Note_on_c, 9, 82, 56
12, 161574, Note_off_c, 9, 82, 0
12, 161591, Note_off_c, 9, 42, 0
12, 161640, Note_on_c, 9, 27, 114
12, 161640, Note_on_c, 9, 35, 122
12, 161640, Note_on_c, 9, 42, 83
12, 161640, Note_on_c, 9, 82, 45
12, 161688, Note_off_c, 9, 42, 0
12, 161698, Note_off_c, 9, 82, 0
12, 161720, Note_off_c, 9, 35, 0
12, 161734, Note_off_c, 9, 27, 0
12, 161760, Note_on_c, 9, 39, 110
12, 161760, Note_on_c, 9, 40, 107
12, 161760, Note_on_c, 9, 42, 71
12, 161760, Note_on_c, 9, 70, 100
12, 161760, Note_on_c, 9, 82, 76
12, 161827, Note_off_c, 9, 82, 0
12, 161830, Note_off_c, 9, 42, 0
12, 161843, Note_off_c, 9, 70, 0
12, 161851, Note_off_c, 9, 40, 0
12, 161858, Note_off_c, 9, 39, 0
12, 161880, Note_on_c, 9, 82, 27
12, 161939, Note_off_c, 9, 82, 0
12, 162000, Note_on_c, 9, 27, 104
12, 162000, Note_on_c, 9, 35, 118
12, 162000, Note_on_c, 9, 42, 105
12, 162000, Note_on_c, 9, 82, 54
12, 162060, Note_off_c, 9, 82, 0
12, 162064, Note_off_c, 9, 35, 0
12, 162069, Note_off_c, 9, 27, 0
12, 162081, Note_off_c, 9, 42, 0
12, 162120, Note_on_c, 9, 82, 45
12, 162179, Note_off_c, 9, 82, 0
12, 162240, Note_on_c, 9, 42, 65
12, 162240, Note_on_c, 9, 70, 103
12, 162240, Note_on_c, 9, 82, 77
12, 162315, Note_off_c, 9, 82, 0
12, 162318, Note_off_c, 9, 42, 0
12, 162318, Note_off_c, 9, 70, 0
12, 162360, Note_on_c, 9, 82, 27
12, 162398, Note_off_c, 9, 82, 0
12, 162480, Note_on_c, 9, 42, 100
12, 162480, Note_on_c, 9, 82, 57
12, 162537, Note_off_c, 9, 82, 0
12, 162548, Note_off_c, 9, 42, 0
12, 162600, Note_on_c, 9, 27, 112
12, 162600, Note_on_c, 9, 35, 119
12, 162600, Note_on_c, 9, 42, 68
12, 162600, Note_on_c, 9, 82, 44
12, 162649, Note_off_c, 9, 42, 0
12, 162658, Note_off_c, 9, 82, 0
12, 162677, Note_off_c, 9, 35, 0
12, 162688, Note_off_c, 9, 27, 0
12, 162720, Note_on_c, 9, 39, 113
12, 162720, Note_on_c, 9, 40, 111
12, 162720, Note_on_c, 9, 42, 88
12, 162720, Note_on_c, 9, 70, 100
12, 162720, Note_on_c, 9, 82, 76
12, 162783, Note_off_c, 9, 42, 0
12, 162788, Note_off_c, 9, 70, 0
12, 162791, Note_off_c, 9, 82, 0
12, 162810, Note_off_c, 9, 40, 0
12, 162811, Note_off_c, 9, 39, 0
12, 162840, Note_on_c, 9, 82, 27
12, 162889, Note_off_c, 9, 82, 0
12, 162960, Note_on_c, 9, 27, 110
12, 162960, Note_on_c, 9, 35, 122
12, 162960, Note_on_c, 9, 42, 103
12, 162960, Note_on_c, 9, 82, 59
12, 163012, Note_off_c, 9, 82, 0
12, 163034, Note_off_c, 9, 35, 0
12, 163044, Note_off_c, 9, 42, 0
12, 163051, Note_off_c, 9, 27, 0
12, 163080, Note_on_c, 9, 82, 46
12, 163119, Note_off_c, 9, 82, 0
12, 163200, Note_on_c, 9, 27, 112
12, 163200, Note_on_c, 9, 35, 117
12, 163200, Note_on_c, 9, 42, 72
12, 163200, Note_on_c, 9, 70, 105
12, 163200, Note_on_c, 9, 82, 76
12, 163254, Note_off_c, 9, 42, 0
12, 163268, Note_off_c, 9, 82, 0
12, 163278, Note_off_c, 9, 70, 0
12, 163285, Note_off_c, 9, 35, 0
12, 163308, Note_off_c, 9, 27, 0
12, 163320, Note_on_c, 9, 82, 30
12, 163384, Note_off_c, 9, 82, 0
12, 163440, Note_on_c, 9, 42, 105
12, 163440, Note_on_c, 9, 82, 56
12, 163494, Note_off_c, 9, 82, 0
12, 163511, Note_off_c, 9, 42, 0
12, 163560, Note_on_c, 9, 27, 114
12, 163560, Note_on_c, 9, 35, 122
12, 163560, Note_on_c, 9, 42, 83
12, 163560, Note_on_c, 9, 82, 45
12, 163608, Note_off_c, 9, 42, 0
12, 163618, Note_off_c, 9, 82, 0
12, 163640, Note_off_c, 9, 35, 0
12, 163654, Note_off_c, 9, 27, 0
12, 163680, Note_on_c, 9, 39, 110
12, 163680, Note_on_c, 9, 40, 107
12, 163680, Note_on_c, 9, 42, 71
12, 163680, Note_on_c, 9, 70, 100
12, 163680, Note_on_c, 9, 82, 76
12, 163747, Note_off_c, 9, 82, 0
12, 163750, Note_off_c, 9, 42, 0
12, 163763, Note_off_c, 9, 70, 0
12, 163771, Note_off_c, 9, 40, 0
12, 163778, Note_off_c, 9, 39, 0
12, 163800, Note_on_c, 9, 82, 27
12, 163859, Note_off_c, 9, 82, 0
12, 163920, Note_on_c, 9, 27, 104
12, 163920, Note_on_c, 9, 35, 118
12, 163920, Note_on_c, 9, 42, 105
12, 163920, Note_on_c, 9, 82, 54
12, 163980, Note_off_c, 9, 82, 0
12, 163984, Note_off_c, 9, 35, 0
12, 163989, Note_off_c, 9, 27, 0
12, 164001, Note_off_c, 9, 42, 0
12, 164040, Note_on_c, 9, 82, 45
12, 164099, Note_off_c, 9, 82, 0
12, 164160, Note_on_c, 9, 42, 65
12, 164160, Note_on_c, 9, 70, 103
12, 164160, Note_on_c, 9, 82, 77
12, 164235, Note_off_c, 9, 82, 0
12, 164238, Note_off_c, 9, 42, 0
12, 164238, Note_off_c, 9, 70, 0
12, 164280, Note_on_c, 9, 82, 27
12, 164318, Note_off_c, 9, 82, 0
12, 164400, Note_on_c, 9, 42, 100
12, 164400, Note_on_c, 9, 82, 57
12, 164457, Note_off_c, 9, 82, 0
12, 164468, Note_off_c, 9, 42, 0
12, 164520, Note_on_c, 9, 27, 112
12, 164520, Note_on_c, 9, 35, 119
12, 164520, Note_on_c, 9, 42, 68
12, 164520, Note_on_c, 9, 82, 44
12, 164569, Note_off_c, 9, 42, 0
12, 164578, Note_off_c, 9, 82, 0
12, 164597, Note_off_c, 9, 35, 0
12, 164608, Note_off_c, 9, 27, 0
12, 164640, Note_on_c, 9, 39, 113
12, 164640, Note_on_c, 9, 40, 111
12, 164640, Note_on_c, 9, 42, 88
12, 164640, Note_on_c, 9, 70, 100
12, 164640, Note_on_c, 9, 82, 76
12, 164703, Note_off_c, 9, 42, 0
12, 164708, Note_off_c, 9, 70, 0
12, 164711, Note_off_c, 9, 82, 0
12, 164730, Note_off_c, 9, 40, 0
12, 164731, Note_off_c, 9, 39, 0
12, 164760, Note_on_c, 9, 82, 27
12, 164809, Note_off_c, 9, 82, 0
12, 164880, Note_on_c, 9, 27, 110
12, 164880, Note_on_c, 9, 35, 122
12, 164880, Note_on_c, 9, 42, 103
12, 164880, Note_on_c, 9, 82, 59
12, 164932, Note_off_c, 9, 82, 0
12, 164954, Note_off_c, 9, 35, 0
12, 164964, Note_off_c, 9, 42, 0
12, 164971, Note_off_c, 9, 27, 0
12, 165000, Note_on_c, 9, 82, 46
12, 165039, Note_off_c, 9, 82, 0
12, 165120, Note_on_c, 9, 27, 112
12, 165120, Note_on_c, 9, 35, 117
12, 165120, Note_on_c, 9, 42, 72
12, 165120, Note_on_c, 9, 70, 105
12, 165120, Note_on_c, 9, 82, 76
12, 165174, Note_off_c, 9, 42, 0
12, 165188, Note_off_c, 9, 82, 0
12, 165198, Note_off_c, 9, 70, 0
12, 165205, Note_off_c, 9, 35, 0
12, 165228, Note_off_c, 9, 27, 0
12, 165240, Note_on_c, 9, 82, 30
12, 165304, Note_off_c, 9, 82, 0
12, 165360, Note_on_c, 9, 42, 105
12, 165360, Note_on_c, 9, 82, 56
12, 165414, Note_off_c, 9, 82, 0
12, 165431, Note_off_c, 9, 42, 0
12, 165480, Note_on_c, 9, 27, 114
12, 165480, Note_on_c, 9, 35, 122
12, 165480, Note_on_c, 9, 42, 83
12, 165480, Note_on_c, 9, 82, 45
12, 165528, Note_off_c, 9, 42, 0
12, 165538, Note_off_c, 9, 82, 0
12, 165560, Note_off_c, 9, 35, 0
12, 165574, Note_off_c, 9, 27, 0
12, 165600, Note_on_c, 9, 39, 110
12, 165600, Note_on_c, 9, 40, 107
12, 165600, Note_on_c, 9, 42, 71
12, 165600, Note_on_c, 9, 70, 100
12, 165600, Note_on_c, 9, 82, 76
12, 165667, Note_off_c, 9, 82, 0
12, 165670, Note_off_c, 9, 42, 0
12, 165683, Note_off_c, 9, 70, 0
12, 165691, Note_off_c, 9, 40, 0
12, 165698, Note_off_c, 9, 39, 0
12, 165720, Note_on_c, 9, 82, 27
12, 165779, Note_off_c, 9, 82, 0
12, 165840, Note_on_c, 9, 27, 104
12, 165840, Note_on_c, 9, 35, 118
12, 165840, Note_on_c, 9, 42, 105
12, 165840, Note_on_c, 9, 82, 54
12, 165900, Note_off_c, 9, 82, 0
12, 165904, Note_off_c, 9, 35, 0
12, 165909, Note_off_c, 9, 27, 0
12, 165921, Note_off_c, 9, 42, 0
12, 165960, Note_on_c, 9, 82, 45
12, 166019, Note_off_c, 9, 82, 0
12, 166080, Note_on_c, 9, 42, 65
12, 166080, Note_on_c, 9, 70, 103
12, 166080, Note_on_c, 9, 82, 77
12, 166155, Note_off_c, 9, 82, 0
12, 166158, Note_off_c, 9, 42, 0
12, 166158, Note_off_c, 9, 70, 0
12, 166200, Note_on_c, 9, 50, 125
12, 166200, Note_on_c, 9, 82, 27
12, 166238, Note_off_c, 9, 82, 0
12, 166247, Note_off_c, 9, 50, 0
12, 166320, Note_on_c, 9, 42, 100
12, 166320, Note_on_c, 9, 50, 117
12, 166320, Note_on_c, 9, 82, 57
12, 166377, Note_off_c, 9, 82, 0
12, 166388, Note_off_c, 9, 42, 0
12, 166399, Note_off_c, 9, 50, 0
12, 166440, Note_on_c, 9, 27, 112
12, 166440, Note_on_c, 9, 35, 119
12, 166440, Note_on_c, 9, 42, 68
12, 166440, Note_on_c, 9, 50, 124
12, 166440, Note_on_c, 9, 82, 44
12, 166489, Note_off_c, 9, 42, 0
12, 166498, Note_off_c, 9, 82, 0
12, 166503, Note_off_c, 9, 50, 0
12, 166517, Note_off_c, 9, 35, 0
12, 166528, Note_off_c, 9, 27, 0
12, 166560, Note_on_c, 9, 39, 113
12, 166560, Note_on_c, 9, 40, 111
12, 166560, Note_on_c, 9, 42, 88
12, 166560, Note_on_c, 9, 48, 122
12, 166560, Note_on_c, 9, 70, 100
12, 166560, Note_on_c, 9, 82, 76
12, 166623, Note_off_c, 9, 42, 0
12, 166624, Note_off_c, 9, 48, 0
12, 166628, Note_off_c, 9, 70, 0
12, 166631, Note_off_c, 9, 82, 0
12, 166650, Note_off_c, 9, 40, 0
12, 166651, Note_off_c, 9, 39, 0
12, 166680, Note_on_c, 9, 48, 124
12, 166680, Note_on_c, 9, 82, 27
12, 166729, Note_off_c, 9, 82, 0
12, 166743, Note_off_c, 9, 48, 0
12, 166800, Note_on_c, 9, 27, 110
12, 166800, Note_on_c, 9, 35, 122
12, 166800, Note_on_c, 9, 42, 103
12, 166800, Note_on_c, 9, 47, 125
12, 166800, Note_on_c, 9, 82, 59
12, 166852, Note_off_c, 9, 82, 0
12, 166862, Note_off_c, 9, 47, 0
12, 166874, Note_off_c, 9, 35, 0
12, 166884, Note_off_c, 9, 42, 0
12, 166891, Note_off_c, 9, 27, 0
12, 166920, Note_on_c, 9, 47, 127
12, 166920, Note_on_c, 9, 82, 46
12, 166959, Note_off_c, 9, 82, 0
12, 166978, Note_off_c, 9, 47, 0
12, 167040, Note_on_c, 9, 27, 126
12, 167040, Note_on_c, 9, 35, 124
12, 167040, Note_on_c, 9, 38, 127
12, 167040, Note_on_c, 9, 45, 125
12, 167040, Note_on_c, 9, 55, 92
12, 167135, Note_off_c, 9, 55, 0
12, 167150, Note_off_c, 9, 27, 0
12, 167155, Note_off_c, 9, 35, 0
12, 167173, Note_off_c, 9, 38, 0
12, 167187, Note_off_c, 9, 45, 0
12, 167400, Note_on_c, 9, 27, 127
12, 167400, Note_on_c, 9, 35, 124
12, 167400, Note_on_c, 9, 38, 127
12, 167400, Note_on_c, 9, 45, 127
12, 167400, Note_on_c, 9, 57, 95
12, 167488, Note_off_c, 9, 35, 0
12, 167489, Note_off_c, 9, 57, 0
12, 167507, Note_off_c, 9, 27, 0
12, 167509, Note_off_c, 9, 45, 0
12, 167525, Note_off_c, 9, 38, 0
12, 167760, Note_on_c, 9, 27, 127
12, 167760, Note_on_c, 9, 35, 122
12, 167760, Note_on_c, 9, 38, 126
12, 167760, Note_on_c, 9, 45, 122
12, 167760, Note_on_c, 9, 55, 86
12, 167815, Note_off_c, 9, 45, 0
12, 167824, Note_off_c, 9, 38, 0
12, 167827, Note_off_c, 9, 55, 0
12, 167830, Note_off_c, 9, 27, 0
12, 167837, Note_off_c, 9, 35, 0
12, 168000, Note_on_c, 9, 27, 127
12, 168000, Note_on_c, 9, 35, 122
12, 168000, Note_on_c, 9, 38, 126
12, 168000, Note_on_c, 9, 43, 126
12, 168000, Note_on_c, 9, 52, 94
12, 168069, Note_off_c, 9, 35, 0
12, 168077, Note_off_c, 9, 27, 0
12, 168092, Note_off_c, 9, 52, 0
12, 168097, Note_off_c, 9, 43, 0
12, 168104, Note_off_c, 9, 38, 0
12, 168360, Note_on_c, 9, 27, 127
12, 168360, Note_on_c, 9, 35, 125
12, 168360, Note_on_c, 9, 38, 127
12, 168360, Note_on_c, 9, 41, 124
12, 168360, Note_on_c, 9, 45, 126
12, 168360, Note_on_c, 9, 49, 100
12, 168430, Note_off_c, 9, 35, 0
12, 168438, Note_off_c, 9, 49, 0
12, 168439, Note_off_c, 9, 27, 0
12, 168439, Note_off_c, 9, 45, 0
12, 168454, Note_off_c, 9, 38, 0
12, 168458, Note_off_c, 9, 41, 0
12, 170641, Control_c, 9, 7, 90
12, 170641, End_track
13, 0, Start_track
13, 0, Title_t, "\000"
13, 0, Program_c, 10, 25
13, 0, Control_c, 10, 7, 60
13, 0, Control_c, 10, 10, 74
13, 0, Control_c, 10, 91, 67
13, 0, Control_c, 10, 93, 127
13, 910, Control_c, 10, 11, 127
13, 9520, Note_on_c, 10, 55, 127
13, 9550, Note_on_c, 10, 59, 127
13, 9580, Note_on_c, 10, 62, 127
13, 9610, Note_on_c, 10, 67, 127
13, 9640, Note_on_c, 10, 71, 127
13, 11297, Note_off_c, 10, 55, 0
13, 11326, Note_off_c, 10, 59, 0
13, 11361, Note_off_c, 10, 62, 0
13, 11398, Note_off_c, 10, 71, 0
13, 11440, Note_on_c, 10, 50, 127
13, 11445, Note_off_c, 10, 67, 0
13, 11470, Note_on_c, 10, 57, 124
13, 11500, Note_on_c, 10, 62, 124
13, 11530, Note_on_c, 10, 65, 127
13, 11560, Note_on_c, 10, 69, 124
13, 11590, Note_on_c, 10, 72, 127
13, 13197, Note_off_c, 10, 50, 0
13, 13220, Note_off_c, 10, 57, 0
13, 13255, Note_off_c, 10, 62, 0
13, 13277, Note_off_c, 10, 65, 0
13, 13319, Note_off_c, 10, 69, 0
13, 13326, Note_off_c, 10, 72, 0
13, 13360, Note_on_c, 10, 53, 121
13, 13390, Note_on_c, 10, 57, 120
13, 13420, Note_on_c, 10, 60, 127
13, 13450, Note_on_c, 10, 65, 127
13, 13480, Note_on_c, 10, 69, 126
13, 14199, Note_off_c, 10, 53, 0
13, 14235, Note_off_c, 10, 57, 0
13, 14237, Note_off_c, 10, 60, 0
13, 14286, Note_off_c, 10, 69, 0
13, 14320, Note_on_c, 10, 48, 121
13, 14340, Note_off_c, 10, 65, 0
13, 14350, Note_on_c, 10, 55, 121
13, 14380, Note_on_c, 10, 60, 119
13, 14410, Note_on_c, 10, 64, 124
13, 14440, Note_on_c, 10, 67, 122
13, 15202, Note_off_c, 10, 48, 0
13, 15211, Note_off_c, 10, 60, 0
13, 15226, Note_off_c, 10, 55, 0
13, 15280, Note_on_c, 10, 55, 127
13, 15310, Note_off_c, 10, 67, 0
13, 15310, Note_on_c, 10, 59, 127
13, 15312, Note_off_c, 10, 64, 0
13, 15340, Note_on_c, 10, 62, 127
13, 15370, Note_on_c, 10, 67, 127
13, 17116, Note_off_c, 10, 55, 0
13, 17139, Note_off_c, 10, 59, 0
13, 17154, Note_off_c, 10, 62, 0
13, 17183, Note_off_c, 10, 67, 0
13, 17280, Note_on_c, 10, 57, 127
13, 17280, Note_on_c, 10, 60, 127
13, 17280, Note_on_c, 10, 64, 127
13, 17280, Note_on_c, 10, 69, 127
13, 17396, Note_off_c, 10, 57, 0
13, 17396, Note_off_c, 10, 60, 0
13, 17396, Note_off_c, 10, 64, 0
13, 17396, Note_off_c, 10, 69, 0
13, 17400, Note_on_c, 10, 57, 97
13, 17400, Note_on_c, 10, 60, 97
13, 17400, Note_on_c, 10, 64, 97
13, 17400, Note_on_c, 10, 69, 97
13, 17516, Note_off_c, 10, 57, 0
13, 17516, Note_off_c, 10, 60, 0
13, 17516, Note_off_c, 10, 64, 0
13, 17516, Note_off_c, 10, 69, 0
13, 17520, Note_on_c, 10, 57, 108
13, 17520, Note_on_c, 10, 60, 108
13, 17520, Note_on_c, 10, 64, 108
13, 17520, Note_on_c, 10, 69, 108
13, 17636, Note_off_c, 10, 57, 0
13, 17636, Note_off_c, 10, 60, 0
13, 17636, Note_off_c, 10, 64, 0
13, 17636, Note_off_c, 10, 69, 0
13, 17640, Note_on_c, 10, 57, 127
13, 17640, Note_on_c, 10, 60, 127
13, 17640, Note_on_c, 10, 64, 127
13, 17640, Note_on_c, 10, 69, 127
13, 17756, Note_off_c, 10, 57, 0
13, 17756, Note_off_c, 10, 60, 0
13, 17756, Note_off_c, 10, 64, 0
13, 17756, Note_off_c, 10, 69, 0
13, 17880, Note_on_c, 10, 57, 93
13, 17880, Note_on_c, 10, 60, 93
13, 17880, Note_on_c, 10, 64, 93
13, 17880, Note_on_c, 10, 69, 93
13, 17996, Note_off_c, 10, 57, 0
13, 17996, Note_off_c, 10, 60, 0
13, 17996, Note_off_c, 10, 64, 0
13, 17996, Note_off_c, 10, 69, 0
13, 18000, Note_on_c, 10, 57, 103
13, 18000, Note_on_c, 10, 60, 103
13, 18000, Note_on_c, 10, 64, 103
13, 18000, Note_on_c, 10, 69, 103
13, 18116, Note_off_c, 10, 57, 0
13, 18116, Note_off_c, 10, 60, 0
13, 18116, Note_off_c, 10, 64, 0
13, 18116, Note_off_c, 10, 69, 0
13, 18120, Note_on_c, 10, 57, 118
13, 18120, Note_on_c, 10, 60, 118
13, 18120, Note_on_c, 10, 64, 118
13, 18120, Note_on_c, 10, 69, 118
13, 18236, Note_off_c, 10, 57, 0
13, 18236, Note_off_c, 10, 60, 0
13, 18236, Note_off_c, 10, 64, 0
13, 18236, Note_off_c, 10, 69, 0
13, 18240, Note_on_c, 10, 57, 127
13, 18240, Note_on_c, 10, 60, 127
13, 18240, Note_on_c, 10, 64, 127
13, 18240, Note_on_c, 10, 69, 127
13, 18356, Note_off_c, 10, 57, 0
13, 18356, Note_off_c, 10, 60, 0
13, 18356, Note_off_c, 10, 64, 0
13, 18356, Note_off_c, 10, 69, 0
13, 18360, Note_on_c, 10, 57, 99
13, 18360, Note_on_c, 10, 60, 99
13, 18360, Note_on_c, 10, 64, 99
13, 18360, Note_on_c, 10, 69, 99
13, 18476, Note_off_c, 10, 57, 0
13, 18476, Note_off_c, 10, 60, 0
13, 18476, Note_off_c, 10, 64, 0
13, 18476, Note_off_c, 10, 69, 0
13, 18480, Note_on_c, 10, 57, 113
13, 18480, Note_on_c, 10, 60, 113
13, 18480, Note_on_c, 10, 64, 113
13, 18480, Note_on_c, 10, 69, 113
13, 18596, Note_off_c, 10, 57, 0
13, 18596, Note_off_c, 10, 60, 0
13, 18596, Note_off_c, 10, 64, 0
13, 18596, Note_off_c, 10, 69, 0
13, 18600, Note_on_c, 10, 57, 127
13, 18600, Note_on_c, 10, 60, 127
13, 18600, Note_on_c, 10, 64, 127
13, 18600, Note_on_c, 10, 69, 127
13, 18716, Note_off_c, 10, 57, 0
13, 18716, Note_off_c, 10, 60, 0
13, 18716, Note_off_c, 10, 64, 0
13, 18716, Note_off_c, 10, 69, 0
13, 18840, Note_on_c, 10, 57, 92
13, 18840, Note_on_c, 10, 60, 92
13, 18840, Note_on_c, 10, 64, 92
13, 18840, Note_on_c, 10, 69, 92
13, 18956, Note_off_c, 10, 57, 0
13, 18956, Note_off_c, 10, 60, 0
13, 18956, Note_off_c, 10, 64, 0
13, 18956, Note_off_c, 10, 69, 0
13, 18960, Note_on_c, 10, 57, 101
13, 18960, Note_on_c, 10, 60, 101
13, 18960, Note_on_c, 10, 64, 101
13, 18960, Note_on_c, 10, 69, 101
13, 19076, Note_off_c, 10, 57, 0
13, 19076, Note_off_c, 10, 60, 0
13, 19076, Note_off_c, 10, 64, 0
13, 19076, Note_off_c, 10, 69, 0
13, 19080, Note_on_c, 10, 57, 110
13, 19080, Note_on_c, 10, 60, 110
13, 19080, Note_on_c, 10, 64, 110
13, 19080, Note_on_c, 10, 69, 110
13, 19196, Note_off_c, 10, 57, 0
13, 19196, Note_off_c, 10, 60, 0
13, 19196, Note_off_c, 10, 64, 0
13, 19196, Note_off_c, 10, 69, 0
13, 19200, Note_on_c, 10, 57, 127
13, 19200, Note_on_c, 10, 60, 127
13, 19200, Note_on_c, 10, 64, 127
13, 19200, Note_on_c, 10, 69, 127
13, 19316, Note_off_c, 10, 57, 0
13, 19316, Note_off_c, 10, 60, 0
13, 19316, Note_off_c, 10, 64, 0
13, 19316, Note_off_c, 10, 69, 0
13, 19320, Note_on_c, 10, 57, 97
13, 19320, Note_on_c, 10, 60, 97
13, 19320, Note_on_c, 10, 64, 97
13, 19320, Note_on_c, 10, 69, 97
13, 19436, Note_off_c, 10, 57, 0
13, 19436, Note_off_c, 10, 60, 0
13, 19436, Note_off_c, 10, 64, 0
13, 19436, Note_off_c, 10, 69, 0
13, 19440, Note_on_c, 10, 57, 108
13, 19440, Note_on_c, 10, 60, 108
13, 19440, Note_on_c, 10, 64, 108
13, 19440, Note_on_c, 10, 69, 108
13, 19556, Note_off_c, 10, 57, 0
13, 19556, Note_off_c, 10, 60, 0
13, 19556, Note_off_c, 10, 64, 0
13, 19556, Note_off_c, 10, 69, 0
13, 19560, Note_on_c, 10, 57, 127
13, 19560, Note_on_c, 10, 60, 127
13, 19560, Note_on_c, 10, 64, 127
13, 19560, Note_on_c, 10, 69, 127
13, 19676, Note_off_c, 10, 57, 0
13, 19676, Note_off_c, 10, 60, 0
13, 19676, Note_off_c, 10, 64, 0
13, 19676, Note_off_c, 10, 69, 0
13, 19800, Note_on_c, 10, 57, 93
13, 19800, Note_on_c, 10, 60, 93
13, 19800, Note_on_c, 10, 64, 93
13, 19800, Note_on_c, 10, 69, 93
13, 19916, Note_off_c, 10, 57, 0
13, 19916, Note_off_c, 10, 60, 0
13, 19916, Note_off_c, 10, 64, 0
13, 19916, Note_off_c, 10, 69, 0
13, 19920, Note_on_c, 10, 57, 103
13, 19920, Note_on_c, 10, 60, 103
13, 19920, Note_on_c, 10, 64, 103
13, 19920, Note_on_c, 10, 69, 103
13, 20036, Note_off_c, 10, 57, 0
13, 20036, Note_off_c, 10, 60, 0
13, 20036, Note_off_c, 10, 64, 0
13, 20036, Note_off_c, 10, 69, 0
13, 20040, Note_on_c, 10, 57, 118
13, 20040, Note_on_c, 10, 60, 118
13, 20040, Note_on_c, 10, 64, 118
13, 20040, Note_on_c, 10, 69, 118
13, 20156, Note_off_c, 10, 57, 0
13, 20156, Note_off_c, 10, 60, 0
13, 20156, Note_off_c, 10, 64, 0
13, 20156, Note_off_c, 10, 69, 0
13, 20160, Note_on_c, 10, 57, 127
13, 20160, Note_on_c, 10, 60, 127
13, 20160, Note_on_c, 10, 64, 127
13, 20160, Note_on_c, 10, 69, 127
13, 20276, Note_off_c, 10, 57, 0
13, 20276, Note_off_c, 10, 60, 0
13, 20276, Note_off_c, 10, 64, 0
13, 20276, Note_off_c, 10, 69, 0
13, 20280, Note_on_c, 10, 57, 99
13, 20280, Note_on_c, 10, 60, 99
13, 20280, Note_on_c, 10, 64, 99
13, 20280, Note_on_c, 10, 69, 99
13, 20396, Note_off_c, 10, 57, 0
13, 20396, Note_off_c, 10, 60, 0
13, 20396, Note_off_c, 10, 64, 0
13, 20396, Note_off_c, 10, 69, 0
13, 20400, Note_on_c, 10, 57, 113
13, 20400, Note_on_c, 10, 60, 113
13, 20400, Note_on_c, 10, 64, 113
13, 20400, Note_on_c, 10, 69, 113
13, 20516, Note_off_c, 10, 57, 0
13, 20516, Note_off_c, 10, 60, 0
13, 20516, Note_off_c, 10, 64, 0
13, 20516, Note_off_c, 10, 69, 0
13, 20520, Note_on_c, 10, 57, 127
13, 20520, Note_on_c, 10, 60, 127
13, 20520, Note_on_c, 10, 64, 127
13, 20520, Note_on_c, 10, 69, 127
13, 20636, Note_off_c, 10, 57, 0
13, 20636, Note_off_c, 10, 60, 0
13, 20636, Note_off_c, 10, 64, 0
13, 20636, Note_off_c, 10, 69, 0
13, 20760, Note_on_c, 10, 57, 92
13, 20760, Note_on_c, 10, 60, 92
13, 20760, Note_on_c, 10, 64, 92
13, 20760, Note_on_c, 10, 69, 92
13, 20876, Note_off_c, 10, 57, 0
13, 20876, Note_off_c, 10, 60, 0
13, 20876, Note_off_c, 10, 64, 0
13, 20876, Note_off_c, 10, 69, 0
13, 20880, Note_on_c, 10, 57, 101
13, 20880, Note_on_c, 10, 60, 101
13, 20880, Note_on_c, 10, 64, 101
13, 20880, Note_on_c, 10, 69, 101
13, 20996, Note_off_c, 10, 57, 0
13, 20996, Note_off_c, 10, 60, 0
13, 20996, Note_off_c, 10, 64, 0
13, 20996, Note_off_c, 10, 69, 0
13, 21000, Note_on_c, 10, 57, 110
13, 21000, Note_on_c, 10, 60, 110
13, 21000, Note_on_c, 10, 64, 110
13, 21000, Note_on_c, 10, 69, 110
13, 21116, Note_off_c, 10, 57, 0
13, 21116, Note_off_c, 10, 60, 0
13, 21116, Note_off_c, 10, 64, 0
13, 21116, Note_off_c, 10, 69, 0
13, 21120, Note_on_c, 10, 57, 127
13, 21120, Note_on_c, 10, 60, 127
13, 21120, Note_on_c, 10, 64, 127
13, 21120, Note_on_c, 10, 69, 127
13, 21236, Note_off_c, 10, 57, 0
13, 21236, Note_off_c, 10, 60, 0
13, 21236, Note_off_c, 10, 64, 0
13, 21236, Note_off_c, 10, 69, 0
13, 21240, Note_on_c, 10, 57, 97
13, 21240, Note_on_c, 10, 60, 97
13, 21240, Note_on_c, 10, 64, 97
13, 21240, Note_on_c, 10, 69, 97
13, 21356, Note_off_c, 10, 57, 0
13, 21356, Note_off_c, 10, 60, 0
13, 21356, Note_off_c, 10, 64, 0
13, 21356, Note_off_c, 10, 69, 0
13, 21360, Note_on_c, 10, 57, 108
13, 21360, Note_on_c, 10, 60, 108
13, 21360, Note_on_c, 10, 64, 108
13, 21360, Note_on_c, 10, 69, 108
13, 21476, Note_off_c, 10, 57, 0
13, 21476, Note_off_c, 10, 60, 0
13, 21476, Note_off_c, 10, 64, 0
13, 21476, Note_off_c, 10, 69, 0
13, 21480, Note_on_c, 10, 57, 127
13, 21480, Note_on_c, 10, 60, 127
13, 21480, Note_on_c, 10, 64, 127
13, 21480, Note_on_c, 10, 69, 127
13, 21596, Note_off_c, 10, 57, 0
13, 21596, Note_off_c, 10, 60, 0
13, 21596, Note_off_c, 10, 64, 0
13, 21596, Note_off_c, 10, 69, 0
13, 21720, Note_on_c, 10, 57, 93
13, 21720, Note_on_c, 10, 60, 93
13, 21720, Note_on_c, 10, 64, 93
13, 21720, Note_on_c, 10, 69, 93
13, 21836, Note_off_c, 10, 57, 0
13, 21836, Note_off_c, 10, 60, 0
13, 21836, Note_off_c, 10, 64, 0
13, 21836, Note_off_c, 10, 69, 0
13, 21840, Note_on_c, 10, 57, 103
13, 21840, Note_on_c, 10, 60, 103
13, 21840, Note_on_c, 10, 64, 103
13, 21840, Note_on_c, 10, 69, 103
13, 21956, Note_off_c, 10, 57, 0
13, 21956, Note_off_c, 10, 60, 0
13, 21956, Note_off_c, 10, 64, 0
13, 21956, Note_off_c, 10, 69, 0
13, 21960, Note_on_c, 10, 57, 118
13, 21960, Note_on_c, 10, 60, 118
13, 21960, Note_on_c, 10, 64, 118
13, 21960, Note_on_c, 10, 69, 118
13, 22076, Note_off_c, 10, 57, 0
13, 22076, Note_off_c, 10, 60, 0
13, 22076, Note_off_c, 10, 64, 0
13, 22076, Note_off_c, 10, 69, 0
13, 22080, Note_on_c, 10, 57, 127
13, 22080, Note_on_c, 10, 60, 127
13, 22080, Note_on_c, 10, 64, 127
13, 22080, Note_on_c, 10, 69, 127
13, 22196, Note_off_c, 10, 57, 0
13, 22196, Note_off_c, 10, 60, 0
13, 22196, Note_off_c, 10, 64, 0
13, 22196, Note_off_c, 10, 69, 0
13, 22200, Note_on_c, 10, 57, 99
13, 22200, Note_on_c, 10, 60, 99
13, 22200, Note_on_c, 10, 64, 99
13, 22200, Note_on_c, 10, 69, 99
13, 22316, Note_off_c, 10, 57, 0
13, 22316, Note_off_c, 10, 60, 0
13, 22316, Note_off_c, 10, 64, 0
13, 22316, Note_off_c, 10, 69, 0
13, 22320, Note_on_c, 10, 57, 113
13, 22320, Note_on_c, 10, 60, 113
13, 22320, Note_on_c, 10, 64, 113
13, 22320, Note_on_c, 10, 69, 113
13, 22436, Note_off_c, 10, 57, 0
13, 22436, Note_off_c, 10, 60, 0
13, 22436, Note_off_c, 10, 64, 0
13, 22436, Note_off_c, 10, 69, 0
13, 22440, Note_on_c, 10, 57, 127
13, 22440, Note_on_c, 10, 60, 127
13, 22440, Note_on_c, 10, 64, 127
13, 22440, Note_on_c, 10, 69, 127
13, 22556, Note_off_c, 10, 57, 0
13, 22556, Note_off_c, 10, 60, 0
13, 22556, Note_off_c, 10, 64, 0
13, 22556, Note_off_c, 10, 69, 0
13, 22680, Note_on_c, 10, 57, 92
13, 22680, Note_on_c, 10, 60, 92
13, 22680, Note_on_c, 10, 64, 92
13, 22680, Note_on_c, 10, 69, 92
13, 22796, Note_off_c, 10, 57, 0
13, 22796, Note_off_c, 10, 60, 0
13, 22796, Note_off_c, 10, 64, 0
13, 22796, Note_off_c, 10, 69, 0
13, 22800, Note_on_c, 10, 57, 101
13, 22800, Note_on_c, 10, 60, 101
13, 22800, Note_on_c, 10, 64, 101
13, 22800, Note_on_c, 10, 69, 101
13, 22916, Note_off_c, 10, 57, 0
13, 22916, Note_off_c, 10, 60, 0
13, 22916, Note_off_c, 10, 64, 0
13, 22916, Note_off_c, 10, 69, 0
13, 22920, Note_on_c, 10, 57, 110
13, 22920, Note_on_c, 10, 60, 110
13, 22920, Note_on_c, 10, 64, 110
13, 22920, Note_on_c, 10, 69, 110
13, 23036, Note_off_c, 10, 57, 0
13, 23036, Note_off_c, 10, 60, 0
13, 23036, Note_off_c, 10, 64, 0
13, 23036, Note_off_c, 10, 69, 0
13, 23040, Note_on_c, 10, 55, 127
13, 23040, Note_on_c, 10, 59, 127
13, 23040, Note_on_c, 10, 62, 127
13, 23040, Note_on_c, 10, 67, 127
13, 23156, Note_off_c, 10, 55, 0
13, 23156, Note_off_c, 10, 59, 0
13, 23156, Note_off_c, 10, 62, 0
13, 23156, Note_off_c, 10, 67, 0
13, 23160, Note_on_c, 10, 55, 97
13, 23160, Note_on_c, 10, 59, 97
13, 23160, Note_on_c, 10, 62, 97
13, 23160, Note_on_c, 10, 67, 97
13, 23276, Note_off_c, 10, 55, 0
13, 23276, Note_off_c, 10, 59, 0
13, 23276, Note_off_c, 10, 62, 0
13, 23276, Note_off_c, 10, 67, 0
13, 23280, Note_on_c, 10, 55, 108
13, 23280, Note_on_c, 10, 59, 108
13, 23280, Note_on_c, 10, 62, 108
13, 23280, Note_on_c, 10, 67, 108
13, 23396, Note_off_c, 10, 55, 0
13, 23396, Note_off_c, 10, 59, 0
13, 23396, Note_off_c, 10, 62, 0
13, 23396, Note_off_c, 10, 67, 0
13, 23400, Note_on_c, 10, 55, 127
13, 23400, Note_on_c, 10, 59, 127
13, 23400, Note_on_c, 10, 62, 127
13, 23400, Note_on_c, 10, 67, 127
13, 23516, Note_off_c, 10, 55, 0
13, 23516, Note_off_c, 10, 59, 0
13, 23516, Note_off_c, 10, 62, 0
13, 23516, Note_off_c, 10, 67, 0
13, 23640, Note_on_c, 10, 55, 93
13, 23640, Note_on_c, 10, 59, 93
13, 23640, Note_on_c, 10, 62, 93
13, 23640, Note_on_c, 10, 67, 93
13, 23756, Note_off_c, 10, 55, 0
13, 23756, Note_off_c, 10, 59, 0
13, 23756, Note_off_c, 10, 62, 0
13, 23756, Note_off_c, 10, 67, 0
13, 23760, Note_on_c, 10, 55, 103
13, 23760, Note_on_c, 10, 59, 103
13, 23760, Note_on_c, 10, 62, 103
13, 23760, Note_on_c, 10, 67, 103
13, 23876, Note_off_c, 10, 55, 0
13, 23876, Note_off_c, 10, 59, 0
13, 23876, Note_off_c, 10, 62, 0
13, 23876, Note_off_c, 10, 67, 0
13, 23880, Note_on_c, 10, 55, 118
13, 23880, Note_on_c, 10, 59, 118
13, 23880, Note_on_c, 10, 62, 118
13, 23880, Note_on_c, 10, 67, 118
13, 23996, Note_off_c, 10, 55, 0
13, 23996, Note_off_c, 10, 59, 0
13, 23996, Note_off_c, 10, 62, 0
13, 23996, Note_off_c, 10, 67, 0
13, 24000, Note_on_c, 10, 57, 127
13, 24000, Note_on_c, 10, 60, 127
13, 24000, Note_on_c, 10, 65, 127
13, 24000, Note_on_c, 10, 69, 127
13, 24116, Note_off_c, 10, 57, 0
13, 24116, Note_off_c, 10, 60, 0
13, 24116, Note_off_c, 10, 65, 0
13, 24116, Note_off_c, 10, 69, 0
13, 24120, Note_on_c, 10, 57, 99
13, 24120, Note_on_c, 10, 60, 99
13, 24120, Note_on_c, 10, 65, 99
13, 24120, Note_on_c, 10, 69, 99
13, 24236, Note_off_c, 10, 57, 0
13, 24236, Note_off_c, 10, 60, 0
13, 24236, Note_off_c, 10, 65, 0
13, 24236, Note_off_c, 10, 69, 0
13, 24240, Note_on_c, 10, 57, 113
13, 24240, Note_on_c, 10, 60, 113
13, 24240, Note_on_c, 10, 65, 113
13, 24240, Note_on_c, 10, 69, 113
13, 24356, Note_off_c, 10, 57, 0
13, 24356, Note_off_c, 10, 60, 0
13, 24356, Note_off_c, 10, 65, 0
13, 24356, Note_off_c, 10, 69, 0
13, 24360, Note_on_c, 10, 57, 127
13, 24360, Note_on_c, 10, 60, 127
13, 24360, Note_on_c, 10, 65, 127
13, 24360, Note_on_c, 10, 69, 127
13, 24476, Note_off_c, 10, 57, 0
13, 24476, Note_off_c, 10, 60, 0
13, 24476, Note_off_c, 10, 65, 0
13, 24476, Note_off_c, 10, 69, 0
13, 24600, Note_on_c, 10, 57, 92
13, 24600, Note_on_c, 10, 60, 92
13, 24600, Note_on_c, 10, 65, 92
13, 24600, Note_on_c, 10, 69, 92
13, 24716, Note_off_c, 10, 57, 0
13, 24716, Note_off_c, 10, 60, 0
13, 24716, Note_off_c, 10, 65, 0
13, 24716, Note_off_c, 10, 69, 0
13, 24720, Note_on_c, 10, 57, 101
13, 24720, Note_on_c, 10, 60, 101
13, 24720, Note_on_c, 10, 65, 101
13, 24720, Note_on_c, 10, 69, 101
13, 24836, Note_off_c, 10, 57, 0
13, 24836, Note_off_c, 10, 60, 0
13, 24836, Note_off_c, 10, 65, 0
13, 24836, Note_off_c, 10, 69, 0
13, 24840, Note_on_c, 10, 57, 110
13, 24840, Note_on_c, 10, 60, 110
13, 24840, Note_on_c, 10, 65, 110
13, 24840, Note_on_c, 10, 69, 110
13, 24956, Note_off_c, 10, 57, 0
13, 24956, Note_off_c, 10, 60, 0
13, 24956, Note_off_c, 10, 65, 0
13, 24956, Note_off_c, 10, 69, 0
13, 24960, Note_on_c, 10, 57, 127
13, 24960, Note_on_c, 10, 60, 127
13, 24960, Note_on_c, 10, 65, 127
13, 24960, Note_on_c, 10, 69, 127
13, 25076, Note_off_c, 10, 57, 0
13, 25076, Note_off_c, 10, 60, 0
13, 25076, Note_off_c, 10, 65, 0
13, 25076, Note_off_c, 10, 69, 0
13, 25080, Note_on_c, 10, 57, 99
13, 25080, Note_on_c, 10, 60, 99
13, 25080, Note_on_c, 10, 65, 99
13, 25080, Note_on_c, 10, 69, 99
13, 25196, Note_off_c, 10, 57, 0
13, 25196, Note_off_c, 10, 60, 0
13, 25196, Note_off_c, 10, 65, 0
13, 25196, Note_off_c, 10, 69, 0
13, 25200, Note_on_c, 10, 57, 113
13, 25200, Note_on_c, 10, 60, 113
13, 25200, Note_on_c, 10, 65, 113
13, 25200, Note_on_c, 10, 69, 113
13, 25316, Note_off_c, 10, 57, 0
13, 25316, Note_off_c, 10, 60, 0
13, 25316, Note_off_c, 10, 65, 0
13, 25316, Note_off_c, 10, 69, 0
13, 25320, Note_on_c, 10, 57, 127
13, 25320, Note_on_c, 10, 60, 127
13, 25320, Note_on_c, 10, 65, 127
13, 25320, Note_on_c, 10, 69, 127
13, 25436, Note_off_c, 10, 57, 0
13, 25436, Note_off_c, 10, 60, 0
13, 25436, Note_off_c, 10, 65, 0
13, 25436, Note_off_c, 10, 69, 0
13, 25560, Note_on_c, 10, 57, 92
13, 25560, Note_on_c, 10, 60, 92
13, 25560, Note_on_c, 10, 65, 92
13, 25560, Note_on_c, 10, 69, 92
13, 25676, Note_off_c, 10, 57, 0
13, 25676, Note_off_c, 10, 60, 0
13, 25676, Note_off_c, 10, 65, 0
13, 25676, Note_off_c, 10, 69, 0
13, 25680, Note_on_c, 10, 57, 101
13, 25680, Note_on_c, 10, 60, 101
13, 25680, Note_on_c, 10, 65, 101
13, 25680, Note_on_c, 10, 69, 101
13, 25796, Note_off_c, 10, 57, 0
13, 25796, Note_off_c, 10, 60, 0
13, 25796, Note_off_c, 10, 65, 0
13, 25796, Note_off_c, 10, 69, 0
13, 25800, Note_on_c, 10, 57, 110
13, 25800, Note_on_c, 10, 60, 110
13, 25800, Note_on_c, 10, 65, 110
13, 25800, Note_on_c, 10, 69, 110
13, 25916, Note_off_c, 10, 57, 0
13, 25916, Note_off_c, 10, 60, 0
13, 25916, Note_off_c, 10, 65, 0
13, 25916, Note_off_c, 10, 69, 0
13, 25920, Note_on_c, 10, 57, 127
13, 25920, Note_on_c, 10, 60, 127
13, 25920, Note_on_c, 10, 65, 127
13, 25920, Note_on_c, 10, 69, 127
13, 26036, Note_off_c, 10, 57, 0
13, 26036, Note_off_c, 10, 60, 0
13, 26036, Note_off_c, 10, 65, 0
13, 26036, Note_off_c, 10, 69, 0
13, 26040, Note_on_c, 10, 57, 99
13, 26040, Note_on_c, 10, 60, 99
13, 26040, Note_on_c, 10, 65, 99
13, 26040, Note_on_c, 10, 69, 99
13, 26156, Note_off_c, 10, 57, 0
13, 26156, Note_off_c, 10, 60, 0
13, 26156, Note_off_c, 10, 65, 0
13, 26156, Note_off_c, 10, 69, 0
13, 26160, Note_on_c, 10, 57, 113
13, 26160, Note_on_c, 10, 60, 113
13, 26160, Note_on_c, 10, 65, 113
13, 26160, Note_on_c, 10, 69, 113
13, 26276, Note_off_c, 10, 57, 0
13, 26276, Note_off_c, 10, 60, 0
13, 26276, Note_off_c, 10, 65, 0
13, 26276, Note_off_c, 10, 69, 0
13, 26280, Note_on_c, 10, 57, 127
13, 26280, Note_on_c, 10, 60, 127
13, 26280, Note_on_c, 10, 65, 127
13, 26280, Note_on_c, 10, 69, 127
13, 26396, Note_off_c, 10, 57, 0
13, 26396, Note_off_c, 10, 60, 0
13, 26396, Note_off_c, 10, 65, 0
13, 26396, Note_off_c, 10, 69, 0
13, 26520, Note_on_c, 10, 57, 92
13, 26520, Note_on_c, 10, 60, 92
13, 26520, Note_on_c, 10, 65, 92
13, 26520, Note_on_c, 10, 69, 92
13, 26636, Note_off_c, 10, 57, 0
13, 26636, Note_off_c, 10, 60, 0
13, 26636, Note_off_c, 10, 65, 0
13, 26636, Note_off_c, 10, 69, 0
13, 26640, Note_on_c, 10, 57, 101
13, 26640, Note_on_c, 10, 60, 101
13, 26640, Note_on_c, 10, 65, 101
13, 26640, Note_on_c, 10, 69, 101
13, 26756, Note_off_c, 10, 57, 0
13, 26756, Note_off_c, 10, 60, 0
13, 26756, Note_off_c, 10, 65, 0
13, 26756, Note_off_c, 10, 69, 0
13, 26760, Note_on_c, 10, 57, 110
13, 26760, Note_on_c, 10, 60, 110
13, 26760, Note_on_c, 10, 65, 110
13, 26760, Note_on_c, 10, 69, 110
13, 26876, Note_off_c, 10, 57, 0
13, 26876, Note_off_c, 10, 60, 0
13, 26876, Note_off_c, 10, 65, 0
13, 26876, Note_off_c, 10, 69, 0
13, 26880, Note_on_c, 10, 57, 127
13, 26880, Note_on_c, 10, 60, 127
13, 26880, Note_on_c, 10, 64, 127
13, 26880, Note_on_c, 10, 69, 127
13, 26996, Note_off_c, 10, 57, 0
13, 26996, Note_off_c, 10, 60, 0
13, 26996, Note_off_c, 10, 64, 0
13, 26996, Note_off_c, 10, 69, 0
13, 27000, Note_on_c, 10, 57, 97
13, 27000, Note_on_c, 10, 60, 97
13, 27000, Note_on_c, 10, 64, 97
13, 27000, Note_on_c, 10, 69, 97
13, 27116, Note_off_c, 10, 57, 0
13, 27116, Note_off_c, 10, 60, 0
13, 27116, Note_off_c, 10, 64, 0
13, 27116, Note_off_c, 10, 69, 0
13, 27120, Note_on_c, 10, 57, 108
13, 27120, Note_on_c, 10, 60, 108
13, 27120, Note_on_c, 10, 64, 108
13, 27120, Note_on_c, 10, 69, 108
13, 27236, Note_off_c, 10, 57, 0
13, 27236, Note_off_c, 10, 60, 0
13, 27236, Note_off_c, 10, 64, 0
13, 27236, Note_off_c, 10, 69, 0
13, 27240, Note_on_c, 10, 57, 127
13, 27240, Note_on_c, 10, 60, 127
13, 27240, Note_on_c, 10, 64, 127
13, 27240, Note_on_c, 10, 69, 127
13, 27356, Note_off_c, 10, 57, 0
13, 27356, Note_off_c, 10, 60, 0
13, 27356, Note_off_c, 10, 64, 0
13, 27356, Note_off_c, 10, 69, 0
13, 27480, Note_on_c, 10, 57, 93
13, 27480, Note_on_c, 10, 60, 93
13, 27480, Note_on_c, 10, 64, 93
13, 27480, Note_on_c, 10, 69, 93
13, 27596, Note_off_c, 10, 57, 0
13, 27596, Note_off_c, 10, 60, 0
13, 27596, Note_off_c, 10, 64, 0
13, 27596, Note_off_c, 10, 69, 0
13, 27600, Note_on_c, 10, 57, 103
13, 27600, Note_on_c, 10, 60, 103
13, 27600, Note_on_c, 10, 64, 103
13, 27600, Note_on_c, 10, 69, 103
13, 27716, Note_off_c, 10, 57, 0
13, 27716, Note_off_c, 10, 60, 0
13, 27716, Note_off_c, 10, 64, 0
13, 27716, Note_off_c, 10, 69, 0
13, 27720, Note_on_c, 10, 57, 118
13, 27720, Note_on_c, 10, 60, 118
13, 27720, Note_on_c, 10, 64, 118
13, 27720, Note_on_c, 10, 69, 118
13, 27836, Note_off_c, 10, 57, 0
13, 27836, Note_off_c, 10, 60, 0
13, 27836, Note_off_c, 10, 64, 0
13, 27836, Note_off_c, 10, 69, 0
13, 27840, Note_on_c, 10, 57, 127
13, 27840, Note_on_c, 10, 60, 127
13, 27840, Note_on_c, 10, 64, 127
13, 27840, Note_on_c, 10, 69, 127
13, 27956, Note_off_c, 10, 57, 0
13, 27956, Note_off_c, 10, 60, 0
13, 27956, Note_off_c, 10, 64, 0
13, 27956, Note_off_c, 10, 69, 0
13, 27960, Note_on_c, 10, 57, 99
13, 27960, Note_on_c, 10, 60, 99
13, 27960, Note_on_c, 10, 64, 99
13, 27960, Note_on_c, 10, 69, 99
13, 28076, Note_off_c, 10, 57, 0
13, 28076, Note_off_c, 10, 60, 0
13, 28076, Note_off_c, 10, 64, 0
13, 28076, Note_off_c, 10, 69, 0
13, 28080, Note_on_c, 10, 57, 113
13, 28080, Note_on_c, 10, 60, 113
13, 28080, Note_on_c, 10, 64, 113
13, 28080, Note_on_c, 10, 69, 113
13, 28196, Note_off_c, 10, 57, 0
13, 28196, Note_off_c, 10, 60, 0
13, 28196, Note_off_c, 10, 64, 0
13, 28196, Note_off_c, 10, 69, 0
13, 28200, Note_on_c, 10, 57, 127
13, 28200, Note_on_c, 10, 60, 127
13, 28200, Note_on_c, 10, 64, 127
13, 28200, Note_on_c, 10, 69, 127
13, 28316, Note_off_c, 10, 57, 0
13, 28316, Note_off_c, 10, 60, 0
13, 28316, Note_off_c, 10, 64, 0
13, 28316, Note_off_c, 10, 69, 0
13, 28440, Note_on_c, 10, 57, 92
13, 28440, Note_on_c, 10, 60, 92
13, 28440, Note_on_c, 10, 64, 92
13, 28440, Note_on_c, 10, 69, 92
13, 28556, Note_off_c, 10, 57, 0
13, 28556, Note_off_c, 10, 60, 0
13, 28556, Note_off_c, 10, 64, 0
13, 28556, Note_off_c, 10, 69, 0
13, 28560, Note_on_c, 10, 57, 101
13, 28560, Note_on_c, 10, 60, 101
13, 28560, Note_on_c, 10, 64, 101
13, 28560, Note_on_c, 10, 69, 101
13, 28676, Note_off_c, 10, 57, 0
13, 28676, Note_off_c, 10, 60, 0
13, 28676, Note_off_c, 10, 64, 0
13, 28676, Note_off_c, 10, 69, 0
13, 28680, Note_on_c, 10, 57, 110
13, 28680, Note_on_c, 10, 60, 110
13, 28680, Note_on_c, 10, 64, 110
13, 28680, Note_on_c, 10, 69, 110
13, 28796, Note_off_c, 10, 57, 0
13, 28796, Note_off_c, 10, 60, 0
13, 28796, Note_off_c, 10, 64, 0
13, 28796, Note_off_c, 10, 69, 0
13, 28800, Note_on_c, 10, 57, 127
13, 28800, Note_on_c, 10, 60, 127
13, 28800, Note_on_c, 10, 64, 127
13, 28800, Note_on_c, 10, 69, 127
13, 28916, Note_off_c, 10, 57, 0
13, 28916, Note_off_c, 10, 60, 0
13, 28916, Note_off_c, 10, 64, 0
13, 28916, Note_off_c, 10, 69, 0
13, 28920, Note_on_c, 10, 57, 97
13, 28920, Note_on_c, 10, 60, 97
13, 28920, Note_on_c, 10, 64, 97
13, 28920, Note_on_c, 10, 69, 97
13, 29036, Note_off_c, 10, 57, 0
13, 29036, Note_off_c, 10, 60, 0
13, 29036, Note_off_c, 10, 64, 0
13, 29036, Note_off_c, 10, 69, 0
13, 29040, Note_on_c, 10, 57, 108
13, 29040, Note_on_c, 10, 60, 108
13, 29040, Note_on_c, 10, 64, 108
13, 29040, Note_on_c, 10, 69, 108
13, 29156, Note_off_c, 10, 57, 0
13, 29156, Note_off_c, 10, 60, 0
13, 29156, Note_off_c, 10, 64, 0
13, 29156, Note_off_c, 10, 69, 0
13, 29160, Note_on_c, 10, 57, 127
13, 29160, Note_on_c, 10, 60, 127
13, 29160, Note_on_c, 10, 64, 127
13, 29160, Note_on_c, 10, 69, 127
13, 29276, Note_off_c, 10, 57, 0
13, 29276, Note_off_c, 10, 60, 0
13, 29276, Note_off_c, 10, 64, 0
13, 29276, Note_off_c, 10, 69, 0
13, 29400, Note_on_c, 10, 57, 93
13, 29400, Note_on_c, 10, 60, 93
13, 29400, Note_on_c, 10, 64, 93
13, 29400, Note_on_c, 10, 69, 93
13, 29516, Note_off_c, 10, 57, 0
13, 29516, Note_off_c, 10, 60, 0
13, 29516, Note_off_c, 10, 64, 0
13, 29516, Note_off_c, 10, 69, 0
13, 29520, Note_on_c, 10, 57, 103
13, 29520, Note_on_c, 10, 60, 103
13, 29520, Note_on_c, 10, 64, 103
13, 29520, Note_on_c, 10, 69, 103
13, 29636, Note_off_c, 10, 57, 0
13, 29636, Note_off_c, 10, 60, 0
13, 29636, Note_off_c, 10, 64, 0
13, 29636, Note_off_c, 10, 69, 0
13, 29640, Note_on_c, 10, 57, 118
13, 29640, Note_on_c, 10, 60, 118
13, 29640, Note_on_c, 10, 64, 118
13, 29640, Note_on_c, 10, 69, 118
13, 29756, Note_off_c, 10, 57, 0
13, 29756, Note_off_c, 10, 60, 0
13, 29756, Note_off_c, 10, 64, 0
13, 29756, Note_off_c, 10, 69, 0
13, 29760, Note_on_c, 10, 57, 127
13, 29760, Note_on_c, 10, 60, 127
13, 29760, Note_on_c, 10, 64, 127
13, 29760, Note_on_c, 10, 69, 127
13, 29876, Note_off_c, 10, 57, 0
13, 29876, Note_off_c, 10, 60, 0
13, 29876, Note_off_c, 10, 64, 0
13, 29876, Note_off_c, 10, 69, 0
13, 29880, Note_on_c, 10, 57, 99
13, 29880, Note_on_c, 10, 60, 99
13, 29880, Note_on_c, 10, 64, 99
13, 29880, Note_on_c, 10, 69, 99
13, 29996, Note_off_c, 10, 57, 0
13, 29996, Note_off_c, 10, 60, 0
13, 29996, Note_off_c, 10, 64, 0
13, 29996, Note_off_c, 10, 69, 0
13, 30000, Note_on_c, 10, 57, 113
13, 30000, Note_on_c, 10, 60, 113
13, 30000, Note_on_c, 10, 64, 113
13, 30000, Note_on_c, 10, 69, 113
13, 30116, Note_off_c, 10, 57, 0
13, 30116, Note_off_c, 10, 60, 0
13, 30116, Note_off_c, 10, 64, 0
13, 30116, Note_off_c, 10, 69, 0
13, 30120, Note_on_c, 10, 57, 127
13, 30120, Note_on_c, 10, 60, 127
13, 30120, Note_on_c, 10, 64, 127
13, 30120, Note_on_c, 10, 69, 127
13, 30236, Note_off_c, 10, 57, 0
13, 30236, Note_off_c, 10, 60, 0
13, 30236, Note_off_c, 10, 64, 0
13, 30236, Note_off_c, 10, 69, 0
13, 30360, Note_on_c, 10, 57, 92
13, 30360, Note_on_c, 10, 60, 92
13, 30360, Note_on_c, 10, 64, 92
13, 30360, Note_on_c, 10, 69, 92
13, 30476, Note_off_c, 10, 57, 0
13, 30476, Note_off_c, 10, 60, 0
13, 30476, Note_off_c, 10, 64, 0
13, 30476, Note_off_c, 10, 69, 0
13, 30480, Note_on_c, 10, 57, 101
13, 30480, Note_on_c, 10, 60, 101
13, 30480, Note_on_c, 10, 64, 101
13, 30480, Note_on_c, 10, 69, 101
13, 30596, Note_off_c, 10, 57, 0
13, 30596, Note_off_c, 10, 60, 0
13, 30596, Note_off_c, 10, 64, 0
13, 30596, Note_off_c, 10, 69, 0
13, 30600, Note_on_c, 10, 57, 110
13, 30600, Note_on_c, 10, 60, 110
13, 30600, Note_on_c, 10, 64, 110
13, 30600, Note_on_c, 10, 69, 110
13, 30716, Note_off_c, 10, 57, 0
13, 30716, Note_off_c, 10, 60, 0
13, 30716, Note_off_c, 10, 64, 0
13, 30716, Note_off_c, 10, 69, 0
13, 30720, Note_on_c, 10, 57, 127
13, 30720, Note_on_c, 10, 60, 127
13, 30720, Note_on_c, 10, 64, 127
13, 30720, Note_on_c, 10, 69, 127
13, 30836, Note_off_c, 10, 57, 0
13, 30836, Note_off_c, 10, 60, 0
13, 30836, Note_off_c, 10, 64, 0
13, 30836, Note_off_c, 10, 69, 0
13, 30840, Note_on_c, 10, 57, 97
13, 30840, Note_on_c, 10, 60, 97
13, 30840, Note_on_c, 10, 64, 97
13, 30840, Note_on_c, 10, 69, 97
13, 30956, Note_off_c, 10, 57, 0
13, 30956, Note_off_c, 10, 60, 0
13, 30956, Note_off_c, 10, 64, 0
13, 30956, Note_off_c, 10, 69, 0
13, 30960, Note_on_c, 10, 57, 108
13, 30960, Note_on_c, 10, 60, 108
13, 30960, Note_on_c, 10, 64, 108
13, 30960, Note_on_c, 10, 69, 108
13, 31076, Note_off_c, 10, 57, 0
13, 31076, Note_off_c, 10, 60, 0
13, 31076, Note_off_c, 10, 64, 0
13, 31076, Note_off_c, 10, 69, 0
13, 31080, Note_on_c, 10, 57, 127
13, 31080, Note_on_c, 10, 60, 127
13, 31080, Note_on_c, 10, 64, 127
13, 31080, Note_on_c, 10, 69, 127
13, 31196, Note_off_c, 10, 57, 0
13, 31196, Note_off_c, 10, 60, 0
13, 31196, Note_off_c, 10, 64, 0
13, 31196, Note_off_c, 10, 69, 0
13, 31320, Note_on_c, 10, 57, 93
13, 31320, Note_on_c, 10, 60, 93
13, 31320, Note_on_c, 10, 64, 93
13, 31320, Note_on_c, 10, 69, 93
13, 31436, Note_off_c, 10, 57, 0
13, 31436, Note_off_c, 10, 60, 0
13, 31436, Note_off_c, 10, 64, 0
13, 31436, Note_off_c, 10, 69, 0
13, 31440, Note_on_c, 10, 57, 103
13, 31440, Note_on_c, 10, 60, 103
13, 31440, Note_on_c, 10, 64, 103
13, 31440, Note_on_c, 10, 69, 103
13, 31556, Note_off_c, 10, 57, 0
13, 31556, Note_off_c, 10, 60, 0
13, 31556, Note_off_c, 10, 64, 0
13, 31556, Note_off_c, 10, 69, 0
13, 31560, Note_on_c, 10, 57, 118
13, 31560, Note_on_c, 10, 60, 118
13, 31560, Note_on_c, 10, 64, 118
13, 31560, Note_on_c, 10, 69, 118
13, 31676, Note_off_c, 10, 57, 0
13, 31676, Note_off_c, 10, 60, 0
13, 31676, Note_off_c, 10, 64, 0
13, 31676, Note_off_c, 10, 69, 0
13, 31680, Note_on_c, 10, 57, 127
13, 31680, Note_on_c, 10, 60, 127
13, 31680, Note_on_c, 10, 64, 127
13, 31680, Note_on_c, 10, 69, 127
13, 31796, Note_off_c, 10, 57, 0
13, 31796, Note_off_c, 10, 60, 0
13, 31796, Note_off_c, 10, 64, 0
13, 31796, Note_off_c, 10, 69, 0
13, 31800, Note_on_c, 10, 57, 99
13, 31800, Note_on_c, 10, 60, 99
13, 31800, Note_on_c, 10, 64, 99
13, 31800, Note_on_c, 10, 69, 99
13, 31916, Note_off_c, 10, 57, 0
13, 31916, Note_off_c, 10, 60, 0
13, 31916, Note_off_c, 10, 64, 0
13, 31916, Note_off_c, 10, 69, 0
13, 31920, Note_on_c, 10, 57, 113
13, 31920, Note_on_c, 10, 60, 113
13, 31920, Note_on_c, 10, 64, 113
13, 31920, Note_on_c, 10, 69, 113
13, 32036, Note_off_c, 10, 57, 0
13, 32036, Note_off_c, 10, 60, 0
13, 32036, Note_off_c, 10, 64, 0
13, 32036, Note_off_c, 10, 69, 0
13, 32040, Note_on_c, 10, 57, 127
13, 32040, Note_on_c, 10, 60, 127
13, 32040, Note_on_c, 10, 64, 127
13, 32040, Note_on_c, 10, 69, 127
13, 32156, Note_off_c, 10, 57, 0
13, 32156, Note_off_c, 10, 60, 0
13, 32156, Note_off_c, 10, 64, 0
13, 32156, Note_off_c, 10, 69, 0
13, 32280, Note_on_c, 10, 57, 92
13, 32280, Note_on_c, 10, 60, 92
13, 32280, Note_on_c, 10, 64, 92
13, 32280, Note_on_c, 10, 69, 92
13, 32396, Note_off_c, 10, 57, 0
13, 32396, Note_off_c, 10, 60, 0
13, 32396, Note_off_c, 10, 64, 0
13, 32396, Note_off_c, 10, 69, 0
13, 32400, Note_on_c, 10, 57, 101
13, 32400, Note_on_c, 10, 60, 101
13, 32400, Note_on_c, 10, 64, 101
13, 32400, Note_on_c, 10, 69, 101
13, 32516, Note_off_c, 10, 57, 0
13, 32516, Note_off_c, 10, 60, 0
13, 32516, Note_off_c, 10, 64, 0
13, 32516, Note_off_c, 10, 69, 0
13, 32520, Note_on_c, 10, 57, 110
13, 32520, Note_on_c, 10, 60, 110
13, 32520, Note_on_c, 10, 64, 110
13, 32520, Note_on_c, 10, 69, 110
13, 32636, Note_off_c, 10, 57, 0
13, 32636, Note_off_c, 10, 60, 0
13, 32636, Note_off_c, 10, 64, 0
13, 32636, Note_off_c, 10, 69, 0
13, 32640, Note_on_c, 10, 55, 127
13, 32640, Note_on_c, 10, 59, 127
13, 32640, Note_on_c, 10, 62, 127
13, 32640, Note_on_c, 10, 67, 127
13, 32756, Note_off_c, 10, 55, 0
13, 32756, Note_off_c, 10, 59, 0
13, 32756, Note_off_c, 10, 62, 0
13, 32756, Note_off_c, 10, 67, 0
13, 32760, Note_on_c, 10, 55, 97
13, 32760, Note_on_c, 10, 59, 97
13, 32760, Note_on_c, 10, 62, 97
13, 32760, Note_on_c, 10, 67, 97
13, 32876, Note_off_c, 10, 55, 0
13, 32876, Note_off_c, 10, 59, 0
13, 32876, Note_off_c, 10, 62, 0
13, 32876, Note_off_c, 10, 67, 0
13, 32880, Note_on_c, 10, 55, 108
13, 32880, Note_on_c, 10, 59, 108
13, 32880, Note_on_c, 10, 62, 108
13, 32880, Note_on_c, 10, 67, 108
13, 32996, Note_off_c, 10, 55, 0
13, 32996, Note_off_c, 10, 59, 0
13, 32996, Note_off_c, 10, 62, 0
13, 32996, Note_off_c, 10, 67, 0
13, 33000, Note_on_c, 10, 55, 127
13, 33000, Note_on_c, 10, 59, 127
13, 33000, Note_on_c, 10, 62, 127
13, 33000, Note_on_c, 10, 67, 127
13, 33116, Note_off_c, 10, 55, 0
13, 33116, Note_off_c, 10, 59, 0
13, 33116, Note_off_c, 10, 62, 0
13, 33116, Note_off_c, 10, 67, 0
13, 33240, Note_on_c, 10, 55, 93
13, 33240, Note_on_c, 10, 59, 93
13, 33240, Note_on_c, 10, 62, 93
13, 33240, Note_on_c, 10, 67, 93
13, 33356, Note_off_c, 10, 55, 0
13, 33356, Note_off_c, 10, 59, 0
13, 33356, Note_off_c, 10, 62, 0
13, 33356, Note_off_c, 10, 67, 0
13, 33360, Note_on_c, 10, 55, 103
13, 33360, Note_on_c, 10, 59, 103
13, 33360, Note_on_c, 10, 62, 103
13, 33360, Note_on_c, 10, 67, 103
13, 33476, Note_off_c, 10, 55, 0
13, 33476, Note_off_c, 10, 59, 0
13, 33476, Note_off_c, 10, 62, 0
13, 33476, Note_off_c, 10, 67, 0
13, 33480, Note_on_c, 10, 55, 118
13, 33480, Note_on_c, 10, 59, 118
13, 33480, Note_on_c, 10, 62, 118
13, 33480, Note_on_c, 10, 67, 118
13, 33596, Note_off_c, 10, 55, 0
13, 33596, Note_off_c, 10, 59, 0
13, 33596, Note_off_c, 10, 62, 0
13, 33596, Note_off_c, 10, 67, 0
13, 33600, Note_on_c, 10, 57, 127
13, 33600, Note_on_c, 10, 60, 127
13, 33600, Note_on_c, 10, 65, 127
13, 33600, Note_on_c, 10, 69, 127
13, 33716, Note_off_c, 10, 57, 0
13, 33716, Note_off_c, 10, 60, 0
13, 33716, Note_off_c, 10, 65, 0
13, 33716, Note_off_c, 10, 69, 0
13, 33720, Note_on_c, 10, 57, 99
13, 33720, Note_on_c, 10, 60, 99
13, 33720, Note_on_c, 10, 65, 99
13, 33720, Note_on_c, 10, 69, 99
13, 33836, Note_off_c, 10, 57, 0
13, 33836, Note_off_c, 10, 60, 0
13, 33836, Note_off_c, 10, 65, 0
13, 33836, Note_off_c, 10, 69, 0
13, 33840, Note_on_c, 10, 57, 113
13, 33840, Note_on_c, 10, 60, 113
13, 33840, Note_on_c, 10, 65, 113
13, 33840, Note_on_c, 10, 69, 113
13, 33956, Note_off_c, 10, 57, 0
13, 33956, Note_off_c, 10, 60, 0
13, 33956, Note_off_c, 10, 65, 0
13, 33956, Note_off_c, 10, 69, 0
13, 33960, Note_on_c, 10, 57, 127
13, 33960, Note_on_c, 10, 60, 127
13, 33960, Note_on_c, 10, 65, 127
13, 33960, Note_on_c, 10, 69, 127
13, 34076, Note_off_c, 10, 57, 0
13, 34076, Note_off_c, 10, 60, 0
13, 34076, Note_off_c, 10, 65, 0
13, 34076, Note_off_c, 10, 69, 0
13, 34200, Note_on_c, 10, 57, 92
13, 34200, Note_on_c, 10, 60, 92
13, 34200, Note_on_c, 10, 65, 92
13, 34200, Note_on_c, 10, 69, 92
13, 34316, Note_off_c, 10, 57, 0
13, 34316, Note_off_c, 10, 60, 0
13, 34316, Note_off_c, 10, 65, 0
13, 34316, Note_off_c, 10, 69, 0
13, 34320, Note_on_c, 10, 57, 101
13, 34320, Note_on_c, 10, 60, 101
13, 34320, Note_on_c, 10, 65, 101
13, 34320, Note_on_c, 10, 69, 101
13, 34436, Note_off_c, 10, 57, 0
13, 34436, Note_off_c, 10, 60, 0
13, 34436, Note_off_c, 10, 65, 0
13, 34436, Note_off_c, 10, 69, 0
13, 34440, Note_on_c, 10, 57, 110
13, 34440, Note_on_c, 10, 60, 110
13, 34440, Note_on_c, 10, 65, 110
13, 34440, Note_on_c, 10, 69, 110
13, 34556, Note_off_c, 10, 57, 0
13, 34556, Note_off_c, 10, 60, 0
13, 34556, Note_off_c, 10, 65, 0
13, 34556, Note_off_c, 10, 69, 0
13, 34560, Note_on_c, 10, 57, 127
13, 34560, Note_on_c, 10, 60, 127
13, 34560, Note_on_c, 10, 65, 127
13, 34560, Note_on_c, 10, 69, 127
13, 34676, Note_off_c, 10, 57, 0
13, 34676, Note_off_c, 10, 60, 0
13, 34676, Note_off_c, 10, 65, 0
13, 34676, Note_off_c, 10, 69, 0
13, 34680, Note_on_c, 10, 57, 99
13, 34680, Note_on_c, 10, 60, 99
13, 34680, Note_on_c, 10, 65, 99
13, 34680, Note_on_c, 10, 69, 99
13, 34796, Note_off_c, 10, 57, 0
13, 34796, Note_off_c, 10, 60, 0
13, 34796, Note_off_c, 10, 65, 0
13, 34796, Note_off_c, 10, 69, 0
13, 34800, Note_on_c, 10, 57, 113
13, 34800, Note_on_c, 10, 60, 113
13, 34800, Note_on_c, 10, 65, 113
13, 34800, Note_on_c, 10, 69, 113
13, 34916, Note_off_c, 10, 57, 0
13, 34916, Note_off_c, 10, 60, 0
13, 34916, Note_off_c, 10, 65, 0
13, 34916, Note_off_c, 10, 69, 0
13, 34920, Note_on_c, 10, 57, 127
13, 34920, Note_on_c, 10, 60, 127
13, 34920, Note_on_c, 10, 65, 127
13, 34920, Note_on_c, 10, 69, 127
13, 35036, Note_off_c, 10, 57, 0
13, 35036, Note_off_c, 10, 60, 0
13, 35036, Note_off_c, 10, 65, 0
13, 35036, Note_off_c, 10, 69, 0
13, 35160, Note_on_c, 10, 57, 92
13, 35160, Note_on_c, 10, 60, 92
13, 35160, Note_on_c, 10, 65, 92
13, 35160, Note_on_c, 10, 69, 92
13, 35276, Note_off_c, 10, 57, 0
13, 35276, Note_off_c, 10, 60, 0
13, 35276, Note_off_c, 10, 65, 0
13, 35276, Note_off_c, 10, 69, 0
13, 35280, Note_on_c, 10, 57, 101
13, 35280, Note_on_c, 10, 60, 101
13, 35280, Note_on_c, 10, 65, 101
13, 35280, Note_on_c, 10, 69, 101
13, 35396, Note_off_c, 10, 57, 0
13, 35396, Note_off_c, 10, 60, 0
13, 35396, Note_off_c, 10, 65, 0
13, 35396, Note_off_c, 10, 69, 0
13, 35400, Note_on_c, 10, 57, 110
13, 35400, Note_on_c, 10, 60, 110
13, 35400, Note_on_c, 10, 65, 110
13, 35400, Note_on_c, 10, 69, 110
13, 35516, Note_off_c, 10, 57, 0
13, 35516, Note_off_c, 10, 60, 0
13, 35516, Note_off_c, 10, 65, 0
13, 35516, Note_off_c, 10, 69, 0
13, 35520, Note_on_c, 10, 57, 127
13, 35520, Note_on_c, 10, 60, 127
13, 35520, Note_on_c, 10, 65, 127
13, 35520, Note_on_c, 10, 69, 127
13, 35636, Note_off_c, 10, 57, 0
13, 35636, Note_off_c, 10, 60, 0
13, 35636, Note_off_c, 10, 65, 0
13, 35636, Note_off_c, 10, 69, 0
13, 36480, Note_on_c, 10, 55, 127
13, 36480, Note_on_c, 10, 59, 127
13, 36480, Note_on_c, 10, 62, 127
13, 36480, Note_on_c, 10, 67, 127
13, 36596, Note_off_c, 10, 55, 0
13, 36596, Note_off_c, 10, 59, 0
13, 36596, Note_off_c, 10, 62, 0
13, 36596, Note_off_c, 10, 67, 0
13, 36600, Note_on_c, 10, 55, 97
13, 36600, Note_on_c, 10, 59, 97
13, 36600, Note_on_c, 10, 62, 97
13, 36600, Note_on_c, 10, 67, 97
13, 36716, Note_off_c, 10, 55, 0
13, 36716, Note_off_c, 10, 59, 0
13, 36716, Note_off_c, 10, 62, 0
13, 36716, Note_off_c, 10, 67, 0
13, 36720, Note_on_c, 10, 55, 108
13, 36720, Note_on_c, 10, 59, 108
13, 36720, Note_on_c, 10, 62, 108
13, 36720, Note_on_c, 10, 67, 108
13, 36836, Note_off_c, 10, 55, 0
13, 36836, Note_off_c, 10, 59, 0
13, 36836, Note_off_c, 10, 62, 0
13, 36836, Note_off_c, 10, 67, 0
13, 36840, Note_on_c, 10, 55, 127
13, 36840, Note_on_c, 10, 59, 127
13, 36840, Note_on_c, 10, 62, 127
13, 36840, Note_on_c, 10, 67, 127
13, 36956, Note_off_c, 10, 55, 0
13, 36956, Note_off_c, 10, 59, 0
13, 36956, Note_off_c, 10, 62, 0
13, 36956, Note_off_c, 10, 67, 0
13, 37080, Note_on_c, 10, 55, 93
13, 37080, Note_on_c, 10, 59, 93
13, 37080, Note_on_c, 10, 62, 93
13, 37080, Note_on_c, 10, 67, 93
13, 37196, Note_off_c, 10, 55, 0
13, 37196, Note_off_c, 10, 59, 0
13, 37196, Note_off_c, 10, 62, 0
13, 37196, Note_off_c, 10, 67, 0
13, 37200, Note_on_c, 10, 55, 103
13, 37200, Note_on_c, 10, 59, 103
13, 37200, Note_on_c, 10, 62, 103
13, 37200, Note_on_c, 10, 67, 103
13, 37316, Note_off_c, 10, 55, 0
13, 37316, Note_off_c, 10, 59, 0
13, 37316, Note_off_c, 10, 62, 0
13, 37316, Note_off_c, 10, 67, 0
13, 37320, Note_on_c, 10, 55, 118
13, 37320, Note_on_c, 10, 59, 118
13, 37320, Note_on_c, 10, 62, 118
13, 37320, Note_on_c, 10, 67, 118
13, 37436, Note_off_c, 10, 55, 0
13, 37436, Note_off_c, 10, 59, 0
13, 37436, Note_off_c, 10, 62, 0
13, 37436, Note_off_c, 10, 67, 0
13, 37440, Note_on_c, 10, 55, 127
13, 37440, Note_on_c, 10, 59, 127
13, 37440, Note_on_c, 10, 62, 127
13, 37440, Note_on_c, 10, 67, 127
13, 37556, Note_off_c, 10, 55, 0
13, 37556, Note_off_c, 10, 59, 0
13, 37556, Note_off_c, 10, 62, 0
13, 37556, Note_off_c, 10, 67, 0
13, 37560, Note_on_c, 10, 55, 97
13, 37560, Note_on_c, 10, 59, 97
13, 37560, Note_on_c, 10, 62, 97
13, 37560, Note_on_c, 10, 67, 97
13, 37676, Note_off_c, 10, 55, 0
13, 37676, Note_off_c, 10, 59, 0
13, 37676, Note_off_c, 10, 62, 0
13, 37676, Note_off_c, 10, 67, 0
13, 37680, Note_on_c, 10, 55, 108
13, 37680, Note_on_c, 10, 59, 108
13, 37680, Note_on_c, 10, 62, 108
13, 37680, Note_on_c, 10, 67, 108
13, 37796, Note_off_c, 10, 55, 0
13, 37796, Note_off_c, 10, 59, 0
13, 37796, Note_off_c, 10, 62, 0
13, 37796, Note_off_c, 10, 67, 0
13, 37800, Note_on_c, 10, 55, 127
13, 37800, Note_on_c, 10, 59, 127
13, 37800, Note_on_c, 10, 62, 127
13, 37800, Note_on_c, 10, 67, 127
13, 37916, Note_off_c, 10, 55, 0
13, 37916, Note_off_c, 10, 59, 0
13, 37916, Note_off_c, 10, 62, 0
13, 37916, Note_off_c, 10, 67, 0
13, 38040, Note_on_c, 10, 55, 93
13, 38040, Note_on_c, 10, 59, 93
13, 38040, Note_on_c, 10, 62, 93
13, 38040, Note_on_c, 10, 67, 93
13, 38156, Note_off_c, 10, 55, 0
13, 38156, Note_off_c, 10, 59, 0
13, 38156, Note_off_c, 10, 62, 0
13, 38156, Note_off_c, 10, 67, 0
13, 38160, Note_on_c, 10, 55, 103
13, 38160, Note_on_c, 10, 59, 103
13, 38160, Note_on_c, 10, 62, 103
13, 38160, Note_on_c, 10, 67, 103
13, 38276, Note_off_c, 10, 55, 0
13, 38276, Note_off_c, 10, 59, 0
13, 38276, Note_off_c, 10, 62, 0
13, 38276, Note_off_c, 10, 67, 0
13, 38280, Note_on_c, 10, 55, 118
13, 38280, Note_on_c, 10, 59, 118
13, 38280, Note_on_c, 10, 62, 118
13, 38280, Note_on_c, 10, 67, 118
13, 38396, Note_off_c, 10, 55, 0
13, 38396, Note_off_c, 10, 59, 0
13, 38396, Note_off_c, 10, 62, 0
13, 38396, Note_off_c, 10, 67, 0
13, 38400, Note_on_c, 10, 53, 127
13, 38400, Note_on_c, 10, 57, 127
13, 38400, Note_on_c, 10, 62, 127
13, 38400, Note_on_c, 10, 65, 127
13, 38516, Note_off_c, 10, 53, 0
13, 38516, Note_off_c, 10, 57, 0
13, 38516, Note_off_c, 10, 62, 0
13, 38516, Note_off_c, 10, 65, 0
13, 38520, Note_on_c, 10, 53, 97
13, 38520, Note_on_c, 10, 57, 97
13, 38520, Note_on_c, 10, 62, 97
13, 38520, Note_on_c, 10, 65, 97
13, 38636, Note_off_c, 10, 53, 0
13, 38636, Note_off_c, 10, 57, 0
13, 38636, Note_off_c, 10, 62, 0
13, 38636, Note_off_c, 10, 65, 0
13, 38640, Note_on_c, 10, 53, 108
13, 38640, Note_on_c, 10, 57, 108
13, 38640, Note_on_c, 10, 62, 108
13, 38640, Note_on_c, 10, 65, 108
13, 38756, Note_off_c, 10, 53, 0
13, 38756, Note_off_c, 10, 57, 0
13, 38756, Note_off_c, 10, 62, 0
13, 38756, Note_off_c, 10, 65, 0
13, 38760, Note_on_c, 10, 53, 127
13, 38760, Note_on_c, 10, 57, 127
13, 38760, Note_on_c, 10, 62, 127
13, 38760, Note_on_c, 10, 65, 127
13, 38876, Note_off_c, 10, 53, 0
13, 38876, Note_off_c, 10, 57, 0
13, 38876, Note_off_c, 10, 62, 0
13, 38876, Note_off_c, 10, 65, 0
13, 39000, Note_on_c, 10, 53, 93
13, 39000, Note_on_c, 10, 57, 93
13, 39000, Note_on_c, 10, 62, 93
13, 39000, Note_on_c, 10, 65, 93
13, 39116, Note_off_c, 10, 53, 0
13, 39116, Note_off_c, 10, 57, 0
13, 39116, Note_off_c, 10, 62, 0
13, 39116, Note_off_c, 10, 65, 0
13, 39120, Note_on_c, 10, 53, 103
13, 39120, Note_on_c, 10, 57, 103
13, 39120, Note_on_c, 10, 62, 103
13, 39120, Note_on_c, 10, 65, 103
13, 39236, Note_off_c, 10, 53, 0
13, 39236, Note_off_c, 10, 57, 0
13, 39236, Note_off_c, 10, 62, 0
13, 39236, Note_off_c, 10, 65, 0
13, 39240, Note_on_c, 10, 53, 118
13, 39240, Note_on_c, 10, 57, 118
13, 39240, Note_on_c, 10, 62, 118
13, 39240, Note_on_c, 10, 65, 118
13, 39356, Note_off_c, 10, 53, 0
13, 39356, Note_off_c, 10, 57, 0
13, 39356, Note_off_c, 10, 62, 0
13, 39356, Note_off_c, 10, 65, 0
13, 39360, Note_on_c, 10, 53, 127
13, 39360, Note_on_c, 10, 57, 127
13, 39360, Note_on_c, 10, 62, 127
13, 39360, Note_on_c, 10, 65, 127
13, 39476, Note_off_c, 10, 53, 0
13, 39476, Note_off_c, 10, 57, 0
13, 39476, Note_off_c, 10, 62, 0
13, 39476, Note_off_c, 10, 65, 0
13, 39480, Note_on_c, 10, 53, 97
13, 39480, Note_on_c, 10, 57, 97
13, 39480, Note_on_c, 10, 62, 97
13, 39480, Note_on_c, 10, 65, 97
13, 39596, Note_off_c, 10, 53, 0
13, 39596, Note_off_c, 10, 57, 0
13, 39596, Note_off_c, 10, 62, 0
13, 39596, Note_off_c, 10, 65, 0
13, 39600, Note_on_c, 10, 53, 108
13, 39600, Note_on_c, 10, 57, 108
13, 39600, Note_on_c, 10, 62, 108
13, 39600, Note_on_c, 10, 65, 108
13, 39716, Note_off_c, 10, 53, 0
13, 39716, Note_off_c, 10, 57, 0
13, 39716, Note_off_c, 10, 62, 0
13, 39716, Note_off_c, 10, 65, 0
13, 39720, Note_on_c, 10, 53, 127
13, 39720, Note_on_c, 10, 57, 127
13, 39720, Note_on_c, 10, 62, 127
13, 39720, Note_on_c, 10, 65, 127
13, 39836, Note_off_c, 10, 53, 0
13, 39836, Note_off_c, 10, 57, 0
13, 39836, Note_off_c, 10, 62, 0
13, 39836, Note_off_c, 10, 65, 0
13, 39960, Note_on_c, 10, 53, 93
13, 39960, Note_on_c, 10, 57, 93
13, 39960, Note_on_c, 10, 62, 93
13, 39960, Note_on_c, 10, 65, 93
13, 40076, Note_off_c, 10, 53, 0
13, 40076, Note_off_c, 10, 57, 0
13, 40076, Note_off_c, 10, 62, 0
13, 40076, Note_off_c, 10, 65, 0
13, 40080, Note_on_c, 10, 53, 103
13, 40080, Note_on_c, 10, 57, 103
13, 40080, Note_on_c, 10, 62, 103
13, 40080, Note_on_c, 10, 65, 103
13, 40196, Note_off_c, 10, 53, 0
13, 40196, Note_off_c, 10, 57, 0
13, 40196, Note_off_c, 10, 62, 0
13, 40196, Note_off_c, 10, 65, 0
13, 40200, Note_on_c, 10, 53, 118
13, 40200, Note_on_c, 10, 57, 118
13, 40200, Note_on_c, 10, 62, 118
13, 40200, Note_on_c, 10, 65, 118
13, 40316, Note_off_c, 10, 53, 0
13, 40316, Note_off_c, 10, 57, 0
13, 40316, Note_off_c, 10, 62, 0
13, 40316, Note_off_c, 10, 65, 0
13, 40320, Note_on_c, 10, 53, 127
13, 40320, Note_on_c, 10, 57, 127
13, 40320, Note_on_c, 10, 60, 127
13, 40320, Note_on_c, 10, 65, 127
13, 40436, Note_off_c, 10, 53, 0
13, 40436, Note_off_c, 10, 57, 0
13, 40436, Note_off_c, 10, 60, 0
13, 40436, Note_off_c, 10, 65, 0
13, 40440, Note_on_c, 10, 53, 97
13, 40440, Note_on_c, 10, 57, 97
13, 40440, Note_on_c, 10, 60, 97
13, 40440, Note_on_c, 10, 65, 97
13, 40556, Note_off_c, 10, 53, 0
13, 40556, Note_off_c, 10, 57, 0
13, 40556, Note_off_c, 10, 60, 0
13, 40556, Note_off_c, 10, 65, 0
13, 40560, Note_on_c, 10, 53, 108
13, 40560, Note_on_c, 10, 57, 108
13, 40560, Note_on_c, 10, 60, 108
13, 40560, Note_on_c, 10, 65, 108
13, 40676, Note_off_c, 10, 53, 0
13, 40676, Note_off_c, 10, 57, 0
13, 40676, Note_off_c, 10, 60, 0
13, 40676, Note_off_c, 10, 65, 0
13, 40680, Note_on_c, 10, 53, 127
13, 40680, Note_on_c, 10, 57, 127
13, 40680, Note_on_c, 10, 60, 127
13, 40680, Note_on_c, 10, 65, 127
13, 40796, Note_off_c, 10, 53, 0
13, 40796, Note_off_c, 10, 57, 0
13, 40796, Note_off_c, 10, 60, 0
13, 40796, Note_off_c, 10, 65, 0
13, 40920, Note_on_c, 10, 53, 93
13, 40920, Note_on_c, 10, 57, 93
13, 40920, Note_on_c, 10, 60, 93
13, 40920, Note_on_c, 10, 65, 93
13, 41036, Note_off_c, 10, 53, 0
13, 41036, Note_off_c, 10, 57, 0
13, 41036, Note_off_c, 10, 60, 0
13, 41036, Note_off_c, 10, 65, 0
13, 41040, Note_on_c, 10, 53, 103
13, 41040, Note_on_c, 10, 57, 103
13, 41040, Note_on_c, 10, 60, 103
13, 41040, Note_on_c, 10, 65, 103
13, 41156, Note_off_c, 10, 53, 0
13, 41156, Note_off_c, 10, 57, 0
13, 41156, Note_off_c, 10, 60, 0
13, 41156, Note_off_c, 10, 65, 0
13, 41160, Note_on_c, 10, 53, 118
13, 41160, Note_on_c, 10, 57, 118
13, 41160, Note_on_c, 10, 60, 118
13, 41160, Note_on_c, 10, 65, 118
13, 41276, Note_off_c, 10, 53, 0
13, 41276, Note_off_c, 10, 57, 0
13, 41276, Note_off_c, 10, 60, 0
13, 41276, Note_off_c, 10, 65, 0
13, 41280, Note_on_c, 10, 55, 127
13, 41280, Note_on_c, 10, 60, 127
13, 41280, Note_on_c, 10, 64, 127
13, 41280, Note_on_c, 10, 67, 127
13, 41396, Note_off_c, 10, 55, 0
13, 41396, Note_off_c, 10, 60, 0
13, 41396, Note_off_c, 10, 64, 0
13, 41396, Note_off_c, 10, 67, 0
13, 41400, Note_on_c, 10, 55, 97
13, 41400, Note_on_c, 10, 60, 97
13, 41400, Note_on_c, 10, 64, 97
13, 41400, Note_on_c, 10, 67, 97
13, 41516, Note_off_c, 10, 55, 0
13, 41516, Note_off_c, 10, 60, 0
13, 41516, Note_off_c, 10, 64, 0
13, 41516, Note_off_c, 10, 67, 0
13, 41520, Note_on_c, 10, 55, 108
13, 41520, Note_on_c, 10, 60, 108
13, 41520, Note_on_c, 10, 64, 108
13, 41520, Note_on_c, 10, 67, 108
13, 41636, Note_off_c, 10, 55, 0
13, 41636, Note_off_c, 10, 60, 0
13, 41636, Note_off_c, 10, 64, 0
13, 41636, Note_off_c, 10, 67, 0
13, 41640, Note_on_c, 10, 55, 127
13, 41640, Note_on_c, 10, 60, 127
13, 41640, Note_on_c, 10, 64, 127
13, 41640, Note_on_c, 10, 67, 127
13, 41756, Note_off_c, 10, 55, 0
13, 41756, Note_off_c, 10, 60, 0
13, 41756, Note_off_c, 10, 64, 0
13, 41756, Note_off_c, 10, 67, 0
13, 41880, Note_on_c, 10, 55, 93
13, 41880, Note_on_c, 10, 60, 93
13, 41880, Note_on_c, 10, 64, 93
13, 41880, Note_on_c, 10, 67, 93
13, 41996, Note_off_c, 10, 55, 0
13, 41996, Note_off_c, 10, 60, 0
13, 41996, Note_off_c, 10, 64, 0
13, 41996, Note_off_c, 10, 67, 0
13, 42000, Note_on_c, 10, 55, 103
13, 42000, Note_on_c, 10, 60, 103
13, 42000, Note_on_c, 10, 64, 103
13, 42000, Note_on_c, 10, 67, 103
13, 42116, Note_off_c, 10, 55, 0
13, 42116, Note_off_c, 10, 60, 0
13, 42116, Note_off_c, 10, 64, 0
13, 42116, Note_off_c, 10, 67, 0
13, 42120, Note_on_c, 10, 55, 118
13, 42120, Note_on_c, 10, 60, 118
13, 42120, Note_on_c, 10, 64, 118
13, 42120, Note_on_c, 10, 67, 118
13, 42236, Note_off_c, 10, 55, 0
13, 42236, Note_off_c, 10, 60, 0
13, 42236, Note_off_c, 10, 64, 0
13, 42236, Note_off_c, 10, 67, 0
13, 42240, Note_on_c, 10, 55, 127
13, 42240, Note_on_c, 10, 59, 127
13, 42240, Note_on_c, 10, 62, 127
13, 42240, Note_on_c, 10, 67, 127
13, 42356, Note_off_c, 10, 55, 0
13, 42356, Note_off_c, 10, 59, 0
13, 42356, Note_off_c, 10, 62, 0
13, 42356, Note_off_c, 10, 67, 0
13, 42360, Note_on_c, 10, 55, 97
13, 42360, Note_on_c, 10, 59, 97
13, 42360, Note_on_c, 10, 62, 97
13, 42360, Note_on_c, 10, 67, 97
13, 42476, Note_off_c, 10, 55, 0
13, 42476, Note_off_c, 10, 59, 0
13, 42476, Note_off_c, 10, 62, 0
13, 42476, Note_off_c, 10, 67, 0
13, 42480, Note_on_c, 10, 55, 108
13, 42480, Note_on_c, 10, 59, 108
13, 42480, Note_on_c, 10, 62, 108
13, 42480, Note_on_c, 10, 67, 108
13, 42596, Note_off_c, 10, 55, 0
13, 42596, Note_off_c, 10, 59, 0
13, 42596, Note_off_c, 10, 62, 0
13, 42596, Note_off_c, 10, 67, 0
13, 42600, Note_on_c, 10, 55, 127
13, 42600, Note_on_c, 10, 59, 127
13, 42600, Note_on_c, 10, 62, 127
13, 42600, Note_on_c, 10, 67, 127
13, 42716, Note_off_c, 10, 55, 0
13, 42716, Note_off_c, 10, 59, 0
13, 42716, Note_off_c, 10, 62, 0
13, 42716, Note_off_c, 10, 67, 0
13, 42840, Note_on_c, 10, 55, 93
13, 42840, Note_on_c, 10, 59, 93
13, 42840, Note_on_c, 10, 62, 93
13, 42840, Note_on_c, 10, 67, 93
13, 42956, Note_off_c, 10, 55, 0
13, 42956, Note_off_c, 10, 59, 0
13, 42956, Note_off_c, 10, 62, 0
13, 42956, Note_off_c, 10, 67, 0
13, 42960, Note_on_c, 10, 55, 103
13, 42960, Note_on_c, 10, 59, 103
13, 42960, Note_on_c, 10, 62, 103
13, 42960, Note_on_c, 10, 67, 103
13, 43076, Note_off_c, 10, 55, 0
13, 43076, Note_off_c, 10, 59, 0
13, 43076, Note_off_c, 10, 62, 0
13, 43076, Note_off_c, 10, 67, 0
13, 43080, Note_on_c, 10, 55, 118
13, 43080, Note_on_c, 10, 59, 118
13, 43080, Note_on_c, 10, 62, 118
13, 43080, Note_on_c, 10, 67, 118
13, 43196, Note_off_c, 10, 55, 0
13, 43196, Note_off_c, 10, 59, 0
13, 43196, Note_off_c, 10, 62, 0
13, 43196, Note_off_c, 10, 67, 0
13, 43200, Note_on_c, 10, 55, 127
13, 43200, Note_on_c, 10, 59, 127
13, 43200, Note_on_c, 10, 62, 127
13, 43200, Note_on_c, 10, 67, 127
13, 43316, Note_off_c, 10, 55, 0
13, 43316, Note_off_c, 10, 59, 0
13, 43316, Note_off_c, 10, 62, 0
13, 43316, Note_off_c, 10, 67, 0
13, 43320, Note_on_c, 10, 55, 97
13, 43320, Note_on_c, 10, 59, 97
13, 43320, Note_on_c, 10, 62, 97
13, 43320, Note_on_c, 10, 67, 97
13, 43436, Note_off_c, 10, 55, 0
13, 43436, Note_off_c, 10, 59, 0
13, 43436, Note_off_c, 10, 62, 0
13, 43436, Note_off_c, 10, 67, 0
13, 43440, Note_on_c, 10, 55, 108
13, 43440, Note_on_c, 10, 59, 108
13, 43440, Note_on_c, 10, 62, 108
13, 43440, Note_on_c, 10, 67, 108
13, 43556, Note_off_c, 10, 55, 0
13, 43556, Note_off_c, 10, 59, 0
13, 43556, Note_off_c, 10, 62, 0
13, 43556, Note_off_c, 10, 67, 0
13, 43560, Note_on_c, 10, 55, 127
13, 43560, Note_on_c, 10, 59, 127
13, 43560, Note_on_c, 10, 62, 127
13, 43560, Note_on_c, 10, 67, 127
13, 43676, Note_off_c, 10, 55, 0
13, 43676, Note_off_c, 10, 59, 0
13, 43676, Note_off_c, 10, 62, 0
13, 43676, Note_off_c, 10, 67, 0
13, 43800, Note_on_c, 10, 55, 93
13, 43800, Note_on_c, 10, 59, 93
13, 43800, Note_on_c, 10, 62, 93
13, 43800, Note_on_c, 10, 67, 93
13, 43916, Note_off_c, 10, 55, 0
13, 43916, Note_off_c, 10, 59, 0
13, 43916, Note_off_c, 10, 62, 0
13, 43916, Note_off_c, 10, 67, 0
13, 43920, Note_on_c, 10, 55, 103
13, 43920, Note_on_c, 10, 59, 103
13, 43920, Note_on_c, 10, 62, 103
13, 43920, Note_on_c, 10, 67, 103
13, 44036, Note_off_c, 10, 55, 0
13, 44036, Note_off_c, 10, 59, 0
13, 44036, Note_off_c, 10, 62, 0
13, 44036, Note_off_c, 10, 67, 0
13, 44040, Note_on_c, 10, 55, 118
13, 44040, Note_on_c, 10, 59, 118
13, 44040, Note_on_c, 10, 62, 118
13, 44040, Note_on_c, 10, 67, 118
13, 44156, Note_off_c, 10, 55, 0
13, 44156, Note_off_c, 10, 59, 0
13, 44156, Note_off_c, 10, 62, 0
13, 44156, Note_off_c, 10, 67, 0
13, 44160, Note_on_c, 10, 55, 127
13, 44160, Note_on_c, 10, 59, 127
13, 44160, Note_on_c, 10, 62, 127
13, 44160, Note_on_c, 10, 67, 127
13, 44276, Note_off_c, 10, 55, 0
13, 44276, Note_off_c, 10, 59, 0
13, 44276, Note_off_c, 10, 62, 0
13, 44276, Note_off_c, 10, 67, 0
13, 44280, Note_on_c, 10, 55, 97
13, 44280, Note_on_c, 10, 59, 97
13, 44280, Note_on_c, 10, 62, 97
13, 44280, Note_on_c, 10, 67, 97
13, 44396, Note_off_c, 10, 55, 0
13, 44396, Note_off_c, 10, 59, 0
13, 44396, Note_off_c, 10, 62, 0
13, 44396, Note_off_c, 10, 67, 0
13, 44400, Note_on_c, 10, 55, 108
13, 44400, Note_on_c, 10, 59, 108
13, 44400, Note_on_c, 10, 62, 108
13, 44400, Note_on_c, 10, 67, 108
13, 44516, Note_off_c, 10, 55, 0
13, 44516, Note_off_c, 10, 59, 0
13, 44516, Note_off_c, 10, 62, 0
13, 44516, Note_off_c, 10, 67, 0
13, 44520, Note_on_c, 10, 55, 127
13, 44520, Note_on_c, 10, 59, 127
13, 44520, Note_on_c, 10, 62, 127
13, 44520, Note_on_c, 10, 67, 127
13, 44636, Note_off_c, 10, 55, 0
13, 44636, Note_off_c, 10, 59, 0
13, 44636, Note_off_c, 10, 62, 0
13, 44636, Note_off_c, 10, 67, 0
13, 44760, Note_on_c, 10, 55, 93
13, 44760, Note_on_c, 10, 59, 93
13, 44760, Note_on_c, 10, 62, 93
13, 44760, Note_on_c, 10, 67, 93
13, 44876, Note_off_c, 10, 55, 0
13, 44876, Note_off_c, 10, 59, 0
13, 44876, Note_off_c, 10, 62, 0
13, 44876, Note_off_c, 10, 67, 0
13, 44880, Note_on_c, 10, 55, 103
13, 44880, Note_on_c, 10, 59, 103
13, 44880, Note_on_c, 10, 62, 103
13, 44880, Note_on_c, 10, 67, 103
13, 44996, Note_off_c, 10, 55, 0
13, 44996, Note_off_c, 10, 59, 0
13, 44996, Note_off_c, 10, 62, 0
13, 44996, Note_off_c, 10, 67, 0
13, 45000, Note_on_c, 10, 55, 118
13, 45000, Note_on_c, 10, 59, 118
13, 45000, Note_on_c, 10, 62, 118
13, 45000, Note_on_c, 10, 67, 118
13, 45116, Note_off_c, 10, 55, 0
13, 45116, Note_off_c, 10, 59, 0
13, 45116, Note_off_c, 10, 62, 0
13, 45116, Note_off_c, 10, 67, 0
13, 45120, Note_on_c, 10, 55, 127
13, 45120, Note_on_c, 10, 59, 127
13, 45120, Note_on_c, 10, 62, 127
13, 45120, Note_on_c, 10, 67, 127
13, 45236, Note_off_c, 10, 55, 0
13, 45236, Note_off_c, 10, 59, 0
13, 45236, Note_off_c, 10, 62, 0
13, 45236, Note_off_c, 10, 67, 0
13, 45240, Note_on_c, 10, 55, 97
13, 45240, Note_on_c, 10, 59, 97
13, 45240, Note_on_c, 10, 62, 97
13, 45240, Note_on_c, 10, 67, 97
13, 45356, Note_off_c, 10, 55, 0
13, 45356, Note_off_c, 10, 59, 0
13, 45356, Note_off_c, 10, 62, 0
13, 45356, Note_off_c, 10, 67, 0
13, 45360, Note_on_c, 10, 55, 108
13, 45360, Note_on_c, 10, 59, 108
13, 45360, Note_on_c, 10, 62, 108
13, 45360, Note_on_c, 10, 67, 108
13, 45476, Note_off_c, 10, 55, 0
13, 45476, Note_off_c, 10, 59, 0
13, 45476, Note_off_c, 10, 62, 0
13, 45476, Note_off_c, 10, 67, 0
13, 45480, Note_on_c, 10, 55, 127
13, 45480, Note_on_c, 10, 59, 127
13, 45480, Note_on_c, 10, 62, 127
13, 45480, Note_on_c, 10, 67, 127
13, 45596, Note_off_c, 10, 55, 0
13, 45596, Note_off_c, 10, 59, 0
13, 45596, Note_off_c, 10, 62, 0
13, 45596, Note_off_c, 10, 67, 0
13, 45720, Note_on_c, 10, 55, 93
13, 45720, Note_on_c, 10, 59, 93
13, 45720, Note_on_c, 10, 62, 93
13, 45720, Note_on_c, 10, 67, 93
13, 45836, Note_off_c, 10, 55, 0
13, 45836, Note_off_c, 10, 59, 0
13, 45836, Note_off_c, 10, 62, 0
13, 45836, Note_off_c, 10, 67, 0
13, 45840, Note_on_c, 10, 55, 103
13, 45840, Note_on_c, 10, 59, 103
13, 45840, Note_on_c, 10, 62, 103
13, 45840, Note_on_c, 10, 67, 103
13, 45956, Note_off_c, 10, 55, 0
13, 45956, Note_off_c, 10, 59, 0
13, 45956, Note_off_c, 10, 62, 0
13, 45956, Note_off_c, 10, 67, 0
13, 45960, Note_on_c, 10, 55, 118
13, 45960, Note_on_c, 10, 59, 118
13, 45960, Note_on_c, 10, 62, 118
13, 45960, Note_on_c, 10, 67, 118
13, 46076, Note_off_c, 10, 55, 0
13, 46076, Note_off_c, 10, 59, 0
13, 46076, Note_off_c, 10, 62, 0
13, 46076, Note_off_c, 10, 67, 0
13, 46080, Note_on_c, 10, 53, 127
13, 46080, Note_on_c, 10, 57, 127
13, 46080, Note_on_c, 10, 62, 127
13, 46080, Note_on_c, 10, 65, 127
13, 46196, Note_off_c, 10, 53, 0
13, 46196, Note_off_c, 10, 57, 0
13, 46196, Note_off_c, 10, 62, 0
13, 46196, Note_off_c, 10, 65, 0
13, 46200, Note_on_c, 10, 53, 97
13, 46200, Note_on_c, 10, 57, 97
13, 46200, Note_on_c, 10, 62, 97
13, 46200, Note_on_c, 10, 65, 97
13, 46316, Note_off_c, 10, 53, 0
13, 46316, Note_off_c, 10, 57, 0
13, 46316, Note_off_c, 10, 62, 0
13, 46316, Note_off_c, 10, 65, 0
13, 46320, Note_on_c, 10, 53, 108
13, 46320, Note_on_c, 10, 57, 108
13, 46320, Note_on_c, 10, 62, 108
13, 46320, Note_on_c, 10, 65, 108
13, 46436, Note_off_c, 10, 53, 0
13, 46436, Note_off_c, 10, 57, 0
13, 46436, Note_off_c, 10, 62, 0
13, 46436, Note_off_c, 10, 65, 0
13, 46440, Note_on_c, 10, 53, 127
13, 46440, Note_on_c, 10, 57, 127
13, 46440, Note_on_c, 10, 62, 127
13, 46440, Note_on_c, 10, 65, 127
13, 46556, Note_off_c, 10, 53, 0
13, 46556, Note_off_c, 10, 57, 0
13, 46556, Note_off_c, 10, 62, 0
13, 46556, Note_off_c, 10, 65, 0
13, 46680, Note_on_c, 10, 53, 93
13, 46680, Note_on_c, 10, 57, 93
13, 46680, Note_on_c, 10, 62, 93
13, 46680, Note_on_c, 10, 65, 93
13, 46796, Note_off_c, 10, 53, 0
13, 46796, Note_off_c, 10, 57, 0
13, 46796, Note_off_c, 10, 62, 0
13, 46796, Note_off_c, 10, 65, 0
13, 46800, Note_on_c, 10, 53, 103
13, 46800, Note_on_c, 10, 57, 103
13, 46800, Note_on_c, 10, 62, 103
13, 46800, Note_on_c, 10, 65, 103
13, 46916, Note_off_c, 10, 53, 0
13, 46916, Note_off_c, 10, 57, 0
13, 46916, Note_off_c, 10, 62, 0
13, 46916, Note_off_c, 10, 65, 0
13, 46920, Note_on_c, 10, 53, 118
13, 46920, Note_on_c, 10, 57, 118
13, 46920, Note_on_c, 10, 62, 118
13, 46920, Note_on_c, 10, 65, 118
13, 47036, Note_off_c, 10, 53, 0
13, 47036, Note_off_c, 10, 57, 0
13, 47036, Note_off_c, 10, 62, 0
13, 47036, Note_off_c, 10, 65, 0
13, 47040, Note_on_c, 10, 53, 127
13, 47040, Note_on_c, 10, 57, 127
13, 47040, Note_on_c, 10, 62, 127
13, 47040, Note_on_c, 10, 65, 127
13, 47156, Note_off_c, 10, 53, 0
13, 47156, Note_off_c, 10, 57, 0
13, 47156, Note_off_c, 10, 62, 0
13, 47156, Note_off_c, 10, 65, 0
13, 47160, Note_on_c, 10, 53, 97
13, 47160, Note_on_c, 10, 57, 97
13, 47160, Note_on_c, 10, 62, 97
13, 47160, Note_on_c, 10, 65, 97
13, 47276, Note_off_c, 10, 53, 0
13, 47276, Note_off_c, 10, 57, 0
13, 47276, Note_off_c, 10, 62, 0
13, 47276, Note_off_c, 10, 65, 0
13, 47280, Note_on_c, 10, 53, 108
13, 47280, Note_on_c, 10, 57, 108
13, 47280, Note_on_c, 10, 62, 108
13, 47280, Note_on_c, 10, 65, 108
13, 47396, Note_off_c, 10, 53, 0
13, 47396, Note_off_c, 10, 57, 0
13, 47396, Note_off_c, 10, 62, 0
13, 47396, Note_off_c, 10, 65, 0
13, 47400, Note_on_c, 10, 53, 127
13, 47400, Note_on_c, 10, 57, 127
13, 47400, Note_on_c, 10, 62, 127
13, 47400, Note_on_c, 10, 65, 127
13, 47516, Note_off_c, 10, 53, 0
13, 47516, Note_off_c, 10, 57, 0
13, 47516, Note_off_c, 10, 62, 0
13, 47516, Note_off_c, 10, 65, 0
13, 47640, Note_on_c, 10, 53, 93
13, 47640, Note_on_c, 10, 57, 93
13, 47640, Note_on_c, 10, 62, 93
13, 47640, Note_on_c, 10, 65, 93
13, 47756, Note_off_c, 10, 53, 0
13, 47756, Note_off_c, 10, 57, 0
13, 47756, Note_off_c, 10, 62, 0
13, 47756, Note_off_c, 10, 65, 0
13, 47760, Note_on_c, 10, 53, 103
13, 47760, Note_on_c, 10, 57, 103
13, 47760, Note_on_c, 10, 62, 103
13, 47760, Note_on_c, 10, 65, 103
13, 47876, Note_off_c, 10, 53, 0
13, 47876, Note_off_c, 10, 57, 0
13, 47876, Note_off_c, 10, 62, 0
13, 47876, Note_off_c, 10, 65, 0
13, 47880, Note_on_c, 10, 53, 118
13, 47880, Note_on_c, 10, 57, 118
13, 47880, Note_on_c, 10, 62, 118
13, 47880, Note_on_c, 10, 65, 118
13, 47996, Note_off_c, 10, 53, 0
13, 47996, Note_off_c, 10, 57, 0
13, 47996, Note_off_c, 10, 62, 0
13, 47996, Note_off_c, 10, 65, 0
13, 48000, Note_on_c, 10, 53, 127
13, 48000, Note_on_c, 10, 57, 127
13, 48000, Note_on_c, 10, 60, 127
13, 48000, Note_on_c, 10, 65, 127
13, 48116, Note_off_c, 10, 53, 0
13, 48116, Note_off_c, 10, 57, 0
13, 48116, Note_off_c, 10, 60, 0
13, 48116, Note_off_c, 10, 65, 0
13, 48120, Note_on_c, 10, 53, 97
13, 48120, Note_on_c, 10, 57, 97
13, 48120, Note_on_c, 10, 60, 97
13, 48120, Note_on_c, 10, 65, 97
13, 48236, Note_off_c, 10, 53, 0
13, 48236, Note_off_c, 10, 57, 0
13, 48236, Note_off_c, 10, 60, 0
13, 48236, Note_off_c, 10, 65, 0
13, 48240, Note_on_c, 10, 53, 108
13, 48240, Note_on_c, 10, 57, 108
13, 48240, Note_on_c, 10, 60, 108
13, 48240, Note_on_c, 10, 65, 108
13, 48356, Note_off_c, 10, 53, 0
13, 48356, Note_off_c, 10, 57, 0
13, 48356, Note_off_c, 10, 60, 0
13, 48356, Note_off_c, 10, 65, 0
13, 48360, Note_on_c, 10, 53, 127
13, 48360, Note_on_c, 10, 57, 127
13, 48360, Note_on_c, 10, 60, 127
13, 48360, Note_on_c, 10, 65, 127
13, 48476, Note_off_c, 10, 53, 0
13, 48476, Note_off_c, 10, 57, 0
13, 48476, Note_off_c, 10, 60, 0
13, 48476, Note_off_c, 10, 65, 0
13, 48600, Note_on_c, 10, 53, 93
13, 48600, Note_on_c, 10, 57, 93
13, 48600, Note_on_c, 10, 60, 93
13, 48600, Note_on_c, 10, 65, 93
13, 48716, Note_off_c, 10, 53, 0
13, 48716, Note_off_c, 10, 57, 0
13, 48716, Note_off_c, 10, 60, 0
13, 48716, Note_off_c, 10, 65, 0
13, 48720, Note_on_c, 10, 53, 103
13, 48720, Note_on_c, 10, 57, 103
13, 48720, Note_on_c, 10, 60, 103
13, 48720, Note_on_c, 10, 65, 103
13, 48836, Note_off_c, 10, 53, 0
13, 48836, Note_off_c, 10, 57, 0
13, 48836, Note_off_c, 10, 60, 0
13, 48836, Note_off_c, 10, 65, 0
13, 48840, Note_on_c, 10, 53, 118
13, 48840, Note_on_c, 10, 57, 118
13, 48840, Note_on_c, 10, 60, 118
13, 48840, Note_on_c, 10, 65, 118
13, 48956, Note_off_c, 10, 53, 0
13, 48956, Note_off_c, 10, 57, 0
13, 48956, Note_off_c, 10, 60, 0
13, 48956, Note_off_c, 10, 65, 0
13, 48960, Note_on_c, 10, 55, 127
13, 48960, Note_on_c, 10, 60, 127
13, 48960, Note_on_c, 10, 64, 127
13, 48960, Note_on_c, 10, 67, 127
13, 49076, Note_off_c, 10, 55, 0
13, 49076, Note_off_c, 10, 60, 0
13, 49076, Note_off_c, 10, 64, 0
13, 49076, Note_off_c, 10, 67, 0
13, 49080, Note_on_c, 10, 55, 97
13, 49080, Note_on_c, 10, 60, 97
13, 49080, Note_on_c, 10, 64, 97
13, 49080, Note_on_c, 10, 67, 97
13, 49196, Note_off_c, 10, 55, 0
13, 49196, Note_off_c, 10, 60, 0
13, 49196, Note_off_c, 10, 64, 0
13, 49196, Note_off_c, 10, 67, 0
13, 49200, Note_on_c, 10, 55, 108
13, 49200, Note_on_c, 10, 60, 108
13, 49200, Note_on_c, 10, 64, 108
13, 49200, Note_on_c, 10, 67, 108
13, 49316, Note_off_c, 10, 55, 0
13, 49316, Note_off_c, 10, 60, 0
13, 49316, Note_off_c, 10, 64, 0
13, 49316, Note_off_c, 10, 67, 0
13, 49320, Note_on_c, 10, 55, 127
13, 49320, Note_on_c, 10, 60, 127
13, 49320, Note_on_c, 10, 64, 127
13, 49320, Note_on_c, 10, 67, 127
13, 49436, Note_off_c, 10, 55, 0
13, 49436, Note_off_c, 10, 60, 0
13, 49436, Note_off_c, 10, 64, 0
13, 49436, Note_off_c, 10, 67, 0
13, 49560, Note_on_c, 10, 55, 93
13, 49560, Note_on_c, 10, 60, 93
13, 49560, Note_on_c, 10, 64, 93
13, 49560, Note_on_c, 10, 67, 93
13, 49676, Note_off_c, 10, 55, 0
13, 49676, Note_off_c, 10, 60, 0
13, 49676, Note_off_c, 10, 64, 0
13, 49676, Note_off_c, 10, 67, 0
13, 49680, Note_on_c, 10, 55, 103
13, 49680, Note_on_c, 10, 60, 103
13, 49680, Note_on_c, 10, 64, 103
13, 49680, Note_on_c, 10, 67, 103
13, 49796, Note_off_c, 10, 55, 0
13, 49796, Note_off_c, 10, 60, 0
13, 49796, Note_off_c, 10, 64, 0
13, 49796, Note_off_c, 10, 67, 0
13, 49800, Note_on_c, 10, 55, 118
13, 49800, Note_on_c, 10, 60, 118
13, 49800, Note_on_c, 10, 64, 118
13, 49800, Note_on_c, 10, 67, 118
13, 49916, Note_off_c, 10, 55, 0
13, 49916, Note_off_c, 10, 60, 0
13, 49916, Note_off_c, 10, 64, 0
13, 49916, Note_off_c, 10, 67, 0
13, 49920, Note_on_c, 10, 55, 127
13, 49920, Note_on_c, 10, 59, 127
13, 49920, Note_on_c, 10, 62, 127
13, 49920, Note_on_c, 10, 67, 127
13, 50036, Note_off_c, 10, 55, 0
13, 50036, Note_off_c, 10, 59, 0
13, 50036, Note_off_c, 10, 62, 0
13, 50036, Note_off_c, 10, 67, 0
13, 50040, Note_on_c, 10, 55, 97
13, 50040, Note_on_c, 10, 59, 97
13, 50040, Note_on_c, 10, 62, 97
13, 50040, Note_on_c, 10, 67, 97
13, 50156, Note_off_c, 10, 55, 0
13, 50156, Note_off_c, 10, 59, 0
13, 50156, Note_off_c, 10, 62, 0
13, 50156, Note_off_c, 10, 67, 0
13, 50160, Note_on_c, 10, 55, 108
13, 50160, Note_on_c, 10, 59, 108
13, 50160, Note_on_c, 10, 62, 108
13, 50160, Note_on_c, 10, 67, 108
13, 50276, Note_off_c, 10, 55, 0
13, 50276, Note_off_c, 10, 59, 0
13, 50276, Note_off_c, 10, 62, 0
13, 50276, Note_off_c, 10, 67, 0
13, 50280, Note_on_c, 10, 55, 127
13, 50280, Note_on_c, 10, 59, 127
13, 50280, Note_on_c, 10, 62, 127
13, 50280, Note_on_c, 10, 67, 127
13, 50396, Note_off_c, 10, 55, 0
13, 50396, Note_off_c, 10, 59, 0
13, 50396, Note_off_c, 10, 62, 0
13, 50396, Note_off_c, 10, 67, 0
13, 50520, Note_on_c, 10, 55, 93
13, 50520, Note_on_c, 10, 59, 93
13, 50520, Note_on_c, 10, 62, 93
13, 50520, Note_on_c, 10, 67, 93
13, 50636, Note_off_c, 10, 55, 0
13, 50636, Note_off_c, 10, 59, 0
13, 50636, Note_off_c, 10, 62, 0
13, 50636, Note_off_c, 10, 67, 0
13, 50640, Note_on_c, 10, 55, 103
13, 50640, Note_on_c, 10, 59, 103
13, 50640, Note_on_c, 10, 62, 103
13, 50640, Note_on_c, 10, 67, 103
13, 50756, Note_off_c, 10, 55, 0
13, 50756, Note_off_c, 10, 59, 0
13, 50756, Note_off_c, 10, 62, 0
13, 50756, Note_off_c, 10, 67, 0
13, 50760, Note_on_c, 10, 55, 118
13, 50760, Note_on_c, 10, 59, 118
13, 50760, Note_on_c, 10, 62, 118
13, 50760, Note_on_c, 10, 67, 118
13, 50876, Note_off_c, 10, 55, 0
13, 50876, Note_off_c, 10, 59, 0
13, 50876, Note_off_c, 10, 62, 0
13, 50876, Note_off_c, 10, 67, 0
13, 50880, Note_on_c, 10, 55, 127
13, 50880, Note_on_c, 10, 59, 127
13, 50880, Note_on_c, 10, 62, 127
13, 50880, Note_on_c, 10, 67, 127
13, 50996, Note_off_c, 10, 55, 0
13, 50996, Note_off_c, 10, 59, 0
13, 50996, Note_off_c, 10, 62, 0
13, 50996, Note_off_c, 10, 67, 0
13, 51840, Note_on_c, 10, 57, 127
13, 51840, Note_on_c, 10, 60, 127
13, 51840, Note_on_c, 10, 64, 127
13, 51840, Note_on_c, 10, 69, 127
13, 51956, Note_off_c, 10, 57, 0
13, 51956, Note_off_c, 10, 60, 0
13, 51956, Note_off_c, 10, 64, 0
13, 51956, Note_off_c, 10, 69, 0
13, 51960, Note_on_c, 10, 57, 97
13, 51960, Note_on_c, 10, 60, 97
13, 51960, Note_on_c, 10, 64, 97
13, 51960, Note_on_c, 10, 69, 97
13, 52076, Note_off_c, 10, 57, 0
13, 52076, Note_off_c, 10, 60, 0
13, 52076, Note_off_c, 10, 64, 0
13, 52076, Note_off_c, 10, 69, 0
13, 52080, Note_on_c, 10, 57, 108
13, 52080, Note_on_c, 10, 60, 108
13, 52080, Note_on_c, 10, 64, 108
13, 52080, Note_on_c, 10, 69, 108
13, 52196, Note_off_c, 10, 57, 0
13, 52196, Note_off_c, 10, 60, 0
13, 52196, Note_off_c, 10, 64, 0
13, 52196, Note_off_c, 10, 69, 0
13, 52200, Note_on_c, 10, 57, 127
13, 52200, Note_on_c, 10, 60, 127
13, 52200, Note_on_c, 10, 64, 127
13, 52200, Note_on_c, 10, 69, 127
13, 52316, Note_off_c, 10, 57, 0
13, 52316, Note_off_c, 10, 60, 0
13, 52316, Note_off_c, 10, 64, 0
13, 52316, Note_off_c, 10, 69, 0
13, 52440, Note_on_c, 10, 57, 93
13, 52440, Note_on_c, 10, 60, 93
13, 52440, Note_on_c, 10, 64, 93
13, 52440, Note_on_c, 10, 69, 93
13, 52556, Note_off_c, 10, 57, 0
13, 52556, Note_off_c, 10, 60, 0
13, 52556, Note_off_c, 10, 64, 0
13, 52556, Note_off_c, 10, 69, 0
13, 52560, Note_on_c, 10, 57, 103
13, 52560, Note_on_c, 10, 60, 103
13, 52560, Note_on_c, 10, 64, 103
13, 52560, Note_on_c, 10, 69, 103
13, 52676, Note_off_c, 10, 57, 0
13, 52676, Note_off_c, 10, 60, 0
13, 52676, Note_off_c, 10, 64, 0
13, 52676, Note_off_c, 10, 69, 0
13, 52680, Note_on_c, 10, 57, 118
13, 52680, Note_on_c, 10, 60, 118
13, 52680, Note_on_c, 10, 64, 118
13, 52680, Note_on_c, 10, 69, 118
13, 52796, Note_off_c, 10, 57, 0
13, 52796, Note_off_c, 10, 60, 0
13, 52796, Note_off_c, 10, 64, 0
13, 52796, Note_off_c, 10, 69, 0
13, 52800, Note_on_c, 10, 57, 127
13, 52800, Note_on_c, 10, 60, 127
13, 52800, Note_on_c, 10, 64, 127
13, 52800, Note_on_c, 10, 69, 127
13, 52916, Note_off_c, 10, 57, 0
13, 52916, Note_off_c, 10, 60, 0
13, 52916, Note_off_c, 10, 64, 0
13, 52916, Note_off_c, 10, 69, 0
13, 52920, Note_on_c, 10, 57, 99
13, 52920, Note_on_c, 10, 60, 99
13, 52920, Note_on_c, 10, 64, 99
13, 52920, Note_on_c, 10, 69, 99
13, 53036, Note_off_c, 10, 57, 0
13, 53036, Note_off_c, 10, 60, 0
13, 53036, Note_off_c, 10, 64, 0
13, 53036, Note_off_c, 10, 69, 0
13, 53040, Note_on_c, 10, 57, 113
13, 53040, Note_on_c, 10, 60, 113
13, 53040, Note_on_c, 10, 64, 113
13, 53040, Note_on_c, 10, 69, 113
13, 53156, Note_off_c, 10, 57, 0
13, 53156, Note_off_c, 10, 60, 0
13, 53156, Note_off_c, 10, 64, 0
13, 53156, Note_off_c, 10, 69, 0
13, 53160, Note_on_c, 10, 57, 127
13, 53160, Note_on_c, 10, 60, 127
13, 53160, Note_on_c, 10, 64, 127
13, 53160, Note_on_c, 10, 69, 127
13, 53276, Note_off_c, 10, 57, 0
13, 53276, Note_off_c, 10, 60, 0
13, 53276, Note_off_c, 10, 64, 0
13, 53276, Note_off_c, 10, 69, 0
13, 53400, Note_on_c, 10, 57, 92
13, 53400, Note_on_c, 10, 60, 92
13, 53400, Note_on_c, 10, 64, 92
13, 53400, Note_on_c, 10, 69, 92
13, 53516, Note_off_c, 10, 57, 0
13, 53516, Note_off_c, 10, 60, 0
13, 53516, Note_off_c, 10, 64, 0
13, 53516, Note_off_c, 10, 69, 0
13, 53520, Note_on_c, 10, 57, 101
13, 53520, Note_on_c, 10, 60, 101
13, 53520, Note_on_c, 10, 64, 101
13, 53520, Note_on_c, 10, 69, 101
13, 53636, Note_off_c, 10, 57, 0
13, 53636, Note_off_c, 10, 60, 0
13, 53636, Note_off_c, 10, 64, 0
13, 53636, Note_off_c, 10, 69, 0
13, 53640, Note_on_c, 10, 57, 110
13, 53640, Note_on_c, 10, 60, 110
13, 53640, Note_on_c, 10, 64, 110
13, 53640, Note_on_c, 10, 69, 110
13, 53756, Note_off_c, 10, 57, 0
13, 53756, Note_off_c, 10, 60, 0
13, 53756, Note_off_c, 10, 64, 0
13, 53756, Note_off_c, 10, 69, 0
13, 53760, Note_on_c, 10, 57, 127
13, 53760, Note_on_c, 10, 60, 127
13, 53760, Note_on_c, 10, 64, 127
13, 53760, Note_on_c, 10, 69, 127
13, 53876, Note_off_c, 10, 57, 0
13, 53876, Note_off_c, 10, 60, 0
13, 53876, Note_off_c, 10, 64, 0
13, 53876, Note_off_c, 10, 69, 0
13, 53880, Note_on_c, 10, 57, 97
13, 53880, Note_on_c, 10, 60, 97
13, 53880, Note_on_c, 10, 64, 97
13, 53880, Note_on_c, 10, 69, 97
13, 53996, Note_off_c, 10, 57, 0
13, 53996, Note_off_c, 10, 60, 0
13, 53996, Note_off_c, 10, 64, 0
13, 53996, Note_off_c, 10, 69, 0
13, 54000, Note_on_c, 10, 57, 108
13, 54000, Note_on_c, 10, 60, 108
13, 54000, Note_on_c, 10, 64, 108
13, 54000, Note_on_c, 10, 69, 108
13, 54116, Note_off_c, 10, 57, 0
13, 54116, Note_off_c, 10, 60, 0
13, 54116, Note_off_c, 10, 64, 0
13, 54116, Note_off_c, 10, 69, 0
13, 54120, Note_on_c, 10, 57, 127
13, 54120, Note_on_c, 10, 60, 127
13, 54120, Note_on_c, 10, 64, 127
13, 54120, Note_on_c, 10, 69, 127
13, 54236, Note_off_c, 10, 57, 0
13, 54236, Note_off_c, 10, 60, 0
13, 54236, Note_off_c, 10, 64, 0
13, 54236, Note_off_c, 10, 69, 0
13, 54360, Note_on_c, 10, 57, 93
13, 54360, Note_on_c, 10, 60, 93
13, 54360, Note_on_c, 10, 64, 93
13, 54360, Note_on_c, 10, 69, 93
13, 54476, Note_off_c, 10, 57, 0
13, 54476, Note_off_c, 10, 60, 0
13, 54476, Note_off_c, 10, 64, 0
13, 54476, Note_off_c, 10, 69, 0
13, 54480, Note_on_c, 10, 57, 103
13, 54480, Note_on_c, 10, 60, 103
13, 54480, Note_on_c, 10, 64, 103
13, 54480, Note_on_c, 10, 69, 103
13, 54596, Note_off_c, 10, 57, 0
13, 54596, Note_off_c, 10, 60, 0
13, 54596, Note_off_c, 10, 64, 0
13, 54596, Note_off_c, 10, 69, 0
13, 54600, Note_on_c, 10, 57, 118
13, 54600, Note_on_c, 10, 60, 118
13, 54600, Note_on_c, 10, 64, 118
13, 54600, Note_on_c, 10, 69, 118
13, 54716, Note_off_c, 10, 57, 0
13, 54716, Note_off_c, 10, 60, 0
13, 54716, Note_off_c, 10, 64, 0
13, 54716, Note_off_c, 10, 69, 0
13, 54720, Note_on_c, 10, 57, 127
13, 54720, Note_on_c, 10, 60, 127
13, 54720, Note_on_c, 10, 64, 127
13, 54720, Note_on_c, 10, 69, 127
13, 54836, Note_off_c, 10, 57, 0
13, 54836, Note_off_c, 10, 60, 0
13, 54836, Note_off_c, 10, 64, 0
13, 54836, Note_off_c, 10, 69, 0
13, 54840, Note_on_c, 10, 57, 99
13, 54840, Note_on_c, 10, 60, 99
13, 54840, Note_on_c, 10, 64, 99
13, 54840, Note_on_c, 10, 69, 99
13, 54956, Note_off_c, 10, 57, 0
13, 54956, Note_off_c, 10, 60, 0
13, 54956, Note_off_c, 10, 64, 0
13, 54956, Note_off_c, 10, 69, 0
13, 54960, Note_on_c, 10, 57, 113
13, 54960, Note_on_c, 10, 60, 113
13, 54960, Note_on_c, 10, 64, 113
13, 54960, Note_on_c, 10, 69, 113
13, 55076, Note_off_c, 10, 57, 0
13, 55076, Note_off_c, 10, 60, 0
13, 55076, Note_off_c, 10, 64, 0
13, 55076, Note_off_c, 10, 69, 0
13, 55080, Note_on_c, 10, 57, 127
13, 55080, Note_on_c, 10, 60, 127
13, 55080, Note_on_c, 10, 64, 127
13, 55080, Note_on_c, 10, 69, 127
13, 55196, Note_off_c, 10, 57, 0
13, 55196, Note_off_c, 10, 60, 0
13, 55196, Note_off_c, 10, 64, 0
13, 55196, Note_off_c, 10, 69, 0
13, 55320, Note_on_c, 10, 57, 92
13, 55320, Note_on_c, 10, 60, 92
13, 55320, Note_on_c, 10, 64, 92
13, 55320, Note_on_c, 10, 69, 92
13, 55436, Note_off_c, 10, 57, 0
13, 55436, Note_off_c, 10, 60, 0
13, 55436, Note_off_c, 10, 64, 0
13, 55436, Note_off_c, 10, 69, 0
13, 55440, Note_on_c, 10, 57, 101
13, 55440, Note_on_c, 10, 60, 101
13, 55440, Note_on_c, 10, 64, 101
13, 55440, Note_on_c, 10, 69, 101
13, 55556, Note_off_c, 10, 57, 0
13, 55556, Note_off_c, 10, 60, 0
13, 55556, Note_off_c, 10, 64, 0
13, 55556, Note_off_c, 10, 69, 0
13, 55560, Note_on_c, 10, 57, 110
13, 55560, Note_on_c, 10, 60, 110
13, 55560, Note_on_c, 10, 64, 110
13, 55560, Note_on_c, 10, 69, 110
13, 55676, Note_off_c, 10, 57, 0
13, 55676, Note_off_c, 10, 60, 0
13, 55676, Note_off_c, 10, 64, 0
13, 55676, Note_off_c, 10, 69, 0
13, 55680, Note_on_c, 10, 57, 127
13, 55680, Note_on_c, 10, 60, 127
13, 55680, Note_on_c, 10, 64, 127
13, 55680, Note_on_c, 10, 69, 127
13, 55796, Note_off_c, 10, 57, 0
13, 55796, Note_off_c, 10, 60, 0
13, 55796, Note_off_c, 10, 64, 0
13, 55796, Note_off_c, 10, 69, 0
13, 55800, Note_on_c, 10, 57, 97
13, 55800, Note_on_c, 10, 60, 97
13, 55800, Note_on_c, 10, 64, 97
13, 55800, Note_on_c, 10, 69, 97
13, 55916, Note_off_c, 10, 57, 0
13, 55916, Note_off_c, 10, 60, 0
13, 55916, Note_off_c, 10, 64, 0
13, 55916, Note_off_c, 10, 69, 0
13, 55920, Note_on_c, 10, 57, 108
13, 55920, Note_on_c, 10, 60, 108
13, 55920, Note_on_c, 10, 64, 108
13, 55920, Note_on_c, 10, 69, 108
13, 56036, Note_off_c, 10, 57, 0
13, 56036, Note_off_c, 10, 60, 0
13, 56036, Note_off_c, 10, 64, 0
13, 56036, Note_off_c, 10, 69, 0
13, 56040, Note_on_c, 10, 57, 127
13, 56040, Note_on_c, 10, 60, 127
13, 56040, Note_on_c, 10, 64, 127
13, 56040, Note_on_c, 10, 69, 127
13, 56156, Note_off_c, 10, 57, 0
13, 56156, Note_off_c, 10, 60, 0
13, 56156, Note_off_c, 10, 64, 0
13, 56156, Note_off_c, 10, 69, 0
13, 56280, Note_on_c, 10, 57, 93
13, 56280, Note_on_c, 10, 60, 93
13, 56280, Note_on_c, 10, 64, 93
13, 56280, Note_on_c, 10, 69, 93
13, 56396, Note_off_c, 10, 57, 0
13, 56396, Note_off_c, 10, 60, 0
13, 56396, Note_off_c, 10, 64, 0
13, 56396, Note_off_c, 10, 69, 0
13, 56400, Note_on_c, 10, 57, 103
13, 56400, Note_on_c, 10, 60, 103
13, 56400, Note_on_c, 10, 64, 103
13, 56400, Note_on_c, 10, 69, 103
13, 56516, Note_off_c, 10, 57, 0
13, 56516, Note_off_c, 10, 60, 0
13, 56516, Note_off_c, 10, 64, 0
13, 56516, Note_off_c, 10, 69, 0
13, 56520, Note_on_c, 10, 57, 118
13, 56520, Note_on_c, 10, 60, 118
13, 56520, Note_on_c, 10, 64, 118
13, 56520, Note_on_c, 10, 69, 118
13, 56636, Note_off_c, 10, 57, 0
13, 56636, Note_off_c, 10, 60, 0
13, 56636, Note_off_c, 10, 64, 0
13, 56636, Note_off_c, 10, 69, 0
13, 56640, Note_on_c, 10, 57, 127
13, 56640, Note_on_c, 10, 60, 127
13, 56640, Note_on_c, 10, 64, 127
13, 56640, Note_on_c, 10, 69, 127
13, 56756, Note_off_c, 10, 57, 0
13, 56756, Note_off_c, 10, 60, 0
13, 56756, Note_off_c, 10, 64, 0
13, 56756, Note_off_c, 10, 69, 0
13, 56760, Note_on_c, 10, 57, 99
13, 56760, Note_on_c, 10, 60, 99
13, 56760, Note_on_c, 10, 64, 99
13, 56760, Note_on_c, 10, 69, 99
13, 56876, Note_off_c, 10, 57, 0
13, 56876, Note_off_c, 10, 60, 0
13, 56876, Note_off_c, 10, 64, 0
13, 56876, Note_off_c, 10, 69, 0
13, 56880, Note_on_c, 10, 57, 113
13, 56880, Note_on_c, 10, 60, 113
13, 56880, Note_on_c, 10, 64, 113
13, 56880, Note_on_c, 10, 69, 113
13, 56996, Note_off_c, 10, 57, 0
13, 56996, Note_off_c, 10, 60, 0
13, 56996, Note_off_c, 10, 64, 0
13, 56996, Note_off_c, 10, 69, 0
13, 57000, Note_on_c, 10, 57, 127
13, 57000, Note_on_c, 10, 60, 127
13, 57000, Note_on_c, 10, 64, 127
13, 57000, Note_on_c, 10, 69, 127
13, 57116, Note_off_c, 10, 57, 0
13, 57116, Note_off_c, 10, 60, 0
13, 57116, Note_off_c, 10, 64, 0
13, 57116, Note_off_c, 10, 69, 0
13, 57240, Note_on_c, 10, 57, 92
13, 57240, Note_on_c, 10, 60, 92
13, 57240, Note_on_c, 10, 64, 92
13, 57240, Note_on_c, 10, 69, 92
13, 57356, Note_off_c, 10, 57, 0
13, 57356, Note_off_c, 10, 60, 0
13, 57356, Note_off_c, 10, 64, 0
13, 57356, Note_off_c, 10, 69, 0
13, 57360, Note_on_c, 10, 57, 101
13, 57360, Note_on_c, 10, 60, 101
13, 57360, Note_on_c, 10, 64, 101
13, 57360, Note_on_c, 10, 69, 101
13, 57476, Note_off_c, 10, 57, 0
13, 57476, Note_off_c, 10, 60, 0
13, 57476, Note_off_c, 10, 64, 0
13, 57476, Note_off_c, 10, 69, 0
13, 57480, Note_on_c, 10, 57, 110
13, 57480, Note_on_c, 10, 60, 110
13, 57480, Note_on_c, 10, 64, 110
13, 57480, Note_on_c, 10, 69, 110
13, 57596, Note_off_c, 10, 57, 0
13, 57596, Note_off_c, 10, 60, 0
13, 57596, Note_off_c, 10, 64, 0
13, 57596, Note_off_c, 10, 69, 0
13, 57600, Note_on_c, 10, 55, 127
13, 57600, Note_on_c, 10, 59, 127
13, 57600, Note_on_c, 10, 62, 127
13, 57600, Note_on_c, 10, 67, 127
13, 57716, Note_off_c, 10, 55, 0
13, 57716, Note_off_c, 10, 59, 0
13, 57716, Note_off_c, 10, 62, 0
13, 57716, Note_off_c, 10, 67, 0
13, 57720, Note_on_c, 10, 55, 97
13, 57720, Note_on_c, 10, 59, 97
13, 57720, Note_on_c, 10, 62, 97
13, 57720, Note_on_c, 10, 67, 97
13, 57836, Note_off_c, 10, 55, 0
13, 57836, Note_off_c, 10, 59, 0
13, 57836, Note_off_c, 10, 62, 0
13, 57836, Note_off_c, 10, 67, 0
13, 57840, Note_on_c, 10, 55, 108
13, 57840, Note_on_c, 10, 59, 108
13, 57840, Note_on_c, 10, 62, 108
13, 57840, Note_on_c, 10, 67, 108
13, 57956, Note_off_c, 10, 55, 0
13, 57956, Note_off_c, 10, 59, 0
13, 57956, Note_off_c, 10, 62, 0
13, 57956, Note_off_c, 10, 67, 0
13, 57960, Note_on_c, 10, 55, 127
13, 57960, Note_on_c, 10, 59, 127
13, 57960, Note_on_c, 10, 62, 127
13, 57960, Note_on_c, 10, 67, 127
13, 58076, Note_off_c, 10, 55, 0
13, 58076, Note_off_c, 10, 59, 0
13, 58076, Note_off_c, 10, 62, 0
13, 58076, Note_off_c, 10, 67, 0
13, 58200, Note_on_c, 10, 55, 93
13, 58200, Note_on_c, 10, 59, 93
13, 58200, Note_on_c, 10, 62, 93
13, 58200, Note_on_c, 10, 67, 93
13, 58316, Note_off_c, 10, 55, 0
13, 58316, Note_off_c, 10, 59, 0
13, 58316, Note_off_c, 10, 62, 0
13, 58316, Note_off_c, 10, 67, 0
13, 58320, Note_on_c, 10, 55, 103
13, 58320, Note_on_c, 10, 59, 103
13, 58320, Note_on_c, 10, 62, 103
13, 58320, Note_on_c, 10, 67, 103
13, 58436, Note_off_c, 10, 55, 0
13, 58436, Note_off_c, 10, 59, 0
13, 58436, Note_off_c, 10, 62, 0
13, 58436, Note_off_c, 10, 67, 0
13, 58440, Note_on_c, 10, 55, 118
13, 58440, Note_on_c, 10, 59, 118
13, 58440, Note_on_c, 10, 62, 118
13, 58440, Note_on_c, 10, 67, 118
13, 58556, Note_off_c, 10, 55, 0
13, 58556, Note_off_c, 10, 59, 0
13, 58556, Note_off_c, 10, 62, 0
13, 58556, Note_off_c, 10, 67, 0
13, 58560, Note_on_c, 10, 57, 127
13, 58560, Note_on_c, 10, 60, 127
13, 58560, Note_on_c, 10, 65, 127
13, 58560, Note_on_c, 10, 69, 127
13, 58676, Note_off_c, 10, 57, 0
13, 58676, Note_off_c, 10, 60, 0
13, 58676, Note_off_c, 10, 65, 0
13, 58676, Note_off_c, 10, 69, 0
13, 58680, Note_on_c, 10, 57, 99
13, 58680, Note_on_c, 10, 60, 99
13, 58680, Note_on_c, 10, 65, 99
13, 58680, Note_on_c, 10, 69, 99
13, 58796, Note_off_c, 10, 57, 0
13, 58796, Note_off_c, 10, 60, 0
13, 58796, Note_off_c, 10, 65, 0
13, 58796, Note_off_c, 10, 69, 0
13, 58800, Note_on_c, 10, 57, 113
13, 58800, Note_on_c, 10, 60, 113
13, 58800, Note_on_c, 10, 65, 113
13, 58800, Note_on_c, 10, 69, 113
13, 58916, Note_off_c, 10, 57, 0
13, 58916, Note_off_c, 10, 60, 0
13, 58916, Note_off_c, 10, 65, 0
13, 58916, Note_off_c, 10, 69, 0
13, 58920, Note_on_c, 10, 57, 127
13, 58920, Note_on_c, 10, 60, 127
13, 58920, Note_on_c, 10, 65, 127
13, 58920, Note_on_c, 10, 69, 127
13, 59036, Note_off_c, 10, 57, 0
13, 59036, Note_off_c, 10, 60, 0
13, 59036, Note_off_c, 10, 65, 0
13, 59036, Note_off_c, 10, 69, 0
13, 59160, Note_on_c, 10, 57, 92
13, 59160, Note_on_c, 10, 60, 92
13, 59160, Note_on_c, 10, 65, 92
13, 59160, Note_on_c, 10, 69, 92
13, 59276, Note_off_c, 10, 57, 0
13, 59276, Note_off_c, 10, 60, 0
13, 59276, Note_off_c, 10, 65, 0
13, 59276, Note_off_c, 10, 69, 0
13, 59280, Note_on_c, 10, 57, 101
13, 59280, Note_on_c, 10, 60, 101
13, 59280, Note_on_c, 10, 65, 101
13, 59280, Note_on_c, 10, 69, 101
13, 59396, Note_off_c, 10, 57, 0
13, 59396, Note_off_c, 10, 60, 0
13, 59396, Note_off_c, 10, 65, 0
13, 59396, Note_off_c, 10, 69, 0
13, 59400, Note_on_c, 10, 57, 110
13, 59400, Note_on_c, 10, 60, 110
13, 59400, Note_on_c, 10, 65, 110
13, 59400, Note_on_c, 10, 69, 110
13, 59516, Note_off_c, 10, 57, 0
13, 59516, Note_off_c, 10, 60, 0
13, 59516, Note_off_c, 10, 65, 0
13, 59516, Note_off_c, 10, 69, 0
13, 59520, Note_on_c, 10, 57, 127
13, 59520, Note_on_c, 10, 60, 127
13, 59520, Note_on_c, 10, 65, 127
13, 59520, Note_on_c, 10, 69, 127
13, 59636, Note_off_c, 10, 57, 0
13, 59636, Note_off_c, 10, 60, 0
13, 59636, Note_off_c, 10, 65, 0
13, 59636, Note_off_c, 10, 69, 0
13, 59640, Note_on_c, 10, 57, 99
13, 59640, Note_on_c, 10, 60, 99
13, 59640, Note_on_c, 10, 65, 99
13, 59640, Note_on_c, 10, 69, 99
13, 59756, Note_off_c, 10, 57, 0
13, 59756, Note_off_c, 10, 60, 0
13, 59756, Note_off_c, 10, 65, 0
13, 59756, Note_off_c, 10, 69, 0
13, 59760, Note_on_c, 10, 57, 113
13, 59760, Note_on_c, 10, 60, 113
13, 59760, Note_on_c, 10, 65, 113
13, 59760, Note_on_c, 10, 69, 113
13, 59876, Note_off_c, 10, 57, 0
13, 59876, Note_off_c, 10, 60, 0
13, 59876, Note_off_c, 10, 65, 0
13, 59876, Note_off_c, 10, 69, 0
13, 59880, Note_on_c, 10, 57, 127
13, 59880, Note_on_c, 10, 60, 127
13, 59880, Note_on_c, 10, 65, 127
13, 59880, Note_on_c, 10, 69, 127
13, 59996, Note_off_c, 10, 57, 0
13, 59996, Note_off_c, 10, 60, 0
13, 59996, Note_off_c, 10, 65, 0
13, 59996, Note_off_c, 10, 69, 0
13, 60120, Note_on_c, 10, 57, 92
13, 60120, Note_on_c, 10, 60, 92
13, 60120, Note_on_c, 10, 65, 92
13, 60120, Note_on_c, 10, 69, 92
13, 60236, Note_off_c, 10, 57, 0
13, 60236, Note_off_c, 10, 60, 0
13, 60236, Note_off_c, 10, 65, 0
13, 60236, Note_off_c, 10, 69, 0
13, 60240, Note_on_c, 10, 57, 101
13, 60240, Note_on_c, 10, 60, 101
13, 60240, Note_on_c, 10, 65, 101
13, 60240, Note_on_c, 10, 69, 101
13, 60356, Note_off_c, 10, 57, 0
13, 60356, Note_off_c, 10, 60, 0
13, 60356, Note_off_c, 10, 65, 0
13, 60356, Note_off_c, 10, 69, 0
13, 60360, Note_on_c, 10, 57, 110
13, 60360, Note_on_c, 10, 60, 110
13, 60360, Note_on_c, 10, 65, 110
13, 60360, Note_on_c, 10, 69, 110
13, 60476, Note_off_c, 10, 57, 0
13, 60476, Note_off_c, 10, 60, 0
13, 60476, Note_off_c, 10, 65, 0
13, 60476, Note_off_c, 10, 69, 0
13, 60480, Note_on_c, 10, 57, 127
13, 60480, Note_on_c, 10, 60, 127
13, 60480, Note_on_c, 10, 65, 127
13, 60480, Note_on_c, 10, 69, 127
13, 60596, Note_off_c, 10, 57, 0
13, 60596, Note_off_c, 10, 60, 0
13, 60596, Note_off_c, 10, 65, 0
13, 60596, Note_off_c, 10, 69, 0
13, 60600, Note_on_c, 10, 57, 99
13, 60600, Note_on_c, 10, 60, 99
13, 60600, Note_on_c, 10, 65, 99
13, 60600, Note_on_c, 10, 69, 99
13, 60716, Note_off_c, 10, 57, 0
13, 60716, Note_off_c, 10, 60, 0
13, 60716, Note_off_c, 10, 65, 0
13, 60716, Note_off_c, 10, 69, 0
13, 60720, Note_on_c, 10, 57, 113
13, 60720, Note_on_c, 10, 60, 113
13, 60720, Note_on_c, 10, 65, 113
13, 60720, Note_on_c, 10, 69, 113
13, 60836, Note_off_c, 10, 57, 0
13, 60836, Note_off_c, 10, 60, 0
13, 60836, Note_off_c, 10, 65, 0
13, 60836, Note_off_c, 10, 69, 0
13, 60840, Note_on_c, 10, 57, 127
13, 60840, Note_on_c, 10, 60, 127
13, 60840, Note_on_c, 10, 65, 127
13, 60840, Note_on_c, 10, 69, 127
13, 60956, Note_off_c, 10, 57, 0
13, 60956, Note_off_c, 10, 60, 0
13, 60956, Note_off_c, 10, 65, 0
13, 60956, Note_off_c, 10, 69, 0
13, 61080, Note_on_c, 10, 57, 92
13, 61080, Note_on_c, 10, 60, 92
13, 61080, Note_on_c, 10, 65, 92
13, 61080, Note_on_c, 10, 69, 92
13, 61196, Note_off_c, 10, 57, 0
13, 61196, Note_off_c, 10, 60, 0
13, 61196, Note_off_c, 10, 65, 0
13, 61196, Note_off_c, 10, 69, 0
13, 61200, Note_on_c, 10, 57, 101
13, 61200, Note_on_c, 10, 60, 101
13, 61200, Note_on_c, 10, 65, 101
13, 61200, Note_on_c, 10, 69, 101
13, 61316, Note_off_c, 10, 57, 0
13, 61316, Note_off_c, 10, 60, 0
13, 61316, Note_off_c, 10, 65, 0
13, 61316, Note_off_c, 10, 69, 0
13, 61320, Note_on_c, 10, 57, 110
13, 61320, Note_on_c, 10, 60, 110
13, 61320, Note_on_c, 10, 65, 110
13, 61320, Note_on_c, 10, 69, 110
13, 61436, Note_off_c, 10, 57, 0
13, 61436, Note_off_c, 10, 60, 0
13, 61436, Note_off_c, 10, 65, 0
13, 61436, Note_off_c, 10, 69, 0
13, 61440, Note_on_c, 10, 57, 127
13, 61440, Note_on_c, 10, 60, 127
13, 61440, Note_on_c, 10, 64, 127
13, 61440, Note_on_c, 10, 69, 127
13, 61556, Note_off_c, 10, 57, 0
13, 61556, Note_off_c, 10, 60, 0
13, 61556, Note_off_c, 10, 64, 0
13, 61556, Note_off_c, 10, 69, 0
13, 61560, Note_on_c, 10, 57, 97
13, 61560, Note_on_c, 10, 60, 97
13, 61560, Note_on_c, 10, 64, 97
13, 61560, Note_on_c, 10, 69, 97
13, 61676, Note_off_c, 10, 57, 0
13, 61676, Note_off_c, 10, 60, 0
13, 61676, Note_off_c, 10, 64, 0
13, 61676, Note_off_c, 10, 69, 0
13, 61680, Note_on_c, 10, 57, 108
13, 61680, Note_on_c, 10, 60, 108
13, 61680, Note_on_c, 10, 64, 108
13, 61680, Note_on_c, 10, 69, 108
13, 61796, Note_off_c, 10, 57, 0
13, 61796, Note_off_c, 10, 60, 0
13, 61796, Note_off_c, 10, 64, 0
13, 61796, Note_off_c, 10, 69, 0
13, 61800, Note_on_c, 10, 57, 127
13, 61800, Note_on_c, 10, 60, 127
13, 61800, Note_on_c, 10, 64, 127
13, 61800, Note_on_c, 10, 69, 127
13, 61916, Note_off_c, 10, 57, 0
13, 61916, Note_off_c, 10, 60, 0
13, 61916, Note_off_c, 10, 64, 0
13, 61916, Note_off_c, 10, 69, 0
13, 62040, Note_on_c, 10, 57, 93
13, 62040, Note_on_c, 10, 60, 93
13, 62040, Note_on_c, 10, 64, 93
13, 62040, Note_on_c, 10, 69, 93
13, 62156, Note_off_c, 10, 57, 0
13, 62156, Note_off_c, 10, 60, 0
13, 62156, Note_off_c, 10, 64, 0
13, 62156, Note_off_c, 10, 69, 0
13, 62160, Note_on_c, 10, 57, 103
13, 62160, Note_on_c, 10, 60, 103
13, 62160, Note_on_c, 10, 64, 103
13, 62160, Note_on_c, 10, 69, 103
13, 62276, Note_off_c, 10, 57, 0
13, 62276, Note_off_c, 10, 60, 0
13, 62276, Note_off_c, 10, 64, 0
13, 62276, Note_off_c, 10, 69, 0
13, 62280, Note_on_c, 10, 57, 118
13, 62280, Note_on_c, 10, 60, 118
13, 62280, Note_on_c, 10, 64, 118
13, 62280, Note_on_c, 10, 69, 118
13, 62396, Note_off_c, 10, 57, 0
13, 62396, Note_off_c, 10, 60, 0
13, 62396, Note_off_c, 10, 64, 0
13, 62396, Note_off_c, 10, 69, 0
13, 62400, Note_on_c, 10, 57, 127
13, 62400, Note_on_c, 10, 60, 127
13, 62400, Note_on_c, 10, 64, 127
13, 62400, Note_on_c, 10, 69, 127
13, 62516, Note_off_c, 10, 57, 0
13, 62516, Note_off_c, 10, 60, 0
13, 62516, Note_off_c, 10, 64, 0
13, 62516, Note_off_c, 10, 69, 0
13, 62520, Note_on_c, 10, 57, 99
13, 62520, Note_on_c, 10, 60, 99
13, 62520, Note_on_c, 10, 64, 99
13, 62520, Note_on_c, 10, 69, 99
13, 62636, Note_off_c, 10, 57, 0
13, 62636, Note_off_c, 10, 60, 0
13, 62636, Note_off_c, 10, 64, 0
13, 62636, Note_off_c, 10, 69, 0
13, 62640, Note_on_c, 10, 57, 113
13, 62640, Note_on_c, 10, 60, 113
13, 62640, Note_on_c, 10, 64, 113
13, 62640, Note_on_c, 10, 69, 113
13, 62756, Note_off_c, 10, 57, 0
13, 62756, Note_off_c, 10, 60, 0
13, 62756, Note_off_c, 10, 64, 0
13, 62756, Note_off_c, 10, 69, 0
13, 62760, Note_on_c, 10, 57, 127
13, 62760, Note_on_c, 10, 60, 127
13, 62760, Note_on_c, 10, 64, 127
13, 62760, Note_on_c, 10, 69, 127
13, 62876, Note_off_c, 10, 57, 0
13, 62876, Note_off_c, 10, 60, 0
13, 62876, Note_off_c, 10, 64, 0
13, 62876, Note_off_c, 10, 69, 0
13, 63000, Note_on_c, 10, 57, 92
13, 63000, Note_on_c, 10, 60, 92
13, 63000, Note_on_c, 10, 64, 92
13, 63000, Note_on_c, 10, 69, 92
13, 63116, Note_off_c, 10, 57, 0
13, 63116, Note_off_c, 10, 60, 0
13, 63116, Note_off_c, 10, 64, 0
13, 63116, Note_off_c, 10, 69, 0
13, 63120, Note_on_c, 10, 57, 101
13, 63120, Note_on_c, 10, 60, 101
13, 63120, Note_on_c, 10, 64, 101
13, 63120, Note_on_c, 10, 69, 101
13, 63236, Note_off_c, 10, 57, 0
13, 63236, Note_off_c, 10, 60, 0
13, 63236, Note_off_c, 10, 64, 0
13, 63236, Note_off_c, 10, 69, 0
13, 63240, Note_on_c, 10, 57, 110
13, 63240, Note_on_c, 10, 60, 110
13, 63240, Note_on_c, 10, 64, 110
13, 63240, Note_on_c, 10, 69, 110
13, 63356, Note_off_c, 10, 57, 0
13, 63356, Note_off_c, 10, 60, 0
13, 63356, Note_off_c, 10, 64, 0
13, 63356, Note_off_c, 10, 69, 0
13, 63360, Note_on_c, 10, 57, 127
13, 63360, Note_on_c, 10, 60, 127
13, 63360, Note_on_c, 10, 64, 127
13, 63360, Note_on_c, 10, 69, 127
13, 63476, Note_off_c, 10, 57, 0
13, 63476, Note_off_c, 10, 60, 0
13, 63476, Note_off_c, 10, 64, 0
13, 63476, Note_off_c, 10, 69, 0
13, 63480, Note_on_c, 10, 57, 97
13, 63480, Note_on_c, 10, 60, 97
13, 63480, Note_on_c, 10, 64, 97
13, 63480, Note_on_c, 10, 69, 97
13, 63596, Note_off_c, 10, 57, 0
13, 63596, Note_off_c, 10, 60, 0
13, 63596, Note_off_c, 10, 64, 0
13, 63596, Note_off_c, 10, 69, 0
13, 63600, Note_on_c, 10, 57, 108
13, 63600, Note_on_c, 10, 60, 108
13, 63600, Note_on_c, 10, 64, 108
13, 63600, Note_on_c, 10, 69, 108
13, 63716, Note_off_c, 10, 57, 0
13, 63716, Note_off_c, 10, 60, 0
13, 63716, Note_off_c, 10, 64, 0
13, 63716, Note_off_c, 10, 69, 0
13, 63720, Note_on_c, 10, 57, 127
13, 63720, Note_on_c, 10, 60, 127
13, 63720, Note_on_c, 10, 64, 127
13, 63720, Note_on_c, 10, 69, 127
13, 63836, Note_off_c, 10, 57, 0
13, 63836, Note_off_c, 10, 60, 0
13, 63836, Note_off_c, 10, 64, 0
13, 63836, Note_off_c, 10, 69, 0
13, 63960, Note_on_c, 10, 57, 93
13, 63960, Note_on_c, 10, 60, 93
13, 63960, Note_on_c, 10, 64, 93
13, 63960, Note_on_c, 10, 69, 93
13, 64076, Note_off_c, 10, 57, 0
13, 64076, Note_off_c, 10, 60, 0
13, 64076, Note_off_c, 10, 64, 0
13, 64076, Note_off_c, 10, 69, 0
13, 64080, Note_on_c, 10, 57, 103
13, 64080, Note_on_c, 10, 60, 103
13, 64080, Note_on_c, 10, 64, 103
13, 64080, Note_on_c, 10, 69, 103
13, 64196, Note_off_c, 10, 57, 0
13, 64196, Note_off_c, 10, 60, 0
13, 64196, Note_off_c, 10, 64, 0
13, 64196, Note_off_c, 10, 69, 0
13, 64200, Note_on_c, 10, 57, 118
13, 64200, Note_on_c, 10, 60, 118
13, 64200, Note_on_c, 10, 64, 118
13, 64200, Note_on_c, 10, 69, 118
13, 64316, Note_off_c, 10, 57, 0
13, 64316, Note_off_c, 10, 60, 0
13, 64316, Note_off_c, 10, 64, 0
13, 64316, Note_off_c, 10, 69, 0
13, 64320, Note_on_c, 10, 57, 127
13, 64320, Note_on_c, 10, 60, 127
13, 64320, Note_on_c, 10, 64, 127
13, 64320, Note_on_c, 10, 69, 127
13, 64436, Note_off_c, 10, 57, 0
13, 64436, Note_off_c, 10, 60, 0
13, 64436, Note_off_c, 10, 64, 0
13, 64436, Note_off_c, 10, 69, 0
13, 64440, Note_on_c, 10, 57, 99
13, 64440, Note_on_c, 10, 60, 99
13, 64440, Note_on_c, 10, 64, 99
13, 64440, Note_on_c, 10, 69, 99
13, 64556, Note_off_c, 10, 57, 0
13, 64556, Note_off_c, 10, 60, 0
13, 64556, Note_off_c, 10, 64, 0
13, 64556, Note_off_c, 10, 69, 0
13, 64560, Note_on_c, 10, 57, 113
13, 64560, Note_on_c, 10, 60, 113
13, 64560, Note_on_c, 10, 64, 113
13, 64560, Note_on_c, 10, 69, 113
13, 64676, Note_off_c, 10, 57, 0
13, 64676, Note_off_c, 10, 60, 0
13, 64676, Note_off_c, 10, 64, 0
13, 64676, Note_off_c, 10, 69, 0
13, 64680, Note_on_c, 10, 57, 127
13, 64680, Note_on_c, 10, 60, 127
13, 64680, Note_on_c, 10, 64, 127
13, 64680, Note_on_c, 10, 69, 127
13, 64796, Note_off_c, 10, 57, 0
13, 64796, Note_off_c, 10, 60, 0
13, 64796, Note_off_c, 10, 64, 0
13, 64796, Note_off_c, 10, 69, 0
13, 64920, Note_on_c, 10, 57, 92
13, 64920, Note_on_c, 10, 60, 92
13, 64920, Note_on_c, 10, 64, 92
13, 64920, Note_on_c, 10, 69, 92
13, 65036, Note_off_c, 10, 57, 0
13, 65036, Note_off_c, 10, 60, 0
13, 65036, Note_off_c, 10, 64, 0
13, 65036, Note_off_c, 10, 69, 0
13, 65040, Note_on_c, 10, 57, 101
13, 65040, Note_on_c, 10, 60, 101
13, 65040, Note_on_c, 10, 64, 101
13, 65040, Note_on_c, 10, 69, 101
13, 65156, Note_off_c, 10, 57, 0
13, 65156, Note_off_c, 10, 60, 0
13, 65156, Note_off_c, 10, 64, 0
13, 65156, Note_off_c, 10, 69, 0
13, 65160, Note_on_c, 10, 57, 110
13, 65160, Note_on_c, 10, 60, 110
13, 65160, Note_on_c, 10, 64, 110
13, 65160, Note_on_c, 10, 69, 110
13, 65276, Note_off_c, 10, 57, 0
13, 65276, Note_off_c, 10, 60, 0
13, 65276, Note_off_c, 10, 64, 0
13, 65276, Note_off_c, 10, 69, 0
13, 65280, Note_on_c, 10, 57, 127
13, 65280, Note_on_c, 10, 60, 127
13, 65280, Note_on_c, 10, 64, 127
13, 65280, Note_on_c, 10, 69, 127
13, 65396, Note_off_c, 10, 57, 0
13, 65396, Note_off_c, 10, 60, 0
13, 65396, Note_off_c, 10, 64, 0
13, 65396, Note_off_c, 10, 69, 0
13, 65400, Note_on_c, 10, 57, 97
13, 65400, Note_on_c, 10, 60, 97
13, 65400, Note_on_c, 10, 64, 97
13, 65400, Note_on_c, 10, 69, 97
13, 65516, Note_off_c, 10, 57, 0
13, 65516, Note_off_c, 10, 60, 0
13, 65516, Note_off_c, 10, 64, 0
13, 65516, Note_off_c, 10, 69, 0
13, 65520, Note_on_c, 10, 57, 108
13, 65520, Note_on_c, 10, 60, 108
13, 65520, Note_on_c, 10, 64, 108
13, 65520, Note_on_c, 10, 69, 108
13, 65636, Note_off_c, 10, 57, 0
13, 65636, Note_off_c, 10, 60, 0
13, 65636, Note_off_c, 10, 64, 0
13, 65636, Note_off_c, 10, 69, 0
13, 65640, Note_on_c, 10, 57, 127
13, 65640, Note_on_c, 10, 60, 127
13, 65640, Note_on_c, 10, 64, 127
13, 65640, Note_on_c, 10, 69, 127
13, 65756, Note_off_c, 10, 57, 0
13, 65756, Note_off_c, 10, 60, 0
13, 65756, Note_off_c, 10, 64, 0
13, 65756, Note_off_c, 10, 69, 0
13, 65880, Note_on_c, 10, 57, 93
13, 65880, Note_on_c, 10, 60, 93
13, 65880, Note_on_c, 10, 64, 93
13, 65880, Note_on_c, 10, 69, 93
13, 65996, Note_off_c, 10, 57, 0
13, 65996, Note_off_c, 10, 60, 0
13, 65996, Note_off_c, 10, 64, 0
13, 65996, Note_off_c, 10, 69, 0
13, 66000, Note_on_c, 10, 57, 103
13, 66000, Note_on_c, 10, 60, 103
13, 66000, Note_on_c, 10, 64, 103
13, 66000, Note_on_c, 10, 69, 103
13, 66116, Note_off_c, 10, 57, 0
13, 66116, Note_off_c, 10, 60, 0
13, 66116, Note_off_c, 10, 64, 0
13, 66116, Note_off_c, 10, 69, 0
13, 66120, Note_on_c, 10, 57, 118
13, 66120, Note_on_c, 10, 60, 118
13, 66120, Note_on_c, 10, 64, 118
13, 66120, Note_on_c, 10, 69, 118
13, 66236, Note_off_c, 10, 57, 0
13, 66236, Note_off_c, 10, 60, 0
13, 66236, Note_off_c, 10, 64, 0
13, 66236, Note_off_c, 10, 69, 0
13, 66240, Note_on_c, 10, 57, 127
13, 66240, Note_on_c, 10, 60, 127
13, 66240, Note_on_c, 10, 64, 127
13, 66240, Note_on_c, 10, 69, 127
13, 66356, Note_off_c, 10, 57, 0
13, 66356, Note_off_c, 10, 60, 0
13, 66356, Note_off_c, 10, 64, 0
13, 66356, Note_off_c, 10, 69, 0
13, 66360, Note_on_c, 10, 57, 99
13, 66360, Note_on_c, 10, 60, 99
13, 66360, Note_on_c, 10, 64, 99
13, 66360, Note_on_c, 10, 69, 99
13, 66476, Note_off_c, 10, 57, 0
13, 66476, Note_off_c, 10, 60, 0
13, 66476, Note_off_c, 10, 64, 0
13, 66476, Note_off_c, 10, 69, 0
13, 66480, Note_on_c, 10, 57, 113
13, 66480, Note_on_c, 10, 60, 113
13, 66480, Note_on_c, 10, 64, 113
13, 66480, Note_on_c, 10, 69, 113
13, 66596, Note_off_c, 10, 57, 0
13, 66596, Note_off_c, 10, 60, 0
13, 66596, Note_off_c, 10, 64, 0
13, 66596, Note_off_c, 10, 69, 0
13, 66600, Note_on_c, 10, 57, 127
13, 66600, Note_on_c, 10, 60, 127
13, 66600, Note_on_c, 10, 64, 127
13, 66600, Note_on_c, 10, 69, 127
13, 66716, Note_off_c, 10, 57, 0
13, 66716, Note_off_c, 10, 60, 0
13, 66716, Note_off_c, 10, 64, 0
13, 66716, Note_off_c, 10, 69, 0
13, 66840, Note_on_c, 10, 57, 92
13, 66840, Note_on_c, 10, 60, 92
13, 66840, Note_on_c, 10, 64, 92
13, 66840, Note_on_c, 10, 69, 92
13, 66956, Note_off_c, 10, 57, 0
13, 66956, Note_off_c, 10, 60, 0
13, 66956, Note_off_c, 10, 64, 0
13, 66956, Note_off_c, 10, 69, 0
13, 66960, Note_on_c, 10, 57, 101
13, 66960, Note_on_c, 10, 60, 101
13, 66960, Note_on_c, 10, 64, 101
13, 66960, Note_on_c, 10, 69, 101
13, 67076, Note_off_c, 10, 57, 0
13, 67076, Note_off_c, 10, 60, 0
13, 67076, Note_off_c, 10, 64, 0
13, 67076, Note_off_c, 10, 69, 0
13, 67080, Note_on_c, 10, 57, 110
13, 67080, Note_on_c, 10, 60, 110
13, 67080, Note_on_c, 10, 64, 110
13, 67080, Note_on_c, 10, 69, 110
13, 67196, Note_off_c, 10, 57, 0
13, 67196, Note_off_c, 10, 60, 0
13, 67196, Note_off_c, 10, 64, 0
13, 67196, Note_off_c, 10, 69, 0
13, 67200, Note_on_c, 10, 55, 127
13, 67200, Note_on_c, 10, 59, 127
13, 67200, Note_on_c, 10, 62, 127
13, 67200, Note_on_c, 10, 67, 127
13, 67316, Note_off_c, 10, 55, 0
13, 67316, Note_off_c, 10, 59, 0
13, 67316, Note_off_c, 10, 62, 0
13, 67316, Note_off_c, 10, 67, 0
13, 67320, Note_on_c, 10, 55, 97
13, 67320, Note_on_c, 10, 59, 97
13, 67320, Note_on_c, 10, 62, 97
13, 67320, Note_on_c, 10, 67, 97
13, 67436, Note_off_c, 10, 55, 0
13, 67436, Note_off_c, 10, 59, 0
13, 67436, Note_off_c, 10, 62, 0
13, 67436, Note_off_c, 10, 67, 0
13, 67440, Note_on_c, 10, 55, 108
13, 67440, Note_on_c, 10, 59, 108
13, 67440, Note_on_c, 10, 62, 108
13, 67440, Note_on_c, 10, 67, 108
13, 67556, Note_off_c, 10, 55, 0
13, 67556, Note_off_c, 10, 59, 0
13, 67556, Note_off_c, 10, 62, 0
13, 67556, Note_off_c, 10, 67, 0
13, 67560, Note_on_c, 10, 55, 127
13, 67560, Note_on_c, 10, 59, 127
13, 67560, Note_on_c, 10, 62, 127
13, 67560, Note_on_c, 10, 67, 127
13, 67676, Note_off_c, 10, 55, 0
13, 67676, Note_off_c, 10, 59, 0
13, 67676, Note_off_c, 10, 62, 0
13, 67676, Note_off_c, 10, 67, 0
13, 67800, Note_on_c, 10, 55, 93
13, 67800, Note_on_c, 10, 59, 93
13, 67800, Note_on_c, 10, 62, 93
13, 67800, Note_on_c, 10, 67, 93
13, 67916, Note_off_c, 10, 55, 0
13, 67916, Note_off_c, 10, 59, 0
13, 67916, Note_off_c, 10, 62, 0
13, 67916, Note_off_c, 10, 67, 0
13, 67920, Note_on_c, 10, 55, 103
13, 67920, Note_on_c, 10, 59, 103
13, 67920, Note_on_c, 10, 62, 103
13, 67920, Note_on_c, 10, 67, 103
13, 68036, Note_off_c, 10, 55, 0
13, 68036, Note_off_c, 10, 59, 0
13, 68036, Note_off_c, 10, 62, 0
13, 68036, Note_off_c, 10, 67, 0
13, 68040, Note_on_c, 10, 55, 118
13, 68040, Note_on_c, 10, 59, 118
13, 68040, Note_on_c, 10, 62, 118
13, 68040, Note_on_c, 10, 67, 118
13, 68156, Note_off_c, 10, 55, 0
13, 68156, Note_off_c, 10, 59, 0
13, 68156, Note_off_c, 10, 62, 0
13, 68156, Note_off_c, 10, 67, 0
13, 68160, Note_on_c, 10, 57, 127
13, 68160, Note_on_c, 10, 60, 127
13, 68160, Note_on_c, 10, 65, 127
13, 68160, Note_on_c, 10, 69, 127
13, 68276, Note_off_c, 10, 57, 0
13, 68276, Note_off_c, 10, 60, 0
13, 68276, Note_off_c, 10, 65, 0
13, 68276, Note_off_c, 10, 69, 0
13, 68280, Note_on_c, 10, 57, 99
13, 68280, Note_on_c, 10, 60, 99
13, 68280, Note_on_c, 10, 65, 99
13, 68280, Note_on_c, 10, 69, 99
13, 68396, Note_off_c, 10, 57, 0
13, 68396, Note_off_c, 10, 60, 0
13, 68396, Note_off_c, 10, 65, 0
13, 68396, Note_off_c, 10, 69, 0
13, 68400, Note_on_c, 10, 57, 113
13, 68400, Note_on_c, 10, 60, 113
13, 68400, Note_on_c, 10, 65, 113
13, 68400, Note_on_c, 10, 69, 113
13, 68516, Note_off_c, 10, 57, 0
13, 68516, Note_off_c, 10, 60, 0
13, 68516, Note_off_c, 10, 65, 0
13, 68516, Note_off_c, 10, 69, 0
13, 68520, Note_on_c, 10, 57, 127
13, 68520, Note_on_c, 10, 60, 127
13, 68520, Note_on_c, 10, 65, 127
13, 68520, Note_on_c, 10, 69, 127
13, 68636, Note_off_c, 10, 57, 0
13, 68636, Note_off_c, 10, 60, 0
13, 68636, Note_off_c, 10, 65, 0
13, 68636, Note_off_c, 10, 69, 0
13, 68760, Note_on_c, 10, 57, 92
13, 68760, Note_on_c, 10, 60, 92
13, 68760, Note_on_c, 10, 65, 92
13, 68760, Note_on_c, 10, 69, 92
13, 68876, Note_off_c, 10, 57, 0
13, 68876, Note_off_c, 10, 60, 0
13, 68876, Note_off_c, 10, 65, 0
13, 68876, Note_off_c, 10, 69, 0
13, 68880, Note_on_c, 10, 57, 101
13, 68880, Note_on_c, 10, 60, 101
13, 68880, Note_on_c, 10, 65, 101
13, 68880, Note_on_c, 10, 69, 101
13, 68996, Note_off_c, 10, 57, 0
13, 68996, Note_off_c, 10, 60, 0
13, 68996, Note_off_c, 10, 65, 0
13, 68996, Note_off_c, 10, 69, 0
13, 69000, Note_on_c, 10, 57, 110
13, 69000, Note_on_c, 10, 60, 110
13, 69000, Note_on_c, 10, 65, 110
13, 69000, Note_on_c, 10, 69, 110
13, 69116, Note_off_c, 10, 57, 0
13, 69116, Note_off_c, 10, 60, 0
13, 69116, Note_off_c, 10, 65, 0
13, 69116, Note_off_c, 10, 69, 0
13, 69120, Note_on_c, 10, 57, 127
13, 69120, Note_on_c, 10, 60, 127
13, 69120, Note_on_c, 10, 65, 127
13, 69120, Note_on_c, 10, 69, 127
13, 69236, Note_off_c, 10, 57, 0
13, 69236, Note_off_c, 10, 60, 0
13, 69236, Note_off_c, 10, 65, 0
13, 69236, Note_off_c, 10, 69, 0
13, 69240, Note_on_c, 10, 57, 99
13, 69240, Note_on_c, 10, 60, 99
13, 69240, Note_on_c, 10, 65, 99
13, 69240, Note_on_c, 10, 69, 99
13, 69356, Note_off_c, 10, 57, 0
13, 69356, Note_off_c, 10, 60, 0
13, 69356, Note_off_c, 10, 65, 0
13, 69356, Note_off_c, 10, 69, 0
13, 69360, Note_on_c, 10, 57, 113
13, 69360, Note_on_c, 10, 60, 113
13, 69360, Note_on_c, 10, 65, 113
13, 69360, Note_on_c, 10, 69, 113
13, 69476, Note_off_c, 10, 57, 0
13, 69476, Note_off_c, 10, 60, 0
13, 69476, Note_off_c, 10, 65, 0
13, 69476, Note_off_c, 10, 69, 0
13, 69480, Note_on_c, 10, 57, 127
13, 69480, Note_on_c, 10, 60, 127
13, 69480, Note_on_c, 10, 65, 127
13, 69480, Note_on_c, 10, 69, 127
13, 69596, Note_off_c, 10, 57, 0
13, 69596, Note_off_c, 10, 60, 0
13, 69596, Note_off_c, 10, 65, 0
13, 69596, Note_off_c, 10, 69, 0
13, 69720, Note_on_c, 10, 57, 92
13, 69720, Note_on_c, 10, 60, 92
13, 69720, Note_on_c, 10, 65, 92
13, 69720, Note_on_c, 10, 69, 92
13, 69836, Note_off_c, 10, 57, 0
13, 69836, Note_off_c, 10, 60, 0
13, 69836, Note_off_c, 10, 65, 0
13, 69836, Note_off_c, 10, 69, 0
13, 69840, Note_on_c, 10, 57, 101
13, 69840, Note_on_c, 10, 60, 101
13, 69840, Note_on_c, 10, 65, 101
13, 69840, Note_on_c, 10, 69, 101
13, 69956, Note_off_c, 10, 57, 0
13, 69956, Note_off_c, 10, 60, 0
13, 69956, Note_off_c, 10, 65, 0
13, 69956, Note_off_c, 10, 69, 0
13, 69960, Note_on_c, 10, 57, 110
13, 69960, Note_on_c, 10, 60, 110
13, 69960, Note_on_c, 10, 65, 110
13, 69960, Note_on_c, 10, 69, 110
13, 70076, Note_off_c, 10, 57, 0
13, 70076, Note_off_c, 10, 60, 0
13, 70076, Note_off_c, 10, 65, 0
13, 70076, Note_off_c, 10, 69, 0
13, 70080, Note_on_c, 10, 57, 127
13, 70080, Note_on_c, 10, 60, 127
13, 70080, Note_on_c, 10, 65, 127
13, 70080, Note_on_c, 10, 69, 127
13, 70196, Note_off_c, 10, 57, 0
13, 70196, Note_off_c, 10, 60, 0
13, 70196, Note_off_c, 10, 65, 0
13, 70196, Note_off_c, 10, 69, 0
13, 71040, Note_on_c, 10, 55, 127
13, 71040, Note_on_c, 10, 59, 127
13, 71040, Note_on_c, 10, 62, 127
13, 71040, Note_on_c, 10, 67, 127
13, 71156, Note_off_c, 10, 55, 0
13, 71156, Note_off_c, 10, 59, 0
13, 71156, Note_off_c, 10, 62, 0
13, 71156, Note_off_c, 10, 67, 0
13, 71160, Note_on_c, 10, 55, 97
13, 71160, Note_on_c, 10, 59, 97
13, 71160, Note_on_c, 10, 62, 97
13, 71160, Note_on_c, 10, 67, 97
13, 71276, Note_off_c, 10, 55, 0
13, 71276, Note_off_c, 10, 59, 0
13, 71276, Note_off_c, 10, 62, 0
13, 71276, Note_off_c, 10, 67, 0
13, 71280, Note_on_c, 10, 55, 108
13, 71280, Note_on_c, 10, 59, 108
13, 71280, Note_on_c, 10, 62, 108
13, 71280, Note_on_c, 10, 67, 108
13, 71396, Note_off_c, 10, 55, 0
13, 71396, Note_off_c, 10, 59, 0
13, 71396, Note_off_c, 10, 62, 0
13, 71396, Note_off_c, 10, 67, 0
13, 71400, Note_on_c, 10, 55, 127
13, 71400, Note_on_c, 10, 59, 127
13, 71400, Note_on_c, 10, 62, 127
13, 71400, Note_on_c, 10, 67, 127
13, 71516, Note_off_c, 10, 55, 0
13, 71516, Note_off_c, 10, 59, 0
13, 71516, Note_off_c, 10, 62, 0
13, 71516, Note_off_c, 10, 67, 0
13, 71640, Note_on_c, 10, 55, 93
13, 71640, Note_on_c, 10, 59, 93
13, 71640, Note_on_c, 10, 62, 93
13, 71640, Note_on_c, 10, 67, 93
13, 71756, Note_off_c, 10, 55, 0
13, 71756, Note_off_c, 10, 59, 0
13, 71756, Note_off_c, 10, 62, 0
13, 71756, Note_off_c, 10, 67, 0
13, 71760, Note_on_c, 10, 55, 103
13, 71760, Note_on_c, 10, 59, 103
13, 71760, Note_on_c, 10, 62, 103
13, 71760, Note_on_c, 10, 67, 103
13, 71876, Note_off_c, 10, 55, 0
13, 71876, Note_off_c, 10, 59, 0
13, 71876, Note_off_c, 10, 62, 0
13, 71876, Note_off_c, 10, 67, 0
13, 71880, Note_on_c, 10, 55, 118
13, 71880, Note_on_c, 10, 59, 118
13, 71880, Note_on_c, 10, 62, 118
13, 71880, Note_on_c, 10, 67, 118
13, 71996, Note_off_c, 10, 55, 0
13, 71996, Note_off_c, 10, 59, 0
13, 71996, Note_off_c, 10, 62, 0
13, 71996, Note_off_c, 10, 67, 0
13, 72000, Note_on_c, 10, 55, 127
13, 72000, Note_on_c, 10, 59, 127
13, 72000, Note_on_c, 10, 62, 127
13, 72000, Note_on_c, 10, 67, 127
13, 72116, Note_off_c, 10, 55, 0
13, 72116, Note_off_c, 10, 59, 0
13, 72116, Note_off_c, 10, 62, 0
13, 72116, Note_off_c, 10, 67, 0
13, 72120, Note_on_c, 10, 55, 97
13, 72120, Note_on_c, 10, 59, 97
13, 72120, Note_on_c, 10, 62, 97
13, 72120, Note_on_c, 10, 67, 97
13, 72236, Note_off_c, 10, 55, 0
13, 72236, Note_off_c, 10, 59, 0
13, 72236, Note_off_c, 10, 62, 0
13, 72236, Note_off_c, 10, 67, 0
13, 72240, Note_on_c, 10, 55, 108
13, 72240, Note_on_c, 10, 59, 108
13, 72240, Note_on_c, 10, 62, 108
13, 72240, Note_on_c, 10, 67, 108
13, 72356, Note_off_c, 10, 55, 0
13, 72356, Note_off_c, 10, 59, 0
13, 72356, Note_off_c, 10, 62, 0
13, 72356, Note_off_c, 10, 67, 0
13, 72360, Note_on_c, 10, 55, 127
13, 72360, Note_on_c, 10, 59, 127
13, 72360, Note_on_c, 10, 62, 127
13, 72360, Note_on_c, 10, 67, 127
13, 72476, Note_off_c, 10, 55, 0
13, 72476, Note_off_c, 10, 59, 0
13, 72476, Note_off_c, 10, 62, 0
13, 72476, Note_off_c, 10, 67, 0
13, 72600, Note_on_c, 10, 55, 93
13, 72600, Note_on_c, 10, 59, 93
13, 72600, Note_on_c, 10, 62, 93
13, 72600, Note_on_c, 10, 67, 93
13, 72716, Note_off_c, 10, 55, 0
13, 72716, Note_off_c, 10, 59, 0
13, 72716, Note_off_c, 10, 62, 0
13, 72716, Note_off_c, 10, 67, 0
13, 72720, Note_on_c, 10, 55, 103
13, 72720, Note_on_c, 10, 59, 103
13, 72720, Note_on_c, 10, 62, 103
13, 72720, Note_on_c, 10, 67, 103
13, 72836, Note_off_c, 10, 55, 0
13, 72836, Note_off_c, 10, 59, 0
13, 72836, Note_off_c, 10, 62, 0
13, 72836, Note_off_c, 10, 67, 0
13, 72840, Note_on_c, 10, 55, 118
13, 72840, Note_on_c, 10, 59, 118
13, 72840, Note_on_c, 10, 62, 118
13, 72840, Note_on_c, 10, 67, 118
13, 72956, Note_off_c, 10, 55, 0
13, 72956, Note_off_c, 10, 59, 0
13, 72956, Note_off_c, 10, 62, 0
13, 72956, Note_off_c, 10, 67, 0
13, 72960, Note_on_c, 10, 53, 127
13, 72960, Note_on_c, 10, 57, 127
13, 72960, Note_on_c, 10, 62, 127
13, 72960, Note_on_c, 10, 65, 127
13, 73076, Note_off_c, 10, 53, 0
13, 73076, Note_off_c, 10, 57, 0
13, 73076, Note_off_c, 10, 62, 0
13, 73076, Note_off_c, 10, 65, 0
13, 73080, Note_on_c, 10, 53, 97
13, 73080, Note_on_c, 10, 57, 97
13, 73080, Note_on_c, 10, 62, 97
13, 73080, Note_on_c, 10, 65, 97
13, 73196, Note_off_c, 10, 53, 0
13, 73196, Note_off_c, 10, 57, 0
13, 73196, Note_off_c, 10, 62, 0
13, 73196, Note_off_c, 10, 65, 0
13, 73200, Note_on_c, 10, 53, 108
13, 73200, Note_on_c, 10, 57, 108
13, 73200, Note_on_c, 10, 62, 108
13, 73200, Note_on_c, 10, 65, 108
13, 73316, Note_off_c, 10, 53, 0
13, 73316, Note_off_c, 10, 57, 0
13, 73316, Note_off_c, 10, 62, 0
13, 73316, Note_off_c, 10, 65, 0
13, 73320, Note_on_c, 10, 53, 127
13, 73320, Note_on_c, 10, 57, 127
13, 73320, Note_on_c, 10, 62, 127
13, 73320, Note_on_c, 10, 65, 127
13, 73436, Note_off_c, 10, 53, 0
13, 73436, Note_off_c, 10, 57, 0
13, 73436, Note_off_c, 10, 62, 0
13, 73436, Note_off_c, 10, 65, 0
13, 73560, Note_on_c, 10, 53, 93
13, 73560, Note_on_c, 10, 57, 93
13, 73560, Note_on_c, 10, 62, 93
13, 73560, Note_on_c, 10, 65, 93
13, 73676, Note_off_c, 10, 53, 0
13, 73676, Note_off_c, 10, 57, 0
13, 73676, Note_off_c, 10, 62, 0
13, 73676, Note_off_c, 10, 65, 0
13, 73680, Note_on_c, 10, 53, 103
13, 73680, Note_on_c, 10, 57, 103
13, 73680, Note_on_c, 10, 62, 103
13, 73680, Note_on_c, 10, 65, 103
13, 73796, Note_off_c, 10, 53, 0
13, 73796, Note_off_c, 10, 57, 0
13, 73796, Note_off_c, 10, 62, 0
13, 73796, Note_off_c, 10, 65, 0
13, 73800, Note_on_c, 10, 53, 118
13, 73800, Note_on_c, 10, 57, 118
13, 73800, Note_on_c, 10, 62, 118
13, 73800, Note_on_c, 10, 65, 118
13, 73916, Note_off_c, 10, 53, 0
13, 73916, Note_off_c, 10, 57, 0
13, 73916, Note_off_c, 10, 62, 0
13, 73916, Note_off_c, 10, 65, 0
13, 73920, Note_on_c, 10, 53, 127
13, 73920, Note_on_c, 10, 57, 127
13, 73920, Note_on_c, 10, 62, 127
13, 73920, Note_on_c, 10, 65, 127
13, 74036, Note_off_c, 10, 53, 0
13, 74036, Note_off_c, 10, 57, 0
13, 74036, Note_off_c, 10, 62, 0
13, 74036, Note_off_c, 10, 65, 0
13, 74040, Note_on_c, 10, 53, 97
13, 74040, Note_on_c, 10, 57, 97
13, 74040, Note_on_c, 10, 62, 97
13, 74040, Note_on_c, 10, 65, 97
13, 74156, Note_off_c, 10, 53, 0
13, 74156, Note_off_c, 10, 57, 0
13, 74156, Note_off_c, 10, 62, 0
13, 74156, Note_off_c, 10, 65, 0
13, 74160, Note_on_c, 10, 53, 108
13, 74160, Note_on_c, 10, 57, 108
13, 74160, Note_on_c, 10, 62, 108
13, 74160, Note_on_c, 10, 65, 108
13, 74276, Note_off_c, 10, 53, 0
13, 74276, Note_off_c, 10, 57, 0
13, 74276, Note_off_c, 10, 62, 0
13, 74276, Note_off_c, 10, 65, 0
13, 74280, Note_on_c, 10, 53, 127
13, 74280, Note_on_c, 10, 57, 127
13, 74280, Note_on_c, 10, 62, 127
13, 74280, Note_on_c, 10, 65, 127
13, 74396, Note_off_c, 10, 53, 0
13, 74396, Note_off_c, 10, 57, 0
13, 74396, Note_off_c, 10, 62, 0
13, 74396, Note_off_c, 10, 65, 0
13, 74520, Note_on_c, 10, 53, 93
13, 74520, Note_on_c, 10, 57, 93
13, 74520, Note_on_c, 10, 62, 93
13, 74520, Note_on_c, 10, 65, 93
13, 74636, Note_off_c, 10, 53, 0
13, 74636, Note_off_c, 10, 57, 0
13, 74636, Note_off_c, 10, 62, 0
13, 74636, Note_off_c, 10, 65, 0
13, 74640, Note_on_c, 10, 53, 103
13, 74640, Note_on_c, 10, 57, 103
13, 74640, Note_on_c, 10, 62, 103
13, 74640, Note_on_c, 10, 65, 103
13, 74756, Note_off_c, 10, 53, 0
13, 74756, Note_off_c, 10, 57, 0
13, 74756, Note_off_c, 10, 62, 0
13, 74756, Note_off_c, 10, 65, 0
13, 74760, Note_on_c, 10, 53, 118
13, 74760, Note_on_c, 10, 57, 118
13, 74760, Note_on_c, 10, 62, 118
13, 74760, Note_on_c, 10, 65, 118
13, 74876, Note_off_c, 10, 53, 0
13, 74876, Note_off_c, 10, 57, 0
13, 74876, Note_off_c, 10, 62, 0
13, 74876, Note_off_c, 10, 65, 0
13, 74880, Note_on_c, 10, 53, 127
13, 74880, Note_on_c, 10, 57, 127
13, 74880, Note_on_c, 10, 60, 127
13, 74880, Note_on_c, 10, 65, 127
13, 74996, Note_off_c, 10, 53, 0
13, 74996, Note_off_c, 10, 57, 0
13, 74996, Note_off_c, 10, 60, 0
13, 74996, Note_off_c, 10, 65, 0
13, 75000, Note_on_c, 10, 53, 97
13, 75000, Note_on_c, 10, 57, 97
13, 75000, Note_on_c, 10, 60, 97
13, 75000, Note_on_c, 10, 65, 97
13, 75116, Note_off_c, 10, 53, 0
13, 75116, Note_off_c, 10, 57, 0
13, 75116, Note_off_c, 10, 60, 0
13, 75116, Note_off_c, 10, 65, 0
13, 75120, Note_on_c, 10, 53, 108
13, 75120, Note_on_c, 10, 57, 108
13, 75120, Note_on_c, 10, 60, 108
13, 75120, Note_on_c, 10, 65, 108
13, 75236, Note_off_c, 10, 53, 0
13, 75236, Note_off_c, 10, 57, 0
13, 75236, Note_off_c, 10, 60, 0
13, 75236, Note_off_c, 10, 65, 0
13, 75240, Note_on_c, 10, 53, 127
13, 75240, Note_on_c, 10, 57, 127
13, 75240, Note_on_c, 10, 60, 127
13, 75240, Note_on_c, 10, 65, 127
13, 75356, Note_off_c, 10, 53, 0
13, 75356, Note_off_c, 10, 57, 0
13, 75356, Note_off_c, 10, 60, 0
13, 75356, Note_off_c, 10, 65, 0
13, 75480, Note_on_c, 10, 53, 93
13, 75480, Note_on_c, 10, 57, 93
13, 75480, Note_on_c, 10, 60, 93
13, 75480, Note_on_c, 10, 65, 93
13, 75596, Note_off_c, 10, 53, 0
13, 75596, Note_off_c, 10, 57, 0
13, 75596, Note_off_c, 10, 60, 0
13, 75596, Note_off_c, 10, 65, 0
13, 75600, Note_on_c, 10, 53, 103
13, 75600, Note_on_c, 10, 57, 103
13, 75600, Note_on_c, 10, 60, 103
13, 75600, Note_on_c, 10, 65, 103
13, 75716, Note_off_c, 10, 53, 0
13, 75716, Note_off_c, 10, 57, 0
13, 75716, Note_off_c, 10, 60, 0
13, 75716, Note_off_c, 10, 65, 0
13, 75720, Note_on_c, 10, 53, 118
13, 75720, Note_on_c, 10, 57, 118
13, 75720, Note_on_c, 10, 60, 118
13, 75720, Note_on_c, 10, 65, 118
13, 75836, Note_off_c, 10, 53, 0
13, 75836, Note_off_c, 10, 57, 0
13, 75836, Note_off_c, 10, 60, 0
13, 75836, Note_off_c, 10, 65, 0
13, 75840, Note_on_c, 10, 55, 127
13, 75840, Note_on_c, 10, 60, 127
13, 75840, Note_on_c, 10, 64, 127
13, 75840, Note_on_c, 10, 67, 127
13, 75956, Note_off_c, 10, 55, 0
13, 75956, Note_off_c, 10, 60, 0
13, 75956, Note_off_c, 10, 64, 0
13, 75956, Note_off_c, 10, 67, 0
13, 75960, Note_on_c, 10, 55, 97
13, 75960, Note_on_c, 10, 60, 97
13, 75960, Note_on_c, 10, 64, 97
13, 75960, Note_on_c, 10, 67, 97
13, 76076, Note_off_c, 10, 55, 0
13, 76076, Note_off_c, 10, 60, 0
13, 76076, Note_off_c, 10, 64, 0
13, 76076, Note_off_c, 10, 67, 0
13, 76080, Note_on_c, 10, 55, 108
13, 76080, Note_on_c, 10, 60, 108
13, 76080, Note_on_c, 10, 64, 108
13, 76080, Note_on_c, 10, 67, 108
13, 76196, Note_off_c, 10, 55, 0
13, 76196, Note_off_c, 10, 60, 0
13, 76196, Note_off_c, 10, 64, 0
13, 76196, Note_off_c, 10, 67, 0
13, 76200, Note_on_c, 10, 55, 127
13, 76200, Note_on_c, 10, 60, 127
13, 76200, Note_on_c, 10, 64, 127
13, 76200, Note_on_c, 10, 67, 127
13, 76316, Note_off_c, 10, 55, 0
13, 76316, Note_off_c, 10, 60, 0
13, 76316, Note_off_c, 10, 64, 0
13, 76316, Note_off_c, 10, 67, 0
13, 76440, Note_on_c, 10, 55, 93
13, 76440, Note_on_c, 10, 60, 93
13, 76440, Note_on_c, 10, 64, 93
13, 76440, Note_on_c, 10, 67, 93
13, 76556, Note_off_c, 10, 55, 0
13, 76556, Note_off_c, 10, 60, 0
13, 76556, Note_off_c, 10, 64, 0
13, 76556, Note_off_c, 10, 67, 0
13, 76560, Note_on_c, 10, 55, 103
13, 76560, Note_on_c, 10, 60, 103
13, 76560, Note_on_c, 10, 64, 103
13, 76560, Note_on_c, 10, 67, 103
13, 76676, Note_off_c, 10, 55, 0
13, 76676, Note_off_c, 10, 60, 0
13, 76676, Note_off_c, 10, 64, 0
13, 76676, Note_off_c, 10, 67, 0
13, 76680, Note_on_c, 10, 55, 118
13, 76680, Note_on_c, 10, 60, 118
13, 76680, Note_on_c, 10, 64, 118
13, 76680, Note_on_c, 10, 67, 118
13, 76796, Note_off_c, 10, 55, 0
13, 76796, Note_off_c, 10, 60, 0
13, 76796, Note_off_c, 10, 64, 0
13, 76796, Note_off_c, 10, 67, 0
13, 76800, Note_on_c, 10, 55, 127
13, 76800, Note_on_c, 10, 59, 127
13, 76800, Note_on_c, 10, 62, 127
13, 76800, Note_on_c, 10, 67, 127
13, 76916, Note_off_c, 10, 55, 0
13, 76916, Note_off_c, 10, 59, 0
13, 76916, Note_off_c, 10, 62, 0
13, 76916, Note_off_c, 10, 67, 0
13, 76920, Note_on_c, 10, 55, 97
13, 76920, Note_on_c, 10, 59, 97
13, 76920, Note_on_c, 10, 62, 97
13, 76920, Note_on_c, 10, 67, 97
13, 77036, Note_off_c, 10, 55, 0
13, 77036, Note_off_c, 10, 59, 0
13, 77036, Note_off_c, 10, 62, 0
13, 77036, Note_off_c, 10, 67, 0
13, 77040, Note_on_c, 10, 55, 108
13, 77040, Note_on_c, 10, 59, 108
13, 77040, Note_on_c, 10, 62, 108
13, 77040, Note_on_c, 10, 67, 108
13, 77156, Note_off_c, 10, 55, 0
13, 77156, Note_off_c, 10, 59, 0
13, 77156, Note_off_c, 10, 62, 0
13, 77156, Note_off_c, 10, 67, 0
13, 77160, Note_on_c, 10, 55, 127
13, 77160, Note_on_c, 10, 59, 127
13, 77160, Note_on_c, 10, 62, 127
13, 77160, Note_on_c, 10, 67, 127
13, 77276, Note_off_c, 10, 55, 0
13, 77276, Note_off_c, 10, 59, 0
13, 77276, Note_off_c, 10, 62, 0
13, 77276, Note_off_c, 10, 67, 0
13, 77400, Note_on_c, 10, 55, 93
13, 77400, Note_on_c, 10, 59, 93
13, 77400, Note_on_c, 10, 62, 93
13, 77400, Note_on_c, 10, 67, 93
13, 77516, Note_off_c, 10, 55, 0
13, 77516, Note_off_c, 10, 59, 0
13, 77516, Note_off_c, 10, 62, 0
13, 77516, Note_off_c, 10, 67, 0
13, 77520, Note_on_c, 10, 55, 103
13, 77520, Note_on_c, 10, 59, 103
13, 77520, Note_on_c, 10, 62, 103
13, 77520, Note_on_c, 10, 67, 103
13, 77636, Note_off_c, 10, 55, 0
13, 77636, Note_off_c, 10, 59, 0
13, 77636, Note_off_c, 10, 62, 0
13, 77636, Note_off_c, 10, 67, 0
13, 77640, Note_on_c, 10, 55, 118
13, 77640, Note_on_c, 10, 59, 118
13, 77640, Note_on_c, 10, 62, 118
13, 77640, Note_on_c, 10, 67, 118
13, 77756, Note_off_c, 10, 55, 0
13, 77756, Note_off_c, 10, 59, 0
13, 77756, Note_off_c, 10, 62, 0
13, 77756, Note_off_c, 10, 67, 0
13, 77760, Note_on_c, 10, 55, 127
13, 77760, Note_on_c, 10, 59, 127
13, 77760, Note_on_c, 10, 62, 127
13, 77760, Note_on_c, 10, 67, 127
13, 77876, Note_off_c, 10, 55, 0
13, 77876, Note_off_c, 10, 59, 0
13, 77876, Note_off_c, 10, 62, 0
13, 77876, Note_off_c, 10, 67, 0
13, 77880, Note_on_c, 10, 55, 97
13, 77880, Note_on_c, 10, 59, 97
13, 77880, Note_on_c, 10, 62, 97
13, 77880, Note_on_c, 10, 67, 97
13, 77996, Note_off_c, 10, 55, 0
13, 77996, Note_off_c, 10, 59, 0
13, 77996, Note_off_c, 10, 62, 0
13, 77996, Note_off_c, 10, 67, 0
13, 78000, Note_on_c, 10, 55, 108
13, 78000, Note_on_c, 10, 59, 108
13, 78000, Note_on_c, 10, 62, 108
13, 78000, Note_on_c, 10, 67, 108
13, 78116, Note_off_c, 10, 55, 0
13, 78116, Note_off_c, 10, 59, 0
13, 78116, Note_off_c, 10, 62, 0
13, 78116, Note_off_c, 10, 67, 0
13, 78120, Note_on_c, 10, 55, 127
13, 78120, Note_on_c, 10, 59, 127
13, 78120, Note_on_c, 10, 62, 127
13, 78120, Note_on_c, 10, 67, 127
13, 78236, Note_off_c, 10, 55, 0
13, 78236, Note_off_c, 10, 59, 0
13, 78236, Note_off_c, 10, 62, 0
13, 78236, Note_off_c, 10, 67, 0
13, 78360, Note_on_c, 10, 55, 93
13, 78360, Note_on_c, 10, 59, 93
13, 78360, Note_on_c, 10, 62, 93
13, 78360, Note_on_c, 10, 67, 93
13, 78476, Note_off_c, 10, 55, 0
13, 78476, Note_off_c, 10, 59, 0
13, 78476, Note_off_c, 10, 62, 0
13, 78476, Note_off_c, 10, 67, 0
13, 78480, Note_on_c, 10, 55, 103
13, 78480, Note_on_c, 10, 59, 103
13, 78480, Note_on_c, 10, 62, 103
13, 78480, Note_on_c, 10, 67, 103
13, 78596, Note_off_c, 10, 55, 0
13, 78596, Note_off_c, 10, 59, 0
13, 78596, Note_off_c, 10, 62, 0
13, 78596, Note_off_c, 10, 67, 0
13, 78600, Note_on_c, 10, 55, 118
13, 78600, Note_on_c, 10, 59, 118
13, 78600, Note_on_c, 10, 62, 118
13, 78600, Note_on_c, 10, 67, 118
13, 78716, Note_off_c, 10, 55, 0
13, 78716, Note_off_c, 10, 59, 0
13, 78716, Note_off_c, 10, 62, 0
13, 78716, Note_off_c, 10, 67, 0
13, 78720, Note_on_c, 10, 55, 127
13, 78720, Note_on_c, 10, 59, 127
13, 78720, Note_on_c, 10, 62, 127
13, 78720, Note_on_c, 10, 67, 127
13, 78836, Note_off_c, 10, 55, 0
13, 78836, Note_off_c, 10, 59, 0
13, 78836, Note_off_c, 10, 62, 0
13, 78836, Note_off_c, 10, 67, 0
13, 78840, Note_on_c, 10, 55, 97
13, 78840, Note_on_c, 10, 59, 97
13, 78840, Note_on_c, 10, 62, 97
13, 78840, Note_on_c, 10, 67, 97
13, 78956, Note_off_c, 10, 55, 0
13, 78956, Note_off_c, 10, 59, 0
13, 78956, Note_off_c, 10, 62, 0
13, 78956, Note_off_c, 10, 67, 0
13, 78960, Note_on_c, 10, 55, 108
13, 78960, Note_on_c, 10, 59, 108
13, 78960, Note_on_c, 10, 62, 108
13, 78960, Note_on_c, 10, 67, 108
13, 79076, Note_off_c, 10, 55, 0
13, 79076, Note_off_c, 10, 59, 0
13, 79076, Note_off_c, 10, 62, 0
13, 79076, Note_off_c, 10, 67, 0
13, 79080, Note_on_c, 10, 55, 127
13, 79080, Note_on_c, 10, 59, 127
13, 79080, Note_on_c, 10, 62, 127
13, 79080, Note_on_c, 10, 67, 127
13, 79196, Note_off_c, 10, 55, 0
13, 79196, Note_off_c, 10, 59, 0
13, 79196, Note_off_c, 10, 62, 0
13, 79196, Note_off_c, 10, 67, 0
13, 79320, Note_on_c, 10, 55, 93
13, 79320, Note_on_c, 10, 59, 93
13, 79320, Note_on_c, 10, 62, 93
13, 79320, Note_on_c, 10, 67, 93
13, 79436, Note_off_c, 10, 55, 0
13, 79436, Note_off_c, 10, 59, 0
13, 79436, Note_off_c, 10, 62, 0
13, 79436, Note_off_c, 10, 67, 0
13, 79440, Note_on_c, 10, 55, 103
13, 79440, Note_on_c, 10, 59, 103
13, 79440, Note_on_c, 10, 62, 103
13, 79440, Note_on_c, 10, 67, 103
13, 79556, Note_off_c, 10, 55, 0
13, 79556, Note_off_c, 10, 59, 0
13, 79556, Note_off_c, 10, 62, 0
13, 79556, Note_off_c, 10, 67, 0
13, 79560, Note_on_c, 10, 55, 118
13, 79560, Note_on_c, 10, 59, 118
13, 79560, Note_on_c, 10, 62, 118
13, 79560, Note_on_c, 10, 67, 118
13, 79676, Note_off_c, 10, 55, 0
13, 79676, Note_off_c, 10, 59, 0
13, 79676, Note_off_c, 10, 62, 0
13, 79676, Note_off_c, 10, 67, 0
13, 79680, Note_on_c, 10, 55, 127
13, 79680, Note_on_c, 10, 59, 127
13, 79680, Note_on_c, 10, 62, 127
13, 79680, Note_on_c, 10, 67, 127
13, 79796, Note_off_c, 10, 55, 0
13, 79796, Note_off_c, 10, 59, 0
13, 79796, Note_off_c, 10, 62, 0
13, 79796, Note_off_c, 10, 67, 0
13, 79800, Note_on_c, 10, 55, 97
13, 79800, Note_on_c, 10, 59, 97
13, 79800, Note_on_c, 10, 62, 97
13, 79800, Note_on_c, 10, 67, 97
13, 79916, Note_off_c, 10, 55, 0
13, 79916, Note_off_c, 10, 59, 0
13, 79916, Note_off_c, 10, 62, 0
13, 79916, Note_off_c, 10, 67, 0
13, 79920, Note_on_c, 10, 55, 108
13, 79920, Note_on_c, 10, 59, 108
13, 79920, Note_on_c, 10, 62, 108
13, 79920, Note_on_c, 10, 67, 108
13, 80036, Note_off_c, 10, 55, 0
13, 80036, Note_off_c, 10, 59, 0
13, 80036, Note_off_c, 10, 62, 0
13, 80036, Note_off_c, 10, 67, 0
13, 80040, Note_on_c, 10, 55, 127
13, 80040, Note_on_c, 10, 59, 127
13, 80040, Note_on_c, 10, 62, 127
13, 80040, Note_on_c, 10, 67, 127
13, 80156, Note_off_c, 10, 55, 0
13, 80156, Note_off_c, 10, 59, 0
13, 80156, Note_off_c, 10, 62, 0
13, 80156, Note_off_c, 10, 67, 0
13, 80280, Note_on_c, 10, 55, 93
13, 80280, Note_on_c, 10, 59, 93
13, 80280, Note_on_c, 10, 62, 93
13, 80280, Note_on_c, 10, 67, 93
13, 80396, Note_off_c, 10, 55, 0
13, 80396, Note_off_c, 10, 59, 0
13, 80396, Note_off_c, 10, 62, 0
13, 80396, Note_off_c, 10, 67, 0
13, 80400, Note_on_c, 10, 55, 103
13, 80400, Note_on_c, 10, 59, 103
13, 80400, Note_on_c, 10, 62, 103
13, 80400, Note_on_c, 10, 67, 103
13, 80516, Note_off_c, 10, 55, 0
13, 80516, Note_off_c, 10, 59, 0
13, 80516, Note_off_c, 10, 62, 0
13, 80516, Note_off_c, 10, 67, 0
13, 80520, Note_on_c, 10, 55, 118
13, 80520, Note_on_c, 10, 59, 118
13, 80520, Note_on_c, 10, 62, 118
13, 80520, Note_on_c, 10, 67, 118
13, 80636, Note_off_c, 10, 55, 0
13, 80636, Note_off_c, 10, 59, 0
13, 80636, Note_off_c, 10, 62, 0
13, 80636, Note_off_c, 10, 67, 0
13, 80640, Note_on_c, 10, 53, 127
13, 80640, Note_on_c, 10, 57, 127
13, 80640, Note_on_c, 10, 62, 127
13, 80640, Note_on_c, 10, 65, 127
13, 80756, Note_off_c, 10, 53, 0
13, 80756, Note_off_c, 10, 57, 0
13, 80756, Note_off_c, 10, 62, 0
13, 80756, Note_off_c, 10, 65, 0
13, 80760, Note_on_c, 10, 53, 97
13, 80760, Note_on_c, 10, 57, 97
13, 80760, Note_on_c, 10, 62, 97
13, 80760, Note_on_c, 10, 65, 97
13, 80876, Note_off_c, 10, 53, 0
13, 80876, Note_off_c, 10, 57, 0
13, 80876, Note_off_c, 10, 62, 0
13, 80876, Note_off_c, 10, 65, 0
13, 80880, Note_on_c, 10, 53, 108
13, 80880, Note_on_c, 10, 57, 108
13, 80880, Note_on_c, 10, 62, 108
13, 80880, Note_on_c, 10, 65, 108
13, 80996, Note_off_c, 10, 53, 0
13, 80996, Note_off_c, 10, 57, 0
13, 80996, Note_off_c, 10, 62, 0
13, 80996, Note_off_c, 10, 65, 0
13, 81000, Note_on_c, 10, 53, 127
13, 81000, Note_on_c, 10, 57, 127
13, 81000, Note_on_c, 10, 62, 127
13, 81000, Note_on_c, 10, 65, 127
13, 81116, Note_off_c, 10, 53, 0
13, 81116, Note_off_c, 10, 57, 0
13, 81116, Note_off_c, 10, 62, 0
13, 81116, Note_off_c, 10, 65, 0
13, 81240, Note_on_c, 10, 53, 93
13, 81240, Note_on_c, 10, 57, 93
13, 81240, Note_on_c, 10, 62, 93
13, 81240, Note_on_c, 10, 65, 93
13, 81356, Note_off_c, 10, 53, 0
13, 81356, Note_off_c, 10, 57, 0
13, 81356, Note_off_c, 10, 62, 0
13, 81356, Note_off_c, 10, 65, 0
13, 81360, Note_on_c, 10, 53, 103
13, 81360, Note_on_c, 10, 57, 103
13, 81360, Note_on_c, 10, 62, 103
13, 81360, Note_on_c, 10, 65, 103
13, 81476, Note_off_c, 10, 53, 0
13, 81476, Note_off_c, 10, 57, 0
13, 81476, Note_off_c, 10, 62, 0
13, 81476, Note_off_c, 10, 65, 0
13, 81480, Note_on_c, 10, 53, 118
13, 81480, Note_on_c, 10, 57, 118
13, 81480, Note_on_c, 10, 62, 118
13, 81480, Note_on_c, 10, 65, 118
13, 81596, Note_off_c, 10, 53, 0
13, 81596, Note_off_c, 10, 57, 0
13, 81596, Note_off_c, 10, 62, 0
13, 81596, Note_off_c, 10, 65, 0
13, 81600, Note_on_c, 10, 53, 127
13, 81600, Note_on_c, 10, 57, 127
13, 81600, Note_on_c, 10, 62, 127
13, 81600, Note_on_c, 10, 65, 127
13, 81716, Note_off_c, 10, 53, 0
13, 81716, Note_off_c, 10, 57, 0
13, 81716, Note_off_c, 10, 62, 0
13, 81716, Note_off_c, 10, 65, 0
13, 81720, Note_on_c, 10, 53, 97
13, 81720, Note_on_c, 10, 57, 97
13, 81720, Note_on_c, 10, 62, 97
13, 81720, Note_on_c, 10, 65, 97
13, 81836, Note_off_c, 10, 53, 0
13, 81836, Note_off_c, 10, 57, 0
13, 81836, Note_off_c, 10, 62, 0
13, 81836, Note_off_c, 10, 65, 0
13, 81840, Note_on_c, 10, 53, 108
13, 81840, Note_on_c, 10, 57, 108
13, 81840, Note_on_c, 10, 62, 108
13, 81840, Note_on_c, 10, 65, 108
13, 81956, Note_off_c, 10, 53, 0
13, 81956, Note_off_c, 10, 57, 0
13, 81956, Note_off_c, 10, 62, 0
13, 81956, Note_off_c, 10, 65, 0
13, 81960, Note_on_c, 10, 53, 127
13, 81960, Note_on_c, 10, 57, 127
13, 81960, Note_on_c, 10, 62, 127
13, 81960, Note_on_c, 10, 65, 127
13, 82076, Note_off_c, 10, 53, 0
13, 82076, Note_off_c, 10, 57, 0
13, 82076, Note_off_c, 10, 62, 0
13, 82076, Note_off_c, 10, 65, 0
13, 82200, Note_on_c, 10, 53, 93
13, 82200, Note_on_c, 10, 57, 93
13, 82200, Note_on_c, 10, 62, 93
13, 82200, Note_on_c, 10, 65, 93
13, 82316, Note_off_c, 10, 53, 0
13, 82316, Note_off_c, 10, 57, 0
13, 82316, Note_off_c, 10, 62, 0
13, 82316, Note_off_c, 10, 65, 0
13, 82320, Note_on_c, 10, 53, 103
13, 82320, Note_on_c, 10, 57, 103
13, 82320, Note_on_c, 10, 62, 103
13, 82320, Note_on_c, 10, 65, 103
13, 82436, Note_off_c, 10, 53, 0
13, 82436, Note_off_c, 10, 57, 0
13, 82436, Note_off_c, 10, 62, 0
13, 82436, Note_off_c, 10, 65, 0
13, 82440, Note_on_c, 10, 53, 118
13, 82440, Note_on_c, 10, 57, 118
13, 82440, Note_on_c, 10, 62, 118
13, 82440, Note_on_c, 10, 65, 118
13, 82556, Note_off_c, 10, 53, 0
13, 82556, Note_off_c, 10, 57, 0
13, 82556, Note_off_c, 10, 62, 0
13, 82556, Note_off_c, 10, 65, 0
13, 82560, Note_on_c, 10, 53, 127
13, 82560, Note_on_c, 10, 57, 127
13, 82560, Note_on_c, 10, 60, 127
13, 82560, Note_on_c, 10, 65, 127
13, 82676, Note_off_c, 10, 53, 0
13, 82676, Note_off_c, 10, 57, 0
13, 82676, Note_off_c, 10, 60, 0
13, 82676, Note_off_c, 10, 65, 0
13, 82680, Note_on_c, 10, 53, 97
13, 82680, Note_on_c, 10, 57, 97
13, 82680, Note_on_c, 10, 60, 97
13, 82680, Note_on_c, 10, 65, 97
13, 82796, Note_off_c, 10, 53, 0
13, 82796, Note_off_c, 10, 57, 0
13, 82796, Note_off_c, 10, 60, 0
13, 82796, Note_off_c, 10, 65, 0
13, 82800, Note_on_c, 10, 53, 108
13, 82800, Note_on_c, 10, 57, 108
13, 82800, Note_on_c, 10, 60, 108
13, 82800, Note_on_c, 10, 65, 108
13, 82916, Note_off_c, 10, 53, 0
13, 82916, Note_off_c, 10, 57, 0
13, 82916, Note_off_c, 10, 60, 0
13, 82916, Note_off_c, 10, 65, 0
13, 82920, Note_on_c, 10, 53, 127
13, 82920, Note_on_c, 10, 57, 127
13, 82920, Note_on_c, 10, 60, 127
13, 82920, Note_on_c, 10, 65, 127
13, 83036, Note_off_c, 10, 53, 0
13, 83036, Note_off_c, 10, 57, 0
13, 83036, Note_off_c, 10, 60, 0
13, 83036, Note_off_c, 10, 65, 0
13, 83160, Note_on_c, 10, 53, 93
13, 83160, Note_on_c, 10, 57, 93
13, 83160, Note_on_c, 10, 60, 93
13, 83160, Note_on_c, 10, 65, 93
13, 83276, Note_off_c, 10, 53, 0
13, 83276, Note_off_c, 10, 57, 0
13, 83276, Note_off_c, 10, 60, 0
13, 83276, Note_off_c, 10, 65, 0
13, 83280, Note_on_c, 10, 53, 103
13, 83280, Note_on_c, 10, 57, 103
13, 83280, Note_on_c, 10, 60, 103
13, 83280, Note_on_c, 10, 65, 103
13, 83396, Note_off_c, 10, 53, 0
13, 83396, Note_off_c, 10, 57, 0
13, 83396, Note_off_c, 10, 60, 0
13, 83396, Note_off_c, 10, 65, 0
13, 83400, Note_on_c, 10, 53, 118
13, 83400, Note_on_c, 10, 57, 118
13, 83400, Note_on_c, 10, 60, 118
13, 83400, Note_on_c, 10, 65, 118
13, 83516, Note_off_c, 10, 53, 0
13, 83516, Note_off_c, 10, 57, 0
13, 83516, Note_off_c, 10, 60, 0
13, 83516, Note_off_c, 10, 65, 0
13, 83520, Note_on_c, 10, 55, 127
13, 83520, Note_on_c, 10, 60, 127
13, 83520, Note_on_c, 10, 64, 127
13, 83520, Note_on_c, 10, 67, 127
13, 83636, Note_off_c, 10, 55, 0
13, 83636, Note_off_c, 10, 60, 0
13, 83636, Note_off_c, 10, 64, 0
13, 83636, Note_off_c, 10, 67, 0
13, 83640, Note_on_c, 10, 55, 97
13, 83640, Note_on_c, 10, 60, 97
13, 83640, Note_on_c, 10, 64, 97
13, 83640, Note_on_c, 10, 67, 97
13, 83756, Note_off_c, 10, 55, 0
13, 83756, Note_off_c, 10, 60, 0
13, 83756, Note_off_c, 10, 64, 0
13, 83756, Note_off_c, 10, 67, 0
13, 83760, Note_on_c, 10, 55, 108
13, 83760, Note_on_c, 10, 60, 108
13, 83760, Note_on_c, 10, 64, 108
13, 83760, Note_on_c, 10, 67, 108
13, 83876, Note_off_c, 10, 55, 0
13, 83876, Note_off_c, 10, 60, 0
13, 83876, Note_off_c, 10, 64, 0
13, 83876, Note_off_c, 10, 67, 0
13, 83880, Note_on_c, 10, 55, 127
13, 83880, Note_on_c, 10, 60, 127
13, 83880, Note_on_c, 10, 64, 127
13, 83880, Note_on_c, 10, 67, 127
13, 83996, Note_off_c, 10, 55, 0
13, 83996, Note_off_c, 10, 60, 0
13, 83996, Note_off_c, 10, 64, 0
13, 83996, Note_off_c, 10, 67, 0
13, 84120, Note_on_c, 10, 55, 93
13, 84120, Note_on_c, 10, 60, 93
13, 84120, Note_on_c, 10, 64, 93
13, 84120, Note_on_c, 10, 67, 93
13, 84236, Note_off_c, 10, 55, 0
13, 84236, Note_off_c, 10, 60, 0
13, 84236, Note_off_c, 10, 64, 0
13, 84236, Note_off_c, 10, 67, 0
13, 84240, Note_on_c, 10, 55, 103
13, 84240, Note_on_c, 10, 60, 103
13, 84240, Note_on_c, 10, 64, 103
13, 84240, Note_on_c, 10, 67, 103
13, 84356, Note_off_c, 10, 55, 0
13, 84356, Note_off_c, 10, 60, 0
13, 84356, Note_off_c, 10, 64, 0
13, 84356, Note_off_c, 10, 67, 0
13, 84360, Note_on_c, 10, 55, 118
13, 84360, Note_on_c, 10, 60, 118
13, 84360, Note_on_c, 10, 64, 118
13, 84360, Note_on_c, 10, 67, 118
13, 84476, Note_off_c, 10, 55, 0
13, 84476, Note_off_c, 10, 60, 0
13, 84476, Note_off_c, 10, 64, 0
13, 84476, Note_off_c, 10, 67, 0
13, 84480, Note_on_c, 10, 55, 127
13, 84480, Note_on_c, 10, 59, 127
13, 84480, Note_on_c, 10, 62, 127
13, 84480, Note_on_c, 10, 67, 127
13, 84596, Note_off_c, 10, 55, 0
13, 84596, Note_off_c, 10, 59, 0
13, 84596, Note_off_c, 10, 62, 0
13, 84596, Note_off_c, 10, 67, 0
13, 84600, Note_on_c, 10, 55, 97
13, 84600, Note_on_c, 10, 59, 97
13, 84600, Note_on_c, 10, 62, 97
13, 84600, Note_on_c, 10, 67, 97
13, 84716, Note_off_c, 10, 55, 0
13, 84716, Note_off_c, 10, 59, 0
13, 84716, Note_off_c, 10, 62, 0
13, 84716, Note_off_c, 10, 67, 0
13, 84720, Note_on_c, 10, 55, 108
13, 84720, Note_on_c, 10, 59, 108
13, 84720, Note_on_c, 10, 62, 108
13, 84720, Note_on_c, 10, 67, 108
13, 84836, Note_off_c, 10, 55, 0
13, 84836, Note_off_c, 10, 59, 0
13, 84836, Note_off_c, 10, 62, 0
13, 84836, Note_off_c, 10, 67, 0
13, 84840, Note_on_c, 10, 55, 127
13, 84840, Note_on_c, 10, 59, 127
13, 84840, Note_on_c, 10, 62, 127
13, 84840, Note_on_c, 10, 67, 127
13, 84956, Note_off_c, 10, 55, 0
13, 84956, Note_off_c, 10, 59, 0
13, 84956, Note_off_c, 10, 62, 0
13, 84956, Note_off_c, 10, 67, 0
13, 85080, Note_on_c, 10, 55, 93
13, 85080, Note_on_c, 10, 59, 93
13, 85080, Note_on_c, 10, 62, 93
13, 85080, Note_on_c, 10, 67, 93
13, 85196, Note_off_c, 10, 55, 0
13, 85196, Note_off_c, 10, 59, 0
13, 85196, Note_off_c, 10, 62, 0
13, 85196, Note_off_c, 10, 67, 0
13, 85200, Note_on_c, 10, 55, 103
13, 85200, Note_on_c, 10, 59, 103
13, 85200, Note_on_c, 10, 62, 103
13, 85200, Note_on_c, 10, 67, 103
13, 85316, Note_off_c, 10, 55, 0
13, 85316, Note_off_c, 10, 59, 0
13, 85316, Note_off_c, 10, 62, 0
13, 85316, Note_off_c, 10, 67, 0
13, 85320, Note_on_c, 10, 55, 118
13, 85320, Note_on_c, 10, 59, 118
13, 85320, Note_on_c, 10, 62, 118
13, 85320, Note_on_c, 10, 67, 118
13, 85436, Note_off_c, 10, 55, 0
13, 85436, Note_off_c, 10, 59, 0
13, 85436, Note_off_c, 10, 62, 0
13, 85436, Note_off_c, 10, 67, 0
13, 85440, Note_on_c, 10, 55, 127
13, 85440, Note_on_c, 10, 59, 127
13, 85440, Note_on_c, 10, 62, 127
13, 85440, Note_on_c, 10, 67, 127
13, 85556, Note_off_c, 10, 55, 0
13, 85556, Note_off_c, 10, 59, 0
13, 85556, Note_off_c, 10, 62, 0
13, 85556, Note_off_c, 10, 67, 0
13, 86400, Note_on_c, 10, 57, 127
13, 86400, Note_on_c, 10, 60, 127
13, 86400, Note_on_c, 10, 64, 127
13, 86400, Note_on_c, 10, 69, 127
13, 86516, Note_off_c, 10, 57, 0
13, 86516, Note_off_c, 10, 60, 0
13, 86516, Note_off_c, 10, 64, 0
13, 86516, Note_off_c, 10, 69, 0
13, 86520, Note_on_c, 10, 57, 97
13, 86520, Note_on_c, 10, 60, 97
13, 86520, Note_on_c, 10, 64, 97
13, 86520, Note_on_c, 10, 69, 97
13, 86636, Note_off_c, 10, 57, 0
13, 86636, Note_off_c, 10, 60, 0
13, 86636, Note_off_c, 10, 64, 0
13, 86636, Note_off_c, 10, 69, 0
13, 86640, Note_on_c, 10, 57, 108
13, 86640, Note_on_c, 10, 60, 108
13, 86640, Note_on_c, 10, 64, 108
13, 86640, Note_on_c, 10, 69, 108
13, 86756, Note_off_c, 10, 57, 0
13, 86756, Note_off_c, 10, 60, 0
13, 86756, Note_off_c, 10, 64, 0
13, 86756, Note_off_c, 10, 69, 0
13, 86760, Note_on_c, 10, 57, 127
13, 86760, Note_on_c, 10, 60, 127
13, 86760, Note_on_c, 10, 64, 127
13, 86760, Note_on_c, 10, 69, 127
13, 86876, Note_off_c, 10, 57, 0
13, 86876, Note_off_c, 10, 60, 0
13, 86876, Note_off_c, 10, 64, 0
13, 86876, Note_off_c, 10, 69, 0
13, 87000, Note_on_c, 10, 57, 93
13, 87000, Note_on_c, 10, 60, 93
13, 87000, Note_on_c, 10, 64, 93
13, 87000, Note_on_c, 10, 69, 93
13, 87116, Note_off_c, 10, 57, 0
13, 87116, Note_off_c, 10, 60, 0
13, 87116, Note_off_c, 10, 64, 0
13, 87116, Note_off_c, 10, 69, 0
13, 87120, Note_on_c, 10, 57, 103
13, 87120, Note_on_c, 10, 60, 103
13, 87120, Note_on_c, 10, 64, 103
13, 87120, Note_on_c, 10, 69, 103
13, 87236, Note_off_c, 10, 57, 0
13, 87236, Note_off_c, 10, 60, 0
13, 87236, Note_off_c, 10, 64, 0
13, 87236, Note_off_c, 10, 69, 0
13, 87240, Note_on_c, 10, 57, 118
13, 87240, Note_on_c, 10, 60, 118
13, 87240, Note_on_c, 10, 64, 118
13, 87240, Note_on_c, 10, 69, 118
13, 87356, Note_off_c, 10, 57, 0
13, 87356, Note_off_c, 10, 60, 0
13, 87356, Note_off_c, 10, 64, 0
13, 87356, Note_off_c, 10, 69, 0
13, 87360, Note_on_c, 10, 57, 127
13, 87360, Note_on_c, 10, 60, 127
13, 87360, Note_on_c, 10, 64, 127
13, 87360, Note_on_c, 10, 69, 127
13, 87476, Note_off_c, 10, 57, 0
13, 87476, Note_off_c, 10, 60, 0
13, 87476, Note_off_c, 10, 64, 0
13, 87476, Note_off_c, 10, 69, 0
13, 87480, Note_on_c, 10, 57, 99
13, 87480, Note_on_c, 10, 60, 99
13, 87480, Note_on_c, 10, 64, 99
13, 87480, Note_on_c, 10, 69, 99
13, 87596, Note_off_c, 10, 57, 0
13, 87596, Note_off_c, 10, 60, 0
13, 87596, Note_off_c, 10, 64, 0
13, 87596, Note_off_c, 10, 69, 0
13, 87600, Note_on_c, 10, 57, 113
13, 87600, Note_on_c, 10, 60, 113
13, 87600, Note_on_c, 10, 64, 113
13, 87600, Note_on_c, 10, 69, 113
13, 87716, Note_off_c, 10, 57, 0
13, 87716, Note_off_c, 10, 60, 0
13, 87716, Note_off_c, 10, 64, 0
13, 87716, Note_off_c, 10, 69, 0
13, 87720, Note_on_c, 10, 57, 127
13, 87720, Note_on_c, 10, 60, 127
13, 87720, Note_on_c, 10, 64, 127
13, 87720, Note_on_c, 10, 69, 127
13, 87836, Note_off_c, 10, 57, 0
13, 87836, Note_off_c, 10, 60, 0
13, 87836, Note_off_c, 10, 64, 0
13, 87836, Note_off_c, 10, 69, 0
13, 87960, Note_on_c, 10, 57, 92
13, 87960, Note_on_c, 10, 60, 92
13, 87960, Note_on_c, 10, 64, 92
13, 87960, Note_on_c, 10, 69, 92
13, 88076, Note_off_c, 10, 57, 0
13, 88076, Note_off_c, 10, 60, 0
13, 88076, Note_off_c, 10, 64, 0
13, 88076, Note_off_c, 10, 69, 0
13, 88080, Note_on_c, 10, 57, 101
13, 88080, Note_on_c, 10, 60, 101
13, 88080, Note_on_c, 10, 64, 101
13, 88080, Note_on_c, 10, 69, 101
13, 88196, Note_off_c, 10, 57, 0
13, 88196, Note_off_c, 10, 60, 0
13, 88196, Note_off_c, 10, 64, 0
13, 88196, Note_off_c, 10, 69, 0
13, 88200, Note_on_c, 10, 57, 110
13, 88200, Note_on_c, 10, 60, 110
13, 88200, Note_on_c, 10, 64, 110
13, 88200, Note_on_c, 10, 69, 110
13, 88316, Note_off_c, 10, 57, 0
13, 88316, Note_off_c, 10, 60, 0
13, 88316, Note_off_c, 10, 64, 0
13, 88316, Note_off_c, 10, 69, 0
13, 88320, Note_on_c, 10, 57, 127
13, 88320, Note_on_c, 10, 60, 127
13, 88320, Note_on_c, 10, 64, 127
13, 88320, Note_on_c, 10, 69, 127
13, 88436, Note_off_c, 10, 57, 0
13, 88436, Note_off_c, 10, 60, 0
13, 88436, Note_off_c, 10, 64, 0
13, 88436, Note_off_c, 10, 69, 0
13, 88440, Note_on_c, 10, 57, 97
13, 88440, Note_on_c, 10, 60, 97
13, 88440, Note_on_c, 10, 64, 97
13, 88440, Note_on_c, 10, 69, 97
13, 88556, Note_off_c, 10, 57, 0
13, 88556, Note_off_c, 10, 60, 0
13, 88556, Note_off_c, 10, 64, 0
13, 88556, Note_off_c, 10, 69, 0
13, 88560, Note_on_c, 10, 57, 108
13, 88560, Note_on_c, 10, 60, 108
13, 88560, Note_on_c, 10, 64, 108
13, 88560, Note_on_c, 10, 69, 108
13, 88676, Note_off_c, 10, 57, 0
13, 88676, Note_off_c, 10, 60, 0
13, 88676, Note_off_c, 10, 64, 0
13, 88676, Note_off_c, 10, 69, 0
13, 88680, Note_on_c, 10, 57, 127
13, 88680, Note_on_c, 10, 60, 127
13, 88680, Note_on_c, 10, 64, 127
13, 88680, Note_on_c, 10, 69, 127
13, 88796, Note_off_c, 10, 57, 0
13, 88796, Note_off_c, 10, 60, 0
13, 88796, Note_off_c, 10, 64, 0
13, 88796, Note_off_c, 10, 69, 0
13, 88920, Note_on_c, 10, 57, 93
13, 88920, Note_on_c, 10, 60, 93
13, 88920, Note_on_c, 10, 64, 93
13, 88920, Note_on_c, 10, 69, 93
13, 89036, Note_off_c, 10, 57, 0
13, 89036, Note_off_c, 10, 60, 0
13, 89036, Note_off_c, 10, 64, 0
13, 89036, Note_off_c, 10, 69, 0
13, 89040, Note_on_c, 10, 57, 103
13, 89040, Note_on_c, 10, 60, 103
13, 89040, Note_on_c, 10, 64, 103
13, 89040, Note_on_c, 10, 69, 103
13, 89156, Note_off_c, 10, 57, 0
13, 89156, Note_off_c, 10, 60, 0
13, 89156, Note_off_c, 10, 64, 0
13, 89156, Note_off_c, 10, 69, 0
13, 89160, Note_on_c, 10, 57, 118
13, 89160, Note_on_c, 10, 60, 118
13, 89160, Note_on_c, 10, 64, 118
13, 89160, Note_on_c, 10, 69, 118
13, 89276, Note_off_c, 10, 57, 0
13, 89276, Note_off_c, 10, 60, 0
13, 89276, Note_off_c, 10, 64, 0
13, 89276, Note_off_c, 10, 69, 0
13, 89280, Note_on_c, 10, 57, 127
13, 89280, Note_on_c, 10, 60, 127
13, 89280, Note_on_c, 10, 64, 127
13, 89280, Note_on_c, 10, 69, 127
13, 89396, Note_off_c, 10, 57, 0
13, 89396, Note_off_c, 10, 60, 0
13, 89396, Note_off_c, 10, 64, 0
13, 89396, Note_off_c, 10, 69, 0
13, 89400, Note_on_c, 10, 57, 99
13, 89400, Note_on_c, 10, 60, 99
13, 89400, Note_on_c, 10, 64, 99
13, 89400, Note_on_c, 10, 69, 99
13, 89516, Note_off_c, 10, 57, 0
13, 89516, Note_off_c, 10, 60, 0
13, 89516, Note_off_c, 10, 64, 0
13, 89516, Note_off_c, 10, 69, 0
13, 89520, Note_on_c, 10, 57, 113
13, 89520, Note_on_c, 10, 60, 113
13, 89520, Note_on_c, 10, 64, 113
13, 89520, Note_on_c, 10, 69, 113
13, 89636, Note_off_c, 10, 57, 0
13, 89636, Note_off_c, 10, 60, 0
13, 89636, Note_off_c, 10, 64, 0
13, 89636, Note_off_c, 10, 69, 0
13, 89640, Note_on_c, 10, 57, 127
13, 89640, Note_on_c, 10, 60, 127
13, 89640, Note_on_c, 10, 64, 127
13, 89640, Note_on_c, 10, 69, 127
13, 89756, Note_off_c, 10, 57, 0
13, 89756, Note_off_c, 10, 60, 0
13, 89756, Note_off_c, 10, 64, 0
13, 89756, Note_off_c, 10, 69, 0
13, 89880, Note_on_c, 10, 57, 92
13, 89880, Note_on_c, 10, 60, 92
13, 89880, Note_on_c, 10, 64, 92
13, 89880, Note_on_c, 10, 69, 92
13, 89996, Note_off_c, 10, 57, 0
13, 89996, Note_off_c, 10, 60, 0
13, 89996, Note_off_c, 10, 64, 0
13, 89996, Note_off_c, 10, 69, 0
13, 90000, Note_on_c, 10, 57, 101
13, 90000, Note_on_c, 10, 60, 101
13, 90000, Note_on_c, 10, 64, 101
13, 90000, Note_on_c, 10, 69, 101
13, 90116, Note_off_c, 10, 57, 0
13, 90116, Note_off_c, 10, 60, 0
13, 90116, Note_off_c, 10, 64, 0
13, 90116, Note_off_c, 10, 69, 0
13, 90120, Note_on_c, 10, 57, 110
13, 90120, Note_on_c, 10, 60, 110
13, 90120, Note_on_c, 10, 64, 110
13, 90120, Note_on_c, 10, 69, 110
13, 90236, Note_off_c, 10, 57, 0
13, 90236, Note_off_c, 10, 60, 0
13, 90236, Note_off_c, 10, 64, 0
13, 90236, Note_off_c, 10, 69, 0
13, 90240, Note_on_c, 10, 55, 127
13, 90240, Note_on_c, 10, 59, 127
13, 90240, Note_on_c, 10, 62, 127
13, 90240, Note_on_c, 10, 67, 127
13, 90356, Note_off_c, 10, 55, 0
13, 90356, Note_off_c, 10, 59, 0
13, 90356, Note_off_c, 10, 62, 0
13, 90356, Note_off_c, 10, 67, 0
13, 90360, Note_on_c, 10, 55, 97
13, 90360, Note_on_c, 10, 59, 97
13, 90360, Note_on_c, 10, 62, 97
13, 90360, Note_on_c, 10, 67, 97
13, 90476, Note_off_c, 10, 55, 0
13, 90476, Note_off_c, 10, 59, 0
13, 90476, Note_off_c, 10, 62, 0
13, 90476, Note_off_c, 10, 67, 0
13, 90480, Note_on_c, 10, 55, 108
13, 90480, Note_on_c, 10, 59, 108
13, 90480, Note_on_c, 10, 62, 108
13, 90480, Note_on_c, 10, 67, 108
13, 90596, Note_off_c, 10, 55, 0
13, 90596, Note_off_c, 10, 59, 0
13, 90596, Note_off_c, 10, 62, 0
13, 90596, Note_off_c, 10, 67, 0
13, 90600, Note_on_c, 10, 55, 127
13, 90600, Note_on_c, 10, 59, 127
13, 90600, Note_on_c, 10, 62, 127
13, 90600, Note_on_c, 10, 67, 127
13, 90716, Note_off_c, 10, 55, 0
13, 90716, Note_off_c, 10, 59, 0
13, 90716, Note_off_c, 10, 62, 0
13, 90716, Note_off_c, 10, 67, 0
13, 90840, Note_on_c, 10, 55, 93
13, 90840, Note_on_c, 10, 59, 93
13, 90840, Note_on_c, 10, 62, 93
13, 90840, Note_on_c, 10, 67, 93
13, 90956, Note_off_c, 10, 55, 0
13, 90956, Note_off_c, 10, 59, 0
13, 90956, Note_off_c, 10, 62, 0
13, 90956, Note_off_c, 10, 67, 0
13, 90960, Note_on_c, 10, 55, 103
13, 90960, Note_on_c, 10, 59, 103
13, 90960, Note_on_c, 10, 62, 103
13, 90960, Note_on_c, 10, 67, 103
13, 91076, Note_off_c, 10, 55, 0
13, 91076, Note_off_c, 10, 59, 0
13, 91076, Note_off_c, 10, 62, 0
13, 91076, Note_off_c, 10, 67, 0
13, 91080, Note_on_c, 10, 55, 118
13, 91080, Note_on_c, 10, 59, 118
13, 91080, Note_on_c, 10, 62, 118
13, 91080, Note_on_c, 10, 67, 118
13, 91196, Note_off_c, 10, 55, 0
13, 91196, Note_off_c, 10, 59, 0
13, 91196, Note_off_c, 10, 62, 0
13, 91196, Note_off_c, 10, 67, 0
13, 91200, Note_on_c, 10, 57, 127
13, 91200, Note_on_c, 10, 60, 127
13, 91200, Note_on_c, 10, 65, 127
13, 91200, Note_on_c, 10, 69, 127
13, 91316, Note_off_c, 10, 57, 0
13, 91316, Note_off_c, 10, 60, 0
13, 91316, Note_off_c, 10, 65, 0
13, 91316, Note_off_c, 10, 69, 0
13, 91320, Note_on_c, 10, 57, 99
13, 91320, Note_on_c, 10, 60, 99
13, 91320, Note_on_c, 10, 65, 99
13, 91320, Note_on_c, 10, 69, 99
13, 91436, Note_off_c, 10, 57, 0
13, 91436, Note_off_c, 10, 60, 0
13, 91436, Note_off_c, 10, 65, 0
13, 91436, Note_off_c, 10, 69, 0
13, 91440, Note_on_c, 10, 57, 113
13, 91440, Note_on_c, 10, 60, 113
13, 91440, Note_on_c, 10, 65, 113
13, 91440, Note_on_c, 10, 69, 113
13, 91556, Note_off_c, 10, 57, 0
13, 91556, Note_off_c, 10, 60, 0
13, 91556, Note_off_c, 10, 65, 0
13, 91556, Note_off_c, 10, 69, 0
13, 91560, Note_on_c, 10, 57, 127
13, 91560, Note_on_c, 10, 60, 127
13, 91560, Note_on_c, 10, 65, 127
13, 91560, Note_on_c, 10, 69, 127
13, 91676, Note_off_c, 10, 57, 0
13, 91676, Note_off_c, 10, 60, 0
13, 91676, Note_off_c, 10, 65, 0
13, 91676, Note_off_c, 10, 69, 0
13, 91800, Note_on_c, 10, 57, 92
13, 91800, Note_on_c, 10, 60, 92
13, 91800, Note_on_c, 10, 65, 92
13, 91800, Note_on_c, 10, 69, 92
13, 91916, Note_off_c, 10, 57, 0
13, 91916, Note_off_c, 10, 60, 0
13, 91916, Note_off_c, 10, 65, 0
13, 91916, Note_off_c, 10, 69, 0
13, 91920, Note_on_c, 10, 57, 101
13, 91920, Note_on_c, 10, 60, 101
13, 91920, Note_on_c, 10, 65, 101
13, 91920, Note_on_c, 10, 69, 101
13, 92036, Note_off_c, 10, 57, 0
13, 92036, Note_off_c, 10, 60, 0
13, 92036, Note_off_c, 10, 65, 0
13, 92036, Note_off_c, 10, 69, 0
13, 92040, Note_on_c, 10, 57, 110
13, 92040, Note_on_c, 10, 60, 110
13, 92040, Note_on_c, 10, 65, 110
13, 92040, Note_on_c, 10, 69, 110
13, 92156, Note_off_c, 10, 57, 0
13, 92156, Note_off_c, 10, 60, 0
13, 92156, Note_off_c, 10, 65, 0
13, 92156, Note_off_c, 10, 69, 0
13, 92160, Note_on_c, 10, 52, 127
13, 92160, Note_on_c, 10, 55, 127
13, 92160, Note_on_c, 10, 60, 127
13, 92160, Note_on_c, 10, 64, 127
13, 92276, Note_off_c, 10, 52, 0
13, 92276, Note_off_c, 10, 55, 0
13, 92276, Note_off_c, 10, 60, 0
13, 92276, Note_off_c, 10, 64, 0
13, 92280, Note_on_c, 10, 52, 97
13, 92280, Note_on_c, 10, 55, 97
13, 92280, Note_on_c, 10, 60, 97
13, 92280, Note_on_c, 10, 64, 97
13, 92396, Note_off_c, 10, 52, 0
13, 92396, Note_off_c, 10, 55, 0
13, 92396, Note_off_c, 10, 60, 0
13, 92396, Note_off_c, 10, 64, 0
13, 92400, Note_on_c, 10, 52, 108
13, 92400, Note_on_c, 10, 55, 108
13, 92400, Note_on_c, 10, 60, 108
13, 92400, Note_on_c, 10, 64, 108
13, 92516, Note_off_c, 10, 52, 0
13, 92516, Note_off_c, 10, 55, 0
13, 92516, Note_off_c, 10, 60, 0
13, 92516, Note_off_c, 10, 64, 0
13, 92520, Note_on_c, 10, 52, 127
13, 92520, Note_on_c, 10, 55, 127
13, 92520, Note_on_c, 10, 60, 127
13, 92520, Note_on_c, 10, 64, 127
13, 92636, Note_off_c, 10, 52, 0
13, 92636, Note_off_c, 10, 55, 0
13, 92636, Note_off_c, 10, 60, 0
13, 92636, Note_off_c, 10, 64, 0
13, 92760, Note_on_c, 10, 52, 93
13, 92760, Note_on_c, 10, 55, 93
13, 92760, Note_on_c, 10, 60, 93
13, 92760, Note_on_c, 10, 64, 93
13, 92876, Note_off_c, 10, 52, 0
13, 92876, Note_off_c, 10, 55, 0
13, 92876, Note_off_c, 10, 60, 0
13, 92876, Note_off_c, 10, 64, 0
13, 92880, Note_on_c, 10, 52, 103
13, 92880, Note_on_c, 10, 55, 103
13, 92880, Note_on_c, 10, 60, 103
13, 92880, Note_on_c, 10, 64, 103
13, 92996, Note_off_c, 10, 52, 0
13, 92996, Note_off_c, 10, 55, 0
13, 92996, Note_off_c, 10, 60, 0
13, 92996, Note_off_c, 10, 64, 0
13, 93000, Note_on_c, 10, 52, 118
13, 93000, Note_on_c, 10, 55, 118
13, 93000, Note_on_c, 10, 60, 118
13, 93000, Note_on_c, 10, 64, 118
13, 93116, Note_off_c, 10, 52, 0
13, 93116, Note_off_c, 10, 55, 0
13, 93116, Note_off_c, 10, 60, 0
13, 93116, Note_off_c, 10, 64, 0
13, 93120, Note_on_c, 10, 52, 127
13, 93120, Note_on_c, 10, 55, 127
13, 93120, Note_on_c, 10, 60, 127
13, 93120, Note_on_c, 10, 64, 127
13, 93236, Note_off_c, 10, 52, 0
13, 93236, Note_off_c, 10, 55, 0
13, 93236, Note_off_c, 10, 60, 0
13, 93236, Note_off_c, 10, 64, 0
13, 93240, Note_on_c, 10, 52, 97
13, 93240, Note_on_c, 10, 55, 97
13, 93240, Note_on_c, 10, 60, 97
13, 93240, Note_on_c, 10, 64, 97
13, 93356, Note_off_c, 10, 52, 0
13, 93356, Note_off_c, 10, 55, 0
13, 93356, Note_off_c, 10, 60, 0
13, 93356, Note_off_c, 10, 64, 0
13, 93360, Note_on_c, 10, 52, 108
13, 93360, Note_on_c, 10, 55, 108
13, 93360, Note_on_c, 10, 60, 108
13, 93360, Note_on_c, 10, 64, 108
13, 93476, Note_off_c, 10, 52, 0
13, 93476, Note_off_c, 10, 55, 0
13, 93476, Note_off_c, 10, 60, 0
13, 93476, Note_off_c, 10, 64, 0
13, 93480, Note_on_c, 10, 52, 127
13, 93480, Note_on_c, 10, 55, 127
13, 93480, Note_on_c, 10, 60, 127
13, 93480, Note_on_c, 10, 64, 127
13, 93596, Note_off_c, 10, 52, 0
13, 93596, Note_off_c, 10, 55, 0
13, 93596, Note_off_c, 10, 60, 0
13, 93596, Note_off_c, 10, 64, 0
13, 93600, Note_on_c, 10, 48, 122
13, 93720, Note_on_c, 10, 52, 93
13, 93720, Note_on_c, 10, 55, 93
13, 93720, Note_on_c, 10, 60, 93
13, 93720, Note_on_c, 10, 64, 93
13, 93811, Note_off_c, 10, 48, 0
13, 93836, Note_off_c, 10, 52, 0
13, 93836, Note_off_c, 10, 55, 0
13, 93836, Note_off_c, 10, 60, 0
13, 93836, Note_off_c, 10, 64, 0
13, 93840, Note_on_c, 10, 47, 122
13, 93840, Note_on_c, 10, 52, 103
13, 93840, Note_on_c, 10, 55, 103
13, 93840, Note_on_c, 10, 59, 103
13, 93840, Note_on_c, 10, 64, 103
13, 93956, Note_off_c, 10, 52, 0
13, 93956, Note_off_c, 10, 55, 0
13, 93956, Note_off_c, 10, 59, 0
13, 93956, Note_off_c, 10, 64, 0
13, 93960, Note_on_c, 10, 52, 118
13, 93960, Note_on_c, 10, 55, 118
13, 93960, Note_on_c, 10, 59, 118
13, 93960, Note_on_c, 10, 64, 118
13, 94051, Note_off_c, 10, 47, 0
13, 94076, Note_off_c, 10, 52, 0
13, 94076, Note_off_c, 10, 55, 0
13, 94076, Note_off_c, 10, 59, 0
13, 94076, Note_off_c, 10, 64, 0
13, 94080, Note_on_c, 10, 57, 127
13, 94080, Note_on_c, 10, 60, 127
13, 94080, Note_on_c, 10, 64, 127
13, 94080, Note_on_c, 10, 69, 127
13, 94196, Note_off_c, 10, 57, 0
13, 94196, Note_off_c, 10, 60, 0
13, 94196, Note_off_c, 10, 64, 0
13, 94196, Note_off_c, 10, 69, 0
13, 94200, Note_on_c, 10, 57, 97
13, 94200, Note_on_c, 10, 60, 97
13, 94200, Note_on_c, 10, 64, 97
13, 94200, Note_on_c, 10, 69, 97
13, 94316, Note_off_c, 10, 57, 0
13, 94316, Note_off_c, 10, 60, 0
13, 94316, Note_off_c, 10, 64, 0
13, 94316, Note_off_c, 10, 69, 0
13, 94320, Note_on_c, 10, 57, 108
13, 94320, Note_on_c, 10, 60, 108
13, 94320, Note_on_c, 10, 64, 108
13, 94320, Note_on_c, 10, 69, 108
13, 94436, Note_off_c, 10, 57, 0
13, 94436, Note_off_c, 10, 60, 0
13, 94436, Note_off_c, 10, 64, 0
13, 94436, Note_off_c, 10, 69, 0
13, 94440, Note_on_c, 10, 57, 127
13, 94440, Note_on_c, 10, 60, 127
13, 94440, Note_on_c, 10, 64, 127
13, 94440, Note_on_c, 10, 69, 127
13, 94556, Note_off_c, 10, 57, 0
13, 94556, Note_off_c, 10, 60, 0
13, 94556, Note_off_c, 10, 64, 0
13, 94556, Note_off_c, 10, 69, 0
13, 94680, Note_on_c, 10, 57, 93
13, 94680, Note_on_c, 10, 60, 93
13, 94680, Note_on_c, 10, 64, 93
13, 94680, Note_on_c, 10, 69, 93
13, 94796, Note_off_c, 10, 57, 0
13, 94796, Note_off_c, 10, 60, 0
13, 94796, Note_off_c, 10, 64, 0
13, 94796, Note_off_c, 10, 69, 0
13, 94800, Note_on_c, 10, 57, 103
13, 94800, Note_on_c, 10, 60, 103
13, 94800, Note_on_c, 10, 64, 103
13, 94800, Note_on_c, 10, 69, 103
13, 94916, Note_off_c, 10, 57, 0
13, 94916, Note_off_c, 10, 60, 0
13, 94916, Note_off_c, 10, 64, 0
13, 94916, Note_off_c, 10, 69, 0
13, 94920, Note_on_c, 10, 57, 118
13, 94920, Note_on_c, 10, 60, 118
13, 94920, Note_on_c, 10, 64, 118
13, 94920, Note_on_c, 10, 69, 118
13, 95036, Note_off_c, 10, 57, 0
13, 95036, Note_off_c, 10, 60, 0
13, 95036, Note_off_c, 10, 64, 0
13, 95036, Note_off_c, 10, 69, 0
13, 95040, Note_on_c, 10, 57, 127
13, 95040, Note_on_c, 10, 60, 127
13, 95040, Note_on_c, 10, 64, 127
13, 95040, Note_on_c, 10, 69, 127
13, 95156, Note_off_c, 10, 57, 0
13, 95156, Note_off_c, 10, 60, 0
13, 95156, Note_off_c, 10, 64, 0
13, 95156, Note_off_c, 10, 69, 0
13, 95160, Note_on_c, 10, 57, 99
13, 95160, Note_on_c, 10, 60, 99
13, 95160, Note_on_c, 10, 64, 99
13, 95160, Note_on_c, 10, 69, 99
13, 95276, Note_off_c, 10, 57, 0
13, 95276, Note_off_c, 10, 60, 0
13, 95276, Note_off_c, 10, 64, 0
13, 95276, Note_off_c, 10, 69, 0
13, 95280, Note_on_c, 10, 57, 113
13, 95280, Note_on_c, 10, 60, 113
13, 95280, Note_on_c, 10, 64, 113
13, 95280, Note_on_c, 10, 69, 113
13, 95396, Note_off_c, 10, 57, 0
13, 95396, Note_off_c, 10, 60, 0
13, 95396, Note_off_c, 10, 64, 0
13, 95396, Note_off_c, 10, 69, 0
13, 95400, Note_on_c, 10, 57, 127
13, 95400, Note_on_c, 10, 60, 127
13, 95400, Note_on_c, 10, 64, 127
13, 95400, Note_on_c, 10, 69, 127
13, 95516, Note_off_c, 10, 57, 0
13, 95516, Note_off_c, 10, 60, 0
13, 95516, Note_off_c, 10, 64, 0
13, 95516, Note_off_c, 10, 69, 0
13, 95640, Note_on_c, 10, 57, 92
13, 95640, Note_on_c, 10, 60, 92
13, 95640, Note_on_c, 10, 64, 92
13, 95640, Note_on_c, 10, 69, 92
13, 95756, Note_off_c, 10, 57, 0
13, 95756, Note_off_c, 10, 60, 0
13, 95756, Note_off_c, 10, 64, 0
13, 95756, Note_off_c, 10, 69, 0
13, 95760, Note_on_c, 10, 57, 101
13, 95760, Note_on_c, 10, 60, 101
13, 95760, Note_on_c, 10, 64, 101
13, 95760, Note_on_c, 10, 69, 101
13, 95876, Note_off_c, 10, 57, 0
13, 95876, Note_off_c, 10, 60, 0
13, 95876, Note_off_c, 10, 64, 0
13, 95876, Note_off_c, 10, 69, 0
13, 95880, Note_on_c, 10, 57, 110
13, 95880, Note_on_c, 10, 60, 110
13, 95880, Note_on_c, 10, 64, 110
13, 95880, Note_on_c, 10, 69, 110
13, 95996, Note_off_c, 10, 57, 0
13, 95996, Note_off_c, 10, 60, 0
13, 95996, Note_off_c, 10, 64, 0
13, 95996, Note_off_c, 10, 69, 0
13, 96000, Note_on_c, 10, 57, 127
13, 96000, Note_on_c, 10, 60, 127
13, 96000, Note_on_c, 10, 64, 127
13, 96000, Note_on_c, 10, 69, 127
13, 96116, Note_off_c, 10, 57, 0
13, 96116, Note_off_c, 10, 60, 0
13, 96116, Note_off_c, 10, 64, 0
13, 96116, Note_off_c, 10, 69, 0
13, 96120, Note_on_c, 10, 57, 97
13, 96120, Note_on_c, 10, 60, 97
13, 96120, Note_on_c, 10, 64, 97
13, 96120, Note_on_c, 10, 69, 97
13, 96236, Note_off_c, 10, 57, 0
13, 96236, Note_off_c, 10, 60, 0
13, 96236, Note_off_c, 10, 64, 0
13, 96236, Note_off_c, 10, 69, 0
13, 96240, Note_on_c, 10, 57, 108
13, 96240, Note_on_c, 10, 60, 108
13, 96240, Note_on_c, 10, 64, 108
13, 96240, Note_on_c, 10, 69, 108
13, 96356, Note_off_c, 10, 57, 0
13, 96356, Note_off_c, 10, 60, 0
13, 96356, Note_off_c, 10, 64, 0
13, 96356, Note_off_c, 10, 69, 0
13, 96360, Note_on_c, 10, 57, 127
13, 96360, Note_on_c, 10, 60, 127
13, 96360, Note_on_c, 10, 64, 127
13, 96360, Note_on_c, 10, 69, 127
13, 96476, Note_off_c, 10, 57, 0
13, 96476, Note_off_c, 10, 60, 0
13, 96476, Note_off_c, 10, 64, 0
13, 96476, Note_off_c, 10, 69, 0
13, 96600, Note_on_c, 10, 57, 93
13, 96600, Note_on_c, 10, 60, 93
13, 96600, Note_on_c, 10, 64, 93
13, 96600, Note_on_c, 10, 69, 93
13, 96716, Note_off_c, 10, 57, 0
13, 96716, Note_off_c, 10, 60, 0
13, 96716, Note_off_c, 10, 64, 0
13, 96716, Note_off_c, 10, 69, 0
13, 96720, Note_on_c, 10, 57, 103
13, 96720, Note_on_c, 10, 60, 103
13, 96720, Note_on_c, 10, 64, 103
13, 96720, Note_on_c, 10, 69, 103
13, 96836, Note_off_c, 10, 57, 0
13, 96836, Note_off_c, 10, 60, 0
13, 96836, Note_off_c, 10, 64, 0
13, 96836, Note_off_c, 10, 69, 0
13, 96840, Note_on_c, 10, 57, 118
13, 96840, Note_on_c, 10, 60, 118
13, 96840, Note_on_c, 10, 64, 118
13, 96840, Note_on_c, 10, 69, 118
13, 96956, Note_off_c, 10, 57, 0
13, 96956, Note_off_c, 10, 60, 0
13, 96956, Note_off_c, 10, 64, 0
13, 96956, Note_off_c, 10, 69, 0
13, 96960, Note_on_c, 10, 57, 127
13, 96960, Note_on_c, 10, 60, 127
13, 96960, Note_on_c, 10, 64, 127
13, 96960, Note_on_c, 10, 69, 127
13, 97076, Note_off_c, 10, 57, 0
13, 97076, Note_off_c, 10, 60, 0
13, 97076, Note_off_c, 10, 64, 0
13, 97076, Note_off_c, 10, 69, 0
13, 97080, Note_on_c, 10, 57, 99
13, 97080, Note_on_c, 10, 60, 99
13, 97080, Note_on_c, 10, 64, 99
13, 97080, Note_on_c, 10, 69, 99
13, 97196, Note_off_c, 10, 57, 0
13, 97196, Note_off_c, 10, 60, 0
13, 97196, Note_off_c, 10, 64, 0
13, 97196, Note_off_c, 10, 69, 0
13, 97200, Note_on_c, 10, 57, 113
13, 97200, Note_on_c, 10, 60, 113
13, 97200, Note_on_c, 10, 64, 113
13, 97200, Note_on_c, 10, 69, 113
13, 97316, Note_off_c, 10, 57, 0
13, 97316, Note_off_c, 10, 60, 0
13, 97316, Note_off_c, 10, 64, 0
13, 97316, Note_off_c, 10, 69, 0
13, 97320, Note_on_c, 10, 57, 127
13, 97320, Note_on_c, 10, 60, 127
13, 97320, Note_on_c, 10, 64, 127
13, 97320, Note_on_c, 10, 69, 127
13, 97436, Note_off_c, 10, 57, 0
13, 97436, Note_off_c, 10, 60, 0
13, 97436, Note_off_c, 10, 64, 0
13, 97436, Note_off_c, 10, 69, 0
13, 97560, Note_on_c, 10, 57, 92
13, 97560, Note_on_c, 10, 60, 92
13, 97560, Note_on_c, 10, 64, 92
13, 97560, Note_on_c, 10, 69, 92
13, 97676, Note_off_c, 10, 57, 0
13, 97676, Note_off_c, 10, 60, 0
13, 97676, Note_off_c, 10, 64, 0
13, 97676, Note_off_c, 10, 69, 0
13, 97680, Note_on_c, 10, 57, 101
13, 97680, Note_on_c, 10, 60, 101
13, 97680, Note_on_c, 10, 64, 101
13, 97680, Note_on_c, 10, 69, 101
13, 97796, Note_off_c, 10, 57, 0
13, 97796, Note_off_c, 10, 60, 0
13, 97796, Note_off_c, 10, 64, 0
13, 97796, Note_off_c, 10, 69, 0
13, 97800, Note_on_c, 10, 57, 110
13, 97800, Note_on_c, 10, 60, 110
13, 97800, Note_on_c, 10, 64, 110
13, 97800, Note_on_c, 10, 69, 110
13, 97916, Note_off_c, 10, 57, 0
13, 97916, Note_off_c, 10, 60, 0
13, 97916, Note_off_c, 10, 64, 0
13, 97916, Note_off_c, 10, 69, 0
13, 97920, Note_on_c, 10, 55, 127
13, 97920, Note_on_c, 10, 59, 127
13, 97920, Note_on_c, 10, 62, 127
13, 97920, Note_on_c, 10, 67, 127
13, 98036, Note_off_c, 10, 55, 0
13, 98036, Note_off_c, 10, 59, 0
13, 98036, Note_off_c, 10, 62, 0
13, 98036, Note_off_c, 10, 67, 0
13, 98040, Note_on_c, 10, 55, 97
13, 98040, Note_on_c, 10, 59, 97
13, 98040, Note_on_c, 10, 62, 97
13, 98040, Note_on_c, 10, 67, 97
13, 98156, Note_off_c, 10, 55, 0
13, 98156, Note_off_c, 10, 59, 0
13, 98156, Note_off_c, 10, 62, 0
13, 98156, Note_off_c, 10, 67, 0
13, 98160, Note_on_c, 10, 55, 108
13, 98160, Note_on_c, 10, 59, 108
13, 98160, Note_on_c, 10, 62, 108
13, 98160, Note_on_c, 10, 67, 108
13, 98276, Note_off_c, 10, 55, 0
13, 98276, Note_off_c, 10, 59, 0
13, 98276, Note_off_c, 10, 62, 0
13, 98276, Note_off_c, 10, 67, 0
13, 98280, Note_on_c, 10, 55, 127
13, 98280, Note_on_c, 10, 59, 127
13, 98280, Note_on_c, 10, 62, 127
13, 98280, Note_on_c, 10, 67, 127
13, 98396, Note_off_c, 10, 55, 0
13, 98396, Note_off_c, 10, 59, 0
13, 98396, Note_off_c, 10, 62, 0
13, 98396, Note_off_c, 10, 67, 0
13, 98520, Note_on_c, 10, 55, 93
13, 98520, Note_on_c, 10, 59, 93
13, 98520, Note_on_c, 10, 62, 93
13, 98520, Note_on_c, 10, 67, 93
13, 98636, Note_off_c, 10, 55, 0
13, 98636, Note_off_c, 10, 59, 0
13, 98636, Note_off_c, 10, 62, 0
13, 98636, Note_off_c, 10, 67, 0
13, 98640, Note_on_c, 10, 55, 103
13, 98640, Note_on_c, 10, 59, 103
13, 98640, Note_on_c, 10, 62, 103
13, 98640, Note_on_c, 10, 67, 103
13, 98756, Note_off_c, 10, 55, 0
13, 98756, Note_off_c, 10, 59, 0
13, 98756, Note_off_c, 10, 62, 0
13, 98756, Note_off_c, 10, 67, 0
13, 98760, Note_on_c, 10, 55, 118
13, 98760, Note_on_c, 10, 59, 118
13, 98760, Note_on_c, 10, 62, 118
13, 98760, Note_on_c, 10, 67, 118
13, 98876, Note_off_c, 10, 55, 0
13, 98876, Note_off_c, 10, 59, 0
13, 98876, Note_off_c, 10, 62, 0
13, 98876, Note_off_c, 10, 67, 0
13, 98880, Note_on_c, 10, 57, 127
13, 98880, Note_on_c, 10, 60, 127
13, 98880, Note_on_c, 10, 65, 127
13, 98880, Note_on_c, 10, 69, 127
13, 98996, Note_off_c, 10, 57, 0
13, 98996, Note_off_c, 10, 60, 0
13, 98996, Note_off_c, 10, 65, 0
13, 98996, Note_off_c, 10, 69, 0
13, 99000, Note_on_c, 10, 57, 99
13, 99000, Note_on_c, 10, 60, 99
13, 99000, Note_on_c, 10, 65, 99
13, 99000, Note_on_c, 10, 69, 99
13, 99116, Note_off_c, 10, 57, 0
13, 99116, Note_off_c, 10, 60, 0
13, 99116, Note_off_c, 10, 65, 0
13, 99116, Note_off_c, 10, 69, 0
13, 99120, Note_on_c, 10, 57, 113
13, 99120, Note_on_c, 10, 60, 113
13, 99120, Note_on_c, 10, 65, 113
13, 99120, Note_on_c, 10, 69, 113
13, 99236, Note_off_c, 10, 57, 0
13, 99236, Note_off_c, 10, 60, 0
13, 99236, Note_off_c, 10, 65, 0
13, 99236, Note_off_c, 10, 69, 0
13, 99240, Note_on_c, 10, 57, 127
13, 99240, Note_on_c, 10, 60, 127
13, 99240, Note_on_c, 10, 65, 127
13, 99240, Note_on_c, 10, 69, 127
13, 99356, Note_off_c, 10, 57, 0
13, 99356, Note_off_c, 10, 60, 0
13, 99356, Note_off_c, 10, 65, 0
13, 99356, Note_off_c, 10, 69, 0
13, 99480, Note_on_c, 10, 57, 92
13, 99480, Note_on_c, 10, 60, 92
13, 99480, Note_on_c, 10, 65, 92
13, 99480, Note_on_c, 10, 69, 92
13, 99596, Note_off_c, 10, 57, 0
13, 99596, Note_off_c, 10, 60, 0
13, 99596, Note_off_c, 10, 65, 0
13, 99596, Note_off_c, 10, 69, 0
13, 99600, Note_on_c, 10, 57, 101
13, 99600, Note_on_c, 10, 60, 101
13, 99600, Note_on_c, 10, 65, 101
13, 99600, Note_on_c, 10, 69, 101
13, 99716, Note_off_c, 10, 57, 0
13, 99716, Note_off_c, 10, 60, 0
13, 99716, Note_off_c, 10, 65, 0
13, 99716, Note_off_c, 10, 69, 0
13, 99720, Note_on_c, 10, 57, 110
13, 99720, Note_on_c, 10, 60, 110
13, 99720, Note_on_c, 10, 65, 110
13, 99720, Note_on_c, 10, 69, 110
13, 99836, Note_off_c, 10, 57, 0
13, 99836, Note_off_c, 10, 60, 0
13, 99836, Note_off_c, 10, 65, 0
13, 99836, Note_off_c, 10, 69, 0
13, 99840, Note_on_c, 10, 52, 127
13, 99840, Note_on_c, 10, 55, 127
13, 99840, Note_on_c, 10, 59, 127
13, 99840, Note_on_c, 10, 64, 127
13, 99956, Note_off_c, 10, 52, 0
13, 99956, Note_off_c, 10, 55, 0
13, 99956, Note_off_c, 10, 59, 0
13, 99956, Note_off_c, 10, 64, 0
13, 99960, Note_on_c, 10, 52, 97
13, 99960, Note_on_c, 10, 55, 97
13, 99960, Note_on_c, 10, 59, 97
13, 99960, Note_on_c, 10, 64, 97
13, 100076, Note_off_c, 10, 52, 0
13, 100076, Note_off_c, 10, 55, 0
13, 100076, Note_off_c, 10, 59, 0
13, 100076, Note_off_c, 10, 64, 0
13, 100080, Note_on_c, 10, 52, 108
13, 100080, Note_on_c, 10, 55, 108
13, 100080, Note_on_c, 10, 59, 108
13, 100080, Note_on_c, 10, 64, 108
13, 100196, Note_off_c, 10, 52, 0
13, 100196, Note_off_c, 10, 55, 0
13, 100196, Note_off_c, 10, 59, 0
13, 100196, Note_off_c, 10, 64, 0
13, 100200, Note_on_c, 10, 52, 127
13, 100200, Note_on_c, 10, 55, 127
13, 100200, Note_on_c, 10, 59, 127
13, 100200, Note_on_c, 10, 64, 127
13, 100316, Note_off_c, 10, 52, 0
13, 100316, Note_off_c, 10, 55, 0
13, 100316, Note_off_c, 10, 59, 0
13, 100316, Note_off_c, 10, 64, 0
13, 100440, Note_on_c, 10, 52, 93
13, 100440, Note_on_c, 10, 55, 93
13, 100440, Note_on_c, 10, 59, 93
13, 100440, Note_on_c, 10, 64, 93
13, 100556, Note_off_c, 10, 52, 0
13, 100556, Note_off_c, 10, 55, 0
13, 100556, Note_off_c, 10, 59, 0
13, 100556, Note_off_c, 10, 64, 0
13, 100560, Note_on_c, 10, 52, 103
13, 100560, Note_on_c, 10, 55, 103
13, 100560, Note_on_c, 10, 59, 103
13, 100560, Note_on_c, 10, 64, 103
13, 100676, Note_off_c, 10, 52, 0
13, 100676, Note_off_c, 10, 55, 0
13, 100676, Note_off_c, 10, 59, 0
13, 100676, Note_off_c, 10, 64, 0
13, 100680, Note_on_c, 10, 52, 118
13, 100680, Note_on_c, 10, 55, 118
13, 100680, Note_on_c, 10, 59, 118
13, 100680, Note_on_c, 10, 64, 118
13, 100796, Note_off_c, 10, 52, 0
13, 100796, Note_off_c, 10, 55, 0
13, 100796, Note_off_c, 10, 59, 0
13, 100796, Note_off_c, 10, 64, 0
13, 100800, Note_on_c, 10, 52, 127
13, 100800, Note_on_c, 10, 55, 127
13, 100800, Note_on_c, 10, 59, 127
13, 100800, Note_on_c, 10, 64, 127
13, 100916, Note_off_c, 10, 52, 0
13, 100916, Note_off_c, 10, 55, 0
13, 100916, Note_off_c, 10, 59, 0
13, 100916, Note_off_c, 10, 64, 0
13, 100920, Note_on_c, 10, 52, 97
13, 100920, Note_on_c, 10, 55, 97
13, 100920, Note_on_c, 10, 59, 97
13, 100920, Note_on_c, 10, 64, 97
13, 101036, Note_off_c, 10, 52, 0
13, 101036, Note_off_c, 10, 55, 0
13, 101036, Note_off_c, 10, 59, 0
13, 101036, Note_off_c, 10, 64, 0
13, 101040, Note_on_c, 10, 52, 108
13, 101040, Note_on_c, 10, 55, 108
13, 101040, Note_on_c, 10, 59, 108
13, 101040, Note_on_c, 10, 64, 108
13, 101156, Note_off_c, 10, 52, 0
13, 101156, Note_off_c, 10, 55, 0
13, 101156, Note_off_c, 10, 59, 0
13, 101156, Note_off_c, 10, 64, 0
13, 101160, Note_on_c, 10, 52, 127
13, 101160, Note_on_c, 10, 55, 127
13, 101160, Note_on_c, 10, 59, 127
13, 101160, Note_on_c, 10, 64, 127
13, 101276, Note_off_c, 10, 52, 0
13, 101276, Note_off_c, 10, 55, 0
13, 101276, Note_off_c, 10, 59, 0
13, 101276, Note_off_c, 10, 64, 0
13, 101400, Note_on_c, 10, 52, 93
13, 101400, Note_on_c, 10, 55, 93
13, 101400, Note_on_c, 10, 59, 93
13, 101400, Note_on_c, 10, 64, 93
13, 101516, Note_off_c, 10, 52, 0
13, 101516, Note_off_c, 10, 55, 0
13, 101516, Note_off_c, 10, 59, 0
13, 101516, Note_off_c, 10, 64, 0
13, 101520, Note_on_c, 10, 52, 103
13, 101520, Note_on_c, 10, 55, 103
13, 101520, Note_on_c, 10, 59, 103
13, 101520, Note_on_c, 10, 64, 103
13, 101636, Note_off_c, 10, 52, 0
13, 101636, Note_off_c, 10, 55, 0
13, 101636, Note_off_c, 10, 59, 0
13, 101636, Note_off_c, 10, 64, 0
13, 101640, Note_on_c, 10, 52, 118
13, 101640, Note_on_c, 10, 55, 118
13, 101640, Note_on_c, 10, 59, 118
13, 101640, Note_on_c, 10, 64, 118
13, 101756, Note_off_c, 10, 52, 0
13, 101756, Note_off_c, 10, 55, 0
13, 101756, Note_off_c, 10, 59, 0
13, 101756, Note_off_c, 10, 64, 0
13, 103560, Note_on_c, 10, 45, 127
13, 103590, Note_on_c, 10, 48, 127
13, 103620, Note_on_c, 10, 52, 127
13, 103650, Note_on_c, 10, 57, 127
13, 107378, Note_off_c, 10, 45, 0
13, 107404, Note_off_c, 10, 48, 0
13, 107423, Note_off_c, 10, 52, 0
13, 107473, Note_off_c, 10, 57, 0
13, 107520, Note_on_c, 10, 55, 127
13, 107520, Note_on_c, 10, 59, 127
13, 107520, Note_on_c, 10, 62, 127
13, 107520, Note_on_c, 10, 67, 127
13, 107636, Note_off_c, 10, 55, 0
13, 107636, Note_off_c, 10, 59, 0
13, 107636, Note_off_c, 10, 62, 0
13, 107636, Note_off_c, 10, 67, 0
13, 107640, Note_on_c, 10, 55, 97
13, 107640, Note_on_c, 10, 59, 97
13, 107640, Note_on_c, 10, 62, 97
13, 107640, Note_on_c, 10, 67, 97
13, 107756, Note_off_c, 10, 55, 0
13, 107756, Note_off_c, 10, 59, 0
13, 107756, Note_off_c, 10, 62, 0
13, 107756, Note_off_c, 10, 67, 0
13, 107760, Note_on_c, 10, 55, 108
13, 107760, Note_on_c, 10, 59, 108
13, 107760, Note_on_c, 10, 62, 108
13, 107760, Note_on_c, 10, 67, 108
13, 107876, Note_off_c, 10, 55, 0
13, 107876, Note_off_c, 10, 59, 0
13, 107876, Note_off_c, 10, 62, 0
13, 107876, Note_off_c, 10, 67, 0
13, 107880, Note_on_c, 10, 55, 127
13, 107880, Note_on_c, 10, 59, 127
13, 107880, Note_on_c, 10, 62, 127
13, 107880, Note_on_c, 10, 67, 127
13, 107996, Note_off_c, 10, 55, 0
13, 107996, Note_off_c, 10, 59, 0
13, 107996, Note_off_c, 10, 62, 0
13, 107996, Note_off_c, 10, 67, 0
13, 108120, Note_on_c, 10, 55, 93
13, 108120, Note_on_c, 10, 59, 93
13, 108120, Note_on_c, 10, 62, 93
13, 108120, Note_on_c, 10, 67, 93
13, 108236, Note_off_c, 10, 55, 0
13, 108236, Note_off_c, 10, 59, 0
13, 108236, Note_off_c, 10, 62, 0
13, 108236, Note_off_c, 10, 67, 0
13, 108240, Note_on_c, 10, 55, 103
13, 108240, Note_on_c, 10, 59, 103
13, 108240, Note_on_c, 10, 62, 103
13, 108240, Note_on_c, 10, 67, 103
13, 108356, Note_off_c, 10, 55, 0
13, 108356, Note_off_c, 10, 59, 0
13, 108356, Note_off_c, 10, 62, 0
13, 108356, Note_off_c, 10, 67, 0
13, 108360, Note_on_c, 10, 55, 118
13, 108360, Note_on_c, 10, 59, 118
13, 108360, Note_on_c, 10, 62, 118
13, 108360, Note_on_c, 10, 67, 118
13, 108476, Note_off_c, 10, 55, 0
13, 108476, Note_off_c, 10, 59, 0
13, 108476, Note_off_c, 10, 62, 0
13, 108476, Note_off_c, 10, 67, 0
13, 108480, Note_on_c, 10, 55, 127
13, 108480, Note_on_c, 10, 59, 127
13, 108480, Note_on_c, 10, 62, 127
13, 108480, Note_on_c, 10, 67, 127
13, 108596, Note_off_c, 10, 55, 0
13, 108596, Note_off_c, 10, 59, 0
13, 108596, Note_off_c, 10, 62, 0
13, 108596, Note_off_c, 10, 67, 0
13, 108600, Note_on_c, 10, 55, 97
13, 108600, Note_on_c, 10, 59, 97
13, 108600, Note_on_c, 10, 62, 97
13, 108600, Note_on_c, 10, 67, 97
13, 108716, Note_off_c, 10, 55, 0
13, 108716, Note_off_c, 10, 59, 0
13, 108716, Note_off_c, 10, 62, 0
13, 108716, Note_off_c, 10, 67, 0
13, 108720, Note_on_c, 10, 55, 108
13, 108720, Note_on_c, 10, 59, 108
13, 108720, Note_on_c, 10, 62, 108
13, 108720, Note_on_c, 10, 67, 108
13, 108836, Note_off_c, 10, 55, 0
13, 108836, Note_off_c, 10, 59, 0
13, 108836, Note_off_c, 10, 62, 0
13, 108836, Note_off_c, 10, 67, 0
13, 108840, Note_on_c, 10, 55, 127
13, 108840, Note_on_c, 10, 59, 127
13, 108840, Note_on_c, 10, 62, 127
13, 108840, Note_on_c, 10, 67, 127
13, 108956, Note_off_c, 10, 55, 0
13, 108956, Note_off_c, 10, 59, 0
13, 108956, Note_off_c, 10, 62, 0
13, 108956, Note_off_c, 10, 67, 0
13, 109080, Note_on_c, 10, 55, 93
13, 109080, Note_on_c, 10, 59, 93
13, 109080, Note_on_c, 10, 62, 93
13, 109080, Note_on_c, 10, 67, 93
13, 109196, Note_off_c, 10, 55, 0
13, 109196, Note_off_c, 10, 59, 0
13, 109196, Note_off_c, 10, 62, 0
13, 109196, Note_off_c, 10, 67, 0
13, 109200, Note_on_c, 10, 55, 103
13, 109200, Note_on_c, 10, 59, 103
13, 109200, Note_on_c, 10, 62, 103
13, 109200, Note_on_c, 10, 67, 103
13, 109316, Note_off_c, 10, 55, 0
13, 109316, Note_off_c, 10, 59, 0
13, 109316, Note_off_c, 10, 62, 0
13, 109316, Note_off_c, 10, 67, 0
13, 109320, Note_on_c, 10, 55, 118
13, 109320, Note_on_c, 10, 59, 118
13, 109320, Note_on_c, 10, 62, 118
13, 109320, Note_on_c, 10, 67, 118
13, 109436, Note_off_c, 10, 55, 0
13, 109436, Note_off_c, 10, 59, 0
13, 109436, Note_off_c, 10, 62, 0
13, 109436, Note_off_c, 10, 67, 0
13, 109440, Note_on_c, 10, 53, 127
13, 109440, Note_on_c, 10, 57, 127
13, 109440, Note_on_c, 10, 62, 127
13, 109440, Note_on_c, 10, 65, 127
13, 109556, Note_off_c, 10, 53, 0
13, 109556, Note_off_c, 10, 57, 0
13, 109556, Note_off_c, 10, 62, 0
13, 109556, Note_off_c, 10, 65, 0
13, 109560, Note_on_c, 10, 53, 97
13, 109560, Note_on_c, 10, 57, 97
13, 109560, Note_on_c, 10, 62, 97
13, 109560, Note_on_c, 10, 65, 97
13, 109676, Note_off_c, 10, 53, 0
13, 109676, Note_off_c, 10, 57, 0
13, 109676, Note_off_c, 10, 62, 0
13, 109676, Note_off_c, 10, 65, 0
13, 109680, Note_on_c, 10, 53, 108
13, 109680, Note_on_c, 10, 57, 108
13, 109680, Note_on_c, 10, 62, 108
13, 109680, Note_on_c, 10, 65, 108
13, 109796, Note_off_c, 10, 53, 0
13, 109796, Note_off_c, 10, 57, 0
13, 109796, Note_off_c, 10, 62, 0
13, 109796, Note_off_c, 10, 65, 0
13, 109800, Note_on_c, 10, 53, 127
13, 109800, Note_on_c, 10, 57, 127
13, 109800, Note_on_c, 10, 62, 127
13, 109800, Note_on_c, 10, 65, 127
13, 109916, Note_off_c, 10, 53, 0
13, 109916, Note_off_c, 10, 57, 0
13, 109916, Note_off_c, 10, 62, 0
13, 109916, Note_off_c, 10, 65, 0
13, 110040, Note_on_c, 10, 53, 93
13, 110040, Note_on_c, 10, 57, 93
13, 110040, Note_on_c, 10, 62, 93
13, 110040, Note_on_c, 10, 65, 93
13, 110156, Note_off_c, 10, 53, 0
13, 110156, Note_off_c, 10, 57, 0
13, 110156, Note_off_c, 10, 62, 0
13, 110156, Note_off_c, 10, 65, 0
13, 110160, Note_on_c, 10, 53, 103
13, 110160, Note_on_c, 10, 57, 103
13, 110160, Note_on_c, 10, 62, 103
13, 110160, Note_on_c, 10, 65, 103
13, 110276, Note_off_c, 10, 53, 0
13, 110276, Note_off_c, 10, 57, 0
13, 110276, Note_off_c, 10, 62, 0
13, 110276, Note_off_c, 10, 65, 0
13, 110280, Note_on_c, 10, 53, 118
13, 110280, Note_on_c, 10, 57, 118
13, 110280, Note_on_c, 10, 62, 118
13, 110280, Note_on_c, 10, 65, 118
13, 110396, Note_off_c, 10, 53, 0
13, 110396, Note_off_c, 10, 57, 0
13, 110396, Note_off_c, 10, 62, 0
13, 110396, Note_off_c, 10, 65, 0
13, 110400, Note_on_c, 10, 53, 127
13, 110400, Note_on_c, 10, 57, 127
13, 110400, Note_on_c, 10, 62, 127
13, 110400, Note_on_c, 10, 65, 127
13, 110516, Note_off_c, 10, 53, 0
13, 110516, Note_off_c, 10, 57, 0
13, 110516, Note_off_c, 10, 62, 0
13, 110516, Note_off_c, 10, 65, 0
13, 110520, Note_on_c, 10, 53, 97
13, 110520, Note_on_c, 10, 57, 97
13, 110520, Note_on_c, 10, 62, 97
13, 110520, Note_on_c, 10, 65, 97
13, 110636, Note_off_c, 10, 53, 0
13, 110636, Note_off_c, 10, 57, 0
13, 110636, Note_off_c, 10, 62, 0
13, 110636, Note_off_c, 10, 65, 0
13, 110640, Note_on_c, 10, 53, 108
13, 110640, Note_on_c, 10, 57, 108
13, 110640, Note_on_c, 10, 62, 108
13, 110640, Note_on_c, 10, 65, 108
13, 110756, Note_off_c, 10, 53, 0
13, 110756, Note_off_c, 10, 57, 0
13, 110756, Note_off_c, 10, 62, 0
13, 110756, Note_off_c, 10, 65, 0
13, 110760, Note_on_c, 10, 53, 127
13, 110760, Note_on_c, 10, 57, 127
13, 110760, Note_on_c, 10, 62, 127
13, 110760, Note_on_c, 10, 65, 127
13, 110876, Note_off_c, 10, 53, 0
13, 110876, Note_off_c, 10, 57, 0
13, 110876, Note_off_c, 10, 62, 0
13, 110876, Note_off_c, 10, 65, 0
13, 111000, Note_on_c, 10, 53, 93
13, 111000, Note_on_c, 10, 57, 93
13, 111000, Note_on_c, 10, 62, 93
13, 111000, Note_on_c, 10, 65, 93
13, 111116, Note_off_c, 10, 53, 0
13, 111116, Note_off_c, 10, 57, 0
13, 111116, Note_off_c, 10, 62, 0
13, 111116, Note_off_c, 10, 65, 0
13, 111120, Note_on_c, 10, 53, 103
13, 111120, Note_on_c, 10, 57, 103
13, 111120, Note_on_c, 10, 62, 103
13, 111120, Note_on_c, 10, 65, 103
13, 111236, Note_off_c, 10, 53, 0
13, 111236, Note_off_c, 10, 57, 0
13, 111236, Note_off_c, 10, 62, 0
13, 111236, Note_off_c, 10, 65, 0
13, 111240, Note_on_c, 10, 53, 118
13, 111240, Note_on_c, 10, 57, 118
13, 111240, Note_on_c, 10, 62, 118
13, 111240, Note_on_c, 10, 65, 118
13, 111356, Note_off_c, 10, 53, 0
13, 111356, Note_off_c, 10, 57, 0
13, 111356, Note_off_c, 10, 62, 0
13, 111356, Note_off_c, 10, 65, 0
13, 111360, Note_on_c, 10, 53, 127
13, 111360, Note_on_c, 10, 57, 127
13, 111360, Note_on_c, 10, 60, 127
13, 111360, Note_on_c, 10, 65, 127
13, 111476, Note_off_c, 10, 53, 0
13, 111476, Note_off_c, 10, 57, 0
13, 111476, Note_off_c, 10, 60, 0
13, 111476, Note_off_c, 10, 65, 0
13, 111480, Note_on_c, 10, 53, 97
13, 111480, Note_on_c, 10, 57, 97
13, 111480, Note_on_c, 10, 60, 97
13, 111480, Note_on_c, 10, 65, 97
13, 111596, Note_off_c, 10, 53, 0
13, 111596, Note_off_c, 10, 57, 0
13, 111596, Note_off_c, 10, 60, 0
13, 111596, Note_off_c, 10, 65, 0
13, 111600, Note_on_c, 10, 53, 108
13, 111600, Note_on_c, 10, 57, 108
13, 111600, Note_on_c, 10, 60, 108
13, 111600, Note_on_c, 10, 65, 108
13, 111716, Note_off_c, 10, 53, 0
13, 111716, Note_off_c, 10, 57, 0
13, 111716, Note_off_c, 10, 60, 0
13, 111716, Note_off_c, 10, 65, 0
13, 111720, Note_on_c, 10, 53, 127
13, 111720, Note_on_c, 10, 57, 127
13, 111720, Note_on_c, 10, 60, 127
13, 111720, Note_on_c, 10, 65, 127
13, 111836, Note_off_c, 10, 53, 0
13, 111836, Note_off_c, 10, 57, 0
13, 111836, Note_off_c, 10, 60, 0
13, 111836, Note_off_c, 10, 65, 0
13, 111960, Note_on_c, 10, 53, 93
13, 111960, Note_on_c, 10, 57, 93
13, 111960, Note_on_c, 10, 60, 93
13, 111960, Note_on_c, 10, 65, 93
13, 112076, Note_off_c, 10, 53, 0
13, 112076, Note_off_c, 10, 57, 0
13, 112076, Note_off_c, 10, 60, 0
13, 112076, Note_off_c, 10, 65, 0
13, 112080, Note_on_c, 10, 53, 103
13, 112080, Note_on_c, 10, 57, 103
13, 112080, Note_on_c, 10, 60, 103
13, 112080, Note_on_c, 10, 65, 103
13, 112196, Note_off_c, 10, 53, 0
13, 112196, Note_off_c, 10, 57, 0
13, 112196, Note_off_c, 10, 60, 0
13, 112196, Note_off_c, 10, 65, 0
13, 112200, Note_on_c, 10, 53, 118
13, 112200, Note_on_c, 10, 57, 118
13, 112200, Note_on_c, 10, 60, 118
13, 112200, Note_on_c, 10, 65, 118
13, 112316, Note_off_c, 10, 53, 0
13, 112316, Note_off_c, 10, 57, 0
13, 112316, Note_off_c, 10, 60, 0
13, 112316, Note_off_c, 10, 65, 0
13, 112320, Note_on_c, 10, 55, 127
13, 112320, Note_on_c, 10, 60, 127
13, 112320, Note_on_c, 10, 64, 127
13, 112320, Note_on_c, 10, 67, 127
13, 112436, Note_off_c, 10, 55, 0
13, 112436, Note_off_c, 10, 60, 0
13, 112436, Note_off_c, 10, 64, 0
13, 112436, Note_off_c, 10, 67, 0
13, 112440, Note_on_c, 10, 55, 97
13, 112440, Note_on_c, 10, 60, 97
13, 112440, Note_on_c, 10, 64, 97
13, 112440, Note_on_c, 10, 67, 97
13, 112556, Note_off_c, 10, 55, 0
13, 112556, Note_off_c, 10, 60, 0
13, 112556, Note_off_c, 10, 64, 0
13, 112556, Note_off_c, 10, 67, 0
13, 112560, Note_on_c, 10, 55, 108
13, 112560, Note_on_c, 10, 60, 108
13, 112560, Note_on_c, 10, 64, 108
13, 112560, Note_on_c, 10, 67, 108
13, 112676, Note_off_c, 10, 55, 0
13, 112676, Note_off_c, 10, 60, 0
13, 112676, Note_off_c, 10, 64, 0
13, 112676, Note_off_c, 10, 67, 0
13, 112680, Note_on_c, 10, 55, 127
13, 112680, Note_on_c, 10, 60, 127
13, 112680, Note_on_c, 10, 64, 127
13, 112680, Note_on_c, 10, 67, 127
13, 112796, Note_off_c, 10, 55, 0
13, 112796, Note_off_c, 10, 60, 0
13, 112796, Note_off_c, 10, 64, 0
13, 112796, Note_off_c, 10, 67, 0
13, 112920, Note_on_c, 10, 55, 93
13, 112920, Note_on_c, 10, 60, 93
13, 112920, Note_on_c, 10, 64, 93
13, 112920, Note_on_c, 10, 67, 93
13, 113036, Note_off_c, 10, 55, 0
13, 113036, Note_off_c, 10, 60, 0
13, 113036, Note_off_c, 10, 64, 0
13, 113036, Note_off_c, 10, 67, 0
13, 113040, Note_on_c, 10, 55, 103
13, 113040, Note_on_c, 10, 60, 103
13, 113040, Note_on_c, 10, 64, 103
13, 113040, Note_on_c, 10, 67, 103
13, 113156, Note_off_c, 10, 55, 0
13, 113156, Note_off_c, 10, 60, 0
13, 113156, Note_off_c, 10, 64, 0
13, 113156, Note_off_c, 10, 67, 0
13, 113160, Note_on_c, 10, 55, 118
13, 113160, Note_on_c, 10, 60, 118
13, 113160, Note_on_c, 10, 64, 118
13, 113160, Note_on_c, 10, 67, 118
13, 113276, Note_off_c, 10, 55, 0
13, 113276, Note_off_c, 10, 60, 0
13, 113276, Note_off_c, 10, 64, 0
13, 113276, Note_off_c, 10, 67, 0
13, 113280, Note_on_c, 10, 55, 127
13, 113280, Note_on_c, 10, 59, 127
13, 113280, Note_on_c, 10, 62, 127
13, 113280, Note_on_c, 10, 67, 127
13, 113396, Note_off_c, 10, 55, 0
13, 113396, Note_off_c, 10, 59, 0
13, 113396, Note_off_c, 10, 62, 0
13, 113396, Note_off_c, 10, 67, 0
13, 113400, Note_on_c, 10, 55, 97
13, 113400, Note_on_c, 10, 59, 97
13, 113400, Note_on_c, 10, 62, 97
13, 113400, Note_on_c, 10, 67, 97
13, 113516, Note_off_c, 10, 55, 0
13, 113516, Note_off_c, 10, 59, 0
13, 113516, Note_off_c, 10, 62, 0
13, 113516, Note_off_c, 10, 67, 0
13, 113520, Note_on_c, 10, 55, 108
13, 113520, Note_on_c, 10, 59, 108
13, 113520, Note_on_c, 10, 62, 108
13, 113520, Note_on_c, 10, 67, 108
13, 113636, Note_off_c, 10, 55, 0
13, 113636, Note_off_c, 10, 59, 0
13, 113636, Note_off_c, 10, 62, 0
13, 113636, Note_off_c, 10, 67, 0
13, 113640, Note_on_c, 10, 55, 127
13, 113640, Note_on_c, 10, 59, 127
13, 113640, Note_on_c, 10, 62, 127
13, 113640, Note_on_c, 10, 67, 127
13, 113756, Note_off_c, 10, 55, 0
13, 113756, Note_off_c, 10, 59, 0
13, 113756, Note_off_c, 10, 62, 0
13, 113756, Note_off_c, 10, 67, 0
13, 113880, Note_on_c, 10, 55, 93
13, 113880, Note_on_c, 10, 59, 93
13, 113880, Note_on_c, 10, 62, 93
13, 113880, Note_on_c, 10, 67, 93
13, 113996, Note_off_c, 10, 55, 0
13, 113996, Note_off_c, 10, 59, 0
13, 113996, Note_off_c, 10, 62, 0
13, 113996, Note_off_c, 10, 67, 0
13, 114000, Note_on_c, 10, 55, 103
13, 114000, Note_on_c, 10, 59, 103
13, 114000, Note_on_c, 10, 62, 103
13, 114000, Note_on_c, 10, 67, 103
13, 114116, Note_off_c, 10, 55, 0
13, 114116, Note_off_c, 10, 59, 0
13, 114116, Note_off_c, 10, 62, 0
13, 114116, Note_off_c, 10, 67, 0
13, 114120, Note_on_c, 10, 55, 118
13, 114120, Note_on_c, 10, 59, 118
13, 114120, Note_on_c, 10, 62, 118
13, 114120, Note_on_c, 10, 67, 118
13, 114236, Note_off_c, 10, 55, 0
13, 114236, Note_off_c, 10, 59, 0
13, 114236, Note_off_c, 10, 62, 0
13, 114236, Note_off_c, 10, 67, 0
13, 114240, Note_on_c, 10, 55, 127
13, 114240, Note_on_c, 10, 59, 127
13, 114240, Note_on_c, 10, 62, 127
13, 114240, Note_on_c, 10, 67, 127
13, 114356, Note_off_c, 10, 55, 0
13, 114356, Note_off_c, 10, 59, 0
13, 114356, Note_off_c, 10, 62, 0
13, 114356, Note_off_c, 10, 67, 0
13, 114360, Note_on_c, 10, 55, 97
13, 114360, Note_on_c, 10, 59, 97
13, 114360, Note_on_c, 10, 62, 97
13, 114360, Note_on_c, 10, 67, 97
13, 114476, Note_off_c, 10, 55, 0
13, 114476, Note_off_c, 10, 59, 0
13, 114476, Note_off_c, 10, 62, 0
13, 114476, Note_off_c, 10, 67, 0
13, 114480, Note_on_c, 10, 55, 108
13, 114480, Note_on_c, 10, 59, 108
13, 114480, Note_on_c, 10, 62, 108
13, 114480, Note_on_c, 10, 67, 108
13, 114596, Note_off_c, 10, 55, 0
13, 114596, Note_off_c, 10, 59, 0
13, 114596, Note_off_c, 10, 62, 0
13, 114596, Note_off_c, 10, 67, 0
13, 114600, Note_on_c, 10, 55, 127
13, 114600, Note_on_c, 10, 59, 127
13, 114600, Note_on_c, 10, 62, 127
13, 114600, Note_on_c, 10, 67, 127
13, 114716, Note_off_c, 10, 55, 0
13, 114716, Note_off_c, 10, 59, 0
13, 114716, Note_off_c, 10, 62, 0
13, 114716, Note_off_c, 10, 67, 0
13, 114840, Note_on_c, 10, 55, 93
13, 114840, Note_on_c, 10, 59, 93
13, 114840, Note_on_c, 10, 62, 93
13, 114840, Note_on_c, 10, 67, 93
13, 114956, Note_off_c, 10, 55, 0
13, 114956, Note_off_c, 10, 59, 0
13, 114956, Note_off_c, 10, 62, 0
13, 114956, Note_off_c, 10, 67, 0
13, 114960, Note_on_c, 10, 55, 103
13, 114960, Note_on_c, 10, 59, 103
13, 114960, Note_on_c, 10, 62, 103
13, 114960, Note_on_c, 10, 67, 103
13, 115076, Note_off_c, 10, 55, 0
13, 115076, Note_off_c, 10, 59, 0
13, 115076, Note_off_c, 10, 62, 0
13, 115076, Note_off_c, 10, 67, 0
13, 115080, Note_on_c, 10, 55, 118
13, 115080, Note_on_c, 10, 59, 118
13, 115080, Note_on_c, 10, 62, 118
13, 115080, Note_on_c, 10, 67, 118
13, 115196, Note_off_c, 10, 55, 0
13, 115196, Note_off_c, 10, 59, 0
13, 115196, Note_off_c, 10, 62, 0
13, 115196, Note_off_c, 10, 67, 0
13, 115200, Note_on_c, 10, 55, 127
13, 115200, Note_on_c, 10, 59, 127
13, 115200, Note_on_c, 10, 62, 127
13, 115200, Note_on_c, 10, 67, 127
13, 115316, Note_off_c, 10, 55, 0
13, 115316, Note_off_c, 10, 59, 0
13, 115316, Note_off_c, 10, 62, 0
13, 115316, Note_off_c, 10, 67, 0
13, 115320, Note_on_c, 10, 55, 97
13, 115320, Note_on_c, 10, 59, 97
13, 115320, Note_on_c, 10, 62, 97
13, 115320, Note_on_c, 10, 67, 97
13, 115436, Note_off_c, 10, 55, 0
13, 115436, Note_off_c, 10, 59, 0
13, 115436, Note_off_c, 10, 62, 0
13, 115436, Note_off_c, 10, 67, 0
13, 115440, Note_on_c, 10, 55, 108
13, 115440, Note_on_c, 10, 59, 108
13, 115440, Note_on_c, 10, 62, 108
13, 115440, Note_on_c, 10, 67, 108
13, 115556, Note_off_c, 10, 55, 0
13, 115556, Note_off_c, 10, 59, 0
13, 115556, Note_off_c, 10, 62, 0
13, 115556, Note_off_c, 10, 67, 0
13, 115560, Note_on_c, 10, 55, 127
13, 115560, Note_on_c, 10, 59, 127
13, 115560, Note_on_c, 10, 62, 127
13, 115560, Note_on_c, 10, 67, 127
13, 115676, Note_off_c, 10, 55, 0
13, 115676, Note_off_c, 10, 59, 0
13, 115676, Note_off_c, 10, 62, 0
13, 115676, Note_off_c, 10, 67, 0
13, 115800, Note_on_c, 10, 55, 93
13, 115800, Note_on_c, 10, 59, 93
13, 115800, Note_on_c, 10, 62, 93
13, 115800, Note_on_c, 10, 67, 93
13, 115916, Note_off_c, 10, 55, 0
13, 115916, Note_off_c, 10, 59, 0
13, 115916, Note_off_c, 10, 62, 0
13, 115916, Note_off_c, 10, 67, 0
13, 115920, Note_on_c, 10, 55, 103
13, 115920, Note_on_c, 10, 59, 103
13, 115920, Note_on_c, 10, 62, 103
13, 115920, Note_on_c, 10, 67, 103
13, 116036, Note_off_c, 10, 55, 0
13, 116036, Note_off_c, 10, 59, 0
13, 116036, Note_off_c, 10, 62, 0
13, 116036, Note_off_c, 10, 67, 0
13, 116040, Note_on_c, 10, 55, 118
13, 116040, Note_on_c, 10, 59, 118
13, 116040, Note_on_c, 10, 62, 118
13, 116040, Note_on_c, 10, 67, 118
13, 116156, Note_off_c, 10, 55, 0
13, 116156, Note_off_c, 10, 59, 0
13, 116156, Note_off_c, 10, 62, 0
13, 116156, Note_off_c, 10, 67, 0
13, 116160, Note_on_c, 10, 55, 127
13, 116160, Note_on_c, 10, 59, 127
13, 116160, Note_on_c, 10, 62, 127
13, 116160, Note_on_c, 10, 67, 127
13, 116276, Note_off_c, 10, 55, 0
13, 116276, Note_off_c, 10, 59, 0
13, 116276, Note_off_c, 10, 62, 0
13, 116276, Note_off_c, 10, 67, 0
13, 116280, Note_on_c, 10, 55, 97
13, 116280, Note_on_c, 10, 59, 97
13, 116280, Note_on_c, 10, 62, 97
13, 116280, Note_on_c, 10, 67, 97
13, 116396, Note_off_c, 10, 55, 0
13, 116396, Note_off_c, 10, 59, 0
13, 116396, Note_off_c, 10, 62, 0
13, 116396, Note_off_c, 10, 67, 0
13, 116400, Note_on_c, 10, 55, 108
13, 116400, Note_on_c, 10, 59, 108
13, 116400, Note_on_c, 10, 62, 108
13, 116400, Note_on_c, 10, 67, 108
13, 116516, Note_off_c, 10, 55, 0
13, 116516, Note_off_c, 10, 59, 0
13, 116516, Note_off_c, 10, 62, 0
13, 116516, Note_off_c, 10, 67, 0
13, 116520, Note_on_c, 10, 55, 127
13, 116520, Note_on_c, 10, 59, 127
13, 116520, Note_on_c, 10, 62, 127
13, 116520, Note_on_c, 10, 67, 127
13, 116636, Note_off_c, 10, 55, 0
13, 116636, Note_off_c, 10, 59, 0
13, 116636, Note_off_c, 10, 62, 0
13, 116636, Note_off_c, 10, 67, 0
13, 116760, Note_on_c, 10, 55, 93
13, 116760, Note_on_c, 10, 59, 93
13, 116760, Note_on_c, 10, 62, 93
13, 116760, Note_on_c, 10, 67, 93
13, 116876, Note_off_c, 10, 55, 0
13, 116876, Note_off_c, 10, 59, 0
13, 116876, Note_off_c, 10, 62, 0
13, 116876, Note_off_c, 10, 67, 0
13, 116880, Note_on_c, 10, 55, 103
13, 116880, Note_on_c, 10, 59, 103
13, 116880, Note_on_c, 10, 62, 103
13, 116880, Note_on_c, 10, 67, 103
13, 116996, Note_off_c, 10, 55, 0
13, 116996, Note_off_c, 10, 59, 0
13, 116996, Note_off_c, 10, 62, 0
13, 116996, Note_off_c, 10, 67, 0
13, 117000, Note_on_c, 10, 55, 118
13, 117000, Note_on_c, 10, 59, 118
13, 117000, Note_on_c, 10, 62, 118
13, 117000, Note_on_c, 10, 67, 118
13, 117116, Note_off_c, 10, 55, 0
13, 117116, Note_off_c, 10, 59, 0
13, 117116, Note_off_c, 10, 62, 0
13, 117116, Note_off_c, 10, 67, 0
13, 117120, Note_on_c, 10, 53, 127
13, 117120, Note_on_c, 10, 57, 127
13, 117120, Note_on_c, 10, 62, 127
13, 117120, Note_on_c, 10, 65, 127
13, 117236, Note_off_c, 10, 53, 0
13, 117236, Note_off_c, 10, 57, 0
13, 117236, Note_off_c, 10, 62, 0
13, 117236, Note_off_c, 10, 65, 0
13, 117240, Note_on_c, 10, 53, 97
13, 117240, Note_on_c, 10, 57, 97
13, 117240, Note_on_c, 10, 62, 97
13, 117240, Note_on_c, 10, 65, 97
13, 117356, Note_off_c, 10, 53, 0
13, 117356, Note_off_c, 10, 57, 0
13, 117356, Note_off_c, 10, 62, 0
13, 117356, Note_off_c, 10, 65, 0
13, 117360, Note_on_c, 10, 53, 108
13, 117360, Note_on_c, 10, 57, 108
13, 117360, Note_on_c, 10, 62, 108
13, 117360, Note_on_c, 10, 65, 108
13, 117476, Note_off_c, 10, 53, 0
13, 117476, Note_off_c, 10, 57, 0
13, 117476, Note_off_c, 10, 62, 0
13, 117476, Note_off_c, 10, 65, 0
13, 117480, Note_on_c, 10, 53, 127
13, 117480, Note_on_c, 10, 57, 127
13, 117480, Note_on_c, 10, 62, 127
13, 117480, Note_on_c, 10, 65, 127
13, 117596, Note_off_c, 10, 53, 0
13, 117596, Note_off_c, 10, 57, 0
13, 117596, Note_off_c, 10, 62, 0
13, 117596, Note_off_c, 10, 65, 0
13, 117720, Note_on_c, 10, 53, 93
13, 117720, Note_on_c, 10, 57, 93
13, 117720, Note_on_c, 10, 62, 93
13, 117720, Note_on_c, 10, 65, 93
13, 117836, Note_off_c, 10, 53, 0
13, 117836, Note_off_c, 10, 57, 0
13, 117836, Note_off_c, 10, 62, 0
13, 117836, Note_off_c, 10, 65, 0
13, 117840, Note_on_c, 10, 53, 103
13, 117840, Note_on_c, 10, 57, 103
13, 117840, Note_on_c, 10, 62, 103
13, 117840, Note_on_c, 10, 65, 103
13, 117956, Note_off_c, 10, 53, 0
13, 117956, Note_off_c, 10, 57, 0
13, 117956, Note_off_c, 10, 62, 0
13, 117956, Note_off_c, 10, 65, 0
13, 117960, Note_on_c, 10, 53, 118
13, 117960, Note_on_c, 10, 57, 118
13, 117960, Note_on_c, 10, 62, 118
13, 117960, Note_on_c, 10, 65, 118
13, 118076, Note_off_c, 10, 53, 0
13, 118076, Note_off_c, 10, 57, 0
13, 118076, Note_off_c, 10, 62, 0
13, 118076, Note_off_c, 10, 65, 0
13, 118080, Note_on_c, 10, 53, 127
13, 118080, Note_on_c, 10, 57, 127
13, 118080, Note_on_c, 10, 62, 127
13, 118080, Note_on_c, 10, 65, 127
13, 118196, Note_off_c, 10, 53, 0
13, 118196, Note_off_c, 10, 57, 0
13, 118196, Note_off_c, 10, 62, 0
13, 118196, Note_off_c, 10, 65, 0
13, 118200, Note_on_c, 10, 53, 97
13, 118200, Note_on_c, 10, 57, 97
13, 118200, Note_on_c, 10, 62, 97
13, 118200, Note_on_c, 10, 65, 97
13, 118316, Note_off_c, 10, 53, 0
13, 118316, Note_off_c, 10, 57, 0
13, 118316, Note_off_c, 10, 62, 0
13, 118316, Note_off_c, 10, 65, 0
13, 118320, Note_on_c, 10, 53, 108
13, 118320, Note_on_c, 10, 57, 108
13, 118320, Note_on_c, 10, 62, 108
13, 118320, Note_on_c, 10, 65, 108
13, 118436, Note_off_c, 10, 53, 0
13, 118436, Note_off_c, 10, 57, 0
13, 118436, Note_off_c, 10, 62, 0
13, 118436, Note_off_c, 10, 65, 0
13, 118440, Note_on_c, 10, 53, 127
13, 118440, Note_on_c, 10, 57, 127
13, 118440, Note_on_c, 10, 62, 127
13, 118440, Note_on_c, 10, 65, 127
13, 118556, Note_off_c, 10, 53, 0
13, 118556, Note_off_c, 10, 57, 0
13, 118556, Note_off_c, 10, 62, 0
13, 118556, Note_off_c, 10, 65, 0
13, 118680, Note_on_c, 10, 53, 93
13, 118680, Note_on_c, 10, 57, 93
13, 118680, Note_on_c, 10, 62, 93
13, 118680, Note_on_c, 10, 65, 93
13, 118796, Note_off_c, 10, 53, 0
13, 118796, Note_off_c, 10, 57, 0
13, 118796, Note_off_c, 10, 62, 0
13, 118796, Note_off_c, 10, 65, 0
13, 118800, Note_on_c, 10, 53, 103
13, 118800, Note_on_c, 10, 57, 103
13, 118800, Note_on_c, 10, 62, 103
13, 118800, Note_on_c, 10, 65, 103
13, 118916, Note_off_c, 10, 53, 0
13, 118916, Note_off_c, 10, 57, 0
13, 118916, Note_off_c, 10, 62, 0
13, 118916, Note_off_c, 10, 65, 0
13, 118920, Note_on_c, 10, 53, 118
13, 118920, Note_on_c, 10, 57, 118
13, 118920, Note_on_c, 10, 62, 118
13, 118920, Note_on_c, 10, 65, 118
13, 119036, Note_off_c, 10, 53, 0
13, 119036, Note_off_c, 10, 57, 0
13, 119036, Note_off_c, 10, 62, 0
13, 119036, Note_off_c, 10, 65, 0
13, 119040, Note_on_c, 10, 53, 127
13, 119040, Note_on_c, 10, 57, 127
13, 119040, Note_on_c, 10, 60, 127
13, 119040, Note_on_c, 10, 65, 127
13, 119156, Note_off_c, 10, 53, 0
13, 119156, Note_off_c, 10, 57, 0
13, 119156, Note_off_c, 10, 60, 0
13, 119156, Note_off_c, 10, 65, 0
13, 119160, Note_on_c, 10, 53, 97
13, 119160, Note_on_c, 10, 57, 97
13, 119160, Note_on_c, 10, 60, 97
13, 119160, Note_on_c, 10, 65, 97
13, 119276, Note_off_c, 10, 53, 0
13, 119276, Note_off_c, 10, 57, 0
13, 119276, Note_off_c, 10, 60, 0
13, 119276, Note_off_c, 10, 65, 0
13, 119280, Note_on_c, 10, 53, 108
13, 119280, Note_on_c, 10, 57, 108
13, 119280, Note_on_c, 10, 60, 108
13, 119280, Note_on_c, 10, 65, 108
13, 119396, Note_off_c, 10, 53, 0
13, 119396, Note_off_c, 10, 57, 0
13, 119396, Note_off_c, 10, 60, 0
13, 119396, Note_off_c, 10, 65, 0
13, 119400, Note_on_c, 10, 53, 127
13, 119400, Note_on_c, 10, 57, 127
13, 119400, Note_on_c, 10, 60, 127
13, 119400, Note_on_c, 10, 65, 127
13, 119516, Note_off_c, 10, 53, 0
13, 119516, Note_off_c, 10, 57, 0
13, 119516, Note_off_c, 10, 60, 0
13, 119516, Note_off_c, 10, 65, 0
13, 119640, Note_on_c, 10, 53, 93
13, 119640, Note_on_c, 10, 57, 93
13, 119640, Note_on_c, 10, 60, 93
13, 119640, Note_on_c, 10, 65, 93
13, 119756, Note_off_c, 10, 53, 0
13, 119756, Note_off_c, 10, 57, 0
13, 119756, Note_off_c, 10, 60, 0
13, 119756, Note_off_c, 10, 65, 0
13, 119760, Note_on_c, 10, 53, 103
13, 119760, Note_on_c, 10, 57, 103
13, 119760, Note_on_c, 10, 60, 103
13, 119760, Note_on_c, 10, 65, 103
13, 119876, Note_off_c, 10, 53, 0
13, 119876, Note_off_c, 10, 57, 0
13, 119876, Note_off_c, 10, 60, 0
13, 119876, Note_off_c, 10, 65, 0
13, 119880, Note_on_c, 10, 53, 118
13, 119880, Note_on_c, 10, 57, 118
13, 119880, Note_on_c, 10, 60, 118
13, 119880, Note_on_c, 10, 65, 118
13, 119996, Note_off_c, 10, 53, 0
13, 119996, Note_off_c, 10, 57, 0
13, 119996, Note_off_c, 10, 60, 0
13, 119996, Note_off_c, 10, 65, 0
13, 120000, Note_on_c, 10, 55, 127
13, 120000, Note_on_c, 10, 60, 127
13, 120000, Note_on_c, 10, 64, 127
13, 120000, Note_on_c, 10, 67, 127
13, 120116, Note_off_c, 10, 55, 0
13, 120116, Note_off_c, 10, 60, 0
13, 120116, Note_off_c, 10, 64, 0
13, 120116, Note_off_c, 10, 67, 0
13, 120120, Note_on_c, 10, 55, 97
13, 120120, Note_on_c, 10, 60, 97
13, 120120, Note_on_c, 10, 64, 97
13, 120120, Note_on_c, 10, 67, 97
13, 120236, Note_off_c, 10, 55, 0
13, 120236, Note_off_c, 10, 60, 0
13, 120236, Note_off_c, 10, 64, 0
13, 120236, Note_off_c, 10, 67, 0
13, 120240, Note_on_c, 10, 55, 108
13, 120240, Note_on_c, 10, 60, 108
13, 120240, Note_on_c, 10, 64, 108
13, 120240, Note_on_c, 10, 67, 108
13, 120356, Note_off_c, 10, 55, 0
13, 120356, Note_off_c, 10, 60, 0
13, 120356, Note_off_c, 10, 64, 0
13, 120356, Note_off_c, 10, 67, 0
13, 120360, Note_on_c, 10, 55, 127
13, 120360, Note_on_c, 10, 60, 127
13, 120360, Note_on_c, 10, 64, 127
13, 120360, Note_on_c, 10, 67, 127
13, 120476, Note_off_c, 10, 55, 0
13, 120476, Note_off_c, 10, 60, 0
13, 120476, Note_off_c, 10, 64, 0
13, 120476, Note_off_c, 10, 67, 0
13, 120600, Note_on_c, 10, 55, 93
13, 120600, Note_on_c, 10, 60, 93
13, 120600, Note_on_c, 10, 64, 93
13, 120600, Note_on_c, 10, 67, 93
13, 120716, Note_off_c, 10, 55, 0
13, 120716, Note_off_c, 10, 60, 0
13, 120716, Note_off_c, 10, 64, 0
13, 120716, Note_off_c, 10, 67, 0
13, 120720, Note_on_c, 10, 55, 103
13, 120720, Note_on_c, 10, 60, 103
13, 120720, Note_on_c, 10, 64, 103
13, 120720, Note_on_c, 10, 67, 103
13, 120836, Note_off_c, 10, 55, 0
13, 120836, Note_off_c, 10, 60, 0
13, 120836, Note_off_c, 10, 64, 0
13, 120836, Note_off_c, 10, 67, 0
13, 120840, Note_on_c, 10, 55, 118
13, 120840, Note_on_c, 10, 60, 118
13, 120840, Note_on_c, 10, 64, 118
13, 120840, Note_on_c, 10, 67, 118
13, 120956, Note_off_c, 10, 55, 0
13, 120956, Note_off_c, 10, 60, 0
13, 120956, Note_off_c, 10, 64, 0
13, 120956, Note_off_c, 10, 67, 0
13, 120960, Note_on_c, 10, 55, 127
13, 120960, Note_on_c, 10, 59, 127
13, 120960, Note_on_c, 10, 62, 127
13, 120960, Note_on_c, 10, 67, 127
13, 121076, Note_off_c, 10, 55, 0
13, 121076, Note_off_c, 10, 59, 0
13, 121076, Note_off_c, 10, 62, 0
13, 121076, Note_off_c, 10, 67, 0
13, 121080, Note_on_c, 10, 55, 97
13, 121080, Note_on_c, 10, 59, 97
13, 121080, Note_on_c, 10, 62, 97
13, 121080, Note_on_c, 10, 67, 97
13, 121196, Note_off_c, 10, 55, 0
13, 121196, Note_off_c, 10, 59, 0
13, 121196, Note_off_c, 10, 62, 0
13, 121196, Note_off_c, 10, 67, 0
13, 121200, Note_on_c, 10, 55, 108
13, 121200, Note_on_c, 10, 59, 108
13, 121200, Note_on_c, 10, 62, 108
13, 121200, Note_on_c, 10, 67, 108
13, 121316, Note_off_c, 10, 55, 0
13, 121316, Note_off_c, 10, 59, 0
13, 121316, Note_off_c, 10, 62, 0
13, 121316, Note_off_c, 10, 67, 0
13, 121320, Note_on_c, 10, 55, 127
13, 121320, Note_on_c, 10, 59, 127
13, 121320, Note_on_c, 10, 62, 127
13, 121320, Note_on_c, 10, 67, 127
13, 121436, Note_off_c, 10, 55, 0
13, 121436, Note_off_c, 10, 59, 0
13, 121436, Note_off_c, 10, 62, 0
13, 121436, Note_off_c, 10, 67, 0
13, 121560, Note_on_c, 10, 55, 93
13, 121560, Note_on_c, 10, 59, 93
13, 121560, Note_on_c, 10, 62, 93
13, 121560, Note_on_c, 10, 67, 93
13, 121676, Note_off_c, 10, 55, 0
13, 121676, Note_off_c, 10, 59, 0
13, 121676, Note_off_c, 10, 62, 0
13, 121676, Note_off_c, 10, 67, 0
13, 121680, Note_on_c, 10, 55, 103
13, 121680, Note_on_c, 10, 59, 103
13, 121680, Note_on_c, 10, 62, 103
13, 121680, Note_on_c, 10, 67, 103
13, 121796, Note_off_c, 10, 55, 0
13, 121796, Note_off_c, 10, 59, 0
13, 121796, Note_off_c, 10, 62, 0
13, 121796, Note_off_c, 10, 67, 0
13, 121800, Note_on_c, 10, 55, 118
13, 121800, Note_on_c, 10, 59, 118
13, 121800, Note_on_c, 10, 62, 118
13, 121800, Note_on_c, 10, 67, 118
13, 121916, Note_off_c, 10, 55, 0
13, 121916, Note_off_c, 10, 59, 0
13, 121916, Note_off_c, 10, 62, 0
13, 121916, Note_off_c, 10, 67, 0
13, 121920, Note_on_c, 10, 55, 127
13, 121920, Note_on_c, 10, 59, 127
13, 121920, Note_on_c, 10, 62, 127
13, 121920, Note_on_c, 10, 67, 127
13, 122036, Note_off_c, 10, 55, 0
13, 122036, Note_off_c, 10, 59, 0
13, 122036, Note_off_c, 10, 62, 0
13, 122036, Note_off_c, 10, 67, 0
13, 122040, Note_on_c, 10, 55, 97
13, 122040, Note_on_c, 10, 59, 97
13, 122040, Note_on_c, 10, 62, 97
13, 122040, Note_on_c, 10, 67, 97
13, 122156, Note_off_c, 10, 55, 0
13, 122156, Note_off_c, 10, 59, 0
13, 122156, Note_off_c, 10, 62, 0
13, 122156, Note_off_c, 10, 67, 0
13, 122160, Note_on_c, 10, 55, 108
13, 122160, Note_on_c, 10, 59, 108
13, 122160, Note_on_c, 10, 62, 108
13, 122160, Note_on_c, 10, 67, 108
13, 122276, Note_off_c, 10, 55, 0
13, 122276, Note_off_c, 10, 59, 0
13, 122276, Note_off_c, 10, 62, 0
13, 122276, Note_off_c, 10, 67, 0
13, 122280, Note_on_c, 10, 55, 127
13, 122280, Note_on_c, 10, 59, 127
13, 122280, Note_on_c, 10, 62, 127
13, 122280, Note_on_c, 10, 67, 127
13, 122396, Note_off_c, 10, 55, 0
13, 122396, Note_off_c, 10, 59, 0
13, 122396, Note_off_c, 10, 62, 0
13, 122396, Note_off_c, 10, 67, 0
13, 122520, Note_on_c, 10, 55, 93
13, 122520, Note_on_c, 10, 59, 93
13, 122520, Note_on_c, 10, 62, 93
13, 122520, Note_on_c, 10, 67, 93
13, 122636, Note_off_c, 10, 55, 0
13, 122636, Note_off_c, 10, 59, 0
13, 122636, Note_off_c, 10, 62, 0
13, 122636, Note_off_c, 10, 67, 0
13, 122640, Note_on_c, 10, 55, 103
13, 122640, Note_on_c, 10, 59, 103
13, 122640, Note_on_c, 10, 62, 103
13, 122640, Note_on_c, 10, 67, 103
13, 122756, Note_off_c, 10, 55, 0
13, 122756, Note_off_c, 10, 59, 0
13, 122756, Note_off_c, 10, 62, 0
13, 122756, Note_off_c, 10, 67, 0
13, 122760, Note_on_c, 10, 55, 118
13, 122760, Note_on_c, 10, 59, 118
13, 122760, Note_on_c, 10, 62, 118
13, 122760, Note_on_c, 10, 67, 118
13, 122876, Note_off_c, 10, 55, 0
13, 122876, Note_off_c, 10, 59, 0
13, 122876, Note_off_c, 10, 62, 0
13, 122876, Note_off_c, 10, 67, 0
13, 122880, Note_on_c, 10, 55, 127
13, 122880, Note_on_c, 10, 59, 127
13, 122880, Note_on_c, 10, 62, 127
13, 122880, Note_on_c, 10, 67, 127
13, 122996, Note_off_c, 10, 55, 0
13, 122996, Note_off_c, 10, 59, 0
13, 122996, Note_off_c, 10, 62, 0
13, 122996, Note_off_c, 10, 67, 0
13, 123000, Note_on_c, 10, 55, 97
13, 123000, Note_on_c, 10, 59, 97
13, 123000, Note_on_c, 10, 62, 97
13, 123000, Note_on_c, 10, 67, 97
13, 123116, Note_off_c, 10, 55, 0
13, 123116, Note_off_c, 10, 59, 0
13, 123116, Note_off_c, 10, 62, 0
13, 123116, Note_off_c, 10, 67, 0
13, 123120, Note_on_c, 10, 55, 108
13, 123120, Note_on_c, 10, 59, 108
13, 123120, Note_on_c, 10, 62, 108
13, 123120, Note_on_c, 10, 67, 108
13, 123236, Note_off_c, 10, 55, 0
13, 123236, Note_off_c, 10, 59, 0
13, 123236, Note_off_c, 10, 62, 0
13, 123236, Note_off_c, 10, 67, 0
13, 123240, Note_on_c, 10, 55, 127
13, 123240, Note_on_c, 10, 59, 127
13, 123240, Note_on_c, 10, 62, 127
13, 123240, Note_on_c, 10, 67, 127
13, 123356, Note_off_c, 10, 55, 0
13, 123356, Note_off_c, 10, 59, 0
13, 123356, Note_off_c, 10, 62, 0
13, 123356, Note_off_c, 10, 67, 0
13, 123480, Note_on_c, 10, 55, 93
13, 123480, Note_on_c, 10, 59, 93
13, 123480, Note_on_c, 10, 62, 93
13, 123480, Note_on_c, 10, 67, 93
13, 123596, Note_off_c, 10, 55, 0
13, 123596, Note_off_c, 10, 59, 0
13, 123596, Note_off_c, 10, 62, 0
13, 123596, Note_off_c, 10, 67, 0
13, 123600, Note_on_c, 10, 55, 103
13, 123600, Note_on_c, 10, 59, 103
13, 123600, Note_on_c, 10, 62, 103
13, 123600, Note_on_c, 10, 67, 103
13, 123716, Note_off_c, 10, 55, 0
13, 123716, Note_off_c, 10, 59, 0
13, 123716, Note_off_c, 10, 62, 0
13, 123716, Note_off_c, 10, 67, 0
13, 123720, Note_on_c, 10, 55, 118
13, 123720, Note_on_c, 10, 59, 118
13, 123720, Note_on_c, 10, 62, 118
13, 123720, Note_on_c, 10, 67, 118
13, 123836, Note_off_c, 10, 55, 0
13, 123836, Note_off_c, 10, 59, 0
13, 123836, Note_off_c, 10, 62, 0
13, 123836, Note_off_c, 10, 67, 0
13, 123840, Note_on_c, 10, 55, 127
13, 123840, Note_on_c, 10, 59, 127
13, 123840, Note_on_c, 10, 62, 127
13, 123840, Note_on_c, 10, 67, 127
13, 123956, Note_off_c, 10, 55, 0
13, 123956, Note_off_c, 10, 59, 0
13, 123956, Note_off_c, 10, 62, 0
13, 123956, Note_off_c, 10, 67, 0
13, 123960, Note_on_c, 10, 55, 97
13, 123960, Note_on_c, 10, 59, 97
13, 123960, Note_on_c, 10, 62, 97
13, 123960, Note_on_c, 10, 67, 97
13, 124076, Note_off_c, 10, 55, 0
13, 124076, Note_off_c, 10, 59, 0
13, 124076, Note_off_c, 10, 62, 0
13, 124076, Note_off_c, 10, 67, 0
13, 124080, Note_on_c, 10, 55, 108
13, 124080, Note_on_c, 10, 59, 108
13, 124080, Note_on_c, 10, 62, 108
13, 124080, Note_on_c, 10, 67, 108
13, 124196, Note_off_c, 10, 55, 0
13, 124196, Note_off_c, 10, 59, 0
13, 124196, Note_off_c, 10, 62, 0
13, 124196, Note_off_c, 10, 67, 0
13, 124200, Note_on_c, 10, 55, 127
13, 124200, Note_on_c, 10, 59, 127
13, 124200, Note_on_c, 10, 62, 127
13, 124200, Note_on_c, 10, 67, 127
13, 124316, Note_off_c, 10, 55, 0
13, 124316, Note_off_c, 10, 59, 0
13, 124316, Note_off_c, 10, 62, 0
13, 124316, Note_off_c, 10, 67, 0
13, 124440, Note_on_c, 10, 55, 93
13, 124440, Note_on_c, 10, 59, 93
13, 124440, Note_on_c, 10, 62, 93
13, 124440, Note_on_c, 10, 67, 93
13, 124556, Note_off_c, 10, 55, 0
13, 124556, Note_off_c, 10, 59, 0
13, 124556, Note_off_c, 10, 62, 0
13, 124556, Note_off_c, 10, 67, 0
13, 124560, Note_on_c, 10, 55, 103
13, 124560, Note_on_c, 10, 59, 103
13, 124560, Note_on_c, 10, 62, 103
13, 124560, Note_on_c, 10, 67, 103
13, 124676, Note_off_c, 10, 55, 0
13, 124676, Note_off_c, 10, 59, 0
13, 124676, Note_off_c, 10, 62, 0
13, 124676, Note_off_c, 10, 67, 0
13, 124680, Note_on_c, 10, 55, 118
13, 124680, Note_on_c, 10, 59, 118
13, 124680, Note_on_c, 10, 62, 118
13, 124680, Note_on_c, 10, 67, 118
13, 124796, Note_off_c, 10, 55, 0
13, 124796, Note_off_c, 10, 59, 0
13, 124796, Note_off_c, 10, 62, 0
13, 124796, Note_off_c, 10, 67, 0
13, 124800, Note_on_c, 10, 53, 127
13, 124800, Note_on_c, 10, 57, 127
13, 124800, Note_on_c, 10, 62, 127
13, 124800, Note_on_c, 10, 65, 127
13, 124916, Note_off_c, 10, 53, 0
13, 124916, Note_off_c, 10, 57, 0
13, 124916, Note_off_c, 10, 62, 0
13, 124916, Note_off_c, 10, 65, 0
13, 124920, Note_on_c, 10, 53, 97
13, 124920, Note_on_c, 10, 57, 97
13, 124920, Note_on_c, 10, 62, 97
13, 124920, Note_on_c, 10, 65, 97
13, 125036, Note_off_c, 10, 53, 0
13, 125036, Note_off_c, 10, 57, 0
13, 125036, Note_off_c, 10, 62, 0
13, 125036, Note_off_c, 10, 65, 0
13, 125040, Note_on_c, 10, 53, 108
13, 125040, Note_on_c, 10, 57, 108
13, 125040, Note_on_c, 10, 62, 108
13, 125040, Note_on_c, 10, 65, 108
13, 125156, Note_off_c, 10, 53, 0
13, 125156, Note_off_c, 10, 57, 0
13, 125156, Note_off_c, 10, 62, 0
13, 125156, Note_off_c, 10, 65, 0
13, 125160, Note_on_c, 10, 53, 127
13, 125160, Note_on_c, 10, 57, 127
13, 125160, Note_on_c, 10, 62, 127
13, 125160, Note_on_c, 10, 65, 127
13, 125276, Note_off_c, 10, 53, 0
13, 125276, Note_off_c, 10, 57, 0
13, 125276, Note_off_c, 10, 62, 0
13, 125276, Note_off_c, 10, 65, 0
13, 125400, Note_on_c, 10, 53, 93
13, 125400, Note_on_c, 10, 57, 93
13, 125400, Note_on_c, 10, 62, 93
13, 125400, Note_on_c, 10, 65, 93
13, 125516, Note_off_c, 10, 53, 0
13, 125516, Note_off_c, 10, 57, 0
13, 125516, Note_off_c, 10, 62, 0
13, 125516, Note_off_c, 10, 65, 0
13, 125520, Note_on_c, 10, 53, 103
13, 125520, Note_on_c, 10, 57, 103
13, 125520, Note_on_c, 10, 62, 103
13, 125520, Note_on_c, 10, 65, 103
13, 125636, Note_off_c, 10, 53, 0
13, 125636, Note_off_c, 10, 57, 0
13, 125636, Note_off_c, 10, 62, 0
13, 125636, Note_off_c, 10, 65, 0
13, 125640, Note_on_c, 10, 53, 118
13, 125640, Note_on_c, 10, 57, 118
13, 125640, Note_on_c, 10, 62, 118
13, 125640, Note_on_c, 10, 65, 118
13, 125756, Note_off_c, 10, 53, 0
13, 125756, Note_off_c, 10, 57, 0
13, 125756, Note_off_c, 10, 62, 0
13, 125756, Note_off_c, 10, 65, 0
13, 125760, Note_on_c, 10, 53, 127
13, 125760, Note_on_c, 10, 57, 127
13, 125760, Note_on_c, 10, 62, 127
13, 125760, Note_on_c, 10, 65, 127
13, 125876, Note_off_c, 10, 53, 0
13, 125876, Note_off_c, 10, 57, 0
13, 125876, Note_off_c, 10, 62, 0
13, 125876, Note_off_c, 10, 65, 0
13, 125880, Note_on_c, 10, 53, 97
13, 125880, Note_on_c, 10, 57, 97
13, 125880, Note_on_c, 10, 62, 97
13, 125880, Note_on_c, 10, 65, 97
13, 125996, Note_off_c, 10, 53, 0
13, 125996, Note_off_c, 10, 57, 0
13, 125996, Note_off_c, 10, 62, 0
13, 125996, Note_off_c, 10, 65, 0
13, 126000, Note_on_c, 10, 53, 108
13, 126000, Note_on_c, 10, 57, 108
13, 126000, Note_on_c, 10, 62, 108
13, 126000, Note_on_c, 10, 65, 108
13, 126116, Note_off_c, 10, 53, 0
13, 126116, Note_off_c, 10, 57, 0
13, 126116, Note_off_c, 10, 62, 0
13, 126116, Note_off_c, 10, 65, 0
13, 126120, Note_on_c, 10, 53, 127
13, 126120, Note_on_c, 10, 57, 127
13, 126120, Note_on_c, 10, 62, 127
13, 126120, Note_on_c, 10, 65, 127
13, 126236, Note_off_c, 10, 53, 0
13, 126236, Note_off_c, 10, 57, 0
13, 126236, Note_off_c, 10, 62, 0
13, 126236, Note_off_c, 10, 65, 0
13, 126360, Note_on_c, 10, 53, 93
13, 126360, Note_on_c, 10, 57, 93
13, 126360, Note_on_c, 10, 62, 93
13, 126360, Note_on_c, 10, 65, 93
13, 126476, Note_off_c, 10, 53, 0
13, 126476, Note_off_c, 10, 57, 0
13, 126476, Note_off_c, 10, 62, 0
13, 126476, Note_off_c, 10, 65, 0
13, 126480, Note_on_c, 10, 53, 103
13, 126480, Note_on_c, 10, 57, 103
13, 126480, Note_on_c, 10, 62, 103
13, 126480, Note_on_c, 10, 65, 103
13, 126596, Note_off_c, 10, 53, 0
13, 126596, Note_off_c, 10, 57, 0
13, 126596, Note_off_c, 10, 62, 0
13, 126596, Note_off_c, 10, 65, 0
13, 126600, Note_on_c, 10, 53, 118
13, 126600, Note_on_c, 10, 57, 118
13, 126600, Note_on_c, 10, 62, 118
13, 126600, Note_on_c, 10, 65, 118
13, 126716, Note_off_c, 10, 53, 0
13, 126716, Note_off_c, 10, 57, 0
13, 126716, Note_off_c, 10, 62, 0
13, 126716, Note_off_c, 10, 65, 0
13, 126720, Note_on_c, 10, 53, 127
13, 126720, Note_on_c, 10, 57, 127
13, 126720, Note_on_c, 10, 60, 127
13, 126720, Note_on_c, 10, 65, 127
13, 126836, Note_off_c, 10, 53, 0
13, 126836, Note_off_c, 10, 57, 0
13, 126836, Note_off_c, 10, 60, 0
13, 126836, Note_off_c, 10, 65, 0
13, 126840, Note_on_c, 10, 53, 97
13, 126840, Note_on_c, 10, 57, 97
13, 126840, Note_on_c, 10, 60, 97
13, 126840, Note_on_c, 10, 65, 97
13, 126956, Note_off_c, 10, 53, 0
13, 126956, Note_off_c, 10, 57, 0
13, 126956, Note_off_c, 10, 60, 0
13, 126956, Note_off_c, 10, 65, 0
13, 126960, Note_on_c, 10, 53, 108
13, 126960, Note_on_c, 10, 57, 108
13, 126960, Note_on_c, 10, 60, 108
13, 126960, Note_on_c, 10, 65, 108
13, 127076, Note_off_c, 10, 53, 0
13, 127076, Note_off_c, 10, 57, 0
13, 127076, Note_off_c, 10, 60, 0
13, 127076, Note_off_c, 10, 65, 0
13, 127080, Note_on_c, 10, 53, 127
13, 127080, Note_on_c, 10, 57, 127
13, 127080, Note_on_c, 10, 60, 127
13, 127080, Note_on_c, 10, 65, 127
13, 127196, Note_off_c, 10, 53, 0
13, 127196, Note_off_c, 10, 57, 0
13, 127196, Note_off_c, 10, 60, 0
13, 127196, Note_off_c, 10, 65, 0
13, 127320, Note_on_c, 10, 53, 93
13, 127320, Note_on_c, 10, 57, 93
13, 127320, Note_on_c, 10, 60, 93
13, 127320, Note_on_c, 10, 65, 93
13, 127436, Note_off_c, 10, 53, 0
13, 127436, Note_off_c, 10, 57, 0
13, 127436, Note_off_c, 10, 60, 0
13, 127436, Note_off_c, 10, 65, 0
13, 127440, Note_on_c, 10, 53, 103
13, 127440, Note_on_c, 10, 57, 103
13, 127440, Note_on_c, 10, 60, 103
13, 127440, Note_on_c, 10, 65, 103
13, 127556, Note_off_c, 10, 53, 0
13, 127556, Note_off_c, 10, 57, 0
13, 127556, Note_off_c, 10, 60, 0
13, 127556, Note_off_c, 10, 65, 0
13, 127560, Note_on_c, 10, 53, 118
13, 127560, Note_on_c, 10, 57, 118
13, 127560, Note_on_c, 10, 60, 118
13, 127560, Note_on_c, 10, 65, 118
13, 127676, Note_off_c, 10, 53, 0
13, 127676, Note_off_c, 10, 57, 0
13, 127676, Note_off_c, 10, 60, 0
13, 127676, Note_off_c, 10, 65, 0
13, 127680, Note_on_c, 10, 55, 127
13, 127680, Note_on_c, 10, 60, 127
13, 127680, Note_on_c, 10, 64, 127
13, 127680, Note_on_c, 10, 67, 127
13, 127796, Note_off_c, 10, 55, 0
13, 127796, Note_off_c, 10, 60, 0
13, 127796, Note_off_c, 10, 64, 0
13, 127796, Note_off_c, 10, 67, 0
13, 127800, Note_on_c, 10, 55, 97
13, 127800, Note_on_c, 10, 60, 97
13, 127800, Note_on_c, 10, 64, 97
13, 127800, Note_on_c, 10, 67, 97
13, 127916, Note_off_c, 10, 55, 0
13, 127916, Note_off_c, 10, 60, 0
13, 127916, Note_off_c, 10, 64, 0
13, 127916, Note_off_c, 10, 67, 0
13, 127920, Note_on_c, 10, 55, 108
13, 127920, Note_on_c, 10, 60, 108
13, 127920, Note_on_c, 10, 64, 108
13, 127920, Note_on_c, 10, 67, 108
13, 128036, Note_off_c, 10, 55, 0
13, 128036, Note_off_c, 10, 60, 0
13, 128036, Note_off_c, 10, 64, 0
13, 128036, Note_off_c, 10, 67, 0
13, 128040, Note_on_c, 10, 55, 127
13, 128040, Note_on_c, 10, 60, 127
13, 128040, Note_on_c, 10, 64, 127
13, 128040, Note_on_c, 10, 67, 127
13, 128156, Note_off_c, 10, 55, 0
13, 128156, Note_off_c, 10, 60, 0
13, 128156, Note_off_c, 10, 64, 0
13, 128156, Note_off_c, 10, 67, 0
13, 128280, Note_on_c, 10, 55, 93
13, 128280, Note_on_c, 10, 60, 93
13, 128280, Note_on_c, 10, 64, 93
13, 128280, Note_on_c, 10, 67, 93
13, 128396, Note_off_c, 10, 55, 0
13, 128396, Note_off_c, 10, 60, 0
13, 128396, Note_off_c, 10, 64, 0
13, 128396, Note_off_c, 10, 67, 0
13, 128400, Note_on_c, 10, 55, 103
13, 128400, Note_on_c, 10, 60, 103
13, 128400, Note_on_c, 10, 64, 103
13, 128400, Note_on_c, 10, 67, 103
13, 128516, Note_off_c, 10, 55, 0
13, 128516, Note_off_c, 10, 60, 0
13, 128516, Note_off_c, 10, 64, 0
13, 128516, Note_off_c, 10, 67, 0
13, 128520, Note_on_c, 10, 55, 118
13, 128520, Note_on_c, 10, 60, 118
13, 128520, Note_on_c, 10, 64, 118
13, 128520, Note_on_c, 10, 67, 118
13, 128636, Note_off_c, 10, 55, 0
13, 128636, Note_off_c, 10, 60, 0
13, 128636, Note_off_c, 10, 64, 0
13, 128636, Note_off_c, 10, 67, 0
13, 128640, Note_on_c, 10, 55, 127
13, 128640, Note_on_c, 10, 59, 127
13, 128640, Note_on_c, 10, 62, 127
13, 128640, Note_on_c, 10, 67, 127
13, 128756, Note_off_c, 10, 55, 0
13, 128756, Note_off_c, 10, 59, 0
13, 128756, Note_off_c, 10, 62, 0
13, 128756, Note_off_c, 10, 67, 0
13, 128760, Note_on_c, 10, 55, 97
13, 128760, Note_on_c, 10, 59, 97
13, 128760, Note_on_c, 10, 62, 97
13, 128760, Note_on_c, 10, 67, 97
13, 128876, Note_off_c, 10, 55, 0
13, 128876, Note_off_c, 10, 59, 0
13, 128876, Note_off_c, 10, 62, 0
13, 128876, Note_off_c, 10, 67, 0
13, 128880, Note_on_c, 10, 55, 108
13, 128880, Note_on_c, 10, 59, 108
13, 128880, Note_on_c, 10, 62, 108
13, 128880, Note_on_c, 10, 67, 108
13, 128996, Note_off_c, 10, 55, 0
13, 128996, Note_off_c, 10, 59, 0
13, 128996, Note_off_c, 10, 62, 0
13, 128996, Note_off_c, 10, 67, 0
13, 129000, Note_on_c, 10, 55, 127
13, 129000, Note_on_c, 10, 59, 127
13, 129000, Note_on_c, 10, 62, 127
13, 129000, Note_on_c, 10, 67, 127
13, 129116, Note_off_c, 10, 55, 0
13, 129116, Note_off_c, 10, 59, 0
13, 129116, Note_off_c, 10, 62, 0
13, 129116, Note_off_c, 10, 67, 0
13, 129240, Note_on_c, 10, 55, 93
13, 129240, Note_on_c, 10, 59, 93
13, 129240, Note_on_c, 10, 62, 93
13, 129240, Note_on_c, 10, 67, 93
13, 129356, Note_off_c, 10, 55, 0
13, 129356, Note_off_c, 10, 59, 0
13, 129356, Note_off_c, 10, 62, 0
13, 129356, Note_off_c, 10, 67, 0
13, 129360, Note_on_c, 10, 55, 103
13, 129360, Note_on_c, 10, 59, 103
13, 129360, Note_on_c, 10, 62, 103
13, 129360, Note_on_c, 10, 67, 103
13, 129476, Note_off_c, 10, 55, 0
13, 129476, Note_off_c, 10, 59, 0
13, 129476, Note_off_c, 10, 62, 0
13, 129476, Note_off_c, 10, 67, 0
13, 129480, Note_on_c, 10, 55, 118
13, 129480, Note_on_c, 10, 59, 118
13, 129480, Note_on_c, 10, 62, 118
13, 129480, Note_on_c, 10, 67, 118
13, 129596, Note_off_c, 10, 55, 0
13, 129596, Note_off_c, 10, 59, 0
13, 129596, Note_off_c, 10, 62, 0
13, 129596, Note_off_c, 10, 67, 0
13, 129600, Note_on_c, 10, 55, 127
13, 129600, Note_on_c, 10, 59, 127
13, 129600, Note_on_c, 10, 62, 127
13, 129600, Note_on_c, 10, 67, 127
13, 129716, Note_off_c, 10, 55, 0
13, 129716, Note_off_c, 10, 59, 0
13, 129716, Note_off_c, 10, 62, 0
13, 129716, Note_off_c, 10, 67, 0
13, 129720, Note_on_c, 10, 55, 97
13, 129720, Note_on_c, 10, 59, 97
13, 129720, Note_on_c, 10, 62, 97
13, 129720, Note_on_c, 10, 67, 97
13, 129836, Note_off_c, 10, 55, 0
13, 129836, Note_off_c, 10, 59, 0
13, 129836, Note_off_c, 10, 62, 0
13, 129836, Note_off_c, 10, 67, 0
13, 129840, Note_on_c, 10, 55, 108
13, 129840, Note_on_c, 10, 59, 108
13, 129840, Note_on_c, 10, 62, 108
13, 129840, Note_on_c, 10, 67, 108
13, 129956, Note_off_c, 10, 55, 0
13, 129956, Note_off_c, 10, 59, 0
13, 129956, Note_off_c, 10, 62, 0
13, 129956, Note_off_c, 10, 67, 0
13, 129960, Note_on_c, 10, 55, 127
13, 129960, Note_on_c, 10, 59, 127
13, 129960, Note_on_c, 10, 62, 127
13, 129960, Note_on_c, 10, 67, 127
13, 130076, Note_off_c, 10, 55, 0
13, 130076, Note_off_c, 10, 59, 0
13, 130076, Note_off_c, 10, 62, 0
13, 130076, Note_off_c, 10, 67, 0
13, 130200, Note_on_c, 10, 55, 93
13, 130200, Note_on_c, 10, 59, 93
13, 130200, Note_on_c, 10, 62, 93
13, 130200, Note_on_c, 10, 67, 93
13, 130316, Note_off_c, 10, 55, 0
13, 130316, Note_off_c, 10, 59, 0
13, 130316, Note_off_c, 10, 62, 0
13, 130316, Note_off_c, 10, 67, 0
13, 130320, Note_on_c, 10, 55, 103
13, 130320, Note_on_c, 10, 59, 103
13, 130320, Note_on_c, 10, 62, 103
13, 130320, Note_on_c, 10, 67, 103
13, 130436, Note_off_c, 10, 55, 0
13, 130436, Note_off_c, 10, 59, 0
13, 130436, Note_off_c, 10, 62, 0
13, 130436, Note_off_c, 10, 67, 0
13, 130440, Note_on_c, 10, 55, 118
13, 130440, Note_on_c, 10, 59, 118
13, 130440, Note_on_c, 10, 62, 118
13, 130440, Note_on_c, 10, 67, 118
13, 130556, Note_off_c, 10, 55, 0
13, 130556, Note_off_c, 10, 59, 0
13, 130556, Note_off_c, 10, 62, 0
13, 130556, Note_off_c, 10, 67, 0
13, 130560, Note_on_c, 10, 55, 127
13, 130560, Note_on_c, 10, 59, 127
13, 130560, Note_on_c, 10, 62, 127
13, 130560, Note_on_c, 10, 67, 127
13, 130676, Note_off_c, 10, 55, 0
13, 130676, Note_off_c, 10, 59, 0
13, 130676, Note_off_c, 10, 62, 0
13, 130676, Note_off_c, 10, 67, 0
13, 130680, Note_on_c, 10, 55, 97
13, 130680, Note_on_c, 10, 59, 97
13, 130680, Note_on_c, 10, 62, 97
13, 130680, Note_on_c, 10, 67, 97
13, 130796, Note_off_c, 10, 55, 0
13, 130796, Note_off_c, 10, 59, 0
13, 130796, Note_off_c, 10, 62, 0
13, 130796, Note_off_c, 10, 67, 0
13, 130800, Note_on_c, 10, 55, 108
13, 130800, Note_on_c, 10, 59, 108
13, 130800, Note_on_c, 10, 62, 108
13, 130800, Note_on_c, 10, 67, 108
13, 130916, Note_off_c, 10, 55, 0
13, 130916, Note_off_c, 10, 59, 0
13, 130916, Note_off_c, 10, 62, 0
13, 130916, Note_off_c, 10, 67, 0
13, 130920, Note_on_c, 10, 55, 127
13, 130920, Note_on_c, 10, 59, 127
13, 130920, Note_on_c, 10, 62, 127
13, 130920, Note_on_c, 10, 67, 127
13, 131036, Note_off_c, 10, 55, 0
13, 131036, Note_off_c, 10, 59, 0
13, 131036, Note_off_c, 10, 62, 0
13, 131036, Note_off_c, 10, 67, 0
13, 131160, Note_on_c, 10, 55, 93
13, 131160, Note_on_c, 10, 59, 93
13, 131160, Note_on_c, 10, 62, 93
13, 131160, Note_on_c, 10, 67, 93
13, 131276, Note_off_c, 10, 55, 0
13, 131276, Note_off_c, 10, 59, 0
13, 131276, Note_off_c, 10, 62, 0
13, 131276, Note_off_c, 10, 67, 0
13, 131280, Note_on_c, 10, 55, 103
13, 131280, Note_on_c, 10, 59, 103
13, 131280, Note_on_c, 10, 62, 103
13, 131280, Note_on_c, 10, 67, 103
13, 131396, Note_off_c, 10, 55, 0
13, 131396, Note_off_c, 10, 59, 0
13, 131396, Note_off_c, 10, 62, 0
13, 131396, Note_off_c, 10, 67, 0
13, 131400, Note_on_c, 10, 55, 118
13, 131400, Note_on_c, 10, 59, 118
13, 131400, Note_on_c, 10, 62, 118
13, 131400, Note_on_c, 10, 67, 118
13, 131516, Note_off_c, 10, 55, 0
13, 131516, Note_off_c, 10, 59, 0
13, 131516, Note_off_c, 10, 62, 0
13, 131516, Note_off_c, 10, 67, 0
13, 131520, Note_on_c, 10, 55, 127
13, 131520, Note_on_c, 10, 59, 127
13, 131520, Note_on_c, 10, 62, 127
13, 131520, Note_on_c, 10, 67, 127
13, 131636, Note_off_c, 10, 55, 0
13, 131636, Note_off_c, 10, 59, 0
13, 131636, Note_off_c, 10, 62, 0
13, 131636, Note_off_c, 10, 67, 0
13, 131640, Note_on_c, 10, 55, 97
13, 131640, Note_on_c, 10, 59, 97
13, 131640, Note_on_c, 10, 62, 97
13, 131640, Note_on_c, 10, 67, 97
13, 131756, Note_off_c, 10, 55, 0
13, 131756, Note_off_c, 10, 59, 0
13, 131756, Note_off_c, 10, 62, 0
13, 131756, Note_off_c, 10, 67, 0
13, 131760, Note_on_c, 10, 55, 108
13, 131760, Note_on_c, 10, 59, 108
13, 131760, Note_on_c, 10, 62, 108
13, 131760, Note_on_c, 10, 67, 108
13, 131876, Note_off_c, 10, 55, 0
13, 131876, Note_off_c, 10, 59, 0
13, 131876, Note_off_c, 10, 62, 0
13, 131876, Note_off_c, 10, 67, 0
13, 131880, Note_on_c, 10, 55, 127
13, 131880, Note_on_c, 10, 59, 127
13, 131880, Note_on_c, 10, 62, 127
13, 131880, Note_on_c, 10, 67, 127
13, 131996, Note_off_c, 10, 55, 0
13, 131996, Note_off_c, 10, 59, 0
13, 131996, Note_off_c, 10, 62, 0
13, 131996, Note_off_c, 10, 67, 0
13, 132120, Note_on_c, 10, 55, 93
13, 132120, Note_on_c, 10, 59, 93
13, 132120, Note_on_c, 10, 62, 93
13, 132120, Note_on_c, 10, 67, 93
13, 132236, Note_off_c, 10, 55, 0
13, 132236, Note_off_c, 10, 59, 0
13, 132236, Note_off_c, 10, 62, 0
13, 132236, Note_off_c, 10, 67, 0
13, 132240, Note_on_c, 10, 55, 103
13, 132240, Note_on_c, 10, 59, 103
13, 132240, Note_on_c, 10, 62, 103
13, 132240, Note_on_c, 10, 67, 103
13, 132356, Note_off_c, 10, 55, 0
13, 132356, Note_off_c, 10, 59, 0
13, 132356, Note_off_c, 10, 62, 0
13, 132356, Note_off_c, 10, 67, 0
13, 132360, Note_on_c, 10, 55, 118
13, 132360, Note_on_c, 10, 59, 118
13, 132360, Note_on_c, 10, 62, 118
13, 132360, Note_on_c, 10, 67, 118
13, 132476, Note_off_c, 10, 55, 0
13, 132476, Note_off_c, 10, 59, 0
13, 132476, Note_off_c, 10, 62, 0
13, 132476, Note_off_c, 10, 67, 0
13, 132480, Note_on_c, 10, 53, 127
13, 132480, Note_on_c, 10, 57, 127
13, 132480, Note_on_c, 10, 62, 127
13, 132480, Note_on_c, 10, 65, 127
13, 132596, Note_off_c, 10, 53, 0
13, 132596, Note_off_c, 10, 57, 0
13, 132596, Note_off_c, 10, 62, 0
13, 132596, Note_off_c, 10, 65, 0
13, 132600, Note_on_c, 10, 53, 97
13, 132600, Note_on_c, 10, 57, 97
13, 132600, Note_on_c, 10, 62, 97
13, 132600, Note_on_c, 10, 65, 97
13, 132716, Note_off_c, 10, 53, 0
13, 132716, Note_off_c, 10, 57, 0
13, 132716, Note_off_c, 10, 62, 0
13, 132716, Note_off_c, 10, 65, 0
13, 132720, Note_on_c, 10, 53, 108
13, 132720, Note_on_c, 10, 57, 108
13, 132720, Note_on_c, 10, 62, 108
13, 132720, Note_on_c, 10, 65, 108
13, 132836, Note_off_c, 10, 53, 0
13, 132836, Note_off_c, 10, 57, 0
13, 132836, Note_off_c, 10, 62, 0
13, 132836, Note_off_c, 10, 65, 0
13, 132840, Note_on_c, 10, 53, 127
13, 132840, Note_on_c, 10, 57, 127
13, 132840, Note_on_c, 10, 62, 127
13, 132840, Note_on_c, 10, 65, 127
13, 132956, Note_off_c, 10, 53, 0
13, 132956, Note_off_c, 10, 57, 0
13, 132956, Note_off_c, 10, 62, 0
13, 132956, Note_off_c, 10, 65, 0
13, 133080, Note_on_c, 10, 53, 93
13, 133080, Note_on_c, 10, 57, 93
13, 133080, Note_on_c, 10, 62, 93
13, 133080, Note_on_c, 10, 65, 93
13, 133196, Note_off_c, 10, 53, 0
13, 133196, Note_off_c, 10, 57, 0
13, 133196, Note_off_c, 10, 62, 0
13, 133196, Note_off_c, 10, 65, 0
13, 133200, Note_on_c, 10, 53, 103
13, 133200, Note_on_c, 10, 57, 103
13, 133200, Note_on_c, 10, 62, 103
13, 133200, Note_on_c, 10, 65, 103
13, 133316, Note_off_c, 10, 53, 0
13, 133316, Note_off_c, 10, 57, 0
13, 133316, Note_off_c, 10, 62, 0
13, 133316, Note_off_c, 10, 65, 0
13, 133320, Note_on_c, 10, 53, 118
13, 133320, Note_on_c, 10, 57, 118
13, 133320, Note_on_c, 10, 62, 118
13, 133320, Note_on_c, 10, 65, 118
13, 133436, Note_off_c, 10, 53, 0
13, 133436, Note_off_c, 10, 57, 0
13, 133436, Note_off_c, 10, 62, 0
13, 133436, Note_off_c, 10, 65, 0
13, 133440, Note_on_c, 10, 53, 127
13, 133440, Note_on_c, 10, 57, 127
13, 133440, Note_on_c, 10, 62, 127
13, 133440, Note_on_c, 10, 65, 127
13, 133556, Note_off_c, 10, 53, 0
13, 133556, Note_off_c, 10, 57, 0
13, 133556, Note_off_c, 10, 62, 0
13, 133556, Note_off_c, 10, 65, 0
13, 133560, Note_on_c, 10, 53, 97
13, 133560, Note_on_c, 10, 57, 97
13, 133560, Note_on_c, 10, 62, 97
13, 133560, Note_on_c, 10, 65, 97
13, 133676, Note_off_c, 10, 53, 0
13, 133676, Note_off_c, 10, 57, 0
13, 133676, Note_off_c, 10, 62, 0
13, 133676, Note_off_c, 10, 65, 0
13, 133680, Note_on_c, 10, 53, 108
13, 133680, Note_on_c, 10, 57, 108
13, 133680, Note_on_c, 10, 62, 108
13, 133680, Note_on_c, 10, 65, 108
13, 133796, Note_off_c, 10, 53, 0
13, 133796, Note_off_c, 10, 57, 0
13, 133796, Note_off_c, 10, 62, 0
13, 133796, Note_off_c, 10, 65, 0
13, 133800, Note_on_c, 10, 53, 127
13, 133800, Note_on_c, 10, 57, 127
13, 133800, Note_on_c, 10, 62, 127
13, 133800, Note_on_c, 10, 65, 127
13, 133916, Note_off_c, 10, 53, 0
13, 133916, Note_off_c, 10, 57, 0
13, 133916, Note_off_c, 10, 62, 0
13, 133916, Note_off_c, 10, 65, 0
13, 134040, Note_on_c, 10, 53, 93
13, 134040, Note_on_c, 10, 57, 93
13, 134040, Note_on_c, 10, 62, 93
13, 134040, Note_on_c, 10, 65, 93
13, 134156, Note_off_c, 10, 53, 0
13, 134156, Note_off_c, 10, 57, 0
13, 134156, Note_off_c, 10, 62, 0
13, 134156, Note_off_c, 10, 65, 0
13, 134160, Note_on_c, 10, 53, 103
13, 134160, Note_on_c, 10, 57, 103
13, 134160, Note_on_c, 10, 62, 103
13, 134160, Note_on_c, 10, 65, 103
13, 134276, Note_off_c, 10, 53, 0
13, 134276, Note_off_c, 10, 57, 0
13, 134276, Note_off_c, 10, 62, 0
13, 134276, Note_off_c, 10, 65, 0
13, 134280, Note_on_c, 10, 53, 118
13, 134280, Note_on_c, 10, 57, 118
13, 134280, Note_on_c, 10, 62, 118
13, 134280, Note_on_c, 10, 65, 118
13, 134396, Note_off_c, 10, 53, 0
13, 134396, Note_off_c, 10, 57, 0
13, 134396, Note_off_c, 10, 62, 0
13, 134396, Note_off_c, 10, 65, 0
13, 134400, Note_on_c, 10, 53, 127
13, 134400, Note_on_c, 10, 57, 127
13, 134400, Note_on_c, 10, 60, 127
13, 134400, Note_on_c, 10, 65, 127
13, 134516, Note_off_c, 10, 53, 0
13, 134516, Note_off_c, 10, 57, 0
13, 134516, Note_off_c, 10, 60, 0
13, 134516, Note_off_c, 10, 65, 0
13, 134520, Note_on_c, 10, 53, 97
13, 134520, Note_on_c, 10, 57, 97
13, 134520, Note_on_c, 10, 60, 97
13, 134520, Note_on_c, 10, 65, 97
13, 134636, Note_off_c, 10, 53, 0
13, 134636, Note_off_c, 10, 57, 0
13, 134636, Note_off_c, 10, 60, 0
13, 134636, Note_off_c, 10, 65, 0
13, 134640, Note_on_c, 10, 53, 108
13, 134640, Note_on_c, 10, 57, 108
13, 134640, Note_on_c, 10, 60, 108
13, 134640, Note_on_c, 10, 65, 108
13, 134756, Note_off_c, 10, 53, 0
13, 134756, Note_off_c, 10, 57, 0
13, 134756, Note_off_c, 10, 60, 0
13, 134756, Note_off_c, 10, 65, 0
13, 134760, Note_on_c, 10, 53, 127
13, 134760, Note_on_c, 10, 57, 127
13, 134760, Note_on_c, 10, 60, 127
13, 134760, Note_on_c, 10, 65, 127
13, 134876, Note_off_c, 10, 53, 0
13, 134876, Note_off_c, 10, 57, 0
13, 134876, Note_off_c, 10, 60, 0
13, 134876, Note_off_c, 10, 65, 0
13, 135000, Note_on_c, 10, 53, 93
13, 135000, Note_on_c, 10, 57, 93
13, 135000, Note_on_c, 10, 60, 93
13, 135000, Note_on_c, 10, 65, 93
13, 135116, Note_off_c, 10, 53, 0
13, 135116, Note_off_c, 10, 57, 0
13, 135116, Note_off_c, 10, 60, 0
13, 135116, Note_off_c, 10, 65, 0
13, 135120, Note_on_c, 10, 53, 103
13, 135120, Note_on_c, 10, 57, 103
13, 135120, Note_on_c, 10, 60, 103
13, 135120, Note_on_c, 10, 65, 103
13, 135236, Note_off_c, 10, 53, 0
13, 135236, Note_off_c, 10, 57, 0
13, 135236, Note_off_c, 10, 60, 0
13, 135236, Note_off_c, 10, 65, 0
13, 135240, Note_on_c, 10, 53, 118
13, 135240, Note_on_c, 10, 57, 118
13, 135240, Note_on_c, 10, 60, 118
13, 135240, Note_on_c, 10, 65, 118
13, 135356, Note_off_c, 10, 53, 0
13, 135356, Note_off_c, 10, 57, 0
13, 135356, Note_off_c, 10, 60, 0
13, 135356, Note_off_c, 10, 65, 0
13, 135360, Note_on_c, 10, 55, 127
13, 135360, Note_on_c, 10, 60, 127
13, 135360, Note_on_c, 10, 64, 127
13, 135360, Note_on_c, 10, 67, 127
13, 135476, Note_off_c, 10, 55, 0
13, 135476, Note_off_c, 10, 60, 0
13, 135476, Note_off_c, 10, 64, 0
13, 135476, Note_off_c, 10, 67, 0
13, 135480, Note_on_c, 10, 55, 97
13, 135480, Note_on_c, 10, 60, 97
13, 135480, Note_on_c, 10, 64, 97
13, 135480, Note_on_c, 10, 67, 97
13, 135596, Note_off_c, 10, 55, 0
13, 135596, Note_off_c, 10, 60, 0
13, 135596, Note_off_c, 10, 64, 0
13, 135596, Note_off_c, 10, 67, 0
13, 135600, Note_on_c, 10, 55, 108
13, 135600, Note_on_c, 10, 60, 108
13, 135600, Note_on_c, 10, 64, 108
13, 135600, Note_on_c, 10, 67, 108
13, 135716, Note_off_c, 10, 55, 0
13, 135716, Note_off_c, 10, 60, 0
13, 135716, Note_off_c, 10, 64, 0
13, 135716, Note_off_c, 10, 67, 0
13, 135720, Note_on_c, 10, 55, 127
13, 135720, Note_on_c, 10, 60, 127
13, 135720, Note_on_c, 10, 64, 127
13, 135720, Note_on_c, 10, 67, 127
13, 135836, Note_off_c, 10, 55, 0
13, 135836, Note_off_c, 10, 60, 0
13, 135836, Note_off_c, 10, 64, 0
13, 135836, Note_off_c, 10, 67, 0
13, 135960, Note_on_c, 10, 55, 93
13, 135960, Note_on_c, 10, 60, 93
13, 135960, Note_on_c, 10, 64, 93
13, 135960, Note_on_c, 10, 67, 93
13, 136076, Note_off_c, 10, 55, 0
13, 136076, Note_off_c, 10, 60, 0
13, 136076, Note_off_c, 10, 64, 0
13, 136076, Note_off_c, 10, 67, 0
13, 136080, Note_on_c, 10, 55, 103
13, 136080, Note_on_c, 10, 60, 103
13, 136080, Note_on_c, 10, 64, 103
13, 136080, Note_on_c, 10, 67, 103
13, 136196, Note_off_c, 10, 55, 0
13, 136196, Note_off_c, 10, 60, 0
13, 136196, Note_off_c, 10, 64, 0
13, 136196, Note_off_c, 10, 67, 0
13, 136200, Note_on_c, 10, 55, 118
13, 136200, Note_on_c, 10, 60, 118
13, 136200, Note_on_c, 10, 64, 118
13, 136200, Note_on_c, 10, 67, 118
13, 136316, Note_off_c, 10, 55, 0
13, 136316, Note_off_c, 10, 60, 0
13, 136316, Note_off_c, 10, 64, 0
13, 136316, Note_off_c, 10, 67, 0
13, 136320, Note_on_c, 10, 55, 127
13, 136320, Note_on_c, 10, 59, 127
13, 136320, Note_on_c, 10, 62, 127
13, 136320, Note_on_c, 10, 67, 127
13, 136436, Note_off_c, 10, 55, 0
13, 136436, Note_off_c, 10, 59, 0
13, 136436, Note_off_c, 10, 62, 0
13, 136436, Note_off_c, 10, 67, 0
13, 136440, Note_on_c, 10, 55, 97
13, 136440, Note_on_c, 10, 59, 97
13, 136440, Note_on_c, 10, 62, 97
13, 136440, Note_on_c, 10, 67, 97
13, 136556, Note_off_c, 10, 55, 0
13, 136556, Note_off_c, 10, 59, 0
13, 136556, Note_off_c, 10, 62, 0
13, 136556, Note_off_c, 10, 67, 0
13, 136560, Note_on_c, 10, 55, 108
13, 136560, Note_on_c, 10, 59, 108
13, 136560, Note_on_c, 10, 62, 108
13, 136560, Note_on_c, 10, 67, 108
13, 136676, Note_off_c, 10, 55, 0
13, 136676, Note_off_c, 10, 59, 0
13, 136676, Note_off_c, 10, 62, 0
13, 136676, Note_off_c, 10, 67, 0
13, 136680, Note_on_c, 10, 55, 127
13, 136680, Note_on_c, 10, 59, 127
13, 136680, Note_on_c, 10, 62, 127
13, 136680, Note_on_c, 10, 67, 127
13, 136796, Note_off_c, 10, 55, 0
13, 136796, Note_off_c, 10, 59, 0
13, 136796, Note_off_c, 10, 62, 0
13, 136796, Note_off_c, 10, 67, 0
13, 136920, Note_on_c, 10, 55, 93
13, 136920, Note_on_c, 10, 59, 93
13, 136920, Note_on_c, 10, 62, 93
13, 136920, Note_on_c, 10, 67, 93
13, 137036, Note_off_c, 10, 55, 0
13, 137036, Note_off_c, 10, 59, 0
13, 137036, Note_off_c, 10, 62, 0
13, 137036, Note_off_c, 10, 67, 0
13, 137040, Note_on_c, 10, 55, 103
13, 137040, Note_on_c, 10, 59, 103
13, 137040, Note_on_c, 10, 62, 103
13, 137040, Note_on_c, 10, 67, 103
13, 137156, Note_off_c, 10, 55, 0
13, 137156, Note_off_c, 10, 59, 0
13, 137156, Note_off_c, 10, 62, 0
13, 137156, Note_off_c, 10, 67, 0
13, 137160, Note_on_c, 10, 55, 118
13, 137160, Note_on_c, 10, 59, 118
13, 137160, Note_on_c, 10, 62, 118
13, 137160, Note_on_c, 10, 67, 118
13, 137276, Note_off_c, 10, 55, 0
13, 137276, Note_off_c, 10, 59, 0
13, 137276, Note_off_c, 10, 62, 0
13, 137276, Note_off_c, 10, 67, 0
13, 137280, Note_on_c, 10, 55, 127
13, 137280, Note_on_c, 10, 59, 127
13, 137280, Note_on_c, 10, 62, 127
13, 137280, Note_on_c, 10, 67, 127
13, 137396, Note_off_c, 10, 55, 0
13, 137396, Note_off_c, 10, 59, 0
13, 137396, Note_off_c, 10, 62, 0
13, 137396, Note_off_c, 10, 67, 0
13, 138240, Note_on_c, 10, 55, 127
13, 138240, Note_on_c, 10, 59, 127
13, 138240, Note_on_c, 10, 62, 127
13, 138240, Note_on_c, 10, 67, 127
13, 138356, Note_off_c, 10, 55, 0
13, 138356, Note_off_c, 10, 59, 0
13, 138356, Note_off_c, 10, 62, 0
13, 138356, Note_off_c, 10, 67, 0
13, 138360, Note_on_c, 10, 55, 97
13, 138360, Note_on_c, 10, 59, 97
13, 138360, Note_on_c, 10, 62, 97
13, 138360, Note_on_c, 10, 67, 97
13, 138476, Note_off_c, 10, 55, 0
13, 138476, Note_off_c, 10, 59, 0
13, 138476, Note_off_c, 10, 62, 0
13, 138476, Note_off_c, 10, 67, 0
13, 138480, Note_on_c, 10, 55, 108
13, 138480, Note_on_c, 10, 59, 108
13, 138480, Note_on_c, 10, 62, 108
13, 138480, Note_on_c, 10, 67, 108
13, 138596, Note_off_c, 10, 55, 0
13, 138596, Note_off_c, 10, 59, 0
13, 138596, Note_off_c, 10, 62, 0
13, 138596, Note_off_c, 10, 67, 0
13, 138600, Note_on_c, 10, 55, 127
13, 138600, Note_on_c, 10, 59, 127
13, 138600, Note_on_c, 10, 62, 127
13, 138600, Note_on_c, 10, 67, 127
13, 138716, Note_off_c, 10, 55, 0
13, 138716, Note_off_c, 10, 59, 0
13, 138716, Note_off_c, 10, 62, 0
13, 138716, Note_off_c, 10, 67, 0
13, 138840, Note_on_c, 10, 55, 93
13, 138840, Note_on_c, 10, 59, 93
13, 138840, Note_on_c, 10, 62, 93
13, 138840, Note_on_c, 10, 67, 93
13, 138956, Note_off_c, 10, 55, 0
13, 138956, Note_off_c, 10, 59, 0
13, 138956, Note_off_c, 10, 62, 0
13, 138956, Note_off_c, 10, 67, 0
13, 138960, Note_on_c, 10, 55, 103
13, 138960, Note_on_c, 10, 59, 103
13, 138960, Note_on_c, 10, 62, 103
13, 138960, Note_on_c, 10, 67, 103
13, 139076, Note_off_c, 10, 55, 0
13, 139076, Note_off_c, 10, 59, 0
13, 139076, Note_off_c, 10, 62, 0
13, 139076, Note_off_c, 10, 67, 0
13, 139080, Note_on_c, 10, 55, 118
13, 139080, Note_on_c, 10, 59, 118
13, 139080, Note_on_c, 10, 62, 118
13, 139080, Note_on_c, 10, 67, 118
13, 139196, Note_off_c, 10, 55, 0
13, 139196, Note_off_c, 10, 59, 0
13, 139196, Note_off_c, 10, 62, 0
13, 139196, Note_off_c, 10, 67, 0
13, 139200, Note_on_c, 10, 55, 127
13, 139200, Note_on_c, 10, 59, 127
13, 139200, Note_on_c, 10, 62, 127
13, 139200, Note_on_c, 10, 67, 127
13, 139316, Note_off_c, 10, 55, 0
13, 139316, Note_off_c, 10, 59, 0
13, 139316, Note_off_c, 10, 62, 0
13, 139316, Note_off_c, 10, 67, 0
13, 139320, Note_on_c, 10, 55, 97
13, 139320, Note_on_c, 10, 59, 97
13, 139320, Note_on_c, 10, 62, 97
13, 139320, Note_on_c, 10, 67, 97
13, 139436, Note_off_c, 10, 55, 0
13, 139436, Note_off_c, 10, 59, 0
13, 139436, Note_off_c, 10, 62, 0
13, 139436, Note_off_c, 10, 67, 0
13, 139440, Note_on_c, 10, 55, 108
13, 139440, Note_on_c, 10, 59, 108
13, 139440, Note_on_c, 10, 62, 108
13, 139440, Note_on_c, 10, 67, 108
13, 139556, Note_off_c, 10, 55, 0
13, 139556, Note_off_c, 10, 59, 0
13, 139556, Note_off_c, 10, 62, 0
13, 139556, Note_off_c, 10, 67, 0
13, 139560, Note_on_c, 10, 55, 127
13, 139560, Note_on_c, 10, 59, 127
13, 139560, Note_on_c, 10, 62, 127
13, 139560, Note_on_c, 10, 67, 127
13, 139676, Note_off_c, 10, 55, 0
13, 139676, Note_off_c, 10, 59, 0
13, 139676, Note_off_c, 10, 62, 0
13, 139676, Note_off_c, 10, 67, 0
13, 139800, Note_on_c, 10, 55, 93
13, 139800, Note_on_c, 10, 59, 93
13, 139800, Note_on_c, 10, 62, 93
13, 139800, Note_on_c, 10, 67, 93
13, 139916, Note_off_c, 10, 55, 0
13, 139916, Note_off_c, 10, 59, 0
13, 139916, Note_off_c, 10, 62, 0
13, 139916, Note_off_c, 10, 67, 0
13, 139920, Note_on_c, 10, 55, 103
13, 139920, Note_on_c, 10, 59, 103
13, 139920, Note_on_c, 10, 62, 103
13, 139920, Note_on_c, 10, 67, 103
13, 140036, Note_off_c, 10, 55, 0
13, 140036, Note_off_c, 10, 59, 0
13, 140036, Note_off_c, 10, 62, 0
13, 140036, Note_off_c, 10, 67, 0
13, 140040, Note_on_c, 10, 55, 118
13, 140040, Note_on_c, 10, 59, 118
13, 140040, Note_on_c, 10, 62, 118
13, 140040, Note_on_c, 10, 67, 118
13, 140156, Note_off_c, 10, 55, 0
13, 140156, Note_off_c, 10, 59, 0
13, 140156, Note_off_c, 10, 62, 0
13, 140156, Note_off_c, 10, 67, 0
13, 140160, Note_on_c, 10, 53, 127
13, 140160, Note_on_c, 10, 57, 127
13, 140160, Note_on_c, 10, 62, 127
13, 140160, Note_on_c, 10, 65, 127
13, 140276, Note_off_c, 10, 53, 0
13, 140276, Note_off_c, 10, 57, 0
13, 140276, Note_off_c, 10, 62, 0
13, 140276, Note_off_c, 10, 65, 0
13, 140280, Note_on_c, 10, 53, 97
13, 140280, Note_on_c, 10, 57, 97
13, 140280, Note_on_c, 10, 62, 97
13, 140280, Note_on_c, 10, 65, 97
13, 140396, Note_off_c, 10, 53, 0
13, 140396, Note_off_c, 10, 57, 0
13, 140396, Note_off_c, 10, 62, 0
13, 140396, Note_off_c, 10, 65, 0
13, 140400, Note_on_c, 10, 53, 108
13, 140400, Note_on_c, 10, 57, 108
13, 140400, Note_on_c, 10, 62, 108
13, 140400, Note_on_c, 10, 65, 108
13, 140516, Note_off_c, 10, 53, 0
13, 140516, Note_off_c, 10, 57, 0
13, 140516, Note_off_c, 10, 62, 0
13, 140516, Note_off_c, 10, 65, 0
13, 140520, Note_on_c, 10, 53, 127
13, 140520, Note_on_c, 10, 57, 127
13, 140520, Note_on_c, 10, 62, 127
13, 140520, Note_on_c, 10, 65, 127
13, 140636, Note_off_c, 10, 53, 0
13, 140636, Note_off_c, 10, 57, 0
13, 140636, Note_off_c, 10, 62, 0
13, 140636, Note_off_c, 10, 65, 0
13, 140760, Note_on_c, 10, 53, 93
13, 140760, Note_on_c, 10, 57, 93
13, 140760, Note_on_c, 10, 62, 93
13, 140760, Note_on_c, 10, 65, 93
13, 140876, Note_off_c, 10, 53, 0
13, 140876, Note_off_c, 10, 57, 0
13, 140876, Note_off_c, 10, 62, 0
13, 140876, Note_off_c, 10, 65, 0
13, 140880, Note_on_c, 10, 53, 103
13, 140880, Note_on_c, 10, 57, 103
13, 140880, Note_on_c, 10, 62, 103
13, 140880, Note_on_c, 10, 65, 103
13, 140996, Note_off_c, 10, 53, 0
13, 140996, Note_off_c, 10, 57, 0
13, 140996, Note_off_c, 10, 62, 0
13, 140996, Note_off_c, 10, 65, 0
13, 141000, Note_on_c, 10, 53, 118
13, 141000, Note_on_c, 10, 57, 118
13, 141000, Note_on_c, 10, 62, 118
13, 141000, Note_on_c, 10, 65, 118
13, 141116, Note_off_c, 10, 53, 0
13, 141116, Note_off_c, 10, 57, 0
13, 141116, Note_off_c, 10, 62, 0
13, 141116, Note_off_c, 10, 65, 0
13, 141120, Note_on_c, 10, 53, 127
13, 141120, Note_on_c, 10, 57, 127
13, 141120, Note_on_c, 10, 62, 127
13, 141120, Note_on_c, 10, 65, 127
13, 141236, Note_off_c, 10, 53, 0
13, 141236, Note_off_c, 10, 57, 0
13, 141236, Note_off_c, 10, 62, 0
13, 141236, Note_off_c, 10, 65, 0
13, 141240, Note_on_c, 10, 53, 97
13, 141240, Note_on_c, 10, 57, 97
13, 141240, Note_on_c, 10, 62, 97
13, 141240, Note_on_c, 10, 65, 97
13, 141356, Note_off_c, 10, 53, 0
13, 141356, Note_off_c, 10, 57, 0
13, 141356, Note_off_c, 10, 62, 0
13, 141356, Note_off_c, 10, 65, 0
13, 141360, Note_on_c, 10, 53, 108
13, 141360, Note_on_c, 10, 57, 108
13, 141360, Note_on_c, 10, 62, 108
13, 141360, Note_on_c, 10, 65, 108
13, 141476, Note_off_c, 10, 53, 0
13, 141476, Note_off_c, 10, 57, 0
13, 141476, Note_off_c, 10, 62, 0
13, 141476, Note_off_c, 10, 65, 0
13, 141480, Note_on_c, 10, 53, 127
13, 141480, Note_on_c, 10, 57, 127
13, 141480, Note_on_c, 10, 62, 127
13, 141480, Note_on_c, 10, 65, 127
13, 141596, Note_off_c, 10, 53, 0
13, 141596, Note_off_c, 10, 57, 0
13, 141596, Note_off_c, 10, 62, 0
13, 141596, Note_off_c, 10, 65, 0
13, 141720, Note_on_c, 10, 53, 93
13, 141720, Note_on_c, 10, 57, 93
13, 141720, Note_on_c, 10, 62, 93
13, 141720, Note_on_c, 10, 65, 93
13, 141836, Note_off_c, 10, 53, 0
13, 141836, Note_off_c, 10, 57, 0
13, 141836, Note_off_c, 10, 62, 0
13, 141836, Note_off_c, 10, 65, 0
13, 141840, Note_on_c, 10, 53, 103
13, 141840, Note_on_c, 10, 57, 103
13, 141840, Note_on_c, 10, 62, 103
13, 141840, Note_on_c, 10, 65, 103
13, 141956, Note_off_c, 10, 53, 0
13, 141956, Note_off_c, 10, 57, 0
13, 141956, Note_off_c, 10, 62, 0
13, 141956, Note_off_c, 10, 65, 0
13, 141960, Note_on_c, 10, 53, 118
13, 141960, Note_on_c, 10, 57, 118
13, 141960, Note_on_c, 10, 62, 118
13, 141960, Note_on_c, 10, 65, 118
13, 142076, Note_off_c, 10, 53, 0
13, 142076, Note_off_c, 10, 57, 0
13, 142076, Note_off_c, 10, 62, 0
13, 142076, Note_off_c, 10, 65, 0
13, 142080, Note_on_c, 10, 53, 127
13, 142080, Note_on_c, 10, 57, 127
13, 142080, Note_on_c, 10, 60, 127
13, 142080, Note_on_c, 10, 65, 127
13, 142196, Note_off_c, 10, 53, 0
13, 142196, Note_off_c, 10, 57, 0
13, 142196, Note_off_c, 10, 60, 0
13, 142196, Note_off_c, 10, 65, 0
13, 142200, Note_on_c, 10, 53, 97
13, 142200, Note_on_c, 10, 57, 97
13, 142200, Note_on_c, 10, 60, 97
13, 142200, Note_on_c, 10, 65, 97
13, 142316, Note_off_c, 10, 53, 0
13, 142316, Note_off_c, 10, 57, 0
13, 142316, Note_off_c, 10, 60, 0
13, 142316, Note_off_c, 10, 65, 0
13, 142320, Note_on_c, 10, 53, 108
13, 142320, Note_on_c, 10, 57, 108
13, 142320, Note_on_c, 10, 60, 108
13, 142320, Note_on_c, 10, 65, 108
13, 142436, Note_off_c, 10, 53, 0
13, 142436, Note_off_c, 10, 57, 0
13, 142436, Note_off_c, 10, 60, 0
13, 142436, Note_off_c, 10, 65, 0
13, 142440, Note_on_c, 10, 53, 127
13, 142440, Note_on_c, 10, 57, 127
13, 142440, Note_on_c, 10, 60, 127
13, 142440, Note_on_c, 10, 65, 127
13, 142556, Note_off_c, 10, 53, 0
13, 142556, Note_off_c, 10, 57, 0
13, 142556, Note_off_c, 10, 60, 0
13, 142556, Note_off_c, 10, 65, 0
13, 142680, Note_on_c, 10, 53, 93
13, 142680, Note_on_c, 10, 57, 93
13, 142680, Note_on_c, 10, 60, 93
13, 142680, Note_on_c, 10, 65, 93
13, 142796, Note_off_c, 10, 53, 0
13, 142796, Note_off_c, 10, 57, 0
13, 142796, Note_off_c, 10, 60, 0
13, 142796, Note_off_c, 10, 65, 0
13, 142800, Note_on_c, 10, 53, 103
13, 142800, Note_on_c, 10, 57, 103
13, 142800, Note_on_c, 10, 60, 103
13, 142800, Note_on_c, 10, 65, 103
13, 142916, Note_off_c, 10, 53, 0
13, 142916, Note_off_c, 10, 57, 0
13, 142916, Note_off_c, 10, 60, 0
13, 142916, Note_off_c, 10, 65, 0
13, 142920, Note_on_c, 10, 53, 118
13, 142920, Note_on_c, 10, 57, 118
13, 142920, Note_on_c, 10, 60, 118
13, 142920, Note_on_c, 10, 65, 118
13, 143036, Note_off_c, 10, 53, 0
13, 143036, Note_off_c, 10, 57, 0
13, 143036, Note_off_c, 10, 60, 0
13, 143036, Note_off_c, 10, 65, 0
13, 143040, Note_on_c, 10, 55, 127
13, 143040, Note_on_c, 10, 60, 127
13, 143040, Note_on_c, 10, 64, 127
13, 143040, Note_on_c, 10, 67, 127
13, 143156, Note_off_c, 10, 55, 0
13, 143156, Note_off_c, 10, 60, 0
13, 143156, Note_off_c, 10, 64, 0
13, 143156, Note_off_c, 10, 67, 0
13, 143160, Note_on_c, 10, 55, 97
13, 143160, Note_on_c, 10, 60, 97
13, 143160, Note_on_c, 10, 64, 97
13, 143160, Note_on_c, 10, 67, 97
13, 143276, Note_off_c, 10, 55, 0
13, 143276, Note_off_c, 10, 60, 0
13, 143276, Note_off_c, 10, 64, 0
13, 143276, Note_off_c, 10, 67, 0
13, 143280, Note_on_c, 10, 55, 108
13, 143280, Note_on_c, 10, 60, 108
13, 143280, Note_on_c, 10, 64, 108
13, 143280, Note_on_c, 10, 67, 108
13, 143396, Note_off_c, 10, 55, 0
13, 143396, Note_off_c, 10, 60, 0
13, 143396, Note_off_c, 10, 64, 0
13, 143396, Note_off_c, 10, 67, 0
13, 143400, Note_on_c, 10, 55, 127
13, 143400, Note_on_c, 10, 60, 127
13, 143400, Note_on_c, 10, 64, 127
13, 143400, Note_on_c, 10, 67, 127
13, 143516, Note_off_c, 10, 55, 0
13, 143516, Note_off_c, 10, 60, 0
13, 143516, Note_off_c, 10, 64, 0
13, 143516, Note_off_c, 10, 67, 0
13, 143640, Note_on_c, 10, 55, 93
13, 143640, Note_on_c, 10, 60, 93
13, 143640, Note_on_c, 10, 64, 93
13, 143640, Note_on_c, 10, 67, 93
13, 143756, Note_off_c, 10, 55, 0
13, 143756, Note_off_c, 10, 60, 0
13, 143756, Note_off_c, 10, 64, 0
13, 143756, Note_off_c, 10, 67, 0
13, 143760, Note_on_c, 10, 55, 103
13, 143760, Note_on_c, 10, 60, 103
13, 143760, Note_on_c, 10, 64, 103
13, 143760, Note_on_c, 10, 67, 103
13, 143876, Note_off_c, 10, 55, 0
13, 143876, Note_off_c, 10, 60, 0
13, 143876, Note_off_c, 10, 64, 0
13, 143876, Note_off_c, 10, 67, 0
13, 143880, Note_on_c, 10, 55, 118
13, 143880, Note_on_c, 10, 60, 118
13, 143880, Note_on_c, 10, 64, 118
13, 143880, Note_on_c, 10, 67, 118
13, 143996, Note_off_c, 10, 55, 0
13, 143996, Note_off_c, 10, 60, 0
13, 143996, Note_off_c, 10, 64, 0
13, 143996, Note_off_c, 10, 67, 0
13, 144000, Note_on_c, 10, 55, 127
13, 144000, Note_on_c, 10, 59, 127
13, 144000, Note_on_c, 10, 62, 127
13, 144000, Note_on_c, 10, 67, 127
13, 144116, Note_off_c, 10, 55, 0
13, 144116, Note_off_c, 10, 59, 0
13, 144116, Note_off_c, 10, 62, 0
13, 144116, Note_off_c, 10, 67, 0
13, 144120, Note_on_c, 10, 55, 97
13, 144120, Note_on_c, 10, 59, 97
13, 144120, Note_on_c, 10, 62, 97
13, 144120, Note_on_c, 10, 67, 97
13, 144236, Note_off_c, 10, 55, 0
13, 144236, Note_off_c, 10, 59, 0
13, 144236, Note_off_c, 10, 62, 0
13, 144236, Note_off_c, 10, 67, 0
13, 144240, Note_on_c, 10, 55, 108
13, 144240, Note_on_c, 10, 59, 108
13, 144240, Note_on_c, 10, 62, 108
13, 144240, Note_on_c, 10, 67, 108
13, 144356, Note_off_c, 10, 55, 0
13, 144356, Note_off_c, 10, 59, 0
13, 144356, Note_off_c, 10, 62, 0
13, 144356, Note_off_c, 10, 67, 0
13, 144360, Note_on_c, 10, 55, 127
13, 144360, Note_on_c, 10, 59, 127
13, 144360, Note_on_c, 10, 62, 127
13, 144360, Note_on_c, 10, 67, 127
13, 144476, Note_off_c, 10, 55, 0
13, 144476, Note_off_c, 10, 59, 0
13, 144476, Note_off_c, 10, 62, 0
13, 144476, Note_off_c, 10, 67, 0
13, 144600, Note_on_c, 10, 55, 93
13, 144600, Note_on_c, 10, 59, 93
13, 144600, Note_on_c, 10, 62, 93
13, 144600, Note_on_c, 10, 67, 93
13, 144716, Note_off_c, 10, 55, 0
13, 144716, Note_off_c, 10, 59, 0
13, 144716, Note_off_c, 10, 62, 0
13, 144716, Note_off_c, 10, 67, 0
13, 144720, Note_on_c, 10, 55, 103
13, 144720, Note_on_c, 10, 59, 103
13, 144720, Note_on_c, 10, 62, 103
13, 144720, Note_on_c, 10, 67, 103
13, 144836, Note_off_c, 10, 55, 0
13, 144836, Note_off_c, 10, 59, 0
13, 144836, Note_off_c, 10, 62, 0
13, 144836, Note_off_c, 10, 67, 0
13, 144840, Note_on_c, 10, 55, 118
13, 144840, Note_on_c, 10, 59, 118
13, 144840, Note_on_c, 10, 62, 118
13, 144840, Note_on_c, 10, 67, 118
13, 144956, Note_off_c, 10, 55, 0
13, 144956, Note_off_c, 10, 59, 0
13, 144956, Note_off_c, 10, 62, 0
13, 144956, Note_off_c, 10, 67, 0
13, 144960, Note_on_c, 10, 55, 127
13, 144960, Note_on_c, 10, 59, 127
13, 144960, Note_on_c, 10, 62, 127
13, 144960, Note_on_c, 10, 67, 127
13, 145076, Note_off_c, 10, 55, 0
13, 145076, Note_off_c, 10, 59, 0
13, 145076, Note_off_c, 10, 62, 0
13, 145076, Note_off_c, 10, 67, 0
13, 145080, Note_on_c, 10, 55, 97
13, 145080, Note_on_c, 10, 59, 97
13, 145080, Note_on_c, 10, 62, 97
13, 145080, Note_on_c, 10, 67, 97
13, 145196, Note_off_c, 10, 55, 0
13, 145196, Note_off_c, 10, 59, 0
13, 145196, Note_off_c, 10, 62, 0
13, 145196, Note_off_c, 10, 67, 0
13, 145200, Note_on_c, 10, 55, 108
13, 145200, Note_on_c, 10, 59, 108
13, 145200, Note_on_c, 10, 62, 108
13, 145200, Note_on_c, 10, 67, 108
13, 145316, Note_off_c, 10, 55, 0
13, 145316, Note_off_c, 10, 59, 0
13, 145316, Note_off_c, 10, 62, 0
13, 145316, Note_off_c, 10, 67, 0
13, 145320, Note_on_c, 10, 55, 127
13, 145320, Note_on_c, 10, 59, 127
13, 145320, Note_on_c, 10, 62, 127
13, 145320, Note_on_c, 10, 67, 127
13, 145436, Note_off_c, 10, 55, 0
13, 145436, Note_off_c, 10, 59, 0
13, 145436, Note_off_c, 10, 62, 0
13, 145436, Note_off_c, 10, 67, 0
13, 145560, Note_on_c, 10, 55, 93
13, 145560, Note_on_c, 10, 59, 93
13, 145560, Note_on_c, 10, 62, 93
13, 145560, Note_on_c, 10, 67, 93
13, 145676, Note_off_c, 10, 55, 0
13, 145676, Note_off_c, 10, 59, 0
13, 145676, Note_off_c, 10, 62, 0
13, 145676, Note_off_c, 10, 67, 0
13, 145680, Note_on_c, 10, 55, 103
13, 145680, Note_on_c, 10, 59, 103
13, 145680, Note_on_c, 10, 62, 103
13, 145680, Note_on_c, 10, 67, 103
13, 145796, Note_off_c, 10, 55, 0
13, 145796, Note_off_c, 10, 59, 0
13, 145796, Note_off_c, 10, 62, 0
13, 145796, Note_off_c, 10, 67, 0
13, 145800, Note_on_c, 10, 55, 118
13, 145800, Note_on_c, 10, 59, 118
13, 145800, Note_on_c, 10, 62, 118
13, 145800, Note_on_c, 10, 67, 118
13, 145916, Note_off_c, 10, 55, 0
13, 145916, Note_off_c, 10, 59, 0
13, 145916, Note_off_c, 10, 62, 0
13, 145916, Note_off_c, 10, 67, 0
13, 145920, Note_on_c, 10, 55, 127
13, 145920, Note_on_c, 10, 59, 127
13, 145920, Note_on_c, 10, 62, 127
13, 145920, Note_on_c, 10, 67, 127
13, 146036, Note_off_c, 10, 55, 0
13, 146036, Note_off_c, 10, 59, 0
13, 146036, Note_off_c, 10, 62, 0
13, 146036, Note_off_c, 10, 67, 0
13, 146040, Note_on_c, 10, 55, 97
13, 146040, Note_on_c, 10, 59, 97
13, 146040, Note_on_c, 10, 62, 97
13, 146040, Note_on_c, 10, 67, 97
13, 146156, Note_off_c, 10, 55, 0
13, 146156, Note_off_c, 10, 59, 0
13, 146156, Note_off_c, 10, 62, 0
13, 146156, Note_off_c, 10, 67, 0
13, 146160, Note_on_c, 10, 55, 108
13, 146160, Note_on_c, 10, 59, 108
13, 146160, Note_on_c, 10, 62, 108
13, 146160, Note_on_c, 10, 67, 108
13, 146276, Note_off_c, 10, 55, 0
13, 146276, Note_off_c, 10, 59, 0
13, 146276, Note_off_c, 10, 62, 0
13, 146276, Note_off_c, 10, 67, 0
13, 146280, Note_on_c, 10, 55, 127
13, 146280, Note_on_c, 10, 59, 127
13, 146280, Note_on_c, 10, 62, 127
13, 146280, Note_on_c, 10, 67, 127
13, 146396, Note_off_c, 10, 55, 0
13, 146396, Note_off_c, 10, 59, 0
13, 146396, Note_off_c, 10, 62, 0
13, 146396, Note_off_c, 10, 67, 0
13, 146520, Note_on_c, 10, 55, 93
13, 146520, Note_on_c, 10, 59, 93
13, 146520, Note_on_c, 10, 62, 93
13, 146520, Note_on_c, 10, 67, 93
13, 146636, Note_off_c, 10, 55, 0
13, 146636, Note_off_c, 10, 59, 0
13, 146636, Note_off_c, 10, 62, 0
13, 146636, Note_off_c, 10, 67, 0
13, 146640, Note_on_c, 10, 55, 103
13, 146640, Note_on_c, 10, 59, 103
13, 146640, Note_on_c, 10, 62, 103
13, 146640, Note_on_c, 10, 67, 103
13, 146756, Note_off_c, 10, 55, 0
13, 146756, Note_off_c, 10, 59, 0
13, 146756, Note_off_c, 10, 62, 0
13, 146756, Note_off_c, 10, 67, 0
13, 146760, Note_on_c, 10, 55, 118
13, 146760, Note_on_c, 10, 59, 118
13, 146760, Note_on_c, 10, 62, 118
13, 146760, Note_on_c, 10, 67, 118
13, 146876, Note_off_c, 10, 55, 0
13, 146876, Note_off_c, 10, 59, 0
13, 146876, Note_off_c, 10, 62, 0
13, 146876, Note_off_c, 10, 67, 0
13, 146880, Note_on_c, 10, 55, 127
13, 146880, Note_on_c, 10, 59, 127
13, 146880, Note_on_c, 10, 62, 127
13, 146880, Note_on_c, 10, 67, 127
13, 146996, Note_off_c, 10, 55, 0
13, 146996, Note_off_c, 10, 59, 0
13, 146996, Note_off_c, 10, 62, 0
13, 146996, Note_off_c, 10, 67, 0
13, 147000, Note_on_c, 10, 55, 97
13, 147000, Note_on_c, 10, 59, 97
13, 147000, Note_on_c, 10, 62, 97
13, 147000, Note_on_c, 10, 67, 97
13, 147116, Note_off_c, 10, 55, 0
13, 147116, Note_off_c, 10, 59, 0
13, 147116, Note_off_c, 10, 62, 0
13, 147116, Note_off_c, 10, 67, 0
13, 147120, Note_on_c, 10, 55, 108
13, 147120, Note_on_c, 10, 59, 108
13, 147120, Note_on_c, 10, 62, 108
13, 147120, Note_on_c, 10, 67, 108
13, 147236, Note_off_c, 10, 55, 0
13, 147236, Note_off_c, 10, 59, 0
13, 147236, Note_off_c, 10, 62, 0
13, 147236, Note_off_c, 10, 67, 0
13, 147240, Note_on_c, 10, 55, 127
13, 147240, Note_on_c, 10, 59, 127
13, 147240, Note_on_c, 10, 62, 127
13, 147240, Note_on_c, 10, 67, 127
13, 147356, Note_off_c, 10, 55, 0
13, 147356, Note_off_c, 10, 59, 0
13, 147356, Note_off_c, 10, 62, 0
13, 147356, Note_off_c, 10, 67, 0
13, 147480, Note_on_c, 10, 55, 93
13, 147480, Note_on_c, 10, 59, 93
13, 147480, Note_on_c, 10, 62, 93
13, 147480, Note_on_c, 10, 67, 93
13, 147596, Note_off_c, 10, 55, 0
13, 147596, Note_off_c, 10, 59, 0
13, 147596, Note_off_c, 10, 62, 0
13, 147596, Note_off_c, 10, 67, 0
13, 147600, Note_on_c, 10, 55, 103
13, 147600, Note_on_c, 10, 59, 103
13, 147600, Note_on_c, 10, 62, 103
13, 147600, Note_on_c, 10, 67, 103
13, 147716, Note_off_c, 10, 55, 0
13, 147716, Note_off_c, 10, 59, 0
13, 147716, Note_off_c, 10, 62, 0
13, 147716, Note_off_c, 10, 67, 0
13, 147720, Note_on_c, 10, 55, 118
13, 147720, Note_on_c, 10, 59, 118
13, 147720, Note_on_c, 10, 62, 118
13, 147720, Note_on_c, 10, 67, 118
13, 147836, Note_off_c, 10, 55, 0
13, 147836, Note_off_c, 10, 59, 0
13, 147836, Note_off_c, 10, 62, 0
13, 147836, Note_off_c, 10, 67, 0
13, 147840, Note_on_c, 10, 53, 127
13, 147840, Note_on_c, 10, 57, 127
13, 147840, Note_on_c, 10, 62, 127
13, 147840, Note_on_c, 10, 65, 127
13, 147956, Note_off_c, 10, 53, 0
13, 147956, Note_off_c, 10, 57, 0
13, 147956, Note_off_c, 10, 62, 0
13, 147956, Note_off_c, 10, 65, 0
13, 147960, Note_on_c, 10, 53, 97
13, 147960, Note_on_c, 10, 57, 97
13, 147960, Note_on_c, 10, 62, 97
13, 147960, Note_on_c, 10, 65, 97
13, 148076, Note_off_c, 10, 53, 0
13, 148076, Note_off_c, 10, 57, 0
13, 148076, Note_off_c, 10, 62, 0
13, 148076, Note_off_c, 10, 65, 0
13, 148080, Note_on_c, 10, 53, 108
13, 148080, Note_on_c, 10, 57, 108
13, 148080, Note_on_c, 10, 62, 108
13, 148080, Note_on_c, 10, 65, 108
13, 148196, Note_off_c, 10, 53, 0
13, 148196, Note_off_c, 10, 57, 0
13, 148196, Note_off_c, 10, 62, 0
13, 148196, Note_off_c, 10, 65, 0
13, 148200, Note_on_c, 10, 53, 127
13, 148200, Note_on_c, 10, 57, 127
13, 148200, Note_on_c, 10, 62, 127
13, 148200, Note_on_c, 10, 65, 127
13, 148316, Note_off_c, 10, 53, 0
13, 148316, Note_off_c, 10, 57, 0
13, 148316, Note_off_c, 10, 62, 0
13, 148316, Note_off_c, 10, 65, 0
13, 148440, Note_on_c, 10, 53, 93
13, 148440, Note_on_c, 10, 57, 93
13, 148440, Note_on_c, 10, 62, 93
13, 148440, Note_on_c, 10, 65, 93
13, 148556, Note_off_c, 10, 53, 0
13, 148556, Note_off_c, 10, 57, 0
13, 148556, Note_off_c, 10, 62, 0
13, 148556, Note_off_c, 10, 65, 0
13, 148560, Note_on_c, 10, 53, 103
13, 148560, Note_on_c, 10, 57, 103
13, 148560, Note_on_c, 10, 62, 103
13, 148560, Note_on_c, 10, 65, 103
13, 148676, Note_off_c, 10, 53, 0
13, 148676, Note_off_c, 10, 57, 0
13, 148676, Note_off_c, 10, 62, 0
13, 148676, Note_off_c, 10, 65, 0
13, 148680, Note_on_c, 10, 53, 118
13, 148680, Note_on_c, 10, 57, 118
13, 148680, Note_on_c, 10, 62, 118
13, 148680, Note_on_c, 10, 65, 118
13, 148796, Note_off_c, 10, 53, 0
13, 148796, Note_off_c, 10, 57, 0
13, 148796, Note_off_c, 10, 62, 0
13, 148796, Note_off_c, 10, 65, 0
13, 148800, Note_on_c, 10, 53, 127
13, 148800, Note_on_c, 10, 57, 127
13, 148800, Note_on_c, 10, 62, 127
13, 148800, Note_on_c, 10, 65, 127
13, 148916, Note_off_c, 10, 53, 0
13, 148916, Note_off_c, 10, 57, 0
13, 148916, Note_off_c, 10, 62, 0
13, 148916, Note_off_c, 10, 65, 0
13, 148920, Note_on_c, 10, 53, 97
13, 148920, Note_on_c, 10, 57, 97
13, 148920, Note_on_c, 10, 62, 97
13, 148920, Note_on_c, 10, 65, 97
13, 149036, Note_off_c, 10, 53, 0
13, 149036, Note_off_c, 10, 57, 0
13, 149036, Note_off_c, 10, 62, 0
13, 149036, Note_off_c, 10, 65, 0
13, 149040, Note_on_c, 10, 53, 108
13, 149040, Note_on_c, 10, 57, 108
13, 149040, Note_on_c, 10, 62, 108
13, 149040, Note_on_c, 10, 65, 108
13, 149156, Note_off_c, 10, 53, 0
13, 149156, Note_off_c, 10, 57, 0
13, 149156, Note_off_c, 10, 62, 0
13, 149156, Note_off_c, 10, 65, 0
13, 149160, Note_on_c, 10, 53, 127
13, 149160, Note_on_c, 10, 57, 127
13, 149160, Note_on_c, 10, 62, 127
13, 149160, Note_on_c, 10, 65, 127
13, 149276, Note_off_c, 10, 53, 0
13, 149276, Note_off_c, 10, 57, 0
13, 149276, Note_off_c, 10, 62, 0
13, 149276, Note_off_c, 10, 65, 0
13, 149400, Note_on_c, 10, 53, 93
13, 149400, Note_on_c, 10, 57, 93
13, 149400, Note_on_c, 10, 62, 93
13, 149400, Note_on_c, 10, 65, 93
13, 149516, Note_off_c, 10, 53, 0
13, 149516, Note_off_c, 10, 57, 0
13, 149516, Note_off_c, 10, 62, 0
13, 149516, Note_off_c, 10, 65, 0
13, 149520, Note_on_c, 10, 53, 103
13, 149520, Note_on_c, 10, 57, 103
13, 149520, Note_on_c, 10, 62, 103
13, 149520, Note_on_c, 10, 65, 103
13, 149636, Note_off_c, 10, 53, 0
13, 149636, Note_off_c, 10, 57, 0
13, 149636, Note_off_c, 10, 62, 0
13, 149636, Note_off_c, 10, 65, 0
13, 149640, Note_on_c, 10, 53, 118
13, 149640, Note_on_c, 10, 57, 118
13, 149640, Note_on_c, 10, 62, 118
13, 149640, Note_on_c, 10, 65, 118
13, 149756, Note_off_c, 10, 53, 0
13, 149756, Note_off_c, 10, 57, 0
13, 149756, Note_off_c, 10, 62, 0
13, 149756, Note_off_c, 10, 65, 0
13, 149760, Note_on_c, 10, 53, 127
13, 149760, Note_on_c, 10, 57, 127
13, 149760, Note_on_c, 10, 60, 127
13, 149760, Note_on_c, 10, 65, 127
13, 149876, Note_off_c, 10, 53, 0
13, 149876, Note_off_c, 10, 57, 0
13, 149876, Note_off_c, 10, 60, 0
13, 149876, Note_off_c, 10, 65, 0
13, 149880, Note_on_c, 10, 53, 97
13, 149880, Note_on_c, 10, 57, 97
13, 149880, Note_on_c, 10, 60, 97
13, 149880, Note_on_c, 10, 65, 97
13, 149996, Note_off_c, 10, 53, 0
13, 149996, Note_off_c, 10, 57, 0
13, 149996, Note_off_c, 10, 60, 0
13, 149996, Note_off_c, 10, 65, 0
13, 150000, Note_on_c, 10, 53, 108
13, 150000, Note_on_c, 10, 57, 108
13, 150000, Note_on_c, 10, 60, 108
13, 150000, Note_on_c, 10, 65, 108
13, 150116, Note_off_c, 10, 53, 0
13, 150116, Note_off_c, 10, 57, 0
13, 150116, Note_off_c, 10, 60, 0
13, 150116, Note_off_c, 10, 65, 0
13, 150120, Note_on_c, 10, 53, 127
13, 150120, Note_on_c, 10, 57, 127
13, 150120, Note_on_c, 10, 60, 127
13, 150120, Note_on_c, 10, 65, 127
13, 150236, Note_off_c, 10, 53, 0
13, 150236, Note_off_c, 10, 57, 0
13, 150236, Note_off_c, 10, 60, 0
13, 150236, Note_off_c, 10, 65, 0
13, 150360, Note_on_c, 10, 53, 93
13, 150360, Note_on_c, 10, 57, 93
13, 150360, Note_on_c, 10, 60, 93
13, 150360, Note_on_c, 10, 65, 93
13, 150476, Note_off_c, 10, 53, 0
13, 150476, Note_off_c, 10, 57, 0
13, 150476, Note_off_c, 10, 60, 0
13, 150476, Note_off_c, 10, 65, 0
13, 150480, Note_on_c, 10, 53, 103
13, 150480, Note_on_c, 10, 57, 103
13, 150480, Note_on_c, 10, 60, 103
13, 150480, Note_on_c, 10, 65, 103
13, 150596, Note_off_c, 10, 53, 0
13, 150596, Note_off_c, 10, 57, 0
13, 150596, Note_off_c, 10, 60, 0
13, 150596, Note_off_c, 10, 65, 0
13, 150600, Note_on_c, 10, 53, 118
13, 150600, Note_on_c, 10, 57, 118
13, 150600, Note_on_c, 10, 60, 118
13, 150600, Note_on_c, 10, 65, 118
13, 150716, Note_off_c, 10, 53, 0
13, 150716, Note_off_c, 10, 57, 0
13, 150716, Note_off_c, 10, 60, 0
13, 150716, Note_off_c, 10, 65, 0
13, 150720, Note_on_c, 10, 55, 127
13, 150720, Note_on_c, 10, 60, 127
13, 150720, Note_on_c, 10, 64, 127
13, 150720, Note_on_c, 10, 67, 127
13, 150836, Note_off_c, 10, 55, 0
13, 150836, Note_off_c, 10, 60, 0
13, 150836, Note_off_c, 10, 64, 0
13, 150836, Note_off_c, 10, 67, 0
13, 150840, Note_on_c, 10, 55, 97
13, 150840, Note_on_c, 10, 60, 97
13, 150840, Note_on_c, 10, 64, 97
13, 150840, Note_on_c, 10, 67, 97
13, 150956, Note_off_c, 10, 55, 0
13, 150956, Note_off_c, 10, 60, 0
13, 150956, Note_off_c, 10, 64, 0
13, 150956, Note_off_c, 10, 67, 0
13, 150960, Note_on_c, 10, 55, 108
13, 150960, Note_on_c, 10, 60, 108
13, 150960, Note_on_c, 10, 64, 108
13, 150960, Note_on_c, 10, 67, 108
13, 151076, Note_off_c, 10, 55, 0
13, 151076, Note_off_c, 10, 60, 0
13, 151076, Note_off_c, 10, 64, 0
13, 151076, Note_off_c, 10, 67, 0
13, 151080, Note_on_c, 10, 55, 127
13, 151080, Note_on_c, 10, 60, 127
13, 151080, Note_on_c, 10, 64, 127
13, 151080, Note_on_c, 10, 67, 127
13, 151196, Note_off_c, 10, 55, 0
13, 151196, Note_off_c, 10, 60, 0
13, 151196, Note_off_c, 10, 64, 0
13, 151196, Note_off_c, 10, 67, 0
13, 151320, Note_on_c, 10, 55, 93
13, 151320, Note_on_c, 10, 60, 93
13, 151320, Note_on_c, 10, 64, 93
13, 151320, Note_on_c, 10, 67, 93
13, 151436, Note_off_c, 10, 55, 0
13, 151436, Note_off_c, 10, 60, 0
13, 151436, Note_off_c, 10, 64, 0
13, 151436, Note_off_c, 10, 67, 0
13, 151440, Note_on_c, 10, 55, 103
13, 151440, Note_on_c, 10, 60, 103
13, 151440, Note_on_c, 10, 64, 103
13, 151440, Note_on_c, 10, 67, 103
13, 151556, Note_off_c, 10, 55, 0
13, 151556, Note_off_c, 10, 60, 0
13, 151556, Note_off_c, 10, 64, 0
13, 151556, Note_off_c, 10, 67, 0
13, 151560, Note_on_c, 10, 55, 118
13, 151560, Note_on_c, 10, 60, 118
13, 151560, Note_on_c, 10, 64, 118
13, 151560, Note_on_c, 10, 67, 118
13, 151676, Note_off_c, 10, 55, 0
13, 151676, Note_off_c, 10, 60, 0
13, 151676, Note_off_c, 10, 64, 0
13, 151676, Note_off_c, 10, 67, 0
13, 151680, Note_on_c, 10, 55, 127
13, 151680, Note_on_c, 10, 59, 127
13, 151680, Note_on_c, 10, 62, 127
13, 151680, Note_on_c, 10, 67, 127
13, 151796, Note_off_c, 10, 55, 0
13, 151796, Note_off_c, 10, 59, 0
13, 151796, Note_off_c, 10, 62, 0
13, 151796, Note_off_c, 10, 67, 0
13, 151800, Note_on_c, 10, 55, 97
13, 151800, Note_on_c, 10, 59, 97
13, 151800, Note_on_c, 10, 62, 97
13, 151800, Note_on_c, 10, 67, 97
13, 151916, Note_off_c, 10, 55, 0
13, 151916, Note_off_c, 10, 59, 0
13, 151916, Note_off_c, 10, 62, 0
13, 151916, Note_off_c, 10, 67, 0
13, 151920, Note_on_c, 10, 55, 108
13, 151920, Note_on_c, 10, 59, 108
13, 151920, Note_on_c, 10, 62, 108
13, 151920, Note_on_c, 10, 67, 108
13, 152036, Note_off_c, 10, 55, 0
13, 152036, Note_off_c, 10, 59, 0
13, 152036, Note_off_c, 10, 62, 0
13, 152036, Note_off_c, 10, 67, 0
13, 152040, Note_on_c, 10, 55, 127
13, 152040, Note_on_c, 10, 59, 127
13, 152040, Note_on_c, 10, 62, 127
13, 152040, Note_on_c, 10, 67, 127
13, 152156, Note_off_c, 10, 55, 0
13, 152156, Note_off_c, 10, 59, 0
13, 152156, Note_off_c, 10, 62, 0
13, 152156, Note_off_c, 10, 67, 0
13, 152280, Note_on_c, 10, 55, 93
13, 152280, Note_on_c, 10, 59, 93
13, 152280, Note_on_c, 10, 62, 93
13, 152280, Note_on_c, 10, 67, 93
13, 152396, Note_off_c, 10, 55, 0
13, 152396, Note_off_c, 10, 59, 0
13, 152396, Note_off_c, 10, 62, 0
13, 152396, Note_off_c, 10, 67, 0
13, 152400, Note_on_c, 10, 55, 103
13, 152400, Note_on_c, 10, 59, 103
13, 152400, Note_on_c, 10, 62, 103
13, 152400, Note_on_c, 10, 67, 103
13, 152516, Note_off_c, 10, 55, 0
13, 152516, Note_off_c, 10, 59, 0
13, 152516, Note_off_c, 10, 62, 0
13, 152516, Note_off_c, 10, 67, 0
13, 152520, Note_on_c, 10, 55, 118
13, 152520, Note_on_c, 10, 59, 118
13, 152520, Note_on_c, 10, 62, 118
13, 152520, Note_on_c, 10, 67, 118
13, 152636, Note_off_c, 10, 55, 0
13, 152636, Note_off_c, 10, 59, 0
13, 152636, Note_off_c, 10, 62, 0
13, 152636, Note_off_c, 10, 67, 0
13, 152640, Note_on_c, 10, 55, 127
13, 152640, Note_on_c, 10, 59, 127
13, 152640, Note_on_c, 10, 62, 127
13, 152640, Note_on_c, 10, 67, 127
13, 152756, Note_off_c, 10, 55, 0
13, 152756, Note_off_c, 10, 59, 0
13, 152756, Note_off_c, 10, 62, 0
13, 152756, Note_off_c, 10, 67, 0
13, 152760, Note_on_c, 10, 55, 97
13, 152760, Note_on_c, 10, 59, 97
13, 152760, Note_on_c, 10, 62, 97
13, 152760, Note_on_c, 10, 67, 97
13, 152876, Note_off_c, 10, 55, 0
13, 152876, Note_off_c, 10, 59, 0
13, 152876, Note_off_c, 10, 62, 0
13, 152876, Note_off_c, 10, 67, 0
13, 152880, Note_on_c, 10, 55, 108
13, 152880, Note_on_c, 10, 59, 108
13, 152880, Note_on_c, 10, 62, 108
13, 152880, Note_on_c, 10, 67, 108
13, 152996, Note_off_c, 10, 55, 0
13, 152996, Note_off_c, 10, 59, 0
13, 152996, Note_off_c, 10, 62, 0
13, 152996, Note_off_c, 10, 67, 0
13, 153000, Note_on_c, 10, 55, 127
13, 153000, Note_on_c, 10, 59, 127
13, 153000, Note_on_c, 10, 62, 127
13, 153000, Note_on_c, 10, 67, 127
13, 153116, Note_off_c, 10, 55, 0
13, 153116, Note_off_c, 10, 59, 0
13, 153116, Note_off_c, 10, 62, 0
13, 153116, Note_off_c, 10, 67, 0
13, 153240, Note_on_c, 10, 55, 93
13, 153240, Note_on_c, 10, 59, 93
13, 153240, Note_on_c, 10, 62, 93
13, 153240, Note_on_c, 10, 67, 93
13, 153356, Note_off_c, 10, 55, 0
13, 153356, Note_off_c, 10, 59, 0
13, 153356, Note_off_c, 10, 62, 0
13, 153356, Note_off_c, 10, 67, 0
13, 153360, Note_on_c, 10, 55, 103
13, 153360, Note_on_c, 10, 59, 103
13, 153360, Note_on_c, 10, 62, 103
13, 153360, Note_on_c, 10, 67, 103
13, 153476, Note_off_c, 10, 55, 0
13, 153476, Note_off_c, 10, 59, 0
13, 153476, Note_off_c, 10, 62, 0
13, 153476, Note_off_c, 10, 67, 0
13, 153480, Note_on_c, 10, 55, 118
13, 153480, Note_on_c, 10, 59, 118
13, 153480, Note_on_c, 10, 62, 118
13, 153480, Note_on_c, 10, 67, 118
13, 153596, Note_off_c, 10, 55, 0
13, 153596, Note_off_c, 10, 59, 0
13, 153596, Note_off_c, 10, 62, 0
13, 153596, Note_off_c, 10, 67, 0
13, 153600, Note_on_c, 10, 55, 127
13, 153600, Note_on_c, 10, 59, 127
13, 153600, Note_on_c, 10, 62, 127
13, 153600, Note_on_c, 10, 67, 127
13, 153716, Note_off_c, 10, 55, 0
13, 153716, Note_off_c, 10, 59, 0
13, 153716, Note_off_c, 10, 62, 0
13, 153716, Note_off_c, 10, 67, 0
13, 153720, Note_on_c, 10, 55, 97
13, 153720, Note_on_c, 10, 59, 97
13, 153720, Note_on_c, 10, 62, 97
13, 153720, Note_on_c, 10, 67, 97
13, 153836, Note_off_c, 10, 55, 0
13, 153836, Note_off_c, 10, 59, 0
13, 153836, Note_off_c, 10, 62, 0
13, 153836, Note_off_c, 10, 67, 0
13, 153840, Note_on_c, 10, 55, 108
13, 153840, Note_on_c, 10, 59, 108
13, 153840, Note_on_c, 10, 62, 108
13, 153840, Note_on_c, 10, 67, 108
13, 153956, Note_off_c, 10, 55, 0
13, 153956, Note_off_c, 10, 59, 0
13, 153956, Note_off_c, 10, 62, 0
13, 153956, Note_off_c, 10, 67, 0
13, 153960, Note_on_c, 10, 55, 127
13, 153960, Note_on_c, 10, 59, 127
13, 153960, Note_on_c, 10, 62, 127
13, 153960, Note_on_c, 10, 67, 127
13, 154076, Note_off_c, 10, 55, 0
13, 154076, Note_off_c, 10, 59, 0
13, 154076, Note_off_c, 10, 62, 0
13, 154076, Note_off_c, 10, 67, 0
13, 154200, Note_on_c, 10, 55, 93
13, 154200, Note_on_c, 10, 59, 93
13, 154200, Note_on_c, 10, 62, 93
13, 154200, Note_on_c, 10, 67, 93
13, 154316, Note_off_c, 10, 55, 0
13, 154316, Note_off_c, 10, 59, 0
13, 154316, Note_off_c, 10, 62, 0
13, 154316, Note_off_c, 10, 67, 0
13, 154320, Note_on_c, 10, 55, 103
13, 154320, Note_on_c, 10, 59, 103
13, 154320, Note_on_c, 10, 62, 103
13, 154320, Note_on_c, 10, 67, 103
13, 154436, Note_off_c, 10, 55, 0
13, 154436, Note_off_c, 10, 59, 0
13, 154436, Note_off_c, 10, 62, 0
13, 154436, Note_off_c, 10, 67, 0
13, 154440, Note_on_c, 10, 55, 118
13, 154440, Note_on_c, 10, 59, 118
13, 154440, Note_on_c, 10, 62, 118
13, 154440, Note_on_c, 10, 67, 118
13, 154556, Note_off_c, 10, 55, 0
13, 154556, Note_off_c, 10, 59, 0
13, 154556, Note_off_c, 10, 62, 0
13, 154556, Note_off_c, 10, 67, 0
13, 154560, Note_on_c, 10, 55, 127
13, 154560, Note_on_c, 10, 59, 127
13, 154560, Note_on_c, 10, 62, 127
13, 154560, Note_on_c, 10, 67, 127
13, 154676, Note_off_c, 10, 55, 0
13, 154676, Note_off_c, 10, 59, 0
13, 154676, Note_off_c, 10, 62, 0
13, 154676, Note_off_c, 10, 67, 0
13, 154680, Note_on_c, 10, 55, 97
13, 154680, Note_on_c, 10, 59, 97
13, 154680, Note_on_c, 10, 62, 97
13, 154680, Note_on_c, 10, 67, 97
13, 154796, Note_off_c, 10, 55, 0
13, 154796, Note_off_c, 10, 59, 0
13, 154796, Note_off_c, 10, 62, 0
13, 154796, Note_off_c, 10, 67, 0
13, 154800, Note_on_c, 10, 55, 108
13, 154800, Note_on_c, 10, 59, 108
13, 154800, Note_on_c, 10, 62, 108
13, 154800, Note_on_c, 10, 67, 108
13, 154916, Note_off_c, 10, 55, 0
13, 154916, Note_off_c, 10, 59, 0
13, 154916, Note_off_c, 10, 62, 0
13, 154916, Note_off_c, 10, 67, 0
13, 154920, Note_on_c, 10, 55, 127
13, 154920, Note_on_c, 10, 59, 127
13, 154920, Note_on_c, 10, 62, 127
13, 154920, Note_on_c, 10, 67, 127
13, 155036, Note_off_c, 10, 55, 0
13, 155036, Note_off_c, 10, 59, 0
13, 155036, Note_off_c, 10, 62, 0
13, 155036, Note_off_c, 10, 67, 0
13, 155160, Note_on_c, 10, 55, 93
13, 155160, Note_on_c, 10, 59, 93
13, 155160, Note_on_c, 10, 62, 93
13, 155160, Note_on_c, 10, 67, 93
13, 155276, Note_off_c, 10, 55, 0
13, 155276, Note_off_c, 10, 59, 0
13, 155276, Note_off_c, 10, 62, 0
13, 155276, Note_off_c, 10, 67, 0
13, 155280, Note_on_c, 10, 55, 103
13, 155280, Note_on_c, 10, 59, 103
13, 155280, Note_on_c, 10, 62, 103
13, 155280, Note_on_c, 10, 67, 103
13, 155396, Note_off_c, 10, 55, 0
13, 155396, Note_off_c, 10, 59, 0
13, 155396, Note_off_c, 10, 62, 0
13, 155396, Note_off_c, 10, 67, 0
13, 155400, Note_on_c, 10, 55, 118
13, 155400, Note_on_c, 10, 59, 118
13, 155400, Note_on_c, 10, 62, 118
13, 155400, Note_on_c, 10, 67, 118
13, 155516, Note_off_c, 10, 55, 0
13, 155516, Note_off_c, 10, 59, 0
13, 155516, Note_off_c, 10, 62, 0
13, 155516, Note_off_c, 10, 67, 0
13, 155520, Note_on_c, 10, 53, 127
13, 155520, Note_on_c, 10, 57, 127
13, 155520, Note_on_c, 10, 62, 127
13, 155520, Note_on_c, 10, 65, 127
13, 155636, Note_off_c, 10, 53, 0
13, 155636, Note_off_c, 10, 57, 0
13, 155636, Note_off_c, 10, 62, 0
13, 155636, Note_off_c, 10, 65, 0
13, 155640, Note_on_c, 10, 53, 97
13, 155640, Note_on_c, 10, 57, 97
13, 155640, Note_on_c, 10, 62, 97
13, 155640, Note_on_c, 10, 65, 97
13, 155756, Note_off_c, 10, 53, 0
13, 155756, Note_off_c, 10, 57, 0
13, 155756, Note_off_c, 10, 62, 0
13, 155756, Note_off_c, 10, 65, 0
13, 155760, Note_on_c, 10, 53, 108
13, 155760, Note_on_c, 10, 57, 108
13, 155760, Note_on_c, 10, 62, 108
13, 155760, Note_on_c, 10, 65, 108
13, 155876, Note_off_c, 10, 53, 0
13, 155876, Note_off_c, 10, 57, 0
13, 155876, Note_off_c, 10, 62, 0
13, 155876, Note_off_c, 10, 65, 0
13, 155880, Note_on_c, 10, 53, 127
13, 155880, Note_on_c, 10, 57, 127
13, 155880, Note_on_c, 10, 62, 127
13, 155880, Note_on_c, 10, 65, 127
13, 155996, Note_off_c, 10, 53, 0
13, 155996, Note_off_c, 10, 57, 0
13, 155996, Note_off_c, 10, 62, 0
13, 155996, Note_off_c, 10, 65, 0
13, 156120, Note_on_c, 10, 53, 93
13, 156120, Note_on_c, 10, 57, 93
13, 156120, Note_on_c, 10, 62, 93
13, 156120, Note_on_c, 10, 65, 93
13, 156236, Note_off_c, 10, 53, 0
13, 156236, Note_off_c, 10, 57, 0
13, 156236, Note_off_c, 10, 62, 0
13, 156236, Note_off_c, 10, 65, 0
13, 156240, Note_on_c, 10, 53, 103
13, 156240, Note_on_c, 10, 57, 103
13, 156240, Note_on_c, 10, 62, 103
13, 156240, Note_on_c, 10, 65, 103
13, 156356, Note_off_c, 10, 53, 0
13, 156356, Note_off_c, 10, 57, 0
13, 156356, Note_off_c, 10, 62, 0
13, 156356, Note_off_c, 10, 65, 0
13, 156360, Note_on_c, 10, 53, 118
13, 156360, Note_on_c, 10, 57, 118
13, 156360, Note_on_c, 10, 62, 118
13, 156360, Note_on_c, 10, 65, 118
13, 156476, Note_off_c, 10, 53, 0
13, 156476, Note_off_c, 10, 57, 0
13, 156476, Note_off_c, 10, 62, 0
13, 156476, Note_off_c, 10, 65, 0
13, 156480, Note_on_c, 10, 53, 127
13, 156480, Note_on_c, 10, 57, 127
13, 156480, Note_on_c, 10, 62, 127
13, 156480, Note_on_c, 10, 65, 127
13, 156596, Note_off_c, 10, 53, 0
13, 156596, Note_off_c, 10, 57, 0
13, 156596, Note_off_c, 10, 62, 0
13, 156596, Note_off_c, 10, 65, 0
13, 156600, Note_on_c, 10, 53, 97
13, 156600, Note_on_c, 10, 57, 97
13, 156600, Note_on_c, 10, 62, 97
13, 156600, Note_on_c, 10, 65, 97
13, 156716, Note_off_c, 10, 53, 0
13, 156716, Note_off_c, 10, 57, 0
13, 156716, Note_off_c, 10, 62, 0
13, 156716, Note_off_c, 10, 65, 0
13, 156720, Note_on_c, 10, 53, 108
13, 156720, Note_on_c, 10, 57, 108
13, 156720, Note_on_c, 10, 62, 108
13, 156720, Note_on_c, 10, 65, 108
13, 156836, Note_off_c, 10, 53, 0
13, 156836, Note_off_c, 10, 57, 0
13, 156836, Note_off_c, 10, 62, 0
13, 156836, Note_off_c, 10, 65, 0
13, 156840, Note_on_c, 10, 53, 127
13, 156840, Note_on_c, 10, 57, 127
13, 156840, Note_on_c, 10, 62, 127
13, 156840, Note_on_c, 10, 65, 127
13, 156956, Note_off_c, 10, 53, 0
13, 156956, Note_off_c, 10, 57, 0
13, 156956, Note_off_c, 10, 62, 0
13, 156956, Note_off_c, 10, 65, 0
13, 157080, Note_on_c, 10, 53, 93
13, 157080, Note_on_c, 10, 57, 93
13, 157080, Note_on_c, 10, 62, 93
13, 157080, Note_on_c, 10, 65, 93
13, 157196, Note_off_c, 10, 53, 0
13, 157196, Note_off_c, 10, 57, 0
13, 157196, Note_off_c, 10, 62, 0
13, 157196, Note_off_c, 10, 65, 0
13, 157200, Note_on_c, 10, 53, 103
13, 157200, Note_on_c, 10, 57, 103
13, 157200, Note_on_c, 10, 62, 103
13, 157200, Note_on_c, 10, 65, 103
13, 157316, Note_off_c, 10, 53, 0
13, 157316, Note_off_c, 10, 57, 0
13, 157316, Note_off_c, 10, 62, 0
13, 157316, Note_off_c, 10, 65, 0
13, 157320, Note_on_c, 10, 53, 118
13, 157320, Note_on_c, 10, 57, 118
13, 157320, Note_on_c, 10, 62, 118
13, 157320, Note_on_c, 10, 65, 118
13, 157436, Note_off_c, 10, 53, 0
13, 157436, Note_off_c, 10, 57, 0
13, 157436, Note_off_c, 10, 62, 0
13, 157436, Note_off_c, 10, 65, 0
13, 157440, Note_on_c, 10, 53, 127
13, 157440, Note_on_c, 10, 57, 127
13, 157440, Note_on_c, 10, 60, 127
13, 157440, Note_on_c, 10, 65, 127
13, 157556, Note_off_c, 10, 53, 0
13, 157556, Note_off_c, 10, 57, 0
13, 157556, Note_off_c, 10, 60, 0
13, 157556, Note_off_c, 10, 65, 0
13, 157560, Note_on_c, 10, 53, 97
13, 157560, Note_on_c, 10, 57, 97
13, 157560, Note_on_c, 10, 60, 97
13, 157560, Note_on_c, 10, 65, 97
13, 157676, Note_off_c, 10, 53, 0
13, 157676, Note_off_c, 10, 57, 0
13, 157676, Note_off_c, 10, 60, 0
13, 157676, Note_off_c, 10, 65, 0
13, 157680, Note_on_c, 10, 53, 108
13, 157680, Note_on_c, 10, 57, 108
13, 157680, Note_on_c, 10, 60, 108
13, 157680, Note_on_c, 10, 65, 108
13, 157796, Note_off_c, 10, 53, 0
13, 157796, Note_off_c, 10, 57, 0
13, 157796, Note_off_c, 10, 60, 0
13, 157796, Note_off_c, 10, 65, 0
13, 157800, Note_on_c, 10, 53, 127
13, 157800, Note_on_c, 10, 57, 127
13, 157800, Note_on_c, 10, 60, 127
13, 157800, Note_on_c, 10, 65, 127
13, 157916, Note_off_c, 10, 53, 0
13, 157916, Note_off_c, 10, 57, 0
13, 157916, Note_off_c, 10, 60, 0
13, 157916, Note_off_c, 10, 65, 0
13, 158040, Note_on_c, 10, 53, 93
13, 158040, Note_on_c, 10, 57, 93
13, 158040, Note_on_c, 10, 60, 93
13, 158040, Note_on_c, 10, 65, 93
13, 158156, Note_off_c, 10, 53, 0
13, 158156, Note_off_c, 10, 57, 0
13, 158156, Note_off_c, 10, 60, 0
13, 158156, Note_off_c, 10, 65, 0
13, 158160, Note_on_c, 10, 53, 103
13, 158160, Note_on_c, 10, 57, 103
13, 158160, Note_on_c, 10, 60, 103
13, 158160, Note_on_c, 10, 65, 103
13, 158276, Note_off_c, 10, 53, 0
13, 158276, Note_off_c, 10, 57, 0
13, 158276, Note_off_c, 10, 60, 0
13, 158276, Note_off_c, 10, 65, 0
13, 158280, Note_on_c, 10, 53, 118
13, 158280, Note_on_c, 10, 57, 118
13, 158280, Note_on_c, 10, 60, 118
13, 158280, Note_on_c, 10, 65, 118
13, 158396, Note_off_c, 10, 53, 0
13, 158396, Note_off_c, 10, 57, 0
13, 158396, Note_off_c, 10, 60, 0
13, 158396, Note_off_c, 10, 65, 0
13, 158400, Note_on_c, 10, 55, 127
13, 158400, Note_on_c, 10, 60, 127
13, 158400, Note_on_c, 10, 64, 127
13, 158400, Note_on_c, 10, 67, 127
13, 158516, Note_off_c, 10, 55, 0
13, 158516, Note_off_c, 10, 60, 0
13, 158516, Note_off_c, 10, 64, 0
13, 158516, Note_off_c, 10, 67, 0
13, 158520, Note_on_c, 10, 55, 97
13, 158520, Note_on_c, 10, 60, 97
13, 158520, Note_on_c, 10, 64, 97
13, 158520, Note_on_c, 10, 67, 97
13, 158636, Note_off_c, 10, 55, 0
13, 158636, Note_off_c, 10, 60, 0
13, 158636, Note_off_c, 10, 64, 0
13, 158636, Note_off_c, 10, 67, 0
13, 158640, Note_on_c, 10, 55, 108
13, 158640, Note_on_c, 10, 60, 108
13, 158640, Note_on_c, 10, 64, 108
13, 158640, Note_on_c, 10, 67, 108
13, 158756, Note_off_c, 10, 55, 0
13, 158756, Note_off_c, 10, 60, 0
13, 158756, Note_off_c, 10, 64, 0
13, 158756, Note_off_c, 10, 67, 0
13, 158760, Note_on_c, 10, 55, 127
13, 158760, Note_on_c, 10, 60, 127
13, 158760, Note_on_c, 10, 64, 127
13, 158760, Note_on_c, 10, 67, 127
13, 158876, Note_off_c, 10, 55, 0
13, 158876, Note_off_c, 10, 60, 0
13, 158876, Note_off_c, 10, 64, 0
13, 158876, Note_off_c, 10, 67, 0
13, 159000, Note_on_c, 10, 55, 93
13, 159000, Note_on_c, 10, 60, 93
13, 159000, Note_on_c, 10, 64, 93
13, 159000, Note_on_c, 10, 67, 93
13, 159116, Note_off_c, 10, 55, 0
13, 159116, Note_off_c, 10, 60, 0
13, 159116, Note_off_c, 10, 64, 0
13, 159116, Note_off_c, 10, 67, 0
13, 159120, Note_on_c, 10, 55, 103
13, 159120, Note_on_c, 10, 60, 103
13, 159120, Note_on_c, 10, 64, 103
13, 159120, Note_on_c, 10, 67, 103
13, 159236, Note_off_c, 10, 55, 0
13, 159236, Note_off_c, 10, 60, 0
13, 159236, Note_off_c, 10, 64, 0
13, 159236, Note_off_c, 10, 67, 0
13, 159240, Note_on_c, 10, 55, 118
13, 159240, Note_on_c, 10, 60, 118
13, 159240, Note_on_c, 10, 64, 118
13, 159240, Note_on_c, 10, 67, 118
13, 159356, Note_off_c, 10, 55, 0
13, 159356, Note_off_c, 10, 60, 0
13, 159356, Note_off_c, 10, 64, 0
13, 159356, Note_off_c, 10, 67, 0
13, 159360, Note_on_c, 10, 55, 127
13, 159360, Note_on_c, 10, 59, 127
13, 159360, Note_on_c, 10, 62, 127
13, 159360, Note_on_c, 10, 67, 127
13, 159476, Note_off_c, 10, 55, 0
13, 159476, Note_off_c, 10, 59, 0
13, 159476, Note_off_c, 10, 62, 0
13, 159476, Note_off_c, 10, 67, 0
13, 159480, Note_on_c, 10, 55, 97
13, 159480, Note_on_c, 10, 59, 97
13, 159480, Note_on_c, 10, 62, 97
13, 159480, Note_on_c, 10, 67, 97
13, 159596, Note_off_c, 10, 55, 0
13, 159596, Note_off_c, 10, 59, 0
13, 159596, Note_off_c, 10, 62, 0
13, 159596, Note_off_c, 10, 67, 0
13, 159600, Note_on_c, 10, 55, 108
13, 159600, Note_on_c, 10, 59, 108
13, 159600, Note_on_c, 10, 62, 108
13, 159600, Note_on_c, 10, 67, 108
13, 159716, Note_off_c, 10, 55, 0
13, 159716, Note_off_c, 10, 59, 0
13, 159716, Note_off_c, 10, 62, 0
13, 159716, Note_off_c, 10, 67, 0
13, 159720, Note_on_c, 10, 55, 127
13, 159720, Note_on_c, 10, 59, 127
13, 159720, Note_on_c, 10, 62, 127
13, 159720, Note_on_c, 10, 67, 127
13, 159836, Note_off_c, 10, 55, 0
13, 159836, Note_off_c, 10, 59, 0
13, 159836, Note_off_c, 10, 62, 0
13, 159836, Note_off_c, 10, 67, 0
13, 159960, Note_on_c, 10, 55, 93
13, 159960, Note_on_c, 10, 59, 93
13, 159960, Note_on_c, 10, 62, 93
13, 159960, Note_on_c, 10, 67, 93
13, 160076, Note_off_c, 10, 55, 0
13, 160076, Note_off_c, 10, 59, 0
13, 160076, Note_off_c, 10, 62, 0
13, 160076, Note_off_c, 10, 67, 0
13, 160080, Note_on_c, 10, 55, 103
13, 160080, Note_on_c, 10, 59, 103
13, 160080, Note_on_c, 10, 62, 103
13, 160080, Note_on_c, 10, 67, 103
13, 160196, Note_off_c, 10, 55, 0
13, 160196, Note_off_c, 10, 59, 0
13, 160196, Note_off_c, 10, 62, 0
13, 160196, Note_off_c, 10, 67, 0
13, 160200, Note_on_c, 10, 55, 118
13, 160200, Note_on_c, 10, 59, 118
13, 160200, Note_on_c, 10, 62, 118
13, 160200, Note_on_c, 10, 67, 118
13, 160316, Note_off_c, 10, 55, 0
13, 160316, Note_off_c, 10, 59, 0
13, 160316, Note_off_c, 10, 62, 0
13, 160316, Note_off_c, 10, 67, 0
13, 160320, Note_on_c, 10, 55, 127
13, 160320, Note_on_c, 10, 59, 127
13, 160320, Note_on_c, 10, 62, 127
13, 160320, Note_on_c, 10, 67, 127
13, 160436, Note_off_c, 10, 55, 0
13, 160436, Note_off_c, 10, 59, 0
13, 160436, Note_off_c, 10, 62, 0
13, 160436, Note_off_c, 10, 67, 0
13, 160440, Note_on_c, 10, 55, 97
13, 160440, Note_on_c, 10, 59, 97
13, 160440, Note_on_c, 10, 62, 97
13, 160440, Note_on_c, 10, 67, 97
13, 160556, Note_off_c, 10, 55, 0
13, 160556, Note_off_c, 10, 59, 0
13, 160556, Note_off_c, 10, 62, 0
13, 160556, Note_off_c, 10, 67, 0
13, 160560, Note_on_c, 10, 55, 108
13, 160560, Note_on_c, 10, 59, 108
13, 160560, Note_on_c, 10, 62, 108
13, 160560, Note_on_c, 10, 67, 108
13, 160676, Note_off_c, 10, 55, 0
13, 160676, Note_off_c, 10, 59, 0
13, 160676, Note_off_c, 10, 62, 0
13, 160676, Note_off_c, 10, 67, 0
13, 160680, Note_on_c, 10, 55, 127
13, 160680, Note_on_c, 10, 59, 127
13, 160680, Note_on_c, 10, 62, 127
13, 160680, Note_on_c, 10, 67, 127
13, 160796, Note_off_c, 10, 55, 0
13, 160796, Note_off_c, 10, 59, 0
13, 160796, Note_off_c, 10, 62, 0
13, 160796, Note_off_c, 10, 67, 0
13, 160920, Note_on_c, 10, 55, 93
13, 160920, Note_on_c, 10, 59, 93
13, 160920, Note_on_c, 10, 62, 93
13, 160920, Note_on_c, 10, 67, 93
13, 161036, Note_off_c, 10, 55, 0
13, 161036, Note_off_c, 10, 59, 0
13, 161036, Note_off_c, 10, 62, 0
13, 161036, Note_off_c, 10, 67, 0
13, 161040, Note_on_c, 10, 55, 103
13, 161040, Note_on_c, 10, 59, 103
13, 161040, Note_on_c, 10, 62, 103
13, 161040, Note_on_c, 10, 67, 103
13, 161156, Note_off_c, 10, 55, 0
13, 161156, Note_off_c, 10, 59, 0
13, 161156, Note_off_c, 10, 62, 0
13, 161156, Note_off_c, 10, 67, 0
13, 161160, Note_on_c, 10, 55, 118
13, 161160, Note_on_c, 10, 59, 118
13, 161160, Note_on_c, 10, 62, 118
13, 161160, Note_on_c, 10, 67, 118
13, 161276, Note_off_c, 10, 55, 0
13, 161276, Note_off_c, 10, 59, 0
13, 161276, Note_off_c, 10, 62, 0
13, 161276, Note_off_c, 10, 67, 0
13, 161280, Note_on_c, 10, 55, 127
13, 161280, Note_on_c, 10, 59, 127
13, 161280, Note_on_c, 10, 62, 127
13, 161280, Note_on_c, 10, 67, 127
13, 161396, Note_off_c, 10, 55, 0
13, 161396, Note_off_c, 10, 59, 0
13, 161396, Note_off_c, 10, 62, 0
13, 161396, Note_off_c, 10, 67, 0
13, 161400, Note_on_c, 10, 55, 97
13, 161400, Note_on_c, 10, 59, 97
13, 161400, Note_on_c, 10, 62, 97
13, 161400, Note_on_c, 10, 67, 97
13, 161516, Note_off_c, 10, 55, 0
13, 161516, Note_off_c, 10, 59, 0
13, 161516, Note_off_c, 10, 62, 0
13, 161516, Note_off_c, 10, 67, 0
13, 161520, Note_on_c, 10, 55, 108
13, 161520, Note_on_c, 10, 59, 108
13, 161520, Note_on_c, 10, 62, 108
13, 161520, Note_on_c, 10, 67, 108
13, 161636, Note_off_c, 10, 55, 0
13, 161636, Note_off_c, 10, 59, 0
13, 161636, Note_off_c, 10, 62, 0
13, 161636, Note_off_c, 10, 67, 0
13, 161640, Note_on_c, 10, 55, 127
13, 161640, Note_on_c, 10, 59, 127
13, 161640, Note_on_c, 10, 62, 127
13, 161640, Note_on_c, 10, 67, 127
13, 161756, Note_off_c, 10, 55, 0
13, 161756, Note_off_c, 10, 59, 0
13, 161756, Note_off_c, 10, 62, 0
13, 161756, Note_off_c, 10, 67, 0
13, 161880, Note_on_c, 10, 55, 93
13, 161880, Note_on_c, 10, 59, 93
13, 161880, Note_on_c, 10, 62, 93
13, 161880, Note_on_c, 10, 67, 93
13, 161996, Note_off_c, 10, 55, 0
13, 161996, Note_off_c, 10, 59, 0
13, 161996, Note_off_c, 10, 62, 0
13, 161996, Note_off_c, 10, 67, 0
13, 162000, Note_on_c, 10, 55, 103
13, 162000, Note_on_c, 10, 59, 103
13, 162000, Note_on_c, 10, 62, 103
13, 162000, Note_on_c, 10, 67, 103
13, 162116, Note_off_c, 10, 55, 0
13, 162116, Note_off_c, 10, 59, 0
13, 162116, Note_off_c, 10, 62, 0
13, 162116, Note_off_c, 10, 67, 0
13, 162120, Note_on_c, 10, 55, 118
13, 162120, Note_on_c, 10, 59, 118
13, 162120, Note_on_c, 10, 62, 118
13, 162120, Note_on_c, 10, 67, 118
13, 162236, Note_off_c, 10, 55, 0
13, 162236, Note_off_c, 10, 59, 0
13, 162236, Note_off_c, 10, 62, 0
13, 162236, Note_off_c, 10, 67, 0
13, 162240, Note_on_c, 10, 55, 127
13, 162240, Note_on_c, 10, 59, 127
13, 162240, Note_on_c, 10, 62, 127
13, 162240, Note_on_c, 10, 67, 127
13, 162356, Note_off_c, 10, 55, 0
13, 162356, Note_off_c, 10, 59, 0
13, 162356, Note_off_c, 10, 62, 0
13, 162356, Note_off_c, 10, 67, 0
13, 162360, Note_on_c, 10, 55, 97
13, 162360, Note_on_c, 10, 59, 97
13, 162360, Note_on_c, 10, 62, 97
13, 162360, Note_on_c, 10, 67, 97
13, 162476, Note_off_c, 10, 55, 0
13, 162476, Note_off_c, 10, 59, 0
13, 162476, Note_off_c, 10, 62, 0
13, 162476, Note_off_c, 10, 67, 0
13, 162480, Note_on_c, 10, 55, 108
13, 162480, Note_on_c, 10, 59, 108
13, 162480, Note_on_c, 10, 62, 108
13, 162480, Note_on_c, 10, 67, 108
13, 162596, Note_off_c, 10, 55, 0
13, 162596, Note_off_c, 10, 59, 0
13, 162596, Note_off_c, 10, 62, 0
13, 162596, Note_off_c, 10, 67, 0
13, 162600, Note_on_c, 10, 55, 127
13, 162600, Note_on_c, 10, 59, 127
13, 162600, Note_on_c, 10, 62, 127
13, 162600, Note_on_c, 10, 67, 127
13, 162716, Note_off_c, 10, 55, 0
13, 162716, Note_off_c, 10, 59, 0
13, 162716, Note_off_c, 10, 62, 0
13, 162716, Note_off_c, 10, 67, 0
13, 162840, Note_on_c, 10, 55, 93
13, 162840, Note_on_c, 10, 59, 93
13, 162840, Note_on_c, 10, 62, 93
13, 162840, Note_on_c, 10, 67, 93
13, 162956, Note_off_c, 10, 55, 0
13, 162956, Note_off_c, 10, 59, 0
13, 162956, Note_off_c, 10, 62, 0
13, 162956, Note_off_c, 10, 67, 0
13, 162960, Note_on_c, 10, 55, 103
13, 162960, Note_on_c, 10, 59, 103
13, 162960, Note_on_c, 10, 62, 103
13, 162960, Note_on_c, 10, 67, 103
13, 163076, Note_off_c, 10, 55, 0
13, 163076, Note_off_c, 10, 59, 0
13, 163076, Note_off_c, 10, 62, 0
13, 163076, Note_off_c, 10, 67, 0
13, 163080, Note_on_c, 10, 55, 118
13, 163080, Note_on_c, 10, 59, 118
13, 163080, Note_on_c, 10, 62, 118
13, 163080, Note_on_c, 10, 67, 118
13, 163196, Note_off_c, 10, 55, 0
13, 163196, Note_off_c, 10, 59, 0
13, 163196, Note_off_c, 10, 62, 0
13, 163196, Note_off_c, 10, 67, 0
13, 163200, Note_on_c, 10, 53, 127
13, 163200, Note_on_c, 10, 57, 127
13, 163200, Note_on_c, 10, 62, 127
13, 163200, Note_on_c, 10, 65, 127
13, 163316, Note_off_c, 10, 53, 0
13, 163316, Note_off_c, 10, 57, 0
13, 163316, Note_off_c, 10, 62, 0
13, 163316, Note_off_c, 10, 65, 0
13, 163320, Note_on_c, 10, 53, 97
13, 163320, Note_on_c, 10, 57, 97
13, 163320, Note_on_c, 10, 62, 97
13, 163320, Note_on_c, 10, 65, 97
13, 163436, Note_off_c, 10, 53, 0
13, 163436, Note_off_c, 10, 57, 0
13, 163436, Note_off_c, 10, 62, 0
13, 163436, Note_off_c, 10, 65, 0
13, 163440, Note_on_c, 10, 53, 108
13, 163440, Note_on_c, 10, 57, 108
13, 163440, Note_on_c, 10, 62, 108
13, 163440, Note_on_c, 10, 65, 108
13, 163556, Note_off_c, 10, 53, 0
13, 163556, Note_off_c, 10, 57, 0
13, 163556, Note_off_c, 10, 62, 0
13, 163556, Note_off_c, 10, 65, 0
13, 163560, Note_on_c, 10, 53, 127
13, 163560, Note_on_c, 10, 57, 127
13, 163560, Note_on_c, 10, 62, 127
13, 163560, Note_on_c, 10, 65, 127
13, 163676, Note_off_c, 10, 53, 0
13, 163676, Note_off_c, 10, 57, 0
13, 163676, Note_off_c, 10, 62, 0
13, 163676, Note_off_c, 10, 65, 0
13, 163800, Note_on_c, 10, 53, 93
13, 163800, Note_on_c, 10, 57, 93
13, 163800, Note_on_c, 10, 62, 93
13, 163800, Note_on_c, 10, 65, 93
13, 163916, Note_off_c, 10, 53, 0
13, 163916, Note_off_c, 10, 57, 0
13, 163916, Note_off_c, 10, 62, 0
13, 163916, Note_off_c, 10, 65, 0
13, 163920, Note_on_c, 10, 53, 103
13, 163920, Note_on_c, 10, 57, 103
13, 163920, Note_on_c, 10, 62, 103
13, 163920, Note_on_c, 10, 65, 103
13, 164036, Note_off_c, 10, 53, 0
13, 164036, Note_off_c, 10, 57, 0
13, 164036, Note_off_c, 10, 62, 0
13, 164036, Note_off_c, 10, 65, 0
13, 164040, Note_on_c, 10, 53, 118
13, 164040, Note_on_c, 10, 57, 118
13, 164040, Note_on_c, 10, 62, 118
13, 164040, Note_on_c, 10, 65, 118
13, 164156, Note_off_c, 10, 53, 0
13, 164156, Note_off_c, 10, 57, 0
13, 164156, Note_off_c, 10, 62, 0
13, 164156, Note_off_c, 10, 65, 0
13, 164160, Note_on_c, 10, 53, 127
13, 164160, Note_on_c, 10, 57, 127
13, 164160, Note_on_c, 10, 62, 127
13, 164160, Note_on_c, 10, 65, 127
13, 164276, Note_off_c, 10, 53, 0
13, 164276, Note_off_c, 10, 57, 0
13, 164276, Note_off_c, 10, 62, 0
13, 164276, Note_off_c, 10, 65, 0
13, 164280, Note_on_c, 10, 53, 97
13, 164280, Note_on_c, 10, 57, 97
13, 164280, Note_on_c, 10, 62, 97
13, 164280, Note_on_c, 10, 65, 97
13, 164396, Note_off_c, 10, 53, 0
13, 164396, Note_off_c, 10, 57, 0
13, 164396, Note_off_c, 10, 62, 0
13, 164396, Note_off_c, 10, 65, 0
13, 164400, Note_on_c, 10, 53, 108
13, 164400, Note_on_c, 10, 57, 108
13, 164400, Note_on_c, 10, 62, 108
13, 164400, Note_on_c, 10, 65, 108
13, 164516, Note_off_c, 10, 53, 0
13, 164516, Note_off_c, 10, 57, 0
13, 164516, Note_off_c, 10, 62, 0
13, 164516, Note_off_c, 10, 65, 0
13, 164520, Note_on_c, 10, 53, 127
13, 164520, Note_on_c, 10, 57, 127
13, 164520, Note_on_c, 10, 62, 127
13, 164520, Note_on_c, 10, 65, 127
13, 164636, Note_off_c, 10, 53, 0
13, 164636, Note_off_c, 10, 57, 0
13, 164636, Note_off_c, 10, 62, 0
13, 164636, Note_off_c, 10, 65, 0
13, 164760, Note_on_c, 10, 53, 93
13, 164760, Note_on_c, 10, 57, 93
13, 164760, Note_on_c, 10, 62, 93
13, 164760, Note_on_c, 10, 65, 93
13, 164876, Note_off_c, 10, 53, 0
13, 164876, Note_off_c, 10, 57, 0
13, 164876, Note_off_c, 10, 62, 0
13, 164876, Note_off_c, 10, 65, 0
13, 164880, Note_on_c, 10, 53, 103
13, 164880, Note_on_c, 10, 57, 103
13, 164880, Note_on_c, 10, 62, 103
13, 164880, Note_on_c, 10, 65, 103
13, 164996, Note_off_c, 10, 53, 0
13, 164996, Note_off_c, 10, 57, 0
13, 164996, Note_off_c, 10, 62, 0
13, 164996, Note_off_c, 10, 65, 0
13, 165000, Note_on_c, 10, 53, 118
13, 165000, Note_on_c, 10, 57, 118
13, 165000, Note_on_c, 10, 62, 118
13, 165000, Note_on_c, 10, 65, 118
13, 165116, Note_off_c, 10, 53, 0
13, 165116, Note_off_c, 10, 57, 0
13, 165116, Note_off_c, 10, 62, 0
13, 165116, Note_off_c, 10, 65, 0
13, 165120, Note_on_c, 10, 53, 127
13, 165120, Note_on_c, 10, 57, 127
13, 165120, Note_on_c, 10, 60, 127
13, 165120, Note_on_c, 10, 65, 127
13, 165236, Note_off_c, 10, 53, 0
13, 165236, Note_off_c, 10, 57, 0
13, 165236, Note_off_c, 10, 60, 0
13, 165236, Note_off_c, 10, 65, 0
13, 165240, Note_on_c, 10, 53, 97
13, 165240, Note_on_c, 10, 57, 97
13, 165240, Note_on_c, 10, 60, 97
13, 165240, Note_on_c, 10, 65, 97
13, 165356, Note_off_c, 10, 53, 0
13, 165356, Note_off_c, 10, 57, 0
13, 165356, Note_off_c, 10, 60, 0
13, 165356, Note_off_c, 10, 65, 0
13, 165360, Note_on_c, 10, 53, 108
13, 165360, Note_on_c, 10, 57, 108
13, 165360, Note_on_c, 10, 60, 108
13, 165360, Note_on_c, 10, 65, 108
13, 165476, Note_off_c, 10, 53, 0
13, 165476, Note_off_c, 10, 57, 0
13, 165476, Note_off_c, 10, 60, 0
13, 165476, Note_off_c, 10, 65, 0
13, 165480, Note_on_c, 10, 53, 127
13, 165480, Note_on_c, 10, 57, 127
13, 165480, Note_on_c, 10, 60, 127
13, 165480, Note_on_c, 10, 65, 127
13, 165596, Note_off_c, 10, 53, 0
13, 165596, Note_off_c, 10, 57, 0
13, 165596, Note_off_c, 10, 60, 0
13, 165596, Note_off_c, 10, 65, 0
13, 165720, Note_on_c, 10, 53, 93
13, 165720, Note_on_c, 10, 57, 93
13, 165720, Note_on_c, 10, 60, 93
13, 165720, Note_on_c, 10, 65, 93
13, 165836, Note_off_c, 10, 53, 0
13, 165836, Note_off_c, 10, 57, 0
13, 165836, Note_off_c, 10, 60, 0
13, 165836, Note_off_c, 10, 65, 0
13, 165840, Note_on_c, 10, 53, 103
13, 165840, Note_on_c, 10, 57, 103
13, 165840, Note_on_c, 10, 60, 103
13, 165840, Note_on_c, 10, 65, 103
13, 165956, Note_off_c, 10, 53, 0
13, 165956, Note_off_c, 10, 57, 0
13, 165956, Note_off_c, 10, 60, 0
13, 165956, Note_off_c, 10, 65, 0
13, 165960, Note_on_c, 10, 53, 118
13, 165960, Note_on_c, 10, 57, 118
13, 165960, Note_on_c, 10, 60, 118
13, 165960, Note_on_c, 10, 65, 118
13, 166076, Note_off_c, 10, 53, 0
13, 166076, Note_off_c, 10, 57, 0
13, 166076, Note_off_c, 10, 60, 0
13, 166076, Note_off_c, 10, 65, 0
13, 166080, Note_on_c, 10, 55, 127
13, 166080, Note_on_c, 10, 60, 127
13, 166080, Note_on_c, 10, 64, 127
13, 166080, Note_on_c, 10, 67, 127
13, 166196, Note_off_c, 10, 55, 0
13, 166196, Note_off_c, 10, 60, 0
13, 166196, Note_off_c, 10, 64, 0
13, 166196, Note_off_c, 10, 67, 0
13, 166200, Note_on_c, 10, 55, 97
13, 166200, Note_on_c, 10, 60, 97
13, 166200, Note_on_c, 10, 64, 97
13, 166200, Note_on_c, 10, 67, 97
13, 166316, Note_off_c, 10, 55, 0
13, 166316, Note_off_c, 10, 60, 0
13, 166316, Note_off_c, 10, 64, 0
13, 166316, Note_off_c, 10, 67, 0
13, 166320, Note_on_c, 10, 55, 108
13, 166320, Note_on_c, 10, 60, 108
13, 166320, Note_on_c, 10, 64, 108
13, 166320, Note_on_c, 10, 67, 108
13, 166436, Note_off_c, 10, 55, 0
13, 166436, Note_off_c, 10, 60, 0
13, 166436, Note_off_c, 10, 64, 0
13, 166436, Note_off_c, 10, 67, 0
13, 166440, Note_on_c, 10, 55, 127
13, 166440, Note_on_c, 10, 60, 127
13, 166440, Note_on_c, 10, 64, 127
13, 166440, Note_on_c, 10, 67, 127
13, 166556, Note_off_c, 10, 55, 0
13, 166556, Note_off_c, 10, 60, 0
13, 166556, Note_off_c, 10, 64, 0
13, 166556, Note_off_c, 10, 67, 0
13, 166680, Note_on_c, 10, 55, 93
13, 166680, Note_on_c, 10, 60, 93
13, 166680, Note_on_c, 10, 64, 93
13, 166680, Note_on_c, 10, 67, 93
13, 166796, Note_off_c, 10, 55, 0
13, 166796, Note_off_c, 10, 60, 0
13, 166796, Note_off_c, 10, 64, 0
13, 166796, Note_off_c, 10, 67, 0
13, 166800, Note_on_c, 10, 55, 103
13, 166800, Note_on_c, 10, 60, 103
13, 166800, Note_on_c, 10, 64, 103
13, 166800, Note_on_c, 10, 67, 103
13, 166916, Note_off_c, 10, 55, 0
13, 166916, Note_off_c, 10, 60, 0
13, 166916, Note_off_c, 10, 64, 0
13, 166916, Note_off_c, 10, 67, 0
13, 166920, Note_on_c, 10, 55, 118
13, 166920, Note_on_c, 10, 60, 118
13, 166920, Note_on_c, 10, 64, 118
13, 166920, Note_on_c, 10, 67, 118
13, 167036, Note_off_c, 10, 55, 0
13, 167036, Note_off_c, 10, 60, 0
13, 167036, Note_off_c, 10, 64, 0
13, 167036, Note_off_c, 10, 67, 0
13, 170641, Control_c, 10, 7, 60
13, 170641, End_track
14, 0, Start_track
14, 0, Title_t, "\000"
14, 0, Program_c, 11, 119
14, 0, Control_c, 11, 7, 90
14, 0, Control_c, 11, 10, 67
14, 0, Control_c, 11, 91, 67
14, 0, Control_c, 11, 93, 127
14, 950, Control_c, 11, 11, 127
14, 16920, Note_on_c, 11, 69, 126
14, 17276, Note_off_c, 11, 69, 0
14, 85800, Note_on_c, 11, 62, 109
14, 85800, Note_on_c, 11, 67, 101
14, 86404, Note_off_c, 11, 67, 0
14, 86408, Note_off_c, 11, 62, 0
14, 137640, Note_on_c, 11, 62, 109
14, 137640, Note_on_c, 11, 67, 101
14, 138244, Note_off_c, 11, 67, 0
14, 138248, Note_off_c, 11, 62, 0
14, 170641, Control_c, 11, 7, 90
14, 170641, End_track
0, 0, End_of_file
