0, 0, Header, 1, 6, 96
1, 0, Start_track
1, 0, Time_signature, 4, 2, 24, 8
1, 0, End_track
2, 0, Start_track
2, 0, Tempo, 315789
2, 0, Tempo, 315789
2, 0, Tempo, 315789
2, 0, End_track
3, 0, Start_track
3, 0, Title_t, "FPC (MIDI)"
3, 0, Control_c, 9, 10, 64
3, 0, Control_c, 9, 7, 100
3, 0, Pitch_bend_c, 9, 8192
3, 0, Control_c, 9, 101, 0
3, 0, Control_c, 9, 100, 0
3, 0, Control_c, 9, 6, 12
3, 0, Control_c, 9, 10, 64
3, 0, Control_c, 9, 7, 100
3, 0, Pitch_bend_c, 9, 8192
3, 0, Program_c, 9, 0
3, 0, Control_c, 9, 101, 0
3, 0, Control_c, 9, 100, 0
3, 0, Control_c, 9, 6, 12
3, 0, Control_c, 9, 10, 64
3, 0, Control_c, 9, 7, 100
3, 0, Pitch_bend_c, 9, 8192
3, 0, Program_c, 9, 0
3, 0, Control_c, 9, 10, 64
3, 0, Control_c, 9, 7, 100
3, 0, Pitch_bend_c, 9, 8192
3, 0, Program_c, 9, 0
3, 0, Control_c, 9, 101, 0
3, 0, Control_c, 9, 100, 0
3, 0, Control_c, 9, 6, 12
3, 0, Control_c, 9, 10, 64
3, 0, Control_c, 9, 7, 100
3, 0, Pitch_bend_c, 9, 8192
3, 0, Program_c, 9, 0
3, 0, Control_c, 9, 10, 64
3, 0, Control_c, 9, 7, 100
3, 0, Pitch_bend_c, 9, 8192
3, 0, Program_c, 9, 0
3, 6144, Note_on_c, 9, 36, 100
3, 6168, Note_off_c, 9, 36, 64
3, 6336, Note_on_c, 9, 40, 100
3, 6360, Note_off_c, 9, 40, 64
3, 6576, Note_on_c, 9, 36, 100
3, 6600, Note_off_c, 9, 36, 64
3, 6720, Note_on_c, 9, 40, 100
3, 6744, Note_off_c, 9, 40, 64
3, 6768, Note_on_c, 9, 36, 100
3, 6792, Note_off_c, 9, 36, 64
3, 6912, Note_on_c, 9, 40, 100
3, 6936, Note_off_c, 9, 40, 64
3, 7056, Note_on_c, 9, 40, 100
3, 7080, Note_off_c, 9, 40, 64
3, 7200, Note_on_c, 9, 40, 100
3, 7224, Note_off_c, 9, 40, 64
3, 7296, Note_on_c, 9, 36, 100
3, 7320, Note_off_c, 9, 36, 64
3, 7488, Note_on_c, 9, 40, 100
3, 7512, Note_off_c, 9, 40, 64
3, 7680, Note_on_c, 9, 36, 100
3, 7704, Note_off_c, 9, 36, 64
3, 7872, Note_on_c, 9, 40, 100
3, 7896, Note_off_c, 9, 40, 64
3, 7920, Note_on_c, 9, 36, 100
3, 7944, Note_off_c, 9, 36, 64
3, 8064, Note_on_c, 9, 40, 100
3, 8088, Note_off_c, 9, 40, 64
3, 8208, Note_on_c, 9, 40, 100
3, 8232, Note_off_c, 9, 40, 64
3, 8352, Note_on_c, 9, 40, 100
3, 8376, Note_off_c, 9, 40, 64
3, 8448, Note_on_c, 9, 40, 100
3, 8472, Note_off_c, 9, 40, 64
3, 8496, Note_on_c, 9, 40, 100
3, 8520, Note_off_c, 9, 40, 64
3, 8544, Note_on_c, 9, 40, 100
3, 8568, Note_off_c, 9, 40, 64
3, 8592, Note_on_c, 9, 40, 100
3, 8616, Note_off_c, 9, 40, 64
3, 8640, Note_on_c, 9, 40, 100
3, 8664, Note_off_c, 9, 40, 64
3, 8688, Note_on_c, 9, 40, 100
3, 8712, Note_off_c, 9, 40, 64
3, 8736, Note_on_c, 9, 40, 100
3, 8760, Note_off_c, 9, 40, 64
3, 8784, Note_on_c, 9, 40, 100
3, 8808, Note_off_c, 9, 40, 64
3, 8832, Note_on_c, 9, 40, 100
3, 8832, Note_on_c, 9, 37, 102
3, 8856, Note_off_c, 9, 37, 64
3, 8856, Note_off_c, 9, 40, 64
3, 8880, Note_on_c, 9, 40, 100
3, 8904, Note_off_c, 9, 40, 64
3, 8928, Note_on_c, 9, 40, 100
3, 8928, Note_on_c, 9, 42, 100
3, 8952, Note_off_c, 9, 42, 64
3, 8952, Note_off_c, 9, 40, 64
3, 8976, Note_on_c, 9, 40, 100
3, 8976, Note_on_c, 9, 42, 100
3, 9000, Note_off_c, 9, 42, 64
3, 9000, Note_off_c, 9, 40, 64
3, 9024, Note_on_c, 9, 40, 100
3, 9048, Note_off_c, 9, 40, 64
3, 9072, Note_on_c, 9, 40, 100
3, 9096, Note_off_c, 9, 40, 64
3, 9120, Note_on_c, 9, 40, 100
3, 9144, Note_off_c, 9, 40, 64
3, 9168, Note_on_c, 9, 40, 100
3, 9192, Note_off_c, 9, 40, 64
3, 9216, Note_on_c, 9, 42, 66
3, 9216, Note_on_c, 9, 36, 100
3, 9240, Note_off_c, 9, 36, 64
3, 9240, Note_off_c, 9, 42, 64
3, 9264, Note_on_c, 9, 42, 66
3, 9288, Note_off_c, 9, 42, 64
3, 9312, Note_on_c, 9, 42, 66
3, 9336, Note_off_c, 9, 42, 64
3, 9360, Note_on_c, 9, 42, 66
3, 9384, Note_off_c, 9, 42, 64
3, 9408, Note_on_c, 9, 42, 66
3, 9408, Note_on_c, 9, 40, 100
3, 9432, Note_off_c, 9, 40, 64
3, 9432, Note_off_c, 9, 42, 64
3, 9456, Note_on_c, 9, 42, 64
3, 9480, Note_off_c, 9, 42, 64
3, 9504, Note_on_c, 9, 42, 62
3, 9528, Note_off_c, 9, 42, 64
3, 9552, Note_on_c, 9, 42, 62
3, 9576, Note_off_c, 9, 42, 64
3, 9600, Note_on_c, 9, 42, 66
3, 9624, Note_off_c, 9, 42, 64
3, 9648, Note_on_c, 9, 42, 66
3, 9648, Note_on_c, 9, 36, 100
3, 9672, Note_off_c, 9, 36, 64
3, 9672, Note_off_c, 9, 42, 64
3, 9696, Note_on_c, 9, 42, 66
3, 9720, Note_off_c, 9, 42, 64
3, 9744, Note_on_c, 9, 42, 66
3, 9768, Note_off_c, 9, 42, 64
3, 9792, Note_on_c, 9, 42, 66
3, 9792, Note_on_c, 9, 40, 100
3, 9816, Note_off_c, 9, 40, 64
3, 9816, Note_off_c, 9, 42, 64
3, 9840, Note_on_c, 9, 42, 64
3, 9840, Note_on_c, 9, 36, 100
3, 9864, Note_off_c, 9, 36, 64
3, 9864, Note_off_c, 9, 42, 64
3, 9888, Note_on_c, 9, 42, 62
3, 9912, Note_off_c, 9, 42, 64
3, 9936, Note_on_c, 9, 42, 62
3, 9960, Note_off_c, 9, 42, 64
3, 9984, Note_on_c, 9, 42, 66
3, 9984, Note_on_c, 9, 40, 100
3, 10008, Note_off_c, 9, 40, 64
3, 10008, Note_off_c, 9, 42, 64
3, 10032, Note_on_c, 9, 42, 66
3, 10056, Note_off_c, 9, 42, 64
3, 10080, Note_on_c, 9, 42, 66
3, 10104, Note_off_c, 9, 42, 64
3, 10128, Note_on_c, 9, 42, 66
3, 10128, Note_on_c, 9, 40, 100
3, 10152, Note_off_c, 9, 40, 64
3, 10152, Note_off_c, 9, 42, 64
3, 10176, Note_on_c, 9, 42, 66
3, 10200, Note_off_c, 9, 42, 64
3, 10224, Note_on_c, 9, 42, 64
3, 10248, Note_off_c, 9, 42, 64
3, 10272, Note_on_c, 9, 42, 62
3, 10272, Note_on_c, 9, 40, 100
3, 10296, Note_off_c, 9, 40, 64
3, 10296, Note_off_c, 9, 42, 64
3, 10320, Note_on_c, 9, 42, 62
3, 10344, Note_off_c, 9, 42, 64
3, 10368, Note_on_c, 9, 42, 66
3, 10368, Note_on_c, 9, 36, 100
3, 10392, Note_off_c, 9, 36, 64
3, 10392, Note_off_c, 9, 42, 64
3, 10416, Note_on_c, 9, 42, 66
3, 10440, Note_off_c, 9, 42, 64
3, 10464, Note_on_c, 9, 42, 66
3, 10488, Note_off_c, 9, 42, 64
3, 10512, Note_on_c, 9, 42, 66
3, 10536, Note_off_c, 9, 42, 64
3, 10560, Note_on_c, 9, 42, 66
3, 10560, Note_on_c, 9, 40, 100
3, 10584, Note_off_c, 9, 40, 64
3, 10584, Note_off_c, 9, 42, 64
3, 10608, Note_on_c, 9, 42, 64
3, 10632, Note_off_c, 9, 42, 64
3, 10656, Note_on_c, 9, 42, 62
3, 10680, Note_off_c, 9, 42, 64
3, 10704, Note_on_c, 9, 42, 62
3, 10728, Note_off_c, 9, 42, 64
3, 10752, Note_on_c, 9, 42, 66
3, 10752, Note_on_c, 9, 36, 100
3, 10776, Note_off_c, 9, 36, 64
3, 10776, Note_off_c, 9, 42, 64
3, 10800, Note_on_c, 9, 42, 66
3, 10824, Note_off_c, 9, 42, 64
3, 10848, Note_on_c, 9, 42, 66
3, 10872, Note_off_c, 9, 42, 64
3, 10896, Note_on_c, 9, 42, 66
3, 10920, Note_off_c, 9, 42, 64
3, 10944, Note_on_c, 9, 42, 66
3, 10944, Note_on_c, 9, 40, 100
3, 10968, Note_off_c, 9, 40, 64
3, 10968, Note_off_c, 9, 42, 64
3, 10992, Note_on_c, 9, 42, 64
3, 10992, Note_on_c, 9, 36, 100
3, 11016, Note_off_c, 9, 36, 64
3, 11016, Note_off_c, 9, 42, 64
3, 11040, Note_on_c, 9, 42, 62
3, 11064, Note_off_c, 9, 42, 64
3, 11088, Note_on_c, 9, 42, 62
3, 11112, Note_off_c, 9, 42, 64
3, 11136, Note_on_c, 9, 42, 66
3, 11136, Note_on_c, 9, 40, 100
3, 11160, Note_off_c, 9, 40, 64
3, 11160, Note_off_c, 9, 42, 64
3, 11184, Note_on_c, 9, 42, 66
3, 11208, Note_off_c, 9, 42, 64
3, 11232, Note_on_c, 9, 42, 66
3, 11256, Note_off_c, 9, 42, 64
3, 11280, Note_on_c, 9, 42, 66
3, 11280, Note_on_c, 9, 40, 100
3, 11304, Note_off_c, 9, 40, 64
3, 11304, Note_off_c, 9, 42, 64
3, 11328, Note_on_c, 9, 42, 66
3, 11352, Note_off_c, 9, 42, 64
3, 11376, Note_on_c, 9, 42, 64
3, 11400, Note_off_c, 9, 42, 64
3, 11424, Note_on_c, 9, 42, 62
3, 11424, Note_on_c, 9, 40, 100
3, 11448, Note_off_c, 9, 40, 64
3, 11448, Note_off_c, 9, 42, 64
3, 11472, Note_on_c, 9, 42, 62
3, 11496, Note_off_c, 9, 42, 64
3, 11520, Note_on_c, 9, 42, 66
3, 11520, Note_on_c, 9, 40, 100
3, 11544, Note_off_c, 9, 40, 64
3, 11544, Note_off_c, 9, 42, 64
3, 11568, Note_on_c, 9, 42, 66
3, 11568, Note_on_c, 9, 40, 100
3, 11592, Note_off_c, 9, 40, 64
3, 11592, Note_off_c, 9, 42, 64
3, 11616, Note_on_c, 9, 42, 66
3, 11616, Note_on_c, 9, 40, 100
3, 11640, Note_off_c, 9, 40, 64
3, 11640, Note_off_c, 9, 42, 64
3, 11664, Note_on_c, 9, 42, 66
3, 11664, Note_on_c, 9, 40, 100
3, 11688, Note_off_c, 9, 40, 64
3, 11688, Note_off_c, 9, 42, 64
3, 11712, Note_on_c, 9, 42, 66
3, 11712, Note_on_c, 9, 40, 100
3, 11736, Note_off_c, 9, 40, 64
3, 11736, Note_off_c, 9, 42, 64
3, 11760, Note_on_c, 9, 42, 64
3, 11760, Note_on_c, 9, 40, 100
3, 11784, Note_off_c, 9, 40, 64
3, 11784, Note_off_c, 9, 42, 64
3, 11808, Note_on_c, 9, 42, 62
3, 11808, Note_on_c, 9, 40, 100
3, 11832, Note_off_c, 9, 40, 64
3, 11832, Note_off_c, 9, 42, 64
3, 11856, Note_on_c, 9, 42, 62
3, 11856, Note_on_c, 9, 40, 100
3, 11880, Note_off_c, 9, 40, 64
3, 11880, Note_off_c, 9, 42, 64
3, 11904, Note_on_c, 9, 42, 66
3, 11904, Note_on_c, 9, 40, 100
3, 11904, Note_on_c, 9, 37, 102
3, 11928, Note_off_c, 9, 37, 64
3, 11928, Note_off_c, 9, 40, 64
3, 11928, Note_off_c, 9, 42, 64
3, 11952, Note_on_c, 9, 42, 66
3, 11952, Note_on_c, 9, 40, 100
3, 11976, Note_off_c, 9, 40, 64
3, 11976, Note_off_c, 9, 42, 64
3, 12000, Note_on_c, 9, 42, 66
3, 12000, Note_on_c, 9, 40, 100
3, 12000, Note_on_c, 9, 42, 100
3, 12024, Note_off_c, 9, 42, 64
3, 12024, Note_off_c, 9, 40, 64
3, 12024, Note_off_c, 9, 42, 64
3, 12048, Note_on_c, 9, 42, 66
3, 12048, Note_on_c, 9, 40, 100
3, 12048, Note_on_c, 9, 42, 100
3, 12072, Note_off_c, 9, 42, 64
3, 12072, Note_off_c, 9, 42, 64
3, 12072, Note_off_c, 9, 40, 64
3, 12096, Note_on_c, 9, 42, 66
3, 12096, Note_on_c, 9, 40, 100
3, 12120, Note_off_c, 9, 40, 64
3, 12120, Note_off_c, 9, 42, 64
3, 12144, Note_on_c, 9, 42, 64
3, 12144, Note_on_c, 9, 40, 100
3, 12168, Note_off_c, 9, 40, 64
3, 12168, Note_off_c, 9, 42, 64
3, 12192, Note_on_c, 9, 42, 62
3, 12192, Note_on_c, 9, 40, 100
3, 12216, Note_off_c, 9, 40, 64
3, 12216, Note_off_c, 9, 42, 64
3, 12240, Note_on_c, 9, 40, 100
3, 12240, Note_on_c, 9, 42, 62
3, 12264, Note_off_c, 9, 42, 64
3, 12264, Note_off_c, 9, 40, 64
3, 12288, Note_on_c, 9, 36, 100
3, 12288, Note_on_c, 9, 42, 66
3, 12312, Note_off_c, 9, 42, 64
3, 12312, Note_off_c, 9, 36, 64
3, 12336, Note_on_c, 9, 42, 66
3, 12360, Note_off_c, 9, 42, 64
3, 12384, Note_on_c, 9, 42, 66
3, 12408, Note_off_c, 9, 42, 64
3, 12432, Note_on_c, 9, 42, 66
3, 12456, Note_off_c, 9, 42, 64
3, 12480, Note_on_c, 9, 40, 100
3, 12480, Note_on_c, 9, 42, 66
3, 12504, Note_off_c, 9, 42, 64
3, 12504, Note_off_c, 9, 40, 64
3, 12528, Note_on_c, 9, 42, 64
3, 12552, Note_off_c, 9, 42, 64
3, 12576, Note_on_c, 9, 42, 62
3, 12600, Note_off_c, 9, 42, 64
3, 12624, Note_on_c, 9, 42, 62
3, 12648, Note_off_c, 9, 42, 64
3, 12672, Note_on_c, 9, 42, 66
3, 12696, Note_off_c, 9, 42, 64
3, 12720, Note_on_c, 9, 36, 100
3, 12720, Note_on_c, 9, 42, 66
3, 12744, Note_off_c, 9, 42, 64
3, 12744, Note_off_c, 9, 36, 64
3, 12768, Note_on_c, 9, 42, 66
3, 12792, Note_off_c, 9, 42, 64
3, 12816, Note_on_c, 9, 42, 66
3, 12840, Note_off_c, 9, 42, 64
3, 12864, Note_on_c, 9, 40, 100
3, 12864, Note_on_c, 9, 42, 66
3, 12888, Note_off_c, 9, 42, 64
3, 12888, Note_off_c, 9, 40, 64
3, 12912, Note_on_c, 9, 36, 100
3, 12912, Note_on_c, 9, 42, 64
3, 12936, Note_off_c, 9, 42, 64
3, 12936, Note_off_c, 9, 36, 64
3, 12960, Note_on_c, 9, 42, 62
3, 12984, Note_off_c, 9, 42, 64
3, 13008, Note_on_c, 9, 42, 62
3, 13032, Note_off_c, 9, 42, 64
3, 13056, Note_on_c, 9, 40, 100
3, 13056, Note_on_c, 9, 42, 66
3, 13080, Note_off_c, 9, 42, 64
3, 13080, Note_off_c, 9, 40, 64
3, 13104, Note_on_c, 9, 42, 66
3, 13128, Note_off_c, 9, 42, 64
3, 13152, Note_on_c, 9, 42, 66
3, 13176, Note_off_c, 9, 42, 64
3, 13200, Note_on_c, 9, 40, 100
3, 13200, Note_on_c, 9, 42, 66
3, 13224, Note_off_c, 9, 42, 64
3, 13224, Note_off_c, 9, 40, 64
3, 13248, Note_on_c, 9, 42, 66
3, 13272, Note_off_c, 9, 42, 64
3, 13296, Note_on_c, 9, 42, 64
3, 13320, Note_off_c, 9, 42, 64
3, 13344, Note_on_c, 9, 40, 100
3, 13344, Note_on_c, 9, 42, 62
3, 13368, Note_off_c, 9, 42, 64
3, 13368, Note_off_c, 9, 40, 64
3, 13392, Note_on_c, 9, 42, 62
3, 13416, Note_off_c, 9, 42, 64
3, 13440, Note_on_c, 9, 36, 100
3, 13440, Note_on_c, 9, 42, 66
3, 13464, Note_off_c, 9, 42, 64
3, 13464, Note_off_c, 9, 36, 64
3, 13488, Note_on_c, 9, 42, 66
3, 13512, Note_off_c, 9, 42, 64
3, 13536, Note_on_c, 9, 42, 66
3, 13560, Note_off_c, 9, 42, 64
3, 13584, Note_on_c, 9, 42, 66
3, 13608, Note_off_c, 9, 42, 64
3, 13632, Note_on_c, 9, 40, 100
3, 13632, Note_on_c, 9, 42, 66
3, 13656, Note_off_c, 9, 42, 64
3, 13656, Note_off_c, 9, 40, 64
3, 13680, Note_on_c, 9, 42, 64
3, 13704, Note_off_c, 9, 42, 64
3, 13728, Note_on_c, 9, 42, 62
3, 13752, Note_off_c, 9, 42, 64
3, 13776, Note_on_c, 9, 42, 62
3, 13800, Note_off_c, 9, 42, 64
3, 13824, Note_on_c, 9, 36, 100
3, 13824, Note_on_c, 9, 42, 66
3, 13848, Note_off_c, 9, 42, 64
3, 13848, Note_off_c, 9, 36, 64
3, 13872, Note_on_c, 9, 42, 66
3, 13896, Note_off_c, 9, 42, 64
3, 13920, Note_on_c, 9, 42, 66
3, 13944, Note_off_c, 9, 42, 64
3, 13968, Note_on_c, 9, 42, 66
3, 13992, Note_off_c, 9, 42, 64
3, 14016, Note_on_c, 9, 40, 100
3, 14016, Note_on_c, 9, 42, 66
3, 14040, Note_off_c, 9, 42, 64
3, 14040, Note_off_c, 9, 40, 64
3, 14064, Note_on_c, 9, 36, 100
3, 14064, Note_on_c, 9, 42, 64
3, 14088, Note_off_c, 9, 42, 64
3, 14088, Note_off_c, 9, 36, 64
3, 14112, Note_on_c, 9, 42, 62
3, 14136, Note_off_c, 9, 42, 64
3, 14160, Note_on_c, 9, 42, 62
3, 14184, Note_off_c, 9, 42, 64
3, 14208, Note_on_c, 9, 40, 100
3, 14208, Note_on_c, 9, 42, 66
3, 14232, Note_off_c, 9, 42, 64
3, 14232, Note_off_c, 9, 40, 64
3, 14256, Note_on_c, 9, 42, 66
3, 14280, Note_off_c, 9, 42, 64
3, 14304, Note_on_c, 9, 42, 66
3, 14328, Note_off_c, 9, 42, 64
3, 14352, Note_on_c, 9, 40, 100
3, 14352, Note_on_c, 9, 42, 66
3, 14376, Note_off_c, 9, 42, 64
3, 14376, Note_off_c, 9, 40, 64
3, 14400, Note_on_c, 9, 42, 66
3, 14424, Note_off_c, 9, 42, 64
3, 14448, Note_on_c, 9, 42, 64
3, 14472, Note_off_c, 9, 42, 64
3, 14496, Note_on_c, 9, 40, 100
3, 14496, Note_on_c, 9, 42, 62
3, 14520, Note_off_c, 9, 42, 64
3, 14520, Note_off_c, 9, 40, 64
3, 14544, Note_on_c, 9, 42, 62
3, 14568, Note_off_c, 9, 42, 64
3, 14592, Note_on_c, 9, 40, 100
3, 14592, Note_on_c, 9, 42, 66
3, 14616, Note_off_c, 9, 42, 64
3, 14616, Note_off_c, 9, 40, 64
3, 14640, Note_on_c, 9, 40, 100
3, 14640, Note_on_c, 9, 42, 66
3, 14664, Note_off_c, 9, 42, 64
3, 14664, Note_off_c, 9, 40, 64
3, 14688, Note_on_c, 9, 40, 100
3, 14688, Note_on_c, 9, 42, 66
3, 14712, Note_off_c, 9, 42, 64
3, 14712, Note_off_c, 9, 40, 64
3, 14736, Note_on_c, 9, 40, 100
3, 14736, Note_on_c, 9, 42, 66
3, 14760, Note_off_c, 9, 42, 64
3, 14760, Note_off_c, 9, 40, 64
3, 14784, Note_on_c, 9, 40, 100
3, 14784, Note_on_c, 9, 42, 66
3, 14808, Note_off_c, 9, 42, 64
3, 14808, Note_off_c, 9, 40, 64
3, 14832, Note_on_c, 9, 40, 100
3, 14832, Note_on_c, 9, 42, 64
3, 14856, Note_off_c, 9, 42, 64
3, 14856, Note_off_c, 9, 40, 64
3, 14880, Note_on_c, 9, 40, 100
3, 14880, Note_on_c, 9, 42, 62
3, 14904, Note_off_c, 9, 42, 64
3, 14904, Note_off_c, 9, 40, 64
3, 14928, Note_on_c, 9, 40, 100
3, 14928, Note_on_c, 9, 42, 62
3, 14952, Note_off_c, 9, 42, 64
3, 14952, Note_off_c, 9, 40, 64
3, 14976, Note_on_c, 9, 40, 100
3, 14976, Note_on_c, 9, 37, 102
3, 14976, Note_on_c, 9, 42, 66
3, 15000, Note_off_c, 9, 42, 64
3, 15000, Note_off_c, 9, 37, 64
3, 15000, Note_off_c, 9, 40, 64
3, 15024, Note_on_c, 9, 40, 100
3, 15024, Note_on_c, 9, 42, 66
3, 15048, Note_off_c, 9, 42, 64
3, 15048, Note_off_c, 9, 40, 64
3, 15072, Note_on_c, 9, 40, 100
3, 15072, Note_on_c, 9, 42, 100
3, 15072, Note_on_c, 9, 42, 66
3, 15096, Note_off_c, 9, 42, 64
3, 15096, Note_off_c, 9, 40, 64
3, 15096, Note_off_c, 9, 42, 64
3, 15120, Note_on_c, 9, 40, 100
3, 15120, Note_on_c, 9, 42, 100
3, 15120, Note_on_c, 9, 42, 66
3, 15144, Note_off_c, 9, 42, 64
3, 15144, Note_off_c, 9, 42, 64
3, 15144, Note_off_c, 9, 40, 64
3, 15168, Note_on_c, 9, 40, 100
3, 15168, Note_on_c, 9, 42, 66
3, 15192, Note_off_c, 9, 42, 64
3, 15192, Note_off_c, 9, 40, 64
3, 15216, Note_on_c, 9, 40, 100
3, 15216, Note_on_c, 9, 42, 64
3, 15240, Note_off_c, 9, 42, 64
3, 15240, Note_off_c, 9, 40, 64
3, 15264, Note_on_c, 9, 40, 100
3, 15264, Note_on_c, 9, 42, 62
3, 15288, Note_off_c, 9, 42, 64
3, 15288, Note_off_c, 9, 40, 64
3, 15312, Note_on_c, 9, 40, 100
3, 15312, Note_on_c, 9, 42, 62
3, 15336, Note_off_c, 9, 42, 64
3, 15336, Note_off_c, 9, 40, 64
3, 15360, Note_on_c, 9, 36, 100
3, 15360, Note_on_c, 9, 42, 66
3, 15384, Note_off_c, 9, 42, 64
3, 15384, Note_off_c, 9, 36, 64
3, 15408, Note_on_c, 9, 42, 66
3, 15432, Note_off_c, 9, 42, 64
3, 15456, Note_on_c, 9, 42, 66
3, 15480, Note_off_c, 9, 42, 64
3, 15504, Note_on_c, 9, 42, 66
3, 15528, Note_off_c, 9, 42, 64
3, 15552, Note_on_c, 9, 40, 100
3, 15552, Note_on_c, 9, 42, 66
3, 15576, Note_off_c, 9, 42, 64
3, 15576, Note_off_c, 9, 40, 64
3, 15600, Note_on_c, 9, 42, 64
3, 15624, Note_off_c, 9, 42, 64
3, 15648, Note_on_c, 9, 42, 62
3, 15672, Note_off_c, 9, 42, 64
3, 15696, Note_on_c, 9, 42, 62
3, 15720, Note_off_c, 9, 42, 64
3, 15744, Note_on_c, 9, 42, 66
3, 15768, Note_off_c, 9, 42, 64
3, 15792, Note_on_c, 9, 36, 100
3, 15792, Note_on_c, 9, 42, 66
3, 15816, Note_off_c, 9, 42, 64
3, 15816, Note_off_c, 9, 36, 64
3, 15840, Note_on_c, 9, 42, 66
3, 15864, Note_off_c, 9, 42, 64
3, 15888, Note_on_c, 9, 42, 66
3, 15912, Note_off_c, 9, 42, 64
3, 15936, Note_on_c, 9, 40, 100
3, 15936, Note_on_c, 9, 42, 66
3, 15960, Note_off_c, 9, 42, 64
3, 15960, Note_off_c, 9, 40, 64
3, 15984, Note_on_c, 9, 36, 100
3, 15984, Note_on_c, 9, 42, 64
3, 16008, Note_off_c, 9, 42, 64
3, 16008, Note_off_c, 9, 36, 64
3, 16032, Note_on_c, 9, 42, 62
3, 16056, Note_off_c, 9, 42, 64
3, 16080, Note_on_c, 9, 42, 62
3, 16104, Note_off_c, 9, 42, 64
3, 16128, Note_on_c, 9, 40, 100
3, 16128, Note_on_c, 9, 42, 66
3, 16152, Note_off_c, 9, 42, 64
3, 16152, Note_off_c, 9, 40, 64
3, 16176, Note_on_c, 9, 42, 66
3, 16200, Note_off_c, 9, 42, 64
3, 16224, Note_on_c, 9, 42, 66
3, 16248, Note_off_c, 9, 42, 64
3, 16272, Note_on_c, 9, 40, 100
3, 16272, Note_on_c, 9, 42, 66
3, 16296, Note_off_c, 9, 42, 64
3, 16296, Note_off_c, 9, 40, 64
3, 16320, Note_on_c, 9, 42, 66
3, 16344, Note_off_c, 9, 42, 64
3, 16368, Note_on_c, 9, 42, 64
3, 16392, Note_off_c, 9, 42, 64
3, 16416, Note_on_c, 9, 40, 100
3, 16416, Note_on_c, 9, 42, 62
3, 16440, Note_off_c, 9, 42, 64
3, 16440, Note_off_c, 9, 40, 64
3, 16464, Note_on_c, 9, 42, 62
3, 16488, Note_off_c, 9, 42, 64
3, 16512, Note_on_c, 9, 36, 100
3, 16512, Note_on_c, 9, 42, 66
3, 16536, Note_off_c, 9, 42, 64
3, 16536, Note_off_c, 9, 36, 64
3, 16560, Note_on_c, 9, 42, 66
3, 16584, Note_off_c, 9, 42, 64
3, 16608, Note_on_c, 9, 42, 66
3, 16632, Note_off_c, 9, 42, 64
3, 16656, Note_on_c, 9, 42, 66
3, 16680, Note_off_c, 9, 42, 64
3, 16704, Note_on_c, 9, 40, 100
3, 16704, Note_on_c, 9, 42, 66
3, 16728, Note_off_c, 9, 42, 64
3, 16728, Note_off_c, 9, 40, 64
3, 16752, Note_on_c, 9, 42, 64
3, 16776, Note_off_c, 9, 42, 64
3, 16800, Note_on_c, 9, 42, 62
3, 16824, Note_off_c, 9, 42, 64
3, 16848, Note_on_c, 9, 42, 62
3, 16872, Note_off_c, 9, 42, 64
3, 16896, Note_on_c, 9, 36, 100
3, 16896, Note_on_c, 9, 42, 66
3, 16920, Note_off_c, 9, 42, 64
3, 16920, Note_off_c, 9, 36, 64
3, 16944, Note_on_c, 9, 42, 66
3, 16968, Note_off_c, 9, 42, 64
3, 16992, Note_on_c, 9, 42, 66
3, 17016, Note_off_c, 9, 42, 64
3, 17040, Note_on_c, 9, 42, 66
3, 17064, Note_off_c, 9, 42, 64
3, 17088, Note_on_c, 9, 40, 100
3, 17088, Note_on_c, 9, 42, 66
3, 17112, Note_off_c, 9, 42, 64
3, 17112, Note_off_c, 9, 40, 64
3, 17136, Note_on_c, 9, 36, 100
3, 17136, Note_on_c, 9, 42, 64
3, 17160, Note_off_c, 9, 42, 64
3, 17160, Note_off_c, 9, 36, 64
3, 17184, Note_on_c, 9, 42, 62
3, 17208, Note_off_c, 9, 42, 64
3, 17232, Note_on_c, 9, 42, 62
3, 17256, Note_off_c, 9, 42, 64
3, 17280, Note_on_c, 9, 40, 100
3, 17280, Note_on_c, 9, 42, 66
3, 17304, Note_off_c, 9, 42, 64
3, 17304, Note_off_c, 9, 40, 64
3, 17328, Note_on_c, 9, 42, 66
3, 17352, Note_off_c, 9, 42, 64
3, 17376, Note_on_c, 9, 42, 66
3, 17400, Note_off_c, 9, 42, 64
3, 17424, Note_on_c, 9, 40, 100
3, 17424, Note_on_c, 9, 42, 66
3, 17448, Note_off_c, 9, 42, 64
3, 17448, Note_off_c, 9, 40, 64
3, 17472, Note_on_c, 9, 42, 66
3, 17496, Note_off_c, 9, 42, 64
3, 17520, Note_on_c, 9, 42, 64
3, 17544, Note_off_c, 9, 42, 64
3, 17568, Note_on_c, 9, 40, 100
3, 17568, Note_on_c, 9, 42, 62
3, 17592, Note_off_c, 9, 42, 64
3, 17592, Note_off_c, 9, 40, 64
3, 17616, Note_on_c, 9, 42, 62
3, 17640, Note_off_c, 9, 42, 64
3, 17664, Note_on_c, 9, 40, 100
3, 17664, Note_on_c, 9, 42, 66
3, 17688, Note_off_c, 9, 42, 64
3, 17688, Note_off_c, 9, 40, 64
3, 17712, Note_on_c, 9, 40, 100
3, 17712, Note_on_c, 9, 42, 66
3, 17736, Note_off_c, 9, 42, 64
3, 17736, Note_off_c, 9, 40, 64
3, 17760, Note_on_c, 9, 40, 100
3, 17760, Note_on_c, 9, 42, 66
3, 17784, Note_off_c, 9, 42, 64
3, 17784, Note_off_c, 9, 40, 64
3, 17808, Note_on_c, 9, 40, 100
3, 17808, Note_on_c, 9, 42, 66
3, 17832, Note_off_c, 9, 42, 64
3, 17832, Note_off_c, 9, 40, 64
3, 17856, Note_on_c, 9, 40, 100
3, 17856, Note_on_c, 9, 42, 66
3, 17880, Note_off_c, 9, 42, 64
3, 17880, Note_off_c, 9, 40, 64
3, 17904, Note_on_c, 9, 40, 100
3, 17904, Note_on_c, 9, 42, 64
3, 17928, Note_off_c, 9, 42, 64
3, 17928, Note_off_c, 9, 40, 64
3, 17952, Note_on_c, 9, 40, 100
3, 17952, Note_on_c, 9, 42, 62
3, 17976, Note_off_c, 9, 42, 64
3, 17976, Note_off_c, 9, 40, 64
3, 18000, Note_on_c, 9, 40, 100
3, 18000, Note_on_c, 9, 42, 62
3, 18024, Note_off_c, 9, 42, 64
3, 18024, Note_off_c, 9, 40, 64
3, 18048, Note_on_c, 9, 40, 100
3, 18048, Note_on_c, 9, 37, 102
3, 18048, Note_on_c, 9, 42, 66
3, 18072, Note_off_c, 9, 42, 64
3, 18072, Note_off_c, 9, 37, 64
3, 18072, Note_off_c, 9, 40, 64
3, 18096, Note_on_c, 9, 40, 100
3, 18096, Note_on_c, 9, 42, 66
3, 18120, Note_off_c, 9, 42, 64
3, 18120, Note_off_c, 9, 40, 64
3, 18144, Note_on_c, 9, 40, 100
3, 18144, Note_on_c, 9, 42, 100
3, 18144, Note_on_c, 9, 42, 66
3, 18168, Note_off_c, 9, 42, 64
3, 18168, Note_off_c, 9, 42, 64
3, 18168, Note_off_c, 9, 40, 64
3, 18192, Note_on_c, 9, 40, 100
3, 18192, Note_on_c, 9, 42, 100
3, 18192, Note_on_c, 9, 42, 66
3, 18216, Note_off_c, 9, 42, 64
3, 18216, Note_off_c, 9, 42, 64
3, 18216, Note_off_c, 9, 40, 64
3, 18240, Note_on_c, 9, 40, 100
3, 18240, Note_on_c, 9, 42, 66
3, 18264, Note_off_c, 9, 42, 64
3, 18264, Note_off_c, 9, 40, 64
3, 18288, Note_on_c, 9, 40, 100
3, 18288, Note_on_c, 9, 42, 64
3, 18312, Note_off_c, 9, 42, 64
3, 18312, Note_off_c, 9, 40, 64
3, 18336, Note_on_c, 9, 40, 100
3, 18336, Note_on_c, 9, 42, 62
3, 18360, Note_off_c, 9, 42, 64
3, 18360, Note_off_c, 9, 40, 64
3, 18384, Note_on_c, 9, 40, 100
3, 18384, Note_on_c, 9, 42, 62
3, 18408, Note_off_c, 9, 42, 64
3, 18408, Note_off_c, 9, 40, 64
3, 18432, Note_on_c, 9, 36, 100
3, 18432, Note_on_c, 9, 42, 66
3, 18456, Note_off_c, 9, 42, 64
3, 18456, Note_off_c, 9, 36, 64
3, 18480, Note_on_c, 9, 42, 66
3, 18504, Note_off_c, 9, 42, 64
3, 18528, Note_on_c, 9, 42, 66
3, 18552, Note_off_c, 9, 42, 64
3, 18576, Note_on_c, 9, 42, 66
3, 18600, Note_off_c, 9, 42, 64
3, 18624, Note_on_c, 9, 40, 100
3, 18624, Note_on_c, 9, 42, 66
3, 18648, Note_off_c, 9, 42, 64
3, 18648, Note_off_c, 9, 40, 64
3, 18672, Note_on_c, 9, 42, 64
3, 18696, Note_off_c, 9, 42, 64
3, 18720, Note_on_c, 9, 42, 62
3, 18744, Note_off_c, 9, 42, 64
3, 18768, Note_on_c, 9, 42, 62
3, 18792, Note_off_c, 9, 42, 64
3, 18816, Note_on_c, 9, 42, 66
3, 18840, Note_off_c, 9, 42, 64
3, 18864, Note_on_c, 9, 36, 100
3, 18864, Note_on_c, 9, 42, 66
3, 18888, Note_off_c, 9, 42, 64
3, 18888, Note_off_c, 9, 36, 64
3, 18912, Note_on_c, 9, 42, 66
3, 18936, Note_off_c, 9, 42, 64
3, 18960, Note_on_c, 9, 42, 66
3, 18984, Note_off_c, 9, 42, 64
3, 19008, Note_on_c, 9, 40, 100
3, 19008, Note_on_c, 9, 42, 66
3, 19032, Note_off_c, 9, 42, 64
3, 19032, Note_off_c, 9, 40, 64
3, 19056, Note_on_c, 9, 36, 100
3, 19056, Note_on_c, 9, 42, 64
3, 19080, Note_off_c, 9, 42, 64
3, 19080, Note_off_c, 9, 36, 64
3, 19104, Note_on_c, 9, 42, 62
3, 19128, Note_off_c, 9, 42, 64
3, 19152, Note_on_c, 9, 42, 62
3, 19176, Note_off_c, 9, 42, 64
3, 19200, Note_on_c, 9, 40, 100
3, 19200, Note_on_c, 9, 42, 66
3, 19224, Note_off_c, 9, 42, 64
3, 19224, Note_off_c, 9, 40, 64
3, 19248, Note_on_c, 9, 42, 66
3, 19272, Note_off_c, 9, 42, 64
3, 19296, Note_on_c, 9, 42, 66
3, 19320, Note_off_c, 9, 42, 64
3, 19344, Note_on_c, 9, 40, 100
3, 19344, Note_on_c, 9, 42, 66
3, 19368, Note_off_c, 9, 42, 64
3, 19368, Note_off_c, 9, 40, 64
3, 19392, Note_on_c, 9, 42, 66
3, 19416, Note_off_c, 9, 42, 64
3, 19440, Note_on_c, 9, 42, 64
3, 19464, Note_off_c, 9, 42, 64
3, 19488, Note_on_c, 9, 40, 100
3, 19488, Note_on_c, 9, 42, 62
3, 19512, Note_off_c, 9, 42, 64
3, 19512, Note_off_c, 9, 40, 64
3, 19536, Note_on_c, 9, 42, 62
3, 19560, Note_off_c, 9, 42, 64
3, 19584, Note_on_c, 9, 36, 100
3, 19584, Note_on_c, 9, 42, 66
3, 19608, Note_off_c, 9, 42, 64
3, 19608, Note_off_c, 9, 36, 64
3, 19632, Note_on_c, 9, 42, 66
3, 19656, Note_off_c, 9, 42, 64
3, 19680, Note_on_c, 9, 42, 66
3, 19704, Note_off_c, 9, 42, 64
3, 19728, Note_on_c, 9, 42, 66
3, 19752, Note_off_c, 9, 42, 64
3, 19776, Note_on_c, 9, 40, 100
3, 19776, Note_on_c, 9, 42, 66
3, 19800, Note_off_c, 9, 42, 64
3, 19800, Note_off_c, 9, 40, 64
3, 19824, Note_on_c, 9, 42, 64
3, 19848, Note_off_c, 9, 42, 64
3, 19872, Note_on_c, 9, 42, 62
3, 19896, Note_off_c, 9, 42, 64
3, 19920, Note_on_c, 9, 42, 62
3, 19944, Note_off_c, 9, 42, 64
3, 19968, Note_on_c, 9, 36, 100
3, 19968, Note_on_c, 9, 42, 66
3, 19992, Note_off_c, 9, 42, 64
3, 19992, Note_off_c, 9, 36, 64
3, 20016, Note_on_c, 9, 42, 66
3, 20040, Note_off_c, 9, 42, 64
3, 20064, Note_on_c, 9, 42, 66
3, 20088, Note_off_c, 9, 42, 64
3, 20112, Note_on_c, 9, 42, 66
3, 20136, Note_off_c, 9, 42, 64
3, 20160, Note_on_c, 9, 40, 100
3, 20160, Note_on_c, 9, 42, 66
3, 20184, Note_off_c, 9, 42, 64
3, 20184, Note_off_c, 9, 40, 64
3, 20208, Note_on_c, 9, 36, 100
3, 20208, Note_on_c, 9, 42, 64
3, 20232, Note_off_c, 9, 42, 64
3, 20232, Note_off_c, 9, 36, 64
3, 20256, Note_on_c, 9, 42, 62
3, 20280, Note_off_c, 9, 42, 64
3, 20304, Note_on_c, 9, 42, 62
3, 20328, Note_off_c, 9, 42, 64
3, 20352, Note_on_c, 9, 40, 100
3, 20352, Note_on_c, 9, 42, 66
3, 20376, Note_off_c, 9, 42, 64
3, 20376, Note_off_c, 9, 40, 64
3, 20400, Note_on_c, 9, 42, 66
3, 20424, Note_off_c, 9, 42, 64
3, 20448, Note_on_c, 9, 42, 66
3, 20472, Note_off_c, 9, 42, 64
3, 20496, Note_on_c, 9, 40, 100
3, 20496, Note_on_c, 9, 42, 66
3, 20520, Note_off_c, 9, 42, 64
3, 20520, Note_off_c, 9, 40, 64
3, 20544, Note_on_c, 9, 42, 66
3, 20568, Note_off_c, 9, 42, 64
3, 20592, Note_on_c, 9, 42, 64
3, 20616, Note_off_c, 9, 42, 64
3, 20640, Note_on_c, 9, 40, 100
3, 20640, Note_on_c, 9, 42, 62
3, 20664, Note_off_c, 9, 42, 64
3, 20664, Note_off_c, 9, 40, 64
3, 20688, Note_on_c, 9, 42, 62
3, 20712, Note_off_c, 9, 42, 64
3, 20736, Note_on_c, 9, 40, 100
3, 20736, Note_on_c, 9, 42, 66
3, 20760, Note_off_c, 9, 42, 64
3, 20760, Note_off_c, 9, 40, 64
3, 20784, Note_on_c, 9, 40, 100
3, 20784, Note_on_c, 9, 42, 66
3, 20808, Note_off_c, 9, 42, 64
3, 20808, Note_off_c, 9, 40, 64
3, 20832, Note_on_c, 9, 40, 100
3, 20832, Note_on_c, 9, 42, 66
3, 20856, Note_off_c, 9, 42, 64
3, 20856, Note_off_c, 9, 40, 64
3, 20880, Note_on_c, 9, 40, 100
3, 20880, Note_on_c, 9, 42, 66
3, 20904, Note_off_c, 9, 42, 64
3, 20904, Note_off_c, 9, 40, 64
3, 20928, Note_on_c, 9, 40, 100
3, 20928, Note_on_c, 9, 42, 66
3, 20952, Note_off_c, 9, 42, 64
3, 20952, Note_off_c, 9, 40, 64
3, 20976, Note_on_c, 9, 40, 100
3, 20976, Note_on_c, 9, 42, 64
3, 21000, Note_off_c, 9, 42, 64
3, 21000, Note_off_c, 9, 40, 64
3, 21024, Note_on_c, 9, 40, 100
3, 21024, Note_on_c, 9, 42, 62
3, 21048, Note_off_c, 9, 42, 64
3, 21048, Note_off_c, 9, 40, 64
3, 21072, Note_on_c, 9, 40, 100
3, 21072, Note_on_c, 9, 42, 62
3, 21096, Note_off_c, 9, 42, 64
3, 21096, Note_off_c, 9, 40, 64
3, 21120, Note_on_c, 9, 40, 100
3, 21120, Note_on_c, 9, 37, 102
3, 21120, Note_on_c, 9, 42, 66
3, 21144, Note_off_c, 9, 42, 64
3, 21144, Note_off_c, 9, 37, 64
3, 21144, Note_off_c, 9, 40, 64
3, 21168, Note_on_c, 9, 40, 100
3, 21168, Note_on_c, 9, 42, 66
3, 21192, Note_off_c, 9, 42, 64
3, 21192, Note_off_c, 9, 40, 64
3, 21216, Note_on_c, 9, 40, 100
3, 21216, Note_on_c, 9, 42, 100
3, 21216, Note_on_c, 9, 42, 66
3, 21240, Note_off_c, 9, 42, 64
3, 21240, Note_off_c, 9, 42, 64
3, 21240, Note_off_c, 9, 40, 64
3, 21264, Note_on_c, 9, 40, 100
3, 21264, Note_on_c, 9, 42, 100
3, 21264, Note_on_c, 9, 42, 66
3, 21288, Note_off_c, 9, 42, 64
3, 21288, Note_off_c, 9, 40, 64
3, 21288, Note_off_c, 9, 42, 64
3, 21312, Note_on_c, 9, 40, 100
3, 21312, Note_on_c, 9, 42, 66
3, 21336, Note_off_c, 9, 42, 64
3, 21336, Note_off_c, 9, 40, 64
3, 21360, Note_on_c, 9, 40, 100
3, 21360, Note_on_c, 9, 42, 64
3, 21384, Note_off_c, 9, 42, 64
3, 21384, Note_off_c, 9, 40, 64
3, 21408, Note_on_c, 9, 40, 100
3, 21408, Note_on_c, 9, 42, 62
3, 21432, Note_off_c, 9, 42, 64
3, 21432, Note_off_c, 9, 40, 64
3, 21456, Note_on_c, 9, 40, 100
3, 21456, Note_on_c, 9, 42, 62
3, 21480, Note_off_c, 9, 42, 64
3, 21480, Note_off_c, 9, 40, 64
3, 21504, Note_on_c, 9, 36, 100
3, 21504, Note_on_c, 9, 42, 66
3, 21528, Note_off_c, 9, 42, 64
3, 21528, Note_off_c, 9, 36, 64
3, 21552, Note_on_c, 9, 42, 66
3, 21576, Note_off_c, 9, 42, 64
3, 21600, Note_on_c, 9, 42, 66
3, 21624, Note_off_c, 9, 42, 64
3, 21648, Note_on_c, 9, 42, 66
3, 21672, Note_off_c, 9, 42, 64
3, 21696, Note_on_c, 9, 40, 100
3, 21696, Note_on_c, 9, 42, 66
3, 21720, Note_off_c, 9, 42, 64
3, 21720, Note_off_c, 9, 40, 64
3, 21744, Note_on_c, 9, 42, 64
3, 21768, Note_off_c, 9, 42, 64
3, 21792, Note_on_c, 9, 42, 62
3, 21816, Note_off_c, 9, 42, 64
3, 21840, Note_on_c, 9, 42, 62
3, 21864, Note_off_c, 9, 42, 64
3, 21888, Note_on_c, 9, 42, 66
3, 21912, Note_off_c, 9, 42, 64
3, 21936, Note_on_c, 9, 36, 100
3, 21936, Note_on_c, 9, 42, 66
3, 21960, Note_off_c, 9, 42, 64
3, 21960, Note_off_c, 9, 36, 64
3, 21984, Note_on_c, 9, 42, 66
3, 22008, Note_off_c, 9, 42, 64
3, 22032, Note_on_c, 9, 42, 66
3, 22056, Note_off_c, 9, 42, 64
3, 22080, Note_on_c, 9, 40, 100
3, 22080, Note_on_c, 9, 42, 66
3, 22104, Note_off_c, 9, 42, 64
3, 22104, Note_off_c, 9, 40, 64
3, 22128, Note_on_c, 9, 36, 100
3, 22128, Note_on_c, 9, 42, 64
3, 22152, Note_off_c, 9, 42, 64
3, 22152, Note_off_c, 9, 36, 64
3, 22176, Note_on_c, 9, 42, 62
3, 22200, Note_off_c, 9, 42, 64
3, 22224, Note_on_c, 9, 42, 62
3, 22248, Note_off_c, 9, 42, 64
3, 22272, Note_on_c, 9, 40, 100
3, 22272, Note_on_c, 9, 42, 66
3, 22296, Note_off_c, 9, 42, 64
3, 22296, Note_off_c, 9, 40, 64
3, 22320, Note_on_c, 9, 42, 66
3, 22344, Note_off_c, 9, 42, 64
3, 22368, Note_on_c, 9, 42, 66
3, 22392, Note_off_c, 9, 42, 64
3, 22416, Note_on_c, 9, 40, 100
3, 22416, Note_on_c, 9, 42, 66
3, 22440, Note_off_c, 9, 42, 64
3, 22440, Note_off_c, 9, 40, 64
3, 22464, Note_on_c, 9, 42, 66
3, 22488, Note_off_c, 9, 42, 64
3, 22512, Note_on_c, 9, 42, 64
3, 22536, Note_off_c, 9, 42, 64
3, 22560, Note_on_c, 9, 40, 100
3, 22560, Note_on_c, 9, 42, 62
3, 22584, Note_off_c, 9, 42, 64
3, 22584, Note_off_c, 9, 40, 64
3, 22608, Note_on_c, 9, 42, 62
3, 22632, Note_off_c, 9, 42, 64
3, 22656, Note_on_c, 9, 36, 100
3, 22656, Note_on_c, 9, 42, 66
3, 22680, Note_off_c, 9, 42, 64
3, 22680, Note_off_c, 9, 36, 64
3, 22704, Note_on_c, 9, 42, 66
3, 22728, Note_off_c, 9, 42, 64
3, 22752, Note_on_c, 9, 42, 66
3, 22776, Note_off_c, 9, 42, 64
3, 22800, Note_on_c, 9, 42, 66
3, 22824, Note_off_c, 9, 42, 64
3, 22848, Note_on_c, 9, 40, 100
3, 22848, Note_on_c, 9, 42, 66
3, 22872, Note_off_c, 9, 42, 64
3, 22872, Note_off_c, 9, 40, 64
3, 22896, Note_on_c, 9, 42, 64
3, 22920, Note_off_c, 9, 42, 64
3, 22944, Note_on_c, 9, 42, 62
3, 22968, Note_off_c, 9, 42, 64
3, 22992, Note_on_c, 9, 42, 62
3, 23016, Note_off_c, 9, 42, 64
3, 23040, Note_on_c, 9, 36, 100
3, 23040, Note_on_c, 9, 42, 66
3, 23064, Note_off_c, 9, 42, 64
3, 23064, Note_off_c, 9, 36, 64
3, 23088, Note_on_c, 9, 42, 66
3, 23112, Note_off_c, 9, 42, 64
3, 23136, Note_on_c, 9, 42, 66
3, 23160, Note_off_c, 9, 42, 64
3, 23184, Note_on_c, 9, 42, 66
3, 23208, Note_off_c, 9, 42, 64
3, 23232, Note_on_c, 9, 40, 100
3, 23232, Note_on_c, 9, 42, 66
3, 23256, Note_off_c, 9, 42, 64
3, 23256, Note_off_c, 9, 40, 64
3, 23280, Note_on_c, 9, 36, 100
3, 23280, Note_on_c, 9, 42, 64
3, 23304, Note_off_c, 9, 42, 64
3, 23304, Note_off_c, 9, 36, 64
3, 23328, Note_on_c, 9, 42, 62
3, 23352, Note_off_c, 9, 42, 64
3, 23376, Note_on_c, 9, 42, 62
3, 23400, Note_off_c, 9, 42, 64
3, 23424, Note_on_c, 9, 40, 100
3, 23424, Note_on_c, 9, 42, 66
3, 23448, Note_off_c, 9, 42, 64
3, 23448, Note_off_c, 9, 40, 64
3, 23472, Note_on_c, 9, 42, 66
3, 23496, Note_off_c, 9, 42, 64
3, 23520, Note_on_c, 9, 42, 66
3, 23544, Note_off_c, 9, 42, 64
3, 23568, Note_on_c, 9, 40, 100
3, 23568, Note_on_c, 9, 42, 66
3, 23592, Note_off_c, 9, 42, 64
3, 23592, Note_off_c, 9, 40, 64
3, 23616, Note_on_c, 9, 42, 66
3, 23640, Note_off_c, 9, 42, 64
3, 23664, Note_on_c, 9, 42, 64
3, 23688, Note_off_c, 9, 42, 64
3, 23712, Note_on_c, 9, 40, 100
3, 23712, Note_on_c, 9, 42, 62
3, 23736, Note_off_c, 9, 42, 64
3, 23736, Note_off_c, 9, 40, 64
3, 23760, Note_on_c, 9, 42, 62
3, 23784, Note_off_c, 9, 42, 64
3, 23808, Note_on_c, 9, 40, 100
3, 23808, Note_on_c, 9, 42, 66
3, 23832, Note_off_c, 9, 42, 64
3, 23832, Note_off_c, 9, 40, 64
3, 23856, Note_on_c, 9, 40, 100
3, 23856, Note_on_c, 9, 42, 66
3, 23880, Note_off_c, 9, 42, 64
3, 23880, Note_off_c, 9, 40, 64
3, 23904, Note_on_c, 9, 40, 100
3, 23904, Note_on_c, 9, 42, 66
3, 23928, Note_off_c, 9, 42, 64
3, 23928, Note_off_c, 9, 40, 64
3, 23952, Note_on_c, 9, 40, 100
3, 23952, Note_on_c, 9, 42, 66
3, 23976, Note_off_c, 9, 42, 64
3, 23976, Note_off_c, 9, 40, 64
3, 24000, Note_on_c, 9, 40, 100
3, 24000, Note_on_c, 9, 42, 66
3, 24024, Note_off_c, 9, 42, 64
3, 24024, Note_off_c, 9, 40, 64
3, 24048, Note_on_c, 9, 40, 100
3, 24048, Note_on_c, 9, 42, 64
3, 24072, Note_off_c, 9, 42, 64
3, 24072, Note_off_c, 9, 40, 64
3, 24096, Note_on_c, 9, 40, 100
3, 24096, Note_on_c, 9, 42, 62
3, 24120, Note_off_c, 9, 42, 64
3, 24120, Note_off_c, 9, 40, 64
3, 24144, Note_on_c, 9, 40, 100
3, 24144, Note_on_c, 9, 42, 62
3, 24168, Note_off_c, 9, 42, 64
3, 24168, Note_off_c, 9, 40, 64
3, 24192, Note_on_c, 9, 40, 100
3, 24192, Note_on_c, 9, 37, 102
3, 24192, Note_on_c, 9, 42, 66
3, 24216, Note_off_c, 9, 42, 64
3, 24216, Note_off_c, 9, 37, 64
3, 24216, Note_off_c, 9, 40, 64
3, 24240, Note_on_c, 9, 40, 100
3, 24240, Note_on_c, 9, 42, 66
3, 24264, Note_off_c, 9, 42, 64
3, 24264, Note_off_c, 9, 40, 64
3, 24288, Note_on_c, 9, 40, 100
3, 24288, Note_on_c, 9, 42, 100
3, 24288, Note_on_c, 9, 42, 66
3, 24312, Note_off_c, 9, 42, 64
3, 24312, Note_off_c, 9, 40, 64
3, 24312, Note_off_c, 9, 42, 64
3, 24336, Note_on_c, 9, 40, 100
3, 24336, Note_on_c, 9, 42, 100
3, 24336, Note_on_c, 9, 42, 66
3, 24360, Note_off_c, 9, 42, 64
3, 24360, Note_off_c, 9, 42, 64
3, 24360, Note_off_c, 9, 40, 64
3, 24384, Note_on_c, 9, 40, 100
3, 24384, Note_on_c, 9, 42, 66
3, 24408, Note_off_c, 9, 42, 64
3, 24408, Note_off_c, 9, 40, 64
3, 24432, Note_on_c, 9, 40, 100
3, 24432, Note_on_c, 9, 42, 64
3, 24456, Note_off_c, 9, 42, 64
3, 24456, Note_off_c, 9, 40, 64
3, 24480, Note_on_c, 9, 40, 100
3, 24480, Note_on_c, 9, 42, 62
3, 24504, Note_off_c, 9, 42, 64
3, 24504, Note_off_c, 9, 40, 64
3, 24528, Note_on_c, 9, 40, 100
3, 24528, Note_on_c, 9, 42, 62
3, 24552, Note_off_c, 9, 42, 64
3, 24552, Note_off_c, 9, 40, 64
3, 24576, Note_on_c, 9, 36, 100
3, 24576, Note_on_c, 9, 42, 66
3, 24600, Note_off_c, 9, 42, 64
3, 24600, Note_off_c, 9, 36, 64
3, 24624, Note_on_c, 9, 42, 66
3, 24648, Note_off_c, 9, 42, 64
3, 24672, Note_on_c, 9, 42, 66
3, 24696, Note_off_c, 9, 42, 64
3, 24720, Note_on_c, 9, 42, 66
3, 24744, Note_off_c, 9, 42, 64
3, 24768, Note_on_c, 9, 40, 100
3, 24768, Note_on_c, 9, 42, 66
3, 24792, Note_off_c, 9, 42, 64
3, 24792, Note_off_c, 9, 40, 64
3, 24816, Note_on_c, 9, 42, 64
3, 24840, Note_off_c, 9, 42, 64
3, 24864, Note_on_c, 9, 42, 62
3, 24888, Note_off_c, 9, 42, 64
3, 24912, Note_on_c, 9, 42, 62
3, 24936, Note_off_c, 9, 42, 64
3, 24960, Note_on_c, 9, 42, 66
3, 24984, Note_off_c, 9, 42, 64
3, 25008, Note_on_c, 9, 36, 100
3, 25008, Note_on_c, 9, 42, 66
3, 25032, Note_off_c, 9, 42, 64
3, 25032, Note_off_c, 9, 36, 64
3, 25056, Note_on_c, 9, 42, 66
3, 25080, Note_off_c, 9, 42, 64
3, 25104, Note_on_c, 9, 42, 66
3, 25128, Note_off_c, 9, 42, 64
3, 25152, Note_on_c, 9, 40, 100
3, 25152, Note_on_c, 9, 42, 66
3, 25176, Note_off_c, 9, 42, 64
3, 25176, Note_off_c, 9, 40, 64
3, 25200, Note_on_c, 9, 36, 100
3, 25200, Note_on_c, 9, 42, 64
3, 25224, Note_off_c, 9, 42, 64
3, 25224, Note_off_c, 9, 36, 64
3, 25248, Note_on_c, 9, 42, 62
3, 25272, Note_off_c, 9, 42, 64
3, 25296, Note_on_c, 9, 42, 62
3, 25320, Note_off_c, 9, 42, 64
3, 25344, Note_on_c, 9, 40, 100
3, 25344, Note_on_c, 9, 42, 66
3, 25368, Note_off_c, 9, 42, 64
3, 25368, Note_off_c, 9, 40, 64
3, 25392, Note_on_c, 9, 42, 66
3, 25416, Note_off_c, 9, 42, 64
3, 25440, Note_on_c, 9, 42, 66
3, 25464, Note_off_c, 9, 42, 64
3, 25488, Note_on_c, 9, 40, 100
3, 25488, Note_on_c, 9, 42, 66
3, 25512, Note_off_c, 9, 42, 64
3, 25512, Note_off_c, 9, 40, 64
3, 25536, Note_on_c, 9, 42, 66
3, 25560, Note_off_c, 9, 42, 64
3, 25584, Note_on_c, 9, 42, 64
3, 25608, Note_off_c, 9, 42, 64
3, 25632, Note_on_c, 9, 40, 100
3, 25632, Note_on_c, 9, 42, 62
3, 25656, Note_off_c, 9, 42, 64
3, 25656, Note_off_c, 9, 40, 64
3, 25680, Note_on_c, 9, 42, 62
3, 25704, Note_off_c, 9, 42, 64
3, 25728, Note_on_c, 9, 36, 100
3, 25728, Note_on_c, 9, 42, 66
3, 25752, Note_off_c, 9, 42, 64
3, 25752, Note_off_c, 9, 36, 64
3, 25776, Note_on_c, 9, 42, 66
3, 25800, Note_off_c, 9, 42, 64
3, 25824, Note_on_c, 9, 42, 66
3, 25848, Note_off_c, 9, 42, 64
3, 25872, Note_on_c, 9, 42, 66
3, 25896, Note_off_c, 9, 42, 64
3, 25920, Note_on_c, 9, 40, 100
3, 25920, Note_on_c, 9, 42, 66
3, 25944, Note_off_c, 9, 42, 64
3, 25944, Note_off_c, 9, 40, 64
3, 25968, Note_on_c, 9, 42, 64
3, 25992, Note_off_c, 9, 42, 64
3, 26016, Note_on_c, 9, 42, 62
3, 26040, Note_off_c, 9, 42, 64
3, 26064, Note_on_c, 9, 42, 62
3, 26088, Note_off_c, 9, 42, 64
3, 26112, Note_on_c, 9, 36, 100
3, 26112, Note_on_c, 9, 42, 66
3, 26136, Note_off_c, 9, 42, 64
3, 26136, Note_off_c, 9, 36, 64
3, 26160, Note_on_c, 9, 42, 66
3, 26184, Note_off_c, 9, 42, 64
3, 26208, Note_on_c, 9, 42, 66
3, 26232, Note_off_c, 9, 42, 64
3, 26256, Note_on_c, 9, 42, 66
3, 26280, Note_off_c, 9, 42, 64
3, 26304, Note_on_c, 9, 40, 100
3, 26304, Note_on_c, 9, 42, 66
3, 26328, Note_off_c, 9, 42, 64
3, 26328, Note_off_c, 9, 40, 64
3, 26352, Note_on_c, 9, 36, 100
3, 26352, Note_on_c, 9, 42, 64
3, 26376, Note_off_c, 9, 42, 64
3, 26376, Note_off_c, 9, 36, 64
3, 26400, Note_on_c, 9, 42, 62
3, 26424, Note_off_c, 9, 42, 64
3, 26448, Note_on_c, 9, 42, 62
3, 26472, Note_off_c, 9, 42, 64
3, 26496, Note_on_c, 9, 40, 100
3, 26496, Note_on_c, 9, 42, 66
3, 26520, Note_off_c, 9, 42, 64
3, 26520, Note_off_c, 9, 40, 64
3, 26544, Note_on_c, 9, 42, 66
3, 26568, Note_off_c, 9, 42, 64
3, 26592, Note_on_c, 9, 42, 66
3, 26616, Note_off_c, 9, 42, 64
3, 26640, Note_on_c, 9, 40, 100
3, 26640, Note_on_c, 9, 42, 66
3, 26664, Note_off_c, 9, 42, 64
3, 26664, Note_off_c, 9, 40, 64
3, 26688, Note_on_c, 9, 42, 66
3, 26712, Note_off_c, 9, 42, 64
3, 26736, Note_on_c, 9, 42, 64
3, 26760, Note_off_c, 9, 42, 64
3, 26784, Note_on_c, 9, 40, 100
3, 26784, Note_on_c, 9, 42, 62
3, 26808, Note_off_c, 9, 42, 64
3, 26808, Note_off_c, 9, 40, 64
3, 26832, Note_on_c, 9, 42, 62
3, 26856, Note_off_c, 9, 42, 64
3, 26880, Note_on_c, 9, 40, 100
3, 26880, Note_on_c, 9, 42, 66
3, 26904, Note_off_c, 9, 42, 64
3, 26904, Note_off_c, 9, 40, 64
3, 26928, Note_on_c, 9, 40, 100
3, 26928, Note_on_c, 9, 42, 66
3, 26952, Note_off_c, 9, 42, 64
3, 26952, Note_off_c, 9, 40, 64
3, 26976, Note_on_c, 9, 40, 100
3, 26976, Note_on_c, 9, 42, 66
3, 27000, Note_off_c, 9, 42, 64
3, 27000, Note_off_c, 9, 40, 64
3, 27024, Note_on_c, 9, 40, 100
3, 27024, Note_on_c, 9, 42, 66
3, 27048, Note_off_c, 9, 42, 64
3, 27048, Note_off_c, 9, 40, 64
3, 27072, Note_on_c, 9, 40, 100
3, 27072, Note_on_c, 9, 42, 66
3, 27096, Note_off_c, 9, 42, 64
3, 27096, Note_off_c, 9, 40, 64
3, 27120, Note_on_c, 9, 40, 100
3, 27120, Note_on_c, 9, 42, 64
3, 27144, Note_off_c, 9, 42, 64
3, 27144, Note_off_c, 9, 40, 64
3, 27168, Note_on_c, 9, 40, 100
3, 27168, Note_on_c, 9, 42, 62
3, 27192, Note_off_c, 9, 42, 64
3, 27192, Note_off_c, 9, 40, 64
3, 27216, Note_on_c, 9, 40, 100
3, 27216, Note_on_c, 9, 42, 62
3, 27240, Note_off_c, 9, 42, 64
3, 27240, Note_off_c, 9, 40, 64
3, 27264, Note_on_c, 9, 40, 100
3, 27264, Note_on_c, 9, 37, 102
3, 27264, Note_on_c, 9, 42, 66
3, 27288, Note_off_c, 9, 42, 64
3, 27288, Note_off_c, 9, 37, 64
3, 27288, Note_off_c, 9, 40, 64
3, 27312, Note_on_c, 9, 40, 100
3, 27312, Note_on_c, 9, 42, 66
3, 27336, Note_off_c, 9, 42, 64
3, 27336, Note_off_c, 9, 40, 64
3, 27360, Note_on_c, 9, 40, 100
3, 27360, Note_on_c, 9, 42, 100
3, 27360, Note_on_c, 9, 42, 66
3, 27384, Note_off_c, 9, 42, 64
3, 27384, Note_off_c, 9, 42, 64
3, 27384, Note_off_c, 9, 40, 64
3, 27408, Note_on_c, 9, 40, 100
3, 27408, Note_on_c, 9, 42, 100
3, 27408, Note_on_c, 9, 42, 66
3, 27432, Note_off_c, 9, 42, 64
3, 27432, Note_off_c, 9, 40, 64
3, 27432, Note_off_c, 9, 42, 64
3, 27456, Note_on_c, 9, 40, 100
3, 27456, Note_on_c, 9, 42, 66
3, 27480, Note_off_c, 9, 42, 64
3, 27480, Note_off_c, 9, 40, 64
3, 27504, Note_on_c, 9, 40, 100
3, 27504, Note_on_c, 9, 42, 64
3, 27528, Note_off_c, 9, 42, 64
3, 27528, Note_off_c, 9, 40, 64
3, 27552, Note_on_c, 9, 40, 100
3, 27552, Note_on_c, 9, 42, 62
3, 27576, Note_off_c, 9, 42, 64
3, 27576, Note_off_c, 9, 40, 64
3, 27600, Note_on_c, 9, 40, 100
3, 27600, Note_on_c, 9, 42, 62
3, 27624, Note_off_c, 9, 42, 64
3, 27624, Note_off_c, 9, 40, 64
3, 27648, Note_on_c, 9, 36, 100
3, 27672, Note_off_c, 9, 36, 64
3, 27840, Note_on_c, 9, 40, 100
3, 27864, Note_off_c, 9, 40, 64
3, 28080, Note_on_c, 9, 36, 100
3, 28104, Note_off_c, 9, 36, 64
3, 28224, Note_on_c, 9, 40, 100
3, 28248, Note_off_c, 9, 40, 64
3, 28272, Note_on_c, 9, 36, 100
3, 28296, Note_off_c, 9, 36, 64
3, 28416, Note_on_c, 9, 40, 100
3, 28440, Note_off_c, 9, 40, 64
3, 28560, Note_on_c, 9, 40, 100
3, 28584, Note_off_c, 9, 40, 64
3, 28704, Note_on_c, 9, 40, 100
3, 28728, Note_off_c, 9, 40, 64
3, 28800, Note_on_c, 9, 36, 100
3, 28824, Note_off_c, 9, 36, 64
3, 28992, Note_on_c, 9, 40, 100
3, 29016, Note_off_c, 9, 40, 64
3, 29184, Note_on_c, 9, 36, 100
3, 29208, Note_off_c, 9, 36, 64
3, 29376, Note_on_c, 9, 40, 100
3, 29400, Note_off_c, 9, 40, 64
3, 29424, Note_on_c, 9, 36, 100
3, 29448, Note_off_c, 9, 36, 64
3, 29568, Note_on_c, 9, 40, 100
3, 29592, Note_off_c, 9, 40, 64
3, 29712, Note_on_c, 9, 40, 100
3, 29736, Note_off_c, 9, 40, 64
3, 29856, Note_on_c, 9, 40, 100
3, 29880, Note_off_c, 9, 40, 64
3, 29952, Note_on_c, 9, 40, 100
3, 29976, Note_off_c, 9, 40, 64
3, 30000, Note_on_c, 9, 40, 100
3, 30024, Note_off_c, 9, 40, 64
3, 30048, Note_on_c, 9, 40, 100
3, 30072, Note_off_c, 9, 40, 64
3, 30096, Note_on_c, 9, 40, 100
3, 30120, Note_off_c, 9, 40, 64
3, 30144, Note_on_c, 9, 40, 100
3, 30168, Note_off_c, 9, 40, 64
3, 30192, Note_on_c, 9, 40, 100
3, 30216, Note_off_c, 9, 40, 64
3, 30240, Note_on_c, 9, 40, 100
3, 30264, Note_off_c, 9, 40, 64
3, 30288, Note_on_c, 9, 40, 100
3, 30312, Note_off_c, 9, 40, 64
3, 30336, Note_on_c, 9, 40, 100
3, 30336, Note_on_c, 9, 37, 102
3, 30360, Note_off_c, 9, 37, 64
3, 30360, Note_off_c, 9, 40, 64
3, 30384, Note_on_c, 9, 40, 100
3, 30408, Note_off_c, 9, 40, 64
3, 30432, Note_on_c, 9, 40, 100
3, 30432, Note_on_c, 9, 42, 100
3, 30456, Note_off_c, 9, 42, 64
3, 30456, Note_off_c, 9, 40, 64
3, 30480, Note_on_c, 9, 40, 100
3, 30480, Note_on_c, 9, 42, 100
3, 30504, Note_off_c, 9, 42, 64
3, 30504, Note_off_c, 9, 40, 64
3, 30528, Note_on_c, 9, 40, 100
3, 30552, Note_off_c, 9, 40, 64
3, 30576, Note_on_c, 9, 40, 100
3, 30600, Note_off_c, 9, 40, 64
3, 30624, Note_on_c, 9, 40, 100
3, 30648, Note_off_c, 9, 40, 64
3, 30672, Note_on_c, 9, 40, 100
3, 30696, Note_off_c, 9, 40, 64
3, 30720, Note_on_c, 9, 36, 100
3, 30720, Note_on_c, 9, 42, 66
3, 30744, Note_off_c, 9, 42, 64
3, 30744, Note_off_c, 9, 36, 64
3, 30768, Note_on_c, 9, 42, 66
3, 30792, Note_off_c, 9, 42, 64
3, 30816, Note_on_c, 9, 42, 66
3, 30840, Note_off_c, 9, 42, 64
3, 30864, Note_on_c, 9, 42, 66
3, 30888, Note_off_c, 9, 42, 64
3, 30912, Note_on_c, 9, 40, 100
3, 30912, Note_on_c, 9, 42, 66
3, 30936, Note_off_c, 9, 42, 64
3, 30936, Note_off_c, 9, 40, 64
3, 30960, Note_on_c, 9, 42, 64
3, 30984, Note_off_c, 9, 42, 64
3, 31008, Note_on_c, 9, 42, 62
3, 31032, Note_off_c, 9, 42, 64
3, 31056, Note_on_c, 9, 42, 62
3, 31080, Note_off_c, 9, 42, 64
3, 31104, Note_on_c, 9, 42, 66
3, 31128, Note_off_c, 9, 42, 64
3, 31152, Note_on_c, 9, 36, 100
3, 31152, Note_on_c, 9, 42, 66
3, 31176, Note_off_c, 9, 42, 64
3, 31176, Note_off_c, 9, 36, 64
3, 31200, Note_on_c, 9, 42, 66
3, 31224, Note_off_c, 9, 42, 64
3, 31248, Note_on_c, 9, 42, 66
3, 31272, Note_off_c, 9, 42, 64
3, 31296, Note_on_c, 9, 40, 100
3, 31296, Note_on_c, 9, 42, 66
3, 31320, Note_off_c, 9, 42, 64
3, 31320, Note_off_c, 9, 40, 64
3, 31344, Note_on_c, 9, 36, 100
3, 31344, Note_on_c, 9, 42, 64
3, 31368, Note_off_c, 9, 42, 64
3, 31368, Note_off_c, 9, 36, 64
3, 31392, Note_on_c, 9, 42, 62
3, 31416, Note_off_c, 9, 42, 64
3, 31440, Note_on_c, 9, 42, 62
3, 31464, Note_off_c, 9, 42, 64
3, 31488, Note_on_c, 9, 40, 100
3, 31488, Note_on_c, 9, 42, 66
3, 31512, Note_off_c, 9, 42, 64
3, 31512, Note_off_c, 9, 40, 64
3, 31536, Note_on_c, 9, 42, 66
3, 31560, Note_off_c, 9, 42, 64
3, 31584, Note_on_c, 9, 42, 66
3, 31608, Note_off_c, 9, 42, 64
3, 31632, Note_on_c, 9, 40, 100
3, 31632, Note_on_c, 9, 42, 66
3, 31656, Note_off_c, 9, 42, 64
3, 31656, Note_off_c, 9, 40, 64
3, 31680, Note_on_c, 9, 42, 66
3, 31704, Note_off_c, 9, 42, 64
3, 31728, Note_on_c, 9, 42, 64
3, 31752, Note_off_c, 9, 42, 64
3, 31776, Note_on_c, 9, 40, 100
3, 31776, Note_on_c, 9, 42, 62
3, 31800, Note_off_c, 9, 42, 64
3, 31800, Note_off_c, 9, 40, 64
3, 31824, Note_on_c, 9, 42, 62
3, 31848, Note_off_c, 9, 42, 64
3, 31872, Note_on_c, 9, 36, 100
3, 31872, Note_on_c, 9, 42, 66
3, 31896, Note_off_c, 9, 42, 64
3, 31896, Note_off_c, 9, 36, 64
3, 31920, Note_on_c, 9, 42, 66
3, 31944, Note_off_c, 9, 42, 64
3, 31968, Note_on_c, 9, 42, 66
3, 31992, Note_off_c, 9, 42, 64
3, 32016, Note_on_c, 9, 42, 66
3, 32040, Note_off_c, 9, 42, 64
3, 32064, Note_on_c, 9, 40, 100
3, 32064, Note_on_c, 9, 42, 66
3, 32088, Note_off_c, 9, 42, 64
3, 32088, Note_off_c, 9, 40, 64
3, 32112, Note_on_c, 9, 42, 64
3, 32136, Note_off_c, 9, 42, 64
3, 32160, Note_on_c, 9, 42, 62
3, 32184, Note_off_c, 9, 42, 64
3, 32208, Note_on_c, 9, 42, 62
3, 32232, Note_off_c, 9, 42, 64
3, 32256, Note_on_c, 9, 36, 100
3, 32256, Note_on_c, 9, 42, 66
3, 32280, Note_off_c, 9, 42, 64
3, 32280, Note_off_c, 9, 36, 64
3, 32304, Note_on_c, 9, 42, 66
3, 32328, Note_off_c, 9, 42, 64
3, 32352, Note_on_c, 9, 42, 66
3, 32376, Note_off_c, 9, 42, 64
3, 32400, Note_on_c, 9, 42, 66
3, 32424, Note_off_c, 9, 42, 64
3, 32448, Note_on_c, 9, 40, 100
3, 32448, Note_on_c, 9, 42, 66
3, 32472, Note_off_c, 9, 42, 64
3, 32472, Note_off_c, 9, 40, 64
3, 32496, Note_on_c, 9, 36, 100
3, 32496, Note_on_c, 9, 42, 64
3, 32520, Note_off_c, 9, 42, 64
3, 32520, Note_off_c, 9, 36, 64
3, 32544, Note_on_c, 9, 42, 62
3, 32568, Note_off_c, 9, 42, 64
3, 32592, Note_on_c, 9, 42, 62
3, 32616, Note_off_c, 9, 42, 64
3, 32640, Note_on_c, 9, 40, 100
3, 32640, Note_on_c, 9, 42, 66
3, 32664, Note_off_c, 9, 42, 64
3, 32664, Note_off_c, 9, 40, 64
3, 32688, Note_on_c, 9, 42, 66
3, 32712, Note_off_c, 9, 42, 64
3, 32736, Note_on_c, 9, 42, 66
3, 32760, Note_off_c, 9, 42, 64
3, 32784, Note_on_c, 9, 40, 100
3, 32784, Note_on_c, 9, 42, 66
3, 32808, Note_off_c, 9, 42, 64
3, 32808, Note_off_c, 9, 40, 64
3, 32832, Note_on_c, 9, 42, 66
3, 32856, Note_off_c, 9, 42, 64
3, 32880, Note_on_c, 9, 42, 64
3, 32904, Note_off_c, 9, 42, 64
3, 32928, Note_on_c, 9, 40, 100
3, 32928, Note_on_c, 9, 42, 62
3, 32952, Note_off_c, 9, 42, 64
3, 32952, Note_off_c, 9, 40, 64
3, 32976, Note_on_c, 9, 42, 62
3, 33000, Note_off_c, 9, 42, 64
3, 33024, Note_on_c, 9, 40, 100
3, 33024, Note_on_c, 9, 42, 66
3, 33048, Note_off_c, 9, 42, 64
3, 33048, Note_off_c, 9, 40, 64
3, 33072, Note_on_c, 9, 40, 100
3, 33072, Note_on_c, 9, 42, 66
3, 33096, Note_off_c, 9, 42, 64
3, 33096, Note_off_c, 9, 40, 64
3, 33120, Note_on_c, 9, 40, 100
3, 33120, Note_on_c, 9, 42, 66
3, 33144, Note_off_c, 9, 42, 64
3, 33144, Note_off_c, 9, 40, 64
3, 33168, Note_on_c, 9, 40, 100
3, 33168, Note_on_c, 9, 42, 66
3, 33192, Note_off_c, 9, 42, 64
3, 33192, Note_off_c, 9, 40, 64
3, 33216, Note_on_c, 9, 40, 100
3, 33216, Note_on_c, 9, 42, 66
3, 33240, Note_off_c, 9, 42, 64
3, 33240, Note_off_c, 9, 40, 64
3, 33264, Note_on_c, 9, 40, 100
3, 33264, Note_on_c, 9, 42, 64
3, 33288, Note_off_c, 9, 42, 64
3, 33288, Note_off_c, 9, 40, 64
3, 33312, Note_on_c, 9, 40, 100
3, 33312, Note_on_c, 9, 42, 62
3, 33336, Note_off_c, 9, 42, 64
3, 33336, Note_off_c, 9, 40, 64
3, 33360, Note_on_c, 9, 40, 100
3, 33360, Note_on_c, 9, 42, 62
3, 33384, Note_off_c, 9, 42, 64
3, 33384, Note_off_c, 9, 40, 64
3, 33408, Note_on_c, 9, 40, 100
3, 33408, Note_on_c, 9, 37, 102
3, 33408, Note_on_c, 9, 42, 66
3, 33432, Note_off_c, 9, 42, 64
3, 33432, Note_off_c, 9, 37, 64
3, 33432, Note_off_c, 9, 40, 64
3, 33456, Note_on_c, 9, 40, 100
3, 33456, Note_on_c, 9, 42, 66
3, 33480, Note_off_c, 9, 42, 64
3, 33480, Note_off_c, 9, 40, 64
3, 33504, Note_on_c, 9, 40, 100
3, 33504, Note_on_c, 9, 42, 100
3, 33504, Note_on_c, 9, 42, 66
3, 33528, Note_off_c, 9, 42, 64
3, 33528, Note_off_c, 9, 42, 64
3, 33528, Note_off_c, 9, 40, 64
3, 33552, Note_on_c, 9, 40, 100
3, 33552, Note_on_c, 9, 42, 100
3, 33552, Note_on_c, 9, 42, 66
3, 33576, Note_off_c, 9, 42, 64
3, 33576, Note_off_c, 9, 42, 64
3, 33576, Note_off_c, 9, 40, 64
3, 33600, Note_on_c, 9, 40, 100
3, 33600, Note_on_c, 9, 42, 66
3, 33624, Note_off_c, 9, 42, 64
3, 33624, Note_off_c, 9, 40, 64
3, 33648, Note_on_c, 9, 40, 100
3, 33648, Note_on_c, 9, 42, 64
3, 33672, Note_off_c, 9, 42, 64
3, 33672, Note_off_c, 9, 40, 64
3, 33696, Note_on_c, 9, 40, 100
3, 33696, Note_on_c, 9, 42, 62
3, 33720, Note_off_c, 9, 42, 64
3, 33720, Note_off_c, 9, 40, 64
3, 33744, Note_on_c, 9, 40, 100
3, 33744, Note_on_c, 9, 42, 62
3, 33768, Note_off_c, 9, 42, 64
3, 33768, Note_off_c, 9, 40, 64
3, 33792, Note_on_c, 9, 36, 100
3, 33792, Note_on_c, 9, 42, 66
3, 33816, Note_off_c, 9, 42, 64
3, 33816, Note_off_c, 9, 36, 64
3, 33840, Note_on_c, 9, 42, 66
3, 33864, Note_off_c, 9, 42, 64
3, 33888, Note_on_c, 9, 42, 66
3, 33912, Note_off_c, 9, 42, 64
3, 33936, Note_on_c, 9, 42, 66
3, 33960, Note_off_c, 9, 42, 64
3, 33984, Note_on_c, 9, 40, 100
3, 33984, Note_on_c, 9, 42, 66
3, 34008, Note_off_c, 9, 42, 64
3, 34008, Note_off_c, 9, 40, 64
3, 34032, Note_on_c, 9, 42, 64
3, 34056, Note_off_c, 9, 42, 64
3, 34080, Note_on_c, 9, 42, 62
3, 34104, Note_off_c, 9, 42, 64
3, 34128, Note_on_c, 9, 42, 62
3, 34152, Note_off_c, 9, 42, 64
3, 34176, Note_on_c, 9, 42, 66
3, 34200, Note_off_c, 9, 42, 64
3, 34224, Note_on_c, 9, 36, 100
3, 34224, Note_on_c, 9, 42, 66
3, 34248, Note_off_c, 9, 42, 64
3, 34248, Note_off_c, 9, 36, 64
3, 34272, Note_on_c, 9, 42, 66
3, 34296, Note_off_c, 9, 42, 64
3, 34320, Note_on_c, 9, 42, 66
3, 34344, Note_off_c, 9, 42, 64
3, 34368, Note_on_c, 9, 40, 100
3, 34368, Note_on_c, 9, 42, 66
3, 34392, Note_off_c, 9, 42, 64
3, 34392, Note_off_c, 9, 40, 64
3, 34416, Note_on_c, 9, 36, 100
3, 34416, Note_on_c, 9, 42, 64
3, 34440, Note_off_c, 9, 42, 64
3, 34440, Note_off_c, 9, 36, 64
3, 34464, Note_on_c, 9, 42, 62
3, 34488, Note_off_c, 9, 42, 64
3, 34512, Note_on_c, 9, 42, 62
3, 34536, Note_off_c, 9, 42, 64
3, 34560, Note_on_c, 9, 40, 100
3, 34560, Note_on_c, 9, 42, 66
3, 34584, Note_off_c, 9, 42, 64
3, 34584, Note_off_c, 9, 40, 64
3, 34608, Note_on_c, 9, 42, 66
3, 34632, Note_off_c, 9, 42, 64
3, 34656, Note_on_c, 9, 42, 66
3, 34680, Note_off_c, 9, 42, 64
3, 34704, Note_on_c, 9, 40, 100
3, 34704, Note_on_c, 9, 42, 66
3, 34728, Note_off_c, 9, 42, 64
3, 34728, Note_off_c, 9, 40, 64
3, 34752, Note_on_c, 9, 42, 66
3, 34776, Note_off_c, 9, 42, 64
3, 34800, Note_on_c, 9, 42, 64
3, 34824, Note_off_c, 9, 42, 64
3, 34848, Note_on_c, 9, 40, 100
3, 34848, Note_on_c, 9, 42, 62
3, 34872, Note_off_c, 9, 42, 64
3, 34872, Note_off_c, 9, 40, 64
3, 34896, Note_on_c, 9, 42, 62
3, 34920, Note_off_c, 9, 42, 64
3, 34944, Note_on_c, 9, 36, 100
3, 34944, Note_on_c, 9, 42, 66
3, 34968, Note_off_c, 9, 42, 64
3, 34968, Note_off_c, 9, 36, 64
3, 34992, Note_on_c, 9, 42, 66
3, 35016, Note_off_c, 9, 42, 64
3, 35040, Note_on_c, 9, 42, 66
3, 35064, Note_off_c, 9, 42, 64
3, 35088, Note_on_c, 9, 42, 66
3, 35112, Note_off_c, 9, 42, 64
3, 35136, Note_on_c, 9, 40, 100
3, 35136, Note_on_c, 9, 42, 66
3, 35160, Note_off_c, 9, 42, 64
3, 35160, Note_off_c, 9, 40, 64
3, 35184, Note_on_c, 9, 42, 64
3, 35208, Note_off_c, 9, 42, 64
3, 35232, Note_on_c, 9, 42, 62
3, 35256, Note_off_c, 9, 42, 64
3, 35280, Note_on_c, 9, 42, 62
3, 35304, Note_off_c, 9, 42, 64
3, 35328, Note_on_c, 9, 36, 100
3, 35328, Note_on_c, 9, 42, 66
3, 35352, Note_off_c, 9, 42, 64
3, 35352, Note_off_c, 9, 36, 64
3, 35376, Note_on_c, 9, 42, 66
3, 35400, Note_off_c, 9, 42, 64
3, 35424, Note_on_c, 9, 42, 66
3, 35448, Note_off_c, 9, 42, 64
3, 35472, Note_on_c, 9, 42, 66
3, 35496, Note_off_c, 9, 42, 64
3, 35520, Note_on_c, 9, 40, 100
3, 35520, Note_on_c, 9, 42, 66
3, 35544, Note_off_c, 9, 42, 64
3, 35544, Note_off_c, 9, 40, 64
3, 35568, Note_on_c, 9, 36, 100
3, 35568, Note_on_c, 9, 42, 64
3, 35592, Note_off_c, 9, 42, 64
3, 35592, Note_off_c, 9, 36, 64
3, 35616, Note_on_c, 9, 42, 62
3, 35640, Note_off_c, 9, 42, 64
3, 35664, Note_on_c, 9, 42, 62
3, 35688, Note_off_c, 9, 42, 64
3, 35712, Note_on_c, 9, 40, 100
3, 35712, Note_on_c, 9, 42, 66
3, 35736, Note_off_c, 9, 42, 64
3, 35736, Note_off_c, 9, 40, 64
3, 35760, Note_on_c, 9, 42, 66
3, 35784, Note_off_c, 9, 42, 64
3, 35808, Note_on_c, 9, 42, 66
3, 35832, Note_off_c, 9, 42, 64
3, 35856, Note_on_c, 9, 40, 100
3, 35856, Note_on_c, 9, 42, 66
3, 35880, Note_off_c, 9, 42, 64
3, 35880, Note_off_c, 9, 40, 64
3, 35904, Note_on_c, 9, 42, 66
3, 35928, Note_off_c, 9, 42, 64
3, 35952, Note_on_c, 9, 42, 64
3, 35976, Note_off_c, 9, 42, 64
3, 36000, Note_on_c, 9, 40, 100
3, 36000, Note_on_c, 9, 42, 62
3, 36024, Note_off_c, 9, 42, 64
3, 36024, Note_off_c, 9, 40, 64
3, 36048, Note_on_c, 9, 42, 62
3, 36072, Note_off_c, 9, 42, 64
3, 36096, Note_on_c, 9, 40, 100
3, 36096, Note_on_c, 9, 42, 66
3, 36120, Note_off_c, 9, 42, 64
3, 36120, Note_off_c, 9, 40, 64
3, 36144, Note_on_c, 9, 40, 100
3, 36144, Note_on_c, 9, 42, 66
3, 36168, Note_off_c, 9, 42, 64
3, 36168, Note_off_c, 9, 40, 64
3, 36192, Note_on_c, 9, 40, 100
3, 36192, Note_on_c, 9, 42, 66
3, 36216, Note_off_c, 9, 42, 64
3, 36216, Note_off_c, 9, 40, 64
3, 36240, Note_on_c, 9, 40, 100
3, 36240, Note_on_c, 9, 42, 66
3, 36264, Note_off_c, 9, 42, 64
3, 36264, Note_off_c, 9, 40, 64
3, 36288, Note_on_c, 9, 40, 100
3, 36288, Note_on_c, 9, 42, 66
3, 36312, Note_off_c, 9, 42, 64
3, 36312, Note_off_c, 9, 40, 64
3, 36336, Note_on_c, 9, 40, 100
3, 36336, Note_on_c, 9, 42, 64
3, 36360, Note_off_c, 9, 42, 64
3, 36360, Note_off_c, 9, 40, 64
3, 36384, Note_on_c, 9, 40, 100
3, 36384, Note_on_c, 9, 42, 62
3, 36408, Note_off_c, 9, 42, 64
3, 36408, Note_off_c, 9, 40, 64
3, 36432, Note_on_c, 9, 40, 100
3, 36432, Note_on_c, 9, 42, 62
3, 36456, Note_off_c, 9, 42, 64
3, 36456, Note_off_c, 9, 40, 64
3, 36480, Note_on_c, 9, 40, 100
3, 36480, Note_on_c, 9, 37, 102
3, 36480, Note_on_c, 9, 42, 66
3, 36504, Note_off_c, 9, 42, 64
3, 36504, Note_off_c, 9, 37, 64
3, 36504, Note_off_c, 9, 40, 64
3, 36528, Note_on_c, 9, 40, 100
3, 36528, Note_on_c, 9, 42, 66
3, 36552, Note_off_c, 9, 42, 64
3, 36552, Note_off_c, 9, 40, 64
3, 36576, Note_on_c, 9, 40, 100
3, 36576, Note_on_c, 9, 42, 100
3, 36576, Note_on_c, 9, 42, 66
3, 36600, Note_off_c, 9, 42, 64
3, 36600, Note_off_c, 9, 42, 64
3, 36600, Note_off_c, 9, 40, 64
3, 36624, Note_on_c, 9, 40, 100
3, 36624, Note_on_c, 9, 42, 100
3, 36624, Note_on_c, 9, 42, 66
3, 36648, Note_off_c, 9, 42, 64
3, 36648, Note_off_c, 9, 40, 64
3, 36648, Note_off_c, 9, 42, 64
3, 36672, Note_on_c, 9, 40, 100
3, 36672, Note_on_c, 9, 42, 66
3, 36696, Note_off_c, 9, 42, 64
3, 36696, Note_off_c, 9, 40, 64
3, 36720, Note_on_c, 9, 40, 100
3, 36720, Note_on_c, 9, 42, 64
3, 36744, Note_off_c, 9, 42, 64
3, 36744, Note_off_c, 9, 40, 64
3, 36768, Note_on_c, 9, 40, 100
3, 36768, Note_on_c, 9, 42, 62
3, 36792, Note_off_c, 9, 42, 64
3, 36792, Note_off_c, 9, 40, 64
3, 36816, Note_on_c, 9, 40, 100
3, 36816, Note_on_c, 9, 42, 62
3, 36840, Note_off_c, 9, 42, 64
3, 36840, Note_off_c, 9, 40, 64
3, 36864, Note_on_c, 9, 36, 100
3, 36864, Note_on_c, 9, 42, 66
3, 36888, Note_off_c, 9, 42, 64
3, 36888, Note_off_c, 9, 36, 64
3, 36912, Note_on_c, 9, 42, 66
3, 36936, Note_off_c, 9, 42, 64
3, 36960, Note_on_c, 9, 42, 66
3, 36984, Note_off_c, 9, 42, 64
3, 37008, Note_on_c, 9, 42, 66
3, 37032, Note_off_c, 9, 42, 64
3, 37056, Note_on_c, 9, 40, 100
3, 37056, Note_on_c, 9, 42, 66
3, 37080, Note_off_c, 9, 42, 64
3, 37080, Note_off_c, 9, 40, 64
3, 37104, Note_on_c, 9, 42, 64
3, 37128, Note_off_c, 9, 42, 64
3, 37152, Note_on_c, 9, 42, 62
3, 37176, Note_off_c, 9, 42, 64
3, 37200, Note_on_c, 9, 42, 62
3, 37224, Note_off_c, 9, 42, 64
3, 37248, Note_on_c, 9, 42, 66
3, 37272, Note_off_c, 9, 42, 64
3, 37296, Note_on_c, 9, 36, 100
3, 37296, Note_on_c, 9, 42, 66
3, 37320, Note_off_c, 9, 42, 64
3, 37320, Note_off_c, 9, 36, 64
3, 37344, Note_on_c, 9, 42, 66
3, 37368, Note_off_c, 9, 42, 64
3, 37392, Note_on_c, 9, 42, 66
3, 37416, Note_off_c, 9, 42, 64
3, 37440, Note_on_c, 9, 40, 100
3, 37440, Note_on_c, 9, 42, 66
3, 37464, Note_off_c, 9, 42, 64
3, 37464, Note_off_c, 9, 40, 64
3, 37488, Note_on_c, 9, 36, 100
3, 37488, Note_on_c, 9, 42, 64
3, 37512, Note_off_c, 9, 42, 64
3, 37512, Note_off_c, 9, 36, 64
3, 37536, Note_on_c, 9, 42, 62
3, 37560, Note_off_c, 9, 42, 64
3, 37584, Note_on_c, 9, 42, 62
3, 37608, Note_off_c, 9, 42, 64
3, 37632, Note_on_c, 9, 40, 100
3, 37632, Note_on_c, 9, 42, 66
3, 37656, Note_off_c, 9, 42, 64
3, 37656, Note_off_c, 9, 40, 64
3, 37680, Note_on_c, 9, 42, 66
3, 37704, Note_off_c, 9, 42, 64
3, 37728, Note_on_c, 9, 42, 66
3, 37752, Note_off_c, 9, 42, 64
3, 37776, Note_on_c, 9, 40, 100
3, 37776, Note_on_c, 9, 42, 66
3, 37800, Note_off_c, 9, 42, 64
3, 37800, Note_off_c, 9, 40, 64
3, 37824, Note_on_c, 9, 42, 66
3, 37848, Note_off_c, 9, 42, 64
3, 37872, Note_on_c, 9, 42, 64
3, 37896, Note_off_c, 9, 42, 64
3, 37920, Note_on_c, 9, 40, 100
3, 37920, Note_on_c, 9, 42, 62
3, 37944, Note_off_c, 9, 42, 64
3, 37944, Note_off_c, 9, 40, 64
3, 37968, Note_on_c, 9, 42, 62
3, 37992, Note_off_c, 9, 42, 64
3, 38016, Note_on_c, 9, 36, 100
3, 38016, Note_on_c, 9, 42, 66
3, 38040, Note_off_c, 9, 42, 64
3, 38040, Note_off_c, 9, 36, 64
3, 38064, Note_on_c, 9, 42, 66
3, 38088, Note_off_c, 9, 42, 64
3, 38112, Note_on_c, 9, 42, 66
3, 38136, Note_off_c, 9, 42, 64
3, 38160, Note_on_c, 9, 42, 66
3, 38184, Note_off_c, 9, 42, 64
3, 38208, Note_on_c, 9, 40, 100
3, 38208, Note_on_c, 9, 42, 66
3, 38232, Note_off_c, 9, 42, 64
3, 38232, Note_off_c, 9, 40, 64
3, 38256, Note_on_c, 9, 42, 64
3, 38280, Note_off_c, 9, 42, 64
3, 38304, Note_on_c, 9, 42, 62
3, 38328, Note_off_c, 9, 42, 64
3, 38352, Note_on_c, 9, 42, 62
3, 38376, Note_off_c, 9, 42, 64
3, 38400, Note_on_c, 9, 36, 100
3, 38400, Note_on_c, 9, 42, 66
3, 38424, Note_off_c, 9, 42, 64
3, 38424, Note_off_c, 9, 36, 64
3, 38448, Note_on_c, 9, 42, 66
3, 38472, Note_off_c, 9, 42, 64
3, 38496, Note_on_c, 9, 42, 66
3, 38520, Note_off_c, 9, 42, 64
3, 38544, Note_on_c, 9, 42, 66
3, 38568, Note_off_c, 9, 42, 64
3, 38592, Note_on_c, 9, 40, 100
3, 38592, Note_on_c, 9, 42, 66
3, 38616, Note_off_c, 9, 42, 64
3, 38616, Note_off_c, 9, 40, 64
3, 38640, Note_on_c, 9, 36, 100
3, 38640, Note_on_c, 9, 42, 64
3, 38664, Note_off_c, 9, 42, 64
3, 38664, Note_off_c, 9, 36, 64
3, 38688, Note_on_c, 9, 42, 62
3, 38712, Note_off_c, 9, 42, 64
3, 38736, Note_on_c, 9, 42, 62
3, 38760, Note_off_c, 9, 42, 64
3, 38784, Note_on_c, 9, 40, 100
3, 38784, Note_on_c, 9, 42, 66
3, 38808, Note_off_c, 9, 42, 64
3, 38808, Note_off_c, 9, 40, 64
3, 38832, Note_on_c, 9, 42, 66
3, 38856, Note_off_c, 9, 42, 64
3, 38880, Note_on_c, 9, 42, 66
3, 38904, Note_off_c, 9, 42, 64
3, 38928, Note_on_c, 9, 40, 100
3, 38928, Note_on_c, 9, 42, 66
3, 38952, Note_off_c, 9, 42, 64
3, 38952, Note_off_c, 9, 40, 64
3, 38976, Note_on_c, 9, 42, 66
3, 39000, Note_off_c, 9, 42, 64
3, 39024, Note_on_c, 9, 42, 64
3, 39048, Note_off_c, 9, 42, 64
3, 39072, Note_on_c, 9, 40, 100
3, 39072, Note_on_c, 9, 42, 62
3, 39096, Note_off_c, 9, 42, 64
3, 39096, Note_off_c, 9, 40, 64
3, 39120, Note_on_c, 9, 42, 62
3, 39144, Note_off_c, 9, 42, 64
3, 39168, Note_on_c, 9, 40, 100
3, 39168, Note_on_c, 9, 42, 66
3, 39192, Note_off_c, 9, 42, 64
3, 39192, Note_off_c, 9, 40, 64
3, 39216, Note_on_c, 9, 40, 100
3, 39216, Note_on_c, 9, 42, 66
3, 39240, Note_off_c, 9, 42, 64
3, 39240, Note_off_c, 9, 40, 64
3, 39264, Note_on_c, 9, 40, 100
3, 39264, Note_on_c, 9, 42, 66
3, 39288, Note_off_c, 9, 42, 64
3, 39288, Note_off_c, 9, 40, 64
3, 39312, Note_on_c, 9, 40, 100
3, 39312, Note_on_c, 9, 42, 66
3, 39336, Note_off_c, 9, 42, 64
3, 39336, Note_off_c, 9, 40, 64
3, 39360, Note_on_c, 9, 40, 100
3, 39360, Note_on_c, 9, 42, 66
3, 39384, Note_off_c, 9, 42, 64
3, 39384, Note_off_c, 9, 40, 64
3, 39408, Note_on_c, 9, 40, 100
3, 39408, Note_on_c, 9, 42, 64
3, 39432, Note_off_c, 9, 42, 64
3, 39432, Note_off_c, 9, 40, 64
3, 39456, Note_on_c, 9, 40, 100
3, 39456, Note_on_c, 9, 42, 62
3, 39480, Note_off_c, 9, 42, 64
3, 39480, Note_off_c, 9, 40, 64
3, 39504, Note_on_c, 9, 40, 100
3, 39504, Note_on_c, 9, 42, 62
3, 39528, Note_off_c, 9, 42, 64
3, 39528, Note_off_c, 9, 40, 64
3, 39552, Note_on_c, 9, 40, 100
3, 39552, Note_on_c, 9, 37, 102
3, 39552, Note_on_c, 9, 42, 66
3, 39576, Note_off_c, 9, 42, 64
3, 39576, Note_off_c, 9, 37, 64
3, 39576, Note_off_c, 9, 40, 64
3, 39600, Note_on_c, 9, 40, 100
3, 39600, Note_on_c, 9, 42, 66
3, 39624, Note_off_c, 9, 42, 64
3, 39624, Note_off_c, 9, 40, 64
3, 39648, Note_on_c, 9, 40, 100
3, 39648, Note_on_c, 9, 42, 100
3, 39648, Note_on_c, 9, 42, 66
3, 39672, Note_off_c, 9, 42, 64
3, 39672, Note_off_c, 9, 40, 64
3, 39672, Note_off_c, 9, 42, 64
3, 39696, Note_on_c, 9, 40, 100
3, 39696, Note_on_c, 9, 42, 100
3, 39696, Note_on_c, 9, 42, 66
3, 39720, Note_off_c, 9, 42, 64
3, 39720, Note_off_c, 9, 42, 64
3, 39720, Note_off_c, 9, 40, 64
3, 39744, Note_on_c, 9, 40, 100
3, 39744, Note_on_c, 9, 42, 66
3, 39768, Note_off_c, 9, 42, 64
3, 39768, Note_off_c, 9, 40, 64
3, 39792, Note_on_c, 9, 40, 100
3, 39792, Note_on_c, 9, 42, 64
3, 39816, Note_off_c, 9, 42, 64
3, 39816, Note_off_c, 9, 40, 64
3, 39840, Note_on_c, 9, 40, 100
3, 39840, Note_on_c, 9, 42, 62
3, 39864, Note_off_c, 9, 42, 64
3, 39864, Note_off_c, 9, 40, 64
3, 39888, Note_on_c, 9, 40, 100
3, 39888, Note_on_c, 9, 42, 62
3, 39912, Note_off_c, 9, 42, 64
3, 39912, Note_off_c, 9, 40, 64
3, 39936, Note_on_c, 9, 36, 100
3, 39936, Note_on_c, 9, 42, 66
3, 39960, Note_off_c, 9, 42, 64
3, 39960, Note_off_c, 9, 36, 64
3, 39984, Note_on_c, 9, 42, 66
3, 40008, Note_off_c, 9, 42, 64
3, 40032, Note_on_c, 9, 42, 66
3, 40056, Note_off_c, 9, 42, 64
3, 40080, Note_on_c, 9, 42, 66
3, 40104, Note_off_c, 9, 42, 64
3, 40128, Note_on_c, 9, 40, 100
3, 40128, Note_on_c, 9, 42, 66
3, 40152, Note_off_c, 9, 42, 64
3, 40152, Note_off_c, 9, 40, 64
3, 40176, Note_on_c, 9, 42, 64
3, 40200, Note_off_c, 9, 42, 64
3, 40224, Note_on_c, 9, 42, 62
3, 40248, Note_off_c, 9, 42, 64
3, 40272, Note_on_c, 9, 42, 62
3, 40296, Note_off_c, 9, 42, 64
3, 40320, Note_on_c, 9, 42, 66
3, 40344, Note_off_c, 9, 42, 64
3, 40368, Note_on_c, 9, 36, 100
3, 40368, Note_on_c, 9, 42, 66
3, 40392, Note_off_c, 9, 42, 64
3, 40392, Note_off_c, 9, 36, 64
3, 40416, Note_on_c, 9, 42, 66
3, 40440, Note_off_c, 9, 42, 64
3, 40464, Note_on_c, 9, 42, 66
3, 40488, Note_off_c, 9, 42, 64
3, 40512, Note_on_c, 9, 40, 100
3, 40512, Note_on_c, 9, 42, 66
3, 40536, Note_off_c, 9, 42, 64
3, 40536, Note_off_c, 9, 40, 64
3, 40560, Note_on_c, 9, 36, 100
3, 40560, Note_on_c, 9, 42, 64
3, 40584, Note_off_c, 9, 42, 64
3, 40584, Note_off_c, 9, 36, 64
3, 40608, Note_on_c, 9, 42, 62
3, 40632, Note_off_c, 9, 42, 64
3, 40656, Note_on_c, 9, 42, 62
3, 40680, Note_off_c, 9, 42, 64
3, 40704, Note_on_c, 9, 40, 100
3, 40704, Note_on_c, 9, 42, 66
3, 40728, Note_off_c, 9, 42, 64
3, 40728, Note_off_c, 9, 40, 64
3, 40752, Note_on_c, 9, 42, 66
3, 40776, Note_off_c, 9, 42, 64
3, 40800, Note_on_c, 9, 42, 66
3, 40824, Note_off_c, 9, 42, 64
3, 40848, Note_on_c, 9, 40, 100
3, 40848, Note_on_c, 9, 42, 66
3, 40872, Note_off_c, 9, 42, 64
3, 40872, Note_off_c, 9, 40, 64
3, 40896, Note_on_c, 9, 42, 66
3, 40920, Note_off_c, 9, 42, 64
3, 40944, Note_on_c, 9, 42, 64
3, 40968, Note_off_c, 9, 42, 64
3, 40992, Note_on_c, 9, 40, 100
3, 40992, Note_on_c, 9, 42, 62
3, 41016, Note_off_c, 9, 42, 64
3, 41016, Note_off_c, 9, 40, 64
3, 41040, Note_on_c, 9, 42, 62
3, 41064, Note_off_c, 9, 42, 64
3, 41088, Note_on_c, 9, 36, 100
3, 41088, Note_on_c, 9, 42, 66
3, 41112, Note_off_c, 9, 42, 64
3, 41112, Note_off_c, 9, 36, 64
3, 41136, Note_on_c, 9, 42, 66
3, 41160, Note_off_c, 9, 42, 64
3, 41184, Note_on_c, 9, 42, 66
3, 41208, Note_off_c, 9, 42, 64
3, 41232, Note_on_c, 9, 42, 66
3, 41256, Note_off_c, 9, 42, 64
3, 41280, Note_on_c, 9, 40, 100
3, 41280, Note_on_c, 9, 42, 66
3, 41304, Note_off_c, 9, 42, 64
3, 41304, Note_off_c, 9, 40, 64
3, 41328, Note_on_c, 9, 42, 64
3, 41352, Note_off_c, 9, 42, 64
3, 41376, Note_on_c, 9, 42, 62
3, 41400, Note_off_c, 9, 42, 64
3, 41424, Note_on_c, 9, 42, 62
3, 41448, Note_off_c, 9, 42, 64
3, 41472, Note_on_c, 9, 36, 100
3, 41472, Note_on_c, 9, 42, 66
3, 41496, Note_off_c, 9, 42, 64
3, 41496, Note_off_c, 9, 36, 64
3, 41520, Note_on_c, 9, 42, 66
3, 41544, Note_off_c, 9, 42, 64
3, 41568, Note_on_c, 9, 42, 66
3, 41592, Note_off_c, 9, 42, 64
3, 41616, Note_on_c, 9, 42, 66
3, 41640, Note_off_c, 9, 42, 64
3, 41664, Note_on_c, 9, 40, 100
3, 41664, Note_on_c, 9, 42, 66
3, 41688, Note_off_c, 9, 42, 64
3, 41688, Note_off_c, 9, 40, 64
3, 41712, Note_on_c, 9, 36, 100
3, 41712, Note_on_c, 9, 42, 64
3, 41736, Note_off_c, 9, 42, 64
3, 41736, Note_off_c, 9, 36, 64
3, 41760, Note_on_c, 9, 42, 62
3, 41784, Note_off_c, 9, 42, 64
3, 41808, Note_on_c, 9, 42, 62
3, 41832, Note_off_c, 9, 42, 64
3, 41856, Note_on_c, 9, 40, 100
3, 41856, Note_on_c, 9, 42, 66
3, 41880, Note_off_c, 9, 42, 64
3, 41880, Note_off_c, 9, 40, 64
3, 41904, Note_on_c, 9, 42, 66
3, 41928, Note_off_c, 9, 42, 64
3, 41952, Note_on_c, 9, 42, 66
3, 41976, Note_off_c, 9, 42, 64
3, 42000, Note_on_c, 9, 40, 100
3, 42000, Note_on_c, 9, 42, 66
3, 42024, Note_off_c, 9, 42, 64
3, 42024, Note_off_c, 9, 40, 64
3, 42048, Note_on_c, 9, 42, 66
3, 42072, Note_off_c, 9, 42, 64
3, 42096, Note_on_c, 9, 42, 64
3, 42120, Note_off_c, 9, 42, 64
3, 42144, Note_on_c, 9, 40, 100
3, 42144, Note_on_c, 9, 42, 62
3, 42168, Note_off_c, 9, 42, 64
3, 42168, Note_off_c, 9, 40, 64
3, 42192, Note_on_c, 9, 42, 62
3, 42216, Note_off_c, 9, 42, 64
3, 42240, Note_on_c, 9, 40, 100
3, 42240, Note_on_c, 9, 42, 66
3, 42264, Note_off_c, 9, 42, 64
3, 42264, Note_off_c, 9, 40, 64
3, 42288, Note_on_c, 9, 40, 100
3, 42288, Note_on_c, 9, 42, 66
3, 42312, Note_off_c, 9, 42, 64
3, 42312, Note_off_c, 9, 40, 64
3, 42336, Note_on_c, 9, 40, 100
3, 42336, Note_on_c, 9, 42, 66
3, 42360, Note_off_c, 9, 42, 64
3, 42360, Note_off_c, 9, 40, 64
3, 42384, Note_on_c, 9, 40, 100
3, 42384, Note_on_c, 9, 42, 66
3, 42408, Note_off_c, 9, 42, 64
3, 42408, Note_off_c, 9, 40, 64
3, 42432, Note_on_c, 9, 40, 100
3, 42432, Note_on_c, 9, 42, 66
3, 42456, Note_off_c, 9, 42, 64
3, 42456, Note_off_c, 9, 40, 64
3, 42480, Note_on_c, 9, 40, 100
3, 42480, Note_on_c, 9, 42, 64
3, 42504, Note_off_c, 9, 42, 64
3, 42504, Note_off_c, 9, 40, 64
3, 42528, Note_on_c, 9, 40, 100
3, 42528, Note_on_c, 9, 42, 62
3, 42552, Note_off_c, 9, 42, 64
3, 42552, Note_off_c, 9, 40, 64
3, 42576, Note_on_c, 9, 40, 100
3, 42576, Note_on_c, 9, 42, 62
3, 42600, Note_off_c, 9, 42, 64
3, 42600, Note_off_c, 9, 40, 64
3, 42624, Note_on_c, 9, 40, 100
3, 42624, Note_on_c, 9, 37, 102
3, 42624, Note_on_c, 9, 42, 66
3, 42648, Note_off_c, 9, 42, 64
3, 42648, Note_off_c, 9, 37, 64
3, 42648, Note_off_c, 9, 40, 64
3, 42672, Note_on_c, 9, 40, 100
3, 42672, Note_on_c, 9, 42, 66
3, 42696, Note_off_c, 9, 42, 64
3, 42696, Note_off_c, 9, 40, 64
3, 42720, Note_on_c, 9, 40, 100
3, 42720, Note_on_c, 9, 42, 100
3, 42720, Note_on_c, 9, 42, 66
3, 42744, Note_off_c, 9, 42, 64
3, 42744, Note_off_c, 9, 42, 64
3, 42744, Note_off_c, 9, 40, 64
3, 42768, Note_on_c, 9, 40, 100
3, 42768, Note_on_c, 9, 42, 100
3, 42768, Note_on_c, 9, 42, 66
3, 42792, Note_off_c, 9, 42, 64
3, 42792, Note_off_c, 9, 40, 64
3, 42792, Note_off_c, 9, 42, 64
3, 42816, Note_on_c, 9, 40, 100
3, 42816, Note_on_c, 9, 42, 66
3, 42840, Note_off_c, 9, 42, 64
3, 42840, Note_off_c, 9, 40, 64
3, 42864, Note_on_c, 9, 40, 100
3, 42864, Note_on_c, 9, 42, 64
3, 42888, Note_off_c, 9, 42, 64
3, 42888, Note_off_c, 9, 40, 64
3, 42912, Note_on_c, 9, 40, 100
3, 42912, Note_on_c, 9, 42, 62
3, 42936, Note_off_c, 9, 42, 64
3, 42936, Note_off_c, 9, 40, 64
3, 42960, Note_on_c, 9, 40, 100
3, 42960, Note_on_c, 9, 42, 62
3, 42984, Note_off_c, 9, 42, 64
3, 42984, Note_off_c, 9, 40, 64
3, 43008, Note_on_c, 9, 36, 100
3, 43008, Note_on_c, 9, 42, 66
3, 43032, Note_off_c, 9, 42, 64
3, 43032, Note_off_c, 9, 36, 64
3, 43056, Note_on_c, 9, 42, 66
3, 43080, Note_off_c, 9, 42, 64
3, 43104, Note_on_c, 9, 42, 66
3, 43128, Note_off_c, 9, 42, 64
3, 43152, Note_on_c, 9, 42, 66
3, 43176, Note_off_c, 9, 42, 64
3, 43200, Note_on_c, 9, 40, 100
3, 43200, Note_on_c, 9, 42, 66
3, 43224, Note_off_c, 9, 42, 64
3, 43224, Note_off_c, 9, 40, 64
3, 43248, Note_on_c, 9, 42, 64
3, 43272, Note_off_c, 9, 42, 64
3, 43296, Note_on_c, 9, 42, 62
3, 43320, Note_off_c, 9, 42, 64
3, 43344, Note_on_c, 9, 42, 62
3, 43368, Note_off_c, 9, 42, 64
3, 43392, Note_on_c, 9, 42, 66
3, 43416, Note_off_c, 9, 42, 64
3, 43440, Note_on_c, 9, 36, 100
3, 43440, Note_on_c, 9, 42, 66
3, 43464, Note_off_c, 9, 42, 64
3, 43464, Note_off_c, 9, 36, 64
3, 43488, Note_on_c, 9, 42, 66
3, 43512, Note_off_c, 9, 42, 64
3, 43536, Note_on_c, 9, 42, 66
3, 43560, Note_off_c, 9, 42, 64
3, 43584, Note_on_c, 9, 40, 100
3, 43584, Note_on_c, 9, 42, 66
3, 43608, Note_off_c, 9, 42, 64
3, 43608, Note_off_c, 9, 40, 64
3, 43632, Note_on_c, 9, 36, 100
3, 43632, Note_on_c, 9, 42, 64
3, 43656, Note_off_c, 9, 42, 64
3, 43656, Note_off_c, 9, 36, 64
3, 43680, Note_on_c, 9, 42, 62
3, 43704, Note_off_c, 9, 42, 64
3, 43728, Note_on_c, 9, 42, 62
3, 43752, Note_off_c, 9, 42, 64
3, 43776, Note_on_c, 9, 40, 100
3, 43776, Note_on_c, 9, 42, 66
3, 43800, Note_off_c, 9, 42, 64
3, 43800, Note_off_c, 9, 40, 64
3, 43824, Note_on_c, 9, 42, 66
3, 43848, Note_off_c, 9, 42, 64
3, 43872, Note_on_c, 9, 42, 66
3, 43896, Note_off_c, 9, 42, 64
3, 43920, Note_on_c, 9, 40, 100
3, 43920, Note_on_c, 9, 42, 66
3, 43944, Note_off_c, 9, 42, 64
3, 43944, Note_off_c, 9, 40, 64
3, 43968, Note_on_c, 9, 42, 66
3, 43992, Note_off_c, 9, 42, 64
3, 44016, Note_on_c, 9, 42, 64
3, 44040, Note_off_c, 9, 42, 64
3, 44064, Note_on_c, 9, 40, 100
3, 44064, Note_on_c, 9, 42, 62
3, 44088, Note_off_c, 9, 42, 64
3, 44088, Note_off_c, 9, 40, 64
3, 44112, Note_on_c, 9, 42, 62
3, 44136, Note_off_c, 9, 42, 64
3, 44160, Note_on_c, 9, 36, 100
3, 44160, Note_on_c, 9, 42, 66
3, 44184, Note_off_c, 9, 42, 64
3, 44184, Note_off_c, 9, 36, 64
3, 44208, Note_on_c, 9, 42, 66
3, 44232, Note_off_c, 9, 42, 64
3, 44256, Note_on_c, 9, 42, 66
3, 44280, Note_off_c, 9, 42, 64
3, 44304, Note_on_c, 9, 42, 66
3, 44328, Note_off_c, 9, 42, 64
3, 44352, Note_on_c, 9, 40, 100
3, 44352, Note_on_c, 9, 42, 66
3, 44376, Note_off_c, 9, 42, 64
3, 44376, Note_off_c, 9, 40, 64
3, 44400, Note_on_c, 9, 42, 64
3, 44424, Note_off_c, 9, 42, 64
3, 44448, Note_on_c, 9, 42, 62
3, 44472, Note_off_c, 9, 42, 64
3, 44496, Note_on_c, 9, 42, 62
3, 44520, Note_off_c, 9, 42, 64
3, 44544, Note_on_c, 9, 36, 100
3, 44544, Note_on_c, 9, 42, 66
3, 44568, Note_off_c, 9, 42, 64
3, 44568, Note_off_c, 9, 36, 64
3, 44592, Note_on_c, 9, 42, 66
3, 44616, Note_off_c, 9, 42, 64
3, 44640, Note_on_c, 9, 42, 66
3, 44664, Note_off_c, 9, 42, 64
3, 44688, Note_on_c, 9, 42, 66
3, 44712, Note_off_c, 9, 42, 64
3, 44736, Note_on_c, 9, 40, 100
3, 44736, Note_on_c, 9, 42, 66
3, 44760, Note_off_c, 9, 42, 64
3, 44760, Note_off_c, 9, 40, 64
3, 44784, Note_on_c, 9, 36, 100
3, 44784, Note_on_c, 9, 42, 64
3, 44808, Note_off_c, 9, 42, 64
3, 44808, Note_off_c, 9, 36, 64
3, 44832, Note_on_c, 9, 42, 62
3, 44856, Note_off_c, 9, 42, 64
3, 44880, Note_on_c, 9, 42, 62
3, 44904, Note_off_c, 9, 42, 64
3, 44928, Note_on_c, 9, 40, 100
3, 44928, Note_on_c, 9, 42, 66
3, 44952, Note_off_c, 9, 42, 64
3, 44952, Note_off_c, 9, 40, 64
3, 44976, Note_on_c, 9, 42, 66
3, 45000, Note_off_c, 9, 42, 64
3, 45024, Note_on_c, 9, 42, 66
3, 45048, Note_off_c, 9, 42, 64
3, 45072, Note_on_c, 9, 40, 100
3, 45072, Note_on_c, 9, 42, 66
3, 45096, Note_off_c, 9, 42, 64
3, 45096, Note_off_c, 9, 40, 64
3, 45120, Note_on_c, 9, 42, 66
3, 45144, Note_off_c, 9, 42, 64
3, 45168, Note_on_c, 9, 42, 64
3, 45192, Note_off_c, 9, 42, 64
3, 45216, Note_on_c, 9, 40, 100
3, 45216, Note_on_c, 9, 42, 62
3, 45240, Note_off_c, 9, 42, 64
3, 45240, Note_off_c, 9, 40, 64
3, 45264, Note_on_c, 9, 42, 62
3, 45288, Note_off_c, 9, 42, 64
3, 45312, Note_on_c, 9, 40, 100
3, 45312, Note_on_c, 9, 42, 66
3, 45336, Note_off_c, 9, 42, 64
3, 45336, Note_off_c, 9, 40, 64
3, 45360, Note_on_c, 9, 40, 100
3, 45360, Note_on_c, 9, 42, 66
3, 45384, Note_off_c, 9, 42, 64
3, 45384, Note_off_c, 9, 40, 64
3, 45408, Note_on_c, 9, 40, 100
3, 45408, Note_on_c, 9, 42, 66
3, 45432, Note_off_c, 9, 42, 64
3, 45432, Note_off_c, 9, 40, 64
3, 45456, Note_on_c, 9, 40, 100
3, 45456, Note_on_c, 9, 42, 66
3, 45480, Note_off_c, 9, 42, 64
3, 45480, Note_off_c, 9, 40, 64
3, 45504, Note_on_c, 9, 40, 100
3, 45504, Note_on_c, 9, 42, 66
3, 45528, Note_off_c, 9, 42, 64
3, 45528, Note_off_c, 9, 40, 64
3, 45552, Note_on_c, 9, 40, 100
3, 45552, Note_on_c, 9, 42, 64
3, 45576, Note_off_c, 9, 42, 64
3, 45576, Note_off_c, 9, 40, 64
3, 45600, Note_on_c, 9, 40, 100
3, 45600, Note_on_c, 9, 42, 62
3, 45624, Note_off_c, 9, 42, 64
3, 45624, Note_off_c, 9, 40, 64
3, 45648, Note_on_c, 9, 40, 100
3, 45648, Note_on_c, 9, 42, 62
3, 45672, Note_off_c, 9, 42, 64
3, 45672, Note_off_c, 9, 40, 64
3, 45696, Note_on_c, 9, 40, 100
3, 45696, Note_on_c, 9, 37, 102
3, 45696, Note_on_c, 9, 42, 66
3, 45720, Note_off_c, 9, 42, 64
3, 45720, Note_off_c, 9, 37, 64
3, 45720, Note_off_c, 9, 40, 64
3, 45744, Note_on_c, 9, 40, 100
3, 45744, Note_on_c, 9, 42, 66
3, 45768, Note_off_c, 9, 42, 64
3, 45768, Note_off_c, 9, 40, 64
3, 45792, Note_on_c, 9, 40, 100
3, 45792, Note_on_c, 9, 42, 100
3, 45792, Note_on_c, 9, 42, 66
3, 45816, Note_off_c, 9, 42, 64
3, 45816, Note_off_c, 9, 42, 64
3, 45816, Note_off_c, 9, 40, 64
3, 45840, Note_on_c, 9, 40, 100
3, 45840, Note_on_c, 9, 42, 100
3, 45840, Note_on_c, 9, 42, 66
3, 45864, Note_off_c, 9, 42, 64
3, 45864, Note_off_c, 9, 42, 64
3, 45864, Note_off_c, 9, 40, 64
3, 45888, Note_on_c, 9, 40, 100
3, 45888, Note_on_c, 9, 42, 66
3, 45912, Note_off_c, 9, 42, 64
3, 45912, Note_off_c, 9, 40, 64
3, 45936, Note_on_c, 9, 40, 100
3, 45936, Note_on_c, 9, 42, 64
3, 45960, Note_off_c, 9, 42, 64
3, 45960, Note_off_c, 9, 40, 64
3, 45984, Note_on_c, 9, 40, 100
3, 45984, Note_on_c, 9, 42, 62
3, 46008, Note_off_c, 9, 42, 64
3, 46008, Note_off_c, 9, 40, 64
3, 46032, Note_on_c, 9, 40, 100
3, 46032, Note_on_c, 9, 42, 62
3, 46056, Note_off_c, 9, 42, 64
3, 46056, Note_off_c, 9, 40, 64
3, 46080, Note_on_c, 9, 36, 100
3, 46104, Note_off_c, 9, 36, 64
3, 46272, Note_on_c, 9, 40, 100
3, 46296, Note_off_c, 9, 40, 64
3, 46512, Note_on_c, 9, 36, 100
3, 46536, Note_off_c, 9, 36, 64
3, 46656, Note_on_c, 9, 40, 100
3, 46680, Note_off_c, 9, 40, 64
3, 46704, Note_on_c, 9, 36, 100
3, 46728, Note_off_c, 9, 36, 64
3, 46848, Note_on_c, 9, 40, 100
3, 46872, Note_off_c, 9, 40, 64
3, 46992, Note_on_c, 9, 40, 100
3, 47016, Note_off_c, 9, 40, 64
3, 47136, Note_on_c, 9, 40, 100
3, 47160, Note_off_c, 9, 40, 64
3, 47232, Note_on_c, 9, 36, 100
3, 47256, Note_off_c, 9, 36, 64
3, 47424, Note_on_c, 9, 40, 100
3, 47448, Note_off_c, 9, 40, 64
3, 47616, Note_on_c, 9, 36, 100
3, 47640, Note_off_c, 9, 36, 64
3, 47808, Note_on_c, 9, 40, 100
3, 47832, Note_off_c, 9, 40, 64
3, 47856, Note_on_c, 9, 36, 100
3, 47880, Note_off_c, 9, 36, 64
3, 48000, Note_on_c, 9, 40, 100
3, 48024, Note_off_c, 9, 40, 64
3, 48144, Note_on_c, 9, 40, 100
3, 48168, Note_off_c, 9, 40, 64
3, 48288, Note_on_c, 9, 40, 100
3, 48312, Note_off_c, 9, 40, 64
3, 48384, Note_on_c, 9, 40, 100
3, 48408, Note_off_c, 9, 40, 64
3, 48432, Note_on_c, 9, 40, 100
3, 48456, Note_off_c, 9, 40, 64
3, 48480, Note_on_c, 9, 40, 100
3, 48504, Note_off_c, 9, 40, 64
3, 48528, Note_on_c, 9, 40, 100
3, 48552, Note_off_c, 9, 40, 64
3, 48576, Note_on_c, 9, 40, 100
3, 48600, Note_off_c, 9, 40, 64
3, 48624, Note_on_c, 9, 40, 100
3, 48648, Note_off_c, 9, 40, 64
3, 48672, Note_on_c, 9, 40, 100
3, 48696, Note_off_c, 9, 40, 64
3, 48720, Note_on_c, 9, 40, 100
3, 48744, Note_off_c, 9, 40, 64
3, 48768, Note_on_c, 9, 40, 100
3, 48768, Note_on_c, 9, 37, 102
3, 48792, Note_off_c, 9, 37, 64
3, 48792, Note_off_c, 9, 40, 64
3, 48816, Note_on_c, 9, 40, 100
3, 48840, Note_off_c, 9, 40, 64
3, 48864, Note_on_c, 9, 40, 100
3, 48864, Note_on_c, 9, 42, 100
3, 48888, Note_off_c, 9, 42, 64
3, 48888, Note_off_c, 9, 40, 64
3, 48912, Note_on_c, 9, 40, 100
3, 48912, Note_on_c, 9, 42, 100
3, 48936, Note_off_c, 9, 42, 64
3, 48936, Note_off_c, 9, 40, 64
3, 48960, Note_on_c, 9, 40, 100
3, 48984, Note_off_c, 9, 40, 64
3, 49008, Note_on_c, 9, 40, 100
3, 49032, Note_off_c, 9, 40, 64
3, 49056, Note_on_c, 9, 40, 100
3, 49080, Note_off_c, 9, 40, 64
3, 49104, Note_on_c, 9, 40, 100
3, 49128, Note_off_c, 9, 40, 64
3, 49152, Note_on_c, 9, 36, 100
3, 49152, Note_on_c, 9, 42, 66
3, 49176, Note_off_c, 9, 42, 64
3, 49176, Note_off_c, 9, 36, 64
3, 49200, Note_on_c, 9, 42, 66
3, 49224, Note_off_c, 9, 42, 64
3, 49248, Note_on_c, 9, 42, 66
3, 49272, Note_off_c, 9, 42, 64
3, 49296, Note_on_c, 9, 42, 66
3, 49320, Note_off_c, 9, 42, 64
3, 49344, Note_on_c, 9, 40, 100
3, 49344, Note_on_c, 9, 42, 66
3, 49368, Note_off_c, 9, 42, 64
3, 49368, Note_off_c, 9, 40, 64
3, 49392, Note_on_c, 9, 42, 64
3, 49416, Note_off_c, 9, 42, 64
3, 49440, Note_on_c, 9, 42, 62
3, 49464, Note_off_c, 9, 42, 64
3, 49488, Note_on_c, 9, 42, 62
3, 49512, Note_off_c, 9, 42, 64
3, 49536, Note_on_c, 9, 42, 66
3, 49560, Note_off_c, 9, 42, 64
3, 49584, Note_on_c, 9, 36, 100
3, 49584, Note_on_c, 9, 42, 66
3, 49608, Note_off_c, 9, 42, 64
3, 49608, Note_off_c, 9, 36, 64
3, 49632, Note_on_c, 9, 42, 66
3, 49656, Note_off_c, 9, 42, 64
3, 49680, Note_on_c, 9, 42, 66
3, 49704, Note_off_c, 9, 42, 64
3, 49728, Note_on_c, 9, 40, 100
3, 49728, Note_on_c, 9, 42, 66
3, 49752, Note_off_c, 9, 42, 64
3, 49752, Note_off_c, 9, 40, 64
3, 49776, Note_on_c, 9, 36, 100
3, 49776, Note_on_c, 9, 42, 64
3, 49800, Note_off_c, 9, 42, 64
3, 49800, Note_off_c, 9, 36, 64
3, 49824, Note_on_c, 9, 42, 62
3, 49848, Note_off_c, 9, 42, 64
3, 49872, Note_on_c, 9, 42, 62
3, 49896, Note_off_c, 9, 42, 64
3, 49920, Note_on_c, 9, 40, 100
3, 49920, Note_on_c, 9, 42, 66
3, 49944, Note_off_c, 9, 42, 64
3, 49944, Note_off_c, 9, 40, 64
3, 49968, Note_on_c, 9, 42, 66
3, 49992, Note_off_c, 9, 42, 64
3, 50016, Note_on_c, 9, 42, 66
3, 50040, Note_off_c, 9, 42, 64
3, 50064, Note_on_c, 9, 40, 100
3, 50064, Note_on_c, 9, 42, 66
3, 50088, Note_off_c, 9, 42, 64
3, 50088, Note_off_c, 9, 40, 64
3, 50112, Note_on_c, 9, 42, 66
3, 50136, Note_off_c, 9, 42, 64
3, 50160, Note_on_c, 9, 42, 64
3, 50184, Note_off_c, 9, 42, 64
3, 50208, Note_on_c, 9, 40, 100
3, 50208, Note_on_c, 9, 42, 62
3, 50232, Note_off_c, 9, 42, 64
3, 50232, Note_off_c, 9, 40, 64
3, 50256, Note_on_c, 9, 42, 62
3, 50280, Note_off_c, 9, 42, 64
3, 50304, Note_on_c, 9, 36, 100
3, 50304, Note_on_c, 9, 42, 66
3, 50328, Note_off_c, 9, 42, 64
3, 50328, Note_off_c, 9, 36, 64
3, 50352, Note_on_c, 9, 42, 66
3, 50376, Note_off_c, 9, 42, 64
3, 50400, Note_on_c, 9, 42, 66
3, 50424, Note_off_c, 9, 42, 64
3, 50448, Note_on_c, 9, 42, 66
3, 50472, Note_off_c, 9, 42, 64
3, 50496, Note_on_c, 9, 40, 100
3, 50496, Note_on_c, 9, 42, 66
3, 50520, Note_off_c, 9, 42, 64
3, 50520, Note_off_c, 9, 40, 64
3, 50544, Note_on_c, 9, 42, 64
3, 50568, Note_off_c, 9, 42, 64
3, 50592, Note_on_c, 9, 42, 62
3, 50616, Note_off_c, 9, 42, 64
3, 50640, Note_on_c, 9, 42, 62
3, 50664, Note_off_c, 9, 42, 64
3, 50688, Note_on_c, 9, 36, 100
3, 50688, Note_on_c, 9, 42, 66
3, 50712, Note_off_c, 9, 42, 64
3, 50712, Note_off_c, 9, 36, 64
3, 50736, Note_on_c, 9, 42, 66
3, 50760, Note_off_c, 9, 42, 64
3, 50784, Note_on_c, 9, 42, 66
3, 50808, Note_off_c, 9, 42, 64
3, 50832, Note_on_c, 9, 42, 66
3, 50856, Note_off_c, 9, 42, 64
3, 50880, Note_on_c, 9, 40, 100
3, 50880, Note_on_c, 9, 42, 66
3, 50904, Note_off_c, 9, 42, 64
3, 50904, Note_off_c, 9, 40, 64
3, 50928, Note_on_c, 9, 36, 100
3, 50928, Note_on_c, 9, 42, 64
3, 50952, Note_off_c, 9, 42, 64
3, 50952, Note_off_c, 9, 36, 64
3, 50976, Note_on_c, 9, 42, 62
3, 51000, Note_off_c, 9, 42, 64
3, 51024, Note_on_c, 9, 42, 62
3, 51048, Note_off_c, 9, 42, 64
3, 51072, Note_on_c, 9, 40, 100
3, 51072, Note_on_c, 9, 42, 66
3, 51096, Note_off_c, 9, 42, 64
3, 51096, Note_off_c, 9, 40, 64
3, 51120, Note_on_c, 9, 42, 66
3, 51144, Note_off_c, 9, 42, 64
3, 51168, Note_on_c, 9, 42, 66
3, 51192, Note_off_c, 9, 42, 64
3, 51216, Note_on_c, 9, 40, 100
3, 51216, Note_on_c, 9, 42, 66
3, 51240, Note_off_c, 9, 42, 64
3, 51240, Note_off_c, 9, 40, 64
3, 51264, Note_on_c, 9, 42, 66
3, 51288, Note_off_c, 9, 42, 64
3, 51312, Note_on_c, 9, 42, 64
3, 51336, Note_off_c, 9, 42, 64
3, 51360, Note_on_c, 9, 40, 100
3, 51360, Note_on_c, 9, 42, 62
3, 51384, Note_off_c, 9, 42, 64
3, 51384, Note_off_c, 9, 40, 64
3, 51408, Note_on_c, 9, 42, 62
3, 51432, Note_off_c, 9, 42, 64
3, 51456, Note_on_c, 9, 40, 100
3, 51456, Note_on_c, 9, 42, 66
3, 51480, Note_off_c, 9, 42, 64
3, 51480, Note_off_c, 9, 40, 64
3, 51504, Note_on_c, 9, 40, 100
3, 51504, Note_on_c, 9, 42, 66
3, 51528, Note_off_c, 9, 42, 64
3, 51528, Note_off_c, 9, 40, 64
3, 51552, Note_on_c, 9, 40, 100
3, 51552, Note_on_c, 9, 42, 66
3, 51576, Note_off_c, 9, 42, 64
3, 51576, Note_off_c, 9, 40, 64
3, 51600, Note_on_c, 9, 40, 100
3, 51600, Note_on_c, 9, 42, 66
3, 51624, Note_off_c, 9, 42, 64
3, 51624, Note_off_c, 9, 40, 64
3, 51648, Note_on_c, 9, 40, 100
3, 51648, Note_on_c, 9, 42, 66
3, 51672, Note_off_c, 9, 42, 64
3, 51672, Note_off_c, 9, 40, 64
3, 51696, Note_on_c, 9, 40, 100
3, 51696, Note_on_c, 9, 42, 64
3, 51720, Note_off_c, 9, 42, 64
3, 51720, Note_off_c, 9, 40, 64
3, 51744, Note_on_c, 9, 40, 100
3, 51744, Note_on_c, 9, 42, 62
3, 51768, Note_off_c, 9, 42, 64
3, 51768, Note_off_c, 9, 40, 64
3, 51792, Note_on_c, 9, 40, 100
3, 51792, Note_on_c, 9, 42, 62
3, 51816, Note_off_c, 9, 42, 64
3, 51816, Note_off_c, 9, 40, 64
3, 51840, Note_on_c, 9, 40, 100
3, 51840, Note_on_c, 9, 37, 102
3, 51840, Note_on_c, 9, 42, 66
3, 51864, Note_off_c, 9, 42, 64
3, 51864, Note_off_c, 9, 37, 64
3, 51864, Note_off_c, 9, 40, 64
3, 51888, Note_on_c, 9, 40, 100
3, 51888, Note_on_c, 9, 42, 66
3, 51912, Note_off_c, 9, 42, 64
3, 51912, Note_off_c, 9, 40, 64
3, 51936, Note_on_c, 9, 40, 100
3, 51936, Note_on_c, 9, 42, 100
3, 51936, Note_on_c, 9, 42, 66
3, 51960, Note_off_c, 9, 42, 64
3, 51960, Note_off_c, 9, 42, 64
3, 51960, Note_off_c, 9, 40, 64
3, 51984, Note_on_c, 9, 40, 100
3, 51984, Note_on_c, 9, 42, 100
3, 51984, Note_on_c, 9, 42, 66
3, 52008, Note_off_c, 9, 42, 64
3, 52008, Note_off_c, 9, 40, 64
3, 52008, Note_off_c, 9, 42, 64
3, 52032, Note_on_c, 9, 40, 100
3, 52032, Note_on_c, 9, 42, 66
3, 52056, Note_off_c, 9, 42, 64
3, 52056, Note_off_c, 9, 40, 64
3, 52080, Note_on_c, 9, 40, 100
3, 52080, Note_on_c, 9, 42, 64
3, 52104, Note_off_c, 9, 42, 64
3, 52104, Note_off_c, 9, 40, 64
3, 52128, Note_on_c, 9, 40, 100
3, 52128, Note_on_c, 9, 42, 62
3, 52152, Note_off_c, 9, 42, 64
3, 52152, Note_off_c, 9, 40, 64
3, 52176, Note_on_c, 9, 40, 100
3, 52176, Note_on_c, 9, 42, 62
3, 52200, Note_off_c, 9, 42, 64
3, 52200, Note_off_c, 9, 40, 64
3, 52224, Note_on_c, 9, 36, 100
3, 52224, Note_on_c, 9, 42, 66
3, 52248, Note_off_c, 9, 42, 64
3, 52248, Note_off_c, 9, 36, 64
3, 52272, Note_on_c, 9, 42, 66
3, 52296, Note_off_c, 9, 42, 64
3, 52320, Note_on_c, 9, 42, 66
3, 52344, Note_off_c, 9, 42, 64
3, 52368, Note_on_c, 9, 42, 66
3, 52392, Note_off_c, 9, 42, 64
3, 52416, Note_on_c, 9, 40, 100
3, 52416, Note_on_c, 9, 42, 66
3, 52440, Note_off_c, 9, 42, 64
3, 52440, Note_off_c, 9, 40, 64
3, 52464, Note_on_c, 9, 42, 64
3, 52488, Note_off_c, 9, 42, 64
3, 52512, Note_on_c, 9, 42, 62
3, 52536, Note_off_c, 9, 42, 64
3, 52560, Note_on_c, 9, 42, 62
3, 52584, Note_off_c, 9, 42, 64
3, 52608, Note_on_c, 9, 42, 66
3, 52632, Note_off_c, 9, 42, 64
3, 52656, Note_on_c, 9, 36, 100
3, 52656, Note_on_c, 9, 42, 66
3, 52680, Note_off_c, 9, 42, 64
3, 52680, Note_off_c, 9, 36, 64
3, 52704, Note_on_c, 9, 42, 66
3, 52728, Note_off_c, 9, 42, 64
3, 52752, Note_on_c, 9, 42, 66
3, 52776, Note_off_c, 9, 42, 64
3, 52800, Note_on_c, 9, 40, 100
3, 52800, Note_on_c, 9, 42, 66
3, 52824, Note_off_c, 9, 42, 64
3, 52824, Note_off_c, 9, 40, 64
3, 52848, Note_on_c, 9, 36, 100
3, 52848, Note_on_c, 9, 42, 64
3, 52872, Note_off_c, 9, 42, 64
3, 52872, Note_off_c, 9, 36, 64
3, 52896, Note_on_c, 9, 42, 62
3, 52920, Note_off_c, 9, 42, 64
3, 52944, Note_on_c, 9, 42, 62
3, 52968, Note_off_c, 9, 42, 64
3, 52992, Note_on_c, 9, 40, 100
3, 52992, Note_on_c, 9, 42, 66
3, 53016, Note_off_c, 9, 42, 64
3, 53016, Note_off_c, 9, 40, 64
3, 53040, Note_on_c, 9, 42, 66
3, 53064, Note_off_c, 9, 42, 64
3, 53088, Note_on_c, 9, 42, 66
3, 53112, Note_off_c, 9, 42, 64
3, 53136, Note_on_c, 9, 40, 100
3, 53136, Note_on_c, 9, 42, 66
3, 53160, Note_off_c, 9, 42, 64
3, 53160, Note_off_c, 9, 40, 64
3, 53184, Note_on_c, 9, 42, 66
3, 53208, Note_off_c, 9, 42, 64
3, 53232, Note_on_c, 9, 42, 64
3, 53256, Note_off_c, 9, 42, 64
3, 53280, Note_on_c, 9, 40, 100
3, 53280, Note_on_c, 9, 42, 62
3, 53304, Note_off_c, 9, 42, 64
3, 53304, Note_off_c, 9, 40, 64
3, 53328, Note_on_c, 9, 42, 62
3, 53352, Note_off_c, 9, 42, 64
3, 53376, Note_on_c, 9, 36, 100
3, 53376, Note_on_c, 9, 42, 66
3, 53400, Note_off_c, 9, 42, 64
3, 53400, Note_off_c, 9, 36, 64
3, 53424, Note_on_c, 9, 42, 66
3, 53448, Note_off_c, 9, 42, 64
3, 53472, Note_on_c, 9, 42, 66
3, 53496, Note_off_c, 9, 42, 64
3, 53520, Note_on_c, 9, 42, 66
3, 53544, Note_off_c, 9, 42, 64
3, 53568, Note_on_c, 9, 40, 100
3, 53568, Note_on_c, 9, 42, 66
3, 53592, Note_off_c, 9, 42, 64
3, 53592, Note_off_c, 9, 40, 64
3, 53616, Note_on_c, 9, 42, 64
3, 53640, Note_off_c, 9, 42, 64
3, 53664, Note_on_c, 9, 42, 62
3, 53688, Note_off_c, 9, 42, 64
3, 53712, Note_on_c, 9, 42, 62
3, 53736, Note_off_c, 9, 42, 64
3, 53760, Note_on_c, 9, 36, 100
3, 53760, Note_on_c, 9, 42, 66
3, 53784, Note_off_c, 9, 42, 64
3, 53784, Note_off_c, 9, 36, 64
3, 53808, Note_on_c, 9, 42, 66
3, 53832, Note_off_c, 9, 42, 64
3, 53856, Note_on_c, 9, 42, 66
3, 53880, Note_off_c, 9, 42, 64
3, 53904, Note_on_c, 9, 42, 66
3, 53928, Note_off_c, 9, 42, 64
3, 53952, Note_on_c, 9, 40, 100
3, 53952, Note_on_c, 9, 42, 66
3, 53976, Note_off_c, 9, 42, 64
3, 53976, Note_off_c, 9, 40, 64
3, 54000, Note_on_c, 9, 36, 100
3, 54000, Note_on_c, 9, 42, 64
3, 54024, Note_off_c, 9, 42, 64
3, 54024, Note_off_c, 9, 36, 64
3, 54048, Note_on_c, 9, 42, 62
3, 54072, Note_off_c, 9, 42, 64
3, 54096, Note_on_c, 9, 42, 62
3, 54120, Note_off_c, 9, 42, 64
3, 54144, Note_on_c, 9, 40, 100
3, 54144, Note_on_c, 9, 42, 66
3, 54168, Note_off_c, 9, 42, 64
3, 54168, Note_off_c, 9, 40, 64
3, 54192, Note_on_c, 9, 42, 66
3, 54216, Note_off_c, 9, 42, 64
3, 54240, Note_on_c, 9, 42, 66
3, 54264, Note_off_c, 9, 42, 64
3, 54288, Note_on_c, 9, 40, 100
3, 54288, Note_on_c, 9, 42, 66
3, 54312, Note_off_c, 9, 42, 64
3, 54312, Note_off_c, 9, 40, 64
3, 54336, Note_on_c, 9, 42, 66
3, 54360, Note_off_c, 9, 42, 64
3, 54384, Note_on_c, 9, 42, 64
3, 54408, Note_off_c, 9, 42, 64
3, 54432, Note_on_c, 9, 40, 100
3, 54432, Note_on_c, 9, 42, 62
3, 54456, Note_off_c, 9, 42, 64
3, 54456, Note_off_c, 9, 40, 64
3, 54480, Note_on_c, 9, 42, 62
3, 54504, Note_off_c, 9, 42, 64
3, 54528, Note_on_c, 9, 40, 100
3, 54528, Note_on_c, 9, 42, 66
3, 54552, Note_off_c, 9, 42, 64
3, 54552, Note_off_c, 9, 40, 64
3, 54576, Note_on_c, 9, 40, 100
3, 54576, Note_on_c, 9, 42, 66
3, 54600, Note_off_c, 9, 42, 64
3, 54600, Note_off_c, 9, 40, 64
3, 54624, Note_on_c, 9, 40, 100
3, 54624, Note_on_c, 9, 42, 66
3, 54648, Note_off_c, 9, 42, 64
3, 54648, Note_off_c, 9, 40, 64
3, 54672, Note_on_c, 9, 40, 100
3, 54672, Note_on_c, 9, 42, 66
3, 54696, Note_off_c, 9, 42, 64
3, 54696, Note_off_c, 9, 40, 64
3, 54720, Note_on_c, 9, 40, 100
3, 54720, Note_on_c, 9, 42, 66
3, 54744, Note_off_c, 9, 42, 64
3, 54744, Note_off_c, 9, 40, 64
3, 54768, Note_on_c, 9, 40, 100
3, 54768, Note_on_c, 9, 42, 64
3, 54792, Note_off_c, 9, 42, 64
3, 54792, Note_off_c, 9, 40, 64
3, 54816, Note_on_c, 9, 40, 100
3, 54816, Note_on_c, 9, 42, 62
3, 54840, Note_off_c, 9, 42, 64
3, 54840, Note_off_c, 9, 40, 64
3, 54864, Note_on_c, 9, 40, 100
3, 54864, Note_on_c, 9, 42, 62
3, 54888, Note_off_c, 9, 42, 64
3, 54888, Note_off_c, 9, 40, 64
3, 54912, Note_on_c, 9, 40, 100
3, 54912, Note_on_c, 9, 37, 102
3, 54912, Note_on_c, 9, 42, 66
3, 54936, Note_off_c, 9, 42, 64
3, 54936, Note_off_c, 9, 37, 64
3, 54936, Note_off_c, 9, 40, 64
3, 54960, Note_on_c, 9, 40, 100
3, 54960, Note_on_c, 9, 42, 66
3, 54984, Note_off_c, 9, 42, 64
3, 54984, Note_off_c, 9, 40, 64
3, 55008, Note_on_c, 9, 40, 100
3, 55008, Note_on_c, 9, 42, 100
3, 55008, Note_on_c, 9, 42, 66
3, 55032, Note_off_c, 9, 42, 64
3, 55032, Note_off_c, 9, 42, 64
3, 55032, Note_off_c, 9, 40, 64
3, 55056, Note_on_c, 9, 40, 100
3, 55056, Note_on_c, 9, 42, 100
3, 55056, Note_on_c, 9, 42, 66
3, 55080, Note_off_c, 9, 42, 64
3, 55080, Note_off_c, 9, 40, 64
3, 55080, Note_off_c, 9, 42, 64
3, 55104, Note_on_c, 9, 40, 100
3, 55104, Note_on_c, 9, 42, 66
3, 55128, Note_off_c, 9, 42, 64
3, 55128, Note_off_c, 9, 40, 64
3, 55152, Note_on_c, 9, 40, 100
3, 55152, Note_on_c, 9, 42, 64
3, 55176, Note_off_c, 9, 42, 64
3, 55176, Note_off_c, 9, 40, 64
3, 55200, Note_on_c, 9, 40, 100
3, 55200, Note_on_c, 9, 42, 62
3, 55224, Note_off_c, 9, 42, 64
3, 55224, Note_off_c, 9, 40, 64
3, 55248, Note_on_c, 9, 40, 100
3, 55248, Note_on_c, 9, 42, 62
3, 55272, Note_off_c, 9, 42, 64
3, 55272, Note_off_c, 9, 40, 64
3, 55296, Note_on_c, 9, 36, 100
3, 55296, Note_on_c, 9, 42, 66
3, 55320, Note_off_c, 9, 42, 64
3, 55320, Note_off_c, 9, 36, 64
3, 55344, Note_on_c, 9, 42, 66
3, 55368, Note_off_c, 9, 42, 64
3, 55392, Note_on_c, 9, 42, 66
3, 55416, Note_off_c, 9, 42, 64
3, 55440, Note_on_c, 9, 42, 66
3, 55464, Note_off_c, 9, 42, 64
3, 55488, Note_on_c, 9, 40, 100
3, 55488, Note_on_c, 9, 42, 66
3, 55512, Note_off_c, 9, 42, 64
3, 55512, Note_off_c, 9, 40, 64
3, 55536, Note_on_c, 9, 42, 64
3, 55560, Note_off_c, 9, 42, 64
3, 55584, Note_on_c, 9, 42, 62
3, 55608, Note_off_c, 9, 42, 64
3, 55632, Note_on_c, 9, 42, 62
3, 55656, Note_off_c, 9, 42, 64
3, 55680, Note_on_c, 9, 42, 66
3, 55704, Note_off_c, 9, 42, 64
3, 55728, Note_on_c, 9, 36, 100
3, 55728, Note_on_c, 9, 42, 66
3, 55752, Note_off_c, 9, 42, 64
3, 55752, Note_off_c, 9, 36, 64
3, 55776, Note_on_c, 9, 42, 66
3, 55800, Note_off_c, 9, 42, 64
3, 55824, Note_on_c, 9, 42, 66
3, 55848, Note_off_c, 9, 42, 64
3, 55872, Note_on_c, 9, 40, 100
3, 55872, Note_on_c, 9, 42, 66
3, 55896, Note_off_c, 9, 42, 64
3, 55896, Note_off_c, 9, 40, 64
3, 55920, Note_on_c, 9, 36, 100
3, 55920, Note_on_c, 9, 42, 64
3, 55944, Note_off_c, 9, 42, 64
3, 55944, Note_off_c, 9, 36, 64
3, 55968, Note_on_c, 9, 42, 62
3, 55992, Note_off_c, 9, 42, 64
3, 56016, Note_on_c, 9, 42, 62
3, 56040, Note_off_c, 9, 42, 64
3, 56064, Note_on_c, 9, 40, 100
3, 56064, Note_on_c, 9, 42, 66
3, 56088, Note_off_c, 9, 42, 64
3, 56088, Note_off_c, 9, 40, 64
3, 56112, Note_on_c, 9, 42, 66
3, 56136, Note_off_c, 9, 42, 64
3, 56160, Note_on_c, 9, 42, 66
3, 56184, Note_off_c, 9, 42, 64
3, 56208, Note_on_c, 9, 40, 100
3, 56208, Note_on_c, 9, 42, 66
3, 56232, Note_off_c, 9, 42, 64
3, 56232, Note_off_c, 9, 40, 64
3, 56256, Note_on_c, 9, 42, 66
3, 56280, Note_off_c, 9, 42, 64
3, 56304, Note_on_c, 9, 42, 64
3, 56328, Note_off_c, 9, 42, 64
3, 56352, Note_on_c, 9, 40, 100
3, 56352, Note_on_c, 9, 42, 62
3, 56376, Note_off_c, 9, 42, 64
3, 56376, Note_off_c, 9, 40, 64
3, 56400, Note_on_c, 9, 42, 62
3, 56424, Note_off_c, 9, 42, 64
3, 56448, Note_on_c, 9, 36, 100
3, 56448, Note_on_c, 9, 42, 66
3, 56472, Note_off_c, 9, 42, 64
3, 56472, Note_off_c, 9, 36, 64
3, 56496, Note_on_c, 9, 42, 66
3, 56520, Note_off_c, 9, 42, 64
3, 56544, Note_on_c, 9, 42, 66
3, 56568, Note_off_c, 9, 42, 64
3, 56592, Note_on_c, 9, 42, 66
3, 56616, Note_off_c, 9, 42, 64
3, 56640, Note_on_c, 9, 40, 100
3, 56640, Note_on_c, 9, 42, 66
3, 56664, Note_off_c, 9, 42, 64
3, 56664, Note_off_c, 9, 40, 64
3, 56688, Note_on_c, 9, 42, 64
3, 56712, Note_off_c, 9, 42, 64
3, 56736, Note_on_c, 9, 42, 62
3, 56760, Note_off_c, 9, 42, 64
3, 56784, Note_on_c, 9, 42, 62
3, 56808, Note_off_c, 9, 42, 64
3, 56832, Note_on_c, 9, 36, 100
3, 56832, Note_on_c, 9, 42, 66
3, 56856, Note_off_c, 9, 42, 64
3, 56856, Note_off_c, 9, 36, 64
3, 56880, Note_on_c, 9, 42, 66
3, 56904, Note_off_c, 9, 42, 64
3, 56928, Note_on_c, 9, 42, 66
3, 56952, Note_off_c, 9, 42, 64
3, 56976, Note_on_c, 9, 42, 66
3, 57000, Note_off_c, 9, 42, 64
3, 57024, Note_on_c, 9, 40, 100
3, 57024, Note_on_c, 9, 42, 66
3, 57048, Note_off_c, 9, 42, 64
3, 57048, Note_off_c, 9, 40, 64
3, 57072, Note_on_c, 9, 36, 100
3, 57072, Note_on_c, 9, 42, 64
3, 57096, Note_off_c, 9, 42, 64
3, 57096, Note_off_c, 9, 36, 64
3, 57120, Note_on_c, 9, 42, 62
3, 57144, Note_off_c, 9, 42, 64
3, 57168, Note_on_c, 9, 42, 62
3, 57192, Note_off_c, 9, 42, 64
3, 57216, Note_on_c, 9, 40, 100
3, 57216, Note_on_c, 9, 42, 66
3, 57240, Note_off_c, 9, 42, 64
3, 57240, Note_off_c, 9, 40, 64
3, 57264, Note_on_c, 9, 42, 66
3, 57288, Note_off_c, 9, 42, 64
3, 57312, Note_on_c, 9, 42, 66
3, 57336, Note_off_c, 9, 42, 64
3, 57360, Note_on_c, 9, 40, 100
3, 57360, Note_on_c, 9, 42, 66
3, 57384, Note_off_c, 9, 42, 64
3, 57384, Note_off_c, 9, 40, 64
3, 57408, Note_on_c, 9, 42, 66
3, 57432, Note_off_c, 9, 42, 64
3, 57456, Note_on_c, 9, 42, 64
3, 57480, Note_off_c, 9, 42, 64
3, 57504, Note_on_c, 9, 40, 100
3, 57504, Note_on_c, 9, 42, 62
3, 57528, Note_off_c, 9, 42, 64
3, 57528, Note_off_c, 9, 40, 64
3, 57552, Note_on_c, 9, 42, 62
3, 57576, Note_off_c, 9, 42, 64
3, 57600, Note_on_c, 9, 40, 100
3, 57600, Note_on_c, 9, 42, 66
3, 57624, Note_off_c, 9, 42, 64
3, 57624, Note_off_c, 9, 40, 64
3, 57648, Note_on_c, 9, 40, 100
3, 57648, Note_on_c, 9, 42, 66
3, 57672, Note_off_c, 9, 42, 64
3, 57672, Note_off_c, 9, 40, 64
3, 57696, Note_on_c, 9, 40, 100
3, 57696, Note_on_c, 9, 42, 66
3, 57720, Note_off_c, 9, 42, 64
3, 57720, Note_off_c, 9, 40, 64
3, 57744, Note_on_c, 9, 40, 100
3, 57744, Note_on_c, 9, 42, 66
3, 57768, Note_off_c, 9, 42, 64
3, 57768, Note_off_c, 9, 40, 64
3, 57792, Note_on_c, 9, 40, 100
3, 57792, Note_on_c, 9, 42, 66
3, 57816, Note_off_c, 9, 42, 64
3, 57816, Note_off_c, 9, 40, 64
3, 57840, Note_on_c, 9, 40, 100
3, 57840, Note_on_c, 9, 42, 64
3, 57864, Note_off_c, 9, 42, 64
3, 57864, Note_off_c, 9, 40, 64
3, 57888, Note_on_c, 9, 40, 100
3, 57888, Note_on_c, 9, 42, 62
3, 57912, Note_off_c, 9, 42, 64
3, 57912, Note_off_c, 9, 40, 64
3, 57936, Note_on_c, 9, 40, 100
3, 57936, Note_on_c, 9, 42, 62
3, 57960, Note_off_c, 9, 42, 64
3, 57960, Note_off_c, 9, 40, 64
3, 57984, Note_on_c, 9, 40, 100
3, 57984, Note_on_c, 9, 37, 102
3, 57984, Note_on_c, 9, 42, 66
3, 58008, Note_off_c, 9, 42, 64
3, 58008, Note_off_c, 9, 37, 64
3, 58008, Note_off_c, 9, 40, 64
3, 58032, Note_on_c, 9, 40, 100
3, 58032, Note_on_c, 9, 42, 66
3, 58056, Note_off_c, 9, 42, 64
3, 58056, Note_off_c, 9, 40, 64
3, 58080, Note_on_c, 9, 40, 100
3, 58080, Note_on_c, 9, 42, 100
3, 58080, Note_on_c, 9, 42, 66
3, 58104, Note_off_c, 9, 42, 64
3, 58104, Note_off_c, 9, 40, 64
3, 58104, Note_off_c, 9, 42, 64
3, 58128, Note_on_c, 9, 40, 100
3, 58128, Note_on_c, 9, 42, 100
3, 58128, Note_on_c, 9, 42, 66
3, 58152, Note_off_c, 9, 42, 64
3, 58152, Note_off_c, 9, 42, 64
3, 58152, Note_off_c, 9, 40, 64
3, 58176, Note_on_c, 9, 40, 100
3, 58176, Note_on_c, 9, 42, 66
3, 58200, Note_off_c, 9, 42, 64
3, 58200, Note_off_c, 9, 40, 64
3, 58224, Note_on_c, 9, 40, 100
3, 58224, Note_on_c, 9, 42, 64
3, 58248, Note_off_c, 9, 42, 64
3, 58248, Note_off_c, 9, 40, 64
3, 58272, Note_on_c, 9, 40, 100
3, 58272, Note_on_c, 9, 42, 62
3, 58296, Note_off_c, 9, 42, 64
3, 58296, Note_off_c, 9, 40, 64
3, 58320, Note_on_c, 9, 40, 100
3, 58320, Note_on_c, 9, 42, 62
3, 58344, Note_off_c, 9, 42, 64
3, 58344, Note_off_c, 9, 40, 64
3, 58368, Note_on_c, 9, 36, 100
3, 58368, Note_on_c, 9, 42, 66
3, 58392, Note_off_c, 9, 42, 64
3, 58392, Note_off_c, 9, 36, 64
3, 58416, Note_on_c, 9, 42, 66
3, 58440, Note_off_c, 9, 42, 64
3, 58464, Note_on_c, 9, 42, 66
3, 58488, Note_off_c, 9, 42, 64
3, 58512, Note_on_c, 9, 42, 66
3, 58536, Note_off_c, 9, 42, 64
3, 58560, Note_on_c, 9, 40, 100
3, 58560, Note_on_c, 9, 42, 66
3, 58584, Note_off_c, 9, 42, 64
3, 58584, Note_off_c, 9, 40, 64
3, 58608, Note_on_c, 9, 42, 64
3, 58632, Note_off_c, 9, 42, 64
3, 58656, Note_on_c, 9, 42, 62
3, 58680, Note_off_c, 9, 42, 64
3, 58704, Note_on_c, 9, 42, 62
3, 58728, Note_off_c, 9, 42, 64
3, 58752, Note_on_c, 9, 42, 66
3, 58776, Note_off_c, 9, 42, 64
3, 58800, Note_on_c, 9, 36, 100
3, 58800, Note_on_c, 9, 42, 66
3, 58824, Note_off_c, 9, 42, 64
3, 58824, Note_off_c, 9, 36, 64
3, 58848, Note_on_c, 9, 42, 66
3, 58872, Note_off_c, 9, 42, 64
3, 58896, Note_on_c, 9, 42, 66
3, 58920, Note_off_c, 9, 42, 64
3, 58944, Note_on_c, 9, 40, 100
3, 58944, Note_on_c, 9, 42, 66
3, 58968, Note_off_c, 9, 42, 64
3, 58968, Note_off_c, 9, 40, 64
3, 58992, Note_on_c, 9, 36, 100
3, 58992, Note_on_c, 9, 42, 64
3, 59016, Note_off_c, 9, 42, 64
3, 59016, Note_off_c, 9, 36, 64
3, 59040, Note_on_c, 9, 42, 62
3, 59064, Note_off_c, 9, 42, 64
3, 59088, Note_on_c, 9, 42, 62
3, 59112, Note_off_c, 9, 42, 64
3, 59136, Note_on_c, 9, 40, 100
3, 59136, Note_on_c, 9, 42, 66
3, 59160, Note_off_c, 9, 42, 64
3, 59160, Note_off_c, 9, 40, 64
3, 59184, Note_on_c, 9, 42, 66
3, 59208, Note_off_c, 9, 42, 64
3, 59232, Note_on_c, 9, 42, 66
3, 59256, Note_off_c, 9, 42, 64
3, 59280, Note_on_c, 9, 40, 100
3, 59280, Note_on_c, 9, 42, 66
3, 59304, Note_off_c, 9, 42, 64
3, 59304, Note_off_c, 9, 40, 64
3, 59328, Note_on_c, 9, 42, 66
3, 59352, Note_off_c, 9, 42, 64
3, 59376, Note_on_c, 9, 42, 64
3, 59400, Note_off_c, 9, 42, 64
3, 59424, Note_on_c, 9, 40, 100
3, 59424, Note_on_c, 9, 42, 62
3, 59448, Note_off_c, 9, 42, 64
3, 59448, Note_off_c, 9, 40, 64
3, 59472, Note_on_c, 9, 42, 62
3, 59496, Note_off_c, 9, 42, 64
3, 59520, Note_on_c, 9, 36, 100
3, 59520, Note_on_c, 9, 42, 66
3, 59544, Note_off_c, 9, 42, 64
3, 59544, Note_off_c, 9, 36, 64
3, 59568, Note_on_c, 9, 42, 66
3, 59592, Note_off_c, 9, 42, 64
3, 59616, Note_on_c, 9, 42, 66
3, 59640, Note_off_c, 9, 42, 64
3, 59664, Note_on_c, 9, 42, 66
3, 59688, Note_off_c, 9, 42, 64
3, 59712, Note_on_c, 9, 40, 100
3, 59712, Note_on_c, 9, 42, 66
3, 59736, Note_off_c, 9, 42, 64
3, 59736, Note_off_c, 9, 40, 64
3, 59760, Note_on_c, 9, 42, 64
3, 59784, Note_off_c, 9, 42, 64
3, 59808, Note_on_c, 9, 42, 62
3, 59832, Note_off_c, 9, 42, 64
3, 59856, Note_on_c, 9, 42, 62
3, 59880, Note_off_c, 9, 42, 64
3, 59904, Note_on_c, 9, 36, 100
3, 59904, Note_on_c, 9, 42, 66
3, 59928, Note_off_c, 9, 42, 64
3, 59928, Note_off_c, 9, 36, 64
3, 59952, Note_on_c, 9, 42, 66
3, 59976, Note_off_c, 9, 42, 64
3, 60000, Note_on_c, 9, 42, 66
3, 60024, Note_off_c, 9, 42, 64
3, 60048, Note_on_c, 9, 42, 66
3, 60072, Note_off_c, 9, 42, 64
3, 60096, Note_on_c, 9, 40, 100
3, 60096, Note_on_c, 9, 42, 66
3, 60120, Note_off_c, 9, 42, 64
3, 60120, Note_off_c, 9, 40, 64
3, 60144, Note_on_c, 9, 36, 100
3, 60144, Note_on_c, 9, 42, 64
3, 60168, Note_off_c, 9, 42, 64
3, 60168, Note_off_c, 9, 36, 64
3, 60192, Note_on_c, 9, 42, 62
3, 60216, Note_off_c, 9, 42, 64
3, 60240, Note_on_c, 9, 42, 62
3, 60264, Note_off_c, 9, 42, 64
3, 60288, Note_on_c, 9, 40, 100
3, 60288, Note_on_c, 9, 42, 66
3, 60312, Note_off_c, 9, 42, 64
3, 60312, Note_off_c, 9, 40, 64
3, 60336, Note_on_c, 9, 42, 66
3, 60360, Note_off_c, 9, 42, 64
3, 60384, Note_on_c, 9, 42, 66
3, 60408, Note_off_c, 9, 42, 64
3, 60432, Note_on_c, 9, 40, 100
3, 60432, Note_on_c, 9, 42, 66
3, 60456, Note_off_c, 9, 42, 64
3, 60456, Note_off_c, 9, 40, 64
3, 60480, Note_on_c, 9, 42, 66
3, 60504, Note_off_c, 9, 42, 64
3, 60528, Note_on_c, 9, 42, 64
3, 60552, Note_off_c, 9, 42, 64
3, 60576, Note_on_c, 9, 40, 100
3, 60576, Note_on_c, 9, 42, 62
3, 60600, Note_off_c, 9, 42, 64
3, 60600, Note_off_c, 9, 40, 64
3, 60624, Note_on_c, 9, 42, 62
3, 60648, Note_off_c, 9, 42, 64
3, 60672, Note_on_c, 9, 40, 100
3, 60672, Note_on_c, 9, 42, 66
3, 60696, Note_off_c, 9, 42, 64
3, 60696, Note_off_c, 9, 40, 64
3, 60720, Note_on_c, 9, 40, 100
3, 60720, Note_on_c, 9, 42, 66
3, 60744, Note_off_c, 9, 42, 64
3, 60744, Note_off_c, 9, 40, 64
3, 60768, Note_on_c, 9, 40, 100
3, 60768, Note_on_c, 9, 42, 66
3, 60792, Note_off_c, 9, 42, 64
3, 60792, Note_off_c, 9, 40, 64
3, 60816, Note_on_c, 9, 40, 100
3, 60816, Note_on_c, 9, 42, 66
3, 60840, Note_off_c, 9, 42, 64
3, 60840, Note_off_c, 9, 40, 64
3, 60864, Note_on_c, 9, 40, 100
3, 60864, Note_on_c, 9, 42, 66
3, 60888, Note_off_c, 9, 42, 64
3, 60888, Note_off_c, 9, 40, 64
3, 60912, Note_on_c, 9, 40, 100
3, 60912, Note_on_c, 9, 42, 64
3, 60936, Note_off_c, 9, 42, 64
3, 60936, Note_off_c, 9, 40, 64
3, 60960, Note_on_c, 9, 40, 100
3, 60960, Note_on_c, 9, 42, 62
3, 60984, Note_off_c, 9, 42, 64
3, 60984, Note_off_c, 9, 40, 64
3, 61008, Note_on_c, 9, 40, 100
3, 61008, Note_on_c, 9, 42, 62
3, 61032, Note_off_c, 9, 42, 64
3, 61032, Note_off_c, 9, 40, 64
3, 61056, Note_on_c, 9, 40, 100
3, 61056, Note_on_c, 9, 37, 102
3, 61056, Note_on_c, 9, 42, 66
3, 61080, Note_off_c, 9, 42, 64
3, 61080, Note_off_c, 9, 37, 64
3, 61080, Note_off_c, 9, 40, 64
3, 61104, Note_on_c, 9, 40, 100
3, 61104, Note_on_c, 9, 42, 66
3, 61128, Note_off_c, 9, 42, 64
3, 61128, Note_off_c, 9, 40, 64
3, 61152, Note_on_c, 9, 40, 100
3, 61152, Note_on_c, 9, 42, 100
3, 61152, Note_on_c, 9, 42, 66
3, 61176, Note_off_c, 9, 42, 64
3, 61176, Note_off_c, 9, 42, 64
3, 61176, Note_off_c, 9, 40, 64
3, 61200, Note_on_c, 9, 40, 100
3, 61200, Note_on_c, 9, 42, 100
3, 61200, Note_on_c, 9, 42, 66
3, 61224, Note_off_c, 9, 42, 64
3, 61224, Note_off_c, 9, 40, 64
3, 61224, Note_off_c, 9, 42, 64
3, 61248, Note_on_c, 9, 40, 100
3, 61248, Note_on_c, 9, 42, 66
3, 61272, Note_off_c, 9, 42, 64
3, 61272, Note_off_c, 9, 40, 64
3, 61296, Note_on_c, 9, 40, 100
3, 61296, Note_on_c, 9, 42, 64
3, 61320, Note_off_c, 9, 42, 64
3, 61320, Note_off_c, 9, 40, 64
3, 61344, Note_on_c, 9, 40, 100
3, 61344, Note_on_c, 9, 42, 62
3, 61368, Note_off_c, 9, 42, 64
3, 61368, Note_off_c, 9, 40, 64
3, 61392, Note_on_c, 9, 40, 100
3, 61392, Note_on_c, 9, 42, 62
3, 61416, Note_off_c, 9, 42, 64
3, 61416, Note_off_c, 9, 40, 64
3, 61440, Note_on_c, 9, 36, 100
3, 61440, Note_on_c, 9, 42, 66
3, 61464, Note_off_c, 9, 42, 64
3, 61464, Note_off_c, 9, 36, 64
3, 61488, Note_on_c, 9, 42, 66
3, 61512, Note_off_c, 9, 42, 64
3, 61536, Note_on_c, 9, 42, 66
3, 61560, Note_off_c, 9, 42, 64
3, 61584, Note_on_c, 9, 42, 66
3, 61608, Note_off_c, 9, 42, 64
3, 61632, Note_on_c, 9, 40, 100
3, 61632, Note_on_c, 9, 42, 66
3, 61656, Note_off_c, 9, 42, 64
3, 61656, Note_off_c, 9, 40, 64
3, 61680, Note_on_c, 9, 42, 64
3, 61704, Note_off_c, 9, 42, 64
3, 61728, Note_on_c, 9, 42, 62
3, 61752, Note_off_c, 9, 42, 64
3, 61776, Note_on_c, 9, 42, 62
3, 61800, Note_off_c, 9, 42, 64
3, 61824, Note_on_c, 9, 42, 66
3, 61848, Note_off_c, 9, 42, 64
3, 61872, Note_on_c, 9, 36, 100
3, 61872, Note_on_c, 9, 42, 66
3, 61896, Note_off_c, 9, 42, 64
3, 61896, Note_off_c, 9, 36, 64
3, 61920, Note_on_c, 9, 42, 66
3, 61944, Note_off_c, 9, 42, 64
3, 61968, Note_on_c, 9, 42, 66
3, 61992, Note_off_c, 9, 42, 64
3, 62016, Note_on_c, 9, 40, 100
3, 62016, Note_on_c, 9, 42, 66
3, 62040, Note_off_c, 9, 42, 64
3, 62040, Note_off_c, 9, 40, 64
3, 62064, Note_on_c, 9, 36, 100
3, 62064, Note_on_c, 9, 42, 64
3, 62088, Note_off_c, 9, 42, 64
3, 62088, Note_off_c, 9, 36, 64
3, 62112, Note_on_c, 9, 42, 62
3, 62136, Note_off_c, 9, 42, 64
3, 62160, Note_on_c, 9, 42, 62
3, 62184, Note_off_c, 9, 42, 64
3, 62208, Note_on_c, 9, 40, 100
3, 62208, Note_on_c, 9, 42, 66
3, 62232, Note_off_c, 9, 42, 64
3, 62232, Note_off_c, 9, 40, 64
3, 62256, Note_on_c, 9, 42, 66
3, 62280, Note_off_c, 9, 42, 64
3, 62304, Note_on_c, 9, 42, 66
3, 62328, Note_off_c, 9, 42, 64
3, 62352, Note_on_c, 9, 40, 100
3, 62352, Note_on_c, 9, 42, 66
3, 62376, Note_off_c, 9, 42, 64
3, 62376, Note_off_c, 9, 40, 64
3, 62400, Note_on_c, 9, 42, 66
3, 62424, Note_off_c, 9, 42, 64
3, 62448, Note_on_c, 9, 42, 64
3, 62472, Note_off_c, 9, 42, 64
3, 62496, Note_on_c, 9, 40, 100
3, 62496, Note_on_c, 9, 42, 62
3, 62520, Note_off_c, 9, 42, 64
3, 62520, Note_off_c, 9, 40, 64
3, 62544, Note_on_c, 9, 42, 62
3, 62568, Note_off_c, 9, 42, 64
3, 62592, Note_on_c, 9, 36, 100
3, 62592, Note_on_c, 9, 42, 66
3, 62616, Note_off_c, 9, 42, 64
3, 62616, Note_off_c, 9, 36, 64
3, 62640, Note_on_c, 9, 42, 66
3, 62664, Note_off_c, 9, 42, 64
3, 62688, Note_on_c, 9, 42, 66
3, 62712, Note_off_c, 9, 42, 64
3, 62736, Note_on_c, 9, 42, 66
3, 62760, Note_off_c, 9, 42, 64
3, 62784, Note_on_c, 9, 40, 100
3, 62784, Note_on_c, 9, 42, 66
3, 62808, Note_off_c, 9, 42, 64
3, 62808, Note_off_c, 9, 40, 64
3, 62832, Note_on_c, 9, 42, 64
3, 62856, Note_off_c, 9, 42, 64
3, 62880, Note_on_c, 9, 42, 62
3, 62904, Note_off_c, 9, 42, 64
3, 62928, Note_on_c, 9, 42, 62
3, 62952, Note_off_c, 9, 42, 64
3, 62976, Note_on_c, 9, 36, 100
3, 62976, Note_on_c, 9, 42, 66
3, 63000, Note_off_c, 9, 42, 64
3, 63000, Note_off_c, 9, 36, 64
3, 63024, Note_on_c, 9, 42, 66
3, 63048, Note_off_c, 9, 42, 64
3, 63072, Note_on_c, 9, 42, 66
3, 63096, Note_off_c, 9, 42, 64
3, 63120, Note_on_c, 9, 42, 66
3, 63144, Note_off_c, 9, 42, 64
3, 63168, Note_on_c, 9, 40, 100
3, 63168, Note_on_c, 9, 42, 66
3, 63192, Note_off_c, 9, 42, 64
3, 63192, Note_off_c, 9, 40, 64
3, 63216, Note_on_c, 9, 36, 100
3, 63216, Note_on_c, 9, 42, 64
3, 63240, Note_off_c, 9, 42, 64
3, 63240, Note_off_c, 9, 36, 64
3, 63264, Note_on_c, 9, 42, 62
3, 63288, Note_off_c, 9, 42, 64
3, 63312, Note_on_c, 9, 42, 62
3, 63336, Note_off_c, 9, 42, 64
3, 63360, Note_on_c, 9, 40, 100
3, 63360, Note_on_c, 9, 42, 66
3, 63384, Note_off_c, 9, 42, 64
3, 63384, Note_off_c, 9, 40, 64
3, 63408, Note_on_c, 9, 42, 66
3, 63432, Note_off_c, 9, 42, 64
3, 63456, Note_on_c, 9, 42, 66
3, 63480, Note_off_c, 9, 42, 64
3, 63504, Note_on_c, 9, 40, 100
3, 63504, Note_on_c, 9, 42, 66
3, 63528, Note_off_c, 9, 42, 64
3, 63528, Note_off_c, 9, 40, 64
3, 63552, Note_on_c, 9, 42, 66
3, 63576, Note_off_c, 9, 42, 64
3, 63600, Note_on_c, 9, 42, 64
3, 63624, Note_off_c, 9, 42, 64
3, 63648, Note_on_c, 9, 40, 100
3, 63648, Note_on_c, 9, 42, 62
3, 63672, Note_off_c, 9, 42, 64
3, 63672, Note_off_c, 9, 40, 64
3, 63696, Note_on_c, 9, 42, 62
3, 63720, Note_off_c, 9, 42, 64
3, 63744, Note_on_c, 9, 40, 100
3, 63744, Note_on_c, 9, 42, 66
3, 63768, Note_off_c, 9, 42, 64
3, 63768, Note_off_c, 9, 40, 64
3, 63792, Note_on_c, 9, 40, 100
3, 63792, Note_on_c, 9, 42, 66
3, 63816, Note_off_c, 9, 42, 64
3, 63816, Note_off_c, 9, 40, 64
3, 63840, Note_on_c, 9, 40, 100
3, 63840, Note_on_c, 9, 42, 66
3, 63864, Note_off_c, 9, 42, 64
3, 63864, Note_off_c, 9, 40, 64
3, 63888, Note_on_c, 9, 40, 100
3, 63888, Note_on_c, 9, 42, 66
3, 63912, Note_off_c, 9, 42, 64
3, 63912, Note_off_c, 9, 40, 64
3, 63936, Note_on_c, 9, 40, 100
3, 63936, Note_on_c, 9, 42, 66
3, 63960, Note_off_c, 9, 42, 64
3, 63960, Note_off_c, 9, 40, 64
3, 63984, Note_on_c, 9, 40, 100
3, 63984, Note_on_c, 9, 42, 64
3, 64008, Note_off_c, 9, 42, 64
3, 64008, Note_off_c, 9, 40, 64
3, 64032, Note_on_c, 9, 40, 100
3, 64032, Note_on_c, 9, 42, 62
3, 64056, Note_off_c, 9, 42, 64
3, 64056, Note_off_c, 9, 40, 64
3, 64080, Note_on_c, 9, 40, 100
3, 64080, Note_on_c, 9, 42, 62
3, 64104, Note_off_c, 9, 42, 64
3, 64104, Note_off_c, 9, 40, 64
3, 64128, Note_on_c, 9, 40, 100
3, 64128, Note_on_c, 9, 37, 102
3, 64128, Note_on_c, 9, 42, 66
3, 64152, Note_off_c, 9, 42, 64
3, 64152, Note_off_c, 9, 37, 64
3, 64152, Note_off_c, 9, 40, 64
3, 64176, Note_on_c, 9, 40, 100
3, 64176, Note_on_c, 9, 42, 66
3, 64200, Note_off_c, 9, 42, 64
3, 64200, Note_off_c, 9, 40, 64
3, 64224, Note_on_c, 9, 40, 100
3, 64224, Note_on_c, 9, 42, 100
3, 64224, Note_on_c, 9, 42, 66
3, 64248, Note_off_c, 9, 42, 64
3, 64248, Note_off_c, 9, 40, 64
3, 64248, Note_off_c, 9, 42, 64
3, 64272, Note_on_c, 9, 40, 100
3, 64272, Note_on_c, 9, 42, 100
3, 64272, Note_on_c, 9, 42, 66
3, 64296, Note_off_c, 9, 42, 64
3, 64296, Note_off_c, 9, 42, 64
3, 64296, Note_off_c, 9, 40, 64
3, 64320, Note_on_c, 9, 40, 100
3, 64320, Note_on_c, 9, 42, 66
3, 64344, Note_off_c, 9, 42, 64
3, 64344, Note_off_c, 9, 40, 64
3, 64368, Note_on_c, 9, 40, 100
3, 64368, Note_on_c, 9, 42, 64
3, 64392, Note_off_c, 9, 42, 64
3, 64392, Note_off_c, 9, 40, 64
3, 64416, Note_on_c, 9, 40, 100
3, 64416, Note_on_c, 9, 42, 62
3, 64440, Note_off_c, 9, 42, 64
3, 64440, Note_off_c, 9, 40, 64
3, 64464, Note_on_c, 9, 40, 100
3, 64464, Note_on_c, 9, 42, 62
3, 64488, Note_off_c, 9, 42, 64
3, 64488, Note_off_c, 9, 40, 64
3, 64512, Note_on_c, 9, 36, 100
3, 64512, Note_on_c, 9, 42, 66
3, 64536, Note_off_c, 9, 42, 64
3, 64536, Note_off_c, 9, 36, 64
3, 64560, Note_on_c, 9, 42, 66
3, 64584, Note_off_c, 9, 42, 64
3, 64608, Note_on_c, 9, 42, 66
3, 64632, Note_off_c, 9, 42, 64
3, 64656, Note_on_c, 9, 42, 66
3, 64680, Note_off_c, 9, 42, 64
3, 64704, Note_on_c, 9, 40, 100
3, 64704, Note_on_c, 9, 42, 66
3, 64728, Note_off_c, 9, 42, 64
3, 64728, Note_off_c, 9, 40, 64
3, 64752, Note_on_c, 9, 42, 64
3, 64776, Note_off_c, 9, 42, 64
3, 64800, Note_on_c, 9, 42, 62
3, 64824, Note_off_c, 9, 42, 64
3, 64848, Note_on_c, 9, 42, 62
3, 64872, Note_off_c, 9, 42, 64
3, 64896, Note_on_c, 9, 42, 66
3, 64920, Note_off_c, 9, 42, 64
3, 64944, Note_on_c, 9, 36, 100
3, 64944, Note_on_c, 9, 42, 66
3, 64968, Note_off_c, 9, 42, 64
3, 64968, Note_off_c, 9, 36, 64
3, 64992, Note_on_c, 9, 42, 66
3, 65016, Note_off_c, 9, 42, 64
3, 65040, Note_on_c, 9, 42, 66
3, 65064, Note_off_c, 9, 42, 64
3, 65088, Note_on_c, 9, 40, 100
3, 65088, Note_on_c, 9, 42, 66
3, 65112, Note_off_c, 9, 42, 64
3, 65112, Note_off_c, 9, 40, 64
3, 65136, Note_on_c, 9, 36, 100
3, 65136, Note_on_c, 9, 42, 64
3, 65160, Note_off_c, 9, 42, 64
3, 65160, Note_off_c, 9, 36, 64
3, 65184, Note_on_c, 9, 42, 62
3, 65208, Note_off_c, 9, 42, 64
3, 65232, Note_on_c, 9, 42, 62
3, 65256, Note_off_c, 9, 42, 64
3, 65280, Note_on_c, 9, 40, 100
3, 65280, Note_on_c, 9, 42, 66
3, 65304, Note_off_c, 9, 42, 64
3, 65304, Note_off_c, 9, 40, 64
3, 65328, Note_on_c, 9, 42, 66
3, 65352, Note_off_c, 9, 42, 64
3, 65376, Note_on_c, 9, 42, 66
3, 65400, Note_off_c, 9, 42, 64
3, 65424, Note_on_c, 9, 40, 100
3, 65424, Note_on_c, 9, 42, 66
3, 65448, Note_off_c, 9, 42, 64
3, 65448, Note_off_c, 9, 40, 64
3, 65472, Note_on_c, 9, 42, 66
3, 65496, Note_off_c, 9, 42, 64
3, 65520, Note_on_c, 9, 42, 64
3, 65544, Note_off_c, 9, 42, 64
3, 65568, Note_on_c, 9, 40, 100
3, 65568, Note_on_c, 9, 42, 62
3, 65592, Note_off_c, 9, 42, 64
3, 65592, Note_off_c, 9, 40, 64
3, 65616, Note_on_c, 9, 42, 62
3, 65640, Note_off_c, 9, 42, 64
3, 65664, Note_on_c, 9, 36, 100
3, 65664, Note_on_c, 9, 42, 66
3, 65688, Note_off_c, 9, 42, 64
3, 65688, Note_off_c, 9, 36, 64
3, 65712, Note_on_c, 9, 42, 66
3, 65736, Note_off_c, 9, 42, 64
3, 65760, Note_on_c, 9, 42, 66
3, 65784, Note_off_c, 9, 42, 64
3, 65808, Note_on_c, 9, 42, 66
3, 65832, Note_off_c, 9, 42, 64
3, 65856, Note_on_c, 9, 40, 100
3, 65856, Note_on_c, 9, 42, 66
3, 65880, Note_off_c, 9, 42, 64
3, 65880, Note_off_c, 9, 40, 64
3, 65904, Note_on_c, 9, 42, 64
3, 65928, Note_off_c, 9, 42, 64
3, 65952, Note_on_c, 9, 42, 62
3, 65976, Note_off_c, 9, 42, 64
3, 66000, Note_on_c, 9, 42, 62
3, 66024, Note_off_c, 9, 42, 64
3, 66048, Note_on_c, 9, 36, 100
3, 66048, Note_on_c, 9, 42, 66
3, 66072, Note_off_c, 9, 42, 64
3, 66072, Note_off_c, 9, 36, 64
3, 66096, Note_on_c, 9, 42, 66
3, 66120, Note_off_c, 9, 42, 64
3, 66144, Note_on_c, 9, 42, 66
3, 66168, Note_off_c, 9, 42, 64
3, 66192, Note_on_c, 9, 42, 66
3, 66216, Note_off_c, 9, 42, 64
3, 66240, Note_on_c, 9, 40, 100
3, 66240, Note_on_c, 9, 42, 66
3, 66264, Note_off_c, 9, 42, 64
3, 66264, Note_off_c, 9, 40, 64
3, 66288, Note_on_c, 9, 36, 100
3, 66288, Note_on_c, 9, 42, 64
3, 66312, Note_off_c, 9, 42, 64
3, 66312, Note_off_c, 9, 36, 64
3, 66336, Note_on_c, 9, 42, 62
3, 66360, Note_off_c, 9, 42, 64
3, 66384, Note_on_c, 9, 42, 62
3, 66408, Note_off_c, 9, 42, 64
3, 66432, Note_on_c, 9, 40, 100
3, 66432, Note_on_c, 9, 42, 66
3, 66456, Note_off_c, 9, 42, 64
3, 66456, Note_off_c, 9, 40, 64
3, 66480, Note_on_c, 9, 42, 66
3, 66504, Note_off_c, 9, 42, 64
3, 66528, Note_on_c, 9, 42, 66
3, 66552, Note_off_c, 9, 42, 64
3, 66576, Note_on_c, 9, 40, 100
3, 66576, Note_on_c, 9, 42, 66
3, 66600, Note_off_c, 9, 42, 64
3, 66600, Note_off_c, 9, 40, 64
3, 66624, Note_on_c, 9, 42, 66
3, 66648, Note_off_c, 9, 42, 64
3, 66672, Note_on_c, 9, 42, 64
3, 66696, Note_off_c, 9, 42, 64
3, 66720, Note_on_c, 9, 40, 100
3, 66720, Note_on_c, 9, 42, 62
3, 66744, Note_off_c, 9, 42, 64
3, 66744, Note_off_c, 9, 40, 64
3, 66768, Note_on_c, 9, 42, 62
3, 66792, Note_off_c, 9, 42, 64
3, 66816, Note_on_c, 9, 40, 100
3, 66816, Note_on_c, 9, 42, 66
3, 66840, Note_off_c, 9, 42, 64
3, 66840, Note_off_c, 9, 40, 64
3, 66864, Note_on_c, 9, 40, 100
3, 66864, Note_on_c, 9, 42, 66
3, 66888, Note_off_c, 9, 42, 64
3, 66888, Note_off_c, 9, 40, 64
3, 66912, Note_on_c, 9, 40, 100
3, 66912, Note_on_c, 9, 42, 66
3, 66936, Note_off_c, 9, 42, 64
3, 66936, Note_off_c, 9, 40, 64
3, 66960, Note_on_c, 9, 40, 100
3, 66960, Note_on_c, 9, 42, 66
3, 66984, Note_off_c, 9, 42, 64
3, 66984, Note_off_c, 9, 40, 64
3, 67008, Note_on_c, 9, 40, 100
3, 67008, Note_on_c, 9, 42, 66
3, 67032, Note_off_c, 9, 42, 64
3, 67032, Note_off_c, 9, 40, 64
3, 67056, Note_on_c, 9, 40, 100
3, 67056, Note_on_c, 9, 42, 64
3, 67080, Note_off_c, 9, 42, 64
3, 67080, Note_off_c, 9, 40, 64
3, 67104, Note_on_c, 9, 40, 100
3, 67104, Note_on_c, 9, 42, 62
3, 67128, Note_off_c, 9, 42, 64
3, 67128, Note_off_c, 9, 40, 64
3, 67152, Note_on_c, 9, 40, 100
3, 67152, Note_on_c, 9, 42, 62
3, 67176, Note_off_c, 9, 42, 64
3, 67176, Note_off_c, 9, 40, 64
3, 67200, Note_on_c, 9, 40, 100
3, 67200, Note_on_c, 9, 37, 102
3, 67200, Note_on_c, 9, 42, 66
3, 67224, Note_off_c, 9, 42, 64
3, 67224, Note_off_c, 9, 37, 64
3, 67224, Note_off_c, 9, 40, 64
3, 67248, Note_on_c, 9, 40, 100
3, 67248, Note_on_c, 9, 42, 66
3, 67272, Note_off_c, 9, 42, 64
3, 67272, Note_off_c, 9, 40, 64
3, 67296, Note_on_c, 9, 40, 100
3, 67296, Note_on_c, 9, 42, 100
3, 67296, Note_on_c, 9, 42, 66
3, 67320, Note_off_c, 9, 42, 64
3, 67320, Note_off_c, 9, 42, 64
3, 67320, Note_off_c, 9, 40, 64
3, 67344, Note_on_c, 9, 40, 100
3, 67344, Note_on_c, 9, 42, 100
3, 67344, Note_on_c, 9, 42, 66
3, 67368, Note_off_c, 9, 42, 64
3, 67368, Note_off_c, 9, 40, 64
3, 67368, Note_off_c, 9, 42, 64
3, 67392, Note_on_c, 9, 40, 100
3, 67392, Note_on_c, 9, 42, 66
3, 67416, Note_off_c, 9, 42, 64
3, 67416, Note_off_c, 9, 40, 64
3, 67440, Note_on_c, 9, 40, 100
3, 67440, Note_on_c, 9, 42, 64
3, 67464, Note_off_c, 9, 42, 64
3, 67464, Note_off_c, 9, 40, 64
3, 67488, Note_on_c, 9, 40, 100
3, 67488, Note_on_c, 9, 42, 62
3, 67512, Note_off_c, 9, 42, 64
3, 67512, Note_off_c, 9, 40, 64
3, 67536, Note_on_c, 9, 40, 100
3, 67536, Note_on_c, 9, 42, 62
3, 67560, Note_off_c, 9, 42, 64
3, 67560, Note_off_c, 9, 40, 64
3, 67584, Control_c, 9, 101, 0
3, 67584, Control_c, 9, 100, 0
3, 67584, Control_c, 9, 6, 12
3, 67584, Control_c, 9, 10, 64
3, 67584, Control_c, 9, 7, 100
3, 67584, Pitch_bend_c, 9, 8192
3, 67584, Program_c, 9, 0
3, 67586, Control_c, 9, 101, 0
3, 67586, Control_c, 9, 100, 0
3, 67586, Control_c, 9, 6, 12
3, 67586, Control_c, 9, 10, 64
3, 67586, Control_c, 9, 7, 100
3, 67586, Pitch_bend_c, 9, 8192
3, 67586, Program_c, 9, 0
3, 67586, Control_c, 9, 101, 0
3, 67586, Control_c, 9, 100, 0
3, 67586, Control_c, 9, 6, 12
3, 67586, Control_c, 9, 10, 64
3, 67586, Control_c, 9, 7, 100
3, 67586, Pitch_bend_c, 9, 8192
3, 67586, Program_c, 9, 0
3, 67586, End_track
4, 0, Start_track
4, 0, Title_t, "BooBass (MIDI)"
4, 0, Control_c, 0, 10, 64
4, 0, Control_c, 0, 7, 100
4, 0, Pitch_bend_c, 0, 8192
4, 0, Control_c, 0, 101, 0
4, 0, Control_c, 0, 100, 0
4, 0, Control_c, 0, 6, 12
4, 0, Control_c, 0, 10, 64
4, 0, Control_c, 0, 7, 100
4, 0, Pitch_bend_c, 0, 8192
4, 0, Program_c, 0, 32
4, 0, Control_c, 0, 101, 0
4, 0, Control_c, 0, 100, 0
4, 0, Control_c, 0, 6, 12
4, 0, Control_c, 0, 10, 64
4, 0, Control_c, 0, 7, 100
4, 0, Pitch_bend_c, 0, 8192
4, 0, Program_c, 0, 32
4, 0, Control_c, 0, 10, 64
4, 0, Control_c, 0, 7, 100
4, 0, Pitch_bend_c, 0, 8192
4, 0, Program_c, 0, 32
4, 0, Control_c, 0, 101, 0
4, 0, Control_c, 0, 100, 0
4, 0, Control_c, 0, 6, 12
4, 0, Control_c, 0, 10, 64
4, 0, Control_c, 0, 7, 100
4, 0, Pitch_bend_c, 0, 8192
4, 0, Program_c, 0, 32
4, 0, Control_c, 0, 10, 64
4, 0, Control_c, 0, 7, 100
4, 0, Pitch_bend_c, 0, 8192
4, 0, Program_c, 0, 32
4, 6144, Note_on_c, 0, 53, 100
4, 6192, Note_off_c, 0, 53, 64
4, 6192, Note_on_c, 0, 53, 100
4, 6240, Note_off_c, 0, 53, 64
4, 6240, Note_on_c, 0, 53, 100
4, 6288, Note_off_c, 0, 53, 64
4, 6288, Note_on_c, 0, 53, 100
4, 6336, Note_off_c, 0, 53, 64
4, 6336, Note_on_c, 0, 53, 100
4, 6384, Note_off_c, 0, 53, 64
4, 6384, Note_on_c, 0, 53, 100
4, 6432, Note_off_c, 0, 53, 64
4, 6432, Note_on_c, 0, 53, 100
4, 6480, Note_off_c, 0, 53, 64
4, 6480, Note_on_c, 0, 53, 100
4, 6528, Note_off_c, 0, 53, 64
4, 6528, Note_on_c, 0, 53, 100
4, 6576, Note_off_c, 0, 53, 64
4, 6576, Note_on_c, 0, 53, 100
4, 6624, Note_off_c, 0, 53, 64
4, 6624, Note_on_c, 0, 53, 100
4, 6672, Note_off_c, 0, 53, 64
4, 6672, Note_on_c, 0, 53, 100
4, 6720, Note_off_c, 0, 53, 64
4, 6720, Note_on_c, 0, 53, 100
4, 6768, Note_off_c, 0, 53, 64
4, 6768, Note_on_c, 0, 53, 100
4, 6816, Note_off_c, 0, 53, 64
4, 6816, Note_on_c, 0, 53, 100
4, 6864, Note_off_c, 0, 53, 64
4, 6864, Note_on_c, 0, 53, 100
4, 6912, Note_off_c, 0, 53, 64
4, 6912, Note_on_c, 0, 53, 100
4, 6960, Note_off_c, 0, 53, 64
4, 6960, Note_on_c, 0, 53, 100
4, 7008, Note_off_c, 0, 53, 64
4, 7008, Note_on_c, 0, 53, 100
4, 7056, Note_off_c, 0, 53, 64
4, 7056, Note_on_c, 0, 53, 100
4, 7104, Note_off_c, 0, 53, 64
4, 7104, Note_on_c, 0, 53, 100
4, 7152, Note_off_c, 0, 53, 64
4, 7152, Note_on_c, 0, 53, 100
4, 7200, Note_off_c, 0, 53, 64
4, 7200, Note_on_c, 0, 53, 100
4, 7248, Note_off_c, 0, 53, 64
4, 7248, Note_on_c, 0, 53, 100
4, 7296, Note_off_c, 0, 53, 64
4, 7296, Note_on_c, 0, 53, 100
4, 7344, Note_off_c, 0, 53, 64
4, 7344, Note_on_c, 0, 53, 100
4, 7392, Note_off_c, 0, 53, 64
4, 7392, Note_on_c, 0, 53, 100
4, 7440, Note_off_c, 0, 53, 64
4, 7440, Note_on_c, 0, 53, 100
4, 7488, Note_off_c, 0, 53, 64
4, 7488, Note_on_c, 0, 55, 100
4, 7536, Note_off_c, 0, 55, 64
4, 7536, Note_on_c, 0, 55, 100
4, 7584, Note_off_c, 0, 55, 64
4, 7584, Note_on_c, 0, 55, 100
4, 7632, Note_off_c, 0, 55, 64
4, 7632, Note_on_c, 0, 55, 100
4, 7680, Note_off_c, 0, 55, 64
4, 7680, Note_on_c, 0, 57, 100
4, 7728, Note_off_c, 0, 57, 64
4, 7728, Note_on_c, 0, 57, 100
4, 7776, Note_off_c, 0, 57, 64
4, 7776, Note_on_c, 0, 57, 100
4, 7824, Note_off_c, 0, 57, 64
4, 7824, Note_on_c, 0, 57, 100
4, 7872, Note_off_c, 0, 57, 64
4, 7872, Note_on_c, 0, 57, 100
4, 7920, Note_off_c, 0, 57, 64
4, 7920, Note_on_c, 0, 57, 100
4, 7968, Note_off_c, 0, 57, 64
4, 7968, Note_on_c, 0, 57, 100
4, 8016, Note_off_c, 0, 57, 64
4, 8016, Note_on_c, 0, 57, 100
4, 8064, Note_off_c, 0, 57, 64
4, 8064, Note_on_c, 0, 57, 100
4, 8112, Note_off_c, 0, 57, 64
4, 8112, Note_on_c, 0, 57, 100
4, 8160, Note_off_c, 0, 57, 64
4, 8160, Note_on_c, 0, 57, 100
4, 8208, Note_off_c, 0, 57, 64
4, 8208, Note_on_c, 0, 57, 100
4, 8256, Note_off_c, 0, 57, 64
4, 8256, Note_on_c, 0, 57, 100
4, 8304, Note_off_c, 0, 57, 64
4, 8304, Note_on_c, 0, 57, 100
4, 8352, Note_off_c, 0, 57, 64
4, 8352, Note_on_c, 0, 57, 100
4, 8400, Note_off_c, 0, 57, 64
4, 8400, Note_on_c, 0, 57, 100
4, 8448, Note_off_c, 0, 57, 64
4, 8448, Note_on_c, 0, 57, 100
4, 8496, Note_off_c, 0, 57, 64
4, 8496, Note_on_c, 0, 57, 100
4, 8544, Note_off_c, 0, 57, 64
4, 8544, Note_on_c, 0, 57, 100
4, 8592, Note_off_c, 0, 57, 64
4, 8592, Note_on_c, 0, 57, 100
4, 8640, Note_off_c, 0, 57, 64
4, 8640, Note_on_c, 0, 57, 100
4, 8688, Note_off_c, 0, 57, 64
4, 8688, Note_on_c, 0, 57, 100
4, 8736, Note_off_c, 0, 57, 64
4, 8736, Note_on_c, 0, 57, 100
4, 8784, Note_off_c, 0, 57, 64
4, 8784, Note_on_c, 0, 57, 100
4, 8832, Note_off_c, 0, 57, 64
4, 8832, Note_on_c, 0, 57, 100
4, 8880, Note_off_c, 0, 57, 64
4, 8880, Note_on_c, 0, 57, 100
4, 8928, Note_off_c, 0, 57, 64
4, 8928, Note_on_c, 0, 57, 100
4, 8976, Note_off_c, 0, 57, 64
4, 8976, Note_on_c, 0, 57, 100
4, 9024, Note_off_c, 0, 57, 64
4, 9024, Note_on_c, 0, 60, 100
4, 9072, Note_off_c, 0, 60, 64
4, 9072, Note_on_c, 0, 60, 100
4, 9120, Note_off_c, 0, 60, 64
4, 9120, Note_on_c, 0, 60, 100
4, 9168, Note_off_c, 0, 60, 64
4, 9168, Note_on_c, 0, 60, 100
4, 9216, Note_off_c, 0, 60, 64
4, 9216, Note_on_c, 0, 53, 100
4, 9264, Note_off_c, 0, 53, 64
4, 9264, Note_on_c, 0, 53, 100
4, 9312, Note_off_c, 0, 53, 64
4, 9312, Note_on_c, 0, 53, 100
4, 9360, Note_off_c, 0, 53, 64
4, 9360, Note_on_c, 0, 53, 100
4, 9408, Note_off_c, 0, 53, 64
4, 9408, Note_on_c, 0, 53, 100
4, 9456, Note_off_c, 0, 53, 64
4, 9456, Note_on_c, 0, 53, 100
4, 9504, Note_off_c, 0, 53, 64
4, 9504, Note_on_c, 0, 53, 100
4, 9552, Note_off_c, 0, 53, 64
4, 9552, Note_on_c, 0, 53, 100
4, 9600, Note_off_c, 0, 53, 64
4, 9600, Note_on_c, 0, 53, 100
4, 9648, Note_off_c, 0, 53, 64
4, 9648, Note_on_c, 0, 53, 100
4, 9696, Note_off_c, 0, 53, 64
4, 9696, Note_on_c, 0, 53, 100
4, 9744, Note_off_c, 0, 53, 64
4, 9744, Note_on_c, 0, 53, 100
4, 9792, Note_off_c, 0, 53, 64
4, 9792, Note_on_c, 0, 53, 100
4, 9840, Note_off_c, 0, 53, 64
4, 9840, Note_on_c, 0, 53, 100
4, 9888, Note_off_c, 0, 53, 64
4, 9888, Note_on_c, 0, 53, 100
4, 9936, Note_off_c, 0, 53, 64
4, 9936, Note_on_c, 0, 53, 100
4, 9984, Note_off_c, 0, 53, 64
4, 9984, Note_on_c, 0, 53, 100
4, 10032, Note_off_c, 0, 53, 64
4, 10032, Note_on_c, 0, 53, 100
4, 10080, Note_off_c, 0, 53, 64
4, 10080, Note_on_c, 0, 53, 100
4, 10128, Note_off_c, 0, 53, 64
4, 10128, Note_on_c, 0, 53, 100
4, 10176, Note_off_c, 0, 53, 64
4, 10176, Note_on_c, 0, 53, 100
4, 10224, Note_off_c, 0, 53, 64
4, 10224, Note_on_c, 0, 53, 100
4, 10272, Note_off_c, 0, 53, 64
4, 10272, Note_on_c, 0, 53, 100
4, 10320, Note_off_c, 0, 53, 64
4, 10320, Note_on_c, 0, 53, 100
4, 10368, Note_off_c, 0, 53, 64
4, 10368, Note_on_c, 0, 53, 100
4, 10416, Note_off_c, 0, 53, 64
4, 10416, Note_on_c, 0, 53, 100
4, 10464, Note_off_c, 0, 53, 64
4, 10464, Note_on_c, 0, 53, 100
4, 10512, Note_off_c, 0, 53, 64
4, 10512, Note_on_c, 0, 53, 100
4, 10560, Note_off_c, 0, 53, 64
4, 10560, Note_on_c, 0, 55, 100
4, 10608, Note_off_c, 0, 55, 64
4, 10608, Note_on_c, 0, 55, 100
4, 10656, Note_off_c, 0, 55, 64
4, 10656, Note_on_c, 0, 55, 100
4, 10704, Note_off_c, 0, 55, 64
4, 10704, Note_on_c, 0, 55, 100
4, 10752, Note_off_c, 0, 55, 64
4, 10752, Note_on_c, 0, 57, 100
4, 10800, Note_off_c, 0, 57, 64
4, 10800, Note_on_c, 0, 57, 100
4, 10848, Note_off_c, 0, 57, 64
4, 10848, Note_on_c, 0, 57, 100
4, 10896, Note_off_c, 0, 57, 64
4, 10896, Note_on_c, 0, 57, 100
4, 10944, Note_off_c, 0, 57, 64
4, 10944, Note_on_c, 0, 57, 100
4, 10992, Note_off_c, 0, 57, 64
4, 10992, Note_on_c, 0, 57, 100
4, 11040, Note_off_c, 0, 57, 64
4, 11040, Note_on_c, 0, 57, 100
4, 11088, Note_off_c, 0, 57, 64
4, 11088, Note_on_c, 0, 57, 100
4, 11136, Note_off_c, 0, 57, 64
4, 11136, Note_on_c, 0, 57, 100
4, 11184, Note_off_c, 0, 57, 64
4, 11184, Note_on_c, 0, 57, 100
4, 11232, Note_off_c, 0, 57, 64
4, 11232, Note_on_c, 0, 57, 100
4, 11280, Note_off_c, 0, 57, 64
4, 11280, Note_on_c, 0, 57, 100
4, 11328, Note_off_c, 0, 57, 64
4, 11328, Note_on_c, 0, 57, 100
4, 11376, Note_off_c, 0, 57, 64
4, 11376, Note_on_c, 0, 57, 100
4, 11424, Note_off_c, 0, 57, 64
4, 11424, Note_on_c, 0, 57, 100
4, 11472, Note_off_c, 0, 57, 64
4, 11472, Note_on_c, 0, 57, 100
4, 11520, Note_off_c, 0, 57, 64
4, 11520, Note_on_c, 0, 57, 100
4, 11568, Note_off_c, 0, 57, 64
4, 11568, Note_on_c, 0, 57, 100
4, 11616, Note_off_c, 0, 57, 64
4, 11616, Note_on_c, 0, 57, 100
4, 11664, Note_off_c, 0, 57, 64
4, 11664, Note_on_c, 0, 57, 100
4, 11712, Note_off_c, 0, 57, 64
4, 11712, Note_on_c, 0, 57, 100
4, 11760, Note_off_c, 0, 57, 64
4, 11760, Note_on_c, 0, 57, 100
4, 11808, Note_off_c, 0, 57, 64
4, 11808, Note_on_c, 0, 57, 100
4, 11856, Note_off_c, 0, 57, 64
4, 11856, Note_on_c, 0, 57, 100
4, 11904, Note_off_c, 0, 57, 64
4, 11904, Note_on_c, 0, 57, 100
4, 11952, Note_off_c, 0, 57, 64
4, 11952, Note_on_c, 0, 57, 100
4, 12000, Note_off_c, 0, 57, 64
4, 12000, Note_on_c, 0, 57, 100
4, 12048, Note_off_c, 0, 57, 64
4, 12048, Note_on_c, 0, 57, 100
4, 12096, Note_off_c, 0, 57, 64
4, 12096, Note_on_c, 0, 60, 100
4, 12144, Note_off_c, 0, 60, 64
4, 12144, Note_on_c, 0, 60, 100
4, 12192, Note_off_c, 0, 60, 64
4, 12192, Note_on_c, 0, 60, 100
4, 12240, Note_off_c, 0, 60, 64
4, 12240, Note_on_c, 0, 60, 100
4, 12288, Note_off_c, 0, 60, 64
4, 12288, Note_on_c, 0, 53, 100
4, 12336, Note_off_c, 0, 53, 64
4, 12336, Note_on_c, 0, 53, 100
4, 12384, Note_off_c, 0, 53, 64
4, 12384, Note_on_c, 0, 53, 100
4, 12432, Note_off_c, 0, 53, 64
4, 12432, Note_on_c, 0, 53, 100
4, 12480, Note_off_c, 0, 53, 64
4, 12480, Note_on_c, 0, 53, 100
4, 12528, Note_off_c, 0, 53, 64
4, 12528, Note_on_c, 0, 53, 100
4, 12576, Note_off_c, 0, 53, 64
4, 12576, Note_on_c, 0, 53, 100
4, 12624, Note_off_c, 0, 53, 64
4, 12624, Note_on_c, 0, 53, 100
4, 12672, Note_off_c, 0, 53, 64
4, 12672, Note_on_c, 0, 53, 100
4, 12720, Note_off_c, 0, 53, 64
4, 12720, Note_on_c, 0, 53, 100
4, 12768, Note_off_c, 0, 53, 64
4, 12768, Note_on_c, 0, 53, 100
4, 12816, Note_off_c, 0, 53, 64
4, 12816, Note_on_c, 0, 53, 100
4, 12864, Note_off_c, 0, 53, 64
4, 12864, Note_on_c, 0, 53, 100
4, 12912, Note_off_c, 0, 53, 64
4, 12912, Note_on_c, 0, 53, 100
4, 12960, Note_off_c, 0, 53, 64
4, 12960, Note_on_c, 0, 53, 100
4, 13008, Note_off_c, 0, 53, 64
4, 13008, Note_on_c, 0, 53, 100
4, 13056, Note_off_c, 0, 53, 64
4, 13056, Note_on_c, 0, 53, 100
4, 13104, Note_off_c, 0, 53, 64
4, 13104, Note_on_c, 0, 53, 100
4, 13152, Note_off_c, 0, 53, 64
4, 13152, Note_on_c, 0, 53, 100
4, 13200, Note_off_c, 0, 53, 64
4, 13200, Note_on_c, 0, 53, 100
4, 13248, Note_off_c, 0, 53, 64
4, 13248, Note_on_c, 0, 53, 100
4, 13296, Note_off_c, 0, 53, 64
4, 13296, Note_on_c, 0, 53, 100
4, 13344, Note_off_c, 0, 53, 64
4, 13344, Note_on_c, 0, 53, 100
4, 13392, Note_off_c, 0, 53, 64
4, 13392, Note_on_c, 0, 53, 100
4, 13440, Note_off_c, 0, 53, 64
4, 13440, Note_on_c, 0, 53, 100
4, 13488, Note_off_c, 0, 53, 64
4, 13488, Note_on_c, 0, 53, 100
4, 13536, Note_off_c, 0, 53, 64
4, 13536, Note_on_c, 0, 53, 100
4, 13584, Note_off_c, 0, 53, 64
4, 13584, Note_on_c, 0, 53, 100
4, 13632, Note_off_c, 0, 53, 64
4, 13632, Note_on_c, 0, 55, 100
4, 13680, Note_off_c, 0, 55, 64
4, 13680, Note_on_c, 0, 55, 100
4, 13728, Note_off_c, 0, 55, 64
4, 13728, Note_on_c, 0, 55, 100
4, 13776, Note_off_c, 0, 55, 64
4, 13776, Note_on_c, 0, 55, 100
4, 13824, Note_off_c, 0, 55, 64
4, 13824, Note_on_c, 0, 57, 100
4, 13872, Note_off_c, 0, 57, 64
4, 13872, Note_on_c, 0, 57, 100
4, 13920, Note_off_c, 0, 57, 64
4, 13920, Note_on_c, 0, 57, 100
4, 13968, Note_off_c, 0, 57, 64
4, 13968, Note_on_c, 0, 57, 100
4, 14016, Note_off_c, 0, 57, 64
4, 14016, Note_on_c, 0, 57, 100
4, 14064, Note_off_c, 0, 57, 64
4, 14064, Note_on_c, 0, 57, 100
4, 14112, Note_off_c, 0, 57, 64
4, 14112, Note_on_c, 0, 57, 100
4, 14160, Note_off_c, 0, 57, 64
4, 14160, Note_on_c, 0, 57, 100
4, 14208, Note_off_c, 0, 57, 64
4, 14208, Note_on_c, 0, 57, 100
4, 14256, Note_off_c, 0, 57, 64
4, 14256, Note_on_c, 0, 57, 100
4, 14304, Note_off_c, 0, 57, 64
4, 14304, Note_on_c, 0, 57, 100
4, 14352, Note_off_c, 0, 57, 64
4, 14352, Note_on_c, 0, 57, 100
4, 14400, Note_off_c, 0, 57, 64
4, 14400, Note_on_c, 0, 57, 100
4, 14448, Note_off_c, 0, 57, 64
4, 14448, Note_on_c, 0, 57, 100
4, 14496, Note_off_c, 0, 57, 64
4, 14496, Note_on_c, 0, 57, 100
4, 14544, Note_off_c, 0, 57, 64
4, 14544, Note_on_c, 0, 57, 100
4, 14592, Note_off_c, 0, 57, 64
4, 14592, Note_on_c, 0, 57, 100
4, 14640, Note_off_c, 0, 57, 64
4, 14640, Note_on_c, 0, 57, 100
4, 14688, Note_off_c, 0, 57, 64
4, 14688, Note_on_c, 0, 57, 100
4, 14736, Note_off_c, 0, 57, 64
4, 14736, Note_on_c, 0, 57, 100
4, 14784, Note_off_c, 0, 57, 64
4, 14784, Note_on_c, 0, 57, 100
4, 14832, Note_off_c, 0, 57, 64
4, 14832, Note_on_c, 0, 57, 100
4, 14880, Note_off_c, 0, 57, 64
4, 14880, Note_on_c, 0, 57, 100
4, 14928, Note_off_c, 0, 57, 64
4, 14928, Note_on_c, 0, 57, 100
4, 14976, Note_off_c, 0, 57, 64
4, 14976, Note_on_c, 0, 57, 100
4, 15024, Note_off_c, 0, 57, 64
4, 15024, Note_on_c, 0, 57, 100
4, 15072, Note_off_c, 0, 57, 64
4, 15072, Note_on_c, 0, 57, 100
4, 15120, Note_off_c, 0, 57, 64
4, 15120, Note_on_c, 0, 57, 100
4, 15168, Note_off_c, 0, 57, 64
4, 15168, Note_on_c, 0, 60, 100
4, 15216, Note_off_c, 0, 60, 64
4, 15216, Note_on_c, 0, 60, 100
4, 15264, Note_off_c, 0, 60, 64
4, 15264, Note_on_c, 0, 60, 100
4, 15312, Note_off_c, 0, 60, 64
4, 15312, Note_on_c, 0, 60, 100
4, 15360, Note_off_c, 0, 60, 64
4, 15360, Note_on_c, 0, 53, 100
4, 15408, Note_off_c, 0, 53, 64
4, 15408, Note_on_c, 0, 53, 100
4, 15456, Note_off_c, 0, 53, 64
4, 15456, Note_on_c, 0, 53, 100
4, 15504, Note_off_c, 0, 53, 64
4, 15504, Note_on_c, 0, 53, 100
4, 15552, Note_off_c, 0, 53, 64
4, 15552, Note_on_c, 0, 53, 100
4, 15600, Note_off_c, 0, 53, 64
4, 15600, Note_on_c, 0, 53, 100
4, 15648, Note_off_c, 0, 53, 64
4, 15648, Note_on_c, 0, 53, 100
4, 15696, Note_off_c, 0, 53, 64
4, 15696, Note_on_c, 0, 53, 100
4, 15744, Note_off_c, 0, 53, 64
4, 15744, Note_on_c, 0, 53, 100
4, 15792, Note_off_c, 0, 53, 64
4, 15792, Note_on_c, 0, 53, 100
4, 15840, Note_off_c, 0, 53, 64
4, 15840, Note_on_c, 0, 53, 100
4, 15888, Note_off_c, 0, 53, 64
4, 15888, Note_on_c, 0, 53, 100
4, 15936, Note_off_c, 0, 53, 64
4, 15936, Note_on_c, 0, 53, 100
4, 15984, Note_off_c, 0, 53, 64
4, 15984, Note_on_c, 0, 53, 100
4, 16032, Note_off_c, 0, 53, 64
4, 16032, Note_on_c, 0, 53, 100
4, 16080, Note_off_c, 0, 53, 64
4, 16080, Note_on_c, 0, 53, 100
4, 16128, Note_off_c, 0, 53, 64
4, 16128, Note_on_c, 0, 53, 100
4, 16176, Note_off_c, 0, 53, 64
4, 16176, Note_on_c, 0, 53, 100
4, 16224, Note_off_c, 0, 53, 64
4, 16224, Note_on_c, 0, 53, 100
4, 16272, Note_off_c, 0, 53, 64
4, 16272, Note_on_c, 0, 53, 100
4, 16320, Note_off_c, 0, 53, 64
4, 16320, Note_on_c, 0, 53, 100
4, 16368, Note_off_c, 0, 53, 64
4, 16368, Note_on_c, 0, 53, 100
4, 16416, Note_off_c, 0, 53, 64
4, 16416, Note_on_c, 0, 53, 100
4, 16464, Note_off_c, 0, 53, 64
4, 16464, Note_on_c, 0, 53, 100
4, 16512, Note_off_c, 0, 53, 64
4, 16512, Note_on_c, 0, 53, 100
4, 16560, Note_off_c, 0, 53, 64
4, 16560, Note_on_c, 0, 53, 100
4, 16608, Note_off_c, 0, 53, 64
4, 16608, Note_on_c, 0, 53, 100
4, 16656, Note_off_c, 0, 53, 64
4, 16656, Note_on_c, 0, 53, 100
4, 16704, Note_off_c, 0, 53, 64
4, 16704, Note_on_c, 0, 55, 100
4, 16752, Note_off_c, 0, 55, 64
4, 16752, Note_on_c, 0, 55, 100
4, 16800, Note_off_c, 0, 55, 64
4, 16800, Note_on_c, 0, 55, 100
4, 16848, Note_off_c, 0, 55, 64
4, 16848, Note_on_c, 0, 55, 100
4, 16896, Note_off_c, 0, 55, 64
4, 16896, Note_on_c, 0, 57, 100
4, 16944, Note_off_c, 0, 57, 64
4, 16944, Note_on_c, 0, 57, 100
4, 16992, Note_off_c, 0, 57, 64
4, 16992, Note_on_c, 0, 57, 100
4, 17040, Note_off_c, 0, 57, 64
4, 17040, Note_on_c, 0, 57, 100
4, 17088, Note_off_c, 0, 57, 64
4, 17088, Note_on_c, 0, 57, 100
4, 17136, Note_off_c, 0, 57, 64
4, 17136, Note_on_c, 0, 57, 100
4, 17184, Note_off_c, 0, 57, 64
4, 17184, Note_on_c, 0, 57, 100
4, 17232, Note_off_c, 0, 57, 64
4, 17232, Note_on_c, 0, 57, 100
4, 17280, Note_off_c, 0, 57, 64
4, 17280, Note_on_c, 0, 57, 100
4, 17328, Note_off_c, 0, 57, 64
4, 17328, Note_on_c, 0, 57, 100
4, 17376, Note_off_c, 0, 57, 64
4, 17376, Note_on_c, 0, 57, 100
4, 17424, Note_off_c, 0, 57, 64
4, 17424, Note_on_c, 0, 57, 100
4, 17472, Note_off_c, 0, 57, 64
4, 17472, Note_on_c, 0, 57, 100
4, 17520, Note_off_c, 0, 57, 64
4, 17520, Note_on_c, 0, 57, 100
4, 17568, Note_off_c, 0, 57, 64
4, 17568, Note_on_c, 0, 57, 100
4, 17616, Note_off_c, 0, 57, 64
4, 17616, Note_on_c, 0, 57, 100
4, 17664, Note_off_c, 0, 57, 64
4, 17664, Note_on_c, 0, 57, 100
4, 17712, Note_off_c, 0, 57, 64
4, 17712, Note_on_c, 0, 57, 100
4, 17760, Note_off_c, 0, 57, 64
4, 17760, Note_on_c, 0, 57, 100
4, 17808, Note_off_c, 0, 57, 64
4, 17808, Note_on_c, 0, 57, 100
4, 17856, Note_off_c, 0, 57, 64
4, 17856, Note_on_c, 0, 57, 100
4, 17904, Note_off_c, 0, 57, 64
4, 17904, Note_on_c, 0, 57, 100
4, 17952, Note_off_c, 0, 57, 64
4, 17952, Note_on_c, 0, 57, 100
4, 18000, Note_off_c, 0, 57, 64
4, 18000, Note_on_c, 0, 57, 100
4, 18048, Note_off_c, 0, 57, 64
4, 18048, Note_on_c, 0, 57, 100
4, 18096, Note_off_c, 0, 57, 64
4, 18096, Note_on_c, 0, 57, 100
4, 18144, Note_off_c, 0, 57, 64
4, 18144, Note_on_c, 0, 57, 100
4, 18192, Note_off_c, 0, 57, 64
4, 18192, Note_on_c, 0, 57, 100
4, 18240, Note_off_c, 0, 57, 64
4, 18240, Note_on_c, 0, 60, 100
4, 18288, Note_off_c, 0, 60, 64
4, 18288, Note_on_c, 0, 60, 100
4, 18336, Note_off_c, 0, 60, 64
4, 18336, Note_on_c, 0, 60, 100
4, 18384, Note_off_c, 0, 60, 64
4, 18384, Note_on_c, 0, 60, 100
4, 18432, Note_off_c, 0, 60, 64
4, 18432, Note_on_c, 0, 53, 100
4, 18480, Note_off_c, 0, 53, 64
4, 18480, Note_on_c, 0, 53, 100
4, 18528, Note_off_c, 0, 53, 64
4, 18528, Note_on_c, 0, 53, 100
4, 18576, Note_off_c, 0, 53, 64
4, 18576, Note_on_c, 0, 53, 100
4, 18624, Note_off_c, 0, 53, 64
4, 18624, Note_on_c, 0, 53, 100
4, 18672, Note_off_c, 0, 53, 64
4, 18672, Note_on_c, 0, 53, 100
4, 18720, Note_off_c, 0, 53, 64
4, 18720, Note_on_c, 0, 53, 100
4, 18768, Note_off_c, 0, 53, 64
4, 18768, Note_on_c, 0, 53, 100
4, 18816, Note_off_c, 0, 53, 64
4, 18816, Note_on_c, 0, 53, 100
4, 18864, Note_off_c, 0, 53, 64
4, 18864, Note_on_c, 0, 53, 100
4, 18912, Note_off_c, 0, 53, 64
4, 18912, Note_on_c, 0, 53, 100
4, 18960, Note_off_c, 0, 53, 64
4, 18960, Note_on_c, 0, 53, 100
4, 19008, Note_off_c, 0, 53, 64
4, 19008, Note_on_c, 0, 53, 100
4, 19056, Note_off_c, 0, 53, 64
4, 19056, Note_on_c, 0, 53, 100
4, 19104, Note_off_c, 0, 53, 64
4, 19104, Note_on_c, 0, 53, 100
4, 19152, Note_off_c, 0, 53, 64
4, 19152, Note_on_c, 0, 53, 100
4, 19200, Note_off_c, 0, 53, 64
4, 19200, Note_on_c, 0, 53, 100
4, 19248, Note_off_c, 0, 53, 64
4, 19248, Note_on_c, 0, 53, 100
4, 19296, Note_off_c, 0, 53, 64
4, 19296, Note_on_c, 0, 53, 100
4, 19344, Note_off_c, 0, 53, 64
4, 19344, Note_on_c, 0, 53, 100
4, 19392, Note_off_c, 0, 53, 64
4, 19392, Note_on_c, 0, 53, 100
4, 19440, Note_off_c, 0, 53, 64
4, 19440, Note_on_c, 0, 53, 100
4, 19488, Note_off_c, 0, 53, 64
4, 19488, Note_on_c, 0, 53, 100
4, 19536, Note_off_c, 0, 53, 64
4, 19536, Note_on_c, 0, 53, 100
4, 19584, Note_off_c, 0, 53, 64
4, 19584, Note_on_c, 0, 53, 100
4, 19632, Note_off_c, 0, 53, 64
4, 19632, Note_on_c, 0, 53, 100
4, 19680, Note_off_c, 0, 53, 64
4, 19680, Note_on_c, 0, 53, 100
4, 19728, Note_off_c, 0, 53, 64
4, 19728, Note_on_c, 0, 53, 100
4, 19776, Note_off_c, 0, 53, 64
4, 19776, Note_on_c, 0, 55, 100
4, 19824, Note_off_c, 0, 55, 64
4, 19824, Note_on_c, 0, 55, 100
4, 19872, Note_off_c, 0, 55, 64
4, 19872, Note_on_c, 0, 55, 100
4, 19920, Note_off_c, 0, 55, 64
4, 19920, Note_on_c, 0, 55, 100
4, 19968, Note_off_c, 0, 55, 64
4, 19968, Note_on_c, 0, 57, 100
4, 20016, Note_off_c, 0, 57, 64
4, 20016, Note_on_c, 0, 57, 100
4, 20064, Note_off_c, 0, 57, 64
4, 20064, Note_on_c, 0, 57, 100
4, 20112, Note_off_c, 0, 57, 64
4, 20112, Note_on_c, 0, 57, 100
4, 20160, Note_off_c, 0, 57, 64
4, 20160, Note_on_c, 0, 57, 100
4, 20208, Note_off_c, 0, 57, 64
4, 20208, Note_on_c, 0, 57, 100
4, 20256, Note_off_c, 0, 57, 64
4, 20256, Note_on_c, 0, 57, 100
4, 20304, Note_off_c, 0, 57, 64
4, 20304, Note_on_c, 0, 57, 100
4, 20352, Note_off_c, 0, 57, 64
4, 20352, Note_on_c, 0, 57, 100
4, 20400, Note_off_c, 0, 57, 64
4, 20400, Note_on_c, 0, 57, 100
4, 20448, Note_off_c, 0, 57, 64
4, 20448, Note_on_c, 0, 57, 100
4, 20496, Note_off_c, 0, 57, 64
4, 20496, Note_on_c, 0, 57, 100
4, 20544, Note_off_c, 0, 57, 64
4, 20544, Note_on_c, 0, 57, 100
4, 20592, Note_off_c, 0, 57, 64
4, 20592, Note_on_c, 0, 57, 100
4, 20640, Note_off_c, 0, 57, 64
4, 20640, Note_on_c, 0, 57, 100
4, 20688, Note_off_c, 0, 57, 64
4, 20688, Note_on_c, 0, 57, 100
4, 20736, Note_off_c, 0, 57, 64
4, 20736, Note_on_c, 0, 57, 100
4, 20784, Note_off_c, 0, 57, 64
4, 20784, Note_on_c, 0, 57, 100
4, 20832, Note_off_c, 0, 57, 64
4, 20832, Note_on_c, 0, 57, 100
4, 20880, Note_off_c, 0, 57, 64
4, 20880, Note_on_c, 0, 57, 100
4, 20928, Note_off_c, 0, 57, 64
4, 20928, Note_on_c, 0, 57, 100
4, 20976, Note_off_c, 0, 57, 64
4, 20976, Note_on_c, 0, 57, 100
4, 21024, Note_off_c, 0, 57, 64
4, 21024, Note_on_c, 0, 57, 100
4, 21072, Note_off_c, 0, 57, 64
4, 21072, Note_on_c, 0, 57, 100
4, 21120, Note_off_c, 0, 57, 64
4, 21120, Note_on_c, 0, 57, 100
4, 21168, Note_off_c, 0, 57, 64
4, 21168, Note_on_c, 0, 57, 100
4, 21216, Note_off_c, 0, 57, 64
4, 21216, Note_on_c, 0, 57, 100
4, 21264, Note_off_c, 0, 57, 64
4, 21264, Note_on_c, 0, 57, 100
4, 21312, Note_off_c, 0, 57, 64
4, 21312, Note_on_c, 0, 60, 100
4, 21360, Note_off_c, 0, 60, 64
4, 21360, Note_on_c, 0, 60, 100
4, 21408, Note_off_c, 0, 60, 64
4, 21408, Note_on_c, 0, 60, 100
4, 21456, Note_off_c, 0, 60, 64
4, 21456, Note_on_c, 0, 60, 100
4, 21504, Note_off_c, 0, 60, 64
4, 21504, Note_on_c, 0, 53, 100
4, 21552, Note_off_c, 0, 53, 64
4, 21552, Note_on_c, 0, 53, 100
4, 21600, Note_off_c, 0, 53, 64
4, 21600, Note_on_c, 0, 53, 100
4, 21648, Note_off_c, 0, 53, 64
4, 21648, Note_on_c, 0, 53, 100
4, 21696, Note_off_c, 0, 53, 64
4, 21696, Note_on_c, 0, 53, 100
4, 21744, Note_off_c, 0, 53, 64
4, 21744, Note_on_c, 0, 53, 100
4, 21792, Note_off_c, 0, 53, 64
4, 21792, Note_on_c, 0, 53, 100
4, 21840, Note_off_c, 0, 53, 64
4, 21840, Note_on_c, 0, 53, 100
4, 21888, Note_off_c, 0, 53, 64
4, 21888, Note_on_c, 0, 53, 100
4, 21936, Note_off_c, 0, 53, 64
4, 21936, Note_on_c, 0, 53, 100
4, 21984, Note_off_c, 0, 53, 64
4, 21984, Note_on_c, 0, 53, 100
4, 22032, Note_off_c, 0, 53, 64
4, 22032, Note_on_c, 0, 53, 100
4, 22080, Note_off_c, 0, 53, 64
4, 22080, Note_on_c, 0, 53, 100
4, 22128, Note_off_c, 0, 53, 64
4, 22128, Note_on_c, 0, 53, 100
4, 22176, Note_off_c, 0, 53, 64
4, 22176, Note_on_c, 0, 53, 100
4, 22224, Note_off_c, 0, 53, 64
4, 22224, Note_on_c, 0, 53, 100
4, 22272, Note_off_c, 0, 53, 64
4, 22272, Note_on_c, 0, 53, 100
4, 22320, Note_off_c, 0, 53, 64
4, 22320, Note_on_c, 0, 53, 100
4, 22368, Note_off_c, 0, 53, 64
4, 22368, Note_on_c, 0, 53, 100
4, 22416, Note_off_c, 0, 53, 64
4, 22416, Note_on_c, 0, 53, 100
4, 22464, Note_off_c, 0, 53, 64
4, 22464, Note_on_c, 0, 53, 100
4, 22512, Note_off_c, 0, 53, 64
4, 22512, Note_on_c, 0, 53, 100
4, 22560, Note_off_c, 0, 53, 64
4, 22560, Note_on_c, 0, 53, 100
4, 22608, Note_off_c, 0, 53, 64
4, 22608, Note_on_c, 0, 53, 100
4, 22656, Note_off_c, 0, 53, 64
4, 22656, Note_on_c, 0, 53, 100
4, 22704, Note_off_c, 0, 53, 64
4, 22704, Note_on_c, 0, 53, 100
4, 22752, Note_off_c, 0, 53, 64
4, 22752, Note_on_c, 0, 53, 100
4, 22800, Note_off_c, 0, 53, 64
4, 22800, Note_on_c, 0, 53, 100
4, 22848, Note_off_c, 0, 53, 64
4, 22848, Note_on_c, 0, 55, 100
4, 22896, Note_off_c, 0, 55, 64
4, 22896, Note_on_c, 0, 55, 100
4, 22944, Note_off_c, 0, 55, 64
4, 22944, Note_on_c, 0, 55, 100
4, 22992, Note_off_c, 0, 55, 64
4, 22992, Note_on_c, 0, 55, 100
4, 23040, Note_off_c, 0, 55, 64
4, 23040, Note_on_c, 0, 57, 100
4, 23088, Note_off_c, 0, 57, 64
4, 23088, Note_on_c, 0, 57, 100
4, 23136, Note_off_c, 0, 57, 64
4, 23136, Note_on_c, 0, 57, 100
4, 23184, Note_off_c, 0, 57, 64
4, 23184, Note_on_c, 0, 57, 100
4, 23232, Note_off_c, 0, 57, 64
4, 23232, Note_on_c, 0, 57, 100
4, 23280, Note_off_c, 0, 57, 64
4, 23280, Note_on_c, 0, 57, 100
4, 23328, Note_off_c, 0, 57, 64
4, 23328, Note_on_c, 0, 57, 100
4, 23376, Note_off_c, 0, 57, 64
4, 23376, Note_on_c, 0, 57, 100
4, 23424, Note_off_c, 0, 57, 64
4, 23424, Note_on_c, 0, 57, 100
4, 23472, Note_off_c, 0, 57, 64
4, 23472, Note_on_c, 0, 57, 100
4, 23520, Note_off_c, 0, 57, 64
4, 23520, Note_on_c, 0, 57, 100
4, 23568, Note_off_c, 0, 57, 64
4, 23568, Note_on_c, 0, 57, 100
4, 23616, Note_off_c, 0, 57, 64
4, 23616, Note_on_c, 0, 57, 100
4, 23664, Note_off_c, 0, 57, 64
4, 23664, Note_on_c, 0, 57, 100
4, 23712, Note_off_c, 0, 57, 64
4, 23712, Note_on_c, 0, 57, 100
4, 23760, Note_off_c, 0, 57, 64
4, 23760, Note_on_c, 0, 57, 100
4, 23808, Note_off_c, 0, 57, 64
4, 23808, Note_on_c, 0, 57, 100
4, 23856, Note_off_c, 0, 57, 64
4, 23856, Note_on_c, 0, 57, 100
4, 23904, Note_off_c, 0, 57, 64
4, 23904, Note_on_c, 0, 57, 100
4, 23952, Note_off_c, 0, 57, 64
4, 23952, Note_on_c, 0, 57, 100
4, 24000, Note_off_c, 0, 57, 64
4, 24000, Note_on_c, 0, 57, 100
4, 24048, Note_off_c, 0, 57, 64
4, 24048, Note_on_c, 0, 57, 100
4, 24096, Note_off_c, 0, 57, 64
4, 24096, Note_on_c, 0, 57, 100
4, 24144, Note_off_c, 0, 57, 64
4, 24144, Note_on_c, 0, 57, 100
4, 24192, Note_off_c, 0, 57, 64
4, 24192, Note_on_c, 0, 57, 100
4, 24240, Note_off_c, 0, 57, 64
4, 24240, Note_on_c, 0, 57, 100
4, 24288, Note_off_c, 0, 57, 64
4, 24288, Note_on_c, 0, 57, 100
4, 24336, Note_off_c, 0, 57, 64
4, 24336, Note_on_c, 0, 57, 100
4, 24384, Note_off_c, 0, 57, 64
4, 24384, Note_on_c, 0, 60, 100
4, 24432, Note_off_c, 0, 60, 64
4, 24432, Note_on_c, 0, 60, 100
4, 24480, Note_off_c, 0, 60, 64
4, 24480, Note_on_c, 0, 60, 100
4, 24528, Note_off_c, 0, 60, 64
4, 24528, Note_on_c, 0, 60, 100
4, 24576, Note_off_c, 0, 60, 64
4, 24576, Note_on_c, 0, 53, 100
4, 24624, Note_off_c, 0, 53, 64
4, 24624, Note_on_c, 0, 53, 100
4, 24672, Note_off_c, 0, 53, 64
4, 24672, Note_on_c, 0, 53, 100
4, 24720, Note_off_c, 0, 53, 64
4, 24720, Note_on_c, 0, 53, 100
4, 24768, Note_off_c, 0, 53, 64
4, 24768, Note_on_c, 0, 53, 100
4, 24816, Note_off_c, 0, 53, 64
4, 24816, Note_on_c, 0, 53, 100
4, 24864, Note_off_c, 0, 53, 64
4, 24864, Note_on_c, 0, 53, 100
4, 24912, Note_off_c, 0, 53, 64
4, 24912, Note_on_c, 0, 53, 100
4, 24960, Note_off_c, 0, 53, 64
4, 24960, Note_on_c, 0, 53, 100
4, 25008, Note_off_c, 0, 53, 64
4, 25008, Note_on_c, 0, 53, 100
4, 25056, Note_off_c, 0, 53, 64
4, 25056, Note_on_c, 0, 53, 100
4, 25104, Note_off_c, 0, 53, 64
4, 25104, Note_on_c, 0, 53, 100
4, 25152, Note_off_c, 0, 53, 64
4, 25152, Note_on_c, 0, 53, 100
4, 25200, Note_off_c, 0, 53, 64
4, 25200, Note_on_c, 0, 53, 100
4, 25248, Note_off_c, 0, 53, 64
4, 25248, Note_on_c, 0, 53, 100
4, 25296, Note_off_c, 0, 53, 64
4, 25296, Note_on_c, 0, 53, 100
4, 25344, Note_off_c, 0, 53, 64
4, 25344, Note_on_c, 0, 53, 100
4, 25392, Note_off_c, 0, 53, 64
4, 25392, Note_on_c, 0, 53, 100
4, 25440, Note_off_c, 0, 53, 64
4, 25440, Note_on_c, 0, 53, 100
4, 25488, Note_off_c, 0, 53, 64
4, 25488, Note_on_c, 0, 53, 100
4, 25536, Note_off_c, 0, 53, 64
4, 25536, Note_on_c, 0, 53, 100
4, 25584, Note_off_c, 0, 53, 64
4, 25584, Note_on_c, 0, 53, 100
4, 25632, Note_off_c, 0, 53, 64
4, 25632, Note_on_c, 0, 53, 100
4, 25680, Note_off_c, 0, 53, 64
4, 25680, Note_on_c, 0, 53, 100
4, 25728, Note_off_c, 0, 53, 64
4, 25728, Note_on_c, 0, 53, 100
4, 25776, Note_off_c, 0, 53, 64
4, 25776, Note_on_c, 0, 53, 100
4, 25824, Note_off_c, 0, 53, 64
4, 25824, Note_on_c, 0, 53, 100
4, 25872, Note_off_c, 0, 53, 64
4, 25872, Note_on_c, 0, 53, 100
4, 25920, Note_off_c, 0, 53, 64
4, 25920, Note_on_c, 0, 55, 100
4, 25968, Note_off_c, 0, 55, 64
4, 25968, Note_on_c, 0, 55, 100
4, 26016, Note_off_c, 0, 55, 64
4, 26016, Note_on_c, 0, 55, 100
4, 26064, Note_off_c, 0, 55, 64
4, 26064, Note_on_c, 0, 55, 100
4, 26112, Note_off_c, 0, 55, 64
4, 26112, Note_on_c, 0, 57, 100
4, 26160, Note_off_c, 0, 57, 64
4, 26160, Note_on_c, 0, 57, 100
4, 26208, Note_off_c, 0, 57, 64
4, 26208, Note_on_c, 0, 57, 100
4, 26256, Note_off_c, 0, 57, 64
4, 26256, Note_on_c, 0, 57, 100
4, 26304, Note_off_c, 0, 57, 64
4, 26304, Note_on_c, 0, 57, 100
4, 26352, Note_off_c, 0, 57, 64
4, 26352, Note_on_c, 0, 57, 100
4, 26400, Note_off_c, 0, 57, 64
4, 26400, Note_on_c, 0, 57, 100
4, 26448, Note_off_c, 0, 57, 64
4, 26448, Note_on_c, 0, 57, 100
4, 26496, Note_off_c, 0, 57, 64
4, 26496, Note_on_c, 0, 57, 100
4, 26544, Note_off_c, 0, 57, 64
4, 26544, Note_on_c, 0, 57, 100
4, 26592, Note_off_c, 0, 57, 64
4, 26592, Note_on_c, 0, 57, 100
4, 26640, Note_off_c, 0, 57, 64
4, 26640, Note_on_c, 0, 57, 100
4, 26688, Note_off_c, 0, 57, 64
4, 26688, Note_on_c, 0, 57, 100
4, 26736, Note_off_c, 0, 57, 64
4, 26736, Note_on_c, 0, 57, 100
4, 26784, Note_off_c, 0, 57, 64
4, 26784, Note_on_c, 0, 57, 100
4, 26832, Note_off_c, 0, 57, 64
4, 26832, Note_on_c, 0, 57, 100
4, 26880, Note_off_c, 0, 57, 64
4, 26880, Note_on_c, 0, 57, 100
4, 26928, Note_off_c, 0, 57, 64
4, 26928, Note_on_c, 0, 57, 100
4, 26976, Note_off_c, 0, 57, 64
4, 26976, Note_on_c, 0, 57, 100
4, 27024, Note_off_c, 0, 57, 64
4, 27024, Note_on_c, 0, 57, 100
4, 27072, Note_off_c, 0, 57, 64
4, 27072, Note_on_c, 0, 57, 100
4, 27120, Note_off_c, 0, 57, 64
4, 27120, Note_on_c, 0, 57, 100
4, 27168, Note_off_c, 0, 57, 64
4, 27168, Note_on_c, 0, 57, 100
4, 27216, Note_off_c, 0, 57, 64
4, 27216, Note_on_c, 0, 57, 100
4, 27264, Note_off_c, 0, 57, 64
4, 27264, Note_on_c, 0, 57, 100
4, 27312, Note_off_c, 0, 57, 64
4, 27312, Note_on_c, 0, 57, 100
4, 27360, Note_off_c, 0, 57, 64
4, 27360, Note_on_c, 0, 57, 100
4, 27408, Note_off_c, 0, 57, 64
4, 27408, Note_on_c, 0, 57, 100
4, 27456, Note_off_c, 0, 57, 64
4, 27456, Note_on_c, 0, 60, 100
4, 27504, Note_off_c, 0, 60, 64
4, 27504, Note_on_c, 0, 60, 100
4, 27552, Note_off_c, 0, 60, 64
4, 27552, Note_on_c, 0, 60, 100
4, 27600, Note_off_c, 0, 60, 64
4, 27600, Note_on_c, 0, 60, 100
4, 27648, Note_off_c, 0, 60, 64
4, 27648, Note_on_c, 0, 53, 100
4, 27696, Note_off_c, 0, 53, 64
4, 27696, Note_on_c, 0, 53, 100
4, 27744, Note_off_c, 0, 53, 64
4, 27744, Note_on_c, 0, 53, 100
4, 27792, Note_off_c, 0, 53, 64
4, 27792, Note_on_c, 0, 53, 100
4, 27840, Note_off_c, 0, 53, 64
4, 27840, Note_on_c, 0, 53, 100
4, 27888, Note_off_c, 0, 53, 64
4, 27888, Note_on_c, 0, 53, 100
4, 27936, Note_off_c, 0, 53, 64
4, 27936, Note_on_c, 0, 53, 100
4, 27984, Note_off_c, 0, 53, 64
4, 27984, Note_on_c, 0, 53, 100
4, 28032, Note_off_c, 0, 53, 64
4, 28032, Note_on_c, 0, 53, 100
4, 28080, Note_off_c, 0, 53, 64
4, 28080, Note_on_c, 0, 53, 100
4, 28128, Note_off_c, 0, 53, 64
4, 28128, Note_on_c, 0, 53, 100
4, 28176, Note_off_c, 0, 53, 64
4, 28176, Note_on_c, 0, 53, 100
4, 28224, Note_off_c, 0, 53, 64
4, 28224, Note_on_c, 0, 53, 100
4, 28272, Note_off_c, 0, 53, 64
4, 28272, Note_on_c, 0, 53, 100
4, 28320, Note_off_c, 0, 53, 64
4, 28320, Note_on_c, 0, 53, 100
4, 28368, Note_off_c, 0, 53, 64
4, 28368, Note_on_c, 0, 53, 100
4, 28416, Note_off_c, 0, 53, 64
4, 28416, Note_on_c, 0, 53, 100
4, 28464, Note_off_c, 0, 53, 64
4, 28464, Note_on_c, 0, 53, 100
4, 28512, Note_off_c, 0, 53, 64
4, 28512, Note_on_c, 0, 53, 100
4, 28560, Note_off_c, 0, 53, 64
4, 28560, Note_on_c, 0, 53, 100
4, 28608, Note_off_c, 0, 53, 64
4, 28608, Note_on_c, 0, 53, 100
4, 28656, Note_off_c, 0, 53, 64
4, 28656, Note_on_c, 0, 53, 100
4, 28704, Note_off_c, 0, 53, 64
4, 28704, Note_on_c, 0, 53, 100
4, 28752, Note_off_c, 0, 53, 64
4, 28752, Note_on_c, 0, 53, 100
4, 28800, Note_off_c, 0, 53, 64
4, 28800, Note_on_c, 0, 53, 100
4, 28848, Note_off_c, 0, 53, 64
4, 28848, Note_on_c, 0, 53, 100
4, 28896, Note_off_c, 0, 53, 64
4, 28896, Note_on_c, 0, 53, 100
4, 28944, Note_off_c, 0, 53, 64
4, 28944, Note_on_c, 0, 53, 100
4, 28992, Note_off_c, 0, 53, 64
4, 28992, Note_on_c, 0, 55, 100
4, 29040, Note_off_c, 0, 55, 64
4, 29040, Note_on_c, 0, 55, 100
4, 29088, Note_off_c, 0, 55, 64
4, 29088, Note_on_c, 0, 55, 100
4, 29136, Note_off_c, 0, 55, 64
4, 29136, Note_on_c, 0, 55, 100
4, 29184, Note_off_c, 0, 55, 64
4, 29184, Note_on_c, 0, 57, 100
4, 29232, Note_off_c, 0, 57, 64
4, 29232, Note_on_c, 0, 57, 100
4, 29280, Note_off_c, 0, 57, 64
4, 29280, Note_on_c, 0, 57, 100
4, 29328, Note_off_c, 0, 57, 64
4, 29328, Note_on_c, 0, 57, 100
4, 29376, Note_off_c, 0, 57, 64
4, 29376, Note_on_c, 0, 57, 100
4, 29424, Note_off_c, 0, 57, 64
4, 29424, Note_on_c, 0, 57, 100
4, 29472, Note_off_c, 0, 57, 64
4, 29472, Note_on_c, 0, 57, 100
4, 29520, Note_off_c, 0, 57, 64
4, 29520, Note_on_c, 0, 57, 100
4, 29568, Note_off_c, 0, 57, 64
4, 29568, Note_on_c, 0, 57, 100
4, 29616, Note_off_c, 0, 57, 64
4, 29616, Note_on_c, 0, 57, 100
4, 29664, Note_off_c, 0, 57, 64
4, 29664, Note_on_c, 0, 57, 100
4, 29712, Note_off_c, 0, 57, 64
4, 29712, Note_on_c, 0, 57, 100
4, 29760, Note_off_c, 0, 57, 64
4, 29760, Note_on_c, 0, 57, 100
4, 29808, Note_off_c, 0, 57, 64
4, 29808, Note_on_c, 0, 57, 100
4, 29856, Note_off_c, 0, 57, 64
4, 29856, Note_on_c, 0, 57, 100
4, 29904, Note_off_c, 0, 57, 64
4, 29904, Note_on_c, 0, 57, 100
4, 29952, Note_off_c, 0, 57, 64
4, 29952, Note_on_c, 0, 57, 100
4, 30000, Note_off_c, 0, 57, 64
4, 30000, Note_on_c, 0, 57, 100
4, 30048, Note_off_c, 0, 57, 64
4, 30048, Note_on_c, 0, 57, 100
4, 30096, Note_off_c, 0, 57, 64
4, 30096, Note_on_c, 0, 57, 100
4, 30144, Note_off_c, 0, 57, 64
4, 30144, Note_on_c, 0, 57, 100
4, 30192, Note_off_c, 0, 57, 64
4, 30192, Note_on_c, 0, 57, 100
4, 30240, Note_off_c, 0, 57, 64
4, 30240, Note_on_c, 0, 57, 100
4, 30288, Note_off_c, 0, 57, 64
4, 30288, Note_on_c, 0, 57, 100
4, 30336, Note_off_c, 0, 57, 64
4, 30336, Note_on_c, 0, 57, 100
4, 30384, Note_off_c, 0, 57, 64
4, 30384, Note_on_c, 0, 57, 100
4, 30432, Note_off_c, 0, 57, 64
4, 30432, Note_on_c, 0, 57, 100
4, 30480, Note_off_c, 0, 57, 64
4, 30480, Note_on_c, 0, 57, 100
4, 30528, Note_off_c, 0, 57, 64
4, 30528, Note_on_c, 0, 60, 100
4, 30576, Note_off_c, 0, 60, 64
4, 30576, Note_on_c, 0, 60, 100
4, 30624, Note_off_c, 0, 60, 64
4, 30624, Note_on_c, 0, 60, 100
4, 30672, Note_off_c, 0, 60, 64
4, 30672, Note_on_c, 0, 60, 100
4, 30720, Note_off_c, 0, 60, 64
4, 30720, Note_on_c, 0, 53, 100
4, 30768, Note_off_c, 0, 53, 64
4, 30768, Note_on_c, 0, 53, 100
4, 30816, Note_off_c, 0, 53, 64
4, 30816, Note_on_c, 0, 53, 100
4, 30864, Note_off_c, 0, 53, 64
4, 30864, Note_on_c, 0, 53, 100
4, 30912, Note_off_c, 0, 53, 64
4, 30912, Note_on_c, 0, 53, 100
4, 30960, Note_off_c, 0, 53, 64
4, 30960, Note_on_c, 0, 53, 100
4, 31008, Note_off_c, 0, 53, 64
4, 31008, Note_on_c, 0, 53, 100
4, 31056, Note_off_c, 0, 53, 64
4, 31056, Note_on_c, 0, 53, 100
4, 31104, Note_off_c, 0, 53, 64
4, 31104, Note_on_c, 0, 53, 100
4, 31152, Note_off_c, 0, 53, 64
4, 31152, Note_on_c, 0, 53, 100
4, 31200, Note_off_c, 0, 53, 64
4, 31200, Note_on_c, 0, 53, 100
4, 31248, Note_off_c, 0, 53, 64
4, 31248, Note_on_c, 0, 53, 100
4, 31296, Note_off_c, 0, 53, 64
4, 31296, Note_on_c, 0, 53, 100
4, 31344, Note_off_c, 0, 53, 64
4, 31344, Note_on_c, 0, 53, 100
4, 31392, Note_off_c, 0, 53, 64
4, 31392, Note_on_c, 0, 53, 100
4, 31440, Note_off_c, 0, 53, 64
4, 31440, Note_on_c, 0, 53, 100
4, 31488, Note_off_c, 0, 53, 64
4, 31488, Note_on_c, 0, 53, 100
4, 31536, Note_off_c, 0, 53, 64
4, 31536, Note_on_c, 0, 53, 100
4, 31584, Note_off_c, 0, 53, 64
4, 31584, Note_on_c, 0, 53, 100
4, 31632, Note_off_c, 0, 53, 64
4, 31632, Note_on_c, 0, 53, 100
4, 31680, Note_off_c, 0, 53, 64
4, 31680, Note_on_c, 0, 53, 100
4, 31728, Note_off_c, 0, 53, 64
4, 31728, Note_on_c, 0, 53, 100
4, 31776, Note_off_c, 0, 53, 64
4, 31776, Note_on_c, 0, 53, 100
4, 31824, Note_off_c, 0, 53, 64
4, 31824, Note_on_c, 0, 53, 100
4, 31872, Note_off_c, 0, 53, 64
4, 31872, Note_on_c, 0, 53, 100
4, 31920, Note_off_c, 0, 53, 64
4, 31920, Note_on_c, 0, 53, 100
4, 31968, Note_off_c, 0, 53, 64
4, 31968, Note_on_c, 0, 53, 100
4, 32016, Note_off_c, 0, 53, 64
4, 32016, Note_on_c, 0, 53, 100
4, 32064, Note_off_c, 0, 53, 64
4, 32064, Note_on_c, 0, 55, 100
4, 32112, Note_off_c, 0, 55, 64
4, 32112, Note_on_c, 0, 55, 100
4, 32160, Note_off_c, 0, 55, 64
4, 32160, Note_on_c, 0, 55, 100
4, 32208, Note_off_c, 0, 55, 64
4, 32208, Note_on_c, 0, 55, 100
4, 32256, Note_off_c, 0, 55, 64
4, 32256, Note_on_c, 0, 57, 100
4, 32304, Note_off_c, 0, 57, 64
4, 32304, Note_on_c, 0, 57, 100
4, 32352, Note_off_c, 0, 57, 64
4, 32352, Note_on_c, 0, 57, 100
4, 32400, Note_off_c, 0, 57, 64
4, 32400, Note_on_c, 0, 57, 100
4, 32448, Note_off_c, 0, 57, 64
4, 32448, Note_on_c, 0, 57, 100
4, 32496, Note_off_c, 0, 57, 64
4, 32496, Note_on_c, 0, 57, 100
4, 32544, Note_off_c, 0, 57, 64
4, 32544, Note_on_c, 0, 57, 100
4, 32592, Note_off_c, 0, 57, 64
4, 32592, Note_on_c, 0, 57, 100
4, 32640, Note_off_c, 0, 57, 64
4, 32640, Note_on_c, 0, 57, 100
4, 32688, Note_off_c, 0, 57, 64
4, 32688, Note_on_c, 0, 57, 100
4, 32736, Note_off_c, 0, 57, 64
4, 32736, Note_on_c, 0, 57, 100
4, 32784, Note_off_c, 0, 57, 64
4, 32784, Note_on_c, 0, 57, 100
4, 32832, Note_off_c, 0, 57, 64
4, 32832, Note_on_c, 0, 57, 100
4, 32880, Note_off_c, 0, 57, 64
4, 32880, Note_on_c, 0, 57, 100
4, 32928, Note_off_c, 0, 57, 64
4, 32928, Note_on_c, 0, 57, 100
4, 32976, Note_off_c, 0, 57, 64
4, 32976, Note_on_c, 0, 57, 100
4, 33024, Note_off_c, 0, 57, 64
4, 33024, Note_on_c, 0, 57, 100
4, 33072, Note_off_c, 0, 57, 64
4, 33072, Note_on_c, 0, 57, 100
4, 33120, Note_off_c, 0, 57, 64
4, 33120, Note_on_c, 0, 57, 100
4, 33168, Note_off_c, 0, 57, 64
4, 33168, Note_on_c, 0, 57, 100
4, 33216, Note_off_c, 0, 57, 64
4, 33216, Note_on_c, 0, 57, 100
4, 33264, Note_off_c, 0, 57, 64
4, 33264, Note_on_c, 0, 57, 100
4, 33312, Note_off_c, 0, 57, 64
4, 33312, Note_on_c, 0, 57, 100
4, 33360, Note_off_c, 0, 57, 64
4, 33360, Note_on_c, 0, 57, 100
4, 33408, Note_off_c, 0, 57, 64
4, 33408, Note_on_c, 0, 57, 100
4, 33456, Note_off_c, 0, 57, 64
4, 33456, Note_on_c, 0, 57, 100
4, 33504, Note_off_c, 0, 57, 64
4, 33504, Note_on_c, 0, 57, 100
4, 33552, Note_off_c, 0, 57, 64
4, 33552, Note_on_c, 0, 57, 100
4, 33600, Note_off_c, 0, 57, 64
4, 33600, Note_on_c, 0, 60, 100
4, 33648, Note_off_c, 0, 60, 64
4, 33648, Note_on_c, 0, 60, 100
4, 33696, Note_off_c, 0, 60, 64
4, 33696, Note_on_c, 0, 60, 100
4, 33744, Note_off_c, 0, 60, 64
4, 33744, Note_on_c, 0, 60, 100
4, 33792, Note_off_c, 0, 60, 64
4, 33792, Note_on_c, 0, 53, 100
4, 33840, Note_off_c, 0, 53, 64
4, 33840, Note_on_c, 0, 53, 100
4, 33888, Note_off_c, 0, 53, 64
4, 33888, Note_on_c, 0, 53, 100
4, 33936, Note_off_c, 0, 53, 64
4, 33936, Note_on_c, 0, 53, 100
4, 33984, Note_off_c, 0, 53, 64
4, 33984, Note_on_c, 0, 53, 100
4, 34032, Note_off_c, 0, 53, 64
4, 34032, Note_on_c, 0, 53, 100
4, 34080, Note_off_c, 0, 53, 64
4, 34080, Note_on_c, 0, 53, 100
4, 34128, Note_off_c, 0, 53, 64
4, 34128, Note_on_c, 0, 53, 100
4, 34176, Note_off_c, 0, 53, 64
4, 34176, Note_on_c, 0, 53, 100
4, 34224, Note_off_c, 0, 53, 64
4, 34224, Note_on_c, 0, 53, 100
4, 34272, Note_off_c, 0, 53, 64
4, 34272, Note_on_c, 0, 53, 100
4, 34320, Note_off_c, 0, 53, 64
4, 34320, Note_on_c, 0, 53, 100
4, 34368, Note_off_c, 0, 53, 64
4, 34368, Note_on_c, 0, 53, 100
4, 34416, Note_off_c, 0, 53, 64
4, 34416, Note_on_c, 0, 53, 100
4, 34464, Note_off_c, 0, 53, 64
4, 34464, Note_on_c, 0, 53, 100
4, 34512, Note_off_c, 0, 53, 64
4, 34512, Note_on_c, 0, 53, 100
4, 34560, Note_off_c, 0, 53, 64
4, 34560, Note_on_c, 0, 53, 100
4, 34608, Note_off_c, 0, 53, 64
4, 34608, Note_on_c, 0, 53, 100
4, 34656, Note_off_c, 0, 53, 64
4, 34656, Note_on_c, 0, 53, 100
4, 34704, Note_off_c, 0, 53, 64
4, 34704, Note_on_c, 0, 53, 100
4, 34752, Note_off_c, 0, 53, 64
4, 34752, Note_on_c, 0, 53, 100
4, 34800, Note_off_c, 0, 53, 64
4, 34800, Note_on_c, 0, 53, 100
4, 34848, Note_off_c, 0, 53, 64
4, 34848, Note_on_c, 0, 53, 100
4, 34896, Note_off_c, 0, 53, 64
4, 34896, Note_on_c, 0, 53, 100
4, 34944, Note_off_c, 0, 53, 64
4, 34944, Note_on_c, 0, 53, 100
4, 34992, Note_off_c, 0, 53, 64
4, 34992, Note_on_c, 0, 53, 100
4, 35040, Note_off_c, 0, 53, 64
4, 35040, Note_on_c, 0, 53, 100
4, 35088, Note_off_c, 0, 53, 64
4, 35088, Note_on_c, 0, 53, 100
4, 35136, Note_off_c, 0, 53, 64
4, 35136, Note_on_c, 0, 55, 100
4, 35184, Note_off_c, 0, 55, 64
4, 35184, Note_on_c, 0, 55, 100
4, 35232, Note_off_c, 0, 55, 64
4, 35232, Note_on_c, 0, 55, 100
4, 35280, Note_off_c, 0, 55, 64
4, 35280, Note_on_c, 0, 55, 100
4, 35328, Note_off_c, 0, 55, 64
4, 35328, Note_on_c, 0, 57, 100
4, 35376, Note_off_c, 0, 57, 64
4, 35376, Note_on_c, 0, 57, 100
4, 35424, Note_off_c, 0, 57, 64
4, 35424, Note_on_c, 0, 57, 100
4, 35472, Note_off_c, 0, 57, 64
4, 35472, Note_on_c, 0, 57, 100
4, 35520, Note_off_c, 0, 57, 64
4, 35520, Note_on_c, 0, 57, 100
4, 35568, Note_off_c, 0, 57, 64
4, 35568, Note_on_c, 0, 57, 100
4, 35616, Note_off_c, 0, 57, 64
4, 35616, Note_on_c, 0, 57, 100
4, 35664, Note_off_c, 0, 57, 64
4, 35664, Note_on_c, 0, 57, 100
4, 35712, Note_off_c, 0, 57, 64
4, 35712, Note_on_c, 0, 57, 100
4, 35760, Note_off_c, 0, 57, 64
4, 35760, Note_on_c, 0, 57, 100
4, 35808, Note_off_c, 0, 57, 64
4, 35808, Note_on_c, 0, 57, 100
4, 35856, Note_off_c, 0, 57, 64
4, 35856, Note_on_c, 0, 57, 100
4, 35904, Note_off_c, 0, 57, 64
4, 35904, Note_on_c, 0, 57, 100
4, 35952, Note_off_c, 0, 57, 64
4, 35952, Note_on_c, 0, 57, 100
4, 36000, Note_off_c, 0, 57, 64
4, 36000, Note_on_c, 0, 57, 100
4, 36048, Note_off_c, 0, 57, 64
4, 36048, Note_on_c, 0, 57, 100
4, 36096, Note_off_c, 0, 57, 64
4, 36096, Note_on_c, 0, 57, 100
4, 36144, Note_off_c, 0, 57, 64
4, 36144, Note_on_c, 0, 57, 100
4, 36192, Note_off_c, 0, 57, 64
4, 36192, Note_on_c, 0, 57, 100
4, 36240, Note_off_c, 0, 57, 64
4, 36240, Note_on_c, 0, 57, 100
4, 36288, Note_off_c, 0, 57, 64
4, 36288, Note_on_c, 0, 57, 100
4, 36336, Note_off_c, 0, 57, 64
4, 36336, Note_on_c, 0, 57, 100
4, 36384, Note_off_c, 0, 57, 64
4, 36384, Note_on_c, 0, 57, 100
4, 36432, Note_off_c, 0, 57, 64
4, 36432, Note_on_c, 0, 57, 100
4, 36480, Note_off_c, 0, 57, 64
4, 36480, Note_on_c, 0, 57, 100
4, 36528, Note_off_c, 0, 57, 64
4, 36528, Note_on_c, 0, 57, 100
4, 36576, Note_off_c, 0, 57, 64
4, 36576, Note_on_c, 0, 57, 100
4, 36624, Note_off_c, 0, 57, 64
4, 36624, Note_on_c, 0, 57, 100
4, 36672, Note_off_c, 0, 57, 64
4, 36672, Note_on_c, 0, 60, 100
4, 36720, Note_off_c, 0, 60, 64
4, 36720, Note_on_c, 0, 60, 100
4, 36768, Note_off_c, 0, 60, 64
4, 36768, Note_on_c, 0, 60, 100
4, 36816, Note_off_c, 0, 60, 64
4, 36816, Note_on_c, 0, 60, 100
4, 36864, Note_off_c, 0, 60, 64
4, 36864, Note_on_c, 0, 53, 100
4, 36912, Note_off_c, 0, 53, 64
4, 36912, Note_on_c, 0, 53, 100
4, 36960, Note_off_c, 0, 53, 64
4, 36960, Note_on_c, 0, 53, 100
4, 37008, Note_off_c, 0, 53, 64
4, 37008, Note_on_c, 0, 53, 100
4, 37056, Note_off_c, 0, 53, 64
4, 37056, Note_on_c, 0, 53, 100
4, 37104, Note_off_c, 0, 53, 64
4, 37104, Note_on_c, 0, 53, 100
4, 37152, Note_off_c, 0, 53, 64
4, 37152, Note_on_c, 0, 53, 100
4, 37200, Note_off_c, 0, 53, 64
4, 37200, Note_on_c, 0, 53, 100
4, 37248, Note_off_c, 0, 53, 64
4, 37248, Note_on_c, 0, 53, 100
4, 37296, Note_off_c, 0, 53, 64
4, 37296, Note_on_c, 0, 53, 100
4, 37344, Note_off_c, 0, 53, 64
4, 37344, Note_on_c, 0, 53, 100
4, 37392, Note_off_c, 0, 53, 64
4, 37392, Note_on_c, 0, 53, 100
4, 37440, Note_off_c, 0, 53, 64
4, 37440, Note_on_c, 0, 53, 100
4, 37488, Note_off_c, 0, 53, 64
4, 37488, Note_on_c, 0, 53, 100
4, 37536, Note_off_c, 0, 53, 64
4, 37536, Note_on_c, 0, 53, 100
4, 37584, Note_off_c, 0, 53, 64
4, 37584, Note_on_c, 0, 53, 100
4, 37632, Note_off_c, 0, 53, 64
4, 37632, Note_on_c, 0, 53, 100
4, 37680, Note_off_c, 0, 53, 64
4, 37680, Note_on_c, 0, 53, 100
4, 37728, Note_off_c, 0, 53, 64
4, 37728, Note_on_c, 0, 53, 100
4, 37776, Note_off_c, 0, 53, 64
4, 37776, Note_on_c, 0, 53, 100
4, 37824, Note_off_c, 0, 53, 64
4, 37824, Note_on_c, 0, 53, 100
4, 37872, Note_off_c, 0, 53, 64
4, 37872, Note_on_c, 0, 53, 100
4, 37920, Note_off_c, 0, 53, 64
4, 37920, Note_on_c, 0, 53, 100
4, 37968, Note_off_c, 0, 53, 64
4, 37968, Note_on_c, 0, 53, 100
4, 38016, Note_off_c, 0, 53, 64
4, 38016, Note_on_c, 0, 53, 100
4, 38064, Note_off_c, 0, 53, 64
4, 38064, Note_on_c, 0, 53, 100
4, 38112, Note_off_c, 0, 53, 64
4, 38112, Note_on_c, 0, 53, 100
4, 38160, Note_off_c, 0, 53, 64
4, 38160, Note_on_c, 0, 53, 100
4, 38208, Note_off_c, 0, 53, 64
4, 38208, Note_on_c, 0, 55, 100
4, 38256, Note_off_c, 0, 55, 64
4, 38256, Note_on_c, 0, 55, 100
4, 38304, Note_off_c, 0, 55, 64
4, 38304, Note_on_c, 0, 55, 100
4, 38352, Note_off_c, 0, 55, 64
4, 38352, Note_on_c, 0, 55, 100
4, 38400, Note_off_c, 0, 55, 64
4, 38400, Note_on_c, 0, 57, 100
4, 38448, Note_off_c, 0, 57, 64
4, 38448, Note_on_c, 0, 57, 100
4, 38496, Note_off_c, 0, 57, 64
4, 38496, Note_on_c, 0, 57, 100
4, 38544, Note_off_c, 0, 57, 64
4, 38544, Note_on_c, 0, 57, 100
4, 38592, Note_off_c, 0, 57, 64
4, 38592, Note_on_c, 0, 57, 100
4, 38640, Note_off_c, 0, 57, 64
4, 38640, Note_on_c, 0, 57, 100
4, 38688, Note_off_c, 0, 57, 64
4, 38688, Note_on_c, 0, 57, 100
4, 38736, Note_off_c, 0, 57, 64
4, 38736, Note_on_c, 0, 57, 100
4, 38784, Note_off_c, 0, 57, 64
4, 38784, Note_on_c, 0, 57, 100
4, 38832, Note_off_c, 0, 57, 64
4, 38832, Note_on_c, 0, 57, 100
4, 38880, Note_off_c, 0, 57, 64
4, 38880, Note_on_c, 0, 57, 100
4, 38928, Note_off_c, 0, 57, 64
4, 38928, Note_on_c, 0, 57, 100
4, 38976, Note_off_c, 0, 57, 64
4, 38976, Note_on_c, 0, 57, 100
4, 39024, Note_off_c, 0, 57, 64
4, 39024, Note_on_c, 0, 57, 100
4, 39072, Note_off_c, 0, 57, 64
4, 39072, Note_on_c, 0, 57, 100
4, 39120, Note_off_c, 0, 57, 64
4, 39120, Note_on_c, 0, 57, 100
4, 39168, Note_off_c, 0, 57, 64
4, 39168, Note_on_c, 0, 57, 100
4, 39216, Note_off_c, 0, 57, 64
4, 39216, Note_on_c, 0, 57, 100
4, 39264, Note_off_c, 0, 57, 64
4, 39264, Note_on_c, 0, 57, 100
4, 39312, Note_off_c, 0, 57, 64
4, 39312, Note_on_c, 0, 57, 100
4, 39360, Note_off_c, 0, 57, 64
4, 39360, Note_on_c, 0, 57, 100
4, 39408, Note_off_c, 0, 57, 64
4, 39408, Note_on_c, 0, 57, 100
4, 39456, Note_off_c, 0, 57, 64
4, 39456, Note_on_c, 0, 57, 100
4, 39504, Note_off_c, 0, 57, 64
4, 39504, Note_on_c, 0, 57, 100
4, 39552, Note_off_c, 0, 57, 64
4, 39552, Note_on_c, 0, 57, 100
4, 39600, Note_off_c, 0, 57, 64
4, 39600, Note_on_c, 0, 57, 100
4, 39648, Note_off_c, 0, 57, 64
4, 39648, Note_on_c, 0, 57, 100
4, 39696, Note_off_c, 0, 57, 64
4, 39696, Note_on_c, 0, 57, 100
4, 39744, Note_off_c, 0, 57, 64
4, 39744, Note_on_c, 0, 60, 100
4, 39792, Note_off_c, 0, 60, 64
4, 39792, Note_on_c, 0, 60, 100
4, 39840, Note_off_c, 0, 60, 64
4, 39840, Note_on_c, 0, 60, 100
4, 39888, Note_off_c, 0, 60, 64
4, 39888, Note_on_c, 0, 60, 100
4, 39936, Note_off_c, 0, 60, 64
4, 39936, Note_on_c, 0, 53, 100
4, 39984, Note_off_c, 0, 53, 64
4, 39984, Note_on_c, 0, 53, 100
4, 40032, Note_off_c, 0, 53, 64
4, 40032, Note_on_c, 0, 53, 100
4, 40080, Note_off_c, 0, 53, 64
4, 40080, Note_on_c, 0, 53, 100
4, 40128, Note_off_c, 0, 53, 64
4, 40128, Note_on_c, 0, 53, 100
4, 40176, Note_off_c, 0, 53, 64
4, 40176, Note_on_c, 0, 53, 100
4, 40224, Note_off_c, 0, 53, 64
4, 40224, Note_on_c, 0, 53, 100
4, 40272, Note_off_c, 0, 53, 64
4, 40272, Note_on_c, 0, 53, 100
4, 40320, Note_off_c, 0, 53, 64
4, 40320, Note_on_c, 0, 53, 100
4, 40368, Note_off_c, 0, 53, 64
4, 40368, Note_on_c, 0, 53, 100
4, 40416, Note_off_c, 0, 53, 64
4, 40416, Note_on_c, 0, 53, 100
4, 40464, Note_off_c, 0, 53, 64
4, 40464, Note_on_c, 0, 53, 100
4, 40512, Note_off_c, 0, 53, 64
4, 40512, Note_on_c, 0, 53, 100
4, 40560, Note_off_c, 0, 53, 64
4, 40560, Note_on_c, 0, 53, 100
4, 40608, Note_off_c, 0, 53, 64
4, 40608, Note_on_c, 0, 53, 100
4, 40656, Note_off_c, 0, 53, 64
4, 40656, Note_on_c, 0, 53, 100
4, 40704, Note_off_c, 0, 53, 64
4, 40704, Note_on_c, 0, 53, 100
4, 40752, Note_off_c, 0, 53, 64
4, 40752, Note_on_c, 0, 53, 100
4, 40800, Note_off_c, 0, 53, 64
4, 40800, Note_on_c, 0, 53, 100
4, 40848, Note_off_c, 0, 53, 64
4, 40848, Note_on_c, 0, 53, 100
4, 40896, Note_off_c, 0, 53, 64
4, 40896, Note_on_c, 0, 53, 100
4, 40944, Note_off_c, 0, 53, 64
4, 40944, Note_on_c, 0, 53, 100
4, 40992, Note_off_c, 0, 53, 64
4, 40992, Note_on_c, 0, 53, 100
4, 41040, Note_off_c, 0, 53, 64
4, 41040, Note_on_c, 0, 53, 100
4, 41088, Note_off_c, 0, 53, 64
4, 41088, Note_on_c, 0, 53, 100
4, 41136, Note_off_c, 0, 53, 64
4, 41136, Note_on_c, 0, 53, 100
4, 41184, Note_off_c, 0, 53, 64
4, 41184, Note_on_c, 0, 53, 100
4, 41232, Note_off_c, 0, 53, 64
4, 41232, Note_on_c, 0, 53, 100
4, 41280, Note_off_c, 0, 53, 64
4, 41280, Note_on_c, 0, 55, 100
4, 41328, Note_off_c, 0, 55, 64
4, 41328, Note_on_c, 0, 55, 100
4, 41376, Note_off_c, 0, 55, 64
4, 41376, Note_on_c, 0, 55, 100
4, 41424, Note_off_c, 0, 55, 64
4, 41424, Note_on_c, 0, 55, 100
4, 41472, Note_off_c, 0, 55, 64
4, 41472, Note_on_c, 0, 57, 100
4, 41520, Note_off_c, 0, 57, 64
4, 41520, Note_on_c, 0, 57, 100
4, 41568, Note_off_c, 0, 57, 64
4, 41568, Note_on_c, 0, 57, 100
4, 41616, Note_off_c, 0, 57, 64
4, 41616, Note_on_c, 0, 57, 100
4, 41664, Note_off_c, 0, 57, 64
4, 41664, Note_on_c, 0, 57, 100
4, 41712, Note_off_c, 0, 57, 64
4, 41712, Note_on_c, 0, 57, 100
4, 41760, Note_off_c, 0, 57, 64
4, 41760, Note_on_c, 0, 57, 100
4, 41808, Note_off_c, 0, 57, 64
4, 41808, Note_on_c, 0, 57, 100
4, 41856, Note_off_c, 0, 57, 64
4, 41856, Note_on_c, 0, 57, 100
4, 41904, Note_off_c, 0, 57, 64
4, 41904, Note_on_c, 0, 57, 100
4, 41952, Note_off_c, 0, 57, 64
4, 41952, Note_on_c, 0, 57, 100
4, 42000, Note_off_c, 0, 57, 64
4, 42000, Note_on_c, 0, 57, 100
4, 42048, Note_off_c, 0, 57, 64
4, 42048, Note_on_c, 0, 57, 100
4, 42096, Note_off_c, 0, 57, 64
4, 42096, Note_on_c, 0, 57, 100
4, 42144, Note_off_c, 0, 57, 64
4, 42144, Note_on_c, 0, 57, 100
4, 42192, Note_off_c, 0, 57, 64
4, 42192, Note_on_c, 0, 57, 100
4, 42240, Note_off_c, 0, 57, 64
4, 42240, Note_on_c, 0, 57, 100
4, 42288, Note_off_c, 0, 57, 64
4, 42288, Note_on_c, 0, 57, 100
4, 42336, Note_off_c, 0, 57, 64
4, 42336, Note_on_c, 0, 57, 100
4, 42384, Note_off_c, 0, 57, 64
4, 42384, Note_on_c, 0, 57, 100
4, 42432, Note_off_c, 0, 57, 64
4, 42432, Note_on_c, 0, 57, 100
4, 42480, Note_off_c, 0, 57, 64
4, 42480, Note_on_c, 0, 57, 100
4, 42528, Note_off_c, 0, 57, 64
4, 42528, Note_on_c, 0, 57, 100
4, 42576, Note_off_c, 0, 57, 64
4, 42576, Note_on_c, 0, 57, 100
4, 42624, Note_off_c, 0, 57, 64
4, 42624, Note_on_c, 0, 57, 100
4, 42672, Note_off_c, 0, 57, 64
4, 42672, Note_on_c, 0, 57, 100
4, 42720, Note_off_c, 0, 57, 64
4, 42720, Note_on_c, 0, 57, 100
4, 42768, Note_off_c, 0, 57, 64
4, 42768, Note_on_c, 0, 57, 100
4, 42816, Note_off_c, 0, 57, 64
4, 42816, Note_on_c, 0, 60, 100
4, 42864, Note_off_c, 0, 60, 64
4, 42864, Note_on_c, 0, 60, 100
4, 42912, Note_off_c, 0, 60, 64
4, 42912, Note_on_c, 0, 60, 100
4, 42960, Note_off_c, 0, 60, 64
4, 42960, Note_on_c, 0, 60, 100
4, 43008, Note_off_c, 0, 60, 64
4, 43008, Note_on_c, 0, 53, 100
4, 43056, Note_off_c, 0, 53, 64
4, 43056, Note_on_c, 0, 53, 100
4, 43104, Note_off_c, 0, 53, 64
4, 43104, Note_on_c, 0, 53, 100
4, 43152, Note_off_c, 0, 53, 64
4, 43152, Note_on_c, 0, 53, 100
4, 43200, Note_off_c, 0, 53, 64
4, 43200, Note_on_c, 0, 53, 100
4, 43248, Note_off_c, 0, 53, 64
4, 43248, Note_on_c, 0, 53, 100
4, 43296, Note_off_c, 0, 53, 64
4, 43296, Note_on_c, 0, 53, 100
4, 43344, Note_off_c, 0, 53, 64
4, 43344, Note_on_c, 0, 53, 100
4, 43392, Note_off_c, 0, 53, 64
4, 43392, Note_on_c, 0, 53, 100
4, 43440, Note_off_c, 0, 53, 64
4, 43440, Note_on_c, 0, 53, 100
4, 43488, Note_off_c, 0, 53, 64
4, 43488, Note_on_c, 0, 53, 100
4, 43536, Note_off_c, 0, 53, 64
4, 43536, Note_on_c, 0, 53, 100
4, 43584, Note_off_c, 0, 53, 64
4, 43584, Note_on_c, 0, 53, 100
4, 43632, Note_off_c, 0, 53, 64
4, 43632, Note_on_c, 0, 53, 100
4, 43680, Note_off_c, 0, 53, 64
4, 43680, Note_on_c, 0, 53, 100
4, 43728, Note_off_c, 0, 53, 64
4, 43728, Note_on_c, 0, 53, 100
4, 43776, Note_off_c, 0, 53, 64
4, 43776, Note_on_c, 0, 53, 100
4, 43824, Note_off_c, 0, 53, 64
4, 43824, Note_on_c, 0, 53, 100
4, 43872, Note_off_c, 0, 53, 64
4, 43872, Note_on_c, 0, 53, 100
4, 43920, Note_off_c, 0, 53, 64
4, 43920, Note_on_c, 0, 53, 100
4, 43968, Note_off_c, 0, 53, 64
4, 43968, Note_on_c, 0, 53, 100
4, 44016, Note_off_c, 0, 53, 64
4, 44016, Note_on_c, 0, 53, 100
4, 44064, Note_off_c, 0, 53, 64
4, 44064, Note_on_c, 0, 53, 100
4, 44112, Note_off_c, 0, 53, 64
4, 44112, Note_on_c, 0, 53, 100
4, 44160, Note_off_c, 0, 53, 64
4, 44160, Note_on_c, 0, 53, 100
4, 44208, Note_off_c, 0, 53, 64
4, 44208, Note_on_c, 0, 53, 100
4, 44256, Note_off_c, 0, 53, 64
4, 44256, Note_on_c, 0, 53, 100
4, 44304, Note_off_c, 0, 53, 64
4, 44304, Note_on_c, 0, 53, 100
4, 44352, Note_off_c, 0, 53, 64
4, 44352, Note_on_c, 0, 55, 100
4, 44400, Note_off_c, 0, 55, 64
4, 44400, Note_on_c, 0, 55, 100
4, 44448, Note_off_c, 0, 55, 64
4, 44448, Note_on_c, 0, 55, 100
4, 44496, Note_off_c, 0, 55, 64
4, 44496, Note_on_c, 0, 55, 100
4, 44544, Note_off_c, 0, 55, 64
4, 44544, Note_on_c, 0, 57, 100
4, 44592, Note_off_c, 0, 57, 64
4, 44592, Note_on_c, 0, 57, 100
4, 44640, Note_off_c, 0, 57, 64
4, 44640, Note_on_c, 0, 57, 100
4, 44688, Note_off_c, 0, 57, 64
4, 44688, Note_on_c, 0, 57, 100
4, 44736, Note_off_c, 0, 57, 64
4, 44736, Note_on_c, 0, 57, 100
4, 44784, Note_off_c, 0, 57, 64
4, 44784, Note_on_c, 0, 57, 100
4, 44832, Note_off_c, 0, 57, 64
4, 44832, Note_on_c, 0, 57, 100
4, 44880, Note_off_c, 0, 57, 64
4, 44880, Note_on_c, 0, 57, 100
4, 44928, Note_off_c, 0, 57, 64
4, 44928, Note_on_c, 0, 57, 100
4, 44976, Note_off_c, 0, 57, 64
4, 44976, Note_on_c, 0, 57, 100
4, 45024, Note_off_c, 0, 57, 64
4, 45024, Note_on_c, 0, 57, 100
4, 45072, Note_off_c, 0, 57, 64
4, 45072, Note_on_c, 0, 57, 100
4, 45120, Note_off_c, 0, 57, 64
4, 45120, Note_on_c, 0, 57, 100
4, 45168, Note_off_c, 0, 57, 64
4, 45168, Note_on_c, 0, 57, 100
4, 45216, Note_off_c, 0, 57, 64
4, 45216, Note_on_c, 0, 57, 100
4, 45264, Note_off_c, 0, 57, 64
4, 45264, Note_on_c, 0, 57, 100
4, 45312, Note_off_c, 0, 57, 64
4, 45312, Note_on_c, 0, 57, 100
4, 45360, Note_off_c, 0, 57, 64
4, 45360, Note_on_c, 0, 57, 100
4, 45408, Note_off_c, 0, 57, 64
4, 45408, Note_on_c, 0, 57, 100
4, 45456, Note_off_c, 0, 57, 64
4, 45456, Note_on_c, 0, 57, 100
4, 45504, Note_off_c, 0, 57, 64
4, 45504, Note_on_c, 0, 57, 100
4, 45552, Note_off_c, 0, 57, 64
4, 45552, Note_on_c, 0, 57, 100
4, 45600, Note_off_c, 0, 57, 64
4, 45600, Note_on_c, 0, 57, 100
4, 45648, Note_off_c, 0, 57, 64
4, 45648, Note_on_c, 0, 57, 100
4, 45696, Note_off_c, 0, 57, 64
4, 45696, Note_on_c, 0, 57, 100
4, 45744, Note_off_c, 0, 57, 64
4, 45744, Note_on_c, 0, 57, 100
4, 45792, Note_off_c, 0, 57, 64
4, 45792, Note_on_c, 0, 57, 100
4, 45840, Note_off_c, 0, 57, 64
4, 45840, Note_on_c, 0, 57, 100
4, 45888, Note_off_c, 0, 57, 64
4, 45888, Note_on_c, 0, 60, 100
4, 45936, Note_off_c, 0, 60, 64
4, 45936, Note_on_c, 0, 60, 100
4, 45984, Note_off_c, 0, 60, 64
4, 45984, Note_on_c, 0, 60, 100
4, 46032, Note_off_c, 0, 60, 64
4, 46032, Note_on_c, 0, 60, 100
4, 46080, Note_off_c, 0, 60, 64
4, 46080, Note_on_c, 0, 53, 100
4, 46128, Note_off_c, 0, 53, 64
4, 46128, Note_on_c, 0, 53, 100
4, 46176, Note_off_c, 0, 53, 64
4, 46176, Note_on_c, 0, 53, 100
4, 46224, Note_off_c, 0, 53, 64
4, 46224, Note_on_c, 0, 53, 100
4, 46272, Note_off_c, 0, 53, 64
4, 46272, Note_on_c, 0, 53, 100
4, 46320, Note_off_c, 0, 53, 64
4, 46320, Note_on_c, 0, 53, 100
4, 46368, Note_off_c, 0, 53, 64
4, 46368, Note_on_c, 0, 53, 100
4, 46416, Note_off_c, 0, 53, 64
4, 46416, Note_on_c, 0, 53, 100
4, 46464, Note_off_c, 0, 53, 64
4, 46464, Note_on_c, 0, 53, 100
4, 46512, Note_off_c, 0, 53, 64
4, 46512, Note_on_c, 0, 53, 100
4, 46560, Note_off_c, 0, 53, 64
4, 46560, Note_on_c, 0, 53, 100
4, 46608, Note_off_c, 0, 53, 64
4, 46608, Note_on_c, 0, 53, 100
4, 46656, Note_off_c, 0, 53, 64
4, 46656, Note_on_c, 0, 53, 100
4, 46704, Note_off_c, 0, 53, 64
4, 46704, Note_on_c, 0, 53, 100
4, 46752, Note_off_c, 0, 53, 64
4, 46752, Note_on_c, 0, 53, 100
4, 46800, Note_off_c, 0, 53, 64
4, 46800, Note_on_c, 0, 53, 100
4, 46848, Note_off_c, 0, 53, 64
4, 46848, Note_on_c, 0, 53, 100
4, 46896, Note_off_c, 0, 53, 64
4, 46896, Note_on_c, 0, 53, 100
4, 46944, Note_off_c, 0, 53, 64
4, 46944, Note_on_c, 0, 53, 100
4, 46992, Note_off_c, 0, 53, 64
4, 46992, Note_on_c, 0, 53, 100
4, 47040, Note_off_c, 0, 53, 64
4, 47040, Note_on_c, 0, 53, 100
4, 47088, Note_off_c, 0, 53, 64
4, 47088, Note_on_c, 0, 53, 100
4, 47136, Note_off_c, 0, 53, 64
4, 47136, Note_on_c, 0, 53, 100
4, 47184, Note_off_c, 0, 53, 64
4, 47184, Note_on_c, 0, 53, 100
4, 47232, Note_off_c, 0, 53, 64
4, 47232, Note_on_c, 0, 53, 100
4, 47280, Note_off_c, 0, 53, 64
4, 47280, Note_on_c, 0, 53, 100
4, 47328, Note_off_c, 0, 53, 64
4, 47328, Note_on_c, 0, 53, 100
4, 47376, Note_off_c, 0, 53, 64
4, 47376, Note_on_c, 0, 53, 100
4, 47424, Note_off_c, 0, 53, 64
4, 47424, Note_on_c, 0, 55, 100
4, 47472, Note_off_c, 0, 55, 64
4, 47472, Note_on_c, 0, 55, 100
4, 47520, Note_off_c, 0, 55, 64
4, 47520, Note_on_c, 0, 55, 100
4, 47568, Note_off_c, 0, 55, 64
4, 47568, Note_on_c, 0, 55, 100
4, 47616, Note_off_c, 0, 55, 64
4, 47616, Note_on_c, 0, 57, 100
4, 47664, Note_off_c, 0, 57, 64
4, 47664, Note_on_c, 0, 57, 100
4, 47712, Note_off_c, 0, 57, 64
4, 47712, Note_on_c, 0, 57, 100
4, 47760, Note_off_c, 0, 57, 64
4, 47760, Note_on_c, 0, 57, 100
4, 47808, Note_off_c, 0, 57, 64
4, 47808, Note_on_c, 0, 57, 100
4, 47856, Note_off_c, 0, 57, 64
4, 47856, Note_on_c, 0, 57, 100
4, 47904, Note_off_c, 0, 57, 64
4, 47904, Note_on_c, 0, 57, 100
4, 47952, Note_off_c, 0, 57, 64
4, 47952, Note_on_c, 0, 57, 100
4, 48000, Note_off_c, 0, 57, 64
4, 48000, Note_on_c, 0, 57, 100
4, 48048, Note_off_c, 0, 57, 64
4, 48048, Note_on_c, 0, 57, 100
4, 48096, Note_off_c, 0, 57, 64
4, 48096, Note_on_c, 0, 57, 100
4, 48144, Note_off_c, 0, 57, 64
4, 48144, Note_on_c, 0, 57, 100
4, 48192, Note_off_c, 0, 57, 64
4, 48192, Note_on_c, 0, 57, 100
4, 48240, Note_off_c, 0, 57, 64
4, 48240, Note_on_c, 0, 57, 100
4, 48288, Note_off_c, 0, 57, 64
4, 48288, Note_on_c, 0, 57, 100
4, 48336, Note_off_c, 0, 57, 64
4, 48336, Note_on_c, 0, 57, 100
4, 48384, Note_off_c, 0, 57, 64
4, 48384, Note_on_c, 0, 57, 100
4, 48432, Note_off_c, 0, 57, 64
4, 48432, Note_on_c, 0, 57, 100
4, 48480, Note_off_c, 0, 57, 64
4, 48480, Note_on_c, 0, 57, 100
4, 48528, Note_off_c, 0, 57, 64
4, 48528, Note_on_c, 0, 57, 100
4, 48576, Note_off_c, 0, 57, 64
4, 48576, Note_on_c, 0, 57, 100
4, 48624, Note_off_c, 0, 57, 64
4, 48624, Note_on_c, 0, 57, 100
4, 48672, Note_off_c, 0, 57, 64
4, 48672, Note_on_c, 0, 57, 100
4, 48720, Note_off_c, 0, 57, 64
4, 48720, Note_on_c, 0, 57, 100
4, 48768, Note_off_c, 0, 57, 64
4, 48768, Note_on_c, 0, 57, 100
4, 48816, Note_off_c, 0, 57, 64
4, 48816, Note_on_c, 0, 57, 100
4, 48864, Note_off_c, 0, 57, 64
4, 48864, Note_on_c, 0, 57, 100
4, 48912, Note_off_c, 0, 57, 64
4, 48912, Note_on_c, 0, 57, 100
4, 48960, Note_off_c, 0, 57, 64
4, 48960, Note_on_c, 0, 60, 100
4, 49008, Note_off_c, 0, 60, 64
4, 49008, Note_on_c, 0, 60, 100
4, 49056, Note_off_c, 0, 60, 64
4, 49056, Note_on_c, 0, 60, 100
4, 49104, Note_off_c, 0, 60, 64
4, 49104, Note_on_c, 0, 60, 100
4, 49152, Note_off_c, 0, 60, 64
4, 49152, Note_on_c, 0, 53, 100
4, 49200, Note_off_c, 0, 53, 64
4, 49200, Note_on_c, 0, 53, 100
4, 49248, Note_off_c, 0, 53, 64
4, 49248, Note_on_c, 0, 53, 100
4, 49296, Note_off_c, 0, 53, 64
4, 49296, Note_on_c, 0, 53, 100
4, 49344, Note_off_c, 0, 53, 64
4, 49344, Note_on_c, 0, 53, 100
4, 49392, Note_off_c, 0, 53, 64
4, 49392, Note_on_c, 0, 53, 100
4, 49440, Note_off_c, 0, 53, 64
4, 49440, Note_on_c, 0, 53, 100
4, 49488, Note_off_c, 0, 53, 64
4, 49488, Note_on_c, 0, 53, 100
4, 49536, Note_off_c, 0, 53, 64
4, 49536, Note_on_c, 0, 53, 100
4, 49584, Note_off_c, 0, 53, 64
4, 49584, Note_on_c, 0, 53, 100
4, 49632, Note_off_c, 0, 53, 64
4, 49632, Note_on_c, 0, 53, 100
4, 49680, Note_off_c, 0, 53, 64
4, 49680, Note_on_c, 0, 53, 100
4, 49728, Note_off_c, 0, 53, 64
4, 49728, Note_on_c, 0, 53, 100
4, 49776, Note_off_c, 0, 53, 64
4, 49776, Note_on_c, 0, 53, 100
4, 49824, Note_off_c, 0, 53, 64
4, 49824, Note_on_c, 0, 53, 100
4, 49872, Note_off_c, 0, 53, 64
4, 49872, Note_on_c, 0, 53, 100
4, 49920, Note_off_c, 0, 53, 64
4, 49920, Note_on_c, 0, 53, 100
4, 49968, Note_off_c, 0, 53, 64
4, 49968, Note_on_c, 0, 53, 100
4, 50016, Note_off_c, 0, 53, 64
4, 50016, Note_on_c, 0, 53, 100
4, 50064, Note_off_c, 0, 53, 64
4, 50064, Note_on_c, 0, 53, 100
4, 50112, Note_off_c, 0, 53, 64
4, 50112, Note_on_c, 0, 53, 100
4, 50160, Note_off_c, 0, 53, 64
4, 50160, Note_on_c, 0, 53, 100
4, 50208, Note_off_c, 0, 53, 64
4, 50208, Note_on_c, 0, 53, 100
4, 50256, Note_off_c, 0, 53, 64
4, 50256, Note_on_c, 0, 53, 100
4, 50304, Note_off_c, 0, 53, 64
4, 50304, Note_on_c, 0, 53, 100
4, 50352, Note_off_c, 0, 53, 64
4, 50352, Note_on_c, 0, 53, 100
4, 50400, Note_off_c, 0, 53, 64
4, 50400, Note_on_c, 0, 53, 100
4, 50448, Note_off_c, 0, 53, 64
4, 50448, Note_on_c, 0, 53, 100
4, 50496, Note_off_c, 0, 53, 64
4, 50496, Note_on_c, 0, 55, 100
4, 50544, Note_off_c, 0, 55, 64
4, 50544, Note_on_c, 0, 55, 100
4, 50592, Note_off_c, 0, 55, 64
4, 50592, Note_on_c, 0, 55, 100
4, 50640, Note_off_c, 0, 55, 64
4, 50640, Note_on_c, 0, 55, 100
4, 50688, Note_off_c, 0, 55, 64
4, 50688, Note_on_c, 0, 57, 100
4, 50736, Note_off_c, 0, 57, 64
4, 50736, Note_on_c, 0, 57, 100
4, 50784, Note_off_c, 0, 57, 64
4, 50784, Note_on_c, 0, 57, 100
4, 50832, Note_off_c, 0, 57, 64
4, 50832, Note_on_c, 0, 57, 100
4, 50880, Note_off_c, 0, 57, 64
4, 50880, Note_on_c, 0, 57, 100
4, 50928, Note_off_c, 0, 57, 64
4, 50928, Note_on_c, 0, 57, 100
4, 50976, Note_off_c, 0, 57, 64
4, 50976, Note_on_c, 0, 57, 100
4, 51024, Note_off_c, 0, 57, 64
4, 51024, Note_on_c, 0, 57, 100
4, 51072, Note_off_c, 0, 57, 64
4, 51072, Note_on_c, 0, 57, 100
4, 51120, Note_off_c, 0, 57, 64
4, 51120, Note_on_c, 0, 57, 100
4, 51168, Note_off_c, 0, 57, 64
4, 51168, Note_on_c, 0, 57, 100
4, 51216, Note_off_c, 0, 57, 64
4, 51216, Note_on_c, 0, 57, 100
4, 51264, Note_off_c, 0, 57, 64
4, 51264, Note_on_c, 0, 57, 100
4, 51312, Note_off_c, 0, 57, 64
4, 51312, Note_on_c, 0, 57, 100
4, 51360, Note_off_c, 0, 57, 64
4, 51360, Note_on_c, 0, 57, 100
4, 51408, Note_off_c, 0, 57, 64
4, 51408, Note_on_c, 0, 57, 100
4, 51456, Note_off_c, 0, 57, 64
4, 51456, Note_on_c, 0, 57, 100
4, 51504, Note_off_c, 0, 57, 64
4, 51504, Note_on_c, 0, 57, 100
4, 51552, Note_off_c, 0, 57, 64
4, 51552, Note_on_c, 0, 57, 100
4, 51600, Note_off_c, 0, 57, 64
4, 51600, Note_on_c, 0, 57, 100
4, 51648, Note_off_c, 0, 57, 64
4, 51648, Note_on_c, 0, 57, 100
4, 51696, Note_off_c, 0, 57, 64
4, 51696, Note_on_c, 0, 57, 100
4, 51744, Note_off_c, 0, 57, 64
4, 51744, Note_on_c, 0, 57, 100
4, 51792, Note_off_c, 0, 57, 64
4, 51792, Note_on_c, 0, 57, 100
4, 51840, Note_off_c, 0, 57, 64
4, 51840, Note_on_c, 0, 57, 100
4, 51888, Note_off_c, 0, 57, 64
4, 51888, Note_on_c, 0, 57, 100
4, 51936, Note_off_c, 0, 57, 64
4, 51936, Note_on_c, 0, 57, 100
4, 51984, Note_off_c, 0, 57, 64
4, 51984, Note_on_c, 0, 57, 100
4, 52032, Note_off_c, 0, 57, 64
4, 52032, Note_on_c, 0, 60, 100
4, 52080, Note_off_c, 0, 60, 64
4, 52080, Note_on_c, 0, 60, 100
4, 52128, Note_off_c, 0, 60, 64
4, 52128, Note_on_c, 0, 60, 100
4, 52176, Note_off_c, 0, 60, 64
4, 52176, Note_on_c, 0, 60, 100
4, 52224, Note_off_c, 0, 60, 64
4, 52224, Note_on_c, 0, 53, 100
4, 52272, Note_off_c, 0, 53, 64
4, 52272, Note_on_c, 0, 53, 100
4, 52320, Note_off_c, 0, 53, 64
4, 52320, Note_on_c, 0, 53, 100
4, 52368, Note_off_c, 0, 53, 64
4, 52368, Note_on_c, 0, 53, 100
4, 52416, Note_off_c, 0, 53, 64
4, 52416, Note_on_c, 0, 53, 100
4, 52464, Note_off_c, 0, 53, 64
4, 52464, Note_on_c, 0, 53, 100
4, 52512, Note_off_c, 0, 53, 64
4, 52512, Note_on_c, 0, 53, 100
4, 52560, Note_off_c, 0, 53, 64
4, 52560, Note_on_c, 0, 53, 100
4, 52608, Note_off_c, 0, 53, 64
4, 52608, Note_on_c, 0, 53, 100
4, 52656, Note_off_c, 0, 53, 64
4, 52656, Note_on_c, 0, 53, 100
4, 52704, Note_off_c, 0, 53, 64
4, 52704, Note_on_c, 0, 53, 100
4, 52752, Note_off_c, 0, 53, 64
4, 52752, Note_on_c, 0, 53, 100
4, 52800, Note_off_c, 0, 53, 64
4, 52800, Note_on_c, 0, 53, 100
4, 52848, Note_off_c, 0, 53, 64
4, 52848, Note_on_c, 0, 53, 100
4, 52896, Note_off_c, 0, 53, 64
4, 52896, Note_on_c, 0, 53, 100
4, 52944, Note_off_c, 0, 53, 64
4, 52944, Note_on_c, 0, 53, 100
4, 52992, Note_off_c, 0, 53, 64
4, 52992, Note_on_c, 0, 53, 100
4, 53040, Note_off_c, 0, 53, 64
4, 53040, Note_on_c, 0, 53, 100
4, 53088, Note_off_c, 0, 53, 64
4, 53088, Note_on_c, 0, 53, 100
4, 53136, Note_off_c, 0, 53, 64
4, 53136, Note_on_c, 0, 53, 100
4, 53184, Note_off_c, 0, 53, 64
4, 53184, Note_on_c, 0, 53, 100
4, 53232, Note_off_c, 0, 53, 64
4, 53232, Note_on_c, 0, 53, 100
4, 53280, Note_off_c, 0, 53, 64
4, 53280, Note_on_c, 0, 53, 100
4, 53328, Note_off_c, 0, 53, 64
4, 53328, Note_on_c, 0, 53, 100
4, 53376, Note_off_c, 0, 53, 64
4, 53376, Note_on_c, 0, 53, 100
4, 53424, Note_off_c, 0, 53, 64
4, 53424, Note_on_c, 0, 53, 100
4, 53472, Note_off_c, 0, 53, 64
4, 53472, Note_on_c, 0, 53, 100
4, 53520, Note_off_c, 0, 53, 64
4, 53520, Note_on_c, 0, 53, 100
4, 53568, Note_off_c, 0, 53, 64
4, 53568, Note_on_c, 0, 55, 100
4, 53616, Note_off_c, 0, 55, 64
4, 53616, Note_on_c, 0, 55, 100
4, 53664, Note_off_c, 0, 55, 64
4, 53664, Note_on_c, 0, 55, 100
4, 53712, Note_off_c, 0, 55, 64
4, 53712, Note_on_c, 0, 55, 100
4, 53760, Note_off_c, 0, 55, 64
4, 53760, Note_on_c, 0, 57, 100
4, 53808, Note_off_c, 0, 57, 64
4, 53808, Note_on_c, 0, 57, 100
4, 53856, Note_off_c, 0, 57, 64
4, 53856, Note_on_c, 0, 57, 100
4, 53904, Note_off_c, 0, 57, 64
4, 53904, Note_on_c, 0, 57, 100
4, 53952, Note_off_c, 0, 57, 64
4, 53952, Note_on_c, 0, 57, 100
4, 54000, Note_off_c, 0, 57, 64
4, 54000, Note_on_c, 0, 57, 100
4, 54048, Note_off_c, 0, 57, 64
4, 54048, Note_on_c, 0, 57, 100
4, 54096, Note_off_c, 0, 57, 64
4, 54096, Note_on_c, 0, 57, 100
4, 54144, Note_off_c, 0, 57, 64
4, 54144, Note_on_c, 0, 57, 100
4, 54192, Note_off_c, 0, 57, 64
4, 54192, Note_on_c, 0, 57, 100
4, 54240, Note_off_c, 0, 57, 64
4, 54240, Note_on_c, 0, 57, 100
4, 54288, Note_off_c, 0, 57, 64
4, 54288, Note_on_c, 0, 57, 100
4, 54336, Note_off_c, 0, 57, 64
4, 54336, Note_on_c, 0, 57, 100
4, 54384, Note_off_c, 0, 57, 64
4, 54384, Note_on_c, 0, 57, 100
4, 54432, Note_off_c, 0, 57, 64
4, 54432, Note_on_c, 0, 57, 100
4, 54480, Note_off_c, 0, 57, 64
4, 54480, Note_on_c, 0, 57, 100
4, 54528, Note_off_c, 0, 57, 64
4, 54528, Note_on_c, 0, 57, 100
4, 54576, Note_off_c, 0, 57, 64
4, 54576, Note_on_c, 0, 57, 100
4, 54624, Note_off_c, 0, 57, 64
4, 54624, Note_on_c, 0, 57, 100
4, 54672, Note_off_c, 0, 57, 64
4, 54672, Note_on_c, 0, 57, 100
4, 54720, Note_off_c, 0, 57, 64
4, 54720, Note_on_c, 0, 57, 100
4, 54768, Note_off_c, 0, 57, 64
4, 54768, Note_on_c, 0, 57, 100
4, 54816, Note_off_c, 0, 57, 64
4, 54816, Note_on_c, 0, 57, 100
4, 54864, Note_off_c, 0, 57, 64
4, 54864, Note_on_c, 0, 57, 100
4, 54912, Note_off_c, 0, 57, 64
4, 54912, Note_on_c, 0, 57, 100
4, 54960, Note_off_c, 0, 57, 64
4, 54960, Note_on_c, 0, 57, 100
4, 55008, Note_off_c, 0, 57, 64
4, 55008, Note_on_c, 0, 57, 100
4, 55056, Note_off_c, 0, 57, 64
4, 55056, Note_on_c, 0, 57, 100
4, 55104, Note_off_c, 0, 57, 64
4, 55104, Note_on_c, 0, 60, 100
4, 55152, Note_off_c, 0, 60, 64
4, 55152, Note_on_c, 0, 60, 100
4, 55200, Note_off_c, 0, 60, 64
4, 55200, Note_on_c, 0, 60, 100
4, 55248, Note_off_c, 0, 60, 64
4, 55248, Note_on_c, 0, 60, 100
4, 55296, Note_off_c, 0, 60, 64
4, 55296, Note_on_c, 0, 53, 100
4, 55344, Note_off_c, 0, 53, 64
4, 55344, Note_on_c, 0, 53, 100
4, 55392, Note_off_c, 0, 53, 64
4, 55392, Note_on_c, 0, 53, 100
4, 55440, Note_off_c, 0, 53, 64
4, 55440, Note_on_c, 0, 53, 100
4, 55488, Note_off_c, 0, 53, 64
4, 55488, Note_on_c, 0, 53, 100
4, 55536, Note_off_c, 0, 53, 64
4, 55536, Note_on_c, 0, 53, 100
4, 55584, Note_off_c, 0, 53, 64
4, 55584, Note_on_c, 0, 53, 100
4, 55632, Note_off_c, 0, 53, 64
4, 55632, Note_on_c, 0, 53, 100
4, 55680, Note_off_c, 0, 53, 64
4, 55680, Note_on_c, 0, 53, 100
4, 55728, Note_off_c, 0, 53, 64
4, 55728, Note_on_c, 0, 53, 100
4, 55776, Note_off_c, 0, 53, 64
4, 55776, Note_on_c, 0, 53, 100
4, 55824, Note_off_c, 0, 53, 64
4, 55824, Note_on_c, 0, 53, 100
4, 55872, Note_off_c, 0, 53, 64
4, 55872, Note_on_c, 0, 53, 100
4, 55920, Note_off_c, 0, 53, 64
4, 55920, Note_on_c, 0, 53, 100
4, 55968, Note_off_c, 0, 53, 64
4, 55968, Note_on_c, 0, 53, 100
4, 56016, Note_off_c, 0, 53, 64
4, 56016, Note_on_c, 0, 53, 100
4, 56064, Note_off_c, 0, 53, 64
4, 56064, Note_on_c, 0, 53, 100
4, 56112, Note_off_c, 0, 53, 64
4, 56112, Note_on_c, 0, 53, 100
4, 56160, Note_off_c, 0, 53, 64
4, 56160, Note_on_c, 0, 53, 100
4, 56208, Note_off_c, 0, 53, 64
4, 56208, Note_on_c, 0, 53, 100
4, 56256, Note_off_c, 0, 53, 64
4, 56256, Note_on_c, 0, 53, 100
4, 56304, Note_off_c, 0, 53, 64
4, 56304, Note_on_c, 0, 53, 100
4, 56352, Note_off_c, 0, 53, 64
4, 56352, Note_on_c, 0, 53, 100
4, 56400, Note_off_c, 0, 53, 64
4, 56400, Note_on_c, 0, 53, 100
4, 56448, Note_off_c, 0, 53, 64
4, 56448, Note_on_c, 0, 53, 100
4, 56496, Note_off_c, 0, 53, 64
4, 56496, Note_on_c, 0, 53, 100
4, 56544, Note_off_c, 0, 53, 64
4, 56544, Note_on_c, 0, 53, 100
4, 56592, Note_off_c, 0, 53, 64
4, 56592, Note_on_c, 0, 53, 100
4, 56640, Note_off_c, 0, 53, 64
4, 56640, Note_on_c, 0, 55, 100
4, 56688, Note_off_c, 0, 55, 64
4, 56688, Note_on_c, 0, 55, 100
4, 56736, Note_off_c, 0, 55, 64
4, 56736, Note_on_c, 0, 55, 100
4, 56784, Note_off_c, 0, 55, 64
4, 56784, Note_on_c, 0, 55, 100
4, 56832, Note_off_c, 0, 55, 64
4, 56832, Note_on_c, 0, 57, 100
4, 56880, Note_off_c, 0, 57, 64
4, 56880, Note_on_c, 0, 57, 100
4, 56928, Note_off_c, 0, 57, 64
4, 56928, Note_on_c, 0, 57, 100
4, 56976, Note_off_c, 0, 57, 64
4, 56976, Note_on_c, 0, 57, 100
4, 57024, Note_off_c, 0, 57, 64
4, 57024, Note_on_c, 0, 57, 100
4, 57072, Note_off_c, 0, 57, 64
4, 57072, Note_on_c, 0, 57, 100
4, 57120, Note_off_c, 0, 57, 64
4, 57120, Note_on_c, 0, 57, 100
4, 57168, Note_off_c, 0, 57, 64
4, 57168, Note_on_c, 0, 57, 100
4, 57216, Note_off_c, 0, 57, 64
4, 57216, Note_on_c, 0, 57, 100
4, 57264, Note_off_c, 0, 57, 64
4, 57264, Note_on_c, 0, 57, 100
4, 57312, Note_off_c, 0, 57, 64
4, 57312, Note_on_c, 0, 57, 100
4, 57360, Note_off_c, 0, 57, 64
4, 57360, Note_on_c, 0, 57, 100
4, 57408, Note_off_c, 0, 57, 64
4, 57408, Note_on_c, 0, 57, 100
4, 57456, Note_off_c, 0, 57, 64
4, 57456, Note_on_c, 0, 57, 100
4, 57504, Note_off_c, 0, 57, 64
4, 57504, Note_on_c, 0, 57, 100
4, 57552, Note_off_c, 0, 57, 64
4, 57552, Note_on_c, 0, 57, 100
4, 57600, Note_off_c, 0, 57, 64
4, 57600, Note_on_c, 0, 57, 100
4, 57648, Note_off_c, 0, 57, 64
4, 57648, Note_on_c, 0, 57, 100
4, 57696, Note_off_c, 0, 57, 64
4, 57696, Note_on_c, 0, 57, 100
4, 57744, Note_off_c, 0, 57, 64
4, 57744, Note_on_c, 0, 57, 100
4, 57792, Note_off_c, 0, 57, 64
4, 57792, Note_on_c, 0, 57, 100
4, 57840, Note_off_c, 0, 57, 64
4, 57840, Note_on_c, 0, 57, 100
4, 57888, Note_off_c, 0, 57, 64
4, 57888, Note_on_c, 0, 57, 100
4, 57936, Note_off_c, 0, 57, 64
4, 57936, Note_on_c, 0, 57, 100
4, 57984, Note_off_c, 0, 57, 64
4, 57984, Note_on_c, 0, 57, 100
4, 58032, Note_off_c, 0, 57, 64
4, 58032, Note_on_c, 0, 57, 100
4, 58080, Note_off_c, 0, 57, 64
4, 58080, Note_on_c, 0, 57, 100
4, 58128, Note_off_c, 0, 57, 64
4, 58128, Note_on_c, 0, 57, 100
4, 58176, Note_off_c, 0, 57, 64
4, 58176, Note_on_c, 0, 60, 100
4, 58224, Note_off_c, 0, 60, 64
4, 58224, Note_on_c, 0, 60, 100
4, 58272, Note_off_c, 0, 60, 64
4, 58272, Note_on_c, 0, 60, 100
4, 58320, Note_off_c, 0, 60, 64
4, 58320, Note_on_c, 0, 60, 100
4, 58368, Note_off_c, 0, 60, 64
4, 58368, Note_on_c, 0, 53, 100
4, 58416, Note_off_c, 0, 53, 64
4, 58416, Note_on_c, 0, 53, 100
4, 58464, Note_off_c, 0, 53, 64
4, 58464, Note_on_c, 0, 53, 100
4, 58512, Note_off_c, 0, 53, 64
4, 58512, Note_on_c, 0, 53, 100
4, 58560, Note_off_c, 0, 53, 64
4, 58560, Note_on_c, 0, 53, 100
4, 58608, Note_off_c, 0, 53, 64
4, 58608, Note_on_c, 0, 53, 100
4, 58656, Note_off_c, 0, 53, 64
4, 58656, Note_on_c, 0, 53, 100
4, 58704, Note_off_c, 0, 53, 64
4, 58704, Note_on_c, 0, 53, 100
4, 58752, Note_off_c, 0, 53, 64
4, 58752, Note_on_c, 0, 53, 100
4, 58800, Note_off_c, 0, 53, 64
4, 58800, Note_on_c, 0, 53, 100
4, 58848, Note_off_c, 0, 53, 64
4, 58848, Note_on_c, 0, 53, 100
4, 58896, Note_off_c, 0, 53, 64
4, 58896, Note_on_c, 0, 53, 100
4, 58944, Note_off_c, 0, 53, 64
4, 58944, Note_on_c, 0, 53, 100
4, 58992, Note_off_c, 0, 53, 64
4, 58992, Note_on_c, 0, 53, 100
4, 59040, Note_off_c, 0, 53, 64
4, 59040, Note_on_c, 0, 53, 100
4, 59088, Note_off_c, 0, 53, 64
4, 59088, Note_on_c, 0, 53, 100
4, 59136, Note_off_c, 0, 53, 64
4, 59136, Note_on_c, 0, 53, 100
4, 59184, Note_off_c, 0, 53, 64
4, 59184, Note_on_c, 0, 53, 100
4, 59232, Note_off_c, 0, 53, 64
4, 59232, Note_on_c, 0, 53, 100
4, 59280, Note_off_c, 0, 53, 64
4, 59280, Note_on_c, 0, 53, 100
4, 59328, Note_off_c, 0, 53, 64
4, 59328, Note_on_c, 0, 53, 100
4, 59376, Note_off_c, 0, 53, 64
4, 59376, Note_on_c, 0, 53, 100
4, 59424, Note_off_c, 0, 53, 64
4, 59424, Note_on_c, 0, 53, 100
4, 59472, Note_off_c, 0, 53, 64
4, 59472, Note_on_c, 0, 53, 100
4, 59520, Note_off_c, 0, 53, 64
4, 59520, Note_on_c, 0, 53, 100
4, 59568, Note_off_c, 0, 53, 64
4, 59568, Note_on_c, 0, 53, 100
4, 59616, Note_off_c, 0, 53, 64
4, 59616, Note_on_c, 0, 53, 100
4, 59664, Note_off_c, 0, 53, 64
4, 59664, Note_on_c, 0, 53, 100
4, 59712, Note_off_c, 0, 53, 64
4, 59712, Note_on_c, 0, 55, 100
4, 59760, Note_off_c, 0, 55, 64
4, 59760, Note_on_c, 0, 55, 100
4, 59808, Note_off_c, 0, 55, 64
4, 59808, Note_on_c, 0, 55, 100
4, 59856, Note_off_c, 0, 55, 64
4, 59856, Note_on_c, 0, 55, 100
4, 59904, Note_off_c, 0, 55, 64
4, 59904, Note_on_c, 0, 57, 100
4, 59952, Note_off_c, 0, 57, 64
4, 59952, Note_on_c, 0, 57, 100
4, 60000, Note_off_c, 0, 57, 64
4, 60000, Note_on_c, 0, 57, 100
4, 60048, Note_off_c, 0, 57, 64
4, 60048, Note_on_c, 0, 57, 100
4, 60096, Note_off_c, 0, 57, 64
4, 60096, Note_on_c, 0, 57, 100
4, 60144, Note_off_c, 0, 57, 64
4, 60144, Note_on_c, 0, 57, 100
4, 60192, Note_off_c, 0, 57, 64
4, 60192, Note_on_c, 0, 57, 100
4, 60240, Note_off_c, 0, 57, 64
4, 60240, Note_on_c, 0, 57, 100
4, 60288, Note_off_c, 0, 57, 64
4, 60288, Note_on_c, 0, 57, 100
4, 60336, Note_off_c, 0, 57, 64
4, 60336, Note_on_c, 0, 57, 100
4, 60384, Note_off_c, 0, 57, 64
4, 60384, Note_on_c, 0, 57, 100
4, 60432, Note_off_c, 0, 57, 64
4, 60432, Note_on_c, 0, 57, 100
4, 60480, Note_off_c, 0, 57, 64
4, 60480, Note_on_c, 0, 57, 100
4, 60528, Note_off_c, 0, 57, 64
4, 60528, Note_on_c, 0, 57, 100
4, 60576, Note_off_c, 0, 57, 64
4, 60576, Note_on_c, 0, 57, 100
4, 60624, Note_off_c, 0, 57, 64
4, 60624, Note_on_c, 0, 57, 100
4, 60672, Note_off_c, 0, 57, 64
4, 60672, Note_on_c, 0, 57, 100
4, 60720, Note_off_c, 0, 57, 64
4, 60720, Note_on_c, 0, 57, 100
4, 60768, Note_off_c, 0, 57, 64
4, 60768, Note_on_c, 0, 57, 100
4, 60816, Note_off_c, 0, 57, 64
4, 60816, Note_on_c, 0, 57, 100
4, 60864, Note_off_c, 0, 57, 64
4, 60864, Note_on_c, 0, 57, 100
4, 60912, Note_off_c, 0, 57, 64
4, 60912, Note_on_c, 0, 57, 100
4, 60960, Note_off_c, 0, 57, 64
4, 60960, Note_on_c, 0, 57, 100
4, 61008, Note_off_c, 0, 57, 64
4, 61008, Note_on_c, 0, 57, 100
4, 61056, Note_off_c, 0, 57, 64
4, 61056, Note_on_c, 0, 57, 100
4, 61104, Note_off_c, 0, 57, 64
4, 61104, Note_on_c, 0, 57, 100
4, 61152, Note_off_c, 0, 57, 64
4, 61152, Note_on_c, 0, 57, 100
4, 61200, Note_off_c, 0, 57, 64
4, 61200, Note_on_c, 0, 57, 100
4, 61248, Note_off_c, 0, 57, 64
4, 61248, Note_on_c, 0, 60, 100
4, 61296, Note_off_c, 0, 60, 64
4, 61296, Note_on_c, 0, 60, 100
4, 61344, Note_off_c, 0, 60, 64
4, 61344, Note_on_c, 0, 60, 100
4, 61392, Note_off_c, 0, 60, 64
4, 61392, Note_on_c, 0, 60, 100
4, 61440, Note_off_c, 0, 60, 64
4, 61440, Note_on_c, 0, 53, 100
4, 61488, Note_off_c, 0, 53, 64
4, 61488, Note_on_c, 0, 53, 100
4, 61536, Note_off_c, 0, 53, 64
4, 61536, Note_on_c, 0, 53, 100
4, 61584, Note_off_c, 0, 53, 64
4, 61584, Note_on_c, 0, 53, 100
4, 61632, Note_off_c, 0, 53, 64
4, 61632, Note_on_c, 0, 53, 100
4, 61680, Note_off_c, 0, 53, 64
4, 61680, Note_on_c, 0, 53, 100
4, 61728, Note_off_c, 0, 53, 64
4, 61728, Note_on_c, 0, 53, 100
4, 61776, Note_off_c, 0, 53, 64
4, 61776, Note_on_c, 0, 53, 100
4, 61824, Note_off_c, 0, 53, 64
4, 61824, Note_on_c, 0, 53, 100
4, 61872, Note_off_c, 0, 53, 64
4, 61872, Note_on_c, 0, 53, 100
4, 61920, Note_off_c, 0, 53, 64
4, 61920, Note_on_c, 0, 53, 100
4, 61968, Note_off_c, 0, 53, 64
4, 61968, Note_on_c, 0, 53, 100
4, 62016, Note_off_c, 0, 53, 64
4, 62016, Note_on_c, 0, 53, 100
4, 62064, Note_off_c, 0, 53, 64
4, 62064, Note_on_c, 0, 53, 100
4, 62112, Note_off_c, 0, 53, 64
4, 62112, Note_on_c, 0, 53, 100
4, 62160, Note_off_c, 0, 53, 64
4, 62160, Note_on_c, 0, 53, 100
4, 62208, Note_off_c, 0, 53, 64
4, 62208, Note_on_c, 0, 53, 100
4, 62256, Note_off_c, 0, 53, 64
4, 62256, Note_on_c, 0, 53, 100
4, 62304, Note_off_c, 0, 53, 64
4, 62304, Note_on_c, 0, 53, 100
4, 62352, Note_off_c, 0, 53, 64
4, 62352, Note_on_c, 0, 53, 100
4, 62400, Note_off_c, 0, 53, 64
4, 62400, Note_on_c, 0, 53, 100
4, 62448, Note_off_c, 0, 53, 64
4, 62448, Note_on_c, 0, 53, 100
4, 62496, Note_off_c, 0, 53, 64
4, 62496, Note_on_c, 0, 53, 100
4, 62544, Note_off_c, 0, 53, 64
4, 62544, Note_on_c, 0, 53, 100
4, 62592, Note_off_c, 0, 53, 64
4, 62592, Note_on_c, 0, 53, 100
4, 62640, Note_off_c, 0, 53, 64
4, 62640, Note_on_c, 0, 53, 100
4, 62688, Note_off_c, 0, 53, 64
4, 62688, Note_on_c, 0, 53, 100
4, 62736, Note_off_c, 0, 53, 64
4, 62736, Note_on_c, 0, 53, 100
4, 62784, Note_off_c, 0, 53, 64
4, 62784, Note_on_c, 0, 55, 100
4, 62832, Note_off_c, 0, 55, 64
4, 62832, Note_on_c, 0, 55, 100
4, 62880, Note_off_c, 0, 55, 64
4, 62880, Note_on_c, 0, 55, 100
4, 62928, Note_off_c, 0, 55, 64
4, 62928, Note_on_c, 0, 55, 100
4, 62976, Note_off_c, 0, 55, 64
4, 62976, Note_on_c, 0, 57, 100
4, 63024, Note_off_c, 0, 57, 64
4, 63024, Note_on_c, 0, 57, 100
4, 63072, Note_off_c, 0, 57, 64
4, 63072, Note_on_c, 0, 57, 100
4, 63120, Note_off_c, 0, 57, 64
4, 63120, Note_on_c, 0, 57, 100
4, 63168, Note_off_c, 0, 57, 64
4, 63168, Note_on_c, 0, 57, 100
4, 63216, Note_off_c, 0, 57, 64
4, 63216, Note_on_c, 0, 57, 100
4, 63264, Note_off_c, 0, 57, 64
4, 63264, Note_on_c, 0, 57, 100
4, 63312, Note_off_c, 0, 57, 64
4, 63312, Note_on_c, 0, 57, 100
4, 63360, Note_off_c, 0, 57, 64
4, 63360, Note_on_c, 0, 57, 100
4, 63408, Note_off_c, 0, 57, 64
4, 63408, Note_on_c, 0, 57, 100
4, 63456, Note_off_c, 0, 57, 64
4, 63456, Note_on_c, 0, 57, 100
4, 63504, Note_off_c, 0, 57, 64
4, 63504, Note_on_c, 0, 57, 100
4, 63552, Note_off_c, 0, 57, 64
4, 63552, Note_on_c, 0, 57, 100
4, 63600, Note_off_c, 0, 57, 64
4, 63600, Note_on_c, 0, 57, 100
4, 63648, Note_off_c, 0, 57, 64
4, 63648, Note_on_c, 0, 57, 100
4, 63696, Note_off_c, 0, 57, 64
4, 63696, Note_on_c, 0, 57, 100
4, 63744, Note_off_c, 0, 57, 64
4, 63744, Note_on_c, 0, 57, 100
4, 63792, Note_off_c, 0, 57, 64
4, 63792, Note_on_c, 0, 57, 100
4, 63840, Note_off_c, 0, 57, 64
4, 63840, Note_on_c, 0, 57, 100
4, 63888, Note_off_c, 0, 57, 64
4, 63888, Note_on_c, 0, 57, 100
4, 63936, Note_off_c, 0, 57, 64
4, 63936, Note_on_c, 0, 57, 100
4, 63984, Note_off_c, 0, 57, 64
4, 63984, Note_on_c, 0, 57, 100
4, 64032, Note_off_c, 0, 57, 64
4, 64032, Note_on_c, 0, 57, 100
4, 64080, Note_off_c, 0, 57, 64
4, 64080, Note_on_c, 0, 57, 100
4, 64128, Note_off_c, 0, 57, 64
4, 64128, Note_on_c, 0, 57, 100
4, 64176, Note_off_c, 0, 57, 64
4, 64176, Note_on_c, 0, 57, 100
4, 64224, Note_off_c, 0, 57, 64
4, 64224, Note_on_c, 0, 57, 100
4, 64272, Note_off_c, 0, 57, 64
4, 64272, Note_on_c, 0, 57, 100
4, 64320, Note_off_c, 0, 57, 64
4, 64320, Note_on_c, 0, 60, 100
4, 64368, Note_off_c, 0, 60, 64
4, 64368, Note_on_c, 0, 60, 100
4, 64416, Note_off_c, 0, 60, 64
4, 64416, Note_on_c, 0, 60, 100
4, 64464, Note_off_c, 0, 60, 64
4, 64464, Note_on_c, 0, 60, 100
4, 64512, Note_off_c, 0, 60, 64
4, 64512, Note_on_c, 0, 53, 100
4, 64560, Note_off_c, 0, 53, 64
4, 64560, Note_on_c, 0, 53, 100
4, 64608, Note_off_c, 0, 53, 64
4, 64608, Note_on_c, 0, 53, 100
4, 64656, Note_off_c, 0, 53, 64
4, 64656, Note_on_c, 0, 53, 100
4, 64704, Note_off_c, 0, 53, 64
4, 64704, Note_on_c, 0, 53, 100
4, 64752, Note_off_c, 0, 53, 64
4, 64752, Note_on_c, 0, 53, 100
4, 64800, Note_off_c, 0, 53, 64
4, 64800, Note_on_c, 0, 53, 100
4, 64848, Note_off_c, 0, 53, 64
4, 64848, Note_on_c, 0, 53, 100
4, 64896, Note_off_c, 0, 53, 64
4, 64896, Note_on_c, 0, 53, 100
4, 64944, Note_off_c, 0, 53, 64
4, 64944, Note_on_c, 0, 53, 100
4, 64992, Note_off_c, 0, 53, 64
4, 64992, Note_on_c, 0, 53, 100
4, 65040, Note_off_c, 0, 53, 64
4, 65040, Note_on_c, 0, 53, 100
4, 65088, Note_off_c, 0, 53, 64
4, 65088, Note_on_c, 0, 53, 100
4, 65136, Note_off_c, 0, 53, 64
4, 65136, Note_on_c, 0, 53, 100
4, 65184, Note_off_c, 0, 53, 64
4, 65184, Note_on_c, 0, 53, 100
4, 65232, Note_off_c, 0, 53, 64
4, 65232, Note_on_c, 0, 53, 100
4, 65280, Note_off_c, 0, 53, 64
4, 65280, Note_on_c, 0, 53, 100
4, 65328, Note_off_c, 0, 53, 64
4, 65328, Note_on_c, 0, 53, 100
4, 65376, Note_off_c, 0, 53, 64
4, 65376, Note_on_c, 0, 53, 100
4, 65424, Note_off_c, 0, 53, 64
4, 65424, Note_on_c, 0, 53, 100
4, 65472, Note_off_c, 0, 53, 64
4, 65472, Note_on_c, 0, 53, 100
4, 65520, Note_off_c, 0, 53, 64
4, 65520, Note_on_c, 0, 53, 100
4, 65568, Note_off_c, 0, 53, 64
4, 65568, Note_on_c, 0, 53, 100
4, 65616, Note_off_c, 0, 53, 64
4, 65616, Note_on_c, 0, 53, 100
4, 65664, Note_off_c, 0, 53, 64
4, 65664, Note_on_c, 0, 53, 100
4, 65712, Note_off_c, 0, 53, 64
4, 65712, Note_on_c, 0, 53, 100
4, 65760, Note_off_c, 0, 53, 64
4, 65760, Note_on_c, 0, 53, 100
4, 65808, Note_off_c, 0, 53, 64
4, 65808, Note_on_c, 0, 53, 100
4, 65856, Note_off_c, 0, 53, 64
4, 65856, Note_on_c, 0, 55, 100
4, 65904, Note_off_c, 0, 55, 64
4, 65904, Note_on_c, 0, 55, 100
4, 65952, Note_off_c, 0, 55, 64
4, 65952, Note_on_c, 0, 55, 100
4, 66000, Note_off_c, 0, 55, 64
4, 66000, Note_on_c, 0, 55, 100
4, 66048, Note_off_c, 0, 55, 64
4, 66048, Note_on_c, 0, 57, 100
4, 66096, Note_off_c, 0, 57, 64
4, 66096, Note_on_c, 0, 57, 100
4, 66144, Note_off_c, 0, 57, 64
4, 66144, Note_on_c, 0, 57, 100
4, 66192, Note_off_c, 0, 57, 64
4, 66192, Note_on_c, 0, 57, 100
4, 66240, Note_off_c, 0, 57, 64
4, 66240, Note_on_c, 0, 57, 100
4, 66288, Note_off_c, 0, 57, 64
4, 66288, Note_on_c, 0, 57, 100
4, 66336, Note_off_c, 0, 57, 64
4, 66336, Note_on_c, 0, 57, 100
4, 66384, Note_off_c, 0, 57, 64
4, 66384, Note_on_c, 0, 57, 100
4, 66432, Note_off_c, 0, 57, 64
4, 66432, Note_on_c, 0, 57, 100
4, 66480, Note_off_c, 0, 57, 64
4, 66480, Note_on_c, 0, 57, 100
4, 66528, Note_off_c, 0, 57, 64
4, 66528, Note_on_c, 0, 57, 100
4, 66576, Note_off_c, 0, 57, 64
4, 66576, Note_on_c, 0, 57, 100
4, 66624, Note_off_c, 0, 57, 64
4, 66624, Note_on_c, 0, 57, 100
4, 66672, Note_off_c, 0, 57, 64
4, 66672, Note_on_c, 0, 57, 100
4, 66720, Note_off_c, 0, 57, 64
4, 66720, Note_on_c, 0, 57, 100
4, 66768, Note_off_c, 0, 57, 64
4, 66768, Note_on_c, 0, 57, 100
4, 66816, Note_off_c, 0, 57, 64
4, 66816, Note_on_c, 0, 57, 100
4, 66864, Note_off_c, 0, 57, 64
4, 66864, Note_on_c, 0, 57, 100
4, 66912, Note_off_c, 0, 57, 64
4, 66912, Note_on_c, 0, 57, 100
4, 66960, Note_off_c, 0, 57, 64
4, 66960, Note_on_c, 0, 57, 100
4, 67008, Note_off_c, 0, 57, 64
4, 67008, Note_on_c, 0, 57, 100
4, 67056, Note_off_c, 0, 57, 64
4, 67056, Note_on_c, 0, 57, 100
4, 67104, Note_off_c, 0, 57, 64
4, 67104, Note_on_c, 0, 57, 100
4, 67152, Note_off_c, 0, 57, 64
4, 67152, Note_on_c, 0, 57, 100
4, 67200, Note_off_c, 0, 57, 64
4, 67200, Note_on_c, 0, 57, 100
4, 67248, Note_off_c, 0, 57, 64
4, 67248, Note_on_c, 0, 57, 100
4, 67296, Note_off_c, 0, 57, 64
4, 67296, Note_on_c, 0, 57, 100
4, 67344, Note_off_c, 0, 57, 64
4, 67344, Note_on_c, 0, 57, 100
4, 67392, Note_off_c, 0, 57, 64
4, 67392, Note_on_c, 0, 60, 100
4, 67440, Note_off_c, 0, 60, 64
4, 67440, Note_on_c, 0, 60, 100
4, 67488, Note_off_c, 0, 60, 64
4, 67488, Note_on_c, 0, 60, 100
4, 67536, Note_off_c, 0, 60, 64
4, 67536, Note_on_c, 0, 60, 100
4, 67584, Note_off_c, 0, 60, 64
4, 67584, Control_c, 0, 101, 0
4, 67584, Control_c, 0, 100, 0
4, 67584, Control_c, 0, 6, 12
4, 67584, Control_c, 0, 10, 64
4, 67584, Control_c, 0, 7, 100
4, 67584, Pitch_bend_c, 0, 8192
4, 67584, Program_c, 0, 32
4, 67586, Control_c, 0, 101, 0
4, 67586, Control_c, 0, 100, 0
4, 67586, Control_c, 0, 6, 12
4, 67586, Control_c, 0, 10, 64
4, 67586, Control_c, 0, 7, 100
4, 67586, Pitch_bend_c, 0, 8192
4, 67586, Program_c, 0, 32
4, 67586, Control_c, 0, 101, 0
4, 67586, Control_c, 0, 100, 0
4, 67586, Control_c, 0, 6, 12
4, 67586, Control_c, 0, 10, 64
4, 67586, Control_c, 0, 7, 100
4, 67586, Pitch_bend_c, 0, 8192
4, 67586, Program_c, 0, 32
4, 67586, End_track
5, 0, Start_track
5, 0, Title_t, "Right Hand (MIDI)"
5, 0, Control_c, 1, 10, 64
5, 0, Control_c, 1, 7, 100
5, 0, Pitch_bend_c, 1, 8192
5, 0, Control_c, 1, 101, 0
5, 0, Control_c, 1, 100, 0
5, 0, Control_c, 1, 6, 12
5, 0, Control_c, 1, 10, 64
5, 0, Control_c, 1, 7, 100
5, 0, Pitch_bend_c, 1, 8192
5, 0, Program_c, 1, 0
5, 0, Control_c, 1, 101, 0
5, 0, Control_c, 1, 100, 0
5, 0, Control_c, 1, 6, 12
5, 0, Control_c, 1, 10, 64
5, 0, Control_c, 1, 7, 100
5, 0, Pitch_bend_c, 1, 8192
5, 0, Program_c, 1, 0
5, 0, Control_c, 1, 10, 64
5, 0, Control_c, 1, 7, 100
5, 0, Pitch_bend_c, 1, 8192
5, 0, Program_c, 1, 0
5, 0, Control_c, 1, 101, 0
5, 0, Control_c, 1, 100, 0
5, 0, Control_c, 1, 6, 12
5, 0, Control_c, 1, 10, 64
5, 0, Control_c, 1, 7, 100
5, 0, Pitch_bend_c, 1, 8192
5, 0, Program_c, 1, 0
5, 0, Control_c, 1, 10, 64
5, 0, Control_c, 1, 7, 100
5, 0, Pitch_bend_c, 1, 8192
5, 0, Program_c, 1, 0
5, 0, Note_on_c, 1, 77, 100
5, 96, Note_off_c, 1, 77, 64
5, 144, Note_on_c, 1, 72, 100
5, 240, Note_off_c, 1, 72, 64
5, 240, Note_on_c, 1, 69, 100
5, 384, Note_off_c, 1, 69, 64
5, 384, Note_on_c, 1, 77, 100
5, 528, Note_off_c, 1, 77, 64
5, 528, Note_on_c, 1, 72, 100
5, 624, Note_off_c, 1, 72, 64
5, 624, Note_on_c, 1, 69, 100
5, 768, Note_off_c, 1, 69, 64
5, 768, Note_on_c, 1, 77, 100
5, 912, Note_off_c, 1, 77, 64
5, 912, Note_on_c, 1, 72, 100
5, 1008, Note_off_c, 1, 72, 64
5, 1008, Note_on_c, 1, 69, 100
5, 1152, Note_off_c, 1, 69, 64
5, 1152, Note_on_c, 1, 77, 100
5, 1296, Note_off_c, 1, 77, 64
5, 1344, Note_on_c, 1, 79, 100
5, 1488, Note_off_c, 1, 79, 64
5, 1536, Note_on_c, 1, 81, 100
5, 1632, Note_off_c, 1, 81, 64
5, 1680, Note_on_c, 1, 76, 100
5, 1776, Note_off_c, 1, 76, 64
5, 1776, Note_on_c, 1, 72, 100
5, 1920, Note_off_c, 1, 72, 64
5, 1920, Note_on_c, 1, 81, 100
5, 2064, Note_off_c, 1, 81, 64
5, 2064, Note_on_c, 1, 76, 100
5, 2160, Note_off_c, 1, 76, 64
5, 2160, Note_on_c, 1, 72, 100
5, 2304, Note_off_c, 1, 72, 64
5, 2304, Note_on_c, 1, 81, 100
5, 2448, Note_off_c, 1, 81, 64
5, 2448, Note_on_c, 1, 76, 100
5, 2544, Note_off_c, 1, 76, 64
5, 2544, Note_on_c, 1, 72, 100
5, 2688, Note_off_c, 1, 72, 64
5, 2688, Note_on_c, 1, 81, 100
5, 2832, Note_off_c, 1, 81, 64
5, 2880, Note_on_c, 1, 83, 100
5, 2976, Note_off_c, 1, 83, 64
5, 2976, Note_on_c, 1, 84, 100
5, 3072, Note_off_c, 1, 84, 64
5, 3072, Note_on_c, 1, 77, 100
5, 3120, Note_off_c, 1, 77, 64
5, 3120, Note_on_c, 1, 77, 100
5, 3168, Note_off_c, 1, 77, 64
5, 3168, Note_on_c, 1, 77, 100
5, 3216, Note_off_c, 1, 77, 64
5, 3216, Note_on_c, 1, 77, 100
5, 3264, Note_off_c, 1, 77, 64
5, 3264, Note_on_c, 1, 77, 100
5, 3312, Note_off_c, 1, 77, 64
5, 3312, Note_on_c, 1, 77, 100
5, 3360, Note_off_c, 1, 77, 64
5, 3360, Note_on_c, 1, 77, 100
5, 3408, Note_off_c, 1, 77, 64
5, 3408, Note_on_c, 1, 77, 100
5, 3456, Note_off_c, 1, 77, 64
5, 3456, Note_on_c, 1, 77, 100
5, 3504, Note_off_c, 1, 77, 64
5, 3504, Note_on_c, 1, 77, 100
5, 3552, Note_off_c, 1, 77, 64
5, 3552, Note_on_c, 1, 77, 100
5, 3600, Note_off_c, 1, 77, 64
5, 3600, Note_on_c, 1, 77, 100
5, 3648, Note_off_c, 1, 77, 64
5, 3648, Note_on_c, 1, 77, 100
5, 3696, Note_off_c, 1, 77, 64
5, 3696, Note_on_c, 1, 77, 100
5, 3744, Note_off_c, 1, 77, 64
5, 3744, Note_on_c, 1, 77, 100
5, 3792, Note_off_c, 1, 77, 64
5, 3792, Note_on_c, 1, 77, 100
5, 3840, Note_off_c, 1, 77, 64
5, 3840, Note_on_c, 1, 77, 100
5, 3888, Note_off_c, 1, 77, 64
5, 3888, Note_on_c, 1, 77, 100
5, 3936, Note_off_c, 1, 77, 64
5, 3936, Note_on_c, 1, 77, 100
5, 3984, Note_off_c, 1, 77, 64
5, 3984, Note_on_c, 1, 77, 100
5, 4032, Note_off_c, 1, 77, 64
5, 4032, Note_on_c, 1, 77, 100
5, 4080, Note_off_c, 1, 77, 64
5, 4080, Note_on_c, 1, 77, 100
5, 4128, Note_off_c, 1, 77, 64
5, 4128, Note_on_c, 1, 77, 100
5, 4176, Note_off_c, 1, 77, 64
5, 4176, Note_on_c, 1, 77, 100
5, 4224, Note_off_c, 1, 77, 64
5, 4224, Note_on_c, 1, 77, 100
5, 4272, Note_off_c, 1, 77, 64
5, 4272, Note_on_c, 1, 77, 100
5, 4320, Note_off_c, 1, 77, 64
5, 4320, Note_on_c, 1, 77, 100
5, 4368, Note_off_c, 1, 77, 64
5, 4368, Note_on_c, 1, 77, 100
5, 4416, Note_off_c, 1, 77, 64
5, 4416, Note_on_c, 1, 79, 100
5, 4608, Note_off_c, 1, 79, 64
5, 4608, Note_on_c, 1, 81, 100
5, 4656, Note_off_c, 1, 81, 64
5, 4656, Note_on_c, 1, 81, 100
5, 4704, Note_off_c, 1, 81, 64
5, 4704, Note_on_c, 1, 81, 100
5, 4752, Note_off_c, 1, 81, 64
5, 4752, Note_on_c, 1, 81, 100
5, 4800, Note_off_c, 1, 81, 64
5, 4800, Note_on_c, 1, 81, 100
5, 4848, Note_off_c, 1, 81, 64
5, 4848, Note_on_c, 1, 81, 100
5, 4896, Note_off_c, 1, 81, 64
5, 4896, Note_on_c, 1, 81, 100
5, 4944, Note_off_c, 1, 81, 64
5, 4944, Note_on_c, 1, 81, 100
5, 4992, Note_off_c, 1, 81, 64
5, 4992, Note_on_c, 1, 81, 100
5, 5040, Note_off_c, 1, 81, 64
5, 5040, Note_on_c, 1, 81, 100
5, 5088, Note_off_c, 1, 81, 64
5, 5088, Note_on_c, 1, 81, 100
5, 5136, Note_off_c, 1, 81, 64
5, 5136, Note_on_c, 1, 81, 100
5, 5184, Note_off_c, 1, 81, 64
5, 5184, Note_on_c, 1, 81, 100
5, 5232, Note_off_c, 1, 81, 64
5, 5232, Note_on_c, 1, 81, 100
5, 5280, Note_off_c, 1, 81, 64
5, 5280, Note_on_c, 1, 81, 100
5, 5328, Note_off_c, 1, 81, 64
5, 5328, Note_on_c, 1, 81, 100
5, 5376, Note_off_c, 1, 81, 64
5, 5376, Note_on_c, 1, 81, 100
5, 5424, Note_off_c, 1, 81, 64
5, 5424, Note_on_c, 1, 81, 100
5, 5472, Note_off_c, 1, 81, 64
5, 5472, Note_on_c, 1, 81, 100
5, 5520, Note_off_c, 1, 81, 64
5, 5520, Note_on_c, 1, 81, 100
5, 5568, Note_off_c, 1, 81, 64
5, 5568, Note_on_c, 1, 81, 100
5, 5616, Note_off_c, 1, 81, 64
5, 5616, Note_on_c, 1, 81, 100
5, 5664, Note_off_c, 1, 81, 64
5, 5664, Note_on_c, 1, 81, 100
5, 5712, Note_off_c, 1, 81, 64
5, 5712, Note_on_c, 1, 81, 100
5, 5760, Note_off_c, 1, 81, 64
5, 5760, Note_on_c, 1, 81, 100
5, 5808, Note_off_c, 1, 81, 64
5, 5808, Note_on_c, 1, 81, 100
5, 5856, Note_off_c, 1, 81, 64
5, 5856, Note_on_c, 1, 81, 100
5, 5904, Note_off_c, 1, 81, 64
5, 5904, Note_on_c, 1, 81, 100
5, 5952, Note_off_c, 1, 81, 64
5, 5952, Note_on_c, 1, 83, 100
5, 6048, Note_off_c, 1, 83, 64
5, 6048, Note_on_c, 1, 84, 100
5, 6144, Note_off_c, 1, 84, 64
5, 6240, Note_on_c, 1, 76, 100
5, 6288, Note_off_c, 1, 76, 64
5, 6288, Note_on_c, 1, 76, 100
5, 6336, Note_off_c, 1, 76, 64
5, 6336, Note_on_c, 1, 76, 100
5, 6384, Note_off_c, 1, 76, 64
5, 6384, Note_on_c, 1, 76, 100
5, 6528, Note_off_c, 1, 76, 64
5, 6528, Note_on_c, 1, 74, 100
5, 6576, Note_off_c, 1, 74, 64
5, 6624, Note_on_c, 1, 74, 100
5, 6672, Note_off_c, 1, 74, 64
5, 6672, Note_on_c, 1, 74, 100
5, 6720, Note_off_c, 1, 74, 64
5, 6720, Note_on_c, 1, 74, 100
5, 6768, Note_off_c, 1, 74, 64
5, 6768, Note_on_c, 1, 72, 100
5, 6912, Note_off_c, 1, 72, 64
5, 6912, Note_on_c, 1, 74, 100
5, 6960, Note_off_c, 1, 74, 64
5, 7008, Note_on_c, 1, 74, 100
5, 7056, Note_off_c, 1, 74, 64
5, 7056, Note_on_c, 1, 74, 100
5, 7104, Note_off_c, 1, 74, 64
5, 7104, Note_on_c, 1, 74, 100
5, 7152, Note_off_c, 1, 74, 64
5, 7152, Note_on_c, 1, 72, 100
5, 7296, Note_off_c, 1, 72, 64
5, 7296, Note_on_c, 1, 74, 100
5, 7440, Note_off_c, 1, 74, 64
5, 7440, Note_on_c, 1, 72, 100
5, 7584, Note_off_c, 1, 72, 64
5, 7584, Note_on_c, 1, 69, 100
5, 7776, Note_off_c, 1, 69, 64
5, 7776, Note_on_c, 1, 76, 100
5, 7824, Note_off_c, 1, 76, 64
5, 7824, Note_on_c, 1, 76, 100
5, 7872, Note_off_c, 1, 76, 64
5, 7872, Note_on_c, 1, 76, 100
5, 7920, Note_off_c, 1, 76, 64
5, 7920, Note_on_c, 1, 76, 100
5, 7968, Note_off_c, 1, 76, 64
5, 7968, Note_on_c, 1, 76, 100
5, 8016, Note_off_c, 1, 76, 64
5, 8016, Note_on_c, 1, 76, 100
5, 8064, Note_off_c, 1, 76, 64
5, 8064, Note_on_c, 1, 74, 100
5, 8112, Note_off_c, 1, 74, 64
5, 8160, Note_on_c, 1, 74, 100
5, 8208, Note_off_c, 1, 74, 64
5, 8208, Note_on_c, 1, 74, 100
5, 8256, Note_off_c, 1, 74, 64
5, 8256, Note_on_c, 1, 74, 100
5, 8304, Note_off_c, 1, 74, 64
5, 8304, Note_on_c, 1, 72, 100
5, 8448, Note_off_c, 1, 72, 64
5, 8448, Note_on_c, 1, 74, 100
5, 8496, Note_off_c, 1, 74, 64
5, 8544, Note_on_c, 1, 74, 100
5, 8592, Note_off_c, 1, 74, 64
5, 8592, Note_on_c, 1, 74, 100
5, 8640, Note_off_c, 1, 74, 64
5, 8640, Note_on_c, 1, 74, 100
5, 8688, Note_off_c, 1, 74, 64
5, 8688, Note_on_c, 1, 72, 100
5, 8832, Note_off_c, 1, 72, 64
5, 8832, Note_on_c, 1, 74, 100
5, 8976, Note_off_c, 1, 74, 64
5, 8976, Note_on_c, 1, 72, 100
5, 9120, Note_off_c, 1, 72, 64
5, 9120, Note_on_c, 1, 69, 100
5, 9312, Note_off_c, 1, 69, 64
5, 9312, Note_on_c, 1, 79, 100
5, 9408, Note_off_c, 1, 79, 64
5, 9408, Note_on_c, 1, 76, 100
5, 9552, Note_off_c, 1, 76, 64
5, 9552, Note_on_c, 1, 76, 100
5, 9600, Note_off_c, 1, 76, 64
5, 9600, Note_on_c, 1, 74, 100
5, 9648, Note_off_c, 1, 74, 64
5, 9648, Note_on_c, 1, 74, 100
5, 9696, Note_off_c, 1, 74, 64
5, 9696, Note_on_c, 1, 79, 100
5, 9792, Note_off_c, 1, 79, 64
5, 9792, Note_on_c, 1, 76, 100
5, 9936, Note_off_c, 1, 76, 64
5, 9936, Note_on_c, 1, 76, 100
5, 9984, Note_off_c, 1, 76, 64
5, 9984, Note_on_c, 1, 74, 100
5, 10032, Note_off_c, 1, 74, 64
5, 10032, Note_on_c, 1, 74, 100
5, 10080, Note_off_c, 1, 74, 64
5, 10080, Note_on_c, 1, 79, 100
5, 10176, Note_off_c, 1, 79, 64
5, 10176, Note_on_c, 1, 76, 100
5, 10224, Note_off_c, 1, 76, 64
5, 10224, Note_on_c, 1, 76, 100
5, 10272, Note_off_c, 1, 76, 64
5, 10272, Note_on_c, 1, 79, 100
5, 10368, Note_off_c, 1, 79, 64
5, 10368, Note_on_c, 1, 76, 100
5, 10416, Note_off_c, 1, 76, 64
5, 10416, Note_on_c, 1, 76, 100
5, 10464, Note_off_c, 1, 76, 64
5, 10464, Note_on_c, 1, 79, 100
5, 10560, Note_off_c, 1, 79, 64
5, 10560, Note_on_c, 1, 76, 100
5, 10656, Note_off_c, 1, 76, 64
5, 10656, Note_on_c, 1, 79, 100
5, 10704, Note_off_c, 1, 79, 64
5, 10704, Note_on_c, 1, 79, 100
5, 10752, Note_off_c, 1, 79, 64
5, 10752, Note_on_c, 1, 74, 100
5, 10896, Note_off_c, 1, 74, 64
5, 10896, Note_on_c, 1, 72, 100
5, 11040, Note_off_c, 1, 72, 64
5, 11040, Note_on_c, 1, 69, 100
5, 11328, Note_off_c, 1, 69, 64
5, 11328, Note_on_c, 1, 76, 100
5, 11376, Note_off_c, 1, 76, 64
5, 11376, Note_on_c, 1, 76, 100
5, 11424, Note_off_c, 1, 76, 64
5, 11424, Note_on_c, 1, 76, 100
5, 11472, Note_off_c, 1, 76, 64
5, 11472, Note_on_c, 1, 76, 100
5, 11520, Note_off_c, 1, 76, 64
5, 11520, Note_on_c, 1, 74, 100
5, 11664, Note_off_c, 1, 74, 64
5, 11664, Note_on_c, 1, 72, 100
5, 11808, Note_off_c, 1, 72, 64
5, 11808, Note_on_c, 1, 69, 100
5, 12000, Note_off_c, 1, 69, 64
5, 12432, Note_on_c, 1, 76, 100
5, 12480, Note_off_c, 1, 76, 64
5, 12480, Note_on_c, 1, 76, 100
5, 12576, Note_off_c, 1, 76, 64
5, 12576, Note_on_c, 1, 76, 100
5, 12624, Note_off_c, 1, 76, 64
5, 12624, Note_on_c, 1, 76, 100
5, 12720, Note_off_c, 1, 76, 64
5, 12720, Note_on_c, 1, 76, 100
5, 12816, Note_off_c, 1, 76, 64
5, 12816, Note_on_c, 1, 76, 100
5, 12864, Note_off_c, 1, 76, 64
5, 12864, Note_on_c, 1, 74, 100
5, 12960, Note_off_c, 1, 74, 64
5, 12960, Note_on_c, 1, 72, 100
5, 13056, Note_off_c, 1, 72, 64
5, 13056, Note_on_c, 1, 69, 100
5, 13104, Note_off_c, 1, 69, 64
5, 13104, Note_on_c, 1, 69, 100
5, 13200, Note_off_c, 1, 69, 64
5, 13200, Note_on_c, 1, 76, 100
5, 13248, Note_off_c, 1, 76, 64
5, 13248, Note_on_c, 1, 76, 100
5, 13344, Note_off_c, 1, 76, 64
5, 13344, Note_on_c, 1, 76, 100
5, 13392, Note_off_c, 1, 76, 64
5, 13392, Note_on_c, 1, 76, 100
5, 13488, Note_off_c, 1, 76, 64
5, 13488, Note_on_c, 1, 76, 100
5, 13584, Note_off_c, 1, 76, 64
5, 13584, Note_on_c, 1, 76, 100
5, 13632, Note_off_c, 1, 76, 64
5, 13632, Note_on_c, 1, 74, 100
5, 13728, Note_off_c, 1, 74, 64
5, 13728, Note_on_c, 1, 72, 100
5, 13824, Note_off_c, 1, 72, 64
5, 13824, Note_on_c, 1, 69, 100
5, 13872, Note_off_c, 1, 69, 64
5, 13872, Note_on_c, 1, 69, 100
5, 13968, Note_off_c, 1, 69, 64
5, 13968, Note_on_c, 1, 76, 100
5, 14016, Note_off_c, 1, 76, 64
5, 14016, Note_on_c, 1, 76, 100
5, 14112, Note_off_c, 1, 76, 64
5, 14112, Note_on_c, 1, 76, 100
5, 14160, Note_off_c, 1, 76, 64
5, 14160, Note_on_c, 1, 76, 100
5, 14256, Note_off_c, 1, 76, 64
5, 14256, Note_on_c, 1, 76, 100
5, 14352, Note_off_c, 1, 76, 64
5, 14352, Note_on_c, 1, 76, 100
5, 14400, Note_off_c, 1, 76, 64
5, 14400, Note_on_c, 1, 74, 100
5, 14496, Note_off_c, 1, 74, 64
5, 14496, Note_on_c, 1, 72, 100
5, 14592, Note_off_c, 1, 72, 64
5, 14736, Note_on_c, 1, 76, 100
5, 14832, Note_off_c, 1, 76, 64
5, 14832, Note_on_c, 1, 76, 100
5, 14928, Note_off_c, 1, 76, 64
5, 14928, Note_on_c, 1, 76, 100
5, 15024, Note_off_c, 1, 76, 64
5, 15024, Note_on_c, 1, 76, 100
5, 15120, Note_off_c, 1, 76, 64
5, 15120, Note_on_c, 1, 76, 100
5, 15168, Note_off_c, 1, 76, 64
5, 15168, Note_on_c, 1, 74, 100
5, 15264, Note_off_c, 1, 74, 64
5, 15264, Note_on_c, 1, 72, 100
5, 15360, Note_off_c, 1, 72, 64
5, 15504, Note_on_c, 1, 76, 100
5, 15552, Note_off_c, 1, 76, 64
5, 15552, Note_on_c, 1, 76, 100
5, 15648, Note_off_c, 1, 76, 64
5, 15648, Note_on_c, 1, 76, 100
5, 15696, Note_off_c, 1, 76, 64
5, 15696, Note_on_c, 1, 76, 100
5, 15792, Note_off_c, 1, 76, 64
5, 15792, Note_on_c, 1, 76, 100
5, 15888, Note_off_c, 1, 76, 64
5, 15888, Note_on_c, 1, 76, 100
5, 15936, Note_off_c, 1, 76, 64
5, 15936, Note_on_c, 1, 74, 100
5, 16032, Note_off_c, 1, 74, 64
5, 16032, Note_on_c, 1, 72, 100
5, 16128, Note_off_c, 1, 72, 64
5, 16128, Note_on_c, 1, 69, 100
5, 16176, Note_off_c, 1, 69, 64
5, 16176, Note_on_c, 1, 69, 100
5, 16272, Note_off_c, 1, 69, 64
5, 16272, Note_on_c, 1, 76, 100
5, 16320, Note_off_c, 1, 76, 64
5, 16320, Note_on_c, 1, 76, 100
5, 16416, Note_off_c, 1, 76, 64
5, 16416, Note_on_c, 1, 76, 100
5, 16464, Note_off_c, 1, 76, 64
5, 16464, Note_on_c, 1, 76, 100
5, 16560, Note_off_c, 1, 76, 64
5, 16560, Note_on_c, 1, 76, 100
5, 16656, Note_off_c, 1, 76, 64
5, 16656, Note_on_c, 1, 76, 100
5, 16704, Note_off_c, 1, 76, 64
5, 16704, Note_on_c, 1, 74, 100
5, 16800, Note_off_c, 1, 74, 64
5, 16800, Note_on_c, 1, 72, 100
5, 16896, Note_off_c, 1, 72, 64
5, 16896, Note_on_c, 1, 69, 100
5, 16944, Note_off_c, 1, 69, 64
5, 16944, Note_on_c, 1, 69, 100
5, 17040, Note_off_c, 1, 69, 64
5, 17040, Note_on_c, 1, 76, 100
5, 17088, Note_off_c, 1, 76, 64
5, 17088, Note_on_c, 1, 76, 100
5, 17184, Note_off_c, 1, 76, 64
5, 17184, Note_on_c, 1, 76, 100
5, 17232, Note_off_c, 1, 76, 64
5, 17232, Note_on_c, 1, 76, 100
5, 17328, Note_off_c, 1, 76, 64
5, 17328, Note_on_c, 1, 76, 100
5, 17376, Note_off_c, 1, 76, 64
5, 17376, Note_on_c, 1, 76, 100
5, 17424, Note_off_c, 1, 76, 64
5, 17424, Note_on_c, 1, 76, 100
5, 17472, Note_off_c, 1, 76, 64
5, 17472, Note_on_c, 1, 76, 100
5, 17568, Note_off_c, 1, 76, 64
5, 17568, Note_on_c, 1, 76, 100
5, 17616, Note_off_c, 1, 76, 64
5, 17616, Note_on_c, 1, 76, 100
5, 17712, Note_off_c, 1, 76, 64
5, 17712, Note_on_c, 1, 76, 100
5, 17808, Note_off_c, 1, 76, 64
5, 17808, Note_on_c, 1, 76, 100
5, 17856, Note_off_c, 1, 76, 64
5, 17856, Note_on_c, 1, 76, 100
5, 17952, Note_off_c, 1, 76, 64
5, 17952, Note_on_c, 1, 76, 100
5, 18000, Note_off_c, 1, 76, 64
5, 18000, Note_on_c, 1, 76, 100
5, 18048, Note_off_c, 1, 76, 64
5, 18048, Note_on_c, 1, 76, 100
5, 18096, Note_off_c, 1, 76, 64
5, 18096, Note_on_c, 1, 76, 100
5, 18144, Note_off_c, 1, 76, 64
5, 18144, Note_on_c, 1, 76, 100
5, 18192, Note_off_c, 1, 76, 64
5, 18192, Note_on_c, 1, 76, 100
5, 18240, Note_off_c, 1, 76, 64
5, 18240, Note_on_c, 1, 74, 100
5, 18336, Note_off_c, 1, 74, 64
5, 18336, Note_on_c, 1, 72, 100
5, 18432, Note_off_c, 1, 72, 64
5, 18432, Note_on_c, 1, 81, 100
5, 18480, Note_off_c, 1, 81, 64
5, 18480, Note_on_c, 1, 79, 100
5, 18528, Note_off_c, 1, 79, 64
5, 18528, Note_on_c, 1, 79, 100
5, 18576, Note_off_c, 1, 79, 64
5, 18576, Note_on_c, 1, 79, 100
5, 18624, Note_off_c, 1, 79, 64
5, 18624, Note_on_c, 1, 79, 100
5, 18672, Note_off_c, 1, 79, 64
5, 18672, Note_on_c, 1, 79, 100
5, 18720, Note_off_c, 1, 79, 64
5, 18720, Note_on_c, 1, 79, 100
5, 18768, Note_off_c, 1, 79, 64
5, 18768, Note_on_c, 1, 79, 100
5, 18816, Note_off_c, 1, 79, 64
5, 18816, Note_on_c, 1, 79, 100
5, 18912, Note_off_c, 1, 79, 64
5, 18912, Note_on_c, 1, 79, 100
5, 19008, Note_off_c, 1, 79, 64
5, 19008, Note_on_c, 1, 79, 100
5, 19104, Note_off_c, 1, 79, 64
5, 19104, Note_on_c, 1, 79, 100
5, 19200, Note_off_c, 1, 79, 64
5, 19200, Note_on_c, 1, 81, 100
5, 19248, Note_off_c, 1, 81, 64
5, 19248, Note_on_c, 1, 79, 100
5, 19296, Note_off_c, 1, 79, 64
5, 19296, Note_on_c, 1, 79, 100
5, 19344, Note_off_c, 1, 79, 64
5, 19344, Note_on_c, 1, 79, 100
5, 19392, Note_off_c, 1, 79, 64
5, 19392, Note_on_c, 1, 79, 100
5, 19440, Note_off_c, 1, 79, 64
5, 19440, Note_on_c, 1, 79, 100
5, 19488, Note_off_c, 1, 79, 64
5, 19488, Note_on_c, 1, 79, 100
5, 19536, Note_off_c, 1, 79, 64
5, 19536, Note_on_c, 1, 79, 100
5, 19584, Note_off_c, 1, 79, 64
5, 19584, Note_on_c, 1, 79, 100
5, 19680, Note_off_c, 1, 79, 64
5, 19680, Note_on_c, 1, 79, 100
5, 19776, Note_off_c, 1, 79, 64
5, 19776, Note_on_c, 1, 79, 100
5, 19872, Note_off_c, 1, 79, 64
5, 19872, Note_on_c, 1, 79, 100
5, 19968, Note_off_c, 1, 79, 64
5, 19968, Note_on_c, 1, 81, 100
5, 20016, Note_off_c, 1, 81, 64
5, 20016, Note_on_c, 1, 79, 100
5, 20064, Note_off_c, 1, 79, 64
5, 20064, Note_on_c, 1, 79, 100
5, 20112, Note_off_c, 1, 79, 64
5, 20112, Note_on_c, 1, 79, 100
5, 20160, Note_off_c, 1, 79, 64
5, 20160, Note_on_c, 1, 79, 100
5, 20208, Note_off_c, 1, 79, 64
5, 20208, Note_on_c, 1, 79, 100
5, 20256, Note_off_c, 1, 79, 64
5, 20256, Note_on_c, 1, 79, 100
5, 20304, Note_off_c, 1, 79, 64
5, 20304, Note_on_c, 1, 79, 100
5, 20352, Note_off_c, 1, 79, 64
5, 20352, Note_on_c, 1, 79, 100
5, 20448, Note_off_c, 1, 79, 64
5, 20448, Note_on_c, 1, 76, 100
5, 20544, Note_off_c, 1, 76, 64
5, 20544, Note_on_c, 1, 81, 100
5, 20640, Note_off_c, 1, 81, 64
5, 20640, Note_on_c, 1, 79, 100
5, 20736, Note_off_c, 1, 79, 64
5, 20784, Note_on_c, 1, 76, 100
5, 20832, Note_off_c, 1, 76, 64
5, 20832, Note_on_c, 1, 76, 100
5, 20880, Note_off_c, 1, 76, 64
5, 20880, Note_on_c, 1, 76, 100
5, 20928, Note_off_c, 1, 76, 64
5, 20928, Note_on_c, 1, 76, 100
5, 21024, Note_off_c, 1, 76, 64
5, 21024, Note_on_c, 1, 76, 100
5, 21120, Note_off_c, 1, 76, 64
5, 21120, Note_on_c, 1, 76, 100
5, 21216, Note_off_c, 1, 76, 64
5, 21216, Note_on_c, 1, 76, 100
5, 21312, Note_off_c, 1, 76, 64
5, 21312, Note_on_c, 1, 74, 100
5, 21408, Note_off_c, 1, 74, 64
5, 21408, Note_on_c, 1, 72, 100
5, 21504, Note_off_c, 1, 72, 64
5, 21600, Note_on_c, 1, 76, 100
5, 21648, Note_off_c, 1, 76, 64
5, 21648, Note_on_c, 1, 76, 100
5, 21696, Note_off_c, 1, 76, 64
5, 21696, Note_on_c, 1, 76, 100
5, 21744, Note_off_c, 1, 76, 64
5, 21744, Note_on_c, 1, 76, 100
5, 21888, Note_off_c, 1, 76, 64
5, 21888, Note_on_c, 1, 74, 100
5, 21936, Note_off_c, 1, 74, 64
5, 21984, Note_on_c, 1, 74, 100
5, 22032, Note_off_c, 1, 74, 64
5, 22032, Note_on_c, 1, 74, 100
5, 22080, Note_off_c, 1, 74, 64
5, 22080, Note_on_c, 1, 74, 100
5, 22128, Note_off_c, 1, 74, 64
5, 22128, Note_on_c, 1, 72, 100
5, 22272, Note_off_c, 1, 72, 64
5, 22272, Note_on_c, 1, 74, 100
5, 22320, Note_off_c, 1, 74, 64
5, 22368, Note_on_c, 1, 74, 100
5, 22416, Note_off_c, 1, 74, 64
5, 22416, Note_on_c, 1, 74, 100
5, 22464, Note_off_c, 1, 74, 64
5, 22464, Note_on_c, 1, 74, 100
5, 22512, Note_off_c, 1, 74, 64
5, 22512, Note_on_c, 1, 72, 100
5, 22656, Note_off_c, 1, 72, 64
5, 22656, Note_on_c, 1, 74, 100
5, 22800, Note_off_c, 1, 74, 64
5, 22800, Note_on_c, 1, 72, 100
5, 22944, Note_off_c, 1, 72, 64
5, 22944, Note_on_c, 1, 69, 100
5, 23136, Note_off_c, 1, 69, 64
5, 23136, Note_on_c, 1, 76, 100
5, 23184, Note_off_c, 1, 76, 64
5, 23184, Note_on_c, 1, 76, 100
5, 23232, Note_off_c, 1, 76, 64
5, 23232, Note_on_c, 1, 76, 100
5, 23280, Note_off_c, 1, 76, 64
5, 23280, Note_on_c, 1, 76, 100
5, 23328, Note_off_c, 1, 76, 64
5, 23328, Note_on_c, 1, 76, 100
5, 23376, Note_off_c, 1, 76, 64
5, 23376, Note_on_c, 1, 76, 100
5, 23424, Note_off_c, 1, 76, 64
5, 23424, Note_on_c, 1, 74, 100
5, 23472, Note_off_c, 1, 74, 64
5, 23520, Note_on_c, 1, 74, 100
5, 23568, Note_off_c, 1, 74, 64
5, 23568, Note_on_c, 1, 74, 100
5, 23616, Note_off_c, 1, 74, 64
5, 23616, Note_on_c, 1, 74, 100
5, 23664, Note_off_c, 1, 74, 64
5, 23664, Note_on_c, 1, 72, 100
5, 23808, Note_off_c, 1, 72, 64
5, 23808, Note_on_c, 1, 74, 100
5, 23856, Note_off_c, 1, 74, 64
5, 23904, Note_on_c, 1, 74, 100
5, 23952, Note_off_c, 1, 74, 64
5, 23952, Note_on_c, 1, 74, 100
5, 24000, Note_off_c, 1, 74, 64
5, 24000, Note_on_c, 1, 74, 100
5, 24048, Note_off_c, 1, 74, 64
5, 24048, Note_on_c, 1, 72, 100
5, 24192, Note_off_c, 1, 72, 64
5, 24192, Note_on_c, 1, 74, 100
5, 24336, Note_off_c, 1, 74, 64
5, 24336, Note_on_c, 1, 72, 100
5, 24480, Note_off_c, 1, 72, 64
5, 24480, Note_on_c, 1, 69, 100
5, 24672, Note_off_c, 1, 69, 64
5, 24672, Note_on_c, 1, 79, 100
5, 24768, Note_off_c, 1, 79, 64
5, 24768, Note_on_c, 1, 76, 100
5, 24912, Note_off_c, 1, 76, 64
5, 24912, Note_on_c, 1, 76, 100
5, 24960, Note_off_c, 1, 76, 64
5, 24960, Note_on_c, 1, 74, 100
5, 25008, Note_off_c, 1, 74, 64
5, 25008, Note_on_c, 1, 74, 100
5, 25056, Note_off_c, 1, 74, 64
5, 25056, Note_on_c, 1, 79, 100
5, 25152, Note_off_c, 1, 79, 64
5, 25152, Note_on_c, 1, 76, 100
5, 25296, Note_off_c, 1, 76, 64
5, 25296, Note_on_c, 1, 76, 100
5, 25344, Note_off_c, 1, 76, 64
5, 25344, Note_on_c, 1, 74, 100
5, 25392, Note_off_c, 1, 74, 64
5, 25392, Note_on_c, 1, 74, 100
5, 25440, Note_off_c, 1, 74, 64
5, 25440, Note_on_c, 1, 79, 100
5, 25536, Note_off_c, 1, 79, 64
5, 25536, Note_on_c, 1, 76, 100
5, 25584, Note_off_c, 1, 76, 64
5, 25584, Note_on_c, 1, 76, 100
5, 25632, Note_off_c, 1, 76, 64
5, 25632, Note_on_c, 1, 79, 100
5, 25728, Note_off_c, 1, 79, 64
5, 25728, Note_on_c, 1, 76, 100
5, 25776, Note_off_c, 1, 76, 64
5, 25776, Note_on_c, 1, 76, 100
5, 25824, Note_off_c, 1, 76, 64
5, 25824, Note_on_c, 1, 79, 100
5, 25920, Note_off_c, 1, 79, 64
5, 25920, Note_on_c, 1, 76, 100
5, 26016, Note_off_c, 1, 76, 64
5, 26016, Note_on_c, 1, 79, 100
5, 26064, Note_off_c, 1, 79, 64
5, 26064, Note_on_c, 1, 79, 100
5, 26112, Note_off_c, 1, 79, 64
5, 26112, Note_on_c, 1, 74, 100
5, 26256, Note_off_c, 1, 74, 64
5, 26256, Note_on_c, 1, 72, 100
5, 26400, Note_off_c, 1, 72, 64
5, 26400, Note_on_c, 1, 69, 100
5, 26688, Note_off_c, 1, 69, 64
5, 26688, Note_on_c, 1, 76, 100
5, 26736, Note_off_c, 1, 76, 64
5, 26736, Note_on_c, 1, 76, 100
5, 26784, Note_off_c, 1, 76, 64
5, 26784, Note_on_c, 1, 76, 100
5, 26832, Note_off_c, 1, 76, 64
5, 26832, Note_on_c, 1, 76, 100
5, 26880, Note_off_c, 1, 76, 64
5, 26880, Note_on_c, 1, 74, 100
5, 27024, Note_off_c, 1, 74, 64
5, 27024, Note_on_c, 1, 72, 100
5, 27168, Note_off_c, 1, 72, 64
5, 27168, Note_on_c, 1, 69, 100
5, 27360, Note_off_c, 1, 69, 64
5, 27792, Note_on_c, 1, 76, 100
5, 27840, Note_off_c, 1, 76, 64
5, 27840, Note_on_c, 1, 76, 100
5, 27936, Note_off_c, 1, 76, 64
5, 27936, Note_on_c, 1, 76, 100
5, 27984, Note_off_c, 1, 76, 64
5, 27984, Note_on_c, 1, 76, 100
5, 28080, Note_off_c, 1, 76, 64
5, 28080, Note_on_c, 1, 76, 100
5, 28176, Note_off_c, 1, 76, 64
5, 28176, Note_on_c, 1, 76, 100
5, 28224, Note_off_c, 1, 76, 64
5, 28224, Note_on_c, 1, 74, 100
5, 28320, Note_off_c, 1, 74, 64
5, 28320, Note_on_c, 1, 72, 100
5, 28416, Note_off_c, 1, 72, 64
5, 28416, Note_on_c, 1, 69, 100
5, 28464, Note_off_c, 1, 69, 64
5, 28464, Note_on_c, 1, 69, 100
5, 28560, Note_off_c, 1, 69, 64
5, 28560, Note_on_c, 1, 76, 100
5, 28608, Note_off_c, 1, 76, 64
5, 28608, Note_on_c, 1, 76, 100
5, 28704, Note_off_c, 1, 76, 64
5, 28704, Note_on_c, 1, 76, 100
5, 28752, Note_off_c, 1, 76, 64
5, 28752, Note_on_c, 1, 76, 100
5, 28848, Note_off_c, 1, 76, 64
5, 28848, Note_on_c, 1, 76, 100
5, 28944, Note_off_c, 1, 76, 64
5, 28944, Note_on_c, 1, 76, 100
5, 28992, Note_off_c, 1, 76, 64
5, 28992, Note_on_c, 1, 74, 100
5, 29088, Note_off_c, 1, 74, 64
5, 29088, Note_on_c, 1, 72, 100
5, 29184, Note_off_c, 1, 72, 64
5, 29184, Note_on_c, 1, 69, 100
5, 29232, Note_off_c, 1, 69, 64
5, 29232, Note_on_c, 1, 69, 100
5, 29328, Note_off_c, 1, 69, 64
5, 29328, Note_on_c, 1, 76, 100
5, 29376, Note_off_c, 1, 76, 64
5, 29376, Note_on_c, 1, 76, 100
5, 29472, Note_off_c, 1, 76, 64
5, 29472, Note_on_c, 1, 76, 100
5, 29520, Note_off_c, 1, 76, 64
5, 29520, Note_on_c, 1, 76, 100
5, 29616, Note_off_c, 1, 76, 64
5, 29616, Note_on_c, 1, 76, 100
5, 29712, Note_off_c, 1, 76, 64
5, 29712, Note_on_c, 1, 76, 100
5, 29760, Note_off_c, 1, 76, 64
5, 29760, Note_on_c, 1, 74, 100
5, 29856, Note_off_c, 1, 74, 64
5, 29856, Note_on_c, 1, 72, 100
5, 29952, Note_off_c, 1, 72, 64
5, 30096, Note_on_c, 1, 76, 100
5, 30192, Note_off_c, 1, 76, 64
5, 30192, Note_on_c, 1, 76, 100
5, 30288, Note_off_c, 1, 76, 64
5, 30288, Note_on_c, 1, 76, 100
5, 30384, Note_off_c, 1, 76, 64
5, 30384, Note_on_c, 1, 76, 100
5, 30480, Note_off_c, 1, 76, 64
5, 30480, Note_on_c, 1, 76, 100
5, 30528, Note_off_c, 1, 76, 64
5, 30528, Note_on_c, 1, 74, 100
5, 30624, Note_off_c, 1, 74, 64
5, 30624, Note_on_c, 1, 72, 100
5, 30720, Note_off_c, 1, 72, 64
5, 30864, Note_on_c, 1, 76, 100
5, 30912, Note_off_c, 1, 76, 64
5, 30912, Note_on_c, 1, 76, 100
5, 31008, Note_off_c, 1, 76, 64
5, 31008, Note_on_c, 1, 76, 100
5, 31056, Note_off_c, 1, 76, 64
5, 31056, Note_on_c, 1, 76, 100
5, 31152, Note_off_c, 1, 76, 64
5, 31152, Note_on_c, 1, 76, 100
5, 31248, Note_off_c, 1, 76, 64
5, 31248, Note_on_c, 1, 76, 100
5, 31296, Note_off_c, 1, 76, 64
5, 31296, Note_on_c, 1, 74, 100
5, 31392, Note_off_c, 1, 74, 64
5, 31392, Note_on_c, 1, 72, 100
5, 31488, Note_off_c, 1, 72, 64
5, 31488, Note_on_c, 1, 69, 100
5, 31536, Note_off_c, 1, 69, 64
5, 31536, Note_on_c, 1, 69, 100
5, 31632, Note_off_c, 1, 69, 64
5, 31632, Note_on_c, 1, 76, 100
5, 31680, Note_off_c, 1, 76, 64
5, 31680, Note_on_c, 1, 76, 100
5, 31776, Note_off_c, 1, 76, 64
5, 31776, Note_on_c, 1, 76, 100
5, 31824, Note_off_c, 1, 76, 64
5, 31824, Note_on_c, 1, 76, 100
5, 31920, Note_off_c, 1, 76, 64
5, 31920, Note_on_c, 1, 76, 100
5, 32016, Note_off_c, 1, 76, 64
5, 32016, Note_on_c, 1, 76, 100
5, 32064, Note_off_c, 1, 76, 64
5, 32064, Note_on_c, 1, 74, 100
5, 32160, Note_off_c, 1, 74, 64
5, 32160, Note_on_c, 1, 72, 100
5, 32256, Note_off_c, 1, 72, 64
5, 32256, Note_on_c, 1, 69, 100
5, 32304, Note_off_c, 1, 69, 64
5, 32304, Note_on_c, 1, 69, 100
5, 32400, Note_off_c, 1, 69, 64
5, 32400, Note_on_c, 1, 76, 100
5, 32448, Note_off_c, 1, 76, 64
5, 32448, Note_on_c, 1, 76, 100
5, 32544, Note_off_c, 1, 76, 64
5, 32544, Note_on_c, 1, 76, 100
5, 32592, Note_off_c, 1, 76, 64
5, 32592, Note_on_c, 1, 76, 100
5, 32688, Note_off_c, 1, 76, 64
5, 32688, Note_on_c, 1, 76, 100
5, 32736, Note_off_c, 1, 76, 64
5, 32736, Note_on_c, 1, 76, 100
5, 32784, Note_off_c, 1, 76, 64
5, 32784, Note_on_c, 1, 76, 100
5, 32832, Note_off_c, 1, 76, 64
5, 32832, Note_on_c, 1, 76, 100
5, 32928, Note_off_c, 1, 76, 64
5, 32928, Note_on_c, 1, 76, 100
5, 32976, Note_off_c, 1, 76, 64
5, 32976, Note_on_c, 1, 76, 100
5, 33072, Note_off_c, 1, 76, 64
5, 33072, Note_on_c, 1, 76, 100
5, 33168, Note_off_c, 1, 76, 64
5, 33168, Note_on_c, 1, 76, 100
5, 33216, Note_off_c, 1, 76, 64
5, 33216, Note_on_c, 1, 76, 100
5, 33312, Note_off_c, 1, 76, 64
5, 33312, Note_on_c, 1, 76, 100
5, 33360, Note_off_c, 1, 76, 64
5, 33360, Note_on_c, 1, 76, 100
5, 33408, Note_off_c, 1, 76, 64
5, 33408, Note_on_c, 1, 76, 100
5, 33456, Note_off_c, 1, 76, 64
5, 33456, Note_on_c, 1, 76, 100
5, 33504, Note_off_c, 1, 76, 64
5, 33504, Note_on_c, 1, 76, 100
5, 33552, Note_off_c, 1, 76, 64
5, 33552, Note_on_c, 1, 76, 100
5, 33600, Note_off_c, 1, 76, 64
5, 33600, Note_on_c, 1, 74, 100
5, 33696, Note_off_c, 1, 74, 64
5, 33696, Note_on_c, 1, 72, 100
5, 33792, Note_off_c, 1, 72, 64
5, 33792, Note_on_c, 1, 81, 100
5, 33840, Note_off_c, 1, 81, 64
5, 33840, Note_on_c, 1, 79, 100
5, 33888, Note_off_c, 1, 79, 64
5, 33888, Note_on_c, 1, 79, 100
5, 33936, Note_off_c, 1, 79, 64
5, 33936, Note_on_c, 1, 79, 100
5, 33984, Note_off_c, 1, 79, 64
5, 33984, Note_on_c, 1, 79, 100
5, 34032, Note_off_c, 1, 79, 64
5, 34032, Note_on_c, 1, 79, 100
5, 34080, Note_off_c, 1, 79, 64
5, 34080, Note_on_c, 1, 79, 100
5, 34128, Note_off_c, 1, 79, 64
5, 34128, Note_on_c, 1, 79, 100
5, 34176, Note_off_c, 1, 79, 64
5, 34176, Note_on_c, 1, 79, 100
5, 34272, Note_off_c, 1, 79, 64
5, 34272, Note_on_c, 1, 79, 100
5, 34368, Note_off_c, 1, 79, 64
5, 34368, Note_on_c, 1, 79, 100
5, 34464, Note_off_c, 1, 79, 64
5, 34464, Note_on_c, 1, 79, 100
5, 34560, Note_off_c, 1, 79, 64
5, 34560, Note_on_c, 1, 81, 100
5, 34608, Note_off_c, 1, 81, 64
5, 34608, Note_on_c, 1, 79, 100
5, 34656, Note_off_c, 1, 79, 64
5, 34656, Note_on_c, 1, 79, 100
5, 34704, Note_off_c, 1, 79, 64
5, 34704, Note_on_c, 1, 79, 100
5, 34752, Note_off_c, 1, 79, 64
5, 34752, Note_on_c, 1, 79, 100
5, 34800, Note_off_c, 1, 79, 64
5, 34800, Note_on_c, 1, 79, 100
5, 34848, Note_off_c, 1, 79, 64
5, 34848, Note_on_c, 1, 79, 100
5, 34896, Note_off_c, 1, 79, 64
5, 34896, Note_on_c, 1, 79, 100
5, 34944, Note_off_c, 1, 79, 64
5, 34944, Note_on_c, 1, 79, 100
5, 35040, Note_off_c, 1, 79, 64
5, 35040, Note_on_c, 1, 79, 100
5, 35136, Note_off_c, 1, 79, 64
5, 35136, Note_on_c, 1, 79, 100
5, 35232, Note_off_c, 1, 79, 64
5, 35232, Note_on_c, 1, 79, 100
5, 35328, Note_off_c, 1, 79, 64
5, 35328, Note_on_c, 1, 81, 100
5, 35376, Note_off_c, 1, 81, 64
5, 35376, Note_on_c, 1, 79, 100
5, 35424, Note_off_c, 1, 79, 64
5, 35424, Note_on_c, 1, 79, 100
5, 35472, Note_off_c, 1, 79, 64
5, 35472, Note_on_c, 1, 79, 100
5, 35520, Note_off_c, 1, 79, 64
5, 35520, Note_on_c, 1, 79, 100
5, 35568, Note_off_c, 1, 79, 64
5, 35568, Note_on_c, 1, 79, 100
5, 35616, Note_off_c, 1, 79, 64
5, 35616, Note_on_c, 1, 79, 100
5, 35664, Note_off_c, 1, 79, 64
5, 35664, Note_on_c, 1, 79, 100
5, 35712, Note_off_c, 1, 79, 64
5, 35712, Note_on_c, 1, 79, 100
5, 35808, Note_off_c, 1, 79, 64
5, 35808, Note_on_c, 1, 76, 100
5, 35904, Note_off_c, 1, 76, 64
5, 35904, Note_on_c, 1, 81, 100
5, 36000, Note_off_c, 1, 81, 64
5, 36000, Note_on_c, 1, 79, 100
5, 36096, Note_off_c, 1, 79, 64
5, 36144, Note_on_c, 1, 76, 100
5, 36192, Note_off_c, 1, 76, 64
5, 36192, Note_on_c, 1, 76, 100
5, 36240, Note_off_c, 1, 76, 64
5, 36240, Note_on_c, 1, 76, 100
5, 36288, Note_off_c, 1, 76, 64
5, 36288, Note_on_c, 1, 76, 100
5, 36384, Note_off_c, 1, 76, 64
5, 36384, Note_on_c, 1, 76, 100
5, 36480, Note_off_c, 1, 76, 64
5, 36480, Note_on_c, 1, 76, 100
5, 36576, Note_off_c, 1, 76, 64
5, 36576, Note_on_c, 1, 76, 100
5, 36672, Note_off_c, 1, 76, 64
5, 36672, Note_on_c, 1, 74, 100
5, 36768, Note_off_c, 1, 74, 64
5, 36768, Note_on_c, 1, 72, 100
5, 36864, Note_off_c, 1, 72, 64
5, 36960, Note_on_c, 1, 76, 100
5, 37008, Note_off_c, 1, 76, 64
5, 37008, Note_on_c, 1, 76, 100
5, 37056, Note_off_c, 1, 76, 64
5, 37056, Note_on_c, 1, 76, 100
5, 37104, Note_off_c, 1, 76, 64
5, 37104, Note_on_c, 1, 76, 100
5, 37248, Note_off_c, 1, 76, 64
5, 37248, Note_on_c, 1, 74, 100
5, 37296, Note_off_c, 1, 74, 64
5, 37344, Note_on_c, 1, 74, 100
5, 37392, Note_off_c, 1, 74, 64
5, 37392, Note_on_c, 1, 74, 100
5, 37440, Note_off_c, 1, 74, 64
5, 37440, Note_on_c, 1, 74, 100
5, 37488, Note_off_c, 1, 74, 64
5, 37488, Note_on_c, 1, 72, 100
5, 37632, Note_off_c, 1, 72, 64
5, 37632, Note_on_c, 1, 74, 100
5, 37680, Note_off_c, 1, 74, 64
5, 37728, Note_on_c, 1, 74, 100
5, 37776, Note_off_c, 1, 74, 64
5, 37776, Note_on_c, 1, 74, 100
5, 37824, Note_off_c, 1, 74, 64
5, 37824, Note_on_c, 1, 74, 100
5, 37872, Note_off_c, 1, 74, 64
5, 37872, Note_on_c, 1, 72, 100
5, 38016, Note_off_c, 1, 72, 64
5, 38016, Note_on_c, 1, 74, 100
5, 38160, Note_off_c, 1, 74, 64
5, 38160, Note_on_c, 1, 72, 100
5, 38304, Note_off_c, 1, 72, 64
5, 38304, Note_on_c, 1, 69, 100
5, 38496, Note_off_c, 1, 69, 64
5, 38496, Note_on_c, 1, 76, 100
5, 38544, Note_off_c, 1, 76, 64
5, 38544, Note_on_c, 1, 76, 100
5, 38592, Note_off_c, 1, 76, 64
5, 38592, Note_on_c, 1, 76, 100
5, 38640, Note_off_c, 1, 76, 64
5, 38640, Note_on_c, 1, 76, 100
5, 38688, Note_off_c, 1, 76, 64
5, 38688, Note_on_c, 1, 76, 100
5, 38736, Note_off_c, 1, 76, 64
5, 38736, Note_on_c, 1, 76, 100
5, 38784, Note_off_c, 1, 76, 64
5, 38784, Note_on_c, 1, 74, 100
5, 38832, Note_off_c, 1, 74, 64
5, 38880, Note_on_c, 1, 74, 100
5, 38928, Note_off_c, 1, 74, 64
5, 38928, Note_on_c, 1, 74, 100
5, 38976, Note_off_c, 1, 74, 64
5, 38976, Note_on_c, 1, 74, 100
5, 39024, Note_off_c, 1, 74, 64
5, 39024, Note_on_c, 1, 72, 100
5, 39168, Note_off_c, 1, 72, 64
5, 39168, Note_on_c, 1, 74, 100
5, 39216, Note_off_c, 1, 74, 64
5, 39264, Note_on_c, 1, 74, 100
5, 39312, Note_off_c, 1, 74, 64
5, 39312, Note_on_c, 1, 74, 100
5, 39360, Note_off_c, 1, 74, 64
5, 39360, Note_on_c, 1, 74, 100
5, 39408, Note_off_c, 1, 74, 64
5, 39408, Note_on_c, 1, 72, 100
5, 39552, Note_off_c, 1, 72, 64
5, 39552, Note_on_c, 1, 74, 100
5, 39696, Note_off_c, 1, 74, 64
5, 39696, Note_on_c, 1, 72, 100
5, 39840, Note_off_c, 1, 72, 64
5, 39840, Note_on_c, 1, 69, 100
5, 40032, Note_off_c, 1, 69, 64
5, 40032, Note_on_c, 1, 79, 100
5, 40128, Note_off_c, 1, 79, 64
5, 40128, Note_on_c, 1, 76, 100
5, 40272, Note_off_c, 1, 76, 64
5, 40272, Note_on_c, 1, 76, 100
5, 40320, Note_off_c, 1, 76, 64
5, 40320, Note_on_c, 1, 74, 100
5, 40368, Note_off_c, 1, 74, 64
5, 40368, Note_on_c, 1, 74, 100
5, 40416, Note_off_c, 1, 74, 64
5, 40416, Note_on_c, 1, 79, 100
5, 40512, Note_off_c, 1, 79, 64
5, 40512, Note_on_c, 1, 76, 100
5, 40656, Note_off_c, 1, 76, 64
5, 40656, Note_on_c, 1, 76, 100
5, 40704, Note_off_c, 1, 76, 64
5, 40704, Note_on_c, 1, 74, 100
5, 40752, Note_off_c, 1, 74, 64
5, 40752, Note_on_c, 1, 74, 100
5, 40800, Note_off_c, 1, 74, 64
5, 40800, Note_on_c, 1, 79, 100
5, 40896, Note_off_c, 1, 79, 64
5, 40896, Note_on_c, 1, 76, 100
5, 40944, Note_off_c, 1, 76, 64
5, 40944, Note_on_c, 1, 76, 100
5, 40992, Note_off_c, 1, 76, 64
5, 40992, Note_on_c, 1, 79, 100
5, 41088, Note_off_c, 1, 79, 64
5, 41088, Note_on_c, 1, 76, 100
5, 41136, Note_off_c, 1, 76, 64
5, 41136, Note_on_c, 1, 76, 100
5, 41184, Note_off_c, 1, 76, 64
5, 41184, Note_on_c, 1, 79, 100
5, 41280, Note_off_c, 1, 79, 64
5, 41280, Note_on_c, 1, 76, 100
5, 41376, Note_off_c, 1, 76, 64
5, 41376, Note_on_c, 1, 79, 100
5, 41424, Note_off_c, 1, 79, 64
5, 41424, Note_on_c, 1, 79, 100
5, 41472, Note_off_c, 1, 79, 64
5, 41472, Note_on_c, 1, 74, 100
5, 41616, Note_off_c, 1, 74, 64
5, 41616, Note_on_c, 1, 72, 100
5, 41760, Note_off_c, 1, 72, 64
5, 41760, Note_on_c, 1, 69, 100
5, 42048, Note_off_c, 1, 69, 64
5, 42048, Note_on_c, 1, 76, 100
5, 42096, Note_off_c, 1, 76, 64
5, 42096, Note_on_c, 1, 76, 100
5, 42144, Note_off_c, 1, 76, 64
5, 42144, Note_on_c, 1, 76, 100
5, 42192, Note_off_c, 1, 76, 64
5, 42192, Note_on_c, 1, 76, 100
5, 42240, Note_off_c, 1, 76, 64
5, 42240, Note_on_c, 1, 74, 100
5, 42384, Note_off_c, 1, 74, 64
5, 42384, Note_on_c, 1, 72, 100
5, 42528, Note_off_c, 1, 72, 64
5, 42528, Note_on_c, 1, 69, 100
5, 42720, Note_off_c, 1, 69, 64
5, 43008, Note_on_c, 1, 77, 100
5, 43056, Note_off_c, 1, 77, 64
5, 43056, Note_on_c, 1, 77, 100
5, 43104, Note_off_c, 1, 77, 64
5, 43104, Note_on_c, 1, 77, 100
5, 43152, Note_off_c, 1, 77, 64
5, 43152, Note_on_c, 1, 77, 100
5, 43200, Note_off_c, 1, 77, 64
5, 43200, Note_on_c, 1, 77, 100
5, 43248, Note_off_c, 1, 77, 64
5, 43248, Note_on_c, 1, 77, 100
5, 43296, Note_off_c, 1, 77, 64
5, 43296, Note_on_c, 1, 77, 100
5, 43344, Note_off_c, 1, 77, 64
5, 43344, Note_on_c, 1, 77, 100
5, 43392, Note_off_c, 1, 77, 64
5, 43392, Note_on_c, 1, 77, 100
5, 43440, Note_off_c, 1, 77, 64
5, 43440, Note_on_c, 1, 77, 100
5, 43488, Note_off_c, 1, 77, 64
5, 43488, Note_on_c, 1, 77, 100
5, 43536, Note_off_c, 1, 77, 64
5, 43536, Note_on_c, 1, 77, 100
5, 43584, Note_off_c, 1, 77, 64
5, 43584, Note_on_c, 1, 77, 100
5, 43632, Note_off_c, 1, 77, 64
5, 43632, Note_on_c, 1, 77, 100
5, 43680, Note_off_c, 1, 77, 64
5, 43680, Note_on_c, 1, 77, 100
5, 43728, Note_off_c, 1, 77, 64
5, 43728, Note_on_c, 1, 77, 100
5, 43776, Note_off_c, 1, 77, 64
5, 43776, Note_on_c, 1, 77, 100
5, 43824, Note_off_c, 1, 77, 64
5, 43824, Note_on_c, 1, 77, 100
5, 43872, Note_off_c, 1, 77, 64
5, 43872, Note_on_c, 1, 77, 100
5, 43920, Note_off_c, 1, 77, 64
5, 43920, Note_on_c, 1, 77, 100
5, 43968, Note_off_c, 1, 77, 64
5, 43968, Note_on_c, 1, 77, 100
5, 44016, Note_off_c, 1, 77, 64
5, 44016, Note_on_c, 1, 77, 100
5, 44064, Note_off_c, 1, 77, 64
5, 44064, Note_on_c, 1, 77, 100
5, 44112, Note_off_c, 1, 77, 64
5, 44112, Note_on_c, 1, 77, 100
5, 44160, Note_off_c, 1, 77, 64
5, 44160, Note_on_c, 1, 77, 100
5, 44208, Note_off_c, 1, 77, 64
5, 44208, Note_on_c, 1, 77, 100
5, 44256, Note_off_c, 1, 77, 64
5, 44256, Note_on_c, 1, 77, 100
5, 44304, Note_off_c, 1, 77, 64
5, 44304, Note_on_c, 1, 77, 100
5, 44352, Note_off_c, 1, 77, 64
5, 44352, Note_on_c, 1, 79, 100
5, 44544, Note_off_c, 1, 79, 64
5, 44544, Note_on_c, 1, 81, 100
5, 44592, Note_off_c, 1, 81, 64
5, 44592, Note_on_c, 1, 81, 100
5, 44640, Note_off_c, 1, 81, 64
5, 44640, Note_on_c, 1, 81, 100
5, 44688, Note_off_c, 1, 81, 64
5, 44688, Note_on_c, 1, 81, 100
5, 44736, Note_off_c, 1, 81, 64
5, 44736, Note_on_c, 1, 81, 100
5, 44784, Note_off_c, 1, 81, 64
5, 44784, Note_on_c, 1, 81, 100
5, 44832, Note_off_c, 1, 81, 64
5, 44832, Note_on_c, 1, 81, 100
5, 44880, Note_off_c, 1, 81, 64
5, 44880, Note_on_c, 1, 81, 100
5, 44928, Note_off_c, 1, 81, 64
5, 44928, Note_on_c, 1, 81, 100
5, 44976, Note_off_c, 1, 81, 64
5, 44976, Note_on_c, 1, 81, 100
5, 45024, Note_off_c, 1, 81, 64
5, 45024, Note_on_c, 1, 81, 100
5, 45072, Note_off_c, 1, 81, 64
5, 45072, Note_on_c, 1, 81, 100
5, 45120, Note_off_c, 1, 81, 64
5, 45120, Note_on_c, 1, 81, 100
5, 45168, Note_off_c, 1, 81, 64
5, 45168, Note_on_c, 1, 81, 100
5, 45216, Note_off_c, 1, 81, 64
5, 45216, Note_on_c, 1, 81, 100
5, 45264, Note_off_c, 1, 81, 64
5, 45264, Note_on_c, 1, 81, 100
5, 45312, Note_off_c, 1, 81, 64
5, 45312, Note_on_c, 1, 81, 100
5, 45360, Note_off_c, 1, 81, 64
5, 45360, Note_on_c, 1, 81, 100
5, 45408, Note_off_c, 1, 81, 64
5, 45408, Note_on_c, 1, 81, 100
5, 45456, Note_off_c, 1, 81, 64
5, 45456, Note_on_c, 1, 81, 100
5, 45504, Note_off_c, 1, 81, 64
5, 45504, Note_on_c, 1, 81, 100
5, 45552, Note_off_c, 1, 81, 64
5, 45552, Note_on_c, 1, 81, 100
5, 45600, Note_off_c, 1, 81, 64
5, 45600, Note_on_c, 1, 81, 100
5, 45648, Note_off_c, 1, 81, 64
5, 45648, Note_on_c, 1, 81, 100
5, 45696, Note_off_c, 1, 81, 64
5, 45696, Note_on_c, 1, 81, 100
5, 45744, Note_off_c, 1, 81, 64
5, 45744, Note_on_c, 1, 81, 100
5, 45792, Note_off_c, 1, 81, 64
5, 45792, Note_on_c, 1, 81, 100
5, 45840, Note_off_c, 1, 81, 64
5, 45840, Note_on_c, 1, 81, 100
5, 45888, Note_off_c, 1, 81, 64
5, 45888, Note_on_c, 1, 83, 100
5, 45984, Note_off_c, 1, 83, 64
5, 45984, Note_on_c, 1, 84, 100
5, 46080, Note_off_c, 1, 84, 64
5, 46080, Note_on_c, 1, 81, 100
5, 46128, Note_off_c, 1, 81, 64
5, 46128, Note_on_c, 1, 79, 100
5, 46176, Note_off_c, 1, 79, 64
5, 46176, Note_on_c, 1, 79, 100
5, 46224, Note_off_c, 1, 79, 64
5, 46224, Note_on_c, 1, 79, 100
5, 46272, Note_off_c, 1, 79, 64
5, 46272, Note_on_c, 1, 79, 100
5, 46320, Note_off_c, 1, 79, 64
5, 46320, Note_on_c, 1, 79, 100
5, 46368, Note_off_c, 1, 79, 64
5, 46368, Note_on_c, 1, 79, 100
5, 46416, Note_off_c, 1, 79, 64
5, 46416, Note_on_c, 1, 79, 100
5, 46464, Note_off_c, 1, 79, 64
5, 46464, Note_on_c, 1, 79, 100
5, 46560, Note_off_c, 1, 79, 64
5, 46560, Note_on_c, 1, 79, 100
5, 46656, Note_off_c, 1, 79, 64
5, 46656, Note_on_c, 1, 79, 100
5, 46752, Note_off_c, 1, 79, 64
5, 46752, Note_on_c, 1, 79, 100
5, 46848, Note_off_c, 1, 79, 64
5, 46848, Note_on_c, 1, 81, 100
5, 46896, Note_off_c, 1, 81, 64
5, 46896, Note_on_c, 1, 79, 100
5, 46944, Note_off_c, 1, 79, 64
5, 46944, Note_on_c, 1, 79, 100
5, 46992, Note_off_c, 1, 79, 64
5, 46992, Note_on_c, 1, 79, 100
5, 47040, Note_off_c, 1, 79, 64
5, 47040, Note_on_c, 1, 79, 100
5, 47088, Note_off_c, 1, 79, 64
5, 47088, Note_on_c, 1, 79, 100
5, 47136, Note_off_c, 1, 79, 64
5, 47136, Note_on_c, 1, 79, 100
5, 47184, Note_off_c, 1, 79, 64
5, 47184, Note_on_c, 1, 79, 100
5, 47232, Note_off_c, 1, 79, 64
5, 47232, Note_on_c, 1, 79, 100
5, 47328, Note_off_c, 1, 79, 64
5, 47328, Note_on_c, 1, 79, 100
5, 47424, Note_off_c, 1, 79, 64
5, 47424, Note_on_c, 1, 79, 100
5, 47520, Note_off_c, 1, 79, 64
5, 47520, Note_on_c, 1, 79, 100
5, 47616, Note_off_c, 1, 79, 64
5, 47616, Note_on_c, 1, 81, 100
5, 47664, Note_off_c, 1, 81, 64
5, 47664, Note_on_c, 1, 79, 100
5, 47712, Note_off_c, 1, 79, 64
5, 47712, Note_on_c, 1, 79, 100
5, 47760, Note_off_c, 1, 79, 64
5, 47760, Note_on_c, 1, 79, 100
5, 47808, Note_off_c, 1, 79, 64
5, 47808, Note_on_c, 1, 79, 100
5, 47856, Note_off_c, 1, 79, 64
5, 47856, Note_on_c, 1, 79, 100
5, 47904, Note_off_c, 1, 79, 64
5, 47904, Note_on_c, 1, 79, 100
5, 47952, Note_off_c, 1, 79, 64
5, 47952, Note_on_c, 1, 79, 100
5, 48000, Note_off_c, 1, 79, 64
5, 48000, Note_on_c, 1, 79, 100
5, 48096, Note_off_c, 1, 79, 64
5, 48096, Note_on_c, 1, 76, 100
5, 48192, Note_off_c, 1, 76, 64
5, 48192, Note_on_c, 1, 81, 100
5, 48288, Note_off_c, 1, 81, 64
5, 48288, Note_on_c, 1, 79, 100
5, 48384, Note_off_c, 1, 79, 64
5, 48432, Note_on_c, 1, 76, 100
5, 48480, Note_off_c, 1, 76, 64
5, 48480, Note_on_c, 1, 76, 100
5, 48528, Note_off_c, 1, 76, 64
5, 48528, Note_on_c, 1, 76, 100
5, 48576, Note_off_c, 1, 76, 64
5, 48576, Note_on_c, 1, 76, 100
5, 48672, Note_off_c, 1, 76, 64
5, 48672, Note_on_c, 1, 76, 100
5, 48768, Note_off_c, 1, 76, 64
5, 48768, Note_on_c, 1, 76, 100
5, 48864, Note_off_c, 1, 76, 64
5, 48864, Note_on_c, 1, 76, 100
5, 48960, Note_off_c, 1, 76, 64
5, 48960, Note_on_c, 1, 74, 100
5, 49056, Note_off_c, 1, 74, 64
5, 49056, Note_on_c, 1, 72, 100
5, 49152, Note_off_c, 1, 72, 64
5, 49248, Note_on_c, 1, 79, 100
5, 49344, Note_off_c, 1, 79, 64
5, 49344, Note_on_c, 1, 76, 100
5, 49488, Note_off_c, 1, 76, 64
5, 49488, Note_on_c, 1, 76, 100
5, 49536, Note_off_c, 1, 76, 64
5, 49536, Note_on_c, 1, 74, 100
5, 49584, Note_off_c, 1, 74, 64
5, 49584, Note_on_c, 1, 74, 100
5, 49632, Note_off_c, 1, 74, 64
5, 49632, Note_on_c, 1, 79, 100
5, 49728, Note_off_c, 1, 79, 64
5, 49728, Note_on_c, 1, 76, 100
5, 49872, Note_off_c, 1, 76, 64
5, 49872, Note_on_c, 1, 76, 100
5, 49920, Note_off_c, 1, 76, 64
5, 49920, Note_on_c, 1, 74, 100
5, 49968, Note_off_c, 1, 74, 64
5, 49968, Note_on_c, 1, 74, 100
5, 50016, Note_off_c, 1, 74, 64
5, 50016, Note_on_c, 1, 79, 100
5, 50112, Note_off_c, 1, 79, 64
5, 50112, Note_on_c, 1, 76, 100
5, 50160, Note_off_c, 1, 76, 64
5, 50160, Note_on_c, 1, 76, 100
5, 50208, Note_off_c, 1, 76, 64
5, 50208, Note_on_c, 1, 79, 100
5, 50304, Note_off_c, 1, 79, 64
5, 50304, Note_on_c, 1, 76, 100
5, 50352, Note_off_c, 1, 76, 64
5, 50352, Note_on_c, 1, 76, 100
5, 50400, Note_off_c, 1, 76, 64
5, 50400, Note_on_c, 1, 79, 100
5, 50496, Note_off_c, 1, 79, 64
5, 50496, Note_on_c, 1, 76, 100
5, 50592, Note_off_c, 1, 76, 64
5, 50592, Note_on_c, 1, 79, 100
5, 50640, Note_off_c, 1, 79, 64
5, 50640, Note_on_c, 1, 79, 100
5, 50688, Note_off_c, 1, 79, 64
5, 50688, Note_on_c, 1, 74, 100
5, 50832, Note_off_c, 1, 74, 64
5, 50832, Note_on_c, 1, 72, 100
5, 50976, Note_off_c, 1, 72, 64
5, 50976, Note_on_c, 1, 69, 100
5, 51264, Note_off_c, 1, 69, 64
5, 51264, Note_on_c, 1, 76, 100
5, 51312, Note_off_c, 1, 76, 64
5, 51312, Note_on_c, 1, 76, 100
5, 51360, Note_off_c, 1, 76, 64
5, 51360, Note_on_c, 1, 76, 100
5, 51408, Note_off_c, 1, 76, 64
5, 51408, Note_on_c, 1, 76, 100
5, 51456, Note_off_c, 1, 76, 64
5, 51456, Note_on_c, 1, 74, 100
5, 51600, Note_off_c, 1, 74, 64
5, 51600, Note_on_c, 1, 72, 100
5, 51744, Note_off_c, 1, 72, 64
5, 51744, Note_on_c, 1, 69, 100
5, 51936, Note_off_c, 1, 69, 64
5, 52224, Note_on_c, 1, 81, 100
5, 52272, Note_off_c, 1, 81, 64
5, 52272, Note_on_c, 1, 79, 100
5, 52320, Note_off_c, 1, 79, 64
5, 52320, Note_on_c, 1, 79, 100
5, 52368, Note_off_c, 1, 79, 64
5, 52368, Note_on_c, 1, 79, 100
5, 52416, Note_off_c, 1, 79, 64
5, 52416, Note_on_c, 1, 79, 100
5, 52464, Note_off_c, 1, 79, 64
5, 52464, Note_on_c, 1, 79, 100
5, 52512, Note_off_c, 1, 79, 64
5, 52512, Note_on_c, 1, 79, 100
5, 52560, Note_off_c, 1, 79, 64
5, 52560, Note_on_c, 1, 79, 100
5, 52608, Note_off_c, 1, 79, 64
5, 52608, Note_on_c, 1, 79, 100
5, 52704, Note_off_c, 1, 79, 64
5, 52704, Note_on_c, 1, 79, 100
5, 52800, Note_off_c, 1, 79, 64
5, 52800, Note_on_c, 1, 79, 100
5, 52896, Note_off_c, 1, 79, 64
5, 52896, Note_on_c, 1, 79, 100
5, 52992, Note_off_c, 1, 79, 64
5, 52992, Note_on_c, 1, 81, 100
5, 53040, Note_off_c, 1, 81, 64
5, 53040, Note_on_c, 1, 79, 100
5, 53088, Note_off_c, 1, 79, 64
5, 53088, Note_on_c, 1, 79, 100
5, 53136, Note_off_c, 1, 79, 64
5, 53136, Note_on_c, 1, 79, 100
5, 53184, Note_off_c, 1, 79, 64
5, 53184, Note_on_c, 1, 79, 100
5, 53232, Note_off_c, 1, 79, 64
5, 53232, Note_on_c, 1, 79, 100
5, 53280, Note_off_c, 1, 79, 64
5, 53280, Note_on_c, 1, 79, 100
5, 53328, Note_off_c, 1, 79, 64
5, 53328, Note_on_c, 1, 79, 100
5, 53376, Note_off_c, 1, 79, 64
5, 53376, Note_on_c, 1, 79, 100
5, 53472, Note_off_c, 1, 79, 64
5, 53472, Note_on_c, 1, 79, 100
5, 53568, Note_off_c, 1, 79, 64
5, 53568, Note_on_c, 1, 79, 100
5, 53664, Note_off_c, 1, 79, 64
5, 53664, Note_on_c, 1, 79, 100
5, 53760, Note_off_c, 1, 79, 64
5, 53760, Note_on_c, 1, 81, 100
5, 53808, Note_off_c, 1, 81, 64
5, 53808, Note_on_c, 1, 79, 100
5, 53856, Note_off_c, 1, 79, 64
5, 53856, Note_on_c, 1, 79, 100
5, 53904, Note_off_c, 1, 79, 64
5, 53904, Note_on_c, 1, 79, 100
5, 53952, Note_off_c, 1, 79, 64
5, 53952, Note_on_c, 1, 79, 100
5, 54000, Note_off_c, 1, 79, 64
5, 54000, Note_on_c, 1, 79, 100
5, 54048, Note_off_c, 1, 79, 64
5, 54048, Note_on_c, 1, 79, 100
5, 54096, Note_off_c, 1, 79, 64
5, 54096, Note_on_c, 1, 79, 100
5, 54144, Note_off_c, 1, 79, 64
5, 54144, Note_on_c, 1, 79, 100
5, 54240, Note_off_c, 1, 79, 64
5, 54240, Note_on_c, 1, 76, 100
5, 54336, Note_off_c, 1, 76, 64
5, 54336, Note_on_c, 1, 81, 100
5, 54432, Note_off_c, 1, 81, 64
5, 54432, Note_on_c, 1, 79, 100
5, 54528, Note_off_c, 1, 79, 64
5, 54576, Note_on_c, 1, 76, 100
5, 54624, Note_off_c, 1, 76, 64
5, 54624, Note_on_c, 1, 76, 100
5, 54672, Note_off_c, 1, 76, 64
5, 54672, Note_on_c, 1, 76, 100
5, 54720, Note_off_c, 1, 76, 64
5, 54720, Note_on_c, 1, 76, 100
5, 54816, Note_off_c, 1, 76, 64
5, 54816, Note_on_c, 1, 76, 100
5, 54912, Note_off_c, 1, 76, 64
5, 54912, Note_on_c, 1, 76, 100
5, 55008, Note_off_c, 1, 76, 64
5, 55008, Note_on_c, 1, 76, 100
5, 55104, Note_off_c, 1, 76, 64
5, 55104, Note_on_c, 1, 74, 100
5, 55200, Note_off_c, 1, 74, 64
5, 55200, Note_on_c, 1, 72, 100
5, 55296, Note_off_c, 1, 72, 64
5, 55392, Note_on_c, 1, 76, 100
5, 55440, Note_off_c, 1, 76, 64
5, 55440, Note_on_c, 1, 76, 100
5, 55488, Note_off_c, 1, 76, 64
5, 55488, Note_on_c, 1, 76, 100
5, 55536, Note_off_c, 1, 76, 64
5, 55536, Note_on_c, 1, 76, 100
5, 55680, Note_off_c, 1, 76, 64
5, 55680, Note_on_c, 1, 74, 100
5, 55728, Note_off_c, 1, 74, 64
5, 55776, Note_on_c, 1, 74, 100
5, 55824, Note_off_c, 1, 74, 64
5, 55824, Note_on_c, 1, 74, 100
5, 55872, Note_off_c, 1, 74, 64
5, 55872, Note_on_c, 1, 74, 100
5, 55920, Note_off_c, 1, 74, 64
5, 55920, Note_on_c, 1, 72, 100
5, 56064, Note_off_c, 1, 72, 64
5, 56064, Note_on_c, 1, 74, 100
5, 56112, Note_off_c, 1, 74, 64
5, 56160, Note_on_c, 1, 74, 100
5, 56208, Note_off_c, 1, 74, 64
5, 56208, Note_on_c, 1, 74, 100
5, 56256, Note_off_c, 1, 74, 64
5, 56256, Note_on_c, 1, 74, 100
5, 56304, Note_off_c, 1, 74, 64
5, 56304, Note_on_c, 1, 72, 100
5, 56448, Note_off_c, 1, 72, 64
5, 56448, Note_on_c, 1, 74, 100
5, 56592, Note_off_c, 1, 74, 64
5, 56592, Note_on_c, 1, 72, 100
5, 56736, Note_off_c, 1, 72, 64
5, 56736, Note_on_c, 1, 69, 100
5, 56928, Note_off_c, 1, 69, 64
5, 56928, Note_on_c, 1, 76, 100
5, 56976, Note_off_c, 1, 76, 64
5, 56976, Note_on_c, 1, 76, 100
5, 57024, Note_off_c, 1, 76, 64
5, 57024, Note_on_c, 1, 76, 100
5, 57072, Note_off_c, 1, 76, 64
5, 57072, Note_on_c, 1, 76, 100
5, 57120, Note_off_c, 1, 76, 64
5, 57120, Note_on_c, 1, 76, 100
5, 57168, Note_off_c, 1, 76, 64
5, 57168, Note_on_c, 1, 76, 100
5, 57216, Note_off_c, 1, 76, 64
5, 57216, Note_on_c, 1, 74, 100
5, 57264, Note_off_c, 1, 74, 64
5, 57312, Note_on_c, 1, 74, 100
5, 57360, Note_off_c, 1, 74, 64
5, 57360, Note_on_c, 1, 74, 100
5, 57408, Note_off_c, 1, 74, 64
5, 57408, Note_on_c, 1, 74, 100
5, 57456, Note_off_c, 1, 74, 64
5, 57456, Note_on_c, 1, 72, 100
5, 57600, Note_off_c, 1, 72, 64
5, 57600, Note_on_c, 1, 74, 100
5, 57648, Note_off_c, 1, 74, 64
5, 57696, Note_on_c, 1, 74, 100
5, 57744, Note_off_c, 1, 74, 64
5, 57744, Note_on_c, 1, 74, 100
5, 57792, Note_off_c, 1, 74, 64
5, 57792, Note_on_c, 1, 74, 100
5, 57840, Note_off_c, 1, 74, 64
5, 57840, Note_on_c, 1, 72, 100
5, 57984, Note_off_c, 1, 72, 64
5, 57984, Note_on_c, 1, 74, 100
5, 58128, Note_off_c, 1, 74, 64
5, 58128, Note_on_c, 1, 72, 100
5, 58272, Note_off_c, 1, 72, 64
5, 58272, Note_on_c, 1, 69, 100
5, 58464, Note_off_c, 1, 69, 64
5, 58464, Note_on_c, 1, 79, 100
5, 58560, Note_off_c, 1, 79, 64
5, 58560, Note_on_c, 1, 76, 100
5, 58704, Note_off_c, 1, 76, 64
5, 58704, Note_on_c, 1, 76, 100
5, 58752, Note_off_c, 1, 76, 64
5, 58752, Note_on_c, 1, 74, 100
5, 58800, Note_off_c, 1, 74, 64
5, 58800, Note_on_c, 1, 74, 100
5, 58848, Note_off_c, 1, 74, 64
5, 58848, Note_on_c, 1, 79, 100
5, 58944, Note_off_c, 1, 79, 64
5, 58944, Note_on_c, 1, 76, 100
5, 59088, Note_off_c, 1, 76, 64
5, 59088, Note_on_c, 1, 76, 100
5, 59136, Note_off_c, 1, 76, 64
5, 59136, Note_on_c, 1, 74, 100
5, 59184, Note_off_c, 1, 74, 64
5, 59184, Note_on_c, 1, 74, 100
5, 59232, Note_off_c, 1, 74, 64
5, 59232, Note_on_c, 1, 79, 100
5, 59328, Note_off_c, 1, 79, 64
5, 59328, Note_on_c, 1, 76, 100
5, 59376, Note_off_c, 1, 76, 64
5, 59376, Note_on_c, 1, 76, 100
5, 59424, Note_off_c, 1, 76, 64
5, 59424, Note_on_c, 1, 79, 100
5, 59520, Note_off_c, 1, 79, 64
5, 59520, Note_on_c, 1, 76, 100
5, 59568, Note_off_c, 1, 76, 64
5, 59568, Note_on_c, 1, 76, 100
5, 59616, Note_off_c, 1, 76, 64
5, 59616, Note_on_c, 1, 79, 100
5, 59712, Note_off_c, 1, 79, 64
5, 59712, Note_on_c, 1, 76, 100
5, 59808, Note_off_c, 1, 76, 64
5, 59808, Note_on_c, 1, 79, 100
5, 59856, Note_off_c, 1, 79, 64
5, 59856, Note_on_c, 1, 79, 100
5, 59904, Note_off_c, 1, 79, 64
5, 59904, Note_on_c, 1, 74, 100
5, 60048, Note_off_c, 1, 74, 64
5, 60048, Note_on_c, 1, 72, 100
5, 60192, Note_off_c, 1, 72, 64
5, 60192, Note_on_c, 1, 69, 100
5, 60480, Note_off_c, 1, 69, 64
5, 60480, Note_on_c, 1, 76, 100
5, 60528, Note_off_c, 1, 76, 64
5, 60528, Note_on_c, 1, 76, 100
5, 60576, Note_off_c, 1, 76, 64
5, 60576, Note_on_c, 1, 76, 100
5, 60624, Note_off_c, 1, 76, 64
5, 60624, Note_on_c, 1, 76, 100
5, 60672, Note_off_c, 1, 76, 64
5, 60672, Note_on_c, 1, 74, 100
5, 60816, Note_off_c, 1, 74, 64
5, 60816, Note_on_c, 1, 72, 100
5, 60960, Note_off_c, 1, 72, 64
5, 60960, Note_on_c, 1, 69, 100
5, 61152, Note_off_c, 1, 69, 64
5, 61536, Note_on_c, 1, 76, 100
5, 61584, Note_off_c, 1, 76, 64
5, 61584, Note_on_c, 1, 76, 100
5, 61632, Note_off_c, 1, 76, 64
5, 61632, Note_on_c, 1, 76, 100
5, 61680, Note_off_c, 1, 76, 64
5, 61680, Note_on_c, 1, 76, 100
5, 61824, Note_off_c, 1, 76, 64
5, 61824, Note_on_c, 1, 74, 100
5, 61872, Note_off_c, 1, 74, 64
5, 61920, Note_on_c, 1, 74, 100
5, 61968, Note_off_c, 1, 74, 64
5, 61968, Note_on_c, 1, 74, 100
5, 62016, Note_off_c, 1, 74, 64
5, 62016, Note_on_c, 1, 74, 100
5, 62064, Note_off_c, 1, 74, 64
5, 62064, Note_on_c, 1, 72, 100
5, 62208, Note_off_c, 1, 72, 64
5, 62208, Note_on_c, 1, 74, 100
5, 62256, Note_off_c, 1, 74, 64
5, 62304, Note_on_c, 1, 74, 100
5, 62352, Note_off_c, 1, 74, 64
5, 62352, Note_on_c, 1, 74, 100
5, 62400, Note_off_c, 1, 74, 64
5, 62400, Note_on_c, 1, 74, 100
5, 62448, Note_off_c, 1, 74, 64
5, 62448, Note_on_c, 1, 72, 100
5, 62592, Note_off_c, 1, 72, 64
5, 62592, Note_on_c, 1, 74, 100
5, 62736, Note_off_c, 1, 74, 64
5, 62736, Note_on_c, 1, 72, 100
5, 62880, Note_off_c, 1, 72, 64
5, 62880, Note_on_c, 1, 69, 100
5, 63072, Note_off_c, 1, 69, 64
5, 63072, Note_on_c, 1, 76, 100
5, 63120, Note_off_c, 1, 76, 64
5, 63120, Note_on_c, 1, 76, 100
5, 63168, Note_off_c, 1, 76, 64
5, 63168, Note_on_c, 1, 76, 100
5, 63216, Note_off_c, 1, 76, 64
5, 63216, Note_on_c, 1, 76, 100
5, 63264, Note_off_c, 1, 76, 64
5, 63264, Note_on_c, 1, 76, 100
5, 63312, Note_off_c, 1, 76, 64
5, 63312, Note_on_c, 1, 76, 100
5, 63360, Note_off_c, 1, 76, 64
5, 63360, Note_on_c, 1, 74, 100
5, 63408, Note_off_c, 1, 74, 64
5, 63456, Note_on_c, 1, 74, 100
5, 63504, Note_off_c, 1, 74, 64
5, 63504, Note_on_c, 1, 74, 100
5, 63552, Note_off_c, 1, 74, 64
5, 63552, Note_on_c, 1, 74, 100
5, 63600, Note_off_c, 1, 74, 64
5, 63600, Note_on_c, 1, 72, 100
5, 63744, Note_off_c, 1, 72, 64
5, 63744, Note_on_c, 1, 74, 100
5, 63792, Note_off_c, 1, 74, 64
5, 63840, Note_on_c, 1, 74, 100
5, 63888, Note_off_c, 1, 74, 64
5, 63888, Note_on_c, 1, 74, 100
5, 63936, Note_off_c, 1, 74, 64
5, 63936, Note_on_c, 1, 74, 100
5, 63984, Note_off_c, 1, 74, 64
5, 63984, Note_on_c, 1, 72, 100
5, 64128, Note_off_c, 1, 72, 64
5, 64128, Note_on_c, 1, 74, 100
5, 64272, Note_off_c, 1, 74, 64
5, 64272, Note_on_c, 1, 72, 100
5, 64416, Note_off_c, 1, 72, 64
5, 64416, Note_on_c, 1, 69, 100
5, 64608, Note_off_c, 1, 69, 64
5, 64608, Note_on_c, 1, 79, 100
5, 64704, Note_off_c, 1, 79, 64
5, 64704, Note_on_c, 1, 76, 100
5, 64848, Note_off_c, 1, 76, 64
5, 64848, Note_on_c, 1, 76, 100
5, 64896, Note_off_c, 1, 76, 64
5, 64896, Note_on_c, 1, 74, 100
5, 64944, Note_off_c, 1, 74, 64
5, 64944, Note_on_c, 1, 74, 100
5, 64992, Note_off_c, 1, 74, 64
5, 64992, Note_on_c, 1, 79, 100
5, 65088, Note_off_c, 1, 79, 64
5, 65088, Note_on_c, 1, 76, 100
5, 65232, Note_off_c, 1, 76, 64
5, 65232, Note_on_c, 1, 76, 100
5, 65280, Note_off_c, 1, 76, 64
5, 65280, Note_on_c, 1, 74, 100
5, 65328, Note_off_c, 1, 74, 64
5, 65328, Note_on_c, 1, 74, 100
5, 65376, Note_off_c, 1, 74, 64
5, 65376, Note_on_c, 1, 79, 100
5, 65472, Note_off_c, 1, 79, 64
5, 65472, Note_on_c, 1, 76, 100
5, 65520, Note_off_c, 1, 76, 64
5, 65520, Note_on_c, 1, 76, 100
5, 65568, Note_off_c, 1, 76, 64
5, 65568, Note_on_c, 1, 79, 100
5, 65664, Note_off_c, 1, 79, 64
5, 65664, Note_on_c, 1, 76, 100
5, 65712, Note_off_c, 1, 76, 64
5, 65712, Note_on_c, 1, 76, 100
5, 65760, Note_off_c, 1, 76, 64
5, 65760, Note_on_c, 1, 79, 100
5, 65856, Note_off_c, 1, 79, 64
5, 65856, Note_on_c, 1, 76, 100
5, 65952, Note_off_c, 1, 76, 64
5, 65952, Note_on_c, 1, 79, 100
5, 66000, Note_off_c, 1, 79, 64
5, 66000, Note_on_c, 1, 79, 100
5, 66048, Note_off_c, 1, 79, 64
5, 66048, Note_on_c, 1, 74, 100
5, 66192, Note_off_c, 1, 74, 64
5, 66192, Note_on_c, 1, 72, 100
5, 66336, Note_off_c, 1, 72, 64
5, 66336, Note_on_c, 1, 69, 100
5, 66624, Note_off_c, 1, 69, 64
5, 66624, Note_on_c, 1, 76, 100
5, 66672, Note_off_c, 1, 76, 64
5, 66672, Note_on_c, 1, 76, 100
5, 66720, Note_off_c, 1, 76, 64
5, 66720, Note_on_c, 1, 76, 100
5, 66768, Note_off_c, 1, 76, 64
5, 66768, Note_on_c, 1, 76, 100
5, 66816, Note_off_c, 1, 76, 64
5, 66816, Note_on_c, 1, 74, 100
5, 66960, Note_off_c, 1, 74, 64
5, 66960, Note_on_c, 1, 72, 100
5, 67104, Note_off_c, 1, 72, 64
5, 67104, Note_on_c, 1, 69, 100
5, 67296, Note_off_c, 1, 69, 64
5, 67584, Control_c, 1, 101, 0
5, 67584, Control_c, 1, 100, 0
5, 67584, Control_c, 1, 6, 12
5, 67584, Control_c, 1, 10, 64
5, 67584, Control_c, 1, 7, 100
5, 67584, Pitch_bend_c, 1, 8192
5, 67584, Program_c, 1, 0
5, 67586, Control_c, 1, 101, 0
5, 67586, Control_c, 1, 100, 0
5, 67586, Control_c, 1, 6, 12
5, 67586, Control_c, 1, 10, 64
5, 67586, Control_c, 1, 7, 100
5, 67586, Pitch_bend_c, 1, 8192
5, 67586, Program_c, 1, 0
5, 67586, Control_c, 1, 101, 0
5, 67586, Control_c, 1, 100, 0
5, 67586, Control_c, 1, 6, 12
5, 67586, Control_c, 1, 10, 64
5, 67586, Control_c, 1, 7, 100
5, 67586, Pitch_bend_c, 1, 8192
5, 67586, Program_c, 1, 0
5, 67586, End_track
6, 0, Start_track
6, 0, Title_t, "Left Hand (MIDI)"
6, 0, Control_c, 2, 10, 64
6, 0, Control_c, 2, 7, 100
6, 0, Pitch_bend_c, 2, 8192
6, 0, Control_c, 2, 101, 0
6, 0, Control_c, 2, 100, 0
6, 0, Control_c, 2, 6, 12
6, 0, Control_c, 2, 10, 64
6, 0, Control_c, 2, 7, 100
6, 0, Pitch_bend_c, 2, 8192
6, 0, Program_c, 2, 0
6, 0, Control_c, 2, 101, 0
6, 0, Control_c, 2, 100, 0
6, 0, Control_c, 2, 6, 12
6, 0, Control_c, 2, 10, 64
6, 0, Control_c, 2, 7, 100
6, 0, Pitch_bend_c, 2, 8192
6, 0, Program_c, 2, 0
6, 0, Control_c, 2, 10, 64
6, 0, Control_c, 2, 7, 100
6, 0, Pitch_bend_c, 2, 8192
6, 0, Program_c, 2, 0
6, 0, Control_c, 2, 101, 0
6, 0, Control_c, 2, 100, 0
6, 0, Control_c, 2, 6, 12
6, 0, Control_c, 2, 10, 64
6, 0, Control_c, 2, 7, 100
6, 0, Pitch_bend_c, 2, 8192
6, 0, Program_c, 2, 0
6, 0, Control_c, 2, 10, 64
6, 0, Control_c, 2, 7, 100
6, 0, Pitch_bend_c, 2, 8192
6, 0, Program_c, 2, 0
6, 0, Note_on_c, 2, 41, 100
6, 0, Note_on_c, 2, 48, 100
6, 192, Note_off_c, 2, 48, 64
6, 192, Note_on_c, 2, 48, 100
6, 384, Note_off_c, 2, 41, 64
6, 384, Note_off_c, 2, 48, 64
6, 384, Note_on_c, 2, 48, 100
6, 384, Note_on_c, 2, 41, 100
6, 576, Note_off_c, 2, 48, 64
6, 576, Note_on_c, 2, 48, 100
6, 768, Note_off_c, 2, 41, 64
6, 768, Note_off_c, 2, 48, 64
6, 768, Note_on_c, 2, 41, 100
6, 768, Note_on_c, 2, 48, 100
6, 960, Note_off_c, 2, 48, 64
6, 960, Note_on_c, 2, 48, 100
6, 1152, Note_off_c, 2, 48, 64
6, 1152, Note_off_c, 2, 41, 64
6, 1152, Note_on_c, 2, 41, 100
6, 1152, Note_on_c, 2, 48, 100
6, 1326, Note_off_c, 2, 48, 64
6, 1344, Note_off_c, 2, 41, 64
6, 1344, Note_on_c, 2, 50, 100
6, 1344, Note_on_c, 2, 43, 100
6, 1536, Note_off_c, 2, 43, 64
6, 1536, Note_off_c, 2, 50, 64
6, 1536, Note_on_c, 2, 52, 100
6, 1536, Note_on_c, 2, 45, 100
6, 1728, Note_off_c, 2, 52, 64
6, 1728, Note_on_c, 2, 52, 100
6, 1920, Note_off_c, 2, 52, 64
6, 1920, Note_off_c, 2, 45, 64
6, 1920, Note_on_c, 2, 45, 100
6, 1920, Note_on_c, 2, 52, 100
6, 2112, Note_off_c, 2, 52, 64
6, 2112, Note_on_c, 2, 52, 100
6, 2304, Note_off_c, 2, 52, 64
6, 2304, Note_off_c, 2, 45, 64
6, 2304, Note_on_c, 2, 52, 100
6, 2304, Note_on_c, 2, 45, 100
6, 2496, Note_off_c, 2, 52, 64
6, 2496, Note_on_c, 2, 52, 100
6, 2688, Note_off_c, 2, 45, 64
6, 2688, Note_off_c, 2, 52, 64
6, 2688, Note_on_c, 2, 45, 100
6, 2688, Note_on_c, 2, 52, 100
6, 2880, Note_off_c, 2, 45, 64
6, 2880, Note_off_c, 2, 52, 64
6, 2880, Note_on_c, 2, 48, 100
6, 2880, Note_on_c, 2, 55, 100
6, 2976, Note_off_c, 2, 55, 64
6, 2976, Note_off_c, 2, 48, 64
6, 2976, Note_on_c, 2, 55, 100
6, 2976, Note_on_c, 2, 48, 100
6, 3072, Note_off_c, 2, 48, 64
6, 3072, Note_off_c, 2, 55, 64
6, 3072, Note_on_c, 2, 48, 100
6, 3072, Note_on_c, 2, 41, 100
6, 3264, Note_off_c, 2, 48, 64
6, 3264, Note_on_c, 2, 48, 100
6, 3456, Note_off_c, 2, 41, 64
6, 3456, Note_off_c, 2, 48, 64
6, 3456, Note_on_c, 2, 41, 100
6, 3456, Note_on_c, 2, 48, 100
6, 3648, Note_off_c, 2, 48, 64
6, 3648, Note_on_c, 2, 48, 100
6, 3840, Note_off_c, 2, 48, 64
6, 3840, Note_off_c, 2, 41, 64
6, 3840, Note_on_c, 2, 48, 100
6, 3840, Note_on_c, 2, 41, 100
6, 4032, Note_off_c, 2, 48, 64
6, 4032, Note_on_c, 2, 48, 100
6, 4224, Note_off_c, 2, 41, 64
6, 4224, Note_off_c, 2, 48, 64
6, 4224, Note_on_c, 2, 48, 100
6, 4224, Note_on_c, 2, 41, 100
6, 4398, Note_off_c, 2, 48, 64
6, 4416, Note_off_c, 2, 41, 64
6, 4416, Note_on_c, 2, 43, 100
6, 4416, Note_on_c, 2, 50, 100
6, 4608, Note_off_c, 2, 50, 64
6, 4608, Note_off_c, 2, 43, 64
6, 4608, Note_on_c, 2, 45, 100
6, 4608, Note_on_c, 2, 52, 100
6, 4800, Note_off_c, 2, 52, 64
6, 4800, Note_on_c, 2, 52, 100
6, 4992, Note_off_c, 2, 52, 64
6, 4992, Note_off_c, 2, 45, 64
6, 4992, Note_on_c, 2, 52, 100
6, 4992, Note_on_c, 2, 45, 100
6, 5184, Note_off_c, 2, 52, 64
6, 5184, Note_on_c, 2, 52, 100
6, 5376, Note_off_c, 2, 45, 64
6, 5376, Note_off_c, 2, 52, 64
6, 5376, Note_on_c, 2, 45, 100
6, 5376, Note_on_c, 2, 52, 100
6, 5568, Note_off_c, 2, 52, 64
6, 5568, Note_on_c, 2, 52, 100
6, 5760, Note_off_c, 2, 52, 64
6, 5760, Note_off_c, 2, 45, 64
6, 5760, Note_on_c, 2, 52, 100
6, 5760, Note_on_c, 2, 45, 100
6, 5952, Note_off_c, 2, 45, 64
6, 5952, Note_off_c, 2, 52, 64
6, 5952, Note_on_c, 2, 55, 100
6, 5952, Note_on_c, 2, 48, 100
6, 6048, Note_off_c, 2, 48, 64
6, 6048, Note_off_c, 2, 55, 64
6, 6048, Note_on_c, 2, 55, 100
6, 6048, Note_on_c, 2, 48, 100
6, 6144, Note_off_c, 2, 48, 64
6, 6144, Note_off_c, 2, 55, 64
6, 6144, Note_on_c, 2, 48, 100
6, 6144, Note_on_c, 2, 41, 100
6, 6336, Note_off_c, 2, 48, 64
6, 6336, Note_off_c, 2, 41, 64
6, 6336, Note_on_c, 2, 41, 100
6, 6336, Note_on_c, 2, 48, 100
6, 6528, Note_off_c, 2, 41, 64
6, 6528, Note_off_c, 2, 48, 64
6, 6528, Note_on_c, 2, 48, 100
6, 6528, Note_on_c, 2, 41, 100
6, 6720, Note_off_c, 2, 48, 64
6, 6720, Note_off_c, 2, 41, 64
6, 6720, Note_on_c, 2, 41, 100
6, 6720, Note_on_c, 2, 48, 100
6, 6912, Note_off_c, 2, 41, 64
6, 6912, Note_off_c, 2, 48, 64
6, 6912, Note_on_c, 2, 48, 100
6, 6912, Note_on_c, 2, 41, 100
6, 7104, Note_off_c, 2, 48, 64
6, 7104, Note_off_c, 2, 41, 64
6, 7104, Note_on_c, 2, 41, 100
6, 7104, Note_on_c, 2, 48, 100
6, 7296, Note_off_c, 2, 48, 64
6, 7296, Note_off_c, 2, 41, 64
6, 7296, Note_on_c, 2, 48, 100
6, 7296, Note_on_c, 2, 41, 100
6, 7470, Note_off_c, 2, 48, 64
6, 7470, Note_off_c, 2, 41, 64
6, 7488, Note_on_c, 2, 43, 100
6, 7488, Note_on_c, 2, 50, 100
6, 7680, Note_off_c, 2, 43, 64
6, 7680, Note_off_c, 2, 50, 64
6, 7680, Note_on_c, 2, 45, 100
6, 7680, Note_on_c, 2, 52, 100
6, 7872, Note_off_c, 2, 45, 64
6, 7872, Note_off_c, 2, 52, 64
6, 7872, Note_on_c, 2, 45, 100
6, 7872, Note_on_c, 2, 52, 100
6, 8064, Note_off_c, 2, 45, 64
6, 8064, Note_off_c, 2, 52, 64
6, 8064, Note_on_c, 2, 52, 100
6, 8064, Note_on_c, 2, 45, 100
6, 8256, Note_off_c, 2, 52, 64
6, 8256, Note_off_c, 2, 45, 64
6, 8256, Note_on_c, 2, 45, 100
6, 8256, Note_on_c, 2, 52, 100
6, 8448, Note_off_c, 2, 52, 64
6, 8448, Note_off_c, 2, 45, 64
6, 8448, Note_on_c, 2, 52, 100
6, 8448, Note_on_c, 2, 45, 100
6, 8640, Note_off_c, 2, 52, 64
6, 8640, Note_off_c, 2, 45, 64
6, 8640, Note_on_c, 2, 45, 100
6, 8640, Note_on_c, 2, 52, 100
6, 8832, Note_off_c, 2, 45, 64
6, 8832, Note_off_c, 2, 52, 64
6, 8832, Note_on_c, 2, 52, 100
6, 8832, Note_on_c, 2, 45, 100
6, 9024, Note_off_c, 2, 45, 64
6, 9024, Note_off_c, 2, 52, 64
6, 9024, Note_on_c, 2, 48, 100
6, 9024, Note_on_c, 2, 55, 100
6, 9120, Note_off_c, 2, 48, 64
6, 9120, Note_off_c, 2, 55, 64
6, 9120, Note_on_c, 2, 55, 100
6, 9120, Note_on_c, 2, 48, 100
6, 9216, Note_off_c, 2, 55, 64
6, 9216, Note_off_c, 2, 48, 64
6, 9216, Note_on_c, 2, 48, 100
6, 9216, Note_on_c, 2, 41, 100
6, 9408, Note_off_c, 2, 41, 64
6, 9408, Note_off_c, 2, 48, 64
6, 9408, Note_on_c, 2, 41, 100
6, 9408, Note_on_c, 2, 48, 100
6, 9600, Note_off_c, 2, 48, 64
6, 9600, Note_off_c, 2, 41, 64
6, 9600, Note_on_c, 2, 48, 100
6, 9600, Note_on_c, 2, 41, 100
6, 9792, Note_off_c, 2, 48, 64
6, 9792, Note_off_c, 2, 41, 64
6, 9792, Note_on_c, 2, 41, 100
6, 9792, Note_on_c, 2, 48, 100
6, 9984, Note_off_c, 2, 48, 64
6, 9984, Note_off_c, 2, 41, 64
6, 9984, Note_on_c, 2, 48, 100
6, 9984, Note_on_c, 2, 41, 100
6, 10176, Note_off_c, 2, 41, 64
6, 10176, Note_off_c, 2, 48, 64
6, 10176, Note_on_c, 2, 41, 100
6, 10176, Note_on_c, 2, 48, 100
6, 10368, Note_off_c, 2, 41, 64
6, 10368, Note_off_c, 2, 48, 64
6, 10368, Note_on_c, 2, 48, 100
6, 10368, Note_on_c, 2, 41, 100
6, 10542, Note_off_c, 2, 41, 64
6, 10542, Note_off_c, 2, 48, 64
6, 10560, Note_on_c, 2, 43, 100
6, 10560, Note_on_c, 2, 50, 100
6, 10752, Note_off_c, 2, 43, 64
6, 10752, Note_off_c, 2, 50, 64
6, 10752, Note_on_c, 2, 45, 100
6, 10752, Note_on_c, 2, 52, 100
6, 10944, Note_off_c, 2, 52, 64
6, 10944, Note_off_c, 2, 45, 64
6, 10944, Note_on_c, 2, 45, 100
6, 10944, Note_on_c, 2, 52, 100
6, 11136, Note_off_c, 2, 52, 64
6, 11136, Note_off_c, 2, 45, 64
6, 11136, Note_on_c, 2, 52, 100
6, 11136, Note_on_c, 2, 45, 100
6, 11328, Note_off_c, 2, 45, 64
6, 11328, Note_off_c, 2, 52, 64
6, 11328, Note_on_c, 2, 45, 100
6, 11328, Note_on_c, 2, 52, 100
6, 11520, Note_off_c, 2, 45, 64
6, 11520, Note_off_c, 2, 52, 64
6, 11520, Note_on_c, 2, 52, 100
6, 11520, Note_on_c, 2, 45, 100
6, 11712, Note_off_c, 2, 45, 64
6, 11712, Note_off_c, 2, 52, 64
6, 11712, Note_on_c, 2, 45, 100
6, 11712, Note_on_c, 2, 52, 100
6, 11904, Note_off_c, 2, 52, 64
6, 11904, Note_off_c, 2, 45, 64
6, 11904, Note_on_c, 2, 52, 100
6, 11904, Note_on_c, 2, 45, 100
6, 12096, Note_off_c, 2, 45, 64
6, 12096, Note_off_c, 2, 52, 64
6, 12096, Note_on_c, 2, 48, 100
6, 12096, Note_on_c, 2, 55, 100
6, 12192, Note_off_c, 2, 55, 64
6, 12192, Note_off_c, 2, 48, 64
6, 12192, Note_on_c, 2, 55, 100
6, 12192, Note_on_c, 2, 48, 100
6, 12288, Note_off_c, 2, 48, 64
6, 12288, Note_off_c, 2, 55, 64
6, 12288, Note_on_c, 2, 48, 100
6, 12288, Note_on_c, 2, 41, 100
6, 12480, Note_off_c, 2, 41, 64
6, 12480, Note_off_c, 2, 48, 64
6, 12480, Note_on_c, 2, 41, 100
6, 12480, Note_on_c, 2, 48, 100
6, 12672, Note_off_c, 2, 48, 64
6, 12672, Note_off_c, 2, 41, 64
6, 12672, Note_on_c, 2, 48, 100
6, 12672, Note_on_c, 2, 41, 100
6, 12864, Note_off_c, 2, 48, 64
6, 12864, Note_off_c, 2, 41, 64
6, 12864, Note_on_c, 2, 41, 100
6, 12864, Note_on_c, 2, 48, 100
6, 13056, Note_off_c, 2, 48, 64
6, 13056, Note_off_c, 2, 41, 64
6, 13056, Note_on_c, 2, 48, 100
6, 13056, Note_on_c, 2, 41, 100
6, 13248, Note_off_c, 2, 41, 64
6, 13248, Note_off_c, 2, 48, 64
6, 13248, Note_on_c, 2, 41, 100
6, 13248, Note_on_c, 2, 48, 100
6, 13440, Note_off_c, 2, 41, 64
6, 13440, Note_off_c, 2, 48, 64
6, 13440, Note_on_c, 2, 48, 100
6, 13440, Note_on_c, 2, 41, 100
6, 13614, Note_off_c, 2, 41, 64
6, 13614, Note_off_c, 2, 48, 64
6, 13632, Note_on_c, 2, 43, 100
6, 13632, Note_on_c, 2, 50, 100
6, 13824, Note_off_c, 2, 43, 64
6, 13824, Note_off_c, 2, 50, 64
6, 13824, Note_on_c, 2, 45, 100
6, 13824, Note_on_c, 2, 52, 100
6, 14016, Note_off_c, 2, 52, 64
6, 14016, Note_off_c, 2, 45, 64
6, 14016, Note_on_c, 2, 45, 100
6, 14016, Note_on_c, 2, 52, 100
6, 14208, Note_off_c, 2, 52, 64
6, 14208, Note_off_c, 2, 45, 64
6, 14208, Note_on_c, 2, 52, 100
6, 14208, Note_on_c, 2, 45, 100
6, 14400, Note_off_c, 2, 45, 64
6, 14400, Note_off_c, 2, 52, 64
6, 14400, Note_on_c, 2, 45, 100
6, 14400, Note_on_c, 2, 52, 100
6, 14592, Note_off_c, 2, 45, 64
6, 14592, Note_off_c, 2, 52, 64
6, 14592, Note_on_c, 2, 52, 100
6, 14592, Note_on_c, 2, 45, 100
6, 14784, Note_off_c, 2, 52, 64
6, 14784, Note_off_c, 2, 45, 64
6, 14784, Note_on_c, 2, 45, 100
6, 14784, Note_on_c, 2, 52, 100
6, 14976, Note_off_c, 2, 52, 64
6, 14976, Note_off_c, 2, 45, 64
6, 14976, Note_on_c, 2, 52, 100
6, 14976, Note_on_c, 2, 45, 100
6, 15168, Note_off_c, 2, 45, 64
6, 15168, Note_off_c, 2, 52, 64
6, 15168, Note_on_c, 2, 48, 100
6, 15168, Note_on_c, 2, 55, 100
6, 15264, Note_off_c, 2, 55, 64
6, 15264, Note_off_c, 2, 48, 64
6, 15264, Note_on_c, 2, 55, 100
6, 15264, Note_on_c, 2, 48, 100
6, 15360, Note_off_c, 2, 48, 64
6, 15360, Note_off_c, 2, 55, 64
6, 15360, Note_on_c, 2, 41, 100
6, 15360, Note_on_c, 2, 48, 100
6, 15552, Note_off_c, 2, 41, 64
6, 15552, Note_off_c, 2, 48, 64
6, 15552, Note_on_c, 2, 48, 100
6, 15552, Note_on_c, 2, 41, 100
6, 15744, Note_off_c, 2, 41, 64
6, 15744, Note_off_c, 2, 48, 64
6, 15744, Note_on_c, 2, 48, 100
6, 15744, Note_on_c, 2, 41, 100
6, 15936, Note_off_c, 2, 48, 64
6, 15936, Note_off_c, 2, 41, 64
6, 15936, Note_on_c, 2, 41, 100
6, 15936, Note_on_c, 2, 48, 100
6, 16128, Note_off_c, 2, 48, 64
6, 16128, Note_off_c, 2, 41, 64
6, 16128, Note_on_c, 2, 41, 100
6, 16128, Note_on_c, 2, 48, 100
6, 16320, Note_off_c, 2, 48, 64
6, 16320, Note_off_c, 2, 41, 64
6, 16320, Note_on_c, 2, 48, 100
6, 16320, Note_on_c, 2, 41, 100
6, 16512, Note_off_c, 2, 48, 64
6, 16512, Note_off_c, 2, 41, 64
6, 16512, Note_on_c, 2, 48, 100
6, 16512, Note_on_c, 2, 41, 100
6, 16686, Note_off_c, 2, 41, 64
6, 16686, Note_off_c, 2, 48, 64
6, 16704, Note_on_c, 2, 43, 100
6, 16704, Note_on_c, 2, 50, 100
6, 16896, Note_off_c, 2, 43, 64
6, 16896, Note_off_c, 2, 50, 64
6, 16896, Note_on_c, 2, 52, 100
6, 16896, Note_on_c, 2, 45, 100
6, 17088, Note_off_c, 2, 45, 64
6, 17088, Note_off_c, 2, 52, 64
6, 17088, Note_on_c, 2, 52, 100
6, 17088, Note_on_c, 2, 45, 100
6, 17280, Note_off_c, 2, 45, 64
6, 17280, Note_off_c, 2, 52, 64
6, 17280, Note_on_c, 2, 52, 100
6, 17280, Note_on_c, 2, 45, 100
6, 17472, Note_off_c, 2, 45, 64
6, 17472, Note_off_c, 2, 52, 64
6, 17472, Note_on_c, 2, 45, 100
6, 17472, Note_on_c, 2, 52, 100
6, 17664, Note_off_c, 2, 45, 64
6, 17664, Note_off_c, 2, 52, 64
6, 17664, Note_on_c, 2, 45, 100
6, 17664, Note_on_c, 2, 52, 100
6, 17856, Note_off_c, 2, 52, 64
6, 17856, Note_off_c, 2, 45, 64
6, 17856, Note_on_c, 2, 52, 100
6, 17856, Note_on_c, 2, 45, 100
6, 18048, Note_off_c, 2, 45, 64
6, 18048, Note_off_c, 2, 52, 64
6, 18048, Note_on_c, 2, 52, 100
6, 18048, Note_on_c, 2, 45, 100
6, 18240, Note_off_c, 2, 45, 64
6, 18240, Note_off_c, 2, 52, 64
6, 18240, Note_on_c, 2, 48, 100
6, 18336, Note_off_c, 2, 48, 64
6, 18336, Note_on_c, 2, 48, 100
6, 18432, Note_off_c, 2, 48, 64
6, 18432, Note_on_c, 2, 41, 100
6, 18432, Note_on_c, 2, 48, 100
6, 18624, Note_off_c, 2, 48, 64
6, 18624, Note_off_c, 2, 41, 64
6, 18624, Note_on_c, 2, 48, 100
6, 18624, Note_on_c, 2, 41, 100
6, 18816, Note_off_c, 2, 41, 64
6, 18816, Note_off_c, 2, 48, 64
6, 18816, Note_on_c, 2, 48, 100
6, 18816, Note_on_c, 2, 41, 100
6, 19008, Note_off_c, 2, 48, 64
6, 19008, Note_off_c, 2, 41, 64
6, 19008, Note_on_c, 2, 41, 100
6, 19008, Note_on_c, 2, 48, 100
6, 19200, Note_off_c, 2, 48, 64
6, 19200, Note_off_c, 2, 41, 64
6, 19200, Note_on_c, 2, 41, 100
6, 19200, Note_on_c, 2, 48, 100
6, 19392, Note_off_c, 2, 48, 64
6, 19392, Note_off_c, 2, 41, 64
6, 19392, Note_on_c, 2, 48, 100
6, 19392, Note_on_c, 2, 41, 100
6, 19584, Note_off_c, 2, 48, 64
6, 19584, Note_off_c, 2, 41, 64
6, 19584, Note_on_c, 2, 48, 100
6, 19584, Note_on_c, 2, 41, 100
6, 19758, Note_off_c, 2, 41, 64
6, 19758, Note_off_c, 2, 48, 64
6, 19776, Note_on_c, 2, 43, 100
6, 19776, Note_on_c, 2, 50, 100
6, 19968, Note_off_c, 2, 43, 64
6, 19968, Note_off_c, 2, 50, 64
6, 19968, Note_on_c, 2, 52, 100
6, 19968, Note_on_c, 2, 45, 100
6, 20160, Note_off_c, 2, 45, 64
6, 20160, Note_off_c, 2, 52, 64
6, 20160, Note_on_c, 2, 52, 100
6, 20160, Note_on_c, 2, 45, 100
6, 20352, Note_off_c, 2, 45, 64
6, 20352, Note_off_c, 2, 52, 64
6, 20352, Note_on_c, 2, 52, 100
6, 20352, Note_on_c, 2, 45, 100
6, 20544, Note_off_c, 2, 45, 64
6, 20544, Note_off_c, 2, 52, 64
6, 20544, Note_on_c, 2, 45, 100
6, 20544, Note_on_c, 2, 52, 100
6, 20736, Note_off_c, 2, 45, 64
6, 20736, Note_off_c, 2, 52, 64
6, 20736, Note_on_c, 2, 45, 100
6, 20736, Note_on_c, 2, 52, 100
6, 20928, Note_off_c, 2, 45, 64
6, 20928, Note_off_c, 2, 52, 64
6, 20928, Note_on_c, 2, 52, 100
6, 20928, Note_on_c, 2, 45, 100
6, 21120, Note_off_c, 2, 45, 64
6, 21120, Note_off_c, 2, 52, 64
6, 21120, Note_on_c, 2, 52, 100
6, 21120, Note_on_c, 2, 45, 100
6, 21312, Note_off_c, 2, 45, 64
6, 21312, Note_off_c, 2, 52, 64
6, 21312, Note_on_c, 2, 55, 100
6, 21312, Note_on_c, 2, 48, 100
6, 21408, Note_off_c, 2, 48, 64
6, 21408, Note_off_c, 2, 55, 64
6, 21408, Note_on_c, 2, 48, 100
6, 21408, Note_on_c, 2, 55, 100
6, 21504, Note_off_c, 2, 55, 64
6, 21504, Note_off_c, 2, 48, 64
6, 21504, Note_on_c, 2, 41, 100
6, 21504, Note_on_c, 2, 48, 100
6, 21696, Note_off_c, 2, 41, 64
6, 21696, Note_off_c, 2, 48, 64
6, 21696, Note_on_c, 2, 48, 100
6, 21696, Note_on_c, 2, 41, 100
6, 21888, Note_off_c, 2, 41, 64
6, 21888, Note_off_c, 2, 48, 64
6, 21888, Note_on_c, 2, 41, 100
6, 21888, Note_on_c, 2, 48, 100
6, 22080, Note_off_c, 2, 41, 64
6, 22080, Note_off_c, 2, 48, 64
6, 22080, Note_on_c, 2, 48, 100
6, 22080, Note_on_c, 2, 41, 100
6, 22272, Note_off_c, 2, 41, 64
6, 22272, Note_off_c, 2, 48, 64
6, 22272, Note_on_c, 2, 41, 100
6, 22272, Note_on_c, 2, 48, 100
6, 22464, Note_off_c, 2, 48, 64
6, 22464, Note_off_c, 2, 41, 64
6, 22464, Note_on_c, 2, 48, 100
6, 22464, Note_on_c, 2, 41, 100
6, 22656, Note_off_c, 2, 48, 64
6, 22656, Note_off_c, 2, 41, 64
6, 22656, Note_on_c, 2, 41, 100
6, 22656, Note_on_c, 2, 48, 100
6, 22830, Note_off_c, 2, 48, 64
6, 22830, Note_off_c, 2, 41, 64
6, 22848, Note_on_c, 2, 50, 100
6, 22848, Note_on_c, 2, 43, 100
6, 23040, Note_off_c, 2, 50, 64
6, 23040, Note_off_c, 2, 43, 64
6, 23040, Note_on_c, 2, 52, 100
6, 23040, Note_on_c, 2, 45, 100
6, 23232, Note_off_c, 2, 45, 64
6, 23232, Note_off_c, 2, 52, 64
6, 23232, Note_on_c, 2, 52, 100
6, 23232, Note_on_c, 2, 45, 100
6, 23424, Note_off_c, 2, 45, 64
6, 23424, Note_off_c, 2, 52, 64
6, 23424, Note_on_c, 2, 45, 100
6, 23424, Note_on_c, 2, 52, 100
6, 23616, Note_off_c, 2, 52, 64
6, 23616, Note_off_c, 2, 45, 64
6, 23616, Note_on_c, 2, 52, 100
6, 23616, Note_on_c, 2, 45, 100
6, 23808, Note_off_c, 2, 52, 64
6, 23808, Note_off_c, 2, 45, 64
6, 23808, Note_on_c, 2, 45, 100
6, 23808, Note_on_c, 2, 52, 100
6, 24000, Note_off_c, 2, 52, 64
6, 24000, Note_off_c, 2, 45, 64
6, 24000, Note_on_c, 2, 52, 100
6, 24000, Note_on_c, 2, 45, 100
6, 24192, Note_off_c, 2, 45, 64
6, 24192, Note_off_c, 2, 52, 64
6, 24192, Note_on_c, 2, 45, 100
6, 24192, Note_on_c, 2, 52, 100
6, 24384, Note_off_c, 2, 52, 64
6, 24384, Note_off_c, 2, 45, 64
6, 24384, Note_on_c, 2, 48, 100
6, 24384, Note_on_c, 2, 55, 100
6, 24480, Note_off_c, 2, 55, 64
6, 24480, Note_off_c, 2, 48, 64
6, 24480, Note_on_c, 2, 48, 100
6, 24480, Note_on_c, 2, 55, 100
6, 24576, Note_off_c, 2, 55, 64
6, 24576, Note_off_c, 2, 48, 64
6, 24576, Note_on_c, 2, 41, 100
6, 24576, Note_on_c, 2, 48, 100
6, 24768, Note_off_c, 2, 48, 64
6, 24768, Note_off_c, 2, 41, 64
6, 24768, Note_on_c, 2, 48, 100
6, 24768, Note_on_c, 2, 41, 100
6, 24960, Note_off_c, 2, 41, 64
6, 24960, Note_off_c, 2, 48, 64
6, 24960, Note_on_c, 2, 41, 100
6, 24960, Note_on_c, 2, 48, 100
6, 25152, Note_off_c, 2, 41, 64
6, 25152, Note_off_c, 2, 48, 64
6, 25152, Note_on_c, 2, 48, 100
6, 25152, Note_on_c, 2, 41, 100
6, 25344, Note_off_c, 2, 41, 64
6, 25344, Note_off_c, 2, 48, 64
6, 25344, Note_on_c, 2, 41, 100
6, 25344, Note_on_c, 2, 48, 100
6, 25536, Note_off_c, 2, 48, 64
6, 25536, Note_off_c, 2, 41, 64
6, 25536, Note_on_c, 2, 48, 100
6, 25536, Note_on_c, 2, 41, 100
6, 25728, Note_off_c, 2, 48, 64
6, 25728, Note_off_c, 2, 41, 64
6, 25728, Note_on_c, 2, 41, 100
6, 25728, Note_on_c, 2, 48, 100
6, 25902, Note_off_c, 2, 48, 64
6, 25902, Note_off_c, 2, 41, 64
6, 25920, Note_on_c, 2, 50, 100
6, 25920, Note_on_c, 2, 43, 100
6, 26112, Note_off_c, 2, 50, 64
6, 26112, Note_off_c, 2, 43, 64
6, 26112, Note_on_c, 2, 52, 100
6, 26112, Note_on_c, 2, 45, 100
6, 26304, Note_off_c, 2, 45, 64
6, 26304, Note_off_c, 2, 52, 64
6, 26304, Note_on_c, 2, 52, 100
6, 26304, Note_on_c, 2, 45, 100
6, 26496, Note_off_c, 2, 45, 64
6, 26496, Note_off_c, 2, 52, 64
6, 26496, Note_on_c, 2, 45, 100
6, 26496, Note_on_c, 2, 52, 100
6, 26688, Note_off_c, 2, 52, 64
6, 26688, Note_off_c, 2, 45, 64
6, 26688, Note_on_c, 2, 52, 100
6, 26688, Note_on_c, 2, 45, 100
6, 26880, Note_off_c, 2, 52, 64
6, 26880, Note_off_c, 2, 45, 64
6, 26880, Note_on_c, 2, 45, 100
6, 26880, Note_on_c, 2, 52, 100
6, 27072, Note_off_c, 2, 52, 64
6, 27072, Note_off_c, 2, 45, 64
6, 27072, Note_on_c, 2, 52, 100
6, 27072, Note_on_c, 2, 45, 100
6, 27264, Note_off_c, 2, 45, 64
6, 27264, Note_off_c, 2, 52, 64
6, 27264, Note_on_c, 2, 45, 100
6, 27264, Note_on_c, 2, 52, 100
6, 27456, Note_off_c, 2, 52, 64
6, 27456, Note_off_c, 2, 45, 64
6, 27456, Note_on_c, 2, 48, 100
6, 27456, Note_on_c, 2, 55, 100
6, 27552, Note_off_c, 2, 55, 64
6, 27552, Note_off_c, 2, 48, 64
6, 27552, Note_on_c, 2, 48, 100
6, 27552, Note_on_c, 2, 55, 100
6, 27648, Note_off_c, 2, 55, 64
6, 27648, Note_off_c, 2, 48, 64
6, 27648, Note_on_c, 2, 41, 100
6, 27648, Note_on_c, 2, 48, 100
6, 27840, Note_off_c, 2, 41, 64
6, 27840, Note_off_c, 2, 48, 64
6, 27840, Note_on_c, 2, 48, 100
6, 27840, Note_on_c, 2, 41, 100
6, 28032, Note_off_c, 2, 48, 64
6, 28032, Note_off_c, 2, 41, 64
6, 28032, Note_on_c, 2, 41, 100
6, 28032, Note_on_c, 2, 48, 100
6, 28224, Note_off_c, 2, 48, 64
6, 28224, Note_off_c, 2, 41, 64
6, 28224, Note_on_c, 2, 48, 100
6, 28224, Note_on_c, 2, 41, 100
6, 28416, Note_off_c, 2, 48, 64
6, 28416, Note_off_c, 2, 41, 64
6, 28416, Note_on_c, 2, 41, 100
6, 28416, Note_on_c, 2, 48, 100
6, 28608, Note_off_c, 2, 41, 64
6, 28608, Note_off_c, 2, 48, 64
6, 28608, Note_on_c, 2, 48, 100
6, 28608, Note_on_c, 2, 41, 100
6, 28800, Note_off_c, 2, 41, 64
6, 28800, Note_off_c, 2, 48, 64
6, 28800, Note_on_c, 2, 41, 100
6, 28800, Note_on_c, 2, 48, 100
6, 28974, Note_off_c, 2, 41, 64
6, 28974, Note_off_c, 2, 48, 64
6, 28992, Note_on_c, 2, 50, 100
6, 28992, Note_on_c, 2, 43, 100
6, 29184, Note_off_c, 2, 50, 64
6, 29184, Note_off_c, 2, 43, 64
6, 29184, Note_on_c, 2, 52, 100
6, 29184, Note_on_c, 2, 45, 100
6, 29376, Note_off_c, 2, 52, 64
6, 29376, Note_off_c, 2, 45, 64
6, 29376, Note_on_c, 2, 52, 100
6, 29376, Note_on_c, 2, 45, 100
6, 29568, Note_off_c, 2, 52, 64
6, 29568, Note_off_c, 2, 45, 64
6, 29568, Note_on_c, 2, 45, 100
6, 29568, Note_on_c, 2, 52, 100
6, 29760, Note_off_c, 2, 45, 64
6, 29760, Note_off_c, 2, 52, 64
6, 29760, Note_on_c, 2, 52, 100
6, 29760, Note_on_c, 2, 45, 100
6, 29952, Note_off_c, 2, 45, 64
6, 29952, Note_off_c, 2, 52, 64
6, 29952, Note_on_c, 2, 45, 100
6, 29952, Note_on_c, 2, 52, 100
6, 30144, Note_off_c, 2, 45, 64
6, 30144, Note_off_c, 2, 52, 64
6, 30144, Note_on_c, 2, 52, 100
6, 30144, Note_on_c, 2, 45, 100
6, 30336, Note_off_c, 2, 52, 64
6, 30336, Note_off_c, 2, 45, 64
6, 30336, Note_on_c, 2, 45, 100
6, 30336, Note_on_c, 2, 52, 100
6, 30528, Note_off_c, 2, 52, 64
6, 30528, Note_off_c, 2, 45, 64
6, 30528, Note_on_c, 2, 48, 100
6, 30528, Note_on_c, 2, 55, 100
6, 30624, Note_off_c, 2, 48, 64
6, 30624, Note_off_c, 2, 55, 64
6, 30624, Note_on_c, 2, 48, 100
6, 30624, Note_on_c, 2, 55, 100
6, 30720, Note_off_c, 2, 48, 64
6, 30720, Note_off_c, 2, 55, 64
6, 30720, Note_on_c, 2, 41, 100
6, 30720, Note_on_c, 2, 48, 100
6, 30912, Note_off_c, 2, 41, 64
6, 30912, Note_off_c, 2, 48, 64
6, 30912, Note_on_c, 2, 48, 100
6, 30912, Note_on_c, 2, 41, 100
6, 31104, Note_off_c, 2, 41, 64
6, 31104, Note_off_c, 2, 48, 64
6, 31104, Note_on_c, 2, 41, 100
6, 31104, Note_on_c, 2, 48, 100
6, 31296, Note_off_c, 2, 41, 64
6, 31296, Note_off_c, 2, 48, 64
6, 31296, Note_on_c, 2, 48, 100
6, 31296, Note_on_c, 2, 41, 100
6, 31488, Note_off_c, 2, 41, 64
6, 31488, Note_off_c, 2, 48, 64
6, 31488, Note_on_c, 2, 41, 100
6, 31488, Note_on_c, 2, 48, 100
6, 31680, Note_off_c, 2, 48, 64
6, 31680, Note_off_c, 2, 41, 64
6, 31680, Note_on_c, 2, 48, 100
6, 31680, Note_on_c, 2, 41, 100
6, 31872, Note_off_c, 2, 48, 64
6, 31872, Note_off_c, 2, 41, 64
6, 31872, Note_on_c, 2, 41, 100
6, 31872, Note_on_c, 2, 48, 100
6, 32046, Note_off_c, 2, 48, 64
6, 32046, Note_off_c, 2, 41, 64
6, 32064, Note_on_c, 2, 50, 100
6, 32064, Note_on_c, 2, 43, 100
6, 32256, Note_off_c, 2, 50, 64
6, 32256, Note_off_c, 2, 43, 64
6, 32256, Note_on_c, 2, 52, 100
6, 32256, Note_on_c, 2, 45, 100
6, 32448, Note_off_c, 2, 45, 64
6, 32448, Note_off_c, 2, 52, 64
6, 32448, Note_on_c, 2, 52, 100
6, 32448, Note_on_c, 2, 45, 100
6, 32640, Note_off_c, 2, 45, 64
6, 32640, Note_off_c, 2, 52, 64
6, 32640, Note_on_c, 2, 45, 100
6, 32640, Note_on_c, 2, 52, 100
6, 32832, Note_off_c, 2, 52, 64
6, 32832, Note_off_c, 2, 45, 64
6, 32832, Note_on_c, 2, 52, 100
6, 32832, Note_on_c, 2, 45, 100
6, 33024, Note_off_c, 2, 52, 64
6, 33024, Note_off_c, 2, 45, 64
6, 33024, Note_on_c, 2, 45, 100
6, 33024, Note_on_c, 2, 52, 100
6, 33216, Note_off_c, 2, 52, 64
6, 33216, Note_off_c, 2, 45, 64
6, 33216, Note_on_c, 2, 52, 100
6, 33216, Note_on_c, 2, 45, 100
6, 33408, Note_off_c, 2, 45, 64
6, 33408, Note_off_c, 2, 52, 64
6, 33408, Note_on_c, 2, 45, 100
6, 33408, Note_on_c, 2, 52, 100
6, 33600, Note_off_c, 2, 52, 64
6, 33600, Note_off_c, 2, 45, 64
6, 33600, Note_on_c, 2, 48, 100
6, 33600, Note_on_c, 2, 55, 100
6, 33696, Note_off_c, 2, 55, 64
6, 33696, Note_off_c, 2, 48, 64
6, 33696, Note_on_c, 2, 48, 100
6, 33696, Note_on_c, 2, 55, 100
6, 33792, Note_off_c, 2, 55, 64
6, 33792, Note_off_c, 2, 48, 64
6, 33792, Note_on_c, 2, 41, 100
6, 33792, Note_on_c, 2, 48, 100
6, 33984, Note_off_c, 2, 48, 64
6, 33984, Note_off_c, 2, 41, 64
6, 33984, Note_on_c, 2, 48, 100
6, 33984, Note_on_c, 2, 41, 100
6, 34176, Note_off_c, 2, 41, 64
6, 34176, Note_off_c, 2, 48, 64
6, 34176, Note_on_c, 2, 41, 100
6, 34176, Note_on_c, 2, 48, 100
6, 34368, Note_off_c, 2, 41, 64
6, 34368, Note_off_c, 2, 48, 64
6, 34368, Note_on_c, 2, 48, 100
6, 34368, Note_on_c, 2, 41, 100
6, 34560, Note_off_c, 2, 41, 64
6, 34560, Note_off_c, 2, 48, 64
6, 34560, Note_on_c, 2, 41, 100
6, 34560, Note_on_c, 2, 48, 100
6, 34752, Note_off_c, 2, 48, 64
6, 34752, Note_off_c, 2, 41, 64
6, 34752, Note_on_c, 2, 48, 100
6, 34752, Note_on_c, 2, 41, 100
6, 34944, Note_off_c, 2, 48, 64
6, 34944, Note_off_c, 2, 41, 64
6, 34944, Note_on_c, 2, 41, 100
6, 34944, Note_on_c, 2, 48, 100
6, 35118, Note_off_c, 2, 48, 64
6, 35118, Note_off_c, 2, 41, 64
6, 35136, Note_on_c, 2, 50, 100
6, 35136, Note_on_c, 2, 43, 100
6, 35328, Note_off_c, 2, 50, 64
6, 35328, Note_off_c, 2, 43, 64
6, 35328, Note_on_c, 2, 52, 100
6, 35328, Note_on_c, 2, 45, 100
6, 35520, Note_off_c, 2, 45, 64
6, 35520, Note_off_c, 2, 52, 64
6, 35520, Note_on_c, 2, 52, 100
6, 35520, Note_on_c, 2, 45, 100
6, 35712, Note_off_c, 2, 45, 64
6, 35712, Note_off_c, 2, 52, 64
6, 35712, Note_on_c, 2, 45, 100
6, 35712, Note_on_c, 2, 52, 100
6, 35904, Note_off_c, 2, 52, 64
6, 35904, Note_off_c, 2, 45, 64
6, 35904, Note_on_c, 2, 52, 100
6, 35904, Note_on_c, 2, 45, 100
6, 36096, Note_off_c, 2, 52, 64
6, 36096, Note_off_c, 2, 45, 64
6, 36096, Note_on_c, 2, 45, 100
6, 36096, Note_on_c, 2, 52, 100
6, 36288, Note_off_c, 2, 45, 64
6, 36288, Note_off_c, 2, 52, 64
6, 36288, Note_on_c, 2, 52, 100
6, 36288, Note_on_c, 2, 45, 100
6, 36480, Note_off_c, 2, 45, 64
6, 36480, Note_off_c, 2, 52, 64
6, 36480, Note_on_c, 2, 45, 100
6, 36480, Note_on_c, 2, 52, 100
6, 36672, Note_off_c, 2, 52, 64
6, 36672, Note_off_c, 2, 45, 64
6, 36672, Note_on_c, 2, 48, 100
6, 36672, Note_on_c, 2, 55, 100
6, 36768, Note_off_c, 2, 55, 64
6, 36768, Note_off_c, 2, 48, 64
6, 36768, Note_on_c, 2, 48, 100
6, 36768, Note_on_c, 2, 55, 100
6, 36864, Note_off_c, 2, 55, 64
6, 36864, Note_off_c, 2, 48, 64
6, 36864, Note_on_c, 2, 41, 100
6, 36864, Note_on_c, 2, 48, 100
6, 37056, Note_off_c, 2, 41, 64
6, 37056, Note_off_c, 2, 48, 64
6, 37056, Note_on_c, 2, 48, 100
6, 37056, Note_on_c, 2, 41, 100
6, 37248, Note_off_c, 2, 41, 64
6, 37248, Note_off_c, 2, 48, 64
6, 37248, Note_on_c, 2, 41, 100
6, 37248, Note_on_c, 2, 48, 100
6, 37440, Note_off_c, 2, 41, 64
6, 37440, Note_off_c, 2, 48, 64
6, 37440, Note_on_c, 2, 48, 100
6, 37440, Note_on_c, 2, 41, 100
6, 37632, Note_off_c, 2, 41, 64
6, 37632, Note_off_c, 2, 48, 64
6, 37632, Note_on_c, 2, 41, 100
6, 37632, Note_on_c, 2, 48, 100
6, 37824, Note_off_c, 2, 48, 64
6, 37824, Note_off_c, 2, 41, 64
6, 37824, Note_on_c, 2, 48, 100
6, 37824, Note_on_c, 2, 41, 100
6, 38016, Note_off_c, 2, 48, 64
6, 38016, Note_off_c, 2, 41, 64
6, 38016, Note_on_c, 2, 48, 100
6, 38016, Note_on_c, 2, 41, 100
6, 38190, Note_off_c, 2, 41, 64
6, 38190, Note_off_c, 2, 48, 64
6, 38208, Note_on_c, 2, 43, 100
6, 38208, Note_on_c, 2, 50, 100
6, 38400, Note_off_c, 2, 43, 64
6, 38400, Note_off_c, 2, 50, 64
6, 38400, Note_on_c, 2, 45, 100
6, 38400, Note_on_c, 2, 52, 100
6, 38592, Note_off_c, 2, 52, 64
6, 38592, Note_off_c, 2, 45, 64
6, 38592, Note_on_c, 2, 45, 100
6, 38592, Note_on_c, 2, 52, 100
6, 38784, Note_off_c, 2, 52, 64
6, 38784, Note_off_c, 2, 45, 64
6, 38784, Note_on_c, 2, 52, 100
6, 38784, Note_on_c, 2, 45, 100
6, 38976, Note_off_c, 2, 45, 64
6, 38976, Note_off_c, 2, 52, 64
6, 38976, Note_on_c, 2, 45, 100
6, 38976, Note_on_c, 2, 52, 100
6, 39168, Note_off_c, 2, 45, 64
6, 39168, Note_off_c, 2, 52, 64
6, 39168, Note_on_c, 2, 52, 100
6, 39168, Note_on_c, 2, 45, 100
6, 39360, Note_off_c, 2, 45, 64
6, 39360, Note_off_c, 2, 52, 64
6, 39360, Note_on_c, 2, 45, 100
6, 39360, Note_on_c, 2, 52, 100
6, 39552, Note_off_c, 2, 52, 64
6, 39552, Note_off_c, 2, 45, 64
6, 39552, Note_on_c, 2, 52, 100
6, 39552, Note_on_c, 2, 45, 100
6, 39744, Note_off_c, 2, 45, 64
6, 39744, Note_off_c, 2, 52, 64
6, 39744, Note_on_c, 2, 55, 100
6, 39744, Note_on_c, 2, 48, 100
6, 39840, Note_off_c, 2, 48, 64
6, 39840, Note_off_c, 2, 55, 64
6, 39840, Note_on_c, 2, 48, 100
6, 39840, Note_on_c, 2, 55, 100
6, 39936, Note_off_c, 2, 55, 64
6, 39936, Note_off_c, 2, 48, 64
6, 39936, Note_on_c, 2, 41, 100
6, 39936, Note_on_c, 2, 48, 100
6, 40128, Note_off_c, 2, 48, 64
6, 40128, Note_off_c, 2, 41, 64
6, 40128, Note_on_c, 2, 48, 100
6, 40128, Note_on_c, 2, 41, 100
6, 40320, Note_off_c, 2, 41, 64
6, 40320, Note_off_c, 2, 48, 64
6, 40320, Note_on_c, 2, 48, 100
6, 40320, Note_on_c, 2, 41, 100
6, 40512, Note_off_c, 2, 48, 64
6, 40512, Note_off_c, 2, 41, 64
6, 40512, Note_on_c, 2, 41, 100
6, 40512, Note_on_c, 2, 48, 100
6, 40704, Note_off_c, 2, 48, 64
6, 40704, Note_off_c, 2, 41, 64
6, 40704, Note_on_c, 2, 41, 100
6, 40704, Note_on_c, 2, 48, 100
6, 40896, Note_off_c, 2, 48, 64
6, 40896, Note_off_c, 2, 41, 64
6, 40896, Note_on_c, 2, 48, 100
6, 40896, Note_on_c, 2, 41, 100
6, 41088, Note_off_c, 2, 48, 64
6, 41088, Note_off_c, 2, 41, 64
6, 41088, Note_on_c, 2, 48, 100
6, 41088, Note_on_c, 2, 41, 100
6, 41262, Note_off_c, 2, 41, 64
6, 41262, Note_off_c, 2, 48, 64
6, 41280, Note_on_c, 2, 43, 100
6, 41280, Note_on_c, 2, 50, 100
6, 41472, Note_off_c, 2, 43, 64
6, 41472, Note_off_c, 2, 50, 64
6, 41472, Note_on_c, 2, 52, 100
6, 41472, Note_on_c, 2, 45, 100
6, 41664, Note_off_c, 2, 45, 64
6, 41664, Note_off_c, 2, 52, 64
6, 41664, Note_on_c, 2, 52, 100
6, 41664, Note_on_c, 2, 45, 100
6, 41856, Note_off_c, 2, 45, 64
6, 41856, Note_off_c, 2, 52, 64
6, 41856, Note_on_c, 2, 52, 100
6, 41856, Note_on_c, 2, 45, 100
6, 42048, Note_off_c, 2, 45, 64
6, 42048, Note_off_c, 2, 52, 64
6, 42048, Note_on_c, 2, 45, 100
6, 42048, Note_on_c, 2, 52, 100
6, 42240, Note_off_c, 2, 45, 64
6, 42240, Note_off_c, 2, 52, 64
6, 42240, Note_on_c, 2, 45, 100
6, 42240, Note_on_c, 2, 52, 100
6, 42432, Note_off_c, 2, 52, 64
6, 42432, Note_off_c, 2, 45, 64
6, 42432, Note_on_c, 2, 52, 100
6, 42432, Note_on_c, 2, 45, 100
6, 42624, Note_off_c, 2, 45, 64
6, 42624, Note_off_c, 2, 52, 64
6, 42624, Note_on_c, 2, 52, 100
6, 42624, Note_on_c, 2, 45, 100
6, 42816, Note_off_c, 2, 45, 64
6, 42816, Note_off_c, 2, 52, 64
6, 42816, Note_on_c, 2, 55, 100
6, 42816, Note_on_c, 2, 48, 100
6, 42912, Note_off_c, 2, 48, 64
6, 42912, Note_off_c, 2, 55, 64
6, 42912, Note_on_c, 2, 48, 100
6, 42912, Note_on_c, 2, 55, 100
6, 43008, Note_off_c, 2, 55, 64
6, 43008, Note_off_c, 2, 48, 64
6, 43008, Note_on_c, 2, 41, 100
6, 43008, Note_on_c, 2, 48, 100
6, 43200, Note_off_c, 2, 48, 64
6, 43200, Note_off_c, 2, 41, 64
6, 43200, Note_on_c, 2, 48, 100
6, 43200, Note_on_c, 2, 41, 100
6, 43392, Note_off_c, 2, 41, 64
6, 43392, Note_off_c, 2, 48, 64
6, 43392, Note_on_c, 2, 48, 100
6, 43392, Note_on_c, 2, 41, 100
6, 43584, Note_off_c, 2, 48, 64
6, 43584, Note_off_c, 2, 41, 64
6, 43584, Note_on_c, 2, 41, 100
6, 43584, Note_on_c, 2, 48, 100
6, 43776, Note_off_c, 2, 48, 64
6, 43776, Note_off_c, 2, 41, 64
6, 43776, Note_on_c, 2, 41, 100
6, 43776, Note_on_c, 2, 48, 100
6, 43968, Note_off_c, 2, 48, 64
6, 43968, Note_off_c, 2, 41, 64
6, 43968, Note_on_c, 2, 48, 100
6, 43968, Note_on_c, 2, 41, 100
6, 44160, Note_off_c, 2, 48, 64
6, 44160, Note_off_c, 2, 41, 64
6, 44160, Note_on_c, 2, 48, 100
6, 44160, Note_on_c, 2, 41, 100
6, 44334, Note_off_c, 2, 41, 64
6, 44334, Note_off_c, 2, 48, 64
6, 44352, Note_on_c, 2, 43, 100
6, 44352, Note_on_c, 2, 50, 100
6, 44544, Note_off_c, 2, 43, 64
6, 44544, Note_off_c, 2, 50, 64
6, 44544, Note_on_c, 2, 52, 100
6, 44544, Note_on_c, 2, 45, 100
6, 44736, Note_off_c, 2, 45, 64
6, 44736, Note_off_c, 2, 52, 64
6, 44736, Note_on_c, 2, 52, 100
6, 44736, Note_on_c, 2, 45, 100
6, 44928, Note_off_c, 2, 45, 64
6, 44928, Note_off_c, 2, 52, 64
6, 44928, Note_on_c, 2, 52, 100
6, 44928, Note_on_c, 2, 45, 100
6, 45120, Note_off_c, 2, 45, 64
6, 45120, Note_off_c, 2, 52, 64
6, 45120, Note_on_c, 2, 45, 100
6, 45120, Note_on_c, 2, 52, 100
6, 45312, Note_off_c, 2, 45, 64
6, 45312, Note_off_c, 2, 52, 64
6, 45312, Note_on_c, 2, 45, 100
6, 45312, Note_on_c, 2, 52, 100
6, 45504, Note_off_c, 2, 52, 64
6, 45504, Note_off_c, 2, 45, 64
6, 45504, Note_on_c, 2, 52, 100
6, 45504, Note_on_c, 2, 45, 100
6, 45696, Note_off_c, 2, 45, 64
6, 45696, Note_off_c, 2, 52, 64
6, 45696, Note_on_c, 2, 52, 100
6, 45696, Note_on_c, 2, 45, 100
6, 45888, Note_off_c, 2, 45, 64
6, 45888, Note_off_c, 2, 52, 64
6, 45888, Note_on_c, 2, 55, 100
6, 45888, Note_on_c, 2, 48, 100
6, 45984, Note_off_c, 2, 48, 64
6, 45984, Note_off_c, 2, 55, 64
6, 45984, Note_on_c, 2, 48, 100
6, 45984, Note_on_c, 2, 55, 100
6, 46080, Note_off_c, 2, 55, 64
6, 46080, Note_off_c, 2, 48, 64
6, 46080, Note_on_c, 2, 41, 100
6, 46080, Note_on_c, 2, 48, 100
6, 46272, Note_off_c, 2, 41, 64
6, 46272, Note_off_c, 2, 48, 64
6, 46272, Note_on_c, 2, 41, 100
6, 46272, Note_on_c, 2, 48, 100
6, 46464, Note_off_c, 2, 41, 64
6, 46464, Note_off_c, 2, 48, 64
6, 46464, Note_on_c, 2, 41, 100
6, 46464, Note_on_c, 2, 48, 100
6, 46656, Note_off_c, 2, 48, 64
6, 46656, Note_off_c, 2, 41, 64
6, 46656, Note_on_c, 2, 41, 100
6, 46656, Note_on_c, 2, 48, 100
6, 46848, Note_off_c, 2, 41, 64
6, 46848, Note_off_c, 2, 48, 64
6, 46848, Note_on_c, 2, 41, 100
6, 46848, Note_on_c, 2, 48, 100
6, 47040, Note_off_c, 2, 41, 64
6, 47040, Note_off_c, 2, 48, 64
6, 47040, Note_on_c, 2, 41, 100
6, 47040, Note_on_c, 2, 48, 100
6, 47232, Note_off_c, 2, 48, 64
6, 47232, Note_off_c, 2, 41, 64
6, 47232, Note_on_c, 2, 41, 100
6, 47232, Note_on_c, 2, 48, 100
6, 47406, Note_off_c, 2, 41, 64
6, 47406, Note_off_c, 2, 48, 64
6, 47424, Note_on_c, 2, 43, 100
6, 47424, Note_on_c, 2, 50, 100
6, 47616, Note_off_c, 2, 43, 64
6, 47616, Note_off_c, 2, 50, 64
6, 47616, Note_on_c, 2, 52, 100
6, 47616, Note_on_c, 2, 45, 100
6, 47808, Note_off_c, 2, 52, 64
6, 47808, Note_off_c, 2, 45, 64
6, 47808, Note_on_c, 2, 45, 100
6, 47808, Note_on_c, 2, 52, 100
6, 48000, Note_off_c, 2, 45, 64
6, 48000, Note_off_c, 2, 52, 64
6, 48000, Note_on_c, 2, 45, 100
6, 48000, Note_on_c, 2, 52, 100
6, 48192, Note_off_c, 2, 45, 64
6, 48192, Note_off_c, 2, 52, 64
6, 48192, Note_on_c, 2, 45, 100
6, 48192, Note_on_c, 2, 52, 100
6, 48384, Note_off_c, 2, 52, 64
6, 48384, Note_off_c, 2, 45, 64
6, 48384, Note_on_c, 2, 45, 100
6, 48384, Note_on_c, 2, 52, 100
6, 48576, Note_off_c, 2, 45, 64
6, 48576, Note_off_c, 2, 52, 64
6, 48576, Note_on_c, 2, 45, 100
6, 48576, Note_on_c, 2, 52, 100
6, 48768, Note_off_c, 2, 45, 64
6, 48768, Note_off_c, 2, 52, 64
6, 48768, Note_on_c, 2, 45, 100
6, 48768, Note_on_c, 2, 52, 100
6, 48960, Note_off_c, 2, 52, 64
6, 48960, Note_off_c, 2, 45, 64
6, 48960, Note_on_c, 2, 55, 100
6, 48960, Note_on_c, 2, 48, 100
6, 49056, Note_off_c, 2, 55, 64
6, 49056, Note_off_c, 2, 48, 64
6, 49056, Note_on_c, 2, 48, 100
6, 49056, Note_on_c, 2, 55, 100
6, 49152, Note_off_c, 2, 48, 64
6, 49152, Note_off_c, 2, 55, 64
6, 49152, Note_on_c, 2, 41, 100
6, 49152, Note_on_c, 2, 48, 100
6, 49344, Note_off_c, 2, 41, 64
6, 49344, Note_off_c, 2, 48, 64
6, 49344, Note_on_c, 2, 41, 100
6, 49344, Note_on_c, 2, 48, 100
6, 49536, Note_off_c, 2, 48, 64
6, 49536, Note_off_c, 2, 41, 64
6, 49536, Note_on_c, 2, 41, 100
6, 49536, Note_on_c, 2, 48, 100
6, 49728, Note_off_c, 2, 41, 64
6, 49728, Note_off_c, 2, 48, 64
6, 49728, Note_on_c, 2, 41, 100
6, 49728, Note_on_c, 2, 48, 100
6, 49920, Note_off_c, 2, 48, 64
6, 49920, Note_off_c, 2, 41, 64
6, 49920, Note_on_c, 2, 41, 100
6, 49920, Note_on_c, 2, 48, 100
6, 50112, Note_off_c, 2, 48, 64
6, 50112, Note_off_c, 2, 41, 64
6, 50112, Note_on_c, 2, 41, 100
6, 50112, Note_on_c, 2, 48, 100
6, 50304, Note_off_c, 2, 41, 64
6, 50304, Note_off_c, 2, 48, 64
6, 50304, Note_on_c, 2, 41, 100
6, 50304, Note_on_c, 2, 48, 100
6, 50478, Note_off_c, 2, 48, 64
6, 50478, Note_off_c, 2, 41, 64
6, 50496, Note_on_c, 2, 43, 100
6, 50496, Note_on_c, 2, 50, 100
6, 50688, Note_off_c, 2, 43, 64
6, 50688, Note_off_c, 2, 50, 64
6, 50688, Note_on_c, 2, 52, 100
6, 50688, Note_on_c, 2, 45, 100
6, 50880, Note_off_c, 2, 45, 64
6, 50880, Note_off_c, 2, 52, 64
6, 50880, Note_on_c, 2, 45, 100
6, 50880, Note_on_c, 2, 52, 100
6, 51072, Note_off_c, 2, 52, 64
6, 51072, Note_off_c, 2, 45, 64
6, 51072, Note_on_c, 2, 45, 100
6, 51072, Note_on_c, 2, 52, 100
6, 51264, Note_off_c, 2, 52, 64
6, 51264, Note_off_c, 2, 45, 64
6, 51264, Note_on_c, 2, 45, 100
6, 51264, Note_on_c, 2, 52, 100
6, 51456, Note_off_c, 2, 45, 64
6, 51456, Note_off_c, 2, 52, 64
6, 51456, Note_on_c, 2, 45, 100
6, 51456, Note_on_c, 2, 52, 100
6, 51648, Note_off_c, 2, 52, 64
6, 51648, Note_off_c, 2, 45, 64
6, 51648, Note_on_c, 2, 45, 100
6, 51648, Note_on_c, 2, 52, 100
6, 51840, Note_off_c, 2, 52, 64
6, 51840, Note_off_c, 2, 45, 64
6, 51840, Note_on_c, 2, 45, 100
6, 51840, Note_on_c, 2, 52, 100
6, 52032, Note_off_c, 2, 52, 64
6, 52032, Note_off_c, 2, 45, 64
6, 52032, Note_on_c, 2, 55, 100
6, 52032, Note_on_c, 2, 48, 100
6, 52128, Note_off_c, 2, 48, 64
6, 52128, Note_off_c, 2, 55, 64
6, 52128, Note_on_c, 2, 48, 100
6, 52128, Note_on_c, 2, 55, 100
6, 52224, Note_off_c, 2, 55, 64
6, 52224, Note_off_c, 2, 48, 64
6, 52224, Note_on_c, 2, 41, 100
6, 52224, Note_on_c, 2, 48, 100
6, 52416, Note_off_c, 2, 48, 64
6, 52416, Note_off_c, 2, 41, 64
6, 52416, Note_on_c, 2, 41, 100
6, 52416, Note_on_c, 2, 48, 100
6, 52608, Note_off_c, 2, 48, 64
6, 52608, Note_off_c, 2, 41, 64
6, 52608, Note_on_c, 2, 41, 100
6, 52608, Note_on_c, 2, 48, 100
6, 52800, Note_off_c, 2, 41, 64
6, 52800, Note_off_c, 2, 48, 64
6, 52800, Note_on_c, 2, 41, 100
6, 52800, Note_on_c, 2, 48, 100
6, 52992, Note_off_c, 2, 48, 64
6, 52992, Note_off_c, 2, 41, 64
6, 52992, Note_on_c, 2, 41, 100
6, 52992, Note_on_c, 2, 48, 100
6, 53184, Note_off_c, 2, 48, 64
6, 53184, Note_off_c, 2, 41, 64
6, 53184, Note_on_c, 2, 41, 100
6, 53184, Note_on_c, 2, 48, 100
6, 53376, Note_off_c, 2, 41, 64
6, 53376, Note_off_c, 2, 48, 64
6, 53376, Note_on_c, 2, 41, 100
6, 53376, Note_on_c, 2, 48, 100
6, 53550, Note_off_c, 2, 48, 64
6, 53550, Note_off_c, 2, 41, 64
6, 53568, Note_on_c, 2, 43, 100
6, 53568, Note_on_c, 2, 50, 100
6, 53760, Note_off_c, 2, 43, 64
6, 53760, Note_off_c, 2, 50, 64
6, 53760, Note_on_c, 2, 52, 100
6, 53760, Note_on_c, 2, 45, 100
6, 53952, Note_off_c, 2, 45, 64
6, 53952, Note_off_c, 2, 52, 64
6, 53952, Note_on_c, 2, 45, 100
6, 53952, Note_on_c, 2, 52, 100
6, 54144, Note_off_c, 2, 52, 64
6, 54144, Note_off_c, 2, 45, 64
6, 54144, Note_on_c, 2, 45, 100
6, 54144, Note_on_c, 2, 52, 100
6, 54336, Note_off_c, 2, 52, 64
6, 54336, Note_off_c, 2, 45, 64
6, 54336, Note_on_c, 2, 45, 100
6, 54336, Note_on_c, 2, 52, 100
6, 54528, Note_off_c, 2, 45, 64
6, 54528, Note_off_c, 2, 52, 64
6, 54528, Note_on_c, 2, 45, 100
6, 54528, Note_on_c, 2, 52, 100
6, 54720, Note_off_c, 2, 45, 64
6, 54720, Note_off_c, 2, 52, 64
6, 54720, Note_on_c, 2, 45, 100
6, 54720, Note_on_c, 2, 52, 100
6, 54912, Note_off_c, 2, 52, 64
6, 54912, Note_off_c, 2, 45, 64
6, 54912, Note_on_c, 2, 45, 100
6, 54912, Note_on_c, 2, 52, 100
6, 55104, Note_off_c, 2, 52, 64
6, 55104, Note_off_c, 2, 45, 64
6, 55104, Note_on_c, 2, 55, 100
6, 55104, Note_on_c, 2, 48, 100
6, 55200, Note_off_c, 2, 48, 64
6, 55200, Note_off_c, 2, 55, 64
6, 55200, Note_on_c, 2, 48, 100
6, 55200, Note_on_c, 2, 55, 100
6, 55296, Note_off_c, 2, 55, 64
6, 55296, Note_off_c, 2, 48, 64
6, 55296, Note_on_c, 2, 41, 100
6, 55296, Note_on_c, 2, 48, 100
6, 55488, Note_off_c, 2, 41, 64
6, 55488, Note_off_c, 2, 48, 64
6, 55488, Note_on_c, 2, 41, 100
6, 55488, Note_on_c, 2, 48, 100
6, 55680, Note_off_c, 2, 48, 64
6, 55680, Note_off_c, 2, 41, 64
6, 55680, Note_on_c, 2, 41, 100
6, 55680, Note_on_c, 2, 48, 100
6, 55872, Note_off_c, 2, 41, 64
6, 55872, Note_off_c, 2, 48, 64
6, 55872, Note_on_c, 2, 41, 100
6, 55872, Note_on_c, 2, 48, 100
6, 56064, Note_off_c, 2, 48, 64
6, 56064, Note_off_c, 2, 41, 64
6, 56064, Note_on_c, 2, 41, 100
6, 56064, Note_on_c, 2, 48, 100
6, 56256, Note_off_c, 2, 48, 64
6, 56256, Note_off_c, 2, 41, 64
6, 56256, Note_on_c, 2, 41, 100
6, 56256, Note_on_c, 2, 48, 100
6, 56448, Note_off_c, 2, 41, 64
6, 56448, Note_off_c, 2, 48, 64
6, 56448, Note_on_c, 2, 41, 100
6, 56448, Note_on_c, 2, 48, 100
6, 56622, Note_off_c, 2, 48, 64
6, 56622, Note_off_c, 2, 41, 64
6, 56640, Note_on_c, 2, 43, 100
6, 56640, Note_on_c, 2, 50, 100
6, 56832, Note_off_c, 2, 43, 64
6, 56832, Note_off_c, 2, 50, 64
6, 56832, Note_on_c, 2, 52, 100
6, 56832, Note_on_c, 2, 45, 100
6, 57024, Note_off_c, 2, 45, 64
6, 57024, Note_off_c, 2, 52, 64
6, 57024, Note_on_c, 2, 45, 100
6, 57024, Note_on_c, 2, 52, 100
6, 57216, Note_off_c, 2, 52, 64
6, 57216, Note_off_c, 2, 45, 64
6, 57216, Note_on_c, 2, 45, 100
6, 57216, Note_on_c, 2, 52, 100
6, 57408, Note_off_c, 2, 52, 64
6, 57408, Note_off_c, 2, 45, 64
6, 57408, Note_on_c, 2, 45, 100
6, 57408, Note_on_c, 2, 52, 100
6, 57600, Note_off_c, 2, 45, 64
6, 57600, Note_off_c, 2, 52, 64
6, 57600, Note_on_c, 2, 45, 100
6, 57600, Note_on_c, 2, 52, 100
6, 57792, Note_off_c, 2, 52, 64
6, 57792, Note_off_c, 2, 45, 64
6, 57792, Note_on_c, 2, 45, 100
6, 57792, Note_on_c, 2, 52, 100
6, 57984, Note_off_c, 2, 52, 64
6, 57984, Note_off_c, 2, 45, 64
6, 57984, Note_on_c, 2, 45, 100
6, 57984, Note_on_c, 2, 52, 100
6, 58176, Note_off_c, 2, 52, 64
6, 58176, Note_off_c, 2, 45, 64
6, 58176, Note_on_c, 2, 55, 100
6, 58176, Note_on_c, 2, 48, 100
6, 58272, Note_off_c, 2, 48, 64
6, 58272, Note_off_c, 2, 55, 64
6, 58272, Note_on_c, 2, 48, 100
6, 58272, Note_on_c, 2, 55, 100
6, 58368, Note_off_c, 2, 55, 64
6, 58368, Note_off_c, 2, 48, 64
6, 58368, Note_on_c, 2, 41, 100
6, 58368, Note_on_c, 2, 48, 100
6, 58560, Note_off_c, 2, 48, 64
6, 58560, Note_off_c, 2, 41, 64
6, 58560, Note_on_c, 2, 41, 100
6, 58560, Note_on_c, 2, 48, 100
6, 58752, Note_off_c, 2, 48, 64
6, 58752, Note_off_c, 2, 41, 64
6, 58752, Note_on_c, 2, 41, 100
6, 58752, Note_on_c, 2, 48, 100
6, 58944, Note_off_c, 2, 41, 64
6, 58944, Note_off_c, 2, 48, 64
6, 58944, Note_on_c, 2, 41, 100
6, 58944, Note_on_c, 2, 48, 100
6, 59136, Note_off_c, 2, 48, 64
6, 59136, Note_off_c, 2, 41, 64
6, 59136, Note_on_c, 2, 41, 100
6, 59136, Note_on_c, 2, 48, 100
6, 59328, Note_off_c, 2, 48, 64
6, 59328, Note_off_c, 2, 41, 64
6, 59328, Note_on_c, 2, 41, 100
6, 59328, Note_on_c, 2, 48, 100
6, 59520, Note_off_c, 2, 41, 64
6, 59520, Note_off_c, 2, 48, 64
6, 59520, Note_on_c, 2, 41, 100
6, 59520, Note_on_c, 2, 48, 100
6, 59694, Note_off_c, 2, 48, 64
6, 59694, Note_off_c, 2, 41, 64
6, 59712, Note_on_c, 2, 43, 100
6, 59712, Note_on_c, 2, 50, 100
6, 59904, Note_off_c, 2, 43, 64
6, 59904, Note_off_c, 2, 50, 64
6, 59904, Note_on_c, 2, 52, 100
6, 59904, Note_on_c, 2, 45, 100
6, 60096, Note_off_c, 2, 45, 64
6, 60096, Note_off_c, 2, 52, 64
6, 60096, Note_on_c, 2, 45, 100
6, 60096, Note_on_c, 2, 52, 100
6, 60288, Note_off_c, 2, 52, 64
6, 60288, Note_off_c, 2, 45, 64
6, 60288, Note_on_c, 2, 45, 100
6, 60288, Note_on_c, 2, 52, 100
6, 60480, Note_off_c, 2, 52, 64
6, 60480, Note_off_c, 2, 45, 64
6, 60480, Note_on_c, 2, 45, 100
6, 60480, Note_on_c, 2, 52, 100
6, 60672, Note_off_c, 2, 45, 64
6, 60672, Note_off_c, 2, 52, 64
6, 60672, Note_on_c, 2, 45, 100
6, 60672, Note_on_c, 2, 52, 100
6, 60864, Note_off_c, 2, 52, 64
6, 60864, Note_off_c, 2, 45, 64
6, 60864, Note_on_c, 2, 45, 100
6, 60864, Note_on_c, 2, 52, 100
6, 61056, Note_off_c, 2, 52, 64
6, 61056, Note_off_c, 2, 45, 64
6, 61056, Note_on_c, 2, 45, 100
6, 61056, Note_on_c, 2, 52, 100
6, 61248, Note_off_c, 2, 52, 64
6, 61248, Note_off_c, 2, 45, 64
6, 61248, Note_on_c, 2, 55, 100
6, 61248, Note_on_c, 2, 48, 100
6, 61344, Note_off_c, 2, 48, 64
6, 61344, Note_off_c, 2, 55, 64
6, 61344, Note_on_c, 2, 48, 100
6, 61344, Note_on_c, 2, 55, 100
6, 61440, Note_off_c, 2, 55, 64
6, 61440, Note_off_c, 2, 48, 64
6, 61440, Note_on_c, 2, 41, 100
6, 61440, Note_on_c, 2, 48, 100
6, 61632, Note_off_c, 2, 48, 64
6, 61632, Note_off_c, 2, 41, 64
6, 61632, Note_on_c, 2, 41, 100
6, 61632, Note_on_c, 2, 48, 100
6, 61824, Note_off_c, 2, 48, 64
6, 61824, Note_off_c, 2, 41, 64
6, 61824, Note_on_c, 2, 41, 100
6, 61824, Note_on_c, 2, 48, 100
6, 62016, Note_off_c, 2, 41, 64
6, 62016, Note_off_c, 2, 48, 64
6, 62016, Note_on_c, 2, 41, 100
6, 62016, Note_on_c, 2, 48, 100
6, 62208, Note_off_c, 2, 48, 64
6, 62208, Note_off_c, 2, 41, 64
6, 62208, Note_on_c, 2, 41, 100
6, 62208, Note_on_c, 2, 48, 100
6, 62400, Note_off_c, 2, 48, 64
6, 62400, Note_off_c, 2, 41, 64
6, 62400, Note_on_c, 2, 41, 100
6, 62400, Note_on_c, 2, 48, 100
6, 62592, Note_off_c, 2, 41, 64
6, 62592, Note_off_c, 2, 48, 64
6, 62592, Note_on_c, 2, 41, 100
6, 62592, Note_on_c, 2, 48, 100
6, 62766, Note_off_c, 2, 48, 64
6, 62766, Note_off_c, 2, 41, 64
6, 62784, Note_on_c, 2, 43, 100
6, 62784, Note_on_c, 2, 50, 100
6, 62976, Note_off_c, 2, 43, 64
6, 62976, Note_off_c, 2, 50, 64
6, 62976, Note_on_c, 2, 52, 100
6, 62976, Note_on_c, 2, 45, 100
6, 63168, Note_off_c, 2, 45, 64
6, 63168, Note_off_c, 2, 52, 64
6, 63168, Note_on_c, 2, 45, 100
6, 63168, Note_on_c, 2, 52, 100
6, 63360, Note_off_c, 2, 52, 64
6, 63360, Note_off_c, 2, 45, 64
6, 63360, Note_on_c, 2, 45, 100
6, 63360, Note_on_c, 2, 52, 100
6, 63552, Note_off_c, 2, 52, 64
6, 63552, Note_off_c, 2, 45, 64
6, 63552, Note_on_c, 2, 45, 100
6, 63552, Note_on_c, 2, 52, 100
6, 63744, Note_off_c, 2, 45, 64
6, 63744, Note_off_c, 2, 52, 64
6, 63744, Note_on_c, 2, 45, 100
6, 63744, Note_on_c, 2, 52, 100
6, 63936, Note_off_c, 2, 52, 64
6, 63936, Note_off_c, 2, 45, 64
6, 63936, Note_on_c, 2, 45, 100
6, 63936, Note_on_c, 2, 52, 100
6, 64128, Note_off_c, 2, 52, 64
6, 64128, Note_off_c, 2, 45, 64
6, 64128, Note_on_c, 2, 45, 100
6, 64128, Note_on_c, 2, 52, 100
6, 64320, Note_off_c, 2, 52, 64
6, 64320, Note_off_c, 2, 45, 64
6, 64320, Note_on_c, 2, 55, 100
6, 64320, Note_on_c, 2, 48, 100
6, 64416, Note_off_c, 2, 48, 64
6, 64416, Note_off_c, 2, 55, 64
6, 64416, Note_on_c, 2, 48, 100
6, 64416, Note_on_c, 2, 55, 100
6, 64512, Note_off_c, 2, 55, 64
6, 64512, Note_off_c, 2, 48, 64
6, 64512, Note_on_c, 2, 41, 100
6, 64512, Note_on_c, 2, 48, 100
6, 64704, Note_off_c, 2, 48, 64
6, 64704, Note_off_c, 2, 41, 64
6, 64704, Note_on_c, 2, 41, 100
6, 64704, Note_on_c, 2, 48, 100
6, 64896, Note_off_c, 2, 48, 64
6, 64896, Note_off_c, 2, 41, 64
6, 64896, Note_on_c, 2, 41, 100
6, 64896, Note_on_c, 2, 48, 100
6, 65088, Note_off_c, 2, 41, 64
6, 65088, Note_off_c, 2, 48, 64
6, 65088, Note_on_c, 2, 41, 100
6, 65088, Note_on_c, 2, 48, 100
6, 65280, Note_off_c, 2, 48, 64
6, 65280, Note_off_c, 2, 41, 64
6, 65280, Note_on_c, 2, 41, 100
6, 65280, Note_on_c, 2, 48, 100
6, 65472, Note_off_c, 2, 48, 64
6, 65472, Note_off_c, 2, 41, 64
6, 65472, Note_on_c, 2, 41, 100
6, 65472, Note_on_c, 2, 48, 100
6, 65664, Note_off_c, 2, 41, 64
6, 65664, Note_off_c, 2, 48, 64
6, 65664, Note_on_c, 2, 41, 100
6, 65664, Note_on_c, 2, 48, 100
6, 65838, Note_off_c, 2, 48, 64
6, 65838, Note_off_c, 2, 41, 64
6, 65856, Note_on_c, 2, 43, 100
6, 65856, Note_on_c, 2, 50, 100
6, 66048, Note_off_c, 2, 43, 64
6, 66048, Note_off_c, 2, 50, 64
6, 66048, Note_on_c, 2, 52, 100
6, 66048, Note_on_c, 2, 45, 100
6, 66240, Note_off_c, 2, 45, 64
6, 66240, Note_off_c, 2, 52, 64
6, 66240, Note_on_c, 2, 45, 100
6, 66240, Note_on_c, 2, 52, 100
6, 66432, Note_off_c, 2, 52, 64
6, 66432, Note_off_c, 2, 45, 64
6, 66432, Note_on_c, 2, 45, 100
6, 66432, Note_on_c, 2, 52, 100
6, 66624, Note_off_c, 2, 52, 64
6, 66624, Note_off_c, 2, 45, 64
6, 66624, Note_on_c, 2, 45, 100
6, 66624, Note_on_c, 2, 52, 100
6, 66816, Note_off_c, 2, 45, 64
6, 66816, Note_off_c, 2, 52, 64
6, 66816, Note_on_c, 2, 45, 100
6, 66816, Note_on_c, 2, 52, 100
6, 67008, Note_off_c, 2, 52, 64
6, 67008, Note_off_c, 2, 45, 64
6, 67008, Note_on_c, 2, 45, 100
6, 67008, Note_on_c, 2, 52, 100
6, 67200, Note_off_c, 2, 52, 64
6, 67200, Note_off_c, 2, 45, 64
6, 67200, Note_on_c, 2, 45, 100
6, 67200, Note_on_c, 2, 52, 100
6, 67392, Note_off_c, 2, 52, 64
6, 67392, Note_off_c, 2, 45, 64
6, 67392, Note_on_c, 2, 55, 100
6, 67392, Note_on_c, 2, 48, 100
6, 67488, Note_off_c, 2, 48, 64
6, 67488, Note_off_c, 2, 55, 64
6, 67488, Note_on_c, 2, 48, 100
6, 67488, Note_on_c, 2, 55, 100
6, 67584, Note_off_c, 2, 55, 64
6, 67584, Note_off_c, 2, 48, 64
6, 67584, Control_c, 2, 101, 0
6, 67584, Control_c, 2, 100, 0
6, 67584, Control_c, 2, 6, 12
6, 67584, Control_c, 2, 10, 64
6, 67584, Control_c, 2, 7, 100
6, 67584, Pitch_bend_c, 2, 8192
6, 67584, Program_c, 2, 0
6, 67586, Control_c, 2, 101, 0
6, 67586, Control_c, 2, 100, 0
6, 67586, Control_c, 2, 6, 12
6, 67586, Control_c, 2, 10, 64
6, 67586, Control_c, 2, 7, 100
6, 67586, Pitch_bend_c, 2, 8192
6, 67586, Program_c, 2, 0
6, 67586, Control_c, 2, 101, 0
6, 67586, Control_c, 2, 100, 0
6, 67586, Control_c, 2, 6, 12
6, 67586, Control_c, 2, 10, 64
6, 67586, Control_c, 2, 7, 100
6, 67586, Pitch_bend_c, 2, 8192
6, 67586, Program_c, 2, 0
6, 67586, End_track
0, 0, End_of_file
