0, 0, Header, 1, 9, 960
1, 0, Start_track
1, 0, Control_c, 0, 101, 0
1, 0, Control_c, 0, 100, 0
1, 0, Control_c, 0, 6, 12
1, 0, Control_c, 0, 38, 0
1, 0, Control_c, 1, 101, 0
1, 0, Control_c, 1, 100, 0
1, 0, Control_c, 1, 6, 12
1, 0, Control_c, 1, 38, 0
1, 0, Control_c, 2, 101, 0
1, 0, Control_c, 2, 100, 0
1, 0, Control_c, 2, 6, 12
1, 0, Control_c, 2, 38, 0
1, 0, Control_c, 3, 101, 0
1, 0, Control_c, 3, 100, 0
1, 0, Control_c, 3, 6, 12
1, 0, Control_c, 3, 38, 0
1, 0, Control_c, 4, 101, 0
1, 0, Control_c, 4, 100, 0
1, 0, Control_c, 4, 6, 12
1, 0, Control_c, 4, 38, 0
1, 0, Control_c, 5, 101, 0
1, 0, Control_c, 5, 100, 0
1, 0, Control_c, 5, 6, 12
1, 0, Control_c, 5, 38, 0
1, 0, Control_c, 6, 101, 0
1, 0, Control_c, 6, 100, 0
1, 0, Control_c, 6, 6, 12
1, 0, Control_c, 6, 38, 0
1, 0, Control_c, 7, 101, 0
1, 0, Control_c, 7, 100, 0
1, 0, Control_c, 7, 6, 12
1, 0, Control_c, 7, 38, 0
1, 0, Control_c, 8, 101, 0
1, 0, Control_c, 8, 100, 0
1, 0, Control_c, 8, 6, 12
1, 0, Control_c, 8, 38, 0
1, 0, Control_c, 9, 101, 0
1, 0, Control_c, 9, 100, 0
1, 0, Control_c, 9, 6, 12
1, 0, Control_c, 9, 38, 0
1, 0, Control_c, 10, 101, 0
1, 0, Control_c, 10, 100, 0
1, 0, Control_c, 10, 6, 12
1, 0, Control_c, 10, 38, 0
1, 0, Control_c, 11, 101, 0
1, 0, Control_c, 11, 100, 0
1, 0, Control_c, 11, 6, 12
1, 0, Control_c, 11, 38, 0
1, 0, Control_c, 12, 101, 0
1, 0, Control_c, 12, 100, 0
1, 0, Control_c, 12, 6, 12
1, 0, Control_c, 12, 38, 0
1, 0, Control_c, 13, 101, 0
1, 0, Control_c, 13, 100, 0
1, 0, Control_c, 13, 6, 12
1, 0, Control_c, 13, 38, 0
1, 0, Control_c, 14, 101, 0
1, 0, Control_c, 14, 100, 0
1, 0, Control_c, 14, 6, 12
1, 0, Control_c, 14, 38, 0
1, 0, Control_c, 15, 101, 0
1, 0, Control_c, 15, 100, 0
1, 0, Control_c, 15, 6, 12
1, 0, Control_c, 15, 38, 0
1, 0, Time_signature, 12, 3, 12, 8
1, 0, Tempo, 521739
1, 0, End_track
2, 0, Start_track
2, 0, Pitch_bend_c, 0, 8192
2, 0, Control_c, 0, 7, 95
2, 0, Control_c, 0, 10, 63
2, 0, Control_c, 0, 93, 0
2, 0, Control_c, 0, 91, 0
2, 0, Control_c, 0, 95, 0
2, 0, Control_c, 0, 92, 0
2, 0, Control_c, 0, 11, 127
2, 0, Program_c, 0, 28
2, 0, Control_c, 1, 7, 95
2, 0, Control_c, 1, 10, 63
2, 0, Control_c, 1, 93, 0
2, 0, Control_c, 1, 91, 0
2, 0, Control_c, 1, 95, 0
2, 0, Control_c, 1, 92, 0
2, 0, Control_c, 1, 11, 127
2, 0, Program_c, 1, 28
2, 0, Note_on_c, 0, 48, 95
2, 960, Note_off_c, 0, 48, 95
2, 960, Note_on_c, 0, 55, 95
2, 1920, Note_off_c, 0, 55, 95
2, 1920, Note_on_c, 0, 60, 95
2, 2880, Note_off_c, 0, 60, 95
2, 2880, Note_on_c, 0, 64, 95
2, 3840, Note_off_c, 0, 64, 95
2, 3840, Note_on_c, 0, 55, 95
2, 4800, Note_off_c, 0, 55, 95
2, 4800, Note_on_c, 0, 60, 95
2, 5760, Note_off_c, 0, 60, 95
2, 5760, Note_on_c, 0, 48, 95
2, 6720, Note_off_c, 0, 48, 95
2, 6720, Note_on_c, 0, 55, 95
2, 7680, Note_off_c, 0, 55, 95
2, 7680, Note_on_c, 0, 60, 95
2, 8640, Note_off_c, 0, 60, 95
2, 8640, Note_on_c, 0, 64, 95
2, 9600, Note_off_c, 0, 64, 95
2, 9600, Note_on_c, 0, 55, 95
2, 10560, Note_off_c, 0, 55, 95
2, 10560, Note_on_c, 0, 60, 95
2, 11520, Note_off_c, 0, 60, 95
2, 11520, Note_on_c, 0, 41, 95
2, 12480, Note_off_c, 0, 41, 95
2, 12480, Note_on_c, 0, 57, 95
2, 13440, Note_off_c, 0, 57, 95
2, 13440, Note_on_c, 0, 60, 95
2, 14400, Note_off_c, 0, 60, 95
2, 14400, Note_on_c, 0, 65, 95
2, 15360, Note_off_c, 0, 65, 95
2, 15360, Note_on_c, 0, 57, 95
2, 16320, Note_off_c, 0, 57, 95
2, 16320, Note_on_c, 0, 60, 95
2, 17280, Note_off_c, 0, 60, 95
2, 17280, Note_on_c, 0, 41, 95
2, 18240, Note_off_c, 0, 41, 95
2, 18240, Note_on_c, 0, 57, 95
2, 19200, Note_off_c, 0, 57, 95
2, 19200, Note_on_c, 0, 60, 95
2, 20160, Note_off_c, 0, 60, 95
2, 20160, Note_on_c, 0, 65, 95
2, 21120, Note_off_c, 0, 65, 95
2, 21120, Note_on_c, 0, 57, 95
2, 22080, Note_off_c, 0, 57, 95
2, 22080, Note_on_c, 0, 62, 95
2, 23040, Note_off_c, 0, 62, 95
2, 23040, Note_on_c, 0, 50, 95
2, 24000, Note_off_c, 0, 50, 95
2, 24000, Note_on_c, 0, 57, 95
2, 24960, Note_off_c, 0, 57, 95
2, 24960, Note_on_c, 0, 60, 95
2, 25920, Note_off_c, 0, 60, 95
2, 25920, Note_on_c, 0, 65, 95
2, 26880, Note_off_c, 0, 65, 95
2, 26880, Note_on_c, 0, 60, 95
2, 27840, Note_off_c, 0, 60, 95
2, 27840, Note_on_c, 0, 62, 95
2, 28800, Note_off_c, 0, 62, 95
2, 28800, Note_on_c, 0, 50, 95
2, 29760, Note_off_c, 0, 50, 95
2, 29760, Note_on_c, 0, 57, 95
2, 30720, Note_off_c, 0, 57, 95
2, 30720, Note_on_c, 0, 60, 95
2, 31680, Note_off_c, 0, 60, 95
2, 31680, Note_on_c, 0, 65, 95
2, 32640, Note_off_c, 0, 65, 95
2, 32640, Note_on_c, 0, 60, 95
2, 33600, Note_off_c, 0, 60, 95
2, 33600, Note_on_c, 0, 62, 95
2, 34560, Note_off_c, 0, 62, 95
2, 34560, Note_on_c, 0, 43, 95
2, 35520, Note_off_c, 0, 43, 95
2, 35520, Note_on_c, 0, 55, 95
2, 36480, Note_off_c, 0, 55, 95
2, 36480, Note_on_c, 0, 62, 95
2, 37440, Note_off_c, 0, 62, 95
2, 37440, Note_on_c, 0, 65, 95
2, 38400, Note_off_c, 0, 65, 95
2, 38400, Note_on_c, 0, 60, 95
2, 39360, Note_off_c, 0, 60, 95
2, 39360, Note_on_c, 0, 62, 95
2, 40320, Note_off_c, 0, 62, 95
2, 40320, Note_on_c, 0, 43, 95
2, 41280, Note_off_c, 0, 43, 95
2, 41280, Note_on_c, 0, 55, 95
2, 42240, Note_off_c, 0, 55, 95
2, 42240, Note_on_c, 0, 62, 95
2, 43200, Note_off_c, 0, 62, 95
2, 43200, Note_on_c, 0, 65, 95
2, 44160, Note_off_c, 0, 65, 95
2, 44160, Note_on_c, 0, 60, 95
2, 45120, Note_off_c, 0, 60, 95
2, 45120, Note_on_c, 0, 62, 95
2, 46080, Note_off_c, 0, 62, 95
2, 46080, Note_on_c, 0, 48, 95
2, 47040, Note_off_c, 0, 48, 95
2, 47040, Note_on_c, 0, 55, 95
2, 48000, Note_off_c, 0, 55, 95
2, 48000, Note_on_c, 0, 60, 95
2, 48960, Note_off_c, 0, 60, 95
2, 48960, Note_on_c, 0, 64, 95
2, 49920, Note_off_c, 0, 64, 95
2, 49920, Note_on_c, 0, 55, 95
2, 50880, Note_off_c, 0, 55, 95
2, 50880, Note_on_c, 0, 60, 95
2, 51840, Note_off_c, 0, 60, 95
2, 51840, Note_on_c, 0, 48, 95
2, 52800, Note_off_c, 0, 48, 95
2, 52800, Note_on_c, 0, 55, 95
2, 53760, Note_off_c, 0, 55, 95
2, 53760, Note_on_c, 0, 60, 95
2, 54720, Note_off_c, 0, 60, 95
2, 54720, Note_on_c, 0, 64, 95
2, 55680, Note_off_c, 0, 64, 95
2, 55680, Note_on_c, 0, 55, 95
2, 56640, Note_off_c, 0, 55, 95
2, 56640, Note_on_c, 0, 60, 95
2, 57600, Note_off_c, 0, 60, 95
2, 57600, Note_on_c, 0, 41, 95
2, 58560, Note_off_c, 0, 41, 95
2, 58560, Note_on_c, 0, 57, 95
2, 59520, Note_off_c, 0, 57, 95
2, 59520, Note_on_c, 0, 60, 95
2, 60480, Note_off_c, 0, 60, 95
2, 60480, Note_on_c, 0, 65, 95
2, 61440, Note_off_c, 0, 65, 95
2, 61440, Note_on_c, 0, 57, 95
2, 62400, Note_off_c, 0, 57, 95
2, 62400, Note_on_c, 0, 60, 95
2, 63360, Note_off_c, 0, 60, 95
2, 63360, Note_on_c, 0, 41, 95
2, 64320, Note_off_c, 0, 41, 95
2, 64320, Note_on_c, 0, 57, 95
2, 65280, Note_off_c, 0, 57, 95
2, 65280, Note_on_c, 0, 60, 95
2, 66240, Note_off_c, 0, 60, 95
2, 66240, Note_on_c, 0, 65, 95
2, 67200, Note_off_c, 0, 65, 95
2, 67200, Note_on_c, 0, 57, 95
2, 68160, Note_off_c, 0, 57, 95
2, 68160, Note_on_c, 0, 62, 95
2, 69120, Note_off_c, 0, 62, 95
2, 69120, Note_on_c, 0, 50, 95
2, 70080, Note_off_c, 0, 50, 95
2, 70080, Note_on_c, 0, 57, 95
2, 71040, Note_off_c, 0, 57, 95
2, 71040, Note_on_c, 0, 60, 95
2, 72000, Note_off_c, 0, 60, 95
2, 72000, Note_on_c, 0, 65, 95
2, 72960, Note_off_c, 0, 65, 95
2, 72960, Note_on_c, 0, 60, 95
2, 73920, Note_off_c, 0, 60, 95
2, 73920, Note_on_c, 0, 62, 95
2, 74880, Note_off_c, 0, 62, 95
2, 74880, Note_on_c, 0, 50, 95
2, 75840, Note_off_c, 0, 50, 95
2, 75840, Note_on_c, 0, 57, 95
2, 76800, Note_off_c, 0, 57, 95
2, 76800, Note_on_c, 0, 60, 95
2, 77760, Note_off_c, 0, 60, 95
2, 77760, Note_on_c, 0, 65, 95
2, 78720, Note_off_c, 0, 65, 95
2, 78720, Note_on_c, 0, 60, 95
2, 79680, Note_off_c, 0, 60, 95
2, 79680, Note_on_c, 0, 62, 95
2, 80640, Note_off_c, 0, 62, 95
2, 80640, Note_on_c, 0, 43, 95
2, 81600, Note_off_c, 0, 43, 95
2, 81600, Note_on_c, 0, 55, 95
2, 82560, Note_off_c, 0, 55, 95
2, 82560, Note_on_c, 0, 62, 95
2, 83520, Note_off_c, 0, 62, 95
2, 83520, Note_on_c, 0, 65, 95
2, 84480, Note_off_c, 0, 65, 95
2, 84480, Note_on_c, 0, 60, 95
2, 85440, Note_off_c, 0, 60, 95
2, 85440, Note_on_c, 0, 62, 95
2, 86400, Note_off_c, 0, 62, 95
2, 86400, Note_on_c, 0, 43, 95
2, 87360, Note_off_c, 0, 43, 95
2, 87360, Note_on_c, 0, 55, 95
2, 88320, Note_off_c, 0, 55, 95
2, 88320, Note_on_c, 0, 62, 95
2, 89280, Note_off_c, 0, 62, 95
2, 89280, Note_on_c, 0, 65, 95
2, 90240, Note_off_c, 0, 65, 95
2, 90240, Note_on_c, 0, 60, 95
2, 91200, Note_off_c, 0, 60, 95
2, 91200, Note_on_c, 0, 62, 95
2, 92160, Note_off_c, 0, 62, 95
2, 92160, Note_on_c, 0, 48, 95
2, 93120, Note_off_c, 0, 48, 95
2, 93120, Note_on_c, 0, 55, 95
2, 94080, Note_off_c, 0, 55, 95
2, 94080, Note_on_c, 0, 60, 95
2, 95040, Note_off_c, 0, 60, 95
2, 95040, Note_on_c, 0, 64, 95
2, 96000, Note_off_c, 0, 64, 95
2, 96000, Note_on_c, 0, 55, 95
2, 96960, Note_off_c, 0, 55, 95
2, 96960, Note_on_c, 0, 60, 95
2, 97920, Note_off_c, 0, 60, 95
2, 97920, Note_on_c, 0, 48, 95
2, 98880, Note_off_c, 0, 48, 95
2, 98880, Note_on_c, 0, 55, 95
2, 99840, Note_off_c, 0, 55, 95
2, 99840, Note_on_c, 0, 60, 95
2, 100800, Note_off_c, 0, 60, 95
2, 100800, Note_on_c, 0, 64, 95
2, 101760, Note_off_c, 0, 64, 95
2, 101760, Note_on_c, 0, 55, 95
2, 102720, Note_off_c, 0, 55, 95
2, 102720, Note_on_c, 0, 60, 95
2, 103680, Note_off_c, 0, 60, 95
2, 103680, Note_on_c, 0, 41, 95
2, 104640, Note_off_c, 0, 41, 95
2, 104640, Note_on_c, 0, 57, 95
2, 105600, Note_off_c, 0, 57, 95
2, 105600, Note_on_c, 0, 60, 95
2, 106560, Note_off_c, 0, 60, 95
2, 106560, Note_on_c, 0, 65, 95
2, 107520, Note_off_c, 0, 65, 95
2, 107520, Note_on_c, 0, 57, 95
2, 108480, Note_off_c, 0, 57, 95
2, 108480, Note_on_c, 0, 60, 95
2, 109440, Note_off_c, 0, 60, 95
2, 109440, Note_on_c, 0, 41, 95
2, 110400, Note_off_c, 0, 41, 95
2, 110400, Note_on_c, 0, 57, 95
2, 111360, Note_off_c, 0, 57, 95
2, 111360, Note_on_c, 0, 60, 95
2, 112320, Note_off_c, 0, 60, 95
2, 112320, Note_on_c, 0, 65, 95
2, 113280, Note_off_c, 0, 65, 95
2, 113280, Note_on_c, 0, 57, 95
2, 114240, Note_off_c, 0, 57, 95
2, 114240, Note_on_c, 0, 62, 95
2, 115200, Note_off_c, 0, 62, 95
2, 115200, Note_on_c, 0, 50, 95
2, 116160, Note_off_c, 0, 50, 95
2, 116160, Note_on_c, 0, 57, 95
2, 117120, Note_off_c, 0, 57, 95
2, 117120, Note_on_c, 0, 60, 95
2, 118080, Note_off_c, 0, 60, 95
2, 118080, Note_on_c, 0, 65, 95
2, 119040, Note_off_c, 0, 65, 95
2, 119040, Note_on_c, 0, 60, 95
2, 120000, Note_off_c, 0, 60, 95
2, 120000, Note_on_c, 0, 62, 95
2, 120960, Note_off_c, 0, 62, 95
2, 120960, Note_on_c, 0, 50, 95
2, 121920, Note_off_c, 0, 50, 95
2, 121920, Note_on_c, 0, 57, 95
2, 122880, Note_off_c, 0, 57, 95
2, 122880, Note_on_c, 0, 60, 95
2, 123840, Note_off_c, 0, 60, 95
2, 123840, Note_on_c, 0, 65, 95
2, 124800, Note_off_c, 0, 65, 95
2, 124800, Note_on_c, 0, 60, 95
2, 125760, Note_off_c, 0, 60, 95
2, 125760, Note_on_c, 0, 62, 95
2, 126720, Note_off_c, 0, 62, 95
2, 126720, Note_on_c, 0, 43, 95
2, 127680, Note_off_c, 0, 43, 95
2, 127680, Note_on_c, 0, 55, 95
2, 128640, Note_off_c, 0, 55, 95
2, 128640, Note_on_c, 0, 62, 95
2, 129600, Note_off_c, 0, 62, 95
2, 129600, Note_on_c, 0, 65, 95
2, 130560, Note_off_c, 0, 65, 95
2, 130560, Note_on_c, 0, 60, 95
2, 131520, Note_off_c, 0, 60, 95
2, 131520, Note_on_c, 0, 62, 95
2, 132480, Note_off_c, 0, 62, 95
2, 132480, Note_on_c, 0, 43, 95
2, 133440, Note_off_c, 0, 43, 95
2, 133440, Note_on_c, 0, 55, 95
2, 134400, Note_off_c, 0, 55, 95
2, 134400, Note_on_c, 0, 62, 95
2, 135360, Note_off_c, 0, 62, 95
2, 135360, Note_on_c, 0, 65, 95
2, 136320, Note_off_c, 0, 65, 95
2, 136320, Note_on_c, 0, 60, 95
2, 137280, Note_off_c, 0, 60, 95
2, 137280, Note_on_c, 0, 62, 95
2, 138240, Note_off_c, 0, 62, 95
2, 138240, Note_on_c, 0, 45, 95
2, 139200, Note_off_c, 0, 45, 95
2, 139200, Note_on_c, 0, 57, 95
2, 140160, Note_off_c, 0, 57, 95
2, 140160, Note_on_c, 0, 60, 95
2, 141120, Note_off_c, 0, 60, 95
2, 141120, Note_on_c, 0, 64, 95
2, 142080, Note_off_c, 0, 64, 95
2, 142080, Note_on_c, 0, 57, 95
2, 143040, Note_off_c, 0, 57, 95
2, 143040, Note_on_c, 0, 60, 95
2, 144000, Note_off_c, 0, 60, 95
2, 144000, Note_on_c, 0, 45, 95
2, 144960, Note_off_c, 0, 45, 95
2, 144960, Note_on_c, 0, 57, 95
2, 145920, Note_off_c, 0, 57, 95
2, 145920, Note_on_c, 0, 60, 95
2, 146880, Note_off_c, 0, 60, 95
2, 146880, Note_on_c, 0, 64, 95
2, 147840, Note_off_c, 0, 64, 95
2, 147840, Note_on_c, 0, 57, 95
2, 148800, Note_off_c, 0, 57, 95
2, 148800, Note_on_c, 0, 60, 95
2, 149760, Note_off_c, 0, 60, 95
2, 149760, Note_on_c, 0, 50, 95
2, 150720, Note_off_c, 0, 50, 95
2, 150720, Note_on_c, 0, 60, 95
2, 151680, Note_off_c, 0, 60, 95
2, 151680, Note_on_c, 0, 62, 95
2, 152640, Note_off_c, 0, 62, 95
2, 152640, Note_on_c, 0, 69, 95
2, 153600, Note_off_c, 0, 69, 95
2, 153600, Note_on_c, 0, 60, 95
2, 154560, Note_off_c, 0, 60, 95
2, 154560, Note_on_c, 0, 62, 95
2, 155520, Note_off_c, 0, 62, 95
2, 155520, Note_on_c, 0, 50, 95
2, 156480, Note_off_c, 0, 50, 95
2, 156480, Note_on_c, 0, 60, 95
2, 157440, Note_off_c, 0, 60, 95
2, 157440, Note_on_c, 0, 62, 95
2, 158400, Note_off_c, 0, 62, 95
2, 158400, Note_on_c, 0, 69, 95
2, 159360, Note_off_c, 0, 69, 95
2, 159360, Note_on_c, 0, 60, 95
2, 160320, Note_off_c, 0, 60, 95
2, 160320, Note_on_c, 0, 62, 95
2, 161280, Note_off_c, 0, 62, 95
2, 161280, Note_on_c, 0, 43, 95
2, 162240, Note_off_c, 0, 43, 95
2, 162240, Note_on_c, 0, 60, 95
2, 163200, Note_off_c, 0, 60, 95
2, 163200, Note_on_c, 0, 62, 95
2, 164160, Note_off_c, 0, 62, 95
2, 164160, Note_on_c, 0, 69, 95
2, 165120, Note_off_c, 0, 69, 95
2, 165120, Note_on_c, 0, 60, 95
2, 166080, Note_off_c, 0, 60, 95
2, 166080, Note_on_c, 0, 62, 95
2, 167040, Note_off_c, 0, 62, 95
2, 167040, Note_on_c, 0, 43, 95
2, 168000, Note_off_c, 0, 43, 95
2, 168000, Note_on_c, 0, 59, 95
2, 168960, Note_off_c, 0, 59, 95
2, 168960, Note_on_c, 0, 62, 95
2, 169920, Note_off_c, 0, 62, 95
2, 169920, Note_on_c, 0, 69, 95
2, 170880, Note_off_c, 0, 69, 95
2, 170880, Note_on_c, 0, 59, 95
2, 171840, Note_off_c, 0, 59, 95
2, 171840, Note_on_c, 0, 62, 95
2, 172800, Note_off_c, 0, 62, 95
2, 172800, Note_on_c, 0, 41, 95
2, 173760, Note_off_c, 0, 41, 95
2, 173760, Note_on_c, 0, 57, 95
2, 174720, Note_off_c, 0, 57, 95
2, 174720, Note_on_c, 0, 60, 95
2, 175680, Note_off_c, 0, 60, 95
2, 175680, Note_on_c, 0, 65, 95
2, 176640, Note_off_c, 0, 65, 95
2, 176640, Note_on_c, 0, 57, 95
2, 177600, Note_off_c, 0, 57, 95
2, 177600, Note_on_c, 0, 60, 95
2, 178560, Note_off_c, 0, 60, 95
2, 178560, Note_on_c, 0, 41, 95
2, 179520, Note_off_c, 0, 41, 95
2, 179520, Note_on_c, 0, 57, 95
2, 180480, Note_off_c, 0, 57, 95
2, 180480, Note_on_c, 0, 60, 95
2, 181440, Note_off_c, 0, 60, 95
2, 181440, Note_on_c, 0, 65, 95
2, 182400, Note_off_c, 0, 65, 95
2, 182400, Note_on_c, 0, 57, 95
2, 183360, Note_off_c, 0, 57, 95
2, 183360, Note_on_c, 0, 60, 95
2, 184320, Note_off_c, 0, 60, 95
2, 184320, Note_on_c, 0, 41, 95
2, 185280, Note_off_c, 0, 41, 95
2, 185280, Note_on_c, 0, 57, 95
2, 186240, Note_off_c, 0, 57, 95
2, 186240, Note_on_c, 0, 60, 95
2, 187200, Note_off_c, 0, 60, 95
2, 187200, Note_on_c, 0, 65, 95
2, 188160, Note_off_c, 0, 65, 95
2, 188160, Note_on_c, 0, 57, 95
2, 189120, Note_off_c, 0, 57, 95
2, 189120, Note_on_c, 0, 60, 95
2, 190080, Note_off_c, 0, 60, 95
2, 190080, Note_on_c, 0, 41, 95
2, 191040, Note_off_c, 0, 41, 95
2, 191040, Note_on_c, 0, 57, 95
2, 192000, Note_off_c, 0, 57, 95
2, 192000, Note_on_c, 0, 60, 95
2, 192960, Note_off_c, 0, 60, 95
2, 192960, Note_on_c, 0, 65, 95
2, 193920, Note_off_c, 0, 65, 95
2, 193920, Note_on_c, 0, 57, 95
2, 194880, Note_off_c, 0, 57, 95
2, 194880, Note_on_c, 0, 60, 95
2, 195840, Note_off_c, 0, 60, 95
2, 195840, Note_on_c, 0, 48, 95
2, 196800, Note_off_c, 0, 48, 95
2, 196800, Note_on_c, 0, 55, 95
2, 197760, Note_off_c, 0, 55, 95
2, 197760, Note_on_c, 0, 60, 95
2, 198720, Note_off_c, 0, 60, 95
2, 198720, Note_on_c, 0, 64, 95
2, 199680, Note_off_c, 0, 64, 95
2, 199680, Note_on_c, 0, 55, 95
2, 200640, Note_off_c, 0, 55, 95
2, 200640, Note_on_c, 0, 60, 95
2, 201600, Note_off_c, 0, 60, 95
2, 201600, Note_on_c, 0, 48, 95
2, 202560, Note_off_c, 0, 48, 95
2, 202560, Note_on_c, 0, 55, 95
2, 203520, Note_off_c, 0, 55, 95
2, 203520, Note_on_c, 0, 60, 95
2, 204480, Note_off_c, 0, 60, 95
2, 204480, Note_on_c, 0, 64, 95
2, 205440, Note_off_c, 0, 64, 95
2, 205440, Note_on_c, 0, 55, 95
2, 206400, Note_off_c, 0, 55, 95
2, 206400, Note_on_c, 0, 60, 95
2, 207360, Note_off_c, 0, 60, 95
2, 207360, Note_on_c, 0, 41, 95
2, 208320, Note_off_c, 0, 41, 95
2, 208320, Note_on_c, 0, 57, 95
2, 209280, Note_off_c, 0, 57, 95
2, 209280, Note_on_c, 0, 60, 95
2, 210240, Note_off_c, 0, 60, 95
2, 210240, Note_on_c, 0, 65, 95
2, 211200, Note_off_c, 0, 65, 95
2, 211200, Note_on_c, 0, 57, 95
2, 212160, Note_off_c, 0, 57, 95
2, 212160, Note_on_c, 0, 60, 95
2, 213120, Note_off_c, 0, 60, 95
2, 213120, Note_on_c, 0, 41, 95
2, 214080, Note_off_c, 0, 41, 95
2, 214080, Note_on_c, 0, 57, 95
2, 215040, Note_off_c, 0, 57, 95
2, 215040, Note_on_c, 0, 60, 95
2, 216000, Note_off_c, 0, 60, 95
2, 216000, Note_on_c, 0, 65, 95
2, 216960, Note_off_c, 0, 65, 95
2, 216960, Note_on_c, 0, 57, 95
2, 217920, Note_off_c, 0, 57, 95
2, 217920, Note_on_c, 0, 62, 95
2, 218880, Note_off_c, 0, 62, 95
2, 218880, Note_on_c, 0, 50, 95
2, 219840, Note_off_c, 0, 50, 95
2, 219840, Note_on_c, 0, 57, 95
2, 220800, Note_off_c, 0, 57, 95
2, 220800, Note_on_c, 0, 60, 95
2, 221760, Note_off_c, 0, 60, 95
2, 221760, Note_on_c, 0, 65, 95
2, 222720, Note_off_c, 0, 65, 95
2, 222720, Note_on_c, 0, 60, 95
2, 223680, Note_off_c, 0, 60, 95
2, 223680, Note_on_c, 0, 62, 95
2, 224640, Note_off_c, 0, 62, 95
2, 224640, Note_on_c, 0, 50, 95
2, 225600, Note_off_c, 0, 50, 95
2, 225600, Note_on_c, 0, 57, 95
2, 226560, Note_off_c, 0, 57, 95
2, 226560, Note_on_c, 0, 60, 95
2, 227520, Note_off_c, 0, 60, 95
2, 227520, Note_on_c, 0, 65, 95
2, 228480, Note_off_c, 0, 65, 95
2, 228480, Note_on_c, 0, 60, 95
2, 229440, Note_off_c, 0, 60, 95
2, 229440, Note_on_c, 0, 62, 95
2, 230400, Note_off_c, 0, 62, 95
2, 230400, Note_on_c, 0, 43, 95
2, 231360, Note_off_c, 0, 43, 95
2, 231360, Note_on_c, 0, 55, 95
2, 232320, Note_off_c, 0, 55, 95
2, 232320, Note_on_c, 0, 62, 95
2, 233280, Note_off_c, 0, 62, 95
2, 233280, Note_on_c, 0, 65, 95
2, 234240, Note_off_c, 0, 65, 95
2, 234240, Note_on_c, 0, 60, 95
2, 235200, Note_off_c, 0, 60, 95
2, 235200, Note_on_c, 0, 62, 95
2, 236160, Note_off_c, 0, 62, 95
2, 236160, Note_on_c, 0, 43, 95
2, 237120, Note_off_c, 0, 43, 95
2, 237120, Note_on_c, 0, 55, 95
2, 238080, Note_off_c, 0, 55, 95
2, 238080, Note_on_c, 0, 62, 95
2, 239040, Note_off_c, 0, 62, 95
2, 239040, Note_on_c, 0, 65, 95
2, 240000, Note_off_c, 0, 65, 95
2, 240000, Note_on_c, 0, 60, 95
2, 240960, Note_off_c, 0, 60, 95
2, 240960, Note_on_c, 0, 62, 95
2, 241920, Note_off_c, 0, 62, 95
2, 241920, Note_on_c, 0, 48, 95
2, 242880, Note_off_c, 0, 48, 95
2, 242880, Note_on_c, 0, 55, 95
2, 243840, Note_off_c, 0, 55, 95
2, 243840, Note_on_c, 0, 60, 95
2, 244800, Note_off_c, 0, 60, 95
2, 244800, Note_on_c, 0, 64, 95
2, 245760, Note_off_c, 0, 64, 95
2, 245760, Note_on_c, 0, 55, 95
2, 246720, Note_off_c, 0, 55, 95
2, 246720, Note_on_c, 0, 60, 95
2, 247680, Note_off_c, 0, 60, 95
2, 247680, Note_on_c, 0, 48, 95
2, 248640, Note_off_c, 0, 48, 95
2, 248640, Note_on_c, 0, 55, 95
2, 249600, Note_off_c, 0, 55, 95
2, 249600, Note_on_c, 0, 60, 95
2, 250560, Note_off_c, 0, 60, 95
2, 250560, Note_on_c, 0, 64, 95
2, 251520, Note_off_c, 0, 64, 95
2, 251520, Note_on_c, 0, 55, 95
2, 252480, Note_off_c, 0, 55, 95
2, 252480, Note_on_c, 0, 60, 95
2, 253440, Note_off_c, 0, 60, 95
2, 253440, Note_on_c, 0, 41, 95
2, 254400, Note_off_c, 0, 41, 95
2, 254400, Note_on_c, 0, 57, 95
2, 255360, Note_off_c, 0, 57, 95
2, 255360, Note_on_c, 0, 60, 95
2, 256320, Note_off_c, 0, 60, 95
2, 256320, Note_on_c, 0, 65, 95
2, 257280, Note_off_c, 0, 65, 95
2, 257280, Note_on_c, 0, 57, 95
2, 258240, Note_off_c, 0, 57, 95
2, 258240, Note_on_c, 0, 60, 95
2, 259200, Note_off_c, 0, 60, 95
2, 259200, Note_on_c, 0, 41, 95
2, 260160, Note_off_c, 0, 41, 95
2, 260160, Note_on_c, 0, 57, 95
2, 261120, Note_off_c, 0, 57, 95
2, 261120, Note_on_c, 0, 60, 95
2, 262080, Note_off_c, 0, 60, 95
2, 262080, Note_on_c, 0, 65, 95
2, 263040, Note_off_c, 0, 65, 95
2, 263040, Note_on_c, 0, 57, 95
2, 264000, Note_off_c, 0, 57, 95
2, 264000, Note_on_c, 0, 62, 95
2, 264960, Note_off_c, 0, 62, 95
2, 264960, Note_on_c, 0, 50, 95
2, 265920, Note_off_c, 0, 50, 95
2, 265920, Note_on_c, 0, 57, 95
2, 266880, Note_off_c, 0, 57, 95
2, 266880, Note_on_c, 0, 60, 95
2, 267840, Note_off_c, 0, 60, 95
2, 267840, Note_on_c, 0, 65, 95
2, 268800, Note_off_c, 0, 65, 95
2, 268800, Note_on_c, 0, 60, 95
2, 269760, Note_off_c, 0, 60, 95
2, 269760, Note_on_c, 0, 62, 95
2, 270720, Note_off_c, 0, 62, 95
2, 270720, Note_on_c, 0, 50, 95
2, 271680, Note_off_c, 0, 50, 95
2, 271680, Note_on_c, 0, 57, 95
2, 272640, Note_off_c, 0, 57, 95
2, 272640, Note_on_c, 0, 60, 95
2, 273600, Note_off_c, 0, 60, 95
2, 273600, Note_on_c, 0, 65, 95
2, 274560, Note_off_c, 0, 65, 95
2, 274560, Note_on_c, 0, 60, 95
2, 275520, Note_off_c, 0, 60, 95
2, 275520, Note_on_c, 0, 62, 95
2, 276480, Note_off_c, 0, 62, 95
2, 276480, Note_on_c, 0, 43, 95
2, 277440, Note_off_c, 0, 43, 95
2, 277440, Note_on_c, 0, 55, 95
2, 278400, Note_off_c, 0, 55, 95
2, 278400, Note_on_c, 0, 62, 95
2, 279360, Note_off_c, 0, 62, 95
2, 279360, Note_on_c, 0, 65, 95
2, 280320, Note_off_c, 0, 65, 95
2, 280320, Note_on_c, 0, 60, 95
2, 281280, Note_off_c, 0, 60, 95
2, 281280, Note_on_c, 0, 62, 95
2, 282240, Note_off_c, 0, 62, 95
2, 282240, Note_on_c, 0, 43, 95
2, 283200, Note_off_c, 0, 43, 95
2, 283200, Note_on_c, 0, 55, 95
2, 284160, Note_off_c, 0, 55, 95
2, 284160, Note_on_c, 0, 62, 95
2, 285120, Note_off_c, 0, 62, 95
2, 285120, Note_on_c, 0, 65, 95
2, 286080, Note_off_c, 0, 65, 95
2, 286080, Note_on_c, 0, 60, 95
2, 287040, Note_off_c, 0, 60, 95
2, 287040, Note_on_c, 0, 62, 95
2, 288000, Note_off_c, 0, 62, 95
2, 288000, Note_on_c, 0, 45, 95
2, 288960, Note_off_c, 0, 45, 95
2, 288960, Note_on_c, 0, 57, 95
2, 289920, Note_off_c, 0, 57, 95
2, 289920, Note_on_c, 0, 60, 95
2, 290880, Note_off_c, 0, 60, 95
2, 290880, Note_on_c, 0, 64, 95
2, 291840, Note_off_c, 0, 64, 95
2, 291840, Note_on_c, 0, 57, 95
2, 292800, Note_off_c, 0, 57, 95
2, 292800, Note_on_c, 0, 60, 95
2, 293760, Note_off_c, 0, 60, 95
2, 293760, Note_on_c, 0, 45, 95
2, 294720, Note_off_c, 0, 45, 95
2, 294720, Note_on_c, 0, 57, 95
2, 295680, Note_off_c, 0, 57, 95
2, 295680, Note_on_c, 0, 60, 95
2, 296640, Note_off_c, 0, 60, 95
2, 296640, Note_on_c, 0, 64, 95
2, 297600, Note_off_c, 0, 64, 95
2, 297600, Note_on_c, 0, 57, 95
2, 298560, Note_off_c, 0, 57, 95
2, 298560, Note_on_c, 0, 60, 95
2, 299520, Note_off_c, 0, 60, 95
2, 299520, Note_on_c, 0, 50, 95
2, 300480, Note_off_c, 0, 50, 95
2, 300480, Note_on_c, 0, 60, 95
2, 301440, Note_off_c, 0, 60, 95
2, 301440, Note_on_c, 0, 62, 95
2, 302400, Note_off_c, 0, 62, 95
2, 302400, Note_on_c, 0, 69, 95
2, 303360, Note_off_c, 0, 69, 95
2, 303360, Note_on_c, 0, 60, 95
2, 304320, Note_off_c, 0, 60, 95
2, 304320, Note_on_c, 0, 62, 95
2, 305280, Note_off_c, 0, 62, 95
2, 305280, Note_on_c, 0, 50, 95
2, 306240, Note_off_c, 0, 50, 95
2, 306240, Note_on_c, 0, 60, 95
2, 307200, Note_off_c, 0, 60, 95
2, 307200, Note_on_c, 0, 62, 95
2, 308160, Note_off_c, 0, 62, 95
2, 308160, Note_on_c, 0, 69, 95
2, 309120, Note_off_c, 0, 69, 95
2, 309120, Note_on_c, 0, 60, 95
2, 310080, Note_off_c, 0, 60, 95
2, 310080, Note_on_c, 0, 62, 95
2, 311040, Note_off_c, 0, 62, 95
2, 311040, Note_on_c, 0, 43, 95
2, 312000, Note_off_c, 0, 43, 95
2, 312000, Note_on_c, 0, 60, 95
2, 312960, Note_off_c, 0, 60, 95
2, 312960, Note_on_c, 0, 62, 95
2, 313920, Note_off_c, 0, 62, 95
2, 313920, Note_on_c, 0, 69, 95
2, 314880, Note_off_c, 0, 69, 95
2, 314880, Note_on_c, 0, 60, 95
2, 315840, Note_off_c, 0, 60, 95
2, 315840, Note_on_c, 0, 62, 95
2, 316800, Note_off_c, 0, 62, 95
2, 316800, Note_on_c, 0, 43, 95
2, 317760, Note_off_c, 0, 43, 95
2, 317760, Note_on_c, 0, 59, 95
2, 318720, Note_off_c, 0, 59, 95
2, 318720, Note_on_c, 0, 62, 95
2, 319680, Note_off_c, 0, 62, 95
2, 319680, Note_on_c, 0, 69, 95
2, 320640, Note_off_c, 0, 69, 95
2, 320640, Note_on_c, 0, 59, 95
2, 321600, Note_off_c, 0, 59, 95
2, 321600, Note_on_c, 0, 62, 95
2, 322560, Note_off_c, 0, 62, 95
2, 322560, Note_on_c, 0, 41, 95
2, 323520, Note_off_c, 0, 41, 95
2, 323520, Note_on_c, 0, 57, 95
2, 324480, Note_off_c, 0, 57, 95
2, 324480, Note_on_c, 0, 60, 95
2, 325440, Note_off_c, 0, 60, 95
2, 325440, Note_on_c, 0, 65, 95
2, 326400, Note_off_c, 0, 65, 95
2, 326400, Note_on_c, 0, 57, 95
2, 327360, Note_off_c, 0, 57, 95
2, 327360, Note_on_c, 0, 60, 95
2, 328320, Note_off_c, 0, 60, 95
2, 328320, Note_on_c, 0, 41, 95
2, 329280, Note_off_c, 0, 41, 95
2, 329280, Note_on_c, 0, 57, 95
2, 330240, Note_off_c, 0, 57, 95
2, 330240, Note_on_c, 0, 60, 95
2, 331200, Note_off_c, 0, 60, 95
2, 331200, Note_on_c, 0, 65, 95
2, 332160, Note_off_c, 0, 65, 95
2, 332160, Note_on_c, 0, 57, 95
2, 333120, Note_off_c, 0, 57, 95
2, 333120, Note_on_c, 0, 60, 95
2, 334080, Note_off_c, 0, 60, 95
2, 334080, Note_on_c, 0, 41, 95
2, 335040, Note_off_c, 0, 41, 95
2, 335040, Note_on_c, 0, 57, 95
2, 336000, Note_off_c, 0, 57, 95
2, 336000, Note_on_c, 0, 60, 95
2, 336960, Note_off_c, 0, 60, 95
2, 336960, Note_on_c, 0, 65, 95
2, 337920, Note_off_c, 0, 65, 95
2, 337920, Note_on_c, 0, 57, 95
2, 338880, Note_off_c, 0, 57, 95
2, 338880, Note_on_c, 0, 60, 95
2, 339840, Note_off_c, 0, 60, 95
2, 339840, Note_on_c, 0, 41, 95
2, 340800, Note_off_c, 0, 41, 95
2, 340800, Note_on_c, 0, 57, 95
2, 341760, Note_off_c, 0, 57, 95
2, 341760, Note_on_c, 0, 60, 95
2, 342720, Note_off_c, 0, 60, 95
2, 342720, Note_on_c, 0, 65, 95
2, 343680, Note_off_c, 0, 65, 95
2, 343680, Note_on_c, 0, 57, 95
2, 344640, Note_off_c, 0, 57, 95
2, 344640, Note_on_c, 0, 60, 95
2, 345600, Note_off_c, 0, 60, 95
2, 345600, Note_on_c, 0, 48, 95
2, 346560, Note_off_c, 0, 48, 95
2, 346560, Note_on_c, 0, 55, 95
2, 347520, Note_off_c, 0, 55, 95
2, 347520, Note_on_c, 0, 60, 95
2, 348480, Note_off_c, 0, 60, 95
2, 348480, Note_on_c, 0, 64, 95
2, 349440, Note_off_c, 0, 64, 95
2, 349440, Note_on_c, 0, 55, 95
2, 350400, Note_off_c, 0, 55, 95
2, 350400, Note_on_c, 0, 60, 95
2, 351360, Note_off_c, 0, 60, 95
2, 351360, Note_on_c, 0, 48, 95
2, 352320, Note_off_c, 0, 48, 95
2, 352320, Note_on_c, 0, 55, 95
2, 353280, Note_off_c, 0, 55, 95
2, 353280, Note_on_c, 0, 60, 95
2, 354240, Note_off_c, 0, 60, 95
2, 354240, Note_on_c, 0, 64, 95
2, 355200, Note_off_c, 0, 64, 95
2, 355200, Note_on_c, 0, 55, 95
2, 356160, Note_off_c, 0, 55, 95
2, 356160, Note_on_c, 0, 60, 95
2, 357120, Note_off_c, 0, 60, 95
2, 357120, Note_on_c, 0, 41, 95
2, 358080, Note_off_c, 0, 41, 95
2, 358080, Note_on_c, 0, 57, 95
2, 359040, Note_off_c, 0, 57, 95
2, 359040, Note_on_c, 0, 60, 95
2, 360000, Note_off_c, 0, 60, 95
2, 360000, Note_on_c, 0, 65, 95
2, 360960, Note_off_c, 0, 65, 95
2, 360960, Note_on_c, 0, 57, 95
2, 361920, Note_off_c, 0, 57, 95
2, 361920, Note_on_c, 0, 60, 95
2, 362880, Note_off_c, 0, 60, 95
2, 362880, Note_on_c, 0, 41, 95
2, 363840, Note_off_c, 0, 41, 95
2, 363840, Note_on_c, 0, 57, 95
2, 364800, Note_off_c, 0, 57, 95
2, 364800, Note_on_c, 0, 60, 95
2, 365760, Note_off_c, 0, 60, 95
2, 365760, Note_on_c, 0, 65, 95
2, 366720, Note_off_c, 0, 65, 95
2, 366720, Note_on_c, 0, 57, 95
2, 367680, Note_off_c, 0, 57, 95
2, 367680, Note_on_c, 0, 62, 95
2, 368640, Note_off_c, 0, 62, 95
2, 368640, Note_on_c, 0, 50, 95
2, 369600, Note_off_c, 0, 50, 95
2, 369600, Note_on_c, 0, 57, 95
2, 370560, Note_off_c, 0, 57, 95
2, 370560, Note_on_c, 0, 60, 95
2, 371520, Note_off_c, 0, 60, 95
2, 371520, Note_on_c, 0, 65, 95
2, 372480, Note_off_c, 0, 65, 95
2, 372480, Note_on_c, 0, 60, 95
2, 373440, Note_off_c, 0, 60, 95
2, 373440, Note_on_c, 0, 62, 95
2, 374400, Note_off_c, 0, 62, 95
2, 374400, Note_on_c, 0, 50, 95
2, 375360, Note_off_c, 0, 50, 95
2, 375360, Note_on_c, 0, 57, 95
2, 376320, Note_off_c, 0, 57, 95
2, 376320, Note_on_c, 0, 60, 95
2, 377280, Note_off_c, 0, 60, 95
2, 377280, Note_on_c, 0, 65, 95
2, 378240, Note_off_c, 0, 65, 95
2, 378240, Note_on_c, 0, 60, 95
2, 379200, Note_off_c, 0, 60, 95
2, 379200, Note_on_c, 0, 62, 95
2, 380160, Note_off_c, 0, 62, 95
2, 380160, Note_on_c, 0, 43, 95
2, 381120, Note_off_c, 0, 43, 95
2, 381120, Note_on_c, 0, 55, 95
2, 382080, Note_off_c, 0, 55, 95
2, 382080, Note_on_c, 0, 62, 95
2, 383040, Note_off_c, 0, 62, 95
2, 383040, Note_on_c, 0, 65, 95
2, 384000, Note_off_c, 0, 65, 95
2, 384000, Note_on_c, 0, 60, 95
2, 384960, Note_off_c, 0, 60, 95
2, 384960, Note_on_c, 0, 62, 95
2, 385920, Note_off_c, 0, 62, 95
2, 385920, Note_on_c, 0, 43, 95
2, 386880, Note_off_c, 0, 43, 95
2, 386880, Note_on_c, 0, 55, 95
2, 387840, Note_off_c, 0, 55, 95
2, 387840, Note_on_c, 0, 62, 95
2, 388800, Note_off_c, 0, 62, 95
2, 388800, Note_on_c, 0, 65, 95
2, 389760, Note_off_c, 0, 65, 95
2, 389760, Note_on_c, 0, 60, 95
2, 390720, Note_off_c, 0, 60, 95
2, 390720, Note_on_c, 0, 62, 95
2, 391680, Note_off_c, 0, 62, 95
2, 391680, Note_on_c, 0, 48, 95
2, 392640, Note_off_c, 0, 48, 95
2, 392640, Note_on_c, 0, 55, 95
2, 393600, Note_off_c, 0, 55, 95
2, 393600, Note_on_c, 0, 60, 95
2, 394560, Note_off_c, 0, 60, 95
2, 394560, Note_on_c, 0, 64, 95
2, 395520, Note_off_c, 0, 64, 95
2, 395520, Note_on_c, 0, 55, 95
2, 396480, Note_off_c, 0, 55, 95
2, 396480, Note_on_c, 0, 60, 95
2, 397440, Note_off_c, 0, 60, 95
2, 397440, Note_on_c, 0, 48, 95
2, 398400, Note_off_c, 0, 48, 95
2, 398400, Note_on_c, 0, 55, 95
2, 399360, Note_off_c, 0, 55, 95
2, 399360, Note_on_c, 0, 60, 95
2, 400320, Note_off_c, 0, 60, 95
2, 400320, Note_on_c, 0, 64, 95
2, 401280, Note_off_c, 0, 64, 95
2, 401280, Note_on_c, 0, 55, 95
2, 402240, Note_off_c, 0, 55, 95
2, 402240, Note_on_c, 0, 60, 95
2, 403200, Note_off_c, 0, 60, 95
2, 403200, Note_on_c, 0, 41, 95
2, 404160, Note_off_c, 0, 41, 95
2, 404160, Note_on_c, 0, 57, 95
2, 405120, Note_off_c, 0, 57, 95
2, 405120, Note_on_c, 0, 60, 95
2, 406080, Note_off_c, 0, 60, 95
2, 406080, Note_on_c, 0, 65, 95
2, 407040, Note_off_c, 0, 65, 95
2, 407040, Note_on_c, 0, 57, 95
2, 408000, Note_off_c, 0, 57, 95
2, 408000, Note_on_c, 0, 60, 95
2, 408960, Note_off_c, 0, 60, 95
2, 408960, Note_on_c, 0, 41, 95
2, 409920, Note_off_c, 0, 41, 95
2, 409920, Note_on_c, 0, 57, 95
2, 410880, Note_off_c, 0, 57, 95
2, 410880, Note_on_c, 0, 60, 95
2, 411840, Note_off_c, 0, 60, 95
2, 411840, Note_on_c, 0, 65, 95
2, 412800, Note_off_c, 0, 65, 95
2, 412800, Note_on_c, 0, 57, 95
2, 413760, Note_off_c, 0, 57, 95
2, 413760, Note_on_c, 0, 62, 95
2, 414720, Note_off_c, 0, 62, 95
2, 414720, Note_on_c, 0, 50, 95
2, 415680, Note_off_c, 0, 50, 95
2, 415680, Note_on_c, 0, 57, 95
2, 416640, Note_off_c, 0, 57, 95
2, 416640, Note_on_c, 0, 60, 95
2, 417600, Note_off_c, 0, 60, 95
2, 417600, Note_on_c, 0, 65, 95
2, 418560, Note_off_c, 0, 65, 95
2, 418560, Note_on_c, 0, 60, 95
2, 419520, Note_off_c, 0, 60, 95
2, 419520, Note_on_c, 0, 62, 95
2, 420480, Note_off_c, 0, 62, 95
2, 420480, Note_on_c, 0, 50, 95
2, 421440, Note_off_c, 0, 50, 95
2, 421440, Note_on_c, 0, 57, 95
2, 422400, Note_off_c, 0, 57, 95
2, 422400, Note_on_c, 0, 60, 95
2, 423360, Note_off_c, 0, 60, 95
2, 423360, Note_on_c, 0, 65, 95
2, 424320, Note_off_c, 0, 65, 95
2, 424320, Note_on_c, 0, 60, 95
2, 425280, Note_off_c, 0, 60, 95
2, 425280, Note_on_c, 0, 62, 95
2, 426240, Note_off_c, 0, 62, 95
2, 426240, Note_on_c, 0, 43, 95
2, 427200, Note_off_c, 0, 43, 95
2, 427200, Note_on_c, 0, 55, 95
2, 428160, Note_off_c, 0, 55, 95
2, 428160, Note_on_c, 0, 62, 95
2, 429120, Note_off_c, 0, 62, 95
2, 429120, Note_on_c, 0, 65, 95
2, 430080, Note_off_c, 0, 65, 95
2, 430080, Note_on_c, 0, 60, 95
2, 431040, Note_off_c, 0, 60, 95
2, 431040, Note_on_c, 0, 62, 95
2, 432000, Note_off_c, 0, 62, 95
2, 437760, Note_on_c, 0, 48, 95
2, 438720, Note_off_c, 0, 48, 95
2, 438720, Note_on_c, 0, 55, 95
2, 439680, Note_off_c, 0, 55, 95
2, 439680, Note_on_c, 0, 60, 95
2, 440640, Note_off_c, 0, 60, 95
2, 440640, Note_on_c, 0, 64, 95
2, 441600, Note_off_c, 0, 64, 95
2, 441600, Note_on_c, 0, 55, 95
2, 442560, Note_off_c, 0, 55, 95
2, 442560, Note_on_c, 0, 60, 95
2, 443520, Note_off_c, 0, 60, 95
2, 443520, Note_on_c, 0, 41, 95
2, 444480, Note_off_c, 0, 41, 95
2, 444480, Note_on_c, 0, 57, 95
2, 445440, Note_off_c, 0, 57, 95
2, 445440, Note_on_c, 0, 60, 95
2, 446400, Note_off_c, 0, 60, 95
2, 446400, Note_on_c, 0, 65, 95
2, 447360, Note_off_c, 0, 65, 95
2, 447360, Note_on_c, 0, 57, 95
2, 448320, Note_off_c, 0, 57, 95
2, 448320, Note_on_c, 0, 60, 95
2, 449280, Note_off_c, 0, 60, 95
2, 449280, Note_on_c, 0, 41, 95
2, 450240, Note_off_c, 0, 41, 95
2, 450240, Note_on_c, 0, 57, 95
2, 451200, Note_off_c, 0, 57, 95
2, 451200, Note_on_c, 0, 60, 95
2, 452160, Note_off_c, 0, 60, 95
2, 452160, Note_on_c, 0, 65, 95
2, 453120, Note_off_c, 0, 65, 95
2, 453120, Note_on_c, 0, 57, 95
2, 454080, Note_off_c, 0, 57, 95
2, 454080, Note_on_c, 0, 62, 95
2, 455040, Note_off_c, 0, 62, 95
2, 455040, Note_on_c, 0, 50, 95
2, 456000, Note_off_c, 0, 50, 95
2, 456000, Note_on_c, 0, 57, 95
2, 456960, Note_off_c, 0, 57, 95
2, 456960, Note_on_c, 0, 60, 95
2, 457920, Note_off_c, 0, 60, 95
2, 457920, Note_on_c, 0, 65, 95
2, 458880, Note_off_c, 0, 65, 95
2, 458880, Note_on_c, 0, 60, 95
2, 459840, Note_off_c, 0, 60, 95
2, 459840, Note_on_c, 0, 62, 95
2, 460800, Note_off_c, 0, 62, 95
2, 460800, Note_on_c, 0, 50, 95
2, 461760, Note_off_c, 0, 50, 95
2, 461760, Note_on_c, 0, 57, 95
2, 462720, Note_off_c, 0, 57, 95
2, 462720, Note_on_c, 0, 60, 95
2, 463680, Note_off_c, 0, 60, 95
2, 463680, Note_on_c, 0, 65, 95
2, 464640, Note_off_c, 0, 65, 95
2, 464640, Note_on_c, 0, 60, 95
2, 465600, Note_off_c, 0, 60, 95
2, 465600, Note_on_c, 0, 62, 95
2, 466560, Note_off_c, 0, 62, 95
2, 466560, Note_on_c, 0, 43, 95
2, 467520, Note_off_c, 0, 43, 95
2, 467520, Note_on_c, 0, 55, 95
2, 468480, Note_off_c, 0, 55, 95
2, 468480, Note_on_c, 0, 62, 95
2, 469440, Note_off_c, 0, 62, 95
2, 469440, Note_on_c, 0, 65, 95
2, 470400, Note_off_c, 0, 65, 95
2, 470400, Note_on_c, 0, 60, 95
2, 471360, Note_off_c, 0, 60, 95
2, 471360, Note_on_c, 0, 62, 95
2, 472320, Note_off_c, 0, 62, 95
2, 472320, Note_on_c, 0, 43, 95
2, 473280, Note_off_c, 0, 43, 95
2, 473280, Note_on_c, 0, 55, 95
2, 474240, Note_off_c, 0, 55, 95
2, 474240, Note_on_c, 0, 62, 95
2, 475200, Note_off_c, 0, 62, 95
2, 475200, Note_on_c, 0, 65, 95
2, 476160, Note_off_c, 0, 65, 95
2, 476160, Note_on_c, 0, 60, 95
2, 477120, Note_off_c, 0, 60, 95
2, 477120, Note_on_c, 0, 62, 95
2, 478080, Note_off_c, 0, 62, 95
2, 478080, Note_on_c, 0, 48, 95
2, 479040, Note_off_c, 0, 48, 95
2, 479040, Note_on_c, 0, 55, 95
2, 480000, Note_off_c, 0, 55, 95
2, 480000, Note_on_c, 0, 60, 95
2, 480960, Note_off_c, 0, 60, 95
2, 480960, Note_on_c, 0, 64, 95
2, 481920, Note_off_c, 0, 64, 95
2, 481920, Note_on_c, 0, 55, 95
2, 482880, Note_off_c, 0, 55, 95
2, 482880, Note_on_c, 0, 60, 95
2, 483840, Note_off_c, 0, 60, 95
2, 483840, Note_on_c, 0, 48, 95
2, 484800, Note_off_c, 0, 48, 95
2, 484800, Note_on_c, 0, 55, 95
2, 485760, Note_off_c, 0, 55, 95
2, 485760, Note_on_c, 0, 60, 95
2, 486720, Note_off_c, 0, 60, 95
2, 486720, Note_on_c, 0, 64, 95
2, 487680, Note_off_c, 0, 64, 95
2, 487680, Note_on_c, 0, 55, 95
2, 488640, Note_off_c, 0, 55, 95
2, 488640, Note_on_c, 0, 60, 95
2, 489600, Note_off_c, 0, 60, 95
2, 489600, Note_on_c, 0, 41, 95
2, 490560, Note_off_c, 0, 41, 95
2, 490560, Note_on_c, 0, 57, 95
2, 491520, Note_off_c, 0, 57, 95
2, 491520, Note_on_c, 0, 60, 95
2, 492480, Note_off_c, 0, 60, 95
2, 492480, Note_on_c, 0, 65, 95
2, 493440, Note_off_c, 0, 65, 95
2, 493440, Note_on_c, 0, 57, 95
2, 494400, Note_off_c, 0, 57, 95
2, 494400, Note_on_c, 0, 60, 95
2, 495360, Note_off_c, 0, 60, 95
2, 495360, Note_on_c, 0, 41, 95
2, 496320, Note_off_c, 0, 41, 95
2, 496320, Note_on_c, 0, 57, 95
2, 497280, Note_off_c, 0, 57, 95
2, 497280, Note_on_c, 0, 60, 95
2, 498240, Note_off_c, 0, 60, 95
2, 498240, Note_on_c, 0, 65, 95
2, 499200, Note_off_c, 0, 65, 95
2, 499200, Note_on_c, 0, 57, 95
2, 500160, Note_off_c, 0, 57, 95
2, 500160, Note_on_c, 0, 62, 95
2, 501120, Note_off_c, 0, 62, 95
2, 501120, Note_on_c, 0, 50, 95
2, 502080, Note_off_c, 0, 50, 95
2, 502080, Note_on_c, 0, 57, 95
2, 503040, Note_off_c, 0, 57, 95
2, 503040, Note_on_c, 0, 60, 95
2, 504000, Note_off_c, 0, 60, 95
2, 504000, Note_on_c, 0, 65, 95
2, 504960, Note_off_c, 0, 65, 95
2, 504960, Note_on_c, 0, 60, 95
2, 505920, Note_off_c, 0, 60, 95
2, 505920, Note_on_c, 0, 62, 95
2, 506880, Note_off_c, 0, 62, 95
2, 506880, Note_on_c, 0, 50, 95
2, 507840, Note_off_c, 0, 50, 95
2, 507840, Note_on_c, 0, 57, 95
2, 508800, Note_off_c, 0, 57, 95
2, 508800, Note_on_c, 0, 60, 95
2, 509760, Note_off_c, 0, 60, 95
2, 509760, Note_on_c, 0, 65, 95
2, 510720, Note_off_c, 0, 65, 95
2, 510720, Note_on_c, 0, 60, 95
2, 511680, Note_off_c, 0, 60, 95
2, 511680, Note_on_c, 0, 62, 95
2, 512640, Note_off_c, 0, 62, 95
2, 512640, Note_on_c, 0, 43, 95
2, 513600, Note_off_c, 0, 43, 95
2, 513600, Note_on_c, 0, 55, 95
2, 514560, Note_off_c, 0, 55, 95
2, 514560, Note_on_c, 0, 62, 95
2, 515520, Note_off_c, 0, 62, 95
2, 515520, Note_on_c, 0, 65, 95
2, 516480, Note_off_c, 0, 65, 95
2, 516480, Note_on_c, 0, 60, 95
2, 517440, Note_off_c, 0, 60, 95
2, 517440, Note_on_c, 0, 62, 95
2, 518400, Note_off_c, 0, 62, 95
2, 518400, Note_on_c, 0, 43, 95
2, 519360, Note_off_c, 0, 43, 95
2, 519360, Note_on_c, 0, 55, 95
2, 520320, Note_off_c, 0, 55, 95
2, 520320, Note_on_c, 0, 62, 95
2, 521280, Note_off_c, 0, 62, 95
2, 521280, Note_on_c, 0, 65, 95
2, 522240, Note_off_c, 0, 65, 95
2, 522240, Note_on_c, 0, 60, 95
2, 523200, Note_off_c, 0, 60, 95
2, 523200, Note_on_c, 0, 62, 95
2, 524160, Note_off_c, 0, 62, 95
2, 524160, Note_on_c, 0, 45, 95
2, 525120, Note_off_c, 0, 45, 95
2, 525120, Note_on_c, 0, 57, 95
2, 526080, Note_off_c, 0, 57, 95
2, 526080, Note_on_c, 0, 60, 95
2, 527040, Note_off_c, 0, 60, 95
2, 527040, Note_on_c, 0, 64, 95
2, 528000, Note_off_c, 0, 64, 95
2, 528000, Note_on_c, 0, 57, 95
2, 528960, Note_off_c, 0, 57, 95
2, 528960, Note_on_c, 0, 60, 95
2, 529920, Note_off_c, 0, 60, 95
2, 529920, Note_on_c, 0, 45, 95
2, 530880, Note_off_c, 0, 45, 95
2, 530880, Note_on_c, 0, 57, 95
2, 531840, Note_off_c, 0, 57, 95
2, 531840, Note_on_c, 0, 60, 95
2, 532800, Note_off_c, 0, 60, 95
2, 532800, Note_on_c, 0, 64, 95
2, 533760, Note_off_c, 0, 64, 95
2, 533760, Note_on_c, 0, 57, 95
2, 534720, Note_off_c, 0, 57, 95
2, 534720, Note_on_c, 0, 60, 95
2, 535680, Note_off_c, 0, 60, 95
2, 535680, Note_on_c, 0, 50, 95
2, 536640, Note_off_c, 0, 50, 95
2, 536640, Note_on_c, 0, 60, 95
2, 537600, Note_off_c, 0, 60, 95
2, 537600, Note_on_c, 0, 62, 95
2, 538560, Note_off_c, 0, 62, 95
2, 538560, Note_on_c, 0, 69, 95
2, 539520, Note_off_c, 0, 69, 95
2, 539520, Note_on_c, 0, 60, 95
2, 540480, Note_off_c, 0, 60, 95
2, 540480, Note_on_c, 0, 62, 95
2, 541440, Note_off_c, 0, 62, 95
2, 541440, Note_on_c, 0, 50, 95
2, 542400, Note_off_c, 0, 50, 95
2, 542400, Note_on_c, 0, 60, 95
2, 543360, Note_off_c, 0, 60, 95
2, 543360, Note_on_c, 0, 62, 95
2, 544320, Note_off_c, 0, 62, 95
2, 544320, Note_on_c, 0, 69, 95
2, 545280, Note_off_c, 0, 69, 95
2, 545280, Note_on_c, 0, 60, 95
2, 546240, Note_off_c, 0, 60, 95
2, 546240, Note_on_c, 0, 62, 95
2, 547200, Note_off_c, 0, 62, 95
2, 547200, Note_on_c, 0, 43, 95
2, 548160, Note_off_c, 0, 43, 95
2, 548160, Note_on_c, 0, 60, 95
2, 549120, Note_off_c, 0, 60, 95
2, 549120, Note_on_c, 0, 62, 95
2, 550080, Note_off_c, 0, 62, 95
2, 550080, Note_on_c, 0, 69, 95
2, 551040, Note_off_c, 0, 69, 95
2, 551040, Note_on_c, 0, 60, 95
2, 552000, Note_off_c, 0, 60, 95
2, 552000, Note_on_c, 0, 62, 95
2, 552960, Note_off_c, 0, 62, 95
2, 552960, Note_on_c, 0, 43, 95
2, 553920, Note_off_c, 0, 43, 95
2, 553920, Note_on_c, 0, 59, 95
2, 554880, Note_off_c, 0, 59, 95
2, 554880, Note_on_c, 0, 62, 95
2, 555840, Note_off_c, 0, 62, 95
2, 555840, Note_on_c, 0, 69, 95
2, 556800, Note_off_c, 0, 69, 95
2, 556800, Note_on_c, 0, 59, 95
2, 557760, Note_off_c, 0, 59, 95
2, 557760, Note_on_c, 0, 62, 95
2, 558720, Note_off_c, 0, 62, 95
2, 558720, Note_on_c, 0, 41, 95
2, 559680, Note_off_c, 0, 41, 95
2, 559680, Note_on_c, 0, 57, 95
2, 560640, Note_off_c, 0, 57, 95
2, 560640, Note_on_c, 0, 60, 95
2, 561600, Note_off_c, 0, 60, 95
2, 561600, Note_on_c, 0, 65, 95
2, 562560, Note_off_c, 0, 65, 95
2, 562560, Note_on_c, 0, 57, 95
2, 563520, Note_off_c, 0, 57, 95
2, 563520, Note_on_c, 0, 60, 95
2, 564480, Note_off_c, 0, 60, 95
2, 564480, Note_on_c, 0, 41, 95
2, 565440, Note_off_c, 0, 41, 95
2, 565440, Note_on_c, 0, 57, 95
2, 566400, Note_off_c, 0, 57, 95
2, 566400, Note_on_c, 0, 60, 95
2, 567360, Note_off_c, 0, 60, 95
2, 567360, Note_on_c, 0, 65, 95
2, 568320, Note_off_c, 0, 65, 95
2, 568320, Note_on_c, 0, 57, 95
2, 569280, Note_off_c, 0, 57, 95
2, 569280, Note_on_c, 0, 60, 95
2, 570240, Note_off_c, 0, 60, 95
2, 570240, Note_on_c, 0, 41, 95
2, 571200, Note_off_c, 0, 41, 95
2, 571200, Note_on_c, 0, 57, 95
2, 572160, Note_off_c, 0, 57, 95
2, 572160, Note_on_c, 0, 60, 95
2, 573120, Note_off_c, 0, 60, 95
2, 573120, Note_on_c, 0, 65, 95
2, 574080, Note_off_c, 0, 65, 95
2, 574080, Note_on_c, 0, 57, 95
2, 575040, Note_off_c, 0, 57, 95
2, 575040, Note_on_c, 0, 60, 95
2, 576000, Note_off_c, 0, 60, 95
2, 576000, Note_on_c, 0, 41, 95
2, 576960, Note_off_c, 0, 41, 95
2, 576960, Note_on_c, 0, 57, 95
2, 577920, Note_off_c, 0, 57, 95
2, 577920, Note_on_c, 0, 60, 95
2, 578880, Note_off_c, 0, 60, 95
2, 578880, Note_on_c, 0, 65, 95
2, 579840, Note_off_c, 0, 65, 95
2, 579840, Note_on_c, 0, 57, 95
2, 580800, Note_off_c, 0, 57, 95
2, 580800, Note_on_c, 0, 60, 95
2, 581760, Note_off_c, 0, 60, 95
2, 581760, Note_on_c, 0, 48, 95
2, 582720, Note_off_c, 0, 48, 95
2, 582720, Note_on_c, 0, 55, 95
2, 583680, Note_off_c, 0, 55, 95
2, 583680, Note_on_c, 0, 60, 95
2, 584640, Note_off_c, 0, 60, 95
2, 584640, Note_on_c, 0, 64, 95
2, 585600, Note_off_c, 0, 64, 95
2, 585600, Note_on_c, 0, 55, 95
2, 586560, Note_off_c, 0, 55, 95
2, 586560, Note_on_c, 0, 60, 95
2, 587520, Note_off_c, 0, 60, 95
2, 587520, Note_on_c, 0, 48, 95
2, 588480, Note_off_c, 0, 48, 95
2, 588480, Note_on_c, 0, 55, 95
2, 589440, Note_off_c, 0, 55, 95
2, 589440, Note_on_c, 0, 60, 95
2, 590400, Note_off_c, 0, 60, 95
2, 590400, Note_on_c, 0, 64, 95
2, 591360, Note_off_c, 0, 64, 95
2, 591360, Note_on_c, 0, 55, 95
2, 592320, Note_off_c, 0, 55, 95
2, 592320, Note_on_c, 0, 60, 95
2, 593280, Note_off_c, 0, 60, 95
2, 593280, Note_on_c, 0, 41, 95
2, 594240, Note_off_c, 0, 41, 95
2, 594240, Note_on_c, 0, 57, 95
2, 595200, Note_off_c, 0, 57, 95
2, 595200, Note_on_c, 0, 60, 95
2, 596160, Note_off_c, 0, 60, 95
2, 596160, Note_on_c, 0, 65, 95
2, 597120, Note_off_c, 0, 65, 95
2, 597120, Note_on_c, 0, 57, 95
2, 598080, Note_off_c, 0, 57, 95
2, 598080, Note_on_c, 0, 60, 95
2, 599040, Note_off_c, 0, 60, 95
2, 599040, Note_on_c, 0, 41, 95
2, 600000, Note_off_c, 0, 41, 95
2, 600000, Note_on_c, 0, 57, 95
2, 600960, Note_off_c, 0, 57, 95
2, 600960, Note_on_c, 0, 60, 95
2, 601920, Note_off_c, 0, 60, 95
2, 601920, Note_on_c, 0, 65, 95
2, 602880, Note_off_c, 0, 65, 95
2, 602880, Note_on_c, 0, 57, 95
2, 603840, Note_off_c, 0, 57, 95
2, 603840, Note_on_c, 0, 62, 95
2, 604800, Note_off_c, 0, 62, 95
2, 604800, Note_on_c, 0, 50, 95
2, 605760, Note_off_c, 0, 50, 95
2, 605760, Note_on_c, 0, 57, 95
2, 606720, Note_off_c, 0, 57, 95
2, 606720, Note_on_c, 0, 60, 95
2, 607680, Note_off_c, 0, 60, 95
2, 607680, Note_on_c, 0, 65, 95
2, 608640, Note_off_c, 0, 65, 95
2, 608640, Note_on_c, 0, 60, 95
2, 609600, Note_off_c, 0, 60, 95
2, 609600, Note_on_c, 0, 62, 95
2, 610560, Note_off_c, 0, 62, 95
2, 610560, Note_on_c, 0, 50, 95
2, 611520, Note_off_c, 0, 50, 95
2, 611520, Note_on_c, 0, 57, 95
2, 612480, Note_off_c, 0, 57, 95
2, 612480, Note_on_c, 0, 60, 95
2, 613440, Note_off_c, 0, 60, 95
2, 613440, Note_on_c, 0, 65, 95
2, 614400, Note_off_c, 0, 65, 95
2, 614400, Note_on_c, 0, 60, 95
2, 615360, Note_off_c, 0, 60, 95
2, 615360, Note_on_c, 0, 62, 95
2, 616320, Note_off_c, 0, 62, 95
2, 616320, Note_on_c, 0, 43, 95
2, 617280, Note_off_c, 0, 43, 95
2, 617280, Note_on_c, 0, 55, 95
2, 618240, Note_off_c, 0, 55, 95
2, 618240, Note_on_c, 0, 62, 95
2, 619200, Note_off_c, 0, 62, 95
2, 619200, Note_on_c, 0, 65, 95
2, 620160, Note_off_c, 0, 65, 95
2, 620160, Note_on_c, 0, 60, 95
2, 621120, Note_off_c, 0, 60, 95
2, 621120, Note_on_c, 0, 62, 95
2, 622080, Note_off_c, 0, 62, 95
2, 622080, Note_on_c, 0, 43, 95
2, 623040, Note_off_c, 0, 43, 95
2, 623040, Note_on_c, 0, 55, 95
2, 624000, Note_off_c, 0, 55, 95
2, 624000, Note_on_c, 0, 62, 95
2, 624960, Note_off_c, 0, 62, 95
2, 624960, Note_on_c, 0, 65, 95
2, 625920, Note_off_c, 0, 65, 95
2, 625920, Note_on_c, 0, 60, 95
2, 626880, Note_off_c, 0, 60, 95
2, 626880, Note_on_c, 0, 62, 95
2, 627840, Note_off_c, 0, 62, 95
2, 627840, Note_on_c, 0, 48, 95
2, 628800, Note_off_c, 0, 48, 95
2, 628800, Note_on_c, 0, 55, 95
2, 629760, Note_off_c, 0, 55, 95
2, 629760, Note_on_c, 0, 60, 95
2, 630720, Note_off_c, 0, 60, 95
2, 630720, Note_on_c, 0, 64, 95
2, 631680, Note_off_c, 0, 64, 95
2, 631680, Note_on_c, 0, 55, 95
2, 632640, Note_off_c, 0, 55, 95
2, 632640, Note_on_c, 0, 60, 95
2, 633600, Note_off_c, 0, 60, 95
2, 633600, Note_on_c, 0, 48, 95
2, 634560, Note_off_c, 0, 48, 95
2, 634560, Note_on_c, 0, 55, 95
2, 635520, Note_off_c, 0, 55, 95
2, 635520, Note_on_c, 0, 60, 95
2, 636480, Note_off_c, 0, 60, 95
2, 636480, Note_on_c, 0, 64, 95
2, 637440, Note_off_c, 0, 64, 95
2, 637440, Note_on_c, 0, 55, 95
2, 638400, Note_off_c, 0, 55, 95
2, 638400, Note_on_c, 0, 60, 95
2, 639360, Note_off_c, 0, 60, 95
2, 639360, Note_on_c, 0, 41, 95
2, 640320, Note_off_c, 0, 41, 95
2, 640320, Note_on_c, 0, 57, 95
2, 641280, Note_off_c, 0, 57, 95
2, 641280, Note_on_c, 0, 60, 95
2, 642240, Note_off_c, 0, 60, 95
2, 642240, Note_on_c, 0, 65, 95
2, 643200, Note_off_c, 0, 65, 95
2, 643200, Note_on_c, 0, 57, 95
2, 644160, Note_off_c, 0, 57, 95
2, 644160, Note_on_c, 0, 60, 95
2, 645120, Note_off_c, 0, 60, 95
2, 645120, Note_on_c, 0, 41, 95
2, 646080, Note_off_c, 0, 41, 95
2, 646080, Note_on_c, 0, 57, 95
2, 647040, Note_off_c, 0, 57, 95
2, 647040, Note_on_c, 0, 60, 95
2, 648000, Note_off_c, 0, 60, 95
2, 648000, Note_on_c, 0, 65, 95
2, 648960, Note_off_c, 0, 65, 95
2, 648960, Note_on_c, 0, 57, 95
2, 649920, Note_off_c, 0, 57, 95
2, 649920, Note_on_c, 0, 62, 95
2, 650880, Note_off_c, 0, 62, 95
2, 650880, Note_on_c, 0, 50, 95
2, 651840, Note_off_c, 0, 50, 95
2, 651840, Note_on_c, 0, 57, 95
2, 652800, Note_off_c, 0, 57, 95
2, 652800, Note_on_c, 0, 60, 95
2, 653760, Note_off_c, 0, 60, 95
2, 653760, Note_on_c, 0, 65, 95
2, 654720, Note_off_c, 0, 65, 95
2, 654720, Note_on_c, 0, 60, 95
2, 655680, Note_off_c, 0, 60, 95
2, 655680, Note_on_c, 0, 62, 95
2, 656640, Note_off_c, 0, 62, 95
2, 656640, Note_on_c, 0, 50, 95
2, 657600, Note_off_c, 0, 50, 95
2, 657600, Note_on_c, 0, 57, 95
2, 658560, Note_off_c, 0, 57, 95
2, 658560, Note_on_c, 0, 60, 95
2, 659520, Note_off_c, 0, 60, 95
2, 659520, Note_on_c, 0, 65, 95
2, 660480, Note_off_c, 0, 65, 95
2, 660480, Note_on_c, 0, 60, 95
2, 661440, Note_off_c, 0, 60, 95
2, 661440, Note_on_c, 0, 62, 95
2, 662400, Note_off_c, 0, 62, 95
2, 662400, Note_on_c, 0, 43, 95
2, 663360, Note_off_c, 0, 43, 95
2, 663360, Note_on_c, 0, 55, 95
2, 664320, Note_off_c, 0, 55, 95
2, 664320, Note_on_c, 0, 62, 95
2, 665280, Note_off_c, 0, 62, 95
2, 665280, Note_on_c, 0, 65, 95
2, 666240, Note_off_c, 0, 65, 95
2, 666240, Note_on_c, 0, 60, 95
2, 667200, Note_off_c, 0, 60, 95
2, 667200, Note_on_c, 0, 62, 95
2, 668160, Note_off_c, 0, 62, 95
2, 668160, Note_on_c, 0, 45, 95
2, 669120, Note_off_c, 0, 45, 95
2, 669120, Note_on_c, 0, 57, 95
2, 670080, Note_off_c, 0, 57, 95
2, 670080, Note_on_c, 0, 60, 95
2, 671040, Note_off_c, 0, 60, 95
2, 671040, Note_on_c, 0, 64, 95
2, 672000, Note_off_c, 0, 64, 95
2, 672000, Note_on_c, 0, 57, 95
2, 672960, Note_off_c, 0, 57, 95
2, 672960, Note_on_c, 0, 60, 95
2, 673920, Note_off_c, 0, 60, 95
2, 673920, Note_on_c, 0, 45, 95
2, 674880, Note_off_c, 0, 45, 95
2, 674880, Note_on_c, 0, 57, 95
2, 675840, Note_off_c, 0, 57, 95
2, 675840, Note_on_c, 0, 60, 95
2, 676800, Note_off_c, 0, 60, 95
2, 676800, Note_on_c, 0, 64, 95
2, 677760, Note_off_c, 0, 64, 95
2, 677760, Note_on_c, 0, 57, 95
2, 678720, Note_off_c, 0, 57, 95
2, 678720, Note_on_c, 0, 60, 95
2, 679680, Note_off_c, 0, 60, 95
2, 679680, Note_on_c, 0, 50, 95
2, 680640, Note_off_c, 0, 50, 95
2, 680640, Note_on_c, 0, 60, 95
2, 681600, Note_off_c, 0, 60, 95
2, 681600, Note_on_c, 0, 62, 95
2, 682560, Note_off_c, 0, 62, 95
2, 682560, Note_on_c, 0, 69, 95
2, 683520, Note_off_c, 0, 69, 95
2, 683520, Note_on_c, 0, 60, 95
2, 684480, Note_off_c, 0, 60, 95
2, 684480, Note_on_c, 0, 62, 95
2, 685440, Note_off_c, 0, 62, 95
2, 685440, Note_on_c, 0, 50, 95
2, 686400, Note_off_c, 0, 50, 95
2, 686400, Note_on_c, 0, 60, 95
2, 687360, Note_off_c, 0, 60, 95
2, 687360, Note_on_c, 0, 62, 95
2, 688320, Note_off_c, 0, 62, 95
2, 688320, Note_on_c, 0, 69, 95
2, 689280, Note_off_c, 0, 69, 95
2, 689280, Note_on_c, 0, 60, 95
2, 690240, Note_off_c, 0, 60, 95
2, 690240, Note_on_c, 0, 62, 95
2, 691200, Note_off_c, 0, 62, 95
2, 691200, Note_on_c, 0, 43, 95
2, 692160, Note_off_c, 0, 43, 95
2, 692160, Note_on_c, 0, 60, 95
2, 693120, Note_off_c, 0, 60, 95
2, 693120, Note_on_c, 0, 62, 95
2, 694080, Note_off_c, 0, 62, 95
2, 694080, Note_on_c, 0, 69, 95
2, 695040, Note_off_c, 0, 69, 95
2, 695040, Note_on_c, 0, 60, 95
2, 696000, Note_off_c, 0, 60, 95
2, 696000, Note_on_c, 0, 62, 95
2, 696960, Note_off_c, 0, 62, 95
2, 696960, Note_on_c, 0, 43, 95
2, 697920, Note_off_c, 0, 43, 95
2, 697920, Note_on_c, 0, 59, 95
2, 698880, Note_off_c, 0, 59, 95
2, 698880, Note_on_c, 0, 62, 95
2, 699840, Note_off_c, 0, 62, 95
2, 699840, Note_on_c, 0, 69, 95
2, 700800, Note_off_c, 0, 69, 95
2, 700800, Note_on_c, 0, 59, 95
2, 701760, Note_off_c, 0, 59, 95
2, 701760, Note_on_c, 0, 62, 95
2, 702720, Note_off_c, 0, 62, 95
2, 702720, Note_on_c, 0, 41, 95
2, 703680, Note_off_c, 0, 41, 95
2, 703680, Note_on_c, 0, 57, 95
2, 704640, Note_off_c, 0, 57, 95
2, 704640, Note_on_c, 0, 60, 95
2, 705600, Note_off_c, 0, 60, 95
2, 705600, Note_on_c, 0, 65, 95
2, 706560, Note_off_c, 0, 65, 95
2, 706560, Note_on_c, 0, 57, 95
2, 707520, Note_off_c, 0, 57, 95
2, 707520, Note_on_c, 0, 60, 95
2, 708480, Note_off_c, 0, 60, 95
2, 708480, Note_on_c, 0, 41, 95
2, 709440, Note_off_c, 0, 41, 95
2, 709440, Note_on_c, 0, 57, 95
2, 710400, Note_off_c, 0, 57, 95
2, 710400, Note_on_c, 0, 60, 95
2, 711360, Note_off_c, 0, 60, 95
2, 711360, Note_on_c, 0, 65, 95
2, 712320, Note_off_c, 0, 65, 95
2, 712320, Note_on_c, 0, 57, 95
2, 713280, Note_off_c, 0, 57, 95
2, 713280, Note_on_c, 0, 60, 95
2, 714240, Note_off_c, 0, 60, 95
2, 714240, Note_on_c, 0, 41, 95
2, 715200, Note_off_c, 0, 41, 95
2, 715200, Note_on_c, 0, 57, 95
2, 716160, Note_off_c, 0, 57, 95
2, 716160, Note_on_c, 0, 60, 95
2, 717120, Note_off_c, 0, 60, 95
2, 717120, Note_on_c, 0, 65, 95
2, 718080, Note_off_c, 0, 65, 95
2, 718080, Note_on_c, 0, 57, 95
2, 719040, Note_off_c, 0, 57, 95
2, 719040, Note_on_c, 0, 60, 95
2, 720000, Note_off_c, 0, 60, 95
2, 720000, Note_on_c, 0, 41, 95
2, 720960, Note_off_c, 0, 41, 95
2, 720960, Note_on_c, 0, 57, 95
2, 721920, Note_off_c, 0, 57, 95
2, 721920, Note_on_c, 0, 60, 95
2, 722880, Note_off_c, 0, 60, 95
2, 722880, Note_on_c, 0, 65, 95
2, 723840, Note_off_c, 0, 65, 95
2, 723840, Note_on_c, 0, 57, 95
2, 724800, Note_off_c, 0, 57, 95
2, 724800, Note_on_c, 0, 60, 95
2, 725760, Note_off_c, 0, 60, 95
2, 728640, Note_on_c, 0, 64, 95
2, 728640, Note_on_c, 0, 55, 95
2, 731040, Note_off_c, 0, 64, 95
2, 731040, Note_off_c, 0, 55, 95
2, 731040, Note_on_c, 0, 65, 95
2, 731040, Note_on_c, 0, 57, 95
2, 731520, Note_off_c, 0, 65, 95
2, 731520, Note_off_c, 0, 57, 95
2, 731520, Note_on_c, 0, 64, 95
2, 731520, Note_on_c, 0, 55, 95
2, 731760, Note_off_c, 0, 64, 95
2, 731760, Note_off_c, 0, 55, 95
2, 731760, Note_on_c, 0, 62, 95
2, 731760, Note_on_c, 0, 53, 95
2, 732000, Note_off_c, 0, 62, 95
2, 732000, Note_off_c, 0, 53, 95
2, 732000, Note_on_c, 0, 60, 95
2, 732000, Note_on_c, 0, 52, 95
2, 737280, Note_off_c, 0, 60, 95
2, 737280, Note_off_c, 0, 52, 95
2, 737280, End_track
3, 0, Start_track
3, 0, Pitch_bend_c, 9, 8192
3, 0, Control_c, 9, 7, 103
3, 0, Control_c, 9, 10, 63
3, 0, Control_c, 9, 93, 0
3, 0, Control_c, 9, 91, 0
3, 0, Control_c, 9, 95, 0
3, 0, Control_c, 9, 92, 0
3, 0, Control_c, 9, 11, 127
3, 0, Program_c, 9, 0
3, 0, Note_on_c, 9, 80, 95
3, 0, Note_on_c, 9, 36, 95
3, 0, Note_on_c, 9, 44, 95
3, 960, Note_off_c, 9, 80, 95
3, 960, Note_off_c, 9, 36, 95
3, 960, Note_off_c, 9, 44, 95
3, 960, Note_on_c, 9, 44, 95
3, 1920, Note_off_c, 9, 44, 95
3, 1920, Note_on_c, 9, 44, 95
3, 2880, Note_off_c, 9, 44, 95
3, 2880, Note_on_c, 9, 80, 95
3, 2880, Note_on_c, 9, 40, 95
3, 2880, Note_on_c, 9, 38, 95
3, 2880, Note_on_c, 9, 44, 95
3, 3840, Note_off_c, 9, 80, 95
3, 3840, Note_off_c, 9, 40, 95
3, 3840, Note_off_c, 9, 38, 95
3, 3840, Note_off_c, 9, 44, 95
3, 3840, Note_on_c, 9, 44, 95
3, 4800, Note_off_c, 9, 44, 95
3, 4800, Note_on_c, 9, 36, 95
3, 4800, Note_on_c, 9, 44, 95
3, 5760, Note_off_c, 9, 36, 95
3, 5760, Note_off_c, 9, 44, 95
3, 5760, Note_on_c, 9, 36, 95
3, 5760, Note_on_c, 9, 44, 95
3, 6720, Note_off_c, 9, 36, 95
3, 6720, Note_off_c, 9, 44, 95
3, 6720, Note_on_c, 9, 44, 95
3, 7680, Note_off_c, 9, 44, 95
3, 7680, Note_on_c, 9, 44, 95
3, 8640, Note_off_c, 9, 44, 95
3, 8640, Note_on_c, 9, 40, 95
3, 8640, Note_on_c, 9, 38, 95
3, 8640, Note_on_c, 9, 44, 95
3, 9600, Note_off_c, 9, 40, 95
3, 9600, Note_off_c, 9, 38, 95
3, 9600, Note_off_c, 9, 44, 95
3, 9600, Note_on_c, 9, 44, 95
3, 10560, Note_off_c, 9, 44, 95
3, 10560, Note_on_c, 9, 36, 95
3, 10560, Note_on_c, 9, 44, 95
3, 11520, Note_off_c, 9, 36, 95
3, 11520, Note_off_c, 9, 44, 95
3, 11520, Note_on_c, 9, 36, 95
3, 11520, Note_on_c, 9, 44, 95
3, 12480, Note_off_c, 9, 36, 95
3, 12480, Note_off_c, 9, 44, 95
3, 12480, Note_on_c, 9, 44, 95
3, 13440, Note_off_c, 9, 44, 95
3, 13440, Note_on_c, 9, 44, 95
3, 14400, Note_off_c, 9, 44, 95
3, 14400, Note_on_c, 9, 40, 95
3, 14400, Note_on_c, 9, 38, 95
3, 14400, Note_on_c, 9, 44, 95
3, 15360, Note_off_c, 9, 40, 95
3, 15360, Note_off_c, 9, 38, 95
3, 15360, Note_off_c, 9, 44, 95
3, 15360, Note_on_c, 9, 44, 95
3, 16320, Note_off_c, 9, 44, 95
3, 16320, Note_on_c, 9, 36, 95
3, 16320, Note_on_c, 9, 44, 95
3, 17280, Note_off_c, 9, 36, 95
3, 17280, Note_off_c, 9, 44, 95
3, 17280, Note_on_c, 9, 36, 95
3, 17280, Note_on_c, 9, 44, 95
3, 18240, Note_off_c, 9, 36, 95
3, 18240, Note_off_c, 9, 44, 95
3, 18240, Note_on_c, 9, 44, 95
3, 19200, Note_off_c, 9, 44, 95
3, 19200, Note_on_c, 9, 44, 95
3, 20160, Note_off_c, 9, 44, 95
3, 20160, Note_on_c, 9, 40, 95
3, 20160, Note_on_c, 9, 38, 95
3, 20160, Note_on_c, 9, 44, 95
3, 21120, Note_off_c, 9, 40, 95
3, 21120, Note_off_c, 9, 38, 95
3, 21120, Note_off_c, 9, 44, 95
3, 21120, Note_on_c, 9, 44, 95
3, 22080, Note_off_c, 9, 44, 95
3, 22080, Note_on_c, 9, 36, 95
3, 22080, Note_on_c, 9, 44, 95
3, 23040, Note_off_c, 9, 36, 95
3, 23040, Note_off_c, 9, 44, 95
3, 23040, Note_on_c, 9, 36, 95
3, 23040, Note_on_c, 9, 44, 95
3, 24000, Note_off_c, 9, 36, 95
3, 24000, Note_off_c, 9, 44, 95
3, 24000, Note_on_c, 9, 44, 95
3, 24960, Note_off_c, 9, 44, 95
3, 24960, Note_on_c, 9, 44, 95
3, 25920, Note_off_c, 9, 44, 95
3, 25920, Note_on_c, 9, 40, 95
3, 25920, Note_on_c, 9, 38, 95
3, 25920, Note_on_c, 9, 44, 95
3, 26880, Note_off_c, 9, 40, 95
3, 26880, Note_off_c, 9, 38, 95
3, 26880, Note_off_c, 9, 44, 95
3, 26880, Note_on_c, 9, 44, 95
3, 27840, Note_off_c, 9, 44, 95
3, 27840, Note_on_c, 9, 36, 95
3, 27840, Note_on_c, 9, 44, 95
3, 28800, Note_off_c, 9, 36, 95
3, 28800, Note_off_c, 9, 44, 95
3, 28800, Note_on_c, 9, 36, 95
3, 28800, Note_on_c, 9, 44, 95
3, 29760, Note_off_c, 9, 36, 95
3, 29760, Note_off_c, 9, 44, 95
3, 29760, Note_on_c, 9, 44, 95
3, 30720, Note_off_c, 9, 44, 95
3, 30720, Note_on_c, 9, 44, 95
3, 31680, Note_off_c, 9, 44, 95
3, 31680, Note_on_c, 9, 40, 95
3, 31680, Note_on_c, 9, 38, 95
3, 31680, Note_on_c, 9, 44, 95
3, 32640, Note_off_c, 9, 40, 95
3, 32640, Note_off_c, 9, 38, 95
3, 32640, Note_off_c, 9, 44, 95
3, 32640, Note_on_c, 9, 44, 95
3, 33600, Note_off_c, 9, 44, 95
3, 33600, Note_on_c, 9, 36, 95
3, 33600, Note_on_c, 9, 44, 95
3, 34560, Note_off_c, 9, 36, 95
3, 34560, Note_off_c, 9, 44, 95
3, 34560, Note_on_c, 9, 36, 95
3, 34560, Note_on_c, 9, 44, 95
3, 35520, Note_off_c, 9, 36, 95
3, 35520, Note_off_c, 9, 44, 95
3, 35520, Note_on_c, 9, 44, 95
3, 36480, Note_off_c, 9, 44, 95
3, 36480, Note_on_c, 9, 44, 95
3, 37440, Note_off_c, 9, 44, 95
3, 37440, Note_on_c, 9, 40, 95
3, 37440, Note_on_c, 9, 38, 95
3, 37440, Note_on_c, 9, 44, 95
3, 38400, Note_off_c, 9, 40, 95
3, 38400, Note_off_c, 9, 38, 95
3, 38400, Note_off_c, 9, 44, 95
3, 38400, Note_on_c, 9, 44, 95
3, 39360, Note_off_c, 9, 44, 95
3, 39360, Note_on_c, 9, 36, 95
3, 39360, Note_on_c, 9, 44, 95
3, 40320, Note_off_c, 9, 36, 95
3, 40320, Note_off_c, 9, 44, 95
3, 40320, Note_on_c, 9, 36, 95
3, 40320, Note_on_c, 9, 44, 95
3, 41280, Note_off_c, 9, 36, 95
3, 41280, Note_off_c, 9, 44, 95
3, 41280, Note_on_c, 9, 44, 95
3, 42240, Note_off_c, 9, 44, 95
3, 42240, Note_on_c, 9, 44, 95
3, 43200, Note_off_c, 9, 44, 95
3, 43200, Note_on_c, 9, 40, 95
3, 43200, Note_on_c, 9, 38, 95
3, 43200, Note_on_c, 9, 44, 95
3, 44160, Note_off_c, 9, 40, 95
3, 44160, Note_off_c, 9, 38, 95
3, 44160, Note_off_c, 9, 44, 95
3, 44160, Note_on_c, 9, 44, 95
3, 45120, Note_off_c, 9, 44, 95
3, 45120, Note_on_c, 9, 36, 95
3, 45120, Note_on_c, 9, 44, 95
3, 46080, Note_off_c, 9, 36, 95
3, 46080, Note_off_c, 9, 44, 95
3, 46080, Note_on_c, 9, 36, 95
3, 46080, Note_on_c, 9, 44, 95
3, 47040, Note_off_c, 9, 36, 95
3, 47040, Note_off_c, 9, 44, 95
3, 47040, Note_on_c, 9, 44, 95
3, 48000, Note_off_c, 9, 44, 95
3, 48000, Note_on_c, 9, 44, 95
3, 48960, Note_off_c, 9, 44, 95
3, 48960, Note_on_c, 9, 40, 95
3, 48960, Note_on_c, 9, 38, 95
3, 48960, Note_on_c, 9, 44, 95
3, 49920, Note_off_c, 9, 40, 95
3, 49920, Note_off_c, 9, 38, 95
3, 49920, Note_off_c, 9, 44, 95
3, 49920, Note_on_c, 9, 44, 95
3, 50880, Note_off_c, 9, 44, 95
3, 50880, Note_on_c, 9, 36, 95
3, 50880, Note_on_c, 9, 44, 95
3, 51840, Note_off_c, 9, 36, 95
3, 51840, Note_off_c, 9, 44, 95
3, 51840, Note_on_c, 9, 36, 95
3, 51840, Note_on_c, 9, 44, 95
3, 52800, Note_off_c, 9, 36, 95
3, 52800, Note_off_c, 9, 44, 95
3, 52800, Note_on_c, 9, 44, 95
3, 53760, Note_off_c, 9, 44, 95
3, 53760, Note_on_c, 9, 44, 95
3, 54720, Note_off_c, 9, 44, 95
3, 54720, Note_on_c, 9, 40, 95
3, 54720, Note_on_c, 9, 38, 95
3, 54720, Note_on_c, 9, 44, 95
3, 55680, Note_off_c, 9, 40, 95
3, 55680, Note_off_c, 9, 38, 95
3, 55680, Note_off_c, 9, 44, 95
3, 55680, Note_on_c, 9, 44, 95
3, 56640, Note_off_c, 9, 44, 95
3, 56640, Note_on_c, 9, 36, 95
3, 56640, Note_on_c, 9, 44, 95
3, 57600, Note_off_c, 9, 36, 95
3, 57600, Note_off_c, 9, 44, 95
3, 57600, Note_on_c, 9, 36, 95
3, 57600, Note_on_c, 9, 44, 95
3, 58560, Note_off_c, 9, 36, 95
3, 58560, Note_off_c, 9, 44, 95
3, 58560, Note_on_c, 9, 44, 95
3, 59520, Note_off_c, 9, 44, 95
3, 59520, Note_on_c, 9, 44, 95
3, 60480, Note_off_c, 9, 44, 95
3, 60480, Note_on_c, 9, 40, 95
3, 60480, Note_on_c, 9, 38, 95
3, 60480, Note_on_c, 9, 44, 95
3, 61440, Note_off_c, 9, 40, 95
3, 61440, Note_off_c, 9, 38, 95
3, 61440, Note_off_c, 9, 44, 95
3, 61440, Note_on_c, 9, 44, 95
3, 62400, Note_off_c, 9, 44, 95
3, 62400, Note_on_c, 9, 36, 95
3, 62400, Note_on_c, 9, 44, 95
3, 63360, Note_off_c, 9, 36, 95
3, 63360, Note_off_c, 9, 44, 95
3, 63360, Note_on_c, 9, 36, 95
3, 63360, Note_on_c, 9, 44, 95
3, 64320, Note_off_c, 9, 36, 95
3, 64320, Note_off_c, 9, 44, 95
3, 64320, Note_on_c, 9, 44, 95
3, 65280, Note_off_c, 9, 44, 95
3, 65280, Note_on_c, 9, 44, 95
3, 66240, Note_off_c, 9, 44, 95
3, 66240, Note_on_c, 9, 40, 95
3, 66240, Note_on_c, 9, 38, 95
3, 66240, Note_on_c, 9, 44, 95
3, 67200, Note_off_c, 9, 40, 95
3, 67200, Note_off_c, 9, 38, 95
3, 67200, Note_off_c, 9, 44, 95
3, 67200, Note_on_c, 9, 44, 95
3, 68160, Note_off_c, 9, 44, 95
3, 68160, Note_on_c, 9, 36, 95
3, 68160, Note_on_c, 9, 44, 95
3, 69120, Note_off_c, 9, 36, 95
3, 69120, Note_off_c, 9, 44, 95
3, 69120, Note_on_c, 9, 36, 95
3, 69120, Note_on_c, 9, 44, 95
3, 70080, Note_off_c, 9, 36, 95
3, 70080, Note_off_c, 9, 44, 95
3, 70080, Note_on_c, 9, 44, 95
3, 71040, Note_off_c, 9, 44, 95
3, 71040, Note_on_c, 9, 44, 95
3, 72000, Note_off_c, 9, 44, 95
3, 72000, Note_on_c, 9, 40, 95
3, 72000, Note_on_c, 9, 38, 95
3, 72000, Note_on_c, 9, 44, 95
3, 72960, Note_off_c, 9, 40, 95
3, 72960, Note_off_c, 9, 38, 95
3, 72960, Note_off_c, 9, 44, 95
3, 72960, Note_on_c, 9, 44, 95
3, 73920, Note_off_c, 9, 44, 95
3, 73920, Note_on_c, 9, 36, 95
3, 73920, Note_on_c, 9, 44, 95
3, 74880, Note_off_c, 9, 36, 95
3, 74880, Note_off_c, 9, 44, 95
3, 74880, Note_on_c, 9, 36, 95
3, 74880, Note_on_c, 9, 44, 95
3, 75840, Note_off_c, 9, 36, 95
3, 75840, Note_off_c, 9, 44, 95
3, 75840, Note_on_c, 9, 44, 95
3, 76800, Note_off_c, 9, 44, 95
3, 76800, Note_on_c, 9, 44, 95
3, 77760, Note_off_c, 9, 44, 95
3, 77760, Note_on_c, 9, 40, 95
3, 77760, Note_on_c, 9, 38, 95
3, 77760, Note_on_c, 9, 44, 95
3, 78720, Note_off_c, 9, 40, 95
3, 78720, Note_off_c, 9, 38, 95
3, 78720, Note_off_c, 9, 44, 95
3, 78720, Note_on_c, 9, 44, 95
3, 79680, Note_off_c, 9, 44, 95
3, 79680, Note_on_c, 9, 36, 95
3, 79680, Note_on_c, 9, 44, 95
3, 80640, Note_off_c, 9, 36, 95
3, 80640, Note_off_c, 9, 44, 95
3, 80640, Note_on_c, 9, 36, 95
3, 80640, Note_on_c, 9, 44, 95
3, 81600, Note_off_c, 9, 36, 95
3, 81600, Note_off_c, 9, 44, 95
3, 81600, Note_on_c, 9, 44, 95
3, 82560, Note_off_c, 9, 44, 95
3, 82560, Note_on_c, 9, 44, 95
3, 83520, Note_off_c, 9, 44, 95
3, 83520, Note_on_c, 9, 40, 95
3, 83520, Note_on_c, 9, 38, 95
3, 83520, Note_on_c, 9, 44, 95
3, 84480, Note_off_c, 9, 40, 95
3, 84480, Note_off_c, 9, 38, 95
3, 84480, Note_off_c, 9, 44, 95
3, 84480, Note_on_c, 9, 44, 95
3, 85440, Note_off_c, 9, 44, 95
3, 85440, Note_on_c, 9, 36, 95
3, 85440, Note_on_c, 9, 44, 95
3, 86400, Note_off_c, 9, 36, 95
3, 86400, Note_off_c, 9, 44, 95
3, 86400, Note_on_c, 9, 36, 95
3, 86400, Note_on_c, 9, 44, 95
3, 87360, Note_off_c, 9, 36, 95
3, 87360, Note_off_c, 9, 44, 95
3, 87360, Note_on_c, 9, 44, 95
3, 88320, Note_off_c, 9, 44, 95
3, 88320, Note_on_c, 9, 44, 95
3, 89280, Note_off_c, 9, 44, 95
3, 89280, Note_on_c, 9, 40, 95
3, 89280, Note_on_c, 9, 38, 95
3, 89280, Note_on_c, 9, 44, 95
3, 90240, Note_off_c, 9, 40, 95
3, 90240, Note_off_c, 9, 38, 95
3, 90240, Note_off_c, 9, 44, 95
3, 90240, Note_on_c, 9, 44, 95
3, 91200, Note_off_c, 9, 44, 95
3, 91200, Note_on_c, 9, 36, 95
3, 91200, Note_on_c, 9, 44, 95
3, 92160, Note_off_c, 9, 36, 95
3, 92160, Note_off_c, 9, 44, 95
3, 92160, Note_on_c, 9, 36, 95
3, 92160, Note_on_c, 9, 44, 95
3, 93120, Note_off_c, 9, 36, 95
3, 93120, Note_off_c, 9, 44, 95
3, 93120, Note_on_c, 9, 44, 95
3, 94080, Note_off_c, 9, 44, 95
3, 94080, Note_on_c, 9, 44, 95
3, 95040, Note_off_c, 9, 44, 95
3, 95040, Note_on_c, 9, 40, 95
3, 95040, Note_on_c, 9, 38, 95
3, 95040, Note_on_c, 9, 44, 95
3, 96000, Note_off_c, 9, 40, 95
3, 96000, Note_off_c, 9, 38, 95
3, 96000, Note_off_c, 9, 44, 95
3, 96000, Note_on_c, 9, 44, 95
3, 96960, Note_off_c, 9, 44, 95
3, 96960, Note_on_c, 9, 36, 95
3, 96960, Note_on_c, 9, 44, 95
3, 97920, Note_off_c, 9, 36, 95
3, 97920, Note_off_c, 9, 44, 95
3, 97920, Note_on_c, 9, 36, 95
3, 97920, Note_on_c, 9, 44, 95
3, 98880, Note_off_c, 9, 36, 95
3, 98880, Note_off_c, 9, 44, 95
3, 98880, Note_on_c, 9, 44, 95
3, 99840, Note_off_c, 9, 44, 95
3, 99840, Note_on_c, 9, 44, 95
3, 100800, Note_off_c, 9, 44, 95
3, 100800, Note_on_c, 9, 40, 95
3, 100800, Note_on_c, 9, 38, 95
3, 100800, Note_on_c, 9, 44, 95
3, 101760, Note_off_c, 9, 40, 95
3, 101760, Note_off_c, 9, 38, 95
3, 101760, Note_off_c, 9, 44, 95
3, 101760, Note_on_c, 9, 44, 95
3, 102720, Note_off_c, 9, 44, 95
3, 102720, Note_on_c, 9, 36, 95
3, 102720, Note_on_c, 9, 44, 95
3, 103680, Note_off_c, 9, 36, 95
3, 103680, Note_off_c, 9, 44, 95
3, 103680, Note_on_c, 9, 36, 95
3, 103680, Note_on_c, 9, 44, 95
3, 104640, Note_off_c, 9, 36, 95
3, 104640, Note_off_c, 9, 44, 95
3, 104640, Note_on_c, 9, 44, 95
3, 105600, Note_off_c, 9, 44, 95
3, 105600, Note_on_c, 9, 44, 95
3, 106560, Note_off_c, 9, 44, 95
3, 106560, Note_on_c, 9, 40, 95
3, 106560, Note_on_c, 9, 38, 95
3, 106560, Note_on_c, 9, 44, 95
3, 107520, Note_off_c, 9, 40, 95
3, 107520, Note_off_c, 9, 38, 95
3, 107520, Note_off_c, 9, 44, 95
3, 107520, Note_on_c, 9, 44, 95
3, 108480, Note_off_c, 9, 44, 95
3, 108480, Note_on_c, 9, 36, 95
3, 108480, Note_on_c, 9, 44, 95
3, 109440, Note_off_c, 9, 36, 95
3, 109440, Note_off_c, 9, 44, 95
3, 109440, Note_on_c, 9, 36, 95
3, 109440, Note_on_c, 9, 44, 95
3, 110400, Note_off_c, 9, 36, 95
3, 110400, Note_off_c, 9, 44, 95
3, 110400, Note_on_c, 9, 44, 95
3, 111360, Note_off_c, 9, 44, 95
3, 111360, Note_on_c, 9, 44, 95
3, 112320, Note_off_c, 9, 44, 95
3, 112320, Note_on_c, 9, 40, 95
3, 112320, Note_on_c, 9, 38, 95
3, 112320, Note_on_c, 9, 44, 95
3, 113280, Note_off_c, 9, 40, 95
3, 113280, Note_off_c, 9, 38, 95
3, 113280, Note_off_c, 9, 44, 95
3, 113280, Note_on_c, 9, 44, 95
3, 114240, Note_off_c, 9, 44, 95
3, 114240, Note_on_c, 9, 36, 95
3, 114240, Note_on_c, 9, 44, 95
3, 115200, Note_off_c, 9, 36, 95
3, 115200, Note_off_c, 9, 44, 95
3, 115200, Note_on_c, 9, 36, 95
3, 115200, Note_on_c, 9, 44, 95
3, 116160, Note_off_c, 9, 36, 95
3, 116160, Note_off_c, 9, 44, 95
3, 116160, Note_on_c, 9, 44, 95
3, 117120, Note_off_c, 9, 44, 95
3, 117120, Note_on_c, 9, 44, 95
3, 118080, Note_off_c, 9, 44, 95
3, 118080, Note_on_c, 9, 40, 95
3, 118080, Note_on_c, 9, 38, 95
3, 118080, Note_on_c, 9, 44, 95
3, 119040, Note_off_c, 9, 40, 95
3, 119040, Note_off_c, 9, 38, 95
3, 119040, Note_off_c, 9, 44, 95
3, 119040, Note_on_c, 9, 44, 95
3, 120000, Note_off_c, 9, 44, 95
3, 120000, Note_on_c, 9, 36, 95
3, 120000, Note_on_c, 9, 44, 95
3, 120960, Note_off_c, 9, 36, 95
3, 120960, Note_off_c, 9, 44, 95
3, 120960, Note_on_c, 9, 36, 95
3, 120960, Note_on_c, 9, 44, 95
3, 121920, Note_off_c, 9, 36, 95
3, 121920, Note_off_c, 9, 44, 95
3, 121920, Note_on_c, 9, 44, 95
3, 122880, Note_off_c, 9, 44, 95
3, 122880, Note_on_c, 9, 44, 95
3, 123840, Note_off_c, 9, 44, 95
3, 123840, Note_on_c, 9, 40, 95
3, 123840, Note_on_c, 9, 38, 95
3, 123840, Note_on_c, 9, 44, 95
3, 124800, Note_off_c, 9, 40, 95
3, 124800, Note_off_c, 9, 38, 95
3, 124800, Note_off_c, 9, 44, 95
3, 124800, Note_on_c, 9, 44, 95
3, 125760, Note_off_c, 9, 44, 95
3, 125760, Note_on_c, 9, 36, 95
3, 125760, Note_on_c, 9, 44, 95
3, 126720, Note_off_c, 9, 36, 95
3, 126720, Note_off_c, 9, 44, 95
3, 126720, Note_on_c, 9, 36, 95
3, 126720, Note_on_c, 9, 44, 95
3, 127680, Note_off_c, 9, 36, 95
3, 127680, Note_off_c, 9, 44, 95
3, 127680, Note_on_c, 9, 44, 95
3, 128640, Note_off_c, 9, 44, 95
3, 128640, Note_on_c, 9, 44, 95
3, 129600, Note_off_c, 9, 44, 95
3, 129600, Note_on_c, 9, 40, 95
3, 129600, Note_on_c, 9, 38, 95
3, 129600, Note_on_c, 9, 44, 95
3, 130560, Note_off_c, 9, 40, 95
3, 130560, Note_off_c, 9, 38, 95
3, 130560, Note_off_c, 9, 44, 95
3, 130560, Note_on_c, 9, 44, 95
3, 131520, Note_off_c, 9, 44, 95
3, 131520, Note_on_c, 9, 36, 95
3, 131520, Note_on_c, 9, 44, 95
3, 132480, Note_off_c, 9, 36, 95
3, 132480, Note_off_c, 9, 44, 95
3, 132480, Note_on_c, 9, 36, 95
3, 132480, Note_on_c, 9, 44, 95
3, 133440, Note_off_c, 9, 36, 95
3, 133440, Note_off_c, 9, 44, 95
3, 133440, Note_on_c, 9, 44, 95
3, 134400, Note_off_c, 9, 44, 95
3, 134400, Note_on_c, 9, 44, 95
3, 135360, Note_off_c, 9, 44, 95
3, 135360, Note_on_c, 9, 40, 95
3, 135360, Note_on_c, 9, 38, 95
3, 135360, Note_on_c, 9, 44, 95
3, 136320, Note_off_c, 9, 40, 95
3, 136320, Note_off_c, 9, 38, 95
3, 136320, Note_off_c, 9, 44, 95
3, 136320, Note_on_c, 9, 44, 95
3, 137280, Note_off_c, 9, 44, 95
3, 137280, Note_on_c, 9, 36, 95
3, 137280, Note_on_c, 9, 44, 95
3, 138240, Note_off_c, 9, 36, 95
3, 138240, Note_off_c, 9, 44, 95
3, 138240, Note_on_c, 9, 36, 95
3, 138240, Note_on_c, 9, 44, 95
3, 139200, Note_off_c, 9, 36, 95
3, 139200, Note_off_c, 9, 44, 95
3, 139200, Note_on_c, 9, 44, 95
3, 140160, Note_off_c, 9, 44, 95
3, 140160, Note_on_c, 9, 44, 95
3, 141120, Note_off_c, 9, 44, 95
3, 141120, Note_on_c, 9, 40, 95
3, 141120, Note_on_c, 9, 38, 95
3, 141120, Note_on_c, 9, 44, 95
3, 142080, Note_off_c, 9, 40, 95
3, 142080, Note_off_c, 9, 38, 95
3, 142080, Note_off_c, 9, 44, 95
3, 142080, Note_on_c, 9, 44, 95
3, 143040, Note_off_c, 9, 44, 95
3, 143040, Note_on_c, 9, 36, 95
3, 143040, Note_on_c, 9, 44, 95
3, 144000, Note_off_c, 9, 36, 95
3, 144000, Note_off_c, 9, 44, 95
3, 144000, Note_on_c, 9, 36, 95
3, 144000, Note_on_c, 9, 44, 95
3, 144960, Note_off_c, 9, 36, 95
3, 144960, Note_off_c, 9, 44, 95
3, 144960, Note_on_c, 9, 44, 95
3, 145920, Note_off_c, 9, 44, 95
3, 145920, Note_on_c, 9, 44, 95
3, 146880, Note_off_c, 9, 44, 95
3, 146880, Note_on_c, 9, 40, 95
3, 146880, Note_on_c, 9, 38, 95
3, 146880, Note_on_c, 9, 44, 95
3, 147840, Note_off_c, 9, 40, 95
3, 147840, Note_off_c, 9, 38, 95
3, 147840, Note_off_c, 9, 44, 95
3, 147840, Note_on_c, 9, 44, 95
3, 148800, Note_off_c, 9, 44, 95
3, 148800, Note_on_c, 9, 36, 95
3, 148800, Note_on_c, 9, 44, 95
3, 149760, Note_off_c, 9, 36, 95
3, 149760, Note_off_c, 9, 44, 95
3, 149760, Note_on_c, 9, 36, 95
3, 149760, Note_on_c, 9, 44, 95
3, 150720, Note_off_c, 9, 36, 95
3, 150720, Note_off_c, 9, 44, 95
3, 150720, Note_on_c, 9, 44, 95
3, 151680, Note_off_c, 9, 44, 95
3, 151680, Note_on_c, 9, 44, 95
3, 152640, Note_off_c, 9, 44, 95
3, 152640, Note_on_c, 9, 40, 95
3, 152640, Note_on_c, 9, 38, 95
3, 152640, Note_on_c, 9, 44, 95
3, 153600, Note_off_c, 9, 40, 95
3, 153600, Note_off_c, 9, 38, 95
3, 153600, Note_off_c, 9, 44, 95
3, 153600, Note_on_c, 9, 44, 95
3, 154560, Note_off_c, 9, 44, 95
3, 154560, Note_on_c, 9, 36, 95
3, 154560, Note_on_c, 9, 44, 95
3, 155520, Note_off_c, 9, 36, 95
3, 155520, Note_off_c, 9, 44, 95
3, 155520, Note_on_c, 9, 36, 95
3, 155520, Note_on_c, 9, 44, 95
3, 156480, Note_off_c, 9, 36, 95
3, 156480, Note_off_c, 9, 44, 95
3, 156480, Note_on_c, 9, 44, 95
3, 157440, Note_off_c, 9, 44, 95
3, 157440, Note_on_c, 9, 44, 95
3, 158400, Note_off_c, 9, 44, 95
3, 158400, Note_on_c, 9, 40, 95
3, 158400, Note_on_c, 9, 38, 95
3, 158400, Note_on_c, 9, 44, 95
3, 159360, Note_off_c, 9, 40, 95
3, 159360, Note_off_c, 9, 38, 95
3, 159360, Note_off_c, 9, 44, 95
3, 159360, Note_on_c, 9, 44, 95
3, 160320, Note_off_c, 9, 44, 95
3, 160320, Note_on_c, 9, 36, 95
3, 160320, Note_on_c, 9, 44, 95
3, 161280, Note_off_c, 9, 36, 95
3, 161280, Note_off_c, 9, 44, 95
3, 161280, Note_on_c, 9, 36, 95
3, 161280, Note_on_c, 9, 44, 95
3, 162240, Note_off_c, 9, 36, 95
3, 162240, Note_off_c, 9, 44, 95
3, 162240, Note_on_c, 9, 44, 95
3, 163200, Note_off_c, 9, 44, 95
3, 163200, Note_on_c, 9, 44, 95
3, 164160, Note_off_c, 9, 44, 95
3, 164160, Note_on_c, 9, 40, 95
3, 164160, Note_on_c, 9, 38, 95
3, 164160, Note_on_c, 9, 44, 95
3, 165120, Note_off_c, 9, 40, 95
3, 165120, Note_off_c, 9, 38, 95
3, 165120, Note_off_c, 9, 44, 95
3, 165120, Note_on_c, 9, 44, 95
3, 166080, Note_off_c, 9, 44, 95
3, 166080, Note_on_c, 9, 36, 95
3, 166080, Note_on_c, 9, 44, 95
3, 167040, Note_off_c, 9, 36, 95
3, 167040, Note_off_c, 9, 44, 95
3, 167040, Note_on_c, 9, 36, 95
3, 167040, Note_on_c, 9, 44, 95
3, 168000, Note_off_c, 9, 36, 95
3, 168000, Note_off_c, 9, 44, 95
3, 168000, Note_on_c, 9, 44, 95
3, 168960, Note_off_c, 9, 44, 95
3, 168960, Note_on_c, 9, 44, 95
3, 169920, Note_off_c, 9, 44, 95
3, 169920, Note_on_c, 9, 40, 95
3, 169920, Note_on_c, 9, 38, 95
3, 169920, Note_on_c, 9, 44, 95
3, 170880, Note_off_c, 9, 40, 95
3, 170880, Note_off_c, 9, 38, 95
3, 170880, Note_off_c, 9, 44, 95
3, 170880, Note_on_c, 9, 44, 95
3, 171840, Note_off_c, 9, 44, 95
3, 171840, Note_on_c, 9, 36, 95
3, 171840, Note_on_c, 9, 44, 95
3, 172800, Note_off_c, 9, 36, 95
3, 172800, Note_off_c, 9, 44, 95
3, 172800, Note_on_c, 9, 36, 95
3, 172800, Note_on_c, 9, 44, 95
3, 173760, Note_off_c, 9, 36, 95
3, 173760, Note_off_c, 9, 44, 95
3, 173760, Note_on_c, 9, 44, 95
3, 174720, Note_off_c, 9, 44, 95
3, 174720, Note_on_c, 9, 44, 95
3, 175680, Note_off_c, 9, 44, 95
3, 175680, Note_on_c, 9, 40, 95
3, 175680, Note_on_c, 9, 38, 95
3, 175680, Note_on_c, 9, 44, 95
3, 176640, Note_off_c, 9, 40, 95
3, 176640, Note_off_c, 9, 38, 95
3, 176640, Note_off_c, 9, 44, 95
3, 176640, Note_on_c, 9, 44, 95
3, 177600, Note_off_c, 9, 44, 95
3, 177600, Note_on_c, 9, 36, 95
3, 177600, Note_on_c, 9, 44, 95
3, 178560, Note_off_c, 9, 36, 95
3, 178560, Note_off_c, 9, 44, 95
3, 178560, Note_on_c, 9, 36, 95
3, 178560, Note_on_c, 9, 44, 95
3, 179520, Note_off_c, 9, 36, 95
3, 179520, Note_off_c, 9, 44, 95
3, 179520, Note_on_c, 9, 44, 95
3, 180480, Note_off_c, 9, 44, 95
3, 180480, Note_on_c, 9, 44, 95
3, 181440, Note_off_c, 9, 44, 95
3, 181440, Note_on_c, 9, 40, 95
3, 181440, Note_on_c, 9, 38, 95
3, 181440, Note_on_c, 9, 44, 95
3, 182400, Note_off_c, 9, 40, 95
3, 182400, Note_off_c, 9, 38, 95
3, 182400, Note_off_c, 9, 44, 95
3, 182400, Note_on_c, 9, 44, 95
3, 183360, Note_off_c, 9, 44, 95
3, 183360, Note_on_c, 9, 36, 95
3, 183360, Note_on_c, 9, 44, 95
3, 184320, Note_off_c, 9, 36, 95
3, 184320, Note_off_c, 9, 44, 95
3, 184320, Note_on_c, 9, 36, 95
3, 184320, Note_on_c, 9, 44, 95
3, 185280, Note_off_c, 9, 36, 95
3, 185280, Note_off_c, 9, 44, 95
3, 185280, Note_on_c, 9, 44, 95
3, 186240, Note_off_c, 9, 44, 95
3, 186240, Note_on_c, 9, 44, 95
3, 187200, Note_off_c, 9, 44, 95
3, 187200, Note_on_c, 9, 40, 95
3, 187200, Note_on_c, 9, 38, 95
3, 187200, Note_on_c, 9, 44, 95
3, 188160, Note_off_c, 9, 40, 95
3, 188160, Note_off_c, 9, 38, 95
3, 188160, Note_off_c, 9, 44, 95
3, 188160, Note_on_c, 9, 44, 95
3, 189120, Note_off_c, 9, 44, 95
3, 189120, Note_on_c, 9, 36, 95
3, 189120, Note_on_c, 9, 44, 95
3, 190080, Note_off_c, 9, 36, 95
3, 190080, Note_off_c, 9, 44, 95
3, 190080, Note_on_c, 9, 36, 95
3, 190080, Note_on_c, 9, 44, 95
3, 191040, Note_off_c, 9, 36, 95
3, 191040, Note_off_c, 9, 44, 95
3, 191040, Note_on_c, 9, 44, 95
3, 192000, Note_off_c, 9, 44, 95
3, 192000, Note_on_c, 9, 44, 95
3, 192960, Note_off_c, 9, 44, 95
3, 192960, Note_on_c, 9, 40, 95
3, 192960, Note_on_c, 9, 38, 95
3, 192960, Note_on_c, 9, 44, 95
3, 193920, Note_off_c, 9, 40, 95
3, 193920, Note_off_c, 9, 38, 95
3, 193920, Note_off_c, 9, 44, 95
3, 193920, Note_on_c, 9, 47, 95
3, 193920, Note_on_c, 9, 45, 95
3, 194880, Note_off_c, 9, 47, 95
3, 194880, Note_off_c, 9, 45, 95
3, 194880, Note_on_c, 9, 45, 95
3, 194880, Note_on_c, 9, 43, 95
3, 195840, Note_off_c, 9, 45, 95
3, 195840, Note_off_c, 9, 43, 95
3, 195840, Note_on_c, 9, 80, 95
3, 195840, Note_on_c, 9, 36, 95
3, 195840, Note_on_c, 9, 44, 95
3, 196800, Note_off_c, 9, 80, 95
3, 196800, Note_off_c, 9, 36, 95
3, 196800, Note_off_c, 9, 44, 95
3, 196800, Note_on_c, 9, 44, 95
3, 197760, Note_off_c, 9, 44, 95
3, 197760, Note_on_c, 9, 44, 95
3, 198720, Note_off_c, 9, 44, 95
3, 198720, Note_on_c, 9, 80, 95
3, 198720, Note_on_c, 9, 40, 95
3, 198720, Note_on_c, 9, 38, 95
3, 198720, Note_on_c, 9, 44, 95
3, 199680, Note_off_c, 9, 80, 95
3, 199680, Note_off_c, 9, 40, 95
3, 199680, Note_off_c, 9, 38, 95
3, 199680, Note_off_c, 9, 44, 95
3, 199680, Note_on_c, 9, 44, 95
3, 200640, Note_off_c, 9, 44, 95
3, 200640, Note_on_c, 9, 36, 95
3, 200640, Note_on_c, 9, 44, 95
3, 201600, Note_off_c, 9, 36, 95
3, 201600, Note_off_c, 9, 44, 95
3, 201600, Note_on_c, 9, 36, 95
3, 201600, Note_on_c, 9, 44, 95
3, 202560, Note_off_c, 9, 36, 95
3, 202560, Note_off_c, 9, 44, 95
3, 202560, Note_on_c, 9, 44, 95
3, 203520, Note_off_c, 9, 44, 95
3, 203520, Note_on_c, 9, 44, 95
3, 204480, Note_off_c, 9, 44, 95
3, 204480, Note_on_c, 9, 40, 95
3, 204480, Note_on_c, 9, 38, 95
3, 204480, Note_on_c, 9, 44, 95
3, 205440, Note_off_c, 9, 40, 95
3, 205440, Note_off_c, 9, 38, 95
3, 205440, Note_off_c, 9, 44, 95
3, 205440, Note_on_c, 9, 44, 95
3, 206400, Note_off_c, 9, 44, 95
3, 206400, Note_on_c, 9, 36, 95
3, 206400, Note_on_c, 9, 44, 95
3, 207360, Note_off_c, 9, 36, 95
3, 207360, Note_off_c, 9, 44, 95
3, 207360, Note_on_c, 9, 36, 95
3, 207360, Note_on_c, 9, 44, 95
3, 208320, Note_off_c, 9, 36, 95
3, 208320, Note_off_c, 9, 44, 95
3, 208320, Note_on_c, 9, 44, 95
3, 209280, Note_off_c, 9, 44, 95
3, 209280, Note_on_c, 9, 44, 95
3, 210240, Note_off_c, 9, 44, 95
3, 210240, Note_on_c, 9, 40, 95
3, 210240, Note_on_c, 9, 38, 95
3, 210240, Note_on_c, 9, 44, 95
3, 211200, Note_off_c, 9, 40, 95
3, 211200, Note_off_c, 9, 38, 95
3, 211200, Note_off_c, 9, 44, 95
3, 211200, Note_on_c, 9, 44, 95
3, 212160, Note_off_c, 9, 44, 95
3, 212160, Note_on_c, 9, 36, 95
3, 212160, Note_on_c, 9, 44, 95
3, 213120, Note_off_c, 9, 36, 95
3, 213120, Note_off_c, 9, 44, 95
3, 213120, Note_on_c, 9, 36, 95
3, 213120, Note_on_c, 9, 44, 95
3, 214080, Note_off_c, 9, 36, 95
3, 214080, Note_off_c, 9, 44, 95
3, 214080, Note_on_c, 9, 44, 95
3, 215040, Note_off_c, 9, 44, 95
3, 215040, Note_on_c, 9, 44, 95
3, 216000, Note_off_c, 9, 44, 95
3, 216000, Note_on_c, 9, 40, 95
3, 216000, Note_on_c, 9, 38, 95
3, 216000, Note_on_c, 9, 44, 95
3, 216960, Note_off_c, 9, 40, 95
3, 216960, Note_off_c, 9, 38, 95
3, 216960, Note_off_c, 9, 44, 95
3, 216960, Note_on_c, 9, 44, 95
3, 217920, Note_off_c, 9, 44, 95
3, 217920, Note_on_c, 9, 36, 95
3, 217920, Note_on_c, 9, 44, 95
3, 218880, Note_off_c, 9, 36, 95
3, 218880, Note_off_c, 9, 44, 95
3, 218880, Note_on_c, 9, 36, 95
3, 218880, Note_on_c, 9, 44, 95
3, 219840, Note_off_c, 9, 36, 95
3, 219840, Note_off_c, 9, 44, 95
3, 219840, Note_on_c, 9, 44, 95
3, 220800, Note_off_c, 9, 44, 95
3, 220800, Note_on_c, 9, 44, 95
3, 221760, Note_off_c, 9, 44, 95
3, 221760, Note_on_c, 9, 40, 95
3, 221760, Note_on_c, 9, 38, 95
3, 221760, Note_on_c, 9, 44, 95
3, 222720, Note_off_c, 9, 40, 95
3, 222720, Note_off_c, 9, 38, 95
3, 222720, Note_off_c, 9, 44, 95
3, 222720, Note_on_c, 9, 44, 95
3, 223680, Note_off_c, 9, 44, 95
3, 223680, Note_on_c, 9, 36, 95
3, 223680, Note_on_c, 9, 44, 95
3, 224640, Note_off_c, 9, 36, 95
3, 224640, Note_off_c, 9, 44, 95
3, 224640, Note_on_c, 9, 36, 95
3, 224640, Note_on_c, 9, 44, 95
3, 225600, Note_off_c, 9, 36, 95
3, 225600, Note_off_c, 9, 44, 95
3, 225600, Note_on_c, 9, 44, 95
3, 226560, Note_off_c, 9, 44, 95
3, 226560, Note_on_c, 9, 44, 95
3, 227520, Note_off_c, 9, 44, 95
3, 227520, Note_on_c, 9, 40, 95
3, 227520, Note_on_c, 9, 38, 95
3, 227520, Note_on_c, 9, 44, 95
3, 228480, Note_off_c, 9, 40, 95
3, 228480, Note_off_c, 9, 38, 95
3, 228480, Note_off_c, 9, 44, 95
3, 228480, Note_on_c, 9, 44, 95
3, 229440, Note_off_c, 9, 44, 95
3, 229440, Note_on_c, 9, 36, 95
3, 229440, Note_on_c, 9, 44, 95
3, 230400, Note_off_c, 9, 36, 95
3, 230400, Note_off_c, 9, 44, 95
3, 230400, Note_on_c, 9, 36, 95
3, 230400, Note_on_c, 9, 44, 95
3, 231360, Note_off_c, 9, 36, 95
3, 231360, Note_off_c, 9, 44, 95
3, 231360, Note_on_c, 9, 44, 95
3, 232320, Note_off_c, 9, 44, 95
3, 232320, Note_on_c, 9, 44, 95
3, 233280, Note_off_c, 9, 44, 95
3, 233280, Note_on_c, 9, 40, 95
3, 233280, Note_on_c, 9, 38, 95
3, 233280, Note_on_c, 9, 44, 95
3, 234240, Note_off_c, 9, 40, 95
3, 234240, Note_off_c, 9, 38, 95
3, 234240, Note_off_c, 9, 44, 95
3, 234240, Note_on_c, 9, 44, 95
3, 235200, Note_off_c, 9, 44, 95
3, 235200, Note_on_c, 9, 36, 95
3, 235200, Note_on_c, 9, 44, 95
3, 236160, Note_off_c, 9, 36, 95
3, 236160, Note_off_c, 9, 44, 95
3, 236160, Note_on_c, 9, 36, 95
3, 236160, Note_on_c, 9, 44, 95
3, 237120, Note_off_c, 9, 36, 95
3, 237120, Note_off_c, 9, 44, 95
3, 237120, Note_on_c, 9, 44, 95
3, 238080, Note_off_c, 9, 44, 95
3, 238080, Note_on_c, 9, 44, 95
3, 239040, Note_off_c, 9, 44, 95
3, 239040, Note_on_c, 9, 40, 95
3, 239040, Note_on_c, 9, 38, 95
3, 239040, Note_on_c, 9, 44, 95
3, 240000, Note_off_c, 9, 40, 95
3, 240000, Note_off_c, 9, 38, 95
3, 240000, Note_off_c, 9, 44, 95
3, 240000, Note_on_c, 9, 44, 95
3, 240960, Note_off_c, 9, 44, 95
3, 240960, Note_on_c, 9, 36, 95
3, 240960, Note_on_c, 9, 44, 95
3, 241920, Note_off_c, 9, 36, 95
3, 241920, Note_off_c, 9, 44, 95
3, 241920, Note_on_c, 9, 36, 95
3, 241920, Note_on_c, 9, 44, 95
3, 242880, Note_off_c, 9, 36, 95
3, 242880, Note_off_c, 9, 44, 95
3, 242880, Note_on_c, 9, 44, 95
3, 243840, Note_off_c, 9, 44, 95
3, 243840, Note_on_c, 9, 44, 95
3, 244800, Note_off_c, 9, 44, 95
3, 244800, Note_on_c, 9, 40, 95
3, 244800, Note_on_c, 9, 38, 95
3, 244800, Note_on_c, 9, 44, 95
3, 245760, Note_off_c, 9, 40, 95
3, 245760, Note_off_c, 9, 38, 95
3, 245760, Note_off_c, 9, 44, 95
3, 245760, Note_on_c, 9, 47, 95
3, 245760, Note_on_c, 9, 45, 95
3, 246720, Note_off_c, 9, 47, 95
3, 246720, Note_off_c, 9, 45, 95
3, 246720, Note_on_c, 9, 45, 95
3, 246720, Note_on_c, 9, 43, 95
3, 247680, Note_off_c, 9, 45, 95
3, 247680, Note_off_c, 9, 43, 95
3, 247680, Note_on_c, 9, 80, 95
3, 247680, Note_on_c, 9, 36, 95
3, 247680, Note_on_c, 9, 44, 95
3, 248640, Note_off_c, 9, 80, 95
3, 248640, Note_off_c, 9, 36, 95
3, 248640, Note_off_c, 9, 44, 95
3, 248640, Note_on_c, 9, 44, 95
3, 249600, Note_off_c, 9, 44, 95
3, 249600, Note_on_c, 9, 44, 95
3, 250560, Note_off_c, 9, 44, 95
3, 250560, Note_on_c, 9, 80, 95
3, 250560, Note_on_c, 9, 40, 95
3, 250560, Note_on_c, 9, 38, 95
3, 250560, Note_on_c, 9, 44, 95
3, 251520, Note_off_c, 9, 80, 95
3, 251520, Note_off_c, 9, 40, 95
3, 251520, Note_off_c, 9, 38, 95
3, 251520, Note_off_c, 9, 44, 95
3, 251520, Note_on_c, 9, 44, 95
3, 252480, Note_off_c, 9, 44, 95
3, 252480, Note_on_c, 9, 36, 95
3, 252480, Note_on_c, 9, 44, 95
3, 253440, Note_off_c, 9, 36, 95
3, 253440, Note_off_c, 9, 44, 95
3, 253440, Note_on_c, 9, 36, 95
3, 253440, Note_on_c, 9, 44, 95
3, 254400, Note_off_c, 9, 36, 95
3, 254400, Note_off_c, 9, 44, 95
3, 254400, Note_on_c, 9, 44, 95
3, 255360, Note_off_c, 9, 44, 95
3, 255360, Note_on_c, 9, 44, 95
3, 256320, Note_off_c, 9, 44, 95
3, 256320, Note_on_c, 9, 40, 95
3, 256320, Note_on_c, 9, 38, 95
3, 256320, Note_on_c, 9, 44, 95
3, 257280, Note_off_c, 9, 40, 95
3, 257280, Note_off_c, 9, 38, 95
3, 257280, Note_off_c, 9, 44, 95
3, 257280, Note_on_c, 9, 44, 95
3, 258240, Note_off_c, 9, 44, 95
3, 258240, Note_on_c, 9, 36, 95
3, 258240, Note_on_c, 9, 44, 95
3, 259200, Note_off_c, 9, 36, 95
3, 259200, Note_off_c, 9, 44, 95
3, 259200, Note_on_c, 9, 36, 95
3, 259200, Note_on_c, 9, 44, 95
3, 260160, Note_off_c, 9, 36, 95
3, 260160, Note_off_c, 9, 44, 95
3, 260160, Note_on_c, 9, 44, 95
3, 261120, Note_off_c, 9, 44, 95
3, 261120, Note_on_c, 9, 44, 95
3, 262080, Note_off_c, 9, 44, 95
3, 262080, Note_on_c, 9, 40, 95
3, 262080, Note_on_c, 9, 38, 95
3, 262080, Note_on_c, 9, 44, 95
3, 263040, Note_off_c, 9, 40, 95
3, 263040, Note_off_c, 9, 38, 95
3, 263040, Note_off_c, 9, 44, 95
3, 263040, Note_on_c, 9, 44, 95
3, 264000, Note_off_c, 9, 44, 95
3, 264000, Note_on_c, 9, 36, 95
3, 264000, Note_on_c, 9, 44, 95
3, 264960, Note_off_c, 9, 36, 95
3, 264960, Note_off_c, 9, 44, 95
3, 264960, Note_on_c, 9, 36, 95
3, 264960, Note_on_c, 9, 44, 95
3, 265920, Note_off_c, 9, 36, 95
3, 265920, Note_off_c, 9, 44, 95
3, 265920, Note_on_c, 9, 44, 95
3, 266880, Note_off_c, 9, 44, 95
3, 266880, Note_on_c, 9, 44, 95
3, 267840, Note_off_c, 9, 44, 95
3, 267840, Note_on_c, 9, 40, 95
3, 267840, Note_on_c, 9, 38, 95
3, 267840, Note_on_c, 9, 44, 95
3, 268800, Note_off_c, 9, 40, 95
3, 268800, Note_off_c, 9, 38, 95
3, 268800, Note_off_c, 9, 44, 95
3, 268800, Note_on_c, 9, 44, 95
3, 269760, Note_off_c, 9, 44, 95
3, 269760, Note_on_c, 9, 36, 95
3, 269760, Note_on_c, 9, 44, 95
3, 270720, Note_off_c, 9, 36, 95
3, 270720, Note_off_c, 9, 44, 95
3, 270720, Note_on_c, 9, 36, 95
3, 270720, Note_on_c, 9, 44, 95
3, 271680, Note_off_c, 9, 36, 95
3, 271680, Note_off_c, 9, 44, 95
3, 271680, Note_on_c, 9, 44, 95
3, 272640, Note_off_c, 9, 44, 95
3, 272640, Note_on_c, 9, 44, 95
3, 273600, Note_off_c, 9, 44, 95
3, 273600, Note_on_c, 9, 40, 95
3, 273600, Note_on_c, 9, 38, 95
3, 273600, Note_on_c, 9, 44, 95
3, 274560, Note_off_c, 9, 40, 95
3, 274560, Note_off_c, 9, 38, 95
3, 274560, Note_off_c, 9, 44, 95
3, 274560, Note_on_c, 9, 44, 95
3, 275520, Note_off_c, 9, 44, 95
3, 275520, Note_on_c, 9, 36, 95
3, 275520, Note_on_c, 9, 44, 95
3, 276480, Note_off_c, 9, 36, 95
3, 276480, Note_off_c, 9, 44, 95
3, 276480, Note_on_c, 9, 36, 95
3, 276480, Note_on_c, 9, 44, 95
3, 277440, Note_off_c, 9, 36, 95
3, 277440, Note_off_c, 9, 44, 95
3, 277440, Note_on_c, 9, 44, 95
3, 278400, Note_off_c, 9, 44, 95
3, 278400, Note_on_c, 9, 44, 95
3, 279360, Note_off_c, 9, 44, 95
3, 279360, Note_on_c, 9, 40, 95
3, 279360, Note_on_c, 9, 38, 95
3, 279360, Note_on_c, 9, 44, 95
3, 280320, Note_off_c, 9, 40, 95
3, 280320, Note_off_c, 9, 38, 95
3, 280320, Note_off_c, 9, 44, 95
3, 280320, Note_on_c, 9, 44, 95
3, 281280, Note_off_c, 9, 44, 95
3, 281280, Note_on_c, 9, 36, 95
3, 281280, Note_on_c, 9, 44, 95
3, 282240, Note_off_c, 9, 36, 95
3, 282240, Note_off_c, 9, 44, 95
3, 282240, Note_on_c, 9, 36, 95
3, 282240, Note_on_c, 9, 44, 95
3, 283200, Note_off_c, 9, 36, 95
3, 283200, Note_off_c, 9, 44, 95
3, 283200, Note_on_c, 9, 44, 95
3, 284160, Note_off_c, 9, 44, 95
3, 284160, Note_on_c, 9, 44, 95
3, 285120, Note_off_c, 9, 44, 95
3, 285120, Note_on_c, 9, 40, 95
3, 285120, Note_on_c, 9, 38, 95
3, 285120, Note_on_c, 9, 44, 95
3, 286080, Note_off_c, 9, 40, 95
3, 286080, Note_off_c, 9, 38, 95
3, 286080, Note_off_c, 9, 44, 95
3, 286080, Note_on_c, 9, 44, 95
3, 287040, Note_off_c, 9, 44, 95
3, 287040, Note_on_c, 9, 36, 95
3, 287040, Note_on_c, 9, 44, 95
3, 288000, Note_off_c, 9, 36, 95
3, 288000, Note_off_c, 9, 44, 95
3, 288000, Note_on_c, 9, 36, 95
3, 288000, Note_on_c, 9, 44, 95
3, 288960, Note_off_c, 9, 36, 95
3, 288960, Note_off_c, 9, 44, 95
3, 288960, Note_on_c, 9, 44, 95
3, 289920, Note_off_c, 9, 44, 95
3, 289920, Note_on_c, 9, 44, 95
3, 290880, Note_off_c, 9, 44, 95
3, 290880, Note_on_c, 9, 40, 95
3, 290880, Note_on_c, 9, 38, 95
3, 290880, Note_on_c, 9, 44, 95
3, 291840, Note_off_c, 9, 40, 95
3, 291840, Note_off_c, 9, 38, 95
3, 291840, Note_off_c, 9, 44, 95
3, 291840, Note_on_c, 9, 44, 95
3, 292800, Note_off_c, 9, 44, 95
3, 292800, Note_on_c, 9, 36, 95
3, 292800, Note_on_c, 9, 44, 95
3, 293760, Note_off_c, 9, 36, 95
3, 293760, Note_off_c, 9, 44, 95
3, 293760, Note_on_c, 9, 36, 95
3, 293760, Note_on_c, 9, 44, 95
3, 294720, Note_off_c, 9, 36, 95
3, 294720, Note_off_c, 9, 44, 95
3, 294720, Note_on_c, 9, 44, 95
3, 295680, Note_off_c, 9, 44, 95
3, 295680, Note_on_c, 9, 44, 95
3, 296640, Note_off_c, 9, 44, 95
3, 296640, Note_on_c, 9, 40, 95
3, 296640, Note_on_c, 9, 38, 95
3, 296640, Note_on_c, 9, 44, 95
3, 297600, Note_off_c, 9, 40, 95
3, 297600, Note_off_c, 9, 38, 95
3, 297600, Note_off_c, 9, 44, 95
3, 297600, Note_on_c, 9, 44, 95
3, 298560, Note_off_c, 9, 44, 95
3, 298560, Note_on_c, 9, 36, 95
3, 298560, Note_on_c, 9, 44, 95
3, 299520, Note_off_c, 9, 36, 95
3, 299520, Note_off_c, 9, 44, 95
3, 299520, Note_on_c, 9, 36, 95
3, 299520, Note_on_c, 9, 44, 95
3, 300480, Note_off_c, 9, 36, 95
3, 300480, Note_off_c, 9, 44, 95
3, 300480, Note_on_c, 9, 44, 95
3, 301440, Note_off_c, 9, 44, 95
3, 301440, Note_on_c, 9, 44, 95
3, 302400, Note_off_c, 9, 44, 95
3, 302400, Note_on_c, 9, 40, 95
3, 302400, Note_on_c, 9, 38, 95
3, 302400, Note_on_c, 9, 44, 95
3, 303360, Note_off_c, 9, 40, 95
3, 303360, Note_off_c, 9, 38, 95
3, 303360, Note_off_c, 9, 44, 95
3, 303360, Note_on_c, 9, 44, 95
3, 304320, Note_off_c, 9, 44, 95
3, 304320, Note_on_c, 9, 36, 95
3, 304320, Note_on_c, 9, 44, 95
3, 305280, Note_off_c, 9, 36, 95
3, 305280, Note_off_c, 9, 44, 95
3, 305280, Note_on_c, 9, 36, 95
3, 305280, Note_on_c, 9, 44, 95
3, 306240, Note_off_c, 9, 36, 95
3, 306240, Note_off_c, 9, 44, 95
3, 306240, Note_on_c, 9, 44, 95
3, 307200, Note_off_c, 9, 44, 95
3, 307200, Note_on_c, 9, 44, 95
3, 308160, Note_off_c, 9, 44, 95
3, 308160, Note_on_c, 9, 40, 95
3, 308160, Note_on_c, 9, 38, 95
3, 308160, Note_on_c, 9, 44, 95
3, 309120, Note_off_c, 9, 40, 95
3, 309120, Note_off_c, 9, 38, 95
3, 309120, Note_off_c, 9, 44, 95
3, 309120, Note_on_c, 9, 44, 95
3, 310080, Note_off_c, 9, 44, 95
3, 310080, Note_on_c, 9, 36, 95
3, 310080, Note_on_c, 9, 44, 95
3, 311040, Note_off_c, 9, 36, 95
3, 311040, Note_off_c, 9, 44, 95
3, 311040, Note_on_c, 9, 36, 95
3, 311040, Note_on_c, 9, 44, 95
3, 312000, Note_off_c, 9, 36, 95
3, 312000, Note_off_c, 9, 44, 95
3, 312000, Note_on_c, 9, 44, 95
3, 312960, Note_off_c, 9, 44, 95
3, 312960, Note_on_c, 9, 44, 95
3, 313920, Note_off_c, 9, 44, 95
3, 313920, Note_on_c, 9, 40, 95
3, 313920, Note_on_c, 9, 38, 95
3, 313920, Note_on_c, 9, 44, 95
3, 314880, Note_off_c, 9, 40, 95
3, 314880, Note_off_c, 9, 38, 95
3, 314880, Note_off_c, 9, 44, 95
3, 314880, Note_on_c, 9, 44, 95
3, 315840, Note_off_c, 9, 44, 95
3, 315840, Note_on_c, 9, 36, 95
3, 315840, Note_on_c, 9, 44, 95
3, 316800, Note_off_c, 9, 36, 95
3, 316800, Note_off_c, 9, 44, 95
3, 316800, Note_on_c, 9, 36, 95
3, 316800, Note_on_c, 9, 44, 95
3, 317760, Note_off_c, 9, 36, 95
3, 317760, Note_off_c, 9, 44, 95
3, 317760, Note_on_c, 9, 44, 95
3, 318720, Note_off_c, 9, 44, 95
3, 318720, Note_on_c, 9, 44, 95
3, 319680, Note_off_c, 9, 44, 95
3, 319680, Note_on_c, 9, 40, 95
3, 319680, Note_on_c, 9, 38, 95
3, 319680, Note_on_c, 9, 44, 95
3, 320640, Note_off_c, 9, 40, 95
3, 320640, Note_off_c, 9, 38, 95
3, 320640, Note_off_c, 9, 44, 95
3, 320640, Note_on_c, 9, 44, 95
3, 321600, Note_off_c, 9, 44, 95
3, 321600, Note_on_c, 9, 36, 95
3, 321600, Note_on_c, 9, 44, 95
3, 322560, Note_off_c, 9, 36, 95
3, 322560, Note_off_c, 9, 44, 95
3, 322560, Note_on_c, 9, 36, 95
3, 322560, Note_on_c, 9, 44, 95
3, 323520, Note_off_c, 9, 36, 95
3, 323520, Note_off_c, 9, 44, 95
3, 323520, Note_on_c, 9, 44, 95
3, 324480, Note_off_c, 9, 44, 95
3, 324480, Note_on_c, 9, 44, 95
3, 325440, Note_off_c, 9, 44, 95
3, 325440, Note_on_c, 9, 40, 95
3, 325440, Note_on_c, 9, 38, 95
3, 325440, Note_on_c, 9, 44, 95
3, 326400, Note_off_c, 9, 40, 95
3, 326400, Note_off_c, 9, 38, 95
3, 326400, Note_off_c, 9, 44, 95
3, 326400, Note_on_c, 9, 44, 95
3, 327360, Note_off_c, 9, 44, 95
3, 327360, Note_on_c, 9, 36, 95
3, 327360, Note_on_c, 9, 44, 95
3, 328320, Note_off_c, 9, 36, 95
3, 328320, Note_off_c, 9, 44, 95
3, 328320, Note_on_c, 9, 36, 95
3, 328320, Note_on_c, 9, 44, 95
3, 329280, Note_off_c, 9, 36, 95
3, 329280, Note_off_c, 9, 44, 95
3, 329280, Note_on_c, 9, 44, 95
3, 330240, Note_off_c, 9, 44, 95
3, 330240, Note_on_c, 9, 44, 95
3, 331200, Note_off_c, 9, 44, 95
3, 331200, Note_on_c, 9, 40, 95
3, 331200, Note_on_c, 9, 38, 95
3, 331200, Note_on_c, 9, 44, 95
3, 332160, Note_off_c, 9, 40, 95
3, 332160, Note_off_c, 9, 38, 95
3, 332160, Note_off_c, 9, 44, 95
3, 332160, Note_on_c, 9, 44, 95
3, 333120, Note_off_c, 9, 44, 95
3, 333120, Note_on_c, 9, 36, 95
3, 333120, Note_on_c, 9, 44, 95
3, 334080, Note_off_c, 9, 36, 95
3, 334080, Note_off_c, 9, 44, 95
3, 334080, Note_on_c, 9, 36, 95
3, 334080, Note_on_c, 9, 44, 95
3, 335040, Note_off_c, 9, 36, 95
3, 335040, Note_off_c, 9, 44, 95
3, 335040, Note_on_c, 9, 44, 95
3, 336000, Note_off_c, 9, 44, 95
3, 336000, Note_on_c, 9, 44, 95
3, 336960, Note_off_c, 9, 44, 95
3, 336960, Note_on_c, 9, 40, 95
3, 336960, Note_on_c, 9, 38, 95
3, 336960, Note_on_c, 9, 44, 95
3, 337920, Note_off_c, 9, 40, 95
3, 337920, Note_off_c, 9, 38, 95
3, 337920, Note_off_c, 9, 44, 95
3, 337920, Note_on_c, 9, 44, 95
3, 338880, Note_off_c, 9, 44, 95
3, 338880, Note_on_c, 9, 36, 95
3, 338880, Note_on_c, 9, 44, 95
3, 339840, Note_off_c, 9, 36, 95
3, 339840, Note_off_c, 9, 44, 95
3, 339840, Note_on_c, 9, 36, 95
3, 339840, Note_on_c, 9, 44, 95
3, 340800, Note_off_c, 9, 36, 95
3, 340800, Note_off_c, 9, 44, 95
3, 340800, Note_on_c, 9, 44, 95
3, 341760, Note_off_c, 9, 44, 95
3, 341760, Note_on_c, 9, 44, 95
3, 342720, Note_off_c, 9, 44, 95
3, 342720, Note_on_c, 9, 40, 95
3, 342720, Note_on_c, 9, 38, 95
3, 342720, Note_on_c, 9, 44, 95
3, 343680, Note_off_c, 9, 40, 95
3, 343680, Note_off_c, 9, 38, 95
3, 343680, Note_off_c, 9, 44, 95
3, 343680, Note_on_c, 9, 44, 95
3, 344640, Note_off_c, 9, 44, 95
3, 344640, Note_on_c, 9, 36, 95
3, 344640, Note_on_c, 9, 44, 95
3, 345600, Note_off_c, 9, 36, 95
3, 345600, Note_off_c, 9, 44, 95
3, 345600, Note_on_c, 9, 36, 95
3, 345600, Note_on_c, 9, 44, 95
3, 346560, Note_off_c, 9, 36, 95
3, 346560, Note_off_c, 9, 44, 95
3, 346560, Note_on_c, 9, 44, 95
3, 347520, Note_off_c, 9, 44, 95
3, 347520, Note_on_c, 9, 44, 95
3, 348480, Note_off_c, 9, 44, 95
3, 348480, Note_on_c, 9, 40, 95
3, 348480, Note_on_c, 9, 38, 95
3, 348480, Note_on_c, 9, 44, 95
3, 349440, Note_off_c, 9, 40, 95
3, 349440, Note_off_c, 9, 38, 95
3, 349440, Note_off_c, 9, 44, 95
3, 349440, Note_on_c, 9, 44, 95
3, 350400, Note_off_c, 9, 44, 95
3, 350400, Note_on_c, 9, 36, 95
3, 350400, Note_on_c, 9, 44, 95
3, 351360, Note_off_c, 9, 36, 95
3, 351360, Note_off_c, 9, 44, 95
3, 351360, Note_on_c, 9, 36, 95
3, 351360, Note_on_c, 9, 44, 95
3, 352320, Note_off_c, 9, 36, 95
3, 352320, Note_off_c, 9, 44, 95
3, 352320, Note_on_c, 9, 44, 95
3, 353280, Note_off_c, 9, 44, 95
3, 353280, Note_on_c, 9, 44, 95
3, 354240, Note_off_c, 9, 44, 95
3, 354240, Note_on_c, 9, 40, 95
3, 354240, Note_on_c, 9, 38, 95
3, 354240, Note_on_c, 9, 44, 95
3, 355200, Note_off_c, 9, 40, 95
3, 355200, Note_off_c, 9, 38, 95
3, 355200, Note_off_c, 9, 44, 95
3, 355200, Note_on_c, 9, 44, 95
3, 356160, Note_off_c, 9, 44, 95
3, 356160, Note_on_c, 9, 36, 95
3, 356160, Note_on_c, 9, 44, 95
3, 357120, Note_off_c, 9, 36, 95
3, 357120, Note_off_c, 9, 44, 95
3, 357120, Note_on_c, 9, 36, 95
3, 357120, Note_on_c, 9, 44, 95
3, 358080, Note_off_c, 9, 36, 95
3, 358080, Note_off_c, 9, 44, 95
3, 358080, Note_on_c, 9, 44, 95
3, 359040, Note_off_c, 9, 44, 95
3, 359040, Note_on_c, 9, 44, 95
3, 360000, Note_off_c, 9, 44, 95
3, 360000, Note_on_c, 9, 40, 95
3, 360000, Note_on_c, 9, 38, 95
3, 360000, Note_on_c, 9, 44, 95
3, 360960, Note_off_c, 9, 40, 95
3, 360960, Note_off_c, 9, 38, 95
3, 360960, Note_off_c, 9, 44, 95
3, 360960, Note_on_c, 9, 44, 95
3, 361920, Note_off_c, 9, 44, 95
3, 361920, Note_on_c, 9, 36, 95
3, 361920, Note_on_c, 9, 44, 95
3, 362880, Note_off_c, 9, 36, 95
3, 362880, Note_off_c, 9, 44, 95
3, 362880, Note_on_c, 9, 36, 95
3, 362880, Note_on_c, 9, 44, 95
3, 363840, Note_off_c, 9, 36, 95
3, 363840, Note_off_c, 9, 44, 95
3, 363840, Note_on_c, 9, 44, 95
3, 364800, Note_off_c, 9, 44, 95
3, 364800, Note_on_c, 9, 44, 95
3, 365760, Note_off_c, 9, 44, 95
3, 365760, Note_on_c, 9, 40, 95
3, 365760, Note_on_c, 9, 38, 95
3, 365760, Note_on_c, 9, 44, 95
3, 366720, Note_off_c, 9, 40, 95
3, 366720, Note_off_c, 9, 38, 95
3, 366720, Note_off_c, 9, 44, 95
3, 366720, Note_on_c, 9, 44, 95
3, 367680, Note_off_c, 9, 44, 95
3, 367680, Note_on_c, 9, 36, 95
3, 367680, Note_on_c, 9, 44, 95
3, 368640, Note_off_c, 9, 36, 95
3, 368640, Note_off_c, 9, 44, 95
3, 368640, Note_on_c, 9, 36, 95
3, 368640, Note_on_c, 9, 44, 95
3, 369600, Note_off_c, 9, 36, 95
3, 369600, Note_off_c, 9, 44, 95
3, 369600, Note_on_c, 9, 44, 95
3, 370560, Note_off_c, 9, 44, 95
3, 370560, Note_on_c, 9, 44, 95
3, 371520, Note_off_c, 9, 44, 95
3, 371520, Note_on_c, 9, 40, 95
3, 371520, Note_on_c, 9, 38, 95
3, 371520, Note_on_c, 9, 44, 95
3, 372480, Note_off_c, 9, 40, 95
3, 372480, Note_off_c, 9, 38, 95
3, 372480, Note_off_c, 9, 44, 95
3, 372480, Note_on_c, 9, 44, 95
3, 373440, Note_off_c, 9, 44, 95
3, 373440, Note_on_c, 9, 36, 95
3, 373440, Note_on_c, 9, 44, 95
3, 374400, Note_off_c, 9, 36, 95
3, 374400, Note_off_c, 9, 44, 95
3, 374400, Note_on_c, 9, 36, 95
3, 374400, Note_on_c, 9, 44, 95
3, 375360, Note_off_c, 9, 36, 95
3, 375360, Note_off_c, 9, 44, 95
3, 375360, Note_on_c, 9, 44, 95
3, 376320, Note_off_c, 9, 44, 95
3, 376320, Note_on_c, 9, 44, 95
3, 377280, Note_off_c, 9, 44, 95
3, 377280, Note_on_c, 9, 40, 95
3, 377280, Note_on_c, 9, 38, 95
3, 377280, Note_on_c, 9, 44, 95
3, 378240, Note_off_c, 9, 40, 95
3, 378240, Note_off_c, 9, 38, 95
3, 378240, Note_off_c, 9, 44, 95
3, 378240, Note_on_c, 9, 44, 95
3, 379200, Note_off_c, 9, 44, 95
3, 379200, Note_on_c, 9, 36, 95
3, 379200, Note_on_c, 9, 44, 95
3, 380160, Note_off_c, 9, 36, 95
3, 380160, Note_off_c, 9, 44, 95
3, 380160, Note_on_c, 9, 36, 95
3, 380160, Note_on_c, 9, 44, 95
3, 381120, Note_off_c, 9, 36, 95
3, 381120, Note_off_c, 9, 44, 95
3, 381120, Note_on_c, 9, 44, 95
3, 382080, Note_off_c, 9, 44, 95
3, 382080, Note_on_c, 9, 44, 95
3, 383040, Note_off_c, 9, 44, 95
3, 383040, Note_on_c, 9, 40, 95
3, 383040, Note_on_c, 9, 38, 95
3, 383040, Note_on_c, 9, 44, 95
3, 384000, Note_off_c, 9, 40, 95
3, 384000, Note_off_c, 9, 38, 95
3, 384000, Note_off_c, 9, 44, 95
3, 384000, Note_on_c, 9, 44, 95
3, 384960, Note_off_c, 9, 44, 95
3, 384960, Note_on_c, 9, 36, 95
3, 384960, Note_on_c, 9, 44, 95
3, 385920, Note_off_c, 9, 36, 95
3, 385920, Note_off_c, 9, 44, 95
3, 385920, Note_on_c, 9, 36, 95
3, 385920, Note_on_c, 9, 44, 95
3, 386880, Note_off_c, 9, 36, 95
3, 386880, Note_off_c, 9, 44, 95
3, 386880, Note_on_c, 9, 44, 95
3, 387840, Note_off_c, 9, 44, 95
3, 387840, Note_on_c, 9, 44, 95
3, 388800, Note_off_c, 9, 44, 95
3, 388800, Note_on_c, 9, 40, 95
3, 388800, Note_on_c, 9, 38, 95
3, 388800, Note_on_c, 9, 44, 95
3, 389760, Note_off_c, 9, 40, 95
3, 389760, Note_off_c, 9, 38, 95
3, 389760, Note_off_c, 9, 44, 95
3, 389760, Note_on_c, 9, 44, 95
3, 390720, Note_off_c, 9, 44, 95
3, 390720, Note_on_c, 9, 36, 95
3, 390720, Note_on_c, 9, 44, 95
3, 391680, Note_off_c, 9, 36, 95
3, 391680, Note_off_c, 9, 44, 95
3, 391680, Note_on_c, 9, 36, 95
3, 391680, Note_on_c, 9, 44, 95
3, 392640, Note_off_c, 9, 36, 95
3, 392640, Note_off_c, 9, 44, 95
3, 392640, Note_on_c, 9, 44, 95
3, 393600, Note_off_c, 9, 44, 95
3, 393600, Note_on_c, 9, 44, 95
3, 394560, Note_off_c, 9, 44, 95
3, 394560, Note_on_c, 9, 40, 95
3, 394560, Note_on_c, 9, 38, 95
3, 394560, Note_on_c, 9, 44, 95
3, 395520, Note_off_c, 9, 40, 95
3, 395520, Note_off_c, 9, 38, 95
3, 395520, Note_off_c, 9, 44, 95
3, 395520, Note_on_c, 9, 44, 95
3, 396480, Note_off_c, 9, 44, 95
3, 396480, Note_on_c, 9, 36, 95
3, 396480, Note_on_c, 9, 44, 95
3, 397440, Note_off_c, 9, 36, 95
3, 397440, Note_off_c, 9, 44, 95
3, 397440, Note_on_c, 9, 36, 95
3, 397440, Note_on_c, 9, 44, 95
3, 398400, Note_off_c, 9, 36, 95
3, 398400, Note_off_c, 9, 44, 95
3, 398400, Note_on_c, 9, 44, 95
3, 399360, Note_off_c, 9, 44, 95
3, 399360, Note_on_c, 9, 44, 95
3, 400320, Note_off_c, 9, 44, 95
3, 400320, Note_on_c, 9, 40, 95
3, 400320, Note_on_c, 9, 38, 95
3, 400320, Note_on_c, 9, 44, 95
3, 401280, Note_off_c, 9, 40, 95
3, 401280, Note_off_c, 9, 38, 95
3, 401280, Note_off_c, 9, 44, 95
3, 401280, Note_on_c, 9, 44, 95
3, 402240, Note_off_c, 9, 44, 95
3, 402240, Note_on_c, 9, 36, 95
3, 402240, Note_on_c, 9, 44, 95
3, 403200, Note_off_c, 9, 36, 95
3, 403200, Note_off_c, 9, 44, 95
3, 403200, Note_on_c, 9, 36, 95
3, 403200, Note_on_c, 9, 44, 95
3, 404160, Note_off_c, 9, 36, 95
3, 404160, Note_off_c, 9, 44, 95
3, 404160, Note_on_c, 9, 44, 95
3, 405120, Note_off_c, 9, 44, 95
3, 405120, Note_on_c, 9, 44, 95
3, 406080, Note_off_c, 9, 44, 95
3, 406080, Note_on_c, 9, 40, 95
3, 406080, Note_on_c, 9, 38, 95
3, 406080, Note_on_c, 9, 44, 95
3, 407040, Note_off_c, 9, 40, 95
3, 407040, Note_off_c, 9, 38, 95
3, 407040, Note_off_c, 9, 44, 95
3, 407040, Note_on_c, 9, 44, 95
3, 408000, Note_off_c, 9, 44, 95
3, 408000, Note_on_c, 9, 36, 95
3, 408000, Note_on_c, 9, 44, 95
3, 408960, Note_off_c, 9, 36, 95
3, 408960, Note_off_c, 9, 44, 95
3, 408960, Note_on_c, 9, 36, 95
3, 408960, Note_on_c, 9, 44, 95
3, 409920, Note_off_c, 9, 36, 95
3, 409920, Note_off_c, 9, 44, 95
3, 409920, Note_on_c, 9, 44, 95
3, 410880, Note_off_c, 9, 44, 95
3, 410880, Note_on_c, 9, 44, 95
3, 411840, Note_off_c, 9, 44, 95
3, 411840, Note_on_c, 9, 40, 95
3, 411840, Note_on_c, 9, 38, 95
3, 411840, Note_on_c, 9, 44, 95
3, 412800, Note_off_c, 9, 40, 95
3, 412800, Note_off_c, 9, 38, 95
3, 412800, Note_off_c, 9, 44, 95
3, 412800, Note_on_c, 9, 44, 95
3, 413760, Note_off_c, 9, 44, 95
3, 413760, Note_on_c, 9, 36, 95
3, 413760, Note_on_c, 9, 44, 95
3, 414720, Note_off_c, 9, 36, 95
3, 414720, Note_off_c, 9, 44, 95
3, 414720, Note_on_c, 9, 36, 95
3, 414720, Note_on_c, 9, 44, 95
3, 415680, Note_off_c, 9, 36, 95
3, 415680, Note_off_c, 9, 44, 95
3, 415680, Note_on_c, 9, 44, 95
3, 416640, Note_off_c, 9, 44, 95
3, 416640, Note_on_c, 9, 44, 95
3, 417600, Note_off_c, 9, 44, 95
3, 417600, Note_on_c, 9, 40, 95
3, 417600, Note_on_c, 9, 38, 95
3, 417600, Note_on_c, 9, 44, 95
3, 418560, Note_off_c, 9, 40, 95
3, 418560, Note_off_c, 9, 38, 95
3, 418560, Note_off_c, 9, 44, 95
3, 418560, Note_on_c, 9, 44, 95
3, 419520, Note_off_c, 9, 44, 95
3, 419520, Note_on_c, 9, 36, 95
3, 419520, Note_on_c, 9, 44, 95
3, 420480, Note_off_c, 9, 36, 95
3, 420480, Note_off_c, 9, 44, 95
3, 420480, Note_on_c, 9, 36, 95
3, 420480, Note_on_c, 9, 44, 95
3, 421440, Note_off_c, 9, 36, 95
3, 421440, Note_off_c, 9, 44, 95
3, 421440, Note_on_c, 9, 44, 95
3, 422400, Note_off_c, 9, 44, 95
3, 422400, Note_on_c, 9, 44, 95
3, 423360, Note_off_c, 9, 44, 95
3, 423360, Note_on_c, 9, 40, 95
3, 423360, Note_on_c, 9, 38, 95
3, 423360, Note_on_c, 9, 44, 95
3, 424320, Note_off_c, 9, 40, 95
3, 424320, Note_off_c, 9, 38, 95
3, 424320, Note_off_c, 9, 44, 95
3, 424320, Note_on_c, 9, 44, 95
3, 425280, Note_off_c, 9, 44, 95
3, 425280, Note_on_c, 9, 36, 95
3, 425280, Note_on_c, 9, 44, 95
3, 426240, Note_off_c, 9, 36, 95
3, 426240, Note_off_c, 9, 44, 95
3, 426240, Note_on_c, 9, 36, 95
3, 426240, Note_on_c, 9, 44, 95
3, 427200, Note_off_c, 9, 36, 95
3, 427200, Note_off_c, 9, 44, 95
3, 427200, Note_on_c, 9, 44, 95
3, 428160, Note_off_c, 9, 44, 95
3, 428160, Note_on_c, 9, 44, 95
3, 429120, Note_off_c, 9, 44, 95
3, 429120, Note_on_c, 9, 40, 95
3, 429120, Note_on_c, 9, 38, 95
3, 429120, Note_on_c, 9, 44, 95
3, 430080, Note_off_c, 9, 40, 95
3, 430080, Note_off_c, 9, 38, 95
3, 430080, Note_off_c, 9, 44, 95
3, 430080, Note_on_c, 9, 44, 95
3, 431040, Note_off_c, 9, 44, 95
3, 431040, Note_on_c, 9, 36, 95
3, 431040, Note_on_c, 9, 44, 95
3, 432000, Note_off_c, 9, 36, 95
3, 432000, Note_off_c, 9, 44, 95
3, 432000, Note_on_c, 9, 36, 95
3, 432000, Note_on_c, 9, 44, 95
3, 432960, Note_off_c, 9, 36, 95
3, 432960, Note_off_c, 9, 44, 95
3, 432960, Note_on_c, 9, 36, 95
3, 432960, Note_on_c, 9, 44, 95
3, 433920, Note_off_c, 9, 36, 95
3, 433920, Note_off_c, 9, 44, 95
3, 433920, Note_on_c, 9, 36, 95
3, 433920, Note_on_c, 9, 44, 95
3, 434880, Note_off_c, 9, 36, 95
3, 434880, Note_off_c, 9, 44, 95
3, 434880, Note_on_c, 9, 36, 95
3, 434880, Note_on_c, 9, 44, 95
3, 435840, Note_off_c, 9, 36, 95
3, 435840, Note_off_c, 9, 44, 95
3, 435840, Note_on_c, 9, 36, 95
3, 435840, Note_on_c, 9, 44, 95
3, 436800, Note_off_c, 9, 36, 95
3, 436800, Note_off_c, 9, 44, 95
3, 436800, Note_on_c, 9, 36, 95
3, 436800, Note_on_c, 9, 44, 95
3, 437760, Note_off_c, 9, 36, 95
3, 437760, Note_off_c, 9, 44, 95
3, 437760, Note_on_c, 9, 36, 95
3, 437760, Note_on_c, 9, 44, 95
3, 438720, Note_off_c, 9, 36, 95
3, 438720, Note_off_c, 9, 44, 95
3, 438720, Note_on_c, 9, 44, 95
3, 439680, Note_off_c, 9, 44, 95
3, 439680, Note_on_c, 9, 44, 95
3, 440640, Note_off_c, 9, 44, 95
3, 440640, Note_on_c, 9, 40, 95
3, 440640, Note_on_c, 9, 38, 95
3, 440640, Note_on_c, 9, 44, 95
3, 441600, Note_off_c, 9, 40, 95
3, 441600, Note_off_c, 9, 38, 95
3, 441600, Note_off_c, 9, 44, 95
3, 441600, Note_on_c, 9, 44, 95
3, 442560, Note_off_c, 9, 44, 95
3, 442560, Note_on_c, 9, 36, 95
3, 442560, Note_on_c, 9, 44, 95
3, 443520, Note_off_c, 9, 36, 95
3, 443520, Note_off_c, 9, 44, 95
3, 443520, Note_on_c, 9, 36, 95
3, 443520, Note_on_c, 9, 44, 95
3, 444480, Note_off_c, 9, 36, 95
3, 444480, Note_off_c, 9, 44, 95
3, 444480, Note_on_c, 9, 44, 95
3, 445440, Note_off_c, 9, 44, 95
3, 445440, Note_on_c, 9, 44, 95
3, 446400, Note_off_c, 9, 44, 95
3, 446400, Note_on_c, 9, 40, 95
3, 446400, Note_on_c, 9, 38, 95
3, 446400, Note_on_c, 9, 44, 95
3, 447360, Note_off_c, 9, 40, 95
3, 447360, Note_off_c, 9, 38, 95
3, 447360, Note_off_c, 9, 44, 95
3, 447360, Note_on_c, 9, 44, 95
3, 448320, Note_off_c, 9, 44, 95
3, 448320, Note_on_c, 9, 36, 95
3, 448320, Note_on_c, 9, 44, 95
3, 449280, Note_off_c, 9, 36, 95
3, 449280, Note_off_c, 9, 44, 95
3, 449280, Note_on_c, 9, 36, 95
3, 449280, Note_on_c, 9, 44, 95
3, 450240, Note_off_c, 9, 36, 95
3, 450240, Note_off_c, 9, 44, 95
3, 450240, Note_on_c, 9, 44, 95
3, 451200, Note_off_c, 9, 44, 95
3, 451200, Note_on_c, 9, 44, 95
3, 452160, Note_off_c, 9, 44, 95
3, 452160, Note_on_c, 9, 40, 95
3, 452160, Note_on_c, 9, 38, 95
3, 452160, Note_on_c, 9, 44, 95
3, 453120, Note_off_c, 9, 40, 95
3, 453120, Note_off_c, 9, 38, 95
3, 453120, Note_off_c, 9, 44, 95
3, 453120, Note_on_c, 9, 44, 95
3, 454080, Note_off_c, 9, 44, 95
3, 454080, Note_on_c, 9, 36, 95
3, 454080, Note_on_c, 9, 44, 95
3, 455040, Note_off_c, 9, 36, 95
3, 455040, Note_off_c, 9, 44, 95
3, 455040, Note_on_c, 9, 36, 95
3, 455040, Note_on_c, 9, 44, 95
3, 456000, Note_off_c, 9, 36, 95
3, 456000, Note_off_c, 9, 44, 95
3, 456000, Note_on_c, 9, 44, 95
3, 456960, Note_off_c, 9, 44, 95
3, 456960, Note_on_c, 9, 44, 95
3, 457920, Note_off_c, 9, 44, 95
3, 457920, Note_on_c, 9, 40, 95
3, 457920, Note_on_c, 9, 38, 95
3, 457920, Note_on_c, 9, 44, 95
3, 458880, Note_off_c, 9, 40, 95
3, 458880, Note_off_c, 9, 38, 95
3, 458880, Note_off_c, 9, 44, 95
3, 458880, Note_on_c, 9, 44, 95
3, 459840, Note_off_c, 9, 44, 95
3, 459840, Note_on_c, 9, 36, 95
3, 459840, Note_on_c, 9, 44, 95
3, 460800, Note_off_c, 9, 36, 95
3, 460800, Note_off_c, 9, 44, 95
3, 460800, Note_on_c, 9, 36, 95
3, 460800, Note_on_c, 9, 44, 95
3, 461760, Note_off_c, 9, 36, 95
3, 461760, Note_off_c, 9, 44, 95
3, 461760, Note_on_c, 9, 44, 95
3, 462720, Note_off_c, 9, 44, 95
3, 462720, Note_on_c, 9, 44, 95
3, 463680, Note_off_c, 9, 44, 95
3, 463680, Note_on_c, 9, 40, 95
3, 463680, Note_on_c, 9, 38, 95
3, 463680, Note_on_c, 9, 44, 95
3, 464640, Note_off_c, 9, 40, 95
3, 464640, Note_off_c, 9, 38, 95
3, 464640, Note_off_c, 9, 44, 95
3, 464640, Note_on_c, 9, 44, 95
3, 465600, Note_off_c, 9, 44, 95
3, 465600, Note_on_c, 9, 36, 95
3, 465600, Note_on_c, 9, 44, 95
3, 466560, Note_off_c, 9, 36, 95
3, 466560, Note_off_c, 9, 44, 95
3, 466560, Note_on_c, 9, 36, 95
3, 466560, Note_on_c, 9, 44, 95
3, 467520, Note_off_c, 9, 36, 95
3, 467520, Note_off_c, 9, 44, 95
3, 467520, Note_on_c, 9, 44, 95
3, 468480, Note_off_c, 9, 44, 95
3, 468480, Note_on_c, 9, 44, 95
3, 469440, Note_off_c, 9, 44, 95
3, 469440, Note_on_c, 9, 40, 95
3, 469440, Note_on_c, 9, 38, 95
3, 469440, Note_on_c, 9, 44, 95
3, 470400, Note_off_c, 9, 40, 95
3, 470400, Note_off_c, 9, 38, 95
3, 470400, Note_off_c, 9, 44, 95
3, 470400, Note_on_c, 9, 44, 95
3, 471360, Note_off_c, 9, 44, 95
3, 471360, Note_on_c, 9, 36, 95
3, 471360, Note_on_c, 9, 44, 95
3, 472320, Note_off_c, 9, 36, 95
3, 472320, Note_off_c, 9, 44, 95
3, 472320, Note_on_c, 9, 36, 95
3, 472320, Note_on_c, 9, 44, 95
3, 473280, Note_off_c, 9, 36, 95
3, 473280, Note_off_c, 9, 44, 95
3, 473280, Note_on_c, 9, 44, 95
3, 474240, Note_off_c, 9, 44, 95
3, 474240, Note_on_c, 9, 44, 95
3, 475200, Note_off_c, 9, 44, 95
3, 475200, Note_on_c, 9, 40, 95
3, 475200, Note_on_c, 9, 38, 95
3, 475200, Note_on_c, 9, 44, 95
3, 476160, Note_off_c, 9, 40, 95
3, 476160, Note_off_c, 9, 38, 95
3, 476160, Note_off_c, 9, 44, 95
3, 476160, Note_on_c, 9, 44, 95
3, 477120, Note_off_c, 9, 44, 95
3, 477120, Note_on_c, 9, 36, 95
3, 477120, Note_on_c, 9, 44, 95
3, 478080, Note_off_c, 9, 36, 95
3, 478080, Note_off_c, 9, 44, 95
3, 478080, Note_on_c, 9, 36, 95
3, 478080, Note_on_c, 9, 44, 95
3, 479040, Note_off_c, 9, 36, 95
3, 479040, Note_off_c, 9, 44, 95
3, 479040, Note_on_c, 9, 44, 95
3, 480000, Note_off_c, 9, 44, 95
3, 480000, Note_on_c, 9, 44, 95
3, 480960, Note_off_c, 9, 44, 95
3, 480960, Note_on_c, 9, 40, 95
3, 480960, Note_on_c, 9, 38, 95
3, 480960, Note_on_c, 9, 44, 95
3, 481920, Note_off_c, 9, 40, 95
3, 481920, Note_off_c, 9, 38, 95
3, 481920, Note_off_c, 9, 44, 95
3, 481920, Note_on_c, 9, 47, 95
3, 481920, Note_on_c, 9, 45, 95
3, 482880, Note_off_c, 9, 47, 95
3, 482880, Note_off_c, 9, 45, 95
3, 482880, Note_on_c, 9, 45, 95
3, 482880, Note_on_c, 9, 43, 95
3, 483840, Note_off_c, 9, 45, 95
3, 483840, Note_off_c, 9, 43, 95
3, 483840, Note_on_c, 9, 80, 95
3, 483840, Note_on_c, 9, 36, 95
3, 483840, Note_on_c, 9, 44, 95
3, 484800, Note_off_c, 9, 80, 95
3, 484800, Note_off_c, 9, 36, 95
3, 484800, Note_off_c, 9, 44, 95
3, 484800, Note_on_c, 9, 44, 95
3, 485760, Note_off_c, 9, 44, 95
3, 485760, Note_on_c, 9, 44, 95
3, 486720, Note_off_c, 9, 44, 95
3, 486720, Note_on_c, 9, 80, 95
3, 486720, Note_on_c, 9, 40, 95
3, 486720, Note_on_c, 9, 38, 95
3, 486720, Note_on_c, 9, 44, 95
3, 487680, Note_off_c, 9, 80, 95
3, 487680, Note_off_c, 9, 40, 95
3, 487680, Note_off_c, 9, 38, 95
3, 487680, Note_off_c, 9, 44, 95
3, 487680, Note_on_c, 9, 44, 95
3, 488640, Note_off_c, 9, 44, 95
3, 488640, Note_on_c, 9, 36, 95
3, 488640, Note_on_c, 9, 44, 95
3, 489600, Note_off_c, 9, 36, 95
3, 489600, Note_off_c, 9, 44, 95
3, 489600, Note_on_c, 9, 36, 95
3, 489600, Note_on_c, 9, 44, 95
3, 490560, Note_off_c, 9, 36, 95
3, 490560, Note_off_c, 9, 44, 95
3, 490560, Note_on_c, 9, 44, 95
3, 491520, Note_off_c, 9, 44, 95
3, 491520, Note_on_c, 9, 44, 95
3, 492480, Note_off_c, 9, 44, 95
3, 492480, Note_on_c, 9, 40, 95
3, 492480, Note_on_c, 9, 38, 95
3, 492480, Note_on_c, 9, 44, 95
3, 493440, Note_off_c, 9, 40, 95
3, 493440, Note_off_c, 9, 38, 95
3, 493440, Note_off_c, 9, 44, 95
3, 493440, Note_on_c, 9, 44, 95
3, 494400, Note_off_c, 9, 44, 95
3, 494400, Note_on_c, 9, 36, 95
3, 494400, Note_on_c, 9, 44, 95
3, 495360, Note_off_c, 9, 36, 95
3, 495360, Note_off_c, 9, 44, 95
3, 495360, Note_on_c, 9, 36, 95
3, 495360, Note_on_c, 9, 44, 95
3, 496320, Note_off_c, 9, 36, 95
3, 496320, Note_off_c, 9, 44, 95
3, 496320, Note_on_c, 9, 44, 95
3, 497280, Note_off_c, 9, 44, 95
3, 497280, Note_on_c, 9, 44, 95
3, 498240, Note_off_c, 9, 44, 95
3, 498240, Note_on_c, 9, 40, 95
3, 498240, Note_on_c, 9, 38, 95
3, 498240, Note_on_c, 9, 44, 95
3, 499200, Note_off_c, 9, 40, 95
3, 499200, Note_off_c, 9, 38, 95
3, 499200, Note_off_c, 9, 44, 95
3, 499200, Note_on_c, 9, 44, 95
3, 500160, Note_off_c, 9, 44, 95
3, 500160, Note_on_c, 9, 36, 95
3, 500160, Note_on_c, 9, 44, 95
3, 501120, Note_off_c, 9, 36, 95
3, 501120, Note_off_c, 9, 44, 95
3, 501120, Note_on_c, 9, 36, 95
3, 501120, Note_on_c, 9, 44, 95
3, 502080, Note_off_c, 9, 36, 95
3, 502080, Note_off_c, 9, 44, 95
3, 502080, Note_on_c, 9, 44, 95
3, 503040, Note_off_c, 9, 44, 95
3, 503040, Note_on_c, 9, 44, 95
3, 504000, Note_off_c, 9, 44, 95
3, 504000, Note_on_c, 9, 40, 95
3, 504000, Note_on_c, 9, 38, 95
3, 504000, Note_on_c, 9, 44, 95
3, 504960, Note_off_c, 9, 40, 95
3, 504960, Note_off_c, 9, 38, 95
3, 504960, Note_off_c, 9, 44, 95
3, 504960, Note_on_c, 9, 44, 95
3, 505920, Note_off_c, 9, 44, 95
3, 505920, Note_on_c, 9, 36, 95
3, 505920, Note_on_c, 9, 44, 95
3, 506880, Note_off_c, 9, 36, 95
3, 506880, Note_off_c, 9, 44, 95
3, 506880, Note_on_c, 9, 36, 95
3, 506880, Note_on_c, 9, 44, 95
3, 507840, Note_off_c, 9, 36, 95
3, 507840, Note_off_c, 9, 44, 95
3, 507840, Note_on_c, 9, 44, 95
3, 508800, Note_off_c, 9, 44, 95
3, 508800, Note_on_c, 9, 44, 95
3, 509760, Note_off_c, 9, 44, 95
3, 509760, Note_on_c, 9, 40, 95
3, 509760, Note_on_c, 9, 38, 95
3, 509760, Note_on_c, 9, 44, 95
3, 510720, Note_off_c, 9, 40, 95
3, 510720, Note_off_c, 9, 38, 95
3, 510720, Note_off_c, 9, 44, 95
3, 510720, Note_on_c, 9, 44, 95
3, 511680, Note_off_c, 9, 44, 95
3, 511680, Note_on_c, 9, 36, 95
3, 511680, Note_on_c, 9, 44, 95
3, 512640, Note_off_c, 9, 36, 95
3, 512640, Note_off_c, 9, 44, 95
3, 512640, Note_on_c, 9, 36, 95
3, 512640, Note_on_c, 9, 44, 95
3, 513600, Note_off_c, 9, 36, 95
3, 513600, Note_off_c, 9, 44, 95
3, 513600, Note_on_c, 9, 44, 95
3, 514560, Note_off_c, 9, 44, 95
3, 514560, Note_on_c, 9, 44, 95
3, 515520, Note_off_c, 9, 44, 95
3, 515520, Note_on_c, 9, 40, 95
3, 515520, Note_on_c, 9, 38, 95
3, 515520, Note_on_c, 9, 44, 95
3, 516480, Note_off_c, 9, 40, 95
3, 516480, Note_off_c, 9, 38, 95
3, 516480, Note_off_c, 9, 44, 95
3, 516480, Note_on_c, 9, 44, 95
3, 517440, Note_off_c, 9, 44, 95
3, 517440, Note_on_c, 9, 36, 95
3, 517440, Note_on_c, 9, 44, 95
3, 518400, Note_off_c, 9, 36, 95
3, 518400, Note_off_c, 9, 44, 95
3, 518400, Note_on_c, 9, 36, 95
3, 518400, Note_on_c, 9, 44, 95
3, 519360, Note_off_c, 9, 36, 95
3, 519360, Note_off_c, 9, 44, 95
3, 519360, Note_on_c, 9, 44, 95
3, 520320, Note_off_c, 9, 44, 95
3, 520320, Note_on_c, 9, 44, 95
3, 521280, Note_off_c, 9, 44, 95
3, 521280, Note_on_c, 9, 40, 95
3, 521280, Note_on_c, 9, 38, 95
3, 521280, Note_on_c, 9, 44, 95
3, 522240, Note_off_c, 9, 40, 95
3, 522240, Note_off_c, 9, 38, 95
3, 522240, Note_off_c, 9, 44, 95
3, 522240, Note_on_c, 9, 44, 95
3, 523200, Note_off_c, 9, 44, 95
3, 523200, Note_on_c, 9, 36, 95
3, 523200, Note_on_c, 9, 44, 95
3, 524160, Note_off_c, 9, 36, 95
3, 524160, Note_off_c, 9, 44, 95
3, 524160, Note_on_c, 9, 36, 95
3, 524160, Note_on_c, 9, 44, 95
3, 525120, Note_off_c, 9, 36, 95
3, 525120, Note_off_c, 9, 44, 95
3, 525120, Note_on_c, 9, 44, 95
3, 526080, Note_off_c, 9, 44, 95
3, 526080, Note_on_c, 9, 44, 95
3, 527040, Note_off_c, 9, 44, 95
3, 527040, Note_on_c, 9, 40, 95
3, 527040, Note_on_c, 9, 38, 95
3, 527040, Note_on_c, 9, 44, 95
3, 528000, Note_off_c, 9, 40, 95
3, 528000, Note_off_c, 9, 38, 95
3, 528000, Note_off_c, 9, 44, 95
3, 528000, Note_on_c, 9, 44, 95
3, 528960, Note_off_c, 9, 44, 95
3, 528960, Note_on_c, 9, 36, 95
3, 528960, Note_on_c, 9, 44, 95
3, 529920, Note_off_c, 9, 36, 95
3, 529920, Note_off_c, 9, 44, 95
3, 529920, Note_on_c, 9, 36, 95
3, 529920, Note_on_c, 9, 44, 95
3, 530880, Note_off_c, 9, 36, 95
3, 530880, Note_off_c, 9, 44, 95
3, 530880, Note_on_c, 9, 44, 95
3, 531840, Note_off_c, 9, 44, 95
3, 531840, Note_on_c, 9, 44, 95
3, 532800, Note_off_c, 9, 44, 95
3, 532800, Note_on_c, 9, 40, 95
3, 532800, Note_on_c, 9, 38, 95
3, 532800, Note_on_c, 9, 44, 95
3, 533760, Note_off_c, 9, 40, 95
3, 533760, Note_off_c, 9, 38, 95
3, 533760, Note_off_c, 9, 44, 95
3, 533760, Note_on_c, 9, 44, 95
3, 534720, Note_off_c, 9, 44, 95
3, 534720, Note_on_c, 9, 36, 95
3, 534720, Note_on_c, 9, 44, 95
3, 535680, Note_off_c, 9, 36, 95
3, 535680, Note_off_c, 9, 44, 95
3, 535680, Note_on_c, 9, 36, 95
3, 535680, Note_on_c, 9, 44, 95
3, 536640, Note_off_c, 9, 36, 95
3, 536640, Note_off_c, 9, 44, 95
3, 536640, Note_on_c, 9, 44, 95
3, 537600, Note_off_c, 9, 44, 95
3, 537600, Note_on_c, 9, 44, 95
3, 538560, Note_off_c, 9, 44, 95
3, 538560, Note_on_c, 9, 40, 95
3, 538560, Note_on_c, 9, 38, 95
3, 538560, Note_on_c, 9, 44, 95
3, 539520, Note_off_c, 9, 40, 95
3, 539520, Note_off_c, 9, 38, 95
3, 539520, Note_off_c, 9, 44, 95
3, 539520, Note_on_c, 9, 44, 95
3, 540480, Note_off_c, 9, 44, 95
3, 540480, Note_on_c, 9, 36, 95
3, 540480, Note_on_c, 9, 44, 95
3, 541440, Note_off_c, 9, 36, 95
3, 541440, Note_off_c, 9, 44, 95
3, 541440, Note_on_c, 9, 36, 95
3, 541440, Note_on_c, 9, 44, 95
3, 542400, Note_off_c, 9, 36, 95
3, 542400, Note_off_c, 9, 44, 95
3, 542400, Note_on_c, 9, 44, 95
3, 543360, Note_off_c, 9, 44, 95
3, 543360, Note_on_c, 9, 44, 95
3, 544320, Note_off_c, 9, 44, 95
3, 544320, Note_on_c, 9, 40, 95
3, 544320, Note_on_c, 9, 38, 95
3, 544320, Note_on_c, 9, 44, 95
3, 545280, Note_off_c, 9, 40, 95
3, 545280, Note_off_c, 9, 38, 95
3, 545280, Note_off_c, 9, 44, 95
3, 545280, Note_on_c, 9, 44, 95
3, 546240, Note_off_c, 9, 44, 95
3, 546240, Note_on_c, 9, 36, 95
3, 546240, Note_on_c, 9, 44, 95
3, 547200, Note_off_c, 9, 36, 95
3, 547200, Note_off_c, 9, 44, 95
3, 547200, Note_on_c, 9, 36, 95
3, 547200, Note_on_c, 9, 44, 95
3, 548160, Note_off_c, 9, 36, 95
3, 548160, Note_off_c, 9, 44, 95
3, 548160, Note_on_c, 9, 44, 95
3, 549120, Note_off_c, 9, 44, 95
3, 549120, Note_on_c, 9, 44, 95
3, 550080, Note_off_c, 9, 44, 95
3, 550080, Note_on_c, 9, 40, 95
3, 550080, Note_on_c, 9, 38, 95
3, 550080, Note_on_c, 9, 44, 95
3, 551040, Note_off_c, 9, 40, 95
3, 551040, Note_off_c, 9, 38, 95
3, 551040, Note_off_c, 9, 44, 95
3, 551040, Note_on_c, 9, 44, 95
3, 552000, Note_off_c, 9, 44, 95
3, 552000, Note_on_c, 9, 36, 95
3, 552000, Note_on_c, 9, 44, 95
3, 552960, Note_off_c, 9, 36, 95
3, 552960, Note_off_c, 9, 44, 95
3, 552960, Note_on_c, 9, 36, 95
3, 552960, Note_on_c, 9, 44, 95
3, 553920, Note_off_c, 9, 36, 95
3, 553920, Note_off_c, 9, 44, 95
3, 553920, Note_on_c, 9, 44, 95
3, 554880, Note_off_c, 9, 44, 95
3, 554880, Note_on_c, 9, 44, 95
3, 555840, Note_off_c, 9, 44, 95
3, 555840, Note_on_c, 9, 40, 95
3, 555840, Note_on_c, 9, 38, 95
3, 555840, Note_on_c, 9, 44, 95
3, 556800, Note_off_c, 9, 40, 95
3, 556800, Note_off_c, 9, 38, 95
3, 556800, Note_off_c, 9, 44, 95
3, 556800, Note_on_c, 9, 44, 95
3, 557760, Note_off_c, 9, 44, 95
3, 557760, Note_on_c, 9, 36, 95
3, 557760, Note_on_c, 9, 44, 95
3, 558720, Note_off_c, 9, 36, 95
3, 558720, Note_off_c, 9, 44, 95
3, 558720, Note_on_c, 9, 36, 95
3, 558720, Note_on_c, 9, 44, 95
3, 559680, Note_off_c, 9, 36, 95
3, 559680, Note_off_c, 9, 44, 95
3, 559680, Note_on_c, 9, 44, 95
3, 560640, Note_off_c, 9, 44, 95
3, 560640, Note_on_c, 9, 44, 95
3, 561600, Note_off_c, 9, 44, 95
3, 561600, Note_on_c, 9, 40, 95
3, 561600, Note_on_c, 9, 38, 95
3, 561600, Note_on_c, 9, 44, 95
3, 562560, Note_off_c, 9, 40, 95
3, 562560, Note_off_c, 9, 38, 95
3, 562560, Note_off_c, 9, 44, 95
3, 562560, Note_on_c, 9, 44, 95
3, 563520, Note_off_c, 9, 44, 95
3, 563520, Note_on_c, 9, 36, 95
3, 563520, Note_on_c, 9, 44, 95
3, 564480, Note_off_c, 9, 36, 95
3, 564480, Note_off_c, 9, 44, 95
3, 564480, Note_on_c, 9, 36, 95
3, 564480, Note_on_c, 9, 44, 95
3, 565440, Note_off_c, 9, 36, 95
3, 565440, Note_off_c, 9, 44, 95
3, 565440, Note_on_c, 9, 44, 95
3, 566400, Note_off_c, 9, 44, 95
3, 566400, Note_on_c, 9, 44, 95
3, 567360, Note_off_c, 9, 44, 95
3, 567360, Note_on_c, 9, 40, 95
3, 567360, Note_on_c, 9, 38, 95
3, 567360, Note_on_c, 9, 44, 95
3, 568320, Note_off_c, 9, 40, 95
3, 568320, Note_off_c, 9, 38, 95
3, 568320, Note_off_c, 9, 44, 95
3, 568320, Note_on_c, 9, 44, 95
3, 569280, Note_off_c, 9, 44, 95
3, 569280, Note_on_c, 9, 36, 95
3, 569280, Note_on_c, 9, 44, 95
3, 570240, Note_off_c, 9, 36, 95
3, 570240, Note_off_c, 9, 44, 95
3, 570240, Note_on_c, 9, 36, 95
3, 570240, Note_on_c, 9, 44, 95
3, 571200, Note_off_c, 9, 36, 95
3, 571200, Note_off_c, 9, 44, 95
3, 571200, Note_on_c, 9, 44, 95
3, 572160, Note_off_c, 9, 44, 95
3, 572160, Note_on_c, 9, 44, 95
3, 573120, Note_off_c, 9, 44, 95
3, 573120, Note_on_c, 9, 40, 95
3, 573120, Note_on_c, 9, 38, 95
3, 573120, Note_on_c, 9, 44, 95
3, 574080, Note_off_c, 9, 40, 95
3, 574080, Note_off_c, 9, 38, 95
3, 574080, Note_off_c, 9, 44, 95
3, 574080, Note_on_c, 9, 44, 95
3, 575040, Note_off_c, 9, 44, 95
3, 575040, Note_on_c, 9, 36, 95
3, 575040, Note_on_c, 9, 44, 95
3, 576000, Note_off_c, 9, 36, 95
3, 576000, Note_off_c, 9, 44, 95
3, 576000, Note_on_c, 9, 36, 95
3, 576000, Note_on_c, 9, 44, 95
3, 576960, Note_off_c, 9, 36, 95
3, 576960, Note_off_c, 9, 44, 95
3, 576960, Note_on_c, 9, 44, 95
3, 577920, Note_off_c, 9, 44, 95
3, 577920, Note_on_c, 9, 44, 95
3, 578880, Note_off_c, 9, 44, 95
3, 578880, Note_on_c, 9, 40, 95
3, 578880, Note_on_c, 9, 38, 95
3, 578880, Note_on_c, 9, 44, 95
3, 579840, Note_off_c, 9, 40, 95
3, 579840, Note_off_c, 9, 38, 95
3, 579840, Note_off_c, 9, 44, 95
3, 579840, Note_on_c, 9, 44, 95
3, 580800, Note_off_c, 9, 44, 95
3, 580800, Note_on_c, 9, 36, 95
3, 580800, Note_on_c, 9, 44, 95
3, 581760, Note_off_c, 9, 36, 95
3, 581760, Note_off_c, 9, 44, 95
3, 581760, Note_on_c, 9, 36, 95
3, 581760, Note_on_c, 9, 44, 95
3, 582720, Note_off_c, 9, 36, 95
3, 582720, Note_off_c, 9, 44, 95
3, 582720, Note_on_c, 9, 44, 95
3, 583680, Note_off_c, 9, 44, 95
3, 583680, Note_on_c, 9, 44, 95
3, 584640, Note_off_c, 9, 44, 95
3, 584640, Note_on_c, 9, 40, 95
3, 584640, Note_on_c, 9, 38, 95
3, 584640, Note_on_c, 9, 44, 95
3, 585600, Note_off_c, 9, 40, 95
3, 585600, Note_off_c, 9, 38, 95
3, 585600, Note_off_c, 9, 44, 95
3, 585600, Note_on_c, 9, 44, 95
3, 586560, Note_off_c, 9, 44, 95
3, 586560, Note_on_c, 9, 36, 95
3, 586560, Note_on_c, 9, 44, 95
3, 587520, Note_off_c, 9, 36, 95
3, 587520, Note_off_c, 9, 44, 95
3, 587520, Note_on_c, 9, 36, 95
3, 587520, Note_on_c, 9, 44, 95
3, 588480, Note_off_c, 9, 36, 95
3, 588480, Note_off_c, 9, 44, 95
3, 588480, Note_on_c, 9, 44, 95
3, 589440, Note_off_c, 9, 44, 95
3, 589440, Note_on_c, 9, 44, 95
3, 590400, Note_off_c, 9, 44, 95
3, 590400, Note_on_c, 9, 40, 95
3, 590400, Note_on_c, 9, 38, 95
3, 590400, Note_on_c, 9, 44, 95
3, 591360, Note_off_c, 9, 40, 95
3, 591360, Note_off_c, 9, 38, 95
3, 591360, Note_off_c, 9, 44, 95
3, 591360, Note_on_c, 9, 44, 95
3, 592320, Note_off_c, 9, 44, 95
3, 592320, Note_on_c, 9, 36, 95
3, 592320, Note_on_c, 9, 44, 95
3, 593280, Note_off_c, 9, 36, 95
3, 593280, Note_off_c, 9, 44, 95
3, 593280, Note_on_c, 9, 36, 95
3, 593280, Note_on_c, 9, 44, 95
3, 594240, Note_off_c, 9, 36, 95
3, 594240, Note_off_c, 9, 44, 95
3, 594240, Note_on_c, 9, 44, 95
3, 595200, Note_off_c, 9, 44, 95
3, 595200, Note_on_c, 9, 44, 95
3, 596160, Note_off_c, 9, 44, 95
3, 596160, Note_on_c, 9, 40, 95
3, 596160, Note_on_c, 9, 38, 95
3, 596160, Note_on_c, 9, 44, 95
3, 597120, Note_off_c, 9, 40, 95
3, 597120, Note_off_c, 9, 38, 95
3, 597120, Note_off_c, 9, 44, 95
3, 597120, Note_on_c, 9, 44, 95
3, 598080, Note_off_c, 9, 44, 95
3, 598080, Note_on_c, 9, 36, 95
3, 598080, Note_on_c, 9, 44, 95
3, 599040, Note_off_c, 9, 36, 95
3, 599040, Note_off_c, 9, 44, 95
3, 599040, Note_on_c, 9, 36, 95
3, 599040, Note_on_c, 9, 44, 95
3, 600000, Note_off_c, 9, 36, 95
3, 600000, Note_off_c, 9, 44, 95
3, 600000, Note_on_c, 9, 44, 95
3, 600960, Note_off_c, 9, 44, 95
3, 600960, Note_on_c, 9, 44, 95
3, 601920, Note_off_c, 9, 44, 95
3, 601920, Note_on_c, 9, 40, 95
3, 601920, Note_on_c, 9, 38, 95
3, 601920, Note_on_c, 9, 44, 95
3, 602880, Note_off_c, 9, 40, 95
3, 602880, Note_off_c, 9, 38, 95
3, 602880, Note_off_c, 9, 44, 95
3, 602880, Note_on_c, 9, 44, 95
3, 603840, Note_off_c, 9, 44, 95
3, 603840, Note_on_c, 9, 36, 95
3, 603840, Note_on_c, 9, 44, 95
3, 604800, Note_off_c, 9, 36, 95
3, 604800, Note_off_c, 9, 44, 95
3, 604800, Note_on_c, 9, 36, 95
3, 604800, Note_on_c, 9, 44, 95
3, 605760, Note_off_c, 9, 36, 95
3, 605760, Note_off_c, 9, 44, 95
3, 605760, Note_on_c, 9, 44, 95
3, 606720, Note_off_c, 9, 44, 95
3, 606720, Note_on_c, 9, 44, 95
3, 607680, Note_off_c, 9, 44, 95
3, 607680, Note_on_c, 9, 40, 95
3, 607680, Note_on_c, 9, 38, 95
3, 607680, Note_on_c, 9, 44, 95
3, 608640, Note_off_c, 9, 40, 95
3, 608640, Note_off_c, 9, 38, 95
3, 608640, Note_off_c, 9, 44, 95
3, 608640, Note_on_c, 9, 44, 95
3, 609600, Note_off_c, 9, 44, 95
3, 609600, Note_on_c, 9, 36, 95
3, 609600, Note_on_c, 9, 44, 95
3, 610560, Note_off_c, 9, 36, 95
3, 610560, Note_off_c, 9, 44, 95
3, 610560, Note_on_c, 9, 36, 95
3, 610560, Note_on_c, 9, 44, 95
3, 611520, Note_off_c, 9, 36, 95
3, 611520, Note_off_c, 9, 44, 95
3, 611520, Note_on_c, 9, 44, 95
3, 612480, Note_off_c, 9, 44, 95
3, 612480, Note_on_c, 9, 44, 95
3, 613440, Note_off_c, 9, 44, 95
3, 613440, Note_on_c, 9, 40, 95
3, 613440, Note_on_c, 9, 38, 95
3, 613440, Note_on_c, 9, 44, 95
3, 614400, Note_off_c, 9, 40, 95
3, 614400, Note_off_c, 9, 38, 95
3, 614400, Note_off_c, 9, 44, 95
3, 614400, Note_on_c, 9, 44, 95
3, 615360, Note_off_c, 9, 44, 95
3, 615360, Note_on_c, 9, 36, 95
3, 615360, Note_on_c, 9, 44, 95
3, 616320, Note_off_c, 9, 36, 95
3, 616320, Note_off_c, 9, 44, 95
3, 616320, Note_on_c, 9, 36, 95
3, 616320, Note_on_c, 9, 44, 95
3, 617280, Note_off_c, 9, 36, 95
3, 617280, Note_off_c, 9, 44, 95
3, 617280, Note_on_c, 9, 44, 95
3, 618240, Note_off_c, 9, 44, 95
3, 618240, Note_on_c, 9, 44, 95
3, 619200, Note_off_c, 9, 44, 95
3, 619200, Note_on_c, 9, 40, 95
3, 619200, Note_on_c, 9, 38, 95
3, 619200, Note_on_c, 9, 44, 95
3, 620160, Note_off_c, 9, 40, 95
3, 620160, Note_off_c, 9, 38, 95
3, 620160, Note_off_c, 9, 44, 95
3, 620160, Note_on_c, 9, 44, 95
3, 621120, Note_off_c, 9, 44, 95
3, 621120, Note_on_c, 9, 36, 95
3, 621120, Note_on_c, 9, 44, 95
3, 622080, Note_off_c, 9, 36, 95
3, 622080, Note_off_c, 9, 44, 95
3, 622080, Note_on_c, 9, 36, 95
3, 622080, Note_on_c, 9, 44, 95
3, 623040, Note_off_c, 9, 36, 95
3, 623040, Note_off_c, 9, 44, 95
3, 623040, Note_on_c, 9, 44, 95
3, 624000, Note_off_c, 9, 44, 95
3, 624000, Note_on_c, 9, 44, 95
3, 624960, Note_off_c, 9, 44, 95
3, 624960, Note_on_c, 9, 40, 95
3, 624960, Note_on_c, 9, 38, 95
3, 624960, Note_on_c, 9, 44, 95
3, 625920, Note_off_c, 9, 40, 95
3, 625920, Note_off_c, 9, 38, 95
3, 625920, Note_off_c, 9, 44, 95
3, 625920, Note_on_c, 9, 44, 95
3, 626880, Note_off_c, 9, 44, 95
3, 626880, Note_on_c, 9, 36, 95
3, 626880, Note_on_c, 9, 44, 95
3, 627840, Note_off_c, 9, 36, 95
3, 627840, Note_off_c, 9, 44, 95
3, 627840, Note_on_c, 9, 36, 95
3, 627840, Note_on_c, 9, 44, 95
3, 628800, Note_off_c, 9, 36, 95
3, 628800, Note_off_c, 9, 44, 95
3, 628800, Note_on_c, 9, 44, 95
3, 629760, Note_off_c, 9, 44, 95
3, 629760, Note_on_c, 9, 44, 95
3, 630720, Note_off_c, 9, 44, 95
3, 630720, Note_on_c, 9, 40, 95
3, 630720, Note_on_c, 9, 38, 95
3, 630720, Note_on_c, 9, 44, 95
3, 631680, Note_off_c, 9, 40, 95
3, 631680, Note_off_c, 9, 38, 95
3, 631680, Note_off_c, 9, 44, 95
3, 631680, Note_on_c, 9, 44, 95
3, 632640, Note_off_c, 9, 44, 95
3, 632640, Note_on_c, 9, 36, 95
3, 632640, Note_on_c, 9, 44, 95
3, 633600, Note_off_c, 9, 36, 95
3, 633600, Note_off_c, 9, 44, 95
3, 633600, Note_on_c, 9, 36, 95
3, 633600, Note_on_c, 9, 44, 95
3, 634560, Note_off_c, 9, 36, 95
3, 634560, Note_off_c, 9, 44, 95
3, 634560, Note_on_c, 9, 44, 95
3, 635520, Note_off_c, 9, 44, 95
3, 635520, Note_on_c, 9, 44, 95
3, 636480, Note_off_c, 9, 44, 95
3, 636480, Note_on_c, 9, 40, 95
3, 636480, Note_on_c, 9, 38, 95
3, 636480, Note_on_c, 9, 44, 95
3, 637440, Note_off_c, 9, 40, 95
3, 637440, Note_off_c, 9, 38, 95
3, 637440, Note_off_c, 9, 44, 95
3, 637440, Note_on_c, 9, 44, 95
3, 638400, Note_off_c, 9, 44, 95
3, 638400, Note_on_c, 9, 36, 95
3, 638400, Note_on_c, 9, 44, 95
3, 639360, Note_off_c, 9, 36, 95
3, 639360, Note_off_c, 9, 44, 95
3, 639360, Note_on_c, 9, 36, 95
3, 639360, Note_on_c, 9, 44, 95
3, 640320, Note_off_c, 9, 36, 95
3, 640320, Note_off_c, 9, 44, 95
3, 640320, Note_on_c, 9, 44, 95
3, 641280, Note_off_c, 9, 44, 95
3, 641280, Note_on_c, 9, 44, 95
3, 642240, Note_off_c, 9, 44, 95
3, 642240, Note_on_c, 9, 40, 95
3, 642240, Note_on_c, 9, 38, 95
3, 642240, Note_on_c, 9, 44, 95
3, 643200, Note_off_c, 9, 40, 95
3, 643200, Note_off_c, 9, 38, 95
3, 643200, Note_off_c, 9, 44, 95
3, 643200, Note_on_c, 9, 44, 95
3, 644160, Note_off_c, 9, 44, 95
3, 644160, Note_on_c, 9, 36, 95
3, 644160, Note_on_c, 9, 44, 95
3, 645120, Note_off_c, 9, 36, 95
3, 645120, Note_off_c, 9, 44, 95
3, 645120, Note_on_c, 9, 36, 95
3, 645120, Note_on_c, 9, 44, 95
3, 646080, Note_off_c, 9, 36, 95
3, 646080, Note_off_c, 9, 44, 95
3, 646080, Note_on_c, 9, 44, 95
3, 647040, Note_off_c, 9, 44, 95
3, 647040, Note_on_c, 9, 44, 95
3, 648000, Note_off_c, 9, 44, 95
3, 648000, Note_on_c, 9, 40, 95
3, 648000, Note_on_c, 9, 38, 95
3, 648000, Note_on_c, 9, 44, 95
3, 648960, Note_off_c, 9, 40, 95
3, 648960, Note_off_c, 9, 38, 95
3, 648960, Note_off_c, 9, 44, 95
3, 648960, Note_on_c, 9, 44, 95
3, 649920, Note_off_c, 9, 44, 95
3, 649920, Note_on_c, 9, 36, 95
3, 649920, Note_on_c, 9, 44, 95
3, 650880, Note_off_c, 9, 36, 95
3, 650880, Note_off_c, 9, 44, 95
3, 650880, Note_on_c, 9, 36, 95
3, 650880, Note_on_c, 9, 44, 95
3, 651840, Note_off_c, 9, 36, 95
3, 651840, Note_off_c, 9, 44, 95
3, 651840, Note_on_c, 9, 44, 95
3, 652800, Note_off_c, 9, 44, 95
3, 652800, Note_on_c, 9, 44, 95
3, 653760, Note_off_c, 9, 44, 95
3, 653760, Note_on_c, 9, 40, 95
3, 653760, Note_on_c, 9, 38, 95
3, 653760, Note_on_c, 9, 44, 95
3, 654720, Note_off_c, 9, 40, 95
3, 654720, Note_off_c, 9, 38, 95
3, 654720, Note_off_c, 9, 44, 95
3, 654720, Note_on_c, 9, 44, 95
3, 655680, Note_off_c, 9, 44, 95
3, 655680, Note_on_c, 9, 36, 95
3, 655680, Note_on_c, 9, 44, 95
3, 656640, Note_off_c, 9, 36, 95
3, 656640, Note_off_c, 9, 44, 95
3, 656640, Note_on_c, 9, 36, 95
3, 656640, Note_on_c, 9, 44, 95
3, 657600, Note_off_c, 9, 36, 95
3, 657600, Note_off_c, 9, 44, 95
3, 657600, Note_on_c, 9, 44, 95
3, 658560, Note_off_c, 9, 44, 95
3, 658560, Note_on_c, 9, 44, 95
3, 659520, Note_off_c, 9, 44, 95
3, 659520, Note_on_c, 9, 40, 95
3, 659520, Note_on_c, 9, 38, 95
3, 659520, Note_on_c, 9, 44, 95
3, 660480, Note_off_c, 9, 40, 95
3, 660480, Note_off_c, 9, 38, 95
3, 660480, Note_off_c, 9, 44, 95
3, 660480, Note_on_c, 9, 44, 95
3, 661440, Note_off_c, 9, 44, 95
3, 661440, Note_on_c, 9, 36, 95
3, 661440, Note_on_c, 9, 44, 95
3, 662400, Note_off_c, 9, 36, 95
3, 662400, Note_off_c, 9, 44, 95
3, 662400, Note_on_c, 9, 36, 95
3, 662400, Note_on_c, 9, 44, 95
3, 663360, Note_off_c, 9, 36, 95
3, 663360, Note_off_c, 9, 44, 95
3, 663360, Note_on_c, 9, 44, 95
3, 664320, Note_off_c, 9, 44, 95
3, 664320, Note_on_c, 9, 44, 95
3, 665280, Note_off_c, 9, 44, 95
3, 665280, Note_on_c, 9, 40, 95
3, 665280, Note_on_c, 9, 38, 95
3, 665280, Note_on_c, 9, 44, 95
3, 666240, Note_off_c, 9, 40, 95
3, 666240, Note_off_c, 9, 38, 95
3, 666240, Note_off_c, 9, 44, 95
3, 666240, Note_on_c, 9, 44, 95
3, 667200, Note_off_c, 9, 44, 95
3, 667200, Note_on_c, 9, 36, 95
3, 667200, Note_on_c, 9, 44, 95
3, 668160, Note_off_c, 9, 36, 95
3, 668160, Note_off_c, 9, 44, 95
3, 668160, Note_on_c, 9, 36, 95
3, 668160, Note_on_c, 9, 44, 95
3, 669120, Note_off_c, 9, 36, 95
3, 669120, Note_off_c, 9, 44, 95
3, 669120, Note_on_c, 9, 44, 95
3, 670080, Note_off_c, 9, 44, 95
3, 670080, Note_on_c, 9, 44, 95
3, 671040, Note_off_c, 9, 44, 95
3, 671040, Note_on_c, 9, 40, 95
3, 671040, Note_on_c, 9, 38, 95
3, 671040, Note_on_c, 9, 44, 95
3, 672000, Note_off_c, 9, 40, 95
3, 672000, Note_off_c, 9, 38, 95
3, 672000, Note_off_c, 9, 44, 95
3, 672000, Note_on_c, 9, 44, 95
3, 672960, Note_off_c, 9, 44, 95
3, 672960, Note_on_c, 9, 36, 95
3, 672960, Note_on_c, 9, 44, 95
3, 673920, Note_off_c, 9, 36, 95
3, 673920, Note_off_c, 9, 44, 95
3, 673920, Note_on_c, 9, 36, 95
3, 673920, Note_on_c, 9, 44, 95
3, 674880, Note_off_c, 9, 36, 95
3, 674880, Note_off_c, 9, 44, 95
3, 674880, Note_on_c, 9, 44, 95
3, 675840, Note_off_c, 9, 44, 95
3, 675840, Note_on_c, 9, 44, 95
3, 676800, Note_off_c, 9, 44, 95
3, 676800, Note_on_c, 9, 40, 95
3, 676800, Note_on_c, 9, 38, 95
3, 676800, Note_on_c, 9, 44, 95
3, 677760, Note_off_c, 9, 40, 95
3, 677760, Note_off_c, 9, 38, 95
3, 677760, Note_off_c, 9, 44, 95
3, 677760, Note_on_c, 9, 44, 95
3, 678720, Note_off_c, 9, 44, 95
3, 678720, Note_on_c, 9, 36, 95
3, 678720, Note_on_c, 9, 44, 95
3, 679680, Note_off_c, 9, 36, 95
3, 679680, Note_off_c, 9, 44, 95
3, 679680, Note_on_c, 9, 36, 95
3, 679680, Note_on_c, 9, 44, 95
3, 680640, Note_off_c, 9, 36, 95
3, 680640, Note_off_c, 9, 44, 95
3, 680640, Note_on_c, 9, 44, 95
3, 681600, Note_off_c, 9, 44, 95
3, 681600, Note_on_c, 9, 44, 95
3, 682560, Note_off_c, 9, 44, 95
3, 682560, Note_on_c, 9, 40, 95
3, 682560, Note_on_c, 9, 38, 95
3, 682560, Note_on_c, 9, 44, 95
3, 683520, Note_off_c, 9, 40, 95
3, 683520, Note_off_c, 9, 38, 95
3, 683520, Note_off_c, 9, 44, 95
3, 683520, Note_on_c, 9, 44, 95
3, 684480, Note_off_c, 9, 44, 95
3, 684480, Note_on_c, 9, 36, 95
3, 684480, Note_on_c, 9, 44, 95
3, 685440, Note_off_c, 9, 36, 95
3, 685440, Note_off_c, 9, 44, 95
3, 685440, Note_on_c, 9, 36, 95
3, 685440, Note_on_c, 9, 44, 95
3, 686400, Note_off_c, 9, 36, 95
3, 686400, Note_off_c, 9, 44, 95
3, 686400, Note_on_c, 9, 44, 95
3, 687360, Note_off_c, 9, 44, 95
3, 687360, Note_on_c, 9, 44, 95
3, 688320, Note_off_c, 9, 44, 95
3, 688320, Note_on_c, 9, 40, 95
3, 688320, Note_on_c, 9, 38, 95
3, 688320, Note_on_c, 9, 44, 95
3, 689280, Note_off_c, 9, 40, 95
3, 689280, Note_off_c, 9, 38, 95
3, 689280, Note_off_c, 9, 44, 95
3, 689280, Note_on_c, 9, 44, 95
3, 690240, Note_off_c, 9, 44, 95
3, 690240, Note_on_c, 9, 36, 95
3, 690240, Note_on_c, 9, 44, 95
3, 691200, Note_off_c, 9, 36, 95
3, 691200, Note_off_c, 9, 44, 95
3, 691200, Note_on_c, 9, 36, 95
3, 691200, Note_on_c, 9, 44, 95
3, 692160, Note_off_c, 9, 36, 95
3, 692160, Note_off_c, 9, 44, 95
3, 692160, Note_on_c, 9, 44, 95
3, 693120, Note_off_c, 9, 44, 95
3, 693120, Note_on_c, 9, 44, 95
3, 694080, Note_off_c, 9, 44, 95
3, 694080, Note_on_c, 9, 40, 95
3, 694080, Note_on_c, 9, 38, 95
3, 694080, Note_on_c, 9, 44, 95
3, 695040, Note_off_c, 9, 40, 95
3, 695040, Note_off_c, 9, 38, 95
3, 695040, Note_off_c, 9, 44, 95
3, 695040, Note_on_c, 9, 44, 95
3, 696000, Note_off_c, 9, 44, 95
3, 696000, Note_on_c, 9, 36, 95
3, 696000, Note_on_c, 9, 44, 95
3, 696960, Note_off_c, 9, 36, 95
3, 696960, Note_off_c, 9, 44, 95
3, 696960, Note_on_c, 9, 36, 95
3, 696960, Note_on_c, 9, 44, 95
3, 697920, Note_off_c, 9, 36, 95
3, 697920, Note_off_c, 9, 44, 95
3, 697920, Note_on_c, 9, 44, 95
3, 698880, Note_off_c, 9, 44, 95
3, 698880, Note_on_c, 9, 44, 95
3, 699840, Note_off_c, 9, 44, 95
3, 699840, Note_on_c, 9, 40, 95
3, 699840, Note_on_c, 9, 38, 95
3, 699840, Note_on_c, 9, 44, 95
3, 700800, Note_off_c, 9, 40, 95
3, 700800, Note_off_c, 9, 38, 95
3, 700800, Note_off_c, 9, 44, 95
3, 700800, Note_on_c, 9, 44, 95
3, 701760, Note_off_c, 9, 44, 95
3, 701760, Note_on_c, 9, 36, 95
3, 701760, Note_on_c, 9, 44, 95
3, 702720, Note_off_c, 9, 36, 95
3, 702720, Note_off_c, 9, 44, 95
3, 702720, Note_on_c, 9, 36, 95
3, 702720, Note_on_c, 9, 44, 95
3, 703680, Note_off_c, 9, 36, 95
3, 703680, Note_off_c, 9, 44, 95
3, 703680, Note_on_c, 9, 44, 95
3, 704640, Note_off_c, 9, 44, 95
3, 704640, Note_on_c, 9, 44, 95
3, 705600, Note_off_c, 9, 44, 95
3, 705600, Note_on_c, 9, 40, 95
3, 705600, Note_on_c, 9, 38, 95
3, 705600, Note_on_c, 9, 44, 95
3, 706560, Note_off_c, 9, 40, 95
3, 706560, Note_off_c, 9, 38, 95
3, 706560, Note_off_c, 9, 44, 95
3, 706560, Note_on_c, 9, 44, 95
3, 707520, Note_off_c, 9, 44, 95
3, 707520, Note_on_c, 9, 36, 95
3, 707520, Note_on_c, 9, 44, 95
3, 708480, Note_off_c, 9, 36, 95
3, 708480, Note_off_c, 9, 44, 95
3, 708480, Note_on_c, 9, 36, 95
3, 708480, Note_on_c, 9, 44, 95
3, 709440, Note_off_c, 9, 36, 95
3, 709440, Note_off_c, 9, 44, 95
3, 709440, Note_on_c, 9, 44, 95
3, 710400, Note_off_c, 9, 44, 95
3, 710400, Note_on_c, 9, 44, 95
3, 711360, Note_off_c, 9, 44, 95
3, 711360, Note_on_c, 9, 40, 95
3, 711360, Note_on_c, 9, 38, 95
3, 711360, Note_on_c, 9, 44, 95
3, 712320, Note_off_c, 9, 40, 95
3, 712320, Note_off_c, 9, 38, 95
3, 712320, Note_off_c, 9, 44, 95
3, 712320, Note_on_c, 9, 44, 95
3, 713280, Note_off_c, 9, 44, 95
3, 713280, Note_on_c, 9, 36, 95
3, 713280, Note_on_c, 9, 44, 95
3, 714240, Note_off_c, 9, 36, 95
3, 714240, Note_off_c, 9, 44, 95
3, 714240, Note_on_c, 9, 36, 95
3, 714240, Note_on_c, 9, 44, 95
3, 715200, Note_off_c, 9, 36, 95
3, 715200, Note_off_c, 9, 44, 95
3, 715200, Note_on_c, 9, 44, 95
3, 716160, Note_off_c, 9, 44, 95
3, 716160, Note_on_c, 9, 44, 95
3, 717120, Note_off_c, 9, 44, 95
3, 717120, Note_on_c, 9, 40, 95
3, 717120, Note_on_c, 9, 38, 95
3, 717120, Note_on_c, 9, 44, 95
3, 718080, Note_off_c, 9, 40, 95
3, 718080, Note_off_c, 9, 38, 95
3, 718080, Note_off_c, 9, 44, 95
3, 718080, Note_on_c, 9, 44, 95
3, 719040, Note_off_c, 9, 44, 95
3, 719040, Note_on_c, 9, 36, 95
3, 719040, Note_on_c, 9, 44, 95
3, 720000, Note_off_c, 9, 36, 95
3, 720000, Note_off_c, 9, 44, 95
3, 720000, Note_on_c, 9, 36, 95
3, 720000, Note_on_c, 9, 44, 95
3, 720960, Note_off_c, 9, 36, 95
3, 720960, Note_off_c, 9, 44, 95
3, 720960, Note_on_c, 9, 36, 95
3, 720960, Note_on_c, 9, 44, 95
3, 721920, Note_off_c, 9, 36, 95
3, 721920, Note_off_c, 9, 44, 95
3, 721920, Note_on_c, 9, 36, 95
3, 721920, Note_on_c, 9, 44, 95
3, 722880, Note_off_c, 9, 36, 95
3, 722880, Note_off_c, 9, 44, 95
3, 722880, Note_on_c, 9, 36, 95
3, 722880, Note_on_c, 9, 44, 95
3, 723840, Note_off_c, 9, 36, 95
3, 723840, Note_off_c, 9, 44, 95
3, 723840, Note_on_c, 9, 36, 95
3, 723840, Note_on_c, 9, 44, 95
3, 724800, Note_off_c, 9, 36, 95
3, 724800, Note_off_c, 9, 44, 95
3, 724800, Note_on_c, 9, 36, 95
3, 724800, Note_on_c, 9, 44, 95
3, 725760, Note_off_c, 9, 36, 95
3, 725760, Note_off_c, 9, 44, 95
3, 725760, End_track
4, 0, Start_track
4, 0, Pitch_bend_c, 2, 8192
4, 0, Control_c, 2, 7, 103
4, 0, Control_c, 2, 10, 63
4, 0, Control_c, 2, 93, 0
4, 0, Control_c, 2, 91, 0
4, 0, Control_c, 2, 95, 0
4, 0, Control_c, 2, 92, 0
4, 0, Control_c, 2, 11, 127
4, 0, Program_c, 2, 30
4, 0, Control_c, 3, 7, 103
4, 0, Control_c, 3, 10, 63
4, 0, Control_c, 3, 93, 0
4, 0, Control_c, 3, 91, 0
4, 0, Control_c, 3, 95, 0
4, 0, Control_c, 3, 92, 0
4, 0, Control_c, 3, 11, 127
4, 0, Program_c, 3, 30
4, 42240, Note_on_c, 2, 55, 95
4, 43200, Note_off_c, 2, 55, 95
4, 43200, Note_on_c, 2, 65, 95
4, 45120, Note_off_c, 2, 65, 95
4, 45120, Note_on_c, 2, 64, 95
4, 46080, Note_off_c, 2, 64, 95
4, 46080, Note_on_c, 3, 64, 95
4, 46240, Pitch_bend_c, 3, 8192
4, 46400, Pitch_bend_c, 3, 8320
4, 46560, Pitch_bend_c, 3, 8192
4, 46720, Pitch_bend_c, 3, 8320
4, 46880, Pitch_bend_c, 3, 8192
4, 47040, Pitch_bend_c, 3, 8320
4, 47200, Pitch_bend_c, 3, 8192
4, 47360, Pitch_bend_c, 3, 8320
4, 47520, Pitch_bend_c, 3, 8192
4, 47680, Pitch_bend_c, 3, 8320
4, 47840, Pitch_bend_c, 3, 8192
4, 48000, Pitch_bend_c, 3, 8320
4, 48160, Pitch_bend_c, 3, 8192
4, 48320, Pitch_bend_c, 3, 8320
4, 48480, Pitch_bend_c, 3, 8192
4, 48640, Pitch_bend_c, 3, 8320
4, 48800, Pitch_bend_c, 3, 8192
4, 48960, Pitch_bend_c, 3, 8320
4, 49120, Pitch_bend_c, 3, 8192
4, 49280, Pitch_bend_c, 3, 8320
4, 49440, Pitch_bend_c, 3, 8192
4, 49600, Pitch_bend_c, 3, 8320
4, 49760, Pitch_bend_c, 3, 8192
4, 49920, Pitch_bend_c, 3, 8320
4, 49920, Pitch_bend_c, 3, 8192
4, 49920, Note_off_c, 3, 64, 95
4, 53760, Note_on_c, 3, 50, 95
4, 53880, Pitch_bend_c, 3, 8320
4, 54000, Pitch_bend_c, 3, 8448
4, 54120, Pitch_bend_c, 3, 8704
4, 54240, Pitch_bend_c, 3, 8832
4, 54360, Pitch_bend_c, 3, 8960
4, 54480, Pitch_bend_c, 3, 9216
4, 54600, Pitch_bend_c, 3, 9344
4, 54720, Pitch_bend_c, 3, 9600
4, 54720, Pitch_bend_c, 3, 8192
4, 54720, Note_off_c, 3, 50, 95
4, 54720, Note_on_c, 2, 52, 95
4, 55680, Note_off_c, 2, 52, 95
4, 55680, Note_on_c, 2, 62, 95
4, 56640, Note_off_c, 2, 62, 95
4, 56640, Note_on_c, 2, 57, 95
4, 57600, Note_off_c, 2, 57, 95
4, 57600, Note_on_c, 3, 60, 95
4, 57760, Pitch_bend_c, 3, 8192
4, 57920, Pitch_bend_c, 3, 8320
4, 58080, Pitch_bend_c, 3, 8192
4, 58240, Pitch_bend_c, 3, 8320
4, 58400, Pitch_bend_c, 3, 8192
4, 58560, Pitch_bend_c, 3, 8320
4, 58720, Pitch_bend_c, 3, 8192
4, 58880, Pitch_bend_c, 3, 8320
4, 59040, Pitch_bend_c, 3, 8192
4, 59200, Pitch_bend_c, 3, 8320
4, 59360, Pitch_bend_c, 3, 8192
4, 59520, Pitch_bend_c, 3, 8320
4, 59680, Pitch_bend_c, 3, 8192
4, 59840, Pitch_bend_c, 3, 8320
4, 60000, Pitch_bend_c, 3, 8192
4, 60160, Pitch_bend_c, 3, 8320
4, 60320, Pitch_bend_c, 3, 8192
4, 60480, Pitch_bend_c, 3, 8320
4, 60640, Pitch_bend_c, 3, 8192
4, 60800, Pitch_bend_c, 3, 8320
4, 60960, Pitch_bend_c, 3, 8192
4, 61120, Pitch_bend_c, 3, 8320
4, 61280, Pitch_bend_c, 3, 8192
4, 61440, Pitch_bend_c, 3, 8320
4, 61440, Pitch_bend_c, 3, 8192
4, 61440, Note_off_c, 3, 60, 95
4, 65280, Note_on_c, 2, 57, 95
4, 66240, Note_off_c, 2, 57, 95
4, 66240, Note_on_c, 2, 67, 95
4, 68160, Note_off_c, 2, 67, 95
4, 68160, Note_on_c, 2, 65, 95
4, 69120, Note_off_c, 2, 65, 95
4, 69120, Note_on_c, 3, 65, 95
4, 69280, Pitch_bend_c, 3, 8192
4, 69440, Pitch_bend_c, 3, 8320
4, 69600, Pitch_bend_c, 3, 8192
4, 69760, Pitch_bend_c, 3, 8320
4, 69920, Pitch_bend_c, 3, 8192
4, 70080, Pitch_bend_c, 3, 8320
4, 70240, Pitch_bend_c, 3, 8192
4, 70400, Pitch_bend_c, 3, 8320
4, 70560, Pitch_bend_c, 3, 8192
4, 70720, Pitch_bend_c, 3, 8320
4, 70880, Pitch_bend_c, 3, 8192
4, 71040, Pitch_bend_c, 3, 8320
4, 71200, Pitch_bend_c, 3, 8192
4, 71360, Pitch_bend_c, 3, 8320
4, 71520, Pitch_bend_c, 3, 8192
4, 71680, Pitch_bend_c, 3, 8320
4, 71840, Pitch_bend_c, 3, 8192
4, 72000, Pitch_bend_c, 3, 8320
4, 72160, Pitch_bend_c, 3, 8192
4, 72320, Pitch_bend_c, 3, 8320
4, 72480, Pitch_bend_c, 3, 8192
4, 72640, Pitch_bend_c, 3, 8320
4, 72800, Pitch_bend_c, 3, 8192
4, 72960, Pitch_bend_c, 3, 8320
4, 73120, Pitch_bend_c, 3, 8192
4, 73280, Pitch_bend_c, 3, 8320
4, 73440, Pitch_bend_c, 3, 8192
4, 73600, Pitch_bend_c, 3, 8320
4, 73760, Pitch_bend_c, 3, 8192
4, 73920, Pitch_bend_c, 3, 8320
4, 74080, Pitch_bend_c, 3, 8192
4, 74240, Pitch_bend_c, 3, 8320
4, 74400, Pitch_bend_c, 3, 8192
4, 74560, Pitch_bend_c, 3, 8320
4, 74720, Pitch_bend_c, 3, 8192
4, 74880, Pitch_bend_c, 3, 8320
4, 74880, Pitch_bend_c, 3, 8192
4, 74880, Note_off_c, 3, 65, 95
4, 77760, Note_on_c, 2, 65, 95
4, 78720, Note_off_c, 2, 65, 95
4, 78720, Note_on_c, 2, 64, 95
4, 80160, Note_off_c, 2, 64, 95
4, 80160, Note_on_c, 2, 62, 95
4, 80400, Note_off_c, 2, 62, 95
4, 80400, Note_on_c, 2, 60, 95
4, 80640, Note_off_c, 2, 60, 95
4, 80640, Note_on_c, 2, 62, 95
4, 86400, Note_off_c, 2, 62, 95
4, 88320, Note_on_c, 2, 55, 95
4, 89280, Note_off_c, 2, 55, 95
4, 89280, Note_on_c, 2, 67, 95
4, 90240, Note_off_c, 2, 67, 95
4, 90240, Note_on_c, 2, 64, 95
4, 91680, Note_off_c, 2, 64, 95
4, 91680, Note_on_c, 2, 62, 95
4, 92160, Note_off_c, 2, 62, 95
4, 92160, Note_on_c, 2, 64, 95
4, 92400, Note_off_c, 2, 64, 95
4, 92400, Note_on_c, 2, 62, 95
4, 92640, Note_off_c, 2, 62, 95
4, 92640, Note_on_c, 2, 60, 95
4, 97920, Note_off_c, 2, 60, 95
4, 99840, Note_on_c, 3, 50, 95
4, 99960, Pitch_bend_c, 3, 8320
4, 100080, Pitch_bend_c, 3, 8448
4, 100200, Pitch_bend_c, 3, 8704
4, 100320, Pitch_bend_c, 3, 8832
4, 100440, Pitch_bend_c, 3, 8960
4, 100560, Pitch_bend_c, 3, 9216
4, 100680, Pitch_bend_c, 3, 9344
4, 100800, Pitch_bend_c, 3, 9600
4, 100800, Pitch_bend_c, 3, 8192
4, 100800, Note_off_c, 3, 50, 95
4, 100800, Note_on_c, 2, 52, 95
4, 101760, Note_off_c, 2, 52, 95
4, 101760, Note_on_c, 2, 62, 95
4, 102720, Note_off_c, 2, 62, 95
4, 102720, Note_on_c, 2, 57, 95
4, 103680, Note_off_c, 2, 57, 95
4, 103680, Note_on_c, 2, 60, 95
4, 109440, Note_off_c, 2, 60, 95
4, 111360, Note_on_c, 2, 57, 95
4, 112320, Note_off_c, 2, 57, 95
4, 112320, Note_on_c, 2, 67, 95
4, 114240, Note_off_c, 2, 67, 95
4, 114240, Note_on_c, 2, 65, 95
4, 115200, Note_off_c, 2, 65, 95
4, 115200, Note_on_c, 3, 65, 95
4, 115360, Pitch_bend_c, 3, 8192
4, 115520, Pitch_bend_c, 3, 8320
4, 115680, Pitch_bend_c, 3, 8192
4, 115840, Pitch_bend_c, 3, 8320
4, 116000, Pitch_bend_c, 3, 8192
4, 116160, Pitch_bend_c, 3, 8320
4, 116320, Pitch_bend_c, 3, 8192
4, 116480, Pitch_bend_c, 3, 8320
4, 116640, Pitch_bend_c, 3, 8192
4, 116800, Pitch_bend_c, 3, 8320
4, 116960, Pitch_bend_c, 3, 8192
4, 117120, Pitch_bend_c, 3, 8320
4, 117280, Pitch_bend_c, 3, 8192
4, 117440, Pitch_bend_c, 3, 8320
4, 117600, Pitch_bend_c, 3, 8192
4, 117760, Pitch_bend_c, 3, 8320
4, 117920, Pitch_bend_c, 3, 8192
4, 118080, Pitch_bend_c, 3, 8320
4, 118240, Pitch_bend_c, 3, 8192
4, 118400, Pitch_bend_c, 3, 8320
4, 118560, Pitch_bend_c, 3, 8192
4, 118720, Pitch_bend_c, 3, 8320
4, 118880, Pitch_bend_c, 3, 8192
4, 119040, Pitch_bend_c, 3, 8320
4, 119200, Pitch_bend_c, 3, 8192
4, 119360, Pitch_bend_c, 3, 8320
4, 119520, Pitch_bend_c, 3, 8192
4, 119680, Pitch_bend_c, 3, 8320
4, 119840, Pitch_bend_c, 3, 8192
4, 120000, Pitch_bend_c, 3, 8320
4, 120160, Pitch_bend_c, 3, 8192
4, 120320, Pitch_bend_c, 3, 8320
4, 120480, Pitch_bend_c, 3, 8192
4, 120640, Pitch_bend_c, 3, 8320
4, 120800, Pitch_bend_c, 3, 8192
4, 120960, Pitch_bend_c, 3, 8320
4, 120960, Pitch_bend_c, 3, 8192
4, 120960, Note_off_c, 3, 65, 95
4, 123840, Note_on_c, 2, 65, 95
4, 124800, Note_off_c, 2, 65, 95
4, 124800, Note_on_c, 2, 64, 95
4, 126720, Note_off_c, 2, 64, 95
4, 126720, Note_on_c, 2, 62, 95
4, 126960, Note_off_c, 2, 62, 95
4, 126960, Note_on_c, 2, 60, 95
4, 127200, Note_off_c, 2, 60, 95
4, 127200, Note_on_c, 2, 62, 95
4, 129120, Note_off_c, 2, 62, 95
4, 139200, Note_on_c, 3, 55, 95
4, 139320, Pitch_bend_c, 3, 8320
4, 139440, Pitch_bend_c, 3, 8448
4, 139560, Pitch_bend_c, 3, 8704
4, 139680, Pitch_bend_c, 3, 8832
4, 139800, Pitch_bend_c, 3, 8960
4, 139920, Pitch_bend_c, 3, 9216
4, 140040, Pitch_bend_c, 3, 9344
4, 140160, Pitch_bend_c, 3, 9600
4, 140160, Pitch_bend_c, 3, 8192
4, 140160, Note_off_c, 3, 55, 95
4, 140160, Note_on_c, 2, 57, 95
4, 140640, Note_off_c, 2, 57, 95
4, 140640, Note_on_c, 3, 60, 95
4, 140800, Pitch_bend_c, 3, 8192
4, 140960, Pitch_bend_c, 3, 8320
4, 141120, Pitch_bend_c, 3, 8192
4, 141280, Pitch_bend_c, 3, 8320
4, 141440, Pitch_bend_c, 3, 8192
4, 141600, Pitch_bend_c, 3, 8320
4, 141760, Pitch_bend_c, 3, 8192
4, 141920, Pitch_bend_c, 3, 8320
4, 142080, Pitch_bend_c, 3, 8192
4, 142240, Pitch_bend_c, 3, 8320
4, 142400, Pitch_bend_c, 3, 8192
4, 142560, Pitch_bend_c, 3, 8320
4, 142560, Pitch_bend_c, 3, 8192
4, 142560, Note_off_c, 3, 60, 95
4, 146880, Note_on_c, 3, 60, 95
4, 147000, Pitch_bend_c, 3, 8320
4, 147120, Pitch_bend_c, 3, 8448
4, 147240, Pitch_bend_c, 3, 8704
4, 147360, Pitch_bend_c, 3, 8832
4, 147480, Pitch_bend_c, 3, 8960
4, 147600, Pitch_bend_c, 3, 9216
4, 147720, Pitch_bend_c, 3, 9344
4, 147840, Pitch_bend_c, 3, 9600
4, 147840, Pitch_bend_c, 3, 8192
4, 147840, Note_off_c, 3, 60, 95
4, 147840, Note_on_c, 3, 62, 95
4, 147960, Pitch_bend_c, 3, 8320
4, 148080, Pitch_bend_c, 3, 8448
4, 148200, Pitch_bend_c, 3, 8704
4, 148320, Pitch_bend_c, 3, 8832
4, 148440, Pitch_bend_c, 3, 8960
4, 148560, Pitch_bend_c, 3, 9216
4, 148680, Pitch_bend_c, 3, 9344
4, 148800, Pitch_bend_c, 3, 9600
4, 148800, Pitch_bend_c, 3, 8192
4, 148800, Note_off_c, 3, 62, 95
4, 148800, Note_on_c, 2, 64, 95
4, 149760, Note_off_c, 2, 64, 95
4, 149760, Note_on_c, 2, 60, 95
4, 155520, Note_off_c, 2, 60, 95
4, 158400, Note_on_c, 2, 64, 95
4, 160800, Note_off_c, 2, 64, 95
4, 160800, Note_on_c, 2, 67, 95
4, 161280, Note_off_c, 2, 67, 95
4, 161280, Note_on_c, 3, 64, 95
4, 161400, Pitch_bend_c, 3, 7936
4, 161520, Pitch_bend_c, 3, 7552
4, 161640, Pitch_bend_c, 3, 7168
4, 161760, Pitch_bend_c, 3, 6784
4, 161760, Pitch_bend_c, 3, 8192
4, 161760, Note_off_c, 3, 64, 95
4, 161760, Note_on_c, 2, 62, 95
4, 165600, Note_off_c, 2, 62, 95
4, 172800, Note_on_c, 2, 55, 95
4, 173040, Note_off_c, 2, 55, 95
4, 173040, Note_on_c, 2, 57, 95
4, 173520, Note_off_c, 2, 57, 95
4, 173520, Note_on_c, 2, 60, 95
4, 177360, Note_off_c, 2, 60, 95
4, 177360, Note_on_c, 2, 62, 95
4, 178320, Note_off_c, 2, 62, 95
4, 178320, Note_on_c, 2, 57, 95
4, 178560, Note_off_c, 2, 57, 95
4, 178560, Note_on_c, 2, 60, 95
4, 184320, Note_off_c, 2, 60, 95
4, 184320, Note_on_c, 2, 55, 95
4, 184800, Note_off_c, 2, 55, 95
4, 184800, Note_on_c, 2, 57, 95
4, 185280, Note_off_c, 2, 57, 95
4, 185280, Note_on_c, 2, 60, 95
4, 190080, Note_off_c, 2, 60, 95
4, 348480, Note_on_c, 2, 64, 95
4, 348480, Note_on_c, 2, 55, 95
4, 350880, Note_off_c, 2, 64, 95
4, 350880, Note_off_c, 2, 55, 95
4, 350880, Note_on_c, 2, 65, 95
4, 350880, Note_on_c, 2, 57, 95
4, 351360, Note_off_c, 2, 65, 95
4, 351360, Note_off_c, 2, 57, 95
4, 351360, Note_on_c, 2, 64, 95
4, 351360, Note_on_c, 2, 55, 95
4, 351600, Note_off_c, 2, 64, 95
4, 351600, Note_off_c, 2, 55, 95
4, 351600, Note_on_c, 2, 62, 95
4, 351600, Note_on_c, 2, 53, 95
4, 351840, Note_off_c, 2, 62, 95
4, 351840, Note_off_c, 2, 53, 95
4, 351840, Note_on_c, 2, 60, 95
4, 351840, Note_on_c, 2, 52, 95
4, 357120, Note_off_c, 2, 60, 95
4, 357120, Note_off_c, 2, 52, 95
4, 360000, Note_on_c, 2, 65, 95
4, 360000, Note_on_c, 2, 57, 95
4, 361920, Note_off_c, 2, 65, 95
4, 361920, Note_off_c, 2, 57, 95
4, 361920, Note_on_c, 2, 64, 95
4, 361920, Note_on_c, 2, 55, 95
4, 362880, Note_off_c, 2, 64, 95
4, 362880, Note_off_c, 2, 55, 95
4, 362880, Note_on_c, 2, 60, 95
4, 362880, Note_on_c, 2, 45, 95
4, 365760, Note_off_c, 2, 60, 95
4, 365760, Note_off_c, 2, 45, 95
4, 371520, Note_on_c, 2, 65, 95
4, 371520, Note_on_c, 2, 57, 95
4, 373920, Note_off_c, 2, 65, 95
4, 373920, Note_off_c, 2, 57, 95
4, 373920, Note_on_c, 2, 67, 95
4, 373920, Note_on_c, 2, 55, 95
4, 374400, Note_off_c, 2, 67, 95
4, 374400, Note_off_c, 2, 55, 95
4, 374400, Note_on_c, 2, 65, 95
4, 374400, Note_on_c, 2, 57, 95
4, 374640, Note_off_c, 2, 65, 95
4, 374640, Note_off_c, 2, 57, 95
4, 374640, Note_on_c, 2, 64, 95
4, 374640, Note_on_c, 2, 55, 95
4, 374880, Note_off_c, 2, 64, 95
4, 374880, Note_off_c, 2, 55, 95
4, 374880, Note_on_c, 2, 62, 95
4, 374880, Note_on_c, 2, 55, 95
4, 380160, Note_off_c, 2, 62, 95
4, 380160, Note_off_c, 2, 55, 95
4, 383040, Note_on_c, 2, 65, 95
4, 383040, Note_on_c, 2, 55, 95
4, 384000, Note_off_c, 2, 65, 95
4, 384000, Note_off_c, 2, 55, 95
4, 384000, Note_on_c, 2, 64, 95
4, 384000, Note_on_c, 2, 55, 95
4, 385920, Note_off_c, 2, 64, 95
4, 385920, Note_off_c, 2, 55, 95
4, 385920, Note_on_c, 2, 62, 95
4, 385920, Note_on_c, 2, 55, 95
4, 386160, Note_off_c, 2, 62, 95
4, 386160, Note_off_c, 2, 55, 95
4, 386160, Note_on_c, 2, 60, 95
4, 386160, Note_on_c, 2, 55, 95
4, 386400, Note_off_c, 2, 60, 95
4, 386400, Note_off_c, 2, 55, 95
4, 386400, Note_on_c, 2, 62, 95
4, 386400, Note_on_c, 2, 55, 95
4, 388800, Note_off_c, 2, 62, 95
4, 388800, Note_off_c, 2, 55, 95
4, 388800, Note_on_c, 2, 67, 95
4, 388800, Note_on_c, 2, 55, 95
4, 389760, Note_off_c, 2, 67, 95
4, 389760, Note_off_c, 2, 55, 95
4, 389760, Note_on_c, 2, 64, 95
4, 389760, Note_on_c, 2, 55, 95
4, 390720, Note_off_c, 2, 64, 95
4, 390720, Note_off_c, 2, 55, 95
4, 390720, Note_on_c, 2, 62, 95
4, 390720, Note_on_c, 2, 55, 95
4, 391680, Note_off_c, 2, 62, 95
4, 391680, Note_off_c, 2, 55, 95
4, 391680, Note_on_c, 2, 64, 95
4, 391680, Note_on_c, 2, 48, 95
4, 391920, Note_off_c, 2, 64, 95
4, 391920, Note_off_c, 2, 48, 95
4, 391920, Note_on_c, 2, 62, 95
4, 391920, Note_on_c, 2, 48, 95
4, 392160, Note_off_c, 2, 62, 95
4, 392160, Note_off_c, 2, 48, 95
4, 392160, Note_on_c, 2, 60, 95
4, 392160, Note_on_c, 2, 48, 95
4, 397440, Note_off_c, 2, 60, 95
4, 397440, Note_off_c, 2, 48, 95
4, 400320, Note_on_c, 2, 57, 95
4, 400320, Note_on_c, 2, 53, 95
4, 402240, Note_off_c, 2, 53, 95
4, 402720, Note_off_c, 2, 57, 95
4, 402720, Note_on_c, 2, 62, 95
4, 402720, Note_on_c, 2, 53, 95
4, 403200, Note_off_c, 2, 62, 95
4, 403200, Note_off_c, 2, 53, 95
4, 403200, Note_on_c, 2, 60, 95
4, 403200, Note_on_c, 2, 48, 95
4, 408960, Note_off_c, 2, 60, 95
4, 408960, Note_off_c, 2, 48, 95
4, 411840, Note_on_c, 2, 65, 95
4, 411840, Note_on_c, 2, 53, 95
4, 414240, Note_off_c, 2, 65, 95
4, 414240, Note_off_c, 2, 53, 95
4, 414240, Note_on_c, 2, 67, 95
4, 414720, Note_off_c, 2, 67, 95
4, 414720, Note_on_c, 2, 65, 95
4, 414960, Note_off_c, 2, 65, 95
4, 414960, Note_on_c, 2, 64, 95
4, 415200, Note_off_c, 2, 64, 95
4, 415200, Note_on_c, 2, 62, 95
4, 419040, Note_off_c, 2, 62, 95
4, 423360, Note_on_c, 2, 65, 95
4, 424320, Note_off_c, 2, 65, 95
4, 424320, Note_on_c, 2, 64, 95
4, 426240, Note_off_c, 2, 64, 95
4, 426240, Note_on_c, 2, 62, 95
4, 426480, Note_off_c, 2, 62, 95
4, 426480, Note_on_c, 2, 60, 95
4, 426720, Note_off_c, 2, 60, 95
4, 426720, Note_on_c, 2, 62, 95
4, 432000, Note_off_c, 2, 62, 95
4, 584640, Note_on_c, 2, 64, 95
4, 584640, Note_on_c, 2, 55, 95
4, 587040, Note_off_c, 2, 64, 95
4, 587040, Note_off_c, 2, 55, 95
4, 587040, Note_on_c, 2, 65, 95
4, 587040, Note_on_c, 2, 57, 95
4, 587520, Note_off_c, 2, 65, 95
4, 587520, Note_off_c, 2, 57, 95
4, 587520, Note_on_c, 2, 64, 95
4, 587520, Note_on_c, 2, 55, 95
4, 587760, Note_off_c, 2, 64, 95
4, 587760, Note_off_c, 2, 55, 95
4, 587760, Note_on_c, 2, 62, 95
4, 587760, Note_on_c, 2, 53, 95
4, 588000, Note_off_c, 2, 62, 95
4, 588000, Note_off_c, 2, 53, 95
4, 588000, Note_on_c, 2, 60, 95
4, 588000, Note_on_c, 2, 52, 95
4, 593280, Note_off_c, 2, 60, 95
4, 593280, Note_off_c, 2, 52, 95
4, 596160, Note_on_c, 2, 65, 95
4, 596160, Note_on_c, 2, 57, 95
4, 598080, Note_off_c, 2, 65, 95
4, 598080, Note_off_c, 2, 57, 95
4, 598080, Note_on_c, 2, 64, 95
4, 598080, Note_on_c, 2, 55, 95
4, 599040, Note_off_c, 2, 64, 95
4, 599040, Note_off_c, 2, 55, 95
4, 599040, Note_on_c, 2, 60, 95
4, 599040, Note_on_c, 2, 45, 95
4, 601920, Note_off_c, 2, 60, 95
4, 601920, Note_off_c, 2, 45, 95
4, 607680, Note_on_c, 2, 65, 95
4, 607680, Note_on_c, 2, 57, 95
4, 610080, Note_off_c, 2, 65, 95
4, 610080, Note_off_c, 2, 57, 95
4, 610080, Note_on_c, 2, 67, 95
4, 610080, Note_on_c, 2, 55, 95
4, 610560, Note_off_c, 2, 67, 95
4, 610560, Note_off_c, 2, 55, 95
4, 610560, Note_on_c, 2, 65, 95
4, 610560, Note_on_c, 2, 57, 95
4, 610800, Note_off_c, 2, 65, 95
4, 610800, Note_off_c, 2, 57, 95
4, 610800, Note_on_c, 2, 64, 95
4, 610800, Note_on_c, 2, 55, 95
4, 611040, Note_off_c, 2, 64, 95
4, 611040, Note_off_c, 2, 55, 95
4, 611040, Note_on_c, 2, 62, 95
4, 611040, Note_on_c, 2, 55, 95
4, 616320, Note_off_c, 2, 62, 95
4, 616320, Note_off_c, 2, 55, 95
4, 619200, Note_on_c, 2, 65, 95
4, 619200, Note_on_c, 2, 55, 95
4, 620160, Note_off_c, 2, 65, 95
4, 620160, Note_off_c, 2, 55, 95
4, 620160, Note_on_c, 2, 64, 95
4, 620160, Note_on_c, 2, 55, 95
4, 622080, Note_off_c, 2, 64, 95
4, 622080, Note_off_c, 2, 55, 95
4, 622080, Note_on_c, 2, 62, 95
4, 622080, Note_on_c, 2, 55, 95
4, 622320, Note_off_c, 2, 62, 95
4, 622320, Note_off_c, 2, 55, 95
4, 622320, Note_on_c, 2, 60, 95
4, 622320, Note_on_c, 2, 55, 95
4, 622560, Note_off_c, 2, 60, 95
4, 622560, Note_off_c, 2, 55, 95
4, 622560, Note_on_c, 2, 62, 95
4, 622560, Note_on_c, 2, 55, 95
4, 624960, Note_off_c, 2, 62, 95
4, 624960, Note_off_c, 2, 55, 95
4, 624960, Note_on_c, 2, 67, 95
4, 624960, Note_on_c, 2, 55, 95
4, 625920, Note_off_c, 2, 67, 95
4, 625920, Note_off_c, 2, 55, 95
4, 625920, Note_on_c, 2, 64, 95
4, 625920, Note_on_c, 2, 55, 95
4, 626880, Note_off_c, 2, 64, 95
4, 626880, Note_off_c, 2, 55, 95
4, 626880, Note_on_c, 2, 62, 95
4, 626880, Note_on_c, 2, 55, 95
4, 627840, Note_off_c, 2, 62, 95
4, 627840, Note_off_c, 2, 55, 95
4, 627840, Note_on_c, 2, 64, 95
4, 627840, Note_on_c, 2, 48, 95
4, 628080, Note_off_c, 2, 64, 95
4, 628080, Note_off_c, 2, 48, 95
4, 628080, Note_on_c, 2, 62, 95
4, 628080, Note_on_c, 2, 48, 95
4, 628320, Note_off_c, 2, 62, 95
4, 628320, Note_off_c, 2, 48, 95
4, 628320, Note_on_c, 2, 60, 95
4, 628320, Note_on_c, 2, 48, 95
4, 633600, Note_off_c, 2, 60, 95
4, 633600, Note_off_c, 2, 48, 95
4, 636480, Note_on_c, 2, 57, 95
4, 636480, Note_on_c, 2, 53, 95
4, 638400, Note_off_c, 2, 53, 95
4, 638880, Note_off_c, 2, 57, 95
4, 638880, Note_on_c, 2, 62, 95
4, 638880, Note_on_c, 2, 53, 95
4, 639360, Note_off_c, 2, 62, 95
4, 639360, Note_off_c, 2, 53, 95
4, 639360, Note_on_c, 2, 60, 95
4, 639360, Note_on_c, 2, 48, 95
4, 645120, Note_off_c, 2, 60, 95
4, 645120, Note_off_c, 2, 48, 95
4, 648000, Note_on_c, 2, 65, 95
4, 648000, Note_on_c, 2, 53, 95
4, 650400, Note_off_c, 2, 65, 95
4, 650400, Note_off_c, 2, 53, 95
4, 650400, Note_on_c, 2, 67, 95
4, 650880, Note_off_c, 2, 67, 95
4, 650880, Note_on_c, 2, 65, 95
4, 651120, Note_off_c, 2, 65, 95
4, 651120, Note_on_c, 2, 64, 95
4, 651360, Note_off_c, 2, 64, 95
4, 651360, Note_on_c, 2, 62, 95
4, 655200, Note_off_c, 2, 62, 95
4, 659520, Note_on_c, 2, 65, 95
4, 660480, Note_off_c, 2, 65, 95
4, 660480, Note_on_c, 2, 64, 95
4, 662400, Note_off_c, 2, 64, 95
4, 662400, Note_on_c, 2, 62, 95
4, 662640, Note_off_c, 2, 62, 95
4, 662640, Note_on_c, 2, 60, 95
4, 662880, Note_off_c, 2, 60, 95
4, 662880, Note_on_c, 2, 62, 95
4, 668160, Note_off_c, 2, 62, 95
4, 702720, Note_on_c, 3, 57, 95
4, 702840, Pitch_bend_c, 3, 8448
4, 702960, Pitch_bend_c, 3, 8704
4, 703080, Pitch_bend_c, 3, 8960
4, 703200, Pitch_bend_c, 3, 9216
4, 703320, Pitch_bend_c, 3, 9472
4, 703440, Pitch_bend_c, 3, 9728
4, 703560, Pitch_bend_c, 3, 9984
4, 703680, Pitch_bend_c, 3, 10240
4, 703680, Pitch_bend_c, 3, 8192
4, 703680, Note_off_c, 3, 57, 95
4, 703680, Note_on_c, 2, 60, 95
4, 707520, Note_off_c, 2, 60, 95
4, 707520, Note_on_c, 2, 62, 95
4, 708000, Note_off_c, 2, 62, 95
4, 708000, Note_on_c, 2, 57, 95
4, 708480, Note_off_c, 2, 57, 95
4, 708480, Note_on_c, 2, 60, 95
4, 714240, Note_off_c, 2, 60, 95
4, 714240, Note_on_c, 3, 57, 95
4, 714360, Pitch_bend_c, 3, 8448
4, 714480, Pitch_bend_c, 3, 8704
4, 714600, Pitch_bend_c, 3, 8960
4, 714720, Pitch_bend_c, 3, 9216
4, 714840, Pitch_bend_c, 3, 9472
4, 714960, Pitch_bend_c, 3, 9728
4, 715080, Pitch_bend_c, 3, 9984
4, 715200, Pitch_bend_c, 3, 10240
4, 715200, Pitch_bend_c, 3, 8192
4, 715200, Note_off_c, 3, 57, 95
4, 715200, Note_on_c, 2, 60, 95
4, 719040, Note_off_c, 2, 60, 95
4, 721920, Note_on_c, 2, 60, 95
4, 722400, Note_off_c, 2, 60, 95
4, 722400, Note_on_c, 2, 57, 95
4, 722880, Note_off_c, 2, 57, 95
4, 722880, Note_on_c, 2, 60, 95
4, 723840, Note_off_c, 2, 60, 95
4, 723840, Note_on_c, 2, 62, 95
4, 724800, Note_off_c, 2, 62, 95
4, 724800, Note_on_c, 2, 64, 95
4, 725760, Note_off_c, 2, 64, 95
4, 725760, Note_on_c, 3, 62, 95
4, 725880, Pitch_bend_c, 3, 8064
4, 726000, Pitch_bend_c, 3, 7936
4, 726120, Pitch_bend_c, 3, 7680
4, 726240, Pitch_bend_c, 3, 7552
4, 726360, Pitch_bend_c, 3, 7424
4, 726480, Pitch_bend_c, 3, 7168
4, 726600, Pitch_bend_c, 3, 7040
4, 726720, Pitch_bend_c, 3, 6784
4, 726720, Pitch_bend_c, 3, 8192
4, 726720, Note_off_c, 3, 62, 95
4, 726720, Note_on_c, 2, 60, 95
4, 731520, Note_off_c, 2, 60, 95
4, 731520, End_track
5, 0, Start_track
5, 0, Pitch_bend_c, 4, 8192
5, 0, Control_c, 4, 7, 127
5, 0, Control_c, 4, 10, 63
5, 0, Control_c, 4, 93, 0
5, 0, Control_c, 4, 91, 0
5, 0, Control_c, 4, 95, 0
5, 0, Control_c, 4, 92, 0
5, 0, Control_c, 4, 11, 127
5, 0, Program_c, 4, 32
5, 0, Control_c, 5, 7, 127
5, 0, Control_c, 5, 10, 63
5, 0, Control_c, 5, 93, 0
5, 0, Control_c, 5, 91, 0
5, 0, Control_c, 5, 95, 0
5, 0, Control_c, 5, 92, 0
5, 0, Control_c, 5, 11, 127
5, 0, Program_c, 5, 32
5, 0, Note_on_c, 4, 36, 95
5, 3840, Note_off_c, 4, 36, 95
5, 3840, Note_on_c, 4, 36, 95
5, 5760, Note_off_c, 4, 36, 95
5, 5760, Note_on_c, 4, 36, 95
5, 9600, Note_off_c, 4, 36, 95
5, 9600, Note_on_c, 4, 36, 95
5, 11520, Note_off_c, 4, 36, 95
5, 11520, Note_on_c, 4, 29, 95
5, 15360, Note_off_c, 4, 29, 95
5, 15360, Note_on_c, 4, 29, 95
5, 17280, Note_off_c, 4, 29, 95
5, 17280, Note_on_c, 4, 29, 95
5, 21120, Note_off_c, 4, 29, 95
5, 21120, Note_on_c, 4, 29, 95
5, 23040, Note_off_c, 4, 29, 95
5, 23040, Note_on_c, 4, 38, 95
5, 26880, Note_off_c, 4, 38, 95
5, 26880, Note_on_c, 4, 38, 95
5, 28800, Note_off_c, 4, 38, 95
5, 28800, Note_on_c, 4, 38, 95
5, 32640, Note_off_c, 4, 38, 95
5, 32640, Note_on_c, 4, 38, 95
5, 34560, Note_off_c, 4, 38, 95
5, 34560, Note_on_c, 4, 31, 95
5, 38400, Note_off_c, 4, 31, 95
5, 38400, Note_on_c, 4, 31, 95
5, 40320, Note_off_c, 4, 31, 95
5, 40320, Note_on_c, 4, 31, 95
5, 44160, Note_off_c, 4, 31, 95
5, 44160, Note_on_c, 4, 31, 95
5, 46080, Note_off_c, 4, 31, 95
5, 46080, Note_on_c, 4, 36, 95
5, 49920, Note_off_c, 4, 36, 95
5, 49920, Note_on_c, 4, 36, 95
5, 51840, Note_off_c, 4, 36, 95
5, 51840, Note_on_c, 4, 36, 95
5, 55680, Note_off_c, 4, 36, 95
5, 55680, Note_on_c, 4, 36, 95
5, 57600, Note_off_c, 4, 36, 95
5, 57600, Note_on_c, 4, 29, 95
5, 61440, Note_off_c, 4, 29, 95
5, 61440, Note_on_c, 4, 29, 95
5, 63360, Note_off_c, 4, 29, 95
5, 63360, Note_on_c, 4, 29, 95
5, 67200, Note_off_c, 4, 29, 95
5, 67200, Note_on_c, 4, 29, 95
5, 69120, Note_off_c, 4, 29, 95
5, 69120, Note_on_c, 4, 38, 95
5, 72960, Note_off_c, 4, 38, 95
5, 72960, Note_on_c, 4, 38, 95
5, 74880, Note_off_c, 4, 38, 95
5, 74880, Note_on_c, 4, 38, 95
5, 78720, Note_off_c, 4, 38, 95
5, 78720, Note_on_c, 4, 38, 95
5, 80640, Note_off_c, 4, 38, 95
5, 80640, Note_on_c, 4, 31, 95
5, 84480, Note_off_c, 4, 31, 95
5, 84480, Note_on_c, 4, 31, 95
5, 86400, Note_off_c, 4, 31, 95
5, 86400, Note_on_c, 4, 31, 95
5, 90240, Note_off_c, 4, 31, 95
5, 90240, Note_on_c, 4, 31, 95
5, 92160, Note_off_c, 4, 31, 95
5, 92160, Note_on_c, 4, 36, 95
5, 96000, Note_off_c, 4, 36, 95
5, 96000, Note_on_c, 4, 36, 95
5, 97920, Note_off_c, 4, 36, 95
5, 97920, Note_on_c, 4, 36, 95
5, 101760, Note_off_c, 4, 36, 95
5, 101760, Note_on_c, 4, 36, 95
5, 103680, Note_off_c, 4, 36, 95
5, 103680, Note_on_c, 4, 29, 95
5, 107520, Note_off_c, 4, 29, 95
5, 107520, Note_on_c, 4, 29, 95
5, 109440, Note_off_c, 4, 29, 95
5, 109440, Note_on_c, 4, 29, 95
5, 113280, Note_off_c, 4, 29, 95
5, 113280, Note_on_c, 4, 29, 95
5, 115200, Note_off_c, 4, 29, 95
5, 115200, Note_on_c, 4, 38, 95
5, 119040, Note_off_c, 4, 38, 95
5, 119040, Note_on_c, 4, 38, 95
5, 120960, Note_off_c, 4, 38, 95
5, 120960, Note_on_c, 4, 38, 95
5, 124800, Note_off_c, 4, 38, 95
5, 124800, Note_on_c, 4, 38, 95
5, 126720, Note_off_c, 4, 38, 95
5, 126720, Note_on_c, 4, 31, 95
5, 130560, Note_off_c, 4, 31, 95
5, 130560, Note_on_c, 4, 31, 95
5, 132480, Note_off_c, 4, 31, 95
5, 132480, Note_on_c, 4, 31, 95
5, 136320, Note_off_c, 4, 31, 95
5, 136320, Note_on_c, 4, 31, 95
5, 138240, Note_off_c, 4, 31, 95
5, 138240, Note_on_c, 4, 33, 95
5, 142080, Note_off_c, 4, 33, 95
5, 142080, Note_on_c, 4, 33, 95
5, 144000, Note_off_c, 4, 33, 95
5, 144000, Note_on_c, 4, 33, 95
5, 147840, Note_off_c, 4, 33, 95
5, 147840, Note_on_c, 4, 33, 95
5, 149760, Note_off_c, 4, 33, 95
5, 149760, Note_on_c, 4, 38, 95
5, 153600, Note_off_c, 4, 38, 95
5, 153600, Note_on_c, 4, 38, 95
5, 155520, Note_off_c, 4, 38, 95
5, 155520, Note_on_c, 4, 38, 95
5, 159360, Note_off_c, 4, 38, 95
5, 159360, Note_on_c, 4, 38, 95
5, 161280, Note_off_c, 4, 38, 95
5, 161280, Note_on_c, 4, 31, 95
5, 165120, Note_off_c, 4, 31, 95
5, 165120, Note_on_c, 4, 31, 95
5, 167040, Note_off_c, 4, 31, 95
5, 167040, Note_on_c, 4, 31, 95
5, 170880, Note_off_c, 4, 31, 95
5, 170880, Note_on_c, 4, 31, 95
5, 172800, Note_off_c, 4, 31, 95
5, 172800, Note_on_c, 4, 29, 95
5, 176640, Note_off_c, 4, 29, 95
5, 176640, Note_on_c, 4, 29, 95
5, 178560, Note_off_c, 4, 29, 95
5, 178560, Note_on_c, 4, 29, 95
5, 182400, Note_off_c, 4, 29, 95
5, 182400, Note_on_c, 4, 29, 95
5, 184320, Note_off_c, 4, 29, 95
5, 184320, Note_on_c, 4, 29, 95
5, 188160, Note_off_c, 4, 29, 95
5, 188160, Note_on_c, 4, 29, 95
5, 190080, Note_off_c, 4, 29, 95
5, 190080, Note_on_c, 4, 29, 95
5, 193920, Note_off_c, 4, 29, 95
5, 193920, Note_on_c, 4, 29, 95
5, 195840, Note_off_c, 4, 29, 95
5, 195840, Note_on_c, 4, 36, 95
5, 199680, Note_off_c, 4, 36, 95
5, 199680, Note_on_c, 4, 36, 95
5, 201600, Note_off_c, 4, 36, 95
5, 201600, Note_on_c, 4, 36, 95
5, 205440, Note_off_c, 4, 36, 95
5, 205440, Note_on_c, 4, 36, 95
5, 207360, Note_off_c, 4, 36, 95
5, 207360, Note_on_c, 4, 29, 95
5, 211200, Note_off_c, 4, 29, 95
5, 211200, Note_on_c, 4, 29, 95
5, 213120, Note_off_c, 4, 29, 95
5, 213120, Note_on_c, 4, 29, 95
5, 216960, Note_off_c, 4, 29, 95
5, 216960, Note_on_c, 4, 29, 95
5, 218880, Note_off_c, 4, 29, 95
5, 218880, Note_on_c, 4, 38, 95
5, 222720, Note_off_c, 4, 38, 95
5, 222720, Note_on_c, 4, 38, 95
5, 224640, Note_off_c, 4, 38, 95
5, 224640, Note_on_c, 4, 38, 95
5, 228480, Note_off_c, 4, 38, 95
5, 228480, Note_on_c, 4, 38, 95
5, 230400, Note_off_c, 4, 38, 95
5, 230400, Note_on_c, 4, 31, 95
5, 234240, Note_off_c, 4, 31, 95
5, 234240, Note_on_c, 4, 31, 95
5, 236160, Note_off_c, 4, 31, 95
5, 236160, Note_on_c, 4, 31, 95
5, 240000, Note_off_c, 4, 31, 95
5, 240000, Note_on_c, 4, 31, 95
5, 241920, Note_off_c, 4, 31, 95
5, 241920, Note_on_c, 4, 36, 95
5, 245760, Note_off_c, 4, 36, 95
5, 245760, Note_on_c, 4, 36, 95
5, 247680, Note_off_c, 4, 36, 95
5, 247680, Note_on_c, 4, 36, 95
5, 251520, Note_off_c, 4, 36, 95
5, 251520, Note_on_c, 4, 36, 95
5, 253440, Note_off_c, 4, 36, 95
5, 253440, Note_on_c, 4, 29, 95
5, 257280, Note_off_c, 4, 29, 95
5, 257280, Note_on_c, 4, 29, 95
5, 259200, Note_off_c, 4, 29, 95
5, 259200, Note_on_c, 4, 29, 95
5, 263040, Note_off_c, 4, 29, 95
5, 263040, Note_on_c, 4, 29, 95
5, 264960, Note_off_c, 4, 29, 95
5, 264960, Note_on_c, 4, 38, 95
5, 268800, Note_off_c, 4, 38, 95
5, 268800, Note_on_c, 4, 38, 95
5, 270720, Note_off_c, 4, 38, 95
5, 270720, Note_on_c, 4, 38, 95
5, 274560, Note_off_c, 4, 38, 95
5, 274560, Note_on_c, 4, 38, 95
5, 276480, Note_off_c, 4, 38, 95
5, 276480, Note_on_c, 4, 31, 95
5, 280320, Note_off_c, 4, 31, 95
5, 280320, Note_on_c, 4, 31, 95
5, 282240, Note_off_c, 4, 31, 95
5, 282240, Note_on_c, 4, 31, 95
5, 286080, Note_off_c, 4, 31, 95
5, 286080, Note_on_c, 4, 31, 95
5, 288000, Note_off_c, 4, 31, 95
5, 288000, Note_on_c, 4, 33, 95
5, 291840, Note_off_c, 4, 33, 95
5, 291840, Note_on_c, 4, 33, 95
5, 293760, Note_off_c, 4, 33, 95
5, 293760, Note_on_c, 4, 33, 95
5, 297600, Note_off_c, 4, 33, 95
5, 297600, Note_on_c, 4, 33, 95
5, 299520, Note_off_c, 4, 33, 95
5, 299520, Note_on_c, 4, 38, 95
5, 303360, Note_off_c, 4, 38, 95
5, 303360, Note_on_c, 4, 38, 95
5, 305280, Note_off_c, 4, 38, 95
5, 305280, Note_on_c, 4, 38, 95
5, 309120, Note_off_c, 4, 38, 95
5, 309120, Note_on_c, 4, 38, 95
5, 311040, Note_off_c, 4, 38, 95
5, 311040, Note_on_c, 4, 31, 95
5, 314880, Note_off_c, 4, 31, 95
5, 314880, Note_on_c, 4, 31, 95
5, 316800, Note_off_c, 4, 31, 95
5, 316800, Note_on_c, 4, 31, 95
5, 320640, Note_off_c, 4, 31, 95
5, 320640, Note_on_c, 4, 31, 95
5, 322560, Note_off_c, 4, 31, 95
5, 322560, Note_on_c, 4, 29, 95
5, 326400, Note_off_c, 4, 29, 95
5, 326400, Note_on_c, 4, 29, 95
5, 328320, Note_off_c, 4, 29, 95
5, 328320, Note_on_c, 4, 29, 95
5, 332160, Note_off_c, 4, 29, 95
5, 332160, Note_on_c, 4, 29, 95
5, 334080, Note_off_c, 4, 29, 95
5, 334080, Note_on_c, 4, 29, 95
5, 337920, Note_off_c, 4, 29, 95
5, 337920, Note_on_c, 4, 29, 95
5, 339840, Note_off_c, 4, 29, 95
5, 339840, Note_on_c, 4, 29, 95
5, 343680, Note_off_c, 4, 29, 95
5, 343680, Note_on_c, 4, 29, 95
5, 345600, Note_off_c, 4, 29, 95
5, 345600, Note_on_c, 4, 36, 95
5, 349440, Note_off_c, 4, 36, 95
5, 349440, Note_on_c, 4, 36, 95
5, 351360, Note_off_c, 4, 36, 95
5, 351360, Note_on_c, 4, 36, 95
5, 355200, Note_off_c, 4, 36, 95
5, 355200, Note_on_c, 4, 36, 95
5, 357120, Note_off_c, 4, 36, 95
5, 357120, Note_on_c, 4, 29, 95
5, 360960, Note_off_c, 4, 29, 95
5, 360960, Note_on_c, 4, 29, 95
5, 362880, Note_off_c, 4, 29, 95
5, 362880, Note_on_c, 4, 29, 95
5, 366720, Note_off_c, 4, 29, 95
5, 366720, Note_on_c, 4, 29, 95
5, 368640, Note_off_c, 4, 29, 95
5, 368640, Note_on_c, 4, 38, 95
5, 372480, Note_off_c, 4, 38, 95
5, 372480, Note_on_c, 4, 38, 95
5, 374400, Note_off_c, 4, 38, 95
5, 374400, Note_on_c, 4, 38, 95
5, 378240, Note_off_c, 4, 38, 95
5, 378240, Note_on_c, 4, 38, 95
5, 380160, Note_off_c, 4, 38, 95
5, 380160, Note_on_c, 4, 31, 95
5, 384000, Note_off_c, 4, 31, 95
5, 384000, Note_on_c, 4, 31, 95
5, 385920, Note_off_c, 4, 31, 95
5, 385920, Note_on_c, 4, 31, 95
5, 389760, Note_off_c, 4, 31, 95
5, 389760, Note_on_c, 4, 31, 95
5, 391680, Note_off_c, 4, 31, 95
5, 391680, Note_on_c, 4, 36, 95
5, 395520, Note_off_c, 4, 36, 95
5, 395520, Note_on_c, 4, 36, 95
5, 397440, Note_off_c, 4, 36, 95
5, 397440, Note_on_c, 4, 36, 95
5, 401280, Note_off_c, 4, 36, 95
5, 401280, Note_on_c, 4, 36, 95
5, 403200, Note_off_c, 4, 36, 95
5, 403200, Note_on_c, 4, 29, 95
5, 407040, Note_off_c, 4, 29, 95
5, 407040, Note_on_c, 4, 29, 95
5, 408960, Note_off_c, 4, 29, 95
5, 408960, Note_on_c, 4, 29, 95
5, 412800, Note_off_c, 4, 29, 95
5, 412800, Note_on_c, 4, 29, 95
5, 414720, Note_off_c, 4, 29, 95
5, 414720, Note_on_c, 4, 38, 95
5, 418560, Note_off_c, 4, 38, 95
5, 418560, Note_on_c, 4, 38, 95
5, 420480, Note_off_c, 4, 38, 95
5, 420480, Note_on_c, 4, 38, 95
5, 424320, Note_off_c, 4, 38, 95
5, 424320, Note_on_c, 4, 38, 95
5, 426240, Note_off_c, 4, 38, 95
5, 426240, Note_on_c, 4, 31, 95
5, 430080, Note_off_c, 4, 31, 95
5, 430080, Note_on_c, 4, 31, 95
5, 432000, Note_off_c, 4, 31, 95
5, 437760, Note_on_c, 4, 36, 95
5, 441600, Note_off_c, 4, 36, 95
5, 441600, Note_on_c, 4, 36, 95
5, 443520, Note_off_c, 4, 36, 95
5, 443520, Note_on_c, 4, 29, 95
5, 447360, Note_off_c, 4, 29, 95
5, 447360, Note_on_c, 4, 29, 95
5, 449280, Note_off_c, 4, 29, 95
5, 449280, Note_on_c, 4, 29, 95
5, 453120, Note_off_c, 4, 29, 95
5, 453120, Note_on_c, 4, 29, 95
5, 455040, Note_off_c, 4, 29, 95
5, 455040, Note_on_c, 4, 38, 95
5, 458880, Note_off_c, 4, 38, 95
5, 458880, Note_on_c, 4, 38, 95
5, 460800, Note_off_c, 4, 38, 95
5, 460800, Note_on_c, 4, 38, 95
5, 464640, Note_off_c, 4, 38, 95
5, 464640, Note_on_c, 4, 38, 95
5, 466560, Note_off_c, 4, 38, 95
5, 466560, Note_on_c, 4, 31, 95
5, 470400, Note_off_c, 4, 31, 95
5, 470400, Note_on_c, 4, 31, 95
5, 472320, Note_off_c, 4, 31, 95
5, 472320, Note_on_c, 4, 31, 95
5, 476160, Note_off_c, 4, 31, 95
5, 476160, Note_on_c, 4, 31, 95
5, 478080, Note_off_c, 4, 31, 95
5, 478080, Note_on_c, 4, 36, 95
5, 481920, Note_off_c, 4, 36, 95
5, 481920, Note_on_c, 4, 36, 95
5, 483840, Note_off_c, 4, 36, 95
5, 483840, Note_on_c, 4, 36, 95
5, 487680, Note_off_c, 4, 36, 95
5, 487680, Note_on_c, 4, 36, 95
5, 489600, Note_off_c, 4, 36, 95
5, 489600, Note_on_c, 4, 29, 95
5, 493440, Note_off_c, 4, 29, 95
5, 493440, Note_on_c, 4, 29, 95
5, 495360, Note_off_c, 4, 29, 95
5, 495360, Note_on_c, 4, 29, 95
5, 499200, Note_off_c, 4, 29, 95
5, 499200, Note_on_c, 4, 29, 95
5, 501120, Note_off_c, 4, 29, 95
5, 501120, Note_on_c, 4, 38, 95
5, 504960, Note_off_c, 4, 38, 95
5, 504960, Note_on_c, 4, 38, 95
5, 506880, Note_off_c, 4, 38, 95
5, 506880, Note_on_c, 4, 38, 95
5, 510720, Note_off_c, 4, 38, 95
5, 510720, Note_on_c, 4, 38, 95
5, 512640, Note_off_c, 4, 38, 95
5, 512640, Note_on_c, 4, 31, 95
5, 516480, Note_off_c, 4, 31, 95
5, 516480, Note_on_c, 4, 31, 95
5, 518400, Note_off_c, 4, 31, 95
5, 518400, Note_on_c, 4, 31, 95
5, 522240, Note_off_c, 4, 31, 95
5, 522240, Note_on_c, 4, 31, 95
5, 524160, Note_off_c, 4, 31, 95
5, 524160, Note_on_c, 4, 33, 95
5, 528000, Note_off_c, 4, 33, 95
5, 528000, Note_on_c, 4, 33, 95
5, 529920, Note_off_c, 4, 33, 95
5, 529920, Note_on_c, 4, 33, 95
5, 533760, Note_off_c, 4, 33, 95
5, 533760, Note_on_c, 4, 33, 95
5, 535680, Note_off_c, 4, 33, 95
5, 535680, Note_on_c, 4, 38, 95
5, 539520, Note_off_c, 4, 38, 95
5, 539520, Note_on_c, 4, 38, 95
5, 541440, Note_off_c, 4, 38, 95
5, 541440, Note_on_c, 4, 38, 95
5, 545280, Note_off_c, 4, 38, 95
5, 545280, Note_on_c, 4, 38, 95
5, 547200, Note_off_c, 4, 38, 95
5, 547200, Note_on_c, 4, 31, 95
5, 551040, Note_off_c, 4, 31, 95
5, 551040, Note_on_c, 4, 31, 95
5, 552960, Note_off_c, 4, 31, 95
5, 552960, Note_on_c, 4, 31, 95
5, 556800, Note_off_c, 4, 31, 95
5, 556800, Note_on_c, 4, 31, 95
5, 558720, Note_off_c, 4, 31, 95
5, 558720, Note_on_c, 4, 29, 95
5, 562560, Note_off_c, 4, 29, 95
5, 562560, Note_on_c, 4, 29, 95
5, 564480, Note_off_c, 4, 29, 95
5, 564480, Note_on_c, 4, 29, 95
5, 568320, Note_off_c, 4, 29, 95
5, 568320, Note_on_c, 4, 29, 95
5, 570240, Note_off_c, 4, 29, 95
5, 570240, Note_on_c, 4, 29, 95
5, 574080, Note_off_c, 4, 29, 95
5, 574080, Note_on_c, 4, 29, 95
5, 576000, Note_off_c, 4, 29, 95
5, 576000, Note_on_c, 4, 29, 95
5, 579840, Note_off_c, 4, 29, 95
5, 579840, Note_on_c, 4, 29, 95
5, 581760, Note_off_c, 4, 29, 95
5, 581760, Note_on_c, 4, 36, 95
5, 585600, Note_off_c, 4, 36, 95
5, 585600, Note_on_c, 4, 36, 95
5, 587520, Note_off_c, 4, 36, 95
5, 587520, Note_on_c, 4, 36, 95
5, 591360, Note_off_c, 4, 36, 95
5, 591360, Note_on_c, 4, 36, 95
5, 593280, Note_off_c, 4, 36, 95
5, 593280, Note_on_c, 4, 29, 95
5, 597120, Note_off_c, 4, 29, 95
5, 597120, Note_on_c, 4, 29, 95
5, 599040, Note_off_c, 4, 29, 95
5, 599040, Note_on_c, 4, 29, 95
5, 602880, Note_off_c, 4, 29, 95
5, 602880, Note_on_c, 4, 29, 95
5, 604800, Note_off_c, 4, 29, 95
5, 604800, Note_on_c, 4, 38, 95
5, 608640, Note_off_c, 4, 38, 95
5, 608640, Note_on_c, 4, 38, 95
5, 610560, Note_off_c, 4, 38, 95
5, 610560, Note_on_c, 4, 38, 95
5, 614400, Note_off_c, 4, 38, 95
5, 614400, Note_on_c, 4, 38, 95
5, 616320, Note_off_c, 4, 38, 95
5, 616320, Note_on_c, 4, 31, 95
5, 620160, Note_off_c, 4, 31, 95
5, 620160, Note_on_c, 4, 31, 95
5, 622080, Note_off_c, 4, 31, 95
5, 622080, Note_on_c, 4, 31, 95
5, 625920, Note_off_c, 4, 31, 95
5, 625920, Note_on_c, 4, 31, 95
5, 627840, Note_off_c, 4, 31, 95
5, 627840, Note_on_c, 4, 36, 95
5, 631680, Note_off_c, 4, 36, 95
5, 631680, Note_on_c, 4, 36, 95
5, 633600, Note_off_c, 4, 36, 95
5, 633600, Note_on_c, 4, 36, 95
5, 637440, Note_off_c, 4, 36, 95
5, 637440, Note_on_c, 4, 36, 95
5, 639360, Note_off_c, 4, 36, 95
5, 639360, Note_on_c, 4, 29, 95
5, 643200, Note_off_c, 4, 29, 95
5, 643200, Note_on_c, 4, 29, 95
5, 645120, Note_off_c, 4, 29, 95
5, 645120, Note_on_c, 4, 29, 95
5, 648960, Note_off_c, 4, 29, 95
5, 648960, Note_on_c, 4, 29, 95
5, 650880, Note_off_c, 4, 29, 95
5, 650880, Note_on_c, 4, 38, 95
5, 654720, Note_off_c, 4, 38, 95
5, 654720, Note_on_c, 4, 38, 95
5, 656640, Note_off_c, 4, 38, 95
5, 656640, Note_on_c, 4, 38, 95
5, 660480, Note_off_c, 4, 38, 95
5, 660480, Note_on_c, 4, 38, 95
5, 662400, Note_off_c, 4, 38, 95
5, 662400, Note_on_c, 4, 31, 95
5, 666240, Note_off_c, 4, 31, 95
5, 666240, Note_on_c, 4, 31, 95
5, 668160, Note_off_c, 4, 31, 95
5, 668160, Note_on_c, 4, 33, 95
5, 672000, Note_off_c, 4, 33, 95
5, 672000, Note_on_c, 4, 33, 95
5, 673920, Note_off_c, 4, 33, 95
5, 673920, Note_on_c, 4, 33, 95
5, 677760, Note_off_c, 4, 33, 95
5, 677760, Note_on_c, 4, 33, 95
5, 679680, Note_off_c, 4, 33, 95
5, 679680, Note_on_c, 4, 38, 95
5, 683520, Note_off_c, 4, 38, 95
5, 683520, Note_on_c, 4, 38, 95
5, 685440, Note_off_c, 4, 38, 95
5, 685440, Note_on_c, 4, 38, 95
5, 689280, Note_off_c, 4, 38, 95
5, 689280, Note_on_c, 4, 38, 95
5, 691200, Note_off_c, 4, 38, 95
5, 691200, Note_on_c, 4, 31, 95
5, 695040, Note_off_c, 4, 31, 95
5, 695040, Note_on_c, 4, 31, 95
5, 696960, Note_off_c, 4, 31, 95
5, 696960, Note_on_c, 4, 31, 95
5, 700800, Note_off_c, 4, 31, 95
5, 700800, Note_on_c, 4, 31, 95
5, 702720, Note_off_c, 4, 31, 95
5, 702720, Note_on_c, 4, 29, 95
5, 706560, Note_off_c, 4, 29, 95
5, 706560, Note_on_c, 4, 29, 95
5, 708480, Note_off_c, 4, 29, 95
5, 708480, Note_on_c, 4, 29, 95
5, 712320, Note_off_c, 4, 29, 95
5, 712320, Note_on_c, 4, 29, 95
5, 714240, Note_off_c, 4, 29, 95
5, 714240, Note_on_c, 4, 29, 95
5, 718080, Note_off_c, 4, 29, 95
5, 718080, Note_on_c, 4, 29, 95
5, 720000, Note_off_c, 4, 29, 95
5, 720000, Note_on_c, 4, 29, 95
5, 725760, Note_off_c, 4, 29, 95
5, 725760, Note_on_c, 4, 36, 95
5, 731520, Note_off_c, 4, 36, 95
5, 731520, End_track
6, 0, Start_track
6, 0, Pitch_bend_c, 6, 8192
6, 0, Control_c, 6, 7, 103
6, 0, Control_c, 6, 10, 63
6, 0, Control_c, 6, 93, 0
6, 0, Control_c, 6, 91, 0
6, 0, Control_c, 6, 95, 0
6, 0, Control_c, 6, 92, 0
6, 0, Control_c, 6, 11, 127
6, 0, Program_c, 6, 1
6, 0, Control_c, 7, 7, 103
6, 0, Control_c, 7, 10, 63
6, 0, Control_c, 7, 93, 0
6, 0, Control_c, 7, 91, 0
6, 0, Control_c, 7, 95, 0
6, 0, Control_c, 7, 92, 0
6, 0, Control_c, 7, 11, 127
6, 0, Program_c, 7, 1
6, 0, Note_on_c, 6, 64, 95
6, 0, Note_on_c, 6, 60, 95
6, 0, Note_on_c, 6, 55, 95
6, 0, Note_on_c, 6, 52, 95
6, 0, Note_on_c, 6, 48, 95
6, 3840, Note_off_c, 6, 64, 95
6, 3840, Note_off_c, 6, 60, 95
6, 3840, Note_off_c, 6, 55, 95
6, 3840, Note_off_c, 6, 52, 95
6, 3840, Note_off_c, 6, 48, 95
6, 3840, Note_on_c, 6, 64, 95
6, 3840, Note_on_c, 6, 60, 95
6, 3840, Note_on_c, 6, 55, 95
6, 3840, Note_on_c, 6, 52, 95
6, 3840, Note_on_c, 6, 48, 95
6, 5760, Note_off_c, 6, 64, 95
6, 5760, Note_off_c, 6, 60, 95
6, 5760, Note_off_c, 6, 55, 95
6, 5760, Note_off_c, 6, 52, 95
6, 5760, Note_off_c, 6, 48, 95
6, 5760, Note_on_c, 6, 64, 95
6, 5760, Note_on_c, 6, 60, 95
6, 5760, Note_on_c, 6, 55, 95
6, 5760, Note_on_c, 6, 52, 95
6, 5760, Note_on_c, 6, 48, 95
6, 9600, Note_off_c, 6, 64, 95
6, 9600, Note_off_c, 6, 60, 95
6, 9600, Note_off_c, 6, 55, 95
6, 9600, Note_off_c, 6, 52, 95
6, 9600, Note_off_c, 6, 48, 95
6, 9600, Note_on_c, 6, 64, 95
6, 9600, Note_on_c, 6, 60, 95
6, 9600, Note_on_c, 6, 55, 95
6, 9600, Note_on_c, 6, 52, 95
6, 9600, Note_on_c, 6, 48, 95
6, 11520, Note_off_c, 6, 64, 95
6, 11520, Note_off_c, 6, 60, 95
6, 11520, Note_off_c, 6, 55, 95
6, 11520, Note_off_c, 6, 52, 95
6, 11520, Note_off_c, 6, 48, 95
6, 11520, Note_on_c, 6, 65, 95
6, 11520, Note_on_c, 6, 60, 95
6, 11520, Note_on_c, 6, 57, 95
6, 11520, Note_on_c, 6, 53, 95
6, 11520, Note_on_c, 6, 48, 95
6, 11520, Note_on_c, 6, 41, 95
6, 15360, Note_off_c, 6, 65, 95
6, 15360, Note_off_c, 6, 60, 95
6, 15360, Note_off_c, 6, 57, 95
6, 15360, Note_off_c, 6, 53, 95
6, 15360, Note_off_c, 6, 48, 95
6, 15360, Note_off_c, 6, 41, 95
6, 15360, Note_on_c, 6, 65, 95
6, 15360, Note_on_c, 6, 60, 95
6, 15360, Note_on_c, 6, 57, 95
6, 15360, Note_on_c, 6, 53, 95
6, 15360, Note_on_c, 6, 48, 95
6, 15360, Note_on_c, 6, 41, 95
6, 17280, Note_off_c, 6, 65, 95
6, 17280, Note_off_c, 6, 60, 95
6, 17280, Note_off_c, 6, 57, 95
6, 17280, Note_off_c, 6, 53, 95
6, 17280, Note_off_c, 6, 48, 95
6, 17280, Note_off_c, 6, 41, 95
6, 17280, Note_on_c, 6, 65, 95
6, 17280, Note_on_c, 6, 60, 95
6, 17280, Note_on_c, 6, 57, 95
6, 17280, Note_on_c, 6, 53, 95
6, 17280, Note_on_c, 6, 48, 95
6, 17280, Note_on_c, 6, 41, 95
6, 21120, Note_off_c, 6, 65, 95
6, 21120, Note_off_c, 6, 60, 95
6, 21120, Note_off_c, 6, 57, 95
6, 21120, Note_off_c, 6, 53, 95
6, 21120, Note_off_c, 6, 48, 95
6, 21120, Note_off_c, 6, 41, 95
6, 21120, Note_on_c, 6, 65, 95
6, 21120, Note_on_c, 6, 60, 95
6, 21120, Note_on_c, 6, 57, 95
6, 21120, Note_on_c, 6, 53, 95
6, 21120, Note_on_c, 6, 48, 95
6, 21120, Note_on_c, 6, 41, 95
6, 23040, Note_off_c, 6, 65, 95
6, 23040, Note_off_c, 6, 60, 95
6, 23040, Note_off_c, 6, 57, 95
6, 23040, Note_off_c, 6, 53, 95
6, 23040, Note_off_c, 6, 48, 95
6, 23040, Note_off_c, 6, 41, 95
6, 23040, Note_on_c, 6, 65, 95
6, 23040, Note_on_c, 6, 62, 95
6, 23040, Note_on_c, 6, 57, 95
6, 23040, Note_on_c, 6, 50, 95
6, 26880, Note_off_c, 6, 65, 95
6, 26880, Note_off_c, 6, 62, 95
6, 26880, Note_off_c, 6, 57, 95
6, 26880, Note_off_c, 6, 50, 95
6, 26880, Note_on_c, 6, 65, 95
6, 26880, Note_on_c, 6, 62, 95
6, 26880, Note_on_c, 6, 57, 95
6, 26880, Note_on_c, 6, 50, 95
6, 28800, Note_off_c, 6, 65, 95
6, 28800, Note_off_c, 6, 62, 95
6, 28800, Note_off_c, 6, 57, 95
6, 28800, Note_off_c, 6, 50, 95
6, 28800, Note_on_c, 6, 65, 95
6, 28800, Note_on_c, 6, 62, 95
6, 28800, Note_on_c, 6, 57, 95
6, 28800, Note_on_c, 6, 50, 95
6, 32640, Note_off_c, 6, 65, 95
6, 32640, Note_off_c, 6, 62, 95
6, 32640, Note_off_c, 6, 57, 95
6, 32640, Note_off_c, 6, 50, 95
6, 32640, Note_on_c, 6, 65, 95
6, 32640, Note_on_c, 6, 62, 95
6, 32640, Note_on_c, 6, 57, 95
6, 32640, Note_on_c, 6, 50, 95
6, 34560, Note_off_c, 6, 65, 95
6, 34560, Note_off_c, 6, 62, 95
6, 34560, Note_off_c, 6, 57, 95
6, 34560, Note_off_c, 6, 50, 95
6, 34560, Note_on_c, 6, 67, 95
6, 34560, Note_on_c, 6, 59, 95
6, 34560, Note_on_c, 6, 55, 95
6, 34560, Note_on_c, 6, 50, 95
6, 34560, Note_on_c, 6, 47, 95
6, 34560, Note_on_c, 6, 43, 95
6, 38400, Note_off_c, 6, 67, 95
6, 38400, Note_off_c, 6, 59, 95
6, 38400, Note_off_c, 6, 55, 95
6, 38400, Note_off_c, 6, 50, 95
6, 38400, Note_off_c, 6, 47, 95
6, 38400, Note_off_c, 6, 43, 95
6, 38400, Note_on_c, 6, 67, 95
6, 38400, Note_on_c, 6, 59, 95
6, 38400, Note_on_c, 6, 55, 95
6, 38400, Note_on_c, 6, 50, 95
6, 38400, Note_on_c, 6, 47, 95
6, 38400, Note_on_c, 6, 43, 95
6, 40320, Note_off_c, 6, 67, 95
6, 40320, Note_off_c, 6, 59, 95
6, 40320, Note_off_c, 6, 55, 95
6, 40320, Note_off_c, 6, 50, 95
6, 40320, Note_off_c, 6, 47, 95
6, 40320, Note_off_c, 6, 43, 95
6, 40320, Note_on_c, 6, 67, 95
6, 40320, Note_on_c, 6, 59, 95
6, 40320, Note_on_c, 6, 55, 95
6, 40320, Note_on_c, 6, 50, 95
6, 40320, Note_on_c, 6, 47, 95
6, 40320, Note_on_c, 6, 43, 95
6, 44160, Note_off_c, 6, 67, 95
6, 44160, Note_off_c, 6, 59, 95
6, 44160, Note_off_c, 6, 55, 95
6, 44160, Note_off_c, 6, 50, 95
6, 44160, Note_off_c, 6, 47, 95
6, 44160, Note_off_c, 6, 43, 95
6, 44160, Note_on_c, 6, 67, 95
6, 44160, Note_on_c, 6, 59, 95
6, 44160, Note_on_c, 6, 55, 95
6, 44160, Note_on_c, 6, 50, 95
6, 44160, Note_on_c, 6, 47, 95
6, 44160, Note_on_c, 6, 43, 95
6, 46080, Note_off_c, 6, 67, 95
6, 46080, Note_off_c, 6, 59, 95
6, 46080, Note_off_c, 6, 55, 95
6, 46080, Note_off_c, 6, 50, 95
6, 46080, Note_off_c, 6, 47, 95
6, 46080, Note_off_c, 6, 43, 95
6, 46080, Note_on_c, 6, 64, 95
6, 46080, Note_on_c, 6, 60, 95
6, 46080, Note_on_c, 6, 55, 95
6, 46080, Note_on_c, 6, 52, 95
6, 46080, Note_on_c, 6, 48, 95
6, 49920, Note_off_c, 6, 64, 95
6, 49920, Note_off_c, 6, 60, 95
6, 49920, Note_off_c, 6, 55, 95
6, 49920, Note_off_c, 6, 52, 95
6, 49920, Note_off_c, 6, 48, 95
6, 49920, Note_on_c, 6, 64, 95
6, 49920, Note_on_c, 6, 60, 95
6, 49920, Note_on_c, 6, 55, 95
6, 49920, Note_on_c, 6, 52, 95
6, 49920, Note_on_c, 6, 48, 95
6, 51840, Note_off_c, 6, 64, 95
6, 51840, Note_off_c, 6, 60, 95
6, 51840, Note_off_c, 6, 55, 95
6, 51840, Note_off_c, 6, 52, 95
6, 51840, Note_off_c, 6, 48, 95
6, 51840, Note_on_c, 6, 64, 95
6, 51840, Note_on_c, 6, 60, 95
6, 51840, Note_on_c, 6, 55, 95
6, 51840, Note_on_c, 6, 52, 95
6, 51840, Note_on_c, 6, 48, 95
6, 55680, Note_off_c, 6, 64, 95
6, 55680, Note_off_c, 6, 60, 95
6, 55680, Note_off_c, 6, 55, 95
6, 55680, Note_off_c, 6, 52, 95
6, 55680, Note_off_c, 6, 48, 95
6, 55680, Note_on_c, 6, 64, 95
6, 55680, Note_on_c, 6, 60, 95
6, 55680, Note_on_c, 6, 55, 95
6, 55680, Note_on_c, 6, 52, 95
6, 55680, Note_on_c, 6, 48, 95
6, 57600, Note_off_c, 6, 64, 95
6, 57600, Note_off_c, 6, 60, 95
6, 57600, Note_off_c, 6, 55, 95
6, 57600, Note_off_c, 6, 52, 95
6, 57600, Note_off_c, 6, 48, 95
6, 57600, Note_on_c, 6, 65, 95
6, 57600, Note_on_c, 6, 60, 95
6, 57600, Note_on_c, 6, 57, 95
6, 57600, Note_on_c, 6, 53, 95
6, 57600, Note_on_c, 6, 48, 95
6, 57600, Note_on_c, 6, 41, 95
6, 61440, Note_off_c, 6, 65, 95
6, 61440, Note_off_c, 6, 60, 95
6, 61440, Note_off_c, 6, 57, 95
6, 61440, Note_off_c, 6, 53, 95
6, 61440, Note_off_c, 6, 48, 95
6, 61440, Note_off_c, 6, 41, 95
6, 61440, Note_on_c, 6, 65, 95
6, 61440, Note_on_c, 6, 60, 95
6, 61440, Note_on_c, 6, 57, 95
6, 61440, Note_on_c, 6, 53, 95
6, 61440, Note_on_c, 6, 48, 95
6, 61440, Note_on_c, 6, 41, 95
6, 63360, Note_off_c, 6, 65, 95
6, 63360, Note_off_c, 6, 60, 95
6, 63360, Note_off_c, 6, 57, 95
6, 63360, Note_off_c, 6, 53, 95
6, 63360, Note_off_c, 6, 48, 95
6, 63360, Note_off_c, 6, 41, 95
6, 63360, Note_on_c, 6, 65, 95
6, 63360, Note_on_c, 6, 60, 95
6, 63360, Note_on_c, 6, 57, 95
6, 63360, Note_on_c, 6, 53, 95
6, 63360, Note_on_c, 6, 48, 95
6, 63360, Note_on_c, 6, 41, 95
6, 67200, Note_off_c, 6, 65, 95
6, 67200, Note_off_c, 6, 60, 95
6, 67200, Note_off_c, 6, 57, 95
6, 67200, Note_off_c, 6, 53, 95
6, 67200, Note_off_c, 6, 48, 95
6, 67200, Note_off_c, 6, 41, 95
6, 67200, Note_on_c, 6, 65, 95
6, 67200, Note_on_c, 6, 60, 95
6, 67200, Note_on_c, 6, 57, 95
6, 67200, Note_on_c, 6, 53, 95
6, 67200, Note_on_c, 6, 48, 95
6, 67200, Note_on_c, 6, 41, 95
6, 69120, Note_off_c, 6, 65, 95
6, 69120, Note_off_c, 6, 60, 95
6, 69120, Note_off_c, 6, 57, 95
6, 69120, Note_off_c, 6, 53, 95
6, 69120, Note_off_c, 6, 48, 95
6, 69120, Note_off_c, 6, 41, 95
6, 69120, Note_on_c, 6, 65, 95
6, 69120, Note_on_c, 6, 62, 95
6, 69120, Note_on_c, 6, 57, 95
6, 69120, Note_on_c, 6, 50, 95
6, 72960, Note_off_c, 6, 65, 95
6, 72960, Note_off_c, 6, 62, 95
6, 72960, Note_off_c, 6, 57, 95
6, 72960, Note_off_c, 6, 50, 95
6, 72960, Note_on_c, 6, 65, 95
6, 72960, Note_on_c, 6, 62, 95
6, 72960, Note_on_c, 6, 57, 95
6, 72960, Note_on_c, 6, 50, 95
6, 74880, Note_off_c, 6, 65, 95
6, 74880, Note_off_c, 6, 62, 95
6, 74880, Note_off_c, 6, 57, 95
6, 74880, Note_off_c, 6, 50, 95
6, 74880, Note_on_c, 6, 65, 95
6, 74880, Note_on_c, 6, 62, 95
6, 74880, Note_on_c, 6, 57, 95
6, 74880, Note_on_c, 6, 50, 95
6, 78720, Note_off_c, 6, 65, 95
6, 78720, Note_off_c, 6, 62, 95
6, 78720, Note_off_c, 6, 57, 95
6, 78720, Note_off_c, 6, 50, 95
6, 78720, Note_on_c, 6, 65, 95
6, 78720, Note_on_c, 6, 62, 95
6, 78720, Note_on_c, 6, 57, 95
6, 78720, Note_on_c, 6, 50, 95
6, 80640, Note_off_c, 6, 65, 95
6, 80640, Note_off_c, 6, 62, 95
6, 80640, Note_off_c, 6, 57, 95
6, 80640, Note_off_c, 6, 50, 95
6, 80640, Note_on_c, 6, 67, 95
6, 80640, Note_on_c, 6, 59, 95
6, 80640, Note_on_c, 6, 55, 95
6, 80640, Note_on_c, 6, 50, 95
6, 80640, Note_on_c, 6, 47, 95
6, 80640, Note_on_c, 6, 43, 95
6, 84480, Note_off_c, 6, 67, 95
6, 84480, Note_off_c, 6, 59, 95
6, 84480, Note_off_c, 6, 55, 95
6, 84480, Note_off_c, 6, 50, 95
6, 84480, Note_off_c, 6, 47, 95
6, 84480, Note_off_c, 6, 43, 95
6, 84480, Note_on_c, 6, 67, 95
6, 84480, Note_on_c, 6, 59, 95
6, 84480, Note_on_c, 6, 55, 95
6, 84480, Note_on_c, 6, 50, 95
6, 84480, Note_on_c, 6, 47, 95
6, 84480, Note_on_c, 6, 43, 95
6, 86400, Note_off_c, 6, 67, 95
6, 86400, Note_off_c, 6, 59, 95
6, 86400, Note_off_c, 6, 55, 95
6, 86400, Note_off_c, 6, 50, 95
6, 86400, Note_off_c, 6, 47, 95
6, 86400, Note_off_c, 6, 43, 95
6, 86400, Note_on_c, 6, 67, 95
6, 86400, Note_on_c, 6, 59, 95
6, 86400, Note_on_c, 6, 55, 95
6, 86400, Note_on_c, 6, 50, 95
6, 86400, Note_on_c, 6, 47, 95
6, 86400, Note_on_c, 6, 43, 95
6, 90240, Note_off_c, 6, 67, 95
6, 90240, Note_off_c, 6, 59, 95
6, 90240, Note_off_c, 6, 55, 95
6, 90240, Note_off_c, 6, 50, 95
6, 90240, Note_off_c, 6, 47, 95
6, 90240, Note_off_c, 6, 43, 95
6, 90240, Note_on_c, 6, 67, 95
6, 90240, Note_on_c, 6, 59, 95
6, 90240, Note_on_c, 6, 55, 95
6, 90240, Note_on_c, 6, 50, 95
6, 90240, Note_on_c, 6, 47, 95
6, 90240, Note_on_c, 6, 43, 95
6, 92160, Note_off_c, 6, 67, 95
6, 92160, Note_off_c, 6, 59, 95
6, 92160, Note_off_c, 6, 55, 95
6, 92160, Note_off_c, 6, 50, 95
6, 92160, Note_off_c, 6, 47, 95
6, 92160, Note_off_c, 6, 43, 95
6, 92160, Note_on_c, 6, 64, 95
6, 92160, Note_on_c, 6, 60, 95
6, 92160, Note_on_c, 6, 55, 95
6, 92160, Note_on_c, 6, 52, 95
6, 92160, Note_on_c, 6, 48, 95
6, 96000, Note_off_c, 6, 64, 95
6, 96000, Note_off_c, 6, 60, 95
6, 96000, Note_off_c, 6, 55, 95
6, 96000, Note_off_c, 6, 52, 95
6, 96000, Note_off_c, 6, 48, 95
6, 96000, Note_on_c, 6, 64, 95
6, 96000, Note_on_c, 6, 60, 95
6, 96000, Note_on_c, 6, 55, 95
6, 96000, Note_on_c, 6, 52, 95
6, 96000, Note_on_c, 6, 48, 95
6, 97920, Note_off_c, 6, 64, 95
6, 97920, Note_off_c, 6, 60, 95
6, 97920, Note_off_c, 6, 55, 95
6, 97920, Note_off_c, 6, 52, 95
6, 97920, Note_off_c, 6, 48, 95
6, 97920, Note_on_c, 6, 64, 95
6, 97920, Note_on_c, 6, 60, 95
6, 97920, Note_on_c, 6, 55, 95
6, 97920, Note_on_c, 6, 52, 95
6, 97920, Note_on_c, 6, 48, 95
6, 101760, Note_off_c, 6, 64, 95
6, 101760, Note_off_c, 6, 60, 95
6, 101760, Note_off_c, 6, 55, 95
6, 101760, Note_off_c, 6, 52, 95
6, 101760, Note_off_c, 6, 48, 95
6, 101760, Note_on_c, 6, 64, 95
6, 101760, Note_on_c, 6, 60, 95
6, 101760, Note_on_c, 6, 55, 95
6, 101760, Note_on_c, 6, 52, 95
6, 101760, Note_on_c, 6, 48, 95
6, 103680, Note_off_c, 6, 64, 95
6, 103680, Note_off_c, 6, 60, 95
6, 103680, Note_off_c, 6, 55, 95
6, 103680, Note_off_c, 6, 52, 95
6, 103680, Note_off_c, 6, 48, 95
6, 103680, Note_on_c, 6, 65, 95
6, 103680, Note_on_c, 6, 60, 95
6, 103680, Note_on_c, 6, 57, 95
6, 103680, Note_on_c, 6, 53, 95
6, 103680, Note_on_c, 6, 48, 95
6, 103680, Note_on_c, 6, 41, 95
6, 107520, Note_off_c, 6, 65, 95
6, 107520, Note_off_c, 6, 60, 95
6, 107520, Note_off_c, 6, 57, 95
6, 107520, Note_off_c, 6, 53, 95
6, 107520, Note_off_c, 6, 48, 95
6, 107520, Note_off_c, 6, 41, 95
6, 107520, Note_on_c, 6, 65, 95
6, 107520, Note_on_c, 6, 60, 95
6, 107520, Note_on_c, 6, 57, 95
6, 107520, Note_on_c, 6, 53, 95
6, 107520, Note_on_c, 6, 48, 95
6, 107520, Note_on_c, 6, 41, 95
6, 109440, Note_off_c, 6, 65, 95
6, 109440, Note_off_c, 6, 60, 95
6, 109440, Note_off_c, 6, 57, 95
6, 109440, Note_off_c, 6, 53, 95
6, 109440, Note_off_c, 6, 48, 95
6, 109440, Note_off_c, 6, 41, 95
6, 109440, Note_on_c, 6, 65, 95
6, 109440, Note_on_c, 6, 60, 95
6, 109440, Note_on_c, 6, 57, 95
6, 109440, Note_on_c, 6, 53, 95
6, 109440, Note_on_c, 6, 48, 95
6, 109440, Note_on_c, 6, 41, 95
6, 113280, Note_off_c, 6, 65, 95
6, 113280, Note_off_c, 6, 60, 95
6, 113280, Note_off_c, 6, 57, 95
6, 113280, Note_off_c, 6, 53, 95
6, 113280, Note_off_c, 6, 48, 95
6, 113280, Note_off_c, 6, 41, 95
6, 113280, Note_on_c, 6, 65, 95
6, 113280, Note_on_c, 6, 60, 95
6, 113280, Note_on_c, 6, 57, 95
6, 113280, Note_on_c, 6, 53, 95
6, 113280, Note_on_c, 6, 48, 95
6, 113280, Note_on_c, 6, 41, 95
6, 115200, Note_off_c, 6, 65, 95
6, 115200, Note_off_c, 6, 60, 95
6, 115200, Note_off_c, 6, 57, 95
6, 115200, Note_off_c, 6, 53, 95
6, 115200, Note_off_c, 6, 48, 95
6, 115200, Note_off_c, 6, 41, 95
6, 115200, Note_on_c, 6, 65, 95
6, 115200, Note_on_c, 6, 62, 95
6, 115200, Note_on_c, 6, 57, 95
6, 115200, Note_on_c, 6, 50, 95
6, 119040, Note_off_c, 6, 65, 95
6, 119040, Note_off_c, 6, 62, 95
6, 119040, Note_off_c, 6, 57, 95
6, 119040, Note_off_c, 6, 50, 95
6, 119040, Note_on_c, 6, 65, 95
6, 119040, Note_on_c, 6, 62, 95
6, 119040, Note_on_c, 6, 57, 95
6, 119040, Note_on_c, 6, 50, 95
6, 120960, Note_off_c, 6, 65, 95
6, 120960, Note_off_c, 6, 62, 95
6, 120960, Note_off_c, 6, 57, 95
6, 120960, Note_off_c, 6, 50, 95
6, 120960, Note_on_c, 6, 65, 95
6, 120960, Note_on_c, 6, 62, 95
6, 120960, Note_on_c, 6, 57, 95
6, 120960, Note_on_c, 6, 50, 95
6, 124800, Note_off_c, 6, 65, 95
6, 124800, Note_off_c, 6, 62, 95
6, 124800, Note_off_c, 6, 57, 95
6, 124800, Note_off_c, 6, 50, 95
6, 124800, Note_on_c, 6, 65, 95
6, 124800, Note_on_c, 6, 62, 95
6, 124800, Note_on_c, 6, 57, 95
6, 124800, Note_on_c, 6, 50, 95
6, 126720, Note_off_c, 6, 65, 95
6, 126720, Note_off_c, 6, 62, 95
6, 126720, Note_off_c, 6, 57, 95
6, 126720, Note_off_c, 6, 50, 95
6, 126720, Note_on_c, 6, 67, 95
6, 126720, Note_on_c, 6, 59, 95
6, 126720, Note_on_c, 6, 55, 95
6, 126720, Note_on_c, 6, 50, 95
6, 126720, Note_on_c, 6, 47, 95
6, 126720, Note_on_c, 6, 43, 95
6, 130560, Note_off_c, 6, 67, 95
6, 130560, Note_off_c, 6, 59, 95
6, 130560, Note_off_c, 6, 55, 95
6, 130560, Note_off_c, 6, 50, 95
6, 130560, Note_off_c, 6, 47, 95
6, 130560, Note_off_c, 6, 43, 95
6, 130560, Note_on_c, 6, 67, 95
6, 130560, Note_on_c, 6, 59, 95
6, 130560, Note_on_c, 6, 55, 95
6, 130560, Note_on_c, 6, 50, 95
6, 130560, Note_on_c, 6, 47, 95
6, 130560, Note_on_c, 6, 43, 95
6, 132480, Note_off_c, 6, 67, 95
6, 132480, Note_off_c, 6, 59, 95
6, 132480, Note_off_c, 6, 55, 95
6, 132480, Note_off_c, 6, 50, 95
6, 132480, Note_off_c, 6, 47, 95
6, 132480, Note_off_c, 6, 43, 95
6, 132480, Note_on_c, 6, 67, 95
6, 132480, Note_on_c, 6, 59, 95
6, 132480, Note_on_c, 6, 55, 95
6, 132480, Note_on_c, 6, 50, 95
6, 132480, Note_on_c, 6, 47, 95
6, 132480, Note_on_c, 6, 43, 95
6, 136320, Note_off_c, 6, 67, 95
6, 136320, Note_off_c, 6, 59, 95
6, 136320, Note_off_c, 6, 55, 95
6, 136320, Note_off_c, 6, 50, 95
6, 136320, Note_off_c, 6, 47, 95
6, 136320, Note_off_c, 6, 43, 95
6, 136320, Note_on_c, 6, 67, 95
6, 136320, Note_on_c, 6, 59, 95
6, 136320, Note_on_c, 6, 55, 95
6, 136320, Note_on_c, 6, 50, 95
6, 136320, Note_on_c, 6, 47, 95
6, 136320, Note_on_c, 6, 43, 95
6, 138240, Note_off_c, 6, 67, 95
6, 138240, Note_off_c, 6, 59, 95
6, 138240, Note_off_c, 6, 55, 95
6, 138240, Note_off_c, 6, 50, 95
6, 138240, Note_off_c, 6, 47, 95
6, 138240, Note_off_c, 6, 43, 95
6, 138240, Note_on_c, 6, 64, 95
6, 138240, Note_on_c, 6, 60, 95
6, 138240, Note_on_c, 6, 57, 95
6, 138240, Note_on_c, 6, 52, 95
6, 138240, Note_on_c, 6, 45, 95
6, 142080, Note_off_c, 6, 64, 95
6, 142080, Note_off_c, 6, 60, 95
6, 142080, Note_off_c, 6, 57, 95
6, 142080, Note_off_c, 6, 52, 95
6, 142080, Note_off_c, 6, 45, 95
6, 142080, Note_on_c, 6, 64, 95
6, 142080, Note_on_c, 6, 60, 95
6, 142080, Note_on_c, 6, 57, 95
6, 142080, Note_on_c, 6, 52, 95
6, 142080, Note_on_c, 6, 45, 95
6, 144000, Note_off_c, 6, 64, 95
6, 144000, Note_off_c, 6, 60, 95
6, 144000, Note_off_c, 6, 57, 95
6, 144000, Note_off_c, 6, 52, 95
6, 144000, Note_off_c, 6, 45, 95
6, 144000, Note_on_c, 6, 64, 95
6, 144000, Note_on_c, 6, 60, 95
6, 144000, Note_on_c, 6, 57, 95
6, 144000, Note_on_c, 6, 52, 95
6, 144000, Note_on_c, 6, 45, 95
6, 147840, Note_off_c, 6, 64, 95
6, 147840, Note_off_c, 6, 60, 95
6, 147840, Note_off_c, 6, 57, 95
6, 147840, Note_off_c, 6, 52, 95
6, 147840, Note_off_c, 6, 45, 95
6, 147840, Note_on_c, 6, 64, 95
6, 147840, Note_on_c, 6, 60, 95
6, 147840, Note_on_c, 6, 57, 95
6, 147840, Note_on_c, 6, 52, 95
6, 147840, Note_on_c, 6, 45, 95
6, 149760, Note_off_c, 6, 64, 95
6, 149760, Note_off_c, 6, 60, 95
6, 149760, Note_off_c, 6, 57, 95
6, 149760, Note_off_c, 6, 52, 95
6, 149760, Note_off_c, 6, 45, 95
6, 149760, Note_on_c, 6, 69, 95
6, 149760, Note_on_c, 6, 62, 95
6, 149760, Note_on_c, 6, 60, 95
6, 149760, Note_on_c, 6, 50, 95
6, 153600, Note_off_c, 6, 69, 95
6, 153600, Note_off_c, 6, 62, 95
6, 153600, Note_off_c, 6, 60, 95
6, 153600, Note_off_c, 6, 50, 95
6, 153600, Note_on_c, 6, 69, 95
6, 153600, Note_on_c, 6, 62, 95
6, 153600, Note_on_c, 6, 60, 95
6, 153600, Note_on_c, 6, 50, 95
6, 155520, Note_off_c, 6, 69, 95
6, 155520, Note_off_c, 6, 62, 95
6, 155520, Note_off_c, 6, 60, 95
6, 155520, Note_off_c, 6, 50, 95
6, 155520, Note_on_c, 6, 69, 95
6, 155520, Note_on_c, 6, 62, 95
6, 155520, Note_on_c, 6, 60, 95
6, 155520, Note_on_c, 6, 50, 95
6, 159360, Note_off_c, 6, 69, 95
6, 159360, Note_off_c, 6, 62, 95
6, 159360, Note_off_c, 6, 60, 95
6, 159360, Note_off_c, 6, 50, 95
6, 159360, Note_on_c, 6, 69, 95
6, 159360, Note_on_c, 6, 62, 95
6, 159360, Note_on_c, 6, 60, 95
6, 159360, Note_on_c, 6, 50, 95
6, 161280, Note_off_c, 6, 69, 95
6, 161280, Note_off_c, 6, 62, 95
6, 161280, Note_off_c, 6, 60, 95
6, 161280, Note_off_c, 6, 50, 95
6, 161280, Note_on_c, 6, 69, 95
6, 161280, Note_on_c, 6, 62, 95
6, 161280, Note_on_c, 6, 60, 95
6, 161280, Note_on_c, 6, 43, 95
6, 165120, Note_off_c, 6, 69, 95
6, 165120, Note_off_c, 6, 62, 95
6, 165120, Note_off_c, 6, 60, 95
6, 165120, Note_off_c, 6, 43, 95
6, 165120, Note_on_c, 6, 69, 95
6, 165120, Note_on_c, 6, 62, 95
6, 165120, Note_on_c, 6, 60, 95
6, 165120, Note_on_c, 6, 43, 95
6, 167040, Note_off_c, 6, 69, 95
6, 167040, Note_off_c, 6, 62, 95
6, 167040, Note_off_c, 6, 60, 95
6, 167040, Note_off_c, 6, 43, 95
6, 167040, Note_on_c, 6, 69, 95
6, 167040, Note_on_c, 6, 62, 95
6, 167040, Note_on_c, 6, 59, 95
6, 167040, Note_on_c, 6, 50, 95
6, 167040, Note_on_c, 6, 43, 95
6, 170880, Note_off_c, 6, 69, 95
6, 170880, Note_off_c, 6, 62, 95
6, 170880, Note_off_c, 6, 59, 95
6, 170880, Note_off_c, 6, 50, 95
6, 170880, Note_off_c, 6, 43, 95
6, 170880, Note_on_c, 6, 69, 95
6, 170880, Note_on_c, 6, 62, 95
6, 170880, Note_on_c, 6, 59, 95
6, 170880, Note_on_c, 6, 50, 95
6, 170880, Note_on_c, 6, 43, 95
6, 172800, Note_off_c, 6, 69, 95
6, 172800, Note_off_c, 6, 62, 95
6, 172800, Note_off_c, 6, 59, 95
6, 172800, Note_off_c, 6, 50, 95
6, 172800, Note_off_c, 6, 43, 95
6, 172800, Note_on_c, 6, 65, 95
6, 172800, Note_on_c, 6, 60, 95
6, 172800, Note_on_c, 6, 57, 95
6, 172800, Note_on_c, 6, 53, 95
6, 172800, Note_on_c, 6, 48, 95
6, 172800, Note_on_c, 6, 41, 95
6, 176640, Note_off_c, 6, 65, 95
6, 176640, Note_off_c, 6, 60, 95
6, 176640, Note_off_c, 6, 57, 95
6, 176640, Note_off_c, 6, 53, 95
6, 176640, Note_off_c, 6, 48, 95
6, 176640, Note_off_c, 6, 41, 95
6, 176640, Note_on_c, 6, 65, 95
6, 176640, Note_on_c, 6, 60, 95
6, 176640, Note_on_c, 6, 57, 95
6, 176640, Note_on_c, 6, 53, 95
6, 176640, Note_on_c, 6, 48, 95
6, 176640, Note_on_c, 6, 41, 95
6, 178560, Note_off_c, 6, 65, 95
6, 178560, Note_off_c, 6, 60, 95
6, 178560, Note_off_c, 6, 57, 95
6, 178560, Note_off_c, 6, 53, 95
6, 178560, Note_off_c, 6, 48, 95
6, 178560, Note_off_c, 6, 41, 95
6, 178560, Note_on_c, 6, 65, 95
6, 178560, Note_on_c, 6, 60, 95
6, 178560, Note_on_c, 6, 57, 95
6, 178560, Note_on_c, 6, 53, 95
6, 178560, Note_on_c, 6, 48, 95
6, 178560, Note_on_c, 6, 41, 95
6, 182400, Note_off_c, 6, 65, 95
6, 182400, Note_off_c, 6, 60, 95
6, 182400, Note_off_c, 6, 57, 95
6, 182400, Note_off_c, 6, 53, 95
6, 182400, Note_off_c, 6, 48, 95
6, 182400, Note_off_c, 6, 41, 95
6, 182400, Note_on_c, 6, 65, 95
6, 182400, Note_on_c, 6, 60, 95
6, 182400, Note_on_c, 6, 57, 95
6, 182400, Note_on_c, 6, 53, 95
6, 182400, Note_on_c, 6, 48, 95
6, 182400, Note_on_c, 6, 41, 95
6, 184320, Note_off_c, 6, 65, 95
6, 184320, Note_off_c, 6, 60, 95
6, 184320, Note_off_c, 6, 57, 95
6, 184320, Note_off_c, 6, 53, 95
6, 184320, Note_off_c, 6, 48, 95
6, 184320, Note_off_c, 6, 41, 95
6, 184320, Note_on_c, 6, 65, 95
6, 184320, Note_on_c, 6, 60, 95
6, 184320, Note_on_c, 6, 57, 95
6, 184320, Note_on_c, 6, 53, 95
6, 184320, Note_on_c, 6, 48, 95
6, 184320, Note_on_c, 6, 41, 95
6, 188160, Note_off_c, 6, 65, 95
6, 188160, Note_off_c, 6, 60, 95
6, 188160, Note_off_c, 6, 57, 95
6, 188160, Note_off_c, 6, 53, 95
6, 188160, Note_off_c, 6, 48, 95
6, 188160, Note_off_c, 6, 41, 95
6, 188160, Note_on_c, 6, 65, 95
6, 188160, Note_on_c, 6, 60, 95
6, 188160, Note_on_c, 6, 57, 95
6, 188160, Note_on_c, 6, 53, 95
6, 188160, Note_on_c, 6, 48, 95
6, 188160, Note_on_c, 6, 41, 95
6, 190080, Note_off_c, 6, 65, 95
6, 190080, Note_off_c, 6, 60, 95
6, 190080, Note_off_c, 6, 57, 95
6, 190080, Note_off_c, 6, 53, 95
6, 190080, Note_off_c, 6, 48, 95
6, 190080, Note_off_c, 6, 41, 95
6, 190080, Note_on_c, 6, 65, 95
6, 190080, Note_on_c, 6, 60, 95
6, 190080, Note_on_c, 6, 57, 95
6, 190080, Note_on_c, 6, 53, 95
6, 190080, Note_on_c, 6, 48, 95
6, 190080, Note_on_c, 6, 41, 95
6, 193920, Note_off_c, 6, 65, 95
6, 193920, Note_off_c, 6, 60, 95
6, 193920, Note_off_c, 6, 57, 95
6, 193920, Note_off_c, 6, 53, 95
6, 193920, Note_off_c, 6, 48, 95
6, 193920, Note_off_c, 6, 41, 95
6, 193920, Note_on_c, 6, 65, 95
6, 193920, Note_on_c, 6, 60, 95
6, 193920, Note_on_c, 6, 57, 95
6, 193920, Note_on_c, 6, 53, 95
6, 193920, Note_on_c, 6, 48, 95
6, 193920, Note_on_c, 6, 41, 95
6, 195840, Note_off_c, 6, 65, 95
6, 195840, Note_off_c, 6, 60, 95
6, 195840, Note_off_c, 6, 57, 95
6, 195840, Note_off_c, 6, 53, 95
6, 195840, Note_off_c, 6, 48, 95
6, 195840, Note_off_c, 6, 41, 95
6, 195840, Note_on_c, 6, 64, 95
6, 195840, Note_on_c, 6, 60, 95
6, 195840, Note_on_c, 6, 55, 95
6, 195840, Note_on_c, 6, 52, 95
6, 195840, Note_on_c, 6, 48, 95
6, 199680, Note_off_c, 6, 64, 95
6, 199680, Note_off_c, 6, 60, 95
6, 199680, Note_off_c, 6, 55, 95
6, 199680, Note_off_c, 6, 52, 95
6, 199680, Note_off_c, 6, 48, 95
6, 199680, Note_on_c, 6, 64, 95
6, 199680, Note_on_c, 6, 60, 95
6, 199680, Note_on_c, 6, 55, 95
6, 199680, Note_on_c, 6, 52, 95
6, 199680, Note_on_c, 6, 48, 95
6, 201600, Note_off_c, 6, 64, 95
6, 201600, Note_off_c, 6, 60, 95
6, 201600, Note_off_c, 6, 55, 95
6, 201600, Note_off_c, 6, 52, 95
6, 201600, Note_off_c, 6, 48, 95
6, 201600, Note_on_c, 6, 64, 95
6, 201600, Note_on_c, 6, 60, 95
6, 201600, Note_on_c, 6, 55, 95
6, 201600, Note_on_c, 6, 52, 95
6, 201600, Note_on_c, 6, 48, 95
6, 205440, Note_off_c, 6, 64, 95
6, 205440, Note_off_c, 6, 60, 95
6, 205440, Note_off_c, 6, 55, 95
6, 205440, Note_off_c, 6, 52, 95
6, 205440, Note_off_c, 6, 48, 95
6, 205440, Note_on_c, 6, 64, 95
6, 205440, Note_on_c, 6, 60, 95
6, 205440, Note_on_c, 6, 55, 95
6, 205440, Note_on_c, 6, 52, 95
6, 205440, Note_on_c, 6, 48, 95
6, 207360, Note_off_c, 6, 64, 95
6, 207360, Note_off_c, 6, 60, 95
6, 207360, Note_off_c, 6, 55, 95
6, 207360, Note_off_c, 6, 52, 95
6, 207360, Note_off_c, 6, 48, 95
6, 207360, Note_on_c, 6, 65, 95
6, 207360, Note_on_c, 6, 60, 95
6, 207360, Note_on_c, 6, 57, 95
6, 207360, Note_on_c, 6, 53, 95
6, 207360, Note_on_c, 6, 48, 95
6, 207360, Note_on_c, 6, 41, 95
6, 211200, Note_off_c, 6, 65, 95
6, 211200, Note_off_c, 6, 60, 95
6, 211200, Note_off_c, 6, 57, 95
6, 211200, Note_off_c, 6, 53, 95
6, 211200, Note_off_c, 6, 48, 95
6, 211200, Note_off_c, 6, 41, 95
6, 211200, Note_on_c, 6, 65, 95
6, 211200, Note_on_c, 6, 60, 95
6, 211200, Note_on_c, 6, 57, 95
6, 211200, Note_on_c, 6, 53, 95
6, 211200, Note_on_c, 6, 48, 95
6, 211200, Note_on_c, 6, 41, 95
6, 213120, Note_off_c, 6, 65, 95
6, 213120, Note_off_c, 6, 60, 95
6, 213120, Note_off_c, 6, 57, 95
6, 213120, Note_off_c, 6, 53, 95
6, 213120, Note_off_c, 6, 48, 95
6, 213120, Note_off_c, 6, 41, 95
6, 213120, Note_on_c, 6, 65, 95
6, 213120, Note_on_c, 6, 60, 95
6, 213120, Note_on_c, 6, 57, 95
6, 213120, Note_on_c, 6, 53, 95
6, 213120, Note_on_c, 6, 48, 95
6, 213120, Note_on_c, 6, 41, 95
6, 216960, Note_off_c, 6, 65, 95
6, 216960, Note_off_c, 6, 60, 95
6, 216960, Note_off_c, 6, 57, 95
6, 216960, Note_off_c, 6, 53, 95
6, 216960, Note_off_c, 6, 48, 95
6, 216960, Note_off_c, 6, 41, 95
6, 216960, Note_on_c, 6, 65, 95
6, 216960, Note_on_c, 6, 60, 95
6, 216960, Note_on_c, 6, 57, 95
6, 216960, Note_on_c, 6, 53, 95
6, 216960, Note_on_c, 6, 48, 95
6, 216960, Note_on_c, 6, 41, 95
6, 218880, Note_off_c, 6, 65, 95
6, 218880, Note_off_c, 6, 60, 95
6, 218880, Note_off_c, 6, 57, 95
6, 218880, Note_off_c, 6, 53, 95
6, 218880, Note_off_c, 6, 48, 95
6, 218880, Note_off_c, 6, 41, 95
6, 218880, Note_on_c, 6, 65, 95
6, 218880, Note_on_c, 6, 62, 95
6, 218880, Note_on_c, 6, 57, 95
6, 218880, Note_on_c, 6, 50, 95
6, 222720, Note_off_c, 6, 65, 95
6, 222720, Note_off_c, 6, 62, 95
6, 222720, Note_off_c, 6, 57, 95
6, 222720, Note_off_c, 6, 50, 95
6, 222720, Note_on_c, 6, 65, 95
6, 222720, Note_on_c, 6, 62, 95
6, 222720, Note_on_c, 6, 57, 95
6, 222720, Note_on_c, 6, 50, 95
6, 224640, Note_off_c, 6, 65, 95
6, 224640, Note_off_c, 6, 62, 95
6, 224640, Note_off_c, 6, 57, 95
6, 224640, Note_off_c, 6, 50, 95
6, 224640, Note_on_c, 6, 65, 95
6, 224640, Note_on_c, 6, 62, 95
6, 224640, Note_on_c, 6, 57, 95
6, 224640, Note_on_c, 6, 50, 95
6, 228480, Note_off_c, 6, 65, 95
6, 228480, Note_off_c, 6, 62, 95
6, 228480, Note_off_c, 6, 57, 95
6, 228480, Note_off_c, 6, 50, 95
6, 228480, Note_on_c, 6, 65, 95
6, 228480, Note_on_c, 6, 62, 95
6, 228480, Note_on_c, 6, 57, 95
6, 228480, Note_on_c, 6, 50, 95
6, 230400, Note_off_c, 6, 65, 95
6, 230400, Note_off_c, 6, 62, 95
6, 230400, Note_off_c, 6, 57, 95
6, 230400, Note_off_c, 6, 50, 95
6, 230400, Note_on_c, 6, 67, 95
6, 230400, Note_on_c, 6, 59, 95
6, 230400, Note_on_c, 6, 55, 95
6, 230400, Note_on_c, 6, 50, 95
6, 230400, Note_on_c, 6, 47, 95
6, 230400, Note_on_c, 6, 43, 95
6, 234240, Note_off_c, 6, 67, 95
6, 234240, Note_off_c, 6, 59, 95
6, 234240, Note_off_c, 6, 55, 95
6, 234240, Note_off_c, 6, 50, 95
6, 234240, Note_off_c, 6, 47, 95
6, 234240, Note_off_c, 6, 43, 95
6, 234240, Note_on_c, 6, 67, 95
6, 234240, Note_on_c, 6, 59, 95
6, 234240, Note_on_c, 6, 55, 95
6, 234240, Note_on_c, 6, 50, 95
6, 234240, Note_on_c, 6, 47, 95
6, 234240, Note_on_c, 6, 43, 95
6, 236160, Note_off_c, 6, 67, 95
6, 236160, Note_off_c, 6, 59, 95
6, 236160, Note_off_c, 6, 55, 95
6, 236160, Note_off_c, 6, 50, 95
6, 236160, Note_off_c, 6, 47, 95
6, 236160, Note_off_c, 6, 43, 95
6, 236160, Note_on_c, 6, 67, 95
6, 236160, Note_on_c, 6, 59, 95
6, 236160, Note_on_c, 6, 55, 95
6, 236160, Note_on_c, 6, 50, 95
6, 236160, Note_on_c, 6, 47, 95
6, 236160, Note_on_c, 6, 43, 95
6, 240000, Note_off_c, 6, 67, 95
6, 240000, Note_off_c, 6, 59, 95
6, 240000, Note_off_c, 6, 55, 95
6, 240000, Note_off_c, 6, 50, 95
6, 240000, Note_off_c, 6, 47, 95
6, 240000, Note_off_c, 6, 43, 95
6, 240000, Note_on_c, 6, 67, 95
6, 240000, Note_on_c, 6, 59, 95
6, 240000, Note_on_c, 6, 55, 95
6, 240000, Note_on_c, 6, 50, 95
6, 240000, Note_on_c, 6, 47, 95
6, 240000, Note_on_c, 6, 43, 95
6, 241920, Note_off_c, 6, 67, 95
6, 241920, Note_off_c, 6, 59, 95
6, 241920, Note_off_c, 6, 55, 95
6, 241920, Note_off_c, 6, 50, 95
6, 241920, Note_off_c, 6, 47, 95
6, 241920, Note_off_c, 6, 43, 95
6, 241920, Note_on_c, 6, 64, 95
6, 241920, Note_on_c, 6, 60, 95
6, 241920, Note_on_c, 6, 55, 95
6, 241920, Note_on_c, 6, 52, 95
6, 241920, Note_on_c, 6, 48, 95
6, 245760, Note_off_c, 6, 64, 95
6, 245760, Note_off_c, 6, 60, 95
6, 245760, Note_off_c, 6, 55, 95
6, 245760, Note_off_c, 6, 52, 95
6, 245760, Note_off_c, 6, 48, 95
6, 245760, Note_on_c, 6, 64, 95
6, 245760, Note_on_c, 6, 60, 95
6, 245760, Note_on_c, 6, 55, 95
6, 245760, Note_on_c, 6, 52, 95
6, 245760, Note_on_c, 6, 48, 95
6, 247680, Note_off_c, 6, 64, 95
6, 247680, Note_off_c, 6, 60, 95
6, 247680, Note_off_c, 6, 55, 95
6, 247680, Note_off_c, 6, 52, 95
6, 247680, Note_off_c, 6, 48, 95
6, 247680, Note_on_c, 6, 64, 95
6, 247680, Note_on_c, 6, 60, 95
6, 247680, Note_on_c, 6, 55, 95
6, 247680, Note_on_c, 6, 52, 95
6, 247680, Note_on_c, 6, 48, 95
6, 251520, Note_off_c, 6, 64, 95
6, 251520, Note_off_c, 6, 60, 95
6, 251520, Note_off_c, 6, 55, 95
6, 251520, Note_off_c, 6, 52, 95
6, 251520, Note_off_c, 6, 48, 95
6, 251520, Note_on_c, 6, 64, 95
6, 251520, Note_on_c, 6, 60, 95
6, 251520, Note_on_c, 6, 55, 95
6, 251520, Note_on_c, 6, 52, 95
6, 251520, Note_on_c, 6, 48, 95
6, 253440, Note_off_c, 6, 64, 95
6, 253440, Note_off_c, 6, 60, 95
6, 253440, Note_off_c, 6, 55, 95
6, 253440, Note_off_c, 6, 52, 95
6, 253440, Note_off_c, 6, 48, 95
6, 253440, Note_on_c, 6, 65, 95
6, 253440, Note_on_c, 6, 60, 95
6, 253440, Note_on_c, 6, 57, 95
6, 253440, Note_on_c, 6, 53, 95
6, 253440, Note_on_c, 6, 48, 95
6, 253440, Note_on_c, 6, 41, 95
6, 257280, Note_off_c, 6, 65, 95
6, 257280, Note_off_c, 6, 60, 95
6, 257280, Note_off_c, 6, 57, 95
6, 257280, Note_off_c, 6, 53, 95
6, 257280, Note_off_c, 6, 48, 95
6, 257280, Note_off_c, 6, 41, 95
6, 257280, Note_on_c, 6, 65, 95
6, 257280, Note_on_c, 6, 60, 95
6, 257280, Note_on_c, 6, 57, 95
6, 257280, Note_on_c, 6, 53, 95
6, 257280, Note_on_c, 6, 48, 95
6, 257280, Note_on_c, 6, 41, 95
6, 259200, Note_off_c, 6, 65, 95
6, 259200, Note_off_c, 6, 60, 95
6, 259200, Note_off_c, 6, 57, 95
6, 259200, Note_off_c, 6, 53, 95
6, 259200, Note_off_c, 6, 48, 95
6, 259200, Note_off_c, 6, 41, 95
6, 259200, Note_on_c, 6, 65, 95
6, 259200, Note_on_c, 6, 60, 95
6, 259200, Note_on_c, 6, 57, 95
6, 259200, Note_on_c, 6, 53, 95
6, 259200, Note_on_c, 6, 48, 95
6, 259200, Note_on_c, 6, 41, 95
6, 263040, Note_off_c, 6, 65, 95
6, 263040, Note_off_c, 6, 60, 95
6, 263040, Note_off_c, 6, 57, 95
6, 263040, Note_off_c, 6, 53, 95
6, 263040, Note_off_c, 6, 48, 95
6, 263040, Note_off_c, 6, 41, 95
6, 263040, Note_on_c, 6, 65, 95
6, 263040, Note_on_c, 6, 60, 95
6, 263040, Note_on_c, 6, 57, 95
6, 263040, Note_on_c, 6, 53, 95
6, 263040, Note_on_c, 6, 48, 95
6, 263040, Note_on_c, 6, 41, 95
6, 264960, Note_off_c, 6, 65, 95
6, 264960, Note_off_c, 6, 60, 95
6, 264960, Note_off_c, 6, 57, 95
6, 264960, Note_off_c, 6, 53, 95
6, 264960, Note_off_c, 6, 48, 95
6, 264960, Note_off_c, 6, 41, 95
6, 264960, Note_on_c, 6, 65, 95
6, 264960, Note_on_c, 6, 62, 95
6, 264960, Note_on_c, 6, 57, 95
6, 264960, Note_on_c, 6, 50, 95
6, 268800, Note_off_c, 6, 65, 95
6, 268800, Note_off_c, 6, 62, 95
6, 268800, Note_off_c, 6, 57, 95
6, 268800, Note_off_c, 6, 50, 95
6, 268800, Note_on_c, 6, 65, 95
6, 268800, Note_on_c, 6, 62, 95
6, 268800, Note_on_c, 6, 57, 95
6, 268800, Note_on_c, 6, 50, 95
6, 270720, Note_off_c, 6, 65, 95
6, 270720, Note_off_c, 6, 62, 95
6, 270720, Note_off_c, 6, 57, 95
6, 270720, Note_off_c, 6, 50, 95
6, 270720, Note_on_c, 6, 65, 95
6, 270720, Note_on_c, 6, 62, 95
6, 270720, Note_on_c, 6, 57, 95
6, 270720, Note_on_c, 6, 50, 95
6, 274560, Note_off_c, 6, 65, 95
6, 274560, Note_off_c, 6, 62, 95
6, 274560, Note_off_c, 6, 57, 95
6, 274560, Note_off_c, 6, 50, 95
6, 274560, Note_on_c, 6, 65, 95
6, 274560, Note_on_c, 6, 62, 95
6, 274560, Note_on_c, 6, 57, 95
6, 274560, Note_on_c, 6, 50, 95
6, 276480, Note_off_c, 6, 65, 95
6, 276480, Note_off_c, 6, 62, 95
6, 276480, Note_off_c, 6, 57, 95
6, 276480, Note_off_c, 6, 50, 95
6, 276480, Note_on_c, 6, 67, 95
6, 276480, Note_on_c, 6, 59, 95
6, 276480, Note_on_c, 6, 55, 95
6, 276480, Note_on_c, 6, 50, 95
6, 276480, Note_on_c, 6, 47, 95
6, 276480, Note_on_c, 6, 43, 95
6, 280320, Note_off_c, 6, 67, 95
6, 280320, Note_off_c, 6, 59, 95
6, 280320, Note_off_c, 6, 55, 95
6, 280320, Note_off_c, 6, 50, 95
6, 280320, Note_off_c, 6, 47, 95
6, 280320, Note_off_c, 6, 43, 95
6, 280320, Note_on_c, 6, 67, 95
6, 280320, Note_on_c, 6, 59, 95
6, 280320, Note_on_c, 6, 55, 95
6, 280320, Note_on_c, 6, 50, 95
6, 280320, Note_on_c, 6, 47, 95
6, 280320, Note_on_c, 6, 43, 95
6, 282240, Note_off_c, 6, 67, 95
6, 282240, Note_off_c, 6, 59, 95
6, 282240, Note_off_c, 6, 55, 95
6, 282240, Note_off_c, 6, 50, 95
6, 282240, Note_off_c, 6, 47, 95
6, 282240, Note_off_c, 6, 43, 95
6, 282240, Note_on_c, 6, 67, 95
6, 282240, Note_on_c, 6, 59, 95
6, 282240, Note_on_c, 6, 55, 95
6, 282240, Note_on_c, 6, 50, 95
6, 282240, Note_on_c, 6, 47, 95
6, 282240, Note_on_c, 6, 43, 95
6, 286080, Note_off_c, 6, 67, 95
6, 286080, Note_off_c, 6, 59, 95
6, 286080, Note_off_c, 6, 55, 95
6, 286080, Note_off_c, 6, 50, 95
6, 286080, Note_off_c, 6, 47, 95
6, 286080, Note_off_c, 6, 43, 95
6, 286080, Note_on_c, 6, 67, 95
6, 286080, Note_on_c, 6, 59, 95
6, 286080, Note_on_c, 6, 55, 95
6, 286080, Note_on_c, 6, 50, 95
6, 286080, Note_on_c, 6, 47, 95
6, 286080, Note_on_c, 6, 43, 95
6, 288000, Note_off_c, 6, 67, 95
6, 288000, Note_off_c, 6, 59, 95
6, 288000, Note_off_c, 6, 55, 95
6, 288000, Note_off_c, 6, 50, 95
6, 288000, Note_off_c, 6, 47, 95
6, 288000, Note_off_c, 6, 43, 95
6, 288000, Note_on_c, 6, 64, 95
6, 288000, Note_on_c, 6, 60, 95
6, 288000, Note_on_c, 6, 57, 95
6, 288000, Note_on_c, 6, 52, 95
6, 288000, Note_on_c, 6, 45, 95
6, 291840, Note_off_c, 6, 64, 95
6, 291840, Note_off_c, 6, 60, 95
6, 291840, Note_off_c, 6, 57, 95
6, 291840, Note_off_c, 6, 52, 95
6, 291840, Note_off_c, 6, 45, 95
6, 291840, Note_on_c, 6, 64, 95
6, 291840, Note_on_c, 6, 60, 95
6, 291840, Note_on_c, 6, 57, 95
6, 291840, Note_on_c, 6, 52, 95
6, 291840, Note_on_c, 6, 45, 95
6, 293760, Note_off_c, 6, 64, 95
6, 293760, Note_off_c, 6, 60, 95
6, 293760, Note_off_c, 6, 57, 95
6, 293760, Note_off_c, 6, 52, 95
6, 293760, Note_off_c, 6, 45, 95
6, 293760, Note_on_c, 6, 64, 95
6, 293760, Note_on_c, 6, 60, 95
6, 293760, Note_on_c, 6, 57, 95
6, 293760, Note_on_c, 6, 52, 95
6, 293760, Note_on_c, 6, 45, 95
6, 297600, Note_off_c, 6, 64, 95
6, 297600, Note_off_c, 6, 60, 95
6, 297600, Note_off_c, 6, 57, 95
6, 297600, Note_off_c, 6, 52, 95
6, 297600, Note_off_c, 6, 45, 95
6, 297600, Note_on_c, 6, 64, 95
6, 297600, Note_on_c, 6, 60, 95
6, 297600, Note_on_c, 6, 57, 95
6, 297600, Note_on_c, 6, 52, 95
6, 297600, Note_on_c, 6, 45, 95
6, 299520, Note_off_c, 6, 64, 95
6, 299520, Note_off_c, 6, 60, 95
6, 299520, Note_off_c, 6, 57, 95
6, 299520, Note_off_c, 6, 52, 95
6, 299520, Note_off_c, 6, 45, 95
6, 299520, Note_on_c, 6, 69, 95
6, 299520, Note_on_c, 6, 62, 95
6, 299520, Note_on_c, 6, 60, 95
6, 299520, Note_on_c, 6, 50, 95
6, 303360, Note_off_c, 6, 69, 95
6, 303360, Note_off_c, 6, 62, 95
6, 303360, Note_off_c, 6, 60, 95
6, 303360, Note_off_c, 6, 50, 95
6, 303360, Note_on_c, 6, 69, 95
6, 303360, Note_on_c, 6, 62, 95
6, 303360, Note_on_c, 6, 60, 95
6, 303360, Note_on_c, 6, 50, 95
6, 305280, Note_off_c, 6, 69, 95
6, 305280, Note_off_c, 6, 62, 95
6, 305280, Note_off_c, 6, 60, 95
6, 305280, Note_off_c, 6, 50, 95
6, 305280, Note_on_c, 6, 69, 95
6, 305280, Note_on_c, 6, 62, 95
6, 305280, Note_on_c, 6, 60, 95
6, 305280, Note_on_c, 6, 50, 95
6, 309120, Note_off_c, 6, 69, 95
6, 309120, Note_off_c, 6, 62, 95
6, 309120, Note_off_c, 6, 60, 95
6, 309120, Note_off_c, 6, 50, 95
6, 309120, Note_on_c, 6, 69, 95
6, 309120, Note_on_c, 6, 62, 95
6, 309120, Note_on_c, 6, 60, 95
6, 309120, Note_on_c, 6, 50, 95
6, 311040, Note_off_c, 6, 69, 95
6, 311040, Note_off_c, 6, 62, 95
6, 311040, Note_off_c, 6, 60, 95
6, 311040, Note_off_c, 6, 50, 95
6, 311040, Note_on_c, 6, 69, 95
6, 311040, Note_on_c, 6, 62, 95
6, 311040, Note_on_c, 6, 60, 95
6, 311040, Note_on_c, 6, 43, 95
6, 314880, Note_off_c, 6, 69, 95
6, 314880, Note_off_c, 6, 62, 95
6, 314880, Note_off_c, 6, 60, 95
6, 314880, Note_off_c, 6, 43, 95
6, 314880, Note_on_c, 6, 69, 95
6, 314880, Note_on_c, 6, 62, 95
6, 314880, Note_on_c, 6, 60, 95
6, 314880, Note_on_c, 6, 43, 95
6, 316800, Note_off_c, 6, 69, 95
6, 316800, Note_off_c, 6, 62, 95
6, 316800, Note_off_c, 6, 60, 95
6, 316800, Note_off_c, 6, 43, 95
6, 316800, Note_on_c, 6, 69, 95
6, 316800, Note_on_c, 6, 62, 95
6, 316800, Note_on_c, 6, 59, 95
6, 316800, Note_on_c, 6, 50, 95
6, 316800, Note_on_c, 6, 43, 95
6, 320640, Note_off_c, 6, 69, 95
6, 320640, Note_off_c, 6, 62, 95
6, 320640, Note_off_c, 6, 59, 95
6, 320640, Note_off_c, 6, 50, 95
6, 320640, Note_off_c, 6, 43, 95
6, 320640, Note_on_c, 6, 69, 95
6, 320640, Note_on_c, 6, 62, 95
6, 320640, Note_on_c, 6, 59, 95
6, 320640, Note_on_c, 6, 50, 95
6, 320640, Note_on_c, 6, 43, 95
6, 322560, Note_off_c, 6, 69, 95
6, 322560, Note_off_c, 6, 62, 95
6, 322560, Note_off_c, 6, 59, 95
6, 322560, Note_off_c, 6, 50, 95
6, 322560, Note_off_c, 6, 43, 95
6, 322560, Note_on_c, 6, 65, 95
6, 322560, Note_on_c, 6, 60, 95
6, 322560, Note_on_c, 6, 57, 95
6, 322560, Note_on_c, 6, 53, 95
6, 322560, Note_on_c, 6, 48, 95
6, 322560, Note_on_c, 6, 41, 95
6, 326400, Note_off_c, 6, 65, 95
6, 326400, Note_off_c, 6, 60, 95
6, 326400, Note_off_c, 6, 57, 95
6, 326400, Note_off_c, 6, 53, 95
6, 326400, Note_off_c, 6, 48, 95
6, 326400, Note_off_c, 6, 41, 95
6, 326400, Note_on_c, 6, 65, 95
6, 326400, Note_on_c, 6, 60, 95
6, 326400, Note_on_c, 6, 57, 95
6, 326400, Note_on_c, 6, 53, 95
6, 326400, Note_on_c, 6, 48, 95
6, 326400, Note_on_c, 6, 41, 95
6, 328320, Note_off_c, 6, 65, 95
6, 328320, Note_off_c, 6, 60, 95
6, 328320, Note_off_c, 6, 57, 95
6, 328320, Note_off_c, 6, 53, 95
6, 328320, Note_off_c, 6, 48, 95
6, 328320, Note_off_c, 6, 41, 95
6, 328320, Note_on_c, 6, 65, 95
6, 328320, Note_on_c, 6, 60, 95
6, 328320, Note_on_c, 6, 57, 95
6, 328320, Note_on_c, 6, 53, 95
6, 328320, Note_on_c, 6, 48, 95
6, 328320, Note_on_c, 6, 41, 95
6, 332160, Note_off_c, 6, 65, 95
6, 332160, Note_off_c, 6, 60, 95
6, 332160, Note_off_c, 6, 57, 95
6, 332160, Note_off_c, 6, 53, 95
6, 332160, Note_off_c, 6, 48, 95
6, 332160, Note_off_c, 6, 41, 95
6, 332160, Note_on_c, 6, 65, 95
6, 332160, Note_on_c, 6, 60, 95
6, 332160, Note_on_c, 6, 57, 95
6, 332160, Note_on_c, 6, 53, 95
6, 332160, Note_on_c, 6, 48, 95
6, 332160, Note_on_c, 6, 41, 95
6, 334080, Note_off_c, 6, 65, 95
6, 334080, Note_off_c, 6, 60, 95
6, 334080, Note_off_c, 6, 57, 95
6, 334080, Note_off_c, 6, 53, 95
6, 334080, Note_off_c, 6, 48, 95
6, 334080, Note_off_c, 6, 41, 95
6, 334080, Note_on_c, 6, 65, 95
6, 334080, Note_on_c, 6, 60, 95
6, 334080, Note_on_c, 6, 57, 95
6, 334080, Note_on_c, 6, 53, 95
6, 334080, Note_on_c, 6, 48, 95
6, 334080, Note_on_c, 6, 41, 95
6, 337920, Note_off_c, 6, 65, 95
6, 337920, Note_off_c, 6, 60, 95
6, 337920, Note_off_c, 6, 57, 95
6, 337920, Note_off_c, 6, 53, 95
6, 337920, Note_off_c, 6, 48, 95
6, 337920, Note_off_c, 6, 41, 95
6, 337920, Note_on_c, 6, 65, 95
6, 337920, Note_on_c, 6, 60, 95
6, 337920, Note_on_c, 6, 57, 95
6, 337920, Note_on_c, 6, 53, 95
6, 337920, Note_on_c, 6, 48, 95
6, 337920, Note_on_c, 6, 41, 95
6, 339840, Note_off_c, 6, 65, 95
6, 339840, Note_off_c, 6, 60, 95
6, 339840, Note_off_c, 6, 57, 95
6, 339840, Note_off_c, 6, 53, 95
6, 339840, Note_off_c, 6, 48, 95
6, 339840, Note_off_c, 6, 41, 95
6, 339840, Note_on_c, 6, 65, 95
6, 339840, Note_on_c, 6, 60, 95
6, 339840, Note_on_c, 6, 57, 95
6, 339840, Note_on_c, 6, 53, 95
6, 339840, Note_on_c, 6, 48, 95
6, 339840, Note_on_c, 6, 41, 95
6, 343680, Note_off_c, 6, 65, 95
6, 343680, Note_off_c, 6, 60, 95
6, 343680, Note_off_c, 6, 57, 95
6, 343680, Note_off_c, 6, 53, 95
6, 343680, Note_off_c, 6, 48, 95
6, 343680, Note_off_c, 6, 41, 95
6, 343680, Note_on_c, 6, 65, 95
6, 343680, Note_on_c, 6, 60, 95
6, 343680, Note_on_c, 6, 57, 95
6, 343680, Note_on_c, 6, 53, 95
6, 343680, Note_on_c, 6, 48, 95
6, 343680, Note_on_c, 6, 41, 95
6, 345600, Note_off_c, 6, 65, 95
6, 345600, Note_off_c, 6, 60, 95
6, 345600, Note_off_c, 6, 57, 95
6, 345600, Note_off_c, 6, 53, 95
6, 345600, Note_off_c, 6, 48, 95
6, 345600, Note_off_c, 6, 41, 95
6, 345600, Note_on_c, 6, 64, 95
6, 345600, Note_on_c, 6, 60, 95
6, 345600, Note_on_c, 6, 55, 95
6, 345600, Note_on_c, 6, 52, 95
6, 345600, Note_on_c, 6, 48, 95
6, 349440, Note_off_c, 6, 64, 95
6, 349440, Note_off_c, 6, 60, 95
6, 349440, Note_off_c, 6, 55, 95
6, 349440, Note_off_c, 6, 52, 95
6, 349440, Note_off_c, 6, 48, 95
6, 349440, Note_on_c, 6, 64, 95
6, 349440, Note_on_c, 6, 60, 95
6, 349440, Note_on_c, 6, 55, 95
6, 349440, Note_on_c, 6, 52, 95
6, 349440, Note_on_c, 6, 48, 95
6, 351360, Note_off_c, 6, 64, 95
6, 351360, Note_off_c, 6, 60, 95
6, 351360, Note_off_c, 6, 55, 95
6, 351360, Note_off_c, 6, 52, 95
6, 351360, Note_off_c, 6, 48, 95
6, 351360, Note_on_c, 6, 64, 95
6, 351360, Note_on_c, 6, 60, 95
6, 351360, Note_on_c, 6, 55, 95
6, 351360, Note_on_c, 6, 52, 95
6, 351360, Note_on_c, 6, 48, 95
6, 355200, Note_off_c, 6, 64, 95
6, 355200, Note_off_c, 6, 60, 95
6, 355200, Note_off_c, 6, 55, 95
6, 355200, Note_off_c, 6, 52, 95
6, 355200, Note_off_c, 6, 48, 95
6, 355200, Note_on_c, 6, 64, 95
6, 355200, Note_on_c, 6, 60, 95
6, 355200, Note_on_c, 6, 55, 95
6, 355200, Note_on_c, 6, 52, 95
6, 355200, Note_on_c, 6, 48, 95
6, 357120, Note_off_c, 6, 64, 95
6, 357120, Note_off_c, 6, 60, 95
6, 357120, Note_off_c, 6, 55, 95
6, 357120, Note_off_c, 6, 52, 95
6, 357120, Note_off_c, 6, 48, 95
6, 357120, Note_on_c, 6, 65, 95
6, 357120, Note_on_c, 6, 60, 95
6, 357120, Note_on_c, 6, 57, 95
6, 357120, Note_on_c, 6, 53, 95
6, 357120, Note_on_c, 6, 48, 95
6, 357120, Note_on_c, 6, 41, 95
6, 360960, Note_off_c, 6, 65, 95
6, 360960, Note_off_c, 6, 60, 95
6, 360960, Note_off_c, 6, 57, 95
6, 360960, Note_off_c, 6, 53, 95
6, 360960, Note_off_c, 6, 48, 95
6, 360960, Note_off_c, 6, 41, 95
6, 360960, Note_on_c, 6, 65, 95
6, 360960, Note_on_c, 6, 60, 95
6, 360960, Note_on_c, 6, 57, 95
6, 360960, Note_on_c, 6, 53, 95
6, 360960, Note_on_c, 6, 48, 95
6, 360960, Note_on_c, 6, 41, 95
6, 362880, Note_off_c, 6, 65, 95
6, 362880, Note_off_c, 6, 60, 95
6, 362880, Note_off_c, 6, 57, 95
6, 362880, Note_off_c, 6, 53, 95
6, 362880, Note_off_c, 6, 48, 95
6, 362880, Note_off_c, 6, 41, 95
6, 362880, Note_on_c, 6, 65, 95
6, 362880, Note_on_c, 6, 60, 95
6, 362880, Note_on_c, 6, 57, 95
6, 362880, Note_on_c, 6, 53, 95
6, 362880, Note_on_c, 6, 48, 95
6, 362880, Note_on_c, 6, 41, 95
6, 366720, Note_off_c, 6, 65, 95
6, 366720, Note_off_c, 6, 60, 95
6, 366720, Note_off_c, 6, 57, 95
6, 366720, Note_off_c, 6, 53, 95
6, 366720, Note_off_c, 6, 48, 95
6, 366720, Note_off_c, 6, 41, 95
6, 366720, Note_on_c, 6, 65, 95
6, 366720, Note_on_c, 6, 60, 95
6, 366720, Note_on_c, 6, 57, 95
6, 366720, Note_on_c, 6, 53, 95
6, 366720, Note_on_c, 6, 48, 95
6, 366720, Note_on_c, 6, 41, 95
6, 368640, Note_off_c, 6, 65, 95
6, 368640, Note_off_c, 6, 60, 95
6, 368640, Note_off_c, 6, 57, 95
6, 368640, Note_off_c, 6, 53, 95
6, 368640, Note_off_c, 6, 48, 95
6, 368640, Note_off_c, 6, 41, 95
6, 368640, Note_on_c, 6, 65, 95
6, 368640, Note_on_c, 6, 62, 95
6, 368640, Note_on_c, 6, 57, 95
6, 368640, Note_on_c, 6, 50, 95
6, 372480, Note_off_c, 6, 65, 95
6, 372480, Note_off_c, 6, 62, 95
6, 372480, Note_off_c, 6, 57, 95
6, 372480, Note_off_c, 6, 50, 95
6, 372480, Note_on_c, 6, 65, 95
6, 372480, Note_on_c, 6, 62, 95
6, 372480, Note_on_c, 6, 57, 95
6, 372480, Note_on_c, 6, 50, 95
6, 374400, Note_off_c, 6, 65, 95
6, 374400, Note_off_c, 6, 62, 95
6, 374400, Note_off_c, 6, 57, 95
6, 374400, Note_off_c, 6, 50, 95
6, 374400, Note_on_c, 6, 65, 95
6, 374400, Note_on_c, 6, 62, 95
6, 374400, Note_on_c, 6, 57, 95
6, 374400, Note_on_c, 6, 50, 95
6, 378240, Note_off_c, 6, 65, 95
6, 378240, Note_off_c, 6, 62, 95
6, 378240, Note_off_c, 6, 57, 95
6, 378240, Note_off_c, 6, 50, 95
6, 378240, Note_on_c, 6, 65, 95
6, 378240, Note_on_c, 6, 62, 95
6, 378240, Note_on_c, 6, 57, 95
6, 378240, Note_on_c, 6, 50, 95
6, 380160, Note_off_c, 6, 65, 95
6, 380160, Note_off_c, 6, 62, 95
6, 380160, Note_off_c, 6, 57, 95
6, 380160, Note_off_c, 6, 50, 95
6, 380160, Note_on_c, 6, 67, 95
6, 380160, Note_on_c, 6, 59, 95
6, 380160, Note_on_c, 6, 55, 95
6, 380160, Note_on_c, 6, 50, 95
6, 380160, Note_on_c, 6, 47, 95
6, 380160, Note_on_c, 6, 43, 95
6, 384000, Note_off_c, 6, 67, 95
6, 384000, Note_off_c, 6, 59, 95
6, 384000, Note_off_c, 6, 55, 95
6, 384000, Note_off_c, 6, 50, 95
6, 384000, Note_off_c, 6, 47, 95
6, 384000, Note_off_c, 6, 43, 95
6, 384000, Note_on_c, 6, 67, 95
6, 384000, Note_on_c, 6, 59, 95
6, 384000, Note_on_c, 6, 55, 95
6, 384000, Note_on_c, 6, 50, 95
6, 384000, Note_on_c, 6, 47, 95
6, 384000, Note_on_c, 6, 43, 95
6, 385920, Note_off_c, 6, 67, 95
6, 385920, Note_off_c, 6, 59, 95
6, 385920, Note_off_c, 6, 55, 95
6, 385920, Note_off_c, 6, 50, 95
6, 385920, Note_off_c, 6, 47, 95
6, 385920, Note_off_c, 6, 43, 95
6, 385920, Note_on_c, 6, 67, 95
6, 385920, Note_on_c, 6, 59, 95
6, 385920, Note_on_c, 6, 55, 95
6, 385920, Note_on_c, 6, 50, 95
6, 385920, Note_on_c, 6, 47, 95
6, 385920, Note_on_c, 6, 43, 95
6, 389760, Note_off_c, 6, 67, 95
6, 389760, Note_off_c, 6, 59, 95
6, 389760, Note_off_c, 6, 55, 95
6, 389760, Note_off_c, 6, 50, 95
6, 389760, Note_off_c, 6, 47, 95
6, 389760, Note_off_c, 6, 43, 95
6, 389760, Note_on_c, 6, 67, 95
6, 389760, Note_on_c, 6, 59, 95
6, 389760, Note_on_c, 6, 55, 95
6, 389760, Note_on_c, 6, 50, 95
6, 389760, Note_on_c, 6, 47, 95
6, 389760, Note_on_c, 6, 43, 95
6, 391680, Note_off_c, 6, 67, 95
6, 391680, Note_off_c, 6, 59, 95
6, 391680, Note_off_c, 6, 55, 95
6, 391680, Note_off_c, 6, 50, 95
6, 391680, Note_off_c, 6, 47, 95
6, 391680, Note_off_c, 6, 43, 95
6, 391680, Note_on_c, 6, 64, 95
6, 391680, Note_on_c, 6, 60, 95
6, 391680, Note_on_c, 6, 55, 95
6, 391680, Note_on_c, 6, 52, 95
6, 391680, Note_on_c, 6, 48, 95
6, 395520, Note_off_c, 6, 64, 95
6, 395520, Note_off_c, 6, 60, 95
6, 395520, Note_off_c, 6, 55, 95
6, 395520, Note_off_c, 6, 52, 95
6, 395520, Note_off_c, 6, 48, 95
6, 395520, Note_on_c, 6, 64, 95
6, 395520, Note_on_c, 6, 60, 95
6, 395520, Note_on_c, 6, 55, 95
6, 395520, Note_on_c, 6, 52, 95
6, 395520, Note_on_c, 6, 48, 95
6, 397440, Note_off_c, 6, 64, 95
6, 397440, Note_off_c, 6, 60, 95
6, 397440, Note_off_c, 6, 55, 95
6, 397440, Note_off_c, 6, 52, 95
6, 397440, Note_off_c, 6, 48, 95
6, 397440, Note_on_c, 6, 64, 95
6, 397440, Note_on_c, 6, 60, 95
6, 397440, Note_on_c, 6, 55, 95
6, 397440, Note_on_c, 6, 52, 95
6, 397440, Note_on_c, 6, 48, 95
6, 401280, Note_off_c, 6, 64, 95
6, 401280, Note_off_c, 6, 60, 95
6, 401280, Note_off_c, 6, 55, 95
6, 401280, Note_off_c, 6, 52, 95
6, 401280, Note_off_c, 6, 48, 95
6, 401280, Note_on_c, 6, 64, 95
6, 401280, Note_on_c, 6, 60, 95
6, 401280, Note_on_c, 6, 55, 95
6, 401280, Note_on_c, 6, 52, 95
6, 401280, Note_on_c, 6, 48, 95
6, 403200, Note_off_c, 6, 64, 95
6, 403200, Note_off_c, 6, 60, 95
6, 403200, Note_off_c, 6, 55, 95
6, 403200, Note_off_c, 6, 52, 95
6, 403200, Note_off_c, 6, 48, 95
6, 403200, Note_on_c, 6, 65, 95
6, 403200, Note_on_c, 6, 60, 95
6, 403200, Note_on_c, 6, 57, 95
6, 403200, Note_on_c, 6, 53, 95
6, 403200, Note_on_c, 6, 48, 95
6, 403200, Note_on_c, 6, 41, 95
6, 407040, Note_off_c, 6, 65, 95
6, 407040, Note_off_c, 6, 60, 95
6, 407040, Note_off_c, 6, 57, 95
6, 407040, Note_off_c, 6, 53, 95
6, 407040, Note_off_c, 6, 48, 95
6, 407040, Note_off_c, 6, 41, 95
6, 407040, Note_on_c, 6, 65, 95
6, 407040, Note_on_c, 6, 60, 95
6, 407040, Note_on_c, 6, 57, 95
6, 407040, Note_on_c, 6, 53, 95
6, 407040, Note_on_c, 6, 48, 95
6, 407040, Note_on_c, 6, 41, 95
6, 408960, Note_off_c, 6, 65, 95
6, 408960, Note_off_c, 6, 60, 95
6, 408960, Note_off_c, 6, 57, 95
6, 408960, Note_off_c, 6, 53, 95
6, 408960, Note_off_c, 6, 48, 95
6, 408960, Note_off_c, 6, 41, 95
6, 408960, Note_on_c, 6, 65, 95
6, 408960, Note_on_c, 6, 60, 95
6, 408960, Note_on_c, 6, 57, 95
6, 408960, Note_on_c, 6, 53, 95
6, 408960, Note_on_c, 6, 48, 95
6, 408960, Note_on_c, 6, 41, 95
6, 412800, Note_off_c, 6, 65, 95
6, 412800, Note_off_c, 6, 60, 95
6, 412800, Note_off_c, 6, 57, 95
6, 412800, Note_off_c, 6, 53, 95
6, 412800, Note_off_c, 6, 48, 95
6, 412800, Note_off_c, 6, 41, 95
6, 412800, Note_on_c, 6, 65, 95
6, 412800, Note_on_c, 6, 60, 95
6, 412800, Note_on_c, 6, 57, 95
6, 412800, Note_on_c, 6, 53, 95
6, 412800, Note_on_c, 6, 48, 95
6, 412800, Note_on_c, 6, 41, 95
6, 414720, Note_off_c, 6, 65, 95
6, 414720, Note_off_c, 6, 60, 95
6, 414720, Note_off_c, 6, 57, 95
6, 414720, Note_off_c, 6, 53, 95
6, 414720, Note_off_c, 6, 48, 95
6, 414720, Note_off_c, 6, 41, 95
6, 414720, Note_on_c, 6, 65, 95
6, 414720, Note_on_c, 6, 62, 95
6, 414720, Note_on_c, 6, 57, 95
6, 414720, Note_on_c, 6, 50, 95
6, 418560, Note_off_c, 6, 65, 95
6, 418560, Note_off_c, 6, 62, 95
6, 418560, Note_off_c, 6, 57, 95
6, 418560, Note_off_c, 6, 50, 95
6, 418560, Note_on_c, 6, 65, 95
6, 418560, Note_on_c, 6, 62, 95
6, 418560, Note_on_c, 6, 57, 95
6, 418560, Note_on_c, 6, 50, 95
6, 420480, Note_off_c, 6, 65, 95
6, 420480, Note_off_c, 6, 62, 95
6, 420480, Note_off_c, 6, 57, 95
6, 420480, Note_off_c, 6, 50, 95
6, 420480, Note_on_c, 6, 65, 95
6, 420480, Note_on_c, 6, 62, 95
6, 420480, Note_on_c, 6, 57, 95
6, 420480, Note_on_c, 6, 50, 95
6, 424320, Note_off_c, 6, 65, 95
6, 424320, Note_off_c, 6, 62, 95
6, 424320, Note_off_c, 6, 57, 95
6, 424320, Note_off_c, 6, 50, 95
6, 424320, Note_on_c, 6, 65, 95
6, 424320, Note_on_c, 6, 62, 95
6, 424320, Note_on_c, 6, 57, 95
6, 424320, Note_on_c, 6, 50, 95
6, 426240, Note_off_c, 6, 65, 95
6, 426240, Note_off_c, 6, 62, 95
6, 426240, Note_off_c, 6, 57, 95
6, 426240, Note_off_c, 6, 50, 95
6, 426240, Note_on_c, 6, 67, 95
6, 426240, Note_on_c, 6, 59, 95
6, 426240, Note_on_c, 6, 55, 95
6, 426240, Note_on_c, 6, 50, 95
6, 426240, Note_on_c, 6, 47, 95
6, 426240, Note_on_c, 6, 43, 95
6, 430080, Note_off_c, 6, 67, 95
6, 430080, Note_off_c, 6, 59, 95
6, 430080, Note_off_c, 6, 55, 95
6, 430080, Note_off_c, 6, 50, 95
6, 430080, Note_off_c, 6, 47, 95
6, 430080, Note_off_c, 6, 43, 95
6, 430080, Note_on_c, 6, 67, 95
6, 430080, Note_on_c, 6, 59, 95
6, 430080, Note_on_c, 6, 55, 95
6, 430080, Note_on_c, 6, 50, 95
6, 430080, Note_on_c, 6, 47, 95
6, 430080, Note_on_c, 6, 43, 95
6, 432000, Note_off_c, 6, 67, 95
6, 432000, Note_off_c, 6, 59, 95
6, 432000, Note_off_c, 6, 55, 95
6, 432000, Note_off_c, 6, 50, 95
6, 432000, Note_off_c, 6, 47, 95
6, 432000, Note_off_c, 6, 43, 95
6, 437760, Note_on_c, 6, 64, 95
6, 437760, Note_on_c, 6, 60, 95
6, 437760, Note_on_c, 6, 55, 95
6, 437760, Note_on_c, 6, 52, 95
6, 437760, Note_on_c, 6, 48, 95
6, 441600, Note_off_c, 6, 64, 95
6, 441600, Note_off_c, 6, 60, 95
6, 441600, Note_off_c, 6, 55, 95
6, 441600, Note_off_c, 6, 52, 95
6, 441600, Note_off_c, 6, 48, 95
6, 441600, Note_on_c, 6, 64, 95
6, 441600, Note_on_c, 6, 60, 95
6, 441600, Note_on_c, 6, 55, 95
6, 441600, Note_on_c, 6, 52, 95
6, 441600, Note_on_c, 6, 48, 95
6, 443520, Note_off_c, 6, 64, 95
6, 443520, Note_off_c, 6, 60, 95
6, 443520, Note_off_c, 6, 55, 95
6, 443520, Note_off_c, 6, 52, 95
6, 443520, Note_off_c, 6, 48, 95
6, 443520, Note_on_c, 6, 65, 95
6, 443520, Note_on_c, 6, 60, 95
6, 443520, Note_on_c, 6, 57, 95
6, 443520, Note_on_c, 6, 53, 95
6, 443520, Note_on_c, 6, 48, 95
6, 443520, Note_on_c, 6, 41, 95
6, 447360, Note_off_c, 6, 65, 95
6, 447360, Note_off_c, 6, 60, 95
6, 447360, Note_off_c, 6, 57, 95
6, 447360, Note_off_c, 6, 53, 95
6, 447360, Note_off_c, 6, 48, 95
6, 447360, Note_off_c, 6, 41, 95
6, 447360, Note_on_c, 6, 65, 95
6, 447360, Note_on_c, 6, 60, 95
6, 447360, Note_on_c, 6, 57, 95
6, 447360, Note_on_c, 6, 53, 95
6, 447360, Note_on_c, 6, 48, 95
6, 447360, Note_on_c, 6, 41, 95
6, 449280, Note_off_c, 6, 65, 95
6, 449280, Note_off_c, 6, 60, 95
6, 449280, Note_off_c, 6, 57, 95
6, 449280, Note_off_c, 6, 53, 95
6, 449280, Note_off_c, 6, 48, 95
6, 449280, Note_off_c, 6, 41, 95
6, 449280, Note_on_c, 6, 65, 95
6, 449280, Note_on_c, 6, 60, 95
6, 449280, Note_on_c, 6, 57, 95
6, 449280, Note_on_c, 6, 53, 95
6, 449280, Note_on_c, 6, 48, 95
6, 449280, Note_on_c, 6, 41, 95
6, 453120, Note_off_c, 6, 65, 95
6, 453120, Note_off_c, 6, 60, 95
6, 453120, Note_off_c, 6, 57, 95
6, 453120, Note_off_c, 6, 53, 95
6, 453120, Note_off_c, 6, 48, 95
6, 453120, Note_off_c, 6, 41, 95
6, 453120, Note_on_c, 6, 65, 95
6, 453120, Note_on_c, 6, 60, 95
6, 453120, Note_on_c, 6, 57, 95
6, 453120, Note_on_c, 6, 53, 95
6, 453120, Note_on_c, 6, 48, 95
6, 453120, Note_on_c, 6, 41, 95
6, 455040, Note_off_c, 6, 65, 95
6, 455040, Note_off_c, 6, 60, 95
6, 455040, Note_off_c, 6, 57, 95
6, 455040, Note_off_c, 6, 53, 95
6, 455040, Note_off_c, 6, 48, 95
6, 455040, Note_off_c, 6, 41, 95
6, 455040, Note_on_c, 6, 65, 95
6, 455040, Note_on_c, 6, 62, 95
6, 455040, Note_on_c, 6, 57, 95
6, 455040, Note_on_c, 6, 50, 95
6, 458880, Note_off_c, 6, 65, 95
6, 458880, Note_off_c, 6, 62, 95
6, 458880, Note_off_c, 6, 57, 95
6, 458880, Note_off_c, 6, 50, 95
6, 458880, Note_on_c, 6, 65, 95
6, 458880, Note_on_c, 6, 62, 95
6, 458880, Note_on_c, 6, 57, 95
6, 458880, Note_on_c, 6, 50, 95
6, 460800, Note_off_c, 6, 65, 95
6, 460800, Note_off_c, 6, 62, 95
6, 460800, Note_off_c, 6, 57, 95
6, 460800, Note_off_c, 6, 50, 95
6, 460800, Note_on_c, 6, 65, 95
6, 460800, Note_on_c, 6, 62, 95
6, 460800, Note_on_c, 6, 57, 95
6, 460800, Note_on_c, 6, 50, 95
6, 464640, Note_off_c, 6, 65, 95
6, 464640, Note_off_c, 6, 62, 95
6, 464640, Note_off_c, 6, 57, 95
6, 464640, Note_off_c, 6, 50, 95
6, 464640, Note_on_c, 6, 65, 95
6, 464640, Note_on_c, 6, 62, 95
6, 464640, Note_on_c, 6, 57, 95
6, 464640, Note_on_c, 6, 50, 95
6, 466560, Note_off_c, 6, 65, 95
6, 466560, Note_off_c, 6, 62, 95
6, 466560, Note_off_c, 6, 57, 95
6, 466560, Note_off_c, 6, 50, 95
6, 466560, Note_on_c, 6, 67, 95
6, 466560, Note_on_c, 6, 59, 95
6, 466560, Note_on_c, 6, 55, 95
6, 466560, Note_on_c, 6, 50, 95
6, 466560, Note_on_c, 6, 47, 95
6, 466560, Note_on_c, 6, 43, 95
6, 470400, Note_off_c, 6, 67, 95
6, 470400, Note_off_c, 6, 59, 95
6, 470400, Note_off_c, 6, 55, 95
6, 470400, Note_off_c, 6, 50, 95
6, 470400, Note_off_c, 6, 47, 95
6, 470400, Note_off_c, 6, 43, 95
6, 470400, Note_on_c, 6, 67, 95
6, 470400, Note_on_c, 6, 59, 95
6, 470400, Note_on_c, 6, 55, 95
6, 470400, Note_on_c, 6, 50, 95
6, 470400, Note_on_c, 6, 47, 95
6, 470400, Note_on_c, 6, 43, 95
6, 472320, Note_off_c, 6, 67, 95
6, 472320, Note_off_c, 6, 59, 95
6, 472320, Note_off_c, 6, 55, 95
6, 472320, Note_off_c, 6, 50, 95
6, 472320, Note_off_c, 6, 47, 95
6, 472320, Note_off_c, 6, 43, 95
6, 472320, Note_on_c, 6, 67, 95
6, 472320, Note_on_c, 6, 59, 95
6, 472320, Note_on_c, 6, 55, 95
6, 472320, Note_on_c, 6, 50, 95
6, 472320, Note_on_c, 6, 47, 95
6, 472320, Note_on_c, 6, 43, 95
6, 476160, Note_off_c, 6, 67, 95
6, 476160, Note_off_c, 6, 59, 95
6, 476160, Note_off_c, 6, 55, 95
6, 476160, Note_off_c, 6, 50, 95
6, 476160, Note_off_c, 6, 47, 95
6, 476160, Note_off_c, 6, 43, 95
6, 476160, Note_on_c, 6, 67, 95
6, 476160, Note_on_c, 6, 59, 95
6, 476160, Note_on_c, 6, 55, 95
6, 476160, Note_on_c, 6, 50, 95
6, 476160, Note_on_c, 6, 47, 95
6, 476160, Note_on_c, 6, 43, 95
6, 478080, Note_off_c, 6, 67, 95
6, 478080, Note_off_c, 6, 59, 95
6, 478080, Note_off_c, 6, 55, 95
6, 478080, Note_off_c, 6, 50, 95
6, 478080, Note_off_c, 6, 47, 95
6, 478080, Note_off_c, 6, 43, 95
6, 478080, Note_on_c, 6, 64, 95
6, 478080, Note_on_c, 6, 60, 95
6, 478080, Note_on_c, 6, 55, 95
6, 478080, Note_on_c, 6, 52, 95
6, 478080, Note_on_c, 6, 48, 95
6, 481920, Note_off_c, 6, 64, 95
6, 481920, Note_off_c, 6, 60, 95
6, 481920, Note_off_c, 6, 55, 95
6, 481920, Note_off_c, 6, 52, 95
6, 481920, Note_off_c, 6, 48, 95
6, 481920, Note_on_c, 6, 64, 95
6, 481920, Note_on_c, 6, 60, 95
6, 481920, Note_on_c, 6, 55, 95
6, 481920, Note_on_c, 6, 52, 95
6, 481920, Note_on_c, 6, 48, 95
6, 483840, Note_off_c, 6, 64, 95
6, 483840, Note_off_c, 6, 60, 95
6, 483840, Note_off_c, 6, 55, 95
6, 483840, Note_off_c, 6, 52, 95
6, 483840, Note_off_c, 6, 48, 95
6, 483840, Note_on_c, 6, 64, 95
6, 483840, Note_on_c, 6, 60, 95
6, 483840, Note_on_c, 6, 55, 95
6, 483840, Note_on_c, 6, 52, 95
6, 483840, Note_on_c, 6, 48, 95
6, 487680, Note_off_c, 6, 64, 95
6, 487680, Note_off_c, 6, 60, 95
6, 487680, Note_off_c, 6, 55, 95
6, 487680, Note_off_c, 6, 52, 95
6, 487680, Note_off_c, 6, 48, 95
6, 487680, Note_on_c, 6, 64, 95
6, 487680, Note_on_c, 6, 60, 95
6, 487680, Note_on_c, 6, 55, 95
6, 487680, Note_on_c, 6, 52, 95
6, 487680, Note_on_c, 6, 48, 95
6, 489600, Note_off_c, 6, 64, 95
6, 489600, Note_off_c, 6, 60, 95
6, 489600, Note_off_c, 6, 55, 95
6, 489600, Note_off_c, 6, 52, 95
6, 489600, Note_off_c, 6, 48, 95
6, 489600, Note_on_c, 6, 65, 95
6, 489600, Note_on_c, 6, 60, 95
6, 489600, Note_on_c, 6, 57, 95
6, 489600, Note_on_c, 6, 53, 95
6, 489600, Note_on_c, 6, 48, 95
6, 489600, Note_on_c, 6, 41, 95
6, 493440, Note_off_c, 6, 65, 95
6, 493440, Note_off_c, 6, 60, 95
6, 493440, Note_off_c, 6, 57, 95
6, 493440, Note_off_c, 6, 53, 95
6, 493440, Note_off_c, 6, 48, 95
6, 493440, Note_off_c, 6, 41, 95
6, 493440, Note_on_c, 6, 65, 95
6, 493440, Note_on_c, 6, 60, 95
6, 493440, Note_on_c, 6, 57, 95
6, 493440, Note_on_c, 6, 53, 95
6, 493440, Note_on_c, 6, 48, 95
6, 493440, Note_on_c, 6, 41, 95
6, 495360, Note_off_c, 6, 65, 95
6, 495360, Note_off_c, 6, 60, 95
6, 495360, Note_off_c, 6, 57, 95
6, 495360, Note_off_c, 6, 53, 95
6, 495360, Note_off_c, 6, 48, 95
6, 495360, Note_off_c, 6, 41, 95
6, 495360, Note_on_c, 6, 65, 95
6, 495360, Note_on_c, 6, 60, 95
6, 495360, Note_on_c, 6, 57, 95
6, 495360, Note_on_c, 6, 53, 95
6, 495360, Note_on_c, 6, 48, 95
6, 495360, Note_on_c, 6, 41, 95
6, 499200, Note_off_c, 6, 65, 95
6, 499200, Note_off_c, 6, 60, 95
6, 499200, Note_off_c, 6, 57, 95
6, 499200, Note_off_c, 6, 53, 95
6, 499200, Note_off_c, 6, 48, 95
6, 499200, Note_off_c, 6, 41, 95
6, 499200, Note_on_c, 6, 65, 95
6, 499200, Note_on_c, 6, 60, 95
6, 499200, Note_on_c, 6, 57, 95
6, 499200, Note_on_c, 6, 53, 95
6, 499200, Note_on_c, 6, 48, 95
6, 499200, Note_on_c, 6, 41, 95
6, 501120, Note_off_c, 6, 65, 95
6, 501120, Note_off_c, 6, 60, 95
6, 501120, Note_off_c, 6, 57, 95
6, 501120, Note_off_c, 6, 53, 95
6, 501120, Note_off_c, 6, 48, 95
6, 501120, Note_off_c, 6, 41, 95
6, 501120, Note_on_c, 6, 65, 95
6, 501120, Note_on_c, 6, 62, 95
6, 501120, Note_on_c, 6, 57, 95
6, 501120, Note_on_c, 6, 50, 95
6, 504960, Note_off_c, 6, 65, 95
6, 504960, Note_off_c, 6, 62, 95
6, 504960, Note_off_c, 6, 57, 95
6, 504960, Note_off_c, 6, 50, 95
6, 504960, Note_on_c, 6, 65, 95
6, 504960, Note_on_c, 6, 62, 95
6, 504960, Note_on_c, 6, 57, 95
6, 504960, Note_on_c, 6, 50, 95
6, 506880, Note_off_c, 6, 65, 95
6, 506880, Note_off_c, 6, 62, 95
6, 506880, Note_off_c, 6, 57, 95
6, 506880, Note_off_c, 6, 50, 95
6, 506880, Note_on_c, 6, 65, 95
6, 506880, Note_on_c, 6, 62, 95
6, 506880, Note_on_c, 6, 57, 95
6, 506880, Note_on_c, 6, 50, 95
6, 510720, Note_off_c, 6, 65, 95
6, 510720, Note_off_c, 6, 62, 95
6, 510720, Note_off_c, 6, 57, 95
6, 510720, Note_off_c, 6, 50, 95
6, 510720, Note_on_c, 6, 65, 95
6, 510720, Note_on_c, 6, 62, 95
6, 510720, Note_on_c, 6, 57, 95
6, 510720, Note_on_c, 6, 50, 95
6, 512640, Note_off_c, 6, 65, 95
6, 512640, Note_off_c, 6, 62, 95
6, 512640, Note_off_c, 6, 57, 95
6, 512640, Note_off_c, 6, 50, 95
6, 512640, Note_on_c, 6, 67, 95
6, 512640, Note_on_c, 6, 59, 95
6, 512640, Note_on_c, 6, 55, 95
6, 512640, Note_on_c, 6, 50, 95
6, 512640, Note_on_c, 6, 47, 95
6, 512640, Note_on_c, 6, 43, 95
6, 516480, Note_off_c, 6, 67, 95
6, 516480, Note_off_c, 6, 59, 95
6, 516480, Note_off_c, 6, 55, 95
6, 516480, Note_off_c, 6, 50, 95
6, 516480, Note_off_c, 6, 47, 95
6, 516480, Note_off_c, 6, 43, 95
6, 516480, Note_on_c, 6, 67, 95
6, 516480, Note_on_c, 6, 59, 95
6, 516480, Note_on_c, 6, 55, 95
6, 516480, Note_on_c, 6, 50, 95
6, 516480, Note_on_c, 6, 47, 95
6, 516480, Note_on_c, 6, 43, 95
6, 518400, Note_off_c, 6, 67, 95
6, 518400, Note_off_c, 6, 59, 95
6, 518400, Note_off_c, 6, 55, 95
6, 518400, Note_off_c, 6, 50, 95
6, 518400, Note_off_c, 6, 47, 95
6, 518400, Note_off_c, 6, 43, 95
6, 518400, Note_on_c, 6, 67, 95
6, 518400, Note_on_c, 6, 59, 95
6, 518400, Note_on_c, 6, 55, 95
6, 518400, Note_on_c, 6, 50, 95
6, 518400, Note_on_c, 6, 47, 95
6, 518400, Note_on_c, 6, 43, 95
6, 522240, Note_off_c, 6, 67, 95
6, 522240, Note_off_c, 6, 59, 95
6, 522240, Note_off_c, 6, 55, 95
6, 522240, Note_off_c, 6, 50, 95
6, 522240, Note_off_c, 6, 47, 95
6, 522240, Note_off_c, 6, 43, 95
6, 522240, Note_on_c, 6, 67, 95
6, 522240, Note_on_c, 6, 59, 95
6, 522240, Note_on_c, 6, 55, 95
6, 522240, Note_on_c, 6, 50, 95
6, 522240, Note_on_c, 6, 47, 95
6, 522240, Note_on_c, 6, 43, 95
6, 524160, Note_off_c, 6, 67, 95
6, 524160, Note_off_c, 6, 59, 95
6, 524160, Note_off_c, 6, 55, 95
6, 524160, Note_off_c, 6, 50, 95
6, 524160, Note_off_c, 6, 47, 95
6, 524160, Note_off_c, 6, 43, 95
6, 524160, Note_on_c, 6, 64, 95
6, 524160, Note_on_c, 6, 60, 95
6, 524160, Note_on_c, 6, 57, 95
6, 524160, Note_on_c, 6, 52, 95
6, 524160, Note_on_c, 6, 45, 95
6, 528000, Note_off_c, 6, 64, 95
6, 528000, Note_off_c, 6, 60, 95
6, 528000, Note_off_c, 6, 57, 95
6, 528000, Note_off_c, 6, 52, 95
6, 528000, Note_off_c, 6, 45, 95
6, 528000, Note_on_c, 6, 64, 95
6, 528000, Note_on_c, 6, 60, 95
6, 528000, Note_on_c, 6, 57, 95
6, 528000, Note_on_c, 6, 52, 95
6, 528000, Note_on_c, 6, 45, 95
6, 529920, Note_off_c, 6, 64, 95
6, 529920, Note_off_c, 6, 60, 95
6, 529920, Note_off_c, 6, 57, 95
6, 529920, Note_off_c, 6, 52, 95
6, 529920, Note_off_c, 6, 45, 95
6, 529920, Note_on_c, 6, 64, 95
6, 529920, Note_on_c, 6, 60, 95
6, 529920, Note_on_c, 6, 57, 95
6, 529920, Note_on_c, 6, 52, 95
6, 529920, Note_on_c, 6, 45, 95
6, 533760, Note_off_c, 6, 64, 95
6, 533760, Note_off_c, 6, 60, 95
6, 533760, Note_off_c, 6, 57, 95
6, 533760, Note_off_c, 6, 52, 95
6, 533760, Note_off_c, 6, 45, 95
6, 533760, Note_on_c, 6, 64, 95
6, 533760, Note_on_c, 6, 60, 95
6, 533760, Note_on_c, 6, 57, 95
6, 533760, Note_on_c, 6, 52, 95
6, 533760, Note_on_c, 6, 45, 95
6, 535680, Note_off_c, 6, 64, 95
6, 535680, Note_off_c, 6, 60, 95
6, 535680, Note_off_c, 6, 57, 95
6, 535680, Note_off_c, 6, 52, 95
6, 535680, Note_off_c, 6, 45, 95
6, 535680, Note_on_c, 6, 69, 95
6, 535680, Note_on_c, 6, 62, 95
6, 535680, Note_on_c, 6, 60, 95
6, 535680, Note_on_c, 6, 50, 95
6, 539520, Note_off_c, 6, 69, 95
6, 539520, Note_off_c, 6, 62, 95
6, 539520, Note_off_c, 6, 60, 95
6, 539520, Note_off_c, 6, 50, 95
6, 539520, Note_on_c, 6, 69, 95
6, 539520, Note_on_c, 6, 62, 95
6, 539520, Note_on_c, 6, 60, 95
6, 539520, Note_on_c, 6, 50, 95
6, 541440, Note_off_c, 6, 69, 95
6, 541440, Note_off_c, 6, 62, 95
6, 541440, Note_off_c, 6, 60, 95
6, 541440, Note_off_c, 6, 50, 95
6, 541440, Note_on_c, 6, 69, 95
6, 541440, Note_on_c, 6, 62, 95
6, 541440, Note_on_c, 6, 60, 95
6, 541440, Note_on_c, 6, 50, 95
6, 545280, Note_off_c, 6, 69, 95
6, 545280, Note_off_c, 6, 62, 95
6, 545280, Note_off_c, 6, 60, 95
6, 545280, Note_off_c, 6, 50, 95
6, 545280, Note_on_c, 6, 69, 95
6, 545280, Note_on_c, 6, 62, 95
6, 545280, Note_on_c, 6, 60, 95
6, 545280, Note_on_c, 6, 50, 95
6, 547200, Note_off_c, 6, 69, 95
6, 547200, Note_off_c, 6, 62, 95
6, 547200, Note_off_c, 6, 60, 95
6, 547200, Note_off_c, 6, 50, 95
6, 547200, Note_on_c, 6, 69, 95
6, 547200, Note_on_c, 6, 62, 95
6, 547200, Note_on_c, 6, 60, 95
6, 547200, Note_on_c, 6, 43, 95
6, 551040, Note_off_c, 6, 69, 95
6, 551040, Note_off_c, 6, 62, 95
6, 551040, Note_off_c, 6, 60, 95
6, 551040, Note_off_c, 6, 43, 95
6, 551040, Note_on_c, 6, 69, 95
6, 551040, Note_on_c, 6, 62, 95
6, 551040, Note_on_c, 6, 60, 95
6, 551040, Note_on_c, 6, 43, 95
6, 552960, Note_off_c, 6, 69, 95
6, 552960, Note_off_c, 6, 62, 95
6, 552960, Note_off_c, 6, 60, 95
6, 552960, Note_off_c, 6, 43, 95
6, 552960, Note_on_c, 6, 69, 95
6, 552960, Note_on_c, 6, 62, 95
6, 552960, Note_on_c, 6, 59, 95
6, 552960, Note_on_c, 6, 50, 95
6, 552960, Note_on_c, 6, 43, 95
6, 556800, Note_off_c, 6, 69, 95
6, 556800, Note_off_c, 6, 62, 95
6, 556800, Note_off_c, 6, 59, 95
6, 556800, Note_off_c, 6, 50, 95
6, 556800, Note_off_c, 6, 43, 95
6, 556800, Note_on_c, 6, 69, 95
6, 556800, Note_on_c, 6, 62, 95
6, 556800, Note_on_c, 6, 59, 95
6, 556800, Note_on_c, 6, 50, 95
6, 556800, Note_on_c, 6, 43, 95
6, 558720, Note_off_c, 6, 69, 95
6, 558720, Note_off_c, 6, 62, 95
6, 558720, Note_off_c, 6, 59, 95
6, 558720, Note_off_c, 6, 50, 95
6, 558720, Note_off_c, 6, 43, 95
6, 558720, Note_on_c, 6, 65, 95
6, 558720, Note_on_c, 6, 60, 95
6, 558720, Note_on_c, 6, 57, 95
6, 558720, Note_on_c, 6, 53, 95
6, 558720, Note_on_c, 6, 48, 95
6, 558720, Note_on_c, 6, 41, 95
6, 562560, Note_off_c, 6, 65, 95
6, 562560, Note_off_c, 6, 60, 95
6, 562560, Note_off_c, 6, 57, 95
6, 562560, Note_off_c, 6, 53, 95
6, 562560, Note_off_c, 6, 48, 95
6, 562560, Note_off_c, 6, 41, 95
6, 562560, Note_on_c, 6, 65, 95
6, 562560, Note_on_c, 6, 60, 95
6, 562560, Note_on_c, 6, 57, 95
6, 562560, Note_on_c, 6, 53, 95
6, 562560, Note_on_c, 6, 48, 95
6, 562560, Note_on_c, 6, 41, 95
6, 564480, Note_off_c, 6, 65, 95
6, 564480, Note_off_c, 6, 60, 95
6, 564480, Note_off_c, 6, 57, 95
6, 564480, Note_off_c, 6, 53, 95
6, 564480, Note_off_c, 6, 48, 95
6, 564480, Note_off_c, 6, 41, 95
6, 564480, Note_on_c, 6, 65, 95
6, 564480, Note_on_c, 6, 60, 95
6, 564480, Note_on_c, 6, 57, 95
6, 564480, Note_on_c, 6, 53, 95
6, 564480, Note_on_c, 6, 48, 95
6, 564480, Note_on_c, 6, 41, 95
6, 568320, Note_off_c, 6, 65, 95
6, 568320, Note_off_c, 6, 60, 95
6, 568320, Note_off_c, 6, 57, 95
6, 568320, Note_off_c, 6, 53, 95
6, 568320, Note_off_c, 6, 48, 95
6, 568320, Note_off_c, 6, 41, 95
6, 568320, Note_on_c, 6, 65, 95
6, 568320, Note_on_c, 6, 60, 95
6, 568320, Note_on_c, 6, 57, 95
6, 568320, Note_on_c, 6, 53, 95
6, 568320, Note_on_c, 6, 48, 95
6, 568320, Note_on_c, 6, 41, 95
6, 570240, Note_off_c, 6, 65, 95
6, 570240, Note_off_c, 6, 60, 95
6, 570240, Note_off_c, 6, 57, 95
6, 570240, Note_off_c, 6, 53, 95
6, 570240, Note_off_c, 6, 48, 95
6, 570240, Note_off_c, 6, 41, 95
6, 570240, Note_on_c, 6, 65, 95
6, 570240, Note_on_c, 6, 60, 95
6, 570240, Note_on_c, 6, 57, 95
6, 570240, Note_on_c, 6, 53, 95
6, 570240, Note_on_c, 6, 48, 95
6, 570240, Note_on_c, 6, 41, 95
6, 574080, Note_off_c, 6, 65, 95
6, 574080, Note_off_c, 6, 60, 95
6, 574080, Note_off_c, 6, 57, 95
6, 574080, Note_off_c, 6, 53, 95
6, 574080, Note_off_c, 6, 48, 95
6, 574080, Note_off_c, 6, 41, 95
6, 574080, Note_on_c, 6, 65, 95
6, 574080, Note_on_c, 6, 60, 95
6, 574080, Note_on_c, 6, 57, 95
6, 574080, Note_on_c, 6, 53, 95
6, 574080, Note_on_c, 6, 48, 95
6, 574080, Note_on_c, 6, 41, 95
6, 576000, Note_off_c, 6, 65, 95
6, 576000, Note_off_c, 6, 60, 95
6, 576000, Note_off_c, 6, 57, 95
6, 576000, Note_off_c, 6, 53, 95
6, 576000, Note_off_c, 6, 48, 95
6, 576000, Note_off_c, 6, 41, 95
6, 576000, Note_on_c, 6, 65, 95
6, 576000, Note_on_c, 6, 60, 95
6, 576000, Note_on_c, 6, 57, 95
6, 576000, Note_on_c, 6, 53, 95
6, 576000, Note_on_c, 6, 48, 95
6, 576000, Note_on_c, 6, 41, 95
6, 579840, Note_off_c, 6, 65, 95
6, 579840, Note_off_c, 6, 60, 95
6, 579840, Note_off_c, 6, 57, 95
6, 579840, Note_off_c, 6, 53, 95
6, 579840, Note_off_c, 6, 48, 95
6, 579840, Note_off_c, 6, 41, 95
6, 579840, Note_on_c, 6, 65, 95
6, 579840, Note_on_c, 6, 60, 95
6, 579840, Note_on_c, 6, 57, 95
6, 579840, Note_on_c, 6, 53, 95
6, 579840, Note_on_c, 6, 48, 95
6, 579840, Note_on_c, 6, 41, 95
6, 581760, Note_off_c, 6, 65, 95
6, 581760, Note_off_c, 6, 60, 95
6, 581760, Note_off_c, 6, 57, 95
6, 581760, Note_off_c, 6, 53, 95
6, 581760, Note_off_c, 6, 48, 95
6, 581760, Note_off_c, 6, 41, 95
6, 581760, Note_on_c, 6, 64, 95
6, 581760, Note_on_c, 6, 60, 95
6, 581760, Note_on_c, 6, 55, 95
6, 581760, Note_on_c, 6, 52, 95
6, 581760, Note_on_c, 6, 48, 95
6, 585600, Note_off_c, 6, 64, 95
6, 585600, Note_off_c, 6, 60, 95
6, 585600, Note_off_c, 6, 55, 95
6, 585600, Note_off_c, 6, 52, 95
6, 585600, Note_off_c, 6, 48, 95
6, 585600, Note_on_c, 6, 64, 95
6, 585600, Note_on_c, 6, 60, 95
6, 585600, Note_on_c, 6, 55, 95
6, 585600, Note_on_c, 6, 52, 95
6, 585600, Note_on_c, 6, 48, 95
6, 587520, Note_off_c, 6, 64, 95
6, 587520, Note_off_c, 6, 60, 95
6, 587520, Note_off_c, 6, 55, 95
6, 587520, Note_off_c, 6, 52, 95
6, 587520, Note_off_c, 6, 48, 95
6, 587520, Note_on_c, 6, 64, 95
6, 587520, Note_on_c, 6, 60, 95
6, 587520, Note_on_c, 6, 55, 95
6, 587520, Note_on_c, 6, 52, 95
6, 587520, Note_on_c, 6, 48, 95
6, 591360, Note_off_c, 6, 64, 95
6, 591360, Note_off_c, 6, 60, 95
6, 591360, Note_off_c, 6, 55, 95
6, 591360, Note_off_c, 6, 52, 95
6, 591360, Note_off_c, 6, 48, 95
6, 591360, Note_on_c, 6, 64, 95
6, 591360, Note_on_c, 6, 60, 95
6, 591360, Note_on_c, 6, 55, 95
6, 591360, Note_on_c, 6, 52, 95
6, 591360, Note_on_c, 6, 48, 95
6, 593280, Note_off_c, 6, 64, 95
6, 593280, Note_off_c, 6, 60, 95
6, 593280, Note_off_c, 6, 55, 95
6, 593280, Note_off_c, 6, 52, 95
6, 593280, Note_off_c, 6, 48, 95
6, 593280, Note_on_c, 6, 65, 95
6, 593280, Note_on_c, 6, 60, 95
6, 593280, Note_on_c, 6, 57, 95
6, 593280, Note_on_c, 6, 53, 95
6, 593280, Note_on_c, 6, 48, 95
6, 593280, Note_on_c, 6, 41, 95
6, 597120, Note_off_c, 6, 65, 95
6, 597120, Note_off_c, 6, 60, 95
6, 597120, Note_off_c, 6, 57, 95
6, 597120, Note_off_c, 6, 53, 95
6, 597120, Note_off_c, 6, 48, 95
6, 597120, Note_off_c, 6, 41, 95
6, 597120, Note_on_c, 6, 65, 95
6, 597120, Note_on_c, 6, 60, 95
6, 597120, Note_on_c, 6, 57, 95
6, 597120, Note_on_c, 6, 53, 95
6, 597120, Note_on_c, 6, 48, 95
6, 597120, Note_on_c, 6, 41, 95
6, 599040, Note_off_c, 6, 65, 95
6, 599040, Note_off_c, 6, 60, 95
6, 599040, Note_off_c, 6, 57, 95
6, 599040, Note_off_c, 6, 53, 95
6, 599040, Note_off_c, 6, 48, 95
6, 599040, Note_off_c, 6, 41, 95
6, 599040, Note_on_c, 6, 65, 95
6, 599040, Note_on_c, 6, 60, 95
6, 599040, Note_on_c, 6, 57, 95
6, 599040, Note_on_c, 6, 53, 95
6, 599040, Note_on_c, 6, 48, 95
6, 599040, Note_on_c, 6, 41, 95
6, 602880, Note_off_c, 6, 65, 95
6, 602880, Note_off_c, 6, 60, 95
6, 602880, Note_off_c, 6, 57, 95
6, 602880, Note_off_c, 6, 53, 95
6, 602880, Note_off_c, 6, 48, 95
6, 602880, Note_off_c, 6, 41, 95
6, 602880, Note_on_c, 6, 65, 95
6, 602880, Note_on_c, 6, 60, 95
6, 602880, Note_on_c, 6, 57, 95
6, 602880, Note_on_c, 6, 53, 95
6, 602880, Note_on_c, 6, 48, 95
6, 602880, Note_on_c, 6, 41, 95
6, 604800, Note_off_c, 6, 65, 95
6, 604800, Note_off_c, 6, 60, 95
6, 604800, Note_off_c, 6, 57, 95
6, 604800, Note_off_c, 6, 53, 95
6, 604800, Note_off_c, 6, 48, 95
6, 604800, Note_off_c, 6, 41, 95
6, 604800, Note_on_c, 6, 65, 95
6, 604800, Note_on_c, 6, 62, 95
6, 604800, Note_on_c, 6, 57, 95
6, 604800, Note_on_c, 6, 50, 95
6, 608640, Note_off_c, 6, 65, 95
6, 608640, Note_off_c, 6, 62, 95
6, 608640, Note_off_c, 6, 57, 95
6, 608640, Note_off_c, 6, 50, 95
6, 608640, Note_on_c, 6, 65, 95
6, 608640, Note_on_c, 6, 62, 95
6, 608640, Note_on_c, 6, 57, 95
6, 608640, Note_on_c, 6, 50, 95
6, 610560, Note_off_c, 6, 65, 95
6, 610560, Note_off_c, 6, 62, 95
6, 610560, Note_off_c, 6, 57, 95
6, 610560, Note_off_c, 6, 50, 95
6, 610560, Note_on_c, 6, 65, 95
6, 610560, Note_on_c, 6, 62, 95
6, 610560, Note_on_c, 6, 57, 95
6, 610560, Note_on_c, 6, 50, 95
6, 614400, Note_off_c, 6, 65, 95
6, 614400, Note_off_c, 6, 62, 95
6, 614400, Note_off_c, 6, 57, 95
6, 614400, Note_off_c, 6, 50, 95
6, 614400, Note_on_c, 6, 65, 95
6, 614400, Note_on_c, 6, 62, 95
6, 614400, Note_on_c, 6, 57, 95
6, 614400, Note_on_c, 6, 50, 95
6, 616320, Note_off_c, 6, 65, 95
6, 616320, Note_off_c, 6, 62, 95
6, 616320, Note_off_c, 6, 57, 95
6, 616320, Note_off_c, 6, 50, 95
6, 616320, Note_on_c, 6, 67, 95
6, 616320, Note_on_c, 6, 59, 95
6, 616320, Note_on_c, 6, 55, 95
6, 616320, Note_on_c, 6, 50, 95
6, 616320, Note_on_c, 6, 47, 95
6, 616320, Note_on_c, 6, 43, 95
6, 620160, Note_off_c, 6, 67, 95
6, 620160, Note_off_c, 6, 59, 95
6, 620160, Note_off_c, 6, 55, 95
6, 620160, Note_off_c, 6, 50, 95
6, 620160, Note_off_c, 6, 47, 95
6, 620160, Note_off_c, 6, 43, 95
6, 620160, Note_on_c, 6, 67, 95
6, 620160, Note_on_c, 6, 59, 95
6, 620160, Note_on_c, 6, 55, 95
6, 620160, Note_on_c, 6, 50, 95
6, 620160, Note_on_c, 6, 47, 95
6, 620160, Note_on_c, 6, 43, 95
6, 622080, Note_off_c, 6, 67, 95
6, 622080, Note_off_c, 6, 59, 95
6, 622080, Note_off_c, 6, 55, 95
6, 622080, Note_off_c, 6, 50, 95
6, 622080, Note_off_c, 6, 47, 95
6, 622080, Note_off_c, 6, 43, 95
6, 622080, Note_on_c, 6, 67, 95
6, 622080, Note_on_c, 6, 59, 95
6, 622080, Note_on_c, 6, 55, 95
6, 622080, Note_on_c, 6, 50, 95
6, 622080, Note_on_c, 6, 47, 95
6, 622080, Note_on_c, 6, 43, 95
6, 625920, Note_off_c, 6, 67, 95
6, 625920, Note_off_c, 6, 59, 95
6, 625920, Note_off_c, 6, 55, 95
6, 625920, Note_off_c, 6, 50, 95
6, 625920, Note_off_c, 6, 47, 95
6, 625920, Note_off_c, 6, 43, 95
6, 625920, Note_on_c, 6, 67, 95
6, 625920, Note_on_c, 6, 59, 95
6, 625920, Note_on_c, 6, 55, 95
6, 625920, Note_on_c, 6, 50, 95
6, 625920, Note_on_c, 6, 47, 95
6, 625920, Note_on_c, 6, 43, 95
6, 627840, Note_off_c, 6, 67, 95
6, 627840, Note_off_c, 6, 59, 95
6, 627840, Note_off_c, 6, 55, 95
6, 627840, Note_off_c, 6, 50, 95
6, 627840, Note_off_c, 6, 47, 95
6, 627840, Note_off_c, 6, 43, 95
6, 627840, Note_on_c, 6, 64, 95
6, 627840, Note_on_c, 6, 60, 95
6, 627840, Note_on_c, 6, 55, 95
6, 627840, Note_on_c, 6, 52, 95
6, 627840, Note_on_c, 6, 48, 95
6, 631680, Note_off_c, 6, 64, 95
6, 631680, Note_off_c, 6, 60, 95
6, 631680, Note_off_c, 6, 55, 95
6, 631680, Note_off_c, 6, 52, 95
6, 631680, Note_off_c, 6, 48, 95
6, 631680, Note_on_c, 6, 64, 95
6, 631680, Note_on_c, 6, 60, 95
6, 631680, Note_on_c, 6, 55, 95
6, 631680, Note_on_c, 6, 52, 95
6, 631680, Note_on_c, 6, 48, 95
6, 633600, Note_off_c, 6, 64, 95
6, 633600, Note_off_c, 6, 60, 95
6, 633600, Note_off_c, 6, 55, 95
6, 633600, Note_off_c, 6, 52, 95
6, 633600, Note_off_c, 6, 48, 95
6, 633600, Note_on_c, 6, 64, 95
6, 633600, Note_on_c, 6, 60, 95
6, 633600, Note_on_c, 6, 55, 95
6, 633600, Note_on_c, 6, 52, 95
6, 633600, Note_on_c, 6, 48, 95
6, 637440, Note_off_c, 6, 64, 95
6, 637440, Note_off_c, 6, 60, 95
6, 637440, Note_off_c, 6, 55, 95
6, 637440, Note_off_c, 6, 52, 95
6, 637440, Note_off_c, 6, 48, 95
6, 637440, Note_on_c, 6, 64, 95
6, 637440, Note_on_c, 6, 60, 95
6, 637440, Note_on_c, 6, 55, 95
6, 637440, Note_on_c, 6, 52, 95
6, 637440, Note_on_c, 6, 48, 95
6, 639360, Note_off_c, 6, 64, 95
6, 639360, Note_off_c, 6, 60, 95
6, 639360, Note_off_c, 6, 55, 95
6, 639360, Note_off_c, 6, 52, 95
6, 639360, Note_off_c, 6, 48, 95
6, 639360, Note_on_c, 6, 65, 95
6, 639360, Note_on_c, 6, 60, 95
6, 639360, Note_on_c, 6, 57, 95
6, 639360, Note_on_c, 6, 53, 95
6, 639360, Note_on_c, 6, 48, 95
6, 639360, Note_on_c, 6, 41, 95
6, 643200, Note_off_c, 6, 65, 95
6, 643200, Note_off_c, 6, 60, 95
6, 643200, Note_off_c, 6, 57, 95
6, 643200, Note_off_c, 6, 53, 95
6, 643200, Note_off_c, 6, 48, 95
6, 643200, Note_off_c, 6, 41, 95
6, 643200, Note_on_c, 6, 65, 95
6, 643200, Note_on_c, 6, 60, 95
6, 643200, Note_on_c, 6, 57, 95
6, 643200, Note_on_c, 6, 53, 95
6, 643200, Note_on_c, 6, 48, 95
6, 643200, Note_on_c, 6, 41, 95
6, 645120, Note_off_c, 6, 65, 95
6, 645120, Note_off_c, 6, 60, 95
6, 645120, Note_off_c, 6, 57, 95
6, 645120, Note_off_c, 6, 53, 95
6, 645120, Note_off_c, 6, 48, 95
6, 645120, Note_off_c, 6, 41, 95
6, 645120, Note_on_c, 6, 65, 95
6, 645120, Note_on_c, 6, 60, 95
6, 645120, Note_on_c, 6, 57, 95
6, 645120, Note_on_c, 6, 53, 95
6, 645120, Note_on_c, 6, 48, 95
6, 645120, Note_on_c, 6, 41, 95
6, 648960, Note_off_c, 6, 65, 95
6, 648960, Note_off_c, 6, 60, 95
6, 648960, Note_off_c, 6, 57, 95
6, 648960, Note_off_c, 6, 53, 95
6, 648960, Note_off_c, 6, 48, 95
6, 648960, Note_off_c, 6, 41, 95
6, 648960, Note_on_c, 6, 65, 95
6, 648960, Note_on_c, 6, 60, 95
6, 648960, Note_on_c, 6, 57, 95
6, 648960, Note_on_c, 6, 53, 95
6, 648960, Note_on_c, 6, 48, 95
6, 648960, Note_on_c, 6, 41, 95
6, 650880, Note_off_c, 6, 65, 95
6, 650880, Note_off_c, 6, 60, 95
6, 650880, Note_off_c, 6, 57, 95
6, 650880, Note_off_c, 6, 53, 95
6, 650880, Note_off_c, 6, 48, 95
6, 650880, Note_off_c, 6, 41, 95
6, 650880, Note_on_c, 6, 65, 95
6, 650880, Note_on_c, 6, 62, 95
6, 650880, Note_on_c, 6, 57, 95
6, 650880, Note_on_c, 6, 50, 95
6, 654720, Note_off_c, 6, 65, 95
6, 654720, Note_off_c, 6, 62, 95
6, 654720, Note_off_c, 6, 57, 95
6, 654720, Note_off_c, 6, 50, 95
6, 654720, Note_on_c, 6, 65, 95
6, 654720, Note_on_c, 6, 62, 95
6, 654720, Note_on_c, 6, 57, 95
6, 654720, Note_on_c, 6, 50, 95
6, 656640, Note_off_c, 6, 65, 95
6, 656640, Note_off_c, 6, 62, 95
6, 656640, Note_off_c, 6, 57, 95
6, 656640, Note_off_c, 6, 50, 95
6, 656640, Note_on_c, 6, 65, 95
6, 656640, Note_on_c, 6, 62, 95
6, 656640, Note_on_c, 6, 57, 95
6, 656640, Note_on_c, 6, 50, 95
6, 660480, Note_off_c, 6, 65, 95
6, 660480, Note_off_c, 6, 62, 95
6, 660480, Note_off_c, 6, 57, 95
6, 660480, Note_off_c, 6, 50, 95
6, 660480, Note_on_c, 6, 65, 95
6, 660480, Note_on_c, 6, 62, 95
6, 660480, Note_on_c, 6, 57, 95
6, 660480, Note_on_c, 6, 50, 95
6, 662400, Note_off_c, 6, 65, 95
6, 662400, Note_off_c, 6, 62, 95
6, 662400, Note_off_c, 6, 57, 95
6, 662400, Note_off_c, 6, 50, 95
6, 662400, Note_on_c, 6, 67, 95
6, 662400, Note_on_c, 6, 59, 95
6, 662400, Note_on_c, 6, 55, 95
6, 662400, Note_on_c, 6, 50, 95
6, 662400, Note_on_c, 6, 47, 95
6, 662400, Note_on_c, 6, 43, 95
6, 666240, Note_off_c, 6, 67, 95
6, 666240, Note_off_c, 6, 59, 95
6, 666240, Note_off_c, 6, 55, 95
6, 666240, Note_off_c, 6, 50, 95
6, 666240, Note_off_c, 6, 47, 95
6, 666240, Note_off_c, 6, 43, 95
6, 666240, Note_on_c, 6, 67, 95
6, 666240, Note_on_c, 6, 59, 95
6, 666240, Note_on_c, 6, 55, 95
6, 666240, Note_on_c, 6, 50, 95
6, 666240, Note_on_c, 6, 47, 95
6, 666240, Note_on_c, 6, 43, 95
6, 668160, Note_off_c, 6, 67, 95
6, 668160, Note_off_c, 6, 59, 95
6, 668160, Note_off_c, 6, 55, 95
6, 668160, Note_off_c, 6, 50, 95
6, 668160, Note_off_c, 6, 47, 95
6, 668160, Note_off_c, 6, 43, 95
6, 668160, Note_on_c, 6, 64, 95
6, 668160, Note_on_c, 6, 60, 95
6, 668160, Note_on_c, 6, 57, 95
6, 668160, Note_on_c, 6, 52, 95
6, 668160, Note_on_c, 6, 45, 95
6, 672000, Note_off_c, 6, 64, 95
6, 672000, Note_off_c, 6, 60, 95
6, 672000, Note_off_c, 6, 57, 95
6, 672000, Note_off_c, 6, 52, 95
6, 672000, Note_off_c, 6, 45, 95
6, 672000, Note_on_c, 6, 64, 95
6, 672000, Note_on_c, 6, 60, 95
6, 672000, Note_on_c, 6, 57, 95
6, 672000, Note_on_c, 6, 52, 95
6, 672000, Note_on_c, 6, 45, 95
6, 673920, Note_off_c, 6, 64, 95
6, 673920, Note_off_c, 6, 60, 95
6, 673920, Note_off_c, 6, 57, 95
6, 673920, Note_off_c, 6, 52, 95
6, 673920, Note_off_c, 6, 45, 95
6, 673920, Note_on_c, 6, 64, 95
6, 673920, Note_on_c, 6, 60, 95
6, 673920, Note_on_c, 6, 57, 95
6, 673920, Note_on_c, 6, 52, 95
6, 673920, Note_on_c, 6, 45, 95
6, 677760, Note_off_c, 6, 64, 95
6, 677760, Note_off_c, 6, 60, 95
6, 677760, Note_off_c, 6, 57, 95
6, 677760, Note_off_c, 6, 52, 95
6, 677760, Note_off_c, 6, 45, 95
6, 677760, Note_on_c, 6, 64, 95
6, 677760, Note_on_c, 6, 60, 95
6, 677760, Note_on_c, 6, 57, 95
6, 677760, Note_on_c, 6, 52, 95
6, 677760, Note_on_c, 6, 45, 95
6, 679680, Note_off_c, 6, 64, 95
6, 679680, Note_off_c, 6, 60, 95
6, 679680, Note_off_c, 6, 57, 95
6, 679680, Note_off_c, 6, 52, 95
6, 679680, Note_off_c, 6, 45, 95
6, 679680, Note_on_c, 6, 69, 95
6, 679680, Note_on_c, 6, 62, 95
6, 679680, Note_on_c, 6, 60, 95
6, 679680, Note_on_c, 6, 50, 95
6, 683520, Note_off_c, 6, 69, 95
6, 683520, Note_off_c, 6, 62, 95
6, 683520, Note_off_c, 6, 60, 95
6, 683520, Note_off_c, 6, 50, 95
6, 683520, Note_on_c, 6, 69, 95
6, 683520, Note_on_c, 6, 62, 95
6, 683520, Note_on_c, 6, 60, 95
6, 683520, Note_on_c, 6, 50, 95
6, 685440, Note_off_c, 6, 69, 95
6, 685440, Note_off_c, 6, 62, 95
6, 685440, Note_off_c, 6, 60, 95
6, 685440, Note_off_c, 6, 50, 95
6, 685440, Note_on_c, 6, 69, 95
6, 685440, Note_on_c, 6, 62, 95
6, 685440, Note_on_c, 6, 60, 95
6, 685440, Note_on_c, 6, 50, 95
6, 689280, Note_off_c, 6, 69, 95
6, 689280, Note_off_c, 6, 62, 95
6, 689280, Note_off_c, 6, 60, 95
6, 689280, Note_off_c, 6, 50, 95
6, 689280, Note_on_c, 6, 69, 95
6, 689280, Note_on_c, 6, 62, 95
6, 689280, Note_on_c, 6, 60, 95
6, 689280, Note_on_c, 6, 50, 95
6, 691200, Note_off_c, 6, 69, 95
6, 691200, Note_off_c, 6, 62, 95
6, 691200, Note_off_c, 6, 60, 95
6, 691200, Note_off_c, 6, 50, 95
6, 691200, Note_on_c, 6, 69, 95
6, 691200, Note_on_c, 6, 62, 95
6, 691200, Note_on_c, 6, 60, 95
6, 691200, Note_on_c, 6, 43, 95
6, 695040, Note_off_c, 6, 69, 95
6, 695040, Note_off_c, 6, 62, 95
6, 695040, Note_off_c, 6, 60, 95
6, 695040, Note_off_c, 6, 43, 95
6, 695040, Note_on_c, 6, 69, 95
6, 695040, Note_on_c, 6, 62, 95
6, 695040, Note_on_c, 6, 60, 95
6, 695040, Note_on_c, 6, 43, 95
6, 696960, Note_off_c, 6, 69, 95
6, 696960, Note_off_c, 6, 62, 95
6, 696960, Note_off_c, 6, 60, 95
6, 696960, Note_off_c, 6, 43, 95
6, 696960, Note_on_c, 6, 69, 95
6, 696960, Note_on_c, 6, 62, 95
6, 696960, Note_on_c, 6, 59, 95
6, 696960, Note_on_c, 6, 50, 95
6, 696960, Note_on_c, 6, 43, 95
6, 700800, Note_off_c, 6, 69, 95
6, 700800, Note_off_c, 6, 62, 95
6, 700800, Note_off_c, 6, 59, 95
6, 700800, Note_off_c, 6, 50, 95
6, 700800, Note_off_c, 6, 43, 95
6, 700800, Note_on_c, 6, 69, 95
6, 700800, Note_on_c, 6, 62, 95
6, 700800, Note_on_c, 6, 59, 95
6, 700800, Note_on_c, 6, 50, 95
6, 700800, Note_on_c, 6, 43, 95
6, 702720, Note_off_c, 6, 69, 95
6, 702720, Note_off_c, 6, 62, 95
6, 702720, Note_off_c, 6, 59, 95
6, 702720, Note_off_c, 6, 50, 95
6, 702720, Note_off_c, 6, 43, 95
6, 702720, Note_on_c, 6, 65, 95
6, 702720, Note_on_c, 6, 60, 95
6, 702720, Note_on_c, 6, 57, 95
6, 702720, Note_on_c, 6, 53, 95
6, 702720, Note_on_c, 6, 48, 95
6, 702720, Note_on_c, 6, 41, 95
6, 706560, Note_off_c, 6, 65, 95
6, 706560, Note_off_c, 6, 60, 95
6, 706560, Note_off_c, 6, 57, 95
6, 706560, Note_off_c, 6, 53, 95
6, 706560, Note_off_c, 6, 48, 95
6, 706560, Note_off_c, 6, 41, 95
6, 706560, Note_on_c, 6, 65, 95
6, 706560, Note_on_c, 6, 60, 95
6, 706560, Note_on_c, 6, 57, 95
6, 706560, Note_on_c, 6, 53, 95
6, 706560, Note_on_c, 6, 48, 95
6, 706560, Note_on_c, 6, 41, 95
6, 708480, Note_off_c, 6, 65, 95
6, 708480, Note_off_c, 6, 60, 95
6, 708480, Note_off_c, 6, 57, 95
6, 708480, Note_off_c, 6, 53, 95
6, 708480, Note_off_c, 6, 48, 95
6, 708480, Note_off_c, 6, 41, 95
6, 708480, Note_on_c, 6, 65, 95
6, 708480, Note_on_c, 6, 60, 95
6, 708480, Note_on_c, 6, 57, 95
6, 708480, Note_on_c, 6, 53, 95
6, 708480, Note_on_c, 6, 48, 95
6, 708480, Note_on_c, 6, 41, 95
6, 712320, Note_off_c, 6, 65, 95
6, 712320, Note_off_c, 6, 60, 95
6, 712320, Note_off_c, 6, 57, 95
6, 712320, Note_off_c, 6, 53, 95
6, 712320, Note_off_c, 6, 48, 95
6, 712320, Note_off_c, 6, 41, 95
6, 712320, Note_on_c, 6, 65, 95
6, 712320, Note_on_c, 6, 60, 95
6, 712320, Note_on_c, 6, 57, 95
6, 712320, Note_on_c, 6, 53, 95
6, 712320, Note_on_c, 6, 48, 95
6, 712320, Note_on_c, 6, 41, 95
6, 714240, Note_off_c, 6, 65, 95
6, 714240, Note_off_c, 6, 60, 95
6, 714240, Note_off_c, 6, 57, 95
6, 714240, Note_off_c, 6, 53, 95
6, 714240, Note_off_c, 6, 48, 95
6, 714240, Note_off_c, 6, 41, 95
6, 714240, Note_on_c, 6, 65, 95
6, 714240, Note_on_c, 6, 60, 95
6, 714240, Note_on_c, 6, 57, 95
6, 714240, Note_on_c, 6, 53, 95
6, 714240, Note_on_c, 6, 48, 95
6, 714240, Note_on_c, 6, 41, 95
6, 718080, Note_off_c, 6, 65, 95
6, 718080, Note_off_c, 6, 60, 95
6, 718080, Note_off_c, 6, 57, 95
6, 718080, Note_off_c, 6, 53, 95
6, 718080, Note_off_c, 6, 48, 95
6, 718080, Note_off_c, 6, 41, 95
6, 718080, Note_on_c, 6, 65, 95
6, 718080, Note_on_c, 6, 60, 95
6, 718080, Note_on_c, 6, 57, 95
6, 718080, Note_on_c, 6, 53, 95
6, 718080, Note_on_c, 6, 48, 95
6, 718080, Note_on_c, 6, 41, 95
6, 720000, Note_off_c, 6, 65, 95
6, 720000, Note_off_c, 6, 60, 95
6, 720000, Note_off_c, 6, 57, 95
6, 720000, Note_off_c, 6, 53, 95
6, 720000, Note_off_c, 6, 48, 95
6, 720000, Note_off_c, 6, 41, 95
6, 720000, Note_on_c, 6, 65, 95
6, 720000, Note_on_c, 6, 60, 95
6, 720000, Note_on_c, 6, 57, 95
6, 720000, Note_on_c, 6, 53, 95
6, 720000, Note_on_c, 6, 48, 95
6, 720000, Note_on_c, 6, 41, 95
6, 721920, Note_off_c, 6, 41, 95
6, 725760, Note_off_c, 6, 65, 95
6, 725760, Note_off_c, 6, 60, 95
6, 725760, Note_off_c, 6, 57, 95
6, 725760, Note_off_c, 6, 53, 95
6, 725760, Note_off_c, 6, 48, 95
6, 725760, Note_on_c, 6, 64, 95
6, 725760, Note_on_c, 6, 60, 95
6, 725760, Note_on_c, 6, 52, 95
6, 725760, Note_on_c, 6, 48, 95
6, 725760, Note_on_c, 6, 43, 95
6, 731520, Note_off_c, 6, 64, 95
6, 731520, Note_off_c, 6, 60, 95
6, 731520, Note_off_c, 6, 52, 95
6, 731520, Note_off_c, 6, 48, 95
6, 731520, Note_off_c, 6, 43, 95
6, 731520, End_track
7, 0, Start_track
7, 0, Pitch_bend_c, 8, 8192
7, 0, Control_c, 8, 7, 95
7, 0, Control_c, 8, 10, 63
7, 0, Control_c, 8, 93, 0
7, 0, Control_c, 8, 91, 0
7, 0, Control_c, 8, 95, 0
7, 0, Control_c, 8, 92, 0
7, 0, Control_c, 8, 11, 127
7, 0, Program_c, 8, 49
7, 0, Control_c, 10, 7, 95
7, 0, Control_c, 10, 10, 63
7, 0, Control_c, 10, 93, 0
7, 0, Control_c, 10, 91, 0
7, 0, Control_c, 10, 95, 0
7, 0, Control_c, 10, 92, 0
7, 0, Control_c, 10, 11, 127
7, 0, Program_c, 10, 49
7, 46080, Note_on_c, 8, 64, 95
7, 46080, Note_on_c, 8, 60, 95
7, 46080, Note_on_c, 8, 52, 95
7, 46080, Note_on_c, 8, 48, 95
7, 57600, Note_off_c, 8, 64, 95
7, 57600, Note_off_c, 8, 60, 95
7, 57600, Note_off_c, 8, 52, 95
7, 57600, Note_off_c, 8, 48, 95
7, 57600, Note_on_c, 8, 65, 95
7, 57600, Note_on_c, 8, 60, 95
7, 57600, Note_on_c, 8, 53, 95
7, 57600, Note_on_c, 8, 48, 95
7, 57600, Note_on_c, 8, 41, 95
7, 69120, Note_off_c, 8, 65, 95
7, 69120, Note_off_c, 8, 60, 95
7, 69120, Note_off_c, 8, 53, 95
7, 69120, Note_off_c, 8, 48, 95
7, 69120, Note_off_c, 8, 41, 95
7, 69120, Note_on_c, 8, 65, 95
7, 69120, Note_on_c, 8, 62, 95
7, 69120, Note_on_c, 8, 57, 95
7, 69120, Note_on_c, 8, 50, 95
7, 80640, Note_off_c, 8, 65, 95
7, 80640, Note_off_c, 8, 62, 95
7, 80640, Note_off_c, 8, 57, 95
7, 80640, Note_off_c, 8, 50, 95
7, 80640, Note_on_c, 8, 67, 95
7, 80640, Note_on_c, 8, 59, 95
7, 80640, Note_on_c, 8, 55, 95
7, 80640, Note_on_c, 8, 50, 95
7, 80640, Note_on_c, 8, 47, 95
7, 80640, Note_on_c, 8, 43, 95
7, 92160, Note_off_c, 8, 67, 95
7, 92160, Note_off_c, 8, 59, 95
7, 92160, Note_off_c, 8, 55, 95
7, 92160, Note_off_c, 8, 50, 95
7, 92160, Note_off_c, 8, 47, 95
7, 92160, Note_off_c, 8, 43, 95
7, 92160, Note_on_c, 8, 64, 95
7, 92160, Note_on_c, 8, 60, 95
7, 92160, Note_on_c, 8, 52, 95
7, 92160, Note_on_c, 8, 48, 95
7, 103680, Note_off_c, 8, 64, 95
7, 103680, Note_off_c, 8, 60, 95
7, 103680, Note_off_c, 8, 52, 95
7, 103680, Note_off_c, 8, 48, 95
7, 103680, Note_on_c, 8, 65, 95
7, 103680, Note_on_c, 8, 60, 95
7, 103680, Note_on_c, 8, 53, 95
7, 103680, Note_on_c, 8, 48, 95
7, 103680, Note_on_c, 8, 41, 95
7, 115200, Note_off_c, 8, 65, 95
7, 115200, Note_off_c, 8, 60, 95
7, 115200, Note_off_c, 8, 53, 95
7, 115200, Note_off_c, 8, 48, 95
7, 115200, Note_off_c, 8, 41, 95
7, 115200, Note_on_c, 8, 65, 95
7, 115200, Note_on_c, 8, 62, 95
7, 115200, Note_on_c, 8, 57, 95
7, 115200, Note_on_c, 8, 50, 95
7, 126720, Note_off_c, 8, 65, 95
7, 126720, Note_off_c, 8, 62, 95
7, 126720, Note_off_c, 8, 57, 95
7, 126720, Note_off_c, 8, 50, 95
7, 126720, Note_on_c, 8, 67, 95
7, 126720, Note_on_c, 8, 59, 95
7, 126720, Note_on_c, 8, 55, 95
7, 126720, Note_on_c, 8, 50, 95
7, 126720, Note_on_c, 8, 47, 95
7, 126720, Note_on_c, 8, 43, 95
7, 138240, Note_off_c, 8, 67, 95
7, 138240, Note_off_c, 8, 59, 95
7, 138240, Note_off_c, 8, 55, 95
7, 138240, Note_off_c, 8, 50, 95
7, 138240, Note_off_c, 8, 47, 95
7, 138240, Note_off_c, 8, 43, 95
7, 138240, Note_on_c, 8, 64, 95
7, 138240, Note_on_c, 8, 60, 95
7, 138240, Note_on_c, 8, 57, 95
7, 138240, Note_on_c, 8, 52, 95
7, 138240, Note_on_c, 8, 45, 95
7, 149760, Note_off_c, 8, 64, 95
7, 149760, Note_off_c, 8, 60, 95
7, 149760, Note_off_c, 8, 57, 95
7, 149760, Note_off_c, 8, 52, 95
7, 149760, Note_off_c, 8, 45, 95
7, 149760, Note_on_c, 8, 69, 95
7, 149760, Note_on_c, 8, 62, 95
7, 149760, Note_on_c, 8, 60, 95
7, 149760, Note_on_c, 8, 50, 95
7, 161280, Note_off_c, 8, 69, 95
7, 161280, Note_off_c, 8, 62, 95
7, 161280, Note_off_c, 8, 60, 95
7, 161280, Note_off_c, 8, 50, 95
7, 161280, Note_on_c, 8, 69, 95
7, 161280, Note_on_c, 8, 62, 95
7, 161280, Note_on_c, 8, 60, 95
7, 161280, Note_on_c, 8, 50, 95
7, 161280, Note_on_c, 8, 43, 95
7, 167040, Note_off_c, 8, 69, 95
7, 167040, Note_off_c, 8, 62, 95
7, 167040, Note_off_c, 8, 60, 95
7, 167040, Note_off_c, 8, 50, 95
7, 167040, Note_off_c, 8, 43, 95
7, 167040, Note_on_c, 8, 69, 95
7, 167040, Note_on_c, 8, 62, 95
7, 167040, Note_on_c, 8, 59, 95
7, 167040, Note_on_c, 8, 50, 95
7, 167040, Note_on_c, 8, 43, 95
7, 172800, Note_off_c, 8, 69, 95
7, 172800, Note_off_c, 8, 62, 95
7, 172800, Note_off_c, 8, 59, 95
7, 172800, Note_off_c, 8, 50, 95
7, 172800, Note_off_c, 8, 43, 95
7, 172800, Note_on_c, 8, 65, 95
7, 172800, Note_on_c, 8, 60, 95
7, 172800, Note_on_c, 8, 53, 95
7, 172800, Note_on_c, 8, 48, 95
7, 172800, Note_on_c, 8, 41, 95
7, 182400, Note_off_c, 8, 65, 95
7, 182400, Note_off_c, 8, 60, 95
7, 182400, Note_on_c, 8, 64, 95
7, 182400, Note_on_c, 8, 62, 95
7, 195840, Note_off_c, 8, 53, 95
7, 195840, Note_off_c, 8, 48, 95
7, 195840, Note_off_c, 8, 41, 95
7, 195840, Note_off_c, 8, 64, 95
7, 195840, Note_off_c, 8, 62, 95
7, 195840, Note_on_c, 8, 64, 95
7, 195840, Note_on_c, 8, 60, 95
7, 195840, Note_on_c, 8, 52, 95
7, 195840, Note_on_c, 8, 48, 95
7, 207360, Note_off_c, 8, 64, 95
7, 207360, Note_off_c, 8, 60, 95
7, 207360, Note_off_c, 8, 52, 95
7, 207360, Note_off_c, 8, 48, 95
7, 207360, Note_on_c, 8, 65, 95
7, 207360, Note_on_c, 8, 60, 95
7, 207360, Note_on_c, 8, 53, 95
7, 207360, Note_on_c, 8, 48, 95
7, 207360, Note_on_c, 8, 41, 95
7, 218880, Note_off_c, 8, 65, 95
7, 218880, Note_off_c, 8, 60, 95
7, 218880, Note_off_c, 8, 53, 95
7, 218880, Note_off_c, 8, 48, 95
7, 218880, Note_off_c, 8, 41, 95
7, 218880, Note_on_c, 8, 65, 95
7, 218880, Note_on_c, 8, 62, 95
7, 218880, Note_on_c, 8, 57, 95
7, 218880, Note_on_c, 8, 50, 95
7, 230400, Note_off_c, 8, 65, 95
7, 230400, Note_off_c, 8, 62, 95
7, 230400, Note_off_c, 8, 57, 95
7, 230400, Note_off_c, 8, 50, 95
7, 230400, Note_on_c, 8, 67, 95
7, 230400, Note_on_c, 8, 59, 95
7, 230400, Note_on_c, 8, 55, 95
7, 230400, Note_on_c, 8, 50, 95
7, 230400, Note_on_c, 8, 47, 95
7, 230400, Note_on_c, 8, 43, 95
7, 241920, Note_off_c, 8, 67, 95
7, 241920, Note_off_c, 8, 59, 95
7, 241920, Note_off_c, 8, 55, 95
7, 241920, Note_off_c, 8, 50, 95
7, 241920, Note_off_c, 8, 47, 95
7, 241920, Note_off_c, 8, 43, 95
7, 241920, Note_on_c, 8, 64, 95
7, 241920, Note_on_c, 8, 60, 95
7, 241920, Note_on_c, 8, 52, 95
7, 241920, Note_on_c, 8, 48, 95
7, 253440, Note_off_c, 8, 64, 95
7, 253440, Note_off_c, 8, 60, 95
7, 253440, Note_off_c, 8, 52, 95
7, 253440, Note_off_c, 8, 48, 95
7, 253440, Note_on_c, 8, 65, 95
7, 253440, Note_on_c, 8, 60, 95
7, 253440, Note_on_c, 8, 53, 95
7, 253440, Note_on_c, 8, 48, 95
7, 253440, Note_on_c, 8, 41, 95
7, 264960, Note_off_c, 8, 65, 95
7, 264960, Note_off_c, 8, 60, 95
7, 264960, Note_off_c, 8, 53, 95
7, 264960, Note_off_c, 8, 48, 95
7, 264960, Note_off_c, 8, 41, 95
7, 264960, Note_on_c, 8, 65, 95
7, 264960, Note_on_c, 8, 62, 95
7, 264960, Note_on_c, 8, 57, 95
7, 264960, Note_on_c, 8, 50, 95
7, 276480, Note_off_c, 8, 65, 95
7, 276480, Note_off_c, 8, 62, 95
7, 276480, Note_off_c, 8, 57, 95
7, 276480, Note_off_c, 8, 50, 95
7, 276480, Note_on_c, 8, 67, 95
7, 276480, Note_on_c, 8, 59, 95
7, 276480, Note_on_c, 8, 55, 95
7, 276480, Note_on_c, 8, 50, 95
7, 276480, Note_on_c, 8, 47, 95
7, 276480, Note_on_c, 8, 43, 95
7, 288000, Note_off_c, 8, 67, 95
7, 288000, Note_off_c, 8, 59, 95
7, 288000, Note_off_c, 8, 55, 95
7, 288000, Note_off_c, 8, 50, 95
7, 288000, Note_off_c, 8, 47, 95
7, 288000, Note_off_c, 8, 43, 95
7, 288000, Note_on_c, 8, 64, 95
7, 288000, Note_on_c, 8, 60, 95
7, 288000, Note_on_c, 8, 57, 95
7, 288000, Note_on_c, 8, 52, 95
7, 288000, Note_on_c, 8, 45, 95
7, 299520, Note_off_c, 8, 64, 95
7, 299520, Note_off_c, 8, 60, 95
7, 299520, Note_off_c, 8, 57, 95
7, 299520, Note_off_c, 8, 52, 95
7, 299520, Note_off_c, 8, 45, 95
7, 299520, Note_on_c, 8, 69, 95
7, 299520, Note_on_c, 8, 62, 95
7, 299520, Note_on_c, 8, 60, 95
7, 299520, Note_on_c, 8, 50, 95
7, 311040, Note_off_c, 8, 69, 95
7, 311040, Note_off_c, 8, 62, 95
7, 311040, Note_off_c, 8, 60, 95
7, 311040, Note_off_c, 8, 50, 95
7, 311040, Note_on_c, 8, 69, 95
7, 311040, Note_on_c, 8, 62, 95
7, 311040, Note_on_c, 8, 60, 95
7, 311040, Note_on_c, 8, 50, 95
7, 311040, Note_on_c, 8, 43, 95
7, 316800, Note_off_c, 8, 69, 95
7, 316800, Note_off_c, 8, 62, 95
7, 316800, Note_off_c, 8, 60, 95
7, 316800, Note_off_c, 8, 50, 95
7, 316800, Note_off_c, 8, 43, 95
7, 316800, Note_on_c, 8, 69, 95
7, 316800, Note_on_c, 8, 62, 95
7, 316800, Note_on_c, 8, 59, 95
7, 316800, Note_on_c, 8, 50, 95
7, 316800, Note_on_c, 8, 43, 95
7, 322560, Note_off_c, 8, 69, 95
7, 322560, Note_off_c, 8, 62, 95
7, 322560, Note_off_c, 8, 59, 95
7, 322560, Note_off_c, 8, 50, 95
7, 322560, Note_off_c, 8, 43, 95
7, 322560, Note_on_c, 8, 65, 95
7, 322560, Note_on_c, 8, 60, 95
7, 322560, Note_on_c, 8, 53, 95
7, 322560, Note_on_c, 8, 48, 95
7, 322560, Note_on_c, 8, 41, 95
7, 332160, Note_off_c, 8, 65, 95
7, 332160, Note_off_c, 8, 60, 95
7, 332160, Note_on_c, 8, 64, 95
7, 332160, Note_on_c, 8, 62, 95
7, 334080, Note_off_c, 8, 53, 95
7, 334080, Note_off_c, 8, 48, 95
7, 334080, Note_off_c, 8, 41, 95
7, 334080, Note_off_c, 8, 64, 95
7, 334080, Note_off_c, 8, 62, 95
7, 334080, Note_on_c, 8, 65, 95
7, 334080, Note_on_c, 8, 60, 95
7, 334080, Note_on_c, 8, 53, 95
7, 334080, Note_on_c, 8, 48, 95
7, 334080, Note_on_c, 8, 41, 95
7, 343680, Note_off_c, 8, 65, 95
7, 343680, Note_off_c, 8, 60, 95
7, 343680, Note_on_c, 8, 64, 95
7, 343680, Note_on_c, 8, 62, 95
7, 345600, Note_off_c, 8, 53, 95
7, 345600, Note_off_c, 8, 48, 95
7, 345600, Note_off_c, 8, 41, 95
7, 345600, Note_off_c, 8, 64, 95
7, 345600, Note_off_c, 8, 62, 95
7, 345600, Note_on_c, 8, 64, 95
7, 345600, Note_on_c, 8, 60, 95
7, 345600, Note_on_c, 8, 52, 95
7, 345600, Note_on_c, 8, 48, 95
7, 357120, Note_off_c, 8, 64, 95
7, 357120, Note_off_c, 8, 60, 95
7, 357120, Note_off_c, 8, 52, 95
7, 357120, Note_off_c, 8, 48, 95
7, 357120, Note_on_c, 8, 65, 95
7, 357120, Note_on_c, 8, 60, 95
7, 357120, Note_on_c, 8, 53, 95
7, 357120, Note_on_c, 8, 48, 95
7, 357120, Note_on_c, 8, 41, 95
7, 362880, Note_off_c, 8, 65, 95
7, 362880, Note_off_c, 8, 60, 95
7, 362880, Note_off_c, 8, 53, 95
7, 362880, Note_off_c, 8, 48, 95
7, 362880, Note_off_c, 8, 41, 95
7, 365760, Note_on_c, 8, 48, 95
7, 366720, Note_off_c, 8, 48, 95
7, 366720, Note_on_c, 8, 50, 95
7, 367680, Note_off_c, 8, 50, 95
7, 367680, Note_on_c, 8, 52, 95
7, 368640, Note_off_c, 8, 52, 95
7, 368640, Note_on_c, 8, 65, 95
7, 368640, Note_on_c, 8, 62, 95
7, 368640, Note_on_c, 8, 57, 95
7, 368640, Note_on_c, 8, 50, 95
7, 380160, Note_off_c, 8, 65, 95
7, 380160, Note_off_c, 8, 62, 95
7, 380160, Note_off_c, 8, 57, 95
7, 380160, Note_off_c, 8, 50, 95
7, 380160, Note_on_c, 8, 67, 95
7, 380160, Note_on_c, 8, 59, 95
7, 380160, Note_on_c, 8, 55, 95
7, 380160, Note_on_c, 8, 50, 95
7, 380160, Note_on_c, 8, 47, 95
7, 380160, Note_on_c, 8, 43, 95
7, 391680, Note_off_c, 8, 67, 95
7, 391680, Note_off_c, 8, 59, 95
7, 391680, Note_off_c, 8, 55, 95
7, 391680, Note_off_c, 8, 50, 95
7, 391680, Note_off_c, 8, 47, 95
7, 391680, Note_off_c, 8, 43, 95
7, 391680, Note_on_c, 8, 64, 95
7, 391680, Note_on_c, 8, 60, 95
7, 391680, Note_on_c, 8, 52, 95
7, 391680, Note_on_c, 8, 48, 95
7, 403200, Note_off_c, 8, 64, 95
7, 403200, Note_off_c, 8, 60, 95
7, 403200, Note_off_c, 8, 52, 95
7, 403200, Note_off_c, 8, 48, 95
7, 403200, Note_on_c, 8, 65, 95
7, 403200, Note_on_c, 8, 60, 95
7, 403200, Note_on_c, 8, 53, 95
7, 403200, Note_on_c, 8, 48, 95
7, 403200, Note_on_c, 8, 41, 95
7, 414720, Note_off_c, 8, 65, 95
7, 414720, Note_off_c, 8, 60, 95
7, 414720, Note_off_c, 8, 53, 95
7, 414720, Note_off_c, 8, 48, 95
7, 414720, Note_off_c, 8, 41, 95
7, 414720, Note_on_c, 8, 65, 95
7, 414720, Note_on_c, 8, 62, 95
7, 414720, Note_on_c, 8, 57, 95
7, 414720, Note_on_c, 8, 50, 95
7, 426240, Note_off_c, 8, 65, 95
7, 426240, Note_off_c, 8, 62, 95
7, 426240, Note_off_c, 8, 57, 95
7, 426240, Note_off_c, 8, 50, 95
7, 426240, Note_on_c, 8, 67, 95
7, 426240, Note_on_c, 8, 59, 95
7, 426240, Note_on_c, 8, 55, 95
7, 426240, Note_on_c, 8, 50, 95
7, 426240, Note_on_c, 8, 47, 95
7, 426240, Note_on_c, 8, 43, 95
7, 432000, Note_off_c, 8, 67, 95
7, 432000, Note_off_c, 8, 59, 95
7, 432000, Note_off_c, 8, 55, 95
7, 432000, Note_off_c, 8, 50, 95
7, 432000, Note_off_c, 8, 47, 95
7, 432000, Note_off_c, 8, 43, 95
7, 443520, Note_on_c, 8, 65, 95
7, 443520, Note_on_c, 8, 60, 95
7, 443520, Note_on_c, 8, 53, 95
7, 443520, Note_on_c, 8, 48, 95
7, 443520, Note_on_c, 8, 41, 95
7, 455040, Note_off_c, 8, 65, 95
7, 455040, Note_off_c, 8, 60, 95
7, 455040, Note_off_c, 8, 53, 95
7, 455040, Note_off_c, 8, 48, 95
7, 455040, Note_off_c, 8, 41, 95
7, 455040, Note_on_c, 8, 65, 95
7, 455040, Note_on_c, 8, 62, 95
7, 455040, Note_on_c, 8, 57, 95
7, 455040, Note_on_c, 8, 50, 95
7, 466560, Note_off_c, 8, 65, 95
7, 466560, Note_off_c, 8, 62, 95
7, 466560, Note_off_c, 8, 57, 95
7, 466560, Note_off_c, 8, 50, 95
7, 466560, Note_on_c, 8, 67, 95
7, 466560, Note_on_c, 8, 59, 95
7, 466560, Note_on_c, 8, 55, 95
7, 466560, Note_on_c, 8, 50, 95
7, 466560, Note_on_c, 8, 47, 95
7, 466560, Note_on_c, 8, 43, 95
7, 478080, Note_off_c, 8, 67, 95
7, 478080, Note_off_c, 8, 59, 95
7, 478080, Note_off_c, 8, 55, 95
7, 478080, Note_off_c, 8, 50, 95
7, 478080, Note_off_c, 8, 47, 95
7, 478080, Note_off_c, 8, 43, 95
7, 478080, Note_on_c, 8, 64, 95
7, 478080, Note_on_c, 8, 60, 95
7, 478080, Note_on_c, 8, 52, 95
7, 478080, Note_on_c, 8, 48, 95
7, 489600, Note_off_c, 8, 64, 95
7, 489600, Note_off_c, 8, 60, 95
7, 489600, Note_off_c, 8, 52, 95
7, 489600, Note_off_c, 8, 48, 95
7, 489600, Note_on_c, 8, 65, 95
7, 489600, Note_on_c, 8, 60, 95
7, 489600, Note_on_c, 8, 53, 95
7, 489600, Note_on_c, 8, 48, 95
7, 489600, Note_on_c, 8, 41, 95
7, 501120, Note_off_c, 8, 65, 95
7, 501120, Note_off_c, 8, 60, 95
7, 501120, Note_off_c, 8, 53, 95
7, 501120, Note_off_c, 8, 48, 95
7, 501120, Note_off_c, 8, 41, 95
7, 501120, Note_on_c, 8, 65, 95
7, 501120, Note_on_c, 8, 62, 95
7, 501120, Note_on_c, 8, 57, 95
7, 501120, Note_on_c, 8, 50, 95
7, 512640, Note_off_c, 8, 65, 95
7, 512640, Note_off_c, 8, 62, 95
7, 512640, Note_off_c, 8, 57, 95
7, 512640, Note_off_c, 8, 50, 95
7, 512640, Note_on_c, 8, 67, 95
7, 512640, Note_on_c, 8, 59, 95
7, 512640, Note_on_c, 8, 55, 95
7, 512640, Note_on_c, 8, 50, 95
7, 512640, Note_on_c, 8, 47, 95
7, 512640, Note_on_c, 8, 43, 95
7, 524160, Note_off_c, 8, 67, 95
7, 524160, Note_off_c, 8, 59, 95
7, 524160, Note_off_c, 8, 55, 95
7, 524160, Note_off_c, 8, 50, 95
7, 524160, Note_off_c, 8, 47, 95
7, 524160, Note_off_c, 8, 43, 95
7, 524160, Note_on_c, 8, 64, 95
7, 524160, Note_on_c, 8, 60, 95
7, 524160, Note_on_c, 8, 57, 95
7, 524160, Note_on_c, 8, 52, 95
7, 524160, Note_on_c, 8, 45, 95
7, 535680, Note_off_c, 8, 64, 95
7, 535680, Note_off_c, 8, 60, 95
7, 535680, Note_off_c, 8, 57, 95
7, 535680, Note_off_c, 8, 52, 95
7, 535680, Note_off_c, 8, 45, 95
7, 535680, Note_on_c, 8, 69, 95
7, 535680, Note_on_c, 8, 62, 95
7, 535680, Note_on_c, 8, 60, 95
7, 535680, Note_on_c, 8, 50, 95
7, 547200, Note_off_c, 8, 69, 95
7, 547200, Note_off_c, 8, 62, 95
7, 547200, Note_off_c, 8, 60, 95
7, 547200, Note_off_c, 8, 50, 95
7, 547200, Note_on_c, 8, 69, 95
7, 547200, Note_on_c, 8, 62, 95
7, 547200, Note_on_c, 8, 60, 95
7, 547200, Note_on_c, 8, 50, 95
7, 547200, Note_on_c, 8, 43, 95
7, 552960, Note_off_c, 8, 69, 95
7, 552960, Note_off_c, 8, 62, 95
7, 552960, Note_off_c, 8, 60, 95
7, 552960, Note_off_c, 8, 50, 95
7, 552960, Note_off_c, 8, 43, 95
7, 552960, Note_on_c, 8, 69, 95
7, 552960, Note_on_c, 8, 62, 95
7, 552960, Note_on_c, 8, 59, 95
7, 552960, Note_on_c, 8, 50, 95
7, 552960, Note_on_c, 8, 43, 95
7, 558720, Note_off_c, 8, 69, 95
7, 558720, Note_off_c, 8, 62, 95
7, 558720, Note_off_c, 8, 59, 95
7, 558720, Note_off_c, 8, 50, 95
7, 558720, Note_off_c, 8, 43, 95
7, 558720, Note_on_c, 8, 65, 95
7, 558720, Note_on_c, 8, 60, 95
7, 558720, Note_on_c, 8, 53, 95
7, 558720, Note_on_c, 8, 48, 95
7, 558720, Note_on_c, 8, 41, 95
7, 568320, Note_off_c, 8, 65, 95
7, 568320, Note_off_c, 8, 60, 95
7, 568320, Note_on_c, 8, 64, 95
7, 568320, Note_on_c, 8, 62, 95
7, 570240, Note_off_c, 8, 53, 95
7, 570240, Note_off_c, 8, 48, 95
7, 570240, Note_off_c, 8, 41, 95
7, 570240, Note_off_c, 8, 64, 95
7, 570240, Note_off_c, 8, 62, 95
7, 570240, Note_on_c, 8, 65, 95
7, 570240, Note_on_c, 8, 60, 95
7, 570240, Note_on_c, 8, 53, 95
7, 570240, Note_on_c, 8, 48, 95
7, 570240, Note_on_c, 8, 41, 95
7, 579840, Note_off_c, 8, 65, 95
7, 579840, Note_off_c, 8, 60, 95
7, 579840, Note_on_c, 8, 64, 95
7, 579840, Note_on_c, 8, 62, 95
7, 581760, Note_off_c, 8, 53, 95
7, 581760, Note_off_c, 8, 48, 95
7, 581760, Note_off_c, 8, 41, 95
7, 581760, Note_off_c, 8, 64, 95
7, 581760, Note_off_c, 8, 62, 95
7, 581760, Note_on_c, 8, 64, 95
7, 581760, Note_on_c, 8, 60, 95
7, 581760, Note_on_c, 8, 52, 95
7, 581760, Note_on_c, 8, 48, 95
7, 593280, Note_off_c, 8, 64, 95
7, 593280, Note_off_c, 8, 60, 95
7, 593280, Note_off_c, 8, 52, 95
7, 593280, Note_off_c, 8, 48, 95
7, 593280, Note_on_c, 8, 65, 95
7, 593280, Note_on_c, 8, 60, 95
7, 593280, Note_on_c, 8, 53, 95
7, 593280, Note_on_c, 8, 48, 95
7, 593280, Note_on_c, 8, 41, 95
7, 599040, Note_off_c, 8, 65, 95
7, 599040, Note_off_c, 8, 60, 95
7, 599040, Note_off_c, 8, 53, 95
7, 599040, Note_off_c, 8, 48, 95
7, 599040, Note_off_c, 8, 41, 95
7, 601920, Note_on_c, 8, 48, 95
7, 602880, Note_off_c, 8, 48, 95
7, 602880, Note_on_c, 8, 50, 95
7, 603840, Note_off_c, 8, 50, 95
7, 603840, Note_on_c, 8, 52, 95
7, 604800, Note_off_c, 8, 52, 95
7, 604800, Note_on_c, 8, 65, 95
7, 604800, Note_on_c, 8, 62, 95
7, 604800, Note_on_c, 8, 57, 95
7, 604800, Note_on_c, 8, 50, 95
7, 616320, Note_off_c, 8, 65, 95
7, 616320, Note_off_c, 8, 62, 95
7, 616320, Note_off_c, 8, 57, 95
7, 616320, Note_off_c, 8, 50, 95
7, 616320, Note_on_c, 8, 67, 95
7, 616320, Note_on_c, 8, 59, 95
7, 616320, Note_on_c, 8, 55, 95
7, 616320, Note_on_c, 8, 50, 95
7, 616320, Note_on_c, 8, 47, 95
7, 616320, Note_on_c, 8, 43, 95
7, 627840, Note_off_c, 8, 67, 95
7, 627840, Note_off_c, 8, 59, 95
7, 627840, Note_off_c, 8, 55, 95
7, 627840, Note_off_c, 8, 50, 95
7, 627840, Note_off_c, 8, 47, 95
7, 627840, Note_off_c, 8, 43, 95
7, 627840, Note_on_c, 8, 64, 95
7, 627840, Note_on_c, 8, 60, 95
7, 627840, Note_on_c, 8, 52, 95
7, 627840, Note_on_c, 8, 48, 95
7, 639360, Note_off_c, 8, 64, 95
7, 639360, Note_off_c, 8, 60, 95
7, 639360, Note_off_c, 8, 52, 95
7, 639360, Note_off_c, 8, 48, 95
7, 639360, Note_on_c, 8, 65, 95
7, 639360, Note_on_c, 8, 60, 95
7, 639360, Note_on_c, 8, 53, 95
7, 639360, Note_on_c, 8, 48, 95
7, 639360, Note_on_c, 8, 41, 95
7, 650880, Note_off_c, 8, 65, 95
7, 650880, Note_off_c, 8, 60, 95
7, 650880, Note_off_c, 8, 53, 95
7, 650880, Note_off_c, 8, 48, 95
7, 650880, Note_off_c, 8, 41, 95
7, 650880, Note_on_c, 8, 65, 95
7, 650880, Note_on_c, 8, 62, 95
7, 650880, Note_on_c, 8, 57, 95
7, 650880, Note_on_c, 8, 50, 95
7, 662400, Note_off_c, 8, 65, 95
7, 662400, Note_off_c, 8, 62, 95
7, 662400, Note_off_c, 8, 57, 95
7, 662400, Note_off_c, 8, 50, 95
7, 662400, Note_on_c, 8, 67, 95
7, 662400, Note_on_c, 8, 59, 95
7, 662400, Note_on_c, 8, 55, 95
7, 662400, Note_on_c, 8, 50, 95
7, 662400, Note_on_c, 8, 47, 95
7, 662400, Note_on_c, 8, 43, 95
7, 668160, Note_off_c, 8, 67, 95
7, 668160, Note_off_c, 8, 59, 95
7, 668160, Note_off_c, 8, 55, 95
7, 668160, Note_off_c, 8, 50, 95
7, 668160, Note_off_c, 8, 47, 95
7, 668160, Note_off_c, 8, 43, 95
7, 668160, Note_on_c, 8, 64, 95
7, 668160, Note_on_c, 8, 60, 95
7, 668160, Note_on_c, 8, 57, 95
7, 668160, Note_on_c, 8, 52, 95
7, 668160, Note_on_c, 8, 45, 95
7, 679680, Note_off_c, 8, 64, 95
7, 679680, Note_off_c, 8, 60, 95
7, 679680, Note_off_c, 8, 57, 95
7, 679680, Note_off_c, 8, 52, 95
7, 679680, Note_off_c, 8, 45, 95
7, 679680, Note_on_c, 8, 69, 95
7, 679680, Note_on_c, 8, 62, 95
7, 679680, Note_on_c, 8, 60, 95
7, 679680, Note_on_c, 8, 50, 95
7, 691200, Note_off_c, 8, 69, 95
7, 691200, Note_off_c, 8, 62, 95
7, 691200, Note_off_c, 8, 60, 95
7, 691200, Note_off_c, 8, 50, 95
7, 691200, Note_on_c, 8, 69, 95
7, 691200, Note_on_c, 8, 62, 95
7, 691200, Note_on_c, 8, 60, 95
7, 691200, Note_on_c, 8, 50, 95
7, 691200, Note_on_c, 8, 43, 95
7, 696960, Note_off_c, 8, 69, 95
7, 696960, Note_off_c, 8, 62, 95
7, 696960, Note_off_c, 8, 60, 95
7, 696960, Note_off_c, 8, 50, 95
7, 696960, Note_off_c, 8, 43, 95
7, 696960, Note_on_c, 8, 69, 95
7, 696960, Note_on_c, 8, 62, 95
7, 696960, Note_on_c, 8, 59, 95
7, 696960, Note_on_c, 8, 50, 95
7, 696960, Note_on_c, 8, 43, 95
7, 702720, Note_off_c, 8, 69, 95
7, 702720, Note_off_c, 8, 62, 95
7, 702720, Note_off_c, 8, 59, 95
7, 702720, Note_off_c, 8, 50, 95
7, 702720, Note_off_c, 8, 43, 95
7, 702720, Note_on_c, 8, 65, 95
7, 702720, Note_on_c, 8, 60, 95
7, 702720, Note_on_c, 8, 53, 95
7, 702720, Note_on_c, 8, 48, 95
7, 702720, Note_on_c, 8, 41, 95
7, 712320, Note_off_c, 8, 65, 95
7, 712320, Note_off_c, 8, 60, 95
7, 712320, Note_on_c, 8, 64, 95
7, 712320, Note_on_c, 8, 62, 95
7, 714240, Note_off_c, 8, 53, 95
7, 714240, Note_off_c, 8, 48, 95
7, 714240, Note_off_c, 8, 41, 95
7, 714240, Note_off_c, 8, 64, 95
7, 714240, Note_off_c, 8, 62, 95
7, 714240, Note_on_c, 8, 65, 95
7, 714240, Note_on_c, 8, 60, 95
7, 714240, Note_on_c, 8, 53, 95
7, 714240, Note_on_c, 8, 48, 95
7, 714240, Note_on_c, 8, 41, 95
7, 720000, Note_off_c, 8, 65, 95
7, 720000, Note_off_c, 8, 60, 95
7, 720000, Note_off_c, 8, 53, 95
7, 720000, Note_off_c, 8, 48, 95
7, 720000, Note_off_c, 8, 41, 95
7, 720000, Note_on_c, 8, 65, 95
7, 720000, Note_on_c, 8, 60, 95
7, 720000, Note_on_c, 8, 53, 95
7, 720000, Note_on_c, 8, 48, 95
7, 720000, Note_on_c, 8, 41, 95
7, 723840, Note_off_c, 8, 41, 95
7, 725760, Note_off_c, 8, 65, 95
7, 725760, Note_off_c, 8, 60, 95
7, 725760, Note_off_c, 8, 53, 95
7, 725760, Note_off_c, 8, 48, 95
7, 725760, Note_on_c, 8, 64, 95
7, 725760, Note_on_c, 8, 60, 95
7, 725760, Note_on_c, 8, 47, 95
7, 725760, Note_on_c, 8, 43, 95
7, 731520, Note_off_c, 8, 64, 95
7, 731520, Note_off_c, 8, 60, 95
7, 731520, Note_off_c, 8, 47, 95
7, 731520, Note_off_c, 8, 43, 95
7, 731520, End_track
8, 0, Start_track
8, 0, Pitch_bend_c, 11, 8192
8, 0, Control_c, 11, 7, 127
8, 0, Control_c, 11, 10, 63
8, 0, Control_c, 11, 93, 0
8, 0, Control_c, 11, 91, 0
8, 0, Control_c, 11, 95, 0
8, 0, Control_c, 11, 92, 0
8, 0, Control_c, 11, 11, 127
8, 0, Program_c, 11, 73
8, 0, Control_c, 12, 7, 127
8, 0, Control_c, 12, 10, 63
8, 0, Control_c, 12, 93, 0
8, 0, Control_c, 12, 91, 0
8, 0, Control_c, 12, 95, 0
8, 0, Control_c, 12, 92, 0
8, 0, Control_c, 12, 11, 127
8, 0, Program_c, 12, 73
8, 197760, Note_on_c, 11, 55, 95
8, 198720, Note_off_c, 11, 55, 95
8, 198720, Note_on_c, 11, 64, 95
8, 199680, Note_off_c, 11, 64, 95
8, 199680, Note_on_c, 11, 64, 95
8, 201600, Note_off_c, 11, 64, 95
8, 201600, Note_on_c, 11, 64, 95
8, 201840, Note_off_c, 11, 64, 95
8, 201840, Note_on_c, 11, 62, 95
8, 202080, Note_off_c, 11, 62, 95
8, 202080, Note_on_c, 11, 64, 95
8, 202320, Note_off_c, 11, 64, 95
8, 202320, Note_on_c, 11, 62, 95
8, 202560, Note_off_c, 11, 62, 95
8, 202560, Note_on_c, 11, 60, 95
8, 205440, Note_off_c, 11, 60, 95
8, 213120, Note_on_c, 11, 60, 95
8, 213360, Note_off_c, 11, 60, 95
8, 213360, Note_on_c, 11, 57, 95
8, 213600, Note_off_c, 11, 57, 95
8, 213600, Note_on_c, 11, 60, 95
8, 213840, Note_off_c, 11, 60, 95
8, 213840, Note_on_c, 11, 57, 95
8, 214080, Note_off_c, 11, 57, 95
8, 214080, Note_on_c, 11, 60, 95
8, 214320, Note_off_c, 11, 60, 95
8, 214320, Note_on_c, 11, 57, 95
8, 214560, Note_off_c, 11, 57, 95
8, 214560, Note_on_c, 11, 60, 95
8, 214680, Note_off_c, 11, 60, 95
8, 214680, Note_on_c, 11, 62, 95
8, 218880, Note_off_c, 11, 62, 95
8, 220800, Note_on_c, 11, 57, 95
8, 221760, Note_off_c, 11, 57, 95
8, 221760, Note_on_c, 11, 65, 95
8, 222720, Note_off_c, 11, 65, 95
8, 222720, Note_on_c, 11, 65, 95
8, 224640, Note_off_c, 11, 65, 95
8, 224640, Note_on_c, 11, 65, 95
8, 225120, Note_off_c, 11, 65, 95
8, 225120, Note_on_c, 11, 64, 95
8, 225600, Note_off_c, 11, 64, 95
8, 225600, Note_on_c, 11, 64, 95
8, 226080, Note_off_c, 11, 64, 95
8, 226080, Note_on_c, 11, 62, 95
8, 226560, Note_off_c, 11, 62, 95
8, 226560, Note_on_c, 11, 62, 95
8, 228480, Note_off_c, 11, 62, 95
8, 230400, Note_on_c, 11, 60, 95
8, 230880, Note_off_c, 11, 60, 95
8, 230880, Note_on_c, 11, 62, 95
8, 231360, Note_off_c, 11, 62, 95
8, 231360, Note_on_c, 11, 64, 95
8, 231840, Note_off_c, 11, 64, 95
8, 231840, Note_on_c, 11, 62, 95
8, 232320, Note_off_c, 11, 62, 95
8, 232320, Note_on_c, 11, 62, 95
8, 232800, Note_off_c, 11, 62, 95
8, 232800, Note_on_c, 11, 60, 95
8, 233280, Note_off_c, 11, 60, 95
8, 233280, Note_on_c, 11, 62, 95
8, 233400, Note_off_c, 11, 62, 95
8, 233400, Note_on_c, 11, 64, 95
8, 233880, Note_off_c, 11, 64, 95
8, 243840, Note_on_c, 11, 55, 95
8, 244800, Note_off_c, 11, 55, 95
8, 244800, Note_on_c, 11, 64, 95
8, 245760, Note_off_c, 11, 64, 95
8, 245760, Note_on_c, 11, 64, 95
8, 246720, Note_off_c, 11, 64, 95
8, 247680, Note_on_c, 11, 64, 95
8, 248160, Note_off_c, 11, 64, 95
8, 248160, Note_on_c, 11, 65, 95
8, 248640, Note_off_c, 11, 65, 95
8, 248640, Pitch_bend_c, 12, 8192
8, 248640, Note_on_c, 12, 64, 95
8, 248688, Pitch_bend_c, 12, 8320
8, 248736, Pitch_bend_c, 12, 8448
8, 248784, Pitch_bend_c, 12, 8576
8, 248832, Pitch_bend_c, 12, 8704
8, 248880, Pitch_bend_c, 12, 8832
8, 248880, Pitch_bend_c, 12, 8832
8, 249120, Pitch_bend_c, 12, 8832
8, 249168, Pitch_bend_c, 12, 8704
8, 249216, Pitch_bend_c, 12, 8576
8, 249264, Pitch_bend_c, 12, 8448
8, 249312, Pitch_bend_c, 12, 8320
8, 249360, Pitch_bend_c, 12, 8192
8, 249360, Pitch_bend_c, 12, 8192
8, 249600, Pitch_bend_c, 12, 8192
8, 249600, Pitch_bend_c, 12, 8192
8, 249600, Note_off_c, 12, 64, 95
8, 249600, Note_on_c, 11, 60, 95
8, 250560, Note_off_c, 11, 60, 95
8, 250560, Note_on_c, 11, 60, 95
8, 251520, Note_off_c, 11, 60, 95
8, 256320, Note_on_c, 11, 57, 95
8, 256800, Note_off_c, 11, 57, 95
8, 256800, Note_on_c, 11, 60, 95
8, 257280, Note_off_c, 11, 60, 95
8, 257280, Note_on_c, 11, 57, 95
8, 257760, Note_off_c, 11, 57, 95
8, 257760, Note_on_c, 11, 60, 95
8, 258240, Note_off_c, 11, 60, 95
8, 258240, Note_on_c, 11, 60, 95
8, 258720, Note_off_c, 11, 60, 95
8, 258720, Note_on_c, 11, 62, 95
8, 259200, Note_off_c, 11, 62, 95
8, 266880, Note_on_c, 11, 57, 95
8, 267360, Note_off_c, 11, 57, 95
8, 267360, Note_on_c, 11, 57, 95
8, 267840, Note_off_c, 11, 57, 95
8, 267840, Note_on_c, 11, 57, 95
8, 268800, Note_off_c, 11, 57, 95
8, 268800, Note_on_c, 11, 65, 95
8, 269280, Note_off_c, 11, 65, 95
8, 269280, Note_on_c, 11, 64, 95
8, 269760, Note_off_c, 11, 64, 95
8, 269760, Note_on_c, 11, 64, 95
8, 270240, Note_off_c, 11, 64, 95
8, 270240, Note_on_c, 11, 62, 95
8, 270720, Note_off_c, 11, 62, 95
8, 270720, Note_on_c, 11, 62, 95
8, 272640, Note_off_c, 11, 62, 95
8, 278400, Note_on_c, 11, 62, 95
8, 278880, Note_off_c, 11, 62, 95
8, 278880, Note_on_c, 11, 64, 95
8, 279360, Note_off_c, 11, 64, 95
8, 279360, Note_on_c, 11, 64, 95
8, 279840, Note_off_c, 11, 64, 95
8, 279840, Note_on_c, 11, 62, 95
8, 280320, Note_off_c, 11, 62, 95
8, 280320, Note_on_c, 11, 62, 95
8, 280800, Note_off_c, 11, 62, 95
8, 280800, Note_on_c, 11, 60, 95
8, 281280, Note_off_c, 11, 60, 95
8, 281280, Note_on_c, 11, 62, 95
8, 281760, Note_off_c, 11, 62, 95
8, 281760, Note_on_c, 11, 64, 95
8, 282240, Note_off_c, 11, 64, 95
8, 289920, Note_on_c, 11, 52, 95
8, 290880, Note_off_c, 11, 52, 95
8, 290880, Note_on_c, 11, 64, 95
8, 291840, Note_off_c, 11, 64, 95
8, 291840, Note_on_c, 11, 64, 95
8, 292320, Note_off_c, 11, 64, 95
8, 292320, Note_on_c, 11, 64, 95
8, 292800, Note_off_c, 11, 64, 95
8, 292800, Note_on_c, 11, 64, 95
8, 293280, Note_off_c, 11, 64, 95
8, 293280, Note_on_c, 11, 64, 95
8, 293760, Note_off_c, 11, 64, 95
8, 293760, Note_on_c, 11, 62, 95
8, 294720, Note_off_c, 11, 62, 95
8, 294720, Pitch_bend_c, 12, 8192
8, 294720, Note_on_c, 12, 62, 95
8, 294750, Pitch_bend_c, 12, 8320
8, 294780, Pitch_bend_c, 12, 8448
8, 294810, Pitch_bend_c, 12, 8576
8, 294840, Pitch_bend_c, 12, 8704
8, 294870, Pitch_bend_c, 12, 8832
8, 294900, Pitch_bend_c, 12, 8960
8, 294930, Pitch_bend_c, 12, 9088
8, 294960, Pitch_bend_c, 12, 9216
8, 294960, Pitch_bend_c, 12, 9216
8, 295200, Pitch_bend_c, 12, 9216
8, 295230, Pitch_bend_c, 12, 9088
8, 295260, Pitch_bend_c, 12, 8960
8, 295290, Pitch_bend_c, 12, 8832
8, 295320, Pitch_bend_c, 12, 8704
8, 295350, Pitch_bend_c, 12, 8576
8, 295380, Pitch_bend_c, 12, 8448
8, 295410, Pitch_bend_c, 12, 8320
8, 295440, Pitch_bend_c, 12, 8192
8, 295440, Pitch_bend_c, 12, 8192
8, 295680, Pitch_bend_c, 12, 8192
8, 295680, Pitch_bend_c, 12, 8192
8, 295680, Note_off_c, 12, 62, 95
8, 295680, Note_on_c, 11, 60, 95
8, 299520, Note_off_c, 11, 60, 95
8, 302400, Note_on_c, 11, 60, 95
8, 302880, Note_off_c, 11, 60, 95
8, 302880, Note_on_c, 11, 57, 95
8, 303360, Note_off_c, 11, 57, 95
8, 303360, Note_on_c, 11, 60, 95
8, 303840, Note_off_c, 11, 60, 95
8, 304320, Note_on_c, 11, 60, 95
8, 304800, Note_off_c, 11, 60, 95
8, 304800, Note_on_c, 11, 57, 95
8, 305280, Note_off_c, 11, 57, 95
8, 305280, Note_on_c, 11, 60, 95
8, 305760, Note_off_c, 11, 60, 95
8, 305760, Note_on_c, 11, 57, 95
8, 306240, Note_off_c, 11, 57, 95
8, 306240, Note_on_c, 11, 62, 95
8, 306720, Note_off_c, 11, 62, 95
8, 306720, Note_on_c, 11, 64, 95
8, 307200, Note_off_c, 11, 64, 95
8, 307200, Note_on_c, 11, 60, 95
8, 309120, Note_off_c, 11, 60, 95
8, 312960, Note_on_c, 11, 62, 95
8, 313440, Note_off_c, 11, 62, 95
8, 313440, Note_on_c, 11, 60, 95
8, 313920, Note_off_c, 11, 60, 95
8, 313920, Note_on_c, 11, 62, 95
8, 314400, Note_off_c, 11, 62, 95
8, 314400, Note_on_c, 11, 60, 95
8, 314880, Note_off_c, 11, 60, 95
8, 314880, Note_on_c, 11, 62, 95
8, 315360, Note_off_c, 11, 62, 95
8, 315360, Note_on_c, 11, 64, 95
8, 315840, Note_off_c, 11, 64, 95
8, 315840, Note_on_c, 11, 62, 95
8, 316320, Note_off_c, 11, 62, 95
8, 316320, Note_on_c, 11, 60, 95
8, 316800, Note_off_c, 11, 60, 95
8, 316800, Note_on_c, 11, 62, 95
8, 320640, Note_off_c, 11, 62, 95
8, 321120, Note_on_c, 11, 55, 95
8, 321600, Note_off_c, 11, 55, 95
8, 321600, Note_on_c, 11, 55, 95
8, 322080, Note_off_c, 11, 55, 95
8, 322080, Note_on_c, 11, 55, 95
8, 322560, Note_off_c, 11, 55, 95
8, 322560, Note_on_c, 11, 57, 95
8, 323520, Note_off_c, 11, 57, 95
8, 323520, Note_on_c, 11, 60, 95
8, 327360, Note_off_c, 11, 60, 95
8, 327360, Note_on_c, 11, 60, 95
8, 327840, Note_off_c, 11, 60, 95
8, 327840, Note_on_c, 11, 57, 95
8, 328320, Note_off_c, 11, 57, 95
8, 328320, Note_on_c, 11, 60, 95
8, 329280, Note_off_c, 11, 60, 95
8, 329280, Note_on_c, 11, 62, 95
8, 330720, Note_off_c, 11, 62, 95
8, 334080, Note_on_c, 11, 57, 95
8, 335040, Note_off_c, 11, 57, 95
8, 335040, Note_on_c, 11, 60, 95
8, 338880, Note_off_c, 11, 60, 95
8, 341760, Note_on_c, 11, 60, 95
8, 342240, Note_off_c, 11, 60, 95
8, 342240, Note_on_c, 11, 57, 95
8, 342720, Note_off_c, 11, 57, 95
8, 342720, Note_on_c, 11, 60, 95
8, 343680, Note_off_c, 11, 60, 95
8, 343680, Note_on_c, 11, 62, 95
8, 344640, Note_off_c, 11, 62, 95
8, 344640, Note_on_c, 11, 64, 95
8, 345600, Note_off_c, 11, 64, 95
8, 345600, Note_on_c, 11, 62, 95
8, 346080, Note_off_c, 11, 62, 95
8, 346080, Note_on_c, 11, 60, 95
8, 351360, Note_off_c, 11, 60, 95
8, 433920, Note_on_c, 11, 55, 95
8, 434880, Note_off_c, 11, 55, 95
8, 434880, Note_on_c, 11, 64, 95
8, 435840, Note_off_c, 11, 64, 95
8, 435840, Note_on_c, 11, 64, 95
8, 437760, Note_off_c, 11, 64, 95
8, 437760, Note_on_c, 11, 64, 95
8, 438000, Note_off_c, 11, 64, 95
8, 438000, Note_on_c, 11, 62, 95
8, 438240, Note_off_c, 11, 62, 95
8, 438240, Note_on_c, 11, 64, 95
8, 438480, Note_off_c, 11, 64, 95
8, 438480, Note_on_c, 11, 62, 95
8, 438720, Note_off_c, 11, 62, 95
8, 438720, Note_on_c, 11, 60, 95
8, 441600, Note_off_c, 11, 60, 95
8, 449280, Note_on_c, 11, 60, 95
8, 449520, Note_off_c, 11, 60, 95
8, 449520, Note_on_c, 11, 57, 95
8, 449760, Note_off_c, 11, 57, 95
8, 449760, Note_on_c, 11, 60, 95
8, 450000, Note_off_c, 11, 60, 95
8, 450000, Note_on_c, 11, 57, 95
8, 450240, Note_off_c, 11, 57, 95
8, 450240, Note_on_c, 11, 60, 95
8, 450480, Note_off_c, 11, 60, 95
8, 450480, Note_on_c, 11, 57, 95
8, 450720, Note_off_c, 11, 57, 95
8, 450720, Note_on_c, 11, 60, 95
8, 450840, Note_off_c, 11, 60, 95
8, 450840, Note_on_c, 11, 62, 95
8, 454680, Note_off_c, 11, 62, 95
8, 456960, Note_on_c, 11, 57, 95
8, 457920, Note_off_c, 11, 57, 95
8, 457920, Note_on_c, 11, 65, 95
8, 458880, Note_off_c, 11, 65, 95
8, 458880, Note_on_c, 11, 65, 95
8, 460800, Note_off_c, 11, 65, 95
8, 460800, Note_on_c, 11, 65, 95
8, 461280, Note_off_c, 11, 65, 95
8, 461280, Note_on_c, 11, 64, 95
8, 461760, Note_off_c, 11, 64, 95
8, 461760, Note_on_c, 11, 64, 95
8, 462240, Note_off_c, 11, 64, 95
8, 462240, Note_on_c, 11, 62, 95
8, 462720, Note_off_c, 11, 62, 95
8, 462720, Note_on_c, 11, 62, 95
8, 464640, Note_off_c, 11, 62, 95
8, 466560, Note_on_c, 11, 60, 95
8, 467040, Note_off_c, 11, 60, 95
8, 467040, Note_on_c, 11, 62, 95
8, 467520, Note_off_c, 11, 62, 95
8, 467520, Note_on_c, 11, 64, 95
8, 468000, Note_off_c, 11, 64, 95
8, 468000, Note_on_c, 11, 62, 95
8, 468480, Note_off_c, 11, 62, 95
8, 468480, Note_on_c, 11, 62, 95
8, 468960, Note_off_c, 11, 62, 95
8, 468960, Note_on_c, 11, 60, 95
8, 469440, Note_off_c, 11, 60, 95
8, 469440, Note_on_c, 11, 62, 95
8, 469560, Note_off_c, 11, 62, 95
8, 469560, Note_on_c, 11, 64, 95
8, 470040, Note_off_c, 11, 64, 95
8, 480000, Note_on_c, 11, 55, 95
8, 480960, Note_off_c, 11, 55, 95
8, 480960, Note_on_c, 11, 64, 95
8, 481920, Note_off_c, 11, 64, 95
8, 481920, Note_on_c, 11, 64, 95
8, 482880, Note_off_c, 11, 64, 95
8, 483840, Note_on_c, 11, 64, 95
8, 484320, Note_off_c, 11, 64, 95
8, 484320, Note_on_c, 11, 65, 95
8, 484800, Note_off_c, 11, 65, 95
8, 484800, Pitch_bend_c, 12, 8192
8, 484800, Note_on_c, 12, 64, 95
8, 484848, Pitch_bend_c, 12, 8320
8, 484896, Pitch_bend_c, 12, 8448
8, 484944, Pitch_bend_c, 12, 8576
8, 484992, Pitch_bend_c, 12, 8704
8, 485040, Pitch_bend_c, 12, 8832
8, 485040, Pitch_bend_c, 12, 8832
8, 485280, Pitch_bend_c, 12, 8832
8, 485328, Pitch_bend_c, 12, 8704
8, 485376, Pitch_bend_c, 12, 8576
8, 485424, Pitch_bend_c, 12, 8448
8, 485472, Pitch_bend_c, 12, 8320
8, 485520, Pitch_bend_c, 12, 8192
8, 485520, Pitch_bend_c, 12, 8192
8, 485760, Pitch_bend_c, 12, 8192
8, 485760, Pitch_bend_c, 12, 8192
8, 485760, Note_off_c, 12, 64, 95
8, 485760, Note_on_c, 11, 60, 95
8, 486720, Note_off_c, 11, 60, 95
8, 486720, Note_on_c, 11, 60, 95
8, 487680, Note_off_c, 11, 60, 95
8, 492480, Note_on_c, 11, 57, 95
8, 492960, Note_off_c, 11, 57, 95
8, 492960, Note_on_c, 11, 60, 95
8, 493440, Note_off_c, 11, 60, 95
8, 493440, Note_on_c, 11, 57, 95
8, 493920, Note_off_c, 11, 57, 95
8, 493920, Note_on_c, 11, 60, 95
8, 494400, Note_off_c, 11, 60, 95
8, 494400, Note_on_c, 11, 60, 95
8, 494880, Note_off_c, 11, 60, 95
8, 494880, Note_on_c, 11, 62, 95
8, 495360, Note_off_c, 11, 62, 95
8, 503040, Note_on_c, 11, 57, 95
8, 503520, Note_off_c, 11, 57, 95
8, 503520, Note_on_c, 11, 57, 95
8, 504000, Note_off_c, 11, 57, 95
8, 504000, Note_on_c, 11, 57, 95
8, 504960, Note_off_c, 11, 57, 95
8, 504960, Note_on_c, 11, 65, 95
8, 505440, Note_off_c, 11, 65, 95
8, 505440, Note_on_c, 11, 64, 95
8, 505920, Note_off_c, 11, 64, 95
8, 505920, Note_on_c, 11, 64, 95
8, 506400, Note_off_c, 11, 64, 95
8, 506400, Note_on_c, 11, 62, 95
8, 506880, Note_off_c, 11, 62, 95
8, 506880, Note_on_c, 11, 62, 95
8, 508800, Note_off_c, 11, 62, 95
8, 514560, Note_on_c, 11, 62, 95
8, 515040, Note_off_c, 11, 62, 95
8, 515040, Note_on_c, 11, 64, 95
8, 515520, Note_off_c, 11, 64, 95
8, 515520, Note_on_c, 11, 64, 95
8, 516000, Note_off_c, 11, 64, 95
8, 516000, Note_on_c, 11, 62, 95
8, 516480, Note_off_c, 11, 62, 95
8, 516480, Note_on_c, 11, 62, 95
8, 516960, Note_off_c, 11, 62, 95
8, 516960, Note_on_c, 11, 60, 95
8, 517440, Note_off_c, 11, 60, 95
8, 517440, Note_on_c, 11, 62, 95
8, 517920, Note_off_c, 11, 62, 95
8, 517920, Note_on_c, 11, 64, 95
8, 518400, Note_off_c, 11, 64, 95
8, 526080, Note_on_c, 11, 52, 95
8, 527040, Note_off_c, 11, 52, 95
8, 527040, Note_on_c, 11, 64, 95
8, 528000, Note_off_c, 11, 64, 95
8, 528000, Note_on_c, 11, 64, 95
8, 528480, Note_off_c, 11, 64, 95
8, 528480, Note_on_c, 11, 64, 95
8, 528960, Note_off_c, 11, 64, 95
8, 528960, Note_on_c, 11, 64, 95
8, 529440, Note_off_c, 11, 64, 95
8, 529440, Note_on_c, 11, 64, 95
8, 529920, Note_off_c, 11, 64, 95
8, 529920, Note_on_c, 11, 62, 95
8, 530880, Note_off_c, 11, 62, 95
8, 530880, Pitch_bend_c, 12, 8192
8, 530880, Note_on_c, 12, 62, 95
8, 530910, Pitch_bend_c, 12, 8320
8, 530940, Pitch_bend_c, 12, 8448
8, 530970, Pitch_bend_c, 12, 8576
8, 531000, Pitch_bend_c, 12, 8704
8, 531030, Pitch_bend_c, 12, 8832
8, 531060, Pitch_bend_c, 12, 8960
8, 531090, Pitch_bend_c, 12, 9088
8, 531120, Pitch_bend_c, 12, 9216
8, 531120, Pitch_bend_c, 12, 9216
8, 531360, Pitch_bend_c, 12, 9216
8, 531390, Pitch_bend_c, 12, 9088
8, 531420, Pitch_bend_c, 12, 8960
8, 531450, Pitch_bend_c, 12, 8832
8, 531480, Pitch_bend_c, 12, 8704
8, 531510, Pitch_bend_c, 12, 8576
8, 531540, Pitch_bend_c, 12, 8448
8, 531570, Pitch_bend_c, 12, 8320
8, 531600, Pitch_bend_c, 12, 8192
8, 531600, Pitch_bend_c, 12, 8192
8, 531840, Pitch_bend_c, 12, 8192
8, 531840, Pitch_bend_c, 12, 8192
8, 531840, Note_off_c, 12, 62, 95
8, 531840, Note_on_c, 11, 60, 95
8, 532800, Note_off_c, 11, 60, 95
8, 538560, Note_on_c, 11, 60, 95
8, 539040, Note_off_c, 11, 60, 95
8, 539040, Note_on_c, 11, 57, 95
8, 539520, Note_off_c, 11, 57, 95
8, 539520, Note_on_c, 11, 60, 95
8, 540000, Note_off_c, 11, 60, 95
8, 540480, Note_on_c, 11, 60, 95
8, 540960, Note_off_c, 11, 60, 95
8, 540960, Note_on_c, 11, 57, 95
8, 541440, Note_off_c, 11, 57, 95
8, 541440, Note_on_c, 11, 60, 95
8, 541920, Note_off_c, 11, 60, 95
8, 541920, Note_on_c, 11, 57, 95
8, 542400, Note_off_c, 11, 57, 95
8, 542400, Note_on_c, 11, 62, 95
8, 542880, Note_off_c, 11, 62, 95
8, 542880, Note_on_c, 11, 64, 95
8, 543360, Note_off_c, 11, 64, 95
8, 543360, Note_on_c, 11, 60, 95
8, 545280, Note_off_c, 11, 60, 95
8, 549120, Note_on_c, 11, 62, 95
8, 549600, Note_off_c, 11, 62, 95
8, 549600, Note_on_c, 11, 60, 95
8, 550080, Note_off_c, 11, 60, 95
8, 550080, Note_on_c, 11, 62, 95
8, 550560, Note_off_c, 11, 62, 95
8, 550560, Note_on_c, 11, 60, 95
8, 551040, Note_off_c, 11, 60, 95
8, 551040, Note_on_c, 11, 62, 95
8, 551520, Note_off_c, 11, 62, 95
8, 551520, Note_on_c, 11, 64, 95
8, 552000, Note_off_c, 11, 64, 95
8, 552000, Note_on_c, 11, 62, 95
8, 552480, Note_off_c, 11, 62, 95
8, 552480, Note_on_c, 11, 60, 95
8, 552960, Note_off_c, 11, 60, 95
8, 552960, Note_on_c, 11, 62, 95
8, 556800, Note_off_c, 11, 62, 95
8, 557280, Note_on_c, 11, 55, 95
8, 557760, Note_off_c, 11, 55, 95
8, 557760, Note_on_c, 11, 55, 95
8, 558240, Note_off_c, 11, 55, 95
8, 558240, Note_on_c, 11, 55, 95
8, 558720, Note_off_c, 11, 55, 95
8, 558720, Note_on_c, 11, 57, 95
8, 559680, Note_off_c, 11, 57, 95
8, 559680, Note_on_c, 11, 60, 95
8, 563520, Note_off_c, 11, 60, 95
8, 563520, Note_on_c, 11, 60, 95
8, 564000, Note_off_c, 11, 60, 95
8, 564000, Note_on_c, 11, 57, 95
8, 564480, Note_off_c, 11, 57, 95
8, 564480, Note_on_c, 11, 60, 95
8, 565440, Note_off_c, 11, 60, 95
8, 565440, Note_on_c, 11, 62, 95
8, 566400, Note_off_c, 11, 62, 95
8, 570240, Note_on_c, 11, 57, 95
8, 571200, Note_off_c, 11, 57, 95
8, 571200, Note_on_c, 11, 60, 95
8, 575040, Note_off_c, 11, 60, 95
8, 577920, Note_on_c, 11, 60, 95
8, 578400, Note_off_c, 11, 60, 95
8, 578400, Note_on_c, 11, 57, 95
8, 578880, Note_off_c, 11, 57, 95
8, 578880, Note_on_c, 11, 60, 95
8, 579840, Note_off_c, 11, 60, 95
8, 579840, Note_on_c, 11, 62, 95
8, 580800, Note_off_c, 11, 62, 95
8, 580800, Note_on_c, 11, 64, 95
8, 581760, Note_off_c, 11, 64, 95
8, 581760, Note_on_c, 11, 62, 95
8, 582240, Note_off_c, 11, 62, 95
8, 582240, Note_on_c, 11, 60, 95
8, 587520, Note_off_c, 11, 60, 95
8, 670080, Note_on_c, 11, 52, 95
8, 671040, Note_off_c, 11, 52, 95
8, 671040, Note_on_c, 11, 64, 95
8, 672000, Note_off_c, 11, 64, 95
8, 672000, Note_on_c, 11, 64, 95
8, 672480, Note_off_c, 11, 64, 95
8, 672480, Note_on_c, 11, 64, 95
8, 672960, Note_off_c, 11, 64, 95
8, 672960, Note_on_c, 11, 64, 95
8, 673440, Note_off_c, 11, 64, 95
8, 673440, Note_on_c, 11, 64, 95
8, 673920, Note_off_c, 11, 64, 95
8, 673920, Note_on_c, 11, 62, 95
8, 674880, Note_off_c, 11, 62, 95
8, 674880, Pitch_bend_c, 12, 8192
8, 674880, Note_on_c, 12, 62, 95
8, 674910, Pitch_bend_c, 12, 8320
8, 674940, Pitch_bend_c, 12, 8448
8, 674970, Pitch_bend_c, 12, 8576
8, 675000, Pitch_bend_c, 12, 8704
8, 675030, Pitch_bend_c, 12, 8832
8, 675060, Pitch_bend_c, 12, 8960
8, 675090, Pitch_bend_c, 12, 9088
8, 675120, Pitch_bend_c, 12, 9216
8, 675120, Pitch_bend_c, 12, 9216
8, 675360, Pitch_bend_c, 12, 9216
8, 675390, Pitch_bend_c, 12, 9088
8, 675420, Pitch_bend_c, 12, 8960
8, 675450, Pitch_bend_c, 12, 8832
8, 675480, Pitch_bend_c, 12, 8704
8, 675510, Pitch_bend_c, 12, 8576
8, 675540, Pitch_bend_c, 12, 8448
8, 675570, Pitch_bend_c, 12, 8320
8, 675600, Pitch_bend_c, 12, 8192
8, 675600, Pitch_bend_c, 12, 8192
8, 675840, Pitch_bend_c, 12, 8192
8, 675840, Pitch_bend_c, 12, 8192
8, 675840, Note_off_c, 12, 62, 95
8, 675840, Note_on_c, 11, 60, 95
8, 676800, Note_off_c, 11, 60, 95
8, 682560, Note_on_c, 11, 60, 95
8, 683040, Note_off_c, 11, 60, 95
8, 683040, Note_on_c, 11, 57, 95
8, 683520, Note_off_c, 11, 57, 95
8, 683520, Note_on_c, 11, 60, 95
8, 684000, Note_off_c, 11, 60, 95
8, 684480, Note_on_c, 11, 60, 95
8, 684960, Note_off_c, 11, 60, 95
8, 684960, Note_on_c, 11, 57, 95
8, 685440, Note_off_c, 11, 57, 95
8, 685440, Note_on_c, 11, 60, 95
8, 685920, Note_off_c, 11, 60, 95
8, 685920, Note_on_c, 11, 57, 95
8, 686400, Note_off_c, 11, 57, 95
8, 686400, Note_on_c, 11, 62, 95
8, 686880, Note_off_c, 11, 62, 95
8, 686880, Note_on_c, 11, 64, 95
8, 687360, Note_off_c, 11, 64, 95
8, 687360, Note_on_c, 11, 60, 95
8, 689280, Note_off_c, 11, 60, 95
8, 693120, Note_on_c, 11, 62, 95
8, 693600, Note_off_c, 11, 62, 95
8, 693600, Note_on_c, 11, 60, 95
8, 694080, Note_off_c, 11, 60, 95
8, 694080, Note_on_c, 11, 62, 95
8, 694560, Note_off_c, 11, 62, 95
8, 694560, Note_on_c, 11, 60, 95
8, 695040, Note_off_c, 11, 60, 95
8, 695040, Note_on_c, 11, 62, 95
8, 695520, Note_off_c, 11, 62, 95
8, 695520, Note_on_c, 11, 64, 95
8, 696000, Note_off_c, 11, 64, 95
8, 696000, Note_on_c, 11, 62, 95
8, 696480, Note_off_c, 11, 62, 95
8, 696480, Note_on_c, 11, 60, 95
8, 696960, Note_off_c, 11, 60, 95
8, 696960, Note_on_c, 11, 62, 95
8, 700800, Note_off_c, 11, 62, 95
8, 701280, Note_on_c, 11, 55, 95
8, 701760, Note_off_c, 11, 55, 95
8, 701760, Note_on_c, 11, 55, 95
8, 702240, Note_off_c, 11, 55, 95
8, 702240, Note_on_c, 11, 55, 95
8, 702720, Note_off_c, 11, 55, 95
8, 702720, Note_on_c, 11, 57, 95
8, 703680, Note_off_c, 11, 57, 95
8, 703680, Note_on_c, 11, 60, 95
8, 707520, Note_off_c, 11, 60, 95
8, 707520, Note_on_c, 11, 60, 95
8, 708000, Note_off_c, 11, 60, 95
8, 708000, Note_on_c, 11, 57, 95
8, 708480, Note_off_c, 11, 57, 95
8, 708480, Note_on_c, 11, 60, 95
8, 709440, Note_off_c, 11, 60, 95
8, 709440, Note_on_c, 11, 62, 95
8, 710400, Note_off_c, 11, 62, 95
8, 714240, Note_on_c, 11, 57, 95
8, 715200, Note_off_c, 11, 57, 95
8, 715200, Note_on_c, 11, 60, 95
8, 719040, Note_off_c, 11, 60, 95
8, 719040, End_track
9, 0, Start_track
9, 0, Pitch_bend_c, 9, 8192
9, 0, Control_c, 9, 7, 103
9, 0, Control_c, 9, 10, 63
9, 0, Control_c, 9, 93, 0
9, 0, Control_c, 9, 91, 0
9, 0, Control_c, 9, 95, 0
9, 0, Control_c, 9, 92, 0
9, 0, Control_c, 9, 11, 127
9, 0, Program_c, 9, 0
9, 0, Note_on_c, 9, 82, 95
9, 0, Note_on_c, 9, 81, 95
9, 0, Note_on_c, 9, 63, 95
9, 480, Note_off_c, 9, 82, 95
9, 480, Note_off_c, 9, 81, 95
9, 480, Note_off_c, 9, 63, 95
9, 480, Note_on_c, 9, 82, 95
9, 960, Note_off_c, 9, 82, 95
9, 960, Note_on_c, 9, 82, 95
9, 960, Note_on_c, 9, 63, 95
9, 1440, Note_off_c, 9, 82, 95
9, 1440, Note_off_c, 9, 63, 95
9, 1440, Note_on_c, 9, 82, 95
9, 1440, Note_on_c, 9, 81, 95
9, 1920, Note_off_c, 9, 82, 95
9, 1920, Note_off_c, 9, 81, 95
9, 1920, Note_on_c, 9, 82, 95
9, 1920, Note_on_c, 9, 63, 95
9, 2400, Note_off_c, 9, 82, 95
9, 2400, Note_off_c, 9, 63, 95
9, 2400, Note_on_c, 9, 82, 95
9, 2880, Note_off_c, 9, 82, 95
9, 2880, Note_on_c, 9, 82, 95
9, 2880, Note_on_c, 9, 81, 95
9, 2880, Note_on_c, 9, 64, 95
9, 3360, Note_off_c, 9, 82, 95
9, 3360, Note_off_c, 9, 81, 95
9, 3360, Note_off_c, 9, 64, 95
9, 3360, Note_on_c, 9, 82, 95
9, 3840, Note_off_c, 9, 82, 95
9, 3840, Note_on_c, 9, 82, 95
9, 3840, Note_on_c, 9, 64, 95
9, 4320, Note_off_c, 9, 82, 95
9, 4320, Note_off_c, 9, 64, 95
9, 4320, Note_on_c, 9, 82, 95
9, 4320, Note_on_c, 9, 81, 95
9, 4800, Note_off_c, 9, 82, 95
9, 4800, Note_off_c, 9, 81, 95
9, 4800, Note_on_c, 9, 82, 95
9, 4800, Note_on_c, 9, 64, 95
9, 5280, Note_off_c, 9, 82, 95
9, 5280, Note_off_c, 9, 64, 95
9, 5280, Note_on_c, 9, 82, 95
9, 5760, Note_off_c, 9, 82, 95
9, 5760, Note_on_c, 9, 82, 95
9, 5760, Note_on_c, 9, 81, 95
9, 5760, Note_on_c, 9, 63, 95
9, 6240, Note_off_c, 9, 82, 95
9, 6240, Note_off_c, 9, 81, 95
9, 6240, Note_off_c, 9, 63, 95
9, 6240, Note_on_c, 9, 82, 95
9, 6720, Note_off_c, 9, 82, 95
9, 6720, Note_on_c, 9, 82, 95
9, 6720, Note_on_c, 9, 63, 95
9, 7200, Note_off_c, 9, 82, 95
9, 7200, Note_off_c, 9, 63, 95
9, 7200, Note_on_c, 9, 82, 95
9, 7200, Note_on_c, 9, 81, 95
9, 7680, Note_off_c, 9, 82, 95
9, 7680, Note_off_c, 9, 81, 95
9, 7680, Note_on_c, 9, 82, 95
9, 7680, Note_on_c, 9, 63, 95
9, 8160, Note_off_c, 9, 82, 95
9, 8160, Note_off_c, 9, 63, 95
9, 8160, Note_on_c, 9, 82, 95
9, 8640, Note_off_c, 9, 82, 95
9, 8640, Note_on_c, 9, 82, 95
9, 8640, Note_on_c, 9, 81, 95
9, 8640, Note_on_c, 9, 64, 95
9, 9120, Note_off_c, 9, 82, 95
9, 9120, Note_off_c, 9, 81, 95
9, 9120, Note_off_c, 9, 64, 95
9, 9120, Note_on_c, 9, 82, 95
9, 9600, Note_off_c, 9, 82, 95
9, 9600, Note_on_c, 9, 82, 95
9, 9600, Note_on_c, 9, 64, 95
9, 10080, Note_off_c, 9, 82, 95
9, 10080, Note_off_c, 9, 64, 95
9, 10080, Note_on_c, 9, 82, 95
9, 10080, Note_on_c, 9, 81, 95
9, 10560, Note_off_c, 9, 82, 95
9, 10560, Note_off_c, 9, 81, 95
9, 10560, Note_on_c, 9, 82, 95
9, 10560, Note_on_c, 9, 64, 95
9, 11040, Note_off_c, 9, 82, 95
9, 11040, Note_off_c, 9, 64, 95
9, 11040, Note_on_c, 9, 82, 95
9, 11520, Note_off_c, 9, 82, 95
9, 11520, Note_on_c, 9, 82, 95
9, 11520, Note_on_c, 9, 81, 95
9, 11520, Note_on_c, 9, 63, 95
9, 12000, Note_off_c, 9, 82, 95
9, 12000, Note_off_c, 9, 81, 95
9, 12000, Note_off_c, 9, 63, 95
9, 12000, Note_on_c, 9, 82, 95
9, 12480, Note_off_c, 9, 82, 95
9, 12480, Note_on_c, 9, 82, 95
9, 12480, Note_on_c, 9, 63, 95
9, 12960, Note_off_c, 9, 82, 95
9, 12960, Note_off_c, 9, 63, 95
9, 12960, Note_on_c, 9, 82, 95
9, 12960, Note_on_c, 9, 81, 95
9, 13440, Note_off_c, 9, 82, 95
9, 13440, Note_off_c, 9, 81, 95
9, 13440, Note_on_c, 9, 82, 95
9, 13440, Note_on_c, 9, 63, 95
9, 13920, Note_off_c, 9, 82, 95
9, 13920, Note_off_c, 9, 63, 95
9, 13920, Note_on_c, 9, 82, 95
9, 14400, Note_off_c, 9, 82, 95
9, 14400, Note_on_c, 9, 82, 95
9, 14400, Note_on_c, 9, 81, 95
9, 14400, Note_on_c, 9, 64, 95
9, 14880, Note_off_c, 9, 82, 95
9, 14880, Note_off_c, 9, 81, 95
9, 14880, Note_off_c, 9, 64, 95
9, 14880, Note_on_c, 9, 82, 95
9, 15360, Note_off_c, 9, 82, 95
9, 15360, Note_on_c, 9, 82, 95
9, 15360, Note_on_c, 9, 64, 95
9, 15840, Note_off_c, 9, 82, 95
9, 15840, Note_off_c, 9, 64, 95
9, 15840, Note_on_c, 9, 82, 95
9, 15840, Note_on_c, 9, 81, 95
9, 16320, Note_off_c, 9, 82, 95
9, 16320, Note_off_c, 9, 81, 95
9, 16320, Note_on_c, 9, 82, 95
9, 16320, Note_on_c, 9, 64, 95
9, 16800, Note_off_c, 9, 82, 95
9, 16800, Note_off_c, 9, 64, 95
9, 16800, Note_on_c, 9, 82, 95
9, 17280, Note_off_c, 9, 82, 95
9, 17280, Note_on_c, 9, 82, 95
9, 17280, Note_on_c, 9, 81, 95
9, 17280, Note_on_c, 9, 63, 95
9, 17760, Note_off_c, 9, 82, 95
9, 17760, Note_off_c, 9, 81, 95
9, 17760, Note_off_c, 9, 63, 95
9, 17760, Note_on_c, 9, 82, 95
9, 18240, Note_off_c, 9, 82, 95
9, 18240, Note_on_c, 9, 82, 95
9, 18240, Note_on_c, 9, 63, 95
9, 18720, Note_off_c, 9, 82, 95
9, 18720, Note_off_c, 9, 63, 95
9, 18720, Note_on_c, 9, 82, 95
9, 18720, Note_on_c, 9, 81, 95
9, 19200, Note_off_c, 9, 82, 95
9, 19200, Note_off_c, 9, 81, 95
9, 19200, Note_on_c, 9, 82, 95
9, 19200, Note_on_c, 9, 63, 95
9, 19680, Note_off_c, 9, 82, 95
9, 19680, Note_off_c, 9, 63, 95
9, 19680, Note_on_c, 9, 82, 95
9, 20160, Note_off_c, 9, 82, 95
9, 20160, Note_on_c, 9, 82, 95
9, 20160, Note_on_c, 9, 81, 95
9, 20160, Note_on_c, 9, 64, 95
9, 20640, Note_off_c, 9, 82, 95
9, 20640, Note_off_c, 9, 81, 95
9, 20640, Note_off_c, 9, 64, 95
9, 20640, Note_on_c, 9, 82, 95
9, 21120, Note_off_c, 9, 82, 95
9, 21120, Note_on_c, 9, 82, 95
9, 21120, Note_on_c, 9, 64, 95
9, 21600, Note_off_c, 9, 82, 95
9, 21600, Note_off_c, 9, 64, 95
9, 21600, Note_on_c, 9, 82, 95
9, 21600, Note_on_c, 9, 81, 95
9, 22080, Note_off_c, 9, 82, 95
9, 22080, Note_off_c, 9, 81, 95
9, 22080, Note_on_c, 9, 82, 95
9, 22080, Note_on_c, 9, 64, 95
9, 22560, Note_off_c, 9, 82, 95
9, 22560, Note_off_c, 9, 64, 95
9, 22560, Note_on_c, 9, 82, 95
9, 23040, Note_off_c, 9, 82, 95
9, 23040, Note_on_c, 9, 82, 95
9, 23040, Note_on_c, 9, 81, 95
9, 23040, Note_on_c, 9, 63, 95
9, 23520, Note_off_c, 9, 82, 95
9, 23520, Note_off_c, 9, 81, 95
9, 23520, Note_off_c, 9, 63, 95
9, 23520, Note_on_c, 9, 82, 95
9, 24000, Note_off_c, 9, 82, 95
9, 24000, Note_on_c, 9, 82, 95
9, 24000, Note_on_c, 9, 63, 95
9, 24480, Note_off_c, 9, 82, 95
9, 24480, Note_off_c, 9, 63, 95
9, 24480, Note_on_c, 9, 82, 95
9, 24480, Note_on_c, 9, 81, 95
9, 24960, Note_off_c, 9, 82, 95
9, 24960, Note_off_c, 9, 81, 95
9, 24960, Note_on_c, 9, 82, 95
9, 24960, Note_on_c, 9, 63, 95
9, 25440, Note_off_c, 9, 82, 95
9, 25440, Note_off_c, 9, 63, 95
9, 25440, Note_on_c, 9, 82, 95
9, 25920, Note_off_c, 9, 82, 95
9, 25920, Note_on_c, 9, 82, 95
9, 25920, Note_on_c, 9, 81, 95
9, 25920, Note_on_c, 9, 64, 95
9, 26400, Note_off_c, 9, 82, 95
9, 26400, Note_off_c, 9, 81, 95
9, 26400, Note_off_c, 9, 64, 95
9, 26400, Note_on_c, 9, 82, 95
9, 26880, Note_off_c, 9, 82, 95
9, 26880, Note_on_c, 9, 82, 95
9, 26880, Note_on_c, 9, 64, 95
9, 27360, Note_off_c, 9, 82, 95
9, 27360, Note_off_c, 9, 64, 95
9, 27360, Note_on_c, 9, 82, 95
9, 27360, Note_on_c, 9, 81, 95
9, 27840, Note_off_c, 9, 82, 95
9, 27840, Note_off_c, 9, 81, 95
9, 27840, Note_on_c, 9, 82, 95
9, 27840, Note_on_c, 9, 64, 95
9, 28320, Note_off_c, 9, 82, 95
9, 28320, Note_off_c, 9, 64, 95
9, 28320, Note_on_c, 9, 82, 95
9, 28800, Note_off_c, 9, 82, 95
9, 28800, Note_on_c, 9, 82, 95
9, 28800, Note_on_c, 9, 81, 95
9, 28800, Note_on_c, 9, 63, 95
9, 29280, Note_off_c, 9, 82, 95
9, 29280, Note_off_c, 9, 81, 95
9, 29280, Note_off_c, 9, 63, 95
9, 29280, Note_on_c, 9, 82, 95
9, 29760, Note_off_c, 9, 82, 95
9, 29760, Note_on_c, 9, 82, 95
9, 29760, Note_on_c, 9, 63, 95
9, 30240, Note_off_c, 9, 82, 95
9, 30240, Note_off_c, 9, 63, 95
9, 30240, Note_on_c, 9, 82, 95
9, 30240, Note_on_c, 9, 81, 95
9, 30720, Note_off_c, 9, 82, 95
9, 30720, Note_off_c, 9, 81, 95
9, 30720, Note_on_c, 9, 82, 95
9, 30720, Note_on_c, 9, 63, 95
9, 31200, Note_off_c, 9, 82, 95
9, 31200, Note_off_c, 9, 63, 95
9, 31200, Note_on_c, 9, 82, 95
9, 31680, Note_off_c, 9, 82, 95
9, 31680, Note_on_c, 9, 82, 95
9, 31680, Note_on_c, 9, 81, 95
9, 31680, Note_on_c, 9, 64, 95
9, 32160, Note_off_c, 9, 82, 95
9, 32160, Note_off_c, 9, 81, 95
9, 32160, Note_off_c, 9, 64, 95
9, 32160, Note_on_c, 9, 82, 95
9, 32640, Note_off_c, 9, 82, 95
9, 32640, Note_on_c, 9, 82, 95
9, 32640, Note_on_c, 9, 64, 95
9, 33120, Note_off_c, 9, 82, 95
9, 33120, Note_off_c, 9, 64, 95
9, 33120, Note_on_c, 9, 82, 95
9, 33120, Note_on_c, 9, 81, 95
9, 33600, Note_off_c, 9, 82, 95
9, 33600, Note_off_c, 9, 81, 95
9, 33600, Note_on_c, 9, 82, 95
9, 33600, Note_on_c, 9, 64, 95
9, 34080, Note_off_c, 9, 82, 95
9, 34080, Note_off_c, 9, 64, 95
9, 34080, Note_on_c, 9, 82, 95
9, 34560, Note_off_c, 9, 82, 95
9, 34560, Note_on_c, 9, 82, 95
9, 34560, Note_on_c, 9, 81, 95
9, 34560, Note_on_c, 9, 63, 95
9, 35040, Note_off_c, 9, 82, 95
9, 35040, Note_off_c, 9, 81, 95
9, 35040, Note_off_c, 9, 63, 95
9, 35040, Note_on_c, 9, 82, 95
9, 35520, Note_off_c, 9, 82, 95
9, 35520, Note_on_c, 9, 82, 95
9, 35520, Note_on_c, 9, 63, 95
9, 36000, Note_off_c, 9, 82, 95
9, 36000, Note_off_c, 9, 63, 95
9, 36000, Note_on_c, 9, 82, 95
9, 36000, Note_on_c, 9, 81, 95
9, 36480, Note_off_c, 9, 82, 95
9, 36480, Note_off_c, 9, 81, 95
9, 36480, Note_on_c, 9, 82, 95
9, 36480, Note_on_c, 9, 63, 95
9, 36960, Note_off_c, 9, 82, 95
9, 36960, Note_off_c, 9, 63, 95
9, 36960, Note_on_c, 9, 82, 95
9, 37440, Note_off_c, 9, 82, 95
9, 37440, Note_on_c, 9, 82, 95
9, 37440, Note_on_c, 9, 81, 95
9, 37440, Note_on_c, 9, 64, 95
9, 37920, Note_off_c, 9, 82, 95
9, 37920, Note_off_c, 9, 81, 95
9, 37920, Note_off_c, 9, 64, 95
9, 37920, Note_on_c, 9, 82, 95
9, 38400, Note_off_c, 9, 82, 95
9, 38400, Note_on_c, 9, 82, 95
9, 38400, Note_on_c, 9, 64, 95
9, 38880, Note_off_c, 9, 82, 95
9, 38880, Note_off_c, 9, 64, 95
9, 38880, Note_on_c, 9, 82, 95
9, 38880, Note_on_c, 9, 81, 95
9, 39360, Note_off_c, 9, 82, 95
9, 39360, Note_off_c, 9, 81, 95
9, 39360, Note_on_c, 9, 82, 95
9, 39360, Note_on_c, 9, 64, 95
9, 39840, Note_off_c, 9, 82, 95
9, 39840, Note_off_c, 9, 64, 95
9, 39840, Note_on_c, 9, 82, 95
9, 40320, Note_off_c, 9, 82, 95
9, 40320, Note_on_c, 9, 82, 95
9, 40320, Note_on_c, 9, 81, 95
9, 40320, Note_on_c, 9, 63, 95
9, 40800, Note_off_c, 9, 82, 95
9, 40800, Note_off_c, 9, 81, 95
9, 40800, Note_off_c, 9, 63, 95
9, 40800, Note_on_c, 9, 82, 95
9, 41280, Note_off_c, 9, 82, 95
9, 41280, Note_on_c, 9, 82, 95
9, 41280, Note_on_c, 9, 63, 95
9, 41760, Note_off_c, 9, 82, 95
9, 41760, Note_off_c, 9, 63, 95
9, 41760, Note_on_c, 9, 82, 95
9, 41760, Note_on_c, 9, 81, 95
9, 42240, Note_off_c, 9, 82, 95
9, 42240, Note_off_c, 9, 81, 95
9, 42240, Note_on_c, 9, 82, 95
9, 42240, Note_on_c, 9, 63, 95
9, 42720, Note_off_c, 9, 82, 95
9, 42720, Note_off_c, 9, 63, 95
9, 42720, Note_on_c, 9, 82, 95
9, 43200, Note_off_c, 9, 82, 95
9, 43200, Note_on_c, 9, 82, 95
9, 43200, Note_on_c, 9, 81, 95
9, 43200, Note_on_c, 9, 64, 95
9, 43680, Note_off_c, 9, 82, 95
9, 43680, Note_off_c, 9, 81, 95
9, 43680, Note_off_c, 9, 64, 95
9, 43680, Note_on_c, 9, 50, 95
9, 43920, Note_off_c, 9, 50, 95
9, 43920, Note_on_c, 9, 50, 95
9, 44160, Note_off_c, 9, 50, 95
9, 44160, Note_on_c, 9, 48, 95
9, 44640, Note_off_c, 9, 48, 95
9, 44640, Note_on_c, 9, 48, 95
9, 45120, Note_off_c, 9, 48, 95
9, 45120, Note_on_c, 9, 47, 95
9, 45600, Note_off_c, 9, 47, 95
9, 45600, Note_on_c, 9, 47, 95
9, 46080, Note_off_c, 9, 47, 95
9, 46080, Note_on_c, 9, 82, 95
9, 46080, Note_on_c, 9, 81, 95
9, 46080, Note_on_c, 9, 63, 95
9, 46560, Note_off_c, 9, 82, 95
9, 46560, Note_off_c, 9, 81, 95
9, 46560, Note_off_c, 9, 63, 95
9, 46560, Note_on_c, 9, 82, 95
9, 47040, Note_off_c, 9, 82, 95
9, 47040, Note_on_c, 9, 82, 95
9, 47040, Note_on_c, 9, 63, 95
9, 47520, Note_off_c, 9, 82, 95
9, 47520, Note_off_c, 9, 63, 95
9, 47520, Note_on_c, 9, 82, 95
9, 47520, Note_on_c, 9, 81, 95
9, 48000, Note_off_c, 9, 82, 95
9, 48000, Note_off_c, 9, 81, 95
9, 48000, Note_on_c, 9, 82, 95
9, 48000, Note_on_c, 9, 63, 95
9, 48480, Note_off_c, 9, 82, 95
9, 48480, Note_off_c, 9, 63, 95
9, 48480, Note_on_c, 9, 82, 95
9, 48960, Note_off_c, 9, 82, 95
9, 48960, Note_on_c, 9, 82, 95
9, 48960, Note_on_c, 9, 81, 95
9, 48960, Note_on_c, 9, 64, 95
9, 49440, Note_off_c, 9, 82, 95
9, 49440, Note_off_c, 9, 81, 95
9, 49440, Note_off_c, 9, 64, 95
9, 49440, Note_on_c, 9, 82, 95
9, 49920, Note_off_c, 9, 82, 95
9, 49920, Note_on_c, 9, 82, 95
9, 49920, Note_on_c, 9, 64, 95
9, 50400, Note_off_c, 9, 82, 95
9, 50400, Note_off_c, 9, 64, 95
9, 50400, Note_on_c, 9, 82, 95
9, 50400, Note_on_c, 9, 81, 95
9, 50880, Note_off_c, 9, 82, 95
9, 50880, Note_off_c, 9, 81, 95
9, 50880, Note_on_c, 9, 82, 95
9, 50880, Note_on_c, 9, 64, 95
9, 51360, Note_off_c, 9, 82, 95
9, 51360, Note_off_c, 9, 64, 95
9, 51360, Note_on_c, 9, 82, 95
9, 51840, Note_off_c, 9, 82, 95
9, 51840, Note_on_c, 9, 82, 95
9, 51840, Note_on_c, 9, 81, 95
9, 51840, Note_on_c, 9, 63, 95
9, 52320, Note_off_c, 9, 82, 95
9, 52320, Note_off_c, 9, 81, 95
9, 52320, Note_off_c, 9, 63, 95
9, 52320, Note_on_c, 9, 82, 95
9, 52800, Note_off_c, 9, 82, 95
9, 52800, Note_on_c, 9, 82, 95
9, 52800, Note_on_c, 9, 63, 95
9, 53280, Note_off_c, 9, 82, 95
9, 53280, Note_off_c, 9, 63, 95
9, 53280, Note_on_c, 9, 82, 95
9, 53280, Note_on_c, 9, 81, 95
9, 53760, Note_off_c, 9, 82, 95
9, 53760, Note_off_c, 9, 81, 95
9, 53760, Note_on_c, 9, 82, 95
9, 53760, Note_on_c, 9, 63, 95
9, 54240, Note_off_c, 9, 82, 95
9, 54240, Note_off_c, 9, 63, 95
9, 54240, Note_on_c, 9, 82, 95
9, 54720, Note_off_c, 9, 82, 95
9, 54720, Note_on_c, 9, 82, 95
9, 54720, Note_on_c, 9, 81, 95
9, 54720, Note_on_c, 9, 64, 95
9, 55200, Note_off_c, 9, 82, 95
9, 55200, Note_off_c, 9, 81, 95
9, 55200, Note_off_c, 9, 64, 95
9, 55200, Note_on_c, 9, 82, 95
9, 55680, Note_off_c, 9, 82, 95
9, 55680, Note_on_c, 9, 82, 95
9, 55680, Note_on_c, 9, 64, 95
9, 56160, Note_off_c, 9, 82, 95
9, 56160, Note_off_c, 9, 64, 95
9, 56160, Note_on_c, 9, 82, 95
9, 56160, Note_on_c, 9, 81, 95
9, 56640, Note_off_c, 9, 82, 95
9, 56640, Note_off_c, 9, 81, 95
9, 56640, Note_on_c, 9, 82, 95
9, 56640, Note_on_c, 9, 64, 95
9, 57120, Note_off_c, 9, 82, 95
9, 57120, Note_off_c, 9, 64, 95
9, 57120, Note_on_c, 9, 82, 95
9, 57600, Note_off_c, 9, 82, 95
9, 57600, Note_on_c, 9, 82, 95
9, 57600, Note_on_c, 9, 81, 95
9, 57600, Note_on_c, 9, 63, 95
9, 58080, Note_off_c, 9, 82, 95
9, 58080, Note_off_c, 9, 81, 95
9, 58080, Note_off_c, 9, 63, 95
9, 58080, Note_on_c, 9, 82, 95
9, 58560, Note_off_c, 9, 82, 95
9, 58560, Note_on_c, 9, 82, 95
9, 58560, Note_on_c, 9, 63, 95
9, 59040, Note_off_c, 9, 82, 95
9, 59040, Note_off_c, 9, 63, 95
9, 59040, Note_on_c, 9, 82, 95
9, 59040, Note_on_c, 9, 81, 95
9, 59520, Note_off_c, 9, 82, 95
9, 59520, Note_off_c, 9, 81, 95
9, 59520, Note_on_c, 9, 82, 95
9, 59520, Note_on_c, 9, 63, 95
9, 60000, Note_off_c, 9, 82, 95
9, 60000, Note_off_c, 9, 63, 95
9, 60000, Note_on_c, 9, 82, 95
9, 60480, Note_off_c, 9, 82, 95
9, 60480, Note_on_c, 9, 82, 95
9, 60480, Note_on_c, 9, 81, 95
9, 60480, Note_on_c, 9, 64, 95
9, 60960, Note_off_c, 9, 82, 95
9, 60960, Note_off_c, 9, 81, 95
9, 60960, Note_off_c, 9, 64, 95
9, 60960, Note_on_c, 9, 82, 95
9, 61440, Note_off_c, 9, 82, 95
9, 61440, Note_on_c, 9, 82, 95
9, 61440, Note_on_c, 9, 64, 95
9, 61920, Note_off_c, 9, 82, 95
9, 61920, Note_off_c, 9, 64, 95
9, 61920, Note_on_c, 9, 82, 95
9, 61920, Note_on_c, 9, 81, 95
9, 62400, Note_off_c, 9, 82, 95
9, 62400, Note_off_c, 9, 81, 95
9, 62400, Note_on_c, 9, 82, 95
9, 62400, Note_on_c, 9, 64, 95
9, 62880, Note_off_c, 9, 82, 95
9, 62880, Note_off_c, 9, 64, 95
9, 62880, Note_on_c, 9, 82, 95
9, 63360, Note_off_c, 9, 82, 95
9, 63360, Note_on_c, 9, 82, 95
9, 63360, Note_on_c, 9, 81, 95
9, 63360, Note_on_c, 9, 63, 95
9, 63840, Note_off_c, 9, 82, 95
9, 63840, Note_off_c, 9, 81, 95
9, 63840, Note_off_c, 9, 63, 95
9, 63840, Note_on_c, 9, 82, 95
9, 64320, Note_off_c, 9, 82, 95
9, 64320, Note_on_c, 9, 82, 95
9, 64320, Note_on_c, 9, 63, 95
9, 64800, Note_off_c, 9, 82, 95
9, 64800, Note_off_c, 9, 63, 95
9, 64800, Note_on_c, 9, 82, 95
9, 64800, Note_on_c, 9, 81, 95
9, 65280, Note_off_c, 9, 82, 95
9, 65280, Note_off_c, 9, 81, 95
9, 65280, Note_on_c, 9, 82, 95
9, 65280, Note_on_c, 9, 63, 95
9, 65760, Note_off_c, 9, 82, 95
9, 65760, Note_off_c, 9, 63, 95
9, 65760, Note_on_c, 9, 82, 95
9, 66240, Note_off_c, 9, 82, 95
9, 66240, Note_on_c, 9, 82, 95
9, 66240, Note_on_c, 9, 81, 95
9, 66240, Note_on_c, 9, 64, 95
9, 66720, Note_off_c, 9, 82, 95
9, 66720, Note_off_c, 9, 81, 95
9, 66720, Note_off_c, 9, 64, 95
9, 66720, Note_on_c, 9, 82, 95
9, 67200, Note_off_c, 9, 82, 95
9, 67200, Note_on_c, 9, 82, 95
9, 67200, Note_on_c, 9, 64, 95
9, 67680, Note_off_c, 9, 82, 95
9, 67680, Note_off_c, 9, 64, 95
9, 67680, Note_on_c, 9, 82, 95
9, 67680, Note_on_c, 9, 81, 95
9, 68160, Note_off_c, 9, 82, 95
9, 68160, Note_off_c, 9, 81, 95
9, 68160, Note_on_c, 9, 82, 95
9, 68160, Note_on_c, 9, 64, 95
9, 68640, Note_off_c, 9, 82, 95
9, 68640, Note_off_c, 9, 64, 95
9, 68640, Note_on_c, 9, 82, 95
9, 69120, Note_off_c, 9, 82, 95
9, 69120, Note_on_c, 9, 82, 95
9, 69120, Note_on_c, 9, 81, 95
9, 69120, Note_on_c, 9, 63, 95
9, 69600, Note_off_c, 9, 82, 95
9, 69600, Note_off_c, 9, 81, 95
9, 69600, Note_off_c, 9, 63, 95
9, 69600, Note_on_c, 9, 82, 95
9, 70080, Note_off_c, 9, 82, 95
9, 70080, Note_on_c, 9, 82, 95
9, 70080, Note_on_c, 9, 63, 95
9, 70560, Note_off_c, 9, 82, 95
9, 70560, Note_off_c, 9, 63, 95
9, 70560, Note_on_c, 9, 82, 95
9, 70560, Note_on_c, 9, 81, 95
9, 71040, Note_off_c, 9, 82, 95
9, 71040, Note_off_c, 9, 81, 95
9, 71040, Note_on_c, 9, 82, 95
9, 71040, Note_on_c, 9, 63, 95
9, 71520, Note_off_c, 9, 82, 95
9, 71520, Note_off_c, 9, 63, 95
9, 71520, Note_on_c, 9, 82, 95
9, 72000, Note_off_c, 9, 82, 95
9, 72000, Note_on_c, 9, 82, 95
9, 72000, Note_on_c, 9, 81, 95
9, 72000, Note_on_c, 9, 64, 95
9, 72480, Note_off_c, 9, 82, 95
9, 72480, Note_off_c, 9, 81, 95
9, 72480, Note_off_c, 9, 64, 95
9, 72480, Note_on_c, 9, 82, 95
9, 72960, Note_off_c, 9, 82, 95
9, 72960, Note_on_c, 9, 82, 95
9, 72960, Note_on_c, 9, 64, 95
9, 73440, Note_off_c, 9, 82, 95
9, 73440, Note_off_c, 9, 64, 95
9, 73440, Note_on_c, 9, 82, 95
9, 73440, Note_on_c, 9, 81, 95
9, 73920, Note_off_c, 9, 82, 95
9, 73920, Note_off_c, 9, 81, 95
9, 73920, Note_on_c, 9, 82, 95
9, 73920, Note_on_c, 9, 64, 95
9, 74400, Note_off_c, 9, 82, 95
9, 74400, Note_off_c, 9, 64, 95
9, 74400, Note_on_c, 9, 82, 95
9, 74880, Note_off_c, 9, 82, 95
9, 74880, Note_on_c, 9, 82, 95
9, 74880, Note_on_c, 9, 81, 95
9, 74880, Note_on_c, 9, 63, 95
9, 75360, Note_off_c, 9, 82, 95
9, 75360, Note_off_c, 9, 81, 95
9, 75360, Note_off_c, 9, 63, 95
9, 75360, Note_on_c, 9, 82, 95
9, 75840, Note_off_c, 9, 82, 95
9, 75840, Note_on_c, 9, 82, 95
9, 75840, Note_on_c, 9, 63, 95
9, 76320, Note_off_c, 9, 82, 95
9, 76320, Note_off_c, 9, 63, 95
9, 76320, Note_on_c, 9, 82, 95
9, 76320, Note_on_c, 9, 81, 95
9, 76800, Note_off_c, 9, 82, 95
9, 76800, Note_off_c, 9, 81, 95
9, 76800, Note_on_c, 9, 82, 95
9, 76800, Note_on_c, 9, 63, 95
9, 77280, Note_off_c, 9, 82, 95
9, 77280, Note_off_c, 9, 63, 95
9, 77280, Note_on_c, 9, 82, 95
9, 77760, Note_off_c, 9, 82, 95
9, 77760, Note_on_c, 9, 82, 95
9, 77760, Note_on_c, 9, 81, 95
9, 77760, Note_on_c, 9, 64, 95
9, 78240, Note_off_c, 9, 82, 95
9, 78240, Note_off_c, 9, 81, 95
9, 78240, Note_off_c, 9, 64, 95
9, 78240, Note_on_c, 9, 82, 95
9, 78720, Note_off_c, 9, 82, 95
9, 78720, Note_on_c, 9, 82, 95
9, 78720, Note_on_c, 9, 64, 95
9, 79200, Note_off_c, 9, 82, 95
9, 79200, Note_off_c, 9, 64, 95
9, 79200, Note_on_c, 9, 82, 95
9, 79200, Note_on_c, 9, 81, 95
9, 79680, Note_off_c, 9, 82, 95
9, 79680, Note_off_c, 9, 81, 95
9, 79680, Note_on_c, 9, 82, 95
9, 79680, Note_on_c, 9, 64, 95
9, 80160, Note_off_c, 9, 82, 95
9, 80160, Note_off_c, 9, 64, 95
9, 80160, Note_on_c, 9, 82, 95
9, 80640, Note_off_c, 9, 82, 95
9, 80640, Note_on_c, 9, 82, 95
9, 80640, Note_on_c, 9, 81, 95
9, 80640, Note_on_c, 9, 63, 95
9, 81120, Note_off_c, 9, 82, 95
9, 81120, Note_off_c, 9, 81, 95
9, 81120, Note_off_c, 9, 63, 95
9, 81120, Note_on_c, 9, 82, 95
9, 81600, Note_off_c, 9, 82, 95
9, 81600, Note_on_c, 9, 82, 95
9, 81600, Note_on_c, 9, 63, 95
9, 82080, Note_off_c, 9, 82, 95
9, 82080, Note_off_c, 9, 63, 95
9, 82080, Note_on_c, 9, 82, 95
9, 82080, Note_on_c, 9, 81, 95
9, 82560, Note_off_c, 9, 82, 95
9, 82560, Note_off_c, 9, 81, 95
9, 82560, Note_on_c, 9, 82, 95
9, 82560, Note_on_c, 9, 63, 95
9, 83040, Note_off_c, 9, 82, 95
9, 83040, Note_off_c, 9, 63, 95
9, 83040, Note_on_c, 9, 82, 95
9, 83520, Note_off_c, 9, 82, 95
9, 83520, Note_on_c, 9, 82, 95
9, 83520, Note_on_c, 9, 81, 95
9, 83520, Note_on_c, 9, 64, 95
9, 84000, Note_off_c, 9, 82, 95
9, 84000, Note_off_c, 9, 81, 95
9, 84000, Note_off_c, 9, 64, 95
9, 84000, Note_on_c, 9, 82, 95
9, 84480, Note_off_c, 9, 82, 95
9, 84480, Note_on_c, 9, 82, 95
9, 84480, Note_on_c, 9, 64, 95
9, 84960, Note_off_c, 9, 82, 95
9, 84960, Note_off_c, 9, 64, 95
9, 84960, Note_on_c, 9, 82, 95
9, 84960, Note_on_c, 9, 81, 95
9, 85440, Note_off_c, 9, 82, 95
9, 85440, Note_off_c, 9, 81, 95
9, 85440, Note_on_c, 9, 82, 95
9, 85440, Note_on_c, 9, 64, 95
9, 85920, Note_off_c, 9, 82, 95
9, 85920, Note_off_c, 9, 64, 95
9, 85920, Note_on_c, 9, 82, 95
9, 86400, Note_off_c, 9, 82, 95
9, 86400, Note_on_c, 9, 82, 95
9, 86400, Note_on_c, 9, 81, 95
9, 86400, Note_on_c, 9, 63, 95
9, 86880, Note_off_c, 9, 82, 95
9, 86880, Note_off_c, 9, 81, 95
9, 86880, Note_off_c, 9, 63, 95
9, 86880, Note_on_c, 9, 82, 95
9, 87360, Note_off_c, 9, 82, 95
9, 87360, Note_on_c, 9, 82, 95
9, 87360, Note_on_c, 9, 63, 95
9, 87840, Note_off_c, 9, 82, 95
9, 87840, Note_off_c, 9, 63, 95
9, 87840, Note_on_c, 9, 82, 95
9, 87840, Note_on_c, 9, 81, 95
9, 88320, Note_off_c, 9, 82, 95
9, 88320, Note_off_c, 9, 81, 95
9, 88320, Note_on_c, 9, 82, 95
9, 88320, Note_on_c, 9, 63, 95
9, 88800, Note_off_c, 9, 82, 95
9, 88800, Note_off_c, 9, 63, 95
9, 88800, Note_on_c, 9, 82, 95
9, 89280, Note_off_c, 9, 82, 95
9, 89280, Note_on_c, 9, 82, 95
9, 89280, Note_on_c, 9, 81, 95
9, 89280, Note_on_c, 9, 64, 95
9, 89760, Note_off_c, 9, 82, 95
9, 89760, Note_off_c, 9, 81, 95
9, 89760, Note_off_c, 9, 64, 95
9, 89760, Note_on_c, 9, 82, 95
9, 90240, Note_off_c, 9, 82, 95
9, 90240, Note_on_c, 9, 82, 95
9, 90240, Note_on_c, 9, 64, 95
9, 90720, Note_off_c, 9, 82, 95
9, 90720, Note_off_c, 9, 64, 95
9, 90720, Note_on_c, 9, 82, 95
9, 90720, Note_on_c, 9, 81, 95
9, 91200, Note_off_c, 9, 82, 95
9, 91200, Note_off_c, 9, 81, 95
9, 91200, Note_on_c, 9, 82, 95
9, 91200, Note_on_c, 9, 64, 95
9, 91680, Note_off_c, 9, 82, 95
9, 91680, Note_off_c, 9, 64, 95
9, 91680, Note_on_c, 9, 82, 95
9, 92160, Note_off_c, 9, 82, 95
9, 92160, Note_on_c, 9, 82, 95
9, 92160, Note_on_c, 9, 81, 95
9, 92160, Note_on_c, 9, 63, 95
9, 92640, Note_off_c, 9, 82, 95
9, 92640, Note_off_c, 9, 81, 95
9, 92640, Note_off_c, 9, 63, 95
9, 92640, Note_on_c, 9, 82, 95
9, 93120, Note_off_c, 9, 82, 95
9, 93120, Note_on_c, 9, 82, 95
9, 93120, Note_on_c, 9, 63, 95
9, 93600, Note_off_c, 9, 82, 95
9, 93600, Note_off_c, 9, 63, 95
9, 93600, Note_on_c, 9, 82, 95
9, 93600, Note_on_c, 9, 81, 95
9, 94080, Note_off_c, 9, 82, 95
9, 94080, Note_off_c, 9, 81, 95
9, 94080, Note_on_c, 9, 82, 95
9, 94080, Note_on_c, 9, 63, 95
9, 94560, Note_off_c, 9, 82, 95
9, 94560, Note_off_c, 9, 63, 95
9, 94560, Note_on_c, 9, 82, 95
9, 95040, Note_off_c, 9, 82, 95
9, 95040, Note_on_c, 9, 82, 95
9, 95040, Note_on_c, 9, 81, 95
9, 95040, Note_on_c, 9, 64, 95
9, 95520, Note_off_c, 9, 82, 95
9, 95520, Note_off_c, 9, 81, 95
9, 95520, Note_off_c, 9, 64, 95
9, 95520, Note_on_c, 9, 82, 95
9, 96000, Note_off_c, 9, 82, 95
9, 96000, Note_on_c, 9, 82, 95
9, 96000, Note_on_c, 9, 64, 95
9, 96480, Note_off_c, 9, 82, 95
9, 96480, Note_off_c, 9, 64, 95
9, 96480, Note_on_c, 9, 82, 95
9, 96480, Note_on_c, 9, 81, 95
9, 96960, Note_off_c, 9, 82, 95
9, 96960, Note_off_c, 9, 81, 95
9, 96960, Note_on_c, 9, 82, 95
9, 96960, Note_on_c, 9, 64, 95
9, 97440, Note_off_c, 9, 82, 95
9, 97440, Note_off_c, 9, 64, 95
9, 97440, Note_on_c, 9, 82, 95
9, 97920, Note_off_c, 9, 82, 95
9, 97920, Note_on_c, 9, 82, 95
9, 97920, Note_on_c, 9, 81, 95
9, 97920, Note_on_c, 9, 63, 95
9, 98400, Note_off_c, 9, 82, 95
9, 98400, Note_off_c, 9, 81, 95
9, 98400, Note_off_c, 9, 63, 95
9, 98400, Note_on_c, 9, 82, 95
9, 98880, Note_off_c, 9, 82, 95
9, 98880, Note_on_c, 9, 82, 95
9, 98880, Note_on_c, 9, 63, 95
9, 99360, Note_off_c, 9, 82, 95
9, 99360, Note_off_c, 9, 63, 95
9, 99360, Note_on_c, 9, 82, 95
9, 99360, Note_on_c, 9, 81, 95
9, 99840, Note_off_c, 9, 82, 95
9, 99840, Note_off_c, 9, 81, 95
9, 99840, Note_on_c, 9, 82, 95
9, 99840, Note_on_c, 9, 63, 95
9, 100320, Note_off_c, 9, 82, 95
9, 100320, Note_off_c, 9, 63, 95
9, 100320, Note_on_c, 9, 82, 95
9, 100800, Note_off_c, 9, 82, 95
9, 100800, Note_on_c, 9, 82, 95
9, 100800, Note_on_c, 9, 81, 95
9, 100800, Note_on_c, 9, 64, 95
9, 101280, Note_off_c, 9, 82, 95
9, 101280, Note_off_c, 9, 81, 95
9, 101280, Note_off_c, 9, 64, 95
9, 101280, Note_on_c, 9, 82, 95
9, 101760, Note_off_c, 9, 82, 95
9, 101760, Note_on_c, 9, 82, 95
9, 101760, Note_on_c, 9, 64, 95
9, 102240, Note_off_c, 9, 82, 95
9, 102240, Note_off_c, 9, 64, 95
9, 102240, Note_on_c, 9, 82, 95
9, 102240, Note_on_c, 9, 81, 95
9, 102720, Note_off_c, 9, 82, 95
9, 102720, Note_off_c, 9, 81, 95
9, 102720, Note_on_c, 9, 82, 95
9, 102720, Note_on_c, 9, 64, 95
9, 103200, Note_off_c, 9, 82, 95
9, 103200, Note_off_c, 9, 64, 95
9, 103200, Note_on_c, 9, 82, 95
9, 103680, Note_off_c, 9, 82, 95
9, 103680, Note_on_c, 9, 82, 95
9, 103680, Note_on_c, 9, 81, 95
9, 103680, Note_on_c, 9, 63, 95
9, 104160, Note_off_c, 9, 82, 95
9, 104160, Note_off_c, 9, 81, 95
9, 104160, Note_off_c, 9, 63, 95
9, 104160, Note_on_c, 9, 82, 95
9, 104640, Note_off_c, 9, 82, 95
9, 104640, Note_on_c, 9, 82, 95
9, 104640, Note_on_c, 9, 63, 95
9, 105120, Note_off_c, 9, 82, 95
9, 105120, Note_off_c, 9, 63, 95
9, 105120, Note_on_c, 9, 82, 95
9, 105120, Note_on_c, 9, 81, 95
9, 105600, Note_off_c, 9, 82, 95
9, 105600, Note_off_c, 9, 81, 95
9, 105600, Note_on_c, 9, 82, 95
9, 105600, Note_on_c, 9, 63, 95
9, 106080, Note_off_c, 9, 82, 95
9, 106080, Note_off_c, 9, 63, 95
9, 106080, Note_on_c, 9, 82, 95
9, 106560, Note_off_c, 9, 82, 95
9, 106560, Note_on_c, 9, 82, 95
9, 106560, Note_on_c, 9, 81, 95
9, 106560, Note_on_c, 9, 64, 95
9, 107040, Note_off_c, 9, 82, 95
9, 107040, Note_off_c, 9, 81, 95
9, 107040, Note_off_c, 9, 64, 95
9, 107040, Note_on_c, 9, 82, 95
9, 107520, Note_off_c, 9, 82, 95
9, 107520, Note_on_c, 9, 82, 95
9, 107520, Note_on_c, 9, 64, 95
9, 108000, Note_off_c, 9, 82, 95
9, 108000, Note_off_c, 9, 64, 95
9, 108000, Note_on_c, 9, 82, 95
9, 108000, Note_on_c, 9, 81, 95
9, 108480, Note_off_c, 9, 82, 95
9, 108480, Note_off_c, 9, 81, 95
9, 108480, Note_on_c, 9, 82, 95
9, 108480, Note_on_c, 9, 64, 95
9, 108960, Note_off_c, 9, 82, 95
9, 108960, Note_off_c, 9, 64, 95
9, 108960, Note_on_c, 9, 82, 95
9, 109440, Note_off_c, 9, 82, 95
9, 109440, Note_on_c, 9, 82, 95
9, 109440, Note_on_c, 9, 81, 95
9, 109440, Note_on_c, 9, 63, 95
9, 109920, Note_off_c, 9, 82, 95
9, 109920, Note_off_c, 9, 81, 95
9, 109920, Note_off_c, 9, 63, 95
9, 109920, Note_on_c, 9, 82, 95
9, 110400, Note_off_c, 9, 82, 95
9, 110400, Note_on_c, 9, 82, 95
9, 110400, Note_on_c, 9, 63, 95
9, 110880, Note_off_c, 9, 82, 95
9, 110880, Note_off_c, 9, 63, 95
9, 110880, Note_on_c, 9, 82, 95
9, 110880, Note_on_c, 9, 81, 95
9, 111360, Note_off_c, 9, 82, 95
9, 111360, Note_off_c, 9, 81, 95
9, 111360, Note_on_c, 9, 82, 95
9, 111360, Note_on_c, 9, 63, 95
9, 111840, Note_off_c, 9, 82, 95
9, 111840, Note_off_c, 9, 63, 95
9, 111840, Note_on_c, 9, 82, 95
9, 112320, Note_off_c, 9, 82, 95
9, 112320, Note_on_c, 9, 82, 95
9, 112320, Note_on_c, 9, 81, 95
9, 112320, Note_on_c, 9, 64, 95
9, 112800, Note_off_c, 9, 82, 95
9, 112800, Note_off_c, 9, 81, 95
9, 112800, Note_off_c, 9, 64, 95
9, 112800, Note_on_c, 9, 82, 95
9, 113280, Note_off_c, 9, 82, 95
9, 113280, Note_on_c, 9, 82, 95
9, 113280, Note_on_c, 9, 64, 95
9, 113760, Note_off_c, 9, 82, 95
9, 113760, Note_off_c, 9, 64, 95
9, 113760, Note_on_c, 9, 82, 95
9, 113760, Note_on_c, 9, 81, 95
9, 114240, Note_off_c, 9, 82, 95
9, 114240, Note_off_c, 9, 81, 95
9, 114240, Note_on_c, 9, 82, 95
9, 114240, Note_on_c, 9, 64, 95
9, 114720, Note_off_c, 9, 82, 95
9, 114720, Note_off_c, 9, 64, 95
9, 114720, Note_on_c, 9, 82, 95
9, 115200, Note_off_c, 9, 82, 95
9, 115200, Note_on_c, 9, 82, 95
9, 115200, Note_on_c, 9, 81, 95
9, 115200, Note_on_c, 9, 63, 95
9, 115680, Note_off_c, 9, 82, 95
9, 115680, Note_off_c, 9, 81, 95
9, 115680, Note_off_c, 9, 63, 95
9, 115680, Note_on_c, 9, 82, 95
9, 116160, Note_off_c, 9, 82, 95
9, 116160, Note_on_c, 9, 82, 95
9, 116160, Note_on_c, 9, 63, 95
9, 116640, Note_off_c, 9, 82, 95
9, 116640, Note_off_c, 9, 63, 95
9, 116640, Note_on_c, 9, 82, 95
9, 116640, Note_on_c, 9, 81, 95
9, 117120, Note_off_c, 9, 82, 95
9, 117120, Note_off_c, 9, 81, 95
9, 117120, Note_on_c, 9, 82, 95
9, 117120, Note_on_c, 9, 63, 95
9, 117600, Note_off_c, 9, 82, 95
9, 117600, Note_off_c, 9, 63, 95
9, 117600, Note_on_c, 9, 82, 95
9, 118080, Note_off_c, 9, 82, 95
9, 118080, Note_on_c, 9, 82, 95
9, 118080, Note_on_c, 9, 81, 95
9, 118080, Note_on_c, 9, 64, 95
9, 118560, Note_off_c, 9, 82, 95
9, 118560, Note_off_c, 9, 81, 95
9, 118560, Note_off_c, 9, 64, 95
9, 118560, Note_on_c, 9, 82, 95
9, 119040, Note_off_c, 9, 82, 95
9, 119040, Note_on_c, 9, 82, 95
9, 119040, Note_on_c, 9, 64, 95
9, 119520, Note_off_c, 9, 82, 95
9, 119520, Note_off_c, 9, 64, 95
9, 119520, Note_on_c, 9, 82, 95
9, 119520, Note_on_c, 9, 81, 95
9, 120000, Note_off_c, 9, 82, 95
9, 120000, Note_off_c, 9, 81, 95
9, 120000, Note_on_c, 9, 82, 95
9, 120000, Note_on_c, 9, 64, 95
9, 120480, Note_off_c, 9, 82, 95
9, 120480, Note_off_c, 9, 64, 95
9, 120480, Note_on_c, 9, 82, 95
9, 120960, Note_off_c, 9, 82, 95
9, 120960, Note_on_c, 9, 82, 95
9, 120960, Note_on_c, 9, 81, 95
9, 120960, Note_on_c, 9, 63, 95
9, 121440, Note_off_c, 9, 82, 95
9, 121440, Note_off_c, 9, 81, 95
9, 121440, Note_off_c, 9, 63, 95
9, 121440, Note_on_c, 9, 82, 95
9, 121920, Note_off_c, 9, 82, 95
9, 121920, Note_on_c, 9, 82, 95
9, 121920, Note_on_c, 9, 63, 95
9, 122400, Note_off_c, 9, 82, 95
9, 122400, Note_off_c, 9, 63, 95
9, 122400, Note_on_c, 9, 82, 95
9, 122400, Note_on_c, 9, 81, 95
9, 122880, Note_off_c, 9, 82, 95
9, 122880, Note_off_c, 9, 81, 95
9, 122880, Note_on_c, 9, 82, 95
9, 122880, Note_on_c, 9, 63, 95
9, 123360, Note_off_c, 9, 82, 95
9, 123360, Note_off_c, 9, 63, 95
9, 123360, Note_on_c, 9, 82, 95
9, 123840, Note_off_c, 9, 82, 95
9, 123840, Note_on_c, 9, 82, 95
9, 123840, Note_on_c, 9, 81, 95
9, 123840, Note_on_c, 9, 64, 95
9, 124320, Note_off_c, 9, 82, 95
9, 124320, Note_off_c, 9, 81, 95
9, 124320, Note_off_c, 9, 64, 95
9, 124320, Note_on_c, 9, 82, 95
9, 124800, Note_off_c, 9, 82, 95
9, 124800, Note_on_c, 9, 82, 95
9, 124800, Note_on_c, 9, 64, 95
9, 125280, Note_off_c, 9, 82, 95
9, 125280, Note_off_c, 9, 64, 95
9, 125280, Note_on_c, 9, 82, 95
9, 125280, Note_on_c, 9, 81, 95
9, 125760, Note_off_c, 9, 82, 95
9, 125760, Note_off_c, 9, 81, 95
9, 125760, Note_on_c, 9, 82, 95
9, 125760, Note_on_c, 9, 64, 95
9, 126240, Note_off_c, 9, 82, 95
9, 126240, Note_off_c, 9, 64, 95
9, 126240, Note_on_c, 9, 82, 95
9, 126720, Note_off_c, 9, 82, 95
9, 126720, Note_on_c, 9, 82, 95
9, 126720, Note_on_c, 9, 81, 95
9, 126720, Note_on_c, 9, 63, 95
9, 127200, Note_off_c, 9, 82, 95
9, 127200, Note_off_c, 9, 81, 95
9, 127200, Note_off_c, 9, 63, 95
9, 127200, Note_on_c, 9, 82, 95
9, 127680, Note_off_c, 9, 82, 95
9, 127680, Note_on_c, 9, 82, 95
9, 127680, Note_on_c, 9, 63, 95
9, 128160, Note_off_c, 9, 82, 95
9, 128160, Note_off_c, 9, 63, 95
9, 128160, Note_on_c, 9, 82, 95
9, 128160, Note_on_c, 9, 81, 95
9, 128640, Note_off_c, 9, 82, 95
9, 128640, Note_off_c, 9, 81, 95
9, 128640, Note_on_c, 9, 82, 95
9, 128640, Note_on_c, 9, 63, 95
9, 129120, Note_off_c, 9, 82, 95
9, 129120, Note_off_c, 9, 63, 95
9, 129120, Note_on_c, 9, 82, 95
9, 129600, Note_off_c, 9, 82, 95
9, 129600, Note_on_c, 9, 82, 95
9, 129600, Note_on_c, 9, 81, 95
9, 129600, Note_on_c, 9, 64, 95
9, 130080, Note_off_c, 9, 82, 95
9, 130080, Note_off_c, 9, 81, 95
9, 130080, Note_off_c, 9, 64, 95
9, 130080, Note_on_c, 9, 82, 95
9, 130560, Note_off_c, 9, 82, 95
9, 130560, Note_on_c, 9, 82, 95
9, 130560, Note_on_c, 9, 64, 95
9, 131040, Note_off_c, 9, 82, 95
9, 131040, Note_off_c, 9, 64, 95
9, 131040, Note_on_c, 9, 82, 95
9, 131040, Note_on_c, 9, 81, 95
9, 131520, Note_off_c, 9, 82, 95
9, 131520, Note_off_c, 9, 81, 95
9, 131520, Note_on_c, 9, 82, 95
9, 131520, Note_on_c, 9, 64, 95
9, 132000, Note_off_c, 9, 82, 95
9, 132000, Note_off_c, 9, 64, 95
9, 132000, Note_on_c, 9, 82, 95
9, 132480, Note_off_c, 9, 82, 95
9, 132480, Note_on_c, 9, 82, 95
9, 132480, Note_on_c, 9, 81, 95
9, 132480, Note_on_c, 9, 63, 95
9, 132960, Note_off_c, 9, 82, 95
9, 132960, Note_off_c, 9, 81, 95
9, 132960, Note_off_c, 9, 63, 95
9, 132960, Note_on_c, 9, 82, 95
9, 133440, Note_off_c, 9, 82, 95
9, 133440, Note_on_c, 9, 82, 95
9, 133440, Note_on_c, 9, 63, 95
9, 133920, Note_off_c, 9, 82, 95
9, 133920, Note_off_c, 9, 63, 95
9, 133920, Note_on_c, 9, 82, 95
9, 133920, Note_on_c, 9, 81, 95
9, 134400, Note_off_c, 9, 82, 95
9, 134400, Note_off_c, 9, 81, 95
9, 134400, Note_on_c, 9, 82, 95
9, 134400, Note_on_c, 9, 63, 95
9, 134880, Note_off_c, 9, 82, 95
9, 134880, Note_off_c, 9, 63, 95
9, 134880, Note_on_c, 9, 82, 95
9, 135360, Note_off_c, 9, 82, 95
9, 135360, Note_on_c, 9, 82, 95
9, 135360, Note_on_c, 9, 81, 95
9, 135360, Note_on_c, 9, 64, 95
9, 135840, Note_off_c, 9, 82, 95
9, 135840, Note_off_c, 9, 81, 95
9, 135840, Note_off_c, 9, 64, 95
9, 135840, Note_on_c, 9, 50, 95
9, 136080, Note_off_c, 9, 50, 95
9, 136080, Note_on_c, 9, 50, 95
9, 136320, Note_off_c, 9, 50, 95
9, 136320, Note_on_c, 9, 48, 95
9, 136800, Note_off_c, 9, 48, 95
9, 136800, Note_on_c, 9, 48, 95
9, 137280, Note_off_c, 9, 48, 95
9, 137280, Note_on_c, 9, 47, 95
9, 137760, Note_off_c, 9, 47, 95
9, 137760, Note_on_c, 9, 47, 95
9, 138240, Note_off_c, 9, 47, 95
9, 138240, Note_on_c, 9, 82, 95
9, 138240, Note_on_c, 9, 81, 95
9, 138240, Note_on_c, 9, 63, 95
9, 138720, Note_off_c, 9, 82, 95
9, 138720, Note_off_c, 9, 81, 95
9, 138720, Note_off_c, 9, 63, 95
9, 138720, Note_on_c, 9, 82, 95
9, 139200, Note_off_c, 9, 82, 95
9, 139200, Note_on_c, 9, 82, 95
9, 139200, Note_on_c, 9, 63, 95
9, 139680, Note_off_c, 9, 82, 95
9, 139680, Note_off_c, 9, 63, 95
9, 139680, Note_on_c, 9, 82, 95
9, 139680, Note_on_c, 9, 81, 95
9, 140160, Note_off_c, 9, 82, 95
9, 140160, Note_off_c, 9, 81, 95
9, 140160, Note_on_c, 9, 82, 95
9, 140160, Note_on_c, 9, 63, 95
9, 140640, Note_off_c, 9, 82, 95
9, 140640, Note_off_c, 9, 63, 95
9, 140640, Note_on_c, 9, 82, 95
9, 141120, Note_off_c, 9, 82, 95
9, 141120, Note_on_c, 9, 82, 95
9, 141120, Note_on_c, 9, 81, 95
9, 141120, Note_on_c, 9, 64, 95
9, 141600, Note_off_c, 9, 82, 95
9, 141600, Note_off_c, 9, 81, 95
9, 141600, Note_off_c, 9, 64, 95
9, 141600, Note_on_c, 9, 82, 95
9, 142080, Note_off_c, 9, 82, 95
9, 142080, Note_on_c, 9, 82, 95
9, 142080, Note_on_c, 9, 64, 95
9, 142560, Note_off_c, 9, 82, 95
9, 142560, Note_off_c, 9, 64, 95
9, 142560, Note_on_c, 9, 82, 95
9, 142560, Note_on_c, 9, 81, 95
9, 143040, Note_off_c, 9, 82, 95
9, 143040, Note_off_c, 9, 81, 95
9, 143040, Note_on_c, 9, 82, 95
9, 143040, Note_on_c, 9, 64, 95
9, 143520, Note_off_c, 9, 82, 95
9, 143520, Note_off_c, 9, 64, 95
9, 143520, Note_on_c, 9, 82, 95
9, 144000, Note_off_c, 9, 82, 95
9, 144000, Note_on_c, 9, 82, 95
9, 144000, Note_on_c, 9, 81, 95
9, 144000, Note_on_c, 9, 63, 95
9, 144480, Note_off_c, 9, 82, 95
9, 144480, Note_off_c, 9, 81, 95
9, 144480, Note_off_c, 9, 63, 95
9, 144480, Note_on_c, 9, 82, 95
9, 144960, Note_off_c, 9, 82, 95
9, 144960, Note_on_c, 9, 82, 95
9, 144960, Note_on_c, 9, 63, 95
9, 145440, Note_off_c, 9, 82, 95
9, 145440, Note_off_c, 9, 63, 95
9, 145440, Note_on_c, 9, 82, 95
9, 145440, Note_on_c, 9, 81, 95
9, 145920, Note_off_c, 9, 82, 95
9, 145920, Note_off_c, 9, 81, 95
9, 145920, Note_on_c, 9, 82, 95
9, 145920, Note_on_c, 9, 63, 95
9, 146400, Note_off_c, 9, 82, 95
9, 146400, Note_off_c, 9, 63, 95
9, 146400, Note_on_c, 9, 82, 95
9, 146880, Note_off_c, 9, 82, 95
9, 146880, Note_on_c, 9, 82, 95
9, 146880, Note_on_c, 9, 81, 95
9, 146880, Note_on_c, 9, 64, 95
9, 147360, Note_off_c, 9, 82, 95
9, 147360, Note_off_c, 9, 81, 95
9, 147360, Note_off_c, 9, 64, 95
9, 147360, Note_on_c, 9, 82, 95
9, 147840, Note_off_c, 9, 82, 95
9, 147840, Note_on_c, 9, 82, 95
9, 147840, Note_on_c, 9, 64, 95
9, 148320, Note_off_c, 9, 82, 95
9, 148320, Note_off_c, 9, 64, 95
9, 148320, Note_on_c, 9, 82, 95
9, 148320, Note_on_c, 9, 81, 95
9, 148800, Note_off_c, 9, 82, 95
9, 148800, Note_off_c, 9, 81, 95
9, 148800, Note_on_c, 9, 82, 95
9, 148800, Note_on_c, 9, 64, 95
9, 149280, Note_off_c, 9, 82, 95
9, 149280, Note_off_c, 9, 64, 95
9, 149280, Note_on_c, 9, 82, 95
9, 149760, Note_off_c, 9, 82, 95
9, 149760, Note_on_c, 9, 82, 95
9, 149760, Note_on_c, 9, 81, 95
9, 149760, Note_on_c, 9, 63, 95
9, 150240, Note_off_c, 9, 82, 95
9, 150240, Note_off_c, 9, 81, 95
9, 150240, Note_off_c, 9, 63, 95
9, 150240, Note_on_c, 9, 82, 95
9, 150720, Note_off_c, 9, 82, 95
9, 150720, Note_on_c, 9, 82, 95
9, 150720, Note_on_c, 9, 63, 95
9, 151200, Note_off_c, 9, 82, 95
9, 151200, Note_off_c, 9, 63, 95
9, 151200, Note_on_c, 9, 82, 95
9, 151200, Note_on_c, 9, 81, 95
9, 151680, Note_off_c, 9, 82, 95
9, 151680, Note_off_c, 9, 81, 95
9, 151680, Note_on_c, 9, 82, 95
9, 151680, Note_on_c, 9, 63, 95
9, 152160, Note_off_c, 9, 82, 95
9, 152160, Note_off_c, 9, 63, 95
9, 152160, Note_on_c, 9, 82, 95
9, 152640, Note_off_c, 9, 82, 95
9, 152640, Note_on_c, 9, 82, 95
9, 152640, Note_on_c, 9, 81, 95
9, 152640, Note_on_c, 9, 64, 95
9, 153120, Note_off_c, 9, 82, 95
9, 153120, Note_off_c, 9, 81, 95
9, 153120, Note_off_c, 9, 64, 95
9, 153120, Note_on_c, 9, 82, 95
9, 153600, Note_off_c, 9, 82, 95
9, 153600, Note_on_c, 9, 82, 95
9, 153600, Note_on_c, 9, 64, 95
9, 154080, Note_off_c, 9, 82, 95
9, 154080, Note_off_c, 9, 64, 95
9, 154080, Note_on_c, 9, 82, 95
9, 154080, Note_on_c, 9, 81, 95
9, 154560, Note_off_c, 9, 82, 95
9, 154560, Note_off_c, 9, 81, 95
9, 154560, Note_on_c, 9, 82, 95
9, 154560, Note_on_c, 9, 64, 95
9, 155040, Note_off_c, 9, 82, 95
9, 155040, Note_off_c, 9, 64, 95
9, 155040, Note_on_c, 9, 82, 95
9, 155520, Note_off_c, 9, 82, 95
9, 155520, Note_on_c, 9, 82, 95
9, 155520, Note_on_c, 9, 81, 95
9, 155520, Note_on_c, 9, 63, 95
9, 156000, Note_off_c, 9, 82, 95
9, 156000, Note_off_c, 9, 81, 95
9, 156000, Note_off_c, 9, 63, 95
9, 156000, Note_on_c, 9, 82, 95
9, 156480, Note_off_c, 9, 82, 95
9, 156480, Note_on_c, 9, 82, 95
9, 156480, Note_on_c, 9, 63, 95
9, 156960, Note_off_c, 9, 82, 95
9, 156960, Note_off_c, 9, 63, 95
9, 156960, Note_on_c, 9, 82, 95
9, 156960, Note_on_c, 9, 81, 95
9, 157440, Note_off_c, 9, 82, 95
9, 157440, Note_off_c, 9, 81, 95
9, 157440, Note_on_c, 9, 82, 95
9, 157440, Note_on_c, 9, 63, 95
9, 157920, Note_off_c, 9, 82, 95
9, 157920, Note_off_c, 9, 63, 95
9, 157920, Note_on_c, 9, 82, 95
9, 158400, Note_off_c, 9, 82, 95
9, 158400, Note_on_c, 9, 82, 95
9, 158400, Note_on_c, 9, 81, 95
9, 158400, Note_on_c, 9, 64, 95
9, 158880, Note_off_c, 9, 82, 95
9, 158880, Note_off_c, 9, 81, 95
9, 158880, Note_off_c, 9, 64, 95
9, 158880, Note_on_c, 9, 82, 95
9, 159360, Note_off_c, 9, 82, 95
9, 159360, Note_on_c, 9, 82, 95
9, 159360, Note_on_c, 9, 64, 95
9, 159840, Note_off_c, 9, 82, 95
9, 159840, Note_off_c, 9, 64, 95
9, 159840, Note_on_c, 9, 82, 95
9, 159840, Note_on_c, 9, 81, 95
9, 160320, Note_off_c, 9, 82, 95
9, 160320, Note_off_c, 9, 81, 95
9, 160320, Note_on_c, 9, 82, 95
9, 160320, Note_on_c, 9, 64, 95
9, 160800, Note_off_c, 9, 82, 95
9, 160800, Note_off_c, 9, 64, 95
9, 160800, Note_on_c, 9, 82, 95
9, 161280, Note_off_c, 9, 82, 95
9, 161280, Note_on_c, 9, 82, 95
9, 161280, Note_on_c, 9, 81, 95
9, 161280, Note_on_c, 9, 63, 95
9, 161760, Note_off_c, 9, 82, 95
9, 161760, Note_off_c, 9, 81, 95
9, 161760, Note_off_c, 9, 63, 95
9, 161760, Note_on_c, 9, 82, 95
9, 162240, Note_off_c, 9, 82, 95
9, 162240, Note_on_c, 9, 82, 95
9, 162240, Note_on_c, 9, 63, 95
9, 162720, Note_off_c, 9, 82, 95
9, 162720, Note_off_c, 9, 63, 95
9, 162720, Note_on_c, 9, 82, 95
9, 162720, Note_on_c, 9, 81, 95
9, 163200, Note_off_c, 9, 82, 95
9, 163200, Note_off_c, 9, 81, 95
9, 163200, Note_on_c, 9, 82, 95
9, 163200, Note_on_c, 9, 63, 95
9, 163680, Note_off_c, 9, 82, 95
9, 163680, Note_off_c, 9, 63, 95
9, 163680, Note_on_c, 9, 82, 95
9, 164160, Note_off_c, 9, 82, 95
9, 164160, Note_on_c, 9, 82, 95
9, 164160, Note_on_c, 9, 81, 95
9, 164160, Note_on_c, 9, 64, 95
9, 164640, Note_off_c, 9, 82, 95
9, 164640, Note_off_c, 9, 81, 95
9, 164640, Note_off_c, 9, 64, 95
9, 164640, Note_on_c, 9, 82, 95
9, 165120, Note_off_c, 9, 82, 95
9, 165120, Note_on_c, 9, 82, 95
9, 165120, Note_on_c, 9, 64, 95
9, 165600, Note_off_c, 9, 82, 95
9, 165600, Note_off_c, 9, 64, 95
9, 165600, Note_on_c, 9, 82, 95
9, 165600, Note_on_c, 9, 81, 95
9, 166080, Note_off_c, 9, 82, 95
9, 166080, Note_off_c, 9, 81, 95
9, 166080, Note_on_c, 9, 82, 95
9, 166080, Note_on_c, 9, 64, 95
9, 166560, Note_off_c, 9, 82, 95
9, 166560, Note_off_c, 9, 64, 95
9, 166560, Note_on_c, 9, 82, 95
9, 167040, Note_off_c, 9, 82, 95
9, 167040, Note_on_c, 9, 82, 95
9, 167040, Note_on_c, 9, 81, 95
9, 167040, Note_on_c, 9, 63, 95
9, 167520, Note_off_c, 9, 82, 95
9, 167520, Note_off_c, 9, 81, 95
9, 167520, Note_off_c, 9, 63, 95
9, 167520, Note_on_c, 9, 82, 95
9, 168000, Note_off_c, 9, 82, 95
9, 168000, Note_on_c, 9, 82, 95
9, 168000, Note_on_c, 9, 63, 95
9, 168480, Note_off_c, 9, 82, 95
9, 168480, Note_off_c, 9, 63, 95
9, 168480, Note_on_c, 9, 82, 95
9, 168480, Note_on_c, 9, 81, 95
9, 168960, Note_off_c, 9, 82, 95
9, 168960, Note_off_c, 9, 81, 95
9, 168960, Note_on_c, 9, 82, 95
9, 168960, Note_on_c, 9, 63, 95
9, 169440, Note_off_c, 9, 82, 95
9, 169440, Note_off_c, 9, 63, 95
9, 169440, Note_on_c, 9, 82, 95
9, 169920, Note_off_c, 9, 82, 95
9, 169920, Note_on_c, 9, 82, 95
9, 169920, Note_on_c, 9, 81, 95
9, 169920, Note_on_c, 9, 64, 95
9, 170400, Note_off_c, 9, 82, 95
9, 170400, Note_off_c, 9, 81, 95
9, 170400, Note_off_c, 9, 64, 95
9, 170400, Note_on_c, 9, 82, 95
9, 170880, Note_off_c, 9, 82, 95
9, 170880, Note_on_c, 9, 82, 95
9, 170880, Note_on_c, 9, 64, 95
9, 171360, Note_off_c, 9, 82, 95
9, 171360, Note_off_c, 9, 64, 95
9, 171360, Note_on_c, 9, 82, 95
9, 171360, Note_on_c, 9, 81, 95
9, 171840, Note_off_c, 9, 82, 95
9, 171840, Note_off_c, 9, 81, 95
9, 171840, Note_on_c, 9, 82, 95
9, 171840, Note_on_c, 9, 64, 95
9, 172320, Note_off_c, 9, 82, 95
9, 172320, Note_off_c, 9, 64, 95
9, 172320, Note_on_c, 9, 82, 95
9, 172800, Note_off_c, 9, 82, 95
9, 172800, Note_on_c, 9, 82, 95
9, 172800, Note_on_c, 9, 81, 95
9, 172800, Note_on_c, 9, 63, 95
9, 173280, Note_off_c, 9, 82, 95
9, 173280, Note_off_c, 9, 81, 95
9, 173280, Note_off_c, 9, 63, 95
9, 173280, Note_on_c, 9, 82, 95
9, 173760, Note_off_c, 9, 82, 95
9, 173760, Note_on_c, 9, 82, 95
9, 173760, Note_on_c, 9, 63, 95
9, 174240, Note_off_c, 9, 82, 95
9, 174240, Note_off_c, 9, 63, 95
9, 174240, Note_on_c, 9, 82, 95
9, 174240, Note_on_c, 9, 81, 95
9, 174720, Note_off_c, 9, 82, 95
9, 174720, Note_off_c, 9, 81, 95
9, 174720, Note_on_c, 9, 82, 95
9, 174720, Note_on_c, 9, 63, 95
9, 175200, Note_off_c, 9, 82, 95
9, 175200, Note_off_c, 9, 63, 95
9, 175200, Note_on_c, 9, 82, 95
9, 175680, Note_off_c, 9, 82, 95
9, 175680, Note_on_c, 9, 82, 95
9, 175680, Note_on_c, 9, 81, 95
9, 175680, Note_on_c, 9, 64, 95
9, 176160, Note_off_c, 9, 82, 95
9, 176160, Note_off_c, 9, 81, 95
9, 176160, Note_off_c, 9, 64, 95
9, 176160, Note_on_c, 9, 82, 95
9, 176640, Note_off_c, 9, 82, 95
9, 176640, Note_on_c, 9, 82, 95
9, 176640, Note_on_c, 9, 64, 95
9, 177120, Note_off_c, 9, 82, 95
9, 177120, Note_off_c, 9, 64, 95
9, 177120, Note_on_c, 9, 82, 95
9, 177120, Note_on_c, 9, 81, 95
9, 177600, Note_off_c, 9, 82, 95
9, 177600, Note_off_c, 9, 81, 95
9, 177600, Note_on_c, 9, 82, 95
9, 177600, Note_on_c, 9, 64, 95
9, 178080, Note_off_c, 9, 82, 95
9, 178080, Note_off_c, 9, 64, 95
9, 178080, Note_on_c, 9, 82, 95
9, 178560, Note_off_c, 9, 82, 95
9, 178560, Note_on_c, 9, 82, 95
9, 178560, Note_on_c, 9, 81, 95
9, 178560, Note_on_c, 9, 63, 95
9, 179040, Note_off_c, 9, 82, 95
9, 179040, Note_off_c, 9, 81, 95
9, 179040, Note_off_c, 9, 63, 95
9, 179040, Note_on_c, 9, 82, 95
9, 179520, Note_off_c, 9, 82, 95
9, 179520, Note_on_c, 9, 82, 95
9, 179520, Note_on_c, 9, 63, 95
9, 180000, Note_off_c, 9, 82, 95
9, 180000, Note_off_c, 9, 63, 95
9, 180000, Note_on_c, 9, 82, 95
9, 180000, Note_on_c, 9, 81, 95
9, 180480, Note_off_c, 9, 82, 95
9, 180480, Note_off_c, 9, 81, 95
9, 180480, Note_on_c, 9, 82, 95
9, 180480, Note_on_c, 9, 63, 95
9, 180960, Note_off_c, 9, 82, 95
9, 180960, Note_off_c, 9, 63, 95
9, 180960, Note_on_c, 9, 82, 95
9, 181440, Note_off_c, 9, 82, 95
9, 181440, Note_on_c, 9, 82, 95
9, 181440, Note_on_c, 9, 81, 95
9, 181440, Note_on_c, 9, 64, 95
9, 181920, Note_off_c, 9, 82, 95
9, 181920, Note_off_c, 9, 81, 95
9, 181920, Note_off_c, 9, 64, 95
9, 181920, Note_on_c, 9, 82, 95
9, 182400, Note_off_c, 9, 82, 95
9, 182400, Note_on_c, 9, 82, 95
9, 182400, Note_on_c, 9, 64, 95
9, 182880, Note_off_c, 9, 82, 95
9, 182880, Note_off_c, 9, 64, 95
9, 182880, Note_on_c, 9, 82, 95
9, 182880, Note_on_c, 9, 81, 95
9, 183360, Note_off_c, 9, 82, 95
9, 183360, Note_off_c, 9, 81, 95
9, 183360, Note_on_c, 9, 82, 95
9, 183360, Note_on_c, 9, 64, 95
9, 183840, Note_off_c, 9, 82, 95
9, 183840, Note_off_c, 9, 64, 95
9, 183840, Note_on_c, 9, 82, 95
9, 184320, Note_off_c, 9, 82, 95
9, 184320, Note_on_c, 9, 82, 95
9, 184320, Note_on_c, 9, 81, 95
9, 184320, Note_on_c, 9, 63, 95
9, 184800, Note_off_c, 9, 82, 95
9, 184800, Note_off_c, 9, 81, 95
9, 184800, Note_off_c, 9, 63, 95
9, 184800, Note_on_c, 9, 82, 95
9, 185280, Note_off_c, 9, 82, 95
9, 185280, Note_on_c, 9, 82, 95
9, 185280, Note_on_c, 9, 63, 95
9, 185760, Note_off_c, 9, 82, 95
9, 185760, Note_off_c, 9, 63, 95
9, 185760, Note_on_c, 9, 82, 95
9, 185760, Note_on_c, 9, 81, 95
9, 186240, Note_off_c, 9, 82, 95
9, 186240, Note_off_c, 9, 81, 95
9, 186240, Note_on_c, 9, 82, 95
9, 186240, Note_on_c, 9, 63, 95
9, 186720, Note_off_c, 9, 82, 95
9, 186720, Note_off_c, 9, 63, 95
9, 186720, Note_on_c, 9, 82, 95
9, 187200, Note_off_c, 9, 82, 95
9, 187200, Note_on_c, 9, 82, 95
9, 187200, Note_on_c, 9, 81, 95
9, 187200, Note_on_c, 9, 64, 95
9, 187680, Note_off_c, 9, 82, 95
9, 187680, Note_off_c, 9, 81, 95
9, 187680, Note_off_c, 9, 64, 95
9, 187680, Note_on_c, 9, 82, 95
9, 188160, Note_off_c, 9, 82, 95
9, 188160, Note_on_c, 9, 82, 95
9, 188160, Note_on_c, 9, 64, 95
9, 188640, Note_off_c, 9, 82, 95
9, 188640, Note_off_c, 9, 64, 95
9, 188640, Note_on_c, 9, 82, 95
9, 188640, Note_on_c, 9, 81, 95
9, 189120, Note_off_c, 9, 82, 95
9, 189120, Note_off_c, 9, 81, 95
9, 189120, Note_on_c, 9, 82, 95
9, 189120, Note_on_c, 9, 64, 95
9, 189600, Note_off_c, 9, 82, 95
9, 189600, Note_off_c, 9, 64, 95
9, 189600, Note_on_c, 9, 82, 95
9, 190080, Note_off_c, 9, 82, 95
9, 190080, Note_on_c, 9, 82, 95
9, 190080, Note_on_c, 9, 81, 95
9, 190080, Note_on_c, 9, 63, 95
9, 190560, Note_off_c, 9, 82, 95
9, 190560, Note_off_c, 9, 81, 95
9, 190560, Note_off_c, 9, 63, 95
9, 190560, Note_on_c, 9, 82, 95
9, 191040, Note_off_c, 9, 82, 95
9, 191040, Note_on_c, 9, 82, 95
9, 191040, Note_on_c, 9, 63, 95
9, 191520, Note_off_c, 9, 82, 95
9, 191520, Note_off_c, 9, 63, 95
9, 191520, Note_on_c, 9, 82, 95
9, 191520, Note_on_c, 9, 81, 95
9, 192000, Note_off_c, 9, 82, 95
9, 192000, Note_off_c, 9, 81, 95
9, 192000, Note_on_c, 9, 82, 95
9, 192000, Note_on_c, 9, 63, 95
9, 192480, Note_off_c, 9, 82, 95
9, 192480, Note_off_c, 9, 63, 95
9, 192480, Note_on_c, 9, 82, 95
9, 192960, Note_off_c, 9, 82, 95
9, 192960, Note_on_c, 9, 82, 95
9, 192960, Note_on_c, 9, 81, 95
9, 192960, Note_on_c, 9, 64, 95
9, 193440, Note_off_c, 9, 82, 95
9, 193440, Note_off_c, 9, 81, 95
9, 193440, Note_off_c, 9, 64, 95
9, 193440, Note_on_c, 9, 82, 95
9, 193920, Note_off_c, 9, 82, 95
9, 193920, Note_on_c, 9, 82, 95
9, 193920, Note_on_c, 9, 64, 95
9, 194400, Note_off_c, 9, 82, 95
9, 194400, Note_off_c, 9, 64, 95
9, 194400, Note_on_c, 9, 82, 95
9, 194400, Note_on_c, 9, 81, 95
9, 194880, Note_off_c, 9, 82, 95
9, 194880, Note_off_c, 9, 81, 95
9, 194880, Note_on_c, 9, 82, 95
9, 194880, Note_on_c, 9, 64, 95
9, 195360, Note_off_c, 9, 82, 95
9, 195360, Note_off_c, 9, 64, 95
9, 195360, Note_on_c, 9, 82, 95
9, 195840, Note_off_c, 9, 82, 95
9, 195840, Note_on_c, 9, 82, 95
9, 195840, Note_on_c, 9, 81, 95
9, 195840, Note_on_c, 9, 63, 95
9, 196320, Note_off_c, 9, 82, 95
9, 196320, Note_off_c, 9, 81, 95
9, 196320, Note_off_c, 9, 63, 95
9, 196320, Note_on_c, 9, 82, 95
9, 196800, Note_off_c, 9, 82, 95
9, 196800, Note_on_c, 9, 82, 95
9, 196800, Note_on_c, 9, 63, 95
9, 197280, Note_off_c, 9, 82, 95
9, 197280, Note_off_c, 9, 63, 95
9, 197280, Note_on_c, 9, 82, 95
9, 197280, Note_on_c, 9, 81, 95
9, 197760, Note_off_c, 9, 82, 95
9, 197760, Note_off_c, 9, 81, 95
9, 197760, Note_on_c, 9, 82, 95
9, 197760, Note_on_c, 9, 63, 95
9, 198240, Note_off_c, 9, 82, 95
9, 198240, Note_off_c, 9, 63, 95
9, 198240, Note_on_c, 9, 82, 95
9, 198720, Note_off_c, 9, 82, 95
9, 198720, Note_on_c, 9, 82, 95
9, 198720, Note_on_c, 9, 81, 95
9, 198720, Note_on_c, 9, 64, 95
9, 199200, Note_off_c, 9, 82, 95
9, 199200, Note_off_c, 9, 81, 95
9, 199200, Note_off_c, 9, 64, 95
9, 199200, Note_on_c, 9, 82, 95
9, 199680, Note_off_c, 9, 82, 95
9, 199680, Note_on_c, 9, 82, 95
9, 199680, Note_on_c, 9, 64, 95
9, 200160, Note_off_c, 9, 82, 95
9, 200160, Note_off_c, 9, 64, 95
9, 200160, Note_on_c, 9, 82, 95
9, 200160, Note_on_c, 9, 81, 95
9, 200640, Note_off_c, 9, 82, 95
9, 200640, Note_off_c, 9, 81, 95
9, 200640, Note_on_c, 9, 82, 95
9, 200640, Note_on_c, 9, 64, 95
9, 201120, Note_off_c, 9, 82, 95
9, 201120, Note_off_c, 9, 64, 95
9, 201120, Note_on_c, 9, 82, 95
9, 201600, Note_off_c, 9, 82, 95
9, 201600, Note_on_c, 9, 82, 95
9, 201600, Note_on_c, 9, 81, 95
9, 201600, Note_on_c, 9, 63, 95
9, 202080, Note_off_c, 9, 82, 95
9, 202080, Note_off_c, 9, 81, 95
9, 202080, Note_off_c, 9, 63, 95
9, 202080, Note_on_c, 9, 82, 95
9, 202560, Note_off_c, 9, 82, 95
9, 202560, Note_on_c, 9, 82, 95
9, 202560, Note_on_c, 9, 63, 95
9, 203040, Note_off_c, 9, 82, 95
9, 203040, Note_off_c, 9, 63, 95
9, 203040, Note_on_c, 9, 82, 95
9, 203040, Note_on_c, 9, 81, 95
9, 203520, Note_off_c, 9, 82, 95
9, 203520, Note_off_c, 9, 81, 95
9, 203520, Note_on_c, 9, 82, 95
9, 203520, Note_on_c, 9, 63, 95
9, 204000, Note_off_c, 9, 82, 95
9, 204000, Note_off_c, 9, 63, 95
9, 204000, Note_on_c, 9, 82, 95
9, 204480, Note_off_c, 9, 82, 95
9, 204480, Note_on_c, 9, 82, 95
9, 204480, Note_on_c, 9, 81, 95
9, 204480, Note_on_c, 9, 64, 95
9, 204960, Note_off_c, 9, 82, 95
9, 204960, Note_off_c, 9, 81, 95
9, 204960, Note_off_c, 9, 64, 95
9, 204960, Note_on_c, 9, 82, 95
9, 205440, Note_off_c, 9, 82, 95
9, 205440, Note_on_c, 9, 82, 95
9, 205440, Note_on_c, 9, 64, 95
9, 205920, Note_off_c, 9, 82, 95
9, 205920, Note_off_c, 9, 64, 95
9, 205920, Note_on_c, 9, 82, 95
9, 205920, Note_on_c, 9, 81, 95
9, 206400, Note_off_c, 9, 82, 95
9, 206400, Note_off_c, 9, 81, 95
9, 206400, Note_on_c, 9, 82, 95
9, 206400, Note_on_c, 9, 64, 95
9, 206880, Note_off_c, 9, 82, 95
9, 206880, Note_off_c, 9, 64, 95
9, 206880, Note_on_c, 9, 82, 95
9, 207360, Note_off_c, 9, 82, 95
9, 207360, Note_on_c, 9, 82, 95
9, 207360, Note_on_c, 9, 81, 95
9, 207360, Note_on_c, 9, 63, 95
9, 207840, Note_off_c, 9, 82, 95
9, 207840, Note_off_c, 9, 81, 95
9, 207840, Note_off_c, 9, 63, 95
9, 207840, Note_on_c, 9, 82, 95
9, 208320, Note_off_c, 9, 82, 95
9, 208320, Note_on_c, 9, 82, 95
9, 208320, Note_on_c, 9, 63, 95
9, 208800, Note_off_c, 9, 82, 95
9, 208800, Note_off_c, 9, 63, 95
9, 208800, Note_on_c, 9, 82, 95
9, 208800, Note_on_c, 9, 81, 95
9, 209280, Note_off_c, 9, 82, 95
9, 209280, Note_off_c, 9, 81, 95
9, 209280, Note_on_c, 9, 82, 95
9, 209280, Note_on_c, 9, 63, 95
9, 209760, Note_off_c, 9, 82, 95
9, 209760, Note_off_c, 9, 63, 95
9, 209760, Note_on_c, 9, 82, 95
9, 210240, Note_off_c, 9, 82, 95
9, 210240, Note_on_c, 9, 82, 95
9, 210240, Note_on_c, 9, 81, 95
9, 210240, Note_on_c, 9, 64, 95
9, 210720, Note_off_c, 9, 82, 95
9, 210720, Note_off_c, 9, 81, 95
9, 210720, Note_off_c, 9, 64, 95
9, 210720, Note_on_c, 9, 82, 95
9, 211200, Note_off_c, 9, 82, 95
9, 211200, Note_on_c, 9, 82, 95
9, 211200, Note_on_c, 9, 64, 95
9, 211680, Note_off_c, 9, 82, 95
9, 211680, Note_off_c, 9, 64, 95
9, 211680, Note_on_c, 9, 82, 95
9, 211680, Note_on_c, 9, 81, 95
9, 212160, Note_off_c, 9, 82, 95
9, 212160, Note_off_c, 9, 81, 95
9, 212160, Note_on_c, 9, 82, 95
9, 212160, Note_on_c, 9, 64, 95
9, 212640, Note_off_c, 9, 82, 95
9, 212640, Note_off_c, 9, 64, 95
9, 212640, Note_on_c, 9, 82, 95
9, 213120, Note_off_c, 9, 82, 95
9, 213120, Note_on_c, 9, 82, 95
9, 213120, Note_on_c, 9, 81, 95
9, 213120, Note_on_c, 9, 63, 95
9, 213600, Note_off_c, 9, 82, 95
9, 213600, Note_off_c, 9, 81, 95
9, 213600, Note_off_c, 9, 63, 95
9, 213600, Note_on_c, 9, 82, 95
9, 214080, Note_off_c, 9, 82, 95
9, 214080, Note_on_c, 9, 82, 95
9, 214080, Note_on_c, 9, 63, 95
9, 214560, Note_off_c, 9, 82, 95
9, 214560, Note_off_c, 9, 63, 95
9, 214560, Note_on_c, 9, 82, 95
9, 214560, Note_on_c, 9, 81, 95
9, 215040, Note_off_c, 9, 82, 95
9, 215040, Note_off_c, 9, 81, 95
9, 215040, Note_on_c, 9, 82, 95
9, 215040, Note_on_c, 9, 63, 95
9, 215520, Note_off_c, 9, 82, 95
9, 215520, Note_off_c, 9, 63, 95
9, 215520, Note_on_c, 9, 82, 95
9, 216000, Note_off_c, 9, 82, 95
9, 216000, Note_on_c, 9, 82, 95
9, 216000, Note_on_c, 9, 81, 95
9, 216000, Note_on_c, 9, 64, 95
9, 216480, Note_off_c, 9, 82, 95
9, 216480, Note_off_c, 9, 81, 95
9, 216480, Note_off_c, 9, 64, 95
9, 216480, Note_on_c, 9, 82, 95
9, 216960, Note_off_c, 9, 82, 95
9, 216960, Note_on_c, 9, 82, 95
9, 216960, Note_on_c, 9, 64, 95
9, 217440, Note_off_c, 9, 82, 95
9, 217440, Note_off_c, 9, 64, 95
9, 217440, Note_on_c, 9, 82, 95
9, 217440, Note_on_c, 9, 81, 95
9, 217920, Note_off_c, 9, 82, 95
9, 217920, Note_off_c, 9, 81, 95
9, 217920, Note_on_c, 9, 82, 95
9, 217920, Note_on_c, 9, 64, 95
9, 218400, Note_off_c, 9, 82, 95
9, 218400, Note_off_c, 9, 64, 95
9, 218400, Note_on_c, 9, 82, 95
9, 218880, Note_off_c, 9, 82, 95
9, 218880, Note_on_c, 9, 82, 95
9, 218880, Note_on_c, 9, 81, 95
9, 218880, Note_on_c, 9, 63, 95
9, 219360, Note_off_c, 9, 82, 95
9, 219360, Note_off_c, 9, 81, 95
9, 219360, Note_off_c, 9, 63, 95
9, 219360, Note_on_c, 9, 82, 95
9, 219840, Note_off_c, 9, 82, 95
9, 219840, Note_on_c, 9, 82, 95
9, 219840, Note_on_c, 9, 63, 95
9, 220320, Note_off_c, 9, 82, 95
9, 220320, Note_off_c, 9, 63, 95
9, 220320, Note_on_c, 9, 82, 95
9, 220320, Note_on_c, 9, 81, 95
9, 220800, Note_off_c, 9, 82, 95
9, 220800, Note_off_c, 9, 81, 95
9, 220800, Note_on_c, 9, 82, 95
9, 220800, Note_on_c, 9, 63, 95
9, 221280, Note_off_c, 9, 82, 95
9, 221280, Note_off_c, 9, 63, 95
9, 221280, Note_on_c, 9, 82, 95
9, 221760, Note_off_c, 9, 82, 95
9, 221760, Note_on_c, 9, 82, 95
9, 221760, Note_on_c, 9, 81, 95
9, 221760, Note_on_c, 9, 64, 95
9, 222240, Note_off_c, 9, 82, 95
9, 222240, Note_off_c, 9, 81, 95
9, 222240, Note_off_c, 9, 64, 95
9, 222240, Note_on_c, 9, 82, 95
9, 222720, Note_off_c, 9, 82, 95
9, 222720, Note_on_c, 9, 82, 95
9, 222720, Note_on_c, 9, 64, 95
9, 223200, Note_off_c, 9, 82, 95
9, 223200, Note_off_c, 9, 64, 95
9, 223200, Note_on_c, 9, 82, 95
9, 223200, Note_on_c, 9, 81, 95
9, 223680, Note_off_c, 9, 82, 95
9, 223680, Note_off_c, 9, 81, 95
9, 223680, Note_on_c, 9, 82, 95
9, 223680, Note_on_c, 9, 64, 95
9, 224160, Note_off_c, 9, 82, 95
9, 224160, Note_off_c, 9, 64, 95
9, 224160, Note_on_c, 9, 82, 95
9, 224640, Note_off_c, 9, 82, 95
9, 224640, Note_on_c, 9, 82, 95
9, 224640, Note_on_c, 9, 81, 95
9, 224640, Note_on_c, 9, 63, 95
9, 225120, Note_off_c, 9, 82, 95
9, 225120, Note_off_c, 9, 81, 95
9, 225120, Note_off_c, 9, 63, 95
9, 225120, Note_on_c, 9, 82, 95
9, 225600, Note_off_c, 9, 82, 95
9, 225600, Note_on_c, 9, 82, 95
9, 225600, Note_on_c, 9, 63, 95
9, 226080, Note_off_c, 9, 82, 95
9, 226080, Note_off_c, 9, 63, 95
9, 226080, Note_on_c, 9, 82, 95
9, 226080, Note_on_c, 9, 81, 95
9, 226560, Note_off_c, 9, 82, 95
9, 226560, Note_off_c, 9, 81, 95
9, 226560, Note_on_c, 9, 82, 95
9, 226560, Note_on_c, 9, 63, 95
9, 227040, Note_off_c, 9, 82, 95
9, 227040, Note_off_c, 9, 63, 95
9, 227040, Note_on_c, 9, 82, 95
9, 227520, Note_off_c, 9, 82, 95
9, 227520, Note_on_c, 9, 82, 95
9, 227520, Note_on_c, 9, 81, 95
9, 227520, Note_on_c, 9, 64, 95
9, 228000, Note_off_c, 9, 82, 95
9, 228000, Note_off_c, 9, 81, 95
9, 228000, Note_off_c, 9, 64, 95
9, 228000, Note_on_c, 9, 82, 95
9, 228480, Note_off_c, 9, 82, 95
9, 228480, Note_on_c, 9, 82, 95
9, 228480, Note_on_c, 9, 64, 95
9, 228960, Note_off_c, 9, 82, 95
9, 228960, Note_off_c, 9, 64, 95
9, 228960, Note_on_c, 9, 82, 95
9, 228960, Note_on_c, 9, 81, 95
9, 229440, Note_off_c, 9, 82, 95
9, 229440, Note_off_c, 9, 81, 95
9, 229440, Note_on_c, 9, 82, 95
9, 229440, Note_on_c, 9, 64, 95
9, 229920, Note_off_c, 9, 82, 95
9, 229920, Note_off_c, 9, 64, 95
9, 229920, Note_on_c, 9, 82, 95
9, 230400, Note_off_c, 9, 82, 95
9, 230400, Note_on_c, 9, 82, 95
9, 230400, Note_on_c, 9, 81, 95
9, 230400, Note_on_c, 9, 63, 95
9, 230880, Note_off_c, 9, 82, 95
9, 230880, Note_off_c, 9, 81, 95
9, 230880, Note_off_c, 9, 63, 95
9, 230880, Note_on_c, 9, 82, 95
9, 231360, Note_off_c, 9, 82, 95
9, 231360, Note_on_c, 9, 82, 95
9, 231360, Note_on_c, 9, 63, 95
9, 231840, Note_off_c, 9, 82, 95
9, 231840, Note_off_c, 9, 63, 95
9, 231840, Note_on_c, 9, 82, 95
9, 231840, Note_on_c, 9, 81, 95
9, 232320, Note_off_c, 9, 82, 95
9, 232320, Note_off_c, 9, 81, 95
9, 232320, Note_on_c, 9, 82, 95
9, 232320, Note_on_c, 9, 63, 95
9, 232800, Note_off_c, 9, 82, 95
9, 232800, Note_off_c, 9, 63, 95
9, 232800, Note_on_c, 9, 82, 95
9, 233280, Note_off_c, 9, 82, 95
9, 233280, Note_on_c, 9, 82, 95
9, 233280, Note_on_c, 9, 81, 95
9, 233280, Note_on_c, 9, 64, 95
9, 233760, Note_off_c, 9, 82, 95
9, 233760, Note_off_c, 9, 81, 95
9, 233760, Note_off_c, 9, 64, 95
9, 233760, Note_on_c, 9, 82, 95
9, 234240, Note_off_c, 9, 82, 95
9, 234240, Note_on_c, 9, 82, 95
9, 234240, Note_on_c, 9, 64, 95
9, 234720, Note_off_c, 9, 82, 95
9, 234720, Note_off_c, 9, 64, 95
9, 234720, Note_on_c, 9, 82, 95
9, 234720, Note_on_c, 9, 81, 95
9, 235200, Note_off_c, 9, 82, 95
9, 235200, Note_off_c, 9, 81, 95
9, 235200, Note_on_c, 9, 82, 95
9, 235200, Note_on_c, 9, 64, 95
9, 235680, Note_off_c, 9, 82, 95
9, 235680, Note_off_c, 9, 64, 95
9, 235680, Note_on_c, 9, 82, 95
9, 236160, Note_off_c, 9, 82, 95
9, 236160, Note_on_c, 9, 82, 95
9, 236160, Note_on_c, 9, 81, 95
9, 236160, Note_on_c, 9, 63, 95
9, 236640, Note_off_c, 9, 82, 95
9, 236640, Note_off_c, 9, 81, 95
9, 236640, Note_off_c, 9, 63, 95
9, 236640, Note_on_c, 9, 82, 95
9, 237120, Note_off_c, 9, 82, 95
9, 237120, Note_on_c, 9, 82, 95
9, 237120, Note_on_c, 9, 63, 95
9, 237600, Note_off_c, 9, 82, 95
9, 237600, Note_off_c, 9, 63, 95
9, 237600, Note_on_c, 9, 82, 95
9, 237600, Note_on_c, 9, 81, 95
9, 238080, Note_off_c, 9, 82, 95
9, 238080, Note_off_c, 9, 81, 95
9, 238080, Note_on_c, 9, 82, 95
9, 238080, Note_on_c, 9, 63, 95
9, 238560, Note_off_c, 9, 82, 95
9, 238560, Note_off_c, 9, 63, 95
9, 238560, Note_on_c, 9, 82, 95
9, 239040, Note_off_c, 9, 82, 95
9, 239040, Note_on_c, 9, 82, 95
9, 239040, Note_on_c, 9, 81, 95
9, 239040, Note_on_c, 9, 64, 95
9, 239520, Note_off_c, 9, 82, 95
9, 239520, Note_off_c, 9, 81, 95
9, 239520, Note_off_c, 9, 64, 95
9, 239520, Note_on_c, 9, 82, 95
9, 240000, Note_off_c, 9, 82, 95
9, 240000, Note_on_c, 9, 82, 95
9, 240000, Note_on_c, 9, 64, 95
9, 240480, Note_off_c, 9, 82, 95
9, 240480, Note_off_c, 9, 64, 95
9, 240480, Note_on_c, 9, 82, 95
9, 240480, Note_on_c, 9, 81, 95
9, 240960, Note_off_c, 9, 82, 95
9, 240960, Note_off_c, 9, 81, 95
9, 240960, Note_on_c, 9, 82, 95
9, 240960, Note_on_c, 9, 64, 95
9, 241440, Note_off_c, 9, 82, 95
9, 241440, Note_off_c, 9, 64, 95
9, 241440, Note_on_c, 9, 82, 95
9, 241920, Note_off_c, 9, 82, 95
9, 241920, Note_on_c, 9, 82, 95
9, 241920, Note_on_c, 9, 81, 95
9, 241920, Note_on_c, 9, 63, 95
9, 242400, Note_off_c, 9, 82, 95
9, 242400, Note_off_c, 9, 81, 95
9, 242400, Note_off_c, 9, 63, 95
9, 242400, Note_on_c, 9, 82, 95
9, 242880, Note_off_c, 9, 82, 95
9, 242880, Note_on_c, 9, 82, 95
9, 242880, Note_on_c, 9, 63, 95
9, 243360, Note_off_c, 9, 82, 95
9, 243360, Note_off_c, 9, 63, 95
9, 243360, Note_on_c, 9, 82, 95
9, 243360, Note_on_c, 9, 81, 95
9, 243840, Note_off_c, 9, 82, 95
9, 243840, Note_off_c, 9, 81, 95
9, 243840, Note_on_c, 9, 82, 95
9, 243840, Note_on_c, 9, 63, 95
9, 244320, Note_off_c, 9, 82, 95
9, 244320, Note_off_c, 9, 63, 95
9, 244320, Note_on_c, 9, 82, 95
9, 244800, Note_off_c, 9, 82, 95
9, 244800, Note_on_c, 9, 82, 95
9, 244800, Note_on_c, 9, 81, 95
9, 244800, Note_on_c, 9, 64, 95
9, 245280, Note_off_c, 9, 82, 95
9, 245280, Note_off_c, 9, 81, 95
9, 245280, Note_off_c, 9, 64, 95
9, 245280, Note_on_c, 9, 82, 95
9, 245760, Note_off_c, 9, 82, 95
9, 245760, Note_on_c, 9, 82, 95
9, 245760, Note_on_c, 9, 64, 95
9, 246240, Note_off_c, 9, 82, 95
9, 246240, Note_off_c, 9, 64, 95
9, 246240, Note_on_c, 9, 82, 95
9, 246240, Note_on_c, 9, 81, 95
9, 246720, Note_off_c, 9, 82, 95
9, 246720, Note_off_c, 9, 81, 95
9, 246720, Note_on_c, 9, 82, 95
9, 246720, Note_on_c, 9, 64, 95
9, 247200, Note_off_c, 9, 82, 95
9, 247200, Note_off_c, 9, 64, 95
9, 247200, Note_on_c, 9, 82, 95
9, 247680, Note_off_c, 9, 82, 95
9, 247680, Note_on_c, 9, 82, 95
9, 247680, Note_on_c, 9, 81, 95
9, 247680, Note_on_c, 9, 63, 95
9, 248160, Note_off_c, 9, 82, 95
9, 248160, Note_off_c, 9, 81, 95
9, 248160, Note_off_c, 9, 63, 95
9, 248160, Note_on_c, 9, 82, 95
9, 248640, Note_off_c, 9, 82, 95
9, 248640, Note_on_c, 9, 82, 95
9, 248640, Note_on_c, 9, 63, 95
9, 249120, Note_off_c, 9, 82, 95
9, 249120, Note_off_c, 9, 63, 95
9, 249120, Note_on_c, 9, 82, 95
9, 249120, Note_on_c, 9, 81, 95
9, 249600, Note_off_c, 9, 82, 95
9, 249600, Note_off_c, 9, 81, 95
9, 249600, Note_on_c, 9, 82, 95
9, 249600, Note_on_c, 9, 63, 95
9, 250080, Note_off_c, 9, 82, 95
9, 250080, Note_off_c, 9, 63, 95
9, 250080, Note_on_c, 9, 82, 95
9, 250560, Note_off_c, 9, 82, 95
9, 250560, Note_on_c, 9, 82, 95
9, 250560, Note_on_c, 9, 81, 95
9, 250560, Note_on_c, 9, 64, 95
9, 251040, Note_off_c, 9, 82, 95
9, 251040, Note_off_c, 9, 81, 95
9, 251040, Note_off_c, 9, 64, 95
9, 251040, Note_on_c, 9, 82, 95
9, 251520, Note_off_c, 9, 82, 95
9, 251520, Note_on_c, 9, 82, 95
9, 251520, Note_on_c, 9, 64, 95
9, 252000, Note_off_c, 9, 82, 95
9, 252000, Note_off_c, 9, 64, 95
9, 252000, Note_on_c, 9, 82, 95
9, 252000, Note_on_c, 9, 81, 95
9, 252480, Note_off_c, 9, 82, 95
9, 252480, Note_off_c, 9, 81, 95
9, 252480, Note_on_c, 9, 82, 95
9, 252480, Note_on_c, 9, 64, 95
9, 252960, Note_off_c, 9, 82, 95
9, 252960, Note_off_c, 9, 64, 95
9, 252960, Note_on_c, 9, 82, 95
9, 253440, Note_off_c, 9, 82, 95
9, 253440, Note_on_c, 9, 82, 95
9, 253440, Note_on_c, 9, 81, 95
9, 253440, Note_on_c, 9, 63, 95
9, 253920, Note_off_c, 9, 82, 95
9, 253920, Note_off_c, 9, 81, 95
9, 253920, Note_off_c, 9, 63, 95
9, 253920, Note_on_c, 9, 82, 95
9, 254400, Note_off_c, 9, 82, 95
9, 254400, Note_on_c, 9, 82, 95
9, 254400, Note_on_c, 9, 63, 95
9, 254880, Note_off_c, 9, 82, 95
9, 254880, Note_off_c, 9, 63, 95
9, 254880, Note_on_c, 9, 82, 95
9, 254880, Note_on_c, 9, 81, 95
9, 255360, Note_off_c, 9, 82, 95
9, 255360, Note_off_c, 9, 81, 95
9, 255360, Note_on_c, 9, 82, 95
9, 255360, Note_on_c, 9, 63, 95
9, 255840, Note_off_c, 9, 82, 95
9, 255840, Note_off_c, 9, 63, 95
9, 255840, Note_on_c, 9, 82, 95
9, 256320, Note_off_c, 9, 82, 95
9, 256320, Note_on_c, 9, 82, 95
9, 256320, Note_on_c, 9, 81, 95
9, 256320, Note_on_c, 9, 64, 95
9, 256800, Note_off_c, 9, 82, 95
9, 256800, Note_off_c, 9, 81, 95
9, 256800, Note_off_c, 9, 64, 95
9, 256800, Note_on_c, 9, 82, 95
9, 257280, Note_off_c, 9, 82, 95
9, 257280, Note_on_c, 9, 82, 95
9, 257280, Note_on_c, 9, 64, 95
9, 257760, Note_off_c, 9, 82, 95
9, 257760, Note_off_c, 9, 64, 95
9, 257760, Note_on_c, 9, 82, 95
9, 257760, Note_on_c, 9, 81, 95
9, 258240, Note_off_c, 9, 82, 95
9, 258240, Note_off_c, 9, 81, 95
9, 258240, Note_on_c, 9, 82, 95
9, 258240, Note_on_c, 9, 64, 95
9, 258720, Note_off_c, 9, 82, 95
9, 258720, Note_off_c, 9, 64, 95
9, 258720, Note_on_c, 9, 82, 95
9, 259200, Note_off_c, 9, 82, 95
9, 259200, Note_on_c, 9, 82, 95
9, 259200, Note_on_c, 9, 81, 95
9, 259200, Note_on_c, 9, 63, 95
9, 259680, Note_off_c, 9, 82, 95
9, 259680, Note_off_c, 9, 81, 95
9, 259680, Note_off_c, 9, 63, 95
9, 259680, Note_on_c, 9, 82, 95
9, 260160, Note_off_c, 9, 82, 95
9, 260160, Note_on_c, 9, 82, 95
9, 260160, Note_on_c, 9, 63, 95
9, 260640, Note_off_c, 9, 82, 95
9, 260640, Note_off_c, 9, 63, 95
9, 260640, Note_on_c, 9, 82, 95
9, 260640, Note_on_c, 9, 81, 95
9, 261120, Note_off_c, 9, 82, 95
9, 261120, Note_off_c, 9, 81, 95
9, 261120, Note_on_c, 9, 82, 95
9, 261120, Note_on_c, 9, 63, 95
9, 261600, Note_off_c, 9, 82, 95
9, 261600, Note_off_c, 9, 63, 95
9, 261600, Note_on_c, 9, 82, 95
9, 262080, Note_off_c, 9, 82, 95
9, 262080, Note_on_c, 9, 82, 95
9, 262080, Note_on_c, 9, 81, 95
9, 262080, Note_on_c, 9, 64, 95
9, 262560, Note_off_c, 9, 82, 95
9, 262560, Note_off_c, 9, 81, 95
9, 262560, Note_off_c, 9, 64, 95
9, 262560, Note_on_c, 9, 82, 95
9, 263040, Note_off_c, 9, 82, 95
9, 263040, Note_on_c, 9, 82, 95
9, 263040, Note_on_c, 9, 64, 95
9, 263520, Note_off_c, 9, 82, 95
9, 263520, Note_off_c, 9, 64, 95
9, 263520, Note_on_c, 9, 82, 95
9, 263520, Note_on_c, 9, 81, 95
9, 264000, Note_off_c, 9, 82, 95
9, 264000, Note_off_c, 9, 81, 95
9, 264000, Note_on_c, 9, 82, 95
9, 264000, Note_on_c, 9, 64, 95
9, 264480, Note_off_c, 9, 82, 95
9, 264480, Note_off_c, 9, 64, 95
9, 264480, Note_on_c, 9, 82, 95
9, 264960, Note_off_c, 9, 82, 95
9, 264960, Note_on_c, 9, 82, 95
9, 264960, Note_on_c, 9, 81, 95
9, 264960, Note_on_c, 9, 63, 95
9, 265440, Note_off_c, 9, 82, 95
9, 265440, Note_off_c, 9, 81, 95
9, 265440, Note_off_c, 9, 63, 95
9, 265440, Note_on_c, 9, 82, 95
9, 265920, Note_off_c, 9, 82, 95
9, 265920, Note_on_c, 9, 82, 95
9, 265920, Note_on_c, 9, 63, 95
9, 266400, Note_off_c, 9, 82, 95
9, 266400, Note_off_c, 9, 63, 95
9, 266400, Note_on_c, 9, 82, 95
9, 266400, Note_on_c, 9, 81, 95
9, 266880, Note_off_c, 9, 82, 95
9, 266880, Note_off_c, 9, 81, 95
9, 266880, Note_on_c, 9, 82, 95
9, 266880, Note_on_c, 9, 63, 95
9, 267360, Note_off_c, 9, 82, 95
9, 267360, Note_off_c, 9, 63, 95
9, 267360, Note_on_c, 9, 82, 95
9, 267840, Note_off_c, 9, 82, 95
9, 267840, Note_on_c, 9, 82, 95
9, 267840, Note_on_c, 9, 81, 95
9, 267840, Note_on_c, 9, 64, 95
9, 268320, Note_off_c, 9, 82, 95
9, 268320, Note_off_c, 9, 81, 95
9, 268320, Note_off_c, 9, 64, 95
9, 268320, Note_on_c, 9, 82, 95
9, 268800, Note_off_c, 9, 82, 95
9, 268800, Note_on_c, 9, 82, 95
9, 268800, Note_on_c, 9, 64, 95
9, 269280, Note_off_c, 9, 82, 95
9, 269280, Note_off_c, 9, 64, 95
9, 269280, Note_on_c, 9, 82, 95
9, 269280, Note_on_c, 9, 81, 95
9, 269760, Note_off_c, 9, 82, 95
9, 269760, Note_off_c, 9, 81, 95
9, 269760, Note_on_c, 9, 82, 95
9, 269760, Note_on_c, 9, 64, 95
9, 270240, Note_off_c, 9, 82, 95
9, 270240, Note_off_c, 9, 64, 95
9, 270240, Note_on_c, 9, 82, 95
9, 270720, Note_off_c, 9, 82, 95
9, 270720, Note_on_c, 9, 82, 95
9, 270720, Note_on_c, 9, 81, 95
9, 270720, Note_on_c, 9, 63, 95
9, 271200, Note_off_c, 9, 82, 95
9, 271200, Note_off_c, 9, 81, 95
9, 271200, Note_off_c, 9, 63, 95
9, 271200, Note_on_c, 9, 82, 95
9, 271680, Note_off_c, 9, 82, 95
9, 271680, Note_on_c, 9, 82, 95
9, 271680, Note_on_c, 9, 63, 95
9, 272160, Note_off_c, 9, 82, 95
9, 272160, Note_off_c, 9, 63, 95
9, 272160, Note_on_c, 9, 82, 95
9, 272160, Note_on_c, 9, 81, 95
9, 272640, Note_off_c, 9, 82, 95
9, 272640, Note_off_c, 9, 81, 95
9, 272640, Note_on_c, 9, 82, 95
9, 272640, Note_on_c, 9, 63, 95
9, 273120, Note_off_c, 9, 82, 95
9, 273120, Note_off_c, 9, 63, 95
9, 273120, Note_on_c, 9, 82, 95
9, 273600, Note_off_c, 9, 82, 95
9, 273600, Note_on_c, 9, 82, 95
9, 273600, Note_on_c, 9, 81, 95
9, 273600, Note_on_c, 9, 64, 95
9, 274080, Note_off_c, 9, 82, 95
9, 274080, Note_off_c, 9, 81, 95
9, 274080, Note_off_c, 9, 64, 95
9, 274080, Note_on_c, 9, 82, 95
9, 274560, Note_off_c, 9, 82, 95
9, 274560, Note_on_c, 9, 82, 95
9, 274560, Note_on_c, 9, 64, 95
9, 275040, Note_off_c, 9, 82, 95
9, 275040, Note_off_c, 9, 64, 95
9, 275040, Note_on_c, 9, 82, 95
9, 275040, Note_on_c, 9, 81, 95
9, 275520, Note_off_c, 9, 82, 95
9, 275520, Note_off_c, 9, 81, 95
9, 275520, Note_on_c, 9, 82, 95
9, 275520, Note_on_c, 9, 64, 95
9, 276000, Note_off_c, 9, 82, 95
9, 276000, Note_off_c, 9, 64, 95
9, 276000, Note_on_c, 9, 82, 95
9, 276480, Note_off_c, 9, 82, 95
9, 276480, Note_on_c, 9, 82, 95
9, 276480, Note_on_c, 9, 81, 95
9, 276480, Note_on_c, 9, 63, 95
9, 276960, Note_off_c, 9, 82, 95
9, 276960, Note_off_c, 9, 81, 95
9, 276960, Note_off_c, 9, 63, 95
9, 276960, Note_on_c, 9, 82, 95
9, 277440, Note_off_c, 9, 82, 95
9, 277440, Note_on_c, 9, 82, 95
9, 277440, Note_on_c, 9, 63, 95
9, 277920, Note_off_c, 9, 82, 95
9, 277920, Note_off_c, 9, 63, 95
9, 277920, Note_on_c, 9, 82, 95
9, 277920, Note_on_c, 9, 81, 95
9, 278400, Note_off_c, 9, 82, 95
9, 278400, Note_off_c, 9, 81, 95
9, 278400, Note_on_c, 9, 82, 95
9, 278400, Note_on_c, 9, 63, 95
9, 278880, Note_off_c, 9, 82, 95
9, 278880, Note_off_c, 9, 63, 95
9, 278880, Note_on_c, 9, 82, 95
9, 279360, Note_off_c, 9, 82, 95
9, 279360, Note_on_c, 9, 82, 95
9, 279360, Note_on_c, 9, 81, 95
9, 279360, Note_on_c, 9, 64, 95
9, 279840, Note_off_c, 9, 82, 95
9, 279840, Note_off_c, 9, 81, 95
9, 279840, Note_off_c, 9, 64, 95
9, 279840, Note_on_c, 9, 82, 95
9, 280320, Note_off_c, 9, 82, 95
9, 280320, Note_on_c, 9, 82, 95
9, 280320, Note_on_c, 9, 64, 95
9, 280800, Note_off_c, 9, 82, 95
9, 280800, Note_off_c, 9, 64, 95
9, 280800, Note_on_c, 9, 82, 95
9, 280800, Note_on_c, 9, 81, 95
9, 281280, Note_off_c, 9, 82, 95
9, 281280, Note_off_c, 9, 81, 95
9, 281280, Note_on_c, 9, 82, 95
9, 281280, Note_on_c, 9, 64, 95
9, 281760, Note_off_c, 9, 82, 95
9, 281760, Note_off_c, 9, 64, 95
9, 281760, Note_on_c, 9, 82, 95
9, 282240, Note_off_c, 9, 82, 95
9, 282240, Note_on_c, 9, 82, 95
9, 282240, Note_on_c, 9, 81, 95
9, 282240, Note_on_c, 9, 63, 95
9, 282720, Note_off_c, 9, 82, 95
9, 282720, Note_off_c, 9, 81, 95
9, 282720, Note_off_c, 9, 63, 95
9, 282720, Note_on_c, 9, 82, 95
9, 283200, Note_off_c, 9, 82, 95
9, 283200, Note_on_c, 9, 82, 95
9, 283200, Note_on_c, 9, 63, 95
9, 283680, Note_off_c, 9, 82, 95
9, 283680, Note_off_c, 9, 63, 95
9, 283680, Note_on_c, 9, 82, 95
9, 283680, Note_on_c, 9, 81, 95
9, 284160, Note_off_c, 9, 82, 95
9, 284160, Note_off_c, 9, 81, 95
9, 284160, Note_on_c, 9, 82, 95
9, 284160, Note_on_c, 9, 63, 95
9, 284640, Note_off_c, 9, 82, 95
9, 284640, Note_off_c, 9, 63, 95
9, 284640, Note_on_c, 9, 82, 95
9, 285120, Note_off_c, 9, 82, 95
9, 285120, Note_on_c, 9, 82, 95
9, 285120, Note_on_c, 9, 81, 95
9, 285120, Note_on_c, 9, 64, 95
9, 285600, Note_off_c, 9, 82, 95
9, 285600, Note_off_c, 9, 81, 95
9, 285600, Note_off_c, 9, 64, 95
9, 285600, Note_on_c, 9, 82, 95
9, 286080, Note_off_c, 9, 82, 95
9, 286080, Note_on_c, 9, 82, 95
9, 286080, Note_on_c, 9, 64, 95
9, 286560, Note_off_c, 9, 82, 95
9, 286560, Note_off_c, 9, 64, 95
9, 286560, Note_on_c, 9, 82, 95
9, 286560, Note_on_c, 9, 81, 95
9, 287040, Note_off_c, 9, 82, 95
9, 287040, Note_off_c, 9, 81, 95
9, 287040, Note_on_c, 9, 82, 95
9, 287040, Note_on_c, 9, 64, 95
9, 287520, Note_off_c, 9, 82, 95
9, 287520, Note_off_c, 9, 64, 95
9, 287520, Note_on_c, 9, 82, 95
9, 288000, Note_off_c, 9, 82, 95
9, 288000, Note_on_c, 9, 82, 95
9, 288000, Note_on_c, 9, 81, 95
9, 288000, Note_on_c, 9, 63, 95
9, 288480, Note_off_c, 9, 82, 95
9, 288480, Note_off_c, 9, 81, 95
9, 288480, Note_off_c, 9, 63, 95
9, 288480, Note_on_c, 9, 82, 95
9, 288960, Note_off_c, 9, 82, 95
9, 288960, Note_on_c, 9, 82, 95
9, 288960, Note_on_c, 9, 63, 95
9, 289440, Note_off_c, 9, 82, 95
9, 289440, Note_off_c, 9, 63, 95
9, 289440, Note_on_c, 9, 82, 95
9, 289440, Note_on_c, 9, 81, 95
9, 289920, Note_off_c, 9, 82, 95
9, 289920, Note_off_c, 9, 81, 95
9, 289920, Note_on_c, 9, 82, 95
9, 289920, Note_on_c, 9, 63, 95
9, 290400, Note_off_c, 9, 82, 95
9, 290400, Note_off_c, 9, 63, 95
9, 290400, Note_on_c, 9, 82, 95
9, 290880, Note_off_c, 9, 82, 95
9, 290880, Note_on_c, 9, 82, 95
9, 290880, Note_on_c, 9, 81, 95
9, 290880, Note_on_c, 9, 64, 95
9, 291360, Note_off_c, 9, 82, 95
9, 291360, Note_off_c, 9, 81, 95
9, 291360, Note_off_c, 9, 64, 95
9, 291360, Note_on_c, 9, 82, 95
9, 291840, Note_off_c, 9, 82, 95
9, 291840, Note_on_c, 9, 82, 95
9, 291840, Note_on_c, 9, 64, 95
9, 292320, Note_off_c, 9, 82, 95
9, 292320, Note_off_c, 9, 64, 95
9, 292320, Note_on_c, 9, 82, 95
9, 292320, Note_on_c, 9, 81, 95
9, 292800, Note_off_c, 9, 82, 95
9, 292800, Note_off_c, 9, 81, 95
9, 292800, Note_on_c, 9, 82, 95
9, 292800, Note_on_c, 9, 64, 95
9, 293280, Note_off_c, 9, 82, 95
9, 293280, Note_off_c, 9, 64, 95
9, 293280, Note_on_c, 9, 82, 95
9, 293760, Note_off_c, 9, 82, 95
9, 293760, Note_on_c, 9, 82, 95
9, 293760, Note_on_c, 9, 81, 95
9, 293760, Note_on_c, 9, 63, 95
9, 294240, Note_off_c, 9, 82, 95
9, 294240, Note_off_c, 9, 81, 95
9, 294240, Note_off_c, 9, 63, 95
9, 294240, Note_on_c, 9, 82, 95
9, 294720, Note_off_c, 9, 82, 95
9, 294720, Note_on_c, 9, 82, 95
9, 294720, Note_on_c, 9, 63, 95
9, 295200, Note_off_c, 9, 82, 95
9, 295200, Note_off_c, 9, 63, 95
9, 295200, Note_on_c, 9, 82, 95
9, 295200, Note_on_c, 9, 81, 95
9, 295680, Note_off_c, 9, 82, 95
9, 295680, Note_off_c, 9, 81, 95
9, 295680, Note_on_c, 9, 82, 95
9, 295680, Note_on_c, 9, 63, 95
9, 296160, Note_off_c, 9, 82, 95
9, 296160, Note_off_c, 9, 63, 95
9, 296160, Note_on_c, 9, 82, 95
9, 296640, Note_off_c, 9, 82, 95
9, 296640, Note_on_c, 9, 82, 95
9, 296640, Note_on_c, 9, 81, 95
9, 296640, Note_on_c, 9, 64, 95
9, 297120, Note_off_c, 9, 82, 95
9, 297120, Note_off_c, 9, 81, 95
9, 297120, Note_off_c, 9, 64, 95
9, 297120, Note_on_c, 9, 82, 95
9, 297600, Note_off_c, 9, 82, 95
9, 297600, Note_on_c, 9, 82, 95
9, 297600, Note_on_c, 9, 64, 95
9, 298080, Note_off_c, 9, 82, 95
9, 298080, Note_off_c, 9, 64, 95
9, 298080, Note_on_c, 9, 82, 95
9, 298080, Note_on_c, 9, 81, 95
9, 298560, Note_off_c, 9, 82, 95
9, 298560, Note_off_c, 9, 81, 95
9, 298560, Note_on_c, 9, 82, 95
9, 298560, Note_on_c, 9, 64, 95
9, 299040, Note_off_c, 9, 82, 95
9, 299040, Note_off_c, 9, 64, 95
9, 299040, Note_on_c, 9, 82, 95
9, 299520, Note_off_c, 9, 82, 95
9, 299520, Note_on_c, 9, 82, 95
9, 299520, Note_on_c, 9, 81, 95
9, 299520, Note_on_c, 9, 63, 95
9, 300000, Note_off_c, 9, 82, 95
9, 300000, Note_off_c, 9, 81, 95
9, 300000, Note_off_c, 9, 63, 95
9, 300000, Note_on_c, 9, 82, 95
9, 300480, Note_off_c, 9, 82, 95
9, 300480, Note_on_c, 9, 82, 95
9, 300480, Note_on_c, 9, 63, 95
9, 300960, Note_off_c, 9, 82, 95
9, 300960, Note_off_c, 9, 63, 95
9, 300960, Note_on_c, 9, 82, 95
9, 300960, Note_on_c, 9, 81, 95
9, 301440, Note_off_c, 9, 82, 95
9, 301440, Note_off_c, 9, 81, 95
9, 301440, Note_on_c, 9, 82, 95
9, 301440, Note_on_c, 9, 63, 95
9, 301920, Note_off_c, 9, 82, 95
9, 301920, Note_off_c, 9, 63, 95
9, 301920, Note_on_c, 9, 82, 95
9, 302400, Note_off_c, 9, 82, 95
9, 302400, Note_on_c, 9, 82, 95
9, 302400, Note_on_c, 9, 81, 95
9, 302400, Note_on_c, 9, 64, 95
9, 302880, Note_off_c, 9, 82, 95
9, 302880, Note_off_c, 9, 81, 95
9, 302880, Note_off_c, 9, 64, 95
9, 302880, Note_on_c, 9, 82, 95
9, 303360, Note_off_c, 9, 82, 95
9, 303360, Note_on_c, 9, 82, 95
9, 303360, Note_on_c, 9, 64, 95
9, 303840, Note_off_c, 9, 82, 95
9, 303840, Note_off_c, 9, 64, 95
9, 303840, Note_on_c, 9, 82, 95
9, 303840, Note_on_c, 9, 81, 95
9, 304320, Note_off_c, 9, 82, 95
9, 304320, Note_off_c, 9, 81, 95
9, 304320, Note_on_c, 9, 82, 95
9, 304320, Note_on_c, 9, 64, 95
9, 304800, Note_off_c, 9, 82, 95
9, 304800, Note_off_c, 9, 64, 95
9, 304800, Note_on_c, 9, 82, 95
9, 305280, Note_off_c, 9, 82, 95
9, 305280, Note_on_c, 9, 82, 95
9, 305280, Note_on_c, 9, 81, 95
9, 305280, Note_on_c, 9, 63, 95
9, 305760, Note_off_c, 9, 82, 95
9, 305760, Note_off_c, 9, 81, 95
9, 305760, Note_off_c, 9, 63, 95
9, 305760, Note_on_c, 9, 82, 95
9, 306240, Note_off_c, 9, 82, 95
9, 306240, Note_on_c, 9, 82, 95
9, 306240, Note_on_c, 9, 63, 95
9, 306720, Note_off_c, 9, 82, 95
9, 306720, Note_off_c, 9, 63, 95
9, 306720, Note_on_c, 9, 82, 95
9, 306720, Note_on_c, 9, 81, 95
9, 307200, Note_off_c, 9, 82, 95
9, 307200, Note_off_c, 9, 81, 95
9, 307200, Note_on_c, 9, 82, 95
9, 307200, Note_on_c, 9, 63, 95
9, 307680, Note_off_c, 9, 82, 95
9, 307680, Note_off_c, 9, 63, 95
9, 307680, Note_on_c, 9, 82, 95
9, 308160, Note_off_c, 9, 82, 95
9, 308160, Note_on_c, 9, 82, 95
9, 308160, Note_on_c, 9, 81, 95
9, 308160, Note_on_c, 9, 64, 95
9, 308640, Note_off_c, 9, 82, 95
9, 308640, Note_off_c, 9, 81, 95
9, 308640, Note_off_c, 9, 64, 95
9, 308640, Note_on_c, 9, 82, 95
9, 309120, Note_off_c, 9, 82, 95
9, 309120, Note_on_c, 9, 82, 95
9, 309120, Note_on_c, 9, 64, 95
9, 309600, Note_off_c, 9, 82, 95
9, 309600, Note_off_c, 9, 64, 95
9, 309600, Note_on_c, 9, 82, 95
9, 309600, Note_on_c, 9, 81, 95
9, 310080, Note_off_c, 9, 82, 95
9, 310080, Note_off_c, 9, 81, 95
9, 310080, Note_on_c, 9, 82, 95
9, 310080, Note_on_c, 9, 64, 95
9, 310560, Note_off_c, 9, 82, 95
9, 310560, Note_off_c, 9, 64, 95
9, 310560, Note_on_c, 9, 82, 95
9, 311040, Note_off_c, 9, 82, 95
9, 311040, Note_on_c, 9, 82, 95
9, 311040, Note_on_c, 9, 81, 95
9, 311040, Note_on_c, 9, 63, 95
9, 311520, Note_off_c, 9, 82, 95
9, 311520, Note_off_c, 9, 81, 95
9, 311520, Note_off_c, 9, 63, 95
9, 311520, Note_on_c, 9, 82, 95
9, 312000, Note_off_c, 9, 82, 95
9, 312000, Note_on_c, 9, 82, 95
9, 312000, Note_on_c, 9, 63, 95
9, 312480, Note_off_c, 9, 82, 95
9, 312480, Note_off_c, 9, 63, 95
9, 312480, Note_on_c, 9, 82, 95
9, 312480, Note_on_c, 9, 81, 95
9, 312960, Note_off_c, 9, 82, 95
9, 312960, Note_off_c, 9, 81, 95
9, 312960, Note_on_c, 9, 82, 95
9, 312960, Note_on_c, 9, 63, 95
9, 313440, Note_off_c, 9, 82, 95
9, 313440, Note_off_c, 9, 63, 95
9, 313440, Note_on_c, 9, 82, 95
9, 313920, Note_off_c, 9, 82, 95
9, 313920, Note_on_c, 9, 82, 95
9, 313920, Note_on_c, 9, 81, 95
9, 313920, Note_on_c, 9, 64, 95
9, 314400, Note_off_c, 9, 82, 95
9, 314400, Note_off_c, 9, 81, 95
9, 314400, Note_off_c, 9, 64, 95
9, 314400, Note_on_c, 9, 82, 95
9, 314880, Note_off_c, 9, 82, 95
9, 314880, Note_on_c, 9, 82, 95
9, 314880, Note_on_c, 9, 64, 95
9, 315360, Note_off_c, 9, 82, 95
9, 315360, Note_off_c, 9, 64, 95
9, 315360, Note_on_c, 9, 82, 95
9, 315360, Note_on_c, 9, 81, 95
9, 315840, Note_off_c, 9, 82, 95
9, 315840, Note_off_c, 9, 81, 95
9, 315840, Note_on_c, 9, 82, 95
9, 315840, Note_on_c, 9, 64, 95
9, 316320, Note_off_c, 9, 82, 95
9, 316320, Note_off_c, 9, 64, 95
9, 316320, Note_on_c, 9, 82, 95
9, 316800, Note_off_c, 9, 82, 95
9, 316800, Note_on_c, 9, 82, 95
9, 316800, Note_on_c, 9, 81, 95
9, 316800, Note_on_c, 9, 63, 95
9, 317280, Note_off_c, 9, 82, 95
9, 317280, Note_off_c, 9, 81, 95
9, 317280, Note_off_c, 9, 63, 95
9, 317280, Note_on_c, 9, 82, 95
9, 317760, Note_off_c, 9, 82, 95
9, 317760, Note_on_c, 9, 82, 95
9, 317760, Note_on_c, 9, 63, 95
9, 318240, Note_off_c, 9, 82, 95
9, 318240, Note_off_c, 9, 63, 95
9, 318240, Note_on_c, 9, 82, 95
9, 318240, Note_on_c, 9, 81, 95
9, 318720, Note_off_c, 9, 82, 95
9, 318720, Note_off_c, 9, 81, 95
9, 318720, Note_on_c, 9, 82, 95
9, 318720, Note_on_c, 9, 63, 95
9, 319200, Note_off_c, 9, 82, 95
9, 319200, Note_off_c, 9, 63, 95
9, 319200, Note_on_c, 9, 82, 95
9, 319680, Note_off_c, 9, 82, 95
9, 319680, Note_on_c, 9, 82, 95
9, 319680, Note_on_c, 9, 81, 95
9, 319680, Note_on_c, 9, 64, 95
9, 320160, Note_off_c, 9, 82, 95
9, 320160, Note_off_c, 9, 81, 95
9, 320160, Note_off_c, 9, 64, 95
9, 320160, Note_on_c, 9, 82, 95
9, 320640, Note_off_c, 9, 82, 95
9, 320640, Note_on_c, 9, 82, 95
9, 320640, Note_on_c, 9, 64, 95
9, 321120, Note_off_c, 9, 82, 95
9, 321120, Note_off_c, 9, 64, 95
9, 321120, Note_on_c, 9, 82, 95
9, 321120, Note_on_c, 9, 81, 95
9, 321600, Note_off_c, 9, 82, 95
9, 321600, Note_off_c, 9, 81, 95
9, 321600, Note_on_c, 9, 82, 95
9, 321600, Note_on_c, 9, 64, 95
9, 322080, Note_off_c, 9, 82, 95
9, 322080, Note_off_c, 9, 64, 95
9, 322080, Note_on_c, 9, 82, 95
9, 322560, Note_off_c, 9, 82, 95
9, 322560, Note_on_c, 9, 82, 95
9, 322560, Note_on_c, 9, 81, 95
9, 322560, Note_on_c, 9, 63, 95
9, 323040, Note_off_c, 9, 82, 95
9, 323040, Note_off_c, 9, 81, 95
9, 323040, Note_off_c, 9, 63, 95
9, 323040, Note_on_c, 9, 82, 95
9, 323520, Note_off_c, 9, 82, 95
9, 323520, Note_on_c, 9, 82, 95
9, 323520, Note_on_c, 9, 63, 95
9, 324000, Note_off_c, 9, 82, 95
9, 324000, Note_off_c, 9, 63, 95
9, 324000, Note_on_c, 9, 82, 95
9, 324000, Note_on_c, 9, 81, 95
9, 324480, Note_off_c, 9, 82, 95
9, 324480, Note_off_c, 9, 81, 95
9, 324480, Note_on_c, 9, 82, 95
9, 324480, Note_on_c, 9, 63, 95
9, 324960, Note_off_c, 9, 82, 95
9, 324960, Note_off_c, 9, 63, 95
9, 324960, Note_on_c, 9, 82, 95
9, 325440, Note_off_c, 9, 82, 95
9, 325440, Note_on_c, 9, 82, 95
9, 325440, Note_on_c, 9, 81, 95
9, 325440, Note_on_c, 9, 64, 95
9, 325920, Note_off_c, 9, 82, 95
9, 325920, Note_off_c, 9, 81, 95
9, 325920, Note_off_c, 9, 64, 95
9, 325920, Note_on_c, 9, 82, 95
9, 326400, Note_off_c, 9, 82, 95
9, 326400, Note_on_c, 9, 82, 95
9, 326400, Note_on_c, 9, 64, 95
9, 326880, Note_off_c, 9, 82, 95
9, 326880, Note_off_c, 9, 64, 95
9, 326880, Note_on_c, 9, 82, 95
9, 326880, Note_on_c, 9, 81, 95
9, 327360, Note_off_c, 9, 82, 95
9, 327360, Note_off_c, 9, 81, 95
9, 327360, Note_on_c, 9, 82, 95
9, 327360, Note_on_c, 9, 64, 95
9, 327840, Note_off_c, 9, 82, 95
9, 327840, Note_off_c, 9, 64, 95
9, 327840, Note_on_c, 9, 82, 95
9, 328320, Note_off_c, 9, 82, 95
9, 328320, Note_on_c, 9, 82, 95
9, 328320, Note_on_c, 9, 81, 95
9, 328320, Note_on_c, 9, 63, 95
9, 328800, Note_off_c, 9, 82, 95
9, 328800, Note_off_c, 9, 81, 95
9, 328800, Note_off_c, 9, 63, 95
9, 328800, Note_on_c, 9, 82, 95
9, 329280, Note_off_c, 9, 82, 95
9, 329280, Note_on_c, 9, 82, 95
9, 329280, Note_on_c, 9, 63, 95
9, 329760, Note_off_c, 9, 82, 95
9, 329760, Note_off_c, 9, 63, 95
9, 329760, Note_on_c, 9, 82, 95
9, 329760, Note_on_c, 9, 81, 95
9, 330240, Note_off_c, 9, 82, 95
9, 330240, Note_off_c, 9, 81, 95
9, 330240, Note_on_c, 9, 82, 95
9, 330240, Note_on_c, 9, 63, 95
9, 330720, Note_off_c, 9, 82, 95
9, 330720, Note_off_c, 9, 63, 95
9, 330720, Note_on_c, 9, 82, 95
9, 331200, Note_off_c, 9, 82, 95
9, 331200, Note_on_c, 9, 82, 95
9, 331200, Note_on_c, 9, 81, 95
9, 331200, Note_on_c, 9, 64, 95
9, 331680, Note_off_c, 9, 82, 95
9, 331680, Note_off_c, 9, 81, 95
9, 331680, Note_off_c, 9, 64, 95
9, 331680, Note_on_c, 9, 82, 95
9, 332160, Note_off_c, 9, 82, 95
9, 332160, Note_on_c, 9, 82, 95
9, 332160, Note_on_c, 9, 64, 95
9, 332640, Note_off_c, 9, 82, 95
9, 332640, Note_off_c, 9, 64, 95
9, 332640, Note_on_c, 9, 82, 95
9, 332640, Note_on_c, 9, 81, 95
9, 333120, Note_off_c, 9, 82, 95
9, 333120, Note_off_c, 9, 81, 95
9, 333120, Note_on_c, 9, 82, 95
9, 333120, Note_on_c, 9, 64, 95
9, 333600, Note_off_c, 9, 82, 95
9, 333600, Note_off_c, 9, 64, 95
9, 333600, Note_on_c, 9, 82, 95
9, 334080, Note_off_c, 9, 82, 95
9, 334080, Note_on_c, 9, 82, 95
9, 334080, Note_on_c, 9, 81, 95
9, 334080, Note_on_c, 9, 63, 95
9, 334560, Note_off_c, 9, 82, 95
9, 334560, Note_off_c, 9, 81, 95
9, 334560, Note_off_c, 9, 63, 95
9, 334560, Note_on_c, 9, 82, 95
9, 335040, Note_off_c, 9, 82, 95
9, 335040, Note_on_c, 9, 82, 95
9, 335040, Note_on_c, 9, 63, 95
9, 335520, Note_off_c, 9, 82, 95
9, 335520, Note_off_c, 9, 63, 95
9, 335520, Note_on_c, 9, 82, 95
9, 335520, Note_on_c, 9, 81, 95
9, 336000, Note_off_c, 9, 82, 95
9, 336000, Note_off_c, 9, 81, 95
9, 336000, Note_on_c, 9, 82, 95
9, 336000, Note_on_c, 9, 63, 95
9, 336480, Note_off_c, 9, 82, 95
9, 336480, Note_off_c, 9, 63, 95
9, 336480, Note_on_c, 9, 82, 95
9, 336960, Note_off_c, 9, 82, 95
9, 336960, Note_on_c, 9, 82, 95
9, 336960, Note_on_c, 9, 81, 95
9, 336960, Note_on_c, 9, 64, 95
9, 337440, Note_off_c, 9, 82, 95
9, 337440, Note_off_c, 9, 81, 95
9, 337440, Note_off_c, 9, 64, 95
9, 337440, Note_on_c, 9, 82, 95
9, 337920, Note_off_c, 9, 82, 95
9, 337920, Note_on_c, 9, 82, 95
9, 337920, Note_on_c, 9, 64, 95
9, 338400, Note_off_c, 9, 82, 95
9, 338400, Note_off_c, 9, 64, 95
9, 338400, Note_on_c, 9, 82, 95
9, 338400, Note_on_c, 9, 81, 95
9, 338880, Note_off_c, 9, 82, 95
9, 338880, Note_off_c, 9, 81, 95
9, 338880, Note_on_c, 9, 82, 95
9, 338880, Note_on_c, 9, 64, 95
9, 339360, Note_off_c, 9, 82, 95
9, 339360, Note_off_c, 9, 64, 95
9, 339360, Note_on_c, 9, 82, 95
9, 339840, Note_off_c, 9, 82, 95
9, 339840, Note_on_c, 9, 82, 95
9, 339840, Note_on_c, 9, 81, 95
9, 339840, Note_on_c, 9, 63, 95
9, 340320, Note_off_c, 9, 82, 95
9, 340320, Note_off_c, 9, 81, 95
9, 340320, Note_off_c, 9, 63, 95
9, 340320, Note_on_c, 9, 82, 95
9, 340800, Note_off_c, 9, 82, 95
9, 340800, Note_on_c, 9, 82, 95
9, 340800, Note_on_c, 9, 63, 95
9, 341280, Note_off_c, 9, 82, 95
9, 341280, Note_off_c, 9, 63, 95
9, 341280, Note_on_c, 9, 82, 95
9, 341280, Note_on_c, 9, 81, 95
9, 341760, Note_off_c, 9, 82, 95
9, 341760, Note_off_c, 9, 81, 95
9, 341760, Note_on_c, 9, 82, 95
9, 341760, Note_on_c, 9, 63, 95
9, 342240, Note_off_c, 9, 82, 95
9, 342240, Note_off_c, 9, 63, 95
9, 342240, Note_on_c, 9, 82, 95
9, 342720, Note_off_c, 9, 82, 95
9, 342720, Note_on_c, 9, 82, 95
9, 342720, Note_on_c, 9, 81, 95
9, 342720, Note_on_c, 9, 64, 95
9, 343200, Note_off_c, 9, 82, 95
9, 343200, Note_off_c, 9, 81, 95
9, 343200, Note_off_c, 9, 64, 95
9, 343200, Note_on_c, 9, 82, 95
9, 343680, Note_off_c, 9, 82, 95
9, 343680, Note_on_c, 9, 82, 95
9, 343680, Note_on_c, 9, 64, 95
9, 344160, Note_off_c, 9, 82, 95
9, 344160, Note_off_c, 9, 64, 95
9, 344160, Note_on_c, 9, 82, 95
9, 344160, Note_on_c, 9, 81, 95
9, 344640, Note_off_c, 9, 82, 95
9, 344640, Note_off_c, 9, 81, 95
9, 344640, Note_on_c, 9, 82, 95
9, 344640, Note_on_c, 9, 64, 95
9, 345120, Note_off_c, 9, 82, 95
9, 345120, Note_off_c, 9, 64, 95
9, 345120, Note_on_c, 9, 82, 95
9, 345600, Note_off_c, 9, 82, 95
9, 345600, Note_on_c, 9, 82, 95
9, 345600, Note_on_c, 9, 81, 95
9, 345600, Note_on_c, 9, 63, 95
9, 346080, Note_off_c, 9, 82, 95
9, 346080, Note_off_c, 9, 81, 95
9, 346080, Note_off_c, 9, 63, 95
9, 346080, Note_on_c, 9, 82, 95
9, 346560, Note_off_c, 9, 82, 95
9, 346560, Note_on_c, 9, 82, 95
9, 346560, Note_on_c, 9, 63, 95
9, 347040, Note_off_c, 9, 82, 95
9, 347040, Note_off_c, 9, 63, 95
9, 347040, Note_on_c, 9, 82, 95
9, 347040, Note_on_c, 9, 81, 95
9, 347520, Note_off_c, 9, 82, 95
9, 347520, Note_off_c, 9, 81, 95
9, 347520, Note_on_c, 9, 82, 95
9, 347520, Note_on_c, 9, 63, 95
9, 348000, Note_off_c, 9, 82, 95
9, 348000, Note_off_c, 9, 63, 95
9, 348000, Note_on_c, 9, 82, 95
9, 348480, Note_off_c, 9, 82, 95
9, 348480, Note_on_c, 9, 82, 95
9, 348480, Note_on_c, 9, 81, 95
9, 348480, Note_on_c, 9, 64, 95
9, 348960, Note_off_c, 9, 82, 95
9, 348960, Note_off_c, 9, 81, 95
9, 348960, Note_off_c, 9, 64, 95
9, 348960, Note_on_c, 9, 82, 95
9, 349440, Note_off_c, 9, 82, 95
9, 349440, Note_on_c, 9, 82, 95
9, 349440, Note_on_c, 9, 64, 95
9, 349920, Note_off_c, 9, 82, 95
9, 349920, Note_off_c, 9, 64, 95
9, 349920, Note_on_c, 9, 82, 95
9, 349920, Note_on_c, 9, 81, 95
9, 350400, Note_off_c, 9, 82, 95
9, 350400, Note_off_c, 9, 81, 95
9, 350400, Note_on_c, 9, 82, 95
9, 350400, Note_on_c, 9, 64, 95
9, 350880, Note_off_c, 9, 82, 95
9, 350880, Note_off_c, 9, 64, 95
9, 350880, Note_on_c, 9, 82, 95
9, 351360, Note_off_c, 9, 82, 95
9, 351360, Note_on_c, 9, 82, 95
9, 351360, Note_on_c, 9, 81, 95
9, 351360, Note_on_c, 9, 63, 95
9, 351840, Note_off_c, 9, 82, 95
9, 351840, Note_off_c, 9, 81, 95
9, 351840, Note_off_c, 9, 63, 95
9, 351840, Note_on_c, 9, 82, 95
9, 352320, Note_off_c, 9, 82, 95
9, 352320, Note_on_c, 9, 82, 95
9, 352320, Note_on_c, 9, 63, 95
9, 352800, Note_off_c, 9, 82, 95
9, 352800, Note_off_c, 9, 63, 95
9, 352800, Note_on_c, 9, 82, 95
9, 352800, Note_on_c, 9, 81, 95
9, 353280, Note_off_c, 9, 82, 95
9, 353280, Note_off_c, 9, 81, 95
9, 353280, Note_on_c, 9, 82, 95
9, 353280, Note_on_c, 9, 63, 95
9, 353760, Note_off_c, 9, 82, 95
9, 353760, Note_off_c, 9, 63, 95
9, 353760, Note_on_c, 9, 82, 95
9, 354240, Note_off_c, 9, 82, 95
9, 354240, Note_on_c, 9, 82, 95
9, 354240, Note_on_c, 9, 81, 95
9, 354240, Note_on_c, 9, 64, 95
9, 354720, Note_off_c, 9, 82, 95
9, 354720, Note_off_c, 9, 81, 95
9, 354720, Note_off_c, 9, 64, 95
9, 354720, Note_on_c, 9, 82, 95
9, 355200, Note_off_c, 9, 82, 95
9, 355200, Note_on_c, 9, 82, 95
9, 355200, Note_on_c, 9, 64, 95
9, 355680, Note_off_c, 9, 82, 95
9, 355680, Note_off_c, 9, 64, 95
9, 355680, Note_on_c, 9, 82, 95
9, 355680, Note_on_c, 9, 81, 95
9, 356160, Note_off_c, 9, 82, 95
9, 356160, Note_off_c, 9, 81, 95
9, 356160, Note_on_c, 9, 82, 95
9, 356160, Note_on_c, 9, 64, 95
9, 356640, Note_off_c, 9, 82, 95
9, 356640, Note_off_c, 9, 64, 95
9, 356640, Note_on_c, 9, 82, 95
9, 357120, Note_off_c, 9, 82, 95
9, 357120, Note_on_c, 9, 82, 95
9, 357120, Note_on_c, 9, 81, 95
9, 357120, Note_on_c, 9, 63, 95
9, 357600, Note_off_c, 9, 82, 95
9, 357600, Note_off_c, 9, 81, 95
9, 357600, Note_off_c, 9, 63, 95
9, 357600, Note_on_c, 9, 82, 95
9, 358080, Note_off_c, 9, 82, 95
9, 358080, Note_on_c, 9, 82, 95
9, 358080, Note_on_c, 9, 63, 95
9, 358560, Note_off_c, 9, 82, 95
9, 358560, Note_off_c, 9, 63, 95
9, 358560, Note_on_c, 9, 82, 95
9, 358560, Note_on_c, 9, 81, 95
9, 359040, Note_off_c, 9, 82, 95
9, 359040, Note_off_c, 9, 81, 95
9, 359040, Note_on_c, 9, 82, 95
9, 359040, Note_on_c, 9, 63, 95
9, 359520, Note_off_c, 9, 82, 95
9, 359520, Note_off_c, 9, 63, 95
9, 359520, Note_on_c, 9, 82, 95
9, 360000, Note_off_c, 9, 82, 95
9, 360000, Note_on_c, 9, 82, 95
9, 360000, Note_on_c, 9, 81, 95
9, 360000, Note_on_c, 9, 64, 95
9, 360480, Note_off_c, 9, 82, 95
9, 360480, Note_off_c, 9, 81, 95
9, 360480, Note_off_c, 9, 64, 95
9, 360480, Note_on_c, 9, 82, 95
9, 360960, Note_off_c, 9, 82, 95
9, 360960, Note_on_c, 9, 82, 95
9, 360960, Note_on_c, 9, 64, 95
9, 361440, Note_off_c, 9, 82, 95
9, 361440, Note_off_c, 9, 64, 95
9, 361440, Note_on_c, 9, 82, 95
9, 361440, Note_on_c, 9, 81, 95
9, 361920, Note_off_c, 9, 82, 95
9, 361920, Note_off_c, 9, 81, 95
9, 361920, Note_on_c, 9, 82, 95
9, 361920, Note_on_c, 9, 64, 95
9, 362400, Note_off_c, 9, 82, 95
9, 362400, Note_off_c, 9, 64, 95
9, 362400, Note_on_c, 9, 82, 95
9, 362880, Note_off_c, 9, 82, 95
9, 362880, Note_on_c, 9, 82, 95
9, 362880, Note_on_c, 9, 81, 95
9, 362880, Note_on_c, 9, 63, 95
9, 363360, Note_off_c, 9, 82, 95
9, 363360, Note_off_c, 9, 81, 95
9, 363360, Note_off_c, 9, 63, 95
9, 363360, Note_on_c, 9, 82, 95
9, 363840, Note_off_c, 9, 82, 95
9, 363840, Note_on_c, 9, 82, 95
9, 363840, Note_on_c, 9, 63, 95
9, 364320, Note_off_c, 9, 82, 95
9, 364320, Note_off_c, 9, 63, 95
9, 364320, Note_on_c, 9, 82, 95
9, 364320, Note_on_c, 9, 81, 95
9, 364800, Note_off_c, 9, 82, 95
9, 364800, Note_off_c, 9, 81, 95
9, 364800, Note_on_c, 9, 82, 95
9, 364800, Note_on_c, 9, 63, 95
9, 365280, Note_off_c, 9, 82, 95
9, 365280, Note_off_c, 9, 63, 95
9, 365280, Note_on_c, 9, 82, 95
9, 365760, Note_off_c, 9, 82, 95
9, 365760, Note_on_c, 9, 82, 95
9, 365760, Note_on_c, 9, 81, 95
9, 365760, Note_on_c, 9, 64, 95
9, 366240, Note_off_c, 9, 82, 95
9, 366240, Note_off_c, 9, 81, 95
9, 366240, Note_off_c, 9, 64, 95
9, 366240, Note_on_c, 9, 82, 95
9, 366720, Note_off_c, 9, 82, 95
9, 366720, Note_on_c, 9, 82, 95
9, 366720, Note_on_c, 9, 64, 95
9, 367200, Note_off_c, 9, 82, 95
9, 367200, Note_off_c, 9, 64, 95
9, 367200, Note_on_c, 9, 82, 95
9, 367200, Note_on_c, 9, 81, 95
9, 367680, Note_off_c, 9, 82, 95
9, 367680, Note_off_c, 9, 81, 95
9, 367680, Note_on_c, 9, 82, 95
9, 367680, Note_on_c, 9, 64, 95
9, 368160, Note_off_c, 9, 82, 95
9, 368160, Note_off_c, 9, 64, 95
9, 368160, Note_on_c, 9, 82, 95
9, 368640, Note_off_c, 9, 82, 95
9, 368640, Note_on_c, 9, 82, 95
9, 368640, Note_on_c, 9, 81, 95
9, 368640, Note_on_c, 9, 63, 95
9, 369120, Note_off_c, 9, 82, 95
9, 369120, Note_off_c, 9, 81, 95
9, 369120, Note_off_c, 9, 63, 95
9, 369120, Note_on_c, 9, 82, 95
9, 369600, Note_off_c, 9, 82, 95
9, 369600, Note_on_c, 9, 82, 95
9, 369600, Note_on_c, 9, 63, 95
9, 370080, Note_off_c, 9, 82, 95
9, 370080, Note_off_c, 9, 63, 95
9, 370080, Note_on_c, 9, 82, 95
9, 370080, Note_on_c, 9, 81, 95
9, 370560, Note_off_c, 9, 82, 95
9, 370560, Note_off_c, 9, 81, 95
9, 370560, Note_on_c, 9, 82, 95
9, 370560, Note_on_c, 9, 63, 95
9, 371040, Note_off_c, 9, 82, 95
9, 371040, Note_off_c, 9, 63, 95
9, 371040, Note_on_c, 9, 82, 95
9, 371520, Note_off_c, 9, 82, 95
9, 371520, Note_on_c, 9, 82, 95
9, 371520, Note_on_c, 9, 81, 95
9, 371520, Note_on_c, 9, 64, 95
9, 372000, Note_off_c, 9, 82, 95
9, 372000, Note_off_c, 9, 81, 95
9, 372000, Note_off_c, 9, 64, 95
9, 372000, Note_on_c, 9, 82, 95
9, 372480, Note_off_c, 9, 82, 95
9, 372480, Note_on_c, 9, 82, 95
9, 372480, Note_on_c, 9, 64, 95
9, 372960, Note_off_c, 9, 82, 95
9, 372960, Note_off_c, 9, 64, 95
9, 372960, Note_on_c, 9, 82, 95
9, 372960, Note_on_c, 9, 81, 95
9, 373440, Note_off_c, 9, 82, 95
9, 373440, Note_off_c, 9, 81, 95
9, 373440, Note_on_c, 9, 82, 95
9, 373440, Note_on_c, 9, 64, 95
9, 373920, Note_off_c, 9, 82, 95
9, 373920, Note_off_c, 9, 64, 95
9, 373920, Note_on_c, 9, 82, 95
9, 374400, Note_off_c, 9, 82, 95
9, 374400, Note_on_c, 9, 82, 95
9, 374400, Note_on_c, 9, 81, 95
9, 374400, Note_on_c, 9, 63, 95
9, 374880, Note_off_c, 9, 82, 95
9, 374880, Note_off_c, 9, 81, 95
9, 374880, Note_off_c, 9, 63, 95
9, 374880, Note_on_c, 9, 82, 95
9, 375360, Note_off_c, 9, 82, 95
9, 375360, Note_on_c, 9, 82, 95
9, 375360, Note_on_c, 9, 63, 95
9, 375840, Note_off_c, 9, 82, 95
9, 375840, Note_off_c, 9, 63, 95
9, 375840, Note_on_c, 9, 82, 95
9, 375840, Note_on_c, 9, 81, 95
9, 376320, Note_off_c, 9, 82, 95
9, 376320, Note_off_c, 9, 81, 95
9, 376320, Note_on_c, 9, 82, 95
9, 376320, Note_on_c, 9, 63, 95
9, 376800, Note_off_c, 9, 82, 95
9, 376800, Note_off_c, 9, 63, 95
9, 376800, Note_on_c, 9, 82, 95
9, 377280, Note_off_c, 9, 82, 95
9, 377280, Note_on_c, 9, 82, 95
9, 377280, Note_on_c, 9, 81, 95
9, 377280, Note_on_c, 9, 64, 95
9, 377760, Note_off_c, 9, 82, 95
9, 377760, Note_off_c, 9, 81, 95
9, 377760, Note_off_c, 9, 64, 95
9, 377760, Note_on_c, 9, 82, 95
9, 378240, Note_off_c, 9, 82, 95
9, 378240, Note_on_c, 9, 82, 95
9, 378240, Note_on_c, 9, 64, 95
9, 378720, Note_off_c, 9, 82, 95
9, 378720, Note_off_c, 9, 64, 95
9, 378720, Note_on_c, 9, 82, 95
9, 378720, Note_on_c, 9, 81, 95
9, 379200, Note_off_c, 9, 82, 95
9, 379200, Note_off_c, 9, 81, 95
9, 379200, Note_on_c, 9, 82, 95
9, 379200, Note_on_c, 9, 64, 95
9, 379680, Note_off_c, 9, 82, 95
9, 379680, Note_off_c, 9, 64, 95
9, 379680, Note_on_c, 9, 82, 95
9, 380160, Note_off_c, 9, 82, 95
9, 380160, Note_on_c, 9, 82, 95
9, 380160, Note_on_c, 9, 81, 95
9, 380160, Note_on_c, 9, 63, 95
9, 380640, Note_off_c, 9, 82, 95
9, 380640, Note_off_c, 9, 81, 95
9, 380640, Note_off_c, 9, 63, 95
9, 380640, Note_on_c, 9, 82, 95
9, 381120, Note_off_c, 9, 82, 95
9, 381120, Note_on_c, 9, 82, 95
9, 381120, Note_on_c, 9, 63, 95
9, 381600, Note_off_c, 9, 82, 95
9, 381600, Note_off_c, 9, 63, 95
9, 381600, Note_on_c, 9, 82, 95
9, 381600, Note_on_c, 9, 81, 95
9, 382080, Note_off_c, 9, 82, 95
9, 382080, Note_off_c, 9, 81, 95
9, 382080, Note_on_c, 9, 82, 95
9, 382080, Note_on_c, 9, 63, 95
9, 382560, Note_off_c, 9, 82, 95
9, 382560, Note_off_c, 9, 63, 95
9, 382560, Note_on_c, 9, 82, 95
9, 383040, Note_off_c, 9, 82, 95
9, 383040, Note_on_c, 9, 82, 95
9, 383040, Note_on_c, 9, 81, 95
9, 383040, Note_on_c, 9, 64, 95
9, 383520, Note_off_c, 9, 82, 95
9, 383520, Note_off_c, 9, 81, 95
9, 383520, Note_off_c, 9, 64, 95
9, 383520, Note_on_c, 9, 82, 95
9, 384000, Note_off_c, 9, 82, 95
9, 384000, Note_on_c, 9, 82, 95
9, 384000, Note_on_c, 9, 64, 95
9, 384480, Note_off_c, 9, 82, 95
9, 384480, Note_off_c, 9, 64, 95
9, 384480, Note_on_c, 9, 82, 95
9, 384480, Note_on_c, 9, 81, 95
9, 384960, Note_off_c, 9, 82, 95
9, 384960, Note_off_c, 9, 81, 95
9, 384960, Note_on_c, 9, 82, 95
9, 384960, Note_on_c, 9, 64, 95
9, 385440, Note_off_c, 9, 82, 95
9, 385440, Note_off_c, 9, 64, 95
9, 385440, Note_on_c, 9, 82, 95
9, 385920, Note_off_c, 9, 82, 95
9, 385920, Note_on_c, 9, 82, 95
9, 385920, Note_on_c, 9, 81, 95
9, 385920, Note_on_c, 9, 63, 95
9, 386400, Note_off_c, 9, 82, 95
9, 386400, Note_off_c, 9, 81, 95
9, 386400, Note_off_c, 9, 63, 95
9, 386400, Note_on_c, 9, 82, 95
9, 386880, Note_off_c, 9, 82, 95
9, 386880, Note_on_c, 9, 82, 95
9, 386880, Note_on_c, 9, 63, 95
9, 387360, Note_off_c, 9, 82, 95
9, 387360, Note_off_c, 9, 63, 95
9, 387360, Note_on_c, 9, 82, 95
9, 387360, Note_on_c, 9, 81, 95
9, 387840, Note_off_c, 9, 82, 95
9, 387840, Note_off_c, 9, 81, 95
9, 387840, Note_on_c, 9, 82, 95
9, 387840, Note_on_c, 9, 63, 95
9, 388320, Note_off_c, 9, 82, 95
9, 388320, Note_off_c, 9, 63, 95
9, 388320, Note_on_c, 9, 82, 95
9, 388800, Note_off_c, 9, 82, 95
9, 388800, Note_on_c, 9, 82, 95
9, 388800, Note_on_c, 9, 81, 95
9, 388800, Note_on_c, 9, 64, 95
9, 389280, Note_off_c, 9, 82, 95
9, 389280, Note_off_c, 9, 81, 95
9, 389280, Note_off_c, 9, 64, 95
9, 389280, Note_on_c, 9, 82, 95
9, 389760, Note_off_c, 9, 82, 95
9, 389760, Note_on_c, 9, 82, 95
9, 389760, Note_on_c, 9, 64, 95
9, 390240, Note_off_c, 9, 82, 95
9, 390240, Note_off_c, 9, 64, 95
9, 390240, Note_on_c, 9, 82, 95
9, 390240, Note_on_c, 9, 81, 95
9, 390720, Note_off_c, 9, 82, 95
9, 390720, Note_off_c, 9, 81, 95
9, 390720, Note_on_c, 9, 82, 95
9, 390720, Note_on_c, 9, 64, 95
9, 391200, Note_off_c, 9, 82, 95
9, 391200, Note_off_c, 9, 64, 95
9, 391200, Note_on_c, 9, 82, 95
9, 391680, Note_off_c, 9, 82, 95
9, 391680, Note_on_c, 9, 82, 95
9, 391680, Note_on_c, 9, 81, 95
9, 391680, Note_on_c, 9, 63, 95
9, 392160, Note_off_c, 9, 82, 95
9, 392160, Note_off_c, 9, 81, 95
9, 392160, Note_off_c, 9, 63, 95
9, 392160, Note_on_c, 9, 82, 95
9, 392640, Note_off_c, 9, 82, 95
9, 392640, Note_on_c, 9, 82, 95
9, 392640, Note_on_c, 9, 63, 95
9, 393120, Note_off_c, 9, 82, 95
9, 393120, Note_off_c, 9, 63, 95
9, 393120, Note_on_c, 9, 82, 95
9, 393120, Note_on_c, 9, 81, 95
9, 393600, Note_off_c, 9, 82, 95
9, 393600, Note_off_c, 9, 81, 95
9, 393600, Note_on_c, 9, 82, 95
9, 393600, Note_on_c, 9, 63, 95
9, 394080, Note_off_c, 9, 82, 95
9, 394080, Note_off_c, 9, 63, 95
9, 394080, Note_on_c, 9, 82, 95
9, 394560, Note_off_c, 9, 82, 95
9, 394560, Note_on_c, 9, 82, 95
9, 394560, Note_on_c, 9, 81, 95
9, 394560, Note_on_c, 9, 64, 95
9, 395040, Note_off_c, 9, 82, 95
9, 395040, Note_off_c, 9, 81, 95
9, 395040, Note_off_c, 9, 64, 95
9, 395040, Note_on_c, 9, 82, 95
9, 395520, Note_off_c, 9, 82, 95
9, 395520, Note_on_c, 9, 82, 95
9, 395520, Note_on_c, 9, 64, 95
9, 396000, Note_off_c, 9, 82, 95
9, 396000, Note_off_c, 9, 64, 95
9, 396000, Note_on_c, 9, 82, 95
9, 396000, Note_on_c, 9, 81, 95
9, 396480, Note_off_c, 9, 82, 95
9, 396480, Note_off_c, 9, 81, 95
9, 396480, Note_on_c, 9, 82, 95
9, 396480, Note_on_c, 9, 64, 95
9, 396960, Note_off_c, 9, 82, 95
9, 396960, Note_off_c, 9, 64, 95
9, 396960, Note_on_c, 9, 82, 95
9, 397440, Note_off_c, 9, 82, 95
9, 397440, Note_on_c, 9, 82, 95
9, 397440, Note_on_c, 9, 81, 95
9, 397440, Note_on_c, 9, 63, 95
9, 397920, Note_off_c, 9, 82, 95
9, 397920, Note_off_c, 9, 81, 95
9, 397920, Note_off_c, 9, 63, 95
9, 397920, Note_on_c, 9, 82, 95
9, 398400, Note_off_c, 9, 82, 95
9, 398400, Note_on_c, 9, 82, 95
9, 398400, Note_on_c, 9, 63, 95
9, 398880, Note_off_c, 9, 82, 95
9, 398880, Note_off_c, 9, 63, 95
9, 398880, Note_on_c, 9, 82, 95
9, 398880, Note_on_c, 9, 81, 95
9, 399360, Note_off_c, 9, 82, 95
9, 399360, Note_off_c, 9, 81, 95
9, 399360, Note_on_c, 9, 82, 95
9, 399360, Note_on_c, 9, 63, 95
9, 399840, Note_off_c, 9, 82, 95
9, 399840, Note_off_c, 9, 63, 95
9, 399840, Note_on_c, 9, 82, 95
9, 400320, Note_off_c, 9, 82, 95
9, 400320, Note_on_c, 9, 82, 95
9, 400320, Note_on_c, 9, 81, 95
9, 400320, Note_on_c, 9, 64, 95
9, 400800, Note_off_c, 9, 82, 95
9, 400800, Note_off_c, 9, 81, 95
9, 400800, Note_off_c, 9, 64, 95
9, 400800, Note_on_c, 9, 82, 95
9, 401280, Note_off_c, 9, 82, 95
9, 401280, Note_on_c, 9, 82, 95
9, 401280, Note_on_c, 9, 64, 95
9, 401760, Note_off_c, 9, 82, 95
9, 401760, Note_off_c, 9, 64, 95
9, 401760, Note_on_c, 9, 82, 95
9, 401760, Note_on_c, 9, 81, 95
9, 402240, Note_off_c, 9, 82, 95
9, 402240, Note_off_c, 9, 81, 95
9, 402240, Note_on_c, 9, 82, 95
9, 402240, Note_on_c, 9, 64, 95
9, 402720, Note_off_c, 9, 82, 95
9, 402720, Note_off_c, 9, 64, 95
9, 402720, Note_on_c, 9, 82, 95
9, 403200, Note_off_c, 9, 82, 95
9, 403200, Note_on_c, 9, 82, 95
9, 403200, Note_on_c, 9, 81, 95
9, 403200, Note_on_c, 9, 63, 95
9, 403680, Note_off_c, 9, 82, 95
9, 403680, Note_off_c, 9, 81, 95
9, 403680, Note_off_c, 9, 63, 95
9, 403680, Note_on_c, 9, 82, 95
9, 404160, Note_off_c, 9, 82, 95
9, 404160, Note_on_c, 9, 82, 95
9, 404160, Note_on_c, 9, 63, 95
9, 404640, Note_off_c, 9, 82, 95
9, 404640, Note_off_c, 9, 63, 95
9, 404640, Note_on_c, 9, 82, 95
9, 404640, Note_on_c, 9, 81, 95
9, 405120, Note_off_c, 9, 82, 95
9, 405120, Note_off_c, 9, 81, 95
9, 405120, Note_on_c, 9, 82, 95
9, 405120, Note_on_c, 9, 63, 95
9, 405600, Note_off_c, 9, 82, 95
9, 405600, Note_off_c, 9, 63, 95
9, 405600, Note_on_c, 9, 82, 95
9, 406080, Note_off_c, 9, 82, 95
9, 406080, Note_on_c, 9, 82, 95
9, 406080, Note_on_c, 9, 81, 95
9, 406080, Note_on_c, 9, 64, 95
9, 406560, Note_off_c, 9, 82, 95
9, 406560, Note_off_c, 9, 81, 95
9, 406560, Note_off_c, 9, 64, 95
9, 406560, Note_on_c, 9, 82, 95
9, 407040, Note_off_c, 9, 82, 95
9, 407040, Note_on_c, 9, 82, 95
9, 407040, Note_on_c, 9, 64, 95
9, 407520, Note_off_c, 9, 82, 95
9, 407520, Note_off_c, 9, 64, 95
9, 407520, Note_on_c, 9, 82, 95
9, 407520, Note_on_c, 9, 81, 95
9, 408000, Note_off_c, 9, 82, 95
9, 408000, Note_off_c, 9, 81, 95
9, 408000, Note_on_c, 9, 82, 95
9, 408000, Note_on_c, 9, 64, 95
9, 408480, Note_off_c, 9, 82, 95
9, 408480, Note_off_c, 9, 64, 95
9, 408480, Note_on_c, 9, 82, 95
9, 408960, Note_off_c, 9, 82, 95
9, 408960, Note_on_c, 9, 82, 95
9, 408960, Note_on_c, 9, 81, 95
9, 408960, Note_on_c, 9, 63, 95
9, 409440, Note_off_c, 9, 82, 95
9, 409440, Note_off_c, 9, 81, 95
9, 409440, Note_off_c, 9, 63, 95
9, 409440, Note_on_c, 9, 82, 95
9, 409920, Note_off_c, 9, 82, 95
9, 409920, Note_on_c, 9, 82, 95
9, 409920, Note_on_c, 9, 63, 95
9, 410400, Note_off_c, 9, 82, 95
9, 410400, Note_off_c, 9, 63, 95
9, 410400, Note_on_c, 9, 82, 95
9, 410400, Note_on_c, 9, 81, 95
9, 410880, Note_off_c, 9, 82, 95
9, 410880, Note_off_c, 9, 81, 95
9, 410880, Note_on_c, 9, 82, 95
9, 410880, Note_on_c, 9, 63, 95
9, 411360, Note_off_c, 9, 82, 95
9, 411360, Note_off_c, 9, 63, 95
9, 411360, Note_on_c, 9, 82, 95
9, 411840, Note_off_c, 9, 82, 95
9, 411840, Note_on_c, 9, 82, 95
9, 411840, Note_on_c, 9, 81, 95
9, 411840, Note_on_c, 9, 64, 95
9, 412320, Note_off_c, 9, 82, 95
9, 412320, Note_off_c, 9, 81, 95
9, 412320, Note_off_c, 9, 64, 95
9, 412320, Note_on_c, 9, 82, 95
9, 412800, Note_off_c, 9, 82, 95
9, 412800, Note_on_c, 9, 82, 95
9, 412800, Note_on_c, 9, 64, 95
9, 413280, Note_off_c, 9, 82, 95
9, 413280, Note_off_c, 9, 64, 95
9, 413280, Note_on_c, 9, 82, 95
9, 413280, Note_on_c, 9, 81, 95
9, 413760, Note_off_c, 9, 82, 95
9, 413760, Note_off_c, 9, 81, 95
9, 413760, Note_on_c, 9, 82, 95
9, 413760, Note_on_c, 9, 64, 95
9, 414240, Note_off_c, 9, 82, 95
9, 414240, Note_off_c, 9, 64, 95
9, 414240, Note_on_c, 9, 82, 95
9, 414720, Note_off_c, 9, 82, 95
9, 414720, Note_on_c, 9, 82, 95
9, 414720, Note_on_c, 9, 81, 95
9, 414720, Note_on_c, 9, 63, 95
9, 415200, Note_off_c, 9, 82, 95
9, 415200, Note_off_c, 9, 81, 95
9, 415200, Note_off_c, 9, 63, 95
9, 415200, Note_on_c, 9, 82, 95
9, 415680, Note_off_c, 9, 82, 95
9, 415680, Note_on_c, 9, 82, 95
9, 415680, Note_on_c, 9, 63, 95
9, 416160, Note_off_c, 9, 82, 95
9, 416160, Note_off_c, 9, 63, 95
9, 416160, Note_on_c, 9, 82, 95
9, 416160, Note_on_c, 9, 81, 95
9, 416640, Note_off_c, 9, 82, 95
9, 416640, Note_off_c, 9, 81, 95
9, 416640, Note_on_c, 9, 82, 95
9, 416640, Note_on_c, 9, 63, 95
9, 417120, Note_off_c, 9, 82, 95
9, 417120, Note_off_c, 9, 63, 95
9, 417120, Note_on_c, 9, 82, 95
9, 417600, Note_off_c, 9, 82, 95
9, 417600, Note_on_c, 9, 82, 95
9, 417600, Note_on_c, 9, 81, 95
9, 417600, Note_on_c, 9, 64, 95
9, 418080, Note_off_c, 9, 82, 95
9, 418080, Note_off_c, 9, 81, 95
9, 418080, Note_off_c, 9, 64, 95
9, 418080, Note_on_c, 9, 82, 95
9, 418560, Note_off_c, 9, 82, 95
9, 418560, Note_on_c, 9, 82, 95
9, 418560, Note_on_c, 9, 64, 95
9, 419040, Note_off_c, 9, 82, 95
9, 419040, Note_off_c, 9, 64, 95
9, 419040, Note_on_c, 9, 82, 95
9, 419040, Note_on_c, 9, 81, 95
9, 419520, Note_off_c, 9, 82, 95
9, 419520, Note_off_c, 9, 81, 95
9, 419520, Note_on_c, 9, 82, 95
9, 419520, Note_on_c, 9, 64, 95
9, 420000, Note_off_c, 9, 82, 95
9, 420000, Note_off_c, 9, 64, 95
9, 420000, Note_on_c, 9, 82, 95
9, 420480, Note_off_c, 9, 82, 95
9, 420480, Note_on_c, 9, 82, 95
9, 420480, Note_on_c, 9, 81, 95
9, 420480, Note_on_c, 9, 63, 95
9, 420960, Note_off_c, 9, 82, 95
9, 420960, Note_off_c, 9, 81, 95
9, 420960, Note_off_c, 9, 63, 95
9, 420960, Note_on_c, 9, 82, 95
9, 421440, Note_off_c, 9, 82, 95
9, 421440, Note_on_c, 9, 82, 95
9, 421440, Note_on_c, 9, 63, 95
9, 421920, Note_off_c, 9, 82, 95
9, 421920, Note_off_c, 9, 63, 95
9, 421920, Note_on_c, 9, 82, 95
9, 421920, Note_on_c, 9, 81, 95
9, 422400, Note_off_c, 9, 82, 95
9, 422400, Note_off_c, 9, 81, 95
9, 422400, Note_on_c, 9, 82, 95
9, 422400, Note_on_c, 9, 63, 95
9, 422880, Note_off_c, 9, 82, 95
9, 422880, Note_off_c, 9, 63, 95
9, 422880, Note_on_c, 9, 82, 95
9, 423360, Note_off_c, 9, 82, 95
9, 423360, Note_on_c, 9, 82, 95
9, 423360, Note_on_c, 9, 81, 95
9, 423360, Note_on_c, 9, 64, 95
9, 423840, Note_off_c, 9, 82, 95
9, 423840, Note_off_c, 9, 81, 95
9, 423840, Note_off_c, 9, 64, 95
9, 423840, Note_on_c, 9, 82, 95
9, 424320, Note_off_c, 9, 82, 95
9, 424320, Note_on_c, 9, 82, 95
9, 424320, Note_on_c, 9, 64, 95
9, 424800, Note_off_c, 9, 82, 95
9, 424800, Note_off_c, 9, 64, 95
9, 424800, Note_on_c, 9, 82, 95
9, 424800, Note_on_c, 9, 81, 95
9, 425280, Note_off_c, 9, 82, 95
9, 425280, Note_off_c, 9, 81, 95
9, 425280, Note_on_c, 9, 82, 95
9, 425280, Note_on_c, 9, 64, 95
9, 425760, Note_off_c, 9, 82, 95
9, 425760, Note_off_c, 9, 64, 95
9, 425760, Note_on_c, 9, 82, 95
9, 426240, Note_off_c, 9, 82, 95
9, 426240, Note_on_c, 9, 82, 95
9, 426240, Note_on_c, 9, 81, 95
9, 426240, Note_on_c, 9, 63, 95
9, 426720, Note_off_c, 9, 82, 95
9, 426720, Note_off_c, 9, 81, 95
9, 426720, Note_off_c, 9, 63, 95
9, 426720, Note_on_c, 9, 82, 95
9, 427200, Note_off_c, 9, 82, 95
9, 427200, Note_on_c, 9, 82, 95
9, 427200, Note_on_c, 9, 63, 95
9, 427680, Note_off_c, 9, 82, 95
9, 427680, Note_off_c, 9, 63, 95
9, 427680, Note_on_c, 9, 82, 95
9, 427680, Note_on_c, 9, 81, 95
9, 428160, Note_off_c, 9, 82, 95
9, 428160, Note_off_c, 9, 81, 95
9, 428160, Note_on_c, 9, 82, 95
9, 428160, Note_on_c, 9, 63, 95
9, 428640, Note_off_c, 9, 82, 95
9, 428640, Note_off_c, 9, 63, 95
9, 428640, Note_on_c, 9, 82, 95
9, 429120, Note_off_c, 9, 82, 95
9, 429120, Note_on_c, 9, 82, 95
9, 429120, Note_on_c, 9, 81, 95
9, 429120, Note_on_c, 9, 64, 95
9, 429600, Note_off_c, 9, 82, 95
9, 429600, Note_off_c, 9, 81, 95
9, 429600, Note_off_c, 9, 64, 95
9, 429600, Note_on_c, 9, 82, 95
9, 430080, Note_off_c, 9, 82, 95
9, 430080, Note_on_c, 9, 82, 95
9, 430080, Note_on_c, 9, 64, 95
9, 430560, Note_off_c, 9, 82, 95
9, 430560, Note_off_c, 9, 64, 95
9, 430560, Note_on_c, 9, 82, 95
9, 430560, Note_on_c, 9, 81, 95
9, 431040, Note_off_c, 9, 82, 95
9, 431040, Note_off_c, 9, 81, 95
9, 431040, Note_on_c, 9, 82, 95
9, 431040, Note_on_c, 9, 64, 95
9, 431520, Note_off_c, 9, 82, 95
9, 431520, Note_off_c, 9, 64, 95
9, 431520, Note_on_c, 9, 82, 95
9, 432000, Note_off_c, 9, 82, 95
9, 437760, Note_on_c, 9, 82, 95
9, 437760, Note_on_c, 9, 81, 95
9, 437760, Note_on_c, 9, 63, 95
9, 438240, Note_off_c, 9, 82, 95
9, 438240, Note_off_c, 9, 81, 95
9, 438240, Note_off_c, 9, 63, 95
9, 438240, Note_on_c, 9, 82, 95
9, 438720, Note_off_c, 9, 82, 95
9, 438720, Note_on_c, 9, 82, 95
9, 438720, Note_on_c, 9, 63, 95
9, 439200, Note_off_c, 9, 82, 95
9, 439200, Note_off_c, 9, 63, 95
9, 439200, Note_on_c, 9, 82, 95
9, 439200, Note_on_c, 9, 81, 95
9, 439680, Note_off_c, 9, 82, 95
9, 439680, Note_off_c, 9, 81, 95
9, 439680, Note_on_c, 9, 82, 95
9, 439680, Note_on_c, 9, 63, 95
9, 440160, Note_off_c, 9, 82, 95
9, 440160, Note_off_c, 9, 63, 95
9, 440160, Note_on_c, 9, 82, 95
9, 440640, Note_off_c, 9, 82, 95
9, 440640, Note_on_c, 9, 82, 95
9, 440640, Note_on_c, 9, 81, 95
9, 440640, Note_on_c, 9, 64, 95
9, 441120, Note_off_c, 9, 82, 95
9, 441120, Note_off_c, 9, 81, 95
9, 441120, Note_off_c, 9, 64, 95
9, 441120, Note_on_c, 9, 82, 95
9, 441600, Note_off_c, 9, 82, 95
9, 441600, Note_on_c, 9, 82, 95
9, 441600, Note_on_c, 9, 64, 95
9, 442080, Note_off_c, 9, 82, 95
9, 442080, Note_off_c, 9, 64, 95
9, 442080, Note_on_c, 9, 82, 95
9, 442080, Note_on_c, 9, 81, 95
9, 442560, Note_off_c, 9, 82, 95
9, 442560, Note_off_c, 9, 81, 95
9, 442560, Note_on_c, 9, 82, 95
9, 442560, Note_on_c, 9, 64, 95
9, 443040, Note_off_c, 9, 82, 95
9, 443040, Note_off_c, 9, 64, 95
9, 443040, Note_on_c, 9, 82, 95
9, 443520, Note_off_c, 9, 82, 95
9, 443520, Note_on_c, 9, 82, 95
9, 443520, Note_on_c, 9, 81, 95
9, 443520, Note_on_c, 9, 63, 95
9, 444000, Note_off_c, 9, 82, 95
9, 444000, Note_off_c, 9, 81, 95
9, 444000, Note_off_c, 9, 63, 95
9, 444000, Note_on_c, 9, 82, 95
9, 444480, Note_off_c, 9, 82, 95
9, 444480, Note_on_c, 9, 82, 95
9, 444480, Note_on_c, 9, 63, 95
9, 444960, Note_off_c, 9, 82, 95
9, 444960, Note_off_c, 9, 63, 95
9, 444960, Note_on_c, 9, 82, 95
9, 444960, Note_on_c, 9, 81, 95
9, 445440, Note_off_c, 9, 82, 95
9, 445440, Note_off_c, 9, 81, 95
9, 445440, Note_on_c, 9, 82, 95
9, 445440, Note_on_c, 9, 63, 95
9, 445920, Note_off_c, 9, 82, 95
9, 445920, Note_off_c, 9, 63, 95
9, 445920, Note_on_c, 9, 82, 95
9, 446400, Note_off_c, 9, 82, 95
9, 446400, Note_on_c, 9, 82, 95
9, 446400, Note_on_c, 9, 81, 95
9, 446400, Note_on_c, 9, 64, 95
9, 446880, Note_off_c, 9, 82, 95
9, 446880, Note_off_c, 9, 81, 95
9, 446880, Note_off_c, 9, 64, 95
9, 446880, Note_on_c, 9, 82, 95
9, 447360, Note_off_c, 9, 82, 95
9, 447360, Note_on_c, 9, 82, 95
9, 447360, Note_on_c, 9, 64, 95
9, 447840, Note_off_c, 9, 82, 95
9, 447840, Note_off_c, 9, 64, 95
9, 447840, Note_on_c, 9, 82, 95
9, 447840, Note_on_c, 9, 81, 95
9, 448320, Note_off_c, 9, 82, 95
9, 448320, Note_off_c, 9, 81, 95
9, 448320, Note_on_c, 9, 82, 95
9, 448320, Note_on_c, 9, 64, 95
9, 448800, Note_off_c, 9, 82, 95
9, 448800, Note_off_c, 9, 64, 95
9, 448800, Note_on_c, 9, 82, 95
9, 449280, Note_off_c, 9, 82, 95
9, 449280, Note_on_c, 9, 82, 95
9, 449280, Note_on_c, 9, 81, 95
9, 449280, Note_on_c, 9, 63, 95
9, 449760, Note_off_c, 9, 82, 95
9, 449760, Note_off_c, 9, 81, 95
9, 449760, Note_off_c, 9, 63, 95
9, 449760, Note_on_c, 9, 82, 95
9, 450240, Note_off_c, 9, 82, 95
9, 450240, Note_on_c, 9, 82, 95
9, 450240, Note_on_c, 9, 63, 95
9, 450720, Note_off_c, 9, 82, 95
9, 450720, Note_off_c, 9, 63, 95
9, 450720, Note_on_c, 9, 82, 95
9, 450720, Note_on_c, 9, 81, 95
9, 451200, Note_off_c, 9, 82, 95
9, 451200, Note_off_c, 9, 81, 95
9, 451200, Note_on_c, 9, 82, 95
9, 451200, Note_on_c, 9, 63, 95
9, 451680, Note_off_c, 9, 82, 95
9, 451680, Note_off_c, 9, 63, 95
9, 451680, Note_on_c, 9, 82, 95
9, 452160, Note_off_c, 9, 82, 95
9, 452160, Note_on_c, 9, 82, 95
9, 452160, Note_on_c, 9, 81, 95
9, 452160, Note_on_c, 9, 64, 95
9, 452640, Note_off_c, 9, 82, 95
9, 452640, Note_off_c, 9, 81, 95
9, 452640, Note_off_c, 9, 64, 95
9, 452640, Note_on_c, 9, 82, 95
9, 453120, Note_off_c, 9, 82, 95
9, 453120, Note_on_c, 9, 82, 95
9, 453120, Note_on_c, 9, 64, 95
9, 453600, Note_off_c, 9, 82, 95
9, 453600, Note_off_c, 9, 64, 95
9, 453600, Note_on_c, 9, 82, 95
9, 453600, Note_on_c, 9, 81, 95
9, 454080, Note_off_c, 9, 82, 95
9, 454080, Note_off_c, 9, 81, 95
9, 454080, Note_on_c, 9, 82, 95
9, 454080, Note_on_c, 9, 64, 95
9, 454560, Note_off_c, 9, 82, 95
9, 454560, Note_off_c, 9, 64, 95
9, 454560, Note_on_c, 9, 82, 95
9, 455040, Note_off_c, 9, 82, 95
9, 455040, Note_on_c, 9, 82, 95
9, 455040, Note_on_c, 9, 81, 95
9, 455040, Note_on_c, 9, 63, 95
9, 455520, Note_off_c, 9, 82, 95
9, 455520, Note_off_c, 9, 81, 95
9, 455520, Note_off_c, 9, 63, 95
9, 455520, Note_on_c, 9, 82, 95
9, 456000, Note_off_c, 9, 82, 95
9, 456000, Note_on_c, 9, 82, 95
9, 456000, Note_on_c, 9, 63, 95
9, 456480, Note_off_c, 9, 82, 95
9, 456480, Note_off_c, 9, 63, 95
9, 456480, Note_on_c, 9, 82, 95
9, 456480, Note_on_c, 9, 81, 95
9, 456960, Note_off_c, 9, 82, 95
9, 456960, Note_off_c, 9, 81, 95
9, 456960, Note_on_c, 9, 82, 95
9, 456960, Note_on_c, 9, 63, 95
9, 457440, Note_off_c, 9, 82, 95
9, 457440, Note_off_c, 9, 63, 95
9, 457440, Note_on_c, 9, 82, 95
9, 457920, Note_off_c, 9, 82, 95
9, 457920, Note_on_c, 9, 82, 95
9, 457920, Note_on_c, 9, 81, 95
9, 457920, Note_on_c, 9, 64, 95
9, 458400, Note_off_c, 9, 82, 95
9, 458400, Note_off_c, 9, 81, 95
9, 458400, Note_off_c, 9, 64, 95
9, 458400, Note_on_c, 9, 82, 95
9, 458880, Note_off_c, 9, 82, 95
9, 458880, Note_on_c, 9, 82, 95
9, 458880, Note_on_c, 9, 64, 95
9, 459360, Note_off_c, 9, 82, 95
9, 459360, Note_off_c, 9, 64, 95
9, 459360, Note_on_c, 9, 82, 95
9, 459360, Note_on_c, 9, 81, 95
9, 459840, Note_off_c, 9, 82, 95
9, 459840, Note_off_c, 9, 81, 95
9, 459840, Note_on_c, 9, 82, 95
9, 459840, Note_on_c, 9, 64, 95
9, 460320, Note_off_c, 9, 82, 95
9, 460320, Note_off_c, 9, 64, 95
9, 460320, Note_on_c, 9, 82, 95
9, 460800, Note_off_c, 9, 82, 95
9, 460800, Note_on_c, 9, 82, 95
9, 460800, Note_on_c, 9, 81, 95
9, 460800, Note_on_c, 9, 63, 95
9, 461280, Note_off_c, 9, 82, 95
9, 461280, Note_off_c, 9, 81, 95
9, 461280, Note_off_c, 9, 63, 95
9, 461280, Note_on_c, 9, 82, 95
9, 461760, Note_off_c, 9, 82, 95
9, 461760, Note_on_c, 9, 82, 95
9, 461760, Note_on_c, 9, 63, 95
9, 462240, Note_off_c, 9, 82, 95
9, 462240, Note_off_c, 9, 63, 95
9, 462240, Note_on_c, 9, 82, 95
9, 462240, Note_on_c, 9, 81, 95
9, 462720, Note_off_c, 9, 82, 95
9, 462720, Note_off_c, 9, 81, 95
9, 462720, Note_on_c, 9, 82, 95
9, 462720, Note_on_c, 9, 63, 95
9, 463200, Note_off_c, 9, 82, 95
9, 463200, Note_off_c, 9, 63, 95
9, 463200, Note_on_c, 9, 82, 95
9, 463680, Note_off_c, 9, 82, 95
9, 463680, Note_on_c, 9, 82, 95
9, 463680, Note_on_c, 9, 81, 95
9, 463680, Note_on_c, 9, 64, 95
9, 464160, Note_off_c, 9, 82, 95
9, 464160, Note_off_c, 9, 81, 95
9, 464160, Note_off_c, 9, 64, 95
9, 464160, Note_on_c, 9, 82, 95
9, 464640, Note_off_c, 9, 82, 95
9, 464640, Note_on_c, 9, 82, 95
9, 464640, Note_on_c, 9, 64, 95
9, 465120, Note_off_c, 9, 82, 95
9, 465120, Note_off_c, 9, 64, 95
9, 465120, Note_on_c, 9, 82, 95
9, 465120, Note_on_c, 9, 81, 95
9, 465600, Note_off_c, 9, 82, 95
9, 465600, Note_off_c, 9, 81, 95
9, 465600, Note_on_c, 9, 82, 95
9, 465600, Note_on_c, 9, 64, 95
9, 466080, Note_off_c, 9, 82, 95
9, 466080, Note_off_c, 9, 64, 95
9, 466080, Note_on_c, 9, 82, 95
9, 466560, Note_off_c, 9, 82, 95
9, 466560, Note_on_c, 9, 82, 95
9, 466560, Note_on_c, 9, 81, 95
9, 466560, Note_on_c, 9, 63, 95
9, 467040, Note_off_c, 9, 82, 95
9, 467040, Note_off_c, 9, 81, 95
9, 467040, Note_off_c, 9, 63, 95
9, 467040, Note_on_c, 9, 82, 95
9, 467520, Note_off_c, 9, 82, 95
9, 467520, Note_on_c, 9, 82, 95
9, 467520, Note_on_c, 9, 63, 95
9, 468000, Note_off_c, 9, 82, 95
9, 468000, Note_off_c, 9, 63, 95
9, 468000, Note_on_c, 9, 82, 95
9, 468000, Note_on_c, 9, 81, 95
9, 468480, Note_off_c, 9, 82, 95
9, 468480, Note_off_c, 9, 81, 95
9, 468480, Note_on_c, 9, 82, 95
9, 468480, Note_on_c, 9, 63, 95
9, 468960, Note_off_c, 9, 82, 95
9, 468960, Note_off_c, 9, 63, 95
9, 468960, Note_on_c, 9, 82, 95
9, 469440, Note_off_c, 9, 82, 95
9, 469440, Note_on_c, 9, 82, 95
9, 469440, Note_on_c, 9, 81, 95
9, 469440, Note_on_c, 9, 64, 95
9, 469920, Note_off_c, 9, 82, 95
9, 469920, Note_off_c, 9, 81, 95
9, 469920, Note_off_c, 9, 64, 95
9, 469920, Note_on_c, 9, 82, 95
9, 470400, Note_off_c, 9, 82, 95
9, 470400, Note_on_c, 9, 82, 95
9, 470400, Note_on_c, 9, 64, 95
9, 470880, Note_off_c, 9, 82, 95
9, 470880, Note_off_c, 9, 64, 95
9, 470880, Note_on_c, 9, 82, 95
9, 470880, Note_on_c, 9, 81, 95
9, 471360, Note_off_c, 9, 82, 95
9, 471360, Note_off_c, 9, 81, 95
9, 471360, Note_on_c, 9, 82, 95
9, 471360, Note_on_c, 9, 64, 95
9, 471840, Note_off_c, 9, 82, 95
9, 471840, Note_off_c, 9, 64, 95
9, 471840, Note_on_c, 9, 82, 95
9, 472320, Note_off_c, 9, 82, 95
9, 472320, Note_on_c, 9, 82, 95
9, 472320, Note_on_c, 9, 81, 95
9, 472320, Note_on_c, 9, 63, 95
9, 472800, Note_off_c, 9, 82, 95
9, 472800, Note_off_c, 9, 81, 95
9, 472800, Note_off_c, 9, 63, 95
9, 472800, Note_on_c, 9, 82, 95
9, 473280, Note_off_c, 9, 82, 95
9, 473280, Note_on_c, 9, 82, 95
9, 473280, Note_on_c, 9, 63, 95
9, 473760, Note_off_c, 9, 82, 95
9, 473760, Note_off_c, 9, 63, 95
9, 473760, Note_on_c, 9, 82, 95
9, 473760, Note_on_c, 9, 81, 95
9, 474240, Note_off_c, 9, 82, 95
9, 474240, Note_off_c, 9, 81, 95
9, 474240, Note_on_c, 9, 82, 95
9, 474240, Note_on_c, 9, 63, 95
9, 474720, Note_off_c, 9, 82, 95
9, 474720, Note_off_c, 9, 63, 95
9, 474720, Note_on_c, 9, 82, 95
9, 475200, Note_off_c, 9, 82, 95
9, 475200, Note_on_c, 9, 82, 95
9, 475200, Note_on_c, 9, 81, 95
9, 475200, Note_on_c, 9, 64, 95
9, 475680, Note_off_c, 9, 82, 95
9, 475680, Note_off_c, 9, 81, 95
9, 475680, Note_off_c, 9, 64, 95
9, 475680, Note_on_c, 9, 82, 95
9, 476160, Note_off_c, 9, 82, 95
9, 476160, Note_on_c, 9, 82, 95
9, 476160, Note_on_c, 9, 64, 95
9, 476640, Note_off_c, 9, 82, 95
9, 476640, Note_off_c, 9, 64, 95
9, 476640, Note_on_c, 9, 82, 95
9, 476640, Note_on_c, 9, 81, 95
9, 477120, Note_off_c, 9, 82, 95
9, 477120, Note_off_c, 9, 81, 95
9, 477120, Note_on_c, 9, 82, 95
9, 477120, Note_on_c, 9, 64, 95
9, 477600, Note_off_c, 9, 82, 95
9, 477600, Note_off_c, 9, 64, 95
9, 477600, Note_on_c, 9, 82, 95
9, 478080, Note_off_c, 9, 82, 95
9, 478080, Note_on_c, 9, 82, 95
9, 478080, Note_on_c, 9, 81, 95
9, 478080, Note_on_c, 9, 63, 95
9, 478560, Note_off_c, 9, 82, 95
9, 478560, Note_off_c, 9, 81, 95
9, 478560, Note_off_c, 9, 63, 95
9, 478560, Note_on_c, 9, 82, 95
9, 479040, Note_off_c, 9, 82, 95
9, 479040, Note_on_c, 9, 82, 95
9, 479040, Note_on_c, 9, 63, 95
9, 479520, Note_off_c, 9, 82, 95
9, 479520, Note_off_c, 9, 63, 95
9, 479520, Note_on_c, 9, 82, 95
9, 479520, Note_on_c, 9, 81, 95
9, 480000, Note_off_c, 9, 82, 95
9, 480000, Note_off_c, 9, 81, 95
9, 480000, Note_on_c, 9, 82, 95
9, 480000, Note_on_c, 9, 63, 95
9, 480480, Note_off_c, 9, 82, 95
9, 480480, Note_off_c, 9, 63, 95
9, 480480, Note_on_c, 9, 82, 95
9, 480960, Note_off_c, 9, 82, 95
9, 480960, Note_on_c, 9, 82, 95
9, 480960, Note_on_c, 9, 81, 95
9, 480960, Note_on_c, 9, 64, 95
9, 481440, Note_off_c, 9, 82, 95
9, 481440, Note_off_c, 9, 81, 95
9, 481440, Note_off_c, 9, 64, 95
9, 481440, Note_on_c, 9, 82, 95
9, 481920, Note_off_c, 9, 82, 95
9, 481920, Note_on_c, 9, 82, 95
9, 481920, Note_on_c, 9, 64, 95
9, 482400, Note_off_c, 9, 82, 95
9, 482400, Note_off_c, 9, 64, 95
9, 482400, Note_on_c, 9, 82, 95
9, 482400, Note_on_c, 9, 81, 95
9, 482880, Note_off_c, 9, 82, 95
9, 482880, Note_off_c, 9, 81, 95
9, 482880, Note_on_c, 9, 82, 95
9, 482880, Note_on_c, 9, 64, 95
9, 483360, Note_off_c, 9, 82, 95
9, 483360, Note_off_c, 9, 64, 95
9, 483360, Note_on_c, 9, 82, 95
9, 483840, Note_off_c, 9, 82, 95
9, 483840, Note_on_c, 9, 82, 95
9, 483840, Note_on_c, 9, 81, 95
9, 483840, Note_on_c, 9, 63, 95
9, 484320, Note_off_c, 9, 82, 95
9, 484320, Note_off_c, 9, 81, 95
9, 484320, Note_off_c, 9, 63, 95
9, 484320, Note_on_c, 9, 82, 95
9, 484800, Note_off_c, 9, 82, 95
9, 484800, Note_on_c, 9, 82, 95
9, 484800, Note_on_c, 9, 63, 95
9, 485280, Note_off_c, 9, 82, 95
9, 485280, Note_off_c, 9, 63, 95
9, 485280, Note_on_c, 9, 82, 95
9, 485280, Note_on_c, 9, 81, 95
9, 485760, Note_off_c, 9, 82, 95
9, 485760, Note_off_c, 9, 81, 95
9, 485760, Note_on_c, 9, 82, 95
9, 485760, Note_on_c, 9, 63, 95
9, 486240, Note_off_c, 9, 82, 95
9, 486240, Note_off_c, 9, 63, 95
9, 486240, Note_on_c, 9, 82, 95
9, 486720, Note_off_c, 9, 82, 95
9, 486720, Note_on_c, 9, 82, 95
9, 486720, Note_on_c, 9, 81, 95
9, 486720, Note_on_c, 9, 64, 95
9, 487200, Note_off_c, 9, 82, 95
9, 487200, Note_off_c, 9, 81, 95
9, 487200, Note_off_c, 9, 64, 95
9, 487200, Note_on_c, 9, 82, 95
9, 487680, Note_off_c, 9, 82, 95
9, 487680, Note_on_c, 9, 82, 95
9, 487680, Note_on_c, 9, 64, 95
9, 488160, Note_off_c, 9, 82, 95
9, 488160, Note_off_c, 9, 64, 95
9, 488160, Note_on_c, 9, 82, 95
9, 488160, Note_on_c, 9, 81, 95
9, 488640, Note_off_c, 9, 82, 95
9, 488640, Note_off_c, 9, 81, 95
9, 488640, Note_on_c, 9, 82, 95
9, 488640, Note_on_c, 9, 64, 95
9, 489120, Note_off_c, 9, 82, 95
9, 489120, Note_off_c, 9, 64, 95
9, 489120, Note_on_c, 9, 82, 95
9, 489600, Note_off_c, 9, 82, 95
9, 489600, Note_on_c, 9, 82, 95
9, 489600, Note_on_c, 9, 81, 95
9, 489600, Note_on_c, 9, 63, 95
9, 490080, Note_off_c, 9, 82, 95
9, 490080, Note_off_c, 9, 81, 95
9, 490080, Note_off_c, 9, 63, 95
9, 490080, Note_on_c, 9, 82, 95
9, 490560, Note_off_c, 9, 82, 95
9, 490560, Note_on_c, 9, 82, 95
9, 490560, Note_on_c, 9, 63, 95
9, 491040, Note_off_c, 9, 82, 95
9, 491040, Note_off_c, 9, 63, 95
9, 491040, Note_on_c, 9, 82, 95
9, 491040, Note_on_c, 9, 81, 95
9, 491520, Note_off_c, 9, 82, 95
9, 491520, Note_off_c, 9, 81, 95
9, 491520, Note_on_c, 9, 82, 95
9, 491520, Note_on_c, 9, 63, 95
9, 492000, Note_off_c, 9, 82, 95
9, 492000, Note_off_c, 9, 63, 95
9, 492000, Note_on_c, 9, 82, 95
9, 492480, Note_off_c, 9, 82, 95
9, 492480, Note_on_c, 9, 82, 95
9, 492480, Note_on_c, 9, 81, 95
9, 492480, Note_on_c, 9, 64, 95
9, 492960, Note_off_c, 9, 82, 95
9, 492960, Note_off_c, 9, 81, 95
9, 492960, Note_off_c, 9, 64, 95
9, 492960, Note_on_c, 9, 82, 95
9, 493440, Note_off_c, 9, 82, 95
9, 493440, Note_on_c, 9, 82, 95
9, 493440, Note_on_c, 9, 64, 95
9, 493920, Note_off_c, 9, 82, 95
9, 493920, Note_off_c, 9, 64, 95
9, 493920, Note_on_c, 9, 82, 95
9, 493920, Note_on_c, 9, 81, 95
9, 494400, Note_off_c, 9, 82, 95
9, 494400, Note_off_c, 9, 81, 95
9, 494400, Note_on_c, 9, 82, 95
9, 494400, Note_on_c, 9, 64, 95
9, 494880, Note_off_c, 9, 82, 95
9, 494880, Note_off_c, 9, 64, 95
9, 494880, Note_on_c, 9, 82, 95
9, 495360, Note_off_c, 9, 82, 95
9, 495360, Note_on_c, 9, 82, 95
9, 495360, Note_on_c, 9, 81, 95
9, 495360, Note_on_c, 9, 63, 95
9, 495840, Note_off_c, 9, 82, 95
9, 495840, Note_off_c, 9, 81, 95
9, 495840, Note_off_c, 9, 63, 95
9, 495840, Note_on_c, 9, 82, 95
9, 496320, Note_off_c, 9, 82, 95
9, 496320, Note_on_c, 9, 82, 95
9, 496320, Note_on_c, 9, 63, 95
9, 496800, Note_off_c, 9, 82, 95
9, 496800, Note_off_c, 9, 63, 95
9, 496800, Note_on_c, 9, 82, 95
9, 496800, Note_on_c, 9, 81, 95
9, 497280, Note_off_c, 9, 82, 95
9, 497280, Note_off_c, 9, 81, 95
9, 497280, Note_on_c, 9, 82, 95
9, 497280, Note_on_c, 9, 63, 95
9, 497760, Note_off_c, 9, 82, 95
9, 497760, Note_off_c, 9, 63, 95
9, 497760, Note_on_c, 9, 82, 95
9, 498240, Note_off_c, 9, 82, 95
9, 498240, Note_on_c, 9, 82, 95
9, 498240, Note_on_c, 9, 81, 95
9, 498240, Note_on_c, 9, 64, 95
9, 498720, Note_off_c, 9, 82, 95
9, 498720, Note_off_c, 9, 81, 95
9, 498720, Note_off_c, 9, 64, 95
9, 498720, Note_on_c, 9, 82, 95
9, 499200, Note_off_c, 9, 82, 95
9, 499200, Note_on_c, 9, 82, 95
9, 499200, Note_on_c, 9, 64, 95
9, 499680, Note_off_c, 9, 82, 95
9, 499680, Note_off_c, 9, 64, 95
9, 499680, Note_on_c, 9, 82, 95
9, 499680, Note_on_c, 9, 81, 95
9, 500160, Note_off_c, 9, 82, 95
9, 500160, Note_off_c, 9, 81, 95
9, 500160, Note_on_c, 9, 82, 95
9, 500160, Note_on_c, 9, 64, 95
9, 500640, Note_off_c, 9, 82, 95
9, 500640, Note_off_c, 9, 64, 95
9, 500640, Note_on_c, 9, 82, 95
9, 501120, Note_off_c, 9, 82, 95
9, 501120, Note_on_c, 9, 82, 95
9, 501120, Note_on_c, 9, 81, 95
9, 501120, Note_on_c, 9, 63, 95
9, 501600, Note_off_c, 9, 82, 95
9, 501600, Note_off_c, 9, 81, 95
9, 501600, Note_off_c, 9, 63, 95
9, 501600, Note_on_c, 9, 82, 95
9, 502080, Note_off_c, 9, 82, 95
9, 502080, Note_on_c, 9, 82, 95
9, 502080, Note_on_c, 9, 63, 95
9, 502560, Note_off_c, 9, 82, 95
9, 502560, Note_off_c, 9, 63, 95
9, 502560, Note_on_c, 9, 82, 95
9, 502560, Note_on_c, 9, 81, 95
9, 503040, Note_off_c, 9, 82, 95
9, 503040, Note_off_c, 9, 81, 95
9, 503040, Note_on_c, 9, 82, 95
9, 503040, Note_on_c, 9, 63, 95
9, 503520, Note_off_c, 9, 82, 95
9, 503520, Note_off_c, 9, 63, 95
9, 503520, Note_on_c, 9, 82, 95
9, 504000, Note_off_c, 9, 82, 95
9, 504000, Note_on_c, 9, 82, 95
9, 504000, Note_on_c, 9, 81, 95
9, 504000, Note_on_c, 9, 64, 95
9, 504480, Note_off_c, 9, 82, 95
9, 504480, Note_off_c, 9, 81, 95
9, 504480, Note_off_c, 9, 64, 95
9, 504480, Note_on_c, 9, 82, 95
9, 504960, Note_off_c, 9, 82, 95
9, 504960, Note_on_c, 9, 82, 95
9, 504960, Note_on_c, 9, 64, 95
9, 505440, Note_off_c, 9, 82, 95
9, 505440, Note_off_c, 9, 64, 95
9, 505440, Note_on_c, 9, 82, 95
9, 505440, Note_on_c, 9, 81, 95
9, 505920, Note_off_c, 9, 82, 95
9, 505920, Note_off_c, 9, 81, 95
9, 505920, Note_on_c, 9, 82, 95
9, 505920, Note_on_c, 9, 64, 95
9, 506400, Note_off_c, 9, 82, 95
9, 506400, Note_off_c, 9, 64, 95
9, 506400, Note_on_c, 9, 82, 95
9, 506880, Note_off_c, 9, 82, 95
9, 506880, Note_on_c, 9, 82, 95
9, 506880, Note_on_c, 9, 81, 95
9, 506880, Note_on_c, 9, 63, 95
9, 507360, Note_off_c, 9, 82, 95
9, 507360, Note_off_c, 9, 81, 95
9, 507360, Note_off_c, 9, 63, 95
9, 507360, Note_on_c, 9, 82, 95
9, 507840, Note_off_c, 9, 82, 95
9, 507840, Note_on_c, 9, 82, 95
9, 507840, Note_on_c, 9, 63, 95
9, 508320, Note_off_c, 9, 82, 95
9, 508320, Note_off_c, 9, 63, 95
9, 508320, Note_on_c, 9, 82, 95
9, 508320, Note_on_c, 9, 81, 95
9, 508800, Note_off_c, 9, 82, 95
9, 508800, Note_off_c, 9, 81, 95
9, 508800, Note_on_c, 9, 82, 95
9, 508800, Note_on_c, 9, 63, 95
9, 509280, Note_off_c, 9, 82, 95
9, 509280, Note_off_c, 9, 63, 95
9, 509280, Note_on_c, 9, 82, 95
9, 509760, Note_off_c, 9, 82, 95
9, 509760, Note_on_c, 9, 82, 95
9, 509760, Note_on_c, 9, 81, 95
9, 509760, Note_on_c, 9, 64, 95
9, 510240, Note_off_c, 9, 82, 95
9, 510240, Note_off_c, 9, 81, 95
9, 510240, Note_off_c, 9, 64, 95
9, 510240, Note_on_c, 9, 82, 95
9, 510720, Note_off_c, 9, 82, 95
9, 510720, Note_on_c, 9, 82, 95
9, 510720, Note_on_c, 9, 64, 95
9, 511200, Note_off_c, 9, 82, 95
9, 511200, Note_off_c, 9, 64, 95
9, 511200, Note_on_c, 9, 82, 95
9, 511200, Note_on_c, 9, 81, 95
9, 511680, Note_off_c, 9, 82, 95
9, 511680, Note_off_c, 9, 81, 95
9, 511680, Note_on_c, 9, 82, 95
9, 511680, Note_on_c, 9, 64, 95
9, 512160, Note_off_c, 9, 82, 95
9, 512160, Note_off_c, 9, 64, 95
9, 512160, Note_on_c, 9, 82, 95
9, 512640, Note_off_c, 9, 82, 95
9, 512640, Note_on_c, 9, 82, 95
9, 512640, Note_on_c, 9, 81, 95
9, 512640, Note_on_c, 9, 63, 95
9, 513120, Note_off_c, 9, 82, 95
9, 513120, Note_off_c, 9, 81, 95
9, 513120, Note_off_c, 9, 63, 95
9, 513120, Note_on_c, 9, 82, 95
9, 513600, Note_off_c, 9, 82, 95
9, 513600, Note_on_c, 9, 82, 95
9, 513600, Note_on_c, 9, 63, 95
9, 514080, Note_off_c, 9, 82, 95
9, 514080, Note_off_c, 9, 63, 95
9, 514080, Note_on_c, 9, 82, 95
9, 514080, Note_on_c, 9, 81, 95
9, 514560, Note_off_c, 9, 82, 95
9, 514560, Note_off_c, 9, 81, 95
9, 514560, Note_on_c, 9, 82, 95
9, 514560, Note_on_c, 9, 63, 95
9, 515040, Note_off_c, 9, 82, 95
9, 515040, Note_off_c, 9, 63, 95
9, 515040, Note_on_c, 9, 82, 95
9, 515520, Note_off_c, 9, 82, 95
9, 515520, Note_on_c, 9, 82, 95
9, 515520, Note_on_c, 9, 81, 95
9, 515520, Note_on_c, 9, 64, 95
9, 516000, Note_off_c, 9, 82, 95
9, 516000, Note_off_c, 9, 81, 95
9, 516000, Note_off_c, 9, 64, 95
9, 516000, Note_on_c, 9, 82, 95
9, 516480, Note_off_c, 9, 82, 95
9, 516480, Note_on_c, 9, 82, 95
9, 516480, Note_on_c, 9, 64, 95
9, 516960, Note_off_c, 9, 82, 95
9, 516960, Note_off_c, 9, 64, 95
9, 516960, Note_on_c, 9, 82, 95
9, 516960, Note_on_c, 9, 81, 95
9, 517440, Note_off_c, 9, 82, 95
9, 517440, Note_off_c, 9, 81, 95
9, 517440, Note_on_c, 9, 82, 95
9, 517440, Note_on_c, 9, 64, 95
9, 517920, Note_off_c, 9, 82, 95
9, 517920, Note_off_c, 9, 64, 95
9, 517920, Note_on_c, 9, 82, 95
9, 518400, Note_off_c, 9, 82, 95
9, 518400, Note_on_c, 9, 82, 95
9, 518400, Note_on_c, 9, 81, 95
9, 518400, Note_on_c, 9, 63, 95
9, 518880, Note_off_c, 9, 82, 95
9, 518880, Note_off_c, 9, 81, 95
9, 518880, Note_off_c, 9, 63, 95
9, 518880, Note_on_c, 9, 82, 95
9, 519360, Note_off_c, 9, 82, 95
9, 519360, Note_on_c, 9, 82, 95
9, 519360, Note_on_c, 9, 63, 95
9, 519840, Note_off_c, 9, 82, 95
9, 519840, Note_off_c, 9, 63, 95
9, 519840, Note_on_c, 9, 82, 95
9, 519840, Note_on_c, 9, 81, 95
9, 520320, Note_off_c, 9, 82, 95
9, 520320, Note_off_c, 9, 81, 95
9, 520320, Note_on_c, 9, 82, 95
9, 520320, Note_on_c, 9, 63, 95
9, 520800, Note_off_c, 9, 82, 95
9, 520800, Note_off_c, 9, 63, 95
9, 520800, Note_on_c, 9, 82, 95
9, 521280, Note_off_c, 9, 82, 95
9, 521280, Note_on_c, 9, 82, 95
9, 521280, Note_on_c, 9, 81, 95
9, 521280, Note_on_c, 9, 64, 95
9, 521760, Note_off_c, 9, 82, 95
9, 521760, Note_off_c, 9, 81, 95
9, 521760, Note_off_c, 9, 64, 95
9, 521760, Note_on_c, 9, 82, 95
9, 522240, Note_off_c, 9, 82, 95
9, 522240, Note_on_c, 9, 82, 95
9, 522240, Note_on_c, 9, 64, 95
9, 522720, Note_off_c, 9, 82, 95
9, 522720, Note_off_c, 9, 64, 95
9, 522720, Note_on_c, 9, 82, 95
9, 522720, Note_on_c, 9, 81, 95
9, 523200, Note_off_c, 9, 82, 95
9, 523200, Note_off_c, 9, 81, 95
9, 523200, Note_on_c, 9, 82, 95
9, 523200, Note_on_c, 9, 64, 95
9, 523680, Note_off_c, 9, 82, 95
9, 523680, Note_off_c, 9, 64, 95
9, 523680, Note_on_c, 9, 82, 95
9, 524160, Note_off_c, 9, 82, 95
9, 524160, Note_on_c, 9, 82, 95
9, 524160, Note_on_c, 9, 81, 95
9, 524160, Note_on_c, 9, 63, 95
9, 524640, Note_off_c, 9, 82, 95
9, 524640, Note_off_c, 9, 81, 95
9, 524640, Note_off_c, 9, 63, 95
9, 524640, Note_on_c, 9, 82, 95
9, 525120, Note_off_c, 9, 82, 95
9, 525120, Note_on_c, 9, 82, 95
9, 525120, Note_on_c, 9, 63, 95
9, 525600, Note_off_c, 9, 82, 95
9, 525600, Note_off_c, 9, 63, 95
9, 525600, Note_on_c, 9, 82, 95
9, 525600, Note_on_c, 9, 81, 95
9, 526080, Note_off_c, 9, 82, 95
9, 526080, Note_off_c, 9, 81, 95
9, 526080, Note_on_c, 9, 82, 95
9, 526080, Note_on_c, 9, 63, 95
9, 526560, Note_off_c, 9, 82, 95
9, 526560, Note_off_c, 9, 63, 95
9, 526560, Note_on_c, 9, 82, 95
9, 527040, Note_off_c, 9, 82, 95
9, 527040, Note_on_c, 9, 82, 95
9, 527040, Note_on_c, 9, 81, 95
9, 527040, Note_on_c, 9, 64, 95
9, 527520, Note_off_c, 9, 82, 95
9, 527520, Note_off_c, 9, 81, 95
9, 527520, Note_off_c, 9, 64, 95
9, 527520, Note_on_c, 9, 82, 95
9, 528000, Note_off_c, 9, 82, 95
9, 528000, Note_on_c, 9, 82, 95
9, 528000, Note_on_c, 9, 64, 95
9, 528480, Note_off_c, 9, 82, 95
9, 528480, Note_off_c, 9, 64, 95
9, 528480, Note_on_c, 9, 82, 95
9, 528480, Note_on_c, 9, 81, 95
9, 528960, Note_off_c, 9, 82, 95
9, 528960, Note_off_c, 9, 81, 95
9, 528960, Note_on_c, 9, 82, 95
9, 528960, Note_on_c, 9, 64, 95
9, 529440, Note_off_c, 9, 82, 95
9, 529440, Note_off_c, 9, 64, 95
9, 529440, Note_on_c, 9, 82, 95
9, 529920, Note_off_c, 9, 82, 95
9, 529920, Note_on_c, 9, 82, 95
9, 529920, Note_on_c, 9, 81, 95
9, 529920, Note_on_c, 9, 63, 95
9, 530400, Note_off_c, 9, 82, 95
9, 530400, Note_off_c, 9, 81, 95
9, 530400, Note_off_c, 9, 63, 95
9, 530400, Note_on_c, 9, 82, 95
9, 530880, Note_off_c, 9, 82, 95
9, 530880, Note_on_c, 9, 82, 95
9, 530880, Note_on_c, 9, 63, 95
9, 531360, Note_off_c, 9, 82, 95
9, 531360, Note_off_c, 9, 63, 95
9, 531360, Note_on_c, 9, 82, 95
9, 531360, Note_on_c, 9, 81, 95
9, 531840, Note_off_c, 9, 82, 95
9, 531840, Note_off_c, 9, 81, 95
9, 531840, Note_on_c, 9, 82, 95
9, 531840, Note_on_c, 9, 63, 95
9, 532320, Note_off_c, 9, 82, 95
9, 532320, Note_off_c, 9, 63, 95
9, 532320, Note_on_c, 9, 82, 95
9, 532800, Note_off_c, 9, 82, 95
9, 532800, Note_on_c, 9, 82, 95
9, 532800, Note_on_c, 9, 81, 95
9, 532800, Note_on_c, 9, 64, 95
9, 533280, Note_off_c, 9, 82, 95
9, 533280, Note_off_c, 9, 81, 95
9, 533280, Note_off_c, 9, 64, 95
9, 533280, Note_on_c, 9, 82, 95
9, 533760, Note_off_c, 9, 82, 95
9, 533760, Note_on_c, 9, 82, 95
9, 533760, Note_on_c, 9, 64, 95
9, 534240, Note_off_c, 9, 82, 95
9, 534240, Note_off_c, 9, 64, 95
9, 534240, Note_on_c, 9, 82, 95
9, 534240, Note_on_c, 9, 81, 95
9, 534720, Note_off_c, 9, 82, 95
9, 534720, Note_off_c, 9, 81, 95
9, 534720, Note_on_c, 9, 82, 95
9, 534720, Note_on_c, 9, 64, 95
9, 535200, Note_off_c, 9, 82, 95
9, 535200, Note_off_c, 9, 64, 95
9, 535200, Note_on_c, 9, 82, 95
9, 535680, Note_off_c, 9, 82, 95
9, 535680, Note_on_c, 9, 82, 95
9, 535680, Note_on_c, 9, 81, 95
9, 535680, Note_on_c, 9, 63, 95
9, 536160, Note_off_c, 9, 82, 95
9, 536160, Note_off_c, 9, 81, 95
9, 536160, Note_off_c, 9, 63, 95
9, 536160, Note_on_c, 9, 82, 95
9, 536640, Note_off_c, 9, 82, 95
9, 536640, Note_on_c, 9, 82, 95
9, 536640, Note_on_c, 9, 63, 95
9, 537120, Note_off_c, 9, 82, 95
9, 537120, Note_off_c, 9, 63, 95
9, 537120, Note_on_c, 9, 82, 95
9, 537120, Note_on_c, 9, 81, 95
9, 537600, Note_off_c, 9, 82, 95
9, 537600, Note_off_c, 9, 81, 95
9, 537600, Note_on_c, 9, 82, 95
9, 537600, Note_on_c, 9, 63, 95
9, 538080, Note_off_c, 9, 82, 95
9, 538080, Note_off_c, 9, 63, 95
9, 538080, Note_on_c, 9, 82, 95
9, 538560, Note_off_c, 9, 82, 95
9, 538560, Note_on_c, 9, 82, 95
9, 538560, Note_on_c, 9, 81, 95
9, 538560, Note_on_c, 9, 64, 95
9, 539040, Note_off_c, 9, 82, 95
9, 539040, Note_off_c, 9, 81, 95
9, 539040, Note_off_c, 9, 64, 95
9, 539040, Note_on_c, 9, 82, 95
9, 539520, Note_off_c, 9, 82, 95
9, 539520, Note_on_c, 9, 82, 95
9, 539520, Note_on_c, 9, 64, 95
9, 540000, Note_off_c, 9, 82, 95
9, 540000, Note_off_c, 9, 64, 95
9, 540000, Note_on_c, 9, 82, 95
9, 540000, Note_on_c, 9, 81, 95
9, 540480, Note_off_c, 9, 82, 95
9, 540480, Note_off_c, 9, 81, 95
9, 540480, Note_on_c, 9, 82, 95
9, 540480, Note_on_c, 9, 64, 95
9, 540960, Note_off_c, 9, 82, 95
9, 540960, Note_off_c, 9, 64, 95
9, 540960, Note_on_c, 9, 82, 95
9, 541440, Note_off_c, 9, 82, 95
9, 541440, Note_on_c, 9, 82, 95
9, 541440, Note_on_c, 9, 81, 95
9, 541440, Note_on_c, 9, 63, 95
9, 541920, Note_off_c, 9, 82, 95
9, 541920, Note_off_c, 9, 81, 95
9, 541920, Note_off_c, 9, 63, 95
9, 541920, Note_on_c, 9, 82, 95
9, 542400, Note_off_c, 9, 82, 95
9, 542400, Note_on_c, 9, 82, 95
9, 542400, Note_on_c, 9, 63, 95
9, 542880, Note_off_c, 9, 82, 95
9, 542880, Note_off_c, 9, 63, 95
9, 542880, Note_on_c, 9, 82, 95
9, 542880, Note_on_c, 9, 81, 95
9, 543360, Note_off_c, 9, 82, 95
9, 543360, Note_off_c, 9, 81, 95
9, 543360, Note_on_c, 9, 82, 95
9, 543360, Note_on_c, 9, 63, 95
9, 543840, Note_off_c, 9, 82, 95
9, 543840, Note_off_c, 9, 63, 95
9, 543840, Note_on_c, 9, 82, 95
9, 544320, Note_off_c, 9, 82, 95
9, 544320, Note_on_c, 9, 82, 95
9, 544320, Note_on_c, 9, 81, 95
9, 544320, Note_on_c, 9, 64, 95
9, 544800, Note_off_c, 9, 82, 95
9, 544800, Note_off_c, 9, 81, 95
9, 544800, Note_off_c, 9, 64, 95
9, 544800, Note_on_c, 9, 82, 95
9, 545280, Note_off_c, 9, 82, 95
9, 545280, Note_on_c, 9, 82, 95
9, 545280, Note_on_c, 9, 64, 95
9, 545760, Note_off_c, 9, 82, 95
9, 545760, Note_off_c, 9, 64, 95
9, 545760, Note_on_c, 9, 82, 95
9, 545760, Note_on_c, 9, 81, 95
9, 546240, Note_off_c, 9, 82, 95
9, 546240, Note_off_c, 9, 81, 95
9, 546240, Note_on_c, 9, 82, 95
9, 546240, Note_on_c, 9, 64, 95
9, 546720, Note_off_c, 9, 82, 95
9, 546720, Note_off_c, 9, 64, 95
9, 546720, Note_on_c, 9, 82, 95
9, 547200, Note_off_c, 9, 82, 95
9, 547200, Note_on_c, 9, 82, 95
9, 547200, Note_on_c, 9, 81, 95
9, 547200, Note_on_c, 9, 63, 95
9, 547680, Note_off_c, 9, 82, 95
9, 547680, Note_off_c, 9, 81, 95
9, 547680, Note_off_c, 9, 63, 95
9, 547680, Note_on_c, 9, 82, 95
9, 548160, Note_off_c, 9, 82, 95
9, 548160, Note_on_c, 9, 82, 95
9, 548160, Note_on_c, 9, 63, 95
9, 548640, Note_off_c, 9, 82, 95
9, 548640, Note_off_c, 9, 63, 95
9, 548640, Note_on_c, 9, 82, 95
9, 548640, Note_on_c, 9, 81, 95
9, 549120, Note_off_c, 9, 82, 95
9, 549120, Note_off_c, 9, 81, 95
9, 549120, Note_on_c, 9, 82, 95
9, 549120, Note_on_c, 9, 63, 95
9, 549600, Note_off_c, 9, 82, 95
9, 549600, Note_off_c, 9, 63, 95
9, 549600, Note_on_c, 9, 82, 95
9, 550080, Note_off_c, 9, 82, 95
9, 550080, Note_on_c, 9, 82, 95
9, 550080, Note_on_c, 9, 81, 95
9, 550080, Note_on_c, 9, 64, 95
9, 550560, Note_off_c, 9, 82, 95
9, 550560, Note_off_c, 9, 81, 95
9, 550560, Note_off_c, 9, 64, 95
9, 550560, Note_on_c, 9, 82, 95
9, 551040, Note_off_c, 9, 82, 95
9, 551040, Note_on_c, 9, 82, 95
9, 551040, Note_on_c, 9, 64, 95
9, 551520, Note_off_c, 9, 82, 95
9, 551520, Note_off_c, 9, 64, 95
9, 551520, Note_on_c, 9, 82, 95
9, 551520, Note_on_c, 9, 81, 95
9, 552000, Note_off_c, 9, 82, 95
9, 552000, Note_off_c, 9, 81, 95
9, 552000, Note_on_c, 9, 82, 95
9, 552000, Note_on_c, 9, 64, 95
9, 552480, Note_off_c, 9, 82, 95
9, 552480, Note_off_c, 9, 64, 95
9, 552480, Note_on_c, 9, 82, 95
9, 552960, Note_off_c, 9, 82, 95
9, 552960, Note_on_c, 9, 82, 95
9, 552960, Note_on_c, 9, 81, 95
9, 552960, Note_on_c, 9, 63, 95
9, 553440, Note_off_c, 9, 82, 95
9, 553440, Note_off_c, 9, 81, 95
9, 553440, Note_off_c, 9, 63, 95
9, 553440, Note_on_c, 9, 82, 95
9, 553920, Note_off_c, 9, 82, 95
9, 553920, Note_on_c, 9, 82, 95
9, 553920, Note_on_c, 9, 63, 95
9, 554400, Note_off_c, 9, 82, 95
9, 554400, Note_off_c, 9, 63, 95
9, 554400, Note_on_c, 9, 82, 95
9, 554400, Note_on_c, 9, 81, 95
9, 554880, Note_off_c, 9, 82, 95
9, 554880, Note_off_c, 9, 81, 95
9, 554880, Note_on_c, 9, 82, 95
9, 554880, Note_on_c, 9, 63, 95
9, 555360, Note_off_c, 9, 82, 95
9, 555360, Note_off_c, 9, 63, 95
9, 555360, Note_on_c, 9, 82, 95
9, 555840, Note_off_c, 9, 82, 95
9, 555840, Note_on_c, 9, 82, 95
9, 555840, Note_on_c, 9, 81, 95
9, 555840, Note_on_c, 9, 64, 95
9, 556320, Note_off_c, 9, 82, 95
9, 556320, Note_off_c, 9, 81, 95
9, 556320, Note_off_c, 9, 64, 95
9, 556320, Note_on_c, 9, 82, 95
9, 556800, Note_off_c, 9, 82, 95
9, 556800, Note_on_c, 9, 82, 95
9, 556800, Note_on_c, 9, 64, 95
9, 557280, Note_off_c, 9, 82, 95
9, 557280, Note_off_c, 9, 64, 95
9, 557280, Note_on_c, 9, 82, 95
9, 557280, Note_on_c, 9, 81, 95
9, 557760, Note_off_c, 9, 82, 95
9, 557760, Note_off_c, 9, 81, 95
9, 557760, Note_on_c, 9, 82, 95
9, 557760, Note_on_c, 9, 64, 95
9, 558240, Note_off_c, 9, 82, 95
9, 558240, Note_off_c, 9, 64, 95
9, 558240, Note_on_c, 9, 82, 95
9, 558720, Note_off_c, 9, 82, 95
9, 558720, Note_on_c, 9, 82, 95
9, 558720, Note_on_c, 9, 81, 95
9, 558720, Note_on_c, 9, 63, 95
9, 559200, Note_off_c, 9, 82, 95
9, 559200, Note_off_c, 9, 81, 95
9, 559200, Note_off_c, 9, 63, 95
9, 559200, Note_on_c, 9, 82, 95
9, 559680, Note_off_c, 9, 82, 95
9, 559680, Note_on_c, 9, 82, 95
9, 559680, Note_on_c, 9, 63, 95
9, 560160, Note_off_c, 9, 82, 95
9, 560160, Note_off_c, 9, 63, 95
9, 560160, Note_on_c, 9, 82, 95
9, 560160, Note_on_c, 9, 81, 95
9, 560640, Note_off_c, 9, 82, 95
9, 560640, Note_off_c, 9, 81, 95
9, 560640, Note_on_c, 9, 82, 95
9, 560640, Note_on_c, 9, 63, 95
9, 561120, Note_off_c, 9, 82, 95
9, 561120, Note_off_c, 9, 63, 95
9, 561120, Note_on_c, 9, 82, 95
9, 561600, Note_off_c, 9, 82, 95
9, 561600, Note_on_c, 9, 82, 95
9, 561600, Note_on_c, 9, 81, 95
9, 561600, Note_on_c, 9, 64, 95
9, 562080, Note_off_c, 9, 82, 95
9, 562080, Note_off_c, 9, 81, 95
9, 562080, Note_off_c, 9, 64, 95
9, 562080, Note_on_c, 9, 82, 95
9, 562560, Note_off_c, 9, 82, 95
9, 562560, Note_on_c, 9, 82, 95
9, 562560, Note_on_c, 9, 64, 95
9, 563040, Note_off_c, 9, 82, 95
9, 563040, Note_off_c, 9, 64, 95
9, 563040, Note_on_c, 9, 82, 95
9, 563040, Note_on_c, 9, 81, 95
9, 563520, Note_off_c, 9, 82, 95
9, 563520, Note_off_c, 9, 81, 95
9, 563520, Note_on_c, 9, 82, 95
9, 563520, Note_on_c, 9, 64, 95
9, 564000, Note_off_c, 9, 82, 95
9, 564000, Note_off_c, 9, 64, 95
9, 564000, Note_on_c, 9, 82, 95
9, 564480, Note_off_c, 9, 82, 95
9, 564480, Note_on_c, 9, 82, 95
9, 564480, Note_on_c, 9, 81, 95
9, 564480, Note_on_c, 9, 63, 95
9, 564960, Note_off_c, 9, 82, 95
9, 564960, Note_off_c, 9, 81, 95
9, 564960, Note_off_c, 9, 63, 95
9, 564960, Note_on_c, 9, 82, 95
9, 565440, Note_off_c, 9, 82, 95
9, 565440, Note_on_c, 9, 82, 95
9, 565440, Note_on_c, 9, 63, 95
9, 565920, Note_off_c, 9, 82, 95
9, 565920, Note_off_c, 9, 63, 95
9, 565920, Note_on_c, 9, 82, 95
9, 565920, Note_on_c, 9, 81, 95
9, 566400, Note_off_c, 9, 82, 95
9, 566400, Note_off_c, 9, 81, 95
9, 566400, Note_on_c, 9, 82, 95
9, 566400, Note_on_c, 9, 63, 95
9, 566880, Note_off_c, 9, 82, 95
9, 566880, Note_off_c, 9, 63, 95
9, 566880, Note_on_c, 9, 82, 95
9, 567360, Note_off_c, 9, 82, 95
9, 567360, Note_on_c, 9, 82, 95
9, 567360, Note_on_c, 9, 81, 95
9, 567360, Note_on_c, 9, 64, 95
9, 567840, Note_off_c, 9, 82, 95
9, 567840, Note_off_c, 9, 81, 95
9, 567840, Note_off_c, 9, 64, 95
9, 567840, Note_on_c, 9, 82, 95
9, 568320, Note_off_c, 9, 82, 95
9, 568320, Note_on_c, 9, 82, 95
9, 568320, Note_on_c, 9, 64, 95
9, 568800, Note_off_c, 9, 82, 95
9, 568800, Note_off_c, 9, 64, 95
9, 568800, Note_on_c, 9, 82, 95
9, 568800, Note_on_c, 9, 81, 95
9, 569280, Note_off_c, 9, 82, 95
9, 569280, Note_off_c, 9, 81, 95
9, 569280, Note_on_c, 9, 82, 95
9, 569280, Note_on_c, 9, 64, 95
9, 569760, Note_off_c, 9, 82, 95
9, 569760, Note_off_c, 9, 64, 95
9, 569760, Note_on_c, 9, 82, 95
9, 570240, Note_off_c, 9, 82, 95
9, 570240, Note_on_c, 9, 82, 95
9, 570240, Note_on_c, 9, 81, 95
9, 570240, Note_on_c, 9, 63, 95
9, 570720, Note_off_c, 9, 82, 95
9, 570720, Note_off_c, 9, 81, 95
9, 570720, Note_off_c, 9, 63, 95
9, 570720, Note_on_c, 9, 82, 95
9, 571200, Note_off_c, 9, 82, 95
9, 571200, Note_on_c, 9, 82, 95
9, 571200, Note_on_c, 9, 63, 95
9, 571680, Note_off_c, 9, 82, 95
9, 571680, Note_off_c, 9, 63, 95
9, 571680, Note_on_c, 9, 82, 95
9, 571680, Note_on_c, 9, 81, 95
9, 572160, Note_off_c, 9, 82, 95
9, 572160, Note_off_c, 9, 81, 95
9, 572160, Note_on_c, 9, 82, 95
9, 572160, Note_on_c, 9, 63, 95
9, 572640, Note_off_c, 9, 82, 95
9, 572640, Note_off_c, 9, 63, 95
9, 572640, Note_on_c, 9, 82, 95
9, 573120, Note_off_c, 9, 82, 95
9, 573120, Note_on_c, 9, 82, 95
9, 573120, Note_on_c, 9, 81, 95
9, 573120, Note_on_c, 9, 64, 95
9, 573600, Note_off_c, 9, 82, 95
9, 573600, Note_off_c, 9, 81, 95
9, 573600, Note_off_c, 9, 64, 95
9, 573600, Note_on_c, 9, 82, 95
9, 574080, Note_off_c, 9, 82, 95
9, 574080, Note_on_c, 9, 82, 95
9, 574080, Note_on_c, 9, 64, 95
9, 574560, Note_off_c, 9, 82, 95
9, 574560, Note_off_c, 9, 64, 95
9, 574560, Note_on_c, 9, 82, 95
9, 574560, Note_on_c, 9, 81, 95
9, 575040, Note_off_c, 9, 82, 95
9, 575040, Note_off_c, 9, 81, 95
9, 575040, Note_on_c, 9, 82, 95
9, 575040, Note_on_c, 9, 64, 95
9, 575520, Note_off_c, 9, 82, 95
9, 575520, Note_off_c, 9, 64, 95
9, 575520, Note_on_c, 9, 82, 95
9, 576000, Note_off_c, 9, 82, 95
9, 576000, Note_on_c, 9, 82, 95
9, 576000, Note_on_c, 9, 81, 95
9, 576000, Note_on_c, 9, 63, 95
9, 576480, Note_off_c, 9, 82, 95
9, 576480, Note_off_c, 9, 81, 95
9, 576480, Note_off_c, 9, 63, 95
9, 576480, Note_on_c, 9, 82, 95
9, 576960, Note_off_c, 9, 82, 95
9, 576960, Note_on_c, 9, 82, 95
9, 576960, Note_on_c, 9, 63, 95
9, 577440, Note_off_c, 9, 82, 95
9, 577440, Note_off_c, 9, 63, 95
9, 577440, Note_on_c, 9, 82, 95
9, 577440, Note_on_c, 9, 81, 95
9, 577920, Note_off_c, 9, 82, 95
9, 577920, Note_off_c, 9, 81, 95
9, 577920, Note_on_c, 9, 82, 95
9, 577920, Note_on_c, 9, 63, 95
9, 578400, Note_off_c, 9, 82, 95
9, 578400, Note_off_c, 9, 63, 95
9, 578400, Note_on_c, 9, 82, 95
9, 578880, Note_off_c, 9, 82, 95
9, 578880, Note_on_c, 9, 82, 95
9, 578880, Note_on_c, 9, 81, 95
9, 578880, Note_on_c, 9, 64, 95
9, 579360, Note_off_c, 9, 82, 95
9, 579360, Note_off_c, 9, 81, 95
9, 579360, Note_off_c, 9, 64, 95
9, 579360, Note_on_c, 9, 82, 95
9, 579840, Note_off_c, 9, 82, 95
9, 579840, Note_on_c, 9, 82, 95
9, 579840, Note_on_c, 9, 64, 95
9, 580320, Note_off_c, 9, 82, 95
9, 580320, Note_off_c, 9, 64, 95
9, 580320, Note_on_c, 9, 82, 95
9, 580320, Note_on_c, 9, 81, 95
9, 580800, Note_off_c, 9, 82, 95
9, 580800, Note_off_c, 9, 81, 95
9, 580800, Note_on_c, 9, 82, 95
9, 580800, Note_on_c, 9, 64, 95
9, 581280, Note_off_c, 9, 82, 95
9, 581280, Note_off_c, 9, 64, 95
9, 581280, Note_on_c, 9, 82, 95
9, 581760, Note_off_c, 9, 82, 95
9, 581760, Note_on_c, 9, 82, 95
9, 581760, Note_on_c, 9, 81, 95
9, 581760, Note_on_c, 9, 63, 95
9, 582240, Note_off_c, 9, 82, 95
9, 582240, Note_off_c, 9, 81, 95
9, 582240, Note_off_c, 9, 63, 95
9, 582240, Note_on_c, 9, 82, 95
9, 582720, Note_off_c, 9, 82, 95
9, 582720, Note_on_c, 9, 82, 95
9, 582720, Note_on_c, 9, 63, 95
9, 583200, Note_off_c, 9, 82, 95
9, 583200, Note_off_c, 9, 63, 95
9, 583200, Note_on_c, 9, 82, 95
9, 583200, Note_on_c, 9, 81, 95
9, 583680, Note_off_c, 9, 82, 95
9, 583680, Note_off_c, 9, 81, 95
9, 583680, Note_on_c, 9, 82, 95
9, 583680, Note_on_c, 9, 63, 95
9, 584160, Note_off_c, 9, 82, 95
9, 584160, Note_off_c, 9, 63, 95
9, 584160, Note_on_c, 9, 82, 95
9, 584640, Note_off_c, 9, 82, 95
9, 584640, Note_on_c, 9, 82, 95
9, 584640, Note_on_c, 9, 81, 95
9, 584640, Note_on_c, 9, 64, 95
9, 585120, Note_off_c, 9, 82, 95
9, 585120, Note_off_c, 9, 81, 95
9, 585120, Note_off_c, 9, 64, 95
9, 585120, Note_on_c, 9, 82, 95
9, 585600, Note_off_c, 9, 82, 95
9, 585600, Note_on_c, 9, 82, 95
9, 585600, Note_on_c, 9, 64, 95
9, 586080, Note_off_c, 9, 82, 95
9, 586080, Note_off_c, 9, 64, 95
9, 586080, Note_on_c, 9, 82, 95
9, 586080, Note_on_c, 9, 81, 95
9, 586560, Note_off_c, 9, 82, 95
9, 586560, Note_off_c, 9, 81, 95
9, 586560, Note_on_c, 9, 82, 95
9, 586560, Note_on_c, 9, 64, 95
9, 587040, Note_off_c, 9, 82, 95
9, 587040, Note_off_c, 9, 64, 95
9, 587040, Note_on_c, 9, 82, 95
9, 587520, Note_off_c, 9, 82, 95
9, 587520, Note_on_c, 9, 82, 95
9, 587520, Note_on_c, 9, 81, 95
9, 587520, Note_on_c, 9, 63, 95
9, 588000, Note_off_c, 9, 82, 95
9, 588000, Note_off_c, 9, 81, 95
9, 588000, Note_off_c, 9, 63, 95
9, 588000, Note_on_c, 9, 82, 95
9, 588480, Note_off_c, 9, 82, 95
9, 588480, Note_on_c, 9, 82, 95
9, 588480, Note_on_c, 9, 63, 95
9, 588960, Note_off_c, 9, 82, 95
9, 588960, Note_off_c, 9, 63, 95
9, 588960, Note_on_c, 9, 82, 95
9, 588960, Note_on_c, 9, 81, 95
9, 589440, Note_off_c, 9, 82, 95
9, 589440, Note_off_c, 9, 81, 95
9, 589440, Note_on_c, 9, 82, 95
9, 589440, Note_on_c, 9, 63, 95
9, 589920, Note_off_c, 9, 82, 95
9, 589920, Note_off_c, 9, 63, 95
9, 589920, Note_on_c, 9, 82, 95
9, 590400, Note_off_c, 9, 82, 95
9, 590400, Note_on_c, 9, 82, 95
9, 590400, Note_on_c, 9, 81, 95
9, 590400, Note_on_c, 9, 64, 95
9, 590880, Note_off_c, 9, 82, 95
9, 590880, Note_off_c, 9, 81, 95
9, 590880, Note_off_c, 9, 64, 95
9, 590880, Note_on_c, 9, 82, 95
9, 591360, Note_off_c, 9, 82, 95
9, 591360, Note_on_c, 9, 82, 95
9, 591360, Note_on_c, 9, 64, 95
9, 591840, Note_off_c, 9, 82, 95
9, 591840, Note_off_c, 9, 64, 95
9, 591840, Note_on_c, 9, 82, 95
9, 591840, Note_on_c, 9, 81, 95
9, 592320, Note_off_c, 9, 82, 95
9, 592320, Note_off_c, 9, 81, 95
9, 592320, Note_on_c, 9, 82, 95
9, 592320, Note_on_c, 9, 64, 95
9, 592800, Note_off_c, 9, 82, 95
9, 592800, Note_off_c, 9, 64, 95
9, 592800, Note_on_c, 9, 82, 95
9, 593280, Note_off_c, 9, 82, 95
9, 593280, Note_on_c, 9, 82, 95
9, 593280, Note_on_c, 9, 81, 95
9, 593280, Note_on_c, 9, 63, 95
9, 593760, Note_off_c, 9, 82, 95
9, 593760, Note_off_c, 9, 81, 95
9, 593760, Note_off_c, 9, 63, 95
9, 593760, Note_on_c, 9, 82, 95
9, 594240, Note_off_c, 9, 82, 95
9, 594240, Note_on_c, 9, 82, 95
9, 594240, Note_on_c, 9, 63, 95
9, 594720, Note_off_c, 9, 82, 95
9, 594720, Note_off_c, 9, 63, 95
9, 594720, Note_on_c, 9, 82, 95
9, 594720, Note_on_c, 9, 81, 95
9, 595200, Note_off_c, 9, 82, 95
9, 595200, Note_off_c, 9, 81, 95
9, 595200, Note_on_c, 9, 82, 95
9, 595200, Note_on_c, 9, 63, 95
9, 595680, Note_off_c, 9, 82, 95
9, 595680, Note_off_c, 9, 63, 95
9, 595680, Note_on_c, 9, 82, 95
9, 596160, Note_off_c, 9, 82, 95
9, 596160, Note_on_c, 9, 82, 95
9, 596160, Note_on_c, 9, 81, 95
9, 596160, Note_on_c, 9, 64, 95
9, 596640, Note_off_c, 9, 82, 95
9, 596640, Note_off_c, 9, 81, 95
9, 596640, Note_off_c, 9, 64, 95
9, 596640, Note_on_c, 9, 82, 95
9, 597120, Note_off_c, 9, 82, 95
9, 597120, Note_on_c, 9, 82, 95
9, 597120, Note_on_c, 9, 64, 95
9, 597600, Note_off_c, 9, 82, 95
9, 597600, Note_off_c, 9, 64, 95
9, 597600, Note_on_c, 9, 82, 95
9, 597600, Note_on_c, 9, 81, 95
9, 598080, Note_off_c, 9, 82, 95
9, 598080, Note_off_c, 9, 81, 95
9, 598080, Note_on_c, 9, 82, 95
9, 598080, Note_on_c, 9, 64, 95
9, 598560, Note_off_c, 9, 82, 95
9, 598560, Note_off_c, 9, 64, 95
9, 598560, Note_on_c, 9, 82, 95
9, 599040, Note_off_c, 9, 82, 95
9, 599040, Note_on_c, 9, 82, 95
9, 599040, Note_on_c, 9, 81, 95
9, 599040, Note_on_c, 9, 63, 95
9, 599520, Note_off_c, 9, 82, 95
9, 599520, Note_off_c, 9, 81, 95
9, 599520, Note_off_c, 9, 63, 95
9, 599520, Note_on_c, 9, 82, 95
9, 600000, Note_off_c, 9, 82, 95
9, 600000, Note_on_c, 9, 82, 95
9, 600000, Note_on_c, 9, 63, 95
9, 600480, Note_off_c, 9, 82, 95
9, 600480, Note_off_c, 9, 63, 95
9, 600480, Note_on_c, 9, 82, 95
9, 600480, Note_on_c, 9, 81, 95
9, 600960, Note_off_c, 9, 82, 95
9, 600960, Note_off_c, 9, 81, 95
9, 600960, Note_on_c, 9, 82, 95
9, 600960, Note_on_c, 9, 63, 95
9, 601440, Note_off_c, 9, 82, 95
9, 601440, Note_off_c, 9, 63, 95
9, 601440, Note_on_c, 9, 82, 95
9, 601920, Note_off_c, 9, 82, 95
9, 601920, Note_on_c, 9, 82, 95
9, 601920, Note_on_c, 9, 81, 95
9, 601920, Note_on_c, 9, 64, 95
9, 602400, Note_off_c, 9, 82, 95
9, 602400, Note_off_c, 9, 81, 95
9, 602400, Note_off_c, 9, 64, 95
9, 602400, Note_on_c, 9, 82, 95
9, 602880, Note_off_c, 9, 82, 95
9, 602880, Note_on_c, 9, 82, 95
9, 602880, Note_on_c, 9, 64, 95
9, 603360, Note_off_c, 9, 82, 95
9, 603360, Note_off_c, 9, 64, 95
9, 603360, Note_on_c, 9, 82, 95
9, 603360, Note_on_c, 9, 81, 95
9, 603840, Note_off_c, 9, 82, 95
9, 603840, Note_off_c, 9, 81, 95
9, 603840, Note_on_c, 9, 82, 95
9, 603840, Note_on_c, 9, 64, 95
9, 604320, Note_off_c, 9, 82, 95
9, 604320, Note_off_c, 9, 64, 95
9, 604320, Note_on_c, 9, 82, 95
9, 604800, Note_off_c, 9, 82, 95
9, 604800, Note_on_c, 9, 82, 95
9, 604800, Note_on_c, 9, 81, 95
9, 604800, Note_on_c, 9, 63, 95
9, 605280, Note_off_c, 9, 82, 95
9, 605280, Note_off_c, 9, 81, 95
9, 605280, Note_off_c, 9, 63, 95
9, 605280, Note_on_c, 9, 82, 95
9, 605760, Note_off_c, 9, 82, 95
9, 605760, Note_on_c, 9, 82, 95
9, 605760, Note_on_c, 9, 63, 95
9, 606240, Note_off_c, 9, 82, 95
9, 606240, Note_off_c, 9, 63, 95
9, 606240, Note_on_c, 9, 82, 95
9, 606240, Note_on_c, 9, 81, 95
9, 606720, Note_off_c, 9, 82, 95
9, 606720, Note_off_c, 9, 81, 95
9, 606720, Note_on_c, 9, 82, 95
9, 606720, Note_on_c, 9, 63, 95
9, 607200, Note_off_c, 9, 82, 95
9, 607200, Note_off_c, 9, 63, 95
9, 607200, Note_on_c, 9, 82, 95
9, 607680, Note_off_c, 9, 82, 95
9, 607680, Note_on_c, 9, 82, 95
9, 607680, Note_on_c, 9, 81, 95
9, 607680, Note_on_c, 9, 64, 95
9, 608160, Note_off_c, 9, 82, 95
9, 608160, Note_off_c, 9, 81, 95
9, 608160, Note_off_c, 9, 64, 95
9, 608160, Note_on_c, 9, 82, 95
9, 608640, Note_off_c, 9, 82, 95
9, 608640, Note_on_c, 9, 82, 95
9, 608640, Note_on_c, 9, 64, 95
9, 609120, Note_off_c, 9, 82, 95
9, 609120, Note_off_c, 9, 64, 95
9, 609120, Note_on_c, 9, 82, 95
9, 609120, Note_on_c, 9, 81, 95
9, 609600, Note_off_c, 9, 82, 95
9, 609600, Note_off_c, 9, 81, 95
9, 609600, Note_on_c, 9, 82, 95
9, 609600, Note_on_c, 9, 64, 95
9, 610080, Note_off_c, 9, 82, 95
9, 610080, Note_off_c, 9, 64, 95
9, 610080, Note_on_c, 9, 82, 95
9, 610560, Note_off_c, 9, 82, 95
9, 610560, Note_on_c, 9, 82, 95
9, 610560, Note_on_c, 9, 81, 95
9, 610560, Note_on_c, 9, 63, 95
9, 611040, Note_off_c, 9, 82, 95
9, 611040, Note_off_c, 9, 81, 95
9, 611040, Note_off_c, 9, 63, 95
9, 611040, Note_on_c, 9, 82, 95
9, 611520, Note_off_c, 9, 82, 95
9, 611520, Note_on_c, 9, 82, 95
9, 611520, Note_on_c, 9, 63, 95
9, 612000, Note_off_c, 9, 82, 95
9, 612000, Note_off_c, 9, 63, 95
9, 612000, Note_on_c, 9, 82, 95
9, 612000, Note_on_c, 9, 81, 95
9, 612480, Note_off_c, 9, 82, 95
9, 612480, Note_off_c, 9, 81, 95
9, 612480, Note_on_c, 9, 82, 95
9, 612480, Note_on_c, 9, 63, 95
9, 612960, Note_off_c, 9, 82, 95
9, 612960, Note_off_c, 9, 63, 95
9, 612960, Note_on_c, 9, 82, 95
9, 613440, Note_off_c, 9, 82, 95
9, 613440, Note_on_c, 9, 82, 95
9, 613440, Note_on_c, 9, 81, 95
9, 613440, Note_on_c, 9, 64, 95
9, 613920, Note_off_c, 9, 82, 95
9, 613920, Note_off_c, 9, 81, 95
9, 613920, Note_off_c, 9, 64, 95
9, 613920, Note_on_c, 9, 82, 95
9, 614400, Note_off_c, 9, 82, 95
9, 614400, Note_on_c, 9, 82, 95
9, 614400, Note_on_c, 9, 64, 95
9, 614880, Note_off_c, 9, 82, 95
9, 614880, Note_off_c, 9, 64, 95
9, 614880, Note_on_c, 9, 82, 95
9, 614880, Note_on_c, 9, 81, 95
9, 615360, Note_off_c, 9, 82, 95
9, 615360, Note_off_c, 9, 81, 95
9, 615360, Note_on_c, 9, 82, 95
9, 615360, Note_on_c, 9, 64, 95
9, 615840, Note_off_c, 9, 82, 95
9, 615840, Note_off_c, 9, 64, 95
9, 615840, Note_on_c, 9, 82, 95
9, 616320, Note_off_c, 9, 82, 95
9, 616320, Note_on_c, 9, 82, 95
9, 616320, Note_on_c, 9, 81, 95
9, 616320, Note_on_c, 9, 63, 95
9, 616800, Note_off_c, 9, 82, 95
9, 616800, Note_off_c, 9, 81, 95
9, 616800, Note_off_c, 9, 63, 95
9, 616800, Note_on_c, 9, 82, 95
9, 617280, Note_off_c, 9, 82, 95
9, 617280, Note_on_c, 9, 82, 95
9, 617280, Note_on_c, 9, 63, 95
9, 617760, Note_off_c, 9, 82, 95
9, 617760, Note_off_c, 9, 63, 95
9, 617760, Note_on_c, 9, 82, 95
9, 617760, Note_on_c, 9, 81, 95
9, 618240, Note_off_c, 9, 82, 95
9, 618240, Note_off_c, 9, 81, 95
9, 618240, Note_on_c, 9, 82, 95
9, 618240, Note_on_c, 9, 63, 95
9, 618720, Note_off_c, 9, 82, 95
9, 618720, Note_off_c, 9, 63, 95
9, 618720, Note_on_c, 9, 82, 95
9, 619200, Note_off_c, 9, 82, 95
9, 619200, Note_on_c, 9, 82, 95
9, 619200, Note_on_c, 9, 81, 95
9, 619200, Note_on_c, 9, 64, 95
9, 619680, Note_off_c, 9, 82, 95
9, 619680, Note_off_c, 9, 81, 95
9, 619680, Note_off_c, 9, 64, 95
9, 619680, Note_on_c, 9, 82, 95
9, 620160, Note_off_c, 9, 82, 95
9, 620160, Note_on_c, 9, 82, 95
9, 620160, Note_on_c, 9, 64, 95
9, 620640, Note_off_c, 9, 82, 95
9, 620640, Note_off_c, 9, 64, 95
9, 620640, Note_on_c, 9, 82, 95
9, 620640, Note_on_c, 9, 81, 95
9, 621120, Note_off_c, 9, 82, 95
9, 621120, Note_off_c, 9, 81, 95
9, 621120, Note_on_c, 9, 82, 95
9, 621120, Note_on_c, 9, 64, 95
9, 621600, Note_off_c, 9, 82, 95
9, 621600, Note_off_c, 9, 64, 95
9, 621600, Note_on_c, 9, 82, 95
9, 622080, Note_off_c, 9, 82, 95
9, 622080, Note_on_c, 9, 82, 95
9, 622080, Note_on_c, 9, 81, 95
9, 622080, Note_on_c, 9, 63, 95
9, 622560, Note_off_c, 9, 82, 95
9, 622560, Note_off_c, 9, 81, 95
9, 622560, Note_off_c, 9, 63, 95
9, 622560, Note_on_c, 9, 82, 95
9, 623040, Note_off_c, 9, 82, 95
9, 623040, Note_on_c, 9, 82, 95
9, 623040, Note_on_c, 9, 63, 95
9, 623520, Note_off_c, 9, 82, 95
9, 623520, Note_off_c, 9, 63, 95
9, 623520, Note_on_c, 9, 82, 95
9, 623520, Note_on_c, 9, 81, 95
9, 624000, Note_off_c, 9, 82, 95
9, 624000, Note_off_c, 9, 81, 95
9, 624000, Note_on_c, 9, 82, 95
9, 624000, Note_on_c, 9, 63, 95
9, 624480, Note_off_c, 9, 82, 95
9, 624480, Note_off_c, 9, 63, 95
9, 624480, Note_on_c, 9, 82, 95
9, 624960, Note_off_c, 9, 82, 95
9, 624960, Note_on_c, 9, 82, 95
9, 624960, Note_on_c, 9, 81, 95
9, 624960, Note_on_c, 9, 64, 95
9, 625440, Note_off_c, 9, 82, 95
9, 625440, Note_off_c, 9, 81, 95
9, 625440, Note_off_c, 9, 64, 95
9, 625440, Note_on_c, 9, 82, 95
9, 625920, Note_off_c, 9, 82, 95
9, 625920, Note_on_c, 9, 82, 95
9, 625920, Note_on_c, 9, 64, 95
9, 626400, Note_off_c, 9, 82, 95
9, 626400, Note_off_c, 9, 64, 95
9, 626400, Note_on_c, 9, 82, 95
9, 626400, Note_on_c, 9, 81, 95
9, 626880, Note_off_c, 9, 82, 95
9, 626880, Note_off_c, 9, 81, 95
9, 626880, Note_on_c, 9, 82, 95
9, 626880, Note_on_c, 9, 64, 95
9, 627360, Note_off_c, 9, 82, 95
9, 627360, Note_off_c, 9, 64, 95
9, 627360, Note_on_c, 9, 82, 95
9, 627840, Note_off_c, 9, 82, 95
9, 627840, Note_on_c, 9, 82, 95
9, 627840, Note_on_c, 9, 81, 95
9, 627840, Note_on_c, 9, 63, 95
9, 628320, Note_off_c, 9, 82, 95
9, 628320, Note_off_c, 9, 81, 95
9, 628320, Note_off_c, 9, 63, 95
9, 628320, Note_on_c, 9, 82, 95
9, 628800, Note_off_c, 9, 82, 95
9, 628800, Note_on_c, 9, 82, 95
9, 628800, Note_on_c, 9, 63, 95
9, 629280, Note_off_c, 9, 82, 95
9, 629280, Note_off_c, 9, 63, 95
9, 629280, Note_on_c, 9, 82, 95
9, 629280, Note_on_c, 9, 81, 95
9, 629760, Note_off_c, 9, 82, 95
9, 629760, Note_off_c, 9, 81, 95
9, 629760, Note_on_c, 9, 82, 95
9, 629760, Note_on_c, 9, 63, 95
9, 630240, Note_off_c, 9, 82, 95
9, 630240, Note_off_c, 9, 63, 95
9, 630240, Note_on_c, 9, 82, 95
9, 630720, Note_off_c, 9, 82, 95
9, 630720, Note_on_c, 9, 82, 95
9, 630720, Note_on_c, 9, 81, 95
9, 630720, Note_on_c, 9, 64, 95
9, 631200, Note_off_c, 9, 82, 95
9, 631200, Note_off_c, 9, 81, 95
9, 631200, Note_off_c, 9, 64, 95
9, 631200, Note_on_c, 9, 82, 95
9, 631680, Note_off_c, 9, 82, 95
9, 631680, Note_on_c, 9, 82, 95
9, 631680, Note_on_c, 9, 64, 95
9, 632160, Note_off_c, 9, 82, 95
9, 632160, Note_off_c, 9, 64, 95
9, 632160, Note_on_c, 9, 82, 95
9, 632160, Note_on_c, 9, 81, 95
9, 632640, Note_off_c, 9, 82, 95
9, 632640, Note_off_c, 9, 81, 95
9, 632640, Note_on_c, 9, 82, 95
9, 632640, Note_on_c, 9, 64, 95
9, 633120, Note_off_c, 9, 82, 95
9, 633120, Note_off_c, 9, 64, 95
9, 633120, Note_on_c, 9, 82, 95
9, 633600, Note_off_c, 9, 82, 95
9, 633600, Note_on_c, 9, 82, 95
9, 633600, Note_on_c, 9, 81, 95
9, 633600, Note_on_c, 9, 63, 95
9, 634080, Note_off_c, 9, 82, 95
9, 634080, Note_off_c, 9, 81, 95
9, 634080, Note_off_c, 9, 63, 95
9, 634080, Note_on_c, 9, 82, 95
9, 634560, Note_off_c, 9, 82, 95
9, 634560, Note_on_c, 9, 82, 95
9, 634560, Note_on_c, 9, 63, 95
9, 635040, Note_off_c, 9, 82, 95
9, 635040, Note_off_c, 9, 63, 95
9, 635040, Note_on_c, 9, 82, 95
9, 635040, Note_on_c, 9, 81, 95
9, 635520, Note_off_c, 9, 82, 95
9, 635520, Note_off_c, 9, 81, 95
9, 635520, Note_on_c, 9, 82, 95
9, 635520, Note_on_c, 9, 63, 95
9, 636000, Note_off_c, 9, 82, 95
9, 636000, Note_off_c, 9, 63, 95
9, 636000, Note_on_c, 9, 82, 95
9, 636480, Note_off_c, 9, 82, 95
9, 636480, Note_on_c, 9, 82, 95
9, 636480, Note_on_c, 9, 81, 95
9, 636480, Note_on_c, 9, 64, 95
9, 636960, Note_off_c, 9, 82, 95
9, 636960, Note_off_c, 9, 81, 95
9, 636960, Note_off_c, 9, 64, 95
9, 636960, Note_on_c, 9, 82, 95
9, 637440, Note_off_c, 9, 82, 95
9, 637440, Note_on_c, 9, 82, 95
9, 637440, Note_on_c, 9, 64, 95
9, 637920, Note_off_c, 9, 82, 95
9, 637920, Note_off_c, 9, 64, 95
9, 637920, Note_on_c, 9, 82, 95
9, 637920, Note_on_c, 9, 81, 95
9, 638400, Note_off_c, 9, 82, 95
9, 638400, Note_off_c, 9, 81, 95
9, 638400, Note_on_c, 9, 82, 95
9, 638400, Note_on_c, 9, 64, 95
9, 638880, Note_off_c, 9, 82, 95
9, 638880, Note_off_c, 9, 64, 95
9, 638880, Note_on_c, 9, 82, 95
9, 639360, Note_off_c, 9, 82, 95
9, 639360, Note_on_c, 9, 82, 95
9, 639360, Note_on_c, 9, 81, 95
9, 639360, Note_on_c, 9, 63, 95
9, 639840, Note_off_c, 9, 82, 95
9, 639840, Note_off_c, 9, 81, 95
9, 639840, Note_off_c, 9, 63, 95
9, 639840, Note_on_c, 9, 82, 95
9, 640320, Note_off_c, 9, 82, 95
9, 640320, Note_on_c, 9, 82, 95
9, 640320, Note_on_c, 9, 63, 95
9, 640800, Note_off_c, 9, 82, 95
9, 640800, Note_off_c, 9, 63, 95
9, 640800, Note_on_c, 9, 82, 95
9, 640800, Note_on_c, 9, 81, 95
9, 641280, Note_off_c, 9, 82, 95
9, 641280, Note_off_c, 9, 81, 95
9, 641280, Note_on_c, 9, 82, 95
9, 641280, Note_on_c, 9, 63, 95
9, 641760, Note_off_c, 9, 82, 95
9, 641760, Note_off_c, 9, 63, 95
9, 641760, Note_on_c, 9, 82, 95
9, 642240, Note_off_c, 9, 82, 95
9, 642240, Note_on_c, 9, 82, 95
9, 642240, Note_on_c, 9, 81, 95
9, 642240, Note_on_c, 9, 64, 95
9, 642720, Note_off_c, 9, 82, 95
9, 642720, Note_off_c, 9, 81, 95
9, 642720, Note_off_c, 9, 64, 95
9, 642720, Note_on_c, 9, 82, 95
9, 643200, Note_off_c, 9, 82, 95
9, 643200, Note_on_c, 9, 82, 95
9, 643200, Note_on_c, 9, 64, 95
9, 643680, Note_off_c, 9, 82, 95
9, 643680, Note_off_c, 9, 64, 95
9, 643680, Note_on_c, 9, 82, 95
9, 643680, Note_on_c, 9, 81, 95
9, 644160, Note_off_c, 9, 82, 95
9, 644160, Note_off_c, 9, 81, 95
9, 644160, Note_on_c, 9, 82, 95
9, 644160, Note_on_c, 9, 64, 95
9, 644640, Note_off_c, 9, 82, 95
9, 644640, Note_off_c, 9, 64, 95
9, 644640, Note_on_c, 9, 82, 95
9, 645120, Note_off_c, 9, 82, 95
9, 645120, Note_on_c, 9, 82, 95
9, 645120, Note_on_c, 9, 81, 95
9, 645120, Note_on_c, 9, 63, 95
9, 645600, Note_off_c, 9, 82, 95
9, 645600, Note_off_c, 9, 81, 95
9, 645600, Note_off_c, 9, 63, 95
9, 645600, Note_on_c, 9, 82, 95
9, 646080, Note_off_c, 9, 82, 95
9, 646080, Note_on_c, 9, 82, 95
9, 646080, Note_on_c, 9, 63, 95
9, 646560, Note_off_c, 9, 82, 95
9, 646560, Note_off_c, 9, 63, 95
9, 646560, Note_on_c, 9, 82, 95
9, 646560, Note_on_c, 9, 81, 95
9, 647040, Note_off_c, 9, 82, 95
9, 647040, Note_off_c, 9, 81, 95
9, 647040, Note_on_c, 9, 82, 95
9, 647040, Note_on_c, 9, 63, 95
9, 647520, Note_off_c, 9, 82, 95
9, 647520, Note_off_c, 9, 63, 95
9, 647520, Note_on_c, 9, 82, 95
9, 648000, Note_off_c, 9, 82, 95
9, 648000, Note_on_c, 9, 82, 95
9, 648000, Note_on_c, 9, 81, 95
9, 648000, Note_on_c, 9, 64, 95
9, 648480, Note_off_c, 9, 82, 95
9, 648480, Note_off_c, 9, 81, 95
9, 648480, Note_off_c, 9, 64, 95
9, 648480, Note_on_c, 9, 82, 95
9, 648960, Note_off_c, 9, 82, 95
9, 648960, Note_on_c, 9, 82, 95
9, 648960, Note_on_c, 9, 64, 95
9, 649440, Note_off_c, 9, 82, 95
9, 649440, Note_off_c, 9, 64, 95
9, 649440, Note_on_c, 9, 82, 95
9, 649440, Note_on_c, 9, 81, 95
9, 649920, Note_off_c, 9, 82, 95
9, 649920, Note_off_c, 9, 81, 95
9, 649920, Note_on_c, 9, 82, 95
9, 649920, Note_on_c, 9, 64, 95
9, 650400, Note_off_c, 9, 82, 95
9, 650400, Note_off_c, 9, 64, 95
9, 650400, Note_on_c, 9, 82, 95
9, 650880, Note_off_c, 9, 82, 95
9, 650880, Note_on_c, 9, 82, 95
9, 650880, Note_on_c, 9, 81, 95
9, 650880, Note_on_c, 9, 63, 95
9, 651360, Note_off_c, 9, 82, 95
9, 651360, Note_off_c, 9, 81, 95
9, 651360, Note_off_c, 9, 63, 95
9, 651360, Note_on_c, 9, 82, 95
9, 651840, Note_off_c, 9, 82, 95
9, 651840, Note_on_c, 9, 82, 95
9, 651840, Note_on_c, 9, 63, 95
9, 652320, Note_off_c, 9, 82, 95
9, 652320, Note_off_c, 9, 63, 95
9, 652320, Note_on_c, 9, 82, 95
9, 652320, Note_on_c, 9, 81, 95
9, 652800, Note_off_c, 9, 82, 95
9, 652800, Note_off_c, 9, 81, 95
9, 652800, Note_on_c, 9, 82, 95
9, 652800, Note_on_c, 9, 63, 95
9, 653280, Note_off_c, 9, 82, 95
9, 653280, Note_off_c, 9, 63, 95
9, 653280, Note_on_c, 9, 82, 95
9, 653760, Note_off_c, 9, 82, 95
9, 653760, Note_on_c, 9, 82, 95
9, 653760, Note_on_c, 9, 81, 95
9, 653760, Note_on_c, 9, 64, 95
9, 654240, Note_off_c, 9, 82, 95
9, 654240, Note_off_c, 9, 81, 95
9, 654240, Note_off_c, 9, 64, 95
9, 654240, Note_on_c, 9, 82, 95
9, 654720, Note_off_c, 9, 82, 95
9, 654720, Note_on_c, 9, 82, 95
9, 654720, Note_on_c, 9, 64, 95
9, 655200, Note_off_c, 9, 82, 95
9, 655200, Note_off_c, 9, 64, 95
9, 655200, Note_on_c, 9, 82, 95
9, 655200, Note_on_c, 9, 81, 95
9, 655680, Note_off_c, 9, 82, 95
9, 655680, Note_off_c, 9, 81, 95
9, 655680, Note_on_c, 9, 82, 95
9, 655680, Note_on_c, 9, 64, 95
9, 656160, Note_off_c, 9, 82, 95
9, 656160, Note_off_c, 9, 64, 95
9, 656160, Note_on_c, 9, 82, 95
9, 656640, Note_off_c, 9, 82, 95
9, 656640, Note_on_c, 9, 82, 95
9, 656640, Note_on_c, 9, 81, 95
9, 656640, Note_on_c, 9, 63, 95
9, 657120, Note_off_c, 9, 82, 95
9, 657120, Note_off_c, 9, 81, 95
9, 657120, Note_off_c, 9, 63, 95
9, 657120, Note_on_c, 9, 82, 95
9, 657600, Note_off_c, 9, 82, 95
9, 657600, Note_on_c, 9, 82, 95
9, 657600, Note_on_c, 9, 63, 95
9, 658080, Note_off_c, 9, 82, 95
9, 658080, Note_off_c, 9, 63, 95
9, 658080, Note_on_c, 9, 82, 95
9, 658080, Note_on_c, 9, 81, 95
9, 658560, Note_off_c, 9, 82, 95
9, 658560, Note_off_c, 9, 81, 95
9, 658560, Note_on_c, 9, 82, 95
9, 658560, Note_on_c, 9, 63, 95
9, 659040, Note_off_c, 9, 82, 95
9, 659040, Note_off_c, 9, 63, 95
9, 659040, Note_on_c, 9, 82, 95
9, 659520, Note_off_c, 9, 82, 95
9, 659520, Note_on_c, 9, 82, 95
9, 659520, Note_on_c, 9, 81, 95
9, 659520, Note_on_c, 9, 64, 95
9, 660000, Note_off_c, 9, 82, 95
9, 660000, Note_off_c, 9, 81, 95
9, 660000, Note_off_c, 9, 64, 95
9, 660000, Note_on_c, 9, 82, 95
9, 660480, Note_off_c, 9, 82, 95
9, 660480, Note_on_c, 9, 82, 95
9, 660480, Note_on_c, 9, 64, 95
9, 660960, Note_off_c, 9, 82, 95
9, 660960, Note_off_c, 9, 64, 95
9, 660960, Note_on_c, 9, 82, 95
9, 660960, Note_on_c, 9, 81, 95
9, 661440, Note_off_c, 9, 82, 95
9, 661440, Note_off_c, 9, 81, 95
9, 661440, Note_on_c, 9, 82, 95
9, 661440, Note_on_c, 9, 64, 95
9, 661920, Note_off_c, 9, 82, 95
9, 661920, Note_off_c, 9, 64, 95
9, 661920, Note_on_c, 9, 82, 95
9, 662400, Note_off_c, 9, 82, 95
9, 662400, Note_on_c, 9, 82, 95
9, 662400, Note_on_c, 9, 81, 95
9, 662400, Note_on_c, 9, 63, 95
9, 662880, Note_off_c, 9, 82, 95
9, 662880, Note_off_c, 9, 81, 95
9, 662880, Note_off_c, 9, 63, 95
9, 662880, Note_on_c, 9, 82, 95
9, 663360, Note_off_c, 9, 82, 95
9, 663360, Note_on_c, 9, 82, 95
9, 663360, Note_on_c, 9, 63, 95
9, 663840, Note_off_c, 9, 82, 95
9, 663840, Note_off_c, 9, 63, 95
9, 663840, Note_on_c, 9, 82, 95
9, 663840, Note_on_c, 9, 81, 95
9, 664320, Note_off_c, 9, 82, 95
9, 664320, Note_off_c, 9, 81, 95
9, 664320, Note_on_c, 9, 82, 95
9, 664320, Note_on_c, 9, 63, 95
9, 664800, Note_off_c, 9, 82, 95
9, 664800, Note_off_c, 9, 63, 95
9, 664800, Note_on_c, 9, 82, 95
9, 665280, Note_off_c, 9, 82, 95
9, 665280, Note_on_c, 9, 82, 95
9, 665280, Note_on_c, 9, 81, 95
9, 665280, Note_on_c, 9, 64, 95
9, 665760, Note_off_c, 9, 82, 95
9, 665760, Note_off_c, 9, 81, 95
9, 665760, Note_off_c, 9, 64, 95
9, 665760, Note_on_c, 9, 82, 95
9, 666240, Note_off_c, 9, 82, 95
9, 666240, Note_on_c, 9, 82, 95
9, 666240, Note_on_c, 9, 64, 95
9, 666720, Note_off_c, 9, 82, 95
9, 666720, Note_off_c, 9, 64, 95
9, 666720, Note_on_c, 9, 82, 95
9, 666720, Note_on_c, 9, 81, 95
9, 667200, Note_off_c, 9, 82, 95
9, 667200, Note_off_c, 9, 81, 95
9, 667200, Note_on_c, 9, 82, 95
9, 667200, Note_on_c, 9, 64, 95
9, 667680, Note_off_c, 9, 82, 95
9, 667680, Note_off_c, 9, 64, 95
9, 667680, Note_on_c, 9, 82, 95
9, 668160, Note_off_c, 9, 82, 95
9, 668160, Note_on_c, 9, 82, 95
9, 668160, Note_on_c, 9, 81, 95
9, 668160, Note_on_c, 9, 63, 95
9, 668640, Note_off_c, 9, 82, 95
9, 668640, Note_off_c, 9, 81, 95
9, 668640, Note_off_c, 9, 63, 95
9, 668640, Note_on_c, 9, 82, 95
9, 669120, Note_off_c, 9, 82, 95
9, 669120, Note_on_c, 9, 82, 95
9, 669120, Note_on_c, 9, 63, 95
9, 669600, Note_off_c, 9, 82, 95
9, 669600, Note_off_c, 9, 63, 95
9, 669600, Note_on_c, 9, 82, 95
9, 669600, Note_on_c, 9, 81, 95
9, 670080, Note_off_c, 9, 82, 95
9, 670080, Note_off_c, 9, 81, 95
9, 670080, Note_on_c, 9, 82, 95
9, 670080, Note_on_c, 9, 63, 95
9, 670560, Note_off_c, 9, 82, 95
9, 670560, Note_off_c, 9, 63, 95
9, 670560, Note_on_c, 9, 82, 95
9, 671040, Note_off_c, 9, 82, 95
9, 671040, Note_on_c, 9, 82, 95
9, 671040, Note_on_c, 9, 81, 95
9, 671040, Note_on_c, 9, 64, 95
9, 671520, Note_off_c, 9, 82, 95
9, 671520, Note_off_c, 9, 81, 95
9, 671520, Note_off_c, 9, 64, 95
9, 671520, Note_on_c, 9, 82, 95
9, 672000, Note_off_c, 9, 82, 95
9, 672000, Note_on_c, 9, 82, 95
9, 672000, Note_on_c, 9, 64, 95
9, 672480, Note_off_c, 9, 82, 95
9, 672480, Note_off_c, 9, 64, 95
9, 672480, Note_on_c, 9, 82, 95
9, 672480, Note_on_c, 9, 81, 95
9, 672960, Note_off_c, 9, 82, 95
9, 672960, Note_off_c, 9, 81, 95
9, 672960, Note_on_c, 9, 82, 95
9, 672960, Note_on_c, 9, 64, 95
9, 673440, Note_off_c, 9, 82, 95
9, 673440, Note_off_c, 9, 64, 95
9, 673440, Note_on_c, 9, 82, 95
9, 673920, Note_off_c, 9, 82, 95
9, 673920, Note_on_c, 9, 82, 95
9, 673920, Note_on_c, 9, 81, 95
9, 673920, Note_on_c, 9, 63, 95
9, 674400, Note_off_c, 9, 82, 95
9, 674400, Note_off_c, 9, 81, 95
9, 674400, Note_off_c, 9, 63, 95
9, 674400, Note_on_c, 9, 82, 95
9, 674880, Note_off_c, 9, 82, 95
9, 674880, Note_on_c, 9, 82, 95
9, 674880, Note_on_c, 9, 63, 95
9, 675360, Note_off_c, 9, 82, 95
9, 675360, Note_off_c, 9, 63, 95
9, 675360, Note_on_c, 9, 82, 95
9, 675360, Note_on_c, 9, 81, 95
9, 675840, Note_off_c, 9, 82, 95
9, 675840, Note_off_c, 9, 81, 95
9, 675840, Note_on_c, 9, 82, 95
9, 675840, Note_on_c, 9, 63, 95
9, 676320, Note_off_c, 9, 82, 95
9, 676320, Note_off_c, 9, 63, 95
9, 676320, Note_on_c, 9, 82, 95
9, 676800, Note_off_c, 9, 82, 95
9, 676800, Note_on_c, 9, 82, 95
9, 676800, Note_on_c, 9, 81, 95
9, 676800, Note_on_c, 9, 64, 95
9, 677280, Note_off_c, 9, 82, 95
9, 677280, Note_off_c, 9, 81, 95
9, 677280, Note_off_c, 9, 64, 95
9, 677280, Note_on_c, 9, 82, 95
9, 677760, Note_off_c, 9, 82, 95
9, 677760, Note_on_c, 9, 82, 95
9, 677760, Note_on_c, 9, 64, 95
9, 678240, Note_off_c, 9, 82, 95
9, 678240, Note_off_c, 9, 64, 95
9, 678240, Note_on_c, 9, 82, 95
9, 678240, Note_on_c, 9, 81, 95
9, 678720, Note_off_c, 9, 82, 95
9, 678720, Note_off_c, 9, 81, 95
9, 678720, Note_on_c, 9, 82, 95
9, 678720, Note_on_c, 9, 64, 95
9, 679200, Note_off_c, 9, 82, 95
9, 679200, Note_off_c, 9, 64, 95
9, 679200, Note_on_c, 9, 82, 95
9, 679680, Note_off_c, 9, 82, 95
9, 679680, Note_on_c, 9, 82, 95
9, 679680, Note_on_c, 9, 81, 95
9, 679680, Note_on_c, 9, 63, 95
9, 680160, Note_off_c, 9, 82, 95
9, 680160, Note_off_c, 9, 81, 95
9, 680160, Note_off_c, 9, 63, 95
9, 680160, Note_on_c, 9, 82, 95
9, 680640, Note_off_c, 9, 82, 95
9, 680640, Note_on_c, 9, 82, 95
9, 680640, Note_on_c, 9, 63, 95
9, 681120, Note_off_c, 9, 82, 95
9, 681120, Note_off_c, 9, 63, 95
9, 681120, Note_on_c, 9, 82, 95
9, 681120, Note_on_c, 9, 81, 95
9, 681600, Note_off_c, 9, 82, 95
9, 681600, Note_off_c, 9, 81, 95
9, 681600, Note_on_c, 9, 82, 95
9, 681600, Note_on_c, 9, 63, 95
9, 682080, Note_off_c, 9, 82, 95
9, 682080, Note_off_c, 9, 63, 95
9, 682080, Note_on_c, 9, 82, 95
9, 682560, Note_off_c, 9, 82, 95
9, 682560, Note_on_c, 9, 82, 95
9, 682560, Note_on_c, 9, 81, 95
9, 682560, Note_on_c, 9, 64, 95
9, 683040, Note_off_c, 9, 82, 95
9, 683040, Note_off_c, 9, 81, 95
9, 683040, Note_off_c, 9, 64, 95
9, 683040, Note_on_c, 9, 82, 95
9, 683520, Note_off_c, 9, 82, 95
9, 683520, Note_on_c, 9, 82, 95
9, 683520, Note_on_c, 9, 64, 95
9, 684000, Note_off_c, 9, 82, 95
9, 684000, Note_off_c, 9, 64, 95
9, 684000, Note_on_c, 9, 82, 95
9, 684000, Note_on_c, 9, 81, 95
9, 684480, Note_off_c, 9, 82, 95
9, 684480, Note_off_c, 9, 81, 95
9, 684480, Note_on_c, 9, 82, 95
9, 684480, Note_on_c, 9, 64, 95
9, 684960, Note_off_c, 9, 82, 95
9, 684960, Note_off_c, 9, 64, 95
9, 684960, Note_on_c, 9, 82, 95
9, 685440, Note_off_c, 9, 82, 95
9, 685440, Note_on_c, 9, 82, 95
9, 685440, Note_on_c, 9, 81, 95
9, 685440, Note_on_c, 9, 63, 95
9, 685920, Note_off_c, 9, 82, 95
9, 685920, Note_off_c, 9, 81, 95
9, 685920, Note_off_c, 9, 63, 95
9, 685920, Note_on_c, 9, 82, 95
9, 686400, Note_off_c, 9, 82, 95
9, 686400, Note_on_c, 9, 82, 95
9, 686400, Note_on_c, 9, 63, 95
9, 686880, Note_off_c, 9, 82, 95
9, 686880, Note_off_c, 9, 63, 95
9, 686880, Note_on_c, 9, 82, 95
9, 686880, Note_on_c, 9, 81, 95
9, 687360, Note_off_c, 9, 82, 95
9, 687360, Note_off_c, 9, 81, 95
9, 687360, Note_on_c, 9, 82, 95
9, 687360, Note_on_c, 9, 63, 95
9, 687840, Note_off_c, 9, 82, 95
9, 687840, Note_off_c, 9, 63, 95
9, 687840, Note_on_c, 9, 82, 95
9, 688320, Note_off_c, 9, 82, 95
9, 688320, Note_on_c, 9, 82, 95
9, 688320, Note_on_c, 9, 81, 95
9, 688320, Note_on_c, 9, 64, 95
9, 688800, Note_off_c, 9, 82, 95
9, 688800, Note_off_c, 9, 81, 95
9, 688800, Note_off_c, 9, 64, 95
9, 688800, Note_on_c, 9, 82, 95
9, 689280, Note_off_c, 9, 82, 95
9, 689280, Note_on_c, 9, 82, 95
9, 689280, Note_on_c, 9, 64, 95
9, 689760, Note_off_c, 9, 82, 95
9, 689760, Note_off_c, 9, 64, 95
9, 689760, Note_on_c, 9, 82, 95
9, 689760, Note_on_c, 9, 81, 95
9, 690240, Note_off_c, 9, 82, 95
9, 690240, Note_off_c, 9, 81, 95
9, 690240, Note_on_c, 9, 82, 95
9, 690240, Note_on_c, 9, 64, 95
9, 690720, Note_off_c, 9, 82, 95
9, 690720, Note_off_c, 9, 64, 95
9, 690720, Note_on_c, 9, 82, 95
9, 691200, Note_off_c, 9, 82, 95
9, 691200, Note_on_c, 9, 82, 95
9, 691200, Note_on_c, 9, 81, 95
9, 691200, Note_on_c, 9, 63, 95
9, 691680, Note_off_c, 9, 82, 95
9, 691680, Note_off_c, 9, 81, 95
9, 691680, Note_off_c, 9, 63, 95
9, 691680, Note_on_c, 9, 82, 95
9, 692160, Note_off_c, 9, 82, 95
9, 692160, Note_on_c, 9, 82, 95
9, 692160, Note_on_c, 9, 63, 95
9, 692640, Note_off_c, 9, 82, 95
9, 692640, Note_off_c, 9, 63, 95
9, 692640, Note_on_c, 9, 82, 95
9, 692640, Note_on_c, 9, 81, 95
9, 693120, Note_off_c, 9, 82, 95
9, 693120, Note_off_c, 9, 81, 95
9, 693120, Note_on_c, 9, 82, 95
9, 693120, Note_on_c, 9, 63, 95
9, 693600, Note_off_c, 9, 82, 95
9, 693600, Note_off_c, 9, 63, 95
9, 693600, Note_on_c, 9, 82, 95
9, 694080, Note_off_c, 9, 82, 95
9, 694080, Note_on_c, 9, 82, 95
9, 694080, Note_on_c, 9, 81, 95
9, 694080, Note_on_c, 9, 64, 95
9, 694560, Note_off_c, 9, 82, 95
9, 694560, Note_off_c, 9, 81, 95
9, 694560, Note_off_c, 9, 64, 95
9, 694560, Note_on_c, 9, 82, 95
9, 695040, Note_off_c, 9, 82, 95
9, 695040, Note_on_c, 9, 82, 95
9, 695040, Note_on_c, 9, 64, 95
9, 695520, Note_off_c, 9, 82, 95
9, 695520, Note_off_c, 9, 64, 95
9, 695520, Note_on_c, 9, 82, 95
9, 695520, Note_on_c, 9, 81, 95
9, 696000, Note_off_c, 9, 82, 95
9, 696000, Note_off_c, 9, 81, 95
9, 696000, Note_on_c, 9, 82, 95
9, 696000, Note_on_c, 9, 64, 95
9, 696480, Note_off_c, 9, 82, 95
9, 696480, Note_off_c, 9, 64, 95
9, 696480, Note_on_c, 9, 82, 95
9, 696960, Note_off_c, 9, 82, 95
9, 696960, Note_on_c, 9, 82, 95
9, 696960, Note_on_c, 9, 81, 95
9, 696960, Note_on_c, 9, 63, 95
9, 697440, Note_off_c, 9, 82, 95
9, 697440, Note_off_c, 9, 81, 95
9, 697440, Note_off_c, 9, 63, 95
9, 697440, Note_on_c, 9, 82, 95
9, 697920, Note_off_c, 9, 82, 95
9, 697920, Note_on_c, 9, 82, 95
9, 697920, Note_on_c, 9, 63, 95
9, 698400, Note_off_c, 9, 82, 95
9, 698400, Note_off_c, 9, 63, 95
9, 698400, Note_on_c, 9, 82, 95
9, 698400, Note_on_c, 9, 81, 95
9, 698880, Note_off_c, 9, 82, 95
9, 698880, Note_off_c, 9, 81, 95
9, 698880, Note_on_c, 9, 82, 95
9, 698880, Note_on_c, 9, 63, 95
9, 699360, Note_off_c, 9, 82, 95
9, 699360, Note_off_c, 9, 63, 95
9, 699360, Note_on_c, 9, 82, 95
9, 699840, Note_off_c, 9, 82, 95
9, 699840, Note_on_c, 9, 82, 95
9, 699840, Note_on_c, 9, 81, 95
9, 699840, Note_on_c, 9, 64, 95
9, 700320, Note_off_c, 9, 82, 95
9, 700320, Note_off_c, 9, 81, 95
9, 700320, Note_off_c, 9, 64, 95
9, 700320, Note_on_c, 9, 82, 95
9, 700800, Note_off_c, 9, 82, 95
9, 700800, Note_on_c, 9, 82, 95
9, 700800, Note_on_c, 9, 64, 95
9, 701280, Note_off_c, 9, 82, 95
9, 701280, Note_off_c, 9, 64, 95
9, 701280, Note_on_c, 9, 82, 95
9, 701280, Note_on_c, 9, 81, 95
9, 701760, Note_off_c, 9, 82, 95
9, 701760, Note_off_c, 9, 81, 95
9, 701760, Note_on_c, 9, 82, 95
9, 701760, Note_on_c, 9, 64, 95
9, 702240, Note_off_c, 9, 82, 95
9, 702240, Note_off_c, 9, 64, 95
9, 702240, Note_on_c, 9, 82, 95
9, 702720, Note_off_c, 9, 82, 95
9, 702720, Note_on_c, 9, 82, 95
9, 702720, Note_on_c, 9, 81, 95
9, 702720, Note_on_c, 9, 63, 95
9, 703200, Note_off_c, 9, 82, 95
9, 703200, Note_off_c, 9, 81, 95
9, 703200, Note_off_c, 9, 63, 95
9, 703200, Note_on_c, 9, 82, 95
9, 703680, Note_off_c, 9, 82, 95
9, 703680, Note_on_c, 9, 82, 95
9, 703680, Note_on_c, 9, 63, 95
9, 704160, Note_off_c, 9, 82, 95
9, 704160, Note_off_c, 9, 63, 95
9, 704160, Note_on_c, 9, 82, 95
9, 704160, Note_on_c, 9, 81, 95
9, 704640, Note_off_c, 9, 82, 95
9, 704640, Note_off_c, 9, 81, 95
9, 704640, Note_on_c, 9, 82, 95
9, 704640, Note_on_c, 9, 63, 95
9, 705120, Note_off_c, 9, 82, 95
9, 705120, Note_off_c, 9, 63, 95
9, 705120, Note_on_c, 9, 82, 95
9, 705600, Note_off_c, 9, 82, 95
9, 705600, Note_on_c, 9, 82, 95
9, 705600, Note_on_c, 9, 81, 95
9, 705600, Note_on_c, 9, 64, 95
9, 706080, Note_off_c, 9, 82, 95
9, 706080, Note_off_c, 9, 81, 95
9, 706080, Note_off_c, 9, 64, 95
9, 706080, Note_on_c, 9, 82, 95
9, 706560, Note_off_c, 9, 82, 95
9, 706560, Note_on_c, 9, 82, 95
9, 706560, Note_on_c, 9, 64, 95
9, 707040, Note_off_c, 9, 82, 95
9, 707040, Note_off_c, 9, 64, 95
9, 707040, Note_on_c, 9, 82, 95
9, 707040, Note_on_c, 9, 81, 95
9, 707520, Note_off_c, 9, 82, 95
9, 707520, Note_off_c, 9, 81, 95
9, 707520, Note_on_c, 9, 82, 95
9, 707520, Note_on_c, 9, 64, 95
9, 708000, Note_off_c, 9, 82, 95
9, 708000, Note_off_c, 9, 64, 95
9, 708000, Note_on_c, 9, 82, 95
9, 708480, Note_off_c, 9, 82, 95
9, 708480, Note_on_c, 9, 82, 95
9, 708480, Note_on_c, 9, 81, 95
9, 708480, Note_on_c, 9, 63, 95
9, 708960, Note_off_c, 9, 82, 95
9, 708960, Note_off_c, 9, 81, 95
9, 708960, Note_off_c, 9, 63, 95
9, 708960, Note_on_c, 9, 82, 95
9, 709440, Note_off_c, 9, 82, 95
9, 709440, Note_on_c, 9, 82, 95
9, 709440, Note_on_c, 9, 63, 95
9, 709920, Note_off_c, 9, 82, 95
9, 709920, Note_off_c, 9, 63, 95
9, 709920, Note_on_c, 9, 82, 95
9, 709920, Note_on_c, 9, 81, 95
9, 710400, Note_off_c, 9, 82, 95
9, 710400, Note_off_c, 9, 81, 95
9, 710400, Note_on_c, 9, 82, 95
9, 710400, Note_on_c, 9, 63, 95
9, 710880, Note_off_c, 9, 82, 95
9, 710880, Note_off_c, 9, 63, 95
9, 710880, Note_on_c, 9, 82, 95
9, 711360, Note_off_c, 9, 82, 95
9, 711360, Note_on_c, 9, 82, 95
9, 711360, Note_on_c, 9, 81, 95
9, 711360, Note_on_c, 9, 64, 95
9, 711840, Note_off_c, 9, 82, 95
9, 711840, Note_off_c, 9, 81, 95
9, 711840, Note_off_c, 9, 64, 95
9, 711840, Note_on_c, 9, 82, 95
9, 712320, Note_off_c, 9, 82, 95
9, 712320, Note_on_c, 9, 82, 95
9, 712320, Note_on_c, 9, 64, 95
9, 712800, Note_off_c, 9, 82, 95
9, 712800, Note_off_c, 9, 64, 95
9, 712800, Note_on_c, 9, 82, 95
9, 712800, Note_on_c, 9, 81, 95
9, 713280, Note_off_c, 9, 82, 95
9, 713280, Note_off_c, 9, 81, 95
9, 713280, Note_on_c, 9, 82, 95
9, 713280, Note_on_c, 9, 64, 95
9, 713760, Note_off_c, 9, 82, 95
9, 713760, Note_off_c, 9, 64, 95
9, 713760, Note_on_c, 9, 82, 95
9, 714240, Note_off_c, 9, 82, 95
9, 714240, Note_on_c, 9, 82, 95
9, 714240, Note_on_c, 9, 81, 95
9, 714240, Note_on_c, 9, 63, 95
9, 714720, Note_off_c, 9, 82, 95
9, 714720, Note_off_c, 9, 81, 95
9, 714720, Note_off_c, 9, 63, 95
9, 714720, Note_on_c, 9, 82, 95
9, 715200, Note_off_c, 9, 82, 95
9, 715200, Note_on_c, 9, 82, 95
9, 715200, Note_on_c, 9, 63, 95
9, 715680, Note_off_c, 9, 82, 95
9, 715680, Note_off_c, 9, 63, 95
9, 715680, Note_on_c, 9, 82, 95
9, 715680, Note_on_c, 9, 81, 95
9, 716160, Note_off_c, 9, 82, 95
9, 716160, Note_off_c, 9, 81, 95
9, 716160, Note_on_c, 9, 82, 95
9, 716160, Note_on_c, 9, 63, 95
9, 716640, Note_off_c, 9, 82, 95
9, 716640, Note_off_c, 9, 63, 95
9, 716640, Note_on_c, 9, 82, 95
9, 717120, Note_off_c, 9, 82, 95
9, 717120, Note_on_c, 9, 82, 95
9, 717120, Note_on_c, 9, 81, 95
9, 717120, Note_on_c, 9, 64, 95
9, 717600, Note_off_c, 9, 82, 95
9, 717600, Note_off_c, 9, 81, 95
9, 717600, Note_off_c, 9, 64, 95
9, 717600, Note_on_c, 9, 82, 95
9, 718080, Note_off_c, 9, 82, 95
9, 718080, Note_on_c, 9, 82, 95
9, 718080, Note_on_c, 9, 64, 95
9, 718560, Note_off_c, 9, 82, 95
9, 718560, Note_off_c, 9, 64, 95
9, 718560, Note_on_c, 9, 82, 95
9, 718560, Note_on_c, 9, 81, 95
9, 719040, Note_off_c, 9, 82, 95
9, 719040, Note_off_c, 9, 81, 95
9, 719040, Note_on_c, 9, 82, 95
9, 719040, Note_on_c, 9, 64, 95
9, 719520, Note_off_c, 9, 82, 95
9, 719520, Note_off_c, 9, 64, 95
9, 719520, Note_on_c, 9, 82, 95
9, 720000, Note_off_c, 9, 82, 95
9, 720000, Note_on_c, 9, 82, 95
9, 720000, Note_on_c, 9, 81, 95
9, 720000, Note_on_c, 9, 63, 95
9, 720480, Note_off_c, 9, 82, 95
9, 720480, Note_off_c, 9, 81, 95
9, 720480, Note_off_c, 9, 63, 95
9, 720480, Note_on_c, 9, 82, 95
9, 720960, Note_off_c, 9, 82, 95
9, 720960, Note_on_c, 9, 82, 95
9, 720960, Note_on_c, 9, 63, 95
9, 721440, Note_off_c, 9, 82, 95
9, 721440, Note_off_c, 9, 63, 95
9, 721440, Note_on_c, 9, 82, 95
9, 721440, Note_on_c, 9, 81, 95
9, 721920, Note_off_c, 9, 82, 95
9, 721920, Note_off_c, 9, 81, 95
9, 721920, Note_on_c, 9, 82, 95
9, 721920, Note_on_c, 9, 63, 95
9, 722400, Note_off_c, 9, 82, 95
9, 722400, Note_off_c, 9, 63, 95
9, 722400, Note_on_c, 9, 82, 95
9, 722880, Note_off_c, 9, 82, 95
9, 722880, Note_on_c, 9, 82, 95
9, 722880, Note_on_c, 9, 81, 95
9, 722880, Note_on_c, 9, 64, 95
9, 723360, Note_off_c, 9, 82, 95
9, 723360, Note_off_c, 9, 81, 95
9, 723360, Note_off_c, 9, 64, 95
9, 723360, Note_on_c, 9, 82, 95
9, 723840, Note_off_c, 9, 82, 95
9, 723840, Note_on_c, 9, 82, 95
9, 723840, Note_on_c, 9, 64, 95
9, 724320, Note_off_c, 9, 82, 95
9, 724320, Note_off_c, 9, 64, 95
9, 724320, Note_on_c, 9, 82, 95
9, 724320, Note_on_c, 9, 81, 95
9, 724800, Note_off_c, 9, 82, 95
9, 724800, Note_off_c, 9, 81, 95
9, 724800, Note_on_c, 9, 82, 95
9, 724800, Note_on_c, 9, 64, 95
9, 725280, Note_off_c, 9, 82, 95
9, 725280, Note_off_c, 9, 64, 95
9, 725280, Note_on_c, 9, 82, 95
9, 725760, Note_off_c, 9, 82, 95
9, 725760, End_track
0, 0, End_of_file
