0, 0, Header, 1, 15, 120
1, 0, Start_track
1, 0, Time_signature, 4, 2, 24, 8
1, 0, Key_signature, 0, "major"
1, 0, Tempo, 521739
1, 4320, Marker_t, "By the rivers..."
1, 12000, Marker_t, "When the wicked..."
1, 16320, Marker_t, "When the wicked..."
1, 20640, Marker_t, "Humming"
1, 24480, Marker_t, "Let the words..."
1, 28320, Marker_t, "Let the words..."
1, 32160, Marker_t, "By the rivers..."
1, 36000, Marker_t, "By the rivers..."
1, 40320, Marker_t, "Instrumental"
1, 40320, End_track
2, 0, Start_track
2, 0, MIDI_port, 0
2, 0, Title_t, "Soft Karaoke"
2, 0, Text_t, "@KMIDI KARAOKE FILE"
2, 0, End_track
3, 0, Start_track
3, 0, MIDI_port, 0
3, 0, Title_t, "Words"
3, 0, Text_t, "@LENGL"
3, 0, Text_t, "@TRIVERS OF BABYLON"
3, 0, Text_t, "@TBoney M."
3, 0, Text_t, "@TKaraoke by Raphael Pungin (raphael@cnct.com)"
3, 4438, Text_t, "\\By "
3, 4500, Text_t, "the "
3, 4565, Text_t, "ri"
3, 4623, Text_t, "vers "
3, 4685, Text_t, "of "
3, 4803, Text_t, "Ba"
3, 4921, Text_t, "by"
3, 4980, Text_t, "lon,"
3, 5403, Text_t, "/there "
3, 5523, Text_t, "we "
3, 5641, Text_t, "sat "
3, 5762, Text_t, "down"
3, 6361, Text_t, "\\ye"
3, 6482, Text_t, "ah "
3, 6598, Text_t, "we "
3, 6717, Text_t, "wept,"
3, 7262, Text_t, "/when "
3, 7322, Text_t, "we "
3, 7383, Text_t, "re"
3, 7442, Text_t, "mem"
3, 7561, Text_t, "bered "
3, 7682, Text_t, "Zi"
3, 7862, Text_t, "on."
3, 8281, Text_t, "\\By "
3, 8346, Text_t, "the "
3, 8402, Text_t, "ri"
3, 8463, Text_t, "vers "
3, 8521, Text_t, "of "
3, 8638, Text_t, "Ba"
3, 8756, Text_t, "by"
3, 8825, Text_t, "lon,"
3, 9242, Text_t, "/there "
3, 9356, Text_t, "we "
3, 9478, Text_t, "sat "
3, 9598, Text_t, "down"
3, 10198, Text_t, "\\ye"
3, 10316, Text_t, "ah "
3, 10436, Text_t, "we "
3, 10558, Text_t, "wept,"
3, 11097, Text_t, "/when "
3, 11162, Text_t, "we "
3, 11217, Text_t, "re"
3, 11282, Text_t, "mem"
3, 11396, Text_t, "bered "
3, 11522, Text_t, "Zi"
3, 11702, Text_t, "on."
3, 12065, Text_t, "\\When "
3, 12182, Text_t, "the "
3, 12237, Text_t, "wick"
3, 12352, Text_t, "ed"
3, 12482, Text_t, "/Car"
3, 12543, Text_t, "ried "
3, 12598, Text_t, "us "
3, 12663, Text_t, "a"
3, 12720, Text_t, "way "
3, 12780, Text_t, "in "
3, 12840, Text_t, "cap"
3, 12961, Text_t, "ti"
3, 13023, Text_t, "vi"
3, 13142, Text_t, "ty"
3, 13378, Text_t, "/Re"
3, 13441, Text_t, "quir"
3, 13498, Text_t, "ed "
3, 13618, Text_t, "from "
3, 13677, Text_t, "us "
3, 13801, Text_t, "a "
3, 13863, Text_t, "song"
3, 14280, Text_t, "\\Now "
3, 14340, Text_t, "how "
3, 14462, Text_t, "shall "
3, 14576, Text_t, "we "
3, 14642, Text_t, "sing "
3, 14756, Text_t, "the "
3, 14822, Text_t, "lord's "
3, 14943, Text_t, "song"
3, 15176, Text_t, "/in "
3, 15238, Text_t, "a "
3, 15362, Text_t, "strange "
3, 15840, Text_t, "land"
3, 16385, Text_t, "\\When "
3, 16502, Text_t, "the "
3, 16557, Text_t, "wick"
3, 16672, Text_t, "ed"
3, 16800, Text_t, "/Car"
3, 16860, Text_t, "ried "
3, 16918, Text_t, "us "
3, 16980, Text_t, "a"
3, 17040, Text_t, "way "
3, 17100, Text_t, "in "
3, 17160, Text_t, "cap"
3, 17280, Text_t, "ti"
3, 17340, Text_t, "vi"
3, 17460, Text_t, "ty"
3, 17698, Text_t, "/Re"
3, 17760, Text_t, "quir"
3, 17818, Text_t, "ed "
3, 17938, Text_t, "from "
3, 17997, Text_t, "us "
3, 18120, Text_t, "a "
3, 18180, Text_t, "song"
3, 18600, Text_t, "\\Now "
3, 18660, Text_t, "how "
3, 18780, Text_t, "shall "
3, 18896, Text_t, "we "
3, 18960, Text_t, "sing "
3, 19076, Text_t, "the "
3, 19142, Text_t, "lord's "
3, 19262, Text_t, "song"
3, 19496, Text_t, "/in "
3, 19558, Text_t, "a "
3, 19680, Text_t, "strange "
3, 20160, Text_t, "land"
3, 20640, Text_t, "\\"
3, 20640, Text_t, "\\"
3, 24716, Text_t, "\\Let "
3, 24835, Text_t, "the "
3, 24955, Text_t, "words "
3, 25194, Text_t, "of "
3, 25313, Text_t, "o"
3, 25372, Text_t, "ur "
3, 25435, Text_t, "mouths"
3, 25674, Text_t, "/and "
3, 25740, Text_t, "the "
3, 25795, Text_t, "me"
3, 25851, Text_t, "di"
3, 25914, Text_t, "ta"
3, 26033, Text_t, "tions "
3, 26155, Text_t, "of "
3, 26273, Text_t, "o"
3, 26327, Text_t, "ur "
3, 26391, Text_t, "hearts"
3, 26638, Text_t, "/be "
3, 26763, Text_t, "ac"
3, 26880, Text_t, "cep"
3, 27000, Text_t, "ta"
3, 27050, Text_t, "ble "
3, 27110, Text_t, "in "
3, 27237, Text_t, "thy "
3, 27353, Text_t, "sight "
3, 27598, Text_t, "here "
3, 27776, Text_t, "to"
3, 27894, Text_t, "night"
3, 28559, Text_t, "\\Let "
3, 28671, Text_t, "the "
3, 28793, Text_t, "words "
3, 29033, Text_t, "of "
3, 29157, Text_t, "o"
3, 29220, Text_t, "ur "
3, 29274, Text_t, "mouths"
3, 29520, Text_t, "/and "
3, 29580, Text_t, "the "
3, 29640, Text_t, "me"
3, 29694, Text_t, "di"
3, 29756, Text_t, "ta"
3, 29876, Text_t, "tions "
3, 29998, Text_t, "of "
3, 30117, Text_t, "our "
3, 30235, Text_t, "hearts"
3, 30475, Text_t, "/be "
3, 30594, Text_t, "ac"
3, 30713, Text_t, "cep"
3, 30829, Text_t, "ta"
3, 30890, Text_t, "ble "
3, 30951, Text_t, "in "
3, 31070, Text_t, "thy "
3, 31198, Text_t, "sight "
3, 31432, Text_t, "here "
3, 31622, Text_t, "to"
3, 31746, Text_t, "night"
3, 32281, Text_t, "\\By "
3, 32346, Text_t, "the "
3, 32402, Text_t, "ri"
3, 32463, Text_t, "vers "
3, 32521, Text_t, "of "
3, 32638, Text_t, "Ba"
3, 32756, Text_t, "by"
3, 32825, Text_t, "lon,"
3, 33242, Text_t, "/there "
3, 33356, Text_t, "we "
3, 33478, Text_t, "sat "
3, 33598, Text_t, "down"
3, 34198, Text_t, "\\ye"
3, 34316, Text_t, "ah "
3, 34436, Text_t, "we "
3, 34558, Text_t, "wept,"
3, 35097, Text_t, "/when "
3, 35162, Text_t, "we "
3, 35217, Text_t, "re"
3, 35282, Text_t, "mem"
3, 35396, Text_t, "bered "
3, 35522, Text_t, "Zi"
3, 35702, Text_t, "on."
3, 36121, Text_t, "\\By "
3, 36186, Text_t, "the "
3, 36242, Text_t, "ri"
3, 36303, Text_t, "vers "
3, 36361, Text_t, "of "
3, 36478, Text_t, "Ba"
3, 36596, Text_t, "by"
3, 36665, Text_t, "lon,"
3, 37082, Text_t, "/there "
3, 37196, Text_t, "we "
3, 37318, Text_t, "sat "
3, 37438, Text_t, "down"
3, 38038, Text_t, "\\ye"
3, 38156, Text_t, "ah "
3, 38276, Text_t, "we "
3, 38398, Text_t, "wept,"
3, 38937, Text_t, "/when "
3, 39002, Text_t, "we "
3, 39057, Text_t, "re"
3, 39122, Text_t, "mem"
3, 39236, Text_t, "bered "
3, 39362, Text_t, "Zi"
3, 39542, Text_t, "on."
3, 40320, Text_t, "\\"
3, 40320, Text_t, "\\"
3, 47641, Text_t, "\\By "
3, 47706, Text_t, "the "
3, 47762, Text_t, "ri"
3, 47823, Text_t, "vers "
3, 47881, Text_t, "of "
3, 47998, Text_t, "Ba"
3, 48116, Text_t, "by"
3, 48185, Text_t, "lon,"
3, 48602, Text_t, "/there "
3, 48716, Text_t, "we "
3, 48838, Text_t, "sat "
3, 48958, Text_t, "down"
3, 49558, Text_t, "\\ye"
3, 49676, Text_t, "ah "
3, 49796, Text_t, "we "
3, 49918, Text_t, "wept,"
3, 50457, Text_t, "/when "
3, 50522, Text_t, "we "
3, 50577, Text_t, "re"
3, 50642, Text_t, "mem"
3, 50756, Text_t, "bered "
3, 50882, Text_t, "Zi"
3, 51062, Text_t, "on."
3, 51481, Text_t, "\\By "
3, 51546, Text_t, "the "
3, 51602, Text_t, "ri"
3, 51663, Text_t, "vers "
3, 51721, Text_t, "of "
3, 51838, Text_t, "Ba"
3, 51956, Text_t, "by"
3, 52025, Text_t, "lon,"
3, 52442, Text_t, "/there "
3, 52556, Text_t, "we "
3, 52678, Text_t, "sat "
3, 52798, Text_t, "down"
3, 53398, Text_t, "\\ye"
3, 53516, Text_t, "ah "
3, 53636, Text_t, "we "
3, 53758, Text_t, "wept,"
3, 54297, Text_t, "/when "
3, 54362, Text_t, "we "
3, 54417, Text_t, "re"
3, 54482, Text_t, "mem"
3, 54596, Text_t, "bered "
3, 54722, Text_t, "Zi"
3, 54902, Text_t, "on."
3, 55321, Text_t, "\\By "
3, 55386, Text_t, "the "
3, 55442, Text_t, "ri"
3, 55503, Text_t, "vers "
3, 55561, Text_t, "of "
3, 55678, Text_t, "Ba"
3, 55796, Text_t, "by"
3, 55865, Text_t, "lon,"
3, 56282, Text_t, "/there "
3, 56396, Text_t, "we "
3, 56518, Text_t, "sat "
3, 56638, Text_t, "down"
3, 57238, Text_t, "\\ye"
3, 57356, Text_t, "ah "
3, 57476, Text_t, "we "
3, 57598, Text_t, "wept,"
3, 58137, Text_t, "/when "
3, 58202, Text_t, "we "
3, 58257, Text_t, "re"
3, 58322, Text_t, "mem"
3, 58436, Text_t, "bered "
3, 58562, Text_t, "Zi"
3, 58742, Text_t, "on."
3, 58742, End_track
4, 0, Start_track
4, 0, MIDI_port, 0
4, 0, Title_t, "Melody"
4, 0, Program_c, 3, 26
4, 0, Control_c, 3, 7, 120
4, 0, Control_c, 3, 10, 64
4, 480, Control_c, 3, 121, 0
4, 520, Control_c, 3, 91, 70
4, 4438, Lyric_t, "By "
4, 4438, Note_on_c, 3, 55, 107
4, 4479, Note_on_c, 3, 55, 0
4, 4500, Lyric_t, "the "
4, 4500, Note_on_c, 3, 55, 107
4, 4545, Note_on_c, 3, 55, 0
4, 4565, Lyric_t, "ri"
4, 4565, Note_on_c, 3, 60, 107
4, 4603, Note_on_c, 3, 60, 0
4, 4623, Lyric_t, "vers "
4, 4623, Note_on_c, 3, 60, 107
4, 4661, Note_on_c, 3, 60, 0
4, 4685, Lyric_t, "of "
4, 4685, Note_on_c, 3, 62, 107
4, 4796, Note_on_c, 3, 62, 0
4, 4803, Lyric_t, "Ba"
4, 4803, Note_on_c, 3, 64, 107
4, 4894, Note_on_c, 3, 64, 0
4, 4921, Lyric_t, "by"
4, 4921, Note_on_c, 3, 64, 107
4, 4949, Note_on_c, 3, 64, 0
4, 4980, Lyric_t, "lon, "
4, 4980, Lyric_t, ""
4, 4980, Lyric_t, "\015"
4, 4980, Note_on_c, 3, 64, 107
4, 5303, Note_on_c, 3, 64, 0
4, 5403, Lyric_t, "there "
4, 5403, Note_on_c, 3, 55, 107
4, 5523, Lyric_t, "we "
4, 5523, Note_on_c, 3, 60, 107
4, 5529, Note_on_c, 3, 55, 0
4, 5641, Lyric_t, "sat "
4, 5641, Note_on_c, 3, 62, 107
4, 5646, Note_on_c, 3, 60, 0
4, 5757, Note_on_c, 3, 62, 0
4, 5762, Lyric_t, "down "
4, 5762, Lyric_t, ""
4, 5762, Lyric_t, "\015"
4, 5762, Note_on_c, 3, 64, 107
4, 6260, Note_on_c, 3, 64, 0
4, 6361, Lyric_t, "ye"
4, 6361, Note_on_c, 3, 64, 107
4, 6482, Lyric_t, "eah "
4, 6482, Note_on_c, 3, 65, 107
4, 6483, Note_on_c, 3, 64, 0
4, 6584, Note_on_c, 3, 65, 0
4, 6598, Lyric_t, "we "
4, 6598, Note_on_c, 3, 64, 107
4, 6717, Lyric_t, "wept, "
4, 6717, Lyric_t, ""
4, 6717, Lyric_t, "\015"
4, 6717, Note_on_c, 3, 62, 107
4, 6719, Note_on_c, 3, 64, 0
4, 7197, Note_on_c, 3, 62, 0
4, 7262, Lyric_t, "when "
4, 7262, Note_on_c, 3, 62, 107
4, 7295, Note_on_c, 3, 62, 0
4, 7322, Lyric_t, "we "
4, 7322, Note_on_c, 3, 62, 107
4, 7343, Note_on_c, 3, 62, 0
4, 7383, Lyric_t, "re"
4, 7383, Note_on_c, 3, 62, 107
4, 7398, Note_on_c, 3, 62, 0
4, 7442, Lyric_t, "mem"
4, 7442, Note_on_c, 3, 62, 107
4, 7555, Note_on_c, 3, 62, 0
4, 7561, Lyric_t, "bered "
4, 7561, Note_on_c, 3, 64, 107
4, 7682, Note_on_c, 3, 64, 0
4, 7682, Lyric_t, "Zi"
4, 7682, Note_on_c, 3, 62, 107
4, 7792, Note_on_c, 3, 62, 0
4, 7802, Note_on_c, 3, 60, 107
4, 7813, Note_on_c, 3, 60, 0
4, 7862, Lyric_t, "on. "
4, 7862, Lyric_t, ""
4, 7862, Lyric_t, "\015"
4, 7862, Lyric_t, ""
4, 7862, Lyric_t, "\015"
4, 7862, Note_on_c, 3, 60, 107
4, 8188, Note_on_c, 3, 60, 0
4, 8281, Lyric_t, "By "
4, 8281, Note_on_c, 3, 55, 107
4, 8326, Note_on_c, 3, 55, 0
4, 8346, Lyric_t, "the "
4, 8346, Note_on_c, 3, 55, 107
4, 8398, Note_on_c, 3, 55, 0
4, 8402, Lyric_t, "ri"
4, 8402, Note_on_c, 3, 60, 107
4, 8447, Note_on_c, 3, 60, 0
4, 8463, Lyric_t, "vers "
4, 8463, Note_on_c, 3, 60, 107
4, 8505, Note_on_c, 3, 60, 0
4, 8521, Lyric_t, "of "
4, 8521, Note_on_c, 3, 62, 107
4, 8632, Note_on_c, 3, 62, 0
4, 8638, Lyric_t, "Ba"
4, 8638, Note_on_c, 3, 64, 107
4, 8729, Note_on_c, 3, 64, 0
4, 8756, Lyric_t, "by"
4, 8756, Note_on_c, 3, 64, 107
4, 8792, Note_on_c, 3, 64, 0
4, 8825, Lyric_t, "lon, "
4, 8825, Lyric_t, ""
4, 8825, Lyric_t, "\015"
4, 8825, Note_on_c, 3, 64, 107
4, 9157, Note_on_c, 3, 64, 0
4, 9242, Lyric_t, "there "
4, 9242, Note_on_c, 3, 55, 107
4, 9356, Lyric_t, "we "
4, 9356, Note_on_c, 3, 60, 107
4, 9362, Note_on_c, 3, 55, 0
4, 9476, Note_on_c, 3, 60, 0
4, 9478, Lyric_t, "sat "
4, 9478, Note_on_c, 3, 62, 107
4, 9594, Note_on_c, 3, 62, 0
4, 9598, Lyric_t, "down "
4, 9598, Lyric_t, ""
4, 9598, Lyric_t, "\015"
4, 9598, Note_on_c, 3, 64, 107
4, 10081, Note_on_c, 3, 64, 0
4, 10198, Lyric_t, "ye"
4, 10198, Note_on_c, 3, 64, 107
4, 10316, Note_on_c, 3, 64, 0
4, 10316, Lyric_t, "eah "
4, 10316, Note_on_c, 3, 65, 107
4, 10426, Note_on_c, 3, 65, 0
4, 10436, Lyric_t, "we "
4, 10436, Note_on_c, 3, 64, 107
4, 10558, Lyric_t, "wept, "
4, 10558, Lyric_t, ""
4, 10558, Lyric_t, "\015"
4, 10558, Note_on_c, 3, 62, 107
4, 10559, Note_on_c, 3, 64, 0
4, 11039, Note_on_c, 3, 62, 0
4, 11097, Lyric_t, "when "
4, 11097, Note_on_c, 3, 62, 107
4, 11128, Note_on_c, 3, 62, 0
4, 11162, Lyric_t, "we "
4, 11162, Note_on_c, 3, 62, 107
4, 11187, Note_on_c, 3, 62, 0
4, 11217, Lyric_t, "re"
4, 11217, Note_on_c, 3, 62, 107
4, 11235, Note_on_c, 3, 62, 0
4, 11282, Lyric_t, "mem"
4, 11282, Note_on_c, 3, 62, 107
4, 11396, Lyric_t, "bered "
4, 11396, Note_on_c, 3, 64, 107
4, 11397, Note_on_c, 3, 62, 0
4, 11517, Note_on_c, 3, 64, 0
4, 11522, Lyric_t, "Zi"
4, 11522, Note_on_c, 3, 62, 107
4, 11628, Note_on_c, 3, 62, 0
4, 11636, Note_on_c, 3, 60, 107
4, 11654, Note_on_c, 3, 60, 0
4, 11702, Lyric_t, "on. "
4, 11702, Lyric_t, ""
4, 11702, Lyric_t, "\015"
4, 11702, Lyric_t, ""
4, 11702, Lyric_t, "\015"
4, 11702, Note_on_c, 3, 60, 107
4, 11942, Note_on_c, 3, 60, 0
4, 12065, Lyric_t, "When "
4, 12065, Note_on_c, 3, 67, 107
4, 12175, Note_on_c, 3, 67, 0
4, 12182, Lyric_t, "the "
4, 12182, Note_on_c, 3, 72, 107
4, 12223, Note_on_c, 3, 72, 0
4, 12237, Lyric_t, "wick"
4, 12237, Note_on_c, 3, 69, 107
4, 12342, Note_on_c, 3, 69, 0
4, 12352, Lyric_t, "ed "
4, 12352, Lyric_t, ""
4, 12352, Lyric_t, "\015"
4, 12352, Note_on_c, 3, 67, 107
4, 12447, Note_on_c, 3, 67, 0
4, 12482, Lyric_t, "Car"
4, 12482, Note_on_c, 3, 64, 107
4, 12523, Note_on_c, 3, 64, 0
4, 12543, Lyric_t, "ried "
4, 12543, Note_on_c, 3, 64, 107
4, 12575, Note_on_c, 3, 64, 0
4, 12598, Lyric_t, "us "
4, 12598, Note_on_c, 3, 64, 107
4, 12645, Note_on_c, 3, 64, 0
4, 12663, Lyric_t, "a"
4, 12663, Note_on_c, 3, 62, 107
4, 12690, Note_on_c, 3, 62, 0
4, 12720, Lyric_t, "way "
4, 12720, Note_on_c, 3, 64, 107
4, 12780, Note_on_c, 3, 64, 0
4, 12780, Lyric_t, "in "
4, 12780, Note_on_c, 3, 64, 107
4, 12840, Note_on_c, 3, 64, 0
4, 12840, Lyric_t, "cap"
4, 12840, Note_on_c, 3, 62, 107
4, 12900, Note_on_c, 3, 62, 0
4, 12961, Lyric_t, "ti"
4, 12961, Note_on_c, 3, 64, 107
4, 13003, Note_on_c, 3, 64, 0
4, 13023, Lyric_t, "vi"
4, 13023, Note_on_c, 3, 64, 107
4, 13063, Note_on_c, 3, 64, 0
4, 13081, Note_on_c, 3, 62, 107
4, 13108, Note_on_c, 3, 62, 0
4, 13142, Lyric_t, "ty "
4, 13142, Lyric_t, ""
4, 13142, Lyric_t, "\015"
4, 13142, Note_on_c, 3, 64, 107
4, 13322, Note_on_c, 3, 64, 0
4, 13378, Lyric_t, "Re"
4, 13378, Note_on_c, 3, 62, 107
4, 13419, Note_on_c, 3, 62, 0
4, 13441, Lyric_t, "quir"
4, 13441, Note_on_c, 3, 60, 107
4, 13477, Note_on_c, 3, 60, 0
4, 13498, Lyric_t, "ed "
4, 13498, Note_on_c, 3, 60, 107
4, 13564, Note_on_c, 3, 60, 0
4, 13618, Lyric_t, "from "
4, 13618, Note_on_c, 3, 62, 107
4, 13660, Note_on_c, 3, 62, 0
4, 13677, Lyric_t, "us "
4, 13677, Note_on_c, 3, 60, 107
4, 13742, Note_on_c, 3, 60, 0
4, 13801, Lyric_t, "a "
4, 13801, Note_on_c, 3, 57, 107
4, 13833, Note_on_c, 3, 57, 0
4, 13863, Lyric_t, "song "
4, 13863, Lyric_t, ""
4, 13863, Lyric_t, "\015"
4, 13863, Note_on_c, 3, 60, 107
4, 14180, Note_on_c, 3, 60, 0
4, 14280, Lyric_t, "Now "
4, 14280, Note_on_c, 3, 55, 107
4, 14325, Note_on_c, 3, 55, 0
4, 14340, Lyric_t, "how "
4, 14340, Note_on_c, 3, 60, 107
4, 14391, Note_on_c, 3, 60, 0
4, 14462, Lyric_t, "shall "
4, 14462, Note_on_c, 3, 60, 107
4, 14535, Note_on_c, 3, 60, 0
4, 14576, Lyric_t, "we "
4, 14576, Note_on_c, 3, 60, 107
4, 14594, Note_on_c, 3, 60, 0
4, 14642, Lyric_t, "sing "
4, 14642, Note_on_c, 3, 60, 107
4, 14745, Note_on_c, 3, 60, 0
4, 14756, Lyric_t, "the "
4, 14756, Note_on_c, 3, 62, 107
4, 14788, Note_on_c, 3, 62, 0
4, 14822, Lyric_t, "lord's "
4, 14822, Note_on_c, 3, 64, 107
4, 14899, Note_on_c, 3, 64, 0
4, 14943, Lyric_t, "song "
4, 14943, Lyric_t, ""
4, 14943, Lyric_t, "\015"
4, 14943, Note_on_c, 3, 64, 107
4, 15176, Lyric_t, "in "
4, 15176, Note_on_c, 3, 65, 107
4, 15178, Note_on_c, 3, 64, 0
4, 15232, Note_on_c, 3, 65, 0
4, 15238, Lyric_t, "a "
4, 15238, Note_on_c, 3, 64, 107
4, 15361, Note_on_c, 3, 64, 0
4, 15362, Lyric_t, "strange "
4, 15362, Note_on_c, 3, 62, 107
4, 15658, Note_on_c, 3, 62, 0
4, 15662, Note_on_c, 3, 60, 107
4, 15750, Note_on_c, 3, 60, 0
4, 15840, Lyric_t, "land "
4, 15840, Lyric_t, ""
4, 15840, Lyric_t, "\015"
4, 15840, Lyric_t, ""
4, 15840, Lyric_t, "\015"
4, 15840, Note_on_c, 3, 60, 107
4, 16250, Note_on_c, 3, 60, 0
4, 16385, Lyric_t, "When "
4, 16385, Note_on_c, 3, 67, 107
4, 16495, Note_on_c, 3, 67, 0
4, 16502, Lyric_t, "the "
4, 16502, Note_on_c, 3, 72, 107
4, 16543, Note_on_c, 3, 72, 0
4, 16557, Lyric_t, "wick"
4, 16557, Note_on_c, 3, 69, 107
4, 16662, Note_on_c, 3, 69, 0
4, 16672, Lyric_t, "ed "
4, 16672, Lyric_t, ""
4, 16672, Lyric_t, "\015"
4, 16672, Note_on_c, 3, 67, 107
4, 16767, Note_on_c, 3, 67, 0
4, 16800, Lyric_t, "Car"
4, 16800, Note_on_c, 3, 67, 107
4, 16802, Note_on_c, 3, 64, 107
4, 16841, Note_on_c, 3, 67, 0
4, 16843, Note_on_c, 3, 64, 0
4, 16860, Lyric_t, "ried "
4, 16860, Note_on_c, 3, 67, 107
4, 16863, Note_on_c, 3, 64, 107
4, 16895, Note_on_c, 3, 64, 0
4, 16901, Note_on_c, 3, 67, 0
4, 16918, Lyric_t, "us "
4, 16918, Note_on_c, 3, 64, 107
4, 16920, Note_on_c, 3, 67, 107
4, 16961, Note_on_c, 3, 67, 0
4, 16965, Note_on_c, 3, 64, 0
4, 16980, Lyric_t, "a"
4, 16980, Note_on_c, 3, 65, 107
4, 16983, Note_on_c, 3, 62, 107
4, 17010, Note_on_c, 3, 62, 0
4, 17021, Note_on_c, 3, 65, 0
4, 17040, Lyric_t, "way "
4, 17040, Note_on_c, 3, 67, 107
4, 17041, Note_on_c, 3, 64, 107
4, 17081, Note_on_c, 3, 67, 0
4, 17100, Lyric_t, "in "
4, 17100, Note_on_c, 3, 64, 107
4, 17100, Note_on_c, 3, 67, 107
4, 17124, Note_on_c, 3, 64, 0
4, 17130, Note_on_c, 3, 64, 0
4, 17141, Note_on_c, 3, 67, 0
4, 17160, Lyric_t, "cap"
4, 17160, Note_on_c, 3, 62, 107
4, 17160, Note_on_c, 3, 65, 107
4, 17190, Note_on_c, 3, 65, 0
4, 17190, Note_on_c, 3, 62, 0
4, 17280, Lyric_t, "ti"
4, 17280, Note_on_c, 3, 67, 107
4, 17281, Note_on_c, 3, 64, 107
4, 17321, Note_on_c, 3, 67, 0
4, 17323, Note_on_c, 3, 64, 0
4, 17340, Lyric_t, "vi"
4, 17340, Note_on_c, 3, 67, 107
4, 17343, Note_on_c, 3, 64, 107
4, 17381, Note_on_c, 3, 67, 0
4, 17383, Note_on_c, 3, 64, 0
4, 17400, Note_on_c, 3, 65, 107
4, 17401, Note_on_c, 3, 62, 107
4, 17428, Note_on_c, 3, 62, 0
4, 17441, Note_on_c, 3, 65, 0
4, 17460, Lyric_t, "ty "
4, 17460, Lyric_t, ""
4, 17460, Lyric_t, "\015"
4, 17460, Note_on_c, 3, 67, 107
4, 17462, Note_on_c, 3, 64, 107
4, 17640, Note_on_c, 3, 67, 0
4, 17642, Note_on_c, 3, 64, 0
4, 17698, Lyric_t, "Re"
4, 17698, Note_on_c, 3, 62, 107
4, 17700, Note_on_c, 3, 65, 107
4, 17730, Note_on_c, 3, 65, 0
4, 17739, Note_on_c, 3, 62, 0
4, 17760, Lyric_t, "quir"
4, 17760, Note_on_c, 3, 65, 107
4, 17761, Note_on_c, 3, 60, 107
4, 17790, Note_on_c, 3, 65, 0
4, 17797, Note_on_c, 3, 60, 0
4, 17818, Lyric_t, "ed "
4, 17818, Note_on_c, 3, 60, 107
4, 17820, Note_on_c, 3, 65, 107
4, 17850, Note_on_c, 3, 65, 0
4, 17884, Note_on_c, 3, 60, 0
4, 17938, Lyric_t, "from "
4, 17938, Note_on_c, 3, 62, 107
4, 17940, Note_on_c, 3, 65, 107
4, 17970, Note_on_c, 3, 65, 0
4, 17980, Note_on_c, 3, 62, 0
4, 17997, Lyric_t, "us "
4, 17997, Note_on_c, 3, 60, 107
4, 18000, Note_on_c, 3, 65, 107
4, 18030, Note_on_c, 3, 65, 0
4, 18062, Note_on_c, 3, 60, 0
4, 18120, Lyric_t, "a "
4, 18120, Note_on_c, 3, 65, 107
4, 18121, Note_on_c, 3, 57, 107
4, 18150, Note_on_c, 3, 65, 0
4, 18153, Note_on_c, 3, 57, 0
4, 18180, Lyric_t, "song "
4, 18180, Lyric_t, ""
4, 18180, Lyric_t, "\015"
4, 18180, Note_on_c, 3, 64, 107
4, 18183, Note_on_c, 3, 60, 107
4, 18497, Note_on_c, 3, 64, 0
4, 18500, Note_on_c, 3, 60, 0
4, 18600, Lyric_t, "Now "
4, 18600, Note_on_c, 3, 62, 107
4, 18600, Note_on_c, 3, 55, 107
4, 18630, Note_on_c, 3, 62, 0
4, 18645, Note_on_c, 3, 55, 0
4, 18660, Lyric_t, "how "
4, 18660, Note_on_c, 3, 64, 107
4, 18660, Note_on_c, 3, 60, 107
4, 18720, Note_on_c, 3, 60, 0
4, 18720, Note_on_c, 3, 64, 0
4, 18780, Lyric_t, "shall "
4, 18780, Note_on_c, 3, 64, 107
4, 18782, Note_on_c, 3, 60, 107
4, 18810, Note_on_c, 3, 64, 0
4, 18855, Note_on_c, 3, 60, 0
4, 18896, Lyric_t, "we "
4, 18896, Note_on_c, 3, 60, 107
4, 18900, Note_on_c, 3, 64, 107
4, 18914, Note_on_c, 3, 60, 0
4, 18930, Note_on_c, 3, 64, 0
4, 18960, Lyric_t, "sing "
4, 18960, Note_on_c, 3, 64, 107
4, 18962, Note_on_c, 3, 60, 107
4, 18990, Note_on_c, 3, 64, 0
4, 19065, Note_on_c, 3, 60, 0
4, 19076, Lyric_t, "the "
4, 19076, Note_on_c, 3, 62, 107
4, 19080, Note_on_c, 3, 65, 107
4, 19108, Note_on_c, 3, 62, 0
4, 19110, Note_on_c, 3, 65, 0
4, 19142, Lyric_t, "lord's "
4, 19142, Note_on_c, 3, 67, 107
4, 19142, Note_on_c, 3, 64, 107
4, 19219, Note_on_c, 3, 64, 0
4, 19219, Note_on_c, 3, 67, 0
4, 19262, Lyric_t, "song "
4, 19262, Lyric_t, ""
4, 19262, Lyric_t, "\015"
4, 19262, Note_on_c, 3, 67, 107
4, 19263, Note_on_c, 3, 64, 107
4, 19496, Lyric_t, "in "
4, 19496, Note_on_c, 3, 65, 107
4, 19497, Note_on_c, 3, 67, 0
4, 19498, Note_on_c, 3, 64, 0
4, 19500, Note_on_c, 3, 69, 107
4, 19530, Note_on_c, 3, 69, 0
4, 19552, Note_on_c, 3, 65, 0
4, 19558, Lyric_t, "a "
4, 19558, Note_on_c, 3, 64, 107
4, 19560, Note_on_c, 3, 67, 107
4, 19590, Note_on_c, 3, 67, 0
4, 19680, Lyric_t, "strange "
4, 19680, Note_on_c, 3, 65, 107
4, 19681, Note_on_c, 3, 64, 0
4, 19682, Note_on_c, 3, 62, 107
4, 19976, Note_on_c, 3, 65, 0
4, 19978, Note_on_c, 3, 62, 0
4, 19980, Note_on_c, 3, 64, 107
4, 19982, Note_on_c, 3, 60, 107
4, 20068, Note_on_c, 3, 64, 0
4, 20070, Note_on_c, 3, 60, 0
4, 20160, Lyric_t, "land "
4, 20160, Lyric_t, ""
4, 20160, Lyric_t, "\015"
4, 20160, Lyric_t, ""
4, 20160, Lyric_t, "\015"
4, 20160, Note_on_c, 3, 64, 107
4, 20160, Note_on_c, 3, 60, 107
4, 20570, Note_on_c, 3, 60, 0
4, 20570, Note_on_c, 3, 64, 0
4, 24716, Lyric_t, "Let "
4, 24716, Note_on_c, 3, 55, 122
4, 24799, Note_on_c, 3, 55, 0
4, 24835, Lyric_t, "the "
4, 24835, Note_on_c, 3, 55, 106
4, 24940, Note_on_c, 3, 55, 0
4, 24955, Lyric_t, "words "
4, 24955, Note_on_c, 3, 60, 122
4, 25157, Note_on_c, 3, 60, 0
4, 25194, Lyric_t, "of "
4, 25194, Note_on_c, 3, 60, 122
4, 25276, Note_on_c, 3, 60, 0
4, 25313, Lyric_t, "o"
4, 25313, Note_on_c, 3, 60, 106
4, 25370, Note_on_c, 3, 60, 0
4, 25372, Lyric_t, "ur "
4, 25372, Note_on_c, 3, 53, 100
4, 25434, Note_on_c, 3, 53, 0
4, 25435, Lyric_t, "mouths "
4, 25435, Lyric_t, ""
4, 25435, Lyric_t, "\015"
4, 25435, Note_on_c, 3, 55, 122
4, 25630, Note_on_c, 3, 55, 0
4, 25674, Lyric_t, "and "
4, 25674, Note_on_c, 3, 55, 118
4, 25740, Lyric_t, "the "
4, 25740, Note_on_c, 3, 55, 107
4, 25765, Note_on_c, 3, 55, 0
4, 25795, Lyric_t, "me"
4, 25795, Note_on_c, 3, 55, 110
4, 25800, Note_on_c, 3, 55, 0
4, 25822, Note_on_c, 3, 55, 0
4, 25851, Lyric_t, "di"
4, 25851, Note_on_c, 3, 55, 103
4, 25893, Note_on_c, 3, 55, 0
4, 25914, Lyric_t, "ta"
4, 25914, Note_on_c, 3, 60, 118
4, 26000, Note_on_c, 3, 60, 0
4, 26033, Lyric_t, "tions "
4, 26033, Note_on_c, 3, 60, 127
4, 26126, Note_on_c, 3, 60, 0
4, 26155, Lyric_t, "of "
4, 26155, Note_on_c, 3, 60, 113
4, 26245, Note_on_c, 3, 60, 0
4, 26273, Lyric_t, "o"
4, 26273, Note_on_c, 3, 60, 106
4, 26327, Lyric_t, "ur "
4, 26327, Note_on_c, 3, 53, 118
4, 26330, Note_on_c, 3, 60, 0
4, 26387, Note_on_c, 3, 53, 0
4, 26391, Lyric_t, "hearts "
4, 26391, Lyric_t, ""
4, 26391, Lyric_t, "\015"
4, 26391, Note_on_c, 3, 55, 127
4, 26590, Note_on_c, 3, 55, 0
4, 26638, Lyric_t, "be "
4, 26638, Note_on_c, 3, 55, 127
4, 26722, Note_on_c, 3, 55, 0
4, 26763, Lyric_t, "ac"
4, 26763, Note_on_c, 3, 55, 127
4, 26791, Note_on_c, 3, 55, 0
4, 26880, Lyric_t, "cep"
4, 26880, Note_on_c, 3, 60, 127
4, 26940, Note_on_c, 3, 60, 0
4, 27000, Lyric_t, "ta"
4, 27000, Note_on_c, 3, 60, 127
4, 27050, Lyric_t, "ble "
4, 27050, Note_on_c, 3, 60, 110
4, 27060, Note_on_c, 3, 60, 0
4, 27080, Note_on_c, 3, 60, 0
4, 27110, Lyric_t, "in "
4, 27110, Note_on_c, 3, 60, 122
4, 27191, Note_on_c, 3, 60, 0
4, 27237, Lyric_t, "thy "
4, 27237, Note_on_c, 3, 60, 94
4, 27277, Note_on_c, 3, 60, 0
4, 27292, Note_on_c, 3, 53, 103
4, 27337, Note_on_c, 3, 53, 0
4, 27353, Lyric_t, "sight "
4, 27353, Note_on_c, 3, 55, 127
4, 27564, Note_on_c, 3, 55, 0
4, 27598, Lyric_t, "here "
4, 27598, Note_on_c, 3, 55, 127
4, 27767, Note_on_c, 3, 55, 0
4, 27776, Lyric_t, "to"
4, 27776, Note_on_c, 3, 53, 127
4, 27887, Note_on_c, 3, 53, 0
4, 27894, Lyric_t, "night "
4, 27894, Lyric_t, ""
4, 27894, Lyric_t, "\015"
4, 27894, Lyric_t, ""
4, 27894, Lyric_t, "\015"
4, 27894, Note_on_c, 3, 52, 113
4, 28350, Note_on_c, 3, 52, 0
4, 28559, Lyric_t, "Let "
4, 28559, Note_on_c, 3, 69, 122
4, 28671, Lyric_t, "the "
4, 28671, Note_on_c, 3, 67, 100
4, 28677, Note_on_c, 3, 69, 0
4, 28736, Note_on_c, 3, 67, 0
4, 28738, Note_on_c, 3, 64, 106
4, 28786, Note_on_c, 3, 64, 0
4, 28793, Lyric_t, "words "
4, 28793, Note_on_c, 3, 67, 106
4, 28800, Note_on_c, 3, 60, 100
4, 28884, Note_on_c, 3, 67, 0
4, 28920, Note_on_c, 3, 60, 0
4, 28920, Note_on_c, 3, 64, 106
4, 29011, Note_on_c, 3, 64, 0
4, 29033, Lyric_t, "of "
4, 29033, Note_on_c, 3, 69, 127
4, 29040, Note_on_c, 3, 60, 100
4, 29124, Note_on_c, 3, 69, 0
4, 29157, Lyric_t, "o"
4, 29157, Note_on_c, 3, 67, 110
4, 29160, Note_on_c, 3, 60, 0
4, 29160, Note_on_c, 3, 60, 100
4, 29220, Lyric_t, "ur "
4, 29220, Note_on_c, 3, 64, 110
4, 29246, Note_on_c, 3, 67, 0
4, 29274, Lyric_t, "mouths "
4, 29274, Lyric_t, ""
4, 29274, Lyric_t, "\015"
4, 29274, Note_on_c, 3, 65, 127
4, 29280, Note_on_c, 3, 64, 0
4, 29280, Note_on_c, 3, 60, 0
4, 29280, Note_on_c, 3, 55, 100
4, 29400, Note_on_c, 3, 55, 0
4, 29423, Note_on_c, 3, 65, 0
4, 29520, Lyric_t, "and "
4, 29520, Note_on_c, 3, 67, 110
4, 29580, Note_on_c, 3, 67, 0
4, 29580, Lyric_t, "the "
4, 29580, Note_on_c, 3, 67, 122
4, 29640, Note_on_c, 3, 67, 0
4, 29640, Lyric_t, "me"
4, 29640, Note_on_c, 3, 67, 122
4, 29694, Lyric_t, "di"
4, 29694, Note_on_c, 3, 64, 103
4, 29700, Note_on_c, 3, 67, 0
4, 29735, Note_on_c, 3, 64, 0
4, 29756, Lyric_t, "ta"
4, 29756, Note_on_c, 3, 67, 118
4, 29760, Note_on_c, 3, 60, 100
4, 29842, Note_on_c, 3, 67, 0
4, 29876, Lyric_t, "tions "
4, 29876, Note_on_c, 3, 67, 113
4, 29880, Note_on_c, 3, 60, 0
4, 29934, Note_on_c, 3, 67, 0
4, 29941, Note_on_c, 3, 64, 51
4, 29962, Note_on_c, 3, 64, 0
4, 29998, Lyric_t, "of "
4, 29998, Note_on_c, 3, 69, 127
4, 30000, Note_on_c, 3, 60, 100
4, 30093, Note_on_c, 3, 69, 0
4, 30117, Lyric_t, "our "
4, 30117, Note_on_c, 3, 67, 122
4, 30120, Note_on_c, 3, 60, 0
4, 30120, Note_on_c, 3, 60, 100
4, 30208, Note_on_c, 3, 67, 0
4, 30235, Lyric_t, "hearts "
4, 30235, Lyric_t, ""
4, 30235, Lyric_t, "\015"
4, 30235, Note_on_c, 3, 65, 127
4, 30240, Note_on_c, 3, 60, 0
4, 30240, Note_on_c, 3, 55, 100
4, 30360, Note_on_c, 3, 55, 0
4, 30436, Note_on_c, 3, 65, 0
4, 30475, Lyric_t, "be "
4, 30475, Note_on_c, 3, 67, 127
4, 30563, Note_on_c, 3, 67, 0
4, 30594, Lyric_t, "ac"
4, 30594, Note_on_c, 3, 67, 122
4, 30644, Note_on_c, 3, 67, 0
4, 30654, Note_on_c, 3, 64, 106
4, 30696, Note_on_c, 3, 64, 0
4, 30713, Lyric_t, "cep"
4, 30713, Note_on_c, 3, 67, 118
4, 30720, Note_on_c, 3, 60, 100
4, 30800, Note_on_c, 3, 67, 0
4, 30829, Lyric_t, "ta"
4, 30829, Note_on_c, 3, 67, 127
4, 30840, Note_on_c, 3, 60, 0
4, 30863, Note_on_c, 3, 67, 0
4, 30890, Lyric_t, "ble "
4, 30890, Note_on_c, 3, 67, 97
4, 30925, Note_on_c, 3, 67, 0
4, 30951, Lyric_t, "in "
4, 30951, Note_on_c, 3, 69, 106
4, 30960, Note_on_c, 3, 60, 100
4, 31044, Note_on_c, 3, 69, 0
4, 31070, Lyric_t, "thy "
4, 31070, Note_on_c, 3, 67, 122
4, 31080, Note_on_c, 3, 60, 0
4, 31080, Note_on_c, 3, 60, 100
4, 31166, Note_on_c, 3, 67, 0
4, 31198, Lyric_t, "sight "
4, 31198, Note_on_c, 3, 65, 127
4, 31200, Note_on_c, 3, 60, 0
4, 31200, Note_on_c, 3, 55, 100
4, 31320, Note_on_c, 3, 55, 0
4, 31396, Note_on_c, 3, 65, 0
4, 31432, Lyric_t, "here "
4, 31432, Note_on_c, 3, 67, 127
4, 31440, Note_on_c, 3, 55, 100
4, 31560, Note_on_c, 3, 55, 0
4, 31560, Note_on_c, 3, 53, 100
4, 31601, Note_on_c, 3, 67, 0
4, 31622, Lyric_t, "to"
4, 31622, Note_on_c, 3, 65, 122
4, 31680, Note_on_c, 3, 53, 0
4, 31740, Note_on_c, 3, 65, 0
4, 31740, Note_on_c, 3, 52, 100
4, 31746, Lyric_t, "night "
4, 31746, Lyric_t, ""
4, 31746, Lyric_t, "\015"
4, 31746, Lyric_t, ""
4, 31746, Lyric_t, "\015"
4, 31746, Note_on_c, 3, 64, 127
4, 31860, Note_on_c, 3, 52, 0
4, 32037, Note_on_c, 3, 64, 0
4, 32281, Lyric_t, "By "
4, 32281, Note_on_c, 3, 55, 107
4, 32326, Note_on_c, 3, 55, 0
4, 32346, Lyric_t, "the "
4, 32346, Note_on_c, 3, 55, 107
4, 32398, Note_on_c, 3, 55, 0
4, 32402, Lyric_t, "ri"
4, 32402, Note_on_c, 3, 60, 107
4, 32447, Note_on_c, 3, 60, 0
4, 32463, Lyric_t, "vers "
4, 32463, Note_on_c, 3, 60, 107
4, 32505, Note_on_c, 3, 60, 0
4, 32521, Lyric_t, "of "
4, 32521, Note_on_c, 3, 62, 107
4, 32632, Note_on_c, 3, 62, 0
4, 32638, Lyric_t, "Ba"
4, 32638, Note_on_c, 3, 64, 107
4, 32729, Note_on_c, 3, 64, 0
4, 32756, Lyric_t, "by"
4, 32756, Note_on_c, 3, 64, 107
4, 32792, Note_on_c, 3, 64, 0
4, 32825, Lyric_t, "lon, "
4, 32825, Lyric_t, ""
4, 32825, Lyric_t, "\015"
4, 32825, Note_on_c, 3, 64, 107
4, 33157, Note_on_c, 3, 64, 0
4, 33242, Lyric_t, "there "
4, 33242, Note_on_c, 3, 55, 107
4, 33356, Lyric_t, "we "
4, 33356, Note_on_c, 3, 60, 107
4, 33362, Note_on_c, 3, 55, 0
4, 33476, Note_on_c, 3, 60, 0
4, 33478, Lyric_t, "sat "
4, 33478, Note_on_c, 3, 62, 107
4, 33594, Note_on_c, 3, 62, 0
4, 33598, Lyric_t, "down "
4, 33598, Lyric_t, ""
4, 33598, Lyric_t, "\015"
4, 33598, Note_on_c, 3, 64, 107
4, 34081, Note_on_c, 3, 64, 0
4, 34198, Lyric_t, "ye"
4, 34198, Note_on_c, 3, 64, 107
4, 34316, Note_on_c, 3, 64, 0
4, 34316, Lyric_t, "eah "
4, 34316, Note_on_c, 3, 65, 107
4, 34426, Note_on_c, 3, 65, 0
4, 34436, Lyric_t, "we "
4, 34436, Note_on_c, 3, 64, 107
4, 34558, Lyric_t, "wept, "
4, 34558, Lyric_t, ""
4, 34558, Lyric_t, "\015"
4, 34558, Note_on_c, 3, 62, 107
4, 34559, Note_on_c, 3, 64, 0
4, 35039, Note_on_c, 3, 62, 0
4, 35097, Lyric_t, "when "
4, 35097, Note_on_c, 3, 62, 107
4, 35128, Note_on_c, 3, 62, 0
4, 35162, Lyric_t, "we "
4, 35162, Note_on_c, 3, 62, 107
4, 35187, Note_on_c, 3, 62, 0
4, 35217, Lyric_t, "re"
4, 35217, Note_on_c, 3, 62, 107
4, 35235, Note_on_c, 3, 62, 0
4, 35282, Lyric_t, "mem"
4, 35282, Note_on_c, 3, 62, 107
4, 35396, Lyric_t, "bered "
4, 35396, Note_on_c, 3, 64, 107
4, 35397, Note_on_c, 3, 62, 0
4, 35517, Note_on_c, 3, 64, 0
4, 35522, Lyric_t, "Zi"
4, 35522, Note_on_c, 3, 62, 107
4, 35628, Note_on_c, 3, 62, 0
4, 35636, Note_on_c, 3, 60, 107
4, 35654, Note_on_c, 3, 60, 0
4, 35702, Lyric_t, "on. "
4, 35702, Lyric_t, ""
4, 35702, Lyric_t, "\015"
4, 35702, Note_on_c, 3, 60, 107
4, 35942, Note_on_c, 3, 60, 0
4, 36121, Lyric_t, "By "
4, 36121, Note_on_c, 3, 55, 107
4, 36166, Note_on_c, 3, 55, 0
4, 36186, Lyric_t, "the "
4, 36186, Note_on_c, 3, 55, 107
4, 36238, Note_on_c, 3, 55, 0
4, 36242, Lyric_t, "ri"
4, 36242, Note_on_c, 3, 60, 107
4, 36287, Note_on_c, 3, 60, 0
4, 36303, Lyric_t, "vers "
4, 36303, Note_on_c, 3, 60, 107
4, 36345, Note_on_c, 3, 60, 0
4, 36361, Lyric_t, "of "
4, 36361, Note_on_c, 3, 62, 107
4, 36472, Note_on_c, 3, 62, 0
4, 36478, Lyric_t, "Ba"
4, 36478, Note_on_c, 3, 64, 107
4, 36569, Note_on_c, 3, 64, 0
4, 36596, Lyric_t, "by"
4, 36596, Note_on_c, 3, 64, 107
4, 36632, Note_on_c, 3, 64, 0
4, 36665, Lyric_t, "lon, "
4, 36665, Lyric_t, ""
4, 36665, Lyric_t, "\015"
4, 36665, Note_on_c, 3, 64, 107
4, 36997, Note_on_c, 3, 64, 0
4, 37082, Lyric_t, "there "
4, 37082, Note_on_c, 3, 55, 107
4, 37196, Lyric_t, "we "
4, 37196, Note_on_c, 3, 60, 107
4, 37202, Note_on_c, 3, 55, 0
4, 37316, Note_on_c, 3, 60, 0
4, 37318, Lyric_t, "sat "
4, 37318, Note_on_c, 3, 62, 107
4, 37434, Note_on_c, 3, 62, 0
4, 37438, Lyric_t, "down "
4, 37438, Lyric_t, ""
4, 37438, Lyric_t, "\015"
4, 37438, Note_on_c, 3, 64, 107
4, 37921, Note_on_c, 3, 64, 0
4, 38038, Lyric_t, "ye"
4, 38038, Note_on_c, 3, 64, 107
4, 38156, Note_on_c, 3, 64, 0
4, 38156, Lyric_t, "eah "
4, 38156, Note_on_c, 3, 65, 107
4, 38266, Note_on_c, 3, 65, 0
4, 38276, Lyric_t, "we "
4, 38276, Note_on_c, 3, 64, 107
4, 38398, Lyric_t, "wept, "
4, 38398, Lyric_t, ""
4, 38398, Lyric_t, "\015"
4, 38398, Note_on_c, 3, 62, 107
4, 38399, Note_on_c, 3, 64, 0
4, 38879, Note_on_c, 3, 62, 0
4, 38937, Lyric_t, "when "
4, 38937, Note_on_c, 3, 62, 107
4, 38968, Note_on_c, 3, 62, 0
4, 39002, Lyric_t, "we "
4, 39002, Note_on_c, 3, 62, 107
4, 39027, Note_on_c, 3, 62, 0
4, 39057, Lyric_t, "re"
4, 39057, Note_on_c, 3, 62, 107
4, 39075, Note_on_c, 3, 62, 0
4, 39122, Lyric_t, "mem"
4, 39122, Note_on_c, 3, 62, 107
4, 39236, Lyric_t, "bered "
4, 39236, Note_on_c, 3, 64, 107
4, 39237, Note_on_c, 3, 62, 0
4, 39357, Note_on_c, 3, 64, 0
4, 39362, Lyric_t, "Zi"
4, 39362, Note_on_c, 3, 62, 107
4, 39468, Note_on_c, 3, 62, 0
4, 39476, Note_on_c, 3, 60, 107
4, 39494, Note_on_c, 3, 60, 0
4, 39542, Lyric_t, "on. "
4, 39542, Lyric_t, ""
4, 39542, Lyric_t, "\015"
4, 39542, Note_on_c, 3, 60, 107
4, 39782, Note_on_c, 3, 60, 0
4, 47641, Lyric_t, "By "
4, 47641, Note_on_c, 3, 55, 107
4, 47686, Note_on_c, 3, 55, 0
4, 47706, Lyric_t, "the "
4, 47706, Note_on_c, 3, 55, 107
4, 47758, Note_on_c, 3, 55, 0
4, 47762, Lyric_t, "ri"
4, 47762, Note_on_c, 3, 60, 107
4, 47807, Note_on_c, 3, 60, 0
4, 47823, Lyric_t, "vers "
4, 47823, Note_on_c, 3, 60, 107
4, 47865, Note_on_c, 3, 60, 0
4, 47881, Lyric_t, "of "
4, 47881, Note_on_c, 3, 62, 107
4, 47992, Note_on_c, 3, 62, 0
4, 47998, Lyric_t, "Ba"
4, 47998, Note_on_c, 3, 64, 107
4, 48089, Note_on_c, 3, 64, 0
4, 48116, Lyric_t, "by"
4, 48116, Note_on_c, 3, 64, 107
4, 48152, Note_on_c, 3, 64, 0
4, 48185, Lyric_t, "lon, "
4, 48185, Lyric_t, ""
4, 48185, Lyric_t, "\015"
4, 48185, Note_on_c, 3, 64, 107
4, 48517, Note_on_c, 3, 64, 0
4, 48602, Lyric_t, "there "
4, 48602, Note_on_c, 3, 55, 107
4, 48716, Lyric_t, "we "
4, 48716, Note_on_c, 3, 60, 107
4, 48722, Note_on_c, 3, 55, 0
4, 48836, Note_on_c, 3, 60, 0
4, 48838, Lyric_t, "sat "
4, 48838, Note_on_c, 3, 62, 107
4, 48954, Note_on_c, 3, 62, 0
4, 48958, Lyric_t, "down "
4, 48958, Lyric_t, ""
4, 48958, Lyric_t, "\015"
4, 48958, Note_on_c, 3, 64, 107
4, 49441, Note_on_c, 3, 64, 0
4, 49558, Lyric_t, "ye"
4, 49558, Note_on_c, 3, 64, 107
4, 49676, Note_on_c, 3, 64, 0
4, 49676, Lyric_t, "eah "
4, 49676, Note_on_c, 3, 65, 107
4, 49786, Note_on_c, 3, 65, 0
4, 49796, Lyric_t, "we "
4, 49796, Note_on_c, 3, 64, 107
4, 49918, Lyric_t, "wept, "
4, 49918, Lyric_t, ""
4, 49918, Lyric_t, "\015"
4, 49918, Note_on_c, 3, 62, 107
4, 49919, Note_on_c, 3, 64, 0
4, 50399, Note_on_c, 3, 62, 0
4, 50457, Lyric_t, "when "
4, 50457, Note_on_c, 3, 62, 107
4, 50488, Note_on_c, 3, 62, 0
4, 50522, Lyric_t, "we "
4, 50522, Note_on_c, 3, 62, 107
4, 50547, Note_on_c, 3, 62, 0
4, 50577, Lyric_t, "re"
4, 50577, Note_on_c, 3, 62, 107
4, 50595, Note_on_c, 3, 62, 0
4, 50642, Lyric_t, "mem"
4, 50642, Note_on_c, 3, 62, 107
4, 50756, Lyric_t, "bered "
4, 50756, Note_on_c, 3, 64, 107
4, 50757, Note_on_c, 3, 62, 0
4, 50877, Note_on_c, 3, 64, 0
4, 50882, Lyric_t, "Zi"
4, 50882, Note_on_c, 3, 62, 107
4, 50988, Note_on_c, 3, 62, 0
4, 50996, Note_on_c, 3, 60, 107
4, 51014, Note_on_c, 3, 60, 0
4, 51062, Lyric_t, "on. "
4, 51062, Lyric_t, ""
4, 51062, Lyric_t, "\015"
4, 51062, Note_on_c, 3, 60, 107
4, 51302, Note_on_c, 3, 60, 0
4, 51481, Lyric_t, "By "
4, 51481, Note_on_c, 3, 55, 107
4, 51526, Note_on_c, 3, 55, 0
4, 51546, Lyric_t, "the "
4, 51546, Note_on_c, 3, 55, 107
4, 51598, Note_on_c, 3, 55, 0
4, 51602, Lyric_t, "ri"
4, 51602, Note_on_c, 3, 60, 107
4, 51647, Note_on_c, 3, 60, 0
4, 51663, Lyric_t, "vers "
4, 51663, Note_on_c, 3, 60, 107
4, 51705, Note_on_c, 3, 60, 0
4, 51721, Lyric_t, "of "
4, 51721, Note_on_c, 3, 62, 107
4, 51832, Note_on_c, 3, 62, 0
4, 51838, Lyric_t, "Ba"
4, 51838, Note_on_c, 3, 64, 107
4, 51929, Note_on_c, 3, 64, 0
4, 51956, Lyric_t, "by"
4, 51956, Note_on_c, 3, 64, 107
4, 51992, Note_on_c, 3, 64, 0
4, 52025, Lyric_t, "lon, "
4, 52025, Lyric_t, ""
4, 52025, Lyric_t, "\015"
4, 52025, Note_on_c, 3, 64, 107
4, 52357, Note_on_c, 3, 64, 0
4, 52442, Lyric_t, "there "
4, 52442, Note_on_c, 3, 55, 107
4, 52556, Lyric_t, "we "
4, 52556, Note_on_c, 3, 60, 107
4, 52562, Note_on_c, 3, 55, 0
4, 52676, Note_on_c, 3, 60, 0
4, 52678, Lyric_t, "sat "
4, 52678, Note_on_c, 3, 62, 107
4, 52794, Note_on_c, 3, 62, 0
4, 52798, Lyric_t, "down "
4, 52798, Lyric_t, ""
4, 52798, Lyric_t, "\015"
4, 52798, Note_on_c, 3, 64, 107
4, 53281, Note_on_c, 3, 64, 0
4, 53398, Lyric_t, "ye"
4, 53398, Note_on_c, 3, 64, 107
4, 53516, Note_on_c, 3, 64, 0
4, 53516, Lyric_t, "eah "
4, 53516, Note_on_c, 3, 65, 107
4, 53626, Note_on_c, 3, 65, 0
4, 53636, Lyric_t, "we "
4, 53636, Note_on_c, 3, 64, 107
4, 53758, Lyric_t, "wept, "
4, 53758, Lyric_t, ""
4, 53758, Lyric_t, "\015"
4, 53758, Note_on_c, 3, 62, 107
4, 53759, Note_on_c, 3, 64, 0
4, 54239, Note_on_c, 3, 62, 0
4, 54297, Lyric_t, "when "
4, 54297, Note_on_c, 3, 62, 107
4, 54328, Note_on_c, 3, 62, 0
4, 54362, Lyric_t, "we "
4, 54362, Note_on_c, 3, 62, 107
4, 54387, Note_on_c, 3, 62, 0
4, 54417, Lyric_t, "re"
4, 54417, Note_on_c, 3, 62, 107
4, 54435, Note_on_c, 3, 62, 0
4, 54482, Lyric_t, "mem"
4, 54482, Note_on_c, 3, 62, 107
4, 54596, Lyric_t, "bered "
4, 54596, Note_on_c, 3, 64, 107
4, 54597, Note_on_c, 3, 62, 0
4, 54717, Note_on_c, 3, 64, 0
4, 54722, Lyric_t, "Zi"
4, 54722, Note_on_c, 3, 62, 107
4, 54828, Note_on_c, 3, 62, 0
4, 54836, Note_on_c, 3, 60, 107
4, 54854, Note_on_c, 3, 60, 0
4, 54902, Lyric_t, "on. "
4, 54902, Lyric_t, ""
4, 54902, Lyric_t, "\015"
4, 54902, Note_on_c, 3, 60, 107
4, 55142, Note_on_c, 3, 60, 0
4, 55321, Lyric_t, "By "
4, 55321, Note_on_c, 3, 55, 107
4, 55366, Note_on_c, 3, 55, 0
4, 55386, Lyric_t, "the "
4, 55386, Note_on_c, 3, 55, 107
4, 55438, Note_on_c, 3, 55, 0
4, 55442, Lyric_t, "ri"
4, 55442, Note_on_c, 3, 60, 107
4, 55487, Note_on_c, 3, 60, 0
4, 55503, Lyric_t, "vers "
4, 55503, Note_on_c, 3, 60, 107
4, 55545, Note_on_c, 3, 60, 0
4, 55561, Lyric_t, "of "
4, 55561, Note_on_c, 3, 62, 107
4, 55672, Note_on_c, 3, 62, 0
4, 55678, Lyric_t, "Ba"
4, 55678, Note_on_c, 3, 64, 107
4, 55769, Note_on_c, 3, 64, 0
4, 55796, Lyric_t, "by"
4, 55796, Note_on_c, 3, 64, 107
4, 55832, Note_on_c, 3, 64, 0
4, 55865, Lyric_t, "lon, "
4, 55865, Lyric_t, ""
4, 55865, Lyric_t, "\015"
4, 55865, Note_on_c, 3, 64, 107
4, 56197, Note_on_c, 3, 64, 0
4, 56282, Lyric_t, "there "
4, 56282, Note_on_c, 3, 55, 107
4, 56396, Lyric_t, "we "
4, 56396, Note_on_c, 3, 60, 107
4, 56402, Note_on_c, 3, 55, 0
4, 56516, Note_on_c, 3, 60, 0
4, 56518, Lyric_t, "sat "
4, 56518, Note_on_c, 3, 62, 107
4, 56634, Note_on_c, 3, 62, 0
4, 56638, Lyric_t, "down "
4, 56638, Lyric_t, ""
4, 56638, Lyric_t, "\015"
4, 56638, Note_on_c, 3, 64, 107
4, 57121, Note_on_c, 3, 64, 0
4, 57238, Lyric_t, "ye"
4, 57238, Note_on_c, 3, 64, 107
4, 57356, Note_on_c, 3, 64, 0
4, 57356, Lyric_t, "eah "
4, 57356, Note_on_c, 3, 65, 107
4, 57466, Note_on_c, 3, 65, 0
4, 57476, Lyric_t, "we "
4, 57476, Note_on_c, 3, 64, 107
4, 57598, Lyric_t, "wept, "
4, 57598, Lyric_t, ""
4, 57598, Lyric_t, "\015"
4, 57598, Note_on_c, 3, 62, 107
4, 57599, Note_on_c, 3, 64, 0
4, 58079, Note_on_c, 3, 62, 0
4, 58137, Lyric_t, "when "
4, 58137, Note_on_c, 3, 62, 107
4, 58168, Note_on_c, 3, 62, 0
4, 58202, Lyric_t, "we "
4, 58202, Note_on_c, 3, 62, 107
4, 58227, Note_on_c, 3, 62, 0
4, 58257, Lyric_t, "re"
4, 58257, Note_on_c, 3, 62, 107
4, 58275, Note_on_c, 3, 62, 0
4, 58322, Lyric_t, "mem"
4, 58322, Note_on_c, 3, 62, 107
4, 58436, Lyric_t, "bered "
4, 58436, Note_on_c, 3, 64, 107
4, 58437, Note_on_c, 3, 62, 0
4, 58557, Note_on_c, 3, 64, 0
4, 58562, Lyric_t, "Zi"
4, 58562, Note_on_c, 3, 62, 107
4, 58668, Note_on_c, 3, 62, 0
4, 58676, Note_on_c, 3, 60, 107
4, 58694, Note_on_c, 3, 60, 0
4, 58742, Lyric_t, "on. "
4, 58742, Lyric_t, ""
4, 58742, Lyric_t, "\015"
4, 58742, Note_on_c, 3, 60, 107
4, 58982, Note_on_c, 3, 60, 0
4, 58982, End_track
5, 0, Start_track
5, 0, MIDI_port, 0
5, 0, Title_t, "Steel Drums"
5, 0, Program_c, 2, 114
5, 0, Control_c, 2, 7, 80
5, 0, Control_c, 2, 10, 64
5, 480, Control_c, 2, 121, 0
5, 8702, Note_on_c, 2, 64, 104
5, 8723, Note_on_c, 2, 64, 0
5, 8822, Note_on_c, 2, 60, 110
5, 8843, Note_on_c, 2, 60, 0
5, 8882, Note_on_c, 2, 64, 117
5, 8904, Note_on_c, 2, 64, 0
5, 9001, Note_on_c, 2, 60, 121
5, 9026, Note_on_c, 2, 60, 0
5, 9182, Note_on_c, 2, 64, 125
5, 9207, Note_on_c, 2, 64, 0
5, 9302, Note_on_c, 2, 60, 95
5, 9327, Note_on_c, 2, 60, 0
5, 9363, Note_on_c, 2, 64, 100
5, 9381, Note_on_c, 2, 64, 0
5, 9422, Note_on_c, 2, 64, 109
5, 9440, Note_on_c, 2, 64, 0
5, 9481, Note_on_c, 2, 60, 110
5, 9506, Note_on_c, 2, 60, 0
5, 9663, Note_on_c, 2, 64, 114
5, 9684, Note_on_c, 2, 64, 0
5, 9782, Note_on_c, 2, 60, 97
5, 9805, Note_on_c, 2, 60, 0
5, 9843, Note_on_c, 2, 64, 107
5, 9868, Note_on_c, 2, 64, 0
5, 9961, Note_on_c, 2, 60, 108
5, 9987, Note_on_c, 2, 60, 0
5, 10143, Note_on_c, 2, 64, 114
5, 10163, Note_on_c, 2, 64, 0
5, 10258, Note_on_c, 2, 60, 102
5, 10276, Note_on_c, 2, 60, 0
5, 10322, Note_on_c, 2, 64, 98
5, 10339, Note_on_c, 2, 64, 0
5, 10378, Note_on_c, 2, 64, 105
5, 10398, Note_on_c, 2, 64, 0
5, 10442, Note_on_c, 2, 60, 121
5, 10459, Note_on_c, 2, 60, 0
5, 10622, Note_on_c, 2, 62, 121
5, 10638, Note_on_c, 2, 62, 0
5, 10742, Note_on_c, 2, 59, 107
5, 10777, Note_on_c, 2, 59, 0
5, 10805, Note_on_c, 2, 62, 121
5, 10822, Note_on_c, 2, 62, 0
5, 10922, Note_on_c, 2, 59, 107
5, 10957, Note_on_c, 2, 59, 0
5, 11102, Note_on_c, 2, 62, 121
5, 11123, Note_on_c, 2, 62, 0
5, 11223, Note_on_c, 2, 59, 96
5, 11251, Note_on_c, 2, 59, 0
5, 11282, Note_on_c, 2, 62, 104
5, 11297, Note_on_c, 2, 62, 0
5, 11342, Note_on_c, 2, 62, 104
5, 11362, Note_on_c, 2, 62, 0
5, 11406, Note_on_c, 2, 59, 104
5, 11434, Note_on_c, 2, 59, 0
5, 11582, Note_on_c, 2, 64, 112
5, 11603, Note_on_c, 2, 64, 0
5, 11697, Note_on_c, 2, 60, 101
5, 11719, Note_on_c, 2, 60, 0
5, 11762, Note_on_c, 2, 64, 105
5, 11784, Note_on_c, 2, 64, 0
5, 11881, Note_on_c, 2, 60, 108
5, 11902, Note_on_c, 2, 60, 0
5, 12063, Note_on_c, 2, 60, 113
5, 12080, Note_on_c, 2, 60, 0
5, 12182, Note_on_c, 2, 55, 106
5, 12202, Note_on_c, 2, 55, 0
5, 12243, Note_on_c, 2, 60, 104
5, 12258, Note_on_c, 2, 60, 0
5, 12302, Note_on_c, 2, 60, 106
5, 12319, Note_on_c, 2, 60, 0
5, 12363, Note_on_c, 2, 55, 106
5, 12381, Note_on_c, 2, 55, 0
5, 12423, Note_on_c, 2, 57, 108
5, 12438, Note_on_c, 2, 57, 0
5, 12545, Note_on_c, 2, 64, 105
5, 12566, Note_on_c, 2, 64, 0
5, 12662, Note_on_c, 2, 60, 93
5, 12683, Note_on_c, 2, 60, 0
5, 12723, Note_on_c, 2, 64, 97
5, 12744, Note_on_c, 2, 64, 0
5, 12842, Note_on_c, 2, 60, 117
5, 12863, Note_on_c, 2, 60, 0
5, 13022, Note_on_c, 2, 64, 117
5, 13044, Note_on_c, 2, 64, 0
5, 13142, Note_on_c, 2, 60, 106
5, 13163, Note_on_c, 2, 60, 0
5, 13203, Note_on_c, 2, 64, 105
5, 13224, Note_on_c, 2, 64, 0
5, 13325, Note_on_c, 2, 60, 117
5, 13343, Note_on_c, 2, 60, 0
5, 13505, Note_on_c, 2, 60, 117
5, 13518, Note_on_c, 2, 60, 0
5, 13626, Note_on_c, 2, 60, 117
5, 13648, Note_on_c, 2, 60, 0
5, 13685, Note_on_c, 2, 65, 121
5, 13702, Note_on_c, 2, 65, 0
5, 13803, Note_on_c, 2, 60, 125
5, 13821, Note_on_c, 2, 60, 0
5, 13983, Note_on_c, 2, 64, 117
5, 14004, Note_on_c, 2, 64, 0
5, 14102, Note_on_c, 2, 60, 91
5, 14122, Note_on_c, 2, 60, 0
5, 14163, Note_on_c, 2, 64, 99
5, 14184, Note_on_c, 2, 64, 0
5, 14222, Note_on_c, 2, 64, 97
5, 14244, Note_on_c, 2, 64, 0
5, 14285, Note_on_c, 2, 60, 110
5, 14303, Note_on_c, 2, 60, 0
5, 14463, Note_on_c, 2, 64, 104
5, 14481, Note_on_c, 2, 64, 0
5, 14582, Note_on_c, 2, 60, 101
5, 14600, Note_on_c, 2, 60, 0
5, 14641, Note_on_c, 2, 64, 102
5, 14669, Note_on_c, 2, 64, 0
5, 14762, Note_on_c, 2, 60, 117
5, 14784, Note_on_c, 2, 60, 0
5, 14942, Note_on_c, 2, 64, 104
5, 14967, Note_on_c, 2, 64, 0
5, 15062, Note_on_c, 2, 60, 102
5, 15083, Note_on_c, 2, 60, 0
5, 15123, Note_on_c, 2, 64, 105
5, 15145, Note_on_c, 2, 64, 0
5, 15246, Note_on_c, 2, 60, 113
5, 15267, Note_on_c, 2, 60, 0
5, 15422, Note_on_c, 2, 62, 110
5, 15443, Note_on_c, 2, 62, 0
5, 15543, Note_on_c, 2, 59, 107
5, 15568, Note_on_c, 2, 59, 0
5, 15602, Note_on_c, 2, 62, 117
5, 15619, Note_on_c, 2, 62, 0
5, 15665, Note_on_c, 2, 62, 104
5, 15682, Note_on_c, 2, 62, 0
5, 15726, Note_on_c, 2, 59, 109
5, 15748, Note_on_c, 2, 59, 0
5, 15902, Note_on_c, 2, 64, 112
5, 15920, Note_on_c, 2, 64, 0
5, 16022, Note_on_c, 2, 60, 103
5, 16038, Note_on_c, 2, 60, 0
5, 16083, Note_on_c, 2, 60, 121
5, 16104, Note_on_c, 2, 60, 0
5, 16262, Note_on_c, 2, 60, 79
5, 16282, Note_on_c, 2, 60, 0
5, 16383, Note_on_c, 2, 60, 113
5, 16400, Note_on_c, 2, 60, 0
5, 16502, Note_on_c, 2, 55, 106
5, 16522, Note_on_c, 2, 55, 0
5, 16563, Note_on_c, 2, 60, 104
5, 16578, Note_on_c, 2, 60, 0
5, 16622, Note_on_c, 2, 60, 106
5, 16639, Note_on_c, 2, 60, 0
5, 16683, Note_on_c, 2, 55, 106
5, 16701, Note_on_c, 2, 55, 0
5, 16743, Note_on_c, 2, 57, 108
5, 16758, Note_on_c, 2, 57, 0
5, 16865, Note_on_c, 2, 64, 105
5, 16886, Note_on_c, 2, 64, 0
5, 16982, Note_on_c, 2, 60, 93
5, 17003, Note_on_c, 2, 60, 0
5, 17043, Note_on_c, 2, 64, 97
5, 17064, Note_on_c, 2, 64, 0
5, 17162, Note_on_c, 2, 60, 117
5, 17183, Note_on_c, 2, 60, 0
5, 17342, Note_on_c, 2, 64, 117
5, 17364, Note_on_c, 2, 64, 0
5, 17462, Note_on_c, 2, 60, 106
5, 17483, Note_on_c, 2, 60, 0
5, 17523, Note_on_c, 2, 64, 105
5, 17544, Note_on_c, 2, 64, 0
5, 17645, Note_on_c, 2, 60, 117
5, 17663, Note_on_c, 2, 60, 0
5, 17825, Note_on_c, 2, 60, 117
5, 17838, Note_on_c, 2, 60, 0
5, 17946, Note_on_c, 2, 60, 117
5, 17968, Note_on_c, 2, 60, 0
5, 18005, Note_on_c, 2, 65, 121
5, 18022, Note_on_c, 2, 65, 0
5, 18123, Note_on_c, 2, 60, 125
5, 18141, Note_on_c, 2, 60, 0
5, 18303, Note_on_c, 2, 64, 117
5, 18324, Note_on_c, 2, 64, 0
5, 18422, Note_on_c, 2, 60, 91
5, 18442, Note_on_c, 2, 60, 0
5, 18483, Note_on_c, 2, 64, 99
5, 18504, Note_on_c, 2, 64, 0
5, 18542, Note_on_c, 2, 64, 97
5, 18564, Note_on_c, 2, 64, 0
5, 18605, Note_on_c, 2, 60, 110
5, 18623, Note_on_c, 2, 60, 0
5, 18783, Note_on_c, 2, 64, 104
5, 18801, Note_on_c, 2, 64, 0
5, 18902, Note_on_c, 2, 60, 101
5, 18920, Note_on_c, 2, 60, 0
5, 18961, Note_on_c, 2, 64, 102
5, 18989, Note_on_c, 2, 64, 0
5, 19082, Note_on_c, 2, 60, 117
5, 19104, Note_on_c, 2, 60, 0
5, 19262, Note_on_c, 2, 64, 104
5, 19287, Note_on_c, 2, 64, 0
5, 19382, Note_on_c, 2, 60, 102
5, 19403, Note_on_c, 2, 60, 0
5, 19443, Note_on_c, 2, 64, 105
5, 19465, Note_on_c, 2, 64, 0
5, 19566, Note_on_c, 2, 60, 113
5, 19587, Note_on_c, 2, 60, 0
5, 19742, Note_on_c, 2, 62, 110
5, 19763, Note_on_c, 2, 62, 0
5, 19863, Note_on_c, 2, 59, 107
5, 19888, Note_on_c, 2, 59, 0
5, 19922, Note_on_c, 2, 62, 117
5, 19939, Note_on_c, 2, 62, 0
5, 19985, Note_on_c, 2, 62, 104
5, 20002, Note_on_c, 2, 62, 0
5, 20046, Note_on_c, 2, 59, 109
5, 20068, Note_on_c, 2, 59, 0
5, 20222, Note_on_c, 2, 64, 112
5, 20240, Note_on_c, 2, 64, 0
5, 20342, Note_on_c, 2, 60, 103
5, 20358, Note_on_c, 2, 60, 0
5, 20403, Note_on_c, 2, 60, 121
5, 20424, Note_on_c, 2, 60, 0
5, 20582, Note_on_c, 2, 60, 79
5, 20602, Note_on_c, 2, 60, 0
5, 20703, Note_on_c, 2, 64, 117
5, 20724, Note_on_c, 2, 64, 0
5, 20822, Note_on_c, 2, 60, 91
5, 20842, Note_on_c, 2, 60, 0
5, 20883, Note_on_c, 2, 64, 99
5, 20904, Note_on_c, 2, 64, 0
5, 20942, Note_on_c, 2, 64, 97
5, 20964, Note_on_c, 2, 64, 0
5, 21005, Note_on_c, 2, 60, 110
5, 21023, Note_on_c, 2, 60, 0
5, 21183, Note_on_c, 2, 64, 104
5, 21201, Note_on_c, 2, 64, 0
5, 21302, Note_on_c, 2, 60, 101
5, 21320, Note_on_c, 2, 60, 0
5, 21361, Note_on_c, 2, 64, 102
5, 21389, Note_on_c, 2, 64, 0
5, 21482, Note_on_c, 2, 60, 117
5, 21504, Note_on_c, 2, 60, 0
5, 21663, Note_on_c, 2, 64, 117
5, 21684, Note_on_c, 2, 64, 0
5, 21782, Note_on_c, 2, 60, 91
5, 21802, Note_on_c, 2, 60, 0
5, 21843, Note_on_c, 2, 64, 99
5, 21864, Note_on_c, 2, 64, 0
5, 21902, Note_on_c, 2, 64, 97
5, 21924, Note_on_c, 2, 64, 0
5, 21965, Note_on_c, 2, 60, 110
5, 21983, Note_on_c, 2, 60, 0
5, 22143, Note_on_c, 2, 64, 104
5, 22161, Note_on_c, 2, 64, 0
5, 22262, Note_on_c, 2, 60, 101
5, 22280, Note_on_c, 2, 60, 0
5, 22321, Note_on_c, 2, 64, 102
5, 22349, Note_on_c, 2, 64, 0
5, 22442, Note_on_c, 2, 60, 117
5, 22464, Note_on_c, 2, 60, 0
5, 22623, Note_on_c, 2, 64, 104
5, 22641, Note_on_c, 2, 64, 0
5, 22742, Note_on_c, 2, 60, 101
5, 22760, Note_on_c, 2, 60, 0
5, 22801, Note_on_c, 2, 64, 102
5, 22829, Note_on_c, 2, 64, 0
5, 22922, Note_on_c, 2, 60, 117
5, 22944, Note_on_c, 2, 60, 0
5, 23102, Note_on_c, 2, 62, 110
5, 23123, Note_on_c, 2, 62, 0
5, 23223, Note_on_c, 2, 59, 107
5, 23248, Note_on_c, 2, 59, 0
5, 23282, Note_on_c, 2, 62, 117
5, 23299, Note_on_c, 2, 62, 0
5, 23345, Note_on_c, 2, 62, 104
5, 23362, Note_on_c, 2, 62, 0
5, 23406, Note_on_c, 2, 59, 109
5, 23428, Note_on_c, 2, 59, 0
5, 23582, Note_on_c, 2, 62, 110
5, 23603, Note_on_c, 2, 62, 0
5, 23703, Note_on_c, 2, 59, 107
5, 23728, Note_on_c, 2, 59, 0
5, 23762, Note_on_c, 2, 62, 117
5, 23779, Note_on_c, 2, 62, 0
5, 23825, Note_on_c, 2, 62, 104
5, 23842, Note_on_c, 2, 62, 0
5, 23886, Note_on_c, 2, 59, 109
5, 23908, Note_on_c, 2, 59, 0
5, 24063, Note_on_c, 2, 64, 104
5, 24081, Note_on_c, 2, 64, 0
5, 24182, Note_on_c, 2, 60, 101
5, 24200, Note_on_c, 2, 60, 0
5, 24241, Note_on_c, 2, 64, 102
5, 24269, Note_on_c, 2, 64, 0
5, 24362, Note_on_c, 2, 60, 117
5, 24384, Note_on_c, 2, 60, 0
5, 24543, Note_on_c, 2, 64, 104
5, 24561, Note_on_c, 2, 64, 0
5, 24662, Note_on_c, 2, 60, 101
5, 24680, Note_on_c, 2, 60, 0
5, 24721, Note_on_c, 2, 64, 102
5, 24749, Note_on_c, 2, 64, 0
5, 24842, Note_on_c, 2, 60, 117
5, 24864, Note_on_c, 2, 60, 0
5, 25023, Note_on_c, 2, 64, 104
5, 25041, Note_on_c, 2, 64, 0
5, 25142, Note_on_c, 2, 60, 101
5, 25160, Note_on_c, 2, 60, 0
5, 25201, Note_on_c, 2, 64, 102
5, 25229, Note_on_c, 2, 64, 0
5, 25322, Note_on_c, 2, 60, 117
5, 25344, Note_on_c, 2, 60, 0
5, 25502, Note_on_c, 2, 62, 110
5, 25523, Note_on_c, 2, 62, 0
5, 25623, Note_on_c, 2, 59, 107
5, 25648, Note_on_c, 2, 59, 0
5, 25682, Note_on_c, 2, 62, 117
5, 25699, Note_on_c, 2, 62, 0
5, 25745, Note_on_c, 2, 62, 104
5, 25762, Note_on_c, 2, 62, 0
5, 25806, Note_on_c, 2, 59, 109
5, 25828, Note_on_c, 2, 59, 0
5, 25983, Note_on_c, 2, 64, 104
5, 26001, Note_on_c, 2, 64, 0
5, 26102, Note_on_c, 2, 60, 101
5, 26120, Note_on_c, 2, 60, 0
5, 26161, Note_on_c, 2, 64, 102
5, 26189, Note_on_c, 2, 64, 0
5, 26282, Note_on_c, 2, 60, 117
5, 26304, Note_on_c, 2, 60, 0
5, 26462, Note_on_c, 2, 62, 110
5, 26483, Note_on_c, 2, 62, 0
5, 26583, Note_on_c, 2, 59, 107
5, 26608, Note_on_c, 2, 59, 0
5, 26642, Note_on_c, 2, 62, 117
5, 26659, Note_on_c, 2, 62, 0
5, 26705, Note_on_c, 2, 62, 104
5, 26722, Note_on_c, 2, 62, 0
5, 26766, Note_on_c, 2, 59, 109
5, 26788, Note_on_c, 2, 59, 0
5, 26943, Note_on_c, 2, 64, 104
5, 26961, Note_on_c, 2, 64, 0
5, 27062, Note_on_c, 2, 60, 101
5, 27080, Note_on_c, 2, 60, 0
5, 27121, Note_on_c, 2, 64, 102
5, 27149, Note_on_c, 2, 64, 0
5, 27242, Note_on_c, 2, 60, 117
5, 27264, Note_on_c, 2, 60, 0
5, 27422, Note_on_c, 2, 62, 110
5, 27443, Note_on_c, 2, 62, 0
5, 27543, Note_on_c, 2, 59, 107
5, 27568, Note_on_c, 2, 59, 0
5, 27602, Note_on_c, 2, 62, 117
5, 27619, Note_on_c, 2, 62, 0
5, 27665, Note_on_c, 2, 62, 104
5, 27682, Note_on_c, 2, 62, 0
5, 27726, Note_on_c, 2, 59, 109
5, 27748, Note_on_c, 2, 59, 0
5, 27903, Note_on_c, 2, 64, 104
5, 27921, Note_on_c, 2, 64, 0
5, 28022, Note_on_c, 2, 60, 101
5, 28040, Note_on_c, 2, 60, 0
5, 28081, Note_on_c, 2, 64, 102
5, 28109, Note_on_c, 2, 64, 0
5, 28202, Note_on_c, 2, 60, 117
5, 28224, Note_on_c, 2, 60, 0
5, 28383, Note_on_c, 2, 64, 104
5, 28401, Note_on_c, 2, 64, 0
5, 28502, Note_on_c, 2, 60, 101
5, 28520, Note_on_c, 2, 60, 0
5, 28561, Note_on_c, 2, 64, 102
5, 28589, Note_on_c, 2, 64, 0
5, 28682, Note_on_c, 2, 60, 117
5, 28704, Note_on_c, 2, 60, 0
5, 28863, Note_on_c, 2, 64, 104
5, 28881, Note_on_c, 2, 64, 0
5, 28982, Note_on_c, 2, 60, 101
5, 29000, Note_on_c, 2, 60, 0
5, 29041, Note_on_c, 2, 64, 102
5, 29069, Note_on_c, 2, 64, 0
5, 29162, Note_on_c, 2, 60, 117
5, 29184, Note_on_c, 2, 60, 0
5, 29342, Note_on_c, 2, 62, 110
5, 29363, Note_on_c, 2, 62, 0
5, 29463, Note_on_c, 2, 59, 107
5, 29488, Note_on_c, 2, 59, 0
5, 29522, Note_on_c, 2, 62, 117
5, 29539, Note_on_c, 2, 62, 0
5, 29585, Note_on_c, 2, 62, 104
5, 29602, Note_on_c, 2, 62, 0
5, 29646, Note_on_c, 2, 59, 109
5, 29668, Note_on_c, 2, 59, 0
5, 29823, Note_on_c, 2, 64, 104
5, 29841, Note_on_c, 2, 64, 0
5, 29942, Note_on_c, 2, 60, 101
5, 29960, Note_on_c, 2, 60, 0
5, 30001, Note_on_c, 2, 64, 102
5, 30029, Note_on_c, 2, 64, 0
5, 30122, Note_on_c, 2, 60, 117
5, 30144, Note_on_c, 2, 60, 0
5, 30302, Note_on_c, 2, 62, 110
5, 30323, Note_on_c, 2, 62, 0
5, 30423, Note_on_c, 2, 59, 107
5, 30448, Note_on_c, 2, 59, 0
5, 30482, Note_on_c, 2, 62, 117
5, 30499, Note_on_c, 2, 62, 0
5, 30545, Note_on_c, 2, 62, 104
5, 30562, Note_on_c, 2, 62, 0
5, 30606, Note_on_c, 2, 59, 109
5, 30628, Note_on_c, 2, 59, 0
5, 30783, Note_on_c, 2, 64, 104
5, 30801, Note_on_c, 2, 64, 0
5, 30902, Note_on_c, 2, 60, 101
5, 30920, Note_on_c, 2, 60, 0
5, 30961, Note_on_c, 2, 64, 102
5, 30989, Note_on_c, 2, 64, 0
5, 31082, Note_on_c, 2, 60, 117
5, 31104, Note_on_c, 2, 60, 0
5, 31262, Note_on_c, 2, 62, 110
5, 31283, Note_on_c, 2, 62, 0
5, 31383, Note_on_c, 2, 59, 107
5, 31408, Note_on_c, 2, 59, 0
5, 31442, Note_on_c, 2, 62, 117
5, 31459, Note_on_c, 2, 62, 0
5, 31505, Note_on_c, 2, 62, 104
5, 31522, Note_on_c, 2, 62, 0
5, 31566, Note_on_c, 2, 59, 109
5, 31588, Note_on_c, 2, 59, 0
5, 31743, Note_on_c, 2, 64, 104
5, 31761, Note_on_c, 2, 64, 0
5, 31862, Note_on_c, 2, 60, 101
5, 31880, Note_on_c, 2, 60, 0
5, 31921, Note_on_c, 2, 64, 102
5, 31949, Note_on_c, 2, 64, 0
5, 32042, Note_on_c, 2, 60, 117
5, 32064, Note_on_c, 2, 60, 0
5, 32702, Note_on_c, 2, 64, 104
5, 32723, Note_on_c, 2, 64, 0
5, 32822, Note_on_c, 2, 60, 110
5, 32843, Note_on_c, 2, 60, 0
5, 32882, Note_on_c, 2, 64, 117
5, 32904, Note_on_c, 2, 64, 0
5, 33001, Note_on_c, 2, 60, 121
5, 33026, Note_on_c, 2, 60, 0
5, 33182, Note_on_c, 2, 64, 125
5, 33207, Note_on_c, 2, 64, 0
5, 33302, Note_on_c, 2, 60, 95
5, 33327, Note_on_c, 2, 60, 0
5, 33363, Note_on_c, 2, 64, 100
5, 33381, Note_on_c, 2, 64, 0
5, 33422, Note_on_c, 2, 64, 109
5, 33440, Note_on_c, 2, 64, 0
5, 33481, Note_on_c, 2, 60, 110
5, 33506, Note_on_c, 2, 60, 0
5, 33663, Note_on_c, 2, 64, 114
5, 33684, Note_on_c, 2, 64, 0
5, 33782, Note_on_c, 2, 60, 97
5, 33805, Note_on_c, 2, 60, 0
5, 33843, Note_on_c, 2, 64, 107
5, 33868, Note_on_c, 2, 64, 0
5, 33961, Note_on_c, 2, 60, 108
5, 33987, Note_on_c, 2, 60, 0
5, 34143, Note_on_c, 2, 64, 114
5, 34163, Note_on_c, 2, 64, 0
5, 34258, Note_on_c, 2, 60, 102
5, 34276, Note_on_c, 2, 60, 0
5, 34322, Note_on_c, 2, 64, 98
5, 34339, Note_on_c, 2, 64, 0
5, 34378, Note_on_c, 2, 64, 105
5, 34398, Note_on_c, 2, 64, 0
5, 34442, Note_on_c, 2, 60, 121
5, 34459, Note_on_c, 2, 60, 0
5, 34622, Note_on_c, 2, 62, 121
5, 34638, Note_on_c, 2, 62, 0
5, 34742, Note_on_c, 2, 59, 107
5, 34777, Note_on_c, 2, 59, 0
5, 34805, Note_on_c, 2, 62, 121
5, 34822, Note_on_c, 2, 62, 0
5, 34922, Note_on_c, 2, 59, 107
5, 34957, Note_on_c, 2, 59, 0
5, 35102, Note_on_c, 2, 62, 121
5, 35123, Note_on_c, 2, 62, 0
5, 35223, Note_on_c, 2, 59, 96
5, 35251, Note_on_c, 2, 59, 0
5, 35282, Note_on_c, 2, 62, 104
5, 35297, Note_on_c, 2, 62, 0
5, 35342, Note_on_c, 2, 62, 104
5, 35362, Note_on_c, 2, 62, 0
5, 35406, Note_on_c, 2, 59, 104
5, 35434, Note_on_c, 2, 59, 0
5, 35582, Note_on_c, 2, 64, 112
5, 35603, Note_on_c, 2, 64, 0
5, 35697, Note_on_c, 2, 60, 101
5, 35719, Note_on_c, 2, 60, 0
5, 35762, Note_on_c, 2, 64, 105
5, 35784, Note_on_c, 2, 64, 0
5, 35881, Note_on_c, 2, 60, 108
5, 35902, Note_on_c, 2, 60, 0
5, 36542, Note_on_c, 2, 64, 104
5, 36563, Note_on_c, 2, 64, 0
5, 36662, Note_on_c, 2, 60, 110
5, 36683, Note_on_c, 2, 60, 0
5, 36722, Note_on_c, 2, 64, 117
5, 36744, Note_on_c, 2, 64, 0
5, 36841, Note_on_c, 2, 60, 121
5, 36866, Note_on_c, 2, 60, 0
5, 37022, Note_on_c, 2, 64, 125
5, 37047, Note_on_c, 2, 64, 0
5, 37142, Note_on_c, 2, 60, 95
5, 37167, Note_on_c, 2, 60, 0
5, 37203, Note_on_c, 2, 64, 100
5, 37221, Note_on_c, 2, 64, 0
5, 37262, Note_on_c, 2, 64, 109
5, 37280, Note_on_c, 2, 64, 0
5, 37321, Note_on_c, 2, 60, 110
5, 37346, Note_on_c, 2, 60, 0
5, 37503, Note_on_c, 2, 64, 114
5, 37524, Note_on_c, 2, 64, 0
5, 37622, Note_on_c, 2, 60, 97
5, 37645, Note_on_c, 2, 60, 0
5, 37683, Note_on_c, 2, 64, 107
5, 37708, Note_on_c, 2, 64, 0
5, 37801, Note_on_c, 2, 60, 108
5, 37827, Note_on_c, 2, 60, 0
5, 37983, Note_on_c, 2, 64, 114
5, 38003, Note_on_c, 2, 64, 0
5, 38098, Note_on_c, 2, 60, 102
5, 38116, Note_on_c, 2, 60, 0
5, 38162, Note_on_c, 2, 64, 98
5, 38179, Note_on_c, 2, 64, 0
5, 38218, Note_on_c, 2, 64, 105
5, 38238, Note_on_c, 2, 64, 0
5, 38282, Note_on_c, 2, 60, 121
5, 38299, Note_on_c, 2, 60, 0
5, 38462, Note_on_c, 2, 62, 121
5, 38478, Note_on_c, 2, 62, 0
5, 38582, Note_on_c, 2, 59, 107
5, 38617, Note_on_c, 2, 59, 0
5, 38645, Note_on_c, 2, 62, 121
5, 38662, Note_on_c, 2, 62, 0
5, 38762, Note_on_c, 2, 59, 107
5, 38797, Note_on_c, 2, 59, 0
5, 38942, Note_on_c, 2, 62, 121
5, 38963, Note_on_c, 2, 62, 0
5, 39063, Note_on_c, 2, 59, 96
5, 39091, Note_on_c, 2, 59, 0
5, 39122, Note_on_c, 2, 62, 104
5, 39137, Note_on_c, 2, 62, 0
5, 39182, Note_on_c, 2, 62, 104
5, 39202, Note_on_c, 2, 62, 0
5, 39246, Note_on_c, 2, 59, 104
5, 39274, Note_on_c, 2, 59, 0
5, 39422, Note_on_c, 2, 64, 112
5, 39443, Note_on_c, 2, 64, 0
5, 39537, Note_on_c, 2, 60, 101
5, 39559, Note_on_c, 2, 60, 0
5, 39602, Note_on_c, 2, 64, 105
5, 39624, Note_on_c, 2, 64, 0
5, 39721, Note_on_c, 2, 60, 108
5, 39742, Note_on_c, 2, 60, 0
5, 40382, Note_on_c, 2, 64, 104
5, 40403, Note_on_c, 2, 64, 0
5, 40502, Note_on_c, 2, 60, 110
5, 40523, Note_on_c, 2, 60, 0
5, 40562, Note_on_c, 2, 64, 117
5, 40584, Note_on_c, 2, 64, 0
5, 40681, Note_on_c, 2, 60, 121
5, 40706, Note_on_c, 2, 60, 0
5, 40862, Note_on_c, 2, 64, 125
5, 40887, Note_on_c, 2, 64, 0
5, 40982, Note_on_c, 2, 60, 95
5, 41007, Note_on_c, 2, 60, 0
5, 41043, Note_on_c, 2, 64, 100
5, 41061, Note_on_c, 2, 64, 0
5, 41102, Note_on_c, 2, 64, 109
5, 41120, Note_on_c, 2, 64, 0
5, 41161, Note_on_c, 2, 60, 110
5, 41186, Note_on_c, 2, 60, 0
5, 41343, Note_on_c, 2, 64, 114
5, 41364, Note_on_c, 2, 64, 0
5, 41462, Note_on_c, 2, 60, 97
5, 41485, Note_on_c, 2, 60, 0
5, 41523, Note_on_c, 2, 64, 107
5, 41548, Note_on_c, 2, 64, 0
5, 41641, Note_on_c, 2, 60, 108
5, 41667, Note_on_c, 2, 60, 0
5, 41823, Note_on_c, 2, 64, 114
5, 41843, Note_on_c, 2, 64, 0
5, 41938, Note_on_c, 2, 60, 102
5, 41956, Note_on_c, 2, 60, 0
5, 42002, Note_on_c, 2, 64, 98
5, 42019, Note_on_c, 2, 64, 0
5, 42058, Note_on_c, 2, 64, 105
5, 42078, Note_on_c, 2, 64, 0
5, 42122, Note_on_c, 2, 60, 121
5, 42139, Note_on_c, 2, 60, 0
5, 42302, Note_on_c, 2, 62, 121
5, 42318, Note_on_c, 2, 62, 0
5, 42422, Note_on_c, 2, 59, 107
5, 42457, Note_on_c, 2, 59, 0
5, 42485, Note_on_c, 2, 62, 121
5, 42502, Note_on_c, 2, 62, 0
5, 42602, Note_on_c, 2, 59, 107
5, 42637, Note_on_c, 2, 59, 0
5, 42782, Note_on_c, 2, 62, 121
5, 42803, Note_on_c, 2, 62, 0
5, 42903, Note_on_c, 2, 59, 96
5, 42931, Note_on_c, 2, 59, 0
5, 42962, Note_on_c, 2, 62, 104
5, 42977, Note_on_c, 2, 62, 0
5, 43022, Note_on_c, 2, 62, 104
5, 43042, Note_on_c, 2, 62, 0
5, 43086, Note_on_c, 2, 59, 104
5, 43114, Note_on_c, 2, 59, 0
5, 43262, Note_on_c, 2, 64, 112
5, 43283, Note_on_c, 2, 64, 0
5, 43377, Note_on_c, 2, 60, 101
5, 43399, Note_on_c, 2, 60, 0
5, 43442, Note_on_c, 2, 64, 105
5, 43464, Note_on_c, 2, 64, 0
5, 43561, Note_on_c, 2, 60, 108
5, 43582, Note_on_c, 2, 60, 0
5, 43743, Note_on_c, 2, 64, 117
5, 43764, Note_on_c, 2, 64, 0
5, 43862, Note_on_c, 2, 60, 91
5, 43882, Note_on_c, 2, 60, 0
5, 43923, Note_on_c, 2, 64, 99
5, 43944, Note_on_c, 2, 64, 0
5, 43982, Note_on_c, 2, 64, 97
5, 44004, Note_on_c, 2, 64, 0
5, 44045, Note_on_c, 2, 60, 110
5, 44063, Note_on_c, 2, 60, 0
5, 44223, Note_on_c, 2, 64, 104
5, 44241, Note_on_c, 2, 64, 0
5, 44342, Note_on_c, 2, 60, 101
5, 44360, Note_on_c, 2, 60, 0
5, 44401, Note_on_c, 2, 64, 102
5, 44429, Note_on_c, 2, 64, 0
5, 44522, Note_on_c, 2, 60, 117
5, 44544, Note_on_c, 2, 60, 0
5, 44703, Note_on_c, 2, 64, 117
5, 44724, Note_on_c, 2, 64, 0
5, 44822, Note_on_c, 2, 60, 91
5, 44842, Note_on_c, 2, 60, 0
5, 44883, Note_on_c, 2, 64, 99
5, 44904, Note_on_c, 2, 64, 0
5, 44942, Note_on_c, 2, 64, 97
5, 44964, Note_on_c, 2, 64, 0
5, 45005, Note_on_c, 2, 60, 110
5, 45023, Note_on_c, 2, 60, 0
5, 45183, Note_on_c, 2, 64, 104
5, 45201, Note_on_c, 2, 64, 0
5, 45302, Note_on_c, 2, 60, 101
5, 45320, Note_on_c, 2, 60, 0
5, 45361, Note_on_c, 2, 64, 102
5, 45389, Note_on_c, 2, 64, 0
5, 45482, Note_on_c, 2, 60, 117
5, 45504, Note_on_c, 2, 60, 0
5, 45663, Note_on_c, 2, 64, 104
5, 45681, Note_on_c, 2, 64, 0
5, 45782, Note_on_c, 2, 60, 101
5, 45800, Note_on_c, 2, 60, 0
5, 45841, Note_on_c, 2, 64, 102
5, 45869, Note_on_c, 2, 64, 0
5, 45962, Note_on_c, 2, 60, 117
5, 45984, Note_on_c, 2, 60, 0
5, 46142, Note_on_c, 2, 62, 110
5, 46163, Note_on_c, 2, 62, 0
5, 46263, Note_on_c, 2, 59, 107
5, 46288, Note_on_c, 2, 59, 0
5, 46322, Note_on_c, 2, 62, 117
5, 46339, Note_on_c, 2, 62, 0
5, 46385, Note_on_c, 2, 62, 104
5, 46402, Note_on_c, 2, 62, 0
5, 46446, Note_on_c, 2, 59, 109
5, 46468, Note_on_c, 2, 59, 0
5, 46622, Note_on_c, 2, 62, 110
5, 46643, Note_on_c, 2, 62, 0
5, 46743, Note_on_c, 2, 59, 107
5, 46768, Note_on_c, 2, 59, 0
5, 46802, Note_on_c, 2, 62, 117
5, 46819, Note_on_c, 2, 62, 0
5, 46865, Note_on_c, 2, 62, 104
5, 46882, Note_on_c, 2, 62, 0
5, 46926, Note_on_c, 2, 59, 109
5, 46948, Note_on_c, 2, 59, 0
5, 47103, Note_on_c, 2, 64, 104
5, 47121, Note_on_c, 2, 64, 0
5, 47222, Note_on_c, 2, 60, 101
5, 47240, Note_on_c, 2, 60, 0
5, 47281, Note_on_c, 2, 64, 102
5, 47309, Note_on_c, 2, 64, 0
5, 47402, Note_on_c, 2, 60, 117
5, 47424, Note_on_c, 2, 60, 0
5, 48062, Note_on_c, 2, 64, 104
5, 48083, Note_on_c, 2, 64, 0
5, 48182, Note_on_c, 2, 60, 110
5, 48203, Note_on_c, 2, 60, 0
5, 48242, Note_on_c, 2, 64, 117
5, 48264, Note_on_c, 2, 64, 0
5, 48361, Note_on_c, 2, 60, 121
5, 48386, Note_on_c, 2, 60, 0
5, 48542, Note_on_c, 2, 64, 125
5, 48567, Note_on_c, 2, 64, 0
5, 48662, Note_on_c, 2, 60, 95
5, 48687, Note_on_c, 2, 60, 0
5, 48723, Note_on_c, 2, 64, 100
5, 48741, Note_on_c, 2, 64, 0
5, 48782, Note_on_c, 2, 64, 109
5, 48800, Note_on_c, 2, 64, 0
5, 48841, Note_on_c, 2, 60, 110
5, 48866, Note_on_c, 2, 60, 0
5, 49023, Note_on_c, 2, 64, 114
5, 49044, Note_on_c, 2, 64, 0
5, 49142, Note_on_c, 2, 60, 97
5, 49165, Note_on_c, 2, 60, 0
5, 49203, Note_on_c, 2, 64, 107
5, 49228, Note_on_c, 2, 64, 0
5, 49321, Note_on_c, 2, 60, 108
5, 49347, Note_on_c, 2, 60, 0
5, 49503, Note_on_c, 2, 64, 114
5, 49523, Note_on_c, 2, 64, 0
5, 49618, Note_on_c, 2, 60, 102
5, 49636, Note_on_c, 2, 60, 0
5, 49682, Note_on_c, 2, 64, 98
5, 49699, Note_on_c, 2, 64, 0
5, 49738, Note_on_c, 2, 64, 105
5, 49758, Note_on_c, 2, 64, 0
5, 49802, Note_on_c, 2, 60, 121
5, 49819, Note_on_c, 2, 60, 0
5, 49982, Note_on_c, 2, 62, 121
5, 49998, Note_on_c, 2, 62, 0
5, 50102, Note_on_c, 2, 59, 107
5, 50137, Note_on_c, 2, 59, 0
5, 50165, Note_on_c, 2, 62, 121
5, 50182, Note_on_c, 2, 62, 0
5, 50282, Note_on_c, 2, 59, 107
5, 50317, Note_on_c, 2, 59, 0
5, 50462, Note_on_c, 2, 62, 121
5, 50483, Note_on_c, 2, 62, 0
5, 50583, Note_on_c, 2, 59, 96
5, 50611, Note_on_c, 2, 59, 0
5, 50642, Note_on_c, 2, 62, 104
5, 50657, Note_on_c, 2, 62, 0
5, 50702, Note_on_c, 2, 62, 104
5, 50722, Note_on_c, 2, 62, 0
5, 50766, Note_on_c, 2, 59, 104
5, 50794, Note_on_c, 2, 59, 0
5, 50942, Note_on_c, 2, 64, 112
5, 50963, Note_on_c, 2, 64, 0
5, 51057, Note_on_c, 2, 60, 101
5, 51079, Note_on_c, 2, 60, 0
5, 51122, Note_on_c, 2, 64, 105
5, 51144, Note_on_c, 2, 64, 0
5, 51241, Note_on_c, 2, 60, 108
5, 51262, Note_on_c, 2, 60, 0
5, 51902, Note_on_c, 2, 64, 104
5, 51923, Note_on_c, 2, 64, 0
5, 52022, Note_on_c, 2, 60, 110
5, 52043, Note_on_c, 2, 60, 0
5, 52082, Note_on_c, 2, 64, 117
5, 52104, Note_on_c, 2, 64, 0
5, 52201, Note_on_c, 2, 60, 121
5, 52226, Note_on_c, 2, 60, 0
5, 52382, Note_on_c, 2, 64, 125
5, 52407, Note_on_c, 2, 64, 0
5, 52502, Note_on_c, 2, 60, 95
5, 52527, Note_on_c, 2, 60, 0
5, 52563, Note_on_c, 2, 64, 100
5, 52581, Note_on_c, 2, 64, 0
5, 52622, Note_on_c, 2, 64, 109
5, 52640, Note_on_c, 2, 64, 0
5, 52681, Note_on_c, 2, 60, 110
5, 52706, Note_on_c, 2, 60, 0
5, 52863, Note_on_c, 2, 64, 114
5, 52884, Note_on_c, 2, 64, 0
5, 52982, Note_on_c, 2, 60, 97
5, 53005, Note_on_c, 2, 60, 0
5, 53043, Note_on_c, 2, 64, 107
5, 53068, Note_on_c, 2, 64, 0
5, 53161, Note_on_c, 2, 60, 108
5, 53187, Note_on_c, 2, 60, 0
5, 53343, Note_on_c, 2, 64, 114
5, 53363, Note_on_c, 2, 64, 0
5, 53458, Note_on_c, 2, 60, 102
5, 53476, Note_on_c, 2, 60, 0
5, 53522, Note_on_c, 2, 64, 98
5, 53539, Note_on_c, 2, 64, 0
5, 53578, Note_on_c, 2, 64, 105
5, 53598, Note_on_c, 2, 64, 0
5, 53642, Note_on_c, 2, 60, 121
5, 53659, Note_on_c, 2, 60, 0
5, 53822, Note_on_c, 2, 62, 121
5, 53838, Note_on_c, 2, 62, 0
5, 53942, Note_on_c, 2, 59, 107
5, 53977, Note_on_c, 2, 59, 0
5, 54005, Note_on_c, 2, 62, 121
5, 54022, Note_on_c, 2, 62, 0
5, 54122, Note_on_c, 2, 59, 107
5, 54157, Note_on_c, 2, 59, 0
5, 54302, Note_on_c, 2, 62, 121
5, 54323, Note_on_c, 2, 62, 0
5, 54423, Note_on_c, 2, 59, 96
5, 54451, Note_on_c, 2, 59, 0
5, 54482, Note_on_c, 2, 62, 104
5, 54497, Note_on_c, 2, 62, 0
5, 54542, Note_on_c, 2, 62, 104
5, 54562, Note_on_c, 2, 62, 0
5, 54606, Note_on_c, 2, 59, 104
5, 54634, Note_on_c, 2, 59, 0
5, 54782, Note_on_c, 2, 64, 112
5, 54803, Note_on_c, 2, 64, 0
5, 54897, Note_on_c, 2, 60, 101
5, 54919, Note_on_c, 2, 60, 0
5, 54962, Note_on_c, 2, 64, 105
5, 54984, Note_on_c, 2, 64, 0
5, 55081, Note_on_c, 2, 60, 108
5, 55102, Note_on_c, 2, 60, 0
5, 55742, Note_on_c, 2, 64, 104
5, 55763, Note_on_c, 2, 64, 0
5, 55862, Note_on_c, 2, 60, 110
5, 55883, Note_on_c, 2, 60, 0
5, 55922, Note_on_c, 2, 64, 117
5, 55944, Note_on_c, 2, 64, 0
5, 56041, Note_on_c, 2, 60, 121
5, 56066, Note_on_c, 2, 60, 0
5, 56222, Note_on_c, 2, 64, 125
5, 56247, Note_on_c, 2, 64, 0
5, 56342, Note_on_c, 2, 60, 95
5, 56367, Note_on_c, 2, 60, 0
5, 56403, Note_on_c, 2, 64, 100
5, 56421, Note_on_c, 2, 64, 0
5, 56462, Note_on_c, 2, 64, 109
5, 56480, Note_on_c, 2, 64, 0
5, 56521, Note_on_c, 2, 60, 110
5, 56546, Note_on_c, 2, 60, 0
5, 56703, Note_on_c, 2, 64, 114
5, 56724, Note_on_c, 2, 64, 0
5, 56822, Note_on_c, 2, 60, 97
5, 56845, Note_on_c, 2, 60, 0
5, 56883, Note_on_c, 2, 64, 107
5, 56908, Note_on_c, 2, 64, 0
5, 57001, Note_on_c, 2, 60, 108
5, 57027, Note_on_c, 2, 60, 0
5, 57183, Note_on_c, 2, 64, 114
5, 57203, Note_on_c, 2, 64, 0
5, 57298, Note_on_c, 2, 60, 102
5, 57316, Note_on_c, 2, 60, 0
5, 57362, Note_on_c, 2, 64, 98
5, 57379, Note_on_c, 2, 64, 0
5, 57418, Note_on_c, 2, 64, 105
5, 57438, Note_on_c, 2, 64, 0
5, 57482, Note_on_c, 2, 60, 121
5, 57499, Note_on_c, 2, 60, 0
5, 57662, Note_on_c, 2, 62, 121
5, 57678, Note_on_c, 2, 62, 0
5, 57782, Note_on_c, 2, 59, 107
5, 57817, Note_on_c, 2, 59, 0
5, 57845, Note_on_c, 2, 62, 121
5, 57862, Note_on_c, 2, 62, 0
5, 57962, Note_on_c, 2, 59, 107
5, 57997, Note_on_c, 2, 59, 0
5, 58142, Note_on_c, 2, 62, 121
5, 58163, Note_on_c, 2, 62, 0
5, 58263, Note_on_c, 2, 59, 96
5, 58291, Note_on_c, 2, 59, 0
5, 58322, Note_on_c, 2, 62, 104
5, 58337, Note_on_c, 2, 62, 0
5, 58382, Note_on_c, 2, 62, 104
5, 58402, Note_on_c, 2, 62, 0
5, 58446, Note_on_c, 2, 59, 104
5, 58474, Note_on_c, 2, 59, 0
5, 58560, Note_on_c, 2, 62, 100
5, 58589, Note_on_c, 2, 62, 0
5, 58680, Note_on_c, 2, 60, 100
5, 58709, Note_on_c, 2, 60, 0
5, 58740, Note_on_c, 2, 60, 100
5, 58769, Note_on_c, 2, 60, 0
5, 58769, End_track
6, 0, Start_track
6, 0, MIDI_port, 0
6, 0, Title_t, "Choir"
6, 0, Program_c, 4, 52
6, 0, Control_c, 4, 7, 100
6, 0, Control_c, 4, 10, 64
6, 600, Note_on_c, 4, 55, 127
6, 600, Control_c, 4, 91, 70
6, 720, Note_on_c, 4, 60, 127
6, 736, Note_on_c, 4, 55, 0
6, 833, Note_on_c, 4, 60, 0
6, 840, Note_on_c, 4, 62, 127
6, 946, Note_on_c, 4, 62, 0
6, 960, Note_on_c, 4, 55, 127
6, 960, Note_on_c, 4, 64, 127
6, 1515, Note_on_c, 4, 64, 0
6, 1520, Note_on_c, 4, 55, 0
6, 1560, Note_on_c, 4, 55, 127
6, 1680, Note_on_c, 4, 60, 127
6, 1688, Note_on_c, 4, 55, 0
6, 1800, Note_on_c, 4, 62, 127
6, 1801, Note_on_c, 4, 60, 0
6, 1913, Note_on_c, 4, 62, 0
6, 1920, Note_on_c, 4, 55, 127
6, 1921, Note_on_c, 4, 64, 125
6, 2479, Note_on_c, 4, 64, 0
6, 2480, Note_on_c, 4, 55, 0
6, 2520, Note_on_c, 4, 64, 127
6, 2520, Note_on_c, 4, 55, 127
6, 2633, Note_on_c, 4, 55, 0
6, 2640, Note_on_c, 4, 57, 127
6, 2641, Note_on_c, 4, 64, 0
6, 2641, Note_on_c, 4, 65, 127
6, 2739, Note_on_c, 4, 65, 0
6, 2743, Note_on_c, 4, 57, 0
6, 2760, Note_on_c, 4, 64, 127
6, 2760, Note_on_c, 4, 55, 127
6, 2836, Note_on_c, 4, 55, 0
6, 2861, Note_on_c, 4, 64, 0
6, 2881, Note_on_c, 4, 53, 127
6, 2881, Note_on_c, 4, 62, 127
6, 3450, Note_on_c, 4, 62, 0
6, 3450, Note_on_c, 4, 53, 0
6, 3480, Note_on_c, 4, 62, 127
6, 3480, Note_on_c, 4, 53, 127
6, 3555, Note_on_c, 4, 53, 0
6, 3567, Note_on_c, 4, 62, 0
6, 3600, Note_on_c, 4, 53, 127
6, 3601, Note_on_c, 4, 62, 127
6, 3714, Note_on_c, 4, 62, 0
6, 3715, Note_on_c, 4, 53, 0
6, 3720, Note_on_c, 4, 64, 127
6, 3720, Note_on_c, 4, 55, 127
6, 3811, Note_on_c, 4, 55, 0
6, 3813, Note_on_c, 4, 64, 0
6, 3841, Note_on_c, 4, 62, 127
6, 3841, Note_on_c, 4, 53, 127
6, 3918, Note_on_c, 4, 53, 0
6, 3922, Note_on_c, 4, 62, 0
6, 3960, Note_on_c, 4, 52, 126
6, 3960, Note_on_c, 4, 60, 127
6, 3981, Note_on_c, 4, 60, 0
6, 3982, Note_on_c, 4, 52, 0
6, 4020, Note_on_c, 4, 52, 127
6, 4020, Note_on_c, 4, 60, 127
6, 4368, Note_on_c, 4, 60, 0
6, 4372, Note_on_c, 4, 52, 0
6, 20760, Note_on_c, 4, 55, 127
6, 20760, Control_c, 4, 91, 70
6, 20880, Note_on_c, 4, 60, 127
6, 20896, Note_on_c, 4, 55, 0
6, 20993, Note_on_c, 4, 60, 0
6, 21000, Note_on_c, 4, 62, 127
6, 21106, Note_on_c, 4, 62, 0
6, 21120, Note_on_c, 4, 55, 127
6, 21120, Note_on_c, 4, 64, 127
6, 21675, Note_on_c, 4, 64, 0
6, 21680, Note_on_c, 4, 55, 0
6, 21720, Note_on_c, 4, 55, 127
6, 21840, Note_on_c, 4, 60, 127
6, 21848, Note_on_c, 4, 55, 0
6, 21960, Note_on_c, 4, 62, 127
6, 21961, Note_on_c, 4, 60, 0
6, 22073, Note_on_c, 4, 62, 0
6, 22080, Note_on_c, 4, 55, 127
6, 22081, Note_on_c, 4, 64, 125
6, 22639, Note_on_c, 4, 64, 0
6, 22640, Note_on_c, 4, 55, 0
6, 22680, Note_on_c, 4, 64, 127
6, 22680, Note_on_c, 4, 55, 127
6, 22793, Note_on_c, 4, 55, 0
6, 22800, Note_on_c, 4, 57, 127
6, 22801, Note_on_c, 4, 64, 0
6, 22801, Note_on_c, 4, 65, 127
6, 22899, Note_on_c, 4, 65, 0
6, 22903, Note_on_c, 4, 57, 0
6, 22920, Note_on_c, 4, 64, 127
6, 22920, Note_on_c, 4, 55, 127
6, 23039, Note_on_c, 4, 55, 0
6, 23039, Note_on_c, 4, 64, 0
6, 23041, Note_on_c, 4, 53, 127
6, 23041, Note_on_c, 4, 62, 127
6, 23595, Note_on_c, 4, 53, 0
6, 23610, Note_on_c, 4, 62, 0
6, 23640, Note_on_c, 4, 62, 127
6, 23640, Note_on_c, 4, 53, 127
6, 23715, Note_on_c, 4, 53, 0
6, 23727, Note_on_c, 4, 62, 0
6, 23760, Note_on_c, 4, 53, 127
6, 23761, Note_on_c, 4, 62, 127
6, 23874, Note_on_c, 4, 62, 0
6, 23875, Note_on_c, 4, 53, 0
6, 23880, Note_on_c, 4, 64, 127
6, 23880, Note_on_c, 4, 55, 127
6, 23971, Note_on_c, 4, 55, 0
6, 23973, Note_on_c, 4, 64, 0
6, 24001, Note_on_c, 4, 62, 127
6, 24001, Note_on_c, 4, 53, 127
6, 24078, Note_on_c, 4, 53, 0
6, 24082, Note_on_c, 4, 62, 0
6, 24120, Note_on_c, 4, 52, 126
6, 24120, Note_on_c, 4, 60, 127
6, 24141, Note_on_c, 4, 60, 0
6, 24142, Note_on_c, 4, 52, 0
6, 24180, Note_on_c, 4, 52, 127
6, 24180, Note_on_c, 4, 60, 127
6, 24528, Note_on_c, 4, 60, 0
6, 24532, Note_on_c, 4, 52, 0
6, 43800, Note_on_c, 4, 55, 127
6, 43800, Control_c, 4, 91, 70
6, 43920, Note_on_c, 4, 60, 127
6, 43936, Note_on_c, 4, 55, 0
6, 44033, Note_on_c, 4, 60, 0
6, 44040, Note_on_c, 4, 62, 127
6, 44146, Note_on_c, 4, 62, 0
6, 44160, Note_on_c, 4, 55, 127
6, 44160, Note_on_c, 4, 64, 127
6, 44715, Note_on_c, 4, 64, 0
6, 44720, Note_on_c, 4, 55, 0
6, 44760, Note_on_c, 4, 55, 127
6, 44880, Note_on_c, 4, 60, 127
6, 44888, Note_on_c, 4, 55, 0
6, 45000, Note_on_c, 4, 62, 127
6, 45001, Note_on_c, 4, 60, 0
6, 45113, Note_on_c, 4, 62, 0
6, 45120, Note_on_c, 4, 55, 127
6, 45121, Note_on_c, 4, 64, 125
6, 45679, Note_on_c, 4, 64, 0
6, 45680, Note_on_c, 4, 55, 0
6, 45720, Note_on_c, 4, 64, 127
6, 45720, Note_on_c, 4, 55, 127
6, 45833, Note_on_c, 4, 55, 0
6, 45840, Note_on_c, 4, 57, 127
6, 45841, Note_on_c, 4, 64, 0
6, 45841, Note_on_c, 4, 65, 127
6, 45939, Note_on_c, 4, 65, 0
6, 45943, Note_on_c, 4, 57, 0
6, 45960, Note_on_c, 4, 64, 127
6, 45960, Note_on_c, 4, 55, 127
6, 46079, Note_on_c, 4, 55, 0
6, 46079, Note_on_c, 4, 64, 0
6, 46081, Note_on_c, 4, 53, 127
6, 46081, Note_on_c, 4, 62, 127
6, 46635, Note_on_c, 4, 53, 0
6, 46650, Note_on_c, 4, 62, 0
6, 46680, Note_on_c, 4, 62, 127
6, 46680, Note_on_c, 4, 53, 127
6, 46755, Note_on_c, 4, 53, 0
6, 46767, Note_on_c, 4, 62, 0
6, 46800, Note_on_c, 4, 53, 127
6, 46801, Note_on_c, 4, 62, 127
6, 46914, Note_on_c, 4, 62, 0
6, 46915, Note_on_c, 4, 53, 0
6, 46920, Note_on_c, 4, 64, 127
6, 46920, Note_on_c, 4, 55, 127
6, 47011, Note_on_c, 4, 55, 0
6, 47013, Note_on_c, 4, 64, 0
6, 47041, Note_on_c, 4, 62, 127
6, 47041, Note_on_c, 4, 53, 127
6, 47118, Note_on_c, 4, 53, 0
6, 47122, Note_on_c, 4, 62, 0
6, 47160, Note_on_c, 4, 52, 126
6, 47160, Note_on_c, 4, 60, 127
6, 47181, Note_on_c, 4, 60, 0
6, 47182, Note_on_c, 4, 52, 0
6, 47220, Note_on_c, 4, 52, 127
6, 47220, Note_on_c, 4, 60, 127
6, 47568, Note_on_c, 4, 60, 0
6, 47572, Note_on_c, 4, 52, 0
6, 47572, End_track
7, 0, Start_track
7, 0, MIDI_port, 0
7, 0, Title_t, "Strings"
7, 0, Program_c, 8, 49
7, 0, Control_c, 8, 7, 80
7, 0, Control_c, 8, 10, 64
7, 480, Control_c, 8, 121, 0
7, 20754, Note_on_c, 8, 72, 85
7, 20871, Note_on_c, 8, 76, 103
7, 20882, Note_on_c, 8, 72, 0
7, 20995, Note_on_c, 8, 77, 100
7, 21007, Note_on_c, 8, 76, 0
7, 21114, Note_on_c, 8, 79, 103
7, 21125, Note_on_c, 8, 77, 0
7, 21710, Note_on_c, 8, 79, 0
7, 21719, Note_on_c, 8, 72, 110
7, 21837, Note_on_c, 8, 76, 110
7, 21850, Note_on_c, 8, 72, 0
7, 21956, Note_on_c, 8, 77, 103
7, 21962, Note_on_c, 8, 76, 0
7, 22074, Note_on_c, 8, 79, 103
7, 22084, Note_on_c, 8, 77, 0
7, 22655, Note_on_c, 8, 79, 0
7, 22677, Note_on_c, 8, 79, 100
7, 22799, Note_on_c, 8, 81, 100
7, 22807, Note_on_c, 8, 79, 0
7, 22915, Note_on_c, 8, 79, 103
7, 22927, Note_on_c, 8, 81, 0
7, 23026, Note_on_c, 8, 77, 110
7, 23035, Note_on_c, 8, 79, 0
7, 23597, Note_on_c, 8, 77, 0
7, 23625, Note_on_c, 8, 77, 100
7, 23722, Note_on_c, 8, 77, 0
7, 23746, Note_on_c, 8, 77, 100
7, 23869, Note_on_c, 8, 79, 100
7, 23874, Note_on_c, 8, 77, 0
7, 23986, Note_on_c, 8, 77, 100
7, 23995, Note_on_c, 8, 79, 0
7, 24161, Note_on_c, 8, 76, 100
7, 24170, Note_on_c, 8, 77, 0
7, 24527, Note_on_c, 8, 76, 0
7, 24527, End_track
8, 0, Start_track
8, 0, MIDI_port, 0
8, 0, Title_t, "Metallic"
8, 0, Program_c, 0, 93
8, 0, Control_c, 0, 7, 65
8, 0, Control_c, 0, 10, 50
8, 480, Control_c, 0, 121, 0
8, 24947, Note_on_c, 0, 72, 103
8, 25195, Note_on_c, 0, 76, 118
8, 25204, Note_on_c, 0, 72, 0
8, 25315, Note_on_c, 0, 77, 106
8, 25323, Note_on_c, 0, 76, 0
8, 25431, Note_on_c, 0, 74, 103
8, 25434, Note_on_c, 0, 77, 0
8, 25677, Note_on_c, 0, 79, 100
8, 25690, Note_on_c, 0, 74, 0
8, 25797, Note_on_c, 0, 77, 103
8, 25809, Note_on_c, 0, 79, 0
8, 25914, Note_on_c, 0, 72, 106
8, 25915, Note_on_c, 0, 77, 0
8, 26158, Note_on_c, 0, 76, 118
8, 26167, Note_on_c, 0, 72, 0
8, 26276, Note_on_c, 0, 77, 100
8, 26284, Note_on_c, 0, 76, 0
8, 26393, Note_on_c, 0, 79, 103
8, 26402, Note_on_c, 0, 77, 0
8, 26633, Note_on_c, 0, 81, 100
8, 26643, Note_on_c, 0, 79, 0
8, 26752, Note_on_c, 0, 79, 94
8, 26759, Note_on_c, 0, 81, 0
8, 26871, Note_on_c, 0, 79, 0
8, 26872, Note_on_c, 0, 72, 103
8, 27113, Note_on_c, 0, 76, 110
8, 27121, Note_on_c, 0, 72, 0
8, 27231, Note_on_c, 0, 77, 100
8, 27237, Note_on_c, 0, 76, 0
8, 27347, Note_on_c, 0, 74, 100
8, 27349, Note_on_c, 0, 77, 0
8, 27590, Note_on_c, 0, 76, 118
8, 27599, Note_on_c, 0, 74, 0
8, 27766, Note_on_c, 0, 74, 97
8, 27777, Note_on_c, 0, 76, 0
8, 27884, Note_on_c, 0, 72, 103
8, 27887, Note_on_c, 0, 74, 0
8, 28422, Note_on_c, 0, 72, 0
8, 47634, Note_on_c, 0, 72, 85
8, 47751, Note_on_c, 0, 76, 103
8, 47762, Note_on_c, 0, 72, 0
8, 47875, Note_on_c, 0, 77, 100
8, 47887, Note_on_c, 0, 76, 0
8, 47994, Note_on_c, 0, 79, 103
8, 48005, Note_on_c, 0, 77, 0
8, 48590, Note_on_c, 0, 79, 0
8, 48599, Note_on_c, 0, 72, 110
8, 48717, Note_on_c, 0, 76, 110
8, 48730, Note_on_c, 0, 72, 0
8, 48836, Note_on_c, 0, 77, 103
8, 48842, Note_on_c, 0, 76, 0
8, 48954, Note_on_c, 0, 79, 103
8, 48964, Note_on_c, 0, 77, 0
8, 49535, Note_on_c, 0, 79, 0
8, 49557, Note_on_c, 0, 79, 100
8, 49679, Note_on_c, 0, 81, 100
8, 49687, Note_on_c, 0, 79, 0
8, 49795, Note_on_c, 0, 79, 103
8, 49807, Note_on_c, 0, 81, 0
8, 49906, Note_on_c, 0, 77, 110
8, 49915, Note_on_c, 0, 79, 0
8, 50477, Note_on_c, 0, 77, 0
8, 50505, Note_on_c, 0, 77, 100
8, 50602, Note_on_c, 0, 77, 0
8, 50626, Note_on_c, 0, 77, 100
8, 50749, Note_on_c, 0, 79, 100
8, 50754, Note_on_c, 0, 77, 0
8, 50866, Note_on_c, 0, 77, 100
8, 50875, Note_on_c, 0, 79, 0
8, 51041, Note_on_c, 0, 76, 100
8, 51050, Note_on_c, 0, 77, 0
8, 51407, Note_on_c, 0, 76, 0
8, 51474, Note_on_c, 0, 72, 85
8, 51591, Note_on_c, 0, 76, 103
8, 51602, Note_on_c, 0, 72, 0
8, 51715, Note_on_c, 0, 77, 100
8, 51727, Note_on_c, 0, 76, 0
8, 51834, Note_on_c, 0, 79, 103
8, 51845, Note_on_c, 0, 77, 0
8, 52430, Note_on_c, 0, 79, 0
8, 52439, Note_on_c, 0, 72, 110
8, 52557, Note_on_c, 0, 76, 110
8, 52570, Note_on_c, 0, 72, 0
8, 52676, Note_on_c, 0, 77, 103
8, 52682, Note_on_c, 0, 76, 0
8, 52794, Note_on_c, 0, 79, 103
8, 52804, Note_on_c, 0, 77, 0
8, 53375, Note_on_c, 0, 79, 0
8, 53397, Note_on_c, 0, 79, 100
8, 53519, Note_on_c, 0, 81, 100
8, 53527, Note_on_c, 0, 79, 0
8, 53635, Note_on_c, 0, 79, 103
8, 53647, Note_on_c, 0, 81, 0
8, 53746, Note_on_c, 0, 77, 110
8, 53755, Note_on_c, 0, 79, 0
8, 54317, Note_on_c, 0, 77, 0
8, 54345, Note_on_c, 0, 77, 100
8, 54442, Note_on_c, 0, 77, 0
8, 54466, Note_on_c, 0, 77, 100
8, 54589, Note_on_c, 0, 79, 100
8, 54594, Note_on_c, 0, 77, 0
8, 54706, Note_on_c, 0, 77, 100
8, 54715, Note_on_c, 0, 79, 0
8, 54881, Note_on_c, 0, 76, 100
8, 54890, Note_on_c, 0, 77, 0
8, 55247, Note_on_c, 0, 76, 0
8, 55314, Note_on_c, 0, 72, 85
8, 55431, Note_on_c, 0, 76, 103
8, 55442, Note_on_c, 0, 72, 0
8, 55555, Note_on_c, 0, 77, 100
8, 55567, Note_on_c, 0, 76, 0
8, 55674, Note_on_c, 0, 79, 103
8, 55685, Note_on_c, 0, 77, 0
8, 56270, Note_on_c, 0, 79, 0
8, 56279, Note_on_c, 0, 72, 110
8, 56397, Note_on_c, 0, 76, 110
8, 56410, Note_on_c, 0, 72, 0
8, 56516, Note_on_c, 0, 77, 103
8, 56522, Note_on_c, 0, 76, 0
8, 56634, Note_on_c, 0, 79, 103
8, 56644, Note_on_c, 0, 77, 0
8, 57215, Note_on_c, 0, 79, 0
8, 57237, Note_on_c, 0, 79, 100
8, 57359, Note_on_c, 0, 81, 100
8, 57367, Note_on_c, 0, 79, 0
8, 57475, Note_on_c, 0, 79, 103
8, 57487, Note_on_c, 0, 81, 0
8, 57586, Note_on_c, 0, 77, 110
8, 57595, Note_on_c, 0, 79, 0
8, 58157, Note_on_c, 0, 77, 0
8, 58185, Note_on_c, 0, 77, 100
8, 58282, Note_on_c, 0, 77, 0
8, 58306, Note_on_c, 0, 77, 100
8, 58429, Note_on_c, 0, 79, 100
8, 58434, Note_on_c, 0, 77, 0
8, 58546, Note_on_c, 0, 77, 100
8, 58555, Note_on_c, 0, 79, 0
8, 58730, Note_on_c, 0, 77, 0
8, 58730, End_track
9, 0, Start_track
9, 0, MIDI_port, 0
9, 0, Title_t, "Harpsichord"
9, 0, Program_c, 5, 6
9, 0, Control_c, 5, 7, 100
9, 0, Control_c, 5, 10, 64
9, 500, Control_c, 5, 121, 0
9, 500, Control_c, 5, 7, 100
9, 500, Control_c, 5, 10, 64
9, 956, Control_c, 5, 91, 127
9, 956, Note_on_c, 5, 52, 80
9, 961, Note_on_c, 5, 48, 88
9, 978, Note_on_c, 5, 55, 82
9, 1000, Note_on_c, 5, 60, 92
9, 1825, Note_on_c, 5, 52, 0
9, 1832, Note_on_c, 5, 55, 0
9, 1839, Note_on_c, 5, 60, 0
9, 1845, Note_on_c, 5, 48, 0
9, 1901, Note_on_c, 5, 48, 77
9, 1906, Note_on_c, 5, 52, 77
9, 1931, Note_on_c, 5, 55, 79
9, 1956, Note_on_c, 5, 60, 93
9, 2740, Note_on_c, 5, 48, 0
9, 2745, Note_on_c, 5, 52, 0
9, 2770, Note_on_c, 5, 55, 0
9, 2810, Note_on_c, 5, 60, 0
9, 2862, Note_on_c, 5, 43, 70
9, 2867, Note_on_c, 5, 50, 73
9, 2895, Note_on_c, 5, 55, 78
9, 2912, Note_on_c, 5, 59, 77
9, 3764, Note_on_c, 5, 55, 0
9, 3766, Note_on_c, 5, 50, 0
9, 3806, Note_on_c, 5, 43, 0
9, 3811, Note_on_c, 5, 59, 0
9, 3833, Note_on_c, 5, 48, 83
9, 3838, Note_on_c, 5, 52, 72
9, 3866, Note_on_c, 5, 55, 77
9, 3880, Note_on_c, 5, 60, 84
9, 4687, Note_on_c, 5, 48, 0
9, 4767, Note_on_c, 5, 52, 0
9, 4780, Note_on_c, 5, 55, 0
9, 4809, Note_on_c, 5, 60, 0
9, 4809, End_track
10, 0, Start_track
10, 0, MIDI_port, 0
10, 0, Title_t, "Electric Guitar"
10, 0, Program_c, 6, 27
10, 0, Control_c, 6, 7, 90
10, 0, Control_c, 6, 10, 64
10, 490, Control_c, 6, 121, 0
10, 510, Control_c, 6, 91, 90
10, 4801, Note_on_c, 6, 48, 90
10, 4801, Note_on_c, 6, 64, 81
10, 4801, Note_on_c, 6, 60, 85
10, 4801, Note_on_c, 6, 55, 75
10, 4823, Note_on_c, 6, 55, 0
10, 4823, Note_on_c, 6, 60, 0
10, 4823, Note_on_c, 6, 48, 0
10, 4824, Note_on_c, 6, 64, 0
10, 4861, Note_on_c, 6, 48, 95
10, 4861, Note_on_c, 6, 64, 86
10, 4861, Note_on_c, 6, 55, 80
10, 4861, Note_on_c, 6, 60, 82
10, 4931, Note_on_c, 6, 60, 0
10, 4931, Note_on_c, 6, 48, 0
10, 4932, Note_on_c, 6, 55, 0
10, 4937, Note_on_c, 6, 64, 0
10, 4981, Note_on_c, 6, 48, 90
10, 4981, Note_on_c, 6, 55, 74
10, 4981, Note_on_c, 6, 60, 73
10, 4981, Note_on_c, 6, 64, 82
10, 4992, Note_on_c, 6, 48, 0
10, 5001, Note_on_c, 6, 55, 0
10, 5001, Note_on_c, 6, 60, 0
10, 5002, Note_on_c, 6, 64, 0
10, 5041, Note_on_c, 6, 48, 86
10, 5041, Note_on_c, 6, 55, 68
10, 5041, Note_on_c, 6, 64, 71
10, 5041, Note_on_c, 6, 60, 73
10, 5057, Note_on_c, 6, 48, 0
10, 5061, Note_on_c, 6, 55, 0
10, 5061, Note_on_c, 6, 64, 0
10, 5062, Note_on_c, 6, 60, 0
10, 5100, Note_on_c, 6, 48, 114
10, 5101, Note_on_c, 6, 55, 85
10, 5101, Note_on_c, 6, 60, 87
10, 5101, Note_on_c, 6, 64, 89
10, 5174, Note_on_c, 6, 60, 0
10, 5174, Note_on_c, 6, 55, 0
10, 5175, Note_on_c, 6, 48, 0
10, 5179, Note_on_c, 6, 64, 0
10, 5221, Note_on_c, 6, 48, 90
10, 5221, Note_on_c, 6, 60, 72
10, 5221, Note_on_c, 6, 64, 81
10, 5221, Note_on_c, 6, 55, 72
10, 5231, Note_on_c, 6, 60, 0
10, 5233, Note_on_c, 6, 55, 0
10, 5233, Note_on_c, 6, 64, 0
10, 5237, Note_on_c, 6, 48, 0
10, 5281, Note_on_c, 6, 55, 66
10, 5281, Note_on_c, 6, 48, 93
10, 5281, Note_on_c, 6, 64, 77
10, 5281, Note_on_c, 6, 60, 72
10, 5302, Note_on_c, 6, 60, 0
10, 5302, Note_on_c, 6, 55, 0
10, 5303, Note_on_c, 6, 64, 0
10, 5303, Note_on_c, 6, 48, 0
10, 5341, Note_on_c, 6, 60, 84
10, 5341, Note_on_c, 6, 48, 110
10, 5341, Note_on_c, 6, 55, 84
10, 5341, Note_on_c, 6, 64, 86
10, 5411, Note_on_c, 6, 48, 0
10, 5414, Note_on_c, 6, 60, 0
10, 5414, Note_on_c, 6, 55, 0
10, 5419, Note_on_c, 6, 64, 0
10, 5461, Note_on_c, 6, 60, 69
10, 5461, Note_on_c, 6, 64, 78
10, 5461, Note_on_c, 6, 55, 69
10, 5461, Note_on_c, 6, 48, 95
10, 5471, Note_on_c, 6, 60, 0
10, 5479, Note_on_c, 6, 48, 0
10, 5481, Note_on_c, 6, 55, 0
10, 5482, Note_on_c, 6, 64, 0
10, 5521, Note_on_c, 6, 60, 73
10, 5521, Note_on_c, 6, 64, 71
10, 5521, Note_on_c, 6, 55, 61
10, 5521, Note_on_c, 6, 48, 89
10, 5542, Note_on_c, 6, 60, 0
10, 5543, Note_on_c, 6, 64, 0
10, 5543, Note_on_c, 6, 55, 0
10, 5543, Note_on_c, 6, 48, 0
10, 5581, Note_on_c, 6, 64, 91
10, 5581, Note_on_c, 6, 48, 106
10, 5581, Note_on_c, 6, 60, 89
10, 5581, Note_on_c, 6, 55, 87
10, 5651, Note_on_c, 6, 48, 0
10, 5653, Note_on_c, 6, 55, 0
10, 5654, Note_on_c, 6, 60, 0
10, 5659, Note_on_c, 6, 64, 0
10, 5701, Note_on_c, 6, 60, 70
10, 5701, Note_on_c, 6, 64, 80
10, 5701, Note_on_c, 6, 48, 86
10, 5701, Note_on_c, 6, 55, 75
10, 5721, Note_on_c, 6, 48, 0
10, 5721, Note_on_c, 6, 60, 0
10, 5722, Note_on_c, 6, 64, 0
10, 5722, Note_on_c, 6, 55, 0
10, 5761, Note_on_c, 6, 64, 79
10, 5761, Note_on_c, 6, 48, 80
10, 5761, Note_on_c, 6, 55, 70
10, 5761, Note_on_c, 6, 60, 73
10, 5772, Note_on_c, 6, 48, 0
10, 5783, Note_on_c, 6, 64, 0
10, 5783, Note_on_c, 6, 55, 0
10, 5783, Note_on_c, 6, 60, 0
10, 5821, Note_on_c, 6, 48, 95
10, 5821, Note_on_c, 6, 64, 91
10, 5821, Note_on_c, 6, 55, 87
10, 5821, Note_on_c, 6, 60, 90
10, 5891, Note_on_c, 6, 48, 0
10, 5894, Note_on_c, 6, 60, 0
10, 5898, Note_on_c, 6, 55, 0
10, 5898, Note_on_c, 6, 64, 0
10, 5940, Note_on_c, 6, 55, 77
10, 5941, Note_on_c, 6, 48, 90
10, 5941, Note_on_c, 6, 60, 77
10, 5941, Note_on_c, 6, 64, 80
10, 5951, Note_on_c, 6, 48, 0
10, 5961, Note_on_c, 6, 55, 0
10, 5961, Note_on_c, 6, 60, 0
10, 5962, Note_on_c, 6, 64, 0
10, 6001, Note_on_c, 6, 64, 84
10, 6001, Note_on_c, 6, 48, 85
10, 6001, Note_on_c, 6, 55, 74
10, 6001, Note_on_c, 6, 60, 80
10, 6022, Note_on_c, 6, 60, 0
10, 6022, Note_on_c, 6, 48, 0
10, 6023, Note_on_c, 6, 55, 0
10, 6023, Note_on_c, 6, 64, 0
10, 6061, Note_on_c, 6, 55, 87
10, 6061, Note_on_c, 6, 64, 93
10, 6061, Note_on_c, 6, 60, 89
10, 6061, Note_on_c, 6, 48, 97
10, 6133, Note_on_c, 6, 48, 0
10, 6134, Note_on_c, 6, 60, 0
10, 6134, Note_on_c, 6, 55, 0
10, 6139, Note_on_c, 6, 64, 0
10, 6181, Note_on_c, 6, 48, 84
10, 6181, Note_on_c, 6, 64, 79
10, 6181, Note_on_c, 6, 60, 71
10, 6181, Note_on_c, 6, 55, 71
10, 6192, Note_on_c, 6, 60, 0
10, 6201, Note_on_c, 6, 48, 0
10, 6201, Note_on_c, 6, 64, 0
10, 6201, Note_on_c, 6, 55, 0
10, 6241, Note_on_c, 6, 64, 73
10, 6241, Note_on_c, 6, 55, 67
10, 6241, Note_on_c, 6, 48, 82
10, 6241, Note_on_c, 6, 60, 71
10, 6252, Note_on_c, 6, 60, 0
10, 6253, Note_on_c, 6, 55, 0
10, 6257, Note_on_c, 6, 48, 0
10, 6263, Note_on_c, 6, 64, 0
10, 6301, Note_on_c, 6, 60, 86
10, 6301, Note_on_c, 6, 48, 95
10, 6301, Note_on_c, 6, 55, 85
10, 6301, Note_on_c, 6, 64, 89
10, 6367, Note_on_c, 6, 48, 0
10, 6374, Note_on_c, 6, 60, 0
10, 6374, Note_on_c, 6, 55, 0
10, 6376, Note_on_c, 6, 64, 0
10, 6421, Note_on_c, 6, 64, 78
10, 6421, Note_on_c, 6, 60, 76
10, 6421, Note_on_c, 6, 55, 74
10, 6421, Note_on_c, 6, 48, 90
10, 6442, Note_on_c, 6, 48, 0
10, 6442, Note_on_c, 6, 64, 0
10, 6442, Note_on_c, 6, 60, 0
10, 6443, Note_on_c, 6, 55, 0
10, 6481, Note_on_c, 6, 60, 65
10, 6481, Note_on_c, 6, 64, 69
10, 6481, Note_on_c, 6, 55, 54
10, 6481, Note_on_c, 6, 48, 74
10, 6491, Note_on_c, 6, 48, 0
10, 6492, Note_on_c, 6, 55, 0
10, 6502, Note_on_c, 6, 64, 0
10, 6502, Note_on_c, 6, 60, 0
10, 6541, Note_on_c, 6, 48, 93
10, 6541, Note_on_c, 6, 55, 86
10, 6541, Note_on_c, 6, 60, 90
10, 6541, Note_on_c, 6, 64, 91
10, 6613, Note_on_c, 6, 60, 0
10, 6613, Note_on_c, 6, 48, 0
10, 6614, Note_on_c, 6, 55, 0
10, 6619, Note_on_c, 6, 64, 0
10, 6661, Note_on_c, 6, 64, 79
10, 6661, Note_on_c, 6, 48, 82
10, 6661, Note_on_c, 6, 60, 69
10, 6661, Note_on_c, 6, 55, 73
10, 6671, Note_on_c, 6, 48, 0
10, 6679, Note_on_c, 6, 60, 0
10, 6682, Note_on_c, 6, 64, 0
10, 6682, Note_on_c, 6, 55, 0
10, 6721, Note_on_c, 6, 59, 86
10, 6721, Note_on_c, 6, 62, 76
10, 6721, Note_on_c, 6, 55, 74
10, 6721, Note_on_c, 6, 67, 78
10, 6721, Note_on_c, 6, 43, 87
10, 6742, Note_on_c, 6, 43, 0
10, 6742, Note_on_c, 6, 62, 0
10, 6743, Note_on_c, 6, 59, 0
10, 6743, Note_on_c, 6, 67, 0
10, 6744, Note_on_c, 6, 55, 0
10, 6781, Note_on_c, 6, 43, 95
10, 6781, Note_on_c, 6, 55, 86
10, 6781, Note_on_c, 6, 62, 85
10, 6781, Note_on_c, 6, 67, 92
10, 6781, Note_on_c, 6, 59, 89
10, 6851, Note_on_c, 6, 62, 0
10, 6852, Note_on_c, 6, 67, 0
10, 6852, Note_on_c, 6, 59, 0
10, 6858, Note_on_c, 6, 43, 0
10, 6859, Note_on_c, 6, 55, 0
10, 6901, Note_on_c, 6, 67, 51
10, 6901, Note_on_c, 6, 59, 73
10, 6901, Note_on_c, 6, 43, 89
10, 6901, Note_on_c, 6, 62, 78
10, 6901, Note_on_c, 6, 55, 59
10, 6913, Note_on_c, 6, 62, 0
10, 6913, Note_on_c, 6, 67, 0
10, 6922, Note_on_c, 6, 43, 0
10, 6923, Note_on_c, 6, 59, 0
10, 6923, Note_on_c, 6, 55, 0
10, 6961, Note_on_c, 6, 59, 86
10, 6961, Note_on_c, 6, 55, 71
10, 6961, Note_on_c, 6, 62, 79
10, 6961, Note_on_c, 6, 43, 83
10, 6961, Note_on_c, 6, 67, 74
10, 6982, Note_on_c, 6, 43, 0
10, 6982, Note_on_c, 6, 62, 0
10, 6982, Note_on_c, 6, 59, 0
10, 6983, Note_on_c, 6, 55, 0
10, 6983, Note_on_c, 6, 67, 0
10, 7021, Note_on_c, 6, 55, 85
10, 7021, Note_on_c, 6, 43, 93
10, 7021, Note_on_c, 6, 67, 89
10, 7021, Note_on_c, 6, 59, 88
10, 7021, Note_on_c, 6, 62, 84
10, 7089, Note_on_c, 6, 59, 0
10, 7101, Note_on_c, 6, 67, 0
10, 7101, Note_on_c, 6, 62, 0
10, 7102, Note_on_c, 6, 43, 0
10, 7102, Note_on_c, 6, 55, 0
10, 7141, Note_on_c, 6, 59, 72
10, 7141, Note_on_c, 6, 67, 48
10, 7141, Note_on_c, 6, 62, 70
10, 7141, Note_on_c, 6, 55, 55
10, 7141, Note_on_c, 6, 43, 80
10, 7153, Note_on_c, 6, 62, 0
10, 7153, Note_on_c, 6, 67, 0
10, 7162, Note_on_c, 6, 59, 0
10, 7163, Note_on_c, 6, 43, 0
10, 7163, Note_on_c, 6, 55, 0
10, 7201, Note_on_c, 6, 59, 86
10, 7201, Note_on_c, 6, 55, 76
10, 7201, Note_on_c, 6, 67, 76
10, 7201, Note_on_c, 6, 43, 76
10, 7202, Note_on_c, 6, 62, 77
10, 7222, Note_on_c, 6, 62, 0
10, 7223, Note_on_c, 6, 67, 0
10, 7223, Note_on_c, 6, 43, 0
10, 7223, Note_on_c, 6, 59, 0
10, 7224, Note_on_c, 6, 55, 0
10, 7261, Note_on_c, 6, 62, 82
10, 7261, Note_on_c, 6, 55, 85
10, 7261, Note_on_c, 6, 67, 90
10, 7261, Note_on_c, 6, 59, 91
10, 7261, Note_on_c, 6, 43, 91
10, 7338, Note_on_c, 6, 59, 0
10, 7338, Note_on_c, 6, 62, 0
10, 7339, Note_on_c, 6, 55, 0
10, 7341, Note_on_c, 6, 43, 0
10, 7346, Note_on_c, 6, 67, 0
10, 7381, Note_on_c, 6, 43, 81
10, 7381, Note_on_c, 6, 59, 87
10, 7381, Note_on_c, 6, 62, 74
10, 7381, Note_on_c, 6, 55, 77
10, 7381, Note_on_c, 6, 67, 81
10, 7402, Note_on_c, 6, 59, 0
10, 7403, Note_on_c, 6, 55, 0
10, 7403, Note_on_c, 6, 67, 0
10, 7404, Note_on_c, 6, 62, 0
10, 7404, Note_on_c, 6, 43, 0
10, 7441, Note_on_c, 6, 55, 78
10, 7441, Note_on_c, 6, 62, 72
10, 7441, Note_on_c, 6, 59, 84
10, 7441, Note_on_c, 6, 67, 82
10, 7441, Note_on_c, 6, 43, 83
10, 7453, Note_on_c, 6, 59, 0
10, 7453, Note_on_c, 6, 62, 0
10, 7454, Note_on_c, 6, 55, 0
10, 7459, Note_on_c, 6, 43, 0
10, 7463, Note_on_c, 6, 67, 0
10, 7501, Note_on_c, 6, 62, 82
10, 7501, Note_on_c, 6, 43, 97
10, 7501, Note_on_c, 6, 59, 93
10, 7501, Note_on_c, 6, 67, 92
10, 7501, Note_on_c, 6, 55, 89
10, 7577, Note_on_c, 6, 59, 0
10, 7577, Note_on_c, 6, 62, 0
10, 7582, Note_on_c, 6, 55, 0
10, 7582, Note_on_c, 6, 43, 0
10, 7592, Note_on_c, 6, 67, 0
10, 7621, Note_on_c, 6, 55, 55
10, 7621, Note_on_c, 6, 62, 77
10, 7621, Note_on_c, 6, 67, 56
10, 7621, Note_on_c, 6, 59, 73
10, 7621, Note_on_c, 6, 43, 92
10, 7633, Note_on_c, 6, 43, 0
10, 7633, Note_on_c, 6, 55, 0
10, 7634, Note_on_c, 6, 62, 0
10, 7641, Note_on_c, 6, 59, 0
10, 7648, Note_on_c, 6, 67, 0
10, 7681, Note_on_c, 6, 64, 76
10, 7681, Note_on_c, 6, 60, 85
10, 7681, Note_on_c, 6, 48, 90
10, 7681, Note_on_c, 6, 55, 74
10, 7702, Note_on_c, 6, 60, 0
10, 7702, Note_on_c, 6, 64, 0
10, 7703, Note_on_c, 6, 48, 0
10, 7703, Note_on_c, 6, 55, 0
10, 7741, Note_on_c, 6, 64, 82
10, 7741, Note_on_c, 6, 48, 99
10, 7741, Note_on_c, 6, 60, 87
10, 7741, Note_on_c, 6, 55, 78
10, 7811, Note_on_c, 6, 64, 0
10, 7814, Note_on_c, 6, 60, 0
10, 7816, Note_on_c, 6, 48, 0
10, 7817, Note_on_c, 6, 55, 0
10, 7861, Note_on_c, 6, 55, 73
10, 7861, Note_on_c, 6, 60, 77
10, 7861, Note_on_c, 6, 64, 74
10, 7861, Note_on_c, 6, 48, 86
10, 7882, Note_on_c, 6, 64, 0
10, 7882, Note_on_c, 6, 55, 0
10, 7882, Note_on_c, 6, 60, 0
10, 7883, Note_on_c, 6, 48, 0
10, 7921, Note_on_c, 6, 64, 68
10, 7921, Note_on_c, 6, 60, 77
10, 7921, Note_on_c, 6, 48, 89
10, 7921, Note_on_c, 6, 55, 68
10, 7941, Note_on_c, 6, 48, 0
10, 7941, Note_on_c, 6, 60, 0
10, 7942, Note_on_c, 6, 64, 0
10, 7942, Note_on_c, 6, 55, 0
10, 7981, Note_on_c, 6, 60, 83
10, 7981, Note_on_c, 6, 64, 84
10, 7981, Note_on_c, 6, 48, 99
10, 7981, Note_on_c, 6, 55, 86
10, 8053, Note_on_c, 6, 60, 0
10, 8058, Note_on_c, 6, 64, 0
10, 8058, Note_on_c, 6, 48, 0
10, 8058, Note_on_c, 6, 55, 0
10, 8101, Note_on_c, 6, 60, 70
10, 8101, Note_on_c, 6, 64, 69
10, 8101, Note_on_c, 6, 48, 77
10, 8101, Note_on_c, 6, 55, 67
10, 8112, Note_on_c, 6, 48, 0
10, 8121, Note_on_c, 6, 60, 0
10, 8121, Note_on_c, 6, 64, 0
10, 8121, Note_on_c, 6, 55, 0
10, 8161, Note_on_c, 6, 60, 79
10, 8161, Note_on_c, 6, 48, 91
10, 8161, Note_on_c, 6, 55, 74
10, 8161, Note_on_c, 6, 64, 77
10, 8172, Note_on_c, 6, 60, 0
10, 8179, Note_on_c, 6, 48, 0
10, 8179, Note_on_c, 6, 55, 0
10, 8188, Note_on_c, 6, 64, 0
10, 8221, Note_on_c, 6, 60, 81
10, 8221, Note_on_c, 6, 48, 110
10, 8221, Note_on_c, 6, 64, 82
10, 8221, Note_on_c, 6, 55, 81
10, 8298, Note_on_c, 6, 55, 0
10, 8298, Note_on_c, 6, 48, 0
10, 8303, Note_on_c, 6, 64, 0
10, 8303, Note_on_c, 6, 60, 0
10, 8341, Note_on_c, 6, 48, 95
10, 8341, Note_on_c, 6, 60, 78
10, 8341, Note_on_c, 6, 55, 73
10, 8341, Note_on_c, 6, 64, 75
10, 8351, Note_on_c, 6, 48, 0
10, 8361, Note_on_c, 6, 60, 0
10, 8361, Note_on_c, 6, 55, 0
10, 8361, Note_on_c, 6, 64, 0
10, 8401, Note_on_c, 6, 64, 71
10, 8401, Note_on_c, 6, 60, 74
10, 8401, Note_on_c, 6, 48, 90
10, 8401, Note_on_c, 6, 55, 67
10, 8412, Note_on_c, 6, 48, 0
10, 8423, Note_on_c, 6, 55, 0
10, 8423, Note_on_c, 6, 60, 0
10, 8424, Note_on_c, 6, 64, 0
10, 8461, Note_on_c, 6, 64, 83
10, 8461, Note_on_c, 6, 55, 79
10, 8461, Note_on_c, 6, 60, 80
10, 8461, Note_on_c, 6, 48, 110
10, 8531, Note_on_c, 6, 48, 0
10, 8531, Note_on_c, 6, 60, 0
10, 8536, Note_on_c, 6, 55, 0
10, 8536, Note_on_c, 6, 64, 0
10, 8581, Note_on_c, 6, 55, 66
10, 8581, Note_on_c, 6, 64, 67
10, 8581, Note_on_c, 6, 48, 91
10, 8581, Note_on_c, 6, 60, 74
10, 8592, Note_on_c, 6, 48, 0
10, 8593, Note_on_c, 6, 60, 0
10, 8597, Note_on_c, 6, 55, 0
10, 8602, Note_on_c, 6, 64, 0
10, 8641, Note_on_c, 6, 48, 92
10, 8641, Note_on_c, 6, 60, 78
10, 8641, Note_on_c, 6, 64, 80
10, 8641, Note_on_c, 6, 55, 74
10, 8661, Note_on_c, 6, 55, 0
10, 8662, Note_on_c, 6, 48, 0
10, 8662, Note_on_c, 6, 60, 0
10, 8663, Note_on_c, 6, 64, 0
10, 8701, Note_on_c, 6, 55, 87
10, 8701, Note_on_c, 6, 60, 87
10, 8701, Note_on_c, 6, 48, 99
10, 8701, Note_on_c, 6, 64, 89
10, 8777, Note_on_c, 6, 60, 0
10, 8777, Note_on_c, 6, 55, 0
10, 8778, Note_on_c, 6, 48, 0
10, 8783, Note_on_c, 6, 64, 0
10, 8821, Note_on_c, 6, 60, 71
10, 8821, Note_on_c, 6, 48, 89
10, 8821, Note_on_c, 6, 64, 71
10, 8821, Note_on_c, 6, 55, 68
10, 8832, Note_on_c, 6, 60, 0
10, 8837, Note_on_c, 6, 55, 0
10, 8842, Note_on_c, 6, 64, 0
10, 8842, Note_on_c, 6, 48, 0
10, 8881, Note_on_c, 6, 55, 64
10, 8881, Note_on_c, 6, 60, 72
10, 8881, Note_on_c, 6, 48, 90
10, 8881, Note_on_c, 6, 64, 74
10, 8901, Note_on_c, 6, 55, 0
10, 8902, Note_on_c, 6, 60, 0
10, 8902, Note_on_c, 6, 48, 0
10, 8903, Note_on_c, 6, 64, 0
10, 8941, Note_on_c, 6, 64, 87
10, 8941, Note_on_c, 6, 48, 102
10, 8941, Note_on_c, 6, 60, 82
10, 8941, Note_on_c, 6, 55, 81
10, 9018, Note_on_c, 6, 55, 0
10, 9018, Note_on_c, 6, 48, 0
10, 9021, Note_on_c, 6, 60, 0
10, 9022, Note_on_c, 6, 64, 0
10, 9061, Note_on_c, 6, 55, 69
10, 9061, Note_on_c, 6, 48, 92
10, 9061, Note_on_c, 6, 64, 78
10, 9061, Note_on_c, 6, 60, 73
10, 9082, Note_on_c, 6, 60, 0
10, 9082, Note_on_c, 6, 48, 0
10, 9083, Note_on_c, 6, 64, 0
10, 9083, Note_on_c, 6, 55, 0
10, 9121, Note_on_c, 6, 48, 97
10, 9121, Note_on_c, 6, 55, 77
10, 9121, Note_on_c, 6, 64, 84
10, 9121, Note_on_c, 6, 60, 77
10, 9143, Note_on_c, 6, 60, 0
10, 9143, Note_on_c, 6, 48, 0
10, 9143, Note_on_c, 6, 55, 0
10, 9143, Note_on_c, 6, 64, 0
10, 9181, Note_on_c, 6, 55, 79
10, 9181, Note_on_c, 6, 48, 97
10, 9181, Note_on_c, 6, 60, 85
10, 9181, Note_on_c, 6, 64, 87
10, 9257, Note_on_c, 6, 55, 0
10, 9258, Note_on_c, 6, 64, 0
10, 9258, Note_on_c, 6, 60, 0
10, 9259, Note_on_c, 6, 48, 0
10, 9301, Note_on_c, 6, 55, 76
10, 9301, Note_on_c, 6, 48, 90
10, 9301, Note_on_c, 6, 64, 80
10, 9301, Note_on_c, 6, 60, 76
10, 9322, Note_on_c, 6, 60, 0
10, 9322, Note_on_c, 6, 55, 0
10, 9323, Note_on_c, 6, 64, 0
10, 9323, Note_on_c, 6, 48, 0
10, 9361, Note_on_c, 6, 48, 90
10, 9361, Note_on_c, 6, 64, 79
10, 9361, Note_on_c, 6, 55, 64
10, 9361, Note_on_c, 6, 60, 77
10, 9371, Note_on_c, 6, 55, 0
10, 9381, Note_on_c, 6, 48, 0
10, 9381, Note_on_c, 6, 64, 0
10, 9381, Note_on_c, 6, 60, 0
10, 9421, Note_on_c, 6, 60, 89
10, 9421, Note_on_c, 6, 55, 86
10, 9421, Note_on_c, 6, 64, 91
10, 9421, Note_on_c, 6, 48, 99
10, 9494, Note_on_c, 6, 48, 0
10, 9494, Note_on_c, 6, 64, 0
10, 9494, Note_on_c, 6, 60, 0
10, 9496, Note_on_c, 6, 55, 0
10, 9541, Note_on_c, 6, 64, 82
10, 9541, Note_on_c, 6, 55, 80
10, 9541, Note_on_c, 6, 48, 95
10, 9541, Note_on_c, 6, 60, 83
10, 9551, Note_on_c, 6, 64, 0
10, 9552, Note_on_c, 6, 48, 0
10, 9559, Note_on_c, 6, 55, 0
10, 9559, Note_on_c, 6, 60, 0
10, 9601, Note_on_c, 6, 60, 86
10, 9601, Note_on_c, 6, 64, 84
10, 9601, Note_on_c, 6, 55, 77
10, 9601, Note_on_c, 6, 48, 92
10, 9612, Note_on_c, 6, 55, 0
10, 9613, Note_on_c, 6, 64, 0
10, 9619, Note_on_c, 6, 60, 0
10, 9619, Note_on_c, 6, 48, 0
10, 9661, Note_on_c, 6, 64, 87
10, 9661, Note_on_c, 6, 60, 86
10, 9661, Note_on_c, 6, 55, 85
10, 9661, Note_on_c, 6, 48, 102
10, 9726, Note_on_c, 6, 55, 0
10, 9726, Note_on_c, 6, 60, 0
10, 9731, Note_on_c, 6, 64, 0
10, 9737, Note_on_c, 6, 48, 0
10, 9781, Note_on_c, 6, 48, 85
10, 9781, Note_on_c, 6, 55, 74
10, 9781, Note_on_c, 6, 64, 77
10, 9781, Note_on_c, 6, 60, 66
10, 9792, Note_on_c, 6, 60, 0
10, 9792, Note_on_c, 6, 64, 0
10, 9799, Note_on_c, 6, 55, 0
10, 9799, Note_on_c, 6, 48, 0
10, 9841, Note_on_c, 6, 64, 86
10, 9841, Note_on_c, 6, 48, 106
10, 9841, Note_on_c, 6, 60, 81
10, 9841, Note_on_c, 6, 55, 81
10, 9862, Note_on_c, 6, 60, 0
10, 9863, Note_on_c, 6, 55, 0
10, 9863, Note_on_c, 6, 48, 0
10, 9864, Note_on_c, 6, 64, 0
10, 9901, Note_on_c, 6, 64, 89
10, 9901, Note_on_c, 6, 55, 87
10, 9901, Note_on_c, 6, 60, 89
10, 9901, Note_on_c, 6, 48, 106
10, 9977, Note_on_c, 6, 48, 0
10, 9982, Note_on_c, 6, 64, 0
10, 9982, Note_on_c, 6, 55, 0
10, 9982, Note_on_c, 6, 60, 0
10, 10021, Note_on_c, 6, 48, 97
10, 10021, Note_on_c, 6, 64, 70
10, 10021, Note_on_c, 6, 60, 70
10, 10021, Note_on_c, 6, 55, 63
10, 10042, Note_on_c, 6, 60, 0
10, 10042, Note_on_c, 6, 48, 0
10, 10043, Note_on_c, 6, 64, 0
10, 10043, Note_on_c, 6, 55, 0
10, 10081, Note_on_c, 6, 48, 97
10, 10081, Note_on_c, 6, 64, 80
10, 10081, Note_on_c, 6, 55, 74
10, 10082, Note_on_c, 6, 60, 78
10, 10090, Note_on_c, 6, 60, 0
10, 10097, Note_on_c, 6, 48, 0
10, 10102, Note_on_c, 6, 55, 0
10, 10102, Note_on_c, 6, 64, 0
10, 10141, Note_on_c, 6, 60, 85
10, 10141, Note_on_c, 6, 48, 114
10, 10141, Note_on_c, 6, 64, 86
10, 10141, Note_on_c, 6, 55, 83
10, 10214, Note_on_c, 6, 48, 0
10, 10217, Note_on_c, 6, 60, 0
10, 10217, Note_on_c, 6, 55, 0
10, 10223, Note_on_c, 6, 64, 0
10, 10261, Note_on_c, 6, 60, 78
10, 10261, Note_on_c, 6, 48, 85
10, 10261, Note_on_c, 6, 55, 69
10, 10261, Note_on_c, 6, 64, 79
10, 10282, Note_on_c, 6, 55, 0
10, 10282, Note_on_c, 6, 60, 0
10, 10283, Note_on_c, 6, 48, 0
10, 10283, Note_on_c, 6, 64, 0
10, 10321, Note_on_c, 6, 60, 73
10, 10321, Note_on_c, 6, 48, 79
10, 10321, Note_on_c, 6, 55, 60
10, 10321, Note_on_c, 6, 64, 67
10, 10332, Note_on_c, 6, 60, 0
10, 10333, Note_on_c, 6, 64, 0
10, 10338, Note_on_c, 6, 48, 0
10, 10342, Note_on_c, 6, 55, 0
10, 10381, Note_on_c, 6, 60, 87
10, 10381, Note_on_c, 6, 64, 88
10, 10381, Note_on_c, 6, 55, 82
10, 10381, Note_on_c, 6, 48, 97
10, 10456, Note_on_c, 6, 48, 0
10, 10458, Note_on_c, 6, 55, 0
10, 10461, Note_on_c, 6, 64, 0
10, 10462, Note_on_c, 6, 60, 0
10, 10501, Note_on_c, 6, 48, 83
10, 10501, Note_on_c, 6, 64, 70
10, 10501, Note_on_c, 6, 55, 71
10, 10501, Note_on_c, 6, 60, 75
10, 10513, Note_on_c, 6, 60, 0
10, 10518, Note_on_c, 6, 48, 0
10, 10522, Note_on_c, 6, 55, 0
10, 10523, Note_on_c, 6, 64, 0
10, 10561, Note_on_c, 6, 67, 65
10, 10561, Note_on_c, 6, 59, 83
10, 10561, Note_on_c, 6, 43, 81
10, 10561, Note_on_c, 6, 62, 76
10, 10562, Note_on_c, 6, 55, 68
10, 10574, Note_on_c, 6, 62, 0
10, 10574, Note_on_c, 6, 43, 0
10, 10576, Note_on_c, 6, 59, 0
10, 10584, Note_on_c, 6, 67, 0
10, 10585, Note_on_c, 6, 55, 0
10, 10621, Note_on_c, 6, 62, 81
10, 10621, Note_on_c, 6, 55, 80
10, 10621, Note_on_c, 6, 43, 97
10, 10621, Note_on_c, 6, 67, 91
10, 10621, Note_on_c, 6, 59, 93
10, 10698, Note_on_c, 6, 43, 0
10, 10698, Note_on_c, 6, 62, 0
10, 10698, Note_on_c, 6, 55, 0
10, 10703, Note_on_c, 6, 67, 0
10, 10703, Note_on_c, 6, 59, 0
10, 10741, Note_on_c, 6, 62, 76
10, 10741, Note_on_c, 6, 55, 67
10, 10741, Note_on_c, 6, 43, 79
10, 10741, Note_on_c, 6, 59, 71
10, 10741, Note_on_c, 6, 67, 61
10, 10761, Note_on_c, 6, 62, 0
10, 10762, Note_on_c, 6, 59, 0
10, 10762, Note_on_c, 6, 43, 0
10, 10763, Note_on_c, 6, 55, 0
10, 10764, Note_on_c, 6, 67, 0
10, 10801, Note_on_c, 6, 55, 66
10, 10801, Note_on_c, 6, 62, 72
10, 10801, Note_on_c, 6, 67, 73
10, 10801, Note_on_c, 6, 59, 84
10, 10801, Note_on_c, 6, 43, 81
10, 10822, Note_on_c, 6, 43, 0
10, 10822, Note_on_c, 6, 62, 0
10, 10823, Note_on_c, 6, 59, 0
10, 10824, Note_on_c, 6, 67, 0
10, 10824, Note_on_c, 6, 55, 0
10, 10861, Note_on_c, 6, 62, 84
10, 10861, Note_on_c, 6, 43, 92
10, 10861, Note_on_c, 6, 55, 85
10, 10861, Note_on_c, 6, 59, 91
10, 10861, Note_on_c, 6, 67, 92
10, 10939, Note_on_c, 6, 43, 0
10, 10941, Note_on_c, 6, 55, 0
10, 10944, Note_on_c, 6, 62, 0
10, 10944, Note_on_c, 6, 59, 0
10, 10946, Note_on_c, 6, 67, 0
10, 10981, Note_on_c, 6, 55, 61
10, 10981, Note_on_c, 6, 43, 84
10, 10981, Note_on_c, 6, 62, 68
10, 10981, Note_on_c, 6, 59, 73
10, 10981, Note_on_c, 6, 67, 51
10, 10993, Note_on_c, 6, 67, 0
10, 10993, Note_on_c, 6, 62, 0
10, 10994, Note_on_c, 6, 59, 0
10, 10994, Note_on_c, 6, 43, 0
10, 10999, Note_on_c, 6, 55, 0
10, 11041, Note_on_c, 6, 67, 78
10, 11041, Note_on_c, 6, 43, 85
10, 11041, Note_on_c, 6, 59, 83
10, 11041, Note_on_c, 6, 55, 74
10, 11042, Note_on_c, 6, 62, 73
10, 11053, Note_on_c, 6, 62, 0
10, 11053, Note_on_c, 6, 59, 0
10, 11062, Note_on_c, 6, 43, 0
10, 11063, Note_on_c, 6, 67, 0
10, 11064, Note_on_c, 6, 55, 0
10, 11101, Note_on_c, 6, 67, 91
10, 11101, Note_on_c, 6, 43, 97
10, 11101, Note_on_c, 6, 55, 86
10, 11101, Note_on_c, 6, 62, 81
10, 11101, Note_on_c, 6, 59, 91
10, 11171, Note_on_c, 6, 62, 0
10, 11171, Note_on_c, 6, 43, 0
10, 11173, Note_on_c, 6, 59, 0
10, 11173, Note_on_c, 6, 55, 0
10, 11178, Note_on_c, 6, 67, 0
10, 11221, Note_on_c, 6, 59, 79
10, 11221, Note_on_c, 6, 67, 77
10, 11221, Note_on_c, 6, 43, 89
10, 11221, Note_on_c, 6, 62, 72
10, 11221, Note_on_c, 6, 55, 70
10, 11243, Note_on_c, 6, 55, 0
10, 11243, Note_on_c, 6, 43, 0
10, 11243, Note_on_c, 6, 62, 0
10, 11243, Note_on_c, 6, 59, 0
10, 11244, Note_on_c, 6, 67, 0
10, 11281, Note_on_c, 6, 55, 73
10, 11281, Note_on_c, 6, 67, 78
10, 11281, Note_on_c, 6, 43, 86
10, 11281, Note_on_c, 6, 59, 81
10, 11281, Note_on_c, 6, 62, 71
10, 11293, Note_on_c, 6, 62, 0
10, 11293, Note_on_c, 6, 43, 0
10, 11293, Note_on_c, 6, 59, 0
10, 11308, Note_on_c, 6, 67, 0
10, 11308, Note_on_c, 6, 55, 0
10, 11341, Note_on_c, 6, 43, 102
10, 11341, Note_on_c, 6, 62, 80
10, 11341, Note_on_c, 6, 67, 91
10, 11341, Note_on_c, 6, 55, 85
10, 11341, Note_on_c, 6, 59, 85
10, 11409, Note_on_c, 6, 62, 0
10, 11414, Note_on_c, 6, 59, 0
10, 11418, Note_on_c, 6, 43, 0
10, 11422, Note_on_c, 6, 55, 0
10, 11427, Note_on_c, 6, 67, 0
10, 11461, Note_on_c, 6, 62, 74
10, 11461, Note_on_c, 6, 55, 65
10, 11461, Note_on_c, 6, 59, 81
10, 11461, Note_on_c, 6, 67, 75
10, 11461, Note_on_c, 6, 43, 91
10, 11472, Note_on_c, 6, 62, 0
10, 11482, Note_on_c, 6, 59, 0
10, 11483, Note_on_c, 6, 43, 0
10, 11483, Note_on_c, 6, 55, 0
10, 11488, Note_on_c, 6, 67, 0
10, 11521, Note_on_c, 6, 55, 78
10, 11521, Note_on_c, 6, 48, 86
10, 11521, Note_on_c, 6, 64, 80
10, 11521, Note_on_c, 6, 60, 84
10, 11542, Note_on_c, 6, 60, 0
10, 11542, Note_on_c, 6, 48, 0
10, 11543, Note_on_c, 6, 64, 0
10, 11543, Note_on_c, 6, 55, 0
10, 11581, Note_on_c, 6, 55, 78
10, 11581, Note_on_c, 6, 60, 82
10, 11581, Note_on_c, 6, 48, 99
10, 11581, Note_on_c, 6, 64, 81
10, 11657, Note_on_c, 6, 48, 0
10, 11657, Note_on_c, 6, 55, 0
10, 11662, Note_on_c, 6, 60, 0
10, 11662, Note_on_c, 6, 64, 0
10, 11701, Note_on_c, 6, 64, 75
10, 11701, Note_on_c, 6, 48, 89
10, 11701, Note_on_c, 6, 60, 82
10, 11701, Note_on_c, 6, 55, 79
10, 11711, Note_on_c, 6, 64, 0
10, 11721, Note_on_c, 6, 55, 0
10, 11721, Note_on_c, 6, 60, 0
10, 11722, Note_on_c, 6, 48, 0
10, 11761, Note_on_c, 6, 60, 78
10, 11761, Note_on_c, 6, 64, 73
10, 11761, Note_on_c, 6, 55, 62
10, 11761, Note_on_c, 6, 48, 90
10, 11772, Note_on_c, 6, 55, 0
10, 11781, Note_on_c, 6, 48, 0
10, 11781, Note_on_c, 6, 60, 0
10, 11782, Note_on_c, 6, 64, 0
10, 11821, Note_on_c, 6, 48, 106
10, 11821, Note_on_c, 6, 60, 82
10, 11821, Note_on_c, 6, 64, 84
10, 11821, Note_on_c, 6, 55, 85
10, 11897, Note_on_c, 6, 55, 0
10, 11897, Note_on_c, 6, 60, 0
10, 11902, Note_on_c, 6, 64, 0
10, 11907, Note_on_c, 6, 48, 0
10, 11941, Note_on_c, 6, 48, 87
10, 11941, Note_on_c, 6, 64, 78
10, 11941, Note_on_c, 6, 55, 81
10, 11941, Note_on_c, 6, 60, 85
10, 11951, Note_on_c, 6, 48, 0
10, 11959, Note_on_c, 6, 64, 0
10, 11959, Note_on_c, 6, 55, 0
10, 11959, Note_on_c, 6, 60, 0
10, 12001, Note_on_c, 6, 48, 99
10, 12001, Note_on_c, 6, 60, 84
10, 12001, Note_on_c, 6, 64, 77
10, 12001, Note_on_c, 6, 55, 75
10, 12012, Note_on_c, 6, 60, 0
10, 12021, Note_on_c, 6, 48, 0
10, 12022, Note_on_c, 6, 64, 0
10, 12022, Note_on_c, 6, 55, 0
10, 12061, Note_on_c, 6, 55, 89
10, 12061, Note_on_c, 6, 64, 81
10, 12061, Note_on_c, 6, 60, 86
10, 12061, Note_on_c, 6, 48, 114
10, 12131, Note_on_c, 6, 60, 0
10, 12133, Note_on_c, 6, 55, 0
10, 12134, Note_on_c, 6, 64, 0
10, 12139, Note_on_c, 6, 48, 0
10, 12181, Note_on_c, 6, 55, 74
10, 12181, Note_on_c, 6, 48, 92
10, 12181, Note_on_c, 6, 64, 79
10, 12181, Note_on_c, 6, 60, 82
10, 12202, Note_on_c, 6, 60, 0
10, 12202, Note_on_c, 6, 55, 0
10, 12203, Note_on_c, 6, 64, 0
10, 12203, Note_on_c, 6, 48, 0
10, 12241, Note_on_c, 6, 64, 72
10, 12241, Note_on_c, 6, 48, 87
10, 12241, Note_on_c, 6, 60, 78
10, 12241, Note_on_c, 6, 55, 70
10, 12252, Note_on_c, 6, 60, 0
10, 12259, Note_on_c, 6, 64, 0
10, 12259, Note_on_c, 6, 48, 0
10, 12259, Note_on_c, 6, 55, 0
10, 12301, Note_on_c, 6, 55, 84
10, 12301, Note_on_c, 6, 60, 84
10, 12301, Note_on_c, 6, 64, 84
10, 12301, Note_on_c, 6, 48, 102
10, 12378, Note_on_c, 6, 48, 0
10, 12382, Note_on_c, 6, 64, 0
10, 12386, Note_on_c, 6, 60, 0
10, 12386, Note_on_c, 6, 55, 0
10, 12421, Note_on_c, 6, 64, 73
10, 12421, Note_on_c, 6, 48, 89
10, 12421, Note_on_c, 6, 60, 78
10, 12421, Note_on_c, 6, 55, 71
10, 12432, Note_on_c, 6, 64, 0
10, 12441, Note_on_c, 6, 48, 0
10, 12441, Note_on_c, 6, 55, 0
10, 12442, Note_on_c, 6, 60, 0
10, 12481, Note_on_c, 6, 64, 83
10, 12481, Note_on_c, 6, 60, 83
10, 12481, Note_on_c, 6, 48, 95
10, 12481, Note_on_c, 6, 55, 82
10, 12501, Note_on_c, 6, 48, 0
10, 12502, Note_on_c, 6, 64, 0
10, 12503, Note_on_c, 6, 60, 0
10, 12503, Note_on_c, 6, 55, 0
10, 12541, Note_on_c, 6, 55, 87
10, 12541, Note_on_c, 6, 60, 90
10, 12541, Note_on_c, 6, 64, 87
10, 12541, Note_on_c, 6, 48, 106
10, 12616, Note_on_c, 6, 48, 0
10, 12622, Note_on_c, 6, 55, 0
10, 12622, Note_on_c, 6, 60, 0
10, 12622, Note_on_c, 6, 64, 0
10, 12661, Note_on_c, 6, 64, 77
10, 12661, Note_on_c, 6, 48, 87
10, 12661, Note_on_c, 6, 55, 73
10, 12661, Note_on_c, 6, 60, 76
10, 12682, Note_on_c, 6, 60, 0
10, 12682, Note_on_c, 6, 64, 0
10, 12682, Note_on_c, 6, 48, 0
10, 12682, Note_on_c, 6, 55, 0
10, 12721, Note_on_c, 6, 60, 87
10, 12721, Note_on_c, 6, 55, 83
10, 12721, Note_on_c, 6, 48, 85
10, 12721, Note_on_c, 6, 64, 86
10, 12742, Note_on_c, 6, 64, 0
10, 12742, Note_on_c, 6, 60, 0
10, 12742, Note_on_c, 6, 55, 0
10, 12743, Note_on_c, 6, 48, 0
10, 12781, Note_on_c, 6, 60, 90
10, 12781, Note_on_c, 6, 64, 89
10, 12781, Note_on_c, 6, 55, 86
10, 12781, Note_on_c, 6, 48, 92
10, 12852, Note_on_c, 6, 48, 0
10, 12858, Note_on_c, 6, 55, 0
10, 12858, Note_on_c, 6, 60, 0
10, 12859, Note_on_c, 6, 64, 0
10, 12901, Note_on_c, 6, 48, 82
10, 12901, Note_on_c, 6, 55, 72
10, 12901, Note_on_c, 6, 64, 75
10, 12901, Note_on_c, 6, 60, 75
10, 12922, Note_on_c, 6, 60, 0
10, 12922, Note_on_c, 6, 48, 0
10, 12922, Note_on_c, 6, 55, 0
10, 12923, Note_on_c, 6, 64, 0
10, 12961, Note_on_c, 6, 60, 75
10, 12961, Note_on_c, 6, 64, 75
10, 12961, Note_on_c, 6, 55, 72
10, 12962, Note_on_c, 6, 48, 86
10, 12982, Note_on_c, 6, 60, 0
10, 12983, Note_on_c, 6, 64, 0
10, 12983, Note_on_c, 6, 55, 0
10, 12983, Note_on_c, 6, 48, 0
10, 13021, Note_on_c, 6, 60, 85
10, 13021, Note_on_c, 6, 55, 87
10, 13021, Note_on_c, 6, 64, 83
10, 13021, Note_on_c, 6, 48, 97
10, 13079, Note_on_c, 6, 55, 0
10, 13086, Note_on_c, 6, 60, 0
10, 13086, Note_on_c, 6, 64, 0
10, 13092, Note_on_c, 6, 48, 0
10, 13141, Note_on_c, 6, 55, 79
10, 13141, Note_on_c, 6, 60, 78
10, 13141, Note_on_c, 6, 48, 87
10, 13141, Note_on_c, 6, 64, 77
10, 13159, Note_on_c, 6, 60, 0
10, 13161, Note_on_c, 6, 55, 0
10, 13162, Note_on_c, 6, 64, 0
10, 13164, Note_on_c, 6, 48, 0
10, 13201, Note_on_c, 6, 64, 74
10, 13201, Note_on_c, 6, 48, 86
10, 13201, Note_on_c, 6, 60, 80
10, 13201, Note_on_c, 6, 55, 74
10, 13221, Note_on_c, 6, 48, 0
10, 13222, Note_on_c, 6, 55, 0
10, 13222, Note_on_c, 6, 60, 0
10, 13223, Note_on_c, 6, 64, 0
10, 13261, Note_on_c, 6, 64, 84
10, 13261, Note_on_c, 6, 60, 85
10, 13261, Note_on_c, 6, 55, 85
10, 13261, Note_on_c, 6, 48, 97
10, 13331, Note_on_c, 6, 48, 0
10, 13331, Note_on_c, 6, 64, 0
10, 13331, Note_on_c, 6, 60, 0
10, 13336, Note_on_c, 6, 55, 0
10, 13381, Note_on_c, 6, 64, 70
10, 13381, Note_on_c, 6, 48, 85
10, 13381, Note_on_c, 6, 60, 75
10, 13381, Note_on_c, 6, 55, 67
10, 13391, Note_on_c, 6, 60, 0
10, 13398, Note_on_c, 6, 55, 0
10, 13398, Note_on_c, 6, 48, 0
10, 13399, Note_on_c, 6, 64, 0
10, 13441, Note_on_c, 6, 48, 90
10, 13441, Note_on_c, 6, 41, 82
10, 13441, Note_on_c, 6, 57, 87
10, 13441, Note_on_c, 6, 60, 93
10, 13441, Note_on_c, 6, 65, 89
10, 13462, Note_on_c, 6, 60, 0
10, 13463, Note_on_c, 6, 57, 0
10, 13463, Note_on_c, 6, 48, 0
10, 13463, Note_on_c, 6, 41, 0
10, 13463, Note_on_c, 6, 65, 0
10, 13501, Note_on_c, 6, 57, 90
10, 13501, Note_on_c, 6, 65, 93
10, 13501, Note_on_c, 6, 41, 85
10, 13501, Note_on_c, 6, 48, 92
10, 13501, Note_on_c, 6, 60, 97
10, 13571, Note_on_c, 6, 41, 0
10, 13572, Note_on_c, 6, 57, 0
10, 13573, Note_on_c, 6, 48, 0
10, 13577, Note_on_c, 6, 60, 0
10, 13577, Note_on_c, 6, 65, 0
10, 13621, Note_on_c, 6, 60, 87
10, 13621, Note_on_c, 6, 65, 84
10, 13621, Note_on_c, 6, 41, 71
10, 13621, Note_on_c, 6, 48, 86
10, 13621, Note_on_c, 6, 57, 79
10, 13634, Note_on_c, 6, 57, 0
10, 13634, Note_on_c, 6, 41, 0
10, 13634, Note_on_c, 6, 48, 0
10, 13634, Note_on_c, 6, 60, 0
10, 13644, Note_on_c, 6, 65, 0
10, 13681, Note_on_c, 6, 48, 84
10, 13681, Note_on_c, 6, 41, 72
10, 13681, Note_on_c, 6, 60, 90
10, 13681, Note_on_c, 6, 65, 86
10, 13681, Note_on_c, 6, 57, 85
10, 13682, Note_on_c, 6, 41, 0
10, 13702, Note_on_c, 6, 57, 0
10, 13703, Note_on_c, 6, 48, 0
10, 13703, Note_on_c, 6, 60, 0
10, 13704, Note_on_c, 6, 65, 0
10, 13741, Note_on_c, 6, 57, 91
10, 13741, Note_on_c, 6, 65, 93
10, 13741, Note_on_c, 6, 41, 89
10, 13741, Note_on_c, 6, 48, 92
10, 13741, Note_on_c, 6, 60, 99
10, 13809, Note_on_c, 6, 41, 0
10, 13814, Note_on_c, 6, 60, 0
10, 13814, Note_on_c, 6, 65, 0
10, 13816, Note_on_c, 6, 57, 0
10, 13816, Note_on_c, 6, 48, 0
10, 13861, Note_on_c, 6, 57, 77
10, 13861, Note_on_c, 6, 41, 78
10, 13861, Note_on_c, 6, 65, 87
10, 13861, Note_on_c, 6, 48, 80
10, 13861, Note_on_c, 6, 60, 85
10, 13874, Note_on_c, 6, 60, 0
10, 13882, Note_on_c, 6, 41, 0
10, 13882, Note_on_c, 6, 48, 0
10, 13883, Note_on_c, 6, 57, 0
10, 13889, Note_on_c, 6, 65, 0
10, 13921, Note_on_c, 6, 60, 83
10, 13921, Note_on_c, 6, 55, 81
10, 13921, Note_on_c, 6, 64, 79
10, 13921, Note_on_c, 6, 48, 90
10, 13941, Note_on_c, 6, 60, 0
10, 13942, Note_on_c, 6, 48, 0
10, 13943, Note_on_c, 6, 64, 0
10, 13943, Note_on_c, 6, 55, 0
10, 13981, Note_on_c, 6, 48, 95
10, 13981, Note_on_c, 6, 55, 86
10, 13981, Note_on_c, 6, 60, 86
10, 13981, Note_on_c, 6, 64, 89
10, 14054, Note_on_c, 6, 48, 0
10, 14058, Note_on_c, 6, 55, 0
10, 14058, Note_on_c, 6, 60, 0
10, 14059, Note_on_c, 6, 64, 0
10, 14101, Note_on_c, 6, 48, 87
10, 14101, Note_on_c, 6, 64, 73
10, 14101, Note_on_c, 6, 55, 69
10, 14101, Note_on_c, 6, 60, 76
10, 14122, Note_on_c, 6, 60, 0
10, 14122, Note_on_c, 6, 55, 0
10, 14122, Note_on_c, 6, 48, 0
10, 14123, Note_on_c, 6, 64, 0
10, 14161, Note_on_c, 6, 55, 75
10, 14161, Note_on_c, 6, 64, 84
10, 14161, Note_on_c, 6, 48, 95
10, 14161, Note_on_c, 6, 60, 82
10, 14182, Note_on_c, 6, 48, 0
10, 14183, Note_on_c, 6, 55, 0
10, 14183, Note_on_c, 6, 64, 0
10, 14183, Note_on_c, 6, 60, 0
10, 14221, Note_on_c, 6, 60, 87
10, 14221, Note_on_c, 6, 64, 89
10, 14221, Note_on_c, 6, 48, 114
10, 14221, Note_on_c, 6, 55, 87
10, 14301, Note_on_c, 6, 64, 0
10, 14302, Note_on_c, 6, 60, 0
10, 14302, Note_on_c, 6, 48, 0
10, 14302, Note_on_c, 6, 55, 0
10, 14341, Note_on_c, 6, 60, 74
10, 14341, Note_on_c, 6, 48, 82
10, 14341, Note_on_c, 6, 64, 73
10, 14341, Note_on_c, 6, 55, 64
10, 14352, Note_on_c, 6, 48, 0
10, 14359, Note_on_c, 6, 60, 0
10, 14359, Note_on_c, 6, 55, 0
10, 14361, Note_on_c, 6, 64, 0
10, 14401, Note_on_c, 6, 55, 78
10, 14401, Note_on_c, 6, 48, 97
10, 14401, Note_on_c, 6, 64, 84
10, 14401, Note_on_c, 6, 60, 82
10, 14422, Note_on_c, 6, 48, 0
10, 14422, Note_on_c, 6, 55, 0
10, 14423, Note_on_c, 6, 60, 0
10, 14424, Note_on_c, 6, 64, 0
10, 14461, Note_on_c, 6, 60, 82
10, 14461, Note_on_c, 6, 64, 84
10, 14461, Note_on_c, 6, 48, 106
10, 14461, Note_on_c, 6, 55, 83
10, 14528, Note_on_c, 6, 55, 0
10, 14528, Note_on_c, 6, 48, 0
10, 14532, Note_on_c, 6, 60, 0
10, 14533, Note_on_c, 6, 64, 0
10, 14581, Note_on_c, 6, 64, 71
10, 14581, Note_on_c, 6, 60, 74
10, 14581, Note_on_c, 6, 48, 106
10, 14581, Note_on_c, 6, 55, 68
10, 14602, Note_on_c, 6, 55, 0
10, 14602, Note_on_c, 6, 64, 0
10, 14602, Note_on_c, 6, 60, 0
10, 14603, Note_on_c, 6, 48, 0
10, 14641, Note_on_c, 6, 55, 76
10, 14641, Note_on_c, 6, 64, 84
10, 14641, Note_on_c, 6, 48, 97
10, 14641, Note_on_c, 6, 60, 80
10, 14662, Note_on_c, 6, 60, 0
10, 14662, Note_on_c, 6, 55, 0
10, 14662, Note_on_c, 6, 64, 0
10, 14662, Note_on_c, 6, 48, 0
10, 14701, Note_on_c, 6, 55, 87
10, 14701, Note_on_c, 6, 60, 89
10, 14701, Note_on_c, 6, 48, 114
10, 14701, Note_on_c, 6, 64, 91
10, 14776, Note_on_c, 6, 48, 0
10, 14776, Note_on_c, 6, 55, 0
10, 14776, Note_on_c, 6, 60, 0
10, 14781, Note_on_c, 6, 64, 0
10, 14821, Note_on_c, 6, 48, 93
10, 14821, Note_on_c, 6, 64, 77
10, 14821, Note_on_c, 6, 55, 70
10, 14821, Note_on_c, 6, 60, 74
10, 14842, Note_on_c, 6, 60, 0
10, 14842, Note_on_c, 6, 48, 0
10, 14843, Note_on_c, 6, 55, 0
10, 14843, Note_on_c, 6, 64, 0
10, 14881, Note_on_c, 6, 55, 67
10, 14881, Note_on_c, 6, 60, 76
10, 14881, Note_on_c, 6, 48, 97
10, 14881, Note_on_c, 6, 64, 74
10, 14892, Note_on_c, 6, 60, 0
10, 14892, Note_on_c, 6, 55, 0
10, 14899, Note_on_c, 6, 48, 0
10, 14908, Note_on_c, 6, 64, 0
10, 14941, Note_on_c, 6, 48, 110
10, 14941, Note_on_c, 6, 55, 81
10, 14941, Note_on_c, 6, 64, 84
10, 14941, Note_on_c, 6, 60, 82
10, 15017, Note_on_c, 6, 48, 0
10, 15022, Note_on_c, 6, 55, 0
10, 15022, Note_on_c, 6, 60, 0
10, 15027, Note_on_c, 6, 64, 0
10, 15061, Note_on_c, 6, 48, 106
10, 15061, Note_on_c, 6, 64, 78
10, 15061, Note_on_c, 6, 55, 76
10, 15061, Note_on_c, 6, 60, 81
10, 15082, Note_on_c, 6, 60, 0
10, 15082, Note_on_c, 6, 55, 0
10, 15082, Note_on_c, 6, 48, 0
10, 15083, Note_on_c, 6, 64, 0
10, 15121, Note_on_c, 6, 48, 99
10, 15121, Note_on_c, 6, 60, 78
10, 15121, Note_on_c, 6, 55, 68
10, 15121, Note_on_c, 6, 64, 75
10, 15142, Note_on_c, 6, 60, 0
10, 15142, Note_on_c, 6, 48, 0
10, 15143, Note_on_c, 6, 55, 0
10, 15148, Note_on_c, 6, 64, 0
10, 15181, Note_on_c, 6, 48, 127
10, 15181, Note_on_c, 6, 60, 89
10, 15181, Note_on_c, 6, 55, 89
10, 15181, Note_on_c, 6, 64, 88
10, 15258, Note_on_c, 6, 48, 0
10, 15263, Note_on_c, 6, 60, 0
10, 15263, Note_on_c, 6, 55, 0
10, 15264, Note_on_c, 6, 64, 0
10, 15301, Note_on_c, 6, 48, 84
10, 15301, Note_on_c, 6, 55, 77
10, 15301, Note_on_c, 6, 64, 73
10, 15301, Note_on_c, 6, 60, 63
10, 15302, Note_on_c, 6, 60, 0
10, 15322, Note_on_c, 6, 64, 0
10, 15322, Note_on_c, 6, 48, 0
10, 15328, Note_on_c, 6, 55, 0
10, 15361, Note_on_c, 6, 43, 82
10, 15361, Note_on_c, 6, 59, 88
10, 15361, Note_on_c, 6, 67, 79
10, 15361, Note_on_c, 6, 55, 75
10, 15361, Note_on_c, 6, 62, 74
10, 15372, Note_on_c, 6, 62, 0
10, 15382, Note_on_c, 6, 43, 0
10, 15383, Note_on_c, 6, 59, 0
10, 15383, Note_on_c, 6, 55, 0
10, 15384, Note_on_c, 6, 67, 0
10, 15421, Note_on_c, 6, 59, 98
10, 15421, Note_on_c, 6, 67, 97
10, 15421, Note_on_c, 6, 43, 97
10, 15421, Note_on_c, 6, 62, 87
10, 15421, Note_on_c, 6, 55, 90
10, 15497, Note_on_c, 6, 62, 0
10, 15498, Note_on_c, 6, 43, 0
10, 15498, Note_on_c, 6, 59, 0
10, 15499, Note_on_c, 6, 55, 0
10, 15504, Note_on_c, 6, 67, 0
10, 15541, Note_on_c, 6, 55, 65
10, 15541, Note_on_c, 6, 43, 82
10, 15541, Note_on_c, 6, 59, 75
10, 15541, Note_on_c, 6, 67, 69
10, 15541, Note_on_c, 6, 62, 72
10, 15552, Note_on_c, 6, 62, 0
10, 15562, Note_on_c, 6, 43, 0
10, 15563, Note_on_c, 6, 55, 0
10, 15563, Note_on_c, 6, 59, 0
10, 15563, Note_on_c, 6, 67, 0
10, 15601, Note_on_c, 6, 62, 74
10, 15601, Note_on_c, 6, 43, 91
10, 15601, Note_on_c, 6, 59, 88
10, 15601, Note_on_c, 6, 67, 87
10, 15601, Note_on_c, 6, 55, 80
10, 15613, Note_on_c, 6, 62, 0
10, 15614, Note_on_c, 6, 59, 0
10, 15619, Note_on_c, 6, 43, 0
10, 15627, Note_on_c, 6, 67, 0
10, 15628, Note_on_c, 6, 55, 0
10, 15661, Note_on_c, 6, 67, 95
10, 15661, Note_on_c, 6, 62, 82
10, 15661, Note_on_c, 6, 55, 91
10, 15661, Note_on_c, 6, 59, 93
10, 15661, Note_on_c, 6, 43, 93
10, 15732, Note_on_c, 6, 62, 0
10, 15737, Note_on_c, 6, 59, 0
10, 15747, Note_on_c, 6, 67, 0
10, 15747, Note_on_c, 6, 55, 0
10, 15747, Note_on_c, 6, 43, 0
10, 15781, Note_on_c, 6, 43, 80
10, 15781, Note_on_c, 6, 59, 77
10, 15781, Note_on_c, 6, 67, 70
10, 15781, Note_on_c, 6, 62, 74
10, 15781, Note_on_c, 6, 55, 59
10, 15793, Note_on_c, 6, 62, 0
10, 15793, Note_on_c, 6, 43, 0
10, 15802, Note_on_c, 6, 59, 0
10, 15802, Note_on_c, 6, 55, 0
10, 15804, Note_on_c, 6, 67, 0
10, 15841, Note_on_c, 6, 55, 90
10, 15841, Note_on_c, 6, 60, 90
10, 15841, Note_on_c, 6, 48, 106
10, 15841, Note_on_c, 6, 64, 96
10, 15861, Note_on_c, 6, 48, 0
10, 15861, Note_on_c, 6, 55, 0
10, 15862, Note_on_c, 6, 60, 0
10, 15862, Note_on_c, 6, 64, 0
10, 15901, Note_on_c, 6, 55, 91
10, 15901, Note_on_c, 6, 60, 95
10, 15901, Note_on_c, 6, 48, 110
10, 15901, Note_on_c, 6, 64, 103
10, 15968, Note_on_c, 6, 55, 0
10, 15969, Note_on_c, 6, 60, 0
10, 15969, Note_on_c, 6, 48, 0
10, 15973, Note_on_c, 6, 64, 0
10, 16021, Note_on_c, 6, 55, 80
10, 16021, Note_on_c, 6, 48, 90
10, 16021, Note_on_c, 6, 64, 89
10, 16021, Note_on_c, 6, 60, 81
10, 16031, Note_on_c, 6, 60, 0
10, 16038, Note_on_c, 6, 64, 0
10, 16038, Note_on_c, 6, 55, 0
10, 16039, Note_on_c, 6, 48, 0
10, 16081, Note_on_c, 6, 60, 87
10, 16081, Note_on_c, 6, 55, 82
10, 16081, Note_on_c, 6, 64, 93
10, 16081, Note_on_c, 6, 48, 95
10, 16092, Note_on_c, 6, 60, 0
10, 16093, Note_on_c, 6, 55, 0
10, 16097, Note_on_c, 6, 48, 0
10, 16103, Note_on_c, 6, 64, 0
10, 16141, Note_on_c, 6, 64, 103
10, 16141, Note_on_c, 6, 48, 102
10, 16141, Note_on_c, 6, 60, 93
10, 16141, Note_on_c, 6, 55, 89
10, 16201, Note_on_c, 6, 60, 0
10, 16204, Note_on_c, 6, 55, 0
10, 16206, Note_on_c, 6, 48, 0
10, 16206, Note_on_c, 6, 64, 0
10, 16261, Note_on_c, 6, 48, 93
10, 16261, Note_on_c, 6, 55, 85
10, 16261, Note_on_c, 6, 60, 89
10, 16261, Note_on_c, 6, 64, 96
10, 16302, Note_on_c, 6, 60, 0
10, 16303, Note_on_c, 6, 55, 0
10, 16308, Note_on_c, 6, 48, 0
10, 16308, Note_on_c, 6, 64, 0
10, 16321, Note_on_c, 6, 48, 99
10, 16321, Note_on_c, 6, 60, 84
10, 16321, Note_on_c, 6, 64, 77
10, 16321, Note_on_c, 6, 55, 75
10, 16332, Note_on_c, 6, 60, 0
10, 16341, Note_on_c, 6, 48, 0
10, 16342, Note_on_c, 6, 64, 0
10, 16342, Note_on_c, 6, 55, 0
10, 16381, Note_on_c, 6, 55, 89
10, 16381, Note_on_c, 6, 64, 81
10, 16381, Note_on_c, 6, 60, 86
10, 16381, Note_on_c, 6, 48, 114
10, 16451, Note_on_c, 6, 60, 0
10, 16453, Note_on_c, 6, 55, 0
10, 16454, Note_on_c, 6, 64, 0
10, 16459, Note_on_c, 6, 48, 0
10, 16501, Note_on_c, 6, 55, 74
10, 16501, Note_on_c, 6, 48, 92
10, 16501, Note_on_c, 6, 64, 79
10, 16501, Note_on_c, 6, 60, 82
10, 16522, Note_on_c, 6, 60, 0
10, 16522, Note_on_c, 6, 55, 0
10, 16523, Note_on_c, 6, 64, 0
10, 16523, Note_on_c, 6, 48, 0
10, 16561, Note_on_c, 6, 64, 72
10, 16561, Note_on_c, 6, 48, 87
10, 16561, Note_on_c, 6, 60, 78
10, 16561, Note_on_c, 6, 55, 70
10, 16572, Note_on_c, 6, 60, 0
10, 16579, Note_on_c, 6, 64, 0
10, 16579, Note_on_c, 6, 48, 0
10, 16579, Note_on_c, 6, 55, 0
10, 16621, Note_on_c, 6, 55, 84
10, 16621, Note_on_c, 6, 60, 84
10, 16621, Note_on_c, 6, 64, 84
10, 16621, Note_on_c, 6, 48, 102
10, 16698, Note_on_c, 6, 48, 0
10, 16702, Note_on_c, 6, 64, 0
10, 16706, Note_on_c, 6, 60, 0
10, 16706, Note_on_c, 6, 55, 0
10, 16741, Note_on_c, 6, 64, 73
10, 16741, Note_on_c, 6, 48, 89
10, 16741, Note_on_c, 6, 60, 78
10, 16741, Note_on_c, 6, 55, 71
10, 16752, Note_on_c, 6, 64, 0
10, 16761, Note_on_c, 6, 48, 0
10, 16761, Note_on_c, 6, 55, 0
10, 16762, Note_on_c, 6, 60, 0
10, 16801, Note_on_c, 6, 64, 83
10, 16801, Note_on_c, 6, 60, 83
10, 16801, Note_on_c, 6, 48, 95
10, 16801, Note_on_c, 6, 55, 82
10, 16821, Note_on_c, 6, 48, 0
10, 16822, Note_on_c, 6, 64, 0
10, 16823, Note_on_c, 6, 60, 0
10, 16823, Note_on_c, 6, 55, 0
10, 16861, Note_on_c, 6, 55, 87
10, 16861, Note_on_c, 6, 60, 90
10, 16861, Note_on_c, 6, 64, 87
10, 16861, Note_on_c, 6, 48, 106
10, 16936, Note_on_c, 6, 48, 0
10, 16942, Note_on_c, 6, 55, 0
10, 16942, Note_on_c, 6, 60, 0
10, 16942, Note_on_c, 6, 64, 0
10, 16981, Note_on_c, 6, 64, 77
10, 16981, Note_on_c, 6, 48, 87
10, 16981, Note_on_c, 6, 55, 73
10, 16981, Note_on_c, 6, 60, 76
10, 17002, Note_on_c, 6, 60, 0
10, 17002, Note_on_c, 6, 64, 0
10, 17002, Note_on_c, 6, 48, 0
10, 17002, Note_on_c, 6, 55, 0
10, 17041, Note_on_c, 6, 60, 87
10, 17041, Note_on_c, 6, 55, 83
10, 17041, Note_on_c, 6, 48, 85
10, 17041, Note_on_c, 6, 64, 86
10, 17062, Note_on_c, 6, 64, 0
10, 17062, Note_on_c, 6, 60, 0
10, 17062, Note_on_c, 6, 55, 0
10, 17063, Note_on_c, 6, 48, 0
10, 17101, Note_on_c, 6, 60, 90
10, 17101, Note_on_c, 6, 64, 89
10, 17101, Note_on_c, 6, 55, 86
10, 17101, Note_on_c, 6, 48, 92
10, 17172, Note_on_c, 6, 48, 0
10, 17178, Note_on_c, 6, 55, 0
10, 17178, Note_on_c, 6, 60, 0
10, 17179, Note_on_c, 6, 64, 0
10, 17221, Note_on_c, 6, 48, 82
10, 17221, Note_on_c, 6, 55, 72
10, 17221, Note_on_c, 6, 64, 75
10, 17221, Note_on_c, 6, 60, 75
10, 17242, Note_on_c, 6, 60, 0
10, 17242, Note_on_c, 6, 48, 0
10, 17242, Note_on_c, 6, 55, 0
10, 17243, Note_on_c, 6, 64, 0
10, 17281, Note_on_c, 6, 60, 75
10, 17281, Note_on_c, 6, 64, 75
10, 17281, Note_on_c, 6, 55, 72
10, 17282, Note_on_c, 6, 48, 86
10, 17302, Note_on_c, 6, 60, 0
10, 17303, Note_on_c, 6, 64, 0
10, 17303, Note_on_c, 6, 55, 0
10, 17303, Note_on_c, 6, 48, 0
10, 17341, Note_on_c, 6, 60, 85
10, 17341, Note_on_c, 6, 55, 87
10, 17341, Note_on_c, 6, 64, 83
10, 17341, Note_on_c, 6, 48, 97
10, 17399, Note_on_c, 6, 55, 0
10, 17406, Note_on_c, 6, 60, 0
10, 17406, Note_on_c, 6, 64, 0
10, 17412, Note_on_c, 6, 48, 0
10, 17461, Note_on_c, 6, 55, 79
10, 17461, Note_on_c, 6, 60, 78
10, 17461, Note_on_c, 6, 48, 87
10, 17461, Note_on_c, 6, 64, 77
10, 17479, Note_on_c, 6, 60, 0
10, 17481, Note_on_c, 6, 55, 0
10, 17482, Note_on_c, 6, 64, 0
10, 17484, Note_on_c, 6, 48, 0
10, 17521, Note_on_c, 6, 64, 74
10, 17521, Note_on_c, 6, 48, 86
10, 17521, Note_on_c, 6, 60, 80
10, 17521, Note_on_c, 6, 55, 74
10, 17541, Note_on_c, 6, 48, 0
10, 17542, Note_on_c, 6, 55, 0
10, 17542, Note_on_c, 6, 60, 0
10, 17543, Note_on_c, 6, 64, 0
10, 17581, Note_on_c, 6, 64, 84
10, 17581, Note_on_c, 6, 60, 85
10, 17581, Note_on_c, 6, 55, 85
10, 17581, Note_on_c, 6, 48, 97
10, 17651, Note_on_c, 6, 48, 0
10, 17651, Note_on_c, 6, 64, 0
10, 17651, Note_on_c, 6, 60, 0
10, 17656, Note_on_c, 6, 55, 0
10, 17701, Note_on_c, 6, 64, 70
10, 17701, Note_on_c, 6, 48, 85
10, 17701, Note_on_c, 6, 60, 75
10, 17701, Note_on_c, 6, 55, 67
10, 17711, Note_on_c, 6, 60, 0
10, 17718, Note_on_c, 6, 55, 0
10, 17718, Note_on_c, 6, 48, 0
10, 17719, Note_on_c, 6, 64, 0
10, 17761, Note_on_c, 6, 48, 90
10, 17761, Note_on_c, 6, 41, 82
10, 17761, Note_on_c, 6, 57, 87
10, 17761, Note_on_c, 6, 60, 93
10, 17761, Note_on_c, 6, 65, 89
10, 17782, Note_on_c, 6, 60, 0
10, 17783, Note_on_c, 6, 57, 0
10, 17783, Note_on_c, 6, 48, 0
10, 17783, Note_on_c, 6, 41, 0
10, 17783, Note_on_c, 6, 65, 0
10, 17821, Note_on_c, 6, 57, 90
10, 17821, Note_on_c, 6, 65, 93
10, 17821, Note_on_c, 6, 41, 85
10, 17821, Note_on_c, 6, 48, 92
10, 17821, Note_on_c, 6, 60, 97
10, 17891, Note_on_c, 6, 41, 0
10, 17892, Note_on_c, 6, 57, 0
10, 17893, Note_on_c, 6, 48, 0
10, 17897, Note_on_c, 6, 60, 0
10, 17897, Note_on_c, 6, 65, 0
10, 17941, Note_on_c, 6, 60, 87
10, 17941, Note_on_c, 6, 65, 84
10, 17941, Note_on_c, 6, 41, 71
10, 17941, Note_on_c, 6, 48, 86
10, 17941, Note_on_c, 6, 57, 79
10, 17954, Note_on_c, 6, 57, 0
10, 17954, Note_on_c, 6, 41, 0
10, 17954, Note_on_c, 6, 48, 0
10, 17954, Note_on_c, 6, 60, 0
10, 17964, Note_on_c, 6, 65, 0
10, 18001, Note_on_c, 6, 48, 84
10, 18001, Note_on_c, 6, 41, 72
10, 18001, Note_on_c, 6, 60, 90
10, 18001, Note_on_c, 6, 65, 86
10, 18001, Note_on_c, 6, 57, 85
10, 18002, Note_on_c, 6, 41, 0
10, 18022, Note_on_c, 6, 57, 0
10, 18023, Note_on_c, 6, 48, 0
10, 18023, Note_on_c, 6, 60, 0
10, 18024, Note_on_c, 6, 65, 0
10, 18061, Note_on_c, 6, 57, 91
10, 18061, Note_on_c, 6, 65, 93
10, 18061, Note_on_c, 6, 41, 89
10, 18061, Note_on_c, 6, 48, 92
10, 18061, Note_on_c, 6, 60, 99
10, 18129, Note_on_c, 6, 41, 0
10, 18134, Note_on_c, 6, 60, 0
10, 18134, Note_on_c, 6, 65, 0
10, 18136, Note_on_c, 6, 57, 0
10, 18136, Note_on_c, 6, 48, 0
10, 18181, Note_on_c, 6, 57, 77
10, 18181, Note_on_c, 6, 41, 78
10, 18181, Note_on_c, 6, 65, 87
10, 18181, Note_on_c, 6, 48, 80
10, 18181, Note_on_c, 6, 60, 85
10, 18194, Note_on_c, 6, 60, 0
10, 18202, Note_on_c, 6, 41, 0
10, 18202, Note_on_c, 6, 48, 0
10, 18203, Note_on_c, 6, 57, 0
10, 18209, Note_on_c, 6, 65, 0
10, 18241, Note_on_c, 6, 60, 83
10, 18241, Note_on_c, 6, 55, 81
10, 18241, Note_on_c, 6, 64, 79
10, 18241, Note_on_c, 6, 48, 90
10, 18261, Note_on_c, 6, 60, 0
10, 18262, Note_on_c, 6, 48, 0
10, 18263, Note_on_c, 6, 64, 0
10, 18263, Note_on_c, 6, 55, 0
10, 18301, Note_on_c, 6, 48, 95
10, 18301, Note_on_c, 6, 55, 86
10, 18301, Note_on_c, 6, 60, 86
10, 18301, Note_on_c, 6, 64, 89
10, 18374, Note_on_c, 6, 48, 0
10, 18378, Note_on_c, 6, 55, 0
10, 18378, Note_on_c, 6, 60, 0
10, 18379, Note_on_c, 6, 64, 0
10, 18421, Note_on_c, 6, 48, 87
10, 18421, Note_on_c, 6, 64, 73
10, 18421, Note_on_c, 6, 55, 69
10, 18421, Note_on_c, 6, 60, 76
10, 18442, Note_on_c, 6, 60, 0
10, 18442, Note_on_c, 6, 55, 0
10, 18442, Note_on_c, 6, 48, 0
10, 18443, Note_on_c, 6, 64, 0
10, 18481, Note_on_c, 6, 55, 75
10, 18481, Note_on_c, 6, 64, 84
10, 18481, Note_on_c, 6, 48, 95
10, 18481, Note_on_c, 6, 60, 82
10, 18502, Note_on_c, 6, 48, 0
10, 18503, Note_on_c, 6, 55, 0
10, 18503, Note_on_c, 6, 64, 0
10, 18503, Note_on_c, 6, 60, 0
10, 18541, Note_on_c, 6, 60, 87
10, 18541, Note_on_c, 6, 64, 89
10, 18541, Note_on_c, 6, 48, 114
10, 18541, Note_on_c, 6, 55, 87
10, 18621, Note_on_c, 6, 64, 0
10, 18622, Note_on_c, 6, 60, 0
10, 18622, Note_on_c, 6, 48, 0
10, 18622, Note_on_c, 6, 55, 0
10, 18661, Note_on_c, 6, 60, 74
10, 18661, Note_on_c, 6, 48, 82
10, 18661, Note_on_c, 6, 64, 73
10, 18661, Note_on_c, 6, 55, 64
10, 18672, Note_on_c, 6, 48, 0
10, 18679, Note_on_c, 6, 60, 0
10, 18679, Note_on_c, 6, 55, 0
10, 18681, Note_on_c, 6, 64, 0
10, 18721, Note_on_c, 6, 55, 78
10, 18721, Note_on_c, 6, 48, 97
10, 18721, Note_on_c, 6, 64, 84
10, 18721, Note_on_c, 6, 60, 82
10, 18742, Note_on_c, 6, 48, 0
10, 18742, Note_on_c, 6, 55, 0
10, 18743, Note_on_c, 6, 60, 0
10, 18744, Note_on_c, 6, 64, 0
10, 18781, Note_on_c, 6, 60, 82
10, 18781, Note_on_c, 6, 64, 84
10, 18781, Note_on_c, 6, 48, 106
10, 18781, Note_on_c, 6, 55, 83
10, 18848, Note_on_c, 6, 55, 0
10, 18848, Note_on_c, 6, 48, 0
10, 18852, Note_on_c, 6, 60, 0
10, 18853, Note_on_c, 6, 64, 0
10, 18901, Note_on_c, 6, 64, 71
10, 18901, Note_on_c, 6, 60, 74
10, 18901, Note_on_c, 6, 48, 106
10, 18901, Note_on_c, 6, 55, 68
10, 18922, Note_on_c, 6, 55, 0
10, 18922, Note_on_c, 6, 64, 0
10, 18922, Note_on_c, 6, 60, 0
10, 18923, Note_on_c, 6, 48, 0
10, 18961, Note_on_c, 6, 55, 76
10, 18961, Note_on_c, 6, 64, 84
10, 18961, Note_on_c, 6, 48, 97
10, 18961, Note_on_c, 6, 60, 80
10, 18982, Note_on_c, 6, 60, 0
10, 18982, Note_on_c, 6, 55, 0
10, 18982, Note_on_c, 6, 64, 0
10, 18982, Note_on_c, 6, 48, 0
10, 19021, Note_on_c, 6, 55, 87
10, 19021, Note_on_c, 6, 60, 89
10, 19021, Note_on_c, 6, 48, 114
10, 19021, Note_on_c, 6, 64, 91
10, 19096, Note_on_c, 6, 48, 0
10, 19096, Note_on_c, 6, 55, 0
10, 19096, Note_on_c, 6, 60, 0
10, 19101, Note_on_c, 6, 64, 0
10, 19141, Note_on_c, 6, 48, 93
10, 19141, Note_on_c, 6, 64, 77
10, 19141, Note_on_c, 6, 55, 70
10, 19141, Note_on_c, 6, 60, 74
10, 19162, Note_on_c, 6, 60, 0
10, 19162, Note_on_c, 6, 48, 0
10, 19163, Note_on_c, 6, 55, 0
10, 19163, Note_on_c, 6, 64, 0
10, 19201, Note_on_c, 6, 55, 67
10, 19201, Note_on_c, 6, 60, 76
10, 19201, Note_on_c, 6, 48, 97
10, 19201, Note_on_c, 6, 64, 74
10, 19212, Note_on_c, 6, 60, 0
10, 19212, Note_on_c, 6, 55, 0
10, 19219, Note_on_c, 6, 48, 0
10, 19228, Note_on_c, 6, 64, 0
10, 19261, Note_on_c, 6, 48, 110
10, 19261, Note_on_c, 6, 55, 81
10, 19261, Note_on_c, 6, 64, 84
10, 19261, Note_on_c, 6, 60, 82
10, 19337, Note_on_c, 6, 48, 0
10, 19342, Note_on_c, 6, 55, 0
10, 19342, Note_on_c, 6, 60, 0
10, 19347, Note_on_c, 6, 64, 0
10, 19381, Note_on_c, 6, 48, 106
10, 19381, Note_on_c, 6, 64, 78
10, 19381, Note_on_c, 6, 55, 76
10, 19381, Note_on_c, 6, 60, 81
10, 19402, Note_on_c, 6, 60, 0
10, 19402, Note_on_c, 6, 55, 0
10, 19402, Note_on_c, 6, 48, 0
10, 19403, Note_on_c, 6, 64, 0
10, 19441, Note_on_c, 6, 48, 99
10, 19441, Note_on_c, 6, 60, 78
10, 19441, Note_on_c, 6, 55, 68
10, 19441, Note_on_c, 6, 64, 75
10, 19462, Note_on_c, 6, 60, 0
10, 19462, Note_on_c, 6, 48, 0
10, 19463, Note_on_c, 6, 55, 0
10, 19468, Note_on_c, 6, 64, 0
10, 19501, Note_on_c, 6, 48, 127
10, 19501, Note_on_c, 6, 60, 89
10, 19501, Note_on_c, 6, 55, 89
10, 19501, Note_on_c, 6, 64, 88
10, 19578, Note_on_c, 6, 48, 0
10, 19583, Note_on_c, 6, 60, 0
10, 19583, Note_on_c, 6, 55, 0
10, 19584, Note_on_c, 6, 64, 0
10, 19621, Note_on_c, 6, 48, 84
10, 19621, Note_on_c, 6, 55, 77
10, 19621, Note_on_c, 6, 64, 73
10, 19621, Note_on_c, 6, 60, 63
10, 19622, Note_on_c, 6, 60, 0
10, 19642, Note_on_c, 6, 64, 0
10, 19642, Note_on_c, 6, 48, 0
10, 19648, Note_on_c, 6, 55, 0
10, 19681, Note_on_c, 6, 43, 82
10, 19681, Note_on_c, 6, 59, 88
10, 19681, Note_on_c, 6, 67, 79
10, 19681, Note_on_c, 6, 55, 75
10, 19681, Note_on_c, 6, 62, 74
10, 19692, Note_on_c, 6, 62, 0
10, 19702, Note_on_c, 6, 43, 0
10, 19703, Note_on_c, 6, 59, 0
10, 19703, Note_on_c, 6, 55, 0
10, 19704, Note_on_c, 6, 67, 0
10, 19741, Note_on_c, 6, 59, 98
10, 19741, Note_on_c, 6, 67, 97
10, 19741, Note_on_c, 6, 43, 97
10, 19741, Note_on_c, 6, 62, 87
10, 19741, Note_on_c, 6, 55, 90
10, 19817, Note_on_c, 6, 62, 0
10, 19818, Note_on_c, 6, 43, 0
10, 19818, Note_on_c, 6, 59, 0
10, 19819, Note_on_c, 6, 55, 0
10, 19824, Note_on_c, 6, 67, 0
10, 19861, Note_on_c, 6, 55, 65
10, 19861, Note_on_c, 6, 43, 82
10, 19861, Note_on_c, 6, 59, 75
10, 19861, Note_on_c, 6, 67, 69
10, 19861, Note_on_c, 6, 62, 72
10, 19872, Note_on_c, 6, 62, 0
10, 19882, Note_on_c, 6, 43, 0
10, 19883, Note_on_c, 6, 55, 0
10, 19883, Note_on_c, 6, 59, 0
10, 19883, Note_on_c, 6, 67, 0
10, 19921, Note_on_c, 6, 62, 74
10, 19921, Note_on_c, 6, 43, 91
10, 19921, Note_on_c, 6, 59, 88
10, 19921, Note_on_c, 6, 67, 87
10, 19921, Note_on_c, 6, 55, 80
10, 19933, Note_on_c, 6, 62, 0
10, 19934, Note_on_c, 6, 59, 0
10, 19939, Note_on_c, 6, 43, 0
10, 19947, Note_on_c, 6, 67, 0
10, 19948, Note_on_c, 6, 55, 0
10, 19981, Note_on_c, 6, 67, 95
10, 19981, Note_on_c, 6, 62, 82
10, 19981, Note_on_c, 6, 55, 91
10, 19981, Note_on_c, 6, 59, 93
10, 19981, Note_on_c, 6, 43, 93
10, 20052, Note_on_c, 6, 62, 0
10, 20057, Note_on_c, 6, 59, 0
10, 20067, Note_on_c, 6, 67, 0
10, 20067, Note_on_c, 6, 55, 0
10, 20067, Note_on_c, 6, 43, 0
10, 20101, Note_on_c, 6, 43, 80
10, 20101, Note_on_c, 6, 59, 77
10, 20101, Note_on_c, 6, 67, 70
10, 20101, Note_on_c, 6, 62, 74
10, 20101, Note_on_c, 6, 55, 59
10, 20113, Note_on_c, 6, 62, 0
10, 20113, Note_on_c, 6, 43, 0
10, 20122, Note_on_c, 6, 59, 0
10, 20122, Note_on_c, 6, 55, 0
10, 20124, Note_on_c, 6, 67, 0
10, 20161, Note_on_c, 6, 55, 90
10, 20161, Note_on_c, 6, 60, 90
10, 20161, Note_on_c, 6, 48, 106
10, 20161, Note_on_c, 6, 64, 96
10, 20181, Note_on_c, 6, 48, 0
10, 20181, Note_on_c, 6, 55, 0
10, 20182, Note_on_c, 6, 60, 0
10, 20182, Note_on_c, 6, 64, 0
10, 20221, Note_on_c, 6, 55, 91
10, 20221, Note_on_c, 6, 60, 95
10, 20221, Note_on_c, 6, 48, 110
10, 20221, Note_on_c, 6, 64, 103
10, 20288, Note_on_c, 6, 55, 0
10, 20289, Note_on_c, 6, 60, 0
10, 20289, Note_on_c, 6, 48, 0
10, 20293, Note_on_c, 6, 64, 0
10, 20341, Note_on_c, 6, 55, 80
10, 20341, Note_on_c, 6, 48, 90
10, 20341, Note_on_c, 6, 64, 89
10, 20341, Note_on_c, 6, 60, 81
10, 20351, Note_on_c, 6, 60, 0
10, 20358, Note_on_c, 6, 64, 0
10, 20358, Note_on_c, 6, 55, 0
10, 20359, Note_on_c, 6, 48, 0
10, 20401, Note_on_c, 6, 60, 87
10, 20401, Note_on_c, 6, 55, 82
10, 20401, Note_on_c, 6, 64, 93
10, 20401, Note_on_c, 6, 48, 95
10, 20412, Note_on_c, 6, 60, 0
10, 20413, Note_on_c, 6, 55, 0
10, 20417, Note_on_c, 6, 48, 0
10, 20423, Note_on_c, 6, 64, 0
10, 20461, Note_on_c, 6, 64, 103
10, 20461, Note_on_c, 6, 48, 102
10, 20461, Note_on_c, 6, 60, 93
10, 20461, Note_on_c, 6, 55, 89
10, 20521, Note_on_c, 6, 60, 0
10, 20524, Note_on_c, 6, 55, 0
10, 20526, Note_on_c, 6, 48, 0
10, 20526, Note_on_c, 6, 64, 0
10, 20581, Note_on_c, 6, 48, 93
10, 20581, Note_on_c, 6, 55, 85
10, 20581, Note_on_c, 6, 60, 89
10, 20581, Note_on_c, 6, 64, 96
10, 20622, Note_on_c, 6, 60, 0
10, 20623, Note_on_c, 6, 55, 0
10, 20628, Note_on_c, 6, 48, 0
10, 20628, Note_on_c, 6, 64, 0
10, 20641, Note_on_c, 6, 60, 83
10, 20641, Note_on_c, 6, 55, 81
10, 20641, Note_on_c, 6, 64, 79
10, 20641, Note_on_c, 6, 48, 90
10, 20661, Note_on_c, 6, 60, 0
10, 20662, Note_on_c, 6, 48, 0
10, 20663, Note_on_c, 6, 64, 0
10, 20663, Note_on_c, 6, 55, 0
10, 20701, Note_on_c, 6, 48, 95
10, 20701, Note_on_c, 6, 55, 86
10, 20701, Note_on_c, 6, 60, 86
10, 20701, Note_on_c, 6, 64, 89
10, 20774, Note_on_c, 6, 48, 0
10, 20778, Note_on_c, 6, 55, 0
10, 20778, Note_on_c, 6, 60, 0
10, 20779, Note_on_c, 6, 64, 0
10, 20821, Note_on_c, 6, 48, 87
10, 20821, Note_on_c, 6, 64, 73
10, 20821, Note_on_c, 6, 55, 69
10, 20821, Note_on_c, 6, 60, 76
10, 20842, Note_on_c, 6, 60, 0
10, 20842, Note_on_c, 6, 55, 0
10, 20842, Note_on_c, 6, 48, 0
10, 20843, Note_on_c, 6, 64, 0
10, 20881, Note_on_c, 6, 55, 75
10, 20881, Note_on_c, 6, 64, 84
10, 20881, Note_on_c, 6, 48, 95
10, 20881, Note_on_c, 6, 60, 82
10, 20902, Note_on_c, 6, 48, 0
10, 20903, Note_on_c, 6, 55, 0
10, 20903, Note_on_c, 6, 64, 0
10, 20903, Note_on_c, 6, 60, 0
10, 20941, Note_on_c, 6, 60, 87
10, 20941, Note_on_c, 6, 64, 89
10, 20941, Note_on_c, 6, 48, 114
10, 20941, Note_on_c, 6, 55, 87
10, 21021, Note_on_c, 6, 64, 0
10, 21022, Note_on_c, 6, 60, 0
10, 21022, Note_on_c, 6, 48, 0
10, 21022, Note_on_c, 6, 55, 0
10, 21061, Note_on_c, 6, 60, 74
10, 21061, Note_on_c, 6, 48, 82
10, 21061, Note_on_c, 6, 64, 73
10, 21061, Note_on_c, 6, 55, 64
10, 21072, Note_on_c, 6, 48, 0
10, 21079, Note_on_c, 6, 60, 0
10, 21079, Note_on_c, 6, 55, 0
10, 21081, Note_on_c, 6, 64, 0
10, 21121, Note_on_c, 6, 55, 78
10, 21121, Note_on_c, 6, 48, 97
10, 21121, Note_on_c, 6, 64, 84
10, 21121, Note_on_c, 6, 60, 82
10, 21142, Note_on_c, 6, 48, 0
10, 21142, Note_on_c, 6, 55, 0
10, 21143, Note_on_c, 6, 60, 0
10, 21144, Note_on_c, 6, 64, 0
10, 21181, Note_on_c, 6, 60, 82
10, 21181, Note_on_c, 6, 64, 84
10, 21181, Note_on_c, 6, 48, 106
10, 21181, Note_on_c, 6, 55, 83
10, 21248, Note_on_c, 6, 55, 0
10, 21248, Note_on_c, 6, 48, 0
10, 21252, Note_on_c, 6, 60, 0
10, 21253, Note_on_c, 6, 64, 0
10, 21301, Note_on_c, 6, 64, 71
10, 21301, Note_on_c, 6, 60, 74
10, 21301, Note_on_c, 6, 48, 106
10, 21301, Note_on_c, 6, 55, 68
10, 21322, Note_on_c, 6, 55, 0
10, 21322, Note_on_c, 6, 64, 0
10, 21322, Note_on_c, 6, 60, 0
10, 21323, Note_on_c, 6, 48, 0
10, 21361, Note_on_c, 6, 55, 76
10, 21361, Note_on_c, 6, 64, 84
10, 21361, Note_on_c, 6, 48, 97
10, 21361, Note_on_c, 6, 60, 80
10, 21382, Note_on_c, 6, 60, 0
10, 21382, Note_on_c, 6, 55, 0
10, 21382, Note_on_c, 6, 64, 0
10, 21382, Note_on_c, 6, 48, 0
10, 21421, Note_on_c, 6, 55, 87
10, 21421, Note_on_c, 6, 60, 89
10, 21421, Note_on_c, 6, 48, 114
10, 21421, Note_on_c, 6, 64, 91
10, 21496, Note_on_c, 6, 48, 0
10, 21496, Note_on_c, 6, 55, 0
10, 21496, Note_on_c, 6, 60, 0
10, 21501, Note_on_c, 6, 64, 0
10, 21541, Note_on_c, 6, 48, 93
10, 21541, Note_on_c, 6, 64, 77
10, 21541, Note_on_c, 6, 55, 70
10, 21541, Note_on_c, 6, 60, 74
10, 21562, Note_on_c, 6, 60, 0
10, 21562, Note_on_c, 6, 48, 0
10, 21563, Note_on_c, 6, 55, 0
10, 21563, Note_on_c, 6, 64, 0
10, 21601, Note_on_c, 6, 60, 83
10, 21601, Note_on_c, 6, 55, 81
10, 21601, Note_on_c, 6, 64, 79
10, 21601, Note_on_c, 6, 48, 90
10, 21621, Note_on_c, 6, 60, 0
10, 21622, Note_on_c, 6, 48, 0
10, 21623, Note_on_c, 6, 64, 0
10, 21623, Note_on_c, 6, 55, 0
10, 21661, Note_on_c, 6, 48, 95
10, 21661, Note_on_c, 6, 55, 86
10, 21661, Note_on_c, 6, 60, 86
10, 21661, Note_on_c, 6, 64, 89
10, 21734, Note_on_c, 6, 48, 0
10, 21738, Note_on_c, 6, 55, 0
10, 21738, Note_on_c, 6, 60, 0
10, 21739, Note_on_c, 6, 64, 0
10, 21781, Note_on_c, 6, 48, 87
10, 21781, Note_on_c, 6, 64, 73
10, 21781, Note_on_c, 6, 55, 69
10, 21781, Note_on_c, 6, 60, 76
10, 21802, Note_on_c, 6, 60, 0
10, 21802, Note_on_c, 6, 55, 0
10, 21802, Note_on_c, 6, 48, 0
10, 21803, Note_on_c, 6, 64, 0
10, 21841, Note_on_c, 6, 55, 75
10, 21841, Note_on_c, 6, 64, 84
10, 21841, Note_on_c, 6, 48, 95
10, 21841, Note_on_c, 6, 60, 82
10, 21862, Note_on_c, 6, 48, 0
10, 21863, Note_on_c, 6, 55, 0
10, 21863, Note_on_c, 6, 64, 0
10, 21863, Note_on_c, 6, 60, 0
10, 21901, Note_on_c, 6, 60, 87
10, 21901, Note_on_c, 6, 64, 89
10, 21901, Note_on_c, 6, 48, 114
10, 21901, Note_on_c, 6, 55, 87
10, 21981, Note_on_c, 6, 64, 0
10, 21982, Note_on_c, 6, 60, 0
10, 21982, Note_on_c, 6, 48, 0
10, 21982, Note_on_c, 6, 55, 0
10, 22021, Note_on_c, 6, 60, 74
10, 22021, Note_on_c, 6, 48, 82
10, 22021, Note_on_c, 6, 64, 73
10, 22021, Note_on_c, 6, 55, 64
10, 22032, Note_on_c, 6, 48, 0
10, 22039, Note_on_c, 6, 60, 0
10, 22039, Note_on_c, 6, 55, 0
10, 22041, Note_on_c, 6, 64, 0
10, 22081, Note_on_c, 6, 55, 78
10, 22081, Note_on_c, 6, 48, 97
10, 22081, Note_on_c, 6, 64, 84
10, 22081, Note_on_c, 6, 60, 82
10, 22102, Note_on_c, 6, 48, 0
10, 22102, Note_on_c, 6, 55, 0
10, 22103, Note_on_c, 6, 60, 0
10, 22104, Note_on_c, 6, 64, 0
10, 22141, Note_on_c, 6, 60, 82
10, 22141, Note_on_c, 6, 64, 84
10, 22141, Note_on_c, 6, 48, 106
10, 22141, Note_on_c, 6, 55, 83
10, 22208, Note_on_c, 6, 55, 0
10, 22208, Note_on_c, 6, 48, 0
10, 22212, Note_on_c, 6, 60, 0
10, 22213, Note_on_c, 6, 64, 0
10, 22261, Note_on_c, 6, 64, 71
10, 22261, Note_on_c, 6, 60, 74
10, 22261, Note_on_c, 6, 48, 106
10, 22261, Note_on_c, 6, 55, 68
10, 22282, Note_on_c, 6, 55, 0
10, 22282, Note_on_c, 6, 64, 0
10, 22282, Note_on_c, 6, 60, 0
10, 22283, Note_on_c, 6, 48, 0
10, 22321, Note_on_c, 6, 55, 76
10, 22321, Note_on_c, 6, 64, 84
10, 22321, Note_on_c, 6, 48, 97
10, 22321, Note_on_c, 6, 60, 80
10, 22342, Note_on_c, 6, 60, 0
10, 22342, Note_on_c, 6, 55, 0
10, 22342, Note_on_c, 6, 64, 0
10, 22342, Note_on_c, 6, 48, 0
10, 22381, Note_on_c, 6, 55, 87
10, 22381, Note_on_c, 6, 60, 89
10, 22381, Note_on_c, 6, 48, 114
10, 22381, Note_on_c, 6, 64, 91
10, 22456, Note_on_c, 6, 48, 0
10, 22456, Note_on_c, 6, 55, 0
10, 22456, Note_on_c, 6, 60, 0
10, 22461, Note_on_c, 6, 64, 0
10, 22501, Note_on_c, 6, 48, 93
10, 22501, Note_on_c, 6, 64, 77
10, 22501, Note_on_c, 6, 55, 70
10, 22501, Note_on_c, 6, 60, 74
10, 22522, Note_on_c, 6, 60, 0
10, 22522, Note_on_c, 6, 48, 0
10, 22523, Note_on_c, 6, 55, 0
10, 22523, Note_on_c, 6, 64, 0
10, 22561, Note_on_c, 6, 55, 78
10, 22561, Note_on_c, 6, 48, 97
10, 22561, Note_on_c, 6, 64, 84
10, 22561, Note_on_c, 6, 60, 82
10, 22582, Note_on_c, 6, 48, 0
10, 22582, Note_on_c, 6, 55, 0
10, 22583, Note_on_c, 6, 60, 0
10, 22584, Note_on_c, 6, 64, 0
10, 22621, Note_on_c, 6, 60, 82
10, 22621, Note_on_c, 6, 64, 84
10, 22621, Note_on_c, 6, 48, 106
10, 22621, Note_on_c, 6, 55, 83
10, 22688, Note_on_c, 6, 55, 0
10, 22688, Note_on_c, 6, 48, 0
10, 22692, Note_on_c, 6, 60, 0
10, 22693, Note_on_c, 6, 64, 0
10, 22741, Note_on_c, 6, 64, 71
10, 22741, Note_on_c, 6, 60, 74
10, 22741, Note_on_c, 6, 48, 106
10, 22741, Note_on_c, 6, 55, 68
10, 22762, Note_on_c, 6, 55, 0
10, 22762, Note_on_c, 6, 64, 0
10, 22762, Note_on_c, 6, 60, 0
10, 22763, Note_on_c, 6, 48, 0
10, 22801, Note_on_c, 6, 55, 76
10, 22801, Note_on_c, 6, 64, 84
10, 22801, Note_on_c, 6, 48, 97
10, 22801, Note_on_c, 6, 60, 80
10, 22822, Note_on_c, 6, 60, 0
10, 22822, Note_on_c, 6, 55, 0
10, 22822, Note_on_c, 6, 64, 0
10, 22822, Note_on_c, 6, 48, 0
10, 22861, Note_on_c, 6, 55, 87
10, 22861, Note_on_c, 6, 60, 89
10, 22861, Note_on_c, 6, 48, 114
10, 22861, Note_on_c, 6, 64, 91
10, 22936, Note_on_c, 6, 48, 0
10, 22936, Note_on_c, 6, 55, 0
10, 22936, Note_on_c, 6, 60, 0
10, 22941, Note_on_c, 6, 64, 0
10, 22981, Note_on_c, 6, 48, 93
10, 22981, Note_on_c, 6, 64, 77
10, 22981, Note_on_c, 6, 55, 70
10, 22981, Note_on_c, 6, 60, 74
10, 23002, Note_on_c, 6, 60, 0
10, 23002, Note_on_c, 6, 48, 0
10, 23003, Note_on_c, 6, 55, 0
10, 23003, Note_on_c, 6, 64, 0
10, 23041, Note_on_c, 6, 43, 82
10, 23041, Note_on_c, 6, 59, 88
10, 23041, Note_on_c, 6, 67, 79
10, 23041, Note_on_c, 6, 55, 75
10, 23041, Note_on_c, 6, 62, 74
10, 23052, Note_on_c, 6, 62, 0
10, 23062, Note_on_c, 6, 43, 0
10, 23063, Note_on_c, 6, 59, 0
10, 23063, Note_on_c, 6, 55, 0
10, 23064, Note_on_c, 6, 67, 0
10, 23101, Note_on_c, 6, 59, 98
10, 23101, Note_on_c, 6, 67, 97
10, 23101, Note_on_c, 6, 43, 97
10, 23101, Note_on_c, 6, 62, 87
10, 23101, Note_on_c, 6, 55, 90
10, 23177, Note_on_c, 6, 62, 0
10, 23178, Note_on_c, 6, 43, 0
10, 23178, Note_on_c, 6, 59, 0
10, 23179, Note_on_c, 6, 55, 0
10, 23184, Note_on_c, 6, 67, 0
10, 23221, Note_on_c, 6, 55, 65
10, 23221, Note_on_c, 6, 43, 82
10, 23221, Note_on_c, 6, 59, 75
10, 23221, Note_on_c, 6, 67, 69
10, 23221, Note_on_c, 6, 62, 72
10, 23232, Note_on_c, 6, 62, 0
10, 23242, Note_on_c, 6, 43, 0
10, 23243, Note_on_c, 6, 55, 0
10, 23243, Note_on_c, 6, 59, 0
10, 23243, Note_on_c, 6, 67, 0
10, 23281, Note_on_c, 6, 62, 74
10, 23281, Note_on_c, 6, 43, 91
10, 23281, Note_on_c, 6, 59, 88
10, 23281, Note_on_c, 6, 67, 87
10, 23281, Note_on_c, 6, 55, 80
10, 23293, Note_on_c, 6, 62, 0
10, 23294, Note_on_c, 6, 59, 0
10, 23299, Note_on_c, 6, 43, 0
10, 23307, Note_on_c, 6, 67, 0
10, 23308, Note_on_c, 6, 55, 0
10, 23341, Note_on_c, 6, 67, 95
10, 23341, Note_on_c, 6, 62, 82
10, 23341, Note_on_c, 6, 55, 91
10, 23341, Note_on_c, 6, 59, 93
10, 23341, Note_on_c, 6, 43, 93
10, 23412, Note_on_c, 6, 62, 0
10, 23417, Note_on_c, 6, 59, 0
10, 23427, Note_on_c, 6, 67, 0
10, 23427, Note_on_c, 6, 55, 0
10, 23427, Note_on_c, 6, 43, 0
10, 23461, Note_on_c, 6, 43, 80
10, 23461, Note_on_c, 6, 59, 77
10, 23461, Note_on_c, 6, 67, 70
10, 23461, Note_on_c, 6, 62, 74
10, 23461, Note_on_c, 6, 55, 59
10, 23473, Note_on_c, 6, 62, 0
10, 23473, Note_on_c, 6, 43, 0
10, 23482, Note_on_c, 6, 59, 0
10, 23482, Note_on_c, 6, 55, 0
10, 23484, Note_on_c, 6, 67, 0
10, 23521, Note_on_c, 6, 43, 82
10, 23521, Note_on_c, 6, 59, 88
10, 23521, Note_on_c, 6, 67, 79
10, 23521, Note_on_c, 6, 55, 75
10, 23521, Note_on_c, 6, 62, 74
10, 23532, Note_on_c, 6, 62, 0
10, 23542, Note_on_c, 6, 43, 0
10, 23543, Note_on_c, 6, 59, 0
10, 23543, Note_on_c, 6, 55, 0
10, 23544, Note_on_c, 6, 67, 0
10, 23581, Note_on_c, 6, 59, 98
10, 23581, Note_on_c, 6, 67, 97
10, 23581, Note_on_c, 6, 43, 97
10, 23581, Note_on_c, 6, 62, 87
10, 23581, Note_on_c, 6, 55, 90
10, 23657, Note_on_c, 6, 62, 0
10, 23658, Note_on_c, 6, 43, 0
10, 23658, Note_on_c, 6, 59, 0
10, 23659, Note_on_c, 6, 55, 0
10, 23664, Note_on_c, 6, 67, 0
10, 23701, Note_on_c, 6, 55, 65
10, 23701, Note_on_c, 6, 43, 82
10, 23701, Note_on_c, 6, 59, 75
10, 23701, Note_on_c, 6, 67, 69
10, 23701, Note_on_c, 6, 62, 72
10, 23712, Note_on_c, 6, 62, 0
10, 23722, Note_on_c, 6, 43, 0
10, 23723, Note_on_c, 6, 55, 0
10, 23723, Note_on_c, 6, 59, 0
10, 23723, Note_on_c, 6, 67, 0
10, 23761, Note_on_c, 6, 62, 74
10, 23761, Note_on_c, 6, 43, 91
10, 23761, Note_on_c, 6, 59, 88
10, 23761, Note_on_c, 6, 67, 87
10, 23761, Note_on_c, 6, 55, 80
10, 23773, Note_on_c, 6, 62, 0
10, 23774, Note_on_c, 6, 59, 0
10, 23779, Note_on_c, 6, 43, 0
10, 23787, Note_on_c, 6, 67, 0
10, 23788, Note_on_c, 6, 55, 0
10, 23821, Note_on_c, 6, 67, 95
10, 23821, Note_on_c, 6, 62, 82
10, 23821, Note_on_c, 6, 55, 91
10, 23821, Note_on_c, 6, 59, 93
10, 23821, Note_on_c, 6, 43, 93
10, 23892, Note_on_c, 6, 62, 0
10, 23897, Note_on_c, 6, 59, 0
10, 23907, Note_on_c, 6, 67, 0
10, 23907, Note_on_c, 6, 55, 0
10, 23907, Note_on_c, 6, 43, 0
10, 23941, Note_on_c, 6, 43, 80
10, 23941, Note_on_c, 6, 59, 77
10, 23941, Note_on_c, 6, 67, 70
10, 23941, Note_on_c, 6, 62, 74
10, 23941, Note_on_c, 6, 55, 59
10, 23953, Note_on_c, 6, 62, 0
10, 23953, Note_on_c, 6, 43, 0
10, 23962, Note_on_c, 6, 59, 0
10, 23962, Note_on_c, 6, 55, 0
10, 23964, Note_on_c, 6, 67, 0
10, 24001, Note_on_c, 6, 55, 78
10, 24001, Note_on_c, 6, 48, 97
10, 24001, Note_on_c, 6, 64, 84
10, 24001, Note_on_c, 6, 60, 82
10, 24022, Note_on_c, 6, 48, 0
10, 24022, Note_on_c, 6, 55, 0
10, 24023, Note_on_c, 6, 60, 0
10, 24024, Note_on_c, 6, 64, 0
10, 24061, Note_on_c, 6, 60, 82
10, 24061, Note_on_c, 6, 64, 84
10, 24061, Note_on_c, 6, 48, 106
10, 24061, Note_on_c, 6, 55, 83
10, 24128, Note_on_c, 6, 55, 0
10, 24128, Note_on_c, 6, 48, 0
10, 24132, Note_on_c, 6, 60, 0
10, 24133, Note_on_c, 6, 64, 0
10, 24181, Note_on_c, 6, 64, 71
10, 24181, Note_on_c, 6, 60, 74
10, 24181, Note_on_c, 6, 48, 106
10, 24181, Note_on_c, 6, 55, 68
10, 24202, Note_on_c, 6, 55, 0
10, 24202, Note_on_c, 6, 64, 0
10, 24202, Note_on_c, 6, 60, 0
10, 24203, Note_on_c, 6, 48, 0
10, 24241, Note_on_c, 6, 55, 76
10, 24241, Note_on_c, 6, 64, 84
10, 24241, Note_on_c, 6, 48, 97
10, 24241, Note_on_c, 6, 60, 80
10, 24262, Note_on_c, 6, 60, 0
10, 24262, Note_on_c, 6, 55, 0
10, 24262, Note_on_c, 6, 64, 0
10, 24262, Note_on_c, 6, 48, 0
10, 24301, Note_on_c, 6, 55, 87
10, 24301, Note_on_c, 6, 60, 89
10, 24301, Note_on_c, 6, 48, 114
10, 24301, Note_on_c, 6, 64, 91
10, 24376, Note_on_c, 6, 48, 0
10, 24376, Note_on_c, 6, 55, 0
10, 24376, Note_on_c, 6, 60, 0
10, 24381, Note_on_c, 6, 64, 0
10, 24421, Note_on_c, 6, 48, 93
10, 24421, Note_on_c, 6, 64, 77
10, 24421, Note_on_c, 6, 55, 70
10, 24421, Note_on_c, 6, 60, 74
10, 24442, Note_on_c, 6, 60, 0
10, 24442, Note_on_c, 6, 48, 0
10, 24443, Note_on_c, 6, 55, 0
10, 24443, Note_on_c, 6, 64, 0
10, 24481, Note_on_c, 6, 55, 78
10, 24481, Note_on_c, 6, 48, 97
10, 24481, Note_on_c, 6, 64, 84
10, 24481, Note_on_c, 6, 60, 82
10, 24502, Note_on_c, 6, 48, 0
10, 24502, Note_on_c, 6, 55, 0
10, 24503, Note_on_c, 6, 60, 0
10, 24504, Note_on_c, 6, 64, 0
10, 24541, Note_on_c, 6, 60, 82
10, 24541, Note_on_c, 6, 64, 84
10, 24541, Note_on_c, 6, 48, 106
10, 24541, Note_on_c, 6, 55, 83
10, 24608, Note_on_c, 6, 55, 0
10, 24608, Note_on_c, 6, 48, 0
10, 24612, Note_on_c, 6, 60, 0
10, 24613, Note_on_c, 6, 64, 0
10, 24661, Note_on_c, 6, 64, 71
10, 24661, Note_on_c, 6, 60, 74
10, 24661, Note_on_c, 6, 48, 106
10, 24661, Note_on_c, 6, 55, 68
10, 24682, Note_on_c, 6, 55, 0
10, 24682, Note_on_c, 6, 64, 0
10, 24682, Note_on_c, 6, 60, 0
10, 24683, Note_on_c, 6, 48, 0
10, 24721, Note_on_c, 6, 55, 76
10, 24721, Note_on_c, 6, 64, 84
10, 24721, Note_on_c, 6, 48, 97
10, 24721, Note_on_c, 6, 60, 80
10, 24742, Note_on_c, 6, 60, 0
10, 24742, Note_on_c, 6, 55, 0
10, 24742, Note_on_c, 6, 64, 0
10, 24742, Note_on_c, 6, 48, 0
10, 24781, Note_on_c, 6, 55, 87
10, 24781, Note_on_c, 6, 60, 89
10, 24781, Note_on_c, 6, 48, 114
10, 24781, Note_on_c, 6, 64, 91
10, 24856, Note_on_c, 6, 48, 0
10, 24856, Note_on_c, 6, 55, 0
10, 24856, Note_on_c, 6, 60, 0
10, 24861, Note_on_c, 6, 64, 0
10, 24901, Note_on_c, 6, 48, 93
10, 24901, Note_on_c, 6, 64, 77
10, 24901, Note_on_c, 6, 55, 70
10, 24901, Note_on_c, 6, 60, 74
10, 24922, Note_on_c, 6, 60, 0
10, 24922, Note_on_c, 6, 48, 0
10, 24923, Note_on_c, 6, 55, 0
10, 24923, Note_on_c, 6, 64, 0
10, 24961, Note_on_c, 6, 55, 78
10, 24961, Note_on_c, 6, 48, 97
10, 24961, Note_on_c, 6, 64, 84
10, 24961, Note_on_c, 6, 60, 82
10, 24982, Note_on_c, 6, 48, 0
10, 24982, Note_on_c, 6, 55, 0
10, 24983, Note_on_c, 6, 60, 0
10, 24984, Note_on_c, 6, 64, 0
10, 25021, Note_on_c, 6, 60, 82
10, 25021, Note_on_c, 6, 64, 84
10, 25021, Note_on_c, 6, 48, 106
10, 25021, Note_on_c, 6, 55, 83
10, 25088, Note_on_c, 6, 55, 0
10, 25088, Note_on_c, 6, 48, 0
10, 25092, Note_on_c, 6, 60, 0
10, 25093, Note_on_c, 6, 64, 0
10, 25141, Note_on_c, 6, 64, 71
10, 25141, Note_on_c, 6, 60, 74
10, 25141, Note_on_c, 6, 48, 106
10, 25141, Note_on_c, 6, 55, 68
10, 25162, Note_on_c, 6, 55, 0
10, 25162, Note_on_c, 6, 64, 0
10, 25162, Note_on_c, 6, 60, 0
10, 25163, Note_on_c, 6, 48, 0
10, 25201, Note_on_c, 6, 55, 76
10, 25201, Note_on_c, 6, 64, 84
10, 25201, Note_on_c, 6, 48, 97
10, 25201, Note_on_c, 6, 60, 80
10, 25222, Note_on_c, 6, 60, 0
10, 25222, Note_on_c, 6, 55, 0
10, 25222, Note_on_c, 6, 64, 0
10, 25222, Note_on_c, 6, 48, 0
10, 25261, Note_on_c, 6, 55, 87
10, 25261, Note_on_c, 6, 60, 89
10, 25261, Note_on_c, 6, 48, 114
10, 25261, Note_on_c, 6, 64, 91
10, 25336, Note_on_c, 6, 48, 0
10, 25336, Note_on_c, 6, 55, 0
10, 25336, Note_on_c, 6, 60, 0
10, 25341, Note_on_c, 6, 64, 0
10, 25381, Note_on_c, 6, 48, 93
10, 25381, Note_on_c, 6, 64, 77
10, 25381, Note_on_c, 6, 55, 70
10, 25381, Note_on_c, 6, 60, 74
10, 25402, Note_on_c, 6, 60, 0
10, 25402, Note_on_c, 6, 48, 0
10, 25403, Note_on_c, 6, 55, 0
10, 25403, Note_on_c, 6, 64, 0
10, 25441, Note_on_c, 6, 43, 82
10, 25441, Note_on_c, 6, 59, 88
10, 25441, Note_on_c, 6, 67, 79
10, 25441, Note_on_c, 6, 55, 75
10, 25441, Note_on_c, 6, 62, 74
10, 25452, Note_on_c, 6, 62, 0
10, 25462, Note_on_c, 6, 43, 0
10, 25463, Note_on_c, 6, 59, 0
10, 25463, Note_on_c, 6, 55, 0
10, 25464, Note_on_c, 6, 67, 0
10, 25501, Note_on_c, 6, 59, 98
10, 25501, Note_on_c, 6, 67, 97
10, 25501, Note_on_c, 6, 43, 97
10, 25501, Note_on_c, 6, 62, 87
10, 25501, Note_on_c, 6, 55, 90
10, 25577, Note_on_c, 6, 62, 0
10, 25578, Note_on_c, 6, 43, 0
10, 25578, Note_on_c, 6, 59, 0
10, 25579, Note_on_c, 6, 55, 0
10, 25584, Note_on_c, 6, 67, 0
10, 25621, Note_on_c, 6, 55, 65
10, 25621, Note_on_c, 6, 43, 82
10, 25621, Note_on_c, 6, 59, 75
10, 25621, Note_on_c, 6, 67, 69
10, 25621, Note_on_c, 6, 62, 72
10, 25632, Note_on_c, 6, 62, 0
10, 25642, Note_on_c, 6, 43, 0
10, 25643, Note_on_c, 6, 55, 0
10, 25643, Note_on_c, 6, 59, 0
10, 25643, Note_on_c, 6, 67, 0
10, 25681, Note_on_c, 6, 62, 74
10, 25681, Note_on_c, 6, 43, 91
10, 25681, Note_on_c, 6, 59, 88
10, 25681, Note_on_c, 6, 67, 87
10, 25681, Note_on_c, 6, 55, 80
10, 25693, Note_on_c, 6, 62, 0
10, 25694, Note_on_c, 6, 59, 0
10, 25699, Note_on_c, 6, 43, 0
10, 25707, Note_on_c, 6, 67, 0
10, 25708, Note_on_c, 6, 55, 0
10, 25741, Note_on_c, 6, 67, 95
10, 25741, Note_on_c, 6, 62, 82
10, 25741, Note_on_c, 6, 55, 91
10, 25741, Note_on_c, 6, 59, 93
10, 25741, Note_on_c, 6, 43, 93
10, 25812, Note_on_c, 6, 62, 0
10, 25817, Note_on_c, 6, 59, 0
10, 25827, Note_on_c, 6, 67, 0
10, 25827, Note_on_c, 6, 55, 0
10, 25827, Note_on_c, 6, 43, 0
10, 25861, Note_on_c, 6, 43, 80
10, 25861, Note_on_c, 6, 59, 77
10, 25861, Note_on_c, 6, 67, 70
10, 25861, Note_on_c, 6, 62, 74
10, 25861, Note_on_c, 6, 55, 59
10, 25873, Note_on_c, 6, 62, 0
10, 25873, Note_on_c, 6, 43, 0
10, 25882, Note_on_c, 6, 59, 0
10, 25882, Note_on_c, 6, 55, 0
10, 25884, Note_on_c, 6, 67, 0
10, 25921, Note_on_c, 6, 55, 78
10, 25921, Note_on_c, 6, 48, 97
10, 25921, Note_on_c, 6, 64, 84
10, 25921, Note_on_c, 6, 60, 82
10, 25942, Note_on_c, 6, 48, 0
10, 25942, Note_on_c, 6, 55, 0
10, 25943, Note_on_c, 6, 60, 0
10, 25944, Note_on_c, 6, 64, 0
10, 25981, Note_on_c, 6, 60, 82
10, 25981, Note_on_c, 6, 64, 84
10, 25981, Note_on_c, 6, 48, 106
10, 25981, Note_on_c, 6, 55, 83
10, 26048, Note_on_c, 6, 55, 0
10, 26048, Note_on_c, 6, 48, 0
10, 26052, Note_on_c, 6, 60, 0
10, 26053, Note_on_c, 6, 64, 0
10, 26101, Note_on_c, 6, 64, 71
10, 26101, Note_on_c, 6, 60, 74
10, 26101, Note_on_c, 6, 48, 106
10, 26101, Note_on_c, 6, 55, 68
10, 26122, Note_on_c, 6, 55, 0
10, 26122, Note_on_c, 6, 64, 0
10, 26122, Note_on_c, 6, 60, 0
10, 26123, Note_on_c, 6, 48, 0
10, 26161, Note_on_c, 6, 55, 76
10, 26161, Note_on_c, 6, 64, 84
10, 26161, Note_on_c, 6, 48, 97
10, 26161, Note_on_c, 6, 60, 80
10, 26182, Note_on_c, 6, 60, 0
10, 26182, Note_on_c, 6, 55, 0
10, 26182, Note_on_c, 6, 64, 0
10, 26182, Note_on_c, 6, 48, 0
10, 26221, Note_on_c, 6, 55, 87
10, 26221, Note_on_c, 6, 60, 89
10, 26221, Note_on_c, 6, 48, 114
10, 26221, Note_on_c, 6, 64, 91
10, 26296, Note_on_c, 6, 48, 0
10, 26296, Note_on_c, 6, 55, 0
10, 26296, Note_on_c, 6, 60, 0
10, 26301, Note_on_c, 6, 64, 0
10, 26341, Note_on_c, 6, 48, 93
10, 26341, Note_on_c, 6, 64, 77
10, 26341, Note_on_c, 6, 55, 70
10, 26341, Note_on_c, 6, 60, 74
10, 26362, Note_on_c, 6, 60, 0
10, 26362, Note_on_c, 6, 48, 0
10, 26363, Note_on_c, 6, 55, 0
10, 26363, Note_on_c, 6, 64, 0
10, 26401, Note_on_c, 6, 43, 82
10, 26401, Note_on_c, 6, 59, 88
10, 26401, Note_on_c, 6, 67, 79
10, 26401, Note_on_c, 6, 55, 75
10, 26401, Note_on_c, 6, 62, 74
10, 26412, Note_on_c, 6, 62, 0
10, 26422, Note_on_c, 6, 43, 0
10, 26423, Note_on_c, 6, 59, 0
10, 26423, Note_on_c, 6, 55, 0
10, 26424, Note_on_c, 6, 67, 0
10, 26461, Note_on_c, 6, 59, 98
10, 26461, Note_on_c, 6, 67, 97
10, 26461, Note_on_c, 6, 43, 97
10, 26461, Note_on_c, 6, 62, 87
10, 26461, Note_on_c, 6, 55, 90
10, 26537, Note_on_c, 6, 62, 0
10, 26538, Note_on_c, 6, 43, 0
10, 26538, Note_on_c, 6, 59, 0
10, 26539, Note_on_c, 6, 55, 0
10, 26544, Note_on_c, 6, 67, 0
10, 26581, Note_on_c, 6, 55, 65
10, 26581, Note_on_c, 6, 43, 82
10, 26581, Note_on_c, 6, 59, 75
10, 26581, Note_on_c, 6, 67, 69
10, 26581, Note_on_c, 6, 62, 72
10, 26592, Note_on_c, 6, 62, 0
10, 26602, Note_on_c, 6, 43, 0
10, 26603, Note_on_c, 6, 55, 0
10, 26603, Note_on_c, 6, 59, 0
10, 26603, Note_on_c, 6, 67, 0
10, 26641, Note_on_c, 6, 62, 74
10, 26641, Note_on_c, 6, 43, 91
10, 26641, Note_on_c, 6, 59, 88
10, 26641, Note_on_c, 6, 67, 87
10, 26641, Note_on_c, 6, 55, 80
10, 26653, Note_on_c, 6, 62, 0
10, 26654, Note_on_c, 6, 59, 0
10, 26659, Note_on_c, 6, 43, 0
10, 26667, Note_on_c, 6, 67, 0
10, 26668, Note_on_c, 6, 55, 0
10, 26701, Note_on_c, 6, 67, 95
10, 26701, Note_on_c, 6, 62, 82
10, 26701, Note_on_c, 6, 55, 91
10, 26701, Note_on_c, 6, 59, 93
10, 26701, Note_on_c, 6, 43, 93
10, 26772, Note_on_c, 6, 62, 0
10, 26777, Note_on_c, 6, 59, 0
10, 26787, Note_on_c, 6, 67, 0
10, 26787, Note_on_c, 6, 55, 0
10, 26787, Note_on_c, 6, 43, 0
10, 26821, Note_on_c, 6, 43, 80
10, 26821, Note_on_c, 6, 59, 77
10, 26821, Note_on_c, 6, 67, 70
10, 26821, Note_on_c, 6, 62, 74
10, 26821, Note_on_c, 6, 55, 59
10, 26833, Note_on_c, 6, 62, 0
10, 26833, Note_on_c, 6, 43, 0
10, 26842, Note_on_c, 6, 59, 0
10, 26842, Note_on_c, 6, 55, 0
10, 26844, Note_on_c, 6, 67, 0
10, 26881, Note_on_c, 6, 55, 78
10, 26881, Note_on_c, 6, 48, 97
10, 26881, Note_on_c, 6, 64, 84
10, 26881, Note_on_c, 6, 60, 82
10, 26902, Note_on_c, 6, 48, 0
10, 26902, Note_on_c, 6, 55, 0
10, 26903, Note_on_c, 6, 60, 0
10, 26904, Note_on_c, 6, 64, 0
10, 26941, Note_on_c, 6, 60, 82
10, 26941, Note_on_c, 6, 64, 84
10, 26941, Note_on_c, 6, 48, 106
10, 26941, Note_on_c, 6, 55, 83
10, 27008, Note_on_c, 6, 55, 0
10, 27008, Note_on_c, 6, 48, 0
10, 27012, Note_on_c, 6, 60, 0
10, 27013, Note_on_c, 6, 64, 0
10, 27061, Note_on_c, 6, 64, 71
10, 27061, Note_on_c, 6, 60, 74
10, 27061, Note_on_c, 6, 48, 106
10, 27061, Note_on_c, 6, 55, 68
10, 27082, Note_on_c, 6, 55, 0
10, 27082, Note_on_c, 6, 64, 0
10, 27082, Note_on_c, 6, 60, 0
10, 27083, Note_on_c, 6, 48, 0
10, 27121, Note_on_c, 6, 55, 76
10, 27121, Note_on_c, 6, 64, 84
10, 27121, Note_on_c, 6, 48, 97
10, 27121, Note_on_c, 6, 60, 80
10, 27142, Note_on_c, 6, 60, 0
10, 27142, Note_on_c, 6, 55, 0
10, 27142, Note_on_c, 6, 64, 0
10, 27142, Note_on_c, 6, 48, 0
10, 27181, Note_on_c, 6, 55, 87
10, 27181, Note_on_c, 6, 60, 89
10, 27181, Note_on_c, 6, 48, 114
10, 27181, Note_on_c, 6, 64, 91
10, 27256, Note_on_c, 6, 48, 0
10, 27256, Note_on_c, 6, 55, 0
10, 27256, Note_on_c, 6, 60, 0
10, 27261, Note_on_c, 6, 64, 0
10, 27301, Note_on_c, 6, 48, 93
10, 27301, Note_on_c, 6, 64, 77
10, 27301, Note_on_c, 6, 55, 70
10, 27301, Note_on_c, 6, 60, 74
10, 27322, Note_on_c, 6, 60, 0
10, 27322, Note_on_c, 6, 48, 0
10, 27323, Note_on_c, 6, 55, 0
10, 27323, Note_on_c, 6, 64, 0
10, 27361, Note_on_c, 6, 43, 82
10, 27361, Note_on_c, 6, 59, 88
10, 27361, Note_on_c, 6, 67, 79
10, 27361, Note_on_c, 6, 55, 75
10, 27361, Note_on_c, 6, 62, 74
10, 27372, Note_on_c, 6, 62, 0
10, 27382, Note_on_c, 6, 43, 0
10, 27383, Note_on_c, 6, 59, 0
10, 27383, Note_on_c, 6, 55, 0
10, 27384, Note_on_c, 6, 67, 0
10, 27421, Note_on_c, 6, 59, 98
10, 27421, Note_on_c, 6, 67, 97
10, 27421, Note_on_c, 6, 43, 97
10, 27421, Note_on_c, 6, 62, 87
10, 27421, Note_on_c, 6, 55, 90
10, 27497, Note_on_c, 6, 62, 0
10, 27498, Note_on_c, 6, 43, 0
10, 27498, Note_on_c, 6, 59, 0
10, 27499, Note_on_c, 6, 55, 0
10, 27504, Note_on_c, 6, 67, 0
10, 27541, Note_on_c, 6, 55, 65
10, 27541, Note_on_c, 6, 43, 82
10, 27541, Note_on_c, 6, 59, 75
10, 27541, Note_on_c, 6, 67, 69
10, 27541, Note_on_c, 6, 62, 72
10, 27552, Note_on_c, 6, 62, 0
10, 27562, Note_on_c, 6, 43, 0
10, 27563, Note_on_c, 6, 55, 0
10, 27563, Note_on_c, 6, 59, 0
10, 27563, Note_on_c, 6, 67, 0
10, 27601, Note_on_c, 6, 62, 74
10, 27601, Note_on_c, 6, 43, 91
10, 27601, Note_on_c, 6, 59, 88
10, 27601, Note_on_c, 6, 67, 87
10, 27601, Note_on_c, 6, 55, 80
10, 27613, Note_on_c, 6, 62, 0
10, 27614, Note_on_c, 6, 59, 0
10, 27619, Note_on_c, 6, 43, 0
10, 27627, Note_on_c, 6, 67, 0
10, 27628, Note_on_c, 6, 55, 0
10, 27661, Note_on_c, 6, 67, 95
10, 27661, Note_on_c, 6, 62, 82
10, 27661, Note_on_c, 6, 55, 91
10, 27661, Note_on_c, 6, 59, 93
10, 27661, Note_on_c, 6, 43, 93
10, 27732, Note_on_c, 6, 62, 0
10, 27737, Note_on_c, 6, 59, 0
10, 27747, Note_on_c, 6, 67, 0
10, 27747, Note_on_c, 6, 55, 0
10, 27747, Note_on_c, 6, 43, 0
10, 27781, Note_on_c, 6, 43, 80
10, 27781, Note_on_c, 6, 59, 77
10, 27781, Note_on_c, 6, 67, 70
10, 27781, Note_on_c, 6, 62, 74
10, 27781, Note_on_c, 6, 55, 59
10, 27793, Note_on_c, 6, 62, 0
10, 27793, Note_on_c, 6, 43, 0
10, 27802, Note_on_c, 6, 59, 0
10, 27802, Note_on_c, 6, 55, 0
10, 27804, Note_on_c, 6, 67, 0
10, 27841, Note_on_c, 6, 55, 78
10, 27841, Note_on_c, 6, 48, 97
10, 27841, Note_on_c, 6, 64, 84
10, 27841, Note_on_c, 6, 60, 82
10, 27862, Note_on_c, 6, 48, 0
10, 27862, Note_on_c, 6, 55, 0
10, 27863, Note_on_c, 6, 60, 0
10, 27864, Note_on_c, 6, 64, 0
10, 27901, Note_on_c, 6, 60, 82
10, 27901, Note_on_c, 6, 64, 84
10, 27901, Note_on_c, 6, 48, 106
10, 27901, Note_on_c, 6, 55, 83
10, 27968, Note_on_c, 6, 55, 0
10, 27968, Note_on_c, 6, 48, 0
10, 27972, Note_on_c, 6, 60, 0
10, 27973, Note_on_c, 6, 64, 0
10, 28021, Note_on_c, 6, 64, 71
10, 28021, Note_on_c, 6, 60, 74
10, 28021, Note_on_c, 6, 48, 106
10, 28021, Note_on_c, 6, 55, 68
10, 28042, Note_on_c, 6, 55, 0
10, 28042, Note_on_c, 6, 64, 0
10, 28042, Note_on_c, 6, 60, 0
10, 28043, Note_on_c, 6, 48, 0
10, 28081, Note_on_c, 6, 55, 76
10, 28081, Note_on_c, 6, 64, 84
10, 28081, Note_on_c, 6, 48, 97
10, 28081, Note_on_c, 6, 60, 80
10, 28102, Note_on_c, 6, 60, 0
10, 28102, Note_on_c, 6, 55, 0
10, 28102, Note_on_c, 6, 64, 0
10, 28102, Note_on_c, 6, 48, 0
10, 28141, Note_on_c, 6, 55, 87
10, 28141, Note_on_c, 6, 60, 89
10, 28141, Note_on_c, 6, 48, 114
10, 28141, Note_on_c, 6, 64, 91
10, 28216, Note_on_c, 6, 48, 0
10, 28216, Note_on_c, 6, 55, 0
10, 28216, Note_on_c, 6, 60, 0
10, 28221, Note_on_c, 6, 64, 0
10, 28261, Note_on_c, 6, 48, 93
10, 28261, Note_on_c, 6, 64, 77
10, 28261, Note_on_c, 6, 55, 70
10, 28261, Note_on_c, 6, 60, 74
10, 28282, Note_on_c, 6, 60, 0
10, 28282, Note_on_c, 6, 48, 0
10, 28283, Note_on_c, 6, 55, 0
10, 28283, Note_on_c, 6, 64, 0
10, 28321, Note_on_c, 6, 55, 78
10, 28321, Note_on_c, 6, 48, 97
10, 28321, Note_on_c, 6, 64, 84
10, 28321, Note_on_c, 6, 60, 82
10, 28342, Note_on_c, 6, 48, 0
10, 28342, Note_on_c, 6, 55, 0
10, 28343, Note_on_c, 6, 60, 0
10, 28344, Note_on_c, 6, 64, 0
10, 28381, Note_on_c, 6, 60, 82
10, 28381, Note_on_c, 6, 64, 84
10, 28381, Note_on_c, 6, 48, 106
10, 28381, Note_on_c, 6, 55, 83
10, 28448, Note_on_c, 6, 55, 0
10, 28448, Note_on_c, 6, 48, 0
10, 28452, Note_on_c, 6, 60, 0
10, 28453, Note_on_c, 6, 64, 0
10, 28501, Note_on_c, 6, 64, 71
10, 28501, Note_on_c, 6, 60, 74
10, 28501, Note_on_c, 6, 48, 106
10, 28501, Note_on_c, 6, 55, 68
10, 28522, Note_on_c, 6, 55, 0
10, 28522, Note_on_c, 6, 64, 0
10, 28522, Note_on_c, 6, 60, 0
10, 28523, Note_on_c, 6, 48, 0
10, 28561, Note_on_c, 6, 55, 76
10, 28561, Note_on_c, 6, 64, 84
10, 28561, Note_on_c, 6, 48, 97
10, 28561, Note_on_c, 6, 60, 80
10, 28582, Note_on_c, 6, 60, 0
10, 28582, Note_on_c, 6, 55, 0
10, 28582, Note_on_c, 6, 64, 0
10, 28582, Note_on_c, 6, 48, 0
10, 28621, Note_on_c, 6, 55, 87
10, 28621, Note_on_c, 6, 60, 89
10, 28621, Note_on_c, 6, 48, 114
10, 28621, Note_on_c, 6, 64, 91
10, 28696, Note_on_c, 6, 48, 0
10, 28696, Note_on_c, 6, 55, 0
10, 28696, Note_on_c, 6, 60, 0
10, 28701, Note_on_c, 6, 64, 0
10, 28741, Note_on_c, 6, 48, 93
10, 28741, Note_on_c, 6, 64, 77
10, 28741, Note_on_c, 6, 55, 70
10, 28741, Note_on_c, 6, 60, 74
10, 28762, Note_on_c, 6, 60, 0
10, 28762, Note_on_c, 6, 48, 0
10, 28763, Note_on_c, 6, 55, 0
10, 28763, Note_on_c, 6, 64, 0
10, 28801, Note_on_c, 6, 55, 78
10, 28801, Note_on_c, 6, 48, 97
10, 28801, Note_on_c, 6, 64, 84
10, 28801, Note_on_c, 6, 60, 82
10, 28822, Note_on_c, 6, 48, 0
10, 28822, Note_on_c, 6, 55, 0
10, 28823, Note_on_c, 6, 60, 0
10, 28824, Note_on_c, 6, 64, 0
10, 28861, Note_on_c, 6, 60, 82
10, 28861, Note_on_c, 6, 64, 84
10, 28861, Note_on_c, 6, 48, 106
10, 28861, Note_on_c, 6, 55, 83
10, 28928, Note_on_c, 6, 55, 0
10, 28928, Note_on_c, 6, 48, 0
10, 28932, Note_on_c, 6, 60, 0
10, 28933, Note_on_c, 6, 64, 0
10, 28981, Note_on_c, 6, 64, 71
10, 28981, Note_on_c, 6, 60, 74
10, 28981, Note_on_c, 6, 48, 106
10, 28981, Note_on_c, 6, 55, 68
10, 29002, Note_on_c, 6, 55, 0
10, 29002, Note_on_c, 6, 64, 0
10, 29002, Note_on_c, 6, 60, 0
10, 29003, Note_on_c, 6, 48, 0
10, 29041, Note_on_c, 6, 55, 76
10, 29041, Note_on_c, 6, 64, 84
10, 29041, Note_on_c, 6, 48, 97
10, 29041, Note_on_c, 6, 60, 80
10, 29062, Note_on_c, 6, 60, 0
10, 29062, Note_on_c, 6, 55, 0
10, 29062, Note_on_c, 6, 64, 0
10, 29062, Note_on_c, 6, 48, 0
10, 29101, Note_on_c, 6, 55, 87
10, 29101, Note_on_c, 6, 60, 89
10, 29101, Note_on_c, 6, 48, 114
10, 29101, Note_on_c, 6, 64, 91
10, 29176, Note_on_c, 6, 48, 0
10, 29176, Note_on_c, 6, 55, 0
10, 29176, Note_on_c, 6, 60, 0
10, 29181, Note_on_c, 6, 64, 0
10, 29221, Note_on_c, 6, 48, 93
10, 29221, Note_on_c, 6, 64, 77
10, 29221, Note_on_c, 6, 55, 70
10, 29221, Note_on_c, 6, 60, 74
10, 29242, Note_on_c, 6, 60, 0
10, 29242, Note_on_c, 6, 48, 0
10, 29243, Note_on_c, 6, 55, 0
10, 29243, Note_on_c, 6, 64, 0
10, 29281, Note_on_c, 6, 43, 82
10, 29281, Note_on_c, 6, 59, 88
10, 29281, Note_on_c, 6, 67, 79
10, 29281, Note_on_c, 6, 55, 75
10, 29281, Note_on_c, 6, 62, 74
10, 29292, Note_on_c, 6, 62, 0
10, 29302, Note_on_c, 6, 43, 0
10, 29303, Note_on_c, 6, 59, 0
10, 29303, Note_on_c, 6, 55, 0
10, 29304, Note_on_c, 6, 67, 0
10, 29341, Note_on_c, 6, 59, 98
10, 29341, Note_on_c, 6, 67, 97
10, 29341, Note_on_c, 6, 43, 97
10, 29341, Note_on_c, 6, 62, 87
10, 29341, Note_on_c, 6, 55, 90
10, 29417, Note_on_c, 6, 62, 0
10, 29418, Note_on_c, 6, 43, 0
10, 29418, Note_on_c, 6, 59, 0
10, 29419, Note_on_c, 6, 55, 0
10, 29424, Note_on_c, 6, 67, 0
10, 29461, Note_on_c, 6, 55, 65
10, 29461, Note_on_c, 6, 43, 82
10, 29461, Note_on_c, 6, 59, 75
10, 29461, Note_on_c, 6, 67, 69
10, 29461, Note_on_c, 6, 62, 72
10, 29472, Note_on_c, 6, 62, 0
10, 29482, Note_on_c, 6, 43, 0
10, 29483, Note_on_c, 6, 55, 0
10, 29483, Note_on_c, 6, 59, 0
10, 29483, Note_on_c, 6, 67, 0
10, 29521, Note_on_c, 6, 62, 74
10, 29521, Note_on_c, 6, 43, 91
10, 29521, Note_on_c, 6, 59, 88
10, 29521, Note_on_c, 6, 67, 87
10, 29521, Note_on_c, 6, 55, 80
10, 29533, Note_on_c, 6, 62, 0
10, 29534, Note_on_c, 6, 59, 0
10, 29539, Note_on_c, 6, 43, 0
10, 29547, Note_on_c, 6, 67, 0
10, 29548, Note_on_c, 6, 55, 0
10, 29581, Note_on_c, 6, 67, 95
10, 29581, Note_on_c, 6, 62, 82
10, 29581, Note_on_c, 6, 55, 91
10, 29581, Note_on_c, 6, 59, 93
10, 29581, Note_on_c, 6, 43, 93
10, 29652, Note_on_c, 6, 62, 0
10, 29657, Note_on_c, 6, 59, 0
10, 29667, Note_on_c, 6, 67, 0
10, 29667, Note_on_c, 6, 55, 0
10, 29667, Note_on_c, 6, 43, 0
10, 29701, Note_on_c, 6, 43, 80
10, 29701, Note_on_c, 6, 59, 77
10, 29701, Note_on_c, 6, 67, 70
10, 29701, Note_on_c, 6, 62, 74
10, 29701, Note_on_c, 6, 55, 59
10, 29713, Note_on_c, 6, 62, 0
10, 29713, Note_on_c, 6, 43, 0
10, 29722, Note_on_c, 6, 59, 0
10, 29722, Note_on_c, 6, 55, 0
10, 29724, Note_on_c, 6, 67, 0
10, 29761, Note_on_c, 6, 55, 78
10, 29761, Note_on_c, 6, 48, 97
10, 29761, Note_on_c, 6, 64, 84
10, 29761, Note_on_c, 6, 60, 82
10, 29782, Note_on_c, 6, 48, 0
10, 29782, Note_on_c, 6, 55, 0
10, 29783, Note_on_c, 6, 60, 0
10, 29784, Note_on_c, 6, 64, 0
10, 29821, Note_on_c, 6, 60, 82
10, 29821, Note_on_c, 6, 64, 84
10, 29821, Note_on_c, 6, 48, 106
10, 29821, Note_on_c, 6, 55, 83
10, 29888, Note_on_c, 6, 55, 0
10, 29888, Note_on_c, 6, 48, 0
10, 29892, Note_on_c, 6, 60, 0
10, 29893, Note_on_c, 6, 64, 0
10, 29941, Note_on_c, 6, 64, 71
10, 29941, Note_on_c, 6, 60, 74
10, 29941, Note_on_c, 6, 48, 106
10, 29941, Note_on_c, 6, 55, 68
10, 29962, Note_on_c, 6, 55, 0
10, 29962, Note_on_c, 6, 64, 0
10, 29962, Note_on_c, 6, 60, 0
10, 29963, Note_on_c, 6, 48, 0
10, 30001, Note_on_c, 6, 55, 76
10, 30001, Note_on_c, 6, 64, 84
10, 30001, Note_on_c, 6, 48, 97
10, 30001, Note_on_c, 6, 60, 80
10, 30022, Note_on_c, 6, 60, 0
10, 30022, Note_on_c, 6, 55, 0
10, 30022, Note_on_c, 6, 64, 0
10, 30022, Note_on_c, 6, 48, 0
10, 30061, Note_on_c, 6, 55, 87
10, 30061, Note_on_c, 6, 60, 89
10, 30061, Note_on_c, 6, 48, 114
10, 30061, Note_on_c, 6, 64, 91
10, 30136, Note_on_c, 6, 48, 0
10, 30136, Note_on_c, 6, 55, 0
10, 30136, Note_on_c, 6, 60, 0
10, 30141, Note_on_c, 6, 64, 0
10, 30181, Note_on_c, 6, 48, 93
10, 30181, Note_on_c, 6, 64, 77
10, 30181, Note_on_c, 6, 55, 70
10, 30181, Note_on_c, 6, 60, 74
10, 30202, Note_on_c, 6, 60, 0
10, 30202, Note_on_c, 6, 48, 0
10, 30203, Note_on_c, 6, 55, 0
10, 30203, Note_on_c, 6, 64, 0
10, 30241, Note_on_c, 6, 43, 82
10, 30241, Note_on_c, 6, 59, 88
10, 30241, Note_on_c, 6, 67, 79
10, 30241, Note_on_c, 6, 55, 75
10, 30241, Note_on_c, 6, 62, 74
10, 30252, Note_on_c, 6, 62, 0
10, 30262, Note_on_c, 6, 43, 0
10, 30263, Note_on_c, 6, 59, 0
10, 30263, Note_on_c, 6, 55, 0
10, 30264, Note_on_c, 6, 67, 0
10, 30301, Note_on_c, 6, 59, 98
10, 30301, Note_on_c, 6, 67, 97
10, 30301, Note_on_c, 6, 43, 97
10, 30301, Note_on_c, 6, 62, 87
10, 30301, Note_on_c, 6, 55, 90
10, 30377, Note_on_c, 6, 62, 0
10, 30378, Note_on_c, 6, 43, 0
10, 30378, Note_on_c, 6, 59, 0
10, 30379, Note_on_c, 6, 55, 0
10, 30384, Note_on_c, 6, 67, 0
10, 30421, Note_on_c, 6, 55, 65
10, 30421, Note_on_c, 6, 43, 82
10, 30421, Note_on_c, 6, 59, 75
10, 30421, Note_on_c, 6, 67, 69
10, 30421, Note_on_c, 6, 62, 72
10, 30432, Note_on_c, 6, 62, 0
10, 30442, Note_on_c, 6, 43, 0
10, 30443, Note_on_c, 6, 55, 0
10, 30443, Note_on_c, 6, 59, 0
10, 30443, Note_on_c, 6, 67, 0
10, 30481, Note_on_c, 6, 62, 74
10, 30481, Note_on_c, 6, 43, 91
10, 30481, Note_on_c, 6, 59, 88
10, 30481, Note_on_c, 6, 67, 87
10, 30481, Note_on_c, 6, 55, 80
10, 30493, Note_on_c, 6, 62, 0
10, 30494, Note_on_c, 6, 59, 0
10, 30499, Note_on_c, 6, 43, 0
10, 30507, Note_on_c, 6, 67, 0
10, 30508, Note_on_c, 6, 55, 0
10, 30541, Note_on_c, 6, 67, 95
10, 30541, Note_on_c, 6, 62, 82
10, 30541, Note_on_c, 6, 55, 91
10, 30541, Note_on_c, 6, 59, 93
10, 30541, Note_on_c, 6, 43, 93
10, 30612, Note_on_c, 6, 62, 0
10, 30617, Note_on_c, 6, 59, 0
10, 30627, Note_on_c, 6, 67, 0
10, 30627, Note_on_c, 6, 55, 0
10, 30627, Note_on_c, 6, 43, 0
10, 30661, Note_on_c, 6, 43, 80
10, 30661, Note_on_c, 6, 59, 77
10, 30661, Note_on_c, 6, 67, 70
10, 30661, Note_on_c, 6, 62, 74
10, 30661, Note_on_c, 6, 55, 59
10, 30673, Note_on_c, 6, 62, 0
10, 30673, Note_on_c, 6, 43, 0
10, 30682, Note_on_c, 6, 59, 0
10, 30682, Note_on_c, 6, 55, 0
10, 30684, Note_on_c, 6, 67, 0
10, 30721, Note_on_c, 6, 55, 78
10, 30721, Note_on_c, 6, 48, 97
10, 30721, Note_on_c, 6, 64, 84
10, 30721, Note_on_c, 6, 60, 82
10, 30742, Note_on_c, 6, 48, 0
10, 30742, Note_on_c, 6, 55, 0
10, 30743, Note_on_c, 6, 60, 0
10, 30744, Note_on_c, 6, 64, 0
10, 30781, Note_on_c, 6, 60, 82
10, 30781, Note_on_c, 6, 64, 84
10, 30781, Note_on_c, 6, 48, 106
10, 30781, Note_on_c, 6, 55, 83
10, 30848, Note_on_c, 6, 55, 0
10, 30848, Note_on_c, 6, 48, 0
10, 30852, Note_on_c, 6, 60, 0
10, 30853, Note_on_c, 6, 64, 0
10, 30901, Note_on_c, 6, 64, 71
10, 30901, Note_on_c, 6, 60, 74
10, 30901, Note_on_c, 6, 48, 106
10, 30901, Note_on_c, 6, 55, 68
10, 30922, Note_on_c, 6, 55, 0
10, 30922, Note_on_c, 6, 64, 0
10, 30922, Note_on_c, 6, 60, 0
10, 30923, Note_on_c, 6, 48, 0
10, 30961, Note_on_c, 6, 55, 76
10, 30961, Note_on_c, 6, 64, 84
10, 30961, Note_on_c, 6, 48, 97
10, 30961, Note_on_c, 6, 60, 80
10, 30982, Note_on_c, 6, 60, 0
10, 30982, Note_on_c, 6, 55, 0
10, 30982, Note_on_c, 6, 64, 0
10, 30982, Note_on_c, 6, 48, 0
10, 31021, Note_on_c, 6, 55, 87
10, 31021, Note_on_c, 6, 60, 89
10, 31021, Note_on_c, 6, 48, 114
10, 31021, Note_on_c, 6, 64, 91
10, 31096, Note_on_c, 6, 48, 0
10, 31096, Note_on_c, 6, 55, 0
10, 31096, Note_on_c, 6, 60, 0
10, 31101, Note_on_c, 6, 64, 0
10, 31141, Note_on_c, 6, 48, 93
10, 31141, Note_on_c, 6, 64, 77
10, 31141, Note_on_c, 6, 55, 70
10, 31141, Note_on_c, 6, 60, 74
10, 31162, Note_on_c, 6, 60, 0
10, 31162, Note_on_c, 6, 48, 0
10, 31163, Note_on_c, 6, 55, 0
10, 31163, Note_on_c, 6, 64, 0
10, 31201, Note_on_c, 6, 43, 82
10, 31201, Note_on_c, 6, 59, 88
10, 31201, Note_on_c, 6, 67, 79
10, 31201, Note_on_c, 6, 55, 75
10, 31201, Note_on_c, 6, 62, 74
10, 31212, Note_on_c, 6, 62, 0
10, 31222, Note_on_c, 6, 43, 0
10, 31223, Note_on_c, 6, 59, 0
10, 31223, Note_on_c, 6, 55, 0
10, 31224, Note_on_c, 6, 67, 0
10, 31261, Note_on_c, 6, 59, 98
10, 31261, Note_on_c, 6, 67, 97
10, 31261, Note_on_c, 6, 43, 97
10, 31261, Note_on_c, 6, 62, 87
10, 31261, Note_on_c, 6, 55, 90
10, 31337, Note_on_c, 6, 62, 0
10, 31338, Note_on_c, 6, 43, 0
10, 31338, Note_on_c, 6, 59, 0
10, 31339, Note_on_c, 6, 55, 0
10, 31344, Note_on_c, 6, 67, 0
10, 31381, Note_on_c, 6, 55, 65
10, 31381, Note_on_c, 6, 43, 82
10, 31381, Note_on_c, 6, 59, 75
10, 31381, Note_on_c, 6, 67, 69
10, 31381, Note_on_c, 6, 62, 72
10, 31392, Note_on_c, 6, 62, 0
10, 31402, Note_on_c, 6, 43, 0
10, 31403, Note_on_c, 6, 55, 0
10, 31403, Note_on_c, 6, 59, 0
10, 31403, Note_on_c, 6, 67, 0
10, 31441, Note_on_c, 6, 62, 74
10, 31441, Note_on_c, 6, 43, 91
10, 31441, Note_on_c, 6, 59, 88
10, 31441, Note_on_c, 6, 67, 87
10, 31441, Note_on_c, 6, 55, 80
10, 31453, Note_on_c, 6, 62, 0
10, 31454, Note_on_c, 6, 59, 0
10, 31459, Note_on_c, 6, 43, 0
10, 31467, Note_on_c, 6, 67, 0
10, 31468, Note_on_c, 6, 55, 0
10, 31501, Note_on_c, 6, 67, 95
10, 31501, Note_on_c, 6, 62, 82
10, 31501, Note_on_c, 6, 55, 91
10, 31501, Note_on_c, 6, 59, 93
10, 31501, Note_on_c, 6, 43, 93
10, 31572, Note_on_c, 6, 62, 0
10, 31577, Note_on_c, 6, 59, 0
10, 31587, Note_on_c, 6, 67, 0
10, 31587, Note_on_c, 6, 55, 0
10, 31587, Note_on_c, 6, 43, 0
10, 31621, Note_on_c, 6, 43, 80
10, 31621, Note_on_c, 6, 59, 77
10, 31621, Note_on_c, 6, 67, 70
10, 31621, Note_on_c, 6, 62, 74
10, 31621, Note_on_c, 6, 55, 59
10, 31633, Note_on_c, 6, 62, 0
10, 31633, Note_on_c, 6, 43, 0
10, 31642, Note_on_c, 6, 59, 0
10, 31642, Note_on_c, 6, 55, 0
10, 31644, Note_on_c, 6, 67, 0
10, 31681, Note_on_c, 6, 55, 78
10, 31681, Note_on_c, 6, 48, 97
10, 31681, Note_on_c, 6, 64, 84
10, 31681, Note_on_c, 6, 60, 82
10, 31702, Note_on_c, 6, 48, 0
10, 31702, Note_on_c, 6, 55, 0
10, 31703, Note_on_c, 6, 60, 0
10, 31704, Note_on_c, 6, 64, 0
10, 31741, Note_on_c, 6, 60, 82
10, 31741, Note_on_c, 6, 64, 84
10, 31741, Note_on_c, 6, 48, 106
10, 31741, Note_on_c, 6, 55, 83
10, 31808, Note_on_c, 6, 55, 0
10, 31808, Note_on_c, 6, 48, 0
10, 31812, Note_on_c, 6, 60, 0
10, 31813, Note_on_c, 6, 64, 0
10, 31861, Note_on_c, 6, 64, 71
10, 31861, Note_on_c, 6, 60, 74
10, 31861, Note_on_c, 6, 48, 106
10, 31861, Note_on_c, 6, 55, 68
10, 31882, Note_on_c, 6, 55, 0
10, 31882, Note_on_c, 6, 64, 0
10, 31882, Note_on_c, 6, 60, 0
10, 31883, Note_on_c, 6, 48, 0
10, 31921, Note_on_c, 6, 55, 76
10, 31921, Note_on_c, 6, 64, 84
10, 31921, Note_on_c, 6, 48, 97
10, 31921, Note_on_c, 6, 60, 80
10, 31942, Note_on_c, 6, 60, 0
10, 31942, Note_on_c, 6, 55, 0
10, 31942, Note_on_c, 6, 64, 0
10, 31942, Note_on_c, 6, 48, 0
10, 31981, Note_on_c, 6, 55, 87
10, 31981, Note_on_c, 6, 60, 89
10, 31981, Note_on_c, 6, 48, 114
10, 31981, Note_on_c, 6, 64, 91
10, 32056, Note_on_c, 6, 48, 0
10, 32056, Note_on_c, 6, 55, 0
10, 32056, Note_on_c, 6, 60, 0
10, 32061, Note_on_c, 6, 64, 0
10, 32101, Note_on_c, 6, 48, 93
10, 32101, Note_on_c, 6, 64, 77
10, 32101, Note_on_c, 6, 55, 70
10, 32101, Note_on_c, 6, 60, 74
10, 32122, Note_on_c, 6, 60, 0
10, 32122, Note_on_c, 6, 48, 0
10, 32123, Note_on_c, 6, 55, 0
10, 32123, Note_on_c, 6, 64, 0
10, 32161, Note_on_c, 6, 60, 79
10, 32161, Note_on_c, 6, 48, 91
10, 32161, Note_on_c, 6, 55, 74
10, 32161, Note_on_c, 6, 64, 77
10, 32172, Note_on_c, 6, 60, 0
10, 32179, Note_on_c, 6, 48, 0
10, 32179, Note_on_c, 6, 55, 0
10, 32188, Note_on_c, 6, 64, 0
10, 32221, Note_on_c, 6, 60, 81
10, 32221, Note_on_c, 6, 48, 110
10, 32221, Note_on_c, 6, 64, 82
10, 32221, Note_on_c, 6, 55, 81
10, 32298, Note_on_c, 6, 55, 0
10, 32298, Note_on_c, 6, 48, 0
10, 32303, Note_on_c, 6, 64, 0
10, 32303, Note_on_c, 6, 60, 0
10, 32341, Note_on_c, 6, 48, 95
10, 32341, Note_on_c, 6, 60, 78
10, 32341, Note_on_c, 6, 55, 73
10, 32341, Note_on_c, 6, 64, 75
10, 32351, Note_on_c, 6, 48, 0
10, 32361, Note_on_c, 6, 60, 0
10, 32361, Note_on_c, 6, 55, 0
10, 32361, Note_on_c, 6, 64, 0
10, 32401, Note_on_c, 6, 64, 71
10, 32401, Note_on_c, 6, 60, 74
10, 32401, Note_on_c, 6, 48, 90
10, 32401, Note_on_c, 6, 55, 67
10, 32412, Note_on_c, 6, 48, 0
10, 32423, Note_on_c, 6, 55, 0
10, 32423, Note_on_c, 6, 60, 0
10, 32424, Note_on_c, 6, 64, 0
10, 32461, Note_on_c, 6, 64, 83
10, 32461, Note_on_c, 6, 55, 79
10, 32461, Note_on_c, 6, 60, 80
10, 32461, Note_on_c, 6, 48, 110
10, 32531, Note_on_c, 6, 48, 0
10, 32531, Note_on_c, 6, 60, 0
10, 32536, Note_on_c, 6, 55, 0
10, 32536, Note_on_c, 6, 64, 0
10, 32581, Note_on_c, 6, 55, 66
10, 32581, Note_on_c, 6, 64, 67
10, 32581, Note_on_c, 6, 48, 91
10, 32581, Note_on_c, 6, 60, 74
10, 32592, Note_on_c, 6, 48, 0
10, 32593, Note_on_c, 6, 60, 0
10, 32597, Note_on_c, 6, 55, 0
10, 32602, Note_on_c, 6, 64, 0
10, 32641, Note_on_c, 6, 48, 92
10, 32641, Note_on_c, 6, 60, 78
10, 32641, Note_on_c, 6, 64, 80
10, 32641, Note_on_c, 6, 55, 74
10, 32661, Note_on_c, 6, 55, 0
10, 32662, Note_on_c, 6, 48, 0
10, 32662, Note_on_c, 6, 60, 0
10, 32663, Note_on_c, 6, 64, 0
10, 32701, Note_on_c, 6, 55, 87
10, 32701, Note_on_c, 6, 60, 87
10, 32701, Note_on_c, 6, 48, 99
10, 32701, Note_on_c, 6, 64, 89
10, 32777, Note_on_c, 6, 60, 0
10, 32777, Note_on_c, 6, 55, 0
10, 32778, Note_on_c, 6, 48, 0
10, 32783, Note_on_c, 6, 64, 0
10, 32821, Note_on_c, 6, 60, 71
10, 32821, Note_on_c, 6, 48, 89
10, 32821, Note_on_c, 6, 64, 71
10, 32821, Note_on_c, 6, 55, 68
10, 32832, Note_on_c, 6, 60, 0
10, 32837, Note_on_c, 6, 55, 0
10, 32842, Note_on_c, 6, 64, 0
10, 32842, Note_on_c, 6, 48, 0
10, 32881, Note_on_c, 6, 55, 64
10, 32881, Note_on_c, 6, 60, 72
10, 32881, Note_on_c, 6, 48, 90
10, 32881, Note_on_c, 6, 64, 74
10, 32901, Note_on_c, 6, 55, 0
10, 32902, Note_on_c, 6, 60, 0
10, 32902, Note_on_c, 6, 48, 0
10, 32903, Note_on_c, 6, 64, 0
10, 32941, Note_on_c, 6, 64, 87
10, 32941, Note_on_c, 6, 48, 102
10, 32941, Note_on_c, 6, 60, 82
10, 32941, Note_on_c, 6, 55, 81
10, 33018, Note_on_c, 6, 55, 0
10, 33018, Note_on_c, 6, 48, 0
10, 33021, Note_on_c, 6, 60, 0
10, 33022, Note_on_c, 6, 64, 0
10, 33061, Note_on_c, 6, 55, 69
10, 33061, Note_on_c, 6, 48, 92
10, 33061, Note_on_c, 6, 64, 78
10, 33061, Note_on_c, 6, 60, 73
10, 33082, Note_on_c, 6, 60, 0
10, 33082, Note_on_c, 6, 48, 0
10, 33083, Note_on_c, 6, 64, 0
10, 33083, Note_on_c, 6, 55, 0
10, 33121, Note_on_c, 6, 48, 97
10, 33121, Note_on_c, 6, 55, 77
10, 33121, Note_on_c, 6, 64, 84
10, 33121, Note_on_c, 6, 60, 77
10, 33143, Note_on_c, 6, 60, 0
10, 33143, Note_on_c, 6, 48, 0
10, 33143, Note_on_c, 6, 55, 0
10, 33143, Note_on_c, 6, 64, 0
10, 33181, Note_on_c, 6, 55, 79
10, 33181, Note_on_c, 6, 48, 97
10, 33181, Note_on_c, 6, 60, 85
10, 33181, Note_on_c, 6, 64, 87
10, 33257, Note_on_c, 6, 55, 0
10, 33258, Note_on_c, 6, 64, 0
10, 33258, Note_on_c, 6, 60, 0
10, 33259, Note_on_c, 6, 48, 0
10, 33301, Note_on_c, 6, 55, 76
10, 33301, Note_on_c, 6, 48, 90
10, 33301, Note_on_c, 6, 64, 80
10, 33301, Note_on_c, 6, 60, 76
10, 33322, Note_on_c, 6, 60, 0
10, 33322, Note_on_c, 6, 55, 0
10, 33323, Note_on_c, 6, 64, 0
10, 33323, Note_on_c, 6, 48, 0
10, 33361, Note_on_c, 6, 48, 90
10, 33361, Note_on_c, 6, 64, 79
10, 33361, Note_on_c, 6, 55, 64
10, 33361, Note_on_c, 6, 60, 77
10, 33371, Note_on_c, 6, 55, 0
10, 33381, Note_on_c, 6, 48, 0
10, 33381, Note_on_c, 6, 64, 0
10, 33381, Note_on_c, 6, 60, 0
10, 33421, Note_on_c, 6, 60, 89
10, 33421, Note_on_c, 6, 55, 86
10, 33421, Note_on_c, 6, 64, 91
10, 33421, Note_on_c, 6, 48, 99
10, 33494, Note_on_c, 6, 48, 0
10, 33494, Note_on_c, 6, 64, 0
10, 33494, Note_on_c, 6, 60, 0
10, 33496, Note_on_c, 6, 55, 0
10, 33541, Note_on_c, 6, 64, 82
10, 33541, Note_on_c, 6, 55, 80
10, 33541, Note_on_c, 6, 48, 95
10, 33541, Note_on_c, 6, 60, 83
10, 33551, Note_on_c, 6, 64, 0
10, 33552, Note_on_c, 6, 48, 0
10, 33559, Note_on_c, 6, 55, 0
10, 33559, Note_on_c, 6, 60, 0
10, 33601, Note_on_c, 6, 60, 86
10, 33601, Note_on_c, 6, 64, 84
10, 33601, Note_on_c, 6, 55, 77
10, 33601, Note_on_c, 6, 48, 92
10, 33612, Note_on_c, 6, 55, 0
10, 33613, Note_on_c, 6, 64, 0
10, 33619, Note_on_c, 6, 60, 0
10, 33619, Note_on_c, 6, 48, 0
10, 33661, Note_on_c, 6, 64, 87
10, 33661, Note_on_c, 6, 60, 86
10, 33661, Note_on_c, 6, 55, 85
10, 33661, Note_on_c, 6, 48, 102
10, 33726, Note_on_c, 6, 55, 0
10, 33726, Note_on_c, 6, 60, 0
10, 33731, Note_on_c, 6, 64, 0
10, 33737, Note_on_c, 6, 48, 0
10, 33781, Note_on_c, 6, 48, 85
10, 33781, Note_on_c, 6, 55, 74
10, 33781, Note_on_c, 6, 64, 77
10, 33781, Note_on_c, 6, 60, 66
10, 33792, Note_on_c, 6, 60, 0
10, 33792, Note_on_c, 6, 64, 0
10, 33799, Note_on_c, 6, 55, 0
10, 33799, Note_on_c, 6, 48, 0
10, 33841, Note_on_c, 6, 64, 86
10, 33841, Note_on_c, 6, 48, 106
10, 33841, Note_on_c, 6, 60, 81
10, 33841, Note_on_c, 6, 55, 81
10, 33862, Note_on_c, 6, 60, 0
10, 33863, Note_on_c, 6, 55, 0
10, 33863, Note_on_c, 6, 48, 0
10, 33864, Note_on_c, 6, 64, 0
10, 33901, Note_on_c, 6, 64, 89
10, 33901, Note_on_c, 6, 55, 87
10, 33901, Note_on_c, 6, 60, 89
10, 33901, Note_on_c, 6, 48, 106
10, 33977, Note_on_c, 6, 48, 0
10, 33982, Note_on_c, 6, 64, 0
10, 33982, Note_on_c, 6, 55, 0
10, 33982, Note_on_c, 6, 60, 0
10, 34021, Note_on_c, 6, 48, 97
10, 34021, Note_on_c, 6, 64, 70
10, 34021, Note_on_c, 6, 60, 70
10, 34021, Note_on_c, 6, 55, 63
10, 34042, Note_on_c, 6, 60, 0
10, 34042, Note_on_c, 6, 48, 0
10, 34043, Note_on_c, 6, 64, 0
10, 34043, Note_on_c, 6, 55, 0
10, 34081, Note_on_c, 6, 48, 97
10, 34081, Note_on_c, 6, 64, 80
10, 34081, Note_on_c, 6, 55, 74
10, 34082, Note_on_c, 6, 60, 78
10, 34090, Note_on_c, 6, 60, 0
10, 34097, Note_on_c, 6, 48, 0
10, 34102, Note_on_c, 6, 55, 0
10, 34102, Note_on_c, 6, 64, 0
10, 34141, Note_on_c, 6, 60, 85
10, 34141, Note_on_c, 6, 48, 114
10, 34141, Note_on_c, 6, 64, 86
10, 34141, Note_on_c, 6, 55, 83
10, 34214, Note_on_c, 6, 48, 0
10, 34217, Note_on_c, 6, 60, 0
10, 34217, Note_on_c, 6, 55, 0
10, 34223, Note_on_c, 6, 64, 0
10, 34261, Note_on_c, 6, 60, 78
10, 34261, Note_on_c, 6, 48, 85
10, 34261, Note_on_c, 6, 55, 69
10, 34261, Note_on_c, 6, 64, 79
10, 34282, Note_on_c, 6, 55, 0
10, 34282, Note_on_c, 6, 60, 0
10, 34283, Note_on_c, 6, 48, 0
10, 34283, Note_on_c, 6, 64, 0
10, 34321, Note_on_c, 6, 60, 73
10, 34321, Note_on_c, 6, 48, 79
10, 34321, Note_on_c, 6, 55, 60
10, 34321, Note_on_c, 6, 64, 67
10, 34332, Note_on_c, 6, 60, 0
10, 34333, Note_on_c, 6, 64, 0
10, 34338, Note_on_c, 6, 48, 0
10, 34342, Note_on_c, 6, 55, 0
10, 34381, Note_on_c, 6, 60, 87
10, 34381, Note_on_c, 6, 64, 88
10, 34381, Note_on_c, 6, 55, 82
10, 34381, Note_on_c, 6, 48, 97
10, 34456, Note_on_c, 6, 48, 0
10, 34458, Note_on_c, 6, 55, 0
10, 34461, Note_on_c, 6, 64, 0
10, 34462, Note_on_c, 6, 60, 0
10, 34501, Note_on_c, 6, 48, 83
10, 34501, Note_on_c, 6, 64, 70
10, 34501, Note_on_c, 6, 55, 71
10, 34501, Note_on_c, 6, 60, 75
10, 34513, Note_on_c, 6, 60, 0
10, 34518, Note_on_c, 6, 48, 0
10, 34522, Note_on_c, 6, 55, 0
10, 34523, Note_on_c, 6, 64, 0
10, 34561, Note_on_c, 6, 67, 65
10, 34561, Note_on_c, 6, 59, 83
10, 34561, Note_on_c, 6, 43, 81
10, 34561, Note_on_c, 6, 62, 76
10, 34562, Note_on_c, 6, 55, 68
10, 34574, Note_on_c, 6, 62, 0
10, 34574, Note_on_c, 6, 43, 0
10, 34576, Note_on_c, 6, 59, 0
10, 34584, Note_on_c, 6, 67, 0
10, 34585, Note_on_c, 6, 55, 0
10, 34621, Note_on_c, 6, 62, 81
10, 34621, Note_on_c, 6, 55, 80
10, 34621, Note_on_c, 6, 43, 97
10, 34621, Note_on_c, 6, 67, 91
10, 34621, Note_on_c, 6, 59, 93
10, 34698, Note_on_c, 6, 43, 0
10, 34698, Note_on_c, 6, 62, 0
10, 34698, Note_on_c, 6, 55, 0
10, 34703, Note_on_c, 6, 67, 0
10, 34703, Note_on_c, 6, 59, 0
10, 34741, Note_on_c, 6, 62, 76
10, 34741, Note_on_c, 6, 55, 67
10, 34741, Note_on_c, 6, 43, 79
10, 34741, Note_on_c, 6, 59, 71
10, 34741, Note_on_c, 6, 67, 61
10, 34761, Note_on_c, 6, 62, 0
10, 34762, Note_on_c, 6, 59, 0
10, 34762, Note_on_c, 6, 43, 0
10, 34763, Note_on_c, 6, 55, 0
10, 34764, Note_on_c, 6, 67, 0
10, 34801, Note_on_c, 6, 55, 66
10, 34801, Note_on_c, 6, 62, 72
10, 34801, Note_on_c, 6, 67, 73
10, 34801, Note_on_c, 6, 59, 84
10, 34801, Note_on_c, 6, 43, 81
10, 34822, Note_on_c, 6, 43, 0
10, 34822, Note_on_c, 6, 62, 0
10, 34823, Note_on_c, 6, 59, 0
10, 34824, Note_on_c, 6, 67, 0
10, 34824, Note_on_c, 6, 55, 0
10, 34861, Note_on_c, 6, 62, 84
10, 34861, Note_on_c, 6, 43, 92
10, 34861, Note_on_c, 6, 55, 85
10, 34861, Note_on_c, 6, 59, 91
10, 34861, Note_on_c, 6, 67, 92
10, 34939, Note_on_c, 6, 43, 0
10, 34941, Note_on_c, 6, 55, 0
10, 34944, Note_on_c, 6, 62, 0
10, 34944, Note_on_c, 6, 59, 0
10, 34946, Note_on_c, 6, 67, 0
10, 34981, Note_on_c, 6, 55, 61
10, 34981, Note_on_c, 6, 43, 84
10, 34981, Note_on_c, 6, 62, 68
10, 34981, Note_on_c, 6, 59, 73
10, 34981, Note_on_c, 6, 67, 51
10, 34993, Note_on_c, 6, 67, 0
10, 34993, Note_on_c, 6, 62, 0
10, 34994, Note_on_c, 6, 59, 0
10, 34994, Note_on_c, 6, 43, 0
10, 34999, Note_on_c, 6, 55, 0
10, 35041, Note_on_c, 6, 67, 78
10, 35041, Note_on_c, 6, 43, 85
10, 35041, Note_on_c, 6, 59, 83
10, 35041, Note_on_c, 6, 55, 74
10, 35042, Note_on_c, 6, 62, 73
10, 35053, Note_on_c, 6, 62, 0
10, 35053, Note_on_c, 6, 59, 0
10, 35062, Note_on_c, 6, 43, 0
10, 35063, Note_on_c, 6, 67, 0
10, 35064, Note_on_c, 6, 55, 0
10, 35101, Note_on_c, 6, 67, 91
10, 35101, Note_on_c, 6, 43, 97
10, 35101, Note_on_c, 6, 55, 86
10, 35101, Note_on_c, 6, 62, 81
10, 35101, Note_on_c, 6, 59, 91
10, 35171, Note_on_c, 6, 62, 0
10, 35171, Note_on_c, 6, 43, 0
10, 35173, Note_on_c, 6, 59, 0
10, 35173, Note_on_c, 6, 55, 0
10, 35178, Note_on_c, 6, 67, 0
10, 35221, Note_on_c, 6, 59, 79
10, 35221, Note_on_c, 6, 67, 77
10, 35221, Note_on_c, 6, 43, 89
10, 35221, Note_on_c, 6, 62, 72
10, 35221, Note_on_c, 6, 55, 70
10, 35243, Note_on_c, 6, 55, 0
10, 35243, Note_on_c, 6, 43, 0
10, 35243, Note_on_c, 6, 62, 0
10, 35243, Note_on_c, 6, 59, 0
10, 35244, Note_on_c, 6, 67, 0
10, 35281, Note_on_c, 6, 55, 73
10, 35281, Note_on_c, 6, 67, 78
10, 35281, Note_on_c, 6, 43, 86
10, 35281, Note_on_c, 6, 59, 81
10, 35281, Note_on_c, 6, 62, 71
10, 35293, Note_on_c, 6, 62, 0
10, 35293, Note_on_c, 6, 43, 0
10, 35293, Note_on_c, 6, 59, 0
10, 35308, Note_on_c, 6, 67, 0
10, 35308, Note_on_c, 6, 55, 0
10, 35341, Note_on_c, 6, 43, 102
10, 35341, Note_on_c, 6, 62, 80
10, 35341, Note_on_c, 6, 67, 91
10, 35341, Note_on_c, 6, 55, 85
10, 35341, Note_on_c, 6, 59, 85
10, 35409, Note_on_c, 6, 62, 0
10, 35414, Note_on_c, 6, 59, 0
10, 35418, Note_on_c, 6, 43, 0
10, 35422, Note_on_c, 6, 55, 0
10, 35427, Note_on_c, 6, 67, 0
10, 35461, Note_on_c, 6, 62, 74
10, 35461, Note_on_c, 6, 55, 65
10, 35461, Note_on_c, 6, 59, 81
10, 35461, Note_on_c, 6, 67, 75
10, 35461, Note_on_c, 6, 43, 91
10, 35472, Note_on_c, 6, 62, 0
10, 35482, Note_on_c, 6, 59, 0
10, 35483, Note_on_c, 6, 43, 0
10, 35483, Note_on_c, 6, 55, 0
10, 35488, Note_on_c, 6, 67, 0
10, 35521, Note_on_c, 6, 55, 78
10, 35521, Note_on_c, 6, 48, 86
10, 35521, Note_on_c, 6, 64, 80
10, 35521, Note_on_c, 6, 60, 84
10, 35542, Note_on_c, 6, 60, 0
10, 35542, Note_on_c, 6, 48, 0
10, 35543, Note_on_c, 6, 64, 0
10, 35543, Note_on_c, 6, 55, 0
10, 35581, Note_on_c, 6, 55, 78
10, 35581, Note_on_c, 6, 60, 82
10, 35581, Note_on_c, 6, 48, 99
10, 35581, Note_on_c, 6, 64, 81
10, 35657, Note_on_c, 6, 48, 0
10, 35657, Note_on_c, 6, 55, 0
10, 35662, Note_on_c, 6, 60, 0
10, 35662, Note_on_c, 6, 64, 0
10, 35701, Note_on_c, 6, 64, 75
10, 35701, Note_on_c, 6, 48, 89
10, 35701, Note_on_c, 6, 60, 82
10, 35701, Note_on_c, 6, 55, 79
10, 35711, Note_on_c, 6, 64, 0
10, 35721, Note_on_c, 6, 55, 0
10, 35721, Note_on_c, 6, 60, 0
10, 35722, Note_on_c, 6, 48, 0
10, 35761, Note_on_c, 6, 60, 78
10, 35761, Note_on_c, 6, 64, 73
10, 35761, Note_on_c, 6, 55, 62
10, 35761, Note_on_c, 6, 48, 90
10, 35772, Note_on_c, 6, 55, 0
10, 35781, Note_on_c, 6, 48, 0
10, 35781, Note_on_c, 6, 60, 0
10, 35782, Note_on_c, 6, 64, 0
10, 35821, Note_on_c, 6, 48, 106
10, 35821, Note_on_c, 6, 60, 82
10, 35821, Note_on_c, 6, 64, 84
10, 35821, Note_on_c, 6, 55, 85
10, 35897, Note_on_c, 6, 55, 0
10, 35897, Note_on_c, 6, 60, 0
10, 35902, Note_on_c, 6, 64, 0
10, 35907, Note_on_c, 6, 48, 0
10, 35941, Note_on_c, 6, 48, 87
10, 35941, Note_on_c, 6, 64, 78
10, 35941, Note_on_c, 6, 55, 81
10, 35941, Note_on_c, 6, 60, 85
10, 35951, Note_on_c, 6, 48, 0
10, 35959, Note_on_c, 6, 64, 0
10, 35959, Note_on_c, 6, 55, 0
10, 35959, Note_on_c, 6, 60, 0
10, 36001, Note_on_c, 6, 60, 79
10, 36001, Note_on_c, 6, 48, 91
10, 36001, Note_on_c, 6, 55, 74
10, 36001, Note_on_c, 6, 64, 77
10, 36012, Note_on_c, 6, 60, 0
10, 36019, Note_on_c, 6, 48, 0
10, 36019, Note_on_c, 6, 55, 0
10, 36028, Note_on_c, 6, 64, 0
10, 36061, Note_on_c, 6, 60, 81
10, 36061, Note_on_c, 6, 48, 110
10, 36061, Note_on_c, 6, 64, 82
10, 36061, Note_on_c, 6, 55, 81
10, 36138, Note_on_c, 6, 55, 0
10, 36138, Note_on_c, 6, 48, 0
10, 36143, Note_on_c, 6, 64, 0
10, 36143, Note_on_c, 6, 60, 0
10, 36181, Note_on_c, 6, 48, 95
10, 36181, Note_on_c, 6, 60, 78
10, 36181, Note_on_c, 6, 55, 73
10, 36181, Note_on_c, 6, 64, 75
10, 36191, Note_on_c, 6, 48, 0
10, 36201, Note_on_c, 6, 60, 0
10, 36201, Note_on_c, 6, 55, 0
10, 36201, Note_on_c, 6, 64, 0
10, 36241, Note_on_c, 6, 64, 71
10, 36241, Note_on_c, 6, 60, 74
10, 36241, Note_on_c, 6, 48, 90
10, 36241, Note_on_c, 6, 55, 67
10, 36252, Note_on_c, 6, 48, 0
10, 36263, Note_on_c, 6, 55, 0
10, 36263, Note_on_c, 6, 60, 0
10, 36264, Note_on_c, 6, 64, 0
10, 36301, Note_on_c, 6, 64, 83
10, 36301, Note_on_c, 6, 55, 79
10, 36301, Note_on_c, 6, 60, 80
10, 36301, Note_on_c, 6, 48, 110
10, 36371, Note_on_c, 6, 48, 0
10, 36371, Note_on_c, 6, 60, 0
10, 36376, Note_on_c, 6, 55, 0
10, 36376, Note_on_c, 6, 64, 0
10, 36421, Note_on_c, 6, 55, 66
10, 36421, Note_on_c, 6, 64, 67
10, 36421, Note_on_c, 6, 48, 91
10, 36421, Note_on_c, 6, 60, 74
10, 36432, Note_on_c, 6, 48, 0
10, 36433, Note_on_c, 6, 60, 0
10, 36437, Note_on_c, 6, 55, 0
10, 36442, Note_on_c, 6, 64, 0
10, 36481, Note_on_c, 6, 48, 92
10, 36481, Note_on_c, 6, 60, 78
10, 36481, Note_on_c, 6, 64, 80
10, 36481, Note_on_c, 6, 55, 74
10, 36501, Note_on_c, 6, 55, 0
10, 36502, Note_on_c, 6, 48, 0
10, 36502, Note_on_c, 6, 60, 0
10, 36503, Note_on_c, 6, 64, 0
10, 36541, Note_on_c, 6, 55, 87
10, 36541, Note_on_c, 6, 60, 87
10, 36541, Note_on_c, 6, 48, 99
10, 36541, Note_on_c, 6, 64, 89
10, 36617, Note_on_c, 6, 60, 0
10, 36617, Note_on_c, 6, 55, 0
10, 36618, Note_on_c, 6, 48, 0
10, 36623, Note_on_c, 6, 64, 0
10, 36661, Note_on_c, 6, 60, 71
10, 36661, Note_on_c, 6, 48, 89
10, 36661, Note_on_c, 6, 64, 71
10, 36661, Note_on_c, 6, 55, 68
10, 36672, Note_on_c, 6, 60, 0
10, 36677, Note_on_c, 6, 55, 0
10, 36682, Note_on_c, 6, 64, 0
10, 36682, Note_on_c, 6, 48, 0
10, 36721, Note_on_c, 6, 55, 64
10, 36721, Note_on_c, 6, 60, 72
10, 36721, Note_on_c, 6, 48, 90
10, 36721, Note_on_c, 6, 64, 74
10, 36741, Note_on_c, 6, 55, 0
10, 36742, Note_on_c, 6, 60, 0
10, 36742, Note_on_c, 6, 48, 0
10, 36743, Note_on_c, 6, 64, 0
10, 36781, Note_on_c, 6, 64, 87
10, 36781, Note_on_c, 6, 48, 102
10, 36781, Note_on_c, 6, 60, 82
10, 36781, Note_on_c, 6, 55, 81
10, 36858, Note_on_c, 6, 55, 0
10, 36858, Note_on_c, 6, 48, 0
10, 36861, Note_on_c, 6, 60, 0
10, 36862, Note_on_c, 6, 64, 0
10, 36901, Note_on_c, 6, 55, 69
10, 36901, Note_on_c, 6, 48, 92
10, 36901, Note_on_c, 6, 64, 78
10, 36901, Note_on_c, 6, 60, 73
10, 36922, Note_on_c, 6, 60, 0
10, 36922, Note_on_c, 6, 48, 0
10, 36923, Note_on_c, 6, 64, 0
10, 36923, Note_on_c, 6, 55, 0
10, 36961, Note_on_c, 6, 48, 97
10, 36961, Note_on_c, 6, 55, 77
10, 36961, Note_on_c, 6, 64, 84
10, 36961, Note_on_c, 6, 60, 77
10, 36983, Note_on_c, 6, 60, 0
10, 36983, Note_on_c, 6, 48, 0
10, 36983, Note_on_c, 6, 55, 0
10, 36983, Note_on_c, 6, 64, 0
10, 37021, Note_on_c, 6, 55, 79
10, 37021, Note_on_c, 6, 48, 97
10, 37021, Note_on_c, 6, 60, 85
10, 37021, Note_on_c, 6, 64, 87
10, 37097, Note_on_c, 6, 55, 0
10, 37098, Note_on_c, 6, 64, 0
10, 37098, Note_on_c, 6, 60, 0
10, 37099, Note_on_c, 6, 48, 0
10, 37141, Note_on_c, 6, 55, 76
10, 37141, Note_on_c, 6, 48, 90
10, 37141, Note_on_c, 6, 64, 80
10, 37141, Note_on_c, 6, 60, 76
10, 37162, Note_on_c, 6, 60, 0
10, 37162, Note_on_c, 6, 55, 0
10, 37163, Note_on_c, 6, 64, 0
10, 37163, Note_on_c, 6, 48, 0
10, 37201, Note_on_c, 6, 48, 90
10, 37201, Note_on_c, 6, 64, 79
10, 37201, Note_on_c, 6, 55, 64
10, 37201, Note_on_c, 6, 60, 77
10, 37211, Note_on_c, 6, 55, 0
10, 37221, Note_on_c, 6, 48, 0
10, 37221, Note_on_c, 6, 64, 0
10, 37221, Note_on_c, 6, 60, 0
10, 37261, Note_on_c, 6, 60, 89
10, 37261, Note_on_c, 6, 55, 86
10, 37261, Note_on_c, 6, 64, 91
10, 37261, Note_on_c, 6, 48, 99
10, 37334, Note_on_c, 6, 48, 0
10, 37334, Note_on_c, 6, 64, 0
10, 37334, Note_on_c, 6, 60, 0
10, 37336, Note_on_c, 6, 55, 0
10, 37381, Note_on_c, 6, 64, 82
10, 37381, Note_on_c, 6, 55, 80
10, 37381, Note_on_c, 6, 48, 95
10, 37381, Note_on_c, 6, 60, 83
10, 37391, Note_on_c, 6, 64, 0
10, 37392, Note_on_c, 6, 48, 0
10, 37399, Note_on_c, 6, 55, 0
10, 37399, Note_on_c, 6, 60, 0
10, 37441, Note_on_c, 6, 60, 86
10, 37441, Note_on_c, 6, 64, 84
10, 37441, Note_on_c, 6, 55, 77
10, 37441, Note_on_c, 6, 48, 92
10, 37452, Note_on_c, 6, 55, 0
10, 37453, Note_on_c, 6, 64, 0
10, 37459, Note_on_c, 6, 60, 0
10, 37459, Note_on_c, 6, 48, 0
10, 37501, Note_on_c, 6, 64, 87
10, 37501, Note_on_c, 6, 60, 86
10, 37501, Note_on_c, 6, 55, 85
10, 37501, Note_on_c, 6, 48, 102
10, 37566, Note_on_c, 6, 55, 0
10, 37566, Note_on_c, 6, 60, 0
10, 37571, Note_on_c, 6, 64, 0
10, 37577, Note_on_c, 6, 48, 0
10, 37621, Note_on_c, 6, 48, 85
10, 37621, Note_on_c, 6, 55, 74
10, 37621, Note_on_c, 6, 64, 77
10, 37621, Note_on_c, 6, 60, 66
10, 37632, Note_on_c, 6, 60, 0
10, 37632, Note_on_c, 6, 64, 0
10, 37639, Note_on_c, 6, 55, 0
10, 37639, Note_on_c, 6, 48, 0
10, 37681, Note_on_c, 6, 64, 86
10, 37681, Note_on_c, 6, 48, 106
10, 37681, Note_on_c, 6, 60, 81
10, 37681, Note_on_c, 6, 55, 81
10, 37702, Note_on_c, 6, 60, 0
10, 37703, Note_on_c, 6, 55, 0
10, 37703, Note_on_c, 6, 48, 0
10, 37704, Note_on_c, 6, 64, 0
10, 37741, Note_on_c, 6, 64, 89
10, 37741, Note_on_c, 6, 55, 87
10, 37741, Note_on_c, 6, 60, 89
10, 37741, Note_on_c, 6, 48, 106
10, 37817, Note_on_c, 6, 48, 0
10, 37822, Note_on_c, 6, 64, 0
10, 37822, Note_on_c, 6, 55, 0
10, 37822, Note_on_c, 6, 60, 0
10, 37861, Note_on_c, 6, 48, 97
10, 37861, Note_on_c, 6, 64, 70
10, 37861, Note_on_c, 6, 60, 70
10, 37861, Note_on_c, 6, 55, 63
10, 37882, Note_on_c, 6, 60, 0
10, 37882, Note_on_c, 6, 48, 0
10, 37883, Note_on_c, 6, 64, 0
10, 37883, Note_on_c, 6, 55, 0
10, 37921, Note_on_c, 6, 48, 97
10, 37921, Note_on_c, 6, 64, 80
10, 37921, Note_on_c, 6, 55, 74
10, 37922, Note_on_c, 6, 60, 78
10, 37930, Note_on_c, 6, 60, 0
10, 37937, Note_on_c, 6, 48, 0
10, 37942, Note_on_c, 6, 55, 0
10, 37942, Note_on_c, 6, 64, 0
10, 37981, Note_on_c, 6, 60, 85
10, 37981, Note_on_c, 6, 48, 114
10, 37981, Note_on_c, 6, 64, 86
10, 37981, Note_on_c, 6, 55, 83
10, 38054, Note_on_c, 6, 48, 0
10, 38057, Note_on_c, 6, 60, 0
10, 38057, Note_on_c, 6, 55, 0
10, 38063, Note_on_c, 6, 64, 0
10, 38101, Note_on_c, 6, 60, 78
10, 38101, Note_on_c, 6, 48, 85
10, 38101, Note_on_c, 6, 55, 69
10, 38101, Note_on_c, 6, 64, 79
10, 38122, Note_on_c, 6, 55, 0
10, 38122, Note_on_c, 6, 60, 0
10, 38123, Note_on_c, 6, 48, 0
10, 38123, Note_on_c, 6, 64, 0
10, 38161, Note_on_c, 6, 60, 73
10, 38161, Note_on_c, 6, 48, 79
10, 38161, Note_on_c, 6, 55, 60
10, 38161, Note_on_c, 6, 64, 67
10, 38172, Note_on_c, 6, 60, 0
10, 38173, Note_on_c, 6, 64, 0
10, 38178, Note_on_c, 6, 48, 0
10, 38182, Note_on_c, 6, 55, 0
10, 38221, Note_on_c, 6, 60, 87
10, 38221, Note_on_c, 6, 64, 88
10, 38221, Note_on_c, 6, 55, 82
10, 38221, Note_on_c, 6, 48, 97
10, 38296, Note_on_c, 6, 48, 0
10, 38298, Note_on_c, 6, 55, 0
10, 38301, Note_on_c, 6, 64, 0
10, 38302, Note_on_c, 6, 60, 0
10, 38341, Note_on_c, 6, 48, 83
10, 38341, Note_on_c, 6, 64, 70
10, 38341, Note_on_c, 6, 55, 71
10, 38341, Note_on_c, 6, 60, 75
10, 38353, Note_on_c, 6, 60, 0
10, 38358, Note_on_c, 6, 48, 0
10, 38362, Note_on_c, 6, 55, 0
10, 38363, Note_on_c, 6, 64, 0
10, 38401, Note_on_c, 6, 67, 65
10, 38401, Note_on_c, 6, 59, 83
10, 38401, Note_on_c, 6, 43, 81
10, 38401, Note_on_c, 6, 62, 76
10, 38402, Note_on_c, 6, 55, 68
10, 38414, Note_on_c, 6, 62, 0
10, 38414, Note_on_c, 6, 43, 0
10, 38416, Note_on_c, 6, 59, 0
10, 38424, Note_on_c, 6, 67, 0
10, 38425, Note_on_c, 6, 55, 0
10, 38461, Note_on_c, 6, 62, 81
10, 38461, Note_on_c, 6, 55, 80
10, 38461, Note_on_c, 6, 43, 97
10, 38461, Note_on_c, 6, 67, 91
10, 38461, Note_on_c, 6, 59, 93
10, 38538, Note_on_c, 6, 43, 0
10, 38538, Note_on_c, 6, 62, 0
10, 38538, Note_on_c, 6, 55, 0
10, 38543, Note_on_c, 6, 67, 0
10, 38543, Note_on_c, 6, 59, 0
10, 38581, Note_on_c, 6, 62, 76
10, 38581, Note_on_c, 6, 55, 67
10, 38581, Note_on_c, 6, 43, 79
10, 38581, Note_on_c, 6, 59, 71
10, 38581, Note_on_c, 6, 67, 61
10, 38601, Note_on_c, 6, 62, 0
10, 38602, Note_on_c, 6, 59, 0
10, 38602, Note_on_c, 6, 43, 0
10, 38603, Note_on_c, 6, 55, 0
10, 38604, Note_on_c, 6, 67, 0
10, 38641, Note_on_c, 6, 55, 66
10, 38641, Note_on_c, 6, 62, 72
10, 38641, Note_on_c, 6, 67, 73
10, 38641, Note_on_c, 6, 59, 84
10, 38641, Note_on_c, 6, 43, 81
10, 38662, Note_on_c, 6, 43, 0
10, 38662, Note_on_c, 6, 62, 0
10, 38663, Note_on_c, 6, 59, 0
10, 38664, Note_on_c, 6, 67, 0
10, 38664, Note_on_c, 6, 55, 0
10, 38701, Note_on_c, 6, 62, 84
10, 38701, Note_on_c, 6, 43, 92
10, 38701, Note_on_c, 6, 55, 85
10, 38701, Note_on_c, 6, 59, 91
10, 38701, Note_on_c, 6, 67, 92
10, 38779, Note_on_c, 6, 43, 0
10, 38781, Note_on_c, 6, 55, 0
10, 38784, Note_on_c, 6, 62, 0
10, 38784, Note_on_c, 6, 59, 0
10, 38786, Note_on_c, 6, 67, 0
10, 38821, Note_on_c, 6, 55, 61
10, 38821, Note_on_c, 6, 43, 84
10, 38821, Note_on_c, 6, 62, 68
10, 38821, Note_on_c, 6, 59, 73
10, 38821, Note_on_c, 6, 67, 51
10, 38833, Note_on_c, 6, 67, 0
10, 38833, Note_on_c, 6, 62, 0
10, 38834, Note_on_c, 6, 59, 0
10, 38834, Note_on_c, 6, 43, 0
10, 38839, Note_on_c, 6, 55, 0
10, 38881, Note_on_c, 6, 67, 78
10, 38881, Note_on_c, 6, 43, 85
10, 38881, Note_on_c, 6, 59, 83
10, 38881, Note_on_c, 6, 55, 74
10, 38882, Note_on_c, 6, 62, 73
10, 38893, Note_on_c, 6, 62, 0
10, 38893, Note_on_c, 6, 59, 0
10, 38902, Note_on_c, 6, 43, 0
10, 38903, Note_on_c, 6, 67, 0
10, 38904, Note_on_c, 6, 55, 0
10, 38941, Note_on_c, 6, 67, 91
10, 38941, Note_on_c, 6, 43, 97
10, 38941, Note_on_c, 6, 55, 86
10, 38941, Note_on_c, 6, 62, 81
10, 38941, Note_on_c, 6, 59, 91
10, 39011, Note_on_c, 6, 62, 0
10, 39011, Note_on_c, 6, 43, 0
10, 39013, Note_on_c, 6, 59, 0
10, 39013, Note_on_c, 6, 55, 0
10, 39018, Note_on_c, 6, 67, 0
10, 39061, Note_on_c, 6, 59, 79
10, 39061, Note_on_c, 6, 67, 77
10, 39061, Note_on_c, 6, 43, 89
10, 39061, Note_on_c, 6, 62, 72
10, 39061, Note_on_c, 6, 55, 70
10, 39083, Note_on_c, 6, 55, 0
10, 39083, Note_on_c, 6, 43, 0
10, 39083, Note_on_c, 6, 62, 0
10, 39083, Note_on_c, 6, 59, 0
10, 39084, Note_on_c, 6, 67, 0
10, 39121, Note_on_c, 6, 55, 73
10, 39121, Note_on_c, 6, 67, 78
10, 39121, Note_on_c, 6, 43, 86
10, 39121, Note_on_c, 6, 59, 81
10, 39121, Note_on_c, 6, 62, 71
10, 39133, Note_on_c, 6, 62, 0
10, 39133, Note_on_c, 6, 43, 0
10, 39133, Note_on_c, 6, 59, 0
10, 39148, Note_on_c, 6, 67, 0
10, 39148, Note_on_c, 6, 55, 0
10, 39181, Note_on_c, 6, 43, 102
10, 39181, Note_on_c, 6, 62, 80
10, 39181, Note_on_c, 6, 67, 91
10, 39181, Note_on_c, 6, 55, 85
10, 39181, Note_on_c, 6, 59, 85
10, 39249, Note_on_c, 6, 62, 0
10, 39254, Note_on_c, 6, 59, 0
10, 39258, Note_on_c, 6, 43, 0
10, 39262, Note_on_c, 6, 55, 0
10, 39267, Note_on_c, 6, 67, 0
10, 39301, Note_on_c, 6, 62, 74
10, 39301, Note_on_c, 6, 55, 65
10, 39301, Note_on_c, 6, 59, 81
10, 39301, Note_on_c, 6, 67, 75
10, 39301, Note_on_c, 6, 43, 91
10, 39312, Note_on_c, 6, 62, 0
10, 39322, Note_on_c, 6, 59, 0
10, 39323, Note_on_c, 6, 43, 0
10, 39323, Note_on_c, 6, 55, 0
10, 39328, Note_on_c, 6, 67, 0
10, 39361, Note_on_c, 6, 55, 78
10, 39361, Note_on_c, 6, 48, 86
10, 39361, Note_on_c, 6, 64, 80
10, 39361, Note_on_c, 6, 60, 84
10, 39382, Note_on_c, 6, 60, 0
10, 39382, Note_on_c, 6, 48, 0
10, 39383, Note_on_c, 6, 64, 0
10, 39383, Note_on_c, 6, 55, 0
10, 39421, Note_on_c, 6, 55, 78
10, 39421, Note_on_c, 6, 60, 82
10, 39421, Note_on_c, 6, 48, 99
10, 39421, Note_on_c, 6, 64, 81
10, 39497, Note_on_c, 6, 48, 0
10, 39497, Note_on_c, 6, 55, 0
10, 39502, Note_on_c, 6, 60, 0
10, 39502, Note_on_c, 6, 64, 0
10, 39541, Note_on_c, 6, 64, 75
10, 39541, Note_on_c, 6, 48, 89
10, 39541, Note_on_c, 6, 60, 82
10, 39541, Note_on_c, 6, 55, 79
10, 39551, Note_on_c, 6, 64, 0
10, 39561, Note_on_c, 6, 55, 0
10, 39561, Note_on_c, 6, 60, 0
10, 39562, Note_on_c, 6, 48, 0
10, 39601, Note_on_c, 6, 60, 78
10, 39601, Note_on_c, 6, 64, 73
10, 39601, Note_on_c, 6, 55, 62
10, 39601, Note_on_c, 6, 48, 90
10, 39612, Note_on_c, 6, 55, 0
10, 39621, Note_on_c, 6, 48, 0
10, 39621, Note_on_c, 6, 60, 0
10, 39622, Note_on_c, 6, 64, 0
10, 39661, Note_on_c, 6, 48, 106
10, 39661, Note_on_c, 6, 60, 82
10, 39661, Note_on_c, 6, 64, 84
10, 39661, Note_on_c, 6, 55, 85
10, 39737, Note_on_c, 6, 55, 0
10, 39737, Note_on_c, 6, 60, 0
10, 39742, Note_on_c, 6, 64, 0
10, 39747, Note_on_c, 6, 48, 0
10, 39781, Note_on_c, 6, 48, 87
10, 39781, Note_on_c, 6, 64, 78
10, 39781, Note_on_c, 6, 55, 81
10, 39781, Note_on_c, 6, 60, 85
10, 39791, Note_on_c, 6, 48, 0
10, 39799, Note_on_c, 6, 64, 0
10, 39799, Note_on_c, 6, 55, 0
10, 39799, Note_on_c, 6, 60, 0
10, 39841, Note_on_c, 6, 60, 79
10, 39841, Note_on_c, 6, 48, 91
10, 39841, Note_on_c, 6, 55, 74
10, 39841, Note_on_c, 6, 64, 77
10, 39852, Note_on_c, 6, 60, 0
10, 39859, Note_on_c, 6, 48, 0
10, 39859, Note_on_c, 6, 55, 0
10, 39868, Note_on_c, 6, 64, 0
10, 39901, Note_on_c, 6, 60, 81
10, 39901, Note_on_c, 6, 48, 110
10, 39901, Note_on_c, 6, 64, 82
10, 39901, Note_on_c, 6, 55, 81
10, 39978, Note_on_c, 6, 55, 0
10, 39978, Note_on_c, 6, 48, 0
10, 39983, Note_on_c, 6, 64, 0
10, 39983, Note_on_c, 6, 60, 0
10, 40021, Note_on_c, 6, 48, 95
10, 40021, Note_on_c, 6, 60, 78
10, 40021, Note_on_c, 6, 55, 73
10, 40021, Note_on_c, 6, 64, 75
10, 40031, Note_on_c, 6, 48, 0
10, 40041, Note_on_c, 6, 60, 0
10, 40041, Note_on_c, 6, 55, 0
10, 40041, Note_on_c, 6, 64, 0
10, 40081, Note_on_c, 6, 64, 71
10, 40081, Note_on_c, 6, 60, 74
10, 40081, Note_on_c, 6, 48, 90
10, 40081, Note_on_c, 6, 55, 67
10, 40092, Note_on_c, 6, 48, 0
10, 40103, Note_on_c, 6, 55, 0
10, 40103, Note_on_c, 6, 60, 0
10, 40104, Note_on_c, 6, 64, 0
10, 40141, Note_on_c, 6, 64, 83
10, 40141, Note_on_c, 6, 55, 79
10, 40141, Note_on_c, 6, 60, 80
10, 40141, Note_on_c, 6, 48, 110
10, 40211, Note_on_c, 6, 48, 0
10, 40211, Note_on_c, 6, 60, 0
10, 40216, Note_on_c, 6, 55, 0
10, 40216, Note_on_c, 6, 64, 0
10, 40261, Note_on_c, 6, 55, 66
10, 40261, Note_on_c, 6, 64, 67
10, 40261, Note_on_c, 6, 48, 91
10, 40261, Note_on_c, 6, 60, 74
10, 40272, Note_on_c, 6, 48, 0
10, 40273, Note_on_c, 6, 60, 0
10, 40277, Note_on_c, 6, 55, 0
10, 40282, Note_on_c, 6, 64, 0
10, 40321, Note_on_c, 6, 48, 92
10, 40321, Note_on_c, 6, 60, 78
10, 40321, Note_on_c, 6, 64, 80
10, 40321, Note_on_c, 6, 55, 74
10, 40341, Note_on_c, 6, 55, 0
10, 40342, Note_on_c, 6, 48, 0
10, 40342, Note_on_c, 6, 60, 0
10, 40343, Note_on_c, 6, 64, 0
10, 40381, Note_on_c, 6, 55, 87
10, 40381, Note_on_c, 6, 60, 87
10, 40381, Note_on_c, 6, 48, 99
10, 40381, Note_on_c, 6, 64, 89
10, 40457, Note_on_c, 6, 60, 0
10, 40457, Note_on_c, 6, 55, 0
10, 40458, Note_on_c, 6, 48, 0
10, 40463, Note_on_c, 6, 64, 0
10, 40501, Note_on_c, 6, 60, 71
10, 40501, Note_on_c, 6, 48, 89
10, 40501, Note_on_c, 6, 64, 71
10, 40501, Note_on_c, 6, 55, 68
10, 40512, Note_on_c, 6, 60, 0
10, 40517, Note_on_c, 6, 55, 0
10, 40522, Note_on_c, 6, 64, 0
10, 40522, Note_on_c, 6, 48, 0
10, 40561, Note_on_c, 6, 55, 64
10, 40561, Note_on_c, 6, 60, 72
10, 40561, Note_on_c, 6, 48, 90
10, 40561, Note_on_c, 6, 64, 74
10, 40581, Note_on_c, 6, 55, 0
10, 40582, Note_on_c, 6, 60, 0
10, 40582, Note_on_c, 6, 48, 0
10, 40583, Note_on_c, 6, 64, 0
10, 40621, Note_on_c, 6, 64, 87
10, 40621, Note_on_c, 6, 48, 102
10, 40621, Note_on_c, 6, 60, 82
10, 40621, Note_on_c, 6, 55, 81
10, 40698, Note_on_c, 6, 55, 0
10, 40698, Note_on_c, 6, 48, 0
10, 40701, Note_on_c, 6, 60, 0
10, 40702, Note_on_c, 6, 64, 0
10, 40741, Note_on_c, 6, 55, 69
10, 40741, Note_on_c, 6, 48, 92
10, 40741, Note_on_c, 6, 64, 78
10, 40741, Note_on_c, 6, 60, 73
10, 40762, Note_on_c, 6, 60, 0
10, 40762, Note_on_c, 6, 48, 0
10, 40763, Note_on_c, 6, 64, 0
10, 40763, Note_on_c, 6, 55, 0
10, 40801, Note_on_c, 6, 48, 97
10, 40801, Note_on_c, 6, 55, 77
10, 40801, Note_on_c, 6, 64, 84
10, 40801, Note_on_c, 6, 60, 77
10, 40823, Note_on_c, 6, 60, 0
10, 40823, Note_on_c, 6, 48, 0
10, 40823, Note_on_c, 6, 55, 0
10, 40823, Note_on_c, 6, 64, 0
10, 40861, Note_on_c, 6, 55, 79
10, 40861, Note_on_c, 6, 48, 97
10, 40861, Note_on_c, 6, 60, 85
10, 40861, Note_on_c, 6, 64, 87
10, 40937, Note_on_c, 6, 55, 0
10, 40938, Note_on_c, 6, 64, 0
10, 40938, Note_on_c, 6, 60, 0
10, 40939, Note_on_c, 6, 48, 0
10, 40981, Note_on_c, 6, 55, 76
10, 40981, Note_on_c, 6, 48, 90
10, 40981, Note_on_c, 6, 64, 80
10, 40981, Note_on_c, 6, 60, 76
10, 41002, Note_on_c, 6, 60, 0
10, 41002, Note_on_c, 6, 55, 0
10, 41003, Note_on_c, 6, 64, 0
10, 41003, Note_on_c, 6, 48, 0
10, 41041, Note_on_c, 6, 48, 90
10, 41041, Note_on_c, 6, 64, 79
10, 41041, Note_on_c, 6, 55, 64
10, 41041, Note_on_c, 6, 60, 77
10, 41051, Note_on_c, 6, 55, 0
10, 41061, Note_on_c, 6, 48, 0
10, 41061, Note_on_c, 6, 64, 0
10, 41061, Note_on_c, 6, 60, 0
10, 41101, Note_on_c, 6, 60, 89
10, 41101, Note_on_c, 6, 55, 86
10, 41101, Note_on_c, 6, 64, 91
10, 41101, Note_on_c, 6, 48, 99
10, 41174, Note_on_c, 6, 48, 0
10, 41174, Note_on_c, 6, 64, 0
10, 41174, Note_on_c, 6, 60, 0
10, 41176, Note_on_c, 6, 55, 0
10, 41221, Note_on_c, 6, 64, 82
10, 41221, Note_on_c, 6, 55, 80
10, 41221, Note_on_c, 6, 48, 95
10, 41221, Note_on_c, 6, 60, 83
10, 41231, Note_on_c, 6, 64, 0
10, 41232, Note_on_c, 6, 48, 0
10, 41239, Note_on_c, 6, 55, 0
10, 41239, Note_on_c, 6, 60, 0
10, 41281, Note_on_c, 6, 60, 86
10, 41281, Note_on_c, 6, 64, 84
10, 41281, Note_on_c, 6, 55, 77
10, 41281, Note_on_c, 6, 48, 92
10, 41292, Note_on_c, 6, 55, 0
10, 41293, Note_on_c, 6, 64, 0
10, 41299, Note_on_c, 6, 60, 0
10, 41299, Note_on_c, 6, 48, 0
10, 41341, Note_on_c, 6, 64, 87
10, 41341, Note_on_c, 6, 60, 86
10, 41341, Note_on_c, 6, 55, 85
10, 41341, Note_on_c, 6, 48, 102
10, 41406, Note_on_c, 6, 55, 0
10, 41406, Note_on_c, 6, 60, 0
10, 41411, Note_on_c, 6, 64, 0
10, 41417, Note_on_c, 6, 48, 0
10, 41461, Note_on_c, 6, 48, 85
10, 41461, Note_on_c, 6, 55, 74
10, 41461, Note_on_c, 6, 64, 77
10, 41461, Note_on_c, 6, 60, 66
10, 41472, Note_on_c, 6, 60, 0
10, 41472, Note_on_c, 6, 64, 0
10, 41479, Note_on_c, 6, 55, 0
10, 41479, Note_on_c, 6, 48, 0
10, 41521, Note_on_c, 6, 64, 86
10, 41521, Note_on_c, 6, 48, 106
10, 41521, Note_on_c, 6, 60, 81
10, 41521, Note_on_c, 6, 55, 81
10, 41542, Note_on_c, 6, 60, 0
10, 41543, Note_on_c, 6, 55, 0
10, 41543, Note_on_c, 6, 48, 0
10, 41544, Note_on_c, 6, 64, 0
10, 41581, Note_on_c, 6, 64, 89
10, 41581, Note_on_c, 6, 55, 87
10, 41581, Note_on_c, 6, 60, 89
10, 41581, Note_on_c, 6, 48, 106
10, 41657, Note_on_c, 6, 48, 0
10, 41662, Note_on_c, 6, 64, 0
10, 41662, Note_on_c, 6, 55, 0
10, 41662, Note_on_c, 6, 60, 0
10, 41701, Note_on_c, 6, 48, 97
10, 41701, Note_on_c, 6, 64, 70
10, 41701, Note_on_c, 6, 60, 70
10, 41701, Note_on_c, 6, 55, 63
10, 41722, Note_on_c, 6, 60, 0
10, 41722, Note_on_c, 6, 48, 0
10, 41723, Note_on_c, 6, 64, 0
10, 41723, Note_on_c, 6, 55, 0
10, 41761, Note_on_c, 6, 48, 97
10, 41761, Note_on_c, 6, 64, 80
10, 41761, Note_on_c, 6, 55, 74
10, 41762, Note_on_c, 6, 60, 78
10, 41770, Note_on_c, 6, 60, 0
10, 41777, Note_on_c, 6, 48, 0
10, 41782, Note_on_c, 6, 55, 0
10, 41782, Note_on_c, 6, 64, 0
10, 41821, Note_on_c, 6, 60, 85
10, 41821, Note_on_c, 6, 48, 114
10, 41821, Note_on_c, 6, 64, 86
10, 41821, Note_on_c, 6, 55, 83
10, 41894, Note_on_c, 6, 48, 0
10, 41897, Note_on_c, 6, 60, 0
10, 41897, Note_on_c, 6, 55, 0
10, 41903, Note_on_c, 6, 64, 0
10, 41941, Note_on_c, 6, 60, 78
10, 41941, Note_on_c, 6, 48, 85
10, 41941, Note_on_c, 6, 55, 69
10, 41941, Note_on_c, 6, 64, 79
10, 41962, Note_on_c, 6, 55, 0
10, 41962, Note_on_c, 6, 60, 0
10, 41963, Note_on_c, 6, 48, 0
10, 41963, Note_on_c, 6, 64, 0
10, 42001, Note_on_c, 6, 60, 73
10, 42001, Note_on_c, 6, 48, 79
10, 42001, Note_on_c, 6, 55, 60
10, 42001, Note_on_c, 6, 64, 67
10, 42012, Note_on_c, 6, 60, 0
10, 42013, Note_on_c, 6, 64, 0
10, 42018, Note_on_c, 6, 48, 0
10, 42022, Note_on_c, 6, 55, 0
10, 42061, Note_on_c, 6, 60, 87
10, 42061, Note_on_c, 6, 64, 88
10, 42061, Note_on_c, 6, 55, 82
10, 42061, Note_on_c, 6, 48, 97
10, 42136, Note_on_c, 6, 48, 0
10, 42138, Note_on_c, 6, 55, 0
10, 42141, Note_on_c, 6, 64, 0
10, 42142, Note_on_c, 6, 60, 0
10, 42181, Note_on_c, 6, 48, 83
10, 42181, Note_on_c, 6, 64, 70
10, 42181, Note_on_c, 6, 55, 71
10, 42181, Note_on_c, 6, 60, 75
10, 42193, Note_on_c, 6, 60, 0
10, 42198, Note_on_c, 6, 48, 0
10, 42202, Note_on_c, 6, 55, 0
10, 42203, Note_on_c, 6, 64, 0
10, 42241, Note_on_c, 6, 67, 65
10, 42241, Note_on_c, 6, 59, 83
10, 42241, Note_on_c, 6, 43, 81
10, 42241, Note_on_c, 6, 62, 76
10, 42242, Note_on_c, 6, 55, 68
10, 42254, Note_on_c, 6, 62, 0
10, 42254, Note_on_c, 6, 43, 0
10, 42256, Note_on_c, 6, 59, 0
10, 42264, Note_on_c, 6, 67, 0
10, 42265, Note_on_c, 6, 55, 0
10, 42301, Note_on_c, 6, 62, 81
10, 42301, Note_on_c, 6, 55, 80
10, 42301, Note_on_c, 6, 43, 97
10, 42301, Note_on_c, 6, 67, 91
10, 42301, Note_on_c, 6, 59, 93
10, 42378, Note_on_c, 6, 43, 0
10, 42378, Note_on_c, 6, 62, 0
10, 42378, Note_on_c, 6, 55, 0
10, 42383, Note_on_c, 6, 67, 0
10, 42383, Note_on_c, 6, 59, 0
10, 42421, Note_on_c, 6, 62, 76
10, 42421, Note_on_c, 6, 55, 67
10, 42421, Note_on_c, 6, 43, 79
10, 42421, Note_on_c, 6, 59, 71
10, 42421, Note_on_c, 6, 67, 61
10, 42441, Note_on_c, 6, 62, 0
10, 42442, Note_on_c, 6, 59, 0
10, 42442, Note_on_c, 6, 43, 0
10, 42443, Note_on_c, 6, 55, 0
10, 42444, Note_on_c, 6, 67, 0
10, 42481, Note_on_c, 6, 55, 66
10, 42481, Note_on_c, 6, 62, 72
10, 42481, Note_on_c, 6, 67, 73
10, 42481, Note_on_c, 6, 59, 84
10, 42481, Note_on_c, 6, 43, 81
10, 42502, Note_on_c, 6, 43, 0
10, 42502, Note_on_c, 6, 62, 0
10, 42503, Note_on_c, 6, 59, 0
10, 42504, Note_on_c, 6, 67, 0
10, 42504, Note_on_c, 6, 55, 0
10, 42541, Note_on_c, 6, 62, 84
10, 42541, Note_on_c, 6, 43, 92
10, 42541, Note_on_c, 6, 55, 85
10, 42541, Note_on_c, 6, 59, 91
10, 42541, Note_on_c, 6, 67, 92
10, 42619, Note_on_c, 6, 43, 0
10, 42621, Note_on_c, 6, 55, 0
10, 42624, Note_on_c, 6, 62, 0
10, 42624, Note_on_c, 6, 59, 0
10, 42626, Note_on_c, 6, 67, 0
10, 42661, Note_on_c, 6, 55, 61
10, 42661, Note_on_c, 6, 43, 84
10, 42661, Note_on_c, 6, 62, 68
10, 42661, Note_on_c, 6, 59, 73
10, 42661, Note_on_c, 6, 67, 51
10, 42673, Note_on_c, 6, 67, 0
10, 42673, Note_on_c, 6, 62, 0
10, 42674, Note_on_c, 6, 59, 0
10, 42674, Note_on_c, 6, 43, 0
10, 42679, Note_on_c, 6, 55, 0
10, 42721, Note_on_c, 6, 67, 78
10, 42721, Note_on_c, 6, 43, 85
10, 42721, Note_on_c, 6, 59, 83
10, 42721, Note_on_c, 6, 55, 74
10, 42722, Note_on_c, 6, 62, 73
10, 42733, Note_on_c, 6, 62, 0
10, 42733, Note_on_c, 6, 59, 0
10, 42742, Note_on_c, 6, 43, 0
10, 42743, Note_on_c, 6, 67, 0
10, 42744, Note_on_c, 6, 55, 0
10, 42781, Note_on_c, 6, 67, 91
10, 42781, Note_on_c, 6, 43, 97
10, 42781, Note_on_c, 6, 55, 86
10, 42781, Note_on_c, 6, 62, 81
10, 42781, Note_on_c, 6, 59, 91
10, 42851, Note_on_c, 6, 62, 0
10, 42851, Note_on_c, 6, 43, 0
10, 42853, Note_on_c, 6, 59, 0
10, 42853, Note_on_c, 6, 55, 0
10, 42858, Note_on_c, 6, 67, 0
10, 42901, Note_on_c, 6, 59, 79
10, 42901, Note_on_c, 6, 67, 77
10, 42901, Note_on_c, 6, 43, 89
10, 42901, Note_on_c, 6, 62, 72
10, 42901, Note_on_c, 6, 55, 70
10, 42923, Note_on_c, 6, 55, 0
10, 42923, Note_on_c, 6, 43, 0
10, 42923, Note_on_c, 6, 62, 0
10, 42923, Note_on_c, 6, 59, 0
10, 42924, Note_on_c, 6, 67, 0
10, 42961, Note_on_c, 6, 55, 73
10, 42961, Note_on_c, 6, 67, 78
10, 42961, Note_on_c, 6, 43, 86
10, 42961, Note_on_c, 6, 59, 81
10, 42961, Note_on_c, 6, 62, 71
10, 42973, Note_on_c, 6, 62, 0
10, 42973, Note_on_c, 6, 43, 0
10, 42973, Note_on_c, 6, 59, 0
10, 42988, Note_on_c, 6, 67, 0
10, 42988, Note_on_c, 6, 55, 0
10, 43021, Note_on_c, 6, 43, 102
10, 43021, Note_on_c, 6, 62, 80
10, 43021, Note_on_c, 6, 67, 91
10, 43021, Note_on_c, 6, 55, 85
10, 43021, Note_on_c, 6, 59, 85
10, 43089, Note_on_c, 6, 62, 0
10, 43094, Note_on_c, 6, 59, 0
10, 43098, Note_on_c, 6, 43, 0
10, 43102, Note_on_c, 6, 55, 0
10, 43107, Note_on_c, 6, 67, 0
10, 43141, Note_on_c, 6, 62, 74
10, 43141, Note_on_c, 6, 55, 65
10, 43141, Note_on_c, 6, 59, 81
10, 43141, Note_on_c, 6, 67, 75
10, 43141, Note_on_c, 6, 43, 91
10, 43152, Note_on_c, 6, 62, 0
10, 43162, Note_on_c, 6, 59, 0
10, 43163, Note_on_c, 6, 43, 0
10, 43163, Note_on_c, 6, 55, 0
10, 43168, Note_on_c, 6, 67, 0
10, 43201, Note_on_c, 6, 55, 78
10, 43201, Note_on_c, 6, 48, 86
10, 43201, Note_on_c, 6, 64, 80
10, 43201, Note_on_c, 6, 60, 84
10, 43222, Note_on_c, 6, 60, 0
10, 43222, Note_on_c, 6, 48, 0
10, 43223, Note_on_c, 6, 64, 0
10, 43223, Note_on_c, 6, 55, 0
10, 43261, Note_on_c, 6, 55, 78
10, 43261, Note_on_c, 6, 60, 82
10, 43261, Note_on_c, 6, 48, 99
10, 43261, Note_on_c, 6, 64, 81
10, 43337, Note_on_c, 6, 48, 0
10, 43337, Note_on_c, 6, 55, 0
10, 43342, Note_on_c, 6, 60, 0
10, 43342, Note_on_c, 6, 64, 0
10, 43381, Note_on_c, 6, 64, 75
10, 43381, Note_on_c, 6, 48, 89
10, 43381, Note_on_c, 6, 60, 82
10, 43381, Note_on_c, 6, 55, 79
10, 43391, Note_on_c, 6, 64, 0
10, 43401, Note_on_c, 6, 55, 0
10, 43401, Note_on_c, 6, 60, 0
10, 43402, Note_on_c, 6, 48, 0
10, 43441, Note_on_c, 6, 60, 78
10, 43441, Note_on_c, 6, 64, 73
10, 43441, Note_on_c, 6, 55, 62
10, 43441, Note_on_c, 6, 48, 90
10, 43452, Note_on_c, 6, 55, 0
10, 43461, Note_on_c, 6, 48, 0
10, 43461, Note_on_c, 6, 60, 0
10, 43462, Note_on_c, 6, 64, 0
10, 43501, Note_on_c, 6, 48, 106
10, 43501, Note_on_c, 6, 60, 82
10, 43501, Note_on_c, 6, 64, 84
10, 43501, Note_on_c, 6, 55, 85
10, 43577, Note_on_c, 6, 55, 0
10, 43577, Note_on_c, 6, 60, 0
10, 43582, Note_on_c, 6, 64, 0
10, 43587, Note_on_c, 6, 48, 0
10, 43621, Note_on_c, 6, 48, 87
10, 43621, Note_on_c, 6, 64, 78
10, 43621, Note_on_c, 6, 55, 81
10, 43621, Note_on_c, 6, 60, 85
10, 43631, Note_on_c, 6, 48, 0
10, 43639, Note_on_c, 6, 64, 0
10, 43639, Note_on_c, 6, 55, 0
10, 43639, Note_on_c, 6, 60, 0
10, 43681, Note_on_c, 6, 60, 83
10, 43681, Note_on_c, 6, 55, 81
10, 43681, Note_on_c, 6, 64, 79
10, 43681, Note_on_c, 6, 48, 90
10, 43701, Note_on_c, 6, 60, 0
10, 43702, Note_on_c, 6, 48, 0
10, 43703, Note_on_c, 6, 64, 0
10, 43703, Note_on_c, 6, 55, 0
10, 43741, Note_on_c, 6, 48, 95
10, 43741, Note_on_c, 6, 55, 86
10, 43741, Note_on_c, 6, 60, 86
10, 43741, Note_on_c, 6, 64, 89
10, 43814, Note_on_c, 6, 48, 0
10, 43818, Note_on_c, 6, 55, 0
10, 43818, Note_on_c, 6, 60, 0
10, 43819, Note_on_c, 6, 64, 0
10, 43861, Note_on_c, 6, 48, 87
10, 43861, Note_on_c, 6, 64, 73
10, 43861, Note_on_c, 6, 55, 69
10, 43861, Note_on_c, 6, 60, 76
10, 43882, Note_on_c, 6, 60, 0
10, 43882, Note_on_c, 6, 55, 0
10, 43882, Note_on_c, 6, 48, 0
10, 43883, Note_on_c, 6, 64, 0
10, 43921, Note_on_c, 6, 55, 75
10, 43921, Note_on_c, 6, 64, 84
10, 43921, Note_on_c, 6, 48, 95
10, 43921, Note_on_c, 6, 60, 82
10, 43942, Note_on_c, 6, 48, 0
10, 43943, Note_on_c, 6, 55, 0
10, 43943, Note_on_c, 6, 64, 0
10, 43943, Note_on_c, 6, 60, 0
10, 43981, Note_on_c, 6, 60, 87
10, 43981, Note_on_c, 6, 64, 89
10, 43981, Note_on_c, 6, 48, 114
10, 43981, Note_on_c, 6, 55, 87
10, 44061, Note_on_c, 6, 64, 0
10, 44062, Note_on_c, 6, 60, 0
10, 44062, Note_on_c, 6, 48, 0
10, 44062, Note_on_c, 6, 55, 0
10, 44101, Note_on_c, 6, 60, 74
10, 44101, Note_on_c, 6, 48, 82
10, 44101, Note_on_c, 6, 64, 73
10, 44101, Note_on_c, 6, 55, 64
10, 44112, Note_on_c, 6, 48, 0
10, 44119, Note_on_c, 6, 60, 0
10, 44119, Note_on_c, 6, 55, 0
10, 44121, Note_on_c, 6, 64, 0
10, 44161, Note_on_c, 6, 55, 78
10, 44161, Note_on_c, 6, 48, 97
10, 44161, Note_on_c, 6, 64, 84
10, 44161, Note_on_c, 6, 60, 82
10, 44182, Note_on_c, 6, 48, 0
10, 44182, Note_on_c, 6, 55, 0
10, 44183, Note_on_c, 6, 60, 0
10, 44184, Note_on_c, 6, 64, 0
10, 44221, Note_on_c, 6, 60, 82
10, 44221, Note_on_c, 6, 64, 84
10, 44221, Note_on_c, 6, 48, 106
10, 44221, Note_on_c, 6, 55, 83
10, 44288, Note_on_c, 6, 55, 0
10, 44288, Note_on_c, 6, 48, 0
10, 44292, Note_on_c, 6, 60, 0
10, 44293, Note_on_c, 6, 64, 0
10, 44341, Note_on_c, 6, 64, 71
10, 44341, Note_on_c, 6, 60, 74
10, 44341, Note_on_c, 6, 48, 106
10, 44341, Note_on_c, 6, 55, 68
10, 44362, Note_on_c, 6, 55, 0
10, 44362, Note_on_c, 6, 64, 0
10, 44362, Note_on_c, 6, 60, 0
10, 44363, Note_on_c, 6, 48, 0
10, 44401, Note_on_c, 6, 55, 76
10, 44401, Note_on_c, 6, 64, 84
10, 44401, Note_on_c, 6, 48, 97
10, 44401, Note_on_c, 6, 60, 80
10, 44422, Note_on_c, 6, 60, 0
10, 44422, Note_on_c, 6, 55, 0
10, 44422, Note_on_c, 6, 64, 0
10, 44422, Note_on_c, 6, 48, 0
10, 44461, Note_on_c, 6, 55, 87
10, 44461, Note_on_c, 6, 60, 89
10, 44461, Note_on_c, 6, 48, 114
10, 44461, Note_on_c, 6, 64, 91
10, 44536, Note_on_c, 6, 48, 0
10, 44536, Note_on_c, 6, 55, 0
10, 44536, Note_on_c, 6, 60, 0
10, 44541, Note_on_c, 6, 64, 0
10, 44581, Note_on_c, 6, 48, 93
10, 44581, Note_on_c, 6, 64, 77
10, 44581, Note_on_c, 6, 55, 70
10, 44581, Note_on_c, 6, 60, 74
10, 44602, Note_on_c, 6, 60, 0
10, 44602, Note_on_c, 6, 48, 0
10, 44603, Note_on_c, 6, 55, 0
10, 44603, Note_on_c, 6, 64, 0
10, 44641, Note_on_c, 6, 60, 83
10, 44641, Note_on_c, 6, 55, 81
10, 44641, Note_on_c, 6, 64, 79
10, 44641, Note_on_c, 6, 48, 90
10, 44661, Note_on_c, 6, 60, 0
10, 44662, Note_on_c, 6, 48, 0
10, 44663, Note_on_c, 6, 64, 0
10, 44663, Note_on_c, 6, 55, 0
10, 44701, Note_on_c, 6, 48, 95
10, 44701, Note_on_c, 6, 55, 86
10, 44701, Note_on_c, 6, 60, 86
10, 44701, Note_on_c, 6, 64, 89
10, 44774, Note_on_c, 6, 48, 0
10, 44778, Note_on_c, 6, 55, 0
10, 44778, Note_on_c, 6, 60, 0
10, 44779, Note_on_c, 6, 64, 0
10, 44821, Note_on_c, 6, 48, 87
10, 44821, Note_on_c, 6, 64, 73
10, 44821, Note_on_c, 6, 55, 69
10, 44821, Note_on_c, 6, 60, 76
10, 44842, Note_on_c, 6, 60, 0
10, 44842, Note_on_c, 6, 55, 0
10, 44842, Note_on_c, 6, 48, 0
10, 44843, Note_on_c, 6, 64, 0
10, 44881, Note_on_c, 6, 55, 75
10, 44881, Note_on_c, 6, 64, 84
10, 44881, Note_on_c, 6, 48, 95
10, 44881, Note_on_c, 6, 60, 82
10, 44902, Note_on_c, 6, 48, 0
10, 44903, Note_on_c, 6, 55, 0
10, 44903, Note_on_c, 6, 64, 0
10, 44903, Note_on_c, 6, 60, 0
10, 44941, Note_on_c, 6, 60, 87
10, 44941, Note_on_c, 6, 64, 89
10, 44941, Note_on_c, 6, 48, 114
10, 44941, Note_on_c, 6, 55, 87
10, 45021, Note_on_c, 6, 64, 0
10, 45022, Note_on_c, 6, 60, 0
10, 45022, Note_on_c, 6, 48, 0
10, 45022, Note_on_c, 6, 55, 0
10, 45061, Note_on_c, 6, 60, 74
10, 45061, Note_on_c, 6, 48, 82
10, 45061, Note_on_c, 6, 64, 73
10, 45061, Note_on_c, 6, 55, 64
10, 45072, Note_on_c, 6, 48, 0
10, 45079, Note_on_c, 6, 60, 0
10, 45079, Note_on_c, 6, 55, 0
10, 45081, Note_on_c, 6, 64, 0
10, 45121, Note_on_c, 6, 55, 78
10, 45121, Note_on_c, 6, 48, 97
10, 45121, Note_on_c, 6, 64, 84
10, 45121, Note_on_c, 6, 60, 82
10, 45142, Note_on_c, 6, 48, 0
10, 45142, Note_on_c, 6, 55, 0
10, 45143, Note_on_c, 6, 60, 0
10, 45144, Note_on_c, 6, 64, 0
10, 45181, Note_on_c, 6, 60, 82
10, 45181, Note_on_c, 6, 64, 84
10, 45181, Note_on_c, 6, 48, 106
10, 45181, Note_on_c, 6, 55, 83
10, 45248, Note_on_c, 6, 55, 0
10, 45248, Note_on_c, 6, 48, 0
10, 45252, Note_on_c, 6, 60, 0
10, 45253, Note_on_c, 6, 64, 0
10, 45301, Note_on_c, 6, 64, 71
10, 45301, Note_on_c, 6, 60, 74
10, 45301, Note_on_c, 6, 48, 106
10, 45301, Note_on_c, 6, 55, 68
10, 45322, Note_on_c, 6, 55, 0
10, 45322, Note_on_c, 6, 64, 0
10, 45322, Note_on_c, 6, 60, 0
10, 45323, Note_on_c, 6, 48, 0
10, 45361, Note_on_c, 6, 55, 76
10, 45361, Note_on_c, 6, 64, 84
10, 45361, Note_on_c, 6, 48, 97
10, 45361, Note_on_c, 6, 60, 80
10, 45382, Note_on_c, 6, 60, 0
10, 45382, Note_on_c, 6, 55, 0
10, 45382, Note_on_c, 6, 64, 0
10, 45382, Note_on_c, 6, 48, 0
10, 45421, Note_on_c, 6, 55, 87
10, 45421, Note_on_c, 6, 60, 89
10, 45421, Note_on_c, 6, 48, 114
10, 45421, Note_on_c, 6, 64, 91
10, 45496, Note_on_c, 6, 48, 0
10, 45496, Note_on_c, 6, 55, 0
10, 45496, Note_on_c, 6, 60, 0
10, 45501, Note_on_c, 6, 64, 0
10, 45541, Note_on_c, 6, 48, 93
10, 45541, Note_on_c, 6, 64, 77
10, 45541, Note_on_c, 6, 55, 70
10, 45541, Note_on_c, 6, 60, 74
10, 45562, Note_on_c, 6, 60, 0
10, 45562, Note_on_c, 6, 48, 0
10, 45563, Note_on_c, 6, 55, 0
10, 45563, Note_on_c, 6, 64, 0
10, 45601, Note_on_c, 6, 55, 78
10, 45601, Note_on_c, 6, 48, 97
10, 45601, Note_on_c, 6, 64, 84
10, 45601, Note_on_c, 6, 60, 82
10, 45622, Note_on_c, 6, 48, 0
10, 45622, Note_on_c, 6, 55, 0
10, 45623, Note_on_c, 6, 60, 0
10, 45624, Note_on_c, 6, 64, 0
10, 45661, Note_on_c, 6, 60, 82
10, 45661, Note_on_c, 6, 64, 84
10, 45661, Note_on_c, 6, 48, 106
10, 45661, Note_on_c, 6, 55, 83
10, 45728, Note_on_c, 6, 55, 0
10, 45728, Note_on_c, 6, 48, 0
10, 45732, Note_on_c, 6, 60, 0
10, 45733, Note_on_c, 6, 64, 0
10, 45781, Note_on_c, 6, 64, 71
10, 45781, Note_on_c, 6, 60, 74
10, 45781, Note_on_c, 6, 48, 106
10, 45781, Note_on_c, 6, 55, 68
10, 45802, Note_on_c, 6, 55, 0
10, 45802, Note_on_c, 6, 64, 0
10, 45802, Note_on_c, 6, 60, 0
10, 45803, Note_on_c, 6, 48, 0
10, 45841, Note_on_c, 6, 55, 76
10, 45841, Note_on_c, 6, 64, 84
10, 45841, Note_on_c, 6, 48, 97
10, 45841, Note_on_c, 6, 60, 80
10, 45862, Note_on_c, 6, 60, 0
10, 45862, Note_on_c, 6, 55, 0
10, 45862, Note_on_c, 6, 64, 0
10, 45862, Note_on_c, 6, 48, 0
10, 45901, Note_on_c, 6, 55, 87
10, 45901, Note_on_c, 6, 60, 89
10, 45901, Note_on_c, 6, 48, 114
10, 45901, Note_on_c, 6, 64, 91
10, 45976, Note_on_c, 6, 48, 0
10, 45976, Note_on_c, 6, 55, 0
10, 45976, Note_on_c, 6, 60, 0
10, 45981, Note_on_c, 6, 64, 0
10, 46021, Note_on_c, 6, 48, 93
10, 46021, Note_on_c, 6, 64, 77
10, 46021, Note_on_c, 6, 55, 70
10, 46021, Note_on_c, 6, 60, 74
10, 46042, Note_on_c, 6, 60, 0
10, 46042, Note_on_c, 6, 48, 0
10, 46043, Note_on_c, 6, 55, 0
10, 46043, Note_on_c, 6, 64, 0
10, 46081, Note_on_c, 6, 43, 82
10, 46081, Note_on_c, 6, 59, 88
10, 46081, Note_on_c, 6, 67, 79
10, 46081, Note_on_c, 6, 55, 75
10, 46081, Note_on_c, 6, 62, 74
10, 46092, Note_on_c, 6, 62, 0
10, 46102, Note_on_c, 6, 43, 0
10, 46103, Note_on_c, 6, 59, 0
10, 46103, Note_on_c, 6, 55, 0
10, 46104, Note_on_c, 6, 67, 0
10, 46141, Note_on_c, 6, 59, 98
10, 46141, Note_on_c, 6, 67, 97
10, 46141, Note_on_c, 6, 43, 97
10, 46141, Note_on_c, 6, 62, 87
10, 46141, Note_on_c, 6, 55, 90
10, 46217, Note_on_c, 6, 62, 0
10, 46218, Note_on_c, 6, 43, 0
10, 46218, Note_on_c, 6, 59, 0
10, 46219, Note_on_c, 6, 55, 0
10, 46224, Note_on_c, 6, 67, 0
10, 46261, Note_on_c, 6, 55, 65
10, 46261, Note_on_c, 6, 43, 82
10, 46261, Note_on_c, 6, 59, 75
10, 46261, Note_on_c, 6, 67, 69
10, 46261, Note_on_c, 6, 62, 72
10, 46272, Note_on_c, 6, 62, 0
10, 46282, Note_on_c, 6, 43, 0
10, 46283, Note_on_c, 6, 55, 0
10, 46283, Note_on_c, 6, 59, 0
10, 46283, Note_on_c, 6, 67, 0
10, 46321, Note_on_c, 6, 62, 74
10, 46321, Note_on_c, 6, 43, 91
10, 46321, Note_on_c, 6, 59, 88
10, 46321, Note_on_c, 6, 67, 87
10, 46321, Note_on_c, 6, 55, 80
10, 46333, Note_on_c, 6, 62, 0
10, 46334, Note_on_c, 6, 59, 0
10, 46339, Note_on_c, 6, 43, 0
10, 46347, Note_on_c, 6, 67, 0
10, 46348, Note_on_c, 6, 55, 0
10, 46381, Note_on_c, 6, 67, 95
10, 46381, Note_on_c, 6, 62, 82
10, 46381, Note_on_c, 6, 55, 91
10, 46381, Note_on_c, 6, 59, 93
10, 46381, Note_on_c, 6, 43, 93
10, 46452, Note_on_c, 6, 62, 0
10, 46457, Note_on_c, 6, 59, 0
10, 46467, Note_on_c, 6, 67, 0
10, 46467, Note_on_c, 6, 55, 0
10, 46467, Note_on_c, 6, 43, 0
10, 46501, Note_on_c, 6, 43, 80
10, 46501, Note_on_c, 6, 59, 77
10, 46501, Note_on_c, 6, 67, 70
10, 46501, Note_on_c, 6, 62, 74
10, 46501, Note_on_c, 6, 55, 59
10, 46513, Note_on_c, 6, 62, 0
10, 46513, Note_on_c, 6, 43, 0
10, 46522, Note_on_c, 6, 59, 0
10, 46522, Note_on_c, 6, 55, 0
10, 46524, Note_on_c, 6, 67, 0
10, 46561, Note_on_c, 6, 43, 82
10, 46561, Note_on_c, 6, 59, 88
10, 46561, Note_on_c, 6, 67, 79
10, 46561, Note_on_c, 6, 55, 75
10, 46561, Note_on_c, 6, 62, 74
10, 46572, Note_on_c, 6, 62, 0
10, 46582, Note_on_c, 6, 43, 0
10, 46583, Note_on_c, 6, 59, 0
10, 46583, Note_on_c, 6, 55, 0
10, 46584, Note_on_c, 6, 67, 0
10, 46621, Note_on_c, 6, 59, 98
10, 46621, Note_on_c, 6, 67, 97
10, 46621, Note_on_c, 6, 43, 97
10, 46621, Note_on_c, 6, 62, 87
10, 46621, Note_on_c, 6, 55, 90
10, 46697, Note_on_c, 6, 62, 0
10, 46698, Note_on_c, 6, 43, 0
10, 46698, Note_on_c, 6, 59, 0
10, 46699, Note_on_c, 6, 55, 0
10, 46704, Note_on_c, 6, 67, 0
10, 46741, Note_on_c, 6, 55, 65
10, 46741, Note_on_c, 6, 43, 82
10, 46741, Note_on_c, 6, 59, 75
10, 46741, Note_on_c, 6, 67, 69
10, 46741, Note_on_c, 6, 62, 72
10, 46752, Note_on_c, 6, 62, 0
10, 46762, Note_on_c, 6, 43, 0
10, 46763, Note_on_c, 6, 55, 0
10, 46763, Note_on_c, 6, 59, 0
10, 46763, Note_on_c, 6, 67, 0
10, 46801, Note_on_c, 6, 62, 74
10, 46801, Note_on_c, 6, 43, 91
10, 46801, Note_on_c, 6, 59, 88
10, 46801, Note_on_c, 6, 67, 87
10, 46801, Note_on_c, 6, 55, 80
10, 46813, Note_on_c, 6, 62, 0
10, 46814, Note_on_c, 6, 59, 0
10, 46819, Note_on_c, 6, 43, 0
10, 46827, Note_on_c, 6, 67, 0
10, 46828, Note_on_c, 6, 55, 0
10, 46861, Note_on_c, 6, 67, 95
10, 46861, Note_on_c, 6, 62, 82
10, 46861, Note_on_c, 6, 55, 91
10, 46861, Note_on_c, 6, 59, 93
10, 46861, Note_on_c, 6, 43, 93
10, 46932, Note_on_c, 6, 62, 0
10, 46937, Note_on_c, 6, 59, 0
10, 46947, Note_on_c, 6, 67, 0
10, 46947, Note_on_c, 6, 55, 0
10, 46947, Note_on_c, 6, 43, 0
10, 46981, Note_on_c, 6, 43, 80
10, 46981, Note_on_c, 6, 59, 77
10, 46981, Note_on_c, 6, 67, 70
10, 46981, Note_on_c, 6, 62, 74
10, 46981, Note_on_c, 6, 55, 59
10, 46993, Note_on_c, 6, 62, 0
10, 46993, Note_on_c, 6, 43, 0
10, 47002, Note_on_c, 6, 59, 0
10, 47002, Note_on_c, 6, 55, 0
10, 47004, Note_on_c, 6, 67, 0
10, 47041, Note_on_c, 6, 55, 78
10, 47041, Note_on_c, 6, 48, 97
10, 47041, Note_on_c, 6, 64, 84
10, 47041, Note_on_c, 6, 60, 82
10, 47062, Note_on_c, 6, 48, 0
10, 47062, Note_on_c, 6, 55, 0
10, 47063, Note_on_c, 6, 60, 0
10, 47064, Note_on_c, 6, 64, 0
10, 47101, Note_on_c, 6, 60, 82
10, 47101, Note_on_c, 6, 64, 84
10, 47101, Note_on_c, 6, 48, 106
10, 47101, Note_on_c, 6, 55, 83
10, 47168, Note_on_c, 6, 55, 0
10, 47168, Note_on_c, 6, 48, 0
10, 47172, Note_on_c, 6, 60, 0
10, 47173, Note_on_c, 6, 64, 0
10, 47221, Note_on_c, 6, 64, 71
10, 47221, Note_on_c, 6, 60, 74
10, 47221, Note_on_c, 6, 48, 106
10, 47221, Note_on_c, 6, 55, 68
10, 47242, Note_on_c, 6, 55, 0
10, 47242, Note_on_c, 6, 64, 0
10, 47242, Note_on_c, 6, 60, 0
10, 47243, Note_on_c, 6, 48, 0
10, 47281, Note_on_c, 6, 55, 76
10, 47281, Note_on_c, 6, 64, 84
10, 47281, Note_on_c, 6, 48, 97
10, 47281, Note_on_c, 6, 60, 80
10, 47302, Note_on_c, 6, 60, 0
10, 47302, Note_on_c, 6, 55, 0
10, 47302, Note_on_c, 6, 64, 0
10, 47302, Note_on_c, 6, 48, 0
10, 47341, Note_on_c, 6, 55, 87
10, 47341, Note_on_c, 6, 60, 89
10, 47341, Note_on_c, 6, 48, 114
10, 47341, Note_on_c, 6, 64, 91
10, 47416, Note_on_c, 6, 48, 0
10, 47416, Note_on_c, 6, 55, 0
10, 47416, Note_on_c, 6, 60, 0
10, 47421, Note_on_c, 6, 64, 0
10, 47461, Note_on_c, 6, 48, 93
10, 47461, Note_on_c, 6, 64, 77
10, 47461, Note_on_c, 6, 55, 70
10, 47461, Note_on_c, 6, 60, 74
10, 47482, Note_on_c, 6, 60, 0
10, 47482, Note_on_c, 6, 48, 0
10, 47483, Note_on_c, 6, 55, 0
10, 47483, Note_on_c, 6, 64, 0
10, 47521, Note_on_c, 6, 60, 79
10, 47521, Note_on_c, 6, 48, 91
10, 47521, Note_on_c, 6, 55, 74
10, 47521, Note_on_c, 6, 64, 77
10, 47532, Note_on_c, 6, 60, 0
10, 47539, Note_on_c, 6, 48, 0
10, 47539, Note_on_c, 6, 55, 0
10, 47548, Note_on_c, 6, 64, 0
10, 47581, Note_on_c, 6, 60, 81
10, 47581, Note_on_c, 6, 48, 110
10, 47581, Note_on_c, 6, 64, 82
10, 47581, Note_on_c, 6, 55, 81
10, 47658, Note_on_c, 6, 55, 0
10, 47658, Note_on_c, 6, 48, 0
10, 47663, Note_on_c, 6, 64, 0
10, 47663, Note_on_c, 6, 60, 0
10, 47701, Note_on_c, 6, 48, 95
10, 47701, Note_on_c, 6, 60, 78
10, 47701, Note_on_c, 6, 55, 73
10, 47701, Note_on_c, 6, 64, 75
10, 47711, Note_on_c, 6, 48, 0
10, 47721, Note_on_c, 6, 60, 0
10, 47721, Note_on_c, 6, 55, 0
10, 47721, Note_on_c, 6, 64, 0
10, 47761, Note_on_c, 6, 64, 71
10, 47761, Note_on_c, 6, 60, 74
10, 47761, Note_on_c, 6, 48, 90
10, 47761, Note_on_c, 6, 55, 67
10, 47772, Note_on_c, 6, 48, 0
10, 47783, Note_on_c, 6, 55, 0
10, 47783, Note_on_c, 6, 60, 0
10, 47784, Note_on_c, 6, 64, 0
10, 47821, Note_on_c, 6, 64, 83
10, 47821, Note_on_c, 6, 55, 79
10, 47821, Note_on_c, 6, 60, 80
10, 47821, Note_on_c, 6, 48, 110
10, 47891, Note_on_c, 6, 48, 0
10, 47891, Note_on_c, 6, 60, 0
10, 47896, Note_on_c, 6, 55, 0
10, 47896, Note_on_c, 6, 64, 0
10, 47941, Note_on_c, 6, 55, 66
10, 47941, Note_on_c, 6, 64, 67
10, 47941, Note_on_c, 6, 48, 91
10, 47941, Note_on_c, 6, 60, 74
10, 47952, Note_on_c, 6, 48, 0
10, 47953, Note_on_c, 6, 60, 0
10, 47957, Note_on_c, 6, 55, 0
10, 47962, Note_on_c, 6, 64, 0
10, 48001, Note_on_c, 6, 48, 92
10, 48001, Note_on_c, 6, 60, 78
10, 48001, Note_on_c, 6, 64, 80
10, 48001, Note_on_c, 6, 55, 74
10, 48021, Note_on_c, 6, 55, 0
10, 48022, Note_on_c, 6, 48, 0
10, 48022, Note_on_c, 6, 60, 0
10, 48023, Note_on_c, 6, 64, 0
10, 48061, Note_on_c, 6, 55, 87
10, 48061, Note_on_c, 6, 60, 87
10, 48061, Note_on_c, 6, 48, 99
10, 48061, Note_on_c, 6, 64, 89
10, 48137, Note_on_c, 6, 60, 0
10, 48137, Note_on_c, 6, 55, 0
10, 48138, Note_on_c, 6, 48, 0
10, 48143, Note_on_c, 6, 64, 0
10, 48181, Note_on_c, 6, 60, 71
10, 48181, Note_on_c, 6, 48, 89
10, 48181, Note_on_c, 6, 64, 71
10, 48181, Note_on_c, 6, 55, 68
10, 48192, Note_on_c, 6, 60, 0
10, 48197, Note_on_c, 6, 55, 0
10, 48202, Note_on_c, 6, 64, 0
10, 48202, Note_on_c, 6, 48, 0
10, 48241, Note_on_c, 6, 55, 64
10, 48241, Note_on_c, 6, 60, 72
10, 48241, Note_on_c, 6, 48, 90
10, 48241, Note_on_c, 6, 64, 74
10, 48261, Note_on_c, 6, 55, 0
10, 48262, Note_on_c, 6, 60, 0
10, 48262, Note_on_c, 6, 48, 0
10, 48263, Note_on_c, 6, 64, 0
10, 48301, Note_on_c, 6, 64, 87
10, 48301, Note_on_c, 6, 48, 102
10, 48301, Note_on_c, 6, 60, 82
10, 48301, Note_on_c, 6, 55, 81
10, 48378, Note_on_c, 6, 55, 0
10, 48378, Note_on_c, 6, 48, 0
10, 48381, Note_on_c, 6, 60, 0
10, 48382, Note_on_c, 6, 64, 0
10, 48421, Note_on_c, 6, 55, 69
10, 48421, Note_on_c, 6, 48, 92
10, 48421, Note_on_c, 6, 64, 78
10, 48421, Note_on_c, 6, 60, 73
10, 48442, Note_on_c, 6, 60, 0
10, 48442, Note_on_c, 6, 48, 0
10, 48443, Note_on_c, 6, 64, 0
10, 48443, Note_on_c, 6, 55, 0
10, 48481, Note_on_c, 6, 48, 97
10, 48481, Note_on_c, 6, 55, 77
10, 48481, Note_on_c, 6, 64, 84
10, 48481, Note_on_c, 6, 60, 77
10, 48503, Note_on_c, 6, 60, 0
10, 48503, Note_on_c, 6, 48, 0
10, 48503, Note_on_c, 6, 55, 0
10, 48503, Note_on_c, 6, 64, 0
10, 48541, Note_on_c, 6, 55, 79
10, 48541, Note_on_c, 6, 48, 97
10, 48541, Note_on_c, 6, 60, 85
10, 48541, Note_on_c, 6, 64, 87
10, 48617, Note_on_c, 6, 55, 0
10, 48618, Note_on_c, 6, 64, 0
10, 48618, Note_on_c, 6, 60, 0
10, 48619, Note_on_c, 6, 48, 0
10, 48661, Note_on_c, 6, 55, 76
10, 48661, Note_on_c, 6, 48, 90
10, 48661, Note_on_c, 6, 64, 80
10, 48661, Note_on_c, 6, 60, 76
10, 48682, Note_on_c, 6, 60, 0
10, 48682, Note_on_c, 6, 55, 0
10, 48683, Note_on_c, 6, 64, 0
10, 48683, Note_on_c, 6, 48, 0
10, 48721, Note_on_c, 6, 48, 90
10, 48721, Note_on_c, 6, 64, 79
10, 48721, Note_on_c, 6, 55, 64
10, 48721, Note_on_c, 6, 60, 77
10, 48731, Note_on_c, 6, 55, 0
10, 48741, Note_on_c, 6, 48, 0
10, 48741, Note_on_c, 6, 64, 0
10, 48741, Note_on_c, 6, 60, 0
10, 48781, Note_on_c, 6, 60, 89
10, 48781, Note_on_c, 6, 55, 86
10, 48781, Note_on_c, 6, 64, 91
10, 48781, Note_on_c, 6, 48, 99
10, 48854, Note_on_c, 6, 48, 0
10, 48854, Note_on_c, 6, 64, 0
10, 48854, Note_on_c, 6, 60, 0
10, 48856, Note_on_c, 6, 55, 0
10, 48901, Note_on_c, 6, 64, 82
10, 48901, Note_on_c, 6, 55, 80
10, 48901, Note_on_c, 6, 48, 95
10, 48901, Note_on_c, 6, 60, 83
10, 48911, Note_on_c, 6, 64, 0
10, 48912, Note_on_c, 6, 48, 0
10, 48919, Note_on_c, 6, 55, 0
10, 48919, Note_on_c, 6, 60, 0
10, 48961, Note_on_c, 6, 60, 86
10, 48961, Note_on_c, 6, 64, 84
10, 48961, Note_on_c, 6, 55, 77
10, 48961, Note_on_c, 6, 48, 92
10, 48972, Note_on_c, 6, 55, 0
10, 48973, Note_on_c, 6, 64, 0
10, 48979, Note_on_c, 6, 60, 0
10, 48979, Note_on_c, 6, 48, 0
10, 49021, Note_on_c, 6, 64, 87
10, 49021, Note_on_c, 6, 60, 86
10, 49021, Note_on_c, 6, 55, 85
10, 49021, Note_on_c, 6, 48, 102
10, 49086, Note_on_c, 6, 55, 0
10, 49086, Note_on_c, 6, 60, 0
10, 49091, Note_on_c, 6, 64, 0
10, 49097, Note_on_c, 6, 48, 0
10, 49141, Note_on_c, 6, 48, 85
10, 49141, Note_on_c, 6, 55, 74
10, 49141, Note_on_c, 6, 64, 77
10, 49141, Note_on_c, 6, 60, 66
10, 49152, Note_on_c, 6, 60, 0
10, 49152, Note_on_c, 6, 64, 0
10, 49159, Note_on_c, 6, 55, 0
10, 49159, Note_on_c, 6, 48, 0
10, 49201, Note_on_c, 6, 64, 86
10, 49201, Note_on_c, 6, 48, 106
10, 49201, Note_on_c, 6, 60, 81
10, 49201, Note_on_c, 6, 55, 81
10, 49222, Note_on_c, 6, 60, 0
10, 49223, Note_on_c, 6, 55, 0
10, 49223, Note_on_c, 6, 48, 0
10, 49224, Note_on_c, 6, 64, 0
10, 49261, Note_on_c, 6, 64, 89
10, 49261, Note_on_c, 6, 55, 87
10, 49261, Note_on_c, 6, 60, 89
10, 49261, Note_on_c, 6, 48, 106
10, 49337, Note_on_c, 6, 48, 0
10, 49342, Note_on_c, 6, 64, 0
10, 49342, Note_on_c, 6, 55, 0
10, 49342, Note_on_c, 6, 60, 0
10, 49381, Note_on_c, 6, 48, 97
10, 49381, Note_on_c, 6, 64, 70
10, 49381, Note_on_c, 6, 60, 70
10, 49381, Note_on_c, 6, 55, 63
10, 49402, Note_on_c, 6, 60, 0
10, 49402, Note_on_c, 6, 48, 0
10, 49403, Note_on_c, 6, 64, 0
10, 49403, Note_on_c, 6, 55, 0
10, 49441, Note_on_c, 6, 48, 97
10, 49441, Note_on_c, 6, 64, 80
10, 49441, Note_on_c, 6, 55, 74
10, 49442, Note_on_c, 6, 60, 78
10, 49450, Note_on_c, 6, 60, 0
10, 49457, Note_on_c, 6, 48, 0
10, 49462, Note_on_c, 6, 55, 0
10, 49462, Note_on_c, 6, 64, 0
10, 49501, Note_on_c, 6, 60, 85
10, 49501, Note_on_c, 6, 48, 114
10, 49501, Note_on_c, 6, 64, 86
10, 49501, Note_on_c, 6, 55, 83
10, 49574, Note_on_c, 6, 48, 0
10, 49577, Note_on_c, 6, 60, 0
10, 49577, Note_on_c, 6, 55, 0
10, 49583, Note_on_c, 6, 64, 0
10, 49621, Note_on_c, 6, 60, 78
10, 49621, Note_on_c, 6, 48, 85
10, 49621, Note_on_c, 6, 55, 69
10, 49621, Note_on_c, 6, 64, 79
10, 49642, Note_on_c, 6, 55, 0
10, 49642, Note_on_c, 6, 60, 0
10, 49643, Note_on_c, 6, 48, 0
10, 49643, Note_on_c, 6, 64, 0
10, 49681, Note_on_c, 6, 60, 73
10, 49681, Note_on_c, 6, 48, 79
10, 49681, Note_on_c, 6, 55, 60
10, 49681, Note_on_c, 6, 64, 67
10, 49692, Note_on_c, 6, 60, 0
10, 49693, Note_on_c, 6, 64, 0
10, 49698, Note_on_c, 6, 48, 0
10, 49702, Note_on_c, 6, 55, 0
10, 49741, Note_on_c, 6, 60, 87
10, 49741, Note_on_c, 6, 64, 88
10, 49741, Note_on_c, 6, 55, 82
10, 49741, Note_on_c, 6, 48, 97
10, 49816, Note_on_c, 6, 48, 0
10, 49818, Note_on_c, 6, 55, 0
10, 49821, Note_on_c, 6, 64, 0
10, 49822, Note_on_c, 6, 60, 0
10, 49861, Note_on_c, 6, 48, 83
10, 49861, Note_on_c, 6, 64, 70
10, 49861, Note_on_c, 6, 55, 71
10, 49861, Note_on_c, 6, 60, 75
10, 49873, Note_on_c, 6, 60, 0
10, 49878, Note_on_c, 6, 48, 0
10, 49882, Note_on_c, 6, 55, 0
10, 49883, Note_on_c, 6, 64, 0
10, 49921, Note_on_c, 6, 67, 65
10, 49921, Note_on_c, 6, 59, 83
10, 49921, Note_on_c, 6, 43, 81
10, 49921, Note_on_c, 6, 62, 76
10, 49922, Note_on_c, 6, 55, 68
10, 49934, Note_on_c, 6, 62, 0
10, 49934, Note_on_c, 6, 43, 0
10, 49936, Note_on_c, 6, 59, 0
10, 49944, Note_on_c, 6, 67, 0
10, 49945, Note_on_c, 6, 55, 0
10, 49981, Note_on_c, 6, 62, 81
10, 49981, Note_on_c, 6, 55, 80
10, 49981, Note_on_c, 6, 43, 97
10, 49981, Note_on_c, 6, 67, 91
10, 49981, Note_on_c, 6, 59, 93
10, 50058, Note_on_c, 6, 43, 0
10, 50058, Note_on_c, 6, 62, 0
10, 50058, Note_on_c, 6, 55, 0
10, 50063, Note_on_c, 6, 67, 0
10, 50063, Note_on_c, 6, 59, 0
10, 50101, Note_on_c, 6, 62, 76
10, 50101, Note_on_c, 6, 55, 67
10, 50101, Note_on_c, 6, 43, 79
10, 50101, Note_on_c, 6, 59, 71
10, 50101, Note_on_c, 6, 67, 61
10, 50121, Note_on_c, 6, 62, 0
10, 50122, Note_on_c, 6, 59, 0
10, 50122, Note_on_c, 6, 43, 0
10, 50123, Note_on_c, 6, 55, 0
10, 50124, Note_on_c, 6, 67, 0
10, 50161, Note_on_c, 6, 55, 66
10, 50161, Note_on_c, 6, 62, 72
10, 50161, Note_on_c, 6, 67, 73
10, 50161, Note_on_c, 6, 59, 84
10, 50161, Note_on_c, 6, 43, 81
10, 50182, Note_on_c, 6, 43, 0
10, 50182, Note_on_c, 6, 62, 0
10, 50183, Note_on_c, 6, 59, 0
10, 50184, Note_on_c, 6, 67, 0
10, 50184, Note_on_c, 6, 55, 0
10, 50221, Note_on_c, 6, 62, 84
10, 50221, Note_on_c, 6, 43, 92
10, 50221, Note_on_c, 6, 55, 85
10, 50221, Note_on_c, 6, 59, 91
10, 50221, Note_on_c, 6, 67, 92
10, 50299, Note_on_c, 6, 43, 0
10, 50301, Note_on_c, 6, 55, 0
10, 50304, Note_on_c, 6, 62, 0
10, 50304, Note_on_c, 6, 59, 0
10, 50306, Note_on_c, 6, 67, 0
10, 50341, Note_on_c, 6, 55, 61
10, 50341, Note_on_c, 6, 43, 84
10, 50341, Note_on_c, 6, 62, 68
10, 50341, Note_on_c, 6, 59, 73
10, 50341, Note_on_c, 6, 67, 51
10, 50353, Note_on_c, 6, 67, 0
10, 50353, Note_on_c, 6, 62, 0
10, 50354, Note_on_c, 6, 59, 0
10, 50354, Note_on_c, 6, 43, 0
10, 50359, Note_on_c, 6, 55, 0
10, 50401, Note_on_c, 6, 67, 78
10, 50401, Note_on_c, 6, 43, 85
10, 50401, Note_on_c, 6, 59, 83
10, 50401, Note_on_c, 6, 55, 74
10, 50402, Note_on_c, 6, 62, 73
10, 50413, Note_on_c, 6, 62, 0
10, 50413, Note_on_c, 6, 59, 0
10, 50422, Note_on_c, 6, 43, 0
10, 50423, Note_on_c, 6, 67, 0
10, 50424, Note_on_c, 6, 55, 0
10, 50461, Note_on_c, 6, 67, 91
10, 50461, Note_on_c, 6, 43, 97
10, 50461, Note_on_c, 6, 55, 86
10, 50461, Note_on_c, 6, 62, 81
10, 50461, Note_on_c, 6, 59, 91
10, 50531, Note_on_c, 6, 62, 0
10, 50531, Note_on_c, 6, 43, 0
10, 50533, Note_on_c, 6, 59, 0
10, 50533, Note_on_c, 6, 55, 0
10, 50538, Note_on_c, 6, 67, 0
10, 50581, Note_on_c, 6, 59, 79
10, 50581, Note_on_c, 6, 67, 77
10, 50581, Note_on_c, 6, 43, 89
10, 50581, Note_on_c, 6, 62, 72
10, 50581, Note_on_c, 6, 55, 70
10, 50603, Note_on_c, 6, 55, 0
10, 50603, Note_on_c, 6, 43, 0
10, 50603, Note_on_c, 6, 62, 0
10, 50603, Note_on_c, 6, 59, 0
10, 50604, Note_on_c, 6, 67, 0
10, 50641, Note_on_c, 6, 55, 73
10, 50641, Note_on_c, 6, 67, 78
10, 50641, Note_on_c, 6, 43, 86
10, 50641, Note_on_c, 6, 59, 81
10, 50641, Note_on_c, 6, 62, 71
10, 50653, Note_on_c, 6, 62, 0
10, 50653, Note_on_c, 6, 43, 0
10, 50653, Note_on_c, 6, 59, 0
10, 50668, Note_on_c, 6, 67, 0
10, 50668, Note_on_c, 6, 55, 0
10, 50701, Note_on_c, 6, 43, 102
10, 50701, Note_on_c, 6, 62, 80
10, 50701, Note_on_c, 6, 67, 91
10, 50701, Note_on_c, 6, 55, 85
10, 50701, Note_on_c, 6, 59, 85
10, 50769, Note_on_c, 6, 62, 0
10, 50774, Note_on_c, 6, 59, 0
10, 50778, Note_on_c, 6, 43, 0
10, 50782, Note_on_c, 6, 55, 0
10, 50787, Note_on_c, 6, 67, 0
10, 50821, Note_on_c, 6, 62, 74
10, 50821, Note_on_c, 6, 55, 65
10, 50821, Note_on_c, 6, 59, 81
10, 50821, Note_on_c, 6, 67, 75
10, 50821, Note_on_c, 6, 43, 91
10, 50832, Note_on_c, 6, 62, 0
10, 50842, Note_on_c, 6, 59, 0
10, 50843, Note_on_c, 6, 43, 0
10, 50843, Note_on_c, 6, 55, 0
10, 50848, Note_on_c, 6, 67, 0
10, 50881, Note_on_c, 6, 55, 78
10, 50881, Note_on_c, 6, 48, 86
10, 50881, Note_on_c, 6, 64, 80
10, 50881, Note_on_c, 6, 60, 84
10, 50902, Note_on_c, 6, 60, 0
10, 50902, Note_on_c, 6, 48, 0
10, 50903, Note_on_c, 6, 64, 0
10, 50903, Note_on_c, 6, 55, 0
10, 50941, Note_on_c, 6, 55, 78
10, 50941, Note_on_c, 6, 60, 82
10, 50941, Note_on_c, 6, 48, 99
10, 50941, Note_on_c, 6, 64, 81
10, 51017, Note_on_c, 6, 48, 0
10, 51017, Note_on_c, 6, 55, 0
10, 51022, Note_on_c, 6, 60, 0
10, 51022, Note_on_c, 6, 64, 0
10, 51061, Note_on_c, 6, 64, 75
10, 51061, Note_on_c, 6, 48, 89
10, 51061, Note_on_c, 6, 60, 82
10, 51061, Note_on_c, 6, 55, 79
10, 51071, Note_on_c, 6, 64, 0
10, 51081, Note_on_c, 6, 55, 0
10, 51081, Note_on_c, 6, 60, 0
10, 51082, Note_on_c, 6, 48, 0
10, 51121, Note_on_c, 6, 60, 78
10, 51121, Note_on_c, 6, 64, 73
10, 51121, Note_on_c, 6, 55, 62
10, 51121, Note_on_c, 6, 48, 90
10, 51132, Note_on_c, 6, 55, 0
10, 51141, Note_on_c, 6, 48, 0
10, 51141, Note_on_c, 6, 60, 0
10, 51142, Note_on_c, 6, 64, 0
10, 51181, Note_on_c, 6, 48, 106
10, 51181, Note_on_c, 6, 60, 82
10, 51181, Note_on_c, 6, 64, 84
10, 51181, Note_on_c, 6, 55, 85
10, 51257, Note_on_c, 6, 55, 0
10, 51257, Note_on_c, 6, 60, 0
10, 51262, Note_on_c, 6, 64, 0
10, 51267, Note_on_c, 6, 48, 0
10, 51301, Note_on_c, 6, 48, 87
10, 51301, Note_on_c, 6, 64, 78
10, 51301, Note_on_c, 6, 55, 81
10, 51301, Note_on_c, 6, 60, 85
10, 51311, Note_on_c, 6, 48, 0
10, 51319, Note_on_c, 6, 64, 0
10, 51319, Note_on_c, 6, 55, 0
10, 51319, Note_on_c, 6, 60, 0
10, 51361, Note_on_c, 6, 60, 79
10, 51361, Note_on_c, 6, 48, 91
10, 51361, Note_on_c, 6, 55, 74
10, 51361, Note_on_c, 6, 64, 77
10, 51372, Note_on_c, 6, 60, 0
10, 51379, Note_on_c, 6, 48, 0
10, 51379, Note_on_c, 6, 55, 0
10, 51388, Note_on_c, 6, 64, 0
10, 51421, Note_on_c, 6, 60, 81
10, 51421, Note_on_c, 6, 48, 110
10, 51421, Note_on_c, 6, 64, 82
10, 51421, Note_on_c, 6, 55, 81
10, 51498, Note_on_c, 6, 55, 0
10, 51498, Note_on_c, 6, 48, 0
10, 51503, Note_on_c, 6, 64, 0
10, 51503, Note_on_c, 6, 60, 0
10, 51541, Note_on_c, 6, 48, 95
10, 51541, Note_on_c, 6, 60, 78
10, 51541, Note_on_c, 6, 55, 73
10, 51541, Note_on_c, 6, 64, 75
10, 51551, Note_on_c, 6, 48, 0
10, 51561, Note_on_c, 6, 60, 0
10, 51561, Note_on_c, 6, 55, 0
10, 51561, Note_on_c, 6, 64, 0
10, 51601, Note_on_c, 6, 64, 71
10, 51601, Note_on_c, 6, 60, 74
10, 51601, Note_on_c, 6, 48, 90
10, 51601, Note_on_c, 6, 55, 67
10, 51612, Note_on_c, 6, 48, 0
10, 51623, Note_on_c, 6, 55, 0
10, 51623, Note_on_c, 6, 60, 0
10, 51624, Note_on_c, 6, 64, 0
10, 51661, Note_on_c, 6, 64, 83
10, 51661, Note_on_c, 6, 55, 79
10, 51661, Note_on_c, 6, 60, 80
10, 51661, Note_on_c, 6, 48, 110
10, 51731, Note_on_c, 6, 48, 0
10, 51731, Note_on_c, 6, 60, 0
10, 51736, Note_on_c, 6, 55, 0
10, 51736, Note_on_c, 6, 64, 0
10, 51781, Note_on_c, 6, 55, 66
10, 51781, Note_on_c, 6, 64, 67
10, 51781, Note_on_c, 6, 48, 91
10, 51781, Note_on_c, 6, 60, 74
10, 51792, Note_on_c, 6, 48, 0
10, 51793, Note_on_c, 6, 60, 0
10, 51797, Note_on_c, 6, 55, 0
10, 51802, Note_on_c, 6, 64, 0
10, 51841, Note_on_c, 6, 48, 92
10, 51841, Note_on_c, 6, 60, 78
10, 51841, Note_on_c, 6, 64, 80
10, 51841, Note_on_c, 6, 55, 74
10, 51861, Note_on_c, 6, 55, 0
10, 51862, Note_on_c, 6, 48, 0
10, 51862, Note_on_c, 6, 60, 0
10, 51863, Note_on_c, 6, 64, 0
10, 51901, Note_on_c, 6, 55, 87
10, 51901, Note_on_c, 6, 60, 87
10, 51901, Note_on_c, 6, 48, 99
10, 51901, Note_on_c, 6, 64, 89
10, 51977, Note_on_c, 6, 60, 0
10, 51977, Note_on_c, 6, 55, 0
10, 51978, Note_on_c, 6, 48, 0
10, 51983, Note_on_c, 6, 64, 0
10, 52021, Note_on_c, 6, 60, 71
10, 52021, Note_on_c, 6, 48, 89
10, 52021, Note_on_c, 6, 64, 71
10, 52021, Note_on_c, 6, 55, 68
10, 52032, Note_on_c, 6, 60, 0
10, 52037, Note_on_c, 6, 55, 0
10, 52042, Note_on_c, 6, 64, 0
10, 52042, Note_on_c, 6, 48, 0
10, 52081, Note_on_c, 6, 55, 64
10, 52081, Note_on_c, 6, 60, 72
10, 52081, Note_on_c, 6, 48, 90
10, 52081, Note_on_c, 6, 64, 74
10, 52101, Note_on_c, 6, 55, 0
10, 52102, Note_on_c, 6, 60, 0
10, 52102, Note_on_c, 6, 48, 0
10, 52103, Note_on_c, 6, 64, 0
10, 52141, Note_on_c, 6, 64, 87
10, 52141, Note_on_c, 6, 48, 102
10, 52141, Note_on_c, 6, 60, 82
10, 52141, Note_on_c, 6, 55, 81
10, 52218, Note_on_c, 6, 55, 0
10, 52218, Note_on_c, 6, 48, 0
10, 52221, Note_on_c, 6, 60, 0
10, 52222, Note_on_c, 6, 64, 0
10, 52261, Note_on_c, 6, 55, 69
10, 52261, Note_on_c, 6, 48, 92
10, 52261, Note_on_c, 6, 64, 78
10, 52261, Note_on_c, 6, 60, 73
10, 52282, Note_on_c, 6, 60, 0
10, 52282, Note_on_c, 6, 48, 0
10, 52283, Note_on_c, 6, 64, 0
10, 52283, Note_on_c, 6, 55, 0
10, 52321, Note_on_c, 6, 48, 97
10, 52321, Note_on_c, 6, 55, 77
10, 52321, Note_on_c, 6, 64, 84
10, 52321, Note_on_c, 6, 60, 77
10, 52343, Note_on_c, 6, 60, 0
10, 52343, Note_on_c, 6, 48, 0
10, 52343, Note_on_c, 6, 55, 0
10, 52343, Note_on_c, 6, 64, 0
10, 52381, Note_on_c, 6, 55, 79
10, 52381, Note_on_c, 6, 48, 97
10, 52381, Note_on_c, 6, 60, 85
10, 52381, Note_on_c, 6, 64, 87
10, 52457, Note_on_c, 6, 55, 0
10, 52458, Note_on_c, 6, 64, 0
10, 52458, Note_on_c, 6, 60, 0
10, 52459, Note_on_c, 6, 48, 0
10, 52501, Note_on_c, 6, 55, 76
10, 52501, Note_on_c, 6, 48, 90
10, 52501, Note_on_c, 6, 64, 80
10, 52501, Note_on_c, 6, 60, 76
10, 52522, Note_on_c, 6, 60, 0
10, 52522, Note_on_c, 6, 55, 0
10, 52523, Note_on_c, 6, 64, 0
10, 52523, Note_on_c, 6, 48, 0
10, 52561, Note_on_c, 6, 48, 90
10, 52561, Note_on_c, 6, 64, 79
10, 52561, Note_on_c, 6, 55, 64
10, 52561, Note_on_c, 6, 60, 77
10, 52571, Note_on_c, 6, 55, 0
10, 52581, Note_on_c, 6, 48, 0
10, 52581, Note_on_c, 6, 64, 0
10, 52581, Note_on_c, 6, 60, 0
10, 52621, Note_on_c, 6, 60, 89
10, 52621, Note_on_c, 6, 55, 86
10, 52621, Note_on_c, 6, 64, 91
10, 52621, Note_on_c, 6, 48, 99
10, 52694, Note_on_c, 6, 48, 0
10, 52694, Note_on_c, 6, 64, 0
10, 52694, Note_on_c, 6, 60, 0
10, 52696, Note_on_c, 6, 55, 0
10, 52741, Note_on_c, 6, 64, 82
10, 52741, Note_on_c, 6, 55, 80
10, 52741, Note_on_c, 6, 48, 95
10, 52741, Note_on_c, 6, 60, 83
10, 52751, Note_on_c, 6, 64, 0
10, 52752, Note_on_c, 6, 48, 0
10, 52759, Note_on_c, 6, 55, 0
10, 52759, Note_on_c, 6, 60, 0
10, 52801, Note_on_c, 6, 60, 86
10, 52801, Note_on_c, 6, 64, 84
10, 52801, Note_on_c, 6, 55, 77
10, 52801, Note_on_c, 6, 48, 92
10, 52812, Note_on_c, 6, 55, 0
10, 52813, Note_on_c, 6, 64, 0
10, 52819, Note_on_c, 6, 60, 0
10, 52819, Note_on_c, 6, 48, 0
10, 52861, Note_on_c, 6, 64, 87
10, 52861, Note_on_c, 6, 60, 86
10, 52861, Note_on_c, 6, 55, 85
10, 52861, Note_on_c, 6, 48, 102
10, 52926, Note_on_c, 6, 55, 0
10, 52926, Note_on_c, 6, 60, 0
10, 52931, Note_on_c, 6, 64, 0
10, 52937, Note_on_c, 6, 48, 0
10, 52981, Note_on_c, 6, 48, 85
10, 52981, Note_on_c, 6, 55, 74
10, 52981, Note_on_c, 6, 64, 77
10, 52981, Note_on_c, 6, 60, 66
10, 52992, Note_on_c, 6, 60, 0
10, 52992, Note_on_c, 6, 64, 0
10, 52999, Note_on_c, 6, 55, 0
10, 52999, Note_on_c, 6, 48, 0
10, 53041, Note_on_c, 6, 64, 86
10, 53041, Note_on_c, 6, 48, 106
10, 53041, Note_on_c, 6, 60, 81
10, 53041, Note_on_c, 6, 55, 81
10, 53062, Note_on_c, 6, 60, 0
10, 53063, Note_on_c, 6, 55, 0
10, 53063, Note_on_c, 6, 48, 0
10, 53064, Note_on_c, 6, 64, 0
10, 53101, Note_on_c, 6, 64, 89
10, 53101, Note_on_c, 6, 55, 87
10, 53101, Note_on_c, 6, 60, 89
10, 53101, Note_on_c, 6, 48, 106
10, 53177, Note_on_c, 6, 48, 0
10, 53182, Note_on_c, 6, 64, 0
10, 53182, Note_on_c, 6, 55, 0
10, 53182, Note_on_c, 6, 60, 0
10, 53221, Note_on_c, 6, 48, 97
10, 53221, Note_on_c, 6, 64, 70
10, 53221, Note_on_c, 6, 60, 70
10, 53221, Note_on_c, 6, 55, 63
10, 53242, Note_on_c, 6, 60, 0
10, 53242, Note_on_c, 6, 48, 0
10, 53243, Note_on_c, 6, 64, 0
10, 53243, Note_on_c, 6, 55, 0
10, 53281, Note_on_c, 6, 48, 97
10, 53281, Note_on_c, 6, 64, 80
10, 53281, Note_on_c, 6, 55, 74
10, 53282, Note_on_c, 6, 60, 78
10, 53290, Note_on_c, 6, 60, 0
10, 53297, Note_on_c, 6, 48, 0
10, 53302, Note_on_c, 6, 55, 0
10, 53302, Note_on_c, 6, 64, 0
10, 53341, Note_on_c, 6, 60, 85
10, 53341, Note_on_c, 6, 48, 114
10, 53341, Note_on_c, 6, 64, 86
10, 53341, Note_on_c, 6, 55, 83
10, 53414, Note_on_c, 6, 48, 0
10, 53417, Note_on_c, 6, 60, 0
10, 53417, Note_on_c, 6, 55, 0
10, 53423, Note_on_c, 6, 64, 0
10, 53461, Note_on_c, 6, 60, 78
10, 53461, Note_on_c, 6, 48, 85
10, 53461, Note_on_c, 6, 55, 69
10, 53461, Note_on_c, 6, 64, 79
10, 53482, Note_on_c, 6, 55, 0
10, 53482, Note_on_c, 6, 60, 0
10, 53483, Note_on_c, 6, 48, 0
10, 53483, Note_on_c, 6, 64, 0
10, 53521, Note_on_c, 6, 60, 73
10, 53521, Note_on_c, 6, 48, 79
10, 53521, Note_on_c, 6, 55, 60
10, 53521, Note_on_c, 6, 64, 67
10, 53532, Note_on_c, 6, 60, 0
10, 53533, Note_on_c, 6, 64, 0
10, 53538, Note_on_c, 6, 48, 0
10, 53542, Note_on_c, 6, 55, 0
10, 53581, Note_on_c, 6, 60, 87
10, 53581, Note_on_c, 6, 64, 88
10, 53581, Note_on_c, 6, 55, 82
10, 53581, Note_on_c, 6, 48, 97
10, 53656, Note_on_c, 6, 48, 0
10, 53658, Note_on_c, 6, 55, 0
10, 53661, Note_on_c, 6, 64, 0
10, 53662, Note_on_c, 6, 60, 0
10, 53701, Note_on_c, 6, 48, 83
10, 53701, Note_on_c, 6, 64, 70
10, 53701, Note_on_c, 6, 55, 71
10, 53701, Note_on_c, 6, 60, 75
10, 53713, Note_on_c, 6, 60, 0
10, 53718, Note_on_c, 6, 48, 0
10, 53722, Note_on_c, 6, 55, 0
10, 53723, Note_on_c, 6, 64, 0
10, 53761, Note_on_c, 6, 67, 65
10, 53761, Note_on_c, 6, 59, 83
10, 53761, Note_on_c, 6, 43, 81
10, 53761, Note_on_c, 6, 62, 76
10, 53762, Note_on_c, 6, 55, 68
10, 53774, Note_on_c, 6, 62, 0
10, 53774, Note_on_c, 6, 43, 0
10, 53776, Note_on_c, 6, 59, 0
10, 53784, Note_on_c, 6, 67, 0
10, 53785, Note_on_c, 6, 55, 0
10, 53821, Note_on_c, 6, 62, 81
10, 53821, Note_on_c, 6, 55, 80
10, 53821, Note_on_c, 6, 43, 97
10, 53821, Note_on_c, 6, 67, 91
10, 53821, Note_on_c, 6, 59, 93
10, 53898, Note_on_c, 6, 43, 0
10, 53898, Note_on_c, 6, 62, 0
10, 53898, Note_on_c, 6, 55, 0
10, 53903, Note_on_c, 6, 67, 0
10, 53903, Note_on_c, 6, 59, 0
10, 53941, Note_on_c, 6, 62, 76
10, 53941, Note_on_c, 6, 55, 67
10, 53941, Note_on_c, 6, 43, 79
10, 53941, Note_on_c, 6, 59, 71
10, 53941, Note_on_c, 6, 67, 61
10, 53961, Note_on_c, 6, 62, 0
10, 53962, Note_on_c, 6, 59, 0
10, 53962, Note_on_c, 6, 43, 0
10, 53963, Note_on_c, 6, 55, 0
10, 53964, Note_on_c, 6, 67, 0
10, 54001, Note_on_c, 6, 55, 66
10, 54001, Note_on_c, 6, 62, 72
10, 54001, Note_on_c, 6, 67, 73
10, 54001, Note_on_c, 6, 59, 84
10, 54001, Note_on_c, 6, 43, 81
10, 54022, Note_on_c, 6, 43, 0
10, 54022, Note_on_c, 6, 62, 0
10, 54023, Note_on_c, 6, 59, 0
10, 54024, Note_on_c, 6, 67, 0
10, 54024, Note_on_c, 6, 55, 0
10, 54061, Note_on_c, 6, 62, 84
10, 54061, Note_on_c, 6, 43, 92
10, 54061, Note_on_c, 6, 55, 85
10, 54061, Note_on_c, 6, 59, 91
10, 54061, Note_on_c, 6, 67, 92
10, 54139, Note_on_c, 6, 43, 0
10, 54141, Note_on_c, 6, 55, 0
10, 54144, Note_on_c, 6, 62, 0
10, 54144, Note_on_c, 6, 59, 0
10, 54146, Note_on_c, 6, 67, 0
10, 54181, Note_on_c, 6, 55, 61
10, 54181, Note_on_c, 6, 43, 84
10, 54181, Note_on_c, 6, 62, 68
10, 54181, Note_on_c, 6, 59, 73
10, 54181, Note_on_c, 6, 67, 51
10, 54193, Note_on_c, 6, 67, 0
10, 54193, Note_on_c, 6, 62, 0
10, 54194, Note_on_c, 6, 59, 0
10, 54194, Note_on_c, 6, 43, 0
10, 54199, Note_on_c, 6, 55, 0
10, 54241, Note_on_c, 6, 67, 78
10, 54241, Note_on_c, 6, 43, 85
10, 54241, Note_on_c, 6, 59, 83
10, 54241, Note_on_c, 6, 55, 74
10, 54242, Note_on_c, 6, 62, 73
10, 54253, Note_on_c, 6, 62, 0
10, 54253, Note_on_c, 6, 59, 0
10, 54262, Note_on_c, 6, 43, 0
10, 54263, Note_on_c, 6, 67, 0
10, 54264, Note_on_c, 6, 55, 0
10, 54301, Note_on_c, 6, 67, 91
10, 54301, Note_on_c, 6, 43, 97
10, 54301, Note_on_c, 6, 55, 86
10, 54301, Note_on_c, 6, 62, 81
10, 54301, Note_on_c, 6, 59, 91
10, 54371, Note_on_c, 6, 62, 0
10, 54371, Note_on_c, 6, 43, 0
10, 54373, Note_on_c, 6, 59, 0
10, 54373, Note_on_c, 6, 55, 0
10, 54378, Note_on_c, 6, 67, 0
10, 54421, Note_on_c, 6, 59, 79
10, 54421, Note_on_c, 6, 67, 77
10, 54421, Note_on_c, 6, 43, 89
10, 54421, Note_on_c, 6, 62, 72
10, 54421, Note_on_c, 6, 55, 70
10, 54443, Note_on_c, 6, 55, 0
10, 54443, Note_on_c, 6, 43, 0
10, 54443, Note_on_c, 6, 62, 0
10, 54443, Note_on_c, 6, 59, 0
10, 54444, Note_on_c, 6, 67, 0
10, 54481, Note_on_c, 6, 55, 73
10, 54481, Note_on_c, 6, 67, 78
10, 54481, Note_on_c, 6, 43, 86
10, 54481, Note_on_c, 6, 59, 81
10, 54481, Note_on_c, 6, 62, 71
10, 54493, Note_on_c, 6, 62, 0
10, 54493, Note_on_c, 6, 43, 0
10, 54493, Note_on_c, 6, 59, 0
10, 54508, Note_on_c, 6, 67, 0
10, 54508, Note_on_c, 6, 55, 0
10, 54541, Note_on_c, 6, 43, 102
10, 54541, Note_on_c, 6, 62, 80
10, 54541, Note_on_c, 6, 67, 91
10, 54541, Note_on_c, 6, 55, 85
10, 54541, Note_on_c, 6, 59, 85
10, 54609, Note_on_c, 6, 62, 0
10, 54614, Note_on_c, 6, 59, 0
10, 54618, Note_on_c, 6, 43, 0
10, 54622, Note_on_c, 6, 55, 0
10, 54627, Note_on_c, 6, 67, 0
10, 54661, Note_on_c, 6, 62, 74
10, 54661, Note_on_c, 6, 55, 65
10, 54661, Note_on_c, 6, 59, 81
10, 54661, Note_on_c, 6, 67, 75
10, 54661, Note_on_c, 6, 43, 91
10, 54672, Note_on_c, 6, 62, 0
10, 54682, Note_on_c, 6, 59, 0
10, 54683, Note_on_c, 6, 43, 0
10, 54683, Note_on_c, 6, 55, 0
10, 54688, Note_on_c, 6, 67, 0
10, 54721, Note_on_c, 6, 55, 78
10, 54721, Note_on_c, 6, 48, 86
10, 54721, Note_on_c, 6, 64, 80
10, 54721, Note_on_c, 6, 60, 84
10, 54742, Note_on_c, 6, 60, 0
10, 54742, Note_on_c, 6, 48, 0
10, 54743, Note_on_c, 6, 64, 0
10, 54743, Note_on_c, 6, 55, 0
10, 54781, Note_on_c, 6, 55, 78
10, 54781, Note_on_c, 6, 60, 82
10, 54781, Note_on_c, 6, 48, 99
10, 54781, Note_on_c, 6, 64, 81
10, 54857, Note_on_c, 6, 48, 0
10, 54857, Note_on_c, 6, 55, 0
10, 54862, Note_on_c, 6, 60, 0
10, 54862, Note_on_c, 6, 64, 0
10, 54901, Note_on_c, 6, 64, 75
10, 54901, Note_on_c, 6, 48, 89
10, 54901, Note_on_c, 6, 60, 82
10, 54901, Note_on_c, 6, 55, 79
10, 54911, Note_on_c, 6, 64, 0
10, 54921, Note_on_c, 6, 55, 0
10, 54921, Note_on_c, 6, 60, 0
10, 54922, Note_on_c, 6, 48, 0
10, 54961, Note_on_c, 6, 60, 78
10, 54961, Note_on_c, 6, 64, 73
10, 54961, Note_on_c, 6, 55, 62
10, 54961, Note_on_c, 6, 48, 90
10, 54972, Note_on_c, 6, 55, 0
10, 54981, Note_on_c, 6, 48, 0
10, 54981, Note_on_c, 6, 60, 0
10, 54982, Note_on_c, 6, 64, 0
10, 55021, Note_on_c, 6, 48, 106
10, 55021, Note_on_c, 6, 60, 82
10, 55021, Note_on_c, 6, 64, 84
10, 55021, Note_on_c, 6, 55, 85
10, 55097, Note_on_c, 6, 55, 0
10, 55097, Note_on_c, 6, 60, 0
10, 55102, Note_on_c, 6, 64, 0
10, 55107, Note_on_c, 6, 48, 0
10, 55141, Note_on_c, 6, 48, 87
10, 55141, Note_on_c, 6, 64, 78
10, 55141, Note_on_c, 6, 55, 81
10, 55141, Note_on_c, 6, 60, 85
10, 55151, Note_on_c, 6, 48, 0
10, 55159, Note_on_c, 6, 64, 0
10, 55159, Note_on_c, 6, 55, 0
10, 55159, Note_on_c, 6, 60, 0
10, 55201, Note_on_c, 6, 60, 79
10, 55201, Note_on_c, 6, 48, 91
10, 55201, Note_on_c, 6, 55, 74
10, 55201, Note_on_c, 6, 64, 77
10, 55212, Note_on_c, 6, 60, 0
10, 55219, Note_on_c, 6, 48, 0
10, 55219, Note_on_c, 6, 55, 0
10, 55228, Note_on_c, 6, 64, 0
10, 55261, Note_on_c, 6, 60, 81
10, 55261, Note_on_c, 6, 48, 110
10, 55261, Note_on_c, 6, 64, 82
10, 55261, Note_on_c, 6, 55, 81
10, 55338, Note_on_c, 6, 55, 0
10, 55338, Note_on_c, 6, 48, 0
10, 55343, Note_on_c, 6, 64, 0
10, 55343, Note_on_c, 6, 60, 0
10, 55381, Note_on_c, 6, 48, 95
10, 55381, Note_on_c, 6, 60, 78
10, 55381, Note_on_c, 6, 55, 73
10, 55381, Note_on_c, 6, 64, 75
10, 55391, Note_on_c, 6, 48, 0
10, 55401, Note_on_c, 6, 60, 0
10, 55401, Note_on_c, 6, 55, 0
10, 55401, Note_on_c, 6, 64, 0
10, 55441, Note_on_c, 6, 64, 71
10, 55441, Note_on_c, 6, 60, 74
10, 55441, Note_on_c, 6, 48, 90
10, 55441, Note_on_c, 6, 55, 67
10, 55452, Note_on_c, 6, 48, 0
10, 55463, Note_on_c, 6, 55, 0
10, 55463, Note_on_c, 6, 60, 0
10, 55464, Note_on_c, 6, 64, 0
10, 55501, Note_on_c, 6, 64, 83
10, 55501, Note_on_c, 6, 55, 79
10, 55501, Note_on_c, 6, 60, 80
10, 55501, Note_on_c, 6, 48, 110
10, 55571, Note_on_c, 6, 48, 0
10, 55571, Note_on_c, 6, 60, 0
10, 55576, Note_on_c, 6, 55, 0
10, 55576, Note_on_c, 6, 64, 0
10, 55621, Note_on_c, 6, 55, 66
10, 55621, Note_on_c, 6, 64, 67
10, 55621, Note_on_c, 6, 48, 91
10, 55621, Note_on_c, 6, 60, 74
10, 55632, Note_on_c, 6, 48, 0
10, 55633, Note_on_c, 6, 60, 0
10, 55637, Note_on_c, 6, 55, 0
10, 55642, Note_on_c, 6, 64, 0
10, 55681, Note_on_c, 6, 48, 92
10, 55681, Note_on_c, 6, 60, 78
10, 55681, Note_on_c, 6, 64, 80
10, 55681, Note_on_c, 6, 55, 74
10, 55701, Note_on_c, 6, 55, 0
10, 55702, Note_on_c, 6, 48, 0
10, 55702, Note_on_c, 6, 60, 0
10, 55703, Note_on_c, 6, 64, 0
10, 55741, Note_on_c, 6, 55, 87
10, 55741, Note_on_c, 6, 60, 87
10, 55741, Note_on_c, 6, 48, 99
10, 55741, Note_on_c, 6, 64, 89
10, 55817, Note_on_c, 6, 60, 0
10, 55817, Note_on_c, 6, 55, 0
10, 55818, Note_on_c, 6, 48, 0
10, 55823, Note_on_c, 6, 64, 0
10, 55861, Note_on_c, 6, 60, 71
10, 55861, Note_on_c, 6, 48, 89
10, 55861, Note_on_c, 6, 64, 71
10, 55861, Note_on_c, 6, 55, 68
10, 55872, Note_on_c, 6, 60, 0
10, 55877, Note_on_c, 6, 55, 0
10, 55882, Note_on_c, 6, 64, 0
10, 55882, Note_on_c, 6, 48, 0
10, 55921, Note_on_c, 6, 55, 64
10, 55921, Note_on_c, 6, 60, 72
10, 55921, Note_on_c, 6, 48, 90
10, 55921, Note_on_c, 6, 64, 74
10, 55941, Note_on_c, 6, 55, 0
10, 55942, Note_on_c, 6, 60, 0
10, 55942, Note_on_c, 6, 48, 0
10, 55943, Note_on_c, 6, 64, 0
10, 55981, Note_on_c, 6, 64, 87
10, 55981, Note_on_c, 6, 48, 102
10, 55981, Note_on_c, 6, 60, 82
10, 55981, Note_on_c, 6, 55, 81
10, 56058, Note_on_c, 6, 55, 0
10, 56058, Note_on_c, 6, 48, 0
10, 56061, Note_on_c, 6, 60, 0
10, 56062, Note_on_c, 6, 64, 0
10, 56101, Note_on_c, 6, 55, 69
10, 56101, Note_on_c, 6, 48, 92
10, 56101, Note_on_c, 6, 64, 78
10, 56101, Note_on_c, 6, 60, 73
10, 56122, Note_on_c, 6, 60, 0
10, 56122, Note_on_c, 6, 48, 0
10, 56123, Note_on_c, 6, 64, 0
10, 56123, Note_on_c, 6, 55, 0
10, 56161, Note_on_c, 6, 48, 97
10, 56161, Note_on_c, 6, 55, 77
10, 56161, Note_on_c, 6, 64, 84
10, 56161, Note_on_c, 6, 60, 77
10, 56183, Note_on_c, 6, 60, 0
10, 56183, Note_on_c, 6, 48, 0
10, 56183, Note_on_c, 6, 55, 0
10, 56183, Note_on_c, 6, 64, 0
10, 56221, Note_on_c, 6, 55, 79
10, 56221, Note_on_c, 6, 48, 97
10, 56221, Note_on_c, 6, 60, 85
10, 56221, Note_on_c, 6, 64, 87
10, 56297, Note_on_c, 6, 55, 0
10, 56298, Note_on_c, 6, 64, 0
10, 56298, Note_on_c, 6, 60, 0
10, 56299, Note_on_c, 6, 48, 0
10, 56341, Note_on_c, 6, 55, 76
10, 56341, Note_on_c, 6, 48, 90
10, 56341, Note_on_c, 6, 64, 80
10, 56341, Note_on_c, 6, 60, 76
10, 56362, Note_on_c, 6, 60, 0
10, 56362, Note_on_c, 6, 55, 0
10, 56363, Note_on_c, 6, 64, 0
10, 56363, Note_on_c, 6, 48, 0
10, 56401, Note_on_c, 6, 48, 90
10, 56401, Note_on_c, 6, 64, 79
10, 56401, Note_on_c, 6, 55, 64
10, 56401, Note_on_c, 6, 60, 77
10, 56411, Note_on_c, 6, 55, 0
10, 56421, Note_on_c, 6, 48, 0
10, 56421, Note_on_c, 6, 64, 0
10, 56421, Note_on_c, 6, 60, 0
10, 56461, Note_on_c, 6, 60, 89
10, 56461, Note_on_c, 6, 55, 86
10, 56461, Note_on_c, 6, 64, 91
10, 56461, Note_on_c, 6, 48, 99
10, 56534, Note_on_c, 6, 48, 0
10, 56534, Note_on_c, 6, 64, 0
10, 56534, Note_on_c, 6, 60, 0
10, 56536, Note_on_c, 6, 55, 0
10, 56581, Note_on_c, 6, 64, 82
10, 56581, Note_on_c, 6, 55, 80
10, 56581, Note_on_c, 6, 48, 95
10, 56581, Note_on_c, 6, 60, 83
10, 56591, Note_on_c, 6, 64, 0
10, 56592, Note_on_c, 6, 48, 0
10, 56599, Note_on_c, 6, 55, 0
10, 56599, Note_on_c, 6, 60, 0
10, 56641, Note_on_c, 6, 60, 86
10, 56641, Note_on_c, 6, 64, 84
10, 56641, Note_on_c, 6, 55, 77
10, 56641, Note_on_c, 6, 48, 92
10, 56652, Note_on_c, 6, 55, 0
10, 56653, Note_on_c, 6, 64, 0
10, 56659, Note_on_c, 6, 60, 0
10, 56659, Note_on_c, 6, 48, 0
10, 56701, Note_on_c, 6, 64, 87
10, 56701, Note_on_c, 6, 60, 86
10, 56701, Note_on_c, 6, 55, 85
10, 56701, Note_on_c, 6, 48, 102
10, 56766, Note_on_c, 6, 55, 0
10, 56766, Note_on_c, 6, 60, 0
10, 56771, Note_on_c, 6, 64, 0
10, 56777, Note_on_c, 6, 48, 0
10, 56821, Note_on_c, 6, 48, 85
10, 56821, Note_on_c, 6, 55, 74
10, 56821, Note_on_c, 6, 64, 77
10, 56821, Note_on_c, 6, 60, 66
10, 56832, Note_on_c, 6, 60, 0
10, 56832, Note_on_c, 6, 64, 0
10, 56839, Note_on_c, 6, 55, 0
10, 56839, Note_on_c, 6, 48, 0
10, 56881, Note_on_c, 6, 64, 86
10, 56881, Note_on_c, 6, 48, 106
10, 56881, Note_on_c, 6, 60, 81
10, 56881, Note_on_c, 6, 55, 81
10, 56902, Note_on_c, 6, 60, 0
10, 56903, Note_on_c, 6, 55, 0
10, 56903, Note_on_c, 6, 48, 0
10, 56904, Note_on_c, 6, 64, 0
10, 56941, Note_on_c, 6, 64, 89
10, 56941, Note_on_c, 6, 55, 87
10, 56941, Note_on_c, 6, 60, 89
10, 56941, Note_on_c, 6, 48, 106
10, 57017, Note_on_c, 6, 48, 0
10, 57022, Note_on_c, 6, 64, 0
10, 57022, Note_on_c, 6, 55, 0
10, 57022, Note_on_c, 6, 60, 0
10, 57061, Note_on_c, 6, 48, 97
10, 57061, Note_on_c, 6, 64, 70
10, 57061, Note_on_c, 6, 60, 70
10, 57061, Note_on_c, 6, 55, 63
10, 57082, Note_on_c, 6, 60, 0
10, 57082, Note_on_c, 6, 48, 0
10, 57083, Note_on_c, 6, 64, 0
10, 57083, Note_on_c, 6, 55, 0
10, 57121, Note_on_c, 6, 48, 97
10, 57121, Note_on_c, 6, 64, 80
10, 57121, Note_on_c, 6, 55, 74
10, 57122, Note_on_c, 6, 60, 78
10, 57130, Note_on_c, 6, 60, 0
10, 57137, Note_on_c, 6, 48, 0
10, 57142, Note_on_c, 6, 55, 0
10, 57142, Note_on_c, 6, 64, 0
10, 57181, Note_on_c, 6, 60, 85
10, 57181, Note_on_c, 6, 48, 114
10, 57181, Note_on_c, 6, 64, 86
10, 57181, Note_on_c, 6, 55, 83
10, 57254, Note_on_c, 6, 48, 0
10, 57257, Note_on_c, 6, 60, 0
10, 57257, Note_on_c, 6, 55, 0
10, 57263, Note_on_c, 6, 64, 0
10, 57301, Note_on_c, 6, 60, 78
10, 57301, Note_on_c, 6, 48, 85
10, 57301, Note_on_c, 6, 55, 69
10, 57301, Note_on_c, 6, 64, 79
10, 57322, Note_on_c, 6, 55, 0
10, 57322, Note_on_c, 6, 60, 0
10, 57323, Note_on_c, 6, 48, 0
10, 57323, Note_on_c, 6, 64, 0
10, 57361, Note_on_c, 6, 60, 73
10, 57361, Note_on_c, 6, 48, 79
10, 57361, Note_on_c, 6, 55, 60
10, 57361, Note_on_c, 6, 64, 67
10, 57372, Note_on_c, 6, 60, 0
10, 57373, Note_on_c, 6, 64, 0
10, 57378, Note_on_c, 6, 48, 0
10, 57382, Note_on_c, 6, 55, 0
10, 57421, Note_on_c, 6, 60, 87
10, 57421, Note_on_c, 6, 64, 88
10, 57421, Note_on_c, 6, 55, 82
10, 57421, Note_on_c, 6, 48, 97
10, 57496, Note_on_c, 6, 48, 0
10, 57498, Note_on_c, 6, 55, 0
10, 57501, Note_on_c, 6, 64, 0
10, 57502, Note_on_c, 6, 60, 0
10, 57541, Note_on_c, 6, 48, 83
10, 57541, Note_on_c, 6, 64, 70
10, 57541, Note_on_c, 6, 55, 71
10, 57541, Note_on_c, 6, 60, 75
10, 57553, Note_on_c, 6, 60, 0
10, 57558, Note_on_c, 6, 48, 0
10, 57562, Note_on_c, 6, 55, 0
10, 57563, Note_on_c, 6, 64, 0
10, 57601, Note_on_c, 6, 67, 65
10, 57601, Note_on_c, 6, 59, 83
10, 57601, Note_on_c, 6, 43, 81
10, 57601, Note_on_c, 6, 62, 76
10, 57602, Note_on_c, 6, 55, 68
10, 57614, Note_on_c, 6, 62, 0
10, 57614, Note_on_c, 6, 43, 0
10, 57616, Note_on_c, 6, 59, 0
10, 57624, Note_on_c, 6, 67, 0
10, 57625, Note_on_c, 6, 55, 0
10, 57661, Note_on_c, 6, 62, 81
10, 57661, Note_on_c, 6, 55, 80
10, 57661, Note_on_c, 6, 43, 97
10, 57661, Note_on_c, 6, 67, 91
10, 57661, Note_on_c, 6, 59, 93
10, 57738, Note_on_c, 6, 43, 0
10, 57738, Note_on_c, 6, 62, 0
10, 57738, Note_on_c, 6, 55, 0
10, 57743, Note_on_c, 6, 67, 0
10, 57743, Note_on_c, 6, 59, 0
10, 57781, Note_on_c, 6, 62, 76
10, 57781, Note_on_c, 6, 55, 67
10, 57781, Note_on_c, 6, 43, 79
10, 57781, Note_on_c, 6, 59, 71
10, 57781, Note_on_c, 6, 67, 61
10, 57801, Note_on_c, 6, 62, 0
10, 57802, Note_on_c, 6, 59, 0
10, 57802, Note_on_c, 6, 43, 0
10, 57803, Note_on_c, 6, 55, 0
10, 57804, Note_on_c, 6, 67, 0
10, 57841, Note_on_c, 6, 55, 66
10, 57841, Note_on_c, 6, 62, 72
10, 57841, Note_on_c, 6, 67, 73
10, 57841, Note_on_c, 6, 59, 84
10, 57841, Note_on_c, 6, 43, 81
10, 57862, Note_on_c, 6, 43, 0
10, 57862, Note_on_c, 6, 62, 0
10, 57863, Note_on_c, 6, 59, 0
10, 57864, Note_on_c, 6, 67, 0
10, 57864, Note_on_c, 6, 55, 0
10, 57901, Note_on_c, 6, 62, 84
10, 57901, Note_on_c, 6, 43, 92
10, 57901, Note_on_c, 6, 55, 85
10, 57901, Note_on_c, 6, 59, 91
10, 57901, Note_on_c, 6, 67, 92
10, 57979, Note_on_c, 6, 43, 0
10, 57981, Note_on_c, 6, 55, 0
10, 57984, Note_on_c, 6, 62, 0
10, 57984, Note_on_c, 6, 59, 0
10, 57986, Note_on_c, 6, 67, 0
10, 58021, Note_on_c, 6, 55, 61
10, 58021, Note_on_c, 6, 43, 84
10, 58021, Note_on_c, 6, 62, 68
10, 58021, Note_on_c, 6, 59, 73
10, 58021, Note_on_c, 6, 67, 51
10, 58033, Note_on_c, 6, 67, 0
10, 58033, Note_on_c, 6, 62, 0
10, 58034, Note_on_c, 6, 59, 0
10, 58034, Note_on_c, 6, 43, 0
10, 58039, Note_on_c, 6, 55, 0
10, 58081, Note_on_c, 6, 67, 78
10, 58081, Note_on_c, 6, 43, 85
10, 58081, Note_on_c, 6, 59, 83
10, 58081, Note_on_c, 6, 55, 74
10, 58082, Note_on_c, 6, 62, 73
10, 58093, Note_on_c, 6, 62, 0
10, 58093, Note_on_c, 6, 59, 0
10, 58102, Note_on_c, 6, 43, 0
10, 58103, Note_on_c, 6, 67, 0
10, 58104, Note_on_c, 6, 55, 0
10, 58141, Note_on_c, 6, 67, 91
10, 58141, Note_on_c, 6, 43, 97
10, 58141, Note_on_c, 6, 55, 86
10, 58141, Note_on_c, 6, 62, 81
10, 58141, Note_on_c, 6, 59, 91
10, 58211, Note_on_c, 6, 62, 0
10, 58211, Note_on_c, 6, 43, 0
10, 58213, Note_on_c, 6, 59, 0
10, 58213, Note_on_c, 6, 55, 0
10, 58218, Note_on_c, 6, 67, 0
10, 58261, Note_on_c, 6, 59, 79
10, 58261, Note_on_c, 6, 67, 77
10, 58261, Note_on_c, 6, 43, 89
10, 58261, Note_on_c, 6, 62, 72
10, 58261, Note_on_c, 6, 55, 70
10, 58283, Note_on_c, 6, 55, 0
10, 58283, Note_on_c, 6, 43, 0
10, 58283, Note_on_c, 6, 62, 0
10, 58283, Note_on_c, 6, 59, 0
10, 58284, Note_on_c, 6, 67, 0
10, 58321, Note_on_c, 6, 55, 73
10, 58321, Note_on_c, 6, 67, 78
10, 58321, Note_on_c, 6, 43, 86
10, 58321, Note_on_c, 6, 59, 81
10, 58321, Note_on_c, 6, 62, 71
10, 58333, Note_on_c, 6, 62, 0
10, 58333, Note_on_c, 6, 43, 0
10, 58333, Note_on_c, 6, 59, 0
10, 58348, Note_on_c, 6, 67, 0
10, 58348, Note_on_c, 6, 55, 0
10, 58381, Note_on_c, 6, 43, 102
10, 58381, Note_on_c, 6, 62, 80
10, 58381, Note_on_c, 6, 67, 91
10, 58381, Note_on_c, 6, 55, 85
10, 58381, Note_on_c, 6, 59, 85
10, 58449, Note_on_c, 6, 62, 0
10, 58454, Note_on_c, 6, 59, 0
10, 58458, Note_on_c, 6, 43, 0
10, 58462, Note_on_c, 6, 55, 0
10, 58467, Note_on_c, 6, 67, 0
10, 58501, Note_on_c, 6, 62, 74
10, 58501, Note_on_c, 6, 55, 65
10, 58501, Note_on_c, 6, 59, 81
10, 58501, Note_on_c, 6, 67, 75
10, 58501, Note_on_c, 6, 43, 91
10, 58512, Note_on_c, 6, 62, 0
10, 58522, Note_on_c, 6, 59, 0
10, 58523, Note_on_c, 6, 43, 0
10, 58523, Note_on_c, 6, 55, 0
10, 58528, Note_on_c, 6, 67, 0
10, 58561, Note_on_c, 6, 55, 78
10, 58561, Note_on_c, 6, 48, 86
10, 58561, Note_on_c, 6, 64, 80
10, 58561, Note_on_c, 6, 60, 84
10, 58620, Note_on_c, 6, 60, 0
10, 58620, Note_on_c, 6, 55, 0
10, 58620, Note_on_c, 6, 48, 0
10, 58620, Note_on_c, 6, 64, 0
10, 58680, Note_on_c, 6, 48, 99
10, 58680, Note_on_c, 6, 55, 78
10, 58680, Note_on_c, 6, 60, 82
10, 58680, Note_on_c, 6, 64, 81
10, 58724, Note_on_c, 6, 55, 0
10, 58739, Note_on_c, 6, 48, 0
10, 58739, Note_on_c, 6, 60, 0
10, 58739, Note_on_c, 6, 64, 0
10, 58740, Note_on_c, 6, 48, 99
10, 58740, Note_on_c, 6, 55, 99
10, 58740, Note_on_c, 6, 64, 99
10, 58740, Note_on_c, 6, 60, 99
10, 59039, Note_on_c, 6, 60, 0
10, 59039, Note_on_c, 6, 48, 0
10, 59039, Note_on_c, 6, 55, 0
10, 59039, Note_on_c, 6, 64, 0
10, 59039, End_track
11, 0, Start_track
11, 0, MIDI_port, 0
11, 0, Title_t, "Bass"
11, 0, Program_c, 1, 34
11, 0, Control_c, 1, 7, 100
11, 0, Control_c, 1, 10, 64
11, 480, Control_c, 1, 121, 0
11, 4801, Note_on_c, 1, 36, 127
11, 4833, Note_on_c, 1, 36, 0
11, 4860, Note_on_c, 1, 36, 127
11, 4906, Note_on_c, 1, 36, 0
11, 4921, Note_on_c, 1, 31, 127
11, 4957, Note_on_c, 1, 31, 0
11, 4981, Note_on_c, 1, 36, 127
11, 5036, Note_on_c, 1, 36, 0
11, 5100, Note_on_c, 1, 36, 127
11, 5143, Note_on_c, 1, 36, 0
11, 5161, Note_on_c, 1, 31, 127
11, 5203, Note_on_c, 1, 31, 0
11, 5221, Note_on_c, 1, 33, 127
11, 5259, Note_on_c, 1, 33, 0
11, 5281, Note_on_c, 1, 36, 127
11, 5309, Note_on_c, 1, 36, 0
11, 5340, Note_on_c, 1, 36, 127
11, 5377, Note_on_c, 1, 36, 0
11, 5401, Note_on_c, 1, 31, 127
11, 5433, Note_on_c, 1, 31, 0
11, 5461, Note_on_c, 1, 36, 127
11, 5501, Note_on_c, 1, 36, 0
11, 5580, Note_on_c, 1, 36, 127
11, 5617, Note_on_c, 1, 36, 0
11, 5641, Note_on_c, 1, 31, 127
11, 5684, Note_on_c, 1, 31, 0
11, 5701, Note_on_c, 1, 33, 127
11, 5737, Note_on_c, 1, 33, 0
11, 5761, Note_on_c, 1, 36, 127
11, 5791, Note_on_c, 1, 36, 0
11, 5820, Note_on_c, 1, 36, 127
11, 5851, Note_on_c, 1, 36, 0
11, 5881, Note_on_c, 1, 31, 127
11, 5913, Note_on_c, 1, 31, 0
11, 5940, Note_on_c, 1, 36, 127
11, 5986, Note_on_c, 1, 36, 0
11, 6060, Note_on_c, 1, 36, 127
11, 6093, Note_on_c, 1, 36, 0
11, 6121, Note_on_c, 1, 31, 127
11, 6159, Note_on_c, 1, 31, 0
11, 6181, Note_on_c, 1, 33, 127
11, 6213, Note_on_c, 1, 33, 0
11, 6241, Note_on_c, 1, 36, 127
11, 6269, Note_on_c, 1, 36, 0
11, 6300, Note_on_c, 1, 36, 127
11, 6337, Note_on_c, 1, 36, 0
11, 6361, Note_on_c, 1, 31, 127
11, 6397, Note_on_c, 1, 31, 0
11, 6420, Note_on_c, 1, 36, 127
11, 6457, Note_on_c, 1, 36, 0
11, 6540, Note_on_c, 1, 36, 127
11, 6583, Note_on_c, 1, 36, 0
11, 6601, Note_on_c, 1, 40, 127
11, 6639, Note_on_c, 1, 40, 0
11, 6660, Note_on_c, 1, 41, 127
11, 6693, Note_on_c, 1, 41, 0
11, 6721, Note_on_c, 1, 43, 127
11, 6753, Note_on_c, 1, 43, 0
11, 6781, Note_on_c, 1, 43, 127
11, 6816, Note_on_c, 1, 43, 0
11, 6841, Note_on_c, 1, 38, 127
11, 6871, Note_on_c, 1, 38, 0
11, 6900, Note_on_c, 1, 43, 127
11, 6935, Note_on_c, 1, 43, 0
11, 7020, Note_on_c, 1, 43, 127
11, 7047, Note_on_c, 1, 43, 0
11, 7081, Note_on_c, 1, 38, 127
11, 7116, Note_on_c, 1, 38, 0
11, 7140, Note_on_c, 1, 40, 127
11, 7180, Note_on_c, 1, 40, 0
11, 7201, Note_on_c, 1, 43, 127
11, 7231, Note_on_c, 1, 43, 0
11, 7261, Note_on_c, 1, 43, 127
11, 7294, Note_on_c, 1, 43, 0
11, 7321, Note_on_c, 1, 38, 127
11, 7347, Note_on_c, 1, 38, 0
11, 7380, Note_on_c, 1, 43, 127
11, 7415, Note_on_c, 1, 43, 0
11, 7500, Note_on_c, 1, 43, 127
11, 7530, Note_on_c, 1, 43, 0
11, 7561, Note_on_c, 1, 38, 127
11, 7616, Note_on_c, 1, 38, 0
11, 7620, Note_on_c, 1, 40, 127
11, 7665, Note_on_c, 1, 40, 0
11, 7681, Note_on_c, 1, 36, 127
11, 7704, Note_on_c, 1, 36, 0
11, 7740, Note_on_c, 1, 36, 127
11, 7767, Note_on_c, 1, 36, 0
11, 7801, Note_on_c, 1, 31, 127
11, 7826, Note_on_c, 1, 31, 0
11, 7860, Note_on_c, 1, 36, 127
11, 7895, Note_on_c, 1, 36, 0
11, 7980, Note_on_c, 1, 36, 127
11, 8023, Note_on_c, 1, 36, 0
11, 8041, Note_on_c, 1, 31, 127
11, 8083, Note_on_c, 1, 31, 0
11, 8100, Note_on_c, 1, 33, 127
11, 8141, Note_on_c, 1, 33, 0
11, 8161, Note_on_c, 1, 36, 127
11, 8187, Note_on_c, 1, 36, 0
11, 8220, Note_on_c, 1, 36, 127
11, 8250, Note_on_c, 1, 36, 0
11, 8281, Note_on_c, 1, 31, 127
11, 8313, Note_on_c, 1, 31, 0
11, 8340, Note_on_c, 1, 36, 127
11, 8373, Note_on_c, 1, 36, 0
11, 8460, Note_on_c, 1, 36, 127
11, 8491, Note_on_c, 1, 36, 0
11, 8521, Note_on_c, 1, 31, 127
11, 8573, Note_on_c, 1, 31, 0
11, 8581, Note_on_c, 1, 33, 127
11, 8631, Note_on_c, 1, 33, 0
11, 8641, Note_on_c, 1, 36, 127
11, 8667, Note_on_c, 1, 36, 0
11, 8700, Note_on_c, 1, 36, 127
11, 8731, Note_on_c, 1, 36, 0
11, 8761, Note_on_c, 1, 31, 127
11, 8794, Note_on_c, 1, 31, 0
11, 8821, Note_on_c, 1, 36, 127
11, 8858, Note_on_c, 1, 36, 0
11, 8940, Note_on_c, 1, 36, 127
11, 8977, Note_on_c, 1, 36, 0
11, 9001, Note_on_c, 1, 31, 127
11, 9044, Note_on_c, 1, 31, 0
11, 9061, Note_on_c, 1, 33, 127
11, 9103, Note_on_c, 1, 33, 0
11, 9121, Note_on_c, 1, 36, 127
11, 9148, Note_on_c, 1, 36, 0
11, 9180, Note_on_c, 1, 36, 127
11, 9207, Note_on_c, 1, 36, 0
11, 9241, Note_on_c, 1, 31, 127
11, 9268, Note_on_c, 1, 31, 0
11, 9300, Note_on_c, 1, 36, 127
11, 9337, Note_on_c, 1, 36, 0
11, 9420, Note_on_c, 1, 36, 127
11, 9457, Note_on_c, 1, 36, 0
11, 9481, Note_on_c, 1, 31, 127
11, 9524, Note_on_c, 1, 31, 0
11, 9540, Note_on_c, 1, 33, 127
11, 9581, Note_on_c, 1, 33, 0
11, 9601, Note_on_c, 1, 36, 127
11, 9636, Note_on_c, 1, 36, 0
11, 9660, Note_on_c, 1, 36, 127
11, 9693, Note_on_c, 1, 36, 0
11, 9721, Note_on_c, 1, 31, 127
11, 9757, Note_on_c, 1, 31, 0
11, 9780, Note_on_c, 1, 36, 127
11, 9826, Note_on_c, 1, 36, 0
11, 9900, Note_on_c, 1, 36, 127
11, 9947, Note_on_c, 1, 36, 0
11, 9961, Note_on_c, 1, 31, 127
11, 10009, Note_on_c, 1, 31, 0
11, 10020, Note_on_c, 1, 33, 127
11, 10070, Note_on_c, 1, 33, 0
11, 10081, Note_on_c, 1, 36, 127
11, 10104, Note_on_c, 1, 36, 0
11, 10141, Note_on_c, 1, 36, 127
11, 10183, Note_on_c, 1, 36, 0
11, 10201, Note_on_c, 1, 31, 127
11, 10249, Note_on_c, 1, 31, 0
11, 10260, Note_on_c, 1, 36, 127
11, 10303, Note_on_c, 1, 36, 0
11, 10381, Note_on_c, 1, 36, 127
11, 10437, Note_on_c, 1, 36, 0
11, 10441, Note_on_c, 1, 40, 127
11, 10483, Note_on_c, 1, 40, 0
11, 10500, Note_on_c, 1, 41, 127
11, 10543, Note_on_c, 1, 41, 0
11, 10561, Note_on_c, 1, 43, 127
11, 10592, Note_on_c, 1, 43, 0
11, 10621, Note_on_c, 1, 43, 127
11, 10653, Note_on_c, 1, 43, 0
11, 10681, Note_on_c, 1, 38, 127
11, 10711, Note_on_c, 1, 38, 0
11, 10740, Note_on_c, 1, 43, 127
11, 10781, Note_on_c, 1, 43, 0
11, 10860, Note_on_c, 1, 43, 127
11, 10895, Note_on_c, 1, 43, 0
11, 10921, Note_on_c, 1, 38, 127
11, 10976, Note_on_c, 1, 38, 0
11, 10980, Note_on_c, 1, 40, 127
11, 11033, Note_on_c, 1, 40, 0
11, 11041, Note_on_c, 1, 43, 127
11, 11071, Note_on_c, 1, 43, 0
11, 11100, Note_on_c, 1, 43, 127
11, 11141, Note_on_c, 1, 43, 0
11, 11161, Note_on_c, 1, 38, 127
11, 11192, Note_on_c, 1, 38, 0
11, 11220, Note_on_c, 1, 43, 127
11, 11253, Note_on_c, 1, 43, 0
11, 11340, Note_on_c, 1, 43, 127
11, 11396, Note_on_c, 1, 43, 0
11, 11401, Note_on_c, 1, 38, 127
11, 11459, Note_on_c, 1, 38, 0
11, 11460, Note_on_c, 1, 40, 127
11, 11506, Note_on_c, 1, 40, 0
11, 11521, Note_on_c, 1, 36, 127
11, 11544, Note_on_c, 1, 36, 0
11, 11580, Note_on_c, 1, 36, 127
11, 11617, Note_on_c, 1, 36, 0
11, 11641, Note_on_c, 1, 31, 127
11, 11673, Note_on_c, 1, 31, 0
11, 11700, Note_on_c, 1, 36, 127
11, 11741, Note_on_c, 1, 36, 0
11, 11820, Note_on_c, 1, 36, 127
11, 11870, Note_on_c, 1, 36, 0
11, 11881, Note_on_c, 1, 31, 127
11, 11927, Note_on_c, 1, 31, 0
11, 11941, Note_on_c, 1, 33, 127
11, 11987, Note_on_c, 1, 33, 0
11, 12001, Note_on_c, 1, 36, 127
11, 12032, Note_on_c, 1, 36, 0
11, 12060, Note_on_c, 1, 36, 127
11, 12103, Note_on_c, 1, 36, 0
11, 12121, Note_on_c, 1, 31, 127
11, 12159, Note_on_c, 1, 31, 0
11, 12181, Note_on_c, 1, 36, 127
11, 12217, Note_on_c, 1, 36, 0
11, 12300, Note_on_c, 1, 36, 127
11, 12330, Note_on_c, 1, 36, 0
11, 12361, Note_on_c, 1, 31, 127
11, 12407, Note_on_c, 1, 31, 0
11, 12421, Note_on_c, 1, 33, 127
11, 12459, Note_on_c, 1, 33, 0
11, 12481, Note_on_c, 1, 36, 127
11, 12511, Note_on_c, 1, 36, 0
11, 12540, Note_on_c, 1, 36, 127
11, 12573, Note_on_c, 1, 36, 0
11, 12601, Note_on_c, 1, 31, 127
11, 12634, Note_on_c, 1, 31, 0
11, 12660, Note_on_c, 1, 36, 127
11, 12693, Note_on_c, 1, 36, 0
11, 12780, Note_on_c, 1, 36, 127
11, 12815, Note_on_c, 1, 36, 0
11, 12841, Note_on_c, 1, 31, 127
11, 12883, Note_on_c, 1, 31, 0
11, 12900, Note_on_c, 1, 33, 127
11, 12935, Note_on_c, 1, 33, 0
11, 12961, Note_on_c, 1, 36, 127
11, 12992, Note_on_c, 1, 36, 0
11, 13020, Note_on_c, 1, 36, 127
11, 13052, Note_on_c, 1, 36, 0
11, 13081, Note_on_c, 1, 31, 127
11, 13113, Note_on_c, 1, 31, 0
11, 13140, Note_on_c, 1, 36, 127
11, 13177, Note_on_c, 1, 36, 0
11, 13260, Note_on_c, 1, 36, 127
11, 13312, Note_on_c, 1, 36, 0
11, 13321, Note_on_c, 1, 38, 127
11, 13369, Note_on_c, 1, 38, 0
11, 13380, Note_on_c, 1, 40, 127
11, 13428, Note_on_c, 1, 40, 0
11, 13441, Note_on_c, 1, 41, 127
11, 13471, Note_on_c, 1, 41, 0
11, 13501, Note_on_c, 1, 41, 127
11, 13537, Note_on_c, 1, 41, 0
11, 13561, Note_on_c, 1, 36, 127
11, 13593, Note_on_c, 1, 36, 0
11, 13620, Note_on_c, 1, 41, 127
11, 13655, Note_on_c, 1, 41, 0
11, 13740, Note_on_c, 1, 41, 127
11, 13781, Note_on_c, 1, 41, 0
11, 13801, Note_on_c, 1, 36, 127
11, 13848, Note_on_c, 1, 36, 0
11, 13860, Note_on_c, 1, 38, 127
11, 13913, Note_on_c, 1, 38, 0
11, 13921, Note_on_c, 1, 36, 127
11, 13944, Note_on_c, 1, 36, 0
11, 13981, Note_on_c, 1, 36, 127
11, 14013, Note_on_c, 1, 36, 0
11, 14041, Note_on_c, 1, 31, 127
11, 14067, Note_on_c, 1, 31, 0
11, 14100, Note_on_c, 1, 36, 127
11, 14127, Note_on_c, 1, 36, 0
11, 14220, Note_on_c, 1, 36, 127
11, 14263, Note_on_c, 1, 36, 0
11, 14281, Note_on_c, 1, 31, 127
11, 14329, Note_on_c, 1, 31, 0
11, 14340, Note_on_c, 1, 33, 127
11, 14387, Note_on_c, 1, 33, 0
11, 14401, Note_on_c, 1, 36, 127
11, 14431, Note_on_c, 1, 36, 0
11, 14460, Note_on_c, 1, 36, 127
11, 14497, Note_on_c, 1, 36, 0
11, 14521, Note_on_c, 1, 31, 127
11, 14552, Note_on_c, 1, 31, 0
11, 14580, Note_on_c, 1, 36, 127
11, 14620, Note_on_c, 1, 36, 0
11, 14700, Note_on_c, 1, 36, 127
11, 14737, Note_on_c, 1, 36, 0
11, 14761, Note_on_c, 1, 31, 127
11, 14804, Note_on_c, 1, 31, 0
11, 14820, Note_on_c, 1, 33, 127
11, 14863, Note_on_c, 1, 33, 0
11, 14881, Note_on_c, 1, 36, 127
11, 14903, Note_on_c, 1, 36, 0
11, 14940, Note_on_c, 1, 36, 127
11, 14992, Note_on_c, 1, 36, 0
11, 15001, Note_on_c, 1, 31, 127
11, 15056, Note_on_c, 1, 31, 0
11, 15060, Note_on_c, 1, 36, 127
11, 15105, Note_on_c, 1, 36, 0
11, 15180, Note_on_c, 1, 36, 127
11, 15240, Note_on_c, 1, 36, 0
11, 15241, Note_on_c, 1, 40, 127
11, 15294, Note_on_c, 1, 40, 0
11, 15301, Note_on_c, 1, 41, 127
11, 15359, Note_on_c, 1, 41, 0
11, 15361, Note_on_c, 1, 43, 127
11, 15391, Note_on_c, 1, 43, 0
11, 15420, Note_on_c, 1, 43, 127
11, 15463, Note_on_c, 1, 43, 0
11, 15481, Note_on_c, 1, 38, 127
11, 15514, Note_on_c, 1, 38, 0
11, 15540, Note_on_c, 1, 43, 127
11, 15577, Note_on_c, 1, 43, 0
11, 15660, Note_on_c, 1, 43, 127
11, 15707, Note_on_c, 1, 43, 0
11, 15721, Note_on_c, 1, 38, 127
11, 15767, Note_on_c, 1, 38, 0
11, 15781, Note_on_c, 1, 40, 127
11, 15823, Note_on_c, 1, 40, 0
11, 15841, Note_on_c, 1, 36, 127
11, 15864, Note_on_c, 1, 36, 0
11, 15900, Note_on_c, 1, 36, 127
11, 15935, Note_on_c, 1, 36, 0
11, 15961, Note_on_c, 1, 31, 127
11, 15994, Note_on_c, 1, 31, 0
11, 16021, Note_on_c, 1, 36, 127
11, 16057, Note_on_c, 1, 36, 0
11, 16140, Note_on_c, 1, 36, 127
11, 16187, Note_on_c, 1, 36, 0
11, 16261, Note_on_c, 1, 36, 127
11, 16291, Note_on_c, 1, 36, 0
11, 16321, Note_on_c, 1, 36, 127
11, 16352, Note_on_c, 1, 36, 0
11, 16380, Note_on_c, 1, 36, 127
11, 16423, Note_on_c, 1, 36, 0
11, 16441, Note_on_c, 1, 31, 127
11, 16479, Note_on_c, 1, 31, 0
11, 16501, Note_on_c, 1, 36, 127
11, 16537, Note_on_c, 1, 36, 0
11, 16620, Note_on_c, 1, 36, 127
11, 16650, Note_on_c, 1, 36, 0
11, 16681, Note_on_c, 1, 31, 127
11, 16727, Note_on_c, 1, 31, 0
11, 16741, Note_on_c, 1, 33, 127
11, 16779, Note_on_c, 1, 33, 0
11, 16801, Note_on_c, 1, 36, 127
11, 16831, Note_on_c, 1, 36, 0
11, 16860, Note_on_c, 1, 36, 127
11, 16893, Note_on_c, 1, 36, 0
11, 16921, Note_on_c, 1, 31, 127
11, 16954, Note_on_c, 1, 31, 0
11, 16980, Note_on_c, 1, 36, 127
11, 17013, Note_on_c, 1, 36, 0
11, 17100, Note_on_c, 1, 36, 127
11, 17135, Note_on_c, 1, 36, 0
11, 17161, Note_on_c, 1, 31, 127
11, 17203, Note_on_c, 1, 31, 0
11, 17220, Note_on_c, 1, 33, 127
11, 17255, Note_on_c, 1, 33, 0
11, 17281, Note_on_c, 1, 36, 127
11, 17312, Note_on_c, 1, 36, 0
11, 17340, Note_on_c, 1, 36, 127
11, 17372, Note_on_c, 1, 36, 0
11, 17401, Note_on_c, 1, 31, 127
11, 17433, Note_on_c, 1, 31, 0
11, 17460, Note_on_c, 1, 36, 127
11, 17497, Note_on_c, 1, 36, 0
11, 17580, Note_on_c, 1, 36, 127
11, 17632, Note_on_c, 1, 36, 0
11, 17641, Note_on_c, 1, 38, 127
11, 17689, Note_on_c, 1, 38, 0
11, 17700, Note_on_c, 1, 40, 127
11, 17748, Note_on_c, 1, 40, 0
11, 17761, Note_on_c, 1, 41, 127
11, 17791, Note_on_c, 1, 41, 0
11, 17821, Note_on_c, 1, 41, 127
11, 17857, Note_on_c, 1, 41, 0
11, 17881, Note_on_c, 1, 36, 127
11, 17913, Note_on_c, 1, 36, 0
11, 17940, Note_on_c, 1, 41, 127
11, 17975, Note_on_c, 1, 41, 0
11, 18060, Note_on_c, 1, 41, 127
11, 18101, Note_on_c, 1, 41, 0
11, 18121, Note_on_c, 1, 36, 127
11, 18168, Note_on_c, 1, 36, 0
11, 18180, Note_on_c, 1, 38, 127
11, 18233, Note_on_c, 1, 38, 0
11, 18241, Note_on_c, 1, 36, 127
11, 18264, Note_on_c, 1, 36, 0
11, 18301, Note_on_c, 1, 36, 127
11, 18333, Note_on_c, 1, 36, 0
11, 18361, Note_on_c, 1, 31, 127
11, 18387, Note_on_c, 1, 31, 0
11, 18420, Note_on_c, 1, 36, 127
11, 18447, Note_on_c, 1, 36, 0
11, 18540, Note_on_c, 1, 36, 127
11, 18583, Note_on_c, 1, 36, 0
11, 18601, Note_on_c, 1, 31, 127
11, 18649, Note_on_c, 1, 31, 0
11, 18660, Note_on_c, 1, 33, 127
11, 18707, Note_on_c, 1, 33, 0
11, 18721, Note_on_c, 1, 36, 127
11, 18751, Note_on_c, 1, 36, 0
11, 18780, Note_on_c, 1, 36, 127
11, 18817, Note_on_c, 1, 36, 0
11, 18841, Note_on_c, 1, 31, 127
11, 18872, Note_on_c, 1, 31, 0
11, 18900, Note_on_c, 1, 36, 127
11, 18940, Note_on_c, 1, 36, 0
11, 19020, Note_on_c, 1, 36, 127
11, 19057, Note_on_c, 1, 36, 0
11, 19081, Note_on_c, 1, 31, 127
11, 19124, Note_on_c, 1, 31, 0
11, 19140, Note_on_c, 1, 33, 127
11, 19183, Note_on_c, 1, 33, 0
11, 19201, Note_on_c, 1, 36, 127
11, 19223, Note_on_c, 1, 36, 0
11, 19260, Note_on_c, 1, 36, 127
11, 19312, Note_on_c, 1, 36, 0
11, 19321, Note_on_c, 1, 31, 127
11, 19376, Note_on_c, 1, 31, 0
11, 19380, Note_on_c, 1, 36, 127
11, 19425, Note_on_c, 1, 36, 0
11, 19500, Note_on_c, 1, 36, 127
11, 19560, Note_on_c, 1, 36, 0
11, 19561, Note_on_c, 1, 40, 127
11, 19614, Note_on_c, 1, 40, 0
11, 19621, Note_on_c, 1, 41, 127
11, 19679, Note_on_c, 1, 41, 0
11, 19681, Note_on_c, 1, 43, 127
11, 19711, Note_on_c, 1, 43, 0
11, 19740, Note_on_c, 1, 43, 127
11, 19783, Note_on_c, 1, 43, 0
11, 19801, Note_on_c, 1, 38, 127
11, 19834, Note_on_c, 1, 38, 0
11, 19860, Note_on_c, 1, 43, 127
11, 19897, Note_on_c, 1, 43, 0
11, 19980, Note_on_c, 1, 43, 127
11, 20027, Note_on_c, 1, 43, 0
11, 20041, Note_on_c, 1, 38, 127
11, 20087, Note_on_c, 1, 38, 0
11, 20101, Note_on_c, 1, 40, 127
11, 20143, Note_on_c, 1, 40, 0
11, 20161, Note_on_c, 1, 36, 127
11, 20184, Note_on_c, 1, 36, 0
11, 20220, Note_on_c, 1, 36, 127
11, 20255, Note_on_c, 1, 36, 0
11, 20281, Note_on_c, 1, 31, 127
11, 20314, Note_on_c, 1, 31, 0
11, 20341, Note_on_c, 1, 36, 127
11, 20377, Note_on_c, 1, 36, 0
11, 20460, Note_on_c, 1, 36, 127
11, 20507, Note_on_c, 1, 36, 0
11, 20581, Note_on_c, 1, 36, 127
11, 20611, Note_on_c, 1, 36, 0
11, 20641, Note_on_c, 1, 36, 127
11, 20664, Note_on_c, 1, 36, 0
11, 20700, Note_on_c, 1, 36, 127
11, 20735, Note_on_c, 1, 36, 0
11, 20761, Note_on_c, 1, 31, 127
11, 20794, Note_on_c, 1, 31, 0
11, 20821, Note_on_c, 1, 36, 127
11, 20857, Note_on_c, 1, 36, 0
11, 20940, Note_on_c, 1, 36, 127
11, 20987, Note_on_c, 1, 36, 0
11, 21061, Note_on_c, 1, 36, 127
11, 21091, Note_on_c, 1, 36, 0
11, 21121, Note_on_c, 1, 36, 127
11, 21144, Note_on_c, 1, 36, 0
11, 21180, Note_on_c, 1, 36, 127
11, 21215, Note_on_c, 1, 36, 0
11, 21241, Note_on_c, 1, 31, 127
11, 21274, Note_on_c, 1, 31, 0
11, 21301, Note_on_c, 1, 36, 127
11, 21337, Note_on_c, 1, 36, 0
11, 21420, Note_on_c, 1, 36, 127
11, 21467, Note_on_c, 1, 36, 0
11, 21541, Note_on_c, 1, 36, 127
11, 21571, Note_on_c, 1, 36, 0
11, 21601, Note_on_c, 1, 36, 127
11, 21624, Note_on_c, 1, 36, 0
11, 21660, Note_on_c, 1, 36, 127
11, 21695, Note_on_c, 1, 36, 0
11, 21721, Note_on_c, 1, 31, 127
11, 21754, Note_on_c, 1, 31, 0
11, 21781, Note_on_c, 1, 36, 127
11, 21817, Note_on_c, 1, 36, 0
11, 21900, Note_on_c, 1, 36, 127
11, 21947, Note_on_c, 1, 36, 0
11, 22021, Note_on_c, 1, 36, 127
11, 22051, Note_on_c, 1, 36, 0
11, 22081, Note_on_c, 1, 36, 127
11, 22104, Note_on_c, 1, 36, 0
11, 22140, Note_on_c, 1, 36, 127
11, 22175, Note_on_c, 1, 36, 0
11, 22201, Note_on_c, 1, 31, 127
11, 22234, Note_on_c, 1, 31, 0
11, 22261, Note_on_c, 1, 36, 127
11, 22297, Note_on_c, 1, 36, 0
11, 22380, Note_on_c, 1, 36, 127
11, 22427, Note_on_c, 1, 36, 0
11, 22501, Note_on_c, 1, 36, 127
11, 22531, Note_on_c, 1, 36, 0
11, 22561, Note_on_c, 1, 36, 127
11, 22584, Note_on_c, 1, 36, 0
11, 22620, Note_on_c, 1, 36, 127
11, 22655, Note_on_c, 1, 36, 0
11, 22681, Note_on_c, 1, 31, 127
11, 22714, Note_on_c, 1, 31, 0
11, 22741, Note_on_c, 1, 36, 127
11, 22777, Note_on_c, 1, 36, 0
11, 22860, Note_on_c, 1, 36, 127
11, 22907, Note_on_c, 1, 36, 0
11, 22981, Note_on_c, 1, 36, 127
11, 23011, Note_on_c, 1, 36, 0
11, 23041, Note_on_c, 1, 43, 127
11, 23071, Note_on_c, 1, 43, 0
11, 23100, Note_on_c, 1, 43, 127
11, 23143, Note_on_c, 1, 43, 0
11, 23161, Note_on_c, 1, 38, 127
11, 23194, Note_on_c, 1, 38, 0
11, 23220, Note_on_c, 1, 43, 127
11, 23257, Note_on_c, 1, 43, 0
11, 23340, Note_on_c, 1, 43, 127
11, 23387, Note_on_c, 1, 43, 0
11, 23401, Note_on_c, 1, 38, 127
11, 23447, Note_on_c, 1, 38, 0
11, 23461, Note_on_c, 1, 40, 127
11, 23503, Note_on_c, 1, 40, 0
11, 23521, Note_on_c, 1, 43, 127
11, 23551, Note_on_c, 1, 43, 0
11, 23580, Note_on_c, 1, 43, 127
11, 23623, Note_on_c, 1, 43, 0
11, 23641, Note_on_c, 1, 38, 127
11, 23674, Note_on_c, 1, 38, 0
11, 23700, Note_on_c, 1, 43, 127
11, 23737, Note_on_c, 1, 43, 0
11, 23820, Note_on_c, 1, 43, 127
11, 23867, Note_on_c, 1, 43, 0
11, 23881, Note_on_c, 1, 38, 127
11, 23927, Note_on_c, 1, 38, 0
11, 23941, Note_on_c, 1, 40, 127
11, 23983, Note_on_c, 1, 40, 0
11, 24001, Note_on_c, 1, 36, 127
11, 24024, Note_on_c, 1, 36, 0
11, 24060, Note_on_c, 1, 36, 127
11, 24095, Note_on_c, 1, 36, 0
11, 24121, Note_on_c, 1, 31, 127
11, 24154, Note_on_c, 1, 31, 0
11, 24181, Note_on_c, 1, 36, 127
11, 24217, Note_on_c, 1, 36, 0
11, 24300, Note_on_c, 1, 36, 127
11, 24347, Note_on_c, 1, 36, 0
11, 24421, Note_on_c, 1, 36, 127
11, 24451, Note_on_c, 1, 36, 0
11, 24481, Note_on_c, 1, 36, 127
11, 24504, Note_on_c, 1, 36, 0
11, 24540, Note_on_c, 1, 36, 127
11, 24575, Note_on_c, 1, 36, 0
11, 24601, Note_on_c, 1, 31, 127
11, 24634, Note_on_c, 1, 31, 0
11, 24661, Note_on_c, 1, 36, 127
11, 24697, Note_on_c, 1, 36, 0
11, 24780, Note_on_c, 1, 36, 127
11, 24827, Note_on_c, 1, 36, 0
11, 24901, Note_on_c, 1, 36, 127
11, 24931, Note_on_c, 1, 36, 0
11, 24961, Note_on_c, 1, 36, 127
11, 24984, Note_on_c, 1, 36, 0
11, 25020, Note_on_c, 1, 36, 127
11, 25055, Note_on_c, 1, 36, 0
11, 25081, Note_on_c, 1, 31, 127
11, 25114, Note_on_c, 1, 31, 0
11, 25141, Note_on_c, 1, 36, 127
11, 25177, Note_on_c, 1, 36, 0
11, 25260, Note_on_c, 1, 36, 127
11, 25307, Note_on_c, 1, 36, 0
11, 25381, Note_on_c, 1, 36, 127
11, 25411, Note_on_c, 1, 36, 0
11, 25441, Note_on_c, 1, 43, 127
11, 25471, Note_on_c, 1, 43, 0
11, 25500, Note_on_c, 1, 43, 127
11, 25543, Note_on_c, 1, 43, 0
11, 25561, Note_on_c, 1, 38, 127
11, 25594, Note_on_c, 1, 38, 0
11, 25620, Note_on_c, 1, 43, 127
11, 25657, Note_on_c, 1, 43, 0
11, 25740, Note_on_c, 1, 43, 127
11, 25787, Note_on_c, 1, 43, 0
11, 25801, Note_on_c, 1, 38, 127
11, 25847, Note_on_c, 1, 38, 0
11, 25861, Note_on_c, 1, 40, 127
11, 25903, Note_on_c, 1, 40, 0
11, 25921, Note_on_c, 1, 36, 127
11, 25944, Note_on_c, 1, 36, 0
11, 25980, Note_on_c, 1, 36, 127
11, 26015, Note_on_c, 1, 36, 0
11, 26041, Note_on_c, 1, 31, 127
11, 26074, Note_on_c, 1, 31, 0
11, 26101, Note_on_c, 1, 36, 127
11, 26137, Note_on_c, 1, 36, 0
11, 26220, Note_on_c, 1, 36, 127
11, 26267, Note_on_c, 1, 36, 0
11, 26341, Note_on_c, 1, 36, 127
11, 26371, Note_on_c, 1, 36, 0
11, 26401, Note_on_c, 1, 43, 127
11, 26431, Note_on_c, 1, 43, 0
11, 26460, Note_on_c, 1, 43, 127
11, 26503, Note_on_c, 1, 43, 0
11, 26521, Note_on_c, 1, 38, 127
11, 26554, Note_on_c, 1, 38, 0
11, 26580, Note_on_c, 1, 43, 127
11, 26617, Note_on_c, 1, 43, 0
11, 26700, Note_on_c, 1, 43, 127
11, 26747, Note_on_c, 1, 43, 0
11, 26761, Note_on_c, 1, 38, 127
11, 26807, Note_on_c, 1, 38, 0
11, 26821, Note_on_c, 1, 40, 127
11, 26863, Note_on_c, 1, 40, 0
11, 26881, Note_on_c, 1, 36, 127
11, 26904, Note_on_c, 1, 36, 0
11, 26940, Note_on_c, 1, 36, 127
11, 26975, Note_on_c, 1, 36, 0
11, 27001, Note_on_c, 1, 31, 127
11, 27034, Note_on_c, 1, 31, 0
11, 27061, Note_on_c, 1, 36, 127
11, 27097, Note_on_c, 1, 36, 0
11, 27180, Note_on_c, 1, 36, 127
11, 27227, Note_on_c, 1, 36, 0
11, 27301, Note_on_c, 1, 36, 127
11, 27331, Note_on_c, 1, 36, 0
11, 27361, Note_on_c, 1, 43, 127
11, 27391, Note_on_c, 1, 43, 0
11, 27420, Note_on_c, 1, 43, 127
11, 27463, Note_on_c, 1, 43, 0
11, 27481, Note_on_c, 1, 38, 127
11, 27514, Note_on_c, 1, 38, 0
11, 27540, Note_on_c, 1, 43, 127
11, 27577, Note_on_c, 1, 43, 0
11, 27660, Note_on_c, 1, 43, 127
11, 27707, Note_on_c, 1, 43, 0
11, 27721, Note_on_c, 1, 38, 127
11, 27767, Note_on_c, 1, 38, 0
11, 27781, Note_on_c, 1, 40, 127
11, 27823, Note_on_c, 1, 40, 0
11, 27841, Note_on_c, 1, 36, 127
11, 27864, Note_on_c, 1, 36, 0
11, 27900, Note_on_c, 1, 36, 127
11, 27935, Note_on_c, 1, 36, 0
11, 27961, Note_on_c, 1, 31, 127
11, 27994, Note_on_c, 1, 31, 0
11, 28021, Note_on_c, 1, 36, 127
11, 28057, Note_on_c, 1, 36, 0
11, 28140, Note_on_c, 1, 36, 127
11, 28187, Note_on_c, 1, 36, 0
11, 28261, Note_on_c, 1, 36, 127
11, 28291, Note_on_c, 1, 36, 0
11, 28321, Note_on_c, 1, 36, 127
11, 28344, Note_on_c, 1, 36, 0
11, 28380, Note_on_c, 1, 36, 127
11, 28415, Note_on_c, 1, 36, 0
11, 28441, Note_on_c, 1, 31, 127
11, 28474, Note_on_c, 1, 31, 0
11, 28501, Note_on_c, 1, 36, 127
11, 28537, Note_on_c, 1, 36, 0
11, 28620, Note_on_c, 1, 36, 127
11, 28667, Note_on_c, 1, 36, 0
11, 28741, Note_on_c, 1, 36, 127
11, 28771, Note_on_c, 1, 36, 0
11, 28801, Note_on_c, 1, 36, 127
11, 28824, Note_on_c, 1, 36, 0
11, 28860, Note_on_c, 1, 36, 127
11, 28895, Note_on_c, 1, 36, 0
11, 28921, Note_on_c, 1, 31, 127
11, 28954, Note_on_c, 1, 31, 0
11, 28981, Note_on_c, 1, 36, 127
11, 29017, Note_on_c, 1, 36, 0
11, 29100, Note_on_c, 1, 36, 127
11, 29147, Note_on_c, 1, 36, 0
11, 29221, Note_on_c, 1, 36, 127
11, 29251, Note_on_c, 1, 36, 0
11, 29281, Note_on_c, 1, 43, 127
11, 29311, Note_on_c, 1, 43, 0
11, 29340, Note_on_c, 1, 43, 127
11, 29383, Note_on_c, 1, 43, 0
11, 29401, Note_on_c, 1, 38, 127
11, 29434, Note_on_c, 1, 38, 0
11, 29460, Note_on_c, 1, 43, 127
11, 29497, Note_on_c, 1, 43, 0
11, 29580, Note_on_c, 1, 43, 127
11, 29627, Note_on_c, 1, 43, 0
11, 29641, Note_on_c, 1, 38, 127
11, 29687, Note_on_c, 1, 38, 0
11, 29701, Note_on_c, 1, 40, 127
11, 29743, Note_on_c, 1, 40, 0
11, 29761, Note_on_c, 1, 36, 127
11, 29784, Note_on_c, 1, 36, 0
11, 29820, Note_on_c, 1, 36, 127
11, 29855, Note_on_c, 1, 36, 0
11, 29881, Note_on_c, 1, 31, 127
11, 29914, Note_on_c, 1, 31, 0
11, 29941, Note_on_c, 1, 36, 127
11, 29977, Note_on_c, 1, 36, 0
11, 30060, Note_on_c, 1, 36, 127
11, 30107, Note_on_c, 1, 36, 0
11, 30181, Note_on_c, 1, 36, 127
11, 30211, Note_on_c, 1, 36, 0
11, 30241, Note_on_c, 1, 43, 127
11, 30271, Note_on_c, 1, 43, 0
11, 30300, Note_on_c, 1, 43, 127
11, 30343, Note_on_c, 1, 43, 0
11, 30361, Note_on_c, 1, 38, 127
11, 30394, Note_on_c, 1, 38, 0
11, 30420, Note_on_c, 1, 43, 127
11, 30457, Note_on_c, 1, 43, 0
11, 30540, Note_on_c, 1, 43, 127
11, 30587, Note_on_c, 1, 43, 0
11, 30601, Note_on_c, 1, 38, 127
11, 30647, Note_on_c, 1, 38, 0
11, 30661, Note_on_c, 1, 40, 127
11, 30703, Note_on_c, 1, 40, 0
11, 30721, Note_on_c, 1, 36, 127
11, 30744, Note_on_c, 1, 36, 0
11, 30780, Note_on_c, 1, 36, 127
11, 30815, Note_on_c, 1, 36, 0
11, 30841, Note_on_c, 1, 31, 127
11, 30874, Note_on_c, 1, 31, 0
11, 30901, Note_on_c, 1, 36, 127
11, 30937, Note_on_c, 1, 36, 0
11, 31020, Note_on_c, 1, 36, 127
11, 31067, Note_on_c, 1, 36, 0
11, 31141, Note_on_c, 1, 36, 127
11, 31171, Note_on_c, 1, 36, 0
11, 31201, Note_on_c, 1, 43, 127
11, 31231, Note_on_c, 1, 43, 0
11, 31260, Note_on_c, 1, 43, 127
11, 31303, Note_on_c, 1, 43, 0
11, 31321, Note_on_c, 1, 38, 127
11, 31354, Note_on_c, 1, 38, 0
11, 31380, Note_on_c, 1, 43, 127
11, 31417, Note_on_c, 1, 43, 0
11, 31500, Note_on_c, 1, 43, 127
11, 31547, Note_on_c, 1, 43, 0
11, 31561, Note_on_c, 1, 38, 127
11, 31607, Note_on_c, 1, 38, 0
11, 31621, Note_on_c, 1, 40, 127
11, 31663, Note_on_c, 1, 40, 0
11, 31681, Note_on_c, 1, 36, 127
11, 31704, Note_on_c, 1, 36, 0
11, 31740, Note_on_c, 1, 36, 127
11, 31775, Note_on_c, 1, 36, 0
11, 31801, Note_on_c, 1, 31, 127
11, 31834, Note_on_c, 1, 31, 0
11, 31861, Note_on_c, 1, 36, 127
11, 31897, Note_on_c, 1, 36, 0
11, 31980, Note_on_c, 1, 36, 127
11, 32027, Note_on_c, 1, 36, 0
11, 32101, Note_on_c, 1, 36, 127
11, 32131, Note_on_c, 1, 36, 0
11, 32161, Note_on_c, 1, 36, 127
11, 32187, Note_on_c, 1, 36, 0
11, 32220, Note_on_c, 1, 36, 127
11, 32250, Note_on_c, 1, 36, 0
11, 32281, Note_on_c, 1, 31, 127
11, 32313, Note_on_c, 1, 31, 0
11, 32340, Note_on_c, 1, 36, 127
11, 32373, Note_on_c, 1, 36, 0
11, 32460, Note_on_c, 1, 36, 127
11, 32491, Note_on_c, 1, 36, 0
11, 32521, Note_on_c, 1, 31, 127
11, 32573, Note_on_c, 1, 31, 0
11, 32581, Note_on_c, 1, 33, 127
11, 32631, Note_on_c, 1, 33, 0
11, 32641, Note_on_c, 1, 36, 127
11, 32667, Note_on_c, 1, 36, 0
11, 32700, Note_on_c, 1, 36, 127
11, 32731, Note_on_c, 1, 36, 0
11, 32761, Note_on_c, 1, 31, 127
11, 32794, Note_on_c, 1, 31, 0
11, 32821, Note_on_c, 1, 36, 127
11, 32858, Note_on_c, 1, 36, 0
11, 32940, Note_on_c, 1, 36, 127
11, 32977, Note_on_c, 1, 36, 0
11, 33001, Note_on_c, 1, 31, 127
11, 33044, Note_on_c, 1, 31, 0
11, 33061, Note_on_c, 1, 33, 127
11, 33103, Note_on_c, 1, 33, 0
11, 33121, Note_on_c, 1, 36, 127
11, 33148, Note_on_c, 1, 36, 0
11, 33180, Note_on_c, 1, 36, 127
11, 33207, Note_on_c, 1, 36, 0
11, 33241, Note_on_c, 1, 31, 127
11, 33268, Note_on_c, 1, 31, 0
11, 33300, Note_on_c, 1, 36, 127
11, 33337, Note_on_c, 1, 36, 0
11, 33420, Note_on_c, 1, 36, 127
11, 33457, Note_on_c, 1, 36, 0
11, 33481, Note_on_c, 1, 31, 127
11, 33524, Note_on_c, 1, 31, 0
11, 33540, Note_on_c, 1, 33, 127
11, 33581, Note_on_c, 1, 33, 0
11, 33601, Note_on_c, 1, 36, 127
11, 33636, Note_on_c, 1, 36, 0
11, 33660, Note_on_c, 1, 36, 127
11, 33693, Note_on_c, 1, 36, 0
11, 33721, Note_on_c, 1, 31, 127
11, 33757, Note_on_c, 1, 31, 0
11, 33780, Note_on_c, 1, 36, 127
11, 33826, Note_on_c, 1, 36, 0
11, 33900, Note_on_c, 1, 36, 127
11, 33947, Note_on_c, 1, 36, 0
11, 33961, Note_on_c, 1, 31, 127
11, 34009, Note_on_c, 1, 31, 0
11, 34020, Note_on_c, 1, 33, 127
11, 34070, Note_on_c, 1, 33, 0
11, 34081, Note_on_c, 1, 36, 127
11, 34104, Note_on_c, 1, 36, 0
11, 34141, Note_on_c, 1, 36, 127
11, 34183, Note_on_c, 1, 36, 0
11, 34201, Note_on_c, 1, 31, 127
11, 34249, Note_on_c, 1, 31, 0
11, 34260, Note_on_c, 1, 36, 127
11, 34303, Note_on_c, 1, 36, 0
11, 34381, Note_on_c, 1, 36, 127
11, 34437, Note_on_c, 1, 36, 0
11, 34441, Note_on_c, 1, 40, 127
11, 34483, Note_on_c, 1, 40, 0
11, 34500, Note_on_c, 1, 41, 127
11, 34543, Note_on_c, 1, 41, 0
11, 34561, Note_on_c, 1, 43, 127
11, 34592, Note_on_c, 1, 43, 0
11, 34621, Note_on_c, 1, 43, 127
11, 34653, Note_on_c, 1, 43, 0
11, 34681, Note_on_c, 1, 38, 127
11, 34711, Note_on_c, 1, 38, 0
11, 34740, Note_on_c, 1, 43, 127
11, 34781, Note_on_c, 1, 43, 0
11, 34860, Note_on_c, 1, 43, 127
11, 34895, Note_on_c, 1, 43, 0
11, 34921, Note_on_c, 1, 38, 127
11, 34976, Note_on_c, 1, 38, 0
11, 34980, Note_on_c, 1, 40, 127
11, 35033, Note_on_c, 1, 40, 0
11, 35041, Note_on_c, 1, 43, 127
11, 35071, Note_on_c, 1, 43, 0
11, 35100, Note_on_c, 1, 43, 127
11, 35141, Note_on_c, 1, 43, 0
11, 35161, Note_on_c, 1, 38, 127
11, 35192, Note_on_c, 1, 38, 0
11, 35220, Note_on_c, 1, 43, 127
11, 35253, Note_on_c, 1, 43, 0
11, 35340, Note_on_c, 1, 43, 127
11, 35396, Note_on_c, 1, 43, 0
11, 35401, Note_on_c, 1, 38, 127
11, 35459, Note_on_c, 1, 38, 0
11, 35460, Note_on_c, 1, 40, 127
11, 35506, Note_on_c, 1, 40, 0
11, 35521, Note_on_c, 1, 36, 127
11, 35544, Note_on_c, 1, 36, 0
11, 35580, Note_on_c, 1, 36, 127
11, 35617, Note_on_c, 1, 36, 0
11, 35641, Note_on_c, 1, 31, 127
11, 35673, Note_on_c, 1, 31, 0
11, 35700, Note_on_c, 1, 36, 127
11, 35741, Note_on_c, 1, 36, 0
11, 35820, Note_on_c, 1, 36, 127
11, 35870, Note_on_c, 1, 36, 0
11, 35881, Note_on_c, 1, 31, 127
11, 35927, Note_on_c, 1, 31, 0
11, 35941, Note_on_c, 1, 33, 127
11, 35987, Note_on_c, 1, 33, 0
11, 36001, Note_on_c, 1, 36, 127
11, 36027, Note_on_c, 1, 36, 0
11, 36060, Note_on_c, 1, 36, 127
11, 36090, Note_on_c, 1, 36, 0
11, 36121, Note_on_c, 1, 31, 127
11, 36153, Note_on_c, 1, 31, 0
11, 36180, Note_on_c, 1, 36, 127
11, 36213, Note_on_c, 1, 36, 0
11, 36300, Note_on_c, 1, 36, 127
11, 36331, Note_on_c, 1, 36, 0
11, 36361, Note_on_c, 1, 31, 127
11, 36413, Note_on_c, 1, 31, 0
11, 36421, Note_on_c, 1, 33, 127
11, 36471, Note_on_c, 1, 33, 0
11, 36481, Note_on_c, 1, 36, 127
11, 36507, Note_on_c, 1, 36, 0
11, 36540, Note_on_c, 1, 36, 127
11, 36571, Note_on_c, 1, 36, 0
11, 36601, Note_on_c, 1, 31, 127
11, 36634, Note_on_c, 1, 31, 0
11, 36661, Note_on_c, 1, 36, 127
11, 36698, Note_on_c, 1, 36, 0
11, 36780, Note_on_c, 1, 36, 127
11, 36817, Note_on_c, 1, 36, 0
11, 36841, Note_on_c, 1, 31, 127
11, 36884, Note_on_c, 1, 31, 0
11, 36901, Note_on_c, 1, 33, 127
11, 36943, Note_on_c, 1, 33, 0
11, 36961, Note_on_c, 1, 36, 127
11, 36988, Note_on_c, 1, 36, 0
11, 37020, Note_on_c, 1, 36, 127
11, 37047, Note_on_c, 1, 36, 0
11, 37081, Note_on_c, 1, 31, 127
11, 37108, Note_on_c, 1, 31, 0
11, 37140, Note_on_c, 1, 36, 127
11, 37177, Note_on_c, 1, 36, 0
11, 37260, Note_on_c, 1, 36, 127
11, 37297, Note_on_c, 1, 36, 0
11, 37321, Note_on_c, 1, 31, 127
11, 37364, Note_on_c, 1, 31, 0
11, 37380, Note_on_c, 1, 33, 127
11, 37421, Note_on_c, 1, 33, 0
11, 37441, Note_on_c, 1, 36, 127
11, 37476, Note_on_c, 1, 36, 0
11, 37500, Note_on_c, 1, 36, 127
11, 37533, Note_on_c, 1, 36, 0
11, 37561, Note_on_c, 1, 31, 127
11, 37597, Note_on_c, 1, 31, 0
11, 37620, Note_on_c, 1, 36, 127
11, 37666, Note_on_c, 1, 36, 0
11, 37740, Note_on_c, 1, 36, 127
11, 37787, Note_on_c, 1, 36, 0
11, 37801, Note_on_c, 1, 31, 127
11, 37849, Note_on_c, 1, 31, 0
11, 37860, Note_on_c, 1, 33, 127
11, 37910, Note_on_c, 1, 33, 0
11, 37921, Note_on_c, 1, 36, 127
11, 37944, Note_on_c, 1, 36, 0
11, 37981, Note_on_c, 1, 36, 127
11, 38023, Note_on_c, 1, 36, 0
11, 38041, Note_on_c, 1, 31, 127
11, 38089, Note_on_c, 1, 31, 0
11, 38100, Note_on_c, 1, 36, 127
11, 38143, Note_on_c, 1, 36, 0
11, 38221, Note_on_c, 1, 36, 127
11, 38277, Note_on_c, 1, 36, 0
11, 38281, Note_on_c, 1, 40, 127
11, 38323, Note_on_c, 1, 40, 0
11, 38340, Note_on_c, 1, 41, 127
11, 38383, Note_on_c, 1, 41, 0
11, 38401, Note_on_c, 1, 43, 127
11, 38432, Note_on_c, 1, 43, 0
11, 38461, Note_on_c, 1, 43, 127
11, 38493, Note_on_c, 1, 43, 0
11, 38521, Note_on_c, 1, 38, 127
11, 38551, Note_on_c, 1, 38, 0
11, 38580, Note_on_c, 1, 43, 127
11, 38621, Note_on_c, 1, 43, 0
11, 38700, Note_on_c, 1, 43, 127
11, 38735, Note_on_c, 1, 43, 0
11, 38761, Note_on_c, 1, 38, 127
11, 38816, Note_on_c, 1, 38, 0
11, 38820, Note_on_c, 1, 40, 127
11, 38873, Note_on_c, 1, 40, 0
11, 38881, Note_on_c, 1, 43, 127
11, 38911, Note_on_c, 1, 43, 0
11, 38940, Note_on_c, 1, 43, 127
11, 38981, Note_on_c, 1, 43, 0
11, 39001, Note_on_c, 1, 38, 127
11, 39032, Note_on_c, 1, 38, 0
11, 39060, Note_on_c, 1, 43, 127
11, 39093, Note_on_c, 1, 43, 0
11, 39180, Note_on_c, 1, 43, 127
11, 39236, Note_on_c, 1, 43, 0
11, 39241, Note_on_c, 1, 38, 127
11, 39299, Note_on_c, 1, 38, 0
11, 39300, Note_on_c, 1, 40, 127
11, 39346, Note_on_c, 1, 40, 0
11, 39361, Note_on_c, 1, 36, 127
11, 39384, Note_on_c, 1, 36, 0
11, 39420, Note_on_c, 1, 36, 127
11, 39457, Note_on_c, 1, 36, 0
11, 39481, Note_on_c, 1, 31, 127
11, 39513, Note_on_c, 1, 31, 0
11, 39540, Note_on_c, 1, 36, 127
11, 39581, Note_on_c, 1, 36, 0
11, 39660, Note_on_c, 1, 36, 127
11, 39710, Note_on_c, 1, 36, 0
11, 39721, Note_on_c, 1, 31, 127
11, 39767, Note_on_c, 1, 31, 0
11, 39781, Note_on_c, 1, 33, 127
11, 39827, Note_on_c, 1, 33, 0
11, 39841, Note_on_c, 1, 36, 127
11, 39867, Note_on_c, 1, 36, 0
11, 39900, Note_on_c, 1, 36, 127
11, 39930, Note_on_c, 1, 36, 0
11, 39961, Note_on_c, 1, 31, 127
11, 39993, Note_on_c, 1, 31, 0
11, 40020, Note_on_c, 1, 36, 127
11, 40053, Note_on_c, 1, 36, 0
11, 40140, Note_on_c, 1, 36, 127
11, 40171, Note_on_c, 1, 36, 0
11, 40201, Note_on_c, 1, 31, 127
11, 40253, Note_on_c, 1, 31, 0
11, 40261, Note_on_c, 1, 33, 127
11, 40311, Note_on_c, 1, 33, 0
11, 40321, Note_on_c, 1, 36, 127
11, 40347, Note_on_c, 1, 36, 0
11, 40380, Note_on_c, 1, 36, 127
11, 40411, Note_on_c, 1, 36, 0
11, 40441, Note_on_c, 1, 31, 127
11, 40474, Note_on_c, 1, 31, 0
11, 40501, Note_on_c, 1, 36, 127
11, 40538, Note_on_c, 1, 36, 0
11, 40620, Note_on_c, 1, 36, 127
11, 40657, Note_on_c, 1, 36, 0
11, 40681, Note_on_c, 1, 31, 127
11, 40724, Note_on_c, 1, 31, 0
11, 40741, Note_on_c, 1, 33, 127
11, 40783, Note_on_c, 1, 33, 0
11, 40801, Note_on_c, 1, 36, 127
11, 40828, Note_on_c, 1, 36, 0
11, 40860, Note_on_c, 1, 36, 127
11, 40887, Note_on_c, 1, 36, 0
11, 40921, Note_on_c, 1, 31, 127
11, 40948, Note_on_c, 1, 31, 0
11, 40980, Note_on_c, 1, 36, 127
11, 41017, Note_on_c, 1, 36, 0
11, 41100, Note_on_c, 1, 36, 127
11, 41137, Note_on_c, 1, 36, 0
11, 41161, Note_on_c, 1, 31, 127
11, 41204, Note_on_c, 1, 31, 0
11, 41220, Note_on_c, 1, 33, 127
11, 41261, Note_on_c, 1, 33, 0
11, 41281, Note_on_c, 1, 36, 127
11, 41316, Note_on_c, 1, 36, 0
11, 41340, Note_on_c, 1, 36, 127
11, 41373, Note_on_c, 1, 36, 0
11, 41401, Note_on_c, 1, 31, 127
11, 41437, Note_on_c, 1, 31, 0
11, 41460, Note_on_c, 1, 36, 127
11, 41506, Note_on_c, 1, 36, 0
11, 41580, Note_on_c, 1, 36, 127
11, 41627, Note_on_c, 1, 36, 0
11, 41641, Note_on_c, 1, 31, 127
11, 41689, Note_on_c, 1, 31, 0
11, 41700, Note_on_c, 1, 33, 127
11, 41750, Note_on_c, 1, 33, 0
11, 41761, Note_on_c, 1, 36, 127
11, 41784, Note_on_c, 1, 36, 0
11, 41821, Note_on_c, 1, 36, 127
11, 41863, Note_on_c, 1, 36, 0
11, 41881, Note_on_c, 1, 31, 127
11, 41929, Note_on_c, 1, 31, 0
11, 41940, Note_on_c, 1, 36, 127
11, 41983, Note_on_c, 1, 36, 0
11, 42061, Note_on_c, 1, 36, 127
11, 42117, Note_on_c, 1, 36, 0
11, 42121, Note_on_c, 1, 40, 127
11, 42163, Note_on_c, 1, 40, 0
11, 42180, Note_on_c, 1, 41, 127
11, 42223, Note_on_c, 1, 41, 0
11, 42241, Note_on_c, 1, 43, 127
11, 42272, Note_on_c, 1, 43, 0
11, 42301, Note_on_c, 1, 43, 127
11, 42333, Note_on_c, 1, 43, 0
11, 42361, Note_on_c, 1, 38, 127
11, 42391, Note_on_c, 1, 38, 0
11, 42420, Note_on_c, 1, 43, 127
11, 42461, Note_on_c, 1, 43, 0
11, 42540, Note_on_c, 1, 43, 127
11, 42575, Note_on_c, 1, 43, 0
11, 42601, Note_on_c, 1, 38, 127
11, 42656, Note_on_c, 1, 38, 0
11, 42660, Note_on_c, 1, 40, 127
11, 42713, Note_on_c, 1, 40, 0
11, 42721, Note_on_c, 1, 43, 127
11, 42751, Note_on_c, 1, 43, 0
11, 42780, Note_on_c, 1, 43, 127
11, 42821, Note_on_c, 1, 43, 0
11, 42841, Note_on_c, 1, 38, 127
11, 42872, Note_on_c, 1, 38, 0
11, 42900, Note_on_c, 1, 43, 127
11, 42933, Note_on_c, 1, 43, 0
11, 43020, Note_on_c, 1, 43, 127
11, 43076, Note_on_c, 1, 43, 0
11, 43081, Note_on_c, 1, 38, 127
11, 43139, Note_on_c, 1, 38, 0
11, 43140, Note_on_c, 1, 40, 127
11, 43186, Note_on_c, 1, 40, 0
11, 43201, Note_on_c, 1, 36, 127
11, 43224, Note_on_c, 1, 36, 0
11, 43260, Note_on_c, 1, 36, 127
11, 43297, Note_on_c, 1, 36, 0
11, 43321, Note_on_c, 1, 31, 127
11, 43353, Note_on_c, 1, 31, 0
11, 43380, Note_on_c, 1, 36, 127
11, 43421, Note_on_c, 1, 36, 0
11, 43500, Note_on_c, 1, 36, 127
11, 43550, Note_on_c, 1, 36, 0
11, 43561, Note_on_c, 1, 31, 127
11, 43607, Note_on_c, 1, 31, 0
11, 43621, Note_on_c, 1, 33, 127
11, 43667, Note_on_c, 1, 33, 0
11, 43681, Note_on_c, 1, 36, 127
11, 43704, Note_on_c, 1, 36, 0
11, 43740, Note_on_c, 1, 36, 127
11, 43775, Note_on_c, 1, 36, 0
11, 43801, Note_on_c, 1, 31, 127
11, 43834, Note_on_c, 1, 31, 0
11, 43861, Note_on_c, 1, 36, 127
11, 43897, Note_on_c, 1, 36, 0
11, 43980, Note_on_c, 1, 36, 127
11, 44027, Note_on_c, 1, 36, 0
11, 44101, Note_on_c, 1, 36, 127
11, 44131, Note_on_c, 1, 36, 0
11, 44161, Note_on_c, 1, 36, 127
11, 44184, Note_on_c, 1, 36, 0
11, 44220, Note_on_c, 1, 36, 127
11, 44255, Note_on_c, 1, 36, 0
11, 44281, Note_on_c, 1, 31, 127
11, 44314, Note_on_c, 1, 31, 0
11, 44341, Note_on_c, 1, 36, 127
11, 44377, Note_on_c, 1, 36, 0
11, 44460, Note_on_c, 1, 36, 127
11, 44507, Note_on_c, 1, 36, 0
11, 44581, Note_on_c, 1, 36, 127
11, 44611, Note_on_c, 1, 36, 0
11, 44641, Note_on_c, 1, 36, 127
11, 44664, Note_on_c, 1, 36, 0
11, 44700, Note_on_c, 1, 36, 127
11, 44735, Note_on_c, 1, 36, 0
11, 44761, Note_on_c, 1, 31, 127
11, 44794, Note_on_c, 1, 31, 0
11, 44821, Note_on_c, 1, 36, 127
11, 44857, Note_on_c, 1, 36, 0
11, 44940, Note_on_c, 1, 36, 127
11, 44987, Note_on_c, 1, 36, 0
11, 45061, Note_on_c, 1, 36, 127
11, 45091, Note_on_c, 1, 36, 0
11, 45121, Note_on_c, 1, 36, 127
11, 45144, Note_on_c, 1, 36, 0
11, 45180, Note_on_c, 1, 36, 127
11, 45215, Note_on_c, 1, 36, 0
11, 45241, Note_on_c, 1, 31, 127
11, 45274, Note_on_c, 1, 31, 0
11, 45301, Note_on_c, 1, 36, 127
11, 45337, Note_on_c, 1, 36, 0
11, 45420, Note_on_c, 1, 36, 127
11, 45467, Note_on_c, 1, 36, 0
11, 45541, Note_on_c, 1, 36, 127
11, 45571, Note_on_c, 1, 36, 0
11, 45601, Note_on_c, 1, 36, 127
11, 45624, Note_on_c, 1, 36, 0
11, 45660, Note_on_c, 1, 36, 127
11, 45695, Note_on_c, 1, 36, 0
11, 45721, Note_on_c, 1, 31, 127
11, 45754, Note_on_c, 1, 31, 0
11, 45781, Note_on_c, 1, 36, 127
11, 45817, Note_on_c, 1, 36, 0
11, 45900, Note_on_c, 1, 36, 127
11, 45947, Note_on_c, 1, 36, 0
11, 46021, Note_on_c, 1, 36, 127
11, 46051, Note_on_c, 1, 36, 0
11, 46081, Note_on_c, 1, 43, 127
11, 46111, Note_on_c, 1, 43, 0
11, 46140, Note_on_c, 1, 43, 127
11, 46183, Note_on_c, 1, 43, 0
11, 46201, Note_on_c, 1, 38, 127
11, 46234, Note_on_c, 1, 38, 0
11, 46260, Note_on_c, 1, 43, 127
11, 46297, Note_on_c, 1, 43, 0
11, 46380, Note_on_c, 1, 43, 127
11, 46427, Note_on_c, 1, 43, 0
11, 46441, Note_on_c, 1, 38, 127
11, 46487, Note_on_c, 1, 38, 0
11, 46501, Note_on_c, 1, 40, 127
11, 46543, Note_on_c, 1, 40, 0
11, 46561, Note_on_c, 1, 43, 127
11, 46591, Note_on_c, 1, 43, 0
11, 46620, Note_on_c, 1, 43, 127
11, 46663, Note_on_c, 1, 43, 0
11, 46681, Note_on_c, 1, 38, 127
11, 46714, Note_on_c, 1, 38, 0
11, 46740, Note_on_c, 1, 43, 127
11, 46777, Note_on_c, 1, 43, 0
11, 46860, Note_on_c, 1, 43, 127
11, 46907, Note_on_c, 1, 43, 0
11, 46921, Note_on_c, 1, 38, 127
11, 46967, Note_on_c, 1, 38, 0
11, 46981, Note_on_c, 1, 40, 127
11, 47023, Note_on_c, 1, 40, 0
11, 47041, Note_on_c, 1, 36, 127
11, 47064, Note_on_c, 1, 36, 0
11, 47100, Note_on_c, 1, 36, 127
11, 47135, Note_on_c, 1, 36, 0
11, 47161, Note_on_c, 1, 31, 127
11, 47194, Note_on_c, 1, 31, 0
11, 47221, Note_on_c, 1, 36, 127
11, 47257, Note_on_c, 1, 36, 0
11, 47340, Note_on_c, 1, 36, 127
11, 47387, Note_on_c, 1, 36, 0
11, 47461, Note_on_c, 1, 36, 127
11, 47491, Note_on_c, 1, 36, 0
11, 47521, Note_on_c, 1, 36, 127
11, 47547, Note_on_c, 1, 36, 0
11, 47580, Note_on_c, 1, 36, 127
11, 47610, Note_on_c, 1, 36, 0
11, 47641, Note_on_c, 1, 31, 127
11, 47673, Note_on_c, 1, 31, 0
11, 47700, Note_on_c, 1, 36, 127
11, 47733, Note_on_c, 1, 36, 0
11, 47820, Note_on_c, 1, 36, 127
11, 47851, Note_on_c, 1, 36, 0
11, 47881, Note_on_c, 1, 31, 127
11, 47933, Note_on_c, 1, 31, 0
11, 47941, Note_on_c, 1, 33, 127
11, 47991, Note_on_c, 1, 33, 0
11, 48001, Note_on_c, 1, 36, 127
11, 48027, Note_on_c, 1, 36, 0
11, 48060, Note_on_c, 1, 36, 127
11, 48091, Note_on_c, 1, 36, 0
11, 48121, Note_on_c, 1, 31, 127
11, 48154, Note_on_c, 1, 31, 0
11, 48181, Note_on_c, 1, 36, 127
11, 48218, Note_on_c, 1, 36, 0
11, 48300, Note_on_c, 1, 36, 127
11, 48337, Note_on_c, 1, 36, 0
11, 48361, Note_on_c, 1, 31, 127
11, 48404, Note_on_c, 1, 31, 0
11, 48421, Note_on_c, 1, 33, 127
11, 48463, Note_on_c, 1, 33, 0
11, 48481, Note_on_c, 1, 36, 127
11, 48508, Note_on_c, 1, 36, 0
11, 48540, Note_on_c, 1, 36, 127
11, 48567, Note_on_c, 1, 36, 0
11, 48601, Note_on_c, 1, 31, 127
11, 48628, Note_on_c, 1, 31, 0
11, 48660, Note_on_c, 1, 36, 127
11, 48697, Note_on_c, 1, 36, 0
11, 48780, Note_on_c, 1, 36, 127
11, 48817, Note_on_c, 1, 36, 0
11, 48841, Note_on_c, 1, 31, 127
11, 48884, Note_on_c, 1, 31, 0
11, 48900, Note_on_c, 1, 33, 127
11, 48941, Note_on_c, 1, 33, 0
11, 48961, Note_on_c, 1, 36, 127
11, 48996, Note_on_c, 1, 36, 0
11, 49020, Note_on_c, 1, 36, 127
11, 49053, Note_on_c, 1, 36, 0
11, 49081, Note_on_c, 1, 31, 127
11, 49117, Note_on_c, 1, 31, 0
11, 49140, Note_on_c, 1, 36, 127
11, 49186, Note_on_c, 1, 36, 0
11, 49260, Note_on_c, 1, 36, 127
11, 49307, Note_on_c, 1, 36, 0
11, 49321, Note_on_c, 1, 31, 127
11, 49369, Note_on_c, 1, 31, 0
11, 49380, Note_on_c, 1, 33, 127
11, 49430, Note_on_c, 1, 33, 0
11, 49441, Note_on_c, 1, 36, 127
11, 49464, Note_on_c, 1, 36, 0
11, 49501, Note_on_c, 1, 36, 127
11, 49543, Note_on_c, 1, 36, 0
11, 49561, Note_on_c, 1, 31, 127
11, 49609, Note_on_c, 1, 31, 0
11, 49620, Note_on_c, 1, 36, 127
11, 49663, Note_on_c, 1, 36, 0
11, 49741, Note_on_c, 1, 36, 127
11, 49797, Note_on_c, 1, 36, 0
11, 49801, Note_on_c, 1, 40, 127
11, 49843, Note_on_c, 1, 40, 0
11, 49860, Note_on_c, 1, 41, 127
11, 49903, Note_on_c, 1, 41, 0
11, 49921, Note_on_c, 1, 43, 127
11, 49952, Note_on_c, 1, 43, 0
11, 49981, Note_on_c, 1, 43, 127
11, 50013, Note_on_c, 1, 43, 0
11, 50041, Note_on_c, 1, 38, 127
11, 50071, Note_on_c, 1, 38, 0
11, 50100, Note_on_c, 1, 43, 127
11, 50141, Note_on_c, 1, 43, 0
11, 50220, Note_on_c, 1, 43, 127
11, 50255, Note_on_c, 1, 43, 0
11, 50281, Note_on_c, 1, 38, 127
11, 50336, Note_on_c, 1, 38, 0
11, 50340, Note_on_c, 1, 40, 127
11, 50393, Note_on_c, 1, 40, 0
11, 50401, Note_on_c, 1, 43, 127
11, 50431, Note_on_c, 1, 43, 0
11, 50460, Note_on_c, 1, 43, 127
11, 50501, Note_on_c, 1, 43, 0
11, 50521, Note_on_c, 1, 38, 127
11, 50552, Note_on_c, 1, 38, 0
11, 50580, Note_on_c, 1, 43, 127
11, 50613, Note_on_c, 1, 43, 0
11, 50700, Note_on_c, 1, 43, 127
11, 50756, Note_on_c, 1, 43, 0
11, 50761, Note_on_c, 1, 38, 127
11, 50819, Note_on_c, 1, 38, 0
11, 50820, Note_on_c, 1, 40, 127
11, 50866, Note_on_c, 1, 40, 0
11, 50881, Note_on_c, 1, 36, 127
11, 50904, Note_on_c, 1, 36, 0
11, 50940, Note_on_c, 1, 36, 127
11, 50977, Note_on_c, 1, 36, 0
11, 51001, Note_on_c, 1, 31, 127
11, 51033, Note_on_c, 1, 31, 0
11, 51060, Note_on_c, 1, 36, 127
11, 51101, Note_on_c, 1, 36, 0
11, 51180, Note_on_c, 1, 36, 127
11, 51230, Note_on_c, 1, 36, 0
11, 51241, Note_on_c, 1, 31, 127
11, 51287, Note_on_c, 1, 31, 0
11, 51301, Note_on_c, 1, 33, 127
11, 51347, Note_on_c, 1, 33, 0
11, 51361, Note_on_c, 1, 36, 127
11, 51387, Note_on_c, 1, 36, 0
11, 51420, Note_on_c, 1, 36, 127
11, 51450, Note_on_c, 1, 36, 0
11, 51481, Note_on_c, 1, 31, 127
11, 51513, Note_on_c, 1, 31, 0
11, 51540, Note_on_c, 1, 36, 127
11, 51573, Note_on_c, 1, 36, 0
11, 51660, Note_on_c, 1, 36, 127
11, 51691, Note_on_c, 1, 36, 0
11, 51721, Note_on_c, 1, 31, 127
11, 51773, Note_on_c, 1, 31, 0
11, 51781, Note_on_c, 1, 33, 127
11, 51831, Note_on_c, 1, 33, 0
11, 51841, Note_on_c, 1, 36, 127
11, 51867, Note_on_c, 1, 36, 0
11, 51900, Note_on_c, 1, 36, 127
11, 51931, Note_on_c, 1, 36, 0
11, 51961, Note_on_c, 1, 31, 127
11, 51994, Note_on_c, 1, 31, 0
11, 52021, Note_on_c, 1, 36, 127
11, 52058, Note_on_c, 1, 36, 0
11, 52140, Note_on_c, 1, 36, 127
11, 52177, Note_on_c, 1, 36, 0
11, 52201, Note_on_c, 1, 31, 127
11, 52244, Note_on_c, 1, 31, 0
11, 52261, Note_on_c, 1, 33, 127
11, 52303, Note_on_c, 1, 33, 0
11, 52321, Note_on_c, 1, 36, 127
11, 52348, Note_on_c, 1, 36, 0
11, 52380, Note_on_c, 1, 36, 127
11, 52407, Note_on_c, 1, 36, 0
11, 52441, Note_on_c, 1, 31, 127
11, 52468, Note_on_c, 1, 31, 0
11, 52500, Note_on_c, 1, 36, 127
11, 52537, Note_on_c, 1, 36, 0
11, 52620, Note_on_c, 1, 36, 127
11, 52657, Note_on_c, 1, 36, 0
11, 52681, Note_on_c, 1, 31, 127
11, 52724, Note_on_c, 1, 31, 0
11, 52740, Note_on_c, 1, 33, 127
11, 52781, Note_on_c, 1, 33, 0
11, 52801, Note_on_c, 1, 36, 127
11, 52836, Note_on_c, 1, 36, 0
11, 52860, Note_on_c, 1, 36, 127
11, 52893, Note_on_c, 1, 36, 0
11, 52921, Note_on_c, 1, 31, 127
11, 52957, Note_on_c, 1, 31, 0
11, 52980, Note_on_c, 1, 36, 127
11, 53026, Note_on_c, 1, 36, 0
11, 53100, Note_on_c, 1, 36, 127
11, 53147, Note_on_c, 1, 36, 0
11, 53161, Note_on_c, 1, 31, 127
11, 53209, Note_on_c, 1, 31, 0
11, 53220, Note_on_c, 1, 33, 127
11, 53270, Note_on_c, 1, 33, 0
11, 53281, Note_on_c, 1, 36, 127
11, 53304, Note_on_c, 1, 36, 0
11, 53341, Note_on_c, 1, 36, 127
11, 53383, Note_on_c, 1, 36, 0
11, 53401, Note_on_c, 1, 31, 127
11, 53449, Note_on_c, 1, 31, 0
11, 53460, Note_on_c, 1, 36, 127
11, 53503, Note_on_c, 1, 36, 0
11, 53581, Note_on_c, 1, 36, 127
11, 53637, Note_on_c, 1, 36, 0
11, 53641, Note_on_c, 1, 40, 127
11, 53683, Note_on_c, 1, 40, 0
11, 53700, Note_on_c, 1, 41, 127
11, 53743, Note_on_c, 1, 41, 0
11, 53761, Note_on_c, 1, 43, 127
11, 53792, Note_on_c, 1, 43, 0
11, 53821, Note_on_c, 1, 43, 127
11, 53853, Note_on_c, 1, 43, 0
11, 53881, Note_on_c, 1, 38, 127
11, 53911, Note_on_c, 1, 38, 0
11, 53940, Note_on_c, 1, 43, 127
11, 53981, Note_on_c, 1, 43, 0
11, 54060, Note_on_c, 1, 43, 127
11, 54095, Note_on_c, 1, 43, 0
11, 54121, Note_on_c, 1, 38, 127
11, 54176, Note_on_c, 1, 38, 0
11, 54180, Note_on_c, 1, 40, 127
11, 54233, Note_on_c, 1, 40, 0
11, 54241, Note_on_c, 1, 43, 127
11, 54271, Note_on_c, 1, 43, 0
11, 54300, Note_on_c, 1, 43, 127
11, 54341, Note_on_c, 1, 43, 0
11, 54361, Note_on_c, 1, 38, 127
11, 54392, Note_on_c, 1, 38, 0
11, 54420, Note_on_c, 1, 43, 127
11, 54453, Note_on_c, 1, 43, 0
11, 54540, Note_on_c, 1, 43, 127
11, 54596, Note_on_c, 1, 43, 0
11, 54601, Note_on_c, 1, 38, 127
11, 54659, Note_on_c, 1, 38, 0
11, 54660, Note_on_c, 1, 40, 127
11, 54706, Note_on_c, 1, 40, 0
11, 54721, Note_on_c, 1, 36, 127
11, 54744, Note_on_c, 1, 36, 0
11, 54780, Note_on_c, 1, 36, 127
11, 54817, Note_on_c, 1, 36, 0
11, 54841, Note_on_c, 1, 31, 127
11, 54873, Note_on_c, 1, 31, 0
11, 54900, Note_on_c, 1, 36, 127
11, 54941, Note_on_c, 1, 36, 0
11, 55020, Note_on_c, 1, 36, 127
11, 55070, Note_on_c, 1, 36, 0
11, 55081, Note_on_c, 1, 31, 127
11, 55127, Note_on_c, 1, 31, 0
11, 55141, Note_on_c, 1, 33, 127
11, 55187, Note_on_c, 1, 33, 0
11, 55201, Note_on_c, 1, 36, 127
11, 55227, Note_on_c, 1, 36, 0
11, 55260, Note_on_c, 1, 36, 127
11, 55290, Note_on_c, 1, 36, 0
11, 55321, Note_on_c, 1, 31, 127
11, 55353, Note_on_c, 1, 31, 0
11, 55380, Note_on_c, 1, 36, 127
11, 55413, Note_on_c, 1, 36, 0
11, 55500, Note_on_c, 1, 36, 127
11, 55531, Note_on_c, 1, 36, 0
11, 55561, Note_on_c, 1, 31, 127
11, 55613, Note_on_c, 1, 31, 0
11, 55621, Note_on_c, 1, 33, 127
11, 55671, Note_on_c, 1, 33, 0
11, 55681, Note_on_c, 1, 36, 127
11, 55707, Note_on_c, 1, 36, 0
11, 55740, Note_on_c, 1, 36, 127
11, 55771, Note_on_c, 1, 36, 0
11, 55801, Note_on_c, 1, 31, 127
11, 55834, Note_on_c, 1, 31, 0
11, 55861, Note_on_c, 1, 36, 127
11, 55898, Note_on_c, 1, 36, 0
11, 55980, Note_on_c, 1, 36, 127
11, 56017, Note_on_c, 1, 36, 0
11, 56041, Note_on_c, 1, 31, 127
11, 56084, Note_on_c, 1, 31, 0
11, 56101, Note_on_c, 1, 33, 127
11, 56143, Note_on_c, 1, 33, 0
11, 56161, Note_on_c, 1, 36, 127
11, 56188, Note_on_c, 1, 36, 0
11, 56220, Note_on_c, 1, 36, 127
11, 56247, Note_on_c, 1, 36, 0
11, 56281, Note_on_c, 1, 31, 127
11, 56308, Note_on_c, 1, 31, 0
11, 56340, Note_on_c, 1, 36, 127
11, 56377, Note_on_c, 1, 36, 0
11, 56460, Note_on_c, 1, 36, 127
11, 56497, Note_on_c, 1, 36, 0
11, 56521, Note_on_c, 1, 31, 127
11, 56564, Note_on_c, 1, 31, 0
11, 56580, Note_on_c, 1, 33, 127
11, 56621, Note_on_c, 1, 33, 0
11, 56641, Note_on_c, 1, 36, 127
11, 56676, Note_on_c, 1, 36, 0
11, 56700, Note_on_c, 1, 36, 127
11, 56733, Note_on_c, 1, 36, 0
11, 56761, Note_on_c, 1, 31, 127
11, 56797, Note_on_c, 1, 31, 0
11, 56820, Note_on_c, 1, 36, 127
11, 56866, Note_on_c, 1, 36, 0
11, 56940, Note_on_c, 1, 36, 127
11, 56987, Note_on_c, 1, 36, 0
11, 57001, Note_on_c, 1, 31, 127
11, 57049, Note_on_c, 1, 31, 0
11, 57060, Note_on_c, 1, 33, 127
11, 57110, Note_on_c, 1, 33, 0
11, 57121, Note_on_c, 1, 36, 127
11, 57144, Note_on_c, 1, 36, 0
11, 57181, Note_on_c, 1, 36, 127
11, 57223, Note_on_c, 1, 36, 0
11, 57241, Note_on_c, 1, 31, 127
11, 57289, Note_on_c, 1, 31, 0
11, 57300, Note_on_c, 1, 36, 127
11, 57343, Note_on_c, 1, 36, 0
11, 57421, Note_on_c, 1, 36, 127
11, 57477, Note_on_c, 1, 36, 0
11, 57481, Note_on_c, 1, 40, 127
11, 57523, Note_on_c, 1, 40, 0
11, 57540, Note_on_c, 1, 41, 127
11, 57583, Note_on_c, 1, 41, 0
11, 57601, Note_on_c, 1, 43, 127
11, 57632, Note_on_c, 1, 43, 0
11, 57661, Note_on_c, 1, 43, 127
11, 57693, Note_on_c, 1, 43, 0
11, 57721, Note_on_c, 1, 38, 127
11, 57751, Note_on_c, 1, 38, 0
11, 57780, Note_on_c, 1, 43, 127
11, 57821, Note_on_c, 1, 43, 0
11, 57900, Note_on_c, 1, 43, 127
11, 57935, Note_on_c, 1, 43, 0
11, 57961, Note_on_c, 1, 38, 127
11, 58016, Note_on_c, 1, 38, 0
11, 58020, Note_on_c, 1, 40, 127
11, 58073, Note_on_c, 1, 40, 0
11, 58081, Note_on_c, 1, 43, 127
11, 58111, Note_on_c, 1, 43, 0
11, 58140, Note_on_c, 1, 43, 127
11, 58181, Note_on_c, 1, 43, 0
11, 58201, Note_on_c, 1, 38, 127
11, 58232, Note_on_c, 1, 38, 0
11, 58260, Note_on_c, 1, 43, 127
11, 58293, Note_on_c, 1, 43, 0
11, 58380, Note_on_c, 1, 43, 127
11, 58436, Note_on_c, 1, 43, 0
11, 58441, Note_on_c, 1, 38, 127
11, 58499, Note_on_c, 1, 38, 0
11, 58500, Note_on_c, 1, 40, 127
11, 58546, Note_on_c, 1, 40, 0
11, 58561, Note_on_c, 1, 36, 127
11, 58605, Note_on_c, 1, 36, 0
11, 58680, Note_on_c, 1, 36, 127
11, 58717, Note_on_c, 1, 36, 0
11, 58740, Note_on_c, 1, 36, 127
11, 59039, Note_on_c, 1, 36, 0
11, 59039, End_track
12, 0, Start_track
12, 0, MIDI_port, 0
12, 0, Title_t, "Seashore"
12, 0, Program_c, 7, 122
12, 0, Control_c, 7, 7, 90
12, 0, Control_c, 7, 10, 64
12, 480, Control_c, 7, 121, 0
12, 480, Control_c, 7, 91, 127
12, 600, Note_on_c, 7, 49, 100
12, 1440, Note_on_c, 7, 43, 100
12, 1920, Note_on_c, 7, 56, 100
12, 2249, Note_on_c, 7, 49, 0
12, 2880, Note_on_c, 7, 52, 100
12, 3089, Note_on_c, 7, 43, 0
12, 3104, Note_on_c, 7, 56, 0
12, 3480, Note_on_c, 7, 39, 100
12, 4319, Note_on_c, 7, 39, 0
12, 4529, Note_on_c, 7, 52, 0
12, 4529, End_track
13, 0, Start_track
13, 0, MIDI_port, 0
13, 0, Title_t, "Marimba"
13, 0, Program_c, 10, 12
13, 0, Control_c, 10, 7, 100
13, 0, Control_c, 10, 10, 100
13, 530, Control_c, 10, 121, 0
13, 540, Control_c, 10, 91, 70
13, 28860, Note_on_c, 10, 79, 104
13, 28878, Note_on_c, 10, 79, 0
13, 28980, Note_on_c, 10, 76, 101
13, 28998, Note_on_c, 10, 76, 0
13, 29040, Note_on_c, 10, 79, 102
13, 29068, Note_on_c, 10, 79, 0
13, 29160, Note_on_c, 10, 76, 117
13, 29182, Note_on_c, 10, 76, 0
13, 29340, Note_on_c, 10, 77, 117
13, 29362, Note_on_c, 10, 77, 0
13, 29460, Note_on_c, 10, 74, 107
13, 29485, Note_on_c, 10, 74, 0
13, 29520, Note_on_c, 10, 77, 117
13, 29537, Note_on_c, 10, 77, 0
13, 29580, Note_on_c, 10, 77, 104
13, 29597, Note_on_c, 10, 77, 0
13, 29640, Note_on_c, 10, 74, 109
13, 29662, Note_on_c, 10, 74, 0
13, 29820, Note_on_c, 10, 79, 104
13, 29838, Note_on_c, 10, 79, 0
13, 29940, Note_on_c, 10, 76, 101
13, 29958, Note_on_c, 10, 76, 0
13, 30000, Note_on_c, 10, 79, 102
13, 30028, Note_on_c, 10, 79, 0
13, 30120, Note_on_c, 10, 76, 117
13, 30142, Note_on_c, 10, 76, 0
13, 30300, Note_on_c, 10, 77, 117
13, 30322, Note_on_c, 10, 77, 0
13, 30420, Note_on_c, 10, 74, 107
13, 30445, Note_on_c, 10, 74, 0
13, 30480, Note_on_c, 10, 77, 117
13, 30497, Note_on_c, 10, 77, 0
13, 30540, Note_on_c, 10, 77, 104
13, 30557, Note_on_c, 10, 77, 0
13, 30600, Note_on_c, 10, 74, 109
13, 30622, Note_on_c, 10, 74, 0
13, 30780, Note_on_c, 10, 79, 104
13, 30798, Note_on_c, 10, 79, 0
13, 30900, Note_on_c, 10, 76, 101
13, 30918, Note_on_c, 10, 76, 0
13, 30960, Note_on_c, 10, 79, 102
13, 30988, Note_on_c, 10, 79, 0
13, 31080, Note_on_c, 10, 76, 117
13, 31102, Note_on_c, 10, 76, 0
13, 31260, Note_on_c, 10, 77, 117
13, 31282, Note_on_c, 10, 77, 0
13, 31380, Note_on_c, 10, 74, 107
13, 31405, Note_on_c, 10, 74, 0
13, 31440, Note_on_c, 10, 77, 117
13, 31457, Note_on_c, 10, 77, 0
13, 31500, Note_on_c, 10, 77, 104
13, 31517, Note_on_c, 10, 77, 0
13, 31560, Note_on_c, 10, 74, 109
13, 31582, Note_on_c, 10, 74, 0
13, 31740, Note_on_c, 10, 79, 104
13, 31758, Note_on_c, 10, 79, 0
13, 31860, Note_on_c, 10, 76, 101
13, 31878, Note_on_c, 10, 76, 0
13, 31920, Note_on_c, 10, 79, 102
13, 31948, Note_on_c, 10, 79, 0
13, 32040, Note_on_c, 10, 76, 117
13, 32062, Note_on_c, 10, 76, 0
13, 36487, Note_on_c, 10, 67, 127
13, 36545, Note_on_c, 10, 67, 0
13, 36599, Note_on_c, 10, 67, 127
13, 36637, Note_on_c, 10, 67, 0
13, 36660, Note_on_c, 10, 65, 123
13, 36686, Note_on_c, 10, 65, 0
13, 36725, Note_on_c, 10, 64, 127
13, 36803, Note_on_c, 10, 64, 0
13, 36839, Note_on_c, 10, 65, 126
13, 36876, Note_on_c, 10, 65, 0
13, 36902, Note_on_c, 10, 67, 127
13, 36961, Note_on_c, 10, 67, 0
13, 37080, Note_on_c, 10, 67, 120
13, 37111, Note_on_c, 10, 67, 0
13, 37140, Note_on_c, 10, 69, 123
13, 37167, Note_on_c, 10, 69, 0
13, 37199, Note_on_c, 10, 67, 114
13, 37228, Note_on_c, 10, 67, 0
13, 37259, Note_on_c, 10, 65, 120
13, 37284, Note_on_c, 10, 65, 0
13, 37320, Note_on_c, 10, 64, 123
13, 37352, Note_on_c, 10, 64, 0
13, 37380, Note_on_c, 10, 65, 123
13, 37409, Note_on_c, 10, 65, 0
13, 37443, Note_on_c, 10, 67, 126
13, 37478, Note_on_c, 10, 67, 0
13, 37567, Note_on_c, 10, 67, 123
13, 37598, Note_on_c, 10, 67, 0
13, 37623, Note_on_c, 10, 65, 120
13, 37648, Note_on_c, 10, 65, 0
13, 37686, Note_on_c, 10, 64, 127
13, 37726, Note_on_c, 10, 64, 0
13, 37803, Note_on_c, 10, 65, 123
13, 37835, Note_on_c, 10, 65, 0
13, 37868, Note_on_c, 10, 67, 127
13, 37904, Note_on_c, 10, 67, 0
13, 38044, Note_on_c, 10, 67, 127
13, 38070, Note_on_c, 10, 67, 0
13, 38102, Note_on_c, 10, 65, 127
13, 38128, Note_on_c, 10, 65, 0
13, 38168, Note_on_c, 10, 67, 120
13, 38193, Note_on_c, 10, 67, 0
13, 38225, Note_on_c, 10, 65, 127
13, 38250, Note_on_c, 10, 65, 0
13, 38285, Note_on_c, 10, 67, 120
13, 38307, Note_on_c, 10, 67, 0
13, 38340, Note_on_c, 10, 69, 126
13, 38368, Note_on_c, 10, 69, 0
13, 38399, Note_on_c, 10, 71, 126
13, 38435, Note_on_c, 10, 71, 0
13, 38529, Note_on_c, 10, 71, 120
13, 38557, Note_on_c, 10, 71, 0
13, 38588, Note_on_c, 10, 69, 120
13, 38610, Note_on_c, 10, 69, 0
13, 38642, Note_on_c, 10, 67, 126
13, 38685, Note_on_c, 10, 67, 0
13, 38757, Note_on_c, 10, 69, 117
13, 38788, Note_on_c, 10, 69, 0
13, 38821, Note_on_c, 10, 71, 127
13, 38852, Note_on_c, 10, 71, 0
13, 38996, Note_on_c, 10, 69, 123
13, 39025, Note_on_c, 10, 69, 0
13, 39053, Note_on_c, 10, 71, 112
13, 39077, Note_on_c, 10, 71, 0
13, 39118, Note_on_c, 10, 67, 117
13, 39143, Note_on_c, 10, 67, 0
13, 39174, Note_on_c, 10, 69, 107
13, 39196, Note_on_c, 10, 69, 0
13, 39238, Note_on_c, 10, 65, 120
13, 39264, Note_on_c, 10, 65, 0
13, 39293, Note_on_c, 10, 67, 112
13, 39317, Note_on_c, 10, 67, 0
13, 39359, Note_on_c, 10, 64, 127
13, 39393, Note_on_c, 10, 64, 0
13, 39485, Note_on_c, 10, 67, 123
13, 39509, Note_on_c, 10, 67, 0
13, 39539, Note_on_c, 10, 65, 127
13, 39563, Note_on_c, 10, 65, 0
13, 39599, Note_on_c, 10, 64, 127
13, 39637, Note_on_c, 10, 64, 0
13, 39714, Note_on_c, 10, 65, 127
13, 39742, Note_on_c, 10, 65, 0
13, 39775, Note_on_c, 10, 67, 127
13, 39803, Note_on_c, 10, 67, 0
13, 40327, Note_on_c, 10, 67, 127
13, 40385, Note_on_c, 10, 67, 0
13, 40439, Note_on_c, 10, 67, 127
13, 40477, Note_on_c, 10, 67, 0
13, 40500, Note_on_c, 10, 65, 123
13, 40526, Note_on_c, 10, 65, 0
13, 40565, Note_on_c, 10, 64, 127
13, 40643, Note_on_c, 10, 64, 0
13, 40679, Note_on_c, 10, 65, 126
13, 40716, Note_on_c, 10, 65, 0
13, 40742, Note_on_c, 10, 67, 127
13, 40801, Note_on_c, 10, 67, 0
13, 40920, Note_on_c, 10, 67, 120
13, 40951, Note_on_c, 10, 67, 0
13, 40980, Note_on_c, 10, 69, 123
13, 41007, Note_on_c, 10, 69, 0
13, 41039, Note_on_c, 10, 67, 114
13, 41068, Note_on_c, 10, 67, 0
13, 41099, Note_on_c, 10, 65, 120
13, 41124, Note_on_c, 10, 65, 0
13, 41160, Note_on_c, 10, 64, 123
13, 41192, Note_on_c, 10, 64, 0
13, 41220, Note_on_c, 10, 65, 123
13, 41249, Note_on_c, 10, 65, 0
13, 41283, Note_on_c, 10, 67, 126
13, 41318, Note_on_c, 10, 67, 0
13, 41407, Note_on_c, 10, 67, 123
13, 41438, Note_on_c, 10, 67, 0
13, 41463, Note_on_c, 10, 65, 120
13, 41488, Note_on_c, 10, 65, 0
13, 41526, Note_on_c, 10, 64, 127
13, 41566, Note_on_c, 10, 64, 0
13, 41643, Note_on_c, 10, 65, 123
13, 41675, Note_on_c, 10, 65, 0
13, 41708, Note_on_c, 10, 67, 127
13, 41744, Note_on_c, 10, 67, 0
13, 41884, Note_on_c, 10, 67, 127
13, 41910, Note_on_c, 10, 67, 0
13, 41942, Note_on_c, 10, 65, 127
13, 41968, Note_on_c, 10, 65, 0
13, 42008, Note_on_c, 10, 67, 120
13, 42033, Note_on_c, 10, 67, 0
13, 42065, Note_on_c, 10, 65, 127
13, 42090, Note_on_c, 10, 65, 0
13, 42125, Note_on_c, 10, 67, 120
13, 42147, Note_on_c, 10, 67, 0
13, 42180, Note_on_c, 10, 69, 126
13, 42208, Note_on_c, 10, 69, 0
13, 42239, Note_on_c, 10, 71, 126
13, 42275, Note_on_c, 10, 71, 0
13, 42369, Note_on_c, 10, 71, 120
13, 42397, Note_on_c, 10, 71, 0
13, 42428, Note_on_c, 10, 69, 120
13, 42450, Note_on_c, 10, 69, 0
13, 42482, Note_on_c, 10, 67, 126
13, 42525, Note_on_c, 10, 67, 0
13, 42597, Note_on_c, 10, 69, 117
13, 42628, Note_on_c, 10, 69, 0
13, 42661, Note_on_c, 10, 71, 127
13, 42692, Note_on_c, 10, 71, 0
13, 42836, Note_on_c, 10, 69, 123
13, 42865, Note_on_c, 10, 69, 0
13, 42893, Note_on_c, 10, 71, 112
13, 42917, Note_on_c, 10, 71, 0
13, 42958, Note_on_c, 10, 67, 117
13, 42983, Note_on_c, 10, 67, 0
13, 43014, Note_on_c, 10, 69, 107
13, 43036, Note_on_c, 10, 69, 0
13, 43078, Note_on_c, 10, 65, 120
13, 43104, Note_on_c, 10, 65, 0
13, 43133, Note_on_c, 10, 67, 112
13, 43157, Note_on_c, 10, 67, 0
13, 43199, Note_on_c, 10, 64, 127
13, 43233, Note_on_c, 10, 64, 0
13, 43325, Note_on_c, 10, 67, 123
13, 43349, Note_on_c, 10, 67, 0
13, 43379, Note_on_c, 10, 65, 127
13, 43403, Note_on_c, 10, 65, 0
13, 43439, Note_on_c, 10, 64, 127
13, 43477, Note_on_c, 10, 64, 0
13, 43554, Note_on_c, 10, 65, 127
13, 43582, Note_on_c, 10, 65, 0
13, 43615, Note_on_c, 10, 67, 127
13, 43643, Note_on_c, 10, 67, 0
13, 44167, Note_on_c, 10, 67, 127
13, 44225, Note_on_c, 10, 67, 0
13, 44279, Note_on_c, 10, 67, 127
13, 44317, Note_on_c, 10, 67, 0
13, 44340, Note_on_c, 10, 65, 123
13, 44366, Note_on_c, 10, 65, 0
13, 44405, Note_on_c, 10, 64, 127
13, 44483, Note_on_c, 10, 64, 0
13, 44519, Note_on_c, 10, 65, 126
13, 44556, Note_on_c, 10, 65, 0
13, 44582, Note_on_c, 10, 67, 127
13, 44641, Note_on_c, 10, 67, 0
13, 44760, Note_on_c, 10, 67, 120
13, 44791, Note_on_c, 10, 67, 0
13, 44820, Note_on_c, 10, 69, 123
13, 44847, Note_on_c, 10, 69, 0
13, 44879, Note_on_c, 10, 67, 114
13, 44908, Note_on_c, 10, 67, 0
13, 44939, Note_on_c, 10, 65, 120
13, 44964, Note_on_c, 10, 65, 0
13, 45000, Note_on_c, 10, 64, 123
13, 45032, Note_on_c, 10, 64, 0
13, 45060, Note_on_c, 10, 65, 123
13, 45089, Note_on_c, 10, 65, 0
13, 45123, Note_on_c, 10, 67, 126
13, 45158, Note_on_c, 10, 67, 0
13, 45247, Note_on_c, 10, 67, 123
13, 45278, Note_on_c, 10, 67, 0
13, 45303, Note_on_c, 10, 65, 120
13, 45328, Note_on_c, 10, 65, 0
13, 45366, Note_on_c, 10, 64, 127
13, 45406, Note_on_c, 10, 64, 0
13, 45483, Note_on_c, 10, 65, 123
13, 45515, Note_on_c, 10, 65, 0
13, 45548, Note_on_c, 10, 67, 127
13, 45584, Note_on_c, 10, 67, 0
13, 45724, Note_on_c, 10, 67, 127
13, 45750, Note_on_c, 10, 67, 0
13, 45782, Note_on_c, 10, 65, 127
13, 45808, Note_on_c, 10, 65, 0
13, 45848, Note_on_c, 10, 67, 120
13, 45873, Note_on_c, 10, 67, 0
13, 45905, Note_on_c, 10, 65, 127
13, 45930, Note_on_c, 10, 65, 0
13, 45965, Note_on_c, 10, 67, 120
13, 45987, Note_on_c, 10, 67, 0
13, 46020, Note_on_c, 10, 69, 126
13, 46048, Note_on_c, 10, 69, 0
13, 46079, Note_on_c, 10, 71, 126
13, 46115, Note_on_c, 10, 71, 0
13, 46209, Note_on_c, 10, 71, 120
13, 46237, Note_on_c, 10, 71, 0
13, 46268, Note_on_c, 10, 69, 120
13, 46290, Note_on_c, 10, 69, 0
13, 46322, Note_on_c, 10, 67, 126
13, 46365, Note_on_c, 10, 67, 0
13, 46437, Note_on_c, 10, 69, 117
13, 46468, Note_on_c, 10, 69, 0
13, 46501, Note_on_c, 10, 71, 127
13, 46532, Note_on_c, 10, 71, 0
13, 46676, Note_on_c, 10, 69, 123
13, 46705, Note_on_c, 10, 69, 0
13, 46733, Note_on_c, 10, 71, 112
13, 46757, Note_on_c, 10, 71, 0
13, 46798, Note_on_c, 10, 67, 117
13, 46823, Note_on_c, 10, 67, 0
13, 46854, Note_on_c, 10, 69, 107
13, 46876, Note_on_c, 10, 69, 0
13, 46918, Note_on_c, 10, 65, 120
13, 46944, Note_on_c, 10, 65, 0
13, 46973, Note_on_c, 10, 67, 112
13, 46997, Note_on_c, 10, 67, 0
13, 47039, Note_on_c, 10, 64, 127
13, 47073, Note_on_c, 10, 64, 0
13, 47165, Note_on_c, 10, 67, 123
13, 47189, Note_on_c, 10, 67, 0
13, 47219, Note_on_c, 10, 65, 127
13, 47243, Note_on_c, 10, 65, 0
13, 47279, Note_on_c, 10, 64, 127
13, 47317, Note_on_c, 10, 64, 0
13, 47394, Note_on_c, 10, 65, 127
13, 47422, Note_on_c, 10, 65, 0
13, 47455, Note_on_c, 10, 67, 127
13, 47483, Note_on_c, 10, 67, 0
13, 48007, Note_on_c, 10, 67, 127
13, 48065, Note_on_c, 10, 67, 0
13, 48119, Note_on_c, 10, 67, 127
13, 48157, Note_on_c, 10, 67, 0
13, 48180, Note_on_c, 10, 65, 123
13, 48206, Note_on_c, 10, 65, 0
13, 48245, Note_on_c, 10, 64, 127
13, 48323, Note_on_c, 10, 64, 0
13, 48359, Note_on_c, 10, 65, 126
13, 48396, Note_on_c, 10, 65, 0
13, 48422, Note_on_c, 10, 67, 127
13, 48481, Note_on_c, 10, 67, 0
13, 48600, Note_on_c, 10, 67, 120
13, 48631, Note_on_c, 10, 67, 0
13, 48660, Note_on_c, 10, 69, 123
13, 48687, Note_on_c, 10, 69, 0
13, 48719, Note_on_c, 10, 67, 114
13, 48748, Note_on_c, 10, 67, 0
13, 48779, Note_on_c, 10, 65, 120
13, 48804, Note_on_c, 10, 65, 0
13, 48840, Note_on_c, 10, 64, 123
13, 48872, Note_on_c, 10, 64, 0
13, 48900, Note_on_c, 10, 65, 123
13, 48929, Note_on_c, 10, 65, 0
13, 48963, Note_on_c, 10, 67, 126
13, 48998, Note_on_c, 10, 67, 0
13, 49087, Note_on_c, 10, 67, 123
13, 49118, Note_on_c, 10, 67, 0
13, 49143, Note_on_c, 10, 65, 120
13, 49168, Note_on_c, 10, 65, 0
13, 49206, Note_on_c, 10, 64, 127
13, 49246, Note_on_c, 10, 64, 0
13, 49323, Note_on_c, 10, 65, 123
13, 49355, Note_on_c, 10, 65, 0
13, 49388, Note_on_c, 10, 67, 127
13, 49424, Note_on_c, 10, 67, 0
13, 49564, Note_on_c, 10, 67, 127
13, 49590, Note_on_c, 10, 67, 0
13, 49622, Note_on_c, 10, 65, 127
13, 49648, Note_on_c, 10, 65, 0
13, 49688, Note_on_c, 10, 67, 120
13, 49713, Note_on_c, 10, 67, 0
13, 49745, Note_on_c, 10, 65, 127
13, 49770, Note_on_c, 10, 65, 0
13, 49805, Note_on_c, 10, 67, 120
13, 49827, Note_on_c, 10, 67, 0
13, 49860, Note_on_c, 10, 69, 126
13, 49888, Note_on_c, 10, 69, 0
13, 49919, Note_on_c, 10, 71, 126
13, 49955, Note_on_c, 10, 71, 0
13, 50049, Note_on_c, 10, 71, 120
13, 50077, Note_on_c, 10, 71, 0
13, 50108, Note_on_c, 10, 69, 120
13, 50130, Note_on_c, 10, 69, 0
13, 50162, Note_on_c, 10, 67, 126
13, 50205, Note_on_c, 10, 67, 0
13, 50277, Note_on_c, 10, 69, 117
13, 50308, Note_on_c, 10, 69, 0
13, 50341, Note_on_c, 10, 71, 127
13, 50372, Note_on_c, 10, 71, 0
13, 50516, Note_on_c, 10, 69, 123
13, 50545, Note_on_c, 10, 69, 0
13, 50573, Note_on_c, 10, 71, 112
13, 50597, Note_on_c, 10, 71, 0
13, 50638, Note_on_c, 10, 67, 117
13, 50663, Note_on_c, 10, 67, 0
13, 50694, Note_on_c, 10, 69, 107
13, 50716, Note_on_c, 10, 69, 0
13, 50758, Note_on_c, 10, 65, 120
13, 50784, Note_on_c, 10, 65, 0
13, 50813, Note_on_c, 10, 67, 112
13, 50837, Note_on_c, 10, 67, 0
13, 50879, Note_on_c, 10, 64, 127
13, 50913, Note_on_c, 10, 64, 0
13, 51005, Note_on_c, 10, 67, 123
13, 51029, Note_on_c, 10, 67, 0
13, 51059, Note_on_c, 10, 65, 127
13, 51083, Note_on_c, 10, 65, 0
13, 51119, Note_on_c, 10, 64, 127
13, 51157, Note_on_c, 10, 64, 0
13, 51234, Note_on_c, 10, 65, 127
13, 51262, Note_on_c, 10, 65, 0
13, 51295, Note_on_c, 10, 67, 127
13, 51323, Note_on_c, 10, 67, 0
13, 51847, Note_on_c, 10, 67, 127
13, 51905, Note_on_c, 10, 67, 0
13, 51959, Note_on_c, 10, 67, 127
13, 51997, Note_on_c, 10, 67, 0
13, 52020, Note_on_c, 10, 65, 123
13, 52046, Note_on_c, 10, 65, 0
13, 52085, Note_on_c, 10, 64, 127
13, 52163, Note_on_c, 10, 64, 0
13, 52199, Note_on_c, 10, 65, 126
13, 52236, Note_on_c, 10, 65, 0
13, 52262, Note_on_c, 10, 67, 127
13, 52321, Note_on_c, 10, 67, 0
13, 52440, Note_on_c, 10, 67, 120
13, 52471, Note_on_c, 10, 67, 0
13, 52500, Note_on_c, 10, 69, 123
13, 52527, Note_on_c, 10, 69, 0
13, 52559, Note_on_c, 10, 67, 114
13, 52588, Note_on_c, 10, 67, 0
13, 52619, Note_on_c, 10, 65, 120
13, 52644, Note_on_c, 10, 65, 0
13, 52680, Note_on_c, 10, 64, 123
13, 52712, Note_on_c, 10, 64, 0
13, 52740, Note_on_c, 10, 65, 123
13, 52769, Note_on_c, 10, 65, 0
13, 52803, Note_on_c, 10, 67, 126
13, 52838, Note_on_c, 10, 67, 0
13, 52927, Note_on_c, 10, 67, 123
13, 52958, Note_on_c, 10, 67, 0
13, 52983, Note_on_c, 10, 65, 120
13, 53008, Note_on_c, 10, 65, 0
13, 53046, Note_on_c, 10, 64, 127
13, 53086, Note_on_c, 10, 64, 0
13, 53163, Note_on_c, 10, 65, 123
13, 53195, Note_on_c, 10, 65, 0
13, 53228, Note_on_c, 10, 67, 127
13, 53264, Note_on_c, 10, 67, 0
13, 53404, Note_on_c, 10, 67, 127
13, 53430, Note_on_c, 10, 67, 0
13, 53462, Note_on_c, 10, 65, 127
13, 53488, Note_on_c, 10, 65, 0
13, 53528, Note_on_c, 10, 67, 120
13, 53553, Note_on_c, 10, 67, 0
13, 53585, Note_on_c, 10, 65, 127
13, 53610, Note_on_c, 10, 65, 0
13, 53645, Note_on_c, 10, 67, 120
13, 53667, Note_on_c, 10, 67, 0
13, 53700, Note_on_c, 10, 69, 126
13, 53728, Note_on_c, 10, 69, 0
13, 53759, Note_on_c, 10, 71, 126
13, 53795, Note_on_c, 10, 71, 0
13, 53889, Note_on_c, 10, 71, 120
13, 53917, Note_on_c, 10, 71, 0
13, 53948, Note_on_c, 10, 69, 120
13, 53970, Note_on_c, 10, 69, 0
13, 54002, Note_on_c, 10, 67, 126
13, 54045, Note_on_c, 10, 67, 0
13, 54117, Note_on_c, 10, 69, 117
13, 54148, Note_on_c, 10, 69, 0
13, 54181, Note_on_c, 10, 71, 127
13, 54212, Note_on_c, 10, 71, 0
13, 54356, Note_on_c, 10, 69, 123
13, 54385, Note_on_c, 10, 69, 0
13, 54413, Note_on_c, 10, 71, 112
13, 54437, Note_on_c, 10, 71, 0
13, 54478, Note_on_c, 10, 67, 117
13, 54503, Note_on_c, 10, 67, 0
13, 54534, Note_on_c, 10, 69, 107
13, 54556, Note_on_c, 10, 69, 0
13, 54598, Note_on_c, 10, 65, 120
13, 54624, Note_on_c, 10, 65, 0
13, 54653, Note_on_c, 10, 67, 112
13, 54677, Note_on_c, 10, 67, 0
13, 54719, Note_on_c, 10, 64, 127
13, 54753, Note_on_c, 10, 64, 0
13, 54845, Note_on_c, 10, 67, 123
13, 54869, Note_on_c, 10, 67, 0
13, 54899, Note_on_c, 10, 65, 127
13, 54923, Note_on_c, 10, 65, 0
13, 54959, Note_on_c, 10, 64, 127
13, 54997, Note_on_c, 10, 64, 0
13, 55074, Note_on_c, 10, 65, 127
13, 55102, Note_on_c, 10, 65, 0
13, 55135, Note_on_c, 10, 67, 127
13, 55163, Note_on_c, 10, 67, 0
13, 55687, Note_on_c, 10, 67, 127
13, 55745, Note_on_c, 10, 67, 0
13, 55799, Note_on_c, 10, 67, 127
13, 55837, Note_on_c, 10, 67, 0
13, 55860, Note_on_c, 10, 65, 123
13, 55886, Note_on_c, 10, 65, 0
13, 55925, Note_on_c, 10, 64, 127
13, 56003, Note_on_c, 10, 64, 0
13, 56039, Note_on_c, 10, 65, 126
13, 56076, Note_on_c, 10, 65, 0
13, 56102, Note_on_c, 10, 67, 127
13, 56161, Note_on_c, 10, 67, 0
13, 56280, Note_on_c, 10, 67, 120
13, 56311, Note_on_c, 10, 67, 0
13, 56340, Note_on_c, 10, 69, 123
13, 56367, Note_on_c, 10, 69, 0
13, 56399, Note_on_c, 10, 67, 114
13, 56428, Note_on_c, 10, 67, 0
13, 56459, Note_on_c, 10, 65, 120
13, 56484, Note_on_c, 10, 65, 0
13, 56520, Note_on_c, 10, 64, 123
13, 56552, Note_on_c, 10, 64, 0
13, 56580, Note_on_c, 10, 65, 123
13, 56609, Note_on_c, 10, 65, 0
13, 56643, Note_on_c, 10, 67, 126
13, 56678, Note_on_c, 10, 67, 0
13, 56767, Note_on_c, 10, 67, 123
13, 56798, Note_on_c, 10, 67, 0
13, 56823, Note_on_c, 10, 65, 120
13, 56848, Note_on_c, 10, 65, 0
13, 56886, Note_on_c, 10, 64, 127
13, 56926, Note_on_c, 10, 64, 0
13, 57003, Note_on_c, 10, 65, 123
13, 57035, Note_on_c, 10, 65, 0
13, 57068, Note_on_c, 10, 67, 127
13, 57104, Note_on_c, 10, 67, 0
13, 57244, Note_on_c, 10, 67, 127
13, 57270, Note_on_c, 10, 67, 0
13, 57302, Note_on_c, 10, 65, 127
13, 57328, Note_on_c, 10, 65, 0
13, 57368, Note_on_c, 10, 67, 120
13, 57393, Note_on_c, 10, 67, 0
13, 57425, Note_on_c, 10, 65, 127
13, 57450, Note_on_c, 10, 65, 0
13, 57485, Note_on_c, 10, 67, 120
13, 57507, Note_on_c, 10, 67, 0
13, 57540, Note_on_c, 10, 69, 126
13, 57568, Note_on_c, 10, 69, 0
13, 57599, Note_on_c, 10, 71, 126
13, 57635, Note_on_c, 10, 71, 0
13, 57729, Note_on_c, 10, 71, 120
13, 57757, Note_on_c, 10, 71, 0
13, 57788, Note_on_c, 10, 69, 120
13, 57810, Note_on_c, 10, 69, 0
13, 57842, Note_on_c, 10, 67, 126
13, 57885, Note_on_c, 10, 67, 0
13, 57957, Note_on_c, 10, 69, 117
13, 57988, Note_on_c, 10, 69, 0
13, 58021, Note_on_c, 10, 71, 127
13, 58052, Note_on_c, 10, 71, 0
13, 58196, Note_on_c, 10, 69, 123
13, 58225, Note_on_c, 10, 69, 0
13, 58253, Note_on_c, 10, 71, 112
13, 58277, Note_on_c, 10, 71, 0
13, 58318, Note_on_c, 10, 67, 117
13, 58343, Note_on_c, 10, 67, 0
13, 58374, Note_on_c, 10, 69, 107
13, 58396, Note_on_c, 10, 69, 0
13, 58438, Note_on_c, 10, 65, 120
13, 58464, Note_on_c, 10, 65, 0
13, 58493, Note_on_c, 10, 67, 112
13, 58517, Note_on_c, 10, 67, 0
13, 58559, Note_on_c, 10, 62, 127
13, 58593, Note_on_c, 10, 62, 0
13, 58680, Note_on_c, 10, 60, 127
13, 58714, Note_on_c, 10, 60, 0
13, 58740, Note_on_c, 10, 60, 127
13, 58774, Note_on_c, 10, 60, 0
13, 58774, End_track
14, 0, Start_track
14, 0, MIDI_port, 0
14, 0, Title_t, "Kalimba"
14, 0, Program_c, 11, 108
14, 0, Control_c, 11, 7, 100
14, 0, Control_c, 11, 10, 20
14, 525, Control_c, 11, 121, 0
14, 550, Control_c, 11, 91, 80
14, 28860, Note_on_c, 11, 79, 104
14, 28878, Note_on_c, 11, 79, 0
14, 28980, Note_on_c, 11, 76, 101
14, 28998, Note_on_c, 11, 76, 0
14, 29040, Note_on_c, 11, 79, 102
14, 29068, Note_on_c, 11, 79, 0
14, 29160, Note_on_c, 11, 76, 117
14, 29182, Note_on_c, 11, 76, 0
14, 29340, Note_on_c, 11, 77, 110
14, 29361, Note_on_c, 11, 77, 0
14, 29460, Note_on_c, 11, 74, 107
14, 29485, Note_on_c, 11, 74, 0
14, 29520, Note_on_c, 11, 77, 117
14, 29537, Note_on_c, 11, 77, 0
14, 29580, Note_on_c, 11, 77, 104
14, 29597, Note_on_c, 11, 77, 0
14, 29640, Note_on_c, 11, 74, 109
14, 29662, Note_on_c, 11, 74, 0
14, 29820, Note_on_c, 11, 79, 104
14, 29838, Note_on_c, 11, 79, 0
14, 29940, Note_on_c, 11, 76, 101
14, 29958, Note_on_c, 11, 76, 0
14, 30000, Note_on_c, 11, 79, 102
14, 30028, Note_on_c, 11, 79, 0
14, 30120, Note_on_c, 11, 76, 117
14, 30142, Note_on_c, 11, 76, 0
14, 30300, Note_on_c, 11, 77, 110
14, 30321, Note_on_c, 11, 77, 0
14, 30420, Note_on_c, 11, 74, 107
14, 30445, Note_on_c, 11, 74, 0
14, 30480, Note_on_c, 11, 77, 117
14, 30497, Note_on_c, 11, 77, 0
14, 30540, Note_on_c, 11, 77, 104
14, 30557, Note_on_c, 11, 77, 0
14, 30600, Note_on_c, 11, 74, 109
14, 30622, Note_on_c, 11, 74, 0
14, 30780, Note_on_c, 11, 79, 104
14, 30798, Note_on_c, 11, 79, 0
14, 30900, Note_on_c, 11, 76, 101
14, 30918, Note_on_c, 11, 76, 0
14, 30960, Note_on_c, 11, 79, 102
14, 30988, Note_on_c, 11, 79, 0
14, 31080, Note_on_c, 11, 76, 117
14, 31102, Note_on_c, 11, 76, 0
14, 31260, Note_on_c, 11, 77, 110
14, 31281, Note_on_c, 11, 77, 0
14, 31380, Note_on_c, 11, 74, 107
14, 31405, Note_on_c, 11, 74, 0
14, 31440, Note_on_c, 11, 77, 117
14, 31457, Note_on_c, 11, 77, 0
14, 31500, Note_on_c, 11, 77, 104
14, 31517, Note_on_c, 11, 77, 0
14, 31560, Note_on_c, 11, 74, 109
14, 31582, Note_on_c, 11, 74, 0
14, 31740, Note_on_c, 11, 79, 104
14, 31758, Note_on_c, 11, 79, 0
14, 31860, Note_on_c, 11, 76, 101
14, 31878, Note_on_c, 11, 76, 0
14, 31920, Note_on_c, 11, 79, 102
14, 31948, Note_on_c, 11, 79, 0
14, 32040, Note_on_c, 11, 76, 117
14, 32062, Note_on_c, 11, 76, 0
14, 36487, Note_on_c, 11, 67, 127
14, 36545, Note_on_c, 11, 67, 0
14, 36599, Note_on_c, 11, 67, 127
14, 36637, Note_on_c, 11, 67, 0
14, 36660, Note_on_c, 11, 65, 123
14, 36686, Note_on_c, 11, 65, 0
14, 36725, Note_on_c, 11, 64, 127
14, 36803, Note_on_c, 11, 64, 0
14, 36839, Note_on_c, 11, 65, 126
14, 36876, Note_on_c, 11, 65, 0
14, 36902, Note_on_c, 11, 67, 127
14, 36961, Note_on_c, 11, 67, 0
14, 37080, Note_on_c, 11, 67, 120
14, 37111, Note_on_c, 11, 67, 0
14, 37140, Note_on_c, 11, 69, 123
14, 37167, Note_on_c, 11, 69, 0
14, 37199, Note_on_c, 11, 67, 114
14, 37228, Note_on_c, 11, 67, 0
14, 37259, Note_on_c, 11, 65, 120
14, 37284, Note_on_c, 11, 65, 0
14, 37320, Note_on_c, 11, 64, 123
14, 37352, Note_on_c, 11, 64, 0
14, 37380, Note_on_c, 11, 65, 123
14, 37409, Note_on_c, 11, 65, 0
14, 37443, Note_on_c, 11, 67, 126
14, 37478, Note_on_c, 11, 67, 0
14, 37567, Note_on_c, 11, 67, 123
14, 37598, Note_on_c, 11, 67, 0
14, 37623, Note_on_c, 11, 65, 120
14, 37648, Note_on_c, 11, 65, 0
14, 37686, Note_on_c, 11, 64, 127
14, 37726, Note_on_c, 11, 64, 0
14, 37803, Note_on_c, 11, 65, 123
14, 37835, Note_on_c, 11, 65, 0
14, 37868, Note_on_c, 11, 67, 127
14, 37904, Note_on_c, 11, 67, 0
14, 38044, Note_on_c, 11, 67, 127
14, 38070, Note_on_c, 11, 67, 0
14, 38102, Note_on_c, 11, 65, 127
14, 38128, Note_on_c, 11, 65, 0
14, 38168, Note_on_c, 11, 67, 120
14, 38193, Note_on_c, 11, 67, 0
14, 38225, Note_on_c, 11, 65, 127
14, 38250, Note_on_c, 11, 65, 0
14, 38285, Note_on_c, 11, 67, 120
14, 38307, Note_on_c, 11, 67, 0
14, 38340, Note_on_c, 11, 69, 126
14, 38368, Note_on_c, 11, 69, 0
14, 38399, Note_on_c, 11, 71, 126
14, 38435, Note_on_c, 11, 71, 0
14, 38529, Note_on_c, 11, 71, 120
14, 38557, Note_on_c, 11, 71, 0
14, 38588, Note_on_c, 11, 69, 120
14, 38610, Note_on_c, 11, 69, 0
14, 38642, Note_on_c, 11, 67, 126
14, 38685, Note_on_c, 11, 67, 0
14, 38757, Note_on_c, 11, 69, 117
14, 38788, Note_on_c, 11, 69, 0
14, 38821, Note_on_c, 11, 71, 127
14, 38852, Note_on_c, 11, 71, 0
14, 38996, Note_on_c, 11, 69, 123
14, 39025, Note_on_c, 11, 69, 0
14, 39053, Note_on_c, 11, 71, 112
14, 39077, Note_on_c, 11, 71, 0
14, 39118, Note_on_c, 11, 67, 117
14, 39143, Note_on_c, 11, 67, 0
14, 39174, Note_on_c, 11, 69, 107
14, 39196, Note_on_c, 11, 69, 0
14, 39238, Note_on_c, 11, 65, 120
14, 39264, Note_on_c, 11, 65, 0
14, 39293, Note_on_c, 11, 67, 112
14, 39317, Note_on_c, 11, 67, 0
14, 39359, Note_on_c, 11, 64, 127
14, 39393, Note_on_c, 11, 64, 0
14, 39485, Note_on_c, 11, 67, 123
14, 39509, Note_on_c, 11, 67, 0
14, 39539, Note_on_c, 11, 65, 127
14, 39563, Note_on_c, 11, 65, 0
14, 39599, Note_on_c, 11, 64, 127
14, 39637, Note_on_c, 11, 64, 0
14, 39714, Note_on_c, 11, 65, 127
14, 39742, Note_on_c, 11, 65, 0
14, 39775, Note_on_c, 11, 67, 127
14, 39803, Note_on_c, 11, 67, 0
14, 40327, Note_on_c, 11, 67, 127
14, 40385, Note_on_c, 11, 67, 0
14, 40439, Note_on_c, 11, 67, 127
14, 40477, Note_on_c, 11, 67, 0
14, 40500, Note_on_c, 11, 65, 123
14, 40526, Note_on_c, 11, 65, 0
14, 40565, Note_on_c, 11, 64, 127
14, 40643, Note_on_c, 11, 64, 0
14, 40679, Note_on_c, 11, 65, 126
14, 40716, Note_on_c, 11, 65, 0
14, 40742, Note_on_c, 11, 67, 127
14, 40801, Note_on_c, 11, 67, 0
14, 40920, Note_on_c, 11, 67, 120
14, 40951, Note_on_c, 11, 67, 0
14, 40980, Note_on_c, 11, 69, 123
14, 41007, Note_on_c, 11, 69, 0
14, 41039, Note_on_c, 11, 67, 114
14, 41068, Note_on_c, 11, 67, 0
14, 41099, Note_on_c, 11, 65, 120
14, 41124, Note_on_c, 11, 65, 0
14, 41160, Note_on_c, 11, 64, 123
14, 41192, Note_on_c, 11, 64, 0
14, 41220, Note_on_c, 11, 65, 123
14, 41249, Note_on_c, 11, 65, 0
14, 41283, Note_on_c, 11, 67, 126
14, 41318, Note_on_c, 11, 67, 0
14, 41407, Note_on_c, 11, 67, 123
14, 41438, Note_on_c, 11, 67, 0
14, 41463, Note_on_c, 11, 65, 120
14, 41488, Note_on_c, 11, 65, 0
14, 41526, Note_on_c, 11, 64, 127
14, 41566, Note_on_c, 11, 64, 0
14, 41643, Note_on_c, 11, 65, 123
14, 41675, Note_on_c, 11, 65, 0
14, 41708, Note_on_c, 11, 67, 127
14, 41744, Note_on_c, 11, 67, 0
14, 41884, Note_on_c, 11, 67, 127
14, 41910, Note_on_c, 11, 67, 0
14, 41942, Note_on_c, 11, 65, 127
14, 41968, Note_on_c, 11, 65, 0
14, 42008, Note_on_c, 11, 67, 120
14, 42033, Note_on_c, 11, 67, 0
14, 42065, Note_on_c, 11, 65, 127
14, 42090, Note_on_c, 11, 65, 0
14, 42125, Note_on_c, 11, 67, 120
14, 42147, Note_on_c, 11, 67, 0
14, 42180, Note_on_c, 11, 69, 126
14, 42208, Note_on_c, 11, 69, 0
14, 42239, Note_on_c, 11, 71, 126
14, 42275, Note_on_c, 11, 71, 0
14, 42369, Note_on_c, 11, 71, 120
14, 42397, Note_on_c, 11, 71, 0
14, 42428, Note_on_c, 11, 69, 120
14, 42450, Note_on_c, 11, 69, 0
14, 42482, Note_on_c, 11, 67, 126
14, 42525, Note_on_c, 11, 67, 0
14, 42597, Note_on_c, 11, 69, 117
14, 42628, Note_on_c, 11, 69, 0
14, 42661, Note_on_c, 11, 71, 127
14, 42692, Note_on_c, 11, 71, 0
14, 42836, Note_on_c, 11, 69, 123
14, 42865, Note_on_c, 11, 69, 0
14, 42893, Note_on_c, 11, 71, 112
14, 42917, Note_on_c, 11, 71, 0
14, 42958, Note_on_c, 11, 67, 117
14, 42983, Note_on_c, 11, 67, 0
14, 43014, Note_on_c, 11, 69, 107
14, 43036, Note_on_c, 11, 69, 0
14, 43078, Note_on_c, 11, 65, 120
14, 43104, Note_on_c, 11, 65, 0
14, 43133, Note_on_c, 11, 67, 112
14, 43157, Note_on_c, 11, 67, 0
14, 43199, Note_on_c, 11, 64, 127
14, 43233, Note_on_c, 11, 64, 0
14, 43325, Note_on_c, 11, 67, 123
14, 43349, Note_on_c, 11, 67, 0
14, 43379, Note_on_c, 11, 65, 127
14, 43403, Note_on_c, 11, 65, 0
14, 43439, Note_on_c, 11, 64, 127
14, 43477, Note_on_c, 11, 64, 0
14, 43554, Note_on_c, 11, 65, 127
14, 43582, Note_on_c, 11, 65, 0
14, 43615, Note_on_c, 11, 67, 127
14, 43643, Note_on_c, 11, 67, 0
14, 44167, Note_on_c, 11, 67, 127
14, 44225, Note_on_c, 11, 67, 0
14, 44279, Note_on_c, 11, 67, 127
14, 44317, Note_on_c, 11, 67, 0
14, 44340, Note_on_c, 11, 65, 123
14, 44366, Note_on_c, 11, 65, 0
14, 44405, Note_on_c, 11, 64, 127
14, 44483, Note_on_c, 11, 64, 0
14, 44519, Note_on_c, 11, 65, 126
14, 44556, Note_on_c, 11, 65, 0
14, 44582, Note_on_c, 11, 67, 127
14, 44641, Note_on_c, 11, 67, 0
14, 44760, Note_on_c, 11, 67, 120
14, 44791, Note_on_c, 11, 67, 0
14, 44820, Note_on_c, 11, 69, 123
14, 44847, Note_on_c, 11, 69, 0
14, 44879, Note_on_c, 11, 67, 114
14, 44908, Note_on_c, 11, 67, 0
14, 44939, Note_on_c, 11, 65, 120
14, 44964, Note_on_c, 11, 65, 0
14, 45000, Note_on_c, 11, 64, 123
14, 45032, Note_on_c, 11, 64, 0
14, 45060, Note_on_c, 11, 65, 123
14, 45089, Note_on_c, 11, 65, 0
14, 45123, Note_on_c, 11, 67, 126
14, 45158, Note_on_c, 11, 67, 0
14, 45247, Note_on_c, 11, 67, 123
14, 45278, Note_on_c, 11, 67, 0
14, 45303, Note_on_c, 11, 65, 120
14, 45328, Note_on_c, 11, 65, 0
14, 45366, Note_on_c, 11, 64, 127
14, 45406, Note_on_c, 11, 64, 0
14, 45483, Note_on_c, 11, 65, 123
14, 45515, Note_on_c, 11, 65, 0
14, 45548, Note_on_c, 11, 67, 127
14, 45584, Note_on_c, 11, 67, 0
14, 45724, Note_on_c, 11, 67, 127
14, 45750, Note_on_c, 11, 67, 0
14, 45782, Note_on_c, 11, 65, 127
14, 45808, Note_on_c, 11, 65, 0
14, 45848, Note_on_c, 11, 67, 120
14, 45873, Note_on_c, 11, 67, 0
14, 45905, Note_on_c, 11, 65, 127
14, 45930, Note_on_c, 11, 65, 0
14, 45965, Note_on_c, 11, 67, 120
14, 45987, Note_on_c, 11, 67, 0
14, 46020, Note_on_c, 11, 69, 126
14, 46048, Note_on_c, 11, 69, 0
14, 46079, Note_on_c, 11, 71, 126
14, 46115, Note_on_c, 11, 71, 0
14, 46209, Note_on_c, 11, 71, 120
14, 46237, Note_on_c, 11, 71, 0
14, 46268, Note_on_c, 11, 69, 120
14, 46290, Note_on_c, 11, 69, 0
14, 46322, Note_on_c, 11, 67, 126
14, 46365, Note_on_c, 11, 67, 0
14, 46437, Note_on_c, 11, 69, 117
14, 46468, Note_on_c, 11, 69, 0
14, 46501, Note_on_c, 11, 71, 127
14, 46532, Note_on_c, 11, 71, 0
14, 46676, Note_on_c, 11, 69, 123
14, 46705, Note_on_c, 11, 69, 0
14, 46733, Note_on_c, 11, 71, 112
14, 46757, Note_on_c, 11, 71, 0
14, 46798, Note_on_c, 11, 67, 117
14, 46823, Note_on_c, 11, 67, 0
14, 46854, Note_on_c, 11, 69, 107
14, 46876, Note_on_c, 11, 69, 0
14, 46918, Note_on_c, 11, 65, 120
14, 46944, Note_on_c, 11, 65, 0
14, 46973, Note_on_c, 11, 67, 112
14, 46997, Note_on_c, 11, 67, 0
14, 47039, Note_on_c, 11, 64, 127
14, 47073, Note_on_c, 11, 64, 0
14, 47165, Note_on_c, 11, 67, 123
14, 47189, Note_on_c, 11, 67, 0
14, 47219, Note_on_c, 11, 65, 127
14, 47243, Note_on_c, 11, 65, 0
14, 47279, Note_on_c, 11, 64, 127
14, 47317, Note_on_c, 11, 64, 0
14, 47394, Note_on_c, 11, 65, 127
14, 47422, Note_on_c, 11, 65, 0
14, 47455, Note_on_c, 11, 67, 127
14, 47483, Note_on_c, 11, 67, 0
14, 48007, Note_on_c, 11, 67, 127
14, 48065, Note_on_c, 11, 67, 0
14, 48119, Note_on_c, 11, 67, 127
14, 48157, Note_on_c, 11, 67, 0
14, 48180, Note_on_c, 11, 65, 123
14, 48206, Note_on_c, 11, 65, 0
14, 48245, Note_on_c, 11, 64, 127
14, 48323, Note_on_c, 11, 64, 0
14, 48359, Note_on_c, 11, 65, 126
14, 48396, Note_on_c, 11, 65, 0
14, 48422, Note_on_c, 11, 67, 127
14, 48481, Note_on_c, 11, 67, 0
14, 48600, Note_on_c, 11, 67, 120
14, 48631, Note_on_c, 11, 67, 0
14, 48660, Note_on_c, 11, 69, 123
14, 48687, Note_on_c, 11, 69, 0
14, 48719, Note_on_c, 11, 67, 114
14, 48748, Note_on_c, 11, 67, 0
14, 48779, Note_on_c, 11, 65, 120
14, 48804, Note_on_c, 11, 65, 0
14, 48840, Note_on_c, 11, 64, 123
14, 48872, Note_on_c, 11, 64, 0
14, 48900, Note_on_c, 11, 65, 123
14, 48929, Note_on_c, 11, 65, 0
14, 48963, Note_on_c, 11, 67, 126
14, 48998, Note_on_c, 11, 67, 0
14, 49087, Note_on_c, 11, 67, 123
14, 49118, Note_on_c, 11, 67, 0
14, 49143, Note_on_c, 11, 65, 120
14, 49168, Note_on_c, 11, 65, 0
14, 49206, Note_on_c, 11, 64, 127
14, 49246, Note_on_c, 11, 64, 0
14, 49323, Note_on_c, 11, 65, 123
14, 49355, Note_on_c, 11, 65, 0
14, 49388, Note_on_c, 11, 67, 127
14, 49424, Note_on_c, 11, 67, 0
14, 49564, Note_on_c, 11, 67, 127
14, 49590, Note_on_c, 11, 67, 0
14, 49622, Note_on_c, 11, 65, 127
14, 49648, Note_on_c, 11, 65, 0
14, 49688, Note_on_c, 11, 67, 120
14, 49713, Note_on_c, 11, 67, 0
14, 49745, Note_on_c, 11, 65, 127
14, 49770, Note_on_c, 11, 65, 0
14, 49805, Note_on_c, 11, 67, 120
14, 49827, Note_on_c, 11, 67, 0
14, 49860, Note_on_c, 11, 69, 126
14, 49888, Note_on_c, 11, 69, 0
14, 49919, Note_on_c, 11, 71, 126
14, 49955, Note_on_c, 11, 71, 0
14, 50049, Note_on_c, 11, 71, 120
14, 50077, Note_on_c, 11, 71, 0
14, 50108, Note_on_c, 11, 69, 120
14, 50130, Note_on_c, 11, 69, 0
14, 50162, Note_on_c, 11, 67, 126
14, 50205, Note_on_c, 11, 67, 0
14, 50277, Note_on_c, 11, 69, 117
14, 50308, Note_on_c, 11, 69, 0
14, 50341, Note_on_c, 11, 71, 127
14, 50372, Note_on_c, 11, 71, 0
14, 50516, Note_on_c, 11, 69, 123
14, 50545, Note_on_c, 11, 69, 0
14, 50573, Note_on_c, 11, 71, 112
14, 50597, Note_on_c, 11, 71, 0
14, 50638, Note_on_c, 11, 67, 117
14, 50663, Note_on_c, 11, 67, 0
14, 50694, Note_on_c, 11, 69, 107
14, 50716, Note_on_c, 11, 69, 0
14, 50758, Note_on_c, 11, 65, 120
14, 50784, Note_on_c, 11, 65, 0
14, 50813, Note_on_c, 11, 67, 112
14, 50837, Note_on_c, 11, 67, 0
14, 50879, Note_on_c, 11, 64, 127
14, 50913, Note_on_c, 11, 64, 0
14, 51005, Note_on_c, 11, 67, 123
14, 51029, Note_on_c, 11, 67, 0
14, 51059, Note_on_c, 11, 65, 127
14, 51083, Note_on_c, 11, 65, 0
14, 51119, Note_on_c, 11, 64, 127
14, 51157, Note_on_c, 11, 64, 0
14, 51234, Note_on_c, 11, 65, 127
14, 51262, Note_on_c, 11, 65, 0
14, 51295, Note_on_c, 11, 67, 127
14, 51323, Note_on_c, 11, 67, 0
14, 51847, Note_on_c, 11, 67, 127
14, 51905, Note_on_c, 11, 67, 0
14, 51959, Note_on_c, 11, 67, 127
14, 51997, Note_on_c, 11, 67, 0
14, 52020, Note_on_c, 11, 65, 123
14, 52046, Note_on_c, 11, 65, 0
14, 52085, Note_on_c, 11, 64, 127
14, 52163, Note_on_c, 11, 64, 0
14, 52199, Note_on_c, 11, 65, 126
14, 52236, Note_on_c, 11, 65, 0
14, 52262, Note_on_c, 11, 67, 127
14, 52321, Note_on_c, 11, 67, 0
14, 52440, Note_on_c, 11, 67, 120
14, 52471, Note_on_c, 11, 67, 0
14, 52500, Note_on_c, 11, 69, 123
14, 52527, Note_on_c, 11, 69, 0
14, 52559, Note_on_c, 11, 67, 114
14, 52588, Note_on_c, 11, 67, 0
14, 52619, Note_on_c, 11, 65, 120
14, 52644, Note_on_c, 11, 65, 0
14, 52680, Note_on_c, 11, 64, 123
14, 52712, Note_on_c, 11, 64, 0
14, 52740, Note_on_c, 11, 65, 123
14, 52769, Note_on_c, 11, 65, 0
14, 52803, Note_on_c, 11, 67, 126
14, 52838, Note_on_c, 11, 67, 0
14, 52927, Note_on_c, 11, 67, 123
14, 52958, Note_on_c, 11, 67, 0
14, 52983, Note_on_c, 11, 65, 120
14, 53008, Note_on_c, 11, 65, 0
14, 53046, Note_on_c, 11, 64, 127
14, 53086, Note_on_c, 11, 64, 0
14, 53163, Note_on_c, 11, 65, 123
14, 53195, Note_on_c, 11, 65, 0
14, 53228, Note_on_c, 11, 67, 127
14, 53264, Note_on_c, 11, 67, 0
14, 53404, Note_on_c, 11, 67, 127
14, 53430, Note_on_c, 11, 67, 0
14, 53462, Note_on_c, 11, 65, 127
14, 53488, Note_on_c, 11, 65, 0
14, 53528, Note_on_c, 11, 67, 120
14, 53553, Note_on_c, 11, 67, 0
14, 53585, Note_on_c, 11, 65, 127
14, 53610, Note_on_c, 11, 65, 0
14, 53645, Note_on_c, 11, 67, 120
14, 53667, Note_on_c, 11, 67, 0
14, 53700, Note_on_c, 11, 69, 126
14, 53728, Note_on_c, 11, 69, 0
14, 53759, Note_on_c, 11, 71, 126
14, 53795, Note_on_c, 11, 71, 0
14, 53889, Note_on_c, 11, 71, 120
14, 53917, Note_on_c, 11, 71, 0
14, 53948, Note_on_c, 11, 69, 120
14, 53970, Note_on_c, 11, 69, 0
14, 54002, Note_on_c, 11, 67, 126
14, 54045, Note_on_c, 11, 67, 0
14, 54117, Note_on_c, 11, 69, 117
14, 54148, Note_on_c, 11, 69, 0
14, 54181, Note_on_c, 11, 71, 127
14, 54212, Note_on_c, 11, 71, 0
14, 54356, Note_on_c, 11, 69, 123
14, 54385, Note_on_c, 11, 69, 0
14, 54413, Note_on_c, 11, 71, 112
14, 54437, Note_on_c, 11, 71, 0
14, 54478, Note_on_c, 11, 67, 117
14, 54503, Note_on_c, 11, 67, 0
14, 54534, Note_on_c, 11, 69, 107
14, 54556, Note_on_c, 11, 69, 0
14, 54598, Note_on_c, 11, 65, 120
14, 54624, Note_on_c, 11, 65, 0
14, 54653, Note_on_c, 11, 67, 112
14, 54677, Note_on_c, 11, 67, 0
14, 54719, Note_on_c, 11, 64, 127
14, 54753, Note_on_c, 11, 64, 0
14, 54845, Note_on_c, 11, 67, 123
14, 54869, Note_on_c, 11, 67, 0
14, 54899, Note_on_c, 11, 65, 127
14, 54923, Note_on_c, 11, 65, 0
14, 54959, Note_on_c, 11, 64, 127
14, 54997, Note_on_c, 11, 64, 0
14, 55074, Note_on_c, 11, 65, 127
14, 55102, Note_on_c, 11, 65, 0
14, 55135, Note_on_c, 11, 67, 127
14, 55163, Note_on_c, 11, 67, 0
14, 55687, Note_on_c, 11, 67, 127
14, 55745, Note_on_c, 11, 67, 0
14, 55799, Note_on_c, 11, 67, 127
14, 55837, Note_on_c, 11, 67, 0
14, 55860, Note_on_c, 11, 65, 123
14, 55886, Note_on_c, 11, 65, 0
14, 55925, Note_on_c, 11, 64, 127
14, 56003, Note_on_c, 11, 64, 0
14, 56039, Note_on_c, 11, 65, 126
14, 56076, Note_on_c, 11, 65, 0
14, 56102, Note_on_c, 11, 67, 127
14, 56161, Note_on_c, 11, 67, 0
14, 56280, Note_on_c, 11, 67, 120
14, 56311, Note_on_c, 11, 67, 0
14, 56340, Note_on_c, 11, 69, 123
14, 56367, Note_on_c, 11, 69, 0
14, 56399, Note_on_c, 11, 67, 114
14, 56428, Note_on_c, 11, 67, 0
14, 56459, Note_on_c, 11, 65, 120
14, 56484, Note_on_c, 11, 65, 0
14, 56520, Note_on_c, 11, 64, 123
14, 56552, Note_on_c, 11, 64, 0
14, 56580, Note_on_c, 11, 65, 123
14, 56609, Note_on_c, 11, 65, 0
14, 56643, Note_on_c, 11, 67, 126
14, 56678, Note_on_c, 11, 67, 0
14, 56767, Note_on_c, 11, 67, 123
14, 56798, Note_on_c, 11, 67, 0
14, 56823, Note_on_c, 11, 65, 120
14, 56848, Note_on_c, 11, 65, 0
14, 56886, Note_on_c, 11, 64, 127
14, 56926, Note_on_c, 11, 64, 0
14, 57003, Note_on_c, 11, 65, 123
14, 57035, Note_on_c, 11, 65, 0
14, 57068, Note_on_c, 11, 67, 127
14, 57104, Note_on_c, 11, 67, 0
14, 57244, Note_on_c, 11, 67, 127
14, 57270, Note_on_c, 11, 67, 0
14, 57302, Note_on_c, 11, 65, 127
14, 57328, Note_on_c, 11, 65, 0
14, 57368, Note_on_c, 11, 67, 120
14, 57393, Note_on_c, 11, 67, 0
14, 57425, Note_on_c, 11, 65, 127
14, 57450, Note_on_c, 11, 65, 0
14, 57485, Note_on_c, 11, 67, 120
14, 57507, Note_on_c, 11, 67, 0
14, 57540, Note_on_c, 11, 69, 126
14, 57568, Note_on_c, 11, 69, 0
14, 57599, Note_on_c, 11, 71, 126
14, 57635, Note_on_c, 11, 71, 0
14, 57729, Note_on_c, 11, 71, 120
14, 57757, Note_on_c, 11, 71, 0
14, 57788, Note_on_c, 11, 69, 120
14, 57810, Note_on_c, 11, 69, 0
14, 57842, Note_on_c, 11, 67, 126
14, 57885, Note_on_c, 11, 67, 0
14, 57957, Note_on_c, 11, 69, 117
14, 57988, Note_on_c, 11, 69, 0
14, 58021, Note_on_c, 11, 71, 127
14, 58052, Note_on_c, 11, 71, 0
14, 58196, Note_on_c, 11, 69, 123
14, 58225, Note_on_c, 11, 69, 0
14, 58253, Note_on_c, 11, 71, 112
14, 58277, Note_on_c, 11, 71, 0
14, 58318, Note_on_c, 11, 67, 117
14, 58343, Note_on_c, 11, 67, 0
14, 58374, Note_on_c, 11, 69, 107
14, 58396, Note_on_c, 11, 69, 0
14, 58438, Note_on_c, 11, 65, 120
14, 58464, Note_on_c, 11, 65, 0
14, 58493, Note_on_c, 11, 67, 112
14, 58517, Note_on_c, 11, 67, 0
14, 58559, Note_on_c, 11, 62, 127
14, 58593, Note_on_c, 11, 62, 0
14, 58680, Note_on_c, 11, 60, 127
14, 58714, Note_on_c, 11, 60, 0
14, 58740, Note_on_c, 11, 60, 127
14, 58774, Note_on_c, 11, 60, 0
14, 58774, End_track
15, 0, Start_track
15, 0, MIDI_port, 0
15, 0, Title_t, "Drums"
15, 0, Program_c, 9, 0
15, 0, Control_c, 9, 7, 127
15, 0, Control_c, 9, 10, 64
15, 480, Control_c, 9, 10, 64
15, 480, Program_c, 9, 0
15, 480, Control_c, 9, 7, 100
15, 4740, Control_c, 9, 91, 70
15, 4800, Note_on_c, 9, 36, 127
15, 4801, Note_on_c, 9, 42, 112
15, 4802, Note_on_c, 9, 49, 120
15, 4802, Note_on_c, 9, 63, 127
15, 4802, Note_on_c, 9, 70, 122
15, 4815, Note_on_c, 9, 70, 0
15, 4815, Note_on_c, 9, 36, 0
15, 4817, Note_on_c, 9, 63, 0
15, 4822, Note_on_c, 9, 42, 0
15, 4853, Note_on_c, 9, 49, 0
15, 4860, Note_on_c, 9, 44, 112
15, 4861, Note_on_c, 9, 64, 105
15, 4861, Note_on_c, 9, 54, 121
15, 4861, Note_on_c, 9, 70, 126
15, 4877, Note_on_c, 9, 70, 0
15, 4877, Note_on_c, 9, 54, 0
15, 4878, Note_on_c, 9, 64, 0
15, 4883, Note_on_c, 9, 44, 0
15, 4920, Note_on_c, 9, 36, 127
15, 4920, Note_on_c, 9, 38, 127
15, 4921, Note_on_c, 9, 70, 105
15, 4921, Note_on_c, 9, 64, 122
15, 4921, Note_on_c, 9, 42, 112
15, 4932, Note_on_c, 9, 70, 0
15, 4938, Note_on_c, 9, 36, 0
15, 4939, Note_on_c, 9, 64, 0
15, 4943, Note_on_c, 9, 42, 0
15, 4948, Note_on_c, 9, 38, 0
15, 4980, Note_on_c, 9, 44, 99
15, 4982, Note_on_c, 9, 63, 121
15, 4982, Note_on_c, 9, 70, 127
15, 4982, Note_on_c, 9, 54, 111
15, 4993, Note_on_c, 9, 54, 0
15, 4993, Note_on_c, 9, 63, 0
15, 4999, Note_on_c, 9, 70, 0
15, 5003, Note_on_c, 9, 44, 0
15, 5010, Note_on_c, 9, 63, 127
15, 5025, Note_on_c, 9, 63, 0
15, 5040, Note_on_c, 9, 36, 127
15, 5041, Note_on_c, 9, 42, 116
15, 5041, Note_on_c, 9, 70, 114
15, 5053, Note_on_c, 9, 70, 0
15, 5058, Note_on_c, 9, 36, 0
15, 5064, Note_on_c, 9, 42, 0
15, 5070, Note_on_c, 9, 63, 127
15, 5082, Note_on_c, 9, 63, 0
15, 5100, Note_on_c, 9, 44, 90
15, 5100, Note_on_c, 9, 46, 127
15, 5101, Note_on_c, 9, 64, 119
15, 5101, Note_on_c, 9, 70, 124
15, 5101, Note_on_c, 9, 54, 118
15, 5114, Note_on_c, 9, 46, 0
15, 5116, Note_on_c, 9, 64, 0
15, 5120, Note_on_c, 9, 44, 0
15, 5121, Note_on_c, 9, 54, 0
15, 5121, Note_on_c, 9, 70, 0
15, 5160, Note_on_c, 9, 38, 127
15, 5160, Note_on_c, 9, 36, 127
15, 5160, Note_on_c, 9, 44, 100
15, 5161, Note_on_c, 9, 64, 115
15, 5161, Note_on_c, 9, 42, 123
15, 5161, Note_on_c, 9, 70, 106
15, 5173, Note_on_c, 9, 70, 0
15, 5173, Note_on_c, 9, 64, 0
15, 5174, Note_on_c, 9, 44, 0
15, 5180, Note_on_c, 9, 36, 0
15, 5188, Note_on_c, 9, 42, 0
15, 5193, Note_on_c, 9, 38, 0
15, 5220, Note_on_c, 9, 44, 99
15, 5221, Note_on_c, 9, 70, 122
15, 5221, Note_on_c, 9, 54, 116
15, 5222, Note_on_c, 9, 62, 115
15, 5237, Note_on_c, 9, 62, 0
15, 5242, Note_on_c, 9, 54, 0
15, 5244, Note_on_c, 9, 70, 0
15, 5246, Note_on_c, 9, 44, 0
15, 5250, Note_on_c, 9, 62, 112
15, 5272, Note_on_c, 9, 62, 0
15, 5280, Note_on_c, 9, 42, 120
15, 5280, Note_on_c, 9, 36, 127
15, 5282, Note_on_c, 9, 63, 127
15, 5282, Note_on_c, 9, 70, 98
15, 5292, Note_on_c, 9, 63, 0
15, 5295, Note_on_c, 9, 36, 0
15, 5304, Note_on_c, 9, 70, 0
15, 5305, Note_on_c, 9, 42, 0
15, 5340, Note_on_c, 9, 44, 103
15, 5341, Note_on_c, 9, 63, 120
15, 5341, Note_on_c, 9, 70, 120
15, 5341, Note_on_c, 9, 54, 127
15, 5356, Note_on_c, 9, 70, 0
15, 5356, Note_on_c, 9, 63, 0
15, 5361, Note_on_c, 9, 54, 0
15, 5370, Note_on_c, 9, 44, 0
15, 5400, Note_on_c, 9, 38, 127
15, 5400, Note_on_c, 9, 36, 127
15, 5401, Note_on_c, 9, 42, 121
15, 5401, Note_on_c, 9, 64, 116
15, 5401, Note_on_c, 9, 70, 103
15, 5407, Note_on_c, 9, 64, 0
15, 5417, Note_on_c, 9, 70, 0
15, 5420, Note_on_c, 9, 36, 0
15, 5422, Note_on_c, 9, 42, 0
15, 5430, Note_on_c, 9, 38, 0
15, 5460, Note_on_c, 9, 44, 103
15, 5461, Note_on_c, 9, 54, 120
15, 5461, Note_on_c, 9, 70, 115
15, 5462, Note_on_c, 9, 64, 102
15, 5474, Note_on_c, 9, 70, 0
15, 5477, Note_on_c, 9, 64, 0
15, 5481, Note_on_c, 9, 54, 0
15, 5483, Note_on_c, 9, 44, 0
15, 5490, Note_on_c, 9, 63, 127
15, 5501, Note_on_c, 9, 63, 0
15, 5520, Note_on_c, 9, 36, 127
15, 5521, Note_on_c, 9, 42, 126
15, 5521, Note_on_c, 9, 70, 98
15, 5538, Note_on_c, 9, 70, 0
15, 5542, Note_on_c, 9, 36, 0
15, 5549, Note_on_c, 9, 42, 0
15, 5550, Note_on_c, 9, 63, 121
15, 5562, Note_on_c, 9, 63, 0
15, 5580, Note_on_c, 9, 44, 99
15, 5580, Note_on_c, 9, 46, 127
15, 5581, Note_on_c, 9, 54, 121
15, 5581, Note_on_c, 9, 70, 118
15, 5581, Note_on_c, 9, 64, 109
15, 5592, Note_on_c, 9, 64, 0
15, 5594, Note_on_c, 9, 46, 0
15, 5599, Note_on_c, 9, 70, 0
15, 5602, Note_on_c, 9, 44, 0
15, 5604, Note_on_c, 9, 54, 0
15, 5640, Note_on_c, 9, 36, 127
15, 5640, Note_on_c, 9, 38, 127
15, 5640, Note_on_c, 9, 44, 100
15, 5641, Note_on_c, 9, 70, 104
15, 5641, Note_on_c, 9, 42, 127
15, 5641, Note_on_c, 9, 64, 115
15, 5647, Note_on_c, 9, 64, 0
15, 5654, Note_on_c, 9, 44, 0
15, 5658, Note_on_c, 9, 36, 0
15, 5658, Note_on_c, 9, 38, 0
15, 5662, Note_on_c, 9, 70, 0
15, 5666, Note_on_c, 9, 42, 0
15, 5700, Note_on_c, 9, 44, 99
15, 5701, Note_on_c, 9, 54, 122
15, 5701, Note_on_c, 9, 70, 113
15, 5702, Note_on_c, 9, 62, 127
15, 5717, Note_on_c, 9, 62, 0
15, 5721, Note_on_c, 9, 54, 0
15, 5722, Note_on_c, 9, 70, 0
15, 5722, Note_on_c, 9, 44, 0
15, 5730, Note_on_c, 9, 62, 120
15, 5751, Note_on_c, 9, 62, 0
15, 5760, Note_on_c, 9, 36, 127
15, 5761, Note_on_c, 9, 42, 127
15, 5761, Note_on_c, 9, 70, 99
15, 5779, Note_on_c, 9, 70, 0
15, 5780, Note_on_c, 9, 36, 0
15, 5782, Note_on_c, 9, 42, 0
15, 5790, Note_on_c, 9, 63, 109
15, 5803, Note_on_c, 9, 63, 0
15, 5820, Note_on_c, 9, 44, 111
15, 5821, Note_on_c, 9, 63, 123
15, 5821, Note_on_c, 9, 70, 117
15, 5821, Note_on_c, 9, 54, 122
15, 5829, Note_on_c, 9, 63, 0
15, 5839, Note_on_c, 9, 54, 0
15, 5839, Note_on_c, 9, 70, 0
15, 5843, Note_on_c, 9, 44, 0
15, 5880, Note_on_c, 9, 38, 127
15, 5880, Note_on_c, 9, 36, 127
15, 5881, Note_on_c, 9, 70, 101
15, 5881, Note_on_c, 9, 64, 122
15, 5881, Note_on_c, 9, 42, 122
15, 5898, Note_on_c, 9, 64, 0
15, 5898, Note_on_c, 9, 70, 0
15, 5899, Note_on_c, 9, 42, 0
15, 5906, Note_on_c, 9, 36, 0
15, 5916, Note_on_c, 9, 38, 0
15, 5940, Note_on_c, 9, 44, 84
15, 5941, Note_on_c, 9, 54, 120
15, 5941, Note_on_c, 9, 70, 120
15, 5941, Note_on_c, 9, 63, 127
15, 5953, Note_on_c, 9, 63, 0
15, 5958, Note_on_c, 9, 44, 0
15, 5962, Note_on_c, 9, 70, 0
15, 5962, Note_on_c, 9, 54, 0
15, 5970, Note_on_c, 9, 63, 127
15, 5985, Note_on_c, 9, 63, 0
15, 6000, Note_on_c, 9, 36, 127
15, 6001, Note_on_c, 9, 70, 103
15, 6001, Note_on_c, 9, 42, 124
15, 6019, Note_on_c, 9, 70, 0
15, 6024, Note_on_c, 9, 42, 0
15, 6026, Note_on_c, 9, 36, 0
15, 6030, Note_on_c, 9, 63, 124
15, 6041, Note_on_c, 9, 63, 0
15, 6060, Note_on_c, 9, 44, 115
15, 6060, Note_on_c, 9, 46, 127
15, 6061, Note_on_c, 9, 64, 115
15, 6061, Note_on_c, 9, 54, 123
15, 6061, Note_on_c, 9, 70, 118
15, 6072, Note_on_c, 9, 64, 0
15, 6074, Note_on_c, 9, 46, 0
15, 6075, Note_on_c, 9, 66, 127
15, 6079, Note_on_c, 9, 54, 0
15, 6081, Note_on_c, 9, 70, 0
15, 6083, Note_on_c, 9, 44, 0
15, 6090, Note_on_c, 9, 66, 127
15, 6097, Note_on_c, 9, 66, 0
15, 6105, Note_on_c, 9, 66, 127
15, 6112, Note_on_c, 9, 66, 0
15, 6120, Note_on_c, 9, 36, 127
15, 6120, Note_on_c, 9, 38, 127
15, 6120, Note_on_c, 9, 44, 100
15, 6121, Note_on_c, 9, 42, 123
15, 6121, Note_on_c, 9, 64, 117
15, 6121, Note_on_c, 9, 70, 101
15, 6127, Note_on_c, 9, 66, 0
15, 6133, Note_on_c, 9, 64, 0
15, 6134, Note_on_c, 9, 44, 0
15, 6137, Note_on_c, 9, 70, 0
15, 6144, Note_on_c, 9, 42, 0
15, 6145, Note_on_c, 9, 38, 0
15, 6148, Note_on_c, 9, 36, 0
15, 6180, Note_on_c, 9, 44, 107
15, 6181, Note_on_c, 9, 54, 123
15, 6181, Note_on_c, 9, 70, 121
15, 6182, Note_on_c, 9, 62, 127
15, 6192, Note_on_c, 9, 62, 0
15, 6197, Note_on_c, 9, 70, 0
15, 6202, Note_on_c, 9, 54, 0
15, 6203, Note_on_c, 9, 44, 0
15, 6210, Note_on_c, 9, 62, 127
15, 6230, Note_on_c, 9, 62, 0
15, 6240, Note_on_c, 9, 36, 127
15, 6241, Note_on_c, 9, 42, 124
15, 6242, Note_on_c, 9, 70, 108
15, 6242, Note_on_c, 9, 63, 126
15, 6247, Note_on_c, 9, 63, 0
15, 6255, Note_on_c, 9, 70, 0
15, 6256, Note_on_c, 9, 36, 0
15, 6264, Note_on_c, 9, 42, 0
15, 6300, Note_on_c, 9, 44, 105
15, 6301, Note_on_c, 9, 70, 120
15, 6301, Note_on_c, 9, 54, 123
15, 6302, Note_on_c, 9, 63, 115
15, 6310, Note_on_c, 9, 63, 0
15, 6317, Note_on_c, 9, 70, 0
15, 6321, Note_on_c, 9, 54, 0
15, 6322, Note_on_c, 9, 44, 0
15, 6360, Note_on_c, 9, 36, 127
15, 6360, Note_on_c, 9, 38, 127
15, 6361, Note_on_c, 9, 70, 103
15, 6361, Note_on_c, 9, 42, 127
15, 6361, Note_on_c, 9, 64, 113
15, 6375, Note_on_c, 9, 36, 0
15, 6377, Note_on_c, 9, 70, 0
15, 6379, Note_on_c, 9, 64, 0
15, 6386, Note_on_c, 9, 38, 0
15, 6387, Note_on_c, 9, 42, 0
15, 6420, Note_on_c, 9, 44, 108
15, 6421, Note_on_c, 9, 70, 126
15, 6421, Note_on_c, 9, 54, 126
15, 6422, Note_on_c, 9, 64, 106
15, 6435, Note_on_c, 9, 64, 0
15, 6443, Note_on_c, 9, 44, 0
15, 6443, Note_on_c, 9, 70, 0
15, 6443, Note_on_c, 9, 54, 0
15, 6450, Note_on_c, 9, 63, 127
15, 6462, Note_on_c, 9, 63, 0
15, 6480, Note_on_c, 9, 36, 127
15, 6480, Note_on_c, 9, 42, 124
15, 6481, Note_on_c, 9, 70, 98
15, 6494, Note_on_c, 9, 70, 0
15, 6498, Note_on_c, 9, 36, 0
15, 6505, Note_on_c, 9, 42, 0
15, 6510, Note_on_c, 9, 63, 127
15, 6521, Note_on_c, 9, 63, 0
15, 6540, Note_on_c, 9, 44, 109
15, 6540, Note_on_c, 9, 46, 127
15, 6541, Note_on_c, 9, 54, 124
15, 6541, Note_on_c, 9, 70, 126
15, 6542, Note_on_c, 9, 64, 115
15, 6552, Note_on_c, 9, 64, 0
15, 6554, Note_on_c, 9, 46, 0
15, 6558, Note_on_c, 9, 70, 0
15, 6562, Note_on_c, 9, 54, 0
15, 6563, Note_on_c, 9, 44, 0
15, 6600, Note_on_c, 9, 36, 127
15, 6600, Note_on_c, 9, 38, 127
15, 6600, Note_on_c, 9, 44, 100
15, 6601, Note_on_c, 9, 70, 105
15, 6601, Note_on_c, 9, 42, 127
15, 6601, Note_on_c, 9, 64, 108
15, 6614, Note_on_c, 9, 44, 0
15, 6616, Note_on_c, 9, 36, 0
15, 6617, Note_on_c, 9, 70, 0
15, 6619, Note_on_c, 9, 42, 0
15, 6619, Note_on_c, 9, 64, 0
15, 6625, Note_on_c, 9, 38, 0
15, 6660, Note_on_c, 9, 44, 100
15, 6661, Note_on_c, 9, 70, 126
15, 6661, Note_on_c, 9, 54, 124
15, 6662, Note_on_c, 9, 62, 120
15, 6670, Note_on_c, 9, 62, 0
15, 6677, Note_on_c, 9, 70, 0
15, 6680, Note_on_c, 9, 44, 0
15, 6681, Note_on_c, 9, 54, 0
15, 6690, Note_on_c, 9, 62, 125
15, 6706, Note_on_c, 9, 62, 0
15, 6720, Note_on_c, 9, 36, 127
15, 6721, Note_on_c, 9, 42, 124
15, 6722, Note_on_c, 9, 63, 127
15, 6722, Note_on_c, 9, 70, 105
15, 6735, Note_on_c, 9, 70, 0
15, 6735, Note_on_c, 9, 36, 0
15, 6737, Note_on_c, 9, 63, 0
15, 6737, Note_on_c, 9, 42, 0
15, 6780, Note_on_c, 9, 44, 102
15, 6781, Note_on_c, 9, 54, 127
15, 6782, Note_on_c, 9, 70, 126
15, 6782, Note_on_c, 9, 63, 118
15, 6790, Note_on_c, 9, 63, 0
15, 6797, Note_on_c, 9, 70, 0
15, 6798, Note_on_c, 9, 54, 0
15, 6798, Note_on_c, 9, 44, 0
15, 6840, Note_on_c, 9, 38, 127
15, 6840, Note_on_c, 9, 36, 127
15, 6841, Note_on_c, 9, 70, 102
15, 6841, Note_on_c, 9, 64, 118
15, 6841, Note_on_c, 9, 42, 123
15, 6857, Note_on_c, 9, 70, 0
15, 6858, Note_on_c, 9, 36, 0
15, 6859, Note_on_c, 9, 42, 0
15, 6859, Note_on_c, 9, 64, 0
15, 6868, Note_on_c, 9, 38, 0
15, 6900, Note_on_c, 9, 44, 105
15, 6901, Note_on_c, 9, 70, 122
15, 6902, Note_on_c, 9, 54, 123
15, 6902, Note_on_c, 9, 64, 115
15, 6915, Note_on_c, 9, 64, 0
15, 6918, Note_on_c, 9, 70, 0
15, 6922, Note_on_c, 9, 54, 0
15, 6923, Note_on_c, 9, 44, 0
15, 6930, Note_on_c, 9, 63, 127
15, 6942, Note_on_c, 9, 63, 0
15, 6960, Note_on_c, 9, 36, 127
15, 6961, Note_on_c, 9, 70, 105
15, 6961, Note_on_c, 9, 42, 121
15, 6976, Note_on_c, 9, 70, 0
15, 6978, Note_on_c, 9, 36, 0
15, 6984, Note_on_c, 9, 42, 0
15, 6990, Note_on_c, 9, 63, 127
15, 7002, Note_on_c, 9, 63, 0
15, 7020, Note_on_c, 9, 44, 99
15, 7020, Note_on_c, 9, 46, 127
15, 7021, Note_on_c, 9, 70, 123
15, 7022, Note_on_c, 9, 54, 123
15, 7022, Note_on_c, 9, 64, 116
15, 7033, Note_on_c, 9, 64, 0
15, 7034, Note_on_c, 9, 46, 0
15, 7034, Note_on_c, 9, 54, 0
15, 7036, Note_on_c, 9, 70, 0
15, 7046, Note_on_c, 9, 44, 0
15, 7080, Note_on_c, 9, 36, 127
15, 7080, Note_on_c, 9, 42, 126
15, 7080, Note_on_c, 9, 38, 127
15, 7080, Note_on_c, 9, 44, 100
15, 7081, Note_on_c, 9, 70, 105
15, 7081, Note_on_c, 9, 64, 116
15, 7093, Note_on_c, 9, 64, 0
15, 7094, Note_on_c, 9, 44, 0
15, 7097, Note_on_c, 9, 70, 0
15, 7100, Note_on_c, 9, 36, 0
15, 7103, Note_on_c, 9, 42, 0
15, 7113, Note_on_c, 9, 38, 0
15, 7140, Note_on_c, 9, 44, 114
15, 7141, Note_on_c, 9, 54, 124
15, 7141, Note_on_c, 9, 70, 124
15, 7142, Note_on_c, 9, 62, 127
15, 7157, Note_on_c, 9, 70, 0
15, 7158, Note_on_c, 9, 62, 0
15, 7158, Note_on_c, 9, 44, 0
15, 7162, Note_on_c, 9, 54, 0
15, 7170, Note_on_c, 9, 62, 125
15, 7190, Note_on_c, 9, 62, 0
15, 7200, Note_on_c, 9, 36, 127
15, 7201, Note_on_c, 9, 42, 123
15, 7202, Note_on_c, 9, 63, 120
15, 7202, Note_on_c, 9, 70, 110
15, 7207, Note_on_c, 9, 63, 0
15, 7215, Note_on_c, 9, 70, 0
15, 7215, Note_on_c, 9, 36, 0
15, 7224, Note_on_c, 9, 42, 0
15, 7260, Note_on_c, 9, 44, 106
15, 7261, Note_on_c, 9, 70, 123
15, 7262, Note_on_c, 9, 63, 124
15, 7262, Note_on_c, 9, 54, 126
15, 7272, Note_on_c, 9, 63, 0
15, 7277, Note_on_c, 9, 54, 0
15, 7277, Note_on_c, 9, 70, 0
15, 7282, Note_on_c, 9, 44, 0
15, 7320, Note_on_c, 9, 38, 127
15, 7320, Note_on_c, 9, 36, 127
15, 7321, Note_on_c, 9, 42, 121
15, 7321, Note_on_c, 9, 70, 110
15, 7321, Note_on_c, 9, 64, 127
15, 7337, Note_on_c, 9, 70, 0
15, 7339, Note_on_c, 9, 64, 0
15, 7340, Note_on_c, 9, 36, 0
15, 7346, Note_on_c, 9, 42, 0
15, 7350, Note_on_c, 9, 38, 0
15, 7380, Note_on_c, 9, 44, 114
15, 7381, Note_on_c, 9, 54, 126
15, 7381, Note_on_c, 9, 70, 123
15, 7382, Note_on_c, 9, 64, 95
15, 7397, Note_on_c, 9, 64, 0
15, 7398, Note_on_c, 9, 70, 0
15, 7403, Note_on_c, 9, 44, 0
15, 7404, Note_on_c, 9, 54, 0
15, 7410, Note_on_c, 9, 63, 124
15, 7421, Note_on_c, 9, 63, 0
15, 7440, Note_on_c, 9, 36, 127
15, 7440, Note_on_c, 9, 42, 120
15, 7441, Note_on_c, 9, 70, 106
15, 7454, Note_on_c, 9, 70, 0
15, 7462, Note_on_c, 9, 36, 0
15, 7465, Note_on_c, 9, 42, 0
15, 7470, Note_on_c, 9, 63, 118
15, 7481, Note_on_c, 9, 63, 0
15, 7500, Note_on_c, 9, 44, 90
15, 7500, Note_on_c, 9, 46, 127
15, 7501, Note_on_c, 9, 70, 116
15, 7501, Note_on_c, 9, 54, 124
15, 7502, Note_on_c, 9, 64, 110
15, 7512, Note_on_c, 9, 64, 0
15, 7514, Note_on_c, 9, 46, 0
15, 7517, Note_on_c, 9, 54, 0
15, 7517, Note_on_c, 9, 70, 0
15, 7523, Note_on_c, 9, 44, 0
15, 7560, Note_on_c, 9, 42, 123
15, 7560, Note_on_c, 9, 38, 127
15, 7560, Note_on_c, 9, 36, 127
15, 7560, Note_on_c, 9, 44, 100
15, 7561, Note_on_c, 9, 70, 109
15, 7561, Note_on_c, 9, 64, 113
15, 7574, Note_on_c, 9, 44, 0
15, 7577, Note_on_c, 9, 70, 0
15, 7578, Note_on_c, 9, 36, 0
15, 7578, Note_on_c, 9, 38, 0
15, 7579, Note_on_c, 9, 64, 0
15, 7583, Note_on_c, 9, 42, 0
15, 7620, Note_on_c, 9, 44, 106
15, 7621, Note_on_c, 9, 54, 123
15, 7622, Note_on_c, 9, 62, 124
15, 7622, Note_on_c, 9, 70, 116
15, 7636, Note_on_c, 9, 44, 0
15, 7637, Note_on_c, 9, 54, 0
15, 7637, Note_on_c, 9, 70, 0
15, 7638, Note_on_c, 9, 62, 0
15, 7650, Note_on_c, 9, 62, 118
15, 7670, Note_on_c, 9, 62, 0
15, 7680, Note_on_c, 9, 36, 127
15, 7680, Note_on_c, 9, 42, 124
15, 7681, Note_on_c, 9, 63, 126
15, 7681, Note_on_c, 9, 70, 109
15, 7696, Note_on_c, 9, 70, 0
15, 7697, Note_on_c, 9, 63, 0
15, 7700, Note_on_c, 9, 36, 0
15, 7706, Note_on_c, 9, 42, 0
15, 7740, Note_on_c, 9, 44, 98
15, 7741, Note_on_c, 9, 70, 120
15, 7741, Note_on_c, 9, 63, 121
15, 7741, Note_on_c, 9, 54, 120
15, 7757, Note_on_c, 9, 63, 0
15, 7757, Note_on_c, 9, 70, 0
15, 7758, Note_on_c, 9, 54, 0
15, 7763, Note_on_c, 9, 44, 0
15, 7800, Note_on_c, 9, 36, 127
15, 7800, Note_on_c, 9, 38, 127
15, 7801, Note_on_c, 9, 70, 109
15, 7801, Note_on_c, 9, 42, 117
15, 7801, Note_on_c, 9, 64, 124
15, 7818, Note_on_c, 9, 70, 0
15, 7819, Note_on_c, 9, 42, 0
15, 7821, Note_on_c, 9, 64, 0
15, 7826, Note_on_c, 9, 36, 0
15, 7836, Note_on_c, 9, 38, 0
15, 7860, Note_on_c, 9, 44, 106
15, 7861, Note_on_c, 9, 70, 122
15, 7861, Note_on_c, 9, 54, 122
15, 7862, Note_on_c, 9, 63, 121
15, 7875, Note_on_c, 9, 63, 0
15, 7877, Note_on_c, 9, 70, 0
15, 7878, Note_on_c, 9, 54, 0
15, 7883, Note_on_c, 9, 44, 0
15, 7890, Note_on_c, 9, 63, 123
15, 7901, Note_on_c, 9, 63, 0
15, 7920, Note_on_c, 9, 36, 127
15, 7920, Note_on_c, 9, 42, 114
15, 7921, Note_on_c, 9, 70, 111
15, 7933, Note_on_c, 9, 70, 0
15, 7940, Note_on_c, 9, 42, 0
15, 7946, Note_on_c, 9, 36, 0
15, 7950, Note_on_c, 9, 63, 126
15, 7962, Note_on_c, 9, 63, 0
15, 7980, Note_on_c, 9, 44, 110
15, 7980, Note_on_c, 9, 46, 127
15, 7981, Note_on_c, 9, 54, 122
15, 7981, Note_on_c, 9, 70, 124
15, 7981, Note_on_c, 9, 64, 111
15, 7989, Note_on_c, 9, 70, 0
15, 7994, Note_on_c, 9, 46, 0
15, 7996, Note_on_c, 9, 54, 0
15, 7997, Note_on_c, 9, 64, 0
15, 8000, Note_on_c, 9, 44, 0
15, 8040, Note_on_c, 9, 38, 127
15, 8040, Note_on_c, 9, 36, 127
15, 8040, Note_on_c, 9, 44, 100
15, 8041, Note_on_c, 9, 70, 114
15, 8041, Note_on_c, 9, 42, 114
15, 8041, Note_on_c, 9, 64, 111
15, 8051, Note_on_c, 9, 70, 0
15, 8054, Note_on_c, 9, 44, 0
15, 8059, Note_on_c, 9, 64, 0
15, 8062, Note_on_c, 9, 42, 0
15, 8065, Note_on_c, 9, 38, 0
15, 8068, Note_on_c, 9, 36, 0
15, 8100, Note_on_c, 9, 44, 100
15, 8101, Note_on_c, 9, 54, 124
15, 8101, Note_on_c, 9, 70, 126
15, 8102, Note_on_c, 9, 62, 119
15, 8109, Note_on_c, 9, 70, 0
15, 8115, Note_on_c, 9, 44, 0
15, 8116, Note_on_c, 9, 54, 0
15, 8117, Note_on_c, 9, 62, 0
15, 8130, Note_on_c, 9, 62, 122
15, 8153, Note_on_c, 9, 62, 0
15, 8160, Note_on_c, 9, 36, 127
15, 8161, Note_on_c, 9, 70, 113
15, 8161, Note_on_c, 9, 42, 118
15, 8162, Note_on_c, 9, 63, 122
15, 8175, Note_on_c, 9, 63, 0
15, 8176, Note_on_c, 9, 36, 0
15, 8176, Note_on_c, 9, 70, 0
15, 8181, Note_on_c, 9, 42, 0
15, 8220, Note_on_c, 9, 44, 97
15, 8221, Note_on_c, 9, 54, 127
15, 8221, Note_on_c, 9, 70, 127
15, 8222, Note_on_c, 9, 63, 122
15, 8227, Note_on_c, 9, 63, 0
15, 8238, Note_on_c, 9, 54, 0
15, 8241, Note_on_c, 9, 70, 0
15, 8243, Note_on_c, 9, 44, 0
15, 8250, Note_on_c, 9, 65, 127
15, 8270, Note_on_c, 9, 65, 0
15, 8280, Note_on_c, 9, 38, 127
15, 8280, Note_on_c, 9, 36, 127
15, 8281, Note_on_c, 9, 64, 122
15, 8281, Note_on_c, 9, 70, 122
15, 8281, Note_on_c, 9, 65, 127
15, 8281, Note_on_c, 9, 42, 118
15, 8291, Note_on_c, 9, 70, 0
15, 8295, Note_on_c, 9, 36, 0
15, 8298, Note_on_c, 9, 42, 0
15, 8306, Note_on_c, 9, 38, 0
15, 8306, Note_on_c, 9, 64, 0
15, 8321, Note_on_c, 9, 65, 0
15, 8340, Note_on_c, 9, 44, 110
15, 8341, Note_on_c, 9, 54, 117
15, 8341, Note_on_c, 9, 70, 127
15, 8342, Note_on_c, 9, 63, 120
15, 8356, Note_on_c, 9, 54, 0
15, 8357, Note_on_c, 9, 63, 0
15, 8362, Note_on_c, 9, 70, 0
15, 8362, Note_on_c, 9, 44, 0
15, 8370, Note_on_c, 9, 63, 127
15, 8386, Note_on_c, 9, 63, 0
15, 8400, Note_on_c, 9, 36, 127
15, 8401, Note_on_c, 9, 42, 120
15, 8401, Note_on_c, 9, 70, 123
15, 8414, Note_on_c, 9, 70, 0
15, 8418, Note_on_c, 9, 36, 0
15, 8421, Note_on_c, 9, 42, 0
15, 8430, Note_on_c, 9, 63, 127
15, 8441, Note_on_c, 9, 63, 0
15, 8460, Note_on_c, 9, 44, 105
15, 8460, Note_on_c, 9, 46, 127
15, 8461, Note_on_c, 9, 64, 115
15, 8461, Note_on_c, 9, 65, 127
15, 8461, Note_on_c, 9, 54, 122
15, 8461, Note_on_c, 9, 70, 127
15, 8473, Note_on_c, 9, 65, 0
15, 8474, Note_on_c, 9, 46, 0
15, 8477, Note_on_c, 9, 64, 0
15, 8479, Note_on_c, 9, 54, 0
15, 8482, Note_on_c, 9, 70, 0
15, 8482, Note_on_c, 9, 44, 0
15, 8520, Note_on_c, 9, 36, 127
15, 8520, Note_on_c, 9, 38, 127
15, 8520, Note_on_c, 9, 44, 100
15, 8521, Note_on_c, 9, 64, 114
15, 8521, Note_on_c, 9, 70, 109
15, 8521, Note_on_c, 9, 65, 127
15, 8521, Note_on_c, 9, 42, 120
15, 8534, Note_on_c, 9, 44, 0
15, 8536, Note_on_c, 9, 36, 0
15, 8537, Note_on_c, 9, 70, 0
15, 8539, Note_on_c, 9, 64, 0
15, 8542, Note_on_c, 9, 42, 0
15, 8545, Note_on_c, 9, 38, 0
15, 8571, Note_on_c, 9, 65, 0
15, 8580, Note_on_c, 9, 66, 127
15, 8580, Note_on_c, 9, 44, 98
15, 8581, Note_on_c, 9, 70, 120
15, 8581, Note_on_c, 9, 54, 124
15, 8582, Note_on_c, 9, 62, 120
15, 8594, Note_on_c, 9, 70, 0
15, 8597, Note_on_c, 9, 62, 0
15, 8606, Note_on_c, 9, 54, 0
15, 8606, Note_on_c, 9, 44, 0
15, 8610, Note_on_c, 9, 62, 120
15, 8626, Note_on_c, 9, 62, 0
15, 8630, Note_on_c, 9, 66, 0
15, 8640, Note_on_c, 9, 36, 127
15, 8641, Note_on_c, 9, 42, 121
15, 8642, Note_on_c, 9, 49, 115
15, 8642, Note_on_c, 9, 63, 127
15, 8642, Note_on_c, 9, 70, 104
15, 8653, Note_on_c, 9, 49, 0
15, 8655, Note_on_c, 9, 36, 0
15, 8658, Note_on_c, 9, 63, 0
15, 8660, Note_on_c, 9, 70, 0
15, 8664, Note_on_c, 9, 42, 0
15, 8700, Note_on_c, 9, 44, 103
15, 8701, Note_on_c, 9, 63, 114
15, 8701, Note_on_c, 9, 70, 115
15, 8701, Note_on_c, 9, 54, 127
15, 8711, Note_on_c, 9, 63, 0
15, 8714, Note_on_c, 9, 70, 0
15, 8722, Note_on_c, 9, 44, 0
15, 8726, Note_on_c, 9, 54, 0
15, 8760, Note_on_c, 9, 38, 127
15, 8760, Note_on_c, 9, 36, 127
15, 8761, Note_on_c, 9, 70, 104
15, 8761, Note_on_c, 9, 64, 115
15, 8761, Note_on_c, 9, 42, 123
15, 8778, Note_on_c, 9, 36, 0
15, 8781, Note_on_c, 9, 70, 0
15, 8783, Note_on_c, 9, 64, 0
15, 8788, Note_on_c, 9, 38, 0
15, 8791, Note_on_c, 9, 42, 0
15, 8820, Note_on_c, 9, 44, 111
15, 8821, Note_on_c, 9, 54, 124
15, 8821, Note_on_c, 9, 70, 118
15, 8822, Note_on_c, 9, 63, 113
15, 8832, Note_on_c, 9, 63, 0
15, 8839, Note_on_c, 9, 70, 0
15, 8842, Note_on_c, 9, 44, 0
15, 8843, Note_on_c, 9, 54, 0
15, 8850, Note_on_c, 9, 63, 127
15, 8861, Note_on_c, 9, 63, 0
15, 8880, Note_on_c, 9, 42, 118
15, 8880, Note_on_c, 9, 36, 127
15, 8881, Note_on_c, 9, 70, 105
15, 8898, Note_on_c, 9, 36, 0
15, 8899, Note_on_c, 9, 70, 0
15, 8901, Note_on_c, 9, 42, 0
15, 8910, Note_on_c, 9, 63, 127
15, 8921, Note_on_c, 9, 63, 0
15, 8940, Note_on_c, 9, 44, 108
15, 8940, Note_on_c, 9, 46, 127
15, 8941, Note_on_c, 9, 64, 110
15, 8941, Note_on_c, 9, 54, 123
15, 8941, Note_on_c, 9, 70, 122
15, 8954, Note_on_c, 9, 46, 0
15, 8955, Note_on_c, 9, 44, 0
15, 8957, Note_on_c, 9, 64, 0
15, 8958, Note_on_c, 9, 54, 0
15, 8962, Note_on_c, 9, 70, 0
15, 9000, Note_on_c, 9, 36, 127
15, 9000, Note_on_c, 9, 38, 127
15, 9000, Note_on_c, 9, 44, 100
15, 9001, Note_on_c, 9, 42, 126
15, 9001, Note_on_c, 9, 70, 108
15, 9001, Note_on_c, 9, 64, 109
15, 9014, Note_on_c, 9, 44, 0
15, 9017, Note_on_c, 9, 70, 0
15, 9019, Note_on_c, 9, 64, 0
15, 9020, Note_on_c, 9, 36, 0
15, 9022, Note_on_c, 9, 42, 0
15, 9033, Note_on_c, 9, 38, 0
15, 9060, Note_on_c, 9, 44, 107
15, 9061, Note_on_c, 9, 70, 120
15, 9061, Note_on_c, 9, 54, 122
15, 9062, Note_on_c, 9, 62, 119
15, 9075, Note_on_c, 9, 62, 0
15, 9077, Note_on_c, 9, 70, 0
15, 9078, Note_on_c, 9, 44, 0
15, 9082, Note_on_c, 9, 54, 0
15, 9090, Note_on_c, 9, 62, 115
15, 9112, Note_on_c, 9, 62, 0
15, 9120, Note_on_c, 9, 42, 122
15, 9120, Note_on_c, 9, 36, 127
15, 9122, Note_on_c, 9, 63, 127
15, 9122, Note_on_c, 9, 70, 116
15, 9132, Note_on_c, 9, 63, 0
15, 9134, Note_on_c, 9, 70, 0
15, 9135, Note_on_c, 9, 36, 0
15, 9145, Note_on_c, 9, 42, 0
15, 9180, Note_on_c, 9, 44, 116
15, 9181, Note_on_c, 9, 70, 118
15, 9181, Note_on_c, 9, 63, 118
15, 9181, Note_on_c, 9, 54, 126
15, 9191, Note_on_c, 9, 63, 0
15, 9196, Note_on_c, 9, 70, 0
15, 9201, Note_on_c, 9, 54, 0
15, 9202, Note_on_c, 9, 44, 0
15, 9240, Note_on_c, 9, 38, 127
15, 9240, Note_on_c, 9, 36, 127
15, 9241, Note_on_c, 9, 42, 122
15, 9241, Note_on_c, 9, 64, 118
15, 9241, Note_on_c, 9, 70, 114
15, 9253, Note_on_c, 9, 64, 0
15, 9257, Note_on_c, 9, 70, 0
15, 9260, Note_on_c, 9, 36, 0
15, 9262, Note_on_c, 9, 42, 0
15, 9270, Note_on_c, 9, 38, 0
15, 9300, Note_on_c, 9, 44, 116
15, 9301, Note_on_c, 9, 54, 118
15, 9301, Note_on_c, 9, 70, 117
15, 9301, Note_on_c, 9, 63, 109
15, 9311, Note_on_c, 9, 63, 0
15, 9317, Note_on_c, 9, 70, 0
15, 9318, Note_on_c, 9, 44, 0
15, 9322, Note_on_c, 9, 54, 0
15, 9330, Note_on_c, 9, 63, 127
15, 9342, Note_on_c, 9, 63, 0
15, 9360, Note_on_c, 9, 36, 127
15, 9361, Note_on_c, 9, 70, 114
15, 9361, Note_on_c, 9, 42, 123
15, 9376, Note_on_c, 9, 70, 0
15, 9382, Note_on_c, 9, 36, 0
15, 9383, Note_on_c, 9, 42, 0
15, 9390, Note_on_c, 9, 63, 124
15, 9401, Note_on_c, 9, 63, 0
15, 9420, Note_on_c, 9, 44, 111
15, 9420, Note_on_c, 9, 46, 127
15, 9421, Note_on_c, 9, 70, 118
15, 9421, Note_on_c, 9, 54, 124
15, 9422, Note_on_c, 9, 64, 114
15, 9433, Note_on_c, 9, 64, 0
15, 9434, Note_on_c, 9, 46, 0
15, 9434, Note_on_c, 9, 54, 0
15, 9436, Note_on_c, 9, 70, 0
15, 9438, Note_on_c, 9, 44, 0
15, 9480, Note_on_c, 9, 38, 127
15, 9480, Note_on_c, 9, 36, 127
15, 9480, Note_on_c, 9, 44, 100
15, 9481, Note_on_c, 9, 42, 123
15, 9481, Note_on_c, 9, 64, 118
15, 9481, Note_on_c, 9, 70, 111
15, 9494, Note_on_c, 9, 44, 0
15, 9496, Note_on_c, 9, 64, 0
15, 9497, Note_on_c, 9, 70, 0
15, 9498, Note_on_c, 9, 36, 0
15, 9498, Note_on_c, 9, 38, 0
15, 9502, Note_on_c, 9, 42, 0
15, 9540, Note_on_c, 9, 44, 112
15, 9541, Note_on_c, 9, 54, 118
15, 9541, Note_on_c, 9, 70, 117
15, 9542, Note_on_c, 9, 62, 122
15, 9556, Note_on_c, 9, 70, 0
15, 9557, Note_on_c, 9, 62, 0
15, 9558, Note_on_c, 9, 44, 0
15, 9561, Note_on_c, 9, 54, 0
15, 9570, Note_on_c, 9, 62, 125
15, 9590, Note_on_c, 9, 62, 0
15, 9601, Note_on_c, 9, 36, 127
15, 9601, Note_on_c, 9, 42, 121
15, 9602, Note_on_c, 9, 70, 109
15, 9602, Note_on_c, 9, 63, 127
15, 9610, Note_on_c, 9, 63, 0
15, 9614, Note_on_c, 9, 70, 0
15, 9619, Note_on_c, 9, 36, 0
15, 9623, Note_on_c, 9, 42, 0
15, 9660, Note_on_c, 9, 44, 106
15, 9661, Note_on_c, 9, 70, 120
15, 9661, Note_on_c, 9, 54, 123
15, 9662, Note_on_c, 9, 63, 124
15, 9665, Note_on_c, 9, 63, 0
15, 9674, Note_on_c, 9, 54, 0
15, 9678, Note_on_c, 9, 44, 0
15, 9682, Note_on_c, 9, 70, 0
15, 9720, Note_on_c, 9, 36, 127
15, 9720, Note_on_c, 9, 38, 127
15, 9721, Note_on_c, 9, 42, 120
15, 9721, Note_on_c, 9, 70, 106
15, 9721, Note_on_c, 9, 64, 122
15, 9733, Note_on_c, 9, 64, 0
15, 9736, Note_on_c, 9, 70, 0
15, 9739, Note_on_c, 9, 42, 0
15, 9746, Note_on_c, 9, 36, 0
15, 9756, Note_on_c, 9, 38, 0
15, 9780, Note_on_c, 9, 44, 113
15, 9781, Note_on_c, 9, 70, 117
15, 9781, Note_on_c, 9, 54, 121
15, 9782, Note_on_c, 9, 63, 118
15, 9787, Note_on_c, 9, 63, 0
15, 9794, Note_on_c, 9, 70, 0
15, 9801, Note_on_c, 9, 54, 0
15, 9802, Note_on_c, 9, 44, 0
15, 9810, Note_on_c, 9, 63, 127
15, 9826, Note_on_c, 9, 63, 0
15, 9840, Note_on_c, 9, 36, 127
15, 9841, Note_on_c, 9, 70, 110
15, 9841, Note_on_c, 9, 42, 115
15, 9859, Note_on_c, 9, 70, 0
15, 9863, Note_on_c, 9, 42, 0
15, 9866, Note_on_c, 9, 36, 0
15, 9870, Note_on_c, 9, 63, 123
15, 9882, Note_on_c, 9, 63, 0
15, 9900, Note_on_c, 9, 65, 127
15, 9900, Note_on_c, 9, 66, 127
15, 9900, Note_on_c, 9, 44, 118
15, 9900, Note_on_c, 9, 46, 127
15, 9901, Note_on_c, 9, 54, 123
15, 9901, Note_on_c, 9, 70, 118
15, 9902, Note_on_c, 9, 64, 117
15, 9914, Note_on_c, 9, 46, 0
15, 9916, Note_on_c, 9, 70, 0
15, 9917, Note_on_c, 9, 54, 0
15, 9917, Note_on_c, 9, 64, 0
15, 9926, Note_on_c, 9, 44, 0
15, 9950, Note_on_c, 9, 66, 0
15, 9950, Note_on_c, 9, 65, 0
15, 9960, Note_on_c, 9, 36, 127
15, 9960, Note_on_c, 9, 38, 127
15, 9960, Note_on_c, 9, 44, 100
15, 9961, Note_on_c, 9, 42, 120
15, 9961, Note_on_c, 9, 70, 110
15, 9974, Note_on_c, 9, 44, 0
15, 9977, Note_on_c, 9, 70, 0
15, 9978, Note_on_c, 9, 42, 0
15, 9985, Note_on_c, 9, 38, 0
15, 9988, Note_on_c, 9, 36, 0
15, 10020, Note_on_c, 9, 44, 112
15, 10021, Note_on_c, 9, 54, 122
15, 10021, Note_on_c, 9, 70, 122
15, 10022, Note_on_c, 9, 62, 124
15, 10027, Note_on_c, 9, 62, 0
15, 10037, Note_on_c, 9, 70, 0
15, 10038, Note_on_c, 9, 44, 0
15, 10042, Note_on_c, 9, 54, 0
15, 10050, Note_on_c, 9, 62, 119
15, 10070, Note_on_c, 9, 62, 0
15, 10081, Note_on_c, 9, 42, 121
15, 10081, Note_on_c, 9, 36, 127
15, 10082, Note_on_c, 9, 70, 111
15, 10096, Note_on_c, 9, 36, 0
15, 10098, Note_on_c, 9, 70, 0
15, 10103, Note_on_c, 9, 42, 0
15, 10140, Note_on_c, 9, 44, 105
15, 10141, Note_on_c, 9, 70, 122
15, 10141, Note_on_c, 9, 54, 120
15, 10142, Note_on_c, 9, 63, 122
15, 10150, Note_on_c, 9, 63, 0
15, 10156, Note_on_c, 9, 70, 0
15, 10161, Note_on_c, 9, 54, 0
15, 10161, Note_on_c, 9, 44, 0
15, 10200, Note_on_c, 9, 36, 127
15, 10200, Note_on_c, 9, 38, 127
15, 10201, Note_on_c, 9, 64, 117
15, 10201, Note_on_c, 9, 42, 120
15, 10201, Note_on_c, 9, 70, 109
15, 10213, Note_on_c, 9, 64, 0
15, 10215, Note_on_c, 9, 36, 0
15, 10216, Note_on_c, 9, 70, 0
15, 10223, Note_on_c, 9, 42, 0
15, 10226, Note_on_c, 9, 38, 0
15, 10260, Note_on_c, 9, 44, 113
15, 10261, Note_on_c, 9, 70, 120
15, 10261, Note_on_c, 9, 54, 123
15, 10261, Note_on_c, 9, 63, 120
15, 10266, Note_on_c, 9, 63, 0
15, 10277, Note_on_c, 9, 54, 0
15, 10277, Note_on_c, 9, 70, 0
15, 10278, Note_on_c, 9, 44, 0
15, 10290, Note_on_c, 9, 63, 124
15, 10301, Note_on_c, 9, 63, 0
15, 10320, Note_on_c, 9, 36, 127
15, 10321, Note_on_c, 9, 70, 112
15, 10321, Note_on_c, 9, 42, 120
15, 10336, Note_on_c, 9, 70, 0
15, 10338, Note_on_c, 9, 36, 0
15, 10342, Note_on_c, 9, 42, 0
15, 10350, Note_on_c, 9, 63, 126
15, 10361, Note_on_c, 9, 63, 0
15, 10380, Note_on_c, 9, 44, 111
15, 10380, Note_on_c, 9, 46, 127
15, 10381, Note_on_c, 9, 54, 120
15, 10381, Note_on_c, 9, 70, 124
15, 10382, Note_on_c, 9, 64, 117
15, 10394, Note_on_c, 9, 46, 0
15, 10398, Note_on_c, 9, 70, 0
15, 10398, Note_on_c, 9, 44, 0
15, 10398, Note_on_c, 9, 54, 0
15, 10403, Note_on_c, 9, 64, 0
15, 10440, Note_on_c, 9, 36, 127
15, 10440, Note_on_c, 9, 44, 100
15, 10441, Note_on_c, 9, 64, 114
15, 10441, Note_on_c, 9, 70, 107
15, 10441, Note_on_c, 9, 38, 127
15, 10441, Note_on_c, 9, 42, 124
15, 10454, Note_on_c, 9, 44, 0
15, 10456, Note_on_c, 9, 36, 0
15, 10457, Note_on_c, 9, 70, 0
15, 10461, Note_on_c, 9, 64, 0
15, 10462, Note_on_c, 9, 42, 0
15, 10464, Note_on_c, 9, 38, 0
15, 10500, Note_on_c, 9, 44, 116
15, 10501, Note_on_c, 9, 70, 118
15, 10501, Note_on_c, 9, 62, 124
15, 10501, Note_on_c, 9, 54, 122
15, 10514, Note_on_c, 9, 70, 0
15, 10517, Note_on_c, 9, 62, 0
15, 10518, Note_on_c, 9, 44, 0
15, 10522, Note_on_c, 9, 54, 0
15, 10530, Note_on_c, 9, 62, 116
15, 10553, Note_on_c, 9, 62, 0
15, 10561, Note_on_c, 9, 36, 127
15, 10561, Note_on_c, 9, 42, 124
15, 10562, Note_on_c, 9, 70, 105
15, 10562, Note_on_c, 9, 63, 126
15, 10574, Note_on_c, 9, 36, 0
15, 10575, Note_on_c, 9, 70, 0
15, 10579, Note_on_c, 9, 63, 0
15, 10582, Note_on_c, 9, 42, 0
15, 10620, Note_on_c, 9, 44, 122
15, 10621, Note_on_c, 9, 54, 123
15, 10622, Note_on_c, 9, 63, 123
15, 10622, Note_on_c, 9, 70, 122
15, 10635, Note_on_c, 9, 63, 0
15, 10638, Note_on_c, 9, 44, 0
15, 10640, Note_on_c, 9, 70, 0
15, 10642, Note_on_c, 9, 54, 0
15, 10680, Note_on_c, 9, 36, 127
15, 10681, Note_on_c, 9, 64, 115
15, 10681, Note_on_c, 9, 42, 123
15, 10681, Note_on_c, 9, 70, 106
15, 10681, Note_on_c, 9, 38, 127
15, 10696, Note_on_c, 9, 70, 0
15, 10698, Note_on_c, 9, 36, 0
15, 10702, Note_on_c, 9, 42, 0
15, 10703, Note_on_c, 9, 64, 0
15, 10708, Note_on_c, 9, 38, 0
15, 10740, Note_on_c, 9, 44, 108
15, 10741, Note_on_c, 9, 54, 120
15, 10741, Note_on_c, 9, 70, 120
15, 10742, Note_on_c, 9, 63, 120
15, 10750, Note_on_c, 9, 63, 0
15, 10754, Note_on_c, 9, 70, 0
15, 10758, Note_on_c, 9, 44, 0
15, 10761, Note_on_c, 9, 54, 0
15, 10770, Note_on_c, 9, 63, 127
15, 10781, Note_on_c, 9, 63, 0
15, 10800, Note_on_c, 9, 36, 127
15, 10801, Note_on_c, 9, 70, 108
15, 10801, Note_on_c, 9, 42, 127
15, 10816, Note_on_c, 9, 70, 0
15, 10818, Note_on_c, 9, 36, 0
15, 10819, Note_on_c, 9, 42, 0
15, 10830, Note_on_c, 9, 63, 122
15, 10841, Note_on_c, 9, 63, 0
15, 10860, Note_on_c, 9, 44, 113
15, 10860, Note_on_c, 9, 46, 127
15, 10861, Note_on_c, 9, 70, 122
15, 10861, Note_on_c, 9, 54, 121
15, 10862, Note_on_c, 9, 64, 120
15, 10874, Note_on_c, 9, 46, 0
15, 10877, Note_on_c, 9, 64, 0
15, 10877, Note_on_c, 9, 70, 0
15, 10878, Note_on_c, 9, 44, 0
15, 10881, Note_on_c, 9, 54, 0
15, 10920, Note_on_c, 9, 42, 127
15, 10920, Note_on_c, 9, 36, 127
15, 10920, Note_on_c, 9, 38, 127
15, 10920, Note_on_c, 9, 44, 100
15, 10921, Note_on_c, 9, 64, 118
15, 10921, Note_on_c, 9, 70, 110
15, 10934, Note_on_c, 9, 44, 0
15, 10937, Note_on_c, 9, 70, 0
15, 10938, Note_on_c, 9, 64, 0
15, 10940, Note_on_c, 9, 36, 0
15, 10943, Note_on_c, 9, 42, 0
15, 10953, Note_on_c, 9, 38, 0
15, 10980, Note_on_c, 9, 44, 116
15, 10981, Note_on_c, 9, 54, 123
15, 10981, Note_on_c, 9, 70, 118
15, 10982, Note_on_c, 9, 62, 124
15, 10994, Note_on_c, 9, 70, 0
15, 10999, Note_on_c, 9, 62, 0
15, 11000, Note_on_c, 9, 44, 0
15, 11001, Note_on_c, 9, 54, 0
15, 11010, Note_on_c, 9, 62, 124
15, 11033, Note_on_c, 9, 62, 0
15, 11040, Note_on_c, 9, 36, 127
15, 11041, Note_on_c, 9, 42, 124
15, 11042, Note_on_c, 9, 70, 109
15, 11042, Note_on_c, 9, 63, 124
15, 11055, Note_on_c, 9, 70, 0
15, 11055, Note_on_c, 9, 36, 0
15, 11059, Note_on_c, 9, 63, 0
15, 11061, Note_on_c, 9, 42, 0
15, 11100, Note_on_c, 9, 44, 116
15, 11101, Note_on_c, 9, 70, 120
15, 11102, Note_on_c, 9, 54, 124
15, 11102, Note_on_c, 9, 63, 127
15, 11117, Note_on_c, 9, 63, 0
15, 11117, Note_on_c, 9, 54, 0
15, 11117, Note_on_c, 9, 70, 0
15, 11122, Note_on_c, 9, 44, 0
15, 11160, Note_on_c, 9, 36, 127
15, 11160, Note_on_c, 9, 38, 127
15, 11161, Note_on_c, 9, 42, 122
15, 11161, Note_on_c, 9, 64, 122
15, 11161, Note_on_c, 9, 70, 109
15, 11177, Note_on_c, 9, 70, 0
15, 11180, Note_on_c, 9, 36, 0
15, 11182, Note_on_c, 9, 42, 0
15, 11184, Note_on_c, 9, 64, 0
15, 11190, Note_on_c, 9, 38, 0
15, 11220, Note_on_c, 9, 44, 114
15, 11221, Note_on_c, 9, 70, 118
15, 11221, Note_on_c, 9, 54, 126
15, 11222, Note_on_c, 9, 63, 117
15, 11232, Note_on_c, 9, 63, 0
15, 11237, Note_on_c, 9, 54, 0
15, 11237, Note_on_c, 9, 70, 0
15, 11238, Note_on_c, 9, 44, 0
15, 11250, Note_on_c, 9, 63, 123
15, 11262, Note_on_c, 9, 63, 0
15, 11280, Note_on_c, 9, 36, 127
15, 11280, Note_on_c, 9, 42, 126
15, 11281, Note_on_c, 9, 70, 110
15, 11296, Note_on_c, 9, 70, 0
15, 11301, Note_on_c, 9, 42, 0
15, 11302, Note_on_c, 9, 36, 0
15, 11310, Note_on_c, 9, 63, 124
15, 11322, Note_on_c, 9, 63, 0
15, 11340, Note_on_c, 9, 44, 111
15, 11340, Note_on_c, 9, 46, 127
15, 11341, Note_on_c, 9, 54, 126
15, 11341, Note_on_c, 9, 70, 120
15, 11342, Note_on_c, 9, 64, 115
15, 11354, Note_on_c, 9, 46, 0
15, 11357, Note_on_c, 9, 70, 0
15, 11357, Note_on_c, 9, 64, 0
15, 11358, Note_on_c, 9, 44, 0
15, 11361, Note_on_c, 9, 54, 0
15, 11400, Note_on_c, 9, 36, 127
15, 11400, Note_on_c, 9, 38, 127
15, 11400, Note_on_c, 9, 44, 100
15, 11401, Note_on_c, 9, 42, 123
15, 11401, Note_on_c, 9, 70, 110
15, 11401, Note_on_c, 9, 64, 114
15, 11414, Note_on_c, 9, 44, 0
15, 11417, Note_on_c, 9, 70, 0
15, 11418, Note_on_c, 9, 36, 0
15, 11418, Note_on_c, 9, 38, 0
15, 11419, Note_on_c, 9, 64, 0
15, 11427, Note_on_c, 9, 42, 0
15, 11460, Note_on_c, 9, 44, 116
15, 11461, Note_on_c, 9, 54, 124
15, 11461, Note_on_c, 9, 70, 122
15, 11462, Note_on_c, 9, 62, 125
15, 11472, Note_on_c, 9, 62, 0
15, 11477, Note_on_c, 9, 70, 0
15, 11478, Note_on_c, 9, 54, 0
15, 11482, Note_on_c, 9, 44, 0
15, 11490, Note_on_c, 9, 62, 127
15, 11510, Note_on_c, 9, 62, 0
15, 11520, Note_on_c, 9, 36, 127
15, 11521, Note_on_c, 9, 42, 126
15, 11522, Note_on_c, 9, 63, 127
15, 11522, Note_on_c, 9, 70, 110
15, 11538, Note_on_c, 9, 70, 0
15, 11539, Note_on_c, 9, 63, 0
15, 11540, Note_on_c, 9, 36, 0
15, 11541, Note_on_c, 9, 42, 0
15, 11580, Note_on_c, 9, 44, 99
15, 11581, Note_on_c, 9, 70, 122
15, 11581, Note_on_c, 9, 54, 126
15, 11582, Note_on_c, 9, 63, 126
15, 11595, Note_on_c, 9, 63, 0
15, 11601, Note_on_c, 9, 54, 0
15, 11602, Note_on_c, 9, 70, 0
15, 11602, Note_on_c, 9, 44, 0
15, 11640, Note_on_c, 9, 38, 127
15, 11640, Note_on_c, 9, 36, 127
15, 11641, Note_on_c, 9, 70, 110
15, 11641, Note_on_c, 9, 42, 124
15, 11641, Note_on_c, 9, 64, 110
15, 11653, Note_on_c, 9, 64, 0
15, 11657, Note_on_c, 9, 70, 0
15, 11664, Note_on_c, 9, 42, 0
15, 11666, Note_on_c, 9, 36, 0
15, 11676, Note_on_c, 9, 38, 0
15, 11700, Note_on_c, 9, 44, 113
15, 11701, Note_on_c, 9, 63, 123
15, 11701, Note_on_c, 9, 54, 126
15, 11701, Note_on_c, 9, 70, 123
15, 11713, Note_on_c, 9, 63, 0
15, 11718, Note_on_c, 9, 44, 0
15, 11718, Note_on_c, 9, 54, 0
15, 11718, Note_on_c, 9, 70, 0
15, 11730, Note_on_c, 9, 63, 126
15, 11742, Note_on_c, 9, 63, 0
15, 11760, Note_on_c, 9, 36, 127
15, 11760, Note_on_c, 9, 42, 115
15, 11761, Note_on_c, 9, 70, 107
15, 11776, Note_on_c, 9, 70, 0
15, 11781, Note_on_c, 9, 42, 0
15, 11786, Note_on_c, 9, 36, 0
15, 11790, Note_on_c, 9, 64, 115
15, 11808, Note_on_c, 9, 64, 0
15, 11820, Note_on_c, 9, 44, 118
15, 11820, Note_on_c, 9, 46, 127
15, 11821, Note_on_c, 9, 70, 122
15, 11821, Note_on_c, 9, 54, 126
15, 11821, Note_on_c, 9, 64, 113
15, 11834, Note_on_c, 9, 46, 0
15, 11837, Note_on_c, 9, 64, 0
15, 11837, Note_on_c, 9, 70, 0
15, 11841, Note_on_c, 9, 54, 0
15, 11842, Note_on_c, 9, 44, 0
15, 11880, Note_on_c, 9, 38, 127
15, 11880, Note_on_c, 9, 36, 127
15, 11880, Note_on_c, 9, 44, 100
15, 11881, Note_on_c, 9, 42, 115
15, 11881, Note_on_c, 9, 64, 122
15, 11881, Note_on_c, 9, 70, 109
15, 11894, Note_on_c, 9, 64, 0
15, 11894, Note_on_c, 9, 44, 0
15, 11897, Note_on_c, 9, 70, 0
15, 11902, Note_on_c, 9, 42, 0
15, 11905, Note_on_c, 9, 38, 0
15, 11908, Note_on_c, 9, 36, 0
15, 11940, Note_on_c, 9, 44, 106
15, 11941, Note_on_c, 9, 54, 127
15, 11941, Note_on_c, 9, 70, 126
15, 11942, Note_on_c, 9, 62, 122
15, 11957, Note_on_c, 9, 70, 0
15, 11957, Note_on_c, 9, 54, 0
15, 11958, Note_on_c, 9, 44, 0
15, 11958, Note_on_c, 9, 62, 0
15, 11970, Note_on_c, 9, 63, 127
15, 11986, Note_on_c, 9, 63, 0
15, 12000, Note_on_c, 9, 36, 127
15, 12001, Note_on_c, 9, 42, 123
15, 12002, Note_on_c, 9, 63, 110
15, 12002, Note_on_c, 9, 70, 105
15, 12010, Note_on_c, 9, 63, 0
15, 12014, Note_on_c, 9, 70, 0
15, 12016, Note_on_c, 9, 36, 0
15, 12019, Note_on_c, 9, 42, 0
15, 12060, Note_on_c, 9, 44, 118
15, 12061, Note_on_c, 9, 63, 123
15, 12061, Note_on_c, 9, 70, 126
15, 12061, Note_on_c, 9, 54, 127
15, 12072, Note_on_c, 9, 63, 0
15, 12078, Note_on_c, 9, 44, 0
15, 12081, Note_on_c, 9, 70, 0
15, 12081, Note_on_c, 9, 54, 0
15, 12120, Note_on_c, 9, 36, 127
15, 12120, Note_on_c, 9, 38, 127
15, 12121, Note_on_c, 9, 42, 116
15, 12121, Note_on_c, 9, 64, 118
15, 12121, Note_on_c, 9, 70, 112
15, 12135, Note_on_c, 9, 36, 0
15, 12137, Note_on_c, 9, 70, 0
15, 12138, Note_on_c, 9, 42, 0
15, 12141, Note_on_c, 9, 64, 0
15, 12146, Note_on_c, 9, 38, 0
15, 12180, Note_on_c, 9, 66, 127
15, 12180, Note_on_c, 9, 44, 126
15, 12181, Note_on_c, 9, 54, 126
15, 12181, Note_on_c, 9, 70, 121
15, 12182, Note_on_c, 9, 63, 118
15, 12182, Note_on_c, 9, 65, 127
15, 12194, Note_on_c, 9, 65, 0
15, 12197, Note_on_c, 9, 54, 0
15, 12197, Note_on_c, 9, 70, 0
15, 12198, Note_on_c, 9, 44, 0
15, 12198, Note_on_c, 9, 63, 0
15, 12210, Note_on_c, 9, 63, 127
15, 12222, Note_on_c, 9, 63, 0
15, 12230, Note_on_c, 9, 66, 0
15, 12240, Note_on_c, 9, 42, 117
15, 12240, Note_on_c, 9, 36, 127
15, 12241, Note_on_c, 9, 70, 110
15, 12256, Note_on_c, 9, 42, 0
15, 12258, Note_on_c, 9, 36, 0
15, 12261, Note_on_c, 9, 70, 0
15, 12270, Note_on_c, 9, 63, 126
15, 12270, Note_on_c, 9, 65, 127
15, 12282, Note_on_c, 9, 63, 0
15, 12285, Note_on_c, 9, 66, 127
15, 12293, Note_on_c, 9, 65, 0
15, 12300, Note_on_c, 9, 66, 127
15, 12300, Note_on_c, 9, 44, 118
15, 12300, Note_on_c, 9, 46, 127
15, 12301, Note_on_c, 9, 64, 119
15, 12301, Note_on_c, 9, 54, 127
15, 12301, Note_on_c, 9, 70, 122
15, 12314, Note_on_c, 9, 46, 0
15, 12316, Note_on_c, 9, 64, 0
15, 12321, Note_on_c, 9, 54, 0
15, 12321, Note_on_c, 9, 70, 0
15, 12323, Note_on_c, 9, 44, 0
15, 12335, Note_on_c, 9, 66, 0
15, 12350, Note_on_c, 9, 66, 0
15, 12360, Note_on_c, 9, 36, 127
15, 12360, Note_on_c, 9, 38, 127
15, 12360, Note_on_c, 9, 44, 100
15, 12361, Note_on_c, 9, 42, 121
15, 12361, Note_on_c, 9, 65, 127
15, 12361, Note_on_c, 9, 64, 117
15, 12361, Note_on_c, 9, 70, 105
15, 12373, Note_on_c, 9, 64, 0
15, 12374, Note_on_c, 9, 44, 0
15, 12376, Note_on_c, 9, 36, 0
15, 12377, Note_on_c, 9, 70, 0
15, 12379, Note_on_c, 9, 42, 0
15, 12383, Note_on_c, 9, 65, 0
15, 12385, Note_on_c, 9, 38, 0
15, 12420, Note_on_c, 9, 65, 127
15, 12420, Note_on_c, 9, 44, 117
15, 12421, Note_on_c, 9, 70, 123
15, 12421, Note_on_c, 9, 54, 126
15, 12422, Note_on_c, 9, 62, 127
15, 12422, Note_on_c, 9, 66, 127
15, 12438, Note_on_c, 9, 54, 0
15, 12438, Note_on_c, 9, 70, 0
15, 12439, Note_on_c, 9, 62, 0
15, 12440, Note_on_c, 9, 44, 0
15, 12440, Note_on_c, 9, 66, 0
15, 12450, Note_on_c, 9, 62, 127
15, 12465, Note_on_c, 9, 62, 0
15, 12470, Note_on_c, 9, 65, 0
15, 12480, Note_on_c, 9, 42, 126
15, 12480, Note_on_c, 9, 36, 127
15, 12481, Note_on_c, 9, 70, 106
15, 12482, Note_on_c, 9, 49, 127
15, 12482, Note_on_c, 9, 63, 124
15, 12492, Note_on_c, 9, 63, 0
15, 12492, Note_on_c, 9, 70, 0
15, 12494, Note_on_c, 9, 49, 0
15, 12495, Note_on_c, 9, 36, 0
15, 12501, Note_on_c, 9, 42, 0
15, 12540, Note_on_c, 9, 44, 115
15, 12541, Note_on_c, 9, 70, 114
15, 12541, Note_on_c, 9, 63, 124
15, 12541, Note_on_c, 9, 54, 121
15, 12554, Note_on_c, 9, 70, 0
15, 12557, Note_on_c, 9, 63, 0
15, 12560, Note_on_c, 9, 44, 0
15, 12563, Note_on_c, 9, 54, 0
15, 12600, Note_on_c, 9, 38, 127
15, 12600, Note_on_c, 9, 36, 127
15, 12601, Note_on_c, 9, 42, 123
15, 12601, Note_on_c, 9, 70, 105
15, 12601, Note_on_c, 9, 64, 124
15, 12618, Note_on_c, 9, 36, 0
15, 12621, Note_on_c, 9, 70, 0
15, 12623, Note_on_c, 9, 64, 0
15, 12623, Note_on_c, 9, 42, 0
15, 12628, Note_on_c, 9, 38, 0
15, 12660, Note_on_c, 9, 44, 114
15, 12661, Note_on_c, 9, 63, 121
15, 12661, Note_on_c, 9, 70, 116
15, 12661, Note_on_c, 9, 54, 120
15, 12667, Note_on_c, 9, 63, 0
15, 12675, Note_on_c, 9, 44, 0
15, 12677, Note_on_c, 9, 70, 0
15, 12683, Note_on_c, 9, 54, 0
15, 12690, Note_on_c, 9, 63, 121
15, 12702, Note_on_c, 9, 63, 0
15, 12720, Note_on_c, 9, 36, 127
15, 12721, Note_on_c, 9, 42, 127
15, 12721, Note_on_c, 9, 70, 105
15, 12734, Note_on_c, 9, 70, 0
15, 12738, Note_on_c, 9, 36, 0
15, 12741, Note_on_c, 9, 42, 0
15, 12750, Note_on_c, 9, 63, 122
15, 12765, Note_on_c, 9, 63, 0
15, 12780, Note_on_c, 9, 44, 115
15, 12780, Note_on_c, 9, 46, 127
15, 12781, Note_on_c, 9, 54, 120
15, 12781, Note_on_c, 9, 70, 120
15, 12781, Note_on_c, 9, 64, 113
15, 12794, Note_on_c, 9, 46, 0
15, 12796, Note_on_c, 9, 64, 0
15, 12798, Note_on_c, 9, 44, 0
15, 12799, Note_on_c, 9, 70, 0
15, 12806, Note_on_c, 9, 54, 0
15, 12840, Note_on_c, 9, 38, 127
15, 12840, Note_on_c, 9, 36, 127
15, 12840, Note_on_c, 9, 44, 100
15, 12841, Note_on_c, 9, 64, 116
15, 12841, Note_on_c, 9, 70, 103
15, 12841, Note_on_c, 9, 42, 118
15, 12854, Note_on_c, 9, 44, 0
15, 12856, Note_on_c, 9, 70, 0
15, 12858, Note_on_c, 9, 64, 0
15, 12860, Note_on_c, 9, 36, 0
15, 12862, Note_on_c, 9, 42, 0
15, 12873, Note_on_c, 9, 38, 0
15, 12900, Note_on_c, 9, 44, 117
15, 12901, Note_on_c, 9, 54, 124
15, 12901, Note_on_c, 9, 70, 121
15, 12902, Note_on_c, 9, 62, 120
15, 12917, Note_on_c, 9, 62, 0
15, 12918, Note_on_c, 9, 70, 0
15, 12918, Note_on_c, 9, 44, 0
15, 12924, Note_on_c, 9, 54, 0
15, 12930, Note_on_c, 9, 62, 120
15, 12955, Note_on_c, 9, 62, 0
15, 12960, Note_on_c, 9, 36, 127
15, 12961, Note_on_c, 9, 42, 122
15, 12962, Note_on_c, 9, 63, 120
15, 12962, Note_on_c, 9, 70, 105
15, 12972, Note_on_c, 9, 63, 0
15, 12975, Note_on_c, 9, 36, 0
15, 12980, Note_on_c, 9, 70, 0
15, 12982, Note_on_c, 9, 42, 0
15, 13020, Note_on_c, 9, 44, 122
15, 13021, Note_on_c, 9, 70, 120
15, 13021, Note_on_c, 9, 54, 127
15, 13022, Note_on_c, 9, 63, 123
15, 13037, Note_on_c, 9, 63, 0
15, 13038, Note_on_c, 9, 70, 0
15, 13040, Note_on_c, 9, 44, 0
15, 13042, Note_on_c, 9, 54, 0
15, 13080, Note_on_c, 9, 36, 127
15, 13080, Note_on_c, 9, 38, 127
15, 13081, Note_on_c, 9, 42, 117
15, 13081, Note_on_c, 9, 64, 119
15, 13081, Note_on_c, 9, 70, 105
15, 13098, Note_on_c, 9, 70, 0
15, 13098, Note_on_c, 9, 42, 0
15, 13098, Note_on_c, 9, 64, 0
15, 13100, Note_on_c, 9, 36, 0
15, 13110, Note_on_c, 9, 38, 0
15, 13140, Note_on_c, 9, 44, 124
15, 13141, Note_on_c, 9, 70, 120
15, 13141, Note_on_c, 9, 54, 126
15, 13142, Note_on_c, 9, 63, 120
15, 13153, Note_on_c, 9, 63, 0
15, 13157, Note_on_c, 9, 70, 0
15, 13160, Note_on_c, 9, 44, 0
15, 13162, Note_on_c, 9, 54, 0
15, 13170, Note_on_c, 9, 63, 116
15, 13185, Note_on_c, 9, 63, 0
15, 13200, Note_on_c, 9, 42, 115
15, 13200, Note_on_c, 9, 36, 127
15, 13201, Note_on_c, 9, 70, 105
15, 13214, Note_on_c, 9, 70, 0
15, 13221, Note_on_c, 9, 42, 0
15, 13222, Note_on_c, 9, 36, 0
15, 13230, Note_on_c, 9, 63, 126
15, 13241, Note_on_c, 9, 63, 0
15, 13260, Note_on_c, 9, 44, 118
15, 13260, Note_on_c, 9, 46, 127
15, 13261, Note_on_c, 9, 54, 124
15, 13261, Note_on_c, 9, 70, 124
15, 13262, Note_on_c, 9, 64, 107
15, 13274, Note_on_c, 9, 46, 0
15, 13280, Note_on_c, 9, 64, 0
15, 13281, Note_on_c, 9, 70, 0
15, 13281, Note_on_c, 9, 54, 0
15, 13282, Note_on_c, 9, 44, 0
15, 13320, Note_on_c, 9, 38, 127
15, 13320, Note_on_c, 9, 36, 127
15, 13320, Note_on_c, 9, 44, 100
15, 13321, Note_on_c, 9, 63, 126
15, 13321, Note_on_c, 9, 42, 115
15, 13321, Note_on_c, 9, 70, 109
15, 13334, Note_on_c, 9, 44, 0
15, 13337, Note_on_c, 9, 70, 0
15, 13338, Note_on_c, 9, 38, 0
15, 13338, Note_on_c, 9, 36, 0
15, 13339, Note_on_c, 9, 63, 0
15, 13342, Note_on_c, 9, 42, 0
15, 13380, Note_on_c, 9, 44, 120
15, 13381, Note_on_c, 9, 70, 120
15, 13381, Note_on_c, 9, 54, 124
15, 13382, Note_on_c, 9, 62, 120
15, 13393, Note_on_c, 9, 62, 0
15, 13397, Note_on_c, 9, 54, 0
15, 13397, Note_on_c, 9, 70, 0
15, 13402, Note_on_c, 9, 44, 0
15, 13410, Note_on_c, 9, 62, 119
15, 13430, Note_on_c, 9, 62, 0
15, 13440, Note_on_c, 9, 42, 122
15, 13440, Note_on_c, 9, 36, 127
15, 13442, Note_on_c, 9, 63, 118
15, 13442, Note_on_c, 9, 70, 104
15, 13454, Note_on_c, 9, 70, 0
15, 13455, Note_on_c, 9, 63, 0
15, 13460, Note_on_c, 9, 36, 0
15, 13462, Note_on_c, 9, 42, 0
15, 13500, Note_on_c, 9, 44, 118
15, 13501, Note_on_c, 9, 70, 121
15, 13502, Note_on_c, 9, 63, 126
15, 13502, Note_on_c, 9, 54, 122
15, 13505, Note_on_c, 9, 63, 0
15, 13518, Note_on_c, 9, 44, 0
15, 13520, Note_on_c, 9, 54, 0
15, 13521, Note_on_c, 9, 70, 0
15, 13560, Note_on_c, 9, 38, 127
15, 13560, Note_on_c, 9, 36, 127
15, 13561, Note_on_c, 9, 70, 108
15, 13561, Note_on_c, 9, 64, 120
15, 13561, Note_on_c, 9, 42, 116
15, 13577, Note_on_c, 9, 70, 0
15, 13579, Note_on_c, 9, 64, 0
15, 13583, Note_on_c, 9, 42, 0
15, 13586, Note_on_c, 9, 36, 0
15, 13596, Note_on_c, 9, 38, 0
15, 13620, Note_on_c, 9, 44, 115
15, 13621, Note_on_c, 9, 63, 122
15, 13621, Note_on_c, 9, 54, 122
15, 13621, Note_on_c, 9, 70, 117
15, 13626, Note_on_c, 9, 63, 0
15, 13637, Note_on_c, 9, 70, 0
15, 13642, Note_on_c, 9, 54, 0
15, 13643, Note_on_c, 9, 44, 0
15, 13650, Note_on_c, 9, 63, 122
15, 13665, Note_on_c, 9, 63, 0
15, 13680, Note_on_c, 9, 36, 127
15, 13681, Note_on_c, 9, 42, 120
15, 13681, Note_on_c, 9, 70, 106
15, 13698, Note_on_c, 9, 70, 0
15, 13703, Note_on_c, 9, 42, 0
15, 13706, Note_on_c, 9, 36, 0
15, 13710, Note_on_c, 9, 63, 123
15, 13722, Note_on_c, 9, 63, 0
15, 13740, Note_on_c, 9, 44, 116
15, 13740, Note_on_c, 9, 46, 127
15, 13741, Note_on_c, 9, 54, 122
15, 13741, Note_on_c, 9, 70, 118
15, 13742, Note_on_c, 9, 64, 110
15, 13754, Note_on_c, 9, 46, 0
15, 13755, Note_on_c, 9, 64, 0
15, 13758, Note_on_c, 9, 70, 0
15, 13762, Note_on_c, 9, 44, 0
15, 13766, Note_on_c, 9, 54, 0
15, 13800, Note_on_c, 9, 42, 121
15, 13800, Note_on_c, 9, 38, 127
15, 13800, Note_on_c, 9, 36, 127
15, 13800, Note_on_c, 9, 44, 100
15, 13801, Note_on_c, 9, 64, 115
15, 13801, Note_on_c, 9, 70, 109
15, 13814, Note_on_c, 9, 64, 0
15, 13814, Note_on_c, 9, 44, 0
15, 13818, Note_on_c, 9, 70, 0
15, 13825, Note_on_c, 9, 38, 0
15, 13826, Note_on_c, 9, 42, 0
15, 13828, Note_on_c, 9, 36, 0
15, 13860, Note_on_c, 9, 44, 118
15, 13861, Note_on_c, 9, 70, 117
15, 13861, Note_on_c, 9, 54, 121
15, 13862, Note_on_c, 9, 62, 120
15, 13877, Note_on_c, 9, 62, 0
15, 13877, Note_on_c, 9, 70, 0
15, 13881, Note_on_c, 9, 54, 0
15, 13882, Note_on_c, 9, 44, 0
15, 13890, Note_on_c, 9, 62, 117
15, 13913, Note_on_c, 9, 62, 0
15, 13920, Note_on_c, 9, 36, 127
15, 13921, Note_on_c, 9, 42, 118
15, 13922, Note_on_c, 9, 70, 104
15, 13922, Note_on_c, 9, 63, 121
15, 13933, Note_on_c, 9, 63, 0
15, 13934, Note_on_c, 9, 70, 0
15, 13936, Note_on_c, 9, 36, 0
15, 13941, Note_on_c, 9, 42, 0
15, 13980, Note_on_c, 9, 44, 117
15, 13981, Note_on_c, 9, 70, 121
15, 13981, Note_on_c, 9, 54, 124
15, 13982, Note_on_c, 9, 63, 122
15, 13994, Note_on_c, 9, 70, 0
15, 13997, Note_on_c, 9, 63, 0
15, 14002, Note_on_c, 9, 44, 0
15, 14004, Note_on_c, 9, 54, 0
15, 14040, Note_on_c, 9, 36, 127
15, 14041, Note_on_c, 9, 70, 107
15, 14041, Note_on_c, 9, 64, 122
15, 14041, Note_on_c, 9, 38, 127
15, 14041, Note_on_c, 9, 42, 118
15, 14055, Note_on_c, 9, 36, 0
15, 14056, Note_on_c, 9, 70, 0
15, 14058, Note_on_c, 9, 64, 0
15, 14062, Note_on_c, 9, 42, 0
15, 14066, Note_on_c, 9, 38, 0
15, 14100, Note_on_c, 9, 44, 120
15, 14101, Note_on_c, 9, 54, 124
15, 14101, Note_on_c, 9, 70, 120
15, 14101, Note_on_c, 9, 63, 120
15, 14107, Note_on_c, 9, 63, 0
15, 14114, Note_on_c, 9, 70, 0
15, 14121, Note_on_c, 9, 54, 0
15, 14126, Note_on_c, 9, 44, 0
15, 14130, Note_on_c, 9, 63, 127
15, 14145, Note_on_c, 9, 63, 0
15, 14160, Note_on_c, 9, 42, 120
15, 14160, Note_on_c, 9, 36, 127
15, 14161, Note_on_c, 9, 70, 108
15, 14174, Note_on_c, 9, 70, 0
15, 14178, Note_on_c, 9, 36, 0
15, 14185, Note_on_c, 9, 42, 0
15, 14190, Note_on_c, 9, 63, 124
15, 14201, Note_on_c, 9, 63, 0
15, 14220, Note_on_c, 9, 44, 120
15, 14220, Note_on_c, 9, 46, 127
15, 14221, Note_on_c, 9, 64, 114
15, 14221, Note_on_c, 9, 70, 121
15, 14221, Note_on_c, 9, 54, 124
15, 14234, Note_on_c, 9, 46, 0
15, 14237, Note_on_c, 9, 70, 0
15, 14237, Note_on_c, 9, 64, 0
15, 14241, Note_on_c, 9, 54, 0
15, 14242, Note_on_c, 9, 44, 0
15, 14280, Note_on_c, 9, 42, 118
15, 14280, Note_on_c, 9, 38, 127
15, 14280, Note_on_c, 9, 36, 127
15, 14280, Note_on_c, 9, 44, 100
15, 14281, Note_on_c, 9, 70, 109
15, 14281, Note_on_c, 9, 64, 117
15, 14294, Note_on_c, 9, 44, 0
15, 14296, Note_on_c, 9, 70, 0
15, 14296, Note_on_c, 9, 36, 0
15, 14300, Note_on_c, 9, 42, 0
15, 14301, Note_on_c, 9, 64, 0
15, 14305, Note_on_c, 9, 38, 0
15, 14340, Note_on_c, 9, 44, 121
15, 14341, Note_on_c, 9, 62, 119
15, 14341, Note_on_c, 9, 70, 118
15, 14341, Note_on_c, 9, 54, 124
15, 14356, Note_on_c, 9, 62, 0
15, 14357, Note_on_c, 9, 70, 0
15, 14358, Note_on_c, 9, 44, 0
15, 14362, Note_on_c, 9, 54, 0
15, 14370, Note_on_c, 9, 62, 117
15, 14393, Note_on_c, 9, 62, 0
15, 14400, Note_on_c, 9, 36, 127
15, 14401, Note_on_c, 9, 42, 122
15, 14402, Note_on_c, 9, 70, 111
15, 14402, Note_on_c, 9, 63, 121
15, 14410, Note_on_c, 9, 63, 0
15, 14415, Note_on_c, 9, 70, 0
15, 14415, Note_on_c, 9, 36, 0
15, 14421, Note_on_c, 9, 42, 0
15, 14460, Note_on_c, 9, 44, 122
15, 14461, Note_on_c, 9, 70, 120
15, 14461, Note_on_c, 9, 54, 126
15, 14462, Note_on_c, 9, 63, 127
15, 14475, Note_on_c, 9, 63, 0
15, 14478, Note_on_c, 9, 70, 0
15, 14480, Note_on_c, 9, 44, 0
15, 14481, Note_on_c, 9, 54, 0
15, 14520, Note_on_c, 9, 36, 127
15, 14520, Note_on_c, 9, 38, 127
15, 14521, Note_on_c, 9, 42, 121
15, 14521, Note_on_c, 9, 64, 115
15, 14521, Note_on_c, 9, 70, 110
15, 14538, Note_on_c, 9, 64, 0
15, 14538, Note_on_c, 9, 36, 0
15, 14542, Note_on_c, 9, 70, 0
15, 14542, Note_on_c, 9, 42, 0
15, 14548, Note_on_c, 9, 38, 0
15, 14580, Note_on_c, 9, 44, 113
15, 14581, Note_on_c, 9, 70, 120
15, 14581, Note_on_c, 9, 63, 124
15, 14581, Note_on_c, 9, 54, 126
15, 14588, Note_on_c, 9, 63, 0
15, 14596, Note_on_c, 9, 44, 0
15, 14596, Note_on_c, 9, 70, 0
15, 14603, Note_on_c, 9, 54, 0
15, 14610, Note_on_c, 9, 63, 126
15, 14625, Note_on_c, 9, 63, 0
15, 14640, Note_on_c, 9, 36, 127
15, 14640, Note_on_c, 9, 42, 122
15, 14641, Note_on_c, 9, 70, 109
15, 14654, Note_on_c, 9, 70, 0
15, 14658, Note_on_c, 9, 36, 0
15, 14660, Note_on_c, 9, 42, 0
15, 14670, Note_on_c, 9, 63, 120
15, 14685, Note_on_c, 9, 63, 0
15, 14700, Note_on_c, 9, 44, 118
15, 14700, Note_on_c, 9, 46, 127
15, 14701, Note_on_c, 9, 54, 126
15, 14701, Note_on_c, 9, 70, 123
15, 14701, Note_on_c, 9, 64, 116
15, 14714, Note_on_c, 9, 46, 0
15, 14717, Note_on_c, 9, 64, 0
15, 14718, Note_on_c, 9, 44, 0
15, 14722, Note_on_c, 9, 54, 0
15, 14722, Note_on_c, 9, 70, 0
15, 14760, Note_on_c, 9, 38, 127
15, 14760, Note_on_c, 9, 36, 127
15, 14760, Note_on_c, 9, 44, 100
15, 14761, Note_on_c, 9, 70, 116
15, 14761, Note_on_c, 9, 64, 118
15, 14761, Note_on_c, 9, 42, 121
15, 14773, Note_on_c, 9, 70, 0
15, 14774, Note_on_c, 9, 44, 0
15, 14780, Note_on_c, 9, 36, 0
15, 14781, Note_on_c, 9, 64, 0
15, 14783, Note_on_c, 9, 42, 0
15, 14793, Note_on_c, 9, 38, 0
15, 14820, Note_on_c, 9, 44, 118
15, 14821, Note_on_c, 9, 62, 120
15, 14821, Note_on_c, 9, 70, 120
15, 14821, Note_on_c, 9, 54, 126
15, 14832, Note_on_c, 9, 70, 0
15, 14832, Note_on_c, 9, 62, 0
15, 14843, Note_on_c, 9, 44, 0
15, 14844, Note_on_c, 9, 54, 0
15, 14850, Note_on_c, 9, 62, 119
15, 14870, Note_on_c, 9, 62, 0
15, 14880, Note_on_c, 9, 36, 127
15, 14880, Note_on_c, 9, 42, 123
15, 14881, Note_on_c, 9, 70, 114
15, 14882, Note_on_c, 9, 63, 123
15, 14895, Note_on_c, 9, 36, 0
15, 14898, Note_on_c, 9, 63, 0
15, 14899, Note_on_c, 9, 70, 0
15, 14902, Note_on_c, 9, 42, 0
15, 14940, Note_on_c, 9, 44, 121
15, 14941, Note_on_c, 9, 54, 126
15, 14941, Note_on_c, 9, 70, 117
15, 14942, Note_on_c, 9, 63, 121
15, 14950, Note_on_c, 9, 63, 0
15, 14953, Note_on_c, 9, 70, 0
15, 14961, Note_on_c, 9, 54, 0
15, 14963, Note_on_c, 9, 44, 0
15, 15000, Note_on_c, 9, 38, 127
15, 15000, Note_on_c, 9, 36, 127
15, 15001, Note_on_c, 9, 64, 118
15, 15001, Note_on_c, 9, 70, 108
15, 15001, Note_on_c, 9, 42, 117
15, 15013, Note_on_c, 9, 64, 0
15, 15017, Note_on_c, 9, 70, 0
15, 15020, Note_on_c, 9, 36, 0
15, 15022, Note_on_c, 9, 42, 0
15, 15030, Note_on_c, 9, 38, 0
15, 15060, Note_on_c, 9, 44, 123
15, 15061, Note_on_c, 9, 54, 127
15, 15061, Note_on_c, 9, 63, 120
15, 15061, Note_on_c, 9, 70, 120
15, 15067, Note_on_c, 9, 63, 0
15, 15075, Note_on_c, 9, 44, 0
15, 15083, Note_on_c, 9, 54, 0
15, 15083, Note_on_c, 9, 70, 0
15, 15090, Note_on_c, 9, 63, 124
15, 15102, Note_on_c, 9, 63, 0
15, 15120, Note_on_c, 9, 36, 127
15, 15121, Note_on_c, 9, 42, 124
15, 15121, Note_on_c, 9, 70, 110
15, 15139, Note_on_c, 9, 70, 0
15, 15141, Note_on_c, 9, 42, 0
15, 15142, Note_on_c, 9, 36, 0
15, 15150, Note_on_c, 9, 63, 124
15, 15162, Note_on_c, 9, 63, 0
15, 15180, Note_on_c, 9, 44, 121
15, 15180, Note_on_c, 9, 46, 127
15, 15181, Note_on_c, 9, 70, 121
15, 15181, Note_on_c, 9, 54, 120
15, 15181, Note_on_c, 9, 64, 115
15, 15194, Note_on_c, 9, 70, 0
15, 15194, Note_on_c, 9, 46, 0
15, 15196, Note_on_c, 9, 64, 0
15, 15198, Note_on_c, 9, 44, 0
15, 15204, Note_on_c, 9, 54, 0
15, 15240, Note_on_c, 9, 38, 127
15, 15240, Note_on_c, 9, 36, 127
15, 15240, Note_on_c, 9, 44, 100
15, 15241, Note_on_c, 9, 64, 115
15, 15241, Note_on_c, 9, 42, 120
15, 15241, Note_on_c, 9, 70, 109
15, 15254, Note_on_c, 9, 44, 0
15, 15258, Note_on_c, 9, 38, 0
15, 15258, Note_on_c, 9, 36, 0
15, 15259, Note_on_c, 9, 64, 0
15, 15259, Note_on_c, 9, 42, 0
15, 15261, Note_on_c, 9, 70, 0
15, 15300, Note_on_c, 9, 44, 118
15, 15301, Note_on_c, 9, 54, 123
15, 15301, Note_on_c, 9, 70, 117
15, 15302, Note_on_c, 9, 62, 120
15, 15317, Note_on_c, 9, 62, 0
15, 15318, Note_on_c, 9, 44, 0
15, 15322, Note_on_c, 9, 70, 0
15, 15322, Note_on_c, 9, 54, 0
15, 15330, Note_on_c, 9, 62, 120
15, 15353, Note_on_c, 9, 62, 0
15, 15360, Note_on_c, 9, 36, 127
15, 15361, Note_on_c, 9, 42, 123
15, 15362, Note_on_c, 9, 63, 123
15, 15362, Note_on_c, 9, 70, 107
15, 15370, Note_on_c, 9, 63, 0
15, 15375, Note_on_c, 9, 70, 0
15, 15380, Note_on_c, 9, 36, 0
15, 15381, Note_on_c, 9, 42, 0
15, 15420, Note_on_c, 9, 44, 118
15, 15421, Note_on_c, 9, 70, 118
15, 15421, Note_on_c, 9, 54, 124
15, 15422, Note_on_c, 9, 63, 126
15, 15434, Note_on_c, 9, 70, 0
15, 15435, Note_on_c, 9, 63, 0
15, 15440, Note_on_c, 9, 44, 0
15, 15446, Note_on_c, 9, 54, 0
15, 15480, Note_on_c, 9, 36, 127
15, 15480, Note_on_c, 9, 38, 127
15, 15481, Note_on_c, 9, 70, 109
15, 15481, Note_on_c, 9, 64, 115
15, 15481, Note_on_c, 9, 42, 121
15, 15499, Note_on_c, 9, 42, 0
15, 15501, Note_on_c, 9, 70, 0
15, 15503, Note_on_c, 9, 64, 0
15, 15506, Note_on_c, 9, 36, 0
15, 15516, Note_on_c, 9, 38, 0
15, 15540, Note_on_c, 9, 44, 121
15, 15541, Note_on_c, 9, 54, 122
15, 15541, Note_on_c, 9, 70, 120
15, 15542, Note_on_c, 9, 63, 116
15, 15550, Note_on_c, 9, 63, 0
15, 15554, Note_on_c, 9, 70, 0
15, 15558, Note_on_c, 9, 44, 0
15, 15566, Note_on_c, 9, 54, 0
15, 15570, Note_on_c, 9, 63, 122
15, 15581, Note_on_c, 9, 63, 0
15, 15600, Note_on_c, 9, 42, 120
15, 15600, Note_on_c, 9, 36, 127
15, 15601, Note_on_c, 9, 70, 109
15, 15615, Note_on_c, 9, 42, 0
15, 15616, Note_on_c, 9, 70, 0
15, 15626, Note_on_c, 9, 36, 0
15, 15630, Note_on_c, 9, 63, 124
15, 15642, Note_on_c, 9, 63, 0
15, 15660, Note_on_c, 9, 44, 123
15, 15660, Note_on_c, 9, 46, 127
15, 15661, Note_on_c, 9, 54, 124
15, 15661, Note_on_c, 9, 70, 121
15, 15662, Note_on_c, 9, 64, 115
15, 15674, Note_on_c, 9, 46, 0
15, 15676, Note_on_c, 9, 44, 0
15, 15677, Note_on_c, 9, 64, 0
15, 15678, Note_on_c, 9, 70, 0
15, 15683, Note_on_c, 9, 54, 0
15, 15720, Note_on_c, 9, 38, 127
15, 15720, Note_on_c, 9, 36, 127
15, 15720, Note_on_c, 9, 44, 100
15, 15721, Note_on_c, 9, 64, 114
15, 15721, Note_on_c, 9, 42, 122
15, 15721, Note_on_c, 9, 70, 109
15, 15734, Note_on_c, 9, 44, 0
15, 15736, Note_on_c, 9, 70, 0
15, 15741, Note_on_c, 9, 64, 0
15, 15742, Note_on_c, 9, 42, 0
15, 15745, Note_on_c, 9, 38, 0
15, 15748, Note_on_c, 9, 36, 0
15, 15780, Note_on_c, 9, 44, 117
15, 15781, Note_on_c, 9, 54, 123
15, 15782, Note_on_c, 9, 62, 119
15, 15782, Note_on_c, 9, 70, 120
15, 15797, Note_on_c, 9, 70, 0
15, 15798, Note_on_c, 9, 62, 0
15, 15800, Note_on_c, 9, 44, 0
15, 15802, Note_on_c, 9, 54, 0
15, 15810, Note_on_c, 9, 62, 122
15, 15833, Note_on_c, 9, 62, 0
15, 15840, Note_on_c, 9, 36, 127
15, 15841, Note_on_c, 9, 42, 123
15, 15842, Note_on_c, 9, 70, 109
15, 15842, Note_on_c, 9, 63, 123
15, 15852, Note_on_c, 9, 63, 0
15, 15856, Note_on_c, 9, 36, 0
15, 15859, Note_on_c, 9, 70, 0
15, 15859, Note_on_c, 9, 42, 0
15, 15900, Note_on_c, 9, 44, 108
15, 15901, Note_on_c, 9, 54, 123
15, 15901, Note_on_c, 9, 70, 118
15, 15902, Note_on_c, 9, 63, 123
15, 15914, Note_on_c, 9, 70, 0
15, 15915, Note_on_c, 9, 63, 0
15, 15918, Note_on_c, 9, 44, 0
15, 15926, Note_on_c, 9, 54, 0
15, 15960, Note_on_c, 9, 42, 117
15, 15960, Note_on_c, 9, 38, 127
15, 15960, Note_on_c, 9, 36, 127
15, 15961, Note_on_c, 9, 70, 108
15, 15961, Note_on_c, 9, 64, 119
15, 15975, Note_on_c, 9, 36, 0
15, 15976, Note_on_c, 9, 42, 0
15, 15977, Note_on_c, 9, 70, 0
15, 15983, Note_on_c, 9, 64, 0
15, 15986, Note_on_c, 9, 38, 0
15, 16020, Note_on_c, 9, 44, 105
15, 16021, Note_on_c, 9, 70, 120
15, 16021, Note_on_c, 9, 54, 124
15, 16022, Note_on_c, 9, 63, 120
15, 16030, Note_on_c, 9, 63, 0
15, 16036, Note_on_c, 9, 70, 0
15, 16038, Note_on_c, 9, 44, 0
15, 16042, Note_on_c, 9, 54, 0
15, 16050, Note_on_c, 9, 63, 123
15, 16062, Note_on_c, 9, 63, 0
15, 16080, Note_on_c, 9, 36, 127
15, 16081, Note_on_c, 9, 42, 112
15, 16081, Note_on_c, 9, 70, 106
15, 16098, Note_on_c, 9, 70, 0
15, 16098, Note_on_c, 9, 36, 0
15, 16099, Note_on_c, 9, 42, 0
15, 16110, Note_on_c, 9, 63, 124
15, 16121, Note_on_c, 9, 63, 0
15, 16140, Note_on_c, 9, 44, 114
15, 16140, Note_on_c, 9, 46, 127
15, 16141, Note_on_c, 9, 70, 120
15, 16141, Note_on_c, 9, 54, 123
15, 16142, Note_on_c, 9, 64, 115
15, 16154, Note_on_c, 9, 46, 0
15, 16158, Note_on_c, 9, 64, 0
15, 16159, Note_on_c, 9, 70, 0
15, 16162, Note_on_c, 9, 44, 0
15, 16166, Note_on_c, 9, 54, 0
15, 16200, Note_on_c, 9, 38, 127
15, 16200, Note_on_c, 9, 36, 127
15, 16200, Note_on_c, 9, 44, 100
15, 16201, Note_on_c, 9, 64, 117
15, 16201, Note_on_c, 9, 42, 112
15, 16201, Note_on_c, 9, 70, 106
15, 16214, Note_on_c, 9, 44, 0
15, 16216, Note_on_c, 9, 36, 0
15, 16217, Note_on_c, 9, 70, 0
15, 16219, Note_on_c, 9, 64, 0
15, 16223, Note_on_c, 9, 42, 0
15, 16225, Note_on_c, 9, 38, 0
15, 16260, Note_on_c, 9, 44, 117
15, 16261, Note_on_c, 9, 70, 120
15, 16261, Note_on_c, 9, 54, 124
15, 16262, Note_on_c, 9, 62, 125
15, 16274, Note_on_c, 9, 70, 0
15, 16278, Note_on_c, 9, 62, 0
15, 16281, Note_on_c, 9, 54, 0
15, 16282, Note_on_c, 9, 44, 0
15, 16290, Note_on_c, 9, 62, 127
15, 16305, Note_on_c, 9, 62, 0
15, 16320, Note_on_c, 9, 36, 127
15, 16321, Note_on_c, 9, 42, 123
15, 16322, Note_on_c, 9, 63, 110
15, 16322, Note_on_c, 9, 70, 105
15, 16330, Note_on_c, 9, 63, 0
15, 16334, Note_on_c, 9, 70, 0
15, 16336, Note_on_c, 9, 36, 0
15, 16339, Note_on_c, 9, 42, 0
15, 16380, Note_on_c, 9, 44, 118
15, 16381, Note_on_c, 9, 63, 123
15, 16381, Note_on_c, 9, 70, 126
15, 16381, Note_on_c, 9, 54, 127
15, 16392, Note_on_c, 9, 63, 0
15, 16398, Note_on_c, 9, 44, 0
15, 16401, Note_on_c, 9, 70, 0
15, 16401, Note_on_c, 9, 54, 0
15, 16440, Note_on_c, 9, 36, 127
15, 16440, Note_on_c, 9, 38, 127
15, 16441, Note_on_c, 9, 42, 116
15, 16441, Note_on_c, 9, 64, 118
15, 16441, Note_on_c, 9, 70, 112
15, 16455, Note_on_c, 9, 36, 0
15, 16457, Note_on_c, 9, 70, 0
15, 16458, Note_on_c, 9, 42, 0
15, 16461, Note_on_c, 9, 64, 0
15, 16466, Note_on_c, 9, 38, 0
15, 16485, Note_on_c, 9, 66, 127
15, 16500, Note_on_c, 9, 44, 126
15, 16501, Note_on_c, 9, 54, 126
15, 16501, Note_on_c, 9, 70, 121
15, 16502, Note_on_c, 9, 63, 118
15, 16502, Note_on_c, 9, 65, 127
15, 16514, Note_on_c, 9, 65, 0
15, 16517, Note_on_c, 9, 54, 0
15, 16517, Note_on_c, 9, 70, 0
15, 16518, Note_on_c, 9, 44, 0
15, 16518, Note_on_c, 9, 63, 0
15, 16530, Note_on_c, 9, 63, 127
15, 16535, Note_on_c, 9, 66, 0
15, 16542, Note_on_c, 9, 63, 0
15, 16560, Note_on_c, 9, 65, 127
15, 16560, Note_on_c, 9, 42, 117
15, 16560, Note_on_c, 9, 36, 127
15, 16561, Note_on_c, 9, 70, 110
15, 16576, Note_on_c, 9, 42, 0
15, 16578, Note_on_c, 9, 36, 0
15, 16581, Note_on_c, 9, 70, 0
15, 16590, Note_on_c, 9, 63, 126
15, 16602, Note_on_c, 9, 63, 0
15, 16605, Note_on_c, 9, 65, 127
15, 16610, Note_on_c, 9, 65, 0
15, 16620, Note_on_c, 9, 66, 127
15, 16620, Note_on_c, 9, 44, 118
15, 16620, Note_on_c, 9, 46, 127
15, 16621, Note_on_c, 9, 64, 119
15, 16621, Note_on_c, 9, 54, 127
15, 16621, Note_on_c, 9, 70, 122
15, 16628, Note_on_c, 9, 65, 0
15, 16634, Note_on_c, 9, 46, 0
15, 16636, Note_on_c, 9, 64, 0
15, 16641, Note_on_c, 9, 54, 0
15, 16641, Note_on_c, 9, 70, 0
15, 16643, Note_on_c, 9, 44, 0
15, 16670, Note_on_c, 9, 66, 0
15, 16680, Note_on_c, 9, 36, 127
15, 16680, Note_on_c, 9, 38, 127
15, 16680, Note_on_c, 9, 44, 100
15, 16681, Note_on_c, 9, 42, 121
15, 16681, Note_on_c, 9, 65, 127
15, 16681, Note_on_c, 9, 64, 117
15, 16681, Note_on_c, 9, 70, 105
15, 16693, Note_on_c, 9, 64, 0
15, 16694, Note_on_c, 9, 44, 0
15, 16696, Note_on_c, 9, 36, 0
15, 16697, Note_on_c, 9, 70, 0
15, 16699, Note_on_c, 9, 42, 0
15, 16703, Note_on_c, 9, 65, 0
15, 16705, Note_on_c, 9, 38, 0
15, 16725, Note_on_c, 9, 66, 127
15, 16740, Note_on_c, 9, 44, 117
15, 16741, Note_on_c, 9, 70, 123
15, 16741, Note_on_c, 9, 54, 126
15, 16742, Note_on_c, 9, 62, 127
15, 16742, Note_on_c, 9, 66, 127
15, 16758, Note_on_c, 9, 54, 0
15, 16758, Note_on_c, 9, 70, 0
15, 16759, Note_on_c, 9, 62, 0
15, 16760, Note_on_c, 9, 44, 0
15, 16760, Note_on_c, 9, 66, 0
15, 16770, Note_on_c, 9, 62, 127
15, 16775, Note_on_c, 9, 66, 0
15, 16785, Note_on_c, 9, 62, 0
15, 16800, Note_on_c, 9, 42, 126
15, 16800, Note_on_c, 9, 36, 127
15, 16801, Note_on_c, 9, 70, 106
15, 16802, Note_on_c, 9, 49, 127
15, 16802, Note_on_c, 9, 63, 124
15, 16812, Note_on_c, 9, 63, 0
15, 16812, Note_on_c, 9, 70, 0
15, 16814, Note_on_c, 9, 49, 0
15, 16815, Note_on_c, 9, 36, 0
15, 16821, Note_on_c, 9, 42, 0
15, 16860, Note_on_c, 9, 44, 115
15, 16861, Note_on_c, 9, 70, 114
15, 16861, Note_on_c, 9, 63, 124
15, 16861, Note_on_c, 9, 54, 121
15, 16874, Note_on_c, 9, 70, 0
15, 16877, Note_on_c, 9, 63, 0
15, 16880, Note_on_c, 9, 44, 0
15, 16883, Note_on_c, 9, 54, 0
15, 16920, Note_on_c, 9, 38, 127
15, 16920, Note_on_c, 9, 36, 127
15, 16921, Note_on_c, 9, 42, 123
15, 16921, Note_on_c, 9, 70, 105
15, 16921, Note_on_c, 9, 64, 124
15, 16938, Note_on_c, 9, 36, 0
15, 16941, Note_on_c, 9, 70, 0
15, 16943, Note_on_c, 9, 64, 0
15, 16943, Note_on_c, 9, 42, 0
15, 16948, Note_on_c, 9, 38, 0
15, 16980, Note_on_c, 9, 44, 114
15, 16981, Note_on_c, 9, 63, 121
15, 16981, Note_on_c, 9, 70, 116
15, 16981, Note_on_c, 9, 54, 120
15, 16987, Note_on_c, 9, 63, 0
15, 16995, Note_on_c, 9, 44, 0
15, 16997, Note_on_c, 9, 70, 0
15, 17003, Note_on_c, 9, 54, 0
15, 17010, Note_on_c, 9, 63, 121
15, 17022, Note_on_c, 9, 63, 0
15, 17040, Note_on_c, 9, 36, 127
15, 17041, Note_on_c, 9, 42, 127
15, 17041, Note_on_c, 9, 70, 105
15, 17054, Note_on_c, 9, 70, 0
15, 17058, Note_on_c, 9, 36, 0
15, 17061, Note_on_c, 9, 42, 0
15, 17070, Note_on_c, 9, 63, 122
15, 17085, Note_on_c, 9, 63, 0
15, 17100, Note_on_c, 9, 44, 115
15, 17100, Note_on_c, 9, 46, 127
15, 17101, Note_on_c, 9, 54, 120
15, 17101, Note_on_c, 9, 70, 120
15, 17101, Note_on_c, 9, 64, 113
15, 17114, Note_on_c, 9, 46, 0
15, 17116, Note_on_c, 9, 64, 0
15, 17118, Note_on_c, 9, 44, 0
15, 17119, Note_on_c, 9, 70, 0
15, 17126, Note_on_c, 9, 54, 0
15, 17160, Note_on_c, 9, 38, 127
15, 17160, Note_on_c, 9, 36, 127
15, 17160, Note_on_c, 9, 44, 100
15, 17161, Note_on_c, 9, 64, 116
15, 17161, Note_on_c, 9, 70, 103
15, 17161, Note_on_c, 9, 42, 118
15, 17174, Note_on_c, 9, 44, 0
15, 17176, Note_on_c, 9, 70, 0
15, 17178, Note_on_c, 9, 64, 0
15, 17180, Note_on_c, 9, 36, 0
15, 17182, Note_on_c, 9, 42, 0
15, 17193, Note_on_c, 9, 38, 0
15, 17220, Note_on_c, 9, 44, 117
15, 17221, Note_on_c, 9, 54, 124
15, 17221, Note_on_c, 9, 70, 121
15, 17222, Note_on_c, 9, 62, 120
15, 17237, Note_on_c, 9, 62, 0
15, 17238, Note_on_c, 9, 70, 0
15, 17238, Note_on_c, 9, 44, 0
15, 17244, Note_on_c, 9, 54, 0
15, 17250, Note_on_c, 9, 62, 120
15, 17275, Note_on_c, 9, 62, 0
15, 17280, Note_on_c, 9, 36, 127
15, 17281, Note_on_c, 9, 42, 122
15, 17282, Note_on_c, 9, 63, 120
15, 17282, Note_on_c, 9, 70, 105
15, 17292, Note_on_c, 9, 63, 0
15, 17295, Note_on_c, 9, 36, 0
15, 17300, Note_on_c, 9, 70, 0
15, 17302, Note_on_c, 9, 42, 0
15, 17340, Note_on_c, 9, 44, 122
15, 17341, Note_on_c, 9, 70, 120
15, 17341, Note_on_c, 9, 54, 127
15, 17342, Note_on_c, 9, 63, 123
15, 17357, Note_on_c, 9, 63, 0
15, 17358, Note_on_c, 9, 70, 0
15, 17360, Note_on_c, 9, 44, 0
15, 17362, Note_on_c, 9, 54, 0
15, 17400, Note_on_c, 9, 36, 127
15, 17400, Note_on_c, 9, 38, 127
15, 17401, Note_on_c, 9, 42, 117
15, 17401, Note_on_c, 9, 64, 119
15, 17401, Note_on_c, 9, 70, 105
15, 17418, Note_on_c, 9, 70, 0
15, 17418, Note_on_c, 9, 42, 0
15, 17418, Note_on_c, 9, 64, 0
15, 17420, Note_on_c, 9, 36, 0
15, 17430, Note_on_c, 9, 38, 0
15, 17460, Note_on_c, 9, 44, 124
15, 17461, Note_on_c, 9, 70, 120
15, 17461, Note_on_c, 9, 54, 126
15, 17462, Note_on_c, 9, 63, 120
15, 17473, Note_on_c, 9, 63, 0
15, 17477, Note_on_c, 9, 70, 0
15, 17480, Note_on_c, 9, 44, 0
15, 17482, Note_on_c, 9, 54, 0
15, 17490, Note_on_c, 9, 63, 116
15, 17505, Note_on_c, 9, 63, 0
15, 17520, Note_on_c, 9, 42, 115
15, 17520, Note_on_c, 9, 36, 127
15, 17521, Note_on_c, 9, 70, 105
15, 17534, Note_on_c, 9, 70, 0
15, 17541, Note_on_c, 9, 42, 0
15, 17542, Note_on_c, 9, 36, 0
15, 17550, Note_on_c, 9, 63, 126
15, 17561, Note_on_c, 9, 63, 0
15, 17580, Note_on_c, 9, 66, 127
15, 17580, Note_on_c, 9, 44, 118
15, 17580, Note_on_c, 9, 46, 127
15, 17581, Note_on_c, 9, 54, 124
15, 17581, Note_on_c, 9, 70, 124
15, 17582, Note_on_c, 9, 64, 107
15, 17594, Note_on_c, 9, 46, 0
15, 17600, Note_on_c, 9, 64, 0
15, 17601, Note_on_c, 9, 54, 0
15, 17601, Note_on_c, 9, 70, 0
15, 17602, Note_on_c, 9, 44, 0
15, 17603, Note_on_c, 9, 66, 0
15, 17640, Note_on_c, 9, 38, 127
15, 17640, Note_on_c, 9, 36, 127
15, 17640, Note_on_c, 9, 44, 100
15, 17641, Note_on_c, 9, 63, 126
15, 17641, Note_on_c, 9, 42, 115
15, 17641, Note_on_c, 9, 70, 109
15, 17654, Note_on_c, 9, 44, 0
15, 17657, Note_on_c, 9, 70, 0
15, 17658, Note_on_c, 9, 38, 0
15, 17658, Note_on_c, 9, 36, 0
15, 17659, Note_on_c, 9, 63, 0
15, 17662, Note_on_c, 9, 42, 0
15, 17700, Note_on_c, 9, 44, 120
15, 17701, Note_on_c, 9, 70, 120
15, 17701, Note_on_c, 9, 54, 124
15, 17702, Note_on_c, 9, 62, 120
15, 17713, Note_on_c, 9, 62, 0
15, 17717, Note_on_c, 9, 54, 0
15, 17717, Note_on_c, 9, 70, 0
15, 17722, Note_on_c, 9, 44, 0
15, 17730, Note_on_c, 9, 62, 119
15, 17750, Note_on_c, 9, 62, 0
15, 17760, Note_on_c, 9, 42, 122
15, 17760, Note_on_c, 9, 36, 127
15, 17762, Note_on_c, 9, 63, 118
15, 17762, Note_on_c, 9, 70, 104
15, 17774, Note_on_c, 9, 70, 0
15, 17775, Note_on_c, 9, 63, 0
15, 17780, Note_on_c, 9, 36, 0
15, 17782, Note_on_c, 9, 42, 0
15, 17820, Note_on_c, 9, 44, 118
15, 17821, Note_on_c, 9, 70, 121
15, 17822, Note_on_c, 9, 63, 126
15, 17822, Note_on_c, 9, 54, 122
15, 17825, Note_on_c, 9, 63, 0
15, 17838, Note_on_c, 9, 44, 0
15, 17840, Note_on_c, 9, 54, 0
15, 17841, Note_on_c, 9, 70, 0
15, 17880, Note_on_c, 9, 38, 127
15, 17880, Note_on_c, 9, 36, 127
15, 17881, Note_on_c, 9, 70, 108
15, 17881, Note_on_c, 9, 64, 120
15, 17881, Note_on_c, 9, 42, 116
15, 17897, Note_on_c, 9, 70, 0
15, 17899, Note_on_c, 9, 64, 0
15, 17903, Note_on_c, 9, 42, 0
15, 17906, Note_on_c, 9, 36, 0
15, 17916, Note_on_c, 9, 38, 0
15, 17940, Note_on_c, 9, 44, 115
15, 17941, Note_on_c, 9, 63, 122
15, 17941, Note_on_c, 9, 54, 122
15, 17941, Note_on_c, 9, 70, 117
15, 17946, Note_on_c, 9, 63, 0
15, 17957, Note_on_c, 9, 70, 0
15, 17962, Note_on_c, 9, 54, 0
15, 17963, Note_on_c, 9, 44, 0
15, 17970, Note_on_c, 9, 63, 122
15, 17985, Note_on_c, 9, 63, 0
15, 18000, Note_on_c, 9, 36, 127
15, 18001, Note_on_c, 9, 42, 120
15, 18001, Note_on_c, 9, 70, 106
15, 18018, Note_on_c, 9, 70, 0
15, 18023, Note_on_c, 9, 42, 0
15, 18026, Note_on_c, 9, 36, 0
15, 18030, Note_on_c, 9, 63, 123
15, 18042, Note_on_c, 9, 63, 0
15, 18060, Note_on_c, 9, 44, 116
15, 18060, Note_on_c, 9, 46, 127
15, 18061, Note_on_c, 9, 54, 122
15, 18061, Note_on_c, 9, 70, 118
15, 18062, Note_on_c, 9, 64, 110
15, 18074, Note_on_c, 9, 46, 0
15, 18075, Note_on_c, 9, 64, 0
15, 18078, Note_on_c, 9, 70, 0
15, 18082, Note_on_c, 9, 44, 0
15, 18086, Note_on_c, 9, 54, 0
15, 18120, Note_on_c, 9, 42, 121
15, 18120, Note_on_c, 9, 38, 127
15, 18120, Note_on_c, 9, 36, 127
15, 18120, Note_on_c, 9, 44, 100
15, 18121, Note_on_c, 9, 64, 115
15, 18121, Note_on_c, 9, 70, 109
15, 18134, Note_on_c, 9, 64, 0
15, 18134, Note_on_c, 9, 44, 0
15, 18138, Note_on_c, 9, 70, 0
15, 18145, Note_on_c, 9, 38, 0
15, 18146, Note_on_c, 9, 42, 0
15, 18148, Note_on_c, 9, 36, 0
15, 18180, Note_on_c, 9, 44, 118
15, 18181, Note_on_c, 9, 70, 117
15, 18181, Note_on_c, 9, 54, 121
15, 18182, Note_on_c, 9, 62, 120
15, 18197, Note_on_c, 9, 62, 0
15, 18197, Note_on_c, 9, 70, 0
15, 18201, Note_on_c, 9, 54, 0
15, 18202, Note_on_c, 9, 44, 0
15, 18210, Note_on_c, 9, 62, 117
15, 18233, Note_on_c, 9, 62, 0
15, 18240, Note_on_c, 9, 36, 127
15, 18241, Note_on_c, 9, 42, 118
15, 18242, Note_on_c, 9, 70, 104
15, 18242, Note_on_c, 9, 63, 121
15, 18253, Note_on_c, 9, 63, 0
15, 18254, Note_on_c, 9, 70, 0
15, 18256, Note_on_c, 9, 36, 0
15, 18261, Note_on_c, 9, 42, 0
15, 18300, Note_on_c, 9, 65, 127
15, 18300, Note_on_c, 9, 44, 117
15, 18301, Note_on_c, 9, 70, 121
15, 18301, Note_on_c, 9, 54, 124
15, 18302, Note_on_c, 9, 63, 122
15, 18314, Note_on_c, 9, 70, 0
15, 18317, Note_on_c, 9, 63, 0
15, 18322, Note_on_c, 9, 44, 0
15, 18323, Note_on_c, 9, 65, 0
15, 18324, Note_on_c, 9, 54, 0
15, 18360, Note_on_c, 9, 36, 127
15, 18361, Note_on_c, 9, 70, 107
15, 18361, Note_on_c, 9, 64, 122
15, 18361, Note_on_c, 9, 38, 127
15, 18361, Note_on_c, 9, 42, 118
15, 18375, Note_on_c, 9, 36, 0
15, 18376, Note_on_c, 9, 70, 0
15, 18378, Note_on_c, 9, 64, 0
15, 18382, Note_on_c, 9, 42, 0
15, 18386, Note_on_c, 9, 38, 0
15, 18420, Note_on_c, 9, 44, 120
15, 18421, Note_on_c, 9, 54, 124
15, 18421, Note_on_c, 9, 70, 120
15, 18421, Note_on_c, 9, 63, 120
15, 18427, Note_on_c, 9, 63, 0
15, 18434, Note_on_c, 9, 70, 0
15, 18441, Note_on_c, 9, 54, 0
15, 18446, Note_on_c, 9, 44, 0
15, 18450, Note_on_c, 9, 63, 127
15, 18465, Note_on_c, 9, 63, 0
15, 18480, Note_on_c, 9, 42, 120
15, 18480, Note_on_c, 9, 36, 127
15, 18481, Note_on_c, 9, 70, 108
15, 18494, Note_on_c, 9, 70, 0
15, 18498, Note_on_c, 9, 36, 0
15, 18505, Note_on_c, 9, 42, 0
15, 18510, Note_on_c, 9, 63, 124
15, 18521, Note_on_c, 9, 63, 0
15, 18540, Note_on_c, 9, 44, 120
15, 18540, Note_on_c, 9, 46, 127
15, 18541, Note_on_c, 9, 64, 114
15, 18541, Note_on_c, 9, 70, 121
15, 18541, Note_on_c, 9, 54, 124
15, 18554, Note_on_c, 9, 46, 0
15, 18557, Note_on_c, 9, 70, 0
15, 18557, Note_on_c, 9, 64, 0
15, 18561, Note_on_c, 9, 54, 0
15, 18562, Note_on_c, 9, 44, 0
15, 18585, Note_on_c, 9, 65, 127
15, 18600, Note_on_c, 9, 65, 127
15, 18600, Note_on_c, 9, 66, 127
15, 18600, Note_on_c, 9, 42, 118
15, 18600, Note_on_c, 9, 38, 127
15, 18600, Note_on_c, 9, 36, 127
15, 18600, Note_on_c, 9, 44, 100
15, 18601, Note_on_c, 9, 70, 109
15, 18601, Note_on_c, 9, 64, 117
15, 18608, Note_on_c, 9, 65, 0
15, 18614, Note_on_c, 9, 44, 0
15, 18616, Note_on_c, 9, 70, 0
15, 18616, Note_on_c, 9, 36, 0
15, 18620, Note_on_c, 9, 42, 0
15, 18621, Note_on_c, 9, 64, 0
15, 18623, Note_on_c, 9, 65, 0
15, 18623, Note_on_c, 9, 66, 0
15, 18625, Note_on_c, 9, 38, 0
15, 18660, Note_on_c, 9, 65, 127
15, 18660, Note_on_c, 9, 66, 127
15, 18660, Note_on_c, 9, 44, 121
15, 18661, Note_on_c, 9, 62, 119
15, 18661, Note_on_c, 9, 70, 118
15, 18661, Note_on_c, 9, 54, 124
15, 18676, Note_on_c, 9, 62, 0
15, 18677, Note_on_c, 9, 70, 0
15, 18678, Note_on_c, 9, 44, 0
15, 18682, Note_on_c, 9, 54, 0
15, 18683, Note_on_c, 9, 65, 0
15, 18683, Note_on_c, 9, 66, 0
15, 18690, Note_on_c, 9, 62, 117
15, 18713, Note_on_c, 9, 62, 0
15, 18720, Note_on_c, 9, 36, 127
15, 18721, Note_on_c, 9, 42, 122
15, 18722, Note_on_c, 9, 70, 111
15, 18722, Note_on_c, 9, 63, 121
15, 18730, Note_on_c, 9, 63, 0
15, 18735, Note_on_c, 9, 70, 0
15, 18735, Note_on_c, 9, 36, 0
15, 18741, Note_on_c, 9, 42, 0
15, 18780, Note_on_c, 9, 44, 122
15, 18781, Note_on_c, 9, 70, 120
15, 18781, Note_on_c, 9, 54, 126
15, 18782, Note_on_c, 9, 63, 127
15, 18795, Note_on_c, 9, 63, 0
15, 18798, Note_on_c, 9, 70, 0
15, 18800, Note_on_c, 9, 44, 0
15, 18801, Note_on_c, 9, 54, 0
15, 18840, Note_on_c, 9, 36, 127
15, 18840, Note_on_c, 9, 38, 127
15, 18841, Note_on_c, 9, 42, 121
15, 18841, Note_on_c, 9, 64, 115
15, 18841, Note_on_c, 9, 70, 110
15, 18858, Note_on_c, 9, 64, 0
15, 18858, Note_on_c, 9, 36, 0
15, 18862, Note_on_c, 9, 70, 0
15, 18862, Note_on_c, 9, 42, 0
15, 18868, Note_on_c, 9, 38, 0
15, 18900, Note_on_c, 9, 44, 113
15, 18901, Note_on_c, 9, 70, 120
15, 18901, Note_on_c, 9, 63, 124
15, 18901, Note_on_c, 9, 54, 126
15, 18908, Note_on_c, 9, 63, 0
15, 18916, Note_on_c, 9, 44, 0
15, 18916, Note_on_c, 9, 70, 0
15, 18923, Note_on_c, 9, 54, 0
15, 18930, Note_on_c, 9, 63, 126
15, 18945, Note_on_c, 9, 63, 0
15, 18960, Note_on_c, 9, 36, 127
15, 18960, Note_on_c, 9, 42, 122
15, 18961, Note_on_c, 9, 70, 109
15, 18974, Note_on_c, 9, 70, 0
15, 18978, Note_on_c, 9, 36, 0
15, 18980, Note_on_c, 9, 42, 0
15, 18990, Note_on_c, 9, 63, 120
15, 19005, Note_on_c, 9, 63, 0
15, 19020, Note_on_c, 9, 44, 118
15, 19020, Note_on_c, 9, 46, 127
15, 19021, Note_on_c, 9, 54, 126
15, 19021, Note_on_c, 9, 70, 123
15, 19021, Note_on_c, 9, 64, 116
15, 19034, Note_on_c, 9, 46, 0
15, 19037, Note_on_c, 9, 64, 0
15, 19038, Note_on_c, 9, 44, 0
15, 19042, Note_on_c, 9, 54, 0
15, 19042, Note_on_c, 9, 70, 0
15, 19080, Note_on_c, 9, 38, 127
15, 19080, Note_on_c, 9, 36, 127
15, 19080, Note_on_c, 9, 44, 100
15, 19081, Note_on_c, 9, 70, 116
15, 19081, Note_on_c, 9, 64, 118
15, 19081, Note_on_c, 9, 42, 121
15, 19093, Note_on_c, 9, 70, 0
15, 19094, Note_on_c, 9, 44, 0
15, 19100, Note_on_c, 9, 36, 0
15, 19101, Note_on_c, 9, 64, 0
15, 19103, Note_on_c, 9, 42, 0
15, 19113, Note_on_c, 9, 38, 0
15, 19140, Note_on_c, 9, 44, 118
15, 19141, Note_on_c, 9, 62, 120
15, 19141, Note_on_c, 9, 70, 120
15, 19141, Note_on_c, 9, 54, 126
15, 19152, Note_on_c, 9, 70, 0
15, 19152, Note_on_c, 9, 62, 0
15, 19163, Note_on_c, 9, 44, 0
15, 19164, Note_on_c, 9, 54, 0
15, 19170, Note_on_c, 9, 62, 119
15, 19190, Note_on_c, 9, 62, 0
15, 19200, Note_on_c, 9, 36, 127
15, 19200, Note_on_c, 9, 42, 123
15, 19201, Note_on_c, 9, 70, 114
15, 19202, Note_on_c, 9, 63, 123
15, 19215, Note_on_c, 9, 36, 0
15, 19218, Note_on_c, 9, 63, 0
15, 19219, Note_on_c, 9, 70, 0
15, 19222, Note_on_c, 9, 42, 0
15, 19260, Note_on_c, 9, 44, 121
15, 19261, Note_on_c, 9, 54, 126
15, 19261, Note_on_c, 9, 70, 117
15, 19262, Note_on_c, 9, 63, 121
15, 19270, Note_on_c, 9, 63, 0
15, 19273, Note_on_c, 9, 70, 0
15, 19281, Note_on_c, 9, 54, 0
15, 19283, Note_on_c, 9, 44, 0
15, 19320, Note_on_c, 9, 38, 127
15, 19320, Note_on_c, 9, 36, 127
15, 19321, Note_on_c, 9, 64, 118
15, 19321, Note_on_c, 9, 70, 108
15, 19321, Note_on_c, 9, 42, 117
15, 19333, Note_on_c, 9, 64, 0
15, 19337, Note_on_c, 9, 70, 0
15, 19340, Note_on_c, 9, 36, 0
15, 19342, Note_on_c, 9, 42, 0
15, 19350, Note_on_c, 9, 38, 0
15, 19380, Note_on_c, 9, 44, 123
15, 19381, Note_on_c, 9, 54, 127
15, 19381, Note_on_c, 9, 63, 120
15, 19381, Note_on_c, 9, 70, 120
15, 19387, Note_on_c, 9, 63, 0
15, 19395, Note_on_c, 9, 44, 0
15, 19403, Note_on_c, 9, 54, 0
15, 19403, Note_on_c, 9, 70, 0
15, 19410, Note_on_c, 9, 63, 124
15, 19422, Note_on_c, 9, 63, 0
15, 19440, Note_on_c, 9, 36, 127
15, 19441, Note_on_c, 9, 42, 124
15, 19441, Note_on_c, 9, 70, 110
15, 19459, Note_on_c, 9, 70, 0
15, 19461, Note_on_c, 9, 42, 0
15, 19462, Note_on_c, 9, 36, 0
15, 19470, Note_on_c, 9, 63, 124
15, 19482, Note_on_c, 9, 63, 0
15, 19500, Note_on_c, 9, 44, 121
15, 19500, Note_on_c, 9, 46, 127
15, 19501, Note_on_c, 9, 70, 121
15, 19501, Note_on_c, 9, 54, 120
15, 19501, Note_on_c, 9, 64, 115
15, 19514, Note_on_c, 9, 70, 0
15, 19514, Note_on_c, 9, 46, 0
15, 19516, Note_on_c, 9, 64, 0
15, 19518, Note_on_c, 9, 44, 0
15, 19524, Note_on_c, 9, 54, 0
15, 19560, Note_on_c, 9, 38, 127
15, 19560, Note_on_c, 9, 36, 127
15, 19560, Note_on_c, 9, 44, 100
15, 19561, Note_on_c, 9, 64, 115
15, 19561, Note_on_c, 9, 42, 120
15, 19561, Note_on_c, 9, 70, 109
15, 19574, Note_on_c, 9, 44, 0
15, 19578, Note_on_c, 9, 38, 0
15, 19578, Note_on_c, 9, 36, 0
15, 19579, Note_on_c, 9, 64, 0
15, 19579, Note_on_c, 9, 42, 0
15, 19581, Note_on_c, 9, 70, 0
15, 19620, Note_on_c, 9, 44, 118
15, 19621, Note_on_c, 9, 54, 123
15, 19621, Note_on_c, 9, 70, 117
15, 19622, Note_on_c, 9, 62, 120
15, 19637, Note_on_c, 9, 62, 0
15, 19638, Note_on_c, 9, 44, 0
15, 19642, Note_on_c, 9, 70, 0
15, 19642, Note_on_c, 9, 54, 0
15, 19650, Note_on_c, 9, 62, 120
15, 19673, Note_on_c, 9, 62, 0
15, 19680, Note_on_c, 9, 36, 127
15, 19681, Note_on_c, 9, 42, 123
15, 19682, Note_on_c, 9, 63, 123
15, 19682, Note_on_c, 9, 70, 107
15, 19690, Note_on_c, 9, 63, 0
15, 19695, Note_on_c, 9, 70, 0
15, 19700, Note_on_c, 9, 36, 0
15, 19701, Note_on_c, 9, 42, 0
15, 19740, Note_on_c, 9, 44, 118
15, 19741, Note_on_c, 9, 70, 118
15, 19741, Note_on_c, 9, 54, 124
15, 19742, Note_on_c, 9, 63, 126
15, 19754, Note_on_c, 9, 70, 0
15, 19755, Note_on_c, 9, 63, 0
15, 19760, Note_on_c, 9, 44, 0
15, 19766, Note_on_c, 9, 54, 0
15, 19800, Note_on_c, 9, 36, 127
15, 19800, Note_on_c, 9, 38, 127
15, 19801, Note_on_c, 9, 70, 109
15, 19801, Note_on_c, 9, 64, 115
15, 19801, Note_on_c, 9, 42, 121
15, 19819, Note_on_c, 9, 42, 0
15, 19821, Note_on_c, 9, 70, 0
15, 19823, Note_on_c, 9, 64, 0
15, 19826, Note_on_c, 9, 36, 0
15, 19836, Note_on_c, 9, 38, 0
15, 19860, Note_on_c, 9, 44, 121
15, 19861, Note_on_c, 9, 54, 122
15, 19861, Note_on_c, 9, 70, 120
15, 19862, Note_on_c, 9, 63, 116
15, 19870, Note_on_c, 9, 63, 0
15, 19874, Note_on_c, 9, 70, 0
15, 19878, Note_on_c, 9, 44, 0
15, 19886, Note_on_c, 9, 54, 0
15, 19890, Note_on_c, 9, 63, 122
15, 19901, Note_on_c, 9, 63, 0
15, 19920, Note_on_c, 9, 42, 120
15, 19920, Note_on_c, 9, 36, 127
15, 19921, Note_on_c, 9, 70, 109
15, 19935, Note_on_c, 9, 42, 0
15, 19936, Note_on_c, 9, 70, 0
15, 19946, Note_on_c, 9, 36, 0
15, 19950, Note_on_c, 9, 63, 124
15, 19962, Note_on_c, 9, 63, 0
15, 19980, Note_on_c, 9, 44, 123
15, 19980, Note_on_c, 9, 46, 127
15, 19981, Note_on_c, 9, 54, 124
15, 19981, Note_on_c, 9, 70, 121
15, 19982, Note_on_c, 9, 64, 115
15, 19994, Note_on_c, 9, 46, 0
15, 19996, Note_on_c, 9, 44, 0
15, 19997, Note_on_c, 9, 64, 0
15, 19998, Note_on_c, 9, 70, 0
15, 20003, Note_on_c, 9, 54, 0
15, 20040, Note_on_c, 9, 38, 127
15, 20040, Note_on_c, 9, 36, 127
15, 20040, Note_on_c, 9, 44, 100
15, 20041, Note_on_c, 9, 64, 114
15, 20041, Note_on_c, 9, 42, 122
15, 20041, Note_on_c, 9, 70, 109
15, 20054, Note_on_c, 9, 44, 0
15, 20056, Note_on_c, 9, 70, 0
15, 20061, Note_on_c, 9, 64, 0
15, 20062, Note_on_c, 9, 42, 0
15, 20065, Note_on_c, 9, 38, 0
15, 20068, Note_on_c, 9, 36, 0
15, 20100, Note_on_c, 9, 44, 117
15, 20101, Note_on_c, 9, 54, 123
15, 20102, Note_on_c, 9, 62, 119
15, 20102, Note_on_c, 9, 70, 120
15, 20117, Note_on_c, 9, 70, 0
15, 20118, Note_on_c, 9, 62, 0
15, 20120, Note_on_c, 9, 44, 0
15, 20122, Note_on_c, 9, 54, 0
15, 20130, Note_on_c, 9, 62, 122
15, 20153, Note_on_c, 9, 62, 0
15, 20160, Note_on_c, 9, 36, 127
15, 20161, Note_on_c, 9, 42, 123
15, 20162, Note_on_c, 9, 70, 109
15, 20162, Note_on_c, 9, 63, 123
15, 20172, Note_on_c, 9, 63, 0
15, 20176, Note_on_c, 9, 36, 0
15, 20179, Note_on_c, 9, 70, 0
15, 20179, Note_on_c, 9, 42, 0
15, 20220, Note_on_c, 9, 65, 127
15, 20220, Note_on_c, 9, 44, 108
15, 20221, Note_on_c, 9, 54, 123
15, 20221, Note_on_c, 9, 70, 118
15, 20222, Note_on_c, 9, 63, 123
15, 20234, Note_on_c, 9, 70, 0
15, 20235, Note_on_c, 9, 63, 0
15, 20238, Note_on_c, 9, 44, 0
15, 20243, Note_on_c, 9, 65, 0
15, 20246, Note_on_c, 9, 54, 0
15, 20280, Note_on_c, 9, 42, 117
15, 20280, Note_on_c, 9, 38, 127
15, 20280, Note_on_c, 9, 36, 127
15, 20281, Note_on_c, 9, 70, 108
15, 20281, Note_on_c, 9, 64, 119
15, 20295, Note_on_c, 9, 36, 0
15, 20296, Note_on_c, 9, 42, 0
15, 20297, Note_on_c, 9, 70, 0
15, 20303, Note_on_c, 9, 64, 0
15, 20306, Note_on_c, 9, 38, 0
15, 20340, Note_on_c, 9, 65, 127
15, 20340, Note_on_c, 9, 44, 105
15, 20341, Note_on_c, 9, 70, 120
15, 20341, Note_on_c, 9, 54, 124
15, 20342, Note_on_c, 9, 63, 120
15, 20350, Note_on_c, 9, 63, 0
15, 20356, Note_on_c, 9, 70, 0
15, 20358, Note_on_c, 9, 44, 0
15, 20362, Note_on_c, 9, 54, 0
15, 20363, Note_on_c, 9, 65, 0
15, 20370, Note_on_c, 9, 63, 123
15, 20382, Note_on_c, 9, 63, 0
15, 20400, Note_on_c, 9, 65, 127
15, 20400, Note_on_c, 9, 36, 127
15, 20401, Note_on_c, 9, 42, 112
15, 20401, Note_on_c, 9, 70, 106
15, 20418, Note_on_c, 9, 70, 0
15, 20418, Note_on_c, 9, 36, 0
15, 20419, Note_on_c, 9, 42, 0
15, 20423, Note_on_c, 9, 65, 0
15, 20430, Note_on_c, 9, 63, 124
15, 20441, Note_on_c, 9, 63, 0
15, 20460, Note_on_c, 9, 44, 114
15, 20460, Note_on_c, 9, 46, 127
15, 20461, Note_on_c, 9, 70, 120
15, 20461, Note_on_c, 9, 54, 123
15, 20462, Note_on_c, 9, 64, 115
15, 20474, Note_on_c, 9, 46, 0
15, 20478, Note_on_c, 9, 64, 0
15, 20479, Note_on_c, 9, 70, 0
15, 20482, Note_on_c, 9, 44, 0
15, 20486, Note_on_c, 9, 54, 0
15, 20520, Note_on_c, 9, 65, 127
15, 20520, Note_on_c, 9, 38, 127
15, 20520, Note_on_c, 9, 36, 127
15, 20520, Note_on_c, 9, 44, 100
15, 20521, Note_on_c, 9, 64, 117
15, 20521, Note_on_c, 9, 42, 112
15, 20521, Note_on_c, 9, 70, 106
15, 20534, Note_on_c, 9, 44, 0
15, 20536, Note_on_c, 9, 36, 0
15, 20537, Note_on_c, 9, 70, 0
15, 20539, Note_on_c, 9, 64, 0
15, 20543, Note_on_c, 9, 42, 0
15, 20543, Note_on_c, 9, 65, 0
15, 20545, Note_on_c, 9, 38, 0
15, 20580, Note_on_c, 9, 44, 117
15, 20581, Note_on_c, 9, 70, 120
15, 20581, Note_on_c, 9, 54, 124
15, 20582, Note_on_c, 9, 62, 125
15, 20594, Note_on_c, 9, 70, 0
15, 20598, Note_on_c, 9, 62, 0
15, 20601, Note_on_c, 9, 54, 0
15, 20602, Note_on_c, 9, 44, 0
15, 20610, Note_on_c, 9, 62, 127
15, 20625, Note_on_c, 9, 62, 0
15, 20640, Note_on_c, 9, 42, 122
15, 20640, Note_on_c, 9, 36, 127
15, 20642, Note_on_c, 9, 63, 118
15, 20642, Note_on_c, 9, 70, 104
15, 20654, Note_on_c, 9, 70, 0
15, 20655, Note_on_c, 9, 63, 0
15, 20660, Note_on_c, 9, 36, 0
15, 20662, Note_on_c, 9, 42, 0
15, 20700, Note_on_c, 9, 44, 118
15, 20701, Note_on_c, 9, 70, 121
15, 20702, Note_on_c, 9, 63, 126
15, 20702, Note_on_c, 9, 54, 122
15, 20705, Note_on_c, 9, 63, 0
15, 20718, Note_on_c, 9, 44, 0
15, 20720, Note_on_c, 9, 54, 0
15, 20721, Note_on_c, 9, 70, 0
15, 20760, Note_on_c, 9, 38, 127
15, 20760, Note_on_c, 9, 36, 127
15, 20761, Note_on_c, 9, 70, 108
15, 20761, Note_on_c, 9, 64, 120
15, 20761, Note_on_c, 9, 42, 116
15, 20777, Note_on_c, 9, 70, 0
15, 20779, Note_on_c, 9, 64, 0
15, 20783, Note_on_c, 9, 42, 0
15, 20786, Note_on_c, 9, 36, 0
15, 20796, Note_on_c, 9, 38, 0
15, 20820, Note_on_c, 9, 44, 115
15, 20821, Note_on_c, 9, 63, 122
15, 20821, Note_on_c, 9, 54, 122
15, 20821, Note_on_c, 9, 70, 117
15, 20826, Note_on_c, 9, 63, 0
15, 20837, Note_on_c, 9, 70, 0
15, 20842, Note_on_c, 9, 54, 0
15, 20843, Note_on_c, 9, 44, 0
15, 20850, Note_on_c, 9, 63, 122
15, 20865, Note_on_c, 9, 63, 0
15, 20880, Note_on_c, 9, 36, 127
15, 20881, Note_on_c, 9, 42, 120
15, 20881, Note_on_c, 9, 70, 106
15, 20898, Note_on_c, 9, 70, 0
15, 20903, Note_on_c, 9, 42, 0
15, 20906, Note_on_c, 9, 36, 0
15, 20910, Note_on_c, 9, 63, 123
15, 20922, Note_on_c, 9, 63, 0
15, 20940, Note_on_c, 9, 44, 116
15, 20940, Note_on_c, 9, 46, 127
15, 20941, Note_on_c, 9, 54, 122
15, 20941, Note_on_c, 9, 70, 118
15, 20942, Note_on_c, 9, 64, 110
15, 20954, Note_on_c, 9, 46, 0
15, 20955, Note_on_c, 9, 64, 0
15, 20958, Note_on_c, 9, 70, 0
15, 20962, Note_on_c, 9, 44, 0
15, 20966, Note_on_c, 9, 54, 0
15, 20970, Note_on_c, 9, 65, 127
15, 20985, Note_on_c, 9, 65, 127
15, 20993, Note_on_c, 9, 65, 0
15, 21000, Note_on_c, 9, 65, 127
15, 21000, Note_on_c, 9, 42, 121
15, 21000, Note_on_c, 9, 38, 127
15, 21000, Note_on_c, 9, 36, 127
15, 21000, Note_on_c, 9, 44, 100
15, 21001, Note_on_c, 9, 64, 115
15, 21001, Note_on_c, 9, 70, 109
15, 21008, Note_on_c, 9, 65, 0
15, 21014, Note_on_c, 9, 64, 0
15, 21014, Note_on_c, 9, 44, 0
15, 21018, Note_on_c, 9, 70, 0
15, 21023, Note_on_c, 9, 65, 0
15, 21025, Note_on_c, 9, 38, 0
15, 21026, Note_on_c, 9, 42, 0
15, 21028, Note_on_c, 9, 36, 0
15, 21060, Note_on_c, 9, 44, 118
15, 21061, Note_on_c, 9, 70, 117
15, 21061, Note_on_c, 9, 54, 121
15, 21062, Note_on_c, 9, 62, 120
15, 21077, Note_on_c, 9, 62, 0
15, 21077, Note_on_c, 9, 70, 0
15, 21081, Note_on_c, 9, 54, 0
15, 21082, Note_on_c, 9, 44, 0
15, 21090, Note_on_c, 9, 62, 117
15, 21113, Note_on_c, 9, 62, 0
15, 21120, Note_on_c, 9, 55, 127
15, 21120, Note_on_c, 9, 36, 127
15, 21121, Note_on_c, 9, 42, 118
15, 21122, Note_on_c, 9, 70, 104
15, 21122, Note_on_c, 9, 63, 121
15, 21133, Note_on_c, 9, 63, 0
15, 21134, Note_on_c, 9, 70, 0
15, 21136, Note_on_c, 9, 36, 0
15, 21141, Note_on_c, 9, 42, 0
15, 21143, Note_on_c, 9, 55, 0
15, 21180, Note_on_c, 9, 44, 117
15, 21181, Note_on_c, 9, 70, 121
15, 21181, Note_on_c, 9, 54, 124
15, 21182, Note_on_c, 9, 63, 122
15, 21194, Note_on_c, 9, 70, 0
15, 21197, Note_on_c, 9, 63, 0
15, 21202, Note_on_c, 9, 44, 0
15, 21204, Note_on_c, 9, 54, 0
15, 21240, Note_on_c, 9, 36, 127
15, 21241, Note_on_c, 9, 70, 107
15, 21241, Note_on_c, 9, 64, 122
15, 21241, Note_on_c, 9, 38, 127
15, 21241, Note_on_c, 9, 42, 118
15, 21255, Note_on_c, 9, 36, 0
15, 21256, Note_on_c, 9, 70, 0
15, 21258, Note_on_c, 9, 64, 0
15, 21262, Note_on_c, 9, 42, 0
15, 21266, Note_on_c, 9, 38, 0
15, 21300, Note_on_c, 9, 44, 120
15, 21301, Note_on_c, 9, 54, 124
15, 21301, Note_on_c, 9, 70, 120
15, 21301, Note_on_c, 9, 63, 120
15, 21307, Note_on_c, 9, 63, 0
15, 21314, Note_on_c, 9, 70, 0
15, 21321, Note_on_c, 9, 54, 0
15, 21326, Note_on_c, 9, 44, 0
15, 21330, Note_on_c, 9, 63, 127
15, 21345, Note_on_c, 9, 63, 0
15, 21360, Note_on_c, 9, 42, 120
15, 21360, Note_on_c, 9, 36, 127
15, 21361, Note_on_c, 9, 70, 108
15, 21374, Note_on_c, 9, 70, 0
15, 21378, Note_on_c, 9, 36, 0
15, 21385, Note_on_c, 9, 42, 0
15, 21390, Note_on_c, 9, 63, 124
15, 21401, Note_on_c, 9, 63, 0
15, 21420, Note_on_c, 9, 44, 120
15, 21420, Note_on_c, 9, 46, 127
15, 21421, Note_on_c, 9, 64, 114
15, 21421, Note_on_c, 9, 70, 121
15, 21421, Note_on_c, 9, 54, 124
15, 21434, Note_on_c, 9, 46, 0
15, 21437, Note_on_c, 9, 70, 0
15, 21437, Note_on_c, 9, 64, 0
15, 21441, Note_on_c, 9, 54, 0
15, 21442, Note_on_c, 9, 44, 0
15, 21480, Note_on_c, 9, 42, 118
15, 21480, Note_on_c, 9, 38, 127
15, 21480, Note_on_c, 9, 36, 127
15, 21480, Note_on_c, 9, 44, 100
15, 21481, Note_on_c, 9, 70, 109
15, 21481, Note_on_c, 9, 64, 117
15, 21494, Note_on_c, 9, 44, 0
15, 21496, Note_on_c, 9, 70, 0
15, 21496, Note_on_c, 9, 36, 0
15, 21500, Note_on_c, 9, 42, 0
15, 21501, Note_on_c, 9, 64, 0
15, 21505, Note_on_c, 9, 38, 0
15, 21540, Note_on_c, 9, 44, 121
15, 21541, Note_on_c, 9, 62, 119
15, 21541, Note_on_c, 9, 70, 118
15, 21541, Note_on_c, 9, 54, 124
15, 21556, Note_on_c, 9, 62, 0
15, 21557, Note_on_c, 9, 70, 0
15, 21558, Note_on_c, 9, 44, 0
15, 21562, Note_on_c, 9, 54, 0
15, 21570, Note_on_c, 9, 62, 117
15, 21593, Note_on_c, 9, 62, 0
15, 21600, Note_on_c, 9, 36, 127
15, 21601, Note_on_c, 9, 42, 122
15, 21602, Note_on_c, 9, 70, 111
15, 21602, Note_on_c, 9, 63, 121
15, 21610, Note_on_c, 9, 63, 0
15, 21615, Note_on_c, 9, 70, 0
15, 21615, Note_on_c, 9, 36, 0
15, 21621, Note_on_c, 9, 42, 0
15, 21660, Note_on_c, 9, 44, 122
15, 21661, Note_on_c, 9, 70, 120
15, 21661, Note_on_c, 9, 54, 126
15, 21662, Note_on_c, 9, 63, 127
15, 21675, Note_on_c, 9, 63, 0
15, 21678, Note_on_c, 9, 70, 0
15, 21680, Note_on_c, 9, 44, 0
15, 21681, Note_on_c, 9, 54, 0
15, 21720, Note_on_c, 9, 36, 127
15, 21720, Note_on_c, 9, 38, 127
15, 21721, Note_on_c, 9, 42, 121
15, 21721, Note_on_c, 9, 64, 115
15, 21721, Note_on_c, 9, 70, 110
15, 21738, Note_on_c, 9, 64, 0
15, 21738, Note_on_c, 9, 36, 0
15, 21742, Note_on_c, 9, 70, 0
15, 21742, Note_on_c, 9, 42, 0
15, 21748, Note_on_c, 9, 38, 0
15, 21780, Note_on_c, 9, 44, 113
15, 21781, Note_on_c, 9, 70, 120
15, 21781, Note_on_c, 9, 63, 124
15, 21781, Note_on_c, 9, 54, 126
15, 21788, Note_on_c, 9, 63, 0
15, 21796, Note_on_c, 9, 44, 0
15, 21796, Note_on_c, 9, 70, 0
15, 21803, Note_on_c, 9, 54, 0
15, 21810, Note_on_c, 9, 63, 126
15, 21825, Note_on_c, 9, 63, 0
15, 21840, Note_on_c, 9, 36, 127
15, 21840, Note_on_c, 9, 42, 122
15, 21841, Note_on_c, 9, 70, 109
15, 21854, Note_on_c, 9, 70, 0
15, 21858, Note_on_c, 9, 36, 0
15, 21860, Note_on_c, 9, 42, 0
15, 21870, Note_on_c, 9, 63, 120
15, 21885, Note_on_c, 9, 63, 0
15, 21900, Note_on_c, 9, 44, 118
15, 21900, Note_on_c, 9, 46, 127
15, 21901, Note_on_c, 9, 54, 126
15, 21901, Note_on_c, 9, 70, 123
15, 21901, Note_on_c, 9, 64, 116
15, 21914, Note_on_c, 9, 46, 0
15, 21917, Note_on_c, 9, 64, 0
15, 21918, Note_on_c, 9, 44, 0
15, 21922, Note_on_c, 9, 54, 0
15, 21922, Note_on_c, 9, 70, 0
15, 21960, Note_on_c, 9, 38, 127
15, 21960, Note_on_c, 9, 36, 127
15, 21960, Note_on_c, 9, 44, 100
15, 21961, Note_on_c, 9, 70, 116
15, 21961, Note_on_c, 9, 64, 118
15, 21961, Note_on_c, 9, 42, 121
15, 21973, Note_on_c, 9, 70, 0
15, 21974, Note_on_c, 9, 44, 0
15, 21980, Note_on_c, 9, 36, 0
15, 21981, Note_on_c, 9, 64, 0
15, 21983, Note_on_c, 9, 42, 0
15, 21993, Note_on_c, 9, 38, 0
15, 22020, Note_on_c, 9, 44, 118
15, 22021, Note_on_c, 9, 62, 120
15, 22021, Note_on_c, 9, 70, 120
15, 22021, Note_on_c, 9, 54, 126
15, 22032, Note_on_c, 9, 70, 0
15, 22032, Note_on_c, 9, 62, 0
15, 22043, Note_on_c, 9, 44, 0
15, 22044, Note_on_c, 9, 54, 0
15, 22050, Note_on_c, 9, 62, 119
15, 22070, Note_on_c, 9, 62, 0
15, 22080, Note_on_c, 9, 36, 127
15, 22080, Note_on_c, 9, 42, 123
15, 22081, Note_on_c, 9, 70, 114
15, 22082, Note_on_c, 9, 63, 123
15, 22095, Note_on_c, 9, 36, 0
15, 22098, Note_on_c, 9, 63, 0
15, 22099, Note_on_c, 9, 70, 0
15, 22102, Note_on_c, 9, 42, 0
15, 22140, Note_on_c, 9, 44, 121
15, 22141, Note_on_c, 9, 54, 126
15, 22141, Note_on_c, 9, 70, 117
15, 22142, Note_on_c, 9, 63, 121
15, 22150, Note_on_c, 9, 63, 0
15, 22153, Note_on_c, 9, 70, 0
15, 22161, Note_on_c, 9, 54, 0
15, 22163, Note_on_c, 9, 44, 0
15, 22200, Note_on_c, 9, 38, 127
15, 22200, Note_on_c, 9, 36, 127
15, 22201, Note_on_c, 9, 64, 118
15, 22201, Note_on_c, 9, 70, 108
15, 22201, Note_on_c, 9, 42, 117
15, 22213, Note_on_c, 9, 64, 0
15, 22217, Note_on_c, 9, 70, 0
15, 22220, Note_on_c, 9, 36, 0
15, 22222, Note_on_c, 9, 42, 0
15, 22230, Note_on_c, 9, 38, 0
15, 22260, Note_on_c, 9, 44, 123
15, 22261, Note_on_c, 9, 54, 127
15, 22261, Note_on_c, 9, 63, 120
15, 22261, Note_on_c, 9, 70, 120
15, 22267, Note_on_c, 9, 63, 0
15, 22275, Note_on_c, 9, 44, 0
15, 22283, Note_on_c, 9, 54, 0
15, 22283, Note_on_c, 9, 70, 0
15, 22290, Note_on_c, 9, 63, 124
15, 22302, Note_on_c, 9, 63, 0
15, 22320, Note_on_c, 9, 36, 127
15, 22321, Note_on_c, 9, 42, 124
15, 22321, Note_on_c, 9, 70, 110
15, 22339, Note_on_c, 9, 70, 0
15, 22341, Note_on_c, 9, 42, 0
15, 22342, Note_on_c, 9, 36, 0
15, 22350, Note_on_c, 9, 63, 124
15, 22362, Note_on_c, 9, 63, 0
15, 22380, Note_on_c, 9, 44, 121
15, 22380, Note_on_c, 9, 46, 127
15, 22381, Note_on_c, 9, 70, 121
15, 22381, Note_on_c, 9, 54, 120
15, 22381, Note_on_c, 9, 64, 115
15, 22394, Note_on_c, 9, 70, 0
15, 22394, Note_on_c, 9, 46, 0
15, 22396, Note_on_c, 9, 64, 0
15, 22398, Note_on_c, 9, 44, 0
15, 22404, Note_on_c, 9, 54, 0
15, 22410, Note_on_c, 9, 65, 127
15, 22425, Note_on_c, 9, 65, 127
15, 22433, Note_on_c, 9, 65, 0
15, 22440, Note_on_c, 9, 65, 127
15, 22440, Note_on_c, 9, 38, 127
15, 22440, Note_on_c, 9, 36, 127
15, 22440, Note_on_c, 9, 44, 100
15, 22441, Note_on_c, 9, 64, 115
15, 22441, Note_on_c, 9, 42, 120
15, 22441, Note_on_c, 9, 70, 109
15, 22448, Note_on_c, 9, 65, 0
15, 22454, Note_on_c, 9, 44, 0
15, 22458, Note_on_c, 9, 36, 0
15, 22458, Note_on_c, 9, 38, 0
15, 22459, Note_on_c, 9, 42, 0
15, 22459, Note_on_c, 9, 64, 0
15, 22461, Note_on_c, 9, 70, 0
15, 22463, Note_on_c, 9, 65, 0
15, 22500, Note_on_c, 9, 44, 118
15, 22501, Note_on_c, 9, 54, 123
15, 22501, Note_on_c, 9, 70, 117
15, 22502, Note_on_c, 9, 62, 120
15, 22517, Note_on_c, 9, 62, 0
15, 22518, Note_on_c, 9, 44, 0
15, 22522, Note_on_c, 9, 70, 0
15, 22522, Note_on_c, 9, 54, 0
15, 22530, Note_on_c, 9, 62, 120
15, 22553, Note_on_c, 9, 62, 0
15, 22560, Note_on_c, 9, 36, 127
15, 22561, Note_on_c, 9, 42, 123
15, 22562, Note_on_c, 9, 63, 123
15, 22562, Note_on_c, 9, 70, 107
15, 22570, Note_on_c, 9, 63, 0
15, 22575, Note_on_c, 9, 70, 0
15, 22580, Note_on_c, 9, 36, 0
15, 22581, Note_on_c, 9, 42, 0
15, 22620, Note_on_c, 9, 44, 118
15, 22621, Note_on_c, 9, 70, 118
15, 22621, Note_on_c, 9, 54, 124
15, 22622, Note_on_c, 9, 63, 126
15, 22634, Note_on_c, 9, 70, 0
15, 22635, Note_on_c, 9, 63, 0
15, 22640, Note_on_c, 9, 44, 0
15, 22646, Note_on_c, 9, 54, 0
15, 22680, Note_on_c, 9, 36, 127
15, 22680, Note_on_c, 9, 38, 127
15, 22681, Note_on_c, 9, 70, 109
15, 22681, Note_on_c, 9, 64, 115
15, 22681, Note_on_c, 9, 42, 121
15, 22699, Note_on_c, 9, 42, 0
15, 22701, Note_on_c, 9, 70, 0
15, 22703, Note_on_c, 9, 64, 0
15, 22706, Note_on_c, 9, 36, 0
15, 22716, Note_on_c, 9, 38, 0
15, 22740, Note_on_c, 9, 44, 121
15, 22741, Note_on_c, 9, 54, 122
15, 22741, Note_on_c, 9, 70, 120
15, 22742, Note_on_c, 9, 63, 116
15, 22750, Note_on_c, 9, 63, 0
15, 22754, Note_on_c, 9, 70, 0
15, 22758, Note_on_c, 9, 44, 0
15, 22766, Note_on_c, 9, 54, 0
15, 22770, Note_on_c, 9, 63, 122
15, 22781, Note_on_c, 9, 63, 0
15, 22800, Note_on_c, 9, 42, 120
15, 22800, Note_on_c, 9, 36, 127
15, 22801, Note_on_c, 9, 70, 109
15, 22815, Note_on_c, 9, 42, 0
15, 22816, Note_on_c, 9, 70, 0
15, 22826, Note_on_c, 9, 36, 0
15, 22830, Note_on_c, 9, 63, 124
15, 22842, Note_on_c, 9, 63, 0
15, 22860, Note_on_c, 9, 44, 123
15, 22860, Note_on_c, 9, 46, 127
15, 22861, Note_on_c, 9, 54, 124
15, 22861, Note_on_c, 9, 70, 121
15, 22862, Note_on_c, 9, 64, 115
15, 22874, Note_on_c, 9, 46, 0
15, 22876, Note_on_c, 9, 44, 0
15, 22877, Note_on_c, 9, 64, 0
15, 22878, Note_on_c, 9, 70, 0
15, 22883, Note_on_c, 9, 54, 0
15, 22920, Note_on_c, 9, 38, 127
15, 22920, Note_on_c, 9, 36, 127
15, 22920, Note_on_c, 9, 44, 100
15, 22921, Note_on_c, 9, 64, 114
15, 22921, Note_on_c, 9, 42, 122
15, 22921, Note_on_c, 9, 70, 109
15, 22934, Note_on_c, 9, 44, 0
15, 22936, Note_on_c, 9, 70, 0
15, 22941, Note_on_c, 9, 64, 0
15, 22942, Note_on_c, 9, 42, 0
15, 22945, Note_on_c, 9, 38, 0
15, 22948, Note_on_c, 9, 36, 0
15, 22980, Note_on_c, 9, 44, 117
15, 22981, Note_on_c, 9, 54, 123
15, 22982, Note_on_c, 9, 62, 119
15, 22982, Note_on_c, 9, 70, 120
15, 22997, Note_on_c, 9, 70, 0
15, 22998, Note_on_c, 9, 62, 0
15, 23000, Note_on_c, 9, 44, 0
15, 23002, Note_on_c, 9, 54, 0
15, 23010, Note_on_c, 9, 62, 122
15, 23033, Note_on_c, 9, 62, 0
15, 23040, Note_on_c, 9, 36, 127
15, 23041, Note_on_c, 9, 42, 123
15, 23042, Note_on_c, 9, 70, 109
15, 23042, Note_on_c, 9, 63, 123
15, 23052, Note_on_c, 9, 63, 0
15, 23056, Note_on_c, 9, 36, 0
15, 23059, Note_on_c, 9, 70, 0
15, 23059, Note_on_c, 9, 42, 0
15, 23100, Note_on_c, 9, 44, 108
15, 23101, Note_on_c, 9, 54, 123
15, 23101, Note_on_c, 9, 70, 118
15, 23102, Note_on_c, 9, 63, 123
15, 23114, Note_on_c, 9, 70, 0
15, 23115, Note_on_c, 9, 63, 0
15, 23118, Note_on_c, 9, 44, 0
15, 23126, Note_on_c, 9, 54, 0
15, 23160, Note_on_c, 9, 42, 117
15, 23160, Note_on_c, 9, 38, 127
15, 23160, Note_on_c, 9, 36, 127
15, 23161, Note_on_c, 9, 70, 108
15, 23161, Note_on_c, 9, 64, 119
15, 23175, Note_on_c, 9, 36, 0
15, 23176, Note_on_c, 9, 42, 0
15, 23177, Note_on_c, 9, 70, 0
15, 23183, Note_on_c, 9, 64, 0
15, 23186, Note_on_c, 9, 38, 0
15, 23220, Note_on_c, 9, 44, 105
15, 23221, Note_on_c, 9, 70, 120
15, 23221, Note_on_c, 9, 54, 124
15, 23222, Note_on_c, 9, 63, 120
15, 23230, Note_on_c, 9, 63, 0
15, 23236, Note_on_c, 9, 70, 0
15, 23238, Note_on_c, 9, 44, 0
15, 23242, Note_on_c, 9, 54, 0
15, 23250, Note_on_c, 9, 63, 123
15, 23262, Note_on_c, 9, 63, 0
15, 23280, Note_on_c, 9, 36, 127
15, 23281, Note_on_c, 9, 42, 112
15, 23281, Note_on_c, 9, 70, 106
15, 23298, Note_on_c, 9, 70, 0
15, 23298, Note_on_c, 9, 36, 0
15, 23299, Note_on_c, 9, 42, 0
15, 23310, Note_on_c, 9, 63, 124
15, 23321, Note_on_c, 9, 63, 0
15, 23340, Note_on_c, 9, 44, 114
15, 23340, Note_on_c, 9, 46, 127
15, 23341, Note_on_c, 9, 70, 120
15, 23341, Note_on_c, 9, 54, 123
15, 23342, Note_on_c, 9, 64, 115
15, 23354, Note_on_c, 9, 46, 0
15, 23358, Note_on_c, 9, 64, 0
15, 23359, Note_on_c, 9, 70, 0
15, 23362, Note_on_c, 9, 44, 0
15, 23366, Note_on_c, 9, 54, 0
15, 23400, Note_on_c, 9, 38, 127
15, 23400, Note_on_c, 9, 36, 127
15, 23400, Note_on_c, 9, 44, 100
15, 23401, Note_on_c, 9, 64, 117
15, 23401, Note_on_c, 9, 42, 112
15, 23401, Note_on_c, 9, 70, 106
15, 23414, Note_on_c, 9, 44, 0
15, 23416, Note_on_c, 9, 36, 0
15, 23417, Note_on_c, 9, 70, 0
15, 23419, Note_on_c, 9, 64, 0
15, 23423, Note_on_c, 9, 42, 0
15, 23425, Note_on_c, 9, 38, 0
15, 23460, Note_on_c, 9, 66, 127
15, 23460, Note_on_c, 9, 44, 117
15, 23461, Note_on_c, 9, 70, 120
15, 23461, Note_on_c, 9, 54, 124
15, 23462, Note_on_c, 9, 62, 125
15, 23474, Note_on_c, 9, 70, 0
15, 23478, Note_on_c, 9, 62, 0
15, 23481, Note_on_c, 9, 54, 0
15, 23482, Note_on_c, 9, 44, 0
15, 23483, Note_on_c, 9, 66, 0
15, 23490, Note_on_c, 9, 62, 127
15, 23505, Note_on_c, 9, 62, 0
15, 23520, Note_on_c, 9, 36, 127
15, 23521, Note_on_c, 9, 42, 123
15, 23522, Note_on_c, 9, 63, 123
15, 23522, Note_on_c, 9, 70, 107
15, 23530, Note_on_c, 9, 63, 0
15, 23535, Note_on_c, 9, 70, 0
15, 23540, Note_on_c, 9, 36, 0
15, 23541, Note_on_c, 9, 42, 0
15, 23580, Note_on_c, 9, 44, 118
15, 23581, Note_on_c, 9, 70, 118
15, 23581, Note_on_c, 9, 54, 124
15, 23582, Note_on_c, 9, 63, 126
15, 23594, Note_on_c, 9, 70, 0
15, 23595, Note_on_c, 9, 63, 0
15, 23600, Note_on_c, 9, 44, 0
15, 23606, Note_on_c, 9, 54, 0
15, 23640, Note_on_c, 9, 36, 127
15, 23640, Note_on_c, 9, 38, 127
15, 23641, Note_on_c, 9, 70, 109
15, 23641, Note_on_c, 9, 64, 115
15, 23641, Note_on_c, 9, 42, 121
15, 23659, Note_on_c, 9, 42, 0
15, 23661, Note_on_c, 9, 70, 0
15, 23663, Note_on_c, 9, 64, 0
15, 23666, Note_on_c, 9, 36, 0
15, 23676, Note_on_c, 9, 38, 0
15, 23700, Note_on_c, 9, 44, 121
15, 23701, Note_on_c, 9, 54, 122
15, 23701, Note_on_c, 9, 70, 120
15, 23702, Note_on_c, 9, 63, 116
15, 23710, Note_on_c, 9, 63, 0
15, 23714, Note_on_c, 9, 70, 0
15, 23718, Note_on_c, 9, 44, 0
15, 23726, Note_on_c, 9, 54, 0
15, 23730, Note_on_c, 9, 63, 122
15, 23741, Note_on_c, 9, 63, 0
15, 23760, Note_on_c, 9, 42, 120
15, 23760, Note_on_c, 9, 36, 127
15, 23761, Note_on_c, 9, 70, 109
15, 23775, Note_on_c, 9, 42, 0
15, 23776, Note_on_c, 9, 70, 0
15, 23786, Note_on_c, 9, 36, 0
15, 23790, Note_on_c, 9, 63, 124
15, 23802, Note_on_c, 9, 63, 0
15, 23820, Note_on_c, 9, 44, 123
15, 23820, Note_on_c, 9, 46, 127
15, 23821, Note_on_c, 9, 54, 124
15, 23821, Note_on_c, 9, 70, 121
15, 23822, Note_on_c, 9, 64, 115
15, 23834, Note_on_c, 9, 46, 0
15, 23836, Note_on_c, 9, 44, 0
15, 23837, Note_on_c, 9, 64, 0
15, 23838, Note_on_c, 9, 70, 0
15, 23843, Note_on_c, 9, 54, 0
15, 23880, Note_on_c, 9, 38, 127
15, 23880, Note_on_c, 9, 36, 127
15, 23880, Note_on_c, 9, 44, 100
15, 23881, Note_on_c, 9, 64, 114
15, 23881, Note_on_c, 9, 42, 122
15, 23881, Note_on_c, 9, 70, 109
15, 23894, Note_on_c, 9, 44, 0
15, 23896, Note_on_c, 9, 70, 0
15, 23901, Note_on_c, 9, 64, 0
15, 23902, Note_on_c, 9, 42, 0
15, 23905, Note_on_c, 9, 38, 0
15, 23908, Note_on_c, 9, 36, 0
15, 23940, Note_on_c, 9, 44, 117
15, 23941, Note_on_c, 9, 54, 123
15, 23942, Note_on_c, 9, 62, 119
15, 23942, Note_on_c, 9, 70, 120
15, 23957, Note_on_c, 9, 70, 0
15, 23958, Note_on_c, 9, 62, 0
15, 23960, Note_on_c, 9, 44, 0
15, 23962, Note_on_c, 9, 54, 0
15, 23970, Note_on_c, 9, 62, 122
15, 23993, Note_on_c, 9, 62, 0
15, 24000, Note_on_c, 9, 36, 127
15, 24001, Note_on_c, 9, 42, 123
15, 24002, Note_on_c, 9, 70, 109
15, 24002, Note_on_c, 9, 63, 123
15, 24012, Note_on_c, 9, 63, 0
15, 24016, Note_on_c, 9, 36, 0
15, 24019, Note_on_c, 9, 70, 0
15, 24019, Note_on_c, 9, 42, 0
15, 24060, Note_on_c, 9, 65, 127
15, 24060, Note_on_c, 9, 44, 108
15, 24061, Note_on_c, 9, 54, 123
15, 24061, Note_on_c, 9, 70, 118
15, 24062, Note_on_c, 9, 63, 123
15, 24074, Note_on_c, 9, 70, 0
15, 24074, Note_on_c, 9, 65, 0
15, 24075, Note_on_c, 9, 63, 0
15, 24078, Note_on_c, 9, 44, 0
15, 24086, Note_on_c, 9, 54, 0
15, 24120, Note_on_c, 9, 65, 127
15, 24120, Note_on_c, 9, 42, 117
15, 24120, Note_on_c, 9, 38, 127
15, 24120, Note_on_c, 9, 36, 127
15, 24121, Note_on_c, 9, 70, 108
15, 24121, Note_on_c, 9, 64, 119
15, 24134, Note_on_c, 9, 65, 0
15, 24135, Note_on_c, 9, 36, 0
15, 24136, Note_on_c, 9, 42, 0
15, 24137, Note_on_c, 9, 70, 0
15, 24143, Note_on_c, 9, 64, 0
15, 24146, Note_on_c, 9, 38, 0
15, 24180, Note_on_c, 9, 65, 127
15, 24180, Note_on_c, 9, 44, 105
15, 24181, Note_on_c, 9, 70, 120
15, 24181, Note_on_c, 9, 54, 124
15, 24182, Note_on_c, 9, 63, 120
15, 24190, Note_on_c, 9, 63, 0
15, 24194, Note_on_c, 9, 65, 0
15, 24196, Note_on_c, 9, 70, 0
15, 24198, Note_on_c, 9, 44, 0
15, 24202, Note_on_c, 9, 54, 0
15, 24210, Note_on_c, 9, 63, 123
15, 24222, Note_on_c, 9, 63, 0
15, 24240, Note_on_c, 9, 66, 127
15, 24240, Note_on_c, 9, 36, 127
15, 24241, Note_on_c, 9, 42, 112
15, 24241, Note_on_c, 9, 70, 106
15, 24258, Note_on_c, 9, 70, 0
15, 24258, Note_on_c, 9, 36, 0
15, 24259, Note_on_c, 9, 42, 0
15, 24263, Note_on_c, 9, 66, 0
15, 24270, Note_on_c, 9, 63, 124
15, 24281, Note_on_c, 9, 63, 0
15, 24285, Note_on_c, 9, 65, 127
15, 24300, Note_on_c, 9, 65, 127
15, 24300, Note_on_c, 9, 44, 114
15, 24300, Note_on_c, 9, 46, 127
15, 24301, Note_on_c, 9, 70, 120
15, 24301, Note_on_c, 9, 54, 123
15, 24302, Note_on_c, 9, 64, 115
15, 24308, Note_on_c, 9, 65, 0
15, 24314, Note_on_c, 9, 46, 0
15, 24318, Note_on_c, 9, 64, 0
15, 24319, Note_on_c, 9, 70, 0
15, 24322, Note_on_c, 9, 44, 0
15, 24323, Note_on_c, 9, 65, 0
15, 24326, Note_on_c, 9, 54, 0
15, 24360, Note_on_c, 9, 65, 127
15, 24360, Note_on_c, 9, 38, 127
15, 24360, Note_on_c, 9, 36, 127
15, 24360, Note_on_c, 9, 44, 100
15, 24361, Note_on_c, 9, 64, 117
15, 24361, Note_on_c, 9, 42, 112
15, 24361, Note_on_c, 9, 70, 106
15, 24374, Note_on_c, 9, 44, 0
15, 24376, Note_on_c, 9, 36, 0
15, 24377, Note_on_c, 9, 70, 0
15, 24379, Note_on_c, 9, 64, 0
15, 24383, Note_on_c, 9, 42, 0
15, 24383, Note_on_c, 9, 65, 0
15, 24385, Note_on_c, 9, 38, 0
15, 24420, Note_on_c, 9, 44, 117
15, 24421, Note_on_c, 9, 70, 120
15, 24421, Note_on_c, 9, 54, 124
15, 24422, Note_on_c, 9, 62, 125
15, 24434, Note_on_c, 9, 70, 0
15, 24438, Note_on_c, 9, 62, 0
15, 24441, Note_on_c, 9, 54, 0
15, 24442, Note_on_c, 9, 44, 0
15, 24450, Note_on_c, 9, 66, 127
15, 24450, Note_on_c, 9, 62, 127
15, 24465, Note_on_c, 9, 62, 0
15, 24465, Note_on_c, 9, 66, 127
15, 24473, Note_on_c, 9, 66, 0
15, 24480, Note_on_c, 9, 66, 127
15, 24480, Note_on_c, 9, 36, 127
15, 24481, Note_on_c, 9, 42, 123
15, 24482, Note_on_c, 9, 70, 109
15, 24482, Note_on_c, 9, 63, 123
15, 24488, Note_on_c, 9, 66, 0
15, 24492, Note_on_c, 9, 63, 0
15, 24496, Note_on_c, 9, 36, 0
15, 24499, Note_on_c, 9, 70, 0
15, 24499, Note_on_c, 9, 42, 0
15, 24503, Note_on_c, 9, 66, 0
15, 24540, Note_on_c, 9, 65, 127
15, 24540, Note_on_c, 9, 44, 108
15, 24541, Note_on_c, 9, 54, 123
15, 24541, Note_on_c, 9, 70, 118
15, 24542, Note_on_c, 9, 63, 123
15, 24554, Note_on_c, 9, 70, 0
15, 24555, Note_on_c, 9, 63, 0
15, 24558, Note_on_c, 9, 44, 0
15, 24563, Note_on_c, 9, 65, 0
15, 24566, Note_on_c, 9, 54, 0
15, 24600, Note_on_c, 9, 65, 127
15, 24600, Note_on_c, 9, 42, 117
15, 24600, Note_on_c, 9, 38, 127
15, 24600, Note_on_c, 9, 36, 127
15, 24601, Note_on_c, 9, 70, 108
15, 24601, Note_on_c, 9, 64, 119
15, 24615, Note_on_c, 9, 36, 0
15, 24616, Note_on_c, 9, 42, 0
15, 24617, Note_on_c, 9, 70, 0
15, 24623, Note_on_c, 9, 65, 0
15, 24623, Note_on_c, 9, 64, 0
15, 24626, Note_on_c, 9, 38, 0
15, 24660, Note_on_c, 9, 44, 105
15, 24661, Note_on_c, 9, 70, 120
15, 24661, Note_on_c, 9, 54, 124
15, 24662, Note_on_c, 9, 63, 120
15, 24670, Note_on_c, 9, 63, 0
15, 24676, Note_on_c, 9, 70, 0
15, 24678, Note_on_c, 9, 44, 0
15, 24682, Note_on_c, 9, 54, 0
15, 24690, Note_on_c, 9, 65, 127
15, 24690, Note_on_c, 9, 63, 123
15, 24702, Note_on_c, 9, 63, 0
15, 24705, Note_on_c, 9, 65, 127
15, 24713, Note_on_c, 9, 65, 0
15, 24720, Note_on_c, 9, 66, 127
15, 24720, Note_on_c, 9, 36, 127
15, 24721, Note_on_c, 9, 42, 112
15, 24721, Note_on_c, 9, 70, 106
15, 24728, Note_on_c, 9, 65, 0
15, 24738, Note_on_c, 9, 70, 0
15, 24738, Note_on_c, 9, 36, 0
15, 24739, Note_on_c, 9, 42, 0
15, 24743, Note_on_c, 9, 66, 0
15, 24750, Note_on_c, 9, 63, 124
15, 24761, Note_on_c, 9, 63, 0
15, 24780, Note_on_c, 9, 66, 127
15, 24780, Note_on_c, 9, 44, 114
15, 24780, Note_on_c, 9, 46, 127
15, 24781, Note_on_c, 9, 70, 120
15, 24781, Note_on_c, 9, 54, 123
15, 24782, Note_on_c, 9, 64, 115
15, 24794, Note_on_c, 9, 46, 0
15, 24798, Note_on_c, 9, 64, 0
15, 24799, Note_on_c, 9, 70, 0
15, 24802, Note_on_c, 9, 44, 0
15, 24803, Note_on_c, 9, 66, 0
15, 24806, Note_on_c, 9, 54, 0
15, 24840, Note_on_c, 9, 65, 127
15, 24840, Note_on_c, 9, 38, 127
15, 24840, Note_on_c, 9, 36, 127
15, 24840, Note_on_c, 9, 44, 100
15, 24841, Note_on_c, 9, 64, 117
15, 24841, Note_on_c, 9, 42, 112
15, 24841, Note_on_c, 9, 70, 106
15, 24854, Note_on_c, 9, 44, 0
15, 24856, Note_on_c, 9, 36, 0
15, 24857, Note_on_c, 9, 70, 0
15, 24859, Note_on_c, 9, 64, 0
15, 24863, Note_on_c, 9, 42, 0
15, 24863, Note_on_c, 9, 65, 0
15, 24865, Note_on_c, 9, 38, 0
15, 24885, Note_on_c, 9, 65, 127
15, 24900, Note_on_c, 9, 65, 127
15, 24900, Note_on_c, 9, 44, 117
15, 24901, Note_on_c, 9, 70, 120
15, 24901, Note_on_c, 9, 54, 124
15, 24902, Note_on_c, 9, 62, 125
15, 24908, Note_on_c, 9, 65, 0
15, 24914, Note_on_c, 9, 70, 0
15, 24918, Note_on_c, 9, 62, 0
15, 24921, Note_on_c, 9, 54, 0
15, 24922, Note_on_c, 9, 44, 0
15, 24923, Note_on_c, 9, 65, 0
15, 24930, Note_on_c, 9, 62, 127
15, 24945, Note_on_c, 9, 62, 0
15, 24960, Note_on_c, 9, 49, 127
15, 24960, Note_on_c, 9, 36, 127
15, 24961, Note_on_c, 9, 42, 123
15, 24962, Note_on_c, 9, 70, 109
15, 24962, Note_on_c, 9, 63, 123
15, 24972, Note_on_c, 9, 63, 0
15, 24976, Note_on_c, 9, 36, 0
15, 24979, Note_on_c, 9, 70, 0
15, 24979, Note_on_c, 9, 42, 0
15, 24983, Note_on_c, 9, 49, 0
15, 25020, Note_on_c, 9, 44, 108
15, 25021, Note_on_c, 9, 54, 123
15, 25021, Note_on_c, 9, 70, 118
15, 25022, Note_on_c, 9, 63, 123
15, 25034, Note_on_c, 9, 70, 0
15, 25035, Note_on_c, 9, 63, 0
15, 25038, Note_on_c, 9, 44, 0
15, 25046, Note_on_c, 9, 54, 0
15, 25080, Note_on_c, 9, 42, 117
15, 25080, Note_on_c, 9, 38, 127
15, 25080, Note_on_c, 9, 36, 127
15, 25081, Note_on_c, 9, 70, 108
15, 25081, Note_on_c, 9, 64, 119
15, 25095, Note_on_c, 9, 36, 0
15, 25096, Note_on_c, 9, 42, 0
15, 25097, Note_on_c, 9, 70, 0
15, 25103, Note_on_c, 9, 64, 0
15, 25106, Note_on_c, 9, 38, 0
15, 25140, Note_on_c, 9, 44, 105
15, 25141, Note_on_c, 9, 70, 120
15, 25141, Note_on_c, 9, 54, 124
15, 25142, Note_on_c, 9, 63, 120
15, 25150, Note_on_c, 9, 63, 0
15, 25156, Note_on_c, 9, 70, 0
15, 25158, Note_on_c, 9, 44, 0
15, 25162, Note_on_c, 9, 54, 0
15, 25170, Note_on_c, 9, 63, 123
15, 25182, Note_on_c, 9, 63, 0
15, 25200, Note_on_c, 9, 36, 127
15, 25201, Note_on_c, 9, 42, 112
15, 25201, Note_on_c, 9, 70, 106
15, 25218, Note_on_c, 9, 70, 0
15, 25218, Note_on_c, 9, 36, 0
15, 25219, Note_on_c, 9, 42, 0
15, 25230, Note_on_c, 9, 63, 124
15, 25241, Note_on_c, 9, 63, 0
15, 25260, Note_on_c, 9, 44, 114
15, 25260, Note_on_c, 9, 46, 127
15, 25261, Note_on_c, 9, 70, 120
15, 25261, Note_on_c, 9, 54, 123
15, 25262, Note_on_c, 9, 64, 115
15, 25274, Note_on_c, 9, 46, 0
15, 25278, Note_on_c, 9, 64, 0
15, 25279, Note_on_c, 9, 70, 0
15, 25282, Note_on_c, 9, 44, 0
15, 25286, Note_on_c, 9, 54, 0
15, 25320, Note_on_c, 9, 38, 127
15, 25320, Note_on_c, 9, 36, 127
15, 25320, Note_on_c, 9, 44, 100
15, 25321, Note_on_c, 9, 64, 117
15, 25321, Note_on_c, 9, 42, 112
15, 25321, Note_on_c, 9, 70, 106
15, 25334, Note_on_c, 9, 44, 0
15, 25336, Note_on_c, 9, 36, 0
15, 25337, Note_on_c, 9, 70, 0
15, 25339, Note_on_c, 9, 64, 0
15, 25343, Note_on_c, 9, 42, 0
15, 25345, Note_on_c, 9, 38, 0
15, 25380, Note_on_c, 9, 44, 117
15, 25381, Note_on_c, 9, 70, 120
15, 25381, Note_on_c, 9, 54, 124
15, 25382, Note_on_c, 9, 62, 125
15, 25394, Note_on_c, 9, 70, 0
15, 25398, Note_on_c, 9, 62, 0
15, 25401, Note_on_c, 9, 54, 0
15, 25402, Note_on_c, 9, 44, 0
15, 25410, Note_on_c, 9, 62, 127
15, 25425, Note_on_c, 9, 62, 0
15, 25440, Note_on_c, 9, 36, 127
15, 25441, Note_on_c, 9, 42, 123
15, 25442, Note_on_c, 9, 63, 123
15, 25442, Note_on_c, 9, 70, 107
15, 25450, Note_on_c, 9, 63, 0
15, 25455, Note_on_c, 9, 70, 0
15, 25460, Note_on_c, 9, 36, 0
15, 25461, Note_on_c, 9, 42, 0
15, 25500, Note_on_c, 9, 44, 118
15, 25501, Note_on_c, 9, 70, 118
15, 25501, Note_on_c, 9, 54, 124
15, 25502, Note_on_c, 9, 63, 126
15, 25514, Note_on_c, 9, 70, 0
15, 25515, Note_on_c, 9, 63, 0
15, 25520, Note_on_c, 9, 44, 0
15, 25526, Note_on_c, 9, 54, 0
15, 25560, Note_on_c, 9, 36, 127
15, 25560, Note_on_c, 9, 38, 127
15, 25561, Note_on_c, 9, 70, 109
15, 25561, Note_on_c, 9, 64, 115
15, 25561, Note_on_c, 9, 42, 121
15, 25579, Note_on_c, 9, 42, 0
15, 25581, Note_on_c, 9, 70, 0
15, 25583, Note_on_c, 9, 64, 0
15, 25586, Note_on_c, 9, 36, 0
15, 25596, Note_on_c, 9, 38, 0
15, 25620, Note_on_c, 9, 44, 121
15, 25621, Note_on_c, 9, 54, 122
15, 25621, Note_on_c, 9, 70, 120
15, 25622, Note_on_c, 9, 63, 116
15, 25630, Note_on_c, 9, 63, 0
15, 25634, Note_on_c, 9, 70, 0
15, 25638, Note_on_c, 9, 44, 0
15, 25646, Note_on_c, 9, 54, 0
15, 25650, Note_on_c, 9, 63, 122
15, 25661, Note_on_c, 9, 63, 0
15, 25680, Note_on_c, 9, 42, 120
15, 25680, Note_on_c, 9, 36, 127
15, 25681, Note_on_c, 9, 70, 109
15, 25695, Note_on_c, 9, 42, 0
15, 25696, Note_on_c, 9, 70, 0
15, 25706, Note_on_c, 9, 36, 0
15, 25710, Note_on_c, 9, 63, 124
15, 25722, Note_on_c, 9, 63, 0
15, 25740, Note_on_c, 9, 44, 123
15, 25740, Note_on_c, 9, 46, 127
15, 25741, Note_on_c, 9, 54, 124
15, 25741, Note_on_c, 9, 70, 121
15, 25742, Note_on_c, 9, 64, 115
15, 25754, Note_on_c, 9, 46, 0
15, 25756, Note_on_c, 9, 44, 0
15, 25757, Note_on_c, 9, 64, 0
15, 25758, Note_on_c, 9, 70, 0
15, 25763, Note_on_c, 9, 54, 0
15, 25800, Note_on_c, 9, 38, 127
15, 25800, Note_on_c, 9, 36, 127
15, 25800, Note_on_c, 9, 44, 100
15, 25801, Note_on_c, 9, 64, 114
15, 25801, Note_on_c, 9, 42, 122
15, 25801, Note_on_c, 9, 70, 109
15, 25814, Note_on_c, 9, 44, 0
15, 25816, Note_on_c, 9, 70, 0
15, 25821, Note_on_c, 9, 64, 0
15, 25822, Note_on_c, 9, 42, 0
15, 25825, Note_on_c, 9, 38, 0
15, 25828, Note_on_c, 9, 36, 0
15, 25860, Note_on_c, 9, 44, 117
15, 25861, Note_on_c, 9, 54, 123
15, 25862, Note_on_c, 9, 62, 119
15, 25862, Note_on_c, 9, 70, 120
15, 25877, Note_on_c, 9, 70, 0
15, 25878, Note_on_c, 9, 62, 0
15, 25880, Note_on_c, 9, 44, 0
15, 25882, Note_on_c, 9, 54, 0
15, 25890, Note_on_c, 9, 62, 122
15, 25913, Note_on_c, 9, 62, 0
15, 25920, Note_on_c, 9, 36, 127
15, 25921, Note_on_c, 9, 42, 123
15, 25922, Note_on_c, 9, 70, 109
15, 25922, Note_on_c, 9, 63, 123
15, 25932, Note_on_c, 9, 63, 0
15, 25936, Note_on_c, 9, 36, 0
15, 25939, Note_on_c, 9, 70, 0
15, 25939, Note_on_c, 9, 42, 0
15, 25980, Note_on_c, 9, 44, 108
15, 25981, Note_on_c, 9, 54, 123
15, 25981, Note_on_c, 9, 70, 118
15, 25982, Note_on_c, 9, 63, 123
15, 25994, Note_on_c, 9, 70, 0
15, 25995, Note_on_c, 9, 63, 0
15, 25998, Note_on_c, 9, 44, 0
15, 26006, Note_on_c, 9, 54, 0
15, 26040, Note_on_c, 9, 42, 117
15, 26040, Note_on_c, 9, 38, 127
15, 26040, Note_on_c, 9, 36, 127
15, 26041, Note_on_c, 9, 70, 108
15, 26041, Note_on_c, 9, 64, 119
15, 26055, Note_on_c, 9, 36, 0
15, 26056, Note_on_c, 9, 42, 0
15, 26057, Note_on_c, 9, 70, 0
15, 26063, Note_on_c, 9, 64, 0
15, 26066, Note_on_c, 9, 38, 0
15, 26100, Note_on_c, 9, 44, 105
15, 26101, Note_on_c, 9, 70, 120
15, 26101, Note_on_c, 9, 54, 124
15, 26102, Note_on_c, 9, 63, 120
15, 26110, Note_on_c, 9, 63, 0
15, 26116, Note_on_c, 9, 70, 0
15, 26118, Note_on_c, 9, 44, 0
15, 26122, Note_on_c, 9, 54, 0
15, 26130, Note_on_c, 9, 63, 123
15, 26142, Note_on_c, 9, 63, 0
15, 26160, Note_on_c, 9, 36, 127
15, 26161, Note_on_c, 9, 42, 112
15, 26161, Note_on_c, 9, 70, 106
15, 26178, Note_on_c, 9, 70, 0
15, 26178, Note_on_c, 9, 36, 0
15, 26179, Note_on_c, 9, 42, 0
15, 26190, Note_on_c, 9, 63, 124
15, 26201, Note_on_c, 9, 63, 0
15, 26220, Note_on_c, 9, 44, 114
15, 26220, Note_on_c, 9, 46, 127
15, 26221, Note_on_c, 9, 70, 120
15, 26221, Note_on_c, 9, 54, 123
15, 26222, Note_on_c, 9, 64, 115
15, 26234, Note_on_c, 9, 46, 0
15, 26238, Note_on_c, 9, 64, 0
15, 26239, Note_on_c, 9, 70, 0
15, 26242, Note_on_c, 9, 44, 0
15, 26246, Note_on_c, 9, 54, 0
15, 26280, Note_on_c, 9, 38, 127
15, 26280, Note_on_c, 9, 36, 127
15, 26280, Note_on_c, 9, 44, 100
15, 26281, Note_on_c, 9, 64, 117
15, 26281, Note_on_c, 9, 42, 112
15, 26281, Note_on_c, 9, 70, 106
15, 26294, Note_on_c, 9, 44, 0
15, 26296, Note_on_c, 9, 36, 0
15, 26297, Note_on_c, 9, 70, 0
15, 26299, Note_on_c, 9, 64, 0
15, 26303, Note_on_c, 9, 42, 0
15, 26305, Note_on_c, 9, 38, 0
15, 26340, Note_on_c, 9, 44, 117
15, 26341, Note_on_c, 9, 70, 120
15, 26341, Note_on_c, 9, 54, 124
15, 26342, Note_on_c, 9, 62, 125
15, 26354, Note_on_c, 9, 70, 0
15, 26358, Note_on_c, 9, 62, 0
15, 26361, Note_on_c, 9, 54, 0
15, 26362, Note_on_c, 9, 44, 0
15, 26370, Note_on_c, 9, 62, 127
15, 26385, Note_on_c, 9, 62, 0
15, 26400, Note_on_c, 9, 36, 127
15, 26401, Note_on_c, 9, 42, 123
15, 26402, Note_on_c, 9, 63, 123
15, 26402, Note_on_c, 9, 70, 107
15, 26410, Note_on_c, 9, 63, 0
15, 26415, Note_on_c, 9, 70, 0
15, 26420, Note_on_c, 9, 36, 0
15, 26421, Note_on_c, 9, 42, 0
15, 26460, Note_on_c, 9, 44, 118
15, 26461, Note_on_c, 9, 70, 118
15, 26461, Note_on_c, 9, 54, 124
15, 26462, Note_on_c, 9, 63, 126
15, 26474, Note_on_c, 9, 70, 0
15, 26475, Note_on_c, 9, 63, 0
15, 26480, Note_on_c, 9, 44, 0
15, 26486, Note_on_c, 9, 54, 0
15, 26520, Note_on_c, 9, 36, 127
15, 26520, Note_on_c, 9, 38, 127
15, 26521, Note_on_c, 9, 70, 109
15, 26521, Note_on_c, 9, 64, 115
15, 26521, Note_on_c, 9, 42, 121
15, 26539, Note_on_c, 9, 42, 0
15, 26541, Note_on_c, 9, 70, 0
15, 26543, Note_on_c, 9, 64, 0
15, 26546, Note_on_c, 9, 36, 0
15, 26556, Note_on_c, 9, 38, 0
15, 26580, Note_on_c, 9, 44, 121
15, 26581, Note_on_c, 9, 54, 122
15, 26581, Note_on_c, 9, 70, 120
15, 26582, Note_on_c, 9, 63, 116
15, 26590, Note_on_c, 9, 63, 0
15, 26594, Note_on_c, 9, 70, 0
15, 26598, Note_on_c, 9, 44, 0
15, 26606, Note_on_c, 9, 54, 0
15, 26610, Note_on_c, 9, 63, 122
15, 26621, Note_on_c, 9, 63, 0
15, 26640, Note_on_c, 9, 42, 120
15, 26640, Note_on_c, 9, 36, 127
15, 26641, Note_on_c, 9, 70, 109
15, 26655, Note_on_c, 9, 42, 0
15, 26656, Note_on_c, 9, 70, 0
15, 26666, Note_on_c, 9, 36, 0
15, 26670, Note_on_c, 9, 63, 124
15, 26682, Note_on_c, 9, 63, 0
15, 26700, Note_on_c, 9, 44, 123
15, 26700, Note_on_c, 9, 46, 127
15, 26701, Note_on_c, 9, 54, 124
15, 26701, Note_on_c, 9, 70, 121
15, 26702, Note_on_c, 9, 64, 115
15, 26714, Note_on_c, 9, 46, 0
15, 26716, Note_on_c, 9, 44, 0
15, 26717, Note_on_c, 9, 64, 0
15, 26718, Note_on_c, 9, 70, 0
15, 26723, Note_on_c, 9, 54, 0
15, 26760, Note_on_c, 9, 38, 127
15, 26760, Note_on_c, 9, 36, 127
15, 26760, Note_on_c, 9, 44, 100
15, 26761, Note_on_c, 9, 64, 114
15, 26761, Note_on_c, 9, 42, 122
15, 26761, Note_on_c, 9, 70, 109
15, 26774, Note_on_c, 9, 44, 0
15, 26776, Note_on_c, 9, 70, 0
15, 26781, Note_on_c, 9, 64, 0
15, 26782, Note_on_c, 9, 42, 0
15, 26785, Note_on_c, 9, 38, 0
15, 26788, Note_on_c, 9, 36, 0
15, 26820, Note_on_c, 9, 44, 117
15, 26821, Note_on_c, 9, 54, 123
15, 26822, Note_on_c, 9, 62, 119
15, 26822, Note_on_c, 9, 70, 120
15, 26837, Note_on_c, 9, 70, 0
15, 26838, Note_on_c, 9, 62, 0
15, 26840, Note_on_c, 9, 44, 0
15, 26842, Note_on_c, 9, 54, 0
15, 26850, Note_on_c, 9, 62, 122
15, 26873, Note_on_c, 9, 62, 0
15, 26880, Note_on_c, 9, 36, 127
15, 26881, Note_on_c, 9, 42, 123
15, 26882, Note_on_c, 9, 70, 109
15, 26882, Note_on_c, 9, 63, 123
15, 26892, Note_on_c, 9, 63, 0
15, 26896, Note_on_c, 9, 36, 0
15, 26899, Note_on_c, 9, 70, 0
15, 26899, Note_on_c, 9, 42, 0
15, 26940, Note_on_c, 9, 44, 108
15, 26941, Note_on_c, 9, 54, 123
15, 26941, Note_on_c, 9, 70, 118
15, 26942, Note_on_c, 9, 63, 123
15, 26954, Note_on_c, 9, 70, 0
15, 26955, Note_on_c, 9, 63, 0
15, 26958, Note_on_c, 9, 44, 0
15, 26966, Note_on_c, 9, 54, 0
15, 27000, Note_on_c, 9, 42, 117
15, 27000, Note_on_c, 9, 38, 127
15, 27000, Note_on_c, 9, 36, 127
15, 27001, Note_on_c, 9, 70, 108
15, 27001, Note_on_c, 9, 64, 119
15, 27015, Note_on_c, 9, 36, 0
15, 27016, Note_on_c, 9, 42, 0
15, 27017, Note_on_c, 9, 70, 0
15, 27023, Note_on_c, 9, 64, 0
15, 27026, Note_on_c, 9, 38, 0
15, 27060, Note_on_c, 9, 44, 105
15, 27061, Note_on_c, 9, 70, 120
15, 27061, Note_on_c, 9, 54, 124
15, 27062, Note_on_c, 9, 63, 120
15, 27070, Note_on_c, 9, 63, 0
15, 27076, Note_on_c, 9, 70, 0
15, 27078, Note_on_c, 9, 44, 0
15, 27082, Note_on_c, 9, 54, 0
15, 27090, Note_on_c, 9, 63, 123
15, 27102, Note_on_c, 9, 63, 0
15, 27120, Note_on_c, 9, 36, 127
15, 27121, Note_on_c, 9, 42, 112
15, 27121, Note_on_c, 9, 70, 106
15, 27138, Note_on_c, 9, 70, 0
15, 27138, Note_on_c, 9, 36, 0
15, 27139, Note_on_c, 9, 42, 0
15, 27150, Note_on_c, 9, 63, 124
15, 27161, Note_on_c, 9, 63, 0
15, 27180, Note_on_c, 9, 44, 114
15, 27180, Note_on_c, 9, 46, 127
15, 27181, Note_on_c, 9, 70, 120
15, 27181, Note_on_c, 9, 54, 123
15, 27182, Note_on_c, 9, 64, 115
15, 27194, Note_on_c, 9, 46, 0
15, 27198, Note_on_c, 9, 64, 0
15, 27199, Note_on_c, 9, 70, 0
15, 27202, Note_on_c, 9, 44, 0
15, 27206, Note_on_c, 9, 54, 0
15, 27240, Note_on_c, 9, 38, 127
15, 27240, Note_on_c, 9, 36, 127
15, 27240, Note_on_c, 9, 44, 100
15, 27241, Note_on_c, 9, 64, 117
15, 27241, Note_on_c, 9, 42, 112
15, 27241, Note_on_c, 9, 70, 106
15, 27254, Note_on_c, 9, 44, 0
15, 27256, Note_on_c, 9, 36, 0
15, 27257, Note_on_c, 9, 70, 0
15, 27259, Note_on_c, 9, 64, 0
15, 27263, Note_on_c, 9, 42, 0
15, 27265, Note_on_c, 9, 38, 0
15, 27300, Note_on_c, 9, 44, 117
15, 27301, Note_on_c, 9, 70, 120
15, 27301, Note_on_c, 9, 54, 124
15, 27302, Note_on_c, 9, 62, 125
15, 27314, Note_on_c, 9, 70, 0
15, 27318, Note_on_c, 9, 62, 0
15, 27321, Note_on_c, 9, 54, 0
15, 27322, Note_on_c, 9, 44, 0
15, 27330, Note_on_c, 9, 62, 127
15, 27345, Note_on_c, 9, 62, 0
15, 27360, Note_on_c, 9, 36, 127
15, 27361, Note_on_c, 9, 42, 123
15, 27362, Note_on_c, 9, 63, 123
15, 27362, Note_on_c, 9, 70, 107
15, 27370, Note_on_c, 9, 63, 0
15, 27375, Note_on_c, 9, 70, 0
15, 27380, Note_on_c, 9, 36, 0
15, 27381, Note_on_c, 9, 42, 0
15, 27420, Note_on_c, 9, 44, 118
15, 27421, Note_on_c, 9, 70, 118
15, 27421, Note_on_c, 9, 54, 124
15, 27422, Note_on_c, 9, 63, 126
15, 27434, Note_on_c, 9, 70, 0
15, 27435, Note_on_c, 9, 63, 0
15, 27440, Note_on_c, 9, 44, 0
15, 27446, Note_on_c, 9, 54, 0
15, 27480, Note_on_c, 9, 36, 127
15, 27480, Note_on_c, 9, 38, 127
15, 27481, Note_on_c, 9, 70, 109
15, 27481, Note_on_c, 9, 64, 115
15, 27481, Note_on_c, 9, 42, 121
15, 27499, Note_on_c, 9, 42, 0
15, 27501, Note_on_c, 9, 70, 0
15, 27503, Note_on_c, 9, 64, 0
15, 27506, Note_on_c, 9, 36, 0
15, 27516, Note_on_c, 9, 38, 0
15, 27540, Note_on_c, 9, 44, 121
15, 27541, Note_on_c, 9, 54, 122
15, 27541, Note_on_c, 9, 70, 120
15, 27542, Note_on_c, 9, 63, 116
15, 27550, Note_on_c, 9, 63, 0
15, 27554, Note_on_c, 9, 70, 0
15, 27558, Note_on_c, 9, 44, 0
15, 27566, Note_on_c, 9, 54, 0
15, 27570, Note_on_c, 9, 63, 122
15, 27581, Note_on_c, 9, 63, 0
15, 27600, Note_on_c, 9, 42, 120
15, 27600, Note_on_c, 9, 36, 127
15, 27601, Note_on_c, 9, 70, 109
15, 27615, Note_on_c, 9, 42, 0
15, 27616, Note_on_c, 9, 70, 0
15, 27626, Note_on_c, 9, 36, 0
15, 27630, Note_on_c, 9, 63, 124
15, 27642, Note_on_c, 9, 63, 0
15, 27660, Note_on_c, 9, 44, 123
15, 27660, Note_on_c, 9, 46, 127
15, 27661, Note_on_c, 9, 54, 124
15, 27661, Note_on_c, 9, 70, 121
15, 27662, Note_on_c, 9, 64, 115
15, 27674, Note_on_c, 9, 46, 0
15, 27676, Note_on_c, 9, 44, 0
15, 27677, Note_on_c, 9, 64, 0
15, 27678, Note_on_c, 9, 70, 0
15, 27683, Note_on_c, 9, 54, 0
15, 27720, Note_on_c, 9, 38, 127
15, 27720, Note_on_c, 9, 36, 127
15, 27720, Note_on_c, 9, 44, 100
15, 27721, Note_on_c, 9, 64, 114
15, 27721, Note_on_c, 9, 42, 122
15, 27721, Note_on_c, 9, 70, 109
15, 27734, Note_on_c, 9, 44, 0
15, 27736, Note_on_c, 9, 70, 0
15, 27741, Note_on_c, 9, 64, 0
15, 27742, Note_on_c, 9, 42, 0
15, 27745, Note_on_c, 9, 38, 0
15, 27748, Note_on_c, 9, 36, 0
15, 27780, Note_on_c, 9, 44, 117
15, 27781, Note_on_c, 9, 54, 123
15, 27782, Note_on_c, 9, 62, 119
15, 27782, Note_on_c, 9, 70, 120
15, 27797, Note_on_c, 9, 70, 0
15, 27798, Note_on_c, 9, 62, 0
15, 27800, Note_on_c, 9, 44, 0
15, 27802, Note_on_c, 9, 54, 0
15, 27810, Note_on_c, 9, 62, 122
15, 27833, Note_on_c, 9, 62, 0
15, 27840, Note_on_c, 9, 36, 127
15, 27841, Note_on_c, 9, 42, 123
15, 27842, Note_on_c, 9, 70, 109
15, 27842, Note_on_c, 9, 63, 123
15, 27852, Note_on_c, 9, 63, 0
15, 27856, Note_on_c, 9, 36, 0
15, 27859, Note_on_c, 9, 70, 0
15, 27859, Note_on_c, 9, 42, 0
15, 27900, Note_on_c, 9, 44, 108
15, 27901, Note_on_c, 9, 54, 123
15, 27901, Note_on_c, 9, 70, 118
15, 27902, Note_on_c, 9, 63, 123
15, 27914, Note_on_c, 9, 70, 0
15, 27915, Note_on_c, 9, 63, 0
15, 27918, Note_on_c, 9, 44, 0
15, 27926, Note_on_c, 9, 54, 0
15, 27960, Note_on_c, 9, 42, 117
15, 27960, Note_on_c, 9, 38, 127
15, 27960, Note_on_c, 9, 36, 127
15, 27961, Note_on_c, 9, 70, 108
15, 27961, Note_on_c, 9, 64, 119
15, 27975, Note_on_c, 9, 36, 0
15, 27976, Note_on_c, 9, 42, 0
15, 27977, Note_on_c, 9, 70, 0
15, 27983, Note_on_c, 9, 64, 0
15, 27986, Note_on_c, 9, 38, 0
15, 28020, Note_on_c, 9, 44, 105
15, 28021, Note_on_c, 9, 70, 120
15, 28021, Note_on_c, 9, 54, 124
15, 28022, Note_on_c, 9, 63, 120
15, 28030, Note_on_c, 9, 63, 0
15, 28036, Note_on_c, 9, 70, 0
15, 28038, Note_on_c, 9, 44, 0
15, 28042, Note_on_c, 9, 54, 0
15, 28050, Note_on_c, 9, 63, 123
15, 28062, Note_on_c, 9, 63, 0
15, 28080, Note_on_c, 9, 36, 127
15, 28081, Note_on_c, 9, 42, 112
15, 28081, Note_on_c, 9, 70, 106
15, 28098, Note_on_c, 9, 70, 0
15, 28098, Note_on_c, 9, 36, 0
15, 28099, Note_on_c, 9, 42, 0
15, 28110, Note_on_c, 9, 63, 124
15, 28121, Note_on_c, 9, 63, 0
15, 28140, Note_on_c, 9, 44, 114
15, 28140, Note_on_c, 9, 46, 127
15, 28141, Note_on_c, 9, 70, 120
15, 28141, Note_on_c, 9, 54, 123
15, 28142, Note_on_c, 9, 64, 115
15, 28154, Note_on_c, 9, 46, 0
15, 28158, Note_on_c, 9, 64, 0
15, 28159, Note_on_c, 9, 70, 0
15, 28162, Note_on_c, 9, 44, 0
15, 28166, Note_on_c, 9, 54, 0
15, 28200, Note_on_c, 9, 38, 127
15, 28200, Note_on_c, 9, 36, 127
15, 28200, Note_on_c, 9, 44, 100
15, 28201, Note_on_c, 9, 64, 117
15, 28201, Note_on_c, 9, 42, 112
15, 28201, Note_on_c, 9, 70, 106
15, 28214, Note_on_c, 9, 44, 0
15, 28216, Note_on_c, 9, 36, 0
15, 28217, Note_on_c, 9, 70, 0
15, 28219, Note_on_c, 9, 64, 0
15, 28223, Note_on_c, 9, 42, 0
15, 28225, Note_on_c, 9, 38, 0
15, 28260, Note_on_c, 9, 44, 117
15, 28261, Note_on_c, 9, 70, 120
15, 28261, Note_on_c, 9, 54, 124
15, 28262, Note_on_c, 9, 62, 125
15, 28274, Note_on_c, 9, 70, 0
15, 28278, Note_on_c, 9, 62, 0
15, 28281, Note_on_c, 9, 54, 0
15, 28282, Note_on_c, 9, 44, 0
15, 28290, Note_on_c, 9, 62, 127
15, 28305, Note_on_c, 9, 62, 0
15, 28305, Note_on_c, 9, 65, 127
15, 28320, Note_on_c, 9, 65, 127
15, 28320, Note_on_c, 9, 55, 127
15, 28320, Note_on_c, 9, 36, 127
15, 28321, Note_on_c, 9, 42, 123
15, 28322, Note_on_c, 9, 70, 109
15, 28322, Note_on_c, 9, 63, 123
15, 28328, Note_on_c, 9, 65, 0
15, 28332, Note_on_c, 9, 63, 0
15, 28336, Note_on_c, 9, 36, 0
15, 28339, Note_on_c, 9, 42, 0
15, 28339, Note_on_c, 9, 70, 0
15, 28343, Note_on_c, 9, 65, 0
15, 28343, Note_on_c, 9, 55, 0
15, 28380, Note_on_c, 9, 66, 127
15, 28380, Note_on_c, 9, 44, 108
15, 28381, Note_on_c, 9, 54, 123
15, 28381, Note_on_c, 9, 70, 118
15, 28382, Note_on_c, 9, 63, 123
15, 28394, Note_on_c, 9, 70, 0
15, 28395, Note_on_c, 9, 63, 0
15, 28398, Note_on_c, 9, 44, 0
15, 28403, Note_on_c, 9, 66, 0
15, 28406, Note_on_c, 9, 54, 0
15, 28440, Note_on_c, 9, 42, 117
15, 28440, Note_on_c, 9, 38, 127
15, 28440, Note_on_c, 9, 36, 127
15, 28441, Note_on_c, 9, 70, 108
15, 28441, Note_on_c, 9, 64, 119
15, 28455, Note_on_c, 9, 36, 0
15, 28456, Note_on_c, 9, 42, 0
15, 28457, Note_on_c, 9, 70, 0
15, 28463, Note_on_c, 9, 64, 0
15, 28466, Note_on_c, 9, 38, 0
15, 28500, Note_on_c, 9, 44, 105
15, 28501, Note_on_c, 9, 70, 120
15, 28501, Note_on_c, 9, 54, 124
15, 28502, Note_on_c, 9, 63, 120
15, 28510, Note_on_c, 9, 63, 0
15, 28516, Note_on_c, 9, 70, 0
15, 28518, Note_on_c, 9, 44, 0
15, 28522, Note_on_c, 9, 54, 0
15, 28530, Note_on_c, 9, 65, 127
15, 28530, Note_on_c, 9, 63, 123
15, 28542, Note_on_c, 9, 63, 0
15, 28545, Note_on_c, 9, 65, 127
15, 28553, Note_on_c, 9, 65, 0
15, 28560, Note_on_c, 9, 65, 127
15, 28560, Note_on_c, 9, 36, 127
15, 28561, Note_on_c, 9, 42, 112
15, 28561, Note_on_c, 9, 70, 106
15, 28568, Note_on_c, 9, 65, 0
15, 28578, Note_on_c, 9, 70, 0
15, 28578, Note_on_c, 9, 36, 0
15, 28579, Note_on_c, 9, 42, 0
15, 28583, Note_on_c, 9, 65, 0
15, 28590, Note_on_c, 9, 65, 127
15, 28590, Note_on_c, 9, 63, 124
15, 28601, Note_on_c, 9, 63, 0
15, 28605, Note_on_c, 9, 65, 127
15, 28613, Note_on_c, 9, 65, 0
15, 28620, Note_on_c, 9, 65, 127
15, 28620, Note_on_c, 9, 44, 114
15, 28620, Note_on_c, 9, 46, 127
15, 28621, Note_on_c, 9, 70, 120
15, 28621, Note_on_c, 9, 54, 123
15, 28622, Note_on_c, 9, 64, 115
15, 28628, Note_on_c, 9, 65, 0
15, 28634, Note_on_c, 9, 46, 0
15, 28638, Note_on_c, 9, 64, 0
15, 28639, Note_on_c, 9, 70, 0
15, 28642, Note_on_c, 9, 44, 0
15, 28643, Note_on_c, 9, 65, 0
15, 28646, Note_on_c, 9, 54, 0
15, 28680, Note_on_c, 9, 66, 127
15, 28680, Note_on_c, 9, 38, 127
15, 28680, Note_on_c, 9, 36, 127
15, 28680, Note_on_c, 9, 44, 100
15, 28681, Note_on_c, 9, 64, 117
15, 28681, Note_on_c, 9, 42, 112
15, 28681, Note_on_c, 9, 70, 106
15, 28694, Note_on_c, 9, 44, 0
15, 28696, Note_on_c, 9, 36, 0
15, 28697, Note_on_c, 9, 70, 0
15, 28699, Note_on_c, 9, 64, 0
15, 28703, Note_on_c, 9, 42, 0
15, 28703, Note_on_c, 9, 66, 0
15, 28705, Note_on_c, 9, 38, 0
15, 28740, Note_on_c, 9, 66, 127
15, 28740, Note_on_c, 9, 44, 117
15, 28741, Note_on_c, 9, 70, 120
15, 28741, Note_on_c, 9, 54, 124
15, 28742, Note_on_c, 9, 62, 125
15, 28754, Note_on_c, 9, 70, 0
15, 28758, Note_on_c, 9, 62, 0
15, 28761, Note_on_c, 9, 54, 0
15, 28762, Note_on_c, 9, 44, 0
15, 28763, Note_on_c, 9, 66, 0
15, 28770, Note_on_c, 9, 62, 127
15, 28785, Note_on_c, 9, 62, 0
15, 28800, Note_on_c, 9, 57, 127
15, 28800, Note_on_c, 9, 36, 127
15, 28801, Note_on_c, 9, 42, 123
15, 28802, Note_on_c, 9, 70, 109
15, 28802, Note_on_c, 9, 63, 123
15, 28812, Note_on_c, 9, 63, 0
15, 28816, Note_on_c, 9, 36, 0
15, 28819, Note_on_c, 9, 70, 0
15, 28819, Note_on_c, 9, 42, 0
15, 28823, Note_on_c, 9, 57, 0
15, 28860, Note_on_c, 9, 44, 108
15, 28861, Note_on_c, 9, 54, 123
15, 28861, Note_on_c, 9, 70, 118
15, 28862, Note_on_c, 9, 63, 123
15, 28874, Note_on_c, 9, 70, 0
15, 28875, Note_on_c, 9, 63, 0
15, 28878, Note_on_c, 9, 44, 0
15, 28886, Note_on_c, 9, 54, 0
15, 28920, Note_on_c, 9, 42, 117
15, 28920, Note_on_c, 9, 38, 127
15, 28920, Note_on_c, 9, 36, 127
15, 28921, Note_on_c, 9, 70, 108
15, 28921, Note_on_c, 9, 64, 119
15, 28935, Note_on_c, 9, 36, 0
15, 28936, Note_on_c, 9, 42, 0
15, 28937, Note_on_c, 9, 70, 0
15, 28943, Note_on_c, 9, 64, 0
15, 28946, Note_on_c, 9, 38, 0
15, 28980, Note_on_c, 9, 44, 105
15, 28981, Note_on_c, 9, 70, 120
15, 28981, Note_on_c, 9, 54, 124
15, 28982, Note_on_c, 9, 63, 120
15, 28990, Note_on_c, 9, 63, 0
15, 28996, Note_on_c, 9, 70, 0
15, 28998, Note_on_c, 9, 44, 0
15, 29002, Note_on_c, 9, 54, 0
15, 29010, Note_on_c, 9, 63, 123
15, 29022, Note_on_c, 9, 63, 0
15, 29040, Note_on_c, 9, 36, 127
15, 29041, Note_on_c, 9, 42, 112
15, 29041, Note_on_c, 9, 70, 106
15, 29058, Note_on_c, 9, 70, 0
15, 29058, Note_on_c, 9, 36, 0
15, 29059, Note_on_c, 9, 42, 0
15, 29070, Note_on_c, 9, 63, 124
15, 29081, Note_on_c, 9, 63, 0
15, 29100, Note_on_c, 9, 44, 114
15, 29100, Note_on_c, 9, 46, 127
15, 29101, Note_on_c, 9, 70, 120
15, 29101, Note_on_c, 9, 54, 123
15, 29102, Note_on_c, 9, 64, 115
15, 29114, Note_on_c, 9, 46, 0
15, 29118, Note_on_c, 9, 64, 0
15, 29119, Note_on_c, 9, 70, 0
15, 29122, Note_on_c, 9, 44, 0
15, 29126, Note_on_c, 9, 54, 0
15, 29160, Note_on_c, 9, 38, 127
15, 29160, Note_on_c, 9, 36, 127
15, 29160, Note_on_c, 9, 44, 100
15, 29161, Note_on_c, 9, 64, 117
15, 29161, Note_on_c, 9, 42, 112
15, 29161, Note_on_c, 9, 70, 106
15, 29174, Note_on_c, 9, 44, 0
15, 29176, Note_on_c, 9, 36, 0
15, 29177, Note_on_c, 9, 70, 0
15, 29179, Note_on_c, 9, 64, 0
15, 29183, Note_on_c, 9, 42, 0
15, 29185, Note_on_c, 9, 38, 0
15, 29220, Note_on_c, 9, 44, 117
15, 29221, Note_on_c, 9, 70, 120
15, 29221, Note_on_c, 9, 54, 124
15, 29222, Note_on_c, 9, 62, 125
15, 29234, Note_on_c, 9, 70, 0
15, 29238, Note_on_c, 9, 62, 0
15, 29241, Note_on_c, 9, 54, 0
15, 29242, Note_on_c, 9, 44, 0
15, 29250, Note_on_c, 9, 62, 127
15, 29265, Note_on_c, 9, 62, 0
15, 29280, Note_on_c, 9, 36, 127
15, 29281, Note_on_c, 9, 42, 123
15, 29282, Note_on_c, 9, 63, 123
15, 29282, Note_on_c, 9, 70, 107
15, 29290, Note_on_c, 9, 63, 0
15, 29295, Note_on_c, 9, 70, 0
15, 29300, Note_on_c, 9, 36, 0
15, 29301, Note_on_c, 9, 42, 0
15, 29340, Note_on_c, 9, 66, 127
15, 29340, Note_on_c, 9, 44, 118
15, 29341, Note_on_c, 9, 70, 118
15, 29341, Note_on_c, 9, 54, 124
15, 29342, Note_on_c, 9, 63, 126
15, 29354, Note_on_c, 9, 70, 0
15, 29355, Note_on_c, 9, 63, 0
15, 29360, Note_on_c, 9, 44, 0
15, 29363, Note_on_c, 9, 66, 0
15, 29366, Note_on_c, 9, 54, 0
15, 29400, Note_on_c, 9, 36, 127
15, 29400, Note_on_c, 9, 38, 127
15, 29401, Note_on_c, 9, 70, 109
15, 29401, Note_on_c, 9, 64, 115
15, 29401, Note_on_c, 9, 42, 121
15, 29419, Note_on_c, 9, 42, 0
15, 29421, Note_on_c, 9, 70, 0
15, 29423, Note_on_c, 9, 64, 0
15, 29426, Note_on_c, 9, 36, 0
15, 29436, Note_on_c, 9, 38, 0
15, 29460, Note_on_c, 9, 65, 127
15, 29460, Note_on_c, 9, 44, 121
15, 29461, Note_on_c, 9, 54, 122
15, 29461, Note_on_c, 9, 70, 120
15, 29462, Note_on_c, 9, 63, 116
15, 29470, Note_on_c, 9, 63, 0
15, 29474, Note_on_c, 9, 70, 0
15, 29478, Note_on_c, 9, 44, 0
15, 29483, Note_on_c, 9, 65, 0
15, 29486, Note_on_c, 9, 54, 0
15, 29490, Note_on_c, 9, 63, 122
15, 29501, Note_on_c, 9, 63, 0
15, 29520, Note_on_c, 9, 65, 127
15, 29520, Note_on_c, 9, 42, 120
15, 29520, Note_on_c, 9, 36, 127
15, 29521, Note_on_c, 9, 70, 109
15, 29535, Note_on_c, 9, 42, 0
15, 29536, Note_on_c, 9, 70, 0
15, 29543, Note_on_c, 9, 65, 0
15, 29546, Note_on_c, 9, 36, 0
15, 29550, Note_on_c, 9, 63, 124
15, 29562, Note_on_c, 9, 63, 0
15, 29580, Note_on_c, 9, 44, 123
15, 29580, Note_on_c, 9, 46, 127
15, 29581, Note_on_c, 9, 54, 124
15, 29581, Note_on_c, 9, 70, 121
15, 29582, Note_on_c, 9, 64, 115
15, 29594, Note_on_c, 9, 46, 0
15, 29596, Note_on_c, 9, 44, 0
15, 29597, Note_on_c, 9, 64, 0
15, 29598, Note_on_c, 9, 70, 0
15, 29603, Note_on_c, 9, 54, 0
15, 29640, Note_on_c, 9, 38, 127
15, 29640, Note_on_c, 9, 36, 127
15, 29640, Note_on_c, 9, 44, 100
15, 29641, Note_on_c, 9, 64, 114
15, 29641, Note_on_c, 9, 42, 122
15, 29641, Note_on_c, 9, 70, 109
15, 29654, Note_on_c, 9, 44, 0
15, 29656, Note_on_c, 9, 70, 0
15, 29661, Note_on_c, 9, 64, 0
15, 29662, Note_on_c, 9, 42, 0
15, 29665, Note_on_c, 9, 38, 0
15, 29668, Note_on_c, 9, 36, 0
15, 29700, Note_on_c, 9, 44, 117
15, 29701, Note_on_c, 9, 54, 123
15, 29702, Note_on_c, 9, 62, 119
15, 29702, Note_on_c, 9, 70, 120
15, 29717, Note_on_c, 9, 70, 0
15, 29718, Note_on_c, 9, 62, 0
15, 29720, Note_on_c, 9, 44, 0
15, 29722, Note_on_c, 9, 54, 0
15, 29730, Note_on_c, 9, 62, 122
15, 29753, Note_on_c, 9, 62, 0
15, 29760, Note_on_c, 9, 36, 127
15, 29761, Note_on_c, 9, 42, 123
15, 29762, Note_on_c, 9, 70, 109
15, 29762, Note_on_c, 9, 63, 123
15, 29772, Note_on_c, 9, 63, 0
15, 29776, Note_on_c, 9, 36, 0
15, 29779, Note_on_c, 9, 70, 0
15, 29779, Note_on_c, 9, 42, 0
15, 29820, Note_on_c, 9, 44, 108
15, 29821, Note_on_c, 9, 54, 123
15, 29821, Note_on_c, 9, 70, 118
15, 29822, Note_on_c, 9, 63, 123
15, 29834, Note_on_c, 9, 70, 0
15, 29835, Note_on_c, 9, 63, 0
15, 29838, Note_on_c, 9, 44, 0
15, 29846, Note_on_c, 9, 54, 0
15, 29880, Note_on_c, 9, 42, 117
15, 29880, Note_on_c, 9, 38, 127
15, 29880, Note_on_c, 9, 36, 127
15, 29881, Note_on_c, 9, 70, 108
15, 29881, Note_on_c, 9, 64, 119
15, 29895, Note_on_c, 9, 36, 0
15, 29896, Note_on_c, 9, 42, 0
15, 29897, Note_on_c, 9, 70, 0
15, 29903, Note_on_c, 9, 64, 0
15, 29906, Note_on_c, 9, 38, 0
15, 29940, Note_on_c, 9, 44, 105
15, 29941, Note_on_c, 9, 70, 120
15, 29941, Note_on_c, 9, 54, 124
15, 29942, Note_on_c, 9, 63, 120
15, 29950, Note_on_c, 9, 63, 0
15, 29956, Note_on_c, 9, 70, 0
15, 29958, Note_on_c, 9, 44, 0
15, 29962, Note_on_c, 9, 54, 0
15, 29970, Note_on_c, 9, 63, 123
15, 29982, Note_on_c, 9, 63, 0
15, 30000, Note_on_c, 9, 36, 127
15, 30001, Note_on_c, 9, 42, 112
15, 30001, Note_on_c, 9, 70, 106
15, 30018, Note_on_c, 9, 70, 0
15, 30018, Note_on_c, 9, 36, 0
15, 30019, Note_on_c, 9, 42, 0
15, 30030, Note_on_c, 9, 63, 124
15, 30041, Note_on_c, 9, 63, 0
15, 30060, Note_on_c, 9, 44, 114
15, 30060, Note_on_c, 9, 46, 127
15, 30061, Note_on_c, 9, 70, 120
15, 30061, Note_on_c, 9, 54, 123
15, 30062, Note_on_c, 9, 64, 115
15, 30074, Note_on_c, 9, 46, 0
15, 30078, Note_on_c, 9, 64, 0
15, 30079, Note_on_c, 9, 70, 0
15, 30082, Note_on_c, 9, 44, 0
15, 30086, Note_on_c, 9, 54, 0
15, 30120, Note_on_c, 9, 38, 127
15, 30120, Note_on_c, 9, 36, 127
15, 30120, Note_on_c, 9, 44, 100
15, 30121, Note_on_c, 9, 64, 117
15, 30121, Note_on_c, 9, 42, 112
15, 30121, Note_on_c, 9, 70, 106
15, 30134, Note_on_c, 9, 44, 0
15, 30136, Note_on_c, 9, 36, 0
15, 30137, Note_on_c, 9, 70, 0
15, 30139, Note_on_c, 9, 64, 0
15, 30143, Note_on_c, 9, 42, 0
15, 30145, Note_on_c, 9, 38, 0
15, 30180, Note_on_c, 9, 44, 117
15, 30181, Note_on_c, 9, 70, 120
15, 30181, Note_on_c, 9, 54, 124
15, 30182, Note_on_c, 9, 62, 125
15, 30194, Note_on_c, 9, 70, 0
15, 30198, Note_on_c, 9, 62, 0
15, 30201, Note_on_c, 9, 54, 0
15, 30202, Note_on_c, 9, 44, 0
15, 30210, Note_on_c, 9, 62, 127
15, 30225, Note_on_c, 9, 62, 0
15, 30240, Note_on_c, 9, 36, 127
15, 30241, Note_on_c, 9, 42, 123
15, 30242, Note_on_c, 9, 63, 123
15, 30242, Note_on_c, 9, 70, 107
15, 30250, Note_on_c, 9, 63, 0
15, 30255, Note_on_c, 9, 70, 0
15, 30260, Note_on_c, 9, 36, 0
15, 30261, Note_on_c, 9, 42, 0
15, 30300, Note_on_c, 9, 44, 118
15, 30301, Note_on_c, 9, 70, 118
15, 30301, Note_on_c, 9, 54, 124
15, 30302, Note_on_c, 9, 63, 126
15, 30314, Note_on_c, 9, 70, 0
15, 30315, Note_on_c, 9, 63, 0
15, 30320, Note_on_c, 9, 44, 0
15, 30326, Note_on_c, 9, 54, 0
15, 30360, Note_on_c, 9, 36, 127
15, 30360, Note_on_c, 9, 38, 127
15, 30361, Note_on_c, 9, 70, 109
15, 30361, Note_on_c, 9, 64, 115
15, 30361, Note_on_c, 9, 42, 121
15, 30379, Note_on_c, 9, 42, 0
15, 30381, Note_on_c, 9, 70, 0
15, 30383, Note_on_c, 9, 64, 0
15, 30386, Note_on_c, 9, 36, 0
15, 30396, Note_on_c, 9, 38, 0
15, 30405, Note_on_c, 9, 65, 127
15, 30420, Note_on_c, 9, 65, 127
15, 30420, Note_on_c, 9, 44, 121
15, 30421, Note_on_c, 9, 54, 122
15, 30421, Note_on_c, 9, 70, 120
15, 30422, Note_on_c, 9, 63, 116
15, 30428, Note_on_c, 9, 65, 0
15, 30430, Note_on_c, 9, 63, 0
15, 30434, Note_on_c, 9, 70, 0
15, 30438, Note_on_c, 9, 44, 0
15, 30443, Note_on_c, 9, 65, 0
15, 30446, Note_on_c, 9, 54, 0
15, 30450, Note_on_c, 9, 63, 122
15, 30461, Note_on_c, 9, 63, 0
15, 30480, Note_on_c, 9, 65, 127
15, 30480, Note_on_c, 9, 42, 120
15, 30480, Note_on_c, 9, 36, 127
15, 30481, Note_on_c, 9, 70, 109
15, 30495, Note_on_c, 9, 42, 0
15, 30496, Note_on_c, 9, 70, 0
15, 30503, Note_on_c, 9, 65, 0
15, 30506, Note_on_c, 9, 36, 0
15, 30510, Note_on_c, 9, 63, 124
15, 30522, Note_on_c, 9, 63, 0
15, 30540, Note_on_c, 9, 44, 123
15, 30540, Note_on_c, 9, 46, 127
15, 30541, Note_on_c, 9, 54, 124
15, 30541, Note_on_c, 9, 70, 121
15, 30542, Note_on_c, 9, 64, 115
15, 30554, Note_on_c, 9, 46, 0
15, 30556, Note_on_c, 9, 44, 0
15, 30557, Note_on_c, 9, 64, 0
15, 30558, Note_on_c, 9, 70, 0
15, 30563, Note_on_c, 9, 54, 0
15, 30600, Note_on_c, 9, 38, 127
15, 30600, Note_on_c, 9, 36, 127
15, 30600, Note_on_c, 9, 44, 100
15, 30601, Note_on_c, 9, 64, 114
15, 30601, Note_on_c, 9, 42, 122
15, 30601, Note_on_c, 9, 70, 109
15, 30614, Note_on_c, 9, 44, 0
15, 30616, Note_on_c, 9, 70, 0
15, 30621, Note_on_c, 9, 64, 0
15, 30622, Note_on_c, 9, 42, 0
15, 30625, Note_on_c, 9, 38, 0
15, 30628, Note_on_c, 9, 36, 0
15, 30660, Note_on_c, 9, 65, 127
15, 30660, Note_on_c, 9, 44, 117
15, 30661, Note_on_c, 9, 54, 123
15, 30662, Note_on_c, 9, 62, 119
15, 30662, Note_on_c, 9, 70, 120
15, 30677, Note_on_c, 9, 70, 0
15, 30678, Note_on_c, 9, 62, 0
15, 30680, Note_on_c, 9, 44, 0
15, 30682, Note_on_c, 9, 54, 0
15, 30683, Note_on_c, 9, 65, 0
15, 30690, Note_on_c, 9, 62, 122
15, 30713, Note_on_c, 9, 62, 0
15, 30720, Note_on_c, 9, 55, 127
15, 30720, Note_on_c, 9, 36, 127
15, 30721, Note_on_c, 9, 42, 123
15, 30722, Note_on_c, 9, 70, 109
15, 30722, Note_on_c, 9, 63, 123
15, 30732, Note_on_c, 9, 63, 0
15, 30736, Note_on_c, 9, 36, 0
15, 30739, Note_on_c, 9, 70, 0
15, 30739, Note_on_c, 9, 42, 0
15, 30743, Note_on_c, 9, 55, 0
15, 30780, Note_on_c, 9, 44, 108
15, 30781, Note_on_c, 9, 54, 123
15, 30781, Note_on_c, 9, 70, 118
15, 30782, Note_on_c, 9, 63, 123
15, 30794, Note_on_c, 9, 70, 0
15, 30795, Note_on_c, 9, 63, 0
15, 30798, Note_on_c, 9, 44, 0
15, 30806, Note_on_c, 9, 54, 0
15, 30840, Note_on_c, 9, 42, 117
15, 30840, Note_on_c, 9, 38, 127
15, 30840, Note_on_c, 9, 36, 127
15, 30841, Note_on_c, 9, 70, 108
15, 30841, Note_on_c, 9, 64, 119
15, 30855, Note_on_c, 9, 36, 0
15, 30856, Note_on_c, 9, 42, 0
15, 30857, Note_on_c, 9, 70, 0
15, 30863, Note_on_c, 9, 64, 0
15, 30866, Note_on_c, 9, 38, 0
15, 30900, Note_on_c, 9, 44, 105
15, 30901, Note_on_c, 9, 70, 120
15, 30901, Note_on_c, 9, 54, 124
15, 30902, Note_on_c, 9, 63, 120
15, 30910, Note_on_c, 9, 63, 0
15, 30916, Note_on_c, 9, 70, 0
15, 30918, Note_on_c, 9, 44, 0
15, 30922, Note_on_c, 9, 54, 0
15, 30930, Note_on_c, 9, 63, 123
15, 30942, Note_on_c, 9, 63, 0
15, 30960, Note_on_c, 9, 36, 127
15, 30961, Note_on_c, 9, 42, 112
15, 30961, Note_on_c, 9, 70, 106
15, 30978, Note_on_c, 9, 70, 0
15, 30978, Note_on_c, 9, 36, 0
15, 30979, Note_on_c, 9, 42, 0
15, 30990, Note_on_c, 9, 63, 124
15, 31001, Note_on_c, 9, 63, 0
15, 31020, Note_on_c, 9, 44, 114
15, 31020, Note_on_c, 9, 46, 127
15, 31021, Note_on_c, 9, 70, 120
15, 31021, Note_on_c, 9, 54, 123
15, 31022, Note_on_c, 9, 64, 115
15, 31034, Note_on_c, 9, 46, 0
15, 31038, Note_on_c, 9, 64, 0
15, 31039, Note_on_c, 9, 70, 0
15, 31042, Note_on_c, 9, 44, 0
15, 31046, Note_on_c, 9, 54, 0
15, 31080, Note_on_c, 9, 38, 127
15, 31080, Note_on_c, 9, 36, 127
15, 31080, Note_on_c, 9, 44, 100
15, 31081, Note_on_c, 9, 64, 117
15, 31081, Note_on_c, 9, 42, 112
15, 31081, Note_on_c, 9, 70, 106
15, 31094, Note_on_c, 9, 44, 0
15, 31096, Note_on_c, 9, 36, 0
15, 31097, Note_on_c, 9, 70, 0
15, 31099, Note_on_c, 9, 64, 0
15, 31103, Note_on_c, 9, 42, 0
15, 31105, Note_on_c, 9, 38, 0
15, 31140, Note_on_c, 9, 44, 117
15, 31141, Note_on_c, 9, 70, 120
15, 31141, Note_on_c, 9, 54, 124
15, 31142, Note_on_c, 9, 62, 125
15, 31154, Note_on_c, 9, 70, 0
15, 31158, Note_on_c, 9, 62, 0
15, 31161, Note_on_c, 9, 54, 0
15, 31162, Note_on_c, 9, 44, 0
15, 31170, Note_on_c, 9, 62, 127
15, 31185, Note_on_c, 9, 62, 0
15, 31200, Note_on_c, 9, 49, 127
15, 31200, Note_on_c, 9, 36, 127
15, 31201, Note_on_c, 9, 42, 123
15, 31202, Note_on_c, 9, 63, 123
15, 31202, Note_on_c, 9, 70, 107
15, 31210, Note_on_c, 9, 63, 0
15, 31215, Note_on_c, 9, 70, 0
15, 31220, Note_on_c, 9, 36, 0
15, 31221, Note_on_c, 9, 42, 0
15, 31223, Note_on_c, 9, 49, 0
15, 31260, Note_on_c, 9, 44, 118
15, 31261, Note_on_c, 9, 70, 118
15, 31261, Note_on_c, 9, 54, 124
15, 31262, Note_on_c, 9, 63, 126
15, 31274, Note_on_c, 9, 70, 0
15, 31275, Note_on_c, 9, 63, 0
15, 31280, Note_on_c, 9, 44, 0
15, 31286, Note_on_c, 9, 54, 0
15, 31320, Note_on_c, 9, 36, 127
15, 31320, Note_on_c, 9, 38, 127
15, 31321, Note_on_c, 9, 70, 109
15, 31321, Note_on_c, 9, 64, 115
15, 31321, Note_on_c, 9, 42, 121
15, 31339, Note_on_c, 9, 42, 0
15, 31341, Note_on_c, 9, 70, 0
15, 31343, Note_on_c, 9, 64, 0
15, 31346, Note_on_c, 9, 36, 0
15, 31356, Note_on_c, 9, 38, 0
15, 31380, Note_on_c, 9, 44, 121
15, 31381, Note_on_c, 9, 54, 122
15, 31381, Note_on_c, 9, 70, 120
15, 31382, Note_on_c, 9, 63, 116
15, 31390, Note_on_c, 9, 63, 0
15, 31394, Note_on_c, 9, 70, 0
15, 31398, Note_on_c, 9, 44, 0
15, 31406, Note_on_c, 9, 54, 0
15, 31410, Note_on_c, 9, 63, 122
15, 31421, Note_on_c, 9, 63, 0
15, 31440, Note_on_c, 9, 55, 127
15, 31440, Note_on_c, 9, 42, 120
15, 31440, Note_on_c, 9, 36, 127
15, 31441, Note_on_c, 9, 70, 109
15, 31455, Note_on_c, 9, 42, 0
15, 31456, Note_on_c, 9, 70, 0
15, 31463, Note_on_c, 9, 55, 0
15, 31466, Note_on_c, 9, 36, 0
15, 31470, Note_on_c, 9, 63, 124
15, 31482, Note_on_c, 9, 63, 0
15, 31500, Note_on_c, 9, 65, 127
15, 31500, Note_on_c, 9, 44, 123
15, 31500, Note_on_c, 9, 46, 127
15, 31501, Note_on_c, 9, 54, 124
15, 31501, Note_on_c, 9, 70, 121
15, 31502, Note_on_c, 9, 64, 115
15, 31514, Note_on_c, 9, 46, 0
15, 31516, Note_on_c, 9, 44, 0
15, 31517, Note_on_c, 9, 64, 0
15, 31518, Note_on_c, 9, 70, 0
15, 31523, Note_on_c, 9, 54, 0
15, 31523, Note_on_c, 9, 65, 0
15, 31560, Note_on_c, 9, 38, 127
15, 31560, Note_on_c, 9, 36, 127
15, 31560, Note_on_c, 9, 44, 100
15, 31561, Note_on_c, 9, 64, 114
15, 31561, Note_on_c, 9, 42, 122
15, 31561, Note_on_c, 9, 70, 109
15, 31574, Note_on_c, 9, 44, 0
15, 31576, Note_on_c, 9, 70, 0
15, 31581, Note_on_c, 9, 64, 0
15, 31582, Note_on_c, 9, 42, 0
15, 31585, Note_on_c, 9, 38, 0
15, 31588, Note_on_c, 9, 36, 0
15, 31620, Note_on_c, 9, 65, 127
15, 31620, Note_on_c, 9, 44, 117
15, 31621, Note_on_c, 9, 54, 123
15, 31622, Note_on_c, 9, 62, 119
15, 31622, Note_on_c, 9, 70, 120
15, 31637, Note_on_c, 9, 70, 0
15, 31638, Note_on_c, 9, 62, 0
15, 31640, Note_on_c, 9, 44, 0
15, 31642, Note_on_c, 9, 54, 0
15, 31643, Note_on_c, 9, 65, 0
15, 31650, Note_on_c, 9, 62, 122
15, 31673, Note_on_c, 9, 62, 0
15, 31680, Note_on_c, 9, 57, 127
15, 31680, Note_on_c, 9, 36, 127
15, 31681, Note_on_c, 9, 42, 123
15, 31682, Note_on_c, 9, 70, 109
15, 31682, Note_on_c, 9, 63, 123
15, 31692, Note_on_c, 9, 63, 0
15, 31696, Note_on_c, 9, 36, 0
15, 31699, Note_on_c, 9, 70, 0
15, 31699, Note_on_c, 9, 42, 0
15, 31703, Note_on_c, 9, 57, 0
15, 31740, Note_on_c, 9, 44, 108
15, 31741, Note_on_c, 9, 54, 123
15, 31741, Note_on_c, 9, 70, 118
15, 31742, Note_on_c, 9, 63, 123
15, 31754, Note_on_c, 9, 70, 0
15, 31755, Note_on_c, 9, 63, 0
15, 31758, Note_on_c, 9, 44, 0
15, 31766, Note_on_c, 9, 54, 0
15, 31800, Note_on_c, 9, 42, 117
15, 31800, Note_on_c, 9, 38, 127
15, 31800, Note_on_c, 9, 36, 127
15, 31801, Note_on_c, 9, 70, 108
15, 31801, Note_on_c, 9, 64, 119
15, 31815, Note_on_c, 9, 36, 0
15, 31816, Note_on_c, 9, 42, 0
15, 31817, Note_on_c, 9, 70, 0
15, 31823, Note_on_c, 9, 64, 0
15, 31826, Note_on_c, 9, 38, 0
15, 31860, Note_on_c, 9, 44, 105
15, 31861, Note_on_c, 9, 70, 120
15, 31861, Note_on_c, 9, 54, 124
15, 31862, Note_on_c, 9, 63, 120
15, 31870, Note_on_c, 9, 63, 0
15, 31876, Note_on_c, 9, 70, 0
15, 31878, Note_on_c, 9, 44, 0
15, 31882, Note_on_c, 9, 54, 0
15, 31890, Note_on_c, 9, 63, 123
15, 31902, Note_on_c, 9, 63, 0
15, 31920, Note_on_c, 9, 36, 127
15, 31921, Note_on_c, 9, 42, 112
15, 31921, Note_on_c, 9, 70, 106
15, 31938, Note_on_c, 9, 70, 0
15, 31938, Note_on_c, 9, 36, 0
15, 31939, Note_on_c, 9, 42, 0
15, 31950, Note_on_c, 9, 63, 124
15, 31961, Note_on_c, 9, 63, 0
15, 31980, Note_on_c, 9, 44, 114
15, 31980, Note_on_c, 9, 46, 127
15, 31981, Note_on_c, 9, 70, 120
15, 31981, Note_on_c, 9, 54, 123
15, 31982, Note_on_c, 9, 64, 115
15, 31994, Note_on_c, 9, 46, 0
15, 31998, Note_on_c, 9, 64, 0
15, 31999, Note_on_c, 9, 70, 0
15, 32002, Note_on_c, 9, 44, 0
15, 32006, Note_on_c, 9, 54, 0
15, 32040, Note_on_c, 9, 38, 127
15, 32040, Note_on_c, 9, 36, 127
15, 32040, Note_on_c, 9, 44, 100
15, 32041, Note_on_c, 9, 64, 117
15, 32041, Note_on_c, 9, 42, 112
15, 32041, Note_on_c, 9, 70, 106
15, 32054, Note_on_c, 9, 44, 0
15, 32056, Note_on_c, 9, 36, 0
15, 32057, Note_on_c, 9, 70, 0
15, 32059, Note_on_c, 9, 64, 0
15, 32063, Note_on_c, 9, 42, 0
15, 32065, Note_on_c, 9, 38, 0
15, 32100, Note_on_c, 9, 44, 117
15, 32101, Note_on_c, 9, 70, 120
15, 32101, Note_on_c, 9, 54, 124
15, 32102, Note_on_c, 9, 62, 125
15, 32114, Note_on_c, 9, 70, 0
15, 32118, Note_on_c, 9, 62, 0
15, 32121, Note_on_c, 9, 54, 0
15, 32122, Note_on_c, 9, 44, 0
15, 32130, Note_on_c, 9, 62, 127
15, 32145, Note_on_c, 9, 62, 0
15, 32160, Note_on_c, 9, 36, 127
15, 32161, Note_on_c, 9, 70, 113
15, 32161, Note_on_c, 9, 42, 118
15, 32162, Note_on_c, 9, 63, 122
15, 32175, Note_on_c, 9, 63, 0
15, 32176, Note_on_c, 9, 36, 0
15, 32176, Note_on_c, 9, 70, 0
15, 32181, Note_on_c, 9, 42, 0
15, 32220, Note_on_c, 9, 44, 97
15, 32221, Note_on_c, 9, 54, 127
15, 32221, Note_on_c, 9, 70, 127
15, 32222, Note_on_c, 9, 63, 122
15, 32227, Note_on_c, 9, 63, 0
15, 32238, Note_on_c, 9, 54, 0
15, 32241, Note_on_c, 9, 70, 0
15, 32243, Note_on_c, 9, 44, 0
15, 32250, Note_on_c, 9, 66, 127
15, 32250, Note_on_c, 9, 65, 127
15, 32270, Note_on_c, 9, 65, 0
15, 32273, Note_on_c, 9, 66, 0
15, 32280, Note_on_c, 9, 38, 127
15, 32280, Note_on_c, 9, 36, 127
15, 32281, Note_on_c, 9, 64, 122
15, 32281, Note_on_c, 9, 70, 122
15, 32281, Note_on_c, 9, 65, 127
15, 32281, Note_on_c, 9, 42, 118
15, 32291, Note_on_c, 9, 70, 0
15, 32295, Note_on_c, 9, 36, 0
15, 32298, Note_on_c, 9, 42, 0
15, 32306, Note_on_c, 9, 38, 0
15, 32306, Note_on_c, 9, 64, 0
15, 32321, Note_on_c, 9, 65, 0
15, 32340, Note_on_c, 9, 44, 110
15, 32341, Note_on_c, 9, 54, 117
15, 32341, Note_on_c, 9, 70, 127
15, 32342, Note_on_c, 9, 63, 120
15, 32356, Note_on_c, 9, 54, 0
15, 32357, Note_on_c, 9, 63, 0
15, 32362, Note_on_c, 9, 70, 0
15, 32362, Note_on_c, 9, 44, 0
15, 32370, Note_on_c, 9, 63, 127
15, 32386, Note_on_c, 9, 63, 0
15, 32400, Note_on_c, 9, 36, 127
15, 32401, Note_on_c, 9, 42, 120
15, 32401, Note_on_c, 9, 70, 123
15, 32414, Note_on_c, 9, 70, 0
15, 32418, Note_on_c, 9, 36, 0
15, 32421, Note_on_c, 9, 42, 0
15, 32430, Note_on_c, 9, 63, 127
15, 32441, Note_on_c, 9, 63, 0
15, 32460, Note_on_c, 9, 66, 127
15, 32460, Note_on_c, 9, 44, 105
15, 32460, Note_on_c, 9, 46, 127
15, 32461, Note_on_c, 9, 64, 115
15, 32461, Note_on_c, 9, 65, 101
15, 32461, Note_on_c, 9, 54, 122
15, 32461, Note_on_c, 9, 70, 127
15, 32473, Note_on_c, 9, 65, 0
15, 32474, Note_on_c, 9, 46, 0
15, 32477, Note_on_c, 9, 64, 0
15, 32479, Note_on_c, 9, 54, 0
15, 32482, Note_on_c, 9, 44, 0
15, 32482, Note_on_c, 9, 70, 0
15, 32483, Note_on_c, 9, 66, 0
15, 32520, Note_on_c, 9, 36, 127
15, 32520, Note_on_c, 9, 38, 127
15, 32520, Note_on_c, 9, 44, 100
15, 32521, Note_on_c, 9, 64, 114
15, 32521, Note_on_c, 9, 70, 109
15, 32521, Note_on_c, 9, 65, 127
15, 32521, Note_on_c, 9, 42, 120
15, 32534, Note_on_c, 9, 44, 0
15, 32536, Note_on_c, 9, 36, 0
15, 32537, Note_on_c, 9, 70, 0
15, 32539, Note_on_c, 9, 64, 0
15, 32542, Note_on_c, 9, 42, 0
15, 32545, Note_on_c, 9, 38, 0
15, 32571, Note_on_c, 9, 65, 0
15, 32580, Note_on_c, 9, 65, 127
15, 32580, Note_on_c, 9, 44, 98
15, 32581, Note_on_c, 9, 70, 120
15, 32581, Note_on_c, 9, 54, 124
15, 32582, Note_on_c, 9, 62, 120
15, 32594, Note_on_c, 9, 70, 0
15, 32597, Note_on_c, 9, 62, 0
15, 32603, Note_on_c, 9, 65, 0
15, 32606, Note_on_c, 9, 44, 0
15, 32606, Note_on_c, 9, 54, 0
15, 32610, Note_on_c, 9, 62, 120
15, 32626, Note_on_c, 9, 62, 0
15, 32640, Note_on_c, 9, 36, 127
15, 32641, Note_on_c, 9, 42, 121
15, 32642, Note_on_c, 9, 49, 115
15, 32642, Note_on_c, 9, 63, 127
15, 32642, Note_on_c, 9, 70, 104
15, 32653, Note_on_c, 9, 49, 0
15, 32655, Note_on_c, 9, 36, 0
15, 32658, Note_on_c, 9, 63, 0
15, 32660, Note_on_c, 9, 70, 0
15, 32664, Note_on_c, 9, 42, 0
15, 32700, Note_on_c, 9, 44, 103
15, 32701, Note_on_c, 9, 63, 114
15, 32701, Note_on_c, 9, 70, 115
15, 32701, Note_on_c, 9, 54, 127
15, 32711, Note_on_c, 9, 63, 0
15, 32714, Note_on_c, 9, 70, 0
15, 32722, Note_on_c, 9, 44, 0
15, 32726, Note_on_c, 9, 54, 0
15, 32760, Note_on_c, 9, 38, 127
15, 32760, Note_on_c, 9, 36, 127
15, 32761, Note_on_c, 9, 70, 104
15, 32761, Note_on_c, 9, 64, 115
15, 32761, Note_on_c, 9, 42, 123
15, 32778, Note_on_c, 9, 36, 0
15, 32781, Note_on_c, 9, 70, 0
15, 32783, Note_on_c, 9, 64, 0
15, 32788, Note_on_c, 9, 38, 0
15, 32791, Note_on_c, 9, 42, 0
15, 32820, Note_on_c, 9, 44, 111
15, 32821, Note_on_c, 9, 54, 124
15, 32821, Note_on_c, 9, 70, 118
15, 32822, Note_on_c, 9, 63, 113
15, 32832, Note_on_c, 9, 63, 0
15, 32839, Note_on_c, 9, 70, 0
15, 32842, Note_on_c, 9, 44, 0
15, 32843, Note_on_c, 9, 54, 0
15, 32850, Note_on_c, 9, 63, 127
15, 32861, Note_on_c, 9, 63, 0
15, 32880, Note_on_c, 9, 42, 118
15, 32880, Note_on_c, 9, 36, 127
15, 32881, Note_on_c, 9, 70, 105
15, 32898, Note_on_c, 9, 36, 0
15, 32899, Note_on_c, 9, 70, 0
15, 32901, Note_on_c, 9, 42, 0
15, 32910, Note_on_c, 9, 63, 127
15, 32921, Note_on_c, 9, 63, 0
15, 32940, Note_on_c, 9, 44, 108
15, 32940, Note_on_c, 9, 46, 127
15, 32941, Note_on_c, 9, 64, 110
15, 32941, Note_on_c, 9, 54, 123
15, 32941, Note_on_c, 9, 70, 122
15, 32954, Note_on_c, 9, 46, 0
15, 32955, Note_on_c, 9, 44, 0
15, 32957, Note_on_c, 9, 64, 0
15, 32958, Note_on_c, 9, 54, 0
15, 32962, Note_on_c, 9, 70, 0
15, 33000, Note_on_c, 9, 36, 127
15, 33000, Note_on_c, 9, 38, 127
15, 33000, Note_on_c, 9, 44, 100
15, 33001, Note_on_c, 9, 42, 126
15, 33001, Note_on_c, 9, 70, 108
15, 33001, Note_on_c, 9, 64, 109
15, 33014, Note_on_c, 9, 44, 0
15, 33017, Note_on_c, 9, 70, 0
15, 33019, Note_on_c, 9, 64, 0
15, 33020, Note_on_c, 9, 36, 0
15, 33022, Note_on_c, 9, 42, 0
15, 33033, Note_on_c, 9, 38, 0
15, 33060, Note_on_c, 9, 44, 107
15, 33061, Note_on_c, 9, 70, 120
15, 33061, Note_on_c, 9, 54, 122
15, 33062, Note_on_c, 9, 62, 119
15, 33075, Note_on_c, 9, 62, 0
15, 33077, Note_on_c, 9, 70, 0
15, 33078, Note_on_c, 9, 44, 0
15, 33082, Note_on_c, 9, 54, 0
15, 33090, Note_on_c, 9, 62, 115
15, 33112, Note_on_c, 9, 62, 0
15, 33120, Note_on_c, 9, 42, 122
15, 33120, Note_on_c, 9, 36, 127
15, 33122, Note_on_c, 9, 63, 127
15, 33122, Note_on_c, 9, 70, 116
15, 33132, Note_on_c, 9, 63, 0
15, 33134, Note_on_c, 9, 70, 0
15, 33135, Note_on_c, 9, 36, 0
15, 33145, Note_on_c, 9, 42, 0
15, 33180, Note_on_c, 9, 44, 116
15, 33181, Note_on_c, 9, 70, 118
15, 33181, Note_on_c, 9, 63, 118
15, 33181, Note_on_c, 9, 54, 126
15, 33191, Note_on_c, 9, 63, 0
15, 33196, Note_on_c, 9, 70, 0
15, 33201, Note_on_c, 9, 54, 0
15, 33202, Note_on_c, 9, 44, 0
15, 33240, Note_on_c, 9, 38, 127
15, 33240, Note_on_c, 9, 36, 127
15, 33241, Note_on_c, 9, 42, 122
15, 33241, Note_on_c, 9, 64, 118
15, 33241, Note_on_c, 9, 70, 114
15, 33253, Note_on_c, 9, 64, 0
15, 33257, Note_on_c, 9, 70, 0
15, 33260, Note_on_c, 9, 36, 0
15, 33262, Note_on_c, 9, 42, 0
15, 33270, Note_on_c, 9, 38, 0
15, 33300, Note_on_c, 9, 44, 116
15, 33301, Note_on_c, 9, 54, 118
15, 33301, Note_on_c, 9, 70, 117
15, 33301, Note_on_c, 9, 63, 109
15, 33311, Note_on_c, 9, 63, 0
15, 33317, Note_on_c, 9, 70, 0
15, 33318, Note_on_c, 9, 44, 0
15, 33322, Note_on_c, 9, 54, 0
15, 33330, Note_on_c, 9, 63, 127
15, 33342, Note_on_c, 9, 63, 0
15, 33360, Note_on_c, 9, 36, 127
15, 33361, Note_on_c, 9, 70, 114
15, 33361, Note_on_c, 9, 42, 123
15, 33376, Note_on_c, 9, 70, 0
15, 33382, Note_on_c, 9, 36, 0
15, 33383, Note_on_c, 9, 42, 0
15, 33390, Note_on_c, 9, 63, 124
15, 33401, Note_on_c, 9, 63, 0
15, 33420, Note_on_c, 9, 44, 111
15, 33420, Note_on_c, 9, 46, 127
15, 33421, Note_on_c, 9, 70, 118
15, 33421, Note_on_c, 9, 54, 124
15, 33422, Note_on_c, 9, 64, 114
15, 33433, Note_on_c, 9, 64, 0
15, 33434, Note_on_c, 9, 46, 0
15, 33434, Note_on_c, 9, 54, 0
15, 33436, Note_on_c, 9, 70, 0
15, 33438, Note_on_c, 9, 44, 0
15, 33480, Note_on_c, 9, 38, 127
15, 33480, Note_on_c, 9, 36, 127
15, 33480, Note_on_c, 9, 44, 100
15, 33481, Note_on_c, 9, 42, 123
15, 33481, Note_on_c, 9, 64, 118
15, 33481, Note_on_c, 9, 70, 111
15, 33494, Note_on_c, 9, 44, 0
15, 33496, Note_on_c, 9, 64, 0
15, 33497, Note_on_c, 9, 70, 0
15, 33498, Note_on_c, 9, 36, 0
15, 33498, Note_on_c, 9, 38, 0
15, 33502, Note_on_c, 9, 42, 0
15, 33540, Note_on_c, 9, 44, 112
15, 33541, Note_on_c, 9, 54, 118
15, 33541, Note_on_c, 9, 70, 117
15, 33542, Note_on_c, 9, 62, 122
15, 33556, Note_on_c, 9, 70, 0
15, 33557, Note_on_c, 9, 62, 0
15, 33558, Note_on_c, 9, 44, 0
15, 33561, Note_on_c, 9, 54, 0
15, 33570, Note_on_c, 9, 62, 125
15, 33590, Note_on_c, 9, 62, 0
15, 33601, Note_on_c, 9, 36, 127
15, 33601, Note_on_c, 9, 42, 121
15, 33602, Note_on_c, 9, 70, 109
15, 33602, Note_on_c, 9, 63, 127
15, 33610, Note_on_c, 9, 63, 0
15, 33614, Note_on_c, 9, 70, 0
15, 33619, Note_on_c, 9, 36, 0
15, 33623, Note_on_c, 9, 42, 0
15, 33660, Note_on_c, 9, 44, 106
15, 33661, Note_on_c, 9, 70, 120
15, 33661, Note_on_c, 9, 54, 123
15, 33662, Note_on_c, 9, 63, 124
15, 33665, Note_on_c, 9, 63, 0
15, 33674, Note_on_c, 9, 54, 0
15, 33678, Note_on_c, 9, 44, 0
15, 33682, Note_on_c, 9, 70, 0
15, 33720, Note_on_c, 9, 36, 127
15, 33720, Note_on_c, 9, 38, 127
15, 33721, Note_on_c, 9, 42, 120
15, 33721, Note_on_c, 9, 70, 106
15, 33721, Note_on_c, 9, 64, 122
15, 33733, Note_on_c, 9, 64, 0
15, 33736, Note_on_c, 9, 70, 0
15, 33739, Note_on_c, 9, 42, 0
15, 33746, Note_on_c, 9, 36, 0
15, 33756, Note_on_c, 9, 38, 0
15, 33780, Note_on_c, 9, 44, 113
15, 33781, Note_on_c, 9, 70, 117
15, 33781, Note_on_c, 9, 54, 121
15, 33782, Note_on_c, 9, 63, 118
15, 33787, Note_on_c, 9, 63, 0
15, 33794, Note_on_c, 9, 70, 0
15, 33801, Note_on_c, 9, 54, 0
15, 33802, Note_on_c, 9, 44, 0
15, 33810, Note_on_c, 9, 63, 127
15, 33826, Note_on_c, 9, 63, 0
15, 33840, Note_on_c, 9, 36, 127
15, 33841, Note_on_c, 9, 70, 110
15, 33841, Note_on_c, 9, 42, 115
15, 33859, Note_on_c, 9, 70, 0
15, 33863, Note_on_c, 9, 42, 0
15, 33866, Note_on_c, 9, 36, 0
15, 33870, Note_on_c, 9, 63, 123
15, 33882, Note_on_c, 9, 63, 0
15, 33900, Note_on_c, 9, 44, 118
15, 33900, Note_on_c, 9, 46, 127
15, 33901, Note_on_c, 9, 54, 123
15, 33901, Note_on_c, 9, 70, 118
15, 33902, Note_on_c, 9, 64, 117
15, 33914, Note_on_c, 9, 46, 0
15, 33916, Note_on_c, 9, 70, 0
15, 33917, Note_on_c, 9, 64, 0
15, 33917, Note_on_c, 9, 54, 0
15, 33926, Note_on_c, 9, 44, 0
15, 33960, Note_on_c, 9, 36, 127
15, 33960, Note_on_c, 9, 38, 127
15, 33960, Note_on_c, 9, 44, 100
15, 33961, Note_on_c, 9, 42, 120
15, 33961, Note_on_c, 9, 70, 110
15, 33974, Note_on_c, 9, 44, 0
15, 33977, Note_on_c, 9, 70, 0
15, 33978, Note_on_c, 9, 42, 0
15, 33985, Note_on_c, 9, 38, 0
15, 33988, Note_on_c, 9, 36, 0
15, 34020, Note_on_c, 9, 44, 112
15, 34021, Note_on_c, 9, 54, 122
15, 34021, Note_on_c, 9, 70, 122
15, 34022, Note_on_c, 9, 62, 124
15, 34027, Note_on_c, 9, 62, 0
15, 34037, Note_on_c, 9, 70, 0
15, 34038, Note_on_c, 9, 44, 0
15, 34042, Note_on_c, 9, 54, 0
15, 34050, Note_on_c, 9, 62, 119
15, 34070, Note_on_c, 9, 62, 0
15, 34081, Note_on_c, 9, 42, 121
15, 34081, Note_on_c, 9, 36, 127
15, 34082, Note_on_c, 9, 70, 111
15, 34096, Note_on_c, 9, 36, 0
15, 34098, Note_on_c, 9, 70, 0
15, 34103, Note_on_c, 9, 42, 0
15, 34140, Note_on_c, 9, 44, 105
15, 34141, Note_on_c, 9, 70, 122
15, 34141, Note_on_c, 9, 54, 120
15, 34142, Note_on_c, 9, 63, 122
15, 34150, Note_on_c, 9, 63, 0
15, 34156, Note_on_c, 9, 70, 0
15, 34161, Note_on_c, 9, 54, 0
15, 34161, Note_on_c, 9, 44, 0
15, 34200, Note_on_c, 9, 36, 127
15, 34200, Note_on_c, 9, 38, 127
15, 34201, Note_on_c, 9, 64, 117
15, 34201, Note_on_c, 9, 42, 120
15, 34201, Note_on_c, 9, 70, 109
15, 34213, Note_on_c, 9, 64, 0
15, 34215, Note_on_c, 9, 36, 0
15, 34216, Note_on_c, 9, 70, 0
15, 34223, Note_on_c, 9, 42, 0
15, 34226, Note_on_c, 9, 38, 0
15, 34260, Note_on_c, 9, 44, 113
15, 34261, Note_on_c, 9, 70, 120
15, 34261, Note_on_c, 9, 54, 123
15, 34261, Note_on_c, 9, 63, 120
15, 34266, Note_on_c, 9, 63, 0
15, 34277, Note_on_c, 9, 54, 0
15, 34277, Note_on_c, 9, 70, 0
15, 34278, Note_on_c, 9, 44, 0
15, 34290, Note_on_c, 9, 63, 124
15, 34301, Note_on_c, 9, 63, 0
15, 34320, Note_on_c, 9, 36, 127
15, 34321, Note_on_c, 9, 70, 112
15, 34321, Note_on_c, 9, 42, 120
15, 34336, Note_on_c, 9, 70, 0
15, 34338, Note_on_c, 9, 36, 0
15, 34342, Note_on_c, 9, 42, 0
15, 34350, Note_on_c, 9, 63, 126
15, 34361, Note_on_c, 9, 63, 0
15, 34380, Note_on_c, 9, 44, 111
15, 34380, Note_on_c, 9, 46, 127
15, 34381, Note_on_c, 9, 54, 120
15, 34381, Note_on_c, 9, 70, 124
15, 34382, Note_on_c, 9, 64, 117
15, 34394, Note_on_c, 9, 46, 0
15, 34398, Note_on_c, 9, 70, 0
15, 34398, Note_on_c, 9, 44, 0
15, 34398, Note_on_c, 9, 54, 0
15, 34403, Note_on_c, 9, 64, 0
15, 34440, Note_on_c, 9, 36, 127
15, 34440, Note_on_c, 9, 44, 100
15, 34441, Note_on_c, 9, 64, 114
15, 34441, Note_on_c, 9, 70, 107
15, 34441, Note_on_c, 9, 38, 127
15, 34441, Note_on_c, 9, 42, 124
15, 34454, Note_on_c, 9, 44, 0
15, 34456, Note_on_c, 9, 36, 0
15, 34457, Note_on_c, 9, 70, 0
15, 34461, Note_on_c, 9, 64, 0
15, 34462, Note_on_c, 9, 42, 0
15, 34464, Note_on_c, 9, 38, 0
15, 34500, Note_on_c, 9, 44, 116
15, 34501, Note_on_c, 9, 70, 118
15, 34501, Note_on_c, 9, 62, 124
15, 34501, Note_on_c, 9, 54, 122
15, 34514, Note_on_c, 9, 70, 0
15, 34517, Note_on_c, 9, 62, 0
15, 34518, Note_on_c, 9, 44, 0
15, 34522, Note_on_c, 9, 54, 0
15, 34530, Note_on_c, 9, 62, 116
15, 34553, Note_on_c, 9, 62, 0
15, 34561, Note_on_c, 9, 36, 127
15, 34561, Note_on_c, 9, 42, 124
15, 34562, Note_on_c, 9, 70, 105
15, 34562, Note_on_c, 9, 63, 126
15, 34574, Note_on_c, 9, 36, 0
15, 34575, Note_on_c, 9, 70, 0
15, 34579, Note_on_c, 9, 63, 0
15, 34582, Note_on_c, 9, 42, 0
15, 34620, Note_on_c, 9, 44, 122
15, 34621, Note_on_c, 9, 54, 123
15, 34622, Note_on_c, 9, 63, 123
15, 34622, Note_on_c, 9, 70, 122
15, 34635, Note_on_c, 9, 63, 0
15, 34638, Note_on_c, 9, 44, 0
15, 34640, Note_on_c, 9, 70, 0
15, 34642, Note_on_c, 9, 54, 0
15, 34680, Note_on_c, 9, 36, 127
15, 34681, Note_on_c, 9, 64, 115
15, 34681, Note_on_c, 9, 42, 123
15, 34681, Note_on_c, 9, 70, 106
15, 34681, Note_on_c, 9, 38, 127
15, 34696, Note_on_c, 9, 70, 0
15, 34698, Note_on_c, 9, 36, 0
15, 34702, Note_on_c, 9, 42, 0
15, 34703, Note_on_c, 9, 64, 0
15, 34708, Note_on_c, 9, 38, 0
15, 34740, Note_on_c, 9, 44, 108
15, 34741, Note_on_c, 9, 54, 120
15, 34741, Note_on_c, 9, 70, 120
15, 34742, Note_on_c, 9, 63, 120
15, 34750, Note_on_c, 9, 63, 0
15, 34754, Note_on_c, 9, 70, 0
15, 34758, Note_on_c, 9, 44, 0
15, 34761, Note_on_c, 9, 54, 0
15, 34770, Note_on_c, 9, 63, 127
15, 34781, Note_on_c, 9, 63, 0
15, 34800, Note_on_c, 9, 36, 127
15, 34801, Note_on_c, 9, 70, 108
15, 34801, Note_on_c, 9, 42, 127
15, 34816, Note_on_c, 9, 70, 0
15, 34818, Note_on_c, 9, 36, 0
15, 34819, Note_on_c, 9, 42, 0
15, 34830, Note_on_c, 9, 63, 122
15, 34841, Note_on_c, 9, 63, 0
15, 34860, Note_on_c, 9, 44, 113
15, 34860, Note_on_c, 9, 46, 127
15, 34861, Note_on_c, 9, 70, 122
15, 34861, Note_on_c, 9, 54, 121
15, 34862, Note_on_c, 9, 64, 120
15, 34874, Note_on_c, 9, 46, 0
15, 34877, Note_on_c, 9, 64, 0
15, 34877, Note_on_c, 9, 70, 0
15, 34878, Note_on_c, 9, 44, 0
15, 34881, Note_on_c, 9, 54, 0
15, 34920, Note_on_c, 9, 42, 127
15, 34920, Note_on_c, 9, 36, 127
15, 34920, Note_on_c, 9, 38, 127
15, 34920, Note_on_c, 9, 44, 100
15, 34921, Note_on_c, 9, 64, 118
15, 34921, Note_on_c, 9, 70, 110
15, 34934, Note_on_c, 9, 44, 0
15, 34937, Note_on_c, 9, 70, 0
15, 34938, Note_on_c, 9, 64, 0
15, 34940, Note_on_c, 9, 36, 0
15, 34943, Note_on_c, 9, 42, 0
15, 34953, Note_on_c, 9, 38, 0
15, 34980, Note_on_c, 9, 44, 116
15, 34981, Note_on_c, 9, 54, 123
15, 34981, Note_on_c, 9, 70, 118
15, 34982, Note_on_c, 9, 62, 124
15, 34994, Note_on_c, 9, 70, 0
15, 34999, Note_on_c, 9, 62, 0
15, 35000, Note_on_c, 9, 44, 0
15, 35001, Note_on_c, 9, 54, 0
15, 35010, Note_on_c, 9, 62, 124
15, 35033, Note_on_c, 9, 62, 0
15, 35040, Note_on_c, 9, 36, 127
15, 35041, Note_on_c, 9, 42, 124
15, 35042, Note_on_c, 9, 70, 109
15, 35042, Note_on_c, 9, 63, 124
15, 35055, Note_on_c, 9, 70, 0
15, 35055, Note_on_c, 9, 36, 0
15, 35059, Note_on_c, 9, 63, 0
15, 35061, Note_on_c, 9, 42, 0
15, 35100, Note_on_c, 9, 44, 116
15, 35101, Note_on_c, 9, 70, 120
15, 35102, Note_on_c, 9, 54, 124
15, 35102, Note_on_c, 9, 63, 127
15, 35117, Note_on_c, 9, 63, 0
15, 35117, Note_on_c, 9, 54, 0
15, 35117, Note_on_c, 9, 70, 0
15, 35122, Note_on_c, 9, 44, 0
15, 35160, Note_on_c, 9, 36, 127
15, 35160, Note_on_c, 9, 38, 127
15, 35161, Note_on_c, 9, 42, 122
15, 35161, Note_on_c, 9, 64, 122
15, 35161, Note_on_c, 9, 70, 109
15, 35177, Note_on_c, 9, 70, 0
15, 35180, Note_on_c, 9, 36, 0
15, 35182, Note_on_c, 9, 42, 0
15, 35184, Note_on_c, 9, 64, 0
15, 35190, Note_on_c, 9, 38, 0
15, 35220, Note_on_c, 9, 44, 114
15, 35221, Note_on_c, 9, 70, 118
15, 35221, Note_on_c, 9, 54, 126
15, 35222, Note_on_c, 9, 63, 117
15, 35232, Note_on_c, 9, 63, 0
15, 35237, Note_on_c, 9, 54, 0
15, 35237, Note_on_c, 9, 70, 0
15, 35238, Note_on_c, 9, 44, 0
15, 35250, Note_on_c, 9, 63, 123
15, 35262, Note_on_c, 9, 63, 0
15, 35280, Note_on_c, 9, 36, 127
15, 35280, Note_on_c, 9, 42, 126
15, 35281, Note_on_c, 9, 70, 110
15, 35296, Note_on_c, 9, 70, 0
15, 35301, Note_on_c, 9, 42, 0
15, 35302, Note_on_c, 9, 36, 0
15, 35310, Note_on_c, 9, 63, 124
15, 35322, Note_on_c, 9, 63, 0
15, 35340, Note_on_c, 9, 44, 111
15, 35340, Note_on_c, 9, 46, 127
15, 35341, Note_on_c, 9, 54, 126
15, 35341, Note_on_c, 9, 70, 120
15, 35342, Note_on_c, 9, 64, 115
15, 35354, Note_on_c, 9, 46, 0
15, 35357, Note_on_c, 9, 70, 0
15, 35357, Note_on_c, 9, 64, 0
15, 35358, Note_on_c, 9, 44, 0
15, 35361, Note_on_c, 9, 54, 0
15, 35400, Note_on_c, 9, 36, 127
15, 35400, Note_on_c, 9, 38, 127
15, 35400, Note_on_c, 9, 44, 100
15, 35401, Note_on_c, 9, 42, 123
15, 35401, Note_on_c, 9, 70, 110
15, 35401, Note_on_c, 9, 64, 114
15, 35414, Note_on_c, 9, 44, 0
15, 35417, Note_on_c, 9, 70, 0
15, 35418, Note_on_c, 9, 36, 0
15, 35418, Note_on_c, 9, 38, 0
15, 35419, Note_on_c, 9, 64, 0
15, 35427, Note_on_c, 9, 42, 0
15, 35460, Note_on_c, 9, 44, 116
15, 35461, Note_on_c, 9, 54, 124
15, 35461, Note_on_c, 9, 70, 122
15, 35462, Note_on_c, 9, 62, 125
15, 35472, Note_on_c, 9, 62, 0
15, 35477, Note_on_c, 9, 70, 0
15, 35478, Note_on_c, 9, 54, 0
15, 35482, Note_on_c, 9, 44, 0
15, 35490, Note_on_c, 9, 62, 127
15, 35510, Note_on_c, 9, 62, 0
15, 35520, Note_on_c, 9, 36, 127
15, 35521, Note_on_c, 9, 42, 126
15, 35522, Note_on_c, 9, 63, 127
15, 35522, Note_on_c, 9, 70, 110
15, 35538, Note_on_c, 9, 70, 0
15, 35539, Note_on_c, 9, 63, 0
15, 35540, Note_on_c, 9, 36, 0
15, 35541, Note_on_c, 9, 42, 0
15, 35580, Note_on_c, 9, 44, 99
15, 35581, Note_on_c, 9, 70, 122
15, 35581, Note_on_c, 9, 54, 126
15, 35582, Note_on_c, 9, 63, 126
15, 35595, Note_on_c, 9, 63, 0
15, 35601, Note_on_c, 9, 54, 0
15, 35602, Note_on_c, 9, 70, 0
15, 35602, Note_on_c, 9, 44, 0
15, 35640, Note_on_c, 9, 38, 127
15, 35640, Note_on_c, 9, 36, 127
15, 35641, Note_on_c, 9, 70, 110
15, 35641, Note_on_c, 9, 42, 124
15, 35641, Note_on_c, 9, 64, 110
15, 35653, Note_on_c, 9, 64, 0
15, 35657, Note_on_c, 9, 70, 0
15, 35664, Note_on_c, 9, 42, 0
15, 35666, Note_on_c, 9, 36, 0
15, 35676, Note_on_c, 9, 38, 0
15, 35700, Note_on_c, 9, 44, 113
15, 35701, Note_on_c, 9, 63, 123
15, 35701, Note_on_c, 9, 54, 126
15, 35701, Note_on_c, 9, 70, 123
15, 35713, Note_on_c, 9, 63, 0
15, 35718, Note_on_c, 9, 44, 0
15, 35718, Note_on_c, 9, 54, 0
15, 35718, Note_on_c, 9, 70, 0
15, 35730, Note_on_c, 9, 63, 126
15, 35742, Note_on_c, 9, 63, 0
15, 35760, Note_on_c, 9, 36, 127
15, 35760, Note_on_c, 9, 42, 115
15, 35761, Note_on_c, 9, 70, 107
15, 35776, Note_on_c, 9, 70, 0
15, 35781, Note_on_c, 9, 42, 0
15, 35786, Note_on_c, 9, 36, 0
15, 35790, Note_on_c, 9, 64, 115
15, 35808, Note_on_c, 9, 64, 0
15, 35820, Note_on_c, 9, 44, 118
15, 35820, Note_on_c, 9, 46, 127
15, 35821, Note_on_c, 9, 70, 122
15, 35821, Note_on_c, 9, 54, 126
15, 35821, Note_on_c, 9, 64, 113
15, 35834, Note_on_c, 9, 46, 0
15, 35837, Note_on_c, 9, 64, 0
15, 35837, Note_on_c, 9, 70, 0
15, 35841, Note_on_c, 9, 54, 0
15, 35842, Note_on_c, 9, 44, 0
15, 35880, Note_on_c, 9, 38, 127
15, 35880, Note_on_c, 9, 36, 127
15, 35880, Note_on_c, 9, 44, 100
15, 35881, Note_on_c, 9, 42, 115
15, 35881, Note_on_c, 9, 64, 122
15, 35881, Note_on_c, 9, 70, 109
15, 35894, Note_on_c, 9, 64, 0
15, 35894, Note_on_c, 9, 44, 0
15, 35897, Note_on_c, 9, 70, 0
15, 35902, Note_on_c, 9, 42, 0
15, 35905, Note_on_c, 9, 38, 0
15, 35908, Note_on_c, 9, 36, 0
15, 35940, Note_on_c, 9, 44, 106
15, 35941, Note_on_c, 9, 54, 127
15, 35941, Note_on_c, 9, 70, 126
15, 35942, Note_on_c, 9, 62, 122
15, 35957, Note_on_c, 9, 70, 0
15, 35957, Note_on_c, 9, 54, 0
15, 35958, Note_on_c, 9, 44, 0
15, 35958, Note_on_c, 9, 62, 0
15, 35970, Note_on_c, 9, 63, 127
15, 35986, Note_on_c, 9, 63, 0
15, 36000, Note_on_c, 9, 36, 127
15, 36001, Note_on_c, 9, 70, 113
15, 36001, Note_on_c, 9, 42, 118
15, 36002, Note_on_c, 9, 63, 122
15, 36015, Note_on_c, 9, 63, 0
15, 36016, Note_on_c, 9, 36, 0
15, 36016, Note_on_c, 9, 70, 0
15, 36021, Note_on_c, 9, 42, 0
15, 36060, Note_on_c, 9, 44, 97
15, 36061, Note_on_c, 9, 54, 127
15, 36061, Note_on_c, 9, 70, 127
15, 36062, Note_on_c, 9, 63, 122
15, 36067, Note_on_c, 9, 63, 0
15, 36078, Note_on_c, 9, 54, 0
15, 36081, Note_on_c, 9, 70, 0
15, 36083, Note_on_c, 9, 44, 0
15, 36090, Note_on_c, 9, 66, 127
15, 36090, Note_on_c, 9, 65, 127
15, 36110, Note_on_c, 9, 65, 0
15, 36113, Note_on_c, 9, 66, 0
15, 36120, Note_on_c, 9, 66, 127
15, 36120, Note_on_c, 9, 38, 127
15, 36120, Note_on_c, 9, 36, 127
15, 36121, Note_on_c, 9, 64, 122
15, 36121, Note_on_c, 9, 70, 122
15, 36121, Note_on_c, 9, 65, 127
15, 36121, Note_on_c, 9, 42, 118
15, 36131, Note_on_c, 9, 70, 0
15, 36135, Note_on_c, 9, 36, 0
15, 36138, Note_on_c, 9, 42, 0
15, 36143, Note_on_c, 9, 66, 0
15, 36146, Note_on_c, 9, 38, 0
15, 36146, Note_on_c, 9, 64, 0
15, 36161, Note_on_c, 9, 65, 0
15, 36180, Note_on_c, 9, 44, 110
15, 36181, Note_on_c, 9, 54, 117
15, 36181, Note_on_c, 9, 70, 127
15, 36182, Note_on_c, 9, 63, 120
15, 36196, Note_on_c, 9, 54, 0
15, 36197, Note_on_c, 9, 63, 0
15, 36202, Note_on_c, 9, 70, 0
15, 36202, Note_on_c, 9, 44, 0
15, 36210, Note_on_c, 9, 63, 127
15, 36226, Note_on_c, 9, 63, 0
15, 36240, Note_on_c, 9, 36, 127
15, 36241, Note_on_c, 9, 42, 120
15, 36241, Note_on_c, 9, 70, 123
15, 36254, Note_on_c, 9, 70, 0
15, 36258, Note_on_c, 9, 36, 0
15, 36261, Note_on_c, 9, 42, 0
15, 36270, Note_on_c, 9, 63, 127
15, 36281, Note_on_c, 9, 63, 0
15, 36285, Note_on_c, 9, 66, 127
15, 36300, Note_on_c, 9, 66, 127
15, 36300, Note_on_c, 9, 44, 105
15, 36300, Note_on_c, 9, 46, 127
15, 36301, Note_on_c, 9, 64, 115
15, 36301, Note_on_c, 9, 65, 101
15, 36301, Note_on_c, 9, 54, 122
15, 36301, Note_on_c, 9, 70, 127
15, 36308, Note_on_c, 9, 66, 0
15, 36313, Note_on_c, 9, 65, 0
15, 36314, Note_on_c, 9, 46, 0
15, 36317, Note_on_c, 9, 64, 0
15, 36319, Note_on_c, 9, 54, 0
15, 36322, Note_on_c, 9, 70, 0
15, 36322, Note_on_c, 9, 44, 0
15, 36323, Note_on_c, 9, 66, 0
15, 36360, Note_on_c, 9, 66, 127
15, 36360, Note_on_c, 9, 36, 127
15, 36360, Note_on_c, 9, 38, 127
15, 36360, Note_on_c, 9, 44, 100
15, 36361, Note_on_c, 9, 64, 114
15, 36361, Note_on_c, 9, 70, 109
15, 36361, Note_on_c, 9, 65, 127
15, 36361, Note_on_c, 9, 42, 120
15, 36374, Note_on_c, 9, 44, 0
15, 36376, Note_on_c, 9, 36, 0
15, 36377, Note_on_c, 9, 70, 0
15, 36379, Note_on_c, 9, 64, 0
15, 36382, Note_on_c, 9, 42, 0
15, 36383, Note_on_c, 9, 66, 0
15, 36385, Note_on_c, 9, 38, 0
15, 36411, Note_on_c, 9, 65, 0
15, 36420, Note_on_c, 9, 44, 98
15, 36421, Note_on_c, 9, 70, 120
15, 36421, Note_on_c, 9, 54, 124
15, 36422, Note_on_c, 9, 62, 120
15, 36434, Note_on_c, 9, 70, 0
15, 36437, Note_on_c, 9, 62, 0
15, 36446, Note_on_c, 9, 54, 0
15, 36446, Note_on_c, 9, 44, 0
15, 36450, Note_on_c, 9, 62, 120
15, 36466, Note_on_c, 9, 62, 0
15, 36480, Note_on_c, 9, 36, 127
15, 36481, Note_on_c, 9, 42, 121
15, 36482, Note_on_c, 9, 49, 115
15, 36482, Note_on_c, 9, 63, 127
15, 36482, Note_on_c, 9, 70, 104
15, 36493, Note_on_c, 9, 49, 0
15, 36495, Note_on_c, 9, 36, 0
15, 36498, Note_on_c, 9, 63, 0
15, 36500, Note_on_c, 9, 70, 0
15, 36504, Note_on_c, 9, 42, 0
15, 36540, Note_on_c, 9, 44, 103
15, 36541, Note_on_c, 9, 63, 114
15, 36541, Note_on_c, 9, 70, 115
15, 36541, Note_on_c, 9, 54, 127
15, 36551, Note_on_c, 9, 63, 0
15, 36554, Note_on_c, 9, 70, 0
15, 36562, Note_on_c, 9, 44, 0
15, 36566, Note_on_c, 9, 54, 0
15, 36600, Note_on_c, 9, 38, 127
15, 36600, Note_on_c, 9, 36, 127
15, 36601, Note_on_c, 9, 70, 104
15, 36601, Note_on_c, 9, 64, 115
15, 36601, Note_on_c, 9, 42, 123
15, 36618, Note_on_c, 9, 36, 0
15, 36621, Note_on_c, 9, 70, 0
15, 36623, Note_on_c, 9, 64, 0
15, 36628, Note_on_c, 9, 38, 0
15, 36631, Note_on_c, 9, 42, 0
15, 36660, Note_on_c, 9, 44, 111
15, 36661, Note_on_c, 9, 54, 124
15, 36661, Note_on_c, 9, 70, 118
15, 36662, Note_on_c, 9, 63, 113
15, 36672, Note_on_c, 9, 63, 0
15, 36679, Note_on_c, 9, 70, 0
15, 36682, Note_on_c, 9, 44, 0
15, 36683, Note_on_c, 9, 54, 0
15, 36690, Note_on_c, 9, 63, 127
15, 36701, Note_on_c, 9, 63, 0
15, 36720, Note_on_c, 9, 42, 118
15, 36720, Note_on_c, 9, 36, 127
15, 36721, Note_on_c, 9, 70, 105
15, 36738, Note_on_c, 9, 36, 0
15, 36739, Note_on_c, 9, 70, 0
15, 36741, Note_on_c, 9, 42, 0
15, 36750, Note_on_c, 9, 63, 127
15, 36761, Note_on_c, 9, 63, 0
15, 36780, Note_on_c, 9, 44, 108
15, 36780, Note_on_c, 9, 46, 127
15, 36781, Note_on_c, 9, 64, 110
15, 36781, Note_on_c, 9, 54, 123
15, 36781, Note_on_c, 9, 70, 122
15, 36794, Note_on_c, 9, 46, 0
15, 36795, Note_on_c, 9, 44, 0
15, 36797, Note_on_c, 9, 64, 0
15, 36798, Note_on_c, 9, 54, 0
15, 36802, Note_on_c, 9, 70, 0
15, 36840, Note_on_c, 9, 36, 127
15, 36840, Note_on_c, 9, 38, 127
15, 36840, Note_on_c, 9, 44, 100
15, 36841, Note_on_c, 9, 42, 126
15, 36841, Note_on_c, 9, 70, 108
15, 36841, Note_on_c, 9, 64, 109
15, 36854, Note_on_c, 9, 44, 0
15, 36857, Note_on_c, 9, 70, 0
15, 36859, Note_on_c, 9, 64, 0
15, 36860, Note_on_c, 9, 36, 0
15, 36862, Note_on_c, 9, 42, 0
15, 36873, Note_on_c, 9, 38, 0
15, 36900, Note_on_c, 9, 44, 107
15, 36901, Note_on_c, 9, 70, 120
15, 36901, Note_on_c, 9, 54, 122
15, 36902, Note_on_c, 9, 62, 119
15, 36915, Note_on_c, 9, 62, 0
15, 36917, Note_on_c, 9, 70, 0
15, 36918, Note_on_c, 9, 44, 0
15, 36922, Note_on_c, 9, 54, 0
15, 36930, Note_on_c, 9, 62, 115
15, 36952, Note_on_c, 9, 62, 0
15, 36960, Note_on_c, 9, 42, 122
15, 36960, Note_on_c, 9, 36, 127
15, 36962, Note_on_c, 9, 63, 127
15, 36962, Note_on_c, 9, 70, 116
15, 36972, Note_on_c, 9, 63, 0
15, 36974, Note_on_c, 9, 70, 0
15, 36975, Note_on_c, 9, 36, 0
15, 36985, Note_on_c, 9, 42, 0
15, 37020, Note_on_c, 9, 44, 116
15, 37021, Note_on_c, 9, 70, 118
15, 37021, Note_on_c, 9, 63, 118
15, 37021, Note_on_c, 9, 54, 126
15, 37031, Note_on_c, 9, 63, 0
15, 37036, Note_on_c, 9, 70, 0
15, 37041, Note_on_c, 9, 54, 0
15, 37042, Note_on_c, 9, 44, 0
15, 37080, Note_on_c, 9, 38, 127
15, 37080, Note_on_c, 9, 36, 127
15, 37081, Note_on_c, 9, 42, 122
15, 37081, Note_on_c, 9, 64, 118
15, 37081, Note_on_c, 9, 70, 114
15, 37093, Note_on_c, 9, 64, 0
15, 37097, Note_on_c, 9, 70, 0
15, 37100, Note_on_c, 9, 36, 0
15, 37102, Note_on_c, 9, 42, 0
15, 37110, Note_on_c, 9, 38, 0
15, 37140, Note_on_c, 9, 44, 116
15, 37141, Note_on_c, 9, 54, 118
15, 37141, Note_on_c, 9, 70, 117
15, 37141, Note_on_c, 9, 63, 109
15, 37151, Note_on_c, 9, 63, 0
15, 37157, Note_on_c, 9, 70, 0
15, 37158, Note_on_c, 9, 44, 0
15, 37162, Note_on_c, 9, 54, 0
15, 37170, Note_on_c, 9, 63, 127
15, 37182, Note_on_c, 9, 63, 0
15, 37200, Note_on_c, 9, 36, 127
15, 37201, Note_on_c, 9, 70, 114
15, 37201, Note_on_c, 9, 42, 123
15, 37216, Note_on_c, 9, 70, 0
15, 37222, Note_on_c, 9, 36, 0
15, 37223, Note_on_c, 9, 42, 0
15, 37230, Note_on_c, 9, 63, 124
15, 37241, Note_on_c, 9, 63, 0
15, 37260, Note_on_c, 9, 44, 111
15, 37260, Note_on_c, 9, 46, 127
15, 37261, Note_on_c, 9, 70, 118
15, 37261, Note_on_c, 9, 54, 124
15, 37262, Note_on_c, 9, 64, 114
15, 37273, Note_on_c, 9, 64, 0
15, 37274, Note_on_c, 9, 46, 0
15, 37274, Note_on_c, 9, 54, 0
15, 37276, Note_on_c, 9, 70, 0
15, 37278, Note_on_c, 9, 44, 0
15, 37320, Note_on_c, 9, 38, 127
15, 37320, Note_on_c, 9, 36, 127
15, 37320, Note_on_c, 9, 44, 100
15, 37321, Note_on_c, 9, 42, 123
15, 37321, Note_on_c, 9, 64, 118
15, 37321, Note_on_c, 9, 70, 111
15, 37334, Note_on_c, 9, 44, 0
15, 37336, Note_on_c, 9, 64, 0
15, 37337, Note_on_c, 9, 70, 0
15, 37338, Note_on_c, 9, 36, 0
15, 37338, Note_on_c, 9, 38, 0
15, 37342, Note_on_c, 9, 42, 0
15, 37380, Note_on_c, 9, 66, 127
15, 37380, Note_on_c, 9, 44, 112
15, 37381, Note_on_c, 9, 54, 118
15, 37381, Note_on_c, 9, 70, 117
15, 37382, Note_on_c, 9, 62, 122
15, 37396, Note_on_c, 9, 70, 0
15, 37397, Note_on_c, 9, 62, 0
15, 37398, Note_on_c, 9, 44, 0
15, 37401, Note_on_c, 9, 54, 0
15, 37403, Note_on_c, 9, 66, 0
15, 37410, Note_on_c, 9, 62, 125
15, 37430, Note_on_c, 9, 62, 0
15, 37441, Note_on_c, 9, 36, 127
15, 37441, Note_on_c, 9, 42, 121
15, 37442, Note_on_c, 9, 70, 109
15, 37442, Note_on_c, 9, 63, 127
15, 37450, Note_on_c, 9, 63, 0
15, 37454, Note_on_c, 9, 70, 0
15, 37459, Note_on_c, 9, 36, 0
15, 37463, Note_on_c, 9, 42, 0
15, 37500, Note_on_c, 9, 44, 106
15, 37501, Note_on_c, 9, 70, 120
15, 37501, Note_on_c, 9, 54, 123
15, 37502, Note_on_c, 9, 63, 124
15, 37505, Note_on_c, 9, 63, 0
15, 37514, Note_on_c, 9, 54, 0
15, 37518, Note_on_c, 9, 44, 0
15, 37522, Note_on_c, 9, 70, 0
15, 37560, Note_on_c, 9, 36, 127
15, 37560, Note_on_c, 9, 38, 127
15, 37561, Note_on_c, 9, 42, 120
15, 37561, Note_on_c, 9, 70, 106
15, 37561, Note_on_c, 9, 64, 122
15, 37573, Note_on_c, 9, 64, 0
15, 37576, Note_on_c, 9, 70, 0
15, 37579, Note_on_c, 9, 42, 0
15, 37586, Note_on_c, 9, 36, 0
15, 37596, Note_on_c, 9, 38, 0
15, 37620, Note_on_c, 9, 44, 113
15, 37621, Note_on_c, 9, 70, 117
15, 37621, Note_on_c, 9, 54, 121
15, 37622, Note_on_c, 9, 63, 118
15, 37627, Note_on_c, 9, 63, 0
15, 37634, Note_on_c, 9, 70, 0
15, 37641, Note_on_c, 9, 54, 0
15, 37642, Note_on_c, 9, 44, 0
15, 37650, Note_on_c, 9, 63, 127
15, 37666, Note_on_c, 9, 63, 0
15, 37680, Note_on_c, 9, 36, 127
15, 37681, Note_on_c, 9, 70, 110
15, 37681, Note_on_c, 9, 42, 115
15, 37699, Note_on_c, 9, 70, 0
15, 37703, Note_on_c, 9, 42, 0
15, 37706, Note_on_c, 9, 36, 0
15, 37710, Note_on_c, 9, 63, 123
15, 37722, Note_on_c, 9, 63, 0
15, 37740, Note_on_c, 9, 44, 118
15, 37740, Note_on_c, 9, 46, 127
15, 37741, Note_on_c, 9, 54, 123
15, 37741, Note_on_c, 9, 70, 118
15, 37742, Note_on_c, 9, 64, 117
15, 37754, Note_on_c, 9, 46, 0
15, 37756, Note_on_c, 9, 70, 0
15, 37757, Note_on_c, 9, 64, 0
15, 37757, Note_on_c, 9, 54, 0
15, 37766, Note_on_c, 9, 44, 0
15, 37800, Note_on_c, 9, 36, 127
15, 37800, Note_on_c, 9, 38, 127
15, 37800, Note_on_c, 9, 44, 100
15, 37801, Note_on_c, 9, 42, 120
15, 37801, Note_on_c, 9, 70, 110
15, 37814, Note_on_c, 9, 44, 0
15, 37817, Note_on_c, 9, 70, 0
15, 37818, Note_on_c, 9, 42, 0
15, 37825, Note_on_c, 9, 38, 0
15, 37828, Note_on_c, 9, 36, 0
15, 37860, Note_on_c, 9, 44, 112
15, 37861, Note_on_c, 9, 54, 122
15, 37861, Note_on_c, 9, 70, 122
15, 37862, Note_on_c, 9, 62, 124
15, 37867, Note_on_c, 9, 62, 0
15, 37877, Note_on_c, 9, 70, 0
15, 37878, Note_on_c, 9, 44, 0
15, 37882, Note_on_c, 9, 54, 0
15, 37890, Note_on_c, 9, 62, 119
15, 37910, Note_on_c, 9, 62, 0
15, 37921, Note_on_c, 9, 42, 121
15, 37921, Note_on_c, 9, 36, 127
15, 37922, Note_on_c, 9, 70, 111
15, 37936, Note_on_c, 9, 36, 0
15, 37938, Note_on_c, 9, 70, 0
15, 37943, Note_on_c, 9, 42, 0
15, 37980, Note_on_c, 9, 44, 105
15, 37981, Note_on_c, 9, 70, 122
15, 37981, Note_on_c, 9, 54, 120
15, 37982, Note_on_c, 9, 63, 122
15, 37990, Note_on_c, 9, 63, 0
15, 37996, Note_on_c, 9, 70, 0
15, 38001, Note_on_c, 9, 54, 0
15, 38001, Note_on_c, 9, 44, 0
15, 38040, Note_on_c, 9, 36, 127
15, 38040, Note_on_c, 9, 38, 127
15, 38041, Note_on_c, 9, 64, 117
15, 38041, Note_on_c, 9, 42, 120
15, 38041, Note_on_c, 9, 70, 109
15, 38053, Note_on_c, 9, 64, 0
15, 38055, Note_on_c, 9, 36, 0
15, 38056, Note_on_c, 9, 70, 0
15, 38063, Note_on_c, 9, 42, 0
15, 38066, Note_on_c, 9, 38, 0
15, 38100, Note_on_c, 9, 44, 113
15, 38101, Note_on_c, 9, 70, 120
15, 38101, Note_on_c, 9, 54, 123
15, 38101, Note_on_c, 9, 63, 120
15, 38106, Note_on_c, 9, 63, 0
15, 38117, Note_on_c, 9, 54, 0
15, 38117, Note_on_c, 9, 70, 0
15, 38118, Note_on_c, 9, 44, 0
15, 38130, Note_on_c, 9, 63, 124
15, 38141, Note_on_c, 9, 63, 0
15, 38160, Note_on_c, 9, 36, 127
15, 38161, Note_on_c, 9, 70, 112
15, 38161, Note_on_c, 9, 42, 120
15, 38176, Note_on_c, 9, 70, 0
15, 38178, Note_on_c, 9, 36, 0
15, 38182, Note_on_c, 9, 42, 0
15, 38190, Note_on_c, 9, 63, 126
15, 38201, Note_on_c, 9, 63, 0
15, 38220, Note_on_c, 9, 44, 111
15, 38220, Note_on_c, 9, 46, 127
15, 38221, Note_on_c, 9, 54, 120
15, 38221, Note_on_c, 9, 70, 124
15, 38222, Note_on_c, 9, 64, 117
15, 38234, Note_on_c, 9, 46, 0
15, 38238, Note_on_c, 9, 70, 0
15, 38238, Note_on_c, 9, 44, 0
15, 38238, Note_on_c, 9, 54, 0
15, 38243, Note_on_c, 9, 64, 0
15, 38280, Note_on_c, 9, 36, 127
15, 38280, Note_on_c, 9, 44, 100
15, 38281, Note_on_c, 9, 64, 114
15, 38281, Note_on_c, 9, 70, 107
15, 38281, Note_on_c, 9, 38, 127
15, 38281, Note_on_c, 9, 42, 124
15, 38294, Note_on_c, 9, 44, 0
15, 38296, Note_on_c, 9, 36, 0
15, 38297, Note_on_c, 9, 70, 0
15, 38301, Note_on_c, 9, 64, 0
15, 38302, Note_on_c, 9, 42, 0
15, 38304, Note_on_c, 9, 38, 0
15, 38340, Note_on_c, 9, 44, 116
15, 38341, Note_on_c, 9, 70, 118
15, 38341, Note_on_c, 9, 62, 124
15, 38341, Note_on_c, 9, 54, 122
15, 38354, Note_on_c, 9, 70, 0
15, 38357, Note_on_c, 9, 62, 0
15, 38358, Note_on_c, 9, 44, 0
15, 38362, Note_on_c, 9, 54, 0
15, 38370, Note_on_c, 9, 62, 116
15, 38393, Note_on_c, 9, 62, 0
15, 38401, Note_on_c, 9, 36, 127
15, 38401, Note_on_c, 9, 42, 124
15, 38402, Note_on_c, 9, 70, 105
15, 38402, Note_on_c, 9, 63, 126
15, 38414, Note_on_c, 9, 36, 0
15, 38415, Note_on_c, 9, 70, 0
15, 38419, Note_on_c, 9, 63, 0
15, 38422, Note_on_c, 9, 42, 0
15, 38460, Note_on_c, 9, 44, 122
15, 38461, Note_on_c, 9, 54, 123
15, 38462, Note_on_c, 9, 63, 123
15, 38462, Note_on_c, 9, 70, 122
15, 38475, Note_on_c, 9, 63, 0
15, 38478, Note_on_c, 9, 44, 0
15, 38480, Note_on_c, 9, 70, 0
15, 38482, Note_on_c, 9, 54, 0
15, 38520, Note_on_c, 9, 36, 127
15, 38521, Note_on_c, 9, 64, 115
15, 38521, Note_on_c, 9, 42, 123
15, 38521, Note_on_c, 9, 70, 106
15, 38521, Note_on_c, 9, 38, 127
15, 38536, Note_on_c, 9, 70, 0
15, 38538, Note_on_c, 9, 36, 0
15, 38542, Note_on_c, 9, 42, 0
15, 38543, Note_on_c, 9, 64, 0
15, 38548, Note_on_c, 9, 38, 0
15, 38580, Note_on_c, 9, 44, 108
15, 38581, Note_on_c, 9, 54, 120
15, 38581, Note_on_c, 9, 70, 120
15, 38582, Note_on_c, 9, 63, 120
15, 38590, Note_on_c, 9, 63, 0
15, 38594, Note_on_c, 9, 70, 0
15, 38598, Note_on_c, 9, 44, 0
15, 38601, Note_on_c, 9, 54, 0
15, 38610, Note_on_c, 9, 63, 127
15, 38621, Note_on_c, 9, 63, 0
15, 38640, Note_on_c, 9, 36, 127
15, 38641, Note_on_c, 9, 70, 108
15, 38641, Note_on_c, 9, 42, 127
15, 38656, Note_on_c, 9, 70, 0
15, 38658, Note_on_c, 9, 36, 0
15, 38659, Note_on_c, 9, 42, 0
15, 38670, Note_on_c, 9, 63, 122
15, 38681, Note_on_c, 9, 63, 0
15, 38700, Note_on_c, 9, 44, 113
15, 38700, Note_on_c, 9, 46, 127
15, 38701, Note_on_c, 9, 70, 122
15, 38701, Note_on_c, 9, 54, 121
15, 38702, Note_on_c, 9, 64, 120
15, 38714, Note_on_c, 9, 46, 0
15, 38717, Note_on_c, 9, 64, 0
15, 38717, Note_on_c, 9, 70, 0
15, 38718, Note_on_c, 9, 44, 0
15, 38721, Note_on_c, 9, 54, 0
15, 38760, Note_on_c, 9, 42, 127
15, 38760, Note_on_c, 9, 36, 127
15, 38760, Note_on_c, 9, 38, 127
15, 38760, Note_on_c, 9, 44, 100
15, 38761, Note_on_c, 9, 64, 118
15, 38761, Note_on_c, 9, 70, 110
15, 38774, Note_on_c, 9, 44, 0
15, 38777, Note_on_c, 9, 70, 0
15, 38778, Note_on_c, 9, 64, 0
15, 38780, Note_on_c, 9, 36, 0
15, 38783, Note_on_c, 9, 42, 0
15, 38793, Note_on_c, 9, 38, 0
15, 38820, Note_on_c, 9, 44, 116
15, 38821, Note_on_c, 9, 54, 123
15, 38821, Note_on_c, 9, 70, 118
15, 38822, Note_on_c, 9, 62, 124
15, 38834, Note_on_c, 9, 70, 0
15, 38839, Note_on_c, 9, 62, 0
15, 38840, Note_on_c, 9, 44, 0
15, 38841, Note_on_c, 9, 54, 0
15, 38850, Note_on_c, 9, 62, 124
15, 38873, Note_on_c, 9, 62, 0
15, 38880, Note_on_c, 9, 36, 127
15, 38881, Note_on_c, 9, 42, 124
15, 38882, Note_on_c, 9, 70, 109
15, 38882, Note_on_c, 9, 63, 124
15, 38895, Note_on_c, 9, 70, 0
15, 38895, Note_on_c, 9, 36, 0
15, 38899, Note_on_c, 9, 63, 0
15, 38901, Note_on_c, 9, 42, 0
15, 38925, Note_on_c, 9, 65, 127
15, 38940, Note_on_c, 9, 65, 127
15, 38940, Note_on_c, 9, 44, 116
15, 38941, Note_on_c, 9, 70, 120
15, 38942, Note_on_c, 9, 54, 124
15, 38942, Note_on_c, 9, 63, 127
15, 38948, Note_on_c, 9, 65, 0
15, 38957, Note_on_c, 9, 54, 0
15, 38957, Note_on_c, 9, 70, 0
15, 38957, Note_on_c, 9, 63, 0
15, 38962, Note_on_c, 9, 44, 0
15, 38963, Note_on_c, 9, 65, 0
15, 39000, Note_on_c, 9, 36, 127
15, 39000, Note_on_c, 9, 38, 127
15, 39001, Note_on_c, 9, 42, 122
15, 39001, Note_on_c, 9, 64, 122
15, 39001, Note_on_c, 9, 70, 109
15, 39017, Note_on_c, 9, 70, 0
15, 39020, Note_on_c, 9, 36, 0
15, 39022, Note_on_c, 9, 42, 0
15, 39024, Note_on_c, 9, 64, 0
15, 39030, Note_on_c, 9, 38, 0
15, 39060, Note_on_c, 9, 66, 127
15, 39060, Note_on_c, 9, 44, 114
15, 39061, Note_on_c, 9, 70, 118
15, 39061, Note_on_c, 9, 54, 126
15, 39062, Note_on_c, 9, 63, 117
15, 39072, Note_on_c, 9, 63, 0
15, 39075, Note_on_c, 9, 66, 127
15, 39077, Note_on_c, 9, 70, 0
15, 39077, Note_on_c, 9, 54, 0
15, 39078, Note_on_c, 9, 44, 0
15, 39083, Note_on_c, 9, 66, 0
15, 39090, Note_on_c, 9, 63, 123
15, 39098, Note_on_c, 9, 66, 0
15, 39102, Note_on_c, 9, 63, 0
15, 39120, Note_on_c, 9, 66, 127
15, 39120, Note_on_c, 9, 36, 127
15, 39120, Note_on_c, 9, 42, 126
15, 39121, Note_on_c, 9, 70, 110
15, 39136, Note_on_c, 9, 70, 0
15, 39141, Note_on_c, 9, 42, 0
15, 39142, Note_on_c, 9, 36, 0
15, 39143, Note_on_c, 9, 66, 0
15, 39150, Note_on_c, 9, 63, 124
15, 39162, Note_on_c, 9, 63, 0
15, 39180, Note_on_c, 9, 44, 111
15, 39180, Note_on_c, 9, 46, 127
15, 39181, Note_on_c, 9, 54, 126
15, 39181, Note_on_c, 9, 70, 120
15, 39182, Note_on_c, 9, 64, 115
15, 39194, Note_on_c, 9, 46, 0
15, 39197, Note_on_c, 9, 70, 0
15, 39197, Note_on_c, 9, 64, 0
15, 39198, Note_on_c, 9, 44, 0
15, 39201, Note_on_c, 9, 54, 0
15, 39240, Note_on_c, 9, 36, 127
15, 39240, Note_on_c, 9, 38, 127
15, 39240, Note_on_c, 9, 44, 100
15, 39241, Note_on_c, 9, 42, 123
15, 39241, Note_on_c, 9, 70, 110
15, 39241, Note_on_c, 9, 64, 114
15, 39254, Note_on_c, 9, 44, 0
15, 39257, Note_on_c, 9, 70, 0
15, 39258, Note_on_c, 9, 36, 0
15, 39258, Note_on_c, 9, 38, 0
15, 39259, Note_on_c, 9, 64, 0
15, 39267, Note_on_c, 9, 42, 0
15, 39300, Note_on_c, 9, 44, 116
15, 39301, Note_on_c, 9, 54, 124
15, 39301, Note_on_c, 9, 70, 122
15, 39302, Note_on_c, 9, 62, 125
15, 39312, Note_on_c, 9, 62, 0
15, 39317, Note_on_c, 9, 70, 0
15, 39318, Note_on_c, 9, 54, 0
15, 39322, Note_on_c, 9, 44, 0
15, 39330, Note_on_c, 9, 62, 127
15, 39350, Note_on_c, 9, 62, 0
15, 39360, Note_on_c, 9, 36, 127
15, 39361, Note_on_c, 9, 42, 126
15, 39362, Note_on_c, 9, 63, 127
15, 39362, Note_on_c, 9, 70, 110
15, 39378, Note_on_c, 9, 70, 0
15, 39379, Note_on_c, 9, 63, 0
15, 39380, Note_on_c, 9, 36, 0
15, 39381, Note_on_c, 9, 42, 0
15, 39420, Note_on_c, 9, 44, 99
15, 39421, Note_on_c, 9, 70, 122
15, 39421, Note_on_c, 9, 54, 126
15, 39422, Note_on_c, 9, 63, 126
15, 39435, Note_on_c, 9, 63, 0
15, 39441, Note_on_c, 9, 54, 0
15, 39442, Note_on_c, 9, 70, 0
15, 39442, Note_on_c, 9, 44, 0
15, 39480, Note_on_c, 9, 38, 127
15, 39480, Note_on_c, 9, 36, 127
15, 39481, Note_on_c, 9, 70, 110
15, 39481, Note_on_c, 9, 42, 124
15, 39481, Note_on_c, 9, 64, 110
15, 39493, Note_on_c, 9, 64, 0
15, 39497, Note_on_c, 9, 70, 0
15, 39504, Note_on_c, 9, 42, 0
15, 39506, Note_on_c, 9, 36, 0
15, 39516, Note_on_c, 9, 38, 0
15, 39540, Note_on_c, 9, 44, 113
15, 39541, Note_on_c, 9, 63, 123
15, 39541, Note_on_c, 9, 54, 126
15, 39541, Note_on_c, 9, 70, 123
15, 39553, Note_on_c, 9, 63, 0
15, 39558, Note_on_c, 9, 44, 0
15, 39558, Note_on_c, 9, 54, 0
15, 39558, Note_on_c, 9, 70, 0
15, 39570, Note_on_c, 9, 63, 126
15, 39582, Note_on_c, 9, 63, 0
15, 39600, Note_on_c, 9, 36, 127
15, 39600, Note_on_c, 9, 42, 115
15, 39601, Note_on_c, 9, 70, 107
15, 39616, Note_on_c, 9, 70, 0
15, 39621, Note_on_c, 9, 42, 0
15, 39626, Note_on_c, 9, 36, 0
15, 39630, Note_on_c, 9, 64, 115
15, 39648, Note_on_c, 9, 64, 0
15, 39660, Note_on_c, 9, 44, 118
15, 39660, Note_on_c, 9, 46, 127
15, 39661, Note_on_c, 9, 70, 122
15, 39661, Note_on_c, 9, 54, 126
15, 39661, Note_on_c, 9, 64, 113
15, 39674, Note_on_c, 9, 46, 0
15, 39677, Note_on_c, 9, 64, 0
15, 39677, Note_on_c, 9, 70, 0
15, 39681, Note_on_c, 9, 54, 0
15, 39682, Note_on_c, 9, 44, 0
15, 39720, Note_on_c, 9, 38, 127
15, 39720, Note_on_c, 9, 36, 127
15, 39720, Note_on_c, 9, 44, 100
15, 39721, Note_on_c, 9, 42, 115
15, 39721, Note_on_c, 9, 64, 122
15, 39721, Note_on_c, 9, 70, 109
15, 39734, Note_on_c, 9, 64, 0
15, 39734, Note_on_c, 9, 44, 0
15, 39737, Note_on_c, 9, 70, 0
15, 39742, Note_on_c, 9, 42, 0
15, 39745, Note_on_c, 9, 38, 0
15, 39748, Note_on_c, 9, 36, 0
15, 39780, Note_on_c, 9, 44, 106
15, 39781, Note_on_c, 9, 54, 127
15, 39781, Note_on_c, 9, 70, 126
15, 39782, Note_on_c, 9, 62, 122
15, 39797, Note_on_c, 9, 70, 0
15, 39797, Note_on_c, 9, 54, 0
15, 39798, Note_on_c, 9, 44, 0
15, 39798, Note_on_c, 9, 62, 0
15, 39810, Note_on_c, 9, 63, 127
15, 39826, Note_on_c, 9, 63, 0
15, 39840, Note_on_c, 9, 36, 127
15, 39841, Note_on_c, 9, 70, 113
15, 39841, Note_on_c, 9, 42, 118
15, 39842, Note_on_c, 9, 63, 122
15, 39855, Note_on_c, 9, 63, 0
15, 39856, Note_on_c, 9, 36, 0
15, 39856, Note_on_c, 9, 70, 0
15, 39861, Note_on_c, 9, 42, 0
15, 39900, Note_on_c, 9, 44, 97
15, 39901, Note_on_c, 9, 54, 127
15, 39901, Note_on_c, 9, 70, 127
15, 39902, Note_on_c, 9, 63, 122
15, 39907, Note_on_c, 9, 63, 0
15, 39918, Note_on_c, 9, 54, 0
15, 39921, Note_on_c, 9, 70, 0
15, 39923, Note_on_c, 9, 44, 0
15, 39930, Note_on_c, 9, 65, 127
15, 39945, Note_on_c, 9, 66, 127
15, 39950, Note_on_c, 9, 65, 0
15, 39960, Note_on_c, 9, 38, 127
15, 39960, Note_on_c, 9, 36, 127
15, 39961, Note_on_c, 9, 64, 122
15, 39961, Note_on_c, 9, 70, 122
15, 39961, Note_on_c, 9, 65, 127
15, 39961, Note_on_c, 9, 42, 118
15, 39968, Note_on_c, 9, 66, 0
15, 39971, Note_on_c, 9, 70, 0
15, 39975, Note_on_c, 9, 36, 0
15, 39978, Note_on_c, 9, 42, 0
15, 39986, Note_on_c, 9, 38, 0
15, 39986, Note_on_c, 9, 64, 0
15, 40001, Note_on_c, 9, 65, 0
15, 40020, Note_on_c, 9, 44, 110
15, 40021, Note_on_c, 9, 54, 117
15, 40021, Note_on_c, 9, 70, 127
15, 40022, Note_on_c, 9, 63, 120
15, 40036, Note_on_c, 9, 54, 0
15, 40037, Note_on_c, 9, 63, 0
15, 40042, Note_on_c, 9, 70, 0
15, 40042, Note_on_c, 9, 44, 0
15, 40050, Note_on_c, 9, 63, 127
15, 40066, Note_on_c, 9, 63, 0
15, 40080, Note_on_c, 9, 36, 127
15, 40081, Note_on_c, 9, 42, 120
15, 40081, Note_on_c, 9, 70, 123
15, 40094, Note_on_c, 9, 70, 0
15, 40098, Note_on_c, 9, 36, 0
15, 40101, Note_on_c, 9, 42, 0
15, 40110, Note_on_c, 9, 63, 127
15, 40121, Note_on_c, 9, 63, 0
15, 40140, Note_on_c, 9, 66, 127
15, 40140, Note_on_c, 9, 44, 105
15, 40140, Note_on_c, 9, 46, 127
15, 40141, Note_on_c, 9, 64, 115
15, 40141, Note_on_c, 9, 65, 101
15, 40141, Note_on_c, 9, 54, 122
15, 40141, Note_on_c, 9, 70, 127
15, 40153, Note_on_c, 9, 65, 0
15, 40154, Note_on_c, 9, 46, 0
15, 40157, Note_on_c, 9, 64, 0
15, 40159, Note_on_c, 9, 54, 0
15, 40162, Note_on_c, 9, 44, 0
15, 40162, Note_on_c, 9, 70, 0
15, 40163, Note_on_c, 9, 66, 0
15, 40200, Note_on_c, 9, 66, 127
15, 40200, Note_on_c, 9, 36, 127
15, 40200, Note_on_c, 9, 38, 127
15, 40200, Note_on_c, 9, 44, 100
15, 40201, Note_on_c, 9, 64, 114
15, 40201, Note_on_c, 9, 70, 109
15, 40201, Note_on_c, 9, 65, 127
15, 40201, Note_on_c, 9, 42, 120
15, 40214, Note_on_c, 9, 44, 0
15, 40216, Note_on_c, 9, 36, 0
15, 40217, Note_on_c, 9, 70, 0
15, 40219, Note_on_c, 9, 64, 0
15, 40222, Note_on_c, 9, 42, 0
15, 40223, Note_on_c, 9, 66, 0
15, 40225, Note_on_c, 9, 38, 0
15, 40251, Note_on_c, 9, 65, 0
15, 40260, Note_on_c, 9, 44, 98
15, 40261, Note_on_c, 9, 70, 120
15, 40261, Note_on_c, 9, 54, 124
15, 40262, Note_on_c, 9, 62, 120
15, 40274, Note_on_c, 9, 70, 0
15, 40277, Note_on_c, 9, 62, 0
15, 40286, Note_on_c, 9, 54, 0
15, 40286, Note_on_c, 9, 44, 0
15, 40290, Note_on_c, 9, 62, 120
15, 40306, Note_on_c, 9, 62, 0
15, 40320, Note_on_c, 9, 36, 127
15, 40321, Note_on_c, 9, 42, 121
15, 40322, Note_on_c, 9, 49, 115
15, 40322, Note_on_c, 9, 63, 127
15, 40322, Note_on_c, 9, 70, 104
15, 40333, Note_on_c, 9, 49, 0
15, 40335, Note_on_c, 9, 36, 0
15, 40338, Note_on_c, 9, 63, 0
15, 40340, Note_on_c, 9, 70, 0
15, 40344, Note_on_c, 9, 42, 0
15, 40380, Note_on_c, 9, 44, 103
15, 40381, Note_on_c, 9, 63, 114
15, 40381, Note_on_c, 9, 70, 115
15, 40381, Note_on_c, 9, 54, 127
15, 40391, Note_on_c, 9, 63, 0
15, 40394, Note_on_c, 9, 70, 0
15, 40402, Note_on_c, 9, 44, 0
15, 40406, Note_on_c, 9, 54, 0
15, 40440, Note_on_c, 9, 38, 127
15, 40440, Note_on_c, 9, 36, 127
15, 40441, Note_on_c, 9, 70, 104
15, 40441, Note_on_c, 9, 64, 115
15, 40441, Note_on_c, 9, 42, 123
15, 40458, Note_on_c, 9, 36, 0
15, 40461, Note_on_c, 9, 70, 0
15, 40463, Note_on_c, 9, 64, 0
15, 40468, Note_on_c, 9, 38, 0
15, 40471, Note_on_c, 9, 42, 0
15, 40500, Note_on_c, 9, 44, 111
15, 40501, Note_on_c, 9, 54, 124
15, 40501, Note_on_c, 9, 70, 118
15, 40502, Note_on_c, 9, 63, 113
15, 40512, Note_on_c, 9, 63, 0
15, 40519, Note_on_c, 9, 70, 0
15, 40522, Note_on_c, 9, 44, 0
15, 40523, Note_on_c, 9, 54, 0
15, 40530, Note_on_c, 9, 63, 127
15, 40541, Note_on_c, 9, 63, 0
15, 40560, Note_on_c, 9, 42, 118
15, 40560, Note_on_c, 9, 36, 127
15, 40561, Note_on_c, 9, 70, 105
15, 40578, Note_on_c, 9, 36, 0
15, 40579, Note_on_c, 9, 70, 0
15, 40581, Note_on_c, 9, 42, 0
15, 40590, Note_on_c, 9, 63, 127
15, 40601, Note_on_c, 9, 63, 0
15, 40620, Note_on_c, 9, 44, 108
15, 40620, Note_on_c, 9, 46, 127
15, 40621, Note_on_c, 9, 64, 110
15, 40621, Note_on_c, 9, 54, 123
15, 40621, Note_on_c, 9, 70, 122
15, 40634, Note_on_c, 9, 46, 0
15, 40635, Note_on_c, 9, 44, 0
15, 40637, Note_on_c, 9, 64, 0
15, 40638, Note_on_c, 9, 54, 0
15, 40642, Note_on_c, 9, 70, 0
15, 40680, Note_on_c, 9, 36, 127
15, 40680, Note_on_c, 9, 38, 127
15, 40680, Note_on_c, 9, 44, 100
15, 40681, Note_on_c, 9, 42, 126
15, 40681, Note_on_c, 9, 70, 108
15, 40681, Note_on_c, 9, 64, 109
15, 40694, Note_on_c, 9, 44, 0
15, 40697, Note_on_c, 9, 70, 0
15, 40699, Note_on_c, 9, 64, 0
15, 40700, Note_on_c, 9, 36, 0
15, 40702, Note_on_c, 9, 42, 0
15, 40713, Note_on_c, 9, 38, 0
15, 40740, Note_on_c, 9, 44, 107
15, 40741, Note_on_c, 9, 70, 120
15, 40741, Note_on_c, 9, 54, 122
15, 40742, Note_on_c, 9, 62, 119
15, 40755, Note_on_c, 9, 62, 0
15, 40757, Note_on_c, 9, 70, 0
15, 40758, Note_on_c, 9, 44, 0
15, 40762, Note_on_c, 9, 54, 0
15, 40770, Note_on_c, 9, 62, 115
15, 40792, Note_on_c, 9, 62, 0
15, 40800, Note_on_c, 9, 42, 122
15, 40800, Note_on_c, 9, 36, 127
15, 40802, Note_on_c, 9, 63, 127
15, 40802, Note_on_c, 9, 70, 116
15, 40812, Note_on_c, 9, 63, 0
15, 40814, Note_on_c, 9, 70, 0
15, 40815, Note_on_c, 9, 36, 0
15, 40825, Note_on_c, 9, 42, 0
15, 40860, Note_on_c, 9, 44, 116
15, 40861, Note_on_c, 9, 70, 118
15, 40861, Note_on_c, 9, 63, 118
15, 40861, Note_on_c, 9, 54, 126
15, 40871, Note_on_c, 9, 63, 0
15, 40876, Note_on_c, 9, 70, 0
15, 40881, Note_on_c, 9, 54, 0
15, 40882, Note_on_c, 9, 44, 0
15, 40920, Note_on_c, 9, 38, 127
15, 40920, Note_on_c, 9, 36, 127
15, 40921, Note_on_c, 9, 42, 122
15, 40921, Note_on_c, 9, 64, 118
15, 40921, Note_on_c, 9, 70, 114
15, 40933, Note_on_c, 9, 64, 0
15, 40937, Note_on_c, 9, 70, 0
15, 40940, Note_on_c, 9, 36, 0
15, 40942, Note_on_c, 9, 42, 0
15, 40950, Note_on_c, 9, 38, 0
15, 40980, Note_on_c, 9, 44, 116
15, 40981, Note_on_c, 9, 54, 118
15, 40981, Note_on_c, 9, 70, 117
15, 40981, Note_on_c, 9, 63, 109
15, 40991, Note_on_c, 9, 63, 0
15, 40997, Note_on_c, 9, 70, 0
15, 40998, Note_on_c, 9, 44, 0
15, 41002, Note_on_c, 9, 54, 0
15, 41010, Note_on_c, 9, 63, 127
15, 41022, Note_on_c, 9, 63, 0
15, 41040, Note_on_c, 9, 36, 127
15, 41041, Note_on_c, 9, 70, 114
15, 41041, Note_on_c, 9, 42, 123
15, 41056, Note_on_c, 9, 70, 0
15, 41062, Note_on_c, 9, 36, 0
15, 41063, Note_on_c, 9, 42, 0
15, 41070, Note_on_c, 9, 63, 124
15, 41081, Note_on_c, 9, 63, 0
15, 41100, Note_on_c, 9, 44, 111
15, 41100, Note_on_c, 9, 46, 127
15, 41101, Note_on_c, 9, 70, 118
15, 41101, Note_on_c, 9, 54, 124
15, 41102, Note_on_c, 9, 64, 114
15, 41113, Note_on_c, 9, 64, 0
15, 41114, Note_on_c, 9, 46, 0
15, 41114, Note_on_c, 9, 54, 0
15, 41116, Note_on_c, 9, 70, 0
15, 41118, Note_on_c, 9, 44, 0
15, 41160, Note_on_c, 9, 38, 127
15, 41160, Note_on_c, 9, 36, 127
15, 41160, Note_on_c, 9, 44, 100
15, 41161, Note_on_c, 9, 42, 123
15, 41161, Note_on_c, 9, 64, 118
15, 41161, Note_on_c, 9, 70, 111
15, 41174, Note_on_c, 9, 44, 0
15, 41176, Note_on_c, 9, 64, 0
15, 41177, Note_on_c, 9, 70, 0
15, 41178, Note_on_c, 9, 36, 0
15, 41178, Note_on_c, 9, 38, 0
15, 41182, Note_on_c, 9, 42, 0
15, 41220, Note_on_c, 9, 44, 112
15, 41221, Note_on_c, 9, 54, 118
15, 41221, Note_on_c, 9, 70, 117
15, 41222, Note_on_c, 9, 62, 122
15, 41236, Note_on_c, 9, 70, 0
15, 41237, Note_on_c, 9, 62, 0
15, 41238, Note_on_c, 9, 44, 0
15, 41241, Note_on_c, 9, 54, 0
15, 41250, Note_on_c, 9, 62, 125
15, 41270, Note_on_c, 9, 62, 0
15, 41281, Note_on_c, 9, 36, 127
15, 41281, Note_on_c, 9, 42, 121
15, 41282, Note_on_c, 9, 70, 109
15, 41282, Note_on_c, 9, 63, 127
15, 41290, Note_on_c, 9, 63, 0
15, 41294, Note_on_c, 9, 70, 0
15, 41299, Note_on_c, 9, 36, 0
15, 41303, Note_on_c, 9, 42, 0
15, 41340, Note_on_c, 9, 44, 106
15, 41341, Note_on_c, 9, 70, 120
15, 41341, Note_on_c, 9, 54, 123
15, 41342, Note_on_c, 9, 63, 124
15, 41345, Note_on_c, 9, 63, 0
15, 41354, Note_on_c, 9, 54, 0
15, 41358, Note_on_c, 9, 44, 0
15, 41362, Note_on_c, 9, 70, 0
15, 41400, Note_on_c, 9, 36, 127
15, 41400, Note_on_c, 9, 38, 127
15, 41401, Note_on_c, 9, 42, 120
15, 41401, Note_on_c, 9, 70, 106
15, 41401, Note_on_c, 9, 64, 122
15, 41413, Note_on_c, 9, 64, 0
15, 41416, Note_on_c, 9, 70, 0
15, 41419, Note_on_c, 9, 42, 0
15, 41426, Note_on_c, 9, 36, 0
15, 41436, Note_on_c, 9, 38, 0
15, 41460, Note_on_c, 9, 44, 113
15, 41461, Note_on_c, 9, 70, 117
15, 41461, Note_on_c, 9, 54, 121
15, 41462, Note_on_c, 9, 63, 118
15, 41467, Note_on_c, 9, 63, 0
15, 41474, Note_on_c, 9, 70, 0
15, 41481, Note_on_c, 9, 54, 0
15, 41482, Note_on_c, 9, 44, 0
15, 41490, Note_on_c, 9, 63, 127
15, 41506, Note_on_c, 9, 63, 0
15, 41520, Note_on_c, 9, 36, 127
15, 41521, Note_on_c, 9, 70, 110
15, 41521, Note_on_c, 9, 42, 115
15, 41539, Note_on_c, 9, 70, 0
15, 41543, Note_on_c, 9, 42, 0
15, 41546, Note_on_c, 9, 36, 0
15, 41550, Note_on_c, 9, 63, 123
15, 41562, Note_on_c, 9, 63, 0
15, 41580, Note_on_c, 9, 44, 118
15, 41580, Note_on_c, 9, 46, 127
15, 41581, Note_on_c, 9, 54, 123
15, 41581, Note_on_c, 9, 70, 118
15, 41582, Note_on_c, 9, 64, 117
15, 41594, Note_on_c, 9, 46, 0
15, 41596, Note_on_c, 9, 70, 0
15, 41597, Note_on_c, 9, 64, 0
15, 41597, Note_on_c, 9, 54, 0
15, 41606, Note_on_c, 9, 44, 0
15, 41640, Note_on_c, 9, 36, 127
15, 41640, Note_on_c, 9, 38, 127
15, 41640, Note_on_c, 9, 44, 100
15, 41641, Note_on_c, 9, 42, 120
15, 41641, Note_on_c, 9, 70, 110
15, 41654, Note_on_c, 9, 44, 0
15, 41657, Note_on_c, 9, 70, 0
15, 41658, Note_on_c, 9, 42, 0
15, 41665, Note_on_c, 9, 38, 0
15, 41668, Note_on_c, 9, 36, 0
15, 41700, Note_on_c, 9, 44, 112
15, 41701, Note_on_c, 9, 54, 122
15, 41701, Note_on_c, 9, 70, 122
15, 41702, Note_on_c, 9, 62, 124
15, 41707, Note_on_c, 9, 62, 0
15, 41717, Note_on_c, 9, 70, 0
15, 41718, Note_on_c, 9, 44, 0
15, 41722, Note_on_c, 9, 54, 0
15, 41730, Note_on_c, 9, 62, 119
15, 41750, Note_on_c, 9, 62, 0
15, 41761, Note_on_c, 9, 42, 121
15, 41761, Note_on_c, 9, 36, 127
15, 41762, Note_on_c, 9, 70, 111
15, 41776, Note_on_c, 9, 36, 0
15, 41778, Note_on_c, 9, 70, 0
15, 41783, Note_on_c, 9, 42, 0
15, 41820, Note_on_c, 9, 44, 105
15, 41821, Note_on_c, 9, 70, 122
15, 41821, Note_on_c, 9, 54, 120
15, 41822, Note_on_c, 9, 63, 122
15, 41830, Note_on_c, 9, 63, 0
15, 41836, Note_on_c, 9, 70, 0
15, 41841, Note_on_c, 9, 54, 0
15, 41841, Note_on_c, 9, 44, 0
15, 41880, Note_on_c, 9, 36, 127
15, 41880, Note_on_c, 9, 38, 127
15, 41881, Note_on_c, 9, 64, 117
15, 41881, Note_on_c, 9, 42, 120
15, 41881, Note_on_c, 9, 70, 109
15, 41893, Note_on_c, 9, 64, 0
15, 41895, Note_on_c, 9, 36, 0
15, 41896, Note_on_c, 9, 70, 0
15, 41903, Note_on_c, 9, 42, 0
15, 41906, Note_on_c, 9, 38, 0
15, 41940, Note_on_c, 9, 44, 113
15, 41941, Note_on_c, 9, 70, 120
15, 41941, Note_on_c, 9, 54, 123
15, 41941, Note_on_c, 9, 63, 120
15, 41946, Note_on_c, 9, 63, 0
15, 41957, Note_on_c, 9, 54, 0
15, 41957, Note_on_c, 9, 70, 0
15, 41958, Note_on_c, 9, 44, 0
15, 41970, Note_on_c, 9, 63, 124
15, 41981, Note_on_c, 9, 63, 0
15, 42000, Note_on_c, 9, 36, 127
15, 42001, Note_on_c, 9, 70, 112
15, 42001, Note_on_c, 9, 42, 120
15, 42016, Note_on_c, 9, 70, 0
15, 42018, Note_on_c, 9, 36, 0
15, 42022, Note_on_c, 9, 42, 0
15, 42030, Note_on_c, 9, 63, 126
15, 42041, Note_on_c, 9, 63, 0
15, 42060, Note_on_c, 9, 44, 111
15, 42060, Note_on_c, 9, 46, 127
15, 42061, Note_on_c, 9, 54, 120
15, 42061, Note_on_c, 9, 70, 124
15, 42062, Note_on_c, 9, 64, 117
15, 42074, Note_on_c, 9, 46, 0
15, 42078, Note_on_c, 9, 70, 0
15, 42078, Note_on_c, 9, 44, 0
15, 42078, Note_on_c, 9, 54, 0
15, 42083, Note_on_c, 9, 64, 0
15, 42120, Note_on_c, 9, 66, 127
15, 42120, Note_on_c, 9, 36, 127
15, 42120, Note_on_c, 9, 44, 100
15, 42121, Note_on_c, 9, 64, 114
15, 42121, Note_on_c, 9, 70, 107
15, 42121, Note_on_c, 9, 38, 127
15, 42121, Note_on_c, 9, 42, 124
15, 42134, Note_on_c, 9, 44, 0
15, 42136, Note_on_c, 9, 36, 0
15, 42137, Note_on_c, 9, 70, 0
15, 42141, Note_on_c, 9, 64, 0
15, 42142, Note_on_c, 9, 42, 0
15, 42143, Note_on_c, 9, 66, 0
15, 42144, Note_on_c, 9, 38, 0
15, 42180, Note_on_c, 9, 44, 116
15, 42181, Note_on_c, 9, 70, 118
15, 42181, Note_on_c, 9, 62, 124
15, 42181, Note_on_c, 9, 54, 122
15, 42194, Note_on_c, 9, 70, 0
15, 42197, Note_on_c, 9, 62, 0
15, 42198, Note_on_c, 9, 44, 0
15, 42202, Note_on_c, 9, 54, 0
15, 42210, Note_on_c, 9, 62, 116
15, 42233, Note_on_c, 9, 62, 0
15, 42241, Note_on_c, 9, 36, 127
15, 42241, Note_on_c, 9, 42, 124
15, 42242, Note_on_c, 9, 70, 105
15, 42242, Note_on_c, 9, 63, 126
15, 42254, Note_on_c, 9, 36, 0
15, 42255, Note_on_c, 9, 70, 0
15, 42259, Note_on_c, 9, 63, 0
15, 42262, Note_on_c, 9, 42, 0
15, 42300, Note_on_c, 9, 44, 122
15, 42301, Note_on_c, 9, 54, 123
15, 42302, Note_on_c, 9, 63, 123
15, 42302, Note_on_c, 9, 70, 122
15, 42315, Note_on_c, 9, 63, 0
15, 42318, Note_on_c, 9, 44, 0
15, 42320, Note_on_c, 9, 70, 0
15, 42322, Note_on_c, 9, 54, 0
15, 42360, Note_on_c, 9, 36, 127
15, 42361, Note_on_c, 9, 64, 115
15, 42361, Note_on_c, 9, 42, 123
15, 42361, Note_on_c, 9, 70, 106
15, 42361, Note_on_c, 9, 38, 127
15, 42376, Note_on_c, 9, 70, 0
15, 42378, Note_on_c, 9, 36, 0
15, 42382, Note_on_c, 9, 42, 0
15, 42383, Note_on_c, 9, 64, 0
15, 42388, Note_on_c, 9, 38, 0
15, 42420, Note_on_c, 9, 44, 108
15, 42421, Note_on_c, 9, 54, 120
15, 42421, Note_on_c, 9, 70, 120
15, 42422, Note_on_c, 9, 63, 120
15, 42430, Note_on_c, 9, 63, 0
15, 42434, Note_on_c, 9, 70, 0
15, 42438, Note_on_c, 9, 44, 0
15, 42441, Note_on_c, 9, 54, 0
15, 42450, Note_on_c, 9, 63, 127
15, 42461, Note_on_c, 9, 63, 0
15, 42480, Note_on_c, 9, 36, 127
15, 42481, Note_on_c, 9, 70, 108
15, 42481, Note_on_c, 9, 42, 127
15, 42496, Note_on_c, 9, 70, 0
15, 42498, Note_on_c, 9, 36, 0
15, 42499, Note_on_c, 9, 42, 0
15, 42510, Note_on_c, 9, 63, 122
15, 42521, Note_on_c, 9, 63, 0
15, 42540, Note_on_c, 9, 44, 113
15, 42540, Note_on_c, 9, 46, 127
15, 42541, Note_on_c, 9, 70, 122
15, 42541, Note_on_c, 9, 54, 121
15, 42542, Note_on_c, 9, 64, 120
15, 42554, Note_on_c, 9, 46, 0
15, 42557, Note_on_c, 9, 64, 0
15, 42557, Note_on_c, 9, 70, 0
15, 42558, Note_on_c, 9, 44, 0
15, 42561, Note_on_c, 9, 54, 0
15, 42600, Note_on_c, 9, 42, 127
15, 42600, Note_on_c, 9, 36, 127
15, 42600, Note_on_c, 9, 38, 127
15, 42600, Note_on_c, 9, 44, 100
15, 42601, Note_on_c, 9, 64, 118
15, 42601, Note_on_c, 9, 70, 110
15, 42614, Note_on_c, 9, 44, 0
15, 42617, Note_on_c, 9, 70, 0
15, 42618, Note_on_c, 9, 64, 0
15, 42620, Note_on_c, 9, 36, 0
15, 42623, Note_on_c, 9, 42, 0
15, 42633, Note_on_c, 9, 38, 0
15, 42660, Note_on_c, 9, 44, 116
15, 42661, Note_on_c, 9, 54, 123
15, 42661, Note_on_c, 9, 70, 118
15, 42662, Note_on_c, 9, 62, 124
15, 42674, Note_on_c, 9, 70, 0
15, 42679, Note_on_c, 9, 62, 0
15, 42680, Note_on_c, 9, 44, 0
15, 42681, Note_on_c, 9, 54, 0
15, 42690, Note_on_c, 9, 62, 124
15, 42713, Note_on_c, 9, 62, 0
15, 42720, Note_on_c, 9, 36, 127
15, 42721, Note_on_c, 9, 42, 124
15, 42722, Note_on_c, 9, 70, 109
15, 42722, Note_on_c, 9, 63, 124
15, 42735, Note_on_c, 9, 70, 0
15, 42735, Note_on_c, 9, 36, 0
15, 42739, Note_on_c, 9, 63, 0
15, 42741, Note_on_c, 9, 42, 0
15, 42780, Note_on_c, 9, 44, 116
15, 42781, Note_on_c, 9, 70, 120
15, 42782, Note_on_c, 9, 54, 124
15, 42782, Note_on_c, 9, 63, 127
15, 42797, Note_on_c, 9, 63, 0
15, 42797, Note_on_c, 9, 54, 0
15, 42797, Note_on_c, 9, 70, 0
15, 42802, Note_on_c, 9, 44, 0
15, 42840, Note_on_c, 9, 36, 127
15, 42840, Note_on_c, 9, 38, 127
15, 42841, Note_on_c, 9, 42, 122
15, 42841, Note_on_c, 9, 64, 122
15, 42841, Note_on_c, 9, 70, 109
15, 42857, Note_on_c, 9, 70, 0
15, 42860, Note_on_c, 9, 36, 0
15, 42862, Note_on_c, 9, 42, 0
15, 42864, Note_on_c, 9, 64, 0
15, 42870, Note_on_c, 9, 38, 0
15, 42900, Note_on_c, 9, 44, 114
15, 42901, Note_on_c, 9, 70, 118
15, 42901, Note_on_c, 9, 54, 126
15, 42902, Note_on_c, 9, 63, 117
15, 42912, Note_on_c, 9, 63, 0
15, 42917, Note_on_c, 9, 54, 0
15, 42917, Note_on_c, 9, 70, 0
15, 42918, Note_on_c, 9, 44, 0
15, 42930, Note_on_c, 9, 63, 123
15, 42942, Note_on_c, 9, 63, 0
15, 42960, Note_on_c, 9, 36, 127
15, 42960, Note_on_c, 9, 42, 126
15, 42961, Note_on_c, 9, 70, 110
15, 42976, Note_on_c, 9, 70, 0
15, 42981, Note_on_c, 9, 42, 0
15, 42982, Note_on_c, 9, 36, 0
15, 42990, Note_on_c, 9, 63, 124
15, 43002, Note_on_c, 9, 63, 0
15, 43020, Note_on_c, 9, 44, 111
15, 43020, Note_on_c, 9, 46, 127
15, 43021, Note_on_c, 9, 54, 126
15, 43021, Note_on_c, 9, 70, 120
15, 43022, Note_on_c, 9, 64, 115
15, 43034, Note_on_c, 9, 46, 0
15, 43037, Note_on_c, 9, 70, 0
15, 43037, Note_on_c, 9, 64, 0
15, 43038, Note_on_c, 9, 44, 0
15, 43041, Note_on_c, 9, 54, 0
15, 43080, Note_on_c, 9, 36, 127
15, 43080, Note_on_c, 9, 38, 127
15, 43080, Note_on_c, 9, 44, 100
15, 43081, Note_on_c, 9, 42, 123
15, 43081, Note_on_c, 9, 70, 110
15, 43081, Note_on_c, 9, 64, 114
15, 43094, Note_on_c, 9, 44, 0
15, 43097, Note_on_c, 9, 70, 0
15, 43098, Note_on_c, 9, 36, 0
15, 43098, Note_on_c, 9, 38, 0
15, 43099, Note_on_c, 9, 64, 0
15, 43107, Note_on_c, 9, 42, 0
15, 43140, Note_on_c, 9, 44, 116
15, 43141, Note_on_c, 9, 54, 124
15, 43141, Note_on_c, 9, 70, 122
15, 43142, Note_on_c, 9, 62, 125
15, 43152, Note_on_c, 9, 62, 0
15, 43157, Note_on_c, 9, 70, 0
15, 43158, Note_on_c, 9, 54, 0
15, 43162, Note_on_c, 9, 44, 0
15, 43170, Note_on_c, 9, 62, 127
15, 43190, Note_on_c, 9, 62, 0
15, 43200, Note_on_c, 9, 36, 127
15, 43201, Note_on_c, 9, 42, 126
15, 43202, Note_on_c, 9, 63, 127
15, 43202, Note_on_c, 9, 70, 110
15, 43218, Note_on_c, 9, 70, 0
15, 43219, Note_on_c, 9, 63, 0
15, 43220, Note_on_c, 9, 36, 0
15, 43221, Note_on_c, 9, 42, 0
15, 43260, Note_on_c, 9, 44, 99
15, 43261, Note_on_c, 9, 70, 122
15, 43261, Note_on_c, 9, 54, 126
15, 43262, Note_on_c, 9, 63, 126
15, 43275, Note_on_c, 9, 63, 0
15, 43281, Note_on_c, 9, 54, 0
15, 43282, Note_on_c, 9, 70, 0
15, 43282, Note_on_c, 9, 44, 0
15, 43320, Note_on_c, 9, 38, 127
15, 43320, Note_on_c, 9, 36, 127
15, 43321, Note_on_c, 9, 70, 110
15, 43321, Note_on_c, 9, 42, 124
15, 43321, Note_on_c, 9, 64, 110
15, 43333, Note_on_c, 9, 64, 0
15, 43337, Note_on_c, 9, 70, 0
15, 43344, Note_on_c, 9, 42, 0
15, 43346, Note_on_c, 9, 36, 0
15, 43356, Note_on_c, 9, 38, 0
15, 43380, Note_on_c, 9, 44, 113
15, 43381, Note_on_c, 9, 63, 123
15, 43381, Note_on_c, 9, 54, 126
15, 43381, Note_on_c, 9, 70, 123
15, 43393, Note_on_c, 9, 63, 0
15, 43398, Note_on_c, 9, 44, 0
15, 43398, Note_on_c, 9, 54, 0
15, 43398, Note_on_c, 9, 70, 0
15, 43410, Note_on_c, 9, 63, 126
15, 43422, Note_on_c, 9, 63, 0
15, 43440, Note_on_c, 9, 36, 127
15, 43440, Note_on_c, 9, 42, 115
15, 43441, Note_on_c, 9, 70, 107
15, 43456, Note_on_c, 9, 70, 0
15, 43461, Note_on_c, 9, 42, 0
15, 43466, Note_on_c, 9, 36, 0
15, 43470, Note_on_c, 9, 64, 115
15, 43488, Note_on_c, 9, 64, 0
15, 43500, Note_on_c, 9, 44, 118
15, 43500, Note_on_c, 9, 46, 127
15, 43501, Note_on_c, 9, 70, 122
15, 43501, Note_on_c, 9, 54, 126
15, 43501, Note_on_c, 9, 64, 113
15, 43514, Note_on_c, 9, 46, 0
15, 43517, Note_on_c, 9, 64, 0
15, 43517, Note_on_c, 9, 70, 0
15, 43521, Note_on_c, 9, 54, 0
15, 43522, Note_on_c, 9, 44, 0
15, 43560, Note_on_c, 9, 38, 127
15, 43560, Note_on_c, 9, 36, 127
15, 43560, Note_on_c, 9, 44, 100
15, 43561, Note_on_c, 9, 42, 115
15, 43561, Note_on_c, 9, 64, 122
15, 43561, Note_on_c, 9, 70, 109
15, 43574, Note_on_c, 9, 64, 0
15, 43574, Note_on_c, 9, 44, 0
15, 43577, Note_on_c, 9, 70, 0
15, 43582, Note_on_c, 9, 42, 0
15, 43585, Note_on_c, 9, 38, 0
15, 43588, Note_on_c, 9, 36, 0
15, 43620, Note_on_c, 9, 44, 106
15, 43621, Note_on_c, 9, 54, 127
15, 43621, Note_on_c, 9, 70, 126
15, 43622, Note_on_c, 9, 62, 122
15, 43637, Note_on_c, 9, 70, 0
15, 43637, Note_on_c, 9, 54, 0
15, 43638, Note_on_c, 9, 44, 0
15, 43638, Note_on_c, 9, 62, 0
15, 43650, Note_on_c, 9, 63, 127
15, 43666, Note_on_c, 9, 63, 0
15, 43680, Note_on_c, 9, 42, 122
15, 43680, Note_on_c, 9, 36, 127
15, 43682, Note_on_c, 9, 63, 118
15, 43682, Note_on_c, 9, 70, 104
15, 43694, Note_on_c, 9, 70, 0
15, 43695, Note_on_c, 9, 63, 0
15, 43700, Note_on_c, 9, 36, 0
15, 43702, Note_on_c, 9, 42, 0
15, 43740, Note_on_c, 9, 44, 118
15, 43741, Note_on_c, 9, 70, 121
15, 43742, Note_on_c, 9, 63, 126
15, 43742, Note_on_c, 9, 54, 122
15, 43745, Note_on_c, 9, 63, 0
15, 43758, Note_on_c, 9, 44, 0
15, 43760, Note_on_c, 9, 54, 0
15, 43761, Note_on_c, 9, 70, 0
15, 43800, Note_on_c, 9, 38, 127
15, 43800, Note_on_c, 9, 36, 127
15, 43801, Note_on_c, 9, 70, 108
15, 43801, Note_on_c, 9, 64, 120
15, 43801, Note_on_c, 9, 42, 116
15, 43817, Note_on_c, 9, 70, 0
15, 43819, Note_on_c, 9, 64, 0
15, 43823, Note_on_c, 9, 42, 0
15, 43826, Note_on_c, 9, 36, 0
15, 43836, Note_on_c, 9, 38, 0
15, 43860, Note_on_c, 9, 44, 115
15, 43861, Note_on_c, 9, 63, 122
15, 43861, Note_on_c, 9, 54, 122
15, 43861, Note_on_c, 9, 70, 117
15, 43866, Note_on_c, 9, 63, 0
15, 43877, Note_on_c, 9, 70, 0
15, 43882, Note_on_c, 9, 54, 0
15, 43883, Note_on_c, 9, 44, 0
15, 43890, Note_on_c, 9, 63, 122
15, 43905, Note_on_c, 9, 63, 0
15, 43920, Note_on_c, 9, 36, 127
15, 43921, Note_on_c, 9, 42, 120
15, 43921, Note_on_c, 9, 70, 106
15, 43938, Note_on_c, 9, 70, 0
15, 43943, Note_on_c, 9, 42, 0
15, 43946, Note_on_c, 9, 36, 0
15, 43950, Note_on_c, 9, 63, 123
15, 43962, Note_on_c, 9, 63, 0
15, 43980, Note_on_c, 9, 44, 116
15, 43980, Note_on_c, 9, 46, 127
15, 43981, Note_on_c, 9, 54, 122
15, 43981, Note_on_c, 9, 70, 118
15, 43982, Note_on_c, 9, 64, 110
15, 43994, Note_on_c, 9, 46, 0
15, 43995, Note_on_c, 9, 64, 0
15, 43998, Note_on_c, 9, 70, 0
15, 44002, Note_on_c, 9, 44, 0
15, 44006, Note_on_c, 9, 54, 0
15, 44010, Note_on_c, 9, 65, 127
15, 44025, Note_on_c, 9, 65, 127
15, 44033, Note_on_c, 9, 65, 0
15, 44040, Note_on_c, 9, 65, 127
15, 44040, Note_on_c, 9, 42, 121
15, 44040, Note_on_c, 9, 38, 127
15, 44040, Note_on_c, 9, 36, 127
15, 44040, Note_on_c, 9, 44, 100
15, 44041, Note_on_c, 9, 64, 115
15, 44041, Note_on_c, 9, 70, 109
15, 44048, Note_on_c, 9, 65, 0
15, 44054, Note_on_c, 9, 64, 0
15, 44054, Note_on_c, 9, 44, 0
15, 44058, Note_on_c, 9, 70, 0
15, 44063, Note_on_c, 9, 65, 0
15, 44065, Note_on_c, 9, 38, 0
15, 44066, Note_on_c, 9, 42, 0
15, 44068, Note_on_c, 9, 36, 0
15, 44100, Note_on_c, 9, 44, 118
15, 44101, Note_on_c, 9, 70, 117
15, 44101, Note_on_c, 9, 54, 121
15, 44102, Note_on_c, 9, 62, 120
15, 44117, Note_on_c, 9, 62, 0
15, 44117, Note_on_c, 9, 70, 0
15, 44121, Note_on_c, 9, 54, 0
15, 44122, Note_on_c, 9, 44, 0
15, 44130, Note_on_c, 9, 62, 117
15, 44153, Note_on_c, 9, 62, 0
15, 44160, Note_on_c, 9, 55, 127
15, 44160, Note_on_c, 9, 36, 127
15, 44161, Note_on_c, 9, 42, 118
15, 44162, Note_on_c, 9, 70, 104
15, 44162, Note_on_c, 9, 63, 121
15, 44173, Note_on_c, 9, 63, 0
15, 44174, Note_on_c, 9, 70, 0
15, 44176, Note_on_c, 9, 36, 0
15, 44181, Note_on_c, 9, 42, 0
15, 44183, Note_on_c, 9, 55, 0
15, 44220, Note_on_c, 9, 44, 117
15, 44221, Note_on_c, 9, 70, 121
15, 44221, Note_on_c, 9, 54, 124
15, 44222, Note_on_c, 9, 63, 122
15, 44234, Note_on_c, 9, 70, 0
15, 44237, Note_on_c, 9, 63, 0
15, 44242, Note_on_c, 9, 44, 0
15, 44244, Note_on_c, 9, 54, 0
15, 44280, Note_on_c, 9, 36, 127
15, 44281, Note_on_c, 9, 70, 107
15, 44281, Note_on_c, 9, 64, 122
15, 44281, Note_on_c, 9, 38, 127
15, 44281, Note_on_c, 9, 42, 118
15, 44295, Note_on_c, 9, 36, 0
15, 44296, Note_on_c, 9, 70, 0
15, 44298, Note_on_c, 9, 64, 0
15, 44302, Note_on_c, 9, 42, 0
15, 44306, Note_on_c, 9, 38, 0
15, 44340, Note_on_c, 9, 44, 120
15, 44341, Note_on_c, 9, 54, 124
15, 44341, Note_on_c, 9, 70, 120
15, 44341, Note_on_c, 9, 63, 120
15, 44347, Note_on_c, 9, 63, 0
15, 44354, Note_on_c, 9, 70, 0
15, 44361, Note_on_c, 9, 54, 0
15, 44366, Note_on_c, 9, 44, 0
15, 44370, Note_on_c, 9, 63, 127
15, 44385, Note_on_c, 9, 63, 0
15, 44400, Note_on_c, 9, 42, 120
15, 44400, Note_on_c, 9, 36, 127
15, 44401, Note_on_c, 9, 70, 108
15, 44414, Note_on_c, 9, 70, 0
15, 44418, Note_on_c, 9, 36, 0
15, 44425, Note_on_c, 9, 42, 0
15, 44430, Note_on_c, 9, 63, 124
15, 44441, Note_on_c, 9, 63, 0
15, 44460, Note_on_c, 9, 44, 120
15, 44460, Note_on_c, 9, 46, 127
15, 44461, Note_on_c, 9, 64, 114
15, 44461, Note_on_c, 9, 70, 121
15, 44461, Note_on_c, 9, 54, 124
15, 44474, Note_on_c, 9, 46, 0
15, 44477, Note_on_c, 9, 70, 0
15, 44477, Note_on_c, 9, 64, 0
15, 44481, Note_on_c, 9, 54, 0
15, 44482, Note_on_c, 9, 44, 0
15, 44520, Note_on_c, 9, 42, 118
15, 44520, Note_on_c, 9, 38, 127
15, 44520, Note_on_c, 9, 36, 127
15, 44520, Note_on_c, 9, 44, 100
15, 44521, Note_on_c, 9, 70, 109
15, 44521, Note_on_c, 9, 64, 117
15, 44534, Note_on_c, 9, 44, 0
15, 44536, Note_on_c, 9, 70, 0
15, 44536, Note_on_c, 9, 36, 0
15, 44540, Note_on_c, 9, 42, 0
15, 44541, Note_on_c, 9, 64, 0
15, 44545, Note_on_c, 9, 38, 0
15, 44580, Note_on_c, 9, 44, 121
15, 44581, Note_on_c, 9, 62, 119
15, 44581, Note_on_c, 9, 70, 118
15, 44581, Note_on_c, 9, 54, 124
15, 44596, Note_on_c, 9, 62, 0
15, 44597, Note_on_c, 9, 70, 0
15, 44598, Note_on_c, 9, 44, 0
15, 44602, Note_on_c, 9, 54, 0
15, 44610, Note_on_c, 9, 62, 117
15, 44633, Note_on_c, 9, 62, 0
15, 44640, Note_on_c, 9, 36, 127
15, 44641, Note_on_c, 9, 42, 122
15, 44642, Note_on_c, 9, 70, 111
15, 44642, Note_on_c, 9, 63, 121
15, 44650, Note_on_c, 9, 63, 0
15, 44655, Note_on_c, 9, 70, 0
15, 44655, Note_on_c, 9, 36, 0
15, 44661, Note_on_c, 9, 42, 0
15, 44700, Note_on_c, 9, 44, 122
15, 44701, Note_on_c, 9, 70, 120
15, 44701, Note_on_c, 9, 54, 126
15, 44702, Note_on_c, 9, 63, 127
15, 44715, Note_on_c, 9, 63, 0
15, 44718, Note_on_c, 9, 70, 0
15, 44720, Note_on_c, 9, 44, 0
15, 44721, Note_on_c, 9, 54, 0
15, 44760, Note_on_c, 9, 36, 127
15, 44760, Note_on_c, 9, 38, 127
15, 44761, Note_on_c, 9, 42, 121
15, 44761, Note_on_c, 9, 64, 115
15, 44761, Note_on_c, 9, 70, 110
15, 44778, Note_on_c, 9, 64, 0
15, 44778, Note_on_c, 9, 36, 0
15, 44782, Note_on_c, 9, 70, 0
15, 44782, Note_on_c, 9, 42, 0
15, 44788, Note_on_c, 9, 38, 0
15, 44820, Note_on_c, 9, 44, 113
15, 44821, Note_on_c, 9, 70, 120
15, 44821, Note_on_c, 9, 63, 124
15, 44821, Note_on_c, 9, 54, 126
15, 44828, Note_on_c, 9, 63, 0
15, 44836, Note_on_c, 9, 44, 0
15, 44836, Note_on_c, 9, 70, 0
15, 44843, Note_on_c, 9, 54, 0
15, 44850, Note_on_c, 9, 63, 126
15, 44865, Note_on_c, 9, 63, 0
15, 44880, Note_on_c, 9, 36, 127
15, 44880, Note_on_c, 9, 42, 122
15, 44881, Note_on_c, 9, 70, 109
15, 44894, Note_on_c, 9, 70, 0
15, 44898, Note_on_c, 9, 36, 0
15, 44900, Note_on_c, 9, 42, 0
15, 44910, Note_on_c, 9, 63, 120
15, 44925, Note_on_c, 9, 63, 0
15, 44940, Note_on_c, 9, 44, 118
15, 44940, Note_on_c, 9, 46, 127
15, 44941, Note_on_c, 9, 54, 126
15, 44941, Note_on_c, 9, 70, 123
15, 44941, Note_on_c, 9, 64, 116
15, 44954, Note_on_c, 9, 46, 0
15, 44957, Note_on_c, 9, 64, 0
15, 44958, Note_on_c, 9, 44, 0
15, 44962, Note_on_c, 9, 54, 0
15, 44962, Note_on_c, 9, 70, 0
15, 45000, Note_on_c, 9, 38, 127
15, 45000, Note_on_c, 9, 36, 127
15, 45000, Note_on_c, 9, 44, 100
15, 45001, Note_on_c, 9, 70, 116
15, 45001, Note_on_c, 9, 64, 118
15, 45001, Note_on_c, 9, 42, 121
15, 45013, Note_on_c, 9, 70, 0
15, 45014, Note_on_c, 9, 44, 0
15, 45020, Note_on_c, 9, 36, 0
15, 45021, Note_on_c, 9, 64, 0
15, 45023, Note_on_c, 9, 42, 0
15, 45033, Note_on_c, 9, 38, 0
15, 45060, Note_on_c, 9, 44, 118
15, 45061, Note_on_c, 9, 62, 120
15, 45061, Note_on_c, 9, 70, 120
15, 45061, Note_on_c, 9, 54, 126
15, 45072, Note_on_c, 9, 70, 0
15, 45072, Note_on_c, 9, 62, 0
15, 45083, Note_on_c, 9, 44, 0
15, 45084, Note_on_c, 9, 54, 0
15, 45090, Note_on_c, 9, 62, 119
15, 45110, Note_on_c, 9, 62, 0
15, 45120, Note_on_c, 9, 36, 127
15, 45120, Note_on_c, 9, 42, 123
15, 45121, Note_on_c, 9, 70, 114
15, 45122, Note_on_c, 9, 63, 123
15, 45135, Note_on_c, 9, 36, 0
15, 45138, Note_on_c, 9, 63, 0
15, 45139, Note_on_c, 9, 70, 0
15, 45142, Note_on_c, 9, 42, 0
15, 45180, Note_on_c, 9, 44, 121
15, 45181, Note_on_c, 9, 54, 126
15, 45181, Note_on_c, 9, 70, 117
15, 45182, Note_on_c, 9, 63, 121
15, 45190, Note_on_c, 9, 63, 0
15, 45193, Note_on_c, 9, 70, 0
15, 45201, Note_on_c, 9, 54, 0
15, 45203, Note_on_c, 9, 44, 0
15, 45240, Note_on_c, 9, 38, 127
15, 45240, Note_on_c, 9, 36, 127
15, 45241, Note_on_c, 9, 64, 118
15, 45241, Note_on_c, 9, 70, 108
15, 45241, Note_on_c, 9, 42, 117
15, 45253, Note_on_c, 9, 64, 0
15, 45257, Note_on_c, 9, 70, 0
15, 45260, Note_on_c, 9, 36, 0
15, 45262, Note_on_c, 9, 42, 0
15, 45270, Note_on_c, 9, 38, 0
15, 45300, Note_on_c, 9, 44, 123
15, 45301, Note_on_c, 9, 54, 127
15, 45301, Note_on_c, 9, 63, 120
15, 45301, Note_on_c, 9, 70, 120
15, 45307, Note_on_c, 9, 63, 0
15, 45315, Note_on_c, 9, 44, 0
15, 45323, Note_on_c, 9, 54, 0
15, 45323, Note_on_c, 9, 70, 0
15, 45330, Note_on_c, 9, 63, 124
15, 45342, Note_on_c, 9, 63, 0
15, 45360, Note_on_c, 9, 36, 127
15, 45361, Note_on_c, 9, 42, 124
15, 45361, Note_on_c, 9, 70, 110
15, 45379, Note_on_c, 9, 70, 0
15, 45381, Note_on_c, 9, 42, 0
15, 45382, Note_on_c, 9, 36, 0
15, 45390, Note_on_c, 9, 63, 124
15, 45402, Note_on_c, 9, 63, 0
15, 45420, Note_on_c, 9, 44, 121
15, 45420, Note_on_c, 9, 46, 127
15, 45421, Note_on_c, 9, 70, 121
15, 45421, Note_on_c, 9, 54, 120
15, 45421, Note_on_c, 9, 64, 115
15, 45434, Note_on_c, 9, 70, 0
15, 45434, Note_on_c, 9, 46, 0
15, 45436, Note_on_c, 9, 64, 0
15, 45438, Note_on_c, 9, 44, 0
15, 45444, Note_on_c, 9, 54, 0
15, 45450, Note_on_c, 9, 65, 127
15, 45465, Note_on_c, 9, 65, 127
15, 45473, Note_on_c, 9, 65, 0
15, 45480, Note_on_c, 9, 65, 127
15, 45480, Note_on_c, 9, 38, 127
15, 45480, Note_on_c, 9, 36, 127
15, 45480, Note_on_c, 9, 44, 100
15, 45481, Note_on_c, 9, 64, 115
15, 45481, Note_on_c, 9, 42, 120
15, 45481, Note_on_c, 9, 70, 109
15, 45488, Note_on_c, 9, 65, 0
15, 45494, Note_on_c, 9, 44, 0
15, 45498, Note_on_c, 9, 36, 0
15, 45498, Note_on_c, 9, 38, 0
15, 45499, Note_on_c, 9, 42, 0
15, 45499, Note_on_c, 9, 64, 0
15, 45501, Note_on_c, 9, 70, 0
15, 45503, Note_on_c, 9, 65, 0
15, 45540, Note_on_c, 9, 44, 118
15, 45541, Note_on_c, 9, 54, 123
15, 45541, Note_on_c, 9, 70, 117
15, 45542, Note_on_c, 9, 62, 120
15, 45557, Note_on_c, 9, 62, 0
15, 45558, Note_on_c, 9, 44, 0
15, 45562, Note_on_c, 9, 70, 0
15, 45562, Note_on_c, 9, 54, 0
15, 45570, Note_on_c, 9, 62, 120
15, 45593, Note_on_c, 9, 62, 0
15, 45600, Note_on_c, 9, 36, 127
15, 45601, Note_on_c, 9, 42, 123
15, 45602, Note_on_c, 9, 63, 123
15, 45602, Note_on_c, 9, 70, 107
15, 45610, Note_on_c, 9, 63, 0
15, 45615, Note_on_c, 9, 70, 0
15, 45620, Note_on_c, 9, 36, 0
15, 45621, Note_on_c, 9, 42, 0
15, 45660, Note_on_c, 9, 44, 118
15, 45661, Note_on_c, 9, 70, 118
15, 45661, Note_on_c, 9, 54, 124
15, 45662, Note_on_c, 9, 63, 126
15, 45674, Note_on_c, 9, 70, 0
15, 45675, Note_on_c, 9, 63, 0
15, 45680, Note_on_c, 9, 44, 0
15, 45686, Note_on_c, 9, 54, 0
15, 45720, Note_on_c, 9, 36, 127
15, 45720, Note_on_c, 9, 38, 127
15, 45721, Note_on_c, 9, 70, 109
15, 45721, Note_on_c, 9, 64, 115
15, 45721, Note_on_c, 9, 42, 121
15, 45739, Note_on_c, 9, 42, 0
15, 45741, Note_on_c, 9, 70, 0
15, 45743, Note_on_c, 9, 64, 0
15, 45746, Note_on_c, 9, 36, 0
15, 45756, Note_on_c, 9, 38, 0
15, 45780, Note_on_c, 9, 44, 121
15, 45781, Note_on_c, 9, 54, 122
15, 45781, Note_on_c, 9, 70, 120
15, 45782, Note_on_c, 9, 63, 116
15, 45790, Note_on_c, 9, 63, 0
15, 45794, Note_on_c, 9, 70, 0
15, 45798, Note_on_c, 9, 44, 0
15, 45806, Note_on_c, 9, 54, 0
15, 45810, Note_on_c, 9, 63, 122
15, 45821, Note_on_c, 9, 63, 0
15, 45840, Note_on_c, 9, 42, 120
15, 45840, Note_on_c, 9, 36, 127
15, 45841, Note_on_c, 9, 70, 109
15, 45855, Note_on_c, 9, 42, 0
15, 45856, Note_on_c, 9, 70, 0
15, 45866, Note_on_c, 9, 36, 0
15, 45870, Note_on_c, 9, 63, 124
15, 45882, Note_on_c, 9, 63, 0
15, 45900, Note_on_c, 9, 44, 123
15, 45900, Note_on_c, 9, 46, 127
15, 45901, Note_on_c, 9, 54, 124
15, 45901, Note_on_c, 9, 70, 121
15, 45902, Note_on_c, 9, 64, 115
15, 45914, Note_on_c, 9, 46, 0
15, 45916, Note_on_c, 9, 44, 0
15, 45917, Note_on_c, 9, 64, 0
15, 45918, Note_on_c, 9, 70, 0
15, 45923, Note_on_c, 9, 54, 0
15, 45960, Note_on_c, 9, 38, 127
15, 45960, Note_on_c, 9, 36, 127
15, 45960, Note_on_c, 9, 44, 100
15, 45961, Note_on_c, 9, 64, 114
15, 45961, Note_on_c, 9, 42, 122
15, 45961, Note_on_c, 9, 70, 109
15, 45974, Note_on_c, 9, 44, 0
15, 45976, Note_on_c, 9, 70, 0
15, 45981, Note_on_c, 9, 64, 0
15, 45982, Note_on_c, 9, 42, 0
15, 45985, Note_on_c, 9, 38, 0
15, 45988, Note_on_c, 9, 36, 0
15, 46020, Note_on_c, 9, 44, 117
15, 46021, Note_on_c, 9, 54, 123
15, 46022, Note_on_c, 9, 62, 119
15, 46022, Note_on_c, 9, 70, 120
15, 46037, Note_on_c, 9, 70, 0
15, 46038, Note_on_c, 9, 62, 0
15, 46040, Note_on_c, 9, 44, 0
15, 46042, Note_on_c, 9, 54, 0
15, 46050, Note_on_c, 9, 62, 122
15, 46073, Note_on_c, 9, 62, 0
15, 46080, Note_on_c, 9, 36, 127
15, 46081, Note_on_c, 9, 42, 123
15, 46082, Note_on_c, 9, 70, 109
15, 46082, Note_on_c, 9, 63, 123
15, 46092, Note_on_c, 9, 63, 0
15, 46096, Note_on_c, 9, 36, 0
15, 46099, Note_on_c, 9, 70, 0
15, 46099, Note_on_c, 9, 42, 0
15, 46140, Note_on_c, 9, 44, 108
15, 46141, Note_on_c, 9, 54, 123
15, 46141, Note_on_c, 9, 70, 118
15, 46142, Note_on_c, 9, 63, 123
15, 46154, Note_on_c, 9, 70, 0
15, 46155, Note_on_c, 9, 63, 0
15, 46158, Note_on_c, 9, 44, 0
15, 46166, Note_on_c, 9, 54, 0
15, 46200, Note_on_c, 9, 42, 117
15, 46200, Note_on_c, 9, 38, 127
15, 46200, Note_on_c, 9, 36, 127
15, 46201, Note_on_c, 9, 70, 108
15, 46201, Note_on_c, 9, 64, 119
15, 46215, Note_on_c, 9, 36, 0
15, 46216, Note_on_c, 9, 42, 0
15, 46217, Note_on_c, 9, 70, 0
15, 46223, Note_on_c, 9, 64, 0
15, 46226, Note_on_c, 9, 38, 0
15, 46260, Note_on_c, 9, 44, 105
15, 46261, Note_on_c, 9, 70, 120
15, 46261, Note_on_c, 9, 54, 124
15, 46262, Note_on_c, 9, 63, 120
15, 46270, Note_on_c, 9, 63, 0
15, 46276, Note_on_c, 9, 70, 0
15, 46278, Note_on_c, 9, 44, 0
15, 46282, Note_on_c, 9, 54, 0
15, 46290, Note_on_c, 9, 63, 123
15, 46302, Note_on_c, 9, 63, 0
15, 46320, Note_on_c, 9, 36, 127
15, 46321, Note_on_c, 9, 42, 112
15, 46321, Note_on_c, 9, 70, 106
15, 46338, Note_on_c, 9, 70, 0
15, 46338, Note_on_c, 9, 36, 0
15, 46339, Note_on_c, 9, 42, 0
15, 46350, Note_on_c, 9, 63, 124
15, 46361, Note_on_c, 9, 63, 0
15, 46380, Note_on_c, 9, 44, 114
15, 46380, Note_on_c, 9, 46, 127
15, 46381, Note_on_c, 9, 70, 120
15, 46381, Note_on_c, 9, 54, 123
15, 46382, Note_on_c, 9, 64, 115
15, 46394, Note_on_c, 9, 46, 0
15, 46398, Note_on_c, 9, 64, 0
15, 46399, Note_on_c, 9, 70, 0
15, 46402, Note_on_c, 9, 44, 0
15, 46406, Note_on_c, 9, 54, 0
15, 46440, Note_on_c, 9, 38, 127
15, 46440, Note_on_c, 9, 36, 127
15, 46440, Note_on_c, 9, 44, 100
15, 46441, Note_on_c, 9, 64, 117
15, 46441, Note_on_c, 9, 42, 112
15, 46441, Note_on_c, 9, 70, 106
15, 46454, Note_on_c, 9, 44, 0
15, 46456, Note_on_c, 9, 36, 0
15, 46457, Note_on_c, 9, 70, 0
15, 46459, Note_on_c, 9, 64, 0
15, 46463, Note_on_c, 9, 42, 0
15, 46465, Note_on_c, 9, 38, 0
15, 46500, Note_on_c, 9, 66, 127
15, 46500, Note_on_c, 9, 44, 117
15, 46501, Note_on_c, 9, 70, 120
15, 46501, Note_on_c, 9, 54, 124
15, 46502, Note_on_c, 9, 62, 125
15, 46514, Note_on_c, 9, 70, 0
15, 46518, Note_on_c, 9, 62, 0
15, 46521, Note_on_c, 9, 54, 0
15, 46522, Note_on_c, 9, 44, 0
15, 46523, Note_on_c, 9, 66, 0
15, 46530, Note_on_c, 9, 62, 127
15, 46545, Note_on_c, 9, 62, 0
15, 46560, Note_on_c, 9, 36, 127
15, 46561, Note_on_c, 9, 42, 123
15, 46562, Note_on_c, 9, 63, 123
15, 46562, Note_on_c, 9, 70, 107
15, 46570, Note_on_c, 9, 63, 0
15, 46575, Note_on_c, 9, 70, 0
15, 46580, Note_on_c, 9, 36, 0
15, 46581, Note_on_c, 9, 42, 0
15, 46620, Note_on_c, 9, 44, 118
15, 46621, Note_on_c, 9, 70, 118
15, 46621, Note_on_c, 9, 54, 124
15, 46622, Note_on_c, 9, 63, 126
15, 46634, Note_on_c, 9, 70, 0
15, 46635, Note_on_c, 9, 63, 0
15, 46640, Note_on_c, 9, 44, 0
15, 46646, Note_on_c, 9, 54, 0
15, 46680, Note_on_c, 9, 36, 127
15, 46680, Note_on_c, 9, 38, 127
15, 46681, Note_on_c, 9, 70, 109
15, 46681, Note_on_c, 9, 64, 115
15, 46681, Note_on_c, 9, 42, 121
15, 46699, Note_on_c, 9, 42, 0
15, 46701, Note_on_c, 9, 70, 0
15, 46703, Note_on_c, 9, 64, 0
15, 46706, Note_on_c, 9, 36, 0
15, 46716, Note_on_c, 9, 38, 0
15, 46740, Note_on_c, 9, 44, 121
15, 46741, Note_on_c, 9, 54, 122
15, 46741, Note_on_c, 9, 70, 120
15, 46742, Note_on_c, 9, 63, 116
15, 46750, Note_on_c, 9, 63, 0
15, 46754, Note_on_c, 9, 70, 0
15, 46758, Note_on_c, 9, 44, 0
15, 46766, Note_on_c, 9, 54, 0
15, 46770, Note_on_c, 9, 63, 122
15, 46781, Note_on_c, 9, 63, 0
15, 46800, Note_on_c, 9, 42, 120
15, 46800, Note_on_c, 9, 36, 127
15, 46801, Note_on_c, 9, 70, 109
15, 46815, Note_on_c, 9, 42, 0
15, 46816, Note_on_c, 9, 70, 0
15, 46826, Note_on_c, 9, 36, 0
15, 46830, Note_on_c, 9, 63, 124
15, 46842, Note_on_c, 9, 63, 0
15, 46860, Note_on_c, 9, 44, 123
15, 46860, Note_on_c, 9, 46, 127
15, 46861, Note_on_c, 9, 54, 124
15, 46861, Note_on_c, 9, 70, 121
15, 46862, Note_on_c, 9, 64, 115
15, 46874, Note_on_c, 9, 46, 0
15, 46876, Note_on_c, 9, 44, 0
15, 46877, Note_on_c, 9, 64, 0
15, 46878, Note_on_c, 9, 70, 0
15, 46883, Note_on_c, 9, 54, 0
15, 46920, Note_on_c, 9, 38, 127
15, 46920, Note_on_c, 9, 36, 127
15, 46920, Note_on_c, 9, 44, 100
15, 46921, Note_on_c, 9, 64, 114
15, 46921, Note_on_c, 9, 42, 122
15, 46921, Note_on_c, 9, 70, 109
15, 46934, Note_on_c, 9, 44, 0
15, 46936, Note_on_c, 9, 70, 0
15, 46941, Note_on_c, 9, 64, 0
15, 46942, Note_on_c, 9, 42, 0
15, 46945, Note_on_c, 9, 38, 0
15, 46948, Note_on_c, 9, 36, 0
15, 46980, Note_on_c, 9, 44, 117
15, 46981, Note_on_c, 9, 54, 123
15, 46982, Note_on_c, 9, 62, 119
15, 46982, Note_on_c, 9, 70, 120
15, 46997, Note_on_c, 9, 70, 0
15, 46998, Note_on_c, 9, 62, 0
15, 47000, Note_on_c, 9, 44, 0
15, 47002, Note_on_c, 9, 54, 0
15, 47010, Note_on_c, 9, 62, 122
15, 47033, Note_on_c, 9, 62, 0
15, 47040, Note_on_c, 9, 36, 127
15, 47041, Note_on_c, 9, 42, 123
15, 47042, Note_on_c, 9, 70, 109
15, 47042, Note_on_c, 9, 63, 123
15, 47052, Note_on_c, 9, 63, 0
15, 47056, Note_on_c, 9, 36, 0
15, 47059, Note_on_c, 9, 70, 0
15, 47059, Note_on_c, 9, 42, 0
15, 47100, Note_on_c, 9, 65, 127
15, 47100, Note_on_c, 9, 44, 108
15, 47101, Note_on_c, 9, 54, 123
15, 47101, Note_on_c, 9, 70, 118
15, 47102, Note_on_c, 9, 63, 123
15, 47114, Note_on_c, 9, 70, 0
15, 47114, Note_on_c, 9, 65, 0
15, 47115, Note_on_c, 9, 63, 0
15, 47118, Note_on_c, 9, 44, 0
15, 47126, Note_on_c, 9, 54, 0
15, 47160, Note_on_c, 9, 65, 127
15, 47160, Note_on_c, 9, 42, 117
15, 47160, Note_on_c, 9, 38, 127
15, 47160, Note_on_c, 9, 36, 127
15, 47161, Note_on_c, 9, 70, 108
15, 47161, Note_on_c, 9, 64, 119
15, 47174, Note_on_c, 9, 65, 0
15, 47175, Note_on_c, 9, 36, 0
15, 47176, Note_on_c, 9, 42, 0
15, 47177, Note_on_c, 9, 70, 0
15, 47183, Note_on_c, 9, 64, 0
15, 47186, Note_on_c, 9, 38, 0
15, 47220, Note_on_c, 9, 65, 127
15, 47220, Note_on_c, 9, 44, 105
15, 47221, Note_on_c, 9, 70, 120
15, 47221, Note_on_c, 9, 54, 124
15, 47222, Note_on_c, 9, 63, 120
15, 47230, Note_on_c, 9, 63, 0
15, 47234, Note_on_c, 9, 65, 0
15, 47236, Note_on_c, 9, 70, 0
15, 47238, Note_on_c, 9, 44, 0
15, 47242, Note_on_c, 9, 54, 0
15, 47250, Note_on_c, 9, 63, 123
15, 47262, Note_on_c, 9, 63, 0
15, 47280, Note_on_c, 9, 66, 127
15, 47280, Note_on_c, 9, 36, 127
15, 47281, Note_on_c, 9, 42, 112
15, 47281, Note_on_c, 9, 70, 106
15, 47298, Note_on_c, 9, 70, 0
15, 47298, Note_on_c, 9, 36, 0
15, 47299, Note_on_c, 9, 42, 0
15, 47303, Note_on_c, 9, 66, 0
15, 47310, Note_on_c, 9, 63, 124
15, 47321, Note_on_c, 9, 63, 0
15, 47325, Note_on_c, 9, 65, 127
15, 47340, Note_on_c, 9, 65, 127
15, 47340, Note_on_c, 9, 44, 114
15, 47340, Note_on_c, 9, 46, 127
15, 47341, Note_on_c, 9, 70, 120
15, 47341, Note_on_c, 9, 54, 123
15, 47342, Note_on_c, 9, 64, 115
15, 47348, Note_on_c, 9, 65, 0
15, 47354, Note_on_c, 9, 46, 0
15, 47358, Note_on_c, 9, 64, 0
15, 47359, Note_on_c, 9, 70, 0
15, 47362, Note_on_c, 9, 44, 0
15, 47363, Note_on_c, 9, 65, 0
15, 47366, Note_on_c, 9, 54, 0
15, 47400, Note_on_c, 9, 65, 127
15, 47400, Note_on_c, 9, 38, 127
15, 47400, Note_on_c, 9, 36, 127
15, 47400, Note_on_c, 9, 44, 100
15, 47401, Note_on_c, 9, 64, 117
15, 47401, Note_on_c, 9, 42, 112
15, 47401, Note_on_c, 9, 70, 106
15, 47414, Note_on_c, 9, 44, 0
15, 47416, Note_on_c, 9, 36, 0
15, 47417, Note_on_c, 9, 70, 0
15, 47419, Note_on_c, 9, 64, 0
15, 47423, Note_on_c, 9, 42, 0
15, 47423, Note_on_c, 9, 65, 0
15, 47425, Note_on_c, 9, 38, 0
15, 47460, Note_on_c, 9, 44, 117
15, 47461, Note_on_c, 9, 70, 120
15, 47461, Note_on_c, 9, 54, 124
15, 47462, Note_on_c, 9, 62, 125
15, 47474, Note_on_c, 9, 70, 0
15, 47478, Note_on_c, 9, 62, 0
15, 47481, Note_on_c, 9, 54, 0
15, 47482, Note_on_c, 9, 44, 0
15, 47490, Note_on_c, 9, 66, 127
15, 47490, Note_on_c, 9, 62, 127
15, 47505, Note_on_c, 9, 62, 0
15, 47505, Note_on_c, 9, 66, 127
15, 47513, Note_on_c, 9, 66, 0
15, 47520, Note_on_c, 9, 36, 127
15, 47521, Note_on_c, 9, 70, 113
15, 47521, Note_on_c, 9, 42, 118
15, 47522, Note_on_c, 9, 63, 122
15, 47528, Note_on_c, 9, 66, 0
15, 47535, Note_on_c, 9, 63, 0
15, 47536, Note_on_c, 9, 36, 0
15, 47536, Note_on_c, 9, 70, 0
15, 47541, Note_on_c, 9, 42, 0
15, 47580, Note_on_c, 9, 44, 97
15, 47581, Note_on_c, 9, 54, 127
15, 47581, Note_on_c, 9, 70, 127
15, 47582, Note_on_c, 9, 63, 122
15, 47587, Note_on_c, 9, 63, 0
15, 47598, Note_on_c, 9, 54, 0
15, 47601, Note_on_c, 9, 70, 0
15, 47603, Note_on_c, 9, 44, 0
15, 47610, Note_on_c, 9, 65, 127
15, 47625, Note_on_c, 9, 66, 127
15, 47630, Note_on_c, 9, 65, 0
15, 47640, Note_on_c, 9, 38, 127
15, 47640, Note_on_c, 9, 36, 127
15, 47641, Note_on_c, 9, 64, 122
15, 47641, Note_on_c, 9, 70, 122
15, 47641, Note_on_c, 9, 65, 127
15, 47641, Note_on_c, 9, 42, 118
15, 47648, Note_on_c, 9, 66, 0
15, 47651, Note_on_c, 9, 70, 0
15, 47655, Note_on_c, 9, 36, 0
15, 47658, Note_on_c, 9, 42, 0
15, 47666, Note_on_c, 9, 38, 0
15, 47666, Note_on_c, 9, 64, 0
15, 47681, Note_on_c, 9, 65, 0
15, 47700, Note_on_c, 9, 44, 110
15, 47701, Note_on_c, 9, 54, 117
15, 47701, Note_on_c, 9, 70, 127
15, 47702, Note_on_c, 9, 63, 120
15, 47716, Note_on_c, 9, 54, 0
15, 47717, Note_on_c, 9, 63, 0
15, 47722, Note_on_c, 9, 70, 0
15, 47722, Note_on_c, 9, 44, 0
15, 47730, Note_on_c, 9, 63, 127
15, 47746, Note_on_c, 9, 63, 0
15, 47760, Note_on_c, 9, 65, 127
15, 47760, Note_on_c, 9, 36, 127
15, 47761, Note_on_c, 9, 42, 120
15, 47761, Note_on_c, 9, 70, 123
15, 47774, Note_on_c, 9, 70, 0
15, 47778, Note_on_c, 9, 36, 0
15, 47781, Note_on_c, 9, 42, 0
15, 47783, Note_on_c, 9, 65, 0
15, 47790, Note_on_c, 9, 63, 127
15, 47801, Note_on_c, 9, 63, 0
15, 47820, Note_on_c, 9, 44, 105
15, 47820, Note_on_c, 9, 46, 127
15, 47821, Note_on_c, 9, 64, 115
15, 47821, Note_on_c, 9, 65, 101
15, 47821, Note_on_c, 9, 54, 122
15, 47821, Note_on_c, 9, 70, 127
15, 47833, Note_on_c, 9, 65, 0
15, 47834, Note_on_c, 9, 46, 0
15, 47837, Note_on_c, 9, 64, 0
15, 47839, Note_on_c, 9, 54, 0
15, 47842, Note_on_c, 9, 70, 0
15, 47842, Note_on_c, 9, 44, 0
15, 47880, Note_on_c, 9, 36, 127
15, 47880, Note_on_c, 9, 38, 127
15, 47880, Note_on_c, 9, 44, 100
15, 47881, Note_on_c, 9, 64, 114
15, 47881, Note_on_c, 9, 70, 109
15, 47881, Note_on_c, 9, 65, 127
15, 47881, Note_on_c, 9, 42, 120
15, 47894, Note_on_c, 9, 44, 0
15, 47896, Note_on_c, 9, 36, 0
15, 47897, Note_on_c, 9, 70, 0
15, 47899, Note_on_c, 9, 64, 0
15, 47902, Note_on_c, 9, 42, 0
15, 47905, Note_on_c, 9, 38, 0
15, 47931, Note_on_c, 9, 65, 0
15, 47940, Note_on_c, 9, 44, 98
15, 47941, Note_on_c, 9, 70, 120
15, 47941, Note_on_c, 9, 54, 124
15, 47942, Note_on_c, 9, 62, 120
15, 47954, Note_on_c, 9, 70, 0
15, 47957, Note_on_c, 9, 62, 0
15, 47966, Note_on_c, 9, 54, 0
15, 47966, Note_on_c, 9, 44, 0
15, 47970, Note_on_c, 9, 62, 120
15, 47986, Note_on_c, 9, 62, 0
15, 48000, Note_on_c, 9, 36, 127
15, 48001, Note_on_c, 9, 42, 121
15, 48002, Note_on_c, 9, 49, 115
15, 48002, Note_on_c, 9, 63, 127
15, 48002, Note_on_c, 9, 70, 104
15, 48013, Note_on_c, 9, 49, 0
15, 48015, Note_on_c, 9, 36, 0
15, 48018, Note_on_c, 9, 63, 0
15, 48020, Note_on_c, 9, 70, 0
15, 48024, Note_on_c, 9, 42, 0
15, 48060, Note_on_c, 9, 44, 103
15, 48061, Note_on_c, 9, 63, 114
15, 48061, Note_on_c, 9, 70, 115
15, 48061, Note_on_c, 9, 54, 127
15, 48071, Note_on_c, 9, 63, 0
15, 48074, Note_on_c, 9, 70, 0
15, 48082, Note_on_c, 9, 44, 0
15, 48086, Note_on_c, 9, 54, 0
15, 48120, Note_on_c, 9, 38, 127
15, 48120, Note_on_c, 9, 36, 127
15, 48121, Note_on_c, 9, 70, 104
15, 48121, Note_on_c, 9, 64, 115
15, 48121, Note_on_c, 9, 42, 123
15, 48138, Note_on_c, 9, 36, 0
15, 48141, Note_on_c, 9, 70, 0
15, 48143, Note_on_c, 9, 64, 0
15, 48148, Note_on_c, 9, 38, 0
15, 48151, Note_on_c, 9, 42, 0
15, 48180, Note_on_c, 9, 44, 111
15, 48181, Note_on_c, 9, 54, 124
15, 48181, Note_on_c, 9, 70, 118
15, 48182, Note_on_c, 9, 63, 113
15, 48192, Note_on_c, 9, 63, 0
15, 48199, Note_on_c, 9, 70, 0
15, 48202, Note_on_c, 9, 44, 0
15, 48203, Note_on_c, 9, 54, 0
15, 48210, Note_on_c, 9, 63, 127
15, 48221, Note_on_c, 9, 63, 0
15, 48240, Note_on_c, 9, 42, 118
15, 48240, Note_on_c, 9, 36, 127
15, 48241, Note_on_c, 9, 70, 105
15, 48258, Note_on_c, 9, 36, 0
15, 48259, Note_on_c, 9, 70, 0
15, 48261, Note_on_c, 9, 42, 0
15, 48270, Note_on_c, 9, 63, 127
15, 48281, Note_on_c, 9, 63, 0
15, 48300, Note_on_c, 9, 44, 108
15, 48300, Note_on_c, 9, 46, 127
15, 48301, Note_on_c, 9, 64, 110
15, 48301, Note_on_c, 9, 54, 123
15, 48301, Note_on_c, 9, 70, 122
15, 48314, Note_on_c, 9, 46, 0
15, 48315, Note_on_c, 9, 44, 0
15, 48317, Note_on_c, 9, 64, 0
15, 48318, Note_on_c, 9, 54, 0
15, 48322, Note_on_c, 9, 70, 0
15, 48360, Note_on_c, 9, 36, 127
15, 48360, Note_on_c, 9, 38, 127
15, 48360, Note_on_c, 9, 44, 100
15, 48361, Note_on_c, 9, 42, 126
15, 48361, Note_on_c, 9, 70, 108
15, 48361, Note_on_c, 9, 64, 109
15, 48374, Note_on_c, 9, 44, 0
15, 48377, Note_on_c, 9, 70, 0
15, 48379, Note_on_c, 9, 64, 0
15, 48380, Note_on_c, 9, 36, 0
15, 48382, Note_on_c, 9, 42, 0
15, 48393, Note_on_c, 9, 38, 0
15, 48420, Note_on_c, 9, 44, 107
15, 48421, Note_on_c, 9, 70, 120
15, 48421, Note_on_c, 9, 54, 122
15, 48422, Note_on_c, 9, 62, 119
15, 48435, Note_on_c, 9, 62, 0
15, 48437, Note_on_c, 9, 70, 0
15, 48438, Note_on_c, 9, 44, 0
15, 48442, Note_on_c, 9, 54, 0
15, 48450, Note_on_c, 9, 62, 115
15, 48472, Note_on_c, 9, 62, 0
15, 48480, Note_on_c, 9, 42, 122
15, 48480, Note_on_c, 9, 36, 127
15, 48482, Note_on_c, 9, 63, 127
15, 48482, Note_on_c, 9, 70, 116
15, 48492, Note_on_c, 9, 63, 0
15, 48494, Note_on_c, 9, 70, 0
15, 48495, Note_on_c, 9, 36, 0
15, 48505, Note_on_c, 9, 42, 0
15, 48540, Note_on_c, 9, 44, 116
15, 48541, Note_on_c, 9, 70, 118
15, 48541, Note_on_c, 9, 63, 118
15, 48541, Note_on_c, 9, 54, 126
15, 48551, Note_on_c, 9, 63, 0
15, 48556, Note_on_c, 9, 70, 0
15, 48561, Note_on_c, 9, 54, 0
15, 48562, Note_on_c, 9, 44, 0
15, 48570, Note_on_c, 9, 65, 127
15, 48585, Note_on_c, 9, 65, 127
15, 48593, Note_on_c, 9, 65, 0
15, 48600, Note_on_c, 9, 65, 127
15, 48600, Note_on_c, 9, 38, 127
15, 48600, Note_on_c, 9, 36, 127
15, 48601, Note_on_c, 9, 42, 122
15, 48601, Note_on_c, 9, 64, 118
15, 48601, Note_on_c, 9, 70, 114
15, 48608, Note_on_c, 9, 65, 0
15, 48613, Note_on_c, 9, 64, 0
15, 48617, Note_on_c, 9, 70, 0
15, 48620, Note_on_c, 9, 36, 0
15, 48622, Note_on_c, 9, 42, 0
15, 48623, Note_on_c, 9, 65, 0
15, 48630, Note_on_c, 9, 38, 0
15, 48660, Note_on_c, 9, 44, 116
15, 48661, Note_on_c, 9, 54, 118
15, 48661, Note_on_c, 9, 70, 117
15, 48661, Note_on_c, 9, 63, 109
15, 48671, Note_on_c, 9, 63, 0
15, 48677, Note_on_c, 9, 70, 0
15, 48678, Note_on_c, 9, 44, 0
15, 48682, Note_on_c, 9, 54, 0
15, 48690, Note_on_c, 9, 63, 127
15, 48702, Note_on_c, 9, 63, 0
15, 48720, Note_on_c, 9, 36, 127
15, 48721, Note_on_c, 9, 70, 114
15, 48721, Note_on_c, 9, 42, 123
15, 48736, Note_on_c, 9, 70, 0
15, 48742, Note_on_c, 9, 36, 0
15, 48743, Note_on_c, 9, 42, 0
15, 48750, Note_on_c, 9, 63, 124
15, 48761, Note_on_c, 9, 63, 0
15, 48780, Note_on_c, 9, 44, 111
15, 48780, Note_on_c, 9, 46, 127
15, 48781, Note_on_c, 9, 70, 118
15, 48781, Note_on_c, 9, 54, 124
15, 48782, Note_on_c, 9, 64, 114
15, 48793, Note_on_c, 9, 64, 0
15, 48794, Note_on_c, 9, 46, 0
15, 48794, Note_on_c, 9, 54, 0
15, 48796, Note_on_c, 9, 70, 0
15, 48798, Note_on_c, 9, 44, 0
15, 48840, Note_on_c, 9, 38, 127
15, 48840, Note_on_c, 9, 36, 127
15, 48840, Note_on_c, 9, 44, 100
15, 48841, Note_on_c, 9, 42, 123
15, 48841, Note_on_c, 9, 64, 118
15, 48841, Note_on_c, 9, 70, 111
15, 48854, Note_on_c, 9, 44, 0
15, 48856, Note_on_c, 9, 64, 0
15, 48857, Note_on_c, 9, 70, 0
15, 48858, Note_on_c, 9, 36, 0
15, 48858, Note_on_c, 9, 38, 0
15, 48862, Note_on_c, 9, 42, 0
15, 48900, Note_on_c, 9, 44, 112
15, 48901, Note_on_c, 9, 54, 118
15, 48901, Note_on_c, 9, 70, 117
15, 48902, Note_on_c, 9, 62, 122
15, 48916, Note_on_c, 9, 70, 0
15, 48917, Note_on_c, 9, 62, 0
15, 48918, Note_on_c, 9, 44, 0
15, 48921, Note_on_c, 9, 54, 0
15, 48930, Note_on_c, 9, 62, 125
15, 48950, Note_on_c, 9, 62, 0
15, 48961, Note_on_c, 9, 36, 127
15, 48961, Note_on_c, 9, 42, 121
15, 48962, Note_on_c, 9, 70, 109
15, 48962, Note_on_c, 9, 63, 127
15, 48970, Note_on_c, 9, 63, 0
15, 48974, Note_on_c, 9, 70, 0
15, 48979, Note_on_c, 9, 36, 0
15, 48983, Note_on_c, 9, 42, 0
15, 49020, Note_on_c, 9, 44, 106
15, 49021, Note_on_c, 9, 70, 120
15, 49021, Note_on_c, 9, 54, 123
15, 49022, Note_on_c, 9, 63, 124
15, 49025, Note_on_c, 9, 63, 0
15, 49034, Note_on_c, 9, 54, 0
15, 49038, Note_on_c, 9, 44, 0
15, 49042, Note_on_c, 9, 70, 0
15, 49080, Note_on_c, 9, 36, 127
15, 49080, Note_on_c, 9, 38, 127
15, 49081, Note_on_c, 9, 42, 120
15, 49081, Note_on_c, 9, 70, 106
15, 49081, Note_on_c, 9, 64, 122
15, 49093, Note_on_c, 9, 64, 0
15, 49096, Note_on_c, 9, 70, 0
15, 49099, Note_on_c, 9, 42, 0
15, 49106, Note_on_c, 9, 36, 0
15, 49116, Note_on_c, 9, 38, 0
15, 49140, Note_on_c, 9, 44, 113
15, 49141, Note_on_c, 9, 70, 117
15, 49141, Note_on_c, 9, 54, 121
15, 49142, Note_on_c, 9, 63, 118
15, 49147, Note_on_c, 9, 63, 0
15, 49154, Note_on_c, 9, 70, 0
15, 49161, Note_on_c, 9, 54, 0
15, 49162, Note_on_c, 9, 44, 0
15, 49170, Note_on_c, 9, 63, 127
15, 49186, Note_on_c, 9, 63, 0
15, 49200, Note_on_c, 9, 36, 127
15, 49201, Note_on_c, 9, 70, 110
15, 49201, Note_on_c, 9, 42, 115
15, 49219, Note_on_c, 9, 70, 0
15, 49223, Note_on_c, 9, 42, 0
15, 49226, Note_on_c, 9, 36, 0
15, 49230, Note_on_c, 9, 63, 123
15, 49242, Note_on_c, 9, 63, 0
15, 49260, Note_on_c, 9, 44, 118
15, 49260, Note_on_c, 9, 46, 127
15, 49261, Note_on_c, 9, 54, 123
15, 49261, Note_on_c, 9, 70, 118
15, 49262, Note_on_c, 9, 64, 117
15, 49274, Note_on_c, 9, 46, 0
15, 49276, Note_on_c, 9, 70, 0
15, 49277, Note_on_c, 9, 64, 0
15, 49277, Note_on_c, 9, 54, 0
15, 49286, Note_on_c, 9, 44, 0
15, 49320, Note_on_c, 9, 36, 127
15, 49320, Note_on_c, 9, 38, 127
15, 49320, Note_on_c, 9, 44, 100
15, 49321, Note_on_c, 9, 42, 120
15, 49321, Note_on_c, 9, 70, 110
15, 49334, Note_on_c, 9, 44, 0
15, 49337, Note_on_c, 9, 70, 0
15, 49338, Note_on_c, 9, 42, 0
15, 49345, Note_on_c, 9, 38, 0
15, 49348, Note_on_c, 9, 36, 0
15, 49380, Note_on_c, 9, 44, 112
15, 49381, Note_on_c, 9, 54, 122
15, 49381, Note_on_c, 9, 70, 122
15, 49382, Note_on_c, 9, 62, 124
15, 49387, Note_on_c, 9, 62, 0
15, 49397, Note_on_c, 9, 70, 0
15, 49398, Note_on_c, 9, 44, 0
15, 49402, Note_on_c, 9, 54, 0
15, 49410, Note_on_c, 9, 62, 119
15, 49430, Note_on_c, 9, 62, 0
15, 49441, Note_on_c, 9, 42, 121
15, 49441, Note_on_c, 9, 36, 127
15, 49442, Note_on_c, 9, 70, 111
15, 49456, Note_on_c, 9, 36, 0
15, 49458, Note_on_c, 9, 70, 0
15, 49463, Note_on_c, 9, 42, 0
15, 49500, Note_on_c, 9, 44, 105
15, 49501, Note_on_c, 9, 70, 122
15, 49501, Note_on_c, 9, 54, 120
15, 49502, Note_on_c, 9, 63, 122
15, 49510, Note_on_c, 9, 63, 0
15, 49516, Note_on_c, 9, 70, 0
15, 49521, Note_on_c, 9, 54, 0
15, 49521, Note_on_c, 9, 44, 0
15, 49560, Note_on_c, 9, 36, 127
15, 49560, Note_on_c, 9, 38, 127
15, 49561, Note_on_c, 9, 64, 117
15, 49561, Note_on_c, 9, 42, 120
15, 49561, Note_on_c, 9, 70, 109
15, 49573, Note_on_c, 9, 64, 0
15, 49575, Note_on_c, 9, 36, 0
15, 49576, Note_on_c, 9, 70, 0
15, 49583, Note_on_c, 9, 42, 0
15, 49586, Note_on_c, 9, 38, 0
15, 49620, Note_on_c, 9, 44, 113
15, 49621, Note_on_c, 9, 70, 120
15, 49621, Note_on_c, 9, 54, 123
15, 49621, Note_on_c, 9, 63, 120
15, 49626, Note_on_c, 9, 63, 0
15, 49637, Note_on_c, 9, 54, 0
15, 49637, Note_on_c, 9, 70, 0
15, 49638, Note_on_c, 9, 44, 0
15, 49650, Note_on_c, 9, 63, 124
15, 49661, Note_on_c, 9, 63, 0
15, 49680, Note_on_c, 9, 36, 127
15, 49681, Note_on_c, 9, 70, 112
15, 49681, Note_on_c, 9, 42, 120
15, 49696, Note_on_c, 9, 70, 0
15, 49698, Note_on_c, 9, 36, 0
15, 49702, Note_on_c, 9, 42, 0
15, 49710, Note_on_c, 9, 63, 126
15, 49721, Note_on_c, 9, 63, 0
15, 49740, Note_on_c, 9, 44, 111
15, 49740, Note_on_c, 9, 46, 127
15, 49741, Note_on_c, 9, 54, 120
15, 49741, Note_on_c, 9, 70, 124
15, 49742, Note_on_c, 9, 64, 117
15, 49754, Note_on_c, 9, 46, 0
15, 49758, Note_on_c, 9, 70, 0
15, 49758, Note_on_c, 9, 44, 0
15, 49758, Note_on_c, 9, 54, 0
15, 49763, Note_on_c, 9, 64, 0
15, 49770, Note_on_c, 9, 65, 127
15, 49785, Note_on_c, 9, 66, 127
15, 49793, Note_on_c, 9, 65, 0
15, 49800, Note_on_c, 9, 65, 127
15, 49800, Note_on_c, 9, 36, 127
15, 49800, Note_on_c, 9, 44, 100
15, 49801, Note_on_c, 9, 64, 114
15, 49801, Note_on_c, 9, 70, 107
15, 49801, Note_on_c, 9, 38, 127
15, 49801, Note_on_c, 9, 42, 124
15, 49808, Note_on_c, 9, 66, 0
15, 49814, Note_on_c, 9, 44, 0
15, 49816, Note_on_c, 9, 36, 0
15, 49817, Note_on_c, 9, 70, 0
15, 49821, Note_on_c, 9, 64, 0
15, 49822, Note_on_c, 9, 42, 0
15, 49823, Note_on_c, 9, 65, 0
15, 49824, Note_on_c, 9, 38, 0
15, 49860, Note_on_c, 9, 44, 116
15, 49861, Note_on_c, 9, 70, 118
15, 49861, Note_on_c, 9, 62, 124
15, 49861, Note_on_c, 9, 54, 122
15, 49874, Note_on_c, 9, 70, 0
15, 49877, Note_on_c, 9, 62, 0
15, 49878, Note_on_c, 9, 44, 0
15, 49882, Note_on_c, 9, 54, 0
15, 49890, Note_on_c, 9, 62, 116
15, 49913, Note_on_c, 9, 62, 0
15, 49920, Note_on_c, 9, 55, 127
15, 49921, Note_on_c, 9, 36, 127
15, 49921, Note_on_c, 9, 42, 124
15, 49922, Note_on_c, 9, 70, 105
15, 49922, Note_on_c, 9, 63, 126
15, 49934, Note_on_c, 9, 36, 0
15, 49935, Note_on_c, 9, 70, 0
15, 49939, Note_on_c, 9, 63, 0
15, 49942, Note_on_c, 9, 42, 0
15, 49943, Note_on_c, 9, 55, 0
15, 49980, Note_on_c, 9, 44, 122
15, 49981, Note_on_c, 9, 54, 123
15, 49982, Note_on_c, 9, 63, 123
15, 49982, Note_on_c, 9, 70, 122
15, 49995, Note_on_c, 9, 63, 0
15, 49998, Note_on_c, 9, 44, 0
15, 50000, Note_on_c, 9, 70, 0
15, 50002, Note_on_c, 9, 54, 0
15, 50040, Note_on_c, 9, 36, 127
15, 50041, Note_on_c, 9, 64, 115
15, 50041, Note_on_c, 9, 42, 123
15, 50041, Note_on_c, 9, 70, 106
15, 50041, Note_on_c, 9, 38, 127
15, 50056, Note_on_c, 9, 70, 0
15, 50058, Note_on_c, 9, 36, 0
15, 50062, Note_on_c, 9, 42, 0
15, 50063, Note_on_c, 9, 64, 0
15, 50068, Note_on_c, 9, 38, 0
15, 50100, Note_on_c, 9, 44, 108
15, 50101, Note_on_c, 9, 54, 120
15, 50101, Note_on_c, 9, 70, 120
15, 50102, Note_on_c, 9, 63, 120
15, 50110, Note_on_c, 9, 63, 0
15, 50114, Note_on_c, 9, 70, 0
15, 50118, Note_on_c, 9, 44, 0
15, 50121, Note_on_c, 9, 54, 0
15, 50130, Note_on_c, 9, 63, 127
15, 50141, Note_on_c, 9, 63, 0
15, 50160, Note_on_c, 9, 36, 127
15, 50161, Note_on_c, 9, 70, 108
15, 50161, Note_on_c, 9, 42, 127
15, 50176, Note_on_c, 9, 70, 0
15, 50178, Note_on_c, 9, 36, 0
15, 50179, Note_on_c, 9, 42, 0
15, 50190, Note_on_c, 9, 63, 122
15, 50201, Note_on_c, 9, 63, 0
15, 50220, Note_on_c, 9, 44, 113
15, 50220, Note_on_c, 9, 46, 127
15, 50221, Note_on_c, 9, 70, 122
15, 50221, Note_on_c, 9, 54, 121
15, 50222, Note_on_c, 9, 64, 120
15, 50234, Note_on_c, 9, 46, 0
15, 50237, Note_on_c, 9, 64, 0
15, 50237, Note_on_c, 9, 70, 0
15, 50238, Note_on_c, 9, 44, 0
15, 50241, Note_on_c, 9, 54, 0
15, 50280, Note_on_c, 9, 42, 127
15, 50280, Note_on_c, 9, 36, 127
15, 50280, Note_on_c, 9, 38, 127
15, 50280, Note_on_c, 9, 44, 100
15, 50281, Note_on_c, 9, 64, 118
15, 50281, Note_on_c, 9, 70, 110
15, 50294, Note_on_c, 9, 44, 0
15, 50297, Note_on_c, 9, 70, 0
15, 50298, Note_on_c, 9, 64, 0
15, 50300, Note_on_c, 9, 36, 0
15, 50303, Note_on_c, 9, 42, 0
15, 50313, Note_on_c, 9, 38, 0
15, 50340, Note_on_c, 9, 44, 116
15, 50341, Note_on_c, 9, 54, 123
15, 50341, Note_on_c, 9, 70, 118
15, 50342, Note_on_c, 9, 62, 124
15, 50354, Note_on_c, 9, 70, 0
15, 50359, Note_on_c, 9, 62, 0
15, 50360, Note_on_c, 9, 44, 0
15, 50361, Note_on_c, 9, 54, 0
15, 50370, Note_on_c, 9, 62, 124
15, 50393, Note_on_c, 9, 62, 0
15, 50400, Note_on_c, 9, 36, 127
15, 50401, Note_on_c, 9, 42, 124
15, 50402, Note_on_c, 9, 70, 109
15, 50402, Note_on_c, 9, 63, 124
15, 50415, Note_on_c, 9, 70, 0
15, 50415, Note_on_c, 9, 36, 0
15, 50419, Note_on_c, 9, 63, 0
15, 50421, Note_on_c, 9, 42, 0
15, 50460, Note_on_c, 9, 44, 116
15, 50461, Note_on_c, 9, 70, 120
15, 50462, Note_on_c, 9, 54, 124
15, 50462, Note_on_c, 9, 63, 127
15, 50477, Note_on_c, 9, 63, 0
15, 50477, Note_on_c, 9, 54, 0
15, 50477, Note_on_c, 9, 70, 0
15, 50482, Note_on_c, 9, 44, 0
15, 50520, Note_on_c, 9, 36, 127
15, 50520, Note_on_c, 9, 38, 127
15, 50521, Note_on_c, 9, 42, 122
15, 50521, Note_on_c, 9, 64, 122
15, 50521, Note_on_c, 9, 70, 109
15, 50537, Note_on_c, 9, 70, 0
15, 50540, Note_on_c, 9, 36, 0
15, 50542, Note_on_c, 9, 42, 0
15, 50544, Note_on_c, 9, 64, 0
15, 50550, Note_on_c, 9, 38, 0
15, 50580, Note_on_c, 9, 44, 114
15, 50581, Note_on_c, 9, 70, 118
15, 50581, Note_on_c, 9, 54, 126
15, 50582, Note_on_c, 9, 63, 117
15, 50592, Note_on_c, 9, 63, 0
15, 50597, Note_on_c, 9, 54, 0
15, 50597, Note_on_c, 9, 70, 0
15, 50598, Note_on_c, 9, 44, 0
15, 50610, Note_on_c, 9, 63, 123
15, 50622, Note_on_c, 9, 63, 0
15, 50640, Note_on_c, 9, 36, 127
15, 50640, Note_on_c, 9, 42, 126
15, 50641, Note_on_c, 9, 70, 110
15, 50656, Note_on_c, 9, 70, 0
15, 50661, Note_on_c, 9, 42, 0
15, 50662, Note_on_c, 9, 36, 0
15, 50670, Note_on_c, 9, 63, 124
15, 50682, Note_on_c, 9, 63, 0
15, 50700, Note_on_c, 9, 44, 111
15, 50700, Note_on_c, 9, 46, 127
15, 50701, Note_on_c, 9, 54, 126
15, 50701, Note_on_c, 9, 70, 120
15, 50702, Note_on_c, 9, 64, 115
15, 50714, Note_on_c, 9, 46, 0
15, 50717, Note_on_c, 9, 70, 0
15, 50717, Note_on_c, 9, 64, 0
15, 50718, Note_on_c, 9, 44, 0
15, 50721, Note_on_c, 9, 54, 0
15, 50760, Note_on_c, 9, 36, 127
15, 50760, Note_on_c, 9, 38, 127
15, 50760, Note_on_c, 9, 44, 100
15, 50761, Note_on_c, 9, 42, 123
15, 50761, Note_on_c, 9, 70, 110
15, 50761, Note_on_c, 9, 64, 114
15, 50774, Note_on_c, 9, 44, 0
15, 50777, Note_on_c, 9, 70, 0
15, 50778, Note_on_c, 9, 36, 0
15, 50778, Note_on_c, 9, 38, 0
15, 50779, Note_on_c, 9, 64, 0
15, 50787, Note_on_c, 9, 42, 0
15, 50820, Note_on_c, 9, 44, 116
15, 50821, Note_on_c, 9, 54, 124
15, 50821, Note_on_c, 9, 70, 122
15, 50822, Note_on_c, 9, 62, 125
15, 50832, Note_on_c, 9, 62, 0
15, 50837, Note_on_c, 9, 70, 0
15, 50838, Note_on_c, 9, 54, 0
15, 50842, Note_on_c, 9, 44, 0
15, 50850, Note_on_c, 9, 62, 127
15, 50870, Note_on_c, 9, 62, 0
15, 50880, Note_on_c, 9, 36, 127
15, 50881, Note_on_c, 9, 42, 126
15, 50882, Note_on_c, 9, 63, 127
15, 50882, Note_on_c, 9, 70, 110
15, 50898, Note_on_c, 9, 70, 0
15, 50899, Note_on_c, 9, 63, 0
15, 50900, Note_on_c, 9, 36, 0
15, 50901, Note_on_c, 9, 42, 0
15, 50940, Note_on_c, 9, 44, 99
15, 50941, Note_on_c, 9, 70, 122
15, 50941, Note_on_c, 9, 54, 126
15, 50942, Note_on_c, 9, 63, 126
15, 50955, Note_on_c, 9, 63, 0
15, 50961, Note_on_c, 9, 54, 0
15, 50962, Note_on_c, 9, 70, 0
15, 50962, Note_on_c, 9, 44, 0
15, 51000, Note_on_c, 9, 38, 127
15, 51000, Note_on_c, 9, 36, 127
15, 51001, Note_on_c, 9, 70, 110
15, 51001, Note_on_c, 9, 42, 124
15, 51001, Note_on_c, 9, 64, 110
15, 51013, Note_on_c, 9, 64, 0
15, 51017, Note_on_c, 9, 70, 0
15, 51024, Note_on_c, 9, 42, 0
15, 51026, Note_on_c, 9, 36, 0
15, 51036, Note_on_c, 9, 38, 0
15, 51060, Note_on_c, 9, 44, 113
15, 51061, Note_on_c, 9, 63, 123
15, 51061, Note_on_c, 9, 54, 126
15, 51061, Note_on_c, 9, 70, 123
15, 51073, Note_on_c, 9, 63, 0
15, 51078, Note_on_c, 9, 44, 0
15, 51078, Note_on_c, 9, 54, 0
15, 51078, Note_on_c, 9, 70, 0
15, 51090, Note_on_c, 9, 63, 126
15, 51102, Note_on_c, 9, 63, 0
15, 51120, Note_on_c, 9, 36, 127
15, 51120, Note_on_c, 9, 42, 115
15, 51121, Note_on_c, 9, 70, 107
15, 51136, Note_on_c, 9, 70, 0
15, 51141, Note_on_c, 9, 42, 0
15, 51146, Note_on_c, 9, 36, 0
15, 51150, Note_on_c, 9, 64, 115
15, 51168, Note_on_c, 9, 64, 0
15, 51180, Note_on_c, 9, 44, 118
15, 51180, Note_on_c, 9, 46, 127
15, 51181, Note_on_c, 9, 70, 122
15, 51181, Note_on_c, 9, 54, 126
15, 51181, Note_on_c, 9, 64, 113
15, 51194, Note_on_c, 9, 46, 0
15, 51197, Note_on_c, 9, 64, 0
15, 51197, Note_on_c, 9, 70, 0
15, 51201, Note_on_c, 9, 54, 0
15, 51202, Note_on_c, 9, 44, 0
15, 51240, Note_on_c, 9, 38, 127
15, 51240, Note_on_c, 9, 36, 127
15, 51240, Note_on_c, 9, 44, 100
15, 51241, Note_on_c, 9, 42, 115
15, 51241, Note_on_c, 9, 64, 122
15, 51241, Note_on_c, 9, 70, 109
15, 51254, Note_on_c, 9, 64, 0
15, 51254, Note_on_c, 9, 44, 0
15, 51257, Note_on_c, 9, 70, 0
15, 51262, Note_on_c, 9, 42, 0
15, 51265, Note_on_c, 9, 38, 0
15, 51268, Note_on_c, 9, 36, 0
15, 51300, Note_on_c, 9, 44, 106
15, 51301, Note_on_c, 9, 54, 127
15, 51301, Note_on_c, 9, 70, 126
15, 51302, Note_on_c, 9, 62, 122
15, 51317, Note_on_c, 9, 70, 0
15, 51317, Note_on_c, 9, 54, 0
15, 51318, Note_on_c, 9, 44, 0
15, 51318, Note_on_c, 9, 62, 0
15, 51330, Note_on_c, 9, 63, 127
15, 51346, Note_on_c, 9, 63, 0
15, 51360, Note_on_c, 9, 36, 127
15, 51361, Note_on_c, 9, 70, 113
15, 51361, Note_on_c, 9, 42, 118
15, 51362, Note_on_c, 9, 63, 122
15, 51375, Note_on_c, 9, 63, 0
15, 51376, Note_on_c, 9, 36, 0
15, 51376, Note_on_c, 9, 70, 0
15, 51381, Note_on_c, 9, 42, 0
15, 51420, Note_on_c, 9, 44, 97
15, 51421, Note_on_c, 9, 54, 127
15, 51421, Note_on_c, 9, 70, 127
15, 51422, Note_on_c, 9, 63, 122
15, 51427, Note_on_c, 9, 63, 0
15, 51438, Note_on_c, 9, 54, 0
15, 51441, Note_on_c, 9, 70, 0
15, 51443, Note_on_c, 9, 44, 0
15, 51450, Note_on_c, 9, 65, 127
15, 51465, Note_on_c, 9, 66, 127
15, 51470, Note_on_c, 9, 65, 0
15, 51480, Note_on_c, 9, 38, 127
15, 51480, Note_on_c, 9, 36, 127
15, 51481, Note_on_c, 9, 64, 122
15, 51481, Note_on_c, 9, 70, 122
15, 51481, Note_on_c, 9, 65, 127
15, 51481, Note_on_c, 9, 42, 118
15, 51488, Note_on_c, 9, 66, 0
15, 51491, Note_on_c, 9, 70, 0
15, 51495, Note_on_c, 9, 36, 0
15, 51498, Note_on_c, 9, 42, 0
15, 51506, Note_on_c, 9, 38, 0
15, 51506, Note_on_c, 9, 64, 0
15, 51521, Note_on_c, 9, 65, 0
15, 51540, Note_on_c, 9, 65, 127
15, 51540, Note_on_c, 9, 44, 110
15, 51541, Note_on_c, 9, 54, 117
15, 51541, Note_on_c, 9, 70, 127
15, 51542, Note_on_c, 9, 63, 120
15, 51556, Note_on_c, 9, 54, 0
15, 51557, Note_on_c, 9, 63, 0
15, 51562, Note_on_c, 9, 70, 0
15, 51562, Note_on_c, 9, 44, 0
15, 51563, Note_on_c, 9, 65, 0
15, 51570, Note_on_c, 9, 63, 127
15, 51586, Note_on_c, 9, 63, 0
15, 51600, Note_on_c, 9, 36, 127
15, 51601, Note_on_c, 9, 42, 120
15, 51601, Note_on_c, 9, 70, 123
15, 51614, Note_on_c, 9, 70, 0
15, 51618, Note_on_c, 9, 36, 0
15, 51621, Note_on_c, 9, 42, 0
15, 51630, Note_on_c, 9, 63, 127
15, 51641, Note_on_c, 9, 63, 0
15, 51660, Note_on_c, 9, 66, 127
15, 51660, Note_on_c, 9, 44, 105
15, 51660, Note_on_c, 9, 46, 127
15, 51661, Note_on_c, 9, 64, 115
15, 51661, Note_on_c, 9, 65, 101
15, 51661, Note_on_c, 9, 54, 122
15, 51661, Note_on_c, 9, 70, 127
15, 51673, Note_on_c, 9, 65, 0
15, 51674, Note_on_c, 9, 46, 0
15, 51677, Note_on_c, 9, 64, 0
15, 51679, Note_on_c, 9, 54, 0
15, 51682, Note_on_c, 9, 44, 0
15, 51682, Note_on_c, 9, 70, 0
15, 51683, Note_on_c, 9, 66, 0
15, 51720, Note_on_c, 9, 36, 127
15, 51720, Note_on_c, 9, 38, 127
15, 51720, Note_on_c, 9, 44, 100
15, 51721, Note_on_c, 9, 64, 114
15, 51721, Note_on_c, 9, 70, 109
15, 51721, Note_on_c, 9, 65, 127
15, 51721, Note_on_c, 9, 42, 120
15, 51734, Note_on_c, 9, 44, 0
15, 51736, Note_on_c, 9, 36, 0
15, 51737, Note_on_c, 9, 70, 0
15, 51739, Note_on_c, 9, 64, 0
15, 51742, Note_on_c, 9, 42, 0
15, 51745, Note_on_c, 9, 38, 0
15, 51771, Note_on_c, 9, 65, 0
15, 51780, Note_on_c, 9, 44, 98
15, 51781, Note_on_c, 9, 70, 120
15, 51781, Note_on_c, 9, 54, 124
15, 51782, Note_on_c, 9, 62, 120
15, 51794, Note_on_c, 9, 70, 0
15, 51797, Note_on_c, 9, 62, 0
15, 51806, Note_on_c, 9, 54, 0
15, 51806, Note_on_c, 9, 44, 0
15, 51810, Note_on_c, 9, 62, 120
15, 51826, Note_on_c, 9, 62, 0
15, 51840, Note_on_c, 9, 36, 127
15, 51841, Note_on_c, 9, 42, 121
15, 51842, Note_on_c, 9, 49, 115
15, 51842, Note_on_c, 9, 63, 127
15, 51842, Note_on_c, 9, 70, 104
15, 51853, Note_on_c, 9, 49, 0
15, 51855, Note_on_c, 9, 36, 0
15, 51858, Note_on_c, 9, 63, 0
15, 51860, Note_on_c, 9, 70, 0
15, 51864, Note_on_c, 9, 42, 0
15, 51900, Note_on_c, 9, 44, 103
15, 51901, Note_on_c, 9, 63, 114
15, 51901, Note_on_c, 9, 70, 115
15, 51901, Note_on_c, 9, 54, 127
15, 51911, Note_on_c, 9, 63, 0
15, 51914, Note_on_c, 9, 70, 0
15, 51922, Note_on_c, 9, 44, 0
15, 51926, Note_on_c, 9, 54, 0
15, 51960, Note_on_c, 9, 38, 127
15, 51960, Note_on_c, 9, 36, 127
15, 51961, Note_on_c, 9, 70, 104
15, 51961, Note_on_c, 9, 64, 115
15, 51961, Note_on_c, 9, 42, 123
15, 51978, Note_on_c, 9, 36, 0
15, 51981, Note_on_c, 9, 70, 0
15, 51983, Note_on_c, 9, 64, 0
15, 51988, Note_on_c, 9, 38, 0
15, 51991, Note_on_c, 9, 42, 0
15, 52020, Note_on_c, 9, 44, 111
15, 52021, Note_on_c, 9, 54, 124
15, 52021, Note_on_c, 9, 70, 118
15, 52022, Note_on_c, 9, 63, 113
15, 52032, Note_on_c, 9, 63, 0
15, 52039, Note_on_c, 9, 70, 0
15, 52042, Note_on_c, 9, 44, 0
15, 52043, Note_on_c, 9, 54, 0
15, 52050, Note_on_c, 9, 63, 127
15, 52061, Note_on_c, 9, 63, 0
15, 52080, Note_on_c, 9, 42, 118
15, 52080, Note_on_c, 9, 36, 127
15, 52081, Note_on_c, 9, 70, 105
15, 52098, Note_on_c, 9, 36, 0
15, 52099, Note_on_c, 9, 70, 0
15, 52101, Note_on_c, 9, 42, 0
15, 52110, Note_on_c, 9, 63, 127
15, 52121, Note_on_c, 9, 63, 0
15, 52140, Note_on_c, 9, 44, 108
15, 52140, Note_on_c, 9, 46, 127
15, 52141, Note_on_c, 9, 64, 110
15, 52141, Note_on_c, 9, 54, 123
15, 52141, Note_on_c, 9, 70, 122
15, 52154, Note_on_c, 9, 46, 0
15, 52155, Note_on_c, 9, 44, 0
15, 52157, Note_on_c, 9, 64, 0
15, 52158, Note_on_c, 9, 54, 0
15, 52162, Note_on_c, 9, 70, 0
15, 52200, Note_on_c, 9, 36, 127
15, 52200, Note_on_c, 9, 38, 127
15, 52200, Note_on_c, 9, 44, 100
15, 52201, Note_on_c, 9, 42, 126
15, 52201, Note_on_c, 9, 70, 108
15, 52201, Note_on_c, 9, 64, 109
15, 52214, Note_on_c, 9, 44, 0
15, 52217, Note_on_c, 9, 70, 0
15, 52219, Note_on_c, 9, 64, 0
15, 52220, Note_on_c, 9, 36, 0
15, 52222, Note_on_c, 9, 42, 0
15, 52233, Note_on_c, 9, 38, 0
15, 52260, Note_on_c, 9, 44, 107
15, 52261, Note_on_c, 9, 70, 120
15, 52261, Note_on_c, 9, 54, 122
15, 52262, Note_on_c, 9, 62, 119
15, 52275, Note_on_c, 9, 62, 0
15, 52277, Note_on_c, 9, 70, 0
15, 52278, Note_on_c, 9, 44, 0
15, 52282, Note_on_c, 9, 54, 0
15, 52290, Note_on_c, 9, 62, 115
15, 52312, Note_on_c, 9, 62, 0
15, 52320, Note_on_c, 9, 42, 122
15, 52320, Note_on_c, 9, 36, 127
15, 52322, Note_on_c, 9, 63, 127
15, 52322, Note_on_c, 9, 70, 116
15, 52332, Note_on_c, 9, 63, 0
15, 52334, Note_on_c, 9, 70, 0
15, 52335, Note_on_c, 9, 36, 0
15, 52345, Note_on_c, 9, 42, 0
15, 52380, Note_on_c, 9, 44, 116
15, 52381, Note_on_c, 9, 70, 118
15, 52381, Note_on_c, 9, 63, 118
15, 52381, Note_on_c, 9, 54, 126
15, 52391, Note_on_c, 9, 63, 0
15, 52396, Note_on_c, 9, 70, 0
15, 52401, Note_on_c, 9, 54, 0
15, 52402, Note_on_c, 9, 44, 0
15, 52440, Note_on_c, 9, 38, 127
15, 52440, Note_on_c, 9, 36, 127
15, 52441, Note_on_c, 9, 42, 122
15, 52441, Note_on_c, 9, 64, 118
15, 52441, Note_on_c, 9, 70, 114
15, 52453, Note_on_c, 9, 64, 0
15, 52457, Note_on_c, 9, 70, 0
15, 52460, Note_on_c, 9, 36, 0
15, 52462, Note_on_c, 9, 42, 0
15, 52470, Note_on_c, 9, 38, 0
15, 52500, Note_on_c, 9, 44, 116
15, 52501, Note_on_c, 9, 54, 118
15, 52501, Note_on_c, 9, 70, 117
15, 52501, Note_on_c, 9, 63, 109
15, 52511, Note_on_c, 9, 63, 0
15, 52517, Note_on_c, 9, 70, 0
15, 52518, Note_on_c, 9, 44, 0
15, 52522, Note_on_c, 9, 54, 0
15, 52530, Note_on_c, 9, 63, 127
15, 52542, Note_on_c, 9, 63, 0
15, 52560, Note_on_c, 9, 36, 127
15, 52561, Note_on_c, 9, 70, 114
15, 52561, Note_on_c, 9, 42, 123
15, 52576, Note_on_c, 9, 70, 0
15, 52582, Note_on_c, 9, 36, 0
15, 52583, Note_on_c, 9, 42, 0
15, 52590, Note_on_c, 9, 63, 124
15, 52601, Note_on_c, 9, 63, 0
15, 52620, Note_on_c, 9, 44, 111
15, 52620, Note_on_c, 9, 46, 127
15, 52621, Note_on_c, 9, 70, 118
15, 52621, Note_on_c, 9, 54, 124
15, 52622, Note_on_c, 9, 64, 114
15, 52633, Note_on_c, 9, 64, 0
15, 52634, Note_on_c, 9, 46, 0
15, 52634, Note_on_c, 9, 54, 0
15, 52636, Note_on_c, 9, 70, 0
15, 52638, Note_on_c, 9, 44, 0
15, 52680, Note_on_c, 9, 38, 127
15, 52680, Note_on_c, 9, 36, 127
15, 52680, Note_on_c, 9, 44, 100
15, 52681, Note_on_c, 9, 42, 123
15, 52681, Note_on_c, 9, 64, 118
15, 52681, Note_on_c, 9, 70, 111
15, 52694, Note_on_c, 9, 44, 0
15, 52696, Note_on_c, 9, 64, 0
15, 52697, Note_on_c, 9, 70, 0
15, 52698, Note_on_c, 9, 36, 0
15, 52698, Note_on_c, 9, 38, 0
15, 52702, Note_on_c, 9, 42, 0
15, 52740, Note_on_c, 9, 44, 112
15, 52741, Note_on_c, 9, 54, 118
15, 52741, Note_on_c, 9, 70, 117
15, 52742, Note_on_c, 9, 62, 122
15, 52756, Note_on_c, 9, 70, 0
15, 52757, Note_on_c, 9, 62, 0
15, 52758, Note_on_c, 9, 44, 0
15, 52761, Note_on_c, 9, 54, 0
15, 52770, Note_on_c, 9, 62, 125
15, 52790, Note_on_c, 9, 62, 0
15, 52801, Note_on_c, 9, 36, 127
15, 52801, Note_on_c, 9, 42, 121
15, 52802, Note_on_c, 9, 70, 109
15, 52802, Note_on_c, 9, 63, 127
15, 52810, Note_on_c, 9, 63, 0
15, 52814, Note_on_c, 9, 70, 0
15, 52819, Note_on_c, 9, 36, 0
15, 52823, Note_on_c, 9, 42, 0
15, 52860, Note_on_c, 9, 44, 106
15, 52861, Note_on_c, 9, 70, 120
15, 52861, Note_on_c, 9, 54, 123
15, 52862, Note_on_c, 9, 63, 124
15, 52865, Note_on_c, 9, 63, 0
15, 52874, Note_on_c, 9, 54, 0
15, 52878, Note_on_c, 9, 44, 0
15, 52882, Note_on_c, 9, 70, 0
15, 52920, Note_on_c, 9, 36, 127
15, 52920, Note_on_c, 9, 38, 127
15, 52921, Note_on_c, 9, 42, 120
15, 52921, Note_on_c, 9, 70, 106
15, 52921, Note_on_c, 9, 64, 122
15, 52933, Note_on_c, 9, 64, 0
15, 52936, Note_on_c, 9, 70, 0
15, 52939, Note_on_c, 9, 42, 0
15, 52946, Note_on_c, 9, 36, 0
15, 52956, Note_on_c, 9, 38, 0
15, 52980, Note_on_c, 9, 44, 113
15, 52981, Note_on_c, 9, 70, 117
15, 52981, Note_on_c, 9, 54, 121
15, 52982, Note_on_c, 9, 63, 118
15, 52987, Note_on_c, 9, 63, 0
15, 52994, Note_on_c, 9, 70, 0
15, 53001, Note_on_c, 9, 54, 0
15, 53002, Note_on_c, 9, 44, 0
15, 53010, Note_on_c, 9, 63, 127
15, 53026, Note_on_c, 9, 63, 0
15, 53040, Note_on_c, 9, 36, 127
15, 53041, Note_on_c, 9, 70, 110
15, 53041, Note_on_c, 9, 42, 115
15, 53059, Note_on_c, 9, 70, 0
15, 53063, Note_on_c, 9, 42, 0
15, 53066, Note_on_c, 9, 36, 0
15, 53070, Note_on_c, 9, 63, 123
15, 53082, Note_on_c, 9, 63, 0
15, 53100, Note_on_c, 9, 44, 118
15, 53100, Note_on_c, 9, 46, 127
15, 53101, Note_on_c, 9, 54, 123
15, 53101, Note_on_c, 9, 70, 118
15, 53102, Note_on_c, 9, 64, 117
15, 53114, Note_on_c, 9, 46, 0
15, 53116, Note_on_c, 9, 70, 0
15, 53117, Note_on_c, 9, 64, 0
15, 53117, Note_on_c, 9, 54, 0
15, 53126, Note_on_c, 9, 44, 0
15, 53160, Note_on_c, 9, 36, 127
15, 53160, Note_on_c, 9, 38, 127
15, 53160, Note_on_c, 9, 44, 100
15, 53161, Note_on_c, 9, 42, 120
15, 53161, Note_on_c, 9, 70, 110
15, 53174, Note_on_c, 9, 44, 0
15, 53177, Note_on_c, 9, 70, 0
15, 53178, Note_on_c, 9, 42, 0
15, 53185, Note_on_c, 9, 38, 0
15, 53188, Note_on_c, 9, 36, 0
15, 53220, Note_on_c, 9, 44, 112
15, 53221, Note_on_c, 9, 54, 122
15, 53221, Note_on_c, 9, 70, 122
15, 53222, Note_on_c, 9, 62, 124
15, 53227, Note_on_c, 9, 62, 0
15, 53237, Note_on_c, 9, 70, 0
15, 53238, Note_on_c, 9, 44, 0
15, 53242, Note_on_c, 9, 54, 0
15, 53250, Note_on_c, 9, 62, 119
15, 53270, Note_on_c, 9, 62, 0
15, 53281, Note_on_c, 9, 42, 121
15, 53281, Note_on_c, 9, 36, 127
15, 53282, Note_on_c, 9, 70, 111
15, 53296, Note_on_c, 9, 36, 0
15, 53298, Note_on_c, 9, 70, 0
15, 53303, Note_on_c, 9, 42, 0
15, 53340, Note_on_c, 9, 44, 105
15, 53341, Note_on_c, 9, 70, 122
15, 53341, Note_on_c, 9, 54, 120
15, 53342, Note_on_c, 9, 63, 122
15, 53350, Note_on_c, 9, 63, 0
15, 53356, Note_on_c, 9, 70, 0
15, 53361, Note_on_c, 9, 54, 0
15, 53361, Note_on_c, 9, 44, 0
15, 53400, Note_on_c, 9, 36, 127
15, 53400, Note_on_c, 9, 38, 127
15, 53401, Note_on_c, 9, 64, 117
15, 53401, Note_on_c, 9, 42, 120
15, 53401, Note_on_c, 9, 70, 109
15, 53413, Note_on_c, 9, 64, 0
15, 53415, Note_on_c, 9, 36, 0
15, 53416, Note_on_c, 9, 70, 0
15, 53423, Note_on_c, 9, 42, 0
15, 53426, Note_on_c, 9, 38, 0
15, 53460, Note_on_c, 9, 44, 113
15, 53461, Note_on_c, 9, 70, 120
15, 53461, Note_on_c, 9, 54, 123
15, 53461, Note_on_c, 9, 63, 120
15, 53466, Note_on_c, 9, 63, 0
15, 53477, Note_on_c, 9, 54, 0
15, 53477, Note_on_c, 9, 70, 0
15, 53478, Note_on_c, 9, 44, 0
15, 53490, Note_on_c, 9, 63, 124
15, 53501, Note_on_c, 9, 63, 0
15, 53520, Note_on_c, 9, 36, 127
15, 53521, Note_on_c, 9, 70, 112
15, 53521, Note_on_c, 9, 42, 120
15, 53536, Note_on_c, 9, 70, 0
15, 53538, Note_on_c, 9, 36, 0
15, 53542, Note_on_c, 9, 42, 0
15, 53550, Note_on_c, 9, 63, 126
15, 53561, Note_on_c, 9, 63, 0
15, 53580, Note_on_c, 9, 44, 111
15, 53580, Note_on_c, 9, 46, 127
15, 53581, Note_on_c, 9, 54, 120
15, 53581, Note_on_c, 9, 70, 124
15, 53582, Note_on_c, 9, 64, 117
15, 53594, Note_on_c, 9, 46, 0
15, 53598, Note_on_c, 9, 70, 0
15, 53598, Note_on_c, 9, 44, 0
15, 53598, Note_on_c, 9, 54, 0
15, 53603, Note_on_c, 9, 64, 0
15, 53640, Note_on_c, 9, 36, 127
15, 53640, Note_on_c, 9, 44, 100
15, 53641, Note_on_c, 9, 64, 114
15, 53641, Note_on_c, 9, 70, 107
15, 53641, Note_on_c, 9, 38, 127
15, 53641, Note_on_c, 9, 42, 124
15, 53654, Note_on_c, 9, 44, 0
15, 53656, Note_on_c, 9, 36, 0
15, 53657, Note_on_c, 9, 70, 0
15, 53661, Note_on_c, 9, 64, 0
15, 53662, Note_on_c, 9, 42, 0
15, 53664, Note_on_c, 9, 38, 0
15, 53700, Note_on_c, 9, 44, 116
15, 53701, Note_on_c, 9, 70, 118
15, 53701, Note_on_c, 9, 62, 124
15, 53701, Note_on_c, 9, 54, 122
15, 53714, Note_on_c, 9, 70, 0
15, 53717, Note_on_c, 9, 62, 0
15, 53718, Note_on_c, 9, 44, 0
15, 53722, Note_on_c, 9, 54, 0
15, 53730, Note_on_c, 9, 62, 116
15, 53753, Note_on_c, 9, 62, 0
15, 53761, Note_on_c, 9, 36, 127
15, 53761, Note_on_c, 9, 42, 124
15, 53762, Note_on_c, 9, 70, 105
15, 53762, Note_on_c, 9, 63, 126
15, 53774, Note_on_c, 9, 36, 0
15, 53775, Note_on_c, 9, 70, 0
15, 53779, Note_on_c, 9, 63, 0
15, 53782, Note_on_c, 9, 42, 0
15, 53820, Note_on_c, 9, 44, 122
15, 53821, Note_on_c, 9, 54, 123
15, 53822, Note_on_c, 9, 63, 123
15, 53822, Note_on_c, 9, 70, 122
15, 53835, Note_on_c, 9, 63, 0
15, 53838, Note_on_c, 9, 44, 0
15, 53840, Note_on_c, 9, 70, 0
15, 53842, Note_on_c, 9, 54, 0
15, 53880, Note_on_c, 9, 36, 127
15, 53881, Note_on_c, 9, 64, 115
15, 53881, Note_on_c, 9, 42, 123
15, 53881, Note_on_c, 9, 70, 106
15, 53881, Note_on_c, 9, 38, 127
15, 53896, Note_on_c, 9, 70, 0
15, 53898, Note_on_c, 9, 36, 0
15, 53902, Note_on_c, 9, 42, 0
15, 53903, Note_on_c, 9, 64, 0
15, 53908, Note_on_c, 9, 38, 0
15, 53940, Note_on_c, 9, 44, 108
15, 53941, Note_on_c, 9, 54, 120
15, 53941, Note_on_c, 9, 70, 120
15, 53942, Note_on_c, 9, 63, 120
15, 53950, Note_on_c, 9, 63, 0
15, 53954, Note_on_c, 9, 70, 0
15, 53958, Note_on_c, 9, 44, 0
15, 53961, Note_on_c, 9, 54, 0
15, 53970, Note_on_c, 9, 63, 127
15, 53981, Note_on_c, 9, 63, 0
15, 54000, Note_on_c, 9, 36, 127
15, 54001, Note_on_c, 9, 70, 108
15, 54001, Note_on_c, 9, 42, 127
15, 54016, Note_on_c, 9, 70, 0
15, 54018, Note_on_c, 9, 36, 0
15, 54019, Note_on_c, 9, 42, 0
15, 54030, Note_on_c, 9, 63, 122
15, 54041, Note_on_c, 9, 63, 0
15, 54060, Note_on_c, 9, 44, 113
15, 54060, Note_on_c, 9, 46, 127
15, 54061, Note_on_c, 9, 70, 122
15, 54061, Note_on_c, 9, 54, 121
15, 54062, Note_on_c, 9, 64, 120
15, 54074, Note_on_c, 9, 46, 0
15, 54077, Note_on_c, 9, 64, 0
15, 54077, Note_on_c, 9, 70, 0
15, 54078, Note_on_c, 9, 44, 0
15, 54081, Note_on_c, 9, 54, 0
15, 54120, Note_on_c, 9, 42, 127
15, 54120, Note_on_c, 9, 36, 127
15, 54120, Note_on_c, 9, 38, 127
15, 54120, Note_on_c, 9, 44, 100
15, 54121, Note_on_c, 9, 64, 118
15, 54121, Note_on_c, 9, 70, 110
15, 54134, Note_on_c, 9, 44, 0
15, 54137, Note_on_c, 9, 70, 0
15, 54138, Note_on_c, 9, 64, 0
15, 54140, Note_on_c, 9, 36, 0
15, 54143, Note_on_c, 9, 42, 0
15, 54153, Note_on_c, 9, 38, 0
15, 54180, Note_on_c, 9, 44, 116
15, 54181, Note_on_c, 9, 54, 123
15, 54181, Note_on_c, 9, 70, 118
15, 54182, Note_on_c, 9, 62, 124
15, 54194, Note_on_c, 9, 70, 0
15, 54199, Note_on_c, 9, 62, 0
15, 54200, Note_on_c, 9, 44, 0
15, 54201, Note_on_c, 9, 54, 0
15, 54210, Note_on_c, 9, 62, 124
15, 54233, Note_on_c, 9, 62, 0
15, 54240, Note_on_c, 9, 36, 127
15, 54241, Note_on_c, 9, 42, 124
15, 54242, Note_on_c, 9, 70, 109
15, 54242, Note_on_c, 9, 63, 124
15, 54255, Note_on_c, 9, 70, 0
15, 54255, Note_on_c, 9, 36, 0
15, 54259, Note_on_c, 9, 63, 0
15, 54261, Note_on_c, 9, 42, 0
15, 54300, Note_on_c, 9, 44, 116
15, 54301, Note_on_c, 9, 70, 120
15, 54302, Note_on_c, 9, 54, 124
15, 54302, Note_on_c, 9, 63, 127
15, 54317, Note_on_c, 9, 63, 0
15, 54317, Note_on_c, 9, 54, 0
15, 54317, Note_on_c, 9, 70, 0
15, 54322, Note_on_c, 9, 44, 0
15, 54360, Note_on_c, 9, 36, 127
15, 54360, Note_on_c, 9, 38, 127
15, 54361, Note_on_c, 9, 42, 122
15, 54361, Note_on_c, 9, 64, 122
15, 54361, Note_on_c, 9, 70, 109
15, 54377, Note_on_c, 9, 70, 0
15, 54380, Note_on_c, 9, 36, 0
15, 54382, Note_on_c, 9, 42, 0
15, 54384, Note_on_c, 9, 64, 0
15, 54390, Note_on_c, 9, 38, 0
15, 54420, Note_on_c, 9, 44, 114
15, 54421, Note_on_c, 9, 70, 118
15, 54421, Note_on_c, 9, 54, 126
15, 54422, Note_on_c, 9, 63, 117
15, 54432, Note_on_c, 9, 63, 0
15, 54437, Note_on_c, 9, 54, 0
15, 54437, Note_on_c, 9, 70, 0
15, 54438, Note_on_c, 9, 44, 0
15, 54450, Note_on_c, 9, 63, 123
15, 54462, Note_on_c, 9, 63, 0
15, 54480, Note_on_c, 9, 36, 127
15, 54480, Note_on_c, 9, 42, 126
15, 54481, Note_on_c, 9, 70, 110
15, 54496, Note_on_c, 9, 70, 0
15, 54501, Note_on_c, 9, 42, 0
15, 54502, Note_on_c, 9, 36, 0
15, 54510, Note_on_c, 9, 63, 124
15, 54522, Note_on_c, 9, 63, 0
15, 54540, Note_on_c, 9, 44, 111
15, 54540, Note_on_c, 9, 46, 127
15, 54541, Note_on_c, 9, 54, 126
15, 54541, Note_on_c, 9, 70, 120
15, 54542, Note_on_c, 9, 64, 115
15, 54554, Note_on_c, 9, 46, 0
15, 54557, Note_on_c, 9, 70, 0
15, 54557, Note_on_c, 9, 64, 0
15, 54558, Note_on_c, 9, 44, 0
15, 54561, Note_on_c, 9, 54, 0
15, 54600, Note_on_c, 9, 36, 127
15, 54600, Note_on_c, 9, 38, 127
15, 54600, Note_on_c, 9, 44, 100
15, 54601, Note_on_c, 9, 42, 123
15, 54601, Note_on_c, 9, 70, 110
15, 54601, Note_on_c, 9, 64, 114
15, 54614, Note_on_c, 9, 44, 0
15, 54617, Note_on_c, 9, 70, 0
15, 54618, Note_on_c, 9, 36, 0
15, 54618, Note_on_c, 9, 38, 0
15, 54619, Note_on_c, 9, 64, 0
15, 54627, Note_on_c, 9, 42, 0
15, 54660, Note_on_c, 9, 44, 116
15, 54661, Note_on_c, 9, 54, 124
15, 54661, Note_on_c, 9, 70, 122
15, 54662, Note_on_c, 9, 62, 125
15, 54672, Note_on_c, 9, 62, 0
15, 54677, Note_on_c, 9, 70, 0
15, 54678, Note_on_c, 9, 54, 0
15, 54682, Note_on_c, 9, 44, 0
15, 54690, Note_on_c, 9, 62, 127
15, 54710, Note_on_c, 9, 62, 0
15, 54720, Note_on_c, 9, 36, 127
15, 54721, Note_on_c, 9, 42, 126
15, 54722, Note_on_c, 9, 63, 127
15, 54722, Note_on_c, 9, 70, 110
15, 54738, Note_on_c, 9, 70, 0
15, 54739, Note_on_c, 9, 63, 0
15, 54740, Note_on_c, 9, 36, 0
15, 54741, Note_on_c, 9, 42, 0
15, 54780, Note_on_c, 9, 44, 99
15, 54781, Note_on_c, 9, 70, 122
15, 54781, Note_on_c, 9, 54, 126
15, 54782, Note_on_c, 9, 63, 126
15, 54795, Note_on_c, 9, 63, 0
15, 54801, Note_on_c, 9, 54, 0
15, 54802, Note_on_c, 9, 70, 0
15, 54802, Note_on_c, 9, 44, 0
15, 54840, Note_on_c, 9, 38, 127
15, 54840, Note_on_c, 9, 36, 127
15, 54841, Note_on_c, 9, 70, 110
15, 54841, Note_on_c, 9, 42, 124
15, 54841, Note_on_c, 9, 64, 110
15, 54853, Note_on_c, 9, 64, 0
15, 54857, Note_on_c, 9, 70, 0
15, 54864, Note_on_c, 9, 42, 0
15, 54866, Note_on_c, 9, 36, 0
15, 54876, Note_on_c, 9, 38, 0
15, 54900, Note_on_c, 9, 44, 113
15, 54901, Note_on_c, 9, 63, 123
15, 54901, Note_on_c, 9, 54, 126
15, 54901, Note_on_c, 9, 70, 123
15, 54913, Note_on_c, 9, 63, 0
15, 54918, Note_on_c, 9, 44, 0
15, 54918, Note_on_c, 9, 54, 0
15, 54918, Note_on_c, 9, 70, 0
15, 54930, Note_on_c, 9, 63, 126
15, 54942, Note_on_c, 9, 63, 0
15, 54960, Note_on_c, 9, 36, 127
15, 54960, Note_on_c, 9, 42, 115
15, 54961, Note_on_c, 9, 70, 107
15, 54976, Note_on_c, 9, 70, 0
15, 54981, Note_on_c, 9, 42, 0
15, 54986, Note_on_c, 9, 36, 0
15, 54990, Note_on_c, 9, 64, 115
15, 55008, Note_on_c, 9, 64, 0
15, 55020, Note_on_c, 9, 44, 118
15, 55020, Note_on_c, 9, 46, 127
15, 55021, Note_on_c, 9, 70, 122
15, 55021, Note_on_c, 9, 54, 126
15, 55021, Note_on_c, 9, 64, 113
15, 55034, Note_on_c, 9, 46, 0
15, 55037, Note_on_c, 9, 64, 0
15, 55037, Note_on_c, 9, 70, 0
15, 55041, Note_on_c, 9, 54, 0
15, 55042, Note_on_c, 9, 44, 0
15, 55080, Note_on_c, 9, 38, 127
15, 55080, Note_on_c, 9, 36, 127
15, 55080, Note_on_c, 9, 44, 100
15, 55081, Note_on_c, 9, 42, 115
15, 55081, Note_on_c, 9, 64, 122
15, 55081, Note_on_c, 9, 70, 109
15, 55094, Note_on_c, 9, 64, 0
15, 55094, Note_on_c, 9, 44, 0
15, 55097, Note_on_c, 9, 70, 0
15, 55102, Note_on_c, 9, 42, 0
15, 55105, Note_on_c, 9, 38, 0
15, 55108, Note_on_c, 9, 36, 0
15, 55140, Note_on_c, 9, 44, 106
15, 55141, Note_on_c, 9, 54, 127
15, 55141, Note_on_c, 9, 70, 126
15, 55142, Note_on_c, 9, 62, 122
15, 55157, Note_on_c, 9, 70, 0
15, 55157, Note_on_c, 9, 54, 0
15, 55158, Note_on_c, 9, 44, 0
15, 55158, Note_on_c, 9, 62, 0
15, 55170, Note_on_c, 9, 63, 127
15, 55186, Note_on_c, 9, 63, 0
15, 55200, Note_on_c, 9, 36, 127
15, 55201, Note_on_c, 9, 70, 113
15, 55201, Note_on_c, 9, 42, 118
15, 55202, Note_on_c, 9, 63, 122
15, 55215, Note_on_c, 9, 63, 0
15, 55216, Note_on_c, 9, 36, 0
15, 55216, Note_on_c, 9, 70, 0
15, 55221, Note_on_c, 9, 42, 0
15, 55260, Note_on_c, 9, 44, 97
15, 55261, Note_on_c, 9, 54, 127
15, 55261, Note_on_c, 9, 70, 127
15, 55262, Note_on_c, 9, 63, 122
15, 55267, Note_on_c, 9, 63, 0
15, 55278, Note_on_c, 9, 54, 0
15, 55281, Note_on_c, 9, 70, 0
15, 55283, Note_on_c, 9, 44, 0
15, 55290, Note_on_c, 9, 65, 127
15, 55305, Note_on_c, 9, 66, 127
15, 55310, Note_on_c, 9, 65, 0
15, 55320, Note_on_c, 9, 38, 127
15, 55320, Note_on_c, 9, 36, 127
15, 55321, Note_on_c, 9, 64, 122
15, 55321, Note_on_c, 9, 70, 122
15, 55321, Note_on_c, 9, 65, 127
15, 55321, Note_on_c, 9, 42, 118
15, 55328, Note_on_c, 9, 66, 0
15, 55331, Note_on_c, 9, 70, 0
15, 55335, Note_on_c, 9, 36, 0
15, 55338, Note_on_c, 9, 42, 0
15, 55346, Note_on_c, 9, 38, 0
15, 55346, Note_on_c, 9, 64, 0
15, 55361, Note_on_c, 9, 65, 0
15, 55380, Note_on_c, 9, 44, 110
15, 55381, Note_on_c, 9, 54, 117
15, 55381, Note_on_c, 9, 70, 127
15, 55382, Note_on_c, 9, 63, 120
15, 55395, Note_on_c, 9, 65, 127
15, 55396, Note_on_c, 9, 54, 0
15, 55397, Note_on_c, 9, 63, 0
15, 55402, Note_on_c, 9, 44, 0
15, 55402, Note_on_c, 9, 70, 0
15, 55410, Note_on_c, 9, 65, 127
15, 55410, Note_on_c, 9, 63, 127
15, 55418, Note_on_c, 9, 65, 0
15, 55425, Note_on_c, 9, 65, 127
15, 55426, Note_on_c, 9, 63, 0
15, 55433, Note_on_c, 9, 65, 0
15, 55440, Note_on_c, 9, 65, 127
15, 55440, Note_on_c, 9, 36, 127
15, 55441, Note_on_c, 9, 42, 120
15, 55441, Note_on_c, 9, 70, 123
15, 55448, Note_on_c, 9, 65, 0
15, 55454, Note_on_c, 9, 70, 0
15, 55458, Note_on_c, 9, 36, 0
15, 55461, Note_on_c, 9, 42, 0
15, 55463, Note_on_c, 9, 65, 0
15, 55470, Note_on_c, 9, 63, 127
15, 55481, Note_on_c, 9, 63, 0
15, 55500, Note_on_c, 9, 44, 105
15, 55500, Note_on_c, 9, 46, 127
15, 55501, Note_on_c, 9, 64, 115
15, 55501, Note_on_c, 9, 65, 101
15, 55501, Note_on_c, 9, 54, 122
15, 55501, Note_on_c, 9, 70, 127
15, 55513, Note_on_c, 9, 65, 0
15, 55514, Note_on_c, 9, 46, 0
15, 55517, Note_on_c, 9, 64, 0
15, 55519, Note_on_c, 9, 54, 0
15, 55522, Note_on_c, 9, 70, 0
15, 55522, Note_on_c, 9, 44, 0
15, 55560, Note_on_c, 9, 36, 127
15, 55560, Note_on_c, 9, 38, 127
15, 55560, Note_on_c, 9, 44, 100
15, 55561, Note_on_c, 9, 64, 114
15, 55561, Note_on_c, 9, 70, 109
15, 55561, Note_on_c, 9, 65, 127
15, 55561, Note_on_c, 9, 42, 120
15, 55574, Note_on_c, 9, 44, 0
15, 55576, Note_on_c, 9, 36, 0
15, 55577, Note_on_c, 9, 70, 0
15, 55579, Note_on_c, 9, 64, 0
15, 55582, Note_on_c, 9, 42, 0
15, 55585, Note_on_c, 9, 38, 0
15, 55611, Note_on_c, 9, 65, 0
15, 55620, Note_on_c, 9, 66, 127
15, 55620, Note_on_c, 9, 44, 98
15, 55621, Note_on_c, 9, 70, 120
15, 55621, Note_on_c, 9, 54, 124
15, 55622, Note_on_c, 9, 62, 120
15, 55634, Note_on_c, 9, 70, 0
15, 55637, Note_on_c, 9, 62, 0
15, 55643, Note_on_c, 9, 66, 0
15, 55646, Note_on_c, 9, 44, 0
15, 55646, Note_on_c, 9, 54, 0
15, 55650, Note_on_c, 9, 62, 120
15, 55666, Note_on_c, 9, 62, 0
15, 55680, Note_on_c, 9, 36, 127
15, 55681, Note_on_c, 9, 42, 121
15, 55682, Note_on_c, 9, 49, 115
15, 55682, Note_on_c, 9, 63, 127
15, 55682, Note_on_c, 9, 70, 104
15, 55693, Note_on_c, 9, 49, 0
15, 55695, Note_on_c, 9, 36, 0
15, 55698, Note_on_c, 9, 63, 0
15, 55700, Note_on_c, 9, 70, 0
15, 55704, Note_on_c, 9, 42, 0
15, 55740, Note_on_c, 9, 44, 103
15, 55741, Note_on_c, 9, 63, 114
15, 55741, Note_on_c, 9, 70, 115
15, 55741, Note_on_c, 9, 54, 127
15, 55751, Note_on_c, 9, 63, 0
15, 55754, Note_on_c, 9, 70, 0
15, 55762, Note_on_c, 9, 44, 0
15, 55766, Note_on_c, 9, 54, 0
15, 55800, Note_on_c, 9, 38, 127
15, 55800, Note_on_c, 9, 36, 127
15, 55801, Note_on_c, 9, 70, 104
15, 55801, Note_on_c, 9, 64, 115
15, 55801, Note_on_c, 9, 42, 123
15, 55818, Note_on_c, 9, 36, 0
15, 55821, Note_on_c, 9, 70, 0
15, 55823, Note_on_c, 9, 64, 0
15, 55828, Note_on_c, 9, 38, 0
15, 55831, Note_on_c, 9, 42, 0
15, 55860, Note_on_c, 9, 44, 111
15, 55861, Note_on_c, 9, 54, 124
15, 55861, Note_on_c, 9, 70, 118
15, 55862, Note_on_c, 9, 63, 113
15, 55872, Note_on_c, 9, 63, 0
15, 55879, Note_on_c, 9, 70, 0
15, 55882, Note_on_c, 9, 44, 0
15, 55883, Note_on_c, 9, 54, 0
15, 55890, Note_on_c, 9, 63, 127
15, 55901, Note_on_c, 9, 63, 0
15, 55920, Note_on_c, 9, 42, 118
15, 55920, Note_on_c, 9, 36, 127
15, 55921, Note_on_c, 9, 70, 105
15, 55938, Note_on_c, 9, 36, 0
15, 55939, Note_on_c, 9, 70, 0
15, 55941, Note_on_c, 9, 42, 0
15, 55950, Note_on_c, 9, 63, 127
15, 55961, Note_on_c, 9, 63, 0
15, 55980, Note_on_c, 9, 44, 108
15, 55980, Note_on_c, 9, 46, 127
15, 55981, Note_on_c, 9, 64, 110
15, 55981, Note_on_c, 9, 54, 123
15, 55981, Note_on_c, 9, 70, 122
15, 55994, Note_on_c, 9, 46, 0
15, 55995, Note_on_c, 9, 44, 0
15, 55997, Note_on_c, 9, 64, 0
15, 55998, Note_on_c, 9, 54, 0
15, 56002, Note_on_c, 9, 70, 0
15, 56040, Note_on_c, 9, 36, 127
15, 56040, Note_on_c, 9, 38, 127
15, 56040, Note_on_c, 9, 44, 100
15, 56041, Note_on_c, 9, 42, 126
15, 56041, Note_on_c, 9, 70, 108
15, 56041, Note_on_c, 9, 64, 109
15, 56054, Note_on_c, 9, 44, 0
15, 56057, Note_on_c, 9, 70, 0
15, 56059, Note_on_c, 9, 64, 0
15, 56060, Note_on_c, 9, 36, 0
15, 56062, Note_on_c, 9, 42, 0
15, 56073, Note_on_c, 9, 38, 0
15, 56100, Note_on_c, 9, 44, 107
15, 56101, Note_on_c, 9, 70, 120
15, 56101, Note_on_c, 9, 54, 122
15, 56102, Note_on_c, 9, 62, 119
15, 56115, Note_on_c, 9, 62, 0
15, 56117, Note_on_c, 9, 70, 0
15, 56118, Note_on_c, 9, 44, 0
15, 56122, Note_on_c, 9, 54, 0
15, 56130, Note_on_c, 9, 62, 115
15, 56152, Note_on_c, 9, 62, 0
15, 56160, Note_on_c, 9, 42, 122
15, 56160, Note_on_c, 9, 36, 127
15, 56162, Note_on_c, 9, 63, 127
15, 56162, Note_on_c, 9, 70, 116
15, 56172, Note_on_c, 9, 63, 0
15, 56174, Note_on_c, 9, 70, 0
15, 56175, Note_on_c, 9, 36, 0
15, 56185, Note_on_c, 9, 42, 0
15, 56220, Note_on_c, 9, 44, 116
15, 56221, Note_on_c, 9, 70, 118
15, 56221, Note_on_c, 9, 63, 118
15, 56221, Note_on_c, 9, 54, 126
15, 56231, Note_on_c, 9, 63, 0
15, 56236, Note_on_c, 9, 70, 0
15, 56241, Note_on_c, 9, 54, 0
15, 56242, Note_on_c, 9, 44, 0
15, 56280, Note_on_c, 9, 38, 127
15, 56280, Note_on_c, 9, 36, 127
15, 56281, Note_on_c, 9, 42, 122
15, 56281, Note_on_c, 9, 64, 118
15, 56281, Note_on_c, 9, 70, 114
15, 56293, Note_on_c, 9, 64, 0
15, 56297, Note_on_c, 9, 70, 0
15, 56300, Note_on_c, 9, 36, 0
15, 56302, Note_on_c, 9, 42, 0
15, 56310, Note_on_c, 9, 38, 0
15, 56340, Note_on_c, 9, 44, 116
15, 56341, Note_on_c, 9, 54, 118
15, 56341, Note_on_c, 9, 70, 117
15, 56341, Note_on_c, 9, 63, 109
15, 56351, Note_on_c, 9, 63, 0
15, 56357, Note_on_c, 9, 70, 0
15, 56358, Note_on_c, 9, 44, 0
15, 56362, Note_on_c, 9, 54, 0
15, 56370, Note_on_c, 9, 63, 127
15, 56382, Note_on_c, 9, 63, 0
15, 56400, Note_on_c, 9, 36, 127
15, 56401, Note_on_c, 9, 70, 114
15, 56401, Note_on_c, 9, 42, 123
15, 56416, Note_on_c, 9, 70, 0
15, 56422, Note_on_c, 9, 36, 0
15, 56423, Note_on_c, 9, 42, 0
15, 56430, Note_on_c, 9, 63, 124
15, 56441, Note_on_c, 9, 63, 0
15, 56460, Note_on_c, 9, 44, 111
15, 56460, Note_on_c, 9, 46, 127
15, 56461, Note_on_c, 9, 70, 118
15, 56461, Note_on_c, 9, 54, 124
15, 56462, Note_on_c, 9, 64, 114
15, 56473, Note_on_c, 9, 64, 0
15, 56474, Note_on_c, 9, 46, 0
15, 56474, Note_on_c, 9, 54, 0
15, 56476, Note_on_c, 9, 70, 0
15, 56478, Note_on_c, 9, 44, 0
15, 56520, Note_on_c, 9, 38, 127
15, 56520, Note_on_c, 9, 36, 127
15, 56520, Note_on_c, 9, 44, 100
15, 56521, Note_on_c, 9, 42, 123
15, 56521, Note_on_c, 9, 64, 118
15, 56521, Note_on_c, 9, 70, 111
15, 56534, Note_on_c, 9, 44, 0
15, 56536, Note_on_c, 9, 64, 0
15, 56537, Note_on_c, 9, 70, 0
15, 56538, Note_on_c, 9, 36, 0
15, 56538, Note_on_c, 9, 38, 0
15, 56542, Note_on_c, 9, 42, 0
15, 56580, Note_on_c, 9, 44, 112
15, 56581, Note_on_c, 9, 54, 118
15, 56581, Note_on_c, 9, 70, 117
15, 56582, Note_on_c, 9, 62, 122
15, 56596, Note_on_c, 9, 70, 0
15, 56597, Note_on_c, 9, 62, 0
15, 56598, Note_on_c, 9, 44, 0
15, 56601, Note_on_c, 9, 54, 0
15, 56610, Note_on_c, 9, 62, 125
15, 56630, Note_on_c, 9, 62, 0
15, 56641, Note_on_c, 9, 36, 127
15, 56641, Note_on_c, 9, 42, 121
15, 56642, Note_on_c, 9, 70, 109
15, 56642, Note_on_c, 9, 63, 127
15, 56650, Note_on_c, 9, 63, 0
15, 56654, Note_on_c, 9, 70, 0
15, 56659, Note_on_c, 9, 36, 0
15, 56663, Note_on_c, 9, 42, 0
15, 56700, Note_on_c, 9, 44, 106
15, 56701, Note_on_c, 9, 70, 120
15, 56701, Note_on_c, 9, 54, 123
15, 56702, Note_on_c, 9, 63, 124
15, 56705, Note_on_c, 9, 63, 0
15, 56714, Note_on_c, 9, 54, 0
15, 56718, Note_on_c, 9, 44, 0
15, 56722, Note_on_c, 9, 70, 0
15, 56760, Note_on_c, 9, 36, 127
15, 56760, Note_on_c, 9, 38, 127
15, 56761, Note_on_c, 9, 42, 120
15, 56761, Note_on_c, 9, 70, 106
15, 56761, Note_on_c, 9, 64, 122
15, 56773, Note_on_c, 9, 64, 0
15, 56776, Note_on_c, 9, 70, 0
15, 56779, Note_on_c, 9, 42, 0
15, 56786, Note_on_c, 9, 36, 0
15, 56796, Note_on_c, 9, 38, 0
15, 56820, Note_on_c, 9, 44, 113
15, 56821, Note_on_c, 9, 70, 117
15, 56821, Note_on_c, 9, 54, 121
15, 56822, Note_on_c, 9, 63, 118
15, 56827, Note_on_c, 9, 63, 0
15, 56834, Note_on_c, 9, 70, 0
15, 56841, Note_on_c, 9, 54, 0
15, 56842, Note_on_c, 9, 44, 0
15, 56850, Note_on_c, 9, 63, 127
15, 56866, Note_on_c, 9, 63, 0
15, 56880, Note_on_c, 9, 36, 127
15, 56881, Note_on_c, 9, 70, 110
15, 56881, Note_on_c, 9, 42, 115
15, 56899, Note_on_c, 9, 70, 0
15, 56903, Note_on_c, 9, 42, 0
15, 56906, Note_on_c, 9, 36, 0
15, 56910, Note_on_c, 9, 63, 123
15, 56922, Note_on_c, 9, 63, 0
15, 56940, Note_on_c, 9, 44, 118
15, 56940, Note_on_c, 9, 46, 127
15, 56941, Note_on_c, 9, 54, 123
15, 56941, Note_on_c, 9, 70, 118
15, 56942, Note_on_c, 9, 64, 117
15, 56954, Note_on_c, 9, 46, 0
15, 56956, Note_on_c, 9, 70, 0
15, 56957, Note_on_c, 9, 64, 0
15, 56957, Note_on_c, 9, 54, 0
15, 56966, Note_on_c, 9, 44, 0
15, 57000, Note_on_c, 9, 36, 127
15, 57000, Note_on_c, 9, 38, 127
15, 57000, Note_on_c, 9, 44, 100
15, 57001, Note_on_c, 9, 42, 120
15, 57001, Note_on_c, 9, 70, 110
15, 57014, Note_on_c, 9, 44, 0
15, 57017, Note_on_c, 9, 70, 0
15, 57018, Note_on_c, 9, 42, 0
15, 57025, Note_on_c, 9, 38, 0
15, 57028, Note_on_c, 9, 36, 0
15, 57060, Note_on_c, 9, 44, 112
15, 57061, Note_on_c, 9, 54, 122
15, 57061, Note_on_c, 9, 70, 122
15, 57062, Note_on_c, 9, 62, 124
15, 57067, Note_on_c, 9, 62, 0
15, 57077, Note_on_c, 9, 70, 0
15, 57078, Note_on_c, 9, 44, 0
15, 57082, Note_on_c, 9, 54, 0
15, 57090, Note_on_c, 9, 62, 119
15, 57110, Note_on_c, 9, 62, 0
15, 57121, Note_on_c, 9, 42, 121
15, 57121, Note_on_c, 9, 36, 127
15, 57122, Note_on_c, 9, 70, 111
15, 57136, Note_on_c, 9, 36, 0
15, 57138, Note_on_c, 9, 70, 0
15, 57143, Note_on_c, 9, 42, 0
15, 57180, Note_on_c, 9, 44, 105
15, 57181, Note_on_c, 9, 70, 122
15, 57181, Note_on_c, 9, 54, 120
15, 57182, Note_on_c, 9, 63, 122
15, 57190, Note_on_c, 9, 63, 0
15, 57195, Note_on_c, 9, 65, 127
15, 57196, Note_on_c, 9, 70, 0
15, 57201, Note_on_c, 9, 44, 0
15, 57201, Note_on_c, 9, 54, 0
15, 57210, Note_on_c, 9, 65, 127
15, 57218, Note_on_c, 9, 65, 0
15, 57225, Note_on_c, 9, 66, 127
15, 57233, Note_on_c, 9, 65, 0
15, 57240, Note_on_c, 9, 66, 127
15, 57240, Note_on_c, 9, 36, 127
15, 57240, Note_on_c, 9, 38, 127
15, 57241, Note_on_c, 9, 64, 117
15, 57241, Note_on_c, 9, 42, 120
15, 57241, Note_on_c, 9, 70, 109
15, 57248, Note_on_c, 9, 66, 0
15, 57253, Note_on_c, 9, 64, 0
15, 57255, Note_on_c, 9, 36, 0
15, 57256, Note_on_c, 9, 70, 0
15, 57263, Note_on_c, 9, 66, 0
15, 57263, Note_on_c, 9, 42, 0
15, 57266, Note_on_c, 9, 38, 0
15, 57300, Note_on_c, 9, 44, 113
15, 57301, Note_on_c, 9, 70, 120
15, 57301, Note_on_c, 9, 54, 123
15, 57301, Note_on_c, 9, 63, 120
15, 57306, Note_on_c, 9, 63, 0
15, 57317, Note_on_c, 9, 54, 0
15, 57317, Note_on_c, 9, 70, 0
15, 57318, Note_on_c, 9, 44, 0
15, 57330, Note_on_c, 9, 63, 124
15, 57341, Note_on_c, 9, 63, 0
15, 57360, Note_on_c, 9, 36, 127
15, 57361, Note_on_c, 9, 70, 112
15, 57361, Note_on_c, 9, 42, 120
15, 57376, Note_on_c, 9, 70, 0
15, 57378, Note_on_c, 9, 36, 0
15, 57382, Note_on_c, 9, 42, 0
15, 57390, Note_on_c, 9, 63, 126
15, 57401, Note_on_c, 9, 63, 0
15, 57420, Note_on_c, 9, 44, 111
15, 57420, Note_on_c, 9, 46, 127
15, 57421, Note_on_c, 9, 54, 120
15, 57421, Note_on_c, 9, 70, 124
15, 57422, Note_on_c, 9, 64, 117
15, 57434, Note_on_c, 9, 46, 0
15, 57438, Note_on_c, 9, 70, 0
15, 57438, Note_on_c, 9, 44, 0
15, 57438, Note_on_c, 9, 54, 0
15, 57443, Note_on_c, 9, 64, 0
15, 57480, Note_on_c, 9, 36, 127
15, 57480, Note_on_c, 9, 44, 100
15, 57481, Note_on_c, 9, 64, 114
15, 57481, Note_on_c, 9, 70, 107
15, 57481, Note_on_c, 9, 38, 127
15, 57481, Note_on_c, 9, 42, 124
15, 57494, Note_on_c, 9, 44, 0
15, 57496, Note_on_c, 9, 36, 0
15, 57497, Note_on_c, 9, 70, 0
15, 57501, Note_on_c, 9, 64, 0
15, 57502, Note_on_c, 9, 42, 0
15, 57504, Note_on_c, 9, 38, 0
15, 57540, Note_on_c, 9, 44, 116
15, 57541, Note_on_c, 9, 70, 118
15, 57541, Note_on_c, 9, 62, 124
15, 57541, Note_on_c, 9, 54, 122
15, 57554, Note_on_c, 9, 70, 0
15, 57557, Note_on_c, 9, 62, 0
15, 57558, Note_on_c, 9, 44, 0
15, 57562, Note_on_c, 9, 54, 0
15, 57570, Note_on_c, 9, 62, 116
15, 57593, Note_on_c, 9, 62, 0
15, 57601, Note_on_c, 9, 36, 127
15, 57601, Note_on_c, 9, 42, 124
15, 57602, Note_on_c, 9, 70, 105
15, 57602, Note_on_c, 9, 63, 126
15, 57614, Note_on_c, 9, 36, 0
15, 57615, Note_on_c, 9, 70, 0
15, 57619, Note_on_c, 9, 63, 0
15, 57622, Note_on_c, 9, 42, 0
15, 57660, Note_on_c, 9, 44, 122
15, 57661, Note_on_c, 9, 54, 123
15, 57662, Note_on_c, 9, 63, 123
15, 57662, Note_on_c, 9, 70, 122
15, 57675, Note_on_c, 9, 63, 0
15, 57678, Note_on_c, 9, 44, 0
15, 57680, Note_on_c, 9, 70, 0
15, 57682, Note_on_c, 9, 54, 0
15, 57720, Note_on_c, 9, 36, 127
15, 57721, Note_on_c, 9, 64, 115
15, 57721, Note_on_c, 9, 42, 123
15, 57721, Note_on_c, 9, 70, 106
15, 57721, Note_on_c, 9, 38, 127
15, 57736, Note_on_c, 9, 70, 0
15, 57738, Note_on_c, 9, 36, 0
15, 57742, Note_on_c, 9, 42, 0
15, 57743, Note_on_c, 9, 64, 0
15, 57748, Note_on_c, 9, 38, 0
15, 57780, Note_on_c, 9, 44, 108
15, 57781, Note_on_c, 9, 54, 120
15, 57781, Note_on_c, 9, 70, 120
15, 57782, Note_on_c, 9, 63, 120
15, 57790, Note_on_c, 9, 63, 0
15, 57794, Note_on_c, 9, 70, 0
15, 57798, Note_on_c, 9, 44, 0
15, 57801, Note_on_c, 9, 54, 0
15, 57810, Note_on_c, 9, 63, 127
15, 57821, Note_on_c, 9, 63, 0
15, 57840, Note_on_c, 9, 36, 127
15, 57841, Note_on_c, 9, 70, 108
15, 57841, Note_on_c, 9, 42, 127
15, 57856, Note_on_c, 9, 70, 0
15, 57858, Note_on_c, 9, 36, 0
15, 57859, Note_on_c, 9, 42, 0
15, 57870, Note_on_c, 9, 63, 122
15, 57881, Note_on_c, 9, 63, 0
15, 57900, Note_on_c, 9, 44, 113
15, 57900, Note_on_c, 9, 46, 127
15, 57901, Note_on_c, 9, 70, 122
15, 57901, Note_on_c, 9, 54, 121
15, 57902, Note_on_c, 9, 64, 120
15, 57914, Note_on_c, 9, 46, 0
15, 57917, Note_on_c, 9, 64, 0
15, 57917, Note_on_c, 9, 70, 0
15, 57918, Note_on_c, 9, 44, 0
15, 57921, Note_on_c, 9, 54, 0
15, 57960, Note_on_c, 9, 42, 127
15, 57960, Note_on_c, 9, 36, 127
15, 57960, Note_on_c, 9, 38, 127
15, 57960, Note_on_c, 9, 44, 100
15, 57961, Note_on_c, 9, 64, 118
15, 57961, Note_on_c, 9, 70, 110
15, 57974, Note_on_c, 9, 44, 0
15, 57977, Note_on_c, 9, 70, 0
15, 57978, Note_on_c, 9, 64, 0
15, 57980, Note_on_c, 9, 36, 0
15, 57983, Note_on_c, 9, 42, 0
15, 57993, Note_on_c, 9, 38, 0
15, 58020, Note_on_c, 9, 44, 116
15, 58021, Note_on_c, 9, 54, 123
15, 58021, Note_on_c, 9, 70, 118
15, 58022, Note_on_c, 9, 62, 124
15, 58034, Note_on_c, 9, 70, 0
15, 58039, Note_on_c, 9, 62, 0
15, 58040, Note_on_c, 9, 44, 0
15, 58041, Note_on_c, 9, 54, 0
15, 58050, Note_on_c, 9, 62, 124
15, 58073, Note_on_c, 9, 62, 0
15, 58080, Note_on_c, 9, 36, 127
15, 58081, Note_on_c, 9, 42, 124
15, 58082, Note_on_c, 9, 70, 109
15, 58082, Note_on_c, 9, 63, 124
15, 58095, Note_on_c, 9, 70, 0
15, 58095, Note_on_c, 9, 36, 0
15, 58099, Note_on_c, 9, 63, 0
15, 58101, Note_on_c, 9, 42, 0
15, 58140, Note_on_c, 9, 44, 116
15, 58141, Note_on_c, 9, 70, 120
15, 58142, Note_on_c, 9, 54, 124
15, 58142, Note_on_c, 9, 63, 127
15, 58157, Note_on_c, 9, 63, 0
15, 58157, Note_on_c, 9, 54, 0
15, 58157, Note_on_c, 9, 70, 0
15, 58162, Note_on_c, 9, 44, 0
15, 58200, Note_on_c, 9, 36, 127
15, 58200, Note_on_c, 9, 38, 127
15, 58201, Note_on_c, 9, 42, 122
15, 58201, Note_on_c, 9, 64, 122
15, 58201, Note_on_c, 9, 70, 109
15, 58217, Note_on_c, 9, 70, 0
15, 58220, Note_on_c, 9, 36, 0
15, 58222, Note_on_c, 9, 42, 0
15, 58224, Note_on_c, 9, 64, 0
15, 58230, Note_on_c, 9, 38, 0
15, 58260, Note_on_c, 9, 44, 114
15, 58261, Note_on_c, 9, 70, 118
15, 58261, Note_on_c, 9, 54, 126
15, 58262, Note_on_c, 9, 63, 117
15, 58272, Note_on_c, 9, 63, 0
15, 58277, Note_on_c, 9, 54, 0
15, 58277, Note_on_c, 9, 70, 0
15, 58278, Note_on_c, 9, 44, 0
15, 58290, Note_on_c, 9, 63, 123
15, 58302, Note_on_c, 9, 63, 0
15, 58320, Note_on_c, 9, 36, 127
15, 58320, Note_on_c, 9, 42, 126
15, 58321, Note_on_c, 9, 70, 110
15, 58336, Note_on_c, 9, 70, 0
15, 58341, Note_on_c, 9, 42, 0
15, 58342, Note_on_c, 9, 36, 0
15, 58350, Note_on_c, 9, 63, 124
15, 58362, Note_on_c, 9, 63, 0
15, 58380, Note_on_c, 9, 44, 111
15, 58380, Note_on_c, 9, 46, 127
15, 58381, Note_on_c, 9, 54, 126
15, 58381, Note_on_c, 9, 70, 120
15, 58382, Note_on_c, 9, 64, 115
15, 58394, Note_on_c, 9, 46, 0
15, 58397, Note_on_c, 9, 70, 0
15, 58397, Note_on_c, 9, 64, 0
15, 58398, Note_on_c, 9, 44, 0
15, 58401, Note_on_c, 9, 54, 0
15, 58440, Note_on_c, 9, 36, 127
15, 58440, Note_on_c, 9, 38, 127
15, 58440, Note_on_c, 9, 44, 100
15, 58441, Note_on_c, 9, 42, 123
15, 58441, Note_on_c, 9, 70, 110
15, 58441, Note_on_c, 9, 64, 114
15, 58454, Note_on_c, 9, 44, 0
15, 58457, Note_on_c, 9, 70, 0
15, 58458, Note_on_c, 9, 36, 0
15, 58458, Note_on_c, 9, 38, 0
15, 58459, Note_on_c, 9, 64, 0
15, 58467, Note_on_c, 9, 42, 0
15, 58500, Note_on_c, 9, 44, 116
15, 58501, Note_on_c, 9, 54, 124
15, 58501, Note_on_c, 9, 70, 122
15, 58502, Note_on_c, 9, 62, 125
15, 58512, Note_on_c, 9, 62, 0
15, 58517, Note_on_c, 9, 70, 0
15, 58518, Note_on_c, 9, 54, 0
15, 58522, Note_on_c, 9, 44, 0
15, 58530, Note_on_c, 9, 62, 127
15, 58550, Note_on_c, 9, 62, 0
15, 58560, Note_on_c, 9, 49, 116
15, 58560, Note_on_c, 9, 36, 127
15, 58580, Note_on_c, 9, 36, 0
15, 58582, Note_on_c, 9, 49, 0
15, 58605, Note_on_c, 9, 48, 116
15, 58620, Note_on_c, 9, 47, 116
15, 58627, Note_on_c, 9, 48, 0
15, 58642, Note_on_c, 9, 47, 0
15, 58680, Note_on_c, 9, 45, 116
15, 58680, Note_on_c, 9, 36, 127
15, 58702, Note_on_c, 9, 45, 0
15, 58706, Note_on_c, 9, 36, 0
15, 58740, Note_on_c, 9, 57, 116
15, 58740, Note_on_c, 9, 55, 116
15, 58740, Note_on_c, 9, 36, 127
15, 58762, Note_on_c, 9, 55, 0
15, 58762, Note_on_c, 9, 57, 0
15, 58766, Note_on_c, 9, 36, 0
15, 58766, End_track
0, 0, End_of_file
