0, 0, Header, 1, 17, 96
1, 0, Start_track
1, 0, Title_t, "untitled"
1, 0, Time_signature, 4, 2, 24, 8
1, 0, Key_signature, 0, "major"
1, 0, Tempo, 422535
1, 768, Marker_t, "Intro"
1, 3456, Marker_t, "Verse 1"
1, 6528, Marker_t, "Verse 2"
1, 9600, Marker_t, "Chorus"
1, 12672, Marker_t, "Guitar Solo"
1, 15744, Marker_t, "Piano Solo"
1, 18816, Marker_t, "Verse 3"
1, 21888, Marker_t, "Chorus"
1, 24960, Marker_t, "Chorus (drums)"
1, 28032, Marker_t, "Chorus"
1, 34944, Marker_t, "Outro"
1, 34944, End_track
2, 0, Start_track
2, 0, MIDI_port, 0
2, 0, Title_t, "Controllers"
2, 0, Control_c, 0, 121, 0
2, 0, Control_c, 2, 121, 0
2, 0, Control_c, 3, 121, 0
2, 0, Control_c, 4, 121, 0
2, 0, Control_c, 5, 121, 0
2, 0, Control_c, 6, 121, 0
2, 0, Control_c, 7, 121, 0
2, 0, Control_c, 8, 121, 0
2, 0, Control_c, 9, 121, 0
2, 0, Control_c, 10, 121, 0
2, 0, Control_c, 11, 121, 0
2, 0, Control_c, 12, 121, 0
2, 0, Control_c, 13, 121, 0
2, 0, Control_c, 14, 121, 0
2, 0, Control_c, 15, 121, 0
2, 0, Control_c, 1, 121, 0
2, 37248, Control_c, 0, 123, 0
2, 37248, Control_c, 15, 121, 127
2, 37248, Control_c, 14, 121, 127
2, 37248, Control_c, 13, 121, 127
2, 37248, Control_c, 12, 121, 127
2, 37248, Control_c, 11, 121, 127
2, 37248, Control_c, 10, 121, 127
2, 37248, Control_c, 9, 121, 127
2, 37248, Control_c, 8, 121, 127
2, 37248, Control_c, 7, 121, 127
2, 37248, Control_c, 6, 121, 127
2, 37248, Control_c, 5, 121, 127
2, 37248, Control_c, 4, 121, 127
2, 37248, Control_c, 3, 121, 127
2, 37248, Control_c, 2, 121, 127
2, 37248, Control_c, 1, 121, 127
2, 37248, Control_c, 0, 121, 127
2, 37248, Control_c, 15, 120, 127
2, 37248, Control_c, 14, 120, 127
2, 37248, Control_c, 13, 120, 127
2, 37248, Control_c, 1, 120, 127
2, 37248, Control_c, 0, 120, 127
2, 37248, Control_c, 2, 120, 127
2, 37248, Control_c, 3, 120, 127
2, 37248, Control_c, 4, 120, 127
2, 37248, Control_c, 5, 120, 127
2, 37248, Control_c, 6, 120, 127
2, 37248, Control_c, 7, 120, 127
2, 37248, Control_c, 8, 120, 127
2, 37248, Control_c, 9, 120, 127
2, 37248, Control_c, 1, 123, 0
2, 37248, Control_c, 10, 120, 127
2, 37248, Control_c, 11, 120, 127
2, 37248, Control_c, 12, 120, 127
2, 37248, Control_c, 15, 123, 0
2, 37248, Control_c, 14, 123, 0
2, 37248, Control_c, 13, 123, 0
2, 37248, Control_c, 12, 123, 0
2, 37248, Control_c, 11, 123, 0
2, 37248, Control_c, 10, 123, 0
2, 37248, Control_c, 9, 123, 0
2, 37248, Control_c, 8, 123, 0
2, 37248, Control_c, 7, 123, 0
2, 37248, Control_c, 6, 123, 0
2, 37248, Control_c, 5, 123, 0
2, 37248, Control_c, 4, 123, 0
2, 37248, Control_c, 3, 123, 0
2, 37248, Control_c, 2, 123, 0
2, 37248, End_track
3, 0, Start_track
3, 0, MIDI_port, 0
3, 0, Title_t, "Fretless Bass"
3, 0, Program_c, 1, 33
3, 0, Control_c, 1, 7, 105
3, 0, Program_c, 1, 35
3, 0, Control_c, 1, 7, 100
3, 0, Control_c, 1, 11, 120
3, 0, Control_c, 1, 91, 64
3, 1920, Note_on_c, 1, 38, 127
3, 1958, Note_on_c, 1, 38, 0
3, 1968, Note_on_c, 1, 38, 127
3, 2016, Note_on_c, 1, 38, 0
3, 2016, Note_on_c, 1, 38, 127
3, 2054, Note_on_c, 1, 38, 0
3, 2064, Note_on_c, 1, 38, 127
3, 2112, Note_on_c, 1, 38, 0
3, 2112, Note_on_c, 1, 38, 127
3, 2150, Note_on_c, 1, 38, 0
3, 2160, Note_on_c, 1, 38, 127
3, 2208, Note_on_c, 1, 38, 0
3, 2208, Note_on_c, 1, 38, 127
3, 2246, Note_on_c, 1, 38, 0
3, 2256, Note_on_c, 1, 38, 127
3, 2304, Note_on_c, 1, 38, 0
3, 2304, Note_on_c, 1, 38, 127
3, 2342, Note_on_c, 1, 38, 0
3, 2352, Note_on_c, 1, 38, 127
3, 2400, Note_on_c, 1, 38, 0
3, 2400, Note_on_c, 1, 38, 127
3, 2438, Note_on_c, 1, 38, 0
3, 2448, Note_on_c, 1, 38, 127
3, 2496, Note_on_c, 1, 38, 0
3, 2496, Note_on_c, 1, 38, 127
3, 2534, Note_on_c, 1, 38, 0
3, 2544, Note_on_c, 1, 38, 127
3, 2592, Note_on_c, 1, 38, 0
3, 2592, Note_on_c, 1, 38, 127
3, 2630, Note_on_c, 1, 38, 0
3, 2640, Note_on_c, 1, 38, 127
3, 2688, Note_on_c, 1, 38, 0
3, 2688, Note_on_c, 1, 38, 127
3, 2726, Note_on_c, 1, 38, 0
3, 2736, Note_on_c, 1, 38, 127
3, 2784, Note_on_c, 1, 38, 0
3, 2784, Note_on_c, 1, 38, 127
3, 2822, Note_on_c, 1, 38, 0
3, 2832, Note_on_c, 1, 38, 127
3, 2880, Note_on_c, 1, 38, 0
3, 2880, Note_on_c, 1, 38, 127
3, 2918, Note_on_c, 1, 38, 0
3, 2928, Note_on_c, 1, 38, 127
3, 2976, Note_on_c, 1, 38, 0
3, 2976, Note_on_c, 1, 38, 127
3, 3014, Note_on_c, 1, 38, 0
3, 3024, Note_on_c, 1, 38, 127
3, 3072, Note_on_c, 1, 38, 0
3, 3072, Note_on_c, 1, 38, 127
3, 3110, Note_on_c, 1, 38, 0
3, 3120, Note_on_c, 1, 38, 127
3, 3168, Note_on_c, 1, 38, 0
3, 3168, Note_on_c, 1, 38, 127
3, 3206, Note_on_c, 1, 38, 0
3, 3216, Note_on_c, 1, 38, 127
3, 3264, Note_on_c, 1, 38, 0
3, 3264, Note_on_c, 1, 42, 127
3, 3302, Note_on_c, 1, 42, 0
3, 3312, Note_on_c, 1, 45, 127
3, 3360, Note_on_c, 1, 45, 0
3, 3360, Note_on_c, 1, 42, 127
3, 3398, Note_on_c, 1, 42, 0
3, 3408, Note_on_c, 1, 40, 127
3, 3456, Note_on_c, 1, 40, 0
3, 3456, Note_on_c, 1, 38, 127
3, 3494, Note_on_c, 1, 38, 0
3, 3504, Note_on_c, 1, 38, 127
3, 3552, Note_on_c, 1, 38, 0
3, 3552, Note_on_c, 1, 38, 127
3, 3590, Note_on_c, 1, 38, 0
3, 3600, Note_on_c, 1, 38, 127
3, 3648, Note_on_c, 1, 38, 0
3, 3648, Note_on_c, 1, 38, 127
3, 3686, Note_on_c, 1, 38, 0
3, 3696, Note_on_c, 1, 38, 127
3, 3744, Note_on_c, 1, 38, 0
3, 3744, Note_on_c, 1, 38, 127
3, 3782, Note_on_c, 1, 38, 0
3, 3792, Note_on_c, 1, 38, 127
3, 3840, Note_on_c, 1, 38, 0
3, 3840, Note_on_c, 1, 38, 127
3, 3878, Note_on_c, 1, 38, 0
3, 3888, Note_on_c, 1, 38, 127
3, 3936, Note_on_c, 1, 38, 0
3, 3936, Note_on_c, 1, 38, 127
3, 3974, Note_on_c, 1, 38, 0
3, 3984, Note_on_c, 1, 38, 127
3, 4032, Note_on_c, 1, 38, 0
3, 4032, Note_on_c, 1, 38, 127
3, 4070, Note_on_c, 1, 38, 0
3, 4080, Note_on_c, 1, 38, 127
3, 4128, Note_on_c, 1, 38, 0
3, 4128, Note_on_c, 1, 40, 127
3, 4166, Note_on_c, 1, 40, 0
3, 4176, Note_on_c, 1, 42, 127
3, 4224, Note_on_c, 1, 42, 0
3, 4224, Note_on_c, 1, 43, 127
3, 4262, Note_on_c, 1, 43, 0
3, 4272, Note_on_c, 1, 43, 127
3, 4320, Note_on_c, 1, 43, 0
3, 4320, Note_on_c, 1, 43, 127
3, 4358, Note_on_c, 1, 43, 0
3, 4368, Note_on_c, 1, 43, 127
3, 4416, Note_on_c, 1, 43, 0
3, 4416, Note_on_c, 1, 43, 127
3, 4454, Note_on_c, 1, 43, 0
3, 4464, Note_on_c, 1, 43, 127
3, 4512, Note_on_c, 1, 43, 0
3, 4512, Note_on_c, 1, 43, 127
3, 4550, Note_on_c, 1, 43, 0
3, 4560, Note_on_c, 1, 43, 127
3, 4608, Note_on_c, 1, 43, 0
3, 4608, Note_on_c, 1, 43, 127
3, 4646, Note_on_c, 1, 43, 0
3, 4656, Note_on_c, 1, 43, 127
3, 4704, Note_on_c, 1, 43, 0
3, 4704, Note_on_c, 1, 43, 127
3, 4742, Note_on_c, 1, 43, 0
3, 4752, Note_on_c, 1, 43, 127
3, 4800, Note_on_c, 1, 43, 0
3, 4800, Note_on_c, 1, 43, 127
3, 4838, Note_on_c, 1, 43, 0
3, 4848, Note_on_c, 1, 43, 127
3, 4896, Note_on_c, 1, 43, 0
3, 4896, Note_on_c, 1, 42, 127
3, 4934, Note_on_c, 1, 42, 0
3, 4944, Note_on_c, 1, 40, 127
3, 4992, Note_on_c, 1, 40, 0
3, 4992, Note_on_c, 1, 38, 127
3, 5030, Note_on_c, 1, 38, 0
3, 5040, Note_on_c, 1, 38, 127
3, 5088, Note_on_c, 1, 38, 0
3, 5088, Note_on_c, 1, 38, 127
3, 5126, Note_on_c, 1, 38, 0
3, 5136, Note_on_c, 1, 38, 127
3, 5184, Note_on_c, 1, 38, 0
3, 5184, Note_on_c, 1, 38, 127
3, 5222, Note_on_c, 1, 38, 0
3, 5232, Note_on_c, 1, 38, 127
3, 5280, Note_on_c, 1, 38, 0
3, 5280, Note_on_c, 1, 38, 127
3, 5318, Note_on_c, 1, 38, 0
3, 5328, Note_on_c, 1, 35, 127
3, 5376, Note_on_c, 1, 35, 0
3, 5376, Note_on_c, 1, 33, 127
3, 5414, Note_on_c, 1, 33, 0
3, 5424, Note_on_c, 1, 33, 127
3, 5472, Note_on_c, 1, 33, 0
3, 5472, Note_on_c, 1, 33, 127
3, 5510, Note_on_c, 1, 33, 0
3, 5520, Note_on_c, 1, 33, 127
3, 5568, Note_on_c, 1, 33, 0
3, 5568, Note_on_c, 1, 33, 127
3, 5606, Note_on_c, 1, 33, 0
3, 5616, Note_on_c, 1, 33, 127
3, 5664, Note_on_c, 1, 33, 0
3, 5664, Note_on_c, 1, 33, 127
3, 5702, Note_on_c, 1, 33, 0
3, 5712, Note_on_c, 1, 35, 127
3, 5760, Note_on_c, 1, 35, 0
3, 5760, Note_on_c, 1, 38, 127
3, 5798, Note_on_c, 1, 38, 0
3, 5808, Note_on_c, 1, 38, 127
3, 5856, Note_on_c, 1, 38, 0
3, 5856, Note_on_c, 1, 38, 127
3, 5894, Note_on_c, 1, 38, 0
3, 5904, Note_on_c, 1, 38, 127
3, 5952, Note_on_c, 1, 38, 0
3, 5952, Note_on_c, 1, 38, 127
3, 5990, Note_on_c, 1, 38, 0
3, 6000, Note_on_c, 1, 38, 127
3, 6048, Note_on_c, 1, 38, 0
3, 6048, Note_on_c, 1, 38, 127
3, 6086, Note_on_c, 1, 38, 0
3, 6096, Note_on_c, 1, 38, 127
3, 6144, Note_on_c, 1, 38, 0
3, 6144, Note_on_c, 1, 38, 127
3, 6182, Note_on_c, 1, 38, 0
3, 6192, Note_on_c, 1, 38, 127
3, 6240, Note_on_c, 1, 38, 0
3, 6240, Note_on_c, 1, 38, 127
3, 6278, Note_on_c, 1, 38, 0
3, 6288, Note_on_c, 1, 38, 127
3, 6336, Note_on_c, 1, 38, 0
3, 6336, Note_on_c, 1, 40, 127
3, 6338, Pitch_bend_c, 1, 11008
3, 6340, Pitch_bend_c, 1, 11392
3, 6342, Pitch_bend_c, 1, 11520
3, 6344, Pitch_bend_c, 1, 12032
3, 6346, Pitch_bend_c, 1, 12544
3, 6348, Pitch_bend_c, 1, 14720
3, 6350, Pitch_bend_c, 1, 15104
3, 6352, Pitch_bend_c, 1, 15488
3, 6354, Pitch_bend_c, 1, 15616
3, 6356, Pitch_bend_c, 1, 15872
3, 6358, Pitch_bend_c, 1, 16000
3, 6360, Pitch_bend_c, 1, 16256
3, 6362, Pitch_bend_c, 1, 16383
3, 6372, Pitch_bend_c, 1, 8064
3, 6374, Note_on_c, 1, 40, 0
3, 6384, Note_on_c, 1, 45, 127
3, 6432, Note_on_c, 1, 45, 0
3, 6432, Note_on_c, 1, 42, 127
3, 6470, Note_on_c, 1, 42, 0
3, 6480, Note_on_c, 1, 40, 127
3, 6528, Note_on_c, 1, 40, 0
3, 6528, Note_on_c, 1, 38, 127
3, 6566, Note_on_c, 1, 38, 0
3, 6576, Note_on_c, 1, 38, 127
3, 6624, Note_on_c, 1, 38, 0
3, 6624, Note_on_c, 1, 38, 127
3, 6662, Note_on_c, 1, 38, 0
3, 6672, Note_on_c, 1, 38, 127
3, 6720, Note_on_c, 1, 38, 0
3, 6720, Note_on_c, 1, 38, 127
3, 6758, Note_on_c, 1, 38, 0
3, 6768, Note_on_c, 1, 38, 127
3, 6816, Note_on_c, 1, 38, 0
3, 6816, Note_on_c, 1, 38, 127
3, 6854, Note_on_c, 1, 38, 0
3, 6864, Note_on_c, 1, 38, 127
3, 6912, Note_on_c, 1, 38, 0
3, 6912, Note_on_c, 1, 38, 127
3, 6950, Note_on_c, 1, 38, 0
3, 6960, Note_on_c, 1, 38, 127
3, 7008, Note_on_c, 1, 38, 0
3, 7008, Note_on_c, 1, 38, 127
3, 7046, Note_on_c, 1, 38, 0
3, 7056, Note_on_c, 1, 38, 127
3, 7104, Note_on_c, 1, 38, 0
3, 7104, Note_on_c, 1, 38, 127
3, 7142, Note_on_c, 1, 38, 0
3, 7152, Note_on_c, 1, 38, 127
3, 7200, Note_on_c, 1, 38, 0
3, 7200, Note_on_c, 1, 40, 127
3, 7238, Note_on_c, 1, 40, 0
3, 7248, Note_on_c, 1, 42, 127
3, 7296, Note_on_c, 1, 42, 0
3, 7296, Note_on_c, 1, 43, 127
3, 7334, Note_on_c, 1, 43, 0
3, 7344, Note_on_c, 1, 43, 127
3, 7392, Note_on_c, 1, 43, 0
3, 7392, Note_on_c, 1, 43, 127
3, 7430, Note_on_c, 1, 43, 0
3, 7440, Note_on_c, 1, 43, 127
3, 7488, Note_on_c, 1, 43, 0
3, 7488, Note_on_c, 1, 43, 127
3, 7526, Note_on_c, 1, 43, 0
3, 7536, Note_on_c, 1, 43, 127
3, 7584, Note_on_c, 1, 43, 0
3, 7584, Note_on_c, 1, 43, 127
3, 7622, Note_on_c, 1, 43, 0
3, 7632, Note_on_c, 1, 43, 127
3, 7680, Note_on_c, 1, 43, 0
3, 7680, Note_on_c, 1, 43, 127
3, 7718, Note_on_c, 1, 43, 0
3, 7728, Note_on_c, 1, 43, 127
3, 7776, Note_on_c, 1, 43, 0
3, 7776, Note_on_c, 1, 43, 127
3, 7814, Note_on_c, 1, 43, 0
3, 7824, Note_on_c, 1, 43, 127
3, 7872, Note_on_c, 1, 43, 0
3, 7872, Note_on_c, 1, 43, 127
3, 7910, Note_on_c, 1, 43, 0
3, 7920, Note_on_c, 1, 43, 127
3, 7968, Note_on_c, 1, 43, 0
3, 7968, Note_on_c, 1, 42, 127
3, 8006, Note_on_c, 1, 42, 0
3, 8016, Note_on_c, 1, 40, 127
3, 8064, Note_on_c, 1, 40, 0
3, 8064, Note_on_c, 1, 38, 127
3, 8102, Note_on_c, 1, 38, 0
3, 8112, Note_on_c, 1, 38, 127
3, 8160, Note_on_c, 1, 38, 0
3, 8160, Note_on_c, 1, 38, 127
3, 8198, Note_on_c, 1, 38, 0
3, 8208, Note_on_c, 1, 38, 127
3, 8256, Note_on_c, 1, 38, 0
3, 8256, Note_on_c, 1, 38, 127
3, 8294, Note_on_c, 1, 38, 0
3, 8304, Note_on_c, 1, 38, 127
3, 8352, Note_on_c, 1, 38, 0
3, 8352, Note_on_c, 1, 38, 127
3, 8390, Note_on_c, 1, 38, 0
3, 8400, Note_on_c, 1, 35, 127
3, 8448, Note_on_c, 1, 35, 0
3, 8448, Note_on_c, 1, 33, 127
3, 8486, Note_on_c, 1, 33, 0
3, 8496, Note_on_c, 1, 33, 127
3, 8544, Note_on_c, 1, 33, 0
3, 8544, Note_on_c, 1, 33, 127
3, 8582, Note_on_c, 1, 33, 0
3, 8592, Note_on_c, 1, 33, 127
3, 8640, Note_on_c, 1, 33, 0
3, 8640, Note_on_c, 1, 33, 127
3, 8678, Note_on_c, 1, 33, 0
3, 8688, Note_on_c, 1, 33, 127
3, 8736, Note_on_c, 1, 33, 0
3, 8736, Note_on_c, 1, 33, 127
3, 8774, Note_on_c, 1, 33, 0
3, 8784, Note_on_c, 1, 35, 127
3, 8832, Note_on_c, 1, 35, 0
3, 8832, Note_on_c, 1, 38, 127
3, 8870, Note_on_c, 1, 38, 0
3, 8880, Note_on_c, 1, 38, 127
3, 8928, Note_on_c, 1, 38, 0
3, 8928, Note_on_c, 1, 38, 127
3, 8966, Note_on_c, 1, 38, 0
3, 8976, Note_on_c, 1, 38, 127
3, 9024, Note_on_c, 1, 38, 0
3, 9024, Note_on_c, 1, 38, 127
3, 9062, Note_on_c, 1, 38, 0
3, 9072, Note_on_c, 1, 38, 127
3, 9120, Note_on_c, 1, 38, 0
3, 9120, Note_on_c, 1, 38, 127
3, 9158, Note_on_c, 1, 38, 0
3, 9168, Note_on_c, 1, 38, 127
3, 9216, Note_on_c, 1, 38, 0
3, 9216, Note_on_c, 1, 38, 127
3, 9254, Note_on_c, 1, 38, 0
3, 9264, Note_on_c, 1, 38, 127
3, 9312, Note_on_c, 1, 38, 0
3, 9312, Note_on_c, 1, 38, 127
3, 9350, Note_on_c, 1, 38, 0
3, 9360, Note_on_c, 1, 38, 127
3, 9408, Note_on_c, 1, 38, 0
3, 9408, Note_on_c, 1, 40, 127
3, 9410, Pitch_bend_c, 1, 11008
3, 9412, Pitch_bend_c, 1, 11392
3, 9414, Pitch_bend_c, 1, 11520
3, 9416, Pitch_bend_c, 1, 12032
3, 9418, Pitch_bend_c, 1, 12544
3, 9420, Pitch_bend_c, 1, 14720
3, 9422, Pitch_bend_c, 1, 15104
3, 9424, Pitch_bend_c, 1, 15488
3, 9426, Pitch_bend_c, 1, 15616
3, 9428, Pitch_bend_c, 1, 15872
3, 9430, Pitch_bend_c, 1, 16000
3, 9432, Pitch_bend_c, 1, 16256
3, 9434, Pitch_bend_c, 1, 16383
3, 9444, Pitch_bend_c, 1, 8064
3, 9446, Note_on_c, 1, 40, 0
3, 9456, Note_on_c, 1, 45, 127
3, 9504, Note_on_c, 1, 45, 0
3, 9504, Note_on_c, 1, 42, 127
3, 9542, Note_on_c, 1, 42, 0
3, 9552, Note_on_c, 1, 40, 127
3, 9600, Note_on_c, 1, 40, 0
3, 9600, Note_on_c, 1, 38, 127
3, 9638, Note_on_c, 1, 38, 0
3, 9648, Note_on_c, 1, 38, 127
3, 9696, Note_on_c, 1, 38, 0
3, 9696, Note_on_c, 1, 38, 127
3, 9734, Note_on_c, 1, 38, 0
3, 9744, Note_on_c, 1, 38, 127
3, 9792, Note_on_c, 1, 38, 0
3, 9792, Note_on_c, 1, 38, 127
3, 9830, Note_on_c, 1, 38, 0
3, 9840, Note_on_c, 1, 38, 127
3, 9888, Note_on_c, 1, 38, 0
3, 9888, Note_on_c, 1, 38, 127
3, 9926, Note_on_c, 1, 38, 0
3, 9936, Note_on_c, 1, 38, 127
3, 9984, Note_on_c, 1, 38, 0
3, 9984, Note_on_c, 1, 38, 127
3, 10022, Note_on_c, 1, 38, 0
3, 10032, Note_on_c, 1, 38, 127
3, 10080, Note_on_c, 1, 38, 0
3, 10080, Note_on_c, 1, 38, 127
3, 10118, Note_on_c, 1, 38, 0
3, 10128, Note_on_c, 1, 38, 127
3, 10176, Note_on_c, 1, 38, 0
3, 10176, Note_on_c, 1, 38, 127
3, 10214, Note_on_c, 1, 38, 0
3, 10224, Note_on_c, 1, 38, 127
3, 10272, Note_on_c, 1, 38, 0
3, 10272, Note_on_c, 1, 40, 127
3, 10310, Note_on_c, 1, 40, 0
3, 10320, Note_on_c, 1, 42, 127
3, 10368, Note_on_c, 1, 42, 0
3, 10368, Note_on_c, 1, 43, 127
3, 10406, Note_on_c, 1, 43, 0
3, 10416, Note_on_c, 1, 43, 127
3, 10464, Note_on_c, 1, 43, 0
3, 10464, Note_on_c, 1, 43, 127
3, 10502, Note_on_c, 1, 43, 0
3, 10512, Note_on_c, 1, 43, 127
3, 10560, Note_on_c, 1, 43, 0
3, 10560, Note_on_c, 1, 43, 127
3, 10598, Note_on_c, 1, 43, 0
3, 10608, Note_on_c, 1, 43, 127
3, 10656, Note_on_c, 1, 43, 0
3, 10656, Note_on_c, 1, 43, 127
3, 10694, Note_on_c, 1, 43, 0
3, 10704, Note_on_c, 1, 43, 127
3, 10752, Note_on_c, 1, 43, 0
3, 10752, Note_on_c, 1, 43, 127
3, 10790, Note_on_c, 1, 43, 0
3, 10800, Note_on_c, 1, 43, 127
3, 10848, Note_on_c, 1, 43, 0
3, 10848, Note_on_c, 1, 43, 127
3, 10886, Note_on_c, 1, 43, 0
3, 10896, Note_on_c, 1, 43, 127
3, 10944, Note_on_c, 1, 43, 0
3, 10944, Note_on_c, 1, 43, 127
3, 10982, Note_on_c, 1, 43, 0
3, 10992, Note_on_c, 1, 43, 127
3, 11040, Note_on_c, 1, 43, 0
3, 11040, Note_on_c, 1, 42, 127
3, 11078, Note_on_c, 1, 42, 0
3, 11088, Note_on_c, 1, 40, 127
3, 11136, Note_on_c, 1, 40, 0
3, 11136, Note_on_c, 1, 38, 127
3, 11174, Note_on_c, 1, 38, 0
3, 11184, Note_on_c, 1, 38, 127
3, 11232, Note_on_c, 1, 38, 0
3, 11232, Note_on_c, 1, 38, 127
3, 11270, Note_on_c, 1, 38, 0
3, 11280, Note_on_c, 1, 38, 127
3, 11328, Note_on_c, 1, 38, 0
3, 11328, Note_on_c, 1, 38, 127
3, 11366, Note_on_c, 1, 38, 0
3, 11376, Note_on_c, 1, 38, 127
3, 11424, Note_on_c, 1, 38, 0
3, 11424, Note_on_c, 1, 38, 127
3, 11462, Note_on_c, 1, 38, 0
3, 11472, Note_on_c, 1, 35, 127
3, 11520, Note_on_c, 1, 35, 0
3, 11520, Note_on_c, 1, 33, 127
3, 11558, Note_on_c, 1, 33, 0
3, 11568, Note_on_c, 1, 33, 127
3, 11616, Note_on_c, 1, 33, 0
3, 11616, Note_on_c, 1, 33, 127
3, 11654, Note_on_c, 1, 33, 0
3, 11664, Note_on_c, 1, 33, 127
3, 11712, Note_on_c, 1, 33, 0
3, 11712, Note_on_c, 1, 33, 127
3, 11750, Note_on_c, 1, 33, 0
3, 11760, Note_on_c, 1, 33, 127
3, 11808, Note_on_c, 1, 33, 0
3, 11808, Note_on_c, 1, 33, 127
3, 11846, Note_on_c, 1, 33, 0
3, 11856, Note_on_c, 1, 35, 127
3, 11904, Note_on_c, 1, 35, 0
3, 11904, Note_on_c, 1, 38, 127
3, 11942, Note_on_c, 1, 38, 0
3, 11952, Note_on_c, 1, 38, 127
3, 12000, Note_on_c, 1, 38, 0
3, 12000, Note_on_c, 1, 38, 127
3, 12038, Note_on_c, 1, 38, 0
3, 12048, Note_on_c, 1, 38, 127
3, 12096, Note_on_c, 1, 38, 0
3, 12096, Note_on_c, 1, 38, 127
3, 12134, Note_on_c, 1, 38, 0
3, 12144, Note_on_c, 1, 38, 127
3, 12192, Note_on_c, 1, 38, 0
3, 12192, Note_on_c, 1, 38, 127
3, 12230, Note_on_c, 1, 38, 0
3, 12240, Note_on_c, 1, 38, 127
3, 12288, Note_on_c, 1, 38, 0
3, 12288, Note_on_c, 1, 38, 127
3, 12326, Note_on_c, 1, 38, 0
3, 12336, Note_on_c, 1, 40, 127
3, 12384, Note_on_c, 1, 40, 0
3, 12384, Note_on_c, 1, 42, 127
3, 12422, Note_on_c, 1, 42, 0
3, 12432, Note_on_c, 1, 47, 127
3, 12480, Note_on_c, 1, 47, 0
3, 12480, Note_on_c, 1, 45, 127
3, 12518, Note_on_c, 1, 45, 0
3, 12528, Note_on_c, 1, 42, 127
3, 12576, Note_on_c, 1, 42, 0
3, 12576, Note_on_c, 1, 40, 127
3, 12614, Note_on_c, 1, 40, 0
3, 12624, Note_on_c, 1, 38, 127
3, 12672, Note_on_c, 1, 38, 0
3, 12672, Note_on_c, 1, 38, 127
3, 12710, Note_on_c, 1, 38, 0
3, 12720, Note_on_c, 1, 38, 127
3, 12768, Note_on_c, 1, 38, 0
3, 12768, Note_on_c, 1, 38, 127
3, 12806, Note_on_c, 1, 38, 0
3, 12816, Note_on_c, 1, 38, 127
3, 12864, Note_on_c, 1, 38, 0
3, 12864, Note_on_c, 1, 38, 127
3, 12902, Note_on_c, 1, 38, 0
3, 12912, Note_on_c, 1, 38, 127
3, 12960, Note_on_c, 1, 38, 0
3, 12960, Note_on_c, 1, 38, 127
3, 12998, Note_on_c, 1, 38, 0
3, 13008, Note_on_c, 1, 38, 127
3, 13056, Note_on_c, 1, 38, 0
3, 13056, Note_on_c, 1, 38, 127
3, 13094, Note_on_c, 1, 38, 0
3, 13104, Note_on_c, 1, 38, 127
3, 13152, Note_on_c, 1, 38, 0
3, 13152, Note_on_c, 1, 38, 127
3, 13190, Note_on_c, 1, 38, 0
3, 13200, Note_on_c, 1, 38, 127
3, 13248, Note_on_c, 1, 38, 0
3, 13248, Note_on_c, 1, 38, 127
3, 13286, Note_on_c, 1, 38, 0
3, 13296, Note_on_c, 1, 38, 127
3, 13344, Note_on_c, 1, 38, 0
3, 13344, Note_on_c, 1, 40, 127
3, 13382, Note_on_c, 1, 40, 0
3, 13392, Note_on_c, 1, 42, 127
3, 13440, Note_on_c, 1, 42, 0
3, 13440, Note_on_c, 1, 43, 127
3, 13478, Note_on_c, 1, 43, 0
3, 13488, Note_on_c, 1, 43, 127
3, 13536, Note_on_c, 1, 43, 0
3, 13536, Note_on_c, 1, 43, 127
3, 13574, Note_on_c, 1, 43, 0
3, 13584, Note_on_c, 1, 43, 127
3, 13632, Note_on_c, 1, 43, 0
3, 13632, Note_on_c, 1, 43, 127
3, 13670, Note_on_c, 1, 43, 0
3, 13680, Note_on_c, 1, 43, 127
3, 13728, Note_on_c, 1, 43, 0
3, 13728, Note_on_c, 1, 43, 127
3, 13766, Note_on_c, 1, 43, 0
3, 13776, Note_on_c, 1, 43, 127
3, 13824, Note_on_c, 1, 43, 0
3, 13824, Note_on_c, 1, 43, 127
3, 13862, Note_on_c, 1, 43, 0
3, 13872, Note_on_c, 1, 43, 127
3, 13920, Note_on_c, 1, 43, 0
3, 13920, Note_on_c, 1, 43, 127
3, 13958, Note_on_c, 1, 43, 0
3, 13968, Note_on_c, 1, 43, 127
3, 14016, Note_on_c, 1, 43, 0
3, 14016, Note_on_c, 1, 43, 127
3, 14054, Note_on_c, 1, 43, 0
3, 14064, Note_on_c, 1, 43, 127
3, 14112, Note_on_c, 1, 43, 0
3, 14112, Note_on_c, 1, 42, 127
3, 14150, Note_on_c, 1, 42, 0
3, 14160, Note_on_c, 1, 40, 127
3, 14208, Note_on_c, 1, 40, 0
3, 14208, Note_on_c, 1, 38, 127
3, 14246, Note_on_c, 1, 38, 0
3, 14256, Note_on_c, 1, 38, 127
3, 14304, Note_on_c, 1, 38, 0
3, 14304, Note_on_c, 1, 38, 127
3, 14342, Note_on_c, 1, 38, 0
3, 14352, Note_on_c, 1, 38, 127
3, 14400, Note_on_c, 1, 38, 0
3, 14400, Note_on_c, 1, 38, 127
3, 14438, Note_on_c, 1, 38, 0
3, 14448, Note_on_c, 1, 38, 127
3, 14496, Note_on_c, 1, 38, 0
3, 14496, Note_on_c, 1, 38, 127
3, 14534, Note_on_c, 1, 38, 0
3, 14544, Note_on_c, 1, 35, 127
3, 14592, Note_on_c, 1, 35, 0
3, 14592, Note_on_c, 1, 33, 127
3, 14630, Note_on_c, 1, 33, 0
3, 14640, Note_on_c, 1, 33, 127
3, 14688, Note_on_c, 1, 33, 0
3, 14688, Note_on_c, 1, 33, 127
3, 14726, Note_on_c, 1, 33, 0
3, 14736, Note_on_c, 1, 33, 127
3, 14784, Note_on_c, 1, 33, 0
3, 14784, Note_on_c, 1, 33, 127
3, 14822, Note_on_c, 1, 33, 0
3, 14832, Note_on_c, 1, 33, 127
3, 14880, Note_on_c, 1, 33, 0
3, 14880, Note_on_c, 1, 33, 127
3, 14918, Note_on_c, 1, 33, 0
3, 14928, Note_on_c, 1, 35, 127
3, 14976, Note_on_c, 1, 35, 0
3, 14976, Note_on_c, 1, 38, 127
3, 15014, Note_on_c, 1, 38, 0
3, 15024, Note_on_c, 1, 38, 127
3, 15072, Note_on_c, 1, 38, 0
3, 15072, Note_on_c, 1, 38, 127
3, 15110, Note_on_c, 1, 38, 0
3, 15120, Note_on_c, 1, 38, 127
3, 15168, Note_on_c, 1, 38, 0
3, 15168, Note_on_c, 1, 38, 127
3, 15206, Note_on_c, 1, 38, 0
3, 15216, Note_on_c, 1, 38, 127
3, 15264, Note_on_c, 1, 38, 0
3, 15264, Note_on_c, 1, 38, 127
3, 15302, Note_on_c, 1, 38, 0
3, 15312, Note_on_c, 1, 38, 127
3, 15360, Note_on_c, 1, 38, 0
3, 15360, Note_on_c, 1, 38, 127
3, 15398, Note_on_c, 1, 38, 0
3, 15408, Note_on_c, 1, 38, 127
3, 15456, Note_on_c, 1, 38, 0
3, 15456, Note_on_c, 1, 38, 127
3, 15494, Note_on_c, 1, 38, 0
3, 15504, Note_on_c, 1, 38, 127
3, 15552, Note_on_c, 1, 38, 0
3, 15552, Note_on_c, 1, 38, 127
3, 15590, Note_on_c, 1, 38, 0
3, 15600, Note_on_c, 1, 41, 127
3, 15648, Note_on_c, 1, 41, 0
3, 15648, Note_on_c, 1, 44, 127
3, 15686, Note_on_c, 1, 44, 0
3, 15696, Note_on_c, 1, 47, 127
3, 15744, Note_on_c, 1, 47, 0
3, 15744, Note_on_c, 1, 38, 127
3, 15782, Note_on_c, 1, 38, 0
3, 15792, Note_on_c, 1, 38, 127
3, 15840, Note_on_c, 1, 38, 0
3, 15840, Note_on_c, 1, 38, 127
3, 15878, Note_on_c, 1, 38, 0
3, 15888, Note_on_c, 1, 38, 127
3, 15936, Note_on_c, 1, 38, 0
3, 15936, Note_on_c, 1, 38, 127
3, 15974, Note_on_c, 1, 38, 0
3, 15984, Note_on_c, 1, 38, 127
3, 16032, Note_on_c, 1, 38, 0
3, 16032, Note_on_c, 1, 38, 127
3, 16070, Note_on_c, 1, 38, 0
3, 16080, Note_on_c, 1, 38, 127
3, 16128, Note_on_c, 1, 38, 0
3, 16128, Note_on_c, 1, 38, 127
3, 16166, Note_on_c, 1, 38, 0
3, 16176, Note_on_c, 1, 38, 127
3, 16224, Note_on_c, 1, 38, 0
3, 16224, Note_on_c, 1, 38, 127
3, 16262, Note_on_c, 1, 38, 0
3, 16272, Note_on_c, 1, 38, 127
3, 16320, Note_on_c, 1, 38, 0
3, 16320, Note_on_c, 1, 38, 127
3, 16358, Note_on_c, 1, 38, 0
3, 16368, Note_on_c, 1, 38, 127
3, 16416, Note_on_c, 1, 38, 0
3, 16416, Note_on_c, 1, 40, 127
3, 16454, Note_on_c, 1, 40, 0
3, 16464, Note_on_c, 1, 42, 127
3, 16512, Note_on_c, 1, 42, 0
3, 16512, Note_on_c, 1, 43, 127
3, 16550, Note_on_c, 1, 43, 0
3, 16560, Note_on_c, 1, 43, 127
3, 16608, Note_on_c, 1, 43, 0
3, 16608, Note_on_c, 1, 43, 127
3, 16646, Note_on_c, 1, 43, 0
3, 16656, Note_on_c, 1, 43, 127
3, 16704, Note_on_c, 1, 43, 0
3, 16704, Note_on_c, 1, 43, 127
3, 16742, Note_on_c, 1, 43, 0
3, 16752, Note_on_c, 1, 43, 127
3, 16800, Note_on_c, 1, 43, 0
3, 16800, Note_on_c, 1, 43, 127
3, 16838, Note_on_c, 1, 43, 0
3, 16848, Note_on_c, 1, 43, 127
3, 16896, Note_on_c, 1, 43, 0
3, 16896, Note_on_c, 1, 43, 127
3, 16934, Note_on_c, 1, 43, 0
3, 16944, Note_on_c, 1, 43, 127
3, 16992, Note_on_c, 1, 43, 0
3, 16992, Note_on_c, 1, 43, 127
3, 17030, Note_on_c, 1, 43, 0
3, 17040, Note_on_c, 1, 43, 127
3, 17088, Note_on_c, 1, 43, 0
3, 17088, Note_on_c, 1, 43, 127
3, 17126, Note_on_c, 1, 43, 0
3, 17136, Note_on_c, 1, 43, 127
3, 17184, Note_on_c, 1, 43, 0
3, 17184, Note_on_c, 1, 42, 127
3, 17222, Note_on_c, 1, 42, 0
3, 17232, Note_on_c, 1, 40, 127
3, 17280, Note_on_c, 1, 40, 0
3, 17280, Note_on_c, 1, 38, 127
3, 17318, Note_on_c, 1, 38, 0
3, 17328, Note_on_c, 1, 38, 127
3, 17376, Note_on_c, 1, 38, 0
3, 17376, Note_on_c, 1, 38, 127
3, 17414, Note_on_c, 1, 38, 0
3, 17424, Note_on_c, 1, 38, 127
3, 17472, Note_on_c, 1, 38, 0
3, 17472, Note_on_c, 1, 38, 127
3, 17510, Note_on_c, 1, 38, 0
3, 17520, Note_on_c, 1, 38, 127
3, 17568, Note_on_c, 1, 38, 0
3, 17568, Note_on_c, 1, 38, 127
3, 17606, Note_on_c, 1, 38, 0
3, 17616, Note_on_c, 1, 35, 127
3, 17664, Note_on_c, 1, 35, 0
3, 17664, Note_on_c, 1, 33, 127
3, 17702, Note_on_c, 1, 33, 0
3, 17712, Note_on_c, 1, 33, 127
3, 17760, Note_on_c, 1, 33, 0
3, 17760, Note_on_c, 1, 33, 127
3, 17798, Note_on_c, 1, 33, 0
3, 17808, Note_on_c, 1, 33, 127
3, 17856, Note_on_c, 1, 33, 0
3, 17856, Note_on_c, 1, 33, 127
3, 17894, Note_on_c, 1, 33, 0
3, 17904, Note_on_c, 1, 33, 127
3, 17952, Note_on_c, 1, 33, 0
3, 17952, Note_on_c, 1, 33, 127
3, 17990, Note_on_c, 1, 33, 0
3, 18000, Note_on_c, 1, 35, 127
3, 18048, Note_on_c, 1, 35, 0
3, 18048, Note_on_c, 1, 38, 127
3, 18086, Note_on_c, 1, 38, 0
3, 18096, Note_on_c, 1, 38, 127
3, 18144, Note_on_c, 1, 38, 0
3, 18144, Note_on_c, 1, 38, 127
3, 18182, Note_on_c, 1, 38, 0
3, 18192, Note_on_c, 1, 38, 127
3, 18240, Note_on_c, 1, 38, 0
3, 18240, Note_on_c, 1, 38, 127
3, 18278, Note_on_c, 1, 38, 0
3, 18288, Note_on_c, 1, 38, 127
3, 18336, Note_on_c, 1, 38, 0
3, 18336, Note_on_c, 1, 38, 127
3, 18374, Note_on_c, 1, 38, 0
3, 18384, Note_on_c, 1, 38, 127
3, 18432, Note_on_c, 1, 38, 0
3, 18432, Note_on_c, 1, 38, 127
3, 18470, Note_on_c, 1, 38, 0
3, 18480, Note_on_c, 1, 40, 127
3, 18528, Note_on_c, 1, 40, 0
3, 18528, Note_on_c, 1, 42, 127
3, 18566, Note_on_c, 1, 42, 0
3, 18576, Note_on_c, 1, 47, 127
3, 18624, Note_on_c, 1, 47, 0
3, 18624, Note_on_c, 1, 45, 127
3, 18662, Note_on_c, 1, 45, 0
3, 18672, Note_on_c, 1, 42, 127
3, 18720, Note_on_c, 1, 42, 0
3, 18720, Note_on_c, 1, 40, 127
3, 18758, Note_on_c, 1, 40, 0
3, 18768, Note_on_c, 1, 38, 127
3, 18816, Note_on_c, 1, 38, 0
3, 18816, Note_on_c, 1, 38, 127
3, 18854, Note_on_c, 1, 38, 0
3, 18864, Note_on_c, 1, 38, 127
3, 18912, Note_on_c, 1, 38, 0
3, 18912, Note_on_c, 1, 38, 127
3, 18950, Note_on_c, 1, 38, 0
3, 18960, Note_on_c, 1, 38, 127
3, 19008, Note_on_c, 1, 38, 0
3, 19008, Note_on_c, 1, 38, 127
3, 19046, Note_on_c, 1, 38, 0
3, 19056, Note_on_c, 1, 38, 127
3, 19104, Note_on_c, 1, 38, 0
3, 19104, Note_on_c, 1, 38, 127
3, 19142, Note_on_c, 1, 38, 0
3, 19152, Note_on_c, 1, 38, 127
3, 19200, Note_on_c, 1, 38, 0
3, 19200, Note_on_c, 1, 38, 127
3, 19238, Note_on_c, 1, 38, 0
3, 19248, Note_on_c, 1, 38, 127
3, 19296, Note_on_c, 1, 38, 0
3, 19296, Note_on_c, 1, 38, 127
3, 19334, Note_on_c, 1, 38, 0
3, 19344, Note_on_c, 1, 38, 127
3, 19392, Note_on_c, 1, 38, 0
3, 19392, Note_on_c, 1, 38, 127
3, 19430, Note_on_c, 1, 38, 0
3, 19440, Note_on_c, 1, 38, 127
3, 19488, Note_on_c, 1, 38, 0
3, 19488, Note_on_c, 1, 40, 127
3, 19526, Note_on_c, 1, 40, 0
3, 19536, Note_on_c, 1, 42, 127
3, 19584, Note_on_c, 1, 42, 0
3, 19584, Note_on_c, 1, 43, 127
3, 19622, Note_on_c, 1, 43, 0
3, 19632, Note_on_c, 1, 43, 127
3, 19680, Note_on_c, 1, 43, 0
3, 19680, Note_on_c, 1, 43, 127
3, 19718, Note_on_c, 1, 43, 0
3, 19728, Note_on_c, 1, 43, 127
3, 19776, Note_on_c, 1, 43, 0
3, 19776, Note_on_c, 1, 43, 127
3, 19814, Note_on_c, 1, 43, 0
3, 19824, Note_on_c, 1, 43, 127
3, 19872, Note_on_c, 1, 43, 0
3, 19872, Note_on_c, 1, 43, 127
3, 19910, Note_on_c, 1, 43, 0
3, 19920, Note_on_c, 1, 43, 127
3, 19968, Note_on_c, 1, 43, 0
3, 19968, Note_on_c, 1, 43, 127
3, 20006, Note_on_c, 1, 43, 0
3, 20016, Note_on_c, 1, 43, 127
3, 20064, Note_on_c, 1, 43, 0
3, 20064, Note_on_c, 1, 43, 127
3, 20102, Note_on_c, 1, 43, 0
3, 20112, Note_on_c, 1, 43, 127
3, 20160, Note_on_c, 1, 43, 0
3, 20160, Note_on_c, 1, 43, 127
3, 20198, Note_on_c, 1, 43, 0
3, 20208, Note_on_c, 1, 43, 127
3, 20256, Note_on_c, 1, 43, 0
3, 20256, Note_on_c, 1, 42, 127
3, 20294, Note_on_c, 1, 42, 0
3, 20304, Note_on_c, 1, 40, 127
3, 20352, Note_on_c, 1, 40, 0
3, 20352, Note_on_c, 1, 38, 127
3, 20390, Note_on_c, 1, 38, 0
3, 20400, Note_on_c, 1, 38, 127
3, 20448, Note_on_c, 1, 38, 0
3, 20448, Note_on_c, 1, 38, 127
3, 20486, Note_on_c, 1, 38, 0
3, 20496, Note_on_c, 1, 38, 127
3, 20544, Note_on_c, 1, 38, 0
3, 20544, Note_on_c, 1, 38, 127
3, 20582, Note_on_c, 1, 38, 0
3, 20592, Note_on_c, 1, 38, 127
3, 20640, Note_on_c, 1, 38, 0
3, 20640, Note_on_c, 1, 38, 127
3, 20678, Note_on_c, 1, 38, 0
3, 20688, Note_on_c, 1, 35, 127
3, 20736, Note_on_c, 1, 35, 0
3, 20736, Note_on_c, 1, 33, 127
3, 20774, Note_on_c, 1, 33, 0
3, 20784, Note_on_c, 1, 33, 127
3, 20832, Note_on_c, 1, 33, 0
3, 20832, Note_on_c, 1, 33, 127
3, 20870, Note_on_c, 1, 33, 0
3, 20880, Note_on_c, 1, 33, 127
3, 20928, Note_on_c, 1, 33, 0
3, 20928, Note_on_c, 1, 33, 127
3, 20966, Note_on_c, 1, 33, 0
3, 20976, Note_on_c, 1, 33, 127
3, 21024, Note_on_c, 1, 33, 0
3, 21024, Note_on_c, 1, 33, 127
3, 21062, Note_on_c, 1, 33, 0
3, 21072, Note_on_c, 1, 35, 127
3, 21120, Note_on_c, 1, 35, 0
3, 21120, Note_on_c, 1, 38, 127
3, 21158, Note_on_c, 1, 38, 0
3, 21168, Note_on_c, 1, 38, 127
3, 21216, Note_on_c, 1, 38, 0
3, 21216, Note_on_c, 1, 38, 127
3, 21254, Note_on_c, 1, 38, 0
3, 21264, Note_on_c, 1, 38, 127
3, 21312, Note_on_c, 1, 38, 0
3, 21312, Note_on_c, 1, 38, 127
3, 21350, Note_on_c, 1, 38, 0
3, 21360, Note_on_c, 1, 38, 127
3, 21408, Note_on_c, 1, 38, 0
3, 21408, Note_on_c, 1, 38, 127
3, 21446, Note_on_c, 1, 38, 0
3, 21456, Note_on_c, 1, 38, 127
3, 21504, Note_on_c, 1, 38, 0
3, 21504, Note_on_c, 1, 38, 127
3, 21542, Note_on_c, 1, 38, 0
3, 21552, Note_on_c, 1, 38, 127
3, 21600, Note_on_c, 1, 38, 0
3, 21600, Note_on_c, 1, 38, 127
3, 21638, Note_on_c, 1, 38, 0
3, 21648, Note_on_c, 1, 38, 127
3, 21696, Note_on_c, 1, 38, 0
3, 21696, Note_on_c, 1, 40, 127
3, 21698, Pitch_bend_c, 1, 11008
3, 21700, Pitch_bend_c, 1, 11392
3, 21702, Pitch_bend_c, 1, 11520
3, 21704, Pitch_bend_c, 1, 12032
3, 21706, Pitch_bend_c, 1, 12544
3, 21708, Pitch_bend_c, 1, 14720
3, 21710, Pitch_bend_c, 1, 15104
3, 21712, Pitch_bend_c, 1, 15488
3, 21714, Pitch_bend_c, 1, 15616
3, 21716, Pitch_bend_c, 1, 15872
3, 21718, Pitch_bend_c, 1, 16000
3, 21720, Pitch_bend_c, 1, 16256
3, 21722, Pitch_bend_c, 1, 16383
3, 21732, Pitch_bend_c, 1, 8064
3, 21734, Note_on_c, 1, 40, 0
3, 21744, Note_on_c, 1, 45, 127
3, 21792, Note_on_c, 1, 45, 0
3, 21792, Note_on_c, 1, 42, 127
3, 21830, Note_on_c, 1, 42, 0
3, 21840, Note_on_c, 1, 40, 127
3, 21888, Note_on_c, 1, 40, 0
3, 21888, Note_on_c, 1, 38, 127
3, 21926, Note_on_c, 1, 38, 0
3, 21936, Note_on_c, 1, 38, 127
3, 21984, Note_on_c, 1, 38, 0
3, 21984, Note_on_c, 1, 38, 127
3, 22022, Note_on_c, 1, 38, 0
3, 22032, Note_on_c, 1, 38, 127
3, 22080, Note_on_c, 1, 38, 0
3, 22080, Note_on_c, 1, 38, 127
3, 22118, Note_on_c, 1, 38, 0
3, 22128, Note_on_c, 1, 38, 127
3, 22176, Note_on_c, 1, 38, 0
3, 22176, Note_on_c, 1, 38, 127
3, 22214, Note_on_c, 1, 38, 0
3, 22224, Note_on_c, 1, 38, 127
3, 22272, Note_on_c, 1, 38, 0
3, 22272, Note_on_c, 1, 38, 127
3, 22310, Note_on_c, 1, 38, 0
3, 22320, Note_on_c, 1, 38, 127
3, 22368, Note_on_c, 1, 38, 0
3, 22368, Note_on_c, 1, 38, 127
3, 22406, Note_on_c, 1, 38, 0
3, 22416, Note_on_c, 1, 38, 127
3, 22464, Note_on_c, 1, 38, 0
3, 22464, Note_on_c, 1, 38, 127
3, 22502, Note_on_c, 1, 38, 0
3, 22512, Note_on_c, 1, 38, 127
3, 22560, Note_on_c, 1, 38, 0
3, 22560, Note_on_c, 1, 40, 127
3, 22598, Note_on_c, 1, 40, 0
3, 22608, Note_on_c, 1, 42, 127
3, 22656, Note_on_c, 1, 42, 0
3, 22656, Note_on_c, 1, 43, 127
3, 22694, Note_on_c, 1, 43, 0
3, 22704, Note_on_c, 1, 43, 127
3, 22752, Note_on_c, 1, 43, 0
3, 22752, Note_on_c, 1, 43, 127
3, 22790, Note_on_c, 1, 43, 0
3, 22800, Note_on_c, 1, 43, 127
3, 22848, Note_on_c, 1, 43, 0
3, 22848, Note_on_c, 1, 43, 127
3, 22886, Note_on_c, 1, 43, 0
3, 22896, Note_on_c, 1, 43, 127
3, 22944, Note_on_c, 1, 43, 0
3, 22944, Note_on_c, 1, 43, 127
3, 22982, Note_on_c, 1, 43, 0
3, 22992, Note_on_c, 1, 43, 127
3, 23040, Note_on_c, 1, 43, 0
3, 23040, Note_on_c, 1, 43, 127
3, 23078, Note_on_c, 1, 43, 0
3, 23088, Note_on_c, 1, 43, 127
3, 23136, Note_on_c, 1, 43, 0
3, 23136, Note_on_c, 1, 43, 127
3, 23174, Note_on_c, 1, 43, 0
3, 23184, Note_on_c, 1, 43, 127
3, 23232, Note_on_c, 1, 43, 0
3, 23232, Note_on_c, 1, 43, 127
3, 23270, Note_on_c, 1, 43, 0
3, 23280, Note_on_c, 1, 43, 127
3, 23328, Note_on_c, 1, 43, 0
3, 23328, Note_on_c, 1, 42, 127
3, 23366, Note_on_c, 1, 42, 0
3, 23376, Note_on_c, 1, 40, 127
3, 23424, Note_on_c, 1, 40, 0
3, 23424, Note_on_c, 1, 38, 127
3, 23462, Note_on_c, 1, 38, 0
3, 23472, Note_on_c, 1, 38, 127
3, 23520, Note_on_c, 1, 38, 0
3, 23520, Note_on_c, 1, 38, 127
3, 23558, Note_on_c, 1, 38, 0
3, 23568, Note_on_c, 1, 38, 127
3, 23616, Note_on_c, 1, 38, 0
3, 23616, Note_on_c, 1, 38, 127
3, 23654, Note_on_c, 1, 38, 0
3, 23664, Note_on_c, 1, 38, 127
3, 23712, Note_on_c, 1, 38, 0
3, 23712, Note_on_c, 1, 38, 127
3, 23750, Note_on_c, 1, 38, 0
3, 23760, Note_on_c, 1, 35, 127
3, 23808, Note_on_c, 1, 35, 0
3, 23808, Note_on_c, 1, 33, 127
3, 23846, Note_on_c, 1, 33, 0
3, 23856, Note_on_c, 1, 33, 127
3, 23904, Note_on_c, 1, 33, 0
3, 23904, Note_on_c, 1, 33, 127
3, 23942, Note_on_c, 1, 33, 0
3, 23952, Note_on_c, 1, 33, 127
3, 24000, Note_on_c, 1, 33, 0
3, 24000, Note_on_c, 1, 33, 127
3, 24038, Note_on_c, 1, 33, 0
3, 24048, Note_on_c, 1, 33, 127
3, 24096, Note_on_c, 1, 33, 0
3, 24096, Note_on_c, 1, 33, 127
3, 24134, Note_on_c, 1, 33, 0
3, 24144, Note_on_c, 1, 35, 127
3, 24192, Note_on_c, 1, 35, 0
3, 24192, Note_on_c, 1, 38, 127
3, 24230, Note_on_c, 1, 38, 0
3, 24240, Note_on_c, 1, 38, 127
3, 24288, Note_on_c, 1, 38, 0
3, 24288, Note_on_c, 1, 38, 127
3, 24326, Note_on_c, 1, 38, 0
3, 24336, Note_on_c, 1, 38, 127
3, 24384, Note_on_c, 1, 38, 0
3, 24384, Note_on_c, 1, 38, 127
3, 24422, Note_on_c, 1, 38, 0
3, 24432, Note_on_c, 1, 38, 127
3, 24480, Note_on_c, 1, 38, 0
3, 24480, Note_on_c, 1, 38, 127
3, 24518, Note_on_c, 1, 38, 0
3, 24528, Note_on_c, 1, 38, 127
3, 24576, Note_on_c, 1, 38, 0
3, 24576, Note_on_c, 1, 38, 127
3, 24614, Note_on_c, 1, 38, 0
3, 24624, Note_on_c, 1, 40, 127
3, 24672, Note_on_c, 1, 40, 0
3, 24672, Note_on_c, 1, 42, 127
3, 24710, Note_on_c, 1, 42, 0
3, 24720, Note_on_c, 1, 47, 127
3, 24768, Note_on_c, 1, 47, 0
3, 24768, Note_on_c, 1, 45, 127
3, 24806, Note_on_c, 1, 45, 0
3, 24816, Note_on_c, 1, 42, 127
3, 24864, Note_on_c, 1, 42, 0
3, 24864, Note_on_c, 1, 40, 127
3, 24902, Note_on_c, 1, 40, 0
3, 24912, Note_on_c, 1, 38, 127
3, 24960, Note_on_c, 1, 38, 0
3, 24960, Note_on_c, 1, 38, 100
3, 25008, Note_on_c, 1, 38, 0
3, 27648, Note_on_c, 1, 30, 100
3, 27696, Note_on_c, 1, 30, 0
3, 27696, Note_on_c, 1, 31, 100
3, 27744, Note_on_c, 1, 31, 0
3, 27744, Note_on_c, 1, 32, 100
3, 27792, Note_on_c, 1, 32, 0
3, 27792, Note_on_c, 1, 33, 100
3, 27840, Note_on_c, 1, 33, 0
3, 27840, Note_on_c, 1, 34, 100
3, 27888, Note_on_c, 1, 34, 0
3, 27888, Note_on_c, 1, 35, 100
3, 27936, Note_on_c, 1, 35, 0
3, 27936, Note_on_c, 1, 36, 100
3, 27984, Note_on_c, 1, 36, 0
3, 27984, Note_on_c, 1, 37, 100
3, 28032, Note_on_c, 1, 37, 0
3, 28032, Note_on_c, 1, 38, 127
3, 28070, Note_on_c, 1, 38, 0
3, 28080, Note_on_c, 1, 38, 127
3, 28128, Note_on_c, 1, 38, 0
3, 28128, Note_on_c, 1, 38, 127
3, 28166, Note_on_c, 1, 38, 0
3, 28176, Note_on_c, 1, 38, 127
3, 28224, Note_on_c, 1, 38, 0
3, 28224, Note_on_c, 1, 38, 127
3, 28262, Note_on_c, 1, 38, 0
3, 28272, Note_on_c, 1, 38, 127
3, 28320, Note_on_c, 1, 38, 0
3, 28320, Note_on_c, 1, 38, 127
3, 28358, Note_on_c, 1, 38, 0
3, 28368, Note_on_c, 1, 38, 127
3, 28416, Note_on_c, 1, 38, 0
3, 28416, Note_on_c, 1, 38, 127
3, 28454, Note_on_c, 1, 38, 0
3, 28464, Note_on_c, 1, 38, 127
3, 28512, Note_on_c, 1, 38, 0
3, 28512, Note_on_c, 1, 38, 127
3, 28550, Note_on_c, 1, 38, 0
3, 28560, Note_on_c, 1, 38, 127
3, 28608, Note_on_c, 1, 38, 0
3, 28608, Note_on_c, 1, 38, 127
3, 28646, Note_on_c, 1, 38, 0
3, 28656, Note_on_c, 1, 38, 127
3, 28704, Note_on_c, 1, 38, 0
3, 28704, Note_on_c, 1, 40, 127
3, 28742, Note_on_c, 1, 40, 0
3, 28752, Note_on_c, 1, 42, 127
3, 28800, Note_on_c, 1, 42, 0
3, 28800, Note_on_c, 1, 43, 127
3, 28838, Note_on_c, 1, 43, 0
3, 28848, Note_on_c, 1, 43, 127
3, 28896, Note_on_c, 1, 43, 0
3, 28896, Note_on_c, 1, 43, 127
3, 28934, Note_on_c, 1, 43, 0
3, 28944, Note_on_c, 1, 43, 127
3, 28992, Note_on_c, 1, 43, 0
3, 28992, Note_on_c, 1, 43, 127
3, 29030, Note_on_c, 1, 43, 0
3, 29040, Note_on_c, 1, 43, 127
3, 29088, Note_on_c, 1, 43, 0
3, 29088, Note_on_c, 1, 43, 127
3, 29126, Note_on_c, 1, 43, 0
3, 29136, Note_on_c, 1, 43, 127
3, 29184, Note_on_c, 1, 43, 0
3, 29184, Note_on_c, 1, 43, 127
3, 29222, Note_on_c, 1, 43, 0
3, 29232, Note_on_c, 1, 43, 127
3, 29280, Note_on_c, 1, 43, 0
3, 29280, Note_on_c, 1, 43, 127
3, 29318, Note_on_c, 1, 43, 0
3, 29328, Note_on_c, 1, 43, 127
3, 29376, Note_on_c, 1, 43, 0
3, 29376, Note_on_c, 1, 43, 127
3, 29414, Note_on_c, 1, 43, 0
3, 29424, Note_on_c, 1, 43, 127
3, 29472, Note_on_c, 1, 43, 0
3, 29472, Note_on_c, 1, 42, 127
3, 29510, Note_on_c, 1, 42, 0
3, 29520, Note_on_c, 1, 40, 127
3, 29568, Note_on_c, 1, 40, 0
3, 29568, Note_on_c, 1, 38, 127
3, 29606, Note_on_c, 1, 38, 0
3, 29616, Note_on_c, 1, 38, 127
3, 29664, Note_on_c, 1, 38, 0
3, 29664, Note_on_c, 1, 38, 127
3, 29702, Note_on_c, 1, 38, 0
3, 29712, Note_on_c, 1, 38, 127
3, 29760, Note_on_c, 1, 38, 0
3, 29760, Note_on_c, 1, 38, 127
3, 29798, Note_on_c, 1, 38, 0
3, 29808, Note_on_c, 1, 38, 127
3, 29856, Note_on_c, 1, 38, 0
3, 29856, Note_on_c, 1, 38, 127
3, 29894, Note_on_c, 1, 38, 0
3, 29904, Note_on_c, 1, 35, 127
3, 29952, Note_on_c, 1, 35, 0
3, 29952, Note_on_c, 1, 33, 127
3, 29990, Note_on_c, 1, 33, 0
3, 30000, Note_on_c, 1, 33, 127
3, 30048, Note_on_c, 1, 33, 0
3, 30048, Note_on_c, 1, 33, 127
3, 30086, Note_on_c, 1, 33, 0
3, 30096, Note_on_c, 1, 33, 127
3, 30144, Note_on_c, 1, 33, 0
3, 30144, Note_on_c, 1, 33, 127
3, 30182, Note_on_c, 1, 33, 0
3, 30192, Note_on_c, 1, 33, 127
3, 30240, Note_on_c, 1, 33, 0
3, 30240, Note_on_c, 1, 33, 127
3, 30278, Note_on_c, 1, 33, 0
3, 30288, Note_on_c, 1, 35, 127
3, 30336, Note_on_c, 1, 35, 0
3, 30336, Note_on_c, 1, 38, 127
3, 30374, Note_on_c, 1, 38, 0
3, 30384, Note_on_c, 1, 38, 127
3, 30432, Note_on_c, 1, 38, 0
3, 30432, Note_on_c, 1, 38, 127
3, 30470, Note_on_c, 1, 38, 0
3, 30480, Note_on_c, 1, 38, 127
3, 30528, Note_on_c, 1, 38, 0
3, 30528, Note_on_c, 1, 38, 127
3, 30566, Note_on_c, 1, 38, 0
3, 30576, Note_on_c, 1, 38, 127
3, 30624, Note_on_c, 1, 38, 0
3, 30624, Note_on_c, 1, 38, 127
3, 30662, Note_on_c, 1, 38, 0
3, 30672, Note_on_c, 1, 38, 127
3, 30720, Note_on_c, 1, 38, 0
3, 30720, Note_on_c, 1, 38, 127
3, 30758, Note_on_c, 1, 38, 0
3, 30768, Note_on_c, 1, 40, 127
3, 30816, Note_on_c, 1, 40, 0
3, 30816, Note_on_c, 1, 42, 127
3, 30854, Note_on_c, 1, 42, 0
3, 30864, Note_on_c, 1, 47, 127
3, 30912, Note_on_c, 1, 47, 0
3, 30912, Note_on_c, 1, 45, 127
3, 30950, Note_on_c, 1, 45, 0
3, 30960, Note_on_c, 1, 42, 127
3, 31008, Note_on_c, 1, 42, 0
3, 31008, Note_on_c, 1, 40, 127
3, 31046, Note_on_c, 1, 40, 0
3, 31056, Note_on_c, 1, 38, 127
3, 31104, Note_on_c, 1, 38, 0
3, 31104, Note_on_c, 1, 38, 127
3, 31142, Note_on_c, 1, 38, 0
3, 31152, Note_on_c, 1, 38, 127
3, 31200, Note_on_c, 1, 38, 0
3, 31200, Note_on_c, 1, 38, 127
3, 31238, Note_on_c, 1, 38, 0
3, 31248, Note_on_c, 1, 38, 127
3, 31296, Note_on_c, 1, 38, 0
3, 31296, Note_on_c, 1, 38, 127
3, 31334, Note_on_c, 1, 38, 0
3, 31344, Note_on_c, 1, 38, 127
3, 31392, Note_on_c, 1, 38, 0
3, 31392, Note_on_c, 1, 38, 127
3, 31430, Note_on_c, 1, 38, 0
3, 31440, Note_on_c, 1, 38, 127
3, 31488, Note_on_c, 1, 38, 0
3, 31488, Note_on_c, 1, 38, 127
3, 31526, Note_on_c, 1, 38, 0
3, 31536, Note_on_c, 1, 38, 127
3, 31584, Note_on_c, 1, 38, 0
3, 31584, Note_on_c, 1, 38, 127
3, 31622, Note_on_c, 1, 38, 0
3, 31632, Note_on_c, 1, 38, 127
3, 31680, Note_on_c, 1, 38, 0
3, 31680, Note_on_c, 1, 38, 127
3, 31718, Note_on_c, 1, 38, 0
3, 31728, Note_on_c, 1, 38, 127
3, 31776, Note_on_c, 1, 38, 0
3, 31776, Note_on_c, 1, 40, 127
3, 31814, Note_on_c, 1, 40, 0
3, 31824, Note_on_c, 1, 42, 127
3, 31872, Note_on_c, 1, 42, 0
3, 31872, Note_on_c, 1, 43, 127
3, 31910, Note_on_c, 1, 43, 0
3, 31920, Note_on_c, 1, 43, 127
3, 31968, Note_on_c, 1, 43, 0
3, 31968, Note_on_c, 1, 43, 127
3, 32006, Note_on_c, 1, 43, 0
3, 32016, Note_on_c, 1, 43, 127
3, 32064, Note_on_c, 1, 43, 0
3, 32064, Note_on_c, 1, 43, 127
3, 32102, Note_on_c, 1, 43, 0
3, 32112, Note_on_c, 1, 43, 127
3, 32160, Note_on_c, 1, 43, 0
3, 32160, Note_on_c, 1, 43, 127
3, 32198, Note_on_c, 1, 43, 0
3, 32208, Note_on_c, 1, 43, 127
3, 32256, Note_on_c, 1, 43, 0
3, 32256, Note_on_c, 1, 43, 127
3, 32294, Note_on_c, 1, 43, 0
3, 32304, Note_on_c, 1, 43, 127
3, 32352, Note_on_c, 1, 43, 0
3, 32352, Note_on_c, 1, 43, 127
3, 32390, Note_on_c, 1, 43, 0
3, 32400, Note_on_c, 1, 43, 127
3, 32448, Note_on_c, 1, 43, 0
3, 32448, Note_on_c, 1, 43, 127
3, 32486, Note_on_c, 1, 43, 0
3, 32496, Note_on_c, 1, 43, 127
3, 32544, Note_on_c, 1, 43, 0
3, 32544, Note_on_c, 1, 42, 127
3, 32582, Note_on_c, 1, 42, 0
3, 32592, Note_on_c, 1, 40, 127
3, 32640, Note_on_c, 1, 40, 0
3, 32640, Note_on_c, 1, 38, 127
3, 32678, Note_on_c, 1, 38, 0
3, 32688, Note_on_c, 1, 38, 127
3, 32736, Note_on_c, 1, 38, 0
3, 32736, Note_on_c, 1, 38, 127
3, 32774, Note_on_c, 1, 38, 0
3, 32784, Note_on_c, 1, 38, 127
3, 32832, Note_on_c, 1, 38, 0
3, 32832, Note_on_c, 1, 38, 127
3, 32870, Note_on_c, 1, 38, 0
3, 32880, Note_on_c, 1, 38, 127
3, 32928, Note_on_c, 1, 38, 0
3, 32928, Note_on_c, 1, 38, 127
3, 32966, Note_on_c, 1, 38, 0
3, 32976, Note_on_c, 1, 35, 127
3, 33024, Note_on_c, 1, 35, 0
3, 33024, Note_on_c, 1, 33, 127
3, 33062, Note_on_c, 1, 33, 0
3, 33072, Note_on_c, 1, 33, 127
3, 33120, Note_on_c, 1, 33, 0
3, 33120, Note_on_c, 1, 33, 127
3, 33158, Note_on_c, 1, 33, 0
3, 33168, Note_on_c, 1, 33, 127
3, 33216, Note_on_c, 1, 33, 0
3, 33216, Note_on_c, 1, 33, 127
3, 33254, Note_on_c, 1, 33, 0
3, 33264, Note_on_c, 1, 33, 127
3, 33312, Note_on_c, 1, 33, 0
3, 33312, Note_on_c, 1, 33, 127
3, 33350, Note_on_c, 1, 33, 0
3, 33360, Note_on_c, 1, 35, 127
3, 33408, Note_on_c, 1, 35, 0
3, 33408, Note_on_c, 1, 38, 127
3, 33446, Note_on_c, 1, 38, 0
3, 33456, Note_on_c, 1, 38, 127
3, 33504, Note_on_c, 1, 38, 0
3, 33504, Note_on_c, 1, 38, 127
3, 33542, Note_on_c, 1, 38, 0
3, 33552, Note_on_c, 1, 38, 127
3, 33600, Note_on_c, 1, 38, 0
3, 33600, Note_on_c, 1, 38, 127
3, 33638, Note_on_c, 1, 38, 0
3, 33648, Note_on_c, 1, 38, 127
3, 33696, Note_on_c, 1, 38, 0
3, 33696, Note_on_c, 1, 38, 127
3, 33734, Note_on_c, 1, 38, 0
3, 33744, Note_on_c, 1, 38, 127
3, 33792, Note_on_c, 1, 38, 0
3, 33792, Note_on_c, 1, 38, 127
3, 33830, Note_on_c, 1, 38, 0
3, 33840, Note_on_c, 1, 38, 127
3, 33888, Note_on_c, 1, 38, 0
3, 33888, Note_on_c, 1, 38, 127
3, 33926, Note_on_c, 1, 38, 0
3, 33936, Note_on_c, 1, 38, 127
3, 33984, Note_on_c, 1, 38, 0
3, 33984, Note_on_c, 1, 38, 127
3, 34022, Note_on_c, 1, 38, 0
3, 34032, Note_on_c, 1, 38, 127
3, 34080, Note_on_c, 1, 38, 0
3, 34080, Note_on_c, 1, 38, 127
3, 34118, Note_on_c, 1, 38, 0
3, 34128, Note_on_c, 1, 38, 127
3, 34176, Note_on_c, 1, 38, 0
3, 34176, Note_on_c, 1, 38, 127
3, 34214, Note_on_c, 1, 38, 0
3, 34224, Note_on_c, 1, 38, 127
3, 34272, Note_on_c, 1, 38, 0
3, 34272, Note_on_c, 1, 38, 127
3, 34310, Note_on_c, 1, 38, 0
3, 34320, Note_on_c, 1, 38, 127
3, 34368, Note_on_c, 1, 38, 0
3, 34368, Note_on_c, 1, 38, 127
3, 34406, Note_on_c, 1, 38, 0
3, 34416, Note_on_c, 1, 38, 127
3, 34464, Note_on_c, 1, 38, 0
3, 34464, Note_on_c, 1, 38, 127
3, 34502, Note_on_c, 1, 38, 0
3, 34512, Note_on_c, 1, 35, 127
3, 34560, Note_on_c, 1, 35, 0
3, 34560, Note_on_c, 1, 33, 127
3, 34598, Note_on_c, 1, 33, 0
3, 34608, Note_on_c, 1, 33, 127
3, 34656, Note_on_c, 1, 33, 0
3, 34656, Note_on_c, 1, 33, 127
3, 34694, Note_on_c, 1, 33, 0
3, 34704, Note_on_c, 1, 33, 127
3, 34752, Note_on_c, 1, 33, 0
3, 34752, Note_on_c, 1, 33, 127
3, 34790, Note_on_c, 1, 33, 0
3, 34800, Note_on_c, 1, 33, 127
3, 34848, Note_on_c, 1, 33, 0
3, 34848, Note_on_c, 1, 33, 127
3, 34886, Note_on_c, 1, 33, 0
3, 34896, Note_on_c, 1, 35, 127
3, 34944, Note_on_c, 1, 35, 0
3, 34944, Note_on_c, 1, 38, 127
3, 34982, Note_on_c, 1, 38, 0
3, 34992, Note_on_c, 1, 38, 127
3, 35040, Note_on_c, 1, 38, 0
3, 35040, Note_on_c, 1, 38, 127
3, 35078, Note_on_c, 1, 38, 0
3, 35088, Note_on_c, 1, 38, 127
3, 35136, Note_on_c, 1, 38, 0
3, 35136, Note_on_c, 1, 38, 127
3, 35174, Note_on_c, 1, 38, 0
3, 35184, Note_on_c, 1, 38, 127
3, 35232, Note_on_c, 1, 38, 0
3, 35232, Note_on_c, 1, 38, 127
3, 35270, Note_on_c, 1, 38, 0
3, 35280, Note_on_c, 1, 38, 127
3, 35328, Note_on_c, 1, 38, 0
3, 35328, Note_on_c, 1, 38, 127
3, 35366, Note_on_c, 1, 38, 0
3, 35376, Note_on_c, 1, 38, 127
3, 35424, Note_on_c, 1, 38, 0
3, 35424, Note_on_c, 1, 38, 127
3, 35462, Note_on_c, 1, 38, 0
3, 35472, Note_on_c, 1, 38, 127
3, 35520, Note_on_c, 1, 38, 0
3, 35520, Note_on_c, 1, 38, 127
3, 35558, Note_on_c, 1, 38, 0
3, 35568, Note_on_c, 1, 38, 127
3, 35616, Note_on_c, 1, 38, 0
3, 35616, Note_on_c, 1, 38, 127
3, 35654, Note_on_c, 1, 38, 0
3, 35664, Note_on_c, 1, 38, 127
3, 35712, Note_on_c, 1, 38, 0
3, 35712, Note_on_c, 1, 38, 127
3, 35750, Note_on_c, 1, 38, 0
3, 35760, Note_on_c, 1, 41, 127
3, 35808, Note_on_c, 1, 41, 0
3, 35808, Note_on_c, 1, 43, 127
3, 35846, Note_on_c, 1, 43, 0
3, 35856, Note_on_c, 1, 47, 127
3, 35904, Note_on_c, 1, 47, 0
3, 35904, Note_on_c, 1, 45, 127
3, 35942, Note_on_c, 1, 45, 0
3, 35952, Note_on_c, 1, 42, 127
3, 36000, Note_on_c, 1, 42, 0
3, 36000, Note_on_c, 1, 40, 127
3, 36038, Note_on_c, 1, 40, 0
3, 36048, Note_on_c, 1, 38, 127
3, 36096, Note_on_c, 1, 38, 0
3, 36096, Note_on_c, 1, 45, 127
3, 36134, Note_on_c, 1, 45, 0
3, 36144, Note_on_c, 1, 43, 127
3, 36192, Note_on_c, 1, 43, 0
3, 36192, Note_on_c, 1, 38, 127
3, 36230, Note_on_c, 1, 38, 0
3, 36240, Note_on_c, 1, 38, 127
3, 36864, Note_on_c, 1, 38, 0
3, 36864, End_track
4, 0, Start_track
4, 0, MIDI_port, 0
4, 0, Title_t, "Clean Lead Guitar 1"
4, 0, Program_c, 2, 27
4, 0, Control_c, 2, 7, 64
4, 1, Program_c, 2, 27
4, 4, Control_c, 2, 7, 64
4, 4, Control_c, 2, 91, 60
4, 769, Pitch_bend_c, 2, 8064
4, 769, Note_on_c, 2, 64, 127
4, 772, Pitch_bend_c, 2, 8320
4, 774, Pitch_bend_c, 2, 8448
4, 777, Pitch_bend_c, 2, 8704
4, 780, Pitch_bend_c, 2, 8832
4, 788, Pitch_bend_c, 2, 9088
4, 790, Pitch_bend_c, 2, 9344
4, 791, Pitch_bend_c, 2, 9472
4, 793, Pitch_bend_c, 2, 9600
4, 794, Pitch_bend_c, 2, 9856
4, 795, Pitch_bend_c, 2, 9984
4, 797, Pitch_bend_c, 2, 10112
4, 800, Pitch_bend_c, 2, 10624
4, 801, Pitch_bend_c, 2, 11008
4, 802, Pitch_bend_c, 2, 11264
4, 804, Pitch_bend_c, 2, 11392
4, 805, Pitch_bend_c, 2, 11648
4, 808, Pitch_bend_c, 2, 12416
4, 809, Pitch_bend_c, 2, 12672
4, 811, Pitch_bend_c, 2, 14592
4, 813, Pitch_bend_c, 2, 15360
4, 815, Pitch_bend_c, 2, 16383
4, 845, Note_on_c, 2, 64, 0
4, 848, Pitch_bend_c, 2, 8704
4, 851, Pitch_bend_c, 2, 8576
4, 855, Pitch_bend_c, 2, 8448
4, 858, Pitch_bend_c, 2, 8192
4, 865, Note_on_c, 2, 69, 127
4, 905, Note_on_c, 2, 69, 0
4, 912, Note_on_c, 2, 66, 127
4, 925, Pitch_bend_c, 2, 8064
4, 932, Pitch_bend_c, 2, 7936
4, 934, Pitch_bend_c, 2, 7680
4, 936, Pitch_bend_c, 2, 7552
4, 937, Pitch_bend_c, 2, 7296
4, 940, Pitch_bend_c, 2, 6784
4, 941, Pitch_bend_c, 2, 6528
4, 943, Pitch_bend_c, 2, 5504
4, 944, Pitch_bend_c, 2, 4224
4, 946, Pitch_bend_c, 2, 3072
4, 947, Pitch_bend_c, 2, 2688
4, 948, Pitch_bend_c, 2, 2048
4, 950, Pitch_bend_c, 2, 1280
4, 951, Pitch_bend_c, 2, 1152
4, 953, Pitch_bend_c, 2, 1024
4, 954, Pitch_bend_c, 2, 896
4, 957, Pitch_bend_c, 2, 768
4, 958, Pitch_bend_c, 2, 640
4, 961, Pitch_bend_c, 2, 512
4, 964, Pitch_bend_c, 2, 384
4, 972, Pitch_bend_c, 2, 256
4, 983, Pitch_bend_c, 2, 8192
4, 984, Note_on_c, 2, 66, 0
4, 1008, Note_on_c, 2, 62, 127
4, 1056, Note_on_c, 2, 62, 0
4, 1057, Note_on_c, 2, 59, 127
4, 1097, Note_on_c, 2, 59, 0
4, 1104, Note_on_c, 2, 57, 127
4, 1144, Note_on_c, 2, 57, 0
4, 1152, Note_on_c, 2, 66, 127
4, 1152, Note_on_c, 2, 62, 127
4, 1192, Note_on_c, 2, 62, 0
4, 1192, Note_on_c, 2, 66, 0
4, 1200, Note_on_c, 2, 50, 127
4, 1248, Note_on_c, 2, 50, 0
4, 1248, Note_on_c, 2, 59, 127
4, 1248, Note_on_c, 2, 62, 127
4, 1288, Note_on_c, 2, 62, 0
4, 1288, Note_on_c, 2, 59, 0
4, 1296, Note_on_c, 2, 50, 127
4, 1344, Note_on_c, 2, 50, 0
4, 1344, Note_on_c, 2, 62, 127
4, 1344, Note_on_c, 2, 66, 127
4, 1381, Note_on_c, 2, 62, 0
4, 1382, Note_on_c, 2, 66, 0
4, 1392, Note_on_c, 2, 50, 127
4, 1440, Note_on_c, 2, 50, 0
4, 1440, Note_on_c, 2, 59, 127
4, 1440, Note_on_c, 2, 62, 127
4, 1478, Note_on_c, 2, 59, 0
4, 1480, Note_on_c, 2, 62, 0
4, 1488, Note_on_c, 2, 50, 127
4, 1536, Note_on_c, 2, 50, 0
4, 1536, Note_on_c, 2, 62, 127
4, 1538, Note_on_c, 2, 66, 127
4, 1575, Note_on_c, 2, 62, 0
4, 1577, Note_on_c, 2, 66, 0
4, 1584, Note_on_c, 2, 50, 127
4, 1623, Note_on_c, 2, 50, 0
4, 1633, Note_on_c, 2, 64, 127
4, 1634, Pitch_bend_c, 2, 9472
4, 1635, Pitch_bend_c, 2, 9984
4, 1636, Pitch_bend_c, 2, 10368
4, 1637, Pitch_bend_c, 2, 10752
4, 1639, Pitch_bend_c, 2, 11264
4, 1640, Pitch_bend_c, 2, 11648
4, 1641, Pitch_bend_c, 2, 12032
4, 1642, Pitch_bend_c, 2, 12544
4, 1643, Pitch_bend_c, 2, 12928
4, 1644, Pitch_bend_c, 2, 13312
4, 1646, Pitch_bend_c, 2, 13824
4, 1647, Pitch_bend_c, 2, 14208
4, 1648, Pitch_bend_c, 2, 14592
4, 1649, Pitch_bend_c, 2, 15104
4, 1650, Pitch_bend_c, 2, 15488
4, 1651, Pitch_bend_c, 2, 15872
4, 1653, Pitch_bend_c, 2, 16383
4, 1655, Pitch_bend_c, 2, 16128
4, 1672, Pitch_bend_c, 2, 8320
4, 1673, Note_on_c, 2, 64, 0
4, 1676, Pitch_bend_c, 2, 8192
4, 1680, Note_on_c, 2, 64, 127
4, 1720, Note_on_c, 2, 64, 0
4, 1729, Note_on_c, 2, 62, 127
4, 1769, Note_on_c, 2, 62, 0
4, 1776, Note_on_c, 2, 59, 127
4, 1816, Note_on_c, 2, 59, 0
4, 1824, Note_on_c, 2, 57, 127
4, 1864, Note_on_c, 2, 57, 0
4, 1872, Note_on_c, 2, 54, 127
4, 1912, Note_on_c, 2, 54, 0
4, 1920, Note_on_c, 2, 50, 127
4, 2016, Note_on_c, 2, 50, 0
4, 2064, Note_on_c, 2, 69, 127
4, 2064, Note_on_c, 2, 74, 127
4, 2208, Note_on_c, 2, 74, 0
4, 2304, Note_on_c, 2, 69, 0
4, 2352, Note_on_c, 2, 64, 127
4, 2357, Pitch_bend_c, 2, 8192
4, 2360, Pitch_bend_c, 2, 8448
4, 2367, Pitch_bend_c, 2, 8704
4, 2369, Pitch_bend_c, 2, 8832
4, 2371, Pitch_bend_c, 2, 9088
4, 2373, Pitch_bend_c, 2, 9216
4, 2374, Pitch_bend_c, 2, 9472
4, 2375, Pitch_bend_c, 2, 9728
4, 2376, Pitch_bend_c, 2, 9856
4, 2378, Pitch_bend_c, 2, 10240
4, 2381, Pitch_bend_c, 2, 10496
4, 2382, Pitch_bend_c, 2, 10752
4, 2383, Pitch_bend_c, 2, 10880
4, 2384, Pitch_bend_c, 2, 11264
4, 2385, Pitch_bend_c, 2, 11904
4, 2387, Pitch_bend_c, 2, 12672
4, 2388, Pitch_bend_c, 2, 13312
4, 2389, Pitch_bend_c, 2, 14080
4, 2390, Pitch_bend_c, 2, 14592
4, 2391, Pitch_bend_c, 2, 14976
4, 2392, Pitch_bend_c, 2, 15744
4, 2394, Pitch_bend_c, 2, 16000
4, 2395, Pitch_bend_c, 2, 16128
4, 2397, Pitch_bend_c, 2, 16383
4, 2422, Pitch_bend_c, 2, 8192
4, 2424, Note_on_c, 2, 64, 0
4, 2448, Note_on_c, 2, 64, 127
4, 2450, Pitch_bend_c, 2, 8192
4, 2458, Pitch_bend_c, 2, 8320
4, 2460, Pitch_bend_c, 2, 8448
4, 2462, Pitch_bend_c, 2, 8576
4, 2463, Pitch_bend_c, 2, 8704
4, 2464, Pitch_bend_c, 2, 8832
4, 2465, Pitch_bend_c, 2, 9088
4, 2466, Pitch_bend_c, 2, 9216
4, 2467, Pitch_bend_c, 2, 9472
4, 2469, Pitch_bend_c, 2, 9984
4, 2470, Pitch_bend_c, 2, 10112
4, 2471, Pitch_bend_c, 2, 10496
4, 2472, Pitch_bend_c, 2, 11008
4, 2473, Pitch_bend_c, 2, 11392
4, 2474, Pitch_bend_c, 2, 11648
4, 2476, Pitch_bend_c, 2, 12032
4, 2477, Pitch_bend_c, 2, 12544
4, 2478, Pitch_bend_c, 2, 13056
4, 2479, Pitch_bend_c, 2, 13824
4, 2480, Pitch_bend_c, 2, 15616
4, 2481, Pitch_bend_c, 2, 16383
4, 2518, Pitch_bend_c, 2, 8192
4, 2520, Note_on_c, 2, 64, 0
4, 2544, Note_on_c, 2, 64, 127
4, 2592, Note_on_c, 2, 64, 0
4, 2592, Note_on_c, 2, 62, 127
4, 2640, Note_on_c, 2, 62, 0
4, 2640, Note_on_c, 2, 59, 127
4, 2688, Note_on_c, 2, 59, 0
4, 2688, Note_on_c, 2, 62, 127
4, 2784, Note_on_c, 2, 62, 0
4, 2832, Note_on_c, 2, 69, 127
4, 2832, Note_on_c, 2, 74, 127
4, 2928, Note_on_c, 2, 74, 0
4, 3048, Note_on_c, 2, 69, 0
4, 3120, Note_on_c, 2, 74, 127
4, 3120, Note_on_c, 2, 69, 127
4, 3168, Note_on_c, 2, 69, 0
4, 3168, Note_on_c, 2, 74, 0
4, 3264, Note_on_c, 2, 74, 127
4, 3264, Note_on_c, 2, 69, 127
4, 3312, Note_on_c, 2, 69, 0
4, 3312, Note_on_c, 2, 74, 0
4, 3840, Note_on_c, 2, 64, 127
4, 3841, Pitch_bend_c, 2, 8192
4, 3843, Pitch_bend_c, 2, 8448
4, 3846, Pitch_bend_c, 2, 8576
4, 3850, Pitch_bend_c, 2, 8832
4, 3852, Pitch_bend_c, 2, 8960
4, 3853, Pitch_bend_c, 2, 9088
4, 3857, Pitch_bend_c, 2, 9344
4, 3859, Pitch_bend_c, 2, 9472
4, 3862, Pitch_bend_c, 2, 9728
4, 3866, Pitch_bend_c, 2, 9856
4, 3869, Pitch_bend_c, 2, 10240
4, 3871, Pitch_bend_c, 2, 10368
4, 3874, Pitch_bend_c, 2, 10496
4, 3876, Pitch_bend_c, 2, 10752
4, 3880, Pitch_bend_c, 2, 11008
4, 3883, Pitch_bend_c, 2, 11264
4, 3885, Pitch_bend_c, 2, 11392
4, 3887, Pitch_bend_c, 2, 11648
4, 3888, Pitch_bend_c, 2, 11776
4, 3890, Pitch_bend_c, 2, 12032
4, 3892, Pitch_bend_c, 2, 12288
4, 3894, Pitch_bend_c, 2, 12416
4, 3895, Pitch_bend_c, 2, 12544
4, 3897, Pitch_bend_c, 2, 12672
4, 3899, Pitch_bend_c, 2, 12928
4, 3901, Pitch_bend_c, 2, 13184
4, 3902, Pitch_bend_c, 2, 13440
4, 3904, Pitch_bend_c, 2, 13696
4, 3906, Pitch_bend_c, 2, 13952
4, 3908, Pitch_bend_c, 2, 14208
4, 3909, Pitch_bend_c, 2, 14464
4, 3911, Pitch_bend_c, 2, 14848
4, 3913, Pitch_bend_c, 2, 14976
4, 3915, Pitch_bend_c, 2, 15104
4, 3916, Pitch_bend_c, 2, 15232
4, 3918, Pitch_bend_c, 2, 15488
4, 3922, Pitch_bend_c, 2, 15744
4, 3923, Pitch_bend_c, 2, 15872
4, 3925, Pitch_bend_c, 2, 16000
4, 3929, Pitch_bend_c, 2, 16256
4, 3932, Pitch_bend_c, 2, 16383
4, 3973, Note_on_c, 2, 64, 0
4, 3985, Note_on_c, 2, 64, 127
4, 4005, Pitch_bend_c, 2, 15360
4, 4007, Pitch_bend_c, 2, 14976
4, 4008, Pitch_bend_c, 2, 14720
4, 4010, Pitch_bend_c, 2, 14592
4, 4012, Pitch_bend_c, 2, 14208
4, 4014, Pitch_bend_c, 2, 14080
4, 4016, Pitch_bend_c, 2, 13824
4, 4017, Pitch_bend_c, 2, 13568
4, 4019, Pitch_bend_c, 2, 13184
4, 4021, Pitch_bend_c, 2, 12928
4, 4023, Pitch_bend_c, 2, 12672
4, 4024, Pitch_bend_c, 2, 12416
4, 4026, Pitch_bend_c, 2, 12160
4, 4028, Pitch_bend_c, 2, 11904
4, 4030, Pitch_bend_c, 2, 11520
4, 4032, Pitch_bend_c, 2, 11264
4, 4033, Pitch_bend_c, 2, 11008
4, 4035, Pitch_bend_c, 2, 10624
4, 4037, Pitch_bend_c, 2, 10496
4, 4039, Pitch_bend_c, 2, 10368
4, 4040, Pitch_bend_c, 2, 10240
4, 4042, Pitch_bend_c, 2, 9984
4, 4044, Pitch_bend_c, 2, 9856
4, 4046, Pitch_bend_c, 2, 9728
4, 4048, Pitch_bend_c, 2, 9472
4, 4049, Pitch_bend_c, 2, 9344
4, 4055, Pitch_bend_c, 2, 8576
4, 4056, Pitch_bend_c, 2, 8448
4, 4078, Note_on_c, 2, 64, 0
4, 4078, Note_on_c, 2, 62, 127
4, 4129, Note_on_c, 2, 62, 0
4, 4272, Note_on_c, 2, 67, 127
4, 4272, Note_on_c, 2, 62, 127
4, 4320, Note_on_c, 2, 62, 0
4, 4320, Note_on_c, 2, 67, 0
4, 4320, Note_on_c, 2, 67, 127
4, 4320, Note_on_c, 2, 64, 127
4, 4368, Note_on_c, 2, 64, 0
4, 4368, Note_on_c, 2, 67, 0
4, 4416, Note_on_c, 2, 62, 127
4, 4416, Note_on_c, 2, 67, 127
4, 4464, Note_on_c, 2, 67, 0
4, 4464, Note_on_c, 2, 62, 0
4, 4512, Note_on_c, 2, 64, 127
4, 4512, Note_on_c, 2, 67, 127
4, 4560, Note_on_c, 2, 67, 0
4, 4560, Note_on_c, 2, 64, 0
4, 4608, Note_on_c, 2, 67, 127
4, 4608, Note_on_c, 2, 62, 127
4, 4656, Note_on_c, 2, 62, 0
4, 4656, Note_on_c, 2, 67, 0
4, 4656, Note_on_c, 2, 62, 127
4, 4656, Note_on_c, 2, 67, 127
4, 4704, Note_on_c, 2, 67, 0
4, 4704, Note_on_c, 2, 62, 0
4, 4752, Note_on_c, 2, 62, 127
4, 4752, Note_on_c, 2, 67, 127
4, 4800, Note_on_c, 2, 67, 0
4, 4800, Note_on_c, 2, 62, 0
4, 5040, Note_on_c, 2, 74, 127
4, 5040, Note_on_c, 2, 69, 127
4, 5088, Note_on_c, 2, 69, 0
4, 5088, Note_on_c, 2, 74, 0
4, 5184, Note_on_c, 2, 69, 127
4, 5184, Note_on_c, 2, 74, 127
4, 5232, Note_on_c, 2, 74, 0
4, 5232, Note_on_c, 2, 69, 0
4, 5424, Note_on_c, 2, 64, 127
4, 5424, Note_on_c, 2, 69, 127
4, 5472, Note_on_c, 2, 69, 0
4, 5472, Note_on_c, 2, 64, 0
4, 5568, Note_on_c, 2, 64, 127
4, 5568, Note_on_c, 2, 69, 127
4, 5616, Note_on_c, 2, 69, 0
4, 5616, Note_on_c, 2, 64, 0
4, 6144, Pitch_bend_c, 2, 8320
4, 6144, Note_on_c, 2, 64, 127
4, 6147, Pitch_bend_c, 2, 8448
4, 6150, Pitch_bend_c, 2, 8576
4, 6152, Pitch_bend_c, 2, 8704
4, 6154, Pitch_bend_c, 2, 8832
4, 6156, Pitch_bend_c, 2, 9088
4, 6157, Pitch_bend_c, 2, 9216
4, 6159, Pitch_bend_c, 2, 9472
4, 6161, Pitch_bend_c, 2, 9984
4, 6164, Pitch_bend_c, 2, 10752
4, 6166, Pitch_bend_c, 2, 11008
4, 6168, Pitch_bend_c, 2, 11520
4, 6170, Pitch_bend_c, 2, 11776
4, 6171, Pitch_bend_c, 2, 12032
4, 6173, Pitch_bend_c, 2, 12800
4, 6175, Pitch_bend_c, 2, 13568
4, 6177, Pitch_bend_c, 2, 14464
4, 6178, Pitch_bend_c, 2, 14592
4, 6180, Pitch_bend_c, 2, 15104
4, 6182, Pitch_bend_c, 2, 15872
4, 6184, Pitch_bend_c, 2, 16383
4, 6262, Pitch_bend_c, 2, 8576
4, 6264, Note_on_c, 2, 64, 0
4, 6264, Pitch_bend_c, 2, 8448
4, 6288, Note_on_c, 2, 69, 127
4, 6336, Note_on_c, 2, 69, 0
4, 6336, Note_on_c, 2, 66, 127
4, 6337, Pitch_bend_c, 2, 7936
4, 6339, Pitch_bend_c, 2, 7808
4, 6341, Pitch_bend_c, 2, 7680
4, 6342, Pitch_bend_c, 2, 7296
4, 6344, Pitch_bend_c, 2, 7040
4, 6346, Pitch_bend_c, 2, 6784
4, 6348, Pitch_bend_c, 2, 6656
4, 6349, Pitch_bend_c, 2, 6400
4, 6351, Pitch_bend_c, 2, 5632
4, 6353, Pitch_bend_c, 2, 4864
4, 6355, Pitch_bend_c, 2, 4096
4, 6356, Pitch_bend_c, 2, 3712
4, 6358, Pitch_bend_c, 2, 2816
4, 6360, Pitch_bend_c, 2, 2304
4, 6362, Pitch_bend_c, 2, 2048
4, 6363, Pitch_bend_c, 2, 1920
4, 6365, Pitch_bend_c, 2, 1664
4, 6367, Pitch_bend_c, 2, 1280
4, 6369, Pitch_bend_c, 2, 896
4, 6370, Pitch_bend_c, 2, 640
4, 6372, Pitch_bend_c, 2, 512
4, 6374, Pitch_bend_c, 2, 256
4, 6376, Pitch_bend_c, 2, 128
4, 6384, Note_on_c, 2, 66, 0
4, 6384, Note_on_c, 2, 64, 127
4, 6388, Pitch_bend_c, 2, 8320
4, 6432, Note_on_c, 2, 64, 0
4, 6432, Note_on_c, 2, 62, 127
4, 6480, Note_on_c, 2, 62, 0
4, 6480, Note_on_c, 2, 57, 127
4, 6528, Note_on_c, 2, 57, 0
4, 6528, Note_on_c, 2, 62, 127
4, 6528, Note_on_c, 2, 57, 127
4, 6624, Note_on_c, 2, 57, 0
4, 6624, Note_on_c, 2, 62, 0
4, 6960, Note_on_c, 2, 57, 127
4, 6960, Note_on_c, 2, 62, 127
4, 7008, Note_on_c, 2, 62, 0
4, 7008, Note_on_c, 2, 57, 0
4, 7104, Note_on_c, 2, 57, 127
4, 7104, Note_on_c, 2, 62, 127
4, 7152, Note_on_c, 2, 62, 0
4, 7152, Note_on_c, 2, 57, 0
4, 7248, Note_on_c, 2, 62, 127
4, 7248, Note_on_c, 2, 66, 127
4, 7296, Note_on_c, 2, 66, 0
4, 7296, Note_on_c, 2, 62, 0
4, 7344, Note_on_c, 2, 64, 127
4, 7354, Pitch_bend_c, 2, 8448
4, 7357, Pitch_bend_c, 2, 8576
4, 7360, Pitch_bend_c, 2, 8832
4, 7362, Pitch_bend_c, 2, 8960
4, 7365, Pitch_bend_c, 2, 9216
4, 7368, Pitch_bend_c, 2, 9600
4, 7370, Pitch_bend_c, 2, 10880
4, 7373, Pitch_bend_c, 2, 11136
4, 7376, Pitch_bend_c, 2, 12544
4, 7378, Pitch_bend_c, 2, 13312
4, 7381, Pitch_bend_c, 2, 14336
4, 7384, Pitch_bend_c, 2, 15104
4, 7386, Pitch_bend_c, 2, 15616
4, 7389, Pitch_bend_c, 2, 15744
4, 7392, Pitch_bend_c, 2, 16256
4, 7437, Pitch_bend_c, 2, 16383
4, 7440, Note_on_c, 2, 64, 0
4, 7485, Pitch_bend_c, 2, 16256
4, 7488, Pitch_bend_c, 2, 15872
4, 7488, Note_on_c, 2, 64, 127
4, 7490, Pitch_bend_c, 2, 14976
4, 7493, Pitch_bend_c, 2, 14848
4, 7496, Pitch_bend_c, 2, 14336
4, 7498, Pitch_bend_c, 2, 13696
4, 7501, Pitch_bend_c, 2, 12416
4, 7504, Pitch_bend_c, 2, 11008
4, 7506, Pitch_bend_c, 2, 10496
4, 7509, Pitch_bend_c, 2, 10112
4, 7512, Pitch_bend_c, 2, 9984
4, 7514, Pitch_bend_c, 2, 9728
4, 7517, Pitch_bend_c, 2, 9600
4, 7520, Pitch_bend_c, 2, 9344
4, 7522, Pitch_bend_c, 2, 9216
4, 7525, Pitch_bend_c, 2, 8960
4, 7528, Pitch_bend_c, 2, 8576
4, 7530, Pitch_bend_c, 2, 8448
4, 7533, Pitch_bend_c, 2, 8320
4, 7536, Note_on_c, 2, 64, 0
4, 7536, Note_on_c, 2, 62, 127
4, 7562, Pitch_bend_c, 2, 8192
4, 7584, Note_on_c, 2, 62, 0
4, 7680, Note_on_c, 2, 62, 127
4, 7680, Note_on_c, 2, 66, 127
4, 7725, Pitch_bend_c, 2, 8320
4, 7728, Note_on_c, 2, 66, 0
4, 7728, Note_on_c, 2, 62, 0
4, 7728, Note_on_c, 2, 64, 127
4, 7730, Pitch_bend_c, 2, 8448
4, 7733, Pitch_bend_c, 2, 8576
4, 7736, Pitch_bend_c, 2, 8704
4, 7738, Pitch_bend_c, 2, 8960
4, 7741, Pitch_bend_c, 2, 9216
4, 7744, Pitch_bend_c, 2, 9600
4, 7746, Pitch_bend_c, 2, 10624
4, 7749, Pitch_bend_c, 2, 12416
4, 7752, Pitch_bend_c, 2, 13056
4, 7754, Pitch_bend_c, 2, 14208
4, 7757, Pitch_bend_c, 2, 14976
4, 7760, Pitch_bend_c, 2, 15232
4, 7762, Pitch_bend_c, 2, 15360
4, 7765, Pitch_bend_c, 2, 15616
4, 7768, Pitch_bend_c, 2, 16000
4, 7773, Pitch_bend_c, 2, 16383
4, 7800, Note_on_c, 2, 64, 0
4, 7802, Pitch_bend_c, 2, 8320
4, 7824, Note_on_c, 2, 57, 127
4, 7824, Note_on_c, 2, 62, 127
4, 7896, Note_on_c, 2, 62, 0
4, 7896, Note_on_c, 2, 57, 0
4, 8112, Note_on_c, 2, 62, 127
4, 8112, Note_on_c, 2, 69, 127
4, 8160, Note_on_c, 2, 69, 0
4, 8160, Note_on_c, 2, 62, 0
4, 8256, Note_on_c, 2, 69, 127
4, 8256, Note_on_c, 2, 62, 127
4, 8304, Note_on_c, 2, 62, 0
4, 8304, Note_on_c, 2, 69, 0
4, 8496, Note_on_c, 2, 64, 127
4, 8496, Note_on_c, 2, 69, 127
4, 8544, Note_on_c, 2, 69, 0
4, 8544, Note_on_c, 2, 64, 0
4, 8640, Note_on_c, 2, 64, 127
4, 8640, Note_on_c, 2, 69, 127
4, 8688, Note_on_c, 2, 69, 0
4, 8688, Note_on_c, 2, 64, 0
4, 8880, Note_on_c, 2, 62, 127
4, 8880, Note_on_c, 2, 57, 127
4, 8928, Note_on_c, 2, 57, 0
4, 8928, Note_on_c, 2, 62, 0
4, 8928, Note_on_c, 2, 59, 127
4, 8928, Note_on_c, 2, 62, 127
4, 8976, Note_on_c, 2, 62, 0
4, 8976, Note_on_c, 2, 59, 0
4, 9024, Note_on_c, 2, 62, 127
4, 9024, Note_on_c, 2, 57, 127
4, 9072, Note_on_c, 2, 57, 0
4, 9072, Note_on_c, 2, 62, 0
4, 9120, Note_on_c, 2, 59, 127
4, 9120, Note_on_c, 2, 62, 127
4, 9168, Note_on_c, 2, 62, 0
4, 9168, Note_on_c, 2, 59, 0
4, 9216, Note_on_c, 2, 62, 127
4, 9264, Note_on_c, 2, 62, 0
4, 9264, Note_on_c, 2, 59, 127
4, 9312, Note_on_c, 2, 59, 0
4, 9312, Note_on_c, 2, 57, 127
4, 9360, Note_on_c, 2, 57, 0
4, 9360, Note_on_c, 2, 54, 127
4, 9406, Pitch_bend_c, 2, 8192
4, 9408, Note_on_c, 2, 54, 0
4, 9408, Note_on_c, 2, 54, 127
4, 9504, Note_on_c, 2, 54, 0
4, 9648, Note_on_c, 2, 57, 127
4, 9648, Note_on_c, 2, 62, 127
4, 9696, Note_on_c, 2, 62, 0
4, 9696, Note_on_c, 2, 57, 0
4, 9792, Note_on_c, 2, 62, 127
4, 9792, Note_on_c, 2, 57, 127
4, 9840, Note_on_c, 2, 57, 0
4, 9840, Note_on_c, 2, 62, 0
4, 10032, Note_on_c, 2, 62, 127
4, 10032, Note_on_c, 2, 57, 127
4, 10080, Note_on_c, 2, 57, 0
4, 10080, Note_on_c, 2, 62, 0
4, 10176, Note_on_c, 2, 62, 127
4, 10176, Note_on_c, 2, 57, 127
4, 10224, Note_on_c, 2, 57, 0
4, 10224, Note_on_c, 2, 62, 0
4, 10416, Note_on_c, 2, 62, 127
4, 10416, Note_on_c, 2, 55, 127
4, 10464, Note_on_c, 2, 55, 0
4, 10464, Note_on_c, 2, 62, 0
4, 10560, Note_on_c, 2, 55, 127
4, 10560, Note_on_c, 2, 62, 127
4, 10608, Note_on_c, 2, 62, 0
4, 10608, Note_on_c, 2, 55, 0
4, 10800, Note_on_c, 2, 55, 127
4, 10800, Note_on_c, 2, 62, 127
4, 10848, Note_on_c, 2, 62, 0
4, 10848, Note_on_c, 2, 55, 0
4, 10944, Note_on_c, 2, 62, 127
4, 10944, Note_on_c, 2, 55, 127
4, 10992, Note_on_c, 2, 55, 0
4, 10992, Note_on_c, 2, 62, 0
4, 11184, Note_on_c, 2, 62, 127
4, 11184, Note_on_c, 2, 69, 127
4, 11232, Note_on_c, 2, 69, 0
4, 11232, Note_on_c, 2, 62, 0
4, 11328, Note_on_c, 2, 69, 127
4, 11328, Note_on_c, 2, 62, 127
4, 11376, Note_on_c, 2, 62, 0
4, 11376, Note_on_c, 2, 69, 0
4, 11568, Note_on_c, 2, 64, 127
4, 11568, Note_on_c, 2, 69, 127
4, 11616, Note_on_c, 2, 69, 0
4, 11616, Note_on_c, 2, 64, 0
4, 11712, Note_on_c, 2, 64, 127
4, 11712, Note_on_c, 2, 69, 127
4, 11760, Note_on_c, 2, 69, 0
4, 11760, Note_on_c, 2, 64, 0
4, 11952, Note_on_c, 2, 62, 127
4, 11952, Note_on_c, 2, 69, 127
4, 12000, Note_on_c, 2, 69, 0
4, 12000, Note_on_c, 2, 62, 0
4, 12000, Note_on_c, 2, 71, 127
4, 12000, Note_on_c, 2, 62, 127
4, 12048, Note_on_c, 2, 62, 0
4, 12048, Note_on_c, 2, 71, 0
4, 12048, Note_on_c, 2, 62, 107
4, 12096, Note_on_c, 2, 62, 0
4, 12096, Note_on_c, 2, 62, 127
4, 12096, Note_on_c, 2, 69, 127
4, 12144, Note_on_c, 2, 69, 0
4, 12144, Note_on_c, 2, 62, 0
4, 12144, Note_on_c, 2, 62, 105
4, 12192, Note_on_c, 2, 62, 0
4, 12192, Note_on_c, 2, 71, 127
4, 12192, Note_on_c, 2, 62, 127
4, 12240, Note_on_c, 2, 62, 0
4, 12240, Note_on_c, 2, 71, 0
4, 12240, Note_on_c, 2, 62, 105
4, 12288, Note_on_c, 2, 62, 0
4, 12288, Note_on_c, 2, 62, 127
4, 12288, Note_on_c, 2, 69, 127
4, 12336, Note_on_c, 2, 69, 0
4, 12336, Note_on_c, 2, 62, 0
4, 12336, Note_on_c, 2, 69, 127
4, 12336, Note_on_c, 2, 62, 127
4, 12384, Note_on_c, 2, 62, 0
4, 12384, Note_on_c, 2, 69, 0
4, 12384, Note_on_c, 2, 59, 127
4, 12384, Note_on_c, 2, 62, 127
4, 12432, Note_on_c, 2, 62, 0
4, 12432, Note_on_c, 2, 59, 0
4, 12432, Note_on_c, 2, 62, 127
4, 12432, Note_on_c, 2, 69, 127
4, 12504, Note_on_c, 2, 69, 0
4, 12504, Note_on_c, 2, 62, 0
4, 12672, Note_on_c, 2, 64, 127
4, 12673, Pitch_bend_c, 2, 8320
4, 12677, Pitch_bend_c, 2, 8448
4, 12679, Pitch_bend_c, 2, 8576
4, 12680, Pitch_bend_c, 2, 8704
4, 12684, Pitch_bend_c, 2, 8832
4, 12686, Pitch_bend_c, 2, 8960
4, 12689, Pitch_bend_c, 2, 9088
4, 12691, Pitch_bend_c, 2, 9216
4, 12693, Pitch_bend_c, 2, 9472
4, 12696, Pitch_bend_c, 2, 9728
4, 12700, Pitch_bend_c, 2, 9984
4, 12702, Pitch_bend_c, 2, 10112
4, 12704, Pitch_bend_c, 2, 10240
4, 12705, Pitch_bend_c, 2, 10496
4, 12707, Pitch_bend_c, 2, 10624
4, 12709, Pitch_bend_c, 2, 10880
4, 12711, Pitch_bend_c, 2, 11008
4, 12712, Pitch_bend_c, 2, 11392
4, 12714, Pitch_bend_c, 2, 11776
4, 12716, Pitch_bend_c, 2, 12288
4, 12718, Pitch_bend_c, 2, 12672
4, 12720, Pitch_bend_c, 2, 13312
4, 12721, Pitch_bend_c, 2, 13696
4, 12723, Pitch_bend_c, 2, 13952
4, 12725, Pitch_bend_c, 2, 14080
4, 12727, Pitch_bend_c, 2, 15104
4, 12728, Pitch_bend_c, 2, 15616
4, 12730, Pitch_bend_c, 2, 16128
4, 12732, Pitch_bend_c, 2, 16383
4, 12760, Pitch_bend_c, 2, 9216
4, 12762, Pitch_bend_c, 2, 9088
4, 12764, Pitch_bend_c, 2, 8960
4, 12766, Pitch_bend_c, 2, 8704
4, 12768, Note_on_c, 2, 64, 0
4, 12768, Pitch_bend_c, 2, 8448
4, 12768, Note_on_c, 2, 69, 127
4, 12769, Pitch_bend_c, 2, 8320
4, 12816, Note_on_c, 2, 69, 0
4, 12864, Note_on_c, 2, 64, 127
4, 12865, Pitch_bend_c, 2, 8320
4, 12869, Pitch_bend_c, 2, 8448
4, 12871, Pitch_bend_c, 2, 8576
4, 12872, Pitch_bend_c, 2, 8704
4, 12876, Pitch_bend_c, 2, 8832
4, 12878, Pitch_bend_c, 2, 8960
4, 12881, Pitch_bend_c, 2, 9088
4, 12883, Pitch_bend_c, 2, 9216
4, 12885, Pitch_bend_c, 2, 9472
4, 12888, Pitch_bend_c, 2, 9728
4, 12892, Pitch_bend_c, 2, 9984
4, 12894, Pitch_bend_c, 2, 10112
4, 12896, Pitch_bend_c, 2, 10240
4, 12897, Pitch_bend_c, 2, 10496
4, 12899, Pitch_bend_c, 2, 10624
4, 12901, Pitch_bend_c, 2, 10880
4, 12903, Pitch_bend_c, 2, 11008
4, 12904, Pitch_bend_c, 2, 11392
4, 12906, Pitch_bend_c, 2, 11776
4, 12908, Pitch_bend_c, 2, 12288
4, 12910, Pitch_bend_c, 2, 12672
4, 12912, Pitch_bend_c, 2, 13312
4, 12913, Pitch_bend_c, 2, 13696
4, 12915, Pitch_bend_c, 2, 13952
4, 12917, Pitch_bend_c, 2, 14080
4, 12919, Pitch_bend_c, 2, 15104
4, 12920, Pitch_bend_c, 2, 15616
4, 12922, Pitch_bend_c, 2, 16128
4, 12924, Pitch_bend_c, 2, 16383
4, 12952, Pitch_bend_c, 2, 9216
4, 12954, Pitch_bend_c, 2, 9088
4, 12956, Pitch_bend_c, 2, 8960
4, 12958, Pitch_bend_c, 2, 8704
4, 12960, Note_on_c, 2, 64, 0
4, 12960, Note_on_c, 2, 69, 127
4, 13008, Note_on_c, 2, 69, 0
4, 13008, Note_on_c, 2, 64, 127
4, 13013, Pitch_bend_c, 2, 8320
4, 13015, Pitch_bend_c, 2, 8576
4, 13016, Pitch_bend_c, 2, 8832
4, 13018, Pitch_bend_c, 2, 8960
4, 13020, Pitch_bend_c, 2, 9216
4, 13022, Pitch_bend_c, 2, 9472
4, 13024, Pitch_bend_c, 2, 9728
4, 13025, Pitch_bend_c, 2, 9984
4, 13027, Pitch_bend_c, 2, 10752
4, 13029, Pitch_bend_c, 2, 11264
4, 13031, Pitch_bend_c, 2, 12160
4, 13032, Pitch_bend_c, 2, 13568
4, 13034, Pitch_bend_c, 2, 14592
4, 13036, Pitch_bend_c, 2, 15232
4, 13038, Pitch_bend_c, 2, 15744
4, 13040, Pitch_bend_c, 2, 16383
4, 13056, Note_on_c, 2, 64, 0
4, 13061, Pitch_bend_c, 2, 8320
4, 13104, Note_on_c, 2, 64, 127
4, 13152, Note_on_c, 2, 64, 0
4, 13152, Note_on_c, 2, 62, 127
4, 13200, Note_on_c, 2, 62, 0
4, 13200, Note_on_c, 2, 59, 127
4, 13248, Note_on_c, 2, 59, 0
4, 13248, Note_on_c, 2, 62, 127
4, 13320, Note_on_c, 2, 62, 0
4, 13344, Note_on_c, 2, 64, 127
4, 13392, Note_on_c, 2, 64, 0
4, 13392, Note_on_c, 2, 62, 127
4, 13440, Note_on_c, 2, 62, 0
4, 13440, Note_on_c, 2, 57, 127
4, 13441, Pitch_bend_c, 2, 8320
4, 13445, Pitch_bend_c, 2, 8448
4, 13447, Pitch_bend_c, 2, 8576
4, 13448, Pitch_bend_c, 2, 8704
4, 13452, Pitch_bend_c, 2, 8832
4, 13454, Pitch_bend_c, 2, 8960
4, 13457, Pitch_bend_c, 2, 9088
4, 13459, Pitch_bend_c, 2, 9216
4, 13461, Pitch_bend_c, 2, 9472
4, 13464, Pitch_bend_c, 2, 9728
4, 13468, Pitch_bend_c, 2, 9984
4, 13470, Pitch_bend_c, 2, 10112
4, 13472, Pitch_bend_c, 2, 10240
4, 13473, Pitch_bend_c, 2, 10496
4, 13475, Pitch_bend_c, 2, 10624
4, 13477, Pitch_bend_c, 2, 10880
4, 13479, Pitch_bend_c, 2, 11008
4, 13480, Pitch_bend_c, 2, 11392
4, 13482, Pitch_bend_c, 2, 11776
4, 13484, Pitch_bend_c, 2, 12288
4, 13486, Pitch_bend_c, 2, 12672
4, 13488, Pitch_bend_c, 2, 13312
4, 13489, Pitch_bend_c, 2, 13696
4, 13491, Pitch_bend_c, 2, 13952
4, 13493, Pitch_bend_c, 2, 14080
4, 13495, Pitch_bend_c, 2, 15104
4, 13496, Pitch_bend_c, 2, 15616
4, 13498, Pitch_bend_c, 2, 16128
4, 13500, Pitch_bend_c, 2, 16383
4, 13502, Pitch_bend_c, 2, 16383
4, 13536, Note_on_c, 2, 57, 0
4, 13536, Note_on_c, 2, 60, 127
4, 13584, Note_on_c, 2, 60, 0
4, 13584, Note_on_c, 2, 57, 127
4, 13616, Pitch_bend_c, 2, 16128
4, 13617, Pitch_bend_c, 2, 16000
4, 13619, Pitch_bend_c, 2, 15360
4, 13621, Pitch_bend_c, 2, 14848
4, 13623, Pitch_bend_c, 2, 14080
4, 13624, Pitch_bend_c, 2, 13696
4, 13626, Pitch_bend_c, 2, 13184
4, 13628, Pitch_bend_c, 2, 12800
4, 13630, Pitch_bend_c, 2, 12288
4, 13632, Pitch_bend_c, 2, 12160
4, 13633, Pitch_bend_c, 2, 11648
4, 13635, Pitch_bend_c, 2, 11136
4, 13637, Pitch_bend_c, 2, 10752
4, 13639, Pitch_bend_c, 2, 10496
4, 13640, Pitch_bend_c, 2, 10112
4, 13642, Pitch_bend_c, 2, 9856
4, 13644, Pitch_bend_c, 2, 9600
4, 13646, Pitch_bend_c, 2, 9344
4, 13648, Pitch_bend_c, 2, 9216
4, 13649, Pitch_bend_c, 2, 9088
4, 13651, Pitch_bend_c, 2, 8832
4, 13655, Pitch_bend_c, 2, 8704
4, 13656, Pitch_bend_c, 2, 8576
4, 13658, Pitch_bend_c, 2, 8448
4, 13665, Pitch_bend_c, 2, 8320
4, 13680, Note_on_c, 2, 57, 0
4, 13680, Note_on_c, 2, 55, 127
4, 13728, Note_on_c, 2, 55, 0
4, 13728, Note_on_c, 2, 52, 127
4, 13776, Note_on_c, 2, 52, 0
4, 13776, Note_on_c, 2, 50, 127
4, 13824, Note_on_c, 2, 50, 0
4, 13824, Note_on_c, 2, 55, 127
4, 13872, Note_on_c, 2, 55, 0
4, 13872, Note_on_c, 2, 50, 127
4, 13920, Note_on_c, 2, 50, 0
4, 13920, Note_on_c, 2, 57, 127
4, 13968, Note_on_c, 2, 57, 0
4, 13968, Note_on_c, 2, 55, 127
4, 14016, Note_on_c, 2, 55, 0
4, 14016, Note_on_c, 2, 52, 127
4, 14064, Note_on_c, 2, 52, 0
4, 14064, Note_on_c, 2, 50, 127
4, 14112, Note_on_c, 2, 50, 0
4, 14112, Note_on_c, 2, 47, 127
4, 14160, Note_on_c, 2, 47, 0
4, 14160, Note_on_c, 2, 45, 127
4, 14208, Note_on_c, 2, 45, 0
4, 14208, Note_on_c, 2, 38, 127
4, 14328, Note_on_c, 2, 38, 0
4, 14343, Control_c, 2, 1, 0
4, 14344, Control_c, 2, 1, 1
4, 14348, Control_c, 2, 1, 3
4, 14350, Control_c, 2, 1, 5
4, 14352, Control_c, 2, 1, 9
4, 14352, Note_on_c, 2, 78, 127
4, 14352, Note_on_c, 2, 74, 127
4, 14353, Control_c, 2, 1, 11
4, 14355, Control_c, 2, 1, 13
4, 14357, Control_c, 2, 1, 47
4, 14359, Control_c, 2, 1, 50
4, 14360, Control_c, 2, 1, 53
4, 14364, Control_c, 2, 1, 54
4, 14366, Control_c, 2, 1, 59
4, 14369, Control_c, 2, 1, 58
4, 14460, Control_c, 2, 1, 57
4, 14462, Control_c, 2, 1, 55
4, 14464, Control_c, 2, 1, 54
4, 14465, Control_c, 2, 1, 50
4, 14467, Control_c, 2, 1, 48
4, 14469, Control_c, 2, 1, 47
4, 14471, Control_c, 2, 1, 45
4, 14472, Control_c, 2, 1, 44
4, 14474, Control_c, 2, 1, 41
4, 14476, Control_c, 2, 1, 38
4, 14478, Control_c, 2, 1, 35
4, 14480, Control_c, 2, 1, 30
4, 14481, Control_c, 2, 1, 20
4, 14483, Control_c, 2, 1, 18
4, 14485, Control_c, 2, 1, 14
4, 14487, Control_c, 2, 1, 11
4, 14490, Control_c, 2, 1, 10
4, 14492, Control_c, 2, 1, 7
4, 14494, Control_c, 2, 1, 6
4, 14496, Note_on_c, 2, 74, 0
4, 14496, Note_on_c, 2, 78, 0
4, 14496, Control_c, 2, 1, 5
4, 14499, Control_c, 2, 1, 4
4, 14592, Note_on_c, 2, 64, 127
4, 14593, Pitch_bend_c, 2, 8320
4, 14597, Pitch_bend_c, 2, 8448
4, 14599, Pitch_bend_c, 2, 8576
4, 14600, Pitch_bend_c, 2, 8704
4, 14604, Pitch_bend_c, 2, 8832
4, 14606, Pitch_bend_c, 2, 8960
4, 14609, Pitch_bend_c, 2, 9088
4, 14611, Pitch_bend_c, 2, 9216
4, 14613, Pitch_bend_c, 2, 9472
4, 14616, Pitch_bend_c, 2, 9728
4, 14620, Pitch_bend_c, 2, 9984
4, 14622, Pitch_bend_c, 2, 10112
4, 14624, Pitch_bend_c, 2, 10240
4, 14625, Pitch_bend_c, 2, 10496
4, 14627, Pitch_bend_c, 2, 10624
4, 14629, Pitch_bend_c, 2, 10880
4, 14631, Pitch_bend_c, 2, 11008
4, 14632, Pitch_bend_c, 2, 11392
4, 14634, Pitch_bend_c, 2, 11776
4, 14636, Pitch_bend_c, 2, 12288
4, 14638, Pitch_bend_c, 2, 12672
4, 14640, Pitch_bend_c, 2, 13312
4, 14641, Pitch_bend_c, 2, 13696
4, 14643, Pitch_bend_c, 2, 13952
4, 14645, Pitch_bend_c, 2, 14080
4, 14647, Pitch_bend_c, 2, 15104
4, 14648, Pitch_bend_c, 2, 15616
4, 14650, Pitch_bend_c, 2, 16128
4, 14652, Pitch_bend_c, 2, 16383
4, 14654, Pitch_bend_c, 2, 16383
4, 14688, Note_on_c, 2, 64, 0
4, 14688, Note_on_c, 2, 67, 127
4, 14736, Note_on_c, 2, 67, 0
4, 14736, Note_on_c, 2, 64, 127
4, 14768, Pitch_bend_c, 2, 16128
4, 14769, Pitch_bend_c, 2, 16000
4, 14771, Pitch_bend_c, 2, 15360
4, 14773, Pitch_bend_c, 2, 14848
4, 14775, Pitch_bend_c, 2, 14080
4, 14776, Pitch_bend_c, 2, 13696
4, 14778, Pitch_bend_c, 2, 13184
4, 14780, Pitch_bend_c, 2, 12800
4, 14782, Pitch_bend_c, 2, 12288
4, 14784, Pitch_bend_c, 2, 12160
4, 14785, Pitch_bend_c, 2, 11648
4, 14787, Pitch_bend_c, 2, 11136
4, 14789, Pitch_bend_c, 2, 10752
4, 14791, Pitch_bend_c, 2, 10496
4, 14792, Pitch_bend_c, 2, 10112
4, 14794, Pitch_bend_c, 2, 9856
4, 14796, Pitch_bend_c, 2, 9600
4, 14798, Pitch_bend_c, 2, 9344
4, 14800, Pitch_bend_c, 2, 9216
4, 14801, Pitch_bend_c, 2, 9088
4, 14803, Pitch_bend_c, 2, 8832
4, 14807, Pitch_bend_c, 2, 8704
4, 14808, Pitch_bend_c, 2, 8576
4, 14810, Pitch_bend_c, 2, 8448
4, 14817, Pitch_bend_c, 2, 8320
4, 14832, Note_on_c, 2, 64, 0
4, 14832, Note_on_c, 2, 62, 127
4, 14880, Note_on_c, 2, 62, 0
4, 14880, Note_on_c, 2, 59, 127
4, 14928, Note_on_c, 2, 59, 0
4, 14928, Note_on_c, 2, 57, 127
4, 14976, Note_on_c, 2, 57, 0
4, 14976, Note_on_c, 2, 50, 127
4, 15072, Note_on_c, 2, 50, 0
4, 15120, Note_on_c, 2, 74, 127
4, 15120, Note_on_c, 2, 78, 127
4, 15130, Control_c, 2, 1, 2
4, 15132, Control_c, 2, 1, 7
4, 15134, Control_c, 2, 1, 12
4, 15136, Control_c, 2, 1, 17
4, 15137, Control_c, 2, 1, 22
4, 15139, Control_c, 2, 1, 27
4, 15141, Control_c, 2, 1, 32
4, 15143, Control_c, 2, 1, 37
4, 15144, Control_c, 2, 1, 42
4, 15146, Control_c, 2, 1, 47
4, 15148, Control_c, 2, 1, 52
4, 15150, Control_c, 2, 1, 57
4, 15152, Control_c, 2, 1, 63
4, 15153, Control_c, 2, 1, 63
4, 15224, Control_c, 2, 1, 64
4, 15240, Note_on_c, 2, 78, 0
4, 15240, Note_on_c, 2, 74, 0
4, 15312, Note_on_c, 2, 78, 127
4, 15312, Note_on_c, 2, 74, 127
4, 15432, Note_on_c, 2, 74, 0
4, 15432, Note_on_c, 2, 78, 0
4, 15504, Note_on_c, 2, 74, 127
4, 15504, Note_on_c, 2, 78, 127
4, 15617, Control_c, 2, 1, 64
4, 15619, Control_c, 2, 1, 60
4, 15621, Control_c, 2, 1, 56
4, 15623, Control_c, 2, 1, 52
4, 15624, Note_on_c, 2, 78, 0
4, 15624, Note_on_c, 2, 74, 0
4, 15624, Control_c, 2, 1, 48
4, 15626, Control_c, 2, 1, 44
4, 15628, Control_c, 2, 1, 40
4, 15630, Control_c, 2, 1, 36
4, 15632, Control_c, 2, 1, 32
4, 15633, Control_c, 2, 1, 28
4, 15635, Control_c, 2, 1, 24
4, 15637, Control_c, 2, 1, 20
4, 15639, Control_c, 2, 1, 16
4, 15640, Control_c, 2, 1, 12
4, 15642, Control_c, 2, 1, 8
4, 15644, Control_c, 2, 1, 4
4, 15646, Control_c, 2, 1, 0
4, 18192, Note_on_c, 2, 78, 127
4, 18192, Note_on_c, 2, 74, 127
4, 18202, Control_c, 2, 1, 2
4, 18204, Control_c, 2, 1, 7
4, 18206, Control_c, 2, 1, 12
4, 18208, Control_c, 2, 1, 17
4, 18209, Control_c, 2, 1, 22
4, 18211, Control_c, 2, 1, 27
4, 18213, Control_c, 2, 1, 32
4, 18215, Control_c, 2, 1, 37
4, 18216, Control_c, 2, 1, 42
4, 18218, Control_c, 2, 1, 47
4, 18220, Control_c, 2, 1, 52
4, 18222, Control_c, 2, 1, 57
4, 18224, Control_c, 2, 1, 63
4, 18225, Control_c, 2, 1, 63
4, 18296, Control_c, 2, 1, 64
4, 18312, Note_on_c, 2, 74, 0
4, 18312, Note_on_c, 2, 78, 0
4, 18384, Note_on_c, 2, 78, 127
4, 18386, Note_on_c, 2, 74, 100
4, 18504, Note_on_c, 2, 74, 0
4, 18504, Note_on_c, 2, 78, 0
4, 18576, Note_on_c, 2, 74, 127
4, 18576, Note_on_c, 2, 78, 127
4, 18689, Control_c, 2, 1, 64
4, 18691, Control_c, 2, 1, 60
4, 18693, Control_c, 2, 1, 56
4, 18695, Control_c, 2, 1, 52
4, 18696, Note_on_c, 2, 78, 0
4, 18696, Note_on_c, 2, 74, 0
4, 18696, Control_c, 2, 1, 48
4, 18698, Control_c, 2, 1, 44
4, 18700, Control_c, 2, 1, 40
4, 18702, Control_c, 2, 1, 36
4, 18704, Control_c, 2, 1, 32
4, 18705, Control_c, 2, 1, 28
4, 18707, Control_c, 2, 1, 24
4, 18709, Control_c, 2, 1, 20
4, 18711, Control_c, 2, 1, 16
4, 18712, Control_c, 2, 1, 12
4, 18714, Control_c, 2, 1, 8
4, 18716, Control_c, 2, 1, 4
4, 18718, Control_c, 2, 1, 0
4, 19008, Note_on_c, 2, 57, 127
4, 19056, Note_on_c, 2, 57, 0
4, 19056, Note_on_c, 2, 59, 127
4, 19104, Note_on_c, 2, 59, 0
4, 19104, Note_on_c, 2, 62, 127
4, 19149, Pitch_bend_c, 2, 8192
4, 19152, Note_on_c, 2, 62, 0
4, 19152, Note_on_c, 2, 64, 127
4, 19163, Pitch_bend_c, 2, 8320
4, 19165, Pitch_bend_c, 2, 8448
4, 19172, Pitch_bend_c, 2, 8960
4, 19173, Pitch_bend_c, 2, 9088
4, 19176, Pitch_bend_c, 2, 9216
4, 19177, Pitch_bend_c, 2, 9472
4, 19180, Pitch_bend_c, 2, 9600
4, 19181, Pitch_bend_c, 2, 9728
4, 19183, Pitch_bend_c, 2, 9984
4, 19186, Pitch_bend_c, 2, 10112
4, 19187, Pitch_bend_c, 2, 10368
4, 19188, Pitch_bend_c, 2, 10496
4, 19190, Pitch_bend_c, 2, 10624
4, 19193, Pitch_bend_c, 2, 10752
4, 19194, Pitch_bend_c, 2, 10880
4, 19200, Pitch_bend_c, 2, 11136
4, 19202, Pitch_bend_c, 2, 11392
4, 19205, Pitch_bend_c, 2, 11648
4, 19206, Pitch_bend_c, 2, 11904
4, 19208, Pitch_bend_c, 2, 12032
4, 19209, Pitch_bend_c, 2, 12288
4, 19211, Pitch_bend_c, 2, 12416
4, 19212, Pitch_bend_c, 2, 12672
4, 19215, Pitch_bend_c, 2, 12928
4, 19216, Pitch_bend_c, 2, 13184
4, 19218, Pitch_bend_c, 2, 13440
4, 19219, Pitch_bend_c, 2, 13568
4, 19220, Pitch_bend_c, 2, 13952
4, 19222, Pitch_bend_c, 2, 14080
4, 19223, Pitch_bend_c, 2, 14336
4, 19225, Pitch_bend_c, 2, 14592
4, 19226, Pitch_bend_c, 2, 14720
4, 19227, Pitch_bend_c, 2, 14976
4, 19229, Pitch_bend_c, 2, 15360
4, 19230, Pitch_bend_c, 2, 15616
4, 19232, Pitch_bend_c, 2, 15744
4, 19233, Pitch_bend_c, 2, 15872
4, 19234, Pitch_bend_c, 2, 16000
4, 19237, Pitch_bend_c, 2, 16128
4, 19238, Pitch_bend_c, 2, 16256
4, 19241, Pitch_bend_c, 2, 16383
4, 19440, Note_on_c, 2, 64, 0
4, 19449, Pitch_bend_c, 2, 16000
4, 19450, Pitch_bend_c, 2, 15232
4, 19451, Pitch_bend_c, 2, 14976
4, 19453, Pitch_bend_c, 2, 8704
4, 19456, Pitch_bend_c, 2, 8576
4, 19462, Pitch_bend_c, 2, 8320
4, 19632, Note_on_c, 2, 64, 127
4, 19680, Note_on_c, 2, 64, 0
4, 19680, Note_on_c, 2, 62, 127
4, 19728, Note_on_c, 2, 62, 0
4, 19776, Note_on_c, 2, 62, 127
4, 19824, Note_on_c, 2, 62, 0
4, 19872, Note_on_c, 2, 64, 127
4, 19920, Note_on_c, 2, 64, 0
4, 19920, Note_on_c, 2, 62, 127
4, 19968, Note_on_c, 2, 62, 0
4, 19968, Note_on_c, 2, 64, 127
4, 20016, Note_on_c, 2, 64, 0
4, 20016, Pitch_bend_c, 2, 8192
4, 20016, Note_on_c, 2, 64, 127
4, 20019, Pitch_bend_c, 2, 8320
4, 20020, Pitch_bend_c, 2, 8576
4, 20023, Pitch_bend_c, 2, 8960
4, 20025, Pitch_bend_c, 2, 9216
4, 20026, Pitch_bend_c, 2, 9344
4, 20027, Pitch_bend_c, 2, 9600
4, 20029, Pitch_bend_c, 2, 9984
4, 20030, Pitch_bend_c, 2, 11392
4, 20032, Pitch_bend_c, 2, 12160
4, 20033, Pitch_bend_c, 2, 12544
4, 20034, Pitch_bend_c, 2, 13184
4, 20036, Pitch_bend_c, 2, 13696
4, 20037, Pitch_bend_c, 2, 13824
4, 20038, Pitch_bend_c, 2, 14080
4, 20040, Pitch_bend_c, 2, 14464
4, 20041, Pitch_bend_c, 2, 16000
4, 20044, Pitch_bend_c, 2, 16128
4, 20045, Pitch_bend_c, 2, 16256
4, 20048, Pitch_bend_c, 2, 16383
4, 20079, Pitch_bend_c, 2, 16256
4, 20080, Pitch_bend_c, 2, 16128
4, 20082, Pitch_bend_c, 2, 16000
4, 20083, Pitch_bend_c, 2, 15744
4, 20084, Pitch_bend_c, 2, 15488
4, 20086, Pitch_bend_c, 2, 15360
4, 20087, Pitch_bend_c, 2, 14976
4, 20089, Pitch_bend_c, 2, 14592
4, 20090, Pitch_bend_c, 2, 13568
4, 20091, Pitch_bend_c, 2, 12544
4, 20093, Pitch_bend_c, 2, 12160
4, 20094, Pitch_bend_c, 2, 11776
4, 20096, Pitch_bend_c, 2, 11264
4, 20097, Pitch_bend_c, 2, 11008
4, 20098, Pitch_bend_c, 2, 10752
4, 20100, Pitch_bend_c, 2, 10496
4, 20101, Pitch_bend_c, 2, 10240
4, 20102, Pitch_bend_c, 2, 9984
4, 20104, Pitch_bend_c, 2, 9856
4, 20105, Pitch_bend_c, 2, 9600
4, 20107, Pitch_bend_c, 2, 9472
4, 20108, Pitch_bend_c, 2, 9344
4, 20109, Pitch_bend_c, 2, 9216
4, 20111, Pitch_bend_c, 2, 9088
4, 20112, Note_on_c, 2, 64, 0
4, 20112, Note_on_c, 2, 62, 127
4, 20112, Pitch_bend_c, 2, 8832
4, 20114, Pitch_bend_c, 2, 8704
4, 20115, Pitch_bend_c, 2, 8576
4, 20116, Pitch_bend_c, 2, 8448
4, 20208, Note_on_c, 2, 62, 0
4, 20208, Note_on_c, 2, 62, 127
4, 20256, Note_on_c, 2, 62, 0
4, 20256, Note_on_c, 2, 59, 127
4, 20304, Note_on_c, 2, 59, 0
4, 20352, Note_on_c, 2, 57, 127
4, 20352, Note_on_c, 2, 62, 127
4, 20448, Note_on_c, 2, 62, 0
4, 20448, Note_on_c, 2, 57, 0
4, 20448, Note_on_c, 2, 54, 127
4, 20448, Note_on_c, 2, 59, 127
4, 20496, Note_on_c, 2, 59, 0
4, 20496, Note_on_c, 2, 54, 0
4, 20592, Note_on_c, 2, 57, 127
4, 20592, Note_on_c, 2, 62, 127
4, 20640, Note_on_c, 2, 62, 0
4, 20640, Note_on_c, 2, 57, 0
4, 20640, Note_on_c, 2, 54, 127
4, 20640, Note_on_c, 2, 59, 127
4, 20688, Note_on_c, 2, 59, 0
4, 20688, Note_on_c, 2, 54, 0
4, 20736, Note_on_c, 2, 57, 127
4, 20736, Note_on_c, 2, 61, 127
4, 20832, Note_on_c, 2, 61, 0
4, 20832, Note_on_c, 2, 57, 0
4, 20832, Note_on_c, 2, 52, 127
4, 20832, Note_on_c, 2, 57, 127
4, 20880, Note_on_c, 2, 57, 0
4, 20880, Note_on_c, 2, 52, 0
4, 20976, Note_on_c, 2, 52, 127
4, 20976, Note_on_c, 2, 61, 127
4, 21024, Note_on_c, 2, 61, 0
4, 21024, Note_on_c, 2, 52, 0
4, 21168, Note_on_c, 2, 72, 127
4, 21168, Note_on_c, 2, 62, 127
4, 21216, Note_on_c, 2, 72, 0
4, 21216, Note_on_c, 2, 71, 127
4, 21264, Note_on_c, 2, 71, 0
4, 21264, Note_on_c, 2, 62, 0
4, 21264, Note_on_c, 2, 62, 127
4, 21264, Note_on_c, 2, 69, 127
4, 21312, Note_on_c, 2, 69, 0
4, 21312, Note_on_c, 2, 62, 0
4, 21312, Note_on_c, 2, 62, 127
4, 21312, Note_on_c, 2, 72, 127
4, 21360, Note_on_c, 2, 72, 0
4, 21360, Note_on_c, 2, 71, 127
4, 21408, Note_on_c, 2, 71, 0
4, 21408, Note_on_c, 2, 62, 0
4, 21408, Note_on_c, 2, 62, 127
4, 21408, Note_on_c, 2, 69, 127
4, 21456, Note_on_c, 2, 69, 0
4, 21456, Note_on_c, 2, 62, 0
4, 21456, Note_on_c, 2, 62, 127
4, 21456, Note_on_c, 2, 72, 127
4, 21504, Note_on_c, 2, 72, 0
4, 21504, Note_on_c, 2, 71, 127
4, 21552, Note_on_c, 2, 71, 0
4, 21552, Note_on_c, 2, 62, 0
4, 21552, Note_on_c, 2, 62, 127
4, 21552, Note_on_c, 2, 69, 127
4, 21600, Note_on_c, 2, 69, 0
4, 21600, Note_on_c, 2, 62, 0
4, 21600, Note_on_c, 2, 65, 127
4, 21610, Note_on_c, 2, 66, 127
4, 21613, Note_on_c, 2, 65, 0
4, 21647, Note_on_c, 2, 66, 0
4, 21648, Note_on_c, 2, 74, 127
4, 21768, Note_on_c, 2, 74, 0
4, 21888, Note_on_c, 2, 57, 127
4, 21888, Note_on_c, 2, 62, 127
4, 21936, Note_on_c, 2, 62, 0
4, 21936, Note_on_c, 2, 57, 0
4, 21984, Note_on_c, 2, 57, 127
4, 21984, Note_on_c, 2, 59, 127
4, 22032, Note_on_c, 2, 59, 0
4, 22032, Note_on_c, 2, 57, 0
4, 22080, Note_on_c, 2, 57, 127
4, 22080, Note_on_c, 2, 62, 127
4, 22128, Note_on_c, 2, 62, 0
4, 22128, Note_on_c, 2, 57, 0
4, 22176, Note_on_c, 2, 57, 127
4, 22176, Note_on_c, 2, 59, 127
4, 22224, Note_on_c, 2, 59, 0
4, 22224, Note_on_c, 2, 57, 0
4, 22272, Note_on_c, 2, 62, 127
4, 22272, Note_on_c, 2, 57, 127
4, 22320, Note_on_c, 2, 57, 0
4, 22320, Note_on_c, 2, 62, 0
4, 22368, Note_on_c, 2, 57, 127
4, 22368, Note_on_c, 2, 59, 127
4, 22416, Note_on_c, 2, 59, 0
4, 22416, Note_on_c, 2, 57, 0
4, 22416, Note_on_c, 2, 62, 127
4, 22416, Note_on_c, 2, 57, 127
4, 22464, Note_on_c, 2, 57, 0
4, 22464, Note_on_c, 2, 62, 0
4, 22704, Note_on_c, 2, 55, 127
4, 22704, Note_on_c, 2, 62, 127
4, 22752, Note_on_c, 2, 62, 0
4, 22752, Note_on_c, 2, 55, 0
4, 22848, Note_on_c, 2, 55, 127
4, 22848, Note_on_c, 2, 62, 127
4, 22896, Note_on_c, 2, 62, 0
4, 22896, Note_on_c, 2, 55, 0
4, 23088, Note_on_c, 2, 55, 127
4, 23088, Note_on_c, 2, 62, 127
4, 23136, Note_on_c, 2, 62, 0
4, 23136, Note_on_c, 2, 55, 0
4, 23232, Note_on_c, 2, 62, 127
4, 23232, Note_on_c, 2, 55, 127
4, 23280, Note_on_c, 2, 55, 0
4, 23280, Note_on_c, 2, 62, 0
4, 23456, Pitch_bend_c, 2, 8192
4, 23472, Note_on_c, 2, 64, 127
4, 23478, Pitch_bend_c, 2, 8192
4, 23479, Pitch_bend_c, 2, 8320
4, 23488, Pitch_bend_c, 2, 9088
4, 23490, Pitch_bend_c, 2, 10112
4, 23492, Pitch_bend_c, 2, 10880
4, 23493, Pitch_bend_c, 2, 11264
4, 23494, Pitch_bend_c, 2, 11392
4, 23499, Pitch_bend_c, 2, 12416
4, 23501, Pitch_bend_c, 2, 13056
4, 23503, Pitch_bend_c, 2, 13184
4, 23506, Pitch_bend_c, 2, 13312
4, 23507, Pitch_bend_c, 2, 13568
4, 23508, Pitch_bend_c, 2, 13696
4, 23510, Pitch_bend_c, 2, 14080
4, 23511, Pitch_bend_c, 2, 14208
4, 23513, Pitch_bend_c, 2, 14464
4, 23514, Pitch_bend_c, 2, 14848
4, 23515, Pitch_bend_c, 2, 15488
4, 23517, Pitch_bend_c, 2, 15616
4, 23518, Pitch_bend_c, 2, 15872
4, 23520, Pitch_bend_c, 2, 16128
4, 23521, Pitch_bend_c, 2, 16383
4, 23568, Note_on_c, 2, 64, 0
4, 23568, Note_on_c, 2, 67, 127
4, 23616, Note_on_c, 2, 67, 0
4, 23616, Note_on_c, 2, 64, 127
4, 23629, Pitch_bend_c, 2, 16128
4, 23631, Pitch_bend_c, 2, 15872
4, 23632, Pitch_bend_c, 2, 15232
4, 23634, Pitch_bend_c, 2, 14720
4, 23635, Pitch_bend_c, 2, 13440
4, 23636, Pitch_bend_c, 2, 12928
4, 23638, Pitch_bend_c, 2, 11904
4, 23639, Pitch_bend_c, 2, 11392
4, 23641, Pitch_bend_c, 2, 10752
4, 23642, Pitch_bend_c, 2, 10496
4, 23643, Pitch_bend_c, 2, 10240
4, 23645, Pitch_bend_c, 2, 9728
4, 23646, Pitch_bend_c, 2, 9472
4, 23648, Pitch_bend_c, 2, 9216
4, 23649, Pitch_bend_c, 2, 9088
4, 23650, Pitch_bend_c, 2, 8832
4, 23652, Pitch_bend_c, 2, 8576
4, 23653, Pitch_bend_c, 2, 8448
4, 23654, Pitch_bend_c, 2, 8320
4, 23664, Note_on_c, 2, 64, 0
4, 23664, Note_on_c, 2, 62, 127
4, 23712, Note_on_c, 2, 62, 0
4, 23840, Pitch_bend_c, 2, 8192
4, 23856, Note_on_c, 2, 59, 127
4, 23862, Pitch_bend_c, 2, 8192
4, 23863, Pitch_bend_c, 2, 8320
4, 23872, Pitch_bend_c, 2, 9088
4, 23874, Pitch_bend_c, 2, 10112
4, 23876, Pitch_bend_c, 2, 10880
4, 23877, Pitch_bend_c, 2, 11264
4, 23878, Pitch_bend_c, 2, 11392
4, 23883, Pitch_bend_c, 2, 12416
4, 23885, Pitch_bend_c, 2, 13056
4, 23887, Pitch_bend_c, 2, 13184
4, 23890, Pitch_bend_c, 2, 13312
4, 23891, Pitch_bend_c, 2, 13568
4, 23892, Pitch_bend_c, 2, 13696
4, 23894, Pitch_bend_c, 2, 14080
4, 23895, Pitch_bend_c, 2, 14208
4, 23897, Pitch_bend_c, 2, 14464
4, 23898, Pitch_bend_c, 2, 14848
4, 23899, Pitch_bend_c, 2, 15488
4, 23901, Pitch_bend_c, 2, 15616
4, 23902, Pitch_bend_c, 2, 15872
4, 23904, Pitch_bend_c, 2, 16128
4, 23905, Pitch_bend_c, 2, 16383
4, 23952, Note_on_c, 2, 59, 0
4, 23952, Note_on_c, 2, 62, 127
4, 24000, Note_on_c, 2, 62, 0
4, 24000, Note_on_c, 2, 59, 127
4, 24013, Pitch_bend_c, 2, 16128
4, 24015, Pitch_bend_c, 2, 15872
4, 24016, Pitch_bend_c, 2, 15232
4, 24018, Pitch_bend_c, 2, 14720
4, 24019, Pitch_bend_c, 2, 13440
4, 24020, Pitch_bend_c, 2, 12928
4, 24022, Pitch_bend_c, 2, 11904
4, 24023, Pitch_bend_c, 2, 11392
4, 24025, Pitch_bend_c, 2, 10752
4, 24026, Pitch_bend_c, 2, 10496
4, 24027, Pitch_bend_c, 2, 10240
4, 24029, Pitch_bend_c, 2, 9728
4, 24030, Pitch_bend_c, 2, 9472
4, 24032, Pitch_bend_c, 2, 9216
4, 24033, Pitch_bend_c, 2, 9088
4, 24034, Pitch_bend_c, 2, 8832
4, 24036, Pitch_bend_c, 2, 8576
4, 24037, Pitch_bend_c, 2, 8448
4, 24038, Pitch_bend_c, 2, 8320
4, 24048, Note_on_c, 2, 59, 0
4, 24048, Note_on_c, 2, 57, 127
4, 24096, Note_on_c, 2, 57, 0
4, 24236, Pitch_bend_c, 2, 8576
4, 24237, Pitch_bend_c, 2, 8704
4, 24240, Pitch_bend_c, 2, 9088
4, 24240, Note_on_c, 2, 64, 127
4, 24242, Pitch_bend_c, 2, 9216
4, 24243, Pitch_bend_c, 2, 9472
4, 24244, Pitch_bend_c, 2, 10240
4, 24246, Pitch_bend_c, 2, 10496
4, 24247, Pitch_bend_c, 2, 11264
4, 24249, Pitch_bend_c, 2, 11392
4, 24250, Pitch_bend_c, 2, 11648
4, 24251, Pitch_bend_c, 2, 12416
4, 24253, Pitch_bend_c, 2, 12672
4, 24254, Pitch_bend_c, 2, 12928
4, 24256, Pitch_bend_c, 2, 13312
4, 24257, Pitch_bend_c, 2, 13568
4, 24258, Pitch_bend_c, 2, 14592
4, 24260, Pitch_bend_c, 2, 14848
4, 24261, Pitch_bend_c, 2, 15232
4, 24262, Pitch_bend_c, 2, 15744
4, 24264, Pitch_bend_c, 2, 16000
4, 24267, Pitch_bend_c, 2, 16256
4, 24268, Pitch_bend_c, 2, 16383
4, 24269, Pitch_bend_c, 2, 16383
4, 24322, Pitch_bend_c, 2, 8320
4, 24329, Note_on_c, 2, 64, 0
4, 24329, Pitch_bend_c, 2, 8192
4, 24336, Note_on_c, 2, 69, 127
4, 24336, Note_on_c, 2, 62, 127
4, 24384, Note_on_c, 2, 62, 0
4, 24384, Note_on_c, 2, 69, 0
4, 24384, Pitch_bend_c, 2, 8448
4, 24384, Note_on_c, 2, 64, 127
4, 24385, Pitch_bend_c, 2, 8576
4, 24388, Pitch_bend_c, 2, 9344
4, 24389, Pitch_bend_c, 2, 9600
4, 24390, Pitch_bend_c, 2, 9856
4, 24392, Pitch_bend_c, 2, 10112
4, 24393, Pitch_bend_c, 2, 10880
4, 24395, Pitch_bend_c, 2, 11136
4, 24397, Pitch_bend_c, 2, 11520
4, 24399, Pitch_bend_c, 2, 11776
4, 24400, Pitch_bend_c, 2, 11904
4, 24402, Pitch_bend_c, 2, 12160
4, 24404, Pitch_bend_c, 2, 12416
4, 24406, Pitch_bend_c, 2, 12544
4, 24407, Pitch_bend_c, 2, 13056
4, 24409, Pitch_bend_c, 2, 13312
4, 24410, Pitch_bend_c, 2, 13568
4, 24411, Pitch_bend_c, 2, 13952
4, 24413, Pitch_bend_c, 2, 14592
4, 24414, Pitch_bend_c, 2, 15744
4, 24416, Pitch_bend_c, 2, 16000
4, 24417, Pitch_bend_c, 2, 16383
4, 24470, Pitch_bend_c, 2, 16256
4, 24473, Note_on_c, 2, 64, 0
4, 24474, Pitch_bend_c, 2, 8448
4, 24480, Note_on_c, 2, 69, 127
4, 24514, Pitch_bend_c, 2, 8320
4, 24521, Pitch_bend_c, 2, 8192
4, 24523, Pitch_bend_c, 2, 8192
4, 24525, Pitch_bend_c, 2, 8320
4, 24527, Pitch_bend_c, 2, 8576
4, 24528, Note_on_c, 2, 69, 0
4, 24528, Note_on_c, 2, 64, 127
4, 24530, Pitch_bend_c, 2, 8704
4, 24531, Pitch_bend_c, 2, 8960
4, 24532, Pitch_bend_c, 2, 9216
4, 24534, Pitch_bend_c, 2, 9344
4, 24535, Pitch_bend_c, 2, 9472
4, 24537, Pitch_bend_c, 2, 9600
4, 24538, Pitch_bend_c, 2, 9728
4, 24539, Pitch_bend_c, 2, 9856
4, 24541, Pitch_bend_c, 2, 9984
4, 24542, Pitch_bend_c, 2, 10368
4, 24544, Pitch_bend_c, 2, 10496
4, 24545, Pitch_bend_c, 2, 11008
4, 24546, Pitch_bend_c, 2, 11136
4, 24548, Pitch_bend_c, 2, 11392
4, 24549, Pitch_bend_c, 2, 11776
4, 24550, Pitch_bend_c, 2, 12160
4, 24552, Pitch_bend_c, 2, 12288
4, 24553, Pitch_bend_c, 2, 13056
4, 24555, Pitch_bend_c, 2, 13440
4, 24556, Pitch_bend_c, 2, 13824
4, 24557, Pitch_bend_c, 2, 14336
4, 24559, Pitch_bend_c, 2, 14976
4, 24560, Pitch_bend_c, 2, 15104
4, 24562, Pitch_bend_c, 2, 15616
4, 24563, Pitch_bend_c, 2, 15744
4, 24564, Pitch_bend_c, 2, 16128
4, 24566, Pitch_bend_c, 2, 16256
4, 24567, Pitch_bend_c, 2, 16383
4, 24612, Pitch_bend_c, 2, 16256
4, 24613, Note_on_c, 2, 64, 0
4, 24614, Pitch_bend_c, 2, 16128
4, 24616, Pitch_bend_c, 2, 15744
4, 24617, Pitch_bend_c, 2, 9856
4, 24619, Pitch_bend_c, 2, 9344
4, 24620, Pitch_bend_c, 2, 8832
4, 24621, Pitch_bend_c, 2, 8704
4, 24623, Pitch_bend_c, 2, 8576
4, 24624, Pitch_bend_c, 2, 8448
4, 24624, Note_on_c, 2, 62, 127
4, 24624, Note_on_c, 2, 69, 127
4, 24672, Note_on_c, 2, 69, 0
4, 24672, Note_on_c, 2, 62, 0
4, 24672, Pitch_bend_c, 2, 8320
4, 24672, Note_on_c, 2, 64, 127
4, 24677, Pitch_bend_c, 2, 8704
4, 24680, Pitch_bend_c, 2, 8960
4, 24681, Pitch_bend_c, 2, 9472
4, 24683, Pitch_bend_c, 2, 9856
4, 24684, Pitch_bend_c, 2, 10112
4, 24685, Pitch_bend_c, 2, 11008
4, 24687, Pitch_bend_c, 2, 11264
4, 24688, Pitch_bend_c, 2, 11904
4, 24690, Pitch_bend_c, 2, 13568
4, 24691, Pitch_bend_c, 2, 14464
4, 24692, Pitch_bend_c, 2, 15104
4, 24694, Pitch_bend_c, 2, 15872
4, 24695, Pitch_bend_c, 2, 16128
4, 24697, Pitch_bend_c, 2, 16383
4, 24752, Pitch_bend_c, 2, 16256
4, 24754, Pitch_bend_c, 2, 16128
4, 24755, Pitch_bend_c, 2, 15744
4, 24756, Pitch_bend_c, 2, 11904
4, 24758, Note_on_c, 2, 64, 0
4, 24758, Pitch_bend_c, 2, 8320
4, 24768, Note_on_c, 2, 62, 127
4, 24857, Note_on_c, 2, 62, 0
4, 27504, Note_on_c, 2, 64, 127
4, 27550, Pitch_bend_c, 2, 8320
4, 27556, Pitch_bend_c, 2, 8448
4, 27558, Pitch_bend_c, 2, 8576
4, 27560, Pitch_bend_c, 2, 8832
4, 27561, Pitch_bend_c, 2, 8960
4, 27563, Pitch_bend_c, 2, 9088
4, 27564, Pitch_bend_c, 2, 9344
4, 27565, Pitch_bend_c, 2, 9728
4, 27567, Pitch_bend_c, 2, 9984
4, 27568, Pitch_bend_c, 2, 10368
4, 27570, Pitch_bend_c, 2, 10624
4, 27571, Pitch_bend_c, 2, 10752
4, 27572, Pitch_bend_c, 2, 11008
4, 27574, Pitch_bend_c, 2, 11264
4, 27575, Pitch_bend_c, 2, 11520
4, 27577, Pitch_bend_c, 2, 11776
4, 27578, Pitch_bend_c, 2, 12160
4, 27579, Pitch_bend_c, 2, 12288
4, 27581, Pitch_bend_c, 2, 12544
4, 27582, Pitch_bend_c, 2, 12928
4, 27584, Pitch_bend_c, 2, 13184
4, 27585, Pitch_bend_c, 2, 13440
4, 27586, Pitch_bend_c, 2, 13696
4, 27588, Pitch_bend_c, 2, 14592
4, 27589, Pitch_bend_c, 2, 14848
4, 27590, Pitch_bend_c, 2, 15104
4, 27592, Pitch_bend_c, 2, 15488
4, 27595, Pitch_bend_c, 2, 15872
4, 27596, Pitch_bend_c, 2, 16128
4, 27599, Pitch_bend_c, 2, 16383
4, 27648, Note_on_c, 2, 64, 0
4, 27648, Pitch_bend_c, 2, 8320
4, 27648, Note_on_c, 2, 69, 127
4, 27696, Note_on_c, 2, 69, 0
4, 27696, Note_on_c, 2, 64, 127
4, 27698, Pitch_bend_c, 2, 8192
4, 27699, Pitch_bend_c, 2, 8320
4, 27700, Pitch_bend_c, 2, 8448
4, 27702, Pitch_bend_c, 2, 8576
4, 27703, Pitch_bend_c, 2, 8704
4, 27705, Pitch_bend_c, 2, 8960
4, 27707, Pitch_bend_c, 2, 9344
4, 27709, Pitch_bend_c, 2, 9600
4, 27710, Pitch_bend_c, 2, 9728
4, 27712, Pitch_bend_c, 2, 10112
4, 27713, Pitch_bend_c, 2, 10496
4, 27714, Pitch_bend_c, 2, 10752
4, 27716, Pitch_bend_c, 2, 11264
4, 27717, Pitch_bend_c, 2, 11776
4, 27718, Pitch_bend_c, 2, 12544
4, 27720, Pitch_bend_c, 2, 12928
4, 27721, Pitch_bend_c, 2, 13440
4, 27723, Pitch_bend_c, 2, 13824
4, 27724, Pitch_bend_c, 2, 14720
4, 27725, Pitch_bend_c, 2, 15488
4, 27727, Pitch_bend_c, 2, 16128
4, 27728, Pitch_bend_c, 2, 16383
4, 27792, Note_on_c, 2, 64, 0
4, 27792, Note_on_c, 2, 67, 127
4, 27840, Note_on_c, 2, 67, 0
4, 27840, Note_on_c, 2, 64, 127
4, 27845, Pitch_bend_c, 2, 16128
4, 27846, Pitch_bend_c, 2, 16000
4, 27848, Pitch_bend_c, 2, 15744
4, 27849, Pitch_bend_c, 2, 15232
4, 27851, Pitch_bend_c, 2, 14464
4, 27852, Pitch_bend_c, 2, 13952
4, 27853, Pitch_bend_c, 2, 12416
4, 27855, Pitch_bend_c, 2, 11520
4, 27856, Pitch_bend_c, 2, 11008
4, 27858, Pitch_bend_c, 2, 10752
4, 27859, Pitch_bend_c, 2, 10112
4, 27860, Pitch_bend_c, 2, 9856
4, 27862, Pitch_bend_c, 2, 9344
4, 27863, Pitch_bend_c, 2, 9216
4, 27865, Pitch_bend_c, 2, 8960
4, 27866, Pitch_bend_c, 2, 8832
4, 27867, Pitch_bend_c, 2, 8704
4, 27869, Pitch_bend_c, 2, 8576
4, 27874, Pitch_bend_c, 2, 8448
4, 27888, Note_on_c, 2, 64, 0
4, 27888, Note_on_c, 2, 62, 127
4, 27936, Note_on_c, 2, 62, 0
4, 27936, Note_on_c, 2, 59, 127
4, 27984, Note_on_c, 2, 59, 0
4, 27984, Note_on_c, 2, 57, 127
4, 28032, Note_on_c, 2, 57, 0
4, 28080, Note_on_c, 2, 57, 97
4, 28080, Note_on_c, 2, 62, 97
4, 28128, Note_on_c, 2, 62, 0
4, 28128, Note_on_c, 2, 57, 0
4, 28128, Note_on_c, 2, 57, 97
4, 28128, Note_on_c, 2, 59, 97
4, 28176, Note_on_c, 2, 59, 0
4, 28176, Note_on_c, 2, 57, 0
4, 28224, Note_on_c, 2, 57, 97
4, 28224, Note_on_c, 2, 62, 97
4, 28272, Note_on_c, 2, 62, 0
4, 28272, Note_on_c, 2, 57, 0
4, 28320, Note_on_c, 2, 57, 97
4, 28320, Note_on_c, 2, 59, 97
4, 28368, Note_on_c, 2, 59, 0
4, 28368, Note_on_c, 2, 57, 0
4, 28416, Note_on_c, 2, 62, 97
4, 28416, Note_on_c, 2, 57, 97
4, 28464, Note_on_c, 2, 57, 0
4, 28464, Note_on_c, 2, 62, 0
4, 28512, Note_on_c, 2, 57, 97
4, 28512, Note_on_c, 2, 59, 97
4, 28560, Note_on_c, 2, 59, 0
4, 28560, Note_on_c, 2, 57, 0
4, 28608, Note_on_c, 2, 62, 97
4, 28608, Note_on_c, 2, 57, 97
4, 28656, Note_on_c, 2, 57, 0
4, 28656, Note_on_c, 2, 62, 0
4, 28704, Note_on_c, 2, 57, 97
4, 28704, Note_on_c, 2, 59, 97
4, 28752, Note_on_c, 2, 59, 0
4, 28752, Note_on_c, 2, 57, 0
4, 28752, Note_on_c, 2, 62, 97
4, 28752, Note_on_c, 2, 67, 97
4, 28800, Note_on_c, 2, 67, 0
4, 28800, Note_on_c, 2, 62, 0
4, 28848, Note_on_c, 2, 67, 97
4, 28848, Note_on_c, 2, 62, 97
4, 28896, Note_on_c, 2, 62, 0
4, 28896, Note_on_c, 2, 67, 0
4, 28896, Note_on_c, 2, 67, 97
4, 28896, Note_on_c, 2, 64, 97
4, 28944, Note_on_c, 2, 64, 0
4, 28944, Note_on_c, 2, 67, 0
4, 28992, Note_on_c, 2, 67, 97
4, 28992, Note_on_c, 2, 62, 97
4, 29040, Note_on_c, 2, 62, 0
4, 29040, Note_on_c, 2, 67, 0
4, 29088, Note_on_c, 2, 67, 97
4, 29088, Note_on_c, 2, 64, 97
4, 29136, Note_on_c, 2, 64, 0
4, 29136, Note_on_c, 2, 67, 0
4, 29136, Note_on_c, 2, 62, 97
4, 29136, Note_on_c, 2, 67, 97
4, 29184, Note_on_c, 2, 67, 0
4, 29184, Note_on_c, 2, 62, 0
4, 29232, Note_on_c, 2, 67, 97
4, 29232, Note_on_c, 2, 62, 97
4, 29280, Note_on_c, 2, 62, 0
4, 29280, Note_on_c, 2, 67, 0
4, 29280, Note_on_c, 2, 64, 97
4, 29280, Note_on_c, 2, 67, 97
4, 29328, Note_on_c, 2, 67, 0
4, 29328, Note_on_c, 2, 64, 0
4, 29376, Note_on_c, 2, 62, 97
4, 29376, Note_on_c, 2, 67, 97
4, 29424, Note_on_c, 2, 67, 0
4, 29424, Note_on_c, 2, 62, 0
4, 29472, Note_on_c, 2, 64, 97
4, 29472, Note_on_c, 2, 67, 97
4, 29520, Note_on_c, 2, 67, 0
4, 29520, Note_on_c, 2, 64, 0
4, 29568, Pitch_bend_c, 2, 8320
4, 29568, Note_on_c, 2, 62, 97
4, 29568, Note_on_c, 2, 57, 97
4, 29616, Note_on_c, 2, 57, 0
4, 29616, Note_on_c, 2, 62, 0
4, 29664, Note_on_c, 2, 59, 97
4, 29664, Note_on_c, 2, 62, 97
4, 29712, Note_on_c, 2, 62, 0
4, 29712, Note_on_c, 2, 59, 0
4, 29760, Note_on_c, 2, 62, 97
4, 29760, Note_on_c, 2, 57, 97
4, 29808, Note_on_c, 2, 57, 0
4, 29808, Note_on_c, 2, 62, 0
4, 29856, Note_on_c, 2, 59, 97
4, 29856, Note_on_c, 2, 62, 97
4, 29904, Note_on_c, 2, 62, 0
4, 29904, Note_on_c, 2, 59, 0
4, 29952, Note_on_c, 2, 64, 97
4, 29952, Note_on_c, 2, 57, 97
4, 30000, Note_on_c, 2, 57, 0
4, 30000, Note_on_c, 2, 64, 0
4, 30048, Note_on_c, 2, 57, 97
4, 30048, Note_on_c, 2, 66, 97
4, 30096, Note_on_c, 2, 66, 0
4, 30096, Note_on_c, 2, 57, 0
4, 30144, Note_on_c, 2, 57, 97
4, 30144, Note_on_c, 2, 64, 97
4, 30192, Note_on_c, 2, 64, 0
4, 30192, Note_on_c, 2, 57, 0
4, 30240, Note_on_c, 2, 57, 97
4, 30240, Note_on_c, 2, 66, 97
4, 30288, Note_on_c, 2, 66, 0
4, 30288, Note_on_c, 2, 57, 0
4, 30336, Pitch_bend_c, 2, 8192
4, 30380, Pitch_bend_c, 2, 8576
4, 30381, Pitch_bend_c, 2, 8704
4, 30384, Pitch_bend_c, 2, 9088
4, 30384, Note_on_c, 2, 64, 127
4, 30386, Pitch_bend_c, 2, 9216
4, 30387, Pitch_bend_c, 2, 9472
4, 30388, Pitch_bend_c, 2, 10240
4, 30390, Pitch_bend_c, 2, 10496
4, 30391, Pitch_bend_c, 2, 11264
4, 30393, Pitch_bend_c, 2, 11392
4, 30394, Pitch_bend_c, 2, 11648
4, 30395, Pitch_bend_c, 2, 12416
4, 30397, Pitch_bend_c, 2, 12672
4, 30398, Pitch_bend_c, 2, 12928
4, 30400, Pitch_bend_c, 2, 13312
4, 30401, Pitch_bend_c, 2, 13568
4, 30402, Pitch_bend_c, 2, 14592
4, 30404, Pitch_bend_c, 2, 14848
4, 30405, Pitch_bend_c, 2, 15232
4, 30406, Pitch_bend_c, 2, 15744
4, 30408, Pitch_bend_c, 2, 16000
4, 30411, Pitch_bend_c, 2, 16256
4, 30412, Pitch_bend_c, 2, 16383
4, 30413, Pitch_bend_c, 2, 16383
4, 30466, Pitch_bend_c, 2, 8320
4, 30473, Note_on_c, 2, 64, 0
4, 30473, Pitch_bend_c, 2, 8192
4, 30480, Note_on_c, 2, 69, 127
4, 30480, Note_on_c, 2, 62, 127
4, 30528, Note_on_c, 2, 62, 0
4, 30528, Note_on_c, 2, 69, 0
4, 30528, Pitch_bend_c, 2, 8448
4, 30528, Note_on_c, 2, 64, 127
4, 30529, Pitch_bend_c, 2, 8576
4, 30532, Pitch_bend_c, 2, 9344
4, 30533, Pitch_bend_c, 2, 9600
4, 30534, Pitch_bend_c, 2, 9856
4, 30536, Pitch_bend_c, 2, 10112
4, 30537, Pitch_bend_c, 2, 10880
4, 30539, Pitch_bend_c, 2, 11136
4, 30541, Pitch_bend_c, 2, 11520
4, 30543, Pitch_bend_c, 2, 11776
4, 30544, Pitch_bend_c, 2, 11904
4, 30546, Pitch_bend_c, 2, 12160
4, 30548, Pitch_bend_c, 2, 12416
4, 30550, Pitch_bend_c, 2, 12544
4, 30551, Pitch_bend_c, 2, 13056
4, 30553, Pitch_bend_c, 2, 13312
4, 30554, Pitch_bend_c, 2, 13568
4, 30555, Pitch_bend_c, 2, 13952
4, 30557, Pitch_bend_c, 2, 14592
4, 30558, Pitch_bend_c, 2, 15744
4, 30560, Pitch_bend_c, 2, 16000
4, 30561, Pitch_bend_c, 2, 16383
4, 30614, Pitch_bend_c, 2, 16256
4, 30617, Note_on_c, 2, 64, 0
4, 30618, Pitch_bend_c, 2, 8448
4, 30624, Note_on_c, 2, 69, 127
4, 30658, Pitch_bend_c, 2, 8320
4, 30665, Pitch_bend_c, 2, 8192
4, 30667, Pitch_bend_c, 2, 8192
4, 30669, Pitch_bend_c, 2, 8320
4, 30671, Pitch_bend_c, 2, 8576
4, 30672, Note_on_c, 2, 69, 0
4, 30672, Note_on_c, 2, 64, 127
4, 30674, Pitch_bend_c, 2, 8704
4, 30675, Pitch_bend_c, 2, 8960
4, 30676, Pitch_bend_c, 2, 9216
4, 30678, Pitch_bend_c, 2, 9344
4, 30679, Pitch_bend_c, 2, 9472
4, 30681, Pitch_bend_c, 2, 9600
4, 30682, Pitch_bend_c, 2, 9728
4, 30683, Pitch_bend_c, 2, 9856
4, 30685, Pitch_bend_c, 2, 9984
4, 30686, Pitch_bend_c, 2, 10368
4, 30688, Pitch_bend_c, 2, 10496
4, 30689, Pitch_bend_c, 2, 11008
4, 30690, Pitch_bend_c, 2, 11136
4, 30692, Pitch_bend_c, 2, 11392
4, 30693, Pitch_bend_c, 2, 11776
4, 30694, Pitch_bend_c, 2, 12160
4, 30696, Pitch_bend_c, 2, 12288
4, 30697, Pitch_bend_c, 2, 13056
4, 30699, Pitch_bend_c, 2, 13440
4, 30700, Pitch_bend_c, 2, 13824
4, 30701, Pitch_bend_c, 2, 14336
4, 30703, Pitch_bend_c, 2, 14976
4, 30704, Pitch_bend_c, 2, 15104
4, 30706, Pitch_bend_c, 2, 15616
4, 30707, Pitch_bend_c, 2, 15744
4, 30708, Pitch_bend_c, 2, 16128
4, 30710, Pitch_bend_c, 2, 16256
4, 30711, Pitch_bend_c, 2, 16383
4, 30756, Pitch_bend_c, 2, 16256
4, 30757, Note_on_c, 2, 64, 0
4, 30758, Pitch_bend_c, 2, 16128
4, 30760, Pitch_bend_c, 2, 15744
4, 30761, Pitch_bend_c, 2, 9856
4, 30763, Pitch_bend_c, 2, 9344
4, 30764, Pitch_bend_c, 2, 8832
4, 30765, Pitch_bend_c, 2, 8704
4, 30767, Pitch_bend_c, 2, 8576
4, 30768, Pitch_bend_c, 2, 8448
4, 30768, Note_on_c, 2, 62, 127
4, 30768, Note_on_c, 2, 69, 127
4, 30816, Note_on_c, 2, 69, 0
4, 30816, Note_on_c, 2, 62, 0
4, 30816, Pitch_bend_c, 2, 8320
4, 30816, Note_on_c, 2, 64, 127
4, 30821, Pitch_bend_c, 2, 8704
4, 30824, Pitch_bend_c, 2, 8960
4, 30825, Pitch_bend_c, 2, 9472
4, 30827, Pitch_bend_c, 2, 9856
4, 30828, Pitch_bend_c, 2, 10112
4, 30829, Pitch_bend_c, 2, 11008
4, 30831, Pitch_bend_c, 2, 11264
4, 30832, Pitch_bend_c, 2, 11904
4, 30834, Pitch_bend_c, 2, 13568
4, 30835, Pitch_bend_c, 2, 14464
4, 30836, Pitch_bend_c, 2, 15104
4, 30838, Pitch_bend_c, 2, 15872
4, 30839, Pitch_bend_c, 2, 16128
4, 30841, Pitch_bend_c, 2, 16383
4, 30896, Pitch_bend_c, 2, 16256
4, 30898, Pitch_bend_c, 2, 16128
4, 30899, Pitch_bend_c, 2, 15744
4, 30900, Pitch_bend_c, 2, 11904
4, 30902, Note_on_c, 2, 64, 0
4, 30902, Pitch_bend_c, 2, 8320
4, 30912, Note_on_c, 2, 69, 127
4, 30912, Note_on_c, 2, 66, 127
4, 30960, Note_on_c, 2, 66, 0
4, 30960, Note_on_c, 2, 69, 0
4, 30960, Note_on_c, 2, 64, 127
4, 30962, Pitch_bend_c, 2, 8192
4, 30966, Pitch_bend_c, 2, 8448
4, 30968, Pitch_bend_c, 2, 8704
4, 30971, Pitch_bend_c, 2, 8832
4, 30973, Pitch_bend_c, 2, 9856
4, 30975, Pitch_bend_c, 2, 10112
4, 30977, Pitch_bend_c, 2, 10368
4, 30979, Pitch_bend_c, 2, 11136
4, 30980, Pitch_bend_c, 2, 11904
4, 30982, Pitch_bend_c, 2, 12160
4, 30984, Pitch_bend_c, 2, 12672
4, 30986, Pitch_bend_c, 2, 12800
4, 30988, Pitch_bend_c, 2, 13440
4, 30989, Pitch_bend_c, 2, 13568
4, 30991, Pitch_bend_c, 2, 14080
4, 30993, Pitch_bend_c, 2, 14336
4, 30995, Pitch_bend_c, 2, 14848
4, 30997, Pitch_bend_c, 2, 15232
4, 30998, Pitch_bend_c, 2, 15744
4, 31000, Pitch_bend_c, 2, 16000
4, 31002, Pitch_bend_c, 2, 16256
4, 31004, Pitch_bend_c, 2, 16383
4, 31056, Note_on_c, 2, 64, 0
4, 34992, Note_on_c, 2, 64, 127
4, 35000, Pitch_bend_c, 2, 8832
4, 35004, Pitch_bend_c, 2, 9216
4, 35005, Pitch_bend_c, 2, 9472
4, 35007, Pitch_bend_c, 2, 9728
4, 35009, Pitch_bend_c, 2, 9856
4, 35010, Pitch_bend_c, 2, 10112
4, 35012, Pitch_bend_c, 2, 10752
4, 35014, Pitch_bend_c, 2, 11136
4, 35016, Pitch_bend_c, 2, 11776
4, 35017, Pitch_bend_c, 2, 12160
4, 35019, Pitch_bend_c, 2, 13056
4, 35021, Pitch_bend_c, 2, 13440
4, 35022, Pitch_bend_c, 2, 13952
4, 35024, Pitch_bend_c, 2, 14720
4, 35026, Pitch_bend_c, 2, 15104
4, 35028, Pitch_bend_c, 2, 15488
4, 35029, Pitch_bend_c, 2, 16383
4, 35040, Note_on_c, 2, 64, 0
4, 35040, Note_on_c, 2, 67, 127
4, 35046, Pitch_bend_c, 2, 16383
4, 35088, Note_on_c, 2, 67, 0
4, 35136, Note_on_c, 2, 64, 127
4, 35156, Pitch_bend_c, 2, 16256
4, 35158, Pitch_bend_c, 2, 15872
4, 35160, Pitch_bend_c, 2, 15744
4, 35161, Pitch_bend_c, 2, 15360
4, 35163, Pitch_bend_c, 2, 14336
4, 35165, Pitch_bend_c, 2, 12928
4, 35166, Pitch_bend_c, 2, 12544
4, 35168, Pitch_bend_c, 2, 11904
4, 35170, Pitch_bend_c, 2, 10112
4, 35172, Pitch_bend_c, 2, 9600
4, 35173, Pitch_bend_c, 2, 9344
4, 35175, Pitch_bend_c, 2, 8448
4, 35177, Pitch_bend_c, 2, 8320
4, 35184, Note_on_c, 2, 64, 0
4, 35184, Note_on_c, 2, 62, 127
4, 35232, Note_on_c, 2, 62, 0
4, 35232, Note_on_c, 2, 59, 127
4, 35280, Note_on_c, 2, 59, 0
4, 35280, Note_on_c, 2, 62, 127
4, 35328, Note_on_c, 2, 62, 0
4, 35328, Note_on_c, 2, 64, 127
4, 35367, Note_on_c, 2, 64, 0
4, 35370, Pitch_bend_c, 2, 8192
4, 35376, Note_on_c, 2, 64, 127
4, 35381, Pitch_bend_c, 2, 8320
4, 35382, Pitch_bend_c, 2, 8576
4, 35384, Pitch_bend_c, 2, 8832
4, 35386, Pitch_bend_c, 2, 9216
4, 35388, Pitch_bend_c, 2, 9600
4, 35389, Pitch_bend_c, 2, 9984
4, 35391, Pitch_bend_c, 2, 11776
4, 35393, Pitch_bend_c, 2, 14208
4, 35394, Pitch_bend_c, 2, 14592
4, 35396, Pitch_bend_c, 2, 15104
4, 35398, Pitch_bend_c, 2, 15616
4, 35400, Pitch_bend_c, 2, 16000
4, 35401, Pitch_bend_c, 2, 16128
4, 35406, Pitch_bend_c, 2, 14208
4, 35408, Pitch_bend_c, 2, 13824
4, 35410, Pitch_bend_c, 2, 12800
4, 35412, Pitch_bend_c, 2, 11648
4, 35413, Pitch_bend_c, 2, 10624
4, 35415, Pitch_bend_c, 2, 9344
4, 35417, Pitch_bend_c, 2, 8960
4, 35418, Pitch_bend_c, 2, 8832
4, 35420, Pitch_bend_c, 2, 8704
4, 35424, Pitch_bend_c, 2, 8576
4, 35427, Pitch_bend_c, 2, 8448
4, 35437, Pitch_bend_c, 2, 8576
4, 35441, Pitch_bend_c, 2, 8576
4, 35448, Note_on_c, 2, 64, 0
4, 35472, Pitch_bend_c, 2, 8576
4, 35472, Note_on_c, 2, 64, 127
4, 35473, Pitch_bend_c, 2, 8704
4, 35475, Pitch_bend_c, 2, 8832
4, 35477, Pitch_bend_c, 2, 9088
4, 35478, Pitch_bend_c, 2, 9344
4, 35480, Pitch_bend_c, 2, 9472
4, 35482, Pitch_bend_c, 2, 9856
4, 35484, Pitch_bend_c, 2, 9984
4, 35485, Pitch_bend_c, 2, 10368
4, 35487, Pitch_bend_c, 2, 10496
4, 35489, Pitch_bend_c, 2, 10880
4, 35490, Pitch_bend_c, 2, 11136
4, 35492, Pitch_bend_c, 2, 11776
4, 35494, Pitch_bend_c, 2, 12160
4, 35496, Pitch_bend_c, 2, 12288
4, 35497, Pitch_bend_c, 2, 12800
4, 35499, Pitch_bend_c, 2, 13312
4, 35501, Pitch_bend_c, 2, 13696
4, 35502, Pitch_bend_c, 2, 14336
4, 35504, Pitch_bend_c, 2, 14976
4, 35506, Pitch_bend_c, 2, 15360
4, 35508, Pitch_bend_c, 2, 15872
4, 35509, Pitch_bend_c, 2, 16128
4, 35511, Pitch_bend_c, 2, 16383
4, 35544, Note_on_c, 2, 64, 0
4, 35544, Pitch_bend_c, 2, 8448
4, 35545, Pitch_bend_c, 2, 8192
4, 35616, Note_on_c, 2, 59, 127
4, 35655, Note_on_c, 2, 59, 0
4, 35667, Note_on_c, 2, 62, 127
4, 35706, Note_on_c, 2, 62, 0
4, 35712, Note_on_c, 2, 64, 127
4, 35713, Pitch_bend_c, 2, 8704
4, 35715, Pitch_bend_c, 2, 8960
4, 35717, Pitch_bend_c, 2, 9088
4, 35718, Pitch_bend_c, 2, 9216
4, 35720, Pitch_bend_c, 2, 9600
4, 35722, Pitch_bend_c, 2, 9856
4, 35724, Pitch_bend_c, 2, 10112
4, 35725, Pitch_bend_c, 2, 10240
4, 35727, Pitch_bend_c, 2, 10752
4, 35729, Pitch_bend_c, 2, 11008
4, 35730, Pitch_bend_c, 2, 11520
4, 35732, Pitch_bend_c, 2, 12032
4, 35734, Pitch_bend_c, 2, 12800
4, 35736, Pitch_bend_c, 2, 13056
4, 35737, Pitch_bend_c, 2, 14080
4, 35739, Pitch_bend_c, 2, 14848
4, 35741, Pitch_bend_c, 2, 15872
4, 35742, Pitch_bend_c, 2, 16383
4, 35760, Pitch_bend_c, 2, 13056
4, 35761, Pitch_bend_c, 2, 8192
4, 35763, Note_on_c, 2, 64, 0
4, 35808, Pitch_bend_c, 2, 8448
4, 35809, Note_on_c, 2, 64, 127
4, 35811, Pitch_bend_c, 2, 8576
4, 35813, Pitch_bend_c, 2, 8704
4, 35814, Pitch_bend_c, 2, 8832
4, 35816, Pitch_bend_c, 2, 9088
4, 35818, Pitch_bend_c, 2, 9344
4, 35821, Pitch_bend_c, 2, 9728
4, 35823, Pitch_bend_c, 2, 9984
4, 35825, Pitch_bend_c, 2, 10240
4, 35826, Pitch_bend_c, 2, 10496
4, 35828, Pitch_bend_c, 2, 10880
4, 35830, Pitch_bend_c, 2, 11392
4, 35832, Pitch_bend_c, 2, 11904
4, 35833, Pitch_bend_c, 2, 12160
4, 35835, Pitch_bend_c, 2, 13056
4, 35837, Pitch_bend_c, 2, 14336
4, 35840, Pitch_bend_c, 2, 15104
4, 35842, Pitch_bend_c, 2, 16128
4, 35844, Pitch_bend_c, 2, 16383
4, 35860, Note_on_c, 2, 64, 0
4, 35873, Pitch_bend_c, 2, 8192
4, 35904, Note_on_c, 2, 64, 127
4, 35952, Note_on_c, 2, 64, 0
4, 35955, Note_on_c, 2, 62, 127
4, 36001, Note_on_c, 2, 59, 127
4, 36003, Note_on_c, 2, 62, 0
4, 36044, Note_on_c, 2, 62, 127
4, 36049, Note_on_c, 2, 59, 0
4, 36092, Note_on_c, 2, 62, 0
4, 36097, Note_on_c, 2, 52, 127
4, 36138, Note_on_c, 2, 52, 0
4, 36144, Note_on_c, 2, 52, 127
4, 36145, Pitch_bend_c, 2, 8448
4, 36147, Pitch_bend_c, 2, 8576
4, 36149, Pitch_bend_c, 2, 8960
4, 36150, Pitch_bend_c, 2, 9088
4, 36152, Pitch_bend_c, 2, 10240
4, 36154, Pitch_bend_c, 2, 11008
4, 36156, Pitch_bend_c, 2, 12544
4, 36157, Pitch_bend_c, 2, 12928
4, 36159, Pitch_bend_c, 2, 13440
4, 36161, Pitch_bend_c, 2, 13696
4, 36162, Pitch_bend_c, 2, 14336
4, 36164, Pitch_bend_c, 2, 14592
4, 36166, Pitch_bend_c, 2, 15232
4, 36168, Pitch_bend_c, 2, 15488
4, 36169, Pitch_bend_c, 2, 15744
4, 36171, Pitch_bend_c, 2, 16128
4, 36173, Pitch_bend_c, 2, 16256
4, 36174, Pitch_bend_c, 2, 16383
4, 36188, Pitch_bend_c, 2, 16256
4, 36190, Pitch_bend_c, 2, 16128
4, 36192, Pitch_bend_c, 2, 16000
4, 36193, Pitch_bend_c, 2, 15616
4, 36195, Pitch_bend_c, 2, 14976
4, 36197, Pitch_bend_c, 2, 14208
4, 36198, Pitch_bend_c, 2, 13824
4, 36200, Pitch_bend_c, 2, 12160
4, 36202, Pitch_bend_c, 2, 11136
4, 36204, Pitch_bend_c, 2, 10240
4, 36205, Pitch_bend_c, 2, 9728
4, 36207, Pitch_bend_c, 2, 9344
4, 36209, Pitch_bend_c, 2, 8832
4, 36210, Pitch_bend_c, 2, 8576
4, 36230, Note_on_c, 2, 52, 0
4, 36240, Note_on_c, 2, 50, 127
4, 36864, Note_on_c, 2, 50, 0
4, 36864, End_track
5, 0, Start_track
5, 0, MIDI_port, 0
5, 0, Title_t, "Melody"
5, 0, Program_c, 3, 66
5, 0, Control_c, 3, 7, 112
5, 1, Program_c, 3, 66
5, 3, Control_c, 3, 91, 80
5, 3, Control_c, 3, 7, 112
5, 3312, Note_on_c, 3, 69, 127
5, 3408, Note_on_c, 3, 69, 0
5, 3408, Note_on_c, 3, 66, 127
5, 3456, Note_on_c, 3, 66, 0
5, 3456, Note_on_c, 3, 69, 127
5, 3504, Note_on_c, 3, 69, 0
5, 3504, Note_on_c, 3, 66, 127
5, 3552, Note_on_c, 3, 66, 0
5, 3552, Note_on_c, 3, 69, 127
5, 3600, Note_on_c, 3, 69, 0
5, 3600, Note_on_c, 3, 66, 127
5, 3648, Note_on_c, 3, 66, 0
5, 3648, Note_on_c, 3, 69, 127
5, 3696, Note_on_c, 3, 69, 0
5, 3696, Note_on_c, 3, 66, 127
5, 3744, Note_on_c, 3, 66, 0
5, 3744, Note_on_c, 3, 69, 127
5, 3792, Note_on_c, 3, 69, 0
5, 3792, Note_on_c, 3, 66, 127
5, 3840, Note_on_c, 3, 66, 0
5, 3840, Note_on_c, 3, 69, 127
5, 3888, Note_on_c, 3, 69, 0
5, 3888, Note_on_c, 3, 71, 127
5, 3936, Note_on_c, 3, 71, 0
5, 3984, Note_on_c, 3, 66, 127
5, 4032, Note_on_c, 3, 66, 0
5, 4176, Note_on_c, 3, 66, 127
5, 4224, Note_on_c, 3, 66, 0
5, 4272, Note_on_c, 3, 66, 127
5, 4320, Note_on_c, 3, 66, 0
5, 4320, Note_on_c, 3, 64, 127
5, 4368, Note_on_c, 3, 64, 0
5, 4368, Note_on_c, 3, 62, 127
5, 4416, Note_on_c, 3, 62, 0
5, 4512, Note_on_c, 3, 64, 127
5, 4560, Note_on_c, 3, 64, 0
5, 4560, Note_on_c, 3, 62, 127
5, 4608, Note_on_c, 3, 62, 0
5, 4608, Note_on_c, 3, 66, 127
5, 4656, Note_on_c, 3, 66, 0
5, 4656, Note_on_c, 3, 66, 127
5, 4704, Note_on_c, 3, 66, 0
5, 4704, Note_on_c, 3, 64, 127
5, 4752, Note_on_c, 3, 64, 0
5, 4752, Note_on_c, 3, 62, 127
5, 4848, Note_on_c, 3, 62, 0
5, 4848, Note_on_c, 3, 62, 127
5, 4896, Note_on_c, 3, 62, 0
5, 4896, Note_on_c, 3, 59, 127
5, 4944, Note_on_c, 3, 59, 0
5, 4944, Note_on_c, 3, 57, 127
5, 5136, Note_on_c, 3, 57, 0
5, 5136, Note_on_c, 3, 62, 127
5, 5184, Note_on_c, 3, 62, 0
5, 5328, Note_on_c, 3, 69, 127
5, 5376, Note_on_c, 3, 69, 0
5, 5424, Note_on_c, 3, 69, 127
5, 5472, Note_on_c, 3, 69, 0
5, 5472, Note_on_c, 3, 69, 127
5, 5520, Note_on_c, 3, 69, 0
5, 5520, Note_on_c, 3, 69, 127
5, 5616, Note_on_c, 3, 69, 0
5, 5616, Note_on_c, 3, 66, 127
5, 5664, Note_on_c, 3, 66, 0
5, 5664, Note_on_c, 3, 64, 127
5, 5712, Note_on_c, 3, 64, 0
5, 5712, Note_on_c, 3, 62, 127
5, 5808, Note_on_c, 3, 62, 0
5, 6384, Note_on_c, 3, 69, 127
5, 6480, Note_on_c, 3, 69, 0
5, 6480, Note_on_c, 3, 66, 127
5, 6528, Note_on_c, 3, 66, 0
5, 6528, Note_on_c, 3, 69, 127
5, 6576, Note_on_c, 3, 69, 0
5, 6576, Note_on_c, 3, 66, 127
5, 6624, Note_on_c, 3, 66, 0
5, 6624, Note_on_c, 3, 69, 127
5, 6672, Note_on_c, 3, 69, 0
5, 6672, Note_on_c, 3, 66, 127
5, 6720, Note_on_c, 3, 66, 0
5, 6720, Note_on_c, 3, 69, 127
5, 6768, Note_on_c, 3, 69, 0
5, 6768, Note_on_c, 3, 66, 127
5, 6816, Note_on_c, 3, 66, 0
5, 6816, Note_on_c, 3, 69, 127
5, 6864, Note_on_c, 3, 69, 0
5, 6864, Note_on_c, 3, 66, 127
5, 6912, Note_on_c, 3, 66, 0
5, 6912, Note_on_c, 3, 69, 127
5, 6960, Note_on_c, 3, 69, 0
5, 6960, Note_on_c, 3, 71, 127
5, 7008, Note_on_c, 3, 71, 0
5, 7056, Note_on_c, 3, 66, 127
5, 7104, Note_on_c, 3, 66, 0
5, 7248, Note_on_c, 3, 66, 127
5, 7296, Note_on_c, 3, 66, 0
5, 7344, Note_on_c, 3, 66, 127
5, 7392, Note_on_c, 3, 66, 0
5, 7392, Note_on_c, 3, 64, 127
5, 7440, Note_on_c, 3, 64, 0
5, 7440, Note_on_c, 3, 62, 127
5, 7488, Note_on_c, 3, 62, 0
5, 7584, Note_on_c, 3, 64, 127
5, 7632, Note_on_c, 3, 64, 0
5, 7632, Note_on_c, 3, 62, 127
5, 7680, Note_on_c, 3, 62, 0
5, 7680, Note_on_c, 3, 66, 127
5, 7728, Note_on_c, 3, 66, 0
5, 7728, Note_on_c, 3, 66, 127
5, 7776, Note_on_c, 3, 66, 0
5, 7776, Note_on_c, 3, 64, 127
5, 7824, Note_on_c, 3, 64, 0
5, 7824, Note_on_c, 3, 62, 127
5, 7920, Note_on_c, 3, 62, 0
5, 7920, Note_on_c, 3, 62, 127
5, 7968, Note_on_c, 3, 62, 0
5, 7968, Note_on_c, 3, 59, 127
5, 8016, Note_on_c, 3, 59, 0
5, 8016, Note_on_c, 3, 57, 127
5, 8208, Note_on_c, 3, 57, 0
5, 8208, Note_on_c, 3, 62, 127
5, 8256, Note_on_c, 3, 62, 0
5, 8400, Note_on_c, 3, 69, 127
5, 8448, Note_on_c, 3, 69, 0
5, 8496, Note_on_c, 3, 69, 127
5, 8544, Note_on_c, 3, 69, 0
5, 8544, Note_on_c, 3, 69, 127
5, 8592, Note_on_c, 3, 69, 0
5, 8592, Note_on_c, 3, 69, 127
5, 8688, Note_on_c, 3, 69, 0
5, 8688, Note_on_c, 3, 66, 127
5, 8736, Note_on_c, 3, 66, 0
5, 8736, Note_on_c, 3, 64, 127
5, 8784, Note_on_c, 3, 64, 0
5, 8784, Note_on_c, 3, 62, 127
5, 8880, Note_on_c, 3, 62, 0
5, 9504, Note_on_c, 3, 69, 100
5, 9552, Note_on_c, 3, 69, 0
5, 9552, Note_on_c, 3, 66, 100
5, 9600, Note_on_c, 3, 66, 0
5, 9600, Note_on_c, 3, 69, 127
5, 9646, Note_on_c, 3, 69, 0
5, 9649, Note_on_c, 3, 69, 127
5, 9697, Note_on_c, 3, 69, 0
5, 9697, Note_on_c, 3, 66, 127
5, 9745, Note_on_c, 3, 66, 0
5, 9747, Note_on_c, 3, 69, 127
5, 9795, Note_on_c, 3, 69, 0
5, 9842, Note_on_c, 3, 69, 127
5, 9888, Note_on_c, 3, 66, 127
5, 9890, Note_on_c, 3, 69, 0
5, 9936, Note_on_c, 3, 66, 0
5, 9940, Note_on_c, 3, 69, 127
5, 9988, Note_on_c, 3, 69, 0
5, 10032, Note_on_c, 3, 69, 127
5, 10080, Note_on_c, 3, 69, 0
5, 10080, Note_on_c, 3, 66, 127
5, 10128, Note_on_c, 3, 66, 0
5, 10128, Note_on_c, 3, 69, 127
5, 10176, Note_on_c, 3, 69, 0
5, 10224, Note_on_c, 3, 66, 127
5, 10272, Note_on_c, 3, 66, 0
5, 10272, Note_on_c, 3, 64, 127
5, 10320, Note_on_c, 3, 64, 0
5, 10320, Note_on_c, 3, 64, 127
5, 10368, Note_on_c, 3, 64, 0
5, 10416, Note_on_c, 3, 66, 127
5, 10464, Note_on_c, 3, 66, 0
5, 10464, Note_on_c, 3, 64, 127
5, 10512, Note_on_c, 3, 64, 0
5, 10512, Note_on_c, 3, 62, 127
5, 10560, Note_on_c, 3, 62, 0
5, 10608, Note_on_c, 3, 59, 127
5, 10656, Note_on_c, 3, 59, 0
5, 10704, Note_on_c, 3, 64, 127
5, 10752, Note_on_c, 3, 64, 0
5, 10800, Note_on_c, 3, 66, 127
5, 10848, Note_on_c, 3, 66, 0
5, 10848, Note_on_c, 3, 64, 127
5, 10896, Note_on_c, 3, 64, 0
5, 10896, Note_on_c, 3, 62, 127
5, 10944, Note_on_c, 3, 62, 0
5, 10992, Note_on_c, 3, 59, 127
5, 11040, Note_on_c, 3, 59, 0
5, 11040, Note_on_c, 3, 59, 127
5, 11088, Note_on_c, 3, 59, 0
5, 11088, Note_on_c, 3, 57, 127
5, 11280, Note_on_c, 3, 57, 0
5, 11280, Note_on_c, 3, 62, 127
5, 11328, Note_on_c, 3, 62, 0
5, 11472, Note_on_c, 3, 69, 127
5, 11520, Note_on_c, 3, 69, 0
5, 11568, Note_on_c, 3, 69, 127
5, 11616, Note_on_c, 3, 69, 0
5, 11616, Note_on_c, 3, 69, 127
5, 11736, Note_on_c, 3, 69, 0
5, 11760, Note_on_c, 3, 66, 127
5, 11808, Note_on_c, 3, 66, 0
5, 11808, Note_on_c, 3, 64, 127
5, 11856, Note_on_c, 3, 64, 0
5, 11856, Note_on_c, 3, 62, 127
5, 11952, Note_on_c, 3, 62, 0
5, 18816, Note_on_c, 3, 69, 127
5, 18864, Note_on_c, 3, 69, 0
5, 18864, Note_on_c, 3, 66, 127
5, 18912, Note_on_c, 3, 66, 0
5, 18912, Note_on_c, 3, 69, 127
5, 18960, Note_on_c, 3, 69, 0
5, 18960, Note_on_c, 3, 66, 127
5, 19008, Note_on_c, 3, 66, 0
5, 19008, Note_on_c, 3, 69, 127
5, 19056, Note_on_c, 3, 69, 0
5, 19056, Note_on_c, 3, 66, 127
5, 19104, Note_on_c, 3, 66, 0
5, 19104, Note_on_c, 3, 69, 127
5, 19152, Note_on_c, 3, 69, 0
5, 19152, Note_on_c, 3, 66, 127
5, 19200, Note_on_c, 3, 66, 0
5, 19200, Note_on_c, 3, 69, 127
5, 19248, Note_on_c, 3, 69, 0
5, 19248, Note_on_c, 3, 71, 127
5, 19296, Note_on_c, 3, 71, 0
5, 19344, Note_on_c, 3, 66, 127
5, 19392, Note_on_c, 3, 66, 0
5, 19536, Note_on_c, 3, 66, 127
5, 19584, Note_on_c, 3, 66, 0
5, 19632, Note_on_c, 3, 66, 127
5, 19680, Note_on_c, 3, 66, 0
5, 19680, Note_on_c, 3, 64, 127
5, 19728, Note_on_c, 3, 64, 0
5, 19728, Note_on_c, 3, 62, 127
5, 19776, Note_on_c, 3, 62, 0
5, 19872, Note_on_c, 3, 64, 127
5, 19920, Note_on_c, 3, 64, 0
5, 19920, Note_on_c, 3, 62, 127
5, 19968, Note_on_c, 3, 62, 0
5, 19968, Note_on_c, 3, 66, 127
5, 20016, Note_on_c, 3, 66, 0
5, 20016, Note_on_c, 3, 66, 127
5, 20064, Note_on_c, 3, 66, 0
5, 20064, Note_on_c, 3, 64, 127
5, 20112, Note_on_c, 3, 64, 0
5, 20112, Note_on_c, 3, 62, 127
5, 20208, Note_on_c, 3, 62, 0
5, 20208, Note_on_c, 3, 62, 127
5, 20256, Note_on_c, 3, 62, 0
5, 20256, Note_on_c, 3, 59, 127
5, 20304, Note_on_c, 3, 59, 0
5, 20304, Note_on_c, 3, 57, 127
5, 20496, Note_on_c, 3, 57, 0
5, 20496, Note_on_c, 3, 62, 127
5, 20544, Note_on_c, 3, 62, 0
5, 20688, Note_on_c, 3, 69, 127
5, 20736, Note_on_c, 3, 69, 0
5, 20784, Note_on_c, 3, 69, 127
5, 20832, Note_on_c, 3, 69, 0
5, 20832, Note_on_c, 3, 69, 127
5, 20880, Note_on_c, 3, 69, 0
5, 20880, Note_on_c, 3, 69, 127
5, 20976, Note_on_c, 3, 69, 0
5, 20976, Note_on_c, 3, 66, 127
5, 21024, Note_on_c, 3, 66, 0
5, 21024, Note_on_c, 3, 64, 127
5, 21072, Note_on_c, 3, 64, 0
5, 21072, Note_on_c, 3, 62, 127
5, 21168, Note_on_c, 3, 62, 0
5, 21792, Note_on_c, 3, 69, 100
5, 21840, Note_on_c, 3, 69, 0
5, 21840, Note_on_c, 3, 66, 100
5, 21888, Note_on_c, 3, 66, 0
5, 21888, Note_on_c, 3, 69, 127
5, 21934, Note_on_c, 3, 69, 0
5, 21937, Note_on_c, 3, 69, 127
5, 21985, Note_on_c, 3, 69, 0
5, 21985, Note_on_c, 3, 66, 127
5, 22033, Note_on_c, 3, 66, 0
5, 22035, Note_on_c, 3, 69, 127
5, 22083, Note_on_c, 3, 69, 0
5, 22130, Note_on_c, 3, 69, 127
5, 22176, Note_on_c, 3, 66, 127
5, 22178, Note_on_c, 3, 69, 0
5, 22224, Note_on_c, 3, 66, 0
5, 22228, Note_on_c, 3, 69, 127
5, 22276, Note_on_c, 3, 69, 0
5, 22320, Note_on_c, 3, 69, 127
5, 22368, Note_on_c, 3, 69, 0
5, 22368, Note_on_c, 3, 66, 127
5, 22416, Note_on_c, 3, 66, 0
5, 22416, Note_on_c, 3, 69, 127
5, 22464, Note_on_c, 3, 69, 0
5, 22512, Note_on_c, 3, 66, 127
5, 22560, Note_on_c, 3, 66, 0
5, 22560, Note_on_c, 3, 64, 127
5, 22608, Note_on_c, 3, 64, 0
5, 22608, Note_on_c, 3, 64, 127
5, 22656, Note_on_c, 3, 64, 0
5, 22704, Note_on_c, 3, 66, 127
5, 22752, Note_on_c, 3, 66, 0
5, 22752, Note_on_c, 3, 64, 127
5, 22800, Note_on_c, 3, 64, 0
5, 22800, Note_on_c, 3, 62, 127
5, 22848, Note_on_c, 3, 62, 0
5, 22896, Note_on_c, 3, 59, 127
5, 22944, Note_on_c, 3, 59, 0
5, 22992, Note_on_c, 3, 64, 127
5, 23040, Note_on_c, 3, 64, 0
5, 23088, Note_on_c, 3, 66, 127
5, 23136, Note_on_c, 3, 66, 0
5, 23136, Note_on_c, 3, 64, 127
5, 23184, Note_on_c, 3, 64, 0
5, 23184, Note_on_c, 3, 62, 127
5, 23232, Note_on_c, 3, 62, 0
5, 23280, Note_on_c, 3, 59, 127
5, 23328, Note_on_c, 3, 59, 0
5, 23328, Note_on_c, 3, 59, 127
5, 23376, Note_on_c, 3, 59, 0
5, 23376, Note_on_c, 3, 57, 127
5, 23568, Note_on_c, 3, 57, 0
5, 23568, Note_on_c, 3, 62, 127
5, 23616, Note_on_c, 3, 62, 0
5, 23760, Note_on_c, 3, 69, 127
5, 23808, Note_on_c, 3, 69, 0
5, 23856, Note_on_c, 3, 69, 127
5, 23904, Note_on_c, 3, 69, 0
5, 23904, Note_on_c, 3, 69, 127
5, 24024, Note_on_c, 3, 69, 0
5, 24048, Note_on_c, 3, 66, 127
5, 24096, Note_on_c, 3, 66, 0
5, 24096, Note_on_c, 3, 64, 127
5, 24144, Note_on_c, 3, 64, 0
5, 24144, Note_on_c, 3, 62, 127
5, 24240, Note_on_c, 3, 62, 0
5, 24864, Note_on_c, 3, 69, 127
5, 24912, Note_on_c, 3, 69, 0
5, 24912, Note_on_c, 3, 66, 127
5, 24960, Note_on_c, 3, 66, 0
5, 24960, Note_on_c, 3, 69, 127
5, 25008, Note_on_c, 3, 69, 0
5, 25008, Note_on_c, 3, 69, 127
5, 25056, Note_on_c, 3, 69, 0
5, 25056, Note_on_c, 3, 66, 127
5, 25104, Note_on_c, 3, 66, 0
5, 25104, Note_on_c, 3, 69, 127
5, 25152, Note_on_c, 3, 69, 0
5, 25202, Note_on_c, 3, 69, 127
5, 25248, Note_on_c, 3, 66, 127
5, 25250, Note_on_c, 3, 69, 0
5, 25296, Note_on_c, 3, 66, 0
5, 25300, Note_on_c, 3, 69, 127
5, 25348, Note_on_c, 3, 69, 0
5, 25392, Note_on_c, 3, 69, 127
5, 25440, Note_on_c, 3, 69, 0
5, 25440, Note_on_c, 3, 66, 127
5, 25488, Note_on_c, 3, 66, 0
5, 25488, Note_on_c, 3, 69, 127
5, 25536, Note_on_c, 3, 69, 0
5, 25584, Note_on_c, 3, 66, 127
5, 25632, Note_on_c, 3, 66, 0
5, 25632, Note_on_c, 3, 64, 127
5, 25680, Note_on_c, 3, 64, 0
5, 25680, Note_on_c, 3, 64, 127
5, 25728, Note_on_c, 3, 64, 0
5, 25776, Note_on_c, 3, 66, 127
5, 25824, Note_on_c, 3, 66, 0
5, 25824, Note_on_c, 3, 64, 127
5, 25872, Note_on_c, 3, 64, 0
5, 25872, Note_on_c, 3, 62, 127
5, 25920, Note_on_c, 3, 62, 0
5, 25968, Note_on_c, 3, 59, 127
5, 26016, Note_on_c, 3, 59, 0
5, 26064, Note_on_c, 3, 64, 127
5, 26112, Note_on_c, 3, 64, 0
5, 26160, Note_on_c, 3, 66, 127
5, 26208, Note_on_c, 3, 66, 0
5, 26208, Note_on_c, 3, 64, 127
5, 26256, Note_on_c, 3, 64, 0
5, 26256, Note_on_c, 3, 62, 127
5, 26304, Note_on_c, 3, 62, 0
5, 26352, Note_on_c, 3, 59, 127
5, 26400, Note_on_c, 3, 59, 0
5, 26400, Note_on_c, 3, 59, 127
5, 26448, Note_on_c, 3, 59, 0
5, 26448, Note_on_c, 3, 57, 127
5, 26640, Note_on_c, 3, 57, 0
5, 26640, Note_on_c, 3, 62, 127
5, 26688, Note_on_c, 3, 62, 0
5, 26832, Note_on_c, 3, 69, 127
5, 26880, Note_on_c, 3, 69, 0
5, 26928, Note_on_c, 3, 69, 127
5, 26976, Note_on_c, 3, 69, 0
5, 26976, Note_on_c, 3, 69, 127
5, 27096, Note_on_c, 3, 69, 0
5, 27120, Note_on_c, 3, 66, 127
5, 27168, Note_on_c, 3, 66, 0
5, 27168, Note_on_c, 3, 64, 127
5, 27216, Note_on_c, 3, 64, 0
5, 27216, Note_on_c, 3, 62, 127
5, 27312, Note_on_c, 3, 62, 0
5, 28032, Note_on_c, 3, 69, 127
5, 28078, Note_on_c, 3, 69, 0
5, 28081, Note_on_c, 3, 69, 127
5, 28129, Note_on_c, 3, 69, 0
5, 28129, Note_on_c, 3, 66, 127
5, 28177, Note_on_c, 3, 66, 0
5, 28179, Note_on_c, 3, 69, 127
5, 28227, Note_on_c, 3, 69, 0
5, 28274, Note_on_c, 3, 69, 127
5, 28320, Note_on_c, 3, 66, 127
5, 28322, Note_on_c, 3, 69, 0
5, 28368, Note_on_c, 3, 66, 0
5, 28372, Note_on_c, 3, 69, 127
5, 28420, Note_on_c, 3, 69, 0
5, 28464, Note_on_c, 3, 69, 127
5, 28512, Note_on_c, 3, 69, 0
5, 28512, Note_on_c, 3, 66, 127
5, 28560, Note_on_c, 3, 66, 0
5, 28560, Note_on_c, 3, 69, 127
5, 28608, Note_on_c, 3, 69, 0
5, 28656, Note_on_c, 3, 66, 127
5, 28704, Note_on_c, 3, 66, 0
5, 28704, Note_on_c, 3, 64, 127
5, 28752, Note_on_c, 3, 64, 0
5, 28752, Note_on_c, 3, 64, 127
5, 28800, Note_on_c, 3, 64, 0
5, 28848, Note_on_c, 3, 66, 127
5, 28896, Note_on_c, 3, 66, 0
5, 28896, Note_on_c, 3, 64, 127
5, 28944, Note_on_c, 3, 64, 0
5, 28944, Note_on_c, 3, 62, 127
5, 28992, Note_on_c, 3, 62, 0
5, 29040, Note_on_c, 3, 59, 127
5, 29088, Note_on_c, 3, 59, 0
5, 29136, Note_on_c, 3, 64, 127
5, 29184, Note_on_c, 3, 64, 0
5, 29232, Note_on_c, 3, 66, 127
5, 29280, Note_on_c, 3, 66, 0
5, 29280, Note_on_c, 3, 64, 127
5, 29328, Note_on_c, 3, 64, 0
5, 29328, Note_on_c, 3, 62, 127
5, 29376, Note_on_c, 3, 62, 0
5, 29424, Note_on_c, 3, 59, 127
5, 29472, Note_on_c, 3, 59, 0
5, 29472, Note_on_c, 3, 59, 127
5, 29520, Note_on_c, 3, 59, 0
5, 29520, Note_on_c, 3, 57, 127
5, 29712, Note_on_c, 3, 57, 0
5, 29712, Note_on_c, 3, 62, 127
5, 29760, Note_on_c, 3, 62, 0
5, 29904, Note_on_c, 3, 69, 127
5, 29952, Note_on_c, 3, 69, 0
5, 30000, Note_on_c, 3, 69, 127
5, 30048, Note_on_c, 3, 69, 0
5, 30048, Note_on_c, 3, 69, 127
5, 30168, Note_on_c, 3, 69, 0
5, 30192, Note_on_c, 3, 66, 127
5, 30240, Note_on_c, 3, 66, 0
5, 30240, Note_on_c, 3, 64, 127
5, 30288, Note_on_c, 3, 64, 0
5, 30288, Note_on_c, 3, 62, 127
5, 30384, Note_on_c, 3, 62, 0
5, 30960, Note_on_c, 3, 69, 127
5, 31056, Note_on_c, 3, 69, 0
5, 31056, Note_on_c, 3, 66, 127
5, 31104, Note_on_c, 3, 66, 0
5, 31104, Note_on_c, 3, 69, 127
5, 31150, Note_on_c, 3, 69, 0
5, 31153, Note_on_c, 3, 69, 127
5, 31201, Note_on_c, 3, 69, 0
5, 31201, Note_on_c, 3, 66, 127
5, 31249, Note_on_c, 3, 66, 0
5, 31251, Note_on_c, 3, 69, 127
5, 31299, Note_on_c, 3, 69, 0
5, 31346, Note_on_c, 3, 69, 127
5, 31392, Note_on_c, 3, 66, 127
5, 31394, Note_on_c, 3, 69, 0
5, 31440, Note_on_c, 3, 66, 0
5, 31444, Note_on_c, 3, 69, 127
5, 31492, Note_on_c, 3, 69, 0
5, 31536, Note_on_c, 3, 69, 127
5, 31584, Note_on_c, 3, 69, 0
5, 31584, Note_on_c, 3, 66, 127
5, 31632, Note_on_c, 3, 66, 0
5, 31632, Note_on_c, 3, 69, 127
5, 31680, Note_on_c, 3, 69, 0
5, 31728, Note_on_c, 3, 66, 127
5, 31776, Note_on_c, 3, 66, 0
5, 31776, Note_on_c, 3, 64, 127
5, 31824, Note_on_c, 3, 64, 0
5, 31824, Note_on_c, 3, 64, 127
5, 31872, Note_on_c, 3, 64, 0
5, 31920, Note_on_c, 3, 66, 127
5, 31968, Note_on_c, 3, 66, 0
5, 31968, Note_on_c, 3, 64, 127
5, 32016, Note_on_c, 3, 64, 0
5, 32016, Note_on_c, 3, 62, 127
5, 32064, Note_on_c, 3, 62, 0
5, 32112, Note_on_c, 3, 59, 127
5, 32160, Note_on_c, 3, 59, 0
5, 32208, Note_on_c, 3, 64, 127
5, 32256, Note_on_c, 3, 64, 0
5, 32304, Note_on_c, 3, 66, 127
5, 32352, Note_on_c, 3, 66, 0
5, 32352, Note_on_c, 3, 64, 127
5, 32400, Note_on_c, 3, 64, 0
5, 32400, Note_on_c, 3, 62, 127
5, 32448, Note_on_c, 3, 62, 0
5, 32496, Note_on_c, 3, 59, 127
5, 32544, Note_on_c, 3, 59, 0
5, 32544, Note_on_c, 3, 59, 127
5, 32592, Note_on_c, 3, 59, 0
5, 32592, Note_on_c, 3, 57, 127
5, 32784, Note_on_c, 3, 57, 0
5, 32784, Note_on_c, 3, 62, 127
5, 32832, Note_on_c, 3, 62, 0
5, 32976, Note_on_c, 3, 69, 127
5, 33024, Note_on_c, 3, 69, 0
5, 33072, Note_on_c, 3, 69, 127
5, 33120, Note_on_c, 3, 69, 0
5, 33120, Note_on_c, 3, 69, 127
5, 33240, Note_on_c, 3, 69, 0
5, 33264, Note_on_c, 3, 66, 127
5, 33312, Note_on_c, 3, 66, 0
5, 33312, Note_on_c, 3, 64, 127
5, 33360, Note_on_c, 3, 64, 0
5, 33360, Note_on_c, 3, 62, 127
5, 33456, Note_on_c, 3, 62, 0
5, 34032, Note_on_c, 3, 62, 127
5, 34080, Note_on_c, 3, 62, 0
5, 34080, Note_on_c, 3, 59, 127
5, 34128, Note_on_c, 3, 59, 0
5, 34128, Note_on_c, 3, 57, 127
5, 34320, Note_on_c, 3, 57, 0
5, 34320, Note_on_c, 3, 62, 127
5, 34368, Note_on_c, 3, 62, 0
5, 34512, Note_on_c, 3, 69, 127
5, 34560, Note_on_c, 3, 69, 0
5, 34608, Note_on_c, 3, 69, 127
5, 34656, Note_on_c, 3, 69, 0
5, 34656, Note_on_c, 3, 69, 127
5, 34776, Note_on_c, 3, 69, 0
5, 34800, Note_on_c, 3, 66, 127
5, 34848, Note_on_c, 3, 66, 0
5, 34848, Note_on_c, 3, 64, 127
5, 34896, Note_on_c, 3, 64, 0
5, 34896, Note_on_c, 3, 62, 127
5, 34992, Note_on_c, 3, 62, 0
5, 34992, End_track
6, 0, Start_track
6, 0, MIDI_port, 0
6, 0, Title_t, "Dist Lead Guitar 1"
6, 0, Program_c, 4, 30
6, 0, Control_c, 4, 7, 90
6, 1, Control_c, 4, 0, 0
6, 1, Control_c, 4, 32, 30
6, 1, Program_c, 4, 30
6, 1, Control_c, 4, 7, 90
6, 1, Control_c, 4, 91, 60
6, 3, Control_c, 4, 92, 60
6, 3, Control_c, 4, 11, 120
6, 769, Pitch_bend_c, 4, 8064
6, 769, Note_on_c, 4, 64, 127
6, 772, Pitch_bend_c, 4, 8320
6, 774, Pitch_bend_c, 4, 8448
6, 777, Pitch_bend_c, 4, 8704
6, 780, Pitch_bend_c, 4, 8832
6, 788, Pitch_bend_c, 4, 9088
6, 790, Pitch_bend_c, 4, 9344
6, 791, Pitch_bend_c, 4, 9472
6, 793, Pitch_bend_c, 4, 9600
6, 794, Pitch_bend_c, 4, 9856
6, 795, Pitch_bend_c, 4, 9984
6, 797, Pitch_bend_c, 4, 10112
6, 800, Pitch_bend_c, 4, 10624
6, 801, Pitch_bend_c, 4, 11008
6, 802, Pitch_bend_c, 4, 11264
6, 804, Pitch_bend_c, 4, 11392
6, 805, Pitch_bend_c, 4, 11648
6, 808, Pitch_bend_c, 4, 12416
6, 809, Pitch_bend_c, 4, 12672
6, 811, Pitch_bend_c, 4, 14592
6, 813, Pitch_bend_c, 4, 15360
6, 814, Pitch_bend_c, 4, 16383
6, 865, Note_on_c, 4, 64, 0
6, 865, Note_on_c, 4, 67, 127
6, 905, Note_on_c, 4, 67, 0
6, 912, Note_on_c, 4, 64, 127
6, 926, Pitch_bend_c, 4, 16383
6, 949, Pitch_bend_c, 4, 14976
6, 951, Pitch_bend_c, 4, 14464
6, 952, Pitch_bend_c, 4, 12800
6, 954, Pitch_bend_c, 4, 12288
6, 956, Pitch_bend_c, 4, 12160
6, 958, Pitch_bend_c, 4, 12032
6, 960, Pitch_bend_c, 4, 11776
6, 961, Pitch_bend_c, 4, 11392
6, 963, Pitch_bend_c, 4, 11136
6, 965, Pitch_bend_c, 4, 10880
6, 967, Pitch_bend_c, 4, 10368
6, 970, Pitch_bend_c, 4, 9984
6, 974, Pitch_bend_c, 4, 9600
6, 976, Pitch_bend_c, 4, 9472
6, 977, Pitch_bend_c, 4, 9216
6, 981, Pitch_bend_c, 4, 8832
6, 983, Pitch_bend_c, 4, 8704
6, 984, Pitch_bend_c, 4, 8576
6, 988, Pitch_bend_c, 4, 8448
6, 995, Pitch_bend_c, 4, 8576
6, 997, Pitch_bend_c, 4, 8448
6, 1004, Note_on_c, 4, 64, 0
6, 1008, Note_on_c, 4, 62, 127
6, 1056, Note_on_c, 4, 62, 0
6, 1057, Note_on_c, 4, 59, 127
6, 1097, Note_on_c, 4, 59, 0
6, 1104, Note_on_c, 4, 57, 127
6, 1144, Note_on_c, 4, 57, 0
6, 1152, Note_on_c, 4, 66, 127
6, 1152, Note_on_c, 4, 62, 127
6, 1192, Note_on_c, 4, 62, 0
6, 1192, Note_on_c, 4, 66, 0
6, 1200, Note_on_c, 4, 50, 127
6, 1248, Note_on_c, 4, 50, 0
6, 1248, Note_on_c, 4, 59, 127
6, 1248, Note_on_c, 4, 62, 127
6, 1288, Note_on_c, 4, 62, 0
6, 1288, Note_on_c, 4, 59, 0
6, 1296, Note_on_c, 4, 50, 127
6, 1344, Note_on_c, 4, 50, 0
6, 1344, Note_on_c, 4, 62, 127
6, 1344, Note_on_c, 4, 66, 127
6, 1381, Note_on_c, 4, 62, 0
6, 1382, Note_on_c, 4, 66, 0
6, 1392, Note_on_c, 4, 50, 127
6, 1440, Note_on_c, 4, 50, 0
6, 1440, Note_on_c, 4, 59, 127
6, 1440, Note_on_c, 4, 62, 127
6, 1478, Note_on_c, 4, 59, 0
6, 1480, Note_on_c, 4, 62, 0
6, 1488, Note_on_c, 4, 50, 127
6, 1536, Note_on_c, 4, 50, 0
6, 1536, Note_on_c, 4, 62, 127
6, 1538, Note_on_c, 4, 66, 127
6, 1575, Note_on_c, 4, 62, 0
6, 1577, Note_on_c, 4, 66, 0
6, 1584, Note_on_c, 4, 50, 127
6, 1623, Note_on_c, 4, 50, 0
6, 1630, Pitch_bend_c, 4, 8320
6, 1632, Pitch_bend_c, 4, 8704
6, 1633, Pitch_bend_c, 4, 9088
6, 1633, Note_on_c, 4, 64, 127
6, 1634, Pitch_bend_c, 4, 9472
6, 1635, Pitch_bend_c, 4, 9984
6, 1636, Pitch_bend_c, 4, 10368
6, 1637, Pitch_bend_c, 4, 10752
6, 1639, Pitch_bend_c, 4, 11264
6, 1640, Pitch_bend_c, 4, 11648
6, 1641, Pitch_bend_c, 4, 12032
6, 1642, Pitch_bend_c, 4, 12544
6, 1643, Pitch_bend_c, 4, 12928
6, 1644, Pitch_bend_c, 4, 13312
6, 1646, Pitch_bend_c, 4, 13824
6, 1647, Pitch_bend_c, 4, 14208
6, 1648, Pitch_bend_c, 4, 14592
6, 1649, Pitch_bend_c, 4, 15104
6, 1650, Pitch_bend_c, 4, 15488
6, 1651, Pitch_bend_c, 4, 15872
6, 1653, Pitch_bend_c, 4, 16383
6, 1655, Pitch_bend_c, 4, 16128
6, 1672, Pitch_bend_c, 4, 8320
6, 1673, Note_on_c, 4, 64, 0
6, 1676, Pitch_bend_c, 4, 8192
6, 1680, Note_on_c, 4, 64, 127
6, 1720, Note_on_c, 4, 64, 0
6, 1729, Note_on_c, 4, 62, 127
6, 1769, Note_on_c, 4, 62, 0
6, 1776, Note_on_c, 4, 59, 127
6, 1816, Note_on_c, 4, 59, 0
6, 1824, Note_on_c, 4, 57, 127
6, 1864, Note_on_c, 4, 57, 0
6, 1872, Note_on_c, 4, 54, 127
6, 1912, Note_on_c, 4, 54, 0
6, 1920, Note_on_c, 4, 50, 127
6, 2016, Note_on_c, 4, 50, 0
6, 2064, Control_c, 4, 1, 11
6, 2064, Note_on_c, 4, 78, 127
6, 2064, Note_on_c, 4, 74, 127
6, 2068, Control_c, 4, 1, 14
6, 2072, Control_c, 4, 1, 18
6, 2076, Control_c, 4, 1, 24
6, 2080, Control_c, 4, 1, 51
6, 2084, Control_c, 4, 1, 55
6, 2088, Control_c, 4, 1, 58
6, 2092, Control_c, 4, 1, 59
6, 2096, Control_c, 4, 1, 60
6, 2100, Control_c, 4, 1, 61
6, 2192, Control_c, 4, 1, 60
6, 2200, Control_c, 4, 1, 59
6, 2204, Control_c, 4, 1, 57
6, 2208, Control_c, 4, 1, 56
6, 2212, Control_c, 4, 1, 52
6, 2216, Control_c, 4, 1, 50
6, 2220, Control_c, 4, 1, 49
6, 2224, Control_c, 4, 1, 46
6, 2232, Control_c, 4, 1, 32
6, 2236, Control_c, 4, 1, 24
6, 2240, Control_c, 4, 1, 22
6, 2244, Control_c, 4, 1, 20
6, 2248, Control_c, 4, 1, 19
6, 2252, Control_c, 4, 1, 17
6, 2256, Note_on_c, 4, 74, 0
6, 2256, Note_on_c, 4, 78, 0
6, 2256, Control_c, 4, 1, 11
6, 2264, Control_c, 4, 1, 10
6, 2352, Note_on_c, 4, 64, 127
6, 2354, Pitch_bend_c, 4, 8320
6, 2357, Pitch_bend_c, 4, 8192
6, 2360, Pitch_bend_c, 4, 8448
6, 2367, Pitch_bend_c, 4, 8704
6, 2369, Pitch_bend_c, 4, 8832
6, 2371, Pitch_bend_c, 4, 9088
6, 2373, Pitch_bend_c, 4, 9216
6, 2374, Pitch_bend_c, 4, 9472
6, 2375, Pitch_bend_c, 4, 9728
6, 2376, Pitch_bend_c, 4, 9856
6, 2378, Pitch_bend_c, 4, 10240
6, 2381, Pitch_bend_c, 4, 10496
6, 2382, Pitch_bend_c, 4, 10752
6, 2383, Pitch_bend_c, 4, 10880
6, 2384, Pitch_bend_c, 4, 11264
6, 2385, Pitch_bend_c, 4, 11904
6, 2387, Pitch_bend_c, 4, 12672
6, 2388, Pitch_bend_c, 4, 13312
6, 2389, Pitch_bend_c, 4, 14080
6, 2390, Pitch_bend_c, 4, 14592
6, 2391, Pitch_bend_c, 4, 14976
6, 2392, Pitch_bend_c, 4, 15744
6, 2394, Pitch_bend_c, 4, 16000
6, 2395, Pitch_bend_c, 4, 16128
6, 2397, Pitch_bend_c, 4, 16383
6, 2422, Pitch_bend_c, 4, 8192
6, 2424, Note_on_c, 4, 64, 0
6, 2448, Note_on_c, 4, 64, 127
6, 2450, Pitch_bend_c, 4, 8192
6, 2458, Pitch_bend_c, 4, 8320
6, 2460, Pitch_bend_c, 4, 8448
6, 2462, Pitch_bend_c, 4, 8576
6, 2463, Pitch_bend_c, 4, 8704
6, 2464, Pitch_bend_c, 4, 8832
6, 2465, Pitch_bend_c, 4, 9088
6, 2466, Pitch_bend_c, 4, 9216
6, 2467, Pitch_bend_c, 4, 9472
6, 2469, Pitch_bend_c, 4, 9984
6, 2470, Pitch_bend_c, 4, 10112
6, 2471, Pitch_bend_c, 4, 10496
6, 2472, Pitch_bend_c, 4, 11008
6, 2473, Pitch_bend_c, 4, 11392
6, 2474, Pitch_bend_c, 4, 11648
6, 2476, Pitch_bend_c, 4, 12032
6, 2477, Pitch_bend_c, 4, 12544
6, 2478, Pitch_bend_c, 4, 13056
6, 2479, Pitch_bend_c, 4, 13824
6, 2480, Pitch_bend_c, 4, 15616
6, 2481, Pitch_bend_c, 4, 16383
6, 2518, Pitch_bend_c, 4, 8320
6, 2520, Note_on_c, 4, 64, 0
6, 2544, Note_on_c, 4, 64, 127
6, 2592, Note_on_c, 4, 64, 0
6, 2592, Note_on_c, 4, 62, 127
6, 2640, Note_on_c, 4, 62, 0
6, 2640, Note_on_c, 4, 59, 127
6, 2688, Note_on_c, 4, 59, 0
6, 2688, Note_on_c, 4, 62, 127
6, 2784, Note_on_c, 4, 62, 0
6, 2832, Note_on_c, 4, 78, 127
6, 2832, Note_on_c, 4, 74, 127
6, 2844, Control_c, 4, 1, 25
6, 2848, Control_c, 4, 1, 38
6, 2852, Control_c, 4, 1, 48
6, 2856, Control_c, 4, 1, 55
6, 2860, Control_c, 4, 1, 56
6, 2864, Control_c, 4, 1, 59
6, 2868, Control_c, 4, 1, 60
6, 2876, Control_c, 4, 1, 61
6, 2988, Control_c, 4, 1, 60
6, 3000, Control_c, 4, 1, 54
6, 3008, Control_c, 4, 1, 52
6, 3012, Control_c, 4, 1, 50
6, 3020, Control_c, 4, 1, 48
6, 3024, Note_on_c, 4, 74, 0
6, 3024, Note_on_c, 4, 78, 0
6, 3024, Control_c, 4, 1, 47
6, 3028, Control_c, 4, 1, 44
6, 3032, Control_c, 4, 1, 43
6, 3036, Control_c, 4, 1, 41
6, 3040, Control_c, 4, 1, 39
6, 3044, Control_c, 4, 1, 37
6, 3048, Control_c, 4, 1, 17
6, 3056, Control_c, 4, 1, 14
6, 3060, Control_c, 4, 1, 12
6, 3120, Note_on_c, 4, 74, 127
6, 3120, Note_on_c, 4, 78, 127
6, 3168, Note_on_c, 4, 78, 0
6, 3168, Note_on_c, 4, 74, 0
6, 3264, Note_on_c, 4, 78, 127
6, 3264, Note_on_c, 4, 74, 127
6, 3360, Note_on_c, 4, 74, 0
6, 3360, Note_on_c, 4, 78, 0
6, 3840, Note_on_c, 4, 64, 127
6, 3841, Pitch_bend_c, 4, 8320
6, 3843, Pitch_bend_c, 4, 8448
6, 3846, Pitch_bend_c, 4, 8576
6, 3850, Pitch_bend_c, 4, 8832
6, 3852, Pitch_bend_c, 4, 8960
6, 3853, Pitch_bend_c, 4, 9088
6, 3857, Pitch_bend_c, 4, 9344
6, 3859, Pitch_bend_c, 4, 9472
6, 3862, Pitch_bend_c, 4, 9728
6, 3866, Pitch_bend_c, 4, 9856
6, 3869, Pitch_bend_c, 4, 10240
6, 3871, Pitch_bend_c, 4, 10368
6, 3874, Pitch_bend_c, 4, 10496
6, 3876, Pitch_bend_c, 4, 10752
6, 3880, Pitch_bend_c, 4, 11008
6, 3883, Pitch_bend_c, 4, 11264
6, 3885, Pitch_bend_c, 4, 11392
6, 3887, Pitch_bend_c, 4, 11648
6, 3888, Pitch_bend_c, 4, 11776
6, 3890, Pitch_bend_c, 4, 12032
6, 3892, Pitch_bend_c, 4, 12288
6, 3894, Pitch_bend_c, 4, 12416
6, 3895, Pitch_bend_c, 4, 12544
6, 3897, Pitch_bend_c, 4, 12672
6, 3899, Pitch_bend_c, 4, 12928
6, 3901, Pitch_bend_c, 4, 13184
6, 3902, Pitch_bend_c, 4, 13440
6, 3904, Pitch_bend_c, 4, 13696
6, 3906, Pitch_bend_c, 4, 13952
6, 3908, Pitch_bend_c, 4, 14208
6, 3909, Pitch_bend_c, 4, 14464
6, 3911, Pitch_bend_c, 4, 14848
6, 3913, Pitch_bend_c, 4, 14976
6, 3915, Pitch_bend_c, 4, 15104
6, 3916, Pitch_bend_c, 4, 15232
6, 3918, Pitch_bend_c, 4, 15488
6, 3922, Pitch_bend_c, 4, 15744
6, 3923, Pitch_bend_c, 4, 15872
6, 3925, Pitch_bend_c, 4, 16000
6, 3929, Pitch_bend_c, 4, 16256
6, 3932, Pitch_bend_c, 4, 16383
6, 3973, Note_on_c, 4, 64, 0
6, 3985, Note_on_c, 4, 64, 127
6, 4005, Pitch_bend_c, 4, 15360
6, 4007, Pitch_bend_c, 4, 14976
6, 4008, Pitch_bend_c, 4, 14720
6, 4010, Pitch_bend_c, 4, 14592
6, 4012, Pitch_bend_c, 4, 14208
6, 4014, Pitch_bend_c, 4, 14080
6, 4016, Pitch_bend_c, 4, 13824
6, 4017, Pitch_bend_c, 4, 13568
6, 4019, Pitch_bend_c, 4, 13184
6, 4021, Pitch_bend_c, 4, 12928
6, 4023, Pitch_bend_c, 4, 12672
6, 4024, Pitch_bend_c, 4, 12416
6, 4026, Pitch_bend_c, 4, 12160
6, 4028, Pitch_bend_c, 4, 11904
6, 4030, Pitch_bend_c, 4, 11520
6, 4032, Pitch_bend_c, 4, 11264
6, 4033, Pitch_bend_c, 4, 11008
6, 4035, Pitch_bend_c, 4, 10624
6, 4037, Pitch_bend_c, 4, 10496
6, 4039, Pitch_bend_c, 4, 10368
6, 4040, Pitch_bend_c, 4, 10240
6, 4042, Pitch_bend_c, 4, 9984
6, 4044, Pitch_bend_c, 4, 9856
6, 4046, Pitch_bend_c, 4, 9728
6, 4048, Pitch_bend_c, 4, 9472
6, 4049, Pitch_bend_c, 4, 9344
6, 4055, Pitch_bend_c, 4, 8576
6, 4056, Pitch_bend_c, 4, 8448
6, 4078, Note_on_c, 4, 64, 0
6, 4078, Note_on_c, 4, 62, 127
6, 4129, Note_on_c, 4, 62, 0
6, 4272, Note_on_c, 4, 67, 127
6, 4272, Note_on_c, 4, 62, 127
6, 4320, Note_on_c, 4, 62, 0
6, 4320, Note_on_c, 4, 67, 0
6, 4320, Note_on_c, 4, 67, 127
6, 4320, Note_on_c, 4, 64, 127
6, 4368, Note_on_c, 4, 64, 0
6, 4368, Note_on_c, 4, 67, 0
6, 4416, Note_on_c, 4, 62, 127
6, 4416, Note_on_c, 4, 67, 127
6, 4464, Note_on_c, 4, 67, 0
6, 4464, Note_on_c, 4, 62, 0
6, 4512, Note_on_c, 4, 64, 127
6, 4512, Note_on_c, 4, 67, 127
6, 4560, Note_on_c, 4, 67, 0
6, 4560, Note_on_c, 4, 64, 0
6, 4608, Note_on_c, 4, 67, 127
6, 4608, Note_on_c, 4, 62, 127
6, 4656, Note_on_c, 4, 62, 0
6, 4656, Note_on_c, 4, 67, 0
6, 4656, Note_on_c, 4, 62, 127
6, 4656, Note_on_c, 4, 67, 127
6, 4704, Note_on_c, 4, 67, 0
6, 4704, Note_on_c, 4, 62, 0
6, 4752, Note_on_c, 4, 62, 127
6, 4752, Note_on_c, 4, 67, 127
6, 4800, Note_on_c, 4, 67, 0
6, 4800, Note_on_c, 4, 62, 0
6, 5040, Note_on_c, 4, 74, 127
6, 5040, Note_on_c, 4, 69, 127
6, 5088, Note_on_c, 4, 69, 0
6, 5088, Note_on_c, 4, 74, 0
6, 5184, Note_on_c, 4, 69, 127
6, 5184, Note_on_c, 4, 74, 127
6, 5232, Note_on_c, 4, 74, 0
6, 5232, Note_on_c, 4, 69, 0
6, 5424, Note_on_c, 4, 64, 127
6, 5424, Note_on_c, 4, 69, 127
6, 5472, Note_on_c, 4, 69, 0
6, 5472, Note_on_c, 4, 64, 0
6, 5568, Note_on_c, 4, 64, 127
6, 5568, Note_on_c, 4, 69, 127
6, 5616, Note_on_c, 4, 69, 0
6, 5616, Note_on_c, 4, 64, 0
6, 6144, Pitch_bend_c, 4, 8320
6, 6144, Note_on_c, 4, 64, 127
6, 6147, Pitch_bend_c, 4, 8448
6, 6150, Pitch_bend_c, 4, 8576
6, 6152, Pitch_bend_c, 4, 8704
6, 6154, Pitch_bend_c, 4, 8832
6, 6156, Pitch_bend_c, 4, 9088
6, 6157, Pitch_bend_c, 4, 9216
6, 6159, Pitch_bend_c, 4, 9472
6, 6161, Pitch_bend_c, 4, 9984
6, 6164, Pitch_bend_c, 4, 10752
6, 6166, Pitch_bend_c, 4, 11008
6, 6168, Pitch_bend_c, 4, 11520
6, 6170, Pitch_bend_c, 4, 11776
6, 6171, Pitch_bend_c, 4, 12032
6, 6173, Pitch_bend_c, 4, 12800
6, 6175, Pitch_bend_c, 4, 13568
6, 6177, Pitch_bend_c, 4, 14464
6, 6178, Pitch_bend_c, 4, 14592
6, 6180, Pitch_bend_c, 4, 15104
6, 6182, Pitch_bend_c, 4, 15872
6, 6184, Pitch_bend_c, 4, 16383
6, 6262, Pitch_bend_c, 4, 8576
6, 6264, Note_on_c, 4, 64, 0
6, 6264, Pitch_bend_c, 4, 8448
6, 6288, Note_on_c, 4, 69, 127
6, 6336, Note_on_c, 4, 69, 0
6, 6336, Note_on_c, 4, 66, 127
6, 6337, Pitch_bend_c, 4, 7936
6, 6339, Pitch_bend_c, 4, 7808
6, 6341, Pitch_bend_c, 4, 7680
6, 6342, Pitch_bend_c, 4, 7296
6, 6344, Pitch_bend_c, 4, 7040
6, 6346, Pitch_bend_c, 4, 6784
6, 6348, Pitch_bend_c, 4, 6656
6, 6349, Pitch_bend_c, 4, 6400
6, 6351, Pitch_bend_c, 4, 5632
6, 6353, Pitch_bend_c, 4, 4864
6, 6355, Pitch_bend_c, 4, 4096
6, 6356, Pitch_bend_c, 4, 3712
6, 6358, Pitch_bend_c, 4, 2816
6, 6360, Pitch_bend_c, 4, 2304
6, 6362, Pitch_bend_c, 4, 2048
6, 6363, Pitch_bend_c, 4, 1920
6, 6365, Pitch_bend_c, 4, 1664
6, 6367, Pitch_bend_c, 4, 1280
6, 6369, Pitch_bend_c, 4, 896
6, 6370, Pitch_bend_c, 4, 640
6, 6372, Pitch_bend_c, 4, 512
6, 6374, Pitch_bend_c, 4, 256
6, 6376, Pitch_bend_c, 4, 128
6, 6384, Note_on_c, 4, 66, 0
6, 6384, Note_on_c, 4, 64, 127
6, 6388, Pitch_bend_c, 4, 8320
6, 6432, Note_on_c, 4, 64, 0
6, 6432, Note_on_c, 4, 62, 127
6, 6480, Note_on_c, 4, 62, 0
6, 6480, Note_on_c, 4, 57, 127
6, 6528, Note_on_c, 4, 57, 0
6, 6528, Note_on_c, 4, 62, 127
6, 6528, Note_on_c, 4, 57, 127
6, 6624, Note_on_c, 4, 57, 0
6, 6624, Note_on_c, 4, 62, 0
6, 6960, Note_on_c, 4, 57, 127
6, 6960, Note_on_c, 4, 62, 127
6, 7008, Note_on_c, 4, 62, 0
6, 7008, Note_on_c, 4, 57, 0
6, 7104, Note_on_c, 4, 57, 127
6, 7104, Note_on_c, 4, 62, 127
6, 7152, Note_on_c, 4, 62, 0
6, 7152, Note_on_c, 4, 57, 0
6, 7248, Note_on_c, 4, 62, 127
6, 7248, Note_on_c, 4, 66, 127
6, 7296, Note_on_c, 4, 66, 0
6, 7296, Note_on_c, 4, 62, 0
6, 7344, Note_on_c, 4, 64, 127
6, 7354, Pitch_bend_c, 4, 8448
6, 7357, Pitch_bend_c, 4, 8576
6, 7360, Pitch_bend_c, 4, 8832
6, 7362, Pitch_bend_c, 4, 8960
6, 7365, Pitch_bend_c, 4, 9216
6, 7368, Pitch_bend_c, 4, 9600
6, 7370, Pitch_bend_c, 4, 10880
6, 7373, Pitch_bend_c, 4, 11136
6, 7376, Pitch_bend_c, 4, 12544
6, 7378, Pitch_bend_c, 4, 13312
6, 7381, Pitch_bend_c, 4, 14336
6, 7384, Pitch_bend_c, 4, 15104
6, 7386, Pitch_bend_c, 4, 15616
6, 7389, Pitch_bend_c, 4, 15744
6, 7392, Pitch_bend_c, 4, 16256
6, 7437, Pitch_bend_c, 4, 16383
6, 7440, Note_on_c, 4, 64, 0
6, 7485, Pitch_bend_c, 4, 16256
6, 7488, Pitch_bend_c, 4, 15872
6, 7488, Note_on_c, 4, 64, 127
6, 7490, Pitch_bend_c, 4, 14976
6, 7493, Pitch_bend_c, 4, 14848
6, 7496, Pitch_bend_c, 4, 14336
6, 7498, Pitch_bend_c, 4, 13696
6, 7501, Pitch_bend_c, 4, 12416
6, 7504, Pitch_bend_c, 4, 11008
6, 7506, Pitch_bend_c, 4, 10496
6, 7509, Pitch_bend_c, 4, 10112
6, 7512, Pitch_bend_c, 4, 9984
6, 7514, Pitch_bend_c, 4, 9728
6, 7517, Pitch_bend_c, 4, 9600
6, 7520, Pitch_bend_c, 4, 9344
6, 7522, Pitch_bend_c, 4, 9216
6, 7525, Pitch_bend_c, 4, 8960
6, 7528, Pitch_bend_c, 4, 8576
6, 7530, Pitch_bend_c, 4, 8448
6, 7533, Pitch_bend_c, 4, 8320
6, 7536, Note_on_c, 4, 64, 0
6, 7536, Note_on_c, 4, 62, 127
6, 7562, Pitch_bend_c, 4, 8192
6, 7584, Note_on_c, 4, 62, 0
6, 7680, Note_on_c, 4, 62, 127
6, 7680, Note_on_c, 4, 66, 127
6, 7725, Pitch_bend_c, 4, 8320
6, 7728, Note_on_c, 4, 66, 0
6, 7728, Note_on_c, 4, 62, 0
6, 7728, Note_on_c, 4, 64, 127
6, 7730, Pitch_bend_c, 4, 8448
6, 7733, Pitch_bend_c, 4, 8576
6, 7736, Pitch_bend_c, 4, 8704
6, 7738, Pitch_bend_c, 4, 8960
6, 7741, Pitch_bend_c, 4, 9216
6, 7744, Pitch_bend_c, 4, 9600
6, 7746, Pitch_bend_c, 4, 10624
6, 7749, Pitch_bend_c, 4, 12416
6, 7752, Pitch_bend_c, 4, 13056
6, 7754, Pitch_bend_c, 4, 14208
6, 7757, Pitch_bend_c, 4, 14976
6, 7760, Pitch_bend_c, 4, 15232
6, 7762, Pitch_bend_c, 4, 15360
6, 7765, Pitch_bend_c, 4, 15616
6, 7768, Pitch_bend_c, 4, 16000
6, 7773, Pitch_bend_c, 4, 16383
6, 7800, Note_on_c, 4, 64, 0
6, 7802, Pitch_bend_c, 4, 8320
6, 7824, Note_on_c, 4, 57, 127
6, 7824, Note_on_c, 4, 62, 127
6, 7896, Note_on_c, 4, 62, 0
6, 7896, Note_on_c, 4, 57, 0
6, 8112, Note_on_c, 4, 62, 127
6, 8112, Note_on_c, 4, 69, 127
6, 8160, Note_on_c, 4, 69, 0
6, 8160, Note_on_c, 4, 62, 0
6, 8256, Note_on_c, 4, 69, 127
6, 8256, Note_on_c, 4, 62, 127
6, 8304, Note_on_c, 4, 62, 0
6, 8304, Note_on_c, 4, 69, 0
6, 8496, Note_on_c, 4, 64, 127
6, 8496, Note_on_c, 4, 69, 127
6, 8544, Note_on_c, 4, 69, 0
6, 8544, Note_on_c, 4, 64, 0
6, 8640, Note_on_c, 4, 64, 127
6, 8640, Note_on_c, 4, 69, 127
6, 8688, Note_on_c, 4, 69, 0
6, 8688, Note_on_c, 4, 64, 0
6, 8880, Note_on_c, 4, 62, 127
6, 8880, Note_on_c, 4, 57, 127
6, 8928, Note_on_c, 4, 57, 0
6, 8928, Note_on_c, 4, 62, 0
6, 8928, Note_on_c, 4, 59, 127
6, 8928, Note_on_c, 4, 62, 127
6, 8976, Note_on_c, 4, 62, 0
6, 8976, Note_on_c, 4, 59, 0
6, 9024, Note_on_c, 4, 62, 127
6, 9024, Note_on_c, 4, 57, 127
6, 9072, Note_on_c, 4, 57, 0
6, 9072, Note_on_c, 4, 62, 0
6, 9120, Note_on_c, 4, 59, 127
6, 9120, Note_on_c, 4, 62, 127
6, 9168, Note_on_c, 4, 62, 0
6, 9168, Note_on_c, 4, 59, 0
6, 9216, Note_on_c, 4, 62, 127
6, 9264, Note_on_c, 4, 62, 0
6, 9264, Note_on_c, 4, 59, 127
6, 9312, Note_on_c, 4, 59, 0
6, 9312, Note_on_c, 4, 57, 127
6, 9360, Note_on_c, 4, 57, 0
6, 9360, Note_on_c, 4, 54, 127
6, 9406, Pitch_bend_c, 4, 8192
6, 9408, Note_on_c, 4, 54, 0
6, 9408, Note_on_c, 4, 54, 127
6, 9504, Note_on_c, 4, 54, 0
6, 9648, Note_on_c, 4, 57, 127
6, 9648, Note_on_c, 4, 62, 127
6, 9696, Note_on_c, 4, 62, 0
6, 9696, Note_on_c, 4, 57, 0
6, 9792, Note_on_c, 4, 62, 127
6, 9792, Note_on_c, 4, 57, 127
6, 9840, Note_on_c, 4, 57, 0
6, 9840, Note_on_c, 4, 62, 0
6, 10032, Note_on_c, 4, 62, 127
6, 10032, Note_on_c, 4, 57, 127
6, 10080, Note_on_c, 4, 57, 0
6, 10080, Note_on_c, 4, 62, 0
6, 10176, Note_on_c, 4, 62, 127
6, 10176, Note_on_c, 4, 57, 127
6, 10224, Note_on_c, 4, 57, 0
6, 10224, Note_on_c, 4, 62, 0
6, 10416, Note_on_c, 4, 62, 127
6, 10416, Note_on_c, 4, 55, 127
6, 10464, Note_on_c, 4, 55, 0
6, 10464, Note_on_c, 4, 62, 0
6, 10560, Note_on_c, 4, 55, 127
6, 10560, Note_on_c, 4, 62, 127
6, 10608, Note_on_c, 4, 62, 0
6, 10608, Note_on_c, 4, 55, 0
6, 10800, Note_on_c, 4, 55, 127
6, 10800, Note_on_c, 4, 62, 127
6, 10848, Note_on_c, 4, 62, 0
6, 10848, Note_on_c, 4, 55, 0
6, 10944, Note_on_c, 4, 62, 127
6, 10944, Note_on_c, 4, 55, 127
6, 10992, Note_on_c, 4, 55, 0
6, 10992, Note_on_c, 4, 62, 0
6, 11184, Note_on_c, 4, 62, 127
6, 11184, Note_on_c, 4, 69, 127
6, 11232, Note_on_c, 4, 69, 0
6, 11232, Note_on_c, 4, 62, 0
6, 11328, Note_on_c, 4, 69, 127
6, 11328, Note_on_c, 4, 62, 127
6, 11376, Note_on_c, 4, 62, 0
6, 11376, Note_on_c, 4, 69, 0
6, 11568, Note_on_c, 4, 64, 127
6, 11568, Note_on_c, 4, 69, 127
6, 11616, Note_on_c, 4, 69, 0
6, 11616, Note_on_c, 4, 64, 0
6, 11712, Note_on_c, 4, 64, 127
6, 11712, Note_on_c, 4, 69, 127
6, 11760, Note_on_c, 4, 69, 0
6, 11760, Note_on_c, 4, 64, 0
6, 11952, Note_on_c, 4, 62, 127
6, 11952, Note_on_c, 4, 69, 127
6, 12000, Note_on_c, 4, 69, 0
6, 12000, Note_on_c, 4, 62, 0
6, 12000, Note_on_c, 4, 71, 127
6, 12000, Note_on_c, 4, 62, 127
6, 12048, Note_on_c, 4, 62, 0
6, 12048, Note_on_c, 4, 71, 0
6, 12048, Note_on_c, 4, 62, 107
6, 12096, Note_on_c, 4, 62, 0
6, 12096, Note_on_c, 4, 62, 127
6, 12096, Note_on_c, 4, 69, 127
6, 12144, Note_on_c, 4, 69, 0
6, 12144, Note_on_c, 4, 62, 0
6, 12144, Note_on_c, 4, 62, 105
6, 12192, Note_on_c, 4, 62, 0
6, 12192, Note_on_c, 4, 71, 127
6, 12192, Note_on_c, 4, 62, 127
6, 12240, Note_on_c, 4, 62, 0
6, 12240, Note_on_c, 4, 71, 0
6, 12240, Note_on_c, 4, 62, 105
6, 12288, Note_on_c, 4, 62, 0
6, 12288, Note_on_c, 4, 62, 127
6, 12288, Note_on_c, 4, 69, 127
6, 12336, Note_on_c, 4, 69, 0
6, 12336, Note_on_c, 4, 62, 0
6, 12336, Note_on_c, 4, 69, 127
6, 12336, Note_on_c, 4, 62, 127
6, 12384, Note_on_c, 4, 62, 0
6, 12384, Note_on_c, 4, 69, 0
6, 12384, Note_on_c, 4, 59, 127
6, 12384, Note_on_c, 4, 62, 127
6, 12432, Note_on_c, 4, 62, 0
6, 12432, Note_on_c, 4, 59, 0
6, 12432, Note_on_c, 4, 62, 127
6, 12432, Note_on_c, 4, 69, 127
6, 12504, Note_on_c, 4, 69, 0
6, 12504, Note_on_c, 4, 62, 0
6, 12672, Note_on_c, 4, 64, 127
6, 12673, Pitch_bend_c, 4, 8320
6, 12677, Pitch_bend_c, 4, 8448
6, 12679, Pitch_bend_c, 4, 8576
6, 12680, Pitch_bend_c, 4, 8704
6, 12684, Pitch_bend_c, 4, 8832
6, 12686, Pitch_bend_c, 4, 8960
6, 12689, Pitch_bend_c, 4, 9088
6, 12691, Pitch_bend_c, 4, 9216
6, 12693, Pitch_bend_c, 4, 9472
6, 12696, Pitch_bend_c, 4, 9728
6, 12700, Pitch_bend_c, 4, 9984
6, 12702, Pitch_bend_c, 4, 10112
6, 12704, Pitch_bend_c, 4, 10240
6, 12705, Pitch_bend_c, 4, 10496
6, 12707, Pitch_bend_c, 4, 10624
6, 12709, Pitch_bend_c, 4, 10880
6, 12711, Pitch_bend_c, 4, 11008
6, 12712, Pitch_bend_c, 4, 11392
6, 12714, Pitch_bend_c, 4, 11776
6, 12716, Pitch_bend_c, 4, 12288
6, 12718, Pitch_bend_c, 4, 12672
6, 12720, Pitch_bend_c, 4, 13312
6, 12721, Pitch_bend_c, 4, 13696
6, 12723, Pitch_bend_c, 4, 13952
6, 12725, Pitch_bend_c, 4, 14080
6, 12727, Pitch_bend_c, 4, 15104
6, 12728, Pitch_bend_c, 4, 15616
6, 12730, Pitch_bend_c, 4, 16128
6, 12732, Pitch_bend_c, 4, 16383
6, 12760, Pitch_bend_c, 4, 9216
6, 12762, Pitch_bend_c, 4, 9088
6, 12764, Pitch_bend_c, 4, 8960
6, 12766, Pitch_bend_c, 4, 8704
6, 12768, Note_on_c, 4, 64, 0
6, 12768, Pitch_bend_c, 4, 8448
6, 12768, Note_on_c, 4, 69, 127
6, 12769, Pitch_bend_c, 4, 8320
6, 12816, Note_on_c, 4, 69, 0
6, 12864, Note_on_c, 4, 64, 127
6, 12865, Pitch_bend_c, 4, 8320
6, 12869, Pitch_bend_c, 4, 8448
6, 12871, Pitch_bend_c, 4, 8576
6, 12872, Pitch_bend_c, 4, 8704
6, 12876, Pitch_bend_c, 4, 8832
6, 12878, Pitch_bend_c, 4, 8960
6, 12881, Pitch_bend_c, 4, 9088
6, 12883, Pitch_bend_c, 4, 9216
6, 12885, Pitch_bend_c, 4, 9472
6, 12888, Pitch_bend_c, 4, 9728
6, 12892, Pitch_bend_c, 4, 9984
6, 12894, Pitch_bend_c, 4, 10112
6, 12896, Pitch_bend_c, 4, 10240
6, 12897, Pitch_bend_c, 4, 10496
6, 12899, Pitch_bend_c, 4, 10624
6, 12901, Pitch_bend_c, 4, 10880
6, 12903, Pitch_bend_c, 4, 11008
6, 12904, Pitch_bend_c, 4, 11392
6, 12906, Pitch_bend_c, 4, 11776
6, 12908, Pitch_bend_c, 4, 12288
6, 12910, Pitch_bend_c, 4, 12672
6, 12912, Pitch_bend_c, 4, 13312
6, 12913, Pitch_bend_c, 4, 13696
6, 12915, Pitch_bend_c, 4, 13952
6, 12917, Pitch_bend_c, 4, 14080
6, 12919, Pitch_bend_c, 4, 15104
6, 12920, Pitch_bend_c, 4, 15616
6, 12922, Pitch_bend_c, 4, 16128
6, 12924, Pitch_bend_c, 4, 16383
6, 12952, Pitch_bend_c, 4, 9216
6, 12954, Pitch_bend_c, 4, 9088
6, 12956, Pitch_bend_c, 4, 8960
6, 12958, Pitch_bend_c, 4, 8704
6, 12960, Note_on_c, 4, 64, 0
6, 12960, Note_on_c, 4, 69, 127
6, 13008, Note_on_c, 4, 69, 0
6, 13008, Note_on_c, 4, 64, 127
6, 13013, Pitch_bend_c, 4, 8320
6, 13015, Pitch_bend_c, 4, 8576
6, 13016, Pitch_bend_c, 4, 8832
6, 13018, Pitch_bend_c, 4, 8960
6, 13020, Pitch_bend_c, 4, 9216
6, 13022, Pitch_bend_c, 4, 9472
6, 13024, Pitch_bend_c, 4, 9728
6, 13025, Pitch_bend_c, 4, 9984
6, 13027, Pitch_bend_c, 4, 10752
6, 13029, Pitch_bend_c, 4, 11264
6, 13031, Pitch_bend_c, 4, 12160
6, 13032, Pitch_bend_c, 4, 13568
6, 13034, Pitch_bend_c, 4, 14592
6, 13036, Pitch_bend_c, 4, 15232
6, 13038, Pitch_bend_c, 4, 15744
6, 13040, Pitch_bend_c, 4, 16383
6, 13056, Note_on_c, 4, 64, 0
6, 13061, Pitch_bend_c, 4, 8320
6, 13104, Note_on_c, 4, 64, 127
6, 13152, Note_on_c, 4, 64, 0
6, 13152, Note_on_c, 4, 62, 127
6, 13200, Note_on_c, 4, 62, 0
6, 13200, Note_on_c, 4, 59, 127
6, 13248, Note_on_c, 4, 59, 0
6, 13248, Note_on_c, 4, 62, 127
6, 13320, Note_on_c, 4, 62, 0
6, 13344, Note_on_c, 4, 64, 127
6, 13392, Note_on_c, 4, 64, 0
6, 13392, Note_on_c, 4, 62, 127
6, 13440, Note_on_c, 4, 62, 0
6, 13440, Note_on_c, 4, 57, 127
6, 13441, Pitch_bend_c, 4, 8320
6, 13445, Pitch_bend_c, 4, 8448
6, 13447, Pitch_bend_c, 4, 8576
6, 13448, Pitch_bend_c, 4, 8704
6, 13452, Pitch_bend_c, 4, 8832
6, 13454, Pitch_bend_c, 4, 8960
6, 13457, Pitch_bend_c, 4, 9088
6, 13459, Pitch_bend_c, 4, 9216
6, 13461, Pitch_bend_c, 4, 9472
6, 13464, Pitch_bend_c, 4, 9728
6, 13468, Pitch_bend_c, 4, 9984
6, 13470, Pitch_bend_c, 4, 10112
6, 13472, Pitch_bend_c, 4, 10240
6, 13473, Pitch_bend_c, 4, 10496
6, 13475, Pitch_bend_c, 4, 10624
6, 13477, Pitch_bend_c, 4, 10880
6, 13479, Pitch_bend_c, 4, 11008
6, 13480, Pitch_bend_c, 4, 11392
6, 13482, Pitch_bend_c, 4, 11776
6, 13484, Pitch_bend_c, 4, 12288
6, 13486, Pitch_bend_c, 4, 12672
6, 13488, Pitch_bend_c, 4, 13312
6, 13489, Pitch_bend_c, 4, 13696
6, 13491, Pitch_bend_c, 4, 13952
6, 13493, Pitch_bend_c, 4, 14080
6, 13495, Pitch_bend_c, 4, 15104
6, 13496, Pitch_bend_c, 4, 15616
6, 13498, Pitch_bend_c, 4, 16128
6, 13500, Pitch_bend_c, 4, 16383
6, 13502, Pitch_bend_c, 4, 16383
6, 13536, Note_on_c, 4, 57, 0
6, 13536, Note_on_c, 4, 60, 127
6, 13584, Note_on_c, 4, 60, 0
6, 13584, Note_on_c, 4, 57, 127
6, 13616, Pitch_bend_c, 4, 16128
6, 13617, Pitch_bend_c, 4, 16000
6, 13619, Pitch_bend_c, 4, 15360
6, 13621, Pitch_bend_c, 4, 14848
6, 13623, Pitch_bend_c, 4, 14080
6, 13624, Pitch_bend_c, 4, 13696
6, 13626, Pitch_bend_c, 4, 13184
6, 13628, Pitch_bend_c, 4, 12800
6, 13630, Pitch_bend_c, 4, 12288
6, 13632, Pitch_bend_c, 4, 12160
6, 13633, Pitch_bend_c, 4, 11648
6, 13635, Pitch_bend_c, 4, 11136
6, 13637, Pitch_bend_c, 4, 10752
6, 13639, Pitch_bend_c, 4, 10496
6, 13640, Pitch_bend_c, 4, 10112
6, 13642, Pitch_bend_c, 4, 9856
6, 13644, Pitch_bend_c, 4, 9600
6, 13646, Pitch_bend_c, 4, 9344
6, 13648, Pitch_bend_c, 4, 9216
6, 13649, Pitch_bend_c, 4, 9088
6, 13651, Pitch_bend_c, 4, 8832
6, 13655, Pitch_bend_c, 4, 8704
6, 13656, Pitch_bend_c, 4, 8576
6, 13658, Pitch_bend_c, 4, 8448
6, 13665, Pitch_bend_c, 4, 8320
6, 13680, Note_on_c, 4, 57, 0
6, 13680, Note_on_c, 4, 55, 127
6, 13728, Note_on_c, 4, 55, 0
6, 13728, Note_on_c, 4, 52, 127
6, 13776, Note_on_c, 4, 52, 0
6, 13776, Note_on_c, 4, 50, 127
6, 13824, Note_on_c, 4, 50, 0
6, 13824, Note_on_c, 4, 55, 127
6, 13872, Note_on_c, 4, 55, 0
6, 13872, Note_on_c, 4, 50, 127
6, 13920, Note_on_c, 4, 50, 0
6, 13920, Note_on_c, 4, 57, 127
6, 13968, Note_on_c, 4, 57, 0
6, 13968, Note_on_c, 4, 55, 127
6, 14016, Note_on_c, 4, 55, 0
6, 14016, Note_on_c, 4, 52, 127
6, 14064, Note_on_c, 4, 52, 0
6, 14064, Note_on_c, 4, 50, 127
6, 14112, Note_on_c, 4, 50, 0
6, 14112, Note_on_c, 4, 47, 127
6, 14160, Note_on_c, 4, 47, 0
6, 14160, Note_on_c, 4, 45, 127
6, 14208, Note_on_c, 4, 45, 0
6, 14208, Note_on_c, 4, 38, 127
6, 14328, Note_on_c, 4, 38, 0
6, 14343, Control_c, 4, 1, 0
6, 14344, Control_c, 4, 1, 1
6, 14348, Control_c, 4, 1, 3
6, 14350, Control_c, 4, 1, 5
6, 14352, Control_c, 4, 1, 9
6, 14352, Note_on_c, 4, 78, 127
6, 14352, Note_on_c, 4, 74, 127
6, 14353, Control_c, 4, 1, 11
6, 14355, Control_c, 4, 1, 13
6, 14357, Control_c, 4, 1, 47
6, 14359, Control_c, 4, 1, 50
6, 14360, Control_c, 4, 1, 53
6, 14364, Control_c, 4, 1, 54
6, 14366, Control_c, 4, 1, 59
6, 14369, Control_c, 4, 1, 58
6, 14460, Control_c, 4, 1, 57
6, 14462, Control_c, 4, 1, 55
6, 14464, Control_c, 4, 1, 54
6, 14465, Control_c, 4, 1, 50
6, 14467, Control_c, 4, 1, 48
6, 14469, Control_c, 4, 1, 47
6, 14471, Control_c, 4, 1, 45
6, 14472, Control_c, 4, 1, 44
6, 14474, Control_c, 4, 1, 41
6, 14476, Control_c, 4, 1, 38
6, 14478, Control_c, 4, 1, 35
6, 14480, Control_c, 4, 1, 30
6, 14481, Control_c, 4, 1, 20
6, 14483, Control_c, 4, 1, 18
6, 14485, Control_c, 4, 1, 14
6, 14487, Control_c, 4, 1, 11
6, 14490, Control_c, 4, 1, 10
6, 14492, Control_c, 4, 1, 7
6, 14494, Control_c, 4, 1, 6
6, 14496, Note_on_c, 4, 74, 0
6, 14496, Note_on_c, 4, 78, 0
6, 14496, Control_c, 4, 1, 5
6, 14499, Control_c, 4, 1, 4
6, 14592, Note_on_c, 4, 64, 127
6, 14593, Pitch_bend_c, 4, 8320
6, 14597, Pitch_bend_c, 4, 8448
6, 14599, Pitch_bend_c, 4, 8576
6, 14600, Pitch_bend_c, 4, 8704
6, 14604, Pitch_bend_c, 4, 8832
6, 14606, Pitch_bend_c, 4, 8960
6, 14609, Pitch_bend_c, 4, 9088
6, 14611, Pitch_bend_c, 4, 9216
6, 14613, Pitch_bend_c, 4, 9472
6, 14616, Pitch_bend_c, 4, 9728
6, 14620, Pitch_bend_c, 4, 9984
6, 14622, Pitch_bend_c, 4, 10112
6, 14624, Pitch_bend_c, 4, 10240
6, 14625, Pitch_bend_c, 4, 10496
6, 14627, Pitch_bend_c, 4, 10624
6, 14629, Pitch_bend_c, 4, 10880
6, 14631, Pitch_bend_c, 4, 11008
6, 14632, Pitch_bend_c, 4, 11392
6, 14634, Pitch_bend_c, 4, 11776
6, 14636, Pitch_bend_c, 4, 12288
6, 14638, Pitch_bend_c, 4, 12672
6, 14640, Pitch_bend_c, 4, 13312
6, 14641, Pitch_bend_c, 4, 13696
6, 14643, Pitch_bend_c, 4, 13952
6, 14645, Pitch_bend_c, 4, 14080
6, 14647, Pitch_bend_c, 4, 15104
6, 14648, Pitch_bend_c, 4, 15616
6, 14650, Pitch_bend_c, 4, 16128
6, 14652, Pitch_bend_c, 4, 16383
6, 14654, Pitch_bend_c, 4, 16383
6, 14688, Note_on_c, 4, 64, 0
6, 14688, Note_on_c, 4, 67, 127
6, 14736, Note_on_c, 4, 67, 0
6, 14736, Note_on_c, 4, 64, 127
6, 14768, Pitch_bend_c, 4, 16128
6, 14769, Pitch_bend_c, 4, 16000
6, 14771, Pitch_bend_c, 4, 15360
6, 14773, Pitch_bend_c, 4, 14848
6, 14775, Pitch_bend_c, 4, 14080
6, 14776, Pitch_bend_c, 4, 13696
6, 14778, Pitch_bend_c, 4, 13184
6, 14780, Pitch_bend_c, 4, 12800
6, 14782, Pitch_bend_c, 4, 12288
6, 14784, Pitch_bend_c, 4, 12160
6, 14785, Pitch_bend_c, 4, 11648
6, 14787, Pitch_bend_c, 4, 11136
6, 14789, Pitch_bend_c, 4, 10752
6, 14791, Pitch_bend_c, 4, 10496
6, 14792, Pitch_bend_c, 4, 10112
6, 14794, Pitch_bend_c, 4, 9856
6, 14796, Pitch_bend_c, 4, 9600
6, 14798, Pitch_bend_c, 4, 9344
6, 14800, Pitch_bend_c, 4, 9216
6, 14801, Pitch_bend_c, 4, 9088
6, 14803, Pitch_bend_c, 4, 8832
6, 14807, Pitch_bend_c, 4, 8704
6, 14808, Pitch_bend_c, 4, 8576
6, 14810, Pitch_bend_c, 4, 8448
6, 14817, Pitch_bend_c, 4, 8320
6, 14832, Note_on_c, 4, 64, 0
6, 14832, Note_on_c, 4, 62, 127
6, 14880, Note_on_c, 4, 62, 0
6, 14880, Note_on_c, 4, 59, 127
6, 14928, Note_on_c, 4, 59, 0
6, 14928, Note_on_c, 4, 57, 127
6, 14976, Note_on_c, 4, 57, 0
6, 14976, Note_on_c, 4, 50, 127
6, 15072, Note_on_c, 4, 50, 0
6, 15120, Note_on_c, 4, 74, 127
6, 15120, Note_on_c, 4, 78, 127
6, 15130, Control_c, 4, 1, 2
6, 15132, Control_c, 4, 1, 7
6, 15134, Control_c, 4, 1, 12
6, 15136, Control_c, 4, 1, 17
6, 15137, Control_c, 4, 1, 22
6, 15139, Control_c, 4, 1, 27
6, 15141, Control_c, 4, 1, 32
6, 15143, Control_c, 4, 1, 37
6, 15144, Control_c, 4, 1, 42
6, 15146, Control_c, 4, 1, 47
6, 15148, Control_c, 4, 1, 52
6, 15150, Control_c, 4, 1, 57
6, 15152, Control_c, 4, 1, 63
6, 15153, Control_c, 4, 1, 63
6, 15224, Control_c, 4, 1, 64
6, 15240, Note_on_c, 4, 78, 0
6, 15240, Note_on_c, 4, 74, 0
6, 15312, Note_on_c, 4, 78, 127
6, 15312, Note_on_c, 4, 74, 127
6, 15432, Note_on_c, 4, 74, 0
6, 15432, Note_on_c, 4, 78, 0
6, 15504, Note_on_c, 4, 74, 127
6, 15504, Note_on_c, 4, 78, 127
6, 15617, Control_c, 4, 1, 64
6, 15619, Control_c, 4, 1, 60
6, 15621, Control_c, 4, 1, 56
6, 15623, Control_c, 4, 1, 52
6, 15624, Note_on_c, 4, 78, 0
6, 15624, Note_on_c, 4, 74, 0
6, 15624, Control_c, 4, 1, 48
6, 15626, Control_c, 4, 1, 44
6, 15628, Control_c, 4, 1, 40
6, 15630, Control_c, 4, 1, 36
6, 15632, Control_c, 4, 1, 32
6, 15633, Control_c, 4, 1, 28
6, 15635, Control_c, 4, 1, 24
6, 15637, Control_c, 4, 1, 20
6, 15639, Control_c, 4, 1, 16
6, 15640, Control_c, 4, 1, 12
6, 15642, Control_c, 4, 1, 8
6, 15644, Control_c, 4, 1, 4
6, 15646, Control_c, 4, 1, 0
6, 18192, Note_on_c, 4, 78, 127
6, 18192, Note_on_c, 4, 74, 127
6, 18202, Control_c, 4, 1, 2
6, 18204, Control_c, 4, 1, 7
6, 18206, Control_c, 4, 1, 12
6, 18208, Control_c, 4, 1, 17
6, 18209, Control_c, 4, 1, 22
6, 18211, Control_c, 4, 1, 27
6, 18213, Control_c, 4, 1, 32
6, 18215, Control_c, 4, 1, 37
6, 18216, Control_c, 4, 1, 42
6, 18218, Control_c, 4, 1, 47
6, 18220, Control_c, 4, 1, 52
6, 18222, Control_c, 4, 1, 57
6, 18224, Control_c, 4, 1, 63
6, 18225, Control_c, 4, 1, 63
6, 18296, Control_c, 4, 1, 64
6, 18312, Note_on_c, 4, 74, 0
6, 18312, Note_on_c, 4, 78, 0
6, 18384, Note_on_c, 4, 74, 100
6, 18384, Note_on_c, 4, 78, 127
6, 18504, Note_on_c, 4, 78, 0
6, 18510, Note_on_c, 4, 74, 0
6, 18576, Note_on_c, 4, 74, 127
6, 18576, Note_on_c, 4, 78, 127
6, 18689, Control_c, 4, 1, 64
6, 18691, Control_c, 4, 1, 60
6, 18693, Control_c, 4, 1, 56
6, 18695, Control_c, 4, 1, 52
6, 18696, Note_on_c, 4, 78, 0
6, 18696, Note_on_c, 4, 74, 0
6, 18696, Control_c, 4, 1, 48
6, 18698, Control_c, 4, 1, 44
6, 18700, Control_c, 4, 1, 40
6, 18702, Control_c, 4, 1, 36
6, 18704, Control_c, 4, 1, 32
6, 18705, Control_c, 4, 1, 28
6, 18707, Control_c, 4, 1, 24
6, 18709, Control_c, 4, 1, 20
6, 18711, Control_c, 4, 1, 16
6, 18712, Control_c, 4, 1, 12
6, 18714, Control_c, 4, 1, 8
6, 18716, Control_c, 4, 1, 4
6, 18718, Control_c, 4, 1, 0
6, 19008, Note_on_c, 4, 57, 127
6, 19056, Note_on_c, 4, 57, 0
6, 19056, Note_on_c, 4, 59, 127
6, 19104, Note_on_c, 4, 59, 0
6, 19104, Note_on_c, 4, 62, 127
6, 19149, Pitch_bend_c, 4, 8192
6, 19152, Note_on_c, 4, 62, 0
6, 19152, Note_on_c, 4, 64, 127
6, 19163, Pitch_bend_c, 4, 8320
6, 19165, Pitch_bend_c, 4, 8448
6, 19172, Pitch_bend_c, 4, 8960
6, 19173, Pitch_bend_c, 4, 9088
6, 19176, Pitch_bend_c, 4, 9216
6, 19177, Pitch_bend_c, 4, 9472
6, 19180, Pitch_bend_c, 4, 9600
6, 19181, Pitch_bend_c, 4, 9728
6, 19183, Pitch_bend_c, 4, 9984
6, 19186, Pitch_bend_c, 4, 10112
6, 19187, Pitch_bend_c, 4, 10368
6, 19188, Pitch_bend_c, 4, 10496
6, 19190, Pitch_bend_c, 4, 10624
6, 19193, Pitch_bend_c, 4, 10752
6, 19194, Pitch_bend_c, 4, 10880
6, 19200, Pitch_bend_c, 4, 11136
6, 19202, Pitch_bend_c, 4, 11392
6, 19205, Pitch_bend_c, 4, 11648
6, 19206, Pitch_bend_c, 4, 11904
6, 19208, Pitch_bend_c, 4, 12032
6, 19209, Pitch_bend_c, 4, 12288
6, 19211, Pitch_bend_c, 4, 12416
6, 19212, Pitch_bend_c, 4, 12672
6, 19215, Pitch_bend_c, 4, 12928
6, 19216, Pitch_bend_c, 4, 13184
6, 19218, Pitch_bend_c, 4, 13440
6, 19219, Pitch_bend_c, 4, 13568
6, 19220, Pitch_bend_c, 4, 13952
6, 19222, Pitch_bend_c, 4, 14080
6, 19223, Pitch_bend_c, 4, 14336
6, 19225, Pitch_bend_c, 4, 14592
6, 19226, Pitch_bend_c, 4, 14720
6, 19227, Pitch_bend_c, 4, 14976
6, 19229, Pitch_bend_c, 4, 15360
6, 19230, Pitch_bend_c, 4, 15616
6, 19232, Pitch_bend_c, 4, 15744
6, 19233, Pitch_bend_c, 4, 15872
6, 19234, Pitch_bend_c, 4, 16000
6, 19237, Pitch_bend_c, 4, 16128
6, 19238, Pitch_bend_c, 4, 16256
6, 19241, Pitch_bend_c, 4, 16383
6, 19440, Note_on_c, 4, 64, 0
6, 19449, Pitch_bend_c, 4, 16000
6, 19450, Pitch_bend_c, 4, 15232
6, 19451, Pitch_bend_c, 4, 14976
6, 19453, Pitch_bend_c, 4, 8704
6, 19456, Pitch_bend_c, 4, 8576
6, 19462, Pitch_bend_c, 4, 8320
6, 19632, Note_on_c, 4, 64, 127
6, 19680, Note_on_c, 4, 64, 0
6, 19680, Note_on_c, 4, 62, 127
6, 19728, Note_on_c, 4, 62, 0
6, 19776, Note_on_c, 4, 62, 127
6, 19824, Note_on_c, 4, 62, 0
6, 19872, Note_on_c, 4, 64, 127
6, 19920, Note_on_c, 4, 64, 0
6, 19920, Note_on_c, 4, 62, 127
6, 19968, Note_on_c, 4, 62, 0
6, 19968, Note_on_c, 4, 64, 127
6, 20016, Note_on_c, 4, 64, 0
6, 20016, Pitch_bend_c, 4, 8192
6, 20016, Note_on_c, 4, 64, 127
6, 20019, Pitch_bend_c, 4, 8320
6, 20020, Pitch_bend_c, 4, 8576
6, 20023, Pitch_bend_c, 4, 8960
6, 20025, Pitch_bend_c, 4, 9216
6, 20026, Pitch_bend_c, 4, 9344
6, 20027, Pitch_bend_c, 4, 9600
6, 20029, Pitch_bend_c, 4, 9984
6, 20030, Pitch_bend_c, 4, 11392
6, 20032, Pitch_bend_c, 4, 12160
6, 20033, Pitch_bend_c, 4, 12544
6, 20034, Pitch_bend_c, 4, 13184
6, 20036, Pitch_bend_c, 4, 13696
6, 20037, Pitch_bend_c, 4, 13824
6, 20038, Pitch_bend_c, 4, 14080
6, 20040, Pitch_bend_c, 4, 14464
6, 20041, Pitch_bend_c, 4, 16000
6, 20044, Pitch_bend_c, 4, 16128
6, 20045, Pitch_bend_c, 4, 16256
6, 20048, Pitch_bend_c, 4, 16383
6, 20079, Pitch_bend_c, 4, 16256
6, 20080, Pitch_bend_c, 4, 16128
6, 20082, Pitch_bend_c, 4, 16000
6, 20083, Pitch_bend_c, 4, 15744
6, 20084, Pitch_bend_c, 4, 15488
6, 20086, Pitch_bend_c, 4, 15360
6, 20087, Pitch_bend_c, 4, 14976
6, 20089, Pitch_bend_c, 4, 14592
6, 20090, Pitch_bend_c, 4, 13568
6, 20091, Pitch_bend_c, 4, 12544
6, 20093, Pitch_bend_c, 4, 12160
6, 20094, Pitch_bend_c, 4, 11776
6, 20096, Pitch_bend_c, 4, 11264
6, 20097, Pitch_bend_c, 4, 11008
6, 20098, Pitch_bend_c, 4, 10752
6, 20100, Pitch_bend_c, 4, 10496
6, 20101, Pitch_bend_c, 4, 10240
6, 20102, Pitch_bend_c, 4, 9984
6, 20104, Pitch_bend_c, 4, 9856
6, 20105, Pitch_bend_c, 4, 9600
6, 20107, Pitch_bend_c, 4, 9472
6, 20108, Pitch_bend_c, 4, 9344
6, 20109, Pitch_bend_c, 4, 9216
6, 20111, Pitch_bend_c, 4, 9088
6, 20112, Note_on_c, 4, 64, 0
6, 20112, Note_on_c, 4, 62, 127
6, 20112, Pitch_bend_c, 4, 8832
6, 20114, Pitch_bend_c, 4, 8704
6, 20115, Pitch_bend_c, 4, 8576
6, 20116, Pitch_bend_c, 4, 8448
6, 20208, Note_on_c, 4, 62, 0
6, 20208, Note_on_c, 4, 62, 127
6, 20256, Note_on_c, 4, 62, 0
6, 20256, Note_on_c, 4, 59, 127
6, 20304, Note_on_c, 4, 59, 0
6, 20352, Note_on_c, 4, 57, 127
6, 20352, Note_on_c, 4, 62, 127
6, 20448, Note_on_c, 4, 62, 0
6, 20448, Note_on_c, 4, 57, 0
6, 20448, Note_on_c, 4, 54, 127
6, 20448, Note_on_c, 4, 59, 127
6, 20496, Note_on_c, 4, 59, 0
6, 20496, Note_on_c, 4, 54, 0
6, 20592, Note_on_c, 4, 57, 127
6, 20592, Note_on_c, 4, 62, 127
6, 20640, Note_on_c, 4, 62, 0
6, 20640, Note_on_c, 4, 57, 0
6, 20640, Note_on_c, 4, 54, 127
6, 20640, Note_on_c, 4, 59, 127
6, 20688, Note_on_c, 4, 59, 0
6, 20688, Note_on_c, 4, 54, 0
6, 20736, Note_on_c, 4, 57, 127
6, 20736, Note_on_c, 4, 61, 127
6, 20832, Note_on_c, 4, 61, 0
6, 20832, Note_on_c, 4, 57, 0
6, 20832, Note_on_c, 4, 52, 127
6, 20832, Note_on_c, 4, 57, 127
6, 20880, Note_on_c, 4, 57, 0
6, 20880, Note_on_c, 4, 52, 0
6, 20976, Note_on_c, 4, 52, 127
6, 20976, Note_on_c, 4, 61, 127
6, 21024, Note_on_c, 4, 61, 0
6, 21024, Note_on_c, 4, 52, 0
6, 21168, Note_on_c, 4, 72, 127
6, 21168, Note_on_c, 4, 62, 127
6, 21216, Note_on_c, 4, 72, 0
6, 21216, Note_on_c, 4, 71, 127
6, 21264, Note_on_c, 4, 71, 0
6, 21264, Note_on_c, 4, 62, 0
6, 21264, Note_on_c, 4, 62, 127
6, 21264, Note_on_c, 4, 69, 127
6, 21312, Note_on_c, 4, 69, 0
6, 21312, Note_on_c, 4, 62, 0
6, 21312, Note_on_c, 4, 62, 127
6, 21312, Note_on_c, 4, 72, 127
6, 21360, Note_on_c, 4, 72, 0
6, 21360, Note_on_c, 4, 71, 127
6, 21408, Note_on_c, 4, 71, 0
6, 21408, Note_on_c, 4, 62, 0
6, 21408, Note_on_c, 4, 62, 127
6, 21408, Note_on_c, 4, 69, 127
6, 21456, Note_on_c, 4, 69, 0
6, 21456, Note_on_c, 4, 62, 0
6, 21456, Note_on_c, 4, 62, 127
6, 21456, Note_on_c, 4, 72, 127
6, 21504, Note_on_c, 4, 72, 0
6, 21504, Note_on_c, 4, 71, 127
6, 21552, Note_on_c, 4, 71, 0
6, 21552, Note_on_c, 4, 62, 0
6, 21552, Note_on_c, 4, 62, 127
6, 21552, Note_on_c, 4, 69, 127
6, 21600, Note_on_c, 4, 69, 0
6, 21600, Note_on_c, 4, 62, 0
6, 21600, Note_on_c, 4, 65, 127
6, 21610, Note_on_c, 4, 66, 127
6, 21613, Note_on_c, 4, 65, 0
6, 21647, Note_on_c, 4, 66, 0
6, 21648, Note_on_c, 4, 74, 127
6, 21768, Note_on_c, 4, 74, 0
6, 21888, Note_on_c, 4, 57, 127
6, 21888, Note_on_c, 4, 62, 127
6, 21936, Note_on_c, 4, 62, 0
6, 21936, Note_on_c, 4, 57, 0
6, 21984, Note_on_c, 4, 57, 127
6, 21984, Note_on_c, 4, 59, 127
6, 22032, Note_on_c, 4, 59, 0
6, 22032, Note_on_c, 4, 57, 0
6, 22080, Note_on_c, 4, 57, 127
6, 22080, Note_on_c, 4, 62, 127
6, 22128, Note_on_c, 4, 62, 0
6, 22128, Note_on_c, 4, 57, 0
6, 22176, Note_on_c, 4, 57, 127
6, 22176, Note_on_c, 4, 59, 127
6, 22224, Note_on_c, 4, 59, 0
6, 22224, Note_on_c, 4, 57, 0
6, 22272, Note_on_c, 4, 62, 127
6, 22272, Note_on_c, 4, 57, 127
6, 22320, Note_on_c, 4, 57, 0
6, 22320, Note_on_c, 4, 62, 0
6, 22368, Note_on_c, 4, 57, 127
6, 22368, Note_on_c, 4, 59, 127
6, 22416, Note_on_c, 4, 59, 0
6, 22416, Note_on_c, 4, 57, 0
6, 22416, Note_on_c, 4, 62, 127
6, 22416, Note_on_c, 4, 57, 127
6, 22464, Note_on_c, 4, 57, 0
6, 22464, Note_on_c, 4, 62, 0
6, 22704, Note_on_c, 4, 55, 127
6, 22704, Note_on_c, 4, 62, 127
6, 22752, Note_on_c, 4, 62, 0
6, 22752, Note_on_c, 4, 55, 0
6, 22848, Note_on_c, 4, 55, 127
6, 22848, Note_on_c, 4, 62, 127
6, 22896, Note_on_c, 4, 62, 0
6, 22896, Note_on_c, 4, 55, 0
6, 23088, Note_on_c, 4, 55, 127
6, 23088, Note_on_c, 4, 62, 127
6, 23136, Note_on_c, 4, 62, 0
6, 23136, Note_on_c, 4, 55, 0
6, 23232, Note_on_c, 4, 62, 127
6, 23232, Note_on_c, 4, 55, 127
6, 23280, Note_on_c, 4, 55, 0
6, 23280, Note_on_c, 4, 62, 0
6, 23456, Pitch_bend_c, 4, 8192
6, 23472, Note_on_c, 4, 64, 127
6, 23478, Pitch_bend_c, 4, 8192
6, 23479, Pitch_bend_c, 4, 8320
6, 23488, Pitch_bend_c, 4, 9088
6, 23490, Pitch_bend_c, 4, 10112
6, 23492, Pitch_bend_c, 4, 10880
6, 23493, Pitch_bend_c, 4, 11264
6, 23494, Pitch_bend_c, 4, 11392
6, 23499, Pitch_bend_c, 4, 12416
6, 23501, Pitch_bend_c, 4, 13056
6, 23503, Pitch_bend_c, 4, 13184
6, 23506, Pitch_bend_c, 4, 13312
6, 23507, Pitch_bend_c, 4, 13568
6, 23508, Pitch_bend_c, 4, 13696
6, 23510, Pitch_bend_c, 4, 14080
6, 23511, Pitch_bend_c, 4, 14208
6, 23513, Pitch_bend_c, 4, 14464
6, 23514, Pitch_bend_c, 4, 14848
6, 23515, Pitch_bend_c, 4, 15488
6, 23517, Pitch_bend_c, 4, 15616
6, 23518, Pitch_bend_c, 4, 15872
6, 23520, Pitch_bend_c, 4, 16128
6, 23521, Pitch_bend_c, 4, 16383
6, 23568, Note_on_c, 4, 64, 0
6, 23568, Note_on_c, 4, 67, 127
6, 23616, Note_on_c, 4, 67, 0
6, 23616, Note_on_c, 4, 64, 127
6, 23629, Pitch_bend_c, 4, 16128
6, 23631, Pitch_bend_c, 4, 15872
6, 23632, Pitch_bend_c, 4, 15232
6, 23634, Pitch_bend_c, 4, 14720
6, 23635, Pitch_bend_c, 4, 13440
6, 23636, Pitch_bend_c, 4, 12928
6, 23638, Pitch_bend_c, 4, 11904
6, 23639, Pitch_bend_c, 4, 11392
6, 23641, Pitch_bend_c, 4, 10752
6, 23642, Pitch_bend_c, 4, 10496
6, 23643, Pitch_bend_c, 4, 10240
6, 23645, Pitch_bend_c, 4, 9728
6, 23646, Pitch_bend_c, 4, 9472
6, 23648, Pitch_bend_c, 4, 9216
6, 23649, Pitch_bend_c, 4, 9088
6, 23650, Pitch_bend_c, 4, 8832
6, 23652, Pitch_bend_c, 4, 8576
6, 23653, Pitch_bend_c, 4, 8448
6, 23654, Pitch_bend_c, 4, 8320
6, 23664, Note_on_c, 4, 64, 0
6, 23664, Note_on_c, 4, 62, 127
6, 23712, Note_on_c, 4, 62, 0
6, 23840, Pitch_bend_c, 4, 8192
6, 23856, Note_on_c, 4, 59, 127
6, 23862, Pitch_bend_c, 4, 8192
6, 23863, Pitch_bend_c, 4, 8320
6, 23872, Pitch_bend_c, 4, 9088
6, 23874, Pitch_bend_c, 4, 10112
6, 23876, Pitch_bend_c, 4, 10880
6, 23877, Pitch_bend_c, 4, 11264
6, 23878, Pitch_bend_c, 4, 11392
6, 23883, Pitch_bend_c, 4, 12416
6, 23885, Pitch_bend_c, 4, 13056
6, 23887, Pitch_bend_c, 4, 13184
6, 23890, Pitch_bend_c, 4, 13312
6, 23891, Pitch_bend_c, 4, 13568
6, 23892, Pitch_bend_c, 4, 13696
6, 23894, Pitch_bend_c, 4, 14080
6, 23895, Pitch_bend_c, 4, 14208
6, 23897, Pitch_bend_c, 4, 14464
6, 23898, Pitch_bend_c, 4, 14848
6, 23899, Pitch_bend_c, 4, 15488
6, 23901, Pitch_bend_c, 4, 15616
6, 23902, Pitch_bend_c, 4, 15872
6, 23904, Pitch_bend_c, 4, 16128
6, 23905, Pitch_bend_c, 4, 16383
6, 23952, Note_on_c, 4, 59, 0
6, 23952, Note_on_c, 4, 62, 127
6, 24000, Note_on_c, 4, 62, 0
6, 24000, Note_on_c, 4, 59, 127
6, 24013, Pitch_bend_c, 4, 16128
6, 24015, Pitch_bend_c, 4, 15872
6, 24016, Pitch_bend_c, 4, 15232
6, 24018, Pitch_bend_c, 4, 14720
6, 24019, Pitch_bend_c, 4, 13440
6, 24020, Pitch_bend_c, 4, 12928
6, 24022, Pitch_bend_c, 4, 11904
6, 24023, Pitch_bend_c, 4, 11392
6, 24025, Pitch_bend_c, 4, 10752
6, 24026, Pitch_bend_c, 4, 10496
6, 24027, Pitch_bend_c, 4, 10240
6, 24029, Pitch_bend_c, 4, 9728
6, 24030, Pitch_bend_c, 4, 9472
6, 24032, Pitch_bend_c, 4, 9216
6, 24033, Pitch_bend_c, 4, 9088
6, 24034, Pitch_bend_c, 4, 8832
6, 24036, Pitch_bend_c, 4, 8576
6, 24037, Pitch_bend_c, 4, 8448
6, 24038, Pitch_bend_c, 4, 8320
6, 24048, Note_on_c, 4, 59, 0
6, 24048, Note_on_c, 4, 57, 127
6, 24096, Note_on_c, 4, 57, 0
6, 24236, Pitch_bend_c, 4, 8576
6, 24237, Pitch_bend_c, 4, 8704
6, 24240, Pitch_bend_c, 4, 9088
6, 24240, Note_on_c, 4, 64, 127
6, 24242, Pitch_bend_c, 4, 9216
6, 24243, Pitch_bend_c, 4, 9472
6, 24244, Pitch_bend_c, 4, 10240
6, 24246, Pitch_bend_c, 4, 10496
6, 24247, Pitch_bend_c, 4, 11264
6, 24249, Pitch_bend_c, 4, 11392
6, 24250, Pitch_bend_c, 4, 11648
6, 24251, Pitch_bend_c, 4, 12416
6, 24253, Pitch_bend_c, 4, 12672
6, 24254, Pitch_bend_c, 4, 12928
6, 24256, Pitch_bend_c, 4, 13312
6, 24257, Pitch_bend_c, 4, 13568
6, 24258, Pitch_bend_c, 4, 14592
6, 24260, Pitch_bend_c, 4, 14848
6, 24261, Pitch_bend_c, 4, 15232
6, 24262, Pitch_bend_c, 4, 15744
6, 24264, Pitch_bend_c, 4, 16000
6, 24267, Pitch_bend_c, 4, 16256
6, 24268, Pitch_bend_c, 4, 16383
6, 24269, Pitch_bend_c, 4, 16383
6, 24322, Pitch_bend_c, 4, 8320
6, 24329, Note_on_c, 4, 64, 0
6, 24329, Pitch_bend_c, 4, 8192
6, 24336, Note_on_c, 4, 69, 127
6, 24336, Note_on_c, 4, 62, 127
6, 24384, Note_on_c, 4, 62, 0
6, 24384, Note_on_c, 4, 69, 0
6, 24384, Pitch_bend_c, 4, 8448
6, 24384, Note_on_c, 4, 64, 127
6, 24385, Pitch_bend_c, 4, 8576
6, 24388, Pitch_bend_c, 4, 9344
6, 24389, Pitch_bend_c, 4, 9600
6, 24390, Pitch_bend_c, 4, 9856
6, 24392, Pitch_bend_c, 4, 10112
6, 24393, Pitch_bend_c, 4, 10880
6, 24395, Pitch_bend_c, 4, 11136
6, 24397, Pitch_bend_c, 4, 11520
6, 24399, Pitch_bend_c, 4, 11776
6, 24400, Pitch_bend_c, 4, 11904
6, 24402, Pitch_bend_c, 4, 12160
6, 24404, Pitch_bend_c, 4, 12416
6, 24406, Pitch_bend_c, 4, 12544
6, 24407, Pitch_bend_c, 4, 13056
6, 24409, Pitch_bend_c, 4, 13312
6, 24410, Pitch_bend_c, 4, 13568
6, 24411, Pitch_bend_c, 4, 13952
6, 24413, Pitch_bend_c, 4, 14592
6, 24414, Pitch_bend_c, 4, 15744
6, 24416, Pitch_bend_c, 4, 16000
6, 24417, Pitch_bend_c, 4, 16383
6, 24470, Pitch_bend_c, 4, 16256
6, 24473, Note_on_c, 4, 64, 0
6, 24474, Pitch_bend_c, 4, 8448
6, 24480, Note_on_c, 4, 69, 127
6, 24514, Pitch_bend_c, 4, 8320
6, 24521, Pitch_bend_c, 4, 8192
6, 24523, Pitch_bend_c, 4, 8192
6, 24525, Pitch_bend_c, 4, 8320
6, 24527, Pitch_bend_c, 4, 8576
6, 24528, Note_on_c, 4, 69, 0
6, 24528, Note_on_c, 4, 64, 127
6, 24530, Pitch_bend_c, 4, 8704
6, 24531, Pitch_bend_c, 4, 8960
6, 24532, Pitch_bend_c, 4, 9216
6, 24534, Pitch_bend_c, 4, 9344
6, 24535, Pitch_bend_c, 4, 9472
6, 24537, Pitch_bend_c, 4, 9600
6, 24538, Pitch_bend_c, 4, 9728
6, 24539, Pitch_bend_c, 4, 9856
6, 24541, Pitch_bend_c, 4, 9984
6, 24542, Pitch_bend_c, 4, 10368
6, 24544, Pitch_bend_c, 4, 10496
6, 24545, Pitch_bend_c, 4, 11008
6, 24546, Pitch_bend_c, 4, 11136
6, 24548, Pitch_bend_c, 4, 11392
6, 24549, Pitch_bend_c, 4, 11776
6, 24550, Pitch_bend_c, 4, 12160
6, 24552, Pitch_bend_c, 4, 12288
6, 24553, Pitch_bend_c, 4, 13056
6, 24555, Pitch_bend_c, 4, 13440
6, 24556, Pitch_bend_c, 4, 13824
6, 24557, Pitch_bend_c, 4, 14336
6, 24559, Pitch_bend_c, 4, 14976
6, 24560, Pitch_bend_c, 4, 15104
6, 24562, Pitch_bend_c, 4, 15616
6, 24563, Pitch_bend_c, 4, 15744
6, 24564, Pitch_bend_c, 4, 16128
6, 24566, Pitch_bend_c, 4, 16256
6, 24567, Pitch_bend_c, 4, 16383
6, 24612, Pitch_bend_c, 4, 16256
6, 24613, Note_on_c, 4, 64, 0
6, 24614, Pitch_bend_c, 4, 16128
6, 24616, Pitch_bend_c, 4, 15744
6, 24617, Pitch_bend_c, 4, 9856
6, 24619, Pitch_bend_c, 4, 9344
6, 24620, Pitch_bend_c, 4, 8832
6, 24621, Pitch_bend_c, 4, 8704
6, 24623, Pitch_bend_c, 4, 8576
6, 24624, Pitch_bend_c, 4, 8448
6, 24624, Note_on_c, 4, 62, 127
6, 24624, Note_on_c, 4, 69, 127
6, 24672, Note_on_c, 4, 69, 0
6, 24672, Note_on_c, 4, 62, 0
6, 24672, Pitch_bend_c, 4, 8320
6, 24672, Note_on_c, 4, 64, 127
6, 24677, Pitch_bend_c, 4, 8704
6, 24680, Pitch_bend_c, 4, 8960
6, 24681, Pitch_bend_c, 4, 9472
6, 24683, Pitch_bend_c, 4, 9856
6, 24684, Pitch_bend_c, 4, 10112
6, 24685, Pitch_bend_c, 4, 11008
6, 24687, Pitch_bend_c, 4, 11264
6, 24688, Pitch_bend_c, 4, 11904
6, 24690, Pitch_bend_c, 4, 13568
6, 24691, Pitch_bend_c, 4, 14464
6, 24692, Pitch_bend_c, 4, 15104
6, 24694, Pitch_bend_c, 4, 15872
6, 24695, Pitch_bend_c, 4, 16128
6, 24697, Pitch_bend_c, 4, 16383
6, 24752, Pitch_bend_c, 4, 16256
6, 24754, Pitch_bend_c, 4, 16128
6, 24755, Pitch_bend_c, 4, 15744
6, 24756, Pitch_bend_c, 4, 11904
6, 24758, Note_on_c, 4, 64, 0
6, 24758, Pitch_bend_c, 4, 8320
6, 24768, Note_on_c, 4, 62, 127
6, 24857, Note_on_c, 4, 62, 0
6, 27504, Note_on_c, 4, 64, 127
6, 27550, Pitch_bend_c, 4, 8320
6, 27556, Pitch_bend_c, 4, 8448
6, 27558, Pitch_bend_c, 4, 8576
6, 27560, Pitch_bend_c, 4, 8832
6, 27561, Pitch_bend_c, 4, 8960
6, 27563, Pitch_bend_c, 4, 9088
6, 27564, Pitch_bend_c, 4, 9344
6, 27565, Pitch_bend_c, 4, 9728
6, 27567, Pitch_bend_c, 4, 9984
6, 27568, Pitch_bend_c, 4, 10368
6, 27570, Pitch_bend_c, 4, 10624
6, 27571, Pitch_bend_c, 4, 10752
6, 27572, Pitch_bend_c, 4, 11008
6, 27574, Pitch_bend_c, 4, 11264
6, 27575, Pitch_bend_c, 4, 11520
6, 27577, Pitch_bend_c, 4, 11776
6, 27578, Pitch_bend_c, 4, 12160
6, 27579, Pitch_bend_c, 4, 12288
6, 27581, Pitch_bend_c, 4, 12544
6, 27582, Pitch_bend_c, 4, 12928
6, 27584, Pitch_bend_c, 4, 13184
6, 27585, Pitch_bend_c, 4, 13440
6, 27586, Pitch_bend_c, 4, 13696
6, 27588, Pitch_bend_c, 4, 14592
6, 27589, Pitch_bend_c, 4, 14848
6, 27590, Pitch_bend_c, 4, 15104
6, 27592, Pitch_bend_c, 4, 15488
6, 27595, Pitch_bend_c, 4, 15872
6, 27596, Pitch_bend_c, 4, 16128
6, 27599, Pitch_bend_c, 4, 16383
6, 27648, Note_on_c, 4, 64, 0
6, 27648, Pitch_bend_c, 4, 8320
6, 27648, Note_on_c, 4, 69, 127
6, 27696, Note_on_c, 4, 69, 0
6, 27696, Note_on_c, 4, 64, 127
6, 27698, Pitch_bend_c, 4, 8192
6, 27699, Pitch_bend_c, 4, 8320
6, 27700, Pitch_bend_c, 4, 8448
6, 27702, Pitch_bend_c, 4, 8576
6, 27703, Pitch_bend_c, 4, 8704
6, 27705, Pitch_bend_c, 4, 8960
6, 27707, Pitch_bend_c, 4, 9344
6, 27709, Pitch_bend_c, 4, 9600
6, 27710, Pitch_bend_c, 4, 9728
6, 27712, Pitch_bend_c, 4, 10112
6, 27713, Pitch_bend_c, 4, 10496
6, 27714, Pitch_bend_c, 4, 10752
6, 27716, Pitch_bend_c, 4, 11264
6, 27717, Pitch_bend_c, 4, 11776
6, 27718, Pitch_bend_c, 4, 12544
6, 27720, Pitch_bend_c, 4, 12928
6, 27721, Pitch_bend_c, 4, 13440
6, 27723, Pitch_bend_c, 4, 13824
6, 27724, Pitch_bend_c, 4, 14720
6, 27725, Pitch_bend_c, 4, 15488
6, 27727, Pitch_bend_c, 4, 16128
6, 27728, Pitch_bend_c, 4, 16383
6, 27792, Note_on_c, 4, 64, 0
6, 27792, Note_on_c, 4, 67, 127
6, 27840, Note_on_c, 4, 67, 0
6, 27840, Note_on_c, 4, 64, 127
6, 27845, Pitch_bend_c, 4, 16128
6, 27846, Pitch_bend_c, 4, 16000
6, 27848, Pitch_bend_c, 4, 15744
6, 27849, Pitch_bend_c, 4, 15232
6, 27851, Pitch_bend_c, 4, 14464
6, 27852, Pitch_bend_c, 4, 13952
6, 27853, Pitch_bend_c, 4, 12416
6, 27855, Pitch_bend_c, 4, 11520
6, 27856, Pitch_bend_c, 4, 11008
6, 27858, Pitch_bend_c, 4, 10752
6, 27859, Pitch_bend_c, 4, 10112
6, 27860, Pitch_bend_c, 4, 9856
6, 27862, Pitch_bend_c, 4, 9344
6, 27863, Pitch_bend_c, 4, 9216
6, 27865, Pitch_bend_c, 4, 8960
6, 27866, Pitch_bend_c, 4, 8832
6, 27867, Pitch_bend_c, 4, 8704
6, 27869, Pitch_bend_c, 4, 8576
6, 27874, Pitch_bend_c, 4, 8448
6, 27888, Note_on_c, 4, 64, 0
6, 27888, Note_on_c, 4, 62, 127
6, 27936, Note_on_c, 4, 62, 0
6, 27936, Note_on_c, 4, 59, 127
6, 27984, Note_on_c, 4, 59, 0
6, 27984, Note_on_c, 4, 57, 127
6, 28032, Note_on_c, 4, 57, 0
6, 28080, Note_on_c, 4, 57, 97
6, 28080, Note_on_c, 4, 62, 97
6, 28128, Note_on_c, 4, 62, 0
6, 28128, Note_on_c, 4, 57, 0
6, 28128, Note_on_c, 4, 57, 97
6, 28128, Note_on_c, 4, 59, 97
6, 28176, Note_on_c, 4, 59, 0
6, 28176, Note_on_c, 4, 57, 0
6, 28224, Note_on_c, 4, 57, 97
6, 28224, Note_on_c, 4, 62, 97
6, 28272, Note_on_c, 4, 62, 0
6, 28272, Note_on_c, 4, 57, 0
6, 28320, Note_on_c, 4, 57, 97
6, 28320, Note_on_c, 4, 59, 97
6, 28368, Note_on_c, 4, 59, 0
6, 28368, Note_on_c, 4, 57, 0
6, 28416, Note_on_c, 4, 62, 97
6, 28416, Note_on_c, 4, 57, 97
6, 28464, Note_on_c, 4, 57, 0
6, 28464, Note_on_c, 4, 62, 0
6, 28512, Note_on_c, 4, 57, 97
6, 28512, Note_on_c, 4, 59, 97
6, 28560, Note_on_c, 4, 59, 0
6, 28560, Note_on_c, 4, 57, 0
6, 28608, Note_on_c, 4, 62, 97
6, 28608, Note_on_c, 4, 57, 97
6, 28656, Note_on_c, 4, 57, 0
6, 28656, Note_on_c, 4, 62, 0
6, 28704, Note_on_c, 4, 57, 97
6, 28704, Note_on_c, 4, 59, 97
6, 28752, Note_on_c, 4, 59, 0
6, 28752, Note_on_c, 4, 57, 0
6, 28752, Note_on_c, 4, 62, 97
6, 28752, Note_on_c, 4, 67, 97
6, 28800, Note_on_c, 4, 67, 0
6, 28800, Note_on_c, 4, 62, 0
6, 28848, Note_on_c, 4, 67, 97
6, 28848, Note_on_c, 4, 62, 97
6, 28896, Note_on_c, 4, 62, 0
6, 28896, Note_on_c, 4, 67, 0
6, 28896, Note_on_c, 4, 67, 97
6, 28896, Note_on_c, 4, 64, 97
6, 28944, Note_on_c, 4, 64, 0
6, 28944, Note_on_c, 4, 67, 0
6, 28992, Note_on_c, 4, 67, 97
6, 28992, Note_on_c, 4, 62, 97
6, 29040, Note_on_c, 4, 62, 0
6, 29040, Note_on_c, 4, 67, 0
6, 29088, Note_on_c, 4, 67, 97
6, 29088, Note_on_c, 4, 64, 97
6, 29136, Note_on_c, 4, 64, 0
6, 29136, Note_on_c, 4, 67, 0
6, 29136, Note_on_c, 4, 62, 97
6, 29136, Note_on_c, 4, 67, 97
6, 29184, Note_on_c, 4, 67, 0
6, 29184, Note_on_c, 4, 62, 0
6, 29232, Note_on_c, 4, 67, 97
6, 29232, Note_on_c, 4, 62, 97
6, 29280, Note_on_c, 4, 62, 0
6, 29280, Note_on_c, 4, 67, 0
6, 29280, Note_on_c, 4, 64, 97
6, 29280, Note_on_c, 4, 67, 97
6, 29328, Note_on_c, 4, 67, 0
6, 29328, Note_on_c, 4, 64, 0
6, 29376, Note_on_c, 4, 62, 97
6, 29376, Note_on_c, 4, 67, 97
6, 29424, Note_on_c, 4, 67, 0
6, 29424, Note_on_c, 4, 62, 0
6, 29472, Note_on_c, 4, 64, 97
6, 29472, Note_on_c, 4, 67, 97
6, 29520, Note_on_c, 4, 67, 0
6, 29520, Note_on_c, 4, 64, 0
6, 29568, Pitch_bend_c, 4, 8320
6, 29568, Note_on_c, 4, 62, 97
6, 29568, Note_on_c, 4, 57, 97
6, 29616, Note_on_c, 4, 57, 0
6, 29616, Note_on_c, 4, 62, 0
6, 29664, Note_on_c, 4, 59, 97
6, 29664, Note_on_c, 4, 62, 97
6, 29712, Note_on_c, 4, 62, 0
6, 29712, Note_on_c, 4, 59, 0
6, 29760, Note_on_c, 4, 62, 97
6, 29760, Note_on_c, 4, 57, 97
6, 29808, Note_on_c, 4, 57, 0
6, 29808, Note_on_c, 4, 62, 0
6, 29856, Note_on_c, 4, 59, 97
6, 29856, Note_on_c, 4, 62, 97
6, 29904, Note_on_c, 4, 62, 0
6, 29904, Note_on_c, 4, 59, 0
6, 29952, Note_on_c, 4, 64, 97
6, 29952, Note_on_c, 4, 57, 97
6, 30000, Note_on_c, 4, 57, 0
6, 30000, Note_on_c, 4, 64, 0
6, 30048, Note_on_c, 4, 57, 97
6, 30048, Note_on_c, 4, 66, 97
6, 30096, Note_on_c, 4, 66, 0
6, 30096, Note_on_c, 4, 57, 0
6, 30144, Note_on_c, 4, 57, 97
6, 30144, Note_on_c, 4, 64, 97
6, 30192, Note_on_c, 4, 64, 0
6, 30192, Note_on_c, 4, 57, 0
6, 30240, Note_on_c, 4, 57, 97
6, 30240, Note_on_c, 4, 66, 97
6, 30288, Note_on_c, 4, 66, 0
6, 30288, Note_on_c, 4, 57, 0
6, 30336, Pitch_bend_c, 4, 8192
6, 30380, Pitch_bend_c, 4, 8576
6, 30381, Pitch_bend_c, 4, 8704
6, 30384, Pitch_bend_c, 4, 9088
6, 30384, Note_on_c, 4, 64, 127
6, 30386, Pitch_bend_c, 4, 9216
6, 30387, Pitch_bend_c, 4, 9472
6, 30388, Pitch_bend_c, 4, 10240
6, 30390, Pitch_bend_c, 4, 10496
6, 30391, Pitch_bend_c, 4, 11264
6, 30393, Pitch_bend_c, 4, 11392
6, 30394, Pitch_bend_c, 4, 11648
6, 30395, Pitch_bend_c, 4, 12416
6, 30397, Pitch_bend_c, 4, 12672
6, 30398, Pitch_bend_c, 4, 12928
6, 30400, Pitch_bend_c, 4, 13312
6, 30401, Pitch_bend_c, 4, 13568
6, 30402, Pitch_bend_c, 4, 14592
6, 30404, Pitch_bend_c, 4, 14848
6, 30405, Pitch_bend_c, 4, 15232
6, 30406, Pitch_bend_c, 4, 15744
6, 30408, Pitch_bend_c, 4, 16000
6, 30411, Pitch_bend_c, 4, 16256
6, 30412, Pitch_bend_c, 4, 16383
6, 30413, Pitch_bend_c, 4, 16383
6, 30466, Pitch_bend_c, 4, 8320
6, 30473, Note_on_c, 4, 64, 0
6, 30473, Pitch_bend_c, 4, 8192
6, 30480, Note_on_c, 4, 69, 127
6, 30480, Note_on_c, 4, 62, 127
6, 30528, Note_on_c, 4, 62, 0
6, 30528, Note_on_c, 4, 69, 0
6, 30528, Pitch_bend_c, 4, 8448
6, 30528, Note_on_c, 4, 64, 127
6, 30529, Pitch_bend_c, 4, 8576
6, 30532, Pitch_bend_c, 4, 9344
6, 30533, Pitch_bend_c, 4, 9600
6, 30534, Pitch_bend_c, 4, 9856
6, 30536, Pitch_bend_c, 4, 10112
6, 30537, Pitch_bend_c, 4, 10880
6, 30539, Pitch_bend_c, 4, 11136
6, 30541, Pitch_bend_c, 4, 11520
6, 30543, Pitch_bend_c, 4, 11776
6, 30544, Pitch_bend_c, 4, 11904
6, 30546, Pitch_bend_c, 4, 12160
6, 30548, Pitch_bend_c, 4, 12416
6, 30550, Pitch_bend_c, 4, 12544
6, 30551, Pitch_bend_c, 4, 13056
6, 30553, Pitch_bend_c, 4, 13312
6, 30554, Pitch_bend_c, 4, 13568
6, 30555, Pitch_bend_c, 4, 13952
6, 30557, Pitch_bend_c, 4, 14592
6, 30558, Pitch_bend_c, 4, 15744
6, 30560, Pitch_bend_c, 4, 16000
6, 30561, Pitch_bend_c, 4, 16383
6, 30614, Pitch_bend_c, 4, 16256
6, 30617, Note_on_c, 4, 64, 0
6, 30618, Pitch_bend_c, 4, 8448
6, 30624, Note_on_c, 4, 69, 127
6, 30658, Pitch_bend_c, 4, 8320
6, 30665, Pitch_bend_c, 4, 8192
6, 30667, Pitch_bend_c, 4, 8192
6, 30669, Pitch_bend_c, 4, 8320
6, 30671, Pitch_bend_c, 4, 8576
6, 30672, Note_on_c, 4, 69, 0
6, 30672, Note_on_c, 4, 64, 127
6, 30674, Pitch_bend_c, 4, 8704
6, 30675, Pitch_bend_c, 4, 8960
6, 30676, Pitch_bend_c, 4, 9216
6, 30678, Pitch_bend_c, 4, 9344
6, 30679, Pitch_bend_c, 4, 9472
6, 30681, Pitch_bend_c, 4, 9600
6, 30682, Pitch_bend_c, 4, 9728
6, 30683, Pitch_bend_c, 4, 9856
6, 30685, Pitch_bend_c, 4, 9984
6, 30686, Pitch_bend_c, 4, 10368
6, 30688, Pitch_bend_c, 4, 10496
6, 30689, Pitch_bend_c, 4, 11008
6, 30690, Pitch_bend_c, 4, 11136
6, 30692, Pitch_bend_c, 4, 11392
6, 30693, Pitch_bend_c, 4, 11776
6, 30694, Pitch_bend_c, 4, 12160
6, 30696, Pitch_bend_c, 4, 12288
6, 30697, Pitch_bend_c, 4, 13056
6, 30699, Pitch_bend_c, 4, 13440
6, 30700, Pitch_bend_c, 4, 13824
6, 30701, Pitch_bend_c, 4, 14336
6, 30703, Pitch_bend_c, 4, 14976
6, 30704, Pitch_bend_c, 4, 15104
6, 30706, Pitch_bend_c, 4, 15616
6, 30707, Pitch_bend_c, 4, 15744
6, 30708, Pitch_bend_c, 4, 16128
6, 30710, Pitch_bend_c, 4, 16256
6, 30711, Pitch_bend_c, 4, 16383
6, 30756, Pitch_bend_c, 4, 16256
6, 30757, Note_on_c, 4, 64, 0
6, 30758, Pitch_bend_c, 4, 16128
6, 30760, Pitch_bend_c, 4, 15744
6, 30761, Pitch_bend_c, 4, 9856
6, 30763, Pitch_bend_c, 4, 9344
6, 30764, Pitch_bend_c, 4, 8832
6, 30765, Pitch_bend_c, 4, 8704
6, 30767, Pitch_bend_c, 4, 8576
6, 30768, Pitch_bend_c, 4, 8448
6, 30768, Note_on_c, 4, 62, 127
6, 30768, Note_on_c, 4, 69, 127
6, 30816, Note_on_c, 4, 69, 0
6, 30816, Note_on_c, 4, 62, 0
6, 30816, Pitch_bend_c, 4, 8320
6, 30816, Note_on_c, 4, 64, 127
6, 30821, Pitch_bend_c, 4, 8704
6, 30824, Pitch_bend_c, 4, 8960
6, 30825, Pitch_bend_c, 4, 9472
6, 30827, Pitch_bend_c, 4, 9856
6, 30828, Pitch_bend_c, 4, 10112
6, 30829, Pitch_bend_c, 4, 11008
6, 30831, Pitch_bend_c, 4, 11264
6, 30832, Pitch_bend_c, 4, 11904
6, 30834, Pitch_bend_c, 4, 13568
6, 30835, Pitch_bend_c, 4, 14464
6, 30836, Pitch_bend_c, 4, 15104
6, 30838, Pitch_bend_c, 4, 15872
6, 30839, Pitch_bend_c, 4, 16128
6, 30841, Pitch_bend_c, 4, 16383
6, 30896, Pitch_bend_c, 4, 16256
6, 30898, Pitch_bend_c, 4, 16128
6, 30899, Pitch_bend_c, 4, 15744
6, 30900, Pitch_bend_c, 4, 11904
6, 30902, Note_on_c, 4, 64, 0
6, 30902, Pitch_bend_c, 4, 8320
6, 30912, Note_on_c, 4, 69, 127
6, 30912, Note_on_c, 4, 66, 127
6, 30960, Note_on_c, 4, 66, 0
6, 30960, Note_on_c, 4, 69, 0
6, 30960, Note_on_c, 4, 64, 127
6, 30962, Pitch_bend_c, 4, 8192
6, 30966, Pitch_bend_c, 4, 8448
6, 30968, Pitch_bend_c, 4, 8704
6, 30971, Pitch_bend_c, 4, 8832
6, 30973, Pitch_bend_c, 4, 9856
6, 30975, Pitch_bend_c, 4, 10112
6, 30977, Pitch_bend_c, 4, 10368
6, 30979, Pitch_bend_c, 4, 11136
6, 30980, Pitch_bend_c, 4, 11904
6, 30982, Pitch_bend_c, 4, 12160
6, 30984, Pitch_bend_c, 4, 12672
6, 30986, Pitch_bend_c, 4, 12800
6, 30988, Pitch_bend_c, 4, 13440
6, 30989, Pitch_bend_c, 4, 13568
6, 30991, Pitch_bend_c, 4, 14080
6, 30993, Pitch_bend_c, 4, 14336
6, 30995, Pitch_bend_c, 4, 14848
6, 30997, Pitch_bend_c, 4, 15232
6, 30998, Pitch_bend_c, 4, 15744
6, 31000, Pitch_bend_c, 4, 16000
6, 31002, Pitch_bend_c, 4, 16256
6, 31004, Pitch_bend_c, 4, 16383
6, 31056, Note_on_c, 4, 64, 0
6, 34992, Note_on_c, 4, 64, 127
6, 35000, Pitch_bend_c, 4, 8832
6, 35004, Pitch_bend_c, 4, 9216
6, 35005, Pitch_bend_c, 4, 9472
6, 35007, Pitch_bend_c, 4, 9728
6, 35009, Pitch_bend_c, 4, 9856
6, 35010, Pitch_bend_c, 4, 10112
6, 35012, Pitch_bend_c, 4, 10752
6, 35014, Pitch_bend_c, 4, 11136
6, 35016, Pitch_bend_c, 4, 11776
6, 35017, Pitch_bend_c, 4, 12160
6, 35019, Pitch_bend_c, 4, 13056
6, 35021, Pitch_bend_c, 4, 13440
6, 35022, Pitch_bend_c, 4, 13952
6, 35024, Pitch_bend_c, 4, 14720
6, 35026, Pitch_bend_c, 4, 15104
6, 35028, Pitch_bend_c, 4, 15488
6, 35029, Pitch_bend_c, 4, 16383
6, 35040, Note_on_c, 4, 64, 0
6, 35040, Note_on_c, 4, 67, 127
6, 35046, Pitch_bend_c, 4, 16383
6, 35088, Note_on_c, 4, 67, 0
6, 35136, Note_on_c, 4, 64, 127
6, 35156, Pitch_bend_c, 4, 16256
6, 35158, Pitch_bend_c, 4, 15872
6, 35160, Pitch_bend_c, 4, 15744
6, 35161, Pitch_bend_c, 4, 15360
6, 35163, Pitch_bend_c, 4, 14336
6, 35165, Pitch_bend_c, 4, 12928
6, 35166, Pitch_bend_c, 4, 12544
6, 35168, Pitch_bend_c, 4, 11904
6, 35170, Pitch_bend_c, 4, 10112
6, 35172, Pitch_bend_c, 4, 9600
6, 35173, Pitch_bend_c, 4, 9344
6, 35175, Pitch_bend_c, 4, 8448
6, 35177, Pitch_bend_c, 4, 8320
6, 35184, Note_on_c, 4, 64, 0
6, 35184, Note_on_c, 4, 62, 127
6, 35232, Note_on_c, 4, 62, 0
6, 35232, Note_on_c, 4, 59, 127
6, 35280, Note_on_c, 4, 59, 0
6, 35280, Note_on_c, 4, 62, 127
6, 35328, Note_on_c, 4, 62, 0
6, 35328, Note_on_c, 4, 64, 127
6, 35367, Note_on_c, 4, 64, 0
6, 35370, Pitch_bend_c, 4, 8192
6, 35376, Note_on_c, 4, 64, 127
6, 35381, Pitch_bend_c, 4, 8320
6, 35382, Pitch_bend_c, 4, 8576
6, 35384, Pitch_bend_c, 4, 8832
6, 35386, Pitch_bend_c, 4, 9216
6, 35388, Pitch_bend_c, 4, 9600
6, 35389, Pitch_bend_c, 4, 9984
6, 35391, Pitch_bend_c, 4, 11776
6, 35393, Pitch_bend_c, 4, 14208
6, 35394, Pitch_bend_c, 4, 14592
6, 35396, Pitch_bend_c, 4, 15104
6, 35398, Pitch_bend_c, 4, 15616
6, 35400, Pitch_bend_c, 4, 16000
6, 35401, Pitch_bend_c, 4, 16128
6, 35406, Pitch_bend_c, 4, 14208
6, 35408, Pitch_bend_c, 4, 13824
6, 35410, Pitch_bend_c, 4, 12800
6, 35412, Pitch_bend_c, 4, 11648
6, 35413, Pitch_bend_c, 4, 10624
6, 35415, Pitch_bend_c, 4, 9344
6, 35417, Pitch_bend_c, 4, 8960
6, 35418, Pitch_bend_c, 4, 8832
6, 35420, Pitch_bend_c, 4, 8704
6, 35424, Pitch_bend_c, 4, 8576
6, 35427, Pitch_bend_c, 4, 8448
6, 35437, Pitch_bend_c, 4, 8576
6, 35441, Pitch_bend_c, 4, 8576
6, 35448, Note_on_c, 4, 64, 0
6, 35472, Pitch_bend_c, 4, 8576
6, 35472, Note_on_c, 4, 64, 127
6, 35473, Pitch_bend_c, 4, 8704
6, 35475, Pitch_bend_c, 4, 8832
6, 35477, Pitch_bend_c, 4, 9088
6, 35478, Pitch_bend_c, 4, 9344
6, 35480, Pitch_bend_c, 4, 9472
6, 35482, Pitch_bend_c, 4, 9856
6, 35484, Pitch_bend_c, 4, 9984
6, 35485, Pitch_bend_c, 4, 10368
6, 35487, Pitch_bend_c, 4, 10496
6, 35489, Pitch_bend_c, 4, 10880
6, 35490, Pitch_bend_c, 4, 11136
6, 35492, Pitch_bend_c, 4, 11776
6, 35494, Pitch_bend_c, 4, 12160
6, 35496, Pitch_bend_c, 4, 12288
6, 35497, Pitch_bend_c, 4, 12800
6, 35499, Pitch_bend_c, 4, 13312
6, 35501, Pitch_bend_c, 4, 13696
6, 35502, Pitch_bend_c, 4, 14336
6, 35504, Pitch_bend_c, 4, 14976
6, 35506, Pitch_bend_c, 4, 15360
6, 35508, Pitch_bend_c, 4, 15872
6, 35509, Pitch_bend_c, 4, 16128
6, 35511, Pitch_bend_c, 4, 16383
6, 35544, Note_on_c, 4, 64, 0
6, 35544, Pitch_bend_c, 4, 8448
6, 35545, Pitch_bend_c, 4, 8192
6, 35616, Note_on_c, 4, 59, 127
6, 35655, Note_on_c, 4, 59, 0
6, 35667, Note_on_c, 4, 62, 127
6, 35706, Note_on_c, 4, 62, 0
6, 35712, Note_on_c, 4, 64, 127
6, 35713, Pitch_bend_c, 4, 8704
6, 35715, Pitch_bend_c, 4, 8960
6, 35717, Pitch_bend_c, 4, 9088
6, 35718, Pitch_bend_c, 4, 9216
6, 35720, Pitch_bend_c, 4, 9600
6, 35722, Pitch_bend_c, 4, 9856
6, 35724, Pitch_bend_c, 4, 10112
6, 35725, Pitch_bend_c, 4, 10240
6, 35727, Pitch_bend_c, 4, 10752
6, 35729, Pitch_bend_c, 4, 11008
6, 35730, Pitch_bend_c, 4, 11520
6, 35732, Pitch_bend_c, 4, 12032
6, 35734, Pitch_bend_c, 4, 12800
6, 35736, Pitch_bend_c, 4, 13056
6, 35737, Pitch_bend_c, 4, 14080
6, 35739, Pitch_bend_c, 4, 14848
6, 35741, Pitch_bend_c, 4, 15872
6, 35742, Pitch_bend_c, 4, 16383
6, 35760, Pitch_bend_c, 4, 13056
6, 35761, Pitch_bend_c, 4, 8192
6, 35763, Note_on_c, 4, 64, 0
6, 35808, Pitch_bend_c, 4, 8448
6, 35809, Note_on_c, 4, 64, 127
6, 35811, Pitch_bend_c, 4, 8576
6, 35813, Pitch_bend_c, 4, 8704
6, 35814, Pitch_bend_c, 4, 8832
6, 35816, Pitch_bend_c, 4, 9088
6, 35818, Pitch_bend_c, 4, 9344
6, 35821, Pitch_bend_c, 4, 9728
6, 35823, Pitch_bend_c, 4, 9984
6, 35825, Pitch_bend_c, 4, 10240
6, 35826, Pitch_bend_c, 4, 10496
6, 35828, Pitch_bend_c, 4, 10880
6, 35830, Pitch_bend_c, 4, 11392
6, 35832, Pitch_bend_c, 4, 11904
6, 35833, Pitch_bend_c, 4, 12160
6, 35835, Pitch_bend_c, 4, 13056
6, 35837, Pitch_bend_c, 4, 14336
6, 35840, Pitch_bend_c, 4, 15104
6, 35842, Pitch_bend_c, 4, 16128
6, 35844, Pitch_bend_c, 4, 16383
6, 35860, Note_on_c, 4, 64, 0
6, 35873, Pitch_bend_c, 4, 8192
6, 35904, Note_on_c, 4, 64, 127
6, 35952, Note_on_c, 4, 64, 0
6, 35955, Note_on_c, 4, 62, 127
6, 36001, Note_on_c, 4, 59, 127
6, 36003, Note_on_c, 4, 62, 0
6, 36044, Note_on_c, 4, 62, 127
6, 36049, Note_on_c, 4, 59, 0
6, 36092, Note_on_c, 4, 62, 0
6, 36097, Note_on_c, 4, 52, 127
6, 36138, Note_on_c, 4, 52, 0
6, 36144, Note_on_c, 4, 52, 127
6, 36145, Pitch_bend_c, 4, 8448
6, 36147, Pitch_bend_c, 4, 8576
6, 36149, Pitch_bend_c, 4, 8960
6, 36150, Pitch_bend_c, 4, 9088
6, 36152, Pitch_bend_c, 4, 10240
6, 36154, Pitch_bend_c, 4, 11008
6, 36156, Pitch_bend_c, 4, 12544
6, 36157, Pitch_bend_c, 4, 12928
6, 36159, Pitch_bend_c, 4, 13440
6, 36161, Pitch_bend_c, 4, 13696
6, 36162, Pitch_bend_c, 4, 14336
6, 36164, Pitch_bend_c, 4, 14592
6, 36166, Pitch_bend_c, 4, 15232
6, 36168, Pitch_bend_c, 4, 15488
6, 36169, Pitch_bend_c, 4, 15744
6, 36171, Pitch_bend_c, 4, 16128
6, 36173, Pitch_bend_c, 4, 16256
6, 36174, Pitch_bend_c, 4, 16383
6, 36188, Pitch_bend_c, 4, 16256
6, 36190, Pitch_bend_c, 4, 16128
6, 36192, Pitch_bend_c, 4, 16000
6, 36193, Pitch_bend_c, 4, 15616
6, 36195, Pitch_bend_c, 4, 14976
6, 36197, Pitch_bend_c, 4, 14208
6, 36198, Pitch_bend_c, 4, 13824
6, 36200, Pitch_bend_c, 4, 12160
6, 36202, Pitch_bend_c, 4, 11136
6, 36204, Pitch_bend_c, 4, 10240
6, 36205, Pitch_bend_c, 4, 9728
6, 36207, Pitch_bend_c, 4, 9344
6, 36209, Pitch_bend_c, 4, 8832
6, 36210, Pitch_bend_c, 4, 8576
6, 36230, Note_on_c, 4, 52, 0
6, 36240, Note_on_c, 4, 50, 127
6, 36864, Note_on_c, 4, 50, 0
6, 36864, End_track
7, 0, Start_track
7, 0, MIDI_port, 0
7, 0, Title_t, "Clean Lead Guitar 2"
7, 0, Program_c, 5, 27
7, 0, Control_c, 5, 7, 64
7, 1, Program_c, 5, 27
7, 2, Control_c, 5, 7, 64
7, 3, Control_c, 5, 11, 120
7, 768, Note_on_c, 5, 69, 127
7, 861, Note_on_c, 5, 69, 0
7, 864, Note_on_c, 5, 69, 127
7, 957, Note_on_c, 5, 69, 0
7, 1008, Note_on_c, 5, 69, 127
7, 1101, Note_on_c, 5, 69, 0
7, 1152, Note_on_c, 5, 50, 127
7, 1368, Note_on_c, 5, 50, 0
7, 1632, Note_on_c, 5, 69, 127
7, 1678, Note_on_c, 5, 69, 0
7, 1680, Note_on_c, 5, 67, 127
7, 1726, Note_on_c, 5, 67, 0
7, 1728, Note_on_c, 5, 66, 127
7, 1776, Note_on_c, 5, 66, 0
7, 1776, Note_on_c, 5, 64, 127
7, 1824, Note_on_c, 5, 64, 0
7, 1824, Note_on_c, 5, 62, 127
7, 1872, Note_on_c, 5, 62, 0
7, 1872, Note_on_c, 5, 59, 127
7, 1920, Note_on_c, 5, 59, 0
7, 1920, Note_on_c, 5, 57, 127
7, 2016, Note_on_c, 5, 57, 0
7, 2352, Note_on_c, 5, 69, 127
7, 2424, Note_on_c, 5, 69, 0
7, 2448, Note_on_c, 5, 69, 127
7, 2520, Note_on_c, 5, 69, 0
7, 2544, Note_on_c, 5, 67, 127
7, 2592, Note_on_c, 5, 67, 0
7, 2592, Note_on_c, 5, 66, 127
7, 2640, Note_on_c, 5, 66, 0
7, 2640, Note_on_c, 5, 64, 127
7, 2688, Note_on_c, 5, 64, 0
7, 3840, Note_on_c, 5, 69, 127
7, 3982, Note_on_c, 5, 69, 0
7, 3984, Note_on_c, 5, 69, 127
7, 4075, Note_on_c, 5, 69, 0
7, 4080, Note_on_c, 5, 69, 127
7, 4128, Note_on_c, 5, 69, 0
7, 6144, Note_on_c, 5, 69, 127
7, 6336, Note_on_c, 5, 69, 0
7, 6336, Note_on_c, 5, 69, 127
7, 6384, Note_on_c, 5, 69, 0
7, 6384, Note_on_c, 5, 66, 127
7, 6432, Note_on_c, 5, 66, 0
7, 6432, Note_on_c, 5, 64, 127
7, 6480, Note_on_c, 5, 64, 0
7, 6480, Note_on_c, 5, 62, 127
7, 6528, Note_on_c, 5, 62, 0
7, 7344, Note_on_c, 5, 62, 127
7, 7440, Note_on_c, 5, 62, 0
7, 7728, Note_on_c, 5, 62, 127
7, 7824, Note_on_c, 5, 62, 0
7, 9216, Note_on_c, 5, 57, 127
7, 9264, Note_on_c, 5, 57, 0
7, 9264, Note_on_c, 5, 57, 127
7, 9312, Note_on_c, 5, 57, 0
7, 9312, Note_on_c, 5, 62, 127
7, 9360, Note_on_c, 5, 62, 0
7, 9360, Note_on_c, 5, 57, 127
7, 9408, Note_on_c, 5, 57, 0
7, 9408, Note_on_c, 5, 57, 127
7, 9504, Note_on_c, 5, 57, 0
7, 12672, Note_on_c, 5, 69, 127
7, 12768, Note_on_c, 5, 69, 0
7, 12768, Note_on_c, 5, 74, 127
7, 12816, Note_on_c, 5, 74, 0
7, 12864, Note_on_c, 5, 69, 127
7, 12960, Note_on_c, 5, 69, 0
7, 12960, Note_on_c, 5, 74, 127
7, 13008, Note_on_c, 5, 74, 0
7, 13008, Note_on_c, 5, 69, 127
7, 13056, Note_on_c, 5, 69, 0
7, 13104, Note_on_c, 5, 69, 127
7, 13152, Note_on_c, 5, 69, 0
7, 13152, Note_on_c, 5, 69, 127
7, 13200, Note_on_c, 5, 69, 0
7, 13200, Note_on_c, 5, 66, 127
7, 13248, Note_on_c, 5, 66, 0
7, 13248, Note_on_c, 5, 69, 127
7, 13320, Note_on_c, 5, 69, 0
7, 13344, Note_on_c, 5, 69, 127
7, 13392, Note_on_c, 5, 69, 0
7, 13392, Note_on_c, 5, 66, 127
7, 13440, Note_on_c, 5, 66, 0
7, 13440, Note_on_c, 5, 62, 127
7, 13536, Note_on_c, 5, 62, 0
7, 13536, Note_on_c, 5, 67, 127
7, 13584, Note_on_c, 5, 67, 0
7, 13584, Note_on_c, 5, 62, 127
7, 13680, Note_on_c, 5, 62, 0
7, 13680, Note_on_c, 5, 62, 127
7, 13728, Note_on_c, 5, 62, 0
7, 13728, Note_on_c, 5, 55, 127
7, 13776, Note_on_c, 5, 55, 0
7, 13776, Note_on_c, 5, 55, 127
7, 13824, Note_on_c, 5, 55, 0
7, 13824, Note_on_c, 5, 62, 127
7, 13920, Note_on_c, 5, 62, 0
7, 13920, Note_on_c, 5, 55, 127
7, 13968, Note_on_c, 5, 55, 0
7, 13968, Note_on_c, 5, 55, 127
7, 14016, Note_on_c, 5, 55, 0
7, 14017, Note_on_c, 5, 55, 127
7, 14064, Note_on_c, 5, 55, 0
7, 14064, Note_on_c, 5, 50, 127
7, 14111, Note_on_c, 5, 50, 0
7, 14112, Note_on_c, 5, 50, 127
7, 14159, Note_on_c, 5, 50, 0
7, 14160, Note_on_c, 5, 50, 127
7, 14207, Note_on_c, 5, 50, 0
7, 14208, Note_on_c, 5, 50, 127
7, 14304, Note_on_c, 5, 50, 0
7, 14592, Note_on_c, 5, 69, 100
7, 14688, Note_on_c, 5, 69, 0
7, 14688, Note_on_c, 5, 74, 100
7, 14736, Note_on_c, 5, 74, 0
7, 14736, Note_on_c, 5, 69, 100
7, 14832, Note_on_c, 5, 69, 0
7, 14832, Note_on_c, 5, 69, 100
7, 14880, Note_on_c, 5, 69, 0
7, 14880, Note_on_c, 5, 69, 100
7, 14928, Note_on_c, 5, 69, 0
7, 14928, Note_on_c, 5, 66, 100
7, 14976, Note_on_c, 5, 66, 0
7, 14976, Note_on_c, 5, 62, 100
7, 15024, Note_on_c, 5, 62, 0
7, 15024, Note_on_c, 5, 57, 100
7, 15120, Note_on_c, 5, 57, 0
7, 19008, Note_on_c, 5, 62, 127
7, 19056, Note_on_c, 5, 62, 0
7, 19056, Note_on_c, 5, 62, 127
7, 19104, Note_on_c, 5, 62, 0
7, 19104, Note_on_c, 5, 66, 127
7, 19152, Note_on_c, 5, 66, 0
7, 19152, Note_on_c, 5, 69, 127
7, 19344, Note_on_c, 5, 69, 0
7, 19632, Note_on_c, 5, 62, 127
7, 19680, Note_on_c, 5, 62, 0
7, 19680, Note_on_c, 5, 62, 127
7, 19728, Note_on_c, 5, 62, 0
7, 19776, Note_on_c, 5, 62, 127
7, 19824, Note_on_c, 5, 62, 0
7, 19872, Note_on_c, 5, 62, 127
7, 19920, Note_on_c, 5, 62, 0
7, 19920, Note_on_c, 5, 62, 127
7, 19968, Note_on_c, 5, 62, 0
7, 19968, Note_on_c, 5, 69, 127
7, 20016, Note_on_c, 5, 69, 0
7, 20016, Note_on_c, 5, 69, 127
7, 20112, Note_on_c, 5, 69, 0
7, 20112, Note_on_c, 5, 69, 127
7, 20208, Note_on_c, 5, 69, 0
7, 21504, Note_on_c, 5, 57, 127
7, 21552, Note_on_c, 5, 57, 0
7, 21552, Note_on_c, 5, 57, 127
7, 21600, Note_on_c, 5, 57, 0
7, 21600, Note_on_c, 5, 62, 127
7, 21648, Note_on_c, 5, 62, 0
7, 21648, Note_on_c, 5, 57, 127
7, 21696, Note_on_c, 5, 57, 0
7, 21696, Note_on_c, 5, 57, 127
7, 21792, Note_on_c, 5, 57, 0
7, 23472, Note_on_c, 5, 69, 127
7, 23568, Note_on_c, 5, 69, 0
7, 23568, Note_on_c, 5, 74, 127
7, 23616, Note_on_c, 5, 74, 0
7, 23616, Note_on_c, 5, 69, 127
7, 23664, Note_on_c, 5, 69, 0
7, 23664, Note_on_c, 5, 69, 127
7, 23712, Note_on_c, 5, 69, 0
7, 23856, Note_on_c, 5, 64, 127
7, 23952, Note_on_c, 5, 64, 0
7, 23952, Note_on_c, 5, 69, 127
7, 24000, Note_on_c, 5, 69, 0
7, 24000, Note_on_c, 5, 64, 127
7, 24048, Note_on_c, 5, 64, 0
7, 24048, Note_on_c, 5, 64, 127
7, 24096, Note_on_c, 5, 64, 0
7, 24236, Note_on_c, 5, 69, 127
7, 24332, Note_on_c, 5, 69, 0
7, 24385, Note_on_c, 5, 69, 127
7, 24481, Note_on_c, 5, 69, 0
7, 24528, Note_on_c, 5, 69, 127
7, 24624, Note_on_c, 5, 69, 0
7, 24672, Note_on_c, 5, 69, 127
7, 24768, Note_on_c, 5, 69, 0
7, 27504, Note_on_c, 5, 69, 127
7, 27648, Note_on_c, 5, 69, 0
7, 27648, Note_on_c, 5, 74, 127
7, 27696, Note_on_c, 5, 74, 0
7, 27696, Note_on_c, 5, 69, 127
7, 27744, Note_on_c, 5, 69, 0
7, 27744, Note_on_c, 5, 69, 127
7, 27792, Note_on_c, 5, 69, 0
7, 27792, Note_on_c, 5, 69, 127
7, 27840, Note_on_c, 5, 69, 0
7, 27840, Note_on_c, 5, 69, 127
7, 27888, Note_on_c, 5, 69, 0
7, 27888, Note_on_c, 5, 66, 127
7, 27936, Note_on_c, 5, 66, 0
7, 27936, Note_on_c, 5, 62, 127
7, 27984, Note_on_c, 5, 62, 0
7, 27984, Note_on_c, 5, 62, 127
7, 28032, Note_on_c, 5, 62, 0
7, 30380, Note_on_c, 5, 69, 127
7, 30476, Note_on_c, 5, 69, 0
7, 30529, Note_on_c, 5, 69, 127
7, 30625, Note_on_c, 5, 69, 0
7, 30672, Note_on_c, 5, 69, 127
7, 30768, Note_on_c, 5, 69, 0
7, 30816, Note_on_c, 5, 69, 127
7, 30912, Note_on_c, 5, 69, 0
7, 30960, Note_on_c, 5, 69, 127
7, 31056, Note_on_c, 5, 69, 0
7, 34992, Note_on_c, 5, 69, 127
7, 35040, Note_on_c, 5, 69, 0
7, 35040, Note_on_c, 5, 69, 127
7, 35088, Note_on_c, 5, 69, 0
7, 35136, Note_on_c, 5, 69, 127
7, 35184, Note_on_c, 5, 69, 0
7, 35184, Note_on_c, 5, 66, 127
7, 35232, Note_on_c, 5, 66, 0
7, 35232, Note_on_c, 5, 62, 127
7, 35280, Note_on_c, 5, 62, 0
7, 35280, Note_on_c, 5, 66, 127
7, 35328, Note_on_c, 5, 66, 0
7, 35328, Note_on_c, 5, 69, 127
7, 35376, Note_on_c, 5, 69, 0
7, 35376, Note_on_c, 5, 69, 127
7, 35448, Note_on_c, 5, 69, 0
7, 35472, Note_on_c, 5, 69, 127
7, 35520, Note_on_c, 5, 69, 0
7, 35712, Note_on_c, 5, 69, 127
7, 35760, Note_on_c, 5, 69, 0
7, 35808, Note_on_c, 5, 69, 127
7, 35856, Note_on_c, 5, 69, 0
7, 35904, Note_on_c, 5, 69, 127
7, 35952, Note_on_c, 5, 69, 0
7, 35952, Note_on_c, 5, 66, 127
7, 36000, Note_on_c, 5, 66, 0
7, 36000, Note_on_c, 5, 62, 127
7, 36048, Note_on_c, 5, 62, 0
7, 36096, Note_on_c, 5, 57, 127
7, 36144, Note_on_c, 5, 57, 0
7, 36144, Note_on_c, 5, 57, 127
7, 36240, Note_on_c, 5, 57, 0
7, 36240, Note_on_c, 5, 57, 127
7, 36864, Note_on_c, 5, 57, 0
7, 36864, End_track
8, 0, Start_track
8, 0, MIDI_port, 0
8, 0, Title_t, "Dist Lead Guitar 2"
8, 0, Program_c, 6, 30
8, 0, Control_c, 6, 7, 90
8, 1, Program_c, 6, 30
8, 2, Control_c, 6, 91, 40
8, 2, Control_c, 6, 7, 90
8, 4, Control_c, 6, 11, 120
8, 768, Note_on_c, 6, 69, 127
8, 861, Note_on_c, 6, 69, 0
8, 864, Note_on_c, 6, 69, 127
8, 984, Note_on_c, 6, 69, 0
8, 1008, Note_on_c, 6, 69, 127
8, 1080, Note_on_c, 6, 69, 0
8, 1104, Note_on_c, 6, 69, 127
8, 1152, Note_on_c, 6, 69, 0
8, 1152, Note_on_c, 6, 50, 127
8, 1368, Note_on_c, 6, 50, 0
8, 1632, Note_on_c, 6, 69, 127
8, 1678, Note_on_c, 6, 69, 0
8, 1680, Note_on_c, 6, 67, 127
8, 1726, Note_on_c, 6, 67, 0
8, 1728, Note_on_c, 6, 66, 127
8, 1776, Note_on_c, 6, 66, 0
8, 1776, Note_on_c, 6, 64, 127
8, 1824, Note_on_c, 6, 64, 0
8, 1824, Note_on_c, 6, 62, 127
8, 1872, Note_on_c, 6, 62, 0
8, 1872, Note_on_c, 6, 59, 127
8, 1920, Note_on_c, 6, 59, 0
8, 1920, Note_on_c, 6, 57, 127
8, 2016, Note_on_c, 6, 57, 0
8, 2352, Note_on_c, 6, 69, 127
8, 2424, Note_on_c, 6, 69, 0
8, 2448, Note_on_c, 6, 69, 127
8, 2520, Note_on_c, 6, 69, 0
8, 2544, Note_on_c, 6, 69, 127
8, 2592, Note_on_c, 6, 69, 0
8, 2592, Note_on_c, 6, 69, 127
8, 2640, Note_on_c, 6, 69, 0
8, 2640, Note_on_c, 6, 62, 127
8, 2688, Note_on_c, 6, 62, 0
8, 2688, Note_on_c, 6, 69, 127
8, 2784, Note_on_c, 6, 69, 0
8, 3840, Note_on_c, 6, 69, 127
8, 3982, Note_on_c, 6, 69, 0
8, 3984, Note_on_c, 6, 69, 127
8, 4075, Note_on_c, 6, 69, 0
8, 4080, Note_on_c, 6, 69, 127
8, 4128, Note_on_c, 6, 69, 0
8, 6144, Note_on_c, 6, 69, 127
8, 6336, Note_on_c, 6, 69, 0
8, 6336, Note_on_c, 6, 69, 127
8, 6384, Note_on_c, 6, 69, 0
8, 6384, Note_on_c, 6, 66, 127
8, 6432, Note_on_c, 6, 66, 0
8, 6432, Note_on_c, 6, 64, 127
8, 6480, Note_on_c, 6, 64, 0
8, 6480, Note_on_c, 6, 62, 127
8, 6528, Note_on_c, 6, 62, 0
8, 7344, Note_on_c, 6, 62, 127
8, 7440, Note_on_c, 6, 62, 0
8, 7728, Note_on_c, 6, 62, 127
8, 7824, Note_on_c, 6, 62, 0
8, 9216, Note_on_c, 6, 57, 127
8, 9264, Note_on_c, 6, 57, 0
8, 9264, Note_on_c, 6, 57, 127
8, 9312, Note_on_c, 6, 57, 0
8, 9312, Note_on_c, 6, 62, 127
8, 9360, Note_on_c, 6, 62, 0
8, 9360, Note_on_c, 6, 57, 127
8, 9408, Note_on_c, 6, 57, 0
8, 9408, Note_on_c, 6, 57, 127
8, 9504, Note_on_c, 6, 57, 0
8, 12672, Note_on_c, 6, 69, 127
8, 12768, Note_on_c, 6, 69, 0
8, 12768, Note_on_c, 6, 74, 127
8, 12816, Note_on_c, 6, 74, 0
8, 12864, Note_on_c, 6, 69, 127
8, 12960, Note_on_c, 6, 69, 0
8, 12960, Note_on_c, 6, 74, 127
8, 13008, Note_on_c, 6, 74, 0
8, 13008, Note_on_c, 6, 69, 127
8, 13056, Note_on_c, 6, 69, 0
8, 13104, Note_on_c, 6, 69, 127
8, 13152, Note_on_c, 6, 69, 0
8, 13152, Note_on_c, 6, 69, 127
8, 13200, Note_on_c, 6, 69, 0
8, 13200, Note_on_c, 6, 66, 127
8, 13248, Note_on_c, 6, 66, 0
8, 13248, Note_on_c, 6, 69, 127
8, 13320, Note_on_c, 6, 69, 0
8, 13344, Note_on_c, 6, 69, 127
8, 13392, Note_on_c, 6, 69, 0
8, 13392, Note_on_c, 6, 66, 127
8, 13440, Note_on_c, 6, 66, 0
8, 13440, Note_on_c, 6, 62, 127
8, 13536, Note_on_c, 6, 62, 0
8, 13536, Note_on_c, 6, 67, 127
8, 13584, Note_on_c, 6, 67, 0
8, 13584, Note_on_c, 6, 62, 127
8, 13680, Note_on_c, 6, 62, 0
8, 13680, Note_on_c, 6, 62, 127
8, 13728, Note_on_c, 6, 62, 0
8, 13728, Note_on_c, 6, 55, 127
8, 13776, Note_on_c, 6, 55, 0
8, 13776, Note_on_c, 6, 55, 127
8, 13824, Note_on_c, 6, 55, 0
8, 13824, Note_on_c, 6, 62, 127
8, 13920, Note_on_c, 6, 62, 0
8, 13920, Note_on_c, 6, 55, 127
8, 13968, Note_on_c, 6, 55, 0
8, 13968, Note_on_c, 6, 55, 127
8, 14016, Note_on_c, 6, 55, 0
8, 14017, Note_on_c, 6, 55, 127
8, 14064, Note_on_c, 6, 55, 0
8, 14064, Note_on_c, 6, 50, 127
8, 14111, Note_on_c, 6, 50, 0
8, 14112, Note_on_c, 6, 50, 127
8, 14159, Note_on_c, 6, 50, 0
8, 14160, Note_on_c, 6, 50, 127
8, 14207, Note_on_c, 6, 50, 0
8, 14208, Note_on_c, 6, 50, 127
8, 14304, Note_on_c, 6, 50, 0
8, 14592, Note_on_c, 6, 69, 100
8, 14688, Note_on_c, 6, 69, 0
8, 14688, Note_on_c, 6, 74, 100
8, 14736, Note_on_c, 6, 74, 0
8, 14736, Note_on_c, 6, 69, 100
8, 14832, Note_on_c, 6, 69, 0
8, 14832, Note_on_c, 6, 69, 100
8, 14880, Note_on_c, 6, 69, 0
8, 14880, Note_on_c, 6, 69, 100
8, 14928, Note_on_c, 6, 69, 0
8, 14928, Note_on_c, 6, 66, 100
8, 14976, Note_on_c, 6, 66, 0
8, 14976, Note_on_c, 6, 62, 100
8, 15024, Note_on_c, 6, 62, 0
8, 15024, Note_on_c, 6, 57, 100
8, 15120, Note_on_c, 6, 57, 0
8, 19008, Note_on_c, 6, 62, 127
8, 19056, Note_on_c, 6, 62, 0
8, 19056, Note_on_c, 6, 62, 127
8, 19104, Note_on_c, 6, 62, 0
8, 19104, Note_on_c, 6, 66, 127
8, 19152, Note_on_c, 6, 66, 0
8, 19152, Note_on_c, 6, 69, 127
8, 19344, Note_on_c, 6, 69, 0
8, 19632, Note_on_c, 6, 62, 127
8, 19680, Note_on_c, 6, 62, 0
8, 19680, Note_on_c, 6, 62, 127
8, 19728, Note_on_c, 6, 62, 0
8, 19776, Note_on_c, 6, 62, 127
8, 19824, Note_on_c, 6, 62, 0
8, 19872, Note_on_c, 6, 62, 127
8, 19920, Note_on_c, 6, 62, 0
8, 19920, Note_on_c, 6, 62, 127
8, 19968, Note_on_c, 6, 62, 0
8, 19968, Note_on_c, 6, 69, 127
8, 20016, Note_on_c, 6, 69, 0
8, 20016, Note_on_c, 6, 69, 127
8, 20112, Note_on_c, 6, 69, 0
8, 20112, Note_on_c, 6, 69, 127
8, 20208, Note_on_c, 6, 69, 0
8, 21504, Note_on_c, 6, 57, 127
8, 21552, Note_on_c, 6, 57, 0
8, 21552, Note_on_c, 6, 57, 127
8, 21600, Note_on_c, 6, 57, 0
8, 21600, Note_on_c, 6, 62, 127
8, 21648, Note_on_c, 6, 62, 0
8, 21648, Note_on_c, 6, 57, 127
8, 21696, Note_on_c, 6, 57, 0
8, 21696, Note_on_c, 6, 57, 127
8, 21792, Note_on_c, 6, 57, 0
8, 23472, Note_on_c, 6, 69, 127
8, 23568, Note_on_c, 6, 69, 0
8, 23568, Note_on_c, 6, 74, 127
8, 23616, Note_on_c, 6, 74, 0
8, 23616, Note_on_c, 6, 69, 127
8, 23664, Note_on_c, 6, 69, 0
8, 23664, Note_on_c, 6, 69, 127
8, 23712, Note_on_c, 6, 69, 0
8, 23856, Note_on_c, 6, 64, 127
8, 23952, Note_on_c, 6, 64, 0
8, 23952, Note_on_c, 6, 69, 127
8, 24000, Note_on_c, 6, 69, 0
8, 24000, Note_on_c, 6, 64, 127
8, 24048, Note_on_c, 6, 64, 0
8, 24048, Note_on_c, 6, 64, 127
8, 24096, Note_on_c, 6, 64, 0
8, 24236, Note_on_c, 6, 69, 127
8, 24332, Note_on_c, 6, 69, 0
8, 24385, Note_on_c, 6, 69, 127
8, 24481, Note_on_c, 6, 69, 0
8, 24528, Note_on_c, 6, 69, 127
8, 24624, Note_on_c, 6, 69, 0
8, 24672, Note_on_c, 6, 69, 127
8, 24768, Note_on_c, 6, 69, 0
8, 27504, Note_on_c, 6, 69, 127
8, 27648, Note_on_c, 6, 69, 0
8, 27648, Note_on_c, 6, 74, 127
8, 27696, Note_on_c, 6, 74, 0
8, 27696, Note_on_c, 6, 69, 127
8, 27744, Note_on_c, 6, 69, 0
8, 27744, Note_on_c, 6, 69, 127
8, 27792, Note_on_c, 6, 69, 0
8, 27792, Note_on_c, 6, 69, 127
8, 27840, Note_on_c, 6, 69, 0
8, 27840, Note_on_c, 6, 69, 127
8, 27888, Note_on_c, 6, 69, 0
8, 27888, Note_on_c, 6, 66, 127
8, 27936, Note_on_c, 6, 66, 0
8, 27936, Note_on_c, 6, 62, 127
8, 27984, Note_on_c, 6, 62, 0
8, 27984, Note_on_c, 6, 62, 127
8, 28032, Note_on_c, 6, 62, 0
8, 30380, Note_on_c, 6, 69, 127
8, 30476, Note_on_c, 6, 69, 0
8, 30529, Note_on_c, 6, 69, 127
8, 30625, Note_on_c, 6, 69, 0
8, 30672, Note_on_c, 6, 69, 127
8, 30768, Note_on_c, 6, 69, 0
8, 30816, Note_on_c, 6, 69, 127
8, 30912, Note_on_c, 6, 69, 0
8, 30960, Note_on_c, 6, 69, 127
8, 31056, Note_on_c, 6, 69, 0
8, 34992, Note_on_c, 6, 69, 127
8, 35040, Note_on_c, 6, 69, 0
8, 35040, Note_on_c, 6, 69, 127
8, 35088, Note_on_c, 6, 69, 0
8, 35136, Note_on_c, 6, 69, 127
8, 35184, Note_on_c, 6, 69, 0
8, 35184, Note_on_c, 6, 66, 127
8, 35232, Note_on_c, 6, 66, 0
8, 35232, Note_on_c, 6, 62, 127
8, 35280, Note_on_c, 6, 62, 0
8, 35280, Note_on_c, 6, 66, 127
8, 35328, Note_on_c, 6, 66, 0
8, 35328, Note_on_c, 6, 69, 127
8, 35376, Note_on_c, 6, 69, 0
8, 35376, Note_on_c, 6, 69, 127
8, 35448, Note_on_c, 6, 69, 0
8, 35472, Note_on_c, 6, 69, 127
8, 35520, Note_on_c, 6, 69, 0
8, 35712, Note_on_c, 6, 69, 127
8, 35760, Note_on_c, 6, 69, 0
8, 35808, Note_on_c, 6, 69, 127
8, 35856, Note_on_c, 6, 69, 0
8, 35904, Note_on_c, 6, 69, 127
8, 35952, Note_on_c, 6, 69, 0
8, 35952, Note_on_c, 6, 66, 127
8, 36000, Note_on_c, 6, 66, 0
8, 36000, Note_on_c, 6, 62, 127
8, 36048, Note_on_c, 6, 62, 0
8, 36096, Note_on_c, 6, 57, 127
8, 36144, Note_on_c, 6, 57, 0
8, 36144, Note_on_c, 6, 57, 127
8, 36240, Note_on_c, 6, 57, 0
8, 36240, Note_on_c, 6, 57, 127
8, 36864, Note_on_c, 6, 57, 0
8, 36864, End_track
9, 0, Start_track
9, 0, MIDI_port, 0
9, 0, Title_t, "Rhythm Guitar "
9, 0, Program_c, 7, 29
9, 0, Control_c, 7, 7, 105
9, 1, Program_c, 7, 29
9, 2, Control_c, 7, 7, 105
9, 1920, Note_on_c, 7, 50, 100
9, 1968, Note_on_c, 7, 50, 0
9, 1968, Note_on_c, 7, 62, 100
9, 1968, Note_on_c, 7, 50, 100
9, 2016, Note_on_c, 7, 50, 0
9, 2016, Note_on_c, 7, 62, 0
9, 2016, Note_on_c, 7, 59, 100
9, 2016, Note_on_c, 7, 62, 100
9, 2064, Note_on_c, 7, 62, 0
9, 2064, Note_on_c, 7, 59, 0
9, 2064, Note_on_c, 7, 50, 76
9, 2112, Note_on_c, 7, 50, 0
9, 2112, Note_on_c, 7, 57, 100
9, 2112, Note_on_c, 7, 62, 100
9, 2160, Note_on_c, 7, 62, 0
9, 2160, Note_on_c, 7, 57, 0
9, 2160, Note_on_c, 7, 50, 76
9, 2208, Note_on_c, 7, 50, 0
9, 2208, Note_on_c, 7, 62, 100
9, 2208, Note_on_c, 7, 59, 100
9, 2256, Note_on_c, 7, 59, 0
9, 2256, Note_on_c, 7, 62, 0
9, 2256, Note_on_c, 7, 62, 100
9, 2256, Note_on_c, 7, 57, 100
9, 2304, Note_on_c, 7, 57, 0
9, 2304, Note_on_c, 7, 62, 0
9, 2304, Note_on_c, 7, 50, 78
9, 2352, Note_on_c, 7, 50, 0
9, 2352, Note_on_c, 7, 57, 100
9, 2352, Note_on_c, 7, 62, 100
9, 2400, Note_on_c, 7, 62, 0
9, 2400, Note_on_c, 7, 57, 0
9, 2400, Note_on_c, 7, 59, 100
9, 2400, Note_on_c, 7, 62, 100
9, 2448, Note_on_c, 7, 62, 0
9, 2448, Note_on_c, 7, 59, 0
9, 2448, Note_on_c, 7, 50, 76
9, 2496, Note_on_c, 7, 50, 0
9, 2496, Note_on_c, 7, 57, 100
9, 2496, Note_on_c, 7, 62, 100
9, 2544, Note_on_c, 7, 62, 0
9, 2544, Note_on_c, 7, 57, 0
9, 2544, Note_on_c, 7, 50, 76
9, 2592, Note_on_c, 7, 50, 0
9, 2592, Note_on_c, 7, 59, 100
9, 2592, Note_on_c, 7, 62, 100
9, 2640, Note_on_c, 7, 62, 0
9, 2640, Note_on_c, 7, 59, 0
9, 2640, Note_on_c, 7, 57, 100
9, 2640, Note_on_c, 7, 62, 100
9, 2706, Note_on_c, 7, 62, 0
9, 2711, Note_on_c, 7, 57, 0
9, 2736, Note_on_c, 7, 50, 76
9, 2736, Note_on_c, 7, 57, 76
9, 2784, Note_on_c, 7, 57, 0
9, 2784, Note_on_c, 7, 50, 0
9, 2784, Note_on_c, 7, 59, 100
9, 2784, Note_on_c, 7, 62, 100
9, 2832, Note_on_c, 7, 62, 0
9, 2832, Note_on_c, 7, 59, 0
9, 2832, Note_on_c, 7, 50, 77
9, 2880, Note_on_c, 7, 50, 0
9, 2880, Note_on_c, 7, 57, 100
9, 2880, Note_on_c, 7, 62, 100
9, 2928, Note_on_c, 7, 62, 0
9, 2928, Note_on_c, 7, 57, 0
9, 2928, Note_on_c, 7, 50, 77
9, 2976, Note_on_c, 7, 50, 0
9, 2976, Note_on_c, 7, 62, 100
9, 2976, Note_on_c, 7, 59, 100
9, 3024, Note_on_c, 7, 59, 0
9, 3024, Note_on_c, 7, 62, 0
9, 3024, Note_on_c, 7, 50, 100
9, 3024, Note_on_c, 7, 57, 100
9, 3099, Note_on_c, 7, 57, 0
9, 3099, Note_on_c, 7, 50, 0
9, 3120, Note_on_c, 7, 50, 100
9, 3120, Note_on_c, 7, 57, 100
9, 3168, Note_on_c, 7, 57, 0
9, 3168, Note_on_c, 7, 50, 0
9, 3168, Note_on_c, 7, 59, 100
9, 3168, Note_on_c, 7, 62, 100
9, 3216, Note_on_c, 7, 62, 0
9, 3216, Note_on_c, 7, 59, 0
9, 3216, Note_on_c, 7, 50, 76
9, 3264, Note_on_c, 7, 50, 0
9, 3264, Note_on_c, 7, 57, 100
9, 3264, Note_on_c, 7, 62, 100
9, 3312, Note_on_c, 7, 62, 0
9, 3312, Note_on_c, 7, 57, 0
9, 3312, Note_on_c, 7, 50, 74
9, 3360, Note_on_c, 7, 50, 0
9, 3360, Note_on_c, 7, 59, 100
9, 3360, Note_on_c, 7, 62, 100
9, 3408, Note_on_c, 7, 62, 0
9, 3408, Note_on_c, 7, 59, 0
9, 3415, Note_on_c, 7, 50, 78
9, 3456, Note_on_c, 7, 57, 100
9, 3456, Note_on_c, 7, 62, 100
9, 3457, Note_on_c, 7, 50, 0
9, 3504, Note_on_c, 7, 62, 0
9, 3504, Note_on_c, 7, 57, 0
9, 3504, Note_on_c, 7, 50, 74
9, 3552, Note_on_c, 7, 50, 0
9, 3552, Note_on_c, 7, 59, 100
9, 3552, Note_on_c, 7, 62, 100
9, 3600, Note_on_c, 7, 62, 0
9, 3600, Note_on_c, 7, 59, 0
9, 3600, Note_on_c, 7, 50, 75
9, 3648, Note_on_c, 7, 50, 0
9, 3648, Note_on_c, 7, 57, 100
9, 3648, Note_on_c, 7, 62, 100
9, 3696, Note_on_c, 7, 62, 0
9, 3696, Note_on_c, 7, 57, 0
9, 3696, Note_on_c, 7, 50, 77
9, 3744, Note_on_c, 7, 50, 0
9, 3744, Note_on_c, 7, 59, 100
9, 3744, Note_on_c, 7, 62, 100
9, 3792, Note_on_c, 7, 62, 0
9, 3792, Note_on_c, 7, 59, 0
9, 3792, Note_on_c, 7, 50, 100
9, 3792, Note_on_c, 7, 57, 100
9, 3840, Note_on_c, 7, 57, 0
9, 3840, Note_on_c, 7, 50, 0
9, 3888, Note_on_c, 7, 50, 100
9, 3888, Note_on_c, 7, 57, 100
9, 3936, Note_on_c, 7, 57, 0
9, 3936, Note_on_c, 7, 50, 0
9, 3936, Note_on_c, 7, 59, 100
9, 3936, Note_on_c, 7, 62, 100
9, 3984, Note_on_c, 7, 62, 0
9, 3984, Note_on_c, 7, 59, 0
9, 3984, Note_on_c, 7, 50, 74
9, 4032, Note_on_c, 7, 50, 0
9, 4032, Note_on_c, 7, 62, 100
9, 4032, Note_on_c, 7, 57, 100
9, 4080, Note_on_c, 7, 57, 0
9, 4080, Note_on_c, 7, 62, 0
9, 4080, Note_on_c, 7, 50, 78
9, 4128, Note_on_c, 7, 50, 0
9, 4128, Note_on_c, 7, 59, 99
9, 4128, Note_on_c, 7, 62, 99
9, 4192, Note_on_c, 7, 62, 0
9, 4194, Note_on_c, 7, 59, 0
9, 4224, Note_on_c, 7, 50, 73
9, 4271, Note_on_c, 7, 50, 0
9, 4272, Note_on_c, 7, 50, 100
9, 4272, Note_on_c, 7, 55, 100
9, 4320, Note_on_c, 7, 55, 0
9, 4320, Note_on_c, 7, 50, 0
9, 4320, Note_on_c, 7, 55, 100
9, 4320, Note_on_c, 7, 52, 100
9, 4368, Note_on_c, 7, 52, 0
9, 4368, Note_on_c, 7, 55, 0
9, 4416, Note_on_c, 7, 50, 100
9, 4416, Note_on_c, 7, 55, 100
9, 4464, Note_on_c, 7, 55, 0
9, 4464, Note_on_c, 7, 50, 0
9, 4512, Note_on_c, 7, 52, 100
9, 4512, Note_on_c, 7, 55, 100
9, 4560, Note_on_c, 7, 55, 0
9, 4560, Note_on_c, 7, 52, 0
9, 4560, Note_on_c, 7, 43, 100
9, 4560, Note_on_c, 7, 50, 100
9, 4608, Note_on_c, 7, 50, 0
9, 4608, Note_on_c, 7, 43, 0
9, 4656, Note_on_c, 7, 55, 100
9, 4656, Note_on_c, 7, 50, 100
9, 4704, Note_on_c, 7, 50, 0
9, 4704, Note_on_c, 7, 55, 0
9, 4704, Note_on_c, 7, 52, 100
9, 4704, Note_on_c, 7, 55, 100
9, 4752, Note_on_c, 7, 55, 0
9, 4752, Note_on_c, 7, 52, 0
9, 4752, Note_on_c, 7, 43, 77
9, 4800, Note_on_c, 7, 43, 0
9, 4800, Note_on_c, 7, 50, 100
9, 4800, Note_on_c, 7, 55, 100
9, 4848, Note_on_c, 7, 55, 0
9, 4848, Note_on_c, 7, 50, 0
9, 4848, Note_on_c, 7, 43, 78
9, 4896, Note_on_c, 7, 43, 0
9, 4896, Note_on_c, 7, 52, 100
9, 4896, Note_on_c, 7, 55, 100
9, 4944, Note_on_c, 7, 55, 0
9, 4944, Note_on_c, 7, 52, 0
9, 4947, Note_on_c, 7, 50, 80
9, 4992, Note_on_c, 7, 57, 100
9, 4992, Note_on_c, 7, 50, 100
9, 4994, Note_on_c, 7, 50, 0
9, 5040, Note_on_c, 7, 50, 0
9, 5040, Note_on_c, 7, 57, 0
9, 5040, Note_on_c, 7, 50, 82
9, 5088, Note_on_c, 7, 50, 0
9, 5088, Note_on_c, 7, 62, 100
9, 5088, Note_on_c, 7, 59, 100
9, 5136, Note_on_c, 7, 59, 0
9, 5136, Note_on_c, 7, 62, 0
9, 5136, Note_on_c, 7, 50, 82
9, 5184, Note_on_c, 7, 50, 0
9, 5184, Note_on_c, 7, 50, 100
9, 5184, Note_on_c, 7, 57, 100
9, 5232, Note_on_c, 7, 57, 0
9, 5232, Note_on_c, 7, 50, 0
9, 5232, Note_on_c, 7, 50, 82
9, 5280, Note_on_c, 7, 50, 0
9, 5280, Note_on_c, 7, 59, 100
9, 5280, Note_on_c, 7, 62, 100
9, 5328, Note_on_c, 7, 62, 0
9, 5328, Note_on_c, 7, 59, 0
9, 5328, Note_on_c, 7, 52, 64
9, 5328, Note_on_c, 7, 45, 100
9, 5376, Note_on_c, 7, 45, 0
9, 5376, Note_on_c, 7, 52, 0
9, 5424, Note_on_c, 7, 57, 100
9, 5424, Note_on_c, 7, 52, 100
9, 5472, Note_on_c, 7, 52, 0
9, 5472, Note_on_c, 7, 57, 0
9, 5472, Note_on_c, 7, 54, 100
9, 5472, Note_on_c, 7, 57, 100
9, 5520, Note_on_c, 7, 57, 0
9, 5520, Note_on_c, 7, 54, 0
9, 5520, Note_on_c, 7, 45, 68
9, 5568, Note_on_c, 7, 45, 0
9, 5568, Note_on_c, 7, 52, 100
9, 5568, Note_on_c, 7, 57, 100
9, 5616, Note_on_c, 7, 57, 0
9, 5616, Note_on_c, 7, 52, 0
9, 5616, Note_on_c, 7, 45, 72
9, 5664, Note_on_c, 7, 45, 0
9, 5664, Note_on_c, 7, 54, 100
9, 5664, Note_on_c, 7, 57, 100
9, 5712, Note_on_c, 7, 57, 0
9, 5712, Note_on_c, 7, 54, 0
9, 5712, Note_on_c, 7, 57, 100
9, 5712, Note_on_c, 7, 50, 100
9, 5760, Note_on_c, 7, 50, 0
9, 5760, Note_on_c, 7, 57, 0
9, 5808, Note_on_c, 7, 57, 100
9, 5808, Note_on_c, 7, 62, 100
9, 5856, Note_on_c, 7, 62, 0
9, 5856, Note_on_c, 7, 57, 0
9, 5856, Note_on_c, 7, 57, 100
9, 5856, Note_on_c, 7, 59, 100
9, 5904, Note_on_c, 7, 59, 0
9, 5904, Note_on_c, 7, 57, 0
9, 5904, Note_on_c, 7, 50, 73
9, 5952, Note_on_c, 7, 50, 0
9, 5952, Note_on_c, 7, 62, 100
9, 5952, Note_on_c, 7, 57, 100
9, 6000, Note_on_c, 7, 57, 0
9, 6000, Note_on_c, 7, 62, 0
9, 6000, Note_on_c, 7, 50, 73
9, 6048, Note_on_c, 7, 50, 0
9, 6048, Note_on_c, 7, 59, 100
9, 6048, Note_on_c, 7, 57, 100
9, 6096, Note_on_c, 7, 57, 0
9, 6096, Note_on_c, 7, 59, 0
9, 6096, Note_on_c, 7, 50, 73
9, 6144, Note_on_c, 7, 50, 0
9, 6144, Note_on_c, 7, 57, 100
9, 6144, Note_on_c, 7, 62, 100
9, 6192, Note_on_c, 7, 62, 0
9, 6192, Note_on_c, 7, 57, 0
9, 6192, Note_on_c, 7, 57, 100
9, 6192, Note_on_c, 7, 62, 100
9, 6240, Note_on_c, 7, 62, 0
9, 6240, Note_on_c, 7, 57, 0
9, 6240, Note_on_c, 7, 57, 100
9, 6240, Note_on_c, 7, 59, 100
9, 6288, Note_on_c, 7, 59, 0
9, 6288, Note_on_c, 7, 57, 0
9, 6288, Note_on_c, 7, 50, 63
9, 6288, Note_on_c, 7, 57, 100
9, 6288, Note_on_c, 7, 62, 100
9, 6336, Note_on_c, 7, 62, 0
9, 6336, Note_on_c, 7, 57, 0
9, 6336, Note_on_c, 7, 50, 0
9, 6384, Note_on_c, 7, 50, 65
9, 6384, Note_on_c, 7, 62, 100
9, 6384, Note_on_c, 7, 57, 100
9, 6432, Note_on_c, 7, 57, 0
9, 6432, Note_on_c, 7, 62, 0
9, 6432, Note_on_c, 7, 50, 0
9, 6432, Note_on_c, 7, 59, 65
9, 6432, Note_on_c, 7, 57, 65
9, 6480, Note_on_c, 7, 57, 0
9, 6480, Note_on_c, 7, 59, 0
9, 6480, Note_on_c, 7, 50, 99
9, 6528, Note_on_c, 7, 50, 0
9, 6528, Note_on_c, 7, 57, 100
9, 6528, Note_on_c, 7, 62, 100
9, 6576, Note_on_c, 7, 62, 0
9, 6576, Note_on_c, 7, 57, 0
9, 6576, Note_on_c, 7, 50, 74
9, 6624, Note_on_c, 7, 50, 0
9, 6624, Note_on_c, 7, 59, 100
9, 6624, Note_on_c, 7, 62, 100
9, 6672, Note_on_c, 7, 62, 0
9, 6672, Note_on_c, 7, 59, 0
9, 6672, Note_on_c, 7, 50, 75
9, 6720, Note_on_c, 7, 50, 0
9, 6720, Note_on_c, 7, 57, 100
9, 6720, Note_on_c, 7, 62, 100
9, 6768, Note_on_c, 7, 62, 0
9, 6768, Note_on_c, 7, 57, 0
9, 6768, Note_on_c, 7, 50, 77
9, 6816, Note_on_c, 7, 50, 0
9, 6816, Note_on_c, 7, 59, 100
9, 6816, Note_on_c, 7, 62, 100
9, 6864, Note_on_c, 7, 62, 0
9, 6864, Note_on_c, 7, 59, 0
9, 6864, Note_on_c, 7, 50, 100
9, 6864, Note_on_c, 7, 57, 100
9, 6912, Note_on_c, 7, 57, 0
9, 6912, Note_on_c, 7, 50, 0
9, 6960, Note_on_c, 7, 50, 100
9, 6960, Note_on_c, 7, 57, 100
9, 7008, Note_on_c, 7, 57, 0
9, 7008, Note_on_c, 7, 50, 0
9, 7008, Note_on_c, 7, 59, 100
9, 7008, Note_on_c, 7, 62, 100
9, 7056, Note_on_c, 7, 62, 0
9, 7056, Note_on_c, 7, 59, 0
9, 7056, Note_on_c, 7, 50, 74
9, 7104, Note_on_c, 7, 50, 0
9, 7104, Note_on_c, 7, 62, 100
9, 7104, Note_on_c, 7, 57, 100
9, 7152, Note_on_c, 7, 57, 0
9, 7152, Note_on_c, 7, 62, 0
9, 7152, Note_on_c, 7, 50, 78
9, 7200, Note_on_c, 7, 50, 0
9, 7200, Note_on_c, 7, 59, 99
9, 7200, Note_on_c, 7, 62, 99
9, 7248, Note_on_c, 7, 62, 0
9, 7248, Note_on_c, 7, 59, 0
9, 7248, Note_on_c, 7, 50, 74
9, 7314, Note_on_c, 7, 50, 0
9, 7344, Note_on_c, 7, 50, 100
9, 7344, Note_on_c, 7, 55, 100
9, 7392, Note_on_c, 7, 55, 0
9, 7392, Note_on_c, 7, 50, 0
9, 7392, Note_on_c, 7, 55, 100
9, 7392, Note_on_c, 7, 52, 100
9, 7440, Note_on_c, 7, 52, 0
9, 7440, Note_on_c, 7, 55, 0
9, 7488, Note_on_c, 7, 50, 100
9, 7488, Note_on_c, 7, 55, 100
9, 7536, Note_on_c, 7, 55, 0
9, 7536, Note_on_c, 7, 50, 0
9, 7584, Note_on_c, 7, 52, 100
9, 7584, Note_on_c, 7, 55, 100
9, 7632, Note_on_c, 7, 55, 0
9, 7632, Note_on_c, 7, 52, 0
9, 7632, Note_on_c, 7, 43, 100
9, 7632, Note_on_c, 7, 50, 100
9, 7680, Note_on_c, 7, 50, 0
9, 7680, Note_on_c, 7, 43, 0
9, 7728, Note_on_c, 7, 55, 100
9, 7728, Note_on_c, 7, 50, 100
9, 7776, Note_on_c, 7, 50, 0
9, 7776, Note_on_c, 7, 55, 0
9, 7776, Note_on_c, 7, 52, 100
9, 7776, Note_on_c, 7, 55, 100
9, 7824, Note_on_c, 7, 55, 0
9, 7824, Note_on_c, 7, 52, 0
9, 7824, Note_on_c, 7, 43, 77
9, 7872, Note_on_c, 7, 43, 0
9, 7872, Note_on_c, 7, 50, 100
9, 7872, Note_on_c, 7, 55, 100
9, 7920, Note_on_c, 7, 55, 0
9, 7920, Note_on_c, 7, 50, 0
9, 7920, Note_on_c, 7, 43, 78
9, 7968, Note_on_c, 7, 43, 0
9, 7968, Note_on_c, 7, 52, 100
9, 7968, Note_on_c, 7, 55, 100
9, 8016, Note_on_c, 7, 55, 0
9, 8016, Note_on_c, 7, 52, 0
9, 8064, Note_on_c, 7, 57, 100
9, 8064, Note_on_c, 7, 50, 100
9, 8112, Note_on_c, 7, 50, 0
9, 8112, Note_on_c, 7, 57, 0
9, 8112, Note_on_c, 7, 50, 82
9, 8160, Note_on_c, 7, 50, 0
9, 8160, Note_on_c, 7, 62, 100
9, 8160, Note_on_c, 7, 59, 100
9, 8208, Note_on_c, 7, 59, 0
9, 8208, Note_on_c, 7, 62, 0
9, 8208, Note_on_c, 7, 50, 82
9, 8256, Note_on_c, 7, 50, 0
9, 8256, Note_on_c, 7, 50, 100
9, 8256, Note_on_c, 7, 57, 100
9, 8304, Note_on_c, 7, 57, 0
9, 8304, Note_on_c, 7, 50, 0
9, 8304, Note_on_c, 7, 50, 82
9, 8352, Note_on_c, 7, 50, 0
9, 8352, Note_on_c, 7, 59, 100
9, 8352, Note_on_c, 7, 62, 100
9, 8400, Note_on_c, 7, 62, 0
9, 8400, Note_on_c, 7, 59, 0
9, 8400, Note_on_c, 7, 52, 64
9, 8400, Note_on_c, 7, 45, 100
9, 8448, Note_on_c, 7, 45, 0
9, 8448, Note_on_c, 7, 52, 0
9, 8496, Note_on_c, 7, 57, 100
9, 8496, Note_on_c, 7, 52, 100
9, 8544, Note_on_c, 7, 52, 0
9, 8544, Note_on_c, 7, 57, 0
9, 8544, Note_on_c, 7, 54, 100
9, 8544, Note_on_c, 7, 57, 100
9, 8592, Note_on_c, 7, 57, 0
9, 8592, Note_on_c, 7, 54, 0
9, 8592, Note_on_c, 7, 45, 68
9, 8640, Note_on_c, 7, 45, 0
9, 8640, Note_on_c, 7, 52, 100
9, 8640, Note_on_c, 7, 57, 100
9, 8688, Note_on_c, 7, 57, 0
9, 8688, Note_on_c, 7, 52, 0
9, 8688, Note_on_c, 7, 45, 72
9, 8736, Note_on_c, 7, 45, 0
9, 8736, Note_on_c, 7, 54, 100
9, 8736, Note_on_c, 7, 57, 100
9, 8784, Note_on_c, 7, 57, 0
9, 8784, Note_on_c, 7, 54, 0
9, 8784, Note_on_c, 7, 57, 100
9, 8784, Note_on_c, 7, 50, 100
9, 8832, Note_on_c, 7, 50, 0
9, 8832, Note_on_c, 7, 57, 0
9, 8880, Note_on_c, 7, 57, 100
9, 8880, Note_on_c, 7, 62, 100
9, 8928, Note_on_c, 7, 62, 0
9, 8928, Note_on_c, 7, 57, 0
9, 8928, Note_on_c, 7, 57, 100
9, 8928, Note_on_c, 7, 59, 100
9, 8976, Note_on_c, 7, 59, 0
9, 8976, Note_on_c, 7, 57, 0
9, 8976, Note_on_c, 7, 50, 73
9, 9024, Note_on_c, 7, 50, 0
9, 9024, Note_on_c, 7, 62, 100
9, 9024, Note_on_c, 7, 57, 100
9, 9072, Note_on_c, 7, 57, 0
9, 9072, Note_on_c, 7, 62, 0
9, 9072, Note_on_c, 7, 50, 73
9, 9120, Note_on_c, 7, 50, 0
9, 9120, Note_on_c, 7, 59, 100
9, 9120, Note_on_c, 7, 57, 100
9, 9168, Note_on_c, 7, 57, 0
9, 9168, Note_on_c, 7, 59, 0
9, 9168, Note_on_c, 7, 50, 73
9, 9216, Note_on_c, 7, 50, 0
9, 9216, Note_on_c, 7, 57, 100
9, 9216, Note_on_c, 7, 62, 100
9, 9264, Note_on_c, 7, 62, 0
9, 9264, Note_on_c, 7, 57, 0
9, 9264, Note_on_c, 7, 57, 100
9, 9264, Note_on_c, 7, 62, 100
9, 9312, Note_on_c, 7, 62, 0
9, 9312, Note_on_c, 7, 57, 0
9, 9312, Note_on_c, 7, 57, 100
9, 9312, Note_on_c, 7, 59, 100
9, 9360, Note_on_c, 7, 59, 0
9, 9360, Note_on_c, 7, 57, 0
9, 9360, Note_on_c, 7, 50, 63
9, 9360, Note_on_c, 7, 57, 100
9, 9360, Note_on_c, 7, 62, 100
9, 9408, Note_on_c, 7, 50, 0
9, 9437, Note_on_c, 7, 57, 0
9, 9442, Note_on_c, 7, 62, 0
9, 9456, Note_on_c, 7, 50, 66
9, 9504, Note_on_c, 7, 50, 0
9, 9504, Note_on_c, 7, 50, 97
9, 9504, Note_on_c, 7, 57, 97
9, 9552, Note_on_c, 7, 57, 0
9, 9552, Note_on_c, 7, 50, 0
9, 9552, Note_on_c, 7, 50, 66
9, 9600, Note_on_c, 7, 50, 0
9, 9600, Note_on_c, 7, 57, 100
9, 9600, Note_on_c, 7, 50, 100
9, 9648, Note_on_c, 7, 50, 0
9, 9648, Note_on_c, 7, 57, 0
9, 9648, Note_on_c, 7, 50, 74
9, 9696, Note_on_c, 7, 50, 0
9, 9696, Note_on_c, 7, 59, 100
9, 9696, Note_on_c, 7, 50, 100
9, 9744, Note_on_c, 7, 50, 0
9, 9744, Note_on_c, 7, 59, 0
9, 9744, Note_on_c, 7, 50, 75
9, 9792, Note_on_c, 7, 50, 0
9, 9792, Note_on_c, 7, 57, 100
9, 9792, Note_on_c, 7, 50, 100
9, 9840, Note_on_c, 7, 50, 0
9, 9840, Note_on_c, 7, 57, 0
9, 9840, Note_on_c, 7, 50, 77
9, 9888, Note_on_c, 7, 50, 0
9, 9888, Note_on_c, 7, 59, 100
9, 9888, Note_on_c, 7, 50, 100
9, 9936, Note_on_c, 7, 50, 0
9, 9936, Note_on_c, 7, 59, 0
9, 9936, Note_on_c, 7, 50, 100
9, 9936, Note_on_c, 7, 57, 100
9, 9984, Note_on_c, 7, 57, 0
9, 9984, Note_on_c, 7, 50, 0
9, 10032, Note_on_c, 7, 50, 100
9, 10032, Note_on_c, 7, 57, 100
9, 10080, Note_on_c, 7, 57, 0
9, 10080, Note_on_c, 7, 50, 0
9, 10080, Note_on_c, 7, 59, 100
9, 10080, Note_on_c, 7, 50, 100
9, 10128, Note_on_c, 7, 50, 0
9, 10128, Note_on_c, 7, 59, 0
9, 10128, Note_on_c, 7, 50, 74
9, 10176, Note_on_c, 7, 50, 0
9, 10176, Note_on_c, 7, 50, 100
9, 10176, Note_on_c, 7, 57, 100
9, 10224, Note_on_c, 7, 57, 0
9, 10224, Note_on_c, 7, 50, 0
9, 10224, Note_on_c, 7, 50, 78
9, 10272, Note_on_c, 7, 50, 0
9, 10272, Note_on_c, 7, 59, 99
9, 10272, Note_on_c, 7, 50, 99
9, 10320, Note_on_c, 7, 50, 0
9, 10320, Note_on_c, 7, 59, 0
9, 10320, Note_on_c, 7, 50, 75
9, 10364, Note_on_c, 7, 50, 0
9, 10416, Note_on_c, 7, 50, 100
9, 10416, Note_on_c, 7, 55, 100
9, 10464, Note_on_c, 7, 55, 0
9, 10464, Note_on_c, 7, 50, 0
9, 10464, Note_on_c, 7, 55, 100
9, 10464, Note_on_c, 7, 52, 100
9, 10512, Note_on_c, 7, 52, 0
9, 10512, Note_on_c, 7, 55, 0
9, 10560, Note_on_c, 7, 50, 100
9, 10560, Note_on_c, 7, 55, 100
9, 10608, Note_on_c, 7, 55, 0
9, 10608, Note_on_c, 7, 50, 0
9, 10656, Note_on_c, 7, 52, 100
9, 10656, Note_on_c, 7, 55, 100
9, 10704, Note_on_c, 7, 55, 0
9, 10704, Note_on_c, 7, 52, 0
9, 10704, Note_on_c, 7, 43, 100
9, 10704, Note_on_c, 7, 50, 100
9, 10752, Note_on_c, 7, 50, 0
9, 10752, Note_on_c, 7, 43, 0
9, 10800, Note_on_c, 7, 55, 100
9, 10800, Note_on_c, 7, 50, 100
9, 10848, Note_on_c, 7, 50, 0
9, 10848, Note_on_c, 7, 55, 0
9, 10848, Note_on_c, 7, 52, 100
9, 10848, Note_on_c, 7, 55, 100
9, 10896, Note_on_c, 7, 55, 0
9, 10896, Note_on_c, 7, 52, 0
9, 10896, Note_on_c, 7, 43, 77
9, 10944, Note_on_c, 7, 43, 0
9, 10944, Note_on_c, 7, 50, 100
9, 10944, Note_on_c, 7, 55, 100
9, 10992, Note_on_c, 7, 55, 0
9, 10992, Note_on_c, 7, 50, 0
9, 10992, Note_on_c, 7, 43, 78
9, 11040, Note_on_c, 7, 43, 0
9, 11040, Note_on_c, 7, 52, 100
9, 11040, Note_on_c, 7, 55, 100
9, 11088, Note_on_c, 7, 55, 0
9, 11088, Note_on_c, 7, 52, 0
9, 11136, Note_on_c, 7, 57, 100
9, 11136, Note_on_c, 7, 50, 100
9, 11184, Note_on_c, 7, 50, 0
9, 11184, Note_on_c, 7, 57, 0
9, 11184, Note_on_c, 7, 50, 82
9, 11232, Note_on_c, 7, 50, 0
9, 11232, Note_on_c, 7, 62, 100
9, 11232, Note_on_c, 7, 59, 100
9, 11280, Note_on_c, 7, 59, 0
9, 11280, Note_on_c, 7, 62, 0
9, 11280, Note_on_c, 7, 50, 82
9, 11328, Note_on_c, 7, 50, 0
9, 11328, Note_on_c, 7, 50, 100
9, 11328, Note_on_c, 7, 57, 100
9, 11376, Note_on_c, 7, 57, 0
9, 11376, Note_on_c, 7, 50, 0
9, 11376, Note_on_c, 7, 50, 82
9, 11424, Note_on_c, 7, 50, 0
9, 11424, Note_on_c, 7, 59, 100
9, 11424, Note_on_c, 7, 62, 100
9, 11472, Note_on_c, 7, 62, 0
9, 11472, Note_on_c, 7, 59, 0
9, 11472, Note_on_c, 7, 52, 64
9, 11472, Note_on_c, 7, 45, 100
9, 11520, Note_on_c, 7, 45, 0
9, 11520, Note_on_c, 7, 52, 0
9, 11568, Note_on_c, 7, 57, 100
9, 11568, Note_on_c, 7, 52, 100
9, 11616, Note_on_c, 7, 52, 0
9, 11616, Note_on_c, 7, 57, 0
9, 11616, Note_on_c, 7, 54, 100
9, 11616, Note_on_c, 7, 57, 100
9, 11664, Note_on_c, 7, 57, 0
9, 11664, Note_on_c, 7, 54, 0
9, 11664, Note_on_c, 7, 45, 68
9, 11712, Note_on_c, 7, 45, 0
9, 11712, Note_on_c, 7, 52, 100
9, 11712, Note_on_c, 7, 57, 100
9, 11760, Note_on_c, 7, 57, 0
9, 11760, Note_on_c, 7, 52, 0
9, 11760, Note_on_c, 7, 45, 72
9, 11808, Note_on_c, 7, 45, 0
9, 11808, Note_on_c, 7, 54, 100
9, 11808, Note_on_c, 7, 57, 100
9, 11856, Note_on_c, 7, 57, 0
9, 11856, Note_on_c, 7, 54, 0
9, 11856, Note_on_c, 7, 57, 100
9, 11856, Note_on_c, 7, 50, 100
9, 11904, Note_on_c, 7, 50, 0
9, 11904, Note_on_c, 7, 57, 0
9, 11952, Note_on_c, 7, 57, 100
9, 11952, Note_on_c, 7, 62, 100
9, 12000, Note_on_c, 7, 62, 0
9, 12000, Note_on_c, 7, 57, 0
9, 12000, Note_on_c, 7, 57, 100
9, 12000, Note_on_c, 7, 59, 100
9, 12048, Note_on_c, 7, 59, 0
9, 12048, Note_on_c, 7, 57, 0
9, 12048, Note_on_c, 7, 50, 73
9, 12096, Note_on_c, 7, 50, 0
9, 12096, Note_on_c, 7, 62, 100
9, 12096, Note_on_c, 7, 57, 100
9, 12144, Note_on_c, 7, 57, 0
9, 12144, Note_on_c, 7, 62, 0
9, 12144, Note_on_c, 7, 50, 73
9, 12192, Note_on_c, 7, 50, 0
9, 12192, Note_on_c, 7, 59, 100
9, 12192, Note_on_c, 7, 57, 100
9, 12240, Note_on_c, 7, 57, 0
9, 12240, Note_on_c, 7, 59, 0
9, 12240, Note_on_c, 7, 50, 73
9, 12288, Note_on_c, 7, 50, 0
9, 12288, Note_on_c, 7, 57, 100
9, 12288, Note_on_c, 7, 62, 100
9, 12336, Note_on_c, 7, 62, 0
9, 12336, Note_on_c, 7, 57, 0
9, 12336, Note_on_c, 7, 57, 100
9, 12336, Note_on_c, 7, 62, 100
9, 12384, Note_on_c, 7, 62, 0
9, 12384, Note_on_c, 7, 57, 0
9, 12384, Note_on_c, 7, 57, 100
9, 12384, Note_on_c, 7, 59, 100
9, 12432, Note_on_c, 7, 59, 0
9, 12432, Note_on_c, 7, 57, 0
9, 12432, Note_on_c, 7, 50, 63
9, 12432, Note_on_c, 7, 57, 100
9, 12432, Note_on_c, 7, 62, 100
9, 12480, Note_on_c, 7, 62, 0
9, 12480, Note_on_c, 7, 57, 0
9, 12480, Note_on_c, 7, 50, 0
9, 12528, Note_on_c, 7, 62, 75
9, 12528, Note_on_c, 7, 57, 75
9, 12572, Note_on_c, 7, 57, 0
9, 12572, Note_on_c, 7, 62, 0
9, 12576, Note_on_c, 7, 57, 97
9, 12576, Note_on_c, 7, 50, 97
9, 12624, Note_on_c, 7, 50, 0
9, 12624, Note_on_c, 7, 57, 0
9, 12624, Note_on_c, 7, 50, 65
9, 12672, Note_on_c, 7, 50, 0
9, 12672, Note_on_c, 7, 57, 100
9, 12672, Note_on_c, 7, 50, 100
9, 12720, Note_on_c, 7, 50, 0
9, 12720, Note_on_c, 7, 57, 0
9, 12720, Note_on_c, 7, 50, 74
9, 12768, Note_on_c, 7, 50, 0
9, 12768, Note_on_c, 7, 59, 100
9, 12768, Note_on_c, 7, 50, 100
9, 12816, Note_on_c, 7, 50, 0
9, 12816, Note_on_c, 7, 59, 0
9, 12816, Note_on_c, 7, 50, 75
9, 12864, Note_on_c, 7, 50, 0
9, 12864, Note_on_c, 7, 57, 100
9, 12864, Note_on_c, 7, 50, 100
9, 12912, Note_on_c, 7, 50, 0
9, 12912, Note_on_c, 7, 57, 0
9, 12912, Note_on_c, 7, 50, 77
9, 12960, Note_on_c, 7, 50, 0
9, 12960, Note_on_c, 7, 59, 100
9, 12960, Note_on_c, 7, 50, 100
9, 13008, Note_on_c, 7, 50, 0
9, 13008, Note_on_c, 7, 59, 0
9, 13008, Note_on_c, 7, 50, 100
9, 13008, Note_on_c, 7, 57, 100
9, 13056, Note_on_c, 7, 57, 0
9, 13056, Note_on_c, 7, 50, 0
9, 13104, Note_on_c, 7, 50, 100
9, 13104, Note_on_c, 7, 57, 100
9, 13152, Note_on_c, 7, 57, 0
9, 13152, Note_on_c, 7, 50, 0
9, 13152, Note_on_c, 7, 59, 100
9, 13152, Note_on_c, 7, 50, 100
9, 13200, Note_on_c, 7, 50, 0
9, 13200, Note_on_c, 7, 59, 0
9, 13200, Note_on_c, 7, 50, 74
9, 13248, Note_on_c, 7, 50, 0
9, 13248, Note_on_c, 7, 50, 100
9, 13248, Note_on_c, 7, 57, 100
9, 13296, Note_on_c, 7, 57, 0
9, 13296, Note_on_c, 7, 50, 0
9, 13296, Note_on_c, 7, 50, 78
9, 13344, Note_on_c, 7, 50, 0
9, 13344, Note_on_c, 7, 59, 99
9, 13344, Note_on_c, 7, 50, 99
9, 13392, Note_on_c, 7, 50, 0
9, 13392, Note_on_c, 7, 59, 0
9, 13488, Note_on_c, 7, 50, 100
9, 13488, Note_on_c, 7, 55, 100
9, 13536, Note_on_c, 7, 55, 0
9, 13536, Note_on_c, 7, 50, 0
9, 13536, Note_on_c, 7, 55, 100
9, 13536, Note_on_c, 7, 52, 100
9, 13584, Note_on_c, 7, 52, 0
9, 13584, Note_on_c, 7, 55, 0
9, 13632, Note_on_c, 7, 50, 100
9, 13632, Note_on_c, 7, 55, 100
9, 13680, Note_on_c, 7, 55, 0
9, 13680, Note_on_c, 7, 50, 0
9, 13728, Note_on_c, 7, 52, 100
9, 13728, Note_on_c, 7, 55, 100
9, 13776, Note_on_c, 7, 55, 0
9, 13776, Note_on_c, 7, 52, 0
9, 13776, Note_on_c, 7, 43, 100
9, 13776, Note_on_c, 7, 50, 100
9, 13824, Note_on_c, 7, 50, 0
9, 13824, Note_on_c, 7, 43, 0
9, 13872, Note_on_c, 7, 55, 100
9, 13872, Note_on_c, 7, 50, 100
9, 13920, Note_on_c, 7, 50, 0
9, 13920, Note_on_c, 7, 55, 0
9, 13920, Note_on_c, 7, 52, 100
9, 13920, Note_on_c, 7, 55, 100
9, 13968, Note_on_c, 7, 55, 0
9, 13968, Note_on_c, 7, 52, 0
9, 13968, Note_on_c, 7, 43, 77
9, 14016, Note_on_c, 7, 43, 0
9, 14016, Note_on_c, 7, 50, 100
9, 14016, Note_on_c, 7, 55, 100
9, 14064, Note_on_c, 7, 55, 0
9, 14064, Note_on_c, 7, 50, 0
9, 14064, Note_on_c, 7, 43, 78
9, 14112, Note_on_c, 7, 43, 0
9, 14112, Note_on_c, 7, 52, 100
9, 14112, Note_on_c, 7, 55, 100
9, 14160, Note_on_c, 7, 55, 0
9, 14160, Note_on_c, 7, 52, 0
9, 14208, Note_on_c, 7, 57, 100
9, 14208, Note_on_c, 7, 50, 100
9, 14256, Note_on_c, 7, 50, 0
9, 14256, Note_on_c, 7, 57, 0
9, 14256, Note_on_c, 7, 50, 82
9, 14304, Note_on_c, 7, 50, 0
9, 14304, Note_on_c, 7, 62, 100
9, 14304, Note_on_c, 7, 59, 100
9, 14352, Note_on_c, 7, 59, 0
9, 14352, Note_on_c, 7, 62, 0
9, 14352, Note_on_c, 7, 50, 82
9, 14400, Note_on_c, 7, 50, 0
9, 14400, Note_on_c, 7, 50, 100
9, 14400, Note_on_c, 7, 57, 100
9, 14448, Note_on_c, 7, 57, 0
9, 14448, Note_on_c, 7, 50, 0
9, 14448, Note_on_c, 7, 50, 82
9, 14496, Note_on_c, 7, 50, 0
9, 14496, Note_on_c, 7, 59, 100
9, 14496, Note_on_c, 7, 62, 100
9, 14544, Note_on_c, 7, 62, 0
9, 14544, Note_on_c, 7, 59, 0
9, 14544, Note_on_c, 7, 52, 64
9, 14544, Note_on_c, 7, 45, 100
9, 14592, Note_on_c, 7, 45, 0
9, 14592, Note_on_c, 7, 52, 0
9, 14640, Note_on_c, 7, 57, 100
9, 14640, Note_on_c, 7, 52, 100
9, 14688, Note_on_c, 7, 52, 0
9, 14688, Note_on_c, 7, 57, 0
9, 14688, Note_on_c, 7, 54, 100
9, 14688, Note_on_c, 7, 57, 100
9, 14736, Note_on_c, 7, 57, 0
9, 14736, Note_on_c, 7, 54, 0
9, 14736, Note_on_c, 7, 45, 68
9, 14784, Note_on_c, 7, 45, 0
9, 14784, Note_on_c, 7, 52, 100
9, 14784, Note_on_c, 7, 57, 100
9, 14832, Note_on_c, 7, 57, 0
9, 14832, Note_on_c, 7, 52, 0
9, 14832, Note_on_c, 7, 45, 72
9, 14880, Note_on_c, 7, 45, 0
9, 14880, Note_on_c, 7, 54, 100
9, 14880, Note_on_c, 7, 57, 100
9, 14928, Note_on_c, 7, 57, 0
9, 14928, Note_on_c, 7, 54, 0
9, 14928, Note_on_c, 7, 57, 100
9, 14928, Note_on_c, 7, 50, 100
9, 14976, Note_on_c, 7, 50, 0
9, 14976, Note_on_c, 7, 57, 0
9, 15024, Note_on_c, 7, 57, 100
9, 15024, Note_on_c, 7, 62, 100
9, 15072, Note_on_c, 7, 62, 0
9, 15072, Note_on_c, 7, 57, 0
9, 15072, Note_on_c, 7, 57, 100
9, 15072, Note_on_c, 7, 59, 100
9, 15120, Note_on_c, 7, 59, 0
9, 15120, Note_on_c, 7, 57, 0
9, 15120, Note_on_c, 7, 50, 73
9, 15168, Note_on_c, 7, 50, 0
9, 15168, Note_on_c, 7, 62, 100
9, 15168, Note_on_c, 7, 57, 100
9, 15216, Note_on_c, 7, 57, 0
9, 15216, Note_on_c, 7, 62, 0
9, 15216, Note_on_c, 7, 50, 73
9, 15264, Note_on_c, 7, 50, 0
9, 15264, Note_on_c, 7, 59, 100
9, 15264, Note_on_c, 7, 57, 100
9, 15312, Note_on_c, 7, 57, 0
9, 15312, Note_on_c, 7, 59, 0
9, 15312, Note_on_c, 7, 50, 73
9, 15360, Note_on_c, 7, 50, 0
9, 15360, Note_on_c, 7, 57, 100
9, 15360, Note_on_c, 7, 62, 100
9, 15408, Note_on_c, 7, 62, 0
9, 15408, Note_on_c, 7, 57, 0
9, 15408, Note_on_c, 7, 57, 100
9, 15408, Note_on_c, 7, 62, 100
9, 15456, Note_on_c, 7, 62, 0
9, 15456, Note_on_c, 7, 57, 0
9, 15456, Note_on_c, 7, 57, 100
9, 15456, Note_on_c, 7, 59, 100
9, 15504, Note_on_c, 7, 59, 0
9, 15504, Note_on_c, 7, 57, 0
9, 15504, Note_on_c, 7, 50, 63
9, 15504, Note_on_c, 7, 57, 100
9, 15504, Note_on_c, 7, 62, 100
9, 15552, Note_on_c, 7, 50, 0
9, 15600, Note_on_c, 7, 62, 0
9, 15600, Note_on_c, 7, 57, 0
9, 15600, Note_on_c, 7, 50, 65
9, 15648, Note_on_c, 7, 50, 0
9, 15648, Note_on_c, 7, 59, 65
9, 15648, Note_on_c, 7, 57, 65
9, 15696, Note_on_c, 7, 57, 0
9, 15696, Note_on_c, 7, 59, 0
9, 15696, Note_on_c, 7, 62, 100
9, 15696, Note_on_c, 7, 57, 100
9, 15744, Note_on_c, 7, 57, 0
9, 15744, Note_on_c, 7, 62, 0
9, 15744, Note_on_c, 7, 50, 100
9, 15744, Note_on_c, 7, 57, 100
9, 15792, Note_on_c, 7, 57, 0
9, 15792, Note_on_c, 7, 50, 0
9, 15792, Note_on_c, 7, 50, 74
9, 15840, Note_on_c, 7, 50, 0
9, 15840, Note_on_c, 7, 59, 100
9, 15840, Note_on_c, 7, 50, 100
9, 15888, Note_on_c, 7, 50, 0
9, 15888, Note_on_c, 7, 59, 0
9, 15888, Note_on_c, 7, 50, 53
9, 15936, Note_on_c, 7, 50, 0
9, 15936, Note_on_c, 7, 57, 100
9, 15936, Note_on_c, 7, 50, 100
9, 15984, Note_on_c, 7, 50, 0
9, 15984, Note_on_c, 7, 57, 0
9, 15984, Note_on_c, 7, 50, 53
9, 16032, Note_on_c, 7, 50, 0
9, 16032, Note_on_c, 7, 59, 100
9, 16032, Note_on_c, 7, 50, 100
9, 16080, Note_on_c, 7, 50, 0
9, 16080, Note_on_c, 7, 59, 0
9, 16080, Note_on_c, 7, 50, 52
9, 16128, Note_on_c, 7, 50, 0
9, 16128, Note_on_c, 7, 50, 100
9, 16128, Note_on_c, 7, 57, 100
9, 16176, Note_on_c, 7, 57, 0
9, 16176, Note_on_c, 7, 50, 0
9, 16176, Note_on_c, 7, 50, 55
9, 16224, Note_on_c, 7, 50, 0
9, 16224, Note_on_c, 7, 59, 100
9, 16224, Note_on_c, 7, 50, 100
9, 16272, Note_on_c, 7, 50, 0
9, 16272, Note_on_c, 7, 59, 0
9, 16272, Note_on_c, 7, 50, 54
9, 16320, Note_on_c, 7, 50, 0
9, 16320, Note_on_c, 7, 50, 100
9, 16320, Note_on_c, 7, 57, 100
9, 16368, Note_on_c, 7, 57, 0
9, 16368, Note_on_c, 7, 50, 0
9, 16368, Note_on_c, 7, 50, 54
9, 16416, Note_on_c, 7, 50, 0
9, 16416, Note_on_c, 7, 59, 99
9, 16416, Note_on_c, 7, 50, 99
9, 16464, Note_on_c, 7, 50, 0
9, 16464, Note_on_c, 7, 59, 0
9, 16464, Note_on_c, 7, 43, 100
9, 16464, Note_on_c, 7, 50, 100
9, 16542, Note_on_c, 7, 50, 0
9, 16544, Note_on_c, 7, 43, 0
9, 16560, Note_on_c, 7, 43, 53
9, 16608, Note_on_c, 7, 43, 0
9, 16608, Note_on_c, 7, 52, 100
9, 16608, Note_on_c, 7, 43, 100
9, 16656, Note_on_c, 7, 43, 0
9, 16656, Note_on_c, 7, 52, 0
9, 16656, Note_on_c, 7, 43, 52
9, 16704, Note_on_c, 7, 43, 0
9, 16704, Note_on_c, 7, 43, 100
9, 16704, Note_on_c, 7, 50, 100
9, 16752, Note_on_c, 7, 50, 0
9, 16752, Note_on_c, 7, 43, 0
9, 16752, Note_on_c, 7, 43, 54
9, 16800, Note_on_c, 7, 43, 0
9, 16800, Note_on_c, 7, 43, 100
9, 16800, Note_on_c, 7, 52, 100
9, 16848, Note_on_c, 7, 52, 0
9, 16848, Note_on_c, 7, 43, 0
9, 16848, Note_on_c, 7, 43, 100
9, 16848, Note_on_c, 7, 50, 100
9, 16896, Note_on_c, 7, 50, 0
9, 16896, Note_on_c, 7, 43, 0
9, 16944, Note_on_c, 7, 50, 100
9, 16944, Note_on_c, 7, 43, 100
9, 16992, Note_on_c, 7, 43, 0
9, 16992, Note_on_c, 7, 50, 0
9, 16992, Note_on_c, 7, 43, 100
9, 16992, Note_on_c, 7, 52, 100
9, 17040, Note_on_c, 7, 52, 0
9, 17040, Note_on_c, 7, 43, 0
9, 17040, Note_on_c, 7, 43, 49
9, 17088, Note_on_c, 7, 43, 0
9, 17088, Note_on_c, 7, 43, 100
9, 17088, Note_on_c, 7, 50, 100
9, 17136, Note_on_c, 7, 50, 0
9, 17136, Note_on_c, 7, 43, 0
9, 17136, Note_on_c, 7, 43, 51
9, 17184, Note_on_c, 7, 43, 0
9, 17184, Note_on_c, 7, 43, 100
9, 17184, Note_on_c, 7, 52, 100
9, 17232, Note_on_c, 7, 52, 0
9, 17232, Note_on_c, 7, 43, 0
9, 17232, Note_on_c, 7, 57, 100
9, 17232, Note_on_c, 7, 50, 100
9, 17304, Note_on_c, 7, 57, 0
9, 17306, Note_on_c, 7, 50, 0
9, 17328, Note_on_c, 7, 50, 52
9, 17376, Note_on_c, 7, 50, 0
9, 17376, Note_on_c, 7, 59, 100
9, 17376, Note_on_c, 7, 50, 100
9, 17424, Note_on_c, 7, 50, 0
9, 17424, Note_on_c, 7, 59, 0
9, 17424, Note_on_c, 7, 50, 53
9, 17472, Note_on_c, 7, 50, 0
9, 17472, Note_on_c, 7, 57, 100
9, 17472, Note_on_c, 7, 50, 100
9, 17520, Note_on_c, 7, 50, 0
9, 17520, Note_on_c, 7, 57, 0
9, 17520, Note_on_c, 7, 50, 53
9, 17568, Note_on_c, 7, 50, 0
9, 17568, Note_on_c, 7, 59, 100
9, 17568, Note_on_c, 7, 50, 100
9, 17616, Note_on_c, 7, 50, 0
9, 17616, Note_on_c, 7, 59, 0
9, 17616, Note_on_c, 7, 50, 95
9, 17616, Note_on_c, 7, 45, 95
9, 17664, Note_on_c, 7, 45, 0
9, 17664, Note_on_c, 7, 50, 0
9, 17664, Note_on_c, 7, 45, 95
9, 17664, Note_on_c, 7, 52, 95
9, 17712, Note_on_c, 7, 52, 0
9, 17712, Note_on_c, 7, 45, 0
9, 17712, Note_on_c, 7, 57, 100
9, 17712, Note_on_c, 7, 52, 100
9, 17760, Note_on_c, 7, 52, 0
9, 17760, Note_on_c, 7, 57, 0
9, 17760, Note_on_c, 7, 54, 100
9, 17760, Note_on_c, 7, 57, 100
9, 17808, Note_on_c, 7, 57, 0
9, 17808, Note_on_c, 7, 54, 0
9, 17808, Note_on_c, 7, 45, 68
9, 17856, Note_on_c, 7, 45, 0
9, 17856, Note_on_c, 7, 52, 100
9, 17856, Note_on_c, 7, 57, 100
9, 17904, Note_on_c, 7, 57, 0
9, 17904, Note_on_c, 7, 52, 0
9, 17904, Note_on_c, 7, 45, 72
9, 17952, Note_on_c, 7, 45, 0
9, 17952, Note_on_c, 7, 54, 100
9, 17952, Note_on_c, 7, 57, 100
9, 18000, Note_on_c, 7, 57, 0
9, 18000, Note_on_c, 7, 54, 0
9, 18000, Note_on_c, 7, 57, 100
9, 18000, Note_on_c, 7, 50, 100
9, 18048, Note_on_c, 7, 50, 0
9, 18048, Note_on_c, 7, 57, 0
9, 18096, Note_on_c, 7, 57, 100
9, 18096, Note_on_c, 7, 62, 100
9, 18144, Note_on_c, 7, 62, 0
9, 18144, Note_on_c, 7, 57, 0
9, 18144, Note_on_c, 7, 57, 100
9, 18144, Note_on_c, 7, 59, 100
9, 18192, Note_on_c, 7, 59, 0
9, 18192, Note_on_c, 7, 57, 0
9, 18192, Note_on_c, 7, 50, 73
9, 18240, Note_on_c, 7, 50, 0
9, 18240, Note_on_c, 7, 62, 100
9, 18240, Note_on_c, 7, 57, 100
9, 18288, Note_on_c, 7, 57, 0
9, 18288, Note_on_c, 7, 62, 0
9, 18288, Note_on_c, 7, 50, 73
9, 18336, Note_on_c, 7, 50, 0
9, 18336, Note_on_c, 7, 59, 100
9, 18336, Note_on_c, 7, 57, 100
9, 18384, Note_on_c, 7, 57, 0
9, 18384, Note_on_c, 7, 59, 0
9, 18384, Note_on_c, 7, 50, 73
9, 18432, Note_on_c, 7, 50, 0
9, 18432, Note_on_c, 7, 57, 100
9, 18432, Note_on_c, 7, 62, 100
9, 18480, Note_on_c, 7, 62, 0
9, 18480, Note_on_c, 7, 57, 0
9, 18480, Note_on_c, 7, 50, 73
9, 18528, Note_on_c, 7, 50, 0
9, 18528, Note_on_c, 7, 57, 100
9, 18528, Note_on_c, 7, 59, 100
9, 18576, Note_on_c, 7, 59, 0
9, 18576, Note_on_c, 7, 57, 0
9, 18576, Note_on_c, 7, 50, 63
9, 18624, Note_on_c, 7, 50, 0
9, 18624, Note_on_c, 7, 57, 100
9, 18625, Note_on_c, 7, 62, 100
9, 18672, Note_on_c, 7, 57, 0
9, 18672, Note_on_c, 7, 50, 65
9, 18673, Note_on_c, 7, 62, 0
9, 18720, Note_on_c, 7, 50, 0
9, 18720, Note_on_c, 7, 57, 98
9, 18720, Note_on_c, 7, 59, 102
9, 18768, Note_on_c, 7, 59, 0
9, 18768, Note_on_c, 7, 57, 0
9, 18768, Note_on_c, 7, 50, 71
9, 18816, Note_on_c, 7, 50, 0
9, 18816, Note_on_c, 7, 57, 100
9, 18816, Note_on_c, 7, 62, 100
9, 18864, Note_on_c, 7, 62, 0
9, 18864, Note_on_c, 7, 57, 0
9, 18864, Note_on_c, 7, 50, 74
9, 18912, Note_on_c, 7, 50, 0
9, 18912, Note_on_c, 7, 59, 100
9, 18912, Note_on_c, 7, 62, 100
9, 18960, Note_on_c, 7, 62, 0
9, 18960, Note_on_c, 7, 59, 0
9, 18960, Note_on_c, 7, 50, 75
9, 19008, Note_on_c, 7, 50, 0
9, 19008, Note_on_c, 7, 57, 100
9, 19008, Note_on_c, 7, 62, 100
9, 19056, Note_on_c, 7, 62, 0
9, 19056, Note_on_c, 7, 57, 0
9, 19056, Note_on_c, 7, 50, 77
9, 19104, Note_on_c, 7, 50, 0
9, 19104, Note_on_c, 7, 59, 100
9, 19104, Note_on_c, 7, 62, 100
9, 19152, Note_on_c, 7, 62, 0
9, 19152, Note_on_c, 7, 59, 0
9, 19152, Note_on_c, 7, 50, 100
9, 19152, Note_on_c, 7, 57, 100
9, 19200, Note_on_c, 7, 57, 0
9, 19200, Note_on_c, 7, 50, 0
9, 19248, Note_on_c, 7, 50, 100
9, 19248, Note_on_c, 7, 57, 100
9, 19296, Note_on_c, 7, 57, 0
9, 19296, Note_on_c, 7, 50, 0
9, 19296, Note_on_c, 7, 59, 100
9, 19296, Note_on_c, 7, 62, 100
9, 19344, Note_on_c, 7, 62, 0
9, 19344, Note_on_c, 7, 59, 0
9, 19344, Note_on_c, 7, 50, 74
9, 19392, Note_on_c, 7, 50, 0
9, 19392, Note_on_c, 7, 62, 100
9, 19392, Note_on_c, 7, 57, 100
9, 19440, Note_on_c, 7, 57, 0
9, 19440, Note_on_c, 7, 62, 0
9, 19440, Note_on_c, 7, 50, 78
9, 19488, Note_on_c, 7, 50, 0
9, 19488, Note_on_c, 7, 59, 99
9, 19488, Note_on_c, 7, 62, 99
9, 19536, Note_on_c, 7, 62, 0
9, 19536, Note_on_c, 7, 59, 0
9, 19632, Note_on_c, 7, 50, 100
9, 19632, Note_on_c, 7, 55, 100
9, 19680, Note_on_c, 7, 55, 0
9, 19680, Note_on_c, 7, 50, 0
9, 19680, Note_on_c, 7, 55, 100
9, 19680, Note_on_c, 7, 52, 100
9, 19728, Note_on_c, 7, 52, 0
9, 19728, Note_on_c, 7, 55, 0
9, 19776, Note_on_c, 7, 50, 100
9, 19776, Note_on_c, 7, 55, 100
9, 19824, Note_on_c, 7, 55, 0
9, 19824, Note_on_c, 7, 50, 0
9, 19872, Note_on_c, 7, 52, 100
9, 19872, Note_on_c, 7, 55, 100
9, 19920, Note_on_c, 7, 55, 0
9, 19920, Note_on_c, 7, 52, 0
9, 19920, Note_on_c, 7, 43, 100
9, 19920, Note_on_c, 7, 50, 100
9, 19968, Note_on_c, 7, 50, 0
9, 19968, Note_on_c, 7, 43, 0
9, 20016, Note_on_c, 7, 55, 100
9, 20016, Note_on_c, 7, 50, 100
9, 20064, Note_on_c, 7, 50, 0
9, 20064, Note_on_c, 7, 55, 0
9, 20064, Note_on_c, 7, 52, 100
9, 20064, Note_on_c, 7, 55, 100
9, 20112, Note_on_c, 7, 55, 0
9, 20112, Note_on_c, 7, 52, 0
9, 20112, Note_on_c, 7, 43, 77
9, 20160, Note_on_c, 7, 43, 0
9, 20160, Note_on_c, 7, 50, 100
9, 20160, Note_on_c, 7, 55, 100
9, 20208, Note_on_c, 7, 55, 0
9, 20208, Note_on_c, 7, 50, 0
9, 20208, Note_on_c, 7, 43, 78
9, 20256, Note_on_c, 7, 43, 0
9, 20256, Note_on_c, 7, 52, 100
9, 20256, Note_on_c, 7, 55, 100
9, 20304, Note_on_c, 7, 55, 0
9, 20304, Note_on_c, 7, 52, 0
9, 20352, Note_on_c, 7, 57, 100
9, 20352, Note_on_c, 7, 50, 100
9, 20400, Note_on_c, 7, 50, 0
9, 20400, Note_on_c, 7, 57, 0
9, 20400, Note_on_c, 7, 50, 82
9, 20448, Note_on_c, 7, 50, 0
9, 20448, Note_on_c, 7, 62, 100
9, 20448, Note_on_c, 7, 59, 100
9, 20496, Note_on_c, 7, 59, 0
9, 20496, Note_on_c, 7, 62, 0
9, 20496, Note_on_c, 7, 50, 82
9, 20544, Note_on_c, 7, 50, 0
9, 20544, Note_on_c, 7, 50, 100
9, 20544, Note_on_c, 7, 57, 100
9, 20592, Note_on_c, 7, 57, 0
9, 20592, Note_on_c, 7, 50, 0
9, 20592, Note_on_c, 7, 50, 82
9, 20640, Note_on_c, 7, 50, 0
9, 20640, Note_on_c, 7, 59, 100
9, 20640, Note_on_c, 7, 62, 100
9, 20688, Note_on_c, 7, 62, 0
9, 20688, Note_on_c, 7, 59, 0
9, 20688, Note_on_c, 7, 52, 64
9, 20688, Note_on_c, 7, 45, 100
9, 20736, Note_on_c, 7, 45, 0
9, 20736, Note_on_c, 7, 52, 0
9, 20784, Note_on_c, 7, 57, 100
9, 20784, Note_on_c, 7, 52, 100
9, 20832, Note_on_c, 7, 52, 0
9, 20832, Note_on_c, 7, 57, 0
9, 20832, Note_on_c, 7, 54, 100
9, 20832, Note_on_c, 7, 57, 100
9, 20880, Note_on_c, 7, 57, 0
9, 20880, Note_on_c, 7, 54, 0
9, 20880, Note_on_c, 7, 45, 68
9, 20928, Note_on_c, 7, 45, 0
9, 20928, Note_on_c, 7, 52, 100
9, 20928, Note_on_c, 7, 57, 100
9, 20976, Note_on_c, 7, 57, 0
9, 20976, Note_on_c, 7, 52, 0
9, 20976, Note_on_c, 7, 45, 72
9, 21024, Note_on_c, 7, 45, 0
9, 21024, Note_on_c, 7, 54, 100
9, 21024, Note_on_c, 7, 57, 100
9, 21072, Note_on_c, 7, 57, 0
9, 21072, Note_on_c, 7, 54, 0
9, 21072, Note_on_c, 7, 57, 100
9, 21072, Note_on_c, 7, 50, 100
9, 21120, Note_on_c, 7, 50, 0
9, 21120, Note_on_c, 7, 57, 0
9, 21168, Note_on_c, 7, 57, 100
9, 21168, Note_on_c, 7, 62, 100
9, 21216, Note_on_c, 7, 62, 0
9, 21216, Note_on_c, 7, 57, 0
9, 21216, Note_on_c, 7, 57, 100
9, 21216, Note_on_c, 7, 59, 100
9, 21264, Note_on_c, 7, 59, 0
9, 21264, Note_on_c, 7, 57, 0
9, 21264, Note_on_c, 7, 50, 73
9, 21312, Note_on_c, 7, 50, 0
9, 21312, Note_on_c, 7, 62, 100
9, 21312, Note_on_c, 7, 57, 100
9, 21360, Note_on_c, 7, 57, 0
9, 21360, Note_on_c, 7, 62, 0
9, 21360, Note_on_c, 7, 50, 73
9, 21408, Note_on_c, 7, 50, 0
9, 21408, Note_on_c, 7, 59, 100
9, 21408, Note_on_c, 7, 57, 100
9, 21456, Note_on_c, 7, 57, 0
9, 21456, Note_on_c, 7, 59, 0
9, 21456, Note_on_c, 7, 50, 73
9, 21504, Note_on_c, 7, 50, 0
9, 21504, Note_on_c, 7, 57, 100
9, 21504, Note_on_c, 7, 62, 100
9, 21552, Note_on_c, 7, 62, 0
9, 21552, Note_on_c, 7, 57, 0
9, 21552, Note_on_c, 7, 57, 100
9, 21552, Note_on_c, 7, 62, 100
9, 21600, Note_on_c, 7, 62, 0
9, 21600, Note_on_c, 7, 57, 0
9, 21600, Note_on_c, 7, 57, 100
9, 21600, Note_on_c, 7, 59, 100
9, 21648, Note_on_c, 7, 59, 0
9, 21648, Note_on_c, 7, 57, 0
9, 21648, Note_on_c, 7, 50, 63
9, 21648, Note_on_c, 7, 57, 100
9, 21648, Note_on_c, 7, 62, 100
9, 21696, Note_on_c, 7, 62, 0
9, 21696, Note_on_c, 7, 57, 0
9, 21696, Note_on_c, 7, 50, 0
9, 21744, Note_on_c, 7, 57, 100
9, 21744, Note_on_c, 7, 62, 100
9, 21792, Note_on_c, 7, 62, 0
9, 21792, Note_on_c, 7, 57, 0
9, 21792, Note_on_c, 7, 50, 97
9, 21792, Note_on_c, 7, 57, 97
9, 21840, Note_on_c, 7, 57, 0
9, 21840, Note_on_c, 7, 50, 0
9, 21840, Note_on_c, 7, 50, 66
9, 21888, Note_on_c, 7, 50, 0
9, 21888, Note_on_c, 7, 57, 100
9, 21888, Note_on_c, 7, 50, 100
9, 21936, Note_on_c, 7, 50, 0
9, 21936, Note_on_c, 7, 57, 0
9, 21936, Note_on_c, 7, 50, 74
9, 21984, Note_on_c, 7, 50, 0
9, 21984, Note_on_c, 7, 59, 100
9, 21984, Note_on_c, 7, 50, 100
9, 22032, Note_on_c, 7, 50, 0
9, 22032, Note_on_c, 7, 59, 0
9, 22032, Note_on_c, 7, 50, 75
9, 22080, Note_on_c, 7, 50, 0
9, 22080, Note_on_c, 7, 57, 100
9, 22080, Note_on_c, 7, 50, 100
9, 22128, Note_on_c, 7, 50, 0
9, 22128, Note_on_c, 7, 57, 0
9, 22128, Note_on_c, 7, 50, 77
9, 22176, Note_on_c, 7, 50, 0
9, 22176, Note_on_c, 7, 59, 100
9, 22176, Note_on_c, 7, 50, 100
9, 22224, Note_on_c, 7, 50, 0
9, 22224, Note_on_c, 7, 59, 0
9, 22224, Note_on_c, 7, 50, 100
9, 22224, Note_on_c, 7, 57, 100
9, 22272, Note_on_c, 7, 57, 0
9, 22272, Note_on_c, 7, 50, 0
9, 22320, Note_on_c, 7, 50, 100
9, 22320, Note_on_c, 7, 57, 100
9, 22368, Note_on_c, 7, 57, 0
9, 22368, Note_on_c, 7, 50, 0
9, 22368, Note_on_c, 7, 59, 100
9, 22368, Note_on_c, 7, 50, 100
9, 22416, Note_on_c, 7, 50, 0
9, 22416, Note_on_c, 7, 59, 0
9, 22416, Note_on_c, 7, 50, 74
9, 22464, Note_on_c, 7, 50, 0
9, 22464, Note_on_c, 7, 50, 100
9, 22464, Note_on_c, 7, 57, 100
9, 22512, Note_on_c, 7, 57, 0
9, 22512, Note_on_c, 7, 50, 0
9, 22512, Note_on_c, 7, 50, 78
9, 22560, Note_on_c, 7, 50, 0
9, 22560, Note_on_c, 7, 59, 99
9, 22560, Note_on_c, 7, 50, 99
9, 22608, Note_on_c, 7, 50, 0
9, 22608, Note_on_c, 7, 59, 0
9, 22704, Note_on_c, 7, 50, 100
9, 22704, Note_on_c, 7, 55, 100
9, 22752, Note_on_c, 7, 55, 0
9, 22752, Note_on_c, 7, 50, 0
9, 22752, Note_on_c, 7, 55, 100
9, 22752, Note_on_c, 7, 52, 100
9, 22800, Note_on_c, 7, 52, 0
9, 22800, Note_on_c, 7, 55, 0
9, 22848, Note_on_c, 7, 50, 100
9, 22848, Note_on_c, 7, 55, 100
9, 22896, Note_on_c, 7, 55, 0
9, 22896, Note_on_c, 7, 50, 0
9, 22944, Note_on_c, 7, 52, 100
9, 22944, Note_on_c, 7, 55, 100
9, 22992, Note_on_c, 7, 55, 0
9, 22992, Note_on_c, 7, 52, 0
9, 22992, Note_on_c, 7, 43, 100
9, 22992, Note_on_c, 7, 50, 100
9, 23040, Note_on_c, 7, 50, 0
9, 23040, Note_on_c, 7, 43, 0
9, 23088, Note_on_c, 7, 55, 100
9, 23088, Note_on_c, 7, 50, 100
9, 23136, Note_on_c, 7, 50, 0
9, 23136, Note_on_c, 7, 55, 0
9, 23136, Note_on_c, 7, 52, 100
9, 23136, Note_on_c, 7, 55, 100
9, 23184, Note_on_c, 7, 55, 0
9, 23184, Note_on_c, 7, 52, 0
9, 23184, Note_on_c, 7, 43, 77
9, 23232, Note_on_c, 7, 43, 0
9, 23232, Note_on_c, 7, 50, 100
9, 23232, Note_on_c, 7, 55, 100
9, 23280, Note_on_c, 7, 55, 0
9, 23280, Note_on_c, 7, 50, 0
9, 23280, Note_on_c, 7, 43, 78
9, 23328, Note_on_c, 7, 43, 0
9, 23328, Note_on_c, 7, 52, 100
9, 23328, Note_on_c, 7, 55, 100
9, 23376, Note_on_c, 7, 55, 0
9, 23376, Note_on_c, 7, 52, 0
9, 23424, Note_on_c, 7, 57, 100
9, 23424, Note_on_c, 7, 50, 100
9, 23472, Note_on_c, 7, 50, 0
9, 23472, Note_on_c, 7, 57, 0
9, 23472, Note_on_c, 7, 50, 82
9, 23520, Note_on_c, 7, 50, 0
9, 23520, Note_on_c, 7, 62, 100
9, 23520, Note_on_c, 7, 59, 100
9, 23568, Note_on_c, 7, 59, 0
9, 23568, Note_on_c, 7, 62, 0
9, 23568, Note_on_c, 7, 50, 82
9, 23616, Note_on_c, 7, 50, 0
9, 23616, Note_on_c, 7, 50, 100
9, 23616, Note_on_c, 7, 57, 100
9, 23664, Note_on_c, 7, 57, 0
9, 23664, Note_on_c, 7, 50, 0
9, 23664, Note_on_c, 7, 50, 82
9, 23712, Note_on_c, 7, 50, 0
9, 23712, Note_on_c, 7, 59, 100
9, 23712, Note_on_c, 7, 62, 100
9, 23760, Note_on_c, 7, 62, 0
9, 23760, Note_on_c, 7, 59, 0
9, 23760, Note_on_c, 7, 52, 64
9, 23760, Note_on_c, 7, 45, 100
9, 23808, Note_on_c, 7, 45, 0
9, 23808, Note_on_c, 7, 52, 0
9, 23856, Note_on_c, 7, 57, 100
9, 23856, Note_on_c, 7, 52, 100
9, 23904, Note_on_c, 7, 52, 0
9, 23904, Note_on_c, 7, 57, 0
9, 23904, Note_on_c, 7, 54, 100
9, 23904, Note_on_c, 7, 57, 100
9, 23952, Note_on_c, 7, 57, 0
9, 23952, Note_on_c, 7, 54, 0
9, 23952, Note_on_c, 7, 45, 68
9, 24000, Note_on_c, 7, 45, 0
9, 24000, Note_on_c, 7, 52, 100
9, 24000, Note_on_c, 7, 57, 100
9, 24048, Note_on_c, 7, 57, 0
9, 24048, Note_on_c, 7, 52, 0
9, 24048, Note_on_c, 7, 45, 72
9, 24096, Note_on_c, 7, 45, 0
9, 24096, Note_on_c, 7, 54, 100
9, 24096, Note_on_c, 7, 57, 100
9, 24144, Note_on_c, 7, 57, 0
9, 24144, Note_on_c, 7, 54, 0
9, 24144, Note_on_c, 7, 57, 100
9, 24144, Note_on_c, 7, 50, 100
9, 24192, Note_on_c, 7, 50, 0
9, 24192, Note_on_c, 7, 57, 0
9, 24240, Note_on_c, 7, 57, 100
9, 24240, Note_on_c, 7, 62, 100
9, 24288, Note_on_c, 7, 62, 0
9, 24288, Note_on_c, 7, 57, 0
9, 24288, Note_on_c, 7, 57, 100
9, 24288, Note_on_c, 7, 59, 100
9, 24336, Note_on_c, 7, 59, 0
9, 24336, Note_on_c, 7, 57, 0
9, 24336, Note_on_c, 7, 50, 73
9, 24384, Note_on_c, 7, 50, 0
9, 24384, Note_on_c, 7, 62, 100
9, 24384, Note_on_c, 7, 57, 100
9, 24432, Note_on_c, 7, 57, 0
9, 24432, Note_on_c, 7, 62, 0
9, 24432, Note_on_c, 7, 50, 73
9, 24480, Note_on_c, 7, 50, 0
9, 24480, Note_on_c, 7, 59, 100
9, 24480, Note_on_c, 7, 57, 100
9, 24528, Note_on_c, 7, 57, 0
9, 24528, Note_on_c, 7, 59, 0
9, 24528, Note_on_c, 7, 50, 73
9, 24576, Note_on_c, 7, 50, 0
9, 24576, Note_on_c, 7, 57, 100
9, 24576, Note_on_c, 7, 62, 100
9, 24624, Note_on_c, 7, 62, 0
9, 24624, Note_on_c, 7, 57, 0
9, 24624, Note_on_c, 7, 57, 100
9, 24624, Note_on_c, 7, 62, 100
9, 24624, Note_on_c, 7, 50, 77
9, 24672, Note_on_c, 7, 50, 0
9, 24672, Note_on_c, 7, 62, 0
9, 24672, Note_on_c, 7, 57, 0
9, 24672, Note_on_c, 7, 50, 100
9, 24672, Note_on_c, 7, 59, 100
9, 24720, Note_on_c, 7, 59, 0
9, 24720, Note_on_c, 7, 50, 0
9, 24720, Note_on_c, 7, 50, 63
9, 24720, Note_on_c, 7, 57, 100
9, 24720, Note_on_c, 7, 62, 100
9, 24768, Note_on_c, 7, 62, 0
9, 24768, Note_on_c, 7, 57, 0
9, 24768, Note_on_c, 7, 50, 0
9, 24816, Note_on_c, 7, 57, 83
9, 24816, Note_on_c, 7, 50, 83
9, 24864, Note_on_c, 7, 50, 0
9, 24864, Note_on_c, 7, 57, 0
9, 24912, Note_on_c, 7, 57, 83
9, 24912, Note_on_c, 7, 50, 83
9, 24960, Note_on_c, 7, 50, 0
9, 24960, Note_on_c, 7, 57, 0
9, 25056, Note_on_c, 7, 45, 100
9, 25056, Note_on_c, 7, 50, 100
9, 25104, Note_on_c, 7, 50, 0
9, 25104, Note_on_c, 7, 45, 0
9, 25248, Note_on_c, 7, 45, 100
9, 25248, Note_on_c, 7, 50, 100
9, 25296, Note_on_c, 7, 50, 0
9, 25296, Note_on_c, 7, 45, 0
9, 25440, Note_on_c, 7, 45, 100
9, 25440, Note_on_c, 7, 50, 100
9, 25488, Note_on_c, 7, 50, 0
9, 25488, Note_on_c, 7, 45, 0
9, 25632, Note_on_c, 7, 45, 99
9, 25632, Note_on_c, 7, 50, 99
9, 25680, Note_on_c, 7, 50, 0
9, 25680, Note_on_c, 7, 45, 0
9, 25824, Note_on_c, 7, 50, 100
9, 25824, Note_on_c, 7, 43, 100
9, 25872, Note_on_c, 7, 43, 0
9, 25872, Note_on_c, 7, 50, 0
9, 26016, Note_on_c, 7, 50, 100
9, 26016, Note_on_c, 7, 43, 100
9, 26064, Note_on_c, 7, 43, 0
9, 26064, Note_on_c, 7, 50, 0
9, 26208, Note_on_c, 7, 50, 100
9, 26208, Note_on_c, 7, 43, 77
9, 26256, Note_on_c, 7, 43, 0
9, 26256, Note_on_c, 7, 50, 0
9, 26400, Note_on_c, 7, 50, 78
9, 26400, Note_on_c, 7, 43, 78
9, 26448, Note_on_c, 7, 43, 0
9, 26448, Note_on_c, 7, 50, 0
9, 26592, Note_on_c, 7, 45, 100
9, 26592, Note_on_c, 7, 50, 100
9, 26640, Note_on_c, 7, 50, 0
9, 26640, Note_on_c, 7, 45, 0
9, 26784, Note_on_c, 7, 50, 100
9, 26784, Note_on_c, 7, 45, 100
9, 26832, Note_on_c, 7, 45, 0
9, 26832, Note_on_c, 7, 50, 0
9, 26976, Note_on_c, 7, 52, 100
9, 26976, Note_on_c, 7, 45, 68
9, 27024, Note_on_c, 7, 45, 0
9, 27024, Note_on_c, 7, 52, 0
9, 27168, Note_on_c, 7, 52, 100
9, 27168, Note_on_c, 7, 45, 72
9, 27216, Note_on_c, 7, 45, 0
9, 27216, Note_on_c, 7, 52, 0
9, 27360, Note_on_c, 7, 45, 100
9, 27360, Note_on_c, 7, 50, 100
9, 27408, Note_on_c, 7, 50, 0
9, 27408, Note_on_c, 7, 45, 0
9, 27552, Note_on_c, 7, 45, 73
9, 27552, Note_on_c, 7, 50, 73
9, 27600, Note_on_c, 7, 50, 0
9, 27600, Note_on_c, 7, 45, 0
9, 27696, Note_on_c, 7, 45, 59
9, 27696, Note_on_c, 7, 50, 59
9, 27744, Note_on_c, 7, 50, 0
9, 27744, Note_on_c, 7, 45, 0
9, 27744, Note_on_c, 7, 50, 66
9, 27744, Note_on_c, 7, 45, 66
9, 27792, Note_on_c, 7, 45, 0
9, 27792, Note_on_c, 7, 50, 0
9, 27792, Note_on_c, 7, 45, 68
9, 27792, Note_on_c, 7, 50, 68
9, 27840, Note_on_c, 7, 50, 0
9, 27840, Note_on_c, 7, 45, 0
9, 27840, Note_on_c, 7, 45, 75
9, 27840, Note_on_c, 7, 50, 75
9, 27888, Note_on_c, 7, 50, 0
9, 27888, Note_on_c, 7, 45, 0
9, 27888, Note_on_c, 7, 45, 93
9, 27888, Note_on_c, 7, 50, 93
9, 27936, Note_on_c, 7, 50, 0
9, 27936, Note_on_c, 7, 45, 0
9, 27936, Note_on_c, 7, 50, 90
9, 27936, Note_on_c, 7, 45, 90
9, 27984, Note_on_c, 7, 45, 0
9, 27984, Note_on_c, 7, 50, 0
9, 27984, Note_on_c, 7, 45, 97
9, 27984, Note_on_c, 7, 50, 97
9, 28032, Note_on_c, 7, 50, 0
9, 28032, Note_on_c, 7, 45, 0
9, 28032, Note_on_c, 7, 57, 100
9, 28032, Note_on_c, 7, 50, 100
9, 28080, Note_on_c, 7, 50, 0
9, 28080, Note_on_c, 7, 57, 0
9, 28080, Note_on_c, 7, 50, 74
9, 28128, Note_on_c, 7, 50, 0
9, 28128, Note_on_c, 7, 59, 100
9, 28128, Note_on_c, 7, 50, 100
9, 28176, Note_on_c, 7, 50, 0
9, 28176, Note_on_c, 7, 59, 0
9, 28176, Note_on_c, 7, 50, 75
9, 28224, Note_on_c, 7, 50, 0
9, 28224, Note_on_c, 7, 57, 100
9, 28224, Note_on_c, 7, 50, 100
9, 28272, Note_on_c, 7, 50, 0
9, 28272, Note_on_c, 7, 57, 0
9, 28272, Note_on_c, 7, 50, 77
9, 28320, Note_on_c, 7, 50, 0
9, 28320, Note_on_c, 7, 59, 100
9, 28320, Note_on_c, 7, 50, 100
9, 28368, Note_on_c, 7, 50, 0
9, 28368, Note_on_c, 7, 59, 0
9, 28368, Note_on_c, 7, 50, 100
9, 28368, Note_on_c, 7, 57, 100
9, 28416, Note_on_c, 7, 57, 0
9, 28416, Note_on_c, 7, 50, 0
9, 28464, Note_on_c, 7, 50, 100
9, 28464, Note_on_c, 7, 57, 100
9, 28512, Note_on_c, 7, 57, 0
9, 28512, Note_on_c, 7, 50, 0
9, 28512, Note_on_c, 7, 59, 100
9, 28512, Note_on_c, 7, 50, 100
9, 28560, Note_on_c, 7, 50, 0
9, 28560, Note_on_c, 7, 59, 0
9, 28560, Note_on_c, 7, 50, 74
9, 28608, Note_on_c, 7, 50, 0
9, 28608, Note_on_c, 7, 50, 100
9, 28608, Note_on_c, 7, 57, 100
9, 28656, Note_on_c, 7, 57, 0
9, 28656, Note_on_c, 7, 50, 0
9, 28656, Note_on_c, 7, 50, 78
9, 28704, Note_on_c, 7, 50, 0
9, 28704, Note_on_c, 7, 59, 99
9, 28704, Note_on_c, 7, 50, 99
9, 28752, Note_on_c, 7, 50, 0
9, 28752, Note_on_c, 7, 59, 0
9, 28848, Note_on_c, 7, 50, 100
9, 28848, Note_on_c, 7, 55, 100
9, 28896, Note_on_c, 7, 55, 0
9, 28896, Note_on_c, 7, 50, 0
9, 28896, Note_on_c, 7, 55, 100
9, 28896, Note_on_c, 7, 52, 100
9, 28944, Note_on_c, 7, 52, 0
9, 28944, Note_on_c, 7, 55, 0
9, 28992, Note_on_c, 7, 50, 100
9, 28992, Note_on_c, 7, 55, 100
9, 29040, Note_on_c, 7, 55, 0
9, 29040, Note_on_c, 7, 50, 0
9, 29088, Note_on_c, 7, 52, 100
9, 29088, Note_on_c, 7, 55, 100
9, 29136, Note_on_c, 7, 55, 0
9, 29136, Note_on_c, 7, 52, 0
9, 29136, Note_on_c, 7, 43, 100
9, 29136, Note_on_c, 7, 50, 100
9, 29184, Note_on_c, 7, 50, 0
9, 29184, Note_on_c, 7, 43, 0
9, 29232, Note_on_c, 7, 55, 100
9, 29232, Note_on_c, 7, 50, 100
9, 29280, Note_on_c, 7, 50, 0
9, 29280, Note_on_c, 7, 55, 0
9, 29280, Note_on_c, 7, 52, 100
9, 29280, Note_on_c, 7, 55, 100
9, 29328, Note_on_c, 7, 55, 0
9, 29328, Note_on_c, 7, 52, 0
9, 29328, Note_on_c, 7, 43, 77
9, 29376, Note_on_c, 7, 43, 0
9, 29376, Note_on_c, 7, 50, 100
9, 29376, Note_on_c, 7, 55, 100
9, 29424, Note_on_c, 7, 55, 0
9, 29424, Note_on_c, 7, 50, 0
9, 29424, Note_on_c, 7, 43, 78
9, 29472, Note_on_c, 7, 43, 0
9, 29472, Note_on_c, 7, 52, 100
9, 29472, Note_on_c, 7, 55, 100
9, 29520, Note_on_c, 7, 55, 0
9, 29520, Note_on_c, 7, 52, 0
9, 29568, Note_on_c, 7, 57, 100
9, 29568, Note_on_c, 7, 50, 100
9, 29616, Note_on_c, 7, 50, 0
9, 29616, Note_on_c, 7, 57, 0
9, 29616, Note_on_c, 7, 50, 82
9, 29664, Note_on_c, 7, 50, 0
9, 29664, Note_on_c, 7, 62, 100
9, 29664, Note_on_c, 7, 59, 100
9, 29712, Note_on_c, 7, 59, 0
9, 29712, Note_on_c, 7, 62, 0
9, 29712, Note_on_c, 7, 50, 82
9, 29760, Note_on_c, 7, 50, 0
9, 29760, Note_on_c, 7, 50, 100
9, 29760, Note_on_c, 7, 57, 100
9, 29808, Note_on_c, 7, 57, 0
9, 29808, Note_on_c, 7, 50, 0
9, 29808, Note_on_c, 7, 50, 82
9, 29856, Note_on_c, 7, 50, 0
9, 29856, Note_on_c, 7, 59, 100
9, 29856, Note_on_c, 7, 62, 100
9, 29904, Note_on_c, 7, 62, 0
9, 29904, Note_on_c, 7, 59, 0
9, 29904, Note_on_c, 7, 52, 64
9, 29904, Note_on_c, 7, 45, 100
9, 29952, Note_on_c, 7, 45, 0
9, 29952, Note_on_c, 7, 52, 0
9, 30000, Note_on_c, 7, 57, 100
9, 30000, Note_on_c, 7, 52, 100
9, 30048, Note_on_c, 7, 52, 0
9, 30048, Note_on_c, 7, 57, 0
9, 30048, Note_on_c, 7, 54, 100
9, 30048, Note_on_c, 7, 57, 100
9, 30096, Note_on_c, 7, 57, 0
9, 30096, Note_on_c, 7, 54, 0
9, 30096, Note_on_c, 7, 45, 68
9, 30144, Note_on_c, 7, 45, 0
9, 30144, Note_on_c, 7, 52, 100
9, 30144, Note_on_c, 7, 57, 100
9, 30192, Note_on_c, 7, 57, 0
9, 30192, Note_on_c, 7, 52, 0
9, 30192, Note_on_c, 7, 45, 72
9, 30240, Note_on_c, 7, 45, 0
9, 30240, Note_on_c, 7, 54, 100
9, 30240, Note_on_c, 7, 57, 100
9, 30288, Note_on_c, 7, 57, 0
9, 30288, Note_on_c, 7, 54, 0
9, 30288, Note_on_c, 7, 57, 100
9, 30288, Note_on_c, 7, 50, 100
9, 30336, Note_on_c, 7, 50, 0
9, 30336, Note_on_c, 7, 57, 0
9, 30384, Note_on_c, 7, 57, 100
9, 30384, Note_on_c, 7, 62, 100
9, 30432, Note_on_c, 7, 62, 0
9, 30432, Note_on_c, 7, 57, 0
9, 30432, Note_on_c, 7, 57, 100
9, 30432, Note_on_c, 7, 59, 100
9, 30480, Note_on_c, 7, 59, 0
9, 30480, Note_on_c, 7, 57, 0
9, 30480, Note_on_c, 7, 50, 73
9, 30528, Note_on_c, 7, 50, 0
9, 30528, Note_on_c, 7, 62, 100
9, 30528, Note_on_c, 7, 57, 100
9, 30576, Note_on_c, 7, 57, 0
9, 30576, Note_on_c, 7, 62, 0
9, 30576, Note_on_c, 7, 50, 73
9, 30624, Note_on_c, 7, 50, 0
9, 30624, Note_on_c, 7, 59, 100
9, 30624, Note_on_c, 7, 57, 100
9, 30672, Note_on_c, 7, 57, 0
9, 30672, Note_on_c, 7, 59, 0
9, 30672, Note_on_c, 7, 50, 73
9, 30720, Note_on_c, 7, 50, 0
9, 30720, Note_on_c, 7, 57, 100
9, 30720, Note_on_c, 7, 62, 100
9, 30768, Note_on_c, 7, 62, 0
9, 30768, Note_on_c, 7, 57, 0
9, 30768, Note_on_c, 7, 57, 100
9, 30768, Note_on_c, 7, 62, 100
9, 30768, Note_on_c, 7, 50, 77
9, 30816, Note_on_c, 7, 50, 0
9, 30816, Note_on_c, 7, 62, 0
9, 30816, Note_on_c, 7, 57, 0
9, 30816, Note_on_c, 7, 50, 100
9, 30816, Note_on_c, 7, 59, 100
9, 30864, Note_on_c, 7, 59, 0
9, 30864, Note_on_c, 7, 50, 0
9, 30864, Note_on_c, 7, 50, 63
9, 30864, Note_on_c, 7, 57, 100
9, 30864, Note_on_c, 7, 62, 100
9, 30912, Note_on_c, 7, 62, 0
9, 30912, Note_on_c, 7, 57, 0
9, 30912, Note_on_c, 7, 50, 0
9, 30960, Note_on_c, 7, 50, 74
9, 31008, Note_on_c, 7, 50, 0
9, 31008, Note_on_c, 7, 57, 97
9, 31008, Note_on_c, 7, 50, 97
9, 31080, Note_on_c, 7, 50, 0
9, 31080, Note_on_c, 7, 57, 0
9, 31104, Note_on_c, 7, 57, 100
9, 31104, Note_on_c, 7, 50, 100
9, 31152, Note_on_c, 7, 50, 0
9, 31152, Note_on_c, 7, 57, 0
9, 31152, Note_on_c, 7, 50, 74
9, 31200, Note_on_c, 7, 50, 0
9, 31200, Note_on_c, 7, 59, 100
9, 31200, Note_on_c, 7, 50, 100
9, 31248, Note_on_c, 7, 50, 0
9, 31248, Note_on_c, 7, 59, 0
9, 31248, Note_on_c, 7, 50, 75
9, 31296, Note_on_c, 7, 50, 0
9, 31296, Note_on_c, 7, 57, 100
9, 31296, Note_on_c, 7, 50, 100
9, 31344, Note_on_c, 7, 50, 0
9, 31344, Note_on_c, 7, 57, 0
9, 31344, Note_on_c, 7, 50, 77
9, 31392, Note_on_c, 7, 50, 0
9, 31392, Note_on_c, 7, 59, 100
9, 31392, Note_on_c, 7, 50, 100
9, 31440, Note_on_c, 7, 50, 0
9, 31440, Note_on_c, 7, 59, 0
9, 31440, Note_on_c, 7, 50, 100
9, 31440, Note_on_c, 7, 57, 100
9, 31488, Note_on_c, 7, 57, 0
9, 31488, Note_on_c, 7, 50, 0
9, 31536, Note_on_c, 7, 50, 100
9, 31536, Note_on_c, 7, 57, 100
9, 31584, Note_on_c, 7, 57, 0
9, 31584, Note_on_c, 7, 50, 0
9, 31584, Note_on_c, 7, 59, 100
9, 31584, Note_on_c, 7, 50, 100
9, 31632, Note_on_c, 7, 50, 0
9, 31632, Note_on_c, 7, 59, 0
9, 31632, Note_on_c, 7, 50, 74
9, 31680, Note_on_c, 7, 50, 0
9, 31680, Note_on_c, 7, 50, 100
9, 31680, Note_on_c, 7, 57, 100
9, 31728, Note_on_c, 7, 57, 0
9, 31728, Note_on_c, 7, 50, 0
9, 31728, Note_on_c, 7, 50, 78
9, 31776, Note_on_c, 7, 50, 0
9, 31776, Note_on_c, 7, 59, 99
9, 31776, Note_on_c, 7, 50, 99
9, 31824, Note_on_c, 7, 50, 0
9, 31824, Note_on_c, 7, 59, 0
9, 31824, Note_on_c, 7, 50, 100
9, 31824, Note_on_c, 7, 55, 100
9, 31872, Note_on_c, 7, 55, 0
9, 31872, Note_on_c, 7, 50, 0
9, 31920, Note_on_c, 7, 50, 100
9, 31920, Note_on_c, 7, 55, 100
9, 31968, Note_on_c, 7, 55, 0
9, 31968, Note_on_c, 7, 50, 0
9, 31968, Note_on_c, 7, 55, 100
9, 31968, Note_on_c, 7, 52, 100
9, 32016, Note_on_c, 7, 52, 0
9, 32016, Note_on_c, 7, 55, 0
9, 32064, Note_on_c, 7, 50, 100
9, 32064, Note_on_c, 7, 55, 100
9, 32112, Note_on_c, 7, 55, 0
9, 32112, Note_on_c, 7, 50, 0
9, 32160, Note_on_c, 7, 52, 100
9, 32160, Note_on_c, 7, 55, 100
9, 32208, Note_on_c, 7, 55, 0
9, 32208, Note_on_c, 7, 52, 0
9, 32208, Note_on_c, 7, 43, 100
9, 32208, Note_on_c, 7, 50, 100
9, 32256, Note_on_c, 7, 50, 0
9, 32256, Note_on_c, 7, 43, 0
9, 32304, Note_on_c, 7, 55, 100
9, 32304, Note_on_c, 7, 50, 100
9, 32352, Note_on_c, 7, 50, 0
9, 32352, Note_on_c, 7, 55, 0
9, 32352, Note_on_c, 7, 52, 100
9, 32352, Note_on_c, 7, 55, 100
9, 32400, Note_on_c, 7, 55, 0
9, 32400, Note_on_c, 7, 52, 0
9, 32400, Note_on_c, 7, 43, 77
9, 32448, Note_on_c, 7, 43, 0
9, 32448, Note_on_c, 7, 50, 100
9, 32448, Note_on_c, 7, 55, 100
9, 32496, Note_on_c, 7, 55, 0
9, 32496, Note_on_c, 7, 50, 0
9, 32496, Note_on_c, 7, 43, 78
9, 32544, Note_on_c, 7, 43, 0
9, 32544, Note_on_c, 7, 52, 100
9, 32544, Note_on_c, 7, 55, 100
9, 32592, Note_on_c, 7, 55, 0
9, 32592, Note_on_c, 7, 52, 0
9, 32640, Note_on_c, 7, 57, 100
9, 32640, Note_on_c, 7, 50, 100
9, 32688, Note_on_c, 7, 50, 0
9, 32688, Note_on_c, 7, 57, 0
9, 32688, Note_on_c, 7, 50, 82
9, 32736, Note_on_c, 7, 50, 0
9, 32736, Note_on_c, 7, 62, 100
9, 32736, Note_on_c, 7, 59, 100
9, 32784, Note_on_c, 7, 59, 0
9, 32784, Note_on_c, 7, 62, 0
9, 32784, Note_on_c, 7, 50, 82
9, 32832, Note_on_c, 7, 50, 0
9, 32832, Note_on_c, 7, 50, 100
9, 32832, Note_on_c, 7, 57, 100
9, 32880, Note_on_c, 7, 57, 0
9, 32880, Note_on_c, 7, 50, 0
9, 32880, Note_on_c, 7, 50, 82
9, 32928, Note_on_c, 7, 50, 0
9, 32928, Note_on_c, 7, 59, 100
9, 32928, Note_on_c, 7, 62, 100
9, 32976, Note_on_c, 7, 62, 0
9, 32976, Note_on_c, 7, 59, 0
9, 32976, Note_on_c, 7, 52, 64
9, 32976, Note_on_c, 7, 45, 100
9, 33024, Note_on_c, 7, 45, 0
9, 33024, Note_on_c, 7, 52, 0
9, 33072, Note_on_c, 7, 57, 100
9, 33072, Note_on_c, 7, 52, 100
9, 33120, Note_on_c, 7, 52, 0
9, 33120, Note_on_c, 7, 57, 0
9, 33120, Note_on_c, 7, 54, 100
9, 33120, Note_on_c, 7, 57, 100
9, 33168, Note_on_c, 7, 57, 0
9, 33168, Note_on_c, 7, 54, 0
9, 33168, Note_on_c, 7, 45, 68
9, 33216, Note_on_c, 7, 45, 0
9, 33216, Note_on_c, 7, 52, 100
9, 33216, Note_on_c, 7, 57, 100
9, 33264, Note_on_c, 7, 57, 0
9, 33264, Note_on_c, 7, 52, 0
9, 33264, Note_on_c, 7, 45, 72
9, 33312, Note_on_c, 7, 45, 0
9, 33312, Note_on_c, 7, 54, 100
9, 33312, Note_on_c, 7, 57, 100
9, 33360, Note_on_c, 7, 57, 0
9, 33360, Note_on_c, 7, 54, 0
9, 33360, Note_on_c, 7, 57, 100
9, 33360, Note_on_c, 7, 50, 100
9, 33408, Note_on_c, 7, 50, 0
9, 33408, Note_on_c, 7, 57, 0
9, 33456, Note_on_c, 7, 57, 100
9, 33456, Note_on_c, 7, 62, 100
9, 33504, Note_on_c, 7, 62, 0
9, 33504, Note_on_c, 7, 57, 0
9, 33504, Note_on_c, 7, 57, 100
9, 33504, Note_on_c, 7, 59, 100
9, 33552, Note_on_c, 7, 59, 0
9, 33552, Note_on_c, 7, 57, 0
9, 33552, Note_on_c, 7, 50, 73
9, 33600, Note_on_c, 7, 50, 0
9, 33600, Note_on_c, 7, 62, 100
9, 33600, Note_on_c, 7, 57, 100
9, 33648, Note_on_c, 7, 57, 0
9, 33648, Note_on_c, 7, 62, 0
9, 33648, Note_on_c, 7, 50, 73
9, 33696, Note_on_c, 7, 50, 0
9, 33696, Note_on_c, 7, 59, 100
9, 33696, Note_on_c, 7, 57, 100
9, 33744, Note_on_c, 7, 57, 0
9, 33744, Note_on_c, 7, 59, 0
9, 33744, Note_on_c, 7, 50, 73
9, 33792, Note_on_c, 7, 50, 0
9, 33792, Note_on_c, 7, 57, 100
9, 33792, Note_on_c, 7, 62, 100
9, 33840, Note_on_c, 7, 62, 0
9, 33840, Note_on_c, 7, 57, 0
9, 33840, Note_on_c, 7, 50, 77
9, 33888, Note_on_c, 7, 50, 0
9, 33888, Note_on_c, 7, 62, 100
9, 33888, Note_on_c, 7, 59, 100
9, 33936, Note_on_c, 7, 59, 0
9, 33936, Note_on_c, 7, 62, 0
9, 33936, Note_on_c, 7, 50, 63
9, 33984, Note_on_c, 7, 50, 0
9, 33984, Note_on_c, 7, 62, 100
9, 33984, Note_on_c, 7, 57, 100
9, 34032, Note_on_c, 7, 57, 0
9, 34032, Note_on_c, 7, 62, 0
9, 34032, Note_on_c, 7, 50, 74
9, 34080, Note_on_c, 7, 50, 0
9, 34080, Note_on_c, 7, 50, 97
9, 34080, Note_on_c, 7, 57, 97
9, 34128, Note_on_c, 7, 57, 0
9, 34128, Note_on_c, 7, 50, 0
9, 34128, Note_on_c, 7, 50, 80
9, 34176, Note_on_c, 7, 50, 0
9, 34176, Note_on_c, 7, 57, 100
9, 34176, Note_on_c, 7, 50, 100
9, 34224, Note_on_c, 7, 50, 0
9, 34224, Note_on_c, 7, 57, 0
9, 34224, Note_on_c, 7, 50, 82
9, 34272, Note_on_c, 7, 50, 0
9, 34272, Note_on_c, 7, 50, 100
9, 34272, Note_on_c, 7, 59, 100
9, 34320, Note_on_c, 7, 59, 0
9, 34320, Note_on_c, 7, 50, 0
9, 34320, Note_on_c, 7, 50, 82
9, 34368, Note_on_c, 7, 50, 0
9, 34368, Note_on_c, 7, 50, 100
9, 34368, Note_on_c, 7, 57, 100
9, 34416, Note_on_c, 7, 57, 0
9, 34416, Note_on_c, 7, 50, 0
9, 34416, Note_on_c, 7, 50, 82
9, 34464, Note_on_c, 7, 50, 0
9, 34464, Note_on_c, 7, 59, 100
9, 34464, Note_on_c, 7, 50, 100
9, 34512, Note_on_c, 7, 50, 0
9, 34512, Note_on_c, 7, 59, 0
9, 34512, Note_on_c, 7, 52, 64
9, 34512, Note_on_c, 7, 45, 100
9, 34560, Note_on_c, 7, 45, 0
9, 34560, Note_on_c, 7, 52, 0
9, 34608, Note_on_c, 7, 57, 100
9, 34608, Note_on_c, 7, 52, 100
9, 34656, Note_on_c, 7, 52, 0
9, 34656, Note_on_c, 7, 57, 0
9, 34656, Note_on_c, 7, 54, 100
9, 34656, Note_on_c, 7, 57, 100
9, 34704, Note_on_c, 7, 57, 0
9, 34704, Note_on_c, 7, 54, 0
9, 34704, Note_on_c, 7, 45, 68
9, 34752, Note_on_c, 7, 45, 0
9, 34752, Note_on_c, 7, 52, 100
9, 34752, Note_on_c, 7, 57, 100
9, 34800, Note_on_c, 7, 57, 0
9, 34800, Note_on_c, 7, 52, 0
9, 34800, Note_on_c, 7, 45, 72
9, 34848, Note_on_c, 7, 45, 0
9, 34848, Note_on_c, 7, 54, 100
9, 34848, Note_on_c, 7, 57, 100
9, 34896, Note_on_c, 7, 57, 0
9, 34896, Note_on_c, 7, 54, 0
9, 34896, Note_on_c, 7, 57, 100
9, 34896, Note_on_c, 7, 50, 100
9, 34944, Note_on_c, 7, 50, 0
9, 34944, Note_on_c, 7, 57, 0
9, 34992, Note_on_c, 7, 57, 100
9, 34992, Note_on_c, 7, 62, 100
9, 35040, Note_on_c, 7, 62, 0
9, 35040, Note_on_c, 7, 57, 0
9, 35040, Note_on_c, 7, 57, 100
9, 35040, Note_on_c, 7, 59, 100
9, 35088, Note_on_c, 7, 59, 0
9, 35088, Note_on_c, 7, 57, 0
9, 35088, Note_on_c, 7, 50, 73
9, 35136, Note_on_c, 7, 50, 0
9, 35136, Note_on_c, 7, 62, 100
9, 35136, Note_on_c, 7, 57, 100
9, 35184, Note_on_c, 7, 57, 0
9, 35184, Note_on_c, 7, 62, 0
9, 35184, Note_on_c, 7, 50, 73
9, 35232, Note_on_c, 7, 50, 0
9, 35232, Note_on_c, 7, 59, 100
9, 35232, Note_on_c, 7, 57, 100
9, 35280, Note_on_c, 7, 57, 0
9, 35280, Note_on_c, 7, 59, 0
9, 35280, Note_on_c, 7, 50, 73
9, 35328, Note_on_c, 7, 50, 0
9, 35328, Note_on_c, 7, 57, 100
9, 35328, Note_on_c, 7, 62, 100
9, 35376, Note_on_c, 7, 62, 0
9, 35376, Note_on_c, 7, 57, 0
9, 35376, Note_on_c, 7, 57, 100
9, 35376, Note_on_c, 7, 62, 100
9, 35376, Note_on_c, 7, 50, 77
9, 35424, Note_on_c, 7, 50, 0
9, 35424, Note_on_c, 7, 62, 0
9, 35424, Note_on_c, 7, 57, 0
9, 35424, Note_on_c, 7, 50, 100
9, 35424, Note_on_c, 7, 59, 100
9, 35472, Note_on_c, 7, 59, 0
9, 35472, Note_on_c, 7, 50, 0
9, 35472, Note_on_c, 7, 50, 63
9, 35472, Note_on_c, 7, 57, 100
9, 35472, Note_on_c, 7, 62, 100
9, 35520, Note_on_c, 7, 62, 0
9, 35520, Note_on_c, 7, 57, 0
9, 35520, Note_on_c, 7, 50, 0
9, 35568, Note_on_c, 7, 50, 74
9, 35616, Note_on_c, 7, 50, 0
9, 35616, Note_on_c, 7, 57, 97
9, 35616, Note_on_c, 7, 50, 97
9, 35688, Note_on_c, 7, 50, 0
9, 35688, Note_on_c, 7, 57, 0
9, 35760, Note_on_c, 7, 57, 100
9, 35760, Note_on_c, 7, 62, 100
9, 35808, Note_on_c, 7, 62, 0
9, 35808, Note_on_c, 7, 57, 0
9, 35808, Note_on_c, 7, 57, 100
9, 35808, Note_on_c, 7, 59, 100
9, 35856, Note_on_c, 7, 59, 0
9, 35856, Note_on_c, 7, 57, 0
9, 35856, Note_on_c, 7, 50, 73
9, 35904, Note_on_c, 7, 50, 0
9, 35904, Note_on_c, 7, 62, 100
9, 35904, Note_on_c, 7, 57, 100
9, 35952, Note_on_c, 7, 57, 0
9, 35952, Note_on_c, 7, 62, 0
9, 35952, Note_on_c, 7, 50, 73
9, 36000, Note_on_c, 7, 50, 0
9, 36000, Note_on_c, 7, 59, 100
9, 36000, Note_on_c, 7, 57, 100
9, 36048, Note_on_c, 7, 57, 0
9, 36048, Note_on_c, 7, 59, 0
9, 36048, Note_on_c, 7, 50, 73
9, 36096, Note_on_c, 7, 50, 0
9, 36096, Note_on_c, 7, 57, 100
9, 36096, Note_on_c, 7, 62, 100
9, 36144, Note_on_c, 7, 62, 0
9, 36144, Note_on_c, 7, 57, 0
9, 36144, Note_on_c, 7, 57, 100
9, 36144, Note_on_c, 7, 62, 100
9, 36144, Note_on_c, 7, 50, 77
9, 36192, Note_on_c, 7, 50, 0
9, 36192, Note_on_c, 7, 62, 0
9, 36192, Note_on_c, 7, 57, 0
9, 36192, Note_on_c, 7, 50, 100
9, 36192, Note_on_c, 7, 59, 100
9, 36240, Note_on_c, 7, 59, 0
9, 36240, Note_on_c, 7, 50, 0
9, 36240, Note_on_c, 7, 50, 63
9, 36240, Note_on_c, 7, 57, 100
9, 36240, Note_on_c, 7, 62, 100
9, 36480, Note_on_c, 7, 62, 0
9, 36864, Note_on_c, 7, 57, 0
9, 36864, Note_on_c, 7, 50, 0
9, 36864, End_track
10, 0, Start_track
10, 0, MIDI_port, 0
10, 0, Title_t, "Piano"
10, 0, Program_c, 8, 1
10, 0, Control_c, 8, 7, 94
10, 1, Program_c, 8, 0
10, 2, Control_c, 8, 7, 94
10, 15696, Note_on_c, 8, 102, 103
10, 15696, Note_on_c, 8, 98, 103
10, 15696, Note_on_c, 8, 93, 103
10, 15738, Note_on_c, 8, 102, 0
10, 15744, Note_on_c, 8, 93, 0
10, 15744, Note_on_c, 8, 98, 0
10, 15744, Note_on_c, 8, 102, 103
10, 15744, Note_on_c, 8, 93, 103
10, 15744, Note_on_c, 8, 98, 103
10, 15768, Note_on_c, 8, 98, 0
10, 15768, Note_on_c, 8, 93, 0
10, 15768, Note_on_c, 8, 102, 0
10, 15792, Note_on_c, 8, 102, 103
10, 15792, Note_on_c, 8, 98, 103
10, 15792, Note_on_c, 8, 93, 103
10, 15834, Note_on_c, 8, 93, 0
10, 15834, Note_on_c, 8, 98, 0
10, 15834, Note_on_c, 8, 102, 0
10, 15840, Note_on_c, 8, 102, 103
10, 15840, Note_on_c, 8, 98, 103
10, 15840, Note_on_c, 8, 93, 103
10, 15864, Note_on_c, 8, 93, 0
10, 15864, Note_on_c, 8, 98, 0
10, 15864, Note_on_c, 8, 102, 0
10, 15888, Note_on_c, 8, 102, 103
10, 15888, Note_on_c, 8, 93, 103
10, 15888, Note_on_c, 8, 98, 103
10, 15930, Note_on_c, 8, 98, 0
10, 15930, Note_on_c, 8, 93, 0
10, 15932, Note_on_c, 8, 102, 0
10, 15936, Note_on_c, 8, 102, 103
10, 15936, Note_on_c, 8, 98, 103
10, 15936, Note_on_c, 8, 93, 103
10, 15960, Note_on_c, 8, 93, 0
10, 15960, Note_on_c, 8, 98, 0
10, 15960, Note_on_c, 8, 102, 0
10, 15984, Note_on_c, 8, 102, 103
10, 15984, Note_on_c, 8, 98, 103
10, 15984, Note_on_c, 8, 93, 103
10, 16026, Note_on_c, 8, 93, 0
10, 16026, Note_on_c, 8, 98, 0
10, 16028, Note_on_c, 8, 102, 0
10, 16032, Note_on_c, 8, 102, 103
10, 16032, Note_on_c, 8, 93, 103
10, 16032, Note_on_c, 8, 98, 103
10, 16056, Note_on_c, 8, 98, 0
10, 16056, Note_on_c, 8, 93, 0
10, 16056, Note_on_c, 8, 102, 0
10, 16080, Note_on_c, 8, 102, 103
10, 16080, Note_on_c, 8, 98, 103
10, 16080, Note_on_c, 8, 93, 103
10, 16122, Note_on_c, 8, 93, 0
10, 16122, Note_on_c, 8, 98, 0
10, 16124, Note_on_c, 8, 102, 0
10, 16128, Note_on_c, 8, 102, 103
10, 16128, Note_on_c, 8, 93, 103
10, 16128, Note_on_c, 8, 98, 103
10, 16152, Note_on_c, 8, 98, 0
10, 16152, Note_on_c, 8, 93, 0
10, 16152, Note_on_c, 8, 102, 0
10, 16176, Note_on_c, 8, 102, 103
10, 16176, Note_on_c, 8, 98, 103
10, 16176, Note_on_c, 8, 93, 103
10, 16218, Note_on_c, 8, 93, 0
10, 16218, Note_on_c, 8, 98, 0
10, 16218, Note_on_c, 8, 102, 0
10, 16224, Note_on_c, 8, 102, 103
10, 16224, Note_on_c, 8, 98, 103
10, 16224, Note_on_c, 8, 93, 103
10, 16248, Note_on_c, 8, 93, 0
10, 16248, Note_on_c, 8, 98, 0
10, 16248, Note_on_c, 8, 102, 0
10, 16272, Note_on_c, 8, 102, 103
10, 16272, Note_on_c, 8, 93, 103
10, 16272, Note_on_c, 8, 98, 103
10, 16314, Note_on_c, 8, 98, 0
10, 16314, Note_on_c, 8, 93, 0
10, 16316, Note_on_c, 8, 102, 0
10, 16320, Note_on_c, 8, 102, 103
10, 16320, Note_on_c, 8, 98, 103
10, 16320, Note_on_c, 8, 93, 103
10, 16344, Note_on_c, 8, 93, 0
10, 16344, Note_on_c, 8, 98, 0
10, 16344, Note_on_c, 8, 102, 0
10, 16368, Note_on_c, 8, 102, 103
10, 16368, Note_on_c, 8, 98, 103
10, 16368, Note_on_c, 8, 93, 103
10, 16410, Note_on_c, 8, 93, 0
10, 16410, Note_on_c, 8, 98, 0
10, 16412, Note_on_c, 8, 102, 0
10, 16416, Note_on_c, 8, 102, 103
10, 16416, Note_on_c, 8, 93, 103
10, 16416, Note_on_c, 8, 98, 103
10, 16440, Note_on_c, 8, 98, 0
10, 16440, Note_on_c, 8, 93, 0
10, 16440, Note_on_c, 8, 102, 0
10, 16464, Note_on_c, 8, 102, 103
10, 16464, Note_on_c, 8, 98, 103
10, 16464, Note_on_c, 8, 93, 103
10, 16506, Note_on_c, 8, 93, 0
10, 16506, Note_on_c, 8, 98, 0
10, 16508, Note_on_c, 8, 102, 0
10, 16512, Note_on_c, 8, 102, 103
10, 16512, Note_on_c, 8, 93, 103
10, 16512, Note_on_c, 8, 98, 103
10, 16536, Note_on_c, 8, 98, 0
10, 16536, Note_on_c, 8, 93, 0
10, 16536, Note_on_c, 8, 102, 0
10, 16560, Note_on_c, 8, 102, 103
10, 16560, Note_on_c, 8, 98, 103
10, 16560, Note_on_c, 8, 93, 103
10, 16602, Note_on_c, 8, 93, 0
10, 16602, Note_on_c, 8, 98, 0
10, 16602, Note_on_c, 8, 102, 0
10, 16608, Note_on_c, 8, 102, 103
10, 16608, Note_on_c, 8, 98, 103
10, 16608, Note_on_c, 8, 93, 103
10, 16632, Note_on_c, 8, 93, 0
10, 16632, Note_on_c, 8, 98, 0
10, 16632, Note_on_c, 8, 102, 0
10, 16656, Note_on_c, 8, 102, 103
10, 16656, Note_on_c, 8, 93, 103
10, 16656, Note_on_c, 8, 98, 103
10, 16698, Note_on_c, 8, 98, 0
10, 16698, Note_on_c, 8, 93, 0
10, 16700, Note_on_c, 8, 102, 0
10, 16704, Note_on_c, 8, 102, 103
10, 16704, Note_on_c, 8, 98, 103
10, 16704, Note_on_c, 8, 93, 103
10, 16728, Note_on_c, 8, 93, 0
10, 16728, Note_on_c, 8, 98, 0
10, 16728, Note_on_c, 8, 102, 0
10, 16752, Note_on_c, 8, 102, 103
10, 16752, Note_on_c, 8, 98, 103
10, 16752, Note_on_c, 8, 93, 103
10, 16794, Note_on_c, 8, 93, 0
10, 16794, Note_on_c, 8, 98, 0
10, 16796, Note_on_c, 8, 102, 0
10, 16800, Note_on_c, 8, 102, 103
10, 16800, Note_on_c, 8, 93, 103
10, 16800, Note_on_c, 8, 98, 103
10, 16824, Note_on_c, 8, 98, 0
10, 16824, Note_on_c, 8, 93, 0
10, 16824, Note_on_c, 8, 102, 0
10, 16848, Note_on_c, 8, 102, 103
10, 16848, Note_on_c, 8, 98, 103
10, 16848, Note_on_c, 8, 93, 103
10, 16890, Note_on_c, 8, 93, 0
10, 16890, Note_on_c, 8, 98, 0
10, 16892, Note_on_c, 8, 102, 0
10, 16896, Note_on_c, 8, 102, 103
10, 16896, Note_on_c, 8, 93, 103
10, 16896, Note_on_c, 8, 98, 103
10, 16920, Note_on_c, 8, 98, 0
10, 16920, Note_on_c, 8, 93, 0
10, 16920, Note_on_c, 8, 102, 0
10, 16944, Note_on_c, 8, 102, 103
10, 16944, Note_on_c, 8, 98, 103
10, 16944, Note_on_c, 8, 93, 103
10, 16986, Note_on_c, 8, 93, 0
10, 16986, Note_on_c, 8, 98, 0
10, 16986, Note_on_c, 8, 102, 0
10, 16992, Note_on_c, 8, 93, 103
10, 16992, Note_on_c, 8, 98, 103
10, 16992, Note_on_c, 8, 102, 103
10, 17037, Note_on_c, 8, 69, 101
10, 17040, Note_on_c, 8, 102, 0
10, 17040, Note_on_c, 8, 93, 0
10, 17040, Note_on_c, 8, 98, 0
10, 17043, Note_on_c, 8, 71, 101
10, 17047, Note_on_c, 8, 69, 0
10, 17048, Note_on_c, 8, 72, 100
10, 17052, Note_on_c, 8, 71, 0
10, 17053, Note_on_c, 8, 74, 100
10, 17057, Note_on_c, 8, 72, 0
10, 17057, Note_on_c, 8, 76, 100
10, 17061, Note_on_c, 8, 74, 0
10, 17062, Note_on_c, 8, 77, 93
10, 17066, Note_on_c, 8, 76, 0
10, 17066, Note_on_c, 8, 79, 91
10, 17070, Note_on_c, 8, 77, 0
10, 17070, Note_on_c, 8, 81, 92
10, 17072, Note_on_c, 8, 83, 91
10, 17073, Note_on_c, 8, 79, 0
10, 17076, Note_on_c, 8, 84, 88
10, 17078, Note_on_c, 8, 81, 0
10, 17079, Note_on_c, 8, 86, 0
10, 17081, Note_on_c, 8, 83, 0
10, 17083, Note_on_c, 8, 88, 86
10, 17085, Note_on_c, 8, 84, 0
10, 17086, Note_on_c, 8, 89, 86
10, 17088, Note_on_c, 8, 91, 90
10, 17089, Note_on_c, 8, 88, 0
10, 17089, Note_on_c, 8, 86, 0
10, 17091, Note_on_c, 8, 93, 92
10, 17092, Note_on_c, 8, 89, 0
10, 17094, Note_on_c, 8, 95, 95
10, 17095, Note_on_c, 8, 91, 0
10, 17096, Note_on_c, 8, 96, 96
10, 17099, Note_on_c, 8, 93, 0
10, 17100, Note_on_c, 8, 98, 98
10, 17101, Note_on_c, 8, 96, 0
10, 17101, Note_on_c, 8, 95, 0
10, 17103, Note_on_c, 8, 98, 0
10, 17103, Note_on_c, 8, 100, 99
10, 17106, Note_on_c, 8, 100, 0
10, 17106, Note_on_c, 8, 101, 99
10, 17108, Note_on_c, 8, 101, 0
10, 17110, Note_on_c, 8, 103, 99
10, 17112, Note_on_c, 8, 103, 0
10, 17113, Note_on_c, 8, 105, 99
10, 17118, Note_on_c, 8, 107, 99
10, 17120, Note_on_c, 8, 105, 0
10, 17127, Note_on_c, 8, 108, 92
10, 17132, Note_on_c, 8, 107, 0
10, 17150, Note_on_c, 8, 107, 93
10, 17157, Note_on_c, 8, 108, 0
10, 17157, Note_on_c, 8, 105, 100
10, 17162, Note_on_c, 8, 107, 0
10, 17164, Note_on_c, 8, 103, 102
10, 17168, Note_on_c, 8, 105, 0
10, 17168, Note_on_c, 8, 101, 102
10, 17173, Note_on_c, 8, 103, 0
10, 17173, Note_on_c, 8, 100, 99
10, 17177, Note_on_c, 8, 101, 0
10, 17179, Note_on_c, 8, 98, 93
10, 17182, Note_on_c, 8, 100, 0
10, 17184, Note_on_c, 8, 96, 97
10, 17190, Note_on_c, 8, 95, 95
10, 17191, Note_on_c, 8, 98, 0
10, 17196, Note_on_c, 8, 96, 0
10, 17196, Note_on_c, 8, 93, 106
10, 17200, Note_on_c, 8, 95, 0
10, 17201, Note_on_c, 8, 91, 91
10, 17205, Note_on_c, 8, 93, 0
10, 17207, Note_on_c, 8, 89, 104
10, 17211, Note_on_c, 8, 91, 0
10, 17211, Note_on_c, 8, 88, 98
10, 17217, Note_on_c, 8, 89, 0
10, 17217, Note_on_c, 8, 86, 98
10, 17220, Note_on_c, 8, 88, 0
10, 17221, Note_on_c, 8, 84, 98
10, 17226, Note_on_c, 8, 86, 0
10, 17226, Note_on_c, 8, 83, 96
10, 17230, Note_on_c, 8, 84, 0
10, 17232, Note_on_c, 8, 81, 92
10, 17234, Note_on_c, 8, 83, 0
10, 17236, Note_on_c, 8, 79, 91
10, 17240, Note_on_c, 8, 81, 0
10, 17240, Note_on_c, 8, 77, 89
10, 17244, Note_on_c, 8, 76, 88
10, 17245, Note_on_c, 8, 79, 0
10, 17248, Note_on_c, 8, 74, 86
10, 17249, Note_on_c, 8, 77, 0
10, 17252, Note_on_c, 8, 76, 0
10, 17253, Note_on_c, 8, 72, 84
10, 17255, Note_on_c, 8, 72, 0
10, 17256, Note_on_c, 8, 74, 0
10, 17257, Note_on_c, 8, 71, 83
10, 17260, Note_on_c, 8, 71, 0
10, 17262, Note_on_c, 8, 69, 80
10, 17268, Note_on_c, 8, 69, 0
10, 17280, Control_c, 8, 7, 106
10, 17286, Control_c, 8, 7, 106
10, 17328, Note_on_c, 8, 86, 115
10, 17328, Note_on_c, 8, 93, 115
10, 17328, Note_on_c, 8, 90, 115
10, 17369, Note_on_c, 8, 90, 0
10, 17374, Note_on_c, 8, 93, 0
10, 17374, Note_on_c, 8, 86, 0
10, 17376, Note_on_c, 8, 93, 115
10, 17376, Note_on_c, 8, 90, 115
10, 17377, Note_on_c, 8, 86, 115
10, 17400, Note_on_c, 8, 90, 0
10, 17400, Note_on_c, 8, 93, 0
10, 17402, Note_on_c, 8, 86, 0
10, 17424, Note_on_c, 8, 86, 115
10, 17424, Note_on_c, 8, 93, 115
10, 17424, Note_on_c, 8, 90, 115
10, 17465, Note_on_c, 8, 90, 0
10, 17465, Note_on_c, 8, 93, 0
10, 17470, Note_on_c, 8, 86, 0
10, 17472, Note_on_c, 8, 86, 115
10, 17472, Note_on_c, 8, 93, 115
10, 17472, Note_on_c, 8, 90, 115
10, 17496, Note_on_c, 8, 90, 0
10, 17496, Note_on_c, 8, 93, 0
10, 17497, Note_on_c, 8, 86, 0
10, 17520, Note_on_c, 8, 86, 115
10, 17520, Note_on_c, 8, 93, 115
10, 17520, Note_on_c, 8, 90, 115
10, 17561, Note_on_c, 8, 90, 0
10, 17561, Note_on_c, 8, 93, 0
10, 17566, Note_on_c, 8, 86, 0
10, 17616, Note_on_c, 8, 93, 116
10, 17616, Note_on_c, 8, 90, 116
10, 17616, Note_on_c, 8, 86, 116
10, 17657, Note_on_c, 8, 86, 0
10, 17657, Note_on_c, 8, 90, 0
10, 17657, Note_on_c, 8, 93, 0
10, 17712, Note_on_c, 8, 93, 127
10, 17719, Note_on_c, 8, 98, 127
10, 17753, Note_on_c, 8, 93, 0
10, 17760, Note_on_c, 8, 98, 0
10, 17760, Note_on_c, 8, 98, 127
10, 17760, Note_on_c, 8, 93, 127
10, 17801, Note_on_c, 8, 93, 0
10, 17801, Note_on_c, 8, 98, 0
10, 17808, Note_on_c, 8, 96, 127
10, 17808, Note_on_c, 8, 91, 127
10, 17849, Note_on_c, 8, 91, 0
10, 17849, Note_on_c, 8, 96, 0
10, 17856, Note_on_c, 8, 93, 127
10, 17857, Note_on_c, 8, 88, 127
10, 17867, Note_on_c, 8, 89, 127
10, 17870, Note_on_c, 8, 88, 0
10, 17897, Note_on_c, 8, 93, 0
10, 17898, Note_on_c, 8, 89, 0
10, 17904, Note_on_c, 8, 91, 127
10, 17904, Note_on_c, 8, 86, 127
10, 17945, Note_on_c, 8, 86, 0
10, 17945, Note_on_c, 8, 91, 0
10, 17952, Note_on_c, 8, 83, 127
10, 17961, Note_on_c, 8, 90, 127
10, 17993, Note_on_c, 8, 83, 0
10, 18000, Note_on_c, 8, 90, 0
10, 18003, Note_on_c, 8, 86, 127
10, 18009, Note_on_c, 8, 93, 127
10, 18049, Note_on_c, 8, 86, 0
10, 18055, Note_on_c, 8, 93, 0
10, 18096, Note_on_c, 8, 81, 116
10, 18101, Note_on_c, 8, 86, 116
10, 18142, Note_on_c, 8, 81, 0
10, 18147, Note_on_c, 8, 86, 0
10, 18147, Note_on_c, 8, 83, 116
10, 18147, Note_on_c, 8, 86, 116
10, 18192, Note_on_c, 8, 69, 116
10, 18193, Note_on_c, 8, 86, 0
10, 18193, Note_on_c, 8, 83, 0
10, 18195, Note_on_c, 8, 74, 116
10, 18238, Note_on_c, 8, 69, 0
10, 18240, Note_on_c, 8, 81, 116
10, 18240, Note_on_c, 8, 86, 116
10, 18241, Note_on_c, 8, 74, 0
10, 18286, Note_on_c, 8, 86, 0
10, 18286, Note_on_c, 8, 81, 0
10, 18293, Note_on_c, 8, 74, 116
10, 18295, Note_on_c, 8, 69, 116
10, 18337, Note_on_c, 8, 83, 116
10, 18339, Note_on_c, 8, 74, 0
10, 18339, Note_on_c, 8, 86, 116
10, 18341, Note_on_c, 8, 69, 0
10, 18383, Note_on_c, 8, 83, 0
10, 18385, Note_on_c, 8, 86, 0
10, 18386, Note_on_c, 8, 69, 116
10, 18389, Note_on_c, 8, 74, 116
10, 18431, Note_on_c, 8, 86, 116
10, 18432, Note_on_c, 8, 69, 0
10, 18435, Note_on_c, 8, 74, 0
10, 18436, Note_on_c, 8, 81, 116
10, 18477, Note_on_c, 8, 86, 0
10, 18478, Note_on_c, 8, 81, 0
10, 18485, Note_on_c, 8, 69, 116
10, 18487, Note_on_c, 8, 74, 116
10, 18527, Note_on_c, 8, 69, 0
10, 18529, Note_on_c, 8, 74, 0
10, 18529, Note_on_c, 8, 83, 116
10, 18531, Note_on_c, 8, 86, 116
10, 18572, Note_on_c, 8, 83, 0
10, 18576, Note_on_c, 8, 69, 93
10, 18581, Note_on_c, 8, 86, 0
10, 18588, Note_on_c, 8, 69, 0
10, 18589, Note_on_c, 8, 74, 84
10, 18600, Note_on_c, 8, 74, 0
10, 18600, Note_on_c, 8, 69, 101
10, 18612, Note_on_c, 8, 69, 0
10, 18613, Note_on_c, 8, 74, 94
10, 18624, Note_on_c, 8, 74, 0
10, 18624, Note_on_c, 8, 69, 110
10, 18635, Note_on_c, 8, 74, 75
10, 18636, Note_on_c, 8, 69, 0
10, 18646, Note_on_c, 8, 74, 0
10, 18648, Note_on_c, 8, 69, 97
10, 18659, Note_on_c, 8, 69, 0
10, 18659, Note_on_c, 8, 74, 83
10, 18670, Note_on_c, 8, 74, 0
10, 18672, Note_on_c, 8, 69, 106
10, 18682, Note_on_c, 8, 74, 82
10, 18685, Note_on_c, 8, 69, 0
10, 18693, Note_on_c, 8, 74, 0
10, 18696, Note_on_c, 8, 69, 99
10, 18707, Note_on_c, 8, 69, 0
10, 18708, Note_on_c, 8, 74, 88
10, 18719, Note_on_c, 8, 74, 0
10, 18720, Note_on_c, 8, 69, 96
10, 18731, Note_on_c, 8, 69, 0
10, 18731, Note_on_c, 8, 74, 82
10, 18742, Note_on_c, 8, 74, 0
10, 18744, Note_on_c, 8, 69, 107
10, 18755, Note_on_c, 8, 69, 0
10, 18755, Note_on_c, 8, 74, 90
10, 18766, Note_on_c, 8, 74, 0
10, 18768, Note_on_c, 8, 69, 102
10, 18779, Note_on_c, 8, 69, 0
10, 18816, Control_c, 8, 7, 105
10, 21888, Note_on_c, 8, 74, 100
10, 21936, Note_on_c, 8, 74, 0
10, 21936, Note_on_c, 8, 62, 100
10, 21984, Note_on_c, 8, 62, 0
10, 21984, Note_on_c, 8, 74, 100
10, 21984, Note_on_c, 8, 71, 100
10, 22032, Note_on_c, 8, 71, 0
10, 22032, Note_on_c, 8, 74, 0
10, 22032, Note_on_c, 8, 62, 100
10, 22080, Note_on_c, 8, 62, 0
10, 22080, Note_on_c, 8, 74, 100
10, 22080, Note_on_c, 8, 69, 100
10, 22128, Note_on_c, 8, 69, 0
10, 22128, Note_on_c, 8, 74, 0
10, 22176, Note_on_c, 8, 71, 100
10, 22176, Note_on_c, 8, 74, 100
10, 22224, Note_on_c, 8, 74, 0
10, 22224, Note_on_c, 8, 71, 0
10, 22224, Note_on_c, 8, 62, 100
10, 22272, Note_on_c, 8, 62, 0
10, 22272, Note_on_c, 8, 74, 100
10, 22272, Note_on_c, 8, 69, 100
10, 22320, Note_on_c, 8, 69, 0
10, 22320, Note_on_c, 8, 74, 0
10, 22320, Note_on_c, 8, 62, 100
10, 22368, Note_on_c, 8, 62, 0
10, 22368, Note_on_c, 8, 74, 100
10, 22368, Note_on_c, 8, 71, 100
10, 22416, Note_on_c, 8, 71, 0
10, 22416, Note_on_c, 8, 74, 0
10, 22416, Note_on_c, 8, 62, 100
10, 22464, Note_on_c, 8, 62, 0
10, 22464, Note_on_c, 8, 74, 100
10, 22464, Note_on_c, 8, 69, 100
10, 22512, Note_on_c, 8, 69, 0
10, 22512, Note_on_c, 8, 74, 0
10, 22560, Note_on_c, 8, 71, 100
10, 22560, Note_on_c, 8, 74, 100
10, 22608, Note_on_c, 8, 74, 0
10, 22608, Note_on_c, 8, 71, 0
10, 22608, Note_on_c, 8, 62, 100
10, 22656, Note_on_c, 8, 62, 0
10, 22656, Note_on_c, 8, 55, 100
10, 22704, Note_on_c, 8, 55, 0
10, 22704, Note_on_c, 8, 67, 100
10, 22704, Note_on_c, 8, 74, 100
10, 22704, Note_on_c, 8, 79, 100
10, 22752, Note_on_c, 8, 79, 0
10, 22752, Note_on_c, 8, 74, 0
10, 22752, Note_on_c, 8, 67, 0
10, 22752, Note_on_c, 8, 67, 100
10, 22752, Note_on_c, 8, 74, 100
10, 22752, Note_on_c, 8, 79, 100
10, 22776, Note_on_c, 8, 79, 0
10, 22776, Note_on_c, 8, 74, 0
10, 22776, Note_on_c, 8, 67, 0
10, 22800, Note_on_c, 8, 67, 100
10, 22800, Note_on_c, 8, 74, 100
10, 22800, Note_on_c, 8, 79, 100
10, 22848, Note_on_c, 8, 79, 0
10, 22848, Note_on_c, 8, 74, 0
10, 22848, Note_on_c, 8, 67, 0
10, 22848, Note_on_c, 8, 67, 100
10, 22848, Note_on_c, 8, 74, 100
10, 22848, Note_on_c, 8, 79, 100
10, 22872, Note_on_c, 8, 79, 0
10, 22872, Note_on_c, 8, 74, 0
10, 22872, Note_on_c, 8, 67, 0
10, 22896, Note_on_c, 8, 67, 100
10, 22896, Note_on_c, 8, 74, 100
10, 22896, Note_on_c, 8, 79, 100
10, 22944, Note_on_c, 8, 79, 0
10, 22944, Note_on_c, 8, 74, 0
10, 22944, Note_on_c, 8, 67, 0
10, 22944, Note_on_c, 8, 67, 100
10, 22944, Note_on_c, 8, 74, 100
10, 22944, Note_on_c, 8, 79, 100
10, 22968, Note_on_c, 8, 79, 0
10, 22968, Note_on_c, 8, 74, 0
10, 22968, Note_on_c, 8, 67, 0
10, 22992, Note_on_c, 8, 67, 100
10, 22992, Note_on_c, 8, 74, 100
10, 22992, Note_on_c, 8, 79, 100
10, 23040, Note_on_c, 8, 79, 0
10, 23040, Note_on_c, 8, 74, 0
10, 23040, Note_on_c, 8, 67, 0
10, 23040, Note_on_c, 8, 55, 100
10, 23088, Note_on_c, 8, 55, 0
10, 23088, Note_on_c, 8, 67, 100
10, 23088, Note_on_c, 8, 74, 100
10, 23088, Note_on_c, 8, 79, 100
10, 23136, Note_on_c, 8, 79, 0
10, 23136, Note_on_c, 8, 74, 0
10, 23136, Note_on_c, 8, 67, 0
10, 23136, Note_on_c, 8, 67, 100
10, 23136, Note_on_c, 8, 74, 100
10, 23136, Note_on_c, 8, 79, 100
10, 23160, Note_on_c, 8, 79, 0
10, 23160, Note_on_c, 8, 74, 0
10, 23160, Note_on_c, 8, 67, 0
10, 23184, Note_on_c, 8, 67, 100
10, 23184, Note_on_c, 8, 74, 100
10, 23184, Note_on_c, 8, 79, 100
10, 23232, Note_on_c, 8, 79, 0
10, 23232, Note_on_c, 8, 74, 0
10, 23232, Note_on_c, 8, 67, 0
10, 23232, Note_on_c, 8, 67, 100
10, 23232, Note_on_c, 8, 74, 100
10, 23232, Note_on_c, 8, 79, 100
10, 23256, Note_on_c, 8, 79, 0
10, 23256, Note_on_c, 8, 74, 0
10, 23256, Note_on_c, 8, 67, 0
10, 23280, Note_on_c, 8, 67, 100
10, 23280, Note_on_c, 8, 74, 100
10, 23280, Note_on_c, 8, 79, 100
10, 23328, Note_on_c, 8, 79, 0
10, 23328, Note_on_c, 8, 74, 0
10, 23328, Note_on_c, 8, 67, 0
10, 23328, Note_on_c, 8, 67, 100
10, 23328, Note_on_c, 8, 74, 100
10, 23328, Note_on_c, 8, 79, 100
10, 23352, Note_on_c, 8, 79, 0
10, 23352, Note_on_c, 8, 74, 0
10, 23352, Note_on_c, 8, 67, 0
10, 23376, Note_on_c, 8, 67, 100
10, 23376, Note_on_c, 8, 74, 100
10, 23376, Note_on_c, 8, 79, 100
10, 23424, Note_on_c, 8, 79, 0
10, 23424, Note_on_c, 8, 74, 0
10, 23424, Note_on_c, 8, 67, 0
10, 23424, Note_on_c, 8, 74, 100
10, 23424, Note_on_c, 8, 69, 100
10, 23472, Note_on_c, 8, 69, 0
10, 23472, Note_on_c, 8, 74, 0
10, 23472, Note_on_c, 8, 62, 100
10, 23520, Note_on_c, 8, 62, 0
10, 23520, Note_on_c, 8, 74, 100
10, 23520, Note_on_c, 8, 71, 100
10, 23568, Note_on_c, 8, 71, 0
10, 23568, Note_on_c, 8, 74, 0
10, 23568, Note_on_c, 8, 62, 100
10, 23616, Note_on_c, 8, 62, 0
10, 23616, Note_on_c, 8, 74, 100
10, 23616, Note_on_c, 8, 69, 100
10, 23664, Note_on_c, 8, 69, 0
10, 23664, Note_on_c, 8, 74, 0
10, 23712, Note_on_c, 8, 71, 100
10, 23712, Note_on_c, 8, 74, 100
10, 23760, Note_on_c, 8, 74, 0
10, 23760, Note_on_c, 8, 71, 0
10, 23760, Note_on_c, 8, 62, 100
10, 23808, Note_on_c, 8, 62, 0
10, 23808, Note_on_c, 8, 57, 100
10, 23856, Note_on_c, 8, 57, 0
10, 23856, Note_on_c, 8, 69, 100
10, 23856, Note_on_c, 8, 76, 100
10, 23856, Note_on_c, 8, 81, 100
10, 23904, Note_on_c, 8, 81, 0
10, 23904, Note_on_c, 8, 76, 0
10, 23904, Note_on_c, 8, 69, 0
10, 23904, Note_on_c, 8, 69, 100
10, 23904, Note_on_c, 8, 76, 100
10, 23904, Note_on_c, 8, 81, 100
10, 23928, Note_on_c, 8, 81, 0
10, 23928, Note_on_c, 8, 76, 0
10, 23928, Note_on_c, 8, 69, 0
10, 23952, Note_on_c, 8, 69, 100
10, 23952, Note_on_c, 8, 76, 100
10, 23952, Note_on_c, 8, 81, 100
10, 24000, Note_on_c, 8, 81, 0
10, 24000, Note_on_c, 8, 76, 0
10, 24000, Note_on_c, 8, 69, 0
10, 24000, Note_on_c, 8, 69, 100
10, 24000, Note_on_c, 8, 76, 100
10, 24000, Note_on_c, 8, 81, 100
10, 24024, Note_on_c, 8, 81, 0
10, 24024, Note_on_c, 8, 76, 0
10, 24024, Note_on_c, 8, 69, 0
10, 24048, Note_on_c, 8, 66, 100
10, 24048, Note_on_c, 8, 78, 100
10, 24096, Note_on_c, 8, 78, 0
10, 24096, Note_on_c, 8, 66, 0
10, 24096, Note_on_c, 8, 64, 100
10, 24096, Note_on_c, 8, 76, 100
10, 24144, Note_on_c, 8, 76, 0
10, 24144, Note_on_c, 8, 64, 0
10, 24144, Note_on_c, 8, 62, 100
10, 24144, Note_on_c, 8, 74, 100
10, 24216, Note_on_c, 8, 74, 0
10, 24216, Note_on_c, 8, 62, 0
10, 24240, Note_on_c, 8, 74, 100
10, 24240, Note_on_c, 8, 86, 100
10, 24288, Note_on_c, 8, 86, 0
10, 24288, Note_on_c, 8, 74, 0
10, 24288, Note_on_c, 8, 86, 100
10, 24288, Note_on_c, 8, 74, 100
10, 24312, Note_on_c, 8, 74, 0
10, 24312, Note_on_c, 8, 86, 0
10, 24336, Note_on_c, 8, 86, 100
10, 24336, Note_on_c, 8, 74, 100
10, 24384, Note_on_c, 8, 74, 0
10, 24384, Note_on_c, 8, 86, 0
10, 24384, Note_on_c, 8, 74, 100
10, 24384, Note_on_c, 8, 86, 100
10, 24408, Note_on_c, 8, 86, 0
10, 24408, Note_on_c, 8, 74, 0
10, 24432, Note_on_c, 8, 86, 100
10, 24432, Note_on_c, 8, 74, 100
10, 24480, Note_on_c, 8, 74, 0
10, 24480, Note_on_c, 8, 86, 0
10, 24480, Note_on_c, 8, 86, 100
10, 24480, Note_on_c, 8, 74, 100
10, 24504, Note_on_c, 8, 74, 0
10, 24504, Note_on_c, 8, 86, 0
10, 24528, Note_on_c, 8, 86, 100
10, 24528, Note_on_c, 8, 74, 100
10, 24576, Note_on_c, 8, 74, 0
10, 24576, Note_on_c, 8, 86, 0
10, 24576, Note_on_c, 8, 86, 100
10, 24576, Note_on_c, 8, 74, 100
10, 24600, Note_on_c, 8, 74, 0
10, 24600, Note_on_c, 8, 86, 0
10, 24624, Note_on_c, 8, 74, 100
10, 24624, Note_on_c, 8, 86, 100
10, 24672, Note_on_c, 8, 86, 0
10, 24672, Note_on_c, 8, 74, 0
10, 24672, Note_on_c, 8, 74, 100
10, 24672, Note_on_c, 8, 86, 100
10, 24696, Note_on_c, 8, 86, 0
10, 24696, Note_on_c, 8, 74, 0
10, 24720, Note_on_c, 8, 74, 100
10, 24720, Note_on_c, 8, 86, 100
10, 24816, Note_on_c, 8, 86, 0
10, 24816, Note_on_c, 8, 74, 0
10, 28032, Note_on_c, 8, 69, 100
10, 28032, Note_on_c, 8, 74, 100
10, 28080, Note_on_c, 8, 74, 0
10, 28080, Note_on_c, 8, 69, 0
10, 28080, Note_on_c, 8, 62, 100
10, 28128, Note_on_c, 8, 62, 0
10, 28128, Note_on_c, 8, 74, 100
10, 28128, Note_on_c, 8, 71, 100
10, 28176, Note_on_c, 8, 71, 0
10, 28176, Note_on_c, 8, 74, 0
10, 28176, Note_on_c, 8, 62, 100
10, 28224, Note_on_c, 8, 62, 0
10, 28224, Note_on_c, 8, 74, 100
10, 28224, Note_on_c, 8, 69, 100
10, 28272, Note_on_c, 8, 69, 0
10, 28272, Note_on_c, 8, 74, 0
10, 28272, Note_on_c, 8, 62, 100
10, 28320, Note_on_c, 8, 62, 0
10, 28320, Note_on_c, 8, 71, 100
10, 28320, Note_on_c, 8, 74, 100
10, 28368, Note_on_c, 8, 74, 0
10, 28368, Note_on_c, 8, 71, 0
10, 28368, Note_on_c, 8, 62, 100
10, 28416, Note_on_c, 8, 62, 0
10, 28416, Note_on_c, 8, 74, 100
10, 28416, Note_on_c, 8, 69, 100
10, 28464, Note_on_c, 8, 69, 0
10, 28464, Note_on_c, 8, 74, 0
10, 28464, Note_on_c, 8, 62, 100
10, 28512, Note_on_c, 8, 62, 0
10, 28512, Note_on_c, 8, 74, 100
10, 28512, Note_on_c, 8, 71, 100
10, 28560, Note_on_c, 8, 71, 0
10, 28560, Note_on_c, 8, 74, 0
10, 28560, Note_on_c, 8, 62, 100
10, 28608, Note_on_c, 8, 62, 0
10, 28608, Note_on_c, 8, 74, 100
10, 28608, Note_on_c, 8, 69, 100
10, 28656, Note_on_c, 8, 69, 0
10, 28656, Note_on_c, 8, 74, 0
10, 28656, Note_on_c, 8, 62, 100
10, 28704, Note_on_c, 8, 62, 0
10, 28704, Note_on_c, 8, 71, 100
10, 28704, Note_on_c, 8, 74, 100
10, 28752, Note_on_c, 8, 74, 0
10, 28752, Note_on_c, 8, 71, 0
10, 28752, Note_on_c, 8, 62, 100
10, 28800, Note_on_c, 8, 62, 0
10, 28800, Note_on_c, 8, 62, 100
10, 28800, Note_on_c, 8, 67, 100
10, 28848, Note_on_c, 8, 67, 0
10, 28848, Note_on_c, 8, 62, 0
10, 28848, Note_on_c, 8, 55, 100
10, 28896, Note_on_c, 8, 55, 0
10, 28896, Note_on_c, 8, 67, 100
10, 28896, Note_on_c, 8, 64, 100
10, 28944, Note_on_c, 8, 64, 0
10, 28944, Note_on_c, 8, 67, 0
10, 28944, Note_on_c, 8, 55, 100
10, 28992, Note_on_c, 8, 55, 0
10, 28992, Note_on_c, 8, 67, 100
10, 28992, Note_on_c, 8, 62, 100
10, 29040, Note_on_c, 8, 62, 0
10, 29040, Note_on_c, 8, 67, 0
10, 29040, Note_on_c, 8, 55, 100
10, 29088, Note_on_c, 8, 55, 0
10, 29088, Note_on_c, 8, 64, 100
10, 29088, Note_on_c, 8, 67, 100
10, 29136, Note_on_c, 8, 67, 0
10, 29136, Note_on_c, 8, 64, 0
10, 29136, Note_on_c, 8, 55, 100
10, 29184, Note_on_c, 8, 55, 0
10, 29184, Note_on_c, 8, 67, 100
10, 29184, Note_on_c, 8, 62, 100
10, 29232, Note_on_c, 8, 62, 0
10, 29232, Note_on_c, 8, 67, 0
10, 29232, Note_on_c, 8, 55, 100
10, 29280, Note_on_c, 8, 55, 0
10, 29280, Note_on_c, 8, 67, 100
10, 29280, Note_on_c, 8, 64, 100
10, 29328, Note_on_c, 8, 64, 0
10, 29328, Note_on_c, 8, 67, 0
10, 29328, Note_on_c, 8, 55, 100
10, 29376, Note_on_c, 8, 55, 0
10, 29376, Note_on_c, 8, 67, 100
10, 29376, Note_on_c, 8, 62, 100
10, 29424, Note_on_c, 8, 62, 0
10, 29424, Note_on_c, 8, 67, 0
10, 29424, Note_on_c, 8, 55, 100
10, 29472, Note_on_c, 8, 55, 0
10, 29472, Note_on_c, 8, 64, 100
10, 29472, Note_on_c, 8, 67, 100
10, 29520, Note_on_c, 8, 67, 0
10, 29520, Note_on_c, 8, 64, 0
10, 29520, Note_on_c, 8, 55, 100
10, 29568, Note_on_c, 8, 55, 0
10, 29616, Note_on_c, 8, 62, 100
10, 29664, Note_on_c, 8, 62, 0
10, 29664, Note_on_c, 8, 74, 100
10, 29664, Note_on_c, 8, 71, 100
10, 29712, Note_on_c, 8, 71, 0
10, 29712, Note_on_c, 8, 74, 0
10, 29712, Note_on_c, 8, 62, 100
10, 29760, Note_on_c, 8, 62, 0
10, 29760, Note_on_c, 8, 74, 100
10, 29760, Note_on_c, 8, 69, 100
10, 29808, Note_on_c, 8, 69, 0
10, 29808, Note_on_c, 8, 74, 0
10, 29808, Note_on_c, 8, 62, 100
10, 29856, Note_on_c, 8, 62, 0
10, 29856, Note_on_c, 8, 71, 100
10, 29856, Note_on_c, 8, 74, 100
10, 29904, Note_on_c, 8, 74, 0
10, 29904, Note_on_c, 8, 71, 0
10, 29904, Note_on_c, 8, 62, 100
10, 29952, Note_on_c, 8, 62, 0
10, 29952, Note_on_c, 8, 57, 100
10, 30000, Note_on_c, 8, 57, 0
10, 30000, Note_on_c, 8, 69, 100
10, 30000, Note_on_c, 8, 76, 100
10, 30000, Note_on_c, 8, 81, 100
10, 30048, Note_on_c, 8, 81, 0
10, 30048, Note_on_c, 8, 76, 0
10, 30048, Note_on_c, 8, 69, 0
10, 30048, Note_on_c, 8, 69, 100
10, 30048, Note_on_c, 8, 76, 100
10, 30048, Note_on_c, 8, 81, 100
10, 30072, Note_on_c, 8, 81, 0
10, 30072, Note_on_c, 8, 76, 0
10, 30072, Note_on_c, 8, 69, 0
10, 30096, Note_on_c, 8, 69, 100
10, 30096, Note_on_c, 8, 76, 100
10, 30096, Note_on_c, 8, 81, 100
10, 30144, Note_on_c, 8, 81, 0
10, 30144, Note_on_c, 8, 76, 0
10, 30144, Note_on_c, 8, 69, 0
10, 30144, Note_on_c, 8, 69, 100
10, 30144, Note_on_c, 8, 76, 100
10, 30144, Note_on_c, 8, 81, 100
10, 30168, Note_on_c, 8, 81, 0
10, 30168, Note_on_c, 8, 76, 0
10, 30168, Note_on_c, 8, 69, 0
10, 30192, Note_on_c, 8, 66, 100
10, 30192, Note_on_c, 8, 78, 100
10, 30240, Note_on_c, 8, 78, 0
10, 30240, Note_on_c, 8, 66, 0
10, 30240, Note_on_c, 8, 64, 100
10, 30240, Note_on_c, 8, 76, 100
10, 30288, Note_on_c, 8, 76, 0
10, 30288, Note_on_c, 8, 64, 0
10, 30288, Note_on_c, 8, 62, 100
10, 30288, Note_on_c, 8, 74, 100
10, 30360, Note_on_c, 8, 74, 0
10, 30360, Note_on_c, 8, 62, 0
10, 30384, Note_on_c, 8, 62, 100
10, 30432, Note_on_c, 8, 62, 0
10, 30432, Note_on_c, 8, 74, 100
10, 30432, Note_on_c, 8, 71, 100
10, 30480, Note_on_c, 8, 71, 0
10, 30480, Note_on_c, 8, 74, 0
10, 30480, Note_on_c, 8, 62, 100
10, 30528, Note_on_c, 8, 62, 0
10, 30528, Note_on_c, 8, 69, 100
10, 30528, Note_on_c, 8, 74, 100
10, 30576, Note_on_c, 8, 74, 0
10, 30576, Note_on_c, 8, 69, 0
10, 30576, Note_on_c, 8, 62, 100
10, 30624, Note_on_c, 8, 62, 0
10, 30624, Note_on_c, 8, 71, 100
10, 30624, Note_on_c, 8, 74, 100
10, 30672, Note_on_c, 8, 74, 0
10, 30672, Note_on_c, 8, 71, 0
10, 30672, Note_on_c, 8, 62, 100
10, 30720, Note_on_c, 8, 62, 0
10, 30720, Note_on_c, 8, 69, 100
10, 30720, Note_on_c, 8, 74, 100
10, 30768, Note_on_c, 8, 74, 0
10, 30768, Note_on_c, 8, 69, 0
10, 30768, Note_on_c, 8, 62, 100
10, 30816, Note_on_c, 8, 62, 0
10, 30816, Note_on_c, 8, 71, 100
10, 30816, Note_on_c, 8, 74, 100
10, 30864, Note_on_c, 8, 74, 0
10, 30864, Note_on_c, 8, 71, 0
10, 30864, Note_on_c, 8, 62, 100
10, 30912, Note_on_c, 8, 62, 0
10, 30912, Note_on_c, 8, 69, 100
10, 30912, Note_on_c, 8, 74, 100
10, 30960, Note_on_c, 8, 74, 0
10, 30960, Note_on_c, 8, 69, 0
10, 30964, Note_on_c, 8, 96, 64
10, 30967, Note_on_c, 8, 95, 95
10, 30972, Note_on_c, 8, 96, 0
10, 30975, Note_on_c, 8, 93, 70
10, 30981, Note_on_c, 8, 95, 0
10, 30983, Note_on_c, 8, 91, 74
10, 30991, Note_on_c, 8, 93, 0
10, 30991, Note_on_c, 8, 89, 89
10, 30998, Note_on_c, 8, 88, 87
10, 30999, Note_on_c, 8, 91, 0
10, 31004, Note_on_c, 8, 89, 0
10, 31005, Note_on_c, 8, 86, 102
10, 31010, Note_on_c, 8, 84, 106
10, 31011, Note_on_c, 8, 88, 0
10, 31017, Note_on_c, 8, 86, 0
10, 31017, Note_on_c, 8, 83, 99
10, 31023, Note_on_c, 8, 84, 0
10, 31023, Note_on_c, 8, 81, 93
10, 31029, Note_on_c, 8, 83, 0
10, 31031, Note_on_c, 8, 79, 93
10, 31037, Note_on_c, 8, 81, 0
10, 31038, Note_on_c, 8, 77, 78
10, 31044, Note_on_c, 8, 79, 0
10, 31044, Note_on_c, 8, 76, 89
10, 31052, Note_on_c, 8, 77, 0
10, 31052, Note_on_c, 8, 74, 85
10, 31058, Note_on_c, 8, 76, 0
10, 31058, Note_on_c, 8, 72, 95
10, 31064, Note_on_c, 8, 74, 0
10, 31064, Note_on_c, 8, 71, 76
10, 31069, Note_on_c, 8, 72, 0
10, 31070, Note_on_c, 8, 69, 110
10, 31073, Note_on_c, 8, 71, 0
10, 31074, Note_on_c, 8, 67, 112
10, 31075, Note_on_c, 8, 69, 0
10, 31077, Note_on_c, 8, 67, 0
10, 31081, Note_on_c, 8, 65, 16
10, 31087, Note_on_c, 8, 65, 0
10, 31152, Note_on_c, 8, 81, 89
10, 31152, Note_on_c, 8, 93, 89
10, 31152, Note_on_c, 8, 86, 89
10, 31160, Note_on_c, 8, 81, 0
10, 31161, Note_on_c, 8, 86, 0
10, 31165, Note_on_c, 8, 93, 0
10, 31200, Note_on_c, 8, 86, 89
10, 31200, Note_on_c, 8, 81, 89
10, 31200, Note_on_c, 8, 93, 89
10, 31207, Note_on_c, 8, 81, 0
10, 31207, Note_on_c, 8, 86, 0
10, 31213, Note_on_c, 8, 93, 0
10, 31246, Note_on_c, 8, 93, 89
10, 31246, Note_on_c, 8, 86, 89
10, 31246, Note_on_c, 8, 81, 89
10, 31253, Note_on_c, 8, 81, 0
10, 31254, Note_on_c, 8, 86, 0
10, 31270, Note_on_c, 8, 93, 0
10, 31295, Note_on_c, 8, 93, 89
10, 31295, Note_on_c, 8, 86, 89
10, 31295, Note_on_c, 8, 81, 89
10, 31302, Note_on_c, 8, 81, 0
10, 31303, Note_on_c, 8, 86, 0
10, 31305, Note_on_c, 8, 93, 0
10, 31343, Note_on_c, 8, 81, 89
10, 31343, Note_on_c, 8, 93, 89
10, 31343, Note_on_c, 8, 86, 89
10, 31350, Note_on_c, 8, 81, 0
10, 31351, Note_on_c, 8, 86, 0
10, 31353, Note_on_c, 8, 93, 0
10, 31391, Note_on_c, 8, 93, 89
10, 31391, Note_on_c, 8, 86, 89
10, 31391, Note_on_c, 8, 81, 89
10, 31398, Note_on_c, 8, 81, 0
10, 31399, Note_on_c, 8, 86, 0
10, 31402, Note_on_c, 8, 93, 0
10, 31438, Note_on_c, 8, 81, 89
10, 31438, Note_on_c, 8, 86, 89
10, 31438, Note_on_c, 8, 93, 89
10, 31446, Note_on_c, 8, 81, 0
10, 31447, Note_on_c, 8, 86, 0
10, 31451, Note_on_c, 8, 93, 0
10, 31488, Note_on_c, 8, 81, 89
10, 31488, Note_on_c, 8, 93, 89
10, 31488, Note_on_c, 8, 86, 89
10, 31496, Note_on_c, 8, 81, 0
10, 31497, Note_on_c, 8, 86, 0
10, 31500, Note_on_c, 8, 93, 0
10, 31536, Note_on_c, 8, 81, 89
10, 31536, Note_on_c, 8, 86, 89
10, 31536, Note_on_c, 8, 93, 89
10, 31543, Note_on_c, 8, 81, 0
10, 31544, Note_on_c, 8, 86, 0
10, 31548, Note_on_c, 8, 93, 0
10, 31583, Note_on_c, 8, 81, 89
10, 31583, Note_on_c, 8, 93, 89
10, 31583, Note_on_c, 8, 86, 89
10, 31592, Note_on_c, 8, 81, 0
10, 31593, Note_on_c, 8, 86, 0
10, 31597, Note_on_c, 8, 93, 0
10, 31631, Note_on_c, 8, 81, 89
10, 31632, Note_on_c, 8, 93, 89
10, 31633, Note_on_c, 8, 86, 89
10, 31642, Note_on_c, 8, 86, 0
10, 31642, Note_on_c, 8, 81, 0
10, 31645, Note_on_c, 8, 93, 0
10, 31681, Note_on_c, 8, 81, 89
10, 31681, Note_on_c, 8, 93, 89
10, 31681, Note_on_c, 8, 86, 89
10, 31690, Note_on_c, 8, 81, 0
10, 31691, Note_on_c, 8, 86, 0
10, 31696, Note_on_c, 8, 93, 0
10, 31729, Note_on_c, 8, 81, 89
10, 31729, Note_on_c, 8, 93, 89
10, 31729, Note_on_c, 8, 86, 89
10, 31733, Note_on_c, 8, 93, 0
10, 31740, Note_on_c, 8, 81, 0
10, 31742, Note_on_c, 8, 86, 0
10, 31776, Note_on_c, 8, 81, 89
10, 31777, Note_on_c, 8, 86, 89
10, 31777, Note_on_c, 8, 93, 89
10, 31787, Note_on_c, 8, 86, 0
10, 31787, Note_on_c, 8, 81, 0
10, 31795, Note_on_c, 8, 93, 0
10, 31824, Note_on_c, 8, 93, 89
10, 31824, Note_on_c, 8, 81, 89
10, 31825, Note_on_c, 8, 86, 89
10, 31835, Note_on_c, 8, 81, 0
10, 31837, Note_on_c, 8, 93, 0
10, 31838, Note_on_c, 8, 86, 0
10, 31872, Note_on_c, 8, 82, 89
10, 31872, Note_on_c, 8, 79, 89
10, 31893, Note_on_c, 8, 82, 0
10, 31894, Note_on_c, 8, 79, 0
10, 31918, Note_on_c, 8, 79, 89
10, 31918, Note_on_c, 8, 83, 89
10, 31928, Note_on_c, 8, 83, 0
10, 31929, Note_on_c, 8, 79, 0
10, 31968, Note_on_c, 8, 83, 89
10, 31968, Note_on_c, 8, 79, 89
10, 31978, Note_on_c, 8, 79, 0
10, 31979, Note_on_c, 8, 83, 0
10, 32017, Note_on_c, 8, 79, 89
10, 32018, Note_on_c, 8, 83, 89
10, 32030, Note_on_c, 8, 79, 0
10, 32031, Note_on_c, 8, 83, 0
10, 32066, Note_on_c, 8, 83, 89
10, 32067, Note_on_c, 8, 79, 89
10, 32083, Note_on_c, 8, 83, 0
10, 32084, Note_on_c, 8, 79, 0
10, 32112, Note_on_c, 8, 83, 88
10, 32112, Note_on_c, 8, 79, 88
10, 32123, Note_on_c, 8, 79, 0
10, 32123, Note_on_c, 8, 83, 0
10, 32158, Note_on_c, 8, 79, 88
10, 32158, Note_on_c, 8, 83, 88
10, 32169, Note_on_c, 8, 83, 0
10, 32169, Note_on_c, 8, 79, 0
10, 32207, Note_on_c, 8, 79, 88
10, 32207, Note_on_c, 8, 83, 88
10, 32219, Note_on_c, 8, 79, 0
10, 32220, Note_on_c, 8, 83, 0
10, 32256, Note_on_c, 8, 83, 87
10, 32256, Note_on_c, 8, 79, 87
10, 32265, Note_on_c, 8, 79, 0
10, 32270, Note_on_c, 8, 83, 0
10, 32302, Note_on_c, 8, 79, 87
10, 32303, Note_on_c, 8, 83, 87
10, 32314, Note_on_c, 8, 83, 0
10, 32314, Note_on_c, 8, 79, 0
10, 32353, Note_on_c, 8, 79, 87
10, 32353, Note_on_c, 8, 83, 87
10, 32369, Note_on_c, 8, 83, 0
10, 32371, Note_on_c, 8, 79, 0
10, 32400, Note_on_c, 8, 77, 87
10, 32400, Note_on_c, 8, 82, 87
10, 32424, Note_on_c, 8, 82, 0
10, 32424, Note_on_c, 8, 77, 0
10, 32448, Note_on_c, 8, 76, 87
10, 32449, Note_on_c, 8, 81, 87
10, 32494, Note_on_c, 8, 81, 0
10, 32496, Note_on_c, 8, 76, 0
10, 32496, Note_on_c, 8, 74, 87
10, 32497, Note_on_c, 8, 79, 87
10, 32544, Note_on_c, 8, 79, 0
10, 32544, Note_on_c, 8, 74, 0
10, 32544, Note_on_c, 8, 71, 87
10, 32544, Note_on_c, 8, 76, 87
10, 32568, Note_on_c, 8, 71, 0
10, 32592, Note_on_c, 8, 74, 85
10, 32593, Note_on_c, 8, 76, 0
10, 32594, Note_on_c, 8, 79, 85
10, 32635, Note_on_c, 8, 79, 0
10, 32640, Note_on_c, 8, 74, 0
10, 32679, Note_on_c, 8, 80, 83
10, 32679, Note_on_c, 8, 77, 83
10, 32687, Note_on_c, 8, 77, 0
10, 32687, Note_on_c, 8, 80, 0
10, 32688, Note_on_c, 8, 78, 83
10, 32688, Note_on_c, 8, 81, 83
10, 32713, Note_on_c, 8, 78, 0
10, 32714, Note_on_c, 8, 81, 0
10, 32736, Note_on_c, 8, 78, 83
10, 32741, Note_on_c, 8, 83, 83
10, 32780, Note_on_c, 8, 74, 82
10, 32786, Note_on_c, 8, 78, 0
10, 32791, Note_on_c, 8, 83, 0
10, 32830, Note_on_c, 8, 74, 0
10, 32833, Note_on_c, 8, 81, 82
10, 32840, Note_on_c, 8, 78, 82
10, 32876, Note_on_c, 8, 74, 82
10, 32888, Note_on_c, 8, 81, 0
10, 32895, Note_on_c, 8, 78, 0
10, 32926, Note_on_c, 8, 74, 0
10, 32929, Note_on_c, 8, 83, 82
10, 32931, Note_on_c, 8, 78, 82
10, 32942, Note_on_c, 8, 78, 0
10, 32943, Note_on_c, 8, 83, 0
10, 32978, Note_on_c, 8, 92, 80
10, 32978, Note_on_c, 8, 80, 80
10, 32985, Note_on_c, 8, 93, 80
10, 32985, Note_on_c, 8, 81, 80
10, 32992, Note_on_c, 8, 80, 0
10, 32994, Note_on_c, 8, 92, 0
10, 33045, Note_on_c, 8, 93, 0
10, 33046, Note_on_c, 8, 81, 0
10, 33072, Note_on_c, 8, 81, 80
10, 33072, Note_on_c, 8, 93, 80
10, 33094, Note_on_c, 8, 81, 0
10, 33096, Note_on_c, 8, 93, 0
10, 33120, Note_on_c, 8, 81, 80
10, 33120, Note_on_c, 8, 93, 80
10, 33152, Note_on_c, 8, 81, 0
10, 33158, Note_on_c, 8, 93, 0
10, 33169, Note_on_c, 8, 92, 80
10, 33170, Note_on_c, 8, 80, 80
10, 33187, Note_on_c, 8, 92, 0
10, 33192, Note_on_c, 8, 80, 0
10, 33216, Note_on_c, 8, 79, 80
10, 33221, Note_on_c, 8, 91, 80
10, 33257, Note_on_c, 8, 79, 0
10, 33261, Note_on_c, 8, 91, 0
10, 33263, Note_on_c, 8, 78, 80
10, 33263, Note_on_c, 8, 90, 80
10, 33279, Note_on_c, 8, 90, 0
10, 33288, Note_on_c, 8, 78, 0
10, 33313, Note_on_c, 8, 76, 80
10, 33313, Note_on_c, 8, 88, 80
10, 33320, Note_on_c, 8, 77, 80
10, 33321, Note_on_c, 8, 89, 80
10, 33327, Note_on_c, 8, 88, 0
10, 33327, Note_on_c, 8, 76, 0
10, 33351, Note_on_c, 8, 77, 0
10, 33353, Note_on_c, 8, 89, 0
10, 33360, Note_on_c, 8, 86, 80
10, 33362, Note_on_c, 8, 74, 80
10, 33445, Note_on_c, 8, 86, 0
10, 33452, Note_on_c, 8, 74, 0
10, 34992, Note_on_c, 8, 86, 82
10, 34992, Note_on_c, 8, 93, 82
10, 35016, Note_on_c, 8, 93, 0
10, 35016, Note_on_c, 8, 86, 0
10, 35040, Note_on_c, 8, 86, 82
10, 35040, Note_on_c, 8, 93, 82
10, 35064, Note_on_c, 8, 93, 0
10, 35064, Note_on_c, 8, 86, 0
10, 35088, Note_on_c, 8, 86, 82
10, 35088, Note_on_c, 8, 93, 82
10, 35112, Note_on_c, 8, 93, 0
10, 35112, Note_on_c, 8, 86, 0
10, 35136, Note_on_c, 8, 86, 82
10, 35136, Note_on_c, 8, 93, 82
10, 35160, Note_on_c, 8, 93, 0
10, 35160, Note_on_c, 8, 86, 0
10, 35184, Note_on_c, 8, 86, 82
10, 35184, Note_on_c, 8, 93, 82
10, 35208, Note_on_c, 8, 93, 0
10, 35208, Note_on_c, 8, 86, 0
10, 35232, Note_on_c, 8, 86, 82
10, 35232, Note_on_c, 8, 93, 82
10, 35256, Note_on_c, 8, 93, 0
10, 35256, Note_on_c, 8, 86, 0
10, 35280, Note_on_c, 8, 86, 82
10, 35280, Note_on_c, 8, 93, 82
10, 35304, Note_on_c, 8, 93, 0
10, 35304, Note_on_c, 8, 86, 0
10, 35328, Note_on_c, 8, 86, 82
10, 35328, Note_on_c, 8, 93, 82
10, 35352, Note_on_c, 8, 93, 0
10, 35352, Note_on_c, 8, 86, 0
10, 35376, Note_on_c, 8, 86, 82
10, 35376, Note_on_c, 8, 93, 82
10, 35400, Note_on_c, 8, 93, 0
10, 35400, Note_on_c, 8, 86, 0
10, 35424, Note_on_c, 8, 86, 82
10, 35424, Note_on_c, 8, 93, 82
10, 35448, Note_on_c, 8, 93, 0
10, 35448, Note_on_c, 8, 86, 0
10, 35472, Note_on_c, 8, 86, 82
10, 35472, Note_on_c, 8, 93, 82
10, 35496, Note_on_c, 8, 93, 0
10, 35496, Note_on_c, 8, 86, 0
10, 35520, Note_on_c, 8, 86, 82
10, 35520, Note_on_c, 8, 93, 82
10, 35544, Note_on_c, 8, 93, 0
10, 35544, Note_on_c, 8, 86, 0
10, 35568, Note_on_c, 8, 86, 82
10, 35568, Note_on_c, 8, 93, 82
10, 35592, Note_on_c, 8, 93, 0
10, 35592, Note_on_c, 8, 86, 0
10, 35616, Note_on_c, 8, 93, 82
10, 35616, Note_on_c, 8, 86, 82
10, 35640, Note_on_c, 8, 86, 0
10, 35640, Note_on_c, 8, 93, 0
10, 35664, Note_on_c, 8, 86, 82
10, 35664, Note_on_c, 8, 93, 82
10, 35688, Note_on_c, 8, 93, 0
10, 35688, Note_on_c, 8, 86, 0
10, 35712, Note_on_c, 8, 86, 82
10, 35712, Note_on_c, 8, 98, 82
10, 35736, Note_on_c, 8, 98, 0
10, 35736, Note_on_c, 8, 86, 0
10, 35760, Note_on_c, 8, 83, 82
10, 35760, Note_on_c, 8, 95, 82
10, 35784, Note_on_c, 8, 95, 0
10, 35784, Note_on_c, 8, 83, 0
10, 35808, Note_on_c, 8, 81, 82
10, 35808, Note_on_c, 8, 93, 82
10, 35832, Note_on_c, 8, 93, 0
10, 35832, Note_on_c, 8, 81, 0
10, 35856, Note_on_c, 8, 79, 82
10, 35856, Note_on_c, 8, 91, 82
10, 35880, Note_on_c, 8, 91, 0
10, 35880, Note_on_c, 8, 79, 0
10, 35904, Note_on_c, 8, 78, 82
10, 35904, Note_on_c, 8, 90, 82
10, 35928, Note_on_c, 8, 90, 0
10, 35928, Note_on_c, 8, 78, 0
10, 35952, Note_on_c, 8, 81, 82
10, 35952, Note_on_c, 8, 86, 82
10, 35976, Note_on_c, 8, 86, 0
10, 35976, Note_on_c, 8, 81, 0
10, 36000, Note_on_c, 8, 86, 82
10, 36000, Note_on_c, 8, 83, 82
10, 36024, Note_on_c, 8, 83, 0
10, 36024, Note_on_c, 8, 86, 0
10, 36048, Note_on_c, 8, 74, 82
10, 36048, Note_on_c, 8, 81, 82
10, 36072, Note_on_c, 8, 81, 0
10, 36072, Note_on_c, 8, 74, 0
10, 36096, Note_on_c, 8, 78, 82
10, 36096, Note_on_c, 8, 90, 82
10, 36120, Note_on_c, 8, 90, 0
10, 36120, Note_on_c, 8, 78, 0
10, 36144, Note_on_c, 8, 77, 82
10, 36144, Note_on_c, 8, 89, 82
10, 36168, Note_on_c, 8, 89, 0
10, 36168, Note_on_c, 8, 77, 0
10, 36192, Note_on_c, 8, 76, 82
10, 36192, Note_on_c, 8, 88, 82
10, 36216, Note_on_c, 8, 88, 0
10, 36216, Note_on_c, 8, 76, 0
10, 36240, Note_on_c, 8, 62, 82
10, 36240, Note_on_c, 8, 69, 82
10, 36240, Note_on_c, 8, 74, 82
10, 36240, Note_on_c, 8, 86, 82
10, 36480, Note_on_c, 8, 86, 0
10, 36864, Note_on_c, 8, 62, 0
10, 36864, Note_on_c, 8, 69, 0
10, 36864, Note_on_c, 8, 74, 0
10, 36864, End_track
11, 0, Start_track
11, 0, MIDI_port, 0
11, 0, Title_t, "Drums"
11, 0, Program_c, 9, 0
11, 0, Control_c, 9, 7, 124
11, 1, Program_c, 9, 0
11, 2, Control_c, 9, 7, 124
11, 1776, Note_on_c, 9, 40, 127
11, 1776, Note_on_c, 9, 46, 117
11, 1788, Note_on_c, 9, 46, 0
11, 1788, Note_on_c, 9, 40, 0
11, 1824, Note_on_c, 9, 40, 127
11, 1824, Note_on_c, 9, 46, 117
11, 1836, Note_on_c, 9, 46, 0
11, 1836, Note_on_c, 9, 40, 0
11, 1872, Note_on_c, 9, 40, 127
11, 1872, Note_on_c, 9, 46, 117
11, 1884, Note_on_c, 9, 46, 0
11, 1884, Note_on_c, 9, 40, 0
11, 1920, Note_on_c, 9, 36, 118
11, 1920, Note_on_c, 9, 57, 96
11, 1932, Note_on_c, 9, 57, 0
11, 1932, Note_on_c, 9, 36, 0
11, 1968, Note_on_c, 9, 46, 82
11, 1980, Note_on_c, 9, 46, 0
11, 2016, Note_on_c, 9, 40, 127
11, 2016, Note_on_c, 9, 46, 104
11, 2028, Note_on_c, 9, 46, 0
11, 2028, Note_on_c, 9, 40, 0
11, 2064, Note_on_c, 9, 46, 85
11, 2076, Note_on_c, 9, 46, 0
11, 2112, Note_on_c, 9, 36, 118
11, 2112, Note_on_c, 9, 46, 104
11, 2124, Note_on_c, 9, 46, 0
11, 2124, Note_on_c, 9, 36, 0
11, 2160, Note_on_c, 9, 46, 84
11, 2172, Note_on_c, 9, 46, 0
11, 2208, Note_on_c, 9, 40, 127
11, 2208, Note_on_c, 9, 46, 104
11, 2220, Note_on_c, 9, 46, 0
11, 2220, Note_on_c, 9, 40, 0
11, 2256, Note_on_c, 9, 46, 84
11, 2268, Note_on_c, 9, 46, 0
11, 2304, Note_on_c, 9, 36, 118
11, 2304, Note_on_c, 9, 46, 104
11, 2316, Note_on_c, 9, 46, 0
11, 2316, Note_on_c, 9, 36, 0
11, 2352, Note_on_c, 9, 46, 84
11, 2364, Note_on_c, 9, 46, 0
11, 2400, Note_on_c, 9, 40, 127
11, 2400, Note_on_c, 9, 46, 104
11, 2412, Note_on_c, 9, 46, 0
11, 2412, Note_on_c, 9, 40, 0
11, 2448, Note_on_c, 9, 46, 84
11, 2460, Note_on_c, 9, 46, 0
11, 2496, Note_on_c, 9, 36, 118
11, 2496, Note_on_c, 9, 46, 104
11, 2508, Note_on_c, 9, 46, 0
11, 2508, Note_on_c, 9, 36, 0
11, 2544, Note_on_c, 9, 46, 84
11, 2556, Note_on_c, 9, 46, 0
11, 2592, Note_on_c, 9, 40, 127
11, 2592, Note_on_c, 9, 46, 104
11, 2604, Note_on_c, 9, 46, 0
11, 2604, Note_on_c, 9, 40, 0
11, 2640, Note_on_c, 9, 46, 84
11, 2652, Note_on_c, 9, 46, 0
11, 2688, Note_on_c, 9, 36, 118
11, 2688, Note_on_c, 9, 46, 104
11, 2700, Note_on_c, 9, 46, 0
11, 2700, Note_on_c, 9, 36, 0
11, 2736, Note_on_c, 9, 46, 84
11, 2748, Note_on_c, 9, 46, 0
11, 2784, Note_on_c, 9, 40, 127
11, 2784, Note_on_c, 9, 46, 104
11, 2796, Note_on_c, 9, 46, 0
11, 2796, Note_on_c, 9, 40, 0
11, 2832, Note_on_c, 9, 46, 85
11, 2844, Note_on_c, 9, 46, 0
11, 2880, Note_on_c, 9, 36, 118
11, 2880, Note_on_c, 9, 46, 104
11, 2892, Note_on_c, 9, 46, 0
11, 2892, Note_on_c, 9, 36, 0
11, 2928, Note_on_c, 9, 46, 84
11, 2940, Note_on_c, 9, 46, 0
11, 2976, Note_on_c, 9, 40, 127
11, 2976, Note_on_c, 9, 46, 104
11, 2988, Note_on_c, 9, 46, 0
11, 2988, Note_on_c, 9, 40, 0
11, 3024, Note_on_c, 9, 46, 84
11, 3036, Note_on_c, 9, 46, 0
11, 3072, Note_on_c, 9, 36, 118
11, 3072, Note_on_c, 9, 46, 104
11, 3084, Note_on_c, 9, 46, 0
11, 3084, Note_on_c, 9, 36, 0
11, 3120, Note_on_c, 9, 46, 86
11, 3132, Note_on_c, 9, 46, 0
11, 3168, Note_on_c, 9, 40, 112
11, 3168, Note_on_c, 9, 46, 107
11, 3180, Note_on_c, 9, 46, 0
11, 3180, Note_on_c, 9, 40, 0
11, 3216, Note_on_c, 9, 36, 118
11, 3216, Note_on_c, 9, 46, 115
11, 3228, Note_on_c, 9, 46, 0
11, 3228, Note_on_c, 9, 36, 0
11, 3264, Note_on_c, 9, 36, 118
11, 3264, Note_on_c, 9, 46, 120
11, 3276, Note_on_c, 9, 46, 0
11, 3276, Note_on_c, 9, 36, 0
11, 3312, Note_on_c, 9, 40, 121
11, 3324, Note_on_c, 9, 40, 0
11, 3336, Note_on_c, 9, 40, 121
11, 3348, Note_on_c, 9, 40, 0
11, 3360, Note_on_c, 9, 36, 118
11, 3372, Note_on_c, 9, 36, 0
11, 3384, Note_on_c, 9, 40, 121
11, 3396, Note_on_c, 9, 40, 0
11, 3408, Note_on_c, 9, 40, 121
11, 3420, Note_on_c, 9, 40, 0
11, 3432, Note_on_c, 9, 40, 121
11, 3444, Note_on_c, 9, 40, 0
11, 3456, Note_on_c, 9, 36, 118
11, 3456, Note_on_c, 9, 49, 102
11, 3468, Note_on_c, 9, 49, 0
11, 3468, Note_on_c, 9, 36, 0
11, 3504, Note_on_c, 9, 46, 84
11, 3516, Note_on_c, 9, 46, 0
11, 3552, Note_on_c, 9, 40, 127
11, 3552, Note_on_c, 9, 46, 105
11, 3564, Note_on_c, 9, 46, 0
11, 3564, Note_on_c, 9, 40, 0
11, 3600, Note_on_c, 9, 46, 83
11, 3612, Note_on_c, 9, 46, 0
11, 3648, Note_on_c, 9, 36, 118
11, 3648, Note_on_c, 9, 46, 100
11, 3660, Note_on_c, 9, 46, 0
11, 3660, Note_on_c, 9, 36, 0
11, 3696, Note_on_c, 9, 46, 83
11, 3708, Note_on_c, 9, 46, 0
11, 3744, Note_on_c, 9, 40, 127
11, 3744, Note_on_c, 9, 46, 99
11, 3756, Note_on_c, 9, 46, 0
11, 3756, Note_on_c, 9, 40, 0
11, 3792, Note_on_c, 9, 46, 81
11, 3804, Note_on_c, 9, 46, 0
11, 3840, Note_on_c, 9, 36, 118
11, 3840, Note_on_c, 9, 46, 102
11, 3852, Note_on_c, 9, 46, 0
11, 3852, Note_on_c, 9, 36, 0
11, 3888, Note_on_c, 9, 46, 84
11, 3900, Note_on_c, 9, 46, 0
11, 3936, Note_on_c, 9, 40, 127
11, 3936, Note_on_c, 9, 46, 105
11, 3948, Note_on_c, 9, 46, 0
11, 3948, Note_on_c, 9, 40, 0
11, 3984, Note_on_c, 9, 46, 83
11, 3996, Note_on_c, 9, 46, 0
11, 4032, Note_on_c, 9, 36, 118
11, 4032, Note_on_c, 9, 46, 100
11, 4044, Note_on_c, 9, 46, 0
11, 4044, Note_on_c, 9, 36, 0
11, 4080, Note_on_c, 9, 46, 83
11, 4092, Note_on_c, 9, 46, 0
11, 4128, Note_on_c, 9, 40, 127
11, 4128, Note_on_c, 9, 46, 99
11, 4140, Note_on_c, 9, 46, 0
11, 4140, Note_on_c, 9, 40, 0
11, 4176, Note_on_c, 9, 46, 81
11, 4188, Note_on_c, 9, 46, 0
11, 4224, Note_on_c, 9, 36, 118
11, 4224, Note_on_c, 9, 46, 102
11, 4236, Note_on_c, 9, 46, 0
11, 4236, Note_on_c, 9, 36, 0
11, 4272, Note_on_c, 9, 46, 84
11, 4284, Note_on_c, 9, 46, 0
11, 4320, Note_on_c, 9, 40, 127
11, 4320, Note_on_c, 9, 46, 105
11, 4332, Note_on_c, 9, 46, 0
11, 4332, Note_on_c, 9, 40, 0
11, 4368, Note_on_c, 9, 46, 83
11, 4380, Note_on_c, 9, 46, 0
11, 4416, Note_on_c, 9, 36, 118
11, 4416, Note_on_c, 9, 46, 100
11, 4428, Note_on_c, 9, 46, 0
11, 4428, Note_on_c, 9, 36, 0
11, 4464, Note_on_c, 9, 46, 83
11, 4476, Note_on_c, 9, 46, 0
11, 4512, Note_on_c, 9, 40, 127
11, 4512, Note_on_c, 9, 46, 99
11, 4524, Note_on_c, 9, 46, 0
11, 4524, Note_on_c, 9, 40, 0
11, 4560, Note_on_c, 9, 46, 81
11, 4572, Note_on_c, 9, 46, 0
11, 4608, Note_on_c, 9, 36, 118
11, 4608, Note_on_c, 9, 46, 102
11, 4620, Note_on_c, 9, 46, 0
11, 4620, Note_on_c, 9, 36, 0
11, 4656, Note_on_c, 9, 46, 84
11, 4668, Note_on_c, 9, 46, 0
11, 4704, Note_on_c, 9, 40, 127
11, 4704, Note_on_c, 9, 46, 105
11, 4716, Note_on_c, 9, 46, 0
11, 4716, Note_on_c, 9, 40, 0
11, 4752, Note_on_c, 9, 46, 83
11, 4764, Note_on_c, 9, 46, 0
11, 4800, Note_on_c, 9, 36, 118
11, 4800, Note_on_c, 9, 46, 100
11, 4812, Note_on_c, 9, 46, 0
11, 4812, Note_on_c, 9, 36, 0
11, 4848, Note_on_c, 9, 36, 118
11, 4848, Note_on_c, 9, 46, 83
11, 4860, Note_on_c, 9, 46, 0
11, 4860, Note_on_c, 9, 36, 0
11, 4896, Note_on_c, 9, 40, 127
11, 4896, Note_on_c, 9, 46, 99
11, 4908, Note_on_c, 9, 46, 0
11, 4908, Note_on_c, 9, 40, 0
11, 4944, Note_on_c, 9, 36, 118
11, 4944, Note_on_c, 9, 46, 81
11, 4956, Note_on_c, 9, 46, 0
11, 4956, Note_on_c, 9, 36, 0
11, 4992, Note_on_c, 9, 36, 118
11, 4992, Note_on_c, 9, 57, 102
11, 5004, Note_on_c, 9, 57, 0
11, 5004, Note_on_c, 9, 36, 0
11, 5040, Note_on_c, 9, 46, 84
11, 5052, Note_on_c, 9, 46, 0
11, 5088, Note_on_c, 9, 40, 127
11, 5088, Note_on_c, 9, 46, 105
11, 5100, Note_on_c, 9, 46, 0
11, 5100, Note_on_c, 9, 40, 0
11, 5136, Note_on_c, 9, 46, 83
11, 5148, Note_on_c, 9, 46, 0
11, 5184, Note_on_c, 9, 36, 118
11, 5184, Note_on_c, 9, 46, 100
11, 5196, Note_on_c, 9, 46, 0
11, 5196, Note_on_c, 9, 36, 0
11, 5232, Note_on_c, 9, 46, 83
11, 5244, Note_on_c, 9, 46, 0
11, 5280, Note_on_c, 9, 40, 127
11, 5280, Note_on_c, 9, 46, 99
11, 5292, Note_on_c, 9, 46, 0
11, 5292, Note_on_c, 9, 40, 0
11, 5328, Note_on_c, 9, 46, 81
11, 5340, Note_on_c, 9, 46, 0
11, 5376, Note_on_c, 9, 36, 118
11, 5376, Note_on_c, 9, 46, 96
11, 5388, Note_on_c, 9, 46, 0
11, 5388, Note_on_c, 9, 36, 0
11, 5424, Note_on_c, 9, 46, 84
11, 5436, Note_on_c, 9, 46, 0
11, 5472, Note_on_c, 9, 40, 127
11, 5472, Note_on_c, 9, 46, 105
11, 5484, Note_on_c, 9, 46, 0
11, 5484, Note_on_c, 9, 40, 0
11, 5520, Note_on_c, 9, 46, 83
11, 5532, Note_on_c, 9, 46, 0
11, 5568, Note_on_c, 9, 36, 118
11, 5568, Note_on_c, 9, 46, 100
11, 5580, Note_on_c, 9, 46, 0
11, 5580, Note_on_c, 9, 36, 0
11, 5616, Note_on_c, 9, 46, 83
11, 5628, Note_on_c, 9, 46, 0
11, 5664, Note_on_c, 9, 40, 127
11, 5664, Note_on_c, 9, 46, 99
11, 5676, Note_on_c, 9, 46, 0
11, 5676, Note_on_c, 9, 40, 0
11, 5712, Note_on_c, 9, 46, 81
11, 5712, Note_on_c, 9, 36, 118
11, 5724, Note_on_c, 9, 36, 0
11, 5724, Note_on_c, 9, 46, 0
11, 5760, Note_on_c, 9, 36, 118
11, 5760, Note_on_c, 9, 46, 102
11, 5772, Note_on_c, 9, 46, 0
11, 5772, Note_on_c, 9, 36, 0
11, 5808, Note_on_c, 9, 46, 84
11, 5820, Note_on_c, 9, 46, 0
11, 5856, Note_on_c, 9, 40, 127
11, 5856, Note_on_c, 9, 46, 105
11, 5868, Note_on_c, 9, 46, 0
11, 5868, Note_on_c, 9, 40, 0
11, 5904, Note_on_c, 9, 46, 83
11, 5916, Note_on_c, 9, 46, 0
11, 5952, Note_on_c, 9, 36, 118
11, 5952, Note_on_c, 9, 46, 100
11, 5964, Note_on_c, 9, 46, 0
11, 5964, Note_on_c, 9, 36, 0
11, 6000, Note_on_c, 9, 46, 83
11, 6012, Note_on_c, 9, 46, 0
11, 6048, Note_on_c, 9, 40, 127
11, 6048, Note_on_c, 9, 46, 99
11, 6060, Note_on_c, 9, 46, 0
11, 6060, Note_on_c, 9, 40, 0
11, 6096, Note_on_c, 9, 46, 81
11, 6108, Note_on_c, 9, 46, 0
11, 6144, Note_on_c, 9, 36, 118
11, 6144, Note_on_c, 9, 46, 102
11, 6156, Note_on_c, 9, 46, 0
11, 6156, Note_on_c, 9, 36, 0
11, 6192, Note_on_c, 9, 46, 84
11, 6204, Note_on_c, 9, 46, 0
11, 6240, Note_on_c, 9, 40, 127
11, 6240, Note_on_c, 9, 46, 105
11, 6252, Note_on_c, 9, 46, 0
11, 6252, Note_on_c, 9, 40, 0
11, 6288, Note_on_c, 9, 46, 83
11, 6300, Note_on_c, 9, 46, 0
11, 6336, Note_on_c, 9, 36, 118
11, 6336, Note_on_c, 9, 46, 100
11, 6348, Note_on_c, 9, 46, 0
11, 6348, Note_on_c, 9, 36, 0
11, 6384, Note_on_c, 9, 36, 118
11, 6384, Note_on_c, 9, 46, 105
11, 6396, Note_on_c, 9, 46, 0
11, 6396, Note_on_c, 9, 36, 0
11, 6432, Note_on_c, 9, 40, 127
11, 6432, Note_on_c, 9, 46, 105
11, 6444, Note_on_c, 9, 46, 0
11, 6444, Note_on_c, 9, 40, 0
11, 6480, Note_on_c, 9, 36, 118
11, 6480, Note_on_c, 9, 46, 81
11, 6492, Note_on_c, 9, 46, 0
11, 6492, Note_on_c, 9, 36, 0
11, 6528, Note_on_c, 9, 36, 118
11, 6528, Note_on_c, 9, 49, 96
11, 6540, Note_on_c, 9, 49, 0
11, 6540, Note_on_c, 9, 36, 0
11, 6576, Note_on_c, 9, 46, 84
11, 6588, Note_on_c, 9, 46, 0
11, 6624, Note_on_c, 9, 40, 127
11, 6624, Note_on_c, 9, 46, 105
11, 6636, Note_on_c, 9, 46, 0
11, 6636, Note_on_c, 9, 40, 0
11, 6672, Note_on_c, 9, 46, 83
11, 6684, Note_on_c, 9, 46, 0
11, 6720, Note_on_c, 9, 36, 118
11, 6720, Note_on_c, 9, 46, 100
11, 6732, Note_on_c, 9, 46, 0
11, 6732, Note_on_c, 9, 36, 0
11, 6768, Note_on_c, 9, 46, 83
11, 6780, Note_on_c, 9, 46, 0
11, 6816, Note_on_c, 9, 40, 127
11, 6816, Note_on_c, 9, 46, 99
11, 6828, Note_on_c, 9, 46, 0
11, 6828, Note_on_c, 9, 40, 0
11, 6864, Note_on_c, 9, 46, 81
11, 6876, Note_on_c, 9, 46, 0
11, 6912, Note_on_c, 9, 36, 118
11, 6912, Note_on_c, 9, 46, 102
11, 6924, Note_on_c, 9, 46, 0
11, 6924, Note_on_c, 9, 36, 0
11, 6960, Note_on_c, 9, 46, 84
11, 6972, Note_on_c, 9, 46, 0
11, 7008, Note_on_c, 9, 40, 127
11, 7008, Note_on_c, 9, 46, 105
11, 7020, Note_on_c, 9, 46, 0
11, 7020, Note_on_c, 9, 40, 0
11, 7056, Note_on_c, 9, 46, 83
11, 7068, Note_on_c, 9, 46, 0
11, 7104, Note_on_c, 9, 36, 118
11, 7104, Note_on_c, 9, 46, 100
11, 7116, Note_on_c, 9, 46, 0
11, 7116, Note_on_c, 9, 36, 0
11, 7152, Note_on_c, 9, 46, 83
11, 7164, Note_on_c, 9, 46, 0
11, 7200, Note_on_c, 9, 40, 127
11, 7200, Note_on_c, 9, 46, 99
11, 7212, Note_on_c, 9, 46, 0
11, 7212, Note_on_c, 9, 40, 0
11, 7248, Note_on_c, 9, 46, 81
11, 7260, Note_on_c, 9, 46, 0
11, 7296, Note_on_c, 9, 36, 118
11, 7296, Note_on_c, 9, 46, 102
11, 7308, Note_on_c, 9, 46, 0
11, 7308, Note_on_c, 9, 36, 0
11, 7344, Note_on_c, 9, 46, 84
11, 7356, Note_on_c, 9, 46, 0
11, 7392, Note_on_c, 9, 40, 127
11, 7392, Note_on_c, 9, 46, 105
11, 7404, Note_on_c, 9, 46, 0
11, 7404, Note_on_c, 9, 40, 0
11, 7440, Note_on_c, 9, 46, 83
11, 7452, Note_on_c, 9, 46, 0
11, 7488, Note_on_c, 9, 36, 118
11, 7488, Note_on_c, 9, 46, 100
11, 7500, Note_on_c, 9, 46, 0
11, 7500, Note_on_c, 9, 36, 0
11, 7536, Note_on_c, 9, 46, 83
11, 7548, Note_on_c, 9, 46, 0
11, 7584, Note_on_c, 9, 40, 127
11, 7584, Note_on_c, 9, 46, 99
11, 7596, Note_on_c, 9, 46, 0
11, 7596, Note_on_c, 9, 40, 0
11, 7632, Note_on_c, 9, 46, 81
11, 7644, Note_on_c, 9, 46, 0
11, 7680, Note_on_c, 9, 36, 118
11, 7680, Note_on_c, 9, 46, 102
11, 7692, Note_on_c, 9, 46, 0
11, 7692, Note_on_c, 9, 36, 0
11, 7728, Note_on_c, 9, 46, 84
11, 7740, Note_on_c, 9, 46, 0
11, 7776, Note_on_c, 9, 40, 127
11, 7776, Note_on_c, 9, 46, 105
11, 7788, Note_on_c, 9, 46, 0
11, 7788, Note_on_c, 9, 40, 0
11, 7824, Note_on_c, 9, 46, 83
11, 7836, Note_on_c, 9, 46, 0
11, 7872, Note_on_c, 9, 36, 118
11, 7872, Note_on_c, 9, 46, 100
11, 7884, Note_on_c, 9, 46, 0
11, 7884, Note_on_c, 9, 36, 0
11, 7920, Note_on_c, 9, 36, 118
11, 7920, Note_on_c, 9, 46, 83
11, 7932, Note_on_c, 9, 46, 0
11, 7932, Note_on_c, 9, 36, 0
11, 7968, Note_on_c, 9, 40, 127
11, 7968, Note_on_c, 9, 46, 99
11, 7980, Note_on_c, 9, 46, 0
11, 7980, Note_on_c, 9, 40, 0
11, 8016, Note_on_c, 9, 36, 118
11, 8016, Note_on_c, 9, 46, 81
11, 8028, Note_on_c, 9, 46, 0
11, 8028, Note_on_c, 9, 36, 0
11, 8064, Note_on_c, 9, 36, 118
11, 8064, Note_on_c, 9, 57, 102
11, 8076, Note_on_c, 9, 57, 0
11, 8076, Note_on_c, 9, 36, 0
11, 8112, Note_on_c, 9, 46, 84
11, 8124, Note_on_c, 9, 46, 0
11, 8160, Note_on_c, 9, 40, 127
11, 8160, Note_on_c, 9, 46, 105
11, 8172, Note_on_c, 9, 46, 0
11, 8172, Note_on_c, 9, 40, 0
11, 8208, Note_on_c, 9, 46, 83
11, 8220, Note_on_c, 9, 46, 0
11, 8256, Note_on_c, 9, 46, 100
11, 8256, Note_on_c, 9, 36, 118
11, 8268, Note_on_c, 9, 36, 0
11, 8268, Note_on_c, 9, 46, 0
11, 8304, Note_on_c, 9, 46, 83
11, 8316, Note_on_c, 9, 46, 0
11, 8352, Note_on_c, 9, 40, 127
11, 8352, Note_on_c, 9, 46, 99
11, 8364, Note_on_c, 9, 46, 0
11, 8364, Note_on_c, 9, 40, 0
11, 8400, Note_on_c, 9, 46, 81
11, 8412, Note_on_c, 9, 46, 0
11, 8448, Note_on_c, 9, 36, 118
11, 8448, Note_on_c, 9, 46, 96
11, 8460, Note_on_c, 9, 46, 0
11, 8460, Note_on_c, 9, 36, 0
11, 8496, Note_on_c, 9, 46, 84
11, 8508, Note_on_c, 9, 46, 0
11, 8544, Note_on_c, 9, 40, 127
11, 8544, Note_on_c, 9, 46, 105
11, 8556, Note_on_c, 9, 46, 0
11, 8556, Note_on_c, 9, 40, 0
11, 8592, Note_on_c, 9, 46, 83
11, 8604, Note_on_c, 9, 46, 0
11, 8640, Note_on_c, 9, 36, 118
11, 8640, Note_on_c, 9, 46, 100
11, 8652, Note_on_c, 9, 46, 0
11, 8652, Note_on_c, 9, 36, 0
11, 8688, Note_on_c, 9, 46, 83
11, 8700, Note_on_c, 9, 46, 0
11, 8736, Note_on_c, 9, 40, 127
11, 8736, Note_on_c, 9, 46, 99
11, 8748, Note_on_c, 9, 46, 0
11, 8748, Note_on_c, 9, 40, 0
11, 8784, Note_on_c, 9, 36, 118
11, 8784, Note_on_c, 9, 46, 81
11, 8796, Note_on_c, 9, 46, 0
11, 8796, Note_on_c, 9, 36, 0
11, 8832, Note_on_c, 9, 36, 118
11, 8832, Note_on_c, 9, 46, 102
11, 8844, Note_on_c, 9, 46, 0
11, 8844, Note_on_c, 9, 36, 0
11, 8880, Note_on_c, 9, 46, 84
11, 8892, Note_on_c, 9, 46, 0
11, 8928, Note_on_c, 9, 40, 127
11, 8928, Note_on_c, 9, 46, 105
11, 8940, Note_on_c, 9, 46, 0
11, 8940, Note_on_c, 9, 40, 0
11, 8976, Note_on_c, 9, 46, 83
11, 8988, Note_on_c, 9, 46, 0
11, 9024, Note_on_c, 9, 36, 118
11, 9024, Note_on_c, 9, 46, 100
11, 9036, Note_on_c, 9, 46, 0
11, 9036, Note_on_c, 9, 36, 0
11, 9072, Note_on_c, 9, 36, 118
11, 9072, Note_on_c, 9, 46, 83
11, 9084, Note_on_c, 9, 46, 0
11, 9084, Note_on_c, 9, 36, 0
11, 9120, Note_on_c, 9, 40, 127
11, 9120, Note_on_c, 9, 46, 99
11, 9132, Note_on_c, 9, 46, 0
11, 9132, Note_on_c, 9, 40, 0
11, 9168, Note_on_c, 9, 46, 81
11, 9180, Note_on_c, 9, 46, 0
11, 9216, Note_on_c, 9, 36, 118
11, 9216, Note_on_c, 9, 46, 102
11, 9228, Note_on_c, 9, 46, 0
11, 9228, Note_on_c, 9, 36, 0
11, 9264, Note_on_c, 9, 36, 118
11, 9264, Note_on_c, 9, 46, 84
11, 9276, Note_on_c, 9, 46, 0
11, 9276, Note_on_c, 9, 36, 0
11, 9312, Note_on_c, 9, 40, 127
11, 9312, Note_on_c, 9, 46, 105
11, 9324, Note_on_c, 9, 46, 0
11, 9324, Note_on_c, 9, 40, 0
11, 9360, Note_on_c, 9, 36, 118
11, 9360, Note_on_c, 9, 46, 109
11, 9372, Note_on_c, 9, 46, 0
11, 9372, Note_on_c, 9, 36, 0
11, 9408, Note_on_c, 9, 46, 109
11, 9420, Note_on_c, 9, 46, 0
11, 9456, Note_on_c, 9, 40, 68
11, 9468, Note_on_c, 9, 40, 0
11, 9480, Note_on_c, 9, 40, 88
11, 9492, Note_on_c, 9, 40, 0
11, 9504, Note_on_c, 9, 40, 110
11, 9516, Note_on_c, 9, 40, 0
11, 9528, Note_on_c, 9, 40, 121
11, 9540, Note_on_c, 9, 40, 0
11, 9552, Note_on_c, 9, 40, 125
11, 9564, Note_on_c, 9, 40, 0
11, 9576, Note_on_c, 9, 40, 125
11, 9588, Note_on_c, 9, 40, 0
11, 9600, Note_on_c, 9, 36, 118
11, 9600, Note_on_c, 9, 49, 96
11, 9612, Note_on_c, 9, 49, 0
11, 9612, Note_on_c, 9, 36, 0
11, 9648, Note_on_c, 9, 46, 84
11, 9660, Note_on_c, 9, 46, 0
11, 9696, Note_on_c, 9, 40, 127
11, 9696, Note_on_c, 9, 46, 105
11, 9708, Note_on_c, 9, 46, 0
11, 9708, Note_on_c, 9, 40, 0
11, 9744, Note_on_c, 9, 46, 83
11, 9756, Note_on_c, 9, 46, 0
11, 9792, Note_on_c, 9, 36, 118
11, 9792, Note_on_c, 9, 46, 100
11, 9804, Note_on_c, 9, 46, 0
11, 9804, Note_on_c, 9, 36, 0
11, 9840, Note_on_c, 9, 46, 83
11, 9852, Note_on_c, 9, 46, 0
11, 9888, Note_on_c, 9, 40, 127
11, 9888, Note_on_c, 9, 46, 99
11, 9900, Note_on_c, 9, 46, 0
11, 9900, Note_on_c, 9, 40, 0
11, 9936, Note_on_c, 9, 46, 81
11, 9948, Note_on_c, 9, 46, 0
11, 9984, Note_on_c, 9, 36, 118
11, 9984, Note_on_c, 9, 46, 102
11, 9996, Note_on_c, 9, 46, 0
11, 9996, Note_on_c, 9, 36, 0
11, 10032, Note_on_c, 9, 46, 84
11, 10044, Note_on_c, 9, 46, 0
11, 10080, Note_on_c, 9, 40, 127
11, 10080, Note_on_c, 9, 46, 105
11, 10092, Note_on_c, 9, 46, 0
11, 10092, Note_on_c, 9, 40, 0
11, 10128, Note_on_c, 9, 46, 83
11, 10140, Note_on_c, 9, 46, 0
11, 10176, Note_on_c, 9, 36, 118
11, 10176, Note_on_c, 9, 46, 100
11, 10188, Note_on_c, 9, 46, 0
11, 10188, Note_on_c, 9, 36, 0
11, 10224, Note_on_c, 9, 36, 118
11, 10224, Note_on_c, 9, 46, 83
11, 10236, Note_on_c, 9, 46, 0
11, 10236, Note_on_c, 9, 36, 0
11, 10272, Note_on_c, 9, 40, 127
11, 10272, Note_on_c, 9, 46, 99
11, 10284, Note_on_c, 9, 46, 0
11, 10284, Note_on_c, 9, 40, 0
11, 10320, Note_on_c, 9, 36, 118
11, 10320, Note_on_c, 9, 46, 81
11, 10332, Note_on_c, 9, 46, 0
11, 10332, Note_on_c, 9, 36, 0
11, 10368, Note_on_c, 9, 36, 118
11, 10368, Note_on_c, 9, 46, 102
11, 10380, Note_on_c, 9, 46, 0
11, 10380, Note_on_c, 9, 36, 0
11, 10416, Note_on_c, 9, 46, 84
11, 10428, Note_on_c, 9, 46, 0
11, 10464, Note_on_c, 9, 40, 127
11, 10464, Note_on_c, 9, 46, 105
11, 10476, Note_on_c, 9, 46, 0
11, 10476, Note_on_c, 9, 40, 0
11, 10512, Note_on_c, 9, 46, 83
11, 10524, Note_on_c, 9, 46, 0
11, 10560, Note_on_c, 9, 36, 118
11, 10560, Note_on_c, 9, 46, 100
11, 10572, Note_on_c, 9, 46, 0
11, 10572, Note_on_c, 9, 36, 0
11, 10608, Note_on_c, 9, 46, 83
11, 10620, Note_on_c, 9, 46, 0
11, 10656, Note_on_c, 9, 40, 127
11, 10656, Note_on_c, 9, 46, 99
11, 10668, Note_on_c, 9, 46, 0
11, 10668, Note_on_c, 9, 40, 0
11, 10704, Note_on_c, 9, 46, 81
11, 10716, Note_on_c, 9, 46, 0
11, 10752, Note_on_c, 9, 36, 118
11, 10752, Note_on_c, 9, 46, 102
11, 10764, Note_on_c, 9, 46, 0
11, 10764, Note_on_c, 9, 36, 0
11, 10800, Note_on_c, 9, 46, 84
11, 10812, Note_on_c, 9, 46, 0
11, 10848, Note_on_c, 9, 40, 127
11, 10848, Note_on_c, 9, 46, 105
11, 10860, Note_on_c, 9, 46, 0
11, 10860, Note_on_c, 9, 40, 0
11, 10896, Note_on_c, 9, 46, 83
11, 10908, Note_on_c, 9, 46, 0
11, 10944, Note_on_c, 9, 36, 118
11, 10944, Note_on_c, 9, 46, 100
11, 10956, Note_on_c, 9, 46, 0
11, 10956, Note_on_c, 9, 36, 0
11, 10992, Note_on_c, 9, 36, 118
11, 10992, Note_on_c, 9, 46, 83
11, 11004, Note_on_c, 9, 46, 0
11, 11004, Note_on_c, 9, 36, 0
11, 11040, Note_on_c, 9, 40, 127
11, 11040, Note_on_c, 9, 46, 99
11, 11052, Note_on_c, 9, 46, 0
11, 11052, Note_on_c, 9, 40, 0
11, 11088, Note_on_c, 9, 46, 81
11, 11088, Note_on_c, 9, 36, 118
11, 11100, Note_on_c, 9, 36, 0
11, 11100, Note_on_c, 9, 46, 0
11, 11136, Note_on_c, 9, 36, 118
11, 11136, Note_on_c, 9, 49, 102
11, 11148, Note_on_c, 9, 49, 0
11, 11148, Note_on_c, 9, 36, 0
11, 11184, Note_on_c, 9, 46, 84
11, 11196, Note_on_c, 9, 46, 0
11, 11232, Note_on_c, 9, 40, 127
11, 11232, Note_on_c, 9, 46, 105
11, 11244, Note_on_c, 9, 46, 0
11, 11244, Note_on_c, 9, 40, 0
11, 11280, Note_on_c, 9, 46, 83
11, 11292, Note_on_c, 9, 46, 0
11, 11328, Note_on_c, 9, 46, 100
11, 11328, Note_on_c, 9, 36, 118
11, 11340, Note_on_c, 9, 36, 0
11, 11340, Note_on_c, 9, 46, 0
11, 11376, Note_on_c, 9, 46, 83
11, 11388, Note_on_c, 9, 46, 0
11, 11424, Note_on_c, 9, 40, 127
11, 11424, Note_on_c, 9, 46, 99
11, 11436, Note_on_c, 9, 46, 0
11, 11436, Note_on_c, 9, 40, 0
11, 11472, Note_on_c, 9, 46, 81
11, 11484, Note_on_c, 9, 46, 0
11, 11520, Note_on_c, 9, 36, 118
11, 11520, Note_on_c, 9, 46, 96
11, 11532, Note_on_c, 9, 46, 0
11, 11532, Note_on_c, 9, 36, 0
11, 11568, Note_on_c, 9, 46, 84
11, 11580, Note_on_c, 9, 46, 0
11, 11616, Note_on_c, 9, 40, 127
11, 11616, Note_on_c, 9, 46, 105
11, 11628, Note_on_c, 9, 46, 0
11, 11628, Note_on_c, 9, 40, 0
11, 11664, Note_on_c, 9, 46, 83
11, 11676, Note_on_c, 9, 46, 0
11, 11712, Note_on_c, 9, 36, 118
11, 11712, Note_on_c, 9, 46, 100
11, 11724, Note_on_c, 9, 46, 0
11, 11724, Note_on_c, 9, 36, 0
11, 11760, Note_on_c, 9, 46, 83
11, 11772, Note_on_c, 9, 46, 0
11, 11808, Note_on_c, 9, 40, 127
11, 11808, Note_on_c, 9, 46, 99
11, 11820, Note_on_c, 9, 46, 0
11, 11820, Note_on_c, 9, 40, 0
11, 11856, Note_on_c, 9, 36, 118
11, 11856, Note_on_c, 9, 46, 81
11, 11868, Note_on_c, 9, 46, 0
11, 11868, Note_on_c, 9, 36, 0
11, 11904, Note_on_c, 9, 36, 118
11, 11904, Note_on_c, 9, 46, 102
11, 11916, Note_on_c, 9, 46, 0
11, 11916, Note_on_c, 9, 36, 0
11, 11952, Note_on_c, 9, 46, 84
11, 11964, Note_on_c, 9, 46, 0
11, 12000, Note_on_c, 9, 40, 127
11, 12000, Note_on_c, 9, 46, 105
11, 12012, Note_on_c, 9, 46, 0
11, 12012, Note_on_c, 9, 40, 0
11, 12048, Note_on_c, 9, 46, 83
11, 12060, Note_on_c, 9, 46, 0
11, 12096, Note_on_c, 9, 36, 118
11, 12096, Note_on_c, 9, 46, 100
11, 12108, Note_on_c, 9, 46, 0
11, 12108, Note_on_c, 9, 36, 0
11, 12144, Note_on_c, 9, 46, 83
11, 12156, Note_on_c, 9, 46, 0
11, 12192, Note_on_c, 9, 40, 127
11, 12192, Note_on_c, 9, 46, 99
11, 12204, Note_on_c, 9, 46, 0
11, 12204, Note_on_c, 9, 40, 0
11, 12240, Note_on_c, 9, 46, 81
11, 12252, Note_on_c, 9, 46, 0
11, 12288, Note_on_c, 9, 36, 118
11, 12288, Note_on_c, 9, 46, 104
11, 12300, Note_on_c, 9, 46, 0
11, 12300, Note_on_c, 9, 36, 0
11, 12336, Note_on_c, 9, 46, 84
11, 12348, Note_on_c, 9, 46, 0
11, 12384, Note_on_c, 9, 40, 127
11, 12384, Note_on_c, 9, 46, 105
11, 12396, Note_on_c, 9, 46, 0
11, 12396, Note_on_c, 9, 40, 0
11, 12432, Note_on_c, 9, 36, 118
11, 12432, Note_on_c, 9, 46, 111
11, 12444, Note_on_c, 9, 46, 0
11, 12444, Note_on_c, 9, 36, 0
11, 12480, Note_on_c, 9, 36, 118
11, 12480, Note_on_c, 9, 46, 111
11, 12492, Note_on_c, 9, 46, 0
11, 12492, Note_on_c, 9, 36, 0
11, 12528, Note_on_c, 9, 40, 118
11, 12528, Note_on_c, 9, 46, 109
11, 12540, Note_on_c, 9, 46, 0
11, 12540, Note_on_c, 9, 40, 0
11, 12576, Note_on_c, 9, 40, 118
11, 12576, Note_on_c, 9, 46, 109
11, 12588, Note_on_c, 9, 46, 0
11, 12588, Note_on_c, 9, 40, 0
11, 12624, Note_on_c, 9, 40, 118
11, 12624, Note_on_c, 9, 46, 109
11, 12636, Note_on_c, 9, 46, 0
11, 12636, Note_on_c, 9, 40, 0
11, 12672, Note_on_c, 9, 36, 118
11, 12672, Note_on_c, 9, 49, 96
11, 12684, Note_on_c, 9, 49, 0
11, 12684, Note_on_c, 9, 36, 0
11, 12720, Note_on_c, 9, 46, 84
11, 12732, Note_on_c, 9, 46, 0
11, 12768, Note_on_c, 9, 40, 127
11, 12768, Note_on_c, 9, 46, 105
11, 12780, Note_on_c, 9, 46, 0
11, 12780, Note_on_c, 9, 40, 0
11, 12816, Note_on_c, 9, 46, 83
11, 12828, Note_on_c, 9, 46, 0
11, 12864, Note_on_c, 9, 36, 118
11, 12864, Note_on_c, 9, 46, 100
11, 12876, Note_on_c, 9, 46, 0
11, 12876, Note_on_c, 9, 36, 0
11, 12912, Note_on_c, 9, 46, 83
11, 12924, Note_on_c, 9, 46, 0
11, 12960, Note_on_c, 9, 40, 127
11, 12960, Note_on_c, 9, 46, 99
11, 12972, Note_on_c, 9, 46, 0
11, 12972, Note_on_c, 9, 40, 0
11, 13008, Note_on_c, 9, 46, 81
11, 13020, Note_on_c, 9, 46, 0
11, 13056, Note_on_c, 9, 36, 118
11, 13056, Note_on_c, 9, 46, 102
11, 13068, Note_on_c, 9, 46, 0
11, 13068, Note_on_c, 9, 36, 0
11, 13104, Note_on_c, 9, 46, 84
11, 13116, Note_on_c, 9, 46, 0
11, 13152, Note_on_c, 9, 40, 127
11, 13152, Note_on_c, 9, 46, 105
11, 13164, Note_on_c, 9, 46, 0
11, 13164, Note_on_c, 9, 40, 0
11, 13200, Note_on_c, 9, 46, 83
11, 13212, Note_on_c, 9, 46, 0
11, 13248, Note_on_c, 9, 36, 118
11, 13248, Note_on_c, 9, 46, 100
11, 13260, Note_on_c, 9, 46, 0
11, 13260, Note_on_c, 9, 36, 0
11, 13296, Note_on_c, 9, 46, 83
11, 13308, Note_on_c, 9, 46, 0
11, 13344, Note_on_c, 9, 40, 127
11, 13344, Note_on_c, 9, 46, 99
11, 13356, Note_on_c, 9, 46, 0
11, 13356, Note_on_c, 9, 40, 0
11, 13392, Note_on_c, 9, 46, 81
11, 13404, Note_on_c, 9, 46, 0
11, 13440, Note_on_c, 9, 36, 118
11, 13440, Note_on_c, 9, 46, 102
11, 13452, Note_on_c, 9, 46, 0
11, 13452, Note_on_c, 9, 36, 0
11, 13488, Note_on_c, 9, 46, 84
11, 13500, Note_on_c, 9, 46, 0
11, 13536, Note_on_c, 9, 40, 127
11, 13536, Note_on_c, 9, 46, 105
11, 13548, Note_on_c, 9, 46, 0
11, 13548, Note_on_c, 9, 40, 0
11, 13584, Note_on_c, 9, 46, 83
11, 13596, Note_on_c, 9, 46, 0
11, 13632, Note_on_c, 9, 36, 118
11, 13632, Note_on_c, 9, 46, 100
11, 13644, Note_on_c, 9, 46, 0
11, 13644, Note_on_c, 9, 36, 0
11, 13680, Note_on_c, 9, 46, 83
11, 13692, Note_on_c, 9, 46, 0
11, 13728, Note_on_c, 9, 40, 127
11, 13728, Note_on_c, 9, 46, 99
11, 13740, Note_on_c, 9, 46, 0
11, 13740, Note_on_c, 9, 40, 0
11, 13776, Note_on_c, 9, 46, 81
11, 13788, Note_on_c, 9, 46, 0
11, 13824, Note_on_c, 9, 36, 118
11, 13824, Note_on_c, 9, 46, 102
11, 13836, Note_on_c, 9, 46, 0
11, 13836, Note_on_c, 9, 36, 0
11, 13872, Note_on_c, 9, 46, 84
11, 13884, Note_on_c, 9, 46, 0
11, 13920, Note_on_c, 9, 40, 127
11, 13920, Note_on_c, 9, 46, 105
11, 13932, Note_on_c, 9, 46, 0
11, 13932, Note_on_c, 9, 40, 0
11, 13968, Note_on_c, 9, 46, 83
11, 13980, Note_on_c, 9, 46, 0
11, 14016, Note_on_c, 9, 36, 118
11, 14016, Note_on_c, 9, 46, 100
11, 14028, Note_on_c, 9, 46, 0
11, 14028, Note_on_c, 9, 36, 0
11, 14064, Note_on_c, 9, 46, 83
11, 14064, Note_on_c, 9, 36, 118
11, 14076, Note_on_c, 9, 36, 0
11, 14076, Note_on_c, 9, 46, 0
11, 14112, Note_on_c, 9, 40, 127
11, 14112, Note_on_c, 9, 46, 99
11, 14124, Note_on_c, 9, 46, 0
11, 14124, Note_on_c, 9, 40, 0
11, 14160, Note_on_c, 9, 46, 81
11, 14160, Note_on_c, 9, 36, 118
11, 14172, Note_on_c, 9, 36, 0
11, 14172, Note_on_c, 9, 46, 0
11, 14208, Note_on_c, 9, 36, 118
11, 14208, Note_on_c, 9, 57, 102
11, 14220, Note_on_c, 9, 57, 0
11, 14220, Note_on_c, 9, 36, 0
11, 14256, Note_on_c, 9, 46, 84
11, 14268, Note_on_c, 9, 46, 0
11, 14304, Note_on_c, 9, 40, 127
11, 14304, Note_on_c, 9, 46, 105
11, 14316, Note_on_c, 9, 46, 0
11, 14316, Note_on_c, 9, 40, 0
11, 14352, Note_on_c, 9, 46, 83
11, 14364, Note_on_c, 9, 46, 0
11, 14400, Note_on_c, 9, 36, 118
11, 14400, Note_on_c, 9, 46, 100
11, 14412, Note_on_c, 9, 46, 0
11, 14412, Note_on_c, 9, 36, 0
11, 14448, Note_on_c, 9, 46, 83
11, 14460, Note_on_c, 9, 46, 0
11, 14496, Note_on_c, 9, 40, 127
11, 14496, Note_on_c, 9, 46, 99
11, 14508, Note_on_c, 9, 46, 0
11, 14508, Note_on_c, 9, 40, 0
11, 14544, Note_on_c, 9, 46, 81
11, 14556, Note_on_c, 9, 46, 0
11, 14592, Note_on_c, 9, 36, 118
11, 14592, Note_on_c, 9, 46, 96
11, 14604, Note_on_c, 9, 46, 0
11, 14604, Note_on_c, 9, 36, 0
11, 14640, Note_on_c, 9, 46, 84
11, 14652, Note_on_c, 9, 46, 0
11, 14688, Note_on_c, 9, 40, 127
11, 14688, Note_on_c, 9, 46, 105
11, 14700, Note_on_c, 9, 46, 0
11, 14700, Note_on_c, 9, 40, 0
11, 14736, Note_on_c, 9, 46, 83
11, 14748, Note_on_c, 9, 46, 0
11, 14784, Note_on_c, 9, 36, 118
11, 14784, Note_on_c, 9, 46, 100
11, 14796, Note_on_c, 9, 46, 0
11, 14796, Note_on_c, 9, 36, 0
11, 14832, Note_on_c, 9, 46, 83
11, 14844, Note_on_c, 9, 46, 0
11, 14880, Note_on_c, 9, 40, 127
11, 14880, Note_on_c, 9, 46, 99
11, 14892, Note_on_c, 9, 46, 0
11, 14892, Note_on_c, 9, 40, 0
11, 14928, Note_on_c, 9, 46, 81
11, 14928, Note_on_c, 9, 36, 118
11, 14940, Note_on_c, 9, 36, 0
11, 14940, Note_on_c, 9, 46, 0
11, 14976, Note_on_c, 9, 36, 118
11, 14976, Note_on_c, 9, 46, 102
11, 14988, Note_on_c, 9, 46, 0
11, 14988, Note_on_c, 9, 36, 0
11, 15024, Note_on_c, 9, 46, 84
11, 15036, Note_on_c, 9, 46, 0
11, 15072, Note_on_c, 9, 40, 127
11, 15072, Note_on_c, 9, 46, 105
11, 15084, Note_on_c, 9, 46, 0
11, 15084, Note_on_c, 9, 40, 0
11, 15120, Note_on_c, 9, 46, 83
11, 15132, Note_on_c, 9, 46, 0
11, 15168, Note_on_c, 9, 36, 118
11, 15168, Note_on_c, 9, 46, 100
11, 15180, Note_on_c, 9, 46, 0
11, 15180, Note_on_c, 9, 36, 0
11, 15216, Note_on_c, 9, 46, 83
11, 15228, Note_on_c, 9, 46, 0
11, 15264, Note_on_c, 9, 40, 127
11, 15264, Note_on_c, 9, 46, 99
11, 15276, Note_on_c, 9, 46, 0
11, 15276, Note_on_c, 9, 40, 0
11, 15312, Note_on_c, 9, 46, 81
11, 15324, Note_on_c, 9, 46, 0
11, 15360, Note_on_c, 9, 36, 118
11, 15360, Note_on_c, 9, 46, 106
11, 15372, Note_on_c, 9, 46, 0
11, 15372, Note_on_c, 9, 36, 0
11, 15408, Note_on_c, 9, 46, 84
11, 15420, Note_on_c, 9, 46, 0
11, 15456, Note_on_c, 9, 40, 127
11, 15456, Note_on_c, 9, 46, 105
11, 15468, Note_on_c, 9, 46, 0
11, 15468, Note_on_c, 9, 40, 0
11, 15504, Note_on_c, 9, 36, 118
11, 15504, Note_on_c, 9, 46, 83
11, 15516, Note_on_c, 9, 46, 0
11, 15516, Note_on_c, 9, 36, 0
11, 15528, Note_on_c, 9, 40, 127
11, 15540, Note_on_c, 9, 40, 0
11, 15552, Note_on_c, 9, 40, 102
11, 15552, Note_on_c, 9, 46, 100
11, 15564, Note_on_c, 9, 46, 0
11, 15564, Note_on_c, 9, 40, 0
11, 15600, Note_on_c, 9, 36, 118
11, 15600, Note_on_c, 9, 46, 83
11, 15612, Note_on_c, 9, 46, 0
11, 15612, Note_on_c, 9, 36, 0
11, 15648, Note_on_c, 9, 40, 127
11, 15648, Note_on_c, 9, 46, 99
11, 15660, Note_on_c, 9, 46, 0
11, 15660, Note_on_c, 9, 40, 0
11, 15672, Note_on_c, 9, 40, 127
11, 15684, Note_on_c, 9, 40, 0
11, 15696, Note_on_c, 9, 36, 118
11, 15708, Note_on_c, 9, 36, 0
11, 15744, Note_on_c, 9, 36, 118
11, 15744, Note_on_c, 9, 49, 96
11, 15756, Note_on_c, 9, 49, 0
11, 15756, Note_on_c, 9, 36, 0
11, 15792, Note_on_c, 9, 46, 84
11, 15804, Note_on_c, 9, 46, 0
11, 15840, Note_on_c, 9, 40, 127
11, 15840, Note_on_c, 9, 46, 105
11, 15852, Note_on_c, 9, 46, 0
11, 15852, Note_on_c, 9, 40, 0
11, 15888, Note_on_c, 9, 46, 83
11, 15900, Note_on_c, 9, 46, 0
11, 15936, Note_on_c, 9, 36, 118
11, 15936, Note_on_c, 9, 46, 100
11, 15948, Note_on_c, 9, 46, 0
11, 15948, Note_on_c, 9, 36, 0
11, 15984, Note_on_c, 9, 46, 83
11, 15996, Note_on_c, 9, 46, 0
11, 16032, Note_on_c, 9, 40, 127
11, 16032, Note_on_c, 9, 46, 99
11, 16044, Note_on_c, 9, 46, 0
11, 16044, Note_on_c, 9, 40, 0
11, 16080, Note_on_c, 9, 46, 81
11, 16092, Note_on_c, 9, 46, 0
11, 16128, Note_on_c, 9, 36, 118
11, 16128, Note_on_c, 9, 46, 102
11, 16140, Note_on_c, 9, 46, 0
11, 16140, Note_on_c, 9, 36, 0
11, 16176, Note_on_c, 9, 46, 84
11, 16188, Note_on_c, 9, 46, 0
11, 16224, Note_on_c, 9, 40, 127
11, 16224, Note_on_c, 9, 46, 105
11, 16236, Note_on_c, 9, 46, 0
11, 16236, Note_on_c, 9, 40, 0
11, 16272, Note_on_c, 9, 46, 83
11, 16284, Note_on_c, 9, 46, 0
11, 16320, Note_on_c, 9, 36, 118
11, 16320, Note_on_c, 9, 46, 100
11, 16332, Note_on_c, 9, 46, 0
11, 16332, Note_on_c, 9, 36, 0
11, 16368, Note_on_c, 9, 46, 83
11, 16380, Note_on_c, 9, 46, 0
11, 16416, Note_on_c, 9, 40, 127
11, 16416, Note_on_c, 9, 46, 99
11, 16428, Note_on_c, 9, 46, 0
11, 16428, Note_on_c, 9, 40, 0
11, 16464, Note_on_c, 9, 46, 81
11, 16476, Note_on_c, 9, 46, 0
11, 16512, Note_on_c, 9, 36, 118
11, 16512, Note_on_c, 9, 46, 102
11, 16524, Note_on_c, 9, 46, 0
11, 16524, Note_on_c, 9, 36, 0
11, 16560, Note_on_c, 9, 46, 84
11, 16572, Note_on_c, 9, 46, 0
11, 16608, Note_on_c, 9, 40, 127
11, 16608, Note_on_c, 9, 46, 105
11, 16620, Note_on_c, 9, 46, 0
11, 16620, Note_on_c, 9, 40, 0
11, 16656, Note_on_c, 9, 46, 83
11, 16668, Note_on_c, 9, 46, 0
11, 16704, Note_on_c, 9, 36, 118
11, 16704, Note_on_c, 9, 46, 100
11, 16716, Note_on_c, 9, 46, 0
11, 16716, Note_on_c, 9, 36, 0
11, 16752, Note_on_c, 9, 46, 83
11, 16764, Note_on_c, 9, 46, 0
11, 16800, Note_on_c, 9, 40, 127
11, 16800, Note_on_c, 9, 46, 99
11, 16812, Note_on_c, 9, 46, 0
11, 16812, Note_on_c, 9, 40, 0
11, 16848, Note_on_c, 9, 46, 81
11, 16860, Note_on_c, 9, 46, 0
11, 16896, Note_on_c, 9, 36, 118
11, 16896, Note_on_c, 9, 46, 102
11, 16908, Note_on_c, 9, 46, 0
11, 16908, Note_on_c, 9, 36, 0
11, 16944, Note_on_c, 9, 46, 84
11, 16956, Note_on_c, 9, 46, 0
11, 16992, Note_on_c, 9, 40, 127
11, 16992, Note_on_c, 9, 46, 105
11, 17004, Note_on_c, 9, 46, 0
11, 17004, Note_on_c, 9, 40, 0
11, 17040, Note_on_c, 9, 46, 83
11, 17052, Note_on_c, 9, 46, 0
11, 17088, Note_on_c, 9, 36, 118
11, 17088, Note_on_c, 9, 46, 100
11, 17100, Note_on_c, 9, 46, 0
11, 17100, Note_on_c, 9, 36, 0
11, 17136, Note_on_c, 9, 36, 118
11, 17136, Note_on_c, 9, 46, 83
11, 17148, Note_on_c, 9, 46, 0
11, 17148, Note_on_c, 9, 36, 0
11, 17184, Note_on_c, 9, 40, 127
11, 17184, Note_on_c, 9, 46, 99
11, 17196, Note_on_c, 9, 46, 0
11, 17196, Note_on_c, 9, 40, 0
11, 17232, Note_on_c, 9, 46, 81
11, 17232, Note_on_c, 9, 36, 118
11, 17244, Note_on_c, 9, 36, 0
11, 17244, Note_on_c, 9, 46, 0
11, 17280, Note_on_c, 9, 36, 118
11, 17280, Note_on_c, 9, 49, 102
11, 17292, Note_on_c, 9, 49, 0
11, 17292, Note_on_c, 9, 36, 0
11, 17328, Note_on_c, 9, 46, 84
11, 17340, Note_on_c, 9, 46, 0
11, 17376, Note_on_c, 9, 40, 127
11, 17376, Note_on_c, 9, 46, 105
11, 17388, Note_on_c, 9, 46, 0
11, 17388, Note_on_c, 9, 40, 0
11, 17424, Note_on_c, 9, 46, 83
11, 17436, Note_on_c, 9, 46, 0
11, 17472, Note_on_c, 9, 36, 118
11, 17472, Note_on_c, 9, 46, 100
11, 17484, Note_on_c, 9, 46, 0
11, 17484, Note_on_c, 9, 36, 0
11, 17520, Note_on_c, 9, 46, 83
11, 17532, Note_on_c, 9, 46, 0
11, 17568, Note_on_c, 9, 40, 127
11, 17568, Note_on_c, 9, 46, 99
11, 17580, Note_on_c, 9, 46, 0
11, 17580, Note_on_c, 9, 40, 0
11, 17616, Note_on_c, 9, 46, 81
11, 17628, Note_on_c, 9, 46, 0
11, 17664, Note_on_c, 9, 36, 118
11, 17664, Note_on_c, 9, 46, 96
11, 17676, Note_on_c, 9, 46, 0
11, 17676, Note_on_c, 9, 36, 0
11, 17712, Note_on_c, 9, 46, 84
11, 17724, Note_on_c, 9, 46, 0
11, 17760, Note_on_c, 9, 40, 127
11, 17760, Note_on_c, 9, 46, 105
11, 17772, Note_on_c, 9, 46, 0
11, 17772, Note_on_c, 9, 40, 0
11, 17808, Note_on_c, 9, 46, 83
11, 17820, Note_on_c, 9, 46, 0
11, 17856, Note_on_c, 9, 36, 118
11, 17856, Note_on_c, 9, 46, 100
11, 17868, Note_on_c, 9, 46, 0
11, 17868, Note_on_c, 9, 36, 0
11, 17904, Note_on_c, 9, 46, 83
11, 17916, Note_on_c, 9, 46, 0
11, 17952, Note_on_c, 9, 40, 127
11, 17952, Note_on_c, 9, 46, 99
11, 17964, Note_on_c, 9, 46, 0
11, 17964, Note_on_c, 9, 40, 0
11, 18000, Note_on_c, 9, 46, 81
11, 18012, Note_on_c, 9, 46, 0
11, 18048, Note_on_c, 9, 36, 118
11, 18048, Note_on_c, 9, 46, 102
11, 18060, Note_on_c, 9, 46, 0
11, 18060, Note_on_c, 9, 36, 0
11, 18096, Note_on_c, 9, 46, 84
11, 18108, Note_on_c, 9, 46, 0
11, 18144, Note_on_c, 9, 40, 127
11, 18144, Note_on_c, 9, 46, 105
11, 18156, Note_on_c, 9, 46, 0
11, 18156, Note_on_c, 9, 40, 0
11, 18192, Note_on_c, 9, 46, 83
11, 18204, Note_on_c, 9, 46, 0
11, 18240, Note_on_c, 9, 36, 118
11, 18240, Note_on_c, 9, 46, 100
11, 18252, Note_on_c, 9, 46, 0
11, 18252, Note_on_c, 9, 36, 0
11, 18288, Note_on_c, 9, 36, 118
11, 18288, Note_on_c, 9, 46, 83
11, 18300, Note_on_c, 9, 46, 0
11, 18300, Note_on_c, 9, 36, 0
11, 18336, Note_on_c, 9, 40, 127
11, 18336, Note_on_c, 9, 46, 99
11, 18348, Note_on_c, 9, 46, 0
11, 18348, Note_on_c, 9, 40, 0
11, 18384, Note_on_c, 9, 46, 81
11, 18396, Note_on_c, 9, 46, 0
11, 18432, Note_on_c, 9, 40, 127
11, 18432, Note_on_c, 9, 46, 104
11, 18444, Note_on_c, 9, 46, 0
11, 18444, Note_on_c, 9, 40, 0
11, 18456, Note_on_c, 9, 40, 127
11, 18468, Note_on_c, 9, 40, 0
11, 18480, Note_on_c, 9, 36, 118
11, 18480, Note_on_c, 9, 46, 84
11, 18492, Note_on_c, 9, 46, 0
11, 18492, Note_on_c, 9, 36, 0
11, 18528, Note_on_c, 9, 40, 127
11, 18528, Note_on_c, 9, 46, 105
11, 18540, Note_on_c, 9, 46, 0
11, 18540, Note_on_c, 9, 40, 0
11, 18576, Note_on_c, 9, 36, 118
11, 18576, Note_on_c, 9, 46, 83
11, 18588, Note_on_c, 9, 46, 0
11, 18588, Note_on_c, 9, 36, 0
11, 18624, Note_on_c, 9, 46, 100
11, 18624, Note_on_c, 9, 40, 127
11, 18636, Note_on_c, 9, 40, 0
11, 18636, Note_on_c, 9, 46, 0
11, 18672, Note_on_c, 9, 40, 127
11, 18672, Note_on_c, 9, 46, 83
11, 18684, Note_on_c, 9, 46, 0
11, 18684, Note_on_c, 9, 40, 0
11, 18720, Note_on_c, 9, 40, 117
11, 18720, Note_on_c, 9, 46, 117
11, 18732, Note_on_c, 9, 46, 0
11, 18732, Note_on_c, 9, 40, 0
11, 18744, Note_on_c, 9, 40, 124
11, 18756, Note_on_c, 9, 40, 0
11, 18768, Note_on_c, 9, 40, 126
11, 18780, Note_on_c, 9, 40, 0
11, 18792, Note_on_c, 9, 40, 108
11, 18804, Note_on_c, 9, 40, 0
11, 18816, Note_on_c, 9, 36, 118
11, 18816, Note_on_c, 9, 49, 96
11, 18828, Note_on_c, 9, 49, 0
11, 18828, Note_on_c, 9, 36, 0
11, 18864, Note_on_c, 9, 46, 84
11, 18876, Note_on_c, 9, 46, 0
11, 18912, Note_on_c, 9, 40, 127
11, 18912, Note_on_c, 9, 46, 105
11, 18924, Note_on_c, 9, 46, 0
11, 18924, Note_on_c, 9, 40, 0
11, 18960, Note_on_c, 9, 46, 83
11, 18972, Note_on_c, 9, 46, 0
11, 19008, Note_on_c, 9, 36, 118
11, 19008, Note_on_c, 9, 46, 100
11, 19020, Note_on_c, 9, 46, 0
11, 19020, Note_on_c, 9, 36, 0
11, 19056, Note_on_c, 9, 46, 83
11, 19068, Note_on_c, 9, 46, 0
11, 19104, Note_on_c, 9, 40, 127
11, 19104, Note_on_c, 9, 46, 99
11, 19116, Note_on_c, 9, 46, 0
11, 19116, Note_on_c, 9, 40, 0
11, 19152, Note_on_c, 9, 46, 81
11, 19164, Note_on_c, 9, 46, 0
11, 19200, Note_on_c, 9, 36, 118
11, 19200, Note_on_c, 9, 46, 102
11, 19212, Note_on_c, 9, 46, 0
11, 19212, Note_on_c, 9, 36, 0
11, 19248, Note_on_c, 9, 46, 84
11, 19260, Note_on_c, 9, 46, 0
11, 19296, Note_on_c, 9, 40, 127
11, 19296, Note_on_c, 9, 46, 105
11, 19308, Note_on_c, 9, 46, 0
11, 19308, Note_on_c, 9, 40, 0
11, 19344, Note_on_c, 9, 46, 83
11, 19356, Note_on_c, 9, 46, 0
11, 19392, Note_on_c, 9, 36, 118
11, 19392, Note_on_c, 9, 46, 100
11, 19404, Note_on_c, 9, 46, 0
11, 19404, Note_on_c, 9, 36, 0
11, 19440, Note_on_c, 9, 46, 83
11, 19452, Note_on_c, 9, 46, 0
11, 19488, Note_on_c, 9, 40, 127
11, 19488, Note_on_c, 9, 46, 99
11, 19500, Note_on_c, 9, 46, 0
11, 19500, Note_on_c, 9, 40, 0
11, 19536, Note_on_c, 9, 46, 81
11, 19548, Note_on_c, 9, 46, 0
11, 19584, Note_on_c, 9, 36, 118
11, 19584, Note_on_c, 9, 46, 102
11, 19596, Note_on_c, 9, 46, 0
11, 19596, Note_on_c, 9, 36, 0
11, 19632, Note_on_c, 9, 46, 84
11, 19644, Note_on_c, 9, 46, 0
11, 19680, Note_on_c, 9, 40, 127
11, 19680, Note_on_c, 9, 46, 105
11, 19692, Note_on_c, 9, 46, 0
11, 19692, Note_on_c, 9, 40, 0
11, 19728, Note_on_c, 9, 46, 83
11, 19740, Note_on_c, 9, 46, 0
11, 19776, Note_on_c, 9, 36, 118
11, 19776, Note_on_c, 9, 46, 100
11, 19788, Note_on_c, 9, 46, 0
11, 19788, Note_on_c, 9, 36, 0
11, 19824, Note_on_c, 9, 46, 83
11, 19836, Note_on_c, 9, 46, 0
11, 19872, Note_on_c, 9, 40, 127
11, 19872, Note_on_c, 9, 46, 99
11, 19884, Note_on_c, 9, 46, 0
11, 19884, Note_on_c, 9, 40, 0
11, 19920, Note_on_c, 9, 46, 81
11, 19932, Note_on_c, 9, 46, 0
11, 19968, Note_on_c, 9, 36, 118
11, 19968, Note_on_c, 9, 46, 102
11, 19980, Note_on_c, 9, 46, 0
11, 19980, Note_on_c, 9, 36, 0
11, 20016, Note_on_c, 9, 46, 84
11, 20028, Note_on_c, 9, 46, 0
11, 20064, Note_on_c, 9, 40, 127
11, 20064, Note_on_c, 9, 46, 105
11, 20076, Note_on_c, 9, 46, 0
11, 20076, Note_on_c, 9, 40, 0
11, 20112, Note_on_c, 9, 46, 83
11, 20124, Note_on_c, 9, 46, 0
11, 20160, Note_on_c, 9, 36, 118
11, 20160, Note_on_c, 9, 46, 100
11, 20172, Note_on_c, 9, 46, 0
11, 20172, Note_on_c, 9, 36, 0
11, 20208, Note_on_c, 9, 36, 118
11, 20208, Note_on_c, 9, 46, 83
11, 20220, Note_on_c, 9, 46, 0
11, 20220, Note_on_c, 9, 36, 0
11, 20256, Note_on_c, 9, 40, 127
11, 20256, Note_on_c, 9, 46, 99
11, 20268, Note_on_c, 9, 46, 0
11, 20268, Note_on_c, 9, 40, 0
11, 20304, Note_on_c, 9, 46, 81
11, 20304, Note_on_c, 9, 36, 118
11, 20316, Note_on_c, 9, 36, 0
11, 20316, Note_on_c, 9, 46, 0
11, 20352, Note_on_c, 9, 36, 118
11, 20352, Note_on_c, 9, 57, 102
11, 20364, Note_on_c, 9, 57, 0
11, 20364, Note_on_c, 9, 36, 0
11, 20400, Note_on_c, 9, 46, 84
11, 20412, Note_on_c, 9, 46, 0
11, 20448, Note_on_c, 9, 40, 127
11, 20448, Note_on_c, 9, 46, 105
11, 20460, Note_on_c, 9, 46, 0
11, 20460, Note_on_c, 9, 40, 0
11, 20496, Note_on_c, 9, 46, 83
11, 20508, Note_on_c, 9, 46, 0
11, 20544, Note_on_c, 9, 36, 118
11, 20544, Note_on_c, 9, 46, 100
11, 20556, Note_on_c, 9, 46, 0
11, 20556, Note_on_c, 9, 36, 0
11, 20592, Note_on_c, 9, 46, 83
11, 20604, Note_on_c, 9, 46, 0
11, 20640, Note_on_c, 9, 40, 127
11, 20640, Note_on_c, 9, 46, 99
11, 20652, Note_on_c, 9, 46, 0
11, 20652, Note_on_c, 9, 40, 0
11, 20688, Note_on_c, 9, 46, 81
11, 20700, Note_on_c, 9, 46, 0
11, 20736, Note_on_c, 9, 36, 118
11, 20736, Note_on_c, 9, 46, 96
11, 20748, Note_on_c, 9, 46, 0
11, 20748, Note_on_c, 9, 36, 0
11, 20784, Note_on_c, 9, 46, 84
11, 20796, Note_on_c, 9, 46, 0
11, 20832, Note_on_c, 9, 40, 127
11, 20832, Note_on_c, 9, 46, 105
11, 20844, Note_on_c, 9, 46, 0
11, 20844, Note_on_c, 9, 40, 0
11, 20880, Note_on_c, 9, 46, 83
11, 20892, Note_on_c, 9, 46, 0
11, 20928, Note_on_c, 9, 36, 118
11, 20928, Note_on_c, 9, 46, 100
11, 20940, Note_on_c, 9, 46, 0
11, 20940, Note_on_c, 9, 36, 0
11, 20976, Note_on_c, 9, 46, 83
11, 20988, Note_on_c, 9, 46, 0
11, 21024, Note_on_c, 9, 40, 127
11, 21024, Note_on_c, 9, 46, 99
11, 21036, Note_on_c, 9, 46, 0
11, 21036, Note_on_c, 9, 40, 0
11, 21072, Note_on_c, 9, 46, 81
11, 21084, Note_on_c, 9, 46, 0
11, 21120, Note_on_c, 9, 36, 118
11, 21120, Note_on_c, 9, 46, 102
11, 21132, Note_on_c, 9, 46, 0
11, 21132, Note_on_c, 9, 36, 0
11, 21168, Note_on_c, 9, 46, 84
11, 21180, Note_on_c, 9, 46, 0
11, 21216, Note_on_c, 9, 40, 127
11, 21216, Note_on_c, 9, 46, 105
11, 21228, Note_on_c, 9, 46, 0
11, 21228, Note_on_c, 9, 40, 0
11, 21264, Note_on_c, 9, 46, 83
11, 21276, Note_on_c, 9, 46, 0
11, 21312, Note_on_c, 9, 36, 118
11, 21312, Note_on_c, 9, 46, 100
11, 21324, Note_on_c, 9, 46, 0
11, 21324, Note_on_c, 9, 36, 0
11, 21360, Note_on_c, 9, 36, 118
11, 21360, Note_on_c, 9, 46, 83
11, 21372, Note_on_c, 9, 46, 0
11, 21372, Note_on_c, 9, 36, 0
11, 21408, Note_on_c, 9, 40, 127
11, 21408, Note_on_c, 9, 46, 99
11, 21420, Note_on_c, 9, 46, 0
11, 21420, Note_on_c, 9, 40, 0
11, 21456, Note_on_c, 9, 46, 81
11, 21468, Note_on_c, 9, 46, 0
11, 21504, Note_on_c, 9, 36, 118
11, 21504, Note_on_c, 9, 46, 102
11, 21516, Note_on_c, 9, 46, 0
11, 21516, Note_on_c, 9, 36, 0
11, 21552, Note_on_c, 9, 36, 118
11, 21552, Note_on_c, 9, 46, 84
11, 21564, Note_on_c, 9, 46, 0
11, 21564, Note_on_c, 9, 36, 0
11, 21600, Note_on_c, 9, 40, 127
11, 21600, Note_on_c, 9, 46, 105
11, 21612, Note_on_c, 9, 46, 0
11, 21612, Note_on_c, 9, 40, 0
11, 21648, Note_on_c, 9, 36, 118
11, 21648, Note_on_c, 9, 46, 109
11, 21660, Note_on_c, 9, 46, 0
11, 21660, Note_on_c, 9, 36, 0
11, 21696, Note_on_c, 9, 36, 118
11, 21696, Note_on_c, 9, 46, 109
11, 21708, Note_on_c, 9, 46, 0
11, 21708, Note_on_c, 9, 36, 0
11, 21720, Note_on_c, 9, 40, 127
11, 21732, Note_on_c, 9, 40, 0
11, 21745, Note_on_c, 9, 40, 73
11, 21757, Note_on_c, 9, 40, 0
11, 21768, Note_on_c, 9, 40, 107
11, 21780, Note_on_c, 9, 40, 0
11, 21792, Note_on_c, 9, 40, 124
11, 21804, Note_on_c, 9, 40, 0
11, 21816, Note_on_c, 9, 40, 98
11, 21828, Note_on_c, 9, 40, 0
11, 21840, Note_on_c, 9, 40, 127
11, 21852, Note_on_c, 9, 40, 0
11, 21864, Note_on_c, 9, 40, 94
11, 21876, Note_on_c, 9, 40, 0
11, 21888, Note_on_c, 9, 36, 118
11, 21888, Note_on_c, 9, 49, 96
11, 21900, Note_on_c, 9, 49, 0
11, 21900, Note_on_c, 9, 36, 0
11, 21936, Note_on_c, 9, 46, 84
11, 21948, Note_on_c, 9, 46, 0
11, 21984, Note_on_c, 9, 40, 127
11, 21984, Note_on_c, 9, 46, 105
11, 21996, Note_on_c, 9, 46, 0
11, 21996, Note_on_c, 9, 40, 0
11, 22032, Note_on_c, 9, 46, 83
11, 22044, Note_on_c, 9, 46, 0
11, 22080, Note_on_c, 9, 36, 118
11, 22080, Note_on_c, 9, 46, 100
11, 22092, Note_on_c, 9, 46, 0
11, 22092, Note_on_c, 9, 36, 0
11, 22128, Note_on_c, 9, 46, 83
11, 22140, Note_on_c, 9, 46, 0
11, 22176, Note_on_c, 9, 40, 127
11, 22176, Note_on_c, 9, 46, 99
11, 22188, Note_on_c, 9, 46, 0
11, 22188, Note_on_c, 9, 40, 0
11, 22224, Note_on_c, 9, 46, 81
11, 22236, Note_on_c, 9, 46, 0
11, 22272, Note_on_c, 9, 36, 118
11, 22272, Note_on_c, 9, 46, 102
11, 22284, Note_on_c, 9, 46, 0
11, 22284, Note_on_c, 9, 36, 0
11, 22320, Note_on_c, 9, 46, 84
11, 22332, Note_on_c, 9, 46, 0
11, 22368, Note_on_c, 9, 40, 127
11, 22368, Note_on_c, 9, 46, 105
11, 22380, Note_on_c, 9, 46, 0
11, 22380, Note_on_c, 9, 40, 0
11, 22416, Note_on_c, 9, 46, 83
11, 22428, Note_on_c, 9, 46, 0
11, 22464, Note_on_c, 9, 36, 118
11, 22464, Note_on_c, 9, 46, 100
11, 22476, Note_on_c, 9, 46, 0
11, 22476, Note_on_c, 9, 36, 0
11, 22512, Note_on_c, 9, 46, 83
11, 22524, Note_on_c, 9, 46, 0
11, 22560, Note_on_c, 9, 40, 127
11, 22560, Note_on_c, 9, 46, 99
11, 22572, Note_on_c, 9, 46, 0
11, 22572, Note_on_c, 9, 40, 0
11, 22608, Note_on_c, 9, 46, 81
11, 22620, Note_on_c, 9, 46, 0
11, 22656, Note_on_c, 9, 36, 118
11, 22656, Note_on_c, 9, 46, 102
11, 22668, Note_on_c, 9, 46, 0
11, 22668, Note_on_c, 9, 36, 0
11, 22704, Note_on_c, 9, 46, 84
11, 22716, Note_on_c, 9, 46, 0
11, 22752, Note_on_c, 9, 40, 127
11, 22752, Note_on_c, 9, 46, 105
11, 22764, Note_on_c, 9, 46, 0
11, 22764, Note_on_c, 9, 40, 0
11, 22800, Note_on_c, 9, 46, 83
11, 22812, Note_on_c, 9, 46, 0
11, 22848, Note_on_c, 9, 36, 118
11, 22848, Note_on_c, 9, 46, 100
11, 22860, Note_on_c, 9, 46, 0
11, 22860, Note_on_c, 9, 36, 0
11, 22896, Note_on_c, 9, 46, 83
11, 22908, Note_on_c, 9, 46, 0
11, 22944, Note_on_c, 9, 40, 127
11, 22944, Note_on_c, 9, 46, 99
11, 22956, Note_on_c, 9, 46, 0
11, 22956, Note_on_c, 9, 40, 0
11, 22992, Note_on_c, 9, 46, 81
11, 23004, Note_on_c, 9, 46, 0
11, 23040, Note_on_c, 9, 36, 118
11, 23040, Note_on_c, 9, 46, 102
11, 23052, Note_on_c, 9, 46, 0
11, 23052, Note_on_c, 9, 36, 0
11, 23088, Note_on_c, 9, 46, 84
11, 23100, Note_on_c, 9, 46, 0
11, 23136, Note_on_c, 9, 40, 127
11, 23136, Note_on_c, 9, 46, 105
11, 23148, Note_on_c, 9, 46, 0
11, 23148, Note_on_c, 9, 40, 0
11, 23184, Note_on_c, 9, 46, 83
11, 23196, Note_on_c, 9, 46, 0
11, 23232, Note_on_c, 9, 36, 118
11, 23232, Note_on_c, 9, 46, 100
11, 23244, Note_on_c, 9, 46, 0
11, 23244, Note_on_c, 9, 36, 0
11, 23280, Note_on_c, 9, 46, 83
11, 23280, Note_on_c, 9, 36, 118
11, 23292, Note_on_c, 9, 36, 0
11, 23292, Note_on_c, 9, 46, 0
11, 23328, Note_on_c, 9, 40, 127
11, 23328, Note_on_c, 9, 46, 99
11, 23340, Note_on_c, 9, 46, 0
11, 23340, Note_on_c, 9, 40, 0
11, 23376, Note_on_c, 9, 46, 81
11, 23376, Note_on_c, 9, 36, 118
11, 23388, Note_on_c, 9, 36, 0
11, 23388, Note_on_c, 9, 46, 0
11, 23424, Note_on_c, 9, 36, 118
11, 23424, Note_on_c, 9, 49, 102
11, 23436, Note_on_c, 9, 49, 0
11, 23436, Note_on_c, 9, 36, 0
11, 23472, Note_on_c, 9, 46, 84
11, 23484, Note_on_c, 9, 46, 0
11, 23520, Note_on_c, 9, 40, 127
11, 23520, Note_on_c, 9, 46, 105
11, 23532, Note_on_c, 9, 46, 0
11, 23532, Note_on_c, 9, 40, 0
11, 23568, Note_on_c, 9, 36, 118
11, 23568, Note_on_c, 9, 46, 83
11, 23580, Note_on_c, 9, 46, 0
11, 23580, Note_on_c, 9, 36, 0
11, 23616, Note_on_c, 9, 46, 100
11, 23628, Note_on_c, 9, 46, 0
11, 23664, Note_on_c, 9, 46, 83
11, 23676, Note_on_c, 9, 46, 0
11, 23712, Note_on_c, 9, 40, 127
11, 23712, Note_on_c, 9, 46, 99
11, 23724, Note_on_c, 9, 46, 0
11, 23724, Note_on_c, 9, 40, 0
11, 23760, Note_on_c, 9, 46, 81
11, 23772, Note_on_c, 9, 46, 0
11, 23808, Note_on_c, 9, 36, 118
11, 23808, Note_on_c, 9, 46, 96
11, 23820, Note_on_c, 9, 46, 0
11, 23820, Note_on_c, 9, 36, 0
11, 23856, Note_on_c, 9, 46, 84
11, 23868, Note_on_c, 9, 46, 0
11, 23904, Note_on_c, 9, 40, 127
11, 23904, Note_on_c, 9, 46, 105
11, 23916, Note_on_c, 9, 46, 0
11, 23916, Note_on_c, 9, 40, 0
11, 23952, Note_on_c, 9, 46, 83
11, 23964, Note_on_c, 9, 46, 0
11, 24000, Note_on_c, 9, 36, 118
11, 24000, Note_on_c, 9, 46, 100
11, 24012, Note_on_c, 9, 46, 0
11, 24012, Note_on_c, 9, 36, 0
11, 24048, Note_on_c, 9, 46, 83
11, 24060, Note_on_c, 9, 46, 0
11, 24096, Note_on_c, 9, 40, 127
11, 24096, Note_on_c, 9, 46, 99
11, 24108, Note_on_c, 9, 46, 0
11, 24108, Note_on_c, 9, 40, 0
11, 24144, Note_on_c, 9, 46, 81
11, 24156, Note_on_c, 9, 46, 0
11, 24192, Note_on_c, 9, 36, 118
11, 24192, Note_on_c, 9, 46, 102
11, 24204, Note_on_c, 9, 46, 0
11, 24204, Note_on_c, 9, 36, 0
11, 24240, Note_on_c, 9, 46, 84
11, 24252, Note_on_c, 9, 46, 0
11, 24288, Note_on_c, 9, 40, 127
11, 24288, Note_on_c, 9, 46, 105
11, 24300, Note_on_c, 9, 46, 0
11, 24300, Note_on_c, 9, 40, 0
11, 24336, Note_on_c, 9, 46, 83
11, 24348, Note_on_c, 9, 46, 0
11, 24384, Note_on_c, 9, 36, 118
11, 24384, Note_on_c, 9, 46, 100
11, 24396, Note_on_c, 9, 46, 0
11, 24396, Note_on_c, 9, 36, 0
11, 24432, Note_on_c, 9, 36, 118
11, 24432, Note_on_c, 9, 46, 83
11, 24444, Note_on_c, 9, 46, 0
11, 24444, Note_on_c, 9, 36, 0
11, 24480, Note_on_c, 9, 40, 127
11, 24480, Note_on_c, 9, 46, 99
11, 24492, Note_on_c, 9, 46, 0
11, 24492, Note_on_c, 9, 40, 0
11, 24528, Note_on_c, 9, 46, 81
11, 24540, Note_on_c, 9, 46, 0
11, 24576, Note_on_c, 9, 36, 118
11, 24576, Note_on_c, 9, 46, 105
11, 24588, Note_on_c, 9, 46, 0
11, 24588, Note_on_c, 9, 36, 0
11, 24624, Note_on_c, 9, 46, 84
11, 24636, Note_on_c, 9, 46, 0
11, 24672, Note_on_c, 9, 40, 127
11, 24672, Note_on_c, 9, 46, 105
11, 24684, Note_on_c, 9, 46, 0
11, 24684, Note_on_c, 9, 40, 0
11, 24720, Note_on_c, 9, 36, 118
11, 24720, Note_on_c, 9, 46, 111
11, 24732, Note_on_c, 9, 46, 0
11, 24732, Note_on_c, 9, 36, 0
11, 24768, Note_on_c, 9, 36, 118
11, 24768, Note_on_c, 9, 46, 111
11, 24780, Note_on_c, 9, 46, 0
11, 24780, Note_on_c, 9, 36, 0
11, 24816, Note_on_c, 9, 40, 118
11, 24816, Note_on_c, 9, 46, 112
11, 24828, Note_on_c, 9, 46, 0
11, 24828, Note_on_c, 9, 40, 0
11, 24864, Note_on_c, 9, 40, 118
11, 24864, Note_on_c, 9, 46, 112
11, 24876, Note_on_c, 9, 46, 0
11, 24876, Note_on_c, 9, 40, 0
11, 24912, Note_on_c, 9, 40, 118
11, 24912, Note_on_c, 9, 46, 112
11, 24924, Note_on_c, 9, 46, 0
11, 24924, Note_on_c, 9, 40, 0
11, 24960, Note_on_c, 9, 36, 118
11, 24960, Note_on_c, 9, 49, 96
11, 24972, Note_on_c, 9, 49, 0
11, 24972, Note_on_c, 9, 36, 0
11, 25008, Note_on_c, 9, 46, 84
11, 25020, Note_on_c, 9, 46, 0
11, 25056, Note_on_c, 9, 40, 127
11, 25056, Note_on_c, 9, 46, 105
11, 25068, Note_on_c, 9, 46, 0
11, 25068, Note_on_c, 9, 40, 0
11, 25104, Note_on_c, 9, 46, 83
11, 25116, Note_on_c, 9, 46, 0
11, 25152, Note_on_c, 9, 36, 118
11, 25152, Note_on_c, 9, 46, 100
11, 25164, Note_on_c, 9, 46, 0
11, 25164, Note_on_c, 9, 36, 0
11, 25200, Note_on_c, 9, 36, 118
11, 25200, Note_on_c, 9, 46, 83
11, 25212, Note_on_c, 9, 46, 0
11, 25212, Note_on_c, 9, 36, 0
11, 25248, Note_on_c, 9, 40, 127
11, 25248, Note_on_c, 9, 46, 99
11, 25260, Note_on_c, 9, 46, 0
11, 25260, Note_on_c, 9, 40, 0
11, 25296, Note_on_c, 9, 46, 81
11, 25308, Note_on_c, 9, 46, 0
11, 25344, Note_on_c, 9, 36, 118
11, 25344, Note_on_c, 9, 46, 102
11, 25356, Note_on_c, 9, 46, 0
11, 25356, Note_on_c, 9, 36, 0
11, 25392, Note_on_c, 9, 46, 84
11, 25404, Note_on_c, 9, 46, 0
11, 25440, Note_on_c, 9, 40, 127
11, 25440, Note_on_c, 9, 46, 105
11, 25452, Note_on_c, 9, 46, 0
11, 25452, Note_on_c, 9, 40, 0
11, 25488, Note_on_c, 9, 46, 83
11, 25500, Note_on_c, 9, 46, 0
11, 25536, Note_on_c, 9, 36, 118
11, 25536, Note_on_c, 9, 46, 100
11, 25548, Note_on_c, 9, 46, 0
11, 25548, Note_on_c, 9, 36, 0
11, 25584, Note_on_c, 9, 36, 118
11, 25584, Note_on_c, 9, 46, 83
11, 25596, Note_on_c, 9, 46, 0
11, 25596, Note_on_c, 9, 36, 0
11, 25632, Note_on_c, 9, 40, 127
11, 25632, Note_on_c, 9, 46, 99
11, 25644, Note_on_c, 9, 46, 0
11, 25644, Note_on_c, 9, 40, 0
11, 25680, Note_on_c, 9, 46, 81
11, 25692, Note_on_c, 9, 46, 0
11, 25728, Note_on_c, 9, 36, 118
11, 25728, Note_on_c, 9, 46, 102
11, 25740, Note_on_c, 9, 46, 0
11, 25740, Note_on_c, 9, 36, 0
11, 25776, Note_on_c, 9, 46, 84
11, 25788, Note_on_c, 9, 46, 0
11, 25824, Note_on_c, 9, 40, 127
11, 25824, Note_on_c, 9, 46, 105
11, 25836, Note_on_c, 9, 46, 0
11, 25836, Note_on_c, 9, 40, 0
11, 25872, Note_on_c, 9, 46, 83
11, 25884, Note_on_c, 9, 46, 0
11, 25920, Note_on_c, 9, 36, 118
11, 25920, Note_on_c, 9, 46, 100
11, 25932, Note_on_c, 9, 46, 0
11, 25932, Note_on_c, 9, 36, 0
11, 25968, Note_on_c, 9, 36, 118
11, 25968, Note_on_c, 9, 46, 83
11, 25980, Note_on_c, 9, 46, 0
11, 25980, Note_on_c, 9, 36, 0
11, 26016, Note_on_c, 9, 40, 127
11, 26016, Note_on_c, 9, 46, 99
11, 26028, Note_on_c, 9, 46, 0
11, 26028, Note_on_c, 9, 40, 0
11, 26064, Note_on_c, 9, 46, 81
11, 26076, Note_on_c, 9, 46, 0
11, 26112, Note_on_c, 9, 36, 118
11, 26112, Note_on_c, 9, 46, 102
11, 26124, Note_on_c, 9, 46, 0
11, 26124, Note_on_c, 9, 36, 0
11, 26160, Note_on_c, 9, 46, 84
11, 26172, Note_on_c, 9, 46, 0
11, 26208, Note_on_c, 9, 40, 127
11, 26208, Note_on_c, 9, 46, 105
11, 26220, Note_on_c, 9, 46, 0
11, 26220, Note_on_c, 9, 40, 0
11, 26256, Note_on_c, 9, 46, 83
11, 26268, Note_on_c, 9, 46, 0
11, 26304, Note_on_c, 9, 36, 118
11, 26304, Note_on_c, 9, 46, 100
11, 26316, Note_on_c, 9, 46, 0
11, 26316, Note_on_c, 9, 36, 0
11, 26352, Note_on_c, 9, 36, 118
11, 26352, Note_on_c, 9, 46, 83
11, 26364, Note_on_c, 9, 46, 0
11, 26364, Note_on_c, 9, 36, 0
11, 26400, Note_on_c, 9, 40, 127
11, 26400, Note_on_c, 9, 46, 99
11, 26412, Note_on_c, 9, 46, 0
11, 26412, Note_on_c, 9, 40, 0
11, 26448, Note_on_c, 9, 46, 81
11, 26460, Note_on_c, 9, 46, 0
11, 26496, Note_on_c, 9, 36, 118
11, 26496, Note_on_c, 9, 46, 102
11, 26508, Note_on_c, 9, 46, 0
11, 26508, Note_on_c, 9, 36, 0
11, 26544, Note_on_c, 9, 46, 84
11, 26556, Note_on_c, 9, 46, 0
11, 26592, Note_on_c, 9, 40, 127
11, 26592, Note_on_c, 9, 46, 105
11, 26604, Note_on_c, 9, 46, 0
11, 26604, Note_on_c, 9, 40, 0
11, 26640, Note_on_c, 9, 46, 83
11, 26652, Note_on_c, 9, 46, 0
11, 26688, Note_on_c, 9, 36, 118
11, 26688, Note_on_c, 9, 46, 100
11, 26700, Note_on_c, 9, 46, 0
11, 26700, Note_on_c, 9, 36, 0
11, 26736, Note_on_c, 9, 36, 118
11, 26736, Note_on_c, 9, 46, 83
11, 26748, Note_on_c, 9, 46, 0
11, 26748, Note_on_c, 9, 36, 0
11, 26784, Note_on_c, 9, 40, 127
11, 26784, Note_on_c, 9, 46, 99
11, 26796, Note_on_c, 9, 46, 0
11, 26796, Note_on_c, 9, 40, 0
11, 26832, Note_on_c, 9, 46, 81
11, 26844, Note_on_c, 9, 46, 0
11, 26880, Note_on_c, 9, 36, 118
11, 26880, Note_on_c, 9, 46, 96
11, 26892, Note_on_c, 9, 46, 0
11, 26892, Note_on_c, 9, 36, 0
11, 26928, Note_on_c, 9, 46, 84
11, 26940, Note_on_c, 9, 46, 0
11, 26976, Note_on_c, 9, 40, 127
11, 26976, Note_on_c, 9, 46, 105
11, 26988, Note_on_c, 9, 46, 0
11, 26988, Note_on_c, 9, 40, 0
11, 27024, Note_on_c, 9, 46, 83
11, 27036, Note_on_c, 9, 46, 0
11, 27072, Note_on_c, 9, 36, 118
11, 27072, Note_on_c, 9, 46, 100
11, 27084, Note_on_c, 9, 46, 0
11, 27084, Note_on_c, 9, 36, 0
11, 27120, Note_on_c, 9, 36, 118
11, 27120, Note_on_c, 9, 46, 83
11, 27132, Note_on_c, 9, 46, 0
11, 27132, Note_on_c, 9, 36, 0
11, 27168, Note_on_c, 9, 40, 127
11, 27168, Note_on_c, 9, 46, 99
11, 27180, Note_on_c, 9, 46, 0
11, 27180, Note_on_c, 9, 40, 0
11, 27216, Note_on_c, 9, 46, 81
11, 27228, Note_on_c, 9, 46, 0
11, 27264, Note_on_c, 9, 36, 118
11, 27264, Note_on_c, 9, 46, 102
11, 27276, Note_on_c, 9, 46, 0
11, 27276, Note_on_c, 9, 36, 0
11, 27312, Note_on_c, 9, 46, 84
11, 27324, Note_on_c, 9, 46, 0
11, 27360, Note_on_c, 9, 40, 127
11, 27360, Note_on_c, 9, 46, 105
11, 27372, Note_on_c, 9, 46, 0
11, 27372, Note_on_c, 9, 40, 0
11, 27408, Note_on_c, 9, 46, 83
11, 27420, Note_on_c, 9, 46, 0
11, 27456, Note_on_c, 9, 36, 118
11, 27456, Note_on_c, 9, 46, 100
11, 27468, Note_on_c, 9, 46, 0
11, 27468, Note_on_c, 9, 36, 0
11, 27504, Note_on_c, 9, 36, 118
11, 27504, Note_on_c, 9, 46, 83
11, 27516, Note_on_c, 9, 46, 0
11, 27516, Note_on_c, 9, 36, 0
11, 27552, Note_on_c, 9, 40, 127
11, 27552, Note_on_c, 9, 46, 99
11, 27564, Note_on_c, 9, 46, 0
11, 27564, Note_on_c, 9, 40, 0
11, 27600, Note_on_c, 9, 46, 99
11, 27612, Note_on_c, 9, 46, 0
11, 27648, Note_on_c, 9, 36, 118
11, 27648, Note_on_c, 9, 46, 102
11, 27660, Note_on_c, 9, 46, 0
11, 27660, Note_on_c, 9, 36, 0
11, 27696, Note_on_c, 9, 40, 96
11, 27696, Note_on_c, 9, 46, 84
11, 27708, Note_on_c, 9, 46, 0
11, 27708, Note_on_c, 9, 40, 0
11, 27744, Note_on_c, 9, 40, 96
11, 27744, Note_on_c, 9, 46, 105
11, 27756, Note_on_c, 9, 46, 0
11, 27756, Note_on_c, 9, 40, 0
11, 27792, Note_on_c, 9, 40, 96
11, 27792, Note_on_c, 9, 46, 83
11, 27804, Note_on_c, 9, 46, 0
11, 27804, Note_on_c, 9, 40, 0
11, 27840, Note_on_c, 9, 40, 104
11, 27840, Note_on_c, 9, 46, 104
11, 27852, Note_on_c, 9, 46, 0
11, 27852, Note_on_c, 9, 40, 0
11, 27888, Note_on_c, 9, 46, 109
11, 27888, Note_on_c, 9, 40, 126
11, 27900, Note_on_c, 9, 40, 0
11, 27900, Note_on_c, 9, 46, 0
11, 27936, Note_on_c, 9, 46, 112
11, 27936, Note_on_c, 9, 40, 127
11, 27948, Note_on_c, 9, 40, 0
11, 27948, Note_on_c, 9, 46, 0
11, 27984, Note_on_c, 9, 46, 114
11, 27984, Note_on_c, 9, 40, 127
11, 27996, Note_on_c, 9, 40, 0
11, 27996, Note_on_c, 9, 46, 0
11, 28032, Note_on_c, 9, 36, 118
11, 28032, Note_on_c, 9, 57, 100
11, 28044, Note_on_c, 9, 57, 0
11, 28044, Note_on_c, 9, 36, 0
11, 28080, Note_on_c, 9, 46, 84
11, 28092, Note_on_c, 9, 46, 0
11, 28128, Note_on_c, 9, 40, 127
11, 28128, Note_on_c, 9, 46, 105
11, 28140, Note_on_c, 9, 46, 0
11, 28140, Note_on_c, 9, 40, 0
11, 28176, Note_on_c, 9, 46, 83
11, 28188, Note_on_c, 9, 46, 0
11, 28224, Note_on_c, 9, 36, 118
11, 28224, Note_on_c, 9, 46, 100
11, 28236, Note_on_c, 9, 46, 0
11, 28236, Note_on_c, 9, 36, 0
11, 28272, Note_on_c, 9, 46, 83
11, 28284, Note_on_c, 9, 46, 0
11, 28320, Note_on_c, 9, 40, 127
11, 28320, Note_on_c, 9, 46, 99
11, 28332, Note_on_c, 9, 46, 0
11, 28332, Note_on_c, 9, 40, 0
11, 28368, Note_on_c, 9, 46, 81
11, 28380, Note_on_c, 9, 46, 0
11, 28416, Note_on_c, 9, 36, 118
11, 28416, Note_on_c, 9, 46, 102
11, 28428, Note_on_c, 9, 46, 0
11, 28428, Note_on_c, 9, 36, 0
11, 28464, Note_on_c, 9, 46, 84
11, 28476, Note_on_c, 9, 46, 0
11, 28512, Note_on_c, 9, 40, 127
11, 28512, Note_on_c, 9, 46, 105
11, 28524, Note_on_c, 9, 46, 0
11, 28524, Note_on_c, 9, 40, 0
11, 28560, Note_on_c, 9, 46, 83
11, 28572, Note_on_c, 9, 46, 0
11, 28608, Note_on_c, 9, 36, 118
11, 28608, Note_on_c, 9, 46, 100
11, 28620, Note_on_c, 9, 46, 0
11, 28620, Note_on_c, 9, 36, 0
11, 28656, Note_on_c, 9, 46, 83
11, 28668, Note_on_c, 9, 46, 0
11, 28704, Note_on_c, 9, 40, 127
11, 28704, Note_on_c, 9, 46, 99
11, 28716, Note_on_c, 9, 46, 0
11, 28716, Note_on_c, 9, 40, 0
11, 28752, Note_on_c, 9, 46, 81
11, 28764, Note_on_c, 9, 46, 0
11, 28800, Note_on_c, 9, 36, 118
11, 28800, Note_on_c, 9, 46, 102
11, 28812, Note_on_c, 9, 46, 0
11, 28812, Note_on_c, 9, 36, 0
11, 28848, Note_on_c, 9, 46, 84
11, 28860, Note_on_c, 9, 46, 0
11, 28896, Note_on_c, 9, 40, 127
11, 28896, Note_on_c, 9, 46, 105
11, 28908, Note_on_c, 9, 46, 0
11, 28908, Note_on_c, 9, 40, 0
11, 28944, Note_on_c, 9, 46, 83
11, 28956, Note_on_c, 9, 46, 0
11, 28992, Note_on_c, 9, 36, 118
11, 28992, Note_on_c, 9, 46, 100
11, 29004, Note_on_c, 9, 46, 0
11, 29004, Note_on_c, 9, 36, 0
11, 29040, Note_on_c, 9, 46, 83
11, 29052, Note_on_c, 9, 46, 0
11, 29088, Note_on_c, 9, 40, 127
11, 29088, Note_on_c, 9, 46, 99
11, 29100, Note_on_c, 9, 46, 0
11, 29100, Note_on_c, 9, 40, 0
11, 29136, Note_on_c, 9, 46, 81
11, 29148, Note_on_c, 9, 46, 0
11, 29184, Note_on_c, 9, 36, 118
11, 29184, Note_on_c, 9, 46, 102
11, 29196, Note_on_c, 9, 46, 0
11, 29196, Note_on_c, 9, 36, 0
11, 29232, Note_on_c, 9, 46, 84
11, 29244, Note_on_c, 9, 46, 0
11, 29280, Note_on_c, 9, 40, 127
11, 29280, Note_on_c, 9, 46, 105
11, 29292, Note_on_c, 9, 46, 0
11, 29292, Note_on_c, 9, 40, 0
11, 29328, Note_on_c, 9, 46, 83
11, 29340, Note_on_c, 9, 46, 0
11, 29376, Note_on_c, 9, 36, 118
11, 29376, Note_on_c, 9, 46, 100
11, 29388, Note_on_c, 9, 46, 0
11, 29388, Note_on_c, 9, 36, 0
11, 29424, Note_on_c, 9, 46, 83
11, 29424, Note_on_c, 9, 36, 118
11, 29436, Note_on_c, 9, 36, 0
11, 29436, Note_on_c, 9, 46, 0
11, 29472, Note_on_c, 9, 40, 127
11, 29472, Note_on_c, 9, 46, 99
11, 29484, Note_on_c, 9, 46, 0
11, 29484, Note_on_c, 9, 40, 0
11, 29520, Note_on_c, 9, 46, 81
11, 29520, Note_on_c, 9, 36, 118
11, 29532, Note_on_c, 9, 36, 0
11, 29532, Note_on_c, 9, 46, 0
11, 29568, Note_on_c, 9, 36, 118
11, 29568, Note_on_c, 9, 49, 102
11, 29580, Note_on_c, 9, 49, 0
11, 29580, Note_on_c, 9, 36, 0
11, 29616, Note_on_c, 9, 46, 84
11, 29628, Note_on_c, 9, 46, 0
11, 29664, Note_on_c, 9, 40, 127
11, 29664, Note_on_c, 9, 46, 105
11, 29676, Note_on_c, 9, 46, 0
11, 29676, Note_on_c, 9, 40, 0
11, 29712, Note_on_c, 9, 46, 83
11, 29724, Note_on_c, 9, 46, 0
11, 29760, Note_on_c, 9, 46, 100
11, 29760, Note_on_c, 9, 36, 118
11, 29772, Note_on_c, 9, 36, 0
11, 29772, Note_on_c, 9, 46, 0
11, 29808, Note_on_c, 9, 46, 83
11, 29820, Note_on_c, 9, 46, 0
11, 29856, Note_on_c, 9, 40, 127
11, 29856, Note_on_c, 9, 46, 99
11, 29868, Note_on_c, 9, 46, 0
11, 29868, Note_on_c, 9, 40, 0
11, 29904, Note_on_c, 9, 46, 81
11, 29916, Note_on_c, 9, 46, 0
11, 29952, Note_on_c, 9, 36, 118
11, 29952, Note_on_c, 9, 46, 96
11, 29964, Note_on_c, 9, 46, 0
11, 29964, Note_on_c, 9, 36, 0
11, 30000, Note_on_c, 9, 46, 84
11, 30012, Note_on_c, 9, 46, 0
11, 30048, Note_on_c, 9, 40, 127
11, 30048, Note_on_c, 9, 46, 105
11, 30060, Note_on_c, 9, 46, 0
11, 30060, Note_on_c, 9, 40, 0
11, 30096, Note_on_c, 9, 46, 83
11, 30108, Note_on_c, 9, 46, 0
11, 30144, Note_on_c, 9, 36, 118
11, 30144, Note_on_c, 9, 46, 100
11, 30156, Note_on_c, 9, 46, 0
11, 30156, Note_on_c, 9, 36, 0
11, 30192, Note_on_c, 9, 46, 83
11, 30204, Note_on_c, 9, 46, 0
11, 30240, Note_on_c, 9, 40, 127
11, 30240, Note_on_c, 9, 46, 99
11, 30252, Note_on_c, 9, 46, 0
11, 30252, Note_on_c, 9, 40, 0
11, 30288, Note_on_c, 9, 46, 81
11, 30300, Note_on_c, 9, 46, 0
11, 30336, Note_on_c, 9, 36, 118
11, 30336, Note_on_c, 9, 46, 102
11, 30348, Note_on_c, 9, 46, 0
11, 30348, Note_on_c, 9, 36, 0
11, 30384, Note_on_c, 9, 46, 84
11, 30396, Note_on_c, 9, 46, 0
11, 30432, Note_on_c, 9, 40, 127
11, 30432, Note_on_c, 9, 46, 105
11, 30444, Note_on_c, 9, 46, 0
11, 30444, Note_on_c, 9, 40, 0
11, 30480, Note_on_c, 9, 46, 83
11, 30492, Note_on_c, 9, 46, 0
11, 30528, Note_on_c, 9, 36, 118
11, 30528, Note_on_c, 9, 46, 100
11, 30540, Note_on_c, 9, 46, 0
11, 30540, Note_on_c, 9, 36, 0
11, 30576, Note_on_c, 9, 46, 83
11, 30588, Note_on_c, 9, 46, 0
11, 30624, Note_on_c, 9, 40, 127
11, 30624, Note_on_c, 9, 46, 99
11, 30636, Note_on_c, 9, 46, 0
11, 30636, Note_on_c, 9, 40, 0
11, 30672, Note_on_c, 9, 46, 81
11, 30684, Note_on_c, 9, 46, 0
11, 30720, Note_on_c, 9, 36, 118
11, 30720, Note_on_c, 9, 46, 102
11, 30732, Note_on_c, 9, 46, 0
11, 30732, Note_on_c, 9, 36, 0
11, 30768, Note_on_c, 9, 46, 84
11, 30780, Note_on_c, 9, 46, 0
11, 30816, Note_on_c, 9, 40, 127
11, 30816, Note_on_c, 9, 46, 105
11, 30828, Note_on_c, 9, 46, 0
11, 30828, Note_on_c, 9, 40, 0
11, 30864, Note_on_c, 9, 36, 118
11, 30864, Note_on_c, 9, 46, 111
11, 30876, Note_on_c, 9, 46, 0
11, 30876, Note_on_c, 9, 36, 0
11, 30912, Note_on_c, 9, 36, 118
11, 30912, Note_on_c, 9, 46, 112
11, 30924, Note_on_c, 9, 46, 0
11, 30924, Note_on_c, 9, 36, 0
11, 30960, Note_on_c, 9, 40, 127
11, 30960, Note_on_c, 9, 46, 112
11, 30972, Note_on_c, 9, 46, 0
11, 30972, Note_on_c, 9, 40, 0
11, 31008, Note_on_c, 9, 40, 127
11, 31008, Note_on_c, 9, 46, 112
11, 31020, Note_on_c, 9, 46, 0
11, 31020, Note_on_c, 9, 40, 0
11, 31032, Note_on_c, 9, 40, 127
11, 31044, Note_on_c, 9, 40, 0
11, 31056, Note_on_c, 9, 36, 118
11, 31056, Note_on_c, 9, 46, 85
11, 31068, Note_on_c, 9, 46, 0
11, 31068, Note_on_c, 9, 36, 0
11, 31104, Note_on_c, 9, 57, 100
11, 31104, Note_on_c, 9, 36, 118
11, 31116, Note_on_c, 9, 36, 0
11, 31116, Note_on_c, 9, 57, 0
11, 31152, Note_on_c, 9, 46, 84
11, 31164, Note_on_c, 9, 46, 0
11, 31200, Note_on_c, 9, 40, 127
11, 31200, Note_on_c, 9, 46, 105
11, 31212, Note_on_c, 9, 46, 0
11, 31212, Note_on_c, 9, 40, 0
11, 31248, Note_on_c, 9, 46, 83
11, 31260, Note_on_c, 9, 46, 0
11, 31296, Note_on_c, 9, 36, 118
11, 31296, Note_on_c, 9, 46, 100
11, 31308, Note_on_c, 9, 46, 0
11, 31308, Note_on_c, 9, 36, 0
11, 31344, Note_on_c, 9, 46, 83
11, 31356, Note_on_c, 9, 46, 0
11, 31392, Note_on_c, 9, 40, 127
11, 31392, Note_on_c, 9, 46, 99
11, 31404, Note_on_c, 9, 46, 0
11, 31404, Note_on_c, 9, 40, 0
11, 31440, Note_on_c, 9, 46, 81
11, 31452, Note_on_c, 9, 46, 0
11, 31488, Note_on_c, 9, 36, 118
11, 31488, Note_on_c, 9, 46, 102
11, 31500, Note_on_c, 9, 46, 0
11, 31500, Note_on_c, 9, 36, 0
11, 31536, Note_on_c, 9, 46, 84
11, 31548, Note_on_c, 9, 46, 0
11, 31584, Note_on_c, 9, 40, 127
11, 31584, Note_on_c, 9, 46, 105
11, 31596, Note_on_c, 9, 46, 0
11, 31596, Note_on_c, 9, 40, 0
11, 31632, Note_on_c, 9, 46, 83
11, 31644, Note_on_c, 9, 46, 0
11, 31680, Note_on_c, 9, 36, 118
11, 31680, Note_on_c, 9, 46, 100
11, 31692, Note_on_c, 9, 46, 0
11, 31692, Note_on_c, 9, 36, 0
11, 31728, Note_on_c, 9, 46, 83
11, 31740, Note_on_c, 9, 46, 0
11, 31776, Note_on_c, 9, 40, 127
11, 31776, Note_on_c, 9, 46, 99
11, 31788, Note_on_c, 9, 46, 0
11, 31788, Note_on_c, 9, 40, 0
11, 31824, Note_on_c, 9, 46, 81
11, 31836, Note_on_c, 9, 46, 0
11, 31872, Note_on_c, 9, 36, 118
11, 31872, Note_on_c, 9, 46, 102
11, 31884, Note_on_c, 9, 46, 0
11, 31884, Note_on_c, 9, 36, 0
11, 31920, Note_on_c, 9, 46, 84
11, 31932, Note_on_c, 9, 46, 0
11, 31968, Note_on_c, 9, 40, 127
11, 31968, Note_on_c, 9, 46, 105
11, 31980, Note_on_c, 9, 46, 0
11, 31980, Note_on_c, 9, 40, 0
11, 32016, Note_on_c, 9, 46, 83
11, 32028, Note_on_c, 9, 46, 0
11, 32064, Note_on_c, 9, 36, 118
11, 32064, Note_on_c, 9, 46, 100
11, 32076, Note_on_c, 9, 46, 0
11, 32076, Note_on_c, 9, 36, 0
11, 32112, Note_on_c, 9, 46, 83
11, 32124, Note_on_c, 9, 46, 0
11, 32160, Note_on_c, 9, 40, 127
11, 32160, Note_on_c, 9, 46, 99
11, 32172, Note_on_c, 9, 46, 0
11, 32172, Note_on_c, 9, 40, 0
11, 32208, Note_on_c, 9, 46, 81
11, 32220, Note_on_c, 9, 46, 0
11, 32256, Note_on_c, 9, 36, 118
11, 32256, Note_on_c, 9, 46, 102
11, 32268, Note_on_c, 9, 46, 0
11, 32268, Note_on_c, 9, 36, 0
11, 32304, Note_on_c, 9, 46, 84
11, 32316, Note_on_c, 9, 46, 0
11, 32352, Note_on_c, 9, 40, 127
11, 32352, Note_on_c, 9, 46, 105
11, 32364, Note_on_c, 9, 46, 0
11, 32364, Note_on_c, 9, 40, 0
11, 32400, Note_on_c, 9, 46, 83
11, 32412, Note_on_c, 9, 46, 0
11, 32448, Note_on_c, 9, 36, 118
11, 32448, Note_on_c, 9, 46, 100
11, 32460, Note_on_c, 9, 46, 0
11, 32460, Note_on_c, 9, 36, 0
11, 32496, Note_on_c, 9, 46, 83
11, 32496, Note_on_c, 9, 36, 118
11, 32508, Note_on_c, 9, 36, 0
11, 32508, Note_on_c, 9, 46, 0
11, 32544, Note_on_c, 9, 40, 127
11, 32544, Note_on_c, 9, 46, 99
11, 32556, Note_on_c, 9, 46, 0
11, 32556, Note_on_c, 9, 40, 0
11, 32592, Note_on_c, 9, 46, 81
11, 32592, Note_on_c, 9, 36, 118
11, 32604, Note_on_c, 9, 36, 0
11, 32604, Note_on_c, 9, 46, 0
11, 32640, Note_on_c, 9, 36, 118
11, 32640, Note_on_c, 9, 57, 102
11, 32652, Note_on_c, 9, 57, 0
11, 32652, Note_on_c, 9, 36, 0
11, 32688, Note_on_c, 9, 46, 84
11, 32700, Note_on_c, 9, 46, 0
11, 32736, Note_on_c, 9, 40, 127
11, 32736, Note_on_c, 9, 46, 105
11, 32748, Note_on_c, 9, 46, 0
11, 32748, Note_on_c, 9, 40, 0
11, 32784, Note_on_c, 9, 46, 83
11, 32796, Note_on_c, 9, 46, 0
11, 32832, Note_on_c, 9, 36, 118
11, 32832, Note_on_c, 9, 46, 100
11, 32844, Note_on_c, 9, 46, 0
11, 32844, Note_on_c, 9, 36, 0
11, 32880, Note_on_c, 9, 46, 83
11, 32892, Note_on_c, 9, 46, 0
11, 32928, Note_on_c, 9, 40, 127
11, 32928, Note_on_c, 9, 46, 99
11, 32940, Note_on_c, 9, 46, 0
11, 32940, Note_on_c, 9, 40, 0
11, 32976, Note_on_c, 9, 46, 81
11, 32988, Note_on_c, 9, 46, 0
11, 33024, Note_on_c, 9, 36, 118
11, 33024, Note_on_c, 9, 46, 96
11, 33036, Note_on_c, 9, 46, 0
11, 33036, Note_on_c, 9, 36, 0
11, 33072, Note_on_c, 9, 46, 84
11, 33084, Note_on_c, 9, 46, 0
11, 33120, Note_on_c, 9, 40, 127
11, 33120, Note_on_c, 9, 46, 105
11, 33132, Note_on_c, 9, 46, 0
11, 33132, Note_on_c, 9, 40, 0
11, 33168, Note_on_c, 9, 36, 118
11, 33168, Note_on_c, 9, 46, 83
11, 33180, Note_on_c, 9, 46, 0
11, 33180, Note_on_c, 9, 36, 0
11, 33216, Note_on_c, 9, 36, 118
11, 33216, Note_on_c, 9, 46, 100
11, 33228, Note_on_c, 9, 46, 0
11, 33228, Note_on_c, 9, 36, 0
11, 33264, Note_on_c, 9, 46, 83
11, 33276, Note_on_c, 9, 46, 0
11, 33312, Note_on_c, 9, 40, 127
11, 33312, Note_on_c, 9, 46, 99
11, 33324, Note_on_c, 9, 46, 0
11, 33324, Note_on_c, 9, 40, 0
11, 33360, Note_on_c, 9, 46, 81
11, 33372, Note_on_c, 9, 46, 0
11, 33408, Note_on_c, 9, 36, 118
11, 33408, Note_on_c, 9, 46, 102
11, 33420, Note_on_c, 9, 46, 0
11, 33420, Note_on_c, 9, 36, 0
11, 33456, Note_on_c, 9, 46, 84
11, 33468, Note_on_c, 9, 46, 0
11, 33504, Note_on_c, 9, 40, 127
11, 33504, Note_on_c, 9, 46, 105
11, 33516, Note_on_c, 9, 46, 0
11, 33516, Note_on_c, 9, 40, 0
11, 33552, Note_on_c, 9, 46, 83
11, 33564, Note_on_c, 9, 46, 0
11, 33600, Note_on_c, 9, 36, 118
11, 33600, Note_on_c, 9, 46, 100
11, 33612, Note_on_c, 9, 46, 0
11, 33612, Note_on_c, 9, 36, 0
11, 33648, Note_on_c, 9, 36, 118
11, 33648, Note_on_c, 9, 46, 83
11, 33660, Note_on_c, 9, 46, 0
11, 33660, Note_on_c, 9, 36, 0
11, 33696, Note_on_c, 9, 40, 127
11, 33696, Note_on_c, 9, 46, 99
11, 33708, Note_on_c, 9, 46, 0
11, 33708, Note_on_c, 9, 40, 0
11, 33744, Note_on_c, 9, 46, 81
11, 33756, Note_on_c, 9, 46, 0
11, 33792, Note_on_c, 9, 36, 118
11, 33792, Note_on_c, 9, 46, 105
11, 33804, Note_on_c, 9, 46, 0
11, 33804, Note_on_c, 9, 36, 0
11, 33840, Note_on_c, 9, 46, 84
11, 33852, Note_on_c, 9, 46, 0
11, 33888, Note_on_c, 9, 40, 127
11, 33888, Note_on_c, 9, 46, 105
11, 33900, Note_on_c, 9, 46, 0
11, 33900, Note_on_c, 9, 40, 0
11, 33936, Note_on_c, 9, 36, 118
11, 33936, Note_on_c, 9, 46, 109
11, 33948, Note_on_c, 9, 46, 0
11, 33948, Note_on_c, 9, 36, 0
11, 33984, Note_on_c, 9, 36, 118
11, 33984, Note_on_c, 9, 46, 109
11, 33996, Note_on_c, 9, 46, 0
11, 33996, Note_on_c, 9, 36, 0
11, 34032, Note_on_c, 9, 40, 118
11, 34032, Note_on_c, 9, 46, 109
11, 34044, Note_on_c, 9, 46, 0
11, 34044, Note_on_c, 9, 40, 0
11, 34080, Note_on_c, 9, 40, 118
11, 34080, Note_on_c, 9, 46, 109
11, 34092, Note_on_c, 9, 46, 0
11, 34092, Note_on_c, 9, 40, 0
11, 34128, Note_on_c, 9, 40, 118
11, 34128, Note_on_c, 9, 46, 109
11, 34140, Note_on_c, 9, 46, 0
11, 34140, Note_on_c, 9, 40, 0
11, 34176, Note_on_c, 9, 36, 118
11, 34176, Note_on_c, 9, 57, 102
11, 34188, Note_on_c, 9, 57, 0
11, 34188, Note_on_c, 9, 36, 0
11, 34224, Note_on_c, 9, 46, 84
11, 34236, Note_on_c, 9, 46, 0
11, 34272, Note_on_c, 9, 40, 127
11, 34272, Note_on_c, 9, 46, 105
11, 34284, Note_on_c, 9, 46, 0
11, 34284, Note_on_c, 9, 40, 0
11, 34320, Note_on_c, 9, 46, 83
11, 34332, Note_on_c, 9, 46, 0
11, 34368, Note_on_c, 9, 36, 118
11, 34368, Note_on_c, 9, 46, 100
11, 34380, Note_on_c, 9, 46, 0
11, 34380, Note_on_c, 9, 36, 0
11, 34416, Note_on_c, 9, 46, 83
11, 34428, Note_on_c, 9, 46, 0
11, 34464, Note_on_c, 9, 40, 127
11, 34464, Note_on_c, 9, 46, 99
11, 34476, Note_on_c, 9, 46, 0
11, 34476, Note_on_c, 9, 40, 0
11, 34512, Note_on_c, 9, 46, 81
11, 34524, Note_on_c, 9, 46, 0
11, 34560, Note_on_c, 9, 36, 118
11, 34560, Note_on_c, 9, 46, 96
11, 34572, Note_on_c, 9, 46, 0
11, 34572, Note_on_c, 9, 36, 0
11, 34608, Note_on_c, 9, 46, 84
11, 34620, Note_on_c, 9, 46, 0
11, 34656, Note_on_c, 9, 40, 127
11, 34656, Note_on_c, 9, 46, 105
11, 34668, Note_on_c, 9, 46, 0
11, 34668, Note_on_c, 9, 40, 0
11, 34704, Note_on_c, 9, 46, 83
11, 34716, Note_on_c, 9, 46, 0
11, 34752, Note_on_c, 9, 36, 118
11, 34752, Note_on_c, 9, 46, 100
11, 34764, Note_on_c, 9, 46, 0
11, 34764, Note_on_c, 9, 36, 0
11, 34800, Note_on_c, 9, 36, 118
11, 34800, Note_on_c, 9, 46, 83
11, 34812, Note_on_c, 9, 46, 0
11, 34812, Note_on_c, 9, 36, 0
11, 34848, Note_on_c, 9, 40, 127
11, 34848, Note_on_c, 9, 46, 99
11, 34860, Note_on_c, 9, 46, 0
11, 34860, Note_on_c, 9, 40, 0
11, 34896, Note_on_c, 9, 36, 118
11, 34896, Note_on_c, 9, 46, 81
11, 34908, Note_on_c, 9, 46, 0
11, 34908, Note_on_c, 9, 36, 0
11, 34944, Note_on_c, 9, 36, 118
11, 34944, Note_on_c, 9, 46, 102
11, 34956, Note_on_c, 9, 46, 0
11, 34956, Note_on_c, 9, 36, 0
11, 34992, Note_on_c, 9, 46, 84
11, 35004, Note_on_c, 9, 46, 0
11, 35040, Note_on_c, 9, 40, 127
11, 35040, Note_on_c, 9, 46, 105
11, 35052, Note_on_c, 9, 46, 0
11, 35052, Note_on_c, 9, 40, 0
11, 35088, Note_on_c, 9, 46, 83
11, 35100, Note_on_c, 9, 46, 0
11, 35136, Note_on_c, 9, 36, 118
11, 35136, Note_on_c, 9, 46, 100
11, 35148, Note_on_c, 9, 46, 0
11, 35148, Note_on_c, 9, 36, 0
11, 35184, Note_on_c, 9, 36, 118
11, 35184, Note_on_c, 9, 46, 83
11, 35196, Note_on_c, 9, 46, 0
11, 35196, Note_on_c, 9, 36, 0
11, 35232, Note_on_c, 9, 40, 127
11, 35232, Note_on_c, 9, 46, 99
11, 35244, Note_on_c, 9, 46, 0
11, 35244, Note_on_c, 9, 40, 0
11, 35280, Note_on_c, 9, 46, 81
11, 35292, Note_on_c, 9, 46, 0
11, 35328, Note_on_c, 9, 36, 118
11, 35328, Note_on_c, 9, 46, 105
11, 35340, Note_on_c, 9, 46, 0
11, 35340, Note_on_c, 9, 36, 0
11, 35376, Note_on_c, 9, 46, 84
11, 35388, Note_on_c, 9, 46, 0
11, 35424, Note_on_c, 9, 40, 127
11, 35424, Note_on_c, 9, 46, 105
11, 35436, Note_on_c, 9, 46, 0
11, 35436, Note_on_c, 9, 40, 0
11, 35472, Note_on_c, 9, 46, 109
11, 35484, Note_on_c, 9, 46, 0
11, 35520, Note_on_c, 9, 36, 118
11, 35520, Note_on_c, 9, 46, 109
11, 35532, Note_on_c, 9, 46, 0
11, 35532, Note_on_c, 9, 36, 0
11, 35568, Note_on_c, 9, 40, 118
11, 35568, Note_on_c, 9, 46, 109
11, 35580, Note_on_c, 9, 46, 0
11, 35580, Note_on_c, 9, 40, 0
11, 35616, Note_on_c, 9, 40, 118
11, 35616, Note_on_c, 9, 46, 109
11, 35628, Note_on_c, 9, 46, 0
11, 35628, Note_on_c, 9, 40, 0
11, 35664, Note_on_c, 9, 36, 118
11, 35664, Note_on_c, 9, 46, 109
11, 35676, Note_on_c, 9, 46, 0
11, 35676, Note_on_c, 9, 36, 0
11, 35712, Note_on_c, 9, 36, 118
11, 35712, Note_on_c, 9, 46, 102
11, 35724, Note_on_c, 9, 46, 0
11, 35724, Note_on_c, 9, 36, 0
11, 35760, Note_on_c, 9, 46, 84
11, 35772, Note_on_c, 9, 46, 0
11, 35808, Note_on_c, 9, 40, 127
11, 35808, Note_on_c, 9, 46, 105
11, 35820, Note_on_c, 9, 46, 0
11, 35820, Note_on_c, 9, 40, 0
11, 35856, Note_on_c, 9, 46, 83
11, 35868, Note_on_c, 9, 46, 0
11, 35904, Note_on_c, 9, 36, 118
11, 35904, Note_on_c, 9, 46, 100
11, 35916, Note_on_c, 9, 46, 0
11, 35916, Note_on_c, 9, 36, 0
11, 35952, Note_on_c, 9, 36, 118
11, 35952, Note_on_c, 9, 46, 83
11, 35964, Note_on_c, 9, 46, 0
11, 35964, Note_on_c, 9, 36, 0
11, 36000, Note_on_c, 9, 40, 127
11, 36000, Note_on_c, 9, 46, 99
11, 36012, Note_on_c, 9, 46, 0
11, 36012, Note_on_c, 9, 40, 0
11, 36048, Note_on_c, 9, 46, 81
11, 36060, Note_on_c, 9, 46, 0
11, 36096, Note_on_c, 9, 36, 118
11, 36096, Note_on_c, 9, 46, 105
11, 36108, Note_on_c, 9, 46, 0
11, 36108, Note_on_c, 9, 36, 0
11, 36144, Note_on_c, 9, 46, 84
11, 36144, Note_on_c, 9, 40, 127
11, 36156, Note_on_c, 9, 40, 0
11, 36156, Note_on_c, 9, 46, 0
11, 36192, Note_on_c, 9, 40, 127
11, 36192, Note_on_c, 9, 46, 105
11, 36204, Note_on_c, 9, 46, 0
11, 36204, Note_on_c, 9, 40, 0
11, 36240, Note_on_c, 9, 36, 118
11, 36240, Note_on_c, 9, 57, 109
11, 36252, Note_on_c, 9, 57, 0
11, 36252, Note_on_c, 9, 36, 0
11, 36864, Note_on_c, 9, 40, 105
11, 36864, Note_on_c, 9, 49, 105
11, 36876, Note_on_c, 9, 49, 0
11, 36876, Note_on_c, 9, 40, 0
11, 36878, Note_on_c, 9, 47, 103
11, 36890, Note_on_c, 9, 47, 0
11, 36892, Note_on_c, 9, 45, 93
11, 36904, Note_on_c, 9, 45, 0
11, 36906, Note_on_c, 9, 43, 93
11, 36918, Note_on_c, 9, 43, 0
11, 36924, Note_on_c, 9, 40, 85
11, 36936, Note_on_c, 9, 40, 0
11, 36936, End_track
12, 0, Start_track
12, 0, MIDI_port, 0
12, 0, Title_t, "******************************************"
12, 0, End_track
13, 0, Start_track
13, 0, MIDI_port, 0
13, 0, Title_t, "ROCKIN' ALL OVER THE WORLD"
13, 0, End_track
14, 0, Start_track
14, 0, MIDI_port, 0
14, 0, Title_t, "By John Fogerty"
14, 0, End_track
15, 0, Start_track
15, 0, MIDI_port, 0
15, 0, Title_t, "Sequenced by Karl Redlich"
15, 0, End_track
16, 0, Start_track
16, 0, MIDI_port, 0
16, 0, Title_t, "1998 <redlich@nw.com.au>"
16, 0, End_track
17, 0, Start_track
17, 0, MIDI_port, 0
17, 0, Title_t, "******************************************"
17, 0, End_track
0, 0, End_of_file
