0, 0, Header, 0, 1, 480
1, 0, Start_track
1, 0, Title_t, "Rolling in the deep"
1, 0, Instrument_name_t, " Dispositivo GM"
1, 0, Time_signature, 4, 2, 24, 8
1, 0, Key_signature, 0, "major"
1, 0, SMPTE_offset, 32, 0, 0, 0, 0
1, 0, Tempo, 571428
1, 0, Text_t, "QJ"
1, 0, Lyric_t, "All "
1, 0, Lyric_t, "rights"
1, 0, Lyric_t, " re"
1, 0, Lyric_t, "served "
1, 0, Lyric_t, "\015"
1, 4, System_exclusive, 5, 126, 127, 9, 1, 247
1, 32, System_exclusive, 10, 65, 16, 66, 18, 64, 0, 127, 0, 65, 247
1, 152, System_exclusive, 26, 65, 16, 66, 18, 64, 1, 0, 40, 99, 41, 32, 81, 85, 65, 78, 84, 85, 77, 32, 74, 85, 77, 80, 32, 68, 247
1, 480, Control_c, 1, 121, 0
1, 480, System_exclusive, 10, 65, 16, 66, 18, 64, 0, 4, 127, 61, 247
1, 484, Text_t, "QUANTUM JUMP"
1, 485, Control_c, 1, 10, 64
1, 490, Control_c, 1, 93, 25
1, 495, Control_c, 1, 91, 4
1, 500, Control_c, 1, 11, 127
1, 505, Control_c, 1, 7, 100
1, 510, Pitch_bend_c, 1, 8192
1, 515, Control_c, 1, 0, 0
1, 520, Program_c, 1, 39
1, 525, Control_c, 8, 121, 0
1, 528, System_exclusive, 10, 65, 16, 66, 18, 64, 1, 48, 4, 11, 247
1, 530, Control_c, 8, 10, 24
1, 535, Control_c, 8, 93, 30
1, 540, Control_c, 8, 91, 97
1, 545, Control_c, 8, 11, 127
1, 550, Control_c, 8, 7, 62
1, 550, System_exclusive, 10, 65, 16, 66, 18, 64, 1, 51, 76, 64, 247
1, 555, Pitch_bend_c, 8, 8192
1, 560, Control_c, 8, 0, 0
1, 565, Program_c, 8, 25
1, 570, Control_c, 3, 121, 0
1, 575, Control_c, 3, 10, 71
1, 575, System_exclusive, 10, 65, 16, 66, 18, 64, 1, 52, 80, 59, 247
1, 580, Control_c, 3, 93, 14
1, 585, Control_c, 3, 91, 80
1, 590, Control_c, 3, 11, 127
1, 595, Control_c, 3, 7, 106
1, 600, Pitch_bend_c, 3, 8192
1, 600, System_exclusive, 10, 65, 16, 66, 18, 64, 1, 56, 2, 5, 247
1, 605, Control_c, 3, 0, 0
1, 610, Program_c, 3, 75
1, 623, System_exclusive, 10, 65, 16, 66, 18, 64, 1, 58, 96, 37, 247
1, 648, System_exclusive, 10, 65, 16, 66, 18, 64, 1, 59, 12, 120, 247
1, 660, Control_c, 4, 121, 0
1, 665, Control_c, 4, 10, 75
1, 670, Control_c, 4, 93, 15
1, 670, System_exclusive, 10, 65, 16, 66, 18, 64, 1, 61, 2, 0, 247
1, 675, Control_c, 4, 91, 85
1, 680, Control_c, 4, 11, 127
1, 685, Control_c, 4, 7, 92
1, 690, Pitch_bend_c, 4, 8192
1, 695, Control_c, 4, 0, 0
1, 695, System_exclusive, 10, 65, 16, 66, 18, 64, 1, 62, 24, 105, 247
1, 700, Program_c, 4, 53
1, 716, Control_c, 6, 121, 0
1, 721, Control_c, 6, 10, 117
1, 726, Control_c, 6, 93, 40
1, 731, Control_c, 6, 91, 95
1, 736, Control_c, 6, 11, 127
1, 741, Control_c, 6, 7, 83
1, 746, Pitch_bend_c, 6, 8192
1, 750, Control_c, 7, 121, 0
1, 751, Control_c, 6, 0, 0
1, 755, Control_c, 7, 10, 60
1, 756, Program_c, 6, 30
1, 760, Control_c, 7, 93, 19
1, 765, Control_c, 7, 91, 85
1, 770, Control_c, 7, 11, 127
1, 775, Control_c, 7, 7, 94
1, 780, Pitch_bend_c, 7, 8192
1, 785, Control_c, 7, 0, 0
1, 790, Program_c, 7, 0
1, 840, Control_c, 9, 121, 0
1, 850, Control_c, 9, 93, 24
1, 855, Control_c, 9, 91, 66
1, 860, Control_c, 9, 11, 127
1, 865, Control_c, 9, 7, 117
1, 870, Pitch_bend_c, 9, 8192
1, 880, Program_c, 9, 0
1, 885, Control_c, 2, 121, 0
1, 885, Control_c, 10, 121, 0
1, 890, Control_c, 2, 10, 81
1, 890, Control_c, 10, 10, 89
1, 895, Control_c, 2, 93, 18
1, 895, Control_c, 10, 93, 38
1, 900, Control_c, 2, 91, 98
1, 900, Control_c, 10, 91, 77
1, 905, Control_c, 2, 11, 127
1, 905, Control_c, 10, 11, 127
1, 910, Control_c, 2, 7, 85
1, 910, Control_c, 10, 7, 76
1, 915, Pitch_bend_c, 2, 8192
1, 915, Pitch_bend_c, 10, 8192
1, 920, Control_c, 2, 0, 0
1, 920, Control_c, 9, 99, 24
1, 921, Control_c, 10, 0, 0
1, 925, Program_c, 2, 91
1, 925, Control_c, 9, 98, 99
1, 925, Program_c, 10, 28
1, 930, Control_c, 9, 6, 64
1, 960, Control_c, 9, 98, 40
1, 965, Control_c, 9, 6, 62
1, 975, Control_c, 5, 121, 0
1, 980, Control_c, 5, 10, 109
1, 985, Control_c, 5, 93, 28
1, 990, Control_c, 5, 91, 106
1, 995, Control_c, 5, 11, 127
1, 1000, Control_c, 5, 7, 70
1, 1005, Control_c, 9, 98, 39
1, 1005, Pitch_bend_c, 5, 8192
1, 1010, Control_c, 5, 0, 0
1, 1010, Control_c, 9, 6, 67
1, 1015, Program_c, 5, 26
1, 1046, Control_c, 9, 98, 46
1, 1051, Control_c, 9, 6, 61
1, 1461, Control_c, 1, 99, 1
1, 1461, Control_c, 2, 99, 1
1, 1462, Control_c, 8, 99, 1
1, 1463, Control_c, 10, 99, 1
1, 1473, Control_c, 6, 99, 1
1, 1485, Control_c, 1, 98, 33
1, 1485, Control_c, 2, 98, 33
1, 1486, Control_c, 1, 6, 41
1, 1487, Control_c, 2, 6, 69
1, 1487, Control_c, 8, 98, 33
1, 1488, Control_c, 8, 6, 66
1, 1488, Control_c, 10, 98, 102
1, 1488, Control_c, 10, 6, 64
1, 1498, Control_c, 6, 98, 32
1, 1498, Control_c, 6, 6, 64
1, 1920, Note_on_c, 8, 48, 98
1, 1920, Note_on_c, 10, 48, 64
1, 1931, Note_on_c, 8, 55, 100
1, 1931, Note_on_c, 10, 55, 66
1, 1962, Note_off_c, 8, 48, 0
1, 1962, Note_off_c, 10, 48, 0
1, 1978, Note_off_c, 8, 55, 0
1, 1978, Note_off_c, 10, 55, 0
1, 2160, Note_on_c, 8, 48, 115
1, 2160, Note_on_c, 10, 48, 81
1, 2171, Note_on_c, 8, 55, 100
1, 2171, Note_on_c, 10, 55, 66
1, 2205, Note_off_c, 8, 48, 0
1, 2205, Note_off_c, 10, 48, 0
1, 2210, Note_off_c, 8, 55, 0
1, 2210, Note_off_c, 10, 55, 0
1, 2400, Note_on_c, 8, 48, 83
1, 2400, Note_on_c, 10, 48, 49
1, 2411, Note_on_c, 8, 55, 87
1, 2411, Note_on_c, 10, 55, 53
1, 2433, Note_off_c, 8, 48, 0
1, 2433, Note_off_c, 10, 48, 0
1, 2445, Note_off_c, 8, 55, 0
1, 2445, Note_off_c, 10, 55, 0
1, 2640, Note_on_c, 8, 48, 102
1, 2640, Note_on_c, 10, 48, 68
1, 2651, Note_on_c, 8, 55, 87
1, 2651, Note_on_c, 10, 55, 53
1, 2680, Note_off_c, 8, 48, 0
1, 2680, Note_off_c, 10, 48, 0
1, 2692, Note_off_c, 8, 55, 0
1, 2692, Note_off_c, 10, 55, 0
1, 2880, Note_on_c, 8, 48, 87
1, 2880, Note_on_c, 10, 48, 53
1, 2891, Note_on_c, 8, 55, 75
1, 2891, Note_on_c, 10, 55, 41
1, 2918, Note_off_c, 8, 48, 0
1, 2918, Note_off_c, 10, 48, 0
1, 2929, Note_off_c, 8, 55, 0
1, 2929, Note_off_c, 10, 55, 0
1, 3120, Note_on_c, 8, 48, 110
1, 3120, Note_on_c, 10, 48, 76
1, 3131, Note_on_c, 8, 55, 87
1, 3131, Note_on_c, 10, 55, 53
1, 3165, Note_off_c, 8, 48, 0
1, 3165, Note_off_c, 10, 48, 0
1, 3174, Note_off_c, 8, 55, 0
1, 3174, Note_off_c, 10, 55, 0
1, 3360, Note_on_c, 8, 48, 115
1, 3360, Note_on_c, 10, 48, 81
1, 3371, Note_on_c, 8, 55, 95
1, 3371, Note_on_c, 10, 55, 61
1, 3405, Note_off_c, 8, 48, 0
1, 3405, Note_off_c, 10, 48, 0
1, 3410, Note_off_c, 8, 55, 0
1, 3410, Note_off_c, 10, 55, 0
1, 3600, Note_on_c, 8, 48, 115
1, 3600, Note_on_c, 10, 48, 81
1, 3611, Note_on_c, 8, 55, 87
1, 3611, Note_on_c, 10, 55, 53
1, 3646, Note_off_c, 8, 48, 0
1, 3646, Note_off_c, 10, 48, 0
1, 3649, Note_off_c, 8, 55, 0
1, 3649, Note_off_c, 10, 55, 0
1, 3840, Note_on_c, 8, 48, 102
1, 3840, Note_on_c, 10, 48, 64
1, 3851, Note_on_c, 8, 55, 80
1, 3851, Note_on_c, 10, 55, 66
1, 3882, Note_off_c, 10, 48, 0
1, 3884, Note_off_c, 8, 55, 0
1, 3885, Note_off_c, 8, 48, 0
1, 3898, Note_off_c, 10, 55, 0
1, 4080, Note_on_c, 8, 48, 110
1, 4080, Note_on_c, 10, 48, 81
1, 4091, Note_on_c, 8, 55, 91
1, 4091, Note_on_c, 10, 55, 66
1, 4125, Note_off_c, 10, 48, 0
1, 4127, Note_off_c, 8, 48, 0
1, 4130, Note_off_c, 10, 55, 0
1, 4135, Note_off_c, 8, 55, 0
1, 4320, Note_on_c, 8, 48, 110
1, 4320, Note_on_c, 10, 48, 49
1, 4331, Note_on_c, 8, 55, 91
1, 4331, Note_on_c, 10, 55, 53
1, 4353, Note_off_c, 10, 48, 0
1, 4364, Note_off_c, 8, 48, 0
1, 4365, Note_off_c, 10, 55, 0
1, 4367, Note_off_c, 8, 55, 0
1, 4560, Note_on_c, 8, 48, 115
1, 4560, Note_on_c, 10, 48, 68
1, 4571, Note_on_c, 8, 55, 87
1, 4571, Note_on_c, 10, 55, 53
1, 4600, Note_off_c, 10, 48, 0
1, 4611, Note_off_c, 8, 48, 0
1, 4612, Note_off_c, 10, 55, 0
1, 4615, Note_off_c, 8, 55, 0
1, 4800, Note_on_c, 8, 48, 102
1, 4800, Note_on_c, 10, 48, 53
1, 4811, Note_on_c, 8, 55, 91
1, 4811, Note_on_c, 10, 55, 41
1, 4838, Note_off_c, 10, 48, 0
1, 4849, Note_off_c, 10, 55, 0
1, 4852, Note_off_c, 8, 48, 0
1, 4859, Note_off_c, 8, 55, 0
1, 5040, Note_on_c, 8, 48, 110
1, 5040, Note_on_c, 10, 48, 76
1, 5051, Note_on_c, 8, 55, 91
1, 5051, Note_on_c, 10, 55, 53
1, 5085, Note_off_c, 8, 48, 0
1, 5085, Note_off_c, 10, 48, 0
1, 5094, Note_off_c, 10, 55, 0
1, 5101, Note_off_c, 8, 55, 0
1, 5280, Note_on_c, 8, 48, 115
1, 5280, Note_on_c, 10, 48, 81
1, 5291, Note_on_c, 8, 55, 83
1, 5291, Note_on_c, 10, 55, 61
1, 5324, Note_off_c, 8, 48, 0
1, 5325, Note_off_c, 10, 48, 0
1, 5330, Note_off_c, 10, 55, 0
1, 5337, Note_off_c, 8, 55, 0
1, 5520, Note_on_c, 8, 48, 120
1, 5520, Note_on_c, 10, 48, 81
1, 5531, Note_on_c, 8, 55, 105
1, 5531, Note_on_c, 10, 55, 53
1, 5566, Note_off_c, 10, 48, 0
1, 5567, Note_off_c, 8, 48, 0
1, 5569, Note_off_c, 10, 55, 0
1, 5585, Note_off_c, 8, 55, 0
1, 5759, Lyric_t, "THERE "
1, 5759, Note_on_c, 3, 77, 115
1, 5760, Note_on_c, 8, 48, 98
1, 5760, Note_on_c, 10, 48, 64
1, 5771, Note_on_c, 8, 55, 100
1, 5771, Note_on_c, 10, 55, 66
1, 5802, Note_off_c, 8, 48, 0
1, 5802, Note_off_c, 10, 48, 0
1, 5815, Pitch_bend_c, 3, 8712
1, 5818, Note_off_c, 8, 55, 0
1, 5818, Note_off_c, 10, 55, 0
1, 5830, Pitch_bend_c, 3, 9102
1, 5840, Pitch_bend_c, 3, 9362
1, 5851, Pitch_bend_c, 3, 9752
1, 5865, Pitch_bend_c, 3, 10142
1, 5877, Pitch_bend_c, 3, 10532
1, 5890, Pitch_bend_c, 3, 10922
1, 5905, Pitch_bend_c, 3, 11442
1, 5922, Pitch_bend_c, 3, 11832
1, 5939, Pitch_bend_c, 3, 12222
1, 5951, Pitch_bend_c, 3, 12482
1, 5962, Pitch_bend_c, 3, 12612
1, 5981, Pitch_bend_c, 3, 12872
1, 5994, Pitch_bend_c, 3, 13002
1, 6000, Note_on_c, 8, 48, 115
1, 6000, Note_on_c, 10, 48, 81
1, 6006, Pitch_bend_c, 3, 13262
1, 6011, Note_on_c, 8, 55, 100
1, 6011, Note_on_c, 10, 55, 66
1, 6025, Pitch_bend_c, 3, 13652
1, 6040, Pitch_bend_c, 3, 14042
1, 6045, Note_off_c, 8, 48, 0
1, 6045, Note_off_c, 10, 48, 0
1, 6050, Note_off_c, 8, 55, 0
1, 6050, Note_off_c, 10, 55, 0
1, 6055, Pitch_bend_c, 3, 14562
1, 6066, Pitch_bend_c, 3, 14692
1, 6077, Pitch_bend_c, 3, 14952
1, 6097, Pitch_bend_c, 3, 15082
1, 6175, Note_off_c, 3, 77, 0
1, 6187, Pitch_bend_c, 3, 14822
1, 6199, Pitch_bend_c, 3, 14172
1, 6211, Pitch_bend_c, 3, 13262
1, 6223, Pitch_bend_c, 3, 12352
1, 6234, Pitch_bend_c, 3, 11442
1, 6240, Note_on_c, 8, 48, 83
1, 6240, Note_on_c, 10, 48, 49
1, 6244, Pitch_bend_c, 3, 10532
1, 6251, Note_on_c, 8, 55, 87
1, 6251, Note_on_c, 10, 55, 53
1, 6255, Lyric_t, "THERE'S A "
1, 6255, Note_on_c, 3, 77, 115
1, 6258, Pitch_bend_c, 3, 9752
1, 6270, Pitch_bend_c, 3, 9362
1, 6273, Note_off_c, 8, 48, 0
1, 6273, Note_off_c, 10, 48, 0
1, 6285, Note_off_c, 8, 55, 0
1, 6285, Note_off_c, 10, 55, 0
1, 6328, Pitch_bend_c, 3, 9752
1, 6340, Pitch_bend_c, 3, 10142
1, 6354, Pitch_bend_c, 3, 10662
1, 6364, Pitch_bend_c, 3, 11052
1, 6374, Pitch_bend_c, 3, 11442
1, 6384, Pitch_bend_c, 3, 11832
1, 6396, Pitch_bend_c, 3, 12482
1, 6407, Pitch_bend_c, 3, 13132
1, 6418, Pitch_bend_c, 3, 13522
1, 6431, Pitch_bend_c, 3, 14172
1, 6446, Pitch_bend_c, 3, 14562
1, 6460, Pitch_bend_c, 3, 14822
1, 6475, Pitch_bend_c, 3, 14952
1, 6480, Note_on_c, 8, 48, 102
1, 6480, Note_on_c, 10, 48, 68
1, 6490, Pitch_bend_c, 3, 15212
1, 6491, Note_on_c, 8, 55, 87
1, 6491, Note_on_c, 10, 55, 53
1, 6515, Pitch_bend_c, 3, 15472
1, 6520, Note_off_c, 8, 48, 0
1, 6520, Note_off_c, 10, 48, 0
1, 6532, Note_off_c, 8, 55, 0
1, 6532, Note_off_c, 10, 55, 0
1, 6567, Pitch_bend_c, 3, 15602
1, 6611, Pitch_bend_c, 3, 15862
1, 6628, Pitch_bend_c, 3, 15992
1, 6649, Pitch_bend_c, 3, 16252
1, 6714, Note_off_c, 3, 77, 0
1, 6720, Lyric_t, "FI"
1, 6720, Note_on_c, 3, 77, 97
1, 6720, Note_on_c, 8, 48, 87
1, 6720, Note_on_c, 10, 48, 53
1, 6722, Pitch_bend_c, 3, 15212
1, 6731, Note_on_c, 8, 55, 75
1, 6731, Note_on_c, 10, 55, 41
1, 6733, Pitch_bend_c, 3, 13392
1, 6743, Pitch_bend_c, 3, 10792
1, 6753, Pitch_bend_c, 3, 8452
1, 6758, Note_off_c, 8, 48, 0
1, 6758, Note_off_c, 10, 48, 0
1, 6769, Note_off_c, 8, 55, 0
1, 6769, Note_off_c, 10, 55, 0
1, 6770, Pitch_bend_c, 3, 8192
1, 6805, Note_off_c, 3, 77, 0
1, 6891, Note_on_c, 3, 75, 97
1, 6960, Note_on_c, 8, 48, 110
1, 6960, Note_on_c, 10, 48, 76
1, 6971, Note_on_c, 8, 55, 87
1, 6971, Note_on_c, 10, 55, 53
1, 6977, Note_off_c, 3, 75, 0
1, 6991, Lyric_t, "RE"
1, 6991, Lyric_t, "\015"
1, 6991, Note_on_c, 3, 72, 120
1, 7005, Note_off_c, 8, 48, 0
1, 7005, Note_off_c, 10, 48, 0
1, 7014, Note_off_c, 8, 55, 0
1, 7014, Note_off_c, 10, 55, 0
1, 7200, Note_on_c, 8, 48, 115
1, 7200, Note_on_c, 10, 48, 81
1, 7211, Note_on_c, 8, 55, 95
1, 7211, Note_on_c, 10, 55, 61
1, 7245, Note_off_c, 8, 48, 0
1, 7245, Note_off_c, 10, 48, 0
1, 7250, Note_off_c, 8, 55, 0
1, 7250, Note_off_c, 10, 55, 0
1, 7440, Note_on_c, 8, 48, 115
1, 7440, Note_on_c, 10, 48, 81
1, 7451, Note_on_c, 8, 55, 87
1, 7451, Note_on_c, 10, 55, 53
1, 7486, Note_off_c, 8, 48, 0
1, 7486, Note_off_c, 10, 48, 0
1, 7489, Note_off_c, 3, 72, 0
1, 7489, Note_off_c, 8, 55, 0
1, 7489, Note_off_c, 10, 55, 0
1, 7628, Pitch_bend_c, 3, 7296
1, 7638, Pitch_bend_c, 3, 6016
1, 7648, Pitch_bend_c, 3, 4480
1, 7658, Pitch_bend_c, 3, 2944
1, 7671, Pitch_bend_c, 3, 1536
1, 7680, Note_on_c, 8, 48, 102
1, 7680, Note_on_c, 10, 48, 68
1, 7683, Pitch_bend_c, 3, 640
1, 7689, Lyric_t, "STAR"
1, 7689, Note_on_c, 3, 79, 120
1, 7691, Note_on_c, 8, 55, 80
1, 7691, Note_on_c, 10, 55, 46
1, 7693, Pitch_bend_c, 3, 128
1, 7723, Pitch_bend_c, 3, 384
1, 7724, Note_off_c, 8, 55, 0
1, 7724, Note_off_c, 10, 55, 0
1, 7725, Note_off_c, 8, 48, 0
1, 7725, Note_off_c, 10, 48, 0
1, 7733, Pitch_bend_c, 3, 1280
1, 7744, Pitch_bend_c, 3, 2688
1, 7754, Pitch_bend_c, 3, 4096
1, 7764, Pitch_bend_c, 3, 5632
1, 7777, Pitch_bend_c, 3, 7296
1, 7787, Pitch_bend_c, 3, 8192
1, 7852, Note_off_c, 3, 79, 0
1, 7865, Pitch_bend_c, 3, 8064
1, 7875, Pitch_bend_c, 3, 6016
1, 7885, Pitch_bend_c, 3, 3584
1, 7895, Pitch_bend_c, 3, 1280
1, 7905, Pitch_bend_c, 3, 0
1, 7920, Note_on_c, 8, 43, 110
1, 7920, Note_on_c, 10, 43, 76
1, 7928, Lyric_t, "TING "
1, 7928, Note_on_c, 3, 79, 102
1, 7931, Note_on_c, 8, 50, 91
1, 7931, Note_on_c, 10, 50, 57
1, 7967, Note_off_c, 8, 43, 0
1, 7967, Note_off_c, 10, 43, 0
1, 7972, Pitch_bend_c, 3, 1152
1, 7975, Note_off_c, 8, 50, 0
1, 7975, Note_off_c, 10, 50, 0
1, 7982, Pitch_bend_c, 3, 3072
1, 7992, Pitch_bend_c, 3, 5504
1, 8002, Pitch_bend_c, 3, 8192
1, 8100, Note_off_c, 3, 79, 0
1, 8153, Lyric_t, "IN "
1, 8153, Note_on_c, 3, 77, 106
1, 8160, Note_on_c, 8, 43, 110
1, 8160, Note_on_c, 10, 43, 76
1, 8171, Note_on_c, 8, 50, 91
1, 8171, Note_on_c, 10, 50, 57
1, 8204, Note_off_c, 8, 43, 0
1, 8204, Note_off_c, 10, 43, 0
1, 8207, Note_off_c, 8, 50, 0
1, 8207, Note_off_c, 10, 50, 0
1, 8376, Lyric_t, "MY "
1, 8376, Note_on_c, 3, 75, 123
1, 8392, Note_off_c, 3, 77, 0
1, 8400, Note_on_c, 8, 43, 115
1, 8400, Note_on_c, 10, 43, 81
1, 8411, Note_on_c, 8, 50, 87
1, 8411, Note_on_c, 10, 50, 53
1, 8451, Note_off_c, 8, 43, 0
1, 8451, Note_off_c, 10, 43, 0
1, 8455, Note_off_c, 8, 50, 0
1, 8455, Note_off_c, 10, 50, 0
1, 8640, Note_on_c, 8, 43, 102
1, 8640, Note_on_c, 10, 43, 68
1, 8651, Note_on_c, 8, 50, 91
1, 8651, Note_on_c, 10, 50, 57
1, 8692, Note_off_c, 8, 43, 0
1, 8692, Note_off_c, 10, 43, 0
1, 8699, Note_off_c, 8, 50, 0
1, 8699, Note_off_c, 10, 50, 0
1, 8818, Note_off_c, 3, 75, 0
1, 8852, Lyric_t, "HEART"
1, 8852, Lyric_t, "\015"
1, 8852, Note_on_c, 3, 72, 125
1, 8880, Note_on_c, 8, 43, 110
1, 8880, Note_on_c, 10, 43, 76
1, 8891, Note_on_c, 8, 50, 91
1, 8891, Note_on_c, 10, 50, 57
1, 8925, Note_off_c, 8, 43, 0
1, 8925, Note_off_c, 10, 43, 0
1, 8941, Note_off_c, 8, 50, 0
1, 8941, Note_off_c, 10, 50, 0
1, 9120, Note_on_c, 8, 43, 115
1, 9120, Note_on_c, 10, 43, 81
1, 9131, Note_on_c, 8, 50, 83
1, 9131, Note_on_c, 10, 50, 49
1, 9164, Note_off_c, 8, 43, 0
1, 9164, Note_off_c, 10, 43, 0
1, 9177, Note_off_c, 8, 50, 0
1, 9177, Note_off_c, 10, 50, 0
1, 9255, Note_off_c, 3, 72, 0
1, 9360, Note_on_c, 8, 43, 120
1, 9360, Note_on_c, 10, 43, 86
1, 9371, Note_on_c, 8, 50, 105
1, 9371, Note_on_c, 10, 50, 71
1, 9407, Note_off_c, 8, 43, 0
1, 9407, Note_off_c, 10, 43, 0
1, 9425, Note_off_c, 8, 50, 0
1, 9425, Note_off_c, 10, 50, 0
1, 9600, Note_on_c, 8, 43, 120
1, 9600, Note_on_c, 10, 43, 86
1, 9611, Note_on_c, 8, 50, 105
1, 9611, Note_on_c, 10, 50, 71
1, 9617, Lyric_t, "REA"
1, 9617, Note_on_c, 3, 77, 110
1, 9647, Note_off_c, 8, 43, 0
1, 9647, Note_off_c, 10, 43, 0
1, 9665, Note_off_c, 8, 50, 0
1, 9665, Note_off_c, 10, 50, 0
1, 9711, Pitch_bend_c, 3, 8842
1, 9722, Pitch_bend_c, 3, 9232
1, 9738, Pitch_bend_c, 3, 9622
1, 9751, Pitch_bend_c, 3, 10012
1, 9761, Pitch_bend_c, 3, 10532
1, 9776, Pitch_bend_c, 3, 10922
1, 9791, Pitch_bend_c, 3, 11312
1, 9803, Pitch_bend_c, 3, 11572
1, 9818, Pitch_bend_c, 3, 11702
1, 9828, Pitch_bend_c, 3, 11962
1, 9840, Note_on_c, 8, 46, 110
1, 9840, Note_on_c, 10, 46, 76
1, 9843, Pitch_bend_c, 3, 12352
1, 9851, Note_on_c, 8, 53, 91
1, 9851, Note_on_c, 10, 53, 57
1, 9853, Pitch_bend_c, 3, 12742
1, 9864, Pitch_bend_c, 3, 13132
1, 9877, Pitch_bend_c, 3, 13912
1, 9887, Note_off_c, 8, 46, 0
1, 9887, Note_off_c, 10, 46, 0
1, 9889, Pitch_bend_c, 3, 14562
1, 9895, Note_off_c, 8, 53, 0
1, 9895, Note_off_c, 10, 53, 0
1, 9902, Pitch_bend_c, 3, 15212
1, 9912, Pitch_bend_c, 3, 15602
1, 9924, Pitch_bend_c, 3, 16122
1, 9954, Pitch_bend_c, 3, 14432
1, 9966, Pitch_bend_c, 3, 9882
1, 9975, Note_off_c, 3, 77, 0
1, 9976, Pitch_bend_c, 3, 8452
1, 9995, Lyric_t, "CHING "
1, 9995, Note_on_c, 3, 82, 111
1, 10080, Note_on_c, 8, 46, 110
1, 10080, Note_on_c, 10, 46, 76
1, 10091, Note_on_c, 8, 53, 91
1, 10091, Note_on_c, 10, 53, 57
1, 10124, Note_off_c, 8, 46, 0
1, 10124, Note_off_c, 10, 46, 0
1, 10127, Note_off_c, 8, 53, 0
1, 10127, Note_off_c, 10, 53, 0
1, 10268, Note_off_c, 3, 82, 0
1, 10320, Note_on_c, 8, 46, 115
1, 10320, Note_on_c, 10, 46, 81
1, 10331, Note_on_c, 8, 53, 87
1, 10331, Note_on_c, 10, 53, 53
1, 10343, Lyric_t, "A "
1, 10343, Note_on_c, 3, 79, 106
1, 10371, Note_off_c, 8, 46, 0
1, 10371, Note_off_c, 10, 46, 0
1, 10375, Note_off_c, 8, 53, 0
1, 10375, Note_off_c, 10, 53, 0
1, 10546, Note_off_c, 3, 79, 0
1, 10560, Note_on_c, 8, 46, 102
1, 10560, Note_on_c, 10, 46, 68
1, 10571, Note_on_c, 8, 53, 91
1, 10571, Note_on_c, 10, 53, 57
1, 10580, Lyric_t, "FE"
1, 10580, Note_on_c, 3, 77, 110
1, 10612, Note_off_c, 8, 46, 0
1, 10612, Note_off_c, 10, 46, 0
1, 10619, Note_off_c, 8, 53, 0
1, 10619, Note_off_c, 10, 53, 0
1, 10766, Note_off_c, 3, 77, 0
1, 10800, Note_on_c, 8, 46, 110
1, 10800, Note_on_c, 10, 46, 76
1, 10811, Note_on_c, 8, 53, 91
1, 10811, Note_on_c, 10, 53, 57
1, 10812, Lyric_t, "VER "
1, 10812, Note_on_c, 3, 75, 111
1, 10845, Note_off_c, 8, 46, 0
1, 10845, Note_off_c, 10, 46, 0
1, 10861, Note_off_c, 8, 53, 0
1, 10861, Note_off_c, 10, 53, 0
1, 11005, Note_off_c, 3, 75, 0
1, 11040, Note_on_c, 8, 46, 115
1, 11040, Note_on_c, 10, 46, 81
1, 11041, Lyric_t, "PITCH"
1, 11041, Lyric_t, "\015"
1, 11041, Note_on_c, 3, 72, 110
1, 11051, Note_on_c, 8, 53, 83
1, 11051, Note_on_c, 10, 53, 49
1, 11084, Note_off_c, 8, 46, 0
1, 11084, Note_off_c, 10, 46, 0
1, 11097, Note_off_c, 8, 53, 0
1, 11097, Note_off_c, 10, 53, 0
1, 11164, Note_off_c, 3, 72, 0
1, 11280, Note_on_c, 8, 46, 120
1, 11280, Note_on_c, 10, 46, 86
1, 11291, Note_on_c, 8, 53, 105
1, 11291, Note_on_c, 10, 53, 71
1, 11295, Lyric_t, "AND IT'S "
1, 11295, Note_on_c, 3, 72, 125
1, 11327, Note_off_c, 8, 46, 0
1, 11327, Note_off_c, 10, 46, 0
1, 11345, Note_off_c, 8, 53, 0
1, 11345, Note_off_c, 10, 53, 0
1, 11447, Note_off_c, 3, 72, 0
1, 11516, Lyric_t, "BRIN"
1, 11516, Note_on_c, 3, 75, 123
1, 11520, Note_on_c, 8, 46, 120
1, 11520, Note_on_c, 10, 46, 86
1, 11531, Note_on_c, 8, 53, 105
1, 11531, Note_on_c, 10, 53, 71
1, 11567, Note_off_c, 8, 46, 0
1, 11567, Note_off_c, 10, 46, 0
1, 11575, Note_off_c, 3, 75, 0
1, 11585, Note_off_c, 8, 53, 0
1, 11585, Note_off_c, 10, 53, 0
1, 11643, Lyric_t, "GING "
1, 11643, Note_on_c, 3, 75, 101
1, 11751, Note_off_c, 3, 75, 0
1, 11760, Note_on_c, 8, 43, 110
1, 11760, Note_on_c, 10, 43, 76
1, 11771, Note_on_c, 8, 50, 91
1, 11771, Note_on_c, 10, 50, 57
1, 11807, Note_off_c, 8, 43, 0
1, 11807, Note_off_c, 10, 43, 0
1, 11815, Note_off_c, 8, 50, 0
1, 11815, Note_off_c, 10, 50, 0
1, 11873, Lyric_t, "ME "
1, 11873, Note_on_c, 3, 75, 111
1, 11952, Note_off_c, 3, 75, 0
1, 11999, Lyric_t, "OUT "
1, 11999, Note_on_c, 3, 74, 106
1, 12000, Note_on_c, 8, 43, 110
1, 12000, Note_on_c, 10, 43, 76
1, 12011, Note_on_c, 8, 50, 91
1, 12011, Note_on_c, 10, 50, 57
1, 12044, Note_off_c, 8, 43, 0
1, 12044, Note_off_c, 10, 43, 0
1, 12047, Note_off_c, 8, 50, 0
1, 12047, Note_off_c, 10, 50, 0
1, 12137, Note_off_c, 3, 74, 0
1, 12240, Note_on_c, 8, 43, 115
1, 12240, Note_on_c, 10, 43, 81
1, 12246, Lyric_t, "THE "
1, 12246, Note_on_c, 3, 72, 115
1, 12251, Note_on_c, 8, 50, 87
1, 12251, Note_on_c, 10, 50, 53
1, 12291, Note_off_c, 8, 43, 0
1, 12291, Note_off_c, 10, 43, 0
1, 12295, Note_off_c, 8, 50, 0
1, 12295, Note_off_c, 10, 50, 0
1, 12308, Note_off_c, 3, 72, 0
1, 12380, Lyric_t, "DARK"
1, 12380, Lyric_t, "\015"
1, 12380, Note_on_c, 3, 72, 127
1, 12480, Note_on_c, 8, 43, 102
1, 12480, Note_on_c, 10, 43, 68
1, 12491, Note_on_c, 8, 50, 91
1, 12491, Note_on_c, 10, 50, 57
1, 12532, Note_off_c, 8, 43, 0
1, 12532, Note_off_c, 10, 43, 0
1, 12539, Note_off_c, 8, 50, 0
1, 12539, Note_off_c, 10, 50, 0
1, 12709, Note_off_c, 3, 72, 0
1, 12720, Note_on_c, 8, 46, 110
1, 12720, Note_on_c, 10, 46, 76
1, 12731, Note_on_c, 8, 53, 91
1, 12731, Note_on_c, 10, 53, 57
1, 12765, Note_off_c, 8, 46, 0
1, 12765, Note_off_c, 10, 46, 0
1, 12781, Note_off_c, 8, 53, 0
1, 12781, Note_off_c, 10, 53, 0
1, 12960, Note_on_c, 8, 46, 115
1, 12960, Note_on_c, 10, 46, 81
1, 12971, Note_on_c, 8, 53, 83
1, 12971, Note_on_c, 10, 53, 49
1, 13004, Note_off_c, 8, 46, 0
1, 13004, Note_off_c, 10, 46, 0
1, 13017, Note_off_c, 8, 53, 0
1, 13017, Note_off_c, 10, 53, 0
1, 13200, Note_on_c, 8, 46, 120
1, 13200, Note_on_c, 10, 46, 86
1, 13211, Note_on_c, 8, 53, 105
1, 13211, Note_on_c, 10, 53, 71
1, 13247, Note_off_c, 8, 46, 0
1, 13247, Note_off_c, 10, 46, 0
1, 13265, Note_off_c, 8, 53, 0
1, 13265, Note_off_c, 10, 53, 0
1, 13439, Lyric_t, "FI"
1, 13439, Note_on_c, 3, 77, 115
1, 13440, Note_on_c, 8, 48, 98
1, 13440, Note_on_c, 10, 48, 64
1, 13451, Note_on_c, 8, 55, 100
1, 13451, Note_on_c, 10, 55, 66
1, 13482, Note_off_c, 8, 48, 0
1, 13482, Note_off_c, 10, 48, 0
1, 13495, Pitch_bend_c, 3, 8712
1, 13498, Note_off_c, 8, 55, 0
1, 13498, Note_off_c, 10, 55, 0
1, 13510, Pitch_bend_c, 3, 9102
1, 13520, Pitch_bend_c, 3, 9362
1, 13531, Pitch_bend_c, 3, 9752
1, 13545, Pitch_bend_c, 3, 10142
1, 13557, Pitch_bend_c, 3, 10532
1, 13570, Pitch_bend_c, 3, 10922
1, 13585, Pitch_bend_c, 3, 11442
1, 13602, Pitch_bend_c, 3, 11832
1, 13619, Pitch_bend_c, 3, 12222
1, 13631, Pitch_bend_c, 3, 12482
1, 13642, Pitch_bend_c, 3, 12612
1, 13661, Pitch_bend_c, 3, 12872
1, 13674, Pitch_bend_c, 3, 13002
1, 13680, Note_on_c, 8, 48, 115
1, 13680, Note_on_c, 10, 48, 81
1, 13686, Pitch_bend_c, 3, 13262
1, 13691, Note_on_c, 8, 55, 100
1, 13691, Note_on_c, 10, 55, 66
1, 13705, Pitch_bend_c, 3, 13652
1, 13720, Pitch_bend_c, 3, 14042
1, 13725, Note_off_c, 8, 48, 0
1, 13725, Note_off_c, 10, 48, 0
1, 13730, Note_off_c, 8, 55, 0
1, 13730, Note_off_c, 10, 55, 0
1, 13735, Pitch_bend_c, 3, 14562
1, 13746, Pitch_bend_c, 3, 14692
1, 13757, Pitch_bend_c, 3, 14952
1, 13777, Pitch_bend_c, 3, 15082
1, 13855, Note_off_c, 3, 77, 0
1, 13867, Pitch_bend_c, 3, 14822
1, 13879, Pitch_bend_c, 3, 14172
1, 13891, Pitch_bend_c, 3, 13262
1, 13903, Pitch_bend_c, 3, 12352
1, 13914, Pitch_bend_c, 3, 11442
1, 13920, Note_on_c, 8, 48, 83
1, 13920, Note_on_c, 10, 48, 49
1, 13924, Pitch_bend_c, 3, 10532
1, 13931, Note_on_c, 8, 55, 87
1, 13931, Note_on_c, 10, 55, 53
1, 13935, Lyric_t, "NAL"
1, 13935, Note_on_c, 3, 77, 115
1, 13938, Pitch_bend_c, 3, 9752
1, 13950, Pitch_bend_c, 3, 9362
1, 13953, Note_off_c, 8, 48, 0
1, 13953, Note_off_c, 10, 48, 0
1, 13965, Note_off_c, 8, 55, 0
1, 13965, Note_off_c, 10, 55, 0
1, 14008, Pitch_bend_c, 3, 9752
1, 14020, Pitch_bend_c, 3, 10142
1, 14034, Pitch_bend_c, 3, 10662
1, 14044, Pitch_bend_c, 3, 11052
1, 14054, Pitch_bend_c, 3, 11442
1, 14064, Pitch_bend_c, 3, 11832
1, 14076, Pitch_bend_c, 3, 12482
1, 14087, Pitch_bend_c, 3, 13132
1, 14098, Pitch_bend_c, 3, 13522
1, 14111, Pitch_bend_c, 3, 14172
1, 14126, Pitch_bend_c, 3, 14562
1, 14140, Pitch_bend_c, 3, 14822
1, 14155, Pitch_bend_c, 3, 14952
1, 14160, Note_on_c, 8, 48, 102
1, 14160, Note_on_c, 10, 48, 68
1, 14170, Pitch_bend_c, 3, 15212
1, 14171, Note_on_c, 8, 55, 87
1, 14171, Note_on_c, 10, 55, 53
1, 14195, Pitch_bend_c, 3, 15472
1, 14200, Note_off_c, 8, 48, 0
1, 14200, Note_off_c, 10, 48, 0
1, 14212, Note_off_c, 8, 55, 0
1, 14212, Note_off_c, 10, 55, 0
1, 14247, Pitch_bend_c, 3, 15602
1, 14291, Pitch_bend_c, 3, 15862
1, 14308, Pitch_bend_c, 3, 15992
1, 14329, Pitch_bend_c, 3, 16252
1, 14400, Note_on_c, 8, 48, 87
1, 14400, Note_on_c, 10, 48, 53
1, 14402, Pitch_bend_c, 3, 15212
1, 14411, Note_on_c, 8, 55, 75
1, 14411, Note_on_c, 10, 55, 41
1, 14413, Pitch_bend_c, 3, 13392
1, 14423, Pitch_bend_c, 3, 10792
1, 14433, Pitch_bend_c, 3, 8452
1, 14438, Note_off_c, 8, 48, 0
1, 14438, Note_off_c, 10, 48, 0
1, 14445, Note_off_c, 3, 77, 0
1, 14449, Note_off_c, 8, 55, 0
1, 14449, Note_off_c, 10, 55, 0
1, 14450, Pitch_bend_c, 3, 8192
1, 14451, Note_on_c, 3, 77, 97
1, 14537, Note_off_c, 3, 77, 0
1, 14571, Lyric_t, "LY "
1, 14571, Note_on_c, 3, 75, 97
1, 14640, Note_on_c, 8, 48, 110
1, 14640, Note_on_c, 10, 48, 76
1, 14651, Note_on_c, 8, 55, 87
1, 14651, Note_on_c, 10, 55, 53
1, 14657, Note_off_c, 3, 75, 0
1, 14671, Lyric_t, "I"
1, 14671, Lyric_t, "\015"
1, 14671, Note_on_c, 3, 72, 120
1, 14685, Note_off_c, 8, 48, 0
1, 14685, Note_off_c, 10, 48, 0
1, 14694, Note_off_c, 8, 55, 0
1, 14694, Note_off_c, 10, 55, 0
1, 14880, Note_on_c, 8, 48, 115
1, 14880, Note_on_c, 10, 48, 81
1, 14891, Note_on_c, 8, 55, 95
1, 14891, Note_on_c, 10, 55, 61
1, 14925, Note_off_c, 8, 48, 0
1, 14925, Note_off_c, 10, 48, 0
1, 14930, Note_off_c, 8, 55, 0
1, 14930, Note_off_c, 10, 55, 0
1, 15049, Note_off_c, 3, 72, 0
1, 15120, Lyric_t, "CAN "
1, 15120, Note_on_c, 3, 72, 97
1, 15120, Note_on_c, 8, 48, 115
1, 15120, Note_on_c, 10, 48, 81
1, 15131, Note_on_c, 8, 55, 87
1, 15131, Note_on_c, 10, 55, 53
1, 15166, Note_off_c, 8, 48, 0
1, 15166, Note_off_c, 10, 48, 0
1, 15169, Note_off_c, 8, 55, 0
1, 15169, Note_off_c, 10, 55, 0
1, 15205, Note_off_c, 3, 72, 0
1, 15240, Note_on_c, 3, 72, 97
1, 15306, Pitch_bend_c, 3, 7296
1, 15316, Pitch_bend_c, 3, 6016
1, 15325, Note_off_c, 3, 72, 0
1, 15326, Pitch_bend_c, 3, 4480
1, 15336, Pitch_bend_c, 3, 2944
1, 15349, Pitch_bend_c, 3, 1536
1, 15360, Note_on_c, 8, 48, 102
1, 15360, Note_on_c, 10, 48, 68
1, 15361, Pitch_bend_c, 3, 640
1, 15367, Lyric_t, "SEE "
1, 15367, Note_on_c, 3, 79, 120
1, 15371, Note_on_c, 8, 55, 80
1, 15371, Note_on_c, 10, 55, 46
1, 15371, Pitch_bend_c, 3, 128
1, 15401, Pitch_bend_c, 3, 384
1, 15404, Note_off_c, 8, 55, 0
1, 15404, Note_off_c, 10, 55, 0
1, 15405, Note_off_c, 8, 48, 0
1, 15405, Note_off_c, 10, 48, 0
1, 15411, Pitch_bend_c, 3, 1280
1, 15422, Pitch_bend_c, 3, 2688
1, 15432, Pitch_bend_c, 3, 4096
1, 15442, Pitch_bend_c, 3, 5632
1, 15455, Pitch_bend_c, 3, 7296
1, 15465, Pitch_bend_c, 3, 8192
1, 15530, Note_off_c, 3, 79, 0
1, 15543, Pitch_bend_c, 3, 8064
1, 15553, Pitch_bend_c, 3, 6016
1, 15563, Pitch_bend_c, 3, 3584
1, 15573, Pitch_bend_c, 3, 1280
1, 15583, Pitch_bend_c, 3, 0
1, 15600, Note_on_c, 8, 43, 110
1, 15600, Note_on_c, 10, 43, 76
1, 15606, Lyric_t, "YOU "
1, 15606, Note_on_c, 3, 79, 102
1, 15611, Note_on_c, 8, 50, 91
1, 15611, Note_on_c, 10, 50, 57
1, 15647, Note_off_c, 8, 43, 0
1, 15647, Note_off_c, 10, 43, 0
1, 15650, Pitch_bend_c, 3, 1152
1, 15655, Note_off_c, 8, 50, 0
1, 15655, Note_off_c, 10, 50, 0
1, 15660, Pitch_bend_c, 3, 3072
1, 15670, Pitch_bend_c, 3, 5504
1, 15680, Pitch_bend_c, 3, 8192
1, 15778, Note_off_c, 3, 79, 0
1, 15831, Lyric_t, "CRY"
1, 15831, Note_on_c, 3, 77, 106
1, 15840, Note_on_c, 8, 43, 110
1, 15840, Note_on_c, 10, 43, 76
1, 15851, Note_on_c, 8, 50, 91
1, 15851, Note_on_c, 10, 50, 57
1, 15884, Note_off_c, 8, 43, 0
1, 15884, Note_off_c, 10, 43, 0
1, 15887, Note_off_c, 8, 50, 0
1, 15887, Note_off_c, 10, 50, 0
1, 16054, Lyric_t, "STAL "
1, 16054, Note_on_c, 3, 75, 123
1, 16070, Note_off_c, 3, 77, 0
1, 16080, Note_on_c, 8, 43, 115
1, 16080, Note_on_c, 10, 43, 81
1, 16091, Note_on_c, 8, 50, 87
1, 16091, Note_on_c, 10, 50, 53
1, 16131, Note_off_c, 8, 43, 0
1, 16131, Note_off_c, 10, 43, 0
1, 16135, Note_off_c, 8, 50, 0
1, 16135, Note_off_c, 10, 50, 0
1, 16284, Note_off_c, 3, 75, 0
1, 16290, Lyric_t, "CLEAR"
1, 16290, Lyric_t, "\015"
1, 16290, Note_on_c, 3, 72, 125
1, 16320, Note_on_c, 8, 43, 102
1, 16320, Note_on_c, 10, 43, 68
1, 16331, Note_on_c, 8, 50, 91
1, 16331, Note_on_c, 10, 50, 57
1, 16372, Note_off_c, 8, 43, 0
1, 16372, Note_off_c, 10, 43, 0
1, 16379, Note_off_c, 8, 50, 0
1, 16379, Note_off_c, 10, 50, 0
1, 16560, Note_on_c, 8, 43, 110
1, 16560, Note_on_c, 10, 43, 76
1, 16571, Note_on_c, 8, 50, 91
1, 16571, Note_on_c, 10, 50, 57
1, 16605, Note_off_c, 8, 43, 0
1, 16605, Note_off_c, 10, 43, 0
1, 16621, Note_off_c, 8, 50, 0
1, 16621, Note_off_c, 10, 50, 0
1, 16693, Note_off_c, 3, 72, 0
1, 16800, Note_on_c, 8, 43, 115
1, 16800, Note_on_c, 10, 43, 81
1, 16811, Note_on_c, 8, 50, 83
1, 16811, Note_on_c, 10, 50, 49
1, 16844, Note_off_c, 8, 43, 0
1, 16844, Note_off_c, 10, 43, 0
1, 16857, Note_off_c, 8, 50, 0
1, 16857, Note_off_c, 10, 50, 0
1, 17040, Note_on_c, 8, 43, 120
1, 17040, Note_on_c, 10, 43, 86
1, 17051, Note_on_c, 8, 50, 105
1, 17051, Note_on_c, 10, 50, 71
1, 17087, Note_off_c, 8, 43, 0
1, 17087, Note_off_c, 10, 43, 0
1, 17105, Note_off_c, 8, 50, 0
1, 17105, Note_off_c, 10, 50, 0
1, 17280, Note_on_c, 8, 43, 120
1, 17280, Note_on_c, 10, 43, 86
1, 17291, Note_on_c, 8, 50, 105
1, 17291, Note_on_c, 10, 50, 71
1, 17297, Lyric_t, "GO "
1, 17297, Note_on_c, 3, 77, 110
1, 17327, Note_off_c, 8, 43, 0
1, 17327, Note_off_c, 10, 43, 0
1, 17345, Note_off_c, 8, 50, 0
1, 17345, Note_off_c, 10, 50, 0
1, 17391, Pitch_bend_c, 3, 8842
1, 17402, Pitch_bend_c, 3, 9232
1, 17418, Pitch_bend_c, 3, 9622
1, 17431, Pitch_bend_c, 3, 10012
1, 17441, Pitch_bend_c, 3, 10532
1, 17456, Pitch_bend_c, 3, 10922
1, 17471, Pitch_bend_c, 3, 11312
1, 17483, Pitch_bend_c, 3, 11572
1, 17498, Pitch_bend_c, 3, 11702
1, 17508, Pitch_bend_c, 3, 11962
1, 17520, Note_on_c, 8, 46, 110
1, 17520, Note_on_c, 10, 46, 76
1, 17523, Pitch_bend_c, 3, 12352
1, 17531, Note_on_c, 8, 53, 91
1, 17531, Note_on_c, 10, 53, 57
1, 17533, Pitch_bend_c, 3, 12742
1, 17544, Pitch_bend_c, 3, 13132
1, 17557, Pitch_bend_c, 3, 13912
1, 17567, Note_off_c, 8, 46, 0
1, 17567, Note_off_c, 10, 46, 0
1, 17569, Pitch_bend_c, 3, 14562
1, 17575, Note_off_c, 8, 53, 0
1, 17575, Note_off_c, 10, 53, 0
1, 17582, Pitch_bend_c, 3, 15212
1, 17592, Pitch_bend_c, 3, 15602
1, 17604, Pitch_bend_c, 3, 16122
1, 17634, Pitch_bend_c, 3, 14432
1, 17646, Pitch_bend_c, 3, 9882
1, 17655, Note_off_c, 3, 77, 0
1, 17656, Pitch_bend_c, 3, 8452
1, 17675, Lyric_t, "AHEAD "
1, 17675, Note_on_c, 3, 82, 111
1, 17760, Note_on_c, 8, 46, 110
1, 17760, Note_on_c, 10, 46, 76
1, 17771, Note_on_c, 8, 53, 91
1, 17771, Note_on_c, 10, 53, 57
1, 17804, Note_off_c, 8, 46, 0
1, 17804, Note_off_c, 10, 46, 0
1, 17807, Note_off_c, 8, 53, 0
1, 17807, Note_off_c, 10, 53, 0
1, 17948, Note_off_c, 3, 82, 0
1, 18000, Note_on_c, 8, 46, 115
1, 18000, Note_on_c, 10, 46, 81
1, 18011, Note_on_c, 8, 53, 87
1, 18011, Note_on_c, 10, 53, 53
1, 18023, Lyric_t, "AND "
1, 18023, Note_on_c, 3, 79, 106
1, 18051, Note_off_c, 8, 46, 0
1, 18051, Note_off_c, 10, 46, 0
1, 18055, Note_off_c, 8, 53, 0
1, 18055, Note_off_c, 10, 53, 0
1, 18226, Note_off_c, 3, 79, 0
1, 18240, Note_on_c, 8, 46, 102
1, 18240, Note_on_c, 10, 46, 68
1, 18251, Note_on_c, 8, 53, 91
1, 18251, Note_on_c, 10, 53, 57
1, 18260, Lyric_t, "SELL "
1, 18260, Note_on_c, 3, 77, 110
1, 18292, Note_off_c, 8, 46, 0
1, 18292, Note_off_c, 10, 46, 0
1, 18299, Note_off_c, 8, 53, 0
1, 18299, Note_off_c, 10, 53, 0
1, 18446, Note_off_c, 3, 77, 0
1, 18480, Note_on_c, 8, 46, 110
1, 18480, Note_on_c, 10, 46, 76
1, 18491, Note_on_c, 8, 53, 91
1, 18491, Note_on_c, 10, 53, 57
1, 18492, Lyric_t, "ME "
1, 18492, Note_on_c, 3, 75, 111
1, 18525, Note_off_c, 8, 46, 0
1, 18525, Note_off_c, 10, 46, 0
1, 18541, Note_off_c, 8, 53, 0
1, 18541, Note_off_c, 10, 53, 0
1, 18685, Note_off_c, 3, 75, 0
1, 18720, Note_on_c, 8, 46, 115
1, 18720, Note_on_c, 10, 46, 81
1, 18721, Lyric_t, "OUT"
1, 18721, Lyric_t, "\015"
1, 18721, Note_on_c, 3, 72, 110
1, 18731, Note_on_c, 8, 53, 83
1, 18731, Note_on_c, 10, 53, 49
1, 18764, Note_off_c, 8, 46, 0
1, 18764, Note_off_c, 10, 46, 0
1, 18777, Note_off_c, 8, 53, 0
1, 18777, Note_off_c, 10, 53, 0
1, 18844, Note_off_c, 3, 72, 0
1, 18960, Note_on_c, 8, 46, 120
1, 18960, Note_on_c, 10, 46, 86
1, 18971, Note_on_c, 8, 53, 105
1, 18971, Note_on_c, 10, 53, 71
1, 19007, Note_off_c, 8, 46, 0
1, 19007, Note_off_c, 10, 46, 0
1, 19025, Note_off_c, 8, 53, 0
1, 19025, Note_off_c, 10, 53, 0
1, 19095, Lyric_t, "AND "
1, 19095, Note_on_c, 3, 72, 125
1, 19194, Note_off_c, 3, 72, 0
1, 19200, Lyric_t, "I'LL "
1, 19200, Note_on_c, 3, 75, 123
1, 19200, Note_on_c, 8, 46, 120
1, 19200, Note_on_c, 10, 46, 86
1, 19211, Note_on_c, 8, 53, 105
1, 19211, Note_on_c, 10, 53, 71
1, 19247, Note_off_c, 8, 46, 0
1, 19247, Note_off_c, 10, 46, 0
1, 19265, Note_off_c, 8, 53, 0
1, 19265, Note_off_c, 10, 53, 0
1, 19410, Note_off_c, 3, 75, 0
1, 19440, Lyric_t, "LAY "
1, 19440, Note_on_c, 3, 75, 101
1, 19440, Note_on_c, 8, 43, 110
1, 19440, Note_on_c, 10, 43, 76
1, 19451, Note_on_c, 8, 50, 91
1, 19451, Note_on_c, 10, 50, 57
1, 19487, Note_off_c, 8, 43, 0
1, 19487, Note_off_c, 10, 43, 0
1, 19495, Note_off_c, 8, 50, 0
1, 19495, Note_off_c, 10, 50, 0
1, 19650, Note_off_c, 3, 75, 0
1, 19680, Lyric_t, "YOUR "
1, 19680, Note_on_c, 3, 74, 106
1, 19680, Note_on_c, 8, 43, 110
1, 19680, Note_on_c, 10, 43, 76
1, 19691, Note_on_c, 8, 50, 91
1, 19691, Note_on_c, 10, 50, 57
1, 19724, Note_off_c, 8, 43, 0
1, 19724, Note_off_c, 10, 43, 0
1, 19727, Note_off_c, 8, 50, 0
1, 19727, Note_off_c, 10, 50, 0
1, 19890, Note_off_c, 3, 74, 0
1, 19920, Lyric_t, "SHIP "
1, 19920, Note_on_c, 3, 72, 115
1, 19920, Note_on_c, 8, 43, 115
1, 19920, Note_on_c, 10, 43, 81
1, 19931, Note_on_c, 8, 50, 87
1, 19931, Note_on_c, 10, 50, 53
1, 19971, Note_off_c, 8, 43, 0
1, 19971, Note_off_c, 10, 43, 0
1, 19975, Note_off_c, 8, 50, 0
1, 19975, Note_off_c, 10, 50, 0
1, 20130, Note_off_c, 3, 72, 0
1, 20160, Lyric_t, "BARE"
1, 20160, Lyric_t, "\015"
1, 20160, Note_on_c, 3, 72, 127
1, 20160, Note_on_c, 8, 43, 102
1, 20160, Note_on_c, 10, 43, 68
1, 20171, Note_on_c, 8, 50, 91
1, 20171, Note_on_c, 10, 50, 57
1, 20212, Note_off_c, 8, 43, 0
1, 20212, Note_off_c, 10, 43, 0
1, 20219, Note_off_c, 8, 50, 0
1, 20219, Note_off_c, 10, 50, 0
1, 20400, Note_on_c, 8, 46, 110
1, 20400, Note_on_c, 10, 46, 76
1, 20411, Note_on_c, 8, 53, 91
1, 20411, Note_on_c, 10, 53, 57
1, 20445, Note_off_c, 8, 46, 0
1, 20445, Note_off_c, 10, 46, 0
1, 20461, Note_off_c, 8, 53, 0
1, 20461, Note_off_c, 10, 53, 0
1, 20489, Note_off_c, 3, 72, 0
1, 20640, Note_on_c, 8, 46, 115
1, 20640, Note_on_c, 10, 46, 81
1, 20651, Note_on_c, 8, 53, 83
1, 20651, Note_on_c, 10, 53, 49
1, 20684, Note_off_c, 8, 46, 0
1, 20684, Note_off_c, 10, 46, 0
1, 20697, Note_off_c, 8, 53, 0
1, 20697, Note_off_c, 10, 53, 0
1, 20880, Note_on_c, 8, 46, 120
1, 20880, Note_on_c, 10, 46, 86
1, 20891, Note_on_c, 8, 53, 105
1, 20891, Note_on_c, 10, 53, 71
1, 20927, Note_off_c, 8, 46, 0
1, 20927, Note_off_c, 10, 46, 0
1, 20945, Note_off_c, 8, 53, 0
1, 20945, Note_off_c, 10, 53, 0
1, 21119, Lyric_t, "SEE "
1, 21119, Note_on_c, 3, 77, 115
1, 21120, Note_on_c, 1, 36, 61
1, 21120, Note_on_c, 8, 48, 98
1, 21120, Note_on_c, 9, 35, 95
1, 21120, Note_on_c, 9, 40, 98
1, 21120, Note_on_c, 9, 43, 106
1, 21120, Note_on_c, 10, 48, 64
1, 21131, Note_on_c, 8, 55, 100
1, 21131, Note_on_c, 10, 55, 66
1, 21162, Note_off_c, 8, 48, 0
1, 21162, Note_off_c, 10, 48, 0
1, 21175, Pitch_bend_c, 3, 8712
1, 21178, Note_off_c, 8, 55, 0
1, 21178, Note_off_c, 10, 55, 0
1, 21190, Pitch_bend_c, 3, 9102
1, 21200, Pitch_bend_c, 3, 9362
1, 21211, Pitch_bend_c, 3, 9752
1, 21225, Pitch_bend_c, 3, 10142
1, 21235, Note_off_c, 9, 43, 0
1, 21237, Pitch_bend_c, 3, 10532
1, 21250, Note_off_c, 9, 40, 0
1, 21250, Pitch_bend_c, 3, 10922
1, 21265, Pitch_bend_c, 3, 11442
1, 21268, Note_off_c, 9, 35, 0
1, 21282, Pitch_bend_c, 3, 11832
1, 21299, Pitch_bend_c, 3, 12222
1, 21311, Pitch_bend_c, 3, 12482
1, 21322, Pitch_bend_c, 3, 12612
1, 21339, Note_off_c, 1, 36, 0
1, 21341, Pitch_bend_c, 3, 12872
1, 21354, Pitch_bend_c, 3, 13002
1, 21360, Note_on_c, 1, 36, 78
1, 21360, Note_on_c, 8, 48, 115
1, 21360, Note_on_c, 9, 40, 49
1, 21360, Note_on_c, 9, 43, 49
1, 21360, Note_on_c, 10, 48, 81
1, 21366, Pitch_bend_c, 3, 13262
1, 21371, Note_on_c, 8, 55, 100
1, 21371, Note_on_c, 10, 55, 66
1, 21385, Pitch_bend_c, 3, 13652
1, 21400, Pitch_bend_c, 3, 14042
1, 21405, Note_off_c, 8, 48, 0
1, 21405, Note_off_c, 10, 48, 0
1, 21410, Note_off_c, 8, 55, 0
1, 21410, Note_off_c, 10, 55, 0
1, 21415, Pitch_bend_c, 3, 14562
1, 21426, Pitch_bend_c, 3, 14692
1, 21437, Pitch_bend_c, 3, 14952
1, 21443, Note_off_c, 9, 43, 0
1, 21457, Pitch_bend_c, 3, 15082
1, 21473, Note_off_c, 9, 40, 0
1, 21535, Note_off_c, 3, 77, 0
1, 21547, Pitch_bend_c, 3, 14822
1, 21559, Pitch_bend_c, 3, 14172
1, 21571, Pitch_bend_c, 3, 13262
1, 21579, Note_off_c, 1, 36, 0
1, 21583, Pitch_bend_c, 3, 12352
1, 21594, Pitch_bend_c, 3, 11442
1, 21600, Note_on_c, 1, 36, 46
1, 21600, Note_on_c, 8, 48, 83
1, 21600, Note_on_c, 9, 35, 95
1, 21600, Note_on_c, 9, 40, 95
1, 21600, Note_on_c, 9, 43, 106
1, 21600, Note_on_c, 10, 48, 49
1, 21604, Pitch_bend_c, 3, 10532
1, 21611, Note_on_c, 8, 55, 87
1, 21611, Note_on_c, 10, 55, 53
1, 21615, Lyric_t, "HOW "
1, 21615, Note_on_c, 3, 77, 115
1, 21618, Pitch_bend_c, 3, 9752
1, 21630, Pitch_bend_c, 3, 9362
1, 21633, Note_off_c, 8, 48, 0
1, 21633, Note_off_c, 10, 48, 0
1, 21645, Note_off_c, 8, 55, 0
1, 21645, Note_off_c, 10, 55, 0
1, 21688, Pitch_bend_c, 3, 9752
1, 21700, Pitch_bend_c, 3, 10142
1, 21714, Pitch_bend_c, 3, 10662
1, 21724, Pitch_bend_c, 3, 11052
1, 21734, Pitch_bend_c, 3, 11442
1, 21741, Note_off_c, 9, 43, 0
1, 21744, Pitch_bend_c, 3, 11832
1, 21748, Note_off_c, 9, 35, 0
1, 21748, Note_off_c, 9, 40, 0
1, 21756, Pitch_bend_c, 3, 12482
1, 21767, Pitch_bend_c, 3, 13132
1, 21778, Pitch_bend_c, 3, 13522
1, 21791, Pitch_bend_c, 3, 14172
1, 21806, Pitch_bend_c, 3, 14562
1, 21819, Note_off_c, 1, 36, 0
1, 21820, Pitch_bend_c, 3, 14822
1, 21835, Pitch_bend_c, 3, 14952
1, 21840, Note_on_c, 1, 36, 65
1, 21840, Note_on_c, 8, 48, 102
1, 21840, Note_on_c, 9, 40, 49
1, 21840, Note_on_c, 9, 43, 49
1, 21840, Note_on_c, 10, 48, 68
1, 21850, Pitch_bend_c, 3, 15212
1, 21851, Note_on_c, 8, 55, 87
1, 21851, Note_on_c, 10, 55, 53
1, 21875, Pitch_bend_c, 3, 15472
1, 21880, Note_off_c, 8, 48, 0
1, 21880, Note_off_c, 10, 48, 0
1, 21892, Note_off_c, 8, 55, 0
1, 21892, Note_off_c, 10, 55, 0
1, 21923, Note_off_c, 9, 43, 0
1, 21927, Pitch_bend_c, 3, 15602
1, 21953, Note_off_c, 9, 40, 0
1, 21971, Pitch_bend_c, 3, 15862
1, 21988, Pitch_bend_c, 3, 15992
1, 22009, Pitch_bend_c, 3, 16252
1, 22059, Note_off_c, 1, 36, 0
1, 22080, Note_on_c, 1, 36, 50
1, 22080, Note_on_c, 8, 48, 87
1, 22080, Note_on_c, 9, 35, 95
1, 22080, Note_on_c, 9, 40, 98
1, 22080, Note_on_c, 9, 43, 102
1, 22080, Note_on_c, 10, 48, 53
1, 22082, Pitch_bend_c, 3, 15212
1, 22091, Note_on_c, 8, 55, 75
1, 22091, Note_on_c, 10, 55, 41
1, 22093, Pitch_bend_c, 3, 13392
1, 22103, Pitch_bend_c, 3, 10792
1, 22113, Pitch_bend_c, 3, 8452
1, 22118, Note_off_c, 8, 48, 0
1, 22118, Note_off_c, 10, 48, 0
1, 22125, Note_off_c, 3, 77, 0
1, 22129, Note_off_c, 8, 55, 0
1, 22129, Note_off_c, 10, 55, 0
1, 22130, Pitch_bend_c, 3, 8192
1, 22131, Note_on_c, 3, 77, 97
1, 22193, Note_off_c, 9, 43, 0
1, 22215, Note_off_c, 9, 40, 0
1, 22217, Note_off_c, 3, 77, 0
1, 22228, Note_off_c, 9, 35, 0
1, 22251, Lyric_t, "I "
1, 22251, Note_on_c, 3, 75, 97
1, 22299, Note_off_c, 1, 36, 0
1, 22320, Note_on_c, 1, 36, 73
1, 22320, Note_on_c, 8, 48, 110
1, 22320, Note_on_c, 9, 40, 49
1, 22320, Note_on_c, 9, 43, 49
1, 22320, Note_on_c, 10, 48, 76
1, 22331, Note_on_c, 8, 55, 87
1, 22331, Note_on_c, 10, 55, 53
1, 22337, Note_off_c, 3, 75, 0
1, 22351, Lyric_t, "LEAVE"
1, 22351, Lyric_t, "\015"
1, 22351, Note_on_c, 3, 72, 120
1, 22365, Note_off_c, 8, 48, 0
1, 22365, Note_off_c, 10, 48, 0
1, 22374, Note_off_c, 8, 55, 0
1, 22374, Note_off_c, 10, 55, 0
1, 22403, Note_off_c, 9, 43, 0
1, 22433, Note_off_c, 9, 40, 0
1, 22539, Note_off_c, 1, 36, 0
1, 22560, Note_on_c, 1, 36, 78
1, 22560, Note_on_c, 8, 48, 115
1, 22560, Note_on_c, 9, 35, 95
1, 22560, Note_on_c, 9, 40, 98
1, 22560, Note_on_c, 9, 43, 106
1, 22560, Note_on_c, 10, 48, 81
1, 22571, Note_on_c, 8, 55, 95
1, 22571, Note_on_c, 10, 55, 61
1, 22605, Note_off_c, 8, 48, 0
1, 22605, Note_off_c, 10, 48, 0
1, 22610, Note_off_c, 8, 55, 0
1, 22610, Note_off_c, 10, 55, 0
1, 22708, Note_off_c, 9, 35, 0
1, 22715, Note_off_c, 9, 43, 0
1, 22732, Note_off_c, 9, 40, 0
1, 22779, Note_off_c, 1, 36, 0
1, 22800, Note_on_c, 1, 36, 78
1, 22800, Note_on_c, 8, 48, 115
1, 22800, Note_on_c, 9, 40, 49
1, 22800, Note_on_c, 9, 43, 49
1, 22800, Note_on_c, 10, 48, 81
1, 22809, Note_off_c, 3, 72, 0
1, 22811, Note_on_c, 8, 55, 87
1, 22811, Note_on_c, 10, 55, 53
1, 22815, Lyric_t, "WITH "
1, 22815, Note_on_c, 3, 72, 125
1, 22846, Note_off_c, 8, 48, 0
1, 22846, Note_off_c, 10, 48, 0
1, 22849, Note_off_c, 8, 55, 0
1, 22849, Note_off_c, 10, 55, 0
1, 22883, Note_off_c, 9, 43, 0
1, 22913, Note_off_c, 9, 40, 0
1, 22929, Note_off_c, 3, 72, 0
1, 22935, Note_on_c, 3, 72, 125
1, 22988, Pitch_bend_c, 3, 7296
1, 22998, Pitch_bend_c, 3, 6016
1, 23008, Pitch_bend_c, 3, 4480
1, 23018, Pitch_bend_c, 3, 2944
1, 23019, Note_off_c, 1, 36, 0
1, 23031, Pitch_bend_c, 3, 1536
1, 23040, Note_on_c, 1, 36, 65
1, 23040, Note_on_c, 8, 48, 102
1, 23040, Note_on_c, 9, 35, 95
1, 23040, Note_on_c, 9, 40, 98
1, 23040, Note_on_c, 9, 43, 106
1, 23040, Note_on_c, 10, 48, 68
1, 23043, Pitch_bend_c, 3, 640
1, 23049, Lyric_t, "E"
1, 23049, Note_off_c, 3, 72, 0
1, 23049, Note_on_c, 3, 79, 120
1, 23051, Note_on_c, 8, 55, 80
1, 23051, Note_on_c, 10, 55, 46
1, 23053, Pitch_bend_c, 3, 128
1, 23083, Pitch_bend_c, 3, 384
1, 23084, Note_off_c, 8, 55, 0
1, 23084, Note_off_c, 10, 55, 0
1, 23085, Note_off_c, 8, 48, 0
1, 23085, Note_off_c, 10, 48, 0
1, 23093, Pitch_bend_c, 3, 1280
1, 23104, Pitch_bend_c, 3, 2688
1, 23114, Pitch_bend_c, 3, 4096
1, 23124, Pitch_bend_c, 3, 5632
1, 23137, Pitch_bend_c, 3, 7296
1, 23147, Pitch_bend_c, 3, 8192
1, 23155, Note_off_c, 9, 43, 0
1, 23170, Note_off_c, 9, 40, 0
1, 23188, Note_off_c, 9, 35, 0
1, 23212, Note_off_c, 3, 79, 0
1, 23225, Pitch_bend_c, 3, 8064
1, 23235, Pitch_bend_c, 3, 6016
1, 23245, Pitch_bend_c, 3, 3584
1, 23255, Pitch_bend_c, 3, 1280
1, 23259, Note_off_c, 1, 36, 0
1, 23265, Pitch_bend_c, 3, 0
1, 23280, Note_on_c, 1, 31, 73
1, 23280, Note_on_c, 8, 43, 110
1, 23280, Note_on_c, 9, 40, 49
1, 23280, Note_on_c, 9, 43, 49
1, 23280, Note_on_c, 10, 43, 76
1, 23288, Lyric_t, "VERY "
1, 23288, Note_on_c, 3, 79, 102
1, 23291, Note_on_c, 8, 50, 91
1, 23291, Note_on_c, 10, 50, 57
1, 23327, Note_off_c, 8, 43, 0
1, 23327, Note_off_c, 10, 43, 0
1, 23332, Pitch_bend_c, 3, 1152
1, 23335, Note_off_c, 8, 50, 0
1, 23335, Note_off_c, 10, 50, 0
1, 23342, Pitch_bend_c, 3, 3072
1, 23352, Pitch_bend_c, 3, 5504
1, 23362, Pitch_bend_c, 3, 8192
1, 23363, Note_off_c, 9, 43, 0
1, 23393, Note_off_c, 9, 40, 0
1, 23460, Note_off_c, 3, 79, 0
1, 23499, Note_off_c, 1, 31, 0
1, 23513, Lyric_t, "PIECE "
1, 23513, Note_on_c, 3, 77, 106
1, 23520, Note_on_c, 1, 31, 73
1, 23520, Note_on_c, 8, 43, 110
1, 23520, Note_on_c, 9, 35, 95
1, 23520, Note_on_c, 9, 40, 95
1, 23520, Note_on_c, 9, 43, 106
1, 23520, Note_on_c, 10, 43, 76
1, 23531, Note_on_c, 8, 50, 91
1, 23531, Note_on_c, 10, 50, 57
1, 23564, Note_off_c, 8, 43, 0
1, 23564, Note_off_c, 10, 43, 0
1, 23567, Note_off_c, 8, 50, 0
1, 23567, Note_off_c, 10, 50, 0
1, 23661, Note_off_c, 9, 43, 0
1, 23668, Note_off_c, 9, 35, 0
1, 23668, Note_off_c, 9, 40, 0
1, 23736, Lyric_t, "OF "
1, 23736, Note_on_c, 3, 75, 123
1, 23739, Note_off_c, 1, 31, 0
1, 23752, Note_off_c, 3, 77, 0
1, 23760, Note_on_c, 1, 31, 78
1, 23760, Note_on_c, 8, 43, 115
1, 23760, Note_on_c, 9, 40, 49
1, 23760, Note_on_c, 9, 43, 49
1, 23760, Note_on_c, 10, 43, 81
1, 23771, Note_on_c, 8, 50, 87
1, 23771, Note_on_c, 10, 50, 53
1, 23811, Note_off_c, 8, 43, 0
1, 23811, Note_off_c, 10, 43, 0
1, 23815, Note_off_c, 8, 50, 0
1, 23815, Note_off_c, 10, 50, 0
1, 23843, Note_off_c, 9, 43, 0
1, 23873, Note_off_c, 9, 40, 0
1, 23966, Note_off_c, 3, 75, 0
1, 23972, Lyric_t, "YOU"
1, 23972, Lyric_t, "\015"
1, 23972, Note_on_c, 3, 72, 125
1, 23979, Note_off_c, 1, 31, 0
1, 24000, Note_on_c, 1, 31, 65
1, 24000, Note_on_c, 8, 43, 102
1, 24000, Note_on_c, 9, 35, 95
1, 24000, Note_on_c, 9, 40, 98
1, 24000, Note_on_c, 9, 43, 102
1, 24000, Note_on_c, 10, 43, 68
1, 24011, Note_on_c, 8, 50, 91
1, 24011, Note_on_c, 10, 50, 57
1, 24052, Note_off_c, 8, 43, 0
1, 24052, Note_off_c, 10, 43, 0
1, 24059, Note_off_c, 8, 50, 0
1, 24059, Note_off_c, 10, 50, 0
1, 24113, Note_off_c, 9, 43, 0
1, 24135, Note_off_c, 9, 40, 0
1, 24148, Note_off_c, 9, 35, 0
1, 24219, Note_off_c, 1, 31, 0
1, 24240, Note_on_c, 1, 31, 73
1, 24240, Note_on_c, 8, 43, 110
1, 24240, Note_on_c, 9, 40, 49
1, 24240, Note_on_c, 9, 43, 49
1, 24240, Note_on_c, 10, 43, 76
1, 24251, Note_on_c, 8, 50, 91
1, 24251, Note_on_c, 10, 50, 57
1, 24285, Note_off_c, 8, 43, 0
1, 24285, Note_off_c, 10, 43, 0
1, 24301, Note_off_c, 8, 50, 0
1, 24301, Note_off_c, 10, 50, 0
1, 24323, Note_off_c, 9, 43, 0
1, 24353, Note_off_c, 9, 40, 0
1, 24375, Note_off_c, 3, 72, 0
1, 24459, Note_off_c, 1, 31, 0
1, 24480, Note_on_c, 1, 31, 78
1, 24480, Note_on_c, 8, 43, 115
1, 24480, Note_on_c, 9, 35, 95
1, 24480, Note_on_c, 9, 40, 98
1, 24480, Note_on_c, 9, 43, 106
1, 24480, Note_on_c, 10, 43, 81
1, 24491, Note_on_c, 8, 50, 83
1, 24491, Note_on_c, 10, 50, 49
1, 24524, Note_off_c, 8, 43, 0
1, 24524, Note_off_c, 10, 43, 0
1, 24537, Note_off_c, 8, 50, 0
1, 24537, Note_off_c, 10, 50, 0
1, 24628, Note_off_c, 9, 35, 0
1, 24635, Note_off_c, 9, 43, 0
1, 24652, Note_off_c, 9, 40, 0
1, 24699, Note_off_c, 1, 31, 0
1, 24720, Note_on_c, 1, 31, 83
1, 24720, Note_on_c, 8, 43, 120
1, 24720, Note_on_c, 9, 40, 49
1, 24720, Note_on_c, 9, 43, 49
1, 24720, Note_on_c, 10, 43, 86
1, 24731, Note_on_c, 8, 50, 105
1, 24731, Note_on_c, 10, 50, 71
1, 24767, Note_off_c, 8, 43, 0
1, 24767, Note_off_c, 10, 43, 0
1, 24785, Note_off_c, 8, 50, 0
1, 24785, Note_off_c, 10, 50, 0
1, 24803, Note_off_c, 9, 43, 0
1, 24833, Note_off_c, 9, 40, 0
1, 24939, Note_off_c, 1, 31, 0
1, 24960, Note_on_c, 1, 31, 83
1, 24960, Note_on_c, 8, 43, 120
1, 24960, Note_on_c, 9, 35, 95
1, 24960, Note_on_c, 9, 40, 98
1, 24960, Note_on_c, 9, 43, 106
1, 24960, Note_on_c, 10, 43, 86
1, 24971, Note_on_c, 8, 50, 105
1, 24971, Note_on_c, 10, 50, 71
1, 24977, Lyric_t, "DON'T "
1, 24977, Note_on_c, 3, 77, 110
1, 25007, Note_off_c, 8, 43, 0
1, 25007, Note_off_c, 10, 43, 0
1, 25025, Note_off_c, 8, 50, 0
1, 25025, Note_off_c, 10, 50, 0
1, 25071, Pitch_bend_c, 3, 8842
1, 25075, Note_off_c, 9, 43, 0
1, 25082, Pitch_bend_c, 3, 9232
1, 25090, Note_off_c, 9, 40, 0
1, 25098, Pitch_bend_c, 3, 9622
1, 25108, Note_off_c, 9, 35, 0
1, 25111, Pitch_bend_c, 3, 10012
1, 25121, Pitch_bend_c, 3, 10532
1, 25136, Pitch_bend_c, 3, 10922
1, 25151, Pitch_bend_c, 3, 11312
1, 25163, Pitch_bend_c, 3, 11572
1, 25178, Pitch_bend_c, 3, 11702
1, 25179, Note_off_c, 1, 31, 0
1, 25188, Pitch_bend_c, 3, 11962
1, 25200, Note_on_c, 1, 34, 73
1, 25200, Note_on_c, 8, 46, 110
1, 25200, Note_on_c, 9, 40, 49
1, 25200, Note_on_c, 9, 43, 49
1, 25200, Note_on_c, 10, 46, 76
1, 25203, Pitch_bend_c, 3, 12352
1, 25211, Note_on_c, 8, 53, 91
1, 25211, Note_on_c, 10, 53, 57
1, 25213, Pitch_bend_c, 3, 12742
1, 25224, Pitch_bend_c, 3, 13132
1, 25237, Pitch_bend_c, 3, 13912
1, 25247, Note_off_c, 8, 46, 0
1, 25247, Note_off_c, 10, 46, 0
1, 25249, Pitch_bend_c, 3, 14562
1, 25255, Note_off_c, 8, 53, 0
1, 25255, Note_off_c, 10, 53, 0
1, 25262, Pitch_bend_c, 3, 15212
1, 25272, Pitch_bend_c, 3, 15602
1, 25283, Note_off_c, 9, 43, 0
1, 25284, Pitch_bend_c, 3, 16122
1, 25313, Note_off_c, 9, 40, 0
1, 25314, Pitch_bend_c, 3, 14432
1, 25326, Pitch_bend_c, 3, 9882
1, 25335, Note_off_c, 3, 77, 0
1, 25336, Pitch_bend_c, 3, 8452
1, 25355, Lyric_t, "UN"
1, 25355, Note_on_c, 3, 82, 111
1, 25419, Note_off_c, 1, 34, 0
1, 25440, Note_on_c, 1, 34, 73
1, 25440, Note_on_c, 8, 46, 110
1, 25440, Note_on_c, 9, 35, 95
1, 25440, Note_on_c, 9, 40, 95
1, 25440, Note_on_c, 9, 43, 106
1, 25440, Note_on_c, 10, 46, 76
1, 25451, Note_on_c, 8, 53, 91
1, 25451, Note_on_c, 10, 53, 57
1, 25484, Note_off_c, 8, 46, 0
1, 25484, Note_off_c, 10, 46, 0
1, 25487, Note_off_c, 8, 53, 0
1, 25487, Note_off_c, 10, 53, 0
1, 25581, Note_off_c, 9, 43, 0
1, 25588, Note_off_c, 9, 35, 0
1, 25588, Note_off_c, 9, 40, 0
1, 25628, Note_off_c, 3, 82, 0
1, 25659, Note_off_c, 1, 34, 0
1, 25680, Note_on_c, 1, 34, 78
1, 25680, Note_on_c, 8, 46, 115
1, 25680, Note_on_c, 9, 40, 49
1, 25680, Note_on_c, 9, 43, 49
1, 25680, Note_on_c, 10, 46, 81
1, 25691, Note_on_c, 8, 53, 87
1, 25691, Note_on_c, 10, 53, 53
1, 25703, Lyric_t, "DER"
1, 25703, Note_on_c, 3, 79, 106
1, 25731, Note_off_c, 8, 46, 0
1, 25731, Note_off_c, 10, 46, 0
1, 25735, Note_off_c, 8, 53, 0
1, 25735, Note_off_c, 10, 53, 0
1, 25763, Note_off_c, 9, 43, 0
1, 25793, Note_off_c, 9, 40, 0
1, 25899, Note_off_c, 1, 34, 0
1, 25906, Note_off_c, 3, 79, 0
1, 25920, Note_on_c, 1, 34, 65
1, 25920, Note_on_c, 8, 46, 102
1, 25920, Note_on_c, 9, 35, 95
1, 25920, Note_on_c, 9, 40, 98
1, 25920, Note_on_c, 9, 43, 102
1, 25920, Note_on_c, 10, 46, 68
1, 25931, Note_on_c, 8, 53, 91
1, 25931, Note_on_c, 10, 53, 57
1, 25940, Lyric_t, "E"
1, 25940, Note_on_c, 3, 77, 110
1, 25972, Note_off_c, 8, 46, 0
1, 25972, Note_off_c, 10, 46, 0
1, 25979, Note_off_c, 8, 53, 0
1, 25979, Note_off_c, 10, 53, 0
1, 26033, Note_off_c, 9, 43, 0
1, 26055, Note_off_c, 9, 40, 0
1, 26068, Note_off_c, 9, 35, 0
1, 26126, Note_off_c, 3, 77, 0
1, 26139, Note_off_c, 1, 34, 0
1, 26160, Note_on_c, 1, 34, 73
1, 26160, Note_on_c, 8, 46, 110
1, 26160, Note_on_c, 9, 40, 49
1, 26160, Note_on_c, 9, 43, 49
1, 26160, Note_on_c, 10, 46, 76
1, 26171, Note_on_c, 8, 53, 91
1, 26171, Note_on_c, 10, 53, 57
1, 26172, Lyric_t, "STI"
1, 26172, Note_on_c, 3, 75, 111
1, 26205, Note_off_c, 8, 46, 0
1, 26205, Note_off_c, 10, 46, 0
1, 26221, Note_off_c, 8, 53, 0
1, 26221, Note_off_c, 10, 53, 0
1, 26243, Note_off_c, 9, 43, 0
1, 26273, Note_off_c, 9, 40, 0
1, 26365, Note_off_c, 3, 75, 0
1, 26379, Note_off_c, 1, 34, 0
1, 26400, Note_on_c, 1, 34, 78
1, 26400, Note_on_c, 8, 46, 115
1, 26400, Note_on_c, 9, 35, 95
1, 26400, Note_on_c, 9, 40, 98
1, 26400, Note_on_c, 9, 43, 106
1, 26400, Note_on_c, 10, 46, 81
1, 26401, Lyric_t, "MATE"
1, 26401, Lyric_t, "\015"
1, 26401, Note_on_c, 3, 72, 110
1, 26411, Note_on_c, 8, 53, 83
1, 26411, Note_on_c, 10, 53, 49
1, 26444, Note_off_c, 8, 46, 0
1, 26444, Note_off_c, 10, 46, 0
1, 26457, Note_off_c, 8, 53, 0
1, 26457, Note_off_c, 10, 53, 0
1, 26524, Note_off_c, 3, 72, 0
1, 26548, Note_off_c, 9, 35, 0
1, 26555, Note_off_c, 9, 43, 0
1, 26572, Note_off_c, 9, 40, 0
1, 26619, Note_off_c, 1, 34, 0
1, 26640, Note_on_c, 1, 34, 83
1, 26640, Note_on_c, 8, 46, 120
1, 26640, Note_on_c, 9, 40, 49
1, 26640, Note_on_c, 9, 43, 49
1, 26640, Note_on_c, 10, 46, 86
1, 26651, Note_on_c, 8, 53, 105
1, 26651, Note_on_c, 10, 53, 71
1, 26655, Lyric_t, "THE "
1, 26655, Note_on_c, 3, 72, 125
1, 26687, Note_off_c, 8, 46, 0
1, 26687, Note_off_c, 10, 46, 0
1, 26705, Note_off_c, 8, 53, 0
1, 26705, Note_off_c, 10, 53, 0
1, 26723, Note_off_c, 9, 43, 0
1, 26753, Note_off_c, 9, 40, 0
1, 26807, Note_off_c, 3, 72, 0
1, 26859, Note_off_c, 1, 34, 0
1, 26876, Lyric_t, "THINGS "
1, 26876, Note_on_c, 3, 75, 123
1, 26880, Note_on_c, 1, 34, 83
1, 26880, Note_on_c, 8, 46, 120
1, 26880, Note_on_c, 9, 35, 95
1, 26880, Note_on_c, 9, 40, 98
1, 26880, Note_on_c, 9, 43, 106
1, 26880, Note_on_c, 10, 46, 86
1, 26891, Note_on_c, 8, 53, 105
1, 26891, Note_on_c, 10, 53, 71
1, 26927, Note_off_c, 8, 46, 0
1, 26927, Note_off_c, 10, 46, 0
1, 26935, Note_off_c, 3, 75, 0
1, 26945, Note_off_c, 8, 53, 0
1, 26945, Note_off_c, 10, 53, 0
1, 26995, Note_off_c, 9, 43, 0
1, 27003, Lyric_t, "THAT "
1, 27003, Note_on_c, 3, 75, 101
1, 27010, Note_off_c, 9, 40, 0
1, 27028, Note_off_c, 9, 35, 0
1, 27099, Note_off_c, 1, 34, 0
1, 27111, Note_off_c, 3, 75, 0
1, 27120, Note_on_c, 1, 31, 73
1, 27120, Note_on_c, 8, 43, 110
1, 27120, Note_on_c, 9, 40, 49
1, 27120, Note_on_c, 9, 43, 49
1, 27120, Note_on_c, 10, 43, 76
1, 27123, Note_on_c, 3, 75, 101
1, 27131, Note_on_c, 8, 50, 91
1, 27131, Note_on_c, 10, 50, 57
1, 27167, Note_off_c, 8, 43, 0
1, 27167, Note_off_c, 10, 43, 0
1, 27175, Note_off_c, 8, 50, 0
1, 27175, Note_off_c, 10, 50, 0
1, 27203, Note_off_c, 9, 43, 0
1, 27233, Note_off_c, 9, 40, 0
1, 27339, Note_off_c, 1, 31, 0
1, 27353, Note_off_c, 3, 75, 0
1, 27359, Lyric_t, "I "
1, 27359, Note_on_c, 3, 74, 106
1, 27360, Note_on_c, 1, 31, 73
1, 27360, Note_on_c, 8, 43, 110
1, 27360, Note_on_c, 9, 35, 95
1, 27360, Note_on_c, 9, 40, 95
1, 27360, Note_on_c, 9, 43, 106
1, 27360, Note_on_c, 10, 43, 76
1, 27371, Note_on_c, 8, 50, 91
1, 27371, Note_on_c, 10, 50, 57
1, 27404, Note_off_c, 8, 43, 0
1, 27404, Note_off_c, 10, 43, 0
1, 27407, Note_off_c, 8, 50, 0
1, 27407, Note_off_c, 10, 50, 0
1, 27497, Note_off_c, 3, 74, 0
1, 27501, Note_off_c, 9, 43, 0
1, 27508, Note_off_c, 9, 35, 0
1, 27508, Note_off_c, 9, 40, 0
1, 27579, Note_off_c, 1, 31, 0
1, 27600, Note_on_c, 1, 31, 78
1, 27600, Note_on_c, 8, 43, 115
1, 27600, Note_on_c, 9, 40, 49
1, 27600, Note_on_c, 9, 43, 49
1, 27600, Note_on_c, 10, 43, 81
1, 27606, Lyric_t, "WILL "
1, 27606, Note_on_c, 3, 72, 115
1, 27611, Note_on_c, 8, 50, 87
1, 27611, Note_on_c, 10, 50, 53
1, 27651, Note_off_c, 8, 43, 0
1, 27651, Note_off_c, 10, 43, 0
1, 27655, Note_off_c, 8, 50, 0
1, 27655, Note_off_c, 10, 50, 0
1, 27683, Note_off_c, 9, 43, 0
1, 27713, Note_off_c, 9, 40, 0
1, 27819, Note_off_c, 1, 31, 0
1, 27840, Note_on_c, 1, 31, 65
1, 27840, Note_on_c, 8, 43, 102
1, 27840, Note_on_c, 9, 35, 95
1, 27840, Note_on_c, 9, 40, 98
1, 27840, Note_on_c, 9, 43, 102
1, 27840, Note_on_c, 10, 43, 68
1, 27851, Note_on_c, 8, 50, 91
1, 27851, Note_on_c, 10, 50, 57
1, 27854, Note_off_c, 3, 72, 0
1, 27860, Lyric_t, "DO"
1, 27860, Lyric_t, "\015"
1, 27860, Note_on_c, 3, 72, 127
1, 27892, Note_off_c, 8, 43, 0
1, 27892, Note_off_c, 10, 43, 0
1, 27899, Note_off_c, 8, 50, 0
1, 27899, Note_off_c, 10, 50, 0
1, 27953, Note_off_c, 9, 43, 0
1, 27975, Note_off_c, 9, 40, 0
1, 27988, Note_off_c, 9, 35, 0
1, 28059, Note_off_c, 1, 31, 0
1, 28080, Note_on_c, 1, 34, 73
1, 28080, Note_on_c, 8, 46, 110
1, 28080, Note_on_c, 9, 40, 49
1, 28080, Note_on_c, 9, 43, 49
1, 28080, Note_on_c, 10, 46, 76
1, 28091, Note_on_c, 8, 53, 91
1, 28091, Note_on_c, 10, 53, 57
1, 28125, Note_off_c, 8, 46, 0
1, 28125, Note_off_c, 10, 46, 0
1, 28141, Note_off_c, 8, 53, 0
1, 28141, Note_off_c, 10, 53, 0
1, 28163, Note_off_c, 9, 43, 0
1, 28189, Note_off_c, 3, 72, 0
1, 28193, Note_off_c, 9, 40, 0
1, 28299, Note_off_c, 1, 34, 0
1, 28320, Note_on_c, 1, 34, 78
1, 28320, Note_on_c, 8, 46, 115
1, 28320, Note_on_c, 9, 35, 95
1, 28320, Note_on_c, 9, 40, 98
1, 28320, Note_on_c, 9, 43, 106
1, 28320, Note_on_c, 10, 46, 81
1, 28331, Note_on_c, 8, 53, 83
1, 28331, Note_on_c, 10, 53, 49
1, 28364, Note_off_c, 8, 46, 0
1, 28364, Note_off_c, 10, 46, 0
1, 28377, Note_off_c, 8, 53, 0
1, 28377, Note_off_c, 10, 53, 0
1, 28468, Note_off_c, 9, 35, 0
1, 28475, Note_off_c, 9, 43, 0
1, 28492, Note_off_c, 9, 40, 0
1, 28539, Note_off_c, 1, 34, 0
1, 28560, Note_on_c, 1, 34, 83
1, 28560, Note_on_c, 8, 46, 120
1, 28560, Note_on_c, 9, 40, 49
1, 28560, Note_on_c, 9, 43, 49
1, 28560, Note_on_c, 9, 46, 106
1, 28560, Note_on_c, 10, 46, 86
1, 28571, Note_on_c, 8, 53, 105
1, 28571, Note_on_c, 10, 53, 71
1, 28607, Note_off_c, 8, 46, 0
1, 28607, Note_off_c, 10, 46, 0
1, 28625, Note_off_c, 8, 53, 0
1, 28625, Note_off_c, 10, 53, 0
1, 28643, Note_off_c, 9, 43, 0
1, 28673, Note_off_c, 9, 40, 0
1, 28715, Note_off_c, 9, 46, 0
1, 28779, Note_off_c, 1, 34, 0
1, 28799, Lyric_t, "THERE "
1, 28799, Note_on_c, 3, 77, 115
1, 28800, Note_on_c, 1, 36, 61
1, 28800, Note_on_c, 8, 48, 98
1, 28800, Note_on_c, 9, 35, 95
1, 28800, Note_on_c, 9, 40, 98
1, 28800, Note_on_c, 9, 43, 106
1, 28800, Note_on_c, 9, 44, 106
1, 28800, Note_on_c, 10, 48, 64
1, 28811, Note_on_c, 8, 55, 100
1, 28811, Note_on_c, 10, 55, 66
1, 28842, Note_off_c, 8, 48, 0
1, 28842, Note_off_c, 10, 48, 0
1, 28855, Pitch_bend_c, 3, 8712
1, 28858, Note_off_c, 8, 55, 0
1, 28858, Note_off_c, 10, 55, 0
1, 28870, Pitch_bend_c, 3, 9102
1, 28880, Pitch_bend_c, 3, 9362
1, 28891, Pitch_bend_c, 3, 9752
1, 28905, Pitch_bend_c, 3, 10142
1, 28915, Note_off_c, 9, 43, 0
1, 28917, Pitch_bend_c, 3, 10532
1, 28930, Note_off_c, 9, 40, 0
1, 28930, Pitch_bend_c, 3, 10922
1, 28945, Pitch_bend_c, 3, 11442
1, 28948, Note_off_c, 9, 35, 0
1, 28955, Note_off_c, 9, 44, 0
1, 28962, Pitch_bend_c, 3, 11832
1, 28979, Pitch_bend_c, 3, 12222
1, 28991, Pitch_bend_c, 3, 12482
1, 29002, Pitch_bend_c, 3, 12612
1, 29019, Note_off_c, 1, 36, 0
1, 29021, Pitch_bend_c, 3, 12872
1, 29034, Pitch_bend_c, 3, 13002
1, 29040, Note_on_c, 1, 36, 78
1, 29040, Note_on_c, 8, 48, 115
1, 29040, Note_on_c, 9, 40, 49
1, 29040, Note_on_c, 9, 43, 49
1, 29040, Note_on_c, 10, 48, 81
1, 29046, Pitch_bend_c, 3, 13262
1, 29051, Note_on_c, 8, 55, 100
1, 29051, Note_on_c, 10, 55, 66
1, 29065, Pitch_bend_c, 3, 13652
1, 29080, Pitch_bend_c, 3, 14042
1, 29085, Note_off_c, 8, 48, 0
1, 29085, Note_off_c, 10, 48, 0
1, 29090, Note_off_c, 8, 55, 0
1, 29090, Note_off_c, 10, 55, 0
1, 29095, Pitch_bend_c, 3, 14562
1, 29106, Pitch_bend_c, 3, 14692
1, 29117, Pitch_bend_c, 3, 14952
1, 29123, Note_off_c, 9, 43, 0
1, 29137, Pitch_bend_c, 3, 15082
1, 29153, Note_off_c, 9, 40, 0
1, 29215, Note_off_c, 3, 77, 0
1, 29227, Pitch_bend_c, 3, 14822
1, 29239, Pitch_bend_c, 3, 14172
1, 29251, Pitch_bend_c, 3, 13262
1, 29259, Note_off_c, 1, 36, 0
1, 29263, Pitch_bend_c, 3, 12352
1, 29274, Pitch_bend_c, 3, 11442
1, 29280, Note_on_c, 1, 36, 46
1, 29280, Note_on_c, 8, 48, 83
1, 29280, Note_on_c, 9, 35, 95
1, 29280, Note_on_c, 9, 40, 95
1, 29280, Note_on_c, 9, 43, 106
1, 29280, Note_on_c, 10, 48, 49
1, 29284, Pitch_bend_c, 3, 10532
1, 29291, Note_on_c, 8, 55, 87
1, 29291, Note_on_c, 10, 55, 53
1, 29295, Lyric_t, "THERE'S A "
1, 29295, Note_on_c, 3, 77, 115
1, 29298, Pitch_bend_c, 3, 9752
1, 29310, Pitch_bend_c, 3, 9362
1, 29313, Note_off_c, 8, 48, 0
1, 29313, Note_off_c, 10, 48, 0
1, 29325, Note_off_c, 8, 55, 0
1, 29325, Note_off_c, 10, 55, 0
1, 29368, Pitch_bend_c, 3, 9752
1, 29380, Pitch_bend_c, 3, 10142
1, 29394, Pitch_bend_c, 3, 10662
1, 29404, Pitch_bend_c, 3, 11052
1, 29414, Pitch_bend_c, 3, 11442
1, 29421, Note_off_c, 9, 43, 0
1, 29424, Pitch_bend_c, 3, 11832
1, 29428, Note_off_c, 9, 35, 0
1, 29428, Note_off_c, 9, 40, 0
1, 29436, Pitch_bend_c, 3, 12482
1, 29447, Pitch_bend_c, 3, 13132
1, 29458, Pitch_bend_c, 3, 13522
1, 29471, Pitch_bend_c, 3, 14172
1, 29486, Pitch_bend_c, 3, 14562
1, 29499, Note_off_c, 1, 36, 0
1, 29500, Pitch_bend_c, 3, 14822
1, 29515, Pitch_bend_c, 3, 14952
1, 29520, Note_on_c, 1, 36, 65
1, 29520, Note_on_c, 8, 48, 102
1, 29520, Note_on_c, 9, 40, 49
1, 29520, Note_on_c, 9, 43, 49
1, 29520, Note_on_c, 10, 48, 68
1, 29530, Pitch_bend_c, 3, 15212
1, 29531, Note_on_c, 8, 55, 87
1, 29531, Note_on_c, 10, 55, 53
1, 29555, Pitch_bend_c, 3, 15472
1, 29560, Note_off_c, 8, 48, 0
1, 29560, Note_off_c, 10, 48, 0
1, 29572, Note_off_c, 8, 55, 0
1, 29572, Note_off_c, 10, 55, 0
1, 29603, Note_off_c, 9, 43, 0
1, 29607, Pitch_bend_c, 3, 15602
1, 29633, Note_off_c, 9, 40, 0
1, 29651, Pitch_bend_c, 3, 15862
1, 29668, Pitch_bend_c, 3, 15992
1, 29689, Pitch_bend_c, 3, 16252
1, 29739, Note_off_c, 1, 36, 0
1, 29760, Note_on_c, 1, 36, 50
1, 29760, Note_on_c, 8, 48, 87
1, 29760, Note_on_c, 9, 35, 95
1, 29760, Note_on_c, 9, 40, 98
1, 29760, Note_on_c, 9, 43, 102
1, 29760, Note_on_c, 10, 48, 53
1, 29762, Pitch_bend_c, 3, 15212
1, 29771, Note_on_c, 8, 55, 75
1, 29771, Note_on_c, 10, 55, 41
1, 29773, Pitch_bend_c, 3, 13392
1, 29783, Pitch_bend_c, 3, 10792
1, 29793, Pitch_bend_c, 3, 8452
1, 29798, Note_off_c, 8, 48, 0
1, 29798, Note_off_c, 10, 48, 0
1, 29805, Note_off_c, 3, 77, 0
1, 29809, Note_off_c, 8, 55, 0
1, 29809, Note_off_c, 10, 55, 0
1, 29810, Pitch_bend_c, 3, 8192
1, 29811, Lyric_t, "FI"
1, 29811, Note_on_c, 3, 77, 97
1, 29873, Note_off_c, 9, 43, 0
1, 29895, Note_off_c, 9, 40, 0
1, 29897, Note_off_c, 3, 77, 0
1, 29908, Note_off_c, 9, 35, 0
1, 29931, Note_on_c, 3, 75, 97
1, 29979, Note_off_c, 1, 36, 0
1, 30000, Note_on_c, 1, 36, 73
1, 30000, Note_on_c, 8, 48, 110
1, 30000, Note_on_c, 9, 40, 49
1, 30000, Note_on_c, 9, 43, 49
1, 30000, Note_on_c, 10, 48, 76
1, 30011, Note_on_c, 8, 55, 87
1, 30011, Note_on_c, 10, 55, 53
1, 30017, Note_off_c, 3, 75, 0
1, 30031, Lyric_t, "RE"
1, 30031, Lyric_t, "\015"
1, 30031, Note_on_c, 3, 72, 120
1, 30045, Note_off_c, 8, 48, 0
1, 30045, Note_off_c, 10, 48, 0
1, 30054, Note_off_c, 8, 55, 0
1, 30054, Note_off_c, 10, 55, 0
1, 30083, Note_off_c, 9, 43, 0
1, 30113, Note_off_c, 9, 40, 0
1, 30219, Note_off_c, 1, 36, 0
1, 30240, Note_on_c, 1, 36, 78
1, 30240, Note_on_c, 8, 48, 115
1, 30240, Note_on_c, 9, 35, 95
1, 30240, Note_on_c, 9, 40, 98
1, 30240, Note_on_c, 9, 43, 106
1, 30240, Note_on_c, 10, 48, 81
1, 30251, Note_on_c, 8, 55, 95
1, 30251, Note_on_c, 10, 55, 61
1, 30285, Note_off_c, 8, 48, 0
1, 30285, Note_off_c, 10, 48, 0
1, 30290, Note_off_c, 8, 55, 0
1, 30290, Note_off_c, 10, 55, 0
1, 30388, Note_off_c, 9, 35, 0
1, 30395, Note_off_c, 9, 43, 0
1, 30412, Note_off_c, 9, 40, 0
1, 30459, Note_off_c, 1, 36, 0
1, 30480, Note_on_c, 1, 36, 78
1, 30480, Note_on_c, 8, 48, 115
1, 30480, Note_on_c, 9, 40, 49
1, 30480, Note_on_c, 9, 43, 49
1, 30480, Note_on_c, 10, 48, 81
1, 30491, Note_on_c, 8, 55, 87
1, 30491, Note_on_c, 10, 55, 53
1, 30526, Note_off_c, 8, 48, 0
1, 30526, Note_off_c, 10, 48, 0
1, 30529, Note_off_c, 3, 72, 0
1, 30529, Note_off_c, 8, 55, 0
1, 30529, Note_off_c, 10, 55, 0
1, 30563, Note_off_c, 9, 43, 0
1, 30593, Note_off_c, 9, 40, 0
1, 30666, Pitch_bend_c, 3, 7296
1, 30676, Pitch_bend_c, 3, 6016
1, 30686, Pitch_bend_c, 3, 4480
1, 30696, Pitch_bend_c, 3, 2944
1, 30699, Note_off_c, 1, 36, 0
1, 30709, Pitch_bend_c, 3, 1536
1, 30720, Note_on_c, 1, 36, 65
1, 30720, Note_on_c, 8, 48, 102
1, 30720, Note_on_c, 9, 35, 95
1, 30720, Note_on_c, 9, 40, 98
1, 30720, Note_on_c, 9, 43, 106
1, 30720, Note_on_c, 10, 48, 68
1, 30721, Pitch_bend_c, 3, 640
1, 30727, Lyric_t, "STAR"
1, 30727, Note_on_c, 3, 79, 120
1, 30731, Note_on_c, 8, 55, 80
1, 30731, Note_on_c, 10, 55, 46
1, 30731, Pitch_bend_c, 3, 128
1, 30761, Pitch_bend_c, 3, 384
1, 30764, Note_off_c, 8, 55, 0
1, 30764, Note_off_c, 10, 55, 0
1, 30765, Note_off_c, 8, 48, 0
1, 30765, Note_off_c, 10, 48, 0
1, 30771, Pitch_bend_c, 3, 1280
1, 30782, Pitch_bend_c, 3, 2688
1, 30792, Pitch_bend_c, 3, 4096
1, 30802, Pitch_bend_c, 3, 5632
1, 30815, Pitch_bend_c, 3, 7296
1, 30825, Pitch_bend_c, 3, 8192
1, 30835, Note_off_c, 9, 43, 0
1, 30850, Note_off_c, 9, 40, 0
1, 30868, Note_off_c, 9, 35, 0
1, 30890, Note_off_c, 3, 79, 0
1, 30903, Pitch_bend_c, 3, 8064
1, 30913, Pitch_bend_c, 3, 6016
1, 30923, Pitch_bend_c, 3, 3584
1, 30933, Pitch_bend_c, 3, 1280
1, 30939, Note_off_c, 1, 36, 0
1, 30943, Pitch_bend_c, 3, 0
1, 30960, Note_on_c, 1, 31, 73
1, 30960, Note_on_c, 8, 43, 110
1, 30960, Note_on_c, 9, 40, 49
1, 30960, Note_on_c, 9, 43, 49
1, 30960, Note_on_c, 10, 43, 76
1, 30966, Lyric_t, "TING "
1, 30966, Note_on_c, 3, 79, 102
1, 30971, Note_on_c, 8, 50, 91
1, 30971, Note_on_c, 10, 50, 57
1, 31007, Note_off_c, 8, 43, 0
1, 31007, Note_off_c, 10, 43, 0
1, 31010, Pitch_bend_c, 3, 1152
1, 31015, Note_off_c, 8, 50, 0
1, 31015, Note_off_c, 10, 50, 0
1, 31020, Pitch_bend_c, 3, 3072
1, 31030, Pitch_bend_c, 3, 5504
1, 31040, Pitch_bend_c, 3, 8192
1, 31043, Note_off_c, 9, 43, 0
1, 31073, Note_off_c, 9, 40, 0
1, 31138, Note_off_c, 3, 79, 0
1, 31179, Note_off_c, 1, 31, 0
1, 31191, Lyric_t, "IN "
1, 31191, Note_on_c, 3, 77, 106
1, 31200, Note_on_c, 1, 31, 73
1, 31200, Note_on_c, 8, 43, 110
1, 31200, Note_on_c, 9, 35, 95
1, 31200, Note_on_c, 9, 40, 95
1, 31200, Note_on_c, 9, 43, 106
1, 31200, Note_on_c, 10, 43, 76
1, 31211, Note_on_c, 8, 50, 91
1, 31211, Note_on_c, 10, 50, 57
1, 31244, Note_off_c, 8, 43, 0
1, 31244, Note_off_c, 10, 43, 0
1, 31247, Note_off_c, 8, 50, 0
1, 31247, Note_off_c, 10, 50, 0
1, 31341, Note_off_c, 9, 43, 0
1, 31348, Note_off_c, 9, 35, 0
1, 31348, Note_off_c, 9, 40, 0
1, 31414, Lyric_t, "MY "
1, 31414, Note_on_c, 3, 75, 123
1, 31419, Note_off_c, 1, 31, 0
1, 31430, Note_off_c, 3, 77, 0
1, 31440, Note_on_c, 1, 31, 78
1, 31440, Note_on_c, 8, 43, 115
1, 31440, Note_on_c, 9, 40, 49
1, 31440, Note_on_c, 9, 43, 49
1, 31440, Note_on_c, 10, 43, 81
1, 31451, Note_on_c, 8, 50, 87
1, 31451, Note_on_c, 10, 50, 53
1, 31491, Note_off_c, 8, 43, 0
1, 31491, Note_off_c, 10, 43, 0
1, 31495, Note_off_c, 8, 50, 0
1, 31495, Note_off_c, 10, 50, 0
1, 31523, Note_off_c, 9, 43, 0
1, 31553, Note_off_c, 9, 40, 0
1, 31659, Note_off_c, 1, 31, 0
1, 31680, Note_on_c, 1, 31, 65
1, 31680, Note_on_c, 8, 43, 102
1, 31680, Note_on_c, 9, 35, 95
1, 31680, Note_on_c, 9, 40, 98
1, 31680, Note_on_c, 9, 43, 102
1, 31680, Note_on_c, 10, 43, 68
1, 31691, Note_on_c, 8, 50, 91
1, 31691, Note_on_c, 10, 50, 57
1, 31732, Note_off_c, 8, 43, 0
1, 31732, Note_off_c, 10, 43, 0
1, 31739, Note_off_c, 8, 50, 0
1, 31739, Note_off_c, 10, 50, 0
1, 31793, Note_off_c, 9, 43, 0
1, 31815, Note_off_c, 9, 40, 0
1, 31828, Note_off_c, 9, 35, 0
1, 31856, Note_off_c, 3, 75, 0
1, 31890, Lyric_t, "HEART"
1, 31890, Lyric_t, "\015"
1, 31890, Note_on_c, 3, 72, 125
1, 31899, Note_off_c, 1, 31, 0
1, 31920, Note_on_c, 1, 31, 73
1, 31920, Note_on_c, 8, 43, 110
1, 31920, Note_on_c, 9, 40, 49
1, 31920, Note_on_c, 9, 43, 49
1, 31920, Note_on_c, 10, 43, 76
1, 31931, Note_on_c, 8, 50, 91
1, 31931, Note_on_c, 10, 50, 57
1, 31965, Note_off_c, 8, 43, 0
1, 31965, Note_off_c, 10, 43, 0
1, 31981, Note_off_c, 8, 50, 0
1, 31981, Note_off_c, 10, 50, 0
1, 32003, Note_off_c, 9, 43, 0
1, 32033, Note_off_c, 9, 40, 0
1, 32139, Note_off_c, 1, 31, 0
1, 32160, Note_on_c, 1, 31, 78
1, 32160, Note_on_c, 8, 43, 115
1, 32160, Note_on_c, 9, 35, 95
1, 32160, Note_on_c, 9, 40, 98
1, 32160, Note_on_c, 9, 43, 106
1, 32160, Note_on_c, 10, 43, 81
1, 32171, Note_on_c, 8, 50, 83
1, 32171, Note_on_c, 10, 50, 49
1, 32204, Note_off_c, 8, 43, 0
1, 32204, Note_off_c, 10, 43, 0
1, 32217, Note_off_c, 8, 50, 0
1, 32217, Note_off_c, 10, 50, 0
1, 32293, Note_off_c, 3, 72, 0
1, 32308, Note_off_c, 9, 35, 0
1, 32315, Note_off_c, 9, 43, 0
1, 32332, Note_off_c, 9, 40, 0
1, 32379, Note_off_c, 1, 31, 0
1, 32400, Note_on_c, 1, 31, 83
1, 32400, Note_on_c, 8, 43, 120
1, 32400, Note_on_c, 9, 40, 49
1, 32400, Note_on_c, 9, 43, 49
1, 32400, Note_on_c, 10, 43, 86
1, 32411, Note_on_c, 8, 50, 105
1, 32411, Note_on_c, 10, 50, 71
1, 32447, Note_off_c, 8, 43, 0
1, 32447, Note_off_c, 10, 43, 0
1, 32465, Note_off_c, 8, 50, 0
1, 32465, Note_off_c, 10, 50, 0
1, 32483, Note_off_c, 9, 43, 0
1, 32513, Note_off_c, 9, 40, 0
1, 32619, Note_off_c, 1, 31, 0
1, 32640, Note_on_c, 1, 31, 83
1, 32640, Note_on_c, 8, 43, 120
1, 32640, Note_on_c, 9, 35, 95
1, 32640, Note_on_c, 9, 40, 98
1, 32640, Note_on_c, 9, 43, 106
1, 32640, Note_on_c, 10, 43, 86
1, 32651, Note_on_c, 8, 50, 105
1, 32651, Note_on_c, 10, 50, 71
1, 32657, Lyric_t, "REA"
1, 32657, Note_on_c, 3, 77, 110
1, 32687, Note_off_c, 8, 43, 0
1, 32687, Note_off_c, 10, 43, 0
1, 32705, Note_off_c, 8, 50, 0
1, 32705, Note_off_c, 10, 50, 0
1, 32751, Pitch_bend_c, 3, 8842
1, 32755, Note_off_c, 9, 43, 0
1, 32762, Pitch_bend_c, 3, 9232
1, 32770, Note_off_c, 9, 40, 0
1, 32778, Pitch_bend_c, 3, 9622
1, 32788, Note_off_c, 9, 35, 0
1, 32791, Pitch_bend_c, 3, 10012
1, 32801, Pitch_bend_c, 3, 10532
1, 32816, Pitch_bend_c, 3, 10922
1, 32831, Pitch_bend_c, 3, 11312
1, 32843, Pitch_bend_c, 3, 11572
1, 32858, Pitch_bend_c, 3, 11702
1, 32859, Note_off_c, 1, 31, 0
1, 32868, Pitch_bend_c, 3, 11962
1, 32880, Note_on_c, 1, 34, 73
1, 32880, Note_on_c, 8, 46, 110
1, 32880, Note_on_c, 9, 40, 49
1, 32880, Note_on_c, 9, 43, 49
1, 32880, Note_on_c, 10, 46, 76
1, 32883, Pitch_bend_c, 3, 12352
1, 32891, Note_on_c, 8, 53, 91
1, 32891, Note_on_c, 10, 53, 57
1, 32893, Pitch_bend_c, 3, 12742
1, 32904, Pitch_bend_c, 3, 13132
1, 32917, Pitch_bend_c, 3, 13912
1, 32927, Note_off_c, 8, 46, 0
1, 32927, Note_off_c, 10, 46, 0
1, 32929, Pitch_bend_c, 3, 14562
1, 32935, Note_off_c, 8, 53, 0
1, 32935, Note_off_c, 10, 53, 0
1, 32942, Pitch_bend_c, 3, 15212
1, 32952, Pitch_bend_c, 3, 15602
1, 32963, Note_off_c, 9, 43, 0
1, 32964, Pitch_bend_c, 3, 16122
1, 32993, Note_off_c, 9, 40, 0
1, 32994, Pitch_bend_c, 3, 14432
1, 33006, Pitch_bend_c, 3, 9882
1, 33015, Note_off_c, 3, 77, 0
1, 33016, Pitch_bend_c, 3, 8452
1, 33035, Lyric_t, "CHING "
1, 33035, Note_on_c, 3, 82, 111
1, 33099, Note_off_c, 1, 34, 0
1, 33120, Note_on_c, 1, 34, 73
1, 33120, Note_on_c, 8, 46, 110
1, 33120, Note_on_c, 9, 35, 95
1, 33120, Note_on_c, 9, 40, 95
1, 33120, Note_on_c, 9, 43, 106
1, 33120, Note_on_c, 10, 46, 76
1, 33131, Note_on_c, 8, 53, 91
1, 33131, Note_on_c, 10, 53, 57
1, 33164, Note_off_c, 8, 46, 0
1, 33164, Note_off_c, 10, 46, 0
1, 33167, Note_off_c, 8, 53, 0
1, 33167, Note_off_c, 10, 53, 0
1, 33261, Note_off_c, 9, 43, 0
1, 33268, Note_off_c, 9, 35, 0
1, 33268, Note_off_c, 9, 40, 0
1, 33308, Note_off_c, 3, 82, 0
1, 33339, Note_off_c, 1, 34, 0
1, 33360, Note_on_c, 1, 34, 78
1, 33360, Note_on_c, 8, 46, 115
1, 33360, Note_on_c, 9, 40, 49
1, 33360, Note_on_c, 9, 43, 49
1, 33360, Note_on_c, 10, 46, 81
1, 33371, Note_on_c, 8, 53, 87
1, 33371, Note_on_c, 10, 53, 53
1, 33383, Lyric_t, "A "
1, 33383, Note_on_c, 3, 79, 106
1, 33411, Note_off_c, 8, 46, 0
1, 33411, Note_off_c, 10, 46, 0
1, 33415, Note_off_c, 8, 53, 0
1, 33415, Note_off_c, 10, 53, 0
1, 33443, Note_off_c, 9, 43, 0
1, 33473, Note_off_c, 9, 40, 0
1, 33579, Note_off_c, 1, 34, 0
1, 33586, Note_off_c, 3, 79, 0
1, 33600, Note_on_c, 1, 34, 65
1, 33600, Note_on_c, 8, 46, 102
1, 33600, Note_on_c, 9, 35, 95
1, 33600, Note_on_c, 9, 40, 98
1, 33600, Note_on_c, 9, 43, 102
1, 33600, Note_on_c, 10, 46, 68
1, 33611, Note_on_c, 8, 53, 91
1, 33611, Note_on_c, 10, 53, 57
1, 33620, Lyric_t, "FE"
1, 33620, Note_on_c, 3, 77, 110
1, 33652, Note_off_c, 8, 46, 0
1, 33652, Note_off_c, 10, 46, 0
1, 33659, Note_off_c, 8, 53, 0
1, 33659, Note_off_c, 10, 53, 0
1, 33713, Note_off_c, 9, 43, 0
1, 33735, Note_off_c, 9, 40, 0
1, 33748, Note_off_c, 9, 35, 0
1, 33806, Note_off_c, 3, 77, 0
1, 33819, Note_off_c, 1, 34, 0
1, 33840, Note_on_c, 1, 34, 73
1, 33840, Note_on_c, 8, 46, 110
1, 33840, Note_on_c, 9, 40, 49
1, 33840, Note_on_c, 9, 43, 49
1, 33840, Note_on_c, 10, 46, 76
1, 33851, Note_on_c, 8, 53, 91
1, 33851, Note_on_c, 10, 53, 57
1, 33852, Lyric_t, "VER "
1, 33852, Note_on_c, 3, 75, 111
1, 33885, Note_off_c, 8, 46, 0
1, 33885, Note_off_c, 10, 46, 0
1, 33901, Note_off_c, 8, 53, 0
1, 33901, Note_off_c, 10, 53, 0
1, 33923, Note_off_c, 9, 43, 0
1, 33953, Note_off_c, 9, 40, 0
1, 34045, Note_off_c, 3, 75, 0
1, 34059, Note_off_c, 1, 34, 0
1, 34080, Note_on_c, 1, 34, 78
1, 34080, Note_on_c, 8, 46, 115
1, 34080, Note_on_c, 9, 35, 95
1, 34080, Note_on_c, 9, 40, 98
1, 34080, Note_on_c, 9, 43, 106
1, 34080, Note_on_c, 10, 46, 81
1, 34081, Lyric_t, "PITCH"
1, 34081, Lyric_t, "\015"
1, 34081, Note_on_c, 3, 72, 110
1, 34091, Note_on_c, 8, 53, 83
1, 34091, Note_on_c, 10, 53, 49
1, 34124, Note_off_c, 8, 46, 0
1, 34124, Note_off_c, 10, 46, 0
1, 34137, Note_off_c, 8, 53, 0
1, 34137, Note_off_c, 10, 53, 0
1, 34204, Note_off_c, 3, 72, 0
1, 34228, Note_off_c, 9, 35, 0
1, 34235, Note_off_c, 9, 43, 0
1, 34252, Note_off_c, 9, 40, 0
1, 34299, Note_off_c, 1, 34, 0
1, 34320, Note_on_c, 1, 34, 83
1, 34320, Note_on_c, 8, 46, 120
1, 34320, Note_on_c, 9, 40, 49
1, 34320, Note_on_c, 9, 43, 49
1, 34320, Note_on_c, 10, 46, 86
1, 34331, Note_on_c, 8, 53, 105
1, 34331, Note_on_c, 10, 53, 71
1, 34335, Lyric_t, "AND "
1, 34335, Note_on_c, 3, 72, 125
1, 34367, Note_off_c, 8, 46, 0
1, 34367, Note_off_c, 10, 46, 0
1, 34385, Note_off_c, 8, 53, 0
1, 34385, Note_off_c, 10, 53, 0
1, 34403, Note_off_c, 9, 43, 0
1, 34433, Note_off_c, 9, 40, 0
1, 34449, Note_off_c, 3, 72, 0
1, 34455, Lyric_t, "IT'S "
1, 34455, Note_on_c, 3, 72, 125
1, 34539, Note_off_c, 1, 34, 0
1, 34554, Note_off_c, 3, 72, 0
1, 34560, Lyric_t, "BRIN"
1, 34560, Note_on_c, 1, 34, 83
1, 34560, Note_on_c, 3, 75, 123
1, 34560, Note_on_c, 8, 46, 120
1, 34560, Note_on_c, 9, 35, 95
1, 34560, Note_on_c, 9, 40, 98
1, 34560, Note_on_c, 9, 43, 106
1, 34560, Note_on_c, 10, 46, 86
1, 34571, Note_on_c, 8, 53, 105
1, 34571, Note_on_c, 10, 53, 71
1, 34607, Note_off_c, 8, 46, 0
1, 34607, Note_off_c, 10, 46, 0
1, 34625, Note_off_c, 8, 53, 0
1, 34625, Note_off_c, 10, 53, 0
1, 34674, Note_off_c, 3, 75, 0
1, 34675, Note_off_c, 9, 43, 0
1, 34680, Lyric_t, "GING "
1, 34680, Note_on_c, 3, 75, 123
1, 34690, Note_off_c, 9, 40, 0
1, 34708, Note_off_c, 9, 35, 0
1, 34779, Note_off_c, 1, 34, 0
1, 34794, Note_off_c, 3, 75, 0
1, 34800, Lyric_t, "ME "
1, 34800, Note_on_c, 1, 31, 73
1, 34800, Note_on_c, 3, 75, 101
1, 34800, Note_on_c, 8, 43, 110
1, 34800, Note_on_c, 9, 40, 49
1, 34800, Note_on_c, 9, 43, 49
1, 34800, Note_on_c, 10, 43, 76
1, 34811, Note_on_c, 8, 50, 91
1, 34811, Note_on_c, 10, 50, 57
1, 34847, Note_off_c, 8, 43, 0
1, 34847, Note_off_c, 10, 43, 0
1, 34855, Note_off_c, 8, 50, 0
1, 34855, Note_off_c, 10, 50, 0
1, 34883, Note_off_c, 9, 43, 0
1, 34913, Note_off_c, 9, 40, 0
1, 35010, Note_off_c, 3, 75, 0
1, 35019, Note_off_c, 1, 31, 0
1, 35040, Lyric_t, "OUT "
1, 35040, Note_on_c, 1, 31, 73
1, 35040, Note_on_c, 3, 74, 106
1, 35040, Note_on_c, 8, 43, 110
1, 35040, Note_on_c, 9, 35, 95
1, 35040, Note_on_c, 9, 40, 95
1, 35040, Note_on_c, 9, 43, 106
1, 35040, Note_on_c, 10, 43, 76
1, 35051, Note_on_c, 8, 50, 91
1, 35051, Note_on_c, 10, 50, 57
1, 35084, Note_off_c, 8, 43, 0
1, 35084, Note_off_c, 10, 43, 0
1, 35087, Note_off_c, 8, 50, 0
1, 35087, Note_off_c, 10, 50, 0
1, 35181, Note_off_c, 9, 43, 0
1, 35188, Note_off_c, 9, 35, 0
1, 35188, Note_off_c, 9, 40, 0
1, 35250, Note_off_c, 3, 74, 0
1, 35259, Note_off_c, 1, 31, 0
1, 35280, Lyric_t, "THE "
1, 35280, Note_on_c, 1, 31, 78
1, 35280, Note_on_c, 3, 72, 115
1, 35280, Note_on_c, 8, 43, 115
1, 35280, Note_on_c, 9, 40, 49
1, 35280, Note_on_c, 9, 43, 49
1, 35280, Note_on_c, 10, 43, 81
1, 35291, Note_on_c, 8, 50, 87
1, 35291, Note_on_c, 10, 50, 53
1, 35331, Note_off_c, 8, 43, 0
1, 35331, Note_off_c, 10, 43, 0
1, 35335, Note_off_c, 8, 50, 0
1, 35335, Note_off_c, 10, 50, 0
1, 35363, Note_off_c, 9, 43, 0
1, 35393, Note_off_c, 9, 40, 0
1, 35490, Note_off_c, 3, 72, 0
1, 35499, Note_off_c, 1, 31, 0
1, 35520, Lyric_t, "DARK"
1, 35520, Lyric_t, "\015"
1, 35520, Note_on_c, 1, 31, 65
1, 35520, Note_on_c, 3, 72, 127
1, 35520, Note_on_c, 8, 43, 102
1, 35520, Note_on_c, 9, 35, 95
1, 35520, Note_on_c, 9, 40, 98
1, 35520, Note_on_c, 9, 43, 102
1, 35520, Note_on_c, 10, 43, 68
1, 35531, Note_on_c, 8, 50, 91
1, 35531, Note_on_c, 10, 50, 57
1, 35572, Note_off_c, 8, 43, 0
1, 35572, Note_off_c, 10, 43, 0
1, 35579, Note_off_c, 8, 50, 0
1, 35579, Note_off_c, 10, 50, 0
1, 35633, Note_off_c, 9, 43, 0
1, 35655, Note_off_c, 9, 40, 0
1, 35668, Note_off_c, 9, 35, 0
1, 35739, Note_off_c, 1, 31, 0
1, 35760, Note_on_c, 1, 34, 73
1, 35760, Note_on_c, 8, 46, 110
1, 35760, Note_on_c, 9, 40, 49
1, 35760, Note_on_c, 9, 43, 49
1, 35760, Note_on_c, 10, 46, 76
1, 35771, Note_on_c, 8, 53, 91
1, 35771, Note_on_c, 10, 53, 57
1, 35805, Note_off_c, 8, 46, 0
1, 35805, Note_off_c, 10, 46, 0
1, 35821, Note_off_c, 8, 53, 0
1, 35821, Note_off_c, 10, 53, 0
1, 35843, Note_off_c, 9, 43, 0
1, 35849, Note_off_c, 3, 72, 0
1, 35873, Note_off_c, 9, 40, 0
1, 35979, Note_off_c, 1, 34, 0
1, 36000, Note_on_c, 1, 34, 78
1, 36000, Note_on_c, 8, 46, 115
1, 36000, Note_on_c, 9, 35, 95
1, 36000, Note_on_c, 9, 40, 98
1, 36000, Note_on_c, 9, 43, 106
1, 36000, Note_on_c, 10, 46, 81
1, 36011, Note_on_c, 8, 53, 83
1, 36011, Note_on_c, 10, 53, 49
1, 36044, Note_off_c, 8, 46, 0
1, 36044, Note_off_c, 10, 46, 0
1, 36057, Note_off_c, 8, 53, 0
1, 36057, Note_off_c, 10, 53, 0
1, 36148, Note_off_c, 9, 35, 0
1, 36155, Note_off_c, 9, 43, 0
1, 36172, Note_off_c, 9, 40, 0
1, 36219, Note_off_c, 1, 34, 0
1, 36240, Note_on_c, 1, 34, 83
1, 36240, Note_on_c, 8, 46, 120
1, 36240, Note_on_c, 9, 40, 49
1, 36240, Note_on_c, 9, 43, 49
1, 36240, Note_on_c, 9, 46, 106
1, 36240, Note_on_c, 10, 46, 86
1, 36251, Note_on_c, 8, 53, 105
1, 36251, Note_on_c, 10, 53, 71
1, 36287, Note_off_c, 8, 46, 0
1, 36287, Note_off_c, 10, 46, 0
1, 36305, Note_off_c, 8, 53, 0
1, 36305, Note_off_c, 10, 53, 0
1, 36323, Note_off_c, 9, 43, 0
1, 36353, Note_off_c, 9, 40, 0
1, 36395, Note_off_c, 9, 46, 0
1, 36459, Note_off_c, 1, 34, 0
1, 36480, Note_on_c, 1, 32, 113
1, 36480, Note_on_c, 7, 32, 114
1, 36480, Note_on_c, 7, 44, 114
1, 36480, Note_on_c, 7, 56, 114
1, 36480, Note_on_c, 7, 60, 114
1, 36480, Note_on_c, 7, 63, 114
1, 36480, Note_on_c, 8, 44, 104
1, 36480, Note_on_c, 9, 35, 95
1, 36480, Note_on_c, 9, 40, 98
1, 36480, Note_on_c, 9, 43, 106
1, 36480, Note_on_c, 10, 44, 105
1, 36491, Note_on_c, 8, 51, 106
1, 36522, Note_off_c, 8, 44, 0
1, 36538, Note_off_c, 8, 51, 0
1, 36595, Note_off_c, 9, 43, 0
1, 36610, Note_off_c, 9, 40, 0
1, 36628, Note_off_c, 9, 35, 0
1, 36699, Note_off_c, 1, 32, 0
1, 36699, Note_off_c, 10, 44, 0
1, 36720, Note_on_c, 1, 32, 113
1, 36720, Note_on_c, 8, 44, 121
1, 36720, Note_on_c, 9, 44, 95
1, 36720, Note_on_c, 10, 44, 105
1, 36731, Note_on_c, 8, 51, 106
1, 36748, Note_off_c, 9, 44, 0
1, 36765, Note_off_c, 8, 44, 0
1, 36770, Note_off_c, 8, 51, 0
1, 36939, Note_off_c, 1, 32, 0
1, 36939, Note_off_c, 10, 44, 0
1, 36960, Note_on_c, 1, 32, 118
1, 36960, Note_on_c, 8, 44, 89
1, 36960, Note_on_c, 9, 35, 95
1, 36960, Note_on_c, 9, 40, 95
1, 36960, Note_on_c, 9, 43, 106
1, 36960, Note_on_c, 10, 44, 110
1, 36971, Note_on_c, 8, 51, 93
1, 36993, Note_off_c, 8, 44, 0
1, 37005, Note_off_c, 8, 51, 0
1, 37101, Note_off_c, 9, 43, 0
1, 37108, Note_off_c, 9, 35, 0
1, 37108, Note_off_c, 9, 40, 0
1, 37179, Note_off_c, 1, 32, 0
1, 37179, Note_off_c, 10, 44, 0
1, 37200, Lyric_t, "THE "
1, 37200, Note_on_c, 1, 32, 113
1, 37200, Note_on_c, 3, 75, 123
1, 37200, Note_on_c, 8, 44, 108
1, 37200, Note_on_c, 9, 44, 95
1, 37200, Note_on_c, 10, 44, 105
1, 37211, Note_on_c, 8, 51, 93
1, 37228, Note_off_c, 9, 44, 0
1, 37240, Note_off_c, 8, 44, 0
1, 37252, Note_off_c, 8, 51, 0
1, 37310, Note_off_c, 3, 75, 0
1, 37419, Note_off_c, 1, 32, 0
1, 37419, Note_off_c, 10, 44, 0
1, 37440, Note_on_c, 1, 32, 113
1, 37440, Note_on_c, 8, 44, 93
1, 37440, Note_on_c, 9, 35, 95
1, 37440, Note_on_c, 9, 40, 98
1, 37440, Note_on_c, 9, 43, 102
1, 37440, Note_on_c, 10, 44, 105
1, 37451, Note_on_c, 8, 51, 81
1, 37460, Lyric_t, "SCARS "
1, 37460, Note_on_c, 3, 78, 127
1, 37478, Note_off_c, 8, 44, 0
1, 37489, Note_off_c, 8, 51, 0
1, 37549, Pitch_bend_c, 3, 8712
1, 37553, Note_off_c, 9, 43, 0
1, 37563, Pitch_bend_c, 3, 9102
1, 37575, Note_off_c, 9, 40, 0
1, 37581, Pitch_bend_c, 3, 9492
1, 37588, Note_off_c, 9, 35, 0
1, 37593, Pitch_bend_c, 3, 9752
1, 37603, Pitch_bend_c, 3, 9882
1, 37623, Pitch_bend_c, 3, 10142
1, 37659, Note_off_c, 1, 32, 0
1, 37659, Note_off_c, 10, 44, 0
1, 37680, Note_on_c, 1, 32, 118
1, 37680, Note_on_c, 8, 44, 116
1, 37680, Note_on_c, 9, 44, 95
1, 37680, Note_on_c, 10, 44, 110
1, 37691, Note_on_c, 8, 51, 93
1, 37692, Pitch_bend_c, 3, 10532
1, 37705, Pitch_bend_c, 3, 10922
1, 37708, Note_off_c, 9, 44, 0
1, 37721, Pitch_bend_c, 3, 11572
1, 37725, Note_off_c, 8, 44, 0
1, 37733, Pitch_bend_c, 3, 11962
1, 37734, Note_off_c, 8, 51, 0
1, 37746, Pitch_bend_c, 3, 12482
1, 37758, Pitch_bend_c, 3, 12612
1, 37792, Pitch_bend_c, 3, 12872
1, 37819, Note_off_c, 3, 78, 0
1, 37842, Pitch_bend_c, 3, 12612
1, 37857, Pitch_bend_c, 3, 11962
1, 37867, Pitch_bend_c, 3, 11442
1, 37879, Pitch_bend_c, 3, 10662
1, 37889, Pitch_bend_c, 3, 9752
1, 37899, Note_off_c, 1, 32, 0
1, 37899, Note_off_c, 10, 44, 0
1, 37903, Pitch_bend_c, 3, 8452
1, 37916, Lyric_t, "OF YOUR "
1, 37916, Note_on_c, 3, 78, 127
1, 37920, Note_on_c, 1, 32, 113
1, 37920, Note_on_c, 8, 44, 121
1, 37920, Note_on_c, 9, 35, 95
1, 37920, Note_on_c, 9, 40, 98
1, 37920, Note_on_c, 9, 43, 106
1, 37920, Note_on_c, 10, 44, 105
1, 37931, Note_on_c, 8, 51, 101
1, 37965, Note_off_c, 8, 44, 0
1, 37970, Note_off_c, 8, 51, 0
1, 38039, Pitch_bend_c, 3, 8972
1, 38052, Pitch_bend_c, 3, 9362
1, 38067, Pitch_bend_c, 3, 9752
1, 38068, Note_off_c, 9, 35, 0
1, 38075, Note_off_c, 9, 43, 0
1, 38082, Pitch_bend_c, 3, 10012
1, 38092, Note_off_c, 9, 40, 0
1, 38139, Note_off_c, 1, 32, 0
1, 38139, Note_off_c, 10, 44, 0
1, 38160, Note_on_c, 1, 32, 118
1, 38160, Note_on_c, 8, 44, 121
1, 38160, Note_on_c, 9, 44, 95
1, 38160, Note_on_c, 10, 44, 110
1, 38171, Note_on_c, 8, 51, 93
1, 38188, Note_off_c, 9, 44, 0
1, 38190, Pitch_bend_c, 3, 10142
1, 38206, Note_off_c, 8, 44, 0
1, 38209, Note_off_c, 8, 51, 0
1, 38227, Pitch_bend_c, 3, 10402
1, 38259, Note_off_c, 7, 32, 0
1, 38259, Note_off_c, 7, 44, 0
1, 38259, Note_off_c, 7, 56, 0
1, 38259, Note_off_c, 7, 60, 0
1, 38259, Note_off_c, 7, 63, 0
1, 38264, Pitch_bend_c, 3, 10532
1, 38280, Note_on_c, 9, 44, 95
1, 38281, Pitch_bend_c, 3, 10792
1, 38291, Pitch_bend_c, 3, 10922
1, 38308, Note_off_c, 9, 44, 0
1, 38311, Pitch_bend_c, 3, 11442
1, 38321, Pitch_bend_c, 3, 11572
1, 38329, Note_off_c, 3, 78, 0
1, 38339, Pitch_bend_c, 3, 11962
1, 38356, Pitch_bend_c, 3, 12482
1, 38373, Pitch_bend_c, 3, 12872
1, 38379, Note_off_c, 1, 32, 0
1, 38379, Note_off_c, 10, 44, 0
1, 38400, Note_on_c, 1, 34, 113
1, 38400, Note_on_c, 7, 34, 114
1, 38400, Note_on_c, 7, 46, 114
1, 38400, Note_on_c, 7, 58, 114
1, 38400, Note_on_c, 7, 62, 114
1, 38400, Note_on_c, 7, 65, 114
1, 38400, Note_on_c, 8, 46, 104
1, 38400, Note_on_c, 9, 35, 95
1, 38400, Note_on_c, 9, 40, 98
1, 38400, Note_on_c, 9, 43, 106
1, 38400, Note_on_c, 10, 46, 105
1, 38411, Lyric_t, "LO"
1, 38411, Note_on_c, 3, 78, 127
1, 38411, Note_on_c, 8, 53, 106
1, 38423, Pitch_bend_c, 3, 12092
1, 38435, Pitch_bend_c, 3, 10272
1, 38442, Note_off_c, 8, 46, 0
1, 38445, Pitch_bend_c, 3, 8452
1, 38458, Note_off_c, 8, 53, 0
1, 38515, Note_off_c, 9, 43, 0
1, 38530, Note_off_c, 9, 40, 0
1, 38542, Note_off_c, 3, 78, 0
1, 38548, Note_off_c, 9, 35, 0
1, 38556, Note_on_c, 3, 75, 116
1, 38619, Note_off_c, 1, 34, 0
1, 38619, Note_off_c, 10, 46, 0
1, 38640, Note_on_c, 1, 34, 113
1, 38640, Note_on_c, 8, 46, 121
1, 38640, Note_on_c, 9, 44, 95
1, 38640, Note_on_c, 10, 46, 105
1, 38645, Note_off_c, 3, 75, 0
1, 38651, Note_on_c, 8, 53, 106
1, 38668, Note_off_c, 9, 44, 0
1, 38676, Lyric_t, "VE"
1, 38676, Lyric_t, "\015"
1, 38676, Note_on_c, 3, 72, 115
1, 38685, Note_off_c, 8, 46, 0
1, 38690, Note_off_c, 8, 53, 0
1, 38809, Note_off_c, 3, 72, 0
1, 38859, Note_off_c, 1, 34, 0
1, 38859, Note_off_c, 10, 46, 0
1, 38880, Note_on_c, 1, 34, 118
1, 38880, Note_on_c, 8, 46, 89
1, 38880, Note_on_c, 9, 35, 95
1, 38880, Note_on_c, 9, 40, 95
1, 38880, Note_on_c, 9, 43, 106
1, 38880, Note_on_c, 10, 46, 110
1, 38891, Note_on_c, 8, 53, 93
1, 38913, Note_off_c, 8, 46, 0
1, 38916, Lyric_t, "RE"
1, 38916, Note_on_c, 3, 75, 120
1, 38925, Note_off_c, 8, 53, 0
1, 39021, Note_off_c, 9, 43, 0
1, 39028, Note_off_c, 9, 35, 0
1, 39028, Note_off_c, 9, 40, 0
1, 39066, Note_off_c, 3, 75, 0
1, 39099, Note_off_c, 1, 34, 0
1, 39099, Note_off_c, 10, 46, 0
1, 39120, Note_on_c, 1, 34, 113
1, 39120, Note_on_c, 8, 46, 108
1, 39120, Note_on_c, 9, 44, 95
1, 39120, Note_on_c, 10, 46, 105
1, 39131, Note_on_c, 8, 53, 93
1, 39142, Note_on_c, 3, 75, 127
1, 39148, Note_off_c, 9, 44, 0
1, 39160, Note_off_c, 8, 46, 0
1, 39172, Note_off_c, 8, 53, 0
1, 39262, Note_off_c, 3, 75, 0
1, 39339, Note_off_c, 1, 34, 0
1, 39339, Note_off_c, 10, 46, 0
1, 39360, Note_on_c, 1, 34, 113
1, 39360, Note_on_c, 8, 46, 93
1, 39360, Note_on_c, 9, 35, 95
1, 39360, Note_on_c, 9, 40, 98
1, 39360, Note_on_c, 9, 43, 102
1, 39360, Note_on_c, 10, 46, 105
1, 39371, Note_on_c, 8, 53, 81
1, 39387, Lyric_t, "MIND "
1, 39387, Note_on_c, 3, 78, 127
1, 39398, Note_off_c, 8, 46, 0
1, 39409, Note_off_c, 8, 53, 0
1, 39473, Note_off_c, 9, 43, 0
1, 39477, Pitch_bend_c, 3, 8582
1, 39491, Pitch_bend_c, 3, 9102
1, 39495, Note_off_c, 9, 40, 0
1, 39506, Pitch_bend_c, 3, 9492
1, 39508, Note_off_c, 9, 35, 0
1, 39516, Pitch_bend_c, 3, 9622
1, 39531, Pitch_bend_c, 3, 9882
1, 39579, Note_off_c, 1, 34, 0
1, 39579, Note_off_c, 10, 46, 0
1, 39583, Pitch_bend_c, 3, 10012
1, 39600, Note_on_c, 1, 34, 118
1, 39600, Note_on_c, 8, 46, 116
1, 39600, Note_on_c, 9, 44, 95
1, 39600, Note_on_c, 10, 46, 110
1, 39602, Pitch_bend_c, 3, 10272
1, 39611, Note_on_c, 8, 53, 93
1, 39612, Pitch_bend_c, 3, 8192
1, 39613, Pitch_bend_c, 3, 10532
1, 39628, Note_off_c, 9, 44, 0
1, 39628, Pitch_bend_c, 3, 10662
1, 39645, Note_off_c, 8, 46, 0
1, 39649, Pitch_bend_c, 3, 10922
1, 39654, Note_off_c, 8, 53, 0
1, 39662, Pitch_bend_c, 3, 11052
1, 39681, Pitch_bend_c, 3, 11572
1, 39699, Pitch_bend_c, 3, 11962
1, 39709, Pitch_bend_c, 3, 12092
1, 39735, Note_off_c, 3, 78, 0
1, 39773, Pitch_bend_c, 3, 11702
1, 39783, Pitch_bend_c, 3, 11182
1, 39793, Pitch_bend_c, 3, 10272
1, 39805, Pitch_bend_c, 3, 9362
1, 39815, Pitch_bend_c, 3, 8452
1, 39819, Note_off_c, 1, 34, 0
1, 39819, Note_off_c, 7, 34, 0
1, 39819, Note_off_c, 7, 46, 0
1, 39819, Note_off_c, 7, 58, 0
1, 39819, Note_off_c, 7, 62, 0
1, 39819, Note_off_c, 7, 65, 0
1, 39819, Note_off_c, 10, 46, 0
1, 39839, Lyric_t, "ME "
1, 39839, Note_on_c, 3, 78, 123
1, 39840, Note_on_c, 1, 34, 113
1, 39840, Note_on_c, 7, 34, 114
1, 39840, Note_on_c, 7, 46, 114
1, 39840, Note_on_c, 7, 58, 114
1, 39840, Note_on_c, 7, 62, 114
1, 39840, Note_on_c, 7, 65, 114
1, 39840, Note_on_c, 8, 46, 121
1, 39840, Note_on_c, 9, 35, 95
1, 39840, Note_on_c, 9, 40, 98
1, 39840, Note_on_c, 9, 43, 106
1, 39840, Note_on_c, 10, 46, 105
1, 39851, Note_on_c, 8, 53, 101
1, 39885, Note_off_c, 8, 46, 0
1, 39890, Note_off_c, 8, 53, 0
1, 39914, Pitch_bend_c, 3, 8712
1, 39931, Pitch_bend_c, 3, 9102
1, 39946, Pitch_bend_c, 3, 9232
1, 39956, Pitch_bend_c, 3, 9492
1, 39966, Pitch_bend_c, 3, 9752
1, 39980, Pitch_bend_c, 3, 9882
1, 39988, Note_off_c, 9, 35, 0
1, 39995, Note_off_c, 9, 43, 0
1, 40012, Note_off_c, 9, 40, 0
1, 40035, Pitch_bend_c, 3, 10142
1, 40050, Pitch_bend_c, 3, 10272
1, 40059, Note_off_c, 1, 34, 0
1, 40059, Note_off_c, 10, 46, 0
1, 40062, Pitch_bend_c, 3, 10532
1, 40080, Note_on_c, 1, 34, 118
1, 40080, Note_on_c, 8, 46, 121
1, 40080, Note_on_c, 9, 46, 95
1, 40080, Note_on_c, 10, 46, 110
1, 40080, Pitch_bend_c, 3, 10922
1, 40091, Note_on_c, 8, 53, 93
1, 40097, Pitch_bend_c, 3, 11312
1, 40108, Note_off_c, 9, 46, 0
1, 40109, Pitch_bend_c, 3, 11572
1, 40126, Note_off_c, 8, 46, 0
1, 40129, Note_off_c, 8, 53, 0
1, 40242, Note_off_c, 3, 78, 0
1, 40261, Pitch_bend_c, 3, 10922
1, 40272, Pitch_bend_c, 3, 9882
1, 40283, Pitch_bend_c, 3, 8582
1, 40299, Note_off_c, 1, 34, 0
1, 40299, Note_off_c, 10, 46, 0
1, 40314, Note_off_c, 7, 34, 0
1, 40314, Note_off_c, 7, 46, 0
1, 40314, Note_off_c, 7, 58, 0
1, 40314, Note_off_c, 7, 62, 0
1, 40314, Note_off_c, 7, 65, 0
1, 40320, Note_on_c, 1, 31, 113
1, 40320, Note_on_c, 7, 31, 114
1, 40320, Note_on_c, 7, 43, 114
1, 40320, Note_on_c, 7, 55, 114
1, 40320, Note_on_c, 7, 58, 114
1, 40320, Note_on_c, 7, 62, 114
1, 40320, Note_on_c, 8, 43, 104
1, 40320, Note_on_c, 9, 35, 95
1, 40320, Note_on_c, 9, 40, 98
1, 40320, Note_on_c, 9, 43, 106
1, 40320, Note_on_c, 10, 43, 105
1, 40330, Lyric_t, "OF U"
1, 40330, Note_on_c, 3, 78, 127
1, 40331, Note_on_c, 8, 50, 106
1, 40343, Pitch_bend_c, 3, 8842
1, 40353, Pitch_bend_c, 3, 10272
1, 40362, Note_off_c, 8, 43, 0
1, 40363, Pitch_bend_c, 3, 11962
1, 40373, Pitch_bend_c, 3, 13522
1, 40378, Note_off_c, 8, 50, 0
1, 40383, Pitch_bend_c, 3, 14562
1, 40404, Pitch_bend_c, 3, 14302
1, 40414, Pitch_bend_c, 3, 11962
1, 40424, Pitch_bend_c, 3, 8192
1, 40435, Note_off_c, 9, 43, 0
1, 40450, Note_off_c, 9, 40, 0
1, 40468, Note_off_c, 9, 35, 0
1, 40478, Note_off_c, 3, 78, 0
1, 40496, Note_on_c, 3, 75, 111
1, 40539, Note_off_c, 1, 31, 0
1, 40539, Note_off_c, 10, 43, 0
1, 40560, Note_on_c, 1, 31, 113
1, 40560, Note_on_c, 8, 43, 121
1, 40560, Note_on_c, 9, 44, 95
1, 40560, Note_on_c, 10, 43, 105
1, 40571, Note_on_c, 8, 50, 106
1, 40588, Note_off_c, 9, 44, 0
1, 40598, Note_on_c, 3, 72, 102
1, 40603, Note_off_c, 3, 75, 0
1, 40605, Note_off_c, 8, 43, 0
1, 40610, Note_off_c, 8, 50, 0
1, 40758, Note_off_c, 3, 72, 0
1, 40779, Note_off_c, 1, 31, 0
1, 40779, Note_off_c, 10, 43, 0
1, 40800, Note_on_c, 1, 31, 118
1, 40800, Note_on_c, 8, 43, 89
1, 40800, Note_on_c, 9, 35, 95
1, 40800, Note_on_c, 9, 40, 95
1, 40800, Note_on_c, 9, 43, 106
1, 40800, Note_on_c, 10, 43, 110
1, 40811, Note_on_c, 8, 50, 93
1, 40833, Note_off_c, 8, 43, 0
1, 40845, Lyric_t, "S"
1, 40845, Lyric_t, "\015"
1, 40845, Note_off_c, 8, 50, 0
1, 40845, Note_on_c, 3, 75, 120
1, 40941, Note_off_c, 9, 43, 0
1, 40948, Note_off_c, 9, 35, 0
1, 40948, Note_off_c, 9, 40, 0
1, 40992, Note_off_c, 3, 75, 0
1, 41019, Note_off_c, 1, 31, 0
1, 41019, Note_off_c, 10, 43, 0
1, 41040, Note_on_c, 1, 31, 113
1, 41040, Note_on_c, 8, 43, 108
1, 41040, Note_on_c, 9, 44, 95
1, 41040, Note_on_c, 10, 43, 105
1, 41051, Note_on_c, 8, 50, 93
1, 41053, Lyric_t, "THEY "
1, 41053, Note_on_c, 3, 75, 127
1, 41068, Note_off_c, 9, 44, 0
1, 41080, Note_off_c, 8, 43, 0
1, 41092, Note_off_c, 8, 50, 0
1, 41163, Note_off_c, 3, 75, 0
1, 41259, Note_off_c, 1, 31, 0
1, 41259, Note_off_c, 10, 43, 0
1, 41280, Note_on_c, 1, 31, 113
1, 41280, Note_on_c, 8, 43, 93
1, 41280, Note_on_c, 9, 35, 95
1, 41280, Note_on_c, 9, 40, 98
1, 41280, Note_on_c, 9, 43, 102
1, 41280, Note_on_c, 10, 43, 105
1, 41291, Lyric_t, "KEEP "
1, 41291, Note_on_c, 3, 78, 123
1, 41291, Note_on_c, 8, 50, 81
1, 41318, Note_off_c, 8, 43, 0
1, 41329, Note_off_c, 8, 50, 0
1, 41355, Pitch_bend_c, 3, 8322
1, 41383, Pitch_bend_c, 3, 8582
1, 41393, Note_off_c, 9, 43, 0
1, 41400, Pitch_bend_c, 3, 8972
1, 41415, Note_off_c, 9, 40, 0
1, 41415, Pitch_bend_c, 3, 9362
1, 41428, Note_off_c, 9, 35, 0
1, 41430, Pitch_bend_c, 3, 9882
1, 41449, Pitch_bend_c, 3, 10272
1, 41459, Pitch_bend_c, 3, 10402
1, 41499, Note_off_c, 1, 31, 0
1, 41499, Note_off_c, 10, 43, 0
1, 41501, Pitch_bend_c, 3, 10662
1, 41520, Note_on_c, 1, 31, 118
1, 41520, Note_on_c, 8, 43, 116
1, 41520, Note_on_c, 9, 44, 95
1, 41520, Note_on_c, 10, 43, 110
1, 41531, Note_on_c, 8, 50, 93
1, 41531, Pitch_bend_c, 3, 11052
1, 41548, Note_off_c, 9, 44, 0
1, 41550, Pitch_bend_c, 3, 11442
1, 41565, Note_off_c, 8, 43, 0
1, 41565, Pitch_bend_c, 3, 11962
1, 41574, Note_off_c, 8, 50, 0
1, 41577, Pitch_bend_c, 3, 12352
1, 41588, Pitch_bend_c, 3, 12742
1, 41604, Pitch_bend_c, 3, 13392
1, 41616, Pitch_bend_c, 3, 13782
1, 41656, Note_off_c, 3, 78, 0
1, 41678, Pitch_bend_c, 3, 13652
1, 41692, Pitch_bend_c, 3, 12872
1, 41703, Pitch_bend_c, 3, 11962
1, 41715, Pitch_bend_c, 3, 11052
1, 41725, Pitch_bend_c, 3, 10012
1, 41739, Note_off_c, 1, 31, 0
1, 41739, Note_off_c, 10, 43, 0
1, 41739, Pitch_bend_c, 3, 8582
1, 41760, Note_on_c, 1, 31, 113
1, 41760, Note_on_c, 8, 43, 121
1, 41760, Note_on_c, 9, 35, 95
1, 41760, Note_on_c, 9, 40, 98
1, 41760, Note_on_c, 9, 43, 106
1, 41760, Note_on_c, 10, 43, 105
1, 41767, Lyric_t, "ME "
1, 41767, Note_on_c, 3, 78, 127
1, 41771, Note_on_c, 8, 50, 101
1, 41805, Note_off_c, 8, 43, 0
1, 41810, Note_off_c, 8, 50, 0
1, 41876, Pitch_bend_c, 3, 8712
1, 41890, Pitch_bend_c, 3, 9102
1, 41903, Pitch_bend_c, 3, 9622
1, 41908, Note_off_c, 9, 35, 0
1, 41915, Note_off_c, 9, 43, 0
1, 41917, Pitch_bend_c, 3, 10012
1, 41927, Pitch_bend_c, 3, 10142
1, 41932, Note_off_c, 9, 40, 0
1, 41942, Pitch_bend_c, 3, 10402
1, 41979, Note_off_c, 1, 31, 0
1, 41979, Note_off_c, 10, 43, 0
1, 42000, Note_on_c, 1, 31, 118
1, 42000, Note_on_c, 8, 43, 121
1, 42000, Note_on_c, 9, 44, 95
1, 42000, Note_on_c, 10, 43, 110
1, 42007, Pitch_bend_c, 3, 10662
1, 42011, Note_on_c, 8, 50, 93
1, 42019, Pitch_bend_c, 3, 10792
1, 42028, Note_off_c, 9, 44, 0
1, 42029, Pitch_bend_c, 3, 11052
1, 42039, Pitch_bend_c, 3, 11182
1, 42046, Note_off_c, 8, 43, 0
1, 42049, Note_off_c, 8, 50, 0
1, 42051, Pitch_bend_c, 3, 11442
1, 42068, Pitch_bend_c, 3, 11702
1, 42088, Pitch_bend_c, 3, 11832
1, 42110, Pitch_bend_c, 3, 12092
1, 42120, Note_on_c, 9, 44, 95
1, 42138, Pitch_bend_c, 3, 12222
1, 42148, Note_off_c, 9, 44, 0
1, 42153, Note_off_c, 3, 78, 0
1, 42160, Pitch_bend_c, 3, 12482
1, 42175, Pitch_bend_c, 3, 12742
1, 42185, Pitch_bend_c, 3, 12872
1, 42199, Pitch_bend_c, 3, 13132
1, 42219, Note_off_c, 1, 31, 0
1, 42219, Note_off_c, 7, 31, 0
1, 42219, Note_off_c, 7, 43, 0
1, 42219, Note_off_c, 7, 55, 0
1, 42219, Note_off_c, 7, 58, 0
1, 42219, Note_off_c, 7, 62, 0
1, 42219, Note_off_c, 10, 43, 0
1, 42240, Lyric_t, "THIN"
1, 42240, Note_on_c, 1, 32, 113
1, 42240, Note_on_c, 3, 77, 123
1, 42240, Note_on_c, 7, 32, 114
1, 42240, Note_on_c, 7, 44, 114
1, 42240, Note_on_c, 7, 56, 114
1, 42240, Note_on_c, 7, 60, 114
1, 42240, Note_on_c, 7, 63, 114
1, 42240, Note_on_c, 8, 44, 104
1, 42240, Note_on_c, 9, 35, 95
1, 42240, Note_on_c, 9, 40, 98
1, 42240, Note_on_c, 9, 43, 106
1, 42240, Note_on_c, 10, 44, 105
1, 42241, Pitch_bend_c, 3, 12612
1, 42251, Note_on_c, 8, 51, 106
1, 42253, Pitch_bend_c, 3, 10402
1, 42263, Pitch_bend_c, 3, 8322
1, 42282, Note_off_c, 8, 44, 0
1, 42298, Note_off_c, 8, 51, 0
1, 42355, Note_off_c, 3, 77, 0
1, 42355, Note_off_c, 9, 43, 0
1, 42370, Note_off_c, 9, 40, 0
1, 42388, Note_off_c, 9, 35, 0
1, 42459, Note_off_c, 1, 32, 0
1, 42459, Note_off_c, 10, 44, 0
1, 42480, Lyric_t, "KING"
1, 42480, Lyric_t, "\015"
1, 42480, Note_on_c, 1, 32, 113
1, 42480, Note_on_c, 3, 75, 111
1, 42480, Note_on_c, 8, 44, 121
1, 42480, Note_on_c, 9, 44, 95
1, 42480, Note_on_c, 10, 44, 105
1, 42491, Note_on_c, 8, 51, 106
1, 42508, Note_off_c, 9, 44, 0
1, 42525, Note_off_c, 8, 44, 0
1, 42530, Note_off_c, 8, 51, 0
1, 42608, Note_off_c, 3, 75, 0
1, 42699, Note_off_c, 1, 32, 0
1, 42699, Note_off_c, 10, 44, 0
1, 42720, Note_on_c, 1, 32, 118
1, 42720, Note_on_c, 8, 44, 89
1, 42720, Note_on_c, 9, 35, 95
1, 42720, Note_on_c, 9, 40, 95
1, 42720, Note_on_c, 9, 43, 106
1, 42720, Note_on_c, 10, 44, 110
1, 42721, Lyric_t, "THAT "
1, 42721, Note_on_c, 3, 75, 127
1, 42731, Note_on_c, 8, 51, 93
1, 42753, Note_off_c, 8, 44, 0
1, 42765, Note_off_c, 8, 51, 0
1, 42809, Note_off_c, 3, 75, 0
1, 42861, Note_off_c, 9, 43, 0
1, 42868, Note_off_c, 9, 35, 0
1, 42868, Note_off_c, 9, 40, 0
1, 42939, Note_off_c, 1, 32, 0
1, 42939, Note_off_c, 10, 44, 0
1, 42959, Lyric_t, "WE "
1, 42959, Note_on_c, 3, 75, 127
1, 42960, Note_on_c, 1, 32, 113
1, 42960, Note_on_c, 8, 44, 108
1, 42960, Note_on_c, 9, 44, 95
1, 42960, Note_on_c, 10, 44, 105
1, 42971, Note_on_c, 8, 51, 93
1, 42988, Note_off_c, 9, 44, 0
1, 43000, Note_off_c, 8, 44, 0
1, 43012, Note_off_c, 8, 51, 0
1, 43046, Note_off_c, 3, 75, 0
1, 43179, Note_off_c, 1, 32, 0
1, 43179, Note_off_c, 10, 44, 0
1, 43188, Lyric_t, "AL"
1, 43188, Note_on_c, 3, 77, 127
1, 43200, Note_on_c, 1, 32, 113
1, 43200, Note_on_c, 8, 44, 93
1, 43200, Note_on_c, 9, 35, 95
1, 43200, Note_on_c, 9, 40, 98
1, 43200, Note_on_c, 9, 43, 102
1, 43200, Note_on_c, 10, 44, 105
1, 43211, Note_on_c, 8, 51, 81
1, 43238, Note_off_c, 8, 44, 0
1, 43249, Note_off_c, 8, 51, 0
1, 43313, Note_off_c, 9, 43, 0
1, 43335, Note_off_c, 9, 40, 0
1, 43348, Note_off_c, 9, 35, 0
1, 43388, Note_off_c, 3, 77, 0
1, 43419, Note_off_c, 1, 32, 0
1, 43419, Note_off_c, 10, 44, 0
1, 43435, Lyric_t, "MOST "
1, 43435, Note_on_c, 3, 75, 123
1, 43440, Note_on_c, 1, 32, 118
1, 43440, Note_on_c, 8, 44, 116
1, 43440, Note_on_c, 9, 44, 95
1, 43440, Note_on_c, 10, 44, 110
1, 43451, Note_on_c, 8, 51, 93
1, 43468, Note_off_c, 9, 44, 0
1, 43485, Note_off_c, 8, 44, 0
1, 43494, Note_off_c, 8, 51, 0
1, 43521, Note_off_c, 3, 75, 0
1, 43659, Note_off_c, 1, 32, 0
1, 43659, Note_off_c, 10, 44, 0
1, 43680, Lyric_t, "HAD "
1, 43680, Note_on_c, 1, 32, 113
1, 43680, Note_on_c, 3, 79, 127
1, 43680, Note_on_c, 8, 44, 121
1, 43680, Note_on_c, 9, 35, 95
1, 43680, Note_on_c, 9, 40, 98
1, 43680, Note_on_c, 9, 43, 106
1, 43680, Note_on_c, 10, 44, 105
1, 43691, Note_on_c, 8, 51, 101
1, 43725, Note_off_c, 8, 44, 0
1, 43730, Note_off_c, 8, 51, 0
1, 43828, Note_off_c, 9, 35, 0
1, 43835, Note_off_c, 9, 43, 0
1, 43852, Note_off_c, 9, 40, 0
1, 43880, Note_off_c, 3, 79, 0
1, 43899, Note_off_c, 1, 32, 0
1, 43899, Note_off_c, 10, 44, 0
1, 43914, Note_off_c, 7, 32, 0
1, 43914, Note_off_c, 7, 44, 0
1, 43914, Note_off_c, 7, 56, 0
1, 43914, Note_off_c, 7, 60, 0
1, 43914, Note_off_c, 7, 63, 0
1, 43920, Lyric_t, "IT "
1, 43920, Note_on_c, 1, 32, 118
1, 43920, Note_on_c, 3, 75, 127
1, 43920, Note_on_c, 7, 58, 114
1, 43920, Note_on_c, 7, 61, 114
1, 43920, Note_on_c, 7, 65, 114
1, 43920, Note_on_c, 8, 44, 121
1, 43920, Note_on_c, 9, 46, 95
1, 43920, Note_on_c, 10, 44, 110
1, 43931, Note_on_c, 8, 51, 93
1, 43948, Note_off_c, 9, 46, 0
1, 43966, Note_off_c, 8, 44, 0
1, 43969, Note_off_c, 8, 51, 0
1, 44120, Note_off_c, 3, 75, 0
1, 44139, Note_off_c, 1, 32, 0
1, 44139, Note_off_c, 7, 58, 0
1, 44139, Note_off_c, 7, 61, 0
1, 44139, Note_off_c, 7, 65, 0
1, 44139, Note_off_c, 10, 44, 0
1, 44160, Lyric_t, "ALL"
1, 44160, Lyric_t, "\015"
1, 44160, Note_on_c, 1, 32, 113
1, 44160, Note_on_c, 3, 75, 127
1, 44160, Note_on_c, 7, 32, 114
1, 44160, Note_on_c, 7, 44, 114
1, 44160, Note_on_c, 7, 56, 114
1, 44160, Note_on_c, 7, 60, 114
1, 44160, Note_on_c, 7, 63, 114
1, 44160, Note_on_c, 8, 44, 104
1, 44160, Note_on_c, 9, 35, 95
1, 44160, Note_on_c, 9, 40, 98
1, 44160, Note_on_c, 9, 43, 106
1, 44160, Note_on_c, 10, 44, 105
1, 44171, Note_on_c, 8, 51, 106
1, 44202, Note_off_c, 8, 44, 0
1, 44218, Note_off_c, 8, 51, 0
1, 44275, Note_off_c, 9, 43, 0
1, 44290, Note_off_c, 9, 40, 0
1, 44308, Note_off_c, 9, 35, 0
1, 44379, Note_off_c, 1, 32, 0
1, 44379, Note_off_c, 10, 44, 0
1, 44400, Note_on_c, 1, 32, 113
1, 44400, Note_on_c, 8, 44, 121
1, 44400, Note_on_c, 9, 44, 95
1, 44400, Note_on_c, 10, 44, 105
1, 44411, Note_on_c, 8, 51, 106
1, 44428, Note_off_c, 9, 44, 0
1, 44445, Note_off_c, 8, 44, 0
1, 44450, Note_off_c, 8, 51, 0
1, 44600, Note_off_c, 3, 75, 0
1, 44619, Note_off_c, 1, 32, 0
1, 44619, Note_off_c, 10, 44, 0
1, 44640, Note_on_c, 1, 32, 118
1, 44640, Note_on_c, 8, 44, 89
1, 44640, Note_on_c, 9, 35, 95
1, 44640, Note_on_c, 9, 40, 95
1, 44640, Note_on_c, 9, 43, 106
1, 44640, Note_on_c, 10, 44, 110
1, 44651, Note_on_c, 8, 51, 93
1, 44673, Note_off_c, 8, 44, 0
1, 44685, Note_off_c, 8, 51, 0
1, 44781, Note_off_c, 9, 43, 0
1, 44788, Note_off_c, 9, 35, 0
1, 44788, Note_off_c, 9, 40, 0
1, 44859, Note_off_c, 1, 32, 0
1, 44859, Note_off_c, 10, 44, 0
1, 44880, Lyric_t, "THE "
1, 44880, Note_on_c, 1, 32, 113
1, 44880, Note_on_c, 3, 75, 123
1, 44880, Note_on_c, 8, 44, 108
1, 44880, Note_on_c, 9, 44, 95
1, 44880, Note_on_c, 10, 44, 105
1, 44891, Note_on_c, 8, 51, 93
1, 44908, Note_off_c, 9, 44, 0
1, 44920, Note_off_c, 8, 44, 0
1, 44932, Note_off_c, 8, 51, 0
1, 44990, Note_off_c, 3, 75, 0
1, 45099, Note_off_c, 1, 32, 0
1, 45099, Note_off_c, 7, 32, 0
1, 45099, Note_off_c, 7, 44, 0
1, 45099, Note_off_c, 7, 56, 0
1, 45099, Note_off_c, 7, 60, 0
1, 45099, Note_off_c, 7, 63, 0
1, 45099, Note_off_c, 10, 44, 0
1, 45120, Note_on_c, 1, 32, 113
1, 45120, Note_on_c, 7, 32, 114
1, 45120, Note_on_c, 7, 44, 114
1, 45120, Note_on_c, 7, 56, 114
1, 45120, Note_on_c, 7, 60, 114
1, 45120, Note_on_c, 7, 63, 114
1, 45120, Note_on_c, 8, 44, 93
1, 45120, Note_on_c, 9, 35, 95
1, 45120, Note_on_c, 9, 40, 98
1, 45120, Note_on_c, 9, 43, 102
1, 45120, Note_on_c, 10, 44, 105
1, 45131, Note_on_c, 8, 51, 81
1, 45140, Lyric_t, "SCARS "
1, 45140, Note_on_c, 3, 78, 127
1, 45158, Note_off_c, 8, 44, 0
1, 45169, Note_off_c, 8, 51, 0
1, 45229, Pitch_bend_c, 3, 8712
1, 45233, Note_off_c, 9, 43, 0
1, 45243, Pitch_bend_c, 3, 9102
1, 45255, Note_off_c, 9, 40, 0
1, 45261, Pitch_bend_c, 3, 9492
1, 45268, Note_off_c, 9, 35, 0
1, 45273, Pitch_bend_c, 3, 9752
1, 45283, Pitch_bend_c, 3, 9882
1, 45303, Pitch_bend_c, 3, 10142
1, 45339, Note_off_c, 1, 32, 0
1, 45339, Note_off_c, 10, 44, 0
1, 45360, Note_on_c, 1, 32, 118
1, 45360, Note_on_c, 8, 44, 116
1, 45360, Note_on_c, 9, 44, 95
1, 45360, Note_on_c, 10, 44, 110
1, 45371, Note_on_c, 8, 51, 93
1, 45372, Pitch_bend_c, 3, 10532
1, 45385, Pitch_bend_c, 3, 10922
1, 45388, Note_off_c, 9, 44, 0
1, 45401, Pitch_bend_c, 3, 11572
1, 45405, Note_off_c, 8, 44, 0
1, 45413, Pitch_bend_c, 3, 11962
1, 45414, Note_off_c, 8, 51, 0
1, 45426, Pitch_bend_c, 3, 12482
1, 45438, Pitch_bend_c, 3, 12612
1, 45472, Pitch_bend_c, 3, 12872
1, 45499, Note_off_c, 3, 78, 0
1, 45522, Pitch_bend_c, 3, 12612
1, 45537, Pitch_bend_c, 3, 11962
1, 45547, Pitch_bend_c, 3, 11442
1, 45559, Pitch_bend_c, 3, 10662
1, 45569, Pitch_bend_c, 3, 9752
1, 45579, Note_off_c, 1, 32, 0
1, 45579, Note_off_c, 10, 44, 0
1, 45583, Pitch_bend_c, 3, 8452
1, 45596, Lyric_t, "OF YOUR "
1, 45596, Note_on_c, 3, 78, 127
1, 45600, Note_on_c, 1, 32, 113
1, 45600, Note_on_c, 8, 44, 121
1, 45600, Note_on_c, 9, 35, 95
1, 45600, Note_on_c, 9, 40, 98
1, 45600, Note_on_c, 9, 43, 106
1, 45600, Note_on_c, 10, 44, 105
1, 45611, Note_on_c, 8, 51, 101
1, 45645, Note_off_c, 8, 44, 0
1, 45650, Note_off_c, 8, 51, 0
1, 45699, Note_off_c, 7, 32, 0
1, 45699, Note_off_c, 7, 44, 0
1, 45699, Note_off_c, 7, 56, 0
1, 45699, Note_off_c, 7, 60, 0
1, 45699, Note_off_c, 7, 63, 0
1, 45719, Pitch_bend_c, 3, 8972
1, 45732, Pitch_bend_c, 3, 9362
1, 45747, Pitch_bend_c, 3, 9752
1, 45748, Note_off_c, 9, 35, 0
1, 45755, Note_off_c, 9, 43, 0
1, 45762, Pitch_bend_c, 3, 10012
1, 45772, Note_off_c, 9, 40, 0
1, 45819, Note_off_c, 1, 32, 0
1, 45819, Note_off_c, 10, 44, 0
1, 45840, Note_on_c, 1, 32, 118
1, 45840, Note_on_c, 7, 56, 105
1, 45840, Note_on_c, 7, 60, 127
1, 45840, Note_on_c, 7, 63, 123
1, 45840, Note_on_c, 8, 44, 121
1, 45840, Note_on_c, 9, 44, 95
1, 45840, Note_on_c, 10, 44, 110
1, 45851, Note_on_c, 8, 51, 93
1, 45868, Note_off_c, 9, 44, 0
1, 45870, Pitch_bend_c, 3, 10142
1, 45886, Note_off_c, 8, 44, 0
1, 45889, Note_off_c, 8, 51, 0
1, 45907, Pitch_bend_c, 3, 10402
1, 45944, Pitch_bend_c, 3, 10532
1, 45960, Note_on_c, 7, 44, 127
1, 45960, Note_on_c, 9, 44, 95
1, 45961, Pitch_bend_c, 3, 10792
1, 45971, Pitch_bend_c, 3, 10922
1, 45988, Note_off_c, 9, 44, 0
1, 45991, Pitch_bend_c, 3, 11442
1, 46000, Note_off_c, 7, 60, 0
1, 46001, Pitch_bend_c, 3, 11572
1, 46008, Note_off_c, 7, 63, 0
1, 46009, Note_off_c, 3, 78, 0
1, 46014, Note_off_c, 7, 56, 0
1, 46019, Pitch_bend_c, 3, 11962
1, 46036, Pitch_bend_c, 3, 12482
1, 46053, Pitch_bend_c, 3, 12872
1, 46059, Note_off_c, 1, 32, 0
1, 46059, Note_off_c, 10, 44, 0
1, 46065, Note_off_c, 7, 44, 0
1, 46080, Note_on_c, 1, 34, 113
1, 46080, Note_on_c, 7, 34, 114
1, 46080, Note_on_c, 7, 46, 114
1, 46080, Note_on_c, 7, 58, 114
1, 46080, Note_on_c, 7, 62, 114
1, 46080, Note_on_c, 7, 65, 114
1, 46080, Note_on_c, 8, 46, 104
1, 46080, Note_on_c, 9, 35, 95
1, 46080, Note_on_c, 9, 40, 98
1, 46080, Note_on_c, 9, 43, 106
1, 46080, Note_on_c, 10, 46, 105
1, 46091, Lyric_t, "LO"
1, 46091, Note_on_c, 3, 78, 127
1, 46091, Note_on_c, 8, 53, 106
1, 46103, Pitch_bend_c, 3, 12092
1, 46115, Pitch_bend_c, 3, 10272
1, 46122, Note_off_c, 8, 46, 0
1, 46125, Pitch_bend_c, 3, 8452
1, 46138, Note_off_c, 8, 53, 0
1, 46195, Note_off_c, 9, 43, 0
1, 46210, Note_off_c, 9, 40, 0
1, 46222, Note_off_c, 3, 78, 0
1, 46228, Note_off_c, 9, 35, 0
1, 46236, Note_on_c, 3, 75, 116
1, 46299, Note_off_c, 1, 34, 0
1, 46299, Note_off_c, 10, 46, 0
1, 46320, Note_on_c, 1, 34, 113
1, 46320, Note_on_c, 8, 46, 121
1, 46320, Note_on_c, 9, 44, 95
1, 46320, Note_on_c, 10, 46, 105
1, 46325, Note_off_c, 3, 75, 0
1, 46331, Note_on_c, 8, 53, 106
1, 46348, Note_off_c, 9, 44, 0
1, 46356, Note_on_c, 3, 72, 115
1, 46365, Note_off_c, 8, 46, 0
1, 46370, Note_off_c, 8, 53, 0
1, 46489, Note_off_c, 3, 72, 0
1, 46539, Note_off_c, 1, 34, 0
1, 46539, Note_off_c, 10, 46, 0
1, 46560, Note_on_c, 1, 34, 118
1, 46560, Note_on_c, 8, 46, 89
1, 46560, Note_on_c, 9, 35, 95
1, 46560, Note_on_c, 9, 40, 95
1, 46560, Note_on_c, 9, 43, 106
1, 46560, Note_on_c, 10, 46, 110
1, 46571, Note_on_c, 8, 53, 93
1, 46593, Note_off_c, 8, 46, 0
1, 46596, Lyric_t, "VE"
1, 46596, Lyric_t, "\015"
1, 46596, Note_on_c, 3, 75, 120
1, 46605, Note_off_c, 8, 53, 0
1, 46701, Note_off_c, 9, 43, 0
1, 46708, Note_off_c, 9, 35, 0
1, 46708, Note_off_c, 9, 40, 0
1, 46746, Note_off_c, 3, 75, 0
1, 46779, Note_off_c, 1, 34, 0
1, 46779, Note_off_c, 10, 46, 0
1, 46800, Note_on_c, 1, 34, 113
1, 46800, Note_on_c, 8, 46, 108
1, 46800, Note_on_c, 9, 44, 95
1, 46800, Note_on_c, 10, 46, 105
1, 46811, Note_on_c, 8, 53, 93
1, 46822, Lyric_t, "THEY "
1, 46822, Note_on_c, 3, 75, 127
1, 46828, Note_off_c, 9, 44, 0
1, 46840, Note_off_c, 8, 46, 0
1, 46852, Note_off_c, 8, 53, 0
1, 46942, Note_off_c, 3, 75, 0
1, 47019, Note_off_c, 1, 34, 0
1, 47019, Note_off_c, 10, 46, 0
1, 47028, Note_off_c, 7, 58, 0
1, 47034, Note_off_c, 7, 62, 0
1, 47040, Note_on_c, 1, 34, 113
1, 47040, Note_on_c, 7, 58, 97
1, 47040, Note_on_c, 8, 46, 93
1, 47040, Note_on_c, 9, 35, 95
1, 47040, Note_on_c, 9, 40, 98
1, 47040, Note_on_c, 9, 43, 102
1, 47040, Note_on_c, 10, 46, 105
1, 47051, Note_on_c, 8, 53, 81
1, 47067, Lyric_t, "LEAVE "
1, 47067, Note_on_c, 3, 78, 127
1, 47078, Note_off_c, 8, 46, 0
1, 47089, Note_off_c, 8, 53, 0
1, 47153, Note_off_c, 9, 43, 0
1, 47157, Pitch_bend_c, 3, 8582
1, 47171, Pitch_bend_c, 3, 9102
1, 47175, Note_off_c, 9, 40, 0
1, 47186, Pitch_bend_c, 3, 9492
1, 47188, Note_off_c, 9, 35, 0
1, 47196, Pitch_bend_c, 3, 9622
1, 47211, Pitch_bend_c, 3, 9882
1, 47259, Note_off_c, 1, 34, 0
1, 47259, Note_off_c, 10, 46, 0
1, 47263, Pitch_bend_c, 3, 10012
1, 47280, Note_on_c, 1, 34, 118
1, 47280, Note_on_c, 7, 62, 90
1, 47280, Note_on_c, 8, 46, 116
1, 47280, Note_on_c, 9, 44, 95
1, 47280, Note_on_c, 10, 46, 110
1, 47282, Pitch_bend_c, 3, 10272
1, 47291, Note_on_c, 8, 53, 93
1, 47292, Pitch_bend_c, 3, 8192
1, 47293, Pitch_bend_c, 3, 10532
1, 47308, Note_off_c, 9, 44, 0
1, 47308, Pitch_bend_c, 3, 10662
1, 47325, Note_off_c, 8, 46, 0
1, 47329, Pitch_bend_c, 3, 10922
1, 47334, Note_off_c, 8, 53, 0
1, 47342, Pitch_bend_c, 3, 11052
1, 47361, Pitch_bend_c, 3, 11572
1, 47379, Pitch_bend_c, 3, 11962
1, 47389, Pitch_bend_c, 3, 12092
1, 47394, Note_off_c, 7, 65, 0
1, 47415, Note_off_c, 3, 78, 0
1, 47453, Pitch_bend_c, 3, 11702
1, 47463, Pitch_bend_c, 3, 11182
1, 47473, Pitch_bend_c, 3, 10272
1, 47485, Pitch_bend_c, 3, 9362
1, 47495, Pitch_bend_c, 3, 8452
1, 47499, Note_off_c, 1, 34, 0
1, 47499, Note_off_c, 10, 46, 0
1, 47519, Lyric_t, "ME "
1, 47519, Note_on_c, 3, 78, 123
1, 47520, Note_on_c, 1, 34, 113
1, 47520, Note_on_c, 7, 65, 102
1, 47520, Note_on_c, 8, 46, 121
1, 47520, Note_on_c, 9, 35, 95
1, 47520, Note_on_c, 9, 40, 98
1, 47520, Note_on_c, 9, 43, 106
1, 47520, Note_on_c, 10, 46, 105
1, 47531, Note_on_c, 8, 53, 101
1, 47565, Note_off_c, 8, 46, 0
1, 47570, Note_off_c, 8, 53, 0
1, 47594, Pitch_bend_c, 3, 8712
1, 47611, Pitch_bend_c, 3, 9102
1, 47626, Pitch_bend_c, 3, 9232
1, 47636, Pitch_bend_c, 3, 9492
1, 47646, Pitch_bend_c, 3, 9752
1, 47660, Pitch_bend_c, 3, 9882
1, 47668, Note_off_c, 9, 35, 0
1, 47675, Note_off_c, 9, 43, 0
1, 47692, Note_off_c, 9, 40, 0
1, 47715, Pitch_bend_c, 3, 10142
1, 47730, Pitch_bend_c, 3, 10272
1, 47739, Note_off_c, 1, 34, 0
1, 47739, Note_off_c, 7, 34, 0
1, 47739, Note_off_c, 7, 46, 0
1, 47739, Note_off_c, 10, 46, 0
1, 47742, Pitch_bend_c, 3, 10532
1, 47760, Note_on_c, 1, 34, 118
1, 47760, Note_on_c, 7, 70, 127
1, 47760, Note_on_c, 8, 46, 121
1, 47760, Note_on_c, 9, 46, 95
1, 47760, Note_on_c, 10, 46, 110
1, 47760, Pitch_bend_c, 3, 10922
1, 47771, Note_on_c, 8, 53, 93
1, 47777, Pitch_bend_c, 3, 11312
1, 47788, Note_off_c, 9, 46, 0
1, 47789, Pitch_bend_c, 3, 11572
1, 47806, Note_off_c, 8, 46, 0
1, 47809, Note_off_c, 8, 53, 0
1, 47922, Note_off_c, 3, 78, 0
1, 47941, Pitch_bend_c, 3, 10922
1, 47952, Pitch_bend_c, 3, 9882
1, 47962, Note_off_c, 7, 65, 0
1, 47963, Pitch_bend_c, 3, 8582
1, 47973, Note_off_c, 7, 70, 0
1, 47979, Note_off_c, 1, 34, 0
1, 47979, Note_off_c, 10, 46, 0
1, 47992, Note_off_c, 7, 62, 0
1, 47997, Note_off_c, 7, 58, 0
1, 48000, Note_on_c, 1, 31, 113
1, 48000, Note_on_c, 7, 31, 114
1, 48000, Note_on_c, 7, 43, 114
1, 48000, Note_on_c, 7, 58, 114
1, 48000, Note_on_c, 7, 62, 114
1, 48000, Note_on_c, 7, 67, 114
1, 48000, Note_on_c, 8, 43, 104
1, 48000, Note_on_c, 9, 35, 95
1, 48000, Note_on_c, 9, 40, 98
1, 48000, Note_on_c, 9, 43, 106
1, 48000, Note_on_c, 10, 43, 105
1, 48010, Lyric_t, "BREATH"
1, 48010, Note_on_c, 3, 78, 127
1, 48011, Note_on_c, 8, 50, 106
1, 48023, Pitch_bend_c, 3, 8842
1, 48033, Pitch_bend_c, 3, 10272
1, 48042, Note_off_c, 8, 43, 0
1, 48043, Pitch_bend_c, 3, 11962
1, 48053, Pitch_bend_c, 3, 13522
1, 48058, Note_off_c, 8, 50, 0
1, 48063, Pitch_bend_c, 3, 14562
1, 48084, Pitch_bend_c, 3, 14302
1, 48094, Pitch_bend_c, 3, 11962
1, 48104, Pitch_bend_c, 3, 8192
1, 48115, Note_off_c, 9, 43, 0
1, 48130, Note_off_c, 9, 40, 0
1, 48148, Note_off_c, 9, 35, 0
1, 48158, Note_off_c, 3, 78, 0
1, 48176, Note_on_c, 3, 75, 111
1, 48219, Note_off_c, 1, 31, 0
1, 48219, Note_off_c, 10, 43, 0
1, 48240, Note_on_c, 1, 31, 113
1, 48240, Note_on_c, 8, 43, 121
1, 48240, Note_on_c, 9, 44, 95
1, 48240, Note_on_c, 10, 43, 105
1, 48251, Note_on_c, 8, 50, 106
1, 48268, Note_off_c, 9, 44, 0
1, 48278, Note_on_c, 3, 72, 102
1, 48283, Note_off_c, 3, 75, 0
1, 48285, Note_off_c, 8, 43, 0
1, 48290, Note_off_c, 8, 50, 0
1, 48438, Note_off_c, 3, 72, 0
1, 48459, Note_off_c, 1, 31, 0
1, 48459, Note_off_c, 10, 43, 0
1, 48480, Note_on_c, 1, 31, 118
1, 48480, Note_on_c, 8, 43, 89
1, 48480, Note_on_c, 9, 35, 95
1, 48480, Note_on_c, 9, 40, 95
1, 48480, Note_on_c, 9, 43, 106
1, 48480, Note_on_c, 10, 43, 110
1, 48491, Note_on_c, 8, 50, 93
1, 48513, Note_off_c, 8, 43, 0
1, 48525, Lyric_t, "LESS"
1, 48525, Lyric_t, "\015"
1, 48525, Note_off_c, 8, 50, 0
1, 48525, Note_on_c, 3, 75, 120
1, 48621, Note_off_c, 9, 43, 0
1, 48628, Note_off_c, 9, 35, 0
1, 48628, Note_off_c, 9, 40, 0
1, 48672, Note_off_c, 3, 75, 0
1, 48699, Note_off_c, 1, 31, 0
1, 48699, Note_off_c, 10, 43, 0
1, 48720, Note_on_c, 1, 31, 113
1, 48720, Note_on_c, 8, 43, 108
1, 48720, Note_on_c, 9, 44, 95
1, 48720, Note_on_c, 10, 43, 105
1, 48731, Note_on_c, 8, 50, 93
1, 48733, Lyric_t, "I "
1, 48733, Note_on_c, 3, 75, 127
1, 48748, Note_off_c, 9, 44, 0
1, 48760, Note_off_c, 8, 43, 0
1, 48772, Note_off_c, 8, 50, 0
1, 48843, Note_off_c, 3, 75, 0
1, 48939, Note_off_c, 1, 31, 0
1, 48939, Note_off_c, 10, 43, 0
1, 48960, Note_on_c, 1, 31, 113
1, 48960, Note_on_c, 8, 43, 93
1, 48960, Note_on_c, 9, 35, 95
1, 48960, Note_on_c, 9, 40, 98
1, 48960, Note_on_c, 9, 43, 102
1, 48960, Note_on_c, 10, 43, 105
1, 48971, Lyric_t, "CAN'T "
1, 48971, Note_on_c, 3, 78, 123
1, 48971, Note_on_c, 8, 50, 81
1, 48998, Note_off_c, 8, 43, 0
1, 49009, Note_off_c, 8, 50, 0
1, 49035, Pitch_bend_c, 3, 8322
1, 49063, Pitch_bend_c, 3, 8582
1, 49073, Note_off_c, 9, 43, 0
1, 49080, Pitch_bend_c, 3, 8972
1, 49095, Note_off_c, 9, 40, 0
1, 49095, Pitch_bend_c, 3, 9362
1, 49108, Note_off_c, 9, 35, 0
1, 49110, Pitch_bend_c, 3, 9882
1, 49129, Pitch_bend_c, 3, 10272
1, 49139, Pitch_bend_c, 3, 10402
1, 49179, Note_off_c, 1, 31, 0
1, 49179, Note_off_c, 10, 43, 0
1, 49181, Pitch_bend_c, 3, 10662
1, 49200, Note_on_c, 1, 31, 118
1, 49200, Note_on_c, 8, 43, 116
1, 49200, Note_on_c, 9, 44, 95
1, 49200, Note_on_c, 10, 43, 110
1, 49211, Note_on_c, 8, 50, 93
1, 49211, Pitch_bend_c, 3, 11052
1, 49228, Note_off_c, 9, 44, 0
1, 49230, Pitch_bend_c, 3, 11442
1, 49245, Note_off_c, 8, 43, 0
1, 49245, Pitch_bend_c, 3, 11962
1, 49254, Note_off_c, 8, 50, 0
1, 49257, Pitch_bend_c, 3, 12352
1, 49268, Pitch_bend_c, 3, 12742
1, 49284, Pitch_bend_c, 3, 13392
1, 49296, Pitch_bend_c, 3, 13782
1, 49336, Note_off_c, 3, 78, 0
1, 49358, Pitch_bend_c, 3, 13652
1, 49372, Pitch_bend_c, 3, 12872
1, 49383, Pitch_bend_c, 3, 11962
1, 49395, Pitch_bend_c, 3, 11052
1, 49405, Pitch_bend_c, 3, 10012
1, 49419, Note_off_c, 1, 31, 0
1, 49419, Note_off_c, 7, 67, 0
1, 49419, Note_off_c, 10, 43, 0
1, 49419, Pitch_bend_c, 3, 8582
1, 49434, Note_off_c, 7, 58, 0
1, 49434, Note_off_c, 7, 62, 0
1, 49440, Note_on_c, 1, 31, 113
1, 49440, Note_on_c, 7, 58, 114
1, 49440, Note_on_c, 7, 70, 114
1, 49440, Note_on_c, 8, 43, 121
1, 49440, Note_on_c, 9, 35, 95
1, 49440, Note_on_c, 9, 40, 98
1, 49440, Note_on_c, 9, 43, 106
1, 49440, Note_on_c, 10, 43, 105
1, 49447, Lyric_t, "HELP "
1, 49447, Note_on_c, 3, 78, 127
1, 49451, Note_on_c, 8, 50, 101
1, 49485, Note_off_c, 8, 43, 0
1, 49490, Note_off_c, 8, 50, 0
1, 49556, Pitch_bend_c, 3, 8712
1, 49570, Pitch_bend_c, 3, 9102
1, 49583, Pitch_bend_c, 3, 9622
1, 49588, Note_off_c, 9, 35, 0
1, 49595, Note_off_c, 9, 43, 0
1, 49597, Pitch_bend_c, 3, 10012
1, 49607, Pitch_bend_c, 3, 10142
1, 49612, Note_off_c, 9, 40, 0
1, 49622, Pitch_bend_c, 3, 10402
1, 49659, Note_off_c, 1, 31, 0
1, 49659, Note_off_c, 10, 43, 0
1, 49680, Note_on_c, 1, 31, 118
1, 49680, Note_on_c, 8, 43, 121
1, 49680, Note_on_c, 9, 44, 95
1, 49680, Note_on_c, 10, 43, 110
1, 49687, Pitch_bend_c, 3, 10662
1, 49691, Note_on_c, 8, 50, 93
1, 49699, Pitch_bend_c, 3, 10792
1, 49708, Note_off_c, 9, 44, 0
1, 49709, Pitch_bend_c, 3, 11052
1, 49719, Pitch_bend_c, 3, 11182
1, 49726, Note_off_c, 8, 43, 0
1, 49729, Note_off_c, 8, 50, 0
1, 49731, Pitch_bend_c, 3, 11442
1, 49748, Pitch_bend_c, 3, 11702
1, 49768, Pitch_bend_c, 3, 11832
1, 49790, Pitch_bend_c, 3, 12092
1, 49800, Note_on_c, 9, 44, 95
1, 49818, Pitch_bend_c, 3, 12222
1, 49828, Note_off_c, 9, 44, 0
1, 49833, Note_off_c, 3, 78, 0
1, 49840, Pitch_bend_c, 3, 12482
1, 49855, Pitch_bend_c, 3, 12742
1, 49865, Pitch_bend_c, 3, 12872
1, 49879, Pitch_bend_c, 3, 13132
1, 49899, Note_off_c, 1, 31, 0
1, 49899, Note_off_c, 7, 31, 0
1, 49899, Note_off_c, 7, 43, 0
1, 49899, Note_off_c, 7, 58, 0
1, 49899, Note_off_c, 7, 70, 0
1, 49899, Note_off_c, 10, 43, 0
1, 49920, Lyric_t, "FEE"
1, 49920, Note_on_c, 1, 31, 113
1, 49920, Note_on_c, 3, 77, 123
1, 49920, Note_on_c, 7, 43, 106
1, 49920, Note_on_c, 7, 55, 102
1, 49920, Note_on_c, 7, 62, 98
1, 49920, Note_on_c, 7, 67, 110
1, 49920, Note_on_c, 7, 71, 106
1, 49920, Note_on_c, 8, 43, 104
1, 49920, Note_on_c, 9, 35, 95
1, 49920, Note_on_c, 9, 40, 98
1, 49920, Note_on_c, 9, 43, 106
1, 49920, Note_on_c, 10, 43, 105
1, 49921, Pitch_bend_c, 3, 12612
1, 49931, Note_on_c, 8, 50, 106
1, 49933, Pitch_bend_c, 3, 10402
1, 49943, Pitch_bend_c, 3, 8322
1, 49962, Note_off_c, 8, 43, 0
1, 49978, Note_off_c, 8, 50, 0
1, 50035, Note_off_c, 9, 43, 0
1, 50050, Note_off_c, 9, 40, 0
1, 50068, Note_off_c, 9, 35, 0
1, 50130, Note_off_c, 7, 62, 0
1, 50139, Note_off_c, 1, 31, 0
1, 50139, Note_off_c, 10, 43, 0
1, 50154, Note_off_c, 3, 77, 0
1, 50160, Lyric_t, "LING"
1, 50160, Lyric_t, "\015"
1, 50160, Note_on_c, 1, 31, 113
1, 50160, Note_on_c, 3, 75, 111
1, 50160, Note_on_c, 8, 43, 121
1, 50160, Note_on_c, 9, 44, 95
1, 50160, Note_on_c, 10, 43, 105
1, 50171, Note_on_c, 8, 50, 106
1, 50188, Note_off_c, 9, 44, 0
1, 50205, Note_off_c, 8, 43, 0
1, 50210, Note_off_c, 8, 50, 0
1, 50215, Note_on_c, 6, 43, 80
1, 50216, Note_on_c, 6, 50, 63
1, 50280, Note_on_c, 7, 62, 63
1, 50311, Note_off_c, 7, 71, 0
1, 50323, Note_off_c, 7, 67, 0
1, 50339, Note_off_c, 6, 50, 0
1, 50359, Note_off_c, 6, 43, 0
1, 50379, Note_off_c, 1, 31, 0
1, 50379, Note_off_c, 10, 43, 0
1, 50400, Note_on_c, 1, 31, 118
1, 50400, Note_on_c, 7, 62, 102
1, 50400, Note_on_c, 7, 67, 106
1, 50400, Note_on_c, 7, 71, 110
1, 50400, Note_on_c, 8, 43, 89
1, 50400, Note_on_c, 9, 35, 95
1, 50400, Note_on_c, 9, 40, 95
1, 50400, Note_on_c, 9, 43, 106
1, 50400, Note_on_c, 10, 43, 110
1, 50407, Note_off_c, 7, 62, 0
1, 50411, Note_on_c, 8, 50, 93
1, 50433, Note_off_c, 8, 43, 0
1, 50445, Note_off_c, 8, 50, 0
1, 50445, Note_on_c, 6, 50, 87
1, 50450, Note_on_c, 6, 43, 110
1, 50528, Note_off_c, 3, 75, 0
1, 50534, Note_off_c, 7, 55, 0
1, 50541, Note_off_c, 9, 43, 0
1, 50548, Note_off_c, 9, 35, 0
1, 50548, Note_off_c, 9, 40, 0
1, 50590, Note_off_c, 6, 50, 0
1, 50593, Note_off_c, 6, 43, 0
1, 50619, Note_off_c, 1, 31, 0
1, 50619, Note_off_c, 10, 43, 0
1, 50622, Lyric_t, "WE "
1, 50622, Note_on_c, 3, 79, 125
1, 50640, Note_on_c, 1, 31, 113
1, 50640, Note_on_c, 7, 55, 102
1, 50640, Note_on_c, 8, 43, 108
1, 50640, Note_on_c, 9, 44, 95
1, 50640, Note_on_c, 10, 43, 105
1, 50651, Note_on_c, 8, 50, 93
1, 50668, Note_off_c, 9, 44, 0
1, 50675, Note_on_c, 6, 50, 110
1, 50680, Note_off_c, 8, 43, 0
1, 50680, Note_on_c, 6, 43, 125
1, 50690, Note_off_c, 3, 79, 0
1, 50692, Note_off_c, 8, 50, 0
1, 50803, Note_off_c, 7, 62, 0
1, 50807, Note_off_c, 7, 67, 0
1, 50809, Note_off_c, 7, 71, 0
1, 50852, Note_off_c, 6, 50, 0
1, 50855, Note_off_c, 6, 43, 0
1, 50859, Note_off_c, 1, 31, 0
1, 50859, Note_off_c, 10, 43, 0
1, 50861, Lyric_t, "COULD "
1, 50861, Note_on_c, 3, 82, 127
1, 50880, Note_on_c, 1, 31, 113
1, 50880, Note_on_c, 7, 62, 102
1, 50880, Note_on_c, 7, 67, 102
1, 50880, Note_on_c, 7, 71, 110
1, 50880, Note_on_c, 8, 43, 93
1, 50880, Note_on_c, 9, 35, 95
1, 50880, Note_on_c, 9, 40, 98
1, 50880, Note_on_c, 9, 43, 102
1, 50880, Note_on_c, 10, 43, 105
1, 50891, Note_on_c, 8, 50, 81
1, 50918, Note_off_c, 8, 43, 0
1, 50925, Note_on_c, 6, 50, 115
1, 50929, Note_off_c, 8, 50, 0
1, 50931, Note_on_c, 6, 43, 125
1, 50993, Note_off_c, 9, 43, 0
1, 51006, Note_off_c, 7, 55, 0
1, 51015, Note_off_c, 9, 40, 0
1, 51028, Note_off_c, 9, 35, 0
1, 51073, Note_off_c, 3, 82, 0
1, 51083, Note_off_c, 6, 43, 0
1, 51086, Note_off_c, 6, 50, 0
1, 51099, Note_off_c, 1, 31, 0
1, 51099, Note_off_c, 10, 43, 0
1, 51120, Note_on_c, 1, 31, 118
1, 51120, Note_on_c, 7, 55, 110
1, 51120, Note_on_c, 8, 43, 116
1, 51120, Note_on_c, 9, 46, 95
1, 51120, Note_on_c, 10, 43, 110
1, 51121, Lyric_t, "HAVE "
1, 51121, Note_on_c, 3, 79, 120
1, 51131, Note_on_c, 8, 50, 93
1, 51148, Note_off_c, 9, 46, 0
1, 51153, Note_on_c, 6, 50, 110
1, 51158, Note_on_c, 6, 43, 125
1, 51165, Note_off_c, 8, 43, 0
1, 51174, Note_off_c, 8, 50, 0
1, 51210, Note_off_c, 3, 79, 0
1, 51240, Note_on_c, 9, 40, 98
1, 51241, Note_off_c, 7, 62, 0
1, 51249, Note_off_c, 7, 67, 0
1, 51256, Note_off_c, 7, 71, 0
1, 51311, Note_off_c, 6, 50, 0
1, 51312, Note_off_c, 6, 43, 0
1, 51339, Note_off_c, 1, 31, 0
1, 51339, Note_off_c, 10, 43, 0
1, 51354, Note_off_c, 9, 40, 0
1, 51359, Lyric_t, "HAD "
1, 51359, Note_on_c, 3, 82, 127
1, 51360, Note_on_c, 1, 31, 113
1, 51360, Note_on_c, 7, 62, 110
1, 51360, Note_on_c, 7, 67, 125
1, 51360, Note_on_c, 7, 71, 127
1, 51360, Note_on_c, 8, 43, 121
1, 51360, Note_on_c, 9, 35, 95
1, 51360, Note_on_c, 9, 40, 98
1, 51360, Note_on_c, 9, 43, 106
1, 51360, Note_on_c, 10, 43, 105
1, 51371, Note_on_c, 8, 50, 101
1, 51392, Note_on_c, 6, 50, 120
1, 51397, Note_on_c, 6, 43, 127
1, 51405, Note_off_c, 8, 43, 0
1, 51410, Note_off_c, 8, 50, 0
1, 51412, Note_off_c, 9, 40, 0
1, 51442, Note_off_c, 7, 55, 0
1, 51480, Note_on_c, 9, 40, 98
1, 51508, Note_off_c, 9, 35, 0
1, 51515, Note_off_c, 9, 43, 0
1, 51532, Note_off_c, 9, 40, 0
1, 51533, Note_off_c, 6, 43, 0
1, 51536, Note_off_c, 6, 50, 0
1, 51579, Note_off_c, 1, 31, 0
1, 51579, Note_off_c, 10, 43, 0
1, 51600, Note_on_c, 1, 31, 118
1, 51600, Note_on_c, 7, 55, 125
1, 51600, Note_on_c, 8, 43, 121
1, 51600, Note_on_c, 9, 40, 98
1, 51600, Note_on_c, 10, 43, 110
1, 51605, Lyric_t, "IT "
1, 51605, Note_off_c, 3, 82, 0
1, 51605, Note_on_c, 3, 79, 125
1, 51607, Note_on_c, 6, 50, 115
1, 51611, Note_on_c, 8, 50, 93
1, 51618, Note_on_c, 6, 43, 127
1, 51646, Note_off_c, 8, 43, 0
1, 51649, Note_off_c, 8, 50, 0
1, 51652, Note_off_c, 9, 40, 0
1, 51701, Note_off_c, 6, 43, 0
1, 51707, Note_off_c, 7, 62, 0
1, 51709, Note_off_c, 6, 50, 0
1, 51709, Note_off_c, 7, 43, 0
1, 51711, Note_off_c, 7, 67, 0
1, 51715, Note_off_c, 7, 71, 0
1, 51720, Note_on_c, 9, 40, 98
1, 51728, Note_off_c, 3, 79, 0
1, 51772, Note_off_c, 9, 40, 0
1, 51782, Note_off_c, 7, 55, 0
1, 51819, Note_off_c, 1, 31, 0
1, 51819, Note_off_c, 10, 43, 0
1, 51840, Note_on_c, 1, 36, 113
1, 51840, Note_on_c, 4, 63, 116
1, 51840, Note_on_c, 4, 67, 102
1, 51840, Note_on_c, 4, 70, 102
1, 51840, Note_on_c, 7, 36, 115
1, 51840, Note_on_c, 7, 48, 115
1, 51840, Note_on_c, 7, 67, 106
1, 51840, Note_on_c, 7, 72, 125
1, 51840, Note_on_c, 7, 75, 116
1, 51840, Note_on_c, 8, 48, 125
1, 51840, Note_on_c, 8, 55, 115
1, 51840, Note_on_c, 8, 60, 120
1, 51840, Note_on_c, 9, 35, 116
1, 51840, Note_on_c, 9, 49, 98
1, 51848, Note_on_c, 10, 48, 113
1, 51851, Note_on_c, 6, 48, 127
1, 51851, Note_on_c, 6, 55, 125
1, 51868, Note_off_c, 9, 35, 0
1, 51868, Note_off_c, 9, 49, 0
1, 51869, Lyric_t, "AL"
1, 51869, Note_on_c, 3, 84, 125
1, 51877, Note_off_c, 7, 72, 0
1, 51878, Note_off_c, 7, 75, 0
1, 51891, Note_off_c, 6, 55, 0
1, 51893, Note_off_c, 7, 67, 0
1, 51901, Note_off_c, 6, 48, 0
1, 51933, Note_off_c, 8, 60, 0
1, 51935, Note_off_c, 8, 55, 0
1, 51964, Note_off_c, 4, 63, 0
1, 51966, Note_off_c, 4, 67, 0
1, 51966, Note_off_c, 4, 70, 0
1, 52022, Note_off_c, 8, 48, 0
1, 52059, Note_off_c, 1, 36, 0
1, 52067, Note_off_c, 10, 48, 0
1, 52080, Note_on_c, 1, 36, 113
1, 52080, Note_on_c, 4, 63, 116
1, 52080, Note_on_c, 4, 67, 87
1, 52080, Note_on_c, 4, 70, 87
1, 52080, Note_on_c, 7, 67, 77
1, 52080, Note_on_c, 7, 72, 106
1, 52080, Note_on_c, 7, 75, 86
1, 52080, Note_on_c, 8, 55, 90
1, 52080, Note_on_c, 8, 60, 102
1, 52080, Note_on_c, 9, 35, 116
1, 52080, Note_on_c, 9, 42, 98
1, 52088, Note_on_c, 10, 48, 113
1, 52091, Note_on_c, 6, 48, 125
1, 52091, Note_on_c, 6, 55, 125
1, 52108, Note_off_c, 9, 35, 0
1, 52108, Note_off_c, 9, 42, 0
1, 52111, Note_off_c, 7, 75, 0
1, 52117, Note_off_c, 7, 72, 0
1, 52124, Note_off_c, 6, 55, 0
1, 52130, Note_off_c, 7, 67, 0
1, 52140, Note_off_c, 6, 48, 0
1, 52142, Note_off_c, 8, 60, 0
1, 52149, Note_off_c, 8, 55, 0
1, 52190, Note_off_c, 4, 63, 0
1, 52191, Note_off_c, 4, 67, 0
1, 52191, Note_off_c, 4, 70, 0
1, 52299, Note_off_c, 1, 36, 0
1, 52307, Note_off_c, 10, 48, 0
1, 52320, Note_on_c, 1, 36, 118
1, 52320, Note_on_c, 4, 65, 102
1, 52320, Note_on_c, 4, 68, 123
1, 52320, Note_on_c, 4, 72, 123
1, 52320, Note_on_c, 7, 67, 120
1, 52320, Note_on_c, 7, 72, 127
1, 52320, Note_on_c, 7, 75, 127
1, 52320, Note_on_c, 8, 48, 127
1, 52320, Note_on_c, 8, 55, 125
1, 52320, Note_on_c, 8, 60, 127
1, 52320, Note_on_c, 9, 39, 85
1, 52320, Note_on_c, 9, 40, 116
1, 52320, Note_on_c, 9, 42, 98
1, 52320, Note_on_c, 9, 54, 116
1, 52328, Note_on_c, 10, 48, 118
1, 52331, Note_on_c, 6, 48, 127
1, 52331, Note_on_c, 6, 55, 127
1, 52348, Note_off_c, 9, 39, 0
1, 52348, Note_off_c, 9, 40, 0
1, 52348, Note_off_c, 9, 42, 0
1, 52348, Note_off_c, 9, 54, 0
1, 52382, Note_off_c, 6, 55, 0
1, 52389, Note_off_c, 7, 72, 0
1, 52394, Note_off_c, 7, 75, 0
1, 52398, Note_off_c, 7, 67, 0
1, 52412, Note_off_c, 6, 48, 0
1, 52461, Note_off_c, 8, 55, 0
1, 52482, Note_off_c, 8, 60, 0
1, 52495, Note_off_c, 8, 48, 0
1, 52539, Note_off_c, 1, 36, 0
1, 52547, Note_off_c, 10, 48, 0
1, 52560, Note_on_c, 1, 36, 113
1, 52560, Note_on_c, 7, 67, 74
1, 52560, Note_on_c, 7, 72, 98
1, 52560, Note_on_c, 7, 75, 97
1, 52560, Note_on_c, 8, 55, 102
1, 52560, Note_on_c, 8, 60, 115
1, 52560, Note_on_c, 9, 42, 98
1, 52568, Note_on_c, 10, 48, 113
1, 52571, Note_on_c, 6, 48, 125
1, 52571, Note_on_c, 6, 55, 120
1, 52588, Note_off_c, 4, 68, 0
1, 52588, Note_off_c, 4, 72, 0
1, 52588, Note_off_c, 9, 42, 0
1, 52608, Note_off_c, 4, 65, 0
1, 52613, Note_off_c, 6, 55, 0
1, 52625, Note_off_c, 7, 72, 0
1, 52631, Note_off_c, 7, 75, 0
1, 52639, Note_off_c, 6, 48, 0
1, 52640, Note_off_c, 7, 67, 0
1, 52652, Note_off_c, 8, 60, 0
1, 52655, Note_off_c, 8, 55, 0
1, 52676, Control_c, 3, 1, 1
1, 52680, Note_on_c, 4, 63, 123
1, 52680, Note_on_c, 4, 67, 115
1, 52680, Note_on_c, 4, 70, 115
1, 52706, Control_c, 3, 1, 4
1, 52736, Control_c, 3, 1, 8
1, 52766, Control_c, 3, 1, 12
1, 52779, Note_off_c, 1, 36, 0
1, 52779, Note_off_c, 4, 63, 0
1, 52780, Note_off_c, 4, 67, 0
1, 52780, Note_off_c, 4, 70, 0
1, 52787, Note_off_c, 10, 48, 0
1, 52796, Control_c, 3, 1, 16
1, 52797, Control_c, 3, 1, 17
1, 52800, Note_on_c, 1, 36, 113
1, 52800, Note_on_c, 7, 67, 106
1, 52800, Note_on_c, 7, 72, 127
1, 52800, Note_on_c, 7, 75, 116
1, 52800, Note_on_c, 8, 55, 115
1, 52800, Note_on_c, 8, 60, 127
1, 52800, Note_on_c, 9, 35, 116
1, 52800, Note_on_c, 9, 42, 98
1, 52808, Note_on_c, 10, 48, 113
1, 52811, Note_on_c, 6, 48, 127
1, 52811, Note_on_c, 6, 55, 120
1, 52827, Control_c, 3, 1, 20
1, 52828, Note_off_c, 9, 35, 0
1, 52828, Note_off_c, 9, 42, 0
1, 52842, Control_c, 3, 1, 22
1, 52868, Note_off_c, 6, 55, 0
1, 52869, Note_off_c, 7, 72, 0
1, 52872, Control_c, 3, 1, 25
1, 52876, Note_off_c, 7, 75, 0
1, 52878, Note_off_c, 7, 67, 0
1, 52885, Note_off_c, 6, 48, 0
1, 52887, Control_c, 3, 1, 27
1, 52917, Control_c, 3, 1, 31
1, 52924, Note_off_c, 8, 60, 0
1, 52928, Note_off_c, 8, 55, 0
1, 52947, Control_c, 3, 1, 35
1, 52977, Control_c, 3, 1, 39
1, 53007, Control_c, 3, 1, 44
1, 53019, Note_off_c, 1, 36, 0
1, 53027, Note_off_c, 10, 48, 0
1, 53037, Control_c, 3, 1, 48
1, 53040, Note_on_c, 1, 36, 118
1, 53040, Note_on_c, 7, 67, 71
1, 53040, Note_on_c, 7, 72, 90
1, 53040, Note_on_c, 7, 75, 81
1, 53040, Note_on_c, 8, 55, 83
1, 53040, Note_on_c, 8, 60, 102
1, 53040, Note_on_c, 9, 35, 116
1, 53040, Note_on_c, 9, 42, 98
1, 53048, Note_on_c, 10, 48, 118
1, 53051, Note_on_c, 6, 48, 120
1, 53051, Note_on_c, 6, 55, 115
1, 53067, Control_c, 3, 1, 52
1, 53068, Note_off_c, 9, 35, 0
1, 53068, Note_off_c, 9, 42, 0
1, 53087, Note_off_c, 7, 72, 0
1, 53087, Note_off_c, 7, 75, 0
1, 53088, Note_off_c, 6, 55, 0
1, 53097, Note_off_c, 6, 48, 0
1, 53097, Note_off_c, 8, 60, 0
1, 53097, Control_c, 3, 1, 57
1, 53104, Note_off_c, 7, 67, 0
1, 53113, Note_off_c, 8, 55, 0
1, 53124, Control_c, 3, 1, 61
1, 53154, Control_c, 3, 1, 65
1, 53159, Control_c, 3, 1, 66
1, 53189, Control_c, 3, 1, 69
1, 53219, Control_c, 3, 1, 73
1, 53241, Control_c, 3, 1, 76
1, 53256, Control_c, 3, 1, 79
1, 53259, Note_off_c, 1, 36, 0
1, 53267, Note_off_c, 10, 48, 0
1, 53271, Control_c, 3, 1, 82
1, 53280, Note_on_c, 1, 36, 113
1, 53280, Note_on_c, 7, 67, 115
1, 53280, Note_on_c, 7, 72, 127
1, 53280, Note_on_c, 7, 75, 123
1, 53280, Note_on_c, 8, 48, 127
1, 53280, Note_on_c, 8, 55, 125
1, 53280, Note_on_c, 8, 60, 127
1, 53280, Note_on_c, 9, 39, 85
1, 53280, Note_on_c, 9, 40, 116
1, 53280, Note_on_c, 9, 42, 98
1, 53280, Note_on_c, 9, 54, 116
1, 53286, Control_c, 3, 1, 86
1, 53288, Note_on_c, 10, 48, 113
1, 53291, Note_on_c, 6, 48, 127
1, 53291, Note_on_c, 6, 55, 125
1, 53301, Control_c, 3, 1, 89
1, 53308, Note_off_c, 9, 39, 0
1, 53308, Note_off_c, 9, 40, 0
1, 53308, Note_off_c, 9, 42, 0
1, 53308, Note_off_c, 9, 54, 0
1, 53316, Control_c, 3, 1, 93
1, 53319, Control_c, 3, 1, 94
1, 53334, Control_c, 3, 1, 97
1, 53349, Control_c, 3, 1, 100
1, 53352, Note_off_c, 6, 55, 0
1, 53353, Note_off_c, 7, 72, 0
1, 53356, Control_c, 3, 1, 102
1, 53368, Note_off_c, 7, 75, 0
1, 53369, Note_off_c, 6, 48, 0
1, 53370, Note_off_c, 7, 67, 0
1, 53390, Note_off_c, 8, 60, 0
1, 53394, Note_off_c, 8, 55, 0
1, 53445, Control_c, 3, 1, 102
1, 53455, Control_c, 3, 1, 0
1, 53485, Note_off_c, 3, 84, 0
1, 53499, Note_off_c, 1, 36, 0
1, 53507, Note_off_c, 10, 48, 0
1, 53520, Note_on_c, 1, 36, 118
1, 53520, Note_on_c, 7, 67, 106
1, 53520, Note_on_c, 7, 72, 115
1, 53520, Note_on_c, 7, 75, 105
1, 53520, Note_on_c, 8, 55, 98
1, 53520, Note_on_c, 8, 60, 115
1, 53520, Note_on_c, 9, 42, 98
1, 53528, Note_on_c, 10, 48, 118
1, 53531, Note_on_c, 6, 48, 125
1, 53531, Note_on_c, 6, 55, 125
1, 53535, Lyric_t, "L"
1, 53535, Lyric_t, "\015"
1, 53535, Note_on_c, 3, 82, 123
1, 53548, Note_off_c, 9, 42, 0
1, 53582, Note_off_c, 7, 72, 0
1, 53589, Note_off_c, 6, 55, 0
1, 53591, Note_off_c, 7, 75, 0
1, 53598, Note_off_c, 8, 60, 0
1, 53602, Note_off_c, 7, 67, 0
1, 53618, Note_off_c, 8, 55, 0
1, 53629, Note_off_c, 6, 48, 0
1, 53731, Note_off_c, 7, 36, 0
1, 53731, Note_off_c, 7, 48, 0
1, 53732, Note_off_c, 8, 48, 0
1, 53739, Note_off_c, 1, 36, 0
1, 53747, Note_off_c, 10, 48, 0
1, 53760, Note_on_c, 1, 34, 113
1, 53760, Note_on_c, 4, 63, 116
1, 53760, Note_on_c, 4, 67, 102
1, 53760, Note_on_c, 4, 70, 102
1, 53760, Note_on_c, 7, 34, 115
1, 53760, Note_on_c, 7, 46, 115
1, 53760, Note_on_c, 7, 65, 83
1, 53760, Note_on_c, 7, 70, 105
1, 53760, Note_on_c, 7, 74, 102
1, 53760, Note_on_c, 8, 53, 90
1, 53760, Note_on_c, 8, 58, 123
1, 53760, Note_on_c, 9, 35, 116
1, 53760, Note_on_c, 9, 42, 98
1, 53768, Note_on_c, 10, 46, 113
1, 53771, Note_on_c, 6, 46, 127
1, 53771, Note_on_c, 6, 53, 115
1, 53788, Note_off_c, 9, 35, 0
1, 53788, Note_off_c, 9, 42, 0
1, 53823, Note_off_c, 7, 74, 0
1, 53834, Note_off_c, 6, 53, 0
1, 53834, Note_off_c, 7, 65, 0
1, 53835, Note_off_c, 7, 70, 0
1, 53841, Note_off_c, 6, 46, 0
1, 53867, Note_off_c, 8, 53, 0
1, 53873, Note_off_c, 8, 58, 0
1, 53884, Note_off_c, 4, 63, 0
1, 53886, Note_off_c, 4, 67, 0
1, 53886, Note_off_c, 4, 70, 0
1, 53979, Note_off_c, 1, 34, 0
1, 53987, Note_off_c, 10, 46, 0
1, 54000, Note_off_c, 3, 82, 0
1, 54000, Note_on_c, 1, 34, 113
1, 54000, Note_on_c, 4, 63, 116
1, 54000, Note_on_c, 4, 67, 87
1, 54000, Note_on_c, 4, 70, 87
1, 54000, Note_on_c, 7, 65, 63
1, 54000, Note_on_c, 7, 70, 81
1, 54000, Note_on_c, 7, 74, 56
1, 54000, Note_on_c, 8, 53, 67
1, 54000, Note_on_c, 8, 58, 86
1, 54000, Note_on_c, 9, 35, 116
1, 54000, Note_on_c, 9, 42, 98
1, 54008, Note_on_c, 10, 46, 113
1, 54011, Note_on_c, 6, 46, 123
1, 54011, Note_on_c, 6, 53, 120
1, 54028, Note_off_c, 9, 35, 0
1, 54028, Note_off_c, 9, 42, 0
1, 54037, Note_off_c, 7, 74, 0
1, 54052, Note_off_c, 7, 65, 0
1, 54053, Note_off_c, 8, 58, 0
1, 54054, Note_off_c, 7, 70, 0
1, 54070, Note_off_c, 6, 53, 0
1, 54072, Note_off_c, 8, 53, 0
1, 54073, Note_off_c, 6, 46, 0
1, 54110, Note_off_c, 4, 63, 0
1, 54111, Note_off_c, 4, 67, 0
1, 54111, Note_off_c, 4, 70, 0
1, 54219, Note_off_c, 1, 34, 0
1, 54227, Note_off_c, 10, 46, 0
1, 54240, Note_on_c, 1, 34, 118
1, 54240, Note_on_c, 4, 65, 102
1, 54240, Note_on_c, 4, 68, 123
1, 54240, Note_on_c, 4, 72, 123
1, 54240, Note_on_c, 7, 65, 106
1, 54240, Note_on_c, 7, 70, 116
1, 54240, Note_on_c, 7, 74, 115
1, 54240, Note_on_c, 8, 46, 127
1, 54240, Note_on_c, 8, 53, 110
1, 54240, Note_on_c, 8, 58, 127
1, 54240, Note_on_c, 9, 39, 85
1, 54240, Note_on_c, 9, 40, 116
1, 54240, Note_on_c, 9, 42, 98
1, 54240, Note_on_c, 9, 54, 116
1, 54248, Note_on_c, 10, 46, 118
1, 54251, Note_on_c, 6, 46, 127
1, 54251, Note_on_c, 6, 53, 125
1, 54268, Note_off_c, 9, 39, 0
1, 54268, Note_off_c, 9, 40, 0
1, 54268, Note_off_c, 9, 42, 0
1, 54268, Note_off_c, 9, 54, 0
1, 54310, Note_off_c, 7, 65, 0
1, 54310, Note_off_c, 7, 70, 0
1, 54323, Note_off_c, 7, 74, 0
1, 54329, Note_off_c, 6, 53, 0
1, 54357, Note_off_c, 6, 46, 0
1, 54370, Note_off_c, 8, 53, 0
1, 54371, Note_off_c, 8, 58, 0
1, 54459, Note_off_c, 1, 34, 0
1, 54467, Note_off_c, 10, 46, 0
1, 54480, Note_on_c, 1, 34, 113
1, 54480, Note_on_c, 7, 65, 74
1, 54480, Note_on_c, 7, 70, 93
1, 54480, Note_on_c, 7, 74, 83
1, 54480, Note_on_c, 8, 53, 80
1, 54480, Note_on_c, 8, 58, 116
1, 54480, Note_on_c, 9, 42, 98
1, 54488, Note_on_c, 10, 46, 113
1, 54491, Note_on_c, 6, 46, 111
1, 54491, Note_on_c, 6, 53, 106
1, 54503, Lyric_t, "ROL"
1, 54503, Note_on_c, 3, 79, 125
1, 54508, Note_off_c, 4, 68, 0
1, 54508, Note_off_c, 4, 72, 0
1, 54508, Note_off_c, 9, 42, 0
1, 54528, Note_off_c, 4, 65, 0
1, 54546, Note_off_c, 7, 65, 0
1, 54548, Note_off_c, 7, 70, 0
1, 54556, Note_off_c, 6, 53, 0
1, 54556, Note_off_c, 7, 74, 0
1, 54560, Note_off_c, 6, 46, 0
1, 54566, Note_off_c, 3, 79, 0
1, 54569, Note_off_c, 8, 53, 0
1, 54577, Note_off_c, 8, 58, 0
1, 54600, Note_on_c, 4, 63, 123
1, 54600, Note_on_c, 4, 67, 115
1, 54600, Note_on_c, 4, 70, 115
1, 54699, Note_off_c, 1, 34, 0
1, 54699, Note_off_c, 4, 63, 0
1, 54700, Note_off_c, 4, 67, 0
1, 54700, Note_off_c, 4, 70, 0
1, 54707, Note_off_c, 10, 46, 0
1, 54720, Note_on_c, 1, 34, 113
1, 54720, Note_on_c, 7, 65, 90
1, 54720, Note_on_c, 7, 70, 101
1, 54720, Note_on_c, 7, 74, 98
1, 54720, Note_on_c, 8, 53, 90
1, 54720, Note_on_c, 8, 58, 123
1, 54720, Note_on_c, 9, 35, 116
1, 54720, Note_on_c, 9, 42, 98
1, 54728, Note_on_c, 10, 46, 113
1, 54731, Note_on_c, 6, 46, 127
1, 54731, Note_on_c, 6, 53, 120
1, 54747, Note_on_c, 3, 82, 127
1, 54748, Note_off_c, 9, 35, 0
1, 54748, Note_off_c, 9, 42, 0
1, 54786, Note_off_c, 7, 65, 0
1, 54789, Note_off_c, 7, 70, 0
1, 54804, Note_off_c, 7, 74, 0
1, 54807, Note_off_c, 6, 53, 0
1, 54813, Note_off_c, 6, 46, 0
1, 54817, Note_off_c, 8, 53, 0
1, 54829, Note_off_c, 8, 58, 0
1, 54939, Note_off_c, 1, 34, 0
1, 54947, Note_off_c, 10, 46, 0
1, 54954, Note_off_c, 3, 82, 0
1, 54960, Note_on_c, 1, 34, 118
1, 54960, Note_on_c, 7, 65, 74
1, 54960, Note_on_c, 7, 70, 89
1, 54960, Note_on_c, 7, 74, 90
1, 54960, Note_on_c, 8, 53, 63
1, 54960, Note_on_c, 8, 58, 97
1, 54960, Note_on_c, 9, 35, 116
1, 54960, Note_on_c, 9, 46, 98
1, 54961, Note_off_c, 8, 46, 0
1, 54968, Note_on_c, 10, 46, 118
1, 54971, Note_on_c, 6, 46, 116
1, 54971, Note_on_c, 6, 53, 110
1, 54988, Note_off_c, 9, 35, 0
1, 54988, Note_off_c, 9, 46, 0
1, 54992, Lyric_t, "LING "
1, 54992, Note_on_c, 3, 79, 106
1, 55005, Note_off_c, 8, 58, 0
1, 55011, Note_off_c, 8, 53, 0
1, 55018, Note_off_c, 7, 70, 0
1, 55020, Note_off_c, 7, 65, 0
1, 55032, Note_off_c, 7, 74, 0
1, 55036, Note_off_c, 6, 53, 0
1, 55040, Note_off_c, 6, 46, 0
1, 55060, Note_off_c, 3, 79, 0
1, 55179, Note_off_c, 1, 34, 0
1, 55187, Note_off_c, 10, 46, 0
1, 55200, Note_on_c, 1, 34, 113
1, 55200, Note_on_c, 7, 65, 98
1, 55200, Note_on_c, 7, 70, 111
1, 55200, Note_on_c, 7, 74, 106
1, 55200, Note_on_c, 8, 46, 123
1, 55200, Note_on_c, 8, 53, 102
1, 55200, Note_on_c, 8, 58, 127
1, 55200, Note_on_c, 9, 39, 85
1, 55200, Note_on_c, 9, 40, 116
1, 55200, Note_on_c, 9, 42, 98
1, 55200, Note_on_c, 9, 54, 116
1, 55208, Note_on_c, 10, 46, 113
1, 55211, Note_on_c, 6, 46, 127
1, 55211, Note_on_c, 6, 53, 120
1, 55222, Lyric_t, "IN "
1, 55222, Note_on_c, 3, 82, 127
1, 55228, Note_off_c, 9, 39, 0
1, 55228, Note_off_c, 9, 40, 0
1, 55228, Note_off_c, 9, 42, 0
1, 55228, Note_off_c, 9, 54, 0
1, 55262, Note_off_c, 7, 65, 0
1, 55265, Note_off_c, 7, 70, 0
1, 55272, Note_off_c, 7, 74, 0
1, 55283, Note_off_c, 6, 53, 0
1, 55290, Note_off_c, 6, 46, 0
1, 55303, Note_off_c, 8, 53, 0
1, 55317, Note_off_c, 8, 58, 0
1, 55415, Note_off_c, 3, 82, 0
1, 55419, Note_off_c, 1, 34, 0
1, 55427, Note_off_c, 10, 46, 0
1, 55440, Note_on_c, 1, 34, 118
1, 55440, Note_on_c, 7, 65, 98
1, 55440, Note_on_c, 7, 70, 105
1, 55440, Note_on_c, 7, 74, 106
1, 55440, Note_on_c, 8, 53, 98
1, 55440, Note_on_c, 8, 58, 111
1, 55440, Note_on_c, 9, 42, 98
1, 55448, Note_on_c, 10, 46, 118
1, 55451, Note_on_c, 6, 46, 123
1, 55451, Note_on_c, 6, 53, 115
1, 55453, Lyric_t, "THE "
1, 55453, Note_on_c, 3, 79, 106
1, 55468, Note_off_c, 9, 42, 0
1, 55496, Note_off_c, 7, 65, 0
1, 55499, Note_off_c, 7, 70, 0
1, 55503, Note_off_c, 8, 58, 0
1, 55512, Note_off_c, 7, 74, 0
1, 55522, Note_off_c, 6, 46, 0
1, 55531, Note_off_c, 6, 53, 0
1, 55533, Note_off_c, 8, 53, 0
1, 55554, Note_off_c, 3, 79, 0
1, 55651, Note_off_c, 7, 34, 0
1, 55651, Note_off_c, 7, 46, 0
1, 55659, Note_off_c, 1, 34, 0
1, 55667, Note_off_c, 10, 46, 0
1, 55673, Note_off_c, 8, 46, 0
1, 55680, Note_on_c, 1, 32, 113
1, 55680, Note_on_c, 4, 63, 116
1, 55680, Note_on_c, 4, 67, 102
1, 55680, Note_on_c, 4, 70, 102
1, 55680, Note_on_c, 7, 32, 115
1, 55680, Note_on_c, 7, 44, 115
1, 55680, Note_on_c, 7, 60, 125
1, 55680, Note_on_c, 7, 63, 116
1, 55680, Note_on_c, 7, 67, 115
1, 55680, Note_on_c, 8, 51, 127
1, 55680, Note_on_c, 8, 56, 123
1, 55680, Note_on_c, 9, 35, 116
1, 55680, Note_on_c, 9, 42, 98
1, 55688, Note_on_c, 10, 44, 113
1, 55691, Note_on_c, 6, 44, 116
1, 55691, Note_on_c, 6, 51, 127
1, 55701, Lyric_t, "DEE"
1, 55701, Note_on_c, 3, 84, 125
1, 55708, Note_off_c, 9, 35, 0
1, 55708, Note_off_c, 9, 42, 0
1, 55737, Note_off_c, 7, 63, 0
1, 55740, Note_off_c, 7, 60, 0
1, 55749, Note_off_c, 7, 67, 0
1, 55752, Note_off_c, 6, 51, 0
1, 55794, Note_off_c, 6, 44, 0
1, 55804, Note_off_c, 4, 63, 0
1, 55805, Note_off_c, 8, 51, 0
1, 55806, Note_off_c, 4, 67, 0
1, 55806, Note_off_c, 4, 70, 0
1, 55833, Note_off_c, 8, 56, 0
1, 55899, Note_off_c, 1, 32, 0
1, 55907, Note_off_c, 10, 44, 0
1, 55920, Note_on_c, 1, 32, 113
1, 55920, Note_on_c, 4, 63, 116
1, 55920, Note_on_c, 4, 67, 87
1, 55920, Note_on_c, 4, 70, 87
1, 55920, Note_on_c, 7, 60, 110
1, 55920, Note_on_c, 7, 63, 105
1, 55920, Note_on_c, 7, 67, 102
1, 55920, Note_on_c, 8, 51, 101
1, 55920, Note_on_c, 8, 56, 86
1, 55920, Note_on_c, 9, 35, 116
1, 55920, Note_on_c, 9, 42, 98
1, 55928, Note_on_c, 10, 44, 113
1, 55931, Note_on_c, 6, 44, 116
1, 55931, Note_on_c, 6, 51, 116
1, 55948, Note_off_c, 9, 35, 0
1, 55948, Note_off_c, 9, 42, 0
1, 55962, Note_off_c, 7, 60, 0
1, 55966, Note_off_c, 7, 63, 0
1, 55966, Note_off_c, 8, 56, 0
1, 55971, Note_off_c, 7, 67, 0
1, 55976, Note_off_c, 6, 51, 0
1, 55976, Note_off_c, 8, 51, 0
1, 55999, Note_off_c, 6, 44, 0
1, 56030, Note_off_c, 4, 63, 0
1, 56031, Note_off_c, 4, 67, 0
1, 56031, Note_off_c, 4, 70, 0
1, 56139, Note_off_c, 1, 32, 0
1, 56147, Note_off_c, 10, 44, 0
1, 56160, Note_on_c, 1, 32, 118
1, 56160, Note_on_c, 4, 65, 102
1, 56160, Note_on_c, 4, 68, 123
1, 56160, Note_on_c, 4, 72, 123
1, 56160, Note_on_c, 7, 60, 127
1, 56160, Note_on_c, 7, 63, 123
1, 56160, Note_on_c, 7, 67, 125
1, 56160, Note_on_c, 8, 44, 123
1, 56160, Note_on_c, 8, 51, 127
1, 56160, Note_on_c, 8, 54, 123
1, 56160, Note_on_c, 8, 56, 127
1, 56160, Note_on_c, 9, 39, 85
1, 56160, Note_on_c, 9, 40, 116
1, 56160, Note_on_c, 9, 42, 98
1, 56160, Note_on_c, 9, 54, 116
1, 56168, Note_on_c, 10, 44, 118
1, 56171, Note_on_c, 6, 44, 127
1, 56171, Note_on_c, 6, 51, 127
1, 56175, Note_off_c, 8, 54, 0
1, 56188, Note_off_c, 9, 39, 0
1, 56188, Note_off_c, 9, 40, 0
1, 56188, Note_off_c, 9, 42, 0
1, 56188, Note_off_c, 9, 54, 0
1, 56218, Note_off_c, 7, 60, 0
1, 56220, Note_off_c, 7, 63, 0
1, 56233, Note_off_c, 6, 51, 0
1, 56235, Note_off_c, 7, 67, 0
1, 56247, Note_off_c, 8, 51, 0
1, 56267, Note_off_c, 6, 44, 0
1, 56272, Note_off_c, 8, 56, 0
1, 56379, Note_off_c, 1, 32, 0
1, 56387, Note_off_c, 10, 44, 0
1, 56400, Note_on_c, 1, 32, 113
1, 56400, Note_on_c, 7, 60, 125
1, 56400, Note_on_c, 7, 63, 111
1, 56400, Note_on_c, 7, 67, 102
1, 56400, Note_on_c, 8, 51, 111
1, 56400, Note_on_c, 8, 56, 101
1, 56400, Note_on_c, 9, 42, 98
1, 56408, Note_on_c, 10, 44, 113
1, 56411, Note_on_c, 6, 44, 116
1, 56411, Note_on_c, 6, 51, 116
1, 56428, Note_off_c, 4, 68, 0
1, 56428, Note_off_c, 4, 72, 0
1, 56428, Note_off_c, 9, 42, 0
1, 56448, Note_off_c, 4, 65, 0
1, 56453, Note_off_c, 7, 60, 0
1, 56453, Note_off_c, 7, 63, 0
1, 56461, Note_off_c, 7, 67, 0
1, 56467, Note_off_c, 6, 51, 0
1, 56475, Note_off_c, 8, 51, 0
1, 56477, Note_off_c, 8, 56, 0
1, 56493, Note_off_c, 6, 44, 0
1, 56520, Note_on_c, 4, 63, 123
1, 56520, Note_on_c, 4, 67, 115
1, 56520, Note_on_c, 4, 70, 115
1, 56619, Note_off_c, 1, 32, 0
1, 56619, Note_off_c, 4, 63, 0
1, 56620, Note_off_c, 4, 67, 0
1, 56620, Note_off_c, 4, 70, 0
1, 56627, Note_off_c, 10, 44, 0
1, 56640, Note_on_c, 1, 32, 113
1, 56640, Note_on_c, 7, 60, 120
1, 56640, Note_on_c, 7, 63, 116
1, 56640, Note_on_c, 7, 67, 110
1, 56640, Note_on_c, 8, 51, 123
1, 56640, Note_on_c, 8, 54, 86
1, 56640, Note_on_c, 8, 56, 116
1, 56640, Note_on_c, 9, 35, 116
1, 56640, Note_on_c, 9, 42, 98
1, 56646, Note_off_c, 8, 54, 0
1, 56648, Note_on_c, 10, 44, 113
1, 56651, Note_on_c, 6, 44, 123
1, 56651, Note_on_c, 6, 51, 127
1, 56668, Note_off_c, 9, 35, 0
1, 56668, Note_off_c, 9, 42, 0
1, 56694, Note_off_c, 7, 60, 0
1, 56701, Note_off_c, 7, 63, 0
1, 56709, Note_off_c, 7, 67, 0
1, 56713, Note_off_c, 8, 51, 0
1, 56716, Note_off_c, 6, 51, 0
1, 56728, Note_off_c, 8, 56, 0
1, 56741, Note_off_c, 6, 44, 0
1, 56859, Note_off_c, 1, 32, 0
1, 56867, Note_off_c, 10, 44, 0
1, 56880, Note_on_c, 1, 32, 118
1, 56880, Note_on_c, 7, 60, 115
1, 56880, Note_on_c, 7, 63, 111
1, 56880, Note_on_c, 7, 67, 106
1, 56880, Note_on_c, 8, 51, 101
1, 56880, Note_on_c, 8, 56, 75
1, 56880, Note_on_c, 9, 35, 116
1, 56880, Note_on_c, 9, 42, 98
1, 56888, Note_on_c, 10, 44, 118
1, 56891, Note_on_c, 6, 44, 123
1, 56891, Note_on_c, 6, 51, 123
1, 56908, Note_off_c, 9, 35, 0
1, 56908, Note_off_c, 9, 42, 0
1, 56914, Note_off_c, 8, 56, 0
1, 56919, Note_off_c, 8, 51, 0
1, 56936, Note_off_c, 7, 60, 0
1, 56941, Note_off_c, 7, 63, 0
1, 56947, Note_off_c, 6, 51, 0
1, 56954, Note_off_c, 7, 67, 0
1, 56963, Note_off_c, 6, 44, 0
1, 57099, Note_off_c, 1, 32, 0
1, 57107, Note_off_c, 10, 44, 0
1, 57120, Note_on_c, 1, 32, 113
1, 57120, Note_on_c, 7, 60, 120
1, 57120, Note_on_c, 7, 63, 116
1, 57120, Note_on_c, 7, 67, 90
1, 57120, Note_on_c, 8, 51, 127
1, 57120, Note_on_c, 8, 56, 127
1, 57120, Note_on_c, 9, 39, 85
1, 57120, Note_on_c, 9, 40, 116
1, 57120, Note_on_c, 9, 42, 98
1, 57120, Note_on_c, 9, 54, 116
1, 57126, Pitch_bend_c, 3, 8712
1, 57128, Note_on_c, 10, 44, 113
1, 57131, Note_on_c, 6, 44, 127
1, 57131, Note_on_c, 6, 51, 127
1, 57136, Pitch_bend_c, 3, 12482
1, 57146, Pitch_bend_c, 3, 16383
1, 57148, Note_off_c, 9, 39, 0
1, 57148, Note_off_c, 9, 40, 0
1, 57148, Note_off_c, 9, 42, 0
1, 57148, Note_off_c, 9, 54, 0
1, 57175, Note_off_c, 7, 60, 0
1, 57180, Note_off_c, 7, 63, 0
1, 57190, Note_off_c, 7, 67, 0
1, 57195, Note_off_c, 6, 51, 0
1, 57210, Note_off_c, 8, 51, 0
1, 57211, Note_off_c, 6, 44, 0
1, 57224, Note_off_c, 8, 56, 0
1, 57336, Note_off_c, 3, 84, 0
1, 57339, Note_off_c, 1, 32, 0
1, 57347, Note_off_c, 10, 44, 0
1, 57356, Note_off_c, 8, 44, 0
1, 57360, Note_on_c, 1, 32, 118
1, 57360, Note_on_c, 7, 60, 120
1, 57360, Note_on_c, 7, 63, 116
1, 57360, Note_on_c, 7, 67, 110
1, 57360, Note_on_c, 8, 51, 116
1, 57360, Note_on_c, 8, 56, 111
1, 57360, Note_on_c, 9, 42, 98
1, 57361, Lyric_t, "P"
1, 57361, Lyric_t, "\015"
1, 57361, Note_on_c, 3, 82, 123
1, 57363, Pitch_bend_c, 3, 8192
1, 57368, Note_on_c, 10, 44, 118
1, 57371, Note_on_c, 6, 44, 123
1, 57371, Note_on_c, 6, 51, 123
1, 57378, Pitch_bend_c, 3, 8192
1, 57388, Note_off_c, 9, 42, 0
1, 57411, Note_off_c, 8, 51, 0
1, 57415, Note_off_c, 7, 60, 0
1, 57422, Note_off_c, 7, 63, 0
1, 57429, Note_off_c, 6, 51, 0
1, 57429, Note_off_c, 7, 67, 0
1, 57429, Note_off_c, 8, 56, 0
1, 57436, Note_off_c, 6, 44, 0
1, 57571, Note_off_c, 7, 32, 0
1, 57571, Note_off_c, 7, 44, 0
1, 57579, Note_off_c, 1, 32, 0
1, 57587, Note_off_c, 10, 44, 0
1, 57600, Note_on_c, 1, 32, 113
1, 57600, Note_on_c, 4, 63, 116
1, 57600, Note_on_c, 4, 67, 102
1, 57600, Note_on_c, 4, 70, 102
1, 57600, Note_on_c, 7, 32, 115
1, 57600, Note_on_c, 7, 44, 115
1, 57600, Note_on_c, 7, 60, 125
1, 57600, Note_on_c, 7, 63, 111
1, 57600, Note_on_c, 7, 67, 110
1, 57600, Note_on_c, 8, 44, 116
1, 57600, Note_on_c, 8, 51, 127
1, 57600, Note_on_c, 8, 54, 116
1, 57600, Note_on_c, 8, 56, 127
1, 57600, Note_on_c, 9, 35, 116
1, 57600, Note_on_c, 9, 42, 98
1, 57608, Note_on_c, 10, 44, 113
1, 57609, Note_off_c, 8, 54, 0
1, 57611, Note_on_c, 6, 44, 123
1, 57611, Note_on_c, 6, 51, 127
1, 57628, Note_off_c, 9, 35, 0
1, 57628, Note_off_c, 9, 42, 0
1, 57654, Note_off_c, 7, 60, 0
1, 57656, Note_off_c, 7, 63, 0
1, 57666, Note_off_c, 7, 67, 0
1, 57674, Note_off_c, 8, 51, 0
1, 57677, Note_off_c, 6, 51, 0
1, 57694, Note_off_c, 8, 56, 0
1, 57698, Note_off_c, 6, 44, 0
1, 57724, Note_off_c, 4, 63, 0
1, 57726, Note_off_c, 4, 67, 0
1, 57726, Note_off_c, 4, 70, 0
1, 57819, Note_off_c, 1, 32, 0
1, 57827, Note_off_c, 10, 44, 0
1, 57840, Note_on_c, 1, 32, 113
1, 57840, Note_on_c, 4, 63, 116
1, 57840, Note_on_c, 4, 67, 87
1, 57840, Note_on_c, 4, 70, 87
1, 57840, Note_on_c, 7, 60, 106
1, 57840, Note_on_c, 7, 63, 101
1, 57840, Note_on_c, 7, 67, 95
1, 57840, Note_on_c, 8, 51, 123
1, 57840, Note_on_c, 8, 54, 89
1, 57840, Note_on_c, 8, 56, 116
1, 57840, Note_on_c, 9, 35, 116
1, 57840, Note_on_c, 9, 42, 98
1, 57844, Note_off_c, 8, 54, 0
1, 57848, Note_on_c, 10, 44, 113
1, 57851, Note_on_c, 6, 44, 123
1, 57851, Note_on_c, 6, 51, 127
1, 57868, Note_off_c, 9, 35, 0
1, 57868, Note_off_c, 9, 42, 0
1, 57890, Note_off_c, 8, 51, 0
1, 57892, Note_off_c, 8, 56, 0
1, 57896, Note_off_c, 7, 60, 0
1, 57902, Note_off_c, 7, 63, 0
1, 57907, Note_off_c, 7, 67, 0
1, 57910, Note_off_c, 6, 51, 0
1, 57932, Note_off_c, 6, 44, 0
1, 57950, Note_off_c, 4, 63, 0
1, 57951, Note_off_c, 4, 67, 0
1, 57951, Note_off_c, 4, 70, 0
1, 57968, Note_off_c, 3, 82, 0
1, 58059, Note_off_c, 1, 32, 0
1, 58067, Note_off_c, 10, 44, 0
1, 58080, Note_on_c, 1, 32, 118
1, 58080, Note_on_c, 4, 65, 102
1, 58080, Note_on_c, 4, 68, 123
1, 58080, Note_on_c, 4, 72, 123
1, 58080, Note_on_c, 7, 60, 125
1, 58080, Note_on_c, 7, 63, 116
1, 58080, Note_on_c, 7, 67, 110
1, 58080, Note_on_c, 8, 51, 127
1, 58080, Note_on_c, 8, 54, 97
1, 58080, Note_on_c, 8, 56, 127
1, 58080, Note_on_c, 9, 39, 85
1, 58080, Note_on_c, 9, 40, 116
1, 58080, Note_on_c, 9, 42, 98
1, 58080, Note_on_c, 9, 54, 116
1, 58084, Note_off_c, 8, 54, 0
1, 58088, Note_on_c, 10, 44, 118
1, 58091, Note_on_c, 6, 44, 127
1, 58091, Note_on_c, 6, 51, 127
1, 58108, Note_off_c, 9, 39, 0
1, 58108, Note_off_c, 9, 40, 0
1, 58108, Note_off_c, 9, 42, 0
1, 58108, Note_off_c, 9, 54, 0
1, 58136, Note_off_c, 7, 60, 0
1, 58142, Note_off_c, 7, 63, 0
1, 58152, Note_off_c, 7, 67, 0
1, 58159, Note_off_c, 6, 51, 0
1, 58162, Note_off_c, 8, 51, 0
1, 58174, Note_off_c, 6, 44, 0
1, 58182, Note_off_c, 8, 56, 0
1, 58299, Note_off_c, 1, 32, 0
1, 58307, Note_off_c, 10, 44, 0
1, 58320, Note_on_c, 1, 32, 113
1, 58320, Note_on_c, 7, 60, 115
1, 58320, Note_on_c, 7, 63, 111
1, 58320, Note_on_c, 7, 67, 110
1, 58320, Note_on_c, 8, 51, 116
1, 58320, Note_on_c, 8, 54, 101
1, 58320, Note_on_c, 8, 56, 123
1, 58320, Note_on_c, 9, 42, 98
1, 58326, Note_off_c, 8, 54, 0
1, 58328, Note_on_c, 10, 44, 113
1, 58331, Note_on_c, 6, 44, 123
1, 58331, Note_on_c, 6, 51, 127
1, 58343, Lyric_t, "YOUR "
1, 58343, Note_on_c, 3, 79, 125
1, 58348, Note_off_c, 4, 68, 0
1, 58348, Note_off_c, 4, 72, 0
1, 58348, Note_off_c, 9, 42, 0
1, 58368, Note_off_c, 4, 65, 0
1, 58378, Note_off_c, 7, 60, 0
1, 58381, Note_off_c, 7, 63, 0
1, 58382, Note_off_c, 8, 51, 0
1, 58394, Note_off_c, 6, 51, 0
1, 58397, Note_off_c, 7, 67, 0
1, 58397, Note_off_c, 8, 56, 0
1, 58406, Note_off_c, 3, 79, 0
1, 58421, Note_off_c, 6, 44, 0
1, 58440, Note_on_c, 4, 63, 123
1, 58440, Note_on_c, 4, 67, 115
1, 58440, Note_on_c, 4, 70, 115
1, 58476, Note_off_c, 8, 44, 0
1, 58531, Note_off_c, 7, 32, 0
1, 58531, Note_off_c, 7, 44, 0
1, 58539, Note_off_c, 1, 32, 0
1, 58539, Note_off_c, 4, 63, 0
1, 58540, Note_off_c, 4, 67, 0
1, 58540, Note_off_c, 4, 70, 0
1, 58547, Note_off_c, 10, 44, 0
1, 58560, Note_on_c, 1, 34, 113
1, 58560, Note_on_c, 7, 34, 115
1, 58560, Note_on_c, 7, 46, 115
1, 58560, Note_on_c, 7, 62, 98
1, 58560, Note_on_c, 7, 65, 90
1, 58560, Note_on_c, 7, 70, 101
1, 58560, Note_on_c, 8, 53, 102
1, 58560, Note_on_c, 8, 58, 123
1, 58560, Note_on_c, 9, 35, 116
1, 58560, Note_on_c, 9, 42, 98
1, 58568, Note_on_c, 10, 46, 113
1, 58571, Note_on_c, 6, 46, 127
1, 58571, Note_on_c, 6, 53, 115
1, 58587, Lyric_t, "HAD "
1, 58587, Note_on_c, 3, 82, 127
1, 58588, Note_off_c, 9, 35, 0
1, 58588, Note_off_c, 9, 42, 0
1, 58626, Note_off_c, 7, 65, 0
1, 58629, Note_off_c, 7, 70, 0
1, 58637, Note_off_c, 8, 53, 0
1, 58639, Note_off_c, 6, 53, 0
1, 58642, Note_off_c, 6, 46, 0
1, 58644, Note_off_c, 7, 62, 0
1, 58648, Note_off_c, 8, 58, 0
1, 58779, Note_off_c, 1, 34, 0
1, 58787, Note_off_c, 10, 46, 0
1, 58794, Note_off_c, 3, 82, 0
1, 58800, Note_on_c, 1, 34, 118
1, 58800, Note_on_c, 7, 62, 90
1, 58800, Note_on_c, 7, 65, 74
1, 58800, Note_on_c, 7, 70, 89
1, 58800, Note_on_c, 8, 53, 110
1, 58800, Note_on_c, 8, 58, 127
1, 58800, Note_on_c, 9, 35, 116
1, 58800, Note_on_c, 9, 46, 98
1, 58808, Note_on_c, 10, 46, 118
1, 58811, Note_on_c, 6, 46, 127
1, 58811, Note_on_c, 6, 53, 115
1, 58828, Note_off_c, 9, 35, 0
1, 58828, Note_off_c, 9, 46, 0
1, 58832, Lyric_t, "MY "
1, 58832, Note_on_c, 3, 79, 106
1, 58858, Note_off_c, 7, 70, 0
1, 58860, Note_off_c, 7, 65, 0
1, 58867, Note_off_c, 8, 53, 0
1, 58872, Note_off_c, 7, 62, 0
1, 58874, Note_off_c, 6, 53, 0
1, 58875, Note_off_c, 8, 58, 0
1, 58883, Note_off_c, 6, 46, 0
1, 58900, Note_off_c, 3, 79, 0
1, 59019, Note_off_c, 1, 34, 0
1, 59027, Note_off_c, 10, 46, 0
1, 59040, Note_on_c, 1, 34, 113
1, 59040, Note_on_c, 7, 62, 106
1, 59040, Note_on_c, 7, 65, 98
1, 59040, Note_on_c, 7, 70, 111
1, 59040, Note_on_c, 8, 53, 110
1, 59040, Note_on_c, 8, 58, 127
1, 59040, Note_on_c, 9, 39, 85
1, 59040, Note_on_c, 9, 40, 116
1, 59040, Note_on_c, 9, 42, 98
1, 59040, Note_on_c, 9, 54, 116
1, 59048, Note_on_c, 10, 46, 113
1, 59051, Note_on_c, 6, 46, 123
1, 59051, Note_on_c, 6, 53, 110
1, 59062, Lyric_t, "HEART "
1, 59062, Note_on_c, 3, 82, 127
1, 59068, Note_off_c, 9, 39, 0
1, 59068, Note_off_c, 9, 40, 0
1, 59068, Note_off_c, 9, 42, 0
1, 59068, Note_off_c, 9, 54, 0
1, 59102, Note_off_c, 7, 65, 0
1, 59105, Note_off_c, 7, 70, 0
1, 59112, Note_off_c, 7, 62, 0
1, 59117, Note_off_c, 6, 53, 0
1, 59121, Note_off_c, 8, 53, 0
1, 59124, Note_off_c, 6, 46, 0
1, 59129, Note_off_c, 8, 58, 0
1, 59255, Note_off_c, 3, 82, 0
1, 59259, Note_off_c, 1, 34, 0
1, 59267, Note_off_c, 10, 46, 0
1, 59280, Note_on_c, 1, 34, 118
1, 59280, Note_on_c, 7, 62, 106
1, 59280, Note_on_c, 7, 65, 98
1, 59280, Note_on_c, 7, 70, 105
1, 59280, Note_on_c, 8, 53, 115
1, 59280, Note_on_c, 8, 58, 123
1, 59280, Note_on_c, 9, 40, 116
1, 59280, Note_on_c, 9, 42, 98
1, 59288, Note_on_c, 10, 46, 118
1, 59291, Note_on_c, 6, 46, 127
1, 59291, Note_on_c, 6, 53, 125
1, 59293, Lyric_t, "IN"
1, 59293, Note_on_c, 3, 79, 106
1, 59308, Note_off_c, 9, 40, 0
1, 59308, Note_off_c, 9, 42, 0
1, 59336, Note_off_c, 7, 65, 0
1, 59339, Note_off_c, 7, 70, 0
1, 59352, Note_off_c, 6, 53, 0
1, 59352, Note_off_c, 7, 62, 0
1, 59362, Note_off_c, 6, 46, 0
1, 59365, Note_off_c, 8, 53, 0
1, 59368, Note_off_c, 8, 58, 0
1, 59394, Note_off_c, 3, 79, 0
1, 59400, Note_on_c, 9, 40, 116
1, 59428, Note_off_c, 9, 40, 0
1, 59491, Note_off_c, 7, 34, 0
1, 59491, Note_off_c, 7, 46, 0
1, 59499, Note_off_c, 1, 34, 0
1, 59507, Note_off_c, 10, 46, 0
1, 59520, Note_on_c, 1, 36, 113
1, 59520, Note_on_c, 4, 63, 116
1, 59520, Note_on_c, 4, 67, 102
1, 59520, Note_on_c, 4, 70, 102
1, 59520, Note_on_c, 7, 36, 115
1, 59520, Note_on_c, 7, 48, 115
1, 59520, Note_on_c, 7, 67, 106
1, 59520, Note_on_c, 7, 72, 125
1, 59520, Note_on_c, 7, 75, 116
1, 59520, Note_on_c, 8, 48, 125
1, 59520, Note_on_c, 8, 55, 115
1, 59520, Note_on_c, 8, 60, 120
1, 59520, Note_on_c, 9, 35, 116
1, 59520, Note_on_c, 9, 49, 98
1, 59528, Note_on_c, 10, 48, 113
1, 59531, Note_on_c, 6, 48, 127
1, 59531, Note_on_c, 6, 55, 125
1, 59534, Lyric_t, "SIDE"
1, 59534, Lyric_t, "\015"
1, 59534, Note_on_c, 3, 84, 115
1, 59548, Note_off_c, 9, 35, 0
1, 59548, Note_off_c, 9, 49, 0
1, 59557, Note_off_c, 7, 72, 0
1, 59558, Note_off_c, 7, 75, 0
1, 59571, Note_off_c, 6, 55, 0
1, 59573, Note_off_c, 7, 67, 0
1, 59581, Note_off_c, 6, 48, 0
1, 59613, Note_off_c, 8, 60, 0
1, 59615, Note_off_c, 8, 55, 0
1, 59644, Note_off_c, 4, 63, 0
1, 59646, Note_off_c, 4, 67, 0
1, 59646, Note_off_c, 4, 70, 0
1, 59702, Note_off_c, 8, 48, 0
1, 59739, Note_off_c, 1, 36, 0
1, 59747, Note_off_c, 10, 48, 0
1, 59760, Note_on_c, 1, 36, 113
1, 59760, Note_on_c, 4, 63, 116
1, 59760, Note_on_c, 4, 67, 87
1, 59760, Note_on_c, 4, 70, 87
1, 59760, Note_on_c, 7, 67, 77
1, 59760, Note_on_c, 7, 72, 106
1, 59760, Note_on_c, 7, 75, 86
1, 59760, Note_on_c, 8, 55, 90
1, 59760, Note_on_c, 8, 60, 102
1, 59760, Note_on_c, 9, 35, 116
1, 59760, Note_on_c, 9, 42, 98
1, 59768, Note_on_c, 10, 48, 113
1, 59771, Note_on_c, 6, 48, 125
1, 59771, Note_on_c, 6, 55, 125
1, 59788, Note_off_c, 9, 35, 0
1, 59788, Note_off_c, 9, 42, 0
1, 59791, Note_off_c, 7, 75, 0
1, 59797, Note_off_c, 7, 72, 0
1, 59804, Note_off_c, 6, 55, 0
1, 59810, Note_off_c, 7, 67, 0
1, 59820, Note_off_c, 6, 48, 0
1, 59822, Note_off_c, 8, 60, 0
1, 59829, Note_off_c, 8, 55, 0
1, 59870, Note_off_c, 4, 63, 0
1, 59871, Note_off_c, 4, 67, 0
1, 59871, Note_off_c, 4, 70, 0
1, 59979, Note_off_c, 1, 36, 0
1, 59987, Note_off_c, 10, 48, 0
1, 60000, Note_on_c, 1, 36, 118
1, 60000, Note_on_c, 4, 65, 102
1, 60000, Note_on_c, 4, 68, 123
1, 60000, Note_on_c, 4, 72, 123
1, 60000, Note_on_c, 7, 67, 120
1, 60000, Note_on_c, 7, 72, 127
1, 60000, Note_on_c, 7, 75, 127
1, 60000, Note_on_c, 8, 48, 127
1, 60000, Note_on_c, 8, 55, 125
1, 60000, Note_on_c, 8, 60, 127
1, 60000, Note_on_c, 9, 39, 85
1, 60000, Note_on_c, 9, 40, 116
1, 60000, Note_on_c, 9, 42, 98
1, 60000, Note_on_c, 9, 54, 116
1, 60008, Note_on_c, 10, 48, 118
1, 60011, Note_on_c, 6, 48, 127
1, 60011, Note_on_c, 6, 55, 127
1, 60028, Note_off_c, 9, 39, 0
1, 60028, Note_off_c, 9, 40, 0
1, 60028, Note_off_c, 9, 42, 0
1, 60028, Note_off_c, 9, 54, 0
1, 60062, Note_off_c, 6, 55, 0
1, 60068, Control_c, 3, 1, 0
1, 60069, Note_off_c, 7, 72, 0
1, 60074, Note_off_c, 7, 75, 0
1, 60078, Note_off_c, 7, 67, 0
1, 60078, Control_c, 3, 1, 4
1, 60092, Note_off_c, 6, 48, 0
1, 60108, Control_c, 3, 1, 8
1, 60138, Control_c, 3, 1, 13
1, 60141, Note_off_c, 8, 55, 0
1, 60162, Note_off_c, 8, 60, 0
1, 60168, Control_c, 3, 1, 17
1, 60175, Note_off_c, 8, 48, 0
1, 60198, Control_c, 3, 1, 22
1, 60219, Note_off_c, 1, 36, 0
1, 60227, Note_off_c, 10, 48, 0
1, 60228, Control_c, 3, 1, 26
1, 60229, Control_c, 3, 1, 27
1, 60240, Note_on_c, 1, 36, 113
1, 60240, Note_on_c, 7, 67, 74
1, 60240, Note_on_c, 7, 72, 98
1, 60240, Note_on_c, 7, 75, 97
1, 60240, Note_on_c, 8, 55, 102
1, 60240, Note_on_c, 8, 60, 115
1, 60240, Note_on_c, 9, 42, 98
1, 60244, Control_c, 3, 1, 32
1, 60248, Note_on_c, 10, 48, 113
1, 60251, Note_on_c, 6, 48, 125
1, 60251, Note_on_c, 6, 55, 120
1, 60259, Control_c, 3, 1, 38
1, 60268, Note_off_c, 4, 68, 0
1, 60268, Note_off_c, 4, 72, 0
1, 60268, Note_off_c, 9, 42, 0
1, 60274, Control_c, 3, 1, 43
1, 60288, Note_off_c, 4, 65, 0
1, 60289, Control_c, 3, 1, 49
1, 60293, Note_off_c, 6, 55, 0
1, 60304, Control_c, 3, 1, 54
1, 60305, Note_off_c, 7, 72, 0
1, 60311, Note_off_c, 7, 75, 0
1, 60319, Note_off_c, 6, 48, 0
1, 60319, Control_c, 3, 1, 60
1, 60320, Note_off_c, 7, 67, 0
1, 60322, Control_c, 3, 1, 61
1, 60332, Note_off_c, 8, 60, 0
1, 60335, Note_off_c, 8, 55, 0
1, 60337, Control_c, 3, 1, 66
1, 60352, Control_c, 3, 1, 71
1, 60354, Control_c, 3, 1, 72
1, 60360, Note_on_c, 4, 63, 123
1, 60360, Note_on_c, 4, 67, 115
1, 60360, Note_on_c, 4, 70, 115
1, 60369, Control_c, 3, 1, 77
1, 60384, Control_c, 3, 1, 82
1, 60392, Control_c, 3, 1, 85
1, 60422, Control_c, 3, 1, 89
1, 60423, Control_c, 3, 1, 90
1, 60459, Note_off_c, 1, 36, 0
1, 60459, Note_off_c, 4, 63, 0
1, 60460, Note_off_c, 4, 67, 0
1, 60460, Note_off_c, 4, 70, 0
1, 60467, Note_off_c, 10, 48, 0
1, 60480, Note_on_c, 1, 36, 113
1, 60480, Note_on_c, 7, 67, 106
1, 60480, Note_on_c, 7, 72, 127
1, 60480, Note_on_c, 7, 75, 116
1, 60480, Note_on_c, 8, 55, 115
1, 60480, Note_on_c, 8, 60, 127
1, 60480, Note_on_c, 9, 35, 116
1, 60480, Note_on_c, 9, 42, 98
1, 60488, Note_on_c, 10, 48, 113
1, 60491, Note_on_c, 6, 48, 127
1, 60491, Note_on_c, 6, 55, 120
1, 60497, Control_c, 3, 1, 90
1, 60507, Control_c, 3, 1, 79
1, 60508, Note_off_c, 9, 35, 0
1, 60508, Note_off_c, 9, 42, 0
1, 60522, Control_c, 3, 1, 40
1, 60537, Control_c, 3, 1, 0
1, 60548, Note_off_c, 6, 55, 0
1, 60549, Note_off_c, 7, 72, 0
1, 60556, Note_off_c, 7, 75, 0
1, 60558, Note_off_c, 7, 67, 0
1, 60565, Note_off_c, 6, 48, 0
1, 60604, Note_off_c, 8, 60, 0
1, 60608, Note_off_c, 8, 55, 0
1, 60656, Note_off_c, 3, 84, 0
1, 60699, Note_off_c, 1, 36, 0
1, 60707, Note_off_c, 10, 48, 0
1, 60720, Note_on_c, 1, 36, 118
1, 60720, Note_on_c, 7, 67, 71
1, 60720, Note_on_c, 7, 72, 90
1, 60720, Note_on_c, 7, 75, 81
1, 60720, Note_on_c, 8, 55, 83
1, 60720, Note_on_c, 8, 60, 102
1, 60720, Note_on_c, 9, 35, 116
1, 60720, Note_on_c, 9, 42, 98
1, 60728, Note_on_c, 10, 48, 118
1, 60731, Note_on_c, 6, 48, 120
1, 60731, Note_on_c, 6, 55, 115
1, 60735, Lyric_t, "OF "
1, 60735, Note_on_c, 3, 84, 106
1, 60748, Note_off_c, 9, 35, 0
1, 60748, Note_off_c, 9, 42, 0
1, 60767, Note_off_c, 7, 72, 0
1, 60767, Note_off_c, 7, 75, 0
1, 60768, Note_off_c, 6, 55, 0
1, 60777, Note_off_c, 6, 48, 0
1, 60777, Note_off_c, 8, 60, 0
1, 60784, Note_off_c, 7, 67, 0
1, 60793, Note_off_c, 8, 55, 0
1, 60933, Note_off_c, 3, 84, 0
1, 60939, Note_off_c, 1, 36, 0
1, 60947, Note_off_c, 10, 48, 0
1, 60960, Note_on_c, 1, 36, 113
1, 60960, Note_on_c, 7, 67, 115
1, 60960, Note_on_c, 7, 72, 127
1, 60960, Note_on_c, 7, 75, 123
1, 60960, Note_on_c, 8, 48, 127
1, 60960, Note_on_c, 8, 55, 125
1, 60960, Note_on_c, 8, 60, 127
1, 60960, Note_on_c, 9, 39, 85
1, 60960, Note_on_c, 9, 40, 116
1, 60960, Note_on_c, 9, 42, 98
1, 60960, Note_on_c, 9, 54, 116
1, 60968, Note_on_c, 10, 48, 113
1, 60971, Note_on_c, 6, 48, 127
1, 60971, Note_on_c, 6, 55, 125
1, 60988, Note_off_c, 9, 39, 0
1, 60988, Note_off_c, 9, 40, 0
1, 60988, Note_off_c, 9, 42, 0
1, 60988, Note_off_c, 9, 54, 0
1, 60991, Lyric_t, "YOUR "
1, 60991, Note_on_c, 3, 84, 125
1, 61018, Pitch_bend_c, 3, 8712
1, 61028, Pitch_bend_c, 3, 9882
1, 61032, Note_off_c, 6, 55, 0
1, 61033, Note_off_c, 7, 72, 0
1, 61038, Pitch_bend_c, 3, 11572
1, 61048, Note_off_c, 7, 75, 0
1, 61048, Pitch_bend_c, 3, 13912
1, 61049, Note_off_c, 6, 48, 0
1, 61050, Note_off_c, 7, 67, 0
1, 61058, Pitch_bend_c, 3, 16383
1, 61070, Note_off_c, 8, 60, 0
1, 61074, Note_off_c, 8, 55, 0
1, 61161, Note_off_c, 3, 84, 0
1, 61171, Pitch_bend_c, 3, 14562
1, 61179, Note_off_c, 1, 36, 0
1, 61182, Pitch_bend_c, 3, 8192
1, 61187, Note_off_c, 10, 48, 0
1, 61200, Note_on_c, 1, 36, 118
1, 61200, Note_on_c, 7, 67, 106
1, 61200, Note_on_c, 7, 72, 115
1, 61200, Note_on_c, 7, 75, 105
1, 61200, Note_on_c, 8, 55, 98
1, 61200, Note_on_c, 8, 60, 115
1, 61200, Note_on_c, 9, 42, 98
1, 61208, Note_on_c, 10, 48, 118
1, 61211, Note_on_c, 6, 48, 125
1, 61211, Note_on_c, 6, 55, 125
1, 61213, Lyric_t, "HAND"
1, 61213, Lyric_t, "\015"
1, 61213, Note_on_c, 3, 82, 123
1, 61228, Note_off_c, 9, 42, 0
1, 61262, Note_off_c, 7, 72, 0
1, 61269, Note_off_c, 6, 55, 0
1, 61271, Note_off_c, 7, 75, 0
1, 61278, Note_off_c, 8, 60, 0
1, 61282, Note_off_c, 7, 67, 0
1, 61298, Note_off_c, 8, 55, 0
1, 61309, Note_off_c, 6, 48, 0
1, 61411, Note_off_c, 7, 36, 0
1, 61411, Note_off_c, 7, 48, 0
1, 61412, Note_off_c, 8, 48, 0
1, 61419, Note_off_c, 1, 36, 0
1, 61427, Note_off_c, 10, 48, 0
1, 61440, Note_on_c, 1, 34, 113
1, 61440, Note_on_c, 4, 63, 116
1, 61440, Note_on_c, 4, 67, 102
1, 61440, Note_on_c, 4, 70, 102
1, 61440, Note_on_c, 7, 34, 115
1, 61440, Note_on_c, 7, 46, 115
1, 61440, Note_on_c, 7, 65, 83
1, 61440, Note_on_c, 7, 70, 105
1, 61440, Note_on_c, 7, 74, 102
1, 61440, Note_on_c, 8, 53, 90
1, 61440, Note_on_c, 8, 58, 123
1, 61440, Note_on_c, 9, 35, 116
1, 61440, Note_on_c, 9, 42, 98
1, 61448, Note_on_c, 10, 46, 113
1, 61451, Note_on_c, 6, 46, 127
1, 61451, Note_on_c, 6, 53, 115
1, 61468, Note_off_c, 9, 35, 0
1, 61468, Note_off_c, 9, 42, 0
1, 61503, Note_off_c, 7, 74, 0
1, 61514, Note_off_c, 6, 53, 0
1, 61514, Note_off_c, 7, 65, 0
1, 61515, Note_off_c, 7, 70, 0
1, 61521, Note_off_c, 6, 46, 0
1, 61547, Note_off_c, 8, 53, 0
1, 61553, Note_off_c, 8, 58, 0
1, 61564, Note_off_c, 4, 63, 0
1, 61566, Note_off_c, 4, 67, 0
1, 61566, Note_off_c, 4, 70, 0
1, 61659, Note_off_c, 1, 34, 0
1, 61667, Note_off_c, 10, 46, 0
1, 61680, Note_on_c, 1, 34, 113
1, 61680, Note_on_c, 4, 63, 116
1, 61680, Note_on_c, 4, 67, 87
1, 61680, Note_on_c, 4, 70, 87
1, 61680, Note_on_c, 7, 65, 63
1, 61680, Note_on_c, 7, 70, 81
1, 61680, Note_on_c, 7, 74, 56
1, 61680, Note_on_c, 8, 53, 67
1, 61680, Note_on_c, 8, 58, 86
1, 61680, Note_on_c, 9, 35, 116
1, 61680, Note_on_c, 9, 42, 98
1, 61688, Note_on_c, 10, 46, 113
1, 61691, Note_on_c, 6, 46, 123
1, 61691, Note_on_c, 6, 53, 120
1, 61708, Note_off_c, 9, 35, 0
1, 61708, Note_off_c, 9, 42, 0
1, 61717, Note_off_c, 7, 74, 0
1, 61732, Note_off_c, 7, 65, 0
1, 61733, Note_off_c, 8, 58, 0
1, 61734, Note_off_c, 7, 70, 0
1, 61750, Note_off_c, 6, 53, 0
1, 61752, Note_off_c, 8, 53, 0
1, 61753, Note_off_c, 6, 46, 0
1, 61790, Note_off_c, 4, 63, 0
1, 61791, Note_off_c, 4, 67, 0
1, 61791, Note_off_c, 4, 70, 0
1, 61899, Note_off_c, 1, 34, 0
1, 61907, Note_off_c, 10, 46, 0
1, 61920, Note_on_c, 1, 34, 118
1, 61920, Note_on_c, 4, 65, 102
1, 61920, Note_on_c, 4, 68, 123
1, 61920, Note_on_c, 4, 72, 123
1, 61920, Note_on_c, 7, 65, 106
1, 61920, Note_on_c, 7, 70, 116
1, 61920, Note_on_c, 7, 74, 115
1, 61920, Note_on_c, 8, 46, 127
1, 61920, Note_on_c, 8, 53, 110
1, 61920, Note_on_c, 8, 58, 127
1, 61920, Note_on_c, 9, 39, 85
1, 61920, Note_on_c, 9, 40, 116
1, 61920, Note_on_c, 9, 42, 98
1, 61920, Note_on_c, 9, 54, 116
1, 61928, Note_on_c, 10, 46, 118
1, 61931, Note_on_c, 6, 46, 127
1, 61931, Note_on_c, 6, 53, 125
1, 61948, Note_off_c, 9, 39, 0
1, 61948, Note_off_c, 9, 40, 0
1, 61948, Note_off_c, 9, 42, 0
1, 61948, Note_off_c, 9, 54, 0
1, 61967, Note_off_c, 3, 82, 0
1, 61990, Note_off_c, 7, 65, 0
1, 61990, Note_off_c, 7, 70, 0
1, 62003, Note_off_c, 7, 74, 0
1, 62009, Note_off_c, 6, 53, 0
1, 62037, Note_off_c, 6, 46, 0
1, 62050, Note_off_c, 8, 53, 0
1, 62051, Note_off_c, 8, 58, 0
1, 62139, Note_off_c, 1, 34, 0
1, 62147, Note_off_c, 10, 46, 0
1, 62160, Note_on_c, 1, 34, 113
1, 62160, Note_on_c, 7, 65, 74
1, 62160, Note_on_c, 7, 70, 93
1, 62160, Note_on_c, 7, 74, 83
1, 62160, Note_on_c, 8, 53, 80
1, 62160, Note_on_c, 8, 58, 116
1, 62160, Note_on_c, 9, 42, 98
1, 62168, Note_on_c, 10, 46, 113
1, 62171, Note_on_c, 6, 46, 111
1, 62171, Note_on_c, 6, 53, 106
1, 62188, Note_off_c, 4, 68, 0
1, 62188, Note_off_c, 4, 72, 0
1, 62188, Note_off_c, 9, 42, 0
1, 62208, Note_off_c, 4, 65, 0
1, 62226, Note_off_c, 7, 65, 0
1, 62228, Note_off_c, 7, 70, 0
1, 62236, Note_off_c, 6, 53, 0
1, 62236, Note_off_c, 7, 74, 0
1, 62240, Note_off_c, 6, 46, 0
1, 62249, Note_off_c, 8, 53, 0
1, 62257, Note_off_c, 8, 58, 0
1, 62280, Note_on_c, 4, 63, 123
1, 62280, Note_on_c, 4, 67, 115
1, 62280, Note_on_c, 4, 70, 115
1, 62379, Note_off_c, 1, 34, 0
1, 62379, Note_off_c, 4, 63, 0
1, 62380, Note_off_c, 4, 67, 0
1, 62380, Note_off_c, 4, 70, 0
1, 62387, Note_off_c, 10, 46, 0
1, 62400, Note_on_c, 1, 34, 113
1, 62400, Note_on_c, 7, 65, 90
1, 62400, Note_on_c, 7, 70, 101
1, 62400, Note_on_c, 7, 74, 98
1, 62400, Note_on_c, 8, 53, 90
1, 62400, Note_on_c, 8, 58, 123
1, 62400, Note_on_c, 9, 35, 116
1, 62400, Note_on_c, 9, 42, 98
1, 62408, Note_on_c, 10, 46, 113
1, 62411, Note_on_c, 6, 46, 127
1, 62411, Note_on_c, 6, 53, 120
1, 62428, Note_off_c, 9, 35, 0
1, 62428, Note_off_c, 9, 42, 0
1, 62466, Note_off_c, 7, 65, 0
1, 62469, Note_off_c, 7, 70, 0
1, 62484, Note_off_c, 7, 74, 0
1, 62487, Note_off_c, 6, 53, 0
1, 62493, Note_off_c, 6, 46, 0
1, 62497, Note_off_c, 8, 53, 0
1, 62509, Note_off_c, 8, 58, 0
1, 62619, Note_off_c, 1, 34, 0
1, 62627, Note_off_c, 10, 46, 0
1, 62636, Lyric_t, "AND "
1, 62636, Note_on_c, 3, 79, 120
1, 62640, Note_on_c, 1, 34, 118
1, 62640, Note_on_c, 7, 65, 74
1, 62640, Note_on_c, 7, 70, 89
1, 62640, Note_on_c, 7, 74, 90
1, 62640, Note_on_c, 8, 53, 63
1, 62640, Note_on_c, 8, 58, 97
1, 62640, Note_on_c, 9, 35, 116
1, 62640, Note_on_c, 9, 46, 98
1, 62641, Note_off_c, 8, 46, 0
1, 62648, Note_on_c, 10, 46, 118
1, 62651, Note_on_c, 6, 46, 116
1, 62651, Note_on_c, 6, 53, 110
1, 62668, Note_off_c, 9, 35, 0
1, 62668, Note_off_c, 9, 46, 0
1, 62685, Note_off_c, 8, 58, 0
1, 62691, Note_off_c, 8, 53, 0
1, 62698, Note_off_c, 7, 70, 0
1, 62700, Note_off_c, 7, 65, 0
1, 62712, Note_off_c, 7, 74, 0
1, 62716, Note_off_c, 6, 53, 0
1, 62720, Note_off_c, 6, 46, 0
1, 62807, Note_off_c, 3, 79, 0
1, 62859, Note_off_c, 1, 34, 0
1, 62861, Lyric_t, "YOU "
1, 62861, Note_on_c, 3, 79, 120
1, 62867, Note_off_c, 10, 46, 0
1, 62880, Note_on_c, 1, 34, 113
1, 62880, Note_on_c, 7, 65, 98
1, 62880, Note_on_c, 7, 70, 111
1, 62880, Note_on_c, 7, 74, 106
1, 62880, Note_on_c, 8, 46, 123
1, 62880, Note_on_c, 8, 53, 102
1, 62880, Note_on_c, 8, 58, 127
1, 62880, Note_on_c, 9, 39, 85
1, 62880, Note_on_c, 9, 40, 116
1, 62880, Note_on_c, 9, 42, 98
1, 62880, Note_on_c, 9, 54, 116
1, 62888, Note_on_c, 10, 46, 113
1, 62891, Note_on_c, 6, 46, 127
1, 62891, Note_on_c, 6, 53, 120
1, 62908, Note_off_c, 9, 39, 0
1, 62908, Note_off_c, 9, 40, 0
1, 62908, Note_off_c, 9, 42, 0
1, 62908, Note_off_c, 9, 54, 0
1, 62942, Note_off_c, 7, 65, 0
1, 62945, Note_off_c, 7, 70, 0
1, 62952, Note_off_c, 7, 74, 0
1, 62963, Note_off_c, 6, 53, 0
1, 62970, Note_off_c, 6, 46, 0
1, 62983, Note_off_c, 8, 53, 0
1, 62997, Note_off_c, 8, 58, 0
1, 63059, Note_off_c, 3, 79, 0
1, 63099, Note_off_c, 1, 34, 0
1, 63107, Note_off_c, 10, 46, 0
1, 63120, Lyric_t, "PLAYED "
1, 63120, Note_on_c, 1, 34, 118
1, 63120, Note_on_c, 3, 80, 123
1, 63120, Note_on_c, 7, 65, 98
1, 63120, Note_on_c, 7, 70, 105
1, 63120, Note_on_c, 7, 74, 106
1, 63120, Note_on_c, 8, 53, 98
1, 63120, Note_on_c, 8, 58, 111
1, 63120, Note_on_c, 9, 42, 98
1, 63128, Note_on_c, 10, 46, 118
1, 63131, Note_on_c, 6, 46, 123
1, 63131, Note_on_c, 6, 53, 115
1, 63148, Note_off_c, 9, 42, 0
1, 63176, Note_off_c, 7, 65, 0
1, 63179, Note_off_c, 7, 70, 0
1, 63183, Note_off_c, 8, 58, 0
1, 63192, Note_off_c, 7, 74, 0
1, 63202, Note_off_c, 6, 46, 0
1, 63211, Note_off_c, 6, 53, 0
1, 63213, Note_off_c, 8, 53, 0
1, 63331, Note_off_c, 7, 34, 0
1, 63331, Note_off_c, 7, 46, 0
1, 63339, Note_off_c, 1, 34, 0
1, 63347, Note_off_c, 10, 46, 0
1, 63353, Note_off_c, 8, 46, 0
1, 63360, Note_on_c, 1, 32, 113
1, 63360, Note_on_c, 4, 63, 116
1, 63360, Note_on_c, 4, 67, 102
1, 63360, Note_on_c, 4, 70, 102
1, 63360, Note_on_c, 7, 32, 115
1, 63360, Note_on_c, 7, 44, 115
1, 63360, Note_on_c, 7, 60, 125
1, 63360, Note_on_c, 7, 63, 116
1, 63360, Note_on_c, 7, 67, 115
1, 63360, Note_on_c, 8, 51, 127
1, 63360, Note_on_c, 8, 56, 123
1, 63360, Note_on_c, 9, 35, 116
1, 63360, Note_on_c, 9, 42, 98
1, 63368, Note_on_c, 10, 44, 113
1, 63371, Note_on_c, 6, 44, 116
1, 63371, Note_on_c, 6, 51, 127
1, 63388, Note_off_c, 9, 35, 0
1, 63388, Note_off_c, 9, 42, 0
1, 63417, Note_off_c, 7, 63, 0
1, 63420, Note_off_c, 7, 60, 0
1, 63429, Note_off_c, 7, 67, 0
1, 63432, Note_off_c, 6, 51, 0
1, 63474, Note_off_c, 6, 44, 0
1, 63484, Note_off_c, 4, 63, 0
1, 63485, Note_off_c, 8, 51, 0
1, 63486, Note_off_c, 4, 67, 0
1, 63486, Note_off_c, 4, 70, 0
1, 63494, Note_off_c, 3, 80, 0
1, 63513, Note_off_c, 8, 56, 0
1, 63579, Note_off_c, 1, 32, 0
1, 63587, Note_off_c, 10, 44, 0
1, 63600, Note_on_c, 1, 32, 113
1, 63600, Note_on_c, 4, 63, 116
1, 63600, Note_on_c, 4, 67, 87
1, 63600, Note_on_c, 4, 70, 87
1, 63600, Note_on_c, 7, 60, 110
1, 63600, Note_on_c, 7, 63, 105
1, 63600, Note_on_c, 7, 67, 102
1, 63600, Note_on_c, 8, 51, 101
1, 63600, Note_on_c, 8, 56, 86
1, 63600, Note_on_c, 9, 35, 116
1, 63600, Note_on_c, 9, 42, 98
1, 63608, Note_on_c, 10, 44, 113
1, 63609, Lyric_t, "IT"
1, 63609, Lyric_t, "\015"
1, 63609, Note_on_c, 3, 80, 123
1, 63611, Note_on_c, 6, 44, 116
1, 63611, Note_on_c, 6, 51, 116
1, 63628, Note_off_c, 9, 35, 0
1, 63628, Note_off_c, 9, 42, 0
1, 63642, Note_off_c, 7, 60, 0
1, 63646, Note_off_c, 7, 63, 0
1, 63646, Note_off_c, 8, 56, 0
1, 63651, Note_off_c, 7, 67, 0
1, 63656, Note_off_c, 6, 51, 0
1, 63656, Note_off_c, 8, 51, 0
1, 63679, Note_off_c, 6, 44, 0
1, 63710, Note_off_c, 4, 63, 0
1, 63711, Note_off_c, 4, 67, 0
1, 63711, Note_off_c, 4, 70, 0
1, 63730, Note_off_c, 3, 80, 0
1, 63819, Note_off_c, 1, 32, 0
1, 63827, Note_off_c, 10, 44, 0
1, 63840, Note_on_c, 1, 32, 118
1, 63840, Note_on_c, 4, 65, 102
1, 63840, Note_on_c, 4, 68, 123
1, 63840, Note_on_c, 4, 72, 123
1, 63840, Note_on_c, 7, 60, 127
1, 63840, Note_on_c, 7, 63, 123
1, 63840, Note_on_c, 7, 67, 125
1, 63840, Note_on_c, 8, 44, 123
1, 63840, Note_on_c, 8, 51, 127
1, 63840, Note_on_c, 8, 54, 123
1, 63840, Note_on_c, 8, 56, 127
1, 63840, Note_on_c, 9, 39, 85
1, 63840, Note_on_c, 9, 40, 116
1, 63840, Note_on_c, 9, 42, 98
1, 63840, Note_on_c, 9, 54, 116
1, 63848, Note_on_c, 10, 44, 118
1, 63851, Note_on_c, 6, 44, 127
1, 63851, Note_on_c, 6, 51, 127
1, 63855, Note_off_c, 8, 54, 0
1, 63868, Note_off_c, 9, 39, 0
1, 63868, Note_off_c, 9, 40, 0
1, 63868, Note_off_c, 9, 42, 0
1, 63868, Note_off_c, 9, 54, 0
1, 63898, Note_off_c, 7, 60, 0
1, 63900, Note_off_c, 7, 63, 0
1, 63913, Note_off_c, 6, 51, 0
1, 63915, Note_off_c, 7, 67, 0
1, 63927, Note_off_c, 8, 51, 0
1, 63947, Note_off_c, 6, 44, 0
1, 63952, Note_off_c, 8, 56, 0
1, 64059, Note_off_c, 1, 32, 0
1, 64067, Note_off_c, 10, 44, 0
1, 64080, Note_on_c, 1, 32, 113
1, 64080, Note_on_c, 7, 60, 125
1, 64080, Note_on_c, 7, 63, 111
1, 64080, Note_on_c, 7, 67, 102
1, 64080, Note_on_c, 8, 51, 111
1, 64080, Note_on_c, 8, 56, 101
1, 64080, Note_on_c, 9, 42, 98
1, 64088, Note_on_c, 10, 44, 113
1, 64091, Note_on_c, 6, 44, 116
1, 64091, Note_on_c, 6, 51, 116
1, 64108, Note_off_c, 4, 68, 0
1, 64108, Note_off_c, 4, 72, 0
1, 64108, Note_off_c, 9, 42, 0
1, 64128, Note_off_c, 4, 65, 0
1, 64133, Note_off_c, 7, 60, 0
1, 64133, Note_off_c, 7, 63, 0
1, 64141, Note_off_c, 7, 67, 0
1, 64147, Note_off_c, 6, 51, 0
1, 64155, Note_off_c, 8, 51, 0
1, 64157, Note_off_c, 8, 56, 0
1, 64173, Note_off_c, 6, 44, 0
1, 64200, Note_on_c, 4, 63, 123
1, 64200, Note_on_c, 4, 67, 115
1, 64200, Note_on_c, 4, 70, 115
1, 64299, Note_off_c, 1, 32, 0
1, 64299, Note_off_c, 4, 63, 0
1, 64300, Note_off_c, 4, 67, 0
1, 64300, Note_off_c, 4, 70, 0
1, 64307, Note_off_c, 10, 44, 0
1, 64320, Note_on_c, 1, 32, 113
1, 64320, Note_on_c, 7, 60, 120
1, 64320, Note_on_c, 7, 63, 116
1, 64320, Note_on_c, 7, 67, 110
1, 64320, Note_on_c, 8, 51, 123
1, 64320, Note_on_c, 8, 54, 86
1, 64320, Note_on_c, 8, 56, 116
1, 64320, Note_on_c, 9, 35, 116
1, 64320, Note_on_c, 9, 42, 98
1, 64326, Note_off_c, 8, 54, 0
1, 64328, Note_on_c, 10, 44, 113
1, 64331, Note_on_c, 6, 44, 123
1, 64331, Note_on_c, 6, 51, 127
1, 64348, Note_off_c, 9, 35, 0
1, 64348, Note_off_c, 9, 42, 0
1, 64374, Note_off_c, 7, 60, 0
1, 64381, Note_off_c, 7, 63, 0
1, 64389, Note_off_c, 7, 67, 0
1, 64393, Note_off_c, 8, 51, 0
1, 64396, Note_off_c, 6, 51, 0
1, 64408, Note_off_c, 8, 56, 0
1, 64421, Note_off_c, 6, 44, 0
1, 64539, Note_off_c, 1, 32, 0
1, 64547, Lyric_t, "TO "
1, 64547, Note_off_c, 10, 44, 0
1, 64547, Note_on_c, 3, 79, 125
1, 64560, Note_on_c, 1, 32, 118
1, 64560, Note_on_c, 7, 60, 115
1, 64560, Note_on_c, 7, 63, 111
1, 64560, Note_on_c, 7, 67, 106
1, 64560, Note_on_c, 8, 51, 101
1, 64560, Note_on_c, 8, 56, 75
1, 64560, Note_on_c, 9, 35, 116
1, 64560, Note_on_c, 9, 42, 98
1, 64568, Note_on_c, 10, 44, 118
1, 64571, Note_on_c, 6, 44, 123
1, 64571, Note_on_c, 6, 51, 123
1, 64588, Note_off_c, 9, 35, 0
1, 64588, Note_off_c, 9, 42, 0
1, 64594, Note_off_c, 8, 56, 0
1, 64599, Note_off_c, 8, 51, 0
1, 64616, Note_off_c, 7, 60, 0
1, 64621, Note_off_c, 7, 63, 0
1, 64627, Note_off_c, 6, 51, 0
1, 64634, Note_off_c, 7, 67, 0
1, 64643, Note_off_c, 6, 44, 0
1, 64741, Note_off_c, 3, 79, 0
1, 64779, Note_off_c, 1, 32, 0
1, 64787, Note_off_c, 10, 44, 0
1, 64796, Lyric_t, "THE "
1, 64796, Note_on_c, 3, 79, 115
1, 64800, Note_on_c, 1, 32, 113
1, 64800, Note_on_c, 7, 60, 120
1, 64800, Note_on_c, 7, 63, 116
1, 64800, Note_on_c, 7, 67, 90
1, 64800, Note_on_c, 8, 51, 127
1, 64800, Note_on_c, 8, 56, 127
1, 64800, Note_on_c, 9, 39, 85
1, 64800, Note_on_c, 9, 40, 116
1, 64800, Note_on_c, 9, 42, 98
1, 64800, Note_on_c, 9, 54, 116
1, 64808, Note_on_c, 10, 44, 113
1, 64811, Note_on_c, 6, 44, 127
1, 64811, Note_on_c, 6, 51, 127
1, 64828, Note_off_c, 9, 39, 0
1, 64828, Note_off_c, 9, 40, 0
1, 64828, Note_off_c, 9, 42, 0
1, 64828, Note_off_c, 9, 54, 0
1, 64855, Note_off_c, 7, 60, 0
1, 64860, Note_off_c, 7, 63, 0
1, 64870, Note_off_c, 7, 67, 0
1, 64875, Note_off_c, 6, 51, 0
1, 64890, Note_off_c, 8, 51, 0
1, 64891, Note_off_c, 6, 44, 0
1, 64892, Note_off_c, 3, 79, 0
1, 64904, Note_off_c, 8, 56, 0
1, 65019, Note_off_c, 1, 32, 0
1, 65027, Note_off_c, 10, 44, 0
1, 65036, Note_off_c, 8, 44, 0
1, 65038, Lyric_t, "BEA"
1, 65038, Note_on_c, 3, 80, 116
1, 65040, Note_on_c, 1, 32, 118
1, 65040, Note_on_c, 7, 60, 120
1, 65040, Note_on_c, 7, 63, 116
1, 65040, Note_on_c, 7, 67, 110
1, 65040, Note_on_c, 8, 51, 116
1, 65040, Note_on_c, 8, 56, 111
1, 65040, Note_on_c, 9, 42, 98
1, 65048, Note_on_c, 10, 44, 118
1, 65051, Note_on_c, 6, 44, 123
1, 65051, Note_on_c, 6, 51, 123
1, 65068, Note_off_c, 9, 42, 0
1, 65091, Note_off_c, 8, 51, 0
1, 65095, Note_off_c, 7, 60, 0
1, 65102, Note_off_c, 7, 63, 0
1, 65109, Note_off_c, 6, 51, 0
1, 65109, Note_off_c, 7, 67, 0
1, 65109, Note_off_c, 8, 56, 0
1, 65116, Note_off_c, 6, 44, 0
1, 65229, Note_off_c, 3, 80, 0
1, 65251, Note_off_c, 7, 32, 0
1, 65251, Note_off_c, 7, 44, 0
1, 65257, Note_on_c, 3, 79, 110
1, 65259, Note_off_c, 1, 32, 0
1, 65267, Note_off_c, 10, 44, 0
1, 65280, Note_on_c, 1, 32, 113
1, 65280, Note_on_c, 4, 63, 116
1, 65280, Note_on_c, 4, 67, 102
1, 65280, Note_on_c, 4, 70, 102
1, 65280, Note_on_c, 7, 32, 115
1, 65280, Note_on_c, 7, 44, 115
1, 65280, Note_on_c, 7, 60, 125
1, 65280, Note_on_c, 7, 63, 111
1, 65280, Note_on_c, 7, 67, 110
1, 65280, Note_on_c, 8, 44, 116
1, 65280, Note_on_c, 8, 51, 127
1, 65280, Note_on_c, 8, 54, 116
1, 65280, Note_on_c, 8, 56, 127
1, 65280, Note_on_c, 9, 35, 116
1, 65280, Note_on_c, 9, 42, 98
1, 65288, Note_on_c, 10, 44, 113
1, 65289, Note_off_c, 8, 54, 0
1, 65291, Note_on_c, 6, 44, 123
1, 65291, Note_on_c, 6, 51, 127
1, 65308, Note_off_c, 9, 35, 0
1, 65308, Note_off_c, 9, 42, 0
1, 65334, Note_off_c, 7, 60, 0
1, 65336, Note_off_c, 7, 63, 0
1, 65346, Note_off_c, 7, 67, 0
1, 65354, Note_off_c, 8, 51, 0
1, 65357, Note_off_c, 6, 51, 0
1, 65374, Note_off_c, 8, 56, 0
1, 65378, Note_off_c, 6, 44, 0
1, 65404, Note_off_c, 4, 63, 0
1, 65406, Note_off_c, 4, 67, 0
1, 65406, Note_off_c, 4, 70, 0
1, 65485, Note_off_c, 3, 79, 0
1, 65499, Note_off_c, 1, 32, 0
1, 65507, Note_off_c, 10, 44, 0
1, 65519, Note_on_c, 3, 77, 87
1, 65520, Note_on_c, 1, 32, 113
1, 65520, Note_on_c, 4, 63, 116
1, 65520, Note_on_c, 4, 67, 87
1, 65520, Note_on_c, 4, 70, 87
1, 65520, Note_on_c, 7, 60, 106
1, 65520, Note_on_c, 7, 63, 101
1, 65520, Note_on_c, 7, 67, 95
1, 65520, Note_on_c, 8, 51, 123
1, 65520, Note_on_c, 8, 54, 89
1, 65520, Note_on_c, 8, 56, 116
1, 65520, Note_on_c, 9, 35, 116
1, 65520, Note_on_c, 9, 42, 98
1, 65524, Note_off_c, 8, 54, 0
1, 65528, Note_on_c, 10, 44, 113
1, 65531, Note_on_c, 6, 44, 123
1, 65531, Note_on_c, 6, 51, 127
1, 65548, Note_off_c, 9, 35, 0
1, 65548, Note_off_c, 9, 42, 0
1, 65570, Note_off_c, 8, 51, 0
1, 65572, Note_off_c, 8, 56, 0
1, 65576, Note_off_c, 7, 60, 0
1, 65582, Note_off_c, 7, 63, 0
1, 65587, Note_off_c, 7, 67, 0
1, 65590, Note_off_c, 6, 51, 0
1, 65612, Note_off_c, 6, 44, 0
1, 65630, Note_off_c, 4, 63, 0
1, 65631, Note_off_c, 4, 67, 0
1, 65631, Note_off_c, 4, 70, 0
1, 65739, Note_off_c, 1, 32, 0
1, 65747, Note_off_c, 10, 44, 0
1, 65760, Note_on_c, 1, 32, 118
1, 65760, Note_on_c, 4, 65, 102
1, 65760, Note_on_c, 4, 68, 123
1, 65760, Note_on_c, 4, 72, 123
1, 65760, Note_on_c, 7, 60, 125
1, 65760, Note_on_c, 7, 63, 116
1, 65760, Note_on_c, 7, 67, 110
1, 65760, Note_on_c, 8, 51, 127
1, 65760, Note_on_c, 8, 54, 97
1, 65760, Note_on_c, 8, 56, 127
1, 65760, Note_on_c, 9, 39, 85
1, 65760, Note_on_c, 9, 40, 116
1, 65760, Note_on_c, 9, 42, 98
1, 65760, Note_on_c, 9, 54, 116
1, 65764, Note_off_c, 8, 54, 0
1, 65768, Note_off_c, 3, 77, 0
1, 65768, Note_on_c, 10, 44, 118
1, 65771, Lyric_t, "T"
1, 65771, Lyric_t, "\015"
1, 65771, Note_on_c, 3, 75, 116
1, 65771, Note_on_c, 6, 44, 127
1, 65771, Note_on_c, 6, 51, 127
1, 65788, Note_off_c, 9, 39, 0
1, 65788, Note_off_c, 9, 40, 0
1, 65788, Note_off_c, 9, 42, 0
1, 65788, Note_off_c, 9, 54, 0
1, 65816, Note_off_c, 7, 60, 0
1, 65822, Note_off_c, 7, 63, 0
1, 65832, Note_off_c, 7, 67, 0
1, 65839, Note_off_c, 6, 51, 0
1, 65842, Note_off_c, 8, 51, 0
1, 65854, Note_off_c, 6, 44, 0
1, 65862, Note_off_c, 8, 56, 0
1, 65979, Note_off_c, 1, 32, 0
1, 65987, Note_off_c, 10, 44, 0
1, 66000, Note_on_c, 1, 32, 113
1, 66000, Note_on_c, 7, 60, 115
1, 66000, Note_on_c, 7, 63, 111
1, 66000, Note_on_c, 7, 67, 110
1, 66000, Note_on_c, 8, 51, 116
1, 66000, Note_on_c, 8, 54, 101
1, 66000, Note_on_c, 8, 56, 123
1, 66000, Note_on_c, 9, 42, 98
1, 66006, Note_off_c, 8, 54, 0
1, 66008, Note_on_c, 10, 44, 113
1, 66011, Note_on_c, 6, 44, 123
1, 66011, Note_on_c, 6, 51, 127
1, 66028, Note_off_c, 4, 68, 0
1, 66028, Note_off_c, 4, 72, 0
1, 66028, Note_off_c, 9, 42, 0
1, 66048, Note_off_c, 4, 65, 0
1, 66058, Note_off_c, 7, 60, 0
1, 66061, Note_off_c, 7, 63, 0
1, 66062, Note_off_c, 8, 51, 0
1, 66074, Note_off_c, 6, 51, 0
1, 66077, Note_off_c, 7, 67, 0
1, 66077, Note_off_c, 8, 56, 0
1, 66101, Note_off_c, 6, 44, 0
1, 66120, Note_on_c, 4, 63, 123
1, 66120, Note_on_c, 4, 67, 115
1, 66120, Note_on_c, 4, 70, 115
1, 66156, Note_off_c, 8, 44, 0
1, 66211, Note_off_c, 7, 32, 0
1, 66211, Note_off_c, 7, 44, 0
1, 66219, Note_off_c, 1, 32, 0
1, 66219, Note_off_c, 4, 63, 0
1, 66220, Note_off_c, 4, 67, 0
1, 66220, Note_off_c, 4, 70, 0
1, 66227, Note_off_c, 10, 44, 0
1, 66240, Note_on_c, 1, 34, 113
1, 66240, Note_on_c, 7, 34, 115
1, 66240, Note_on_c, 7, 46, 115
1, 66240, Note_on_c, 7, 62, 98
1, 66240, Note_on_c, 7, 65, 90
1, 66240, Note_on_c, 7, 70, 101
1, 66240, Note_on_c, 8, 53, 102
1, 66240, Note_on_c, 8, 58, 123
1, 66240, Note_on_c, 9, 35, 116
1, 66240, Note_on_c, 9, 42, 98
1, 66248, Note_on_c, 10, 46, 113
1, 66251, Note_on_c, 6, 46, 127
1, 66251, Note_on_c, 6, 53, 115
1, 66268, Note_off_c, 9, 35, 0
1, 66268, Note_off_c, 9, 42, 0
1, 66306, Note_off_c, 7, 65, 0
1, 66309, Note_off_c, 7, 70, 0
1, 66317, Note_off_c, 8, 53, 0
1, 66319, Note_off_c, 6, 53, 0
1, 66322, Note_off_c, 6, 46, 0
1, 66324, Note_off_c, 7, 62, 0
1, 66328, Note_off_c, 8, 58, 0
1, 66459, Note_off_c, 1, 34, 0
1, 66467, Note_off_c, 10, 46, 0
1, 66480, Note_on_c, 1, 34, 118
1, 66480, Note_on_c, 7, 62, 90
1, 66480, Note_on_c, 7, 65, 74
1, 66480, Note_on_c, 7, 70, 89
1, 66480, Note_on_c, 8, 53, 110
1, 66480, Note_on_c, 8, 58, 127
1, 66480, Note_on_c, 9, 35, 116
1, 66480, Note_on_c, 9, 46, 98
1, 66488, Note_on_c, 10, 46, 118
1, 66491, Note_on_c, 6, 46, 127
1, 66491, Note_on_c, 6, 53, 115
1, 66497, Note_off_c, 3, 75, 0
1, 66508, Note_off_c, 9, 35, 0
1, 66508, Note_off_c, 9, 46, 0
1, 66538, Note_off_c, 7, 70, 0
1, 66540, Note_off_c, 7, 65, 0
1, 66547, Note_off_c, 8, 53, 0
1, 66552, Note_off_c, 7, 62, 0
1, 66554, Note_off_c, 6, 53, 0
1, 66555, Note_off_c, 8, 58, 0
1, 66563, Note_off_c, 6, 46, 0
1, 66699, Note_off_c, 1, 34, 0
1, 66707, Note_off_c, 10, 46, 0
1, 66720, Note_on_c, 1, 34, 113
1, 66720, Note_on_c, 7, 62, 106
1, 66720, Note_on_c, 7, 65, 98
1, 66720, Note_on_c, 7, 70, 111
1, 66720, Note_on_c, 8, 53, 110
1, 66720, Note_on_c, 8, 58, 127
1, 66720, Note_on_c, 9, 39, 85
1, 66720, Note_on_c, 9, 40, 116
1, 66720, Note_on_c, 9, 42, 98
1, 66720, Note_on_c, 9, 54, 116
1, 66728, Note_on_c, 10, 46, 113
1, 66731, Note_on_c, 6, 46, 123
1, 66731, Note_on_c, 6, 53, 110
1, 66748, Note_off_c, 9, 39, 0
1, 66748, Note_off_c, 9, 40, 0
1, 66748, Note_off_c, 9, 42, 0
1, 66748, Note_off_c, 9, 54, 0
1, 66782, Note_off_c, 7, 65, 0
1, 66785, Note_off_c, 7, 70, 0
1, 66792, Note_off_c, 7, 62, 0
1, 66797, Note_off_c, 6, 53, 0
1, 66801, Note_off_c, 8, 53, 0
1, 66804, Note_off_c, 6, 46, 0
1, 66809, Note_off_c, 8, 58, 0
1, 66840, Note_on_c, 9, 40, 116
1, 66868, Note_off_c, 9, 40, 0
1, 66939, Note_off_c, 1, 34, 0
1, 66947, Note_off_c, 10, 46, 0
1, 66960, Note_on_c, 1, 34, 118
1, 66960, Note_on_c, 7, 62, 106
1, 66960, Note_on_c, 7, 65, 98
1, 66960, Note_on_c, 7, 70, 105
1, 66960, Note_on_c, 8, 53, 115
1, 66960, Note_on_c, 8, 58, 123
1, 66960, Note_on_c, 9, 40, 116
1, 66960, Note_on_c, 9, 42, 98
1, 66968, Note_on_c, 10, 46, 118
1, 66971, Note_on_c, 6, 46, 127
1, 66971, Note_on_c, 6, 53, 125
1, 66988, Note_off_c, 9, 40, 0
1, 66988, Note_off_c, 9, 42, 0
1, 67016, Note_off_c, 7, 65, 0
1, 67019, Note_off_c, 7, 70, 0
1, 67032, Note_off_c, 6, 53, 0
1, 67032, Note_off_c, 7, 62, 0
1, 67042, Note_off_c, 6, 46, 0
1, 67045, Note_off_c, 8, 53, 0
1, 67048, Note_off_c, 8, 58, 0
1, 67080, Note_on_c, 9, 40, 116
1, 67108, Note_off_c, 9, 40, 0
1, 67171, Note_off_c, 7, 34, 0
1, 67171, Note_off_c, 7, 46, 0
1, 67179, Note_off_c, 1, 34, 0
1, 67187, Note_off_c, 10, 46, 0
1, 67199, Lyric_t, "BA"
1, 67199, Note_on_c, 3, 77, 115
1, 67200, Note_on_c, 1, 36, 61
1, 67200, Note_on_c, 7, 36, 115
1, 67200, Note_on_c, 7, 48, 115
1, 67200, Note_on_c, 8, 48, 98
1, 67200, Note_on_c, 9, 35, 95
1, 67200, Note_on_c, 9, 40, 98
1, 67200, Note_on_c, 9, 43, 106
1, 67200, Note_on_c, 10, 48, 58
1, 67211, Note_on_c, 8, 55, 100
1, 67211, Note_on_c, 10, 55, 60
1, 67242, Note_off_c, 8, 48, 0
1, 67242, Note_off_c, 10, 48, 0
1, 67255, Pitch_bend_c, 3, 8712
1, 67258, Note_off_c, 8, 55, 0
1, 67258, Note_off_c, 10, 55, 0
1, 67270, Pitch_bend_c, 3, 9102
1, 67280, Pitch_bend_c, 3, 9362
1, 67291, Pitch_bend_c, 3, 9752
1, 67305, Pitch_bend_c, 3, 10142
1, 67315, Note_off_c, 9, 43, 0
1, 67317, Pitch_bend_c, 3, 10532
1, 67330, Note_off_c, 9, 40, 0
1, 67330, Pitch_bend_c, 3, 10922
1, 67345, Pitch_bend_c, 3, 11442
1, 67348, Note_off_c, 9, 35, 0
1, 67362, Pitch_bend_c, 3, 11832
1, 67379, Pitch_bend_c, 3, 12222
1, 67391, Pitch_bend_c, 3, 12482
1, 67402, Pitch_bend_c, 3, 12612
1, 67419, Note_off_c, 1, 36, 0
1, 67421, Pitch_bend_c, 3, 12872
1, 67434, Pitch_bend_c, 3, 13002
1, 67440, Note_on_c, 1, 36, 78
1, 67440, Note_on_c, 8, 48, 115
1, 67440, Note_on_c, 9, 40, 49
1, 67440, Note_on_c, 9, 43, 49
1, 67440, Note_on_c, 10, 48, 75
1, 67446, Pitch_bend_c, 3, 13262
1, 67451, Note_on_c, 8, 55, 100
1, 67451, Note_on_c, 10, 55, 60
1, 67465, Pitch_bend_c, 3, 13652
1, 67480, Pitch_bend_c, 3, 14042
1, 67485, Note_off_c, 8, 48, 0
1, 67485, Note_off_c, 10, 48, 0
1, 67490, Note_off_c, 8, 55, 0
1, 67490, Note_off_c, 10, 55, 0
1, 67495, Pitch_bend_c, 3, 14562
1, 67506, Pitch_bend_c, 3, 14692
1, 67517, Pitch_bend_c, 3, 14952
1, 67523, Note_off_c, 9, 43, 0
1, 67537, Pitch_bend_c, 3, 15082
1, 67553, Note_off_c, 9, 40, 0
1, 67615, Note_off_c, 3, 77, 0
1, 67627, Pitch_bend_c, 3, 14822
1, 67639, Pitch_bend_c, 3, 14172
1, 67651, Pitch_bend_c, 3, 13262
1, 67659, Note_off_c, 1, 36, 0
1, 67663, Pitch_bend_c, 3, 12352
1, 67674, Pitch_bend_c, 3, 11442
1, 67680, Note_on_c, 1, 36, 46
1, 67680, Note_on_c, 8, 48, 83
1, 67680, Note_on_c, 9, 35, 95
1, 67680, Note_on_c, 9, 40, 95
1, 67680, Note_on_c, 9, 43, 106
1, 67680, Note_on_c, 10, 48, 43
1, 67684, Pitch_bend_c, 3, 10532
1, 67691, Note_on_c, 8, 55, 87
1, 67691, Note_on_c, 10, 55, 47
1, 67695, Lyric_t, "BY I "
1, 67695, Note_on_c, 3, 77, 115
1, 67698, Pitch_bend_c, 3, 9752
1, 67710, Pitch_bend_c, 3, 9362
1, 67713, Note_off_c, 8, 48, 0
1, 67713, Note_off_c, 10, 48, 0
1, 67725, Note_off_c, 8, 55, 0
1, 67725, Note_off_c, 10, 55, 0
1, 67768, Pitch_bend_c, 3, 9752
1, 67780, Pitch_bend_c, 3, 10142
1, 67794, Pitch_bend_c, 3, 10662
1, 67804, Pitch_bend_c, 3, 11052
1, 67814, Pitch_bend_c, 3, 11442
1, 67821, Note_off_c, 9, 43, 0
1, 67824, Pitch_bend_c, 3, 11832
1, 67828, Note_off_c, 9, 35, 0
1, 67828, Note_off_c, 9, 40, 0
1, 67836, Pitch_bend_c, 3, 12482
1, 67847, Pitch_bend_c, 3, 13132
1, 67858, Pitch_bend_c, 3, 13522
1, 67871, Pitch_bend_c, 3, 14172
1, 67886, Pitch_bend_c, 3, 14562
1, 67899, Note_off_c, 1, 36, 0
1, 67900, Pitch_bend_c, 3, 14822
1, 67915, Pitch_bend_c, 3, 14952
1, 67920, Note_on_c, 1, 36, 65
1, 67920, Note_on_c, 8, 48, 102
1, 67920, Note_on_c, 9, 40, 49
1, 67920, Note_on_c, 9, 43, 49
1, 67920, Note_on_c, 10, 48, 62
1, 67930, Pitch_bend_c, 3, 15212
1, 67931, Note_on_c, 8, 55, 87
1, 67931, Note_on_c, 10, 55, 47
1, 67955, Pitch_bend_c, 3, 15472
1, 67960, Note_off_c, 8, 48, 0
1, 67960, Note_off_c, 10, 48, 0
1, 67972, Note_off_c, 8, 55, 0
1, 67972, Note_off_c, 10, 55, 0
1, 68003, Note_off_c, 9, 43, 0
1, 68007, Pitch_bend_c, 3, 15602
1, 68033, Note_off_c, 9, 40, 0
1, 68051, Pitch_bend_c, 3, 15862
1, 68068, Pitch_bend_c, 3, 15992
1, 68089, Pitch_bend_c, 3, 16252
1, 68139, Note_off_c, 1, 36, 0
1, 68160, Note_on_c, 1, 36, 50
1, 68160, Note_on_c, 8, 48, 87
1, 68160, Note_on_c, 9, 35, 95
1, 68160, Note_on_c, 9, 40, 98
1, 68160, Note_on_c, 9, 43, 102
1, 68160, Note_on_c, 10, 48, 47
1, 68162, Pitch_bend_c, 3, 15212
1, 68171, Note_on_c, 8, 55, 75
1, 68171, Note_on_c, 10, 55, 35
1, 68173, Pitch_bend_c, 3, 13392
1, 68183, Pitch_bend_c, 3, 10792
1, 68193, Pitch_bend_c, 3, 8452
1, 68198, Note_off_c, 8, 48, 0
1, 68198, Note_off_c, 10, 48, 0
1, 68205, Note_off_c, 3, 77, 0
1, 68209, Note_off_c, 8, 55, 0
1, 68209, Note_off_c, 10, 55, 0
1, 68210, Pitch_bend_c, 3, 8192
1, 68211, Lyric_t, "HA"
1, 68211, Note_on_c, 3, 77, 97
1, 68273, Note_off_c, 9, 43, 0
1, 68295, Note_off_c, 9, 40, 0
1, 68297, Note_off_c, 3, 77, 0
1, 68308, Note_off_c, 9, 35, 0
1, 68331, Note_on_c, 3, 75, 97
1, 68379, Note_off_c, 1, 36, 0
1, 68400, Note_on_c, 1, 36, 73
1, 68400, Note_on_c, 8, 48, 110
1, 68400, Note_on_c, 9, 40, 49
1, 68400, Note_on_c, 9, 43, 49
1, 68400, Note_on_c, 10, 48, 70
1, 68411, Note_on_c, 8, 55, 87
1, 68411, Note_on_c, 10, 55, 47
1, 68417, Note_off_c, 3, 75, 0
1, 68431, Lyric_t, "VE"
1, 68431, Lyric_t, "\015"
1, 68431, Note_on_c, 3, 72, 120
1, 68445, Note_off_c, 8, 48, 0
1, 68445, Note_off_c, 10, 48, 0
1, 68454, Note_off_c, 8, 55, 0
1, 68454, Note_off_c, 10, 55, 0
1, 68483, Note_off_c, 9, 43, 0
1, 68513, Note_off_c, 9, 40, 0
1, 68619, Note_off_c, 1, 36, 0
1, 68640, Note_on_c, 1, 36, 78
1, 68640, Note_on_c, 8, 48, 115
1, 68640, Note_on_c, 9, 35, 95
1, 68640, Note_on_c, 9, 40, 98
1, 68640, Note_on_c, 9, 43, 106
1, 68640, Note_on_c, 10, 48, 75
1, 68651, Note_on_c, 8, 55, 95
1, 68651, Note_on_c, 10, 55, 55
1, 68685, Note_off_c, 8, 48, 0
1, 68685, Note_off_c, 10, 48, 0
1, 68690, Note_off_c, 8, 55, 0
1, 68690, Note_off_c, 10, 55, 0
1, 68788, Note_off_c, 9, 35, 0
1, 68795, Note_off_c, 9, 43, 0
1, 68812, Note_off_c, 9, 40, 0
1, 68859, Note_off_c, 1, 36, 0
1, 68880, Note_on_c, 1, 36, 78
1, 68880, Note_on_c, 8, 48, 115
1, 68880, Note_on_c, 9, 40, 49
1, 68880, Note_on_c, 9, 43, 49
1, 68880, Note_on_c, 10, 48, 75
1, 68891, Note_on_c, 8, 55, 87
1, 68891, Note_on_c, 10, 55, 47
1, 68926, Note_off_c, 8, 48, 0
1, 68926, Note_off_c, 10, 48, 0
1, 68929, Note_off_c, 3, 72, 0
1, 68929, Note_off_c, 8, 55, 0
1, 68929, Note_off_c, 10, 55, 0
1, 68963, Note_off_c, 9, 43, 0
1, 68993, Note_off_c, 9, 40, 0
1, 69068, Pitch_bend_c, 3, 7296
1, 69078, Pitch_bend_c, 3, 6016
1, 69088, Pitch_bend_c, 3, 4480
1, 69098, Pitch_bend_c, 3, 2944
1, 69099, Note_off_c, 1, 36, 0
1, 69111, Pitch_bend_c, 3, 1536
1, 69120, Note_on_c, 1, 36, 65
1, 69120, Note_on_c, 8, 48, 102
1, 69120, Note_on_c, 9, 35, 95
1, 69120, Note_on_c, 9, 40, 98
1, 69120, Note_on_c, 9, 43, 106
1, 69120, Note_on_c, 10, 48, 62
1, 69123, Pitch_bend_c, 3, 640
1, 69129, Lyric_t, "NO STO"
1, 69129, Note_on_c, 3, 79, 120
1, 69131, Note_on_c, 8, 55, 80
1, 69131, Note_on_c, 10, 55, 40
1, 69133, Pitch_bend_c, 3, 128
1, 69163, Pitch_bend_c, 3, 384
1, 69164, Note_off_c, 8, 55, 0
1, 69164, Note_off_c, 10, 55, 0
1, 69165, Note_off_c, 8, 48, 0
1, 69165, Note_off_c, 10, 48, 0
1, 69173, Pitch_bend_c, 3, 1280
1, 69184, Pitch_bend_c, 3, 2688
1, 69194, Pitch_bend_c, 3, 4096
1, 69204, Pitch_bend_c, 3, 5632
1, 69211, Note_off_c, 7, 36, 0
1, 69211, Note_off_c, 7, 48, 0
1, 69217, Pitch_bend_c, 3, 7296
1, 69227, Pitch_bend_c, 3, 8192
1, 69235, Note_off_c, 9, 43, 0
1, 69250, Note_off_c, 9, 40, 0
1, 69268, Note_off_c, 9, 35, 0
1, 69292, Note_off_c, 3, 79, 0
1, 69305, Pitch_bend_c, 3, 8064
1, 69315, Pitch_bend_c, 3, 6016
1, 69325, Pitch_bend_c, 3, 3584
1, 69335, Pitch_bend_c, 3, 1280
1, 69339, Note_off_c, 1, 36, 0
1, 69345, Pitch_bend_c, 3, 0
1, 69360, Note_on_c, 1, 31, 73
1, 69360, Note_on_c, 7, 31, 115
1, 69360, Note_on_c, 7, 43, 115
1, 69360, Note_on_c, 8, 43, 110
1, 69360, Note_on_c, 9, 40, 49
1, 69360, Note_on_c, 9, 43, 49
1, 69360, Note_on_c, 10, 43, 70
1, 69368, Lyric_t, "RY "
1, 69368, Note_on_c, 3, 79, 102
1, 69371, Note_on_c, 8, 50, 91
1, 69371, Note_on_c, 10, 50, 51
1, 69407, Note_off_c, 8, 43, 0
1, 69407, Note_off_c, 10, 43, 0
1, 69412, Pitch_bend_c, 3, 1152
1, 69415, Note_off_c, 8, 50, 0
1, 69415, Note_off_c, 10, 50, 0
1, 69422, Pitch_bend_c, 3, 3072
1, 69432, Pitch_bend_c, 3, 5504
1, 69442, Pitch_bend_c, 3, 8192
1, 69443, Note_off_c, 9, 43, 0
1, 69473, Note_off_c, 9, 40, 0
1, 69540, Note_off_c, 3, 79, 0
1, 69579, Note_off_c, 1, 31, 0
1, 69593, Lyric_t, "TO "
1, 69593, Note_on_c, 3, 77, 106
1, 69600, Note_on_c, 1, 31, 73
1, 69600, Note_on_c, 8, 43, 110
1, 69600, Note_on_c, 9, 35, 95
1, 69600, Note_on_c, 9, 40, 95
1, 69600, Note_on_c, 9, 43, 106
1, 69600, Note_on_c, 10, 43, 70
1, 69611, Note_on_c, 8, 50, 91
1, 69611, Note_on_c, 10, 50, 51
1, 69644, Note_off_c, 8, 43, 0
1, 69644, Note_off_c, 10, 43, 0
1, 69647, Note_off_c, 8, 50, 0
1, 69647, Note_off_c, 10, 50, 0
1, 69741, Note_off_c, 9, 43, 0
1, 69748, Note_off_c, 9, 35, 0
1, 69748, Note_off_c, 9, 40, 0
1, 69816, Lyric_t, "BE "
1, 69816, Note_on_c, 3, 75, 123
1, 69819, Note_off_c, 1, 31, 0
1, 69832, Note_off_c, 3, 77, 0
1, 69840, Note_on_c, 1, 31, 78
1, 69840, Note_on_c, 8, 43, 115
1, 69840, Note_on_c, 9, 40, 49
1, 69840, Note_on_c, 9, 43, 49
1, 69840, Note_on_c, 10, 43, 75
1, 69851, Note_on_c, 8, 50, 87
1, 69851, Note_on_c, 10, 50, 47
1, 69891, Note_off_c, 8, 43, 0
1, 69891, Note_off_c, 10, 43, 0
1, 69895, Note_off_c, 8, 50, 0
1, 69895, Note_off_c, 10, 50, 0
1, 69923, Note_off_c, 9, 43, 0
1, 69953, Note_off_c, 9, 40, 0
1, 70046, Note_off_c, 3, 75, 0
1, 70059, Note_off_c, 1, 31, 0
1, 70080, Lyric_t, "TOLD"
1, 70080, Lyric_t, "\015"
1, 70080, Note_on_c, 1, 31, 65
1, 70080, Note_on_c, 3, 72, 125
1, 70080, Note_on_c, 8, 43, 102
1, 70080, Note_on_c, 9, 35, 95
1, 70080, Note_on_c, 9, 40, 98
1, 70080, Note_on_c, 9, 43, 102
1, 70080, Note_on_c, 10, 43, 62
1, 70091, Note_on_c, 8, 50, 91
1, 70091, Note_on_c, 10, 50, 51
1, 70132, Note_off_c, 8, 43, 0
1, 70132, Note_off_c, 10, 43, 0
1, 70139, Note_off_c, 8, 50, 0
1, 70139, Note_off_c, 10, 50, 0
1, 70193, Note_off_c, 9, 43, 0
1, 70215, Note_off_c, 9, 40, 0
1, 70228, Note_off_c, 9, 35, 0
1, 70299, Note_off_c, 1, 31, 0
1, 70320, Note_on_c, 1, 31, 73
1, 70320, Note_on_c, 8, 43, 110
1, 70320, Note_on_c, 9, 40, 49
1, 70320, Note_on_c, 9, 43, 49
1, 70320, Note_on_c, 10, 43, 70
1, 70331, Note_on_c, 8, 50, 91
1, 70331, Note_on_c, 10, 50, 51
1, 70365, Note_off_c, 8, 43, 0
1, 70365, Note_off_c, 10, 43, 0
1, 70381, Note_off_c, 8, 50, 0
1, 70381, Note_off_c, 10, 50, 0
1, 70403, Note_off_c, 9, 43, 0
1, 70433, Note_off_c, 9, 40, 0
1, 70483, Note_off_c, 3, 72, 0
1, 70539, Note_off_c, 1, 31, 0
1, 70560, Note_on_c, 1, 31, 78
1, 70560, Note_on_c, 8, 43, 115
1, 70560, Note_on_c, 9, 35, 95
1, 70560, Note_on_c, 9, 40, 98
1, 70560, Note_on_c, 9, 43, 106
1, 70560, Note_on_c, 10, 43, 75
1, 70571, Note_on_c, 8, 50, 83
1, 70571, Note_on_c, 10, 50, 43
1, 70604, Note_off_c, 8, 43, 0
1, 70604, Note_off_c, 10, 43, 0
1, 70617, Note_off_c, 8, 50, 0
1, 70617, Note_off_c, 10, 50, 0
1, 70708, Note_off_c, 9, 35, 0
1, 70715, Note_off_c, 9, 43, 0
1, 70732, Note_off_c, 9, 40, 0
1, 70779, Note_off_c, 1, 31, 0
1, 70796, Lyric_t, "BUT "
1, 70796, Note_on_c, 3, 72, 123
1, 70800, Note_on_c, 1, 31, 83
1, 70800, Note_on_c, 8, 43, 120
1, 70800, Note_on_c, 9, 40, 49
1, 70800, Note_on_c, 9, 43, 49
1, 70800, Note_on_c, 10, 43, 80
1, 70811, Note_on_c, 8, 50, 105
1, 70811, Note_on_c, 10, 50, 65
1, 70847, Note_off_c, 8, 43, 0
1, 70847, Note_off_c, 10, 43, 0
1, 70855, Note_off_c, 3, 72, 0
1, 70865, Note_off_c, 8, 50, 0
1, 70865, Note_off_c, 10, 50, 0
1, 70883, Note_off_c, 9, 43, 0
1, 70913, Note_off_c, 9, 40, 0
1, 70923, Note_on_c, 3, 72, 101
1, 71019, Note_off_c, 1, 31, 0
1, 71031, Note_off_c, 3, 72, 0
1, 71040, Note_on_c, 1, 31, 83
1, 71040, Note_on_c, 8, 43, 120
1, 71040, Note_on_c, 9, 35, 95
1, 71040, Note_on_c, 9, 40, 98
1, 71040, Note_on_c, 9, 43, 106
1, 71040, Note_on_c, 10, 43, 80
1, 71051, Note_on_c, 8, 50, 105
1, 71051, Note_on_c, 10, 50, 65
1, 71057, Lyric_t, "I'VE "
1, 71057, Note_on_c, 3, 77, 110
1, 71087, Note_off_c, 8, 43, 0
1, 71087, Note_off_c, 10, 43, 0
1, 71105, Note_off_c, 8, 50, 0
1, 71105, Note_off_c, 10, 50, 0
1, 71131, Note_off_c, 7, 31, 0
1, 71131, Note_off_c, 7, 43, 0
1, 71151, Pitch_bend_c, 3, 8842
1, 71155, Note_off_c, 9, 43, 0
1, 71162, Pitch_bend_c, 3, 9232
1, 71170, Note_off_c, 9, 40, 0
1, 71178, Pitch_bend_c, 3, 9622
1, 71188, Note_off_c, 9, 35, 0
1, 71191, Pitch_bend_c, 3, 10012
1, 71201, Pitch_bend_c, 3, 10532
1, 71216, Pitch_bend_c, 3, 10922
1, 71231, Pitch_bend_c, 3, 11312
1, 71243, Pitch_bend_c, 3, 11572
1, 71258, Pitch_bend_c, 3, 11702
1, 71259, Note_off_c, 1, 31, 0
1, 71268, Pitch_bend_c, 3, 11962
1, 71280, Note_on_c, 1, 34, 73
1, 71280, Note_on_c, 7, 34, 115
1, 71280, Note_on_c, 7, 46, 115
1, 71280, Note_on_c, 8, 46, 110
1, 71280, Note_on_c, 9, 40, 49
1, 71280, Note_on_c, 9, 43, 49
1, 71280, Note_on_c, 10, 46, 70
1, 71283, Pitch_bend_c, 3, 12352
1, 71291, Note_on_c, 8, 53, 91
1, 71291, Note_on_c, 10, 53, 51
1, 71293, Pitch_bend_c, 3, 12742
1, 71304, Pitch_bend_c, 3, 13132
1, 71317, Pitch_bend_c, 3, 13912
1, 71327, Note_off_c, 8, 46, 0
1, 71327, Note_off_c, 10, 46, 0
1, 71329, Pitch_bend_c, 3, 14562
1, 71335, Note_off_c, 8, 53, 0
1, 71335, Note_off_c, 10, 53, 0
1, 71342, Pitch_bend_c, 3, 15212
1, 71352, Pitch_bend_c, 3, 15602
1, 71363, Note_off_c, 9, 43, 0
1, 71364, Pitch_bend_c, 3, 16122
1, 71393, Note_off_c, 9, 40, 0
1, 71394, Pitch_bend_c, 3, 14432
1, 71406, Pitch_bend_c, 3, 9882
1, 71415, Note_off_c, 3, 77, 0
1, 71416, Pitch_bend_c, 3, 8452
1, 71435, Lyric_t, "HEARD "
1, 71435, Note_on_c, 3, 82, 111
1, 71499, Note_off_c, 1, 34, 0
1, 71520, Note_on_c, 1, 34, 73
1, 71520, Note_on_c, 8, 46, 110
1, 71520, Note_on_c, 9, 35, 95
1, 71520, Note_on_c, 9, 40, 95
1, 71520, Note_on_c, 9, 43, 106
1, 71520, Note_on_c, 10, 46, 70
1, 71531, Note_on_c, 8, 53, 91
1, 71531, Note_on_c, 10, 53, 51
1, 71564, Note_off_c, 8, 46, 0
1, 71564, Note_off_c, 10, 46, 0
1, 71567, Note_off_c, 8, 53, 0
1, 71567, Note_off_c, 10, 53, 0
1, 71661, Note_off_c, 9, 43, 0
1, 71668, Note_off_c, 9, 35, 0
1, 71668, Note_off_c, 9, 40, 0
1, 71708, Note_off_c, 3, 82, 0
1, 71739, Note_off_c, 1, 34, 0
1, 71760, Note_on_c, 1, 34, 78
1, 71760, Note_on_c, 8, 46, 115
1, 71760, Note_on_c, 9, 40, 49
1, 71760, Note_on_c, 9, 43, 49
1, 71760, Note_on_c, 10, 46, 75
1, 71771, Note_on_c, 8, 53, 87
1, 71771, Note_on_c, 10, 53, 47
1, 71783, Note_on_c, 3, 79, 106
1, 71811, Note_off_c, 8, 46, 0
1, 71811, Note_off_c, 10, 46, 0
1, 71815, Note_off_c, 8, 53, 0
1, 71815, Note_off_c, 10, 53, 0
1, 71843, Note_off_c, 9, 43, 0
1, 71873, Note_off_c, 9, 40, 0
1, 71979, Note_off_c, 1, 34, 0
1, 71986, Note_off_c, 3, 79, 0
1, 72000, Note_on_c, 1, 34, 65
1, 72000, Note_on_c, 8, 46, 102
1, 72000, Note_on_c, 9, 35, 95
1, 72000, Note_on_c, 9, 40, 98
1, 72000, Note_on_c, 9, 43, 102
1, 72000, Note_on_c, 10, 46, 62
1, 72011, Note_on_c, 8, 53, 91
1, 72011, Note_on_c, 10, 53, 51
1, 72020, Lyric_t, "ONE "
1, 72020, Note_on_c, 3, 77, 110
1, 72052, Note_off_c, 8, 46, 0
1, 72052, Note_off_c, 10, 46, 0
1, 72059, Note_off_c, 8, 53, 0
1, 72059, Note_off_c, 10, 53, 0
1, 72113, Note_off_c, 9, 43, 0
1, 72135, Note_off_c, 9, 40, 0
1, 72148, Note_off_c, 9, 35, 0
1, 72206, Note_off_c, 3, 77, 0
1, 72219, Note_off_c, 1, 34, 0
1, 72240, Note_on_c, 1, 34, 73
1, 72240, Note_on_c, 8, 46, 110
1, 72240, Note_on_c, 9, 40, 49
1, 72240, Note_on_c, 9, 43, 49
1, 72240, Note_on_c, 10, 46, 70
1, 72251, Note_on_c, 8, 53, 91
1, 72251, Note_on_c, 10, 53, 51
1, 72252, Lyric_t, "OF "
1, 72252, Note_on_c, 3, 75, 111
1, 72285, Note_off_c, 8, 46, 0
1, 72285, Note_off_c, 10, 46, 0
1, 72301, Note_off_c, 8, 53, 0
1, 72301, Note_off_c, 10, 53, 0
1, 72323, Note_off_c, 9, 43, 0
1, 72353, Note_off_c, 9, 40, 0
1, 72445, Note_off_c, 3, 75, 0
1, 72459, Note_off_c, 1, 34, 0
1, 72480, Note_on_c, 1, 34, 78
1, 72480, Note_on_c, 8, 46, 115
1, 72480, Note_on_c, 9, 35, 95
1, 72480, Note_on_c, 9, 40, 98
1, 72480, Note_on_c, 9, 43, 106
1, 72480, Note_on_c, 10, 46, 75
1, 72481, Lyric_t, "YOU"
1, 72481, Lyric_t, "\015"
1, 72481, Note_on_c, 3, 72, 110
1, 72491, Note_on_c, 8, 53, 83
1, 72491, Note_on_c, 10, 53, 43
1, 72524, Note_off_c, 8, 46, 0
1, 72524, Note_off_c, 10, 46, 0
1, 72537, Note_off_c, 8, 53, 0
1, 72537, Note_off_c, 10, 53, 0
1, 72604, Note_off_c, 3, 72, 0
1, 72628, Note_off_c, 9, 35, 0
1, 72635, Note_off_c, 9, 43, 0
1, 72652, Note_off_c, 9, 40, 0
1, 72699, Note_off_c, 1, 34, 0
1, 72720, Note_on_c, 1, 34, 83
1, 72720, Note_on_c, 8, 46, 120
1, 72720, Note_on_c, 9, 40, 49
1, 72720, Note_on_c, 9, 43, 49
1, 72720, Note_on_c, 10, 46, 80
1, 72731, Note_on_c, 8, 53, 105
1, 72731, Note_on_c, 10, 53, 65
1, 72735, Lyric_t, "AND "
1, 72735, Note_on_c, 3, 72, 125
1, 72767, Note_off_c, 8, 46, 0
1, 72767, Note_off_c, 10, 46, 0
1, 72785, Note_off_c, 8, 53, 0
1, 72785, Note_off_c, 10, 53, 0
1, 72803, Note_off_c, 9, 43, 0
1, 72833, Note_off_c, 9, 40, 0
1, 72887, Note_off_c, 3, 72, 0
1, 72939, Note_off_c, 1, 34, 0
1, 72956, Lyric_t, "I'M "
1, 72956, Note_on_c, 3, 75, 123
1, 72960, Note_on_c, 1, 34, 83
1, 72960, Note_on_c, 8, 46, 120
1, 72960, Note_on_c, 9, 35, 95
1, 72960, Note_on_c, 9, 40, 98
1, 72960, Note_on_c, 9, 43, 106
1, 72960, Note_on_c, 10, 46, 80
1, 72971, Note_on_c, 8, 53, 105
1, 72971, Note_on_c, 10, 53, 65
1, 73007, Note_off_c, 8, 46, 0
1, 73007, Note_off_c, 10, 46, 0
1, 73015, Note_off_c, 3, 75, 0
1, 73025, Note_off_c, 8, 53, 0
1, 73025, Note_off_c, 10, 53, 0
1, 73051, Note_off_c, 7, 34, 0
1, 73051, Note_off_c, 7, 46, 0
1, 73075, Note_off_c, 9, 43, 0
1, 73083, Lyric_t, "GONNA "
1, 73083, Note_on_c, 3, 75, 101
1, 73090, Note_off_c, 9, 40, 0
1, 73108, Note_off_c, 9, 35, 0
1, 73179, Note_off_c, 1, 34, 0
1, 73191, Note_off_c, 3, 75, 0
1, 73200, Note_on_c, 1, 31, 73
1, 73200, Note_on_c, 7, 31, 115
1, 73200, Note_on_c, 7, 43, 115
1, 73200, Note_on_c, 8, 43, 110
1, 73200, Note_on_c, 9, 40, 49
1, 73200, Note_on_c, 9, 43, 49
1, 73200, Note_on_c, 10, 43, 70
1, 73211, Note_on_c, 8, 50, 91
1, 73211, Note_on_c, 10, 50, 51
1, 73247, Note_off_c, 8, 43, 0
1, 73247, Note_off_c, 10, 43, 0
1, 73255, Note_off_c, 8, 50, 0
1, 73255, Note_off_c, 10, 50, 0
1, 73283, Note_off_c, 9, 43, 0
1, 73313, Lyric_t, "MAKE "
1, 73313, Note_off_c, 9, 40, 0
1, 73313, Note_on_c, 3, 75, 111
1, 73392, Note_off_c, 3, 75, 0
1, 73419, Note_off_c, 1, 31, 0
1, 73439, Lyric_t, "YOUR "
1, 73439, Note_on_c, 3, 74, 106
1, 73440, Note_on_c, 1, 31, 73
1, 73440, Note_on_c, 8, 43, 110
1, 73440, Note_on_c, 9, 35, 95
1, 73440, Note_on_c, 9, 40, 95
1, 73440, Note_on_c, 9, 43, 106
1, 73440, Note_on_c, 10, 43, 70
1, 73451, Note_on_c, 8, 50, 91
1, 73451, Note_on_c, 10, 50, 51
1, 73484, Note_off_c, 8, 43, 0
1, 73484, Note_off_c, 10, 43, 0
1, 73487, Note_off_c, 8, 50, 0
1, 73487, Note_off_c, 10, 50, 0
1, 73577, Note_off_c, 3, 74, 0
1, 73581, Note_off_c, 9, 43, 0
1, 73588, Note_off_c, 9, 35, 0
1, 73588, Note_off_c, 9, 40, 0
1, 73659, Note_off_c, 1, 31, 0
1, 73680, Note_on_c, 1, 31, 78
1, 73680, Note_on_c, 8, 43, 115
1, 73680, Note_on_c, 9, 40, 49
1, 73680, Note_on_c, 9, 43, 49
1, 73680, Note_on_c, 10, 43, 75
1, 73686, Lyric_t, "HEAD "
1, 73686, Note_on_c, 3, 72, 115
1, 73691, Note_on_c, 8, 50, 87
1, 73691, Note_on_c, 10, 50, 47
1, 73731, Note_off_c, 8, 43, 0
1, 73731, Note_off_c, 10, 43, 0
1, 73735, Note_off_c, 8, 50, 0
1, 73735, Note_off_c, 10, 50, 0
1, 73748, Note_off_c, 3, 72, 0
1, 73763, Note_off_c, 9, 43, 0
1, 73793, Note_off_c, 9, 40, 0
1, 73899, Note_off_c, 1, 31, 0
1, 73920, Note_on_c, 1, 31, 65
1, 73920, Note_on_c, 8, 43, 102
1, 73920, Note_on_c, 9, 35, 95
1, 73920, Note_on_c, 9, 40, 98
1, 73920, Note_on_c, 9, 43, 102
1, 73920, Note_on_c, 10, 43, 62
1, 73931, Note_on_c, 8, 50, 91
1, 73931, Note_on_c, 10, 50, 51
1, 73940, Lyric_t, "BURN"
1, 73940, Lyric_t, "\015"
1, 73940, Note_on_c, 3, 72, 127
1, 73972, Note_off_c, 8, 43, 0
1, 73972, Note_off_c, 10, 43, 0
1, 73979, Note_off_c, 8, 50, 0
1, 73979, Note_off_c, 10, 50, 0
1, 74033, Note_off_c, 9, 43, 0
1, 74055, Note_off_c, 9, 40, 0
1, 74068, Note_off_c, 9, 35, 0
1, 74139, Note_off_c, 1, 31, 0
1, 74154, Note_off_c, 7, 31, 0
1, 74154, Note_off_c, 7, 43, 0
1, 74160, Note_on_c, 1, 34, 73
1, 74160, Note_on_c, 7, 34, 115
1, 74160, Note_on_c, 7, 46, 115
1, 74160, Note_on_c, 8, 46, 110
1, 74160, Note_on_c, 9, 40, 49
1, 74160, Note_on_c, 9, 43, 49
1, 74160, Note_on_c, 10, 46, 70
1, 74171, Note_on_c, 8, 53, 91
1, 74171, Note_on_c, 10, 53, 51
1, 74205, Note_off_c, 8, 46, 0
1, 74205, Note_off_c, 10, 46, 0
1, 74221, Note_off_c, 8, 53, 0
1, 74221, Note_off_c, 10, 53, 0
1, 74243, Note_off_c, 9, 43, 0
1, 74269, Note_off_c, 3, 72, 0
1, 74273, Note_off_c, 9, 40, 0
1, 74379, Note_off_c, 1, 34, 0
1, 74400, Note_on_c, 1, 34, 78
1, 74400, Note_on_c, 8, 46, 115
1, 74400, Note_on_c, 9, 35, 95
1, 74400, Note_on_c, 9, 40, 98
1, 74400, Note_on_c, 9, 43, 106
1, 74400, Note_on_c, 10, 46, 75
1, 74411, Note_on_c, 8, 53, 83
1, 74411, Note_on_c, 10, 53, 43
1, 74444, Note_off_c, 8, 46, 0
1, 74444, Note_off_c, 10, 46, 0
1, 74457, Note_off_c, 8, 53, 0
1, 74457, Note_off_c, 10, 53, 0
1, 74548, Note_off_c, 9, 35, 0
1, 74555, Note_off_c, 9, 43, 0
1, 74572, Note_off_c, 9, 40, 0
1, 74619, Note_off_c, 1, 34, 0
1, 74640, Note_on_c, 1, 34, 83
1, 74640, Note_on_c, 8, 46, 120
1, 74640, Note_on_c, 9, 40, 49
1, 74640, Note_on_c, 9, 43, 49
1, 74640, Note_on_c, 9, 46, 106
1, 74640, Note_on_c, 10, 46, 80
1, 74651, Note_on_c, 8, 53, 105
1, 74651, Note_on_c, 10, 53, 65
1, 74687, Note_off_c, 8, 46, 0
1, 74687, Note_off_c, 10, 46, 0
1, 74705, Note_off_c, 8, 53, 0
1, 74705, Note_off_c, 10, 53, 0
1, 74723, Note_off_c, 9, 43, 0
1, 74753, Note_off_c, 9, 40, 0
1, 74795, Note_off_c, 9, 46, 0
1, 74851, Note_off_c, 7, 34, 0
1, 74851, Note_off_c, 7, 46, 0
1, 74859, Note_off_c, 1, 34, 0
1, 74879, Lyric_t, "THINK "
1, 74879, Note_on_c, 3, 77, 115
1, 74880, Note_on_c, 1, 36, 61
1, 74880, Note_on_c, 7, 36, 115
1, 74880, Note_on_c, 7, 48, 115
1, 74880, Note_on_c, 8, 48, 98
1, 74880, Note_on_c, 9, 35, 95
1, 74880, Note_on_c, 9, 40, 98
1, 74880, Note_on_c, 9, 43, 106
1, 74880, Note_on_c, 9, 44, 106
1, 74880, Note_on_c, 10, 48, 58
1, 74891, Note_on_c, 8, 55, 100
1, 74891, Note_on_c, 10, 55, 60
1, 74922, Note_off_c, 8, 48, 0
1, 74922, Note_off_c, 10, 48, 0
1, 74935, Pitch_bend_c, 3, 8712
1, 74938, Note_off_c, 8, 55, 0
1, 74938, Note_off_c, 10, 55, 0
1, 74950, Pitch_bend_c, 3, 9102
1, 74960, Pitch_bend_c, 3, 9362
1, 74971, Pitch_bend_c, 3, 9752
1, 74985, Pitch_bend_c, 3, 10142
1, 74995, Note_off_c, 9, 43, 0
1, 74997, Pitch_bend_c, 3, 10532
1, 75010, Note_off_c, 9, 40, 0
1, 75010, Pitch_bend_c, 3, 10922
1, 75025, Pitch_bend_c, 3, 11442
1, 75028, Note_off_c, 9, 35, 0
1, 75035, Note_off_c, 9, 44, 0
1, 75042, Pitch_bend_c, 3, 11832
1, 75059, Pitch_bend_c, 3, 12222
1, 75071, Pitch_bend_c, 3, 12482
1, 75082, Pitch_bend_c, 3, 12612
1, 75099, Note_off_c, 1, 36, 0
1, 75101, Pitch_bend_c, 3, 12872
1, 75114, Pitch_bend_c, 3, 13002
1, 75120, Note_on_c, 1, 36, 78
1, 75120, Note_on_c, 8, 48, 115
1, 75120, Note_on_c, 9, 40, 49
1, 75120, Note_on_c, 9, 43, 49
1, 75120, Note_on_c, 10, 48, 75
1, 75126, Pitch_bend_c, 3, 13262
1, 75131, Note_on_c, 8, 55, 100
1, 75131, Note_on_c, 10, 55, 60
1, 75145, Pitch_bend_c, 3, 13652
1, 75160, Pitch_bend_c, 3, 14042
1, 75165, Note_off_c, 8, 48, 0
1, 75165, Note_off_c, 10, 48, 0
1, 75170, Note_off_c, 8, 55, 0
1, 75170, Note_off_c, 10, 55, 0
1, 75175, Pitch_bend_c, 3, 14562
1, 75186, Pitch_bend_c, 3, 14692
1, 75197, Pitch_bend_c, 3, 14952
1, 75203, Note_off_c, 9, 43, 0
1, 75217, Pitch_bend_c, 3, 15082
1, 75233, Note_off_c, 9, 40, 0
1, 75295, Note_off_c, 3, 77, 0
1, 75307, Pitch_bend_c, 3, 14822
1, 75319, Pitch_bend_c, 3, 14172
1, 75331, Pitch_bend_c, 3, 13262
1, 75339, Note_off_c, 1, 36, 0
1, 75343, Pitch_bend_c, 3, 12352
1, 75354, Pitch_bend_c, 3, 11442
1, 75360, Note_on_c, 1, 36, 46
1, 75360, Note_on_c, 8, 48, 83
1, 75360, Note_on_c, 9, 35, 95
1, 75360, Note_on_c, 9, 40, 95
1, 75360, Note_on_c, 9, 43, 106
1, 75360, Note_on_c, 10, 48, 43
1, 75364, Pitch_bend_c, 3, 10532
1, 75371, Note_on_c, 8, 55, 87
1, 75371, Note_on_c, 10, 55, 47
1, 75375, Lyric_t, "OF "
1, 75375, Note_on_c, 3, 77, 115
1, 75378, Pitch_bend_c, 3, 9752
1, 75390, Pitch_bend_c, 3, 9362
1, 75393, Note_off_c, 8, 48, 0
1, 75393, Note_off_c, 10, 48, 0
1, 75405, Note_off_c, 8, 55, 0
1, 75405, Note_off_c, 10, 55, 0
1, 75448, Pitch_bend_c, 3, 9752
1, 75460, Pitch_bend_c, 3, 10142
1, 75474, Pitch_bend_c, 3, 10662
1, 75484, Pitch_bend_c, 3, 11052
1, 75494, Pitch_bend_c, 3, 11442
1, 75501, Note_off_c, 9, 43, 0
1, 75504, Pitch_bend_c, 3, 11832
1, 75508, Note_off_c, 9, 35, 0
1, 75508, Note_off_c, 9, 40, 0
1, 75516, Pitch_bend_c, 3, 12482
1, 75527, Pitch_bend_c, 3, 13132
1, 75538, Pitch_bend_c, 3, 13522
1, 75551, Pitch_bend_c, 3, 14172
1, 75566, Pitch_bend_c, 3, 14562
1, 75579, Note_off_c, 1, 36, 0
1, 75580, Pitch_bend_c, 3, 14822
1, 75595, Pitch_bend_c, 3, 14952
1, 75600, Note_on_c, 1, 36, 65
1, 75600, Note_on_c, 8, 48, 102
1, 75600, Note_on_c, 9, 40, 49
1, 75600, Note_on_c, 9, 43, 49
1, 75600, Note_on_c, 10, 48, 62
1, 75610, Pitch_bend_c, 3, 15212
1, 75611, Note_on_c, 8, 55, 87
1, 75611, Note_on_c, 10, 55, 47
1, 75635, Pitch_bend_c, 3, 15472
1, 75640, Note_off_c, 8, 48, 0
1, 75640, Note_off_c, 10, 48, 0
1, 75652, Note_off_c, 8, 55, 0
1, 75652, Note_off_c, 10, 55, 0
1, 75683, Note_off_c, 9, 43, 0
1, 75687, Pitch_bend_c, 3, 15602
1, 75713, Note_off_c, 9, 40, 0
1, 75731, Pitch_bend_c, 3, 15862
1, 75748, Pitch_bend_c, 3, 15992
1, 75769, Pitch_bend_c, 3, 16252
1, 75819, Note_off_c, 1, 36, 0
1, 75840, Note_on_c, 1, 36, 50
1, 75840, Note_on_c, 8, 48, 87
1, 75840, Note_on_c, 9, 35, 95
1, 75840, Note_on_c, 9, 40, 98
1, 75840, Note_on_c, 9, 43, 102
1, 75840, Note_on_c, 10, 48, 47
1, 75842, Pitch_bend_c, 3, 15212
1, 75851, Note_on_c, 8, 55, 75
1, 75851, Note_on_c, 10, 55, 35
1, 75853, Pitch_bend_c, 3, 13392
1, 75863, Pitch_bend_c, 3, 10792
1, 75873, Pitch_bend_c, 3, 8452
1, 75878, Note_off_c, 8, 48, 0
1, 75878, Note_off_c, 10, 48, 0
1, 75885, Note_off_c, 3, 77, 0
1, 75889, Note_off_c, 8, 55, 0
1, 75889, Note_off_c, 10, 55, 0
1, 75890, Pitch_bend_c, 3, 8192
1, 75891, Lyric_t, "ME."
1, 75891, Note_on_c, 3, 77, 97
1, 75953, Note_off_c, 9, 43, 0
1, 75975, Note_off_c, 9, 40, 0
1, 75977, Note_off_c, 3, 77, 0
1, 75988, Note_off_c, 9, 35, 0
1, 76011, Lyric_t, "."
1, 76011, Note_on_c, 3, 75, 97
1, 76059, Note_off_c, 1, 36, 0
1, 76080, Note_on_c, 1, 36, 73
1, 76080, Note_on_c, 8, 48, 110
1, 76080, Note_on_c, 9, 40, 49
1, 76080, Note_on_c, 9, 43, 49
1, 76080, Note_on_c, 10, 48, 70
1, 76091, Note_on_c, 8, 55, 87
1, 76091, Note_on_c, 10, 55, 47
1, 76097, Note_off_c, 3, 75, 0
1, 76111, Lyric_t, "."
1, 76111, Lyric_t, "\015"
1, 76111, Note_on_c, 3, 72, 120
1, 76125, Note_off_c, 8, 48, 0
1, 76125, Note_off_c, 10, 48, 0
1, 76134, Note_off_c, 8, 55, 0
1, 76134, Note_off_c, 10, 55, 0
1, 76163, Note_off_c, 9, 43, 0
1, 76193, Note_off_c, 9, 40, 0
1, 76299, Note_off_c, 1, 36, 0
1, 76320, Note_on_c, 1, 36, 78
1, 76320, Note_on_c, 8, 48, 115
1, 76320, Note_on_c, 9, 35, 95
1, 76320, Note_on_c, 9, 40, 98
1, 76320, Note_on_c, 9, 43, 106
1, 76320, Note_on_c, 10, 48, 75
1, 76331, Note_on_c, 8, 55, 95
1, 76331, Note_on_c, 10, 55, 55
1, 76365, Note_off_c, 8, 48, 0
1, 76365, Note_off_c, 10, 48, 0
1, 76370, Note_off_c, 8, 55, 0
1, 76370, Note_off_c, 10, 55, 0
1, 76468, Note_off_c, 9, 35, 0
1, 76475, Note_off_c, 9, 43, 0
1, 76492, Note_off_c, 9, 40, 0
1, 76539, Note_off_c, 1, 36, 0
1, 76554, Note_off_c, 3, 72, 0
1, 76560, Note_on_c, 1, 36, 78
1, 76560, Note_on_c, 8, 48, 115
1, 76560, Note_on_c, 9, 40, 49
1, 76560, Note_on_c, 9, 43, 49
1, 76560, Note_on_c, 10, 48, 75
1, 76571, Note_on_c, 8, 55, 87
1, 76571, Note_on_c, 10, 55, 47
1, 76606, Note_off_c, 8, 48, 0
1, 76606, Note_off_c, 10, 48, 0
1, 76609, Note_off_c, 8, 55, 0
1, 76609, Note_off_c, 10, 55, 0
1, 76643, Note_off_c, 9, 43, 0
1, 76673, Note_off_c, 9, 40, 0
1, 76680, Lyric_t, "IN THE "
1, 76680, Note_on_c, 3, 72, 97
1, 76746, Pitch_bend_c, 3, 7296
1, 76756, Pitch_bend_c, 3, 6016
1, 76765, Note_off_c, 3, 72, 0
1, 76766, Pitch_bend_c, 3, 4480
1, 76776, Pitch_bend_c, 3, 2944
1, 76779, Note_off_c, 1, 36, 0
1, 76789, Pitch_bend_c, 3, 1536
1, 76800, Note_on_c, 1, 36, 65
1, 76800, Note_on_c, 8, 48, 102
1, 76800, Note_on_c, 9, 35, 95
1, 76800, Note_on_c, 9, 40, 98
1, 76800, Note_on_c, 9, 43, 106
1, 76800, Note_on_c, 10, 48, 62
1, 76801, Pitch_bend_c, 3, 640
1, 76807, Lyric_t, "DEPTHS "
1, 76807, Note_on_c, 3, 79, 120
1, 76811, Note_on_c, 8, 55, 80
1, 76811, Note_on_c, 10, 55, 40
1, 76811, Pitch_bend_c, 3, 128
1, 76841, Pitch_bend_c, 3, 384
1, 76844, Note_off_c, 8, 55, 0
1, 76844, Note_off_c, 10, 55, 0
1, 76845, Note_off_c, 8, 48, 0
1, 76845, Note_off_c, 10, 48, 0
1, 76851, Pitch_bend_c, 3, 1280
1, 76862, Pitch_bend_c, 3, 2688
1, 76872, Pitch_bend_c, 3, 4096
1, 76882, Pitch_bend_c, 3, 5632
1, 76891, Note_off_c, 7, 36, 0
1, 76891, Note_off_c, 7, 48, 0
1, 76895, Pitch_bend_c, 3, 7296
1, 76905, Pitch_bend_c, 3, 8192
1, 76915, Note_off_c, 9, 43, 0
1, 76930, Note_off_c, 9, 40, 0
1, 76948, Note_off_c, 9, 35, 0
1, 76970, Note_off_c, 3, 79, 0
1, 76983, Pitch_bend_c, 3, 8064
1, 76993, Pitch_bend_c, 3, 6016
1, 77003, Pitch_bend_c, 3, 3584
1, 77013, Pitch_bend_c, 3, 1280
1, 77019, Note_off_c, 1, 36, 0
1, 77023, Pitch_bend_c, 3, 0
1, 77040, Note_on_c, 1, 31, 73
1, 77040, Note_on_c, 7, 31, 115
1, 77040, Note_on_c, 7, 43, 115
1, 77040, Note_on_c, 8, 43, 110
1, 77040, Note_on_c, 9, 40, 49
1, 77040, Note_on_c, 9, 43, 49
1, 77040, Note_on_c, 10, 43, 70
1, 77046, Lyric_t, "OF "
1, 77046, Note_on_c, 3, 79, 102
1, 77051, Note_on_c, 8, 50, 91
1, 77051, Note_on_c, 10, 50, 51
1, 77087, Note_off_c, 8, 43, 0
1, 77087, Note_off_c, 10, 43, 0
1, 77090, Pitch_bend_c, 3, 1152
1, 77095, Note_off_c, 8, 50, 0
1, 77095, Note_off_c, 10, 50, 0
1, 77100, Pitch_bend_c, 3, 3072
1, 77110, Pitch_bend_c, 3, 5504
1, 77120, Pitch_bend_c, 3, 8192
1, 77123, Note_off_c, 9, 43, 0
1, 77153, Note_off_c, 9, 40, 0
1, 77218, Note_off_c, 3, 79, 0
1, 77259, Note_off_c, 1, 31, 0
1, 77271, Lyric_t, "YOUR "
1, 77271, Note_on_c, 3, 77, 106
1, 77280, Note_on_c, 1, 31, 73
1, 77280, Note_on_c, 8, 43, 110
1, 77280, Note_on_c, 9, 35, 95
1, 77280, Note_on_c, 9, 40, 95
1, 77280, Note_on_c, 9, 43, 106
1, 77280, Note_on_c, 10, 43, 70
1, 77291, Note_on_c, 8, 50, 91
1, 77291, Note_on_c, 10, 50, 51
1, 77324, Note_off_c, 8, 43, 0
1, 77324, Note_off_c, 10, 43, 0
1, 77327, Note_off_c, 8, 50, 0
1, 77327, Note_off_c, 10, 50, 0
1, 77421, Note_off_c, 9, 43, 0
1, 77428, Note_off_c, 9, 35, 0
1, 77428, Note_off_c, 9, 40, 0
1, 77494, Lyric_t, "DE"
1, 77494, Note_on_c, 3, 75, 123
1, 77499, Note_off_c, 1, 31, 0
1, 77510, Note_off_c, 3, 77, 0
1, 77520, Note_on_c, 1, 31, 78
1, 77520, Note_on_c, 8, 43, 115
1, 77520, Note_on_c, 9, 40, 49
1, 77520, Note_on_c, 9, 43, 49
1, 77520, Note_on_c, 10, 43, 75
1, 77531, Note_on_c, 8, 50, 87
1, 77531, Note_on_c, 10, 50, 47
1, 77571, Note_off_c, 8, 43, 0
1, 77571, Note_off_c, 10, 43, 0
1, 77575, Note_off_c, 8, 50, 0
1, 77575, Note_off_c, 10, 50, 0
1, 77603, Note_off_c, 9, 43, 0
1, 77633, Note_off_c, 9, 40, 0
1, 77724, Note_off_c, 3, 75, 0
1, 77730, Lyric_t, "SPAIR"
1, 77730, Lyric_t, "\015"
1, 77730, Note_on_c, 3, 72, 125
1, 77739, Note_off_c, 1, 31, 0
1, 77760, Note_on_c, 1, 31, 65
1, 77760, Note_on_c, 8, 43, 102
1, 77760, Note_on_c, 9, 35, 95
1, 77760, Note_on_c, 9, 40, 98
1, 77760, Note_on_c, 9, 43, 102
1, 77760, Note_on_c, 10, 43, 62
1, 77771, Note_on_c, 8, 50, 91
1, 77771, Note_on_c, 10, 50, 51
1, 77812, Note_off_c, 8, 43, 0
1, 77812, Note_off_c, 10, 43, 0
1, 77819, Note_off_c, 8, 50, 0
1, 77819, Note_off_c, 10, 50, 0
1, 77873, Note_off_c, 9, 43, 0
1, 77895, Note_off_c, 9, 40, 0
1, 77908, Note_off_c, 9, 35, 0
1, 77979, Note_off_c, 1, 31, 0
1, 78000, Note_on_c, 1, 31, 73
1, 78000, Note_on_c, 8, 43, 110
1, 78000, Note_on_c, 9, 40, 49
1, 78000, Note_on_c, 9, 43, 49
1, 78000, Note_on_c, 10, 43, 70
1, 78011, Note_on_c, 8, 50, 91
1, 78011, Note_on_c, 10, 50, 51
1, 78045, Note_off_c, 8, 43, 0
1, 78045, Note_off_c, 10, 43, 0
1, 78061, Note_off_c, 8, 50, 0
1, 78061, Note_off_c, 10, 50, 0
1, 78083, Note_off_c, 9, 43, 0
1, 78113, Note_off_c, 9, 40, 0
1, 78133, Note_off_c, 3, 72, 0
1, 78219, Note_off_c, 1, 31, 0
1, 78240, Note_on_c, 1, 31, 78
1, 78240, Note_on_c, 8, 43, 115
1, 78240, Note_on_c, 9, 35, 95
1, 78240, Note_on_c, 9, 40, 98
1, 78240, Note_on_c, 9, 43, 106
1, 78240, Note_on_c, 10, 43, 75
1, 78251, Note_on_c, 8, 50, 83
1, 78251, Note_on_c, 10, 50, 43
1, 78284, Note_off_c, 8, 43, 0
1, 78284, Note_off_c, 10, 43, 0
1, 78297, Note_off_c, 8, 50, 0
1, 78297, Note_off_c, 10, 50, 0
1, 78388, Note_off_c, 9, 35, 0
1, 78395, Note_off_c, 9, 43, 0
1, 78412, Note_off_c, 9, 40, 0
1, 78459, Note_off_c, 1, 31, 0
1, 78480, Note_on_c, 1, 31, 83
1, 78480, Note_on_c, 8, 43, 120
1, 78480, Note_on_c, 9, 40, 49
1, 78480, Note_on_c, 9, 43, 49
1, 78480, Note_on_c, 10, 43, 80
1, 78491, Note_on_c, 8, 50, 105
1, 78491, Note_on_c, 10, 50, 65
1, 78527, Note_off_c, 8, 43, 0
1, 78527, Note_off_c, 10, 43, 0
1, 78545, Note_off_c, 8, 50, 0
1, 78545, Note_off_c, 10, 50, 0
1, 78563, Note_off_c, 9, 43, 0
1, 78593, Note_off_c, 9, 40, 0
1, 78699, Note_off_c, 1, 31, 0
1, 78720, Note_on_c, 1, 31, 83
1, 78720, Note_on_c, 8, 43, 120
1, 78720, Note_on_c, 9, 35, 95
1, 78720, Note_on_c, 9, 40, 98
1, 78720, Note_on_c, 9, 43, 106
1, 78720, Note_on_c, 10, 43, 80
1, 78731, Note_on_c, 8, 50, 105
1, 78731, Note_on_c, 10, 50, 65
1, 78737, Lyric_t, "MA"
1, 78737, Note_on_c, 3, 77, 110
1, 78767, Note_off_c, 8, 43, 0
1, 78767, Note_off_c, 10, 43, 0
1, 78785, Note_off_c, 8, 50, 0
1, 78785, Note_off_c, 10, 50, 0
1, 78811, Note_off_c, 7, 31, 0
1, 78811, Note_off_c, 7, 43, 0
1, 78831, Pitch_bend_c, 3, 8842
1, 78835, Note_off_c, 9, 43, 0
1, 78842, Pitch_bend_c, 3, 9232
1, 78850, Note_off_c, 9, 40, 0
1, 78858, Pitch_bend_c, 3, 9622
1, 78868, Note_off_c, 9, 35, 0
1, 78871, Pitch_bend_c, 3, 10012
1, 78881, Pitch_bend_c, 3, 10532
1, 78896, Pitch_bend_c, 3, 10922
1, 78911, Pitch_bend_c, 3, 11312
1, 78923, Pitch_bend_c, 3, 11572
1, 78938, Pitch_bend_c, 3, 11702
1, 78939, Note_off_c, 1, 31, 0
1, 78948, Pitch_bend_c, 3, 11962
1, 78960, Note_on_c, 1, 34, 73
1, 78960, Note_on_c, 7, 34, 115
1, 78960, Note_on_c, 7, 46, 115
1, 78960, Note_on_c, 8, 46, 110
1, 78960, Note_on_c, 9, 40, 49
1, 78960, Note_on_c, 9, 43, 49
1, 78960, Note_on_c, 10, 46, 70
1, 78963, Pitch_bend_c, 3, 12352
1, 78971, Note_on_c, 8, 53, 91
1, 78971, Note_on_c, 10, 53, 51
1, 78973, Pitch_bend_c, 3, 12742
1, 78984, Pitch_bend_c, 3, 13132
1, 78997, Pitch_bend_c, 3, 13912
1, 79007, Note_off_c, 8, 46, 0
1, 79007, Note_off_c, 10, 46, 0
1, 79009, Pitch_bend_c, 3, 14562
1, 79015, Note_off_c, 8, 53, 0
1, 79015, Note_off_c, 10, 53, 0
1, 79022, Pitch_bend_c, 3, 15212
1, 79032, Pitch_bend_c, 3, 15602
1, 79043, Note_off_c, 9, 43, 0
1, 79044, Pitch_bend_c, 3, 16122
1, 79073, Note_off_c, 9, 40, 0
1, 79074, Pitch_bend_c, 3, 14432
1, 79086, Pitch_bend_c, 3, 9882
1, 79095, Note_off_c, 3, 77, 0
1, 79096, Pitch_bend_c, 3, 8452
1, 79115, Lyric_t, "KING "
1, 79115, Note_on_c, 3, 82, 111
1, 79179, Note_off_c, 1, 34, 0
1, 79200, Note_on_c, 1, 34, 73
1, 79200, Note_on_c, 8, 46, 110
1, 79200, Note_on_c, 9, 35, 95
1, 79200, Note_on_c, 9, 40, 95
1, 79200, Note_on_c, 9, 43, 106
1, 79200, Note_on_c, 10, 46, 70
1, 79211, Note_on_c, 8, 53, 91
1, 79211, Note_on_c, 10, 53, 51
1, 79244, Note_off_c, 8, 46, 0
1, 79244, Note_off_c, 10, 46, 0
1, 79247, Note_off_c, 8, 53, 0
1, 79247, Note_off_c, 10, 53, 0
1, 79341, Note_off_c, 9, 43, 0
1, 79348, Note_off_c, 9, 35, 0
1, 79348, Note_off_c, 9, 40, 0
1, 79388, Note_off_c, 3, 82, 0
1, 79419, Note_off_c, 1, 34, 0
1, 79440, Note_on_c, 1, 34, 78
1, 79440, Note_on_c, 8, 46, 115
1, 79440, Note_on_c, 9, 40, 49
1, 79440, Note_on_c, 9, 43, 49
1, 79440, Note_on_c, 10, 46, 75
1, 79451, Note_on_c, 8, 53, 87
1, 79451, Note_on_c, 10, 53, 47
1, 79463, Lyric_t, "A "
1, 79463, Note_on_c, 3, 79, 106
1, 79491, Note_off_c, 8, 46, 0
1, 79491, Note_off_c, 10, 46, 0
1, 79495, Note_off_c, 8, 53, 0
1, 79495, Note_off_c, 10, 53, 0
1, 79523, Note_off_c, 9, 43, 0
1, 79553, Note_off_c, 9, 40, 0
1, 79659, Note_off_c, 1, 34, 0
1, 79666, Note_off_c, 3, 79, 0
1, 79680, Note_on_c, 1, 34, 65
1, 79680, Note_on_c, 8, 46, 102
1, 79680, Note_on_c, 9, 35, 95
1, 79680, Note_on_c, 9, 40, 98
1, 79680, Note_on_c, 9, 43, 102
1, 79680, Note_on_c, 10, 46, 62
1, 79691, Note_on_c, 8, 53, 91
1, 79691, Note_on_c, 10, 53, 51
1, 79700, Lyric_t, "HOME "
1, 79700, Note_on_c, 3, 77, 110
1, 79732, Note_off_c, 8, 46, 0
1, 79732, Note_off_c, 10, 46, 0
1, 79739, Note_off_c, 8, 53, 0
1, 79739, Note_off_c, 10, 53, 0
1, 79793, Note_off_c, 9, 43, 0
1, 79815, Note_off_c, 9, 40, 0
1, 79828, Note_off_c, 9, 35, 0
1, 79886, Note_off_c, 3, 77, 0
1, 79899, Note_off_c, 1, 34, 0
1, 79920, Note_on_c, 1, 34, 73
1, 79920, Note_on_c, 8, 46, 110
1, 79920, Note_on_c, 9, 40, 49
1, 79920, Note_on_c, 9, 43, 49
1, 79920, Note_on_c, 10, 46, 70
1, 79931, Note_on_c, 8, 53, 91
1, 79931, Note_on_c, 10, 53, 51
1, 79932, Lyric_t, "DOWN "
1, 79932, Note_on_c, 3, 75, 111
1, 79965, Note_off_c, 8, 46, 0
1, 79965, Note_off_c, 10, 46, 0
1, 79981, Note_off_c, 8, 53, 0
1, 79981, Note_off_c, 10, 53, 0
1, 80003, Note_off_c, 9, 43, 0
1, 80033, Note_off_c, 9, 40, 0
1, 80125, Note_off_c, 3, 75, 0
1, 80139, Note_off_c, 1, 34, 0
1, 80160, Note_on_c, 1, 34, 78
1, 80160, Note_on_c, 8, 46, 115
1, 80160, Note_on_c, 9, 35, 95
1, 80160, Note_on_c, 9, 40, 98
1, 80160, Note_on_c, 9, 43, 106
1, 80160, Note_on_c, 10, 46, 75
1, 80161, Lyric_t, "THERE"
1, 80161, Lyric_t, "\015"
1, 80161, Note_on_c, 3, 72, 110
1, 80171, Note_on_c, 8, 53, 83
1, 80171, Note_on_c, 10, 53, 43
1, 80204, Note_off_c, 8, 46, 0
1, 80204, Note_off_c, 10, 46, 0
1, 80217, Note_off_c, 8, 53, 0
1, 80217, Note_off_c, 10, 53, 0
1, 80284, Note_off_c, 3, 72, 0
1, 80308, Note_off_c, 9, 35, 0
1, 80315, Note_off_c, 9, 43, 0
1, 80332, Note_off_c, 9, 40, 0
1, 80379, Note_off_c, 1, 34, 0
1, 80400, Note_on_c, 1, 34, 83
1, 80400, Note_on_c, 8, 46, 120
1, 80400, Note_on_c, 9, 40, 49
1, 80400, Note_on_c, 9, 43, 49
1, 80400, Note_on_c, 10, 46, 80
1, 80411, Note_on_c, 8, 53, 105
1, 80411, Note_on_c, 10, 53, 65
1, 80415, Lyric_t, "AS "
1, 80415, Note_on_c, 3, 72, 125
1, 80447, Note_off_c, 8, 46, 0
1, 80447, Note_off_c, 10, 46, 0
1, 80465, Note_off_c, 8, 53, 0
1, 80465, Note_off_c, 10, 53, 0
1, 80483, Note_off_c, 9, 43, 0
1, 80513, Note_off_c, 9, 40, 0
1, 80529, Note_off_c, 3, 72, 0
1, 80535, Lyric_t, "MI"
1, 80535, Note_on_c, 3, 72, 125
1, 80619, Note_off_c, 1, 34, 0
1, 80634, Note_off_c, 3, 72, 0
1, 80640, Lyric_t, "NE "
1, 80640, Note_on_c, 1, 34, 83
1, 80640, Note_on_c, 3, 75, 123
1, 80640, Note_on_c, 8, 46, 120
1, 80640, Note_on_c, 9, 35, 95
1, 80640, Note_on_c, 9, 40, 98
1, 80640, Note_on_c, 9, 43, 106
1, 80640, Note_on_c, 10, 46, 80
1, 80651, Note_on_c, 8, 53, 105
1, 80651, Note_on_c, 10, 53, 65
1, 80687, Note_off_c, 8, 46, 0
1, 80687, Note_off_c, 10, 46, 0
1, 80705, Note_off_c, 8, 53, 0
1, 80705, Note_off_c, 10, 53, 0
1, 80731, Note_off_c, 7, 34, 0
1, 80731, Note_off_c, 7, 46, 0
1, 80755, Note_off_c, 9, 43, 0
1, 80770, Note_off_c, 9, 40, 0
1, 80788, Note_off_c, 9, 35, 0
1, 80850, Note_off_c, 3, 75, 0
1, 80859, Note_off_c, 1, 34, 0
1, 80880, Lyric_t, "SURE "
1, 80880, Note_on_c, 1, 31, 73
1, 80880, Note_on_c, 3, 75, 101
1, 80880, Note_on_c, 7, 31, 115
1, 80880, Note_on_c, 7, 43, 115
1, 80880, Note_on_c, 8, 43, 110
1, 80880, Note_on_c, 9, 40, 49
1, 80880, Note_on_c, 9, 43, 49
1, 80880, Note_on_c, 10, 43, 70
1, 80891, Note_on_c, 8, 50, 91
1, 80891, Note_on_c, 10, 50, 51
1, 80927, Note_off_c, 8, 43, 0
1, 80927, Note_off_c, 10, 43, 0
1, 80935, Note_off_c, 8, 50, 0
1, 80935, Note_off_c, 10, 50, 0
1, 80963, Note_off_c, 9, 43, 0
1, 80993, Note_off_c, 9, 40, 0
1, 81090, Note_off_c, 3, 75, 0
1, 81099, Note_off_c, 1, 31, 0
1, 81120, Lyric_t, "WON'T "
1, 81120, Note_on_c, 1, 31, 73
1, 81120, Note_on_c, 3, 74, 106
1, 81120, Note_on_c, 8, 43, 110
1, 81120, Note_on_c, 9, 35, 95
1, 81120, Note_on_c, 9, 40, 95
1, 81120, Note_on_c, 9, 43, 106
1, 81120, Note_on_c, 10, 43, 70
1, 81131, Note_on_c, 8, 50, 91
1, 81131, Note_on_c, 10, 50, 51
1, 81164, Note_off_c, 8, 43, 0
1, 81164, Note_off_c, 10, 43, 0
1, 81167, Note_off_c, 8, 50, 0
1, 81167, Note_off_c, 10, 50, 0
1, 81261, Note_off_c, 9, 43, 0
1, 81268, Note_off_c, 9, 35, 0
1, 81268, Note_off_c, 9, 40, 0
1, 81330, Note_off_c, 3, 74, 0
1, 81339, Note_off_c, 1, 31, 0
1, 81360, Lyric_t, "BE "
1, 81360, Note_on_c, 1, 31, 78
1, 81360, Note_on_c, 3, 72, 115
1, 81360, Note_on_c, 8, 43, 115
1, 81360, Note_on_c, 9, 40, 49
1, 81360, Note_on_c, 9, 43, 49
1, 81360, Note_on_c, 10, 43, 75
1, 81371, Note_on_c, 8, 50, 87
1, 81371, Note_on_c, 10, 50, 47
1, 81411, Note_off_c, 8, 43, 0
1, 81411, Note_off_c, 10, 43, 0
1, 81415, Note_off_c, 8, 50, 0
1, 81415, Note_off_c, 10, 50, 0
1, 81443, Note_off_c, 9, 43, 0
1, 81473, Note_off_c, 9, 40, 0
1, 81570, Note_off_c, 3, 72, 0
1, 81579, Note_off_c, 1, 31, 0
1, 81600, Lyric_t, "SHARED"
1, 81600, Lyric_t, "\015"
1, 81600, Note_on_c, 1, 31, 65
1, 81600, Note_on_c, 3, 72, 127
1, 81600, Note_on_c, 8, 43, 102
1, 81600, Note_on_c, 9, 35, 95
1, 81600, Note_on_c, 9, 40, 98
1, 81600, Note_on_c, 9, 43, 102
1, 81600, Note_on_c, 10, 43, 62
1, 81611, Note_on_c, 8, 50, 91
1, 81611, Note_on_c, 10, 50, 51
1, 81652, Note_off_c, 8, 43, 0
1, 81652, Note_off_c, 10, 43, 0
1, 81659, Note_off_c, 8, 50, 0
1, 81659, Note_off_c, 10, 50, 0
1, 81713, Note_off_c, 9, 43, 0
1, 81735, Note_off_c, 9, 40, 0
1, 81748, Note_off_c, 9, 35, 0
1, 81819, Note_off_c, 1, 31, 0
1, 81834, Note_off_c, 7, 31, 0
1, 81834, Note_off_c, 7, 43, 0
1, 81840, Note_on_c, 1, 34, 73
1, 81840, Note_on_c, 7, 34, 115
1, 81840, Note_on_c, 7, 46, 115
1, 81840, Note_on_c, 8, 46, 110
1, 81840, Note_on_c, 9, 40, 49
1, 81840, Note_on_c, 9, 43, 49
1, 81840, Note_on_c, 10, 46, 70
1, 81851, Note_on_c, 8, 53, 91
1, 81851, Note_on_c, 10, 53, 51
1, 81885, Note_off_c, 8, 46, 0
1, 81885, Note_off_c, 10, 46, 0
1, 81901, Note_off_c, 8, 53, 0
1, 81901, Note_off_c, 10, 53, 0
1, 81923, Note_off_c, 9, 43, 0
1, 81929, Note_off_c, 3, 72, 0
1, 81953, Note_off_c, 9, 40, 0
1, 82059, Note_off_c, 1, 34, 0
1, 82080, Note_on_c, 1, 34, 78
1, 82080, Note_on_c, 8, 46, 115
1, 82080, Note_on_c, 9, 35, 95
1, 82080, Note_on_c, 9, 40, 98
1, 82080, Note_on_c, 9, 43, 106
1, 82080, Note_on_c, 10, 46, 75
1, 82091, Note_on_c, 8, 53, 83
1, 82091, Note_on_c, 10, 53, 43
1, 82124, Note_off_c, 8, 46, 0
1, 82124, Note_off_c, 10, 46, 0
1, 82137, Note_off_c, 8, 53, 0
1, 82137, Note_off_c, 10, 53, 0
1, 82228, Note_off_c, 9, 35, 0
1, 82235, Note_off_c, 9, 43, 0
1, 82252, Note_off_c, 9, 40, 0
1, 82299, Note_off_c, 1, 34, 0
1, 82320, Note_on_c, 1, 34, 83
1, 82320, Note_on_c, 8, 46, 120
1, 82320, Note_on_c, 9, 40, 49
1, 82320, Note_on_c, 9, 43, 49
1, 82320, Note_on_c, 9, 46, 106
1, 82320, Note_on_c, 10, 46, 80
1, 82331, Note_on_c, 8, 53, 105
1, 82331, Note_on_c, 10, 53, 65
1, 82367, Note_off_c, 8, 46, 0
1, 82367, Note_off_c, 10, 46, 0
1, 82385, Note_off_c, 8, 53, 0
1, 82385, Note_off_c, 10, 53, 0
1, 82403, Note_off_c, 9, 43, 0
1, 82433, Note_off_c, 9, 40, 0
1, 82475, Note_off_c, 9, 46, 0
1, 82531, Note_off_c, 7, 34, 0
1, 82531, Note_off_c, 7, 46, 0
1, 82539, Note_off_c, 1, 34, 0
1, 82560, Note_on_c, 1, 32, 113
1, 82560, Note_on_c, 4, 70, 123
1, 82560, Note_on_c, 7, 32, 114
1, 82560, Note_on_c, 7, 44, 114
1, 82560, Note_on_c, 7, 56, 114
1, 82560, Note_on_c, 7, 60, 114
1, 82560, Note_on_c, 7, 63, 114
1, 82560, Note_on_c, 8, 44, 104
1, 82560, Note_on_c, 9, 35, 95
1, 82560, Note_on_c, 9, 40, 98
1, 82560, Note_on_c, 9, 43, 106
1, 82560, Note_on_c, 10, 44, 105
1, 82571, Note_on_c, 8, 51, 106
1, 82602, Note_off_c, 8, 44, 0
1, 82618, Note_off_c, 8, 51, 0
1, 82656, Note_off_c, 4, 70, 0
1, 82675, Note_off_c, 9, 43, 0
1, 82680, Note_on_c, 4, 70, 123
1, 82690, Note_off_c, 9, 40, 0
1, 82708, Note_off_c, 9, 35, 0
1, 82776, Note_off_c, 4, 70, 0
1, 82779, Note_off_c, 1, 32, 0
1, 82779, Note_off_c, 10, 44, 0
1, 82800, Note_on_c, 1, 32, 113
1, 82800, Note_on_c, 4, 70, 116
1, 82800, Note_on_c, 8, 44, 121
1, 82800, Note_on_c, 9, 44, 95
1, 82800, Note_on_c, 10, 44, 105
1, 82811, Note_on_c, 8, 51, 106
1, 82828, Note_off_c, 9, 44, 0
1, 82845, Note_off_c, 8, 44, 0
1, 82850, Note_off_c, 8, 51, 0
1, 83001, Note_off_c, 4, 70, 0
1, 83019, Note_off_c, 1, 32, 0
1, 83019, Note_off_c, 10, 44, 0
1, 83040, Note_on_c, 1, 32, 118
1, 83040, Note_on_c, 4, 72, 127
1, 83040, Note_on_c, 8, 44, 89
1, 83040, Note_on_c, 9, 35, 95
1, 83040, Note_on_c, 9, 40, 95
1, 83040, Note_on_c, 9, 43, 106
1, 83040, Note_on_c, 10, 44, 110
1, 83051, Note_on_c, 8, 51, 93
1, 83073, Note_off_c, 8, 44, 0
1, 83085, Note_off_c, 8, 51, 0
1, 83181, Note_off_c, 9, 43, 0
1, 83185, Note_off_c, 4, 72, 0
1, 83188, Note_off_c, 9, 35, 0
1, 83188, Note_off_c, 9, 40, 0
1, 83259, Note_off_c, 1, 32, 0
1, 83259, Note_off_c, 10, 44, 0
1, 83280, Lyric_t, "THE SCARS "
1, 83280, Note_on_c, 1, 32, 113
1, 83280, Note_on_c, 3, 75, 123
1, 83280, Note_on_c, 4, 72, 127
1, 83280, Note_on_c, 8, 44, 108
1, 83280, Note_on_c, 9, 44, 95
1, 83280, Note_on_c, 10, 44, 105
1, 83291, Note_on_c, 8, 51, 93
1, 83308, Note_off_c, 9, 44, 0
1, 83320, Note_off_c, 8, 44, 0
1, 83332, Note_off_c, 8, 51, 0
1, 83353, Note_off_c, 4, 72, 0
1, 83390, Note_off_c, 3, 75, 0
1, 83400, Note_on_c, 4, 70, 123
1, 83499, Note_off_c, 1, 32, 0
1, 83499, Note_off_c, 10, 44, 0
1, 83520, Note_on_c, 1, 32, 113
1, 83520, Note_on_c, 8, 44, 93
1, 83520, Note_on_c, 9, 35, 95
1, 83520, Note_on_c, 9, 40, 98
1, 83520, Note_on_c, 9, 43, 102
1, 83520, Note_on_c, 10, 44, 105
1, 83531, Note_on_c, 8, 51, 81
1, 83540, Lyric_t, "OF "
1, 83540, Note_on_c, 3, 78, 127
1, 83550, Note_off_c, 4, 70, 0
1, 83558, Note_off_c, 8, 44, 0
1, 83569, Note_off_c, 8, 51, 0
1, 83629, Pitch_bend_c, 3, 8712
1, 83633, Note_off_c, 9, 43, 0
1, 83643, Pitch_bend_c, 3, 9102
1, 83655, Note_off_c, 9, 40, 0
1, 83661, Pitch_bend_c, 3, 9492
1, 83668, Note_off_c, 9, 35, 0
1, 83673, Pitch_bend_c, 3, 9752
1, 83683, Pitch_bend_c, 3, 9882
1, 83703, Pitch_bend_c, 3, 10142
1, 83739, Note_off_c, 1, 32, 0
1, 83739, Note_off_c, 10, 44, 0
1, 83760, Note_on_c, 1, 32, 118
1, 83760, Note_on_c, 8, 44, 116
1, 83760, Note_on_c, 9, 44, 95
1, 83760, Note_on_c, 10, 44, 110
1, 83771, Note_on_c, 8, 51, 93
1, 83772, Pitch_bend_c, 3, 10532
1, 83785, Pitch_bend_c, 3, 10922
1, 83788, Note_off_c, 9, 44, 0
1, 83801, Pitch_bend_c, 3, 11572
1, 83805, Note_off_c, 8, 44, 0
1, 83813, Pitch_bend_c, 3, 11962
1, 83814, Note_off_c, 8, 51, 0
1, 83826, Pitch_bend_c, 3, 12482
1, 83838, Pitch_bend_c, 3, 12612
1, 83872, Pitch_bend_c, 3, 12872
1, 83899, Note_off_c, 3, 78, 0
1, 83922, Pitch_bend_c, 3, 12612
1, 83937, Pitch_bend_c, 3, 11962
1, 83947, Pitch_bend_c, 3, 11442
1, 83959, Pitch_bend_c, 3, 10662
1, 83969, Pitch_bend_c, 3, 9752
1, 83979, Note_off_c, 1, 32, 0
1, 83979, Note_off_c, 10, 44, 0
1, 83983, Pitch_bend_c, 3, 8452
1, 83996, Lyric_t, "YOUR "
1, 83996, Note_on_c, 3, 78, 127
1, 84000, Note_on_c, 1, 32, 113
1, 84000, Note_on_c, 8, 44, 121
1, 84000, Note_on_c, 9, 35, 95
1, 84000, Note_on_c, 9, 40, 98
1, 84000, Note_on_c, 9, 43, 106
1, 84000, Note_on_c, 10, 44, 105
1, 84011, Note_on_c, 8, 51, 101
1, 84045, Note_off_c, 8, 44, 0
1, 84050, Note_off_c, 8, 51, 0
1, 84119, Pitch_bend_c, 3, 8972
1, 84132, Pitch_bend_c, 3, 9362
1, 84147, Pitch_bend_c, 3, 9752
1, 84148, Note_off_c, 9, 35, 0
1, 84155, Note_off_c, 9, 43, 0
1, 84162, Pitch_bend_c, 3, 10012
1, 84172, Note_off_c, 9, 40, 0
1, 84219, Note_off_c, 1, 32, 0
1, 84219, Note_off_c, 10, 44, 0
1, 84240, Note_on_c, 1, 32, 118
1, 84240, Note_on_c, 8, 44, 121
1, 84240, Note_on_c, 9, 44, 95
1, 84240, Note_on_c, 10, 44, 110
1, 84251, Note_on_c, 8, 51, 93
1, 84268, Note_off_c, 9, 44, 0
1, 84270, Pitch_bend_c, 3, 10142
1, 84286, Note_off_c, 8, 44, 0
1, 84289, Note_off_c, 8, 51, 0
1, 84307, Pitch_bend_c, 3, 10402
1, 84339, Note_off_c, 7, 32, 0
1, 84339, Note_off_c, 7, 44, 0
1, 84339, Note_off_c, 7, 56, 0
1, 84339, Note_off_c, 7, 60, 0
1, 84339, Note_off_c, 7, 63, 0
1, 84344, Pitch_bend_c, 3, 10532
1, 84360, Note_on_c, 9, 44, 95
1, 84361, Pitch_bend_c, 3, 10792
1, 84371, Pitch_bend_c, 3, 10922
1, 84388, Note_off_c, 9, 44, 0
1, 84391, Pitch_bend_c, 3, 11442
1, 84401, Pitch_bend_c, 3, 11572
1, 84409, Note_off_c, 3, 78, 0
1, 84419, Pitch_bend_c, 3, 11962
1, 84436, Pitch_bend_c, 3, 12482
1, 84453, Pitch_bend_c, 3, 12872
1, 84459, Note_off_c, 1, 32, 0
1, 84459, Note_off_c, 10, 44, 0
1, 84480, Note_on_c, 1, 34, 113
1, 84480, Note_on_c, 4, 70, 116
1, 84480, Note_on_c, 7, 34, 114
1, 84480, Note_on_c, 7, 46, 114
1, 84480, Note_on_c, 7, 58, 114
1, 84480, Note_on_c, 7, 62, 114
1, 84480, Note_on_c, 7, 65, 114
1, 84480, Note_on_c, 8, 46, 104
1, 84480, Note_on_c, 9, 35, 95
1, 84480, Note_on_c, 9, 40, 98
1, 84480, Note_on_c, 9, 43, 106
1, 84480, Note_on_c, 10, 46, 105
1, 84491, Lyric_t, "LO"
1, 84491, Note_on_c, 3, 78, 127
1, 84491, Note_on_c, 8, 53, 106
1, 84503, Pitch_bend_c, 3, 12092
1, 84515, Pitch_bend_c, 3, 10272
1, 84522, Note_off_c, 8, 46, 0
1, 84525, Pitch_bend_c, 3, 8452
1, 84538, Note_off_c, 8, 53, 0
1, 84559, Note_off_c, 4, 70, 0
1, 84595, Note_off_c, 9, 43, 0
1, 84600, Note_on_c, 4, 70, 101
1, 84610, Note_off_c, 9, 40, 0
1, 84622, Note_off_c, 3, 78, 0
1, 84628, Note_off_c, 9, 35, 0
1, 84636, Note_on_c, 3, 75, 116
1, 84638, Note_off_c, 4, 70, 0
1, 84699, Note_off_c, 1, 34, 0
1, 84699, Note_off_c, 10, 46, 0
1, 84720, Note_on_c, 1, 34, 113
1, 84720, Note_on_c, 4, 70, 123
1, 84720, Note_on_c, 8, 46, 121
1, 84720, Note_on_c, 9, 44, 95
1, 84720, Note_on_c, 10, 46, 105
1, 84725, Note_off_c, 3, 75, 0
1, 84731, Note_on_c, 8, 53, 106
1, 84748, Note_off_c, 9, 44, 0
1, 84756, Note_on_c, 3, 72, 115
1, 84765, Note_off_c, 8, 46, 0
1, 84770, Note_off_c, 8, 53, 0
1, 84820, Note_off_c, 4, 70, 0
1, 84889, Note_off_c, 3, 72, 0
1, 84939, Note_off_c, 1, 34, 0
1, 84939, Note_off_c, 10, 46, 0
1, 84960, Note_on_c, 1, 34, 118
1, 84960, Note_on_c, 4, 72, 127
1, 84960, Note_on_c, 8, 46, 89
1, 84960, Note_on_c, 9, 35, 95
1, 84960, Note_on_c, 9, 40, 95
1, 84960, Note_on_c, 9, 43, 106
1, 84960, Note_on_c, 10, 46, 110
1, 84971, Note_on_c, 8, 53, 93
1, 84993, Note_off_c, 8, 46, 0
1, 84996, Lyric_t, "VE"
1, 84996, Lyric_t, "\015"
1, 84996, Note_on_c, 3, 75, 120
1, 85005, Note_off_c, 8, 53, 0
1, 85101, Note_off_c, 9, 43, 0
1, 85108, Note_off_c, 9, 35, 0
1, 85108, Note_off_c, 9, 40, 0
1, 85132, Note_off_c, 4, 72, 0
1, 85146, Note_off_c, 3, 75, 0
1, 85179, Note_off_c, 1, 34, 0
1, 85179, Note_off_c, 10, 46, 0
1, 85200, Note_on_c, 1, 34, 113
1, 85200, Note_on_c, 4, 72, 125
1, 85200, Note_on_c, 8, 46, 108
1, 85200, Note_on_c, 9, 44, 95
1, 85200, Note_on_c, 10, 46, 105
1, 85211, Note_on_c, 8, 53, 93
1, 85222, Lyric_t, "RE"
1, 85222, Note_on_c, 3, 75, 127
1, 85228, Note_off_c, 9, 44, 0
1, 85240, Note_off_c, 8, 46, 0
1, 85252, Note_off_c, 8, 53, 0
1, 85294, Note_off_c, 4, 72, 0
1, 85320, Note_on_c, 4, 70, 127
1, 85342, Note_off_c, 3, 75, 0
1, 85419, Note_off_c, 1, 34, 0
1, 85419, Note_off_c, 10, 46, 0
1, 85440, Note_on_c, 1, 34, 113
1, 85440, Note_on_c, 8, 46, 93
1, 85440, Note_on_c, 9, 35, 95
1, 85440, Note_on_c, 9, 40, 98
1, 85440, Note_on_c, 9, 43, 102
1, 85440, Note_on_c, 10, 46, 105
1, 85451, Note_on_c, 8, 53, 81
1, 85467, Lyric_t, "MIND "
1, 85467, Note_on_c, 3, 78, 127
1, 85478, Note_off_c, 8, 46, 0
1, 85489, Note_off_c, 8, 53, 0
1, 85536, Note_off_c, 4, 70, 0
1, 85553, Note_off_c, 9, 43, 0
1, 85557, Pitch_bend_c, 3, 8582
1, 85571, Pitch_bend_c, 3, 9102
1, 85575, Note_off_c, 9, 40, 0
1, 85586, Pitch_bend_c, 3, 9492
1, 85588, Note_off_c, 9, 35, 0
1, 85596, Pitch_bend_c, 3, 9622
1, 85611, Pitch_bend_c, 3, 9882
1, 85659, Note_off_c, 1, 34, 0
1, 85659, Note_off_c, 10, 46, 0
1, 85663, Pitch_bend_c, 3, 10012
1, 85680, Note_on_c, 1, 34, 118
1, 85680, Note_on_c, 8, 46, 116
1, 85680, Note_on_c, 9, 44, 95
1, 85680, Note_on_c, 10, 46, 110
1, 85682, Pitch_bend_c, 3, 10272
1, 85691, Note_on_c, 8, 53, 93
1, 85692, Pitch_bend_c, 3, 8192
1, 85693, Pitch_bend_c, 3, 10532
1, 85708, Note_off_c, 9, 44, 0
1, 85708, Pitch_bend_c, 3, 10662
1, 85725, Note_off_c, 8, 46, 0
1, 85729, Pitch_bend_c, 3, 10922
1, 85734, Note_off_c, 8, 53, 0
1, 85742, Pitch_bend_c, 3, 11052
1, 85761, Pitch_bend_c, 3, 11572
1, 85779, Pitch_bend_c, 3, 11962
1, 85789, Pitch_bend_c, 3, 12092
1, 85815, Note_off_c, 3, 78, 0
1, 85853, Pitch_bend_c, 3, 11702
1, 85863, Pitch_bend_c, 3, 11182
1, 85873, Pitch_bend_c, 3, 10272
1, 85885, Pitch_bend_c, 3, 9362
1, 85895, Pitch_bend_c, 3, 8452
1, 85899, Note_off_c, 1, 34, 0
1, 85899, Note_off_c, 7, 34, 0
1, 85899, Note_off_c, 7, 46, 0
1, 85899, Note_off_c, 7, 58, 0
1, 85899, Note_off_c, 7, 62, 0
1, 85899, Note_off_c, 7, 65, 0
1, 85899, Note_off_c, 10, 46, 0
1, 85919, Lyric_t, "YOU "
1, 85919, Note_on_c, 3, 78, 123
1, 85920, Note_on_c, 1, 34, 113
1, 85920, Note_on_c, 7, 34, 114
1, 85920, Note_on_c, 7, 46, 114
1, 85920, Note_on_c, 7, 58, 114
1, 85920, Note_on_c, 7, 62, 114
1, 85920, Note_on_c, 7, 65, 114
1, 85920, Note_on_c, 8, 46, 121
1, 85920, Note_on_c, 9, 35, 95
1, 85920, Note_on_c, 9, 40, 98
1, 85920, Note_on_c, 9, 43, 106
1, 85920, Note_on_c, 10, 46, 105
1, 85931, Note_on_c, 8, 53, 101
1, 85965, Note_off_c, 8, 46, 0
1, 85970, Note_off_c, 8, 53, 0
1, 85994, Pitch_bend_c, 3, 8712
1, 86011, Pitch_bend_c, 3, 9102
1, 86026, Pitch_bend_c, 3, 9232
1, 86036, Pitch_bend_c, 3, 9492
1, 86046, Pitch_bend_c, 3, 9752
1, 86060, Pitch_bend_c, 3, 9882
1, 86068, Note_off_c, 9, 35, 0
1, 86075, Note_off_c, 9, 43, 0
1, 86092, Note_off_c, 9, 40, 0
1, 86115, Pitch_bend_c, 3, 10142
1, 86130, Pitch_bend_c, 3, 10272
1, 86139, Note_off_c, 1, 34, 0
1, 86139, Note_off_c, 10, 46, 0
1, 86142, Pitch_bend_c, 3, 10532
1, 86160, Note_on_c, 1, 34, 118
1, 86160, Note_on_c, 8, 46, 121
1, 86160, Note_on_c, 9, 46, 95
1, 86160, Note_on_c, 10, 46, 110
1, 86160, Pitch_bend_c, 3, 10922
1, 86171, Note_on_c, 8, 53, 93
1, 86177, Pitch_bend_c, 3, 11312
1, 86188, Note_off_c, 9, 46, 0
1, 86189, Pitch_bend_c, 3, 11572
1, 86206, Note_off_c, 8, 46, 0
1, 86209, Note_off_c, 8, 53, 0
1, 86322, Note_off_c, 3, 78, 0
1, 86341, Pitch_bend_c, 3, 10922
1, 86352, Pitch_bend_c, 3, 9882
1, 86363, Pitch_bend_c, 3, 8582
1, 86379, Note_off_c, 1, 34, 0
1, 86379, Note_off_c, 10, 46, 0
1, 86394, Note_off_c, 7, 34, 0
1, 86394, Note_off_c, 7, 46, 0
1, 86394, Note_off_c, 7, 58, 0
1, 86394, Note_off_c, 7, 62, 0
1, 86394, Note_off_c, 7, 65, 0
1, 86400, Note_on_c, 1, 31, 113
1, 86400, Note_on_c, 4, 70, 123
1, 86400, Note_on_c, 7, 31, 114
1, 86400, Note_on_c, 7, 43, 114
1, 86400, Note_on_c, 7, 55, 114
1, 86400, Note_on_c, 7, 58, 114
1, 86400, Note_on_c, 7, 62, 114
1, 86400, Note_on_c, 8, 43, 104
1, 86400, Note_on_c, 9, 35, 95
1, 86400, Note_on_c, 9, 40, 98
1, 86400, Note_on_c, 9, 43, 106
1, 86400, Note_on_c, 10, 43, 105
1, 86410, Lyric_t, "OF U"
1, 86410, Note_on_c, 3, 78, 127
1, 86411, Note_on_c, 8, 50, 106
1, 86423, Pitch_bend_c, 3, 8842
1, 86433, Pitch_bend_c, 3, 10272
1, 86442, Note_off_c, 8, 43, 0
1, 86443, Pitch_bend_c, 3, 11962
1, 86453, Pitch_bend_c, 3, 13522
1, 86458, Note_off_c, 8, 50, 0
1, 86463, Pitch_bend_c, 3, 14562
1, 86484, Pitch_bend_c, 3, 14302
1, 86494, Pitch_bend_c, 3, 11962
1, 86496, Note_off_c, 4, 70, 0
1, 86504, Pitch_bend_c, 3, 8192
1, 86515, Note_off_c, 9, 43, 0
1, 86520, Note_on_c, 4, 70, 123
1, 86530, Note_off_c, 9, 40, 0
1, 86548, Note_off_c, 9, 35, 0
1, 86558, Note_off_c, 3, 78, 0
1, 86576, Note_on_c, 3, 75, 111
1, 86616, Note_off_c, 4, 70, 0
1, 86619, Note_off_c, 1, 31, 0
1, 86619, Note_off_c, 10, 43, 0
1, 86640, Note_on_c, 1, 31, 113
1, 86640, Note_on_c, 4, 70, 116
1, 86640, Note_on_c, 8, 43, 121
1, 86640, Note_on_c, 9, 44, 95
1, 86640, Note_on_c, 10, 43, 105
1, 86651, Note_on_c, 8, 50, 106
1, 86668, Note_off_c, 9, 44, 0
1, 86678, Note_on_c, 3, 72, 102
1, 86683, Note_off_c, 3, 75, 0
1, 86685, Note_off_c, 8, 43, 0
1, 86690, Note_off_c, 8, 50, 0
1, 86838, Note_off_c, 3, 72, 0
1, 86841, Note_off_c, 4, 70, 0
1, 86859, Note_off_c, 1, 31, 0
1, 86859, Note_off_c, 10, 43, 0
1, 86880, Note_on_c, 1, 31, 118
1, 86880, Note_on_c, 4, 72, 127
1, 86880, Note_on_c, 8, 43, 89
1, 86880, Note_on_c, 9, 35, 95
1, 86880, Note_on_c, 9, 40, 95
1, 86880, Note_on_c, 9, 43, 106
1, 86880, Note_on_c, 10, 43, 110
1, 86891, Note_on_c, 8, 50, 93
1, 86913, Note_off_c, 8, 43, 0
1, 86925, Lyric_t, "S"
1, 86925, Lyric_t, "\015"
1, 86925, Note_off_c, 8, 50, 0
1, 86925, Note_on_c, 3, 75, 120
1, 87021, Note_off_c, 9, 43, 0
1, 87025, Note_off_c, 4, 72, 0
1, 87028, Note_off_c, 9, 35, 0
1, 87028, Note_off_c, 9, 40, 0
1, 87072, Note_off_c, 3, 75, 0
1, 87099, Note_off_c, 1, 31, 0
1, 87099, Note_off_c, 10, 43, 0
1, 87120, Note_on_c, 1, 31, 113
1, 87120, Note_on_c, 4, 72, 127
1, 87120, Note_on_c, 8, 43, 108
1, 87120, Note_on_c, 9, 44, 95
1, 87120, Note_on_c, 10, 43, 105
1, 87131, Note_on_c, 8, 50, 93
1, 87133, Lyric_t, "THEY "
1, 87133, Note_on_c, 3, 75, 127
1, 87148, Note_off_c, 9, 44, 0
1, 87160, Note_off_c, 8, 43, 0
1, 87172, Note_off_c, 8, 50, 0
1, 87193, Note_off_c, 4, 72, 0
1, 87240, Note_on_c, 4, 70, 123
1, 87243, Note_off_c, 3, 75, 0
1, 87339, Note_off_c, 1, 31, 0
1, 87339, Note_off_c, 10, 43, 0
1, 87360, Note_on_c, 1, 31, 113
1, 87360, Note_on_c, 8, 43, 93
1, 87360, Note_on_c, 9, 35, 95
1, 87360, Note_on_c, 9, 40, 98
1, 87360, Note_on_c, 9, 43, 102
1, 87360, Note_on_c, 10, 43, 105
1, 87371, Lyric_t, "KEEP "
1, 87371, Note_on_c, 3, 78, 123
1, 87371, Note_on_c, 8, 50, 81
1, 87390, Note_off_c, 4, 70, 0
1, 87398, Note_off_c, 8, 43, 0
1, 87409, Note_off_c, 8, 50, 0
1, 87435, Pitch_bend_c, 3, 8322
1, 87463, Pitch_bend_c, 3, 8582
1, 87473, Note_off_c, 9, 43, 0
1, 87480, Pitch_bend_c, 3, 8972
1, 87495, Note_off_c, 9, 40, 0
1, 87495, Pitch_bend_c, 3, 9362
1, 87508, Note_off_c, 9, 35, 0
1, 87510, Pitch_bend_c, 3, 9882
1, 87529, Pitch_bend_c, 3, 10272
1, 87539, Pitch_bend_c, 3, 10402
1, 87579, Note_off_c, 1, 31, 0
1, 87579, Note_off_c, 10, 43, 0
1, 87581, Pitch_bend_c, 3, 10662
1, 87600, Note_on_c, 1, 31, 118
1, 87600, Note_on_c, 8, 43, 116
1, 87600, Note_on_c, 9, 44, 95
1, 87600, Note_on_c, 10, 43, 110
1, 87611, Note_on_c, 8, 50, 93
1, 87611, Pitch_bend_c, 3, 11052
1, 87628, Note_off_c, 9, 44, 0
1, 87630, Pitch_bend_c, 3, 11442
1, 87645, Note_off_c, 8, 43, 0
1, 87645, Pitch_bend_c, 3, 11962
1, 87654, Note_off_c, 8, 50, 0
1, 87657, Pitch_bend_c, 3, 12352
1, 87668, Pitch_bend_c, 3, 12742
1, 87684, Pitch_bend_c, 3, 13392
1, 87696, Pitch_bend_c, 3, 13782
1, 87736, Note_off_c, 3, 78, 0
1, 87758, Pitch_bend_c, 3, 13652
1, 87772, Pitch_bend_c, 3, 12872
1, 87783, Pitch_bend_c, 3, 11962
1, 87795, Pitch_bend_c, 3, 11052
1, 87805, Pitch_bend_c, 3, 10012
1, 87819, Note_off_c, 1, 31, 0
1, 87819, Note_off_c, 10, 43, 0
1, 87819, Pitch_bend_c, 3, 8582
1, 87840, Note_on_c, 1, 31, 113
1, 87840, Note_on_c, 8, 43, 121
1, 87840, Note_on_c, 9, 35, 95
1, 87840, Note_on_c, 9, 40, 98
1, 87840, Note_on_c, 9, 43, 106
1, 87840, Note_on_c, 10, 43, 105
1, 87847, Lyric_t, "ME "
1, 87847, Note_on_c, 3, 78, 127
1, 87851, Note_on_c, 8, 50, 101
1, 87885, Note_off_c, 8, 43, 0
1, 87890, Note_off_c, 8, 50, 0
1, 87956, Pitch_bend_c, 3, 8712
1, 87970, Pitch_bend_c, 3, 9102
1, 87983, Pitch_bend_c, 3, 9622
1, 87988, Note_off_c, 9, 35, 0
1, 87995, Note_off_c, 9, 43, 0
1, 87997, Pitch_bend_c, 3, 10012
1, 88007, Pitch_bend_c, 3, 10142
1, 88012, Note_off_c, 9, 40, 0
1, 88022, Pitch_bend_c, 3, 10402
1, 88059, Note_off_c, 1, 31, 0
1, 88059, Note_off_c, 10, 43, 0
1, 88080, Note_on_c, 1, 31, 118
1, 88080, Note_on_c, 8, 43, 121
1, 88080, Note_on_c, 9, 44, 95
1, 88080, Note_on_c, 10, 43, 110
1, 88087, Pitch_bend_c, 3, 10662
1, 88091, Note_on_c, 8, 50, 93
1, 88099, Pitch_bend_c, 3, 10792
1, 88108, Note_off_c, 9, 44, 0
1, 88109, Pitch_bend_c, 3, 11052
1, 88119, Pitch_bend_c, 3, 11182
1, 88126, Note_off_c, 8, 43, 0
1, 88129, Note_off_c, 8, 50, 0
1, 88131, Pitch_bend_c, 3, 11442
1, 88148, Pitch_bend_c, 3, 11702
1, 88168, Pitch_bend_c, 3, 11832
1, 88190, Pitch_bend_c, 3, 12092
1, 88200, Note_on_c, 9, 44, 95
1, 88218, Pitch_bend_c, 3, 12222
1, 88228, Note_off_c, 9, 44, 0
1, 88233, Note_off_c, 3, 78, 0
1, 88240, Pitch_bend_c, 3, 12482
1, 88255, Pitch_bend_c, 3, 12742
1, 88265, Pitch_bend_c, 3, 12872
1, 88279, Pitch_bend_c, 3, 13132
1, 88299, Note_off_c, 1, 31, 0
1, 88299, Note_off_c, 7, 31, 0
1, 88299, Note_off_c, 7, 43, 0
1, 88299, Note_off_c, 7, 55, 0
1, 88299, Note_off_c, 7, 58, 0
1, 88299, Note_off_c, 7, 62, 0
1, 88299, Note_off_c, 10, 43, 0
1, 88320, Lyric_t, "THIN"
1, 88320, Note_on_c, 1, 32, 113
1, 88320, Note_on_c, 3, 77, 123
1, 88320, Note_on_c, 4, 70, 116
1, 88320, Note_on_c, 7, 32, 114
1, 88320, Note_on_c, 7, 44, 114
1, 88320, Note_on_c, 7, 56, 114
1, 88320, Note_on_c, 7, 60, 114
1, 88320, Note_on_c, 7, 63, 114
1, 88320, Note_on_c, 8, 44, 104
1, 88320, Note_on_c, 9, 35, 95
1, 88320, Note_on_c, 9, 40, 98
1, 88320, Note_on_c, 9, 43, 106
1, 88320, Note_on_c, 10, 44, 105
1, 88321, Pitch_bend_c, 3, 12612
1, 88331, Note_on_c, 8, 51, 106
1, 88333, Pitch_bend_c, 3, 10402
1, 88343, Pitch_bend_c, 3, 8322
1, 88362, Note_off_c, 8, 44, 0
1, 88378, Note_off_c, 8, 51, 0
1, 88399, Note_off_c, 4, 70, 0
1, 88435, Note_off_c, 3, 77, 0
1, 88435, Note_off_c, 9, 43, 0
1, 88440, Note_on_c, 4, 70, 123
1, 88450, Note_off_c, 9, 40, 0
1, 88468, Note_off_c, 9, 35, 0
1, 88539, Note_off_c, 1, 32, 0
1, 88539, Note_off_c, 10, 44, 0
1, 88540, Note_off_c, 4, 70, 0
1, 88560, Lyric_t, "KING"
1, 88560, Lyric_t, "\015"
1, 88560, Note_on_c, 1, 32, 113
1, 88560, Note_on_c, 3, 75, 111
1, 88560, Note_on_c, 4, 70, 101
1, 88560, Note_on_c, 8, 44, 121
1, 88560, Note_on_c, 9, 44, 95
1, 88560, Note_on_c, 10, 44, 105
1, 88571, Note_on_c, 8, 51, 106
1, 88588, Note_off_c, 9, 44, 0
1, 88598, Note_off_c, 4, 70, 0
1, 88605, Note_off_c, 8, 44, 0
1, 88610, Note_off_c, 8, 51, 0
1, 88688, Note_off_c, 3, 75, 0
1, 88779, Note_off_c, 1, 32, 0
1, 88779, Note_off_c, 10, 44, 0
1, 88800, Note_on_c, 1, 32, 118
1, 88800, Note_on_c, 4, 72, 127
1, 88800, Note_on_c, 8, 44, 89
1, 88800, Note_on_c, 9, 35, 95
1, 88800, Note_on_c, 9, 40, 95
1, 88800, Note_on_c, 9, 43, 106
1, 88800, Note_on_c, 10, 44, 110
1, 88801, Lyric_t, "THAT "
1, 88801, Note_on_c, 3, 75, 127
1, 88811, Note_on_c, 8, 51, 93
1, 88833, Note_off_c, 8, 44, 0
1, 88845, Note_off_c, 8, 51, 0
1, 88889, Note_off_c, 3, 75, 0
1, 88941, Note_off_c, 9, 43, 0
1, 88948, Note_off_c, 9, 35, 0
1, 88948, Note_off_c, 9, 40, 0
1, 88972, Note_off_c, 4, 72, 0
1, 89019, Note_off_c, 1, 32, 0
1, 89019, Note_off_c, 10, 44, 0
1, 89039, Lyric_t, "WE "
1, 89039, Note_on_c, 3, 75, 127
1, 89040, Note_on_c, 1, 32, 113
1, 89040, Note_on_c, 4, 72, 125
1, 89040, Note_on_c, 8, 44, 108
1, 89040, Note_on_c, 9, 44, 95
1, 89040, Note_on_c, 10, 44, 105
1, 89051, Note_on_c, 8, 51, 93
1, 89068, Note_off_c, 9, 44, 0
1, 89080, Note_off_c, 8, 44, 0
1, 89092, Note_off_c, 8, 51, 0
1, 89126, Note_off_c, 3, 75, 0
1, 89134, Note_off_c, 4, 72, 0
1, 89160, Note_on_c, 4, 70, 127
1, 89259, Note_off_c, 1, 32, 0
1, 89259, Note_off_c, 10, 44, 0
1, 89268, Lyric_t, "AL"
1, 89268, Note_on_c, 3, 77, 127
1, 89280, Note_on_c, 1, 32, 113
1, 89280, Note_on_c, 8, 44, 93
1, 89280, Note_on_c, 9, 35, 95
1, 89280, Note_on_c, 9, 40, 98
1, 89280, Note_on_c, 9, 43, 102
1, 89280, Note_on_c, 10, 44, 105
1, 89291, Note_on_c, 8, 51, 81
1, 89318, Note_off_c, 8, 44, 0
1, 89329, Note_off_c, 8, 51, 0
1, 89376, Note_off_c, 4, 70, 0
1, 89393, Note_off_c, 9, 43, 0
1, 89415, Note_off_c, 9, 40, 0
1, 89428, Note_off_c, 9, 35, 0
1, 89468, Note_off_c, 3, 77, 0
1, 89499, Note_off_c, 1, 32, 0
1, 89499, Note_off_c, 10, 44, 0
1, 89515, Lyric_t, "MOST "
1, 89515, Note_on_c, 3, 75, 123
1, 89520, Note_on_c, 1, 32, 118
1, 89520, Note_on_c, 8, 44, 116
1, 89520, Note_on_c, 9, 44, 95
1, 89520, Note_on_c, 10, 44, 110
1, 89531, Note_on_c, 8, 51, 93
1, 89548, Note_off_c, 9, 44, 0
1, 89565, Note_off_c, 8, 44, 0
1, 89574, Note_off_c, 8, 51, 0
1, 89601, Note_off_c, 3, 75, 0
1, 89739, Note_off_c, 1, 32, 0
1, 89739, Note_off_c, 10, 44, 0
1, 89760, Lyric_t, "HAD "
1, 89760, Note_on_c, 1, 32, 113
1, 89760, Note_on_c, 3, 79, 127
1, 89760, Note_on_c, 8, 44, 121
1, 89760, Note_on_c, 9, 35, 95
1, 89760, Note_on_c, 9, 40, 98
1, 89760, Note_on_c, 9, 43, 106
1, 89760, Note_on_c, 10, 44, 105
1, 89771, Note_on_c, 8, 51, 101
1, 89805, Note_off_c, 8, 44, 0
1, 89810, Note_off_c, 8, 51, 0
1, 89908, Note_off_c, 9, 35, 0
1, 89915, Note_off_c, 9, 43, 0
1, 89932, Note_off_c, 9, 40, 0
1, 89960, Note_off_c, 3, 79, 0
1, 89979, Note_off_c, 1, 32, 0
1, 89979, Note_off_c, 10, 44, 0
1, 89994, Note_off_c, 7, 32, 0
1, 89994, Note_off_c, 7, 44, 0
1, 89994, Note_off_c, 7, 56, 0
1, 89994, Note_off_c, 7, 60, 0
1, 89994, Note_off_c, 7, 63, 0
1, 90000, Lyric_t, "IT "
1, 90000, Note_on_c, 1, 32, 118
1, 90000, Note_on_c, 3, 75, 127
1, 90000, Note_on_c, 7, 58, 114
1, 90000, Note_on_c, 7, 61, 114
1, 90000, Note_on_c, 7, 65, 114
1, 90000, Note_on_c, 8, 44, 121
1, 90000, Note_on_c, 9, 46, 95
1, 90000, Note_on_c, 10, 44, 110
1, 90011, Note_on_c, 8, 51, 93
1, 90028, Note_off_c, 9, 46, 0
1, 90046, Note_off_c, 8, 44, 0
1, 90049, Note_off_c, 8, 51, 0
1, 90200, Note_off_c, 3, 75, 0
1, 90219, Note_off_c, 1, 32, 0
1, 90219, Note_off_c, 7, 58, 0
1, 90219, Note_off_c, 7, 61, 0
1, 90219, Note_off_c, 7, 65, 0
1, 90219, Note_off_c, 10, 44, 0
1, 90240, Lyric_t, "ALL"
1, 90240, Lyric_t, "\015"
1, 90240, Note_on_c, 1, 32, 113
1, 90240, Note_on_c, 3, 75, 127
1, 90240, Note_on_c, 4, 70, 123
1, 90240, Note_on_c, 7, 32, 114
1, 90240, Note_on_c, 7, 44, 114
1, 90240, Note_on_c, 7, 56, 114
1, 90240, Note_on_c, 7, 60, 114
1, 90240, Note_on_c, 7, 63, 114
1, 90240, Note_on_c, 8, 44, 104
1, 90240, Note_on_c, 9, 35, 95
1, 90240, Note_on_c, 9, 40, 98
1, 90240, Note_on_c, 9, 43, 106
1, 90240, Note_on_c, 10, 44, 105
1, 90251, Note_on_c, 8, 51, 106
1, 90282, Note_off_c, 8, 44, 0
1, 90298, Note_off_c, 8, 51, 0
1, 90336, Note_off_c, 4, 70, 0
1, 90355, Note_off_c, 9, 43, 0
1, 90360, Note_on_c, 4, 70, 123
1, 90370, Note_off_c, 9, 40, 0
1, 90388, Note_off_c, 9, 35, 0
1, 90456, Note_off_c, 4, 70, 0
1, 90459, Note_off_c, 1, 32, 0
1, 90459, Note_off_c, 10, 44, 0
1, 90480, Note_on_c, 1, 32, 113
1, 90480, Note_on_c, 4, 70, 116
1, 90480, Note_on_c, 8, 44, 121
1, 90480, Note_on_c, 9, 44, 95
1, 90480, Note_on_c, 10, 44, 105
1, 90491, Note_on_c, 8, 51, 106
1, 90508, Note_off_c, 9, 44, 0
1, 90525, Note_off_c, 8, 44, 0
1, 90530, Note_off_c, 8, 51, 0
1, 90680, Note_off_c, 3, 75, 0
1, 90681, Note_off_c, 4, 70, 0
1, 90699, Note_off_c, 1, 32, 0
1, 90699, Note_off_c, 10, 44, 0
1, 90720, Note_on_c, 1, 32, 118
1, 90720, Note_on_c, 4, 72, 127
1, 90720, Note_on_c, 8, 44, 89
1, 90720, Note_on_c, 9, 35, 95
1, 90720, Note_on_c, 9, 40, 95
1, 90720, Note_on_c, 9, 43, 106
1, 90720, Note_on_c, 10, 44, 110
1, 90731, Note_on_c, 8, 51, 93
1, 90753, Note_off_c, 8, 44, 0
1, 90765, Note_off_c, 8, 51, 0
1, 90861, Note_off_c, 9, 43, 0
1, 90865, Note_off_c, 4, 72, 0
1, 90868, Note_off_c, 9, 35, 0
1, 90868, Note_off_c, 9, 40, 0
1, 90939, Note_off_c, 1, 32, 0
1, 90939, Note_off_c, 10, 44, 0
1, 90960, Lyric_t, "THE SCARS "
1, 90960, Note_on_c, 1, 32, 113
1, 90960, Note_on_c, 3, 75, 123
1, 90960, Note_on_c, 4, 72, 127
1, 90960, Note_on_c, 8, 44, 108
1, 90960, Note_on_c, 9, 44, 95
1, 90960, Note_on_c, 10, 44, 105
1, 90971, Note_on_c, 8, 51, 93
1, 90988, Note_off_c, 9, 44, 0
1, 91000, Note_off_c, 8, 44, 0
1, 91012, Note_off_c, 8, 51, 0
1, 91033, Note_off_c, 4, 72, 0
1, 91070, Note_off_c, 3, 75, 0
1, 91080, Note_on_c, 4, 70, 123
1, 91179, Note_off_c, 1, 32, 0
1, 91179, Note_off_c, 7, 32, 0
1, 91179, Note_off_c, 7, 44, 0
1, 91179, Note_off_c, 7, 56, 0
1, 91179, Note_off_c, 7, 60, 0
1, 91179, Note_off_c, 7, 63, 0
1, 91179, Note_off_c, 10, 44, 0
1, 91200, Note_on_c, 1, 32, 113
1, 91200, Note_on_c, 7, 32, 114
1, 91200, Note_on_c, 7, 44, 114
1, 91200, Note_on_c, 7, 56, 114
1, 91200, Note_on_c, 7, 60, 114
1, 91200, Note_on_c, 7, 63, 114
1, 91200, Note_on_c, 8, 44, 93
1, 91200, Note_on_c, 9, 35, 95
1, 91200, Note_on_c, 9, 40, 98
1, 91200, Note_on_c, 9, 43, 102
1, 91200, Note_on_c, 10, 44, 105
1, 91211, Note_on_c, 8, 51, 81
1, 91220, Lyric_t, "OF "
1, 91220, Note_on_c, 3, 78, 127
1, 91230, Note_off_c, 4, 70, 0
1, 91238, Note_off_c, 8, 44, 0
1, 91249, Note_off_c, 8, 51, 0
1, 91309, Pitch_bend_c, 3, 8712
1, 91313, Note_off_c, 9, 43, 0
1, 91323, Pitch_bend_c, 3, 9102
1, 91335, Note_off_c, 9, 40, 0
1, 91341, Pitch_bend_c, 3, 9492
1, 91348, Note_off_c, 9, 35, 0
1, 91353, Pitch_bend_c, 3, 9752
1, 91363, Pitch_bend_c, 3, 9882
1, 91383, Pitch_bend_c, 3, 10142
1, 91419, Note_off_c, 1, 32, 0
1, 91419, Note_off_c, 10, 44, 0
1, 91440, Note_on_c, 1, 32, 118
1, 91440, Note_on_c, 8, 44, 116
1, 91440, Note_on_c, 9, 44, 95
1, 91440, Note_on_c, 10, 44, 110
1, 91451, Note_on_c, 8, 51, 93
1, 91452, Pitch_bend_c, 3, 10532
1, 91465, Pitch_bend_c, 3, 10922
1, 91468, Note_off_c, 9, 44, 0
1, 91481, Pitch_bend_c, 3, 11572
1, 91485, Note_off_c, 8, 44, 0
1, 91493, Pitch_bend_c, 3, 11962
1, 91494, Note_off_c, 8, 51, 0
1, 91506, Pitch_bend_c, 3, 12482
1, 91518, Pitch_bend_c, 3, 12612
1, 91552, Pitch_bend_c, 3, 12872
1, 91579, Note_off_c, 3, 78, 0
1, 91602, Pitch_bend_c, 3, 12612
1, 91617, Pitch_bend_c, 3, 11962
1, 91627, Pitch_bend_c, 3, 11442
1, 91639, Pitch_bend_c, 3, 10662
1, 91649, Pitch_bend_c, 3, 9752
1, 91659, Note_off_c, 1, 32, 0
1, 91659, Note_off_c, 10, 44, 0
1, 91663, Pitch_bend_c, 3, 8452
1, 91676, Lyric_t, "YOUR "
1, 91676, Note_on_c, 3, 78, 127
1, 91680, Note_on_c, 1, 32, 113
1, 91680, Note_on_c, 8, 44, 121
1, 91680, Note_on_c, 9, 35, 95
1, 91680, Note_on_c, 9, 40, 98
1, 91680, Note_on_c, 9, 43, 106
1, 91680, Note_on_c, 10, 44, 105
1, 91691, Note_on_c, 8, 51, 101
1, 91725, Note_off_c, 8, 44, 0
1, 91730, Note_off_c, 8, 51, 0
1, 91779, Note_off_c, 7, 32, 0
1, 91779, Note_off_c, 7, 44, 0
1, 91779, Note_off_c, 7, 56, 0
1, 91779, Note_off_c, 7, 60, 0
1, 91779, Note_off_c, 7, 63, 0
1, 91799, Pitch_bend_c, 3, 8972
1, 91812, Pitch_bend_c, 3, 9362
1, 91827, Pitch_bend_c, 3, 9752
1, 91828, Note_off_c, 9, 35, 0
1, 91835, Note_off_c, 9, 43, 0
1, 91842, Pitch_bend_c, 3, 10012
1, 91852, Note_off_c, 9, 40, 0
1, 91899, Note_off_c, 1, 32, 0
1, 91899, Note_off_c, 10, 44, 0
1, 91920, Note_on_c, 1, 32, 118
1, 91920, Note_on_c, 7, 56, 105
1, 91920, Note_on_c, 7, 60, 127
1, 91920, Note_on_c, 7, 63, 123
1, 91920, Note_on_c, 8, 44, 121
1, 91920, Note_on_c, 9, 44, 95
1, 91920, Note_on_c, 10, 44, 110
1, 91931, Note_on_c, 8, 51, 93
1, 91948, Note_off_c, 9, 44, 0
1, 91950, Pitch_bend_c, 3, 10142
1, 91966, Note_off_c, 8, 44, 0
1, 91969, Note_off_c, 8, 51, 0
1, 91987, Pitch_bend_c, 3, 10402
1, 92024, Pitch_bend_c, 3, 10532
1, 92040, Note_on_c, 7, 44, 127
1, 92040, Note_on_c, 9, 44, 95
1, 92041, Pitch_bend_c, 3, 10792
1, 92051, Pitch_bend_c, 3, 10922
1, 92068, Note_off_c, 9, 44, 0
1, 92071, Pitch_bend_c, 3, 11442
1, 92080, Note_off_c, 7, 60, 0
1, 92081, Pitch_bend_c, 3, 11572
1, 92088, Note_off_c, 7, 63, 0
1, 92089, Note_off_c, 3, 78, 0
1, 92094, Note_off_c, 7, 56, 0
1, 92099, Pitch_bend_c, 3, 11962
1, 92116, Pitch_bend_c, 3, 12482
1, 92133, Pitch_bend_c, 3, 12872
1, 92139, Note_off_c, 1, 32, 0
1, 92139, Note_off_c, 10, 44, 0
1, 92145, Note_off_c, 7, 44, 0
1, 92160, Note_on_c, 1, 34, 113
1, 92160, Note_on_c, 4, 70, 116
1, 92160, Note_on_c, 7, 34, 114
1, 92160, Note_on_c, 7, 46, 114
1, 92160, Note_on_c, 7, 58, 114
1, 92160, Note_on_c, 7, 62, 114
1, 92160, Note_on_c, 7, 65, 114
1, 92160, Note_on_c, 8, 46, 104
1, 92160, Note_on_c, 9, 35, 95
1, 92160, Note_on_c, 9, 40, 98
1, 92160, Note_on_c, 9, 43, 106
1, 92160, Note_on_c, 10, 46, 105
1, 92171, Lyric_t, "LO"
1, 92171, Note_on_c, 3, 78, 127
1, 92171, Note_on_c, 8, 53, 106
1, 92183, Pitch_bend_c, 3, 12092
1, 92195, Pitch_bend_c, 3, 10272
1, 92202, Note_off_c, 8, 46, 0
1, 92205, Pitch_bend_c, 3, 8452
1, 92218, Note_off_c, 8, 53, 0
1, 92239, Note_off_c, 4, 70, 0
1, 92275, Note_off_c, 9, 43, 0
1, 92280, Note_on_c, 4, 70, 101
1, 92290, Note_off_c, 9, 40, 0
1, 92302, Note_off_c, 3, 78, 0
1, 92308, Note_off_c, 9, 35, 0
1, 92316, Note_on_c, 3, 75, 116
1, 92318, Note_off_c, 4, 70, 0
1, 92379, Note_off_c, 1, 34, 0
1, 92379, Note_off_c, 10, 46, 0
1, 92400, Note_on_c, 1, 34, 113
1, 92400, Note_on_c, 4, 70, 123
1, 92400, Note_on_c, 8, 46, 121
1, 92400, Note_on_c, 9, 44, 95
1, 92400, Note_on_c, 10, 46, 105
1, 92405, Note_off_c, 3, 75, 0
1, 92411, Note_on_c, 8, 53, 106
1, 92428, Note_off_c, 9, 44, 0
1, 92436, Note_on_c, 3, 72, 115
1, 92445, Note_off_c, 8, 46, 0
1, 92450, Note_off_c, 8, 53, 0
1, 92500, Note_off_c, 4, 70, 0
1, 92569, Note_off_c, 3, 72, 0
1, 92619, Note_off_c, 1, 34, 0
1, 92619, Note_off_c, 10, 46, 0
1, 92640, Note_on_c, 1, 34, 118
1, 92640, Note_on_c, 4, 72, 127
1, 92640, Note_on_c, 8, 46, 89
1, 92640, Note_on_c, 9, 35, 95
1, 92640, Note_on_c, 9, 40, 95
1, 92640, Note_on_c, 9, 43, 106
1, 92640, Note_on_c, 10, 46, 110
1, 92651, Note_on_c, 8, 53, 93
1, 92673, Note_off_c, 8, 46, 0
1, 92676, Lyric_t, "VE"
1, 92676, Lyric_t, "\015"
1, 92676, Note_on_c, 3, 75, 120
1, 92685, Note_off_c, 8, 53, 0
1, 92781, Note_off_c, 9, 43, 0
1, 92788, Note_off_c, 9, 35, 0
1, 92788, Note_off_c, 9, 40, 0
1, 92812, Note_off_c, 4, 72, 0
1, 92826, Note_off_c, 3, 75, 0
1, 92859, Note_off_c, 1, 34, 0
1, 92859, Note_off_c, 10, 46, 0
1, 92880, Note_on_c, 1, 34, 113
1, 92880, Note_on_c, 4, 72, 125
1, 92880, Note_on_c, 8, 46, 108
1, 92880, Note_on_c, 9, 44, 95
1, 92880, Note_on_c, 10, 46, 105
1, 92891, Note_on_c, 8, 53, 93
1, 92902, Lyric_t, "THEY "
1, 92902, Note_on_c, 3, 75, 127
1, 92908, Note_off_c, 9, 44, 0
1, 92920, Note_off_c, 8, 46, 0
1, 92932, Note_off_c, 8, 53, 0
1, 92974, Note_off_c, 4, 72, 0
1, 93000, Note_on_c, 4, 70, 127
1, 93022, Note_off_c, 3, 75, 0
1, 93099, Note_off_c, 1, 34, 0
1, 93099, Note_off_c, 10, 46, 0
1, 93108, Note_off_c, 7, 58, 0
1, 93114, Note_off_c, 7, 62, 0
1, 93120, Note_on_c, 1, 34, 113
1, 93120, Note_on_c, 7, 58, 97
1, 93120, Note_on_c, 8, 46, 93
1, 93120, Note_on_c, 9, 35, 95
1, 93120, Note_on_c, 9, 40, 98
1, 93120, Note_on_c, 9, 43, 102
1, 93120, Note_on_c, 10, 46, 105
1, 93131, Note_on_c, 8, 53, 81
1, 93147, Lyric_t, "LEAVE "
1, 93147, Note_on_c, 3, 78, 127
1, 93158, Note_off_c, 8, 46, 0
1, 93169, Note_off_c, 8, 53, 0
1, 93216, Note_off_c, 4, 70, 0
1, 93233, Note_off_c, 9, 43, 0
1, 93237, Pitch_bend_c, 3, 8582
1, 93251, Pitch_bend_c, 3, 9102
1, 93255, Note_off_c, 9, 40, 0
1, 93266, Pitch_bend_c, 3, 9492
1, 93268, Note_off_c, 9, 35, 0
1, 93276, Pitch_bend_c, 3, 9622
1, 93291, Pitch_bend_c, 3, 9882
1, 93339, Note_off_c, 1, 34, 0
1, 93339, Note_off_c, 10, 46, 0
1, 93343, Pitch_bend_c, 3, 10012
1, 93360, Note_on_c, 1, 34, 118
1, 93360, Note_on_c, 7, 62, 90
1, 93360, Note_on_c, 8, 46, 116
1, 93360, Note_on_c, 9, 44, 95
1, 93360, Note_on_c, 10, 46, 110
1, 93362, Pitch_bend_c, 3, 10272
1, 93371, Note_on_c, 8, 53, 93
1, 93372, Pitch_bend_c, 3, 8192
1, 93373, Pitch_bend_c, 3, 10532
1, 93388, Note_off_c, 9, 44, 0
1, 93388, Pitch_bend_c, 3, 10662
1, 93405, Note_off_c, 8, 46, 0
1, 93409, Pitch_bend_c, 3, 10922
1, 93414, Note_off_c, 8, 53, 0
1, 93422, Pitch_bend_c, 3, 11052
1, 93441, Pitch_bend_c, 3, 11572
1, 93459, Pitch_bend_c, 3, 11962
1, 93469, Pitch_bend_c, 3, 12092
1, 93474, Note_off_c, 7, 65, 0
1, 93495, Note_off_c, 3, 78, 0
1, 93533, Pitch_bend_c, 3, 11702
1, 93543, Pitch_bend_c, 3, 11182
1, 93553, Pitch_bend_c, 3, 10272
1, 93565, Pitch_bend_c, 3, 9362
1, 93575, Pitch_bend_c, 3, 8452
1, 93579, Note_off_c, 1, 34, 0
1, 93579, Note_off_c, 10, 46, 0
1, 93599, Lyric_t, "ME "
1, 93599, Note_on_c, 3, 78, 123
1, 93600, Note_on_c, 1, 34, 113
1, 93600, Note_on_c, 7, 65, 102
1, 93600, Note_on_c, 8, 46, 121
1, 93600, Note_on_c, 9, 35, 95
1, 93600, Note_on_c, 9, 40, 98
1, 93600, Note_on_c, 9, 43, 106
1, 93600, Note_on_c, 10, 46, 105
1, 93611, Note_on_c, 8, 53, 101
1, 93645, Note_off_c, 8, 46, 0
1, 93650, Note_off_c, 8, 53, 0
1, 93674, Pitch_bend_c, 3, 8712
1, 93691, Pitch_bend_c, 3, 9102
1, 93706, Pitch_bend_c, 3, 9232
1, 93716, Pitch_bend_c, 3, 9492
1, 93726, Pitch_bend_c, 3, 9752
1, 93740, Pitch_bend_c, 3, 9882
1, 93748, Note_off_c, 9, 35, 0
1, 93755, Note_off_c, 9, 43, 0
1, 93772, Note_off_c, 9, 40, 0
1, 93795, Pitch_bend_c, 3, 10142
1, 93810, Pitch_bend_c, 3, 10272
1, 93819, Note_off_c, 1, 34, 0
1, 93819, Note_off_c, 7, 34, 0
1, 93819, Note_off_c, 7, 46, 0
1, 93819, Note_off_c, 10, 46, 0
1, 93822, Pitch_bend_c, 3, 10532
1, 93840, Note_on_c, 1, 34, 118
1, 93840, Note_on_c, 7, 70, 127
1, 93840, Note_on_c, 8, 46, 121
1, 93840, Note_on_c, 9, 46, 95
1, 93840, Note_on_c, 10, 46, 110
1, 93840, Pitch_bend_c, 3, 10922
1, 93851, Note_on_c, 8, 53, 93
1, 93857, Pitch_bend_c, 3, 11312
1, 93868, Note_off_c, 9, 46, 0
1, 93869, Pitch_bend_c, 3, 11572
1, 93886, Note_off_c, 8, 46, 0
1, 93889, Note_off_c, 8, 53, 0
1, 94002, Note_off_c, 3, 78, 0
1, 94021, Pitch_bend_c, 3, 10922
1, 94032, Pitch_bend_c, 3, 9882
1, 94042, Note_off_c, 7, 65, 0
1, 94043, Pitch_bend_c, 3, 8582
1, 94053, Note_off_c, 7, 70, 0
1, 94059, Note_off_c, 1, 34, 0
1, 94059, Note_off_c, 10, 46, 0
1, 94072, Note_off_c, 7, 62, 0
1, 94077, Note_off_c, 7, 58, 0
1, 94080, Note_on_c, 1, 31, 113
1, 94080, Note_on_c, 4, 70, 123
1, 94080, Note_on_c, 7, 31, 114
1, 94080, Note_on_c, 7, 43, 114
1, 94080, Note_on_c, 7, 58, 114
1, 94080, Note_on_c, 7, 62, 114
1, 94080, Note_on_c, 7, 67, 114
1, 94080, Note_on_c, 8, 43, 104
1, 94080, Note_on_c, 9, 35, 95
1, 94080, Note_on_c, 9, 40, 98
1, 94080, Note_on_c, 9, 43, 106
1, 94080, Note_on_c, 10, 43, 105
1, 94090, Lyric_t, "BREATH"
1, 94090, Note_on_c, 3, 78, 127
1, 94091, Note_on_c, 8, 50, 106
1, 94103, Pitch_bend_c, 3, 8842
1, 94113, Pitch_bend_c, 3, 10272
1, 94122, Note_off_c, 8, 43, 0
1, 94123, Pitch_bend_c, 3, 11962
1, 94133, Pitch_bend_c, 3, 13522
1, 94138, Note_off_c, 8, 50, 0
1, 94143, Pitch_bend_c, 3, 14562
1, 94164, Pitch_bend_c, 3, 14302
1, 94174, Pitch_bend_c, 3, 11962
1, 94176, Note_off_c, 4, 70, 0
1, 94184, Pitch_bend_c, 3, 8192
1, 94195, Note_off_c, 9, 43, 0
1, 94200, Note_on_c, 4, 70, 123
1, 94210, Note_off_c, 9, 40, 0
1, 94228, Note_off_c, 9, 35, 0
1, 94238, Note_off_c, 3, 78, 0
1, 94256, Note_on_c, 3, 75, 111
1, 94296, Note_off_c, 4, 70, 0
1, 94299, Note_off_c, 1, 31, 0
1, 94299, Note_off_c, 10, 43, 0
1, 94320, Note_on_c, 1, 31, 113
1, 94320, Note_on_c, 4, 70, 116
1, 94320, Note_on_c, 8, 43, 121
1, 94320, Note_on_c, 9, 44, 95
1, 94320, Note_on_c, 10, 43, 105
1, 94331, Note_on_c, 8, 50, 106
1, 94348, Note_off_c, 9, 44, 0
1, 94358, Note_on_c, 3, 72, 102
1, 94363, Note_off_c, 3, 75, 0
1, 94365, Note_off_c, 8, 43, 0
1, 94370, Note_off_c, 8, 50, 0
1, 94518, Note_off_c, 3, 72, 0
1, 94521, Note_off_c, 4, 70, 0
1, 94539, Note_off_c, 1, 31, 0
1, 94539, Note_off_c, 10, 43, 0
1, 94560, Note_on_c, 1, 31, 118
1, 94560, Note_on_c, 4, 72, 127
1, 94560, Note_on_c, 8, 43, 89
1, 94560, Note_on_c, 9, 35, 95
1, 94560, Note_on_c, 9, 40, 95
1, 94560, Note_on_c, 9, 43, 106
1, 94560, Note_on_c, 10, 43, 110
1, 94571, Note_on_c, 8, 50, 93
1, 94593, Note_off_c, 8, 43, 0
1, 94605, Lyric_t, "LESS"
1, 94605, Lyric_t, "\015"
1, 94605, Note_off_c, 8, 50, 0
1, 94605, Note_on_c, 3, 75, 120
1, 94701, Note_off_c, 9, 43, 0
1, 94705, Note_off_c, 4, 72, 0
1, 94708, Note_off_c, 9, 35, 0
1, 94708, Note_off_c, 9, 40, 0
1, 94752, Note_off_c, 3, 75, 0
1, 94779, Note_off_c, 1, 31, 0
1, 94779, Note_off_c, 10, 43, 0
1, 94800, Note_on_c, 1, 31, 113
1, 94800, Note_on_c, 4, 72, 127
1, 94800, Note_on_c, 8, 43, 108
1, 94800, Note_on_c, 9, 44, 95
1, 94800, Note_on_c, 10, 43, 105
1, 94811, Note_on_c, 8, 50, 93
1, 94813, Lyric_t, "I "
1, 94813, Note_on_c, 3, 75, 127
1, 94828, Note_off_c, 9, 44, 0
1, 94840, Note_off_c, 8, 43, 0
1, 94852, Note_off_c, 8, 50, 0
1, 94873, Note_off_c, 4, 72, 0
1, 94920, Note_on_c, 4, 70, 123
1, 94923, Note_off_c, 3, 75, 0
1, 95019, Note_off_c, 1, 31, 0
1, 95019, Note_off_c, 10, 43, 0
1, 95040, Note_on_c, 1, 31, 113
1, 95040, Note_on_c, 8, 43, 93
1, 95040, Note_on_c, 9, 35, 95
1, 95040, Note_on_c, 9, 40, 98
1, 95040, Note_on_c, 9, 43, 102
1, 95040, Note_on_c, 10, 43, 105
1, 95051, Lyric_t, "CAN'T "
1, 95051, Note_on_c, 3, 78, 123
1, 95051, Note_on_c, 8, 50, 81
1, 95070, Note_off_c, 4, 70, 0
1, 95078, Note_off_c, 8, 43, 0
1, 95089, Note_off_c, 8, 50, 0
1, 95115, Pitch_bend_c, 3, 8322
1, 95143, Pitch_bend_c, 3, 8582
1, 95153, Note_off_c, 9, 43, 0
1, 95160, Pitch_bend_c, 3, 8972
1, 95175, Note_off_c, 9, 40, 0
1, 95175, Pitch_bend_c, 3, 9362
1, 95188, Note_off_c, 9, 35, 0
1, 95190, Pitch_bend_c, 3, 9882
1, 95209, Pitch_bend_c, 3, 10272
1, 95219, Pitch_bend_c, 3, 10402
1, 95259, Note_off_c, 1, 31, 0
1, 95259, Note_off_c, 10, 43, 0
1, 95261, Pitch_bend_c, 3, 10662
1, 95280, Note_on_c, 1, 31, 118
1, 95280, Note_on_c, 8, 43, 116
1, 95280, Note_on_c, 9, 44, 95
1, 95280, Note_on_c, 10, 43, 110
1, 95291, Note_on_c, 8, 50, 93
1, 95291, Pitch_bend_c, 3, 11052
1, 95308, Note_off_c, 9, 44, 0
1, 95310, Pitch_bend_c, 3, 11442
1, 95325, Note_off_c, 8, 43, 0
1, 95325, Pitch_bend_c, 3, 11962
1, 95334, Note_off_c, 8, 50, 0
1, 95337, Pitch_bend_c, 3, 12352
1, 95348, Pitch_bend_c, 3, 12742
1, 95364, Pitch_bend_c, 3, 13392
1, 95376, Pitch_bend_c, 3, 13782
1, 95416, Note_off_c, 3, 78, 0
1, 95438, Pitch_bend_c, 3, 13652
1, 95452, Pitch_bend_c, 3, 12872
1, 95463, Pitch_bend_c, 3, 11962
1, 95475, Pitch_bend_c, 3, 11052
1, 95485, Pitch_bend_c, 3, 10012
1, 95499, Note_off_c, 1, 31, 0
1, 95499, Note_off_c, 7, 67, 0
1, 95499, Note_off_c, 10, 43, 0
1, 95499, Pitch_bend_c, 3, 8582
1, 95514, Note_off_c, 7, 58, 0
1, 95514, Note_off_c, 7, 62, 0
1, 95520, Note_on_c, 1, 31, 113
1, 95520, Note_on_c, 7, 58, 114
1, 95520, Note_on_c, 7, 70, 114
1, 95520, Note_on_c, 8, 43, 121
1, 95520, Note_on_c, 9, 35, 95
1, 95520, Note_on_c, 9, 40, 98
1, 95520, Note_on_c, 9, 43, 106
1, 95520, Note_on_c, 10, 43, 105
1, 95527, Lyric_t, "HELP "
1, 95527, Note_on_c, 3, 78, 127
1, 95531, Note_on_c, 8, 50, 101
1, 95565, Note_off_c, 8, 43, 0
1, 95570, Note_off_c, 8, 50, 0
1, 95636, Pitch_bend_c, 3, 8712
1, 95650, Pitch_bend_c, 3, 9102
1, 95663, Pitch_bend_c, 3, 9622
1, 95668, Note_off_c, 9, 35, 0
1, 95675, Note_off_c, 9, 43, 0
1, 95677, Pitch_bend_c, 3, 10012
1, 95687, Pitch_bend_c, 3, 10142
1, 95692, Note_off_c, 9, 40, 0
1, 95702, Pitch_bend_c, 3, 10402
1, 95739, Note_off_c, 1, 31, 0
1, 95739, Note_off_c, 10, 43, 0
1, 95760, Note_on_c, 1, 31, 118
1, 95760, Note_on_c, 8, 43, 121
1, 95760, Note_on_c, 9, 44, 95
1, 95760, Note_on_c, 10, 43, 110
1, 95767, Pitch_bend_c, 3, 10662
1, 95771, Note_on_c, 8, 50, 93
1, 95779, Pitch_bend_c, 3, 10792
1, 95788, Note_off_c, 9, 44, 0
1, 95789, Pitch_bend_c, 3, 11052
1, 95799, Pitch_bend_c, 3, 11182
1, 95806, Note_off_c, 8, 43, 0
1, 95809, Note_off_c, 8, 50, 0
1, 95811, Pitch_bend_c, 3, 11442
1, 95828, Pitch_bend_c, 3, 11702
1, 95848, Pitch_bend_c, 3, 11832
1, 95870, Pitch_bend_c, 3, 12092
1, 95880, Note_on_c, 9, 44, 95
1, 95898, Pitch_bend_c, 3, 12222
1, 95908, Note_off_c, 9, 44, 0
1, 95913, Note_off_c, 3, 78, 0
1, 95920, Pitch_bend_c, 3, 12482
1, 95935, Pitch_bend_c, 3, 12742
1, 95945, Pitch_bend_c, 3, 12872
1, 95959, Pitch_bend_c, 3, 13132
1, 95979, Note_off_c, 1, 31, 0
1, 95979, Note_off_c, 7, 31, 0
1, 95979, Note_off_c, 7, 43, 0
1, 95979, Note_off_c, 7, 58, 0
1, 95979, Note_off_c, 7, 70, 0
1, 95979, Note_off_c, 10, 43, 0
1, 96000, Lyric_t, "FEE"
1, 96000, Note_on_c, 1, 31, 113
1, 96000, Note_on_c, 3, 77, 123
1, 96000, Note_on_c, 4, 70, 116
1, 96000, Note_on_c, 7, 43, 106
1, 96000, Note_on_c, 7, 55, 102
1, 96000, Note_on_c, 7, 62, 98
1, 96000, Note_on_c, 7, 67, 110
1, 96000, Note_on_c, 7, 71, 106
1, 96000, Note_on_c, 8, 43, 104
1, 96000, Note_on_c, 9, 35, 95
1, 96000, Note_on_c, 9, 40, 98
1, 96000, Note_on_c, 9, 43, 106
1, 96000, Note_on_c, 10, 43, 105
1, 96001, Pitch_bend_c, 3, 12612
1, 96011, Note_on_c, 8, 50, 106
1, 96013, Pitch_bend_c, 3, 10402
1, 96023, Pitch_bend_c, 3, 8322
1, 96042, Note_off_c, 8, 43, 0
1, 96058, Note_off_c, 8, 50, 0
1, 96079, Note_off_c, 4, 70, 0
1, 96115, Note_off_c, 9, 43, 0
1, 96120, Note_on_c, 4, 70, 123
1, 96130, Note_off_c, 9, 40, 0
1, 96148, Note_off_c, 9, 35, 0
1, 96210, Note_off_c, 7, 62, 0
1, 96219, Note_off_c, 1, 31, 0
1, 96219, Note_off_c, 10, 43, 0
1, 96220, Note_off_c, 4, 70, 0
1, 96234, Note_off_c, 3, 77, 0
1, 96240, Lyric_t, "LING"
1, 96240, Lyric_t, "\015"
1, 96240, Note_on_c, 1, 31, 113
1, 96240, Note_on_c, 3, 75, 111
1, 96240, Note_on_c, 4, 70, 101
1, 96240, Note_on_c, 8, 43, 121
1, 96240, Note_on_c, 9, 44, 95
1, 96240, Note_on_c, 10, 43, 105
1, 96251, Note_on_c, 8, 50, 106
1, 96268, Note_off_c, 9, 44, 0
1, 96278, Note_off_c, 4, 70, 0
1, 96285, Note_off_c, 8, 43, 0
1, 96290, Note_off_c, 8, 50, 0
1, 96295, Note_on_c, 6, 43, 80
1, 96296, Note_on_c, 6, 50, 63
1, 96360, Note_on_c, 7, 62, 63
1, 96391, Note_off_c, 7, 71, 0
1, 96403, Note_off_c, 7, 67, 0
1, 96419, Note_off_c, 6, 50, 0
1, 96439, Note_off_c, 6, 43, 0
1, 96459, Note_off_c, 1, 31, 0
1, 96459, Note_off_c, 10, 43, 0
1, 96480, Note_on_c, 1, 31, 118
1, 96480, Note_on_c, 4, 72, 127
1, 96480, Note_on_c, 7, 62, 102
1, 96480, Note_on_c, 7, 67, 106
1, 96480, Note_on_c, 7, 71, 110
1, 96480, Note_on_c, 8, 43, 89
1, 96480, Note_on_c, 9, 35, 95
1, 96480, Note_on_c, 9, 40, 95
1, 96480, Note_on_c, 9, 43, 106
1, 96480, Note_on_c, 10, 43, 110
1, 96487, Note_off_c, 7, 62, 0
1, 96491, Note_on_c, 8, 50, 93
1, 96513, Note_off_c, 8, 43, 0
1, 96525, Note_off_c, 8, 50, 0
1, 96525, Note_on_c, 6, 50, 87
1, 96530, Note_on_c, 6, 43, 110
1, 96608, Note_off_c, 3, 75, 0
1, 96614, Note_off_c, 7, 55, 0
1, 96621, Note_off_c, 9, 43, 0
1, 96628, Note_off_c, 9, 35, 0
1, 96628, Note_off_c, 9, 40, 0
1, 96652, Note_off_c, 4, 72, 0
1, 96670, Note_off_c, 6, 50, 0
1, 96673, Note_off_c, 6, 43, 0
1, 96699, Note_off_c, 1, 31, 0
1, 96699, Note_off_c, 10, 43, 0
1, 96702, Lyric_t, "WE "
1, 96702, Note_on_c, 3, 79, 125
1, 96720, Note_on_c, 1, 31, 113
1, 96720, Note_on_c, 4, 72, 125
1, 96720, Note_on_c, 7, 55, 102
1, 96720, Note_on_c, 8, 43, 108
1, 96720, Note_on_c, 9, 44, 95
1, 96720, Note_on_c, 10, 43, 105
1, 96731, Note_on_c, 8, 50, 93
1, 96748, Note_off_c, 9, 44, 0
1, 96755, Note_on_c, 6, 50, 110
1, 96760, Note_off_c, 8, 43, 0
1, 96760, Note_on_c, 6, 43, 125
1, 96770, Note_off_c, 3, 79, 0
1, 96772, Note_off_c, 8, 50, 0
1, 96814, Note_off_c, 4, 72, 0
1, 96840, Note_on_c, 4, 70, 127
1, 96883, Note_off_c, 7, 62, 0
1, 96887, Note_off_c, 7, 67, 0
1, 96889, Note_off_c, 7, 71, 0
1, 96932, Note_off_c, 6, 50, 0
1, 96935, Note_off_c, 6, 43, 0
1, 96939, Note_off_c, 1, 31, 0
1, 96939, Note_off_c, 10, 43, 0
1, 96941, Lyric_t, "COULD "
1, 96941, Note_on_c, 3, 82, 127
1, 96960, Note_on_c, 1, 31, 113
1, 96960, Note_on_c, 7, 62, 102
1, 96960, Note_on_c, 7, 67, 102
1, 96960, Note_on_c, 7, 71, 110
1, 96960, Note_on_c, 8, 43, 93
1, 96960, Note_on_c, 9, 35, 95
1, 96960, Note_on_c, 9, 40, 98
1, 96960, Note_on_c, 9, 43, 102
1, 96960, Note_on_c, 10, 43, 105
1, 96971, Note_on_c, 8, 50, 81
1, 96998, Note_off_c, 8, 43, 0
1, 97005, Note_on_c, 6, 50, 115
1, 97009, Note_off_c, 8, 50, 0
1, 97011, Note_on_c, 6, 43, 125
1, 97056, Note_off_c, 4, 70, 0
1, 97073, Note_off_c, 9, 43, 0
1, 97086, Note_off_c, 7, 55, 0
1, 97095, Note_off_c, 9, 40, 0
1, 97108, Note_off_c, 9, 35, 0
1, 97153, Note_off_c, 3, 82, 0
1, 97163, Note_off_c, 6, 43, 0
1, 97166, Note_off_c, 6, 50, 0
1, 97179, Note_off_c, 1, 31, 0
1, 97179, Note_off_c, 10, 43, 0
1, 97200, Note_on_c, 1, 31, 118
1, 97200, Note_on_c, 7, 55, 110
1, 97200, Note_on_c, 8, 43, 116
1, 97200, Note_on_c, 9, 46, 95
1, 97200, Note_on_c, 10, 43, 110
1, 97201, Lyric_t, "HAVE "
1, 97201, Note_on_c, 3, 79, 120
1, 97211, Note_on_c, 8, 50, 93
1, 97228, Note_off_c, 9, 46, 0
1, 97233, Note_on_c, 6, 50, 110
1, 97238, Note_on_c, 6, 43, 125
1, 97245, Note_off_c, 8, 43, 0
1, 97254, Note_off_c, 8, 50, 0
1, 97290, Note_off_c, 3, 79, 0
1, 97320, Note_on_c, 9, 40, 98
1, 97321, Note_off_c, 7, 62, 0
1, 97329, Note_off_c, 7, 67, 0
1, 97336, Note_off_c, 7, 71, 0
1, 97391, Note_off_c, 6, 50, 0
1, 97392, Note_off_c, 6, 43, 0
1, 97419, Note_off_c, 1, 31, 0
1, 97419, Note_off_c, 10, 43, 0
1, 97434, Note_off_c, 9, 40, 0
1, 97439, Lyric_t, "HAD "
1, 97439, Note_on_c, 3, 82, 127
1, 97440, Note_on_c, 1, 31, 113
1, 97440, Note_on_c, 7, 62, 110
1, 97440, Note_on_c, 7, 67, 125
1, 97440, Note_on_c, 7, 71, 127
1, 97440, Note_on_c, 8, 43, 121
1, 97440, Note_on_c, 9, 35, 95
1, 97440, Note_on_c, 9, 40, 98
1, 97440, Note_on_c, 9, 43, 106
1, 97440, Note_on_c, 10, 43, 105
1, 97451, Note_on_c, 8, 50, 101
1, 97472, Note_on_c, 6, 50, 120
1, 97477, Note_on_c, 6, 43, 127
1, 97485, Note_off_c, 8, 43, 0
1, 97490, Note_off_c, 8, 50, 0
1, 97492, Note_off_c, 9, 40, 0
1, 97522, Note_off_c, 7, 55, 0
1, 97560, Note_on_c, 9, 40, 98
1, 97588, Note_off_c, 9, 35, 0
1, 97595, Note_off_c, 9, 43, 0
1, 97612, Note_off_c, 9, 40, 0
1, 97613, Note_off_c, 6, 43, 0
1, 97616, Note_off_c, 6, 50, 0
1, 97659, Note_off_c, 1, 31, 0
1, 97659, Note_off_c, 10, 43, 0
1, 97680, Note_on_c, 1, 31, 118
1, 97680, Note_on_c, 7, 55, 125
1, 97680, Note_on_c, 8, 43, 121
1, 97680, Note_on_c, 9, 40, 98
1, 97680, Note_on_c, 10, 43, 110
1, 97685, Lyric_t, "IT "
1, 97685, Note_off_c, 3, 82, 0
1, 97685, Note_on_c, 3, 79, 125
1, 97687, Note_on_c, 6, 50, 115
1, 97691, Note_on_c, 8, 50, 93
1, 97698, Note_on_c, 6, 43, 127
1, 97726, Note_off_c, 8, 43, 0
1, 97729, Note_off_c, 8, 50, 0
1, 97732, Note_off_c, 9, 40, 0
1, 97781, Note_off_c, 6, 43, 0
1, 97787, Note_off_c, 7, 62, 0
1, 97789, Note_off_c, 6, 50, 0
1, 97789, Note_off_c, 7, 43, 0
1, 97791, Note_off_c, 7, 67, 0
1, 97795, Note_off_c, 7, 71, 0
1, 97800, Note_on_c, 9, 40, 98
1, 97808, Note_off_c, 3, 79, 0
1, 97852, Note_off_c, 9, 40, 0
1, 97862, Note_off_c, 7, 55, 0
1, 97899, Note_off_c, 1, 31, 0
1, 97899, Note_off_c, 10, 43, 0
1, 97920, Note_on_c, 1, 36, 113
1, 97920, Note_on_c, 4, 63, 116
1, 97920, Note_on_c, 4, 67, 102
1, 97920, Note_on_c, 4, 70, 102
1, 97920, Note_on_c, 7, 36, 115
1, 97920, Note_on_c, 7, 48, 115
1, 97920, Note_on_c, 7, 67, 106
1, 97920, Note_on_c, 7, 72, 125
1, 97920, Note_on_c, 7, 75, 116
1, 97920, Note_on_c, 8, 48, 125
1, 97920, Note_on_c, 8, 55, 115
1, 97920, Note_on_c, 8, 60, 120
1, 97920, Note_on_c, 9, 35, 116
1, 97920, Note_on_c, 9, 49, 98
1, 97928, Note_on_c, 10, 48, 113
1, 97931, Note_on_c, 6, 48, 127
1, 97931, Note_on_c, 6, 55, 125
1, 97948, Note_off_c, 9, 35, 0
1, 97948, Note_off_c, 9, 49, 0
1, 97949, Lyric_t, "AL"
1, 97949, Note_on_c, 3, 84, 125
1, 97957, Note_off_c, 7, 72, 0
1, 97958, Note_off_c, 7, 75, 0
1, 97971, Note_off_c, 6, 55, 0
1, 97973, Note_off_c, 7, 67, 0
1, 97981, Note_off_c, 6, 48, 0
1, 98013, Note_off_c, 8, 60, 0
1, 98015, Note_off_c, 8, 55, 0
1, 98044, Note_off_c, 4, 63, 0
1, 98046, Note_off_c, 4, 67, 0
1, 98046, Note_off_c, 4, 70, 0
1, 98102, Note_off_c, 8, 48, 0
1, 98139, Note_off_c, 1, 36, 0
1, 98147, Note_off_c, 10, 48, 0
1, 98160, Note_on_c, 1, 36, 113
1, 98160, Note_on_c, 4, 63, 116
1, 98160, Note_on_c, 4, 67, 87
1, 98160, Note_on_c, 4, 70, 87
1, 98160, Note_on_c, 7, 67, 77
1, 98160, Note_on_c, 7, 72, 106
1, 98160, Note_on_c, 7, 75, 86
1, 98160, Note_on_c, 8, 55, 90
1, 98160, Note_on_c, 8, 60, 102
1, 98160, Note_on_c, 9, 35, 116
1, 98160, Note_on_c, 9, 42, 98
1, 98168, Note_on_c, 10, 48, 113
1, 98171, Note_on_c, 6, 48, 125
1, 98171, Note_on_c, 6, 55, 125
1, 98188, Note_off_c, 9, 35, 0
1, 98188, Note_off_c, 9, 42, 0
1, 98191, Note_off_c, 7, 75, 0
1, 98197, Note_off_c, 7, 72, 0
1, 98204, Note_off_c, 6, 55, 0
1, 98210, Note_off_c, 7, 67, 0
1, 98220, Note_off_c, 6, 48, 0
1, 98222, Note_off_c, 8, 60, 0
1, 98229, Note_off_c, 8, 55, 0
1, 98270, Note_off_c, 4, 63, 0
1, 98271, Note_off_c, 4, 67, 0
1, 98271, Note_off_c, 4, 70, 0
1, 98379, Note_off_c, 1, 36, 0
1, 98387, Note_off_c, 10, 48, 0
1, 98400, Note_on_c, 1, 36, 118
1, 98400, Note_on_c, 4, 65, 102
1, 98400, Note_on_c, 4, 68, 123
1, 98400, Note_on_c, 4, 72, 123
1, 98400, Note_on_c, 7, 67, 120
1, 98400, Note_on_c, 7, 72, 127
1, 98400, Note_on_c, 7, 75, 127
1, 98400, Note_on_c, 8, 48, 127
1, 98400, Note_on_c, 8, 55, 125
1, 98400, Note_on_c, 8, 60, 127
1, 98400, Note_on_c, 9, 39, 85
1, 98400, Note_on_c, 9, 40, 116
1, 98400, Note_on_c, 9, 42, 98
1, 98400, Note_on_c, 9, 54, 116
1, 98408, Note_on_c, 10, 48, 118
1, 98411, Note_on_c, 6, 48, 127
1, 98411, Note_on_c, 6, 55, 127
1, 98428, Note_off_c, 9, 39, 0
1, 98428, Note_off_c, 9, 40, 0
1, 98428, Note_off_c, 9, 42, 0
1, 98428, Note_off_c, 9, 54, 0
1, 98462, Note_off_c, 6, 55, 0
1, 98469, Note_off_c, 7, 72, 0
1, 98474, Note_off_c, 7, 75, 0
1, 98478, Note_off_c, 7, 67, 0
1, 98492, Note_off_c, 6, 48, 0
1, 98541, Note_off_c, 8, 55, 0
1, 98562, Note_off_c, 8, 60, 0
1, 98575, Note_off_c, 8, 48, 0
1, 98619, Note_off_c, 1, 36, 0
1, 98627, Note_off_c, 10, 48, 0
1, 98640, Note_on_c, 1, 36, 113
1, 98640, Note_on_c, 7, 67, 74
1, 98640, Note_on_c, 7, 72, 98
1, 98640, Note_on_c, 7, 75, 97
1, 98640, Note_on_c, 8, 55, 102
1, 98640, Note_on_c, 8, 60, 115
1, 98640, Note_on_c, 9, 42, 98
1, 98648, Note_on_c, 10, 48, 113
1, 98651, Note_on_c, 6, 48, 125
1, 98651, Note_on_c, 6, 55, 120
1, 98668, Note_off_c, 4, 68, 0
1, 98668, Note_off_c, 4, 72, 0
1, 98668, Note_off_c, 9, 42, 0
1, 98688, Note_off_c, 4, 65, 0
1, 98693, Note_off_c, 6, 55, 0
1, 98705, Note_off_c, 7, 72, 0
1, 98711, Note_off_c, 7, 75, 0
1, 98719, Note_off_c, 6, 48, 0
1, 98720, Note_off_c, 7, 67, 0
1, 98732, Note_off_c, 8, 60, 0
1, 98735, Note_off_c, 8, 55, 0
1, 98756, Control_c, 3, 1, 1
1, 98760, Note_on_c, 4, 63, 123
1, 98760, Note_on_c, 4, 67, 115
1, 98760, Note_on_c, 4, 70, 115
1, 98786, Control_c, 3, 1, 4
1, 98816, Control_c, 3, 1, 8
1, 98846, Control_c, 3, 1, 12
1, 98859, Note_off_c, 1, 36, 0
1, 98859, Note_off_c, 4, 63, 0
1, 98860, Note_off_c, 4, 67, 0
1, 98860, Note_off_c, 4, 70, 0
1, 98867, Note_off_c, 10, 48, 0
1, 98876, Control_c, 3, 1, 16
1, 98877, Control_c, 3, 1, 17
1, 98880, Note_on_c, 1, 36, 113
1, 98880, Note_on_c, 7, 67, 106
1, 98880, Note_on_c, 7, 72, 127
1, 98880, Note_on_c, 7, 75, 116
1, 98880, Note_on_c, 8, 55, 115
1, 98880, Note_on_c, 8, 60, 127
1, 98880, Note_on_c, 9, 35, 116
1, 98880, Note_on_c, 9, 42, 98
1, 98888, Note_on_c, 10, 48, 113
1, 98891, Note_on_c, 6, 48, 127
1, 98891, Note_on_c, 6, 55, 120
1, 98907, Control_c, 3, 1, 20
1, 98908, Note_off_c, 9, 35, 0
1, 98908, Note_off_c, 9, 42, 0
1, 98922, Control_c, 3, 1, 22
1, 98948, Note_off_c, 6, 55, 0
1, 98949, Note_off_c, 7, 72, 0
1, 98952, Control_c, 3, 1, 25
1, 98956, Note_off_c, 7, 75, 0
1, 98958, Note_off_c, 7, 67, 0
1, 98965, Note_off_c, 6, 48, 0
1, 98967, Control_c, 3, 1, 27
1, 98997, Control_c, 3, 1, 31
1, 99004, Note_off_c, 8, 60, 0
1, 99008, Note_off_c, 8, 55, 0
1, 99027, Control_c, 3, 1, 35
1, 99057, Control_c, 3, 1, 39
1, 99087, Control_c, 3, 1, 44
1, 99099, Note_off_c, 1, 36, 0
1, 99107, Note_off_c, 10, 48, 0
1, 99117, Control_c, 3, 1, 48
1, 99120, Note_on_c, 1, 36, 118
1, 99120, Note_on_c, 7, 67, 71
1, 99120, Note_on_c, 7, 72, 90
1, 99120, Note_on_c, 7, 75, 81
1, 99120, Note_on_c, 8, 55, 83
1, 99120, Note_on_c, 8, 60, 102
1, 99120, Note_on_c, 9, 35, 116
1, 99120, Note_on_c, 9, 42, 98
1, 99128, Note_on_c, 10, 48, 118
1, 99131, Note_on_c, 6, 48, 120
1, 99131, Note_on_c, 6, 55, 115
1, 99147, Control_c, 3, 1, 52
1, 99148, Note_off_c, 9, 35, 0
1, 99148, Note_off_c, 9, 42, 0
1, 99167, Note_off_c, 7, 72, 0
1, 99167, Note_off_c, 7, 75, 0
1, 99168, Note_off_c, 6, 55, 0
1, 99177, Note_off_c, 6, 48, 0
1, 99177, Note_off_c, 8, 60, 0
1, 99177, Control_c, 3, 1, 57
1, 99184, Note_off_c, 7, 67, 0
1, 99193, Note_off_c, 8, 55, 0
1, 99204, Control_c, 3, 1, 61
1, 99234, Control_c, 3, 1, 65
1, 99239, Control_c, 3, 1, 66
1, 99269, Control_c, 3, 1, 69
1, 99299, Control_c, 3, 1, 73
1, 99321, Control_c, 3, 1, 76
1, 99336, Control_c, 3, 1, 79
1, 99339, Note_off_c, 1, 36, 0
1, 99347, Note_off_c, 10, 48, 0
1, 99351, Control_c, 3, 1, 82
1, 99360, Note_on_c, 1, 36, 113
1, 99360, Note_on_c, 7, 67, 115
1, 99360, Note_on_c, 7, 72, 127
1, 99360, Note_on_c, 7, 75, 123
1, 99360, Note_on_c, 8, 48, 127
1, 99360, Note_on_c, 8, 55, 125
1, 99360, Note_on_c, 8, 60, 127
1, 99360, Note_on_c, 9, 39, 85
1, 99360, Note_on_c, 9, 40, 116
1, 99360, Note_on_c, 9, 42, 98
1, 99360, Note_on_c, 9, 54, 116
1, 99366, Control_c, 3, 1, 86
1, 99368, Note_on_c, 10, 48, 113
1, 99371, Note_on_c, 6, 48, 127
1, 99371, Note_on_c, 6, 55, 125
1, 99381, Control_c, 3, 1, 89
1, 99388, Note_off_c, 9, 39, 0
1, 99388, Note_off_c, 9, 40, 0
1, 99388, Note_off_c, 9, 42, 0
1, 99388, Note_off_c, 9, 54, 0
1, 99396, Control_c, 3, 1, 93
1, 99399, Control_c, 3, 1, 94
1, 99414, Control_c, 3, 1, 97
1, 99429, Control_c, 3, 1, 100
1, 99432, Note_off_c, 6, 55, 0
1, 99433, Note_off_c, 7, 72, 0
1, 99436, Control_c, 3, 1, 102
1, 99448, Note_off_c, 7, 75, 0
1, 99449, Note_off_c, 6, 48, 0
1, 99450, Note_off_c, 7, 67, 0
1, 99470, Note_off_c, 8, 60, 0
1, 99474, Note_off_c, 8, 55, 0
1, 99525, Control_c, 3, 1, 102
1, 99535, Control_c, 3, 1, 0
1, 99565, Note_off_c, 3, 84, 0
1, 99579, Note_off_c, 1, 36, 0
1, 99587, Note_off_c, 10, 48, 0
1, 99600, Note_on_c, 1, 36, 118
1, 99600, Note_on_c, 7, 67, 106
1, 99600, Note_on_c, 7, 72, 115
1, 99600, Note_on_c, 7, 75, 105
1, 99600, Note_on_c, 8, 55, 98
1, 99600, Note_on_c, 8, 60, 115
1, 99600, Note_on_c, 9, 42, 98
1, 99608, Note_on_c, 10, 48, 118
1, 99611, Note_on_c, 6, 48, 125
1, 99611, Note_on_c, 6, 55, 125
1, 99615, Lyric_t, "L"
1, 99615, Lyric_t, "\015"
1, 99615, Note_on_c, 3, 82, 123
1, 99628, Note_off_c, 9, 42, 0
1, 99662, Note_off_c, 7, 72, 0
1, 99669, Note_off_c, 6, 55, 0
1, 99671, Note_off_c, 7, 75, 0
1, 99678, Note_off_c, 8, 60, 0
1, 99682, Note_off_c, 7, 67, 0
1, 99698, Note_off_c, 8, 55, 0
1, 99709, Note_off_c, 6, 48, 0
1, 99811, Note_off_c, 7, 36, 0
1, 99811, Note_off_c, 7, 48, 0
1, 99812, Note_off_c, 8, 48, 0
1, 99819, Note_off_c, 1, 36, 0
1, 99827, Note_off_c, 10, 48, 0
1, 99840, Note_on_c, 1, 34, 113
1, 99840, Note_on_c, 4, 63, 116
1, 99840, Note_on_c, 4, 67, 102
1, 99840, Note_on_c, 4, 70, 102
1, 99840, Note_on_c, 7, 34, 115
1, 99840, Note_on_c, 7, 46, 115
1, 99840, Note_on_c, 7, 65, 83
1, 99840, Note_on_c, 7, 70, 105
1, 99840, Note_on_c, 7, 74, 102
1, 99840, Note_on_c, 8, 53, 90
1, 99840, Note_on_c, 8, 58, 123
1, 99840, Note_on_c, 9, 35, 116
1, 99840, Note_on_c, 9, 42, 98
1, 99848, Note_on_c, 10, 46, 113
1, 99851, Note_on_c, 6, 46, 127
1, 99851, Note_on_c, 6, 53, 115
1, 99868, Note_off_c, 9, 35, 0
1, 99868, Note_off_c, 9, 42, 0
1, 99903, Note_off_c, 7, 74, 0
1, 99914, Note_off_c, 6, 53, 0
1, 99914, Note_off_c, 7, 65, 0
1, 99915, Note_off_c, 7, 70, 0
1, 99921, Note_off_c, 6, 46, 0
1, 99947, Note_off_c, 8, 53, 0
1, 99953, Note_off_c, 8, 58, 0
1, 99964, Note_off_c, 4, 63, 0
1, 99966, Note_off_c, 4, 67, 0
1, 99966, Note_off_c, 4, 70, 0
1, 100059, Note_off_c, 1, 34, 0
1, 100067, Note_off_c, 10, 46, 0
1, 100080, Note_off_c, 3, 82, 0
1, 100080, Note_on_c, 1, 34, 113
1, 100080, Note_on_c, 4, 63, 116
1, 100080, Note_on_c, 4, 67, 87
1, 100080, Note_on_c, 4, 70, 87
1, 100080, Note_on_c, 7, 65, 63
1, 100080, Note_on_c, 7, 70, 81
1, 100080, Note_on_c, 7, 74, 56
1, 100080, Note_on_c, 8, 53, 67
1, 100080, Note_on_c, 8, 58, 86
1, 100080, Note_on_c, 9, 35, 116
1, 100080, Note_on_c, 9, 42, 98
1, 100088, Note_on_c, 10, 46, 113
1, 100091, Note_on_c, 6, 46, 123
1, 100091, Note_on_c, 6, 53, 120
1, 100108, Note_off_c, 9, 35, 0
1, 100108, Note_off_c, 9, 42, 0
1, 100117, Note_off_c, 7, 74, 0
1, 100132, Note_off_c, 7, 65, 0
1, 100133, Note_off_c, 8, 58, 0
1, 100134, Note_off_c, 7, 70, 0
1, 100150, Note_off_c, 6, 53, 0
1, 100152, Note_off_c, 8, 53, 0
1, 100153, Note_off_c, 6, 46, 0
1, 100190, Note_off_c, 4, 63, 0
1, 100191, Note_off_c, 4, 67, 0
1, 100191, Note_off_c, 4, 70, 0
1, 100299, Note_off_c, 1, 34, 0
1, 100307, Note_off_c, 10, 46, 0
1, 100320, Note_on_c, 1, 34, 118
1, 100320, Note_on_c, 4, 65, 102
1, 100320, Note_on_c, 4, 68, 123
1, 100320, Note_on_c, 4, 72, 123
1, 100320, Note_on_c, 7, 65, 106
1, 100320, Note_on_c, 7, 70, 116
1, 100320, Note_on_c, 7, 74, 115
1, 100320, Note_on_c, 8, 46, 127
1, 100320, Note_on_c, 8, 53, 110
1, 100320, Note_on_c, 8, 58, 127
1, 100320, Note_on_c, 9, 39, 85
1, 100320, Note_on_c, 9, 40, 116
1, 100320, Note_on_c, 9, 42, 98
1, 100320, Note_on_c, 9, 54, 116
1, 100328, Note_on_c, 10, 46, 118
1, 100331, Note_on_c, 6, 46, 127
1, 100331, Note_on_c, 6, 53, 125
1, 100348, Note_off_c, 9, 39, 0
1, 100348, Note_off_c, 9, 40, 0
1, 100348, Note_off_c, 9, 42, 0
1, 100348, Note_off_c, 9, 54, 0
1, 100390, Note_off_c, 7, 65, 0
1, 100390, Note_off_c, 7, 70, 0
1, 100403, Note_off_c, 7, 74, 0
1, 100409, Note_off_c, 6, 53, 0
1, 100437, Note_off_c, 6, 46, 0
1, 100450, Note_off_c, 8, 53, 0
1, 100451, Note_off_c, 8, 58, 0
1, 100539, Note_off_c, 1, 34, 0
1, 100547, Note_off_c, 10, 46, 0
1, 100560, Note_on_c, 1, 34, 113
1, 100560, Note_on_c, 7, 65, 74
1, 100560, Note_on_c, 7, 70, 93
1, 100560, Note_on_c, 7, 74, 83
1, 100560, Note_on_c, 8, 53, 80
1, 100560, Note_on_c, 8, 58, 116
1, 100560, Note_on_c, 9, 42, 98
1, 100568, Note_on_c, 10, 46, 113
1, 100571, Note_on_c, 6, 46, 111
1, 100571, Note_on_c, 6, 53, 106
1, 100583, Lyric_t, "ROL"
1, 100583, Note_on_c, 3, 79, 125
1, 100588, Note_off_c, 4, 68, 0
1, 100588, Note_off_c, 4, 72, 0
1, 100588, Note_off_c, 9, 42, 0
1, 100608, Note_off_c, 4, 65, 0
1, 100626, Note_off_c, 7, 65, 0
1, 100628, Note_off_c, 7, 70, 0
1, 100636, Note_off_c, 6, 53, 0
1, 100636, Note_off_c, 7, 74, 0
1, 100640, Note_off_c, 6, 46, 0
1, 100646, Note_off_c, 3, 79, 0
1, 100649, Note_off_c, 8, 53, 0
1, 100657, Note_off_c, 8, 58, 0
1, 100680, Note_on_c, 4, 63, 123
1, 100680, Note_on_c, 4, 67, 115
1, 100680, Note_on_c, 4, 70, 115
1, 100779, Note_off_c, 1, 34, 0
1, 100779, Note_off_c, 4, 63, 0
1, 100780, Note_off_c, 4, 67, 0
1, 100780, Note_off_c, 4, 70, 0
1, 100787, Note_off_c, 10, 46, 0
1, 100800, Note_on_c, 1, 34, 113
1, 100800, Note_on_c, 7, 65, 90
1, 100800, Note_on_c, 7, 70, 101
1, 100800, Note_on_c, 7, 74, 98
1, 100800, Note_on_c, 8, 53, 90
1, 100800, Note_on_c, 8, 58, 123
1, 100800, Note_on_c, 9, 35, 116
1, 100800, Note_on_c, 9, 42, 98
1, 100808, Note_on_c, 10, 46, 113
1, 100811, Note_on_c, 6, 46, 127
1, 100811, Note_on_c, 6, 53, 120
1, 100827, Note_on_c, 3, 82, 127
1, 100828, Note_off_c, 9, 35, 0
1, 100828, Note_off_c, 9, 42, 0
1, 100866, Note_off_c, 7, 65, 0
1, 100869, Note_off_c, 7, 70, 0
1, 100884, Note_off_c, 7, 74, 0
1, 100887, Note_off_c, 6, 53, 0
1, 100893, Note_off_c, 6, 46, 0
1, 100897, Note_off_c, 8, 53, 0
1, 100909, Note_off_c, 8, 58, 0
1, 101019, Note_off_c, 1, 34, 0
1, 101027, Note_off_c, 10, 46, 0
1, 101034, Note_off_c, 3, 82, 0
1, 101040, Note_on_c, 1, 34, 118
1, 101040, Note_on_c, 7, 65, 74
1, 101040, Note_on_c, 7, 70, 89
1, 101040, Note_on_c, 7, 74, 90
1, 101040, Note_on_c, 8, 53, 63
1, 101040, Note_on_c, 8, 58, 97
1, 101040, Note_on_c, 9, 35, 116
1, 101040, Note_on_c, 9, 46, 98
1, 101041, Note_off_c, 8, 46, 0
1, 101048, Note_on_c, 10, 46, 118
1, 101051, Note_on_c, 6, 46, 116
1, 101051, Note_on_c, 6, 53, 110
1, 101068, Note_off_c, 9, 35, 0
1, 101068, Note_off_c, 9, 46, 0
1, 101072, Lyric_t, "LING "
1, 101072, Note_on_c, 3, 79, 106
1, 101085, Note_off_c, 8, 58, 0
1, 101091, Note_off_c, 8, 53, 0
1, 101098, Note_off_c, 7, 70, 0
1, 101100, Note_off_c, 7, 65, 0
1, 101112, Note_off_c, 7, 74, 0
1, 101116, Note_off_c, 6, 53, 0
1, 101120, Note_off_c, 6, 46, 0
1, 101140, Note_off_c, 3, 79, 0
1, 101259, Note_off_c, 1, 34, 0
1, 101267, Note_off_c, 10, 46, 0
1, 101280, Note_on_c, 1, 34, 113
1, 101280, Note_on_c, 7, 65, 98
1, 101280, Note_on_c, 7, 70, 111
1, 101280, Note_on_c, 7, 74, 106
1, 101280, Note_on_c, 8, 46, 123
1, 101280, Note_on_c, 8, 53, 102
1, 101280, Note_on_c, 8, 58, 127
1, 101280, Note_on_c, 9, 39, 85
1, 101280, Note_on_c, 9, 40, 116
1, 101280, Note_on_c, 9, 42, 98
1, 101280, Note_on_c, 9, 54, 116
1, 101288, Note_on_c, 10, 46, 113
1, 101291, Note_on_c, 6, 46, 127
1, 101291, Note_on_c, 6, 53, 120
1, 101302, Lyric_t, "IN "
1, 101302, Note_on_c, 3, 82, 127
1, 101308, Note_off_c, 9, 39, 0
1, 101308, Note_off_c, 9, 40, 0
1, 101308, Note_off_c, 9, 42, 0
1, 101308, Note_off_c, 9, 54, 0
1, 101342, Note_off_c, 7, 65, 0
1, 101345, Note_off_c, 7, 70, 0
1, 101352, Note_off_c, 7, 74, 0
1, 101363, Note_off_c, 6, 53, 0
1, 101370, Note_off_c, 6, 46, 0
1, 101383, Note_off_c, 8, 53, 0
1, 101397, Note_off_c, 8, 58, 0
1, 101495, Note_off_c, 3, 82, 0
1, 101499, Note_off_c, 1, 34, 0
1, 101507, Note_off_c, 10, 46, 0
1, 101520, Note_on_c, 1, 34, 118
1, 101520, Note_on_c, 7, 65, 98
1, 101520, Note_on_c, 7, 70, 105
1, 101520, Note_on_c, 7, 74, 106
1, 101520, Note_on_c, 8, 53, 98
1, 101520, Note_on_c, 8, 58, 111
1, 101520, Note_on_c, 9, 42, 98
1, 101528, Note_on_c, 10, 46, 118
1, 101531, Note_on_c, 6, 46, 123
1, 101531, Note_on_c, 6, 53, 115
1, 101533, Lyric_t, "THE "
1, 101533, Note_on_c, 3, 79, 106
1, 101548, Note_off_c, 9, 42, 0
1, 101576, Note_off_c, 7, 65, 0
1, 101579, Note_off_c, 7, 70, 0
1, 101583, Note_off_c, 8, 58, 0
1, 101592, Note_off_c, 7, 74, 0
1, 101602, Note_off_c, 6, 46, 0
1, 101611, Note_off_c, 6, 53, 0
1, 101613, Note_off_c, 8, 53, 0
1, 101634, Note_off_c, 3, 79, 0
1, 101731, Note_off_c, 7, 34, 0
1, 101731, Note_off_c, 7, 46, 0
1, 101739, Note_off_c, 1, 34, 0
1, 101747, Note_off_c, 10, 46, 0
1, 101753, Note_off_c, 8, 46, 0
1, 101760, Note_on_c, 1, 32, 113
1, 101760, Note_on_c, 4, 63, 116
1, 101760, Note_on_c, 4, 67, 102
1, 101760, Note_on_c, 4, 70, 102
1, 101760, Note_on_c, 7, 32, 115
1, 101760, Note_on_c, 7, 44, 115
1, 101760, Note_on_c, 7, 60, 125
1, 101760, Note_on_c, 7, 63, 116
1, 101760, Note_on_c, 7, 67, 115
1, 101760, Note_on_c, 8, 51, 127
1, 101760, Note_on_c, 8, 56, 123
1, 101760, Note_on_c, 9, 35, 116
1, 101760, Note_on_c, 9, 42, 98
1, 101768, Note_on_c, 10, 44, 113
1, 101771, Note_on_c, 6, 44, 116
1, 101771, Note_on_c, 6, 51, 127
1, 101781, Lyric_t, "DEE"
1, 101781, Note_on_c, 3, 84, 125
1, 101788, Note_off_c, 9, 35, 0
1, 101788, Note_off_c, 9, 42, 0
1, 101817, Note_off_c, 7, 63, 0
1, 101820, Note_off_c, 7, 60, 0
1, 101829, Note_off_c, 7, 67, 0
1, 101832, Note_off_c, 6, 51, 0
1, 101874, Note_off_c, 6, 44, 0
1, 101884, Note_off_c, 4, 63, 0
1, 101885, Note_off_c, 8, 51, 0
1, 101886, Note_off_c, 4, 67, 0
1, 101886, Note_off_c, 4, 70, 0
1, 101913, Note_off_c, 8, 56, 0
1, 101979, Note_off_c, 1, 32, 0
1, 101987, Note_off_c, 10, 44, 0
1, 102000, Note_on_c, 1, 32, 113
1, 102000, Note_on_c, 4, 63, 116
1, 102000, Note_on_c, 4, 67, 87
1, 102000, Note_on_c, 4, 70, 87
1, 102000, Note_on_c, 7, 60, 110
1, 102000, Note_on_c, 7, 63, 105
1, 102000, Note_on_c, 7, 67, 102
1, 102000, Note_on_c, 8, 51, 101
1, 102000, Note_on_c, 8, 56, 86
1, 102000, Note_on_c, 9, 35, 116
1, 102000, Note_on_c, 9, 42, 98
1, 102008, Note_on_c, 10, 44, 113
1, 102011, Note_on_c, 6, 44, 116
1, 102011, Note_on_c, 6, 51, 116
1, 102028, Note_off_c, 9, 35, 0
1, 102028, Note_off_c, 9, 42, 0
1, 102042, Note_off_c, 7, 60, 0
1, 102046, Note_off_c, 7, 63, 0
1, 102046, Note_off_c, 8, 56, 0
1, 102051, Note_off_c, 7, 67, 0
1, 102056, Note_off_c, 6, 51, 0
1, 102056, Note_off_c, 8, 51, 0
1, 102079, Note_off_c, 6, 44, 0
1, 102110, Note_off_c, 4, 63, 0
1, 102111, Note_off_c, 4, 67, 0
1, 102111, Note_off_c, 4, 70, 0
1, 102219, Note_off_c, 1, 32, 0
1, 102227, Note_off_c, 10, 44, 0
1, 102240, Note_on_c, 1, 32, 118
1, 102240, Note_on_c, 4, 65, 102
1, 102240, Note_on_c, 4, 68, 123
1, 102240, Note_on_c, 4, 72, 123
1, 102240, Note_on_c, 7, 60, 127
1, 102240, Note_on_c, 7, 63, 123
1, 102240, Note_on_c, 7, 67, 125
1, 102240, Note_on_c, 8, 44, 123
1, 102240, Note_on_c, 8, 51, 127
1, 102240, Note_on_c, 8, 54, 123
1, 102240, Note_on_c, 8, 56, 127
1, 102240, Note_on_c, 9, 39, 85
1, 102240, Note_on_c, 9, 40, 116
1, 102240, Note_on_c, 9, 42, 98
1, 102240, Note_on_c, 9, 54, 116
1, 102248, Note_on_c, 10, 44, 118
1, 102251, Note_on_c, 6, 44, 127
1, 102251, Note_on_c, 6, 51, 127
1, 102255, Note_off_c, 8, 54, 0
1, 102268, Note_off_c, 9, 39, 0
1, 102268, Note_off_c, 9, 40, 0
1, 102268, Note_off_c, 9, 42, 0
1, 102268, Note_off_c, 9, 54, 0
1, 102298, Note_off_c, 7, 60, 0
1, 102300, Note_off_c, 7, 63, 0
1, 102313, Note_off_c, 6, 51, 0
1, 102315, Note_off_c, 7, 67, 0
1, 102327, Note_off_c, 8, 51, 0
1, 102347, Note_off_c, 6, 44, 0
1, 102352, Note_off_c, 8, 56, 0
1, 102459, Note_off_c, 1, 32, 0
1, 102467, Note_off_c, 10, 44, 0
1, 102480, Note_on_c, 1, 32, 113
1, 102480, Note_on_c, 7, 60, 125
1, 102480, Note_on_c, 7, 63, 111
1, 102480, Note_on_c, 7, 67, 102
1, 102480, Note_on_c, 8, 51, 111
1, 102480, Note_on_c, 8, 56, 101
1, 102480, Note_on_c, 9, 42, 98
1, 102488, Note_on_c, 10, 44, 113
1, 102491, Note_on_c, 6, 44, 116
1, 102491, Note_on_c, 6, 51, 116
1, 102508, Note_off_c, 4, 68, 0
1, 102508, Note_off_c, 4, 72, 0
1, 102508, Note_off_c, 9, 42, 0
1, 102528, Note_off_c, 4, 65, 0
1, 102533, Note_off_c, 7, 60, 0
1, 102533, Note_off_c, 7, 63, 0
1, 102541, Note_off_c, 7, 67, 0
1, 102547, Note_off_c, 6, 51, 0
1, 102555, Note_off_c, 8, 51, 0
1, 102557, Note_off_c, 8, 56, 0
1, 102573, Note_off_c, 6, 44, 0
1, 102600, Note_on_c, 4, 63, 123
1, 102600, Note_on_c, 4, 67, 115
1, 102600, Note_on_c, 4, 70, 115
1, 102699, Note_off_c, 1, 32, 0
1, 102699, Note_off_c, 4, 63, 0
1, 102700, Note_off_c, 4, 67, 0
1, 102700, Note_off_c, 4, 70, 0
1, 102707, Note_off_c, 10, 44, 0
1, 102720, Note_on_c, 1, 32, 113
1, 102720, Note_on_c, 7, 60, 120
1, 102720, Note_on_c, 7, 63, 116
1, 102720, Note_on_c, 7, 67, 110
1, 102720, Note_on_c, 8, 51, 123
1, 102720, Note_on_c, 8, 54, 86
1, 102720, Note_on_c, 8, 56, 116
1, 102720, Note_on_c, 9, 35, 116
1, 102720, Note_on_c, 9, 42, 98
1, 102726, Note_off_c, 8, 54, 0
1, 102728, Note_on_c, 10, 44, 113
1, 102731, Note_on_c, 6, 44, 123
1, 102731, Note_on_c, 6, 51, 127
1, 102748, Note_off_c, 9, 35, 0
1, 102748, Note_off_c, 9, 42, 0
1, 102774, Note_off_c, 7, 60, 0
1, 102781, Note_off_c, 7, 63, 0
1, 102789, Note_off_c, 7, 67, 0
1, 102793, Note_off_c, 8, 51, 0
1, 102796, Note_off_c, 6, 51, 0
1, 102808, Note_off_c, 8, 56, 0
1, 102821, Note_off_c, 6, 44, 0
1, 102939, Note_off_c, 1, 32, 0
1, 102947, Note_off_c, 10, 44, 0
1, 102960, Note_on_c, 1, 32, 118
1, 102960, Note_on_c, 7, 60, 115
1, 102960, Note_on_c, 7, 63, 111
1, 102960, Note_on_c, 7, 67, 106
1, 102960, Note_on_c, 8, 51, 101
1, 102960, Note_on_c, 8, 56, 75
1, 102960, Note_on_c, 9, 35, 116
1, 102960, Note_on_c, 9, 42, 98
1, 102968, Note_on_c, 10, 44, 118
1, 102971, Note_on_c, 6, 44, 123
1, 102971, Note_on_c, 6, 51, 123
1, 102988, Note_off_c, 9, 35, 0
1, 102988, Note_off_c, 9, 42, 0
1, 102994, Note_off_c, 8, 56, 0
1, 102999, Note_off_c, 8, 51, 0
1, 103016, Note_off_c, 7, 60, 0
1, 103021, Note_off_c, 7, 63, 0
1, 103027, Note_off_c, 6, 51, 0
1, 103034, Note_off_c, 7, 67, 0
1, 103043, Note_off_c, 6, 44, 0
1, 103179, Note_off_c, 1, 32, 0
1, 103187, Note_off_c, 10, 44, 0
1, 103200, Note_on_c, 1, 32, 113
1, 103200, Note_on_c, 7, 60, 120
1, 103200, Note_on_c, 7, 63, 116
1, 103200, Note_on_c, 7, 67, 90
1, 103200, Note_on_c, 8, 51, 127
1, 103200, Note_on_c, 8, 56, 127
1, 103200, Note_on_c, 9, 39, 85
1, 103200, Note_on_c, 9, 40, 116
1, 103200, Note_on_c, 9, 42, 98
1, 103200, Note_on_c, 9, 54, 116
1, 103206, Pitch_bend_c, 3, 8712
1, 103208, Note_on_c, 10, 44, 113
1, 103211, Note_on_c, 6, 44, 127
1, 103211, Note_on_c, 6, 51, 127
1, 103216, Pitch_bend_c, 3, 12482
1, 103226, Pitch_bend_c, 3, 16383
1, 103228, Note_off_c, 9, 39, 0
1, 103228, Note_off_c, 9, 40, 0
1, 103228, Note_off_c, 9, 42, 0
1, 103228, Note_off_c, 9, 54, 0
1, 103255, Note_off_c, 7, 60, 0
1, 103260, Note_off_c, 7, 63, 0
1, 103270, Note_off_c, 7, 67, 0
1, 103275, Note_off_c, 6, 51, 0
1, 103290, Note_off_c, 8, 51, 0
1, 103291, Note_off_c, 6, 44, 0
1, 103304, Note_off_c, 8, 56, 0
1, 103416, Note_off_c, 3, 84, 0
1, 103419, Note_off_c, 1, 32, 0
1, 103427, Note_off_c, 10, 44, 0
1, 103436, Note_off_c, 8, 44, 0
1, 103440, Note_on_c, 1, 32, 118
1, 103440, Note_on_c, 7, 60, 120
1, 103440, Note_on_c, 7, 63, 116
1, 103440, Note_on_c, 7, 67, 110
1, 103440, Note_on_c, 8, 51, 116
1, 103440, Note_on_c, 8, 56, 111
1, 103440, Note_on_c, 9, 42, 98
1, 103441, Lyric_t, "P"
1, 103441, Lyric_t, "\015"
1, 103441, Note_on_c, 3, 82, 123
1, 103443, Pitch_bend_c, 3, 8192
1, 103448, Note_on_c, 10, 44, 118
1, 103451, Note_on_c, 6, 44, 123
1, 103451, Note_on_c, 6, 51, 123
1, 103458, Pitch_bend_c, 3, 8192
1, 103468, Note_off_c, 9, 42, 0
1, 103491, Note_off_c, 8, 51, 0
1, 103495, Note_off_c, 7, 60, 0
1, 103502, Note_off_c, 7, 63, 0
1, 103509, Note_off_c, 6, 51, 0
1, 103509, Note_off_c, 7, 67, 0
1, 103509, Note_off_c, 8, 56, 0
1, 103516, Note_off_c, 6, 44, 0
1, 103651, Note_off_c, 7, 32, 0
1, 103651, Note_off_c, 7, 44, 0
1, 103659, Note_off_c, 1, 32, 0
1, 103667, Note_off_c, 10, 44, 0
1, 103680, Note_on_c, 1, 32, 113
1, 103680, Note_on_c, 4, 63, 116
1, 103680, Note_on_c, 4, 67, 102
1, 103680, Note_on_c, 4, 70, 102
1, 103680, Note_on_c, 7, 32, 115
1, 103680, Note_on_c, 7, 44, 115
1, 103680, Note_on_c, 7, 60, 125
1, 103680, Note_on_c, 7, 63, 111
1, 103680, Note_on_c, 7, 67, 110
1, 103680, Note_on_c, 8, 44, 116
1, 103680, Note_on_c, 8, 51, 127
1, 103680, Note_on_c, 8, 54, 116
1, 103680, Note_on_c, 8, 56, 127
1, 103680, Note_on_c, 9, 35, 116
1, 103680, Note_on_c, 9, 42, 98
1, 103688, Note_on_c, 10, 44, 113
1, 103689, Note_off_c, 8, 54, 0
1, 103691, Note_on_c, 6, 44, 123
1, 103691, Note_on_c, 6, 51, 127
1, 103708, Note_off_c, 9, 35, 0
1, 103708, Note_off_c, 9, 42, 0
1, 103734, Note_off_c, 7, 60, 0
1, 103736, Note_off_c, 7, 63, 0
1, 103746, Note_off_c, 7, 67, 0
1, 103754, Note_off_c, 8, 51, 0
1, 103757, Note_off_c, 6, 51, 0
1, 103774, Note_off_c, 8, 56, 0
1, 103778, Note_off_c, 6, 44, 0
1, 103804, Note_off_c, 4, 63, 0
1, 103806, Note_off_c, 4, 67, 0
1, 103806, Note_off_c, 4, 70, 0
1, 103899, Note_off_c, 1, 32, 0
1, 103907, Note_off_c, 10, 44, 0
1, 103920, Note_on_c, 1, 32, 113
1, 103920, Note_on_c, 4, 63, 116
1, 103920, Note_on_c, 4, 67, 87
1, 103920, Note_on_c, 4, 70, 87
1, 103920, Note_on_c, 7, 60, 106
1, 103920, Note_on_c, 7, 63, 101
1, 103920, Note_on_c, 7, 67, 95
1, 103920, Note_on_c, 8, 51, 123
1, 103920, Note_on_c, 8, 54, 89
1, 103920, Note_on_c, 8, 56, 116
1, 103920, Note_on_c, 9, 35, 116
1, 103920, Note_on_c, 9, 42, 98
1, 103924, Note_off_c, 8, 54, 0
1, 103928, Note_on_c, 10, 44, 113
1, 103931, Note_on_c, 6, 44, 123
1, 103931, Note_on_c, 6, 51, 127
1, 103948, Note_off_c, 9, 35, 0
1, 103948, Note_off_c, 9, 42, 0
1, 103970, Note_off_c, 8, 51, 0
1, 103972, Note_off_c, 8, 56, 0
1, 103976, Note_off_c, 7, 60, 0
1, 103982, Note_off_c, 7, 63, 0
1, 103987, Note_off_c, 7, 67, 0
1, 103990, Note_off_c, 6, 51, 0
1, 104012, Note_off_c, 6, 44, 0
1, 104030, Note_off_c, 4, 63, 0
1, 104031, Note_off_c, 4, 67, 0
1, 104031, Note_off_c, 4, 70, 0
1, 104048, Note_off_c, 3, 82, 0
1, 104139, Note_off_c, 1, 32, 0
1, 104147, Note_off_c, 10, 44, 0
1, 104160, Note_on_c, 1, 32, 118
1, 104160, Note_on_c, 4, 65, 102
1, 104160, Note_on_c, 4, 68, 123
1, 104160, Note_on_c, 4, 72, 123
1, 104160, Note_on_c, 7, 60, 125
1, 104160, Note_on_c, 7, 63, 116
1, 104160, Note_on_c, 7, 67, 110
1, 104160, Note_on_c, 8, 51, 127
1, 104160, Note_on_c, 8, 54, 97
1, 104160, Note_on_c, 8, 56, 127
1, 104160, Note_on_c, 9, 39, 85
1, 104160, Note_on_c, 9, 40, 116
1, 104160, Note_on_c, 9, 42, 98
1, 104160, Note_on_c, 9, 54, 116
1, 104164, Note_off_c, 8, 54, 0
1, 104168, Note_on_c, 10, 44, 118
1, 104171, Note_on_c, 6, 44, 127
1, 104171, Note_on_c, 6, 51, 127
1, 104188, Note_off_c, 9, 39, 0
1, 104188, Note_off_c, 9, 40, 0
1, 104188, Note_off_c, 9, 42, 0
1, 104188, Note_off_c, 9, 54, 0
1, 104216, Note_off_c, 7, 60, 0
1, 104222, Note_off_c, 7, 63, 0
1, 104232, Note_off_c, 7, 67, 0
1, 104239, Note_off_c, 6, 51, 0
1, 104242, Note_off_c, 8, 51, 0
1, 104254, Note_off_c, 6, 44, 0
1, 104262, Note_off_c, 8, 56, 0
1, 104379, Note_off_c, 1, 32, 0
1, 104387, Note_off_c, 10, 44, 0
1, 104400, Note_on_c, 1, 32, 113
1, 104400, Note_on_c, 7, 60, 115
1, 104400, Note_on_c, 7, 63, 111
1, 104400, Note_on_c, 7, 67, 110
1, 104400, Note_on_c, 8, 51, 116
1, 104400, Note_on_c, 8, 54, 101
1, 104400, Note_on_c, 8, 56, 123
1, 104400, Note_on_c, 9, 42, 98
1, 104406, Note_off_c, 8, 54, 0
1, 104408, Note_on_c, 10, 44, 113
1, 104411, Note_on_c, 6, 44, 123
1, 104411, Note_on_c, 6, 51, 127
1, 104423, Lyric_t, "YOUR "
1, 104423, Note_on_c, 3, 79, 125
1, 104428, Note_off_c, 4, 68, 0
1, 104428, Note_off_c, 4, 72, 0
1, 104428, Note_off_c, 9, 42, 0
1, 104448, Note_off_c, 4, 65, 0
1, 104458, Note_off_c, 7, 60, 0
1, 104461, Note_off_c, 7, 63, 0
1, 104462, Note_off_c, 8, 51, 0
1, 104474, Note_off_c, 6, 51, 0
1, 104477, Note_off_c, 7, 67, 0
1, 104477, Note_off_c, 8, 56, 0
1, 104486, Note_off_c, 3, 79, 0
1, 104501, Note_off_c, 6, 44, 0
1, 104520, Note_on_c, 4, 63, 123
1, 104520, Note_on_c, 4, 67, 115
1, 104520, Note_on_c, 4, 70, 115
1, 104556, Note_off_c, 8, 44, 0
1, 104611, Note_off_c, 7, 32, 0
1, 104611, Note_off_c, 7, 44, 0
1, 104619, Note_off_c, 1, 32, 0
1, 104619, Note_off_c, 4, 63, 0
1, 104620, Note_off_c, 4, 67, 0
1, 104620, Note_off_c, 4, 70, 0
1, 104627, Note_off_c, 10, 44, 0
1, 104640, Note_on_c, 1, 34, 113
1, 104640, Note_on_c, 7, 34, 115
1, 104640, Note_on_c, 7, 46, 115
1, 104640, Note_on_c, 7, 62, 98
1, 104640, Note_on_c, 7, 65, 90
1, 104640, Note_on_c, 7, 70, 101
1, 104640, Note_on_c, 8, 53, 102
1, 104640, Note_on_c, 8, 58, 123
1, 104640, Note_on_c, 9, 35, 116
1, 104640, Note_on_c, 9, 42, 98
1, 104648, Note_on_c, 10, 46, 113
1, 104651, Note_on_c, 6, 46, 127
1, 104651, Note_on_c, 6, 53, 115
1, 104667, Lyric_t, "HAD "
1, 104667, Note_on_c, 3, 82, 127
1, 104668, Note_off_c, 9, 35, 0
1, 104668, Note_off_c, 9, 42, 0
1, 104706, Note_off_c, 7, 65, 0
1, 104709, Note_off_c, 7, 70, 0
1, 104717, Note_off_c, 8, 53, 0
1, 104719, Note_off_c, 6, 53, 0
1, 104722, Note_off_c, 6, 46, 0
1, 104724, Note_off_c, 7, 62, 0
1, 104728, Note_off_c, 8, 58, 0
1, 104859, Note_off_c, 1, 34, 0
1, 104867, Note_off_c, 10, 46, 0
1, 104874, Note_off_c, 3, 82, 0
1, 104880, Note_on_c, 1, 34, 118
1, 104880, Note_on_c, 7, 62, 90
1, 104880, Note_on_c, 7, 65, 74
1, 104880, Note_on_c, 7, 70, 89
1, 104880, Note_on_c, 8, 53, 110
1, 104880, Note_on_c, 8, 58, 127
1, 104880, Note_on_c, 9, 35, 116
1, 104880, Note_on_c, 9, 46, 98
1, 104888, Note_on_c, 10, 46, 118
1, 104891, Note_on_c, 6, 46, 127
1, 104891, Note_on_c, 6, 53, 115
1, 104908, Note_off_c, 9, 35, 0
1, 104908, Note_off_c, 9, 46, 0
1, 104912, Lyric_t, "MY "
1, 104912, Note_on_c, 3, 79, 106
1, 104938, Note_off_c, 7, 70, 0
1, 104940, Note_off_c, 7, 65, 0
1, 104947, Note_off_c, 8, 53, 0
1, 104952, Note_off_c, 7, 62, 0
1, 104954, Note_off_c, 6, 53, 0
1, 104955, Note_off_c, 8, 58, 0
1, 104963, Note_off_c, 6, 46, 0
1, 104980, Note_off_c, 3, 79, 0
1, 105099, Note_off_c, 1, 34, 0
1, 105107, Note_off_c, 10, 46, 0
1, 105120, Note_on_c, 1, 34, 113
1, 105120, Note_on_c, 7, 62, 106
1, 105120, Note_on_c, 7, 65, 98
1, 105120, Note_on_c, 7, 70, 111
1, 105120, Note_on_c, 8, 53, 110
1, 105120, Note_on_c, 8, 58, 127
1, 105120, Note_on_c, 9, 39, 85
1, 105120, Note_on_c, 9, 40, 116
1, 105120, Note_on_c, 9, 42, 98
1, 105120, Note_on_c, 9, 54, 116
1, 105128, Note_on_c, 10, 46, 113
1, 105131, Note_on_c, 6, 46, 123
1, 105131, Note_on_c, 6, 53, 110
1, 105142, Lyric_t, "HEART "
1, 105142, Note_on_c, 3, 82, 127
1, 105148, Note_off_c, 9, 39, 0
1, 105148, Note_off_c, 9, 40, 0
1, 105148, Note_off_c, 9, 42, 0
1, 105148, Note_off_c, 9, 54, 0
1, 105182, Note_off_c, 7, 65, 0
1, 105185, Note_off_c, 7, 70, 0
1, 105192, Note_off_c, 7, 62, 0
1, 105197, Note_off_c, 6, 53, 0
1, 105201, Note_off_c, 8, 53, 0
1, 105204, Note_off_c, 6, 46, 0
1, 105209, Note_off_c, 8, 58, 0
1, 105335, Note_off_c, 3, 82, 0
1, 105339, Note_off_c, 1, 34, 0
1, 105347, Note_off_c, 10, 46, 0
1, 105360, Note_on_c, 1, 34, 118
1, 105360, Note_on_c, 7, 62, 106
1, 105360, Note_on_c, 7, 65, 98
1, 105360, Note_on_c, 7, 70, 105
1, 105360, Note_on_c, 8, 53, 115
1, 105360, Note_on_c, 8, 58, 123
1, 105360, Note_on_c, 9, 40, 116
1, 105360, Note_on_c, 9, 42, 98
1, 105368, Note_on_c, 10, 46, 118
1, 105371, Note_on_c, 6, 46, 127
1, 105371, Note_on_c, 6, 53, 125
1, 105373, Lyric_t, "IN"
1, 105373, Note_on_c, 3, 79, 106
1, 105388, Note_off_c, 9, 40, 0
1, 105388, Note_off_c, 9, 42, 0
1, 105416, Note_off_c, 7, 65, 0
1, 105419, Note_off_c, 7, 70, 0
1, 105432, Note_off_c, 6, 53, 0
1, 105432, Note_off_c, 7, 62, 0
1, 105442, Note_off_c, 6, 46, 0
1, 105445, Note_off_c, 8, 53, 0
1, 105448, Note_off_c, 8, 58, 0
1, 105474, Note_off_c, 3, 79, 0
1, 105480, Note_on_c, 9, 40, 116
1, 105508, Note_off_c, 9, 40, 0
1, 105571, Note_off_c, 7, 34, 0
1, 105571, Note_off_c, 7, 46, 0
1, 105579, Note_off_c, 1, 34, 0
1, 105587, Note_off_c, 10, 46, 0
1, 105600, Note_on_c, 1, 36, 113
1, 105600, Note_on_c, 4, 63, 116
1, 105600, Note_on_c, 4, 67, 102
1, 105600, Note_on_c, 4, 70, 102
1, 105600, Note_on_c, 7, 36, 115
1, 105600, Note_on_c, 7, 48, 115
1, 105600, Note_on_c, 7, 67, 106
1, 105600, Note_on_c, 7, 72, 125
1, 105600, Note_on_c, 7, 75, 116
1, 105600, Note_on_c, 8, 48, 125
1, 105600, Note_on_c, 8, 55, 115
1, 105600, Note_on_c, 8, 60, 120
1, 105600, Note_on_c, 9, 35, 116
1, 105600, Note_on_c, 9, 49, 98
1, 105608, Note_on_c, 10, 48, 113
1, 105611, Note_on_c, 6, 48, 127
1, 105611, Note_on_c, 6, 55, 125
1, 105614, Lyric_t, "SIDE"
1, 105614, Lyric_t, "\015"
1, 105614, Note_on_c, 3, 84, 115
1, 105628, Note_off_c, 9, 35, 0
1, 105628, Note_off_c, 9, 49, 0
1, 105637, Note_off_c, 7, 72, 0
1, 105638, Note_off_c, 7, 75, 0
1, 105651, Note_off_c, 6, 55, 0
1, 105653, Note_off_c, 7, 67, 0
1, 105661, Note_off_c, 6, 48, 0
1, 105693, Note_off_c, 8, 60, 0
1, 105695, Note_off_c, 8, 55, 0
1, 105724, Note_off_c, 4, 63, 0
1, 105726, Note_off_c, 4, 67, 0
1, 105726, Note_off_c, 4, 70, 0
1, 105782, Note_off_c, 8, 48, 0
1, 105819, Note_off_c, 1, 36, 0
1, 105827, Note_off_c, 10, 48, 0
1, 105840, Note_on_c, 1, 36, 113
1, 105840, Note_on_c, 4, 63, 116
1, 105840, Note_on_c, 4, 67, 87
1, 105840, Note_on_c, 4, 70, 87
1, 105840, Note_on_c, 7, 67, 77
1, 105840, Note_on_c, 7, 72, 106
1, 105840, Note_on_c, 7, 75, 86
1, 105840, Note_on_c, 8, 55, 90
1, 105840, Note_on_c, 8, 60, 102
1, 105840, Note_on_c, 9, 35, 116
1, 105840, Note_on_c, 9, 42, 98
1, 105848, Note_on_c, 10, 48, 113
1, 105851, Note_on_c, 6, 48, 125
1, 105851, Note_on_c, 6, 55, 125
1, 105868, Note_off_c, 9, 35, 0
1, 105868, Note_off_c, 9, 42, 0
1, 105871, Note_off_c, 7, 75, 0
1, 105877, Note_off_c, 7, 72, 0
1, 105884, Note_off_c, 6, 55, 0
1, 105890, Note_off_c, 7, 67, 0
1, 105900, Note_off_c, 6, 48, 0
1, 105902, Note_off_c, 8, 60, 0
1, 105909, Note_off_c, 8, 55, 0
1, 105950, Note_off_c, 4, 63, 0
1, 105951, Note_off_c, 4, 67, 0
1, 105951, Note_off_c, 4, 70, 0
1, 106059, Note_off_c, 1, 36, 0
1, 106067, Note_off_c, 10, 48, 0
1, 106080, Note_on_c, 1, 36, 118
1, 106080, Note_on_c, 4, 65, 102
1, 106080, Note_on_c, 4, 68, 123
1, 106080, Note_on_c, 4, 72, 123
1, 106080, Note_on_c, 7, 67, 120
1, 106080, Note_on_c, 7, 72, 127
1, 106080, Note_on_c, 7, 75, 127
1, 106080, Note_on_c, 8, 48, 127
1, 106080, Note_on_c, 8, 55, 125
1, 106080, Note_on_c, 8, 60, 127
1, 106080, Note_on_c, 9, 39, 85
1, 106080, Note_on_c, 9, 40, 116
1, 106080, Note_on_c, 9, 42, 98
1, 106080, Note_on_c, 9, 54, 116
1, 106088, Note_on_c, 10, 48, 118
1, 106091, Note_on_c, 6, 48, 127
1, 106091, Note_on_c, 6, 55, 127
1, 106108, Note_off_c, 9, 39, 0
1, 106108, Note_off_c, 9, 40, 0
1, 106108, Note_off_c, 9, 42, 0
1, 106108, Note_off_c, 9, 54, 0
1, 106142, Note_off_c, 6, 55, 0
1, 106148, Control_c, 3, 1, 0
1, 106149, Note_off_c, 7, 72, 0
1, 106154, Note_off_c, 7, 75, 0
1, 106158, Note_off_c, 7, 67, 0
1, 106158, Control_c, 3, 1, 4
1, 106172, Note_off_c, 6, 48, 0
1, 106188, Control_c, 3, 1, 8
1, 106218, Control_c, 3, 1, 13
1, 106221, Note_off_c, 8, 55, 0
1, 106242, Note_off_c, 8, 60, 0
1, 106248, Control_c, 3, 1, 17
1, 106255, Note_off_c, 8, 48, 0
1, 106278, Control_c, 3, 1, 22
1, 106299, Note_off_c, 1, 36, 0
1, 106307, Note_off_c, 10, 48, 0
1, 106308, Control_c, 3, 1, 26
1, 106309, Control_c, 3, 1, 27
1, 106320, Note_on_c, 1, 36, 113
1, 106320, Note_on_c, 7, 67, 74
1, 106320, Note_on_c, 7, 72, 98
1, 106320, Note_on_c, 7, 75, 97
1, 106320, Note_on_c, 8, 55, 102
1, 106320, Note_on_c, 8, 60, 115
1, 106320, Note_on_c, 9, 42, 98
1, 106324, Control_c, 3, 1, 32
1, 106328, Note_on_c, 10, 48, 113
1, 106331, Note_on_c, 6, 48, 125
1, 106331, Note_on_c, 6, 55, 120
1, 106339, Control_c, 3, 1, 38
1, 106348, Note_off_c, 4, 68, 0
1, 106348, Note_off_c, 4, 72, 0
1, 106348, Note_off_c, 9, 42, 0
1, 106354, Control_c, 3, 1, 43
1, 106368, Note_off_c, 4, 65, 0
1, 106369, Control_c, 3, 1, 49
1, 106373, Note_off_c, 6, 55, 0
1, 106384, Control_c, 3, 1, 54
1, 106385, Note_off_c, 7, 72, 0
1, 106391, Note_off_c, 7, 75, 0
1, 106399, Note_off_c, 6, 48, 0
1, 106399, Control_c, 3, 1, 60
1, 106400, Note_off_c, 7, 67, 0
1, 106402, Control_c, 3, 1, 61
1, 106412, Note_off_c, 8, 60, 0
1, 106415, Note_off_c, 8, 55, 0
1, 106417, Control_c, 3, 1, 66
1, 106432, Control_c, 3, 1, 71
1, 106434, Control_c, 3, 1, 72
1, 106440, Note_on_c, 4, 63, 123
1, 106440, Note_on_c, 4, 67, 115
1, 106440, Note_on_c, 4, 70, 115
1, 106449, Control_c, 3, 1, 77
1, 106464, Control_c, 3, 1, 82
1, 106472, Control_c, 3, 1, 85
1, 106502, Control_c, 3, 1, 89
1, 106503, Control_c, 3, 1, 90
1, 106539, Note_off_c, 1, 36, 0
1, 106539, Note_off_c, 4, 63, 0
1, 106540, Note_off_c, 4, 67, 0
1, 106540, Note_off_c, 4, 70, 0
1, 106547, Note_off_c, 10, 48, 0
1, 106560, Note_on_c, 1, 36, 113
1, 106560, Note_on_c, 7, 67, 106
1, 106560, Note_on_c, 7, 72, 127
1, 106560, Note_on_c, 7, 75, 116
1, 106560, Note_on_c, 8, 55, 115
1, 106560, Note_on_c, 8, 60, 127
1, 106560, Note_on_c, 9, 35, 116
1, 106560, Note_on_c, 9, 42, 98
1, 106568, Note_on_c, 10, 48, 113
1, 106571, Note_on_c, 6, 48, 127
1, 106571, Note_on_c, 6, 55, 120
1, 106577, Control_c, 3, 1, 90
1, 106587, Control_c, 3, 1, 79
1, 106588, Note_off_c, 9, 35, 0
1, 106588, Note_off_c, 9, 42, 0
1, 106602, Control_c, 3, 1, 40
1, 106617, Control_c, 3, 1, 0
1, 106628, Note_off_c, 6, 55, 0
1, 106629, Note_off_c, 7, 72, 0
1, 106636, Note_off_c, 7, 75, 0
1, 106638, Note_off_c, 7, 67, 0
1, 106645, Note_off_c, 6, 48, 0
1, 106684, Note_off_c, 8, 60, 0
1, 106688, Note_off_c, 8, 55, 0
1, 106736, Note_off_c, 3, 84, 0
1, 106779, Note_off_c, 1, 36, 0
1, 106787, Note_off_c, 10, 48, 0
1, 106800, Note_on_c, 1, 36, 118
1, 106800, Note_on_c, 7, 67, 71
1, 106800, Note_on_c, 7, 72, 90
1, 106800, Note_on_c, 7, 75, 81
1, 106800, Note_on_c, 8, 55, 83
1, 106800, Note_on_c, 8, 60, 102
1, 106800, Note_on_c, 9, 35, 116
1, 106800, Note_on_c, 9, 42, 98
1, 106808, Note_on_c, 10, 48, 118
1, 106811, Note_on_c, 6, 48, 120
1, 106811, Note_on_c, 6, 55, 115
1, 106815, Lyric_t, "OF "
1, 106815, Note_on_c, 3, 84, 106
1, 106828, Note_off_c, 9, 35, 0
1, 106828, Note_off_c, 9, 42, 0
1, 106847, Note_off_c, 7, 72, 0
1, 106847, Note_off_c, 7, 75, 0
1, 106848, Note_off_c, 6, 55, 0
1, 106857, Note_off_c, 6, 48, 0
1, 106857, Note_off_c, 8, 60, 0
1, 106864, Note_off_c, 7, 67, 0
1, 106873, Note_off_c, 8, 55, 0
1, 107013, Note_off_c, 3, 84, 0
1, 107019, Note_off_c, 1, 36, 0
1, 107027, Note_off_c, 10, 48, 0
1, 107040, Note_on_c, 1, 36, 113
1, 107040, Note_on_c, 7, 67, 115
1, 107040, Note_on_c, 7, 72, 127
1, 107040, Note_on_c, 7, 75, 123
1, 107040, Note_on_c, 8, 48, 127
1, 107040, Note_on_c, 8, 55, 125
1, 107040, Note_on_c, 8, 60, 127
1, 107040, Note_on_c, 9, 39, 85
1, 107040, Note_on_c, 9, 40, 116
1, 107040, Note_on_c, 9, 42, 98
1, 107040, Note_on_c, 9, 54, 116
1, 107048, Note_on_c, 10, 48, 113
1, 107051, Note_on_c, 6, 48, 127
1, 107051, Note_on_c, 6, 55, 125
1, 107068, Note_off_c, 9, 39, 0
1, 107068, Note_off_c, 9, 40, 0
1, 107068, Note_off_c, 9, 42, 0
1, 107068, Note_off_c, 9, 54, 0
1, 107071, Lyric_t, "YOUR "
1, 107071, Note_on_c, 3, 84, 125
1, 107098, Pitch_bend_c, 3, 8712
1, 107108, Pitch_bend_c, 3, 9882
1, 107112, Note_off_c, 6, 55, 0
1, 107113, Note_off_c, 7, 72, 0
1, 107118, Pitch_bend_c, 3, 11572
1, 107128, Note_off_c, 7, 75, 0
1, 107128, Pitch_bend_c, 3, 13912
1, 107129, Note_off_c, 6, 48, 0
1, 107130, Note_off_c, 7, 67, 0
1, 107138, Pitch_bend_c, 3, 16383
1, 107150, Note_off_c, 8, 60, 0
1, 107154, Note_off_c, 8, 55, 0
1, 107241, Note_off_c, 3, 84, 0
1, 107251, Pitch_bend_c, 3, 14562
1, 107259, Note_off_c, 1, 36, 0
1, 107262, Pitch_bend_c, 3, 8192
1, 107267, Note_off_c, 10, 48, 0
1, 107280, Note_on_c, 1, 36, 118
1, 107280, Note_on_c, 7, 67, 106
1, 107280, Note_on_c, 7, 72, 115
1, 107280, Note_on_c, 7, 75, 105
1, 107280, Note_on_c, 8, 55, 98
1, 107280, Note_on_c, 8, 60, 115
1, 107280, Note_on_c, 9, 42, 98
1, 107288, Note_on_c, 10, 48, 118
1, 107291, Note_on_c, 6, 48, 125
1, 107291, Note_on_c, 6, 55, 125
1, 107293, Lyric_t, "HAND"
1, 107293, Lyric_t, "\015"
1, 107293, Note_on_c, 3, 82, 123
1, 107308, Note_off_c, 9, 42, 0
1, 107342, Note_off_c, 7, 72, 0
1, 107349, Note_off_c, 6, 55, 0
1, 107351, Note_off_c, 7, 75, 0
1, 107358, Note_off_c, 8, 60, 0
1, 107362, Note_off_c, 7, 67, 0
1, 107378, Note_off_c, 8, 55, 0
1, 107389, Note_off_c, 6, 48, 0
1, 107491, Note_off_c, 7, 36, 0
1, 107491, Note_off_c, 7, 48, 0
1, 107492, Note_off_c, 8, 48, 0
1, 107499, Note_off_c, 1, 36, 0
1, 107507, Note_off_c, 10, 48, 0
1, 107520, Note_on_c, 1, 34, 113
1, 107520, Note_on_c, 4, 63, 116
1, 107520, Note_on_c, 4, 67, 102
1, 107520, Note_on_c, 4, 70, 102
1, 107520, Note_on_c, 7, 34, 115
1, 107520, Note_on_c, 7, 46, 115
1, 107520, Note_on_c, 7, 65, 83
1, 107520, Note_on_c, 7, 70, 105
1, 107520, Note_on_c, 7, 74, 102
1, 107520, Note_on_c, 8, 53, 90
1, 107520, Note_on_c, 8, 58, 123
1, 107520, Note_on_c, 9, 35, 116
1, 107520, Note_on_c, 9, 42, 98
1, 107528, Note_on_c, 10, 46, 113
1, 107531, Note_on_c, 6, 46, 127
1, 107531, Note_on_c, 6, 53, 115
1, 107548, Note_off_c, 9, 35, 0
1, 107548, Note_off_c, 9, 42, 0
1, 107583, Note_off_c, 7, 74, 0
1, 107594, Note_off_c, 6, 53, 0
1, 107594, Note_off_c, 7, 65, 0
1, 107595, Note_off_c, 7, 70, 0
1, 107601, Note_off_c, 6, 46, 0
1, 107627, Note_off_c, 8, 53, 0
1, 107633, Note_off_c, 8, 58, 0
1, 107644, Note_off_c, 4, 63, 0
1, 107646, Note_off_c, 4, 67, 0
1, 107646, Note_off_c, 4, 70, 0
1, 107739, Note_off_c, 1, 34, 0
1, 107747, Note_off_c, 10, 46, 0
1, 107760, Note_on_c, 1, 34, 113
1, 107760, Note_on_c, 4, 63, 116
1, 107760, Note_on_c, 4, 67, 87
1, 107760, Note_on_c, 4, 70, 87
1, 107760, Note_on_c, 7, 65, 63
1, 107760, Note_on_c, 7, 70, 81
1, 107760, Note_on_c, 7, 74, 56
1, 107760, Note_on_c, 8, 53, 67
1, 107760, Note_on_c, 8, 58, 86
1, 107760, Note_on_c, 9, 35, 116
1, 107760, Note_on_c, 9, 42, 98
1, 107768, Note_on_c, 10, 46, 113
1, 107771, Note_on_c, 6, 46, 123
1, 107771, Note_on_c, 6, 53, 120
1, 107788, Note_off_c, 9, 35, 0
1, 107788, Note_off_c, 9, 42, 0
1, 107797, Note_off_c, 7, 74, 0
1, 107812, Note_off_c, 7, 65, 0
1, 107813, Note_off_c, 8, 58, 0
1, 107814, Note_off_c, 7, 70, 0
1, 107830, Note_off_c, 6, 53, 0
1, 107832, Note_off_c, 8, 53, 0
1, 107833, Note_off_c, 6, 46, 0
1, 107870, Note_off_c, 4, 63, 0
1, 107871, Note_off_c, 4, 67, 0
1, 107871, Note_off_c, 4, 70, 0
1, 107979, Note_off_c, 1, 34, 0
1, 107987, Note_off_c, 10, 46, 0
1, 108000, Note_on_c, 1, 34, 118
1, 108000, Note_on_c, 4, 65, 102
1, 108000, Note_on_c, 4, 68, 123
1, 108000, Note_on_c, 4, 72, 123
1, 108000, Note_on_c, 7, 65, 106
1, 108000, Note_on_c, 7, 70, 116
1, 108000, Note_on_c, 7, 74, 115
1, 108000, Note_on_c, 8, 46, 127
1, 108000, Note_on_c, 8, 53, 110
1, 108000, Note_on_c, 8, 58, 127
1, 108000, Note_on_c, 9, 39, 85
1, 108000, Note_on_c, 9, 40, 116
1, 108000, Note_on_c, 9, 42, 98
1, 108000, Note_on_c, 9, 54, 116
1, 108008, Note_on_c, 10, 46, 118
1, 108011, Note_on_c, 6, 46, 127
1, 108011, Note_on_c, 6, 53, 125
1, 108028, Note_off_c, 9, 39, 0
1, 108028, Note_off_c, 9, 40, 0
1, 108028, Note_off_c, 9, 42, 0
1, 108028, Note_off_c, 9, 54, 0
1, 108047, Note_off_c, 3, 82, 0
1, 108070, Note_off_c, 7, 65, 0
1, 108070, Note_off_c, 7, 70, 0
1, 108083, Note_off_c, 7, 74, 0
1, 108089, Note_off_c, 6, 53, 0
1, 108117, Note_off_c, 6, 46, 0
1, 108130, Note_off_c, 8, 53, 0
1, 108131, Note_off_c, 8, 58, 0
1, 108219, Note_off_c, 1, 34, 0
1, 108227, Note_off_c, 10, 46, 0
1, 108240, Note_on_c, 1, 34, 113
1, 108240, Note_on_c, 7, 65, 74
1, 108240, Note_on_c, 7, 70, 93
1, 108240, Note_on_c, 7, 74, 83
1, 108240, Note_on_c, 8, 53, 80
1, 108240, Note_on_c, 8, 58, 116
1, 108240, Note_on_c, 9, 42, 98
1, 108248, Note_on_c, 10, 46, 113
1, 108251, Note_on_c, 6, 46, 111
1, 108251, Note_on_c, 6, 53, 106
1, 108268, Note_off_c, 4, 68, 0
1, 108268, Note_off_c, 4, 72, 0
1, 108268, Note_off_c, 9, 42, 0
1, 108288, Note_off_c, 4, 65, 0
1, 108306, Note_off_c, 7, 65, 0
1, 108308, Note_off_c, 7, 70, 0
1, 108316, Note_off_c, 6, 53, 0
1, 108316, Note_off_c, 7, 74, 0
1, 108320, Note_off_c, 6, 46, 0
1, 108329, Note_off_c, 8, 53, 0
1, 108337, Note_off_c, 8, 58, 0
1, 108360, Note_on_c, 4, 63, 123
1, 108360, Note_on_c, 4, 67, 115
1, 108360, Note_on_c, 4, 70, 115
1, 108459, Note_off_c, 1, 34, 0
1, 108459, Note_off_c, 4, 63, 0
1, 108460, Note_off_c, 4, 67, 0
1, 108460, Note_off_c, 4, 70, 0
1, 108467, Note_off_c, 10, 46, 0
1, 108480, Note_on_c, 1, 34, 113
1, 108480, Note_on_c, 7, 65, 90
1, 108480, Note_on_c, 7, 70, 101
1, 108480, Note_on_c, 7, 74, 98
1, 108480, Note_on_c, 8, 53, 90
1, 108480, Note_on_c, 8, 58, 123
1, 108480, Note_on_c, 9, 35, 116
1, 108480, Note_on_c, 9, 42, 98
1, 108488, Note_on_c, 10, 46, 113
1, 108491, Note_on_c, 6, 46, 127
1, 108491, Note_on_c, 6, 53, 120
1, 108508, Note_off_c, 9, 35, 0
1, 108508, Note_off_c, 9, 42, 0
1, 108546, Note_off_c, 7, 65, 0
1, 108549, Note_off_c, 7, 70, 0
1, 108564, Note_off_c, 7, 74, 0
1, 108567, Note_off_c, 6, 53, 0
1, 108573, Note_off_c, 6, 46, 0
1, 108577, Note_off_c, 8, 53, 0
1, 108589, Note_off_c, 8, 58, 0
1, 108699, Note_off_c, 1, 34, 0
1, 108707, Note_off_c, 10, 46, 0
1, 108716, Lyric_t, "AND "
1, 108716, Note_on_c, 3, 79, 120
1, 108720, Note_on_c, 1, 34, 118
1, 108720, Note_on_c, 7, 65, 74
1, 108720, Note_on_c, 7, 70, 89
1, 108720, Note_on_c, 7, 74, 90
1, 108720, Note_on_c, 8, 53, 63
1, 108720, Note_on_c, 8, 58, 97
1, 108720, Note_on_c, 9, 35, 116
1, 108720, Note_on_c, 9, 46, 98
1, 108721, Note_off_c, 8, 46, 0
1, 108728, Note_on_c, 10, 46, 118
1, 108731, Note_on_c, 6, 46, 116
1, 108731, Note_on_c, 6, 53, 110
1, 108748, Note_off_c, 9, 35, 0
1, 108748, Note_off_c, 9, 46, 0
1, 108765, Note_off_c, 8, 58, 0
1, 108771, Note_off_c, 8, 53, 0
1, 108778, Note_off_c, 7, 70, 0
1, 108780, Note_off_c, 7, 65, 0
1, 108792, Note_off_c, 7, 74, 0
1, 108796, Note_off_c, 6, 53, 0
1, 108800, Note_off_c, 6, 46, 0
1, 108887, Note_off_c, 3, 79, 0
1, 108939, Note_off_c, 1, 34, 0
1, 108941, Lyric_t, "YOU "
1, 108941, Note_on_c, 3, 79, 120
1, 108947, Note_off_c, 10, 46, 0
1, 108960, Note_on_c, 1, 34, 113
1, 108960, Note_on_c, 7, 65, 98
1, 108960, Note_on_c, 7, 70, 111
1, 108960, Note_on_c, 7, 74, 106
1, 108960, Note_on_c, 8, 46, 123
1, 108960, Note_on_c, 8, 53, 102
1, 108960, Note_on_c, 8, 58, 127
1, 108960, Note_on_c, 9, 39, 85
1, 108960, Note_on_c, 9, 40, 116
1, 108960, Note_on_c, 9, 42, 98
1, 108960, Note_on_c, 9, 54, 116
1, 108968, Note_on_c, 10, 46, 113
1, 108971, Note_on_c, 6, 46, 127
1, 108971, Note_on_c, 6, 53, 120
1, 108988, Note_off_c, 9, 39, 0
1, 108988, Note_off_c, 9, 40, 0
1, 108988, Note_off_c, 9, 42, 0
1, 108988, Note_off_c, 9, 54, 0
1, 109022, Note_off_c, 7, 65, 0
1, 109025, Note_off_c, 7, 70, 0
1, 109032, Note_off_c, 7, 74, 0
1, 109043, Note_off_c, 6, 53, 0
1, 109050, Note_off_c, 6, 46, 0
1, 109063, Note_off_c, 8, 53, 0
1, 109077, Note_off_c, 8, 58, 0
1, 109139, Note_off_c, 3, 79, 0
1, 109179, Note_off_c, 1, 34, 0
1, 109187, Note_off_c, 10, 46, 0
1, 109200, Lyric_t, "PLAYED "
1, 109200, Note_on_c, 1, 34, 118
1, 109200, Note_on_c, 3, 80, 123
1, 109200, Note_on_c, 7, 65, 98
1, 109200, Note_on_c, 7, 70, 105
1, 109200, Note_on_c, 7, 74, 106
1, 109200, Note_on_c, 8, 53, 98
1, 109200, Note_on_c, 8, 58, 111
1, 109200, Note_on_c, 9, 42, 98
1, 109208, Note_on_c, 10, 46, 118
1, 109211, Note_on_c, 6, 46, 123
1, 109211, Note_on_c, 6, 53, 115
1, 109228, Note_off_c, 9, 42, 0
1, 109256, Note_off_c, 7, 65, 0
1, 109259, Note_off_c, 7, 70, 0
1, 109263, Note_off_c, 8, 58, 0
1, 109272, Note_off_c, 7, 74, 0
1, 109282, Note_off_c, 6, 46, 0
1, 109291, Note_off_c, 6, 53, 0
1, 109293, Note_off_c, 8, 53, 0
1, 109411, Note_off_c, 7, 34, 0
1, 109411, Note_off_c, 7, 46, 0
1, 109419, Note_off_c, 1, 34, 0
1, 109427, Note_off_c, 10, 46, 0
1, 109433, Note_off_c, 8, 46, 0
1, 109440, Note_on_c, 1, 32, 113
1, 109440, Note_on_c, 4, 63, 116
1, 109440, Note_on_c, 4, 67, 102
1, 109440, Note_on_c, 4, 70, 102
1, 109440, Note_on_c, 7, 32, 115
1, 109440, Note_on_c, 7, 44, 115
1, 109440, Note_on_c, 7, 60, 125
1, 109440, Note_on_c, 7, 63, 116
1, 109440, Note_on_c, 7, 67, 115
1, 109440, Note_on_c, 8, 51, 127
1, 109440, Note_on_c, 8, 56, 123
1, 109440, Note_on_c, 9, 35, 116
1, 109440, Note_on_c, 9, 42, 98
1, 109448, Note_on_c, 10, 44, 113
1, 109451, Note_on_c, 6, 44, 116
1, 109451, Note_on_c, 6, 51, 127
1, 109468, Note_off_c, 9, 35, 0
1, 109468, Note_off_c, 9, 42, 0
1, 109497, Note_off_c, 7, 63, 0
1, 109500, Note_off_c, 7, 60, 0
1, 109509, Note_off_c, 7, 67, 0
1, 109512, Note_off_c, 6, 51, 0
1, 109554, Note_off_c, 6, 44, 0
1, 109564, Note_off_c, 4, 63, 0
1, 109565, Note_off_c, 8, 51, 0
1, 109566, Note_off_c, 4, 67, 0
1, 109566, Note_off_c, 4, 70, 0
1, 109574, Note_off_c, 3, 80, 0
1, 109593, Note_off_c, 8, 56, 0
1, 109659, Note_off_c, 1, 32, 0
1, 109667, Note_off_c, 10, 44, 0
1, 109680, Note_on_c, 1, 32, 113
1, 109680, Note_on_c, 4, 63, 116
1, 109680, Note_on_c, 4, 67, 87
1, 109680, Note_on_c, 4, 70, 87
1, 109680, Note_on_c, 7, 60, 110
1, 109680, Note_on_c, 7, 63, 105
1, 109680, Note_on_c, 7, 67, 102
1, 109680, Note_on_c, 8, 51, 101
1, 109680, Note_on_c, 8, 56, 86
1, 109680, Note_on_c, 9, 35, 116
1, 109680, Note_on_c, 9, 42, 98
1, 109688, Note_on_c, 10, 44, 113
1, 109689, Lyric_t, "IT"
1, 109689, Lyric_t, "\015"
1, 109689, Note_on_c, 3, 80, 123
1, 109691, Note_on_c, 6, 44, 116
1, 109691, Note_on_c, 6, 51, 116
1, 109708, Note_off_c, 9, 35, 0
1, 109708, Note_off_c, 9, 42, 0
1, 109722, Note_off_c, 7, 60, 0
1, 109726, Note_off_c, 7, 63, 0
1, 109726, Note_off_c, 8, 56, 0
1, 109731, Note_off_c, 7, 67, 0
1, 109736, Note_off_c, 6, 51, 0
1, 109736, Note_off_c, 8, 51, 0
1, 109759, Note_off_c, 6, 44, 0
1, 109790, Note_off_c, 4, 63, 0
1, 109791, Note_off_c, 4, 67, 0
1, 109791, Note_off_c, 4, 70, 0
1, 109810, Note_off_c, 3, 80, 0
1, 109899, Note_off_c, 1, 32, 0
1, 109907, Note_off_c, 10, 44, 0
1, 109920, Note_on_c, 1, 32, 118
1, 109920, Note_on_c, 4, 65, 102
1, 109920, Note_on_c, 4, 68, 123
1, 109920, Note_on_c, 4, 72, 123
1, 109920, Note_on_c, 7, 60, 127
1, 109920, Note_on_c, 7, 63, 123
1, 109920, Note_on_c, 7, 67, 125
1, 109920, Note_on_c, 8, 44, 123
1, 109920, Note_on_c, 8, 51, 127
1, 109920, Note_on_c, 8, 54, 123
1, 109920, Note_on_c, 8, 56, 127
1, 109920, Note_on_c, 9, 39, 85
1, 109920, Note_on_c, 9, 40, 116
1, 109920, Note_on_c, 9, 42, 98
1, 109920, Note_on_c, 9, 54, 116
1, 109928, Note_on_c, 10, 44, 118
1, 109931, Note_on_c, 6, 44, 127
1, 109931, Note_on_c, 6, 51, 127
1, 109935, Note_off_c, 8, 54, 0
1, 109948, Note_off_c, 9, 39, 0
1, 109948, Note_off_c, 9, 40, 0
1, 109948, Note_off_c, 9, 42, 0
1, 109948, Note_off_c, 9, 54, 0
1, 109978, Note_off_c, 7, 60, 0
1, 109980, Note_off_c, 7, 63, 0
1, 109993, Note_off_c, 6, 51, 0
1, 109995, Note_off_c, 7, 67, 0
1, 110007, Note_off_c, 8, 51, 0
1, 110027, Note_off_c, 6, 44, 0
1, 110032, Note_off_c, 8, 56, 0
1, 110139, Note_off_c, 1, 32, 0
1, 110147, Note_off_c, 10, 44, 0
1, 110160, Note_on_c, 1, 32, 113
1, 110160, Note_on_c, 7, 60, 125
1, 110160, Note_on_c, 7, 63, 111
1, 110160, Note_on_c, 7, 67, 102
1, 110160, Note_on_c, 8, 51, 111
1, 110160, Note_on_c, 8, 56, 101
1, 110160, Note_on_c, 9, 42, 98
1, 110168, Note_on_c, 10, 44, 113
1, 110171, Note_on_c, 6, 44, 116
1, 110171, Note_on_c, 6, 51, 116
1, 110188, Note_off_c, 4, 68, 0
1, 110188, Note_off_c, 4, 72, 0
1, 110188, Note_off_c, 9, 42, 0
1, 110208, Note_off_c, 4, 65, 0
1, 110213, Note_off_c, 7, 60, 0
1, 110213, Note_off_c, 7, 63, 0
1, 110221, Note_off_c, 7, 67, 0
1, 110227, Note_off_c, 6, 51, 0
1, 110235, Note_off_c, 8, 51, 0
1, 110237, Note_off_c, 8, 56, 0
1, 110253, Note_off_c, 6, 44, 0
1, 110280, Note_on_c, 4, 63, 123
1, 110280, Note_on_c, 4, 67, 115
1, 110280, Note_on_c, 4, 70, 115
1, 110379, Note_off_c, 1, 32, 0
1, 110379, Note_off_c, 4, 63, 0
1, 110380, Note_off_c, 4, 67, 0
1, 110380, Note_off_c, 4, 70, 0
1, 110387, Note_off_c, 10, 44, 0
1, 110400, Note_on_c, 1, 32, 113
1, 110400, Note_on_c, 7, 60, 120
1, 110400, Note_on_c, 7, 63, 116
1, 110400, Note_on_c, 7, 67, 110
1, 110400, Note_on_c, 8, 51, 123
1, 110400, Note_on_c, 8, 54, 86
1, 110400, Note_on_c, 8, 56, 116
1, 110400, Note_on_c, 9, 35, 116
1, 110400, Note_on_c, 9, 42, 98
1, 110406, Note_off_c, 8, 54, 0
1, 110408, Note_on_c, 10, 44, 113
1, 110411, Note_on_c, 6, 44, 123
1, 110411, Note_on_c, 6, 51, 127
1, 110428, Note_off_c, 9, 35, 0
1, 110428, Note_off_c, 9, 42, 0
1, 110454, Note_off_c, 7, 60, 0
1, 110461, Note_off_c, 7, 63, 0
1, 110469, Note_off_c, 7, 67, 0
1, 110473, Note_off_c, 8, 51, 0
1, 110476, Note_off_c, 6, 51, 0
1, 110488, Note_off_c, 8, 56, 0
1, 110501, Note_off_c, 6, 44, 0
1, 110619, Note_off_c, 1, 32, 0
1, 110627, Lyric_t, "TO "
1, 110627, Note_off_c, 10, 44, 0
1, 110627, Note_on_c, 3, 79, 125
1, 110640, Note_on_c, 1, 32, 118
1, 110640, Note_on_c, 7, 60, 115
1, 110640, Note_on_c, 7, 63, 111
1, 110640, Note_on_c, 7, 67, 106
1, 110640, Note_on_c, 8, 51, 101
1, 110640, Note_on_c, 8, 56, 75
1, 110640, Note_on_c, 9, 35, 116
1, 110640, Note_on_c, 9, 42, 98
1, 110648, Note_on_c, 10, 44, 118
1, 110651, Note_on_c, 6, 44, 123
1, 110651, Note_on_c, 6, 51, 123
1, 110668, Note_off_c, 9, 35, 0
1, 110668, Note_off_c, 9, 42, 0
1, 110674, Note_off_c, 8, 56, 0
1, 110679, Note_off_c, 8, 51, 0
1, 110696, Note_off_c, 7, 60, 0
1, 110701, Note_off_c, 7, 63, 0
1, 110707, Note_off_c, 6, 51, 0
1, 110714, Note_off_c, 7, 67, 0
1, 110723, Note_off_c, 6, 44, 0
1, 110821, Note_off_c, 3, 79, 0
1, 110859, Note_off_c, 1, 32, 0
1, 110867, Note_off_c, 10, 44, 0
1, 110876, Lyric_t, "THE "
1, 110876, Note_on_c, 3, 79, 115
1, 110880, Note_on_c, 1, 32, 113
1, 110880, Note_on_c, 7, 60, 120
1, 110880, Note_on_c, 7, 63, 116
1, 110880, Note_on_c, 7, 67, 90
1, 110880, Note_on_c, 8, 51, 127
1, 110880, Note_on_c, 8, 56, 127
1, 110880, Note_on_c, 9, 39, 85
1, 110880, Note_on_c, 9, 40, 116
1, 110880, Note_on_c, 9, 42, 98
1, 110880, Note_on_c, 9, 54, 116
1, 110888, Note_on_c, 10, 44, 113
1, 110891, Note_on_c, 6, 44, 127
1, 110891, Note_on_c, 6, 51, 127
1, 110908, Note_off_c, 9, 39, 0
1, 110908, Note_off_c, 9, 40, 0
1, 110908, Note_off_c, 9, 42, 0
1, 110908, Note_off_c, 9, 54, 0
1, 110935, Note_off_c, 7, 60, 0
1, 110940, Note_off_c, 7, 63, 0
1, 110950, Note_off_c, 7, 67, 0
1, 110955, Note_off_c, 6, 51, 0
1, 110970, Note_off_c, 8, 51, 0
1, 110971, Note_off_c, 6, 44, 0
1, 110972, Note_off_c, 3, 79, 0
1, 110984, Note_off_c, 8, 56, 0
1, 111099, Note_off_c, 1, 32, 0
1, 111107, Note_off_c, 10, 44, 0
1, 111116, Note_off_c, 8, 44, 0
1, 111118, Lyric_t, "BEA"
1, 111118, Note_on_c, 3, 80, 116
1, 111120, Note_on_c, 1, 32, 118
1, 111120, Note_on_c, 7, 60, 120
1, 111120, Note_on_c, 7, 63, 116
1, 111120, Note_on_c, 7, 67, 110
1, 111120, Note_on_c, 8, 51, 116
1, 111120, Note_on_c, 8, 56, 111
1, 111120, Note_on_c, 9, 42, 98
1, 111128, Note_on_c, 10, 44, 118
1, 111131, Note_on_c, 6, 44, 123
1, 111131, Note_on_c, 6, 51, 123
1, 111148, Note_off_c, 9, 42, 0
1, 111171, Note_off_c, 8, 51, 0
1, 111175, Note_off_c, 7, 60, 0
1, 111182, Note_off_c, 7, 63, 0
1, 111189, Note_off_c, 6, 51, 0
1, 111189, Note_off_c, 7, 67, 0
1, 111189, Note_off_c, 8, 56, 0
1, 111196, Note_off_c, 6, 44, 0
1, 111309, Note_off_c, 3, 80, 0
1, 111331, Note_off_c, 7, 32, 0
1, 111331, Note_off_c, 7, 44, 0
1, 111337, Note_on_c, 3, 79, 110
1, 111339, Note_off_c, 1, 32, 0
1, 111347, Note_off_c, 10, 44, 0
1, 111360, Note_on_c, 1, 32, 113
1, 111360, Note_on_c, 4, 63, 116
1, 111360, Note_on_c, 4, 67, 102
1, 111360, Note_on_c, 4, 70, 102
1, 111360, Note_on_c, 7, 32, 115
1, 111360, Note_on_c, 7, 44, 115
1, 111360, Note_on_c, 7, 60, 125
1, 111360, Note_on_c, 7, 63, 111
1, 111360, Note_on_c, 7, 67, 110
1, 111360, Note_on_c, 8, 44, 116
1, 111360, Note_on_c, 8, 51, 127
1, 111360, Note_on_c, 8, 54, 116
1, 111360, Note_on_c, 8, 56, 127
1, 111360, Note_on_c, 9, 35, 116
1, 111360, Note_on_c, 9, 42, 98
1, 111368, Note_on_c, 10, 44, 113
1, 111369, Note_off_c, 8, 54, 0
1, 111371, Note_on_c, 6, 44, 123
1, 111371, Note_on_c, 6, 51, 127
1, 111388, Note_off_c, 9, 35, 0
1, 111388, Note_off_c, 9, 42, 0
1, 111414, Note_off_c, 7, 60, 0
1, 111416, Note_off_c, 7, 63, 0
1, 111426, Note_off_c, 7, 67, 0
1, 111434, Note_off_c, 8, 51, 0
1, 111437, Note_off_c, 6, 51, 0
1, 111454, Note_off_c, 8, 56, 0
1, 111458, Note_off_c, 6, 44, 0
1, 111484, Note_off_c, 4, 63, 0
1, 111486, Note_off_c, 4, 67, 0
1, 111486, Note_off_c, 4, 70, 0
1, 111565, Note_off_c, 3, 79, 0
1, 111579, Note_off_c, 1, 32, 0
1, 111587, Note_off_c, 10, 44, 0
1, 111599, Note_on_c, 3, 77, 87
1, 111600, Note_on_c, 1, 32, 113
1, 111600, Note_on_c, 4, 63, 116
1, 111600, Note_on_c, 4, 67, 87
1, 111600, Note_on_c, 4, 70, 87
1, 111600, Note_on_c, 7, 60, 106
1, 111600, Note_on_c, 7, 63, 101
1, 111600, Note_on_c, 7, 67, 95
1, 111600, Note_on_c, 8, 51, 123
1, 111600, Note_on_c, 8, 54, 89
1, 111600, Note_on_c, 8, 56, 116
1, 111600, Note_on_c, 9, 35, 116
1, 111600, Note_on_c, 9, 42, 98
1, 111604, Note_off_c, 8, 54, 0
1, 111608, Note_on_c, 10, 44, 113
1, 111611, Note_on_c, 6, 44, 123
1, 111611, Note_on_c, 6, 51, 127
1, 111628, Note_off_c, 9, 35, 0
1, 111628, Note_off_c, 9, 42, 0
1, 111650, Note_off_c, 8, 51, 0
1, 111652, Note_off_c, 8, 56, 0
1, 111656, Note_off_c, 7, 60, 0
1, 111662, Note_off_c, 7, 63, 0
1, 111667, Note_off_c, 7, 67, 0
1, 111670, Note_off_c, 6, 51, 0
1, 111692, Note_off_c, 6, 44, 0
1, 111710, Note_off_c, 4, 63, 0
1, 111711, Note_off_c, 4, 67, 0
1, 111711, Note_off_c, 4, 70, 0
1, 111819, Note_off_c, 1, 32, 0
1, 111827, Note_off_c, 10, 44, 0
1, 111840, Note_on_c, 1, 32, 118
1, 111840, Note_on_c, 4, 65, 102
1, 111840, Note_on_c, 4, 68, 123
1, 111840, Note_on_c, 4, 72, 123
1, 111840, Note_on_c, 7, 60, 125
1, 111840, Note_on_c, 7, 63, 116
1, 111840, Note_on_c, 7, 67, 110
1, 111840, Note_on_c, 8, 51, 127
1, 111840, Note_on_c, 8, 54, 97
1, 111840, Note_on_c, 8, 56, 127
1, 111840, Note_on_c, 9, 39, 85
1, 111840, Note_on_c, 9, 40, 116
1, 111840, Note_on_c, 9, 42, 98
1, 111840, Note_on_c, 9, 54, 116
1, 111844, Note_off_c, 8, 54, 0
1, 111848, Note_off_c, 3, 77, 0
1, 111848, Note_on_c, 10, 44, 118
1, 111851, Lyric_t, "T"
1, 111851, Lyric_t, "\015"
1, 111851, Note_on_c, 3, 75, 116
1, 111851, Note_on_c, 6, 44, 127
1, 111851, Note_on_c, 6, 51, 127
1, 111868, Note_off_c, 9, 39, 0
1, 111868, Note_off_c, 9, 40, 0
1, 111868, Note_off_c, 9, 42, 0
1, 111868, Note_off_c, 9, 54, 0
1, 111896, Note_off_c, 7, 60, 0
1, 111902, Note_off_c, 7, 63, 0
1, 111912, Note_off_c, 7, 67, 0
1, 111919, Note_off_c, 6, 51, 0
1, 111922, Note_off_c, 8, 51, 0
1, 111934, Note_off_c, 6, 44, 0
1, 111942, Note_off_c, 8, 56, 0
1, 112059, Note_off_c, 1, 32, 0
1, 112067, Note_off_c, 10, 44, 0
1, 112080, Note_on_c, 1, 32, 113
1, 112080, Note_on_c, 7, 60, 115
1, 112080, Note_on_c, 7, 63, 111
1, 112080, Note_on_c, 7, 67, 110
1, 112080, Note_on_c, 8, 51, 116
1, 112080, Note_on_c, 8, 54, 101
1, 112080, Note_on_c, 8, 56, 123
1, 112080, Note_on_c, 9, 42, 98
1, 112086, Note_off_c, 8, 54, 0
1, 112088, Note_on_c, 10, 44, 113
1, 112091, Note_on_c, 6, 44, 123
1, 112091, Note_on_c, 6, 51, 127
1, 112097, Note_off_c, 3, 75, 0
1, 112103, Lyric_t, "WE "
1, 112103, Note_on_c, 3, 79, 125
1, 112108, Note_off_c, 4, 68, 0
1, 112108, Note_off_c, 4, 72, 0
1, 112108, Note_off_c, 9, 42, 0
1, 112128, Note_off_c, 4, 65, 0
1, 112138, Note_off_c, 7, 60, 0
1, 112141, Note_off_c, 7, 63, 0
1, 112142, Note_off_c, 8, 51, 0
1, 112154, Note_off_c, 6, 51, 0
1, 112157, Note_off_c, 7, 67, 0
1, 112157, Note_off_c, 8, 56, 0
1, 112166, Note_off_c, 3, 79, 0
1, 112181, Note_off_c, 6, 44, 0
1, 112200, Note_on_c, 4, 63, 123
1, 112200, Note_on_c, 4, 67, 115
1, 112200, Note_on_c, 4, 70, 115
1, 112236, Note_off_c, 8, 44, 0
1, 112291, Note_off_c, 7, 32, 0
1, 112291, Note_off_c, 7, 44, 0
1, 112299, Note_off_c, 1, 32, 0
1, 112299, Note_off_c, 4, 63, 0
1, 112300, Note_off_c, 4, 67, 0
1, 112300, Note_off_c, 4, 70, 0
1, 112307, Note_off_c, 10, 44, 0
1, 112320, Note_on_c, 1, 34, 113
1, 112320, Note_on_c, 7, 34, 115
1, 112320, Note_on_c, 7, 46, 115
1, 112320, Note_on_c, 7, 62, 98
1, 112320, Note_on_c, 7, 65, 90
1, 112320, Note_on_c, 7, 70, 101
1, 112320, Note_on_c, 8, 53, 102
1, 112320, Note_on_c, 8, 58, 123
1, 112320, Note_on_c, 9, 35, 116
1, 112320, Note_on_c, 9, 42, 98
1, 112328, Note_on_c, 10, 46, 113
1, 112331, Note_on_c, 6, 46, 127
1, 112331, Note_on_c, 6, 53, 115
1, 112347, Lyric_t, "COULD "
1, 112347, Note_on_c, 3, 82, 127
1, 112348, Note_off_c, 9, 35, 0
1, 112348, Note_off_c, 9, 42, 0
1, 112386, Note_off_c, 7, 65, 0
1, 112389, Note_off_c, 7, 70, 0
1, 112397, Note_off_c, 8, 53, 0
1, 112399, Note_off_c, 6, 53, 0
1, 112402, Note_off_c, 6, 46, 0
1, 112404, Note_off_c, 7, 62, 0
1, 112408, Note_off_c, 8, 58, 0
1, 112539, Note_off_c, 1, 34, 0
1, 112547, Note_off_c, 10, 46, 0
1, 112554, Note_off_c, 3, 82, 0
1, 112560, Note_on_c, 1, 34, 118
1, 112560, Note_on_c, 7, 62, 90
1, 112560, Note_on_c, 7, 65, 74
1, 112560, Note_on_c, 7, 70, 89
1, 112560, Note_on_c, 8, 53, 110
1, 112560, Note_on_c, 8, 58, 127
1, 112560, Note_on_c, 9, 35, 116
1, 112560, Note_on_c, 9, 46, 98
1, 112568, Note_on_c, 10, 46, 118
1, 112571, Note_on_c, 6, 46, 127
1, 112571, Note_on_c, 6, 53, 115
1, 112588, Note_off_c, 9, 35, 0
1, 112588, Note_off_c, 9, 46, 0
1, 112592, Lyric_t, "HAVE "
1, 112592, Note_on_c, 3, 79, 106
1, 112618, Note_off_c, 7, 70, 0
1, 112620, Note_off_c, 7, 65, 0
1, 112627, Note_off_c, 8, 53, 0
1, 112632, Note_off_c, 7, 62, 0
1, 112634, Note_off_c, 6, 53, 0
1, 112635, Note_off_c, 8, 58, 0
1, 112643, Note_off_c, 6, 46, 0
1, 112660, Note_off_c, 3, 79, 0
1, 112779, Note_off_c, 1, 34, 0
1, 112787, Note_off_c, 10, 46, 0
1, 112800, Note_on_c, 1, 34, 113
1, 112800, Note_on_c, 7, 62, 106
1, 112800, Note_on_c, 7, 65, 98
1, 112800, Note_on_c, 7, 70, 111
1, 112800, Note_on_c, 8, 53, 110
1, 112800, Note_on_c, 8, 58, 127
1, 112800, Note_on_c, 9, 39, 85
1, 112800, Note_on_c, 9, 40, 116
1, 112800, Note_on_c, 9, 42, 98
1, 112800, Note_on_c, 9, 54, 116
1, 112808, Note_on_c, 10, 46, 113
1, 112811, Note_on_c, 6, 46, 123
1, 112811, Note_on_c, 6, 53, 110
1, 112822, Lyric_t, "HAD "
1, 112822, Note_on_c, 3, 82, 127
1, 112828, Note_off_c, 9, 39, 0
1, 112828, Note_off_c, 9, 40, 0
1, 112828, Note_off_c, 9, 42, 0
1, 112828, Note_off_c, 9, 54, 0
1, 112862, Note_off_c, 7, 65, 0
1, 112865, Note_off_c, 7, 70, 0
1, 112872, Note_off_c, 7, 62, 0
1, 112877, Note_off_c, 6, 53, 0
1, 112881, Note_off_c, 8, 53, 0
1, 112884, Note_off_c, 6, 46, 0
1, 112889, Note_off_c, 8, 58, 0
1, 112920, Note_on_c, 9, 40, 116
1, 112948, Note_off_c, 9, 40, 0
1, 113015, Note_off_c, 3, 82, 0
1, 113019, Note_off_c, 1, 34, 0
1, 113027, Note_off_c, 10, 46, 0
1, 113040, Note_on_c, 1, 34, 118
1, 113040, Note_on_c, 7, 62, 106
1, 113040, Note_on_c, 7, 65, 98
1, 113040, Note_on_c, 7, 70, 105
1, 113040, Note_on_c, 8, 53, 115
1, 113040, Note_on_c, 8, 58, 123
1, 113040, Note_on_c, 9, 40, 116
1, 113040, Note_on_c, 9, 42, 98
1, 113048, Note_on_c, 10, 46, 118
1, 113051, Note_on_c, 6, 46, 127
1, 113051, Note_on_c, 6, 53, 125
1, 113053, Lyric_t, "IT "
1, 113053, Note_on_c, 3, 79, 106
1, 113068, Note_off_c, 9, 40, 0
1, 113068, Note_off_c, 9, 42, 0
1, 113096, Note_off_c, 7, 65, 0
1, 113099, Note_off_c, 7, 70, 0
1, 113112, Note_off_c, 6, 53, 0
1, 113112, Note_off_c, 7, 62, 0
1, 113122, Note_off_c, 6, 46, 0
1, 113125, Note_off_c, 8, 53, 0
1, 113128, Note_off_c, 8, 58, 0
1, 113154, Note_off_c, 3, 79, 0
1, 113160, Note_on_c, 9, 40, 116
1, 113188, Note_off_c, 9, 40, 0
1, 113251, Note_off_c, 7, 34, 0
1, 113251, Note_off_c, 7, 46, 0
1, 113259, Note_off_c, 1, 34, 0
1, 113267, Note_off_c, 10, 46, 0
1, 113280, Note_on_c, 1, 32, 113
1, 113280, Note_on_c, 7, 32, 115
1, 113280, Note_on_c, 7, 44, 115
1, 113280, Note_on_c, 7, 63, 116
1, 113280, Note_on_c, 7, 67, 115
1, 113280, Note_on_c, 7, 72, 125
1, 113280, Note_on_c, 8, 51, 127
1, 113280, Note_on_c, 8, 56, 123
1, 113280, Note_on_c, 9, 35, 116
1, 113280, Note_on_c, 9, 49, 98
1, 113288, Note_on_c, 10, 44, 113
1, 113291, Note_on_c, 6, 44, 116
1, 113291, Note_on_c, 6, 51, 127
1, 113308, Note_off_c, 9, 35, 0
1, 113308, Note_off_c, 9, 49, 0
1, 113309, Lyric_t, "AL"
1, 113309, Note_on_c, 3, 84, 125
1, 113337, Note_off_c, 7, 63, 0
1, 113340, Note_off_c, 7, 72, 0
1, 113349, Note_off_c, 7, 67, 0
1, 113352, Note_off_c, 6, 51, 0
1, 113394, Note_off_c, 6, 44, 0
1, 113405, Note_off_c, 8, 51, 0
1, 113433, Note_off_c, 8, 56, 0
1, 113499, Note_off_c, 1, 32, 0
1, 113507, Note_off_c, 10, 44, 0
1, 113520, Note_on_c, 1, 32, 113
1, 113520, Note_on_c, 7, 63, 105
1, 113520, Note_on_c, 7, 67, 102
1, 113520, Note_on_c, 7, 72, 110
1, 113520, Note_on_c, 8, 51, 101
1, 113520, Note_on_c, 8, 56, 86
1, 113520, Note_on_c, 9, 35, 116
1, 113520, Note_on_c, 9, 42, 98
1, 113528, Note_on_c, 10, 44, 113
1, 113531, Note_on_c, 6, 44, 116
1, 113531, Note_on_c, 6, 51, 116
1, 113548, Note_off_c, 9, 35, 0
1, 113548, Note_off_c, 9, 42, 0
1, 113562, Note_off_c, 7, 72, 0
1, 113566, Note_off_c, 7, 63, 0
1, 113566, Note_off_c, 8, 56, 0
1, 113571, Note_off_c, 7, 67, 0
1, 113576, Note_off_c, 6, 51, 0
1, 113576, Note_off_c, 8, 51, 0
1, 113599, Note_off_c, 6, 44, 0
1, 113739, Note_off_c, 1, 32, 0
1, 113747, Note_off_c, 10, 44, 0
1, 113760, Note_on_c, 1, 32, 118
1, 113760, Note_on_c, 7, 63, 123
1, 113760, Note_on_c, 7, 67, 125
1, 113760, Note_on_c, 7, 72, 127
1, 113760, Note_on_c, 8, 44, 123
1, 113760, Note_on_c, 8, 51, 127
1, 113760, Note_on_c, 8, 54, 123
1, 113760, Note_on_c, 8, 56, 127
1, 113760, Note_on_c, 9, 39, 85
1, 113760, Note_on_c, 9, 40, 116
1, 113760, Note_on_c, 9, 42, 98
1, 113760, Note_on_c, 9, 54, 116
1, 113768, Note_on_c, 10, 44, 118
1, 113771, Note_on_c, 6, 44, 127
1, 113771, Note_on_c, 6, 51, 127
1, 113775, Note_off_c, 8, 54, 0
1, 113788, Note_off_c, 9, 39, 0
1, 113788, Note_off_c, 9, 40, 0
1, 113788, Note_off_c, 9, 42, 0
1, 113788, Note_off_c, 9, 54, 0
1, 113818, Note_off_c, 7, 72, 0
1, 113820, Note_off_c, 7, 63, 0
1, 113833, Note_off_c, 6, 51, 0
1, 113835, Note_off_c, 7, 67, 0
1, 113847, Note_off_c, 8, 51, 0
1, 113867, Note_off_c, 6, 44, 0
1, 113872, Note_off_c, 8, 56, 0
1, 113979, Note_off_c, 1, 32, 0
1, 113987, Note_off_c, 10, 44, 0
1, 114000, Note_on_c, 1, 32, 113
1, 114000, Note_on_c, 7, 63, 111
1, 114000, Note_on_c, 7, 67, 102
1, 114000, Note_on_c, 7, 72, 125
1, 114000, Note_on_c, 8, 51, 111
1, 114000, Note_on_c, 8, 56, 101
1, 114000, Note_on_c, 9, 42, 98
1, 114008, Note_on_c, 10, 44, 113
1, 114011, Note_on_c, 6, 44, 116
1, 114011, Note_on_c, 6, 51, 116
1, 114028, Note_off_c, 9, 42, 0
1, 114053, Note_off_c, 7, 63, 0
1, 114053, Note_off_c, 7, 72, 0
1, 114061, Note_off_c, 7, 67, 0
1, 114067, Note_off_c, 6, 51, 0
1, 114075, Note_off_c, 8, 51, 0
1, 114077, Note_off_c, 8, 56, 0
1, 114093, Note_off_c, 6, 44, 0
1, 114116, Control_c, 3, 1, 1
1, 114146, Control_c, 3, 1, 4
1, 114176, Control_c, 3, 1, 8
1, 114206, Control_c, 3, 1, 12
1, 114219, Note_off_c, 1, 32, 0
1, 114227, Note_off_c, 10, 44, 0
1, 114236, Control_c, 3, 1, 16
1, 114237, Control_c, 3, 1, 17
1, 114240, Note_on_c, 1, 32, 113
1, 114240, Note_on_c, 7, 63, 116
1, 114240, Note_on_c, 7, 67, 110
1, 114240, Note_on_c, 7, 72, 120
1, 114240, Note_on_c, 8, 51, 123
1, 114240, Note_on_c, 8, 54, 86
1, 114240, Note_on_c, 8, 56, 116
1, 114240, Note_on_c, 9, 35, 116
1, 114240, Note_on_c, 9, 42, 98
1, 114246, Note_off_c, 8, 54, 0
1, 114248, Note_on_c, 10, 44, 113
1, 114251, Note_on_c, 6, 44, 123
1, 114251, Note_on_c, 6, 51, 127
1, 114267, Control_c, 3, 1, 20
1, 114268, Note_off_c, 9, 35, 0
1, 114268, Note_off_c, 9, 42, 0
1, 114282, Control_c, 3, 1, 22
1, 114294, Note_off_c, 7, 72, 0
1, 114301, Note_off_c, 7, 63, 0
1, 114309, Note_off_c, 7, 67, 0
1, 114312, Control_c, 3, 1, 25
1, 114313, Note_off_c, 8, 51, 0
1, 114316, Note_off_c, 6, 51, 0
1, 114327, Control_c, 3, 1, 27
1, 114328, Note_off_c, 8, 56, 0
1, 114341, Note_off_c, 6, 44, 0
1, 114357, Control_c, 3, 1, 31
1, 114387, Control_c, 3, 1, 35
1, 114417, Control_c, 3, 1, 39
1, 114447, Control_c, 3, 1, 44
1, 114459, Note_off_c, 1, 32, 0
1, 114467, Note_off_c, 10, 44, 0
1, 114477, Control_c, 3, 1, 48
1, 114480, Note_on_c, 1, 32, 118
1, 114480, Note_on_c, 7, 63, 111
1, 114480, Note_on_c, 7, 67, 106
1, 114480, Note_on_c, 7, 72, 115
1, 114480, Note_on_c, 8, 51, 101
1, 114480, Note_on_c, 8, 56, 75
1, 114480, Note_on_c, 9, 35, 116
1, 114480, Note_on_c, 9, 42, 98
1, 114488, Note_on_c, 10, 44, 118
1, 114491, Note_on_c, 6, 44, 123
1, 114491, Note_on_c, 6, 51, 123
1, 114507, Control_c, 3, 1, 52
1, 114508, Note_off_c, 9, 35, 0
1, 114508, Note_off_c, 9, 42, 0
1, 114514, Note_off_c, 8, 56, 0
1, 114519, Note_off_c, 8, 51, 0
1, 114536, Note_off_c, 7, 72, 0
1, 114537, Control_c, 3, 1, 57
1, 114541, Note_off_c, 7, 63, 0
1, 114547, Note_off_c, 6, 51, 0
1, 114554, Note_off_c, 7, 67, 0
1, 114563, Note_off_c, 6, 44, 0
1, 114564, Control_c, 3, 1, 61
1, 114594, Control_c, 3, 1, 65
1, 114599, Control_c, 3, 1, 66
1, 114629, Control_c, 3, 1, 69
1, 114659, Control_c, 3, 1, 73
1, 114681, Control_c, 3, 1, 76
1, 114696, Control_c, 3, 1, 79
1, 114699, Note_off_c, 1, 32, 0
1, 114707, Note_off_c, 10, 44, 0
1, 114711, Control_c, 3, 1, 82
1, 114720, Note_on_c, 1, 32, 113
1, 114720, Note_on_c, 7, 63, 116
1, 114720, Note_on_c, 7, 67, 90
1, 114720, Note_on_c, 7, 72, 120
1, 114720, Note_on_c, 8, 51, 127
1, 114720, Note_on_c, 8, 56, 127
1, 114720, Note_on_c, 9, 39, 85
1, 114720, Note_on_c, 9, 40, 116
1, 114720, Note_on_c, 9, 42, 98
1, 114720, Note_on_c, 9, 54, 116
1, 114726, Control_c, 3, 1, 86
1, 114728, Note_on_c, 10, 44, 113
1, 114731, Note_on_c, 6, 44, 127
1, 114731, Note_on_c, 6, 51, 127
1, 114741, Control_c, 3, 1, 89
1, 114748, Note_off_c, 9, 39, 0
1, 114748, Note_off_c, 9, 40, 0
1, 114748, Note_off_c, 9, 42, 0
1, 114748, Note_off_c, 9, 54, 0
1, 114756, Control_c, 3, 1, 93
1, 114759, Control_c, 3, 1, 94
1, 114774, Control_c, 3, 1, 97
1, 114775, Note_off_c, 7, 72, 0
1, 114780, Note_off_c, 7, 63, 0
1, 114789, Control_c, 3, 1, 100
1, 114790, Note_off_c, 7, 67, 0
1, 114795, Note_off_c, 6, 51, 0
1, 114796, Control_c, 3, 1, 102
1, 114810, Note_off_c, 8, 51, 0
1, 114811, Note_off_c, 6, 44, 0
1, 114824, Note_off_c, 8, 56, 0
1, 114885, Control_c, 3, 1, 102
1, 114895, Control_c, 3, 1, 0
1, 114925, Note_off_c, 3, 84, 0
1, 114939, Note_off_c, 1, 32, 0
1, 114947, Note_off_c, 10, 44, 0
1, 114956, Note_off_c, 8, 44, 0
1, 114960, Note_on_c, 1, 32, 118
1, 114960, Note_on_c, 7, 63, 116
1, 114960, Note_on_c, 7, 67, 110
1, 114960, Note_on_c, 7, 72, 120
1, 114960, Note_on_c, 8, 51, 116
1, 114960, Note_on_c, 8, 56, 111
1, 114960, Note_on_c, 9, 42, 98
1, 114968, Note_on_c, 10, 44, 118
1, 114971, Note_on_c, 6, 44, 123
1, 114971, Note_on_c, 6, 51, 123
1, 114975, Lyric_t, "L"
1, 114975, Lyric_t, "\015"
1, 114975, Note_on_c, 3, 82, 123
1, 114988, Note_off_c, 9, 42, 0
1, 115011, Note_off_c, 8, 51, 0
1, 115015, Note_off_c, 7, 72, 0
1, 115022, Note_off_c, 7, 63, 0
1, 115029, Note_off_c, 6, 51, 0
1, 115029, Note_off_c, 7, 67, 0
1, 115029, Note_off_c, 8, 56, 0
1, 115036, Note_off_c, 6, 44, 0
1, 115171, Note_off_c, 7, 32, 0
1, 115171, Note_off_c, 7, 44, 0
1, 115179, Note_off_c, 1, 32, 0
1, 115187, Note_off_c, 10, 44, 0
1, 115200, Note_on_c, 1, 34, 113
1, 115200, Note_on_c, 7, 34, 115
1, 115200, Note_on_c, 7, 46, 115
1, 115200, Note_on_c, 7, 65, 83
1, 115200, Note_on_c, 7, 70, 105
1, 115200, Note_on_c, 7, 74, 102
1, 115200, Note_on_c, 8, 53, 90
1, 115200, Note_on_c, 8, 58, 123
1, 115200, Note_on_c, 9, 35, 116
1, 115200, Note_on_c, 9, 42, 98
1, 115208, Note_on_c, 10, 46, 113
1, 115211, Note_on_c, 6, 46, 116
1, 115211, Note_on_c, 6, 53, 127
1, 115228, Note_off_c, 9, 35, 0
1, 115228, Note_off_c, 9, 42, 0
1, 115263, Note_off_c, 7, 74, 0
1, 115272, Note_off_c, 6, 53, 0
1, 115274, Note_off_c, 7, 65, 0
1, 115275, Note_off_c, 7, 70, 0
1, 115307, Note_off_c, 8, 53, 0
1, 115313, Note_off_c, 8, 58, 0
1, 115314, Note_off_c, 6, 46, 0
1, 115419, Note_off_c, 1, 34, 0
1, 115427, Note_off_c, 10, 46, 0
1, 115440, Note_off_c, 3, 82, 0
1, 115440, Note_on_c, 1, 34, 113
1, 115440, Note_on_c, 7, 65, 63
1, 115440, Note_on_c, 7, 70, 81
1, 115440, Note_on_c, 7, 74, 56
1, 115440, Note_on_c, 8, 53, 67
1, 115440, Note_on_c, 8, 58, 86
1, 115440, Note_on_c, 9, 35, 116
1, 115440, Note_on_c, 9, 42, 98
1, 115448, Note_on_c, 10, 46, 113
1, 115451, Note_on_c, 6, 46, 116
1, 115451, Note_on_c, 6, 53, 116
1, 115468, Note_off_c, 9, 35, 0
1, 115468, Note_off_c, 9, 42, 0
1, 115477, Note_off_c, 7, 74, 0
1, 115492, Note_off_c, 7, 65, 0
1, 115493, Note_off_c, 8, 58, 0
1, 115494, Note_off_c, 7, 70, 0
1, 115496, Note_off_c, 6, 53, 0
1, 115512, Note_off_c, 8, 53, 0
1, 115519, Note_off_c, 6, 46, 0
1, 115659, Note_off_c, 1, 34, 0
1, 115667, Note_off_c, 10, 46, 0
1, 115680, Note_on_c, 1, 34, 118
1, 115680, Note_on_c, 7, 65, 106
1, 115680, Note_on_c, 7, 70, 116
1, 115680, Note_on_c, 7, 74, 115
1, 115680, Note_on_c, 8, 46, 127
1, 115680, Note_on_c, 8, 53, 110
1, 115680, Note_on_c, 8, 58, 127
1, 115680, Note_on_c, 9, 39, 85
1, 115680, Note_on_c, 9, 40, 116
1, 115680, Note_on_c, 9, 42, 98
1, 115680, Note_on_c, 9, 54, 116
1, 115688, Note_on_c, 10, 46, 118
1, 115691, Note_on_c, 6, 46, 127
1, 115691, Note_on_c, 6, 53, 127
1, 115708, Note_off_c, 9, 39, 0
1, 115708, Note_off_c, 9, 40, 0
1, 115708, Note_off_c, 9, 42, 0
1, 115708, Note_off_c, 9, 54, 0
1, 115750, Note_off_c, 7, 65, 0
1, 115750, Note_off_c, 7, 70, 0
1, 115753, Note_off_c, 6, 53, 0
1, 115763, Note_off_c, 7, 74, 0
1, 115787, Note_off_c, 6, 46, 0
1, 115810, Note_off_c, 8, 53, 0
1, 115811, Note_off_c, 8, 58, 0
1, 115899, Note_off_c, 1, 34, 0
1, 115907, Note_off_c, 10, 46, 0
1, 115920, Note_on_c, 1, 34, 113
1, 115920, Note_on_c, 7, 65, 74
1, 115920, Note_on_c, 7, 70, 93
1, 115920, Note_on_c, 7, 74, 83
1, 115920, Note_on_c, 8, 53, 80
1, 115920, Note_on_c, 8, 58, 116
1, 115920, Note_on_c, 9, 42, 98
1, 115928, Note_on_c, 10, 46, 113
1, 115931, Note_on_c, 6, 46, 116
1, 115931, Note_on_c, 6, 53, 116
1, 115943, Lyric_t, "ROL"
1, 115943, Note_on_c, 3, 79, 125
1, 115948, Note_off_c, 9, 42, 0
1, 115986, Note_off_c, 7, 65, 0
1, 115987, Note_off_c, 6, 53, 0
1, 115988, Note_off_c, 7, 70, 0
1, 115996, Note_off_c, 7, 74, 0
1, 116006, Note_off_c, 3, 79, 0
1, 116009, Note_off_c, 8, 53, 0
1, 116013, Note_off_c, 6, 46, 0
1, 116017, Note_off_c, 8, 58, 0
1, 116139, Note_off_c, 1, 34, 0
1, 116147, Note_off_c, 10, 46, 0
1, 116160, Note_on_c, 1, 34, 113
1, 116160, Note_on_c, 7, 65, 90
1, 116160, Note_on_c, 7, 70, 101
1, 116160, Note_on_c, 7, 74, 98
1, 116160, Note_on_c, 8, 53, 90
1, 116160, Note_on_c, 8, 58, 123
1, 116160, Note_on_c, 9, 35, 116
1, 116160, Note_on_c, 9, 42, 98
1, 116168, Note_on_c, 10, 46, 113
1, 116171, Note_on_c, 6, 46, 123
1, 116171, Note_on_c, 6, 53, 127
1, 116187, Note_on_c, 3, 82, 127
1, 116188, Note_off_c, 9, 35, 0
1, 116188, Note_off_c, 9, 42, 0
1, 116226, Note_off_c, 7, 65, 0
1, 116229, Note_off_c, 7, 70, 0
1, 116236, Note_off_c, 6, 53, 0
1, 116244, Note_off_c, 7, 74, 0
1, 116257, Note_off_c, 8, 53, 0
1, 116261, Note_off_c, 6, 46, 0
1, 116269, Note_off_c, 8, 58, 0
1, 116379, Note_off_c, 1, 34, 0
1, 116387, Note_off_c, 10, 46, 0
1, 116394, Note_off_c, 3, 82, 0
1, 116400, Note_on_c, 1, 34, 118
1, 116400, Note_on_c, 7, 65, 74
1, 116400, Note_on_c, 7, 70, 89
1, 116400, Note_on_c, 7, 74, 90
1, 116400, Note_on_c, 8, 53, 63
1, 116400, Note_on_c, 8, 58, 97
1, 116400, Note_on_c, 9, 35, 116
1, 116400, Note_on_c, 9, 46, 98
1, 116401, Note_off_c, 8, 46, 0
1, 116408, Note_on_c, 10, 46, 118
1, 116411, Note_on_c, 6, 46, 123
1, 116411, Note_on_c, 6, 53, 123
1, 116428, Note_off_c, 9, 35, 0
1, 116428, Note_off_c, 9, 46, 0
1, 116432, Lyric_t, "LING "
1, 116432, Note_on_c, 3, 79, 106
1, 116445, Note_off_c, 8, 58, 0
1, 116451, Note_off_c, 8, 53, 0
1, 116458, Note_off_c, 7, 70, 0
1, 116460, Note_off_c, 7, 65, 0
1, 116467, Note_off_c, 6, 53, 0
1, 116472, Note_off_c, 7, 74, 0
1, 116483, Note_off_c, 6, 46, 0
1, 116500, Note_off_c, 3, 79, 0
1, 116619, Note_off_c, 1, 34, 0
1, 116627, Note_off_c, 10, 46, 0
1, 116640, Note_on_c, 1, 34, 113
1, 116640, Note_on_c, 7, 65, 98
1, 116640, Note_on_c, 7, 70, 111
1, 116640, Note_on_c, 7, 74, 106
1, 116640, Note_on_c, 8, 46, 123
1, 116640, Note_on_c, 8, 53, 102
1, 116640, Note_on_c, 8, 58, 127
1, 116640, Note_on_c, 9, 39, 85
1, 116640, Note_on_c, 9, 40, 116
1, 116640, Note_on_c, 9, 42, 98
1, 116640, Note_on_c, 9, 54, 116
1, 116648, Note_on_c, 10, 46, 113
1, 116651, Note_on_c, 6, 46, 127
1, 116651, Note_on_c, 6, 53, 127
1, 116662, Lyric_t, "IN "
1, 116662, Note_on_c, 3, 82, 127
1, 116668, Note_off_c, 9, 39, 0
1, 116668, Note_off_c, 9, 40, 0
1, 116668, Note_off_c, 9, 42, 0
1, 116668, Note_off_c, 9, 54, 0
1, 116702, Note_off_c, 7, 65, 0
1, 116705, Note_off_c, 7, 70, 0
1, 116712, Note_off_c, 7, 74, 0
1, 116715, Note_off_c, 6, 53, 0
1, 116731, Note_off_c, 6, 46, 0
1, 116743, Note_off_c, 8, 53, 0
1, 116757, Note_off_c, 8, 58, 0
1, 116855, Note_off_c, 3, 82, 0
1, 116859, Note_off_c, 1, 34, 0
1, 116867, Note_off_c, 10, 46, 0
1, 116880, Note_on_c, 1, 34, 118
1, 116880, Note_on_c, 7, 65, 98
1, 116880, Note_on_c, 7, 70, 105
1, 116880, Note_on_c, 7, 74, 106
1, 116880, Note_on_c, 8, 53, 98
1, 116880, Note_on_c, 8, 58, 111
1, 116880, Note_on_c, 9, 42, 98
1, 116888, Note_on_c, 10, 46, 118
1, 116891, Note_on_c, 6, 46, 123
1, 116891, Note_on_c, 6, 53, 123
1, 116893, Lyric_t, "THE "
1, 116893, Note_on_c, 3, 79, 106
1, 116908, Note_off_c, 9, 42, 0
1, 116936, Note_off_c, 7, 65, 0
1, 116939, Note_off_c, 7, 70, 0
1, 116943, Note_off_c, 8, 58, 0
1, 116949, Note_off_c, 6, 53, 0
1, 116952, Note_off_c, 7, 74, 0
1, 116956, Note_off_c, 6, 46, 0
1, 116973, Note_off_c, 8, 53, 0
1, 116994, Note_off_c, 3, 79, 0
1, 117091, Note_off_c, 7, 34, 0
1, 117091, Note_off_c, 7, 46, 0
1, 117099, Note_off_c, 1, 34, 0
1, 117107, Note_off_c, 10, 46, 0
1, 117113, Note_off_c, 8, 46, 0
1, 117120, Note_on_c, 1, 36, 113
1, 117120, Note_on_c, 7, 36, 115
1, 117120, Note_on_c, 7, 48, 115
1, 117120, Note_on_c, 7, 67, 106
1, 117120, Note_on_c, 7, 72, 125
1, 117120, Note_on_c, 7, 75, 116
1, 117120, Note_on_c, 8, 48, 125
1, 117120, Note_on_c, 8, 55, 115
1, 117120, Note_on_c, 8, 60, 120
1, 117120, Note_on_c, 9, 35, 116
1, 117120, Note_on_c, 9, 42, 98
1, 117128, Note_on_c, 10, 48, 113
1, 117131, Note_on_c, 6, 48, 116
1, 117131, Note_on_c, 6, 55, 127
1, 117141, Lyric_t, "DEE"
1, 117141, Note_on_c, 3, 84, 125
1, 117148, Note_off_c, 9, 35, 0
1, 117148, Note_off_c, 9, 42, 0
1, 117157, Note_off_c, 7, 72, 0
1, 117158, Note_off_c, 7, 75, 0
1, 117173, Note_off_c, 7, 67, 0
1, 117192, Note_off_c, 6, 55, 0
1, 117213, Note_off_c, 8, 60, 0
1, 117215, Note_off_c, 8, 55, 0
1, 117234, Note_off_c, 6, 48, 0
1, 117302, Note_off_c, 8, 48, 0
1, 117339, Note_off_c, 1, 36, 0
1, 117347, Note_off_c, 10, 48, 0
1, 117360, Note_on_c, 1, 36, 113
1, 117360, Note_on_c, 7, 67, 77
1, 117360, Note_on_c, 7, 72, 106
1, 117360, Note_on_c, 7, 75, 86
1, 117360, Note_on_c, 8, 55, 90
1, 117360, Note_on_c, 8, 60, 102
1, 117360, Note_on_c, 9, 35, 116
1, 117360, Note_on_c, 9, 42, 98
1, 117368, Note_on_c, 10, 48, 113
1, 117371, Note_on_c, 6, 48, 116
1, 117371, Note_on_c, 6, 55, 116
1, 117388, Note_off_c, 9, 35, 0
1, 117388, Note_off_c, 9, 42, 0
1, 117391, Note_off_c, 7, 75, 0
1, 117397, Note_off_c, 7, 72, 0
1, 117410, Note_off_c, 7, 67, 0
1, 117416, Note_off_c, 6, 55, 0
1, 117422, Note_off_c, 8, 60, 0
1, 117429, Note_off_c, 8, 55, 0
1, 117439, Note_off_c, 6, 48, 0
1, 117579, Note_off_c, 1, 36, 0
1, 117587, Note_off_c, 10, 48, 0
1, 117600, Note_on_c, 1, 36, 118
1, 117600, Note_on_c, 7, 67, 120
1, 117600, Note_on_c, 7, 72, 127
1, 117600, Note_on_c, 7, 75, 127
1, 117600, Note_on_c, 8, 48, 127
1, 117600, Note_on_c, 8, 55, 125
1, 117600, Note_on_c, 8, 60, 127
1, 117600, Note_on_c, 9, 39, 85
1, 117600, Note_on_c, 9, 40, 116
1, 117600, Note_on_c, 9, 42, 98
1, 117600, Note_on_c, 9, 54, 116
1, 117608, Note_on_c, 10, 48, 118
1, 117611, Note_on_c, 6, 48, 127
1, 117611, Note_on_c, 6, 55, 127
1, 117628, Note_off_c, 9, 39, 0
1, 117628, Note_off_c, 9, 40, 0
1, 117628, Note_off_c, 9, 42, 0
1, 117628, Note_off_c, 9, 54, 0
1, 117669, Note_off_c, 7, 72, 0
1, 117673, Note_off_c, 6, 55, 0
1, 117674, Note_off_c, 7, 75, 0
1, 117678, Note_off_c, 7, 67, 0
1, 117707, Note_off_c, 6, 48, 0
1, 117741, Note_off_c, 8, 55, 0
1, 117762, Note_off_c, 8, 60, 0
1, 117775, Note_off_c, 8, 48, 0
1, 117819, Note_off_c, 1, 36, 0
1, 117827, Note_off_c, 10, 48, 0
1, 117840, Note_on_c, 1, 36, 113
1, 117840, Note_on_c, 7, 67, 74
1, 117840, Note_on_c, 7, 72, 98
1, 117840, Note_on_c, 7, 75, 97
1, 117840, Note_on_c, 8, 55, 102
1, 117840, Note_on_c, 8, 60, 115
1, 117840, Note_on_c, 9, 42, 98
1, 117848, Note_on_c, 10, 48, 113
1, 117851, Note_on_c, 6, 48, 116
1, 117851, Note_on_c, 6, 55, 116
1, 117868, Note_off_c, 9, 42, 0
1, 117905, Note_off_c, 7, 72, 0
1, 117907, Note_off_c, 6, 55, 0
1, 117911, Note_off_c, 7, 75, 0
1, 117920, Note_off_c, 7, 67, 0
1, 117932, Note_off_c, 8, 60, 0
1, 117933, Note_off_c, 6, 48, 0
1, 117935, Note_off_c, 8, 55, 0
1, 118059, Note_off_c, 1, 36, 0
1, 118067, Note_off_c, 10, 48, 0
1, 118080, Note_on_c, 1, 36, 113
1, 118080, Note_on_c, 7, 67, 106
1, 118080, Note_on_c, 7, 72, 127
1, 118080, Note_on_c, 7, 75, 116
1, 118080, Note_on_c, 8, 55, 115
1, 118080, Note_on_c, 8, 60, 127
1, 118080, Note_on_c, 9, 35, 116
1, 118080, Note_on_c, 9, 42, 98
1, 118088, Note_on_c, 10, 48, 113
1, 118091, Note_on_c, 6, 48, 123
1, 118091, Note_on_c, 6, 55, 127
1, 118108, Note_off_c, 9, 35, 0
1, 118108, Note_off_c, 9, 42, 0
1, 118149, Note_off_c, 7, 72, 0
1, 118156, Note_off_c, 6, 55, 0
1, 118156, Note_off_c, 7, 75, 0
1, 118158, Note_off_c, 7, 67, 0
1, 118181, Note_off_c, 6, 48, 0
1, 118204, Note_off_c, 8, 60, 0
1, 118208, Note_off_c, 8, 55, 0
1, 118299, Note_off_c, 1, 36, 0
1, 118307, Note_off_c, 10, 48, 0
1, 118320, Note_on_c, 1, 36, 118
1, 118320, Note_on_c, 7, 67, 71
1, 118320, Note_on_c, 7, 72, 90
1, 118320, Note_on_c, 7, 75, 81
1, 118320, Note_on_c, 8, 55, 83
1, 118320, Note_on_c, 8, 60, 102
1, 118320, Note_on_c, 9, 35, 116
1, 118320, Note_on_c, 9, 42, 98
1, 118328, Note_on_c, 10, 48, 118
1, 118331, Note_on_c, 6, 48, 123
1, 118331, Note_on_c, 6, 55, 123
1, 118348, Note_off_c, 9, 35, 0
1, 118348, Note_off_c, 9, 42, 0
1, 118367, Note_off_c, 7, 72, 0
1, 118367, Note_off_c, 7, 75, 0
1, 118377, Note_off_c, 8, 60, 0
1, 118384, Note_off_c, 7, 67, 0
1, 118387, Note_off_c, 6, 55, 0
1, 118393, Note_off_c, 8, 55, 0
1, 118403, Note_off_c, 6, 48, 0
1, 118539, Note_off_c, 1, 36, 0
1, 118547, Note_off_c, 10, 48, 0
1, 118560, Note_on_c, 1, 36, 113
1, 118560, Note_on_c, 7, 67, 115
1, 118560, Note_on_c, 7, 72, 127
1, 118560, Note_on_c, 7, 75, 123
1, 118560, Note_on_c, 8, 48, 127
1, 118560, Note_on_c, 8, 55, 125
1, 118560, Note_on_c, 8, 60, 127
1, 118560, Note_on_c, 9, 39, 85
1, 118560, Note_on_c, 9, 40, 116
1, 118560, Note_on_c, 9, 42, 98
1, 118560, Note_on_c, 9, 54, 116
1, 118566, Pitch_bend_c, 3, 8712
1, 118568, Note_on_c, 10, 48, 113
1, 118571, Note_on_c, 6, 48, 127
1, 118571, Note_on_c, 6, 55, 127
1, 118576, Pitch_bend_c, 3, 12482
1, 118586, Pitch_bend_c, 3, 16383
1, 118588, Note_off_c, 9, 39, 0
1, 118588, Note_off_c, 9, 40, 0
1, 118588, Note_off_c, 9, 42, 0
1, 118588, Note_off_c, 9, 54, 0
1, 118633, Note_off_c, 7, 72, 0
1, 118635, Note_off_c, 6, 55, 0
1, 118648, Note_off_c, 7, 75, 0
1, 118650, Note_off_c, 7, 67, 0
1, 118651, Note_off_c, 6, 48, 0
1, 118670, Note_off_c, 8, 60, 0
1, 118674, Note_off_c, 8, 55, 0
1, 118776, Note_off_c, 3, 84, 0
1, 118779, Note_off_c, 1, 36, 0
1, 118787, Note_off_c, 10, 48, 0
1, 118800, Note_on_c, 1, 36, 118
1, 118800, Note_on_c, 7, 67, 106
1, 118800, Note_on_c, 7, 72, 115
1, 118800, Note_on_c, 7, 75, 105
1, 118800, Note_on_c, 8, 55, 98
1, 118800, Note_on_c, 8, 60, 115
1, 118800, Note_on_c, 9, 42, 98
1, 118801, Lyric_t, "P"
1, 118801, Lyric_t, "\015"
1, 118801, Note_on_c, 3, 82, 123
1, 118803, Pitch_bend_c, 3, 8192
1, 118808, Note_on_c, 10, 48, 118
1, 118811, Note_on_c, 6, 48, 123
1, 118811, Note_on_c, 6, 55, 123
1, 118818, Pitch_bend_c, 3, 8192
1, 118828, Note_off_c, 9, 42, 0
1, 118862, Note_off_c, 7, 72, 0
1, 118869, Note_off_c, 6, 55, 0
1, 118871, Note_off_c, 7, 75, 0
1, 118876, Note_off_c, 6, 48, 0
1, 118878, Note_off_c, 8, 60, 0
1, 118882, Note_off_c, 7, 67, 0
1, 118898, Note_off_c, 8, 55, 0
1, 118916, Control_c, 3, 1, 0
1, 119011, Note_off_c, 7, 36, 0
1, 119011, Note_off_c, 7, 48, 0
1, 119012, Note_off_c, 8, 48, 0
1, 119019, Note_off_c, 1, 36, 0
1, 119027, Note_off_c, 10, 48, 0
1, 119040, Note_on_c, 1, 34, 113
1, 119040, Note_on_c, 7, 34, 115
1, 119040, Note_on_c, 7, 46, 115
1, 119040, Note_on_c, 7, 65, 83
1, 119040, Note_on_c, 7, 70, 105
1, 119040, Note_on_c, 7, 74, 102
1, 119040, Note_on_c, 8, 46, 125
1, 119040, Note_on_c, 8, 53, 115
1, 119040, Note_on_c, 8, 58, 120
1, 119040, Note_on_c, 9, 35, 116
1, 119040, Note_on_c, 9, 42, 98
1, 119048, Note_on_c, 10, 46, 113
1, 119051, Note_on_c, 6, 46, 116
1, 119051, Note_on_c, 6, 53, 127
1, 119068, Note_off_c, 9, 35, 0
1, 119068, Note_off_c, 9, 42, 0
1, 119103, Note_off_c, 7, 74, 0
1, 119112, Note_off_c, 6, 53, 0
1, 119114, Note_off_c, 7, 65, 0
1, 119115, Note_off_c, 7, 70, 0
1, 119133, Note_off_c, 8, 58, 0
1, 119135, Note_off_c, 8, 53, 0
1, 119154, Note_off_c, 6, 46, 0
1, 119222, Note_off_c, 8, 46, 0
1, 119259, Note_off_c, 1, 34, 0
1, 119267, Note_off_c, 10, 46, 0
1, 119280, Note_on_c, 1, 34, 113
1, 119280, Note_on_c, 7, 65, 63
1, 119280, Note_on_c, 7, 70, 81
1, 119280, Note_on_c, 7, 74, 56
1, 119280, Note_on_c, 8, 53, 90
1, 119280, Note_on_c, 8, 58, 102
1, 119280, Note_on_c, 9, 35, 116
1, 119280, Note_on_c, 9, 42, 98
1, 119288, Note_on_c, 10, 46, 113
1, 119291, Note_on_c, 6, 46, 116
1, 119291, Note_on_c, 6, 53, 116
1, 119308, Note_off_c, 9, 35, 0
1, 119308, Note_off_c, 9, 42, 0
1, 119317, Note_off_c, 7, 74, 0
1, 119332, Note_off_c, 7, 65, 0
1, 119334, Note_off_c, 7, 70, 0
1, 119336, Note_off_c, 6, 53, 0
1, 119342, Note_off_c, 8, 58, 0
1, 119349, Note_off_c, 8, 53, 0
1, 119359, Note_off_c, 6, 46, 0
1, 119408, Note_off_c, 3, 82, 0
1, 119499, Note_off_c, 1, 34, 0
1, 119507, Note_off_c, 10, 46, 0
1, 119520, Note_on_c, 1, 34, 118
1, 119520, Note_on_c, 7, 65, 106
1, 119520, Note_on_c, 7, 70, 116
1, 119520, Note_on_c, 7, 74, 115
1, 119520, Note_on_c, 8, 46, 127
1, 119520, Note_on_c, 8, 53, 125
1, 119520, Note_on_c, 8, 58, 127
1, 119520, Note_on_c, 9, 39, 85
1, 119520, Note_on_c, 9, 40, 116
1, 119520, Note_on_c, 9, 42, 98
1, 119520, Note_on_c, 9, 54, 116
1, 119528, Note_on_c, 10, 46, 118
1, 119531, Note_on_c, 6, 46, 127
1, 119531, Note_on_c, 6, 53, 127
1, 119548, Note_off_c, 9, 39, 0
1, 119548, Note_off_c, 9, 40, 0
1, 119548, Note_off_c, 9, 42, 0
1, 119548, Note_off_c, 9, 54, 0
1, 119590, Note_off_c, 7, 65, 0
1, 119590, Note_off_c, 7, 70, 0
1, 119593, Note_off_c, 6, 53, 0
1, 119603, Note_off_c, 7, 74, 0
1, 119627, Note_off_c, 6, 46, 0
1, 119661, Note_off_c, 8, 53, 0
1, 119682, Note_off_c, 8, 58, 0
1, 119695, Note_off_c, 8, 46, 0
1, 119739, Note_off_c, 1, 34, 0
1, 119747, Note_off_c, 10, 46, 0
1, 119760, Note_on_c, 1, 34, 113
1, 119760, Note_on_c, 7, 65, 74
1, 119760, Note_on_c, 7, 70, 93
1, 119760, Note_on_c, 7, 74, 83
1, 119760, Note_on_c, 8, 53, 102
1, 119760, Note_on_c, 8, 58, 115
1, 119760, Note_on_c, 9, 42, 98
1, 119768, Note_on_c, 10, 46, 113
1, 119771, Note_on_c, 6, 46, 116
1, 119771, Note_on_c, 6, 53, 116
1, 119783, Lyric_t, "YOU "
1, 119783, Note_on_c, 3, 79, 125
1, 119788, Note_off_c, 9, 42, 0
1, 119826, Note_off_c, 7, 65, 0
1, 119827, Note_off_c, 6, 53, 0
1, 119828, Note_off_c, 7, 70, 0
1, 119836, Note_off_c, 7, 74, 0
1, 119846, Note_off_c, 3, 79, 0
1, 119852, Note_off_c, 8, 58, 0
1, 119853, Note_off_c, 6, 46, 0
1, 119855, Note_off_c, 8, 53, 0
1, 119979, Note_off_c, 1, 34, 0
1, 119987, Note_off_c, 10, 46, 0
1, 120000, Note_on_c, 1, 34, 113
1, 120000, Note_on_c, 7, 65, 90
1, 120000, Note_on_c, 7, 70, 101
1, 120000, Note_on_c, 7, 74, 98
1, 120000, Note_on_c, 8, 53, 115
1, 120000, Note_on_c, 8, 58, 127
1, 120000, Note_on_c, 9, 35, 116
1, 120000, Note_on_c, 9, 42, 98
1, 120008, Note_on_c, 10, 46, 113
1, 120011, Note_on_c, 6, 46, 123
1, 120011, Note_on_c, 6, 53, 127
1, 120027, Lyric_t, "HAD "
1, 120027, Note_on_c, 3, 82, 127
1, 120028, Note_off_c, 9, 35, 0
1, 120028, Note_off_c, 9, 42, 0
1, 120066, Note_off_c, 7, 65, 0
1, 120069, Note_off_c, 7, 70, 0
1, 120076, Note_off_c, 6, 53, 0
1, 120084, Note_off_c, 7, 74, 0
1, 120101, Note_off_c, 6, 46, 0
1, 120124, Note_off_c, 8, 58, 0
1, 120128, Note_off_c, 8, 53, 0
1, 120219, Note_off_c, 1, 34, 0
1, 120227, Note_off_c, 10, 46, 0
1, 120234, Note_off_c, 3, 82, 0
1, 120240, Note_on_c, 1, 34, 118
1, 120240, Note_on_c, 7, 65, 74
1, 120240, Note_on_c, 7, 70, 89
1, 120240, Note_on_c, 7, 74, 90
1, 120240, Note_on_c, 8, 53, 83
1, 120240, Note_on_c, 8, 58, 102
1, 120240, Note_on_c, 9, 35, 116
1, 120240, Note_on_c, 9, 46, 98
1, 120248, Note_on_c, 10, 46, 118
1, 120251, Note_on_c, 6, 46, 123
1, 120251, Note_on_c, 6, 53, 123
1, 120268, Note_off_c, 9, 35, 0
1, 120268, Note_off_c, 9, 46, 0
1, 120272, Lyric_t, "MY "
1, 120272, Note_on_c, 3, 79, 106
1, 120297, Note_off_c, 8, 58, 0
1, 120298, Note_off_c, 7, 70, 0
1, 120300, Note_off_c, 7, 65, 0
1, 120307, Note_off_c, 6, 53, 0
1, 120312, Note_off_c, 7, 74, 0
1, 120313, Note_off_c, 8, 53, 0
1, 120323, Note_off_c, 6, 46, 0
1, 120340, Note_off_c, 3, 79, 0
1, 120459, Note_off_c, 1, 34, 0
1, 120467, Note_off_c, 10, 46, 0
1, 120480, Note_on_c, 1, 34, 113
1, 120480, Note_on_c, 7, 65, 98
1, 120480, Note_on_c, 7, 70, 111
1, 120480, Note_on_c, 7, 74, 106
1, 120480, Note_on_c, 8, 46, 127
1, 120480, Note_on_c, 8, 53, 125
1, 120480, Note_on_c, 8, 58, 127
1, 120480, Note_on_c, 9, 39, 85
1, 120480, Note_on_c, 9, 40, 116
1, 120480, Note_on_c, 9, 42, 98
1, 120480, Note_on_c, 9, 54, 116
1, 120488, Note_on_c, 10, 46, 113
1, 120491, Note_on_c, 6, 46, 127
1, 120491, Note_on_c, 6, 53, 127
1, 120502, Lyric_t, "HEART "
1, 120502, Note_on_c, 3, 82, 127
1, 120508, Note_off_c, 9, 39, 0
1, 120508, Note_off_c, 9, 40, 0
1, 120508, Note_off_c, 9, 42, 0
1, 120508, Note_off_c, 9, 54, 0
1, 120542, Note_off_c, 7, 65, 0
1, 120545, Note_off_c, 7, 70, 0
1, 120552, Note_off_c, 7, 74, 0
1, 120555, Note_off_c, 6, 53, 0
1, 120571, Note_off_c, 6, 46, 0
1, 120590, Note_off_c, 8, 58, 0
1, 120594, Note_off_c, 8, 53, 0
1, 120695, Note_off_c, 3, 82, 0
1, 120699, Note_off_c, 1, 34, 0
1, 120707, Note_off_c, 10, 46, 0
1, 120720, Note_on_c, 1, 34, 118
1, 120720, Note_on_c, 7, 65, 98
1, 120720, Note_on_c, 7, 70, 105
1, 120720, Note_on_c, 7, 74, 106
1, 120720, Note_on_c, 8, 53, 98
1, 120720, Note_on_c, 8, 58, 115
1, 120720, Note_on_c, 9, 40, 116
1, 120720, Note_on_c, 9, 42, 98
1, 120728, Note_on_c, 10, 46, 118
1, 120731, Note_on_c, 6, 46, 123
1, 120731, Note_on_c, 6, 53, 123
1, 120733, Lyric_t, "IN"
1, 120733, Note_on_c, 3, 79, 106
1, 120748, Note_off_c, 9, 40, 0
1, 120748, Note_off_c, 9, 42, 0
1, 120776, Note_off_c, 7, 65, 0
1, 120779, Note_off_c, 7, 70, 0
1, 120789, Note_off_c, 6, 53, 0
1, 120792, Note_off_c, 7, 74, 0
1, 120796, Note_off_c, 6, 46, 0
1, 120798, Note_off_c, 8, 58, 0
1, 120818, Note_off_c, 8, 53, 0
1, 120834, Note_off_c, 3, 79, 0
1, 120840, Note_on_c, 9, 40, 116
1, 120868, Note_off_c, 9, 40, 0
1, 120931, Note_off_c, 7, 34, 0
1, 120931, Note_off_c, 7, 46, 0
1, 120932, Note_off_c, 8, 46, 0
1, 120939, Note_off_c, 1, 34, 0
1, 120947, Note_off_c, 10, 46, 0
1, 120960, Note_on_c, 1, 32, 113
1, 120960, Note_on_c, 7, 32, 115
1, 120960, Note_on_c, 7, 44, 115
1, 120960, Note_on_c, 7, 63, 116
1, 120960, Note_on_c, 7, 67, 115
1, 120960, Note_on_c, 7, 72, 125
1, 120960, Note_on_c, 8, 44, 125
1, 120960, Note_on_c, 8, 51, 115
1, 120960, Note_on_c, 8, 56, 120
1, 120960, Note_on_c, 9, 35, 116
1, 120960, Note_on_c, 9, 49, 98
1, 120968, Note_on_c, 10, 44, 113
1, 120971, Note_on_c, 6, 44, 116
1, 120971, Note_on_c, 6, 51, 127
1, 120974, Lyric_t, "SIDE"
1, 120974, Lyric_t, "\015"
1, 120974, Note_on_c, 3, 84, 115
1, 120988, Note_off_c, 9, 35, 0
1, 120988, Note_off_c, 9, 49, 0
1, 121017, Note_off_c, 7, 63, 0
1, 121020, Note_off_c, 7, 72, 0
1, 121029, Note_off_c, 7, 67, 0
1, 121032, Note_off_c, 6, 51, 0
1, 121053, Note_off_c, 8, 56, 0
1, 121055, Note_off_c, 8, 51, 0
1, 121074, Note_off_c, 6, 44, 0
1, 121142, Note_off_c, 8, 44, 0
1, 121179, Note_off_c, 1, 32, 0
1, 121187, Note_off_c, 10, 44, 0
1, 121200, Note_on_c, 1, 32, 113
1, 121200, Note_on_c, 7, 63, 105
1, 121200, Note_on_c, 7, 67, 102
1, 121200, Note_on_c, 7, 72, 110
1, 121200, Note_on_c, 8, 51, 90
1, 121200, Note_on_c, 8, 56, 102
1, 121200, Note_on_c, 9, 35, 116
1, 121200, Note_on_c, 9, 42, 98
1, 121208, Note_on_c, 10, 44, 113
1, 121211, Note_on_c, 6, 44, 116
1, 121211, Note_on_c, 6, 51, 116
1, 121228, Note_off_c, 9, 35, 0
1, 121228, Note_off_c, 9, 42, 0
1, 121242, Note_off_c, 7, 72, 0
1, 121246, Note_off_c, 7, 63, 0
1, 121251, Note_off_c, 7, 67, 0
1, 121256, Note_off_c, 6, 51, 0
1, 121262, Note_off_c, 8, 56, 0
1, 121269, Note_off_c, 8, 51, 0
1, 121279, Note_off_c, 6, 44, 0
1, 121419, Note_off_c, 1, 32, 0
1, 121427, Note_off_c, 10, 44, 0
1, 121440, Note_on_c, 1, 32, 118
1, 121440, Note_on_c, 7, 63, 123
1, 121440, Note_on_c, 7, 67, 125
1, 121440, Note_on_c, 7, 72, 127
1, 121440, Note_on_c, 8, 44, 127
1, 121440, Note_on_c, 8, 51, 125
1, 121440, Note_on_c, 8, 56, 127
1, 121440, Note_on_c, 9, 39, 85
1, 121440, Note_on_c, 9, 40, 116
1, 121440, Note_on_c, 9, 42, 98
1, 121440, Note_on_c, 9, 54, 116
1, 121448, Note_on_c, 10, 44, 118
1, 121451, Note_on_c, 6, 44, 127
1, 121451, Note_on_c, 6, 51, 127
1, 121468, Note_off_c, 9, 39, 0
1, 121468, Note_off_c, 9, 40, 0
1, 121468, Note_off_c, 9, 42, 0
1, 121468, Note_off_c, 9, 54, 0
1, 121498, Note_off_c, 7, 72, 0
1, 121500, Note_off_c, 7, 63, 0
1, 121508, Control_c, 3, 1, 0
1, 121513, Note_off_c, 6, 51, 0
1, 121515, Note_off_c, 7, 67, 0
1, 121518, Control_c, 3, 1, 4
1, 121547, Note_off_c, 6, 44, 0
1, 121548, Control_c, 3, 1, 8
1, 121578, Control_c, 3, 1, 13
1, 121581, Note_off_c, 8, 51, 0
1, 121602, Note_off_c, 8, 56, 0
1, 121608, Control_c, 3, 1, 17
1, 121615, Note_off_c, 8, 44, 0
1, 121638, Control_c, 3, 1, 22
1, 121659, Note_off_c, 1, 32, 0
1, 121667, Note_off_c, 10, 44, 0
1, 121668, Control_c, 3, 1, 26
1, 121669, Control_c, 3, 1, 27
1, 121680, Note_on_c, 1, 32, 113
1, 121680, Note_on_c, 7, 63, 111
1, 121680, Note_on_c, 7, 67, 102
1, 121680, Note_on_c, 7, 72, 125
1, 121680, Note_on_c, 8, 51, 102
1, 121680, Note_on_c, 8, 56, 115
1, 121680, Note_on_c, 9, 42, 98
1, 121684, Control_c, 3, 1, 32
1, 121688, Note_on_c, 10, 44, 113
1, 121691, Note_on_c, 6, 44, 116
1, 121691, Note_on_c, 6, 51, 116
1, 121699, Control_c, 3, 1, 38
1, 121708, Note_off_c, 9, 42, 0
1, 121714, Control_c, 3, 1, 43
1, 121729, Control_c, 3, 1, 49
1, 121733, Note_off_c, 7, 63, 0
1, 121733, Note_off_c, 7, 72, 0
1, 121741, Note_off_c, 7, 67, 0
1, 121744, Control_c, 3, 1, 54
1, 121747, Note_off_c, 6, 51, 0
1, 121759, Control_c, 3, 1, 60
1, 121762, Control_c, 3, 1, 61
1, 121772, Note_off_c, 8, 56, 0
1, 121773, Note_off_c, 6, 44, 0
1, 121775, Note_off_c, 8, 51, 0
1, 121777, Control_c, 3, 1, 66
1, 121792, Control_c, 3, 1, 71
1, 121794, Control_c, 3, 1, 72
1, 121809, Control_c, 3, 1, 77
1, 121824, Control_c, 3, 1, 82
1, 121832, Control_c, 3, 1, 85
1, 121862, Control_c, 3, 1, 89
1, 121863, Control_c, 3, 1, 90
1, 121899, Note_off_c, 1, 32, 0
1, 121907, Note_off_c, 10, 44, 0
1, 121920, Note_on_c, 1, 32, 113
1, 121920, Note_on_c, 7, 63, 116
1, 121920, Note_on_c, 7, 67, 110
1, 121920, Note_on_c, 7, 72, 120
1, 121920, Note_on_c, 8, 51, 115
1, 121920, Note_on_c, 8, 56, 127
1, 121920, Note_on_c, 9, 35, 116
1, 121920, Note_on_c, 9, 42, 98
1, 121928, Note_on_c, 10, 44, 113
1, 121931, Note_on_c, 6, 44, 123
1, 121931, Note_on_c, 6, 51, 127
1, 121937, Control_c, 3, 1, 90
1, 121947, Control_c, 3, 1, 79
1, 121948, Note_off_c, 9, 35, 0
1, 121948, Note_off_c, 9, 42, 0
1, 121962, Control_c, 3, 1, 40
1, 121974, Note_off_c, 7, 72, 0
1, 121977, Control_c, 3, 1, 0
1, 121981, Note_off_c, 7, 63, 0
1, 121989, Note_off_c, 7, 67, 0
1, 121996, Note_off_c, 6, 51, 0
1, 122021, Note_off_c, 6, 44, 0
1, 122044, Note_off_c, 8, 56, 0
1, 122048, Note_off_c, 8, 51, 0
1, 122096, Note_off_c, 3, 84, 0
1, 122139, Note_off_c, 1, 32, 0
1, 122147, Note_off_c, 10, 44, 0
1, 122160, Note_on_c, 1, 32, 118
1, 122160, Note_on_c, 7, 63, 111
1, 122160, Note_on_c, 7, 67, 106
1, 122160, Note_on_c, 7, 72, 115
1, 122160, Note_on_c, 8, 51, 83
1, 122160, Note_on_c, 8, 56, 102
1, 122160, Note_on_c, 9, 35, 116
1, 122160, Note_on_c, 9, 42, 98
1, 122168, Note_on_c, 10, 44, 118
1, 122171, Note_on_c, 6, 44, 123
1, 122171, Note_on_c, 6, 51, 123
1, 122175, Lyric_t, "OF "
1, 122175, Note_on_c, 3, 84, 106
1, 122188, Note_off_c, 9, 35, 0
1, 122188, Note_off_c, 9, 42, 0
1, 122216, Note_off_c, 7, 72, 0
1, 122217, Note_off_c, 8, 56, 0
1, 122221, Note_off_c, 7, 63, 0
1, 122227, Note_off_c, 6, 51, 0
1, 122233, Note_off_c, 8, 51, 0
1, 122234, Note_off_c, 7, 67, 0
1, 122243, Note_off_c, 6, 44, 0
1, 122373, Note_off_c, 3, 84, 0
1, 122379, Note_off_c, 1, 32, 0
1, 122387, Note_off_c, 10, 44, 0
1, 122400, Note_on_c, 1, 32, 113
1, 122400, Note_on_c, 7, 63, 116
1, 122400, Note_on_c, 7, 67, 90
1, 122400, Note_on_c, 7, 72, 120
1, 122400, Note_on_c, 8, 44, 127
1, 122400, Note_on_c, 8, 51, 125
1, 122400, Note_on_c, 8, 56, 127
1, 122400, Note_on_c, 9, 39, 85
1, 122400, Note_on_c, 9, 40, 116
1, 122400, Note_on_c, 9, 42, 98
1, 122400, Note_on_c, 9, 54, 116
1, 122408, Note_on_c, 10, 44, 113
1, 122411, Note_on_c, 6, 44, 127
1, 122411, Note_on_c, 6, 51, 127
1, 122428, Note_off_c, 9, 39, 0
1, 122428, Note_off_c, 9, 40, 0
1, 122428, Note_off_c, 9, 42, 0
1, 122428, Note_off_c, 9, 54, 0
1, 122431, Lyric_t, "YOUR "
1, 122431, Note_on_c, 3, 84, 125
1, 122455, Note_off_c, 7, 72, 0
1, 122458, Pitch_bend_c, 3, 8712
1, 122460, Note_off_c, 7, 63, 0
1, 122468, Pitch_bend_c, 3, 9882
1, 122470, Note_off_c, 7, 67, 0
1, 122475, Note_off_c, 6, 51, 0
1, 122478, Pitch_bend_c, 3, 11572
1, 122488, Pitch_bend_c, 3, 13912
1, 122491, Note_off_c, 6, 44, 0
1, 122498, Pitch_bend_c, 3, 16383
1, 122510, Note_off_c, 8, 56, 0
1, 122514, Note_off_c, 8, 51, 0
1, 122601, Note_off_c, 3, 84, 0
1, 122611, Pitch_bend_c, 3, 14562
1, 122619, Note_off_c, 1, 32, 0
1, 122622, Pitch_bend_c, 3, 8192
1, 122627, Note_off_c, 10, 44, 0
1, 122640, Note_on_c, 1, 32, 118
1, 122640, Note_on_c, 7, 63, 116
1, 122640, Note_on_c, 7, 67, 110
1, 122640, Note_on_c, 7, 72, 120
1, 122640, Note_on_c, 8, 51, 98
1, 122640, Note_on_c, 8, 56, 115
1, 122640, Note_on_c, 9, 42, 98
1, 122648, Note_on_c, 10, 44, 118
1, 122651, Note_on_c, 6, 44, 123
1, 122651, Note_on_c, 6, 51, 123
1, 122653, Lyric_t, "HAND"
1, 122653, Lyric_t, "\015"
1, 122653, Note_on_c, 3, 82, 123
1, 122668, Note_off_c, 9, 42, 0
1, 122695, Note_off_c, 7, 72, 0
1, 122702, Note_off_c, 7, 63, 0
1, 122709, Note_off_c, 6, 51, 0
1, 122709, Note_off_c, 7, 67, 0
1, 122716, Note_off_c, 6, 44, 0
1, 122718, Note_off_c, 8, 56, 0
1, 122738, Note_off_c, 8, 51, 0
1, 122851, Note_off_c, 7, 32, 0
1, 122851, Note_off_c, 7, 44, 0
1, 122852, Note_off_c, 8, 44, 0
1, 122859, Note_off_c, 1, 32, 0
1, 122867, Note_off_c, 10, 44, 0
1, 122880, Note_on_c, 1, 32, 113
1, 122880, Note_on_c, 7, 32, 115
1, 122880, Note_on_c, 7, 44, 115
1, 122880, Note_on_c, 7, 63, 116
1, 122880, Note_on_c, 7, 67, 115
1, 122880, Note_on_c, 7, 72, 125
1, 122880, Note_on_c, 8, 44, 125
1, 122880, Note_on_c, 8, 51, 115
1, 122880, Note_on_c, 8, 56, 120
1, 122880, Note_on_c, 9, 35, 116
1, 122880, Note_on_c, 9, 42, 98
1, 122888, Note_on_c, 10, 44, 113
1, 122891, Note_on_c, 6, 44, 116
1, 122891, Note_on_c, 6, 51, 127
1, 122908, Note_off_c, 9, 35, 0
1, 122908, Note_off_c, 9, 42, 0
1, 122937, Note_off_c, 7, 63, 0
1, 122940, Note_off_c, 7, 72, 0
1, 122949, Note_off_c, 7, 67, 0
1, 122952, Note_off_c, 6, 51, 0
1, 122973, Note_off_c, 8, 56, 0
1, 122975, Note_off_c, 8, 51, 0
1, 122994, Note_off_c, 6, 44, 0
1, 123062, Note_off_c, 8, 44, 0
1, 123099, Note_off_c, 1, 32, 0
1, 123107, Note_off_c, 10, 44, 0
1, 123120, Note_on_c, 1, 32, 113
1, 123120, Note_on_c, 7, 63, 105
1, 123120, Note_on_c, 7, 67, 102
1, 123120, Note_on_c, 7, 72, 110
1, 123120, Note_on_c, 8, 51, 90
1, 123120, Note_on_c, 8, 56, 102
1, 123120, Note_on_c, 9, 35, 116
1, 123120, Note_on_c, 9, 42, 98
1, 123128, Note_on_c, 10, 44, 113
1, 123131, Note_on_c, 6, 44, 116
1, 123131, Note_on_c, 6, 51, 116
1, 123148, Note_off_c, 9, 35, 0
1, 123148, Note_off_c, 9, 42, 0
1, 123162, Note_off_c, 7, 72, 0
1, 123166, Note_off_c, 7, 63, 0
1, 123171, Note_off_c, 7, 67, 0
1, 123176, Note_off_c, 6, 51, 0
1, 123182, Note_off_c, 8, 56, 0
1, 123189, Note_off_c, 8, 51, 0
1, 123199, Note_off_c, 6, 44, 0
1, 123339, Note_off_c, 1, 32, 0
1, 123347, Note_off_c, 10, 44, 0
1, 123360, Note_on_c, 1, 32, 118
1, 123360, Note_on_c, 7, 63, 123
1, 123360, Note_on_c, 7, 67, 125
1, 123360, Note_on_c, 7, 72, 127
1, 123360, Note_on_c, 8, 44, 127
1, 123360, Note_on_c, 8, 51, 125
1, 123360, Note_on_c, 8, 56, 127
1, 123360, Note_on_c, 9, 39, 85
1, 123360, Note_on_c, 9, 40, 116
1, 123360, Note_on_c, 9, 42, 98
1, 123360, Note_on_c, 9, 54, 116
1, 123368, Note_on_c, 10, 44, 118
1, 123371, Note_on_c, 6, 44, 127
1, 123371, Note_on_c, 6, 51, 127
1, 123388, Note_off_c, 9, 39, 0
1, 123388, Note_off_c, 9, 40, 0
1, 123388, Note_off_c, 9, 42, 0
1, 123388, Note_off_c, 9, 54, 0
1, 123407, Note_off_c, 3, 82, 0
1, 123418, Note_off_c, 7, 72, 0
1, 123420, Note_off_c, 7, 63, 0
1, 123433, Note_off_c, 6, 51, 0
1, 123435, Note_off_c, 7, 67, 0
1, 123467, Note_off_c, 6, 44, 0
1, 123501, Note_off_c, 8, 51, 0
1, 123522, Note_off_c, 8, 56, 0
1, 123535, Note_off_c, 8, 44, 0
1, 123579, Note_off_c, 1, 32, 0
1, 123587, Note_off_c, 10, 44, 0
1, 123600, Note_on_c, 1, 32, 113
1, 123600, Note_on_c, 7, 63, 111
1, 123600, Note_on_c, 7, 67, 102
1, 123600, Note_on_c, 7, 72, 125
1, 123600, Note_on_c, 8, 51, 102
1, 123600, Note_on_c, 8, 56, 115
1, 123600, Note_on_c, 9, 42, 98
1, 123608, Note_on_c, 10, 44, 113
1, 123611, Note_on_c, 6, 44, 116
1, 123611, Note_on_c, 6, 51, 116
1, 123628, Note_off_c, 9, 42, 0
1, 123653, Note_off_c, 7, 63, 0
1, 123653, Note_off_c, 7, 72, 0
1, 123661, Note_off_c, 7, 67, 0
1, 123667, Note_off_c, 6, 51, 0
1, 123692, Note_off_c, 8, 56, 0
1, 123693, Note_off_c, 6, 44, 0
1, 123695, Note_off_c, 8, 51, 0
1, 123819, Note_off_c, 1, 32, 0
1, 123827, Note_off_c, 10, 44, 0
1, 123840, Note_on_c, 1, 32, 113
1, 123840, Note_on_c, 7, 63, 116
1, 123840, Note_on_c, 7, 67, 110
1, 123840, Note_on_c, 7, 72, 120
1, 123840, Note_on_c, 8, 51, 115
1, 123840, Note_on_c, 8, 56, 127
1, 123840, Note_on_c, 9, 35, 116
1, 123840, Note_on_c, 9, 42, 98
1, 123848, Note_on_c, 10, 44, 113
1, 123851, Note_on_c, 6, 44, 123
1, 123851, Note_on_c, 6, 51, 127
1, 123868, Note_off_c, 9, 35, 0
1, 123868, Note_off_c, 9, 42, 0
1, 123894, Note_off_c, 7, 72, 0
1, 123901, Note_off_c, 7, 63, 0
1, 123909, Note_off_c, 7, 67, 0
1, 123916, Note_off_c, 6, 51, 0
1, 123941, Note_off_c, 6, 44, 0
1, 123964, Note_off_c, 8, 56, 0
1, 123968, Note_off_c, 8, 51, 0
1, 124059, Note_off_c, 1, 32, 0
1, 124067, Note_off_c, 10, 44, 0
1, 124076, Lyric_t, "BUT "
1, 124076, Note_on_c, 3, 79, 120
1, 124080, Note_on_c, 1, 32, 118
1, 124080, Note_on_c, 7, 63, 111
1, 124080, Note_on_c, 7, 67, 106
1, 124080, Note_on_c, 7, 72, 115
1, 124080, Note_on_c, 8, 51, 83
1, 124080, Note_on_c, 8, 56, 102
1, 124080, Note_on_c, 9, 35, 116
1, 124080, Note_on_c, 9, 46, 98
1, 124088, Note_on_c, 10, 44, 118
1, 124091, Note_on_c, 6, 44, 123
1, 124091, Note_on_c, 6, 51, 123
1, 124108, Note_off_c, 9, 35, 0
1, 124108, Note_off_c, 9, 46, 0
1, 124136, Note_off_c, 7, 72, 0
1, 124137, Note_off_c, 8, 56, 0
1, 124141, Note_off_c, 7, 63, 0
1, 124147, Note_off_c, 6, 51, 0
1, 124153, Note_off_c, 8, 51, 0
1, 124154, Note_off_c, 7, 67, 0
1, 124163, Note_off_c, 6, 44, 0
1, 124247, Note_off_c, 3, 79, 0
1, 124299, Note_off_c, 1, 32, 0
1, 124301, Lyric_t, "YOU "
1, 124301, Note_on_c, 3, 79, 120
1, 124307, Note_off_c, 10, 44, 0
1, 124320, Note_on_c, 1, 32, 113
1, 124320, Note_on_c, 7, 63, 116
1, 124320, Note_on_c, 7, 67, 90
1, 124320, Note_on_c, 7, 72, 120
1, 124320, Note_on_c, 8, 44, 127
1, 124320, Note_on_c, 8, 51, 125
1, 124320, Note_on_c, 8, 56, 127
1, 124320, Note_on_c, 9, 39, 85
1, 124320, Note_on_c, 9, 40, 116
1, 124320, Note_on_c, 9, 42, 98
1, 124320, Note_on_c, 9, 54, 116
1, 124328, Note_on_c, 10, 44, 113
1, 124331, Note_on_c, 6, 44, 127
1, 124331, Note_on_c, 6, 51, 127
1, 124348, Note_off_c, 9, 39, 0
1, 124348, Note_off_c, 9, 40, 0
1, 124348, Note_off_c, 9, 42, 0
1, 124348, Note_off_c, 9, 54, 0
1, 124375, Note_off_c, 7, 72, 0
1, 124380, Note_off_c, 7, 63, 0
1, 124390, Note_off_c, 7, 67, 0
1, 124395, Note_off_c, 6, 51, 0
1, 124411, Note_off_c, 6, 44, 0
1, 124430, Note_off_c, 8, 56, 0
1, 124434, Note_off_c, 8, 51, 0
1, 124499, Note_off_c, 3, 79, 0
1, 124539, Note_off_c, 1, 32, 0
1, 124547, Note_off_c, 10, 44, 0
1, 124560, Lyric_t, "PLAYED "
1, 124560, Note_on_c, 1, 32, 118
1, 124560, Note_on_c, 3, 80, 123
1, 124560, Note_on_c, 7, 63, 116
1, 124560, Note_on_c, 7, 67, 110
1, 124560, Note_on_c, 7, 72, 120
1, 124560, Note_on_c, 8, 51, 98
1, 124560, Note_on_c, 8, 56, 115
1, 124560, Note_on_c, 9, 42, 98
1, 124568, Note_on_c, 10, 44, 118
1, 124571, Note_on_c, 6, 44, 123
1, 124571, Note_on_c, 6, 51, 123
1, 124588, Note_off_c, 9, 42, 0
1, 124615, Note_off_c, 7, 72, 0
1, 124622, Note_off_c, 7, 63, 0
1, 124629, Note_off_c, 6, 51, 0
1, 124629, Note_off_c, 7, 67, 0
1, 124636, Note_off_c, 6, 44, 0
1, 124638, Note_off_c, 8, 56, 0
1, 124658, Note_off_c, 8, 51, 0
1, 124771, Note_off_c, 7, 32, 0
1, 124771, Note_off_c, 7, 44, 0
1, 124772, Note_off_c, 8, 44, 0
1, 124779, Note_off_c, 1, 32, 0
1, 124787, Note_off_c, 10, 44, 0
1, 124800, Note_on_c, 1, 34, 113
1, 124800, Note_on_c, 7, 34, 115
1, 124800, Note_on_c, 7, 46, 115
1, 124800, Note_on_c, 7, 65, 83
1, 124800, Note_on_c, 7, 70, 105
1, 124800, Note_on_c, 7, 74, 102
1, 124800, Note_on_c, 8, 58, 123
1, 124800, Note_on_c, 8, 62, 110
1, 124800, Note_on_c, 9, 35, 116
1, 124800, Note_on_c, 9, 42, 98
1, 124808, Note_on_c, 10, 46, 113
1, 124811, Note_on_c, 6, 46, 116
1, 124811, Note_on_c, 6, 53, 127
1, 124828, Note_off_c, 9, 35, 0
1, 124828, Note_off_c, 9, 42, 0
1, 124863, Note_off_c, 7, 74, 0
1, 124872, Note_off_c, 6, 53, 0
1, 124874, Note_off_c, 7, 65, 0
1, 124875, Note_off_c, 7, 70, 0
1, 124914, Note_off_c, 6, 46, 0
1, 124934, Note_off_c, 3, 80, 0
1, 124935, Note_off_c, 8, 62, 0
1, 124952, Note_off_c, 8, 58, 0
1, 125019, Note_off_c, 1, 34, 0
1, 125027, Note_off_c, 10, 46, 0
1, 125040, Note_on_c, 1, 34, 113
1, 125040, Note_on_c, 7, 65, 63
1, 125040, Note_on_c, 7, 70, 81
1, 125040, Note_on_c, 7, 74, 56
1, 125040, Note_on_c, 8, 58, 93
1, 125040, Note_on_c, 8, 62, 80
1, 125040, Note_on_c, 9, 35, 116
1, 125040, Note_on_c, 9, 42, 98
1, 125048, Note_on_c, 10, 46, 113
1, 125049, Lyric_t, "IT"
1, 125049, Lyric_t, "\015"
1, 125049, Note_on_c, 3, 80, 123
1, 125051, Note_on_c, 6, 46, 116
1, 125051, Note_on_c, 6, 53, 116
1, 125068, Note_off_c, 9, 35, 0
1, 125068, Note_off_c, 9, 42, 0
1, 125077, Note_off_c, 7, 74, 0
1, 125092, Note_off_c, 7, 65, 0
1, 125093, Note_off_c, 8, 62, 0
1, 125094, Note_off_c, 7, 70, 0
1, 125096, Note_off_c, 6, 53, 0
1, 125103, Note_off_c, 8, 58, 0
1, 125119, Note_off_c, 6, 46, 0
1, 125170, Note_off_c, 3, 80, 0
1, 125259, Note_off_c, 1, 34, 0
1, 125267, Note_off_c, 10, 46, 0
1, 125280, Note_on_c, 1, 34, 118
1, 125280, Note_on_c, 7, 65, 106
1, 125280, Note_on_c, 7, 70, 116
1, 125280, Note_on_c, 7, 74, 115
1, 125280, Note_on_c, 8, 58, 123
1, 125280, Note_on_c, 8, 62, 125
1, 125280, Note_on_c, 9, 39, 85
1, 125280, Note_on_c, 9, 40, 116
1, 125280, Note_on_c, 9, 42, 98
1, 125280, Note_on_c, 9, 54, 116
1, 125288, Note_on_c, 10, 46, 118
1, 125291, Note_on_c, 6, 46, 127
1, 125291, Note_on_c, 6, 53, 127
1, 125308, Note_off_c, 9, 39, 0
1, 125308, Note_off_c, 9, 40, 0
1, 125308, Note_off_c, 9, 42, 0
1, 125308, Note_off_c, 9, 54, 0
1, 125350, Note_off_c, 7, 65, 0
1, 125350, Note_off_c, 7, 70, 0
1, 125353, Note_off_c, 6, 53, 0
1, 125363, Note_off_c, 7, 74, 0
1, 125387, Note_off_c, 6, 46, 0
1, 125441, Note_off_c, 8, 62, 0
1, 125456, Note_off_c, 8, 58, 0
1, 125499, Note_off_c, 1, 34, 0
1, 125507, Note_off_c, 10, 46, 0
1, 125520, Note_on_c, 1, 34, 113
1, 125520, Note_on_c, 7, 65, 74
1, 125520, Note_on_c, 7, 70, 93
1, 125520, Note_on_c, 7, 74, 83
1, 125520, Note_on_c, 8, 58, 105
1, 125520, Note_on_c, 8, 62, 90
1, 125520, Note_on_c, 9, 42, 98
1, 125528, Note_on_c, 10, 46, 113
1, 125531, Note_on_c, 6, 46, 116
1, 125531, Note_on_c, 6, 53, 116
1, 125548, Note_off_c, 9, 42, 0
1, 125586, Note_off_c, 7, 65, 0
1, 125587, Note_off_c, 6, 53, 0
1, 125588, Note_off_c, 7, 70, 0
1, 125589, Note_off_c, 8, 62, 0
1, 125596, Note_off_c, 7, 74, 0
1, 125598, Note_off_c, 8, 58, 0
1, 125613, Note_off_c, 6, 46, 0
1, 125739, Note_off_c, 1, 34, 0
1, 125747, Note_off_c, 10, 46, 0
1, 125760, Note_on_c, 1, 34, 113
1, 125760, Note_on_c, 7, 65, 90
1, 125760, Note_on_c, 7, 70, 101
1, 125760, Note_on_c, 7, 74, 98
1, 125760, Note_on_c, 8, 58, 105
1, 125760, Note_on_c, 8, 62, 115
1, 125760, Note_on_c, 9, 35, 116
1, 125760, Note_on_c, 9, 42, 98
1, 125768, Note_on_c, 10, 46, 113
1, 125771, Note_on_c, 6, 46, 123
1, 125771, Note_on_c, 6, 53, 127
1, 125788, Note_off_c, 9, 35, 0
1, 125788, Note_off_c, 9, 42, 0
1, 125816, Note_off_c, 8, 58, 0
1, 125817, Note_off_c, 8, 62, 0
1, 125826, Note_off_c, 7, 65, 0
1, 125829, Note_off_c, 7, 70, 0
1, 125836, Note_off_c, 6, 53, 0
1, 125844, Note_off_c, 7, 74, 0
1, 125861, Note_off_c, 6, 46, 0
1, 125979, Note_off_c, 1, 34, 0
1, 125987, Note_off_c, 10, 46, 0
1, 125996, Lyric_t, "WITH "
1, 125996, Note_on_c, 3, 79, 120
1, 126000, Note_on_c, 1, 34, 118
1, 126000, Note_on_c, 7, 65, 74
1, 126000, Note_on_c, 7, 70, 89
1, 126000, Note_on_c, 7, 74, 90
1, 126000, Note_on_c, 8, 58, 116
1, 126000, Note_on_c, 8, 62, 120
1, 126000, Note_on_c, 9, 35, 116
1, 126000, Note_on_c, 9, 42, 98
1, 126008, Note_on_c, 10, 46, 118
1, 126011, Note_on_c, 6, 46, 123
1, 126011, Note_on_c, 6, 53, 123
1, 126028, Note_off_c, 9, 35, 0
1, 126028, Note_off_c, 9, 42, 0
1, 126058, Note_off_c, 7, 70, 0
1, 126060, Note_off_c, 7, 65, 0
1, 126066, Note_off_c, 8, 62, 0
1, 126067, Note_off_c, 6, 53, 0
1, 126072, Note_off_c, 7, 74, 0
1, 126078, Note_off_c, 8, 58, 0
1, 126083, Note_off_c, 6, 46, 0
1, 126167, Note_off_c, 3, 79, 0
1, 126219, Note_off_c, 1, 34, 0
1, 126221, Lyric_t, "YOUR "
1, 126221, Note_on_c, 3, 79, 120
1, 126227, Note_off_c, 10, 46, 0
1, 126240, Note_on_c, 1, 34, 113
1, 126240, Note_on_c, 7, 65, 98
1, 126240, Note_on_c, 7, 70, 111
1, 126240, Note_on_c, 7, 74, 106
1, 126240, Note_on_c, 8, 58, 123
1, 126240, Note_on_c, 8, 62, 110
1, 126240, Note_on_c, 9, 39, 85
1, 126240, Note_on_c, 9, 40, 116
1, 126240, Note_on_c, 9, 42, 98
1, 126240, Note_on_c, 9, 54, 116
1, 126248, Note_on_c, 10, 46, 113
1, 126251, Note_on_c, 6, 46, 127
1, 126251, Note_on_c, 6, 53, 127
1, 126268, Note_off_c, 9, 39, 0
1, 126268, Note_off_c, 9, 40, 0
1, 126268, Note_off_c, 9, 42, 0
1, 126268, Note_off_c, 9, 54, 0
1, 126302, Note_off_c, 7, 65, 0
1, 126305, Note_off_c, 7, 70, 0
1, 126306, Note_off_c, 8, 58, 0
1, 126308, Note_off_c, 8, 62, 0
1, 126312, Note_off_c, 7, 74, 0
1, 126315, Note_off_c, 6, 53, 0
1, 126331, Note_off_c, 6, 46, 0
1, 126419, Note_off_c, 3, 79, 0
1, 126459, Note_off_c, 1, 34, 0
1, 126467, Note_off_c, 10, 46, 0
1, 126480, Lyric_t, "BEA"
1, 126480, Note_on_c, 1, 34, 118
1, 126480, Note_on_c, 3, 80, 123
1, 126480, Note_on_c, 7, 65, 98
1, 126480, Note_on_c, 7, 70, 105
1, 126480, Note_on_c, 7, 74, 106
1, 126480, Note_on_c, 8, 58, 116
1, 126480, Note_on_c, 8, 62, 106
1, 126480, Note_on_c, 9, 42, 98
1, 126488, Note_on_c, 10, 46, 118
1, 126491, Note_on_c, 6, 46, 123
1, 126491, Note_on_c, 6, 53, 123
1, 126508, Note_off_c, 9, 42, 0
1, 126521, Note_off_c, 8, 62, 0
1, 126527, Note_off_c, 8, 58, 0
1, 126536, Note_off_c, 7, 65, 0
1, 126539, Note_off_c, 7, 70, 0
1, 126549, Note_off_c, 6, 53, 0
1, 126552, Note_off_c, 7, 74, 0
1, 126556, Note_off_c, 6, 46, 0
1, 126691, Note_off_c, 7, 34, 0
1, 126691, Note_off_c, 7, 46, 0
1, 126699, Note_off_c, 1, 34, 0
1, 126707, Note_off_c, 10, 46, 0
1, 126720, Note_on_c, 1, 34, 113
1, 126720, Note_on_c, 7, 34, 115
1, 126720, Note_on_c, 7, 46, 115
1, 126720, Note_on_c, 7, 65, 83
1, 126720, Note_on_c, 7, 70, 105
1, 126720, Note_on_c, 7, 74, 102
1, 126720, Note_on_c, 8, 58, 101
1, 126720, Note_on_c, 8, 62, 95
1, 126720, Note_on_c, 9, 35, 116
1, 126720, Note_on_c, 9, 42, 98
1, 126728, Note_on_c, 10, 46, 113
1, 126731, Note_on_c, 6, 46, 116
1, 126731, Note_on_c, 6, 53, 127
1, 126746, Note_off_c, 8, 62, 0
1, 126748, Note_off_c, 9, 35, 0
1, 126748, Note_off_c, 9, 42, 0
1, 126755, Note_off_c, 8, 58, 0
1, 126783, Note_off_c, 7, 74, 0
1, 126792, Note_off_c, 6, 53, 0
1, 126794, Note_off_c, 7, 65, 0
1, 126795, Note_off_c, 7, 70, 0
1, 126834, Note_off_c, 6, 46, 0
1, 126854, Note_off_c, 3, 80, 0
1, 126939, Note_off_c, 1, 34, 0
1, 126947, Note_off_c, 10, 46, 0
1, 126960, Note_on_c, 1, 34, 113
1, 126960, Note_on_c, 7, 65, 63
1, 126960, Note_on_c, 7, 70, 81
1, 126960, Note_on_c, 7, 74, 56
1, 126960, Note_on_c, 8, 62, 110
1, 126960, Note_on_c, 8, 65, 90
1, 126960, Note_on_c, 8, 70, 116
1, 126960, Note_on_c, 9, 35, 116
1, 126960, Note_on_c, 9, 42, 98
1, 126968, Note_on_c, 10, 46, 113
1, 126969, Lyric_t, "TING"
1, 126969, Lyric_t, "\015"
1, 126969, Note_on_c, 3, 80, 123
1, 126971, Note_on_c, 6, 46, 116
1, 126971, Note_on_c, 6, 53, 116
1, 126988, Note_off_c, 9, 35, 0
1, 126988, Note_off_c, 9, 42, 0
1, 126997, Note_off_c, 7, 74, 0
1, 127012, Note_off_c, 7, 65, 0
1, 127014, Note_off_c, 7, 70, 0
1, 127016, Note_off_c, 6, 53, 0
1, 127018, Note_off_c, 8, 62, 0
1, 127023, Note_off_c, 8, 70, 0
1, 127024, Note_off_c, 8, 65, 0
1, 127039, Note_off_c, 6, 46, 0
1, 127090, Note_off_c, 3, 80, 0
1, 127179, Note_off_c, 1, 34, 0
1, 127187, Note_off_c, 10, 46, 0
1, 127200, Note_on_c, 1, 34, 118
1, 127200, Note_on_c, 7, 65, 106
1, 127200, Note_on_c, 7, 70, 116
1, 127200, Note_on_c, 7, 74, 115
1, 127200, Note_on_c, 8, 62, 120
1, 127200, Note_on_c, 8, 65, 77
1, 127200, Note_on_c, 8, 70, 97
1, 127200, Note_on_c, 9, 39, 85
1, 127200, Note_on_c, 9, 40, 116
1, 127200, Note_on_c, 9, 42, 98
1, 127200, Note_on_c, 9, 54, 116
1, 127208, Note_on_c, 10, 46, 118
1, 127211, Note_on_c, 6, 46, 127
1, 127211, Note_on_c, 6, 53, 127
1, 127225, Note_off_c, 8, 70, 0
1, 127228, Note_off_c, 9, 39, 0
1, 127228, Note_off_c, 9, 40, 0
1, 127228, Note_off_c, 9, 42, 0
1, 127228, Note_off_c, 9, 54, 0
1, 127238, Note_off_c, 8, 65, 0
1, 127242, Note_off_c, 8, 62, 0
1, 127270, Note_off_c, 7, 65, 0
1, 127270, Note_off_c, 7, 70, 0
1, 127273, Note_off_c, 6, 53, 0
1, 127283, Note_off_c, 7, 74, 0
1, 127307, Note_off_c, 6, 46, 0
1, 127419, Note_off_c, 1, 34, 0
1, 127427, Note_off_c, 10, 46, 0
1, 127440, Note_on_c, 1, 34, 113
1, 127440, Note_on_c, 7, 65, 74
1, 127440, Note_on_c, 7, 70, 93
1, 127440, Note_on_c, 7, 74, 83
1, 127440, Note_on_c, 8, 62, 127
1, 127440, Note_on_c, 8, 65, 102
1, 127440, Note_on_c, 8, 70, 127
1, 127440, Note_on_c, 9, 42, 98
1, 127448, Note_on_c, 10, 46, 113
1, 127451, Note_on_c, 6, 46, 116
1, 127451, Note_on_c, 6, 53, 116
1, 127468, Note_off_c, 9, 42, 0
1, 127506, Note_off_c, 7, 65, 0
1, 127507, Note_off_c, 6, 53, 0
1, 127508, Note_off_c, 7, 70, 0
1, 127516, Note_off_c, 7, 74, 0
1, 127533, Note_off_c, 6, 46, 0
1, 127659, Note_off_c, 1, 34, 0
1, 127667, Note_off_c, 10, 46, 0
1, 127680, Note_on_c, 1, 34, 113
1, 127680, Note_on_c, 7, 65, 90
1, 127680, Note_on_c, 7, 70, 101
1, 127680, Note_on_c, 7, 74, 98
1, 127680, Note_on_c, 9, 35, 116
1, 127680, Note_on_c, 9, 42, 98
1, 127688, Note_on_c, 10, 46, 113
1, 127691, Note_on_c, 6, 46, 123
1, 127691, Note_on_c, 6, 53, 127
1, 127708, Note_off_c, 9, 35, 0
1, 127708, Note_off_c, 9, 42, 0
1, 127746, Note_off_c, 7, 65, 0
1, 127749, Note_off_c, 7, 70, 0
1, 127756, Note_off_c, 6, 53, 0
1, 127764, Note_off_c, 7, 74, 0
1, 127781, Note_off_c, 6, 46, 0
1, 127792, Note_off_c, 8, 62, 0
1, 127796, Note_off_c, 8, 65, 0
1, 127805, Note_off_c, 8, 70, 0
1, 127899, Note_off_c, 1, 34, 0
1, 127907, Note_off_c, 10, 46, 0
1, 127920, Note_on_c, 1, 34, 118
1, 127920, Note_on_c, 7, 65, 74
1, 127920, Note_on_c, 7, 70, 89
1, 127920, Note_on_c, 7, 74, 90
1, 127920, Note_on_c, 8, 62, 125
1, 127920, Note_on_c, 8, 65, 120
1, 127920, Note_on_c, 8, 70, 127
1, 127920, Note_on_c, 9, 35, 116
1, 127920, Note_on_c, 9, 46, 98
1, 127928, Note_on_c, 10, 46, 118
1, 127931, Note_on_c, 6, 46, 123
1, 127931, Note_on_c, 6, 53, 123
1, 127948, Note_off_c, 9, 35, 0
1, 127948, Note_off_c, 9, 46, 0
1, 127978, Note_off_c, 7, 70, 0
1, 127980, Note_off_c, 7, 65, 0
1, 127987, Note_off_c, 6, 53, 0
1, 127992, Note_off_c, 7, 74, 0
1, 128003, Note_off_c, 6, 46, 0
1, 128139, Note_off_c, 1, 34, 0
1, 128147, Note_off_c, 10, 46, 0
1, 128160, Note_on_c, 1, 34, 113
1, 128160, Note_on_c, 7, 65, 98
1, 128160, Note_on_c, 7, 70, 111
1, 128160, Note_on_c, 7, 74, 106
1, 128160, Note_on_c, 9, 39, 85
1, 128160, Note_on_c, 9, 40, 116
1, 128160, Note_on_c, 9, 42, 98
1, 128160, Note_on_c, 9, 54, 116
1, 128168, Note_on_c, 10, 46, 113
1, 128171, Note_on_c, 6, 46, 127
1, 128171, Note_on_c, 6, 53, 127
1, 128188, Note_off_c, 9, 39, 0
1, 128188, Note_off_c, 9, 40, 0
1, 128188, Note_off_c, 9, 42, 0
1, 128188, Note_off_c, 9, 54, 0
1, 128222, Note_off_c, 7, 65, 0
1, 128225, Note_off_c, 7, 70, 0
1, 128232, Note_off_c, 7, 74, 0
1, 128235, Note_off_c, 6, 53, 0
1, 128251, Note_off_c, 6, 46, 0
1, 128280, Note_on_c, 9, 40, 116
1, 128295, Note_off_c, 8, 65, 0
1, 128297, Note_off_c, 8, 62, 0
1, 128306, Note_off_c, 8, 70, 0
1, 128308, Note_off_c, 9, 40, 0
1, 128379, Note_off_c, 1, 34, 0
1, 128387, Note_off_c, 10, 46, 0
1, 128400, Note_on_c, 1, 34, 118
1, 128400, Note_on_c, 7, 65, 98
1, 128400, Note_on_c, 7, 70, 105
1, 128400, Note_on_c, 7, 74, 106
1, 128400, Note_on_c, 8, 62, 115
1, 128400, Note_on_c, 8, 65, 110
1, 128400, Note_on_c, 8, 70, 127
1, 128400, Note_on_c, 9, 40, 116
1, 128400, Note_on_c, 9, 42, 98
1, 128408, Note_on_c, 10, 46, 118
1, 128411, Note_on_c, 6, 46, 123
1, 128411, Note_on_c, 6, 53, 123
1, 128428, Note_off_c, 9, 40, 0
1, 128428, Note_off_c, 9, 42, 0
1, 128456, Note_off_c, 7, 65, 0
1, 128459, Note_off_c, 7, 70, 0
1, 128469, Note_off_c, 6, 53, 0
1, 128472, Note_off_c, 7, 74, 0
1, 128475, Note_off_c, 8, 65, 0
1, 128476, Note_off_c, 6, 46, 0
1, 128476, Note_off_c, 8, 70, 0
1, 128503, Note_off_c, 8, 62, 0
1, 128520, Note_on_c, 9, 40, 116
1, 128548, Note_off_c, 9, 40, 0
1, 128611, Note_off_c, 7, 34, 0
1, 128611, Note_off_c, 7, 46, 0
1, 128619, Note_off_c, 1, 34, 0
1, 128627, Note_off_c, 10, 46, 0
1, 128639, Lyric_t, "THROW "
1, 128639, Note_on_c, 3, 77, 115
1, 128640, Note_on_c, 9, 35, 95
1, 128640, Note_on_c, 9, 40, 98
1, 128640, Note_on_c, 9, 43, 106
1, 128695, Pitch_bend_c, 3, 8712
1, 128710, Pitch_bend_c, 3, 9102
1, 128720, Pitch_bend_c, 3, 9362
1, 128731, Pitch_bend_c, 3, 9752
1, 128745, Pitch_bend_c, 3, 10142
1, 128755, Note_off_c, 9, 43, 0
1, 128757, Pitch_bend_c, 3, 10532
1, 128770, Note_off_c, 9, 40, 0
1, 128770, Pitch_bend_c, 3, 10922
1, 128785, Pitch_bend_c, 3, 11442
1, 128788, Note_off_c, 9, 35, 0
1, 128802, Pitch_bend_c, 3, 11832
1, 128819, Pitch_bend_c, 3, 12222
1, 128831, Pitch_bend_c, 3, 12482
1, 128842, Pitch_bend_c, 3, 12612
1, 128861, Pitch_bend_c, 3, 12872
1, 128874, Pitch_bend_c, 3, 13002
1, 128880, Note_on_c, 9, 40, 49
1, 128880, Note_on_c, 9, 43, 49
1, 128886, Pitch_bend_c, 3, 13262
1, 128905, Pitch_bend_c, 3, 13652
1, 128920, Pitch_bend_c, 3, 14042
1, 128935, Pitch_bend_c, 3, 14562
1, 128946, Pitch_bend_c, 3, 14692
1, 128957, Pitch_bend_c, 3, 14952
1, 128963, Note_off_c, 9, 43, 0
1, 128977, Pitch_bend_c, 3, 15082
1, 128993, Note_off_c, 9, 40, 0
1, 129055, Note_off_c, 3, 77, 0
1, 129067, Pitch_bend_c, 3, 14822
1, 129079, Pitch_bend_c, 3, 14172
1, 129091, Pitch_bend_c, 3, 13262
1, 129103, Pitch_bend_c, 3, 12352
1, 129114, Pitch_bend_c, 3, 11442
1, 129120, Note_on_c, 9, 35, 95
1, 129120, Note_on_c, 9, 40, 95
1, 129120, Note_on_c, 9, 43, 106
1, 129124, Pitch_bend_c, 3, 10532
1, 129135, Lyric_t, "YOUR"
1, 129135, Note_on_c, 3, 77, 115
1, 129138, Pitch_bend_c, 3, 9752
1, 129150, Pitch_bend_c, 3, 9362
1, 129208, Pitch_bend_c, 3, 9752
1, 129220, Pitch_bend_c, 3, 10142
1, 129234, Pitch_bend_c, 3, 10662
1, 129244, Pitch_bend_c, 3, 11052
1, 129254, Pitch_bend_c, 3, 11442
1, 129261, Note_off_c, 9, 43, 0
1, 129264, Pitch_bend_c, 3, 11832
1, 129268, Note_off_c, 9, 35, 0
1, 129268, Note_off_c, 9, 40, 0
1, 129276, Pitch_bend_c, 3, 12482
1, 129287, Pitch_bend_c, 3, 13132
1, 129298, Pitch_bend_c, 3, 13522
1, 129311, Pitch_bend_c, 3, 14172
1, 129326, Pitch_bend_c, 3, 14562
1, 129340, Pitch_bend_c, 3, 14822
1, 129355, Pitch_bend_c, 3, 14952
1, 129360, Note_on_c, 9, 40, 49
1, 129360, Note_on_c, 9, 43, 49
1, 129370, Pitch_bend_c, 3, 15212
1, 129395, Pitch_bend_c, 3, 15472
1, 129443, Note_off_c, 9, 43, 0
1, 129447, Pitch_bend_c, 3, 15602
1, 129473, Note_off_c, 9, 40, 0
1, 129491, Pitch_bend_c, 3, 15862
1, 129508, Pitch_bend_c, 3, 15992
1, 129529, Pitch_bend_c, 3, 16252
1, 129600, Note_on_c, 9, 35, 95
1, 129600, Note_on_c, 9, 40, 98
1, 129600, Note_on_c, 9, 43, 102
1, 129602, Pitch_bend_c, 3, 15212
1, 129613, Pitch_bend_c, 3, 13392
1, 129623, Pitch_bend_c, 3, 10792
1, 129633, Pitch_bend_c, 3, 8452
1, 129645, Note_off_c, 3, 77, 0
1, 129650, Pitch_bend_c, 3, 8192
1, 129651, Lyric_t, "SELF "
1, 129651, Note_on_c, 3, 77, 97
1, 129713, Note_off_c, 9, 43, 0
1, 129735, Note_off_c, 9, 40, 0
1, 129737, Note_off_c, 3, 77, 0
1, 129748, Note_off_c, 9, 35, 0
1, 129771, Note_on_c, 3, 75, 97
1, 129840, Note_on_c, 9, 40, 49
1, 129840, Note_on_c, 9, 43, 49
1, 129857, Note_off_c, 3, 75, 0
1, 129871, Lyric_t, "THROUGH"
1, 129871, Lyric_t, "\015"
1, 129871, Note_on_c, 3, 72, 120
1, 129923, Note_off_c, 9, 43, 0
1, 129953, Note_off_c, 9, 40, 0
1, 130080, Note_on_c, 9, 35, 95
1, 130080, Note_on_c, 9, 40, 98
1, 130080, Note_on_c, 9, 43, 106
1, 130228, Note_off_c, 9, 35, 0
1, 130235, Note_off_c, 9, 43, 0
1, 130252, Note_off_c, 9, 40, 0
1, 130320, Note_on_c, 9, 40, 49
1, 130320, Note_on_c, 9, 43, 49
1, 130369, Note_off_c, 3, 72, 0
1, 130403, Note_off_c, 9, 43, 0
1, 130433, Note_off_c, 9, 40, 0
1, 130508, Pitch_bend_c, 3, 7296
1, 130518, Pitch_bend_c, 3, 6016
1, 130528, Pitch_bend_c, 3, 4480
1, 130538, Pitch_bend_c, 3, 2944
1, 130551, Pitch_bend_c, 3, 1536
1, 130560, Note_on_c, 9, 35, 95
1, 130560, Note_on_c, 9, 40, 98
1, 130560, Note_on_c, 9, 43, 106
1, 130563, Pitch_bend_c, 3, 640
1, 130569, Lyric_t, "E"
1, 130569, Note_on_c, 3, 79, 120
1, 130573, Pitch_bend_c, 3, 128
1, 130603, Pitch_bend_c, 3, 384
1, 130613, Pitch_bend_c, 3, 1280
1, 130624, Pitch_bend_c, 3, 2688
1, 130634, Pitch_bend_c, 3, 4096
1, 130644, Pitch_bend_c, 3, 5632
1, 130657, Pitch_bend_c, 3, 7296
1, 130667, Pitch_bend_c, 3, 8192
1, 130675, Note_off_c, 9, 43, 0
1, 130690, Note_off_c, 9, 40, 0
1, 130708, Note_off_c, 9, 35, 0
1, 130732, Note_off_c, 3, 79, 0
1, 130745, Pitch_bend_c, 3, 8064
1, 130755, Pitch_bend_c, 3, 6016
1, 130765, Pitch_bend_c, 3, 3584
1, 130775, Pitch_bend_c, 3, 1280
1, 130785, Pitch_bend_c, 3, 0
1, 130800, Note_on_c, 9, 40, 49
1, 130800, Note_on_c, 9, 43, 49
1, 130808, Lyric_t, "VER "
1, 130808, Note_on_c, 3, 79, 102
1, 130852, Pitch_bend_c, 3, 1152
1, 130862, Pitch_bend_c, 3, 3072
1, 130872, Pitch_bend_c, 3, 5504
1, 130882, Pitch_bend_c, 3, 8192
1, 130883, Note_off_c, 9, 43, 0
1, 130913, Note_off_c, 9, 40, 0
1, 130980, Note_off_c, 3, 79, 0
1, 131033, Lyric_t, "O"
1, 131033, Note_on_c, 3, 77, 106
1, 131040, Note_on_c, 9, 35, 95
1, 131040, Note_on_c, 9, 40, 95
1, 131040, Note_on_c, 9, 43, 106
1, 131181, Note_off_c, 9, 43, 0
1, 131188, Note_off_c, 9, 35, 0
1, 131188, Note_off_c, 9, 40, 0
1, 131256, Lyric_t, "PEN "
1, 131256, Note_on_c, 3, 75, 123
1, 131272, Note_off_c, 3, 77, 0
1, 131280, Note_on_c, 9, 40, 49
1, 131280, Note_on_c, 9, 43, 49
1, 131363, Note_off_c, 9, 43, 0
1, 131393, Note_off_c, 9, 40, 0
1, 131486, Note_off_c, 3, 75, 0
1, 131492, Lyric_t, "DOOR"
1, 131492, Lyric_t, "\015"
1, 131492, Note_on_c, 3, 72, 125
1, 131520, Note_on_c, 9, 35, 95
1, 131520, Note_on_c, 9, 40, 98
1, 131520, Note_on_c, 9, 43, 102
1, 131633, Note_off_c, 9, 43, 0
1, 131655, Note_off_c, 9, 40, 0
1, 131668, Note_off_c, 9, 35, 0
1, 131760, Note_on_c, 4, 55, 102
1, 131760, Note_on_c, 9, 40, 49
1, 131760, Note_on_c, 9, 43, 49
1, 131843, Note_off_c, 9, 43, 0
1, 131873, Note_off_c, 9, 40, 0
1, 131895, Note_off_c, 3, 72, 0
1, 131975, Note_off_c, 4, 55, 0
1, 132000, Note_on_c, 4, 58, 116
1, 132000, Note_on_c, 9, 35, 95
1, 132000, Note_on_c, 9, 40, 98
1, 132000, Note_on_c, 9, 43, 106
1, 132120, Note_on_c, 4, 60, 115
1, 132121, Note_off_c, 4, 58, 0
1, 132148, Note_off_c, 9, 35, 0
1, 132155, Note_off_c, 9, 43, 0
1, 132172, Note_off_c, 9, 40, 0
1, 132240, Note_on_c, 9, 40, 49
1, 132240, Note_on_c, 9, 43, 49
1, 132323, Note_off_c, 9, 43, 0
1, 132353, Note_off_c, 9, 40, 0
1, 132360, Note_off_c, 4, 60, 0
1, 132480, Note_on_c, 4, 58, 101
1, 132480, Note_on_c, 4, 63, 116
1, 132480, Note_on_c, 9, 35, 95
1, 132480, Note_on_c, 9, 40, 98
1, 132480, Note_on_c, 9, 43, 106
1, 132497, Lyric_t, "COUNT "
1, 132497, Note_on_c, 3, 77, 110
1, 132591, Pitch_bend_c, 3, 8842
1, 132595, Note_off_c, 9, 43, 0
1, 132602, Pitch_bend_c, 3, 9232
1, 132610, Note_off_c, 9, 40, 0
1, 132618, Pitch_bend_c, 3, 9622
1, 132628, Note_off_c, 9, 35, 0
1, 132631, Pitch_bend_c, 3, 10012
1, 132641, Pitch_bend_c, 3, 10532
1, 132656, Pitch_bend_c, 3, 10922
1, 132671, Pitch_bend_c, 3, 11312
1, 132683, Pitch_bend_c, 3, 11572
1, 132698, Pitch_bend_c, 3, 11702
1, 132708, Pitch_bend_c, 3, 11962
1, 132720, Note_on_c, 9, 40, 49
1, 132720, Note_on_c, 9, 43, 49
1, 132723, Pitch_bend_c, 3, 12352
1, 132733, Pitch_bend_c, 3, 12742
1, 132744, Pitch_bend_c, 3, 13132
1, 132757, Pitch_bend_c, 3, 13912
1, 132769, Pitch_bend_c, 3, 14562
1, 132782, Pitch_bend_c, 3, 15212
1, 132792, Pitch_bend_c, 3, 15602
1, 132803, Note_off_c, 9, 43, 0
1, 132804, Pitch_bend_c, 3, 16122
1, 132833, Note_off_c, 9, 40, 0
1, 132834, Pitch_bend_c, 3, 14432
1, 132846, Pitch_bend_c, 3, 9882
1, 132855, Note_off_c, 3, 77, 0
1, 132856, Pitch_bend_c, 3, 8452
1, 132875, Lyric_t, "YOUR "
1, 132875, Note_on_c, 3, 82, 111
1, 132960, Note_on_c, 9, 35, 95
1, 132960, Note_on_c, 9, 40, 95
1, 132960, Note_on_c, 9, 43, 106
1, 133101, Note_off_c, 9, 43, 0
1, 133108, Note_off_c, 9, 35, 0
1, 133108, Note_off_c, 9, 40, 0
1, 133148, Note_off_c, 3, 82, 0
1, 133167, Note_off_c, 4, 63, 0
1, 133185, Note_off_c, 4, 58, 0
1, 133200, Note_on_c, 9, 40, 49
1, 133200, Note_on_c, 9, 43, 49
1, 133223, Lyric_t, "BLES"
1, 133223, Note_on_c, 3, 79, 106
1, 133283, Note_off_c, 9, 43, 0
1, 133313, Note_off_c, 9, 40, 0
1, 133426, Note_off_c, 3, 79, 0
1, 133440, Note_on_c, 9, 35, 95
1, 133440, Note_on_c, 9, 40, 98
1, 133440, Note_on_c, 9, 43, 102
1, 133460, Note_on_c, 3, 77, 110
1, 133553, Note_off_c, 9, 43, 0
1, 133575, Note_off_c, 9, 40, 0
1, 133588, Note_off_c, 9, 35, 0
1, 133646, Note_off_c, 3, 77, 0
1, 133680, Note_on_c, 9, 40, 49
1, 133680, Note_on_c, 9, 43, 49
1, 133692, Note_on_c, 3, 75, 111
1, 133763, Note_off_c, 9, 43, 0
1, 133793, Note_off_c, 9, 40, 0
1, 133885, Note_off_c, 3, 75, 0
1, 133920, Note_on_c, 9, 35, 95
1, 133920, Note_on_c, 9, 40, 98
1, 133920, Note_on_c, 9, 43, 106
1, 133921, Lyric_t, "SINGS"
1, 133921, Lyric_t, "\015"
1, 133921, Note_on_c, 3, 72, 110
1, 134044, Note_off_c, 3, 72, 0
1, 134068, Note_off_c, 9, 35, 0
1, 134075, Note_off_c, 9, 43, 0
1, 134092, Note_off_c, 9, 40, 0
1, 134160, Note_on_c, 9, 40, 49
1, 134160, Note_on_c, 9, 43, 49
1, 134175, Lyric_t, "TO "
1, 134175, Note_on_c, 3, 72, 125
1, 134243, Note_off_c, 9, 43, 0
1, 134273, Note_off_c, 9, 40, 0
1, 134327, Note_off_c, 3, 72, 0
1, 134396, Lyric_t, "FIND "
1, 134396, Note_on_c, 3, 75, 123
1, 134400, Note_on_c, 9, 35, 95
1, 134400, Note_on_c, 9, 40, 98
1, 134400, Note_on_c, 9, 43, 106
1, 134455, Note_off_c, 3, 75, 0
1, 134515, Note_off_c, 9, 43, 0
1, 134523, Lyric_t, "WHAT "
1, 134523, Note_on_c, 3, 75, 101
1, 134530, Note_off_c, 9, 40, 0
1, 134548, Note_off_c, 9, 35, 0
1, 134631, Note_off_c, 3, 75, 0
1, 134640, Note_on_c, 9, 40, 49
1, 134640, Note_on_c, 9, 43, 49
1, 134645, Note_on_c, 5, 70, 123
1, 134660, Pitch_bend_c, 5, 8972
1, 134670, Pitch_bend_c, 5, 9752
1, 134682, Pitch_bend_c, 5, 10532
1, 134693, Pitch_bend_c, 5, 11442
1, 134705, Pitch_bend_c, 5, 12352
1, 134715, Pitch_bend_c, 5, 13392
1, 134723, Note_off_c, 9, 43, 0
1, 134727, Pitch_bend_c, 5, 14432
1, 134739, Pitch_bend_c, 5, 15602
1, 134750, Pitch_bend_c, 5, 16383
1, 134753, Note_off_c, 9, 40, 0
1, 134753, Note_on_c, 3, 75, 111
1, 134832, Note_off_c, 3, 75, 0
1, 134879, Lyric_t, "LOOK "
1, 134879, Note_on_c, 3, 77, 106
1, 134880, Note_on_c, 9, 35, 95
1, 134880, Note_on_c, 9, 40, 95
1, 134880, Note_on_c, 9, 43, 106
1, 135017, Note_off_c, 3, 77, 0
1, 135021, Note_off_c, 9, 43, 0
1, 135028, Note_off_c, 9, 35, 0
1, 135028, Note_off_c, 9, 40, 0
1, 135120, Note_on_c, 9, 40, 49
1, 135120, Note_on_c, 9, 43, 49
1, 135126, Note_on_c, 3, 79, 115
1, 135188, Note_off_c, 3, 79, 0
1, 135203, Note_off_c, 9, 43, 0
1, 135233, Note_off_c, 9, 40, 0
1, 135360, Note_on_c, 7, 58, 123
1, 135360, Note_on_c, 9, 35, 95
1, 135360, Note_on_c, 9, 40, 98
1, 135360, Note_on_c, 9, 43, 102
1, 135380, Lyric_t, "FOR"
1, 135380, Lyric_t, "\015"
1, 135380, Note_on_c, 3, 79, 127
1, 135425, Note_off_c, 7, 58, 0
1, 135473, Note_off_c, 9, 43, 0
1, 135495, Note_off_c, 9, 40, 0
1, 135508, Note_off_c, 9, 35, 0
1, 135519, Note_off_c, 5, 70, 0
1, 135600, Note_on_c, 5, 70, 123
1, 135600, Note_on_c, 7, 60, 115
1, 135600, Note_on_c, 9, 40, 49
1, 135600, Note_on_c, 9, 43, 49
1, 135683, Note_off_c, 9, 43, 0
1, 135709, Note_off_c, 3, 79, 0
1, 135713, Note_off_c, 9, 40, 0
1, 135770, Note_off_c, 5, 70, 0
1, 135819, Pitch_bend_c, 5, 14822
1, 135829, Pitch_bend_c, 5, 8192
1, 135840, Note_on_c, 5, 65, 80
1, 135840, Note_on_c, 5, 70, 127
1, 135840, Note_on_c, 7, 58, 123
1, 135840, Note_on_c, 9, 35, 95
1, 135840, Note_on_c, 9, 40, 98
1, 135840, Note_on_c, 9, 43, 106
1, 135860, Note_off_c, 7, 60, 0
1, 135988, Note_off_c, 9, 35, 0
1, 135989, Note_off_c, 5, 65, 0
1, 135995, Note_off_c, 9, 43, 0
1, 136012, Note_off_c, 9, 40, 0
1, 136032, Note_off_c, 5, 70, 0
1, 136080, Note_on_c, 5, 60, 106
1, 136080, Note_on_c, 5, 65, 98
1, 136080, Note_on_c, 7, 60, 106
1, 136080, Note_on_c, 9, 40, 49
1, 136080, Note_on_c, 9, 43, 49
1, 136080, Note_on_c, 9, 46, 106
1, 136137, Note_off_c, 5, 60, 0
1, 136163, Note_off_c, 9, 43, 0
1, 136193, Note_off_c, 9, 40, 0
1, 136235, Note_off_c, 9, 46, 0
1, 136255, Note_off_c, 5, 65, 0
1, 136293, Note_off_c, 7, 58, 0
1, 136319, Lyric_t, "TURN "
1, 136319, Note_on_c, 3, 77, 115
1, 136320, Note_on_c, 1, 36, 61
1, 136320, Note_on_c, 7, 36, 127
1, 136320, Note_on_c, 7, 48, 127
1, 136320, Note_on_c, 8, 48, 98
1, 136320, Note_on_c, 9, 35, 95
1, 136320, Note_on_c, 9, 40, 98
1, 136320, Note_on_c, 9, 43, 106
1, 136320, Note_on_c, 9, 44, 106
1, 136320, Note_on_c, 10, 48, 58
1, 136325, Note_off_c, 7, 60, 0
1, 136331, Note_on_c, 8, 55, 100
1, 136331, Note_on_c, 10, 55, 60
1, 136362, Note_off_c, 8, 48, 0
1, 136362, Note_off_c, 10, 48, 0
1, 136375, Pitch_bend_c, 3, 8712
1, 136378, Note_off_c, 8, 55, 0
1, 136378, Note_off_c, 10, 55, 0
1, 136390, Pitch_bend_c, 3, 9102
1, 136400, Pitch_bend_c, 3, 9362
1, 136411, Pitch_bend_c, 3, 9752
1, 136425, Pitch_bend_c, 3, 10142
1, 136435, Note_off_c, 9, 43, 0
1, 136437, Pitch_bend_c, 3, 10532
1, 136450, Note_off_c, 9, 40, 0
1, 136450, Pitch_bend_c, 3, 10922
1, 136465, Pitch_bend_c, 3, 11442
1, 136468, Note_off_c, 9, 35, 0
1, 136475, Note_off_c, 9, 44, 0
1, 136482, Pitch_bend_c, 3, 11832
1, 136499, Pitch_bend_c, 3, 12222
1, 136511, Pitch_bend_c, 3, 12482
1, 136522, Pitch_bend_c, 3, 12612
1, 136541, Pitch_bend_c, 3, 12872
1, 136554, Note_off_c, 1, 36, 0
1, 136554, Pitch_bend_c, 3, 13002
1, 136560, Note_on_c, 1, 48, 78
1, 136560, Note_on_c, 8, 48, 115
1, 136560, Note_on_c, 9, 40, 49
1, 136560, Note_on_c, 9, 43, 49
1, 136560, Note_on_c, 10, 48, 75
1, 136566, Pitch_bend_c, 3, 13262
1, 136571, Note_on_c, 8, 55, 100
1, 136571, Note_on_c, 10, 55, 60
1, 136585, Pitch_bend_c, 3, 13652
1, 136600, Pitch_bend_c, 3, 14042
1, 136605, Note_off_c, 8, 48, 0
1, 136605, Note_off_c, 10, 48, 0
1, 136610, Note_off_c, 8, 55, 0
1, 136610, Note_off_c, 10, 55, 0
1, 136615, Pitch_bend_c, 3, 14562
1, 136626, Pitch_bend_c, 3, 14692
1, 136637, Pitch_bend_c, 3, 14952
1, 136643, Note_off_c, 9, 43, 0
1, 136657, Pitch_bend_c, 3, 15082
1, 136673, Note_off_c, 9, 40, 0
1, 136735, Note_off_c, 3, 77, 0
1, 136747, Pitch_bend_c, 3, 14822
1, 136759, Pitch_bend_c, 3, 14172
1, 136771, Pitch_bend_c, 3, 13262
1, 136783, Pitch_bend_c, 3, 12352
1, 136794, Note_off_c, 1, 48, 0
1, 136794, Pitch_bend_c, 3, 11442
1, 136800, Note_on_c, 1, 36, 61
1, 136800, Note_on_c, 8, 48, 83
1, 136800, Note_on_c, 9, 35, 95
1, 136800, Note_on_c, 9, 40, 95
1, 136800, Note_on_c, 9, 43, 106
1, 136800, Note_on_c, 10, 48, 43
1, 136804, Pitch_bend_c, 3, 10532
1, 136811, Note_on_c, 8, 55, 87
1, 136811, Note_on_c, 10, 55, 47
1, 136815, Lyric_t, "MY "
1, 136815, Note_on_c, 3, 77, 115
1, 136818, Pitch_bend_c, 3, 9752
1, 136827, Note_off_c, 7, 36, 0
1, 136827, Note_off_c, 7, 48, 0
1, 136830, Pitch_bend_c, 3, 9362
1, 136833, Note_off_c, 8, 48, 0
1, 136833, Note_off_c, 10, 48, 0
1, 136845, Note_off_c, 8, 55, 0
1, 136845, Note_off_c, 10, 55, 0
1, 136888, Pitch_bend_c, 3, 9752
1, 136900, Pitch_bend_c, 3, 10142
1, 136914, Pitch_bend_c, 3, 10662
1, 136924, Pitch_bend_c, 3, 11052
1, 136934, Pitch_bend_c, 3, 11442
1, 136941, Note_off_c, 9, 43, 0
1, 136944, Pitch_bend_c, 3, 11832
1, 136948, Note_off_c, 9, 35, 0
1, 136948, Note_off_c, 9, 40, 0
1, 136956, Pitch_bend_c, 3, 12482
1, 136967, Pitch_bend_c, 3, 13132
1, 136978, Pitch_bend_c, 3, 13522
1, 136991, Pitch_bend_c, 3, 14172
1, 137006, Pitch_bend_c, 3, 14562
1, 137020, Pitch_bend_c, 3, 14822
1, 137034, Note_off_c, 1, 36, 0
1, 137035, Pitch_bend_c, 3, 14952
1, 137040, Note_on_c, 1, 48, 78
1, 137040, Note_on_c, 8, 48, 102
1, 137040, Note_on_c, 9, 40, 49
1, 137040, Note_on_c, 9, 43, 49
1, 137040, Note_on_c, 10, 48, 62
1, 137050, Pitch_bend_c, 3, 15212
1, 137051, Note_on_c, 8, 55, 87
1, 137051, Note_on_c, 10, 55, 47
1, 137075, Pitch_bend_c, 3, 15472
1, 137080, Note_off_c, 8, 48, 0
1, 137080, Note_off_c, 10, 48, 0
1, 137092, Note_off_c, 8, 55, 0
1, 137092, Note_off_c, 10, 55, 0
1, 137123, Note_off_c, 9, 43, 0
1, 137127, Pitch_bend_c, 3, 15602
1, 137153, Note_off_c, 9, 40, 0
1, 137171, Pitch_bend_c, 3, 15862
1, 137188, Pitch_bend_c, 3, 15992
1, 137209, Pitch_bend_c, 3, 16252
1, 137274, Note_off_c, 1, 48, 0
1, 137280, Note_on_c, 1, 36, 61
1, 137280, Note_on_c, 8, 48, 87
1, 137280, Note_on_c, 9, 35, 95
1, 137280, Note_on_c, 9, 40, 98
1, 137280, Note_on_c, 9, 43, 102
1, 137280, Note_on_c, 10, 48, 47
1, 137282, Pitch_bend_c, 3, 15212
1, 137291, Note_on_c, 8, 55, 75
1, 137291, Note_on_c, 10, 55, 35
1, 137293, Pitch_bend_c, 3, 13392
1, 137303, Pitch_bend_c, 3, 10792
1, 137313, Pitch_bend_c, 3, 8452
1, 137318, Note_off_c, 8, 48, 0
1, 137318, Note_off_c, 10, 48, 0
1, 137325, Note_off_c, 3, 77, 0
1, 137329, Note_off_c, 8, 55, 0
1, 137329, Note_off_c, 10, 55, 0
1, 137330, Pitch_bend_c, 3, 8192
1, 137331, Lyric_t, "SOR"
1, 137331, Note_on_c, 3, 77, 97
1, 137393, Note_off_c, 9, 43, 0
1, 137415, Note_off_c, 9, 40, 0
1, 137417, Note_off_c, 3, 77, 0
1, 137428, Note_off_c, 9, 35, 0
1, 137451, Note_on_c, 3, 75, 97
1, 137514, Note_off_c, 1, 36, 0
1, 137520, Note_on_c, 1, 48, 78
1, 137520, Note_on_c, 8, 48, 110
1, 137520, Note_on_c, 9, 40, 49
1, 137520, Note_on_c, 9, 43, 49
1, 137520, Note_on_c, 10, 48, 70
1, 137531, Note_on_c, 8, 55, 87
1, 137531, Note_on_c, 10, 55, 47
1, 137537, Note_off_c, 3, 75, 0
1, 137551, Lyric_t, "ROW"
1, 137551, Lyric_t, "\015"
1, 137551, Note_on_c, 3, 72, 120
1, 137565, Note_off_c, 8, 48, 0
1, 137565, Note_off_c, 10, 48, 0
1, 137574, Note_off_c, 8, 55, 0
1, 137574, Note_off_c, 10, 55, 0
1, 137603, Note_off_c, 9, 43, 0
1, 137633, Note_off_c, 9, 40, 0
1, 137754, Note_off_c, 1, 48, 0
1, 137760, Note_on_c, 1, 36, 61
1, 137760, Note_on_c, 8, 48, 115
1, 137760, Note_on_c, 9, 35, 95
1, 137760, Note_on_c, 9, 40, 98
1, 137760, Note_on_c, 9, 43, 106
1, 137760, Note_on_c, 10, 48, 75
1, 137771, Note_on_c, 8, 55, 95
1, 137771, Note_on_c, 10, 55, 55
1, 137805, Note_off_c, 8, 48, 0
1, 137805, Note_off_c, 10, 48, 0
1, 137810, Note_off_c, 8, 55, 0
1, 137810, Note_off_c, 10, 55, 0
1, 137908, Note_off_c, 9, 35, 0
1, 137915, Note_off_c, 9, 43, 0
1, 137932, Note_off_c, 9, 40, 0
1, 137994, Note_off_c, 1, 36, 0
1, 138000, Note_on_c, 1, 48, 78
1, 138000, Note_on_c, 8, 48, 115
1, 138000, Note_on_c, 9, 40, 49
1, 138000, Note_on_c, 9, 43, 49
1, 138000, Note_on_c, 10, 48, 75
1, 138011, Note_on_c, 8, 55, 87
1, 138011, Note_on_c, 10, 55, 47
1, 138046, Note_off_c, 8, 48, 0
1, 138046, Note_off_c, 10, 48, 0
1, 138049, Note_off_c, 3, 72, 0
1, 138049, Note_off_c, 8, 55, 0
1, 138049, Note_off_c, 10, 55, 0
1, 138083, Note_off_c, 9, 43, 0
1, 138113, Note_off_c, 9, 40, 0
1, 138186, Pitch_bend_c, 3, 7296
1, 138196, Pitch_bend_c, 3, 6016
1, 138206, Pitch_bend_c, 3, 4480
1, 138216, Pitch_bend_c, 3, 2944
1, 138229, Pitch_bend_c, 3, 1536
1, 138234, Note_off_c, 1, 48, 0
1, 138240, Note_on_c, 1, 36, 61
1, 138240, Note_on_c, 8, 48, 102
1, 138240, Note_on_c, 9, 35, 95
1, 138240, Note_on_c, 9, 40, 98
1, 138240, Note_on_c, 9, 43, 106
1, 138240, Note_on_c, 10, 48, 62
1, 138241, Pitch_bend_c, 3, 640
1, 138247, Lyric_t, "IN"
1, 138247, Note_on_c, 3, 79, 120
1, 138251, Note_on_c, 8, 55, 80
1, 138251, Note_on_c, 10, 55, 40
1, 138251, Pitch_bend_c, 3, 128
1, 138281, Pitch_bend_c, 3, 384
1, 138284, Note_off_c, 8, 55, 0
1, 138284, Note_off_c, 10, 55, 0
1, 138285, Note_off_c, 8, 48, 0
1, 138285, Note_off_c, 10, 48, 0
1, 138291, Pitch_bend_c, 3, 1280
1, 138302, Pitch_bend_c, 3, 2688
1, 138312, Pitch_bend_c, 3, 4096
1, 138322, Pitch_bend_c, 3, 5632
1, 138335, Pitch_bend_c, 3, 7296
1, 138345, Pitch_bend_c, 3, 8192
1, 138355, Note_off_c, 9, 43, 0
1, 138370, Note_off_c, 9, 40, 0
1, 138388, Note_off_c, 9, 35, 0
1, 138410, Note_off_c, 3, 79, 0
1, 138423, Pitch_bend_c, 3, 8064
1, 138433, Pitch_bend_c, 3, 6016
1, 138443, Pitch_bend_c, 3, 3584
1, 138453, Pitch_bend_c, 3, 1280
1, 138463, Pitch_bend_c, 3, 0
1, 138474, Note_off_c, 1, 36, 0
1, 138480, Note_on_c, 1, 48, 78
1, 138480, Note_on_c, 7, 57, 110
1, 138480, Note_on_c, 7, 60, 120
1, 138480, Note_on_c, 7, 65, 115
1, 138480, Note_on_c, 8, 43, 110
1, 138480, Note_on_c, 9, 40, 49
1, 138480, Note_on_c, 9, 43, 49
1, 138480, Note_on_c, 10, 43, 70
1, 138486, Lyric_t, "TO "
1, 138486, Note_on_c, 3, 79, 102
1, 138491, Note_on_c, 8, 50, 91
1, 138491, Note_on_c, 10, 50, 51
1, 138527, Note_off_c, 8, 43, 0
1, 138527, Note_off_c, 10, 43, 0
1, 138530, Pitch_bend_c, 3, 1152
1, 138535, Note_off_c, 8, 50, 0
1, 138535, Note_off_c, 10, 50, 0
1, 138540, Pitch_bend_c, 3, 3072
1, 138550, Pitch_bend_c, 3, 5504
1, 138560, Pitch_bend_c, 3, 8192
1, 138563, Note_off_c, 9, 43, 0
1, 138593, Note_off_c, 9, 40, 0
1, 138658, Note_off_c, 3, 79, 0
1, 138711, Lyric_t, "TREA"
1, 138711, Note_on_c, 3, 77, 106
1, 138714, Note_off_c, 1, 48, 0
1, 138720, Note_on_c, 1, 36, 61
1, 138720, Note_on_c, 8, 43, 110
1, 138720, Note_on_c, 9, 35, 95
1, 138720, Note_on_c, 9, 40, 95
1, 138720, Note_on_c, 9, 43, 106
1, 138720, Note_on_c, 10, 43, 70
1, 138731, Note_on_c, 8, 50, 91
1, 138731, Note_on_c, 10, 50, 51
1, 138762, Note_off_c, 7, 65, 0
1, 138764, Note_off_c, 8, 43, 0
1, 138764, Note_off_c, 10, 43, 0
1, 138767, Note_off_c, 8, 50, 0
1, 138767, Note_off_c, 10, 50, 0
1, 138796, Note_off_c, 7, 57, 0
1, 138804, Note_off_c, 7, 60, 0
1, 138861, Note_off_c, 9, 43, 0
1, 138868, Note_off_c, 9, 35, 0
1, 138868, Note_off_c, 9, 40, 0
1, 138934, Lyric_t, "SURED "
1, 138934, Note_on_c, 3, 75, 123
1, 138950, Note_off_c, 3, 77, 0
1, 138954, Note_off_c, 1, 36, 0
1, 138960, Note_on_c, 1, 48, 78
1, 138960, Note_on_c, 7, 55, 98
1, 138960, Note_on_c, 7, 58, 93
1, 138960, Note_on_c, 7, 63, 101
1, 138960, Note_on_c, 8, 43, 115
1, 138960, Note_on_c, 9, 40, 49
1, 138960, Note_on_c, 9, 43, 49
1, 138960, Note_on_c, 10, 43, 75
1, 138971, Note_on_c, 8, 50, 87
1, 138971, Note_on_c, 10, 50, 47
1, 139011, Note_off_c, 8, 43, 0
1, 139011, Note_off_c, 10, 43, 0
1, 139015, Note_off_c, 8, 50, 0
1, 139015, Note_off_c, 10, 50, 0
1, 139043, Note_off_c, 9, 43, 0
1, 139073, Note_off_c, 9, 40, 0
1, 139194, Note_off_c, 1, 48, 0
1, 139194, Note_off_c, 3, 75, 0
1, 139200, Lyric_t, "GOLD"
1, 139200, Lyric_t, "\015"
1, 139200, Note_on_c, 1, 36, 61
1, 139200, Note_on_c, 3, 72, 125
1, 139200, Note_on_c, 8, 43, 102
1, 139200, Note_on_c, 9, 35, 95
1, 139200, Note_on_c, 9, 40, 98
1, 139200, Note_on_c, 9, 43, 102
1, 139200, Note_on_c, 10, 43, 62
1, 139211, Note_on_c, 8, 50, 91
1, 139211, Note_on_c, 10, 50, 51
1, 139252, Note_off_c, 8, 43, 0
1, 139252, Note_off_c, 10, 43, 0
1, 139259, Note_off_c, 8, 50, 0
1, 139259, Note_off_c, 10, 50, 0
1, 139293, Note_off_c, 7, 58, 0
1, 139313, Note_off_c, 7, 63, 0
1, 139313, Note_off_c, 9, 43, 0
1, 139335, Note_off_c, 9, 40, 0
1, 139336, Note_off_c, 7, 55, 0
1, 139348, Note_off_c, 9, 35, 0
1, 139434, Note_off_c, 1, 36, 0
1, 139440, Note_on_c, 1, 48, 78
1, 139440, Note_on_c, 5, 55, 98
1, 139440, Note_on_c, 8, 43, 110
1, 139440, Note_on_c, 9, 40, 49
1, 139440, Note_on_c, 9, 43, 49
1, 139440, Note_on_c, 10, 43, 70
1, 139451, Note_on_c, 8, 50, 91
1, 139451, Note_on_c, 10, 50, 51
1, 139485, Note_off_c, 8, 43, 0
1, 139485, Note_off_c, 10, 43, 0
1, 139501, Note_off_c, 8, 50, 0
1, 139501, Note_off_c, 10, 50, 0
1, 139523, Note_off_c, 9, 43, 0
1, 139549, Note_off_c, 5, 55, 0
1, 139553, Note_off_c, 9, 40, 0
1, 139554, Note_off_c, 1, 48, 0
1, 139560, Note_on_c, 1, 41, 78
1, 139560, Note_on_c, 5, 58, 123
1, 139603, Note_off_c, 3, 72, 0
1, 139661, Note_off_c, 5, 58, 0
1, 139674, Note_off_c, 1, 41, 0
1, 139680, Note_on_c, 1, 34, 61
1, 139680, Note_on_c, 5, 60, 120
1, 139680, Note_on_c, 8, 43, 115
1, 139680, Note_on_c, 9, 35, 95
1, 139680, Note_on_c, 9, 40, 98
1, 139680, Note_on_c, 9, 43, 106
1, 139680, Note_on_c, 10, 43, 75
1, 139691, Note_on_c, 8, 50, 83
1, 139691, Note_on_c, 10, 50, 43
1, 139724, Note_off_c, 8, 43, 0
1, 139724, Note_off_c, 10, 43, 0
1, 139737, Note_off_c, 8, 50, 0
1, 139737, Note_off_c, 10, 50, 0
1, 139754, Note_off_c, 5, 60, 0
1, 139800, Note_on_c, 5, 63, 127
1, 139828, Note_off_c, 9, 35, 0
1, 139835, Note_off_c, 9, 43, 0
1, 139852, Note_off_c, 9, 40, 0
1, 139865, Note_off_c, 5, 63, 0
1, 139914, Note_off_c, 1, 34, 0
1, 139920, Note_on_c, 1, 34, 78
1, 139920, Note_on_c, 8, 43, 120
1, 139920, Note_on_c, 9, 40, 49
1, 139920, Note_on_c, 9, 43, 49
1, 139920, Note_on_c, 10, 43, 80
1, 139931, Note_on_c, 8, 50, 105
1, 139931, Note_on_c, 10, 50, 65
1, 139967, Note_off_c, 8, 43, 0
1, 139967, Note_off_c, 10, 43, 0
1, 139985, Note_off_c, 8, 50, 0
1, 139985, Note_off_c, 10, 50, 0
1, 140003, Note_off_c, 9, 43, 0
1, 140033, Note_off_c, 9, 40, 0
1, 140040, Note_on_c, 5, 63, 127
1, 140154, Note_off_c, 1, 34, 0
1, 140160, Note_on_c, 1, 36, 61
1, 140160, Note_on_c, 8, 43, 120
1, 140160, Note_on_c, 9, 35, 95
1, 140160, Note_on_c, 9, 40, 98
1, 140160, Note_on_c, 9, 43, 106
1, 140160, Note_on_c, 10, 43, 80
1, 140170, Note_off_c, 5, 63, 0
1, 140171, Note_on_c, 8, 50, 105
1, 140171, Note_on_c, 10, 50, 65
1, 140177, Lyric_t, "AND "
1, 140177, Note_on_c, 3, 77, 110
1, 140207, Note_off_c, 8, 43, 0
1, 140207, Note_off_c, 10, 43, 0
1, 140225, Note_off_c, 8, 50, 0
1, 140225, Note_off_c, 10, 50, 0
1, 140271, Pitch_bend_c, 3, 8842
1, 140275, Note_off_c, 9, 43, 0
1, 140282, Pitch_bend_c, 3, 9232
1, 140290, Note_off_c, 9, 40, 0
1, 140298, Pitch_bend_c, 3, 9622
1, 140308, Note_off_c, 9, 35, 0
1, 140311, Pitch_bend_c, 3, 10012
1, 140321, Pitch_bend_c, 3, 10532
1, 140336, Pitch_bend_c, 3, 10922
1, 140351, Pitch_bend_c, 3, 11312
1, 140363, Pitch_bend_c, 3, 11572
1, 140378, Pitch_bend_c, 3, 11702
1, 140388, Pitch_bend_c, 3, 11962
1, 140394, Note_off_c, 1, 36, 0
1, 140400, Note_on_c, 1, 48, 78
1, 140400, Note_on_c, 5, 60, 127
1, 140400, Note_on_c, 8, 46, 110
1, 140400, Note_on_c, 9, 40, 49
1, 140400, Note_on_c, 9, 43, 49
1, 140400, Note_on_c, 10, 46, 70
1, 140403, Pitch_bend_c, 3, 12352
1, 140411, Note_on_c, 8, 53, 91
1, 140411, Note_on_c, 10, 53, 51
1, 140413, Pitch_bend_c, 3, 12742
1, 140424, Pitch_bend_c, 3, 13132
1, 140437, Pitch_bend_c, 3, 13912
1, 140447, Note_off_c, 8, 46, 0
1, 140447, Note_off_c, 10, 46, 0
1, 140449, Pitch_bend_c, 3, 14562
1, 140455, Note_off_c, 8, 53, 0
1, 140455, Note_off_c, 10, 53, 0
1, 140462, Pitch_bend_c, 3, 15212
1, 140472, Pitch_bend_c, 3, 15602
1, 140483, Note_off_c, 9, 43, 0
1, 140484, Pitch_bend_c, 3, 16122
1, 140513, Note_off_c, 9, 40, 0
1, 140514, Pitch_bend_c, 3, 14432
1, 140526, Pitch_bend_c, 3, 9882
1, 140535, Note_off_c, 3, 77, 0
1, 140536, Pitch_bend_c, 3, 8452
1, 140555, Lyric_t, "PAY "
1, 140555, Note_on_c, 3, 82, 111
1, 140634, Note_off_c, 1, 48, 0
1, 140640, Note_on_c, 1, 36, 61
1, 140640, Note_on_c, 8, 46, 110
1, 140640, Note_on_c, 9, 35, 95
1, 140640, Note_on_c, 9, 40, 95
1, 140640, Note_on_c, 9, 43, 106
1, 140640, Note_on_c, 10, 46, 70
1, 140651, Note_on_c, 8, 53, 91
1, 140651, Note_on_c, 10, 53, 51
1, 140684, Note_off_c, 8, 46, 0
1, 140684, Note_off_c, 10, 46, 0
1, 140687, Note_off_c, 8, 53, 0
1, 140687, Note_off_c, 10, 53, 0
1, 140781, Note_off_c, 9, 43, 0
1, 140788, Note_off_c, 9, 35, 0
1, 140788, Note_off_c, 9, 40, 0
1, 140828, Note_off_c, 3, 82, 0
1, 140846, Note_off_c, 5, 60, 0
1, 140874, Note_off_c, 1, 36, 0
1, 140880, Note_on_c, 1, 48, 78
1, 140880, Note_on_c, 8, 46, 115
1, 140880, Note_on_c, 9, 40, 49
1, 140880, Note_on_c, 9, 43, 49
1, 140880, Note_on_c, 10, 46, 75
1, 140891, Note_on_c, 8, 53, 87
1, 140891, Note_on_c, 10, 53, 47
1, 140903, Lyric_t, "ME "
1, 140903, Note_on_c, 3, 79, 106
1, 140931, Note_off_c, 8, 46, 0
1, 140931, Note_off_c, 10, 46, 0
1, 140935, Note_off_c, 8, 53, 0
1, 140935, Note_off_c, 10, 53, 0
1, 140963, Note_off_c, 9, 43, 0
1, 140993, Note_off_c, 9, 40, 0
1, 141106, Note_off_c, 3, 79, 0
1, 141114, Note_off_c, 1, 48, 0
1, 141120, Note_on_c, 1, 36, 61
1, 141120, Note_on_c, 8, 46, 102
1, 141120, Note_on_c, 9, 35, 95
1, 141120, Note_on_c, 9, 40, 98
1, 141120, Note_on_c, 9, 43, 102
1, 141120, Note_on_c, 10, 46, 62
1, 141130, Note_on_c, 5, 58, 127
1, 141131, Note_on_c, 8, 53, 91
1, 141131, Note_on_c, 10, 53, 51
1, 141140, Lyric_t, "BACK "
1, 141140, Note_on_c, 3, 77, 110
1, 141172, Note_off_c, 8, 46, 0
1, 141172, Note_off_c, 10, 46, 0
1, 141179, Note_off_c, 8, 53, 0
1, 141179, Note_off_c, 10, 53, 0
1, 141200, Note_off_c, 5, 58, 0
1, 141233, Note_off_c, 9, 43, 0
1, 141234, Note_on_c, 5, 60, 120
1, 141255, Note_off_c, 9, 40, 0
1, 141268, Note_off_c, 9, 35, 0
1, 141326, Note_off_c, 3, 77, 0
1, 141326, Note_off_c, 5, 60, 0
1, 141354, Note_off_c, 1, 36, 0
1, 141360, Note_on_c, 1, 48, 78
1, 141360, Note_on_c, 5, 63, 127
1, 141360, Note_on_c, 8, 46, 110
1, 141360, Note_on_c, 9, 40, 49
1, 141360, Note_on_c, 9, 43, 49
1, 141360, Note_on_c, 10, 46, 70
1, 141371, Note_on_c, 8, 53, 91
1, 141371, Note_on_c, 10, 53, 51
1, 141372, Lyric_t, "IN "
1, 141372, Note_on_c, 3, 75, 111
1, 141405, Note_off_c, 8, 46, 0
1, 141405, Note_off_c, 10, 46, 0
1, 141421, Note_off_c, 8, 53, 0
1, 141421, Note_off_c, 10, 53, 0
1, 141430, Note_off_c, 5, 63, 0
1, 141443, Note_off_c, 9, 43, 0
1, 141473, Note_off_c, 9, 40, 0
1, 141565, Note_off_c, 3, 75, 0
1, 141594, Note_off_c, 1, 48, 0
1, 141600, Note_on_c, 1, 36, 61
1, 141600, Note_on_c, 5, 63, 127
1, 141600, Note_on_c, 8, 46, 115
1, 141600, Note_on_c, 9, 35, 95
1, 141600, Note_on_c, 9, 40, 98
1, 141600, Note_on_c, 9, 43, 106
1, 141600, Note_on_c, 10, 46, 75
1, 141601, Lyric_t, "KIND"
1, 141601, Lyric_t, "\015"
1, 141601, Note_on_c, 3, 72, 110
1, 141611, Note_on_c, 8, 53, 83
1, 141611, Note_on_c, 10, 53, 43
1, 141644, Note_off_c, 8, 46, 0
1, 141644, Note_off_c, 10, 46, 0
1, 141657, Note_off_c, 8, 53, 0
1, 141657, Note_off_c, 10, 53, 0
1, 141724, Note_off_c, 3, 72, 0
1, 141748, Note_off_c, 9, 35, 0
1, 141755, Note_off_c, 9, 43, 0
1, 141772, Note_off_c, 9, 40, 0
1, 141778, Note_off_c, 5, 63, 0
1, 141834, Note_off_c, 1, 36, 0
1, 141840, Note_on_c, 1, 48, 78
1, 141840, Note_on_c, 5, 63, 116
1, 141840, Note_on_c, 8, 46, 120
1, 141840, Note_on_c, 9, 40, 49
1, 141840, Note_on_c, 9, 43, 49
1, 141840, Note_on_c, 10, 46, 80
1, 141851, Note_on_c, 8, 53, 105
1, 141851, Note_on_c, 10, 53, 65
1, 141855, Lyric_t, "YOU "
1, 141855, Note_on_c, 3, 72, 125
1, 141887, Note_off_c, 8, 46, 0
1, 141887, Note_off_c, 10, 46, 0
1, 141905, Note_off_c, 8, 53, 0
1, 141905, Note_off_c, 10, 53, 0
1, 141923, Note_off_c, 9, 43, 0
1, 141942, Note_off_c, 5, 63, 0
1, 141953, Note_off_c, 9, 40, 0
1, 142007, Note_off_c, 3, 72, 0
1, 142074, Note_off_c, 1, 48, 0
1, 142080, Lyric_t, "REAP "
1, 142080, Note_on_c, 1, 36, 61
1, 142080, Note_on_c, 3, 75, 123
1, 142080, Note_on_c, 5, 65, 115
1, 142080, Note_on_c, 8, 46, 120
1, 142080, Note_on_c, 9, 35, 95
1, 142080, Note_on_c, 9, 40, 98
1, 142080, Note_on_c, 9, 43, 106
1, 142080, Note_on_c, 10, 46, 80
1, 142091, Note_on_c, 8, 53, 105
1, 142091, Note_on_c, 10, 53, 65
1, 142127, Note_off_c, 8, 46, 0
1, 142127, Note_off_c, 10, 46, 0
1, 142145, Note_off_c, 8, 53, 0
1, 142145, Note_off_c, 10, 53, 0
1, 142195, Note_off_c, 9, 43, 0
1, 142210, Note_off_c, 9, 40, 0
1, 142228, Note_off_c, 9, 35, 0
1, 142249, Note_off_c, 5, 65, 0
1, 142290, Note_off_c, 3, 75, 0
1, 142314, Note_off_c, 1, 36, 0
1, 142320, Lyric_t, "JUST "
1, 142320, Note_on_c, 1, 48, 78
1, 142320, Note_on_c, 3, 75, 101
1, 142320, Note_on_c, 5, 65, 115
1, 142320, Note_on_c, 8, 43, 110
1, 142320, Note_on_c, 9, 40, 49
1, 142320, Note_on_c, 9, 43, 49
1, 142320, Note_on_c, 10, 43, 70
1, 142331, Note_on_c, 8, 50, 91
1, 142331, Note_on_c, 10, 50, 51
1, 142367, Note_off_c, 8, 43, 0
1, 142367, Note_off_c, 10, 43, 0
1, 142375, Note_off_c, 8, 50, 0
1, 142375, Note_off_c, 10, 50, 0
1, 142403, Note_off_c, 9, 43, 0
1, 142411, Note_off_c, 5, 65, 0
1, 142433, Note_off_c, 9, 40, 0
1, 142440, Note_on_c, 5, 67, 120
1, 142519, Note_off_c, 5, 67, 0
1, 142530, Note_off_c, 3, 75, 0
1, 142554, Note_off_c, 1, 48, 0
1, 142560, Lyric_t, "WHAT "
1, 142560, Note_on_c, 1, 36, 61
1, 142560, Note_on_c, 3, 77, 106
1, 142560, Note_on_c, 8, 43, 110
1, 142560, Note_on_c, 9, 35, 95
1, 142560, Note_on_c, 9, 40, 95
1, 142560, Note_on_c, 9, 43, 106
1, 142560, Note_on_c, 10, 43, 70
1, 142571, Note_on_c, 8, 50, 91
1, 142571, Note_on_c, 10, 50, 51
1, 142604, Note_off_c, 8, 43, 0
1, 142604, Note_off_c, 10, 43, 0
1, 142607, Note_off_c, 8, 50, 0
1, 142607, Note_off_c, 10, 50, 0
1, 142680, Note_on_c, 5, 67, 115
1, 142701, Note_off_c, 9, 43, 0
1, 142708, Note_off_c, 9, 35, 0
1, 142708, Note_off_c, 9, 40, 0
1, 142766, Note_off_c, 5, 67, 0
1, 142770, Note_off_c, 3, 77, 0
1, 142794, Note_off_c, 1, 36, 0
1, 142800, Lyric_t, "YOU "
1, 142800, Note_on_c, 1, 48, 78
1, 142800, Note_on_c, 3, 79, 115
1, 142800, Note_on_c, 5, 70, 127
1, 142800, Note_on_c, 8, 43, 115
1, 142800, Note_on_c, 9, 40, 49
1, 142800, Note_on_c, 9, 43, 49
1, 142800, Note_on_c, 10, 43, 75
1, 142811, Note_on_c, 8, 50, 87
1, 142811, Note_on_c, 10, 50, 47
1, 142851, Note_off_c, 8, 43, 0
1, 142851, Note_off_c, 10, 43, 0
1, 142855, Note_off_c, 8, 50, 0
1, 142855, Note_off_c, 10, 50, 0
1, 142883, Note_off_c, 9, 43, 0
1, 142913, Note_off_c, 9, 40, 0
1, 142985, Note_off_c, 5, 70, 0
1, 143010, Note_off_c, 3, 79, 0
1, 143034, Note_off_c, 1, 48, 0
1, 143040, Lyric_t, "SOW"
1, 143040, Note_on_c, 1, 36, 61
1, 143040, Note_on_c, 3, 79, 127
1, 143040, Note_on_c, 5, 70, 116
1, 143040, Note_on_c, 8, 43, 102
1, 143040, Note_on_c, 9, 35, 95
1, 143040, Note_on_c, 9, 40, 98
1, 143040, Note_on_c, 9, 43, 102
1, 143040, Note_on_c, 10, 43, 62
1, 143051, Note_on_c, 8, 50, 91
1, 143051, Note_on_c, 10, 50, 51
1, 143092, Note_off_c, 8, 43, 0
1, 143092, Note_off_c, 10, 43, 0
1, 143099, Note_off_c, 8, 50, 0
1, 143099, Note_off_c, 10, 50, 0
1, 143133, Note_off_c, 5, 70, 0
1, 143153, Note_off_c, 9, 43, 0
1, 143175, Note_off_c, 9, 40, 0
1, 143188, Note_off_c, 9, 35, 0
1, 143274, Note_off_c, 1, 36, 0
1, 143280, Note_on_c, 1, 48, 78
1, 143280, Note_on_c, 8, 46, 110
1, 143280, Note_on_c, 9, 40, 49
1, 143280, Note_on_c, 9, 43, 49
1, 143280, Note_on_c, 10, 46, 70
1, 143291, Note_on_c, 8, 53, 91
1, 143291, Note_on_c, 10, 53, 51
1, 143325, Note_off_c, 8, 46, 0
1, 143325, Note_off_c, 10, 46, 0
1, 143341, Note_off_c, 8, 53, 0
1, 143341, Note_off_c, 10, 53, 0
1, 143363, Note_off_c, 9, 43, 0
1, 143393, Note_off_c, 9, 40, 0
1, 143394, Note_off_c, 1, 48, 0
1, 143400, Note_on_c, 1, 41, 78
1, 143400, Note_on_c, 5, 70, 116
1, 143454, Note_off_c, 5, 70, 0
1, 143514, Note_off_c, 1, 41, 0
1, 143514, Note_off_c, 3, 79, 0
1, 143520, Lyric_t, "..."
1, 143520, Lyric_t, "\015"
1, 143520, Note_on_c, 1, 34, 61
1, 143520, Note_on_c, 3, 84, 127
1, 143520, Note_on_c, 5, 72, 120
1, 143520, Note_on_c, 8, 46, 115
1, 143520, Note_on_c, 9, 35, 95
1, 143520, Note_on_c, 9, 40, 98
1, 143520, Note_on_c, 9, 43, 106
1, 143520, Note_on_c, 10, 46, 75
1, 143531, Note_on_c, 8, 53, 83
1, 143531, Note_on_c, 10, 53, 43
1, 143564, Note_off_c, 8, 46, 0
1, 143564, Note_off_c, 10, 46, 0
1, 143577, Note_off_c, 8, 53, 0
1, 143577, Note_off_c, 10, 53, 0
1, 143595, Note_off_c, 5, 72, 0
1, 143640, Note_on_c, 5, 70, 127
1, 143668, Note_off_c, 9, 35, 0
1, 143675, Note_off_c, 9, 43, 0
1, 143692, Note_off_c, 9, 40, 0
1, 143754, Note_off_c, 1, 34, 0
1, 143760, Note_on_c, 1, 34, 78
1, 143760, Note_on_c, 5, 72, 120
1, 143760, Note_on_c, 8, 46, 120
1, 143760, Note_on_c, 9, 40, 49
1, 143760, Note_on_c, 9, 43, 49
1, 143760, Note_on_c, 9, 46, 106
1, 143760, Note_on_c, 10, 46, 80
1, 143769, Note_off_c, 5, 70, 0
1, 143771, Note_on_c, 8, 53, 105
1, 143771, Note_on_c, 10, 53, 65
1, 143807, Note_off_c, 8, 46, 0
1, 143807, Note_off_c, 10, 46, 0
1, 143825, Note_off_c, 8, 53, 0
1, 143825, Note_off_c, 10, 53, 0
1, 143843, Note_off_c, 9, 43, 0
1, 143849, Note_off_c, 3, 84, 0
1, 143857, Note_off_c, 5, 72, 0
1, 143873, Note_off_c, 9, 40, 0
1, 143915, Note_off_c, 9, 46, 0
1, 143994, Note_off_c, 1, 34, 0
1, 144000, Note_on_c, 1, 36, 109
1, 144000, Note_on_c, 4, 63, 116
1, 144000, Note_on_c, 4, 67, 102
1, 144000, Note_on_c, 4, 70, 102
1, 144000, Note_on_c, 7, 36, 115
1, 144000, Note_on_c, 7, 48, 115
1, 144000, Note_on_c, 7, 67, 106
1, 144000, Note_on_c, 7, 72, 125
1, 144000, Note_on_c, 7, 75, 116
1, 144000, Note_on_c, 9, 35, 115
1, 144000, Note_on_c, 9, 49, 89
1, 144028, Note_off_c, 9, 35, 0
1, 144028, Note_off_c, 9, 49, 0
1, 144037, Note_off_c, 7, 72, 0
1, 144038, Note_off_c, 7, 75, 0
1, 144053, Note_off_c, 7, 67, 0
1, 144124, Note_off_c, 4, 63, 0
1, 144126, Note_off_c, 4, 67, 0
1, 144126, Note_off_c, 4, 70, 0
1, 144240, Note_on_c, 4, 63, 116
1, 144240, Note_on_c, 4, 67, 87
1, 144240, Note_on_c, 4, 70, 87
1, 144240, Note_on_c, 7, 67, 77
1, 144240, Note_on_c, 7, 72, 106
1, 144240, Note_on_c, 7, 75, 86
1, 144271, Note_off_c, 7, 75, 0
1, 144277, Note_off_c, 7, 72, 0
1, 144290, Note_off_c, 7, 67, 0
1, 144350, Note_off_c, 4, 63, 0
1, 144351, Note_off_c, 4, 67, 0
1, 144351, Note_off_c, 4, 70, 0
1, 144480, Note_on_c, 4, 65, 102
1, 144480, Note_on_c, 4, 68, 123
1, 144480, Note_on_c, 4, 72, 123
1, 144480, Note_on_c, 7, 67, 120
1, 144480, Note_on_c, 7, 72, 127
1, 144480, Note_on_c, 7, 75, 127
1, 144549, Note_off_c, 7, 72, 0
1, 144554, Note_off_c, 7, 75, 0
1, 144558, Note_off_c, 7, 67, 0
1, 144720, Note_on_c, 7, 67, 74
1, 144720, Note_on_c, 7, 72, 98
1, 144720, Note_on_c, 7, 75, 97
1, 144748, Note_off_c, 4, 68, 0
1, 144748, Note_off_c, 4, 72, 0
1, 144768, Note_off_c, 4, 65, 0
1, 144785, Note_off_c, 7, 72, 0
1, 144791, Note_off_c, 7, 75, 0
1, 144800, Note_off_c, 7, 67, 0
1, 144840, Note_on_c, 4, 63, 123
1, 144840, Note_on_c, 4, 67, 115
1, 144840, Note_on_c, 4, 70, 115
1, 144939, Note_off_c, 4, 63, 0
1, 144940, Note_off_c, 4, 67, 0
1, 144940, Note_off_c, 4, 70, 0
1, 144960, Note_on_c, 7, 67, 106
1, 144960, Note_on_c, 7, 72, 127
1, 144960, Note_on_c, 7, 75, 116
1, 145029, Note_off_c, 7, 72, 0
1, 145036, Note_off_c, 7, 75, 0
1, 145038, Note_off_c, 7, 67, 0
1, 145200, Note_on_c, 7, 67, 71
1, 145200, Note_on_c, 7, 72, 90
1, 145200, Note_on_c, 7, 75, 81
1, 145247, Note_off_c, 7, 72, 0
1, 145247, Note_off_c, 7, 75, 0
1, 145264, Note_off_c, 7, 67, 0
1, 145440, Note_on_c, 7, 67, 115
1, 145440, Note_on_c, 7, 72, 127
1, 145440, Note_on_c, 7, 75, 123
1, 145513, Note_off_c, 7, 72, 0
1, 145528, Note_off_c, 7, 75, 0
1, 145530, Note_off_c, 7, 67, 0
1, 145680, Note_on_c, 7, 67, 106
1, 145680, Note_on_c, 7, 72, 115
1, 145680, Note_on_c, 7, 75, 105
1, 145742, Note_off_c, 7, 72, 0
1, 145751, Note_off_c, 7, 75, 0
1, 145762, Note_off_c, 7, 67, 0
1, 145891, Note_off_c, 7, 36, 0
1, 145891, Note_off_c, 7, 48, 0
1, 145914, Note_off_c, 1, 36, 0
1, 145920, Note_on_c, 1, 34, 109
1, 145920, Note_on_c, 4, 63, 116
1, 145920, Note_on_c, 4, 67, 102
1, 145920, Note_on_c, 4, 70, 102
1, 145920, Note_on_c, 7, 34, 115
1, 145920, Note_on_c, 7, 46, 115
1, 145920, Note_on_c, 7, 65, 83
1, 145920, Note_on_c, 7, 70, 105
1, 145920, Note_on_c, 7, 74, 102
1, 145983, Note_off_c, 7, 74, 0
1, 145994, Note_off_c, 7, 65, 0
1, 145995, Note_off_c, 7, 70, 0
1, 146044, Note_off_c, 4, 63, 0
1, 146046, Note_off_c, 4, 67, 0
1, 146046, Note_off_c, 4, 70, 0
1, 146160, Note_on_c, 4, 63, 116
1, 146160, Note_on_c, 4, 67, 87
1, 146160, Note_on_c, 4, 70, 87
1, 146160, Note_on_c, 7, 65, 63
1, 146160, Note_on_c, 7, 70, 81
1, 146160, Note_on_c, 7, 74, 56
1, 146197, Note_off_c, 7, 74, 0
1, 146212, Note_off_c, 7, 65, 0
1, 146214, Note_off_c, 7, 70, 0
1, 146270, Note_off_c, 4, 63, 0
1, 146271, Note_off_c, 4, 67, 0
1, 146271, Note_off_c, 4, 70, 0
1, 146400, Note_on_c, 4, 65, 102
1, 146400, Note_on_c, 4, 68, 123
1, 146400, Note_on_c, 4, 72, 123
1, 146400, Note_on_c, 7, 65, 106
1, 146400, Note_on_c, 7, 70, 116
1, 146400, Note_on_c, 7, 74, 115
1, 146470, Note_off_c, 7, 65, 0
1, 146470, Note_off_c, 7, 70, 0
1, 146483, Note_off_c, 7, 74, 0
1, 146640, Lyric_t, "WE "
1, 146640, Note_on_c, 3, 75, 123
1, 146640, Note_on_c, 7, 65, 74
1, 146640, Note_on_c, 7, 70, 93
1, 146640, Note_on_c, 7, 74, 83
1, 146668, Note_off_c, 4, 68, 0
1, 146668, Note_off_c, 4, 72, 0
1, 146688, Note_off_c, 4, 65, 0
1, 146706, Note_off_c, 7, 65, 0
1, 146708, Note_off_c, 7, 70, 0
1, 146716, Note_off_c, 7, 74, 0
1, 146747, Note_off_c, 3, 75, 0
1, 146760, Note_on_c, 4, 63, 123
1, 146760, Note_on_c, 4, 67, 115
1, 146760, Note_on_c, 4, 70, 115
1, 146859, Note_off_c, 4, 63, 0
1, 146860, Note_off_c, 4, 67, 0
1, 146860, Note_off_c, 4, 70, 0
1, 146880, Lyric_t, "COULD "
1, 146880, Note_on_c, 3, 77, 120
1, 146880, Note_on_c, 7, 65, 90
1, 146880, Note_on_c, 7, 70, 101
1, 146880, Note_on_c, 7, 74, 98
1, 146946, Note_off_c, 7, 65, 0
1, 146949, Note_off_c, 7, 70, 0
1, 146964, Note_off_c, 7, 74, 0
1, 147075, Note_off_c, 3, 77, 0
1, 147120, Lyric_t, "HAVE "
1, 147120, Note_on_c, 3, 75, 116
1, 147120, Note_on_c, 7, 65, 74
1, 147120, Note_on_c, 7, 70, 89
1, 147120, Note_on_c, 7, 74, 90
1, 147178, Note_off_c, 7, 70, 0
1, 147180, Note_off_c, 7, 65, 0
1, 147180, Note_on_c, 9, 51, 76
1, 147192, Note_off_c, 7, 74, 0
1, 147208, Note_off_c, 9, 51, 0
1, 147224, Note_off_c, 3, 75, 0
1, 147240, Note_on_c, 9, 51, 76
1, 147268, Note_off_c, 9, 51, 0
1, 147300, Note_on_c, 9, 51, 76
1, 147328, Note_off_c, 9, 51, 0
1, 147360, Lyric_t, "HAD "
1, 147360, Note_on_c, 3, 77, 110
1, 147360, Note_on_c, 7, 65, 98
1, 147360, Note_on_c, 7, 70, 111
1, 147360, Note_on_c, 7, 74, 106
1, 147360, Note_on_c, 9, 51, 115
1, 147388, Note_off_c, 9, 51, 0
1, 147422, Note_off_c, 7, 65, 0
1, 147425, Note_off_c, 7, 70, 0
1, 147432, Note_off_c, 7, 74, 0
1, 147580, Note_off_c, 3, 77, 0
1, 147600, Lyric_t, "IT "
1, 147600, Note_on_c, 3, 79, 106
1, 147600, Note_on_c, 7, 65, 98
1, 147600, Note_on_c, 7, 70, 105
1, 147600, Note_on_c, 7, 74, 106
1, 147600, Note_on_c, 9, 51, 115
1, 147628, Note_off_c, 9, 51, 0
1, 147656, Note_off_c, 7, 65, 0
1, 147659, Note_off_c, 7, 70, 0
1, 147672, Note_off_c, 7, 74, 0
1, 147700, Note_off_c, 3, 79, 0
1, 147811, Note_off_c, 7, 34, 0
1, 147811, Note_off_c, 7, 46, 0
1, 147834, Note_off_c, 1, 34, 0
1, 147840, Lyric_t, "AL"
1, 147840, Note_on_c, 1, 32, 109
1, 147840, Note_on_c, 3, 79, 115
1, 147840, Note_on_c, 4, 63, 116
1, 147840, Note_on_c, 4, 67, 102
1, 147840, Note_on_c, 4, 70, 102
1, 147840, Note_on_c, 7, 32, 115
1, 147840, Note_on_c, 7, 44, 115
1, 147840, Note_on_c, 7, 60, 125
1, 147840, Note_on_c, 7, 63, 116
1, 147840, Note_on_c, 7, 67, 115
1, 147840, Note_on_c, 9, 46, 115
1, 147840, Note_on_c, 9, 51, 115
1, 147868, Note_off_c, 9, 46, 0
1, 147868, Note_off_c, 9, 51, 0
1, 147897, Note_off_c, 7, 63, 0
1, 147900, Note_off_c, 7, 60, 0
1, 147909, Note_off_c, 7, 67, 0
1, 147964, Note_off_c, 4, 63, 0
1, 147966, Note_off_c, 4, 67, 0
1, 147966, Note_off_c, 4, 70, 0
1, 148080, Note_on_c, 4, 63, 116
1, 148080, Note_on_c, 4, 67, 87
1, 148080, Note_on_c, 4, 70, 87
1, 148080, Note_on_c, 7, 60, 110
1, 148080, Note_on_c, 7, 63, 105
1, 148080, Note_on_c, 7, 67, 102
1, 148122, Note_off_c, 7, 60, 0
1, 148126, Note_off_c, 7, 63, 0
1, 148131, Note_off_c, 7, 67, 0
1, 148190, Note_off_c, 4, 63, 0
1, 148191, Note_off_c, 4, 67, 0
1, 148191, Note_off_c, 4, 70, 0
1, 148320, Note_on_c, 4, 65, 102
1, 148320, Note_on_c, 4, 68, 123
1, 148320, Note_on_c, 4, 72, 123
1, 148320, Note_on_c, 7, 60, 127
1, 148320, Note_on_c, 7, 63, 123
1, 148320, Note_on_c, 7, 67, 125
1, 148378, Note_off_c, 7, 60, 0
1, 148380, Note_off_c, 7, 63, 0
1, 148395, Note_off_c, 7, 67, 0
1, 148560, Note_on_c, 7, 60, 125
1, 148560, Note_on_c, 7, 63, 111
1, 148560, Note_on_c, 7, 67, 102
1, 148588, Note_off_c, 4, 68, 0
1, 148588, Note_off_c, 4, 72, 0
1, 148608, Note_off_c, 4, 65, 0
1, 148613, Note_off_c, 7, 60, 0
1, 148613, Note_off_c, 7, 63, 0
1, 148621, Note_off_c, 7, 67, 0
1, 148680, Note_on_c, 4, 63, 123
1, 148680, Note_on_c, 4, 67, 115
1, 148680, Note_on_c, 4, 70, 115
1, 148779, Note_off_c, 4, 63, 0
1, 148780, Note_off_c, 4, 67, 0
1, 148780, Note_off_c, 4, 70, 0
1, 148800, Note_on_c, 7, 60, 120
1, 148800, Note_on_c, 7, 63, 116
1, 148800, Note_on_c, 7, 67, 110
1, 148854, Note_off_c, 7, 60, 0
1, 148861, Note_off_c, 7, 63, 0
1, 148869, Note_off_c, 7, 67, 0
1, 149040, Note_on_c, 7, 60, 115
1, 149040, Note_on_c, 7, 63, 111
1, 149040, Note_on_c, 7, 67, 106
1, 149096, Note_off_c, 7, 60, 0
1, 149101, Note_off_c, 7, 63, 0
1, 149114, Note_off_c, 7, 67, 0
1, 149235, Note_off_c, 3, 79, 0
1, 149280, Note_on_c, 3, 79, 110
1, 149280, Note_on_c, 7, 60, 120
1, 149280, Note_on_c, 7, 63, 116
1, 149280, Note_on_c, 7, 67, 90
1, 149335, Note_off_c, 7, 60, 0
1, 149340, Note_off_c, 7, 63, 0
1, 149350, Note_off_c, 7, 67, 0
1, 149504, Note_off_c, 3, 79, 0
1, 149520, Lyric_t, "L"
1, 149520, Lyric_t, "\015"
1, 149520, Note_on_c, 3, 77, 115
1, 149520, Note_on_c, 7, 60, 120
1, 149520, Note_on_c, 7, 63, 116
1, 149520, Note_on_c, 7, 67, 110
1, 149575, Note_off_c, 7, 60, 0
1, 149582, Note_off_c, 7, 63, 0
1, 149589, Note_off_c, 7, 67, 0
1, 149668, Note_off_c, 1, 32, 0
1, 149731, Note_off_c, 7, 32, 0
1, 149731, Note_off_c, 7, 44, 0
1, 149734, Note_off_c, 3, 77, 0
1, 149760, Note_on_c, 1, 32, 109
1, 149760, Note_on_c, 4, 63, 116
1, 149760, Note_on_c, 4, 67, 102
1, 149760, Note_on_c, 4, 70, 102
1, 149760, Note_on_c, 7, 32, 115
1, 149760, Note_on_c, 7, 44, 115
1, 149760, Note_on_c, 7, 60, 125
1, 149760, Note_on_c, 7, 63, 111
1, 149760, Note_on_c, 7, 67, 110
1, 149814, Note_off_c, 7, 60, 0
1, 149816, Note_off_c, 7, 63, 0
1, 149826, Note_off_c, 7, 67, 0
1, 149884, Note_off_c, 4, 63, 0
1, 149886, Note_off_c, 4, 67, 0
1, 149886, Note_off_c, 4, 70, 0
1, 150000, Note_on_c, 4, 63, 116
1, 150000, Note_on_c, 4, 67, 87
1, 150000, Note_on_c, 4, 70, 87
1, 150000, Note_on_c, 7, 60, 106
1, 150000, Note_on_c, 7, 63, 101
1, 150000, Note_on_c, 7, 67, 95
1, 150056, Note_off_c, 7, 60, 0
1, 150062, Note_off_c, 7, 63, 0
1, 150067, Note_off_c, 7, 67, 0
1, 150110, Note_off_c, 4, 63, 0
1, 150111, Note_off_c, 4, 67, 0
1, 150111, Note_off_c, 4, 70, 0
1, 150240, Note_on_c, 4, 65, 102
1, 150240, Note_on_c, 4, 68, 123
1, 150240, Note_on_c, 4, 72, 123
1, 150240, Note_on_c, 7, 60, 125
1, 150240, Note_on_c, 7, 63, 116
1, 150240, Note_on_c, 7, 67, 110
1, 150296, Note_off_c, 7, 60, 0
1, 150302, Note_off_c, 7, 63, 0
1, 150312, Note_off_c, 7, 67, 0
1, 150466, Lyric_t, "WE "
1, 150466, Note_on_c, 3, 75, 123
1, 150480, Note_on_c, 7, 60, 115
1, 150480, Note_on_c, 7, 63, 111
1, 150480, Note_on_c, 7, 67, 110
1, 150508, Note_off_c, 4, 68, 0
1, 150508, Note_off_c, 4, 72, 0
1, 150528, Note_off_c, 4, 65, 0
1, 150538, Note_off_c, 7, 60, 0
1, 150541, Note_off_c, 7, 63, 0
1, 150557, Note_off_c, 7, 67, 0
1, 150594, Note_off_c, 3, 75, 0
1, 150600, Note_on_c, 4, 63, 123
1, 150600, Note_on_c, 4, 67, 115
1, 150600, Note_on_c, 4, 70, 115
1, 150691, Note_off_c, 7, 32, 0
1, 150691, Note_off_c, 7, 44, 0
1, 150699, Note_off_c, 4, 63, 0
1, 150700, Note_off_c, 4, 67, 0
1, 150700, Note_off_c, 4, 70, 0
1, 150714, Note_off_c, 1, 32, 0
1, 150716, Lyric_t, "COULD "
1, 150716, Note_on_c, 3, 77, 120
1, 150720, Note_on_c, 1, 34, 109
1, 150720, Note_on_c, 7, 34, 115
1, 150720, Note_on_c, 7, 46, 115
1, 150720, Note_on_c, 7, 62, 98
1, 150720, Note_on_c, 7, 65, 90
1, 150720, Note_on_c, 7, 70, 101
1, 150786, Note_off_c, 7, 65, 0
1, 150789, Note_off_c, 7, 70, 0
1, 150804, Note_off_c, 7, 62, 0
1, 150934, Note_off_c, 3, 77, 0
1, 150960, Note_on_c, 7, 62, 90
1, 150960, Note_on_c, 7, 65, 74
1, 150960, Note_on_c, 7, 70, 89
1, 150965, Lyric_t, "HAVE "
1, 150965, Note_on_c, 3, 75, 123
1, 151018, Note_off_c, 7, 70, 0
1, 151020, Note_off_c, 7, 65, 0
1, 151020, Note_on_c, 9, 51, 76
1, 151032, Note_off_c, 7, 62, 0
1, 151048, Note_off_c, 9, 51, 0
1, 151080, Note_on_c, 9, 51, 76
1, 151108, Note_off_c, 9, 51, 0
1, 151113, Note_off_c, 3, 75, 0
1, 151140, Note_on_c, 9, 51, 76
1, 151168, Note_off_c, 9, 51, 0
1, 151200, Note_on_c, 7, 62, 106
1, 151200, Note_on_c, 7, 65, 98
1, 151200, Note_on_c, 7, 70, 111
1, 151200, Note_on_c, 9, 51, 115
1, 151210, Lyric_t, "HAD "
1, 151210, Note_on_c, 3, 77, 115
1, 151228, Note_off_c, 9, 51, 0
1, 151262, Note_off_c, 7, 65, 0
1, 151265, Note_off_c, 7, 70, 0
1, 151272, Note_off_c, 7, 62, 0
1, 151425, Note_off_c, 3, 77, 0
1, 151440, Note_on_c, 7, 62, 106
1, 151440, Note_on_c, 7, 65, 98
1, 151440, Note_on_c, 7, 70, 105
1, 151440, Note_on_c, 9, 51, 115
1, 151467, Lyric_t, "IT "
1, 151467, Note_on_c, 3, 79, 110
1, 151468, Note_off_c, 9, 51, 0
1, 151496, Note_off_c, 7, 65, 0
1, 151499, Note_off_c, 7, 70, 0
1, 151512, Note_off_c, 7, 62, 0
1, 151543, Note_off_c, 3, 79, 0
1, 151651, Note_off_c, 7, 34, 0
1, 151651, Note_off_c, 7, 46, 0
1, 151674, Note_off_c, 1, 34, 0
1, 151680, Note_on_c, 1, 36, 109
1, 151680, Note_on_c, 4, 63, 116
1, 151680, Note_on_c, 4, 67, 102
1, 151680, Note_on_c, 4, 70, 102
1, 151680, Note_on_c, 7, 36, 115
1, 151680, Note_on_c, 7, 48, 115
1, 151680, Note_on_c, 7, 67, 106
1, 151680, Note_on_c, 7, 72, 125
1, 151680, Note_on_c, 7, 75, 116
1, 151680, Note_on_c, 9, 46, 115
1, 151680, Note_on_c, 9, 51, 115
1, 151708, Note_off_c, 9, 46, 0
1, 151708, Note_off_c, 9, 51, 0
1, 151716, Lyric_t, "AL"
1, 151716, Note_on_c, 3, 79, 127
1, 151717, Note_off_c, 7, 72, 0
1, 151718, Note_off_c, 7, 75, 0
1, 151733, Note_off_c, 7, 67, 0
1, 151804, Note_off_c, 4, 63, 0
1, 151806, Note_off_c, 4, 67, 0
1, 151806, Note_off_c, 4, 70, 0
1, 151826, Note_off_c, 3, 79, 0
1, 151849, Note_on_c, 3, 77, 110
1, 151920, Note_on_c, 3, 75, 127
1, 151920, Note_on_c, 4, 63, 116
1, 151920, Note_on_c, 4, 67, 87
1, 151920, Note_on_c, 4, 70, 87
1, 151920, Note_on_c, 7, 67, 77
1, 151920, Note_on_c, 7, 72, 106
1, 151920, Note_on_c, 7, 75, 86
1, 151951, Note_off_c, 7, 75, 0
1, 151957, Note_off_c, 7, 72, 0
1, 151970, Note_off_c, 7, 67, 0
1, 151981, Note_off_c, 3, 77, 0
1, 152030, Note_off_c, 4, 63, 0
1, 152031, Note_off_c, 4, 67, 0
1, 152031, Note_off_c, 4, 70, 0
1, 152160, Note_on_c, 4, 65, 102
1, 152160, Note_on_c, 4, 68, 123
1, 152160, Note_on_c, 4, 72, 123
1, 152160, Note_on_c, 7, 67, 120
1, 152160, Note_on_c, 7, 72, 127
1, 152160, Note_on_c, 7, 75, 127
1, 152160, Note_on_c, 9, 39, 109
1, 152188, Note_off_c, 9, 39, 0
1, 152229, Note_off_c, 7, 72, 0
1, 152234, Note_off_c, 7, 75, 0
1, 152238, Note_off_c, 7, 67, 0
1, 152400, Note_on_c, 7, 67, 74
1, 152400, Note_on_c, 7, 72, 98
1, 152400, Note_on_c, 7, 75, 97
1, 152428, Note_off_c, 4, 68, 0
1, 152428, Note_off_c, 4, 72, 0
1, 152448, Note_off_c, 4, 65, 0
1, 152465, Note_off_c, 7, 72, 0
1, 152471, Note_off_c, 7, 75, 0
1, 152480, Note_off_c, 7, 67, 0
1, 152520, Note_on_c, 4, 63, 123
1, 152520, Note_on_c, 4, 67, 115
1, 152520, Note_on_c, 4, 70, 115
1, 152619, Note_off_c, 4, 63, 0
1, 152620, Note_off_c, 4, 67, 0
1, 152620, Note_off_c, 4, 70, 0
1, 152640, Note_on_c, 7, 67, 106
1, 152640, Note_on_c, 7, 72, 127
1, 152640, Note_on_c, 7, 75, 116
1, 152709, Note_off_c, 7, 72, 0
1, 152716, Note_off_c, 7, 75, 0
1, 152718, Note_off_c, 7, 67, 0
1, 152838, Note_off_c, 3, 75, 0
1, 152880, Note_on_c, 3, 72, 110
1, 152880, Note_on_c, 7, 67, 71
1, 152880, Note_on_c, 7, 72, 90
1, 152880, Note_on_c, 7, 75, 81
1, 152927, Note_off_c, 7, 72, 0
1, 152927, Note_off_c, 7, 75, 0
1, 152944, Note_off_c, 7, 67, 0
1, 152967, Note_off_c, 3, 72, 0
1, 153000, Note_on_c, 3, 70, 127
1, 153113, Note_off_c, 3, 70, 0
1, 153120, Note_on_c, 3, 72, 125
1, 153120, Note_on_c, 7, 67, 115
1, 153120, Note_on_c, 7, 72, 127
1, 153120, Note_on_c, 7, 75, 123
1, 153120, Note_on_c, 9, 39, 109
1, 153148, Note_off_c, 9, 39, 0
1, 153193, Note_off_c, 7, 72, 0
1, 153208, Note_off_c, 7, 75, 0
1, 153210, Note_off_c, 7, 67, 0
1, 153318, Note_off_c, 3, 72, 0
1, 153360, Lyric_t, "L"
1, 153360, Lyric_t, "\015"
1, 153360, Note_on_c, 3, 75, 116
1, 153360, Note_on_c, 7, 67, 106
1, 153360, Note_on_c, 7, 72, 115
1, 153360, Note_on_c, 7, 75, 105
1, 153422, Note_off_c, 7, 72, 0
1, 153431, Note_off_c, 7, 75, 0
1, 153442, Note_off_c, 7, 67, 0
1, 153571, Note_off_c, 7, 36, 0
1, 153571, Note_off_c, 7, 48, 0
1, 153594, Note_off_c, 1, 36, 0
1, 153600, Note_on_c, 1, 34, 109
1, 153600, Note_on_c, 4, 63, 116
1, 153600, Note_on_c, 4, 67, 102
1, 153600, Note_on_c, 4, 70, 102
1, 153600, Note_on_c, 7, 34, 115
1, 153600, Note_on_c, 7, 46, 115
1, 153600, Note_on_c, 7, 65, 83
1, 153600, Note_on_c, 7, 70, 105
1, 153600, Note_on_c, 7, 74, 102
1, 153663, Note_off_c, 7, 74, 0
1, 153674, Note_off_c, 7, 65, 0
1, 153675, Note_off_c, 7, 70, 0
1, 153724, Note_off_c, 4, 63, 0
1, 153726, Note_off_c, 4, 67, 0
1, 153726, Note_off_c, 4, 70, 0
1, 153840, Note_on_c, 4, 63, 116
1, 153840, Note_on_c, 4, 67, 87
1, 153840, Note_on_c, 4, 70, 87
1, 153840, Note_on_c, 7, 65, 63
1, 153840, Note_on_c, 7, 70, 81
1, 153840, Note_on_c, 7, 74, 56
1, 153877, Note_off_c, 7, 74, 0
1, 153892, Note_off_c, 7, 65, 0
1, 153894, Note_off_c, 7, 70, 0
1, 153950, Note_off_c, 4, 63, 0
1, 153951, Note_off_c, 4, 67, 0
1, 153951, Note_off_c, 4, 70, 0
1, 154080, Note_on_c, 4, 65, 102
1, 154080, Note_on_c, 4, 68, 123
1, 154080, Note_on_c, 4, 72, 123
1, 154080, Note_on_c, 7, 65, 106
1, 154080, Note_on_c, 7, 70, 116
1, 154080, Note_on_c, 7, 74, 115
1, 154080, Note_on_c, 9, 39, 109
1, 154108, Note_off_c, 9, 39, 0
1, 154150, Note_off_c, 7, 65, 0
1, 154150, Note_off_c, 7, 70, 0
1, 154163, Note_off_c, 7, 74, 0
1, 154320, Note_on_c, 7, 65, 74
1, 154320, Note_on_c, 7, 70, 93
1, 154320, Note_on_c, 7, 74, 83
1, 154348, Note_off_c, 3, 75, 0
1, 154348, Note_off_c, 4, 68, 0
1, 154348, Note_off_c, 4, 72, 0
1, 154368, Note_off_c, 4, 65, 0
1, 154386, Note_off_c, 7, 65, 0
1, 154388, Note_off_c, 7, 70, 0
1, 154396, Note_off_c, 7, 74, 0
1, 154440, Note_on_c, 4, 63, 123
1, 154440, Note_on_c, 4, 67, 115
1, 154440, Note_on_c, 4, 70, 115
1, 154539, Note_off_c, 4, 63, 0
1, 154540, Note_off_c, 4, 67, 0
1, 154540, Note_off_c, 4, 70, 0
1, 154560, Note_on_c, 7, 65, 90
1, 154560, Note_on_c, 7, 70, 101
1, 154560, Note_on_c, 7, 74, 98
1, 154626, Note_off_c, 7, 65, 0
1, 154629, Note_off_c, 7, 70, 0
1, 154644, Note_off_c, 7, 74, 0
1, 154800, Note_on_c, 7, 65, 74
1, 154800, Note_on_c, 7, 70, 89
1, 154800, Note_on_c, 7, 74, 90
1, 154858, Note_off_c, 7, 70, 0
1, 154860, Note_off_c, 7, 65, 0
1, 154872, Note_off_c, 7, 74, 0
1, 155040, Note_on_c, 7, 65, 98
1, 155040, Note_on_c, 7, 70, 111
1, 155040, Note_on_c, 7, 74, 106
1, 155040, Note_on_c, 9, 39, 109
1, 155068, Note_off_c, 9, 39, 0
1, 155102, Note_off_c, 7, 65, 0
1, 155105, Note_off_c, 7, 70, 0
1, 155112, Note_off_c, 7, 74, 0
1, 155280, Note_on_c, 7, 65, 98
1, 155280, Note_on_c, 7, 70, 105
1, 155280, Note_on_c, 7, 74, 106
1, 155295, Lyric_t, "IT "
1, 155295, Note_on_c, 3, 75, 123
1, 155336, Note_off_c, 7, 65, 0
1, 155339, Note_off_c, 7, 70, 0
1, 155344, Note_off_c, 3, 75, 0
1, 155352, Note_off_c, 7, 74, 0
1, 155407, Lyric_t, "AL"
1, 155407, Note_on_c, 3, 75, 116
1, 155428, Note_off_c, 1, 34, 0
1, 155491, Note_off_c, 7, 34, 0
1, 155491, Note_off_c, 7, 46, 0
1, 155520, Note_on_c, 1, 32, 127
1, 155520, Note_on_c, 4, 63, 116
1, 155520, Note_on_c, 4, 67, 102
1, 155520, Note_on_c, 4, 70, 102
1, 155520, Note_on_c, 7, 32, 115
1, 155520, Note_on_c, 7, 44, 115
1, 155520, Note_on_c, 7, 60, 125
1, 155520, Note_on_c, 7, 63, 116
1, 155520, Note_on_c, 7, 67, 115
1, 155520, Note_on_c, 9, 40, 95
1, 155520, Note_on_c, 9, 43, 98
1, 155577, Note_off_c, 7, 63, 0
1, 155580, Note_off_c, 7, 60, 0
1, 155581, Note_off_c, 9, 43, 0
1, 155589, Note_off_c, 7, 67, 0
1, 155591, Note_off_c, 9, 40, 0
1, 155631, Note_off_c, 3, 75, 0
1, 155644, Note_off_c, 4, 63, 0
1, 155646, Note_off_c, 4, 67, 0
1, 155646, Note_off_c, 4, 70, 0
1, 155673, Note_on_c, 3, 74, 110
1, 155721, Note_off_c, 1, 32, 0
1, 155745, Lyric_t, "L"
1, 155745, Lyric_t, "\015"
1, 155745, Note_on_c, 3, 72, 110
1, 155750, Note_off_c, 3, 74, 0
1, 155760, Note_on_c, 1, 32, 127
1, 155760, Note_on_c, 4, 63, 116
1, 155760, Note_on_c, 4, 67, 87
1, 155760, Note_on_c, 4, 70, 87
1, 155760, Note_on_c, 7, 60, 110
1, 155760, Note_on_c, 7, 63, 105
1, 155760, Note_on_c, 7, 67, 102
1, 155760, Note_on_c, 9, 40, 87
1, 155760, Note_on_c, 9, 43, 95
1, 155802, Note_off_c, 7, 60, 0
1, 155806, Note_off_c, 7, 63, 0
1, 155811, Note_off_c, 7, 67, 0
1, 155827, Note_off_c, 9, 43, 0
1, 155833, Note_off_c, 9, 40, 0
1, 155870, Note_off_c, 4, 63, 0
1, 155871, Note_off_c, 4, 67, 0
1, 155871, Note_off_c, 4, 70, 0
1, 155940, Note_off_c, 3, 72, 0
1, 155961, Note_off_c, 1, 32, 0
1, 156000, Note_on_c, 1, 32, 127
1, 156000, Note_on_c, 4, 65, 102
1, 156000, Note_on_c, 4, 68, 123
1, 156000, Note_on_c, 4, 72, 123
1, 156000, Note_on_c, 7, 60, 127
1, 156000, Note_on_c, 7, 63, 123
1, 156000, Note_on_c, 7, 67, 125
1, 156000, Note_on_c, 9, 40, 102
1, 156000, Note_on_c, 9, 43, 102
1, 156058, Note_off_c, 7, 60, 0
1, 156060, Note_off_c, 7, 63, 0
1, 156066, Note_off_c, 9, 43, 0
1, 156072, Note_off_c, 9, 40, 0
1, 156075, Note_off_c, 7, 67, 0
1, 156199, Lyric_t, "IT "
1, 156199, Note_on_c, 3, 75, 127
1, 156201, Note_off_c, 1, 32, 0
1, 156240, Note_on_c, 1, 32, 127
1, 156240, Note_on_c, 7, 60, 125
1, 156240, Note_on_c, 7, 63, 111
1, 156240, Note_on_c, 7, 67, 102
1, 156240, Note_on_c, 9, 40, 98
1, 156240, Note_on_c, 9, 43, 90
1, 156244, Note_off_c, 3, 75, 0
1, 156268, Note_off_c, 4, 68, 0
1, 156268, Note_off_c, 4, 72, 0
1, 156288, Note_off_c, 4, 65, 0
1, 156293, Note_off_c, 7, 60, 0
1, 156293, Note_off_c, 7, 63, 0
1, 156301, Note_off_c, 7, 67, 0
1, 156302, Note_off_c, 9, 43, 0
1, 156308, Note_off_c, 9, 40, 0
1, 156341, Lyric_t, "AL"
1, 156341, Note_on_c, 3, 75, 127
1, 156360, Note_on_c, 4, 63, 123
1, 156360, Note_on_c, 4, 67, 115
1, 156360, Note_on_c, 4, 70, 115
1, 156441, Note_off_c, 1, 32, 0
1, 156459, Note_off_c, 4, 63, 0
1, 156460, Note_off_c, 4, 67, 0
1, 156460, Note_off_c, 4, 70, 0
1, 156480, Note_on_c, 1, 32, 127
1, 156480, Note_on_c, 7, 60, 120
1, 156480, Note_on_c, 7, 63, 116
1, 156480, Note_on_c, 7, 67, 110
1, 156480, Note_on_c, 9, 40, 98
1, 156480, Note_on_c, 9, 43, 98
1, 156534, Note_off_c, 7, 60, 0
1, 156536, Note_off_c, 9, 43, 0
1, 156541, Note_off_c, 7, 63, 0
1, 156544, Note_off_c, 9, 40, 0
1, 156549, Note_off_c, 7, 67, 0
1, 156585, Note_off_c, 3, 75, 0
1, 156628, Note_on_c, 3, 74, 106
1, 156681, Note_off_c, 1, 32, 0
1, 156694, Note_off_c, 3, 74, 0
1, 156702, Lyric_t, "L"
1, 156702, Lyric_t, "\015"
1, 156702, Note_on_c, 3, 72, 120
1, 156720, Note_on_c, 1, 32, 127
1, 156720, Note_on_c, 7, 60, 115
1, 156720, Note_on_c, 7, 63, 111
1, 156720, Note_on_c, 7, 67, 106
1, 156720, Note_on_c, 9, 40, 98
1, 156720, Note_on_c, 9, 43, 98
1, 156776, Note_off_c, 7, 60, 0
1, 156781, Note_off_c, 7, 63, 0
1, 156794, Note_off_c, 7, 67, 0
1, 156797, Note_off_c, 9, 43, 0
1, 156799, Note_off_c, 9, 40, 0
1, 156878, Note_off_c, 3, 72, 0
1, 156921, Note_off_c, 1, 32, 0
1, 156960, Note_on_c, 1, 32, 127
1, 156960, Note_on_c, 7, 60, 120
1, 156960, Note_on_c, 7, 63, 116
1, 156960, Note_on_c, 7, 67, 90
1, 156960, Note_on_c, 9, 40, 98
1, 156960, Note_on_c, 9, 43, 110
1, 157015, Note_off_c, 7, 60, 0
1, 157020, Note_off_c, 7, 63, 0
1, 157030, Note_off_c, 7, 67, 0
1, 157035, Note_off_c, 9, 43, 0
1, 157036, Note_off_c, 9, 40, 0
1, 157161, Note_off_c, 1, 32, 0
1, 157180, Lyric_t, "IT "
1, 157180, Note_on_c, 3, 75, 127
1, 157200, Note_on_c, 1, 32, 127
1, 157200, Note_on_c, 7, 60, 120
1, 157200, Note_on_c, 7, 63, 116
1, 157200, Note_on_c, 7, 67, 110
1, 157200, Note_on_c, 9, 40, 102
1, 157200, Note_on_c, 9, 43, 102
1, 157234, Note_off_c, 3, 75, 0
1, 157255, Note_off_c, 7, 60, 0
1, 157259, Note_off_c, 9, 43, 0
1, 157262, Note_off_c, 7, 63, 0
1, 157269, Note_off_c, 7, 67, 0
1, 157273, Note_off_c, 9, 40, 0
1, 157315, Lyric_t, "AL"
1, 157315, Note_on_c, 3, 75, 123
1, 157401, Note_off_c, 1, 32, 0
1, 157411, Note_off_c, 7, 32, 0
1, 157411, Note_off_c, 7, 44, 0
1, 157440, Note_on_c, 1, 32, 127
1, 157440, Note_on_c, 4, 63, 116
1, 157440, Note_on_c, 4, 67, 102
1, 157440, Note_on_c, 4, 70, 102
1, 157440, Note_on_c, 7, 32, 115
1, 157440, Note_on_c, 7, 44, 115
1, 157440, Note_on_c, 7, 60, 125
1, 157440, Note_on_c, 7, 63, 111
1, 157440, Note_on_c, 7, 67, 110
1, 157440, Note_on_c, 9, 40, 106
1, 157440, Note_on_c, 9, 43, 106
1, 157451, Note_on_c, 6, 44, 123
1, 157451, Note_on_c, 6, 51, 101
1, 157468, Note_off_c, 6, 44, 0
1, 157494, Note_off_c, 7, 60, 0
1, 157495, Note_off_c, 6, 51, 0
1, 157496, Note_off_c, 7, 63, 0
1, 157502, Note_off_c, 9, 43, 0
1, 157506, Note_off_c, 7, 67, 0
1, 157514, Note_off_c, 9, 40, 0
1, 157545, Note_off_c, 3, 75, 0
1, 157564, Note_off_c, 4, 63, 0
1, 157566, Note_off_c, 4, 67, 0
1, 157566, Note_off_c, 4, 70, 0
1, 157575, Note_on_c, 3, 74, 106
1, 157641, Note_off_c, 1, 32, 0
1, 157660, Note_off_c, 3, 74, 0
1, 157664, Lyric_t, "L"
1, 157664, Lyric_t, "\015"
1, 157664, Note_on_c, 3, 72, 120
1, 157680, Note_on_c, 1, 32, 127
1, 157680, Note_on_c, 4, 63, 116
1, 157680, Note_on_c, 4, 67, 87
1, 157680, Note_on_c, 4, 70, 87
1, 157680, Note_on_c, 7, 60, 106
1, 157680, Note_on_c, 7, 63, 101
1, 157680, Note_on_c, 7, 67, 95
1, 157680, Note_on_c, 9, 40, 110
1, 157680, Note_on_c, 9, 43, 102
1, 157691, Note_on_c, 6, 44, 127
1, 157691, Note_on_c, 6, 51, 116
1, 157736, Note_off_c, 6, 44, 0
1, 157736, Note_off_c, 7, 60, 0
1, 157742, Note_off_c, 7, 63, 0
1, 157744, Note_off_c, 9, 43, 0
1, 157747, Note_off_c, 7, 67, 0
1, 157755, Note_off_c, 6, 51, 0
1, 157760, Note_off_c, 9, 40, 0
1, 157790, Note_off_c, 4, 63, 0
1, 157791, Note_off_c, 4, 67, 0
1, 157791, Note_off_c, 4, 70, 0
1, 157843, Note_off_c, 3, 72, 0
1, 157881, Note_off_c, 1, 32, 0
1, 157920, Note_on_c, 1, 32, 127
1, 157920, Note_on_c, 4, 65, 102
1, 157920, Note_on_c, 4, 68, 123
1, 157920, Note_on_c, 4, 72, 123
1, 157920, Note_on_c, 7, 60, 125
1, 157920, Note_on_c, 7, 63, 116
1, 157920, Note_on_c, 7, 67, 110
1, 157920, Note_on_c, 9, 40, 106
1, 157920, Note_on_c, 9, 43, 115
1, 157931, Note_on_c, 6, 44, 127
1, 157931, Note_on_c, 6, 51, 123
1, 157976, Note_off_c, 7, 60, 0
1, 157982, Note_off_c, 7, 63, 0
1, 157984, Note_off_c, 9, 43, 0
1, 157986, Note_off_c, 6, 44, 0
1, 157992, Note_off_c, 7, 67, 0
1, 157994, Note_off_c, 9, 40, 0
1, 158000, Note_off_c, 6, 51, 0
1, 158121, Note_off_c, 1, 32, 0
1, 158160, Note_on_c, 1, 32, 127
1, 158160, Note_on_c, 7, 60, 115
1, 158160, Note_on_c, 7, 63, 111
1, 158160, Note_on_c, 7, 67, 110
1, 158160, Note_on_c, 9, 40, 110
1, 158160, Note_on_c, 9, 43, 120
1, 158169, Lyric_t, "WE "
1, 158169, Note_on_c, 3, 79, 120
1, 158171, Note_on_c, 6, 44, 127
1, 158171, Note_on_c, 6, 51, 123
1, 158188, Note_off_c, 4, 68, 0
1, 158188, Note_off_c, 4, 72, 0
1, 158208, Note_off_c, 4, 65, 0
1, 158217, Note_off_c, 9, 43, 0
1, 158218, Note_off_c, 7, 60, 0
1, 158221, Note_off_c, 7, 63, 0
1, 158224, Note_off_c, 9, 40, 0
1, 158225, Note_off_c, 6, 44, 0
1, 158232, Note_off_c, 3, 79, 0
1, 158237, Note_off_c, 7, 67, 0
1, 158280, Note_on_c, 4, 63, 123
1, 158280, Note_on_c, 4, 67, 115
1, 158280, Note_on_c, 4, 70, 115
1, 158284, Note_off_c, 6, 51, 0
1, 158361, Note_off_c, 1, 32, 0
1, 158371, Note_off_c, 7, 32, 0
1, 158371, Note_off_c, 7, 44, 0
1, 158379, Note_off_c, 4, 63, 0
1, 158380, Note_off_c, 4, 67, 0
1, 158380, Note_off_c, 4, 70, 0
1, 158397, Lyric_t, "COULD "
1, 158397, Note_on_c, 3, 82, 127
1, 158400, Note_on_c, 1, 34, 127
1, 158400, Note_on_c, 7, 34, 115
1, 158400, Note_on_c, 7, 46, 115
1, 158400, Note_on_c, 7, 62, 98
1, 158400, Note_on_c, 7, 65, 90
1, 158400, Note_on_c, 7, 70, 101
1, 158400, Note_on_c, 9, 40, 110
1, 158400, Note_on_c, 9, 43, 102
1, 158411, Note_on_c, 6, 46, 105
1, 158411, Note_on_c, 6, 53, 106
1, 158451, Note_off_c, 9, 43, 0
1, 158464, Note_off_c, 6, 46, 0
1, 158466, Note_off_c, 7, 65, 0
1, 158469, Note_off_c, 7, 70, 0
1, 158469, Note_off_c, 9, 40, 0
1, 158482, Note_off_c, 6, 53, 0
1, 158484, Note_off_c, 7, 62, 0
1, 158601, Note_off_c, 1, 34, 0
1, 158629, Note_off_c, 3, 82, 0
1, 158640, Note_on_c, 1, 34, 127
1, 158640, Note_on_c, 7, 62, 90
1, 158640, Note_on_c, 7, 65, 74
1, 158640, Note_on_c, 7, 70, 89
1, 158640, Note_on_c, 9, 40, 115
1, 158651, Note_on_c, 6, 46, 123
1, 158651, Note_on_c, 6, 53, 77
1, 158659, Lyric_t, "HAVE "
1, 158659, Note_on_c, 3, 79, 115
1, 158679, Note_off_c, 9, 40, 0
1, 158698, Note_off_c, 7, 70, 0
1, 158700, Note_off_c, 7, 65, 0
1, 158712, Note_off_c, 7, 62, 0
1, 158738, Note_off_c, 6, 46, 0
1, 158741, Note_off_c, 3, 79, 0
1, 158748, Note_off_c, 6, 53, 0
1, 158760, Note_on_c, 9, 40, 125
1, 158810, Note_off_c, 9, 40, 0
1, 158841, Note_off_c, 1, 34, 0
1, 158880, Note_on_c, 1, 34, 127
1, 158880, Note_on_c, 7, 62, 106
1, 158880, Note_on_c, 7, 65, 98
1, 158880, Note_on_c, 7, 70, 111
1, 158880, Note_on_c, 9, 40, 125
1, 158885, Lyric_t, "HAD "
1, 158885, Note_on_c, 3, 82, 127
1, 158891, Note_on_c, 6, 46, 127
1, 158891, Note_on_c, 6, 53, 95
1, 158923, Note_off_c, 9, 40, 0
1, 158942, Note_off_c, 7, 65, 0
1, 158945, Note_off_c, 7, 70, 0
1, 158952, Note_off_c, 7, 62, 0
1, 158994, Note_off_c, 6, 46, 0
1, 159000, Note_on_c, 9, 40, 115
1, 159001, Note_off_c, 6, 53, 0
1, 159019, Note_off_c, 9, 40, 0
1, 159081, Note_off_c, 1, 34, 0
1, 159112, Note_off_c, 3, 82, 0
1, 159115, Lyric_t, "IT "
1, 159115, Note_on_c, 3, 79, 120
1, 159120, Note_on_c, 1, 34, 127
1, 159120, Note_on_c, 7, 62, 106
1, 159120, Note_on_c, 7, 65, 98
1, 159120, Note_on_c, 7, 70, 105
1, 159120, Note_on_c, 9, 45, 106
1, 159131, Note_on_c, 6, 46, 127
1, 159131, Note_on_c, 6, 53, 106
1, 159155, Note_off_c, 9, 45, 0
1, 159176, Note_off_c, 7, 65, 0
1, 159179, Note_off_c, 7, 70, 0
1, 159192, Note_off_c, 7, 62, 0
1, 159203, Note_off_c, 6, 46, 0
1, 159208, Note_off_c, 6, 53, 0
1, 159221, Note_off_c, 3, 79, 0
1, 159240, Note_on_c, 9, 43, 127
1, 159301, Note_off_c, 9, 43, 0
1, 159321, Note_off_c, 1, 34, 0
1, 159331, Note_off_c, 7, 34, 0
1, 159331, Note_off_c, 7, 46, 0
1, 159360, Note_on_c, 1, 36, 113
1, 159360, Note_on_c, 4, 63, 116
1, 159360, Note_on_c, 4, 67, 102
1, 159360, Note_on_c, 4, 70, 102
1, 159360, Note_on_c, 7, 36, 115
1, 159360, Note_on_c, 7, 48, 115
1, 159360, Note_on_c, 7, 67, 106
1, 159360, Note_on_c, 7, 72, 125
1, 159360, Note_on_c, 7, 75, 116
1, 159360, Note_on_c, 8, 48, 125
1, 159360, Note_on_c, 8, 55, 115
1, 159360, Note_on_c, 8, 60, 120
1, 159360, Note_on_c, 9, 35, 116
1, 159360, Note_on_c, 9, 49, 98
1, 159360, Note_on_c, 9, 51, 116
1, 159360, Note_on_c, 9, 53, 95
1, 159368, Note_on_c, 10, 48, 113
1, 159371, Note_on_c, 6, 48, 127
1, 159371, Note_on_c, 6, 55, 125
1, 159388, Note_off_c, 9, 35, 0
1, 159388, Note_off_c, 9, 49, 0
1, 159389, Lyric_t, "AL"
1, 159389, Note_on_c, 3, 84, 125
1, 159397, Note_off_c, 7, 72, 0
1, 159398, Note_off_c, 7, 75, 0
1, 159411, Note_off_c, 6, 55, 0
1, 159413, Note_off_c, 7, 67, 0
1, 159421, Note_off_c, 6, 48, 0
1, 159453, Note_off_c, 8, 60, 0
1, 159455, Note_off_c, 8, 55, 0
1, 159484, Note_off_c, 4, 63, 0
1, 159486, Note_off_c, 4, 67, 0
1, 159486, Note_off_c, 4, 70, 0
1, 159542, Note_off_c, 8, 48, 0
1, 159579, Note_off_c, 1, 36, 0
1, 159587, Note_off_c, 10, 48, 0
1, 159600, Note_on_c, 1, 36, 113
1, 159600, Note_on_c, 4, 63, 116
1, 159600, Note_on_c, 4, 67, 87
1, 159600, Note_on_c, 4, 70, 87
1, 159600, Note_on_c, 7, 67, 77
1, 159600, Note_on_c, 7, 72, 106
1, 159600, Note_on_c, 7, 75, 86
1, 159600, Note_on_c, 8, 55, 90
1, 159600, Note_on_c, 8, 60, 102
1, 159600, Note_on_c, 9, 35, 116
1, 159601, Note_off_c, 9, 51, 0
1, 159601, Note_off_c, 9, 53, 0
1, 159608, Note_on_c, 10, 48, 113
1, 159611, Note_on_c, 6, 48, 125
1, 159611, Note_on_c, 6, 55, 125
1, 159628, Note_off_c, 9, 35, 0
1, 159631, Note_off_c, 7, 75, 0
1, 159637, Note_off_c, 7, 72, 0
1, 159644, Note_off_c, 6, 55, 0
1, 159650, Note_off_c, 7, 67, 0
1, 159660, Note_off_c, 6, 48, 0
1, 159662, Note_off_c, 8, 60, 0
1, 159669, Note_off_c, 8, 55, 0
1, 159710, Note_off_c, 4, 63, 0
1, 159711, Note_off_c, 4, 67, 0
1, 159711, Note_off_c, 4, 70, 0
1, 159819, Note_off_c, 1, 36, 0
1, 159827, Note_off_c, 10, 48, 0
1, 159840, Note_on_c, 1, 36, 118
1, 159840, Note_on_c, 4, 65, 102
1, 159840, Note_on_c, 4, 68, 123
1, 159840, Note_on_c, 4, 72, 123
1, 159840, Note_on_c, 7, 67, 120
1, 159840, Note_on_c, 7, 72, 127
1, 159840, Note_on_c, 7, 75, 127
1, 159840, Note_on_c, 8, 48, 127
1, 159840, Note_on_c, 8, 55, 125
1, 159840, Note_on_c, 8, 60, 127
1, 159840, Note_on_c, 9, 39, 85
1, 159840, Note_on_c, 9, 40, 116
1, 159840, Note_on_c, 9, 51, 127
1, 159840, Note_on_c, 9, 53, 110
1, 159840, Note_on_c, 9, 54, 116
1, 159848, Note_on_c, 10, 48, 118
1, 159851, Note_on_c, 6, 48, 127
1, 159851, Note_on_c, 6, 55, 127
1, 159868, Note_off_c, 9, 39, 0
1, 159868, Note_off_c, 9, 40, 0
1, 159868, Note_off_c, 9, 54, 0
1, 159902, Note_off_c, 6, 55, 0
1, 159909, Note_off_c, 7, 72, 0
1, 159914, Note_off_c, 7, 75, 0
1, 159918, Note_off_c, 7, 67, 0
1, 159932, Note_off_c, 6, 48, 0
1, 159981, Note_off_c, 8, 55, 0
1, 160002, Note_off_c, 8, 60, 0
1, 160015, Note_off_c, 8, 48, 0
1, 160059, Note_off_c, 1, 36, 0
1, 160067, Note_off_c, 10, 48, 0
1, 160080, Note_on_c, 1, 36, 113
1, 160080, Note_on_c, 7, 67, 74
1, 160080, Note_on_c, 7, 72, 98
1, 160080, Note_on_c, 7, 75, 97
1, 160080, Note_on_c, 8, 55, 102
1, 160080, Note_on_c, 8, 60, 115
1, 160088, Note_on_c, 10, 48, 113
1, 160091, Note_on_c, 6, 48, 125
1, 160091, Note_on_c, 6, 55, 120
1, 160096, Note_off_c, 9, 51, 0
1, 160104, Note_off_c, 9, 53, 0
1, 160108, Note_off_c, 4, 68, 0
1, 160108, Note_off_c, 4, 72, 0
1, 160128, Note_off_c, 4, 65, 0
1, 160133, Note_off_c, 6, 55, 0
1, 160145, Note_off_c, 7, 72, 0
1, 160151, Note_off_c, 7, 75, 0
1, 160159, Note_off_c, 6, 48, 0
1, 160160, Note_off_c, 7, 67, 0
1, 160172, Note_off_c, 8, 60, 0
1, 160175, Note_off_c, 8, 55, 0
1, 160196, Control_c, 3, 1, 1
1, 160200, Note_on_c, 4, 63, 123
1, 160200, Note_on_c, 4, 67, 115
1, 160200, Note_on_c, 4, 70, 115
1, 160226, Control_c, 3, 1, 4
1, 160256, Control_c, 3, 1, 8
1, 160286, Control_c, 3, 1, 12
1, 160299, Note_off_c, 1, 36, 0
1, 160299, Note_off_c, 4, 63, 0
1, 160300, Note_off_c, 4, 67, 0
1, 160300, Note_off_c, 4, 70, 0
1, 160307, Note_off_c, 10, 48, 0
1, 160316, Control_c, 3, 1, 16
1, 160317, Control_c, 3, 1, 17
1, 160320, Note_on_c, 1, 36, 113
1, 160320, Note_on_c, 7, 67, 106
1, 160320, Note_on_c, 7, 72, 127
1, 160320, Note_on_c, 7, 75, 116
1, 160320, Note_on_c, 8, 55, 115
1, 160320, Note_on_c, 8, 60, 127
1, 160320, Note_on_c, 9, 35, 116
1, 160320, Note_on_c, 9, 51, 116
1, 160320, Note_on_c, 9, 53, 90
1, 160328, Note_on_c, 10, 48, 113
1, 160331, Note_on_c, 6, 48, 127
1, 160331, Note_on_c, 6, 55, 120
1, 160347, Control_c, 3, 1, 20
1, 160348, Note_off_c, 9, 35, 0
1, 160362, Control_c, 3, 1, 22
1, 160388, Note_off_c, 6, 55, 0
1, 160389, Note_off_c, 7, 72, 0
1, 160392, Control_c, 3, 1, 25
1, 160396, Note_off_c, 7, 75, 0
1, 160398, Note_off_c, 7, 67, 0
1, 160405, Note_off_c, 6, 48, 0
1, 160407, Control_c, 3, 1, 27
1, 160437, Control_c, 3, 1, 31
1, 160444, Note_off_c, 8, 60, 0
1, 160448, Note_off_c, 8, 55, 0
1, 160467, Control_c, 3, 1, 35
1, 160497, Control_c, 3, 1, 39
1, 160527, Control_c, 3, 1, 44
1, 160539, Note_off_c, 1, 36, 0
1, 160547, Note_off_c, 10, 48, 0
1, 160557, Control_c, 3, 1, 48
1, 160559, Note_off_c, 9, 51, 0
1, 160560, Note_on_c, 1, 36, 118
1, 160560, Note_on_c, 7, 67, 71
1, 160560, Note_on_c, 7, 72, 90
1, 160560, Note_on_c, 7, 75, 81
1, 160560, Note_on_c, 8, 55, 83
1, 160560, Note_on_c, 8, 60, 102
1, 160560, Note_on_c, 9, 35, 116
1, 160566, Note_off_c, 9, 53, 0
1, 160568, Note_on_c, 10, 48, 118
1, 160571, Note_on_c, 6, 48, 120
1, 160571, Note_on_c, 6, 55, 115
1, 160587, Control_c, 3, 1, 52
1, 160588, Note_off_c, 9, 35, 0
1, 160607, Note_off_c, 7, 72, 0
1, 160607, Note_off_c, 7, 75, 0
1, 160608, Note_off_c, 6, 55, 0
1, 160617, Note_off_c, 6, 48, 0
1, 160617, Note_off_c, 8, 60, 0
1, 160617, Control_c, 3, 1, 57
1, 160624, Note_off_c, 7, 67, 0
1, 160633, Note_off_c, 8, 55, 0
1, 160644, Control_c, 3, 1, 61
1, 160674, Control_c, 3, 1, 65
1, 160679, Control_c, 3, 1, 66
1, 160709, Control_c, 3, 1, 69
1, 160739, Control_c, 3, 1, 73
1, 160761, Control_c, 3, 1, 76
1, 160776, Control_c, 3, 1, 79
1, 160779, Note_off_c, 1, 36, 0
1, 160787, Note_off_c, 10, 48, 0
1, 160791, Control_c, 3, 1, 82
1, 160800, Note_on_c, 1, 36, 113
1, 160800, Note_on_c, 7, 67, 115
1, 160800, Note_on_c, 7, 72, 127
1, 160800, Note_on_c, 7, 75, 123
1, 160800, Note_on_c, 8, 48, 127
1, 160800, Note_on_c, 8, 55, 125
1, 160800, Note_on_c, 8, 60, 127
1, 160800, Note_on_c, 9, 39, 85
1, 160800, Note_on_c, 9, 40, 116
1, 160800, Note_on_c, 9, 51, 127
1, 160800, Note_on_c, 9, 53, 106
1, 160800, Note_on_c, 9, 54, 116
1, 160806, Control_c, 3, 1, 86
1, 160808, Note_on_c, 10, 48, 113
1, 160811, Note_on_c, 6, 48, 127
1, 160811, Note_on_c, 6, 55, 125
1, 160821, Control_c, 3, 1, 89
1, 160828, Note_off_c, 9, 39, 0
1, 160828, Note_off_c, 9, 40, 0
1, 160828, Note_off_c, 9, 54, 0
1, 160836, Control_c, 3, 1, 93
1, 160839, Control_c, 3, 1, 94
1, 160854, Control_c, 3, 1, 97
1, 160869, Control_c, 3, 1, 100
1, 160872, Note_off_c, 6, 55, 0
1, 160873, Note_off_c, 7, 72, 0
1, 160876, Control_c, 3, 1, 102
1, 160888, Note_off_c, 7, 75, 0
1, 160889, Note_off_c, 6, 48, 0
1, 160890, Note_off_c, 7, 67, 0
1, 160910, Note_off_c, 8, 60, 0
1, 160914, Note_off_c, 8, 55, 0
1, 160965, Control_c, 3, 1, 102
1, 160975, Control_c, 3, 1, 0
1, 161005, Note_off_c, 3, 84, 0
1, 161019, Note_off_c, 1, 36, 0
1, 161027, Note_off_c, 10, 48, 0
1, 161034, Note_off_c, 9, 51, 0
1, 161040, Note_off_c, 9, 53, 0
1, 161040, Note_on_c, 1, 36, 118
1, 161040, Note_on_c, 7, 67, 106
1, 161040, Note_on_c, 7, 72, 115
1, 161040, Note_on_c, 7, 75, 105
1, 161040, Note_on_c, 8, 55, 98
1, 161040, Note_on_c, 8, 60, 115
1, 161048, Note_on_c, 10, 48, 118
1, 161051, Note_on_c, 6, 48, 125
1, 161051, Note_on_c, 6, 55, 125
1, 161055, Lyric_t, "L"
1, 161055, Lyric_t, "\015"
1, 161055, Note_on_c, 3, 82, 123
1, 161102, Note_off_c, 7, 72, 0
1, 161109, Note_off_c, 6, 55, 0
1, 161111, Note_off_c, 7, 75, 0
1, 161118, Note_off_c, 8, 60, 0
1, 161122, Note_off_c, 7, 67, 0
1, 161138, Note_off_c, 8, 55, 0
1, 161149, Note_off_c, 6, 48, 0
1, 161251, Note_off_c, 7, 36, 0
1, 161251, Note_off_c, 7, 48, 0
1, 161252, Note_off_c, 8, 48, 0
1, 161259, Note_off_c, 1, 36, 0
1, 161267, Note_off_c, 10, 48, 0
1, 161280, Note_on_c, 1, 34, 113
1, 161280, Note_on_c, 4, 63, 116
1, 161280, Note_on_c, 4, 67, 102
1, 161280, Note_on_c, 4, 70, 102
1, 161280, Note_on_c, 7, 34, 115
1, 161280, Note_on_c, 7, 46, 115
1, 161280, Note_on_c, 7, 65, 83
1, 161280, Note_on_c, 7, 70, 105
1, 161280, Note_on_c, 7, 74, 102
1, 161280, Note_on_c, 8, 53, 90
1, 161280, Note_on_c, 8, 58, 123
1, 161280, Note_on_c, 9, 35, 116
1, 161280, Note_on_c, 9, 51, 116
1, 161280, Note_on_c, 9, 53, 95
1, 161288, Note_on_c, 10, 46, 113
1, 161291, Note_on_c, 6, 46, 127
1, 161291, Note_on_c, 6, 53, 115
1, 161308, Note_off_c, 9, 35, 0
1, 161343, Note_off_c, 7, 74, 0
1, 161354, Note_off_c, 6, 53, 0
1, 161354, Note_off_c, 7, 65, 0
1, 161355, Note_off_c, 7, 70, 0
1, 161361, Note_off_c, 6, 46, 0
1, 161387, Note_off_c, 8, 53, 0
1, 161393, Note_off_c, 8, 58, 0
1, 161404, Note_off_c, 4, 63, 0
1, 161406, Note_off_c, 4, 67, 0
1, 161406, Note_off_c, 4, 70, 0
1, 161499, Note_off_c, 1, 34, 0
1, 161507, Note_off_c, 10, 46, 0
1, 161520, Note_off_c, 3, 82, 0
1, 161520, Note_on_c, 1, 34, 113
1, 161520, Note_on_c, 4, 63, 116
1, 161520, Note_on_c, 4, 67, 87
1, 161520, Note_on_c, 4, 70, 87
1, 161520, Note_on_c, 7, 65, 63
1, 161520, Note_on_c, 7, 70, 81
1, 161520, Note_on_c, 7, 74, 56
1, 161520, Note_on_c, 8, 53, 67
1, 161520, Note_on_c, 8, 58, 86
1, 161520, Note_on_c, 9, 35, 116
1, 161525, Note_off_c, 9, 51, 0
1, 161528, Note_on_c, 10, 46, 113
1, 161531, Note_on_c, 6, 46, 123
1, 161531, Note_on_c, 6, 53, 120
1, 161535, Note_off_c, 9, 53, 0
1, 161548, Note_off_c, 9, 35, 0
1, 161557, Note_off_c, 7, 74, 0
1, 161572, Note_off_c, 7, 65, 0
1, 161573, Note_off_c, 8, 58, 0
1, 161574, Note_off_c, 7, 70, 0
1, 161590, Note_off_c, 6, 53, 0
1, 161592, Note_off_c, 8, 53, 0
1, 161593, Note_off_c, 6, 46, 0
1, 161630, Note_off_c, 4, 63, 0
1, 161631, Note_off_c, 4, 67, 0
1, 161631, Note_off_c, 4, 70, 0
1, 161739, Note_off_c, 1, 34, 0
1, 161747, Note_off_c, 10, 46, 0
1, 161760, Note_on_c, 1, 34, 118
1, 161760, Note_on_c, 4, 65, 102
1, 161760, Note_on_c, 4, 68, 123
1, 161760, Note_on_c, 4, 72, 123
1, 161760, Note_on_c, 7, 65, 106
1, 161760, Note_on_c, 7, 70, 116
1, 161760, Note_on_c, 7, 74, 115
1, 161760, Note_on_c, 8, 46, 127
1, 161760, Note_on_c, 8, 53, 110
1, 161760, Note_on_c, 8, 58, 127
1, 161760, Note_on_c, 9, 39, 85
1, 161760, Note_on_c, 9, 40, 116
1, 161760, Note_on_c, 9, 51, 127
1, 161760, Note_on_c, 9, 53, 106
1, 161760, Note_on_c, 9, 54, 116
1, 161768, Note_on_c, 10, 46, 118
1, 161771, Note_on_c, 6, 46, 127
1, 161771, Note_on_c, 6, 53, 125
1, 161788, Note_off_c, 9, 39, 0
1, 161788, Note_off_c, 9, 40, 0
1, 161788, Note_off_c, 9, 54, 0
1, 161830, Note_off_c, 7, 65, 0
1, 161830, Note_off_c, 7, 70, 0
1, 161843, Note_off_c, 7, 74, 0
1, 161849, Note_off_c, 6, 53, 0
1, 161877, Note_off_c, 6, 46, 0
1, 161890, Note_off_c, 8, 53, 0
1, 161891, Note_off_c, 8, 58, 0
1, 161979, Note_off_c, 1, 34, 0
1, 161987, Note_off_c, 10, 46, 0
1, 161994, Note_off_c, 9, 51, 0
1, 161999, Note_off_c, 9, 53, 0
1, 162000, Note_on_c, 1, 34, 113
1, 162000, Note_on_c, 7, 65, 74
1, 162000, Note_on_c, 7, 70, 93
1, 162000, Note_on_c, 7, 74, 83
1, 162000, Note_on_c, 8, 53, 80
1, 162000, Note_on_c, 8, 58, 116
1, 162008, Note_on_c, 10, 46, 113
1, 162011, Note_on_c, 6, 46, 111
1, 162011, Note_on_c, 6, 53, 106
1, 162023, Lyric_t, "ROL"
1, 162023, Note_on_c, 3, 79, 125
1, 162028, Note_off_c, 4, 68, 0
1, 162028, Note_off_c, 4, 72, 0
1, 162048, Note_off_c, 4, 65, 0
1, 162066, Note_off_c, 7, 65, 0
1, 162068, Note_off_c, 7, 70, 0
1, 162076, Note_off_c, 6, 53, 0
1, 162076, Note_off_c, 7, 74, 0
1, 162080, Note_off_c, 6, 46, 0
1, 162086, Note_off_c, 3, 79, 0
1, 162089, Note_off_c, 8, 53, 0
1, 162097, Note_off_c, 8, 58, 0
1, 162120, Note_on_c, 4, 63, 123
1, 162120, Note_on_c, 4, 67, 115
1, 162120, Note_on_c, 4, 70, 115
1, 162219, Note_off_c, 1, 34, 0
1, 162219, Note_off_c, 4, 63, 0
1, 162220, Note_off_c, 4, 67, 0
1, 162220, Note_off_c, 4, 70, 0
1, 162227, Note_off_c, 10, 46, 0
1, 162240, Note_on_c, 1, 34, 113
1, 162240, Note_on_c, 7, 65, 90
1, 162240, Note_on_c, 7, 70, 101
1, 162240, Note_on_c, 7, 74, 98
1, 162240, Note_on_c, 8, 53, 90
1, 162240, Note_on_c, 8, 58, 123
1, 162240, Note_on_c, 9, 35, 116
1, 162240, Note_on_c, 9, 51, 123
1, 162240, Note_on_c, 9, 53, 90
1, 162248, Note_on_c, 10, 46, 113
1, 162251, Note_on_c, 6, 46, 127
1, 162251, Note_on_c, 6, 53, 120
1, 162267, Note_on_c, 3, 82, 127
1, 162268, Note_off_c, 9, 35, 0
1, 162306, Note_off_c, 7, 65, 0
1, 162309, Note_off_c, 7, 70, 0
1, 162324, Note_off_c, 7, 74, 0
1, 162327, Note_off_c, 6, 53, 0
1, 162333, Note_off_c, 6, 46, 0
1, 162337, Note_off_c, 8, 53, 0
1, 162349, Note_off_c, 8, 58, 0
1, 162455, Note_off_c, 9, 51, 0
1, 162459, Note_off_c, 1, 34, 0
1, 162460, Note_off_c, 9, 53, 0
1, 162467, Note_off_c, 10, 46, 0
1, 162474, Note_off_c, 3, 82, 0
1, 162480, Note_on_c, 1, 34, 118
1, 162480, Note_on_c, 7, 65, 74
1, 162480, Note_on_c, 7, 70, 89
1, 162480, Note_on_c, 7, 74, 90
1, 162480, Note_on_c, 8, 53, 63
1, 162480, Note_on_c, 8, 58, 97
1, 162480, Note_on_c, 9, 35, 116
1, 162481, Note_off_c, 8, 46, 0
1, 162488, Note_on_c, 10, 46, 118
1, 162491, Note_on_c, 6, 46, 116
1, 162491, Note_on_c, 6, 53, 110
1, 162508, Note_off_c, 9, 35, 0
1, 162512, Lyric_t, "LING "
1, 162512, Note_on_c, 3, 79, 106
1, 162525, Note_off_c, 8, 58, 0
1, 162531, Note_off_c, 8, 53, 0
1, 162538, Note_off_c, 7, 70, 0
1, 162540, Note_off_c, 7, 65, 0
1, 162552, Note_off_c, 7, 74, 0
1, 162556, Note_off_c, 6, 53, 0
1, 162560, Note_off_c, 6, 46, 0
1, 162580, Note_off_c, 3, 79, 0
1, 162699, Note_off_c, 1, 34, 0
1, 162707, Note_off_c, 10, 46, 0
1, 162720, Note_on_c, 1, 34, 113
1, 162720, Note_on_c, 7, 65, 98
1, 162720, Note_on_c, 7, 70, 111
1, 162720, Note_on_c, 7, 74, 106
1, 162720, Note_on_c, 8, 46, 123
1, 162720, Note_on_c, 8, 53, 102
1, 162720, Note_on_c, 8, 58, 127
1, 162720, Note_on_c, 9, 39, 85
1, 162720, Note_on_c, 9, 40, 116
1, 162720, Note_on_c, 9, 51, 127
1, 162720, Note_on_c, 9, 53, 106
1, 162720, Note_on_c, 9, 54, 116
1, 162728, Note_on_c, 10, 46, 113
1, 162731, Note_on_c, 6, 46, 127
1, 162731, Note_on_c, 6, 53, 120
1, 162742, Lyric_t, "IN "
1, 162742, Note_on_c, 3, 82, 127
1, 162748, Note_off_c, 9, 39, 0
1, 162748, Note_off_c, 9, 40, 0
1, 162748, Note_off_c, 9, 54, 0
1, 162782, Note_off_c, 7, 65, 0
1, 162785, Note_off_c, 7, 70, 0
1, 162792, Note_off_c, 7, 74, 0
1, 162803, Note_off_c, 6, 53, 0
1, 162810, Note_off_c, 6, 46, 0
1, 162823, Note_off_c, 8, 53, 0
1, 162837, Note_off_c, 8, 58, 0
1, 162935, Note_off_c, 3, 82, 0
1, 162939, Note_off_c, 1, 34, 0
1, 162947, Note_off_c, 10, 46, 0
1, 162954, Note_off_c, 9, 51, 0
1, 162960, Note_on_c, 1, 34, 118
1, 162960, Note_on_c, 7, 65, 98
1, 162960, Note_on_c, 7, 70, 105
1, 162960, Note_on_c, 7, 74, 106
1, 162960, Note_on_c, 8, 53, 98
1, 162960, Note_on_c, 8, 58, 111
1, 162966, Note_off_c, 9, 53, 0
1, 162968, Note_on_c, 10, 46, 118
1, 162971, Note_on_c, 6, 46, 123
1, 162971, Note_on_c, 6, 53, 115
1, 162973, Lyric_t, "THE "
1, 162973, Note_on_c, 3, 79, 106
1, 163016, Note_off_c, 7, 65, 0
1, 163019, Note_off_c, 7, 70, 0
1, 163023, Note_off_c, 8, 58, 0
1, 163032, Note_off_c, 7, 74, 0
1, 163042, Note_off_c, 6, 46, 0
1, 163051, Note_off_c, 6, 53, 0
1, 163053, Note_off_c, 8, 53, 0
1, 163074, Note_off_c, 3, 79, 0
1, 163171, Note_off_c, 7, 34, 0
1, 163171, Note_off_c, 7, 46, 0
1, 163179, Note_off_c, 1, 34, 0
1, 163187, Note_off_c, 10, 46, 0
1, 163193, Note_off_c, 8, 46, 0
1, 163200, Note_on_c, 1, 32, 113
1, 163200, Note_on_c, 4, 63, 116
1, 163200, Note_on_c, 4, 67, 102
1, 163200, Note_on_c, 4, 70, 102
1, 163200, Note_on_c, 7, 32, 115
1, 163200, Note_on_c, 7, 44, 115
1, 163200, Note_on_c, 7, 60, 125
1, 163200, Note_on_c, 7, 63, 116
1, 163200, Note_on_c, 7, 67, 115
1, 163200, Note_on_c, 8, 51, 127
1, 163200, Note_on_c, 8, 56, 123
1, 163200, Note_on_c, 9, 35, 116
1, 163200, Note_on_c, 9, 51, 116
1, 163200, Note_on_c, 9, 53, 90
1, 163208, Note_on_c, 10, 44, 113
1, 163211, Note_on_c, 6, 44, 116
1, 163211, Note_on_c, 6, 51, 127
1, 163221, Lyric_t, "DEE"
1, 163221, Note_on_c, 3, 84, 125
1, 163228, Note_off_c, 9, 35, 0
1, 163257, Note_off_c, 7, 63, 0
1, 163260, Note_off_c, 7, 60, 0
1, 163269, Note_off_c, 7, 67, 0
1, 163272, Note_off_c, 6, 51, 0
1, 163314, Note_off_c, 6, 44, 0
1, 163324, Note_off_c, 4, 63, 0
1, 163325, Note_off_c, 8, 51, 0
1, 163326, Note_off_c, 4, 67, 0
1, 163326, Note_off_c, 4, 70, 0
1, 163353, Note_off_c, 8, 56, 0
1, 163419, Note_off_c, 1, 32, 0
1, 163427, Note_off_c, 10, 44, 0
1, 163428, Note_off_c, 9, 51, 0
1, 163434, Note_off_c, 9, 53, 0
1, 163440, Note_on_c, 1, 32, 113
1, 163440, Note_on_c, 4, 63, 116
1, 163440, Note_on_c, 4, 67, 87
1, 163440, Note_on_c, 4, 70, 87
1, 163440, Note_on_c, 7, 60, 110
1, 163440, Note_on_c, 7, 63, 105
1, 163440, Note_on_c, 7, 67, 102
1, 163440, Note_on_c, 8, 51, 101
1, 163440, Note_on_c, 8, 56, 86
1, 163440, Note_on_c, 9, 35, 116
1, 163448, Note_on_c, 10, 44, 113
1, 163451, Note_on_c, 6, 44, 116
1, 163451, Note_on_c, 6, 51, 116
1, 163468, Note_off_c, 9, 35, 0
1, 163482, Note_off_c, 7, 60, 0
1, 163486, Note_off_c, 7, 63, 0
1, 163486, Note_off_c, 8, 56, 0
1, 163491, Note_off_c, 7, 67, 0
1, 163496, Note_off_c, 6, 51, 0
1, 163496, Note_off_c, 8, 51, 0
1, 163519, Note_off_c, 6, 44, 0
1, 163550, Note_off_c, 4, 63, 0
1, 163551, Note_off_c, 4, 67, 0
1, 163551, Note_off_c, 4, 70, 0
1, 163659, Note_off_c, 1, 32, 0
1, 163667, Note_off_c, 10, 44, 0
1, 163680, Note_on_c, 1, 32, 118
1, 163680, Note_on_c, 4, 65, 102
1, 163680, Note_on_c, 4, 68, 123
1, 163680, Note_on_c, 4, 72, 123
1, 163680, Note_on_c, 7, 60, 127
1, 163680, Note_on_c, 7, 63, 123
1, 163680, Note_on_c, 7, 67, 125
1, 163680, Note_on_c, 8, 44, 123
1, 163680, Note_on_c, 8, 51, 127
1, 163680, Note_on_c, 8, 54, 123
1, 163680, Note_on_c, 8, 56, 127
1, 163680, Note_on_c, 9, 39, 85
1, 163680, Note_on_c, 9, 40, 116
1, 163680, Note_on_c, 9, 51, 123
1, 163680, Note_on_c, 9, 53, 106
1, 163680, Note_on_c, 9, 54, 116
1, 163688, Note_on_c, 10, 44, 118
1, 163691, Note_on_c, 6, 44, 127
1, 163691, Note_on_c, 6, 51, 127
1, 163695, Note_off_c, 8, 54, 0
1, 163708, Note_off_c, 9, 39, 0
1, 163708, Note_off_c, 9, 40, 0
1, 163708, Note_off_c, 9, 54, 0
1, 163738, Note_off_c, 7, 60, 0
1, 163740, Note_off_c, 7, 63, 0
1, 163753, Note_off_c, 6, 51, 0
1, 163755, Note_off_c, 7, 67, 0
1, 163767, Note_off_c, 8, 51, 0
1, 163787, Note_off_c, 6, 44, 0
1, 163792, Note_off_c, 8, 56, 0
1, 163899, Note_off_c, 1, 32, 0
1, 163907, Note_off_c, 10, 44, 0
1, 163918, Note_off_c, 9, 51, 0
1, 163918, Note_off_c, 9, 53, 0
1, 163920, Note_on_c, 1, 32, 113
1, 163920, Note_on_c, 7, 60, 125
1, 163920, Note_on_c, 7, 63, 111
1, 163920, Note_on_c, 7, 67, 102
1, 163920, Note_on_c, 8, 51, 111
1, 163920, Note_on_c, 8, 56, 101
1, 163928, Note_on_c, 10, 44, 113
1, 163931, Note_on_c, 6, 44, 116
1, 163931, Note_on_c, 6, 51, 116
1, 163948, Note_off_c, 4, 68, 0
1, 163948, Note_off_c, 4, 72, 0
1, 163968, Note_off_c, 4, 65, 0
1, 163973, Note_off_c, 7, 60, 0
1, 163973, Note_off_c, 7, 63, 0
1, 163981, Note_off_c, 7, 67, 0
1, 163987, Note_off_c, 6, 51, 0
1, 163995, Note_off_c, 8, 51, 0
1, 163997, Note_off_c, 8, 56, 0
1, 164013, Note_off_c, 6, 44, 0
1, 164040, Note_on_c, 4, 63, 123
1, 164040, Note_on_c, 4, 67, 115
1, 164040, Note_on_c, 4, 70, 115
1, 164139, Note_off_c, 1, 32, 0
1, 164139, Note_off_c, 4, 63, 0
1, 164140, Note_off_c, 4, 67, 0
1, 164140, Note_off_c, 4, 70, 0
1, 164147, Note_off_c, 10, 44, 0
1, 164160, Note_on_c, 1, 32, 113
1, 164160, Note_on_c, 7, 60, 120
1, 164160, Note_on_c, 7, 63, 116
1, 164160, Note_on_c, 7, 67, 110
1, 164160, Note_on_c, 8, 51, 123
1, 164160, Note_on_c, 8, 54, 86
1, 164160, Note_on_c, 8, 56, 116
1, 164160, Note_on_c, 9, 35, 116
1, 164160, Note_on_c, 9, 51, 116
1, 164160, Note_on_c, 9, 53, 87
1, 164166, Note_off_c, 8, 54, 0
1, 164168, Note_on_c, 10, 44, 113
1, 164171, Note_on_c, 6, 44, 123
1, 164171, Note_on_c, 6, 51, 127
1, 164188, Note_off_c, 9, 35, 0
1, 164214, Note_off_c, 7, 60, 0
1, 164221, Note_off_c, 7, 63, 0
1, 164229, Note_off_c, 7, 67, 0
1, 164233, Note_off_c, 8, 51, 0
1, 164236, Note_off_c, 6, 51, 0
1, 164248, Note_off_c, 8, 56, 0
1, 164261, Note_off_c, 6, 44, 0
1, 164379, Note_off_c, 1, 32, 0
1, 164384, Note_off_c, 9, 53, 0
1, 164385, Note_off_c, 9, 51, 0
1, 164387, Note_off_c, 10, 44, 0
1, 164400, Note_on_c, 1, 32, 118
1, 164400, Note_on_c, 7, 60, 115
1, 164400, Note_on_c, 7, 63, 111
1, 164400, Note_on_c, 7, 67, 106
1, 164400, Note_on_c, 8, 51, 101
1, 164400, Note_on_c, 8, 56, 75
1, 164400, Note_on_c, 9, 35, 116
1, 164408, Note_on_c, 10, 44, 118
1, 164411, Note_on_c, 6, 44, 123
1, 164411, Note_on_c, 6, 51, 123
1, 164428, Note_off_c, 9, 35, 0
1, 164434, Note_off_c, 8, 56, 0
1, 164439, Note_off_c, 8, 51, 0
1, 164456, Note_off_c, 7, 60, 0
1, 164461, Note_off_c, 7, 63, 0
1, 164467, Note_off_c, 6, 51, 0
1, 164474, Note_off_c, 7, 67, 0
1, 164483, Note_off_c, 6, 44, 0
1, 164619, Note_off_c, 1, 32, 0
1, 164627, Note_off_c, 10, 44, 0
1, 164640, Note_on_c, 1, 32, 113
1, 164640, Note_on_c, 7, 60, 120
1, 164640, Note_on_c, 7, 63, 116
1, 164640, Note_on_c, 7, 67, 90
1, 164640, Note_on_c, 8, 51, 127
1, 164640, Note_on_c, 8, 56, 127
1, 164640, Note_on_c, 9, 39, 85
1, 164640, Note_on_c, 9, 40, 116
1, 164640, Note_on_c, 9, 51, 127
1, 164640, Note_on_c, 9, 53, 102
1, 164640, Note_on_c, 9, 54, 116
1, 164646, Pitch_bend_c, 3, 8712
1, 164648, Note_on_c, 10, 44, 113
1, 164651, Note_on_c, 6, 44, 127
1, 164651, Note_on_c, 6, 51, 127
1, 164656, Pitch_bend_c, 3, 12482
1, 164666, Pitch_bend_c, 3, 16383
1, 164668, Note_off_c, 9, 39, 0
1, 164668, Note_off_c, 9, 40, 0
1, 164668, Note_off_c, 9, 54, 0
1, 164695, Note_off_c, 7, 60, 0
1, 164700, Note_off_c, 7, 63, 0
1, 164710, Note_off_c, 7, 67, 0
1, 164715, Note_off_c, 6, 51, 0
1, 164730, Note_off_c, 8, 51, 0
1, 164731, Note_off_c, 6, 44, 0
1, 164744, Note_off_c, 8, 56, 0
1, 164804, Control_c, 3, 1, 0
1, 164814, Control_c, 3, 1, 1
1, 164856, Note_off_c, 3, 84, 0
1, 164859, Note_off_c, 1, 32, 0
1, 164865, Control_c, 3, 1, 1
1, 164867, Note_off_c, 10, 44, 0
1, 164874, Note_off_c, 9, 51, 0
1, 164876, Note_off_c, 8, 44, 0
1, 164879, Note_off_c, 9, 53, 0
1, 164880, Note_on_c, 1, 32, 118
1, 164880, Note_on_c, 7, 60, 120
1, 164880, Note_on_c, 7, 63, 116
1, 164880, Note_on_c, 7, 67, 110
1, 164880, Note_on_c, 8, 51, 116
1, 164880, Note_on_c, 8, 56, 111
1, 164881, Lyric_t, "P"
1, 164881, Lyric_t, "\015"
1, 164881, Note_on_c, 3, 82, 123
1, 164883, Pitch_bend_c, 3, 8192
1, 164888, Note_on_c, 10, 44, 118
1, 164891, Note_on_c, 6, 44, 123
1, 164891, Note_on_c, 6, 51, 123
1, 164898, Pitch_bend_c, 3, 8192
1, 164931, Note_off_c, 8, 51, 0
1, 164935, Note_off_c, 7, 60, 0
1, 164942, Note_off_c, 7, 63, 0
1, 164949, Note_off_c, 6, 51, 0
1, 164949, Note_off_c, 7, 67, 0
1, 164949, Note_off_c, 8, 56, 0
1, 164956, Note_off_c, 6, 44, 0
1, 165091, Note_off_c, 7, 32, 0
1, 165091, Note_off_c, 7, 44, 0
1, 165099, Note_off_c, 1, 32, 0
1, 165107, Note_off_c, 10, 44, 0
1, 165120, Note_on_c, 1, 32, 113
1, 165120, Note_on_c, 4, 63, 116
1, 165120, Note_on_c, 4, 67, 102
1, 165120, Note_on_c, 4, 70, 102
1, 165120, Note_on_c, 7, 32, 115
1, 165120, Note_on_c, 7, 44, 115
1, 165120, Note_on_c, 7, 60, 125
1, 165120, Note_on_c, 7, 63, 111
1, 165120, Note_on_c, 7, 67, 110
1, 165120, Note_on_c, 8, 44, 116
1, 165120, Note_on_c, 8, 51, 127
1, 165120, Note_on_c, 8, 54, 116
1, 165120, Note_on_c, 8, 56, 127
1, 165120, Note_on_c, 9, 35, 116
1, 165120, Note_on_c, 9, 51, 116
1, 165120, Note_on_c, 9, 53, 87
1, 165128, Note_on_c, 10, 44, 113
1, 165129, Note_off_c, 8, 54, 0
1, 165131, Note_on_c, 6, 44, 123
1, 165131, Note_on_c, 6, 51, 127
1, 165148, Note_off_c, 9, 35, 0
1, 165174, Note_off_c, 7, 60, 0
1, 165176, Note_off_c, 7, 63, 0
1, 165186, Note_off_c, 7, 67, 0
1, 165194, Note_off_c, 8, 51, 0
1, 165197, Note_off_c, 6, 51, 0
1, 165214, Note_off_c, 8, 56, 0
1, 165218, Note_off_c, 6, 44, 0
1, 165244, Note_off_c, 4, 63, 0
1, 165246, Note_off_c, 4, 67, 0
1, 165246, Note_off_c, 4, 70, 0
1, 165339, Note_off_c, 1, 32, 0
1, 165339, Note_off_c, 9, 51, 0
1, 165341, Note_off_c, 9, 53, 0
1, 165347, Note_off_c, 10, 44, 0
1, 165360, Note_on_c, 1, 32, 113
1, 165360, Note_on_c, 4, 63, 116
1, 165360, Note_on_c, 4, 67, 87
1, 165360, Note_on_c, 4, 70, 87
1, 165360, Note_on_c, 7, 60, 106
1, 165360, Note_on_c, 7, 63, 101
1, 165360, Note_on_c, 7, 67, 95
1, 165360, Note_on_c, 8, 51, 123
1, 165360, Note_on_c, 8, 54, 89
1, 165360, Note_on_c, 8, 56, 116
1, 165360, Note_on_c, 9, 35, 116
1, 165364, Note_off_c, 8, 54, 0
1, 165368, Note_on_c, 10, 44, 113
1, 165371, Note_on_c, 6, 44, 123
1, 165371, Note_on_c, 6, 51, 127
1, 165388, Note_off_c, 9, 35, 0
1, 165410, Note_off_c, 8, 51, 0
1, 165412, Note_off_c, 8, 56, 0
1, 165416, Note_off_c, 7, 60, 0
1, 165422, Note_off_c, 7, 63, 0
1, 165427, Note_off_c, 7, 67, 0
1, 165430, Note_off_c, 6, 51, 0
1, 165452, Note_off_c, 6, 44, 0
1, 165470, Note_off_c, 4, 63, 0
1, 165471, Note_off_c, 4, 67, 0
1, 165471, Note_off_c, 4, 70, 0
1, 165488, Note_off_c, 3, 82, 0
1, 165579, Note_off_c, 1, 32, 0
1, 165587, Note_off_c, 10, 44, 0
1, 165600, Note_on_c, 1, 32, 118
1, 165600, Note_on_c, 4, 65, 102
1, 165600, Note_on_c, 4, 68, 123
1, 165600, Note_on_c, 4, 72, 123
1, 165600, Note_on_c, 7, 60, 125
1, 165600, Note_on_c, 7, 63, 116
1, 165600, Note_on_c, 7, 67, 110
1, 165600, Note_on_c, 8, 51, 127
1, 165600, Note_on_c, 8, 54, 97
1, 165600, Note_on_c, 8, 56, 127
1, 165600, Note_on_c, 9, 39, 85
1, 165600, Note_on_c, 9, 40, 116
1, 165600, Note_on_c, 9, 51, 127
1, 165600, Note_on_c, 9, 53, 106
1, 165600, Note_on_c, 9, 54, 116
1, 165604, Note_off_c, 8, 54, 0
1, 165608, Note_on_c, 10, 44, 118
1, 165611, Note_on_c, 6, 44, 127
1, 165611, Note_on_c, 6, 51, 127
1, 165628, Note_off_c, 9, 39, 0
1, 165628, Note_off_c, 9, 40, 0
1, 165628, Note_off_c, 9, 54, 0
1, 165656, Note_off_c, 7, 60, 0
1, 165662, Note_off_c, 7, 63, 0
1, 165672, Note_off_c, 7, 67, 0
1, 165679, Note_off_c, 6, 51, 0
1, 165682, Note_off_c, 8, 51, 0
1, 165694, Note_off_c, 6, 44, 0
1, 165702, Note_off_c, 8, 56, 0
1, 165814, Note_off_c, 9, 51, 0
1, 165819, Note_off_c, 1, 32, 0
1, 165820, Note_off_c, 9, 53, 0
1, 165827, Note_off_c, 10, 44, 0
1, 165840, Note_on_c, 1, 32, 113
1, 165840, Note_on_c, 7, 60, 115
1, 165840, Note_on_c, 7, 63, 111
1, 165840, Note_on_c, 7, 67, 110
1, 165840, Note_on_c, 8, 51, 116
1, 165840, Note_on_c, 8, 54, 101
1, 165840, Note_on_c, 8, 56, 123
1, 165846, Note_off_c, 8, 54, 0
1, 165848, Note_on_c, 10, 44, 113
1, 165851, Note_on_c, 6, 44, 123
1, 165851, Note_on_c, 6, 51, 127
1, 165863, Lyric_t, "YOU "
1, 165863, Note_on_c, 3, 79, 125
1, 165868, Note_off_c, 4, 68, 0
1, 165868, Note_off_c, 4, 72, 0
1, 165888, Note_off_c, 4, 65, 0
1, 165898, Note_off_c, 7, 60, 0
1, 165901, Note_off_c, 7, 63, 0
1, 165902, Note_off_c, 8, 51, 0
1, 165914, Note_off_c, 6, 51, 0
1, 165917, Note_off_c, 7, 67, 0
1, 165917, Note_off_c, 8, 56, 0
1, 165926, Note_off_c, 3, 79, 0
1, 165941, Note_off_c, 6, 44, 0
1, 165960, Note_on_c, 4, 63, 123
1, 165960, Note_on_c, 4, 67, 115
1, 165960, Note_on_c, 4, 70, 115
1, 165996, Note_off_c, 8, 44, 0
1, 166051, Note_off_c, 7, 32, 0
1, 166051, Note_off_c, 7, 44, 0
1, 166059, Note_off_c, 1, 32, 0
1, 166059, Note_off_c, 4, 63, 0
1, 166060, Note_off_c, 4, 67, 0
1, 166060, Note_off_c, 4, 70, 0
1, 166067, Note_off_c, 10, 44, 0
1, 166080, Note_on_c, 1, 34, 113
1, 166080, Note_on_c, 7, 34, 115
1, 166080, Note_on_c, 7, 46, 115
1, 166080, Note_on_c, 7, 62, 98
1, 166080, Note_on_c, 7, 65, 90
1, 166080, Note_on_c, 7, 70, 101
1, 166080, Note_on_c, 8, 53, 102
1, 166080, Note_on_c, 8, 58, 123
1, 166080, Note_on_c, 9, 35, 116
1, 166080, Note_on_c, 9, 51, 116
1, 166080, Note_on_c, 9, 53, 83
1, 166088, Note_on_c, 10, 46, 113
1, 166091, Note_on_c, 6, 46, 127
1, 166091, Note_on_c, 6, 53, 115
1, 166107, Lyric_t, "HAD "
1, 166107, Note_on_c, 3, 82, 127
1, 166108, Note_off_c, 9, 35, 0
1, 166146, Note_off_c, 7, 65, 0
1, 166149, Note_off_c, 7, 70, 0
1, 166157, Note_off_c, 8, 53, 0
1, 166159, Note_off_c, 6, 53, 0
1, 166162, Note_off_c, 6, 46, 0
1, 166164, Note_off_c, 7, 62, 0
1, 166168, Note_off_c, 8, 58, 0
1, 166276, Note_off_c, 9, 51, 0
1, 166281, Note_off_c, 9, 53, 0
1, 166299, Note_off_c, 1, 34, 0
1, 166307, Note_off_c, 10, 46, 0
1, 166314, Note_off_c, 3, 82, 0
1, 166320, Note_on_c, 1, 34, 118
1, 166320, Note_on_c, 7, 62, 90
1, 166320, Note_on_c, 7, 65, 74
1, 166320, Note_on_c, 7, 70, 89
1, 166320, Note_on_c, 8, 53, 110
1, 166320, Note_on_c, 8, 58, 127
1, 166320, Note_on_c, 9, 35, 116
1, 166328, Note_on_c, 10, 46, 118
1, 166331, Note_on_c, 6, 46, 127
1, 166331, Note_on_c, 6, 53, 115
1, 166348, Note_off_c, 9, 35, 0
1, 166352, Lyric_t, "MY "
1, 166352, Note_on_c, 3, 79, 106
1, 166378, Note_off_c, 7, 70, 0
1, 166380, Note_off_c, 7, 65, 0
1, 166387, Note_off_c, 8, 53, 0
1, 166392, Note_off_c, 7, 62, 0
1, 166394, Note_off_c, 6, 53, 0
1, 166395, Note_off_c, 8, 58, 0
1, 166403, Note_off_c, 6, 46, 0
1, 166420, Note_off_c, 3, 79, 0
1, 166539, Note_off_c, 1, 34, 0
1, 166547, Note_off_c, 10, 46, 0
1, 166560, Note_on_c, 1, 34, 113
1, 166560, Note_on_c, 7, 62, 106
1, 166560, Note_on_c, 7, 65, 98
1, 166560, Note_on_c, 7, 70, 111
1, 166560, Note_on_c, 8, 53, 110
1, 166560, Note_on_c, 8, 58, 127
1, 166560, Note_on_c, 9, 39, 85
1, 166560, Note_on_c, 9, 40, 116
1, 166560, Note_on_c, 9, 51, 123
1, 166560, Note_on_c, 9, 53, 106
1, 166560, Note_on_c, 9, 54, 116
1, 166568, Note_on_c, 10, 46, 113
1, 166571, Note_on_c, 6, 46, 123
1, 166571, Note_on_c, 6, 53, 110
1, 166582, Lyric_t, "HEART "
1, 166582, Note_on_c, 3, 82, 127
1, 166588, Note_off_c, 9, 39, 0
1, 166588, Note_off_c, 9, 40, 0
1, 166588, Note_off_c, 9, 54, 0
1, 166622, Note_off_c, 7, 65, 0
1, 166625, Note_off_c, 7, 70, 0
1, 166632, Note_off_c, 7, 62, 0
1, 166637, Note_off_c, 6, 53, 0
1, 166641, Note_off_c, 8, 53, 0
1, 166644, Note_off_c, 6, 46, 0
1, 166649, Note_off_c, 8, 58, 0
1, 166775, Note_off_c, 3, 82, 0
1, 166779, Note_off_c, 1, 34, 0
1, 166787, Note_off_c, 10, 46, 0
1, 166798, Note_off_c, 9, 51, 0
1, 166800, Note_off_c, 9, 53, 0
1, 166800, Note_on_c, 1, 34, 118
1, 166800, Note_on_c, 7, 62, 106
1, 166800, Note_on_c, 7, 65, 98
1, 166800, Note_on_c, 7, 70, 105
1, 166800, Note_on_c, 8, 53, 115
1, 166800, Note_on_c, 8, 58, 123
1, 166800, Note_on_c, 9, 40, 116
1, 166808, Note_on_c, 10, 46, 118
1, 166811, Note_on_c, 6, 46, 127
1, 166811, Note_on_c, 6, 53, 125
1, 166813, Lyric_t, "IN"
1, 166813, Note_on_c, 3, 79, 106
1, 166828, Note_off_c, 9, 40, 0
1, 166856, Note_off_c, 7, 65, 0
1, 166859, Note_off_c, 7, 70, 0
1, 166872, Note_off_c, 6, 53, 0
1, 166872, Note_off_c, 7, 62, 0
1, 166882, Note_off_c, 6, 46, 0
1, 166885, Note_off_c, 8, 53, 0
1, 166888, Note_off_c, 8, 58, 0
1, 166914, Note_off_c, 3, 79, 0
1, 166920, Note_on_c, 9, 40, 116
1, 166948, Note_off_c, 9, 40, 0
1, 167011, Note_off_c, 7, 34, 0
1, 167011, Note_off_c, 7, 46, 0
1, 167019, Note_off_c, 1, 34, 0
1, 167027, Note_off_c, 10, 46, 0
1, 167040, Note_on_c, 1, 36, 113
1, 167040, Note_on_c, 4, 63, 116
1, 167040, Note_on_c, 4, 67, 102
1, 167040, Note_on_c, 4, 70, 102
1, 167040, Note_on_c, 7, 36, 115
1, 167040, Note_on_c, 7, 48, 115
1, 167040, Note_on_c, 7, 67, 106
1, 167040, Note_on_c, 7, 72, 125
1, 167040, Note_on_c, 7, 75, 116
1, 167040, Note_on_c, 8, 48, 125
1, 167040, Note_on_c, 8, 55, 115
1, 167040, Note_on_c, 8, 60, 120
1, 167040, Note_on_c, 9, 35, 116
1, 167040, Note_on_c, 9, 49, 98
1, 167040, Note_on_c, 9, 51, 116
1, 167040, Note_on_c, 9, 53, 83
1, 167048, Note_on_c, 10, 48, 113
1, 167051, Note_on_c, 6, 48, 127
1, 167051, Note_on_c, 6, 55, 125
1, 167054, Lyric_t, "SIDE"
1, 167054, Lyric_t, "\015"
1, 167054, Note_on_c, 3, 84, 115
1, 167068, Note_off_c, 9, 35, 0
1, 167068, Note_off_c, 9, 49, 0
1, 167077, Note_off_c, 7, 72, 0
1, 167078, Note_off_c, 7, 75, 0
1, 167091, Note_off_c, 6, 55, 0
1, 167093, Note_off_c, 7, 67, 0
1, 167101, Note_off_c, 6, 48, 0
1, 167133, Note_off_c, 8, 60, 0
1, 167135, Note_off_c, 8, 55, 0
1, 167164, Note_off_c, 4, 63, 0
1, 167166, Note_off_c, 4, 67, 0
1, 167166, Note_off_c, 4, 70, 0
1, 167222, Note_off_c, 8, 48, 0
1, 167238, Note_off_c, 9, 51, 0
1, 167238, Note_off_c, 9, 53, 0
1, 167259, Note_off_c, 1, 36, 0
1, 167267, Note_off_c, 10, 48, 0
1, 167280, Note_on_c, 1, 36, 113
1, 167280, Note_on_c, 4, 63, 116
1, 167280, Note_on_c, 4, 67, 87
1, 167280, Note_on_c, 4, 70, 87
1, 167280, Note_on_c, 7, 67, 77
1, 167280, Note_on_c, 7, 72, 106
1, 167280, Note_on_c, 7, 75, 86
1, 167280, Note_on_c, 8, 55, 90
1, 167280, Note_on_c, 8, 60, 102
1, 167280, Note_on_c, 9, 35, 116
1, 167288, Note_on_c, 10, 48, 113
1, 167291, Note_on_c, 6, 48, 125
1, 167291, Note_on_c, 6, 55, 125
1, 167308, Note_off_c, 9, 35, 0
1, 167311, Note_off_c, 7, 75, 0
1, 167317, Note_off_c, 7, 72, 0
1, 167324, Note_off_c, 6, 55, 0
1, 167330, Note_off_c, 7, 67, 0
1, 167340, Note_off_c, 6, 48, 0
1, 167342, Note_off_c, 8, 60, 0
1, 167349, Note_off_c, 8, 55, 0
1, 167390, Note_off_c, 4, 63, 0
1, 167391, Note_off_c, 4, 67, 0
1, 167391, Note_off_c, 4, 70, 0
1, 167499, Note_off_c, 1, 36, 0
1, 167507, Note_off_c, 10, 48, 0
1, 167520, Note_on_c, 1, 36, 118
1, 167520, Note_on_c, 4, 65, 102
1, 167520, Note_on_c, 4, 68, 123
1, 167520, Note_on_c, 4, 72, 123
1, 167520, Note_on_c, 7, 67, 120
1, 167520, Note_on_c, 7, 72, 127
1, 167520, Note_on_c, 7, 75, 127
1, 167520, Note_on_c, 8, 48, 127
1, 167520, Note_on_c, 8, 55, 125
1, 167520, Note_on_c, 8, 60, 127
1, 167520, Note_on_c, 9, 39, 85
1, 167520, Note_on_c, 9, 40, 116
1, 167520, Note_on_c, 9, 51, 123
1, 167520, Note_on_c, 9, 53, 102
1, 167520, Note_on_c, 9, 54, 116
1, 167528, Note_on_c, 10, 48, 118
1, 167531, Note_on_c, 6, 48, 127
1, 167531, Note_on_c, 6, 55, 127
1, 167548, Note_off_c, 9, 39, 0
1, 167548, Note_off_c, 9, 40, 0
1, 167548, Note_off_c, 9, 54, 0
1, 167582, Note_off_c, 6, 55, 0
1, 167588, Control_c, 3, 1, 0
1, 167589, Note_off_c, 7, 72, 0
1, 167594, Note_off_c, 7, 75, 0
1, 167598, Note_off_c, 7, 67, 0
1, 167598, Control_c, 3, 1, 4
1, 167612, Note_off_c, 6, 48, 0
1, 167628, Control_c, 3, 1, 8
1, 167658, Control_c, 3, 1, 13
1, 167661, Note_off_c, 8, 55, 0
1, 167682, Note_off_c, 8, 60, 0
1, 167688, Control_c, 3, 1, 17
1, 167695, Note_off_c, 8, 48, 0
1, 167718, Control_c, 3, 1, 22
1, 167728, Note_off_c, 9, 51, 0
1, 167738, Note_off_c, 9, 53, 0
1, 167739, Note_off_c, 1, 36, 0
1, 167747, Note_off_c, 10, 48, 0
1, 167748, Control_c, 3, 1, 26
1, 167749, Control_c, 3, 1, 27
1, 167760, Note_on_c, 1, 36, 113
1, 167760, Note_on_c, 7, 67, 74
1, 167760, Note_on_c, 7, 72, 98
1, 167760, Note_on_c, 7, 75, 97
1, 167760, Note_on_c, 8, 55, 102
1, 167760, Note_on_c, 8, 60, 115
1, 167764, Control_c, 3, 1, 32
1, 167768, Note_on_c, 10, 48, 113
1, 167771, Note_on_c, 6, 48, 125
1, 167771, Note_on_c, 6, 55, 120
1, 167779, Control_c, 3, 1, 38
1, 167788, Note_off_c, 4, 68, 0
1, 167788, Note_off_c, 4, 72, 0
1, 167794, Control_c, 3, 1, 43
1, 167808, Note_off_c, 4, 65, 0
1, 167809, Control_c, 3, 1, 49
1, 167813, Note_off_c, 6, 55, 0
1, 167824, Control_c, 3, 1, 54
1, 167825, Note_off_c, 7, 72, 0
1, 167831, Note_off_c, 7, 75, 0
1, 167839, Note_off_c, 6, 48, 0
1, 167839, Control_c, 3, 1, 60
1, 167840, Note_off_c, 7, 67, 0
1, 167842, Control_c, 3, 1, 61
1, 167852, Note_off_c, 8, 60, 0
1, 167855, Note_off_c, 8, 55, 0
1, 167857, Control_c, 3, 1, 66
1, 167872, Control_c, 3, 1, 71
1, 167874, Control_c, 3, 1, 72
1, 167880, Note_on_c, 4, 63, 123
1, 167880, Note_on_c, 4, 67, 115
1, 167880, Note_on_c, 4, 70, 115
1, 167889, Control_c, 3, 1, 77
1, 167904, Control_c, 3, 1, 82
1, 167912, Control_c, 3, 1, 85
1, 167942, Control_c, 3, 1, 89
1, 167943, Control_c, 3, 1, 90
1, 167979, Note_off_c, 1, 36, 0
1, 167979, Note_off_c, 4, 63, 0
1, 167980, Note_off_c, 4, 67, 0
1, 167980, Note_off_c, 4, 70, 0
1, 167987, Note_off_c, 10, 48, 0
1, 168000, Note_on_c, 1, 36, 113
1, 168000, Note_on_c, 7, 67, 106
1, 168000, Note_on_c, 7, 72, 127
1, 168000, Note_on_c, 7, 75, 116
1, 168000, Note_on_c, 8, 55, 115
1, 168000, Note_on_c, 8, 60, 127
1, 168000, Note_on_c, 9, 35, 116
1, 168000, Note_on_c, 9, 51, 116
1, 168000, Note_on_c, 9, 53, 80
1, 168008, Note_on_c, 10, 48, 113
1, 168011, Note_on_c, 6, 48, 127
1, 168011, Note_on_c, 6, 55, 120
1, 168017, Control_c, 3, 1, 90
1, 168027, Control_c, 3, 1, 79
1, 168028, Note_off_c, 9, 35, 0
1, 168042, Control_c, 3, 1, 40
1, 168057, Control_c, 3, 1, 0
1, 168068, Note_off_c, 6, 55, 0
1, 168069, Note_off_c, 7, 72, 0
1, 168076, Note_off_c, 7, 75, 0
1, 168078, Note_off_c, 7, 67, 0
1, 168085, Note_off_c, 6, 48, 0
1, 168124, Note_off_c, 8, 60, 0
1, 168128, Note_off_c, 8, 55, 0
1, 168176, Note_off_c, 3, 84, 0
1, 168215, Note_off_c, 9, 51, 0
1, 168216, Note_off_c, 9, 53, 0
1, 168219, Note_off_c, 1, 36, 0
1, 168227, Note_off_c, 10, 48, 0
1, 168240, Note_on_c, 1, 36, 118
1, 168240, Note_on_c, 7, 67, 71
1, 168240, Note_on_c, 7, 72, 90
1, 168240, Note_on_c, 7, 75, 81
1, 168240, Note_on_c, 8, 55, 83
1, 168240, Note_on_c, 8, 60, 102
1, 168240, Note_on_c, 9, 35, 116
1, 168248, Note_on_c, 10, 48, 118
1, 168251, Note_on_c, 6, 48, 120
1, 168251, Note_on_c, 6, 55, 115
1, 168255, Lyric_t, "OF "
1, 168255, Note_on_c, 3, 84, 106
1, 168268, Note_off_c, 9, 35, 0
1, 168287, Note_off_c, 7, 72, 0
1, 168287, Note_off_c, 7, 75, 0
1, 168288, Note_off_c, 6, 55, 0
1, 168297, Note_off_c, 6, 48, 0
1, 168297, Note_off_c, 8, 60, 0
1, 168304, Note_off_c, 7, 67, 0
1, 168313, Note_off_c, 8, 55, 0
1, 168453, Note_off_c, 3, 84, 0
1, 168459, Note_off_c, 1, 36, 0
1, 168467, Note_off_c, 10, 48, 0
1, 168480, Note_on_c, 1, 36, 113
1, 168480, Note_on_c, 7, 67, 115
1, 168480, Note_on_c, 7, 72, 127
1, 168480, Note_on_c, 7, 75, 123
1, 168480, Note_on_c, 8, 48, 127
1, 168480, Note_on_c, 8, 55, 125
1, 168480, Note_on_c, 8, 60, 127
1, 168480, Note_on_c, 9, 39, 85
1, 168480, Note_on_c, 9, 40, 116
1, 168480, Note_on_c, 9, 51, 127
1, 168480, Note_on_c, 9, 53, 102
1, 168480, Note_on_c, 9, 54, 116
1, 168488, Note_on_c, 10, 48, 113
1, 168491, Note_on_c, 6, 48, 127
1, 168491, Note_on_c, 6, 55, 125
1, 168508, Note_off_c, 9, 39, 0
1, 168508, Note_off_c, 9, 40, 0
1, 168508, Note_off_c, 9, 54, 0
1, 168511, Lyric_t, "YOUR "
1, 168511, Note_on_c, 3, 84, 125
1, 168538, Pitch_bend_c, 3, 8712
1, 168548, Pitch_bend_c, 3, 9882
1, 168552, Note_off_c, 6, 55, 0
1, 168553, Note_off_c, 7, 72, 0
1, 168558, Pitch_bend_c, 3, 11572
1, 168568, Note_off_c, 7, 75, 0
1, 168568, Pitch_bend_c, 3, 13912
1, 168569, Note_off_c, 6, 48, 0
1, 168570, Note_off_c, 7, 67, 0
1, 168578, Pitch_bend_c, 3, 16383
1, 168590, Note_off_c, 8, 60, 0
1, 168594, Note_off_c, 8, 55, 0
1, 168681, Note_off_c, 3, 84, 0
1, 168691, Pitch_bend_c, 3, 14562
1, 168692, Note_off_c, 9, 51, 0
1, 168695, Note_off_c, 9, 53, 0
1, 168699, Note_off_c, 1, 36, 0
1, 168702, Pitch_bend_c, 3, 8192
1, 168707, Note_off_c, 10, 48, 0
1, 168720, Note_on_c, 1, 36, 118
1, 168720, Note_on_c, 7, 67, 106
1, 168720, Note_on_c, 7, 72, 115
1, 168720, Note_on_c, 7, 75, 105
1, 168720, Note_on_c, 8, 55, 98
1, 168720, Note_on_c, 8, 60, 115
1, 168728, Note_on_c, 10, 48, 118
1, 168731, Note_on_c, 6, 48, 125
1, 168731, Note_on_c, 6, 55, 125
1, 168733, Lyric_t, "HAND"
1, 168733, Lyric_t, "\015"
1, 168733, Note_on_c, 3, 82, 123
1, 168782, Note_off_c, 7, 72, 0
1, 168789, Note_off_c, 6, 55, 0
1, 168791, Note_off_c, 7, 75, 0
1, 168798, Note_off_c, 8, 60, 0
1, 168802, Note_off_c, 7, 67, 0
1, 168818, Note_off_c, 8, 55, 0
1, 168829, Note_off_c, 6, 48, 0
1, 168931, Note_off_c, 7, 36, 0
1, 168931, Note_off_c, 7, 48, 0
1, 168932, Note_off_c, 8, 48, 0
1, 168939, Note_off_c, 1, 36, 0
1, 168947, Note_off_c, 10, 48, 0
1, 168960, Note_on_c, 1, 34, 113
1, 168960, Note_on_c, 4, 63, 116
1, 168960, Note_on_c, 4, 67, 102
1, 168960, Note_on_c, 4, 70, 102
1, 168960, Note_on_c, 7, 34, 115
1, 168960, Note_on_c, 7, 46, 115
1, 168960, Note_on_c, 7, 65, 83
1, 168960, Note_on_c, 7, 70, 105
1, 168960, Note_on_c, 7, 74, 102
1, 168960, Note_on_c, 8, 53, 90
1, 168960, Note_on_c, 8, 58, 123
1, 168960, Note_on_c, 9, 35, 116
1, 168960, Note_on_c, 9, 51, 116
1, 168960, Note_on_c, 9, 53, 83
1, 168968, Note_on_c, 10, 46, 113
1, 168971, Note_on_c, 6, 46, 127
1, 168971, Note_on_c, 6, 53, 115
1, 168988, Note_off_c, 9, 35, 0
1, 169023, Note_off_c, 7, 74, 0
1, 169034, Note_off_c, 6, 53, 0
1, 169034, Note_off_c, 7, 65, 0
1, 169035, Note_off_c, 7, 70, 0
1, 169041, Note_off_c, 6, 46, 0
1, 169067, Note_off_c, 8, 53, 0
1, 169073, Note_off_c, 8, 58, 0
1, 169084, Note_off_c, 4, 63, 0
1, 169086, Note_off_c, 4, 67, 0
1, 169086, Note_off_c, 4, 70, 0
1, 169163, Note_off_c, 9, 51, 0
1, 169169, Note_off_c, 9, 53, 0
1, 169179, Note_off_c, 1, 34, 0
1, 169187, Note_off_c, 10, 46, 0
1, 169200, Note_on_c, 1, 34, 113
1, 169200, Note_on_c, 4, 63, 116
1, 169200, Note_on_c, 4, 67, 87
1, 169200, Note_on_c, 4, 70, 87
1, 169200, Note_on_c, 7, 65, 63
1, 169200, Note_on_c, 7, 70, 81
1, 169200, Note_on_c, 7, 74, 56
1, 169200, Note_on_c, 8, 53, 67
1, 169200, Note_on_c, 8, 58, 86
1, 169200, Note_on_c, 9, 35, 116
1, 169208, Note_on_c, 10, 46, 113
1, 169211, Note_on_c, 6, 46, 123
1, 169211, Note_on_c, 6, 53, 120
1, 169228, Note_off_c, 9, 35, 0
1, 169237, Note_off_c, 7, 74, 0
1, 169252, Note_off_c, 7, 65, 0
1, 169253, Note_off_c, 8, 58, 0
1, 169254, Note_off_c, 7, 70, 0
1, 169270, Note_off_c, 6, 53, 0
1, 169272, Note_off_c, 8, 53, 0
1, 169273, Note_off_c, 6, 46, 0
1, 169310, Note_off_c, 4, 63, 0
1, 169311, Note_off_c, 4, 67, 0
1, 169311, Note_off_c, 4, 70, 0
1, 169419, Note_off_c, 1, 34, 0
1, 169427, Note_off_c, 10, 46, 0
1, 169440, Note_on_c, 1, 34, 118
1, 169440, Note_on_c, 4, 65, 102
1, 169440, Note_on_c, 4, 68, 123
1, 169440, Note_on_c, 4, 72, 123
1, 169440, Note_on_c, 7, 65, 106
1, 169440, Note_on_c, 7, 70, 116
1, 169440, Note_on_c, 7, 74, 115
1, 169440, Note_on_c, 8, 46, 127
1, 169440, Note_on_c, 8, 53, 110
1, 169440, Note_on_c, 8, 58, 127
1, 169440, Note_on_c, 9, 39, 85
1, 169440, Note_on_c, 9, 40, 116
1, 169440, Note_on_c, 9, 51, 127
1, 169440, Note_on_c, 9, 53, 102
1, 169440, Note_on_c, 9, 54, 116
1, 169448, Note_on_c, 10, 46, 118
1, 169451, Note_on_c, 6, 46, 127
1, 169451, Note_on_c, 6, 53, 125
1, 169468, Note_off_c, 9, 39, 0
1, 169468, Note_off_c, 9, 40, 0
1, 169468, Note_off_c, 9, 54, 0
1, 169487, Note_off_c, 3, 82, 0
1, 169510, Note_off_c, 7, 65, 0
1, 169510, Note_off_c, 7, 70, 0
1, 169523, Note_off_c, 7, 74, 0
1, 169529, Note_off_c, 6, 53, 0
1, 169557, Note_off_c, 6, 46, 0
1, 169570, Note_off_c, 8, 53, 0
1, 169571, Note_off_c, 8, 58, 0
1, 169654, Note_off_c, 9, 51, 0
1, 169654, Note_off_c, 9, 53, 0
1, 169659, Note_off_c, 1, 34, 0
1, 169667, Note_off_c, 10, 46, 0
1, 169680, Note_on_c, 1, 34, 113
1, 169680, Note_on_c, 7, 65, 74
1, 169680, Note_on_c, 7, 70, 93
1, 169680, Note_on_c, 7, 74, 83
1, 169680, Note_on_c, 8, 53, 80
1, 169680, Note_on_c, 8, 58, 116
1, 169688, Note_on_c, 10, 46, 113
1, 169691, Note_on_c, 6, 46, 111
1, 169691, Note_on_c, 6, 53, 106
1, 169708, Note_off_c, 4, 68, 0
1, 169708, Note_off_c, 4, 72, 0
1, 169728, Note_off_c, 4, 65, 0
1, 169746, Note_off_c, 7, 65, 0
1, 169748, Note_off_c, 7, 70, 0
1, 169756, Note_off_c, 6, 53, 0
1, 169756, Note_off_c, 7, 74, 0
1, 169760, Note_off_c, 6, 46, 0
1, 169769, Note_off_c, 8, 53, 0
1, 169777, Note_off_c, 8, 58, 0
1, 169800, Note_on_c, 4, 63, 123
1, 169800, Note_on_c, 4, 67, 115
1, 169800, Note_on_c, 4, 70, 115
1, 169899, Note_off_c, 1, 34, 0
1, 169899, Note_off_c, 4, 63, 0
1, 169900, Note_off_c, 4, 67, 0
1, 169900, Note_off_c, 4, 70, 0
1, 169907, Note_off_c, 10, 46, 0
1, 169920, Note_on_c, 1, 34, 113
1, 169920, Note_on_c, 7, 65, 90
1, 169920, Note_on_c, 7, 70, 101
1, 169920, Note_on_c, 7, 74, 98
1, 169920, Note_on_c, 8, 53, 90
1, 169920, Note_on_c, 8, 58, 123
1, 169920, Note_on_c, 9, 35, 116
1, 169920, Note_on_c, 9, 51, 123
1, 169920, Note_on_c, 9, 53, 87
1, 169928, Note_on_c, 10, 46, 113
1, 169931, Note_on_c, 6, 46, 127
1, 169931, Note_on_c, 6, 53, 120
1, 169948, Note_off_c, 9, 35, 0
1, 169986, Note_off_c, 7, 65, 0
1, 169989, Note_off_c, 7, 70, 0
1, 170004, Note_off_c, 7, 74, 0
1, 170007, Note_off_c, 6, 53, 0
1, 170013, Note_off_c, 6, 46, 0
1, 170017, Note_off_c, 8, 53, 0
1, 170029, Note_off_c, 8, 58, 0
1, 170121, Note_off_c, 9, 51, 0
1, 170123, Note_off_c, 9, 53, 0
1, 170139, Note_off_c, 1, 34, 0
1, 170147, Note_off_c, 10, 46, 0
1, 170156, Lyric_t, "AND "
1, 170156, Note_on_c, 3, 79, 120
1, 170160, Note_on_c, 1, 34, 118
1, 170160, Note_on_c, 7, 65, 74
1, 170160, Note_on_c, 7, 70, 89
1, 170160, Note_on_c, 7, 74, 90
1, 170160, Note_on_c, 8, 53, 63
1, 170160, Note_on_c, 8, 58, 97
1, 170160, Note_on_c, 9, 35, 116
1, 170161, Note_off_c, 8, 46, 0
1, 170168, Note_on_c, 10, 46, 118
1, 170171, Note_on_c, 6, 46, 116
1, 170171, Note_on_c, 6, 53, 110
1, 170188, Note_off_c, 9, 35, 0
1, 170205, Note_off_c, 8, 58, 0
1, 170211, Note_off_c, 8, 53, 0
1, 170218, Note_off_c, 7, 70, 0
1, 170220, Note_off_c, 7, 65, 0
1, 170232, Note_off_c, 7, 74, 0
1, 170236, Note_off_c, 6, 53, 0
1, 170240, Note_off_c, 6, 46, 0
1, 170327, Note_off_c, 3, 79, 0
1, 170379, Note_off_c, 1, 34, 0
1, 170381, Lyric_t, "YOU "
1, 170381, Note_on_c, 3, 79, 120
1, 170387, Note_off_c, 10, 46, 0
1, 170400, Note_on_c, 1, 34, 113
1, 170400, Note_on_c, 7, 65, 98
1, 170400, Note_on_c, 7, 70, 111
1, 170400, Note_on_c, 7, 74, 106
1, 170400, Note_on_c, 8, 46, 123
1, 170400, Note_on_c, 8, 53, 102
1, 170400, Note_on_c, 8, 58, 127
1, 170400, Note_on_c, 9, 39, 85
1, 170400, Note_on_c, 9, 40, 116
1, 170400, Note_on_c, 9, 51, 123
1, 170400, Note_on_c, 9, 53, 102
1, 170400, Note_on_c, 9, 54, 116
1, 170408, Note_on_c, 10, 46, 113
1, 170411, Note_on_c, 6, 46, 127
1, 170411, Note_on_c, 6, 53, 120
1, 170428, Note_off_c, 9, 39, 0
1, 170428, Note_off_c, 9, 40, 0
1, 170428, Note_off_c, 9, 54, 0
1, 170462, Note_off_c, 7, 65, 0
1, 170465, Note_off_c, 7, 70, 0
1, 170472, Note_off_c, 7, 74, 0
1, 170483, Note_off_c, 6, 53, 0
1, 170490, Note_off_c, 6, 46, 0
1, 170503, Note_off_c, 8, 53, 0
1, 170517, Note_off_c, 8, 58, 0
1, 170579, Note_off_c, 3, 79, 0
1, 170619, Note_off_c, 1, 34, 0
1, 170627, Note_off_c, 10, 46, 0
1, 170628, Note_off_c, 9, 51, 0
1, 170629, Note_off_c, 9, 53, 0
1, 170640, Lyric_t, "PLAYED "
1, 170640, Note_on_c, 1, 34, 118
1, 170640, Note_on_c, 3, 80, 123
1, 170640, Note_on_c, 7, 65, 98
1, 170640, Note_on_c, 7, 70, 105
1, 170640, Note_on_c, 7, 74, 106
1, 170640, Note_on_c, 8, 53, 98
1, 170640, Note_on_c, 8, 58, 111
1, 170648, Note_on_c, 10, 46, 118
1, 170651, Note_on_c, 6, 46, 123
1, 170651, Note_on_c, 6, 53, 115
1, 170696, Note_off_c, 7, 65, 0
1, 170699, Note_off_c, 7, 70, 0
1, 170703, Note_off_c, 8, 58, 0
1, 170712, Note_off_c, 7, 74, 0
1, 170722, Note_off_c, 6, 46, 0
1, 170731, Note_off_c, 6, 53, 0
1, 170733, Note_off_c, 8, 53, 0
1, 170851, Note_off_c, 7, 34, 0
1, 170851, Note_off_c, 7, 46, 0
1, 170859, Note_off_c, 1, 34, 0
1, 170867, Note_off_c, 10, 46, 0
1, 170873, Note_off_c, 8, 46, 0
1, 170880, Note_on_c, 1, 32, 113
1, 170880, Note_on_c, 4, 63, 116
1, 170880, Note_on_c, 4, 67, 102
1, 170880, Note_on_c, 4, 70, 102
1, 170880, Note_on_c, 7, 32, 115
1, 170880, Note_on_c, 7, 44, 115
1, 170880, Note_on_c, 7, 60, 125
1, 170880, Note_on_c, 7, 63, 116
1, 170880, Note_on_c, 7, 67, 115
1, 170880, Note_on_c, 8, 51, 127
1, 170880, Note_on_c, 8, 56, 123
1, 170880, Note_on_c, 9, 35, 116
1, 170880, Note_on_c, 9, 51, 116
1, 170880, Note_on_c, 9, 53, 87
1, 170888, Note_on_c, 10, 44, 113
1, 170891, Note_on_c, 6, 44, 116
1, 170891, Note_on_c, 6, 51, 127
1, 170908, Note_off_c, 9, 35, 0
1, 170937, Note_off_c, 7, 63, 0
1, 170940, Note_off_c, 7, 60, 0
1, 170949, Note_off_c, 7, 67, 0
1, 170952, Note_off_c, 6, 51, 0
1, 170994, Note_off_c, 6, 44, 0
1, 171004, Note_off_c, 4, 63, 0
1, 171005, Note_off_c, 8, 51, 0
1, 171006, Note_off_c, 4, 67, 0
1, 171006, Note_off_c, 4, 70, 0
1, 171014, Note_off_c, 3, 80, 0
1, 171033, Note_off_c, 8, 56, 0
1, 171083, Note_off_c, 9, 53, 0
1, 171087, Note_off_c, 9, 51, 0
1, 171099, Note_off_c, 1, 32, 0
1, 171107, Note_off_c, 10, 44, 0
1, 171120, Note_on_c, 1, 32, 113
1, 171120, Note_on_c, 4, 63, 116
1, 171120, Note_on_c, 4, 67, 87
1, 171120, Note_on_c, 4, 70, 87
1, 171120, Note_on_c, 7, 60, 110
1, 171120, Note_on_c, 7, 63, 105
1, 171120, Note_on_c, 7, 67, 102
1, 171120, Note_on_c, 8, 51, 101
1, 171120, Note_on_c, 8, 56, 86
1, 171120, Note_on_c, 9, 35, 116
1, 171128, Note_on_c, 10, 44, 113
1, 171129, Lyric_t, "IT"
1, 171129, Lyric_t, "\015"
1, 171129, Note_on_c, 3, 80, 123
1, 171131, Note_on_c, 6, 44, 116
1, 171131, Note_on_c, 6, 51, 116
1, 171148, Note_off_c, 9, 35, 0
1, 171162, Note_off_c, 7, 60, 0
1, 171166, Note_off_c, 7, 63, 0
1, 171166, Note_off_c, 8, 56, 0
1, 171171, Note_off_c, 7, 67, 0
1, 171176, Note_off_c, 6, 51, 0
1, 171176, Note_off_c, 8, 51, 0
1, 171199, Note_off_c, 6, 44, 0
1, 171230, Note_off_c, 4, 63, 0
1, 171231, Note_off_c, 4, 67, 0
1, 171231, Note_off_c, 4, 70, 0
1, 171250, Note_off_c, 3, 80, 0
1, 171339, Note_off_c, 1, 32, 0
1, 171347, Note_off_c, 10, 44, 0
1, 171360, Note_on_c, 1, 32, 118
1, 171360, Note_on_c, 4, 65, 102
1, 171360, Note_on_c, 4, 68, 123
1, 171360, Note_on_c, 4, 72, 123
1, 171360, Note_on_c, 7, 60, 127
1, 171360, Note_on_c, 7, 63, 123
1, 171360, Note_on_c, 7, 67, 125
1, 171360, Note_on_c, 8, 44, 123
1, 171360, Note_on_c, 8, 51, 127
1, 171360, Note_on_c, 8, 54, 123
1, 171360, Note_on_c, 8, 56, 127
1, 171360, Note_on_c, 9, 39, 85
1, 171360, Note_on_c, 9, 40, 116
1, 171360, Note_on_c, 9, 51, 123
1, 171360, Note_on_c, 9, 53, 95
1, 171360, Note_on_c, 9, 54, 116
1, 171368, Note_on_c, 10, 44, 118
1, 171371, Note_on_c, 6, 44, 127
1, 171371, Note_on_c, 6, 51, 127
1, 171375, Note_off_c, 8, 54, 0
1, 171388, Note_off_c, 9, 39, 0
1, 171388, Note_off_c, 9, 40, 0
1, 171388, Note_off_c, 9, 54, 0
1, 171418, Note_off_c, 7, 60, 0
1, 171420, Note_off_c, 7, 63, 0
1, 171433, Note_off_c, 6, 51, 0
1, 171435, Note_off_c, 7, 67, 0
1, 171447, Note_off_c, 8, 51, 0
1, 171467, Note_off_c, 6, 44, 0
1, 171472, Note_off_c, 8, 56, 0
1, 171579, Note_off_c, 1, 32, 0
1, 171580, Note_off_c, 9, 51, 0
1, 171587, Note_off_c, 10, 44, 0
1, 171589, Note_off_c, 9, 53, 0
1, 171600, Note_on_c, 1, 32, 113
1, 171600, Note_on_c, 7, 60, 125
1, 171600, Note_on_c, 7, 63, 111
1, 171600, Note_on_c, 7, 67, 102
1, 171600, Note_on_c, 8, 51, 111
1, 171600, Note_on_c, 8, 56, 101
1, 171608, Note_on_c, 10, 44, 113
1, 171611, Note_on_c, 6, 44, 116
1, 171611, Note_on_c, 6, 51, 116
1, 171628, Note_off_c, 4, 68, 0
1, 171628, Note_off_c, 4, 72, 0
1, 171648, Note_off_c, 4, 65, 0
1, 171653, Note_off_c, 7, 60, 0
1, 171653, Note_off_c, 7, 63, 0
1, 171661, Note_off_c, 7, 67, 0
1, 171667, Note_off_c, 6, 51, 0
1, 171675, Note_off_c, 8, 51, 0
1, 171677, Note_off_c, 8, 56, 0
1, 171693, Note_off_c, 6, 44, 0
1, 171720, Note_on_c, 4, 63, 123
1, 171720, Note_on_c, 4, 67, 115
1, 171720, Note_on_c, 4, 70, 115
1, 171819, Note_off_c, 1, 32, 0
1, 171819, Note_off_c, 4, 63, 0
1, 171820, Note_off_c, 4, 67, 0
1, 171820, Note_off_c, 4, 70, 0
1, 171827, Note_off_c, 10, 44, 0
1, 171840, Note_on_c, 1, 32, 113
1, 171840, Note_on_c, 7, 60, 120
1, 171840, Note_on_c, 7, 63, 116
1, 171840, Note_on_c, 7, 67, 110
1, 171840, Note_on_c, 8, 51, 123
1, 171840, Note_on_c, 8, 54, 86
1, 171840, Note_on_c, 8, 56, 116
1, 171840, Note_on_c, 9, 35, 116
1, 171840, Note_on_c, 9, 51, 116
1, 171840, Note_on_c, 9, 53, 90
1, 171846, Note_off_c, 8, 54, 0
1, 171848, Note_on_c, 10, 44, 113
1, 171851, Note_on_c, 6, 44, 123
1, 171851, Note_on_c, 6, 51, 127
1, 171868, Note_off_c, 9, 35, 0
1, 171894, Note_off_c, 7, 60, 0
1, 171901, Note_off_c, 7, 63, 0
1, 171909, Note_off_c, 7, 67, 0
1, 171913, Note_off_c, 8, 51, 0
1, 171916, Note_off_c, 6, 51, 0
1, 171928, Note_off_c, 8, 56, 0
1, 171941, Note_off_c, 6, 44, 0
1, 172054, Note_off_c, 9, 51, 0
1, 172059, Note_off_c, 1, 32, 0
1, 172063, Note_off_c, 9, 53, 0
1, 172067, Lyric_t, "TO "
1, 172067, Note_off_c, 10, 44, 0
1, 172067, Note_on_c, 3, 79, 125
1, 172080, Note_on_c, 1, 32, 118
1, 172080, Note_on_c, 7, 60, 115
1, 172080, Note_on_c, 7, 63, 111
1, 172080, Note_on_c, 7, 67, 106
1, 172080, Note_on_c, 8, 51, 101
1, 172080, Note_on_c, 8, 56, 75
1, 172080, Note_on_c, 9, 35, 116
1, 172088, Note_on_c, 10, 44, 118
1, 172091, Note_on_c, 6, 44, 123
1, 172091, Note_on_c, 6, 51, 123
1, 172108, Note_off_c, 9, 35, 0
1, 172114, Note_off_c, 8, 56, 0
1, 172119, Note_off_c, 8, 51, 0
1, 172136, Note_off_c, 7, 60, 0
1, 172141, Note_off_c, 7, 63, 0
1, 172147, Note_off_c, 6, 51, 0
1, 172154, Note_off_c, 7, 67, 0
1, 172163, Note_off_c, 6, 44, 0
1, 172261, Note_off_c, 3, 79, 0
1, 172299, Note_off_c, 1, 32, 0
1, 172307, Note_off_c, 10, 44, 0
1, 172316, Lyric_t, "THE "
1, 172316, Note_on_c, 3, 79, 115
1, 172320, Note_on_c, 1, 32, 113
1, 172320, Note_on_c, 7, 60, 120
1, 172320, Note_on_c, 7, 63, 116
1, 172320, Note_on_c, 7, 67, 90
1, 172320, Note_on_c, 8, 51, 127
1, 172320, Note_on_c, 8, 56, 127
1, 172320, Note_on_c, 9, 39, 85
1, 172320, Note_on_c, 9, 40, 116
1, 172320, Note_on_c, 9, 51, 127
1, 172320, Note_on_c, 9, 53, 95
1, 172320, Note_on_c, 9, 54, 116
1, 172328, Note_on_c, 10, 44, 113
1, 172331, Note_on_c, 6, 44, 127
1, 172331, Note_on_c, 6, 51, 127
1, 172348, Note_off_c, 9, 39, 0
1, 172348, Note_off_c, 9, 40, 0
1, 172348, Note_off_c, 9, 54, 0
1, 172375, Note_off_c, 7, 60, 0
1, 172380, Note_off_c, 7, 63, 0
1, 172390, Note_off_c, 7, 67, 0
1, 172395, Note_off_c, 6, 51, 0
1, 172410, Note_off_c, 8, 51, 0
1, 172411, Note_off_c, 6, 44, 0
1, 172412, Note_off_c, 3, 79, 0
1, 172424, Note_off_c, 8, 56, 0
1, 172532, Note_off_c, 9, 51, 0
1, 172539, Note_off_c, 1, 32, 0
1, 172540, Note_off_c, 9, 53, 0
1, 172547, Note_off_c, 10, 44, 0
1, 172556, Note_off_c, 8, 44, 0
1, 172558, Lyric_t, "BEA"
1, 172558, Note_on_c, 3, 80, 116
1, 172560, Note_on_c, 1, 32, 118
1, 172560, Note_on_c, 7, 60, 120
1, 172560, Note_on_c, 7, 63, 116
1, 172560, Note_on_c, 7, 67, 110
1, 172560, Note_on_c, 8, 51, 116
1, 172560, Note_on_c, 8, 56, 111
1, 172568, Note_on_c, 10, 44, 118
1, 172571, Note_on_c, 6, 44, 123
1, 172571, Note_on_c, 6, 51, 123
1, 172611, Note_off_c, 8, 51, 0
1, 172615, Note_off_c, 7, 60, 0
1, 172622, Note_off_c, 7, 63, 0
1, 172629, Note_off_c, 6, 51, 0
1, 172629, Note_off_c, 7, 67, 0
1, 172629, Note_off_c, 8, 56, 0
1, 172636, Note_off_c, 6, 44, 0
1, 172749, Note_off_c, 3, 80, 0
1, 172771, Note_off_c, 7, 32, 0
1, 172771, Note_off_c, 7, 44, 0
1, 172777, Note_on_c, 3, 79, 110
1, 172779, Note_off_c, 1, 32, 0
1, 172787, Note_off_c, 10, 44, 0
1, 172800, Note_on_c, 1, 32, 113
1, 172800, Note_on_c, 4, 63, 116
1, 172800, Note_on_c, 4, 67, 102
1, 172800, Note_on_c, 4, 70, 102
1, 172800, Note_on_c, 7, 32, 115
1, 172800, Note_on_c, 7, 44, 115
1, 172800, Note_on_c, 7, 60, 125
1, 172800, Note_on_c, 7, 63, 111
1, 172800, Note_on_c, 7, 67, 110
1, 172800, Note_on_c, 8, 44, 116
1, 172800, Note_on_c, 8, 51, 127
1, 172800, Note_on_c, 8, 54, 116
1, 172800, Note_on_c, 8, 56, 127
1, 172800, Note_on_c, 9, 35, 116
1, 172800, Note_on_c, 9, 51, 123
1, 172800, Note_on_c, 9, 53, 95
1, 172808, Note_on_c, 10, 44, 113
1, 172809, Note_off_c, 8, 54, 0
1, 172811, Note_on_c, 6, 44, 123
1, 172811, Note_on_c, 6, 51, 127
1, 172828, Note_off_c, 9, 35, 0
1, 172854, Note_off_c, 7, 60, 0
1, 172856, Note_off_c, 7, 63, 0
1, 172866, Note_off_c, 7, 67, 0
1, 172874, Note_off_c, 8, 51, 0
1, 172877, Note_off_c, 6, 51, 0
1, 172894, Note_off_c, 8, 56, 0
1, 172898, Note_off_c, 6, 44, 0
1, 172924, Note_off_c, 4, 63, 0
1, 172926, Note_off_c, 4, 67, 0
1, 172926, Note_off_c, 4, 70, 0
1, 173005, Note_off_c, 3, 79, 0
1, 173012, Note_off_c, 9, 51, 0
1, 173019, Note_off_c, 1, 32, 0
1, 173019, Note_off_c, 9, 53, 0
1, 173027, Note_off_c, 10, 44, 0
1, 173039, Note_on_c, 3, 77, 87
1, 173040, Note_on_c, 1, 32, 113
1, 173040, Note_on_c, 4, 63, 116
1, 173040, Note_on_c, 4, 67, 87
1, 173040, Note_on_c, 4, 70, 87
1, 173040, Note_on_c, 7, 60, 106
1, 173040, Note_on_c, 7, 63, 101
1, 173040, Note_on_c, 7, 67, 95
1, 173040, Note_on_c, 8, 51, 123
1, 173040, Note_on_c, 8, 54, 89
1, 173040, Note_on_c, 8, 56, 116
1, 173040, Note_on_c, 9, 35, 116
1, 173044, Note_off_c, 8, 54, 0
1, 173048, Note_on_c, 10, 44, 113
1, 173051, Note_on_c, 6, 44, 123
1, 173051, Note_on_c, 6, 51, 127
1, 173068, Note_off_c, 9, 35, 0
1, 173090, Note_off_c, 8, 51, 0
1, 173092, Note_off_c, 8, 56, 0
1, 173096, Note_off_c, 7, 60, 0
1, 173102, Note_off_c, 7, 63, 0
1, 173107, Note_off_c, 7, 67, 0
1, 173110, Note_off_c, 6, 51, 0
1, 173132, Note_off_c, 6, 44, 0
1, 173150, Note_off_c, 4, 63, 0
1, 173151, Note_off_c, 4, 67, 0
1, 173151, Note_off_c, 4, 70, 0
1, 173259, Note_off_c, 1, 32, 0
1, 173267, Note_off_c, 10, 44, 0
1, 173280, Note_on_c, 1, 32, 118
1, 173280, Note_on_c, 4, 65, 102
1, 173280, Note_on_c, 4, 68, 123
1, 173280, Note_on_c, 4, 72, 123
1, 173280, Note_on_c, 7, 60, 125
1, 173280, Note_on_c, 7, 63, 116
1, 173280, Note_on_c, 7, 67, 110
1, 173280, Note_on_c, 8, 51, 127
1, 173280, Note_on_c, 8, 54, 97
1, 173280, Note_on_c, 8, 56, 127
1, 173280, Note_on_c, 9, 39, 85
1, 173280, Note_on_c, 9, 40, 116
1, 173280, Note_on_c, 9, 51, 123
1, 173280, Note_on_c, 9, 53, 98
1, 173280, Note_on_c, 9, 54, 116
1, 173284, Note_off_c, 8, 54, 0
1, 173288, Note_off_c, 3, 77, 0
1, 173288, Note_on_c, 10, 44, 118
1, 173291, Lyric_t, "T"
1, 173291, Lyric_t, "\015"
1, 173291, Note_on_c, 3, 75, 116
1, 173291, Note_on_c, 6, 44, 127
1, 173291, Note_on_c, 6, 51, 127
1, 173308, Note_off_c, 9, 39, 0
1, 173308, Note_off_c, 9, 40, 0
1, 173308, Note_off_c, 9, 54, 0
1, 173336, Note_off_c, 7, 60, 0
1, 173342, Note_off_c, 7, 63, 0
1, 173352, Note_off_c, 7, 67, 0
1, 173359, Note_off_c, 6, 51, 0
1, 173362, Note_off_c, 8, 51, 0
1, 173374, Note_off_c, 6, 44, 0
1, 173382, Note_off_c, 8, 56, 0
1, 173480, Note_off_c, 9, 51, 0
1, 173484, Note_off_c, 9, 53, 0
1, 173499, Note_off_c, 1, 32, 0
1, 173507, Note_off_c, 10, 44, 0
1, 173520, Note_on_c, 1, 32, 113
1, 173520, Note_on_c, 7, 60, 115
1, 173520, Note_on_c, 7, 63, 111
1, 173520, Note_on_c, 7, 67, 110
1, 173520, Note_on_c, 8, 51, 116
1, 173520, Note_on_c, 8, 54, 101
1, 173520, Note_on_c, 8, 56, 123
1, 173526, Note_off_c, 8, 54, 0
1, 173528, Note_on_c, 10, 44, 113
1, 173531, Note_on_c, 6, 44, 123
1, 173531, Note_on_c, 6, 51, 127
1, 173537, Note_off_c, 3, 75, 0
1, 173543, Lyric_t, "WE "
1, 173543, Note_on_c, 3, 79, 125
1, 173548, Note_off_c, 4, 68, 0
1, 173548, Note_off_c, 4, 72, 0
1, 173568, Note_off_c, 4, 65, 0
1, 173578, Note_off_c, 7, 60, 0
1, 173581, Note_off_c, 7, 63, 0
1, 173582, Note_off_c, 8, 51, 0
1, 173594, Note_off_c, 6, 51, 0
1, 173597, Note_off_c, 7, 67, 0
1, 173597, Note_off_c, 8, 56, 0
1, 173606, Note_off_c, 3, 79, 0
1, 173621, Note_off_c, 6, 44, 0
1, 173640, Note_on_c, 4, 63, 123
1, 173640, Note_on_c, 4, 67, 115
1, 173640, Note_on_c, 4, 70, 115
1, 173676, Note_off_c, 8, 44, 0
1, 173731, Note_off_c, 7, 32, 0
1, 173731, Note_off_c, 7, 44, 0
1, 173739, Note_off_c, 1, 32, 0
1, 173739, Note_off_c, 4, 63, 0
1, 173740, Note_off_c, 4, 67, 0
1, 173740, Note_off_c, 4, 70, 0
1, 173747, Note_off_c, 10, 44, 0
1, 173760, Note_on_c, 1, 34, 113
1, 173760, Note_on_c, 7, 34, 115
1, 173760, Note_on_c, 7, 46, 115
1, 173760, Note_on_c, 7, 62, 98
1, 173760, Note_on_c, 7, 65, 90
1, 173760, Note_on_c, 7, 70, 101
1, 173760, Note_on_c, 8, 53, 102
1, 173760, Note_on_c, 8, 58, 123
1, 173760, Note_on_c, 9, 35, 116
1, 173760, Note_on_c, 9, 51, 116
1, 173760, Note_on_c, 9, 53, 87
1, 173768, Note_on_c, 10, 46, 113
1, 173771, Note_on_c, 6, 46, 127
1, 173771, Note_on_c, 6, 53, 115
1, 173787, Lyric_t, "COULD "
1, 173787, Note_on_c, 3, 82, 127
1, 173788, Note_off_c, 9, 35, 0
1, 173826, Note_off_c, 7, 65, 0
1, 173829, Note_off_c, 7, 70, 0
1, 173837, Note_off_c, 8, 53, 0
1, 173839, Note_off_c, 6, 53, 0
1, 173842, Note_off_c, 6, 46, 0
1, 173844, Note_off_c, 7, 62, 0
1, 173848, Note_off_c, 8, 58, 0
1, 173979, Note_off_c, 1, 34, 0
1, 173979, Note_off_c, 9, 51, 0
1, 173987, Note_off_c, 10, 46, 0
1, 173991, Note_off_c, 9, 53, 0
1, 173994, Note_off_c, 3, 82, 0
1, 174000, Note_on_c, 1, 34, 118
1, 174000, Note_on_c, 7, 62, 90
1, 174000, Note_on_c, 7, 65, 74
1, 174000, Note_on_c, 7, 70, 89
1, 174000, Note_on_c, 8, 53, 110
1, 174000, Note_on_c, 8, 58, 127
1, 174000, Note_on_c, 9, 35, 116
1, 174008, Note_on_c, 10, 46, 118
1, 174011, Note_on_c, 6, 46, 127
1, 174011, Note_on_c, 6, 53, 115
1, 174028, Note_off_c, 9, 35, 0
1, 174032, Lyric_t, "HAVE "
1, 174032, Note_on_c, 3, 79, 106
1, 174058, Note_off_c, 7, 70, 0
1, 174060, Note_off_c, 7, 65, 0
1, 174067, Note_off_c, 8, 53, 0
1, 174072, Note_off_c, 7, 62, 0
1, 174074, Note_off_c, 6, 53, 0
1, 174075, Note_off_c, 8, 58, 0
1, 174083, Note_off_c, 6, 46, 0
1, 174100, Note_off_c, 3, 79, 0
1, 174219, Note_off_c, 1, 34, 0
1, 174227, Note_off_c, 10, 46, 0
1, 174240, Note_on_c, 1, 34, 113
1, 174240, Note_on_c, 7, 62, 106
1, 174240, Note_on_c, 7, 65, 98
1, 174240, Note_on_c, 7, 70, 111
1, 174240, Note_on_c, 8, 53, 110
1, 174240, Note_on_c, 8, 58, 127
1, 174240, Note_on_c, 9, 39, 85
1, 174240, Note_on_c, 9, 40, 116
1, 174240, Note_on_c, 9, 51, 127
1, 174240, Note_on_c, 9, 53, 102
1, 174240, Note_on_c, 9, 54, 116
1, 174248, Note_on_c, 10, 46, 113
1, 174251, Note_on_c, 6, 46, 123
1, 174251, Note_on_c, 6, 53, 110
1, 174262, Lyric_t, "HAD "
1, 174262, Note_on_c, 3, 82, 127
1, 174268, Note_off_c, 9, 39, 0
1, 174268, Note_off_c, 9, 40, 0
1, 174268, Note_off_c, 9, 54, 0
1, 174302, Note_off_c, 7, 65, 0
1, 174305, Note_off_c, 7, 70, 0
1, 174312, Note_off_c, 7, 62, 0
1, 174317, Note_off_c, 6, 53, 0
1, 174321, Note_off_c, 8, 53, 0
1, 174324, Note_off_c, 6, 46, 0
1, 174329, Note_off_c, 8, 58, 0
1, 174360, Note_on_c, 9, 40, 116
1, 174388, Note_off_c, 9, 40, 0
1, 174455, Note_off_c, 3, 82, 0
1, 174459, Note_off_c, 1, 34, 0
1, 174467, Note_off_c, 10, 46, 0
1, 174480, Note_on_c, 1, 34, 118
1, 174480, Note_on_c, 7, 62, 106
1, 174480, Note_on_c, 7, 65, 98
1, 174480, Note_on_c, 7, 70, 105
1, 174480, Note_on_c, 8, 53, 115
1, 174480, Note_on_c, 8, 58, 123
1, 174480, Note_on_c, 9, 40, 116
1, 174488, Note_on_c, 10, 46, 118
1, 174491, Note_on_c, 6, 46, 127
1, 174491, Note_on_c, 6, 53, 125
1, 174493, Lyric_t, "IT "
1, 174493, Note_on_c, 3, 79, 106
1, 174508, Note_off_c, 9, 40, 0
1, 174516, Note_off_c, 9, 51, 0
1, 174529, Note_off_c, 9, 53, 0
1, 174536, Note_off_c, 7, 65, 0
1, 174539, Note_off_c, 7, 70, 0
1, 174552, Note_off_c, 6, 53, 0
1, 174552, Note_off_c, 7, 62, 0
1, 174562, Note_off_c, 6, 46, 0
1, 174565, Note_off_c, 8, 53, 0
1, 174568, Note_off_c, 8, 58, 0
1, 174594, Note_off_c, 3, 79, 0
1, 174600, Note_on_c, 9, 40, 116
1, 174628, Note_off_c, 9, 40, 0
1, 174691, Note_off_c, 7, 34, 0
1, 174691, Note_off_c, 7, 46, 0
1, 174699, Note_off_c, 1, 34, 0
1, 174707, Note_off_c, 10, 46, 0
1, 174720, Note_on_c, 1, 36, 113
1, 174720, Note_on_c, 2, 60, 106
1, 174720, Note_on_c, 2, 63, 89
1, 174720, Note_on_c, 4, 63, 116
1, 174720, Note_on_c, 4, 67, 102
1, 174720, Note_on_c, 4, 70, 102
1, 174720, Note_on_c, 7, 36, 115
1, 174720, Note_on_c, 7, 48, 115
1, 174720, Note_on_c, 7, 67, 106
1, 174720, Note_on_c, 7, 72, 125
1, 174720, Note_on_c, 7, 75, 116
1, 174720, Note_on_c, 8, 48, 125
1, 174720, Note_on_c, 8, 55, 115
1, 174720, Note_on_c, 8, 60, 120
1, 174720, Note_on_c, 9, 35, 116
1, 174720, Note_on_c, 9, 49, 98
1, 174720, Note_on_c, 9, 51, 116
1, 174720, Note_on_c, 9, 53, 95
1, 174728, Note_on_c, 10, 48, 113
1, 174731, Note_on_c, 6, 48, 127
1, 174731, Note_on_c, 6, 55, 125
1, 174748, Note_off_c, 9, 35, 0
1, 174748, Note_off_c, 9, 49, 0
1, 174749, Lyric_t, "AL"
1, 174749, Note_on_c, 3, 84, 125
1, 174757, Note_off_c, 7, 72, 0
1, 174758, Note_off_c, 7, 75, 0
1, 174771, Note_off_c, 6, 55, 0
1, 174773, Note_off_c, 7, 67, 0
1, 174781, Note_off_c, 6, 48, 0
1, 174813, Note_off_c, 8, 60, 0
1, 174815, Note_off_c, 8, 55, 0
1, 174844, Note_off_c, 4, 63, 0
1, 174846, Note_off_c, 4, 67, 0
1, 174846, Note_off_c, 4, 70, 0
1, 174902, Note_off_c, 8, 48, 0
1, 174939, Note_off_c, 1, 36, 0
1, 174947, Note_off_c, 10, 48, 0
1, 174960, Note_on_c, 1, 36, 113
1, 174960, Note_on_c, 4, 63, 116
1, 174960, Note_on_c, 4, 67, 87
1, 174960, Note_on_c, 4, 70, 87
1, 174960, Note_on_c, 7, 67, 77
1, 174960, Note_on_c, 7, 72, 106
1, 174960, Note_on_c, 7, 75, 86
1, 174960, Note_on_c, 8, 55, 90
1, 174960, Note_on_c, 8, 60, 102
1, 174960, Note_on_c, 9, 35, 116
1, 174961, Note_off_c, 9, 51, 0
1, 174961, Note_off_c, 9, 53, 0
1, 174968, Note_on_c, 10, 48, 113
1, 174971, Note_on_c, 6, 48, 125
1, 174971, Note_on_c, 6, 55, 125
1, 174988, Note_off_c, 9, 35, 0
1, 174991, Note_off_c, 7, 75, 0
1, 174997, Note_off_c, 7, 72, 0
1, 175004, Note_off_c, 6, 55, 0
1, 175010, Note_off_c, 7, 67, 0
1, 175020, Note_off_c, 6, 48, 0
1, 175022, Note_off_c, 8, 60, 0
1, 175029, Note_off_c, 8, 55, 0
1, 175070, Note_off_c, 4, 63, 0
1, 175071, Note_off_c, 4, 67, 0
1, 175071, Note_off_c, 4, 70, 0
1, 175179, Note_off_c, 1, 36, 0
1, 175187, Note_off_c, 10, 48, 0
1, 175200, Note_on_c, 1, 36, 118
1, 175200, Note_on_c, 4, 65, 102
1, 175200, Note_on_c, 4, 68, 123
1, 175200, Note_on_c, 4, 72, 123
1, 175200, Note_on_c, 7, 67, 120
1, 175200, Note_on_c, 7, 72, 127
1, 175200, Note_on_c, 7, 75, 127
1, 175200, Note_on_c, 8, 48, 127
1, 175200, Note_on_c, 8, 55, 125
1, 175200, Note_on_c, 8, 60, 127
1, 175200, Note_on_c, 9, 39, 85
1, 175200, Note_on_c, 9, 40, 116
1, 175200, Note_on_c, 9, 51, 127
1, 175200, Note_on_c, 9, 53, 110
1, 175200, Note_on_c, 9, 54, 116
1, 175208, Note_on_c, 10, 48, 118
1, 175211, Note_on_c, 6, 48, 127
1, 175211, Note_on_c, 6, 55, 127
1, 175228, Note_off_c, 9, 39, 0
1, 175228, Note_off_c, 9, 40, 0
1, 175228, Note_off_c, 9, 54, 0
1, 175262, Note_off_c, 6, 55, 0
1, 175269, Note_off_c, 7, 72, 0
1, 175274, Note_off_c, 7, 75, 0
1, 175278, Note_off_c, 7, 67, 0
1, 175292, Note_off_c, 6, 48, 0
1, 175341, Note_off_c, 8, 55, 0
1, 175362, Note_off_c, 8, 60, 0
1, 175375, Note_off_c, 8, 48, 0
1, 175419, Note_off_c, 1, 36, 0
1, 175427, Note_off_c, 10, 48, 0
1, 175440, Note_on_c, 1, 36, 113
1, 175440, Note_on_c, 7, 67, 74
1, 175440, Note_on_c, 7, 72, 98
1, 175440, Note_on_c, 7, 75, 97
1, 175440, Note_on_c, 8, 55, 102
1, 175440, Note_on_c, 8, 60, 115
1, 175448, Note_on_c, 10, 48, 113
1, 175451, Note_on_c, 6, 48, 125
1, 175451, Note_on_c, 6, 55, 120
1, 175456, Note_off_c, 9, 51, 0
1, 175464, Note_off_c, 9, 53, 0
1, 175468, Note_off_c, 4, 68, 0
1, 175468, Note_off_c, 4, 72, 0
1, 175488, Note_off_c, 4, 65, 0
1, 175493, Note_off_c, 6, 55, 0
1, 175505, Note_off_c, 7, 72, 0
1, 175511, Note_off_c, 7, 75, 0
1, 175519, Note_off_c, 6, 48, 0
1, 175520, Note_off_c, 7, 67, 0
1, 175532, Note_off_c, 8, 60, 0
1, 175535, Note_off_c, 8, 55, 0
1, 175556, Control_c, 3, 1, 1
1, 175560, Note_on_c, 4, 63, 123
1, 175560, Note_on_c, 4, 67, 115
1, 175560, Note_on_c, 4, 70, 115
1, 175586, Control_c, 3, 1, 4
1, 175616, Control_c, 3, 1, 8
1, 175646, Control_c, 3, 1, 12
1, 175659, Note_off_c, 1, 36, 0
1, 175659, Note_off_c, 4, 63, 0
1, 175660, Note_off_c, 4, 67, 0
1, 175660, Note_off_c, 4, 70, 0
1, 175667, Note_off_c, 10, 48, 0
1, 175676, Control_c, 3, 1, 16
1, 175677, Control_c, 3, 1, 17
1, 175680, Note_on_c, 1, 36, 113
1, 175680, Note_on_c, 7, 67, 106
1, 175680, Note_on_c, 7, 72, 127
1, 175680, Note_on_c, 7, 75, 116
1, 175680, Note_on_c, 8, 55, 115
1, 175680, Note_on_c, 8, 60, 127
1, 175680, Note_on_c, 9, 35, 116
1, 175680, Note_on_c, 9, 51, 116
1, 175680, Note_on_c, 9, 53, 90
1, 175688, Note_on_c, 10, 48, 113
1, 175691, Note_on_c, 6, 48, 127
1, 175691, Note_on_c, 6, 55, 120
1, 175707, Control_c, 3, 1, 20
1, 175708, Note_off_c, 9, 35, 0
1, 175722, Control_c, 3, 1, 22
1, 175748, Note_off_c, 6, 55, 0
1, 175749, Note_off_c, 7, 72, 0
1, 175752, Control_c, 3, 1, 25
1, 175756, Note_off_c, 7, 75, 0
1, 175758, Note_off_c, 7, 67, 0
1, 175765, Note_off_c, 6, 48, 0
1, 175767, Control_c, 3, 1, 27
1, 175797, Control_c, 3, 1, 31
1, 175804, Note_off_c, 8, 60, 0
1, 175808, Note_off_c, 8, 55, 0
1, 175827, Control_c, 3, 1, 35
1, 175857, Control_c, 3, 1, 39
1, 175887, Control_c, 3, 1, 44
1, 175899, Note_off_c, 1, 36, 0
1, 175907, Note_off_c, 10, 48, 0
1, 175917, Control_c, 3, 1, 48
1, 175919, Note_off_c, 9, 51, 0
1, 175920, Note_on_c, 1, 36, 118
1, 175920, Note_on_c, 7, 67, 71
1, 175920, Note_on_c, 7, 72, 90
1, 175920, Note_on_c, 7, 75, 81
1, 175920, Note_on_c, 8, 55, 83
1, 175920, Note_on_c, 8, 60, 102
1, 175920, Note_on_c, 9, 35, 116
1, 175926, Note_off_c, 9, 53, 0
1, 175928, Note_on_c, 10, 48, 118
1, 175931, Note_on_c, 6, 48, 120
1, 175931, Note_on_c, 6, 55, 115
1, 175947, Control_c, 3, 1, 52
1, 175948, Note_off_c, 9, 35, 0
1, 175967, Note_off_c, 7, 72, 0
1, 175967, Note_off_c, 7, 75, 0
1, 175968, Note_off_c, 6, 55, 0
1, 175977, Note_off_c, 6, 48, 0
1, 175977, Note_off_c, 8, 60, 0
1, 175977, Control_c, 3, 1, 57
1, 175984, Note_off_c, 7, 67, 0
1, 175993, Note_off_c, 8, 55, 0
1, 176004, Control_c, 3, 1, 61
1, 176034, Control_c, 3, 1, 65
1, 176039, Control_c, 3, 1, 66
1, 176069, Control_c, 3, 1, 69
1, 176099, Control_c, 3, 1, 73
1, 176121, Control_c, 3, 1, 76
1, 176136, Control_c, 3, 1, 79
1, 176139, Note_off_c, 1, 36, 0
1, 176147, Note_off_c, 10, 48, 0
1, 176151, Control_c, 3, 1, 82
1, 176160, Note_on_c, 1, 36, 113
1, 176160, Note_on_c, 7, 67, 115
1, 176160, Note_on_c, 7, 72, 127
1, 176160, Note_on_c, 7, 75, 123
1, 176160, Note_on_c, 8, 48, 127
1, 176160, Note_on_c, 8, 55, 125
1, 176160, Note_on_c, 8, 60, 127
1, 176160, Note_on_c, 9, 39, 85
1, 176160, Note_on_c, 9, 40, 116
1, 176160, Note_on_c, 9, 51, 127
1, 176160, Note_on_c, 9, 53, 106
1, 176160, Note_on_c, 9, 54, 116
1, 176166, Control_c, 3, 1, 86
1, 176168, Note_on_c, 10, 48, 113
1, 176171, Note_on_c, 6, 48, 127
1, 176171, Note_on_c, 6, 55, 125
1, 176176, Note_off_c, 2, 63, 0
1, 176181, Control_c, 3, 1, 89
1, 176188, Note_off_c, 9, 39, 0
1, 176188, Note_off_c, 9, 40, 0
1, 176188, Note_off_c, 9, 54, 0
1, 176196, Control_c, 3, 1, 93
1, 176199, Control_c, 3, 1, 94
1, 176214, Control_c, 3, 1, 97
1, 176219, Note_off_c, 2, 60, 0
1, 176229, Control_c, 3, 1, 100
1, 176232, Note_off_c, 6, 55, 0
1, 176233, Note_off_c, 7, 72, 0
1, 176236, Control_c, 3, 1, 102
1, 176248, Note_off_c, 7, 75, 0
1, 176249, Note_off_c, 6, 48, 0
1, 176250, Note_off_c, 7, 67, 0
1, 176270, Note_off_c, 8, 60, 0
1, 176274, Note_off_c, 8, 55, 0
1, 176325, Control_c, 3, 1, 102
1, 176335, Control_c, 3, 1, 0
1, 176365, Note_off_c, 3, 84, 0
1, 176379, Note_off_c, 1, 36, 0
1, 176387, Note_off_c, 10, 48, 0
1, 176394, Note_off_c, 9, 51, 0
1, 176400, Note_off_c, 9, 53, 0
1, 176400, Note_on_c, 1, 36, 118
1, 176400, Note_on_c, 2, 58, 111
1, 176400, Note_on_c, 2, 62, 102
1, 176400, Note_on_c, 7, 67, 106
1, 176400, Note_on_c, 7, 72, 115
1, 176400, Note_on_c, 7, 75, 105
1, 176400, Note_on_c, 8, 55, 98
1, 176400, Note_on_c, 8, 60, 115
1, 176408, Note_on_c, 10, 48, 118
1, 176411, Note_on_c, 6, 48, 125
1, 176411, Note_on_c, 6, 55, 125
1, 176415, Lyric_t, "L"
1, 176415, Lyric_t, "\015"
1, 176415, Note_on_c, 3, 82, 123
1, 176462, Note_off_c, 7, 72, 0
1, 176469, Note_off_c, 6, 55, 0
1, 176471, Note_off_c, 7, 75, 0
1, 176478, Note_off_c, 8, 60, 0
1, 176482, Note_off_c, 7, 67, 0
1, 176498, Note_off_c, 8, 55, 0
1, 176509, Note_off_c, 6, 48, 0
1, 176611, Note_off_c, 7, 36, 0
1, 176611, Note_off_c, 7, 48, 0
1, 176612, Note_off_c, 8, 48, 0
1, 176619, Note_off_c, 1, 36, 0
1, 176627, Note_off_c, 10, 48, 0
1, 176640, Note_on_c, 1, 34, 113
1, 176640, Note_on_c, 4, 63, 116
1, 176640, Note_on_c, 4, 67, 102
1, 176640, Note_on_c, 4, 70, 102
1, 176640, Note_on_c, 7, 34, 115
1, 176640, Note_on_c, 7, 46, 115
1, 176640, Note_on_c, 7, 65, 83
1, 176640, Note_on_c, 7, 70, 105
1, 176640, Note_on_c, 7, 74, 102
1, 176640, Note_on_c, 8, 53, 90
1, 176640, Note_on_c, 8, 58, 123
1, 176640, Note_on_c, 9, 35, 116
1, 176640, Note_on_c, 9, 51, 116
1, 176640, Note_on_c, 9, 53, 95
1, 176648, Note_on_c, 10, 46, 113
1, 176651, Note_on_c, 6, 46, 127
1, 176651, Note_on_c, 6, 53, 115
1, 176668, Note_off_c, 9, 35, 0
1, 176703, Note_off_c, 7, 74, 0
1, 176714, Note_off_c, 6, 53, 0
1, 176714, Note_off_c, 7, 65, 0
1, 176715, Note_off_c, 7, 70, 0
1, 176721, Note_off_c, 6, 46, 0
1, 176728, Note_off_c, 2, 58, 0
1, 176736, Note_off_c, 2, 62, 0
1, 176747, Note_off_c, 8, 53, 0
1, 176753, Note_off_c, 8, 58, 0
1, 176764, Note_off_c, 4, 63, 0
1, 176766, Note_off_c, 4, 67, 0
1, 176766, Note_off_c, 4, 70, 0
1, 176859, Note_off_c, 1, 34, 0
1, 176867, Note_off_c, 10, 46, 0
1, 176880, Note_off_c, 3, 82, 0
1, 176880, Note_on_c, 1, 34, 113
1, 176880, Note_on_c, 4, 63, 116
1, 176880, Note_on_c, 4, 67, 87
1, 176880, Note_on_c, 4, 70, 87
1, 176880, Note_on_c, 7, 65, 63
1, 176880, Note_on_c, 7, 70, 81
1, 176880, Note_on_c, 7, 74, 56
1, 176880, Note_on_c, 8, 53, 67
1, 176880, Note_on_c, 8, 58, 86
1, 176880, Note_on_c, 9, 35, 116
1, 176885, Note_off_c, 9, 51, 0
1, 176888, Note_on_c, 10, 46, 113
1, 176891, Note_on_c, 6, 46, 123
1, 176891, Note_on_c, 6, 53, 120
1, 176895, Note_off_c, 9, 53, 0
1, 176908, Note_off_c, 9, 35, 0
1, 176917, Note_off_c, 7, 74, 0
1, 176932, Note_off_c, 7, 65, 0
1, 176933, Note_off_c, 8, 58, 0
1, 176934, Note_off_c, 7, 70, 0
1, 176950, Note_off_c, 6, 53, 0
1, 176952, Note_off_c, 8, 53, 0
1, 176953, Note_off_c, 6, 46, 0
1, 176990, Note_off_c, 4, 63, 0
1, 176991, Note_off_c, 4, 67, 0
1, 176991, Note_off_c, 4, 70, 0
1, 177099, Note_off_c, 1, 34, 0
1, 177107, Note_off_c, 10, 46, 0
1, 177120, Note_on_c, 1, 34, 118
1, 177120, Note_on_c, 4, 65, 102
1, 177120, Note_on_c, 4, 68, 123
1, 177120, Note_on_c, 4, 72, 123
1, 177120, Note_on_c, 7, 65, 106
1, 177120, Note_on_c, 7, 70, 116
1, 177120, Note_on_c, 7, 74, 115
1, 177120, Note_on_c, 8, 46, 127
1, 177120, Note_on_c, 8, 53, 110
1, 177120, Note_on_c, 8, 58, 127
1, 177120, Note_on_c, 9, 39, 85
1, 177120, Note_on_c, 9, 40, 116
1, 177120, Note_on_c, 9, 51, 127
1, 177120, Note_on_c, 9, 53, 106
1, 177120, Note_on_c, 9, 54, 116
1, 177128, Note_on_c, 10, 46, 118
1, 177131, Note_on_c, 6, 46, 127
1, 177131, Note_on_c, 6, 53, 125
1, 177148, Note_off_c, 9, 39, 0
1, 177148, Note_off_c, 9, 40, 0
1, 177148, Note_off_c, 9, 54, 0
1, 177190, Note_off_c, 7, 65, 0
1, 177190, Note_off_c, 7, 70, 0
1, 177203, Note_off_c, 7, 74, 0
1, 177209, Note_off_c, 6, 53, 0
1, 177237, Note_off_c, 6, 46, 0
1, 177250, Note_off_c, 8, 53, 0
1, 177251, Note_off_c, 8, 58, 0
1, 177339, Note_off_c, 1, 34, 0
1, 177347, Note_off_c, 10, 46, 0
1, 177354, Note_off_c, 9, 51, 0
1, 177359, Note_off_c, 9, 53, 0
1, 177360, Note_on_c, 1, 34, 113
1, 177360, Note_on_c, 7, 65, 74
1, 177360, Note_on_c, 7, 70, 93
1, 177360, Note_on_c, 7, 74, 83
1, 177360, Note_on_c, 8, 53, 80
1, 177360, Note_on_c, 8, 58, 116
1, 177368, Note_on_c, 10, 46, 113
1, 177371, Note_on_c, 6, 46, 111
1, 177371, Note_on_c, 6, 53, 106
1, 177383, Lyric_t, "ROL"
1, 177383, Note_on_c, 3, 79, 125
1, 177388, Note_off_c, 4, 68, 0
1, 177388, Note_off_c, 4, 72, 0
1, 177408, Note_off_c, 4, 65, 0
1, 177426, Note_off_c, 7, 65, 0
1, 177428, Note_off_c, 7, 70, 0
1, 177436, Note_off_c, 6, 53, 0
1, 177436, Note_off_c, 7, 74, 0
1, 177440, Note_off_c, 6, 46, 0
1, 177446, Note_off_c, 3, 79, 0
1, 177449, Note_off_c, 8, 53, 0
1, 177457, Note_off_c, 8, 58, 0
1, 177480, Note_on_c, 4, 63, 123
1, 177480, Note_on_c, 4, 67, 115
1, 177480, Note_on_c, 4, 70, 115
1, 177579, Note_off_c, 1, 34, 0
1, 177579, Note_off_c, 4, 63, 0
1, 177580, Note_off_c, 4, 67, 0
1, 177580, Note_off_c, 4, 70, 0
1, 177587, Note_off_c, 10, 46, 0
1, 177600, Note_on_c, 1, 34, 113
1, 177600, Note_on_c, 7, 65, 90
1, 177600, Note_on_c, 7, 70, 101
1, 177600, Note_on_c, 7, 74, 98
1, 177600, Note_on_c, 8, 53, 90
1, 177600, Note_on_c, 8, 58, 123
1, 177600, Note_on_c, 9, 35, 116
1, 177600, Note_on_c, 9, 51, 123
1, 177600, Note_on_c, 9, 53, 90
1, 177608, Note_on_c, 10, 46, 113
1, 177611, Note_on_c, 6, 46, 127
1, 177611, Note_on_c, 6, 53, 120
1, 177627, Note_on_c, 3, 82, 127
1, 177628, Note_off_c, 9, 35, 0
1, 177666, Note_off_c, 7, 65, 0
1, 177669, Note_off_c, 7, 70, 0
1, 177684, Note_off_c, 7, 74, 0
1, 177687, Note_off_c, 6, 53, 0
1, 177693, Note_off_c, 6, 46, 0
1, 177697, Note_off_c, 8, 53, 0
1, 177709, Note_off_c, 8, 58, 0
1, 177815, Note_off_c, 9, 51, 0
1, 177819, Note_off_c, 1, 34, 0
1, 177820, Note_off_c, 9, 53, 0
1, 177827, Note_off_c, 10, 46, 0
1, 177834, Note_off_c, 3, 82, 0
1, 177840, Note_on_c, 1, 34, 118
1, 177840, Note_on_c, 7, 65, 74
1, 177840, Note_on_c, 7, 70, 89
1, 177840, Note_on_c, 7, 74, 90
1, 177840, Note_on_c, 8, 53, 63
1, 177840, Note_on_c, 8, 58, 97
1, 177840, Note_on_c, 9, 35, 116
1, 177841, Note_off_c, 8, 46, 0
1, 177848, Note_on_c, 10, 46, 118
1, 177851, Note_on_c, 6, 46, 116
1, 177851, Note_on_c, 6, 53, 110
1, 177868, Note_off_c, 9, 35, 0
1, 177872, Lyric_t, "LING "
1, 177872, Note_on_c, 3, 79, 106
1, 177885, Note_off_c, 8, 58, 0
1, 177891, Note_off_c, 8, 53, 0
1, 177898, Note_off_c, 7, 70, 0
1, 177900, Note_off_c, 7, 65, 0
1, 177912, Note_off_c, 7, 74, 0
1, 177916, Note_off_c, 6, 53, 0
1, 177920, Note_off_c, 6, 46, 0
1, 177940, Note_off_c, 3, 79, 0
1, 178059, Note_off_c, 1, 34, 0
1, 178067, Note_off_c, 10, 46, 0
1, 178080, Note_on_c, 1, 34, 113
1, 178080, Note_on_c, 7, 65, 98
1, 178080, Note_on_c, 7, 70, 111
1, 178080, Note_on_c, 7, 74, 106
1, 178080, Note_on_c, 8, 46, 123
1, 178080, Note_on_c, 8, 53, 102
1, 178080, Note_on_c, 8, 58, 127
1, 178080, Note_on_c, 9, 39, 85
1, 178080, Note_on_c, 9, 40, 116
1, 178080, Note_on_c, 9, 51, 127
1, 178080, Note_on_c, 9, 53, 106
1, 178080, Note_on_c, 9, 54, 116
1, 178088, Note_on_c, 10, 46, 113
1, 178091, Note_on_c, 6, 46, 127
1, 178091, Note_on_c, 6, 53, 120
1, 178102, Lyric_t, "IN "
1, 178102, Note_on_c, 3, 82, 127
1, 178108, Note_off_c, 9, 39, 0
1, 178108, Note_off_c, 9, 40, 0
1, 178108, Note_off_c, 9, 54, 0
1, 178142, Note_off_c, 7, 65, 0
1, 178145, Note_off_c, 7, 70, 0
1, 178152, Note_off_c, 7, 74, 0
1, 178163, Note_off_c, 6, 53, 0
1, 178170, Note_off_c, 6, 46, 0
1, 178183, Note_off_c, 8, 53, 0
1, 178197, Note_off_c, 8, 58, 0
1, 178295, Note_off_c, 3, 82, 0
1, 178299, Note_off_c, 1, 34, 0
1, 178307, Note_off_c, 10, 46, 0
1, 178314, Note_off_c, 9, 51, 0
1, 178320, Note_on_c, 1, 34, 118
1, 178320, Note_on_c, 2, 60, 115
1, 178320, Note_on_c, 7, 65, 98
1, 178320, Note_on_c, 7, 70, 105
1, 178320, Note_on_c, 7, 74, 106
1, 178320, Note_on_c, 8, 53, 98
1, 178320, Note_on_c, 8, 58, 111
1, 178326, Note_off_c, 9, 53, 0
1, 178328, Note_on_c, 10, 46, 118
1, 178331, Note_on_c, 6, 46, 123
1, 178331, Note_on_c, 6, 53, 115
1, 178333, Lyric_t, "THE "
1, 178333, Note_on_c, 3, 79, 106
1, 178376, Note_off_c, 7, 65, 0
1, 178379, Note_off_c, 7, 70, 0
1, 178383, Note_off_c, 8, 58, 0
1, 178392, Note_off_c, 7, 74, 0
1, 178402, Note_off_c, 6, 46, 0
1, 178411, Note_off_c, 6, 53, 0
1, 178413, Note_off_c, 8, 53, 0
1, 178434, Note_off_c, 3, 79, 0
1, 178531, Note_off_c, 7, 34, 0
1, 178531, Note_off_c, 7, 46, 0
1, 178539, Note_off_c, 1, 34, 0
1, 178547, Note_off_c, 10, 46, 0
1, 178553, Note_off_c, 8, 46, 0
1, 178560, Note_on_c, 1, 32, 113
1, 178560, Note_on_c, 4, 63, 116
1, 178560, Note_on_c, 4, 67, 102
1, 178560, Note_on_c, 4, 70, 102
1, 178560, Note_on_c, 7, 32, 115
1, 178560, Note_on_c, 7, 44, 115
1, 178560, Note_on_c, 7, 60, 125
1, 178560, Note_on_c, 7, 63, 116
1, 178560, Note_on_c, 7, 67, 115
1, 178560, Note_on_c, 8, 51, 127
1, 178560, Note_on_c, 8, 56, 123
1, 178560, Note_on_c, 9, 35, 116
1, 178560, Note_on_c, 9, 51, 116
1, 178560, Note_on_c, 9, 53, 90
1, 178568, Note_on_c, 10, 44, 113
1, 178571, Note_on_c, 6, 44, 116
1, 178571, Note_on_c, 6, 51, 127
1, 178581, Lyric_t, "DEE"
1, 178581, Note_on_c, 3, 84, 125
1, 178588, Note_off_c, 9, 35, 0
1, 178617, Note_off_c, 7, 63, 0
1, 178620, Note_off_c, 7, 60, 0
1, 178629, Note_off_c, 7, 67, 0
1, 178632, Note_off_c, 6, 51, 0
1, 178674, Note_off_c, 6, 44, 0
1, 178684, Note_off_c, 4, 63, 0
1, 178685, Note_off_c, 8, 51, 0
1, 178686, Note_off_c, 4, 67, 0
1, 178686, Note_off_c, 4, 70, 0
1, 178713, Note_off_c, 8, 56, 0
1, 178779, Note_off_c, 1, 32, 0
1, 178787, Note_off_c, 10, 44, 0
1, 178788, Note_off_c, 9, 51, 0
1, 178794, Note_off_c, 9, 53, 0
1, 178800, Note_on_c, 1, 32, 113
1, 178800, Note_on_c, 4, 63, 116
1, 178800, Note_on_c, 4, 67, 87
1, 178800, Note_on_c, 4, 70, 87
1, 178800, Note_on_c, 7, 60, 110
1, 178800, Note_on_c, 7, 63, 105
1, 178800, Note_on_c, 7, 67, 102
1, 178800, Note_on_c, 8, 51, 101
1, 178800, Note_on_c, 8, 56, 86
1, 178800, Note_on_c, 9, 35, 116
1, 178808, Note_on_c, 10, 44, 113
1, 178811, Note_on_c, 6, 44, 116
1, 178811, Note_on_c, 6, 51, 116
1, 178828, Note_off_c, 9, 35, 0
1, 178842, Note_off_c, 7, 60, 0
1, 178846, Note_off_c, 7, 63, 0
1, 178846, Note_off_c, 8, 56, 0
1, 178851, Note_off_c, 7, 67, 0
1, 178856, Note_off_c, 6, 51, 0
1, 178856, Note_off_c, 8, 51, 0
1, 178879, Note_off_c, 6, 44, 0
1, 178910, Note_off_c, 4, 63, 0
1, 178911, Note_off_c, 4, 67, 0
1, 178911, Note_off_c, 4, 70, 0
1, 179019, Note_off_c, 1, 32, 0
1, 179027, Note_off_c, 10, 44, 0
1, 179040, Note_on_c, 1, 32, 118
1, 179040, Note_on_c, 4, 65, 102
1, 179040, Note_on_c, 4, 68, 123
1, 179040, Note_on_c, 4, 72, 123
1, 179040, Note_on_c, 7, 60, 127
1, 179040, Note_on_c, 7, 63, 123
1, 179040, Note_on_c, 7, 67, 125
1, 179040, Note_on_c, 8, 44, 123
1, 179040, Note_on_c, 8, 51, 127
1, 179040, Note_on_c, 8, 54, 123
1, 179040, Note_on_c, 8, 56, 127
1, 179040, Note_on_c, 9, 39, 85
1, 179040, Note_on_c, 9, 40, 116
1, 179040, Note_on_c, 9, 51, 123
1, 179040, Note_on_c, 9, 53, 106
1, 179040, Note_on_c, 9, 54, 116
1, 179048, Note_on_c, 10, 44, 118
1, 179051, Note_on_c, 6, 44, 127
1, 179051, Note_on_c, 6, 51, 127
1, 179055, Note_off_c, 8, 54, 0
1, 179068, Note_off_c, 9, 39, 0
1, 179068, Note_off_c, 9, 40, 0
1, 179068, Note_off_c, 9, 54, 0
1, 179098, Note_off_c, 7, 60, 0
1, 179100, Note_off_c, 7, 63, 0
1, 179113, Note_off_c, 6, 51, 0
1, 179115, Note_off_c, 7, 67, 0
1, 179127, Note_off_c, 8, 51, 0
1, 179147, Note_off_c, 6, 44, 0
1, 179152, Note_off_c, 8, 56, 0
1, 179259, Note_off_c, 1, 32, 0
1, 179267, Note_off_c, 10, 44, 0
1, 179278, Note_off_c, 9, 51, 0
1, 179278, Note_off_c, 9, 53, 0
1, 179280, Note_on_c, 1, 32, 113
1, 179280, Note_on_c, 7, 60, 125
1, 179280, Note_on_c, 7, 63, 111
1, 179280, Note_on_c, 7, 67, 102
1, 179280, Note_on_c, 8, 51, 111
1, 179280, Note_on_c, 8, 56, 101
1, 179288, Note_on_c, 10, 44, 113
1, 179291, Note_on_c, 6, 44, 116
1, 179291, Note_on_c, 6, 51, 116
1, 179308, Note_off_c, 4, 68, 0
1, 179308, Note_off_c, 4, 72, 0
1, 179328, Note_off_c, 4, 65, 0
1, 179333, Note_off_c, 7, 60, 0
1, 179333, Note_off_c, 7, 63, 0
1, 179341, Note_off_c, 7, 67, 0
1, 179347, Note_off_c, 6, 51, 0
1, 179355, Note_off_c, 8, 51, 0
1, 179357, Note_off_c, 8, 56, 0
1, 179373, Note_off_c, 6, 44, 0
1, 179400, Note_on_c, 4, 63, 123
1, 179400, Note_on_c, 4, 67, 115
1, 179400, Note_on_c, 4, 70, 115
1, 179499, Note_off_c, 1, 32, 0
1, 179499, Note_off_c, 4, 63, 0
1, 179500, Note_off_c, 4, 67, 0
1, 179500, Note_off_c, 4, 70, 0
1, 179507, Note_off_c, 10, 44, 0
1, 179520, Note_on_c, 1, 32, 113
1, 179520, Note_on_c, 7, 60, 120
1, 179520, Note_on_c, 7, 63, 116
1, 179520, Note_on_c, 7, 67, 110
1, 179520, Note_on_c, 8, 51, 123
1, 179520, Note_on_c, 8, 54, 86
1, 179520, Note_on_c, 8, 56, 116
1, 179520, Note_on_c, 9, 35, 116
1, 179520, Note_on_c, 9, 51, 116
1, 179520, Note_on_c, 9, 53, 87
1, 179526, Note_off_c, 8, 54, 0
1, 179528, Note_on_c, 10, 44, 113
1, 179531, Note_on_c, 6, 44, 123
1, 179531, Note_on_c, 6, 51, 127
1, 179548, Note_off_c, 9, 35, 0
1, 179574, Note_off_c, 7, 60, 0
1, 179581, Note_off_c, 7, 63, 0
1, 179589, Note_off_c, 7, 67, 0
1, 179593, Note_off_c, 8, 51, 0
1, 179596, Note_off_c, 6, 51, 0
1, 179608, Note_off_c, 8, 56, 0
1, 179621, Note_off_c, 6, 44, 0
1, 179739, Note_off_c, 1, 32, 0
1, 179744, Note_off_c, 9, 53, 0
1, 179745, Note_off_c, 9, 51, 0
1, 179747, Note_off_c, 10, 44, 0
1, 179760, Note_on_c, 1, 32, 118
1, 179760, Note_on_c, 7, 60, 115
1, 179760, Note_on_c, 7, 63, 111
1, 179760, Note_on_c, 7, 67, 106
1, 179760, Note_on_c, 8, 51, 101
1, 179760, Note_on_c, 8, 56, 75
1, 179760, Note_on_c, 9, 35, 116
1, 179768, Note_on_c, 10, 44, 118
1, 179771, Note_on_c, 6, 44, 123
1, 179771, Note_on_c, 6, 51, 123
1, 179788, Note_off_c, 9, 35, 0
1, 179794, Note_off_c, 8, 56, 0
1, 179799, Note_off_c, 8, 51, 0
1, 179816, Note_off_c, 7, 60, 0
1, 179821, Note_off_c, 7, 63, 0
1, 179827, Note_off_c, 6, 51, 0
1, 179834, Note_off_c, 7, 67, 0
1, 179843, Note_off_c, 6, 44, 0
1, 179979, Note_off_c, 1, 32, 0
1, 179987, Note_off_c, 10, 44, 0
1, 180000, Note_on_c, 1, 32, 113
1, 180000, Note_on_c, 2, 62, 102
1, 180000, Note_on_c, 7, 60, 120
1, 180000, Note_on_c, 7, 63, 116
1, 180000, Note_on_c, 7, 67, 90
1, 180000, Note_on_c, 8, 51, 127
1, 180000, Note_on_c, 8, 56, 127
1, 180000, Note_on_c, 9, 39, 85
1, 180000, Note_on_c, 9, 40, 116
1, 180000, Note_on_c, 9, 51, 127
1, 180000, Note_on_c, 9, 53, 102
1, 180000, Note_on_c, 9, 54, 116
1, 180006, Pitch_bend_c, 3, 8712
1, 180008, Note_on_c, 10, 44, 113
1, 180011, Note_on_c, 6, 44, 127
1, 180011, Note_on_c, 6, 51, 127
1, 180015, Note_off_c, 2, 60, 0
1, 180016, Pitch_bend_c, 3, 12482
1, 180026, Pitch_bend_c, 3, 16383
1, 180028, Note_off_c, 9, 39, 0
1, 180028, Note_off_c, 9, 40, 0
1, 180028, Note_off_c, 9, 54, 0
1, 180055, Note_off_c, 7, 60, 0
1, 180060, Note_off_c, 7, 63, 0
1, 180070, Note_off_c, 7, 67, 0
1, 180075, Note_off_c, 6, 51, 0
1, 180090, Note_off_c, 8, 51, 0
1, 180091, Note_off_c, 6, 44, 0
1, 180104, Note_off_c, 8, 56, 0
1, 180207, Note_off_c, 2, 62, 0
1, 180216, Note_off_c, 3, 84, 0
1, 180219, Note_off_c, 1, 32, 0
1, 180227, Note_off_c, 10, 44, 0
1, 180234, Note_off_c, 9, 51, 0
1, 180236, Note_off_c, 8, 44, 0
1, 180239, Note_off_c, 9, 53, 0
1, 180240, Note_on_c, 1, 32, 118
1, 180240, Note_on_c, 2, 58, 116
1, 180240, Note_on_c, 7, 60, 120
1, 180240, Note_on_c, 7, 63, 116
1, 180240, Note_on_c, 7, 67, 110
1, 180240, Note_on_c, 8, 51, 116
1, 180240, Note_on_c, 8, 56, 111
1, 180241, Lyric_t, "P"
1, 180241, Lyric_t, "\015"
1, 180241, Note_on_c, 3, 82, 123
1, 180243, Pitch_bend_c, 3, 8192
1, 180248, Note_on_c, 10, 44, 118
1, 180251, Note_on_c, 6, 44, 123
1, 180251, Note_on_c, 6, 51, 123
1, 180258, Pitch_bend_c, 3, 8192
1, 180291, Note_off_c, 8, 51, 0
1, 180295, Note_off_c, 7, 60, 0
1, 180302, Note_off_c, 7, 63, 0
1, 180309, Note_off_c, 6, 51, 0
1, 180309, Note_off_c, 7, 67, 0
1, 180309, Note_off_c, 8, 56, 0
1, 180316, Note_off_c, 6, 44, 0
1, 180356, Control_c, 3, 1, 0
1, 180366, Control_c, 3, 1, 2
1, 180417, Control_c, 3, 1, 2
1, 180451, Note_off_c, 7, 32, 0
1, 180451, Note_off_c, 7, 44, 0
1, 180459, Note_off_c, 1, 32, 0
1, 180467, Note_off_c, 10, 44, 0
1, 180480, Note_on_c, 1, 32, 113
1, 180480, Note_on_c, 4, 63, 116
1, 180480, Note_on_c, 4, 67, 102
1, 180480, Note_on_c, 4, 70, 102
1, 180480, Note_on_c, 7, 32, 115
1, 180480, Note_on_c, 7, 44, 115
1, 180480, Note_on_c, 7, 60, 125
1, 180480, Note_on_c, 7, 63, 111
1, 180480, Note_on_c, 7, 67, 110
1, 180480, Note_on_c, 8, 44, 116
1, 180480, Note_on_c, 8, 51, 127
1, 180480, Note_on_c, 8, 54, 116
1, 180480, Note_on_c, 8, 56, 127
1, 180480, Note_on_c, 9, 35, 116
1, 180480, Note_on_c, 9, 51, 116
1, 180480, Note_on_c, 9, 53, 87
1, 180488, Note_on_c, 10, 44, 113
1, 180489, Note_off_c, 8, 54, 0
1, 180491, Note_on_c, 6, 44, 123
1, 180491, Note_on_c, 6, 51, 127
1, 180508, Note_off_c, 9, 35, 0
1, 180534, Note_off_c, 7, 60, 0
1, 180536, Note_off_c, 7, 63, 0
1, 180546, Note_off_c, 7, 67, 0
1, 180554, Note_off_c, 8, 51, 0
1, 180557, Note_off_c, 6, 51, 0
1, 180574, Note_off_c, 8, 56, 0
1, 180578, Note_off_c, 6, 44, 0
1, 180604, Note_off_c, 4, 63, 0
1, 180606, Note_off_c, 4, 67, 0
1, 180606, Note_off_c, 4, 70, 0
1, 180699, Note_off_c, 1, 32, 0
1, 180699, Note_off_c, 9, 51, 0
1, 180701, Note_off_c, 9, 53, 0
1, 180707, Note_off_c, 10, 44, 0
1, 180720, Note_on_c, 1, 32, 113
1, 180720, Note_on_c, 4, 63, 116
1, 180720, Note_on_c, 4, 67, 87
1, 180720, Note_on_c, 4, 70, 87
1, 180720, Note_on_c, 7, 60, 106
1, 180720, Note_on_c, 7, 63, 101
1, 180720, Note_on_c, 7, 67, 95
1, 180720, Note_on_c, 8, 51, 123
1, 180720, Note_on_c, 8, 54, 89
1, 180720, Note_on_c, 8, 56, 116
1, 180720, Note_on_c, 9, 35, 116
1, 180724, Note_off_c, 8, 54, 0
1, 180728, Note_on_c, 10, 44, 113
1, 180731, Note_on_c, 6, 44, 123
1, 180731, Note_on_c, 6, 51, 127
1, 180748, Note_off_c, 9, 35, 0
1, 180770, Note_off_c, 8, 51, 0
1, 180772, Note_off_c, 8, 56, 0
1, 180776, Note_off_c, 7, 60, 0
1, 180782, Note_off_c, 7, 63, 0
1, 180787, Note_off_c, 7, 67, 0
1, 180790, Note_off_c, 6, 51, 0
1, 180812, Note_off_c, 6, 44, 0
1, 180827, Note_off_c, 2, 58, 0
1, 180830, Note_off_c, 4, 63, 0
1, 180831, Note_off_c, 4, 67, 0
1, 180831, Note_off_c, 4, 70, 0
1, 180848, Note_off_c, 3, 82, 0
1, 180939, Note_off_c, 1, 32, 0
1, 180947, Note_off_c, 10, 44, 0
1, 180960, Note_on_c, 1, 32, 118
1, 180960, Note_on_c, 4, 65, 102
1, 180960, Note_on_c, 4, 68, 123
1, 180960, Note_on_c, 4, 72, 123
1, 180960, Note_on_c, 7, 60, 125
1, 180960, Note_on_c, 7, 63, 116
1, 180960, Note_on_c, 7, 67, 110
1, 180960, Note_on_c, 8, 51, 127
1, 180960, Note_on_c, 8, 54, 97
1, 180960, Note_on_c, 8, 56, 127
1, 180960, Note_on_c, 9, 39, 85
1, 180960, Note_on_c, 9, 40, 116
1, 180960, Note_on_c, 9, 51, 127
1, 180960, Note_on_c, 9, 53, 106
1, 180960, Note_on_c, 9, 54, 116
1, 180964, Note_off_c, 8, 54, 0
1, 180968, Note_on_c, 10, 44, 118
1, 180971, Note_on_c, 6, 44, 127
1, 180971, Note_on_c, 6, 51, 127
1, 180988, Note_off_c, 9, 39, 0
1, 180988, Note_off_c, 9, 40, 0
1, 180988, Note_off_c, 9, 54, 0
1, 181016, Note_off_c, 7, 60, 0
1, 181022, Note_off_c, 7, 63, 0
1, 181032, Note_off_c, 7, 67, 0
1, 181039, Note_off_c, 6, 51, 0
1, 181042, Note_off_c, 8, 51, 0
1, 181054, Note_off_c, 6, 44, 0
1, 181062, Note_off_c, 8, 56, 0
1, 181174, Note_off_c, 9, 51, 0
1, 181179, Note_off_c, 1, 32, 0
1, 181180, Note_off_c, 9, 53, 0
1, 181187, Note_off_c, 10, 44, 0
1, 181200, Note_on_c, 1, 32, 113
1, 181200, Note_on_c, 7, 60, 115
1, 181200, Note_on_c, 7, 63, 111
1, 181200, Note_on_c, 7, 67, 110
1, 181200, Note_on_c, 8, 51, 116
1, 181200, Note_on_c, 8, 54, 101
1, 181200, Note_on_c, 8, 56, 123
1, 181206, Note_off_c, 8, 54, 0
1, 181208, Note_on_c, 10, 44, 113
1, 181211, Note_on_c, 6, 44, 123
1, 181211, Note_on_c, 6, 51, 127
1, 181223, Lyric_t, "YOU "
1, 181223, Note_on_c, 3, 79, 125
1, 181228, Note_off_c, 4, 68, 0
1, 181228, Note_off_c, 4, 72, 0
1, 181248, Note_off_c, 4, 65, 0
1, 181258, Note_off_c, 7, 60, 0
1, 181261, Note_off_c, 7, 63, 0
1, 181262, Note_off_c, 8, 51, 0
1, 181274, Note_off_c, 6, 51, 0
1, 181277, Note_off_c, 7, 67, 0
1, 181277, Note_off_c, 8, 56, 0
1, 181286, Note_off_c, 3, 79, 0
1, 181301, Note_off_c, 6, 44, 0
1, 181320, Note_on_c, 4, 63, 123
1, 181320, Note_on_c, 4, 67, 115
1, 181320, Note_on_c, 4, 70, 115
1, 181356, Note_off_c, 8, 44, 0
1, 181411, Note_off_c, 7, 32, 0
1, 181411, Note_off_c, 7, 44, 0
1, 181419, Note_off_c, 1, 32, 0
1, 181419, Note_off_c, 4, 63, 0
1, 181420, Note_off_c, 4, 67, 0
1, 181420, Note_off_c, 4, 70, 0
1, 181427, Note_off_c, 10, 44, 0
1, 181440, Note_on_c, 1, 34, 113
1, 181440, Note_on_c, 7, 34, 115
1, 181440, Note_on_c, 7, 46, 115
1, 181440, Note_on_c, 7, 62, 98
1, 181440, Note_on_c, 7, 65, 90
1, 181440, Note_on_c, 7, 70, 101
1, 181440, Note_on_c, 8, 53, 102
1, 181440, Note_on_c, 8, 58, 123
1, 181440, Note_on_c, 9, 35, 116
1, 181440, Note_on_c, 9, 51, 116
1, 181440, Note_on_c, 9, 53, 83
1, 181448, Note_on_c, 10, 46, 113
1, 181451, Note_on_c, 6, 46, 127
1, 181451, Note_on_c, 6, 53, 115
1, 181467, Lyric_t, "HAD "
1, 181467, Note_on_c, 3, 82, 127
1, 181468, Note_off_c, 9, 35, 0
1, 181506, Note_off_c, 7, 65, 0
1, 181509, Note_off_c, 7, 70, 0
1, 181517, Note_off_c, 8, 53, 0
1, 181519, Note_off_c, 6, 53, 0
1, 181522, Note_off_c, 6, 46, 0
1, 181524, Note_off_c, 7, 62, 0
1, 181528, Note_off_c, 8, 58, 0
1, 181636, Note_off_c, 9, 51, 0
1, 181641, Note_off_c, 9, 53, 0
1, 181659, Note_off_c, 1, 34, 0
1, 181667, Note_off_c, 10, 46, 0
1, 181674, Note_off_c, 3, 82, 0
1, 181680, Note_on_c, 1, 34, 118
1, 181680, Note_on_c, 7, 62, 90
1, 181680, Note_on_c, 7, 65, 74
1, 181680, Note_on_c, 7, 70, 89
1, 181680, Note_on_c, 8, 53, 110
1, 181680, Note_on_c, 8, 58, 127
1, 181680, Note_on_c, 9, 35, 116
1, 181688, Note_on_c, 10, 46, 118
1, 181691, Note_on_c, 6, 46, 127
1, 181691, Note_on_c, 6, 53, 115
1, 181708, Note_off_c, 9, 35, 0
1, 181712, Lyric_t, "MY "
1, 181712, Note_on_c, 3, 79, 106
1, 181738, Note_off_c, 7, 70, 0
1, 181740, Note_off_c, 7, 65, 0
1, 181747, Note_off_c, 8, 53, 0
1, 181752, Note_off_c, 7, 62, 0
1, 181754, Note_off_c, 6, 53, 0
1, 181755, Note_off_c, 8, 58, 0
1, 181763, Note_off_c, 6, 46, 0
1, 181780, Note_off_c, 3, 79, 0
1, 181899, Note_off_c, 1, 34, 0
1, 181907, Note_off_c, 10, 46, 0
1, 181920, Note_on_c, 1, 34, 113
1, 181920, Note_on_c, 7, 62, 106
1, 181920, Note_on_c, 7, 65, 98
1, 181920, Note_on_c, 7, 70, 111
1, 181920, Note_on_c, 8, 53, 110
1, 181920, Note_on_c, 8, 58, 127
1, 181920, Note_on_c, 9, 39, 85
1, 181920, Note_on_c, 9, 40, 116
1, 181920, Note_on_c, 9, 51, 123
1, 181920, Note_on_c, 9, 53, 106
1, 181920, Note_on_c, 9, 54, 116
1, 181928, Note_on_c, 10, 46, 113
1, 181931, Note_on_c, 6, 46, 123
1, 181931, Note_on_c, 6, 53, 110
1, 181942, Lyric_t, "HEART "
1, 181942, Note_on_c, 3, 82, 127
1, 181948, Note_off_c, 9, 39, 0
1, 181948, Note_off_c, 9, 40, 0
1, 181948, Note_off_c, 9, 54, 0
1, 181982, Note_off_c, 7, 65, 0
1, 181985, Note_off_c, 7, 70, 0
1, 181992, Note_off_c, 7, 62, 0
1, 181997, Note_off_c, 6, 53, 0
1, 182001, Note_off_c, 8, 53, 0
1, 182004, Note_off_c, 6, 46, 0
1, 182009, Note_off_c, 8, 58, 0
1, 182135, Note_off_c, 3, 82, 0
1, 182139, Note_off_c, 1, 34, 0
1, 182147, Note_off_c, 10, 46, 0
1, 182158, Note_off_c, 9, 51, 0
1, 182160, Note_off_c, 9, 53, 0
1, 182160, Note_on_c, 1, 34, 118
1, 182160, Note_on_c, 7, 62, 106
1, 182160, Note_on_c, 7, 65, 98
1, 182160, Note_on_c, 7, 70, 105
1, 182160, Note_on_c, 8, 53, 115
1, 182160, Note_on_c, 8, 58, 123
1, 182160, Note_on_c, 9, 40, 116
1, 182168, Note_on_c, 10, 46, 118
1, 182171, Note_on_c, 6, 46, 127
1, 182171, Note_on_c, 6, 53, 125
1, 182173, Lyric_t, "IN"
1, 182173, Note_on_c, 3, 79, 106
1, 182188, Note_off_c, 9, 40, 0
1, 182216, Note_off_c, 7, 65, 0
1, 182219, Note_off_c, 7, 70, 0
1, 182232, Note_off_c, 6, 53, 0
1, 182232, Note_off_c, 7, 62, 0
1, 182242, Note_off_c, 6, 46, 0
1, 182245, Note_off_c, 8, 53, 0
1, 182248, Note_off_c, 8, 58, 0
1, 182274, Note_off_c, 3, 79, 0
1, 182280, Note_on_c, 9, 40, 116
1, 182308, Note_off_c, 9, 40, 0
1, 182371, Note_off_c, 7, 34, 0
1, 182371, Note_off_c, 7, 46, 0
1, 182379, Note_off_c, 1, 34, 0
1, 182387, Note_off_c, 10, 46, 0
1, 182400, Note_on_c, 1, 36, 113
1, 182400, Note_on_c, 2, 60, 106
1, 182400, Note_on_c, 2, 63, 89
1, 182400, Note_on_c, 4, 63, 116
1, 182400, Note_on_c, 4, 67, 102
1, 182400, Note_on_c, 4, 70, 102
1, 182400, Note_on_c, 7, 36, 115
1, 182400, Note_on_c, 7, 48, 115
1, 182400, Note_on_c, 7, 67, 106
1, 182400, Note_on_c, 7, 72, 125
1, 182400, Note_on_c, 7, 75, 116
1, 182400, Note_on_c, 8, 48, 125
1, 182400, Note_on_c, 8, 55, 115
1, 182400, Note_on_c, 8, 60, 120
1, 182400, Note_on_c, 9, 35, 116
1, 182400, Note_on_c, 9, 49, 98
1, 182400, Note_on_c, 9, 51, 116
1, 182400, Note_on_c, 9, 53, 83
1, 182408, Note_on_c, 10, 48, 113
1, 182411, Note_on_c, 6, 48, 127
1, 182411, Note_on_c, 6, 55, 125
1, 182414, Lyric_t, "SIDE"
1, 182414, Lyric_t, "\015"
1, 182414, Note_on_c, 3, 84, 115
1, 182428, Note_off_c, 9, 35, 0
1, 182428, Note_off_c, 9, 49, 0
1, 182437, Note_off_c, 7, 72, 0
1, 182438, Note_off_c, 7, 75, 0
1, 182451, Note_off_c, 6, 55, 0
1, 182453, Note_off_c, 7, 67, 0
1, 182461, Note_off_c, 6, 48, 0
1, 182493, Note_off_c, 8, 60, 0
1, 182495, Note_off_c, 8, 55, 0
1, 182524, Note_off_c, 4, 63, 0
1, 182526, Note_off_c, 4, 67, 0
1, 182526, Note_off_c, 4, 70, 0
1, 182582, Note_off_c, 8, 48, 0
1, 182598, Note_off_c, 9, 51, 0
1, 182598, Note_off_c, 9, 53, 0
1, 182619, Note_off_c, 1, 36, 0
1, 182627, Note_off_c, 10, 48, 0
1, 182640, Note_on_c, 1, 36, 113
1, 182640, Note_on_c, 4, 63, 116
1, 182640, Note_on_c, 4, 67, 87
1, 182640, Note_on_c, 4, 70, 87
1, 182640, Note_on_c, 7, 67, 77
1, 182640, Note_on_c, 7, 72, 106
1, 182640, Note_on_c, 7, 75, 86
1, 182640, Note_on_c, 8, 55, 90
1, 182640, Note_on_c, 8, 60, 102
1, 182640, Note_on_c, 9, 35, 116
1, 182648, Note_on_c, 10, 48, 113
1, 182651, Note_on_c, 6, 48, 125
1, 182651, Note_on_c, 6, 55, 125
1, 182668, Note_off_c, 9, 35, 0
1, 182671, Note_off_c, 7, 75, 0
1, 182677, Note_off_c, 7, 72, 0
1, 182684, Note_off_c, 6, 55, 0
1, 182690, Note_off_c, 7, 67, 0
1, 182700, Note_off_c, 6, 48, 0
1, 182702, Note_off_c, 8, 60, 0
1, 182709, Note_off_c, 8, 55, 0
1, 182750, Note_off_c, 4, 63, 0
1, 182751, Note_off_c, 4, 67, 0
1, 182751, Note_off_c, 4, 70, 0
1, 182859, Note_off_c, 1, 36, 0
1, 182867, Note_off_c, 10, 48, 0
1, 182880, Note_on_c, 1, 36, 118
1, 182880, Note_on_c, 4, 65, 102
1, 182880, Note_on_c, 4, 68, 123
1, 182880, Note_on_c, 4, 72, 123
1, 182880, Note_on_c, 7, 67, 120
1, 182880, Note_on_c, 7, 72, 127
1, 182880, Note_on_c, 7, 75, 127
1, 182880, Note_on_c, 8, 48, 127
1, 182880, Note_on_c, 8, 55, 125
1, 182880, Note_on_c, 8, 60, 127
1, 182880, Note_on_c, 9, 39, 85
1, 182880, Note_on_c, 9, 40, 116
1, 182880, Note_on_c, 9, 51, 123
1, 182880, Note_on_c, 9, 53, 102
1, 182880, Note_on_c, 9, 54, 116
1, 182888, Note_on_c, 10, 48, 118
1, 182891, Note_on_c, 6, 48, 127
1, 182891, Note_on_c, 6, 55, 127
1, 182908, Note_off_c, 9, 39, 0
1, 182908, Note_off_c, 9, 40, 0
1, 182908, Note_off_c, 9, 54, 0
1, 182942, Note_off_c, 6, 55, 0
1, 182948, Control_c, 3, 1, 1
1, 182948, Control_c, 3, 1, 0
1, 182949, Note_off_c, 7, 72, 0
1, 182954, Note_off_c, 7, 75, 0
1, 182958, Note_off_c, 7, 67, 0
1, 182958, Control_c, 3, 1, 4
1, 182972, Note_off_c, 6, 48, 0
1, 182988, Control_c, 3, 1, 8
1, 183018, Control_c, 3, 1, 13
1, 183021, Note_off_c, 8, 55, 0
1, 183042, Note_off_c, 8, 60, 0
1, 183048, Control_c, 3, 1, 17
1, 183055, Note_off_c, 8, 48, 0
1, 183078, Control_c, 3, 1, 22
1, 183088, Note_off_c, 9, 51, 0
1, 183098, Note_off_c, 9, 53, 0
1, 183099, Note_off_c, 1, 36, 0
1, 183107, Note_off_c, 10, 48, 0
1, 183108, Control_c, 3, 1, 26
1, 183109, Control_c, 3, 1, 27
1, 183120, Note_on_c, 1, 36, 113
1, 183120, Note_on_c, 7, 67, 74
1, 183120, Note_on_c, 7, 72, 98
1, 183120, Note_on_c, 7, 75, 97
1, 183120, Note_on_c, 8, 55, 102
1, 183120, Note_on_c, 8, 60, 115
1, 183124, Control_c, 3, 1, 32
1, 183128, Note_on_c, 10, 48, 113
1, 183131, Note_on_c, 6, 48, 125
1, 183131, Note_on_c, 6, 55, 120
1, 183139, Control_c, 3, 1, 38
1, 183148, Note_off_c, 4, 68, 0
1, 183148, Note_off_c, 4, 72, 0
1, 183154, Control_c, 3, 1, 43
1, 183168, Note_off_c, 4, 65, 0
1, 183169, Control_c, 3, 1, 49
1, 183173, Note_off_c, 6, 55, 0
1, 183184, Control_c, 3, 1, 54
1, 183185, Note_off_c, 7, 72, 0
1, 183191, Note_off_c, 7, 75, 0
1, 183199, Note_off_c, 6, 48, 0
1, 183199, Control_c, 3, 1, 60
1, 183200, Note_off_c, 7, 67, 0
1, 183202, Control_c, 3, 1, 61
1, 183212, Note_off_c, 8, 60, 0
1, 183215, Note_off_c, 8, 55, 0
1, 183217, Control_c, 3, 1, 66
1, 183232, Control_c, 3, 1, 71
1, 183234, Control_c, 3, 1, 72
1, 183240, Note_on_c, 4, 63, 123
1, 183240, Note_on_c, 4, 67, 115
1, 183240, Note_on_c, 4, 70, 115
1, 183249, Control_c, 3, 1, 77
1, 183264, Control_c, 3, 1, 82
1, 183272, Control_c, 3, 1, 85
1, 183302, Control_c, 3, 1, 89
1, 183303, Control_c, 3, 1, 90
1, 183339, Note_off_c, 1, 36, 0
1, 183339, Note_off_c, 4, 63, 0
1, 183340, Note_off_c, 4, 67, 0
1, 183340, Note_off_c, 4, 70, 0
1, 183347, Note_off_c, 10, 48, 0
1, 183360, Note_on_c, 1, 36, 113
1, 183360, Note_on_c, 7, 67, 106
1, 183360, Note_on_c, 7, 72, 127
1, 183360, Note_on_c, 7, 75, 116
1, 183360, Note_on_c, 8, 55, 115
1, 183360, Note_on_c, 8, 60, 127
1, 183360, Note_on_c, 9, 35, 116
1, 183360, Note_on_c, 9, 51, 116
1, 183360, Note_on_c, 9, 53, 80
1, 183368, Note_on_c, 10, 48, 113
1, 183371, Note_on_c, 6, 48, 127
1, 183371, Note_on_c, 6, 55, 120
1, 183377, Control_c, 3, 1, 90
1, 183387, Control_c, 3, 1, 79
1, 183388, Note_off_c, 9, 35, 0
1, 183402, Control_c, 3, 1, 40
1, 183417, Control_c, 3, 1, 0
1, 183428, Note_off_c, 6, 55, 0
1, 183429, Note_off_c, 7, 72, 0
1, 183436, Note_off_c, 7, 75, 0
1, 183438, Note_off_c, 7, 67, 0
1, 183445, Note_off_c, 6, 48, 0
1, 183484, Note_off_c, 8, 60, 0
1, 183488, Note_off_c, 8, 55, 0
1, 183536, Note_off_c, 3, 84, 0
1, 183575, Note_off_c, 9, 51, 0
1, 183576, Note_off_c, 9, 53, 0
1, 183579, Note_off_c, 1, 36, 0
1, 183587, Note_off_c, 10, 48, 0
1, 183600, Note_on_c, 1, 36, 118
1, 183600, Note_on_c, 7, 67, 71
1, 183600, Note_on_c, 7, 72, 90
1, 183600, Note_on_c, 7, 75, 81
1, 183600, Note_on_c, 8, 55, 83
1, 183600, Note_on_c, 8, 60, 102
1, 183600, Note_on_c, 9, 35, 116
1, 183608, Note_on_c, 10, 48, 118
1, 183611, Note_on_c, 6, 48, 120
1, 183611, Note_on_c, 6, 55, 115
1, 183615, Lyric_t, "OF "
1, 183615, Note_on_c, 3, 84, 106
1, 183628, Note_off_c, 9, 35, 0
1, 183647, Note_off_c, 7, 72, 0
1, 183647, Note_off_c, 7, 75, 0
1, 183648, Note_off_c, 6, 55, 0
1, 183657, Note_off_c, 6, 48, 0
1, 183657, Note_off_c, 8, 60, 0
1, 183664, Note_off_c, 7, 67, 0
1, 183673, Note_off_c, 8, 55, 0
1, 183813, Note_off_c, 3, 84, 0
1, 183819, Note_off_c, 1, 36, 0
1, 183827, Note_off_c, 10, 48, 0
1, 183840, Note_on_c, 1, 36, 113
1, 183840, Note_on_c, 7, 67, 115
1, 183840, Note_on_c, 7, 72, 127
1, 183840, Note_on_c, 7, 75, 123
1, 183840, Note_on_c, 8, 48, 127
1, 183840, Note_on_c, 8, 55, 125
1, 183840, Note_on_c, 8, 60, 127
1, 183840, Note_on_c, 9, 39, 85
1, 183840, Note_on_c, 9, 40, 116
1, 183840, Note_on_c, 9, 51, 127
1, 183840, Note_on_c, 9, 53, 102
1, 183840, Note_on_c, 9, 54, 116
1, 183848, Note_on_c, 10, 48, 113
1, 183851, Note_on_c, 6, 48, 127
1, 183851, Note_on_c, 6, 55, 125
1, 183856, Note_off_c, 2, 63, 0
1, 183868, Note_off_c, 9, 39, 0
1, 183868, Note_off_c, 9, 40, 0
1, 183868, Note_off_c, 9, 54, 0
1, 183871, Lyric_t, "YOUR "
1, 183871, Note_on_c, 3, 84, 125
1, 183898, Pitch_bend_c, 3, 8712
1, 183899, Note_off_c, 2, 60, 0
1, 183908, Pitch_bend_c, 3, 9882
1, 183912, Note_off_c, 6, 55, 0
1, 183913, Note_off_c, 7, 72, 0
1, 183918, Pitch_bend_c, 3, 11572
1, 183928, Note_off_c, 7, 75, 0
1, 183928, Pitch_bend_c, 3, 13912
1, 183929, Note_off_c, 6, 48, 0
1, 183930, Note_off_c, 7, 67, 0
1, 183938, Pitch_bend_c, 3, 16383
1, 183950, Note_off_c, 8, 60, 0
1, 183954, Note_off_c, 8, 55, 0
1, 184041, Note_off_c, 3, 84, 0
1, 184051, Pitch_bend_c, 3, 14562
1, 184052, Note_off_c, 9, 51, 0
1, 184055, Note_off_c, 9, 53, 0
1, 184059, Note_off_c, 1, 36, 0
1, 184062, Pitch_bend_c, 3, 8192
1, 184067, Note_off_c, 10, 48, 0
1, 184080, Note_on_c, 1, 36, 118
1, 184080, Note_on_c, 2, 58, 111
1, 184080, Note_on_c, 2, 62, 102
1, 184080, Note_on_c, 7, 67, 106
1, 184080, Note_on_c, 7, 72, 115
1, 184080, Note_on_c, 7, 75, 105
1, 184080, Note_on_c, 8, 55, 98
1, 184080, Note_on_c, 8, 60, 115
1, 184088, Note_on_c, 10, 48, 118
1, 184091, Note_on_c, 6, 48, 125
1, 184091, Note_on_c, 6, 55, 125
1, 184093, Lyric_t, "HAND"
1, 184093, Lyric_t, "\015"
1, 184093, Note_on_c, 3, 82, 123
1, 184142, Note_off_c, 7, 72, 0
1, 184149, Note_off_c, 6, 55, 0
1, 184151, Note_off_c, 7, 75, 0
1, 184158, Note_off_c, 8, 60, 0
1, 184162, Note_off_c, 7, 67, 0
1, 184178, Note_off_c, 8, 55, 0
1, 184189, Note_off_c, 6, 48, 0
1, 184291, Note_off_c, 7, 36, 0
1, 184291, Note_off_c, 7, 48, 0
1, 184292, Note_off_c, 8, 48, 0
1, 184299, Note_off_c, 1, 36, 0
1, 184307, Note_off_c, 10, 48, 0
1, 184320, Note_on_c, 1, 34, 113
1, 184320, Note_on_c, 4, 63, 116
1, 184320, Note_on_c, 4, 67, 102
1, 184320, Note_on_c, 4, 70, 102
1, 184320, Note_on_c, 7, 34, 115
1, 184320, Note_on_c, 7, 46, 115
1, 184320, Note_on_c, 7, 65, 83
1, 184320, Note_on_c, 7, 70, 105
1, 184320, Note_on_c, 7, 74, 102
1, 184320, Note_on_c, 8, 53, 90
1, 184320, Note_on_c, 8, 58, 123
1, 184320, Note_on_c, 9, 35, 116
1, 184320, Note_on_c, 9, 51, 116
1, 184320, Note_on_c, 9, 53, 83
1, 184328, Note_on_c, 10, 46, 113
1, 184331, Note_on_c, 6, 46, 127
1, 184331, Note_on_c, 6, 53, 115
1, 184348, Note_off_c, 9, 35, 0
1, 184383, Note_off_c, 7, 74, 0
1, 184394, Note_off_c, 6, 53, 0
1, 184394, Note_off_c, 7, 65, 0
1, 184395, Note_off_c, 7, 70, 0
1, 184401, Note_off_c, 6, 46, 0
1, 184408, Note_off_c, 2, 58, 0
1, 184416, Note_off_c, 2, 62, 0
1, 184427, Note_off_c, 8, 53, 0
1, 184433, Note_off_c, 8, 58, 0
1, 184444, Note_off_c, 4, 63, 0
1, 184446, Note_off_c, 4, 67, 0
1, 184446, Note_off_c, 4, 70, 0
1, 184523, Note_off_c, 9, 51, 0
1, 184529, Note_off_c, 9, 53, 0
1, 184539, Note_off_c, 1, 34, 0
1, 184547, Note_off_c, 10, 46, 0
1, 184560, Note_on_c, 1, 34, 113
1, 184560, Note_on_c, 4, 63, 116
1, 184560, Note_on_c, 4, 67, 87
1, 184560, Note_on_c, 4, 70, 87
1, 184560, Note_on_c, 7, 65, 63
1, 184560, Note_on_c, 7, 70, 81
1, 184560, Note_on_c, 7, 74, 56
1, 184560, Note_on_c, 8, 53, 67
1, 184560, Note_on_c, 8, 58, 86
1, 184560, Note_on_c, 9, 35, 116
1, 184568, Note_on_c, 10, 46, 113
1, 184571, Note_on_c, 6, 46, 123
1, 184571, Note_on_c, 6, 53, 120
1, 184588, Note_off_c, 9, 35, 0
1, 184597, Note_off_c, 7, 74, 0
1, 184612, Note_off_c, 7, 65, 0
1, 184613, Note_off_c, 8, 58, 0
1, 184614, Note_off_c, 7, 70, 0
1, 184630, Note_off_c, 6, 53, 0
1, 184632, Note_off_c, 8, 53, 0
1, 184633, Note_off_c, 6, 46, 0
1, 184670, Note_off_c, 4, 63, 0
1, 184671, Note_off_c, 4, 67, 0
1, 184671, Note_off_c, 4, 70, 0
1, 184779, Note_off_c, 1, 34, 0
1, 184787, Note_off_c, 10, 46, 0
1, 184800, Note_on_c, 1, 34, 118
1, 184800, Note_on_c, 4, 65, 102
1, 184800, Note_on_c, 4, 68, 123
1, 184800, Note_on_c, 4, 72, 123
1, 184800, Note_on_c, 7, 65, 106
1, 184800, Note_on_c, 7, 70, 116
1, 184800, Note_on_c, 7, 74, 115
1, 184800, Note_on_c, 8, 46, 127
1, 184800, Note_on_c, 8, 53, 110
1, 184800, Note_on_c, 8, 58, 127
1, 184800, Note_on_c, 9, 39, 85
1, 184800, Note_on_c, 9, 40, 116
1, 184800, Note_on_c, 9, 51, 127
1, 184800, Note_on_c, 9, 53, 102
1, 184800, Note_on_c, 9, 54, 116
1, 184808, Note_on_c, 10, 46, 118
1, 184811, Note_on_c, 6, 46, 127
1, 184811, Note_on_c, 6, 53, 125
1, 184828, Note_off_c, 9, 39, 0
1, 184828, Note_off_c, 9, 40, 0
1, 184828, Note_off_c, 9, 54, 0
1, 184847, Note_off_c, 3, 82, 0
1, 184870, Note_off_c, 7, 65, 0
1, 184870, Note_off_c, 7, 70, 0
1, 184883, Note_off_c, 7, 74, 0
1, 184889, Note_off_c, 6, 53, 0
1, 184917, Note_off_c, 6, 46, 0
1, 184930, Note_off_c, 8, 53, 0
1, 184931, Note_off_c, 8, 58, 0
1, 185014, Note_off_c, 9, 51, 0
1, 185014, Note_off_c, 9, 53, 0
1, 185019, Note_off_c, 1, 34, 0
1, 185027, Note_off_c, 10, 46, 0
1, 185040, Note_on_c, 1, 34, 113
1, 185040, Note_on_c, 7, 65, 74
1, 185040, Note_on_c, 7, 70, 93
1, 185040, Note_on_c, 7, 74, 83
1, 185040, Note_on_c, 8, 53, 80
1, 185040, Note_on_c, 8, 58, 116
1, 185048, Note_on_c, 10, 46, 113
1, 185051, Note_on_c, 6, 46, 111
1, 185051, Note_on_c, 6, 53, 106
1, 185068, Note_off_c, 4, 68, 0
1, 185068, Note_off_c, 4, 72, 0
1, 185088, Note_off_c, 4, 65, 0
1, 185106, Note_off_c, 7, 65, 0
1, 185108, Note_off_c, 7, 70, 0
1, 185116, Note_off_c, 6, 53, 0
1, 185116, Note_off_c, 7, 74, 0
1, 185120, Note_off_c, 6, 46, 0
1, 185129, Note_off_c, 8, 53, 0
1, 185137, Note_off_c, 8, 58, 0
1, 185160, Note_on_c, 4, 63, 123
1, 185160, Note_on_c, 4, 67, 115
1, 185160, Note_on_c, 4, 70, 115
1, 185259, Note_off_c, 1, 34, 0
1, 185259, Note_off_c, 4, 63, 0
1, 185260, Note_off_c, 4, 67, 0
1, 185260, Note_off_c, 4, 70, 0
1, 185267, Note_off_c, 10, 46, 0
1, 185280, Note_on_c, 1, 34, 113
1, 185280, Note_on_c, 7, 65, 90
1, 185280, Note_on_c, 7, 70, 101
1, 185280, Note_on_c, 7, 74, 98
1, 185280, Note_on_c, 8, 53, 90
1, 185280, Note_on_c, 8, 58, 123
1, 185280, Note_on_c, 9, 35, 116
1, 185280, Note_on_c, 9, 51, 123
1, 185280, Note_on_c, 9, 53, 87
1, 185288, Note_on_c, 10, 46, 113
1, 185291, Note_on_c, 6, 46, 127
1, 185291, Note_on_c, 6, 53, 120
1, 185308, Note_off_c, 9, 35, 0
1, 185346, Note_off_c, 7, 65, 0
1, 185349, Note_off_c, 7, 70, 0
1, 185364, Note_off_c, 7, 74, 0
1, 185367, Note_off_c, 6, 53, 0
1, 185373, Note_off_c, 6, 46, 0
1, 185377, Note_off_c, 8, 53, 0
1, 185389, Note_off_c, 8, 58, 0
1, 185481, Note_off_c, 9, 51, 0
1, 185483, Note_off_c, 9, 53, 0
1, 185499, Note_off_c, 1, 34, 0
1, 185507, Note_off_c, 10, 46, 0
1, 185516, Lyric_t, "BUT "
1, 185516, Note_on_c, 3, 79, 120
1, 185520, Note_on_c, 1, 34, 118
1, 185520, Note_on_c, 7, 65, 74
1, 185520, Note_on_c, 7, 70, 89
1, 185520, Note_on_c, 7, 74, 90
1, 185520, Note_on_c, 8, 53, 63
1, 185520, Note_on_c, 8, 58, 97
1, 185520, Note_on_c, 9, 35, 116
1, 185521, Note_off_c, 8, 46, 0
1, 185528, Note_on_c, 10, 46, 118
1, 185531, Note_on_c, 6, 46, 116
1, 185531, Note_on_c, 6, 53, 110
1, 185548, Note_off_c, 9, 35, 0
1, 185565, Note_off_c, 8, 58, 0
1, 185571, Note_off_c, 8, 53, 0
1, 185578, Note_off_c, 7, 70, 0
1, 185580, Note_off_c, 7, 65, 0
1, 185592, Note_off_c, 7, 74, 0
1, 185596, Note_off_c, 6, 53, 0
1, 185600, Note_off_c, 6, 46, 0
1, 185687, Note_off_c, 3, 79, 0
1, 185739, Note_off_c, 1, 34, 0
1, 185741, Lyric_t, "YOU "
1, 185741, Note_on_c, 3, 79, 120
1, 185747, Note_off_c, 10, 46, 0
1, 185760, Note_on_c, 1, 34, 113
1, 185760, Note_on_c, 7, 65, 98
1, 185760, Note_on_c, 7, 70, 111
1, 185760, Note_on_c, 7, 74, 106
1, 185760, Note_on_c, 8, 46, 123
1, 185760, Note_on_c, 8, 53, 102
1, 185760, Note_on_c, 8, 58, 127
1, 185760, Note_on_c, 9, 39, 85
1, 185760, Note_on_c, 9, 40, 116
1, 185760, Note_on_c, 9, 51, 123
1, 185760, Note_on_c, 9, 53, 102
1, 185760, Note_on_c, 9, 54, 116
1, 185768, Note_on_c, 10, 46, 113
1, 185771, Note_on_c, 6, 46, 127
1, 185771, Note_on_c, 6, 53, 120
1, 185788, Note_off_c, 9, 39, 0
1, 185788, Note_off_c, 9, 40, 0
1, 185788, Note_off_c, 9, 54, 0
1, 185822, Note_off_c, 7, 65, 0
1, 185825, Note_off_c, 7, 70, 0
1, 185832, Note_off_c, 7, 74, 0
1, 185843, Note_off_c, 6, 53, 0
1, 185850, Note_off_c, 6, 46, 0
1, 185863, Note_off_c, 8, 53, 0
1, 185877, Note_off_c, 8, 58, 0
1, 185939, Note_off_c, 3, 79, 0
1, 185979, Note_off_c, 1, 34, 0
1, 185987, Note_off_c, 10, 46, 0
1, 185988, Note_off_c, 9, 51, 0
1, 185989, Note_off_c, 9, 53, 0
1, 186000, Lyric_t, "PLAYED "
1, 186000, Note_on_c, 1, 34, 118
1, 186000, Note_on_c, 3, 80, 123
1, 186000, Note_on_c, 7, 65, 98
1, 186000, Note_on_c, 7, 70, 105
1, 186000, Note_on_c, 7, 74, 106
1, 186000, Note_on_c, 8, 53, 98
1, 186000, Note_on_c, 8, 58, 111
1, 186008, Note_on_c, 10, 46, 118
1, 186011, Note_on_c, 6, 46, 123
1, 186011, Note_on_c, 6, 53, 115
1, 186056, Note_off_c, 7, 65, 0
1, 186059, Note_off_c, 7, 70, 0
1, 186063, Note_off_c, 8, 58, 0
1, 186072, Note_off_c, 7, 74, 0
1, 186082, Note_off_c, 6, 46, 0
1, 186091, Note_off_c, 6, 53, 0
1, 186093, Note_off_c, 8, 53, 0
1, 186211, Note_off_c, 7, 34, 0
1, 186211, Note_off_c, 7, 46, 0
1, 186219, Note_off_c, 1, 34, 0
1, 186227, Note_off_c, 10, 46, 0
1, 186233, Note_off_c, 8, 46, 0
1, 186240, Note_on_c, 1, 32, 113
1, 186240, Note_on_c, 4, 63, 116
1, 186240, Note_on_c, 4, 67, 102
1, 186240, Note_on_c, 4, 70, 102
1, 186240, Note_on_c, 7, 32, 115
1, 186240, Note_on_c, 7, 44, 115
1, 186240, Note_on_c, 7, 60, 125
1, 186240, Note_on_c, 7, 63, 116
1, 186240, Note_on_c, 7, 67, 115
1, 186240, Note_on_c, 8, 51, 127
1, 186240, Note_on_c, 8, 56, 123
1, 186240, Note_on_c, 9, 35, 116
1, 186240, Note_on_c, 9, 51, 116
1, 186240, Note_on_c, 9, 53, 87
1, 186248, Note_on_c, 10, 44, 113
1, 186251, Note_on_c, 6, 44, 116
1, 186251, Note_on_c, 6, 51, 127
1, 186268, Note_off_c, 9, 35, 0
1, 186297, Note_off_c, 7, 63, 0
1, 186300, Note_off_c, 7, 60, 0
1, 186309, Note_off_c, 7, 67, 0
1, 186312, Note_off_c, 6, 51, 0
1, 186354, Note_off_c, 6, 44, 0
1, 186364, Note_off_c, 4, 63, 0
1, 186365, Note_off_c, 8, 51, 0
1, 186366, Note_off_c, 4, 67, 0
1, 186366, Note_off_c, 4, 70, 0
1, 186374, Note_off_c, 3, 80, 0
1, 186393, Note_off_c, 8, 56, 0
1, 186443, Note_off_c, 9, 53, 0
1, 186447, Note_off_c, 9, 51, 0
1, 186459, Note_off_c, 1, 32, 0
1, 186467, Note_off_c, 10, 44, 0
1, 186480, Note_on_c, 1, 32, 113
1, 186480, Note_on_c, 4, 63, 116
1, 186480, Note_on_c, 4, 67, 87
1, 186480, Note_on_c, 4, 70, 87
1, 186480, Note_on_c, 7, 60, 110
1, 186480, Note_on_c, 7, 63, 105
1, 186480, Note_on_c, 7, 67, 102
1, 186480, Note_on_c, 8, 51, 101
1, 186480, Note_on_c, 8, 56, 86
1, 186480, Note_on_c, 9, 35, 116
1, 186488, Note_on_c, 10, 44, 113
1, 186489, Lyric_t, "IT"
1, 186489, Lyric_t, "\015"
1, 186489, Note_on_c, 3, 80, 123
1, 186491, Note_on_c, 6, 44, 116
1, 186491, Note_on_c, 6, 51, 116
1, 186508, Note_off_c, 9, 35, 0
1, 186522, Note_off_c, 7, 60, 0
1, 186526, Note_off_c, 7, 63, 0
1, 186526, Note_off_c, 8, 56, 0
1, 186531, Note_off_c, 7, 67, 0
1, 186536, Note_off_c, 6, 51, 0
1, 186536, Note_off_c, 8, 51, 0
1, 186559, Note_off_c, 6, 44, 0
1, 186590, Note_off_c, 4, 63, 0
1, 186591, Note_off_c, 4, 67, 0
1, 186591, Note_off_c, 4, 70, 0
1, 186610, Note_off_c, 3, 80, 0
1, 186699, Note_off_c, 1, 32, 0
1, 186707, Note_off_c, 10, 44, 0
1, 186713, Lyric_t, "YOU "
1, 186713, Note_on_c, 3, 79, 125
1, 186720, Note_on_c, 1, 32, 118
1, 186720, Note_on_c, 4, 65, 102
1, 186720, Note_on_c, 4, 68, 123
1, 186720, Note_on_c, 4, 72, 123
1, 186720, Note_on_c, 7, 60, 127
1, 186720, Note_on_c, 7, 63, 123
1, 186720, Note_on_c, 7, 67, 125
1, 186720, Note_on_c, 8, 44, 123
1, 186720, Note_on_c, 8, 51, 127
1, 186720, Note_on_c, 8, 54, 123
1, 186720, Note_on_c, 8, 56, 127
1, 186720, Note_on_c, 9, 39, 85
1, 186720, Note_on_c, 9, 40, 116
1, 186720, Note_on_c, 9, 51, 123
1, 186720, Note_on_c, 9, 53, 95
1, 186720, Note_on_c, 9, 54, 116
1, 186728, Note_on_c, 10, 44, 118
1, 186731, Note_on_c, 6, 44, 127
1, 186731, Note_on_c, 6, 51, 127
1, 186735, Note_off_c, 8, 54, 0
1, 186748, Note_off_c, 9, 39, 0
1, 186748, Note_off_c, 9, 40, 0
1, 186748, Note_off_c, 9, 54, 0
1, 186778, Note_off_c, 7, 60, 0
1, 186780, Note_off_c, 7, 63, 0
1, 186793, Note_off_c, 6, 51, 0
1, 186795, Note_off_c, 7, 67, 0
1, 186799, Note_off_c, 3, 79, 0
1, 186807, Note_off_c, 8, 51, 0
1, 186827, Note_off_c, 6, 44, 0
1, 186832, Note_off_c, 8, 56, 0
1, 186939, Note_off_c, 1, 32, 0
1, 186940, Note_off_c, 9, 51, 0
1, 186947, Note_off_c, 10, 44, 0
1, 186949, Note_off_c, 9, 53, 0
1, 186960, Note_on_c, 1, 32, 113
1, 186960, Note_on_c, 7, 60, 125
1, 186960, Note_on_c, 7, 63, 111
1, 186960, Note_on_c, 7, 67, 102
1, 186960, Note_on_c, 8, 51, 111
1, 186960, Note_on_c, 8, 56, 101
1, 186964, Lyric_t, "PLAYED "
1, 186964, Note_on_c, 3, 80, 127
1, 186968, Note_on_c, 10, 44, 113
1, 186971, Note_on_c, 6, 44, 116
1, 186971, Note_on_c, 6, 51, 116
1, 186988, Note_off_c, 4, 68, 0
1, 186988, Note_off_c, 4, 72, 0
1, 187008, Note_off_c, 4, 65, 0
1, 187013, Note_off_c, 7, 60, 0
1, 187013, Note_off_c, 7, 63, 0
1, 187021, Note_off_c, 7, 67, 0
1, 187027, Note_off_c, 6, 51, 0
1, 187035, Note_off_c, 8, 51, 0
1, 187037, Note_off_c, 8, 56, 0
1, 187053, Note_off_c, 6, 44, 0
1, 187080, Note_on_c, 4, 63, 123
1, 187080, Note_on_c, 4, 67, 115
1, 187080, Note_on_c, 4, 70, 115
1, 187179, Note_off_c, 1, 32, 0
1, 187179, Note_off_c, 4, 63, 0
1, 187180, Note_off_c, 4, 67, 0
1, 187180, Note_off_c, 4, 70, 0
1, 187187, Note_off_c, 10, 44, 0
1, 187200, Note_on_c, 1, 32, 113
1, 187200, Note_on_c, 7, 60, 120
1, 187200, Note_on_c, 7, 63, 116
1, 187200, Note_on_c, 7, 67, 110
1, 187200, Note_on_c, 8, 51, 123
1, 187200, Note_on_c, 8, 54, 86
1, 187200, Note_on_c, 8, 56, 116
1, 187200, Note_on_c, 9, 35, 116
1, 187200, Note_on_c, 9, 51, 116
1, 187200, Note_on_c, 9, 53, 90
1, 187206, Note_off_c, 8, 54, 0
1, 187208, Note_on_c, 10, 44, 113
1, 187211, Note_on_c, 6, 44, 123
1, 187211, Note_on_c, 6, 51, 127
1, 187228, Note_off_c, 9, 35, 0
1, 187254, Note_off_c, 7, 60, 0
1, 187261, Note_off_c, 7, 63, 0
1, 187269, Note_off_c, 7, 67, 0
1, 187273, Note_off_c, 8, 51, 0
1, 187276, Note_off_c, 6, 51, 0
1, 187288, Note_off_c, 8, 56, 0
1, 187301, Note_off_c, 6, 44, 0
1, 187329, Note_off_c, 3, 80, 0
1, 187414, Note_off_c, 9, 51, 0
1, 187419, Note_off_c, 1, 32, 0
1, 187423, Note_off_c, 9, 53, 0
1, 187427, Note_off_c, 10, 44, 0
1, 187440, Note_on_c, 1, 32, 118
1, 187440, Note_on_c, 7, 60, 115
1, 187440, Note_on_c, 7, 63, 111
1, 187440, Note_on_c, 7, 67, 106
1, 187440, Note_on_c, 8, 51, 101
1, 187440, Note_on_c, 8, 56, 75
1, 187440, Note_on_c, 9, 35, 116
1, 187448, Note_on_c, 10, 44, 118
1, 187451, Note_on_c, 6, 44, 123
1, 187451, Note_on_c, 6, 51, 123
1, 187454, Lyric_t, "IT"
1, 187454, Lyric_t, "\015"
1, 187454, Note_on_c, 3, 80, 123
1, 187468, Note_off_c, 9, 35, 0
1, 187474, Note_off_c, 8, 56, 0
1, 187479, Note_off_c, 8, 51, 0
1, 187496, Note_off_c, 7, 60, 0
1, 187501, Note_off_c, 7, 63, 0
1, 187507, Note_off_c, 6, 51, 0
1, 187514, Note_off_c, 7, 67, 0
1, 187523, Note_off_c, 6, 44, 0
1, 187537, Note_off_c, 3, 80, 0
1, 187659, Note_off_c, 1, 32, 0
1, 187667, Note_off_c, 10, 44, 0
1, 187680, Note_on_c, 1, 32, 113
1, 187680, Note_on_c, 7, 60, 120
1, 187680, Note_on_c, 7, 63, 116
1, 187680, Note_on_c, 7, 67, 90
1, 187680, Note_on_c, 8, 51, 127
1, 187680, Note_on_c, 8, 56, 127
1, 187680, Note_on_c, 9, 39, 85
1, 187680, Note_on_c, 9, 40, 116
1, 187680, Note_on_c, 9, 51, 127
1, 187680, Note_on_c, 9, 53, 95
1, 187680, Note_on_c, 9, 54, 116
1, 187688, Note_on_c, 10, 44, 113
1, 187691, Note_on_c, 6, 44, 127
1, 187691, Note_on_c, 6, 51, 127
1, 187704, Lyric_t, "YOU "
1, 187704, Note_on_c, 3, 79, 125
1, 187708, Note_off_c, 9, 39, 0
1, 187708, Note_off_c, 9, 40, 0
1, 187708, Note_off_c, 9, 54, 0
1, 187735, Note_off_c, 7, 60, 0
1, 187740, Note_off_c, 7, 63, 0
1, 187750, Note_off_c, 7, 67, 0
1, 187755, Note_off_c, 6, 51, 0
1, 187770, Note_off_c, 8, 51, 0
1, 187771, Note_off_c, 6, 44, 0
1, 187784, Note_off_c, 8, 56, 0
1, 187787, Note_off_c, 3, 79, 0
1, 187892, Note_off_c, 9, 51, 0
1, 187899, Note_off_c, 1, 32, 0
1, 187900, Note_off_c, 9, 53, 0
1, 187907, Note_off_c, 10, 44, 0
1, 187916, Note_off_c, 8, 44, 0
1, 187920, Note_on_c, 1, 32, 118
1, 187920, Note_on_c, 7, 60, 120
1, 187920, Note_on_c, 7, 63, 116
1, 187920, Note_on_c, 7, 67, 110
1, 187920, Note_on_c, 8, 51, 116
1, 187920, Note_on_c, 8, 56, 111
1, 187928, Note_on_c, 10, 44, 118
1, 187931, Note_on_c, 6, 44, 123
1, 187931, Note_on_c, 6, 51, 123
1, 187935, Lyric_t, "PLAYED "
1, 187935, Note_on_c, 3, 80, 127
1, 187971, Note_off_c, 8, 51, 0
1, 187975, Note_off_c, 7, 60, 0
1, 187982, Note_off_c, 7, 63, 0
1, 187989, Note_off_c, 6, 51, 0
1, 187989, Note_off_c, 7, 67, 0
1, 187989, Note_off_c, 8, 56, 0
1, 187996, Note_off_c, 6, 44, 0
1, 188131, Note_off_c, 7, 32, 0
1, 188131, Note_off_c, 7, 44, 0
1, 188139, Note_off_c, 1, 32, 0
1, 188147, Note_off_c, 10, 44, 0
1, 188160, Note_on_c, 1, 32, 113
1, 188160, Note_on_c, 4, 63, 116
1, 188160, Note_on_c, 4, 67, 102
1, 188160, Note_on_c, 4, 70, 102
1, 188160, Note_on_c, 7, 32, 115
1, 188160, Note_on_c, 7, 44, 115
1, 188160, Note_on_c, 7, 60, 125
1, 188160, Note_on_c, 7, 63, 111
1, 188160, Note_on_c, 7, 67, 110
1, 188160, Note_on_c, 8, 44, 116
1, 188160, Note_on_c, 8, 51, 127
1, 188160, Note_on_c, 8, 54, 116
1, 188160, Note_on_c, 8, 56, 127
1, 188160, Note_on_c, 9, 35, 116
1, 188160, Note_on_c, 9, 51, 123
1, 188160, Note_on_c, 9, 53, 95
1, 188168, Note_on_c, 10, 44, 113
1, 188169, Note_off_c, 8, 54, 0
1, 188171, Note_on_c, 6, 44, 123
1, 188171, Note_on_c, 6, 51, 127
1, 188188, Note_off_c, 9, 35, 0
1, 188214, Note_off_c, 7, 60, 0
1, 188216, Note_off_c, 7, 63, 0
1, 188226, Note_off_c, 7, 67, 0
1, 188234, Note_off_c, 8, 51, 0
1, 188237, Note_off_c, 6, 51, 0
1, 188254, Note_off_c, 8, 56, 0
1, 188258, Note_off_c, 6, 44, 0
1, 188266, Note_off_c, 3, 80, 0
1, 188280, Note_on_c, 9, 40, 116
1, 188284, Note_off_c, 4, 63, 0
1, 188286, Note_off_c, 4, 67, 0
1, 188286, Note_off_c, 4, 70, 0
1, 188308, Note_off_c, 9, 40, 0
1, 188372, Note_off_c, 9, 51, 0
1, 188379, Note_off_c, 1, 32, 0
1, 188379, Note_off_c, 9, 53, 0
1, 188387, Note_off_c, 10, 44, 0
1, 188400, Note_on_c, 1, 32, 113
1, 188400, Note_on_c, 4, 63, 116
1, 188400, Note_on_c, 4, 67, 87
1, 188400, Note_on_c, 4, 70, 87
1, 188400, Note_on_c, 7, 60, 106
1, 188400, Note_on_c, 7, 63, 101
1, 188400, Note_on_c, 7, 67, 95
1, 188400, Note_on_c, 8, 51, 123
1, 188400, Note_on_c, 8, 54, 89
1, 188400, Note_on_c, 8, 56, 116
1, 188400, Note_on_c, 9, 35, 116
1, 188404, Note_off_c, 8, 54, 0
1, 188408, Lyric_t, "IT"
1, 188408, Lyric_t, "\015"
1, 188408, Note_on_c, 3, 80, 127
1, 188408, Note_on_c, 10, 44, 113
1, 188411, Note_on_c, 6, 44, 123
1, 188411, Note_on_c, 6, 51, 127
1, 188428, Note_off_c, 9, 35, 0
1, 188450, Note_off_c, 8, 51, 0
1, 188452, Note_off_c, 8, 56, 0
1, 188456, Note_off_c, 7, 60, 0
1, 188462, Note_off_c, 7, 63, 0
1, 188467, Note_off_c, 7, 67, 0
1, 188470, Note_off_c, 6, 51, 0
1, 188489, Note_off_c, 3, 80, 0
1, 188492, Note_off_c, 6, 44, 0
1, 188510, Note_off_c, 4, 63, 0
1, 188511, Note_off_c, 4, 67, 0
1, 188511, Note_off_c, 4, 70, 0
1, 188619, Note_off_c, 1, 32, 0
1, 188627, Note_off_c, 10, 44, 0
1, 188640, Note_on_c, 1, 32, 118
1, 188640, Note_on_c, 4, 65, 102
1, 188640, Note_on_c, 4, 68, 123
1, 188640, Note_on_c, 4, 72, 123
1, 188640, Note_on_c, 7, 60, 125
1, 188640, Note_on_c, 7, 63, 116
1, 188640, Note_on_c, 7, 67, 110
1, 188640, Note_on_c, 8, 51, 127
1, 188640, Note_on_c, 8, 54, 97
1, 188640, Note_on_c, 8, 56, 127
1, 188640, Note_on_c, 9, 39, 85
1, 188640, Note_on_c, 9, 40, 116
1, 188640, Note_on_c, 9, 51, 123
1, 188640, Note_on_c, 9, 53, 98
1, 188640, Note_on_c, 9, 54, 116
1, 188644, Note_off_c, 8, 54, 0
1, 188648, Note_on_c, 10, 44, 118
1, 188651, Note_on_c, 6, 44, 127
1, 188651, Note_on_c, 6, 51, 127
1, 188667, Lyric_t, "YOU "
1, 188667, Note_on_c, 3, 79, 120
1, 188668, Note_off_c, 9, 39, 0
1, 188668, Note_off_c, 9, 40, 0
1, 188668, Note_off_c, 9, 54, 0
1, 188696, Note_off_c, 7, 60, 0
1, 188702, Note_off_c, 7, 63, 0
1, 188712, Note_off_c, 7, 67, 0
1, 188719, Note_off_c, 6, 51, 0
1, 188722, Note_off_c, 8, 51, 0
1, 188734, Note_off_c, 6, 44, 0
1, 188742, Note_off_c, 8, 56, 0
1, 188744, Note_off_c, 3, 79, 0
1, 188840, Note_off_c, 9, 51, 0
1, 188844, Note_off_c, 9, 53, 0
1, 188859, Note_off_c, 1, 32, 0
1, 188867, Note_off_c, 10, 44, 0
1, 188880, Lyric_t, "PLAYED "
1, 188880, Note_on_c, 1, 32, 113
1, 188880, Note_on_c, 3, 80, 127
1, 188880, Note_on_c, 7, 60, 115
1, 188880, Note_on_c, 7, 63, 111
1, 188880, Note_on_c, 7, 67, 110
1, 188880, Note_on_c, 8, 51, 116
1, 188880, Note_on_c, 8, 54, 101
1, 188880, Note_on_c, 8, 56, 123
1, 188886, Note_off_c, 8, 54, 0
1, 188888, Note_on_c, 10, 44, 113
1, 188891, Note_on_c, 6, 44, 123
1, 188891, Note_on_c, 6, 51, 127
1, 188908, Note_off_c, 4, 68, 0
1, 188908, Note_off_c, 4, 72, 0
1, 188928, Note_off_c, 4, 65, 0
1, 188938, Note_off_c, 7, 60, 0
1, 188941, Note_off_c, 7, 63, 0
1, 188942, Note_off_c, 8, 51, 0
1, 188954, Note_off_c, 6, 51, 0
1, 188957, Note_off_c, 7, 67, 0
1, 188957, Note_off_c, 8, 56, 0
1, 188981, Note_off_c, 6, 44, 0
1, 189000, Note_on_c, 4, 63, 123
1, 189000, Note_on_c, 4, 67, 115
1, 189000, Note_on_c, 4, 70, 115
1, 189036, Note_off_c, 8, 44, 0
1, 189091, Note_off_c, 7, 32, 0
1, 189091, Note_off_c, 7, 44, 0
1, 189099, Note_off_c, 1, 32, 0
1, 189099, Note_off_c, 4, 63, 0
1, 189100, Note_off_c, 4, 67, 0
1, 189100, Note_off_c, 4, 70, 0
1, 189107, Note_off_c, 10, 44, 0
1, 189120, Note_on_c, 1, 34, 113
1, 189120, Note_on_c, 7, 34, 115
1, 189120, Note_on_c, 7, 46, 115
1, 189120, Note_on_c, 7, 62, 98
1, 189120, Note_on_c, 7, 65, 90
1, 189120, Note_on_c, 7, 70, 101
1, 189120, Note_on_c, 8, 53, 102
1, 189120, Note_on_c, 8, 58, 123
1, 189120, Note_on_c, 9, 35, 116
1, 189120, Note_on_c, 9, 51, 116
1, 189120, Note_on_c, 9, 53, 87
1, 189128, Note_on_c, 10, 46, 113
1, 189131, Note_on_c, 6, 46, 127
1, 189131, Note_on_c, 6, 53, 115
1, 189148, Note_off_c, 9, 35, 0
1, 189186, Note_off_c, 7, 65, 0
1, 189189, Note_off_c, 7, 70, 0
1, 189197, Note_off_c, 8, 53, 0
1, 189199, Note_off_c, 6, 53, 0
1, 189202, Note_off_c, 6, 46, 0
1, 189204, Note_off_c, 7, 62, 0
1, 189208, Note_off_c, 8, 58, 0
1, 189287, Note_off_c, 3, 80, 0
1, 189339, Note_off_c, 1, 34, 0
1, 189339, Note_off_c, 9, 51, 0
1, 189347, Note_off_c, 10, 46, 0
1, 189351, Note_off_c, 9, 53, 0
1, 189360, Lyric_t, "IT"
1, 189360, Lyric_t, "\015"
1, 189360, Note_on_c, 1, 34, 118
1, 189360, Note_on_c, 3, 80, 127
1, 189360, Note_on_c, 7, 62, 90
1, 189360, Note_on_c, 7, 65, 74
1, 189360, Note_on_c, 7, 70, 89
1, 189360, Note_on_c, 8, 53, 110
1, 189360, Note_on_c, 8, 58, 127
1, 189360, Note_on_c, 9, 35, 116
1, 189360, Note_on_c, 9, 40, 116
1, 189368, Note_on_c, 10, 46, 118
1, 189371, Note_on_c, 6, 46, 127
1, 189371, Note_on_c, 6, 53, 115
1, 189388, Note_off_c, 9, 35, 0
1, 189388, Note_off_c, 9, 40, 0
1, 189418, Note_off_c, 7, 70, 0
1, 189420, Note_off_c, 7, 65, 0
1, 189427, Note_off_c, 8, 53, 0
1, 189432, Note_off_c, 7, 62, 0
1, 189434, Note_off_c, 6, 53, 0
1, 189435, Note_off_c, 8, 58, 0
1, 189443, Note_off_c, 6, 46, 0
1, 189470, Note_off_c, 3, 80, 0
1, 189480, Note_on_c, 9, 40, 116
1, 189508, Note_off_c, 9, 40, 0
1, 189579, Note_off_c, 1, 34, 0
1, 189587, Note_off_c, 10, 46, 0
1, 189600, Lyric_t, "TO "
1, 189600, Note_on_c, 1, 34, 113
1, 189600, Note_on_c, 3, 79, 127
1, 189600, Note_on_c, 7, 62, 106
1, 189600, Note_on_c, 7, 65, 98
1, 189600, Note_on_c, 7, 70, 111
1, 189600, Note_on_c, 8, 53, 110
1, 189600, Note_on_c, 8, 58, 127
1, 189600, Note_on_c, 9, 39, 85
1, 189600, Note_on_c, 9, 40, 116
1, 189600, Note_on_c, 9, 51, 127
1, 189600, Note_on_c, 9, 53, 102
1, 189600, Note_on_c, 9, 54, 116
1, 189608, Note_on_c, 10, 46, 113
1, 189611, Note_on_c, 6, 46, 123
1, 189611, Note_on_c, 6, 53, 110
1, 189628, Note_off_c, 9, 39, 0
1, 189628, Note_off_c, 9, 40, 0
1, 189628, Note_off_c, 9, 54, 0
1, 189662, Note_off_c, 7, 65, 0
1, 189665, Note_off_c, 7, 70, 0
1, 189672, Note_off_c, 7, 62, 0
1, 189677, Note_off_c, 6, 53, 0
1, 189681, Note_off_c, 8, 53, 0
1, 189684, Note_off_c, 6, 46, 0
1, 189689, Note_off_c, 8, 58, 0
1, 189720, Note_on_c, 9, 40, 116
1, 189748, Note_off_c, 9, 40, 0
1, 189813, Note_off_c, 3, 79, 0
1, 189819, Note_off_c, 1, 34, 0
1, 189827, Note_off_c, 10, 46, 0
1, 189840, Lyric_t, "THE "
1, 189840, Note_on_c, 1, 34, 118
1, 189840, Note_on_c, 3, 77, 120
1, 189840, Note_on_c, 7, 62, 106
1, 189840, Note_on_c, 7, 65, 98
1, 189840, Note_on_c, 7, 70, 105
1, 189840, Note_on_c, 8, 53, 115
1, 189840, Note_on_c, 8, 58, 123
1, 189840, Note_on_c, 9, 40, 116
1, 189848, Note_on_c, 10, 46, 118
1, 189851, Note_on_c, 6, 46, 127
1, 189851, Note_on_c, 6, 53, 125
1, 189868, Note_off_c, 9, 40, 0
1, 189876, Note_off_c, 9, 51, 0
1, 189889, Note_off_c, 9, 53, 0
1, 189896, Note_off_c, 7, 65, 0
1, 189899, Note_off_c, 7, 70, 0
1, 189912, Note_off_c, 6, 53, 0
1, 189912, Note_off_c, 7, 62, 0
1, 189922, Note_off_c, 6, 46, 0
1, 189925, Note_off_c, 8, 53, 0
1, 189928, Note_off_c, 8, 58, 0
1, 189960, Note_on_c, 9, 40, 116
1, 189988, Note_off_c, 9, 40, 0
1, 190051, Note_off_c, 7, 34, 0
1, 190051, Note_off_c, 7, 46, 0
1, 190059, Note_off_c, 1, 34, 0
1, 190061, Note_off_c, 3, 77, 0
1, 190067, Note_off_c, 10, 46, 0
1, 190080, Lyric_t, "BEA"
1, 190080, Note_on_c, 1, 36, 118
1, 190080, Note_on_c, 3, 79, 125
1, 190080, Note_on_c, 7, 36, 115
1, 190080, Note_on_c, 7, 48, 115
1, 190080, Note_on_c, 7, 60, 125
1, 190080, Note_on_c, 7, 63, 116
1, 190080, Note_on_c, 7, 67, 115
1, 190080, Note_on_c, 9, 35, 116
1, 190080, Note_on_c, 9, 49, 116
1, 190108, Note_off_c, 9, 35, 0
1, 190108, Note_off_c, 9, 49, 0
1, 190178, Note_off_c, 3, 79, 0
1, 190200, Note_on_c, 3, 77, 110
1, 190302, Note_off_c, 3, 77, 0
1, 190320, Lyric_t, "T"
1, 190320, Lyric_t, "\015"
1, 190320, Note_on_c, 3, 75, 127
1, 190737, Note_off_c, 7, 63, 0
1, 190740, Note_off_c, 7, 60, 0
1, 190744, Note_off_c, 3, 75, 0
1, 190749, Note_off_c, 7, 67, 0
1, 190771, Note_off_c, 7, 36, 0
1, 190771, Note_off_c, 7, 48, 0
1, 190899, Note_off_c, 1, 36, 0
1, 192480, Control_c, 1, 123, 0
1, 192480, Control_c, 2, 123, 0
1, 192481, Control_c, 3, 123, 0
1, 192481, Control_c, 4, 123, 0
1, 192482, Control_c, 5, 123, 0
1, 192482, Control_c, 7, 123, 0
1, 192483, Control_c, 8, 123, 0
1, 192483, Control_c, 9, 123, 0
1, 192484, Control_c, 10, 123, 0
1, 192491, Control_c, 6, 123, 0
1, 192840, Control_c, 1, 120, 0
1, 192840, Control_c, 2, 120, 0
1, 192841, Control_c, 3, 120, 0
1, 192841, Control_c, 4, 120, 0
1, 192842, Control_c, 5, 120, 0
1, 192842, Control_c, 7, 120, 0
1, 192843, Control_c, 8, 120, 0
1, 192843, Control_c, 9, 120, 0
1, 192844, Control_c, 10, 120, 0
1, 192851, Control_c, 6, 120, 0
1, 192851, End_track
0, 0, End_of_file
