0, 0, Header, 1, 2, 960
1, 0, Start_track
1, 0, Control_c, 0, 101, 0
1, 0, Control_c, 0, 100, 0
1, 0, Control_c, 0, 6, 12
1, 0, Control_c, 0, 38, 0
1, 0, Control_c, 1, 101, 0
1, 0, Control_c, 1, 100, 0
1, 0, Control_c, 1, 6, 12
1, 0, Control_c, 1, 38, 0
1, 0, Control_c, 2, 101, 0
1, 0, Control_c, 2, 100, 0
1, 0, Control_c, 2, 6, 12
1, 0, Control_c, 2, 38, 0
1, 0, Control_c, 3, 101, 0
1, 0, Control_c, 3, 100, 0
1, 0, Control_c, 3, 6, 12
1, 0, Control_c, 3, 38, 0
1, 0, Control_c, 4, 101, 0
1, 0, Control_c, 4, 100, 0
1, 0, Control_c, 4, 6, 12
1, 0, Control_c, 4, 38, 0
1, 0, Control_c, 5, 101, 0
1, 0, Control_c, 5, 100, 0
1, 0, Control_c, 5, 6, 12
1, 0, Control_c, 5, 38, 0
1, 0, Control_c, 6, 101, 0
1, 0, Control_c, 6, 100, 0
1, 0, Control_c, 6, 6, 12
1, 0, Control_c, 6, 38, 0
1, 0, Control_c, 7, 101, 0
1, 0, Control_c, 7, 100, 0
1, 0, Control_c, 7, 6, 12
1, 0, Control_c, 7, 38, 0
1, 0, Control_c, 8, 101, 0
1, 0, Control_c, 8, 100, 0
1, 0, Control_c, 8, 6, 12
1, 0, Control_c, 8, 38, 0
1, 0, Control_c, 9, 101, 0
1, 0, Control_c, 9, 100, 0
1, 0, Control_c, 9, 6, 12
1, 0, Control_c, 9, 38, 0
1, 0, Control_c, 10, 101, 0
1, 0, Control_c, 10, 100, 0
1, 0, Control_c, 10, 6, 12
1, 0, Control_c, 10, 38, 0
1, 0, Control_c, 11, 101, 0
1, 0, Control_c, 11, 100, 0
1, 0, Control_c, 11, 6, 12
1, 0, Control_c, 11, 38, 0
1, 0, Control_c, 12, 101, 0
1, 0, Control_c, 12, 100, 0
1, 0, Control_c, 12, 6, 12
1, 0, Control_c, 12, 38, 0
1, 0, Control_c, 13, 101, 0
1, 0, Control_c, 13, 100, 0
1, 0, Control_c, 13, 6, 12
1, 0, Control_c, 13, 38, 0
1, 0, Control_c, 14, 101, 0
1, 0, Control_c, 14, 100, 0
1, 0, Control_c, 14, 6, 12
1, 0, Control_c, 14, 38, 0
1, 0, Control_c, 15, 101, 0
1, 0, Control_c, 15, 100, 0
1, 0, Control_c, 15, 6, 12
1, 0, Control_c, 15, 38, 0
1, 0, Time_signature, 2, 2, 24, 8
1, 0, Tempo, 500000
1, 0, End_track
2, 0, Start_track
2, 0, Pitch_bend_c, 0, 8192
2, 0, Control_c, 0, 7, 127
2, 0, Control_c, 0, 10, 63
2, 0, Control_c, 0, 93, 79
2, 0, Control_c, 0, 91, 79
2, 0, Control_c, 0, 95, 15
2, 0, Control_c, 0, 92, 15
2, 0, Control_c, 0, 11, 127
2, 0, Program_c, 0, 25
2, 0, Control_c, 1, 7, 127
2, 0, Control_c, 1, 10, 63
2, 0, Control_c, 1, 93, 79
2, 0, Control_c, 1, 91, 79
2, 0, Control_c, 1, 95, 15
2, 0, Control_c, 1, 92, 15
2, 0, Control_c, 1, 11, 127
2, 0, Program_c, 1, 25
2, 2400, Note_on_c, 0, 62, 95
2, 2400, Note_on_c, 0, 59, 95
2, 2640, Note_off_c, 0, 62, 95
2, 2640, Note_off_c, 0, 59, 95
2, 2640, Note_on_c, 0, 55, 95
2, 2880, Note_off_c, 0, 55, 95
2, 2880, Note_on_c, 1, 64, 95
2, 2880, Note_on_c, 1, 61, 95
2, 3000, Pitch_bend_c, 1, 8320
2, 3000, Pitch_bend_c, 1, 8320
2, 3120, Pitch_bend_c, 1, 8448
2, 3120, Pitch_bend_c, 1, 8448
2, 3240, Pitch_bend_c, 1, 8704
2, 3240, Pitch_bend_c, 1, 8704
2, 3360, Pitch_bend_c, 1, 8832
2, 3360, Pitch_bend_c, 1, 8192
2, 3360, Note_off_c, 1, 64, 95
2, 3360, Pitch_bend_c, 1, 8832
2, 3360, Pitch_bend_c, 1, 8192
2, 3360, Note_off_c, 1, 61, 95
2, 3360, Note_on_c, 0, 65, 95
2, 3360, Note_on_c, 0, 62, 95
2, 3600, Note_off_c, 0, 65, 95
2, 3600, Note_off_c, 0, 62, 95
2, 3600, Note_on_c, 0, 62, 95
2, 3600, Note_on_c, 0, 59, 95
2, 3840, Note_off_c, 0, 62, 95
2, 3840, Note_off_c, 0, 59, 95
2, 3840, Pitch_bend_c, 1, 8192
2, 3840, Note_on_c, 1, 53, 95
2, 3960, Pitch_bend_c, 1, 8320
2, 4080, Pitch_bend_c, 1, 8448
2, 4080, Pitch_bend_c, 1, 8448
2, 4320, Pitch_bend_c, 1, 8448
2, 4320, Pitch_bend_c, 1, 8192
2, 4320, Note_off_c, 1, 53, 95
2, 4320, Note_on_c, 0, 55, 95
2, 4800, Note_off_c, 0, 55, 95
2, 4800, Note_on_c, 1, 57, 95
2, 4800, Note_on_c, 1, 52, 95
2, 4920, Pitch_bend_c, 1, 8448
2, 4920, Pitch_bend_c, 1, 8448
2, 5040, Pitch_bend_c, 1, 8832
2, 5040, Pitch_bend_c, 1, 8192
2, 5040, Note_off_c, 1, 57, 95
2, 5040, Pitch_bend_c, 1, 8832
2, 5040, Pitch_bend_c, 1, 8192
2, 5040, Note_off_c, 1, 52, 95
2, 5040, Pitch_bend_c, 1, 8192
2, 5040, Note_on_c, 1, 58, 95
2, 5040, Pitch_bend_c, 1, 8192
2, 5040, Note_on_c, 1, 53, 95
2, 5100, Pitch_bend_c, 1, 8320
2, 5100, Pitch_bend_c, 1, 8320
2, 5160, Pitch_bend_c, 1, 8448
2, 5160, Pitch_bend_c, 1, 8448
2, 5160, Pitch_bend_c, 1, 8448
2, 5160, Pitch_bend_c, 1, 8448
2, 5280, Pitch_bend_c, 1, 8448
2, 5280, Pitch_bend_c, 1, 8192
2, 5280, Note_off_c, 1, 58, 95
2, 5280, Pitch_bend_c, 1, 8448
2, 5280, Pitch_bend_c, 1, 8192
2, 5280, Note_off_c, 1, 53, 95
2, 5280, Note_on_c, 0, 55, 95
2, 5520, Note_off_c, 0, 55, 95
2, 5520, Note_on_c, 0, 55, 95
2, 6000, Note_off_c, 0, 55, 95
2, 6000, Note_on_c, 0, 55, 95
2, 6240, Note_off_c, 0, 55, 95
2, 6240, Note_on_c, 0, 55, 95
2, 6480, Note_off_c, 0, 55, 95
2, 6480, Note_on_c, 0, 55, 95
2, 6720, Note_off_c, 0, 55, 95
2, 6720, Note_on_c, 1, 57, 95
2, 6840, Pitch_bend_c, 1, 8448
2, 6960, Pitch_bend_c, 1, 8832
2, 6960, Pitch_bend_c, 1, 8192
2, 6960, Note_off_c, 1, 57, 95
2, 6960, Pitch_bend_c, 1, 8192
2, 6960, Note_on_c, 1, 58, 95
2, 7080, Pitch_bend_c, 1, 8320
2, 7200, Pitch_bend_c, 1, 8448
2, 7200, Pitch_bend_c, 1, 8448
2, 7440, Pitch_bend_c, 1, 8448
2, 7440, Pitch_bend_c, 1, 8192
2, 7440, Note_off_c, 1, 58, 95
2, 7440, Note_on_c, 0, 55, 95
2, 7680, Note_off_c, 0, 55, 95
2, 7680, Pitch_bend_c, 1, 8192
2, 7680, Note_on_c, 1, 53, 95
2, 7800, Pitch_bend_c, 1, 8320
2, 7920, Pitch_bend_c, 1, 8448
2, 7920, Pitch_bend_c, 1, 8448
2, 8160, Pitch_bend_c, 1, 8448
2, 8160, Pitch_bend_c, 1, 8192
2, 8160, Note_off_c, 1, 53, 95
2, 8160, Note_on_c, 0, 55, 95
2, 8640, Note_off_c, 0, 55, 95
2, 8640, Pitch_bend_c, 1, 8192
2, 8640, Note_on_c, 1, 58, 95
2, 8760, Pitch_bend_c, 1, 8320
2, 8880, Pitch_bend_c, 1, 8448
2, 8880, Pitch_bend_c, 1, 8448
2, 9120, Pitch_bend_c, 1, 8448
2, 9120, Pitch_bend_c, 1, 8192
2, 9120, Note_off_c, 1, 58, 95
2, 9120, Note_on_c, 0, 55, 95
2, 9360, Note_off_c, 0, 55, 95
2, 9360, Note_on_c, 0, 55, 95
2, 9840, Note_off_c, 0, 55, 95
2, 9840, Note_on_c, 0, 55, 95
2, 10080, Note_off_c, 0, 55, 95
2, 10080, Note_on_c, 0, 59, 95
2, 10080, Note_on_c, 0, 55, 95
2, 10560, Note_off_c, 0, 59, 95
2, 10560, Note_off_c, 0, 55, 95
2, 10560, Pitch_bend_c, 1, 8192
2, 10560, Note_on_c, 1, 62, 95
2, 10560, Pitch_bend_c, 1, 8192
2, 10560, Note_on_c, 1, 58, 95
2, 10680, Pitch_bend_c, 1, 8320
2, 10680, Pitch_bend_c, 1, 8320
2, 10800, Pitch_bend_c, 1, 8448
2, 10800, Pitch_bend_c, 1, 8448
2, 10800, Pitch_bend_c, 1, 8448
2, 10800, Pitch_bend_c, 1, 8448
2, 11040, Pitch_bend_c, 1, 8448
2, 11040, Pitch_bend_c, 1, 8192
2, 11040, Note_off_c, 1, 62, 95
2, 11040, Pitch_bend_c, 1, 8448
2, 11040, Pitch_bend_c, 1, 8192
2, 11040, Note_off_c, 1, 58, 95
2, 11040, Note_on_c, 0, 55, 95
2, 11280, Note_off_c, 0, 55, 95
2, 11280, Note_on_c, 0, 55, 95
2, 11520, Note_off_c, 0, 55, 95
2, 11520, Note_on_c, 1, 53, 95
2, 11640, Pitch_bend_c, 1, 8448
2, 11760, Pitch_bend_c, 1, 8832
2, 11760, Pitch_bend_c, 1, 8192
2, 11760, Note_off_c, 1, 53, 95
2, 11760, Note_on_c, 0, 54, 95
2, 12000, Note_off_c, 0, 54, 95
2, 12000, Note_on_c, 0, 59, 95
2, 12000, Note_on_c, 0, 55, 95
2, 12480, Note_off_c, 0, 59, 95
2, 12480, Note_off_c, 0, 55, 95
2, 12480, Note_on_c, 1, 58, 95
2, 12600, Pitch_bend_c, 1, 8448
2, 12720, Pitch_bend_c, 1, 8832
2, 12720, Pitch_bend_c, 1, 8192
2, 12720, Note_off_c, 1, 58, 95
2, 12720, Note_on_c, 0, 59, 95
2, 12960, Note_off_c, 0, 59, 95
2, 12960, Note_on_c, 0, 55, 95
2, 13200, Note_off_c, 0, 55, 95
2, 13200, Note_on_c, 0, 55, 95
2, 13440, Note_off_c, 0, 55, 95
2, 13440, Note_on_c, 0, 55, 95
2, 13920, Note_off_c, 0, 55, 95
2, 13920, Note_on_c, 0, 55, 95
2, 13920, Note_on_c, 0, 50, 95
2, 14400, Note_off_c, 0, 55, 95
2, 14400, Note_off_c, 0, 50, 95
2, 14400, Note_on_c, 0, 55, 95
2, 14400, Note_on_c, 0, 50, 95
2, 14400, Note_on_c, 0, 43, 95
2, 14400, Note_on_c, 0, 38, 95
2, 14880, Note_off_c, 0, 55, 95
2, 14880, Note_off_c, 0, 50, 95
2, 14880, Note_off_c, 0, 43, 95
2, 14880, Note_off_c, 0, 38, 95
2, 14880, Note_on_c, 0, 55, 95
2, 14880, Note_on_c, 0, 50, 95
2, 14880, Note_on_c, 0, 43, 95
2, 14880, Note_on_c, 0, 38, 95
2, 15360, Note_off_c, 0, 55, 95
2, 15360, Note_off_c, 0, 50, 95
2, 15360, Note_off_c, 0, 43, 95
2, 15360, Note_off_c, 0, 38, 95
2, 15360, Note_on_c, 0, 62, 95
2, 15360, Note_on_c, 0, 57, 95
2, 15360, Note_on_c, 0, 50, 95
2, 15840, Note_off_c, 0, 62, 95
2, 15840, Note_off_c, 0, 57, 95
2, 15840, Note_off_c, 0, 50, 95
2, 15840, Note_on_c, 0, 62, 95
2, 15840, Note_on_c, 0, 57, 95
2, 15840, Note_on_c, 0, 50, 95
2, 16320, Note_off_c, 0, 62, 95
2, 16320, Note_off_c, 0, 57, 95
2, 16320, Note_off_c, 0, 50, 95
2, 16320, Note_on_c, 0, 62, 95
2, 16320, Note_on_c, 0, 57, 95
2, 16320, Note_on_c, 0, 50, 95
2, 16800, Note_off_c, 0, 62, 95
2, 16800, Note_off_c, 0, 57, 95
2, 16800, Note_off_c, 0, 50, 95
2, 16800, Note_on_c, 0, 62, 95
2, 16800, Note_on_c, 0, 57, 95
2, 16800, Note_on_c, 0, 50, 95
2, 17040, Note_off_c, 0, 62, 95
2, 17040, Note_off_c, 0, 57, 95
2, 17040, Note_off_c, 0, 50, 95
2, 17040, Note_on_c, 0, 62, 95
2, 17040, Note_on_c, 0, 57, 95
2, 17040, Note_on_c, 0, 50, 95
2, 17280, Note_off_c, 0, 62, 95
2, 17280, Note_off_c, 0, 57, 95
2, 17280, Note_off_c, 0, 50, 95
2, 17280, Note_on_c, 0, 62, 95
2, 17280, Note_on_c, 0, 57, 95
2, 17280, Note_on_c, 0, 50, 95
2, 17760, Note_off_c, 0, 62, 95
2, 17760, Note_off_c, 0, 57, 95
2, 17760, Note_off_c, 0, 50, 95
2, 17760, Note_on_c, 0, 62, 95
2, 17760, Note_on_c, 0, 57, 95
2, 17760, Note_on_c, 0, 50, 95
2, 18240, Note_off_c, 0, 62, 95
2, 18240, Note_off_c, 0, 57, 95
2, 18240, Note_off_c, 0, 50, 95
2, 18240, Note_on_c, 0, 62, 95
2, 18240, Note_on_c, 0, 57, 95
2, 18240, Note_on_c, 0, 50, 95
2, 18720, Note_off_c, 0, 62, 95
2, 18720, Note_off_c, 0, 57, 95
2, 18720, Note_off_c, 0, 50, 95
2, 18720, Note_on_c, 0, 55, 95
2, 18720, Note_on_c, 0, 50, 95
2, 18720, Note_on_c, 0, 43, 95
2, 18960, Note_off_c, 0, 55, 95
2, 18960, Note_off_c, 0, 50, 95
2, 18960, Note_off_c, 0, 43, 95
2, 18960, Note_on_c, 0, 55, 95
2, 18960, Note_on_c, 0, 50, 95
2, 18960, Note_on_c, 0, 43, 95
2, 19200, Note_off_c, 0, 55, 95
2, 19200, Note_off_c, 0, 50, 95
2, 19200, Note_off_c, 0, 43, 95
2, 19200, Note_on_c, 0, 60, 95
2, 19200, Note_on_c, 0, 55, 95
2, 19200, Note_on_c, 0, 48, 95
2, 19680, Note_off_c, 0, 60, 95
2, 19680, Note_off_c, 0, 55, 95
2, 19680, Note_off_c, 0, 48, 95
2, 19680, Note_on_c, 0, 60, 95
2, 19680, Note_on_c, 0, 55, 95
2, 19680, Note_on_c, 0, 48, 95
2, 20160, Note_off_c, 0, 60, 95
2, 20160, Note_off_c, 0, 55, 95
2, 20160, Note_off_c, 0, 48, 95
2, 20160, Note_on_c, 0, 60, 95
2, 20160, Note_on_c, 0, 55, 95
2, 20160, Note_on_c, 0, 48, 95
2, 20640, Note_off_c, 0, 60, 95
2, 20640, Note_off_c, 0, 55, 95
2, 20640, Note_off_c, 0, 48, 95
2, 20640, Note_on_c, 0, 55, 95
2, 20640, Note_on_c, 0, 50, 95
2, 20640, Note_on_c, 0, 43, 95
2, 21120, Note_off_c, 0, 55, 95
2, 21120, Note_off_c, 0, 50, 95
2, 21120, Note_off_c, 0, 43, 95
2, 21120, Note_on_c, 0, 58, 95
2, 21120, Note_on_c, 0, 53, 95
2, 21120, Note_on_c, 0, 46, 95
2, 21600, Note_off_c, 0, 58, 95
2, 21600, Note_off_c, 0, 53, 95
2, 21600, Note_off_c, 0, 46, 95
2, 21600, Note_on_c, 0, 55, 95
2, 21600, Note_on_c, 0, 50, 95
2, 21600, Note_on_c, 0, 43, 95
2, 22080, Note_off_c, 0, 55, 95
2, 22080, Note_off_c, 0, 50, 95
2, 22080, Note_off_c, 0, 43, 95
2, 22080, Note_on_c, 1, 53, 95
2, 22080, Note_on_c, 1, 46, 95
2, 22200, Pitch_bend_c, 1, 8448
2, 22200, Pitch_bend_c, 1, 8448
2, 22320, Pitch_bend_c, 1, 8832
2, 22320, Pitch_bend_c, 1, 8832
2, 22440, Pitch_bend_c, 1, 9216
2, 22440, Pitch_bend_c, 1, 9216
2, 22560, Pitch_bend_c, 1, 9600
2, 22560, Pitch_bend_c, 1, 8192
2, 22560, Note_off_c, 1, 53, 95
2, 22560, Pitch_bend_c, 1, 9600
2, 22560, Pitch_bend_c, 1, 8192
2, 22560, Note_off_c, 1, 46, 95
2, 22560, Note_on_c, 0, 55, 95
2, 22560, Note_on_c, 0, 48, 95
2, 23040, Note_off_c, 0, 55, 95
2, 23040, Note_off_c, 0, 48, 95
2, 23040, Note_on_c, 0, 43, 95
2, 23520, Note_off_c, 0, 43, 95
2, 23520, Note_on_c, 0, 55, 95
2, 23520, Note_on_c, 0, 50, 95
2, 24000, Note_off_c, 0, 55, 95
2, 24000, Note_off_c, 0, 50, 95
2, 24000, Note_on_c, 1, 57, 95
2, 24000, Note_on_c, 1, 52, 95
2, 24120, Pitch_bend_c, 1, 8448
2, 24120, Pitch_bend_c, 1, 8448
2, 24240, Pitch_bend_c, 1, 8832
2, 24240, Pitch_bend_c, 1, 8192
2, 24240, Note_off_c, 1, 57, 95
2, 24240, Pitch_bend_c, 1, 8832
2, 24240, Pitch_bend_c, 1, 8192
2, 24240, Note_off_c, 1, 52, 95
2, 24240, Pitch_bend_c, 1, 8192
2, 24240, Note_on_c, 1, 58, 95
2, 24240, Pitch_bend_c, 1, 8192
2, 24240, Note_on_c, 1, 53, 95
2, 24300, Pitch_bend_c, 1, 8320
2, 24300, Pitch_bend_c, 1, 8320
2, 24360, Pitch_bend_c, 1, 8448
2, 24360, Pitch_bend_c, 1, 8448
2, 24360, Pitch_bend_c, 1, 8448
2, 24360, Pitch_bend_c, 1, 8448
2, 24480, Pitch_bend_c, 1, 8448
2, 24480, Pitch_bend_c, 1, 8192
2, 24480, Note_off_c, 1, 58, 95
2, 24480, Pitch_bend_c, 1, 8448
2, 24480, Pitch_bend_c, 1, 8192
2, 24480, Note_off_c, 1, 53, 95
2, 24480, Note_on_c, 0, 55, 95
2, 24720, Note_off_c, 0, 55, 95
2, 24720, Note_on_c, 0, 55, 95
2, 24960, Note_off_c, 0, 55, 95
2, 24960, Note_on_c, 1, 61, 95
2, 24960, Note_on_c, 1, 57, 95
2, 24960, Note_on_c, 1, 52, 95
2, 25080, Pitch_bend_c, 1, 8448
2, 25080, Pitch_bend_c, 1, 8448
2, 25080, Pitch_bend_c, 1, 8448
2, 25200, Pitch_bend_c, 1, 8832
2, 25200, Pitch_bend_c, 1, 8192
2, 25200, Note_off_c, 1, 61, 95
2, 25200, Pitch_bend_c, 1, 8832
2, 25200, Pitch_bend_c, 1, 8192
2, 25200, Note_off_c, 1, 57, 95
2, 25200, Pitch_bend_c, 1, 8832
2, 25200, Pitch_bend_c, 1, 8192
2, 25200, Note_off_c, 1, 52, 95
2, 25200, Note_on_c, 0, 62, 95
2, 25200, Note_on_c, 0, 58, 95
2, 25200, Note_on_c, 0, 53, 95
2, 25440, Note_off_c, 0, 62, 95
2, 25440, Note_off_c, 0, 58, 95
2, 25440, Note_off_c, 0, 53, 95
2, 25440, Note_on_c, 0, 59, 95
2, 25440, Note_on_c, 0, 55, 95
2, 25920, Note_off_c, 0, 59, 95
2, 25920, Note_off_c, 0, 55, 95
2, 25920, Note_on_c, 1, 61, 95
2, 25920, Note_on_c, 1, 57, 95
2, 26040, Pitch_bend_c, 1, 8448
2, 26040, Pitch_bend_c, 1, 8448
2, 26160, Pitch_bend_c, 1, 8832
2, 26160, Pitch_bend_c, 1, 8192
2, 26160, Note_off_c, 1, 61, 95
2, 26160, Pitch_bend_c, 1, 8832
2, 26160, Pitch_bend_c, 1, 8192
2, 26160, Note_off_c, 1, 57, 95
2, 26160, Pitch_bend_c, 1, 8192
2, 26160, Note_on_c, 1, 62, 95
2, 26160, Pitch_bend_c, 1, 8192
2, 26160, Note_on_c, 1, 58, 95
2, 26220, Pitch_bend_c, 1, 8320
2, 26220, Pitch_bend_c, 1, 8320
2, 26280, Pitch_bend_c, 1, 8448
2, 26280, Pitch_bend_c, 1, 8448
2, 26280, Pitch_bend_c, 1, 8448
2, 26280, Pitch_bend_c, 1, 8448
2, 26400, Pitch_bend_c, 1, 8448
2, 26400, Pitch_bend_c, 1, 8192
2, 26400, Note_off_c, 1, 62, 95
2, 26400, Pitch_bend_c, 1, 8448
2, 26400, Pitch_bend_c, 1, 8192
2, 26400, Note_off_c, 1, 58, 95
2, 26400, Note_on_c, 0, 55, 95
2, 26640, Note_off_c, 0, 55, 95
2, 26640, Note_on_c, 0, 55, 95
2, 27360, Note_off_c, 0, 55, 95
2, 27360, Note_on_c, 0, 59, 95
2, 27360, Note_on_c, 0, 55, 95
2, 27840, Note_off_c, 0, 59, 95
2, 27840, Note_off_c, 0, 55, 95
2, 27840, Note_on_c, 1, 61, 95
2, 27840, Note_on_c, 1, 57, 95
2, 27960, Pitch_bend_c, 1, 8448
2, 27960, Pitch_bend_c, 1, 8448
2, 28080, Pitch_bend_c, 1, 8832
2, 28080, Pitch_bend_c, 1, 8192
2, 28080, Note_off_c, 1, 61, 95
2, 28080, Pitch_bend_c, 1, 8832
2, 28080, Pitch_bend_c, 1, 8192
2, 28080, Note_off_c, 1, 57, 95
2, 28080, Pitch_bend_c, 1, 8192
2, 28080, Note_on_c, 1, 62, 95
2, 28080, Pitch_bend_c, 1, 8192
2, 28080, Note_on_c, 1, 58, 95
2, 28140, Pitch_bend_c, 1, 8320
2, 28140, Pitch_bend_c, 1, 8320
2, 28200, Pitch_bend_c, 1, 8448
2, 28200, Pitch_bend_c, 1, 8448
2, 28200, Pitch_bend_c, 1, 8448
2, 28200, Pitch_bend_c, 1, 8448
2, 28320, Pitch_bend_c, 1, 8448
2, 28320, Pitch_bend_c, 1, 8192
2, 28320, Note_off_c, 1, 62, 95
2, 28320, Pitch_bend_c, 1, 8448
2, 28320, Pitch_bend_c, 1, 8192
2, 28320, Note_off_c, 1, 58, 95
2, 28320, Note_on_c, 0, 55, 95
2, 28560, Note_off_c, 0, 55, 95
2, 28560, Note_on_c, 0, 55, 95
2, 28800, Note_off_c, 0, 55, 95
2, 28800, Pitch_bend_c, 1, 8192
2, 28800, Note_on_c, 1, 53, 95
2, 28920, Pitch_bend_c, 1, 8320
2, 29040, Pitch_bend_c, 1, 8448
2, 29040, Pitch_bend_c, 1, 8448
2, 29280, Pitch_bend_c, 1, 8448
2, 29280, Pitch_bend_c, 1, 8192
2, 29280, Note_off_c, 1, 53, 95
2, 29280, Note_on_c, 0, 59, 95
2, 29280, Note_on_c, 0, 55, 95
2, 29760, Note_off_c, 0, 59, 95
2, 29760, Note_off_c, 0, 55, 95
2, 29760, Note_on_c, 1, 61, 95
2, 29760, Note_on_c, 1, 57, 95
2, 29880, Pitch_bend_c, 1, 8448
2, 29880, Pitch_bend_c, 1, 8448
2, 30000, Pitch_bend_c, 1, 8832
2, 30000, Pitch_bend_c, 1, 8192
2, 30000, Note_off_c, 1, 61, 95
2, 30000, Pitch_bend_c, 1, 8832
2, 30000, Pitch_bend_c, 1, 8192
2, 30000, Note_off_c, 1, 57, 95
2, 30000, Pitch_bend_c, 1, 8192
2, 30000, Note_on_c, 1, 62, 95
2, 30000, Pitch_bend_c, 1, 8192
2, 30000, Note_on_c, 1, 58, 95
2, 30060, Pitch_bend_c, 1, 8320
2, 30060, Pitch_bend_c, 1, 8320
2, 30120, Pitch_bend_c, 1, 8448
2, 30120, Pitch_bend_c, 1, 8448
2, 30120, Pitch_bend_c, 1, 8448
2, 30120, Pitch_bend_c, 1, 8448
2, 30240, Pitch_bend_c, 1, 8448
2, 30240, Pitch_bend_c, 1, 8192
2, 30240, Note_off_c, 1, 62, 95
2, 30240, Pitch_bend_c, 1, 8448
2, 30240, Pitch_bend_c, 1, 8192
2, 30240, Note_off_c, 1, 58, 95
2, 30240, Note_on_c, 0, 55, 95
2, 30480, Note_off_c, 0, 55, 95
2, 30480, Note_on_c, 0, 55, 95
2, 30960, Note_off_c, 0, 55, 95
2, 30960, Note_on_c, 0, 59, 95
2, 31200, Note_off_c, 0, 59, 95
2, 31200, Note_on_c, 0, 59, 95
2, 31200, Note_on_c, 0, 55, 95
2, 31680, Note_off_c, 0, 59, 95
2, 31680, Note_off_c, 0, 55, 95
2, 31680, Note_on_c, 1, 61, 95
2, 31680, Note_on_c, 1, 57, 95
2, 31800, Pitch_bend_c, 1, 8320
2, 31800, Pitch_bend_c, 1, 8320
2, 31920, Pitch_bend_c, 1, 8448
2, 31920, Pitch_bend_c, 1, 8448
2, 32040, Pitch_bend_c, 1, 8704
2, 32040, Pitch_bend_c, 1, 8704
2, 32160, Pitch_bend_c, 1, 8832
2, 32160, Pitch_bend_c, 1, 8192
2, 32160, Note_off_c, 1, 61, 95
2, 32160, Pitch_bend_c, 1, 8832
2, 32160, Pitch_bend_c, 1, 8192
2, 32160, Note_off_c, 1, 57, 95
2, 32160, Pitch_bend_c, 1, 8192
2, 32160, Note_on_c, 1, 62, 95
2, 32160, Pitch_bend_c, 1, 8192
2, 32160, Note_on_c, 1, 58, 95
2, 32220, Pitch_bend_c, 1, 8320
2, 32220, Pitch_bend_c, 1, 8320
2, 32280, Pitch_bend_c, 1, 8448
2, 32280, Pitch_bend_c, 1, 8448
2, 32280, Pitch_bend_c, 1, 8448
2, 32280, Pitch_bend_c, 1, 8448
2, 32400, Pitch_bend_c, 1, 8448
2, 32400, Pitch_bend_c, 1, 8192
2, 32400, Note_off_c, 1, 62, 95
2, 32400, Pitch_bend_c, 1, 8448
2, 32400, Pitch_bend_c, 1, 8192
2, 32400, Note_off_c, 1, 58, 95
2, 32400, Note_on_c, 0, 55, 95
2, 32640, Note_off_c, 0, 55, 95
2, 32640, Pitch_bend_c, 1, 8192
2, 32640, Note_on_c, 1, 53, 95
2, 32760, Pitch_bend_c, 1, 8320
2, 32880, Pitch_bend_c, 1, 8448
2, 32880, Pitch_bend_c, 1, 8448
2, 33120, Pitch_bend_c, 1, 8448
2, 33120, Pitch_bend_c, 1, 8192
2, 33120, Note_off_c, 1, 53, 95
2, 33120, Note_on_c, 0, 59, 95
2, 33120, Note_on_c, 0, 55, 95
2, 33600, Note_off_c, 0, 59, 95
2, 33600, Note_off_c, 0, 55, 95
2, 33600, Note_on_c, 1, 61, 95
2, 33600, Note_on_c, 1, 57, 95
2, 33720, Pitch_bend_c, 1, 8448
2, 33720, Pitch_bend_c, 1, 8448
2, 33840, Pitch_bend_c, 1, 8832
2, 33840, Pitch_bend_c, 1, 8192
2, 33840, Note_off_c, 1, 61, 95
2, 33840, Pitch_bend_c, 1, 8832
2, 33840, Pitch_bend_c, 1, 8192
2, 33840, Note_off_c, 1, 57, 95
2, 33840, Pitch_bend_c, 1, 8192
2, 33840, Note_on_c, 1, 62, 95
2, 33840, Pitch_bend_c, 1, 8192
2, 33840, Note_on_c, 1, 58, 95
2, 33900, Pitch_bend_c, 1, 8320
2, 33900, Pitch_bend_c, 1, 8320
2, 33960, Pitch_bend_c, 1, 8448
2, 33960, Pitch_bend_c, 1, 8448
2, 33960, Pitch_bend_c, 1, 8448
2, 33960, Pitch_bend_c, 1, 8448
2, 34080, Pitch_bend_c, 1, 8448
2, 34080, Pitch_bend_c, 1, 8192
2, 34080, Note_off_c, 1, 62, 95
2, 34080, Pitch_bend_c, 1, 8448
2, 34080, Pitch_bend_c, 1, 8192
2, 34080, Note_off_c, 1, 58, 95
2, 34080, Note_on_c, 0, 55, 95
2, 34320, Note_off_c, 0, 55, 95
2, 34320, Note_on_c, 0, 55, 95
2, 34800, Note_off_c, 0, 55, 95
2, 34800, Note_on_c, 0, 55, 95
2, 35040, Note_off_c, 0, 55, 95
2, 35040, Note_on_c, 0, 50, 95
2, 35040, Note_on_c, 0, 43, 95
2, 35520, Note_off_c, 0, 50, 95
2, 35520, Note_off_c, 0, 43, 95
2, 35520, Note_on_c, 0, 62, 95
2, 35520, Note_on_c, 0, 59, 95
2, 35520, Note_on_c, 0, 55, 95
2, 35520, Note_on_c, 0, 50, 95
2, 36000, Note_off_c, 0, 62, 95
2, 36000, Note_off_c, 0, 59, 95
2, 36000, Note_off_c, 0, 55, 95
2, 36000, Note_off_c, 0, 50, 95
2, 36000, Note_on_c, 0, 62, 95
2, 36000, Note_on_c, 0, 59, 95
2, 36000, Note_on_c, 0, 55, 95
2, 36000, Note_on_c, 0, 50, 95
2, 36480, Note_off_c, 0, 62, 95
2, 36480, Note_off_c, 0, 59, 95
2, 36480, Note_off_c, 0, 55, 95
2, 36480, Note_off_c, 0, 50, 95
2, 36480, Note_on_c, 0, 67, 95
2, 36480, Note_on_c, 0, 64, 95
2, 36480, Note_on_c, 0, 60, 95
2, 36480, Note_on_c, 0, 55, 95
2, 36480, Note_on_c, 0, 48, 95
2, 36960, Note_off_c, 0, 67, 95
2, 36960, Note_off_c, 0, 64, 95
2, 36960, Note_off_c, 0, 60, 95
2, 36960, Note_off_c, 0, 55, 95
2, 36960, Note_off_c, 0, 48, 95
2, 36960, Note_on_c, 0, 67, 95
2, 36960, Note_on_c, 0, 64, 95
2, 36960, Note_on_c, 0, 60, 95
2, 36960, Note_on_c, 0, 55, 95
2, 36960, Note_on_c, 0, 48, 95
2, 37920, Note_off_c, 0, 67, 95
2, 37920, Note_off_c, 0, 64, 95
2, 37920, Note_off_c, 0, 60, 95
2, 37920, Note_off_c, 0, 55, 95
2, 37920, Note_off_c, 0, 48, 95
2, 37920, Note_on_c, 0, 67, 95
2, 37920, Note_on_c, 0, 64, 95
2, 37920, Note_on_c, 0, 60, 95
2, 37920, Note_on_c, 0, 55, 95
2, 37920, Note_on_c, 0, 48, 95
2, 38880, Note_off_c, 0, 67, 95
2, 38880, Note_off_c, 0, 64, 95
2, 38880, Note_off_c, 0, 60, 95
2, 38880, Note_off_c, 0, 55, 95
2, 38880, Note_off_c, 0, 48, 95
2, 38880, Note_on_c, 0, 67, 95
2, 38880, Note_on_c, 0, 64, 95
2, 38880, Note_on_c, 0, 60, 95
2, 38880, Note_on_c, 0, 55, 95
2, 38880, Note_on_c, 0, 48, 95
2, 39840, Note_off_c, 0, 67, 95
2, 39840, Note_off_c, 0, 64, 95
2, 39840, Note_off_c, 0, 60, 95
2, 39840, Note_off_c, 0, 55, 95
2, 39840, Note_off_c, 0, 48, 95
2, 39840, Note_on_c, 1, 66, 95
2, 39840, Note_on_c, 1, 63, 95
2, 39840, Note_on_c, 1, 59, 95
2, 39840, Note_on_c, 1, 54, 95
2, 39840, Note_on_c, 1, 47, 95
2, 39960, Pitch_bend_c, 1, 8448
2, 39960, Pitch_bend_c, 1, 8448
2, 39960, Pitch_bend_c, 1, 8448
2, 39960, Pitch_bend_c, 1, 8448
2, 39960, Pitch_bend_c, 1, 8448
2, 40080, Pitch_bend_c, 1, 8832
2, 40080, Pitch_bend_c, 1, 8192
2, 40080, Note_off_c, 1, 66, 95
2, 40080, Pitch_bend_c, 1, 8832
2, 40080, Pitch_bend_c, 1, 8192
2, 40080, Note_off_c, 1, 63, 95
2, 40080, Pitch_bend_c, 1, 8832
2, 40080, Pitch_bend_c, 1, 8192
2, 40080, Note_off_c, 1, 59, 95
2, 40080, Pitch_bend_c, 1, 8832
2, 40080, Pitch_bend_c, 1, 8192
2, 40080, Note_off_c, 1, 54, 95
2, 40080, Pitch_bend_c, 1, 8832
2, 40080, Pitch_bend_c, 1, 8192
2, 40080, Note_off_c, 1, 47, 95
2, 40080, Note_on_c, 0, 67, 95
2, 40080, Note_on_c, 0, 64, 95
2, 40080, Note_on_c, 0, 60, 95
2, 40080, Note_on_c, 0, 55, 95
2, 40080, Note_on_c, 0, 48, 95
2, 40320, Note_off_c, 0, 67, 95
2, 40320, Note_off_c, 0, 64, 95
2, 40320, Note_off_c, 0, 60, 95
2, 40320, Note_off_c, 0, 55, 95
2, 40320, Note_off_c, 0, 48, 95
2, 40320, Note_on_c, 0, 67, 95
2, 40320, Note_on_c, 0, 64, 95
2, 40320, Note_on_c, 0, 60, 95
2, 40320, Note_on_c, 0, 55, 95
2, 40320, Note_on_c, 0, 48, 95
2, 40800, Note_off_c, 0, 67, 95
2, 40800, Note_off_c, 0, 64, 95
2, 40800, Note_off_c, 0, 60, 95
2, 40800, Note_off_c, 0, 55, 95
2, 40800, Note_off_c, 0, 48, 95
2, 40800, Note_on_c, 0, 67, 95
2, 40800, Note_on_c, 0, 64, 95
2, 40800, Note_on_c, 0, 60, 95
2, 40800, Note_on_c, 0, 55, 95
2, 40800, Note_on_c, 0, 48, 95
2, 41760, Note_off_c, 0, 67, 95
2, 41760, Note_off_c, 0, 64, 95
2, 41760, Note_off_c, 0, 60, 95
2, 41760, Note_off_c, 0, 55, 95
2, 41760, Note_off_c, 0, 48, 95
2, 41760, Note_on_c, 0, 67, 95
2, 41760, Note_on_c, 0, 64, 95
2, 41760, Note_on_c, 0, 60, 95
2, 41760, Note_on_c, 0, 55, 95
2, 41760, Note_on_c, 0, 48, 95
2, 42720, Note_off_c, 0, 67, 95
2, 42720, Note_off_c, 0, 64, 95
2, 42720, Note_off_c, 0, 60, 95
2, 42720, Note_off_c, 0, 55, 95
2, 42720, Note_off_c, 0, 48, 95
2, 42720, Note_on_c, 0, 67, 95
2, 42720, Note_on_c, 0, 64, 95
2, 42720, Note_on_c, 0, 60, 95
2, 42720, Note_on_c, 0, 55, 95
2, 42720, Note_on_c, 0, 48, 95
2, 43200, Note_off_c, 0, 67, 95
2, 43200, Note_off_c, 0, 64, 95
2, 43200, Note_off_c, 0, 60, 95
2, 43200, Note_off_c, 0, 55, 95
2, 43200, Note_off_c, 0, 48, 95
2, 43200, Note_on_c, 0, 64, 95
2, 43200, Note_on_c, 0, 60, 95
2, 43200, Note_on_c, 0, 55, 95
2, 43680, Note_off_c, 0, 64, 95
2, 43680, Note_off_c, 0, 60, 95
2, 43680, Note_off_c, 0, 55, 95
2, 43680, Note_on_c, 1, 64, 95
2, 43800, Pitch_bend_c, 1, 7552
2, 43920, Pitch_bend_c, 1, 6784
2, 43920, Pitch_bend_c, 1, 8192
2, 43920, Note_off_c, 1, 64, 95
2, 43920, Note_on_c, 0, 62, 95
2, 44160, Note_off_c, 0, 62, 95
2, 44640, Note_on_c, 0, 62, 95
2, 44640, Note_on_c, 0, 59, 95
2, 45120, Note_off_c, 0, 62, 95
2, 45120, Note_off_c, 0, 59, 95
2, 45120, Note_on_c, 0, 58, 95
2, 45840, Note_off_c, 0, 58, 95
2, 45840, Note_on_c, 0, 55, 95
2, 46080, Note_off_c, 0, 55, 95
2, 46080, Note_on_c, 1, 53, 95
2, 46200, Pitch_bend_c, 1, 8192
2, 46320, Pitch_bend_c, 1, 8192
2, 46320, Pitch_bend_c, 1, 8192
2, 46320, Note_off_c, 1, 53, 95
2, 46320, Note_on_c, 0, 53, 95
2, 46560, Note_off_c, 0, 53, 95
2, 46560, Note_on_c, 1, 59, 95
2, 46560, Note_on_c, 1, 55, 95
2, 46680, Pitch_bend_c, 1, 8704
2, 46680, Pitch_bend_c, 1, 8704
2, 46800, Pitch_bend_c, 1, 9216
2, 46800, Pitch_bend_c, 1, 9216
2, 46920, Pitch_bend_c, 1, 9728
2, 46920, Pitch_bend_c, 1, 9728
2, 47040, Pitch_bend_c, 1, 10240
2, 47040, Pitch_bend_c, 1, 8192
2, 47040, Note_off_c, 1, 59, 95
2, 47040, Pitch_bend_c, 1, 10240
2, 47040, Pitch_bend_c, 1, 8192
2, 47040, Note_off_c, 1, 55, 95
2, 47040, Note_on_c, 1, 62, 95
2, 47040, Note_on_c, 1, 58, 95
2, 47160, Pitch_bend_c, 1, 8192
2, 47160, Pitch_bend_c, 1, 8192
2, 47280, Pitch_bend_c, 1, 8192
2, 47280, Pitch_bend_c, 1, 8192
2, 47280, Note_off_c, 1, 62, 95
2, 47280, Pitch_bend_c, 1, 8192
2, 47280, Pitch_bend_c, 1, 8192
2, 47280, Note_off_c, 1, 58, 95
2, 47280, Pitch_bend_c, 1, 8192
2, 47280, Note_on_c, 1, 62, 95
2, 47280, Pitch_bend_c, 1, 8192
2, 47280, Note_on_c, 1, 58, 95
2, 47340, Pitch_bend_c, 1, 8320
2, 47340, Pitch_bend_c, 1, 8320
2, 47400, Pitch_bend_c, 1, 8448
2, 47400, Pitch_bend_c, 1, 8448
2, 47400, Pitch_bend_c, 1, 8448
2, 47400, Pitch_bend_c, 1, 8448
2, 47520, Pitch_bend_c, 1, 8448
2, 47520, Pitch_bend_c, 1, 8192
2, 47520, Note_off_c, 1, 62, 95
2, 47520, Pitch_bend_c, 1, 8448
2, 47520, Pitch_bend_c, 1, 8192
2, 47520, Note_off_c, 1, 58, 95
2, 47520, Note_on_c, 0, 55, 95
2, 47760, Note_off_c, 0, 55, 95
2, 47760, Note_on_c, 0, 55, 95
2, 48240, Note_off_c, 0, 55, 95
2, 48240, Note_on_c, 0, 59, 95
2, 48240, Note_on_c, 0, 55, 95
2, 48480, Note_off_c, 0, 59, 95
2, 48480, Note_off_c, 0, 55, 95
2, 48480, Note_on_c, 0, 59, 95
2, 48480, Note_on_c, 0, 55, 95
2, 48960, Note_off_c, 0, 59, 95
2, 48960, Note_off_c, 0, 55, 95
2, 48960, Note_on_c, 1, 61, 95
2, 48960, Note_on_c, 1, 57, 95
2, 49080, Pitch_bend_c, 1, 8320
2, 49080, Pitch_bend_c, 1, 8320
2, 49200, Pitch_bend_c, 1, 8448
2, 49200, Pitch_bend_c, 1, 8448
2, 49320, Pitch_bend_c, 1, 8704
2, 49320, Pitch_bend_c, 1, 8704
2, 49440, Pitch_bend_c, 1, 8832
2, 49440, Pitch_bend_c, 1, 8192
2, 49440, Note_off_c, 1, 61, 95
2, 49440, Pitch_bend_c, 1, 8832
2, 49440, Pitch_bend_c, 1, 8192
2, 49440, Note_off_c, 1, 57, 95
2, 49440, Note_on_c, 0, 62, 95
2, 49440, Note_on_c, 0, 58, 95
2, 49680, Note_off_c, 0, 62, 95
2, 49680, Note_off_c, 0, 58, 95
2, 49680, Note_on_c, 0, 55, 95
2, 49920, Note_off_c, 0, 55, 95
2, 49920, Note_on_c, 1, 57, 95
2, 49920, Note_on_c, 1, 52, 95
2, 50040, Pitch_bend_c, 1, 8448
2, 50040, Pitch_bend_c, 1, 8448
2, 50160, Pitch_bend_c, 1, 8832
2, 50160, Pitch_bend_c, 1, 8192
2, 50160, Note_off_c, 1, 57, 95
2, 50160, Pitch_bend_c, 1, 8832
2, 50160, Pitch_bend_c, 1, 8192
2, 50160, Note_off_c, 1, 52, 95
2, 50160, Pitch_bend_c, 1, 8192
2, 50160, Note_on_c, 1, 58, 95
2, 50160, Pitch_bend_c, 1, 8192
2, 50160, Note_on_c, 1, 53, 95
2, 50220, Pitch_bend_c, 1, 8320
2, 50220, Pitch_bend_c, 1, 8320
2, 50280, Pitch_bend_c, 1, 8448
2, 50280, Pitch_bend_c, 1, 8448
2, 50280, Pitch_bend_c, 1, 8448
2, 50280, Pitch_bend_c, 1, 8448
2, 50400, Pitch_bend_c, 1, 8448
2, 50400, Pitch_bend_c, 1, 8192
2, 50400, Note_off_c, 1, 58, 95
2, 50400, Pitch_bend_c, 1, 8448
2, 50400, Pitch_bend_c, 1, 8192
2, 50400, Note_off_c, 1, 53, 95
2, 50400, Note_on_c, 0, 59, 95
2, 50400, Note_on_c, 0, 55, 95
2, 50880, Note_off_c, 0, 59, 95
2, 50880, Note_off_c, 0, 55, 95
2, 50880, Note_on_c, 1, 61, 95
2, 50880, Note_on_c, 1, 57, 95
2, 51000, Pitch_bend_c, 1, 8448
2, 51000, Pitch_bend_c, 1, 8448
2, 51120, Pitch_bend_c, 1, 8832
2, 51120, Pitch_bend_c, 1, 8192
2, 51120, Note_off_c, 1, 61, 95
2, 51120, Pitch_bend_c, 1, 8832
2, 51120, Pitch_bend_c, 1, 8192
2, 51120, Note_off_c, 1, 57, 95
2, 51120, Pitch_bend_c, 1, 8192
2, 51120, Note_on_c, 1, 62, 95
2, 51120, Pitch_bend_c, 1, 8192
2, 51120, Note_on_c, 1, 58, 95
2, 51180, Pitch_bend_c, 1, 8320
2, 51180, Pitch_bend_c, 1, 8320
2, 51240, Pitch_bend_c, 1, 8448
2, 51240, Pitch_bend_c, 1, 8448
2, 51240, Pitch_bend_c, 1, 8448
2, 51240, Pitch_bend_c, 1, 8448
2, 51360, Pitch_bend_c, 1, 8448
2, 51360, Pitch_bend_c, 1, 8192
2, 51360, Note_off_c, 1, 62, 95
2, 51360, Pitch_bend_c, 1, 8448
2, 51360, Pitch_bend_c, 1, 8192
2, 51360, Note_off_c, 1, 58, 95
2, 51360, Note_on_c, 0, 55, 95
2, 51600, Note_off_c, 0, 55, 95
2, 51600, Note_on_c, 0, 55, 95
2, 51600, Note_on_c, 0, 50, 95
2, 52080, Note_off_c, 0, 55, 95
2, 52080, Note_off_c, 0, 50, 95
2, 52080, Note_on_c, 0, 55, 95
2, 52320, Note_off_c, 0, 55, 95
2, 52320, Note_on_c, 0, 50, 95
2, 52800, Note_off_c, 0, 50, 95
2, 52800, Note_on_c, 0, 62, 95
2, 52800, Note_on_c, 0, 59, 95
2, 52800, Note_on_c, 0, 55, 95
2, 52800, Note_on_c, 0, 50, 95
2, 53280, Note_off_c, 0, 62, 95
2, 53280, Note_off_c, 0, 59, 95
2, 53280, Note_off_c, 0, 55, 95
2, 53280, Note_off_c, 0, 50, 95
2, 53280, Note_on_c, 0, 62, 95
2, 53280, Note_on_c, 0, 59, 95
2, 53280, Note_on_c, 0, 55, 95
2, 53280, Note_on_c, 0, 50, 95
2, 53760, Note_off_c, 0, 62, 95
2, 53760, Note_off_c, 0, 59, 95
2, 53760, Note_off_c, 0, 55, 95
2, 53760, Note_off_c, 0, 50, 95
2, 53760, Note_on_c, 0, 67, 95
2, 53760, Note_on_c, 0, 64, 95
2, 53760, Note_on_c, 0, 60, 95
2, 53760, Note_on_c, 0, 55, 95
2, 53760, Note_on_c, 0, 48, 95
2, 54240, Note_off_c, 0, 67, 95
2, 54240, Note_off_c, 0, 64, 95
2, 54240, Note_off_c, 0, 60, 95
2, 54240, Note_off_c, 0, 55, 95
2, 54240, Note_off_c, 0, 48, 95
2, 54240, Note_on_c, 0, 67, 95
2, 54240, Note_on_c, 0, 64, 95
2, 54240, Note_on_c, 0, 60, 95
2, 54240, Note_on_c, 0, 55, 95
2, 54240, Note_on_c, 0, 48, 95
2, 55200, Note_off_c, 0, 67, 95
2, 55200, Note_off_c, 0, 64, 95
2, 55200, Note_off_c, 0, 60, 95
2, 55200, Note_off_c, 0, 55, 95
2, 55200, Note_off_c, 0, 48, 95
2, 55200, Note_on_c, 1, 67, 95
2, 55200, Note_on_c, 1, 64, 95
2, 55200, Note_on_c, 1, 60, 95
2, 55200, Note_on_c, 1, 55, 95
2, 55200, Note_on_c, 1, 48, 95
2, 55360, Pitch_bend_c, 1, 8192
2, 55360, Pitch_bend_c, 1, 8192
2, 55360, Pitch_bend_c, 1, 8192
2, 55360, Pitch_bend_c, 1, 8192
2, 55360, Pitch_bend_c, 1, 8192
2, 55520, Pitch_bend_c, 1, 8320
2, 55520, Pitch_bend_c, 1, 8320
2, 55520, Pitch_bend_c, 1, 8320
2, 55520, Pitch_bend_c, 1, 8320
2, 55520, Pitch_bend_c, 1, 8320
2, 55680, Pitch_bend_c, 1, 8192
2, 55680, Pitch_bend_c, 1, 8192
2, 55680, Pitch_bend_c, 1, 8192
2, 55680, Pitch_bend_c, 1, 8192
2, 55680, Pitch_bend_c, 1, 8192
2, 55840, Pitch_bend_c, 1, 8320
2, 55840, Pitch_bend_c, 1, 8320
2, 55840, Pitch_bend_c, 1, 8320
2, 55840, Pitch_bend_c, 1, 8320
2, 55840, Pitch_bend_c, 1, 8320
2, 56000, Pitch_bend_c, 1, 8192
2, 56000, Pitch_bend_c, 1, 8192
2, 56000, Pitch_bend_c, 1, 8192
2, 56000, Pitch_bend_c, 1, 8192
2, 56000, Pitch_bend_c, 1, 8192
2, 56160, Pitch_bend_c, 1, 8320
2, 56160, Pitch_bend_c, 1, 8192
2, 56160, Note_off_c, 1, 67, 95
2, 56160, Pitch_bend_c, 1, 8320
2, 56160, Pitch_bend_c, 1, 8192
2, 56160, Note_off_c, 1, 64, 95
2, 56160, Pitch_bend_c, 1, 8320
2, 56160, Pitch_bend_c, 1, 8192
2, 56160, Note_off_c, 1, 60, 95
2, 56160, Pitch_bend_c, 1, 8320
2, 56160, Pitch_bend_c, 1, 8192
2, 56160, Note_off_c, 1, 55, 95
2, 56160, Pitch_bend_c, 1, 8320
2, 56160, Pitch_bend_c, 1, 8192
2, 56160, Note_off_c, 1, 48, 95
2, 56160, Note_on_c, 0, 67, 95
2, 56160, Note_on_c, 0, 64, 95
2, 56160, Note_on_c, 0, 60, 95
2, 56160, Note_on_c, 0, 55, 95
2, 56160, Note_on_c, 0, 48, 95
2, 56640, Note_off_c, 0, 67, 95
2, 56640, Note_off_c, 0, 64, 95
2, 56640, Note_off_c, 0, 60, 95
2, 56640, Note_off_c, 0, 55, 95
2, 56640, Note_off_c, 0, 48, 95
2, 56640, Note_on_c, 0, 67, 95
2, 56640, Note_on_c, 0, 64, 95
2, 56640, Note_on_c, 0, 60, 95
2, 56640, Note_on_c, 0, 55, 95
2, 56640, Note_on_c, 0, 48, 95
2, 57120, Note_off_c, 0, 67, 95
2, 57120, Note_off_c, 0, 64, 95
2, 57120, Note_off_c, 0, 60, 95
2, 57120, Note_off_c, 0, 55, 95
2, 57120, Note_off_c, 0, 48, 95
2, 57120, Note_on_c, 0, 67, 95
2, 57120, Note_on_c, 0, 64, 95
2, 57120, Note_on_c, 0, 60, 95
2, 57120, Note_on_c, 0, 55, 95
2, 57120, Note_on_c, 0, 48, 95
2, 57360, Note_off_c, 0, 67, 95
2, 57360, Note_off_c, 0, 64, 95
2, 57360, Note_off_c, 0, 60, 95
2, 57360, Note_off_c, 0, 55, 95
2, 57360, Note_off_c, 0, 48, 95
2, 57360, Note_on_c, 0, 67, 95
2, 57360, Note_on_c, 0, 64, 95
2, 57360, Note_on_c, 0, 60, 95
2, 57360, Note_on_c, 0, 55, 95
2, 57360, Note_on_c, 0, 48, 95
2, 57600, Note_off_c, 0, 67, 95
2, 57600, Note_off_c, 0, 64, 95
2, 57600, Note_off_c, 0, 60, 95
2, 57600, Note_off_c, 0, 55, 95
2, 57600, Note_off_c, 0, 48, 95
2, 57600, Note_on_c, 0, 67, 95
2, 57600, Note_on_c, 0, 64, 95
2, 57600, Note_on_c, 0, 60, 95
2, 57600, Note_on_c, 0, 55, 95
2, 57600, Note_on_c, 0, 48, 95
2, 58080, Note_off_c, 0, 67, 95
2, 58080, Note_off_c, 0, 64, 95
2, 58080, Note_off_c, 0, 60, 95
2, 58080, Note_off_c, 0, 55, 95
2, 58080, Note_off_c, 0, 48, 95
2, 58080, Note_on_c, 0, 67, 95
2, 58080, Note_on_c, 0, 64, 95
2, 58080, Note_on_c, 0, 60, 95
2, 58080, Note_on_c, 0, 55, 95
2, 58080, Note_on_c, 0, 48, 95
2, 59040, Note_off_c, 0, 67, 95
2, 59040, Note_off_c, 0, 64, 95
2, 59040, Note_off_c, 0, 60, 95
2, 59040, Note_off_c, 0, 55, 95
2, 59040, Note_off_c, 0, 48, 95
2, 59040, Note_on_c, 0, 67, 95
2, 59040, Note_on_c, 0, 64, 95
2, 59040, Note_on_c, 0, 60, 95
2, 59040, Note_on_c, 0, 55, 95
2, 59040, Note_on_c, 0, 48, 95
2, 60000, Note_off_c, 0, 67, 95
2, 60000, Note_off_c, 0, 64, 95
2, 60000, Note_off_c, 0, 60, 95
2, 60000, Note_off_c, 0, 55, 95
2, 60000, Note_off_c, 0, 48, 95
2, 60000, Note_on_c, 0, 67, 95
2, 60000, Note_on_c, 0, 64, 95
2, 60000, Note_on_c, 0, 60, 95
2, 60000, Note_on_c, 0, 55, 95
2, 60000, Note_on_c, 0, 48, 95
2, 60480, Note_off_c, 0, 67, 95
2, 60480, Note_off_c, 0, 64, 95
2, 60480, Note_off_c, 0, 60, 95
2, 60480, Note_off_c, 0, 55, 95
2, 60480, Note_off_c, 0, 48, 95
2, 60480, Pitch_bend_c, 1, 11648
2, 60480, Note_on_c, 1, 64, 95
2, 60480, Pitch_bend_c, 1, 11648
2, 60480, Note_on_c, 1, 60, 95
2, 60480, Pitch_bend_c, 1, 11648
2, 60480, Note_on_c, 1, 55, 95
2, 60480, Pitch_bend_c, 1, 11648
2, 60480, Note_on_c, 1, 48, 95
2, 60515, Pitch_bend_c, 1, 11520
2, 60515, Pitch_bend_c, 1, 11520
2, 60515, Pitch_bend_c, 1, 11520
2, 60515, Pitch_bend_c, 1, 11520
2, 60550, Pitch_bend_c, 1, 11392
2, 60550, Pitch_bend_c, 1, 11392
2, 60550, Pitch_bend_c, 1, 11392
2, 60550, Pitch_bend_c, 1, 11392
2, 60585, Pitch_bend_c, 1, 11264
2, 60585, Pitch_bend_c, 1, 11264
2, 60585, Pitch_bend_c, 1, 11264
2, 60585, Pitch_bend_c, 1, 11264
2, 60620, Pitch_bend_c, 1, 11136
2, 60620, Pitch_bend_c, 1, 11136
2, 60620, Pitch_bend_c, 1, 11136
2, 60620, Pitch_bend_c, 1, 11136
2, 60655, Pitch_bend_c, 1, 11008
2, 60655, Pitch_bend_c, 1, 11008
2, 60655, Pitch_bend_c, 1, 11008
2, 60655, Pitch_bend_c, 1, 11008
2, 60690, Pitch_bend_c, 1, 10880
2, 60690, Pitch_bend_c, 1, 10880
2, 60690, Pitch_bend_c, 1, 10880
2, 60690, Pitch_bend_c, 1, 10880
2, 60725, Pitch_bend_c, 1, 10752
2, 60725, Pitch_bend_c, 1, 10752
2, 60725, Pitch_bend_c, 1, 10752
2, 60725, Pitch_bend_c, 1, 10752
2, 60760, Pitch_bend_c, 1, 10624
2, 60760, Pitch_bend_c, 1, 10624
2, 60760, Pitch_bend_c, 1, 10624
2, 60760, Pitch_bend_c, 1, 10624
2, 60795, Pitch_bend_c, 1, 10496
2, 60795, Pitch_bend_c, 1, 10496
2, 60795, Pitch_bend_c, 1, 10496
2, 60795, Pitch_bend_c, 1, 10496
2, 60830, Pitch_bend_c, 1, 10368
2, 60830, Pitch_bend_c, 1, 10368
2, 60830, Pitch_bend_c, 1, 10368
2, 60830, Pitch_bend_c, 1, 10368
2, 60865, Pitch_bend_c, 1, 10240
2, 60865, Pitch_bend_c, 1, 10240
2, 60865, Pitch_bend_c, 1, 10240
2, 60865, Pitch_bend_c, 1, 10240
2, 60900, Pitch_bend_c, 1, 10112
2, 60900, Pitch_bend_c, 1, 10112
2, 60900, Pitch_bend_c, 1, 10112
2, 60900, Pitch_bend_c, 1, 10112
2, 60935, Pitch_bend_c, 1, 9984
2, 60935, Pitch_bend_c, 1, 9984
2, 60935, Pitch_bend_c, 1, 9984
2, 60935, Pitch_bend_c, 1, 9984
2, 60970, Pitch_bend_c, 1, 9856
2, 60970, Pitch_bend_c, 1, 9856
2, 60970, Pitch_bend_c, 1, 9856
2, 60970, Pitch_bend_c, 1, 9856
2, 61005, Pitch_bend_c, 1, 9728
2, 61005, Pitch_bend_c, 1, 9728
2, 61005, Pitch_bend_c, 1, 9728
2, 61005, Pitch_bend_c, 1, 9728
2, 61040, Pitch_bend_c, 1, 9600
2, 61040, Pitch_bend_c, 1, 9600
2, 61040, Pitch_bend_c, 1, 9600
2, 61040, Pitch_bend_c, 1, 9600
2, 61075, Pitch_bend_c, 1, 9472
2, 61075, Pitch_bend_c, 1, 9472
2, 61075, Pitch_bend_c, 1, 9472
2, 61075, Pitch_bend_c, 1, 9472
2, 61110, Pitch_bend_c, 1, 9344
2, 61110, Pitch_bend_c, 1, 9344
2, 61110, Pitch_bend_c, 1, 9344
2, 61110, Pitch_bend_c, 1, 9344
2, 61145, Pitch_bend_c, 1, 9216
2, 61145, Pitch_bend_c, 1, 9216
2, 61145, Pitch_bend_c, 1, 9216
2, 61145, Pitch_bend_c, 1, 9216
2, 61180, Pitch_bend_c, 1, 9088
2, 61180, Pitch_bend_c, 1, 9088
2, 61180, Pitch_bend_c, 1, 9088
2, 61180, Pitch_bend_c, 1, 9088
2, 61215, Pitch_bend_c, 1, 8960
2, 61215, Pitch_bend_c, 1, 8960
2, 61215, Pitch_bend_c, 1, 8960
2, 61215, Pitch_bend_c, 1, 8960
2, 61250, Pitch_bend_c, 1, 8832
2, 61250, Pitch_bend_c, 1, 8832
2, 61250, Pitch_bend_c, 1, 8832
2, 61250, Pitch_bend_c, 1, 8832
2, 61285, Pitch_bend_c, 1, 8704
2, 61285, Pitch_bend_c, 1, 8704
2, 61285, Pitch_bend_c, 1, 8704
2, 61285, Pitch_bend_c, 1, 8704
2, 61320, Pitch_bend_c, 1, 8576
2, 61320, Pitch_bend_c, 1, 8576
2, 61320, Pitch_bend_c, 1, 8576
2, 61320, Pitch_bend_c, 1, 8576
2, 61355, Pitch_bend_c, 1, 8448
2, 61355, Pitch_bend_c, 1, 8448
2, 61355, Pitch_bend_c, 1, 8448
2, 61355, Pitch_bend_c, 1, 8448
2, 61390, Pitch_bend_c, 1, 8320
2, 61390, Pitch_bend_c, 1, 8320
2, 61390, Pitch_bend_c, 1, 8320
2, 61390, Pitch_bend_c, 1, 8320
2, 61425, Pitch_bend_c, 1, 8192
2, 61425, Pitch_bend_c, 1, 8192
2, 61425, Pitch_bend_c, 1, 8192
2, 61425, Pitch_bend_c, 1, 8192
2, 61440, Pitch_bend_c, 1, 8192
2, 61440, Pitch_bend_c, 1, 8192
2, 61440, Note_off_c, 1, 64, 95
2, 61440, Pitch_bend_c, 1, 8192
2, 61440, Pitch_bend_c, 1, 8192
2, 61440, Note_off_c, 1, 60, 95
2, 61440, Pitch_bend_c, 1, 8192
2, 61440, Pitch_bend_c, 1, 8192
2, 61440, Note_off_c, 1, 55, 95
2, 61440, Pitch_bend_c, 1, 8192
2, 61440, Pitch_bend_c, 1, 8192
2, 61440, Note_off_c, 1, 48, 95
2, 61920, Note_on_c, 0, 55, 95
2, 62400, Note_off_c, 0, 55, 95
2, 62400, Note_on_c, 1, 61, 95
2, 62400, Note_on_c, 1, 57, 95
2, 62520, Pitch_bend_c, 1, 8448
2, 62520, Pitch_bend_c, 1, 8448
2, 62640, Pitch_bend_c, 1, 8832
2, 62640, Pitch_bend_c, 1, 8192
2, 62640, Note_off_c, 1, 61, 95
2, 62640, Pitch_bend_c, 1, 8832
2, 62640, Pitch_bend_c, 1, 8192
2, 62640, Note_off_c, 1, 57, 95
2, 62640, Pitch_bend_c, 1, 8192
2, 62640, Note_on_c, 1, 62, 95
2, 62640, Pitch_bend_c, 1, 8192
2, 62640, Note_on_c, 1, 58, 95
2, 62700, Pitch_bend_c, 1, 8320
2, 62700, Pitch_bend_c, 1, 8320
2, 62760, Pitch_bend_c, 1, 8448
2, 62760, Pitch_bend_c, 1, 8448
2, 62760, Pitch_bend_c, 1, 8448
2, 62760, Pitch_bend_c, 1, 8448
2, 62880, Pitch_bend_c, 1, 8448
2, 62880, Pitch_bend_c, 1, 8192
2, 62880, Note_off_c, 1, 62, 95
2, 62880, Pitch_bend_c, 1, 8448
2, 62880, Pitch_bend_c, 1, 8192
2, 62880, Note_off_c, 1, 58, 95
2, 62880, Note_on_c, 0, 55, 95
2, 63120, Note_off_c, 0, 55, 95
2, 63120, Note_on_c, 0, 55, 95
2, 63360, Note_off_c, 0, 55, 95
2, 63360, Pitch_bend_c, 1, 8192
2, 63360, Note_on_c, 1, 53, 95
2, 63480, Pitch_bend_c, 1, 8320
2, 63600, Pitch_bend_c, 1, 8448
2, 63600, Pitch_bend_c, 1, 8448
2, 63840, Pitch_bend_c, 1, 8448
2, 63840, Pitch_bend_c, 1, 8192
2, 63840, Note_off_c, 1, 53, 95
2, 63840, Note_on_c, 0, 59, 95
2, 63840, Note_on_c, 0, 55, 95
2, 64320, Note_off_c, 0, 59, 95
2, 64320, Note_off_c, 0, 55, 95
2, 64320, Note_on_c, 1, 61, 95
2, 64320, Note_on_c, 1, 57, 95
2, 64440, Pitch_bend_c, 1, 8448
2, 64440, Pitch_bend_c, 1, 8448
2, 64560, Pitch_bend_c, 1, 8832
2, 64560, Pitch_bend_c, 1, 8192
2, 64560, Note_off_c, 1, 61, 95
2, 64560, Pitch_bend_c, 1, 8832
2, 64560, Pitch_bend_c, 1, 8192
2, 64560, Note_off_c, 1, 57, 95
2, 64560, Pitch_bend_c, 1, 8192
2, 64560, Note_on_c, 1, 62, 95
2, 64560, Pitch_bend_c, 1, 8192
2, 64560, Note_on_c, 1, 58, 95
2, 64620, Pitch_bend_c, 1, 8320
2, 64620, Pitch_bend_c, 1, 8320
2, 64680, Pitch_bend_c, 1, 8448
2, 64680, Pitch_bend_c, 1, 8448
2, 64680, Pitch_bend_c, 1, 8448
2, 64680, Pitch_bend_c, 1, 8448
2, 64800, Pitch_bend_c, 1, 8448
2, 64800, Pitch_bend_c, 1, 8192
2, 64800, Note_off_c, 1, 62, 95
2, 64800, Pitch_bend_c, 1, 8448
2, 64800, Pitch_bend_c, 1, 8192
2, 64800, Note_off_c, 1, 58, 95
2, 64800, Note_on_c, 0, 55, 95
2, 65040, Note_off_c, 0, 55, 95
2, 65040, Note_on_c, 0, 55, 95
2, 65520, Note_off_c, 0, 55, 95
2, 65520, Note_on_c, 0, 53, 95
2, 65760, Note_off_c, 0, 53, 95
2, 65760, Note_on_c, 0, 59, 95
2, 65760, Note_on_c, 0, 55, 95
2, 66240, Note_off_c, 0, 59, 95
2, 66240, Note_off_c, 0, 55, 95
2, 66240, Note_on_c, 1, 61, 95
2, 66240, Note_on_c, 1, 57, 95
2, 66360, Pitch_bend_c, 1, 8320
2, 66360, Pitch_bend_c, 1, 8320
2, 66480, Pitch_bend_c, 1, 8448
2, 66480, Pitch_bend_c, 1, 8448
2, 66600, Pitch_bend_c, 1, 8704
2, 66600, Pitch_bend_c, 1, 8704
2, 66720, Pitch_bend_c, 1, 8832
2, 66720, Pitch_bend_c, 1, 8192
2, 66720, Note_off_c, 1, 61, 95
2, 66720, Pitch_bend_c, 1, 8832
2, 66720, Pitch_bend_c, 1, 8192
2, 66720, Note_off_c, 1, 57, 95
2, 66720, Pitch_bend_c, 1, 8192
2, 66720, Note_on_c, 1, 62, 95
2, 66720, Pitch_bend_c, 1, 8192
2, 66720, Note_on_c, 1, 58, 95
2, 66780, Pitch_bend_c, 1, 8320
2, 66780, Pitch_bend_c, 1, 8320
2, 66840, Pitch_bend_c, 1, 8448
2, 66840, Pitch_bend_c, 1, 8448
2, 66840, Pitch_bend_c, 1, 8448
2, 66840, Pitch_bend_c, 1, 8448
2, 66960, Pitch_bend_c, 1, 8448
2, 66960, Pitch_bend_c, 1, 8192
2, 66960, Note_off_c, 1, 62, 95
2, 66960, Pitch_bend_c, 1, 8448
2, 66960, Pitch_bend_c, 1, 8192
2, 66960, Note_off_c, 1, 58, 95
2, 66960, Note_on_c, 0, 59, 95
2, 66960, Note_on_c, 0, 55, 95
2, 67200, Note_off_c, 0, 59, 95
2, 67200, Note_off_c, 0, 55, 95
2, 67200, Note_on_c, 1, 53, 95
2, 67320, Pitch_bend_c, 1, 8192
2, 67440, Pitch_bend_c, 1, 8192
2, 67440, Pitch_bend_c, 1, 8192
2, 67440, Note_off_c, 1, 53, 95
2, 67440, Pitch_bend_c, 1, 8192
2, 67440, Note_on_c, 1, 53, 95
2, 67560, Pitch_bend_c, 1, 8320
2, 67680, Pitch_bend_c, 1, 8448
2, 67680, Pitch_bend_c, 1, 8448
2, 67680, Pitch_bend_c, 1, 8192
2, 67680, Note_off_c, 1, 53, 95
2, 67680, Note_on_c, 0, 59, 95
2, 67680, Note_on_c, 0, 55, 95
2, 68160, Note_off_c, 0, 59, 95
2, 68160, Note_off_c, 0, 55, 95
2, 68160, Note_on_c, 1, 61, 95
2, 68160, Note_on_c, 1, 57, 95
2, 68280, Pitch_bend_c, 1, 8448
2, 68280, Pitch_bend_c, 1, 8448
2, 68400, Pitch_bend_c, 1, 8832
2, 68400, Pitch_bend_c, 1, 8192
2, 68400, Note_off_c, 1, 61, 95
2, 68400, Pitch_bend_c, 1, 8832
2, 68400, Pitch_bend_c, 1, 8192
2, 68400, Note_off_c, 1, 57, 95
2, 68400, Note_on_c, 0, 62, 95
2, 68400, Note_on_c, 0, 58, 95
2, 68640, Note_off_c, 0, 62, 95
2, 68640, Note_off_c, 0, 58, 95
2, 68640, Note_on_c, 0, 55, 95
2, 68880, Note_off_c, 0, 55, 95
2, 68880, Note_on_c, 0, 55, 95
2, 69120, Note_off_c, 0, 55, 95
2, 69120, Note_on_c, 0, 55, 95
2, 69600, Note_off_c, 0, 55, 95
2, 69600, Note_on_c, 0, 59, 95
2, 69600, Note_on_c, 0, 55, 95
2, 70080, Note_off_c, 0, 59, 95
2, 70080, Note_off_c, 0, 55, 95
2, 70080, Note_on_c, 0, 50, 95
2, 70560, Note_off_c, 0, 50, 95
2, 70560, Note_on_c, 0, 43, 95
2, 71040, Note_off_c, 0, 43, 95
2, 71040, Note_on_c, 0, 66, 95
2, 71040, Note_on_c, 0, 62, 95
2, 71040, Note_on_c, 0, 57, 95
2, 71040, Note_on_c, 0, 50, 95
2, 71520, Note_off_c, 0, 66, 95
2, 71520, Note_off_c, 0, 62, 95
2, 71520, Note_off_c, 0, 57, 95
2, 71520, Note_off_c, 0, 50, 95
2, 71520, Note_on_c, 1, 66, 95
2, 71520, Note_on_c, 1, 62, 95
2, 71520, Note_on_c, 1, 57, 95
2, 71520, Note_on_c, 1, 50, 95
2, 71680, Pitch_bend_c, 1, 8192
2, 71680, Pitch_bend_c, 1, 8192
2, 71680, Pitch_bend_c, 1, 8192
2, 71680, Pitch_bend_c, 1, 8192
2, 71840, Pitch_bend_c, 1, 8320
2, 71840, Pitch_bend_c, 1, 8320
2, 71840, Pitch_bend_c, 1, 8320
2, 71840, Pitch_bend_c, 1, 8320
2, 72000, Pitch_bend_c, 1, 8192
2, 72000, Pitch_bend_c, 1, 8192
2, 72000, Pitch_bend_c, 1, 8192
2, 72000, Pitch_bend_c, 1, 8192
2, 72160, Pitch_bend_c, 1, 8320
2, 72160, Pitch_bend_c, 1, 8320
2, 72160, Pitch_bend_c, 1, 8320
2, 72160, Pitch_bend_c, 1, 8320
2, 72320, Pitch_bend_c, 1, 8192
2, 72320, Pitch_bend_c, 1, 8192
2, 72320, Pitch_bend_c, 1, 8192
2, 72320, Pitch_bend_c, 1, 8192
2, 72480, Pitch_bend_c, 1, 8320
2, 72480, Pitch_bend_c, 1, 8192
2, 72480, Note_off_c, 1, 66, 95
2, 72480, Pitch_bend_c, 1, 8320
2, 72480, Pitch_bend_c, 1, 8192
2, 72480, Note_off_c, 1, 62, 95
2, 72480, Pitch_bend_c, 1, 8320
2, 72480, Pitch_bend_c, 1, 8192
2, 72480, Note_off_c, 1, 57, 95
2, 72480, Pitch_bend_c, 1, 8320
2, 72480, Pitch_bend_c, 1, 8192
2, 72480, Note_off_c, 1, 50, 95
2, 72480, Note_on_c, 1, 66, 95
2, 72480, Note_on_c, 1, 62, 95
2, 72480, Note_on_c, 1, 57, 95
2, 72480, Note_on_c, 1, 50, 95
2, 72640, Pitch_bend_c, 1, 8192
2, 72640, Pitch_bend_c, 1, 8192
2, 72640, Pitch_bend_c, 1, 8192
2, 72640, Pitch_bend_c, 1, 8192
2, 72800, Pitch_bend_c, 1, 8320
2, 72800, Pitch_bend_c, 1, 8320
2, 72800, Pitch_bend_c, 1, 8320
2, 72800, Pitch_bend_c, 1, 8320
2, 72960, Pitch_bend_c, 1, 8192
2, 72960, Pitch_bend_c, 1, 8192
2, 72960, Pitch_bend_c, 1, 8192
2, 72960, Pitch_bend_c, 1, 8192
2, 73120, Pitch_bend_c, 1, 8320
2, 73120, Pitch_bend_c, 1, 8320
2, 73120, Pitch_bend_c, 1, 8320
2, 73120, Pitch_bend_c, 1, 8320
2, 73280, Pitch_bend_c, 1, 8192
2, 73280, Pitch_bend_c, 1, 8192
2, 73280, Pitch_bend_c, 1, 8192
2, 73280, Pitch_bend_c, 1, 8192
2, 73440, Pitch_bend_c, 1, 8320
2, 73440, Pitch_bend_c, 1, 8192
2, 73440, Note_off_c, 1, 66, 95
2, 73440, Pitch_bend_c, 1, 8320
2, 73440, Pitch_bend_c, 1, 8192
2, 73440, Note_off_c, 1, 62, 95
2, 73440, Pitch_bend_c, 1, 8320
2, 73440, Pitch_bend_c, 1, 8192
2, 73440, Note_off_c, 1, 57, 95
2, 73440, Pitch_bend_c, 1, 8320
2, 73440, Pitch_bend_c, 1, 8192
2, 73440, Note_off_c, 1, 50, 95
2, 73440, Note_on_c, 1, 66, 95
2, 73440, Note_on_c, 1, 62, 95
2, 73440, Note_on_c, 1, 57, 95
2, 73440, Note_on_c, 1, 50, 95
2, 73600, Pitch_bend_c, 1, 8192
2, 73600, Pitch_bend_c, 1, 8192
2, 73600, Pitch_bend_c, 1, 8192
2, 73600, Pitch_bend_c, 1, 8192
2, 73760, Pitch_bend_c, 1, 8320
2, 73760, Pitch_bend_c, 1, 8320
2, 73760, Pitch_bend_c, 1, 8320
2, 73760, Pitch_bend_c, 1, 8320
2, 73920, Pitch_bend_c, 1, 8192
2, 73920, Pitch_bend_c, 1, 8192
2, 73920, Pitch_bend_c, 1, 8192
2, 73920, Pitch_bend_c, 1, 8192
2, 74080, Pitch_bend_c, 1, 8320
2, 74080, Pitch_bend_c, 1, 8320
2, 74080, Pitch_bend_c, 1, 8320
2, 74080, Pitch_bend_c, 1, 8320
2, 74240, Pitch_bend_c, 1, 8192
2, 74240, Pitch_bend_c, 1, 8192
2, 74240, Pitch_bend_c, 1, 8192
2, 74240, Pitch_bend_c, 1, 8192
2, 74400, Pitch_bend_c, 1, 8320
2, 74400, Pitch_bend_c, 1, 8192
2, 74400, Note_off_c, 1, 66, 95
2, 74400, Pitch_bend_c, 1, 8320
2, 74400, Pitch_bend_c, 1, 8192
2, 74400, Note_off_c, 1, 62, 95
2, 74400, Pitch_bend_c, 1, 8320
2, 74400, Pitch_bend_c, 1, 8192
2, 74400, Note_off_c, 1, 57, 95
2, 74400, Pitch_bend_c, 1, 8320
2, 74400, Pitch_bend_c, 1, 8192
2, 74400, Note_off_c, 1, 50, 95
2, 74400, Note_on_c, 1, 66, 95
2, 74400, Note_on_c, 1, 62, 95
2, 74400, Note_on_c, 1, 57, 95
2, 74400, Note_on_c, 1, 50, 95
2, 74520, Pitch_bend_c, 1, 7552
2, 74520, Pitch_bend_c, 1, 7552
2, 74520, Pitch_bend_c, 1, 7552
2, 74520, Pitch_bend_c, 1, 7552
2, 74640, Pitch_bend_c, 1, 6784
2, 74640, Pitch_bend_c, 1, 8192
2, 74640, Note_off_c, 1, 66, 95
2, 74640, Pitch_bend_c, 1, 6784
2, 74640, Pitch_bend_c, 1, 8192
2, 74640, Note_off_c, 1, 62, 95
2, 74640, Pitch_bend_c, 1, 6784
2, 74640, Pitch_bend_c, 1, 8192
2, 74640, Note_off_c, 1, 57, 95
2, 74640, Pitch_bend_c, 1, 6784
2, 74640, Pitch_bend_c, 1, 8192
2, 74640, Note_off_c, 1, 50, 95
2, 74640, Note_on_c, 0, 64, 95
2, 74640, Note_on_c, 0, 60, 95
2, 74640, Note_on_c, 0, 55, 95
2, 74640, Note_on_c, 0, 48, 95
2, 74880, Note_off_c, 0, 64, 95
2, 74880, Note_off_c, 0, 60, 95
2, 74880, Note_off_c, 0, 55, 95
2, 74880, Note_off_c, 0, 48, 95
2, 74880, Note_on_c, 0, 64, 95
2, 74880, Note_on_c, 0, 60, 95
2, 74880, Note_on_c, 0, 55, 95
2, 74880, Note_on_c, 0, 48, 95
2, 75360, Note_off_c, 0, 64, 95
2, 75360, Note_off_c, 0, 60, 95
2, 75360, Note_off_c, 0, 55, 95
2, 75360, Note_off_c, 0, 48, 95
2, 75360, Note_on_c, 0, 64, 95
2, 75360, Note_on_c, 0, 60, 95
2, 75360, Note_on_c, 0, 55, 95
2, 75360, Note_on_c, 0, 48, 95
2, 75840, Note_off_c, 0, 64, 95
2, 75840, Note_off_c, 0, 60, 95
2, 75840, Note_off_c, 0, 55, 95
2, 75840, Note_off_c, 0, 48, 95
2, 75840, Note_on_c, 0, 64, 95
2, 75840, Note_on_c, 0, 60, 95
2, 75840, Note_on_c, 0, 55, 95
2, 75840, Note_on_c, 0, 48, 95
2, 76320, Note_off_c, 0, 64, 95
2, 76320, Note_off_c, 0, 60, 95
2, 76320, Note_off_c, 0, 55, 95
2, 76320, Note_off_c, 0, 48, 95
2, 76320, Note_on_c, 0, 64, 95
2, 76320, Note_on_c, 0, 60, 95
2, 76320, Note_on_c, 0, 55, 95
2, 76320, Note_on_c, 0, 48, 95
2, 76800, Note_off_c, 0, 64, 95
2, 76800, Note_off_c, 0, 60, 95
2, 76800, Note_off_c, 0, 55, 95
2, 76800, Note_off_c, 0, 48, 95
2, 76800, Note_on_c, 1, 60, 95
2, 76800, Note_on_c, 1, 55, 95
2, 76800, Note_on_c, 1, 48, 95
2, 76920, Pitch_bend_c, 1, 7424
2, 76920, Pitch_bend_c, 1, 7424
2, 76920, Pitch_bend_c, 1, 7424
2, 77040, Pitch_bend_c, 1, 6528
2, 77040, Pitch_bend_c, 1, 6528
2, 77040, Pitch_bend_c, 1, 6528
2, 77160, Pitch_bend_c, 1, 5632
2, 77160, Pitch_bend_c, 1, 5632
2, 77160, Pitch_bend_c, 1, 5632
2, 77280, Pitch_bend_c, 1, 4736
2, 77280, Pitch_bend_c, 1, 8192
2, 77280, Note_off_c, 1, 60, 95
2, 77280, Pitch_bend_c, 1, 4736
2, 77280, Pitch_bend_c, 1, 8192
2, 77280, Note_off_c, 1, 55, 95
2, 77280, Pitch_bend_c, 1, 4736
2, 77280, Pitch_bend_c, 1, 8192
2, 77280, Note_off_c, 1, 48, 95
2, 77280, Note_on_c, 0, 55, 95
2, 77280, Note_on_c, 0, 50, 95
2, 77280, Note_on_c, 0, 43, 95
2, 77760, Note_off_c, 0, 55, 95
2, 77760, Note_off_c, 0, 50, 95
2, 77760, Note_off_c, 0, 43, 95
2, 77760, Note_on_c, 1, 58, 95
2, 77760, Note_on_c, 1, 53, 95
2, 77760, Note_on_c, 1, 46, 95
2, 77880, Pitch_bend_c, 1, 8064
2, 77880, Pitch_bend_c, 1, 8064
2, 77880, Pitch_bend_c, 1, 8064
2, 78000, Pitch_bend_c, 1, 7936
2, 78000, Pitch_bend_c, 1, 7936
2, 78000, Pitch_bend_c, 1, 7936
2, 78120, Pitch_bend_c, 1, 7680
2, 78120, Pitch_bend_c, 1, 7680
2, 78120, Pitch_bend_c, 1, 7680
2, 78240, Pitch_bend_c, 1, 7552
2, 78240, Pitch_bend_c, 1, 8192
2, 78240, Note_off_c, 1, 58, 95
2, 78240, Pitch_bend_c, 1, 7552
2, 78240, Pitch_bend_c, 1, 8192
2, 78240, Note_off_c, 1, 53, 95
2, 78240, Pitch_bend_c, 1, 7552
2, 78240, Pitch_bend_c, 1, 8192
2, 78240, Note_off_c, 1, 46, 95
2, 78240, Note_on_c, 0, 57, 95
2, 78240, Note_on_c, 0, 52, 95
2, 78240, Note_on_c, 0, 45, 95
2, 78720, Note_off_c, 0, 57, 95
2, 78720, Note_off_c, 0, 52, 95
2, 78720, Note_off_c, 0, 45, 95
2, 78720, Note_on_c, 0, 55, 95
2, 78720, Note_on_c, 0, 50, 95
2, 78720, Note_on_c, 0, 43, 95
2, 78960, Note_off_c, 0, 55, 95
2, 78960, Note_off_c, 0, 50, 95
2, 78960, Note_off_c, 0, 43, 95
2, 78960, Note_on_c, 0, 59, 95
2, 79200, Note_off_c, 0, 59, 95
2, 79200, Note_on_c, 0, 55, 95
2, 79680, Note_off_c, 0, 55, 95
2, 79680, Note_on_c, 1, 61, 95
2, 79680, Note_on_c, 1, 57, 95
2, 79800, Pitch_bend_c, 1, 8448
2, 79800, Pitch_bend_c, 1, 8448
2, 79920, Pitch_bend_c, 1, 8832
2, 79920, Pitch_bend_c, 1, 8192
2, 79920, Note_off_c, 1, 61, 95
2, 79920, Pitch_bend_c, 1, 8832
2, 79920, Pitch_bend_c, 1, 8192
2, 79920, Note_off_c, 1, 57, 95
2, 79920, Pitch_bend_c, 1, 8192
2, 79920, Note_on_c, 1, 62, 95
2, 79920, Pitch_bend_c, 1, 8192
2, 79920, Note_on_c, 1, 58, 95
2, 79980, Pitch_bend_c, 1, 8320
2, 79980, Pitch_bend_c, 1, 8320
2, 80040, Pitch_bend_c, 1, 8448
2, 80040, Pitch_bend_c, 1, 8448
2, 80040, Pitch_bend_c, 1, 8448
2, 80040, Pitch_bend_c, 1, 8448
2, 80160, Pitch_bend_c, 1, 8448
2, 80160, Pitch_bend_c, 1, 8192
2, 80160, Note_off_c, 1, 62, 95
2, 80160, Pitch_bend_c, 1, 8448
2, 80160, Pitch_bend_c, 1, 8192
2, 80160, Note_off_c, 1, 58, 95
2, 80160, Note_on_c, 0, 59, 95
2, 80160, Note_on_c, 0, 55, 95
2, 80400, Note_off_c, 0, 59, 95
2, 80400, Note_off_c, 0, 55, 95
2, 80400, Note_on_c, 0, 55, 95
2, 80640, Note_off_c, 0, 55, 95
2, 80640, Note_on_c, 1, 53, 95
2, 80760, Pitch_bend_c, 1, 8192
2, 80880, Pitch_bend_c, 1, 8192
2, 80880, Pitch_bend_c, 1, 8192
2, 80880, Note_off_c, 1, 53, 95
2, 80880, Pitch_bend_c, 1, 8192
2, 80880, Note_on_c, 1, 53, 95
2, 81000, Pitch_bend_c, 1, 8320
2, 81120, Pitch_bend_c, 1, 8448
2, 81120, Pitch_bend_c, 1, 8448
2, 81120, Pitch_bend_c, 1, 8192
2, 81120, Note_off_c, 1, 53, 95
2, 81120, Note_on_c, 0, 59, 95
2, 81120, Note_on_c, 0, 55, 95
2, 81600, Note_off_c, 0, 59, 95
2, 81600, Note_off_c, 0, 55, 95
2, 81600, Note_on_c, 1, 61, 95
2, 81600, Note_on_c, 1, 57, 95
2, 81720, Pitch_bend_c, 1, 8448
2, 81720, Pitch_bend_c, 1, 8448
2, 81840, Pitch_bend_c, 1, 8832
2, 81840, Pitch_bend_c, 1, 8192
2, 81840, Note_off_c, 1, 61, 95
2, 81840, Pitch_bend_c, 1, 8832
2, 81840, Pitch_bend_c, 1, 8192
2, 81840, Note_off_c, 1, 57, 95
2, 81840, Pitch_bend_c, 1, 8192
2, 81840, Note_on_c, 1, 62, 95
2, 81840, Pitch_bend_c, 1, 8192
2, 81840, Note_on_c, 1, 58, 95
2, 81960, Pitch_bend_c, 1, 8320
2, 81960, Pitch_bend_c, 1, 8320
2, 82080, Pitch_bend_c, 1, 8448
2, 82080, Pitch_bend_c, 1, 8448
2, 82080, Pitch_bend_c, 1, 8192
2, 82080, Note_off_c, 1, 62, 95
2, 82080, Pitch_bend_c, 1, 8448
2, 82080, Pitch_bend_c, 1, 8448
2, 82080, Pitch_bend_c, 1, 8192
2, 82080, Note_off_c, 1, 58, 95
2, 82080, Note_on_c, 0, 55, 95
2, 82320, Note_off_c, 0, 55, 95
2, 82320, Note_on_c, 0, 55, 95
2, 82800, Note_off_c, 0, 55, 95
2, 82800, Note_on_c, 0, 59, 95
2, 82800, Note_on_c, 0, 55, 95
2, 83040, Note_off_c, 0, 59, 95
2, 83040, Note_off_c, 0, 55, 95
2, 83040, Note_on_c, 0, 59, 95
2, 83040, Note_on_c, 0, 55, 95
2, 83520, Note_off_c, 0, 59, 95
2, 83520, Note_off_c, 0, 55, 95
2, 83520, Note_on_c, 1, 61, 95
2, 83520, Note_on_c, 1, 57, 95
2, 83640, Pitch_bend_c, 1, 8320
2, 83640, Pitch_bend_c, 1, 8320
2, 83760, Pitch_bend_c, 1, 8448
2, 83760, Pitch_bend_c, 1, 8448
2, 83880, Pitch_bend_c, 1, 8704
2, 83880, Pitch_bend_c, 1, 8704
2, 84000, Pitch_bend_c, 1, 8832
2, 84000, Pitch_bend_c, 1, 8192
2, 84000, Note_off_c, 1, 61, 95
2, 84000, Pitch_bend_c, 1, 8832
2, 84000, Pitch_bend_c, 1, 8192
2, 84000, Note_off_c, 1, 57, 95
2, 84000, Pitch_bend_c, 1, 8192
2, 84000, Note_on_c, 1, 62, 95
2, 84000, Pitch_bend_c, 1, 8192
2, 84000, Note_on_c, 1, 58, 95
2, 84120, Pitch_bend_c, 1, 8320
2, 84120, Pitch_bend_c, 1, 8320
2, 84240, Pitch_bend_c, 1, 8448
2, 84240, Pitch_bend_c, 1, 8448
2, 84240, Pitch_bend_c, 1, 8192
2, 84240, Note_off_c, 1, 62, 95
2, 84240, Pitch_bend_c, 1, 8448
2, 84240, Pitch_bend_c, 1, 8448
2, 84240, Pitch_bend_c, 1, 8192
2, 84240, Note_off_c, 1, 58, 95
2, 84240, Note_on_c, 0, 59, 95
2, 84240, Note_on_c, 0, 55, 95
2, 84480, Note_off_c, 0, 59, 95
2, 84480, Note_off_c, 0, 55, 95
2, 84480, Note_on_c, 1, 53, 95
2, 84600, Pitch_bend_c, 1, 8192
2, 84720, Pitch_bend_c, 1, 8192
2, 84720, Pitch_bend_c, 1, 8192
2, 84720, Note_off_c, 1, 53, 95
2, 84720, Pitch_bend_c, 1, 8192
2, 84720, Note_on_c, 1, 53, 95
2, 84840, Pitch_bend_c, 1, 8320
2, 84960, Pitch_bend_c, 1, 8448
2, 84960, Pitch_bend_c, 1, 8448
2, 84960, Pitch_bend_c, 1, 8192
2, 84960, Note_off_c, 1, 53, 95
2, 84960, Note_on_c, 0, 59, 95
2, 84960, Note_on_c, 0, 55, 95
2, 85440, Note_off_c, 0, 59, 95
2, 85440, Note_off_c, 0, 55, 95
2, 85440, Note_on_c, 1, 61, 95
2, 85440, Note_on_c, 1, 57, 95
2, 85560, Pitch_bend_c, 1, 8448
2, 85560, Pitch_bend_c, 1, 8448
2, 85680, Pitch_bend_c, 1, 8832
2, 85680, Pitch_bend_c, 1, 8192
2, 85680, Note_off_c, 1, 61, 95
2, 85680, Pitch_bend_c, 1, 8832
2, 85680, Pitch_bend_c, 1, 8192
2, 85680, Note_off_c, 1, 57, 95
2, 85680, Note_on_c, 0, 62, 95
2, 85680, Note_on_c, 0, 58, 95
2, 85920, Note_off_c, 0, 62, 95
2, 85920, Note_off_c, 0, 58, 95
2, 86160, Note_on_c, 0, 55, 95
2, 86640, Note_off_c, 0, 55, 95
2, 86640, Note_on_c, 0, 55, 95
2, 86880, Note_off_c, 0, 55, 95
2, 86880, Note_on_c, 0, 59, 95
2, 86880, Note_on_c, 0, 55, 95
2, 87360, Note_off_c, 0, 59, 95
2, 87360, Note_off_c, 0, 55, 95
2, 87360, Note_on_c, 0, 62, 95
2, 87360, Note_on_c, 0, 59, 95
2, 87840, Note_off_c, 0, 62, 95
2, 87840, Note_off_c, 0, 59, 95
2, 87840, Note_on_c, 0, 62, 95
2, 88320, Note_off_c, 0, 62, 95
2, 88320, Note_on_c, 1, 65, 95
2, 88440, Pitch_bend_c, 1, 8832
2, 88560, Pitch_bend_c, 1, 9600
2, 88560, Pitch_bend_c, 1, 8192
2, 88560, Note_off_c, 1, 65, 95
2, 88560, Note_on_c, 0, 67, 95
2, 88800, Note_off_c, 0, 67, 95
2, 88800, Note_on_c, 1, 67, 95
2, 88960, Pitch_bend_c, 1, 8192
2, 89120, Pitch_bend_c, 1, 8320
2, 89280, Pitch_bend_c, 1, 8192
2, 89440, Pitch_bend_c, 1, 8320
2, 89600, Pitch_bend_c, 1, 8192
2, 89760, Pitch_bend_c, 1, 8320
2, 89760, Pitch_bend_c, 1, 8192
2, 89760, Note_off_c, 1, 67, 95
2, 89760, Note_on_c, 1, 67, 95
2, 89920, Pitch_bend_c, 1, 8192
2, 90080, Pitch_bend_c, 1, 8320
2, 90240, Pitch_bend_c, 1, 8192
2, 90400, Pitch_bend_c, 1, 8320
2, 90560, Pitch_bend_c, 1, 8192
2, 90720, Pitch_bend_c, 1, 8320
2, 90880, Pitch_bend_c, 1, 8192
2, 91040, Pitch_bend_c, 1, 8320
2, 91200, Pitch_bend_c, 1, 8192
2, 91360, Pitch_bend_c, 1, 8320
2, 91520, Pitch_bend_c, 1, 8192
2, 91680, Pitch_bend_c, 1, 8320
2, 91840, Pitch_bend_c, 1, 8192
2, 92000, Pitch_bend_c, 1, 8320
2, 92160, Pitch_bend_c, 1, 8192
2, 92320, Pitch_bend_c, 1, 8320
2, 92480, Pitch_bend_c, 1, 8192
2, 92640, Pitch_bend_c, 1, 8320
2, 92640, Pitch_bend_c, 1, 8192
2, 92640, Note_off_c, 1, 67, 95
2, 92640, Note_on_c, 0, 67, 95
2, 92640, Note_on_c, 0, 64, 95
2, 93120, Note_off_c, 0, 67, 95
2, 93120, Note_off_c, 0, 64, 95
2, 93120, Note_on_c, 1, 67, 95
2, 93120, Note_on_c, 1, 64, 95
2, 93240, Pitch_bend_c, 1, 7552
2, 93240, Pitch_bend_c, 1, 7552
2, 93360, Pitch_bend_c, 1, 6784
2, 93360, Pitch_bend_c, 1, 8192
2, 93360, Note_off_c, 1, 67, 95
2, 93360, Pitch_bend_c, 1, 6784
2, 93360, Pitch_bend_c, 1, 8192
2, 93360, Note_off_c, 1, 64, 95
2, 93360, Note_on_c, 0, 65, 95
2, 93360, Note_on_c, 0, 62, 95
2, 93600, Note_off_c, 0, 65, 95
2, 93600, Note_off_c, 0, 62, 95
2, 93600, Note_on_c, 0, 62, 95
2, 93600, Note_on_c, 0, 59, 95
2, 94080, Note_off_c, 0, 62, 95
2, 94080, Note_off_c, 0, 59, 95
2, 94080, Note_on_c, 1, 65, 95
2, 94240, Pitch_bend_c, 1, 8192
2, 94400, Pitch_bend_c, 1, 8320
2, 94560, Pitch_bend_c, 1, 8192
2, 94720, Pitch_bend_c, 1, 8320
2, 94880, Pitch_bend_c, 1, 8192
2, 95040, Pitch_bend_c, 1, 8320
2, 95040, Pitch_bend_c, 1, 8192
2, 95040, Note_off_c, 1, 65, 95
2, 95040, Note_on_c, 0, 65, 95
2, 95520, Note_off_c, 0, 65, 95
2, 95520, Note_on_c, 1, 62, 95
2, 95520, Note_on_c, 1, 58, 95
2, 95640, Pitch_bend_c, 1, 7936
2, 95640, Pitch_bend_c, 1, 7936
2, 95760, Pitch_bend_c, 1, 7552
2, 95760, Pitch_bend_c, 1, 8192
2, 95760, Note_off_c, 1, 62, 95
2, 95760, Pitch_bend_c, 1, 7552
2, 95760, Pitch_bend_c, 1, 8192
2, 95760, Note_off_c, 1, 58, 95
2, 95760, Note_on_c, 1, 61, 95
2, 95760, Note_on_c, 1, 57, 95
2, 95880, Pitch_bend_c, 1, 7936
2, 95880, Pitch_bend_c, 1, 7936
2, 96000, Pitch_bend_c, 1, 7552
2, 96000, Pitch_bend_c, 1, 8192
2, 96000, Note_off_c, 1, 61, 95
2, 96000, Pitch_bend_c, 1, 7552
2, 96000, Pitch_bend_c, 1, 8192
2, 96000, Note_off_c, 1, 57, 95
2, 96000, Note_on_c, 0, 60, 95
2, 96000, Note_on_c, 0, 56, 95
2, 96480, Note_off_c, 0, 60, 95
2, 96480, Note_off_c, 0, 56, 95
2, 96480, Note_on_c, 0, 55, 95
2, 96960, Note_off_c, 0, 55, 95
2, 96960, Note_on_c, 1, 57, 95
2, 96960, Note_on_c, 1, 52, 95
2, 97080, Pitch_bend_c, 1, 8320
2, 97080, Pitch_bend_c, 1, 8320
2, 97200, Pitch_bend_c, 1, 8448
2, 97200, Pitch_bend_c, 1, 8448
2, 97320, Pitch_bend_c, 1, 8704
2, 97320, Pitch_bend_c, 1, 8704
2, 97440, Pitch_bend_c, 1, 8832
2, 97440, Pitch_bend_c, 1, 8192
2, 97440, Note_off_c, 1, 57, 95
2, 97440, Pitch_bend_c, 1, 8832
2, 97440, Pitch_bend_c, 1, 8192
2, 97440, Note_off_c, 1, 52, 95
2, 97440, Pitch_bend_c, 1, 8192
2, 97440, Note_on_c, 1, 58, 95
2, 97440, Pitch_bend_c, 1, 8192
2, 97440, Note_on_c, 1, 53, 95
2, 97560, Pitch_bend_c, 1, 8320
2, 97560, Pitch_bend_c, 1, 8320
2, 97680, Pitch_bend_c, 1, 8448
2, 97680, Pitch_bend_c, 1, 8448
2, 97680, Pitch_bend_c, 1, 8192
2, 97680, Note_off_c, 1, 58, 95
2, 97680, Pitch_bend_c, 1, 8448
2, 97680, Pitch_bend_c, 1, 8448
2, 97680, Pitch_bend_c, 1, 8192
2, 97680, Note_off_c, 1, 53, 95
2, 97680, Note_on_c, 0, 55, 95
2, 97920, Note_off_c, 0, 55, 95
2, 97920, Note_on_c, 1, 57, 95
2, 97920, Note_on_c, 1, 52, 95
2, 98040, Pitch_bend_c, 1, 8448
2, 98040, Pitch_bend_c, 1, 8448
2, 98160, Pitch_bend_c, 1, 8832
2, 98160, Pitch_bend_c, 1, 8192
2, 98160, Note_off_c, 1, 57, 95
2, 98160, Pitch_bend_c, 1, 8832
2, 98160, Pitch_bend_c, 1, 8192
2, 98160, Note_off_c, 1, 52, 95
2, 98160, Pitch_bend_c, 1, 8192
2, 98160, Note_on_c, 1, 58, 95
2, 98160, Pitch_bend_c, 1, 8192
2, 98160, Note_on_c, 1, 53, 95
2, 98400, Pitch_bend_c, 1, 8320
2, 98400, Pitch_bend_c, 1, 8320
2, 98640, Pitch_bend_c, 1, 8448
2, 98640, Pitch_bend_c, 1, 8448
2, 98640, Pitch_bend_c, 1, 8192
2, 98640, Note_off_c, 1, 58, 95
2, 98640, Pitch_bend_c, 1, 8448
2, 98640, Pitch_bend_c, 1, 8448
2, 98640, Pitch_bend_c, 1, 8192
2, 98640, Note_off_c, 1, 53, 95
2, 98640, Note_on_c, 0, 59, 95
2, 98640, Note_on_c, 0, 55, 95
2, 98880, Note_off_c, 0, 59, 95
2, 98880, Note_off_c, 0, 55, 95
2, 98880, Note_on_c, 1, 61, 95
2, 98880, Note_on_c, 1, 57, 95
2, 99000, Pitch_bend_c, 1, 8448
2, 99000, Pitch_bend_c, 1, 8448
2, 99120, Pitch_bend_c, 1, 8832
2, 99120, Pitch_bend_c, 1, 8192
2, 99120, Note_off_c, 1, 61, 95
2, 99120, Pitch_bend_c, 1, 8832
2, 99120, Pitch_bend_c, 1, 8192
2, 99120, Note_off_c, 1, 57, 95
2, 99120, Pitch_bend_c, 1, 8192
2, 99120, Note_on_c, 1, 62, 95
2, 99120, Pitch_bend_c, 1, 8192
2, 99120, Note_on_c, 1, 58, 95
2, 99240, Pitch_bend_c, 1, 8320
2, 99240, Pitch_bend_c, 1, 8320
2, 99360, Pitch_bend_c, 1, 8448
2, 99360, Pitch_bend_c, 1, 8448
2, 99360, Pitch_bend_c, 1, 8192
2, 99360, Note_off_c, 1, 62, 95
2, 99360, Pitch_bend_c, 1, 8448
2, 99360, Pitch_bend_c, 1, 8448
2, 99360, Pitch_bend_c, 1, 8192
2, 99360, Note_off_c, 1, 58, 95
2, 99360, Note_on_c, 0, 55, 95
2, 99600, Note_off_c, 0, 55, 95
2, 99600, Note_on_c, 0, 59, 95
2, 99600, Note_on_c, 0, 55, 95
2, 100080, Note_off_c, 0, 59, 95
2, 100080, Note_off_c, 0, 55, 95
2, 100080, Note_on_c, 0, 55, 95
2, 100320, Note_off_c, 0, 55, 95
2, 100320, Note_on_c, 0, 59, 95
2, 100320, Note_on_c, 0, 55, 95
2, 100800, Note_off_c, 0, 59, 95
2, 100800, Note_off_c, 0, 55, 95
2, 100800, Note_on_c, 1, 58, 95
2, 100920, Pitch_bend_c, 1, 8192
2, 101040, Pitch_bend_c, 1, 8192
2, 101160, Pitch_bend_c, 1, 8192
2, 101280, Pitch_bend_c, 1, 8192
2, 101280, Pitch_bend_c, 1, 8192
2, 101280, Note_off_c, 1, 58, 95
2, 101280, Pitch_bend_c, 1, 8192
2, 101280, Note_on_c, 1, 58, 95
2, 101400, Pitch_bend_c, 1, 8320
2, 101520, Pitch_bend_c, 1, 8448
2, 101520, Pitch_bend_c, 1, 8448
2, 101520, Pitch_bend_c, 1, 8192
2, 101520, Note_off_c, 1, 58, 95
2, 101520, Note_on_c, 0, 55, 95
2, 101760, Note_off_c, 0, 55, 95
2, 101760, Note_on_c, 1, 53, 95
2, 101880, Pitch_bend_c, 1, 8192
2, 102000, Pitch_bend_c, 1, 8192
2, 102000, Pitch_bend_c, 1, 8192
2, 102000, Note_off_c, 1, 53, 95
2, 102000, Pitch_bend_c, 1, 8192
2, 102000, Note_on_c, 1, 53, 95
2, 102120, Pitch_bend_c, 1, 8320
2, 102240, Pitch_bend_c, 1, 8448
2, 102240, Pitch_bend_c, 1, 8448
2, 102240, Pitch_bend_c, 1, 8192
2, 102240, Note_off_c, 1, 53, 95
2, 102240, Note_on_c, 0, 55, 95
2, 102720, Note_off_c, 0, 55, 95
2, 102720, Note_on_c, 1, 58, 95
2, 102840, Pitch_bend_c, 1, 8192
2, 102960, Pitch_bend_c, 1, 8192
2, 102960, Pitch_bend_c, 1, 8192
2, 102960, Note_off_c, 1, 58, 95
2, 102960, Pitch_bend_c, 1, 8192
2, 102960, Note_on_c, 1, 58, 95
2, 103080, Pitch_bend_c, 1, 8320
2, 103200, Pitch_bend_c, 1, 8448
2, 103200, Pitch_bend_c, 1, 8448
2, 103200, Pitch_bend_c, 1, 8192
2, 103200, Note_off_c, 1, 58, 95
2, 103200, Note_on_c, 0, 55, 95
2, 103440, Note_off_c, 0, 55, 95
2, 103440, Note_on_c, 0, 59, 95
2, 103440, Note_on_c, 0, 55, 95
2, 103920, Note_off_c, 0, 59, 95
2, 103920, Note_off_c, 0, 55, 95
2, 103920, Note_on_c, 0, 59, 95
2, 103920, Note_on_c, 0, 55, 95
2, 104160, Note_off_c, 0, 59, 95
2, 104160, Note_off_c, 0, 55, 95
2, 104160, Note_on_c, 0, 59, 95
2, 104160, Note_on_c, 0, 55, 95
2, 104640, Note_off_c, 0, 59, 95
2, 104640, Note_off_c, 0, 55, 95
2, 104640, Note_on_c, 0, 62, 95
2, 105120, Note_off_c, 0, 62, 95
2, 105120, Note_on_c, 0, 62, 95
2, 105600, Note_off_c, 0, 62, 95
2, 105600, Note_on_c, 1, 65, 95
2, 105720, Pitch_bend_c, 1, 8832
2, 105840, Pitch_bend_c, 1, 9600
2, 105840, Pitch_bend_c, 1, 8192
2, 105840, Note_off_c, 1, 65, 95
2, 105840, Note_on_c, 0, 67, 95
2, 106080, Note_off_c, 0, 67, 95
2, 106080, Note_on_c, 1, 67, 95
2, 106240, Pitch_bend_c, 1, 8192
2, 106400, Pitch_bend_c, 1, 8320
2, 106560, Pitch_bend_c, 1, 8192
2, 106720, Pitch_bend_c, 1, 8320
2, 106880, Pitch_bend_c, 1, 8192
2, 107040, Pitch_bend_c, 1, 8320
2, 107040, Pitch_bend_c, 1, 8192
2, 107040, Note_off_c, 1, 67, 95
2, 107040, Note_on_c, 1, 67, 95
2, 107200, Pitch_bend_c, 1, 8192
2, 107360, Pitch_bend_c, 1, 8320
2, 107520, Pitch_bend_c, 1, 8192
2, 107680, Pitch_bend_c, 1, 8320
2, 107840, Pitch_bend_c, 1, 8192
2, 108000, Pitch_bend_c, 1, 8320
2, 108000, Pitch_bend_c, 1, 8192
2, 108000, Note_off_c, 1, 67, 95
2, 108000, Note_on_c, 1, 67, 95
2, 108000, Note_on_c, 1, 64, 95
2, 108120, Pitch_bend_c, 1, 7808
2, 108120, Pitch_bend_c, 1, 7808
2, 108240, Pitch_bend_c, 1, 7424
2, 108240, Pitch_bend_c, 1, 7424
2, 108360, Pitch_bend_c, 1, 6912
2, 108360, Pitch_bend_c, 1, 6912
2, 108480, Pitch_bend_c, 1, 6528
2, 108480, Pitch_bend_c, 1, 6528
2, 108600, Pitch_bend_c, 1, 6016
2, 108600, Pitch_bend_c, 1, 6016
2, 108720, Pitch_bend_c, 1, 5632
2, 108720, Pitch_bend_c, 1, 5632
2, 108840, Pitch_bend_c, 1, 5120
2, 108840, Pitch_bend_c, 1, 5120
2, 108960, Pitch_bend_c, 1, 4736
2, 108960, Pitch_bend_c, 1, 8192
2, 108960, Note_off_c, 1, 67, 95
2, 108960, Pitch_bend_c, 1, 4736
2, 108960, Pitch_bend_c, 1, 8192
2, 108960, Note_off_c, 1, 64, 95
2, 108960, Note_on_c, 0, 62, 95
2, 108960, Note_on_c, 0, 59, 95
2, 109440, Note_off_c, 0, 62, 95
2, 109440, Note_off_c, 0, 59, 95
2, 109920, Note_on_c, 0, 67, 95
2, 109920, Note_on_c, 0, 64, 95
2, 110400, Note_off_c, 0, 67, 95
2, 110400, Note_off_c, 0, 64, 95
2, 110400, Note_on_c, 1, 67, 95
2, 110400, Note_on_c, 1, 64, 95
2, 110520, Pitch_bend_c, 1, 7552
2, 110520, Pitch_bend_c, 1, 7552
2, 110640, Pitch_bend_c, 1, 6784
2, 110640, Pitch_bend_c, 1, 8192
2, 110640, Note_off_c, 1, 67, 95
2, 110640, Pitch_bend_c, 1, 6784
2, 110640, Pitch_bend_c, 1, 8192
2, 110640, Note_off_c, 1, 64, 95
2, 110640, Note_on_c, 0, 65, 95
2, 110640, Note_on_c, 0, 62, 95
2, 110880, Note_off_c, 0, 65, 95
2, 110880, Note_off_c, 0, 62, 95
2, 110880, Note_on_c, 0, 62, 95
2, 110880, Note_on_c, 0, 59, 95
2, 111360, Note_off_c, 0, 62, 95
2, 111360, Note_off_c, 0, 59, 95
2, 111360, Note_on_c, 1, 65, 95
2, 111360, Note_on_c, 1, 62, 95
2, 111520, Pitch_bend_c, 1, 8192
2, 111520, Pitch_bend_c, 1, 8192
2, 111680, Pitch_bend_c, 1, 8320
2, 111680, Pitch_bend_c, 1, 8320
2, 111840, Pitch_bend_c, 1, 8192
2, 111840, Pitch_bend_c, 1, 8192
2, 112000, Pitch_bend_c, 1, 8320
2, 112000, Pitch_bend_c, 1, 8320
2, 112160, Pitch_bend_c, 1, 8192
2, 112160, Pitch_bend_c, 1, 8192
2, 112320, Pitch_bend_c, 1, 8320
2, 112320, Pitch_bend_c, 1, 8192
2, 112320, Note_off_c, 1, 65, 95
2, 112320, Pitch_bend_c, 1, 8320
2, 112320, Pitch_bend_c, 1, 8192
2, 112320, Note_off_c, 1, 62, 95
2, 112320, Note_on_c, 0, 65, 95
2, 112320, Note_on_c, 0, 62, 95
2, 112800, Note_off_c, 0, 65, 95
2, 112800, Note_off_c, 0, 62, 95
2, 112800, Pitch_bend_c, 1, 9600
2, 112800, Note_on_c, 1, 65, 95
2, 112800, Pitch_bend_c, 1, 9600
2, 112800, Note_on_c, 1, 62, 95
2, 112843, Pitch_bend_c, 1, 9472
2, 112843, Pitch_bend_c, 1, 9472
2, 112886, Pitch_bend_c, 1, 9344
2, 112886, Pitch_bend_c, 1, 9344
2, 112929, Pitch_bend_c, 1, 9216
2, 112929, Pitch_bend_c, 1, 9216
2, 112972, Pitch_bend_c, 1, 9088
2, 112972, Pitch_bend_c, 1, 9088
2, 113015, Pitch_bend_c, 1, 8960
2, 113015, Pitch_bend_c, 1, 8960
2, 113058, Pitch_bend_c, 1, 8832
2, 113058, Pitch_bend_c, 1, 8832
2, 113101, Pitch_bend_c, 1, 8704
2, 113101, Pitch_bend_c, 1, 8704
2, 113144, Pitch_bend_c, 1, 8576
2, 113144, Pitch_bend_c, 1, 8576
2, 113187, Pitch_bend_c, 1, 8448
2, 113187, Pitch_bend_c, 1, 8448
2, 113230, Pitch_bend_c, 1, 8320
2, 113230, Pitch_bend_c, 1, 8320
2, 113273, Pitch_bend_c, 1, 8192
2, 113273, Pitch_bend_c, 1, 8192
2, 113280, Pitch_bend_c, 1, 8192
2, 113280, Pitch_bend_c, 1, 8192
2, 113280, Note_off_c, 1, 65, 95
2, 113280, Pitch_bend_c, 1, 8192
2, 113280, Pitch_bend_c, 1, 8192
2, 113280, Note_off_c, 1, 62, 95
2, 113280, Note_on_c, 0, 60, 95
2, 113760, Note_off_c, 0, 60, 95
2, 113760, Note_on_c, 0, 59, 95
2, 113760, Note_on_c, 0, 55, 95
2, 114240, Note_off_c, 0, 59, 95
2, 114240, Note_off_c, 0, 55, 95
2, 114240, Note_on_c, 1, 58, 95
2, 114360, Pitch_bend_c, 1, 8192
2, 114480, Pitch_bend_c, 1, 8192
2, 114600, Pitch_bend_c, 1, 8192
2, 114720, Pitch_bend_c, 1, 8192
2, 114720, Pitch_bend_c, 1, 8192
2, 114720, Note_off_c, 1, 58, 95
2, 114720, Pitch_bend_c, 1, 8192
2, 114720, Note_on_c, 1, 58, 95
2, 114840, Pitch_bend_c, 1, 8320
2, 114960, Pitch_bend_c, 1, 8448
2, 114960, Pitch_bend_c, 1, 8448
2, 114960, Pitch_bend_c, 1, 8192
2, 114960, Note_off_c, 1, 58, 95
2, 114960, Note_on_c, 0, 55, 95
2, 115200, Note_off_c, 0, 55, 95
2, 115200, Note_on_c, 1, 53, 95
2, 115320, Pitch_bend_c, 1, 8192
2, 115440, Pitch_bend_c, 1, 8192
2, 115440, Pitch_bend_c, 1, 8192
2, 115440, Note_off_c, 1, 53, 95
2, 115440, Pitch_bend_c, 1, 8192
2, 115440, Note_on_c, 1, 53, 95
2, 115560, Pitch_bend_c, 1, 8320
2, 115680, Pitch_bend_c, 1, 8448
2, 115680, Pitch_bend_c, 1, 8448
2, 115680, Pitch_bend_c, 1, 8192
2, 115680, Note_off_c, 1, 53, 95
2, 115680, Note_on_c, 0, 59, 95
2, 115680, Note_on_c, 0, 55, 95
2, 116160, Note_off_c, 0, 59, 95
2, 116160, Note_off_c, 0, 55, 95
2, 116160, Note_on_c, 1, 58, 95
2, 116280, Pitch_bend_c, 1, 8192
2, 116400, Pitch_bend_c, 1, 8192
2, 116400, Pitch_bend_c, 1, 8192
2, 116400, Note_off_c, 1, 58, 95
2, 116400, Pitch_bend_c, 1, 8192
2, 116400, Note_on_c, 1, 58, 95
2, 116520, Pitch_bend_c, 1, 8320
2, 116640, Pitch_bend_c, 1, 8448
2, 116640, Pitch_bend_c, 1, 8448
2, 116640, Pitch_bend_c, 1, 8192
2, 116640, Note_off_c, 1, 58, 95
2, 116640, Note_on_c, 0, 55, 95
2, 116880, Note_off_c, 0, 55, 95
2, 116880, Note_on_c, 0, 55, 95
2, 117360, Note_off_c, 0, 55, 95
2, 117360, Note_on_c, 0, 55, 95
2, 117600, Note_off_c, 0, 55, 95
2, 117600, Note_on_c, 0, 55, 95
2, 118080, Note_off_c, 0, 55, 95
2, 118080, Note_on_c, 1, 61, 95
2, 118080, Note_on_c, 1, 57, 95
2, 118200, Pitch_bend_c, 1, 8320
2, 118200, Pitch_bend_c, 1, 8320
2, 118320, Pitch_bend_c, 1, 8448
2, 118320, Pitch_bend_c, 1, 8448
2, 118440, Pitch_bend_c, 1, 8704
2, 118440, Pitch_bend_c, 1, 8704
2, 118560, Pitch_bend_c, 1, 8832
2, 118560, Pitch_bend_c, 1, 8192
2, 118560, Note_off_c, 1, 61, 95
2, 118560, Pitch_bend_c, 1, 8832
2, 118560, Pitch_bend_c, 1, 8192
2, 118560, Note_off_c, 1, 57, 95
2, 118560, Pitch_bend_c, 1, 8192
2, 118560, Note_on_c, 1, 62, 95
2, 118560, Pitch_bend_c, 1, 8192
2, 118560, Note_on_c, 1, 58, 95
2, 118620, Pitch_bend_c, 1, 8320
2, 118620, Pitch_bend_c, 1, 8320
2, 118680, Pitch_bend_c, 1, 8448
2, 118680, Pitch_bend_c, 1, 8448
2, 118680, Pitch_bend_c, 1, 8448
2, 118680, Pitch_bend_c, 1, 8448
2, 118800, Pitch_bend_c, 1, 8448
2, 118800, Pitch_bend_c, 1, 8192
2, 118800, Note_off_c, 1, 62, 95
2, 118800, Pitch_bend_c, 1, 8448
2, 118800, Pitch_bend_c, 1, 8192
2, 118800, Note_off_c, 1, 58, 95
2, 118800, Note_on_c, 0, 59, 95
2, 118800, Note_on_c, 0, 55, 95
2, 119040, Note_off_c, 0, 59, 95
2, 119040, Note_off_c, 0, 55, 95
2, 119040, Note_on_c, 1, 53, 95
2, 119160, Pitch_bend_c, 1, 8192
2, 119280, Pitch_bend_c, 1, 8192
2, 119280, Pitch_bend_c, 1, 8192
2, 119280, Note_off_c, 1, 53, 95
2, 119280, Pitch_bend_c, 1, 8192
2, 119280, Note_on_c, 1, 53, 95
2, 119340, Pitch_bend_c, 1, 8320
2, 119400, Pitch_bend_c, 1, 8448
2, 119400, Pitch_bend_c, 1, 8448
2, 119520, Pitch_bend_c, 1, 8448
2, 119520, Pitch_bend_c, 1, 8192
2, 119520, Note_off_c, 1, 53, 95
2, 119520, Note_on_c, 0, 59, 95
2, 119520, Note_on_c, 0, 55, 95
2, 120000, Note_off_c, 0, 59, 95
2, 120000, Note_off_c, 0, 55, 95
2, 120000, Note_on_c, 1, 58, 95
2, 120120, Pitch_bend_c, 1, 8192
2, 120240, Pitch_bend_c, 1, 8192
2, 120240, Pitch_bend_c, 1, 8192
2, 120240, Note_off_c, 1, 58, 95
2, 120240, Pitch_bend_c, 1, 8192
2, 120240, Note_on_c, 1, 58, 95
2, 120300, Pitch_bend_c, 1, 8320
2, 120360, Pitch_bend_c, 1, 8448
2, 120360, Pitch_bend_c, 1, 8448
2, 120480, Pitch_bend_c, 1, 8448
2, 120480, Pitch_bend_c, 1, 8192
2, 120480, Note_off_c, 1, 58, 95
2, 120480, Note_on_c, 0, 55, 95
2, 120540, Note_off_c, 0, 55, 95
2, 120720, Note_on_c, 0, 55, 95
2, 121200, Note_off_c, 0, 55, 95
2, 121200, Note_on_c, 0, 55, 95
2, 121440, Note_off_c, 0, 55, 95
2, 121440, Note_on_c, 0, 55, 95
2, 121920, Note_off_c, 0, 55, 95
2, 121920, Note_on_c, 0, 50, 95
2, 121920, Note_on_c, 0, 43, 95
2, 122400, Note_off_c, 0, 50, 95
2, 122400, Note_off_c, 0, 43, 95
2, 122400, Note_on_c, 0, 50, 95
2, 122400, Note_on_c, 0, 43, 95
2, 122880, Note_off_c, 0, 50, 95
2, 122880, Note_off_c, 0, 43, 95
2, 122880, Note_on_c, 0, 66, 95
2, 122880, Note_on_c, 0, 62, 95
2, 122880, Note_on_c, 0, 57, 95
2, 122880, Note_on_c, 0, 50, 95
2, 123360, Note_off_c, 0, 66, 95
2, 123360, Note_off_c, 0, 62, 95
2, 123360, Note_off_c, 0, 57, 95
2, 123360, Note_off_c, 0, 50, 95
2, 123360, Note_on_c, 1, 66, 95
2, 123360, Note_on_c, 1, 62, 95
2, 123360, Note_on_c, 1, 57, 95
2, 123360, Note_on_c, 1, 50, 95
2, 123520, Pitch_bend_c, 1, 8192
2, 123520, Pitch_bend_c, 1, 8192
2, 123520, Pitch_bend_c, 1, 8192
2, 123520, Pitch_bend_c, 1, 8192
2, 123680, Pitch_bend_c, 1, 8320
2, 123680, Pitch_bend_c, 1, 8320
2, 123680, Pitch_bend_c, 1, 8320
2, 123680, Pitch_bend_c, 1, 8320
2, 123840, Pitch_bend_c, 1, 8192
2, 123840, Pitch_bend_c, 1, 8192
2, 123840, Pitch_bend_c, 1, 8192
2, 123840, Pitch_bend_c, 1, 8192
2, 124000, Pitch_bend_c, 1, 8320
2, 124000, Pitch_bend_c, 1, 8320
2, 124000, Pitch_bend_c, 1, 8320
2, 124000, Pitch_bend_c, 1, 8320
2, 124160, Pitch_bend_c, 1, 8192
2, 124160, Pitch_bend_c, 1, 8192
2, 124160, Pitch_bend_c, 1, 8192
2, 124160, Pitch_bend_c, 1, 8192
2, 124320, Pitch_bend_c, 1, 8320
2, 124320, Pitch_bend_c, 1, 8192
2, 124320, Note_off_c, 1, 66, 95
2, 124320, Pitch_bend_c, 1, 8320
2, 124320, Pitch_bend_c, 1, 8192
2, 124320, Note_off_c, 1, 62, 95
2, 124320, Pitch_bend_c, 1, 8320
2, 124320, Pitch_bend_c, 1, 8192
2, 124320, Note_off_c, 1, 57, 95
2, 124320, Pitch_bend_c, 1, 8320
2, 124320, Pitch_bend_c, 1, 8192
2, 124320, Note_off_c, 1, 50, 95
2, 124320, Note_on_c, 1, 66, 95
2, 124320, Note_on_c, 1, 62, 95
2, 124320, Note_on_c, 1, 57, 95
2, 124320, Note_on_c, 1, 50, 95
2, 124480, Pitch_bend_c, 1, 8192
2, 124480, Pitch_bend_c, 1, 8192
2, 124480, Pitch_bend_c, 1, 8192
2, 124480, Pitch_bend_c, 1, 8192
2, 124640, Pitch_bend_c, 1, 8320
2, 124640, Pitch_bend_c, 1, 8320
2, 124640, Pitch_bend_c, 1, 8320
2, 124640, Pitch_bend_c, 1, 8320
2, 124800, Pitch_bend_c, 1, 8192
2, 124800, Pitch_bend_c, 1, 8192
2, 124800, Pitch_bend_c, 1, 8192
2, 124800, Pitch_bend_c, 1, 8192
2, 124960, Pitch_bend_c, 1, 8320
2, 124960, Pitch_bend_c, 1, 8320
2, 124960, Pitch_bend_c, 1, 8320
2, 124960, Pitch_bend_c, 1, 8320
2, 125120, Pitch_bend_c, 1, 8192
2, 125120, Pitch_bend_c, 1, 8192
2, 125120, Pitch_bend_c, 1, 8192
2, 125120, Pitch_bend_c, 1, 8192
2, 125280, Pitch_bend_c, 1, 8320
2, 125280, Pitch_bend_c, 1, 8192
2, 125280, Note_off_c, 1, 66, 95
2, 125280, Pitch_bend_c, 1, 8320
2, 125280, Pitch_bend_c, 1, 8192
2, 125280, Note_off_c, 1, 62, 95
2, 125280, Pitch_bend_c, 1, 8320
2, 125280, Pitch_bend_c, 1, 8192
2, 125280, Note_off_c, 1, 57, 95
2, 125280, Pitch_bend_c, 1, 8320
2, 125280, Pitch_bend_c, 1, 8192
2, 125280, Note_off_c, 1, 50, 95
2, 125280, Note_on_c, 0, 66, 95
2, 125280, Note_on_c, 0, 62, 95
2, 125280, Note_on_c, 0, 57, 95
2, 125280, Note_on_c, 0, 50, 95
2, 125760, Note_off_c, 0, 66, 95
2, 125760, Note_off_c, 0, 62, 95
2, 125760, Note_off_c, 0, 57, 95
2, 125760, Note_off_c, 0, 50, 95
2, 125760, Note_on_c, 0, 66, 95
2, 125760, Note_on_c, 1, 62, 95
2, 125760, Note_on_c, 1, 57, 95
2, 125760, Note_on_c, 1, 50, 95
2, 125880, Pitch_bend_c, 1, 6784
2, 125880, Pitch_bend_c, 1, 6784
2, 125880, Pitch_bend_c, 1, 6784
2, 126000, Note_off_c, 0, 66, 95
2, 126000, Pitch_bend_c, 1, 5376
2, 126000, Pitch_bend_c, 1, 8192
2, 126000, Note_off_c, 1, 62, 95
2, 126000, Pitch_bend_c, 1, 5376
2, 126000, Pitch_bend_c, 1, 8192
2, 126000, Note_off_c, 1, 57, 95
2, 126000, Pitch_bend_c, 1, 5376
2, 126000, Pitch_bend_c, 1, 8192
2, 126000, Note_off_c, 1, 50, 95
2, 126000, Note_on_c, 0, 58, 95
2, 126000, Note_on_c, 0, 53, 95
2, 126000, Note_on_c, 0, 46, 95
2, 126240, Note_off_c, 0, 58, 95
2, 126240, Note_off_c, 0, 53, 95
2, 126240, Note_off_c, 0, 46, 95
2, 126240, Note_on_c, 0, 55, 95
2, 126240, Note_on_c, 0, 50, 95
2, 126240, Note_on_c, 0, 43, 95
2, 126720, Note_off_c, 0, 55, 95
2, 126720, Note_off_c, 0, 50, 95
2, 126720, Note_off_c, 0, 43, 95
2, 126720, Note_on_c, 0, 60, 95
2, 126720, Note_on_c, 0, 55, 95
2, 126720, Note_on_c, 0, 48, 95
2, 127200, Note_off_c, 0, 60, 95
2, 127200, Note_off_c, 0, 55, 95
2, 127200, Note_off_c, 0, 48, 95
2, 127200, Note_on_c, 1, 60, 95
2, 127200, Note_on_c, 1, 55, 95
2, 127200, Note_on_c, 1, 48, 95
2, 127360, Pitch_bend_c, 1, 8192
2, 127360, Pitch_bend_c, 1, 8192
2, 127360, Pitch_bend_c, 1, 8192
2, 127520, Pitch_bend_c, 1, 8320
2, 127520, Pitch_bend_c, 1, 8320
2, 127520, Pitch_bend_c, 1, 8320
2, 127680, Pitch_bend_c, 1, 8192
2, 127680, Pitch_bend_c, 1, 8192
2, 127680, Pitch_bend_c, 1, 8192
2, 127840, Pitch_bend_c, 1, 8320
2, 127840, Pitch_bend_c, 1, 8320
2, 127840, Pitch_bend_c, 1, 8320
2, 128000, Pitch_bend_c, 1, 8192
2, 128000, Pitch_bend_c, 1, 8192
2, 128000, Pitch_bend_c, 1, 8192
2, 128160, Pitch_bend_c, 1, 8320
2, 128160, Pitch_bend_c, 1, 8192
2, 128160, Note_off_c, 1, 60, 95
2, 128160, Pitch_bend_c, 1, 8320
2, 128160, Pitch_bend_c, 1, 8192
2, 128160, Note_off_c, 1, 55, 95
2, 128160, Pitch_bend_c, 1, 8320
2, 128160, Pitch_bend_c, 1, 8192
2, 128160, Note_off_c, 1, 48, 95
2, 128160, Pitch_bend_c, 1, 9600
2, 128160, Note_on_c, 1, 60, 95
2, 128160, Pitch_bend_c, 1, 9600
2, 128160, Note_on_c, 1, 55, 95
2, 128160, Pitch_bend_c, 1, 9600
2, 128160, Note_on_c, 1, 48, 95
2, 128320, Pitch_bend_c, 1, 9600
2, 128320, Pitch_bend_c, 1, 9600
2, 128320, Pitch_bend_c, 1, 9600
2, 128349, Pitch_bend_c, 1, 9472
2, 128349, Pitch_bend_c, 1, 9472
2, 128349, Pitch_bend_c, 1, 9472
2, 128378, Pitch_bend_c, 1, 9344
2, 128378, Pitch_bend_c, 1, 9344
2, 128378, Pitch_bend_c, 1, 9344
2, 128407, Pitch_bend_c, 1, 9216
2, 128407, Pitch_bend_c, 1, 9216
2, 128407, Pitch_bend_c, 1, 9216
2, 128436, Pitch_bend_c, 1, 9088
2, 128436, Pitch_bend_c, 1, 9088
2, 128436, Pitch_bend_c, 1, 9088
2, 128465, Pitch_bend_c, 1, 8960
2, 128465, Pitch_bend_c, 1, 8960
2, 128465, Pitch_bend_c, 1, 8960
2, 128494, Pitch_bend_c, 1, 8832
2, 128494, Pitch_bend_c, 1, 8832
2, 128494, Pitch_bend_c, 1, 8832
2, 128523, Pitch_bend_c, 1, 8704
2, 128523, Pitch_bend_c, 1, 8704
2, 128523, Pitch_bend_c, 1, 8704
2, 128552, Pitch_bend_c, 1, 8576
2, 128552, Pitch_bend_c, 1, 8576
2, 128552, Pitch_bend_c, 1, 8576
2, 128581, Pitch_bend_c, 1, 8448
2, 128581, Pitch_bend_c, 1, 8448
2, 128581, Pitch_bend_c, 1, 8448
2, 128610, Pitch_bend_c, 1, 8320
2, 128610, Pitch_bend_c, 1, 8320
2, 128610, Pitch_bend_c, 1, 8320
2, 128639, Pitch_bend_c, 1, 8192
2, 128639, Pitch_bend_c, 1, 8192
2, 128639, Pitch_bend_c, 1, 8192
2, 128640, Pitch_bend_c, 1, 8192
2, 128640, Pitch_bend_c, 1, 8192
2, 128640, Note_off_c, 1, 60, 95
2, 128640, Pitch_bend_c, 1, 8192
2, 128640, Pitch_bend_c, 1, 8192
2, 128640, Note_off_c, 1, 55, 95
2, 128640, Pitch_bend_c, 1, 8192
2, 128640, Pitch_bend_c, 1, 8192
2, 128640, Note_off_c, 1, 48, 95
2, 128640, Note_on_c, 0, 58, 95
2, 128640, Note_on_c, 0, 53, 95
2, 128640, Note_on_c, 0, 46, 95
2, 129120, Note_off_c, 0, 58, 95
2, 129120, Note_off_c, 0, 53, 95
2, 129120, Note_off_c, 0, 46, 95
2, 129120, Note_on_c, 0, 55, 95
2, 129120, Note_on_c, 0, 50, 95
2, 129120, Note_on_c, 0, 43, 95
2, 129600, Note_off_c, 0, 55, 95
2, 129600, Note_off_c, 0, 50, 95
2, 129600, Note_off_c, 0, 43, 95
2, 129600, Note_on_c, 1, 58, 95
2, 129600, Note_on_c, 1, 53, 95
2, 129600, Note_on_c, 1, 46, 95
2, 129720, Pitch_bend_c, 1, 8192
2, 129720, Pitch_bend_c, 1, 8192
2, 129720, Pitch_bend_c, 1, 8192
2, 129840, Pitch_bend_c, 1, 8192
2, 129840, Pitch_bend_c, 1, 8192
2, 129840, Note_off_c, 1, 58, 95
2, 129840, Pitch_bend_c, 1, 8192
2, 129840, Pitch_bend_c, 1, 8192
2, 129840, Note_off_c, 1, 53, 95
2, 129840, Pitch_bend_c, 1, 8192
2, 129840, Pitch_bend_c, 1, 8192
2, 129840, Note_off_c, 1, 46, 95
2, 129840, Pitch_bend_c, 1, 8192
2, 129840, Note_on_c, 1, 58, 95
2, 129840, Pitch_bend_c, 1, 8192
2, 129840, Note_on_c, 1, 53, 95
2, 129840, Pitch_bend_c, 1, 8192
2, 129840, Note_on_c, 1, 46, 95
2, 129960, Pitch_bend_c, 1, 8320
2, 130080, Pitch_bend_c, 1, 8448
2, 130080, Pitch_bend_c, 1, 8448
2, 130080, Pitch_bend_c, 1, 8320
2, 130080, Pitch_bend_c, 1, 8320
2, 130320, Pitch_bend_c, 1, 8448
2, 130320, Pitch_bend_c, 1, 8192
2, 130320, Note_off_c, 1, 58, 95
2, 130320, Pitch_bend_c, 1, 8448
2, 130320, Pitch_bend_c, 1, 8448
2, 130320, Pitch_bend_c, 1, 8192
2, 130320, Note_off_c, 1, 53, 95
2, 130320, Pitch_bend_c, 1, 8448
2, 130320, Pitch_bend_c, 1, 8448
2, 130320, Pitch_bend_c, 1, 8192
2, 130320, Note_off_c, 1, 46, 95
2, 130320, Pitch_bend_c, 1, 8192
2, 130320, Note_on_c, 1, 58, 95
2, 130320, Pitch_bend_c, 1, 8192
2, 130320, Note_on_c, 1, 53, 95
2, 130320, Pitch_bend_c, 1, 8192
2, 130320, Note_on_c, 1, 46, 95
2, 130380, Pitch_bend_c, 1, 8320
2, 130380, Pitch_bend_c, 1, 8320
2, 130380, Pitch_bend_c, 1, 8320
2, 130440, Pitch_bend_c, 1, 8448
2, 130440, Pitch_bend_c, 1, 8448
2, 130440, Pitch_bend_c, 1, 8448
2, 130440, Pitch_bend_c, 1, 8448
2, 130440, Pitch_bend_c, 1, 8448
2, 130440, Pitch_bend_c, 1, 8448
2, 130560, Pitch_bend_c, 1, 8448
2, 130560, Pitch_bend_c, 1, 8192
2, 130560, Note_off_c, 1, 58, 95
2, 130560, Pitch_bend_c, 1, 8448
2, 130560, Pitch_bend_c, 1, 8192
2, 130560, Note_off_c, 1, 53, 95
2, 130560, Pitch_bend_c, 1, 8448
2, 130560, Pitch_bend_c, 1, 8192
2, 130560, Note_off_c, 1, 46, 95
2, 130560, Note_on_c, 0, 55, 95
2, 130560, Note_on_c, 0, 50, 95
2, 130560, Note_on_c, 0, 43, 95
2, 131040, Note_off_c, 0, 55, 95
2, 131040, Note_off_c, 0, 50, 95
2, 131040, Note_off_c, 0, 43, 95
2, 131040, Note_on_c, 0, 55, 95
2, 131040, Note_on_c, 0, 50, 95
2, 131520, Note_off_c, 0, 55, 95
2, 131520, Note_off_c, 0, 50, 95
2, 131520, Note_on_c, 1, 61, 95
2, 131520, Note_on_c, 1, 57, 95
2, 131640, Pitch_bend_c, 1, 8320
2, 131640, Pitch_bend_c, 1, 8320
2, 131760, Pitch_bend_c, 1, 8448
2, 131760, Pitch_bend_c, 1, 8448
2, 131880, Pitch_bend_c, 1, 8704
2, 131880, Pitch_bend_c, 1, 8704
2, 132000, Pitch_bend_c, 1, 8832
2, 132000, Pitch_bend_c, 1, 8192
2, 132000, Note_off_c, 1, 61, 95
2, 132000, Pitch_bend_c, 1, 8832
2, 132000, Pitch_bend_c, 1, 8192
2, 132000, Note_off_c, 1, 57, 95
2, 132000, Pitch_bend_c, 1, 8192
2, 132000, Note_on_c, 1, 62, 95
2, 132000, Pitch_bend_c, 1, 8192
2, 132000, Note_on_c, 1, 58, 95
2, 132120, Pitch_bend_c, 1, 8320
2, 132120, Pitch_bend_c, 1, 8320
2, 132240, Pitch_bend_c, 1, 8448
2, 132240, Pitch_bend_c, 1, 8448
2, 132240, Pitch_bend_c, 1, 8192
2, 132240, Note_off_c, 1, 62, 95
2, 132240, Pitch_bend_c, 1, 8448
2, 132240, Pitch_bend_c, 1, 8448
2, 132240, Pitch_bend_c, 1, 8192
2, 132240, Note_off_c, 1, 58, 95
2, 132240, Note_on_c, 0, 59, 95
2, 132240, Note_on_c, 0, 55, 95
2, 132480, Note_off_c, 0, 59, 95
2, 132480, Note_off_c, 0, 55, 95
2, 132480, Note_on_c, 1, 53, 95
2, 132600, Pitch_bend_c, 1, 8192
2, 132720, Pitch_bend_c, 1, 8192
2, 132720, Pitch_bend_c, 1, 8192
2, 132720, Note_off_c, 1, 53, 95
2, 132720, Pitch_bend_c, 1, 8192
2, 132720, Note_on_c, 1, 53, 95
2, 132780, Pitch_bend_c, 1, 8320
2, 132840, Pitch_bend_c, 1, 8448
2, 132840, Pitch_bend_c, 1, 8448
2, 132960, Pitch_bend_c, 1, 8448
2, 132960, Pitch_bend_c, 1, 8192
2, 132960, Note_off_c, 1, 53, 95
2, 132960, Note_on_c, 0, 59, 95
2, 132960, Note_on_c, 0, 55, 95
2, 133440, Note_off_c, 0, 59, 95
2, 133440, Note_off_c, 0, 55, 95
2, 133440, Note_on_c, 1, 61, 95
2, 133440, Note_on_c, 1, 57, 95
2, 133560, Pitch_bend_c, 1, 8448
2, 133560, Pitch_bend_c, 1, 8448
2, 133680, Pitch_bend_c, 1, 8832
2, 133680, Pitch_bend_c, 1, 8192
2, 133680, Note_off_c, 1, 61, 95
2, 133680, Pitch_bend_c, 1, 8832
2, 133680, Pitch_bend_c, 1, 8192
2, 133680, Note_off_c, 1, 57, 95
2, 133680, Note_on_c, 0, 62, 95
2, 133680, Note_on_c, 0, 58, 95
2, 133920, Note_off_c, 0, 62, 95
2, 133920, Note_off_c, 0, 58, 95
2, 133920, Note_on_c, 0, 59, 95
2, 133920, Note_on_c, 0, 55, 95
2, 134160, Note_off_c, 0, 59, 95
2, 134160, Note_off_c, 0, 55, 95
2, 134160, Note_on_c, 0, 59, 95
2, 134160, Note_on_c, 0, 55, 95
2, 134640, Note_off_c, 0, 59, 95
2, 134640, Note_off_c, 0, 55, 95
2, 134640, Note_on_c, 0, 59, 95
2, 134640, Note_on_c, 0, 55, 95
2, 134880, Note_off_c, 0, 59, 95
2, 134880, Note_off_c, 0, 55, 95
2, 134880, Note_on_c, 0, 59, 95
2, 134880, Note_on_c, 0, 55, 95
2, 135360, Note_off_c, 0, 59, 95
2, 135360, Note_off_c, 0, 55, 95
2, 135360, Note_on_c, 1, 61, 95
2, 135360, Note_on_c, 1, 57, 95
2, 135480, Pitch_bend_c, 1, 8320
2, 135480, Pitch_bend_c, 1, 8320
2, 135600, Pitch_bend_c, 1, 8448
2, 135600, Pitch_bend_c, 1, 8448
2, 135720, Pitch_bend_c, 1, 8704
2, 135720, Pitch_bend_c, 1, 8704
2, 135840, Pitch_bend_c, 1, 8832
2, 135840, Pitch_bend_c, 1, 8192
2, 135840, Note_off_c, 1, 61, 95
2, 135840, Pitch_bend_c, 1, 8832
2, 135840, Pitch_bend_c, 1, 8192
2, 135840, Note_off_c, 1, 57, 95
2, 135840, Pitch_bend_c, 1, 8192
2, 135840, Note_on_c, 1, 62, 95
2, 135840, Pitch_bend_c, 1, 8192
2, 135840, Note_on_c, 1, 58, 95
2, 135960, Pitch_bend_c, 1, 8320
2, 135960, Pitch_bend_c, 1, 8320
2, 136080, Pitch_bend_c, 1, 8448
2, 136080, Pitch_bend_c, 1, 8448
2, 136080, Pitch_bend_c, 1, 8192
2, 136080, Note_off_c, 1, 62, 95
2, 136080, Pitch_bend_c, 1, 8448
2, 136080, Pitch_bend_c, 1, 8448
2, 136080, Pitch_bend_c, 1, 8192
2, 136080, Note_off_c, 1, 58, 95
2, 136080, Note_on_c, 0, 59, 95
2, 136080, Note_on_c, 0, 55, 95
2, 136320, Note_off_c, 0, 59, 95
2, 136320, Note_off_c, 0, 55, 95
2, 136320, Note_on_c, 1, 53, 95
2, 136440, Pitch_bend_c, 1, 8192
2, 136560, Pitch_bend_c, 1, 8192
2, 136560, Pitch_bend_c, 1, 8192
2, 136560, Note_off_c, 1, 53, 95
2, 136560, Pitch_bend_c, 1, 8192
2, 136560, Note_on_c, 1, 53, 95
2, 136680, Pitch_bend_c, 1, 8320
2, 136800, Pitch_bend_c, 1, 8448
2, 136800, Pitch_bend_c, 1, 8448
2, 136800, Pitch_bend_c, 1, 8192
2, 136800, Note_off_c, 1, 53, 95
2, 136800, Note_on_c, 0, 59, 95
2, 136800, Note_on_c, 0, 55, 95
2, 137280, Note_off_c, 0, 59, 95
2, 137280, Note_off_c, 0, 55, 95
2, 137280, Note_on_c, 1, 61, 95
2, 137280, Note_on_c, 1, 57, 95
2, 137400, Pitch_bend_c, 1, 8448
2, 137400, Pitch_bend_c, 1, 8448
2, 137520, Pitch_bend_c, 1, 8832
2, 137520, Pitch_bend_c, 1, 8192
2, 137520, Note_off_c, 1, 61, 95
2, 137520, Pitch_bend_c, 1, 8832
2, 137520, Pitch_bend_c, 1, 8192
2, 137520, Note_off_c, 1, 57, 95
2, 137520, Pitch_bend_c, 1, 8192
2, 137520, Note_on_c, 1, 62, 95
2, 137520, Pitch_bend_c, 1, 8192
2, 137520, Note_on_c, 1, 58, 95
2, 137640, Pitch_bend_c, 1, 8320
2, 137640, Pitch_bend_c, 1, 8320
2, 137760, Pitch_bend_c, 1, 8448
2, 137760, Pitch_bend_c, 1, 8448
2, 137760, Pitch_bend_c, 1, 8192
2, 137760, Note_off_c, 1, 62, 95
2, 137760, Pitch_bend_c, 1, 8448
2, 137760, Pitch_bend_c, 1, 8448
2, 137760, Pitch_bend_c, 1, 8192
2, 137760, Note_off_c, 1, 58, 95
2, 137760, Note_on_c, 0, 59, 95
2, 137760, Note_on_c, 0, 55, 95
2, 138000, Note_off_c, 0, 59, 95
2, 138000, Note_off_c, 0, 55, 95
2, 138000, Note_on_c, 0, 59, 95
2, 138000, Note_on_c, 0, 55, 95
2, 138480, Note_off_c, 0, 59, 95
2, 138480, Note_off_c, 0, 55, 95
2, 138480, Note_on_c, 0, 59, 95
2, 138480, Note_on_c, 0, 55, 95
2, 138720, Note_off_c, 0, 59, 95
2, 138720, Note_off_c, 0, 55, 95
2, 138720, Note_on_c, 0, 59, 95
2, 138720, Note_on_c, 0, 55, 95
2, 139200, Note_off_c, 0, 59, 95
2, 139200, Note_off_c, 0, 55, 95
2, 139200, Note_on_c, 1, 61, 95
2, 139200, Note_on_c, 1, 57, 95
2, 139320, Pitch_bend_c, 1, 8320
2, 139320, Pitch_bend_c, 1, 8320
2, 139440, Pitch_bend_c, 1, 8448
2, 139440, Pitch_bend_c, 1, 8448
2, 139560, Pitch_bend_c, 1, 8704
2, 139560, Pitch_bend_c, 1, 8704
2, 139680, Pitch_bend_c, 1, 8832
2, 139680, Pitch_bend_c, 1, 8192
2, 139680, Note_off_c, 1, 61, 95
2, 139680, Pitch_bend_c, 1, 8832
2, 139680, Pitch_bend_c, 1, 8192
2, 139680, Note_off_c, 1, 57, 95
2, 139680, Pitch_bend_c, 1, 8192
2, 139680, Note_on_c, 1, 62, 95
2, 139680, Pitch_bend_c, 1, 8192
2, 139680, Note_on_c, 1, 58, 95
2, 139800, Pitch_bend_c, 1, 8320
2, 139800, Pitch_bend_c, 1, 8320
2, 139920, Pitch_bend_c, 1, 8448
2, 139920, Pitch_bend_c, 1, 8448
2, 139920, Pitch_bend_c, 1, 8192
2, 139920, Note_off_c, 1, 62, 95
2, 139920, Pitch_bend_c, 1, 8448
2, 139920, Pitch_bend_c, 1, 8448
2, 139920, Pitch_bend_c, 1, 8192
2, 139920, Note_off_c, 1, 58, 95
2, 139920, Note_on_c, 0, 59, 95
2, 139920, Note_on_c, 0, 55, 95
2, 140160, Note_off_c, 0, 59, 95
2, 140160, Note_off_c, 0, 55, 95
2, 140160, Note_on_c, 1, 62, 95
2, 140160, Note_on_c, 1, 58, 95
2, 140160, Note_on_c, 1, 53, 95
2, 140280, Pitch_bend_c, 1, 8192
2, 140280, Pitch_bend_c, 1, 8192
2, 140280, Pitch_bend_c, 1, 8192
2, 140400, Pitch_bend_c, 1, 8192
2, 140400, Pitch_bend_c, 1, 8192
2, 140400, Note_off_c, 1, 62, 95
2, 140400, Pitch_bend_c, 1, 8192
2, 140400, Pitch_bend_c, 1, 8192
2, 140400, Note_off_c, 1, 58, 95
2, 140400, Pitch_bend_c, 1, 8192
2, 140400, Pitch_bend_c, 1, 8192
2, 140400, Note_off_c, 1, 53, 95
2, 140400, Pitch_bend_c, 1, 8192
2, 140400, Note_on_c, 1, 62, 95
2, 140400, Pitch_bend_c, 1, 8192
2, 140400, Note_on_c, 1, 58, 95
2, 140400, Pitch_bend_c, 1, 8192
2, 140400, Note_on_c, 1, 53, 95
2, 140520, Pitch_bend_c, 1, 8320
2, 140520, Pitch_bend_c, 1, 8320
2, 140520, Pitch_bend_c, 1, 8320
2, 140640, Pitch_bend_c, 1, 8448
2, 140640, Pitch_bend_c, 1, 8448
2, 140640, Pitch_bend_c, 1, 8192
2, 140640, Note_off_c, 1, 62, 95
2, 140640, Pitch_bend_c, 1, 8448
2, 140640, Pitch_bend_c, 1, 8448
2, 140640, Pitch_bend_c, 1, 8192
2, 140640, Note_off_c, 1, 58, 95
2, 140640, Pitch_bend_c, 1, 8448
2, 140640, Pitch_bend_c, 1, 8448
2, 140640, Pitch_bend_c, 1, 8192
2, 140640, Note_off_c, 1, 53, 95
2, 140640, Note_on_c, 0, 59, 95
2, 140640, Note_on_c, 0, 55, 95
2, 140640, Note_on_c, 0, 50, 95
2, 141120, Note_off_c, 0, 59, 95
2, 141120, Note_off_c, 0, 55, 95
2, 141120, Note_off_c, 0, 50, 95
2, 141120, Note_on_c, 1, 61, 95
2, 141120, Note_on_c, 1, 57, 95
2, 141240, Pitch_bend_c, 1, 8448
2, 141240, Pitch_bend_c, 1, 8448
2, 141360, Pitch_bend_c, 1, 8832
2, 141360, Pitch_bend_c, 1, 8192
2, 141360, Note_off_c, 1, 61, 95
2, 141360, Pitch_bend_c, 1, 8832
2, 141360, Pitch_bend_c, 1, 8192
2, 141360, Note_off_c, 1, 57, 95
2, 141360, Pitch_bend_c, 1, 8192
2, 141360, Note_on_c, 1, 62, 95
2, 141360, Pitch_bend_c, 1, 8192
2, 141360, Note_on_c, 1, 58, 95
2, 141480, Pitch_bend_c, 1, 8320
2, 141480, Pitch_bend_c, 1, 8320
2, 141600, Pitch_bend_c, 1, 8448
2, 141600, Pitch_bend_c, 1, 8448
2, 141600, Pitch_bend_c, 1, 8192
2, 141600, Note_off_c, 1, 62, 95
2, 141600, Pitch_bend_c, 1, 8448
2, 141600, Pitch_bend_c, 1, 8448
2, 141600, Pitch_bend_c, 1, 8192
2, 141600, Note_off_c, 1, 58, 95
2, 141600, Note_on_c, 0, 55, 95
2, 141840, Note_off_c, 0, 55, 95
2, 141840, Note_on_c, 0, 59, 95
2, 141840, Note_on_c, 0, 55, 95
2, 144000, Note_off_c, 0, 59, 95
2, 144000, Note_off_c, 0, 55, 95
2, 144000, Note_on_c, 0, 67, 95
2, 144000, Note_on_c, 0, 64, 95
2, 144000, Note_on_c, 0, 60, 95
2, 144000, Note_on_c, 0, 55, 95
2, 144000, Note_on_c, 0, 48, 95
2, 144480, Note_off_c, 0, 67, 95
2, 144480, Note_off_c, 0, 64, 95
2, 144480, Note_off_c, 0, 60, 95
2, 144480, Note_off_c, 0, 55, 95
2, 144480, Note_off_c, 0, 48, 95
2, 144480, Note_on_c, 0, 67, 95
2, 144480, Note_on_c, 0, 64, 95
2, 144480, Note_on_c, 0, 60, 95
2, 144480, Note_on_c, 0, 55, 95
2, 144480, Note_on_c, 0, 48, 95
2, 145440, Note_off_c, 0, 67, 95
2, 145440, Note_off_c, 0, 64, 95
2, 145440, Note_off_c, 0, 60, 95
2, 145440, Note_off_c, 0, 55, 95
2, 145440, Note_off_c, 0, 48, 95
2, 145440, Note_on_c, 0, 67, 95
2, 145440, Note_on_c, 0, 64, 95
2, 145440, Note_on_c, 0, 60, 95
2, 145440, Note_on_c, 0, 55, 95
2, 145440, Note_on_c, 0, 48, 95
2, 146400, Note_off_c, 0, 67, 95
2, 146400, Note_off_c, 0, 64, 95
2, 146400, Note_off_c, 0, 60, 95
2, 146400, Note_off_c, 0, 55, 95
2, 146400, Note_off_c, 0, 48, 95
2, 146400, Note_on_c, 0, 67, 95
2, 146400, Note_on_c, 0, 64, 95
2, 146400, Note_on_c, 0, 60, 95
2, 146400, Note_on_c, 0, 55, 95
2, 146400, Note_on_c, 0, 48, 95
2, 147360, Note_off_c, 0, 67, 95
2, 147360, Note_off_c, 0, 64, 95
2, 147360, Note_off_c, 0, 60, 95
2, 147360, Note_off_c, 0, 55, 95
2, 147360, Note_off_c, 0, 48, 95
2, 147360, Note_on_c, 0, 67, 95
2, 147360, Note_on_c, 0, 64, 95
2, 147360, Note_on_c, 0, 60, 95
2, 147360, Note_on_c, 0, 55, 95
2, 147360, Note_on_c, 0, 48, 95
2, 147600, Note_off_c, 0, 67, 95
2, 147600, Note_off_c, 0, 64, 95
2, 147600, Note_off_c, 0, 60, 95
2, 147600, Note_off_c, 0, 55, 95
2, 147600, Note_off_c, 0, 48, 95
2, 147600, Note_on_c, 0, 67, 95
2, 147600, Note_on_c, 0, 64, 95
2, 147600, Note_on_c, 0, 60, 95
2, 147600, Note_on_c, 0, 55, 95
2, 147600, Note_on_c, 0, 48, 95
2, 147840, Note_off_c, 0, 67, 95
2, 147840, Note_off_c, 0, 64, 95
2, 147840, Note_off_c, 0, 60, 95
2, 147840, Note_off_c, 0, 55, 95
2, 147840, Note_off_c, 0, 48, 95
2, 147840, Note_on_c, 0, 67, 95
2, 147840, Note_on_c, 0, 64, 95
2, 147840, Note_on_c, 0, 60, 95
2, 147840, Note_on_c, 0, 55, 95
2, 147840, Note_on_c, 0, 48, 95
2, 148320, Note_off_c, 0, 67, 95
2, 148320, Note_off_c, 0, 64, 95
2, 148320, Note_off_c, 0, 60, 95
2, 148320, Note_off_c, 0, 55, 95
2, 148320, Note_off_c, 0, 48, 95
2, 148320, Note_on_c, 0, 67, 95
2, 148320, Note_on_c, 0, 64, 95
2, 148320, Note_on_c, 0, 60, 95
2, 148320, Note_on_c, 0, 55, 95
2, 148320, Note_on_c, 0, 48, 95
2, 149280, Note_off_c, 0, 67, 95
2, 149280, Note_off_c, 0, 64, 95
2, 149280, Note_off_c, 0, 60, 95
2, 149280, Note_off_c, 0, 55, 95
2, 149280, Note_off_c, 0, 48, 95
2, 149280, Note_on_c, 0, 67, 95
2, 149280, Note_on_c, 0, 64, 95
2, 149280, Note_on_c, 0, 60, 95
2, 149280, Note_on_c, 0, 55, 95
2, 149280, Note_on_c, 0, 48, 95
2, 149760, Note_off_c, 0, 67, 95
2, 149760, Note_off_c, 0, 64, 95
2, 149760, Note_off_c, 0, 60, 95
2, 149760, Note_off_c, 0, 55, 95
2, 149760, Note_off_c, 0, 48, 95
2, 149760, Note_on_c, 0, 67, 95
2, 149760, Note_on_c, 0, 64, 95
2, 149760, Note_on_c, 0, 60, 95
2, 149760, Note_on_c, 0, 55, 95
2, 149760, Note_on_c, 0, 48, 95
2, 150240, Note_off_c, 0, 67, 95
2, 150240, Note_off_c, 0, 64, 95
2, 150240, Note_off_c, 0, 60, 95
2, 150240, Note_off_c, 0, 55, 95
2, 150240, Note_off_c, 0, 48, 95
2, 150240, Note_on_c, 0, 67, 95
2, 150240, Note_on_c, 0, 64, 95
2, 150240, Note_on_c, 0, 60, 95
2, 150240, Note_on_c, 0, 55, 95
2, 150240, Note_on_c, 0, 48, 95
2, 150480, Note_off_c, 0, 67, 95
2, 150480, Note_off_c, 0, 64, 95
2, 150480, Note_off_c, 0, 60, 95
2, 150480, Note_off_c, 0, 55, 95
2, 150480, Note_off_c, 0, 48, 95
2, 150480, Note_on_c, 0, 67, 95
2, 150480, Note_on_c, 0, 64, 95
2, 150480, Note_on_c, 0, 60, 95
2, 150480, Note_on_c, 0, 55, 95
2, 150480, Note_on_c, 0, 48, 95
2, 150720, Note_off_c, 0, 67, 95
2, 150720, Note_off_c, 0, 64, 95
2, 150720, Note_off_c, 0, 60, 95
2, 150720, Note_off_c, 0, 55, 95
2, 150720, Note_off_c, 0, 48, 95
2, 150720, Note_on_c, 0, 67, 95
2, 150720, Note_on_c, 0, 64, 95
2, 150720, Note_on_c, 0, 60, 95
2, 150720, Note_on_c, 0, 55, 95
2, 150720, Note_on_c, 0, 48, 95
2, 151200, Note_off_c, 0, 67, 95
2, 151200, Note_off_c, 0, 64, 95
2, 151200, Note_off_c, 0, 60, 95
2, 151200, Note_off_c, 0, 55, 95
2, 151200, Note_off_c, 0, 48, 95
2, 151200, Note_on_c, 0, 67, 95
2, 151200, Note_on_c, 0, 64, 95
2, 151200, Note_on_c, 0, 60, 95
2, 151200, Note_on_c, 0, 55, 95
2, 151200, Note_on_c, 0, 48, 95
2, 151680, Note_off_c, 0, 67, 95
2, 151680, Note_off_c, 0, 64, 95
2, 151680, Note_off_c, 0, 60, 95
2, 151680, Note_off_c, 0, 55, 95
2, 151680, Note_off_c, 0, 48, 95
2, 151680, Note_on_c, 0, 62, 95
2, 151680, Note_on_c, 0, 59, 95
2, 151680, Note_on_c, 0, 55, 95
2, 152160, Note_off_c, 0, 62, 95
2, 152160, Note_off_c, 0, 59, 95
2, 152160, Note_off_c, 0, 55, 95
2, 152160, Note_on_c, 0, 55, 95
2, 152400, Note_off_c, 0, 55, 95
2, 152400, Note_on_c, 0, 59, 95
2, 152400, Note_on_c, 0, 55, 95
2, 152640, Note_off_c, 0, 59, 95
2, 152640, Note_off_c, 0, 55, 95
2, 152640, Note_on_c, 1, 61, 95
2, 152640, Note_on_c, 1, 57, 95
2, 152760, Pitch_bend_c, 1, 8448
2, 152760, Pitch_bend_c, 1, 8448
2, 152880, Pitch_bend_c, 1, 8832
2, 152880, Pitch_bend_c, 1, 8192
2, 152880, Note_off_c, 1, 61, 95
2, 152880, Pitch_bend_c, 1, 8832
2, 152880, Pitch_bend_c, 1, 8192
2, 152880, Note_off_c, 1, 57, 95
2, 152880, Pitch_bend_c, 1, 8192
2, 152880, Note_on_c, 1, 62, 95
2, 152880, Pitch_bend_c, 1, 8192
2, 152880, Note_on_c, 1, 58, 95
2, 153120, Pitch_bend_c, 1, 8320
2, 153120, Pitch_bend_c, 1, 8320
2, 153360, Pitch_bend_c, 1, 8448
2, 153360, Pitch_bend_c, 1, 8448
2, 153360, Pitch_bend_c, 1, 8192
2, 153360, Note_off_c, 1, 62, 95
2, 153360, Pitch_bend_c, 1, 8448
2, 153360, Pitch_bend_c, 1, 8448
2, 153360, Pitch_bend_c, 1, 8192
2, 153360, Note_off_c, 1, 58, 95
2, 153360, Note_on_c, 0, 59, 95
2, 153360, Note_on_c, 0, 55, 95
2, 153600, Note_off_c, 0, 59, 95
2, 153600, Note_off_c, 0, 55, 95
2, 153600, Note_on_c, 0, 53, 95
2, 153840, Note_off_c, 0, 53, 95
2, 153840, Note_on_c, 0, 53, 95
2, 154080, Note_off_c, 0, 53, 95
2, 154080, Note_on_c, 0, 59, 95
2, 154080, Note_on_c, 0, 55, 95
2, 154560, Note_off_c, 0, 59, 95
2, 154560, Note_off_c, 0, 55, 95
2, 154560, Note_on_c, 1, 61, 95
2, 154560, Note_on_c, 1, 57, 95
2, 154680, Pitch_bend_c, 1, 8448
2, 154680, Pitch_bend_c, 1, 8448
2, 154800, Pitch_bend_c, 1, 8832
2, 154800, Pitch_bend_c, 1, 8192
2, 154800, Note_off_c, 1, 61, 95
2, 154800, Pitch_bend_c, 1, 8832
2, 154800, Pitch_bend_c, 1, 8192
2, 154800, Note_off_c, 1, 57, 95
2, 154800, Pitch_bend_c, 1, 8192
2, 154800, Note_on_c, 1, 62, 95
2, 154800, Pitch_bend_c, 1, 8192
2, 154800, Note_on_c, 1, 58, 95
2, 154920, Pitch_bend_c, 1, 8320
2, 154920, Pitch_bend_c, 1, 8320
2, 155040, Pitch_bend_c, 1, 8448
2, 155040, Pitch_bend_c, 1, 8448
2, 155040, Pitch_bend_c, 1, 8192
2, 155040, Note_off_c, 1, 62, 95
2, 155040, Pitch_bend_c, 1, 8448
2, 155040, Pitch_bend_c, 1, 8448
2, 155040, Pitch_bend_c, 1, 8192
2, 155040, Note_off_c, 1, 58, 95
2, 155040, Note_on_c, 0, 55, 95
2, 155760, Note_off_c, 0, 55, 95
2, 155760, Note_on_c, 0, 55, 95
2, 156000, Note_off_c, 0, 55, 95
2, 156000, Note_on_c, 0, 55, 95
2, 156000, Note_on_c, 0, 50, 95
2, 156480, Note_off_c, 0, 55, 95
2, 156480, Note_off_c, 0, 50, 95
2, 156480, Note_on_c, 1, 61, 95
2, 156480, Note_on_c, 1, 57, 95
2, 156600, Pitch_bend_c, 1, 8320
2, 156600, Pitch_bend_c, 1, 8320
2, 156720, Pitch_bend_c, 1, 8448
2, 156720, Pitch_bend_c, 1, 8448
2, 156840, Pitch_bend_c, 1, 8704
2, 156840, Pitch_bend_c, 1, 8704
2, 156960, Pitch_bend_c, 1, 8832
2, 156960, Pitch_bend_c, 1, 8192
2, 156960, Note_off_c, 1, 61, 95
2, 156960, Pitch_bend_c, 1, 8832
2, 156960, Pitch_bend_c, 1, 8192
2, 156960, Note_off_c, 1, 57, 95
2, 156960, Note_on_c, 0, 62, 95
2, 156960, Note_on_c, 0, 58, 95
2, 157200, Note_off_c, 0, 62, 95
2, 157200, Note_off_c, 0, 58, 95
2, 157200, Note_on_c, 0, 55, 95
2, 157440, Note_off_c, 0, 55, 95
2, 157440, Note_on_c, 1, 53, 95
2, 157560, Pitch_bend_c, 1, 8192
2, 157680, Pitch_bend_c, 1, 8192
2, 157680, Pitch_bend_c, 1, 8192
2, 157680, Note_off_c, 1, 53, 95
2, 157680, Note_on_c, 0, 53, 95
2, 157920, Note_off_c, 0, 53, 95
2, 157920, Note_on_c, 0, 59, 95
2, 157920, Note_on_c, 0, 55, 95
2, 158400, Note_off_c, 0, 59, 95
2, 158400, Note_off_c, 0, 55, 95
2, 158400, Note_on_c, 1, 61, 95
2, 158400, Note_on_c, 1, 57, 95
2, 158520, Pitch_bend_c, 1, 8448
2, 158520, Pitch_bend_c, 1, 8448
2, 158640, Pitch_bend_c, 1, 8832
2, 158640, Pitch_bend_c, 1, 8192
2, 158640, Note_off_c, 1, 61, 95
2, 158640, Pitch_bend_c, 1, 8832
2, 158640, Pitch_bend_c, 1, 8192
2, 158640, Note_off_c, 1, 57, 95
2, 158640, Note_on_c, 0, 62, 95
2, 158640, Note_on_c, 0, 58, 95
2, 158880, Note_off_c, 0, 62, 95
2, 158880, Note_off_c, 0, 58, 95
2, 158880, Note_on_c, 0, 55, 95
2, 159120, Note_off_c, 0, 55, 95
2, 159120, Note_on_c, 0, 55, 95
2, 159600, Note_off_c, 0, 55, 95
2, 159600, Note_on_c, 0, 55, 95
2, 159840, Note_off_c, 0, 55, 95
2, 159840, Note_on_c, 0, 59, 95
2, 159840, Note_on_c, 0, 55, 95
2, 160320, Note_off_c, 0, 59, 95
2, 160320, Note_off_c, 0, 55, 95
2, 160320, Note_on_c, 1, 61, 95
2, 160320, Note_on_c, 1, 57, 95
2, 160440, Pitch_bend_c, 1, 8448
2, 160440, Pitch_bend_c, 1, 8448
2, 160560, Pitch_bend_c, 1, 8832
2, 160560, Pitch_bend_c, 1, 8192
2, 160560, Note_off_c, 1, 61, 95
2, 160560, Pitch_bend_c, 1, 8832
2, 160560, Pitch_bend_c, 1, 8192
2, 160560, Note_off_c, 1, 57, 95
2, 160560, Note_on_c, 0, 62, 95
2, 160560, Note_on_c, 0, 58, 95
2, 160800, Note_off_c, 0, 62, 95
2, 160800, Note_off_c, 0, 58, 95
2, 160800, Note_on_c, 0, 59, 95
2, 160800, Note_on_c, 0, 55, 95
2, 161280, Note_off_c, 0, 59, 95
2, 161280, Note_off_c, 0, 55, 95
2, 161280, Note_on_c, 0, 58, 95
2, 161280, Note_on_c, 0, 53, 95
2, 161760, Note_off_c, 0, 58, 95
2, 161760, Note_off_c, 0, 53, 95
2, 161760, Note_on_c, 0, 59, 95
2, 161760, Note_on_c, 0, 55, 95
2, 162240, Note_off_c, 0, 59, 95
2, 162240, Note_off_c, 0, 55, 95
2, 162240, Note_on_c, 1, 61, 95
2, 162240, Note_on_c, 1, 57, 95
2, 162360, Pitch_bend_c, 1, 8448
2, 162360, Pitch_bend_c, 1, 8448
2, 162480, Pitch_bend_c, 1, 8832
2, 162480, Pitch_bend_c, 1, 8192
2, 162480, Note_off_c, 1, 61, 95
2, 162480, Pitch_bend_c, 1, 8832
2, 162480, Pitch_bend_c, 1, 8192
2, 162480, Note_off_c, 1, 57, 95
2, 162480, Note_on_c, 0, 62, 95
2, 162480, Note_on_c, 0, 58, 95
2, 162720, Note_off_c, 0, 62, 95
2, 162720, Note_off_c, 0, 58, 95
2, 162720, Note_on_c, 0, 55, 95
2, 162960, Note_off_c, 0, 55, 95
2, 162960, Note_on_c, 0, 55, 95
2, 163440, Note_off_c, 0, 55, 95
2, 163440, Note_on_c, 0, 55, 95
2, 163680, Note_off_c, 0, 55, 95
2, 163680, Note_on_c, 0, 55, 95
2, 163680, Note_on_c, 0, 50, 95
2, 164160, Note_off_c, 0, 55, 95
2, 164160, Note_off_c, 0, 50, 95
2, 164160, Note_on_c, 0, 55, 95
2, 164160, Note_on_c, 0, 50, 95
2, 164640, Note_off_c, 0, 55, 95
2, 164640, Note_off_c, 0, 50, 95
2, 164640, Note_on_c, 0, 50, 95
2, 164640, Note_on_c, 0, 43, 95
2, 165120, Note_off_c, 0, 50, 95
2, 165120, Note_off_c, 0, 43, 95
2, 165120, Note_on_c, 0, 67, 95
2, 165120, Note_on_c, 0, 64, 95
2, 165120, Note_on_c, 0, 60, 95
2, 165120, Note_on_c, 0, 55, 95
2, 165120, Note_on_c, 0, 48, 95
2, 165600, Note_off_c, 0, 67, 95
2, 165600, Note_off_c, 0, 64, 95
2, 165600, Note_off_c, 0, 60, 95
2, 165600, Note_off_c, 0, 55, 95
2, 165600, Note_off_c, 0, 48, 95
2, 165600, Note_on_c, 0, 67, 95
2, 165600, Note_on_c, 0, 64, 95
2, 165600, Note_on_c, 0, 60, 95
2, 165600, Note_on_c, 0, 55, 95
2, 165840, Note_off_c, 0, 67, 95
2, 165840, Note_off_c, 0, 64, 95
2, 165840, Note_off_c, 0, 60, 95
2, 165840, Note_off_c, 0, 55, 95
2, 165840, Note_on_c, 0, 67, 95
2, 165840, Note_on_c, 0, 64, 95
2, 165840, Note_on_c, 0, 60, 95
2, 165840, Note_on_c, 0, 55, 95
2, 166080, Note_off_c, 0, 67, 95
2, 166080, Note_off_c, 0, 64, 95
2, 166080, Note_off_c, 0, 60, 95
2, 166080, Note_off_c, 0, 55, 95
2, 166080, Note_on_c, 0, 67, 95
2, 166080, Note_on_c, 0, 64, 95
2, 166080, Note_on_c, 0, 60, 95
2, 166080, Note_on_c, 0, 55, 95
2, 166560, Note_off_c, 0, 67, 95
2, 166560, Note_off_c, 0, 64, 95
2, 166560, Note_off_c, 0, 60, 95
2, 166560, Note_off_c, 0, 55, 95
2, 166560, Note_on_c, 0, 67, 95
2, 166560, Note_on_c, 0, 64, 95
2, 166560, Note_on_c, 0, 60, 95
2, 166560, Note_on_c, 0, 55, 95
2, 166800, Note_off_c, 0, 67, 95
2, 166800, Note_off_c, 0, 64, 95
2, 166800, Note_off_c, 0, 60, 95
2, 166800, Note_off_c, 0, 55, 95
2, 166800, Note_on_c, 0, 67, 95
2, 166800, Note_on_c, 0, 64, 95
2, 166800, Note_on_c, 0, 60, 95
2, 166800, Note_on_c, 0, 55, 95
2, 167040, Note_off_c, 0, 67, 95
2, 167040, Note_off_c, 0, 64, 95
2, 167040, Note_off_c, 0, 60, 95
2, 167040, Note_off_c, 0, 55, 95
2, 167040, Note_on_c, 0, 67, 95
2, 167040, Note_on_c, 0, 64, 95
2, 167040, Note_on_c, 0, 60, 95
2, 167040, Note_on_c, 0, 55, 95
2, 167040, Note_on_c, 0, 48, 95
2, 167520, Note_off_c, 0, 67, 95
2, 167520, Note_off_c, 0, 64, 95
2, 167520, Note_off_c, 0, 60, 95
2, 167520, Note_off_c, 0, 55, 95
2, 167520, Note_off_c, 0, 48, 95
2, 167520, Note_on_c, 0, 67, 95
2, 167520, Note_on_c, 0, 64, 95
2, 167520, Note_on_c, 0, 60, 95
2, 167520, Note_on_c, 0, 55, 95
2, 167760, Note_off_c, 0, 67, 95
2, 167760, Note_off_c, 0, 64, 95
2, 167760, Note_off_c, 0, 60, 95
2, 167760, Note_off_c, 0, 55, 95
2, 167760, Note_on_c, 0, 67, 95
2, 167760, Note_on_c, 0, 64, 95
2, 167760, Note_on_c, 0, 60, 95
2, 167760, Note_on_c, 0, 55, 95
2, 168000, Note_off_c, 0, 67, 95
2, 168000, Note_off_c, 0, 64, 95
2, 168000, Note_off_c, 0, 60, 95
2, 168000, Note_off_c, 0, 55, 95
2, 168000, Note_on_c, 0, 67, 95
2, 168000, Note_on_c, 0, 64, 95
2, 168000, Note_on_c, 0, 60, 95
2, 168000, Note_on_c, 0, 55, 95
2, 168480, Note_off_c, 0, 67, 95
2, 168480, Note_off_c, 0, 64, 95
2, 168480, Note_off_c, 0, 60, 95
2, 168480, Note_off_c, 0, 55, 95
2, 168480, Note_on_c, 0, 67, 95
2, 168480, Note_on_c, 0, 64, 95
2, 168480, Note_on_c, 0, 60, 95
2, 168480, Note_on_c, 0, 55, 95
2, 168720, Note_off_c, 0, 67, 95
2, 168720, Note_off_c, 0, 64, 95
2, 168720, Note_off_c, 0, 60, 95
2, 168720, Note_off_c, 0, 55, 95
2, 168720, Note_on_c, 0, 67, 95
2, 168720, Note_on_c, 0, 64, 95
2, 168720, Note_on_c, 0, 60, 95
2, 168720, Note_on_c, 0, 55, 95
2, 168960, Note_off_c, 0, 67, 95
2, 168960, Note_off_c, 0, 64, 95
2, 168960, Note_off_c, 0, 60, 95
2, 168960, Note_off_c, 0, 55, 95
2, 168960, Note_on_c, 0, 67, 95
2, 168960, Note_on_c, 0, 64, 95
2, 168960, Note_on_c, 0, 60, 95
2, 168960, Note_on_c, 0, 55, 95
2, 168960, Note_on_c, 0, 48, 95
2, 169440, Note_off_c, 0, 67, 95
2, 169440, Note_off_c, 0, 64, 95
2, 169440, Note_off_c, 0, 60, 95
2, 169440, Note_off_c, 0, 55, 95
2, 169440, Note_off_c, 0, 48, 95
2, 169440, Note_on_c, 0, 67, 95
2, 169440, Note_on_c, 0, 64, 95
2, 169440, Note_on_c, 0, 60, 95
2, 169440, Note_on_c, 0, 55, 95
2, 169680, Note_off_c, 0, 67, 95
2, 169680, Note_off_c, 0, 64, 95
2, 169680, Note_off_c, 0, 60, 95
2, 169680, Note_off_c, 0, 55, 95
2, 169680, Note_on_c, 0, 67, 95
2, 169680, Note_on_c, 0, 64, 95
2, 169680, Note_on_c, 0, 60, 95
2, 169680, Note_on_c, 0, 55, 95
2, 169920, Note_off_c, 0, 67, 95
2, 169920, Note_off_c, 0, 64, 95
2, 169920, Note_off_c, 0, 60, 95
2, 169920, Note_off_c, 0, 55, 95
2, 169920, Note_on_c, 0, 67, 95
2, 169920, Note_on_c, 0, 64, 95
2, 169920, Note_on_c, 0, 60, 95
2, 169920, Note_on_c, 0, 55, 95
2, 170400, Note_off_c, 0, 67, 95
2, 170400, Note_off_c, 0, 64, 95
2, 170400, Note_off_c, 0, 60, 95
2, 170400, Note_off_c, 0, 55, 95
2, 170400, Note_on_c, 0, 67, 95
2, 170400, Note_on_c, 0, 64, 95
2, 170400, Note_on_c, 0, 60, 95
2, 170400, Note_on_c, 0, 55, 95
2, 170640, Note_off_c, 0, 67, 95
2, 170640, Note_off_c, 0, 64, 95
2, 170640, Note_off_c, 0, 60, 95
2, 170640, Note_off_c, 0, 55, 95
2, 170640, Note_on_c, 0, 67, 95
2, 170640, Note_on_c, 0, 64, 95
2, 170640, Note_on_c, 0, 60, 95
2, 170640, Note_on_c, 0, 55, 95
2, 170880, Note_off_c, 0, 67, 95
2, 170880, Note_off_c, 0, 64, 95
2, 170880, Note_off_c, 0, 60, 95
2, 170880, Note_off_c, 0, 55, 95
2, 170880, Note_on_c, 0, 67, 95
2, 170880, Note_on_c, 0, 64, 95
2, 170880, Note_on_c, 0, 60, 95
2, 170880, Note_on_c, 0, 55, 95
2, 170880, Note_on_c, 0, 48, 95
2, 171360, Note_off_c, 0, 67, 95
2, 171360, Note_off_c, 0, 64, 95
2, 171360, Note_off_c, 0, 60, 95
2, 171360, Note_off_c, 0, 55, 95
2, 171360, Note_off_c, 0, 48, 95
2, 171360, Note_on_c, 0, 67, 95
2, 171360, Note_on_c, 0, 64, 95
2, 171360, Note_on_c, 0, 60, 95
2, 171360, Note_on_c, 0, 55, 95
2, 171600, Note_off_c, 0, 67, 95
2, 171600, Note_off_c, 0, 64, 95
2, 171600, Note_off_c, 0, 60, 95
2, 171600, Note_off_c, 0, 55, 95
2, 171600, Note_on_c, 0, 67, 95
2, 171600, Note_on_c, 0, 64, 95
2, 171600, Note_on_c, 0, 60, 95
2, 171600, Note_on_c, 0, 55, 95
2, 171840, Note_off_c, 0, 67, 95
2, 171840, Note_off_c, 0, 64, 95
2, 171840, Note_off_c, 0, 60, 95
2, 171840, Note_off_c, 0, 55, 95
2, 171840, Note_on_c, 0, 67, 95
2, 171840, Note_on_c, 0, 64, 95
2, 171840, Note_on_c, 0, 60, 95
2, 171840, Note_on_c, 0, 55, 95
2, 172320, Note_off_c, 0, 67, 95
2, 172320, Note_off_c, 0, 64, 95
2, 172320, Note_off_c, 0, 60, 95
2, 172320, Note_off_c, 0, 55, 95
2, 172320, Note_on_c, 0, 62, 95
2, 172320, Note_on_c, 0, 59, 95
2, 172320, Note_on_c, 0, 55, 95
2, 172320, Note_on_c, 0, 50, 95
2, 172560, Note_off_c, 0, 62, 95
2, 172560, Note_off_c, 0, 59, 95
2, 172560, Note_off_c, 0, 55, 95
2, 172560, Note_off_c, 0, 50, 95
2, 172560, Note_on_c, 0, 62, 95
2, 172560, Note_on_c, 0, 59, 95
2, 172560, Note_on_c, 0, 55, 95
2, 172560, Note_on_c, 0, 50, 95
2, 172800, Note_off_c, 0, 62, 95
2, 172800, Note_off_c, 0, 59, 95
2, 172800, Note_off_c, 0, 55, 95
2, 172800, Note_off_c, 0, 50, 95
2, 172800, Note_on_c, 0, 62, 95
2, 172800, Note_on_c, 0, 59, 95
2, 172800, Note_on_c, 0, 55, 95
2, 172800, Note_on_c, 0, 50, 95
2, 173520, Note_off_c, 0, 62, 95
2, 173520, Note_off_c, 0, 59, 95
2, 173520, Note_off_c, 0, 55, 95
2, 173520, Note_off_c, 0, 50, 95
2, 173520, Note_on_c, 0, 59, 95
2, 173520, Note_on_c, 0, 55, 95
2, 173760, Note_off_c, 0, 59, 95
2, 173760, Note_off_c, 0, 55, 95
2, 173760, Note_on_c, 1, 61, 95
2, 173760, Note_on_c, 1, 57, 95
2, 173880, Pitch_bend_c, 1, 8448
2, 173880, Pitch_bend_c, 1, 8448
2, 174000, Pitch_bend_c, 1, 8832
2, 174000, Pitch_bend_c, 1, 8192
2, 174000, Note_off_c, 1, 61, 95
2, 174000, Pitch_bend_c, 1, 8832
2, 174000, Pitch_bend_c, 1, 8192
2, 174000, Note_off_c, 1, 57, 95
2, 174000, Note_on_c, 1, 62, 95
2, 174000, Note_on_c, 1, 58, 95
2, 174120, Pitch_bend_c, 1, 7680
2, 174120, Pitch_bend_c, 1, 7680
2, 174240, Pitch_bend_c, 1, 7168
2, 174240, Pitch_bend_c, 1, 7168
2, 174360, Pitch_bend_c, 1, 6656
2, 174360, Pitch_bend_c, 1, 6656
2, 174480, Pitch_bend_c, 1, 6144
2, 174480, Pitch_bend_c, 1, 8192
2, 174480, Note_off_c, 1, 62, 95
2, 174480, Pitch_bend_c, 1, 6144
2, 174480, Pitch_bend_c, 1, 8192
2, 174480, Note_off_c, 1, 58, 95
2, 174480, Note_on_c, 0, 59, 95
2, 174480, Note_on_c, 0, 55, 95
2, 174720, Note_off_c, 0, 59, 95
2, 174720, Note_off_c, 0, 55, 95
2, 174720, Note_on_c, 0, 53, 95
2, 174960, Note_off_c, 0, 53, 95
2, 174960, Note_on_c, 0, 53, 95
2, 175200, Note_off_c, 0, 53, 95
2, 175200, Note_on_c, 0, 59, 95
2, 175200, Note_on_c, 0, 55, 95
2, 175680, Note_off_c, 0, 59, 95
2, 175680, Note_off_c, 0, 55, 95
2, 175680, Note_on_c, 1, 61, 95
2, 175680, Note_on_c, 1, 57, 95
2, 175800, Pitch_bend_c, 1, 8448
2, 175800, Pitch_bend_c, 1, 8448
2, 175920, Pitch_bend_c, 1, 8832
2, 175920, Pitch_bend_c, 1, 8192
2, 175920, Note_off_c, 1, 61, 95
2, 175920, Pitch_bend_c, 1, 8832
2, 175920, Pitch_bend_c, 1, 8192
2, 175920, Note_off_c, 1, 57, 95
2, 175920, Pitch_bend_c, 1, 8192
2, 175920, Note_on_c, 1, 62, 95
2, 175920, Pitch_bend_c, 1, 8192
2, 175920, Note_on_c, 1, 58, 95
2, 176040, Pitch_bend_c, 1, 8320
2, 176040, Pitch_bend_c, 1, 8320
2, 176160, Pitch_bend_c, 1, 8448
2, 176160, Pitch_bend_c, 1, 8448
2, 176160, Pitch_bend_c, 1, 8192
2, 176160, Note_off_c, 1, 62, 95
2, 176160, Pitch_bend_c, 1, 8448
2, 176160, Pitch_bend_c, 1, 8448
2, 176160, Pitch_bend_c, 1, 8192
2, 176160, Note_off_c, 1, 58, 95
2, 176160, Note_on_c, 0, 55, 95
2, 176400, Note_off_c, 0, 55, 95
2, 176400, Note_on_c, 0, 55, 95
2, 176880, Note_off_c, 0, 55, 95
2, 176880, Note_on_c, 0, 55, 95
2, 177120, Note_off_c, 0, 55, 95
2, 177120, Note_on_c, 0, 59, 95
2, 177120, Note_on_c, 0, 55, 95
2, 177600, Note_off_c, 0, 59, 95
2, 177600, Note_off_c, 0, 55, 95
2, 177600, Note_on_c, 1, 61, 95
2, 177600, Note_on_c, 1, 57, 95
2, 177720, Pitch_bend_c, 1, 8320
2, 177720, Pitch_bend_c, 1, 8320
2, 177840, Pitch_bend_c, 1, 8448
2, 177840, Pitch_bend_c, 1, 8448
2, 177960, Pitch_bend_c, 1, 8704
2, 177960, Pitch_bend_c, 1, 8704
2, 178080, Pitch_bend_c, 1, 8832
2, 178080, Pitch_bend_c, 1, 8192
2, 178080, Note_off_c, 1, 61, 95
2, 178080, Pitch_bend_c, 1, 8832
2, 178080, Pitch_bend_c, 1, 8192
2, 178080, Note_off_c, 1, 57, 95
2, 178080, Pitch_bend_c, 1, 8192
2, 178080, Note_on_c, 1, 62, 95
2, 178080, Pitch_bend_c, 1, 8192
2, 178080, Note_on_c, 1, 58, 95
2, 178200, Pitch_bend_c, 1, 8320
2, 178200, Pitch_bend_c, 1, 8320
2, 178320, Pitch_bend_c, 1, 8448
2, 178320, Pitch_bend_c, 1, 8448
2, 178320, Pitch_bend_c, 1, 8192
2, 178320, Note_off_c, 1, 62, 95
2, 178320, Pitch_bend_c, 1, 8448
2, 178320, Pitch_bend_c, 1, 8448
2, 178320, Pitch_bend_c, 1, 8192
2, 178320, Note_off_c, 1, 58, 95
2, 178320, Note_on_c, 0, 59, 95
2, 178320, Note_on_c, 0, 55, 95
2, 178560, Note_off_c, 0, 59, 95
2, 178560, Note_off_c, 0, 55, 95
2, 178560, Note_on_c, 1, 53, 95
2, 178680, Pitch_bend_c, 1, 8192
2, 178800, Pitch_bend_c, 1, 8192
2, 178800, Pitch_bend_c, 1, 8192
2, 178800, Note_off_c, 1, 53, 95
2, 178800, Pitch_bend_c, 1, 8192
2, 178800, Note_on_c, 1, 53, 95
2, 178920, Pitch_bend_c, 1, 8320
2, 179040, Pitch_bend_c, 1, 8448
2, 179040, Pitch_bend_c, 1, 8448
2, 179040, Pitch_bend_c, 1, 8192
2, 179040, Note_off_c, 1, 53, 95
2, 179040, Note_on_c, 0, 59, 95
2, 179040, Note_on_c, 0, 55, 95
2, 179520, Note_off_c, 0, 59, 95
2, 179520, Note_off_c, 0, 55, 95
2, 179520, Note_on_c, 1, 61, 95
2, 179520, Note_on_c, 1, 57, 95
2, 179640, Pitch_bend_c, 1, 8448
2, 179640, Pitch_bend_c, 1, 8448
2, 179760, Pitch_bend_c, 1, 8832
2, 179760, Pitch_bend_c, 1, 8192
2, 179760, Note_off_c, 1, 61, 95
2, 179760, Pitch_bend_c, 1, 8832
2, 179760, Pitch_bend_c, 1, 8192
2, 179760, Note_off_c, 1, 57, 95
2, 179760, Note_on_c, 0, 62, 95
2, 179760, Note_on_c, 0, 58, 95
2, 180000, Note_off_c, 0, 62, 95
2, 180000, Note_off_c, 0, 58, 95
2, 180000, Note_on_c, 0, 55, 95
2, 180240, Note_off_c, 0, 55, 95
2, 180240, Note_on_c, 0, 55, 95
2, 180720, Note_off_c, 0, 55, 95
2, 180720, Note_on_c, 0, 55, 95
2, 180960, Note_off_c, 0, 55, 95
2, 180960, Note_on_c, 0, 55, 95
2, 181440, Note_off_c, 0, 55, 95
2, 181440, Note_on_c, 1, 46, 95
2, 181560, Pitch_bend_c, 1, 8192
2, 181680, Pitch_bend_c, 1, 8192
2, 181680, Pitch_bend_c, 1, 8192
2, 181680, Note_off_c, 1, 46, 95
2, 181680, Pitch_bend_c, 1, 8192
2, 181680, Note_on_c, 1, 46, 95
2, 181800, Pitch_bend_c, 1, 8320
2, 181920, Pitch_bend_c, 1, 8448
2, 181920, Pitch_bend_c, 1, 8448
2, 181920, Pitch_bend_c, 1, 8192
2, 181920, Note_off_c, 1, 46, 95
2, 181920, Note_on_c, 0, 43, 95
2, 182400, Note_off_c, 0, 43, 95
2, 182400, Note_on_c, 0, 66, 95
2, 182400, Note_on_c, 0, 62, 95
2, 182400, Note_on_c, 0, 57, 95
2, 182400, Note_on_c, 0, 50, 95
2, 182880, Note_off_c, 0, 66, 95
2, 182880, Note_off_c, 0, 62, 95
2, 182880, Note_off_c, 0, 57, 95
2, 182880, Note_off_c, 0, 50, 95
2, 182880, Note_on_c, 1, 66, 95
2, 182880, Note_on_c, 1, 62, 95
2, 182880, Note_on_c, 1, 57, 95
2, 182880, Note_on_c, 1, 50, 95
2, 183040, Pitch_bend_c, 1, 8192
2, 183040, Pitch_bend_c, 1, 8192
2, 183040, Pitch_bend_c, 1, 8192
2, 183040, Pitch_bend_c, 1, 8192
2, 183200, Pitch_bend_c, 1, 8320
2, 183200, Pitch_bend_c, 1, 8320
2, 183200, Pitch_bend_c, 1, 8320
2, 183200, Pitch_bend_c, 1, 8320
2, 183360, Pitch_bend_c, 1, 8192
2, 183360, Pitch_bend_c, 1, 8192
2, 183360, Pitch_bend_c, 1, 8192
2, 183360, Pitch_bend_c, 1, 8192
2, 183520, Pitch_bend_c, 1, 8320
2, 183520, Pitch_bend_c, 1, 8320
2, 183520, Pitch_bend_c, 1, 8320
2, 183520, Pitch_bend_c, 1, 8320
2, 183680, Pitch_bend_c, 1, 8192
2, 183680, Pitch_bend_c, 1, 8192
2, 183680, Pitch_bend_c, 1, 8192
2, 183680, Pitch_bend_c, 1, 8192
2, 183840, Pitch_bend_c, 1, 8320
2, 183840, Pitch_bend_c, 1, 8192
2, 183840, Note_off_c, 1, 66, 95
2, 183840, Pitch_bend_c, 1, 8320
2, 183840, Pitch_bend_c, 1, 8192
2, 183840, Note_off_c, 1, 62, 95
2, 183840, Pitch_bend_c, 1, 8320
2, 183840, Pitch_bend_c, 1, 8192
2, 183840, Note_off_c, 1, 57, 95
2, 183840, Pitch_bend_c, 1, 8320
2, 183840, Pitch_bend_c, 1, 8192
2, 183840, Note_off_c, 1, 50, 95
2, 183840, Note_on_c, 1, 66, 95
2, 183840, Note_on_c, 1, 62, 95
2, 183840, Note_on_c, 1, 57, 95
2, 183840, Note_on_c, 1, 50, 95
2, 184000, Pitch_bend_c, 1, 8192
2, 184000, Pitch_bend_c, 1, 8192
2, 184000, Pitch_bend_c, 1, 8192
2, 184000, Pitch_bend_c, 1, 8192
2, 184160, Pitch_bend_c, 1, 8320
2, 184160, Pitch_bend_c, 1, 8320
2, 184160, Pitch_bend_c, 1, 8320
2, 184160, Pitch_bend_c, 1, 8320
2, 184320, Pitch_bend_c, 1, 8192
2, 184320, Pitch_bend_c, 1, 8192
2, 184320, Pitch_bend_c, 1, 8192
2, 184320, Pitch_bend_c, 1, 8192
2, 184480, Pitch_bend_c, 1, 8320
2, 184480, Pitch_bend_c, 1, 8320
2, 184480, Pitch_bend_c, 1, 8320
2, 184480, Pitch_bend_c, 1, 8320
2, 184640, Pitch_bend_c, 1, 8192
2, 184640, Pitch_bend_c, 1, 8192
2, 184640, Pitch_bend_c, 1, 8192
2, 184640, Pitch_bend_c, 1, 8192
2, 184800, Pitch_bend_c, 1, 8320
2, 184800, Pitch_bend_c, 1, 8192
2, 184800, Note_off_c, 1, 66, 95
2, 184800, Pitch_bend_c, 1, 8320
2, 184800, Pitch_bend_c, 1, 8192
2, 184800, Note_off_c, 1, 62, 95
2, 184800, Pitch_bend_c, 1, 8320
2, 184800, Pitch_bend_c, 1, 8192
2, 184800, Note_off_c, 1, 57, 95
2, 184800, Pitch_bend_c, 1, 8320
2, 184800, Pitch_bend_c, 1, 8192
2, 184800, Note_off_c, 1, 50, 95
2, 184800, Note_on_c, 1, 66, 95
2, 184800, Note_on_c, 1, 62, 95
2, 184800, Note_on_c, 1, 57, 95
2, 184800, Note_on_c, 1, 50, 95
2, 184960, Pitch_bend_c, 1, 8192
2, 184960, Pitch_bend_c, 1, 8192
2, 184960, Pitch_bend_c, 1, 8192
2, 184960, Pitch_bend_c, 1, 8192
2, 185120, Pitch_bend_c, 1, 8320
2, 185120, Pitch_bend_c, 1, 8320
2, 185120, Pitch_bend_c, 1, 8320
2, 185120, Pitch_bend_c, 1, 8320
2, 185280, Pitch_bend_c, 1, 8192
2, 185280, Pitch_bend_c, 1, 8192
2, 185280, Pitch_bend_c, 1, 8192
2, 185280, Pitch_bend_c, 1, 8192
2, 185440, Pitch_bend_c, 1, 8320
2, 185440, Pitch_bend_c, 1, 8320
2, 185440, Pitch_bend_c, 1, 8320
2, 185440, Pitch_bend_c, 1, 8320
2, 185600, Pitch_bend_c, 1, 8192
2, 185600, Pitch_bend_c, 1, 8192
2, 185600, Pitch_bend_c, 1, 8192
2, 185600, Pitch_bend_c, 1, 8192
2, 185760, Pitch_bend_c, 1, 8320
2, 185760, Pitch_bend_c, 1, 8192
2, 185760, Note_off_c, 1, 66, 95
2, 185760, Pitch_bend_c, 1, 8320
2, 185760, Pitch_bend_c, 1, 8192
2, 185760, Note_off_c, 1, 62, 95
2, 185760, Pitch_bend_c, 1, 8320
2, 185760, Pitch_bend_c, 1, 8192
2, 185760, Note_off_c, 1, 57, 95
2, 185760, Pitch_bend_c, 1, 8320
2, 185760, Pitch_bend_c, 1, 8192
2, 185760, Note_off_c, 1, 50, 95
2, 185760, Note_on_c, 0, 64, 95
2, 185760, Note_on_c, 0, 60, 95
2, 185760, Note_on_c, 0, 55, 95
2, 185760, Note_on_c, 0, 48, 95
2, 186240, Note_off_c, 0, 64, 95
2, 186240, Note_off_c, 0, 60, 95
2, 186240, Note_off_c, 0, 55, 95
2, 186240, Note_off_c, 0, 48, 95
2, 186240, Note_on_c, 0, 64, 95
2, 186240, Note_on_c, 0, 60, 95
2, 186240, Note_on_c, 0, 55, 95
2, 186240, Note_on_c, 0, 48, 95
2, 186720, Note_off_c, 0, 64, 95
2, 186720, Note_off_c, 0, 60, 95
2, 186720, Note_off_c, 0, 55, 95
2, 186720, Note_off_c, 0, 48, 95
2, 186720, Note_on_c, 1, 64, 95
2, 186720, Note_on_c, 1, 60, 95
2, 186720, Note_on_c, 1, 55, 95
2, 186720, Note_on_c, 1, 48, 95
2, 186880, Pitch_bend_c, 1, 8192
2, 186880, Pitch_bend_c, 1, 8192
2, 186880, Pitch_bend_c, 1, 8192
2, 186880, Pitch_bend_c, 1, 8192
2, 187040, Pitch_bend_c, 1, 8320
2, 187040, Pitch_bend_c, 1, 8320
2, 187040, Pitch_bend_c, 1, 8320
2, 187040, Pitch_bend_c, 1, 8320
2, 187200, Pitch_bend_c, 1, 8192
2, 187200, Pitch_bend_c, 1, 8192
2, 187200, Pitch_bend_c, 1, 8192
2, 187200, Pitch_bend_c, 1, 8192
2, 187360, Pitch_bend_c, 1, 8320
2, 187360, Pitch_bend_c, 1, 8320
2, 187360, Pitch_bend_c, 1, 8320
2, 187360, Pitch_bend_c, 1, 8320
2, 187520, Pitch_bend_c, 1, 8192
2, 187520, Pitch_bend_c, 1, 8192
2, 187520, Pitch_bend_c, 1, 8192
2, 187520, Pitch_bend_c, 1, 8192
2, 187680, Pitch_bend_c, 1, 8320
2, 187680, Pitch_bend_c, 1, 8192
2, 187680, Note_off_c, 1, 64, 95
2, 187680, Pitch_bend_c, 1, 8320
2, 187680, Pitch_bend_c, 1, 8192
2, 187680, Note_off_c, 1, 60, 95
2, 187680, Pitch_bend_c, 1, 8320
2, 187680, Pitch_bend_c, 1, 8192
2, 187680, Note_off_c, 1, 55, 95
2, 187680, Pitch_bend_c, 1, 8320
2, 187680, Pitch_bend_c, 1, 8192
2, 187680, Note_off_c, 1, 48, 95
2, 187680, Note_on_c, 1, 64, 95
2, 187680, Note_on_c, 1, 60, 95
2, 187680, Note_on_c, 1, 55, 95
2, 187680, Note_on_c, 1, 48, 95
2, 187840, Pitch_bend_c, 1, 8192
2, 187840, Pitch_bend_c, 1, 8192
2, 187840, Pitch_bend_c, 1, 8192
2, 187840, Pitch_bend_c, 1, 8192
2, 188000, Pitch_bend_c, 1, 8320
2, 188000, Pitch_bend_c, 1, 8320
2, 188000, Pitch_bend_c, 1, 8320
2, 188000, Pitch_bend_c, 1, 8320
2, 188160, Pitch_bend_c, 1, 8192
2, 188160, Pitch_bend_c, 1, 8192
2, 188160, Pitch_bend_c, 1, 8192
2, 188160, Pitch_bend_c, 1, 8192
2, 188320, Pitch_bend_c, 1, 8320
2, 188320, Pitch_bend_c, 1, 8320
2, 188320, Pitch_bend_c, 1, 8320
2, 188320, Pitch_bend_c, 1, 8320
2, 188480, Pitch_bend_c, 1, 8192
2, 188480, Pitch_bend_c, 1, 8192
2, 188480, Pitch_bend_c, 1, 8192
2, 188480, Pitch_bend_c, 1, 8192
2, 188640, Pitch_bend_c, 1, 8320
2, 188640, Pitch_bend_c, 1, 8192
2, 188640, Note_off_c, 1, 64, 95
2, 188640, Pitch_bend_c, 1, 8320
2, 188640, Pitch_bend_c, 1, 8192
2, 188640, Note_off_c, 1, 60, 95
2, 188640, Pitch_bend_c, 1, 8320
2, 188640, Pitch_bend_c, 1, 8192
2, 188640, Note_off_c, 1, 55, 95
2, 188640, Pitch_bend_c, 1, 8320
2, 188640, Pitch_bend_c, 1, 8192
2, 188640, Note_off_c, 1, 48, 95
2, 188640, Note_on_c, 1, 64, 95
2, 188640, Note_on_c, 1, 60, 95
2, 188640, Note_on_c, 1, 55, 95
2, 188640, Note_on_c, 1, 48, 95
2, 188800, Pitch_bend_c, 1, 8192
2, 188800, Pitch_bend_c, 1, 8192
2, 188800, Pitch_bend_c, 1, 8192
2, 188800, Pitch_bend_c, 1, 8192
2, 188960, Pitch_bend_c, 1, 8320
2, 188960, Pitch_bend_c, 1, 8320
2, 188960, Pitch_bend_c, 1, 8320
2, 188960, Pitch_bend_c, 1, 8320
2, 189120, Pitch_bend_c, 1, 8192
2, 189120, Pitch_bend_c, 1, 8192
2, 189120, Pitch_bend_c, 1, 8192
2, 189120, Pitch_bend_c, 1, 8192
2, 189280, Pitch_bend_c, 1, 8320
2, 189280, Pitch_bend_c, 1, 8320
2, 189280, Pitch_bend_c, 1, 8320
2, 189280, Pitch_bend_c, 1, 8320
2, 189440, Pitch_bend_c, 1, 8192
2, 189440, Pitch_bend_c, 1, 8192
2, 189440, Pitch_bend_c, 1, 8192
2, 189440, Pitch_bend_c, 1, 8192
2, 189600, Pitch_bend_c, 1, 8320
2, 189600, Pitch_bend_c, 1, 8192
2, 189600, Note_off_c, 1, 64, 95
2, 189600, Pitch_bend_c, 1, 8320
2, 189600, Pitch_bend_c, 1, 8192
2, 189600, Note_off_c, 1, 60, 95
2, 189600, Pitch_bend_c, 1, 8320
2, 189600, Pitch_bend_c, 1, 8192
2, 189600, Note_off_c, 1, 55, 95
2, 189600, Pitch_bend_c, 1, 8320
2, 189600, Pitch_bend_c, 1, 8192
2, 189600, Note_off_c, 1, 48, 95
2, 189600, Pitch_bend_c, 1, 9600
2, 189600, Note_on_c, 1, 64, 95
2, 189600, Pitch_bend_c, 1, 9600
2, 189600, Note_on_c, 1, 60, 95
2, 189600, Pitch_bend_c, 1, 9600
2, 189600, Note_on_c, 1, 55, 95
2, 189600, Pitch_bend_c, 1, 9600
2, 189600, Note_on_c, 1, 48, 95
2, 189643, Pitch_bend_c, 1, 9472
2, 189643, Pitch_bend_c, 1, 9472
2, 189643, Pitch_bend_c, 1, 9472
2, 189643, Pitch_bend_c, 1, 9472
2, 189686, Pitch_bend_c, 1, 9344
2, 189686, Pitch_bend_c, 1, 9344
2, 189686, Pitch_bend_c, 1, 9344
2, 189686, Pitch_bend_c, 1, 9344
2, 189729, Pitch_bend_c, 1, 9216
2, 189729, Pitch_bend_c, 1, 9216
2, 189729, Pitch_bend_c, 1, 9216
2, 189729, Pitch_bend_c, 1, 9216
2, 189772, Pitch_bend_c, 1, 9088
2, 189772, Pitch_bend_c, 1, 9088
2, 189772, Pitch_bend_c, 1, 9088
2, 189772, Pitch_bend_c, 1, 9088
2, 189815, Pitch_bend_c, 1, 8960
2, 189815, Pitch_bend_c, 1, 8960
2, 189815, Pitch_bend_c, 1, 8960
2, 189815, Pitch_bend_c, 1, 8960
2, 189858, Pitch_bend_c, 1, 8832
2, 189858, Pitch_bend_c, 1, 8832
2, 189858, Pitch_bend_c, 1, 8832
2, 189858, Pitch_bend_c, 1, 8832
2, 189901, Pitch_bend_c, 1, 8704
2, 189901, Pitch_bend_c, 1, 8704
2, 189901, Pitch_bend_c, 1, 8704
2, 189901, Pitch_bend_c, 1, 8704
2, 189944, Pitch_bend_c, 1, 8576
2, 189944, Pitch_bend_c, 1, 8576
2, 189944, Pitch_bend_c, 1, 8576
2, 189944, Pitch_bend_c, 1, 8576
2, 189987, Pitch_bend_c, 1, 8448
2, 189987, Pitch_bend_c, 1, 8448
2, 189987, Pitch_bend_c, 1, 8448
2, 189987, Pitch_bend_c, 1, 8448
2, 190030, Pitch_bend_c, 1, 8320
2, 190030, Pitch_bend_c, 1, 8320
2, 190030, Pitch_bend_c, 1, 8320
2, 190030, Pitch_bend_c, 1, 8320
2, 190073, Pitch_bend_c, 1, 8192
2, 190073, Pitch_bend_c, 1, 8192
2, 190073, Pitch_bend_c, 1, 8192
2, 190073, Pitch_bend_c, 1, 8192
2, 190080, Pitch_bend_c, 1, 8192
2, 190080, Pitch_bend_c, 1, 8192
2, 190080, Note_off_c, 1, 64, 95
2, 190080, Pitch_bend_c, 1, 8192
2, 190080, Pitch_bend_c, 1, 8192
2, 190080, Note_off_c, 1, 60, 95
2, 190080, Pitch_bend_c, 1, 8192
2, 190080, Pitch_bend_c, 1, 8192
2, 190080, Note_off_c, 1, 55, 95
2, 190080, Pitch_bend_c, 1, 8192
2, 190080, Pitch_bend_c, 1, 8192
2, 190080, Note_off_c, 1, 48, 95
2, 190080, Note_on_c, 0, 55, 95
2, 190080, Note_on_c, 0, 50, 95
2, 190080, Note_on_c, 0, 43, 95
2, 190560, Note_off_c, 0, 55, 95
2, 190560, Note_off_c, 0, 50, 95
2, 190560, Note_off_c, 0, 43, 95
2, 190560, Note_on_c, 0, 59, 95
2, 190560, Note_on_c, 0, 55, 95
2, 190800, Note_off_c, 0, 59, 95
2, 190800, Note_off_c, 0, 55, 95
2, 190800, Note_on_c, 0, 59, 95
2, 190800, Note_on_c, 0, 55, 95
2, 191040, Note_off_c, 0, 59, 95
2, 191040, Note_off_c, 0, 55, 95
2, 191040, Note_on_c, 1, 61, 95
2, 191040, Note_on_c, 1, 57, 95
2, 191160, Pitch_bend_c, 1, 8320
2, 191160, Pitch_bend_c, 1, 8320
2, 191280, Pitch_bend_c, 1, 8448
2, 191280, Pitch_bend_c, 1, 8448
2, 191400, Pitch_bend_c, 1, 8704
2, 191400, Pitch_bend_c, 1, 8704
2, 191520, Pitch_bend_c, 1, 8832
2, 191520, Pitch_bend_c, 1, 8192
2, 191520, Note_off_c, 1, 61, 95
2, 191520, Pitch_bend_c, 1, 8832
2, 191520, Pitch_bend_c, 1, 8192
2, 191520, Note_off_c, 1, 57, 95
2, 191520, Pitch_bend_c, 1, 8192
2, 191520, Note_on_c, 1, 62, 95
2, 191520, Pitch_bend_c, 1, 8192
2, 191520, Note_on_c, 1, 58, 95
2, 191640, Pitch_bend_c, 1, 8320
2, 191640, Pitch_bend_c, 1, 8320
2, 191760, Pitch_bend_c, 1, 8448
2, 191760, Pitch_bend_c, 1, 8448
2, 191760, Pitch_bend_c, 1, 8192
2, 191760, Note_off_c, 1, 62, 95
2, 191760, Pitch_bend_c, 1, 8448
2, 191760, Pitch_bend_c, 1, 8448
2, 191760, Pitch_bend_c, 1, 8192
2, 191760, Note_off_c, 1, 58, 95
2, 191760, Note_on_c, 0, 59, 95
2, 191760, Note_on_c, 0, 55, 95
2, 192000, Note_off_c, 0, 59, 95
2, 192000, Note_off_c, 0, 55, 95
2, 192000, Note_on_c, 0, 50, 95
2, 192480, Note_off_c, 0, 50, 95
2, 192480, Note_on_c, 0, 59, 95
2, 192480, Note_on_c, 0, 55, 95
2, 192960, Note_off_c, 0, 59, 95
2, 192960, Note_off_c, 0, 55, 95
2, 192960, Note_on_c, 1, 61, 95
2, 192960, Note_on_c, 1, 57, 95
2, 193080, Pitch_bend_c, 1, 8448
2, 193080, Pitch_bend_c, 1, 8448
2, 193200, Pitch_bend_c, 1, 8832
2, 193200, Pitch_bend_c, 1, 8192
2, 193200, Note_off_c, 1, 61, 95
2, 193200, Pitch_bend_c, 1, 8832
2, 193200, Pitch_bend_c, 1, 8192
2, 193200, Note_off_c, 1, 57, 95
2, 193200, Pitch_bend_c, 1, 8192
2, 193200, Note_on_c, 1, 62, 95
2, 193200, Pitch_bend_c, 1, 8192
2, 193200, Note_on_c, 1, 58, 95
2, 193320, Pitch_bend_c, 1, 8320
2, 193320, Pitch_bend_c, 1, 8320
2, 193440, Pitch_bend_c, 1, 8448
2, 193440, Pitch_bend_c, 1, 8448
2, 193440, Pitch_bend_c, 1, 8192
2, 193440, Note_off_c, 1, 62, 95
2, 193440, Pitch_bend_c, 1, 8448
2, 193440, Pitch_bend_c, 1, 8448
2, 193440, Pitch_bend_c, 1, 8192
2, 193440, Note_off_c, 1, 58, 95
2, 193440, Note_on_c, 0, 50, 95
2, 193680, Note_off_c, 0, 50, 95
2, 193680, Note_on_c, 0, 55, 95
2, 194160, Note_off_c, 0, 55, 95
2, 194160, Note_on_c, 0, 59, 95
2, 194400, Note_off_c, 0, 59, 95
2, 194400, Note_on_c, 0, 55, 95
2, 194880, Note_off_c, 0, 55, 95
2, 194880, Note_on_c, 1, 61, 95
2, 194880, Note_on_c, 1, 57, 95
2, 195000, Pitch_bend_c, 1, 8320
2, 195000, Pitch_bend_c, 1, 8320
2, 195120, Pitch_bend_c, 1, 8448
2, 195120, Pitch_bend_c, 1, 8448
2, 195240, Pitch_bend_c, 1, 8704
2, 195240, Pitch_bend_c, 1, 8704
2, 195360, Pitch_bend_c, 1, 8832
2, 195360, Pitch_bend_c, 1, 8192
2, 195360, Note_off_c, 1, 61, 95
2, 195360, Pitch_bend_c, 1, 8832
2, 195360, Pitch_bend_c, 1, 8192
2, 195360, Note_off_c, 1, 57, 95
2, 195360, Pitch_bend_c, 1, 8192
2, 195360, Note_on_c, 1, 62, 95
2, 195360, Pitch_bend_c, 1, 8192
2, 195360, Note_on_c, 1, 58, 95
2, 195480, Pitch_bend_c, 1, 8320
2, 195480, Pitch_bend_c, 1, 8320
2, 195600, Pitch_bend_c, 1, 8448
2, 195600, Pitch_bend_c, 1, 8448
2, 195600, Pitch_bend_c, 1, 8192
2, 195600, Note_off_c, 1, 62, 95
2, 195600, Pitch_bend_c, 1, 8448
2, 195600, Pitch_bend_c, 1, 8448
2, 195600, Pitch_bend_c, 1, 8192
2, 195600, Note_off_c, 1, 58, 95
2, 195600, Note_on_c, 0, 59, 95
2, 195600, Note_on_c, 0, 55, 95
2, 195840, Note_off_c, 0, 59, 95
2, 195840, Note_off_c, 0, 55, 95
2, 195840, Note_on_c, 1, 58, 95
2, 195840, Note_on_c, 1, 53, 95
2, 195960, Pitch_bend_c, 1, 8192
2, 195960, Pitch_bend_c, 1, 8192
2, 196080, Pitch_bend_c, 1, 8192
2, 196080, Pitch_bend_c, 1, 8192
2, 196080, Note_off_c, 1, 58, 95
2, 196080, Pitch_bend_c, 1, 8192
2, 196080, Pitch_bend_c, 1, 8192
2, 196080, Note_off_c, 1, 53, 95
2, 196080, Pitch_bend_c, 1, 8192
2, 196080, Note_on_c, 1, 58, 95
2, 196080, Pitch_bend_c, 1, 8192
2, 196080, Note_on_c, 1, 53, 95
2, 196200, Pitch_bend_c, 1, 8320
2, 196200, Pitch_bend_c, 1, 8320
2, 196320, Pitch_bend_c, 1, 8448
2, 196320, Pitch_bend_c, 1, 8448
2, 196320, Pitch_bend_c, 1, 8192
2, 196320, Note_off_c, 1, 58, 95
2, 196320, Pitch_bend_c, 1, 8448
2, 196320, Pitch_bend_c, 1, 8448
2, 196320, Pitch_bend_c, 1, 8192
2, 196320, Note_off_c, 1, 53, 95
2, 196320, Note_on_c, 0, 59, 95
2, 196320, Note_on_c, 0, 55, 95
2, 196560, Note_off_c, 0, 59, 95
2, 196560, Note_off_c, 0, 55, 95
2, 196560, Note_on_c, 1, 61, 95
2, 196560, Note_on_c, 1, 57, 95
2, 196680, Pitch_bend_c, 1, 8448
2, 196680, Pitch_bend_c, 1, 8448
2, 196800, Pitch_bend_c, 1, 8832
2, 196800, Pitch_bend_c, 1, 8192
2, 196800, Note_off_c, 1, 61, 95
2, 196800, Pitch_bend_c, 1, 8832
2, 196800, Pitch_bend_c, 1, 8192
2, 196800, Note_off_c, 1, 57, 95
2, 196800, Pitch_bend_c, 1, 8192
2, 196800, Note_on_c, 1, 62, 95
2, 196800, Pitch_bend_c, 1, 8192
2, 196800, Note_on_c, 1, 58, 95
2, 196920, Pitch_bend_c, 1, 8320
2, 196920, Pitch_bend_c, 1, 8320
2, 197040, Pitch_bend_c, 1, 8448
2, 197040, Pitch_bend_c, 1, 8448
2, 197040, Pitch_bend_c, 1, 8192
2, 197040, Note_off_c, 1, 62, 95
2, 197040, Pitch_bend_c, 1, 8448
2, 197040, Pitch_bend_c, 1, 8448
2, 197040, Pitch_bend_c, 1, 8192
2, 197040, Note_off_c, 1, 58, 95
2, 197040, Note_on_c, 0, 55, 95
2, 197280, Note_off_c, 0, 55, 95
2, 197280, Note_on_c, 0, 55, 95
2, 198000, Note_off_c, 0, 55, 95
2, 198000, Note_on_c, 0, 55, 95
2, 198240, Note_off_c, 0, 55, 95
2, 198240, Note_on_c, 0, 55, 95
2, 198480, Note_off_c, 0, 55, 95
2, 198480, Note_on_c, 0, 59, 95
2, 198720, Note_off_c, 0, 59, 95
2, 198720, Note_on_c, 1, 61, 95
2, 198720, Note_on_c, 1, 57, 95
2, 198840, Pitch_bend_c, 1, 8448
2, 198840, Pitch_bend_c, 1, 8448
2, 198960, Pitch_bend_c, 1, 8832
2, 198960, Pitch_bend_c, 1, 8192
2, 198960, Note_off_c, 1, 61, 95
2, 198960, Pitch_bend_c, 1, 8832
2, 198960, Pitch_bend_c, 1, 8192
2, 198960, Note_off_c, 1, 57, 95
2, 198960, Pitch_bend_c, 1, 8192
2, 198960, Note_on_c, 1, 62, 95
2, 198960, Pitch_bend_c, 1, 8192
2, 198960, Note_on_c, 1, 58, 95
2, 199080, Pitch_bend_c, 1, 8320
2, 199080, Pitch_bend_c, 1, 8320
2, 199200, Pitch_bend_c, 1, 8448
2, 199200, Pitch_bend_c, 1, 8448
2, 199200, Pitch_bend_c, 1, 8192
2, 199200, Note_off_c, 1, 62, 95
2, 199200, Pitch_bend_c, 1, 8448
2, 199200, Pitch_bend_c, 1, 8448
2, 199200, Pitch_bend_c, 1, 8192
2, 199200, Note_off_c, 1, 58, 95
2, 199200, Note_on_c, 0, 59, 95
2, 199200, Note_on_c, 0, 55, 95
2, 199680, Note_off_c, 0, 59, 95
2, 199680, Note_off_c, 0, 55, 95
2, 199680, Note_on_c, 1, 58, 95
2, 199680, Note_on_c, 1, 53, 95
2, 199800, Pitch_bend_c, 1, 8192
2, 199800, Pitch_bend_c, 1, 8192
2, 199920, Pitch_bend_c, 1, 8192
2, 199920, Pitch_bend_c, 1, 8192
2, 199920, Note_off_c, 1, 58, 95
2, 199920, Pitch_bend_c, 1, 8192
2, 199920, Pitch_bend_c, 1, 8192
2, 199920, Note_off_c, 1, 53, 95
2, 199920, Pitch_bend_c, 1, 8192
2, 199920, Note_on_c, 1, 58, 95
2, 199920, Pitch_bend_c, 1, 8192
2, 199920, Note_on_c, 1, 53, 95
2, 200040, Pitch_bend_c, 1, 8320
2, 200040, Pitch_bend_c, 1, 8320
2, 200160, Pitch_bend_c, 1, 8448
2, 200160, Pitch_bend_c, 1, 8448
2, 200160, Pitch_bend_c, 1, 8192
2, 200160, Note_off_c, 1, 58, 95
2, 200160, Pitch_bend_c, 1, 8448
2, 200160, Pitch_bend_c, 1, 8448
2, 200160, Pitch_bend_c, 1, 8192
2, 200160, Note_off_c, 1, 53, 95
2, 200160, Note_on_c, 1, 59, 95
2, 200160, Note_on_c, 1, 55, 95
2, 200280, Pitch_bend_c, 1, 8704
2, 200280, Pitch_bend_c, 1, 8704
2, 200400, Pitch_bend_c, 1, 9216
2, 200400, Pitch_bend_c, 1, 9216
2, 200520, Pitch_bend_c, 1, 9728
2, 200520, Pitch_bend_c, 1, 9728
2, 200640, Pitch_bend_c, 1, 10240
2, 200640, Pitch_bend_c, 1, 8192
2, 200640, Note_off_c, 1, 59, 95
2, 200640, Pitch_bend_c, 1, 10240
2, 200640, Pitch_bend_c, 1, 8192
2, 200640, Note_off_c, 1, 55, 95
2, 200640, Note_on_c, 0, 62, 95
2, 200640, Note_on_c, 0, 58, 95
2, 201120, Note_off_c, 0, 62, 95
2, 201120, Note_off_c, 0, 58, 95
2, 201120, Note_on_c, 0, 59, 95
2, 201120, Note_on_c, 0, 55, 95
2, 201360, Note_off_c, 0, 59, 95
2, 201360, Note_off_c, 0, 55, 95
2, 201360, Note_on_c, 0, 59, 95
2, 201360, Note_on_c, 0, 55, 95
2, 201840, Note_off_c, 0, 59, 95
2, 201840, Note_off_c, 0, 55, 95
2, 201840, Note_on_c, 0, 59, 95
2, 202080, Note_off_c, 0, 59, 95
2, 202080, Note_on_c, 0, 55, 95
2, 202560, Note_off_c, 0, 55, 95
2, 202560, Note_on_c, 1, 61, 95
2, 202560, Note_on_c, 1, 57, 95
2, 202680, Pitch_bend_c, 1, 8320
2, 202680, Pitch_bend_c, 1, 8320
2, 202800, Pitch_bend_c, 1, 8448
2, 202800, Pitch_bend_c, 1, 8448
2, 202920, Pitch_bend_c, 1, 8704
2, 202920, Pitch_bend_c, 1, 8704
2, 203040, Pitch_bend_c, 1, 8832
2, 203040, Pitch_bend_c, 1, 8192
2, 203040, Note_off_c, 1, 61, 95
2, 203040, Pitch_bend_c, 1, 8832
2, 203040, Pitch_bend_c, 1, 8192
2, 203040, Note_off_c, 1, 57, 95
2, 203040, Note_on_c, 0, 62, 95
2, 203040, Note_on_c, 0, 58, 95
2, 203280, Note_off_c, 0, 62, 95
2, 203280, Note_off_c, 0, 58, 95
2, 203280, Note_on_c, 0, 59, 95
2, 203280, Note_on_c, 0, 55, 95
2, 203520, Note_off_c, 0, 59, 95
2, 203520, Note_off_c, 0, 55, 95
2, 203520, Note_on_c, 1, 53, 95
2, 203640, Pitch_bend_c, 1, 8192
2, 203760, Pitch_bend_c, 1, 8192
2, 203760, Pitch_bend_c, 1, 8192
2, 203760, Note_off_c, 1, 53, 95
2, 203760, Note_on_c, 0, 53, 95
2, 204000, Note_off_c, 0, 53, 95
2, 204000, Note_on_c, 0, 55, 95
2, 204480, Note_off_c, 0, 55, 95
2, 204480, Note_on_c, 1, 58, 95
2, 204600, Pitch_bend_c, 1, 8192
2, 204720, Pitch_bend_c, 1, 8192
2, 204720, Pitch_bend_c, 1, 8192
2, 204720, Note_off_c, 1, 58, 95
2, 204720, Pitch_bend_c, 1, 8192
2, 204720, Note_on_c, 1, 58, 95
2, 204840, Pitch_bend_c, 1, 8320
2, 204960, Pitch_bend_c, 1, 8448
2, 204960, Pitch_bend_c, 1, 8448
2, 204960, Pitch_bend_c, 1, 8192
2, 204960, Note_off_c, 1, 58, 95
2, 204960, Note_on_c, 0, 55, 95
2, 205200, Note_off_c, 0, 55, 95
2, 205200, Note_on_c, 0, 55, 95
2, 205200, Note_on_c, 0, 50, 95
2, 205680, Note_off_c, 0, 55, 95
2, 205680, Note_off_c, 0, 50, 95
2, 205680, Note_on_c, 0, 55, 95
2, 205920, Note_off_c, 0, 55, 95
2, 205920, Note_on_c, 0, 50, 95
2, 206400, Note_off_c, 0, 50, 95
2, 206400, Note_on_c, 0, 55, 95
2, 206400, Note_on_c, 0, 50, 95
2, 206880, Note_off_c, 0, 55, 95
2, 206880, Note_off_c, 0, 50, 95
2, 206880, Note_on_c, 0, 43, 95
2, 207360, Note_off_c, 0, 43, 95
2, 207360, Note_on_c, 0, 67, 95
2, 207360, Note_on_c, 0, 64, 95
2, 207360, Note_on_c, 0, 60, 95
2, 207360, Note_on_c, 0, 55, 95
2, 207360, Note_on_c, 0, 48, 95
2, 207840, Note_off_c, 0, 67, 95
2, 207840, Note_off_c, 0, 64, 95
2, 207840, Note_off_c, 0, 60, 95
2, 207840, Note_off_c, 0, 55, 95
2, 207840, Note_off_c, 0, 48, 95
2, 207840, Note_on_c, 1, 64, 95
2, 207840, Note_on_c, 1, 60, 95
2, 207840, Note_on_c, 1, 55, 95
2, 207840, Note_on_c, 1, 48, 95
2, 208000, Pitch_bend_c, 1, 8192
2, 208000, Pitch_bend_c, 1, 8192
2, 208000, Pitch_bend_c, 1, 8192
2, 208000, Pitch_bend_c, 1, 8192
2, 208160, Pitch_bend_c, 1, 8320
2, 208160, Pitch_bend_c, 1, 8320
2, 208160, Pitch_bend_c, 1, 8320
2, 208160, Pitch_bend_c, 1, 8320
2, 208320, Pitch_bend_c, 1, 8192
2, 208320, Pitch_bend_c, 1, 8192
2, 208320, Pitch_bend_c, 1, 8192
2, 208320, Pitch_bend_c, 1, 8192
2, 208480, Pitch_bend_c, 1, 8320
2, 208480, Pitch_bend_c, 1, 8320
2, 208480, Pitch_bend_c, 1, 8320
2, 208480, Pitch_bend_c, 1, 8320
2, 208640, Pitch_bend_c, 1, 8192
2, 208640, Pitch_bend_c, 1, 8192
2, 208640, Pitch_bend_c, 1, 8192
2, 208640, Pitch_bend_c, 1, 8192
2, 208800, Pitch_bend_c, 1, 8320
2, 208800, Pitch_bend_c, 1, 8192
2, 208800, Note_off_c, 1, 64, 95
2, 208800, Pitch_bend_c, 1, 8320
2, 208800, Pitch_bend_c, 1, 8192
2, 208800, Note_off_c, 1, 60, 95
2, 208800, Pitch_bend_c, 1, 8320
2, 208800, Pitch_bend_c, 1, 8192
2, 208800, Note_off_c, 1, 55, 95
2, 208800, Pitch_bend_c, 1, 8320
2, 208800, Pitch_bend_c, 1, 8192
2, 208800, Note_off_c, 1, 48, 95
2, 208800, Note_on_c, 1, 67, 95
2, 208800, Note_on_c, 1, 64, 95
2, 208800, Note_on_c, 1, 60, 95
2, 208800, Note_on_c, 1, 55, 95
2, 208800, Note_on_c, 1, 48, 95
2, 208960, Pitch_bend_c, 1, 8192
2, 208960, Pitch_bend_c, 1, 8192
2, 208960, Pitch_bend_c, 1, 8192
2, 208960, Pitch_bend_c, 1, 8192
2, 208960, Pitch_bend_c, 1, 8192
2, 209120, Pitch_bend_c, 1, 8320
2, 209120, Pitch_bend_c, 1, 8320
2, 209120, Pitch_bend_c, 1, 8320
2, 209120, Pitch_bend_c, 1, 8320
2, 209120, Pitch_bend_c, 1, 8320
2, 209280, Pitch_bend_c, 1, 8192
2, 209280, Pitch_bend_c, 1, 8192
2, 209280, Pitch_bend_c, 1, 8192
2, 209280, Pitch_bend_c, 1, 8192
2, 209280, Pitch_bend_c, 1, 8192
2, 209440, Pitch_bend_c, 1, 8320
2, 209440, Pitch_bend_c, 1, 8320
2, 209440, Pitch_bend_c, 1, 8320
2, 209440, Pitch_bend_c, 1, 8320
2, 209440, Pitch_bend_c, 1, 8320
2, 209600, Pitch_bend_c, 1, 8192
2, 209600, Pitch_bend_c, 1, 8192
2, 209600, Pitch_bend_c, 1, 8192
2, 209600, Pitch_bend_c, 1, 8192
2, 209600, Pitch_bend_c, 1, 8192
2, 209760, Pitch_bend_c, 1, 8320
2, 209760, Pitch_bend_c, 1, 8192
2, 209760, Note_off_c, 1, 67, 95
2, 209760, Pitch_bend_c, 1, 8320
2, 209760, Pitch_bend_c, 1, 8192
2, 209760, Note_off_c, 1, 64, 95
2, 209760, Pitch_bend_c, 1, 8320
2, 209760, Pitch_bend_c, 1, 8192
2, 209760, Note_off_c, 1, 60, 95
2, 209760, Pitch_bend_c, 1, 8320
2, 209760, Pitch_bend_c, 1, 8192
2, 209760, Note_off_c, 1, 55, 95
2, 209760, Pitch_bend_c, 1, 8320
2, 209760, Pitch_bend_c, 1, 8192
2, 209760, Note_off_c, 1, 48, 95
2, 209760, Note_on_c, 1, 67, 95
2, 209760, Note_on_c, 1, 64, 95
2, 209760, Note_on_c, 1, 60, 95
2, 209760, Note_on_c, 1, 55, 95
2, 209760, Note_on_c, 1, 48, 95
2, 209920, Pitch_bend_c, 1, 8192
2, 209920, Pitch_bend_c, 1, 8192
2, 209920, Pitch_bend_c, 1, 8192
2, 209920, Pitch_bend_c, 1, 8192
2, 209920, Pitch_bend_c, 1, 8192
2, 210080, Pitch_bend_c, 1, 8320
2, 210080, Pitch_bend_c, 1, 8320
2, 210080, Pitch_bend_c, 1, 8320
2, 210080, Pitch_bend_c, 1, 8320
2, 210080, Pitch_bend_c, 1, 8320
2, 210240, Pitch_bend_c, 1, 8192
2, 210240, Pitch_bend_c, 1, 8192
2, 210240, Pitch_bend_c, 1, 8192
2, 210240, Pitch_bend_c, 1, 8192
2, 210240, Pitch_bend_c, 1, 8192
2, 210400, Pitch_bend_c, 1, 8320
2, 210400, Pitch_bend_c, 1, 8320
2, 210400, Pitch_bend_c, 1, 8320
2, 210400, Pitch_bend_c, 1, 8320
2, 210400, Pitch_bend_c, 1, 8320
2, 210560, Pitch_bend_c, 1, 8192
2, 210560, Pitch_bend_c, 1, 8192
2, 210560, Pitch_bend_c, 1, 8192
2, 210560, Pitch_bend_c, 1, 8192
2, 210560, Pitch_bend_c, 1, 8192
2, 210720, Pitch_bend_c, 1, 8320
2, 210720, Pitch_bend_c, 1, 8192
2, 210720, Note_off_c, 1, 67, 95
2, 210720, Pitch_bend_c, 1, 8320
2, 210720, Pitch_bend_c, 1, 8192
2, 210720, Note_off_c, 1, 64, 95
2, 210720, Pitch_bend_c, 1, 8320
2, 210720, Pitch_bend_c, 1, 8192
2, 210720, Note_off_c, 1, 60, 95
2, 210720, Pitch_bend_c, 1, 8320
2, 210720, Pitch_bend_c, 1, 8192
2, 210720, Note_off_c, 1, 55, 95
2, 210720, Pitch_bend_c, 1, 8320
2, 210720, Pitch_bend_c, 1, 8192
2, 210720, Note_off_c, 1, 48, 95
2, 210720, Note_on_c, 0, 67, 95
2, 210720, Note_on_c, 0, 64, 95
2, 210720, Note_on_c, 0, 60, 95
2, 210720, Note_on_c, 0, 55, 95
2, 210720, Note_on_c, 0, 48, 95
2, 211200, Note_off_c, 0, 67, 95
2, 211200, Note_off_c, 0, 64, 95
2, 211200, Note_off_c, 0, 60, 95
2, 211200, Note_off_c, 0, 55, 95
2, 211200, Note_off_c, 0, 48, 95
2, 211200, Note_on_c, 0, 67, 95
2, 211200, Note_on_c, 0, 64, 95
2, 211200, Note_on_c, 0, 60, 95
2, 211200, Note_on_c, 0, 55, 95
2, 211200, Note_on_c, 0, 48, 95
2, 211680, Note_off_c, 0, 67, 95
2, 211680, Note_off_c, 0, 64, 95
2, 211680, Note_off_c, 0, 60, 95
2, 211680, Note_off_c, 0, 55, 95
2, 211680, Note_off_c, 0, 48, 95
2, 211680, Note_on_c, 1, 67, 95
2, 211680, Note_on_c, 1, 64, 95
2, 211680, Note_on_c, 1, 60, 95
2, 211680, Note_on_c, 1, 55, 95
2, 211680, Note_on_c, 1, 48, 95
2, 211840, Pitch_bend_c, 1, 8192
2, 211840, Pitch_bend_c, 1, 8192
2, 211840, Pitch_bend_c, 1, 8192
2, 211840, Pitch_bend_c, 1, 8192
2, 211840, Pitch_bend_c, 1, 8192
2, 212000, Pitch_bend_c, 1, 8320
2, 212000, Pitch_bend_c, 1, 8320
2, 212000, Pitch_bend_c, 1, 8320
2, 212000, Pitch_bend_c, 1, 8320
2, 212000, Pitch_bend_c, 1, 8320
2, 212160, Pitch_bend_c, 1, 8192
2, 212160, Pitch_bend_c, 1, 8192
2, 212160, Pitch_bend_c, 1, 8192
2, 212160, Pitch_bend_c, 1, 8192
2, 212160, Pitch_bend_c, 1, 8192
2, 212320, Pitch_bend_c, 1, 8320
2, 212320, Pitch_bend_c, 1, 8320
2, 212320, Pitch_bend_c, 1, 8320
2, 212320, Pitch_bend_c, 1, 8320
2, 212320, Pitch_bend_c, 1, 8320
2, 212480, Pitch_bend_c, 1, 8192
2, 212480, Pitch_bend_c, 1, 8192
2, 212480, Pitch_bend_c, 1, 8192
2, 212480, Pitch_bend_c, 1, 8192
2, 212480, Pitch_bend_c, 1, 8192
2, 212640, Pitch_bend_c, 1, 8320
2, 212640, Pitch_bend_c, 1, 8192
2, 212640, Note_off_c, 1, 67, 95
2, 212640, Pitch_bend_c, 1, 8320
2, 212640, Pitch_bend_c, 1, 8192
2, 212640, Note_off_c, 1, 64, 95
2, 212640, Pitch_bend_c, 1, 8320
2, 212640, Pitch_bend_c, 1, 8192
2, 212640, Note_off_c, 1, 60, 95
2, 212640, Pitch_bend_c, 1, 8320
2, 212640, Pitch_bend_c, 1, 8192
2, 212640, Note_off_c, 1, 55, 95
2, 212640, Pitch_bend_c, 1, 8320
2, 212640, Pitch_bend_c, 1, 8192
2, 212640, Note_off_c, 1, 48, 95
2, 212640, Note_on_c, 1, 67, 95
2, 212640, Note_on_c, 1, 64, 95
2, 212640, Note_on_c, 1, 60, 95
2, 212640, Note_on_c, 1, 55, 95
2, 212640, Note_on_c, 1, 48, 95
2, 212800, Pitch_bend_c, 1, 8192
2, 212800, Pitch_bend_c, 1, 8192
2, 212800, Pitch_bend_c, 1, 8192
2, 212800, Pitch_bend_c, 1, 8192
2, 212800, Pitch_bend_c, 1, 8192
2, 212960, Pitch_bend_c, 1, 8320
2, 212960, Pitch_bend_c, 1, 8320
2, 212960, Pitch_bend_c, 1, 8320
2, 212960, Pitch_bend_c, 1, 8320
2, 212960, Pitch_bend_c, 1, 8320
2, 213120, Pitch_bend_c, 1, 8192
2, 213120, Pitch_bend_c, 1, 8192
2, 213120, Pitch_bend_c, 1, 8192
2, 213120, Pitch_bend_c, 1, 8192
2, 213120, Pitch_bend_c, 1, 8192
2, 213280, Pitch_bend_c, 1, 8320
2, 213280, Pitch_bend_c, 1, 8320
2, 213280, Pitch_bend_c, 1, 8320
2, 213280, Pitch_bend_c, 1, 8320
2, 213280, Pitch_bend_c, 1, 8320
2, 213440, Pitch_bend_c, 1, 8192
2, 213440, Pitch_bend_c, 1, 8192
2, 213440, Pitch_bend_c, 1, 8192
2, 213440, Pitch_bend_c, 1, 8192
2, 213440, Pitch_bend_c, 1, 8192
2, 213600, Pitch_bend_c, 1, 8320
2, 213600, Pitch_bend_c, 1, 8192
2, 213600, Note_off_c, 1, 67, 95
2, 213600, Pitch_bend_c, 1, 8320
2, 213600, Pitch_bend_c, 1, 8192
2, 213600, Note_off_c, 1, 64, 95
2, 213600, Pitch_bend_c, 1, 8320
2, 213600, Pitch_bend_c, 1, 8192
2, 213600, Note_off_c, 1, 60, 95
2, 213600, Pitch_bend_c, 1, 8320
2, 213600, Pitch_bend_c, 1, 8192
2, 213600, Note_off_c, 1, 55, 95
2, 213600, Pitch_bend_c, 1, 8320
2, 213600, Pitch_bend_c, 1, 8192
2, 213600, Note_off_c, 1, 48, 95
2, 213600, Note_on_c, 0, 67, 95
2, 213600, Note_on_c, 0, 64, 95
2, 213600, Note_on_c, 0, 60, 95
2, 213600, Note_on_c, 0, 55, 95
2, 213600, Note_on_c, 0, 48, 95
2, 214080, Note_off_c, 0, 67, 95
2, 214080, Note_off_c, 0, 64, 95
2, 214080, Note_off_c, 0, 60, 95
2, 214080, Note_off_c, 0, 55, 95
2, 214080, Note_off_c, 0, 48, 95
2, 214080, Pitch_bend_c, 1, 11648
2, 214080, Note_on_c, 1, 67, 95
2, 214080, Pitch_bend_c, 1, 11648
2, 214080, Note_on_c, 1, 64, 95
2, 214080, Pitch_bend_c, 1, 11648
2, 214080, Note_on_c, 1, 60, 95
2, 214080, Pitch_bend_c, 1, 11648
2, 214080, Note_on_c, 1, 55, 95
2, 214080, Pitch_bend_c, 1, 11648
2, 214080, Note_on_c, 1, 48, 95
2, 214320, Pitch_bend_c, 1, 11648
2, 214320, Pitch_bend_c, 1, 11648
2, 214320, Pitch_bend_c, 1, 11648
2, 214320, Pitch_bend_c, 1, 11648
2, 214320, Pitch_bend_c, 1, 11648
2, 214328, Pitch_bend_c, 1, 11520
2, 214328, Pitch_bend_c, 1, 11520
2, 214328, Pitch_bend_c, 1, 11520
2, 214328, Pitch_bend_c, 1, 11520
2, 214328, Pitch_bend_c, 1, 11520
2, 214336, Pitch_bend_c, 1, 11392
2, 214336, Pitch_bend_c, 1, 11392
2, 214336, Pitch_bend_c, 1, 11392
2, 214336, Pitch_bend_c, 1, 11392
2, 214336, Pitch_bend_c, 1, 11392
2, 214344, Pitch_bend_c, 1, 11264
2, 214344, Pitch_bend_c, 1, 11264
2, 214344, Pitch_bend_c, 1, 11264
2, 214344, Pitch_bend_c, 1, 11264
2, 214344, Pitch_bend_c, 1, 11264
2, 214352, Pitch_bend_c, 1, 11136
2, 214352, Pitch_bend_c, 1, 11136
2, 214352, Pitch_bend_c, 1, 11136
2, 214352, Pitch_bend_c, 1, 11136
2, 214352, Pitch_bend_c, 1, 11136
2, 214360, Pitch_bend_c, 1, 11008
2, 214360, Pitch_bend_c, 1, 11008
2, 214360, Pitch_bend_c, 1, 11008
2, 214360, Pitch_bend_c, 1, 11008
2, 214360, Pitch_bend_c, 1, 11008
2, 214368, Pitch_bend_c, 1, 10880
2, 214368, Pitch_bend_c, 1, 10880
2, 214368, Pitch_bend_c, 1, 10880
2, 214368, Pitch_bend_c, 1, 10880
2, 214368, Pitch_bend_c, 1, 10880
2, 214376, Pitch_bend_c, 1, 10752
2, 214376, Pitch_bend_c, 1, 10752
2, 214376, Pitch_bend_c, 1, 10752
2, 214376, Pitch_bend_c, 1, 10752
2, 214376, Pitch_bend_c, 1, 10752
2, 214384, Pitch_bend_c, 1, 10624
2, 214384, Pitch_bend_c, 1, 10624
2, 214384, Pitch_bend_c, 1, 10624
2, 214384, Pitch_bend_c, 1, 10624
2, 214384, Pitch_bend_c, 1, 10624
2, 214392, Pitch_bend_c, 1, 10496
2, 214392, Pitch_bend_c, 1, 10496
2, 214392, Pitch_bend_c, 1, 10496
2, 214392, Pitch_bend_c, 1, 10496
2, 214392, Pitch_bend_c, 1, 10496
2, 214400, Pitch_bend_c, 1, 10368
2, 214400, Pitch_bend_c, 1, 10368
2, 214400, Pitch_bend_c, 1, 10368
2, 214400, Pitch_bend_c, 1, 10368
2, 214400, Pitch_bend_c, 1, 10368
2, 214408, Pitch_bend_c, 1, 10240
2, 214408, Pitch_bend_c, 1, 10240
2, 214408, Pitch_bend_c, 1, 10240
2, 214408, Pitch_bend_c, 1, 10240
2, 214408, Pitch_bend_c, 1, 10240
2, 214416, Pitch_bend_c, 1, 10112
2, 214416, Pitch_bend_c, 1, 10112
2, 214416, Pitch_bend_c, 1, 10112
2, 214416, Pitch_bend_c, 1, 10112
2, 214416, Pitch_bend_c, 1, 10112
2, 214424, Pitch_bend_c, 1, 9984
2, 214424, Pitch_bend_c, 1, 9984
2, 214424, Pitch_bend_c, 1, 9984
2, 214424, Pitch_bend_c, 1, 9984
2, 214424, Pitch_bend_c, 1, 9984
2, 214432, Pitch_bend_c, 1, 9856
2, 214432, Pitch_bend_c, 1, 9856
2, 214432, Pitch_bend_c, 1, 9856
2, 214432, Pitch_bend_c, 1, 9856
2, 214432, Pitch_bend_c, 1, 9856
2, 214440, Pitch_bend_c, 1, 9728
2, 214440, Pitch_bend_c, 1, 9728
2, 214440, Pitch_bend_c, 1, 9728
2, 214440, Pitch_bend_c, 1, 9728
2, 214440, Pitch_bend_c, 1, 9728
2, 214448, Pitch_bend_c, 1, 9600
2, 214448, Pitch_bend_c, 1, 9600
2, 214448, Pitch_bend_c, 1, 9600
2, 214448, Pitch_bend_c, 1, 9600
2, 214448, Pitch_bend_c, 1, 9600
2, 214456, Pitch_bend_c, 1, 9472
2, 214456, Pitch_bend_c, 1, 9472
2, 214456, Pitch_bend_c, 1, 9472
2, 214456, Pitch_bend_c, 1, 9472
2, 214456, Pitch_bend_c, 1, 9472
2, 214464, Pitch_bend_c, 1, 9344
2, 214464, Pitch_bend_c, 1, 9344
2, 214464, Pitch_bend_c, 1, 9344
2, 214464, Pitch_bend_c, 1, 9344
2, 214464, Pitch_bend_c, 1, 9344
2, 214472, Pitch_bend_c, 1, 9216
2, 214472, Pitch_bend_c, 1, 9216
2, 214472, Pitch_bend_c, 1, 9216
2, 214472, Pitch_bend_c, 1, 9216
2, 214472, Pitch_bend_c, 1, 9216
2, 214480, Pitch_bend_c, 1, 9088
2, 214480, Pitch_bend_c, 1, 9088
2, 214480, Pitch_bend_c, 1, 9088
2, 214480, Pitch_bend_c, 1, 9088
2, 214480, Pitch_bend_c, 1, 9088
2, 214488, Pitch_bend_c, 1, 8960
2, 214488, Pitch_bend_c, 1, 8960
2, 214488, Pitch_bend_c, 1, 8960
2, 214488, Pitch_bend_c, 1, 8960
2, 214488, Pitch_bend_c, 1, 8960
2, 214496, Pitch_bend_c, 1, 8832
2, 214496, Pitch_bend_c, 1, 8832
2, 214496, Pitch_bend_c, 1, 8832
2, 214496, Pitch_bend_c, 1, 8832
2, 214496, Pitch_bend_c, 1, 8832
2, 214504, Pitch_bend_c, 1, 8704
2, 214504, Pitch_bend_c, 1, 8704
2, 214504, Pitch_bend_c, 1, 8704
2, 214504, Pitch_bend_c, 1, 8704
2, 214504, Pitch_bend_c, 1, 8704
2, 214512, Pitch_bend_c, 1, 8576
2, 214512, Pitch_bend_c, 1, 8576
2, 214512, Pitch_bend_c, 1, 8576
2, 214512, Pitch_bend_c, 1, 8576
2, 214512, Pitch_bend_c, 1, 8576
2, 214520, Pitch_bend_c, 1, 8448
2, 214520, Pitch_bend_c, 1, 8448
2, 214520, Pitch_bend_c, 1, 8448
2, 214520, Pitch_bend_c, 1, 8448
2, 214520, Pitch_bend_c, 1, 8448
2, 214528, Pitch_bend_c, 1, 8320
2, 214528, Pitch_bend_c, 1, 8320
2, 214528, Pitch_bend_c, 1, 8320
2, 214528, Pitch_bend_c, 1, 8320
2, 214528, Pitch_bend_c, 1, 8320
2, 214536, Pitch_bend_c, 1, 8192
2, 214536, Pitch_bend_c, 1, 8192
2, 214536, Pitch_bend_c, 1, 8192
2, 214536, Pitch_bend_c, 1, 8192
2, 214536, Pitch_bend_c, 1, 8192
2, 214560, Pitch_bend_c, 1, 8192
2, 214560, Pitch_bend_c, 1, 8192
2, 214560, Note_off_c, 1, 67, 95
2, 214560, Pitch_bend_c, 1, 8192
2, 214560, Pitch_bend_c, 1, 8192
2, 214560, Note_off_c, 1, 64, 95
2, 214560, Pitch_bend_c, 1, 8192
2, 214560, Pitch_bend_c, 1, 8192
2, 214560, Note_off_c, 1, 60, 95
2, 214560, Pitch_bend_c, 1, 8192
2, 214560, Pitch_bend_c, 1, 8192
2, 214560, Note_off_c, 1, 55, 95
2, 214560, Pitch_bend_c, 1, 8192
2, 214560, Pitch_bend_c, 1, 8192
2, 214560, Note_off_c, 1, 48, 95
2, 214560, Note_on_c, 0, 62, 95
2, 214560, Note_on_c, 0, 59, 95
2, 214560, Note_on_c, 0, 55, 95
2, 214800, Note_off_c, 0, 62, 95
2, 214800, Note_off_c, 0, 59, 95
2, 214800, Note_off_c, 0, 55, 95
2, 214800, Note_on_c, 0, 62, 95
2, 214800, Note_on_c, 0, 59, 95
2, 214800, Note_on_c, 0, 55, 95
2, 215040, Note_off_c, 0, 62, 95
2, 215040, Note_off_c, 0, 59, 95
2, 215040, Note_off_c, 0, 55, 95
2, 215520, Note_on_c, 0, 62, 95
2, 215520, Note_on_c, 0, 59, 95
2, 215520, Note_on_c, 0, 55, 95
2, 216000, Note_off_c, 0, 62, 95
2, 216000, Note_off_c, 0, 59, 95
2, 216000, Note_off_c, 0, 55, 95
2, 216000, Note_on_c, 1, 66, 95
2, 216000, Note_on_c, 1, 63, 95
2, 216120, Pitch_bend_c, 1, 8448
2, 216120, Pitch_bend_c, 1, 8448
2, 216240, Pitch_bend_c, 1, 8832
2, 216240, Pitch_bend_c, 1, 8192
2, 216240, Note_off_c, 1, 66, 95
2, 216240, Pitch_bend_c, 1, 8832
2, 216240, Pitch_bend_c, 1, 8192
2, 216240, Note_off_c, 1, 63, 95
2, 216240, Note_on_c, 0, 67, 95
2, 216240, Note_on_c, 0, 64, 95
2, 216480, Note_off_c, 0, 67, 95
2, 216480, Note_off_c, 0, 64, 95
2, 216480, Note_on_c, 0, 59, 95
2, 216480, Note_on_c, 0, 55, 95
2, 216720, Note_off_c, 0, 59, 95
2, 216720, Note_off_c, 0, 55, 95
2, 216720, Note_on_c, 0, 59, 95
2, 216720, Note_on_c, 0, 55, 95
2, 216960, Note_off_c, 0, 59, 95
2, 216960, Note_off_c, 0, 55, 95
2, 216960, Note_on_c, 1, 57, 95
2, 216960, Note_on_c, 1, 52, 95
2, 217080, Pitch_bend_c, 1, 8448
2, 217080, Pitch_bend_c, 1, 8448
2, 217200, Pitch_bend_c, 1, 8832
2, 217200, Pitch_bend_c, 1, 8192
2, 217200, Note_off_c, 1, 57, 95
2, 217200, Pitch_bend_c, 1, 8832
2, 217200, Pitch_bend_c, 1, 8192
2, 217200, Note_off_c, 1, 52, 95
2, 217200, Note_on_c, 0, 58, 95
2, 217200, Note_on_c, 0, 53, 95
2, 217440, Note_off_c, 0, 58, 95
2, 217440, Note_off_c, 0, 53, 95
2, 217440, Note_on_c, 0, 59, 95
2, 217440, Note_on_c, 0, 55, 95
2, 217920, Note_off_c, 0, 59, 95
2, 217920, Note_off_c, 0, 55, 95
2, 217920, Note_on_c, 1, 61, 95
2, 217920, Note_on_c, 1, 57, 95
2, 218040, Pitch_bend_c, 1, 8448
2, 218040, Pitch_bend_c, 1, 8448
2, 218160, Pitch_bend_c, 1, 8832
2, 218160, Pitch_bend_c, 1, 8192
2, 218160, Note_off_c, 1, 61, 95
2, 218160, Pitch_bend_c, 1, 8832
2, 218160, Pitch_bend_c, 1, 8192
2, 218160, Note_off_c, 1, 57, 95
2, 218160, Pitch_bend_c, 1, 8192
2, 218160, Note_on_c, 1, 62, 95
2, 218160, Pitch_bend_c, 1, 8192
2, 218160, Note_on_c, 1, 58, 95
2, 218280, Pitch_bend_c, 1, 8320
2, 218280, Pitch_bend_c, 1, 8320
2, 218400, Pitch_bend_c, 1, 8448
2, 218400, Pitch_bend_c, 1, 8448
2, 218400, Pitch_bend_c, 1, 8192
2, 218400, Note_off_c, 1, 62, 95
2, 218400, Pitch_bend_c, 1, 8448
2, 218400, Pitch_bend_c, 1, 8448
2, 218400, Pitch_bend_c, 1, 8192
2, 218400, Note_off_c, 1, 58, 95
2, 218400, Note_on_c, 0, 55, 95
2, 218640, Note_off_c, 0, 55, 95
2, 218640, Note_on_c, 0, 55, 95
2, 219360, Note_off_c, 0, 55, 95
2, 219360, Note_on_c, 0, 59, 95
2, 219360, Note_on_c, 0, 55, 95
2, 219840, Note_off_c, 0, 59, 95
2, 219840, Note_off_c, 0, 55, 95
2, 219840, Note_on_c, 1, 61, 95
2, 219840, Note_on_c, 1, 57, 95
2, 219960, Pitch_bend_c, 1, 8320
2, 219960, Pitch_bend_c, 1, 8320
2, 220080, Pitch_bend_c, 1, 8448
2, 220080, Pitch_bend_c, 1, 8448
2, 220200, Pitch_bend_c, 1, 8704
2, 220200, Pitch_bend_c, 1, 8704
2, 220320, Pitch_bend_c, 1, 8832
2, 220320, Pitch_bend_c, 1, 8192
2, 220320, Note_off_c, 1, 61, 95
2, 220320, Pitch_bend_c, 1, 8832
2, 220320, Pitch_bend_c, 1, 8192
2, 220320, Note_off_c, 1, 57, 95
2, 220320, Pitch_bend_c, 1, 8192
2, 220320, Note_on_c, 1, 62, 95
2, 220320, Pitch_bend_c, 1, 8192
2, 220320, Note_on_c, 1, 58, 95
2, 220440, Pitch_bend_c, 1, 8320
2, 220440, Pitch_bend_c, 1, 8320
2, 220560, Pitch_bend_c, 1, 8448
2, 220560, Pitch_bend_c, 1, 8448
2, 220560, Pitch_bend_c, 1, 8192
2, 220560, Note_off_c, 1, 62, 95
2, 220560, Pitch_bend_c, 1, 8448
2, 220560, Pitch_bend_c, 1, 8448
2, 220560, Pitch_bend_c, 1, 8192
2, 220560, Note_off_c, 1, 58, 95
2, 220560, Note_on_c, 0, 59, 95
2, 220560, Note_on_c, 0, 55, 95
2, 220800, Note_off_c, 0, 59, 95
2, 220800, Note_off_c, 0, 55, 95
2, 220800, Note_on_c, 1, 57, 95
2, 220800, Note_on_c, 1, 52, 95
2, 220920, Pitch_bend_c, 1, 8448
2, 220920, Pitch_bend_c, 1, 8448
2, 221040, Pitch_bend_c, 1, 8832
2, 221040, Pitch_bend_c, 1, 8192
2, 221040, Note_off_c, 1, 57, 95
2, 221040, Pitch_bend_c, 1, 8832
2, 221040, Pitch_bend_c, 1, 8192
2, 221040, Note_off_c, 1, 52, 95
2, 221040, Pitch_bend_c, 1, 8192
2, 221040, Note_on_c, 1, 58, 95
2, 221040, Pitch_bend_c, 1, 8192
2, 221040, Note_on_c, 1, 53, 95
2, 221160, Pitch_bend_c, 1, 8320
2, 221160, Pitch_bend_c, 1, 8320
2, 221280, Pitch_bend_c, 1, 8448
2, 221280, Pitch_bend_c, 1, 8448
2, 221280, Pitch_bend_c, 1, 8192
2, 221280, Note_off_c, 1, 58, 95
2, 221280, Pitch_bend_c, 1, 8448
2, 221280, Pitch_bend_c, 1, 8448
2, 221280, Pitch_bend_c, 1, 8192
2, 221280, Note_off_c, 1, 53, 95
2, 221280, Note_on_c, 0, 59, 95
2, 221280, Note_on_c, 0, 55, 95
2, 221760, Note_off_c, 0, 59, 95
2, 221760, Note_off_c, 0, 55, 95
2, 221760, Note_on_c, 1, 61, 95
2, 221760, Note_on_c, 1, 57, 95
2, 221880, Pitch_bend_c, 1, 8448
2, 221880, Pitch_bend_c, 1, 8448
2, 222000, Pitch_bend_c, 1, 8832
2, 222000, Pitch_bend_c, 1, 8192
2, 222000, Note_off_c, 1, 61, 95
2, 222000, Pitch_bend_c, 1, 8832
2, 222000, Pitch_bend_c, 1, 8192
2, 222000, Note_off_c, 1, 57, 95
2, 222000, Pitch_bend_c, 1, 8192
2, 222000, Note_on_c, 1, 62, 95
2, 222000, Pitch_bend_c, 1, 8192
2, 222000, Note_on_c, 1, 58, 95
2, 222120, Pitch_bend_c, 1, 8320
2, 222120, Pitch_bend_c, 1, 8320
2, 222240, Pitch_bend_c, 1, 8448
2, 222240, Pitch_bend_c, 1, 8448
2, 222240, Pitch_bend_c, 1, 8192
2, 222240, Note_off_c, 1, 62, 95
2, 222240, Pitch_bend_c, 1, 8448
2, 222240, Pitch_bend_c, 1, 8448
2, 222240, Pitch_bend_c, 1, 8192
2, 222240, Note_off_c, 1, 58, 95
2, 222240, Note_on_c, 0, 55, 95
2, 222480, Note_off_c, 0, 55, 95
2, 222480, Note_on_c, 0, 59, 95
2, 222960, Note_off_c, 0, 59, 95
2, 222960, Note_on_c, 0, 59, 95
2, 223200, Note_off_c, 0, 59, 95
2, 223200, Note_on_c, 0, 55, 95
2, 223680, Note_off_c, 0, 55, 95
2, 223680, Note_on_c, 1, 61, 95
2, 223680, Note_on_c, 1, 57, 95
2, 223800, Pitch_bend_c, 1, 8320
2, 223800, Pitch_bend_c, 1, 8320
2, 223920, Pitch_bend_c, 1, 8448
2, 223920, Pitch_bend_c, 1, 8448
2, 224040, Pitch_bend_c, 1, 8704
2, 224040, Pitch_bend_c, 1, 8704
2, 224160, Pitch_bend_c, 1, 8832
2, 224160, Pitch_bend_c, 1, 8192
2, 224160, Note_off_c, 1, 61, 95
2, 224160, Pitch_bend_c, 1, 8832
2, 224160, Pitch_bend_c, 1, 8192
2, 224160, Note_off_c, 1, 57, 95
2, 224160, Pitch_bend_c, 1, 8192
2, 224160, Note_on_c, 1, 62, 95
2, 224160, Pitch_bend_c, 1, 8192
2, 224160, Note_on_c, 1, 58, 95
2, 224280, Pitch_bend_c, 1, 8320
2, 224280, Pitch_bend_c, 1, 8320
2, 224400, Pitch_bend_c, 1, 8448
2, 224400, Pitch_bend_c, 1, 8448
2, 224400, Pitch_bend_c, 1, 8192
2, 224400, Note_off_c, 1, 62, 95
2, 224400, Pitch_bend_c, 1, 8448
2, 224400, Pitch_bend_c, 1, 8448
2, 224400, Pitch_bend_c, 1, 8192
2, 224400, Note_off_c, 1, 58, 95
2, 224400, Note_on_c, 0, 59, 95
2, 224400, Note_on_c, 0, 55, 95
2, 224640, Note_off_c, 0, 59, 95
2, 224640, Note_off_c, 0, 55, 95
2, 224640, Note_on_c, 1, 57, 95
2, 224640, Note_on_c, 1, 52, 95
2, 224760, Pitch_bend_c, 1, 8448
2, 224760, Pitch_bend_c, 1, 8448
2, 224880, Pitch_bend_c, 1, 8832
2, 224880, Pitch_bend_c, 1, 8192
2, 224880, Note_off_c, 1, 57, 95
2, 224880, Pitch_bend_c, 1, 8832
2, 224880, Pitch_bend_c, 1, 8192
2, 224880, Note_off_c, 1, 52, 95
2, 224880, Pitch_bend_c, 1, 8192
2, 224880, Note_on_c, 1, 58, 95
2, 224880, Pitch_bend_c, 1, 8192
2, 224880, Note_on_c, 1, 53, 95
2, 225000, Pitch_bend_c, 1, 8320
2, 225000, Pitch_bend_c, 1, 8320
2, 225120, Pitch_bend_c, 1, 8448
2, 225120, Pitch_bend_c, 1, 8448
2, 225120, Pitch_bend_c, 1, 8192
2, 225120, Note_off_c, 1, 58, 95
2, 225120, Pitch_bend_c, 1, 8448
2, 225120, Pitch_bend_c, 1, 8448
2, 225120, Pitch_bend_c, 1, 8192
2, 225120, Note_off_c, 1, 53, 95
2, 225120, Note_on_c, 0, 59, 95
2, 225120, Note_on_c, 0, 55, 95
2, 225600, Note_off_c, 0, 59, 95
2, 225600, Note_off_c, 0, 55, 95
2, 225600, Note_on_c, 1, 61, 95
2, 225600, Note_on_c, 1, 57, 95
2, 225720, Pitch_bend_c, 1, 8448
2, 225720, Pitch_bend_c, 1, 8448
2, 225840, Pitch_bend_c, 1, 8832
2, 225840, Pitch_bend_c, 1, 8192
2, 225840, Note_off_c, 1, 61, 95
2, 225840, Pitch_bend_c, 1, 8832
2, 225840, Pitch_bend_c, 1, 8192
2, 225840, Note_off_c, 1, 57, 95
2, 225840, Pitch_bend_c, 1, 8192
2, 225840, Note_on_c, 1, 62, 95
2, 225840, Pitch_bend_c, 1, 8192
2, 225840, Note_on_c, 1, 58, 95
2, 225960, Pitch_bend_c, 1, 8320
2, 225960, Pitch_bend_c, 1, 8320
2, 226080, Pitch_bend_c, 1, 8448
2, 226080, Pitch_bend_c, 1, 8448
2, 226080, Pitch_bend_c, 1, 8192
2, 226080, Note_off_c, 1, 62, 95
2, 226080, Pitch_bend_c, 1, 8448
2, 226080, Pitch_bend_c, 1, 8448
2, 226080, Pitch_bend_c, 1, 8192
2, 226080, Note_off_c, 1, 58, 95
2, 226080, Note_on_c, 0, 55, 95
2, 226320, Note_off_c, 0, 55, 95
2, 226320, Note_on_c, 0, 59, 95
2, 226320, Note_on_c, 0, 55, 95
2, 227040, Note_off_c, 0, 59, 95
2, 227040, Note_off_c, 0, 55, 95
2, 227040, Note_on_c, 0, 59, 95
2, 227280, Note_off_c, 0, 59, 95
2, 227280, Note_on_c, 0, 55, 95
2, 227280, Note_on_c, 0, 50, 95
2, 228480, Note_off_c, 0, 55, 95
2, 228480, Note_off_c, 0, 50, 95
2, 228480, Note_on_c, 0, 67, 95
2, 228480, Note_on_c, 0, 64, 95
2, 228480, Note_on_c, 0, 60, 95
2, 228480, Note_on_c, 0, 55, 95
2, 228480, Note_on_c, 0, 48, 95
2, 228960, Note_off_c, 0, 67, 95
2, 228960, Note_off_c, 0, 64, 95
2, 228960, Note_off_c, 0, 60, 95
2, 228960, Note_off_c, 0, 55, 95
2, 228960, Note_off_c, 0, 48, 95
2, 228960, Note_on_c, 0, 67, 95
2, 228960, Note_on_c, 0, 64, 95
2, 228960, Note_on_c, 0, 60, 95
2, 228960, Note_on_c, 0, 55, 95
2, 229200, Note_off_c, 0, 67, 95
2, 229200, Note_off_c, 0, 64, 95
2, 229200, Note_off_c, 0, 60, 95
2, 229200, Note_off_c, 0, 55, 95
2, 229200, Note_on_c, 0, 67, 95
2, 229200, Note_on_c, 0, 64, 95
2, 229200, Note_on_c, 0, 60, 95
2, 229200, Note_on_c, 0, 55, 95
2, 229440, Note_off_c, 0, 67, 95
2, 229440, Note_off_c, 0, 64, 95
2, 229440, Note_off_c, 0, 60, 95
2, 229440, Note_off_c, 0, 55, 95
2, 229440, Note_on_c, 0, 67, 95
2, 229440, Note_on_c, 0, 64, 95
2, 229440, Note_on_c, 0, 60, 95
2, 229440, Note_on_c, 0, 55, 95
2, 229440, Note_on_c, 0, 48, 95
2, 229920, Note_off_c, 0, 67, 95
2, 229920, Note_off_c, 0, 64, 95
2, 229920, Note_off_c, 0, 60, 95
2, 229920, Note_off_c, 0, 55, 95
2, 229920, Note_off_c, 0, 48, 95
2, 229920, Note_on_c, 1, 67, 95
2, 229920, Note_on_c, 1, 64, 95
2, 229920, Note_on_c, 1, 60, 95
2, 229920, Note_on_c, 1, 55, 95
2, 229920, Note_on_c, 1, 48, 95
2, 230080, Pitch_bend_c, 1, 8192
2, 230080, Pitch_bend_c, 1, 8192
2, 230080, Pitch_bend_c, 1, 8192
2, 230080, Pitch_bend_c, 1, 8192
2, 230080, Pitch_bend_c, 1, 8192
2, 230240, Pitch_bend_c, 1, 8320
2, 230240, Pitch_bend_c, 1, 8320
2, 230240, Pitch_bend_c, 1, 8320
2, 230240, Pitch_bend_c, 1, 8320
2, 230240, Pitch_bend_c, 1, 8320
2, 230400, Pitch_bend_c, 1, 8192
2, 230400, Pitch_bend_c, 1, 8192
2, 230400, Pitch_bend_c, 1, 8192
2, 230400, Pitch_bend_c, 1, 8192
2, 230400, Pitch_bend_c, 1, 8192
2, 230560, Pitch_bend_c, 1, 8320
2, 230560, Pitch_bend_c, 1, 8320
2, 230560, Pitch_bend_c, 1, 8320
2, 230560, Pitch_bend_c, 1, 8320
2, 230560, Pitch_bend_c, 1, 8320
2, 230720, Pitch_bend_c, 1, 8192
2, 230720, Pitch_bend_c, 1, 8192
2, 230720, Pitch_bend_c, 1, 8192
2, 230720, Pitch_bend_c, 1, 8192
2, 230720, Pitch_bend_c, 1, 8192
2, 230880, Pitch_bend_c, 1, 8320
2, 230880, Pitch_bend_c, 1, 8192
2, 230880, Note_off_c, 1, 67, 95
2, 230880, Pitch_bend_c, 1, 8320
2, 230880, Pitch_bend_c, 1, 8192
2, 230880, Note_off_c, 1, 64, 95
2, 230880, Pitch_bend_c, 1, 8320
2, 230880, Pitch_bend_c, 1, 8192
2, 230880, Note_off_c, 1, 60, 95
2, 230880, Pitch_bend_c, 1, 8320
2, 230880, Pitch_bend_c, 1, 8192
2, 230880, Note_off_c, 1, 55, 95
2, 230880, Pitch_bend_c, 1, 8320
2, 230880, Pitch_bend_c, 1, 8192
2, 230880, Note_off_c, 1, 48, 95
2, 230880, Note_on_c, 0, 67, 95
2, 230880, Note_on_c, 0, 64, 95
2, 230880, Note_on_c, 0, 60, 95
2, 230880, Note_on_c, 0, 55, 95
2, 231120, Note_off_c, 0, 67, 95
2, 231120, Note_off_c, 0, 64, 95
2, 231120, Note_off_c, 0, 60, 95
2, 231120, Note_off_c, 0, 55, 95
2, 231120, Note_on_c, 0, 67, 95
2, 231120, Note_on_c, 0, 64, 95
2, 231120, Note_on_c, 0, 60, 95
2, 231120, Note_on_c, 0, 55, 95
2, 231360, Note_off_c, 0, 67, 95
2, 231360, Note_off_c, 0, 64, 95
2, 231360, Note_off_c, 0, 60, 95
2, 231360, Note_off_c, 0, 55, 95
2, 231360, Note_on_c, 0, 67, 95
2, 231360, Note_on_c, 0, 64, 95
2, 231360, Note_on_c, 0, 60, 95
2, 231360, Note_on_c, 0, 55, 95
2, 231360, Note_on_c, 0, 48, 95
2, 231600, Note_off_c, 0, 67, 95
2, 231600, Note_off_c, 0, 64, 95
2, 231600, Note_off_c, 0, 60, 95
2, 231600, Note_off_c, 0, 55, 95
2, 231600, Note_off_c, 0, 48, 95
2, 231600, Note_on_c, 0, 67, 95
2, 231600, Note_on_c, 0, 64, 95
2, 231600, Note_on_c, 0, 60, 95
2, 231600, Note_on_c, 0, 55, 95
2, 231840, Note_off_c, 0, 67, 95
2, 231840, Note_off_c, 0, 64, 95
2, 231840, Note_off_c, 0, 60, 95
2, 231840, Note_off_c, 0, 55, 95
2, 231840, Note_on_c, 0, 67, 95
2, 231840, Note_on_c, 0, 64, 95
2, 231840, Note_on_c, 0, 60, 95
2, 231840, Note_on_c, 0, 55, 95
2, 232080, Note_off_c, 0, 67, 95
2, 232080, Note_off_c, 0, 64, 95
2, 232080, Note_off_c, 0, 60, 95
2, 232080, Note_off_c, 0, 55, 95
2, 232080, Note_on_c, 0, 67, 95
2, 232080, Note_on_c, 0, 64, 95
2, 232080, Note_on_c, 0, 60, 95
2, 232080, Note_on_c, 0, 55, 95
2, 232320, Note_off_c, 0, 67, 95
2, 232320, Note_off_c, 0, 64, 95
2, 232320, Note_off_c, 0, 60, 95
2, 232320, Note_off_c, 0, 55, 95
2, 232320, Note_on_c, 0, 67, 95
2, 232320, Note_on_c, 0, 64, 95
2, 232320, Note_on_c, 0, 60, 95
2, 232320, Note_on_c, 0, 55, 95
2, 232320, Note_on_c, 0, 48, 95
2, 232800, Note_off_c, 0, 67, 95
2, 232800, Note_off_c, 0, 64, 95
2, 232800, Note_off_c, 0, 60, 95
2, 232800, Note_off_c, 0, 55, 95
2, 232800, Note_off_c, 0, 48, 95
2, 232800, Note_on_c, 0, 67, 95
2, 232800, Note_on_c, 0, 64, 95
2, 232800, Note_on_c, 0, 60, 95
2, 232800, Note_on_c, 0, 55, 95
2, 233040, Note_off_c, 0, 67, 95
2, 233040, Note_off_c, 0, 64, 95
2, 233040, Note_off_c, 0, 60, 95
2, 233040, Note_off_c, 0, 55, 95
2, 233040, Note_on_c, 0, 67, 95
2, 233040, Note_on_c, 0, 64, 95
2, 233040, Note_on_c, 0, 60, 95
2, 233040, Note_on_c, 0, 55, 95
2, 233280, Note_off_c, 0, 67, 95
2, 233280, Note_off_c, 0, 64, 95
2, 233280, Note_off_c, 0, 60, 95
2, 233280, Note_off_c, 0, 55, 95
2, 233280, Note_on_c, 0, 67, 95
2, 233280, Note_on_c, 0, 64, 95
2, 233280, Note_on_c, 0, 60, 95
2, 233280, Note_on_c, 0, 55, 95
2, 233280, Note_on_c, 0, 48, 95
2, 233760, Note_off_c, 0, 67, 95
2, 233760, Note_off_c, 0, 64, 95
2, 233760, Note_off_c, 0, 60, 95
2, 233760, Note_off_c, 0, 55, 95
2, 233760, Note_off_c, 0, 48, 95
2, 233760, Note_on_c, 0, 67, 95
2, 233760, Note_on_c, 0, 64, 95
2, 233760, Note_on_c, 0, 60, 95
2, 233760, Note_on_c, 0, 55, 95
2, 234000, Note_off_c, 0, 67, 95
2, 234000, Note_off_c, 0, 64, 95
2, 234000, Note_off_c, 0, 60, 95
2, 234000, Note_off_c, 0, 55, 95
2, 234000, Note_on_c, 0, 67, 95
2, 234000, Note_on_c, 0, 64, 95
2, 234000, Note_on_c, 0, 60, 95
2, 234000, Note_on_c, 0, 55, 95
2, 234240, Note_off_c, 0, 67, 95
2, 234240, Note_off_c, 0, 64, 95
2, 234240, Note_off_c, 0, 60, 95
2, 234240, Note_off_c, 0, 55, 95
2, 234240, Note_on_c, 0, 67, 95
2, 234240, Note_on_c, 0, 64, 95
2, 234240, Note_on_c, 0, 60, 95
2, 234240, Note_on_c, 0, 55, 95
2, 234240, Note_on_c, 0, 48, 95
2, 234720, Note_off_c, 0, 67, 95
2, 234720, Note_off_c, 0, 64, 95
2, 234720, Note_off_c, 0, 60, 95
2, 234720, Note_off_c, 0, 55, 95
2, 234720, Note_off_c, 0, 48, 95
2, 234720, Note_on_c, 0, 67, 95
2, 234720, Note_on_c, 0, 64, 95
2, 234720, Note_on_c, 0, 60, 95
2, 234720, Note_on_c, 0, 55, 95
2, 234960, Note_off_c, 0, 67, 95
2, 234960, Note_off_c, 0, 64, 95
2, 234960, Note_off_c, 0, 60, 95
2, 234960, Note_off_c, 0, 55, 95
2, 234960, Note_on_c, 0, 67, 95
2, 234960, Note_on_c, 0, 64, 95
2, 234960, Note_on_c, 0, 60, 95
2, 234960, Note_on_c, 0, 55, 95
2, 235200, Note_off_c, 0, 67, 95
2, 235200, Note_off_c, 0, 64, 95
2, 235200, Note_off_c, 0, 60, 95
2, 235200, Note_off_c, 0, 55, 95
2, 235200, Note_on_c, 0, 67, 95
2, 235200, Note_on_c, 0, 64, 95
2, 235200, Note_on_c, 0, 60, 95
2, 235200, Note_on_c, 0, 55, 95
2, 235200, Note_on_c, 0, 48, 95
2, 235440, Note_off_c, 0, 67, 95
2, 235440, Note_off_c, 0, 64, 95
2, 235440, Note_off_c, 0, 60, 95
2, 235440, Note_off_c, 0, 55, 95
2, 235440, Note_off_c, 0, 48, 95
2, 235440, Note_on_c, 0, 67, 95
2, 235440, Note_on_c, 0, 64, 95
2, 235440, Note_on_c, 0, 60, 95
2, 235440, Note_on_c, 0, 55, 95
2, 235680, Note_off_c, 0, 67, 95
2, 235680, Note_off_c, 0, 64, 95
2, 235680, Note_off_c, 0, 60, 95
2, 235680, Note_off_c, 0, 55, 95
2, 235680, Note_on_c, 0, 67, 95
2, 235680, Note_on_c, 0, 64, 95
2, 235680, Note_on_c, 0, 60, 95
2, 235680, Note_on_c, 0, 55, 95
2, 235920, Note_off_c, 0, 67, 95
2, 235920, Note_off_c, 0, 64, 95
2, 235920, Note_off_c, 0, 60, 95
2, 235920, Note_off_c, 0, 55, 95
2, 235920, Note_on_c, 0, 62, 95
2, 235920, Note_on_c, 0, 59, 95
2, 235920, Note_on_c, 0, 55, 95
2, 235920, Note_on_c, 0, 50, 95
2, 236160, Note_off_c, 0, 62, 95
2, 236160, Note_off_c, 0, 59, 95
2, 236160, Note_off_c, 0, 55, 95
2, 236160, Note_off_c, 0, 50, 95
2, 236160, Note_on_c, 0, 62, 95
2, 236160, Note_on_c, 0, 59, 95
2, 236160, Note_on_c, 0, 55, 95
2, 236160, Note_on_c, 0, 50, 95
2, 236640, Note_off_c, 0, 62, 95
2, 236640, Note_off_c, 0, 59, 95
2, 236640, Note_off_c, 0, 55, 95
2, 236640, Note_off_c, 0, 50, 95
2, 236640, Note_on_c, 0, 59, 95
2, 236640, Note_on_c, 0, 55, 95
2, 237120, Note_off_c, 0, 59, 95
2, 237120, Note_off_c, 0, 55, 95
2, 237120, Pitch_bend_c, 1, 8192
2, 237120, Note_on_c, 1, 59, 95
2, 237120, Pitch_bend_c, 1, 8192
2, 237120, Note_on_c, 1, 55, 95
2, 237157, Pitch_bend_c, 1, 8320
2, 237157, Pitch_bend_c, 1, 8320
2, 237194, Pitch_bend_c, 1, 8448
2, 237194, Pitch_bend_c, 1, 8448
2, 237231, Pitch_bend_c, 1, 8576
2, 237231, Pitch_bend_c, 1, 8576
2, 237268, Pitch_bend_c, 1, 8704
2, 237268, Pitch_bend_c, 1, 8704
2, 237305, Pitch_bend_c, 1, 8832
2, 237305, Pitch_bend_c, 1, 8832
2, 237342, Pitch_bend_c, 1, 8960
2, 237342, Pitch_bend_c, 1, 8960
2, 237379, Pitch_bend_c, 1, 9088
2, 237379, Pitch_bend_c, 1, 9088
2, 237416, Pitch_bend_c, 1, 9216
2, 237416, Pitch_bend_c, 1, 9216
2, 237453, Pitch_bend_c, 1, 9344
2, 237453, Pitch_bend_c, 1, 9344
2, 237490, Pitch_bend_c, 1, 9472
2, 237490, Pitch_bend_c, 1, 9472
2, 237527, Pitch_bend_c, 1, 9600
2, 237527, Pitch_bend_c, 1, 9600
2, 237564, Pitch_bend_c, 1, 9728
2, 237564, Pitch_bend_c, 1, 9728
2, 237601, Pitch_bend_c, 1, 9856
2, 237601, Pitch_bend_c, 1, 9856
2, 237638, Pitch_bend_c, 1, 9984
2, 237638, Pitch_bend_c, 1, 9984
2, 237675, Pitch_bend_c, 1, 10112
2, 237675, Pitch_bend_c, 1, 10112
2, 237712, Pitch_bend_c, 1, 10240
2, 237712, Pitch_bend_c, 1, 10240
2, 237749, Pitch_bend_c, 1, 10368
2, 237749, Pitch_bend_c, 1, 10368
2, 237786, Pitch_bend_c, 1, 10496
2, 237786, Pitch_bend_c, 1, 10496
2, 237823, Pitch_bend_c, 1, 10624
2, 237823, Pitch_bend_c, 1, 10624
2, 237840, Pitch_bend_c, 1, 10624
2, 237840, Pitch_bend_c, 1, 8192
2, 237840, Note_off_c, 1, 59, 95
2, 237840, Pitch_bend_c, 1, 10624
2, 237840, Pitch_bend_c, 1, 8192
2, 237840, Note_off_c, 1, 55, 95
2, 237840, Note_on_c, 0, 59, 95
2, 237840, Note_on_c, 0, 55, 95
2, 238080, Note_off_c, 0, 59, 95
2, 238080, Note_off_c, 0, 55, 95
2, 238080, Note_on_c, 1, 53, 95
2, 238200, Pitch_bend_c, 1, 8192
2, 238320, Pitch_bend_c, 1, 8192
2, 238320, Pitch_bend_c, 1, 8192
2, 238320, Note_off_c, 1, 53, 95
2, 238320, Pitch_bend_c, 1, 8192
2, 238320, Note_on_c, 1, 53, 95
2, 238440, Pitch_bend_c, 1, 8320
2, 238560, Pitch_bend_c, 1, 8448
2, 238560, Pitch_bend_c, 1, 8448
2, 238560, Pitch_bend_c, 1, 8192
2, 238560, Note_off_c, 1, 53, 95
2, 238560, Note_on_c, 0, 59, 95
2, 238560, Note_on_c, 0, 55, 95
2, 239040, Note_off_c, 0, 59, 95
2, 239040, Note_off_c, 0, 55, 95
2, 239040, Note_on_c, 1, 58, 95
2, 239160, Pitch_bend_c, 1, 8192
2, 239280, Pitch_bend_c, 1, 8192
2, 239280, Pitch_bend_c, 1, 8192
2, 239280, Note_off_c, 1, 58, 95
2, 239280, Pitch_bend_c, 1, 8192
2, 239280, Note_on_c, 1, 58, 95
2, 239400, Pitch_bend_c, 1, 8320
2, 239520, Pitch_bend_c, 1, 8448
2, 239520, Pitch_bend_c, 1, 8448
2, 239520, Pitch_bend_c, 1, 8192
2, 239520, Note_off_c, 1, 58, 95
2, 239520, Note_on_c, 0, 59, 95
2, 239520, Note_on_c, 0, 55, 95
2, 239760, Note_off_c, 0, 59, 95
2, 239760, Note_off_c, 0, 55, 95
2, 239760, Note_on_c, 0, 59, 95
2, 239760, Note_on_c, 0, 55, 95
2, 240480, Note_off_c, 0, 59, 95
2, 240480, Note_off_c, 0, 55, 95
2, 240480, Note_on_c, 0, 59, 95
2, 240480, Note_on_c, 0, 55, 95
2, 240960, Note_off_c, 0, 59, 95
2, 240960, Note_off_c, 0, 55, 95
2, 240960, Note_on_c, 1, 61, 95
2, 240960, Note_on_c, 1, 57, 95
2, 241080, Pitch_bend_c, 1, 8320
2, 241080, Pitch_bend_c, 1, 8320
2, 241200, Pitch_bend_c, 1, 8448
2, 241200, Pitch_bend_c, 1, 8448
2, 241320, Pitch_bend_c, 1, 8704
2, 241320, Pitch_bend_c, 1, 8704
2, 241440, Pitch_bend_c, 1, 8832
2, 241440, Pitch_bend_c, 1, 8192
2, 241440, Note_off_c, 1, 61, 95
2, 241440, Pitch_bend_c, 1, 8832
2, 241440, Pitch_bend_c, 1, 8192
2, 241440, Note_off_c, 1, 57, 95
2, 241440, Pitch_bend_c, 1, 8192
2, 241440, Note_on_c, 1, 62, 95
2, 241440, Pitch_bend_c, 1, 8192
2, 241440, Note_on_c, 1, 58, 95
2, 241560, Pitch_bend_c, 1, 8320
2, 241560, Pitch_bend_c, 1, 8320
2, 241680, Pitch_bend_c, 1, 8448
2, 241680, Pitch_bend_c, 1, 8448
2, 241680, Pitch_bend_c, 1, 8192
2, 241680, Note_off_c, 1, 62, 95
2, 241680, Pitch_bend_c, 1, 8448
2, 241680, Pitch_bend_c, 1, 8448
2, 241680, Pitch_bend_c, 1, 8192
2, 241680, Note_off_c, 1, 58, 95
2, 241680, Note_on_c, 0, 59, 95
2, 241680, Note_on_c, 0, 55, 95
2, 241920, Note_off_c, 0, 59, 95
2, 241920, Note_off_c, 0, 55, 95
2, 241920, Note_on_c, 1, 52, 95
2, 242040, Pitch_bend_c, 1, 8448
2, 242160, Pitch_bend_c, 1, 8832
2, 242160, Pitch_bend_c, 1, 8192
2, 242160, Note_off_c, 1, 52, 95
2, 242160, Pitch_bend_c, 1, 8192
2, 242160, Note_on_c, 1, 53, 95
2, 242280, Pitch_bend_c, 1, 8320
2, 242400, Pitch_bend_c, 1, 8448
2, 242400, Pitch_bend_c, 1, 8448
2, 242400, Pitch_bend_c, 1, 8192
2, 242400, Note_off_c, 1, 53, 95
2, 242400, Note_on_c, 0, 59, 95
2, 242400, Note_on_c, 0, 55, 95
2, 242880, Note_off_c, 0, 59, 95
2, 242880, Note_off_c, 0, 55, 95
2, 242880, Note_on_c, 1, 57, 95
2, 242880, Note_on_c, 1, 52, 95
2, 243000, Pitch_bend_c, 1, 8448
2, 243000, Pitch_bend_c, 1, 8448
2, 243120, Pitch_bend_c, 1, 8832
2, 243120, Pitch_bend_c, 1, 8192
2, 243120, Note_off_c, 1, 57, 95
2, 243120, Pitch_bend_c, 1, 8832
2, 243120, Pitch_bend_c, 1, 8192
2, 243120, Note_off_c, 1, 52, 95
2, 243120, Pitch_bend_c, 1, 8192
2, 243120, Note_on_c, 1, 58, 95
2, 243120, Pitch_bend_c, 1, 8192
2, 243120, Note_on_c, 1, 53, 95
2, 243240, Pitch_bend_c, 1, 8320
2, 243240, Pitch_bend_c, 1, 8320
2, 243360, Pitch_bend_c, 1, 8448
2, 243360, Pitch_bend_c, 1, 8448
2, 243360, Pitch_bend_c, 1, 8192
2, 243360, Note_off_c, 1, 58, 95
2, 243360, Pitch_bend_c, 1, 8448
2, 243360, Pitch_bend_c, 1, 8448
2, 243360, Pitch_bend_c, 1, 8192
2, 243360, Note_off_c, 1, 53, 95
2, 243360, Note_on_c, 0, 55, 95
2, 243360, Note_on_c, 0, 50, 95
2, 243600, Note_off_c, 0, 55, 95
2, 243600, Note_off_c, 0, 50, 95
2, 243600, Note_on_c, 0, 59, 95
2, 243600, Note_on_c, 0, 55, 95
2, 243600, Note_on_c, 0, 50, 95
2, 244080, Note_off_c, 0, 59, 95
2, 244080, Note_off_c, 0, 55, 95
2, 244080, Note_off_c, 0, 50, 95
2, 244080, Note_on_c, 0, 59, 95
2, 244080, Note_on_c, 0, 55, 95
2, 244320, Note_off_c, 0, 59, 95
2, 244320, Note_off_c, 0, 55, 95
2, 244320, Note_on_c, 0, 59, 95
2, 244320, Note_on_c, 0, 55, 95
2, 244800, Note_off_c, 0, 59, 95
2, 244800, Note_off_c, 0, 55, 95
2, 244800, Note_on_c, 1, 61, 95
2, 244800, Note_on_c, 1, 57, 95
2, 244920, Pitch_bend_c, 1, 8320
2, 244920, Pitch_bend_c, 1, 8320
2, 245040, Pitch_bend_c, 1, 8448
2, 245040, Pitch_bend_c, 1, 8448
2, 245160, Pitch_bend_c, 1, 8704
2, 245160, Pitch_bend_c, 1, 8704
2, 245280, Pitch_bend_c, 1, 8832
2, 245280, Pitch_bend_c, 1, 8192
2, 245280, Note_off_c, 1, 61, 95
2, 245280, Pitch_bend_c, 1, 8832
2, 245280, Pitch_bend_c, 1, 8192
2, 245280, Note_off_c, 1, 57, 95
2, 245280, Pitch_bend_c, 1, 8192
2, 245280, Note_on_c, 1, 62, 95
2, 245280, Pitch_bend_c, 1, 8192
2, 245280, Note_on_c, 1, 58, 95
2, 245400, Pitch_bend_c, 1, 8320
2, 245400, Pitch_bend_c, 1, 8320
2, 245520, Pitch_bend_c, 1, 8448
2, 245520, Pitch_bend_c, 1, 8448
2, 245520, Pitch_bend_c, 1, 8192
2, 245520, Note_off_c, 1, 62, 95
2, 245520, Pitch_bend_c, 1, 8448
2, 245520, Pitch_bend_c, 1, 8448
2, 245520, Pitch_bend_c, 1, 8192
2, 245520, Note_off_c, 1, 58, 95
2, 245520, Note_on_c, 0, 59, 95
2, 245520, Note_on_c, 0, 55, 95
2, 245760, Note_off_c, 0, 59, 95
2, 245760, Note_off_c, 0, 55, 95
2, 245760, Note_on_c, 1, 53, 95
2, 245880, Pitch_bend_c, 1, 8192
2, 246000, Pitch_bend_c, 1, 8192
2, 246000, Pitch_bend_c, 1, 8192
2, 246000, Note_off_c, 1, 53, 95
2, 246000, Pitch_bend_c, 1, 8192
2, 246000, Note_on_c, 1, 53, 95
2, 246120, Pitch_bend_c, 1, 8320
2, 246240, Pitch_bend_c, 1, 8448
2, 246240, Pitch_bend_c, 1, 8448
2, 246240, Pitch_bend_c, 1, 8192
2, 246240, Note_off_c, 1, 53, 95
2, 246240, Note_on_c, 0, 59, 95
2, 246240, Note_on_c, 0, 55, 95
2, 246720, Note_off_c, 0, 59, 95
2, 246720, Note_off_c, 0, 55, 95
2, 246720, Note_on_c, 0, 62, 95
2, 246720, Note_on_c, 0, 58, 95
2, 247200, Note_off_c, 0, 62, 95
2, 247200, Note_off_c, 0, 58, 95
2, 247200, Note_on_c, 0, 59, 95
2, 247200, Note_on_c, 0, 55, 95
2, 247440, Note_off_c, 0, 59, 95
2, 247440, Note_off_c, 0, 55, 95
2, 247440, Note_on_c, 0, 59, 95
2, 247920, Note_off_c, 0, 59, 95
2, 247920, Note_on_c, 0, 59, 95
2, 247920, Note_on_c, 0, 55, 95
2, 248160, Note_off_c, 0, 59, 95
2, 248160, Note_off_c, 0, 55, 95
2, 248160, Note_on_c, 0, 55, 95
2, 248160, Note_on_c, 0, 50, 95
2, 248640, Note_off_c, 0, 55, 95
2, 248640, Note_off_c, 0, 50, 95
2, 248640, Note_on_c, 0, 55, 95
2, 248640, Note_on_c, 0, 50, 95
2, 248640, Note_on_c, 0, 43, 95
2, 249120, Note_off_c, 0, 55, 95
2, 249120, Note_off_c, 0, 50, 95
2, 249120, Note_off_c, 0, 43, 95
2, 249120, Note_on_c, 0, 55, 95
2, 249120, Note_on_c, 0, 50, 95
2, 249120, Note_on_c, 0, 43, 95
2, 249600, Note_off_c, 0, 55, 95
2, 249600, Note_off_c, 0, 50, 95
2, 249600, Note_off_c, 0, 43, 95
2, 249600, Note_on_c, 0, 66, 95
2, 249600, Note_on_c, 0, 62, 95
2, 249600, Note_on_c, 0, 57, 95
2, 249600, Note_on_c, 0, 50, 95
2, 250080, Note_off_c, 0, 66, 95
2, 250080, Note_off_c, 0, 62, 95
2, 250080, Note_off_c, 0, 57, 95
2, 250080, Note_off_c, 0, 50, 95
2, 250080, Note_on_c, 1, 66, 95
2, 250080, Note_on_c, 1, 62, 95
2, 250080, Note_on_c, 1, 57, 95
2, 250080, Note_on_c, 1, 50, 95
2, 250240, Pitch_bend_c, 1, 8192
2, 250240, Pitch_bend_c, 1, 8192
2, 250240, Pitch_bend_c, 1, 8192
2, 250240, Pitch_bend_c, 1, 8192
2, 250400, Pitch_bend_c, 1, 8320
2, 250400, Pitch_bend_c, 1, 8320
2, 250400, Pitch_bend_c, 1, 8320
2, 250400, Pitch_bend_c, 1, 8320
2, 250560, Pitch_bend_c, 1, 8192
2, 250560, Pitch_bend_c, 1, 8192
2, 250560, Pitch_bend_c, 1, 8192
2, 250560, Pitch_bend_c, 1, 8192
2, 250720, Pitch_bend_c, 1, 8320
2, 250720, Pitch_bend_c, 1, 8320
2, 250720, Pitch_bend_c, 1, 8320
2, 250720, Pitch_bend_c, 1, 8320
2, 250880, Pitch_bend_c, 1, 8192
2, 250880, Pitch_bend_c, 1, 8192
2, 250880, Pitch_bend_c, 1, 8192
2, 250880, Pitch_bend_c, 1, 8192
2, 251040, Pitch_bend_c, 1, 8320
2, 251040, Pitch_bend_c, 1, 8192
2, 251040, Note_off_c, 1, 66, 95
2, 251040, Pitch_bend_c, 1, 8320
2, 251040, Pitch_bend_c, 1, 8192
2, 251040, Note_off_c, 1, 62, 95
2, 251040, Pitch_bend_c, 1, 8320
2, 251040, Pitch_bend_c, 1, 8192
2, 251040, Note_off_c, 1, 57, 95
2, 251040, Pitch_bend_c, 1, 8320
2, 251040, Pitch_bend_c, 1, 8192
2, 251040, Note_off_c, 1, 50, 95
2, 251040, Note_on_c, 1, 66, 95
2, 251040, Note_on_c, 1, 62, 95
2, 251040, Note_on_c, 1, 57, 95
2, 251040, Note_on_c, 1, 50, 95
2, 251200, Pitch_bend_c, 1, 8192
2, 251200, Pitch_bend_c, 1, 8192
2, 251200, Pitch_bend_c, 1, 8192
2, 251200, Pitch_bend_c, 1, 8192
2, 251360, Pitch_bend_c, 1, 8320
2, 251360, Pitch_bend_c, 1, 8320
2, 251360, Pitch_bend_c, 1, 8320
2, 251360, Pitch_bend_c, 1, 8320
2, 251520, Pitch_bend_c, 1, 8192
2, 251520, Pitch_bend_c, 1, 8192
2, 251520, Pitch_bend_c, 1, 8192
2, 251520, Pitch_bend_c, 1, 8192
2, 251680, Pitch_bend_c, 1, 8320
2, 251680, Pitch_bend_c, 1, 8320
2, 251680, Pitch_bend_c, 1, 8320
2, 251680, Pitch_bend_c, 1, 8320
2, 251840, Pitch_bend_c, 1, 8192
2, 251840, Pitch_bend_c, 1, 8192
2, 251840, Pitch_bend_c, 1, 8192
2, 251840, Pitch_bend_c, 1, 8192
2, 252000, Pitch_bend_c, 1, 8320
2, 252000, Pitch_bend_c, 1, 8192
2, 252000, Note_off_c, 1, 66, 95
2, 252000, Pitch_bend_c, 1, 8320
2, 252000, Pitch_bend_c, 1, 8192
2, 252000, Note_off_c, 1, 62, 95
2, 252000, Pitch_bend_c, 1, 8320
2, 252000, Pitch_bend_c, 1, 8192
2, 252000, Note_off_c, 1, 57, 95
2, 252000, Pitch_bend_c, 1, 8320
2, 252000, Pitch_bend_c, 1, 8192
2, 252000, Note_off_c, 1, 50, 95
2, 252000, Note_on_c, 0, 66, 95
2, 252000, Note_on_c, 0, 62, 95
2, 252000, Note_on_c, 0, 57, 95
2, 252000, Note_on_c, 0, 50, 95
2, 252240, Note_off_c, 0, 66, 95
2, 252240, Note_off_c, 0, 62, 95
2, 252240, Note_off_c, 0, 57, 95
2, 252240, Note_off_c, 0, 50, 95
2, 252240, Note_on_c, 0, 66, 95
2, 252240, Note_on_c, 0, 62, 95
2, 252240, Note_on_c, 0, 57, 95
2, 252240, Note_on_c, 0, 50, 95
2, 252480, Note_off_c, 0, 66, 95
2, 252480, Note_off_c, 0, 62, 95
2, 252480, Note_off_c, 0, 57, 95
2, 252480, Note_off_c, 0, 50, 95
2, 252480, Note_on_c, 0, 66, 95
2, 252480, Note_on_c, 0, 62, 95
2, 252480, Note_on_c, 0, 57, 95
2, 252480, Note_on_c, 0, 50, 95
2, 252960, Note_off_c, 0, 66, 95
2, 252960, Note_off_c, 0, 62, 95
2, 252960, Note_off_c, 0, 57, 95
2, 252960, Note_off_c, 0, 50, 95
2, 252960, Note_on_c, 0, 66, 95
2, 252960, Note_on_c, 0, 62, 95
2, 252960, Note_on_c, 0, 57, 95
2, 252960, Note_on_c, 0, 50, 95
2, 253200, Note_off_c, 0, 66, 95
2, 253200, Note_off_c, 0, 62, 95
2, 253200, Note_off_c, 0, 57, 95
2, 253200, Note_off_c, 0, 50, 95
2, 253200, Note_on_c, 0, 66, 95
2, 253200, Note_on_c, 0, 62, 95
2, 253200, Note_on_c, 0, 57, 95
2, 253200, Note_on_c, 0, 50, 95
2, 253440, Note_off_c, 0, 66, 95
2, 253440, Note_off_c, 0, 62, 95
2, 253440, Note_off_c, 0, 57, 95
2, 253440, Note_off_c, 0, 50, 95
2, 253440, Note_on_c, 0, 64, 95
2, 253440, Note_on_c, 0, 60, 95
2, 253440, Note_on_c, 0, 55, 95
2, 253440, Note_on_c, 0, 48, 95
2, 253920, Note_off_c, 0, 64, 95
2, 253920, Note_off_c, 0, 60, 95
2, 253920, Note_off_c, 0, 55, 95
2, 253920, Note_off_c, 0, 48, 95
2, 253920, Note_on_c, 0, 64, 95
2, 253920, Note_on_c, 0, 60, 95
2, 253920, Note_on_c, 0, 55, 95
2, 253920, Note_on_c, 0, 48, 95
2, 254160, Note_off_c, 0, 64, 95
2, 254160, Note_off_c, 0, 60, 95
2, 254160, Note_off_c, 0, 55, 95
2, 254160, Note_off_c, 0, 48, 95
2, 254160, Note_on_c, 0, 64, 95
2, 254160, Note_on_c, 0, 60, 95
2, 254160, Note_on_c, 0, 55, 95
2, 254160, Note_on_c, 0, 48, 95
2, 254400, Note_off_c, 0, 64, 95
2, 254400, Note_off_c, 0, 60, 95
2, 254400, Note_off_c, 0, 55, 95
2, 254400, Note_off_c, 0, 48, 95
2, 254400, Note_on_c, 0, 64, 95
2, 254400, Note_on_c, 0, 60, 95
2, 254400, Note_on_c, 0, 55, 95
2, 254400, Note_on_c, 0, 48, 95
2, 254880, Note_off_c, 0, 64, 95
2, 254880, Note_off_c, 0, 60, 95
2, 254880, Note_off_c, 0, 55, 95
2, 254880, Note_off_c, 0, 48, 95
2, 254880, Note_on_c, 0, 64, 95
2, 254880, Note_on_c, 0, 60, 95
2, 254880, Note_on_c, 0, 55, 95
2, 254880, Note_on_c, 0, 48, 95
2, 255120, Note_off_c, 0, 64, 95
2, 255120, Note_off_c, 0, 60, 95
2, 255120, Note_off_c, 0, 55, 95
2, 255120, Note_off_c, 0, 48, 95
2, 255120, Note_on_c, 0, 64, 95
2, 255120, Note_on_c, 0, 60, 95
2, 255120, Note_on_c, 0, 55, 95
2, 255120, Note_on_c, 0, 48, 95
2, 255360, Note_off_c, 0, 64, 95
2, 255360, Note_off_c, 0, 60, 95
2, 255360, Note_off_c, 0, 55, 95
2, 255360, Note_off_c, 0, 48, 95
2, 255360, Note_on_c, 0, 64, 95
2, 255360, Note_on_c, 0, 60, 95
2, 255360, Note_on_c, 0, 55, 95
2, 255360, Note_on_c, 0, 48, 95
2, 255840, Note_off_c, 0, 64, 95
2, 255840, Note_off_c, 0, 60, 95
2, 255840, Note_off_c, 0, 55, 95
2, 255840, Note_off_c, 0, 48, 95
2, 255840, Note_on_c, 0, 64, 95
2, 255840, Note_on_c, 0, 60, 95
2, 255840, Note_on_c, 0, 55, 95
2, 255840, Note_on_c, 0, 48, 95
2, 256080, Note_off_c, 0, 64, 95
2, 256080, Note_off_c, 0, 60, 95
2, 256080, Note_off_c, 0, 55, 95
2, 256080, Note_off_c, 0, 48, 95
2, 256080, Note_on_c, 0, 64, 95
2, 256080, Note_on_c, 0, 60, 95
2, 256080, Note_on_c, 0, 55, 95
2, 256080, Note_on_c, 0, 48, 95
2, 256320, Note_off_c, 0, 64, 95
2, 256320, Note_off_c, 0, 60, 95
2, 256320, Note_off_c, 0, 55, 95
2, 256320, Note_off_c, 0, 48, 95
2, 256320, Note_on_c, 0, 64, 95
2, 256320, Note_on_c, 0, 60, 95
2, 256320, Note_on_c, 0, 55, 95
2, 256320, Note_on_c, 0, 48, 95
2, 256800, Note_off_c, 0, 64, 95
2, 256800, Note_off_c, 0, 60, 95
2, 256800, Note_off_c, 0, 55, 95
2, 256800, Note_off_c, 0, 48, 95
2, 256800, Note_on_c, 0, 64, 95
2, 256800, Note_on_c, 0, 60, 95
2, 256800, Note_on_c, 0, 55, 95
2, 256800, Note_on_c, 0, 48, 95
2, 257040, Note_off_c, 0, 64, 95
2, 257040, Note_off_c, 0, 60, 95
2, 257040, Note_off_c, 0, 55, 95
2, 257040, Note_off_c, 0, 48, 95
2, 257040, Pitch_bend_c, 1, 11648
2, 257040, Note_on_c, 1, 64, 95
2, 257040, Pitch_bend_c, 1, 11648
2, 257040, Note_on_c, 1, 60, 95
2, 257040, Pitch_bend_c, 1, 11648
2, 257040, Note_on_c, 1, 55, 95
2, 257040, Pitch_bend_c, 1, 11648
2, 257040, Note_on_c, 1, 48, 95
2, 257160, Pitch_bend_c, 1, 11648
2, 257160, Pitch_bend_c, 1, 11648
2, 257160, Pitch_bend_c, 1, 11648
2, 257160, Pitch_bend_c, 1, 11648
2, 257164, Pitch_bend_c, 1, 11520
2, 257164, Pitch_bend_c, 1, 11520
2, 257164, Pitch_bend_c, 1, 11520
2, 257164, Pitch_bend_c, 1, 11520
2, 257168, Pitch_bend_c, 1, 11392
2, 257168, Pitch_bend_c, 1, 11392
2, 257168, Pitch_bend_c, 1, 11392
2, 257168, Pitch_bend_c, 1, 11392
2, 257172, Pitch_bend_c, 1, 11264
2, 257172, Pitch_bend_c, 1, 11264
2, 257172, Pitch_bend_c, 1, 11264
2, 257172, Pitch_bend_c, 1, 11264
2, 257176, Pitch_bend_c, 1, 11136
2, 257176, Pitch_bend_c, 1, 11136
2, 257176, Pitch_bend_c, 1, 11136
2, 257176, Pitch_bend_c, 1, 11136
2, 257180, Pitch_bend_c, 1, 11008
2, 257180, Pitch_bend_c, 1, 11008
2, 257180, Pitch_bend_c, 1, 11008
2, 257180, Pitch_bend_c, 1, 11008
2, 257184, Pitch_bend_c, 1, 10880
2, 257184, Pitch_bend_c, 1, 10880
2, 257184, Pitch_bend_c, 1, 10880
2, 257184, Pitch_bend_c, 1, 10880
2, 257188, Pitch_bend_c, 1, 10752
2, 257188, Pitch_bend_c, 1, 10752
2, 257188, Pitch_bend_c, 1, 10752
2, 257188, Pitch_bend_c, 1, 10752
2, 257192, Pitch_bend_c, 1, 10624
2, 257192, Pitch_bend_c, 1, 10624
2, 257192, Pitch_bend_c, 1, 10624
2, 257192, Pitch_bend_c, 1, 10624
2, 257196, Pitch_bend_c, 1, 10496
2, 257196, Pitch_bend_c, 1, 10496
2, 257196, Pitch_bend_c, 1, 10496
2, 257196, Pitch_bend_c, 1, 10496
2, 257200, Pitch_bend_c, 1, 10368
2, 257200, Pitch_bend_c, 1, 10368
2, 257200, Pitch_bend_c, 1, 10368
2, 257200, Pitch_bend_c, 1, 10368
2, 257204, Pitch_bend_c, 1, 10240
2, 257204, Pitch_bend_c, 1, 10240
2, 257204, Pitch_bend_c, 1, 10240
2, 257204, Pitch_bend_c, 1, 10240
2, 257208, Pitch_bend_c, 1, 10112
2, 257208, Pitch_bend_c, 1, 10112
2, 257208, Pitch_bend_c, 1, 10112
2, 257208, Pitch_bend_c, 1, 10112
2, 257212, Pitch_bend_c, 1, 9984
2, 257212, Pitch_bend_c, 1, 9984
2, 257212, Pitch_bend_c, 1, 9984
2, 257212, Pitch_bend_c, 1, 9984
2, 257216, Pitch_bend_c, 1, 9856
2, 257216, Pitch_bend_c, 1, 9856
2, 257216, Pitch_bend_c, 1, 9856
2, 257216, Pitch_bend_c, 1, 9856
2, 257220, Pitch_bend_c, 1, 9728
2, 257220, Pitch_bend_c, 1, 9728
2, 257220, Pitch_bend_c, 1, 9728
2, 257220, Pitch_bend_c, 1, 9728
2, 257224, Pitch_bend_c, 1, 9600
2, 257224, Pitch_bend_c, 1, 9600
2, 257224, Pitch_bend_c, 1, 9600
2, 257224, Pitch_bend_c, 1, 9600
2, 257228, Pitch_bend_c, 1, 9472
2, 257228, Pitch_bend_c, 1, 9472
2, 257228, Pitch_bend_c, 1, 9472
2, 257228, Pitch_bend_c, 1, 9472
2, 257232, Pitch_bend_c, 1, 9344
2, 257232, Pitch_bend_c, 1, 9344
2, 257232, Pitch_bend_c, 1, 9344
2, 257232, Pitch_bend_c, 1, 9344
2, 257236, Pitch_bend_c, 1, 9216
2, 257236, Pitch_bend_c, 1, 9216
2, 257236, Pitch_bend_c, 1, 9216
2, 257236, Pitch_bend_c, 1, 9216
2, 257240, Pitch_bend_c, 1, 9088
2, 257240, Pitch_bend_c, 1, 9088
2, 257240, Pitch_bend_c, 1, 9088
2, 257240, Pitch_bend_c, 1, 9088
2, 257244, Pitch_bend_c, 1, 8960
2, 257244, Pitch_bend_c, 1, 8960
2, 257244, Pitch_bend_c, 1, 8960
2, 257244, Pitch_bend_c, 1, 8960
2, 257248, Pitch_bend_c, 1, 8832
2, 257248, Pitch_bend_c, 1, 8832
2, 257248, Pitch_bend_c, 1, 8832
2, 257248, Pitch_bend_c, 1, 8832
2, 257252, Pitch_bend_c, 1, 8704
2, 257252, Pitch_bend_c, 1, 8704
2, 257252, Pitch_bend_c, 1, 8704
2, 257252, Pitch_bend_c, 1, 8704
2, 257256, Pitch_bend_c, 1, 8576
2, 257256, Pitch_bend_c, 1, 8576
2, 257256, Pitch_bend_c, 1, 8576
2, 257256, Pitch_bend_c, 1, 8576
2, 257260, Pitch_bend_c, 1, 8448
2, 257260, Pitch_bend_c, 1, 8448
2, 257260, Pitch_bend_c, 1, 8448
2, 257260, Pitch_bend_c, 1, 8448
2, 257264, Pitch_bend_c, 1, 8320
2, 257264, Pitch_bend_c, 1, 8320
2, 257264, Pitch_bend_c, 1, 8320
2, 257264, Pitch_bend_c, 1, 8320
2, 257268, Pitch_bend_c, 1, 8192
2, 257268, Pitch_bend_c, 1, 8192
2, 257268, Pitch_bend_c, 1, 8192
2, 257268, Pitch_bend_c, 1, 8192
2, 257280, Pitch_bend_c, 1, 8192
2, 257280, Pitch_bend_c, 1, 8192
2, 257280, Note_off_c, 1, 64, 95
2, 257280, Pitch_bend_c, 1, 8192
2, 257280, Pitch_bend_c, 1, 8192
2, 257280, Note_off_c, 1, 60, 95
2, 257280, Pitch_bend_c, 1, 8192
2, 257280, Pitch_bend_c, 1, 8192
2, 257280, Note_off_c, 1, 55, 95
2, 257280, Pitch_bend_c, 1, 8192
2, 257280, Pitch_bend_c, 1, 8192
2, 257280, Note_off_c, 1, 48, 95
2, 257280, Note_on_c, 0, 59, 95
2, 257280, Note_on_c, 0, 55, 95
2, 257280, Note_on_c, 0, 50, 95
2, 257760, Note_off_c, 0, 59, 95
2, 257760, Note_off_c, 0, 55, 95
2, 257760, Note_off_c, 0, 50, 95
2, 257760, Note_on_c, 0, 59, 95
2, 257760, Note_on_c, 0, 55, 95
2, 258000, Note_off_c, 0, 59, 95
2, 258000, Note_off_c, 0, 55, 95
2, 258000, Note_on_c, 0, 59, 95
2, 258000, Note_on_c, 0, 55, 95
2, 258240, Note_off_c, 0, 59, 95
2, 258240, Note_off_c, 0, 55, 95
2, 258240, Note_on_c, 1, 61, 95
2, 258240, Note_on_c, 1, 57, 95
2, 258360, Pitch_bend_c, 1, 8448
2, 258360, Pitch_bend_c, 1, 8448
2, 258480, Pitch_bend_c, 1, 8832
2, 258480, Pitch_bend_c, 1, 8192
2, 258480, Note_off_c, 1, 61, 95
2, 258480, Pitch_bend_c, 1, 8832
2, 258480, Pitch_bend_c, 1, 8192
2, 258480, Note_off_c, 1, 57, 95
2, 258480, Pitch_bend_c, 1, 8192
2, 258480, Note_on_c, 1, 62, 95
2, 258480, Pitch_bend_c, 1, 8192
2, 258480, Note_on_c, 1, 58, 95
2, 258720, Pitch_bend_c, 1, 8320
2, 258720, Pitch_bend_c, 1, 8320
2, 258960, Pitch_bend_c, 1, 8448
2, 258960, Pitch_bend_c, 1, 8448
2, 258960, Pitch_bend_c, 1, 8192
2, 258960, Note_off_c, 1, 62, 95
2, 258960, Pitch_bend_c, 1, 8448
2, 258960, Pitch_bend_c, 1, 8448
2, 258960, Pitch_bend_c, 1, 8192
2, 258960, Note_off_c, 1, 58, 95
2, 258960, Note_on_c, 0, 55, 95
2, 259200, Note_off_c, 0, 55, 95
2, 259200, Note_on_c, 1, 52, 95
2, 259320, Pitch_bend_c, 1, 8448
2, 259440, Pitch_bend_c, 1, 8832
2, 259440, Pitch_bend_c, 1, 8192
2, 259440, Note_off_c, 1, 52, 95
2, 259440, Pitch_bend_c, 1, 8192
2, 259440, Note_on_c, 1, 53, 95
2, 259560, Pitch_bend_c, 1, 8320
2, 259680, Pitch_bend_c, 1, 8448
2, 259680, Pitch_bend_c, 1, 8448
2, 259680, Pitch_bend_c, 1, 8192
2, 259680, Note_off_c, 1, 53, 95
2, 259680, Note_on_c, 0, 59, 95
2, 259680, Note_on_c, 0, 55, 95
2, 260160, Note_off_c, 0, 59, 95
2, 260160, Note_off_c, 0, 55, 95
2, 260160, Note_on_c, 1, 61, 95
2, 260160, Note_on_c, 1, 57, 95
2, 260280, Pitch_bend_c, 1, 8448
2, 260280, Pitch_bend_c, 1, 8448
2, 260400, Pitch_bend_c, 1, 8832
2, 260400, Pitch_bend_c, 1, 8192
2, 260400, Note_off_c, 1, 61, 95
2, 260400, Pitch_bend_c, 1, 8832
2, 260400, Pitch_bend_c, 1, 8192
2, 260400, Note_off_c, 1, 57, 95
2, 260400, Pitch_bend_c, 1, 8192
2, 260400, Note_on_c, 1, 62, 95
2, 260400, Pitch_bend_c, 1, 8192
2, 260400, Note_on_c, 1, 58, 95
2, 260520, Pitch_bend_c, 1, 8320
2, 260520, Pitch_bend_c, 1, 8320
2, 260640, Pitch_bend_c, 1, 8448
2, 260640, Pitch_bend_c, 1, 8448
2, 260640, Pitch_bend_c, 1, 8192
2, 260640, Note_off_c, 1, 62, 95
2, 260640, Pitch_bend_c, 1, 8448
2, 260640, Pitch_bend_c, 1, 8448
2, 260640, Pitch_bend_c, 1, 8192
2, 260640, Note_off_c, 1, 58, 95
2, 260640, Note_on_c, 0, 55, 95
2, 260880, Note_off_c, 0, 55, 95
2, 260880, Note_on_c, 0, 59, 95
2, 261120, Note_off_c, 0, 59, 95
2, 261360, Note_on_c, 0, 59, 95
2, 261600, Note_off_c, 0, 59, 95
2, 261600, Note_on_c, 0, 59, 95
2, 261600, Note_on_c, 0, 55, 95
2, 262080, Note_off_c, 0, 59, 95
2, 262080, Note_off_c, 0, 55, 95
2, 262080, Note_on_c, 1, 61, 95
2, 262080, Note_on_c, 1, 57, 95
2, 262200, Pitch_bend_c, 1, 8320
2, 262200, Pitch_bend_c, 1, 8320
2, 262320, Pitch_bend_c, 1, 8448
2, 262320, Pitch_bend_c, 1, 8448
2, 262440, Pitch_bend_c, 1, 8704
2, 262440, Pitch_bend_c, 1, 8704
2, 262560, Pitch_bend_c, 1, 8832
2, 262560, Pitch_bend_c, 1, 8192
2, 262560, Note_off_c, 1, 61, 95
2, 262560, Pitch_bend_c, 1, 8832
2, 262560, Pitch_bend_c, 1, 8192
2, 262560, Note_off_c, 1, 57, 95
2, 262560, Pitch_bend_c, 1, 8192
2, 262560, Note_on_c, 1, 62, 95
2, 262560, Pitch_bend_c, 1, 8192
2, 262560, Note_on_c, 1, 58, 95
2, 262680, Pitch_bend_c, 1, 8320
2, 262680, Pitch_bend_c, 1, 8320
2, 262800, Pitch_bend_c, 1, 8448
2, 262800, Pitch_bend_c, 1, 8448
2, 262800, Pitch_bend_c, 1, 8192
2, 262800, Note_off_c, 1, 62, 95
2, 262800, Pitch_bend_c, 1, 8448
2, 262800, Pitch_bend_c, 1, 8448
2, 262800, Pitch_bend_c, 1, 8192
2, 262800, Note_off_c, 1, 58, 95
2, 262800, Note_on_c, 0, 59, 95
2, 262800, Note_on_c, 0, 55, 95
2, 263040, Note_off_c, 0, 59, 95
2, 263040, Note_off_c, 0, 55, 95
2, 263040, Note_on_c, 1, 53, 95
2, 263160, Pitch_bend_c, 1, 8448
2, 263280, Pitch_bend_c, 1, 8832
2, 263280, Pitch_bend_c, 1, 8192
2, 263280, Note_off_c, 1, 53, 95
2, 263280, Note_on_c, 0, 54, 95
2, 263520, Note_off_c, 0, 54, 95
2, 263520, Note_on_c, 0, 59, 95
2, 263520, Note_on_c, 0, 55, 95
2, 264000, Note_off_c, 0, 59, 95
2, 264000, Note_off_c, 0, 55, 95
2, 264000, Note_on_c, 1, 61, 95
2, 264000, Note_on_c, 1, 57, 95
2, 264120, Pitch_bend_c, 1, 8448
2, 264120, Pitch_bend_c, 1, 8448
2, 264240, Pitch_bend_c, 1, 8832
2, 264240, Pitch_bend_c, 1, 8192
2, 264240, Note_off_c, 1, 61, 95
2, 264240, Pitch_bend_c, 1, 8832
2, 264240, Pitch_bend_c, 1, 8192
2, 264240, Note_off_c, 1, 57, 95
2, 264240, Pitch_bend_c, 1, 8192
2, 264240, Note_on_c, 1, 62, 95
2, 264240, Pitch_bend_c, 1, 8192
2, 264240, Note_on_c, 1, 58, 95
2, 264360, Pitch_bend_c, 1, 8320
2, 264360, Pitch_bend_c, 1, 8320
2, 264480, Pitch_bend_c, 1, 8448
2, 264480, Pitch_bend_c, 1, 8448
2, 264480, Pitch_bend_c, 1, 8192
2, 264480, Note_off_c, 1, 62, 95
2, 264480, Pitch_bend_c, 1, 8448
2, 264480, Pitch_bend_c, 1, 8448
2, 264480, Pitch_bend_c, 1, 8192
2, 264480, Note_off_c, 1, 58, 95
2, 264480, Note_on_c, 0, 59, 95
2, 264480, Note_on_c, 0, 55, 95
2, 264720, Note_off_c, 0, 59, 95
2, 264720, Note_off_c, 0, 55, 95
2, 264720, Note_on_c, 0, 59, 95
2, 265200, Note_off_c, 0, 59, 95
2, 265200, Note_on_c, 0, 59, 95
2, 265440, Note_off_c, 0, 59, 95
2, 265440, Note_on_c, 0, 55, 95
2, 265920, Note_off_c, 0, 55, 95
2, 265920, Note_on_c, 1, 61, 95
2, 265920, Note_on_c, 1, 57, 95
2, 266040, Pitch_bend_c, 1, 8320
2, 266040, Pitch_bend_c, 1, 8320
2, 266160, Pitch_bend_c, 1, 8448
2, 266160, Pitch_bend_c, 1, 8448
2, 266280, Pitch_bend_c, 1, 8704
2, 266280, Pitch_bend_c, 1, 8704
2, 266400, Pitch_bend_c, 1, 8832
2, 266400, Pitch_bend_c, 1, 8192
2, 266400, Note_off_c, 1, 61, 95
2, 266400, Pitch_bend_c, 1, 8832
2, 266400, Pitch_bend_c, 1, 8192
2, 266400, Note_off_c, 1, 57, 95
2, 266400, Pitch_bend_c, 1, 8192
2, 266400, Note_on_c, 1, 62, 95
2, 266400, Pitch_bend_c, 1, 8192
2, 266400, Note_on_c, 1, 58, 95
2, 266520, Pitch_bend_c, 1, 8320
2, 266520, Pitch_bend_c, 1, 8320
2, 266640, Pitch_bend_c, 1, 8448
2, 266640, Pitch_bend_c, 1, 8448
2, 266640, Pitch_bend_c, 1, 8192
2, 266640, Note_off_c, 1, 62, 95
2, 266640, Pitch_bend_c, 1, 8448
2, 266640, Pitch_bend_c, 1, 8448
2, 266640, Pitch_bend_c, 1, 8192
2, 266640, Note_off_c, 1, 58, 95
2, 266640, Note_on_c, 0, 59, 95
2, 266640, Note_on_c, 0, 55, 95
2, 266880, Note_off_c, 0, 59, 95
2, 266880, Note_off_c, 0, 55, 95
2, 266880, Note_on_c, 1, 53, 95
2, 267000, Pitch_bend_c, 1, 8448
2, 267120, Pitch_bend_c, 1, 8832
2, 267120, Pitch_bend_c, 1, 8192
2, 267120, Note_off_c, 1, 53, 95
2, 267120, Note_on_c, 0, 54, 95
2, 267360, Note_off_c, 0, 54, 95
2, 267360, Note_on_c, 0, 59, 95
2, 267360, Note_on_c, 0, 55, 95
2, 267840, Note_off_c, 0, 59, 95
2, 267840, Note_off_c, 0, 55, 95
2, 267840, Note_on_c, 1, 61, 95
2, 267840, Note_on_c, 1, 57, 95
2, 267960, Pitch_bend_c, 1, 8448
2, 267960, Pitch_bend_c, 1, 8448
2, 268080, Pitch_bend_c, 1, 8832
2, 268080, Pitch_bend_c, 1, 8192
2, 268080, Note_off_c, 1, 61, 95
2, 268080, Pitch_bend_c, 1, 8832
2, 268080, Pitch_bend_c, 1, 8192
2, 268080, Note_off_c, 1, 57, 95
2, 268080, Pitch_bend_c, 1, 8192
2, 268080, Note_on_c, 1, 62, 95
2, 268080, Pitch_bend_c, 1, 8192
2, 268080, Note_on_c, 1, 58, 95
2, 268200, Pitch_bend_c, 1, 8320
2, 268200, Pitch_bend_c, 1, 8320
2, 268320, Pitch_bend_c, 1, 8448
2, 268320, Pitch_bend_c, 1, 8448
2, 268320, Pitch_bend_c, 1, 8192
2, 268320, Note_off_c, 1, 62, 95
2, 268320, Pitch_bend_c, 1, 8448
2, 268320, Pitch_bend_c, 1, 8448
2, 268320, Pitch_bend_c, 1, 8192
2, 268320, Note_off_c, 1, 58, 95
2, 268320, Note_on_c, 0, 55, 95
2, 268560, Note_off_c, 0, 55, 95
2, 268560, Note_on_c, 0, 59, 95
2, 269040, Note_off_c, 0, 59, 95
2, 269040, Note_on_c, 0, 59, 95
2, 269280, Note_off_c, 0, 59, 95
2, 269280, Note_on_c, 0, 55, 95
2, 269760, Note_off_c, 0, 55, 95
2, 269760, Note_on_c, 1, 57, 95
2, 269880, Pitch_bend_c, 1, 8320
2, 270000, Pitch_bend_c, 1, 8448
2, 270120, Pitch_bend_c, 1, 8704
2, 270240, Pitch_bend_c, 1, 8832
2, 270240, Pitch_bend_c, 1, 8192
2, 270240, Note_off_c, 1, 57, 95
2, 270240, Pitch_bend_c, 1, 8192
2, 270240, Note_on_c, 1, 58, 95
2, 270360, Pitch_bend_c, 1, 8320
2, 270480, Pitch_bend_c, 1, 8448
2, 270480, Pitch_bend_c, 1, 8448
2, 270480, Pitch_bend_c, 1, 8192
2, 270480, Note_off_c, 1, 58, 95
2, 270480, Note_on_c, 0, 59, 95
2, 270480, Note_on_c, 0, 55, 95
2, 270720, Note_off_c, 0, 59, 95
2, 270720, Note_off_c, 0, 55, 95
2, 270720, Note_on_c, 1, 53, 95
2, 270840, Pitch_bend_c, 1, 8192
2, 270960, Pitch_bend_c, 1, 8192
2, 270960, Pitch_bend_c, 1, 8192
2, 270960, Note_off_c, 1, 53, 95
2, 270960, Pitch_bend_c, 1, 8192
2, 270960, Note_on_c, 1, 53, 95
2, 271080, Pitch_bend_c, 1, 8320
2, 271200, Pitch_bend_c, 1, 8448
2, 271200, Pitch_bend_c, 1, 8448
2, 271200, Pitch_bend_c, 1, 8192
2, 271200, Note_off_c, 1, 53, 95
2, 271200, Note_on_c, 0, 59, 95
2, 271200, Note_on_c, 0, 55, 95
2, 271680, Note_off_c, 0, 59, 95
2, 271680, Note_off_c, 0, 55, 95
2, 271680, Note_on_c, 1, 57, 95
2, 271800, Pitch_bend_c, 1, 8448
2, 271920, Pitch_bend_c, 1, 8832
2, 271920, Pitch_bend_c, 1, 8192
2, 271920, Note_off_c, 1, 57, 95
2, 271920, Pitch_bend_c, 1, 8192
2, 271920, Note_on_c, 1, 58, 95
2, 272040, Pitch_bend_c, 1, 8320
2, 272160, Pitch_bend_c, 1, 8448
2, 272160, Pitch_bend_c, 1, 8448
2, 272160, Pitch_bend_c, 1, 8192
2, 272160, Note_off_c, 1, 58, 95
2, 272160, Note_on_c, 0, 55, 95
2, 272400, Note_off_c, 0, 55, 95
2, 272400, Note_on_c, 0, 55, 95
2, 272640, Note_off_c, 0, 55, 95
2, 273120, Note_on_c, 0, 55, 95
2, 273600, Note_off_c, 0, 55, 95
2, 273600, Note_on_c, 1, 57, 95
2, 273720, Pitch_bend_c, 1, 8448
2, 273840, Pitch_bend_c, 1, 8832
2, 273840, Pitch_bend_c, 1, 8192
2, 273840, Note_off_c, 1, 57, 95
2, 273840, Pitch_bend_c, 1, 8192
2, 273840, Note_on_c, 1, 58, 95
2, 273960, Pitch_bend_c, 1, 8320
2, 274080, Pitch_bend_c, 1, 8448
2, 274080, Pitch_bend_c, 1, 8448
2, 274080, Pitch_bend_c, 1, 8192
2, 274080, Note_off_c, 1, 58, 95
2, 274320, Note_on_c, 0, 55, 95
2, 274560, Note_off_c, 0, 55, 95
2, 274560, Note_on_c, 0, 54, 95
2, 275040, Note_off_c, 0, 54, 95
2, 275040, Note_on_c, 0, 55, 95
2, 275520, Note_off_c, 0, 55, 95
2, 275520, Note_on_c, 1, 57, 95
2, 275640, Pitch_bend_c, 1, 8448
2, 275760, Pitch_bend_c, 1, 8832
2, 275760, Pitch_bend_c, 1, 8192
2, 275760, Note_off_c, 1, 57, 95
2, 275760, Pitch_bend_c, 1, 8192
2, 275760, Note_on_c, 1, 58, 95
2, 275880, Pitch_bend_c, 1, 8320
2, 276000, Pitch_bend_c, 1, 8448
2, 276000, Pitch_bend_c, 1, 8448
2, 276000, Pitch_bend_c, 1, 8192
2, 276000, Note_off_c, 1, 58, 95
2, 276000, Note_on_c, 0, 55, 95
2, 276240, Note_off_c, 0, 55, 95
2, 276240, Note_on_c, 0, 55, 95
2, 276720, Note_off_c, 0, 55, 95
2, 276720, Note_on_c, 0, 55, 95
2, 276960, Note_off_c, 0, 55, 95
2, 276960, Note_on_c, 0, 55, 95
2, 277440, Note_off_c, 0, 55, 95
2, 277440, Note_on_c, 1, 61, 95
2, 277440, Note_on_c, 1, 57, 95
2, 277560, Pitch_bend_c, 1, 8448
2, 277560, Pitch_bend_c, 1, 8448
2, 277680, Pitch_bend_c, 1, 8832
2, 277680, Pitch_bend_c, 1, 8192
2, 277680, Note_off_c, 1, 61, 95
2, 277680, Pitch_bend_c, 1, 8832
2, 277680, Pitch_bend_c, 1, 8192
2, 277680, Note_off_c, 1, 57, 95
2, 277680, Pitch_bend_c, 1, 8192
2, 277680, Note_on_c, 1, 62, 95
2, 277680, Pitch_bend_c, 1, 8192
2, 277680, Note_on_c, 1, 58, 95
2, 277920, Pitch_bend_c, 1, 8320
2, 277920, Pitch_bend_c, 1, 8320
2, 278160, Pitch_bend_c, 1, 8448
2, 278160, Pitch_bend_c, 1, 8448
2, 278160, Pitch_bend_c, 1, 8192
2, 278160, Note_off_c, 1, 62, 95
2, 278160, Pitch_bend_c, 1, 8448
2, 278160, Pitch_bend_c, 1, 8448
2, 278160, Pitch_bend_c, 1, 8192
2, 278160, Note_off_c, 1, 58, 95
2, 278160, Note_on_c, 0, 55, 95
2, 278400, Note_off_c, 0, 55, 95
2, 278400, Note_on_c, 0, 55, 95
2, 278640, Note_off_c, 0, 55, 95
2, 278640, Note_on_c, 0, 55, 95
2, 278880, Note_off_c, 0, 55, 95
2, 278880, Note_on_c, 0, 55, 95
2, 279120, Note_off_c, 0, 55, 95
2, 279120, Note_on_c, 0, 55, 95
2, 279360, Note_off_c, 0, 55, 95
2, 279360, Note_on_c, 1, 57, 95
2, 279480, Pitch_bend_c, 1, 8448
2, 279600, Pitch_bend_c, 1, 8832
2, 279600, Pitch_bend_c, 1, 8192
2, 279600, Note_off_c, 1, 57, 95
2, 279600, Pitch_bend_c, 1, 8192
2, 279600, Note_on_c, 1, 58, 95
2, 279720, Pitch_bend_c, 1, 8320
2, 279840, Pitch_bend_c, 1, 8448
2, 279840, Pitch_bend_c, 1, 8448
2, 279840, Pitch_bend_c, 1, 8192
2, 279840, Note_off_c, 1, 58, 95
2, 279840, Note_on_c, 0, 55, 95
2, 280080, Note_off_c, 0, 55, 95
2, 280080, Note_on_c, 0, 59, 95
2, 280080, Note_on_c, 0, 55, 95
2, 280560, Note_off_c, 0, 59, 95
2, 280560, Note_off_c, 0, 55, 95
2, 280560, Note_on_c, 0, 59, 95
2, 280800, Note_off_c, 0, 59, 95
2, 280800, Note_on_c, 0, 55, 95
2, 281280, Note_off_c, 0, 55, 95
2, 281280, Note_on_c, 1, 57, 95
2, 281400, Pitch_bend_c, 1, 8320
2, 281520, Pitch_bend_c, 1, 8448
2, 281640, Pitch_bend_c, 1, 8704
2, 281760, Pitch_bend_c, 1, 8832
2, 281760, Pitch_bend_c, 1, 8192
2, 281760, Note_off_c, 1, 57, 95
2, 281760, Pitch_bend_c, 1, 8192
2, 281760, Note_on_c, 1, 58, 95
2, 281880, Pitch_bend_c, 1, 8320
2, 282000, Pitch_bend_c, 1, 8448
2, 282000, Pitch_bend_c, 1, 8448
2, 282000, Pitch_bend_c, 1, 8192
2, 282000, Note_off_c, 1, 58, 95
2, 282000, Note_on_c, 0, 55, 95
2, 282240, Note_off_c, 0, 55, 95
2, 282240, Note_on_c, 1, 53, 95
2, 282360, Pitch_bend_c, 1, 8192
2, 282480, Pitch_bend_c, 1, 8192
2, 282480, Pitch_bend_c, 1, 8192
2, 282480, Note_off_c, 1, 53, 95
2, 282480, Pitch_bend_c, 1, 8192
2, 282480, Note_on_c, 1, 53, 95
2, 282600, Pitch_bend_c, 1, 8320
2, 282720, Pitch_bend_c, 1, 8448
2, 282720, Pitch_bend_c, 1, 8448
2, 282720, Pitch_bend_c, 1, 8192
2, 282720, Note_off_c, 1, 53, 95
2, 282720, Note_on_c, 0, 55, 95
2, 283200, Note_off_c, 0, 55, 95
2, 283200, Note_on_c, 1, 61, 95
2, 283200, Note_on_c, 1, 57, 95
2, 283320, Pitch_bend_c, 1, 8448
2, 283320, Pitch_bend_c, 1, 8448
2, 283440, Pitch_bend_c, 1, 8832
2, 283440, Pitch_bend_c, 1, 8192
2, 283440, Note_off_c, 1, 61, 95
2, 283440, Pitch_bend_c, 1, 8832
2, 283440, Pitch_bend_c, 1, 8192
2, 283440, Note_off_c, 1, 57, 95
2, 283440, Pitch_bend_c, 1, 8192
2, 283440, Note_on_c, 1, 62, 95
2, 283440, Pitch_bend_c, 1, 8192
2, 283440, Note_on_c, 1, 58, 95
2, 283560, Pitch_bend_c, 1, 8320
2, 283560, Pitch_bend_c, 1, 8320
2, 283680, Pitch_bend_c, 1, 8448
2, 283680, Pitch_bend_c, 1, 8448
2, 283680, Pitch_bend_c, 1, 8192
2, 283680, Note_off_c, 1, 62, 95
2, 283680, Pitch_bend_c, 1, 8448
2, 283680, Pitch_bend_c, 1, 8448
2, 283680, Pitch_bend_c, 1, 8192
2, 283680, Note_off_c, 1, 58, 95
2, 283680, Note_on_c, 0, 55, 95
2, 283920, Note_off_c, 0, 55, 95
2, 283920, Note_on_c, 0, 55, 95
2, 284400, Note_off_c, 0, 55, 95
2, 284400, Note_on_c, 0, 55, 95
2, 284640, Note_off_c, 0, 55, 95
2, 284640, Note_on_c, 0, 55, 95
2, 285120, Note_off_c, 0, 55, 95
2, 285120, Note_on_c, 1, 61, 95
2, 285120, Note_on_c, 1, 57, 95
2, 285240, Pitch_bend_c, 1, 8320
2, 285240, Pitch_bend_c, 1, 8320
2, 285360, Pitch_bend_c, 1, 8448
2, 285360, Pitch_bend_c, 1, 8448
2, 285480, Pitch_bend_c, 1, 8704
2, 285480, Pitch_bend_c, 1, 8704
2, 285600, Pitch_bend_c, 1, 8832
2, 285600, Pitch_bend_c, 1, 8192
2, 285600, Note_off_c, 1, 61, 95
2, 285600, Pitch_bend_c, 1, 8832
2, 285600, Pitch_bend_c, 1, 8192
2, 285600, Note_off_c, 1, 57, 95
2, 285600, Pitch_bend_c, 1, 8192
2, 285600, Note_on_c, 1, 62, 95
2, 285600, Pitch_bend_c, 1, 8192
2, 285600, Note_on_c, 1, 58, 95
2, 285720, Pitch_bend_c, 1, 8320
2, 285720, Pitch_bend_c, 1, 8320
2, 285840, Pitch_bend_c, 1, 8448
2, 285840, Pitch_bend_c, 1, 8448
2, 285840, Pitch_bend_c, 1, 8192
2, 285840, Note_off_c, 1, 62, 95
2, 285840, Pitch_bend_c, 1, 8448
2, 285840, Pitch_bend_c, 1, 8448
2, 285840, Pitch_bend_c, 1, 8192
2, 285840, Note_off_c, 1, 58, 95
2, 285840, Note_on_c, 0, 55, 95
2, 286080, Note_off_c, 0, 55, 95
2, 286080, Note_on_c, 1, 53, 95
2, 286200, Pitch_bend_c, 1, 8192
2, 286320, Pitch_bend_c, 1, 8192
2, 286320, Pitch_bend_c, 1, 8192
2, 286320, Note_off_c, 1, 53, 95
2, 286320, Pitch_bend_c, 1, 8192
2, 286320, Note_on_c, 1, 53, 95
2, 286440, Pitch_bend_c, 1, 8320
2, 286560, Pitch_bend_c, 1, 8448
2, 286560, Pitch_bend_c, 1, 8448
2, 286560, Pitch_bend_c, 1, 8192
2, 286560, Note_off_c, 1, 53, 95
2, 286560, Note_on_c, 0, 55, 95
2, 287040, Note_off_c, 0, 55, 95
2, 287040, Note_on_c, 1, 57, 95
2, 287160, Pitch_bend_c, 1, 8448
2, 287280, Pitch_bend_c, 1, 8832
2, 287280, Pitch_bend_c, 1, 8192
2, 287280, Note_off_c, 1, 57, 95
2, 287280, Pitch_bend_c, 1, 8192
2, 287280, Note_on_c, 1, 58, 95
2, 287400, Pitch_bend_c, 1, 8320
2, 287520, Pitch_bend_c, 1, 8448
2, 287520, Pitch_bend_c, 1, 8448
2, 287520, Pitch_bend_c, 1, 8192
2, 287520, Note_off_c, 1, 58, 95
2, 287520, Note_on_c, 0, 55, 95
2, 287760, Note_off_c, 0, 55, 95
2, 287760, Note_on_c, 0, 55, 95
2, 288240, Note_off_c, 0, 55, 95
2, 288240, Note_on_c, 0, 55, 95
2, 288480, Note_off_c, 0, 55, 95
2, 288480, Note_on_c, 0, 55, 95
2, 288960, Note_off_c, 0, 55, 95
2, 288960, Note_on_c, 1, 57, 95
2, 289080, Pitch_bend_c, 1, 8320
2, 289200, Pitch_bend_c, 1, 8448
2, 289320, Pitch_bend_c, 1, 8704
2, 289440, Pitch_bend_c, 1, 8832
2, 289440, Pitch_bend_c, 1, 8192
2, 289440, Note_off_c, 1, 57, 95
2, 289440, Pitch_bend_c, 1, 8192
2, 289440, Note_on_c, 1, 58, 95
2, 289560, Pitch_bend_c, 1, 8320
2, 289680, Pitch_bend_c, 1, 8448
2, 289680, Pitch_bend_c, 1, 8448
2, 289680, Pitch_bend_c, 1, 8192
2, 289680, Note_off_c, 1, 58, 95
2, 289680, Note_on_c, 0, 55, 95
2, 289920, Note_off_c, 0, 55, 95
2, 289920, Note_on_c, 1, 53, 95
2, 290040, Pitch_bend_c, 1, 8192
2, 290160, Pitch_bend_c, 1, 8192
2, 290160, Pitch_bend_c, 1, 8192
2, 290160, Note_off_c, 1, 53, 95
2, 290160, Pitch_bend_c, 1, 8192
2, 290160, Note_on_c, 1, 53, 95
2, 290280, Pitch_bend_c, 1, 8320
2, 290400, Pitch_bend_c, 1, 8448
2, 290400, Pitch_bend_c, 1, 8448
2, 290400, Pitch_bend_c, 1, 8192
2, 290400, Note_off_c, 1, 53, 95
2, 290400, Note_on_c, 0, 55, 95
2, 290880, Note_off_c, 0, 55, 95
2, 290880, Note_on_c, 1, 57, 95
2, 291000, Pitch_bend_c, 1, 8448
2, 291120, Pitch_bend_c, 1, 8832
2, 291120, Pitch_bend_c, 1, 8192
2, 291120, Note_off_c, 1, 57, 95
2, 291120, Pitch_bend_c, 1, 8192
2, 291120, Note_on_c, 1, 58, 95
2, 291240, Pitch_bend_c, 1, 8320
2, 291360, Pitch_bend_c, 1, 8448
2, 291360, Pitch_bend_c, 1, 8448
2, 291360, Pitch_bend_c, 1, 8192
2, 291360, Note_off_c, 1, 58, 95
2, 291360, Note_on_c, 0, 55, 95
2, 291600, Note_off_c, 0, 55, 95
2, 291600, Note_on_c, 0, 55, 95
2, 292080, Note_off_c, 0, 55, 95
2, 292080, Note_on_c, 0, 55, 95
2, 292320, Note_off_c, 0, 55, 95
2, 292320, Note_on_c, 0, 55, 95
2, 292800, Note_off_c, 0, 55, 95
2, 292800, Note_on_c, 1, 57, 95
2, 292920, Pitch_bend_c, 1, 8320
2, 293040, Pitch_bend_c, 1, 8448
2, 293160, Pitch_bend_c, 1, 8704
2, 293280, Pitch_bend_c, 1, 8832
2, 293280, Pitch_bend_c, 1, 8192
2, 293280, Note_off_c, 1, 57, 95
2, 293280, Pitch_bend_c, 1, 8192
2, 293280, Note_on_c, 1, 58, 95
2, 293400, Pitch_bend_c, 1, 8320
2, 293520, Pitch_bend_c, 1, 8448
2, 293520, Pitch_bend_c, 1, 8448
2, 293520, Pitch_bend_c, 1, 8192
2, 293520, Note_off_c, 1, 58, 95
2, 293520, Note_on_c, 0, 55, 95
2, 293760, Note_off_c, 0, 55, 95
2, 293760, Note_on_c, 1, 53, 95
2, 293880, Pitch_bend_c, 1, 8192
2, 294000, Pitch_bend_c, 1, 8192
2, 294000, Pitch_bend_c, 1, 8192
2, 294000, Note_off_c, 1, 53, 95
2, 294000, Pitch_bend_c, 1, 8192
2, 294000, Note_on_c, 1, 53, 95
2, 294120, Pitch_bend_c, 1, 8320
2, 294240, Pitch_bend_c, 1, 8448
2, 294240, Pitch_bend_c, 1, 8448
2, 294240, Pitch_bend_c, 1, 8192
2, 294240, Note_off_c, 1, 53, 95
2, 294240, Note_on_c, 0, 55, 95
2, 294720, Note_off_c, 0, 55, 95
2, 294720, Note_on_c, 1, 57, 95
2, 294840, Pitch_bend_c, 1, 8448
2, 294960, Pitch_bend_c, 1, 8832
2, 294960, Pitch_bend_c, 1, 8192
2, 294960, Note_off_c, 1, 57, 95
2, 294960, Pitch_bend_c, 1, 8192
2, 294960, Note_on_c, 1, 58, 95
2, 295080, Pitch_bend_c, 1, 8320
2, 295200, Pitch_bend_c, 1, 8448
2, 295200, Pitch_bend_c, 1, 8448
2, 295200, Pitch_bend_c, 1, 8192
2, 295200, Note_off_c, 1, 58, 95
2, 295200, Note_on_c, 0, 55, 95
2, 295440, Note_off_c, 0, 55, 95
2, 295440, Note_on_c, 0, 55, 95
2, 295920, Note_off_c, 0, 55, 95
2, 295920, Note_on_c, 0, 55, 95
2, 296160, Note_off_c, 0, 55, 95
2, 296160, Note_on_c, 0, 55, 95
2, 296640, Note_off_c, 0, 55, 95
2, 296640, Note_on_c, 1, 57, 95
2, 296760, Pitch_bend_c, 1, 8320
2, 296880, Pitch_bend_c, 1, 8448
2, 297000, Pitch_bend_c, 1, 8704
2, 297120, Pitch_bend_c, 1, 8832
2, 297120, Pitch_bend_c, 1, 8192
2, 297120, Note_off_c, 1, 57, 95
2, 297120, Pitch_bend_c, 1, 8192
2, 297120, Note_on_c, 1, 58, 95
2, 297240, Pitch_bend_c, 1, 8320
2, 297360, Pitch_bend_c, 1, 8448
2, 297360, Pitch_bend_c, 1, 8448
2, 297360, Pitch_bend_c, 1, 8192
2, 297360, Note_off_c, 1, 58, 95
2, 297360, Note_on_c, 0, 55, 95
2, 297600, Note_off_c, 0, 55, 95
2, 297600, Note_on_c, 1, 53, 95
2, 297720, Pitch_bend_c, 1, 8192
2, 297840, Pitch_bend_c, 1, 8192
2, 297840, Pitch_bend_c, 1, 8192
2, 297840, Note_off_c, 1, 53, 95
2, 297840, Pitch_bend_c, 1, 8192
2, 297840, Note_on_c, 1, 53, 95
2, 297960, Pitch_bend_c, 1, 8320
2, 298080, Pitch_bend_c, 1, 8448
2, 298080, Pitch_bend_c, 1, 8448
2, 298080, Pitch_bend_c, 1, 8192
2, 298080, Note_off_c, 1, 53, 95
2, 298080, Note_on_c, 0, 55, 95
2, 298560, Note_off_c, 0, 55, 95
2, 298560, Note_on_c, 1, 57, 95
2, 298680, Pitch_bend_c, 1, 8448
2, 298800, Pitch_bend_c, 1, 8832
2, 298800, Pitch_bend_c, 1, 8192
2, 298800, Note_off_c, 1, 57, 95
2, 298800, Pitch_bend_c, 1, 8192
2, 298800, Note_on_c, 1, 58, 95
2, 298920, Pitch_bend_c, 1, 8320
2, 299040, Pitch_bend_c, 1, 8448
2, 299040, Pitch_bend_c, 1, 8448
2, 299040, Pitch_bend_c, 1, 8192
2, 299040, Note_off_c, 1, 58, 95
2, 299040, Note_on_c, 0, 55, 95
2, 299280, Note_off_c, 0, 55, 95
2, 299280, Note_on_c, 0, 55, 95
2, 299760, Note_off_c, 0, 55, 95
2, 299760, Note_on_c, 0, 55, 95
2, 300000, Note_off_c, 0, 55, 95
2, 300000, Note_on_c, 0, 55, 95
2, 300480, Note_off_c, 0, 55, 95
2, 300480, Note_on_c, 1, 61, 95
2, 300480, Note_on_c, 1, 57, 95
2, 300600, Pitch_bend_c, 1, 8320
2, 300600, Pitch_bend_c, 1, 8320
2, 300720, Pitch_bend_c, 1, 8448
2, 300720, Pitch_bend_c, 1, 8448
2, 300840, Pitch_bend_c, 1, 8704
2, 300840, Pitch_bend_c, 1, 8704
2, 300960, Pitch_bend_c, 1, 8832
2, 300960, Pitch_bend_c, 1, 8192
2, 300960, Note_off_c, 1, 61, 95
2, 300960, Pitch_bend_c, 1, 8832
2, 300960, Pitch_bend_c, 1, 8192
2, 300960, Note_off_c, 1, 57, 95
2, 300960, Pitch_bend_c, 1, 8192
2, 300960, Note_on_c, 1, 62, 95
2, 300960, Pitch_bend_c, 1, 8192
2, 300960, Note_on_c, 1, 58, 95
2, 301080, Pitch_bend_c, 1, 8320
2, 301080, Pitch_bend_c, 1, 8320
2, 301200, Pitch_bend_c, 1, 8448
2, 301200, Pitch_bend_c, 1, 8448
2, 301200, Pitch_bend_c, 1, 8192
2, 301200, Note_off_c, 1, 62, 95
2, 301200, Pitch_bend_c, 1, 8448
2, 301200, Pitch_bend_c, 1, 8448
2, 301200, Pitch_bend_c, 1, 8192
2, 301200, Note_off_c, 1, 58, 95
2, 301200, Note_on_c, 0, 55, 95
2, 301440, Note_off_c, 0, 55, 95
2, 301440, Note_on_c, 1, 53, 95
2, 301560, Pitch_bend_c, 1, 8192
2, 301680, Pitch_bend_c, 1, 8192
2, 301680, Pitch_bend_c, 1, 8192
2, 301680, Note_off_c, 1, 53, 95
2, 301680, Pitch_bend_c, 1, 8192
2, 301680, Note_on_c, 1, 53, 95
2, 301800, Pitch_bend_c, 1, 8320
2, 301920, Pitch_bend_c, 1, 8448
2, 301920, Pitch_bend_c, 1, 8448
2, 301920, Pitch_bend_c, 1, 8192
2, 301920, Note_off_c, 1, 53, 95
2, 301920, Note_on_c, 0, 55, 95
2, 302400, Note_off_c, 0, 55, 95
2, 302400, Note_on_c, 1, 61, 95
2, 302400, Note_on_c, 1, 57, 95
2, 302520, Pitch_bend_c, 1, 8448
2, 302520, Pitch_bend_c, 1, 8448
2, 302640, Pitch_bend_c, 1, 8832
2, 302640, Pitch_bend_c, 1, 8192
2, 302640, Note_off_c, 1, 61, 95
2, 302640, Pitch_bend_c, 1, 8832
2, 302640, Pitch_bend_c, 1, 8192
2, 302640, Note_off_c, 1, 57, 95
2, 302640, Pitch_bend_c, 1, 8192
2, 302640, Note_on_c, 1, 62, 95
2, 302640, Pitch_bend_c, 1, 8192
2, 302640, Note_on_c, 1, 58, 95
2, 302760, Pitch_bend_c, 1, 8320
2, 302760, Pitch_bend_c, 1, 8320
2, 302880, Pitch_bend_c, 1, 8448
2, 302880, Pitch_bend_c, 1, 8448
2, 302880, Pitch_bend_c, 1, 8192
2, 302880, Note_off_c, 1, 62, 95
2, 302880, Pitch_bend_c, 1, 8448
2, 302880, Pitch_bend_c, 1, 8448
2, 302880, Pitch_bend_c, 1, 8192
2, 302880, Note_off_c, 1, 58, 95
2, 302880, Note_on_c, 0, 55, 95
2, 303120, Note_off_c, 0, 55, 95
2, 303120, Note_on_c, 0, 55, 95
2, 303600, Note_off_c, 0, 55, 95
2, 303600, Note_on_c, 0, 59, 95
2, 303840, Note_off_c, 0, 59, 95
2, 303840, Note_on_c, 0, 55, 95
2, 304320, Note_off_c, 0, 55, 95
2, 304320, Note_on_c, 1, 61, 95
2, 304320, Note_on_c, 1, 57, 95
2, 304440, Pitch_bend_c, 1, 8448
2, 304440, Pitch_bend_c, 1, 8448
2, 304560, Pitch_bend_c, 1, 8832
2, 304560, Pitch_bend_c, 1, 8192
2, 304560, Note_off_c, 1, 61, 95
2, 304560, Pitch_bend_c, 1, 8832
2, 304560, Pitch_bend_c, 1, 8192
2, 304560, Note_off_c, 1, 57, 95
2, 304560, Pitch_bend_c, 1, 8192
2, 304560, Note_on_c, 1, 62, 95
2, 304560, Pitch_bend_c, 1, 8192
2, 304560, Note_on_c, 1, 58, 95
2, 304800, Pitch_bend_c, 1, 8320
2, 304800, Pitch_bend_c, 1, 8320
2, 305040, Pitch_bend_c, 1, 8448
2, 305040, Pitch_bend_c, 1, 8448
2, 305040, Pitch_bend_c, 1, 8192
2, 305040, Note_off_c, 1, 62, 95
2, 305040, Pitch_bend_c, 1, 8448
2, 305040, Pitch_bend_c, 1, 8448
2, 305040, Pitch_bend_c, 1, 8192
2, 305040, Note_off_c, 1, 58, 95
2, 305040, Note_on_c, 0, 59, 95
2, 305040, Note_on_c, 0, 55, 95
2, 305280, Note_off_c, 0, 59, 95
2, 305280, Note_off_c, 0, 55, 95
2, 305280, Note_on_c, 1, 53, 95
2, 305400, Pitch_bend_c, 1, 8192
2, 305520, Pitch_bend_c, 1, 8192
2, 305520, Pitch_bend_c, 1, 8192
2, 305520, Note_off_c, 1, 53, 95
2, 305520, Pitch_bend_c, 1, 8192
2, 305520, Note_on_c, 1, 53, 95
2, 305640, Pitch_bend_c, 1, 8320
2, 305760, Pitch_bend_c, 1, 8448
2, 305760, Pitch_bend_c, 1, 8448
2, 305760, Pitch_bend_c, 1, 8192
2, 305760, Note_off_c, 1, 53, 95
2, 305760, Note_on_c, 0, 59, 95
2, 305760, Note_on_c, 0, 55, 95
2, 306240, Note_off_c, 0, 59, 95
2, 306240, Note_off_c, 0, 55, 95
2, 306240, Note_on_c, 1, 57, 95
2, 306360, Pitch_bend_c, 1, 8448
2, 306480, Pitch_bend_c, 1, 8832
2, 306480, Pitch_bend_c, 1, 8192
2, 306480, Note_off_c, 1, 57, 95
2, 306480, Pitch_bend_c, 1, 8192
2, 306480, Note_on_c, 1, 58, 95
2, 306600, Pitch_bend_c, 1, 8320
2, 306720, Pitch_bend_c, 1, 8448
2, 306720, Pitch_bend_c, 1, 8448
2, 306720, Pitch_bend_c, 1, 8192
2, 306720, Note_off_c, 1, 58, 95
2, 306720, Note_on_c, 0, 55, 95
2, 306960, Note_on_c, 0, 59, 95
2, 307200, Note_off_c, 0, 59, 95
2, 307440, Note_off_c, 0, 55, 95
2, 307440, Note_on_c, 0, 59, 95
2, 307680, Note_off_c, 0, 59, 95
2, 307680, Note_on_c, 0, 55, 95
2, 308160, Note_off_c, 0, 55, 95
2, 308160, Note_on_c, 1, 61, 95
2, 308160, Note_on_c, 1, 57, 95
2, 308280, Pitch_bend_c, 1, 8320
2, 308280, Pitch_bend_c, 1, 8320
2, 308400, Pitch_bend_c, 1, 8448
2, 308400, Pitch_bend_c, 1, 8448
2, 308520, Pitch_bend_c, 1, 8704
2, 308520, Pitch_bend_c, 1, 8704
2, 308640, Pitch_bend_c, 1, 8832
2, 308640, Pitch_bend_c, 1, 8192
2, 308640, Note_off_c, 1, 61, 95
2, 308640, Pitch_bend_c, 1, 8832
2, 308640, Pitch_bend_c, 1, 8192
2, 308640, Note_off_c, 1, 57, 95
2, 308640, Pitch_bend_c, 1, 8192
2, 308640, Note_on_c, 1, 62, 95
2, 308640, Pitch_bend_c, 1, 8192
2, 308640, Note_on_c, 1, 58, 95
2, 308760, Pitch_bend_c, 1, 8320
2, 308760, Pitch_bend_c, 1, 8320
2, 308880, Pitch_bend_c, 1, 8448
2, 308880, Pitch_bend_c, 1, 8448
2, 308880, Pitch_bend_c, 1, 8192
2, 308880, Note_off_c, 1, 62, 95
2, 308880, Pitch_bend_c, 1, 8448
2, 308880, Pitch_bend_c, 1, 8448
2, 308880, Pitch_bend_c, 1, 8192
2, 308880, Note_off_c, 1, 58, 95
2, 308880, Note_on_c, 0, 59, 95
2, 308880, Note_on_c, 0, 55, 95
2, 309120, Note_off_c, 0, 59, 95
2, 309120, Note_off_c, 0, 55, 95
2, 309120, Note_on_c, 1, 53, 95
2, 309240, Pitch_bend_c, 1, 8192
2, 309360, Pitch_bend_c, 1, 8192
2, 309360, Pitch_bend_c, 1, 8192
2, 309360, Note_off_c, 1, 53, 95
2, 309360, Pitch_bend_c, 1, 8192
2, 309360, Note_on_c, 1, 53, 95
2, 309480, Pitch_bend_c, 1, 8320
2, 309600, Pitch_bend_c, 1, 8448
2, 309600, Pitch_bend_c, 1, 8448
2, 309600, Pitch_bend_c, 1, 8192
2, 309600, Note_off_c, 1, 53, 95
2, 309600, Note_on_c, 0, 59, 95
2, 309600, Note_on_c, 0, 55, 95
2, 310080, Note_off_c, 0, 59, 95
2, 310080, Note_off_c, 0, 55, 95
2, 310080, Note_on_c, 1, 57, 95
2, 310200, Pitch_bend_c, 1, 8448
2, 310320, Pitch_bend_c, 1, 8832
2, 310320, Pitch_bend_c, 1, 8192
2, 310320, Note_off_c, 1, 57, 95
2, 310320, Pitch_bend_c, 1, 8192
2, 310320, Note_on_c, 1, 58, 95
2, 310440, Pitch_bend_c, 1, 8320
2, 310560, Pitch_bend_c, 1, 8448
2, 310560, Pitch_bend_c, 1, 8448
2, 310560, Pitch_bend_c, 1, 8192
2, 310560, Note_off_c, 1, 58, 95
2, 310560, Note_on_c, 0, 55, 95
2, 310800, Note_on_c, 0, 59, 95
2, 311040, Note_off_c, 0, 59, 95
2, 311280, Note_off_c, 0, 55, 95
2, 311280, Note_on_c, 0, 55, 95
2, 311520, Note_off_c, 0, 55, 95
2, 311520, Note_on_c, 0, 55, 95
2, 312000, Note_off_c, 0, 55, 95
2, 312000, Note_on_c, 1, 61, 95
2, 312000, Note_on_c, 1, 57, 95
2, 312120, Pitch_bend_c, 1, 8320
2, 312120, Pitch_bend_c, 1, 8320
2, 312240, Pitch_bend_c, 1, 8448
2, 312240, Pitch_bend_c, 1, 8448
2, 312360, Pitch_bend_c, 1, 8704
2, 312360, Pitch_bend_c, 1, 8704
2, 312480, Pitch_bend_c, 1, 8832
2, 312480, Pitch_bend_c, 1, 8192
2, 312480, Note_off_c, 1, 61, 95
2, 312480, Pitch_bend_c, 1, 8832
2, 312480, Pitch_bend_c, 1, 8192
2, 312480, Note_off_c, 1, 57, 95
2, 312480, Pitch_bend_c, 1, 8192
2, 312480, Note_on_c, 1, 62, 95
2, 312480, Pitch_bend_c, 1, 8192
2, 312480, Note_on_c, 1, 58, 95
2, 312600, Pitch_bend_c, 1, 8320
2, 312600, Pitch_bend_c, 1, 8320
2, 312720, Pitch_bend_c, 1, 8448
2, 312720, Pitch_bend_c, 1, 8448
2, 312720, Pitch_bend_c, 1, 8192
2, 312720, Note_off_c, 1, 62, 95
2, 312720, Pitch_bend_c, 1, 8448
2, 312720, Pitch_bend_c, 1, 8448
2, 312720, Pitch_bend_c, 1, 8192
2, 312720, Note_off_c, 1, 58, 95
2, 312720, Note_on_c, 0, 59, 95
2, 312720, Note_on_c, 0, 55, 95
2, 312960, Note_off_c, 0, 59, 95
2, 312960, Note_off_c, 0, 55, 95
2, 312960, Note_on_c, 1, 53, 95
2, 313080, Pitch_bend_c, 1, 8192
2, 313200, Pitch_bend_c, 1, 8192
2, 313200, Pitch_bend_c, 1, 8192
2, 313200, Note_off_c, 1, 53, 95
2, 313200, Pitch_bend_c, 1, 8192
2, 313200, Note_on_c, 1, 53, 95
2, 313320, Pitch_bend_c, 1, 8320
2, 313440, Pitch_bend_c, 1, 8448
2, 313440, Pitch_bend_c, 1, 8448
2, 313440, Pitch_bend_c, 1, 8192
2, 313440, Note_off_c, 1, 53, 95
2, 313440, Note_on_c, 0, 59, 95
2, 313440, Note_on_c, 0, 55, 95
2, 313920, Note_off_c, 0, 59, 95
2, 313920, Note_off_c, 0, 55, 95
2, 313920, Note_on_c, 1, 57, 95
2, 314040, Pitch_bend_c, 1, 8448
2, 314160, Pitch_bend_c, 1, 8832
2, 314160, Pitch_bend_c, 1, 8192
2, 314160, Note_off_c, 1, 57, 95
2, 314160, Pitch_bend_c, 1, 8192
2, 314160, Note_on_c, 1, 58, 95
2, 314280, Pitch_bend_c, 1, 8320
2, 314400, Pitch_bend_c, 1, 8448
2, 314400, Pitch_bend_c, 1, 8448
2, 314400, Pitch_bend_c, 1, 8192
2, 314400, Note_off_c, 1, 58, 95
2, 314400, Note_on_c, 0, 55, 95
2, 314640, Note_off_c, 0, 55, 95
2, 314640, Note_on_c, 1, 55, 95
2, 314800, Pitch_bend_c, 1, 8192
2, 314960, Pitch_bend_c, 1, 8320
2, 315120, Pitch_bend_c, 1, 8192
2, 315280, Pitch_bend_c, 1, 8320
2, 315360, Pitch_bend_c, 1, 8192
2, 315360, Pitch_bend_c, 1, 8320
2, 315360, Pitch_bend_c, 1, 8192
2, 315360, Note_off_c, 1, 55, 95
2, 315360, Note_on_c, 1, 66, 95
2, 315480, Pitch_bend_c, 1, 8448
2, 315600, Pitch_bend_c, 1, 8832
2, 315600, Pitch_bend_c, 1, 8192
2, 315600, Note_off_c, 1, 66, 95
2, 315600, Note_on_c, 0, 67, 95
2, 315840, Note_off_c, 0, 67, 95
2, 315840, Note_on_c, 1, 67, 95
2, 316000, Pitch_bend_c, 1, 8192
2, 316160, Pitch_bend_c, 1, 8320
2, 316320, Pitch_bend_c, 1, 8192
2, 316480, Pitch_bend_c, 1, 8320
2, 316640, Pitch_bend_c, 1, 8192
2, 316800, Pitch_bend_c, 1, 8320
2, 316960, Pitch_bend_c, 1, 8192
2, 317120, Pitch_bend_c, 1, 8320
2, 317280, Pitch_bend_c, 1, 8192
2, 317440, Pitch_bend_c, 1, 8320
2, 317600, Pitch_bend_c, 1, 8192
2, 317760, Pitch_bend_c, 1, 8320
2, 317920, Pitch_bend_c, 1, 8192
2, 318080, Pitch_bend_c, 1, 8320
2, 318240, Pitch_bend_c, 1, 8192
2, 318400, Pitch_bend_c, 1, 8320
2, 318560, Pitch_bend_c, 1, 8192
2, 318720, Pitch_bend_c, 1, 8320
2, 318720, Pitch_bend_c, 1, 8192
2, 318720, Note_off_c, 1, 67, 95
2, 319200, Note_on_c, 1, 74, 95
2, 319320, Pitch_bend_c, 1, 7552
2, 319440, Pitch_bend_c, 1, 6784
2, 319440, Pitch_bend_c, 1, 8192
2, 319440, Note_off_c, 1, 74, 95
2, 319440, Note_on_c, 0, 72, 95
2, 319680, Note_off_c, 0, 72, 95
2, 319680, Note_on_c, 0, 71, 95
2, 320160, Note_off_c, 0, 71, 95
2, 320160, Note_on_c, 1, 67, 95
2, 320320, Pitch_bend_c, 1, 8192
2, 320480, Pitch_bend_c, 1, 8320
2, 320640, Pitch_bend_c, 1, 8192
2, 320800, Pitch_bend_c, 1, 8320
2, 320960, Pitch_bend_c, 1, 8192
2, 321120, Pitch_bend_c, 1, 8320
2, 321280, Pitch_bend_c, 1, 8192
2, 321440, Pitch_bend_c, 1, 8320
2, 321600, Pitch_bend_c, 1, 8192
2, 321760, Pitch_bend_c, 1, 8320
2, 321920, Pitch_bend_c, 1, 8192
2, 322080, Pitch_bend_c, 1, 8320
2, 322080, Pitch_bend_c, 1, 8192
2, 322080, Note_off_c, 1, 67, 95
2, 323040, Note_on_c, 1, 62, 95
2, 323040, Note_on_c, 1, 58, 95
2, 323160, Pitch_bend_c, 1, 8832
2, 323160, Pitch_bend_c, 1, 8832
2, 323280, Pitch_bend_c, 1, 9600
2, 323280, Pitch_bend_c, 1, 8192
2, 323280, Note_off_c, 1, 62, 95
2, 323280, Pitch_bend_c, 1, 9600
2, 323280, Pitch_bend_c, 1, 8192
2, 323280, Note_off_c, 1, 58, 95
2, 323280, Note_on_c, 0, 64, 95
2, 323280, Note_on_c, 0, 60, 95
2, 323520, Note_off_c, 0, 64, 95
2, 323520, Note_off_c, 0, 60, 95
2, 323520, Note_on_c, 0, 55, 95
2, 324000, Note_off_c, 0, 55, 95
2, 324000, Note_on_c, 1, 67, 95
2, 324160, Pitch_bend_c, 1, 8192
2, 324320, Pitch_bend_c, 1, 8320
2, 324480, Pitch_bend_c, 1, 8192
2, 324640, Pitch_bend_c, 1, 8320
2, 324800, Pitch_bend_c, 1, 8192
2, 324960, Pitch_bend_c, 1, 8320
2, 325120, Pitch_bend_c, 1, 8192
2, 325280, Pitch_bend_c, 1, 8320
2, 325440, Pitch_bend_c, 1, 8192
2, 325600, Pitch_bend_c, 1, 8320
2, 325760, Pitch_bend_c, 1, 8192
2, 325920, Pitch_bend_c, 1, 8320
2, 325920, Pitch_bend_c, 1, 8192
2, 325920, Note_off_c, 1, 67, 95
2, 326880, Note_on_c, 1, 65, 95
2, 327000, Pitch_bend_c, 1, 7936
2, 327120, Pitch_bend_c, 1, 7552
2, 327120, Pitch_bend_c, 1, 8192
2, 327120, Note_off_c, 1, 65, 95
2, 327120, Note_on_c, 0, 64, 95
2, 327360, Note_off_c, 0, 64, 95
2, 327360, Note_on_c, 0, 62, 95
2, 327840, Note_off_c, 0, 62, 95
2, 327840, Note_on_c, 0, 55, 95
2, 329280, Note_off_c, 0, 55, 95
2, 330720, Note_on_c, 1, 74, 95
2, 330840, Pitch_bend_c, 1, 7552
2, 330960, Pitch_bend_c, 1, 6784
2, 330960, Pitch_bend_c, 1, 8192
2, 330960, Note_off_c, 1, 74, 95
2, 330960, Pitch_bend_c, 1, 8192
2, 330960, Note_on_c, 1, 72, 95
2, 331080, Pitch_bend_c, 1, 8320
2, 331200, Pitch_bend_c, 1, 8448
2, 331200, Pitch_bend_c, 1, 8448
2, 331200, Pitch_bend_c, 1, 8192
2, 331200, Note_off_c, 1, 72, 95
2, 331200, Note_on_c, 1, 70, 95
2, 331320, Pitch_bend_c, 1, 8448
2, 331440, Pitch_bend_c, 1, 8832
2, 331440, Pitch_bend_c, 1, 8192
2, 331440, Note_off_c, 1, 70, 95
2, 331440, Note_on_c, 0, 71, 95
2, 331680, Note_off_c, 0, 71, 95
2, 331680, Note_on_c, 1, 67, 95
2, 331840, Pitch_bend_c, 1, 8192
2, 332000, Pitch_bend_c, 1, 8320
2, 332160, Pitch_bend_c, 1, 8192
2, 332320, Pitch_bend_c, 1, 8320
2, 332480, Pitch_bend_c, 1, 8192
2, 332640, Pitch_bend_c, 1, 8320
2, 332800, Pitch_bend_c, 1, 8192
2, 332960, Pitch_bend_c, 1, 8320
2, 333120, Pitch_bend_c, 1, 8192
2, 333280, Pitch_bend_c, 1, 8320
2, 333440, Pitch_bend_c, 1, 8192
2, 333600, Pitch_bend_c, 1, 8320
2, 333600, Pitch_bend_c, 1, 8192
2, 333600, Note_off_c, 1, 67, 95
2, 333600, Note_on_c, 0, 55, 95
2, 334080, Note_off_c, 0, 55, 95
2, 334560, Note_on_c, 1, 58, 95
2, 334680, Pitch_bend_c, 1, 8448
2, 334800, Pitch_bend_c, 1, 8832
2, 334800, Pitch_bend_c, 1, 8192
2, 334800, Note_off_c, 1, 58, 95
2, 334800, Note_on_c, 0, 59, 95
2, 335040, Note_off_c, 0, 59, 95
2, 335040, Note_on_c, 0, 55, 95
2, 335520, Note_off_c, 0, 55, 95
2, 335520, Note_on_c, 1, 67, 95
2, 335680, Pitch_bend_c, 1, 8192
2, 335840, Pitch_bend_c, 1, 8320
2, 336000, Pitch_bend_c, 1, 8192
2, 336160, Pitch_bend_c, 1, 8320
2, 336320, Pitch_bend_c, 1, 8192
2, 336480, Pitch_bend_c, 1, 8320
2, 336640, Pitch_bend_c, 1, 8192
2, 336800, Pitch_bend_c, 1, 8320
2, 336960, Pitch_bend_c, 1, 8192
2, 337120, Pitch_bend_c, 1, 8320
2, 337280, Pitch_bend_c, 1, 8192
2, 337440, Pitch_bend_c, 1, 8320
2, 337440, Pitch_bend_c, 1, 8192
2, 337440, Note_off_c, 1, 67, 95
2, 337440, Note_on_c, 0, 59, 95
2, 337440, Note_on_c, 0, 55, 95
2, 337920, Note_off_c, 0, 59, 95
2, 337920, Note_off_c, 0, 55, 95
2, 338400, Note_on_c, 1, 67, 95
2, 338520, Pitch_bend_c, 1, 7552
2, 338640, Pitch_bend_c, 1, 6784
2, 338640, Pitch_bend_c, 1, 8192
2, 338640, Note_off_c, 1, 67, 95
2, 338640, Note_on_c, 0, 65, 95
2, 338880, Note_off_c, 0, 65, 95
2, 338880, Note_on_c, 0, 62, 95
2, 339360, Note_off_c, 0, 62, 95
2, 339360, Note_on_c, 1, 65, 95
2, 339520, Pitch_bend_c, 1, 8192
2, 339680, Pitch_bend_c, 1, 8320
2, 339840, Pitch_bend_c, 1, 8192
2, 340000, Pitch_bend_c, 1, 8320
2, 340160, Pitch_bend_c, 1, 8192
2, 340320, Pitch_bend_c, 1, 8320
2, 340480, Pitch_bend_c, 1, 8192
2, 340640, Pitch_bend_c, 1, 8320
2, 340800, Pitch_bend_c, 1, 8192
2, 340800, Pitch_bend_c, 1, 8320
2, 340800, Pitch_bend_c, 1, 8192
2, 340800, Note_off_c, 1, 65, 95
2, 340800, Note_on_c, 0, 60, 95
2, 341280, Note_off_c, 0, 60, 95
2, 341280, Note_on_c, 1, 58, 95
2, 341400, Pitch_bend_c, 1, 8448
2, 341520, Pitch_bend_c, 1, 8832
2, 341520, Pitch_bend_c, 1, 8192
2, 341520, Note_off_c, 1, 58, 95
2, 341520, Note_on_c, 0, 59, 95
2, 341760, Note_off_c, 0, 59, 95
2, 341760, Note_on_c, 0, 55, 95
2, 342240, Note_off_c, 0, 55, 95
2, 342240, Note_on_c, 1, 58, 95
2, 342360, Pitch_bend_c, 1, 7936
2, 342480, Pitch_bend_c, 1, 7552
2, 342480, Pitch_bend_c, 1, 8192
2, 342480, Note_off_c, 1, 58, 95
2, 342480, Note_on_c, 1, 57, 95
2, 342600, Pitch_bend_c, 1, 7552
2, 342720, Pitch_bend_c, 1, 6784
2, 342720, Pitch_bend_c, 1, 8192
2, 342720, Note_off_c, 1, 57, 95
2, 342720, Note_on_c, 0, 55, 95
2, 343200, Note_off_c, 0, 55, 95
2, 343200, Pitch_bend_c, 1, 8192
2, 343200, Note_on_c, 1, 66, 95
2, 344160, Pitch_bend_c, 1, 8320
2, 345120, Pitch_bend_c, 1, 8448
2, 345120, Pitch_bend_c, 1, 8448
2, 345120, Pitch_bend_c, 1, 8192
2, 345120, Note_off_c, 1, 66, 95
2, 345120, Note_on_c, 0, 62, 95
2, 345120, Note_on_c, 0, 59, 95
2, 345120, Note_on_c, 0, 55, 95
2, 345600, Note_off_c, 0, 62, 95
2, 345600, Note_off_c, 0, 59, 95
2, 345600, Note_off_c, 0, 55, 95
2, 345600, Note_on_c, 1, 67, 95
2, 345600, Note_on_c, 1, 64, 95
2, 345720, Pitch_bend_c, 1, 7552
2, 345720, Pitch_bend_c, 1, 7552
2, 345840, Pitch_bend_c, 1, 6784
2, 345840, Pitch_bend_c, 1, 8192
2, 345840, Note_off_c, 1, 67, 95
2, 345840, Pitch_bend_c, 1, 6784
2, 345840, Pitch_bend_c, 1, 8192
2, 345840, Note_off_c, 1, 64, 95
2, 345840, Note_on_c, 0, 65, 95
2, 345840, Note_on_c, 0, 62, 95
2, 346080, Note_off_c, 0, 65, 95
2, 346080, Note_off_c, 0, 62, 95
2, 346080, Note_on_c, 0, 62, 95
2, 346080, Note_on_c, 0, 59, 95
2, 346560, Note_off_c, 0, 62, 95
2, 346560, Note_off_c, 0, 59, 95
2, 346560, Pitch_bend_c, 1, 8192
2, 346560, Note_on_c, 1, 62, 95
2, 346560, Pitch_bend_c, 1, 8192
2, 346560, Note_on_c, 1, 58, 95
2, 346800, Pitch_bend_c, 1, 8320
2, 346800, Pitch_bend_c, 1, 8320
2, 347040, Pitch_bend_c, 1, 8448
2, 347040, Pitch_bend_c, 1, 8448
2, 347040, Pitch_bend_c, 1, 8192
2, 347040, Note_off_c, 1, 62, 95
2, 347040, Pitch_bend_c, 1, 8448
2, 347040, Pitch_bend_c, 1, 8448
2, 347040, Pitch_bend_c, 1, 8192
2, 347040, Note_off_c, 1, 58, 95
2, 347040, Note_on_c, 0, 59, 95
2, 347040, Note_on_c, 0, 55, 95
2, 347520, Note_off_c, 0, 59, 95
2, 347520, Note_off_c, 0, 55, 95
2, 347520, Note_on_c, 1, 67, 95
2, 347520, Note_on_c, 1, 64, 95
2, 347520, Note_on_c, 1, 60, 95
2, 347680, Pitch_bend_c, 1, 8192
2, 347680, Pitch_bend_c, 1, 8192
2, 347680, Pitch_bend_c, 1, 8192
2, 347840, Pitch_bend_c, 1, 8320
2, 347840, Pitch_bend_c, 1, 8320
2, 347840, Pitch_bend_c, 1, 8320
2, 348000, Pitch_bend_c, 1, 8192
2, 348000, Pitch_bend_c, 1, 8192
2, 348000, Pitch_bend_c, 1, 8192
2, 348160, Pitch_bend_c, 1, 8320
2, 348160, Pitch_bend_c, 1, 8320
2, 348160, Pitch_bend_c, 1, 8320
2, 348240, Pitch_bend_c, 1, 8192
2, 348240, Pitch_bend_c, 1, 8320
2, 348240, Pitch_bend_c, 1, 8192
2, 348240, Note_off_c, 1, 67, 95
2, 348240, Pitch_bend_c, 1, 8192
2, 348240, Pitch_bend_c, 1, 8320
2, 348240, Pitch_bend_c, 1, 8192
2, 348240, Note_off_c, 1, 64, 95
2, 348240, Pitch_bend_c, 1, 8192
2, 348240, Pitch_bend_c, 1, 8320
2, 348240, Pitch_bend_c, 1, 8192
2, 348240, Note_off_c, 1, 60, 95
2, 348240, Note_on_c, 0, 67, 95
2, 348240, Note_on_c, 0, 64, 95
2, 348240, Note_on_c, 0, 60, 95
2, 348720, Note_off_c, 0, 67, 95
2, 348720, Note_off_c, 0, 64, 95
2, 348720, Note_off_c, 0, 60, 95
2, 348720, Note_on_c, 0, 62, 95
2, 348720, Note_on_c, 0, 59, 95
2, 348720, Note_on_c, 0, 55, 95
2, 348960, Note_off_c, 0, 62, 95
2, 348960, Note_off_c, 0, 59, 95
2, 348960, Note_off_c, 0, 55, 95
2, 349440, Note_on_c, 1, 67, 95
2, 349440, Note_on_c, 1, 64, 95
2, 349560, Pitch_bend_c, 1, 7552
2, 349560, Pitch_bend_c, 1, 7552
2, 349680, Pitch_bend_c, 1, 6784
2, 349680, Pitch_bend_c, 1, 8192
2, 349680, Note_off_c, 1, 67, 95
2, 349680, Pitch_bend_c, 1, 6784
2, 349680, Pitch_bend_c, 1, 8192
2, 349680, Note_off_c, 1, 64, 95
2, 349680, Note_on_c, 0, 65, 95
2, 349680, Note_on_c, 0, 62, 95
2, 349920, Note_off_c, 0, 65, 95
2, 349920, Note_off_c, 0, 62, 95
2, 349920, Note_on_c, 0, 62, 95
2, 349920, Note_on_c, 0, 59, 95
2, 350400, Note_off_c, 0, 62, 95
2, 350400, Note_off_c, 0, 59, 95
2, 350400, Pitch_bend_c, 1, 8192
2, 350400, Note_on_c, 1, 62, 95
2, 350400, Pitch_bend_c, 1, 8192
2, 350400, Note_on_c, 1, 58, 95
2, 350640, Pitch_bend_c, 1, 8320
2, 350640, Pitch_bend_c, 1, 8320
2, 350880, Pitch_bend_c, 1, 8448
2, 350880, Pitch_bend_c, 1, 8448
2, 350880, Pitch_bend_c, 1, 8192
2, 350880, Note_off_c, 1, 62, 95
2, 350880, Pitch_bend_c, 1, 8448
2, 350880, Pitch_bend_c, 1, 8448
2, 350880, Pitch_bend_c, 1, 8192
2, 350880, Note_off_c, 1, 58, 95
2, 350880, Note_on_c, 0, 59, 95
2, 350880, Note_on_c, 0, 55, 95
2, 351360, Note_off_c, 0, 59, 95
2, 351360, Note_off_c, 0, 55, 95
2, 351360, Note_on_c, 1, 67, 95
2, 351360, Note_on_c, 1, 64, 95
2, 351520, Pitch_bend_c, 1, 8192
2, 351520, Pitch_bend_c, 1, 8192
2, 351680, Pitch_bend_c, 1, 8320
2, 351680, Pitch_bend_c, 1, 8320
2, 351840, Pitch_bend_c, 1, 8192
2, 351840, Pitch_bend_c, 1, 8192
2, 352000, Pitch_bend_c, 1, 8320
2, 352000, Pitch_bend_c, 1, 8320
2, 352080, Pitch_bend_c, 1, 8192
2, 352080, Pitch_bend_c, 1, 8320
2, 352080, Pitch_bend_c, 1, 8192
2, 352080, Note_off_c, 1, 67, 95
2, 352080, Pitch_bend_c, 1, 8192
2, 352080, Pitch_bend_c, 1, 8320
2, 352080, Pitch_bend_c, 1, 8192
2, 352080, Note_off_c, 1, 64, 95
2, 352080, Note_on_c, 1, 67, 95
2, 352080, Note_on_c, 1, 64, 95
2, 352240, Pitch_bend_c, 1, 8192
2, 352240, Pitch_bend_c, 1, 8192
2, 352400, Pitch_bend_c, 1, 8320
2, 352400, Pitch_bend_c, 1, 8320
2, 352560, Pitch_bend_c, 1, 8192
2, 352560, Pitch_bend_c, 1, 8320
2, 352560, Pitch_bend_c, 1, 8192
2, 352560, Note_off_c, 1, 67, 95
2, 352560, Pitch_bend_c, 1, 8192
2, 352560, Pitch_bend_c, 1, 8320
2, 352560, Pitch_bend_c, 1, 8192
2, 352560, Note_off_c, 1, 64, 95
2, 352560, Note_on_c, 0, 62, 95
2, 352560, Note_on_c, 0, 59, 95
2, 352560, Note_on_c, 0, 55, 95
2, 352800, Note_off_c, 0, 62, 95
2, 352800, Note_off_c, 0, 59, 95
2, 352800, Note_off_c, 0, 55, 95
2, 352800, Note_on_c, 0, 62, 95
2, 352800, Note_on_c, 0, 59, 95
2, 352800, Note_on_c, 0, 55, 95
2, 353280, Note_off_c, 0, 62, 95
2, 353280, Note_off_c, 0, 59, 95
2, 353280, Note_off_c, 0, 55, 95
2, 353280, Note_on_c, 1, 67, 95
2, 353280, Note_on_c, 1, 64, 95
2, 353400, Pitch_bend_c, 1, 7552
2, 353400, Pitch_bend_c, 1, 7552
2, 353520, Pitch_bend_c, 1, 6784
2, 353520, Pitch_bend_c, 1, 8192
2, 353520, Note_off_c, 1, 67, 95
2, 353520, Pitch_bend_c, 1, 6784
2, 353520, Pitch_bend_c, 1, 8192
2, 353520, Note_off_c, 1, 64, 95
2, 353520, Note_on_c, 0, 65, 95
2, 353520, Note_on_c, 0, 62, 95
2, 353760, Note_off_c, 0, 65, 95
2, 353760, Note_off_c, 0, 62, 95
2, 353760, Note_on_c, 0, 62, 95
2, 353760, Note_on_c, 0, 59, 95
2, 354240, Note_off_c, 0, 62, 95
2, 354240, Note_off_c, 0, 59, 95
2, 354240, Pitch_bend_c, 1, 8192
2, 354240, Note_on_c, 1, 62, 95
2, 354240, Pitch_bend_c, 1, 8192
2, 354240, Note_on_c, 1, 58, 95
2, 354480, Pitch_bend_c, 1, 8320
2, 354480, Pitch_bend_c, 1, 8320
2, 354720, Pitch_bend_c, 1, 8448
2, 354720, Pitch_bend_c, 1, 8448
2, 354720, Pitch_bend_c, 1, 8192
2, 354720, Note_off_c, 1, 62, 95
2, 354720, Pitch_bend_c, 1, 8448
2, 354720, Pitch_bend_c, 1, 8448
2, 354720, Pitch_bend_c, 1, 8192
2, 354720, Note_off_c, 1, 58, 95
2, 354720, Note_on_c, 0, 59, 95
2, 354720, Note_on_c, 0, 55, 95
2, 355200, Note_off_c, 0, 59, 95
2, 355200, Note_off_c, 0, 55, 95
2, 355200, Note_on_c, 1, 67, 95
2, 355200, Note_on_c, 1, 64, 95
2, 355360, Pitch_bend_c, 1, 8192
2, 355360, Pitch_bend_c, 1, 8192
2, 355520, Pitch_bend_c, 1, 8320
2, 355520, Pitch_bend_c, 1, 8320
2, 355680, Pitch_bend_c, 1, 8192
2, 355680, Pitch_bend_c, 1, 8192
2, 355840, Pitch_bend_c, 1, 8320
2, 355840, Pitch_bend_c, 1, 8320
2, 355920, Pitch_bend_c, 1, 8192
2, 355920, Pitch_bend_c, 1, 8320
2, 355920, Pitch_bend_c, 1, 8192
2, 355920, Note_off_c, 1, 67, 95
2, 355920, Pitch_bend_c, 1, 8192
2, 355920, Pitch_bend_c, 1, 8320
2, 355920, Pitch_bend_c, 1, 8192
2, 355920, Note_off_c, 1, 64, 95
2, 355920, Note_on_c, 1, 67, 95
2, 355920, Note_on_c, 1, 64, 95
2, 356080, Pitch_bend_c, 1, 8192
2, 356080, Pitch_bend_c, 1, 8192
2, 356240, Pitch_bend_c, 1, 8320
2, 356240, Pitch_bend_c, 1, 8320
2, 356400, Pitch_bend_c, 1, 8192
2, 356400, Pitch_bend_c, 1, 8320
2, 356400, Pitch_bend_c, 1, 8192
2, 356400, Note_off_c, 1, 67, 95
2, 356400, Pitch_bend_c, 1, 8192
2, 356400, Pitch_bend_c, 1, 8320
2, 356400, Pitch_bend_c, 1, 8192
2, 356400, Note_off_c, 1, 64, 95
2, 356400, Note_on_c, 0, 62, 95
2, 356400, Note_on_c, 0, 59, 95
2, 356640, Note_off_c, 0, 62, 95
2, 356640, Note_off_c, 0, 59, 95
2, 356640, Note_on_c, 0, 55, 95
2, 357120, Note_off_c, 0, 55, 95
2, 357120, Note_on_c, 1, 67, 95
2, 357120, Note_on_c, 1, 64, 95
2, 357240, Pitch_bend_c, 1, 7552
2, 357240, Pitch_bend_c, 1, 7552
2, 357360, Pitch_bend_c, 1, 6784
2, 357360, Pitch_bend_c, 1, 8192
2, 357360, Note_off_c, 1, 67, 95
2, 357360, Pitch_bend_c, 1, 6784
2, 357360, Pitch_bend_c, 1, 8192
2, 357360, Note_off_c, 1, 64, 95
2, 357360, Note_on_c, 0, 65, 95
2, 357360, Note_on_c, 0, 62, 95
2, 357600, Note_off_c, 0, 65, 95
2, 357600, Note_off_c, 0, 62, 95
2, 357600, Note_on_c, 0, 62, 95
2, 357600, Note_on_c, 0, 59, 95
2, 358080, Note_off_c, 0, 62, 95
2, 358080, Note_off_c, 0, 59, 95
2, 358080, Pitch_bend_c, 1, 8192
2, 358080, Note_on_c, 1, 62, 95
2, 358080, Pitch_bend_c, 1, 8192
2, 358080, Note_on_c, 1, 58, 95
2, 358320, Pitch_bend_c, 1, 8320
2, 358320, Pitch_bend_c, 1, 8320
2, 358560, Pitch_bend_c, 1, 8448
2, 358560, Pitch_bend_c, 1, 8448
2, 358560, Pitch_bend_c, 1, 8192
2, 358560, Note_off_c, 1, 62, 95
2, 358560, Pitch_bend_c, 1, 8448
2, 358560, Pitch_bend_c, 1, 8448
2, 358560, Pitch_bend_c, 1, 8192
2, 358560, Note_off_c, 1, 58, 95
2, 358560, Note_on_c, 0, 59, 95
2, 358560, Note_on_c, 0, 55, 95
2, 359040, Note_off_c, 0, 59, 95
2, 359040, Note_off_c, 0, 55, 95
2, 359040, Note_on_c, 1, 67, 95
2, 359200, Pitch_bend_c, 1, 8192
2, 359360, Pitch_bend_c, 1, 8320
2, 359520, Pitch_bend_c, 1, 8192
2, 359680, Pitch_bend_c, 1, 8320
2, 359760, Pitch_bend_c, 1, 8192
2, 359760, Pitch_bend_c, 1, 8320
2, 359760, Pitch_bend_c, 1, 8192
2, 359760, Note_off_c, 1, 67, 95
2, 359760, Note_on_c, 1, 67, 95
2, 359920, Pitch_bend_c, 1, 8192
2, 360080, Pitch_bend_c, 1, 8320
2, 360240, Pitch_bend_c, 1, 8192
2, 360240, Pitch_bend_c, 1, 8320
2, 360240, Pitch_bend_c, 1, 8192
2, 360240, Note_off_c, 1, 67, 95
2, 360240, Note_on_c, 0, 62, 95
2, 360240, Note_on_c, 0, 59, 95
2, 360480, Note_off_c, 0, 62, 95
2, 360480, Note_off_c, 0, 59, 95
2, 360480, Note_on_c, 0, 55, 95
2, 360960, Note_off_c, 0, 55, 95
2, 360960, Note_on_c, 1, 67, 95
2, 361080, Pitch_bend_c, 1, 7552
2, 361200, Pitch_bend_c, 1, 6784
2, 361200, Pitch_bend_c, 1, 8192
2, 361200, Note_off_c, 1, 67, 95
2, 361200, Note_on_c, 0, 65, 95
2, 361440, Note_off_c, 0, 65, 95
2, 361440, Note_on_c, 0, 62, 95
2, 361920, Note_off_c, 0, 62, 95
2, 361920, Pitch_bend_c, 1, 8192
2, 361920, Note_on_c, 1, 62, 95
2, 362160, Pitch_bend_c, 1, 8320
2, 362400, Pitch_bend_c, 1, 8448
2, 362400, Pitch_bend_c, 1, 8448
2, 362400, Pitch_bend_c, 1, 8192
2, 362400, Note_off_c, 1, 62, 95
2, 362400, Note_on_c, 0, 55, 95
2, 362880, Note_off_c, 0, 55, 95
2, 362880, Note_on_c, 1, 67, 95
2, 363040, Pitch_bend_c, 1, 8192
2, 363200, Pitch_bend_c, 1, 8320
2, 363360, Pitch_bend_c, 1, 8192
2, 363520, Pitch_bend_c, 1, 8320
2, 363600, Pitch_bend_c, 1, 8192
2, 363600, Pitch_bend_c, 1, 8320
2, 363600, Pitch_bend_c, 1, 8192
2, 363600, Note_off_c, 1, 67, 95
2, 363600, Note_on_c, 1, 67, 95
2, 363760, Pitch_bend_c, 1, 8192
2, 363920, Pitch_bend_c, 1, 8320
2, 364080, Pitch_bend_c, 1, 8192
2, 364080, Pitch_bend_c, 1, 8320
2, 364080, Pitch_bend_c, 1, 8192
2, 364080, Note_off_c, 1, 67, 95
2, 364080, Note_on_c, 0, 62, 95
2, 364320, Note_off_c, 0, 62, 95
2, 364320, Note_on_c, 0, 62, 95
2, 364320, Note_on_c, 0, 59, 95
2, 364800, Note_off_c, 0, 62, 95
2, 364800, Note_off_c, 0, 59, 95
2, 364800, Note_on_c, 1, 67, 95
2, 364920, Pitch_bend_c, 1, 7552
2, 365040, Pitch_bend_c, 1, 6784
2, 365040, Pitch_bend_c, 1, 8192
2, 365040, Note_off_c, 1, 67, 95
2, 365040, Note_on_c, 0, 65, 95
2, 365280, Note_off_c, 0, 65, 95
2, 365280, Note_on_c, 0, 62, 95
2, 365760, Note_off_c, 0, 62, 95
2, 365760, Note_on_c, 1, 61, 95
2, 365760, Note_on_c, 1, 57, 95
2, 365880, Pitch_bend_c, 1, 8448
2, 365880, Pitch_bend_c, 1, 8448
2, 366000, Pitch_bend_c, 1, 8832
2, 366000, Pitch_bend_c, 1, 8192
2, 366000, Note_off_c, 1, 61, 95
2, 366000, Pitch_bend_c, 1, 8832
2, 366000, Pitch_bend_c, 1, 8192
2, 366000, Note_off_c, 1, 57, 95
2, 366000, Pitch_bend_c, 1, 8192
2, 366000, Note_on_c, 1, 62, 95
2, 366000, Pitch_bend_c, 1, 8192
2, 366000, Note_on_c, 1, 58, 95
2, 366120, Pitch_bend_c, 1, 8320
2, 366120, Pitch_bend_c, 1, 8320
2, 366240, Pitch_bend_c, 1, 8448
2, 366240, Pitch_bend_c, 1, 8448
2, 366240, Pitch_bend_c, 1, 8192
2, 366240, Note_off_c, 1, 62, 95
2, 366240, Pitch_bend_c, 1, 8448
2, 366240, Pitch_bend_c, 1, 8448
2, 366240, Pitch_bend_c, 1, 8192
2, 366240, Note_off_c, 1, 58, 95
2, 366240, Note_on_c, 0, 55, 95
2, 366720, Note_off_c, 0, 55, 95
2, 366720, Note_on_c, 1, 67, 95
2, 366880, Pitch_bend_c, 1, 8192
2, 367040, Pitch_bend_c, 1, 8320
2, 367200, Pitch_bend_c, 1, 8192
2, 367360, Pitch_bend_c, 1, 8320
2, 367440, Pitch_bend_c, 1, 8192
2, 367440, Pitch_bend_c, 1, 8320
2, 367440, Pitch_bend_c, 1, 8192
2, 367440, Note_off_c, 1, 67, 95
2, 367440, Note_on_c, 1, 67, 95
2, 367600, Pitch_bend_c, 1, 8192
2, 367760, Pitch_bend_c, 1, 8320
2, 367920, Pitch_bend_c, 1, 8192
2, 367920, Pitch_bend_c, 1, 8320
2, 367920, Pitch_bend_c, 1, 8192
2, 367920, Note_off_c, 1, 67, 95
2, 367920, Note_on_c, 0, 62, 95
2, 368160, Note_off_c, 0, 62, 95
2, 368160, Note_on_c, 0, 62, 95
2, 368160, Note_on_c, 0, 59, 95
2, 368160, Note_on_c, 0, 55, 95
2, 368640, Note_off_c, 0, 62, 95
2, 368640, Note_off_c, 0, 59, 95
2, 368640, Note_off_c, 0, 55, 95
2, 368640, Note_on_c, 1, 67, 95
2, 368760, Pitch_bend_c, 1, 7552
2, 368880, Pitch_bend_c, 1, 6784
2, 368880, Pitch_bend_c, 1, 8192
2, 368880, Note_off_c, 1, 67, 95
2, 368880, Note_on_c, 0, 65, 95
2, 369120, Note_off_c, 0, 65, 95
2, 369120, Note_on_c, 0, 62, 95
2, 369600, Note_off_c, 0, 62, 95
2, 369600, Note_on_c, 1, 61, 95
2, 369600, Note_on_c, 1, 57, 95
2, 369720, Pitch_bend_c, 1, 8448
2, 369720, Pitch_bend_c, 1, 8448
2, 369840, Pitch_bend_c, 1, 8832
2, 369840, Pitch_bend_c, 1, 8192
2, 369840, Note_off_c, 1, 61, 95
2, 369840, Pitch_bend_c, 1, 8832
2, 369840, Pitch_bend_c, 1, 8192
2, 369840, Note_off_c, 1, 57, 95
2, 369840, Pitch_bend_c, 1, 8192
2, 369840, Note_on_c, 1, 62, 95
2, 369840, Pitch_bend_c, 1, 8192
2, 369840, Note_on_c, 1, 58, 95
2, 369960, Pitch_bend_c, 1, 8320
2, 369960, Pitch_bend_c, 1, 8320
2, 370080, Pitch_bend_c, 1, 8448
2, 370080, Pitch_bend_c, 1, 8448
2, 370080, Pitch_bend_c, 1, 8192
2, 370080, Note_off_c, 1, 62, 95
2, 370080, Pitch_bend_c, 1, 8448
2, 370080, Pitch_bend_c, 1, 8448
2, 370080, Pitch_bend_c, 1, 8192
2, 370080, Note_off_c, 1, 58, 95
2, 370080, Note_on_c, 0, 59, 95
2, 370080, Note_on_c, 0, 55, 95
2, 370560, Note_off_c, 0, 59, 95
2, 370560, Note_off_c, 0, 55, 95
2, 370560, Note_on_c, 1, 67, 95
2, 370720, Pitch_bend_c, 1, 8192
2, 370880, Pitch_bend_c, 1, 8320
2, 371040, Pitch_bend_c, 1, 8192
2, 371200, Pitch_bend_c, 1, 8320
2, 371280, Pitch_bend_c, 1, 8192
2, 371280, Pitch_bend_c, 1, 8320
2, 371280, Pitch_bend_c, 1, 8192
2, 371280, Note_off_c, 1, 67, 95
2, 371280, Note_on_c, 1, 67, 95
2, 371440, Pitch_bend_c, 1, 8192
2, 371600, Pitch_bend_c, 1, 8320
2, 371760, Pitch_bend_c, 1, 8192
2, 371760, Pitch_bend_c, 1, 8320
2, 371760, Pitch_bend_c, 1, 8192
2, 371760, Note_off_c, 1, 67, 95
2, 371760, Note_on_c, 0, 62, 95
2, 372000, Note_off_c, 0, 62, 95
2, 372000, Note_on_c, 0, 62, 95
2, 372000, Note_on_c, 0, 59, 95
2, 372480, Note_off_c, 0, 62, 95
2, 372480, Note_off_c, 0, 59, 95
2, 372480, Note_on_c, 1, 67, 95
2, 372480, Note_on_c, 1, 64, 95
2, 372600, Pitch_bend_c, 1, 7552
2, 372600, Pitch_bend_c, 1, 7552
2, 372720, Pitch_bend_c, 1, 6784
2, 372720, Pitch_bend_c, 1, 8192
2, 372720, Note_off_c, 1, 67, 95
2, 372720, Pitch_bend_c, 1, 6784
2, 372720, Pitch_bend_c, 1, 8192
2, 372720, Note_off_c, 1, 64, 95
2, 372720, Note_on_c, 0, 65, 95
2, 372720, Note_on_c, 0, 62, 95
2, 372960, Note_off_c, 0, 65, 95
2, 372960, Note_off_c, 0, 62, 95
2, 372960, Note_on_c, 0, 62, 95
2, 372960, Note_on_c, 0, 59, 95
2, 373440, Note_off_c, 0, 62, 95
2, 373440, Note_off_c, 0, 59, 95
2, 373440, Note_on_c, 1, 61, 95
2, 373440, Note_on_c, 1, 57, 95
2, 373560, Pitch_bend_c, 1, 8448
2, 373560, Pitch_bend_c, 1, 8448
2, 373680, Pitch_bend_c, 1, 8832
2, 373680, Pitch_bend_c, 1, 8192
2, 373680, Note_off_c, 1, 61, 95
2, 373680, Pitch_bend_c, 1, 8832
2, 373680, Pitch_bend_c, 1, 8192
2, 373680, Note_off_c, 1, 57, 95
2, 373680, Pitch_bend_c, 1, 8192
2, 373680, Note_on_c, 1, 62, 95
2, 373680, Pitch_bend_c, 1, 8192
2, 373680, Note_on_c, 1, 58, 95
2, 373800, Pitch_bend_c, 1, 8320
2, 373800, Pitch_bend_c, 1, 8320
2, 373920, Pitch_bend_c, 1, 8448
2, 373920, Pitch_bend_c, 1, 8448
2, 373920, Pitch_bend_c, 1, 8192
2, 373920, Note_off_c, 1, 62, 95
2, 373920, Pitch_bend_c, 1, 8448
2, 373920, Pitch_bend_c, 1, 8448
2, 373920, Pitch_bend_c, 1, 8192
2, 373920, Note_off_c, 1, 58, 95
2, 373920, Note_on_c, 0, 59, 95
2, 373920, Note_on_c, 0, 55, 95
2, 374400, Note_off_c, 0, 59, 95
2, 374400, Note_off_c, 0, 55, 95
2, 374400, Note_on_c, 1, 67, 95
2, 374560, Pitch_bend_c, 1, 8192
2, 374720, Pitch_bend_c, 1, 8320
2, 374880, Pitch_bend_c, 1, 8192
2, 375040, Pitch_bend_c, 1, 8320
2, 375120, Pitch_bend_c, 1, 8192
2, 375120, Pitch_bend_c, 1, 8320
2, 375120, Pitch_bend_c, 1, 8192
2, 375120, Note_off_c, 1, 67, 95
2, 375120, Note_on_c, 1, 67, 95
2, 375280, Pitch_bend_c, 1, 8192
2, 375440, Pitch_bend_c, 1, 8320
2, 375600, Pitch_bend_c, 1, 8192
2, 375600, Pitch_bend_c, 1, 8320
2, 375600, Pitch_bend_c, 1, 8192
2, 375600, Note_off_c, 1, 67, 95
2, 375600, Note_on_c, 0, 62, 95
2, 375600, Note_on_c, 0, 59, 95
2, 375840, Note_off_c, 0, 62, 95
2, 375840, Note_off_c, 0, 59, 95
2, 375840, Note_on_c, 0, 55, 95
2, 376320, Note_off_c, 0, 55, 95
2, 376320, Note_on_c, 1, 67, 95
2, 376320, Note_on_c, 1, 64, 95
2, 376440, Pitch_bend_c, 1, 7552
2, 376440, Pitch_bend_c, 1, 7552
2, 376560, Pitch_bend_c, 1, 6784
2, 376560, Pitch_bend_c, 1, 8192
2, 376560, Note_off_c, 1, 67, 95
2, 376560, Pitch_bend_c, 1, 6784
2, 376560, Pitch_bend_c, 1, 8192
2, 376560, Note_off_c, 1, 64, 95
2, 376560, Note_on_c, 0, 65, 95
2, 376560, Note_on_c, 0, 62, 95
2, 376800, Note_off_c, 0, 65, 95
2, 376800, Note_off_c, 0, 62, 95
2, 376800, Note_on_c, 0, 62, 95
2, 376800, Note_on_c, 0, 59, 95
2, 377280, Note_off_c, 0, 62, 95
2, 377280, Note_off_c, 0, 59, 95
2, 377280, Note_on_c, 1, 61, 95
2, 377280, Note_on_c, 1, 57, 95
2, 377400, Pitch_bend_c, 1, 8448
2, 377400, Pitch_bend_c, 1, 8448
2, 377520, Pitch_bend_c, 1, 8832
2, 377520, Pitch_bend_c, 1, 8192
2, 377520, Note_off_c, 1, 61, 95
2, 377520, Pitch_bend_c, 1, 8832
2, 377520, Pitch_bend_c, 1, 8192
2, 377520, Note_off_c, 1, 57, 95
2, 377520, Pitch_bend_c, 1, 8192
2, 377520, Note_on_c, 1, 62, 95
2, 377520, Pitch_bend_c, 1, 8192
2, 377520, Note_on_c, 1, 58, 95
2, 377640, Pitch_bend_c, 1, 8320
2, 377640, Pitch_bend_c, 1, 8320
2, 377760, Pitch_bend_c, 1, 8448
2, 377760, Pitch_bend_c, 1, 8448
2, 377760, Pitch_bend_c, 1, 8192
2, 377760, Note_off_c, 1, 62, 95
2, 377760, Pitch_bend_c, 1, 8448
2, 377760, Pitch_bend_c, 1, 8448
2, 377760, Pitch_bend_c, 1, 8192
2, 377760, Note_off_c, 1, 58, 95
2, 377760, Note_on_c, 0, 59, 95
2, 377760, Note_on_c, 0, 55, 95
2, 378240, Note_off_c, 0, 59, 95
2, 378240, Note_off_c, 0, 55, 95
2, 378240, Note_on_c, 1, 67, 95
2, 378400, Pitch_bend_c, 1, 8192
2, 378560, Pitch_bend_c, 1, 8320
2, 378720, Pitch_bend_c, 1, 8192
2, 378880, Pitch_bend_c, 1, 8320
2, 378960, Pitch_bend_c, 1, 8192
2, 378960, Pitch_bend_c, 1, 8320
2, 378960, Pitch_bend_c, 1, 8192
2, 378960, Note_off_c, 1, 67, 95
2, 378960, Note_on_c, 1, 67, 95
2, 379120, Pitch_bend_c, 1, 8192
2, 379280, Pitch_bend_c, 1, 8320
2, 379440, Pitch_bend_c, 1, 8192
2, 379440, Pitch_bend_c, 1, 8320
2, 379440, Pitch_bend_c, 1, 8192
2, 379440, Note_off_c, 1, 67, 95
2, 379440, Note_on_c, 0, 62, 95
2, 379440, Note_on_c, 0, 59, 95
2, 379680, Note_off_c, 0, 62, 95
2, 379680, Note_off_c, 0, 59, 95
2, 379680, Note_on_c, 0, 55, 95
2, 380160, Note_off_c, 0, 55, 95
2, 380160, Note_on_c, 1, 67, 95
2, 380280, Pitch_bend_c, 1, 7552
2, 380400, Pitch_bend_c, 1, 6784
2, 380400, Pitch_bend_c, 1, 8192
2, 380400, Note_off_c, 1, 67, 95
2, 380400, Note_on_c, 0, 65, 95
2, 380640, Note_off_c, 0, 65, 95
2, 380640, Note_on_c, 0, 62, 95
2, 381120, Note_off_c, 0, 62, 95
2, 381120, Note_on_c, 1, 61, 95
2, 381120, Note_on_c, 1, 57, 95
2, 381240, Pitch_bend_c, 1, 8448
2, 381240, Pitch_bend_c, 1, 8448
2, 381360, Pitch_bend_c, 1, 8832
2, 381360, Pitch_bend_c, 1, 8192
2, 381360, Note_off_c, 1, 61, 95
2, 381360, Pitch_bend_c, 1, 8832
2, 381360, Pitch_bend_c, 1, 8192
2, 381360, Note_off_c, 1, 57, 95
2, 381360, Pitch_bend_c, 1, 8192
2, 381360, Note_on_c, 1, 62, 95
2, 381360, Pitch_bend_c, 1, 8192
2, 381360, Note_on_c, 1, 58, 95
2, 381480, Pitch_bend_c, 1, 8320
2, 381480, Pitch_bend_c, 1, 8320
2, 381600, Pitch_bend_c, 1, 8448
2, 381600, Pitch_bend_c, 1, 8448
2, 381600, Pitch_bend_c, 1, 8192
2, 381600, Note_off_c, 1, 62, 95
2, 381600, Pitch_bend_c, 1, 8448
2, 381600, Pitch_bend_c, 1, 8448
2, 381600, Pitch_bend_c, 1, 8192
2, 381600, Note_off_c, 1, 58, 95
2, 381600, Note_on_c, 0, 59, 95
2, 381600, Note_on_c, 0, 55, 95
2, 382080, Note_off_c, 0, 59, 95
2, 382080, Note_off_c, 0, 55, 95
2, 382080, Note_on_c, 1, 67, 95
2, 382240, Pitch_bend_c, 1, 8192
2, 382400, Pitch_bend_c, 1, 8320
2, 382560, Pitch_bend_c, 1, 8192
2, 382720, Pitch_bend_c, 1, 8320
2, 382800, Pitch_bend_c, 1, 8192
2, 382800, Pitch_bend_c, 1, 8320
2, 382800, Pitch_bend_c, 1, 8192
2, 382800, Note_off_c, 1, 67, 95
2, 382800, Note_on_c, 1, 67, 95
2, 382960, Pitch_bend_c, 1, 8192
2, 383120, Pitch_bend_c, 1, 8320
2, 383280, Pitch_bend_c, 1, 8192
2, 383280, Pitch_bend_c, 1, 8320
2, 383280, Pitch_bend_c, 1, 8192
2, 383280, Note_off_c, 1, 67, 95
2, 383280, Note_on_c, 0, 62, 95
2, 383280, Note_on_c, 0, 59, 95
2, 383520, Note_off_c, 0, 62, 95
2, 383520, Note_off_c, 0, 59, 95
2, 383520, Note_on_c, 0, 55, 95
2, 384000, Note_off_c, 0, 55, 95
2, 384000, Note_on_c, 1, 67, 95
2, 384120, Pitch_bend_c, 1, 7552
2, 384240, Pitch_bend_c, 1, 6784
2, 384240, Pitch_bend_c, 1, 8192
2, 384240, Note_off_c, 1, 67, 95
2, 384240, Note_on_c, 0, 65, 95
2, 384480, Note_off_c, 0, 65, 95
2, 384480, Note_on_c, 0, 62, 95
2, 384960, Note_off_c, 0, 62, 95
2, 384960, Note_on_c, 1, 61, 95
2, 384960, Note_on_c, 1, 57, 95
2, 385080, Pitch_bend_c, 1, 8448
2, 385080, Pitch_bend_c, 1, 8448
2, 385200, Pitch_bend_c, 1, 8832
2, 385200, Pitch_bend_c, 1, 8192
2, 385200, Note_off_c, 1, 61, 95
2, 385200, Pitch_bend_c, 1, 8832
2, 385200, Pitch_bend_c, 1, 8192
2, 385200, Note_off_c, 1, 57, 95
2, 385200, Pitch_bend_c, 1, 8192
2, 385200, Note_on_c, 1, 62, 95
2, 385200, Pitch_bend_c, 1, 8192
2, 385200, Note_on_c, 1, 58, 95
2, 385320, Pitch_bend_c, 1, 8320
2, 385320, Pitch_bend_c, 1, 8320
2, 385440, Pitch_bend_c, 1, 8448
2, 385440, Pitch_bend_c, 1, 8448
2, 385440, Pitch_bend_c, 1, 8192
2, 385440, Note_off_c, 1, 62, 95
2, 385440, Pitch_bend_c, 1, 8448
2, 385440, Pitch_bend_c, 1, 8448
2, 385440, Pitch_bend_c, 1, 8192
2, 385440, Note_off_c, 1, 58, 95
2, 385440, Note_on_c, 0, 59, 95
2, 385440, Note_on_c, 0, 55, 95
2, 385920, Note_off_c, 0, 59, 95
2, 385920, Note_off_c, 0, 55, 95
2, 385920, Note_on_c, 1, 67, 95
2, 386080, Pitch_bend_c, 1, 8192
2, 386240, Pitch_bend_c, 1, 8320
2, 386400, Pitch_bend_c, 1, 8192
2, 386560, Pitch_bend_c, 1, 8320
2, 386640, Pitch_bend_c, 1, 8192
2, 386640, Pitch_bend_c, 1, 8320
2, 386640, Pitch_bend_c, 1, 8192
2, 386640, Note_off_c, 1, 67, 95
2, 386640, Note_on_c, 1, 67, 95
2, 386800, Pitch_bend_c, 1, 8192
2, 386960, Pitch_bend_c, 1, 8320
2, 387120, Pitch_bend_c, 1, 8192
2, 387120, Pitch_bend_c, 1, 8320
2, 387120, Pitch_bend_c, 1, 8192
2, 387120, Note_off_c, 1, 67, 95
2, 387120, Note_on_c, 0, 62, 95
2, 387120, Note_on_c, 0, 59, 95
2, 387360, Note_off_c, 0, 62, 95
2, 387360, Note_off_c, 0, 59, 95
2, 387360, Note_on_c, 0, 55, 95
2, 387840, Note_off_c, 0, 55, 95
2, 387840, Note_on_c, 1, 67, 95
2, 387960, Pitch_bend_c, 1, 7552
2, 388080, Pitch_bend_c, 1, 6784
2, 388080, Pitch_bend_c, 1, 8192
2, 388080, Note_off_c, 1, 67, 95
2, 388080, Note_on_c, 0, 65, 95
2, 388320, Note_off_c, 0, 65, 95
2, 388320, Note_on_c, 0, 62, 95
2, 388800, Note_off_c, 0, 62, 95
2, 388800, Note_on_c, 1, 61, 95
2, 388800, Note_on_c, 1, 57, 95
2, 388920, Pitch_bend_c, 1, 8448
2, 388920, Pitch_bend_c, 1, 8448
2, 389040, Pitch_bend_c, 1, 8832
2, 389040, Pitch_bend_c, 1, 8192
2, 389040, Note_off_c, 1, 61, 95
2, 389040, Pitch_bend_c, 1, 8832
2, 389040, Pitch_bend_c, 1, 8192
2, 389040, Note_off_c, 1, 57, 95
2, 389040, Pitch_bend_c, 1, 8192
2, 389040, Note_on_c, 1, 62, 95
2, 389040, Pitch_bend_c, 1, 8192
2, 389040, Note_on_c, 1, 58, 95
2, 389160, Pitch_bend_c, 1, 8320
2, 389160, Pitch_bend_c, 1, 8320
2, 389280, Pitch_bend_c, 1, 8448
2, 389280, Pitch_bend_c, 1, 8448
2, 389280, Pitch_bend_c, 1, 8192
2, 389280, Note_off_c, 1, 62, 95
2, 389280, Pitch_bend_c, 1, 8448
2, 389280, Pitch_bend_c, 1, 8448
2, 389280, Pitch_bend_c, 1, 8192
2, 389280, Note_off_c, 1, 58, 95
2, 389280, Note_on_c, 0, 59, 95
2, 389280, Note_on_c, 0, 55, 95
2, 389760, Note_off_c, 0, 59, 95
2, 389760, Note_off_c, 0, 55, 95
2, 389760, Note_on_c, 1, 67, 95
2, 389920, Pitch_bend_c, 1, 8192
2, 390080, Pitch_bend_c, 1, 8320
2, 390240, Pitch_bend_c, 1, 8192
2, 390400, Pitch_bend_c, 1, 8320
2, 390480, Pitch_bend_c, 1, 8192
2, 390480, Pitch_bend_c, 1, 8320
2, 390480, Pitch_bend_c, 1, 8192
2, 390480, Note_off_c, 1, 67, 95
2, 390480, Note_on_c, 1, 67, 95
2, 390640, Pitch_bend_c, 1, 8192
2, 390800, Pitch_bend_c, 1, 8320
2, 390960, Pitch_bend_c, 1, 8192
2, 390960, Pitch_bend_c, 1, 8320
2, 390960, Pitch_bend_c, 1, 8192
2, 390960, Note_off_c, 1, 67, 95
2, 390960, Note_on_c, 0, 62, 95
2, 390960, Note_on_c, 0, 59, 95
2, 391200, Note_off_c, 0, 62, 95
2, 391200, Note_off_c, 0, 59, 95
2, 391200, Note_on_c, 0, 55, 95
2, 391680, Note_off_c, 0, 55, 95
2, 391680, Note_on_c, 1, 67, 95
2, 391800, Pitch_bend_c, 1, 7552
2, 391920, Pitch_bend_c, 1, 6784
2, 391920, Pitch_bend_c, 1, 8192
2, 391920, Note_off_c, 1, 67, 95
2, 391920, Note_on_c, 0, 65, 95
2, 392160, Note_off_c, 0, 65, 95
2, 392160, Note_on_c, 0, 62, 95
2, 392640, Note_off_c, 0, 62, 95
2, 392640, Note_on_c, 1, 61, 95
2, 392640, Note_on_c, 1, 57, 95
2, 392760, Pitch_bend_c, 1, 8448
2, 392760, Pitch_bend_c, 1, 8448
2, 392880, Pitch_bend_c, 1, 8832
2, 392880, Pitch_bend_c, 1, 8192
2, 392880, Note_off_c, 1, 61, 95
2, 392880, Pitch_bend_c, 1, 8832
2, 392880, Pitch_bend_c, 1, 8192
2, 392880, Note_off_c, 1, 57, 95
2, 392880, Pitch_bend_c, 1, 8192
2, 392880, Note_on_c, 1, 62, 95
2, 392880, Pitch_bend_c, 1, 8192
2, 392880, Note_on_c, 1, 58, 95
2, 393000, Pitch_bend_c, 1, 8320
2, 393000, Pitch_bend_c, 1, 8320
2, 393120, Pitch_bend_c, 1, 8448
2, 393120, Pitch_bend_c, 1, 8448
2, 393120, Pitch_bend_c, 1, 8192
2, 393120, Note_off_c, 1, 62, 95
2, 393120, Pitch_bend_c, 1, 8448
2, 393120, Pitch_bend_c, 1, 8448
2, 393120, Pitch_bend_c, 1, 8192
2, 393120, Note_off_c, 1, 58, 95
2, 393120, Note_on_c, 0, 59, 95
2, 393120, Note_on_c, 0, 55, 95
2, 393600, Note_off_c, 0, 59, 95
2, 393600, Note_off_c, 0, 55, 95
2, 393600, Note_on_c, 1, 67, 95
2, 393760, Pitch_bend_c, 1, 8192
2, 393920, Pitch_bend_c, 1, 8320
2, 394080, Pitch_bend_c, 1, 8192
2, 394240, Pitch_bend_c, 1, 8320
2, 394320, Pitch_bend_c, 1, 8192
2, 394320, Pitch_bend_c, 1, 8320
2, 394320, Pitch_bend_c, 1, 8192
2, 394320, Note_off_c, 1, 67, 95
2, 394320, Note_on_c, 1, 67, 95
2, 394480, Pitch_bend_c, 1, 8192
2, 394640, Pitch_bend_c, 1, 8320
2, 394800, Pitch_bend_c, 1, 8192
2, 394800, Pitch_bend_c, 1, 8320
2, 394800, Pitch_bend_c, 1, 8192
2, 394800, Note_off_c, 1, 67, 95
2, 394800, Note_on_c, 0, 62, 95
2, 394800, Note_on_c, 0, 59, 95
2, 395040, Note_off_c, 0, 62, 95
2, 395040, Note_off_c, 0, 59, 95
2, 395040, Note_on_c, 0, 55, 95
2, 395520, Note_off_c, 0, 55, 95
2, 395520, Note_on_c, 1, 67, 95
2, 395640, Pitch_bend_c, 1, 7552
2, 395760, Pitch_bend_c, 1, 6784
2, 395760, Pitch_bend_c, 1, 8192
2, 395760, Note_off_c, 1, 67, 95
2, 395760, Note_on_c, 0, 65, 95
2, 396000, Note_off_c, 0, 65, 95
2, 396000, Note_on_c, 0, 62, 95
2, 396480, Note_off_c, 0, 62, 95
2, 396480, Note_on_c, 1, 61, 95
2, 396480, Note_on_c, 1, 57, 95
2, 396600, Pitch_bend_c, 1, 8448
2, 396600, Pitch_bend_c, 1, 8448
2, 396720, Pitch_bend_c, 1, 8832
2, 396720, Pitch_bend_c, 1, 8192
2, 396720, Note_off_c, 1, 61, 95
2, 396720, Pitch_bend_c, 1, 8832
2, 396720, Pitch_bend_c, 1, 8192
2, 396720, Note_off_c, 1, 57, 95
2, 396720, Pitch_bend_c, 1, 8192
2, 396720, Note_on_c, 1, 62, 95
2, 396720, Pitch_bend_c, 1, 8192
2, 396720, Note_on_c, 1, 58, 95
2, 396840, Pitch_bend_c, 1, 8320
2, 396840, Pitch_bend_c, 1, 8320
2, 396960, Pitch_bend_c, 1, 8448
2, 396960, Pitch_bend_c, 1, 8448
2, 396960, Pitch_bend_c, 1, 8192
2, 396960, Note_off_c, 1, 62, 95
2, 396960, Pitch_bend_c, 1, 8448
2, 396960, Pitch_bend_c, 1, 8448
2, 396960, Pitch_bend_c, 1, 8192
2, 396960, Note_off_c, 1, 58, 95
2, 396960, Note_on_c, 0, 59, 95
2, 396960, Note_on_c, 0, 55, 95
2, 397440, Note_off_c, 0, 59, 95
2, 397440, Note_off_c, 0, 55, 95
2, 397440, Note_on_c, 1, 67, 95
2, 397600, Pitch_bend_c, 1, 8192
2, 397760, Pitch_bend_c, 1, 8320
2, 397920, Pitch_bend_c, 1, 8192
2, 398080, Pitch_bend_c, 1, 8320
2, 398160, Pitch_bend_c, 1, 8192
2, 398160, Pitch_bend_c, 1, 8320
2, 398160, Pitch_bend_c, 1, 8192
2, 398160, Note_off_c, 1, 67, 95
2, 398160, Note_on_c, 1, 67, 95
2, 398320, Pitch_bend_c, 1, 8192
2, 398480, Pitch_bend_c, 1, 8320
2, 398640, Pitch_bend_c, 1, 8192
2, 398640, Pitch_bend_c, 1, 8320
2, 398640, Pitch_bend_c, 1, 8192
2, 398640, Note_off_c, 1, 67, 95
2, 398640, Note_on_c, 0, 62, 95
2, 398640, Note_on_c, 0, 59, 95
2, 398880, Note_off_c, 0, 62, 95
2, 398880, Note_off_c, 0, 59, 95
2, 398880, Note_on_c, 0, 55, 95
2, 399360, Note_off_c, 0, 55, 95
2, 399360, Note_on_c, 1, 67, 95
2, 399480, Pitch_bend_c, 1, 7552
2, 399600, Pitch_bend_c, 1, 6784
2, 399600, Pitch_bend_c, 1, 8192
2, 399600, Note_off_c, 1, 67, 95
2, 399600, Note_on_c, 0, 65, 95
2, 399840, Note_off_c, 0, 65, 95
2, 399840, Note_on_c, 0, 62, 95
2, 400320, Note_off_c, 0, 62, 95
2, 400320, Note_on_c, 1, 61, 95
2, 400320, Note_on_c, 1, 57, 95
2, 400440, Pitch_bend_c, 1, 8448
2, 400440, Pitch_bend_c, 1, 8448
2, 400560, Pitch_bend_c, 1, 8832
2, 400560, Pitch_bend_c, 1, 8192
2, 400560, Note_off_c, 1, 61, 95
2, 400560, Pitch_bend_c, 1, 8832
2, 400560, Pitch_bend_c, 1, 8192
2, 400560, Note_off_c, 1, 57, 95
2, 400560, Pitch_bend_c, 1, 8192
2, 400560, Note_on_c, 1, 62, 95
2, 400560, Pitch_bend_c, 1, 8192
2, 400560, Note_on_c, 1, 58, 95
2, 400680, Pitch_bend_c, 1, 8320
2, 400680, Pitch_bend_c, 1, 8320
2, 400800, Pitch_bend_c, 1, 8448
2, 400800, Pitch_bend_c, 1, 8448
2, 400800, Pitch_bend_c, 1, 8192
2, 400800, Note_off_c, 1, 62, 95
2, 400800, Pitch_bend_c, 1, 8448
2, 400800, Pitch_bend_c, 1, 8448
2, 400800, Pitch_bend_c, 1, 8192
2, 400800, Note_off_c, 1, 58, 95
2, 400800, Note_on_c, 0, 59, 95
2, 400800, Note_on_c, 0, 55, 95
2, 401280, Note_off_c, 0, 59, 95
2, 401280, Note_off_c, 0, 55, 95
2, 401280, Note_on_c, 1, 67, 95
2, 401440, Pitch_bend_c, 1, 8192
2, 401600, Pitch_bend_c, 1, 8320
2, 401760, Pitch_bend_c, 1, 8192
2, 401920, Pitch_bend_c, 1, 8320
2, 402000, Pitch_bend_c, 1, 8192
2, 402000, Pitch_bend_c, 1, 8320
2, 402000, Pitch_bend_c, 1, 8192
2, 402000, Note_off_c, 1, 67, 95
2, 402000, Note_on_c, 1, 67, 95
2, 402160, Pitch_bend_c, 1, 8192
2, 402320, Pitch_bend_c, 1, 8320
2, 402480, Pitch_bend_c, 1, 8192
2, 402480, Pitch_bend_c, 1, 8320
2, 402480, Pitch_bend_c, 1, 8192
2, 402480, Note_off_c, 1, 67, 95
2, 402480, Note_on_c, 0, 62, 95
2, 402480, Note_on_c, 0, 59, 95
2, 402720, Note_off_c, 0, 62, 95
2, 402720, Note_off_c, 0, 59, 95
2, 402720, Note_on_c, 0, 55, 95
2, 403200, Note_off_c, 0, 55, 95
2, 403200, Note_on_c, 1, 67, 95
2, 403320, Pitch_bend_c, 1, 7552
2, 403440, Pitch_bend_c, 1, 6784
2, 403440, Pitch_bend_c, 1, 8192
2, 403440, Note_off_c, 1, 67, 95
2, 403440, Note_on_c, 0, 65, 95
2, 403680, Note_off_c, 0, 65, 95
2, 403680, Note_on_c, 0, 62, 95
2, 404160, Note_off_c, 0, 62, 95
2, 409680, Note_on_c, 1, 67, 95
2, 409840, Pitch_bend_c, 1, 8192
2, 409920, Pitch_bend_c, 1, 8320
2, 409920, Pitch_bend_c, 1, 8192
2, 409920, Note_off_c, 1, 67, 95
2, 409920, Note_on_c, 1, 67, 95
2, 410080, Pitch_bend_c, 1, 8192
2, 410160, Pitch_bend_c, 1, 8320
2, 410160, Pitch_bend_c, 1, 8192
2, 410160, Note_off_c, 1, 67, 95
2, 410160, Note_on_c, 0, 62, 95
2, 410160, Note_on_c, 0, 59, 95
2, 410160, Note_on_c, 0, 55, 95
2, 410880, Note_off_c, 0, 62, 95
2, 410880, Note_off_c, 0, 59, 95
2, 410880, Note_off_c, 0, 55, 95
2, 410880, Note_on_c, 1, 67, 95
2, 411000, Pitch_bend_c, 1, 7552
2, 411120, Pitch_bend_c, 1, 6784
2, 411120, Pitch_bend_c, 1, 8192
2, 411120, Note_off_c, 1, 67, 95
2, 411120, Note_on_c, 0, 65, 95
2, 411360, Note_off_c, 0, 65, 95
2, 411360, Note_on_c, 0, 62, 95
2, 411840, Note_off_c, 0, 62, 95
2, 411840, Note_on_c, 1, 58, 95
2, 411960, Pitch_bend_c, 1, 8192
2, 412080, Pitch_bend_c, 1, 8192
2, 412080, Pitch_bend_c, 1, 8192
2, 412080, Note_off_c, 1, 58, 95
2, 412080, Pitch_bend_c, 1, 8192
2, 412080, Note_on_c, 1, 58, 95
2, 412200, Pitch_bend_c, 1, 8320
2, 412320, Pitch_bend_c, 1, 8448
2, 412320, Pitch_bend_c, 1, 8448
2, 412320, Pitch_bend_c, 1, 8192
2, 412320, Note_off_c, 1, 58, 95
2, 412320, Note_on_c, 0, 55, 95
2, 412800, Note_off_c, 0, 55, 95
2, 412800, Note_on_c, 1, 67, 95
2, 412960, Pitch_bend_c, 1, 8192
2, 413120, Pitch_bend_c, 1, 8320
2, 413280, Pitch_bend_c, 1, 8192
2, 413440, Pitch_bend_c, 1, 8320
2, 413520, Pitch_bend_c, 1, 8192
2, 413520, Pitch_bend_c, 1, 8320
2, 413520, Pitch_bend_c, 1, 8192
2, 413520, Note_off_c, 1, 67, 95
2, 413520, Note_on_c, 1, 67, 95
2, 413680, Pitch_bend_c, 1, 8192
2, 413760, Pitch_bend_c, 1, 8320
2, 413760, Pitch_bend_c, 1, 8192
2, 413760, Note_off_c, 1, 67, 95
2, 413760, Note_on_c, 1, 67, 95
2, 413920, Pitch_bend_c, 1, 8192
2, 414000, Pitch_bend_c, 1, 8320
2, 414000, Pitch_bend_c, 1, 8192
2, 414000, Note_off_c, 1, 67, 95
2, 414000, Note_on_c, 0, 62, 95
2, 414720, Note_off_c, 0, 62, 95
2, 414720, Note_on_c, 1, 67, 95
2, 414720, Note_on_c, 1, 64, 95
2, 414840, Pitch_bend_c, 1, 7552
2, 414840, Pitch_bend_c, 1, 7552
2, 414960, Pitch_bend_c, 1, 6784
2, 414960, Pitch_bend_c, 1, 8192
2, 414960, Note_off_c, 1, 67, 95
2, 414960, Pitch_bend_c, 1, 6784
2, 414960, Pitch_bend_c, 1, 8192
2, 414960, Note_off_c, 1, 64, 95
2, 414960, Note_on_c, 0, 65, 95
2, 414960, Note_on_c, 0, 62, 95
2, 415200, Note_off_c, 0, 65, 95
2, 415200, Note_off_c, 0, 62, 95
2, 415200, Note_on_c, 0, 62, 95
2, 415200, Note_on_c, 0, 59, 95
2, 415680, Note_off_c, 0, 62, 95
2, 415680, Note_off_c, 0, 59, 95
2, 415680, Pitch_bend_c, 1, 8192
2, 415680, Note_on_c, 1, 62, 95
2, 415680, Pitch_bend_c, 1, 8192
2, 415680, Note_on_c, 1, 58, 95
2, 415920, Pitch_bend_c, 1, 8320
2, 415920, Pitch_bend_c, 1, 8320
2, 416160, Pitch_bend_c, 1, 8448
2, 416160, Pitch_bend_c, 1, 8448
2, 416160, Pitch_bend_c, 1, 8192
2, 416160, Note_off_c, 1, 62, 95
2, 416160, Pitch_bend_c, 1, 8448
2, 416160, Pitch_bend_c, 1, 8448
2, 416160, Pitch_bend_c, 1, 8192
2, 416160, Note_off_c, 1, 58, 95
2, 416160, Note_on_c, 0, 59, 95
2, 416160, Note_on_c, 0, 55, 95
2, 416640, Note_off_c, 0, 59, 95
2, 416640, Note_off_c, 0, 55, 95
2, 416640, Note_on_c, 1, 67, 95
2, 416800, Pitch_bend_c, 1, 8192
2, 416960, Pitch_bend_c, 1, 8320
2, 417120, Pitch_bend_c, 1, 8192
2, 417280, Pitch_bend_c, 1, 8320
2, 417360, Pitch_bend_c, 1, 8192
2, 417360, Pitch_bend_c, 1, 8320
2, 417360, Pitch_bend_c, 1, 8192
2, 417360, Note_off_c, 1, 67, 95
2, 417360, Note_on_c, 1, 67, 95
2, 417520, Pitch_bend_c, 1, 8192
2, 417680, Pitch_bend_c, 1, 8320
2, 417840, Pitch_bend_c, 1, 8192
2, 417840, Pitch_bend_c, 1, 8320
2, 417840, Pitch_bend_c, 1, 8192
2, 417840, Note_off_c, 1, 67, 95
2, 417840, Note_on_c, 0, 62, 95
2, 417840, Note_on_c, 0, 59, 95
2, 418080, Note_off_c, 0, 62, 95
2, 418080, Note_off_c, 0, 59, 95
2, 418080, Note_on_c, 0, 55, 95
2, 418560, Note_off_c, 0, 55, 95
2, 418560, Note_on_c, 1, 67, 95
2, 418560, Note_on_c, 1, 64, 95
2, 418680, Pitch_bend_c, 1, 7552
2, 418680, Pitch_bend_c, 1, 7552
2, 418800, Pitch_bend_c, 1, 6784
2, 418800, Pitch_bend_c, 1, 8192
2, 418800, Note_off_c, 1, 67, 95
2, 418800, Pitch_bend_c, 1, 6784
2, 418800, Pitch_bend_c, 1, 8192
2, 418800, Note_off_c, 1, 64, 95
2, 418800, Note_on_c, 0, 65, 95
2, 418800, Note_on_c, 0, 62, 95
2, 419040, Note_off_c, 0, 65, 95
2, 419040, Note_off_c, 0, 62, 95
2, 419040, Note_on_c, 0, 62, 95
2, 419040, Note_on_c, 0, 59, 95
2, 419520, Note_off_c, 0, 62, 95
2, 419520, Note_off_c, 0, 59, 95
2, 419520, Pitch_bend_c, 1, 8192
2, 419520, Note_on_c, 1, 58, 95
2, 419760, Pitch_bend_c, 1, 8320
2, 420000, Pitch_bend_c, 1, 8448
2, 420000, Pitch_bend_c, 1, 8448
2, 420000, Pitch_bend_c, 1, 8192
2, 420000, Note_off_c, 1, 58, 95
2, 420000, Note_on_c, 0, 55, 95
2, 421680, Note_off_c, 0, 55, 95
2, 421680, Note_on_c, 0, 62, 95
2, 421680, Note_on_c, 0, 59, 95
2, 421680, Note_on_c, 0, 55, 95
2, 421680, Note_on_c, 0, 50, 95
2, 421920, Note_off_c, 0, 62, 95
2, 421920, Note_off_c, 0, 59, 95
2, 421920, Note_off_c, 0, 55, 95
2, 421920, Note_off_c, 0, 50, 95
2, 421920, Note_on_c, 1, 64, 95
2, 421920, Note_on_c, 1, 60, 95
2, 421920, Note_on_c, 1, 55, 95
2, 422040, Pitch_bend_c, 1, 9344
2, 422040, Pitch_bend_c, 1, 9344
2, 422040, Pitch_bend_c, 1, 9344
2, 422160, Pitch_bend_c, 1, 10624
2, 422160, Pitch_bend_c, 1, 10624
2, 422160, Pitch_bend_c, 1, 10624
2, 422280, Pitch_bend_c, 1, 11776
2, 422280, Pitch_bend_c, 1, 11776
2, 422280, Pitch_bend_c, 1, 11776
2, 422400, Pitch_bend_c, 1, 13056
2, 422400, Pitch_bend_c, 1, 8192
2, 422400, Note_off_c, 1, 64, 95
2, 422400, Pitch_bend_c, 1, 13056
2, 422400, Pitch_bend_c, 1, 8192
2, 422400, Note_off_c, 1, 60, 95
2, 422400, Pitch_bend_c, 1, 13056
2, 422400, Pitch_bend_c, 1, 8192
2, 422400, Note_off_c, 1, 55, 95
2, 422400, Note_on_c, 1, 71, 95
2, 422400, Note_on_c, 1, 67, 95
2, 422400, Note_on_c, 1, 62, 95
2, 422560, Pitch_bend_c, 1, 8192
2, 422560, Pitch_bend_c, 1, 8192
2, 422560, Pitch_bend_c, 1, 8192
2, 422720, Pitch_bend_c, 1, 8320
2, 422720, Pitch_bend_c, 1, 8320
2, 422720, Pitch_bend_c, 1, 8320
2, 422880, Pitch_bend_c, 1, 8192
2, 422880, Pitch_bend_c, 1, 8192
2, 422880, Pitch_bend_c, 1, 8192
2, 423040, Pitch_bend_c, 1, 8320
2, 423040, Pitch_bend_c, 1, 8320
2, 423040, Pitch_bend_c, 1, 8320
2, 423200, Pitch_bend_c, 1, 8192
2, 423200, Pitch_bend_c, 1, 8192
2, 423200, Pitch_bend_c, 1, 8192
2, 423360, Pitch_bend_c, 1, 8320
2, 423360, Pitch_bend_c, 1, 8320
2, 423360, Pitch_bend_c, 1, 8320
2, 423520, Pitch_bend_c, 1, 8192
2, 423520, Pitch_bend_c, 1, 8192
2, 423520, Pitch_bend_c, 1, 8192
2, 423680, Pitch_bend_c, 1, 8320
2, 423680, Pitch_bend_c, 1, 8320
2, 423680, Pitch_bend_c, 1, 8320
2, 423840, Pitch_bend_c, 1, 8192
2, 423840, Pitch_bend_c, 1, 8192
2, 423840, Pitch_bend_c, 1, 8192
2, 424000, Pitch_bend_c, 1, 8320
2, 424000, Pitch_bend_c, 1, 8320
2, 424000, Pitch_bend_c, 1, 8320
2, 424160, Pitch_bend_c, 1, 8192
2, 424160, Pitch_bend_c, 1, 8192
2, 424160, Pitch_bend_c, 1, 8192
2, 424320, Pitch_bend_c, 1, 8320
2, 424320, Pitch_bend_c, 1, 8320
2, 424320, Pitch_bend_c, 1, 8320
2, 424480, Pitch_bend_c, 1, 8192
2, 424480, Pitch_bend_c, 1, 8192
2, 424480, Pitch_bend_c, 1, 8192
2, 424640, Pitch_bend_c, 1, 8320
2, 424640, Pitch_bend_c, 1, 8320
2, 424640, Pitch_bend_c, 1, 8320
2, 424800, Pitch_bend_c, 1, 8192
2, 424800, Pitch_bend_c, 1, 8192
2, 424800, Pitch_bend_c, 1, 8192
2, 424960, Pitch_bend_c, 1, 8320
2, 424960, Pitch_bend_c, 1, 8320
2, 424960, Pitch_bend_c, 1, 8320
2, 425120, Pitch_bend_c, 1, 8192
2, 425120, Pitch_bend_c, 1, 8192
2, 425120, Pitch_bend_c, 1, 8192
2, 425280, Pitch_bend_c, 1, 8320
2, 425280, Pitch_bend_c, 1, 8320
2, 425280, Pitch_bend_c, 1, 8320
2, 425440, Pitch_bend_c, 1, 8192
2, 425440, Pitch_bend_c, 1, 8192
2, 425440, Pitch_bend_c, 1, 8192
2, 425600, Pitch_bend_c, 1, 8320
2, 425600, Pitch_bend_c, 1, 8320
2, 425600, Pitch_bend_c, 1, 8320
2, 425760, Pitch_bend_c, 1, 8192
2, 425760, Pitch_bend_c, 1, 8192
2, 425760, Pitch_bend_c, 1, 8192
2, 425920, Pitch_bend_c, 1, 8320
2, 425920, Pitch_bend_c, 1, 8320
2, 425920, Pitch_bend_c, 1, 8320
2, 426080, Pitch_bend_c, 1, 8192
2, 426080, Pitch_bend_c, 1, 8192
2, 426080, Pitch_bend_c, 1, 8192
2, 426240, Pitch_bend_c, 1, 8320
2, 426240, Pitch_bend_c, 1, 8320
2, 426240, Pitch_bend_c, 1, 8320
2, 426400, Pitch_bend_c, 1, 8192
2, 426400, Pitch_bend_c, 1, 8192
2, 426400, Pitch_bend_c, 1, 8192
2, 426560, Pitch_bend_c, 1, 8320
2, 426560, Pitch_bend_c, 1, 8320
2, 426560, Pitch_bend_c, 1, 8320
2, 426720, Pitch_bend_c, 1, 8192
2, 426720, Pitch_bend_c, 1, 8192
2, 426720, Pitch_bend_c, 1, 8192
2, 426880, Pitch_bend_c, 1, 8320
2, 426880, Pitch_bend_c, 1, 8320
2, 426880, Pitch_bend_c, 1, 8320
2, 427040, Pitch_bend_c, 1, 8192
2, 427040, Pitch_bend_c, 1, 8192
2, 427040, Pitch_bend_c, 1, 8192
2, 427200, Pitch_bend_c, 1, 8320
2, 427200, Pitch_bend_c, 1, 8320
2, 427200, Pitch_bend_c, 1, 8320
2, 427360, Pitch_bend_c, 1, 8192
2, 427360, Pitch_bend_c, 1, 8192
2, 427360, Pitch_bend_c, 1, 8192
2, 427520, Pitch_bend_c, 1, 8320
2, 427520, Pitch_bend_c, 1, 8320
2, 427520, Pitch_bend_c, 1, 8320
2, 427680, Pitch_bend_c, 1, 8192
2, 427680, Pitch_bend_c, 1, 8192
2, 427680, Pitch_bend_c, 1, 8192
2, 427840, Pitch_bend_c, 1, 8320
2, 427840, Pitch_bend_c, 1, 8320
2, 427840, Pitch_bend_c, 1, 8320
2, 428000, Pitch_bend_c, 1, 8192
2, 428000, Pitch_bend_c, 1, 8192
2, 428000, Pitch_bend_c, 1, 8192
2, 428160, Pitch_bend_c, 1, 8320
2, 428160, Pitch_bend_c, 1, 8192
2, 428160, Note_off_c, 1, 71, 95
2, 428160, Pitch_bend_c, 1, 8320
2, 428160, Pitch_bend_c, 1, 8192
2, 428160, Note_off_c, 1, 67, 95
2, 428160, Pitch_bend_c, 1, 8320
2, 428160, Pitch_bend_c, 1, 8192
2, 428160, Note_off_c, 1, 62, 95
2, 436320, Note_on_c, 1, 74, 95
2, 436440, Pitch_bend_c, 1, 7552
2, 436560, Pitch_bend_c, 1, 6784
2, 436560, Pitch_bend_c, 1, 8192
2, 436560, Note_off_c, 1, 74, 95
2, 436560, Pitch_bend_c, 1, 8192
2, 436560, Note_on_c, 1, 72, 95
2, 436680, Pitch_bend_c, 1, 8320
2, 436800, Pitch_bend_c, 1, 8448
2, 436800, Pitch_bend_c, 1, 8448
2, 436800, Pitch_bend_c, 1, 8192
2, 436800, Note_off_c, 1, 72, 95
2, 436800, Note_on_c, 0, 71, 95
2, 437280, Note_off_c, 0, 71, 95
2, 437280, Note_on_c, 1, 67, 95
2, 437440, Pitch_bend_c, 1, 8192
2, 437600, Pitch_bend_c, 1, 8320
2, 437760, Pitch_bend_c, 1, 8192
2, 437920, Pitch_bend_c, 1, 8320
2, 438080, Pitch_bend_c, 1, 8192
2, 438240, Pitch_bend_c, 1, 8320
2, 438400, Pitch_bend_c, 1, 8192
2, 438560, Pitch_bend_c, 1, 8320
2, 438720, Pitch_bend_c, 1, 8192
2, 438880, Pitch_bend_c, 1, 8320
2, 439040, Pitch_bend_c, 1, 8192
2, 439200, Pitch_bend_c, 1, 8320
2, 439360, Pitch_bend_c, 1, 8192
2, 439520, Pitch_bend_c, 1, 8320
2, 439680, Pitch_bend_c, 1, 8192
2, 439680, Pitch_bend_c, 1, 8320
2, 439680, Pitch_bend_c, 1, 8192
2, 439680, Note_off_c, 1, 67, 95
2, 439680, End_track
0, 0, End_of_file
