0, 0, Header, 1, 12, 480
1, 0, Start_track
1, 0, Title_t, "Untitled Song"
1, 0, SMPTE_offset, 0, 0, 0, 0, 0
1, 0, Tempo, 571428
1, 0, Time_signature, 4, 2, 24, 8
1, 0, Key_signature, -1, "minor"
1, 0, End_track
2, 0, Start_track
2, 0, Title_t, "Trombone"
2, 0, MIDI_port, 0
2, 0, Channel_prefix, 0
2, 0, Control_c, 0, 7, 127
2, 0, Control_c, 0, 10, 96
2, 0, Program_c, 0, 57
2, 0, Control_c, 0, 121, 0
2, 40, Control_c, 0, 123, 0
2, 80, Control_c, 0, 93, 65
2, 120, Control_c, 0, 91, 45
2, 160, Control_c, 0, 64, 0
2, 7680, Note_on_c, 0, 67, 112
2, 7680, Note_on_c, 0, 70, 103
2, 7680, Note_on_c, 0, 75, 103
2, 9024, Note_off_c, 0, 75, 64
2, 9024, Note_off_c, 0, 70, 64
2, 9024, Note_off_c, 0, 67, 64
2, 9360, Note_on_c, 0, 67, 115
2, 9360, Note_on_c, 0, 70, 124
2, 9360, Note_on_c, 0, 75, 111
2, 9456, Note_off_c, 0, 75, 64
2, 9456, Note_off_c, 0, 70, 64
2, 9456, Note_off_c, 0, 67, 64
2, 9480, Note_on_c, 0, 65, 113
2, 9480, Note_on_c, 0, 70, 122
2, 9480, Note_on_c, 0, 74, 122
2, 10920, Note_off_c, 0, 74, 64
2, 10920, Note_off_c, 0, 70, 64
2, 10920, Note_off_c, 0, 65, 64
2, 11280, Note_on_c, 0, 65, 105
2, 11280, Note_on_c, 0, 70, 125
2, 11280, Note_on_c, 0, 74, 109
2, 11376, Note_off_c, 0, 74, 64
2, 11376, Note_off_c, 0, 70, 64
2, 11376, Note_off_c, 0, 65, 64
2, 11400, Note_on_c, 0, 72, 112
2, 11400, Note_on_c, 0, 69, 101
2, 11400, Note_on_c, 0, 65, 104
2, 14189, Note_off_c, 0, 65, 64
2, 14189, Note_off_c, 0, 69, 64
2, 14189, Note_off_c, 0, 72, 64
2, 14280, Note_on_c, 0, 68, 104
2, 14376, Note_off_c, 0, 68, 64
2, 14400, Note_on_c, 0, 69, 110
2, 14516, Note_off_c, 0, 69, 64
2, 14520, Note_on_c, 0, 62, 112
2, 14520, Note_on_c, 0, 70, 112
2, 14616, Note_off_c, 0, 70, 64
2, 14616, Note_off_c, 0, 62, 64
2, 14640, Note_on_c, 0, 68, 111
2, 14736, Note_off_c, 0, 68, 64
2, 14760, Note_on_c, 0, 69, 111
2, 14851, Note_off_c, 0, 69, 64
2, 14880, Note_on_c, 0, 65, 110
2, 14996, Note_off_c, 0, 65, 64
2, 15000, Note_on_c, 0, 60, 101
2, 15096, Note_off_c, 0, 60, 64
2, 15120, Note_on_c, 0, 62, 120
2, 15312, Note_off_c, 0, 62, 64
2, 15360, Note_on_c, 0, 67, 120
2, 15360, Note_on_c, 0, 70, 110
2, 15360, Note_on_c, 0, 75, 112
2, 15580, Note_off_c, 0, 75, 64
2, 15580, Note_off_c, 0, 70, 64
2, 15580, Note_off_c, 0, 67, 64
2, 17040, Note_on_c, 0, 67, 111
2, 17040, Note_on_c, 0, 70, 110
2, 17040, Note_on_c, 0, 75, 106
2, 17136, Note_off_c, 0, 75, 64
2, 17136, Note_off_c, 0, 70, 64
2, 17136, Note_off_c, 0, 67, 64
2, 17160, Note_on_c, 0, 67, 104
2, 17160, Note_on_c, 0, 70, 114
2, 17160, Note_on_c, 0, 75, 117
2, 17260, Note_off_c, 0, 75, 64
2, 17260, Note_off_c, 0, 70, 64
2, 17260, Note_off_c, 0, 67, 64
2, 18000, Note_on_c, 0, 67, 122
2, 18000, Note_on_c, 0, 70, 113
2, 18000, Note_on_c, 0, 75, 104
2, 18096, Note_off_c, 0, 75, 64
2, 18096, Note_off_c, 0, 70, 64
2, 18096, Note_off_c, 0, 67, 64
2, 18120, Note_on_c, 0, 67, 110
2, 18120, Note_on_c, 0, 70, 111
2, 18120, Note_on_c, 0, 75, 107
2, 18312, Note_off_c, 0, 75, 64
2, 18312, Note_off_c, 0, 70, 64
2, 18312, Note_off_c, 0, 67, 64
2, 18360, Note_on_c, 0, 72, 100
2, 18456, Note_off_c, 0, 72, 64
2, 18480, Note_on_c, 0, 74, 108
2, 18580, Note_off_c, 0, 74, 64
2, 18720, Note_on_c, 0, 65, 110
2, 18720, Note_on_c, 0, 77, 123
2, 19104, Note_off_c, 0, 77, 64
2, 19104, Note_off_c, 0, 65, 64
2, 19200, Note_on_c, 0, 65, 113
2, 19200, Note_on_c, 0, 77, 101
2, 19392, Note_off_c, 0, 77, 64
2, 19392, Note_off_c, 0, 65, 64
2, 19440, Note_on_c, 0, 65, 117
2, 19440, Note_on_c, 0, 77, 104
2, 19632, Note_off_c, 0, 77, 64
2, 19632, Note_off_c, 0, 65, 64
2, 19680, Note_on_c, 0, 65, 111
2, 19680, Note_on_c, 0, 77, 114
2, 19872, Note_off_c, 0, 77, 64
2, 19872, Note_off_c, 0, 65, 64
2, 19920, Note_on_c, 0, 65, 118
2, 19920, Note_on_c, 0, 77, 109
2, 20016, Note_off_c, 0, 77, 64
2, 20016, Note_off_c, 0, 65, 64
2, 20040, Note_on_c, 0, 65, 113
2, 20040, Note_on_c, 0, 77, 125
2, 20232, Note_off_c, 0, 77, 64
2, 20232, Note_off_c, 0, 65, 64
2, 20280, Note_on_c, 0, 68, 123
2, 20376, Note_off_c, 0, 68, 64
2, 20400, Note_on_c, 0, 69, 116
2, 20496, Note_off_c, 0, 69, 64
2, 20520, Note_on_c, 0, 62, 104
2, 20520, Note_on_c, 0, 70, 114
2, 20616, Note_off_c, 0, 70, 64
2, 20616, Note_off_c, 0, 62, 64
2, 20640, Note_on_c, 0, 68, 103
2, 20736, Note_off_c, 0, 68, 64
2, 20760, Note_on_c, 0, 69, 110
2, 20856, Note_off_c, 0, 69, 64
2, 20880, Note_on_c, 0, 65, 110
2, 20976, Note_off_c, 0, 65, 64
2, 21000, Note_on_c, 0, 62, 115
2, 21096, Note_off_c, 0, 62, 64
2, 21120, Note_on_c, 0, 84, 110
2, 21312, Note_off_c, 0, 84, 64
2, 21360, Note_on_c, 0, 81, 112
2, 21456, Note_off_c, 0, 81, 64
2, 21480, Note_on_c, 0, 77, 110
2, 21768, Note_off_c, 0, 77, 64
2, 21840, Note_on_c, 0, 74, 117
2, 21936, Note_off_c, 0, 74, 64
2, 21960, Note_on_c, 0, 75, 100
2, 22152, Note_off_c, 0, 75, 64
2, 22200, Note_on_c, 0, 74, 112
2, 22392, Note_off_c, 0, 74, 64
2, 22440, Note_on_c, 0, 74, 114
2, 22536, Note_off_c, 0, 74, 64
2, 22560, Note_on_c, 0, 72, 105
2, 22944, Note_off_c, 0, 72, 64
2, 23040, Note_on_c, 0, 75, 116
2, 23232, Note_off_c, 0, 75, 64
2, 23280, Note_on_c, 0, 74, 111
2, 23376, Note_off_c, 0, 74, 64
2, 23400, Note_on_c, 0, 75, 107
2, 23592, Note_off_c, 0, 75, 64
2, 23640, Note_on_c, 0, 72, 108
2, 23928, Note_off_c, 0, 72, 64
2, 24000, Note_on_c, 0, 69, 110
2, 24460, Note_off_c, 0, 69, 64
2, 24960, Note_on_c, 0, 75, 110
2, 25152, Note_off_c, 0, 75, 64
2, 25200, Note_on_c, 0, 72, 98
2, 25296, Note_off_c, 0, 72, 64
2, 25320, Note_on_c, 0, 77, 110
2, 25608, Note_off_c, 0, 77, 64
2, 25680, Note_on_c, 0, 77, 110
2, 25872, Note_off_c, 0, 77, 64
2, 25920, Note_on_c, 0, 81, 112
2, 26016, Note_off_c, 0, 81, 64
2, 26040, Note_on_c, 0, 77, 99
2, 26232, Note_off_c, 0, 77, 64
2, 26280, Note_on_c, 0, 77, 106
2, 26472, Note_off_c, 0, 77, 64
2, 26520, Note_on_c, 0, 72, 101
2, 26616, Note_off_c, 0, 72, 64
2, 26640, Note_on_c, 0, 74, 105
2, 26736, Note_off_c, 0, 74, 64
2, 26760, Note_on_c, 0, 75, 103
2, 26952, Note_off_c, 0, 75, 64
2, 27000, Note_on_c, 0, 74, 117
2, 27192, Note_off_c, 0, 74, 64
2, 27240, Note_on_c, 0, 72, 99
2, 27528, Note_off_c, 0, 72, 64
2, 27600, Note_on_c, 0, 69, 96
2, 27792, Note_off_c, 0, 69, 64
2, 27840, Note_on_c, 0, 65, 112
2, 28300, Note_off_c, 0, 65, 64
2, 28800, Note_on_c, 0, 75, 112
2, 28896, Note_off_c, 0, 75, 64
2, 28920, Note_on_c, 0, 74, 112
2, 29112, Note_off_c, 0, 74, 64
2, 29160, Note_on_c, 0, 75, 115
2, 29256, Note_off_c, 0, 75, 64
2, 29280, Note_on_c, 0, 72, 116
2, 29472, Note_off_c, 0, 72, 64
2, 29520, Note_on_c, 0, 72, 110
2, 29712, Note_off_c, 0, 72, 64
2, 29760, Note_on_c, 0, 77, 103
2, 29952, Note_off_c, 0, 77, 64
2, 30000, Note_on_c, 0, 74, 105
2, 30096, Note_off_c, 0, 74, 64
2, 30120, Note_on_c, 0, 77, 110
2, 30504, Note_off_c, 0, 77, 64
2, 30600, Note_on_c, 0, 74, 121
2, 30696, Note_off_c, 0, 74, 64
2, 30720, Note_on_c, 0, 77, 123
2, 30912, Note_off_c, 0, 77, 64
2, 30960, Note_on_c, 0, 74, 108
2, 31056, Note_off_c, 0, 74, 64
2, 31080, Note_on_c, 0, 77, 123
2, 31272, Note_off_c, 0, 77, 64
2, 31320, Note_on_c, 0, 74, 109
2, 31416, Note_off_c, 0, 74, 64
2, 31440, Note_on_c, 0, 81, 121
2, 31632, Note_off_c, 0, 81, 64
2, 31680, Note_on_c, 0, 79, 107
2, 32140, Note_off_c, 0, 79, 64
2, 32640, Note_on_c, 0, 75, 118
2, 32832, Note_off_c, 0, 75, 64
2, 32880, Note_on_c, 0, 72, 117
2, 32976, Note_off_c, 0, 72, 64
2, 33000, Note_on_c, 0, 77, 105
2, 33288, Note_off_c, 0, 77, 64
2, 33360, Note_on_c, 0, 74, 103
2, 33456, Note_off_c, 0, 74, 64
2, 33480, Note_on_c, 0, 77, 97
2, 33672, Note_off_c, 0, 77, 64
2, 33720, Note_on_c, 0, 77, 112
2, 33912, Note_off_c, 0, 77, 64
2, 33960, Note_on_c, 0, 77, 110
2, 34248, Note_off_c, 0, 77, 64
2, 34320, Note_on_c, 0, 74, 101
2, 34416, Note_off_c, 0, 74, 64
2, 34440, Note_on_c, 0, 75, 113
2, 34728, Note_off_c, 0, 75, 64
2, 34800, Note_on_c, 0, 74, 109
2, 34896, Note_off_c, 0, 74, 64
2, 34920, Note_on_c, 0, 74, 106
2, 35208, Note_off_c, 0, 74, 64
2, 35280, Note_on_c, 0, 72, 110
2, 35472, Note_off_c, 0, 72, 64
2, 35520, Note_on_c, 0, 65, 107
2, 35980, Note_off_c, 0, 65, 64
2, 36720, Note_on_c, 0, 68, 110
2, 36912, Note_off_c, 0, 68, 64
2, 36960, Note_on_c, 0, 68, 116
2, 37248, Note_off_c, 0, 68, 64
2, 37320, Note_on_c, 0, 70, 122
2, 37416, Note_off_c, 0, 70, 64
2, 37440, Note_on_c, 0, 72, 108
2, 37632, Note_off_c, 0, 72, 64
2, 37680, Note_on_c, 0, 68, 105
2, 37776, Note_off_c, 0, 68, 64
2, 37800, Note_on_c, 0, 68, 103
2, 38088, Note_off_c, 0, 68, 64
2, 38160, Note_on_c, 0, 65, 110
2, 38256, Note_off_c, 0, 65, 64
2, 38280, Note_on_c, 0, 63, 109
2, 38376, Note_off_c, 0, 63, 64
2, 38400, Note_on_c, 0, 63, 112
2, 38592, Note_off_c, 0, 63, 64
2, 38640, Note_on_c, 0, 70, 109
2, 38832, Note_off_c, 0, 70, 64
2, 38880, Note_on_c, 0, 70, 97
2, 39340, Note_off_c, 0, 70, 64
2, 39840, Note_on_c, 0, 72, 97
2, 40032, Note_off_c, 0, 72, 64
2, 40080, Note_on_c, 0, 70, 111
2, 40176, Note_off_c, 0, 70, 64
2, 40200, Note_on_c, 0, 68, 117
2, 40300, Note_off_c, 0, 68, 64
2, 40560, Note_on_c, 0, 68, 117
2, 40752, Note_off_c, 0, 68, 64
2, 40800, Note_on_c, 0, 68, 97
2, 41088, Note_off_c, 0, 68, 64
2, 41160, Note_on_c, 0, 70, 109
2, 41256, Note_off_c, 0, 70, 64
2, 41280, Note_on_c, 0, 72, 106
2, 41472, Note_off_c, 0, 72, 64
2, 41520, Note_on_c, 0, 70, 106
2, 41616, Note_off_c, 0, 70, 64
2, 41640, Note_on_c, 0, 68, 109
2, 41928, Note_off_c, 0, 68, 64
2, 42000, Note_on_c, 0, 65, 102
2, 42096, Note_off_c, 0, 65, 64
2, 42120, Note_on_c, 0, 65, 116
2, 42216, Note_off_c, 0, 65, 64
2, 42240, Note_on_c, 0, 63, 105
2, 42432, Note_off_c, 0, 63, 64
2, 42480, Note_on_c, 0, 70, 118
2, 42672, Note_off_c, 0, 70, 64
2, 42720, Note_on_c, 0, 70, 104
2, 43180, Note_off_c, 0, 70, 64
2, 43560, Note_on_c, 0, 77, 119
2, 43848, Note_off_c, 0, 77, 64
2, 43920, Note_on_c, 0, 75, 98
2, 44140, Note_off_c, 0, 75, 64
2, 44400, Note_on_c, 0, 72, 96
2, 44592, Note_off_c, 0, 72, 64
2, 44640, Note_on_c, 0, 68, 116
2, 44928, Note_off_c, 0, 68, 64
2, 45000, Note_on_c, 0, 70, 122
2, 45096, Note_off_c, 0, 70, 64
2, 45120, Note_on_c, 0, 72, 110
2, 45312, Note_off_c, 0, 72, 64
2, 45360, Note_on_c, 0, 68, 99
2, 45456, Note_off_c, 0, 68, 64
2, 45480, Note_on_c, 0, 68, 101
2, 45768, Note_off_c, 0, 68, 64
2, 45840, Note_on_c, 0, 65, 112
2, 45936, Note_off_c, 0, 65, 64
2, 45960, Note_on_c, 0, 65, 109
2, 46056, Note_off_c, 0, 65, 64
2, 46080, Note_on_c, 0, 63, 101
2, 46272, Note_off_c, 0, 63, 64
2, 46320, Note_on_c, 0, 70, 104
2, 46512, Note_off_c, 0, 70, 64
2, 46560, Note_on_c, 0, 70, 112
2, 46944, Note_off_c, 0, 70, 64
2, 47040, Note_on_c, 0, 70, 116
2, 47232, Note_off_c, 0, 70, 64
2, 47280, Note_on_c, 0, 70, 114
2, 47376, Note_off_c, 0, 70, 64
2, 47400, Note_on_c, 0, 72, 121
2, 47980, Note_off_c, 0, 72, 64
2, 48960, Note_on_c, 0, 62, 118
2, 48960, Note_on_c, 0, 65, 121
2, 48960, Note_on_c, 0, 70, 110
2, 49180, Note_off_c, 0, 70, 64
2, 49180, Note_off_c, 0, 65, 64
2, 49180, Note_off_c, 0, 62, 64
2, 49320, Note_on_c, 0, 60, 111
2, 49320, Note_on_c, 0, 63, 118
2, 49320, Note_on_c, 0, 68, 111
2, 49900, Note_off_c, 0, 68, 64
2, 49900, Note_off_c, 0, 63, 64
2, 49900, Note_off_c, 0, 60, 64
2, 50760, Note_on_c, 0, 60, 116
2, 50760, Note_on_c, 0, 63, 104
2, 50760, Note_on_c, 0, 68, 109
2, 51048, Note_off_c, 0, 68, 64
2, 51048, Note_off_c, 0, 63, 64
2, 51048, Note_off_c, 0, 60, 64
2, 51120, Note_on_c, 0, 57, 99
2, 51120, Note_on_c, 0, 60, 109
2, 51120, Note_on_c, 0, 65, 111
2, 51820, Note_off_c, 0, 65, 64
2, 51820, Note_off_c, 0, 60, 64
2, 51820, Note_off_c, 0, 57, 64
2, 52800, Note_on_c, 0, 62, 108
2, 52800, Note_on_c, 0, 65, 104
2, 52800, Note_on_c, 0, 70, 110
2, 53020, Note_off_c, 0, 70, 64
2, 53020, Note_off_c, 0, 65, 64
2, 53020, Note_off_c, 0, 62, 64
2, 53160, Note_on_c, 0, 60, 100
2, 53160, Note_on_c, 0, 63, 96
2, 53160, Note_on_c, 0, 68, 110
2, 53740, Note_off_c, 0, 68, 64
2, 53740, Note_off_c, 0, 63, 64
2, 53740, Note_off_c, 0, 60, 64
2, 54600, Note_on_c, 0, 60, 110
2, 54600, Note_on_c, 0, 63, 110
2, 54600, Note_on_c, 0, 68, 118
2, 54888, Note_off_c, 0, 68, 64
2, 54888, Note_off_c, 0, 63, 64
2, 54888, Note_off_c, 0, 60, 64
2, 54960, Note_on_c, 0, 57, 110
2, 54960, Note_on_c, 0, 60, 107
2, 54960, Note_on_c, 0, 65, 111
2, 55536, Note_off_c, 0, 65, 64
2, 55536, Note_off_c, 0, 60, 64
2, 55536, Note_off_c, 0, 57, 64
2, 55680, Note_on_c, 0, 75, 110
2, 55872, Note_off_c, 0, 75, 64
2, 55920, Note_on_c, 0, 74, 112
2, 56112, Note_off_c, 0, 74, 64
2, 56160, Note_on_c, 0, 74, 108
2, 56352, Note_off_c, 0, 74, 64
2, 56400, Note_on_c, 0, 72, 114
2, 56496, Note_off_c, 0, 72, 64
2, 56520, Note_on_c, 0, 72, 104
2, 56712, Note_off_c, 0, 72, 64
2, 56760, Note_on_c, 0, 72, 110
2, 56952, Note_off_c, 0, 72, 64
2, 57000, Note_on_c, 0, 72, 105
2, 57192, Note_off_c, 0, 72, 64
2, 57240, Note_on_c, 0, 72, 114
2, 57336, Note_off_c, 0, 72, 64
2, 57360, Note_on_c, 0, 74, 112
2, 57456, Note_off_c, 0, 74, 64
2, 57480, Note_on_c, 0, 75, 105
2, 57768, Note_off_c, 0, 75, 64
2, 57840, Note_on_c, 0, 74, 113
2, 58032, Note_off_c, 0, 74, 64
2, 58080, Note_on_c, 0, 72, 99
2, 58272, Note_off_c, 0, 72, 64
2, 58320, Note_on_c, 0, 70, 101
2, 58512, Note_off_c, 0, 70, 64
2, 58560, Note_on_c, 0, 69, 96
2, 59020, Note_off_c, 0, 69, 64
2, 59160, Note_on_c, 0, 72, 116
2, 59256, Note_off_c, 0, 72, 64
2, 59280, Note_on_c, 0, 74, 111
2, 59376, Note_off_c, 0, 74, 64
2, 59400, Note_on_c, 0, 75, 109
2, 59688, Note_off_c, 0, 75, 64
2, 59760, Note_on_c, 0, 74, 117
2, 59856, Note_off_c, 0, 74, 64
2, 59880, Note_on_c, 0, 74, 112
2, 59976, Note_off_c, 0, 74, 64
2, 60000, Note_on_c, 0, 72, 102
2, 60096, Note_off_c, 0, 72, 64
2, 60120, Note_on_c, 0, 72, 111
2, 60216, Note_off_c, 0, 72, 64
2, 60240, Note_on_c, 0, 74, 110
2, 60336, Note_off_c, 0, 74, 64
2, 60360, Note_on_c, 0, 77, 107
2, 60648, Note_off_c, 0, 77, 64
2, 60720, Note_on_c, 0, 74, 106
2, 60816, Note_off_c, 0, 74, 64
2, 60840, Note_on_c, 0, 74, 111
2, 60936, Note_off_c, 0, 74, 64
2, 60960, Note_on_c, 0, 72, 103
2, 61056, Note_off_c, 0, 72, 64
2, 61080, Note_on_c, 0, 72, 118
2, 61176, Note_off_c, 0, 72, 64
2, 61200, Note_on_c, 0, 74, 111
2, 61296, Note_off_c, 0, 74, 64
2, 61320, Note_on_c, 0, 75, 110
2, 61608, Note_off_c, 0, 75, 64
2, 61680, Note_on_c, 0, 74, 119
2, 61872, Note_off_c, 0, 74, 64
2, 61920, Note_on_c, 0, 72, 103
2, 62112, Note_off_c, 0, 72, 64
2, 62160, Note_on_c, 0, 68, 114
2, 62352, Note_off_c, 0, 68, 64
2, 62400, Note_on_c, 0, 65, 108
2, 62860, Note_off_c, 0, 65, 64
2, 63360, Note_on_c, 0, 75, 111
2, 63456, Note_off_c, 0, 75, 64
2, 63480, Note_on_c, 0, 74, 109
2, 63672, Note_off_c, 0, 74, 64
2, 63720, Note_on_c, 0, 74, 107
2, 63912, Note_off_c, 0, 74, 64
2, 63960, Note_on_c, 0, 72, 111
2, 64152, Note_off_c, 0, 72, 64
2, 64200, Note_on_c, 0, 72, 110
2, 64392, Note_off_c, 0, 72, 64
2, 64440, Note_on_c, 0, 72, 110
2, 64632, Note_off_c, 0, 72, 64
2, 64680, Note_on_c, 0, 72, 110
2, 64872, Note_off_c, 0, 72, 64
2, 64920, Note_on_c, 0, 72, 106
2, 65016, Note_off_c, 0, 72, 64
2, 65040, Note_on_c, 0, 74, 114
2, 65136, Note_off_c, 0, 74, 64
2, 65160, Note_on_c, 0, 75, 108
2, 65448, Note_off_c, 0, 75, 64
2, 65520, Note_on_c, 0, 74, 108
2, 65712, Note_off_c, 0, 74, 64
2, 65760, Note_on_c, 0, 72, 111
2, 65952, Note_off_c, 0, 72, 64
2, 66000, Note_on_c, 0, 72, 110
2, 66192, Note_off_c, 0, 72, 64
2, 66240, Note_on_c, 0, 69, 104
2, 66700, Note_off_c, 0, 69, 64
2, 66840, Note_on_c, 0, 72, 109
2, 66936, Note_off_c, 0, 72, 64
2, 66960, Note_on_c, 0, 74, 112
2, 67056, Note_off_c, 0, 74, 64
2, 67080, Note_on_c, 0, 80, 103
2, 67272, Note_off_c, 0, 80, 64
2, 67320, Note_on_c, 0, 77, 108
2, 67512, Note_off_c, 0, 77, 64
2, 67560, Note_on_c, 0, 77, 112
2, 67752, Note_off_c, 0, 77, 64
2, 67800, Note_on_c, 0, 77, 111
2, 67896, Note_off_c, 0, 77, 64
2, 67920, Note_on_c, 0, 77, 116
2, 68016, Note_off_c, 0, 77, 64
2, 68040, Note_on_c, 0, 80, 111
2, 68232, Note_off_c, 0, 80, 64
2, 68280, Note_on_c, 0, 81, 108
2, 68472, Note_off_c, 0, 81, 64
2, 68520, Note_on_c, 0, 77, 121
2, 68712, Note_off_c, 0, 77, 64
2, 68760, Note_on_c, 0, 77, 97
2, 68856, Note_off_c, 0, 77, 64
2, 68880, Note_on_c, 0, 77, 97
2, 69072, Note_off_c, 0, 77, 64
2, 69120, Note_on_c, 0, 84, 111
2, 69312, Note_off_c, 0, 84, 64
2, 69360, Note_on_c, 0, 82, 109
2, 69552, Note_off_c, 0, 82, 64
2, 69600, Note_on_c, 0, 84, 103
2, 69792, Note_off_c, 0, 84, 64
2, 69840, Note_on_c, 0, 81, 114
2, 70032, Note_off_c, 0, 81, 64
2, 70080, Note_on_c, 0, 77, 124
2, 70540, Note_off_c, 0, 77, 64
2, 71280, Note_on_c, 0, 68, 98
2, 71472, Note_off_c, 0, 68, 64
2, 71520, Note_on_c, 0, 68, 112
2, 71808, Note_off_c, 0, 68, 64
2, 71880, Note_on_c, 0, 70, 113
2, 71976, Note_off_c, 0, 70, 64
2, 72000, Note_on_c, 0, 72, 110
2, 72192, Note_off_c, 0, 72, 64
2, 72240, Note_on_c, 0, 68, 113
2, 72336, Note_off_c, 0, 68, 64
2, 72360, Note_on_c, 0, 68, 122
2, 72648, Note_off_c, 0, 68, 64
2, 72720, Note_on_c, 0, 65, 109
2, 72816, Note_off_c, 0, 65, 64
2, 72840, Note_on_c, 0, 63, 100
2, 72936, Note_off_c, 0, 63, 64
2, 72960, Note_on_c, 0, 63, 110
2, 73152, Note_off_c, 0, 63, 64
2, 73200, Note_on_c, 0, 70, 122
2, 73392, Note_off_c, 0, 70, 64
2, 73440, Note_on_c, 0, 70, 109
2, 73900, Note_off_c, 0, 70, 64
2, 74400, Note_on_c, 0, 72, 121
2, 74592, Note_off_c, 0, 72, 64
2, 74640, Note_on_c, 0, 70, 105
2, 74736, Note_off_c, 0, 70, 64
2, 74760, Note_on_c, 0, 68, 106
2, 74860, Note_off_c, 0, 68, 64
2, 75120, Note_on_c, 0, 68, 113
2, 75312, Note_off_c, 0, 68, 64
2, 75360, Note_on_c, 0, 68, 113
2, 75648, Note_off_c, 0, 68, 64
2, 75720, Note_on_c, 0, 70, 102
2, 75816, Note_off_c, 0, 70, 64
2, 75840, Note_on_c, 0, 72, 103
2, 76032, Note_off_c, 0, 72, 64
2, 76080, Note_on_c, 0, 70, 109
2, 76176, Note_off_c, 0, 70, 64
2, 76200, Note_on_c, 0, 68, 110
2, 76488, Note_off_c, 0, 68, 64
2, 76560, Note_on_c, 0, 65, 100
2, 76656, Note_off_c, 0, 65, 64
2, 76680, Note_on_c, 0, 65, 110
2, 76776, Note_off_c, 0, 65, 64
2, 76800, Note_on_c, 0, 63, 107
2, 76992, Note_off_c, 0, 63, 64
2, 77040, Note_on_c, 0, 70, 115
2, 77232, Note_off_c, 0, 70, 64
2, 77280, Note_on_c, 0, 70, 110
2, 77740, Note_off_c, 0, 70, 64
2, 78120, Note_on_c, 0, 77, 116
2, 78408, Note_off_c, 0, 77, 64
2, 78480, Note_on_c, 0, 75, 96
2, 78700, Note_off_c, 0, 75, 64
2, 78960, Note_on_c, 0, 72, 109
2, 79152, Note_off_c, 0, 72, 64
2, 79200, Note_on_c, 0, 68, 114
2, 79488, Note_off_c, 0, 68, 64
2, 79560, Note_on_c, 0, 70, 113
2, 79656, Note_off_c, 0, 70, 64
2, 79680, Note_on_c, 0, 72, 112
2, 79872, Note_off_c, 0, 72, 64
2, 79920, Note_on_c, 0, 68, 110
2, 80016, Note_off_c, 0, 68, 64
2, 80040, Note_on_c, 0, 68, 111
2, 80328, Note_off_c, 0, 68, 64
2, 80400, Note_on_c, 0, 65, 111
2, 80496, Note_off_c, 0, 65, 64
2, 80520, Note_on_c, 0, 65, 101
2, 80616, Note_off_c, 0, 65, 64
2, 80640, Note_on_c, 0, 63, 106
2, 80832, Note_off_c, 0, 63, 64
2, 80880, Note_on_c, 0, 70, 105
2, 81072, Note_off_c, 0, 70, 64
2, 81120, Note_on_c, 0, 70, 121
2, 81504, Note_off_c, 0, 70, 64
2, 81600, Note_on_c, 0, 70, 118
2, 81792, Note_off_c, 0, 70, 64
2, 81840, Note_on_c, 0, 70, 110
2, 81936, Note_off_c, 0, 70, 64
2, 81960, Note_on_c, 0, 72, 110
2, 82540, Note_off_c, 0, 72, 64
2, 83520, Note_on_c, 0, 62, 112
2, 83520, Note_on_c, 0, 65, 120
2, 83520, Note_on_c, 0, 70, 118
2, 83740, Note_off_c, 0, 70, 64
2, 83740, Note_off_c, 0, 65, 64
2, 83740, Note_off_c, 0, 62, 64
2, 83880, Note_on_c, 0, 60, 114
2, 83880, Note_on_c, 0, 63, 122
2, 83880, Note_on_c, 0, 68, 121
2, 84460, Note_off_c, 0, 68, 64
2, 84460, Note_off_c, 0, 63, 64
2, 84460, Note_off_c, 0, 60, 64
2, 85320, Note_on_c, 0, 60, 118
2, 85320, Note_on_c, 0, 63, 124
2, 85320, Note_on_c, 0, 68, 110
2, 85608, Note_off_c, 0, 68, 64
2, 85608, Note_off_c, 0, 63, 64
2, 85608, Note_off_c, 0, 60, 64
2, 85680, Note_on_c, 0, 57, 103
2, 85680, Note_on_c, 0, 60, 109
2, 85680, Note_on_c, 0, 65, 110
2, 86380, Note_off_c, 0, 65, 64
2, 86380, Note_off_c, 0, 60, 64
2, 86380, Note_off_c, 0, 57, 64
2, 87360, Note_on_c, 0, 62, 109
2, 87360, Note_on_c, 0, 65, 115
2, 87360, Note_on_c, 0, 70, 118
2, 87580, Note_off_c, 0, 70, 64
2, 87580, Note_off_c, 0, 65, 64
2, 87580, Note_off_c, 0, 62, 64
2, 87720, Note_on_c, 0, 60, 105
2, 87720, Note_on_c, 0, 63, 112
2, 87720, Note_on_c, 0, 68, 125
2, 88300, Note_off_c, 0, 68, 64
2, 88300, Note_off_c, 0, 63, 64
2, 88300, Note_off_c, 0, 60, 64
2, 89160, Note_on_c, 0, 60, 119
2, 89160, Note_on_c, 0, 63, 121
2, 89160, Note_on_c, 0, 68, 124
2, 89448, Note_off_c, 0, 68, 64
2, 89448, Note_off_c, 0, 63, 64
2, 89448, Note_off_c, 0, 60, 64
2, 89520, Note_on_c, 0, 65, 110
2, 89520, Note_on_c, 0, 60, 110
2, 89520, Note_on_c, 0, 57, 107
2, 90208, Note_off_c, 0, 57, 64
2, 90208, Note_off_c, 0, 60, 64
2, 90208, Note_off_c, 0, 65, 64
2, 90480, Note_on_c, 0, 58, 125
2, 90480, Note_on_c, 0, 63, 109
2, 90480, Note_on_c, 0, 67, 120
2, 90576, Note_off_c, 0, 67, 64
2, 90576, Note_off_c, 0, 63, 64
2, 90576, Note_off_c, 0, 58, 64
2, 90600, Note_on_c, 0, 58, 112
2, 90600, Note_on_c, 0, 63, 110
2, 90600, Note_on_c, 0, 67, 115
2, 90792, Note_off_c, 0, 67, 64
2, 90792, Note_off_c, 0, 63, 64
2, 90792, Note_off_c, 0, 58, 64
2, 90840, Note_on_c, 0, 58, 108
2, 90840, Note_on_c, 0, 63, 109
2, 90840, Note_on_c, 0, 67, 109
2, 91032, Note_off_c, 0, 67, 64
2, 91032, Note_off_c, 0, 63, 64
2, 91032, Note_off_c, 0, 58, 64
2, 91080, Note_on_c, 0, 58, 105
2, 91080, Note_on_c, 0, 63, 107
2, 91080, Note_on_c, 0, 67, 120
2, 91272, Note_off_c, 0, 67, 64
2, 91272, Note_off_c, 0, 63, 64
2, 91272, Note_off_c, 0, 58, 64
2, 91320, Note_on_c, 0, 58, 124
2, 91320, Note_on_c, 0, 63, 121
2, 91320, Note_on_c, 0, 67, 114
2, 91512, Note_off_c, 0, 67, 64
2, 91512, Note_off_c, 0, 63, 64
2, 91512, Note_off_c, 0, 58, 64
2, 91560, Note_on_c, 0, 58, 120
2, 91560, Note_on_c, 0, 63, 110
2, 91560, Note_on_c, 0, 67, 96
2, 91656, Note_off_c, 0, 67, 64
2, 91656, Note_off_c, 0, 63, 64
2, 91656, Note_off_c, 0, 58, 64
2, 91680, Note_on_c, 0, 58, 99
2, 91680, Note_on_c, 0, 63, 113
2, 91680, Note_on_c, 0, 67, 115
2, 91872, Note_off_c, 0, 67, 64
2, 91872, Note_off_c, 0, 63, 64
2, 91872, Note_off_c, 0, 58, 64
2, 91920, Note_on_c, 0, 60, 108
2, 91920, Note_on_c, 0, 65, 110
2, 91920, Note_on_c, 0, 69, 110
2, 92016, Note_off_c, 0, 69, 64
2, 92016, Note_off_c, 0, 65, 64
2, 92016, Note_off_c, 0, 60, 64
2, 92040, Note_on_c, 0, 60, 108
2, 92040, Note_on_c, 0, 65, 108
2, 92040, Note_on_c, 0, 69, 110
2, 92140, Note_off_c, 0, 69, 64
2, 92140, Note_off_c, 0, 65, 64
2, 92140, Note_off_c, 0, 60, 64
2, 94320, Note_on_c, 0, 58, 97
2, 94320, Note_on_c, 0, 63, 110
2, 94320, Note_on_c, 0, 67, 110
2, 94416, Note_off_c, 0, 67, 64
2, 94416, Note_off_c, 0, 63, 64
2, 94416, Note_off_c, 0, 58, 64
2, 94440, Note_on_c, 0, 58, 118
2, 94440, Note_on_c, 0, 63, 110
2, 94440, Note_on_c, 0, 67, 113
2, 94632, Note_off_c, 0, 67, 64
2, 94632, Note_off_c, 0, 63, 64
2, 94632, Note_off_c, 0, 58, 64
2, 94680, Note_on_c, 0, 58, 110
2, 94680, Note_on_c, 0, 63, 122
2, 94680, Note_on_c, 0, 67, 111
2, 94872, Note_off_c, 0, 67, 64
2, 94872, Note_off_c, 0, 63, 64
2, 94872, Note_off_c, 0, 58, 64
2, 94920, Note_on_c, 0, 58, 115
2, 94920, Note_on_c, 0, 63, 112
2, 94920, Note_on_c, 0, 67, 122
2, 95112, Note_off_c, 0, 67, 64
2, 95112, Note_off_c, 0, 63, 64
2, 95112, Note_off_c, 0, 58, 64
2, 95160, Note_on_c, 0, 58, 116
2, 95160, Note_on_c, 0, 63, 100
2, 95160, Note_on_c, 0, 67, 113
2, 95352, Note_off_c, 0, 67, 64
2, 95352, Note_off_c, 0, 63, 64
2, 95352, Note_off_c, 0, 58, 64
2, 95400, Note_on_c, 0, 58, 112
2, 95400, Note_on_c, 0, 63, 107
2, 95400, Note_on_c, 0, 67, 119
2, 95496, Note_off_c, 0, 67, 64
2, 95496, Note_off_c, 0, 63, 64
2, 95496, Note_off_c, 0, 58, 64
2, 95520, Note_on_c, 0, 58, 110
2, 95520, Note_on_c, 0, 63, 102
2, 95520, Note_on_c, 0, 67, 123
2, 95712, Note_off_c, 0, 67, 64
2, 95712, Note_off_c, 0, 63, 64
2, 95712, Note_off_c, 0, 58, 64
2, 95760, Note_on_c, 0, 60, 112
2, 95760, Note_on_c, 0, 65, 111
2, 95760, Note_on_c, 0, 69, 114
2, 95856, Note_off_c, 0, 69, 64
2, 95856, Note_off_c, 0, 65, 64
2, 95856, Note_off_c, 0, 60, 64
2, 95880, Note_on_c, 0, 60, 122
2, 95880, Note_on_c, 0, 65, 110
2, 95880, Note_on_c, 0, 69, 112
2, 95980, Note_off_c, 0, 69, 64
2, 95980, Note_off_c, 0, 65, 64
2, 95980, Note_off_c, 0, 60, 64
2, 98160, Note_on_c, 0, 58, 113
2, 98160, Note_on_c, 0, 63, 108
2, 98160, Note_on_c, 0, 67, 125
2, 98256, Note_off_c, 0, 67, 64
2, 98256, Note_off_c, 0, 63, 64
2, 98256, Note_off_c, 0, 58, 64
2, 98280, Note_on_c, 0, 58, 110
2, 98280, Note_on_c, 0, 63, 112
2, 98280, Note_on_c, 0, 67, 102
2, 98472, Note_off_c, 0, 67, 64
2, 98472, Note_off_c, 0, 63, 64
2, 98472, Note_off_c, 0, 58, 64
2, 98520, Note_on_c, 0, 58, 114
2, 98520, Note_on_c, 0, 63, 116
2, 98520, Note_on_c, 0, 67, 95
2, 98712, Note_off_c, 0, 67, 64
2, 98712, Note_off_c, 0, 63, 64
2, 98712, Note_off_c, 0, 58, 64
2, 98760, Note_on_c, 0, 58, 97
2, 98760, Note_on_c, 0, 63, 108
2, 98760, Note_on_c, 0, 67, 115
2, 98952, Note_off_c, 0, 67, 64
2, 98952, Note_off_c, 0, 63, 64
2, 98952, Note_off_c, 0, 58, 64
2, 99000, Note_on_c, 0, 58, 104
2, 99000, Note_on_c, 0, 63, 110
2, 99000, Note_on_c, 0, 67, 95
2, 99192, Note_off_c, 0, 67, 64
2, 99192, Note_off_c, 0, 63, 64
2, 99192, Note_off_c, 0, 58, 64
2, 99240, Note_on_c, 0, 58, 113
2, 99240, Note_on_c, 0, 63, 110
2, 99240, Note_on_c, 0, 67, 110
2, 99336, Note_off_c, 0, 67, 64
2, 99336, Note_off_c, 0, 63, 64
2, 99336, Note_off_c, 0, 58, 64
2, 99360, Note_on_c, 0, 58, 107
2, 99360, Note_on_c, 0, 63, 96
2, 99360, Note_on_c, 0, 67, 116
2, 99552, Note_off_c, 0, 67, 64
2, 99552, Note_off_c, 0, 63, 64
2, 99552, Note_off_c, 0, 58, 64
2, 99600, Note_on_c, 0, 60, 110
2, 99600, Note_on_c, 0, 65, 104
2, 99600, Note_on_c, 0, 69, 98
2, 99696, Note_off_c, 0, 69, 64
2, 99696, Note_off_c, 0, 65, 64
2, 99696, Note_off_c, 0, 60, 64
2, 99720, Note_on_c, 0, 60, 110
2, 99720, Note_on_c, 0, 65, 111
2, 99720, Note_on_c, 0, 69, 110
2, 99820, Note_off_c, 0, 69, 64
2, 99820, Note_off_c, 0, 65, 64
2, 99820, Note_off_c, 0, 60, 64
2, 100560, Note_on_c, 0, 60, 111
2, 100560, Note_on_c, 0, 65, 119
2, 100560, Note_on_c, 0, 69, 111
2, 100656, Note_off_c, 0, 69, 64
2, 100656, Note_off_c, 0, 65, 64
2, 100656, Note_off_c, 0, 60, 64
2, 100680, Note_on_c, 0, 60, 108
2, 100680, Note_on_c, 0, 65, 109
2, 100680, Note_on_c, 0, 69, 118
2, 100780, Note_off_c, 0, 69, 64
2, 100780, Note_off_c, 0, 65, 64
2, 100780, Note_off_c, 0, 60, 64
2, 100920, Note_on_c, 0, 60, 112
2, 101016, Note_off_c, 0, 60, 64
2, 101040, Note_on_c, 0, 62, 110
2, 101232, Note_off_c, 0, 62, 64
2, 101280, Note_on_c, 0, 65, 102
2, 101664, Note_off_c, 0, 65, 64
2, 101760, Note_on_c, 0, 60, 110
2, 101760, Note_on_c, 0, 65, 105
2, 101760, Note_on_c, 0, 69, 108
2, 101952, Note_off_c, 0, 69, 64
2, 101952, Note_off_c, 0, 65, 64
2, 101952, Note_off_c, 0, 60, 64
2, 102000, Note_on_c, 0, 60, 112
2, 102000, Note_on_c, 0, 65, 110
2, 102000, Note_on_c, 0, 69, 111
2, 102192, Note_off_c, 0, 69, 64
2, 102192, Note_off_c, 0, 65, 64
2, 102192, Note_off_c, 0, 60, 64
2, 102240, Note_on_c, 0, 60, 116
2, 102240, Note_on_c, 0, 65, 109
2, 102240, Note_on_c, 0, 69, 113
2, 102432, Note_off_c, 0, 69, 64
2, 102432, Note_off_c, 0, 65, 64
2, 102432, Note_off_c, 0, 60, 64
2, 102480, Note_on_c, 0, 60, 112
2, 102480, Note_on_c, 0, 65, 107
2, 102480, Note_on_c, 0, 69, 111
2, 102576, Note_off_c, 0, 69, 64
2, 102576, Note_off_c, 0, 65, 64
2, 102576, Note_off_c, 0, 60, 64
2, 102600, Note_on_c, 0, 60, 102
2, 102600, Note_on_c, 0, 65, 107
2, 102600, Note_on_c, 0, 69, 123
2, 102700, Note_off_c, 0, 69, 64
2, 102700, Note_off_c, 0, 65, 64
2, 102700, Note_off_c, 0, 60, 64
2, 102840, Note_on_c, 0, 68, 116
2, 102936, Note_off_c, 0, 68, 64
2, 102960, Note_on_c, 0, 69, 112
2, 103056, Note_off_c, 0, 69, 64
2, 103080, Note_on_c, 0, 62, 113
2, 103080, Note_on_c, 0, 70, 110
2, 103176, Note_off_c, 0, 70, 64
2, 103176, Note_off_c, 0, 62, 64
2, 103200, Note_on_c, 0, 69, 114
2, 103296, Note_off_c, 0, 69, 64
2, 103320, Note_on_c, 0, 65, 99
2, 103416, Note_off_c, 0, 65, 64
2, 103440, Note_on_c, 0, 62, 115
2, 103536, Note_off_c, 0, 62, 64
2, 103560, Note_on_c, 0, 60, 111
2, 103656, Note_off_c, 0, 60, 64
2, 103920, Note_on_c, 0, 68, 124
2, 104112, Note_off_c, 0, 68, 64
2, 104160, Note_on_c, 0, 68, 105
2, 104448, Note_off_c, 0, 68, 64
2, 104520, Note_on_c, 0, 70, 98
2, 104616, Note_off_c, 0, 70, 64
2, 104640, Note_on_c, 0, 72, 114
2, 104832, Note_off_c, 0, 72, 64
2, 104880, Note_on_c, 0, 68, 110
2, 104976, Note_off_c, 0, 68, 64
2, 105000, Note_on_c, 0, 68, 109
2, 105288, Note_off_c, 0, 68, 64
2, 105360, Note_on_c, 0, 65, 107
2, 105456, Note_off_c, 0, 65, 64
2, 105480, Note_on_c, 0, 63, 100
2, 105576, Note_off_c, 0, 63, 64
2, 105600, Note_on_c, 0, 63, 101
2, 105792, Note_off_c, 0, 63, 64
2, 105840, Note_on_c, 0, 70, 101
2, 106032, Note_off_c, 0, 70, 64
2, 106080, Note_on_c, 0, 70, 103
2, 106540, Note_off_c, 0, 70, 64
2, 107040, Note_on_c, 0, 72, 115
2, 107232, Note_off_c, 0, 72, 64
2, 107280, Note_on_c, 0, 70, 121
2, 107376, Note_off_c, 0, 70, 64
2, 107400, Note_on_c, 0, 68, 107
2, 107500, Note_off_c, 0, 68, 64
2, 107760, Note_on_c, 0, 68, 110
2, 107952, Note_off_c, 0, 68, 64
2, 108000, Note_on_c, 0, 68, 115
2, 108288, Note_off_c, 0, 68, 64
2, 108360, Note_on_c, 0, 70, 116
2, 108456, Note_off_c, 0, 70, 64
2, 108480, Note_on_c, 0, 72, 120
2, 108672, Note_off_c, 0, 72, 64
2, 108720, Note_on_c, 0, 70, 106
2, 108816, Note_off_c, 0, 70, 64
2, 108840, Note_on_c, 0, 68, 118
2, 109128, Note_off_c, 0, 68, 64
2, 109200, Note_on_c, 0, 65, 95
2, 109296, Note_off_c, 0, 65, 64
2, 109320, Note_on_c, 0, 65, 110
2, 109416, Note_off_c, 0, 65, 64
2, 109440, Note_on_c, 0, 63, 110
2, 109632, Note_off_c, 0, 63, 64
2, 109680, Note_on_c, 0, 70, 114
2, 109872, Note_off_c, 0, 70, 64
2, 109920, Note_on_c, 0, 70, 97
2, 110380, Note_off_c, 0, 70, 64
2, 110760, Note_on_c, 0, 77, 112
2, 111048, Note_off_c, 0, 77, 64
2, 111120, Note_on_c, 0, 75, 110
2, 111340, Note_off_c, 0, 75, 64
2, 111600, Note_on_c, 0, 72, 109
2, 111792, Note_off_c, 0, 72, 64
2, 111840, Note_on_c, 0, 68, 108
2, 112128, Note_off_c, 0, 68, 64
2, 112200, Note_on_c, 0, 70, 95
2, 112296, Note_off_c, 0, 70, 64
2, 112320, Note_on_c, 0, 72, 113
2, 112512, Note_off_c, 0, 72, 64
2, 112560, Note_on_c, 0, 68, 110
2, 112656, Note_off_c, 0, 68, 64
2, 112680, Note_on_c, 0, 68, 113
2, 112968, Note_off_c, 0, 68, 64
2, 113040, Note_on_c, 0, 65, 113
2, 113136, Note_off_c, 0, 65, 64
2, 113160, Note_on_c, 0, 65, 109
2, 113256, Note_off_c, 0, 65, 64
2, 113280, Note_on_c, 0, 63, 111
2, 113472, Note_off_c, 0, 63, 64
2, 113520, Note_on_c, 0, 70, 121
2, 113712, Note_off_c, 0, 70, 64
2, 113760, Note_on_c, 0, 70, 109
2, 114144, Note_off_c, 0, 70, 64
2, 114240, Note_on_c, 0, 70, 99
2, 114432, Note_off_c, 0, 70, 64
2, 114480, Note_on_c, 0, 70, 111
2, 114576, Note_off_c, 0, 70, 64
2, 114600, Note_on_c, 0, 72, 109
2, 115180, Note_off_c, 0, 72, 64
2, 115440, Note_on_c, 0, 60, 119
2, 115440, Note_on_c, 0, 72, 113
2, 115632, Note_off_c, 0, 72, 64
2, 115632, Note_off_c, 0, 60, 64
2, 115680, Note_on_c, 0, 60, 115
2, 115680, Note_on_c, 0, 72, 104
2, 115872, Note_off_c, 0, 72, 64
2, 115872, Note_off_c, 0, 60, 64
2, 115920, Note_on_c, 0, 62, 110
2, 115920, Note_on_c, 0, 74, 96
2, 116112, Note_off_c, 0, 74, 64
2, 116112, Note_off_c, 0, 62, 64
2, 116160, Note_on_c, 0, 63, 108
2, 116160, Note_on_c, 0, 75, 114
2, 116352, Note_off_c, 0, 75, 64
2, 116352, Note_off_c, 0, 63, 64
2, 116400, Note_on_c, 0, 62, 109
2, 116400, Note_on_c, 0, 74, 110
2, 116592, Note_off_c, 0, 74, 64
2, 116592, Note_off_c, 0, 62, 64
2, 116640, Note_on_c, 0, 60, 97
2, 116640, Note_on_c, 0, 72, 118
2, 116736, Note_off_c, 0, 72, 64
2, 116736, Note_off_c, 0, 60, 64
2, 116760, Note_on_c, 0, 74, 115
2, 116760, Note_on_c, 0, 62, 122
2, 116851, Note_off_c, 0, 62, 64
2, 116860, Note_off_c, 0, 74, 64
2, 117360, Note_on_c, 0, 60, 113
2, 117360, Note_on_c, 0, 72, 112
2, 117552, Note_off_c, 0, 72, 64
2, 117552, Note_off_c, 0, 60, 64
2, 117600, Note_on_c, 0, 60, 107
2, 117600, Note_on_c, 0, 72, 101
2, 117792, Note_off_c, 0, 72, 64
2, 117792, Note_off_c, 0, 60, 64
2, 117840, Note_on_c, 0, 62, 110
2, 117840, Note_on_c, 0, 74, 102
2, 118032, Note_off_c, 0, 74, 64
2, 118032, Note_off_c, 0, 62, 64
2, 118080, Note_on_c, 0, 63, 101
2, 118080, Note_on_c, 0, 75, 102
2, 118272, Note_off_c, 0, 75, 64
2, 118272, Note_off_c, 0, 63, 64
2, 118320, Note_on_c, 0, 65, 118
2, 118320, Note_on_c, 0, 77, 101
2, 118512, Note_off_c, 0, 77, 64
2, 118512, Note_off_c, 0, 65, 64
2, 118560, Note_on_c, 0, 67, 114
2, 118560, Note_on_c, 0, 79, 114
2, 118656, Note_off_c, 0, 79, 64
2, 118656, Note_off_c, 0, 67, 64
2, 118680, Note_on_c, 0, 68, 112
2, 118680, Note_on_c, 0, 80, 96
2, 118780, Note_off_c, 0, 80, 64
2, 118780, Note_off_c, 0, 68, 64
2, 119280, Note_on_c, 0, 60, 116
2, 119280, Note_on_c, 0, 72, 110
2, 119472, Note_off_c, 0, 72, 64
2, 119472, Note_off_c, 0, 60, 64
2, 119520, Note_on_c, 0, 60, 110
2, 119520, Note_on_c, 0, 72, 97
2, 119712, Note_off_c, 0, 72, 64
2, 119712, Note_off_c, 0, 60, 64
2, 119760, Note_on_c, 0, 62, 111
2, 119760, Note_on_c, 0, 74, 111
2, 119952, Note_off_c, 0, 74, 64
2, 119952, Note_off_c, 0, 62, 64
2, 120000, Note_on_c, 0, 63, 124
2, 120000, Note_on_c, 0, 75, 112
2, 120192, Note_off_c, 0, 75, 64
2, 120192, Note_off_c, 0, 63, 64
2, 120240, Note_on_c, 0, 62, 124
2, 120240, Note_on_c, 0, 74, 102
2, 120432, Note_off_c, 0, 74, 64
2, 120432, Note_off_c, 0, 62, 64
2, 120480, Note_on_c, 0, 60, 95
2, 120480, Note_on_c, 0, 72, 124
2, 120576, Note_off_c, 0, 72, 64
2, 120576, Note_off_c, 0, 60, 64
2, 120600, Note_on_c, 0, 62, 102
2, 120600, Note_on_c, 0, 74, 106
2, 120700, Note_off_c, 0, 74, 64
2, 120700, Note_off_c, 0, 62, 64
2, 120960, Note_on_c, 0, 60, 97
2, 120960, Note_on_c, 0, 72, 97
2, 121056, Note_off_c, 0, 72, 64
2, 121056, Note_off_c, 0, 60, 64
2, 121080, Note_on_c, 0, 60, 96
2, 121080, Note_on_c, 0, 72, 109
2, 121176, Note_off_c, 0, 72, 64
2, 121176, Note_off_c, 0, 60, 64
2, 121200, Note_on_c, 0, 60, 110
2, 121200, Note_on_c, 0, 72, 124
2, 121392, Note_off_c, 0, 72, 64
2, 121392, Note_off_c, 0, 60, 64
2, 121440, Note_on_c, 0, 60, 110
2, 121440, Note_on_c, 0, 72, 110
2, 121632, Note_off_c, 0, 72, 64
2, 121632, Note_off_c, 0, 60, 64
2, 121680, Note_on_c, 0, 60, 110
2, 121680, Note_on_c, 0, 72, 107
2, 121776, Note_off_c, 0, 72, 64
2, 121776, Note_off_c, 0, 60, 64
2, 121800, Note_on_c, 0, 60, 97
2, 121800, Note_on_c, 0, 72, 101
2, 121896, Note_off_c, 0, 72, 64
2, 121896, Note_off_c, 0, 60, 64
2, 121920, Note_on_c, 0, 60, 105
2, 121920, Note_on_c, 0, 72, 110
2, 122112, Note_off_c, 0, 72, 64
2, 122112, Note_off_c, 0, 60, 64
2, 122160, Note_on_c, 0, 60, 116
2, 122160, Note_on_c, 0, 72, 100
2, 122380, Note_off_c, 0, 72, 64
2, 122380, Note_off_c, 0, 60, 64
2, 122640, Note_on_c, 0, 65, 114
2, 122640, Note_on_c, 0, 77, 120
2, 122832, Note_off_c, 0, 77, 64
2, 122832, Note_off_c, 0, 65, 64
2, 122880, Note_on_c, 0, 63, 109
2, 122880, Note_on_c, 0, 75, 110
2, 123072, Note_off_c, 0, 75, 64
2, 123072, Note_off_c, 0, 63, 64
2, 123120, Note_on_c, 0, 58, 111
2, 123120, Note_on_c, 0, 63, 109
2, 123120, Note_on_c, 0, 67, 109
2, 123216, Note_off_c, 0, 67, 64
2, 123216, Note_off_c, 0, 63, 64
2, 123216, Note_off_c, 0, 58, 64
2, 123240, Note_on_c, 0, 58, 110
2, 123240, Note_on_c, 0, 63, 97
2, 123240, Note_on_c, 0, 67, 107
2, 123432, Note_off_c, 0, 67, 64
2, 123432, Note_off_c, 0, 63, 64
2, 123432, Note_off_c, 0, 58, 64
2, 123480, Note_on_c, 0, 58, 99
2, 123480, Note_on_c, 0, 63, 103
2, 123480, Note_on_c, 0, 67, 97
2, 123672, Note_off_c, 0, 67, 64
2, 123672, Note_off_c, 0, 63, 64
2, 123672, Note_off_c, 0, 58, 64
2, 123720, Note_on_c, 0, 58, 109
2, 123720, Note_on_c, 0, 63, 108
2, 123720, Note_on_c, 0, 67, 111
2, 123912, Note_off_c, 0, 67, 64
2, 123912, Note_off_c, 0, 63, 64
2, 123912, Note_off_c, 0, 58, 64
2, 123960, Note_on_c, 0, 58, 105
2, 123960, Note_on_c, 0, 63, 120
2, 123960, Note_on_c, 0, 67, 113
2, 124152, Note_off_c, 0, 67, 64
2, 124152, Note_off_c, 0, 63, 64
2, 124152, Note_off_c, 0, 58, 64
2, 124200, Note_on_c, 0, 58, 114
2, 124200, Note_on_c, 0, 63, 109
2, 124200, Note_on_c, 0, 67, 108
2, 124296, Note_off_c, 0, 67, 64
2, 124296, Note_off_c, 0, 63, 64
2, 124296, Note_off_c, 0, 58, 64
2, 124320, Note_on_c, 0, 58, 108
2, 124320, Note_on_c, 0, 63, 121
2, 124320, Note_on_c, 0, 67, 99
2, 124512, Note_off_c, 0, 67, 64
2, 124512, Note_off_c, 0, 63, 64
2, 124512, Note_off_c, 0, 58, 64
2, 124560, Note_on_c, 0, 60, 110
2, 124560, Note_on_c, 0, 65, 104
2, 124560, Note_on_c, 0, 69, 104
2, 124656, Note_off_c, 0, 69, 64
2, 124656, Note_off_c, 0, 65, 64
2, 124656, Note_off_c, 0, 60, 64
2, 124680, Note_on_c, 0, 60, 110
2, 124680, Note_on_c, 0, 65, 108
2, 124680, Note_on_c, 0, 69, 115
2, 124780, Note_off_c, 0, 69, 64
2, 124780, Note_off_c, 0, 65, 64
2, 124780, Note_off_c, 0, 60, 64
2, 125040, Note_on_c, 0, 67, 108
2, 125136, Note_off_c, 0, 67, 64
2, 125160, Note_on_c, 0, 68, 112
2, 125256, Note_off_c, 0, 68, 64
2, 125280, Note_on_c, 0, 69, 109
2, 125376, Note_off_c, 0, 69, 64
2, 125400, Note_on_c, 0, 65, 110
2, 125400, Note_on_c, 0, 77, 99
2, 125688, Note_off_c, 0, 77, 64
2, 125688, Note_off_c, 0, 65, 64
2, 125760, Note_on_c, 0, 67, 109
2, 125856, Note_off_c, 0, 67, 64
2, 125880, Note_on_c, 0, 68, 118
2, 125976, Note_off_c, 0, 68, 64
2, 126000, Note_on_c, 0, 69, 108
2, 126096, Note_off_c, 0, 69, 64
2, 126120, Note_on_c, 0, 65, 112
2, 126120, Note_on_c, 0, 77, 112
2, 126696, Note_off_c, 0, 77, 64
2, 126696, Note_off_c, 0, 65, 64
2, 126960, Note_on_c, 0, 58, 110
2, 126960, Note_on_c, 0, 63, 103
2, 126960, Note_on_c, 0, 67, 115
2, 127056, Note_off_c, 0, 67, 64
2, 127056, Note_off_c, 0, 63, 64
2, 127056, Note_off_c, 0, 58, 64
2, 127080, Note_on_c, 0, 58, 101
2, 127080, Note_on_c, 0, 63, 103
2, 127080, Note_on_c, 0, 67, 110
2, 127272, Note_off_c, 0, 67, 64
2, 127272, Note_off_c, 0, 63, 64
2, 127272, Note_off_c, 0, 58, 64
2, 127320, Note_on_c, 0, 58, 110
2, 127320, Note_on_c, 0, 63, 119
2, 127320, Note_on_c, 0, 67, 111
2, 127512, Note_off_c, 0, 67, 64
2, 127512, Note_off_c, 0, 63, 64
2, 127512, Note_off_c, 0, 58, 64
2, 127560, Note_on_c, 0, 58, 124
2, 127560, Note_on_c, 0, 63, 118
2, 127560, Note_on_c, 0, 67, 117
2, 127752, Note_off_c, 0, 67, 64
2, 127752, Note_off_c, 0, 63, 64
2, 127752, Note_off_c, 0, 58, 64
2, 127800, Note_on_c, 0, 58, 102
2, 127800, Note_on_c, 0, 63, 109
2, 127800, Note_on_c, 0, 67, 104
2, 127992, Note_off_c, 0, 67, 64
2, 127992, Note_off_c, 0, 63, 64
2, 127992, Note_off_c, 0, 58, 64
2, 128040, Note_on_c, 0, 58, 124
2, 128040, Note_on_c, 0, 63, 104
2, 128040, Note_on_c, 0, 67, 114
2, 128136, Note_off_c, 0, 67, 64
2, 128136, Note_off_c, 0, 63, 64
2, 128136, Note_off_c, 0, 58, 64
2, 128160, Note_on_c, 0, 58, 105
2, 128160, Note_on_c, 0, 63, 123
2, 128160, Note_on_c, 0, 67, 108
2, 128352, Note_off_c, 0, 67, 64
2, 128352, Note_off_c, 0, 63, 64
2, 128352, Note_off_c, 0, 58, 64
2, 128400, Note_on_c, 0, 60, 117
2, 128400, Note_on_c, 0, 65, 107
2, 128400, Note_on_c, 0, 69, 107
2, 128496, Note_off_c, 0, 69, 64
2, 128496, Note_off_c, 0, 65, 64
2, 128496, Note_off_c, 0, 60, 64
2, 128520, Note_on_c, 0, 60, 116
2, 128520, Note_on_c, 0, 65, 110
2, 128520, Note_on_c, 0, 69, 98
2, 128620, Note_off_c, 0, 69, 64
2, 128620, Note_off_c, 0, 65, 64
2, 128620, Note_off_c, 0, 60, 64
2, 128880, Note_on_c, 0, 67, 114
2, 128976, Note_off_c, 0, 67, 64
2, 129000, Note_on_c, 0, 68, 98
2, 129096, Note_off_c, 0, 68, 64
2, 129120, Note_on_c, 0, 69, 102
2, 129216, Note_off_c, 0, 69, 64
2, 129240, Note_on_c, 0, 65, 114
2, 129240, Note_on_c, 0, 77, 111
2, 129528, Note_off_c, 0, 77, 64
2, 129528, Note_off_c, 0, 65, 64
2, 129600, Note_on_c, 0, 67, 112
2, 129696, Note_off_c, 0, 67, 64
2, 129720, Note_on_c, 0, 68, 107
2, 129816, Note_off_c, 0, 68, 64
2, 129840, Note_on_c, 0, 69, 102
2, 129936, Note_off_c, 0, 69, 64
2, 129960, Note_on_c, 0, 65, 110
2, 129960, Note_on_c, 0, 77, 110
2, 130536, Note_off_c, 0, 77, 64
2, 130536, Note_off_c, 0, 65, 64
2, 130800, Note_on_c, 0, 58, 108
2, 130800, Note_on_c, 0, 63, 110
2, 130800, Note_on_c, 0, 67, 110
2, 130896, Note_off_c, 0, 67, 64
2, 130896, Note_off_c, 0, 63, 64
2, 130896, Note_off_c, 0, 58, 64
2, 130920, Note_on_c, 0, 58, 118
2, 130920, Note_on_c, 0, 63, 109
2, 130920, Note_on_c, 0, 67, 96
2, 131112, Note_off_c, 0, 67, 64
2, 131112, Note_off_c, 0, 63, 64
2, 131112, Note_off_c, 0, 58, 64
2, 131160, Note_on_c, 0, 58, 107
2, 131160, Note_on_c, 0, 63, 104
2, 131160, Note_on_c, 0, 67, 106
2, 131352, Note_off_c, 0, 67, 64
2, 131352, Note_off_c, 0, 63, 64
2, 131352, Note_off_c, 0, 58, 64
2, 131400, Note_on_c, 0, 58, 105
2, 131400, Note_on_c, 0, 63, 124
2, 131400, Note_on_c, 0, 67, 108
2, 131592, Note_off_c, 0, 67, 64
2, 131592, Note_off_c, 0, 63, 64
2, 131592, Note_off_c, 0, 58, 64
2, 131640, Note_on_c, 0, 58, 113
2, 131640, Note_on_c, 0, 63, 110
2, 131640, Note_on_c, 0, 67, 116
2, 131832, Note_off_c, 0, 67, 64
2, 131832, Note_off_c, 0, 63, 64
2, 131832, Note_off_c, 0, 58, 64
2, 131880, Note_on_c, 0, 58, 109
2, 131880, Note_on_c, 0, 63, 108
2, 131880, Note_on_c, 0, 67, 111
2, 131976, Note_off_c, 0, 67, 64
2, 131976, Note_off_c, 0, 63, 64
2, 131976, Note_off_c, 0, 58, 64
2, 132000, Note_on_c, 0, 58, 110
2, 132000, Note_on_c, 0, 63, 108
2, 132000, Note_on_c, 0, 67, 110
2, 132192, Note_off_c, 0, 67, 64
2, 132192, Note_off_c, 0, 63, 64
2, 132192, Note_off_c, 0, 58, 64
2, 132240, Note_on_c, 0, 60, 109
2, 132240, Note_on_c, 0, 65, 105
2, 132240, Note_on_c, 0, 69, 113
2, 132336, Note_off_c, 0, 69, 64
2, 132336, Note_off_c, 0, 65, 64
2, 132336, Note_off_c, 0, 60, 64
2, 132360, Note_on_c, 0, 60, 112
2, 132360, Note_on_c, 0, 65, 122
2, 132360, Note_on_c, 0, 69, 112
2, 132460, Note_off_c, 0, 69, 64
2, 132460, Note_off_c, 0, 65, 64
2, 132460, Note_off_c, 0, 60, 64
2, 133200, Note_on_c, 0, 60, 110
2, 133200, Note_on_c, 0, 65, 108
2, 133200, Note_on_c, 0, 69, 113
2, 133296, Note_off_c, 0, 69, 64
2, 133296, Note_off_c, 0, 65, 64
2, 133296, Note_off_c, 0, 60, 64
2, 133320, Note_on_c, 0, 60, 113
2, 133320, Note_on_c, 0, 65, 115
2, 133320, Note_on_c, 0, 69, 121
2, 133420, Note_off_c, 0, 69, 64
2, 133420, Note_off_c, 0, 65, 64
2, 133420, Note_off_c, 0, 60, 64
2, 133560, Note_on_c, 0, 60, 110
2, 133656, Note_off_c, 0, 60, 64
2, 133680, Note_on_c, 0, 62, 108
2, 133872, Note_off_c, 0, 62, 64
2, 133920, Note_on_c, 0, 65, 100
2, 134304, Note_off_c, 0, 65, 64
2, 134400, Note_on_c, 0, 60, 109
2, 134400, Note_on_c, 0, 65, 124
2, 134400, Note_on_c, 0, 69, 109
2, 134592, Note_off_c, 0, 69, 64
2, 134592, Note_off_c, 0, 65, 64
2, 134592, Note_off_c, 0, 60, 64
2, 134640, Note_on_c, 0, 60, 106
2, 134640, Note_on_c, 0, 65, 96
2, 134640, Note_on_c, 0, 69, 113
2, 134832, Note_off_c, 0, 69, 64
2, 134832, Note_off_c, 0, 65, 64
2, 134832, Note_off_c, 0, 60, 64
2, 134880, Note_on_c, 0, 60, 119
2, 134880, Note_on_c, 0, 65, 111
2, 134880, Note_on_c, 0, 69, 117
2, 135072, Note_off_c, 0, 69, 64
2, 135072, Note_off_c, 0, 65, 64
2, 135072, Note_off_c, 0, 60, 64
2, 135120, Note_on_c, 0, 60, 122
2, 135120, Note_on_c, 0, 65, 110
2, 135120, Note_on_c, 0, 69, 110
2, 135216, Note_off_c, 0, 69, 64
2, 135216, Note_off_c, 0, 65, 64
2, 135216, Note_off_c, 0, 60, 64
2, 135240, Note_on_c, 0, 60, 125
2, 135240, Note_on_c, 0, 65, 97
2, 135240, Note_on_c, 0, 69, 105
2, 135340, Note_off_c, 0, 69, 64
2, 135340, Note_off_c, 0, 65, 64
2, 135340, Note_off_c, 0, 60, 64
2, 135480, Note_on_c, 0, 68, 110
2, 135576, Note_off_c, 0, 68, 64
2, 135600, Note_on_c, 0, 69, 105
2, 135696, Note_off_c, 0, 69, 64
2, 135720, Note_on_c, 0, 62, 110
2, 135720, Note_on_c, 0, 70, 115
2, 135816, Note_off_c, 0, 70, 64
2, 135816, Note_off_c, 0, 62, 64
2, 135840, Note_on_c, 0, 69, 113
2, 135936, Note_off_c, 0, 69, 64
2, 135960, Note_on_c, 0, 65, 98
2, 136056, Note_off_c, 0, 65, 64
2, 136080, Note_on_c, 0, 62, 110
2, 136176, Note_off_c, 0, 62, 64
2, 136200, Note_on_c, 0, 60, 112
2, 136296, Note_off_c, 0, 60, 64
2, 136560, Note_on_c, 0, 68, 112
2, 136752, Note_off_c, 0, 68, 64
2, 136800, Note_on_c, 0, 68, 123
2, 137088, Note_off_c, 0, 68, 64
2, 137160, Note_on_c, 0, 70, 110
2, 137256, Note_off_c, 0, 70, 64
2, 137280, Note_on_c, 0, 72, 108
2, 137472, Note_off_c, 0, 72, 64
2, 137520, Note_on_c, 0, 68, 112
2, 137616, Note_off_c, 0, 68, 64
2, 137640, Note_on_c, 0, 68, 112
2, 137928, Note_off_c, 0, 68, 64
2, 138000, Note_on_c, 0, 65, 114
2, 138096, Note_off_c, 0, 65, 64
2, 138120, Note_on_c, 0, 63, 123
2, 138216, Note_off_c, 0, 63, 64
2, 138240, Note_on_c, 0, 63, 109
2, 138432, Note_off_c, 0, 63, 64
2, 138480, Note_on_c, 0, 70, 106
2, 138672, Note_off_c, 0, 70, 64
2, 138720, Note_on_c, 0, 70, 121
2, 139180, Note_off_c, 0, 70, 64
2, 139680, Note_on_c, 0, 72, 109
2, 139872, Note_off_c, 0, 72, 64
2, 139920, Note_on_c, 0, 70, 108
2, 140016, Note_off_c, 0, 70, 64
2, 140040, Note_on_c, 0, 68, 122
2, 140140, Note_off_c, 0, 68, 64
2, 140400, Note_on_c, 0, 68, 110
2, 140592, Note_off_c, 0, 68, 64
2, 140640, Note_on_c, 0, 68, 110
2, 140928, Note_off_c, 0, 68, 64
2, 141000, Note_on_c, 0, 70, 110
2, 141096, Note_off_c, 0, 70, 64
2, 141120, Note_on_c, 0, 72, 112
2, 141312, Note_off_c, 0, 72, 64
2, 141360, Note_on_c, 0, 70, 110
2, 141456, Note_off_c, 0, 70, 64
2, 141480, Note_on_c, 0, 68, 95
2, 141768, Note_off_c, 0, 68, 64
2, 141840, Note_on_c, 0, 65, 111
2, 141936, Note_off_c, 0, 65, 64
2, 141960, Note_on_c, 0, 65, 115
2, 142056, Note_off_c, 0, 65, 64
2, 142080, Note_on_c, 0, 63, 124
2, 142272, Note_off_c, 0, 63, 64
2, 142320, Note_on_c, 0, 70, 110
2, 142512, Note_off_c, 0, 70, 64
2, 142560, Note_on_c, 0, 70, 97
2, 143020, Note_off_c, 0, 70, 64
2, 143400, Note_on_c, 0, 77, 107
2, 143688, Note_off_c, 0, 77, 64
2, 143760, Note_on_c, 0, 75, 110
2, 143980, Note_off_c, 0, 75, 64
2, 144240, Note_on_c, 0, 72, 99
2, 144432, Note_off_c, 0, 72, 64
2, 144480, Note_on_c, 0, 68, 105
2, 144768, Note_off_c, 0, 68, 64
2, 144840, Note_on_c, 0, 70, 113
2, 144936, Note_off_c, 0, 70, 64
2, 144960, Note_on_c, 0, 72, 111
2, 145152, Note_off_c, 0, 72, 64
2, 145200, Note_on_c, 0, 68, 109
2, 145296, Note_off_c, 0, 68, 64
2, 145320, Note_on_c, 0, 68, 107
2, 145608, Note_off_c, 0, 68, 64
2, 145680, Note_on_c, 0, 65, 111
2, 145776, Note_off_c, 0, 65, 64
2, 145800, Note_on_c, 0, 65, 114
2, 145896, Note_off_c, 0, 65, 64
2, 145920, Note_on_c, 0, 63, 95
2, 146112, Note_off_c, 0, 63, 64
2, 146160, Note_on_c, 0, 70, 117
2, 146352, Note_off_c, 0, 70, 64
2, 146400, Note_on_c, 0, 70, 104
2, 146784, Note_off_c, 0, 70, 64
2, 146880, Note_on_c, 0, 70, 96
2, 147072, Note_off_c, 0, 70, 64
2, 147120, Note_on_c, 0, 70, 116
2, 147216, Note_off_c, 0, 70, 64
2, 147240, Note_on_c, 0, 72, 108
2, 147820, Note_off_c, 0, 72, 64
2, 148080, Note_on_c, 0, 60, 120
2, 148080, Note_on_c, 0, 72, 109
2, 148272, Note_off_c, 0, 72, 64
2, 148272, Note_off_c, 0, 60, 64
2, 148320, Note_on_c, 0, 60, 106
2, 148320, Note_on_c, 0, 72, 110
2, 148512, Note_off_c, 0, 72, 64
2, 148512, Note_off_c, 0, 60, 64
2, 148560, Note_on_c, 0, 62, 110
2, 148560, Note_on_c, 0, 74, 121
2, 148752, Note_off_c, 0, 74, 64
2, 148752, Note_off_c, 0, 62, 64
2, 148800, Note_on_c, 0, 63, 111
2, 148800, Note_on_c, 0, 75, 116
2, 148992, Note_off_c, 0, 75, 64
2, 148992, Note_off_c, 0, 63, 64
2, 149040, Note_on_c, 0, 62, 110
2, 149040, Note_on_c, 0, 74, 113
2, 149232, Note_off_c, 0, 74, 64
2, 149232, Note_off_c, 0, 62, 64
2, 149280, Note_on_c, 0, 60, 124
2, 149280, Note_on_c, 0, 72, 107
2, 149376, Note_off_c, 0, 72, 64
2, 149376, Note_off_c, 0, 60, 64
2, 149400, Note_on_c, 0, 74, 122
2, 149400, Note_on_c, 0, 62, 96
2, 149491, Note_off_c, 0, 62, 64
2, 149500, Note_off_c, 0, 74, 64
2, 150000, Note_on_c, 0, 60, 101
2, 150000, Note_on_c, 0, 72, 113
2, 150192, Note_off_c, 0, 72, 64
2, 150192, Note_off_c, 0, 60, 64
2, 150240, Note_on_c, 0, 60, 98
2, 150240, Note_on_c, 0, 72, 108
2, 150432, Note_off_c, 0, 72, 64
2, 150432, Note_off_c, 0, 60, 64
2, 150480, Note_on_c, 0, 62, 101
2, 150480, Note_on_c, 0, 74, 108
2, 150672, Note_off_c, 0, 74, 64
2, 150672, Note_off_c, 0, 62, 64
2, 150720, Note_on_c, 0, 63, 109
2, 150720, Note_on_c, 0, 75, 104
2, 150912, Note_off_c, 0, 75, 64
2, 150912, Note_off_c, 0, 63, 64
2, 150960, Note_on_c, 0, 65, 114
2, 150960, Note_on_c, 0, 77, 101
2, 151152, Note_off_c, 0, 77, 64
2, 151152, Note_off_c, 0, 65, 64
2, 151200, Note_on_c, 0, 67, 110
2, 151200, Note_on_c, 0, 79, 107
2, 151296, Note_off_c, 0, 79, 64
2, 151296, Note_off_c, 0, 67, 64
2, 151320, Note_on_c, 0, 68, 102
2, 151320, Note_on_c, 0, 80, 104
2, 151420, Note_off_c, 0, 80, 64
2, 151420, Note_off_c, 0, 68, 64
2, 151920, Note_on_c, 0, 60, 108
2, 151920, Note_on_c, 0, 72, 110
2, 152112, Note_off_c, 0, 72, 64
2, 152112, Note_off_c, 0, 60, 64
2, 152160, Note_on_c, 0, 60, 109
2, 152160, Note_on_c, 0, 72, 110
2, 152352, Note_off_c, 0, 72, 64
2, 152352, Note_off_c, 0, 60, 64
2, 152400, Note_on_c, 0, 62, 104
2, 152400, Note_on_c, 0, 74, 109
2, 152592, Note_off_c, 0, 74, 64
2, 152592, Note_off_c, 0, 62, 64
2, 152640, Note_on_c, 0, 63, 105
2, 152640, Note_on_c, 0, 75, 105
2, 152832, Note_off_c, 0, 75, 64
2, 152832, Note_off_c, 0, 63, 64
2, 152880, Note_on_c, 0, 62, 115
2, 152880, Note_on_c, 0, 74, 112
2, 153072, Note_off_c, 0, 74, 64
2, 153072, Note_off_c, 0, 62, 64
2, 153120, Note_on_c, 0, 60, 106
2, 153120, Note_on_c, 0, 72, 108
2, 153216, Note_off_c, 0, 72, 64
2, 153216, Note_off_c, 0, 60, 64
2, 153240, Note_on_c, 0, 62, 109
2, 153240, Note_on_c, 0, 74, 111
2, 153340, Note_off_c, 0, 74, 64
2, 153340, Note_off_c, 0, 62, 64
2, 153600, Note_on_c, 0, 60, 110
2, 153600, Note_on_c, 0, 72, 118
2, 153696, Note_off_c, 0, 72, 64
2, 153696, Note_off_c, 0, 60, 64
2, 153720, Note_on_c, 0, 60, 104
2, 153720, Note_on_c, 0, 72, 105
2, 153816, Note_off_c, 0, 72, 64
2, 153816, Note_off_c, 0, 60, 64
2, 153840, Note_on_c, 0, 60, 107
2, 153840, Note_on_c, 0, 72, 108
2, 154032, Note_off_c, 0, 72, 64
2, 154032, Note_off_c, 0, 60, 64
2, 154080, Note_on_c, 0, 60, 114
2, 154080, Note_on_c, 0, 72, 115
2, 154272, Note_off_c, 0, 72, 64
2, 154272, Note_off_c, 0, 60, 64
2, 154320, Note_on_c, 0, 60, 110
2, 154320, Note_on_c, 0, 72, 110
2, 154416, Note_off_c, 0, 72, 64
2, 154416, Note_off_c, 0, 60, 64
2, 154440, Note_on_c, 0, 60, 122
2, 154440, Note_on_c, 0, 72, 106
2, 154536, Note_off_c, 0, 72, 64
2, 154536, Note_off_c, 0, 60, 64
2, 154560, Note_on_c, 0, 60, 111
2, 154560, Note_on_c, 0, 72, 113
2, 154752, Note_off_c, 0, 72, 64
2, 154752, Note_off_c, 0, 60, 64
2, 154800, Note_on_c, 0, 60, 110
2, 154800, Note_on_c, 0, 72, 104
2, 155020, Note_off_c, 0, 72, 64
2, 155020, Note_off_c, 0, 60, 64
2, 155280, Note_on_c, 0, 65, 110
2, 155280, Note_on_c, 0, 77, 113
2, 155472, Note_off_c, 0, 77, 64
2, 155472, Note_off_c, 0, 65, 64
2, 155520, Note_on_c, 0, 63, 107
2, 155520, Note_on_c, 0, 75, 113
2, 155712, Note_off_c, 0, 75, 64
2, 155712, Note_off_c, 0, 63, 64
2, 155760, Note_on_c, 0, 58, 105
2, 155760, Note_on_c, 0, 63, 111
2, 155760, Note_on_c, 0, 67, 111
2, 155856, Note_off_c, 0, 67, 64
2, 155856, Note_off_c, 0, 63, 64
2, 155856, Note_off_c, 0, 58, 64
2, 155880, Note_on_c, 0, 58, 103
2, 155880, Note_on_c, 0, 63, 105
2, 155880, Note_on_c, 0, 67, 115
2, 156072, Note_off_c, 0, 67, 64
2, 156072, Note_off_c, 0, 63, 64
2, 156072, Note_off_c, 0, 58, 64
2, 156120, Note_on_c, 0, 58, 112
2, 156120, Note_on_c, 0, 63, 98
2, 156120, Note_on_c, 0, 67, 105
2, 156312, Note_off_c, 0, 67, 64
2, 156312, Note_off_c, 0, 63, 64
2, 156312, Note_off_c, 0, 58, 64
2, 156360, Note_on_c, 0, 58, 109
2, 156360, Note_on_c, 0, 63, 108
2, 156360, Note_on_c, 0, 67, 110
2, 156552, Note_off_c, 0, 67, 64
2, 156552, Note_off_c, 0, 63, 64
2, 156552, Note_off_c, 0, 58, 64
2, 156600, Note_on_c, 0, 58, 107
2, 156600, Note_on_c, 0, 63, 124
2, 156600, Note_on_c, 0, 67, 101
2, 156792, Note_off_c, 0, 67, 64
2, 156792, Note_off_c, 0, 63, 64
2, 156792, Note_off_c, 0, 58, 64
2, 156840, Note_on_c, 0, 58, 100
2, 156840, Note_on_c, 0, 63, 124
2, 156840, Note_on_c, 0, 67, 103
2, 156936, Note_off_c, 0, 67, 64
2, 156936, Note_off_c, 0, 63, 64
2, 156936, Note_off_c, 0, 58, 64
2, 156960, Note_on_c, 0, 58, 108
2, 156960, Note_on_c, 0, 63, 123
2, 156960, Note_on_c, 0, 67, 110
2, 157152, Note_off_c, 0, 67, 64
2, 157152, Note_off_c, 0, 63, 64
2, 157152, Note_off_c, 0, 58, 64
2, 157200, Note_on_c, 0, 60, 104
2, 157200, Note_on_c, 0, 65, 115
2, 157200, Note_on_c, 0, 69, 110
2, 157296, Note_off_c, 0, 69, 64
2, 157296, Note_off_c, 0, 65, 64
2, 157296, Note_off_c, 0, 60, 64
2, 157320, Note_on_c, 0, 60, 95
2, 157320, Note_on_c, 0, 65, 105
2, 157320, Note_on_c, 0, 69, 110
2, 157420, Note_off_c, 0, 69, 64
2, 157420, Note_off_c, 0, 65, 64
2, 157420, Note_off_c, 0, 60, 64
2, 157680, Note_on_c, 0, 67, 96
2, 157776, Note_off_c, 0, 67, 64
2, 157800, Note_on_c, 0, 68, 113
2, 157896, Note_off_c, 0, 68, 64
2, 157920, Note_on_c, 0, 69, 112
2, 158016, Note_off_c, 0, 69, 64
2, 158040, Note_on_c, 0, 65, 110
2, 158040, Note_on_c, 0, 77, 111
2, 158328, Note_off_c, 0, 77, 64
2, 158328, Note_off_c, 0, 65, 64
2, 158400, Note_on_c, 0, 67, 119
2, 158496, Note_off_c, 0, 67, 64
2, 158520, Note_on_c, 0, 68, 112
2, 158616, Note_off_c, 0, 68, 64
2, 158640, Note_on_c, 0, 69, 110
2, 158736, Note_off_c, 0, 69, 64
2, 158760, Note_on_c, 0, 65, 111
2, 158760, Note_on_c, 0, 77, 111
2, 159336, Note_off_c, 0, 77, 64
2, 159336, Note_off_c, 0, 65, 64
2, 159600, Note_on_c, 0, 58, 118
2, 159600, Note_on_c, 0, 63, 112
2, 159600, Note_on_c, 0, 67, 109
2, 159696, Note_off_c, 0, 67, 64
2, 159696, Note_off_c, 0, 63, 64
2, 159696, Note_off_c, 0, 58, 64
2, 159720, Note_on_c, 0, 58, 110
2, 159720, Note_on_c, 0, 63, 117
2, 159720, Note_on_c, 0, 67, 120
2, 159912, Note_off_c, 0, 67, 64
2, 159912, Note_off_c, 0, 63, 64
2, 159912, Note_off_c, 0, 58, 64
2, 159960, Note_on_c, 0, 58, 100
2, 159960, Note_on_c, 0, 63, 109
2, 159960, Note_on_c, 0, 67, 110
2, 160152, Note_off_c, 0, 67, 64
2, 160152, Note_off_c, 0, 63, 64
2, 160152, Note_off_c, 0, 58, 64
2, 160200, Note_on_c, 0, 58, 120
2, 160200, Note_on_c, 0, 63, 112
2, 160200, Note_on_c, 0, 67, 108
2, 160392, Note_off_c, 0, 67, 64
2, 160392, Note_off_c, 0, 63, 64
2, 160392, Note_off_c, 0, 58, 64
2, 160440, Note_on_c, 0, 58, 107
2, 160440, Note_on_c, 0, 63, 110
2, 160440, Note_on_c, 0, 67, 108
2, 160632, Note_off_c, 0, 67, 64
2, 160632, Note_off_c, 0, 63, 64
2, 160632, Note_off_c, 0, 58, 64
2, 160680, Note_on_c, 0, 58, 113
2, 160680, Note_on_c, 0, 63, 102
2, 160680, Note_on_c, 0, 67, 110
2, 160776, Note_off_c, 0, 67, 64
2, 160776, Note_off_c, 0, 63, 64
2, 160776, Note_off_c, 0, 58, 64
2, 160800, Note_on_c, 0, 58, 95
2, 160800, Note_on_c, 0, 63, 115
2, 160800, Note_on_c, 0, 67, 109
2, 160992, Note_off_c, 0, 67, 64
2, 160992, Note_off_c, 0, 63, 64
2, 160992, Note_off_c, 0, 58, 64
2, 161040, Note_on_c, 0, 60, 98
2, 161040, Note_on_c, 0, 65, 114
2, 161040, Note_on_c, 0, 69, 110
2, 161136, Note_off_c, 0, 69, 64
2, 161136, Note_off_c, 0, 65, 64
2, 161136, Note_off_c, 0, 60, 64
2, 161160, Note_on_c, 0, 60, 109
2, 161160, Note_on_c, 0, 65, 115
2, 161160, Note_on_c, 0, 69, 110
2, 161260, Note_off_c, 0, 69, 64
2, 161260, Note_off_c, 0, 65, 64
2, 161260, Note_off_c, 0, 60, 64
2, 161520, Note_on_c, 0, 67, 123
2, 161616, Note_off_c, 0, 67, 64
2, 161640, Note_on_c, 0, 68, 120
2, 161736, Note_off_c, 0, 68, 64
2, 161760, Note_on_c, 0, 69, 102
2, 161856, Note_off_c, 0, 69, 64
2, 161880, Note_on_c, 0, 65, 121
2, 161880, Note_on_c, 0, 77, 110
2, 162168, Note_off_c, 0, 77, 64
2, 162168, Note_off_c, 0, 65, 64
2, 162240, Note_on_c, 0, 67, 105
2, 162336, Note_off_c, 0, 67, 64
2, 162360, Note_on_c, 0, 68, 110
2, 162456, Note_off_c, 0, 68, 64
2, 162480, Note_on_c, 0, 69, 118
2, 162576, Note_off_c, 0, 69, 64
2, 162600, Note_on_c, 0, 65, 100
2, 162600, Note_on_c, 0, 77, 110
2, 163176, Note_off_c, 0, 77, 64
2, 163176, Note_off_c, 0, 65, 64
2, 163440, Note_on_c, 0, 58, 110
2, 163440, Note_on_c, 0, 63, 111
2, 163440, Note_on_c, 0, 67, 110
2, 163536, Note_off_c, 0, 67, 64
2, 163536, Note_off_c, 0, 63, 64
2, 163536, Note_off_c, 0, 58, 64
2, 163560, Note_on_c, 0, 58, 100
2, 163560, Note_on_c, 0, 63, 123
2, 163560, Note_on_c, 0, 67, 97
2, 163752, Note_off_c, 0, 67, 64
2, 163752, Note_off_c, 0, 63, 64
2, 163752, Note_off_c, 0, 58, 64
2, 163800, Note_on_c, 0, 58, 109
2, 163800, Note_on_c, 0, 63, 109
2, 163800, Note_on_c, 0, 67, 115
2, 163992, Note_off_c, 0, 67, 64
2, 163992, Note_off_c, 0, 63, 64
2, 163992, Note_off_c, 0, 58, 64
2, 164040, Note_on_c, 0, 58, 114
2, 164040, Note_on_c, 0, 63, 108
2, 164040, Note_on_c, 0, 67, 104
2, 164232, Note_off_c, 0, 67, 64
2, 164232, Note_off_c, 0, 63, 64
2, 164232, Note_off_c, 0, 58, 64
2, 164280, Note_on_c, 0, 58, 112
2, 164280, Note_on_c, 0, 63, 102
2, 164280, Note_on_c, 0, 67, 95
2, 164472, Note_off_c, 0, 67, 64
2, 164472, Note_off_c, 0, 63, 64
2, 164472, Note_off_c, 0, 58, 64
2, 164520, Note_on_c, 0, 58, 113
2, 164520, Note_on_c, 0, 63, 110
2, 164520, Note_on_c, 0, 67, 114
2, 164616, Note_off_c, 0, 67, 64
2, 164616, Note_off_c, 0, 63, 64
2, 164616, Note_off_c, 0, 58, 64
2, 164640, Note_on_c, 0, 58, 110
2, 164640, Note_on_c, 0, 63, 109
2, 164640, Note_on_c, 0, 67, 101
2, 164832, Note_off_c, 0, 67, 64
2, 164832, Note_off_c, 0, 63, 64
2, 164832, Note_off_c, 0, 58, 64
2, 164880, Note_on_c, 0, 60, 103
2, 164880, Note_on_c, 0, 65, 101
2, 164880, Note_on_c, 0, 69, 107
2, 164976, Note_off_c, 0, 69, 64
2, 164976, Note_off_c, 0, 65, 64
2, 164976, Note_off_c, 0, 60, 64
2, 165000, Note_on_c, 0, 60, 107
2, 165000, Note_on_c, 0, 65, 111
2, 165000, Note_on_c, 0, 69, 101
2, 165100, Note_off_c, 0, 69, 64
2, 165100, Note_off_c, 0, 65, 64
2, 165100, Note_off_c, 0, 60, 64
2, 165840, Note_on_c, 0, 60, 114
2, 165840, Note_on_c, 0, 65, 96
2, 165840, Note_on_c, 0, 69, 111
2, 165936, Note_off_c, 0, 69, 64
2, 165936, Note_off_c, 0, 65, 64
2, 165936, Note_off_c, 0, 60, 64
2, 165960, Note_on_c, 0, 60, 124
2, 165960, Note_on_c, 0, 65, 109
2, 165960, Note_on_c, 0, 69, 110
2, 166060, Note_off_c, 0, 69, 64
2, 166060, Note_off_c, 0, 65, 64
2, 166060, Note_off_c, 0, 60, 64
2, 166200, Note_on_c, 0, 60, 111
2, 166296, Note_off_c, 0, 60, 64
2, 166320, Note_on_c, 0, 62, 99
2, 166512, Note_off_c, 0, 62, 64
2, 166560, Note_on_c, 0, 65, 100
2, 166944, Note_off_c, 0, 65, 64
2, 167040, Note_on_c, 0, 60, 122
2, 167040, Note_on_c, 0, 65, 102
2, 167040, Note_on_c, 0, 69, 108
2, 167232, Note_off_c, 0, 69, 64
2, 167232, Note_off_c, 0, 65, 64
2, 167232, Note_off_c, 0, 60, 64
2, 167280, Note_on_c, 0, 60, 113
2, 167280, Note_on_c, 0, 65, 110
2, 167280, Note_on_c, 0, 69, 110
2, 167472, Note_off_c, 0, 69, 64
2, 167472, Note_off_c, 0, 65, 64
2, 167472, Note_off_c, 0, 60, 64
2, 167520, Note_on_c, 0, 60, 102
2, 167520, Note_on_c, 0, 65, 108
2, 167520, Note_on_c, 0, 69, 112
2, 167712, Note_off_c, 0, 69, 64
2, 167712, Note_off_c, 0, 65, 64
2, 167712, Note_off_c, 0, 60, 64
2, 167760, Note_on_c, 0, 60, 110
2, 167760, Note_on_c, 0, 65, 112
2, 167760, Note_on_c, 0, 69, 109
2, 167856, Note_off_c, 0, 69, 64
2, 167856, Note_off_c, 0, 65, 64
2, 167856, Note_off_c, 0, 60, 64
2, 167880, Note_on_c, 0, 60, 118
2, 167880, Note_on_c, 0, 65, 116
2, 167880, Note_on_c, 0, 69, 110
2, 167980, Note_off_c, 0, 69, 64
2, 167980, Note_off_c, 0, 65, 64
2, 167980, Note_off_c, 0, 60, 64
2, 168000, Control_c, 0, 86, 37
2, 168000, End_track
3, 0, Start_track
3, 0, Title_t, "Sax"
3, 0, MIDI_port, 0
3, 0, Channel_prefix, 1
3, 0, Control_c, 1, 7, 86
3, 0, Control_c, 1, 10, 32
3, 0, Program_c, 1, 66
3, 0, Control_c, 1, 121, 0
3, 40, Control_c, 1, 123, 0
3, 80, Control_c, 1, 93, 65
3, 120, Control_c, 1, 91, 45
3, 160, Control_c, 1, 64, 0
3, 7680, Note_on_c, 1, 55, 106
3, 7680, Note_on_c, 1, 58, 115
3, 7680, Note_on_c, 1, 63, 112
3, 9024, Note_off_c, 1, 63, 64
3, 9024, Note_off_c, 1, 58, 64
3, 9024, Note_off_c, 1, 55, 64
3, 9360, Note_on_c, 1, 55, 124
3, 9360, Note_on_c, 1, 58, 110
3, 9360, Note_on_c, 1, 63, 111
3, 9456, Note_off_c, 1, 63, 64
3, 9456, Note_off_c, 1, 58, 64
3, 9456, Note_off_c, 1, 55, 64
3, 9480, Note_on_c, 1, 53, 114
3, 9480, Note_on_c, 1, 58, 112
3, 9480, Note_on_c, 1, 62, 110
3, 10920, Note_off_c, 1, 62, 64
3, 10920, Note_off_c, 1, 58, 64
3, 10920, Note_off_c, 1, 53, 64
3, 11280, Note_on_c, 1, 53, 110
3, 11280, Note_on_c, 1, 58, 111
3, 11280, Note_on_c, 1, 62, 106
3, 11376, Note_off_c, 1, 62, 64
3, 11376, Note_off_c, 1, 58, 64
3, 11376, Note_off_c, 1, 53, 64
3, 11400, Note_on_c, 1, 53, 111
3, 11400, Note_on_c, 1, 57, 119
3, 11400, Note_on_c, 1, 60, 99
3, 14189, Note_off_c, 1, 60, 64
3, 14189, Note_off_c, 1, 57, 64
3, 14189, Note_off_c, 1, 53, 64
3, 14280, Note_on_c, 1, 56, 111
3, 14376, Note_off_c, 1, 56, 64
3, 14400, Note_on_c, 1, 57, 111
3, 14516, Note_off_c, 1, 57, 64
3, 14520, Note_on_c, 1, 50, 116
3, 14520, Note_on_c, 1, 58, 118
3, 14616, Note_off_c, 1, 58, 64
3, 14616, Note_off_c, 1, 50, 64
3, 14640, Note_on_c, 1, 56, 108
3, 14736, Note_off_c, 1, 56, 64
3, 14760, Note_on_c, 1, 57, 108
3, 14851, Note_off_c, 1, 57, 64
3, 14880, Note_on_c, 1, 53, 111
3, 14996, Note_off_c, 1, 53, 64
3, 15000, Note_on_c, 1, 48, 110
3, 15096, Note_off_c, 1, 48, 64
3, 15120, Note_on_c, 1, 50, 109
3, 15312, Note_off_c, 1, 50, 64
3, 15360, Note_on_c, 1, 55, 112
3, 15360, Note_on_c, 1, 58, 115
3, 15360, Note_on_c, 1, 63, 113
3, 15580, Note_off_c, 1, 63, 64
3, 15580, Note_off_c, 1, 58, 64
3, 15580, Note_off_c, 1, 55, 64
3, 17040, Note_on_c, 1, 55, 117
3, 17040, Note_on_c, 1, 58, 96
3, 17040, Note_on_c, 1, 63, 101
3, 17136, Note_off_c, 1, 63, 64
3, 17136, Note_off_c, 1, 58, 64
3, 17136, Note_off_c, 1, 55, 64
3, 17160, Note_on_c, 1, 55, 100
3, 17160, Note_on_c, 1, 58, 107
3, 17160, Note_on_c, 1, 63, 119
3, 17260, Note_off_c, 1, 63, 64
3, 17260, Note_off_c, 1, 58, 64
3, 17260, Note_off_c, 1, 55, 64
3, 18000, Note_on_c, 1, 55, 110
3, 18000, Note_on_c, 1, 58, 118
3, 18000, Note_on_c, 1, 63, 106
3, 18096, Note_off_c, 1, 63, 64
3, 18096, Note_off_c, 1, 58, 64
3, 18096, Note_off_c, 1, 55, 64
3, 18120, Note_on_c, 1, 55, 113
3, 18120, Note_on_c, 1, 58, 111
3, 18120, Note_on_c, 1, 63, 113
3, 18312, Note_off_c, 1, 63, 64
3, 18312, Note_off_c, 1, 58, 64
3, 18312, Note_off_c, 1, 55, 64
3, 18360, Note_on_c, 1, 60, 111
3, 18456, Note_off_c, 1, 60, 64
3, 18480, Note_on_c, 1, 62, 120
3, 18580, Note_off_c, 1, 62, 64
3, 18720, Note_on_c, 1, 53, 113
3, 18720, Note_on_c, 1, 65, 118
3, 19104, Note_off_c, 1, 65, 64
3, 19104, Note_off_c, 1, 53, 64
3, 19200, Note_on_c, 1, 53, 121
3, 19200, Note_on_c, 1, 65, 118
3, 19392, Note_off_c, 1, 65, 64
3, 19392, Note_off_c, 1, 53, 64
3, 19440, Note_on_c, 1, 53, 108
3, 19440, Note_on_c, 1, 65, 109
3, 19632, Note_off_c, 1, 65, 64
3, 19632, Note_off_c, 1, 53, 64
3, 19680, Note_on_c, 1, 53, 111
3, 19680, Note_on_c, 1, 65, 104
3, 19872, Note_off_c, 1, 65, 64
3, 19872, Note_off_c, 1, 53, 64
3, 19920, Note_on_c, 1, 53, 115
3, 19920, Note_on_c, 1, 65, 123
3, 20016, Note_off_c, 1, 65, 64
3, 20016, Note_off_c, 1, 53, 64
3, 20040, Note_on_c, 1, 53, 111
3, 20040, Note_on_c, 1, 65, 117
3, 20232, Note_off_c, 1, 65, 64
3, 20232, Note_off_c, 1, 53, 64
3, 20280, Note_on_c, 1, 56, 103
3, 20376, Note_off_c, 1, 56, 64
3, 20400, Note_on_c, 1, 57, 110
3, 20496, Note_off_c, 1, 57, 64
3, 20520, Note_on_c, 1, 50, 118
3, 20520, Note_on_c, 1, 58, 111
3, 20616, Note_off_c, 1, 58, 64
3, 20616, Note_off_c, 1, 50, 64
3, 20640, Note_on_c, 1, 56, 112
3, 20736, Note_off_c, 1, 56, 64
3, 20760, Note_on_c, 1, 57, 97
3, 20856, Note_off_c, 1, 57, 64
3, 20880, Note_on_c, 1, 53, 111
3, 20976, Note_off_c, 1, 53, 64
3, 21000, Note_on_c, 1, 50, 102
3, 21096, Note_off_c, 1, 50, 64
3, 21120, Note_on_c, 1, 72, 122
3, 21312, Note_off_c, 1, 72, 64
3, 21360, Note_on_c, 1, 69, 102
3, 21456, Note_off_c, 1, 69, 64
3, 21480, Note_on_c, 1, 65, 113
3, 21768, Note_off_c, 1, 65, 64
3, 21840, Note_on_c, 1, 62, 106
3, 21936, Note_off_c, 1, 62, 64
3, 21960, Note_on_c, 1, 63, 120
3, 22152, Note_off_c, 1, 63, 64
3, 22200, Note_on_c, 1, 62, 109
3, 22392, Note_off_c, 1, 62, 64
3, 22440, Note_on_c, 1, 62, 111
3, 22536, Note_off_c, 1, 62, 64
3, 22560, Note_on_c, 1, 60, 98
3, 22944, Note_off_c, 1, 60, 64
3, 23040, Note_on_c, 1, 63, 111
3, 23232, Note_off_c, 1, 63, 64
3, 23280, Note_on_c, 1, 62, 108
3, 23376, Note_off_c, 1, 62, 64
3, 23400, Note_on_c, 1, 63, 97
3, 23592, Note_off_c, 1, 63, 64
3, 23640, Note_on_c, 1, 60, 102
3, 23928, Note_off_c, 1, 60, 64
3, 24000, Note_on_c, 1, 57, 104
3, 24460, Note_off_c, 1, 57, 64
3, 24960, Note_on_c, 1, 63, 101
3, 25152, Note_off_c, 1, 63, 64
3, 25200, Note_on_c, 1, 60, 103
3, 25296, Note_off_c, 1, 60, 64
3, 25320, Note_on_c, 1, 65, 106
3, 25608, Note_off_c, 1, 65, 64
3, 25680, Note_on_c, 1, 65, 110
3, 25872, Note_off_c, 1, 65, 64
3, 25920, Note_on_c, 1, 69, 107
3, 26016, Note_off_c, 1, 69, 64
3, 26040, Note_on_c, 1, 65, 115
3, 26232, Note_off_c, 1, 65, 64
3, 26280, Note_on_c, 1, 65, 105
3, 26472, Note_off_c, 1, 65, 64
3, 26520, Note_on_c, 1, 60, 109
3, 26616, Note_off_c, 1, 60, 64
3, 26640, Note_on_c, 1, 62, 102
3, 26736, Note_off_c, 1, 62, 64
3, 26760, Note_on_c, 1, 63, 109
3, 26952, Note_off_c, 1, 63, 64
3, 27000, Note_on_c, 1, 62, 110
3, 27192, Note_off_c, 1, 62, 64
3, 27240, Note_on_c, 1, 60, 111
3, 27528, Note_off_c, 1, 60, 64
3, 27600, Note_on_c, 1, 57, 106
3, 27792, Note_off_c, 1, 57, 64
3, 27840, Note_on_c, 1, 53, 121
3, 28300, Note_off_c, 1, 53, 64
3, 28800, Note_on_c, 1, 63, 110
3, 28896, Note_off_c, 1, 63, 64
3, 28920, Note_on_c, 1, 62, 108
3, 29112, Note_off_c, 1, 62, 64
3, 29160, Note_on_c, 1, 63, 114
3, 29256, Note_off_c, 1, 63, 64
3, 29280, Note_on_c, 1, 60, 103
3, 29472, Note_off_c, 1, 60, 64
3, 29520, Note_on_c, 1, 60, 115
3, 29712, Note_off_c, 1, 60, 64
3, 29760, Note_on_c, 1, 65, 114
3, 29952, Note_off_c, 1, 65, 64
3, 30000, Note_on_c, 1, 62, 125
3, 30096, Note_off_c, 1, 62, 64
3, 30120, Note_on_c, 1, 65, 110
3, 30504, Note_off_c, 1, 65, 64
3, 30600, Note_on_c, 1, 62, 110
3, 30696, Note_off_c, 1, 62, 64
3, 30720, Note_on_c, 1, 65, 109
3, 30912, Note_off_c, 1, 65, 64
3, 30960, Note_on_c, 1, 62, 120
3, 31056, Note_off_c, 1, 62, 64
3, 31080, Note_on_c, 1, 65, 122
3, 31272, Note_off_c, 1, 65, 64
3, 31320, Note_on_c, 1, 62, 101
3, 31416, Note_off_c, 1, 62, 64
3, 31440, Note_on_c, 1, 69, 110
3, 31632, Note_off_c, 1, 69, 64
3, 31680, Note_on_c, 1, 67, 114
3, 32140, Note_off_c, 1, 67, 64
3, 32640, Note_on_c, 1, 63, 110
3, 32832, Note_off_c, 1, 63, 64
3, 32880, Note_on_c, 1, 60, 116
3, 32976, Note_off_c, 1, 60, 64
3, 33000, Note_on_c, 1, 65, 102
3, 33288, Note_off_c, 1, 65, 64
3, 33360, Note_on_c, 1, 62, 103
3, 33456, Note_off_c, 1, 62, 64
3, 33480, Note_on_c, 1, 65, 99
3, 33672, Note_off_c, 1, 65, 64
3, 33720, Note_on_c, 1, 65, 112
3, 33912, Note_off_c, 1, 65, 64
3, 33960, Note_on_c, 1, 65, 111
3, 34248, Note_off_c, 1, 65, 64
3, 34320, Note_on_c, 1, 62, 123
3, 34416, Note_off_c, 1, 62, 64
3, 34440, Note_on_c, 1, 63, 110
3, 34728, Note_off_c, 1, 63, 64
3, 34800, Note_on_c, 1, 62, 110
3, 34896, Note_off_c, 1, 62, 64
3, 34920, Note_on_c, 1, 62, 108
3, 35208, Note_off_c, 1, 62, 64
3, 35280, Note_on_c, 1, 60, 123
3, 35472, Note_off_c, 1, 60, 64
3, 35520, Note_on_c, 1, 53, 122
3, 35980, Note_off_c, 1, 53, 64
3, 36720, Note_on_c, 1, 56, 108
3, 36912, Note_off_c, 1, 56, 64
3, 36960, Note_on_c, 1, 56, 110
3, 37248, Note_off_c, 1, 56, 64
3, 37320, Note_on_c, 1, 58, 111
3, 37416, Note_off_c, 1, 58, 64
3, 37440, Note_on_c, 1, 60, 110
3, 37632, Note_off_c, 1, 60, 64
3, 37680, Note_on_c, 1, 56, 105
3, 37776, Note_off_c, 1, 56, 64
3, 37800, Note_on_c, 1, 56, 124
3, 38088, Note_off_c, 1, 56, 64
3, 38160, Note_on_c, 1, 53, 98
3, 38256, Note_off_c, 1, 53, 64
3, 38280, Note_on_c, 1, 51, 110
3, 38376, Note_off_c, 1, 51, 64
3, 38400, Note_on_c, 1, 51, 114
3, 38592, Note_off_c, 1, 51, 64
3, 38640, Note_on_c, 1, 58, 118
3, 38832, Note_off_c, 1, 58, 64
3, 38880, Note_on_c, 1, 58, 97
3, 39340, Note_off_c, 1, 58, 64
3, 39840, Note_on_c, 1, 60, 113
3, 40032, Note_off_c, 1, 60, 64
3, 40080, Note_on_c, 1, 58, 117
3, 40176, Note_off_c, 1, 58, 64
3, 40200, Note_on_c, 1, 56, 105
3, 40300, Note_off_c, 1, 56, 64
3, 40560, Note_on_c, 1, 56, 124
3, 40752, Note_off_c, 1, 56, 64
3, 40800, Note_on_c, 1, 56, 120
3, 41088, Note_off_c, 1, 56, 64
3, 41160, Note_on_c, 1, 58, 103
3, 41256, Note_off_c, 1, 58, 64
3, 41280, Note_on_c, 1, 60, 107
3, 41472, Note_off_c, 1, 60, 64
3, 41520, Note_on_c, 1, 58, 112
3, 41616, Note_off_c, 1, 58, 64
3, 41640, Note_on_c, 1, 56, 107
3, 41928, Note_off_c, 1, 56, 64
3, 42000, Note_on_c, 1, 53, 111
3, 42096, Note_off_c, 1, 53, 64
3, 42120, Note_on_c, 1, 53, 121
3, 42216, Note_off_c, 1, 53, 64
3, 42240, Note_on_c, 1, 51, 110
3, 42432, Note_off_c, 1, 51, 64
3, 42480, Note_on_c, 1, 58, 116
3, 42672, Note_off_c, 1, 58, 64
3, 42720, Note_on_c, 1, 58, 115
3, 43180, Note_off_c, 1, 58, 64
3, 43560, Note_on_c, 1, 65, 122
3, 43848, Note_off_c, 1, 65, 64
3, 43920, Note_on_c, 1, 63, 100
3, 44140, Note_off_c, 1, 63, 64
3, 44400, Note_on_c, 1, 60, 112
3, 44592, Note_off_c, 1, 60, 64
3, 44640, Note_on_c, 1, 56, 118
3, 44928, Note_off_c, 1, 56, 64
3, 45000, Note_on_c, 1, 58, 115
3, 45096, Note_off_c, 1, 58, 64
3, 45120, Note_on_c, 1, 60, 122
3, 45312, Note_off_c, 1, 60, 64
3, 45360, Note_on_c, 1, 56, 110
3, 45456, Note_off_c, 1, 56, 64
3, 45480, Note_on_c, 1, 56, 119
3, 45768, Note_off_c, 1, 56, 64
3, 45840, Note_on_c, 1, 53, 98
3, 45936, Note_off_c, 1, 53, 64
3, 45960, Note_on_c, 1, 53, 119
3, 46056, Note_off_c, 1, 53, 64
3, 46080, Note_on_c, 1, 51, 118
3, 46272, Note_off_c, 1, 51, 64
3, 46320, Note_on_c, 1, 58, 106
3, 46512, Note_off_c, 1, 58, 64
3, 46560, Note_on_c, 1, 58, 102
3, 46944, Note_off_c, 1, 58, 64
3, 47040, Note_on_c, 1, 58, 99
3, 47232, Note_off_c, 1, 58, 64
3, 47280, Note_on_c, 1, 58, 95
3, 47376, Note_off_c, 1, 58, 64
3, 47400, Note_on_c, 1, 60, 109
3, 47980, Note_off_c, 1, 60, 64
3, 48960, Note_on_c, 1, 50, 106
3, 48960, Note_on_c, 1, 53, 98
3, 48960, Note_on_c, 1, 58, 97
3, 49180, Note_off_c, 1, 58, 64
3, 49180, Note_off_c, 1, 53, 64
3, 49180, Note_off_c, 1, 50, 64
3, 49320, Note_on_c, 1, 48, 115
3, 49320, Note_on_c, 1, 51, 104
3, 49320, Note_on_c, 1, 56, 98
3, 49900, Note_off_c, 1, 56, 64
3, 49900, Note_off_c, 1, 51, 64
3, 49900, Note_off_c, 1, 48, 64
3, 50760, Note_on_c, 1, 48, 109
3, 50760, Note_on_c, 1, 51, 100
3, 50760, Note_on_c, 1, 56, 109
3, 51048, Note_off_c, 1, 56, 64
3, 51048, Note_off_c, 1, 51, 64
3, 51048, Note_off_c, 1, 48, 64
3, 51120, Note_on_c, 1, 45, 99
3, 51120, Note_on_c, 1, 48, 118
3, 51120, Note_on_c, 1, 53, 110
3, 51820, Note_off_c, 1, 53, 64
3, 51820, Note_off_c, 1, 48, 64
3, 51820, Note_off_c, 1, 45, 64
3, 52800, Note_on_c, 1, 50, 105
3, 52800, Note_on_c, 1, 53, 124
3, 52800, Note_on_c, 1, 58, 111
3, 53020, Note_off_c, 1, 58, 64
3, 53020, Note_off_c, 1, 53, 64
3, 53020, Note_off_c, 1, 50, 64
3, 53160, Note_on_c, 1, 48, 114
3, 53160, Note_on_c, 1, 51, 109
3, 53160, Note_on_c, 1, 56, 111
3, 53740, Note_off_c, 1, 56, 64
3, 53740, Note_off_c, 1, 51, 64
3, 53740, Note_off_c, 1, 48, 64
3, 54600, Note_on_c, 1, 48, 114
3, 54600, Note_on_c, 1, 51, 109
3, 54600, Note_on_c, 1, 56, 100
3, 54888, Note_off_c, 1, 56, 64
3, 54888, Note_off_c, 1, 51, 64
3, 54888, Note_off_c, 1, 48, 64
3, 54960, Note_on_c, 1, 45, 110
3, 54960, Note_on_c, 1, 48, 111
3, 54960, Note_on_c, 1, 53, 110
3, 55536, Note_off_c, 1, 53, 64
3, 55536, Note_off_c, 1, 48, 64
3, 55536, Note_off_c, 1, 45, 64
3, 55680, Note_on_c, 1, 63, 102
3, 55872, Note_off_c, 1, 63, 64
3, 55920, Note_on_c, 1, 62, 117
3, 56112, Note_off_c, 1, 62, 64
3, 56160, Note_on_c, 1, 62, 97
3, 56352, Note_off_c, 1, 62, 64
3, 56400, Note_on_c, 1, 60, 112
3, 56496, Note_off_c, 1, 60, 64
3, 56520, Note_on_c, 1, 60, 111
3, 56712, Note_off_c, 1, 60, 64
3, 56760, Note_on_c, 1, 60, 115
3, 56952, Note_off_c, 1, 60, 64
3, 57000, Note_on_c, 1, 60, 113
3, 57192, Note_off_c, 1, 60, 64
3, 57240, Note_on_c, 1, 60, 113
3, 57336, Note_off_c, 1, 60, 64
3, 57360, Note_on_c, 1, 62, 112
3, 57456, Note_off_c, 1, 62, 64
3, 57480, Note_on_c, 1, 63, 107
3, 57768, Note_off_c, 1, 63, 64
3, 57840, Note_on_c, 1, 62, 111
3, 58032, Note_off_c, 1, 62, 64
3, 58080, Note_on_c, 1, 60, 121
3, 58272, Note_off_c, 1, 60, 64
3, 58320, Note_on_c, 1, 58, 107
3, 58512, Note_off_c, 1, 58, 64
3, 58560, Note_on_c, 1, 57, 110
3, 59020, Note_off_c, 1, 57, 64
3, 59160, Note_on_c, 1, 60, 102
3, 59256, Note_off_c, 1, 60, 64
3, 59280, Note_on_c, 1, 62, 110
3, 59376, Note_off_c, 1, 62, 64
3, 59400, Note_on_c, 1, 63, 105
3, 59688, Note_off_c, 1, 63, 64
3, 59760, Note_on_c, 1, 62, 110
3, 59856, Note_off_c, 1, 62, 64
3, 59880, Note_on_c, 1, 62, 110
3, 59976, Note_off_c, 1, 62, 64
3, 60000, Note_on_c, 1, 60, 108
3, 60096, Note_off_c, 1, 60, 64
3, 60120, Note_on_c, 1, 60, 122
3, 60216, Note_off_c, 1, 60, 64
3, 60240, Note_on_c, 1, 62, 115
3, 60336, Note_off_c, 1, 62, 64
3, 60360, Note_on_c, 1, 65, 111
3, 60648, Note_off_c, 1, 65, 64
3, 60720, Note_on_c, 1, 62, 110
3, 60816, Note_off_c, 1, 62, 64
3, 60840, Note_on_c, 1, 62, 110
3, 60936, Note_off_c, 1, 62, 64
3, 60960, Note_on_c, 1, 60, 125
3, 61056, Note_off_c, 1, 60, 64
3, 61080, Note_on_c, 1, 60, 111
3, 61176, Note_off_c, 1, 60, 64
3, 61200, Note_on_c, 1, 62, 103
3, 61296, Note_off_c, 1, 62, 64
3, 61320, Note_on_c, 1, 63, 117
3, 61608, Note_off_c, 1, 63, 64
3, 61680, Note_on_c, 1, 62, 119
3, 61872, Note_off_c, 1, 62, 64
3, 61920, Note_on_c, 1, 60, 110
3, 62112, Note_off_c, 1, 60, 64
3, 62160, Note_on_c, 1, 56, 120
3, 62352, Note_off_c, 1, 56, 64
3, 62400, Note_on_c, 1, 53, 110
3, 62860, Note_off_c, 1, 53, 64
3, 63360, Note_on_c, 1, 63, 111
3, 63456, Note_off_c, 1, 63, 64
3, 63480, Note_on_c, 1, 62, 110
3, 63672, Note_off_c, 1, 62, 64
3, 63720, Note_on_c, 1, 62, 110
3, 63912, Note_off_c, 1, 62, 64
3, 63960, Note_on_c, 1, 60, 110
3, 64152, Note_off_c, 1, 60, 64
3, 64200, Note_on_c, 1, 60, 100
3, 64392, Note_off_c, 1, 60, 64
3, 64440, Note_on_c, 1, 60, 95
3, 64632, Note_off_c, 1, 60, 64
3, 64680, Note_on_c, 1, 60, 110
3, 64872, Note_off_c, 1, 60, 64
3, 64920, Note_on_c, 1, 60, 115
3, 65016, Note_off_c, 1, 60, 64
3, 65040, Note_on_c, 1, 62, 108
3, 65136, Note_off_c, 1, 62, 64
3, 65160, Note_on_c, 1, 63, 106
3, 65448, Note_off_c, 1, 63, 64
3, 65520, Note_on_c, 1, 62, 97
3, 65712, Note_off_c, 1, 62, 64
3, 65760, Note_on_c, 1, 60, 114
3, 65952, Note_off_c, 1, 60, 64
3, 66000, Note_on_c, 1, 60, 110
3, 66192, Note_off_c, 1, 60, 64
3, 66240, Note_on_c, 1, 57, 103
3, 66700, Note_off_c, 1, 57, 64
3, 66840, Note_on_c, 1, 60, 113
3, 66936, Note_off_c, 1, 60, 64
3, 66960, Note_on_c, 1, 62, 122
3, 67056, Note_off_c, 1, 62, 64
3, 67080, Note_on_c, 1, 68, 110
3, 67272, Note_off_c, 1, 68, 64
3, 67320, Note_on_c, 1, 65, 97
3, 67512, Note_off_c, 1, 65, 64
3, 67560, Note_on_c, 1, 65, 108
3, 67752, Note_off_c, 1, 65, 64
3, 67800, Note_on_c, 1, 65, 108
3, 67896, Note_off_c, 1, 65, 64
3, 67920, Note_on_c, 1, 65, 109
3, 68016, Note_off_c, 1, 65, 64
3, 68040, Note_on_c, 1, 68, 106
3, 68232, Note_off_c, 1, 68, 64
3, 68280, Note_on_c, 1, 69, 110
3, 68472, Note_off_c, 1, 69, 64
3, 68520, Note_on_c, 1, 65, 125
3, 68712, Note_off_c, 1, 65, 64
3, 68760, Note_on_c, 1, 65, 96
3, 68856, Note_off_c, 1, 65, 64
3, 68880, Note_on_c, 1, 65, 117
3, 69072, Note_off_c, 1, 65, 64
3, 69120, Note_on_c, 1, 72, 111
3, 69312, Note_off_c, 1, 72, 64
3, 69360, Note_on_c, 1, 70, 125
3, 69552, Note_off_c, 1, 70, 64
3, 69600, Note_on_c, 1, 72, 108
3, 69792, Note_off_c, 1, 72, 64
3, 69840, Note_on_c, 1, 69, 110
3, 70032, Note_off_c, 1, 69, 64
3, 70080, Note_on_c, 1, 65, 117
3, 70540, Note_off_c, 1, 65, 64
3, 71280, Note_on_c, 1, 56, 121
3, 71472, Note_off_c, 1, 56, 64
3, 71520, Note_on_c, 1, 56, 113
3, 71808, Note_off_c, 1, 56, 64
3, 71880, Note_on_c, 1, 58, 102
3, 71976, Note_off_c, 1, 58, 64
3, 72000, Note_on_c, 1, 60, 102
3, 72192, Note_off_c, 1, 60, 64
3, 72240, Note_on_c, 1, 56, 99
3, 72336, Note_off_c, 1, 56, 64
3, 72360, Note_on_c, 1, 56, 117
3, 72648, Note_off_c, 1, 56, 64
3, 72720, Note_on_c, 1, 53, 99
3, 72816, Note_off_c, 1, 53, 64
3, 72840, Note_on_c, 1, 51, 101
3, 72936, Note_off_c, 1, 51, 64
3, 72960, Note_on_c, 1, 51, 121
3, 73152, Note_off_c, 1, 51, 64
3, 73200, Note_on_c, 1, 58, 103
3, 73392, Note_off_c, 1, 58, 64
3, 73440, Note_on_c, 1, 58, 102
3, 73900, Note_off_c, 1, 58, 64
3, 74400, Note_on_c, 1, 60, 124
3, 74592, Note_off_c, 1, 60, 64
3, 74640, Note_on_c, 1, 58, 103
3, 74736, Note_off_c, 1, 58, 64
3, 74760, Note_on_c, 1, 56, 105
3, 74860, Note_off_c, 1, 56, 64
3, 75120, Note_on_c, 1, 56, 107
3, 75312, Note_off_c, 1, 56, 64
3, 75360, Note_on_c, 1, 56, 110
3, 75648, Note_off_c, 1, 56, 64
3, 75720, Note_on_c, 1, 58, 110
3, 75816, Note_off_c, 1, 58, 64
3, 75840, Note_on_c, 1, 60, 113
3, 76032, Note_off_c, 1, 60, 64
3, 76080, Note_on_c, 1, 58, 110
3, 76176, Note_off_c, 1, 58, 64
3, 76200, Note_on_c, 1, 56, 120
3, 76488, Note_off_c, 1, 56, 64
3, 76560, Note_on_c, 1, 53, 119
3, 76656, Note_off_c, 1, 53, 64
3, 76680, Note_on_c, 1, 53, 96
3, 76776, Note_off_c, 1, 53, 64
3, 76800, Note_on_c, 1, 51, 112
3, 76992, Note_off_c, 1, 51, 64
3, 77040, Note_on_c, 1, 58, 124
3, 77232, Note_off_c, 1, 58, 64
3, 77280, Note_on_c, 1, 58, 122
3, 77740, Note_off_c, 1, 58, 64
3, 78120, Note_on_c, 1, 65, 119
3, 78408, Note_off_c, 1, 65, 64
3, 78480, Note_on_c, 1, 63, 109
3, 78700, Note_off_c, 1, 63, 64
3, 78960, Note_on_c, 1, 60, 103
3, 79152, Note_off_c, 1, 60, 64
3, 79200, Note_on_c, 1, 56, 113
3, 79488, Note_off_c, 1, 56, 64
3, 79560, Note_on_c, 1, 58, 124
3, 79656, Note_off_c, 1, 58, 64
3, 79680, Note_on_c, 1, 60, 96
3, 79872, Note_off_c, 1, 60, 64
3, 79920, Note_on_c, 1, 56, 110
3, 80016, Note_off_c, 1, 56, 64
3, 80040, Note_on_c, 1, 56, 110
3, 80328, Note_off_c, 1, 56, 64
3, 80400, Note_on_c, 1, 53, 102
3, 80496, Note_off_c, 1, 53, 64
3, 80520, Note_on_c, 1, 53, 110
3, 80616, Note_off_c, 1, 53, 64
3, 80640, Note_on_c, 1, 51, 118
3, 80832, Note_off_c, 1, 51, 64
3, 80880, Note_on_c, 1, 58, 99
3, 81072, Note_off_c, 1, 58, 64
3, 81120, Note_on_c, 1, 58, 113
3, 81504, Note_off_c, 1, 58, 64
3, 81600, Note_on_c, 1, 58, 106
3, 81792, Note_off_c, 1, 58, 64
3, 81840, Note_on_c, 1, 58, 110
3, 81936, Note_off_c, 1, 58, 64
3, 81960, Note_on_c, 1, 60, 106
3, 82540, Note_off_c, 1, 60, 64
3, 83520, Note_on_c, 1, 50, 107
3, 83520, Note_on_c, 1, 53, 97
3, 83520, Note_on_c, 1, 58, 118
3, 83740, Note_off_c, 1, 58, 64
3, 83740, Note_off_c, 1, 53, 64
3, 83740, Note_off_c, 1, 50, 64
3, 83880, Note_on_c, 1, 48, 109
3, 83880, Note_on_c, 1, 51, 116
3, 83880, Note_on_c, 1, 56, 110
3, 84460, Note_off_c, 1, 56, 64
3, 84460, Note_off_c, 1, 51, 64
3, 84460, Note_off_c, 1, 48, 64
3, 85320, Note_on_c, 1, 48, 111
3, 85320, Note_on_c, 1, 51, 112
3, 85320, Note_on_c, 1, 56, 110
3, 85608, Note_off_c, 1, 56, 64
3, 85608, Note_off_c, 1, 51, 64
3, 85608, Note_off_c, 1, 48, 64
3, 85680, Note_on_c, 1, 45, 123
3, 85680, Note_on_c, 1, 48, 110
3, 85680, Note_on_c, 1, 53, 109
3, 86380, Note_off_c, 1, 53, 64
3, 86380, Note_off_c, 1, 48, 64
3, 86380, Note_off_c, 1, 45, 64
3, 87360, Note_on_c, 1, 50, 118
3, 87360, Note_on_c, 1, 53, 107
3, 87360, Note_on_c, 1, 58, 115
3, 87580, Note_off_c, 1, 58, 64
3, 87580, Note_off_c, 1, 53, 64
3, 87580, Note_off_c, 1, 50, 64
3, 87720, Note_on_c, 1, 48, 110
3, 87720, Note_on_c, 1, 51, 107
3, 87720, Note_on_c, 1, 56, 116
3, 88300, Note_off_c, 1, 56, 64
3, 88300, Note_off_c, 1, 51, 64
3, 88300, Note_off_c, 1, 48, 64
3, 89160, Note_on_c, 1, 48, 110
3, 89160, Note_on_c, 1, 51, 110
3, 89160, Note_on_c, 1, 56, 117
3, 89448, Note_off_c, 1, 56, 64
3, 89448, Note_off_c, 1, 51, 64
3, 89448, Note_off_c, 1, 48, 64
3, 89520, Note_on_c, 1, 53, 109
3, 89520, Note_on_c, 1, 48, 116
3, 89520, Note_on_c, 1, 45, 111
3, 90208, Note_off_c, 1, 45, 64
3, 90208, Note_off_c, 1, 48, 64
3, 90208, Note_off_c, 1, 53, 64
3, 90480, Note_on_c, 1, 46, 105
3, 90480, Note_on_c, 1, 51, 116
3, 90480, Note_on_c, 1, 55, 106
3, 90576, Note_off_c, 1, 55, 64
3, 90576, Note_off_c, 1, 51, 64
3, 90576, Note_off_c, 1, 46, 64
3, 90600, Note_on_c, 1, 46, 109
3, 90600, Note_on_c, 1, 51, 109
3, 90600, Note_on_c, 1, 55, 119
3, 90792, Note_off_c, 1, 55, 64
3, 90792, Note_off_c, 1, 51, 64
3, 90792, Note_off_c, 1, 46, 64
3, 90840, Note_on_c, 1, 46, 110
3, 90840, Note_on_c, 1, 51, 112
3, 90840, Note_on_c, 1, 55, 110
3, 91032, Note_off_c, 1, 55, 64
3, 91032, Note_off_c, 1, 51, 64
3, 91032, Note_off_c, 1, 46, 64
3, 91080, Note_on_c, 1, 46, 108
3, 91080, Note_on_c, 1, 51, 121
3, 91080, Note_on_c, 1, 55, 110
3, 91272, Note_off_c, 1, 55, 64
3, 91272, Note_off_c, 1, 51, 64
3, 91272, Note_off_c, 1, 46, 64
3, 91320, Note_on_c, 1, 46, 106
3, 91320, Note_on_c, 1, 51, 114
3, 91320, Note_on_c, 1, 55, 99
3, 91512, Note_off_c, 1, 55, 64
3, 91512, Note_off_c, 1, 51, 64
3, 91512, Note_off_c, 1, 46, 64
3, 91560, Note_on_c, 1, 46, 118
3, 91560, Note_on_c, 1, 51, 101
3, 91560, Note_on_c, 1, 55, 110
3, 91656, Note_off_c, 1, 55, 64
3, 91656, Note_off_c, 1, 51, 64
3, 91656, Note_off_c, 1, 46, 64
3, 91680, Note_on_c, 1, 46, 112
3, 91680, Note_on_c, 1, 51, 119
3, 91680, Note_on_c, 1, 55, 125
3, 91872, Note_off_c, 1, 55, 64
3, 91872, Note_off_c, 1, 51, 64
3, 91872, Note_off_c, 1, 46, 64
3, 91920, Note_on_c, 1, 48, 109
3, 91920, Note_on_c, 1, 53, 110
3, 91920, Note_on_c, 1, 57, 107
3, 92016, Note_off_c, 1, 57, 64
3, 92016, Note_off_c, 1, 53, 64
3, 92016, Note_off_c, 1, 48, 64
3, 92040, Note_on_c, 1, 48, 104
3, 92040, Note_on_c, 1, 53, 105
3, 92040, Note_on_c, 1, 57, 110
3, 92140, Note_off_c, 1, 57, 64
3, 92140, Note_off_c, 1, 53, 64
3, 92140, Note_off_c, 1, 48, 64
3, 94320, Note_on_c, 1, 46, 102
3, 94320, Note_on_c, 1, 51, 118
3, 94320, Note_on_c, 1, 55, 117
3, 94416, Note_off_c, 1, 55, 64
3, 94416, Note_off_c, 1, 51, 64
3, 94416, Note_off_c, 1, 46, 64
3, 94440, Note_on_c, 1, 46, 106
3, 94440, Note_on_c, 1, 51, 110
3, 94440, Note_on_c, 1, 55, 113
3, 94632, Note_off_c, 1, 55, 64
3, 94632, Note_off_c, 1, 51, 64
3, 94632, Note_off_c, 1, 46, 64
3, 94680, Note_on_c, 1, 46, 110
3, 94680, Note_on_c, 1, 51, 98
3, 94680, Note_on_c, 1, 55, 106
3, 94872, Note_off_c, 1, 55, 64
3, 94872, Note_off_c, 1, 51, 64
3, 94872, Note_off_c, 1, 46, 64
3, 94920, Note_on_c, 1, 46, 108
3, 94920, Note_on_c, 1, 51, 109
3, 94920, Note_on_c, 1, 55, 102
3, 95112, Note_off_c, 1, 55, 64
3, 95112, Note_off_c, 1, 51, 64
3, 95112, Note_off_c, 1, 46, 64
3, 95160, Note_on_c, 1, 46, 121
3, 95160, Note_on_c, 1, 51, 98
3, 95160, Note_on_c, 1, 55, 115
3, 95352, Note_off_c, 1, 55, 64
3, 95352, Note_off_c, 1, 51, 64
3, 95352, Note_off_c, 1, 46, 64
3, 95400, Note_on_c, 1, 46, 110
3, 95400, Note_on_c, 1, 51, 121
3, 95400, Note_on_c, 1, 55, 109
3, 95496, Note_off_c, 1, 55, 64
3, 95496, Note_off_c, 1, 51, 64
3, 95496, Note_off_c, 1, 46, 64
3, 95520, Note_on_c, 1, 46, 98
3, 95520, Note_on_c, 1, 51, 116
3, 95520, Note_on_c, 1, 55, 109
3, 95712, Note_off_c, 1, 55, 64
3, 95712, Note_off_c, 1, 51, 64
3, 95712, Note_off_c, 1, 46, 64
3, 95760, Note_on_c, 1, 48, 120
3, 95760, Note_on_c, 1, 53, 102
3, 95760, Note_on_c, 1, 57, 108
3, 95856, Note_off_c, 1, 57, 64
3, 95856, Note_off_c, 1, 53, 64
3, 95856, Note_off_c, 1, 48, 64
3, 95880, Note_on_c, 1, 48, 114
3, 95880, Note_on_c, 1, 53, 110
3, 95880, Note_on_c, 1, 57, 109
3, 95980, Note_off_c, 1, 57, 64
3, 95980, Note_off_c, 1, 53, 64
3, 95980, Note_off_c, 1, 48, 64
3, 98160, Note_on_c, 1, 46, 97
3, 98160, Note_on_c, 1, 51, 101
3, 98160, Note_on_c, 1, 55, 100
3, 98256, Note_off_c, 1, 55, 64
3, 98256, Note_off_c, 1, 51, 64
3, 98256, Note_off_c, 1, 46, 64
3, 98280, Note_on_c, 1, 46, 104
3, 98280, Note_on_c, 1, 51, 118
3, 98280, Note_on_c, 1, 55, 111
3, 98472, Note_off_c, 1, 55, 64
3, 98472, Note_off_c, 1, 51, 64
3, 98472, Note_off_c, 1, 46, 64
3, 98520, Note_on_c, 1, 46, 117
3, 98520, Note_on_c, 1, 51, 100
3, 98520, Note_on_c, 1, 55, 96
3, 98712, Note_off_c, 1, 55, 64
3, 98712, Note_off_c, 1, 51, 64
3, 98712, Note_off_c, 1, 46, 64
3, 98760, Note_on_c, 1, 46, 110
3, 98760, Note_on_c, 1, 51, 116
3, 98760, Note_on_c, 1, 55, 111
3, 98952, Note_off_c, 1, 55, 64
3, 98952, Note_off_c, 1, 51, 64
3, 98952, Note_off_c, 1, 46, 64
3, 99000, Note_on_c, 1, 46, 101
3, 99000, Note_on_c, 1, 51, 101
3, 99000, Note_on_c, 1, 55, 125
3, 99192, Note_off_c, 1, 55, 64
3, 99192, Note_off_c, 1, 51, 64
3, 99192, Note_off_c, 1, 46, 64
3, 99240, Note_on_c, 1, 46, 97
3, 99240, Note_on_c, 1, 51, 112
3, 99240, Note_on_c, 1, 55, 110
3, 99336, Note_off_c, 1, 55, 64
3, 99336, Note_off_c, 1, 51, 64
3, 99336, Note_off_c, 1, 46, 64
3, 99360, Note_on_c, 1, 46, 110
3, 99360, Note_on_c, 1, 51, 116
3, 99360, Note_on_c, 1, 55, 104
3, 99552, Note_off_c, 1, 55, 64
3, 99552, Note_off_c, 1, 51, 64
3, 99552, Note_off_c, 1, 46, 64
3, 99600, Note_on_c, 1, 48, 109
3, 99600, Note_on_c, 1, 53, 123
3, 99600, Note_on_c, 1, 57, 110
3, 99696, Note_off_c, 1, 57, 64
3, 99696, Note_off_c, 1, 53, 64
3, 99696, Note_off_c, 1, 48, 64
3, 99720, Note_on_c, 1, 48, 109
3, 99720, Note_on_c, 1, 53, 108
3, 99720, Note_on_c, 1, 57, 114
3, 99820, Note_off_c, 1, 57, 64
3, 99820, Note_off_c, 1, 53, 64
3, 99820, Note_off_c, 1, 48, 64
3, 100560, Note_on_c, 1, 48, 102
3, 100560, Note_on_c, 1, 53, 109
3, 100560, Note_on_c, 1, 57, 111
3, 100656, Note_off_c, 1, 57, 64
3, 100656, Note_off_c, 1, 53, 64
3, 100656, Note_off_c, 1, 48, 64
3, 100680, Note_on_c, 1, 48, 96
3, 100680, Note_on_c, 1, 53, 112
3, 100680, Note_on_c, 1, 57, 110
3, 100780, Note_off_c, 1, 57, 64
3, 100780, Note_off_c, 1, 53, 64
3, 100780, Note_off_c, 1, 48, 64
3, 100920, Note_on_c, 1, 48, 107
3, 101016, Note_off_c, 1, 48, 64
3, 101040, Note_on_c, 1, 50, 117
3, 101232, Note_off_c, 1, 50, 64
3, 101280, Note_on_c, 1, 53, 117
3, 101664, Note_off_c, 1, 53, 64
3, 101760, Note_on_c, 1, 48, 124
3, 101760, Note_on_c, 1, 53, 107
3, 101760, Note_on_c, 1, 57, 110
3, 101952, Note_off_c, 1, 57, 64
3, 101952, Note_off_c, 1, 53, 64
3, 101952, Note_off_c, 1, 48, 64
3, 102000, Note_on_c, 1, 48, 122
3, 102000, Note_on_c, 1, 53, 124
3, 102000, Note_on_c, 1, 57, 120
3, 102192, Note_off_c, 1, 57, 64
3, 102192, Note_off_c, 1, 53, 64
3, 102192, Note_off_c, 1, 48, 64
3, 102240, Note_on_c, 1, 48, 99
3, 102240, Note_on_c, 1, 53, 95
3, 102240, Note_on_c, 1, 57, 110
3, 102432, Note_off_c, 1, 57, 64
3, 102432, Note_off_c, 1, 53, 64
3, 102432, Note_off_c, 1, 48, 64
3, 102480, Note_on_c, 1, 48, 114
3, 102480, Note_on_c, 1, 53, 114
3, 102480, Note_on_c, 1, 57, 109
3, 102576, Note_off_c, 1, 57, 64
3, 102576, Note_off_c, 1, 53, 64
3, 102576, Note_off_c, 1, 48, 64
3, 102600, Note_on_c, 1, 48, 112
3, 102600, Note_on_c, 1, 53, 111
3, 102600, Note_on_c, 1, 57, 102
3, 102700, Note_off_c, 1, 57, 64
3, 102700, Note_off_c, 1, 53, 64
3, 102700, Note_off_c, 1, 48, 64
3, 102840, Note_on_c, 1, 56, 109
3, 102936, Note_off_c, 1, 56, 64
3, 102960, Note_on_c, 1, 57, 111
3, 103056, Note_off_c, 1, 57, 64
3, 103080, Note_on_c, 1, 50, 113
3, 103080, Note_on_c, 1, 58, 114
3, 103176, Note_off_c, 1, 58, 64
3, 103176, Note_off_c, 1, 50, 64
3, 103200, Note_on_c, 1, 57, 124
3, 103296, Note_off_c, 1, 57, 64
3, 103320, Note_on_c, 1, 53, 124
3, 103416, Note_off_c, 1, 53, 64
3, 103440, Note_on_c, 1, 50, 110
3, 103536, Note_off_c, 1, 50, 64
3, 103560, Note_on_c, 1, 48, 124
3, 103656, Note_off_c, 1, 48, 64
3, 103920, Note_on_c, 1, 56, 110
3, 104112, Note_off_c, 1, 56, 64
3, 104160, Note_on_c, 1, 56, 122
3, 104448, Note_off_c, 1, 56, 64
3, 104520, Note_on_c, 1, 58, 109
3, 104616, Note_off_c, 1, 58, 64
3, 104640, Note_on_c, 1, 60, 111
3, 104832, Note_off_c, 1, 60, 64
3, 104880, Note_on_c, 1, 56, 113
3, 104976, Note_off_c, 1, 56, 64
3, 105000, Note_on_c, 1, 56, 103
3, 105288, Note_off_c, 1, 56, 64
3, 105360, Note_on_c, 1, 53, 123
3, 105456, Note_off_c, 1, 53, 64
3, 105480, Note_on_c, 1, 51, 111
3, 105576, Note_off_c, 1, 51, 64
3, 105600, Note_on_c, 1, 51, 120
3, 105792, Note_off_c, 1, 51, 64
3, 105840, Note_on_c, 1, 58, 97
3, 106032, Note_off_c, 1, 58, 64
3, 106080, Note_on_c, 1, 58, 113
3, 106540, Note_off_c, 1, 58, 64
3, 107040, Note_on_c, 1, 60, 112
3, 107232, Note_off_c, 1, 60, 64
3, 107280, Note_on_c, 1, 58, 95
3, 107376, Note_off_c, 1, 58, 64
3, 107400, Note_on_c, 1, 56, 112
3, 107500, Note_off_c, 1, 56, 64
3, 107760, Note_on_c, 1, 56, 117
3, 107952, Note_off_c, 1, 56, 64
3, 108000, Note_on_c, 1, 56, 110
3, 108288, Note_off_c, 1, 56, 64
3, 108360, Note_on_c, 1, 58, 113
3, 108456, Note_off_c, 1, 58, 64
3, 108480, Note_on_c, 1, 60, 109
3, 108672, Note_off_c, 1, 60, 64
3, 108720, Note_on_c, 1, 58, 105
3, 108816, Note_off_c, 1, 58, 64
3, 108840, Note_on_c, 1, 56, 118
3, 109128, Note_off_c, 1, 56, 64
3, 109200, Note_on_c, 1, 53, 119
3, 109296, Note_off_c, 1, 53, 64
3, 109320, Note_on_c, 1, 53, 110
3, 109416, Note_off_c, 1, 53, 64
3, 109440, Note_on_c, 1, 51, 109
3, 109632, Note_off_c, 1, 51, 64
3, 109680, Note_on_c, 1, 58, 104
3, 109872, Note_off_c, 1, 58, 64
3, 109920, Note_on_c, 1, 58, 116
3, 110380, Note_off_c, 1, 58, 64
3, 110760, Note_on_c, 1, 65, 112
3, 111048, Note_off_c, 1, 65, 64
3, 111120, Note_on_c, 1, 63, 108
3, 111340, Note_off_c, 1, 63, 64
3, 111600, Note_on_c, 1, 60, 109
3, 111792, Note_off_c, 1, 60, 64
3, 111840, Note_on_c, 1, 56, 115
3, 112128, Note_off_c, 1, 56, 64
3, 112200, Note_on_c, 1, 58, 109
3, 112296, Note_off_c, 1, 58, 64
3, 112320, Note_on_c, 1, 60, 110
3, 112512, Note_off_c, 1, 60, 64
3, 112560, Note_on_c, 1, 56, 106
3, 112656, Note_off_c, 1, 56, 64
3, 112680, Note_on_c, 1, 56, 110
3, 112968, Note_off_c, 1, 56, 64
3, 113040, Note_on_c, 1, 53, 107
3, 113136, Note_off_c, 1, 53, 64
3, 113160, Note_on_c, 1, 53, 105
3, 113256, Note_off_c, 1, 53, 64
3, 113280, Note_on_c, 1, 51, 117
3, 113472, Note_off_c, 1, 51, 64
3, 113520, Note_on_c, 1, 58, 99
3, 113712, Note_off_c, 1, 58, 64
3, 113760, Note_on_c, 1, 58, 107
3, 114144, Note_off_c, 1, 58, 64
3, 114240, Note_on_c, 1, 58, 100
3, 114432, Note_off_c, 1, 58, 64
3, 114480, Note_on_c, 1, 58, 105
3, 114576, Note_off_c, 1, 58, 64
3, 114600, Note_on_c, 1, 60, 110
3, 115180, Note_off_c, 1, 60, 64
3, 115440, Note_on_c, 1, 48, 110
3, 115440, Note_on_c, 1, 60, 118
3, 115632, Note_off_c, 1, 60, 64
3, 115632, Note_off_c, 1, 48, 64
3, 115680, Note_on_c, 1, 48, 112
3, 115680, Note_on_c, 1, 60, 118
3, 115872, Note_off_c, 1, 60, 64
3, 115872, Note_off_c, 1, 48, 64
3, 115920, Note_on_c, 1, 50, 107
3, 115920, Note_on_c, 1, 62, 109
3, 116112, Note_off_c, 1, 62, 64
3, 116112, Note_off_c, 1, 50, 64
3, 116160, Note_on_c, 1, 51, 110
3, 116160, Note_on_c, 1, 63, 110
3, 116352, Note_off_c, 1, 63, 64
3, 116352, Note_off_c, 1, 51, 64
3, 116400, Note_on_c, 1, 50, 98
3, 116400, Note_on_c, 1, 62, 117
3, 116592, Note_off_c, 1, 62, 64
3, 116592, Note_off_c, 1, 50, 64
3, 116640, Note_on_c, 1, 48, 110
3, 116640, Note_on_c, 1, 60, 124
3, 116736, Note_off_c, 1, 60, 64
3, 116736, Note_off_c, 1, 48, 64
3, 116760, Note_on_c, 1, 62, 111
3, 116760, Note_on_c, 1, 50, 119
3, 116851, Note_off_c, 1, 50, 64
3, 116860, Note_off_c, 1, 62, 64
3, 117360, Note_on_c, 1, 48, 111
3, 117360, Note_on_c, 1, 60, 102
3, 117552, Note_off_c, 1, 60, 64
3, 117552, Note_off_c, 1, 48, 64
3, 117600, Note_on_c, 1, 48, 109
3, 117600, Note_on_c, 1, 60, 111
3, 117792, Note_off_c, 1, 60, 64
3, 117792, Note_off_c, 1, 48, 64
3, 117840, Note_on_c, 1, 50, 106
3, 117840, Note_on_c, 1, 62, 122
3, 118032, Note_off_c, 1, 62, 64
3, 118032, Note_off_c, 1, 50, 64
3, 118080, Note_on_c, 1, 51, 103
3, 118080, Note_on_c, 1, 63, 116
3, 118272, Note_off_c, 1, 63, 64
3, 118272, Note_off_c, 1, 51, 64
3, 118320, Note_on_c, 1, 53, 111
3, 118320, Note_on_c, 1, 65, 109
3, 118512, Note_off_c, 1, 65, 64
3, 118512, Note_off_c, 1, 53, 64
3, 118560, Note_on_c, 1, 55, 115
3, 118560, Note_on_c, 1, 67, 111
3, 118656, Note_off_c, 1, 67, 64
3, 118656, Note_off_c, 1, 55, 64
3, 118680, Note_on_c, 1, 56, 109
3, 118680, Note_on_c, 1, 68, 103
3, 118780, Note_off_c, 1, 68, 64
3, 118780, Note_off_c, 1, 56, 64
3, 119280, Note_on_c, 1, 48, 110
3, 119280, Note_on_c, 1, 60, 109
3, 119472, Note_off_c, 1, 60, 64
3, 119472, Note_off_c, 1, 48, 64
3, 119520, Note_on_c, 1, 48, 111
3, 119520, Note_on_c, 1, 60, 110
3, 119712, Note_off_c, 1, 60, 64
3, 119712, Note_off_c, 1, 48, 64
3, 119760, Note_on_c, 1, 50, 115
3, 119760, Note_on_c, 1, 62, 117
3, 119952, Note_off_c, 1, 62, 64
3, 119952, Note_off_c, 1, 50, 64
3, 120000, Note_on_c, 1, 51, 101
3, 120000, Note_on_c, 1, 63, 104
3, 120192, Note_off_c, 1, 63, 64
3, 120192, Note_off_c, 1, 51, 64
3, 120240, Note_on_c, 1, 50, 110
3, 120240, Note_on_c, 1, 62, 107
3, 120432, Note_off_c, 1, 62, 64
3, 120432, Note_off_c, 1, 50, 64
3, 120480, Note_on_c, 1, 48, 113
3, 120480, Note_on_c, 1, 60, 110
3, 120576, Note_off_c, 1, 60, 64
3, 120576, Note_off_c, 1, 48, 64
3, 120600, Note_on_c, 1, 50, 100
3, 120600, Note_on_c, 1, 62, 106
3, 120700, Note_off_c, 1, 62, 64
3, 120700, Note_off_c, 1, 50, 64
3, 120960, Note_on_c, 1, 48, 111
3, 120960, Note_on_c, 1, 60, 106
3, 121056, Note_off_c, 1, 60, 64
3, 121056, Note_off_c, 1, 48, 64
3, 121080, Note_on_c, 1, 48, 112
3, 121080, Note_on_c, 1, 60, 122
3, 121176, Note_off_c, 1, 60, 64
3, 121176, Note_off_c, 1, 48, 64
3, 121200, Note_on_c, 1, 48, 111
3, 121200, Note_on_c, 1, 60, 118
3, 121392, Note_off_c, 1, 60, 64
3, 121392, Note_off_c, 1, 48, 64
3, 121440, Note_on_c, 1, 48, 120
3, 121440, Note_on_c, 1, 60, 110
3, 121632, Note_off_c, 1, 60, 64
3, 121632, Note_off_c, 1, 48, 64
3, 121680, Note_on_c, 1, 48, 118
3, 121680, Note_on_c, 1, 60, 112
3, 121776, Note_off_c, 1, 60, 64
3, 121776, Note_off_c, 1, 48, 64
3, 121800, Note_on_c, 1, 48, 109
3, 121800, Note_on_c, 1, 60, 110
3, 121896, Note_off_c, 1, 60, 64
3, 121896, Note_off_c, 1, 48, 64
3, 121920, Note_on_c, 1, 48, 112
3, 121920, Note_on_c, 1, 60, 110
3, 122112, Note_off_c, 1, 60, 64
3, 122112, Note_off_c, 1, 48, 64
3, 122160, Note_on_c, 1, 48, 99
3, 122160, Note_on_c, 1, 60, 108
3, 122380, Note_off_c, 1, 60, 64
3, 122380, Note_off_c, 1, 48, 64
3, 122640, Note_on_c, 1, 53, 113
3, 122640, Note_on_c, 1, 65, 110
3, 122832, Note_off_c, 1, 65, 64
3, 122832, Note_off_c, 1, 53, 64
3, 122880, Note_on_c, 1, 51, 110
3, 122880, Note_on_c, 1, 63, 109
3, 123072, Note_off_c, 1, 63, 64
3, 123072, Note_off_c, 1, 51, 64
3, 123120, Note_on_c, 1, 46, 107
3, 123120, Note_on_c, 1, 51, 99
3, 123120, Note_on_c, 1, 55, 117
3, 123216, Note_off_c, 1, 55, 64
3, 123216, Note_off_c, 1, 51, 64
3, 123216, Note_off_c, 1, 46, 64
3, 123240, Note_on_c, 1, 46, 101
3, 123240, Note_on_c, 1, 51, 108
3, 123240, Note_on_c, 1, 55, 111
3, 123432, Note_off_c, 1, 55, 64
3, 123432, Note_off_c, 1, 51, 64
3, 123432, Note_off_c, 1, 46, 64
3, 123480, Note_on_c, 1, 46, 96
3, 123480, Note_on_c, 1, 51, 104
3, 123480, Note_on_c, 1, 55, 110
3, 123672, Note_off_c, 1, 55, 64
3, 123672, Note_off_c, 1, 51, 64
3, 123672, Note_off_c, 1, 46, 64
3, 123720, Note_on_c, 1, 46, 114
3, 123720, Note_on_c, 1, 51, 102
3, 123720, Note_on_c, 1, 55, 108
3, 123912, Note_off_c, 1, 55, 64
3, 123912, Note_off_c, 1, 51, 64
3, 123912, Note_off_c, 1, 46, 64
3, 123960, Note_on_c, 1, 46, 108
3, 123960, Note_on_c, 1, 51, 106
3, 123960, Note_on_c, 1, 55, 98
3, 124152, Note_off_c, 1, 55, 64
3, 124152, Note_off_c, 1, 51, 64
3, 124152, Note_off_c, 1, 46, 64
3, 124200, Note_on_c, 1, 46, 114
3, 124200, Note_on_c, 1, 51, 124
3, 124200, Note_on_c, 1, 55, 96
3, 124296, Note_off_c, 1, 55, 64
3, 124296, Note_off_c, 1, 51, 64
3, 124296, Note_off_c, 1, 46, 64
3, 124320, Note_on_c, 1, 46, 110
3, 124320, Note_on_c, 1, 51, 118
3, 124320, Note_on_c, 1, 55, 110
3, 124512, Note_off_c, 1, 55, 64
3, 124512, Note_off_c, 1, 51, 64
3, 124512, Note_off_c, 1, 46, 64
3, 124560, Note_on_c, 1, 48, 101
3, 124560, Note_on_c, 1, 53, 121
3, 124560, Note_on_c, 1, 57, 114
3, 124656, Note_off_c, 1, 57, 64
3, 124656, Note_off_c, 1, 53, 64
3, 124656, Note_off_c, 1, 48, 64
3, 124680, Note_on_c, 1, 48, 107
3, 124680, Note_on_c, 1, 53, 118
3, 124680, Note_on_c, 1, 57, 118
3, 124780, Note_off_c, 1, 57, 64
3, 124780, Note_off_c, 1, 53, 64
3, 124780, Note_off_c, 1, 48, 64
3, 125040, Note_on_c, 1, 55, 109
3, 125136, Note_off_c, 1, 55, 64
3, 125160, Note_on_c, 1, 56, 108
3, 125256, Note_off_c, 1, 56, 64
3, 125280, Note_on_c, 1, 57, 116
3, 125376, Note_off_c, 1, 57, 64
3, 125400, Note_on_c, 1, 53, 102
3, 125400, Note_on_c, 1, 65, 109
3, 125688, Note_off_c, 1, 65, 64
3, 125688, Note_off_c, 1, 53, 64
3, 125760, Note_on_c, 1, 55, 101
3, 125856, Note_off_c, 1, 55, 64
3, 125880, Note_on_c, 1, 56, 96
3, 125976, Note_off_c, 1, 56, 64
3, 126000, Note_on_c, 1, 57, 110
3, 126096, Note_off_c, 1, 57, 64
3, 126120, Note_on_c, 1, 53, 109
3, 126120, Note_on_c, 1, 65, 110
3, 126696, Note_off_c, 1, 65, 64
3, 126696, Note_off_c, 1, 53, 64
3, 126960, Note_on_c, 1, 46, 122
3, 126960, Note_on_c, 1, 51, 116
3, 126960, Note_on_c, 1, 55, 109
3, 127056, Note_off_c, 1, 55, 64
3, 127056, Note_off_c, 1, 51, 64
3, 127056, Note_off_c, 1, 46, 64
3, 127080, Note_on_c, 1, 46, 110
3, 127080, Note_on_c, 1, 51, 108
3, 127080, Note_on_c, 1, 55, 123
3, 127272, Note_off_c, 1, 55, 64
3, 127272, Note_off_c, 1, 51, 64
3, 127272, Note_off_c, 1, 46, 64
3, 127320, Note_on_c, 1, 46, 106
3, 127320, Note_on_c, 1, 51, 110
3, 127320, Note_on_c, 1, 55, 110
3, 127512, Note_off_c, 1, 55, 64
3, 127512, Note_off_c, 1, 51, 64
3, 127512, Note_off_c, 1, 46, 64
3, 127560, Note_on_c, 1, 46, 123
3, 127560, Note_on_c, 1, 51, 105
3, 127560, Note_on_c, 1, 55, 113
3, 127752, Note_off_c, 1, 55, 64
3, 127752, Note_off_c, 1, 51, 64
3, 127752, Note_off_c, 1, 46, 64
3, 127800, Note_on_c, 1, 46, 103
3, 127800, Note_on_c, 1, 51, 113
3, 127800, Note_on_c, 1, 55, 108
3, 127992, Note_off_c, 1, 55, 64
3, 127992, Note_off_c, 1, 51, 64
3, 127992, Note_off_c, 1, 46, 64
3, 128040, Note_on_c, 1, 46, 110
3, 128040, Note_on_c, 1, 51, 110
3, 128040, Note_on_c, 1, 55, 106
3, 128136, Note_off_c, 1, 55, 64
3, 128136, Note_off_c, 1, 51, 64
3, 128136, Note_off_c, 1, 46, 64
3, 128160, Note_on_c, 1, 46, 100
3, 128160, Note_on_c, 1, 51, 112
3, 128160, Note_on_c, 1, 55, 101
3, 128352, Note_off_c, 1, 55, 64
3, 128352, Note_off_c, 1, 51, 64
3, 128352, Note_off_c, 1, 46, 64
3, 128400, Note_on_c, 1, 48, 98
3, 128400, Note_on_c, 1, 53, 98
3, 128400, Note_on_c, 1, 57, 110
3, 128496, Note_off_c, 1, 57, 64
3, 128496, Note_off_c, 1, 53, 64
3, 128496, Note_off_c, 1, 48, 64
3, 128520, Note_on_c, 1, 48, 110
3, 128520, Note_on_c, 1, 53, 107
3, 128520, Note_on_c, 1, 57, 109
3, 128620, Note_off_c, 1, 57, 64
3, 128620, Note_off_c, 1, 53, 64
3, 128620, Note_off_c, 1, 48, 64
3, 128880, Note_on_c, 1, 55, 110
3, 128976, Note_off_c, 1, 55, 64
3, 129000, Note_on_c, 1, 56, 112
3, 129096, Note_off_c, 1, 56, 64
3, 129120, Note_on_c, 1, 57, 113
3, 129216, Note_off_c, 1, 57, 64
3, 129240, Note_on_c, 1, 53, 113
3, 129240, Note_on_c, 1, 65, 124
3, 129528, Note_off_c, 1, 65, 64
3, 129528, Note_off_c, 1, 53, 64
3, 129600, Note_on_c, 1, 55, 117
3, 129696, Note_off_c, 1, 55, 64
3, 129720, Note_on_c, 1, 56, 113
3, 129816, Note_off_c, 1, 56, 64
3, 129840, Note_on_c, 1, 57, 98
3, 129936, Note_off_c, 1, 57, 64
3, 129960, Note_on_c, 1, 53, 111
3, 129960, Note_on_c, 1, 65, 100
3, 130536, Note_off_c, 1, 65, 64
3, 130536, Note_off_c, 1, 53, 64
3, 130800, Note_on_c, 1, 46, 110
3, 130800, Note_on_c, 1, 51, 110
3, 130800, Note_on_c, 1, 55, 113
3, 130896, Note_off_c, 1, 55, 64
3, 130896, Note_off_c, 1, 51, 64
3, 130896, Note_off_c, 1, 46, 64
3, 130920, Note_on_c, 1, 46, 113
3, 130920, Note_on_c, 1, 51, 124
3, 130920, Note_on_c, 1, 55, 108
3, 131112, Note_off_c, 1, 55, 64
3, 131112, Note_off_c, 1, 51, 64
3, 131112, Note_off_c, 1, 46, 64
3, 131160, Note_on_c, 1, 46, 108
3, 131160, Note_on_c, 1, 51, 109
3, 131160, Note_on_c, 1, 55, 104
3, 131352, Note_off_c, 1, 55, 64
3, 131352, Note_off_c, 1, 51, 64
3, 131352, Note_off_c, 1, 46, 64
3, 131400, Note_on_c, 1, 46, 109
3, 131400, Note_on_c, 1, 51, 114
3, 131400, Note_on_c, 1, 55, 101
3, 131592, Note_off_c, 1, 55, 64
3, 131592, Note_off_c, 1, 51, 64
3, 131592, Note_off_c, 1, 46, 64
3, 131640, Note_on_c, 1, 46, 110
3, 131640, Note_on_c, 1, 51, 102
3, 131640, Note_on_c, 1, 55, 112
3, 131832, Note_off_c, 1, 55, 64
3, 131832, Note_off_c, 1, 51, 64
3, 131832, Note_off_c, 1, 46, 64
3, 131880, Note_on_c, 1, 46, 108
3, 131880, Note_on_c, 1, 51, 112
3, 131880, Note_on_c, 1, 55, 96
3, 131976, Note_off_c, 1, 55, 64
3, 131976, Note_off_c, 1, 51, 64
3, 131976, Note_off_c, 1, 46, 64
3, 132000, Note_on_c, 1, 46, 109
3, 132000, Note_on_c, 1, 51, 110
3, 132000, Note_on_c, 1, 55, 107
3, 132192, Note_off_c, 1, 55, 64
3, 132192, Note_off_c, 1, 51, 64
3, 132192, Note_off_c, 1, 46, 64
3, 132240, Note_on_c, 1, 48, 107
3, 132240, Note_on_c, 1, 53, 118
3, 132240, Note_on_c, 1, 57, 120
3, 132336, Note_off_c, 1, 57, 64
3, 132336, Note_off_c, 1, 53, 64
3, 132336, Note_off_c, 1, 48, 64
3, 132360, Note_on_c, 1, 48, 118
3, 132360, Note_on_c, 1, 53, 109
3, 132360, Note_on_c, 1, 57, 114
3, 132460, Note_off_c, 1, 57, 64
3, 132460, Note_off_c, 1, 53, 64
3, 132460, Note_off_c, 1, 48, 64
3, 133200, Note_on_c, 1, 48, 99
3, 133200, Note_on_c, 1, 53, 104
3, 133200, Note_on_c, 1, 57, 101
3, 133296, Note_off_c, 1, 57, 64
3, 133296, Note_off_c, 1, 53, 64
3, 133296, Note_off_c, 1, 48, 64
3, 133320, Note_on_c, 1, 48, 108
3, 133320, Note_on_c, 1, 53, 110
3, 133320, Note_on_c, 1, 57, 99
3, 133420, Note_off_c, 1, 57, 64
3, 133420, Note_off_c, 1, 53, 64
3, 133420, Note_off_c, 1, 48, 64
3, 133560, Note_on_c, 1, 48, 112
3, 133656, Note_off_c, 1, 48, 64
3, 133680, Note_on_c, 1, 50, 120
3, 133872, Note_off_c, 1, 50, 64
3, 133920, Note_on_c, 1, 53, 110
3, 134304, Note_off_c, 1, 53, 64
3, 134400, Note_on_c, 1, 48, 109
3, 134400, Note_on_c, 1, 53, 113
3, 134400, Note_on_c, 1, 57, 112
3, 134592, Note_off_c, 1, 57, 64
3, 134592, Note_off_c, 1, 53, 64
3, 134592, Note_off_c, 1, 48, 64
3, 134640, Note_on_c, 1, 48, 107
3, 134640, Note_on_c, 1, 53, 111
3, 134640, Note_on_c, 1, 57, 98
3, 134832, Note_off_c, 1, 57, 64
3, 134832, Note_off_c, 1, 53, 64
3, 134832, Note_off_c, 1, 48, 64
3, 134880, Note_on_c, 1, 48, 110
3, 134880, Note_on_c, 1, 53, 106
3, 134880, Note_on_c, 1, 57, 107
3, 135072, Note_off_c, 1, 57, 64
3, 135072, Note_off_c, 1, 53, 64
3, 135072, Note_off_c, 1, 48, 64
3, 135120, Note_on_c, 1, 48, 104
3, 135120, Note_on_c, 1, 53, 108
3, 135120, Note_on_c, 1, 57, 103
3, 135216, Note_off_c, 1, 57, 64
3, 135216, Note_off_c, 1, 53, 64
3, 135216, Note_off_c, 1, 48, 64
3, 135240, Note_on_c, 1, 48, 122
3, 135240, Note_on_c, 1, 53, 101
3, 135240, Note_on_c, 1, 57, 106
3, 135340, Note_off_c, 1, 57, 64
3, 135340, Note_off_c, 1, 53, 64
3, 135340, Note_off_c, 1, 48, 64
3, 135480, Note_on_c, 1, 56, 102
3, 135576, Note_off_c, 1, 56, 64
3, 135600, Note_on_c, 1, 57, 107
3, 135696, Note_off_c, 1, 57, 64
3, 135720, Note_on_c, 1, 50, 112
3, 135720, Note_on_c, 1, 58, 110
3, 135816, Note_off_c, 1, 58, 64
3, 135816, Note_off_c, 1, 50, 64
3, 135840, Note_on_c, 1, 57, 101
3, 135936, Note_off_c, 1, 57, 64
3, 135960, Note_on_c, 1, 53, 105
3, 136056, Note_off_c, 1, 53, 64
3, 136080, Note_on_c, 1, 50, 119
3, 136176, Note_off_c, 1, 50, 64
3, 136200, Note_on_c, 1, 48, 116
3, 136296, Note_off_c, 1, 48, 64
3, 136560, Note_on_c, 1, 56, 110
3, 136752, Note_off_c, 1, 56, 64
3, 136800, Note_on_c, 1, 56, 108
3, 137088, Note_off_c, 1, 56, 64
3, 137160, Note_on_c, 1, 58, 106
3, 137256, Note_off_c, 1, 58, 64
3, 137280, Note_on_c, 1, 60, 110
3, 137472, Note_off_c, 1, 60, 64
3, 137520, Note_on_c, 1, 56, 109
3, 137616, Note_off_c, 1, 56, 64
3, 137640, Note_on_c, 1, 56, 114
3, 137928, Note_off_c, 1, 56, 64
3, 138000, Note_on_c, 1, 53, 124
3, 138096, Note_off_c, 1, 53, 64
3, 138120, Note_on_c, 1, 51, 110
3, 138216, Note_off_c, 1, 51, 64
3, 138240, Note_on_c, 1, 51, 110
3, 138432, Note_off_c, 1, 51, 64
3, 138480, Note_on_c, 1, 58, 121
3, 138672, Note_off_c, 1, 58, 64
3, 138720, Note_on_c, 1, 58, 99
3, 139180, Note_off_c, 1, 58, 64
3, 139680, Note_on_c, 1, 60, 103
3, 139872, Note_off_c, 1, 60, 64
3, 139920, Note_on_c, 1, 58, 99
3, 140016, Note_off_c, 1, 58, 64
3, 140040, Note_on_c, 1, 56, 98
3, 140140, Note_off_c, 1, 56, 64
3, 140400, Note_on_c, 1, 56, 110
3, 140592, Note_off_c, 1, 56, 64
3, 140640, Note_on_c, 1, 56, 111
3, 140928, Note_off_c, 1, 56, 64
3, 141000, Note_on_c, 1, 58, 103
3, 141096, Note_off_c, 1, 58, 64
3, 141120, Note_on_c, 1, 60, 105
3, 141312, Note_off_c, 1, 60, 64
3, 141360, Note_on_c, 1, 58, 108
3, 141456, Note_off_c, 1, 58, 64
3, 141480, Note_on_c, 1, 56, 106
3, 141768, Note_off_c, 1, 56, 64
3, 141840, Note_on_c, 1, 53, 114
3, 141936, Note_off_c, 1, 53, 64
3, 141960, Note_on_c, 1, 53, 105
3, 142056, Note_off_c, 1, 53, 64
3, 142080, Note_on_c, 1, 51, 110
3, 142272, Note_off_c, 1, 51, 64
3, 142320, Note_on_c, 1, 58, 100
3, 142512, Note_off_c, 1, 58, 64
3, 142560, Note_on_c, 1, 58, 108
3, 143020, Note_off_c, 1, 58, 64
3, 143400, Note_on_c, 1, 65, 121
3, 143688, Note_off_c, 1, 65, 64
3, 143760, Note_on_c, 1, 63, 99
3, 143980, Note_off_c, 1, 63, 64
3, 144240, Note_on_c, 1, 60, 96
3, 144432, Note_off_c, 1, 60, 64
3, 144480, Note_on_c, 1, 56, 105
3, 144768, Note_off_c, 1, 56, 64
3, 144840, Note_on_c, 1, 58, 107
3, 144936, Note_off_c, 1, 58, 64
3, 144960, Note_on_c, 1, 60, 104
3, 145152, Note_off_c, 1, 60, 64
3, 145200, Note_on_c, 1, 56, 99
3, 145296, Note_off_c, 1, 56, 64
3, 145320, Note_on_c, 1, 56, 116
3, 145608, Note_off_c, 1, 56, 64
3, 145680, Note_on_c, 1, 53, 120
3, 145776, Note_off_c, 1, 53, 64
3, 145800, Note_on_c, 1, 53, 123
3, 145896, Note_off_c, 1, 53, 64
3, 145920, Note_on_c, 1, 51, 103
3, 146112, Note_off_c, 1, 51, 64
3, 146160, Note_on_c, 1, 58, 102
3, 146352, Note_off_c, 1, 58, 64
3, 146400, Note_on_c, 1, 58, 98
3, 146784, Note_off_c, 1, 58, 64
3, 146880, Note_on_c, 1, 58, 111
3, 147072, Note_off_c, 1, 58, 64
3, 147120, Note_on_c, 1, 58, 103
3, 147216, Note_off_c, 1, 58, 64
3, 147240, Note_on_c, 1, 60, 111
3, 147820, Note_off_c, 1, 60, 64
3, 148080, Note_on_c, 1, 48, 108
3, 148080, Note_on_c, 1, 60, 110
3, 148272, Note_off_c, 1, 60, 64
3, 148272, Note_off_c, 1, 48, 64
3, 148320, Note_on_c, 1, 48, 109
3, 148320, Note_on_c, 1, 60, 110
3, 148512, Note_off_c, 1, 60, 64
3, 148512, Note_off_c, 1, 48, 64
3, 148560, Note_on_c, 1, 50, 110
3, 148560, Note_on_c, 1, 62, 106
3, 148752, Note_off_c, 1, 62, 64
3, 148752, Note_off_c, 1, 50, 64
3, 148800, Note_on_c, 1, 51, 98
3, 148800, Note_on_c, 1, 63, 106
3, 148992, Note_off_c, 1, 63, 64
3, 148992, Note_off_c, 1, 51, 64
3, 149040, Note_on_c, 1, 50, 109
3, 149040, Note_on_c, 1, 62, 110
3, 149232, Note_off_c, 1, 62, 64
3, 149232, Note_off_c, 1, 50, 64
3, 149280, Note_on_c, 1, 48, 107
3, 149280, Note_on_c, 1, 60, 115
3, 149376, Note_off_c, 1, 60, 64
3, 149376, Note_off_c, 1, 48, 64
3, 149400, Note_on_c, 1, 62, 111
3, 149400, Note_on_c, 1, 50, 95
3, 149491, Note_off_c, 1, 50, 64
3, 149500, Note_off_c, 1, 62, 64
3, 150000, Note_on_c, 1, 48, 119
3, 150000, Note_on_c, 1, 60, 112
3, 150192, Note_off_c, 1, 60, 64
3, 150192, Note_off_c, 1, 48, 64
3, 150240, Note_on_c, 1, 48, 111
3, 150240, Note_on_c, 1, 60, 110
3, 150432, Note_off_c, 1, 60, 64
3, 150432, Note_off_c, 1, 48, 64
3, 150480, Note_on_c, 1, 50, 103
3, 150480, Note_on_c, 1, 62, 112
3, 150672, Note_off_c, 1, 62, 64
3, 150672, Note_off_c, 1, 50, 64
3, 150720, Note_on_c, 1, 51, 115
3, 150720, Note_on_c, 1, 63, 109
3, 150912, Note_off_c, 1, 63, 64
3, 150912, Note_off_c, 1, 51, 64
3, 150960, Note_on_c, 1, 53, 109
3, 150960, Note_on_c, 1, 65, 97
3, 151152, Note_off_c, 1, 65, 64
3, 151152, Note_off_c, 1, 53, 64
3, 151200, Note_on_c, 1, 55, 108
3, 151200, Note_on_c, 1, 67, 110
3, 151296, Note_off_c, 1, 67, 64
3, 151296, Note_off_c, 1, 55, 64
3, 151320, Note_on_c, 1, 56, 103
3, 151320, Note_on_c, 1, 68, 116
3, 151420, Note_off_c, 1, 68, 64
3, 151420, Note_off_c, 1, 56, 64
3, 151920, Note_on_c, 1, 48, 110
3, 151920, Note_on_c, 1, 60, 105
3, 152112, Note_off_c, 1, 60, 64
3, 152112, Note_off_c, 1, 48, 64
3, 152160, Note_on_c, 1, 48, 103
3, 152160, Note_on_c, 1, 60, 109
3, 152352, Note_off_c, 1, 60, 64
3, 152352, Note_off_c, 1, 48, 64
3, 152400, Note_on_c, 1, 50, 112
3, 152400, Note_on_c, 1, 62, 109
3, 152592, Note_off_c, 1, 62, 64
3, 152592, Note_off_c, 1, 50, 64
3, 152640, Note_on_c, 1, 51, 110
3, 152640, Note_on_c, 1, 63, 110
3, 152832, Note_off_c, 1, 63, 64
3, 152832, Note_off_c, 1, 51, 64
3, 152880, Note_on_c, 1, 50, 108
3, 152880, Note_on_c, 1, 62, 97
3, 153072, Note_off_c, 1, 62, 64
3, 153072, Note_off_c, 1, 50, 64
3, 153120, Note_on_c, 1, 48, 110
3, 153120, Note_on_c, 1, 60, 118
3, 153216, Note_off_c, 1, 60, 64
3, 153216, Note_off_c, 1, 48, 64
3, 153240, Note_on_c, 1, 50, 109
3, 153240, Note_on_c, 1, 62, 106
3, 153340, Note_off_c, 1, 62, 64
3, 153340, Note_off_c, 1, 50, 64
3, 153600, Note_on_c, 1, 48, 115
3, 153600, Note_on_c, 1, 60, 110
3, 153696, Note_off_c, 1, 60, 64
3, 153696, Note_off_c, 1, 48, 64
3, 153720, Note_on_c, 1, 48, 124
3, 153720, Note_on_c, 1, 60, 104
3, 153816, Note_off_c, 1, 60, 64
3, 153816, Note_off_c, 1, 48, 64
3, 153840, Note_on_c, 1, 48, 110
3, 153840, Note_on_c, 1, 60, 99
3, 154032, Note_off_c, 1, 60, 64
3, 154032, Note_off_c, 1, 48, 64
3, 154080, Note_on_c, 1, 48, 110
3, 154080, Note_on_c, 1, 60, 103
3, 154272, Note_off_c, 1, 60, 64
3, 154272, Note_off_c, 1, 48, 64
3, 154320, Note_on_c, 1, 48, 106
3, 154320, Note_on_c, 1, 60, 110
3, 154416, Note_off_c, 1, 60, 64
3, 154416, Note_off_c, 1, 48, 64
3, 154440, Note_on_c, 1, 48, 110
3, 154440, Note_on_c, 1, 60, 117
3, 154536, Note_off_c, 1, 60, 64
3, 154536, Note_off_c, 1, 48, 64
3, 154560, Note_on_c, 1, 48, 109
3, 154560, Note_on_c, 1, 60, 124
3, 154752, Note_off_c, 1, 60, 64
3, 154752, Note_off_c, 1, 48, 64
3, 154800, Note_on_c, 1, 48, 112
3, 154800, Note_on_c, 1, 60, 121
3, 155020, Note_off_c, 1, 60, 64
3, 155020, Note_off_c, 1, 48, 64
3, 155280, Note_on_c, 1, 53, 110
3, 155280, Note_on_c, 1, 65, 118
3, 155472, Note_off_c, 1, 65, 64
3, 155472, Note_off_c, 1, 53, 64
3, 155520, Note_on_c, 1, 51, 97
3, 155520, Note_on_c, 1, 63, 110
3, 155712, Note_off_c, 1, 63, 64
3, 155712, Note_off_c, 1, 51, 64
3, 155760, Note_on_c, 1, 46, 118
3, 155760, Note_on_c, 1, 51, 111
3, 155760, Note_on_c, 1, 55, 121
3, 155856, Note_off_c, 1, 55, 64
3, 155856, Note_off_c, 1, 51, 64
3, 155856, Note_off_c, 1, 46, 64
3, 155880, Note_on_c, 1, 46, 107
3, 155880, Note_on_c, 1, 51, 101
3, 155880, Note_on_c, 1, 55, 102
3, 156072, Note_off_c, 1, 55, 64
3, 156072, Note_off_c, 1, 51, 64
3, 156072, Note_off_c, 1, 46, 64
3, 156120, Note_on_c, 1, 46, 118
3, 156120, Note_on_c, 1, 51, 121
3, 156120, Note_on_c, 1, 55, 110
3, 156312, Note_off_c, 1, 55, 64
3, 156312, Note_off_c, 1, 51, 64
3, 156312, Note_off_c, 1, 46, 64
3, 156360, Note_on_c, 1, 46, 110
3, 156360, Note_on_c, 1, 51, 115
3, 156360, Note_on_c, 1, 55, 100
3, 156552, Note_off_c, 1, 55, 64
3, 156552, Note_off_c, 1, 51, 64
3, 156552, Note_off_c, 1, 46, 64
3, 156600, Note_on_c, 1, 46, 110
3, 156600, Note_on_c, 1, 51, 113
3, 156600, Note_on_c, 1, 55, 124
3, 156792, Note_off_c, 1, 55, 64
3, 156792, Note_off_c, 1, 51, 64
3, 156792, Note_off_c, 1, 46, 64
3, 156840, Note_on_c, 1, 46, 105
3, 156840, Note_on_c, 1, 51, 112
3, 156840, Note_on_c, 1, 55, 106
3, 156936, Note_off_c, 1, 55, 64
3, 156936, Note_off_c, 1, 51, 64
3, 156936, Note_off_c, 1, 46, 64
3, 156960, Note_on_c, 1, 46, 98
3, 156960, Note_on_c, 1, 51, 111
3, 156960, Note_on_c, 1, 55, 99
3, 157152, Note_off_c, 1, 55, 64
3, 157152, Note_off_c, 1, 51, 64
3, 157152, Note_off_c, 1, 46, 64
3, 157200, Note_on_c, 1, 48, 98
3, 157200, Note_on_c, 1, 53, 110
3, 157200, Note_on_c, 1, 57, 108
3, 157296, Note_off_c, 1, 57, 64
3, 157296, Note_off_c, 1, 53, 64
3, 157296, Note_off_c, 1, 48, 64
3, 157320, Note_on_c, 1, 48, 112
3, 157320, Note_on_c, 1, 53, 111
3, 157320, Note_on_c, 1, 57, 112
3, 157420, Note_off_c, 1, 57, 64
3, 157420, Note_off_c, 1, 53, 64
3, 157420, Note_off_c, 1, 48, 64
3, 157680, Note_on_c, 1, 55, 98
3, 157776, Note_off_c, 1, 55, 64
3, 157800, Note_on_c, 1, 56, 110
3, 157896, Note_off_c, 1, 56, 64
3, 157920, Note_on_c, 1, 57, 108
3, 158016, Note_off_c, 1, 57, 64
3, 158040, Note_on_c, 1, 53, 109
3, 158040, Note_on_c, 1, 65, 119
3, 158328, Note_off_c, 1, 65, 64
3, 158328, Note_off_c, 1, 53, 64
3, 158400, Note_on_c, 1, 55, 110
3, 158496, Note_off_c, 1, 55, 64
3, 158520, Note_on_c, 1, 56, 104
3, 158616, Note_off_c, 1, 56, 64
3, 158640, Note_on_c, 1, 57, 110
3, 158736, Note_off_c, 1, 57, 64
3, 158760, Note_on_c, 1, 53, 124
3, 158760, Note_on_c, 1, 65, 97
3, 159336, Note_off_c, 1, 65, 64
3, 159336, Note_off_c, 1, 53, 64
3, 159600, Note_on_c, 1, 46, 110
3, 159600, Note_on_c, 1, 51, 112
3, 159600, Note_on_c, 1, 55, 107
3, 159696, Note_off_c, 1, 55, 64
3, 159696, Note_off_c, 1, 51, 64
3, 159696, Note_off_c, 1, 46, 64
3, 159720, Note_on_c, 1, 46, 116
3, 159720, Note_on_c, 1, 51, 110
3, 159720, Note_on_c, 1, 55, 110
3, 159912, Note_off_c, 1, 55, 64
3, 159912, Note_off_c, 1, 51, 64
3, 159912, Note_off_c, 1, 46, 64
3, 159960, Note_on_c, 1, 46, 105
3, 159960, Note_on_c, 1, 51, 114
3, 159960, Note_on_c, 1, 55, 111
3, 160152, Note_off_c, 1, 55, 64
3, 160152, Note_off_c, 1, 51, 64
3, 160152, Note_off_c, 1, 46, 64
3, 160200, Note_on_c, 1, 46, 124
3, 160200, Note_on_c, 1, 51, 123
3, 160200, Note_on_c, 1, 55, 99
3, 160392, Note_off_c, 1, 55, 64
3, 160392, Note_off_c, 1, 51, 64
3, 160392, Note_off_c, 1, 46, 64
3, 160440, Note_on_c, 1, 46, 125
3, 160440, Note_on_c, 1, 51, 114
3, 160440, Note_on_c, 1, 55, 110
3, 160632, Note_off_c, 1, 55, 64
3, 160632, Note_off_c, 1, 51, 64
3, 160632, Note_off_c, 1, 46, 64
3, 160680, Note_on_c, 1, 46, 113
3, 160680, Note_on_c, 1, 51, 110
3, 160680, Note_on_c, 1, 55, 123
3, 160776, Note_off_c, 1, 55, 64
3, 160776, Note_off_c, 1, 51, 64
3, 160776, Note_off_c, 1, 46, 64
3, 160800, Note_on_c, 1, 46, 115
3, 160800, Note_on_c, 1, 51, 119
3, 160800, Note_on_c, 1, 55, 118
3, 160992, Note_off_c, 1, 55, 64
3, 160992, Note_off_c, 1, 51, 64
3, 160992, Note_off_c, 1, 46, 64
3, 161040, Note_on_c, 1, 48, 113
3, 161040, Note_on_c, 1, 53, 110
3, 161040, Note_on_c, 1, 57, 107
3, 161136, Note_off_c, 1, 57, 64
3, 161136, Note_off_c, 1, 53, 64
3, 161136, Note_off_c, 1, 48, 64
3, 161160, Note_on_c, 1, 48, 114
3, 161160, Note_on_c, 1, 53, 111
3, 161160, Note_on_c, 1, 57, 110
3, 161260, Note_off_c, 1, 57, 64
3, 161260, Note_off_c, 1, 53, 64
3, 161260, Note_off_c, 1, 48, 64
3, 161520, Note_on_c, 1, 55, 103
3, 161616, Note_off_c, 1, 55, 64
3, 161640, Note_on_c, 1, 56, 120
3, 161736, Note_off_c, 1, 56, 64
3, 161760, Note_on_c, 1, 57, 112
3, 161856, Note_off_c, 1, 57, 64
3, 161880, Note_on_c, 1, 53, 120
3, 161880, Note_on_c, 1, 65, 111
3, 162168, Note_off_c, 1, 65, 64
3, 162168, Note_off_c, 1, 53, 64
3, 162240, Note_on_c, 1, 55, 111
3, 162336, Note_off_c, 1, 55, 64
3, 162360, Note_on_c, 1, 56, 110
3, 162456, Note_off_c, 1, 56, 64
3, 162480, Note_on_c, 1, 57, 113
3, 162576, Note_off_c, 1, 57, 64
3, 162600, Note_on_c, 1, 53, 117
3, 162600, Note_on_c, 1, 65, 107
3, 163176, Note_off_c, 1, 65, 64
3, 163176, Note_off_c, 1, 53, 64
3, 163440, Note_on_c, 1, 46, 110
3, 163440, Note_on_c, 1, 51, 111
3, 163440, Note_on_c, 1, 55, 118
3, 163536, Note_off_c, 1, 55, 64
3, 163536, Note_off_c, 1, 51, 64
3, 163536, Note_off_c, 1, 46, 64
3, 163560, Note_on_c, 1, 46, 102
3, 163560, Note_on_c, 1, 51, 101
3, 163560, Note_on_c, 1, 55, 97
3, 163752, Note_off_c, 1, 55, 64
3, 163752, Note_off_c, 1, 51, 64
3, 163752, Note_off_c, 1, 46, 64
3, 163800, Note_on_c, 1, 46, 108
3, 163800, Note_on_c, 1, 51, 105
3, 163800, Note_on_c, 1, 55, 111
3, 163992, Note_off_c, 1, 55, 64
3, 163992, Note_off_c, 1, 51, 64
3, 163992, Note_off_c, 1, 46, 64
3, 164040, Note_on_c, 1, 46, 99
3, 164040, Note_on_c, 1, 51, 115
3, 164040, Note_on_c, 1, 55, 110
3, 164232, Note_off_c, 1, 55, 64
3, 164232, Note_off_c, 1, 51, 64
3, 164232, Note_off_c, 1, 46, 64
3, 164280, Note_on_c, 1, 46, 99
3, 164280, Note_on_c, 1, 51, 110
3, 164280, Note_on_c, 1, 55, 109
3, 164472, Note_off_c, 1, 55, 64
3, 164472, Note_off_c, 1, 51, 64
3, 164472, Note_off_c, 1, 46, 64
3, 164520, Note_on_c, 1, 46, 114
3, 164520, Note_on_c, 1, 51, 117
3, 164520, Note_on_c, 1, 55, 111
3, 164616, Note_off_c, 1, 55, 64
3, 164616, Note_off_c, 1, 51, 64
3, 164616, Note_off_c, 1, 46, 64
3, 164640, Note_on_c, 1, 46, 118
3, 164640, Note_on_c, 1, 51, 105
3, 164640, Note_on_c, 1, 55, 97
3, 164832, Note_off_c, 1, 55, 64
3, 164832, Note_off_c, 1, 51, 64
3, 164832, Note_off_c, 1, 46, 64
3, 164880, Note_on_c, 1, 48, 108
3, 164880, Note_on_c, 1, 53, 120
3, 164880, Note_on_c, 1, 57, 112
3, 164976, Note_off_c, 1, 57, 64
3, 164976, Note_off_c, 1, 53, 64
3, 164976, Note_off_c, 1, 48, 64
3, 165000, Note_on_c, 1, 48, 106
3, 165000, Note_on_c, 1, 53, 106
3, 165000, Note_on_c, 1, 57, 112
3, 165100, Note_off_c, 1, 57, 64
3, 165100, Note_off_c, 1, 53, 64
3, 165100, Note_off_c, 1, 48, 64
3, 165840, Note_on_c, 1, 48, 111
3, 165840, Note_on_c, 1, 53, 109
3, 165840, Note_on_c, 1, 57, 102
3, 165936, Note_off_c, 1, 57, 64
3, 165936, Note_off_c, 1, 53, 64
3, 165936, Note_off_c, 1, 48, 64
3, 165960, Note_on_c, 1, 48, 123
3, 165960, Note_on_c, 1, 53, 110
3, 165960, Note_on_c, 1, 57, 115
3, 166060, Note_off_c, 1, 57, 64
3, 166060, Note_off_c, 1, 53, 64
3, 166060, Note_off_c, 1, 48, 64
3, 166200, Note_on_c, 1, 48, 100
3, 166296, Note_off_c, 1, 48, 64
3, 166320, Note_on_c, 1, 50, 120
3, 166512, Note_off_c, 1, 50, 64
3, 166560, Note_on_c, 1, 53, 110
3, 166944, Note_off_c, 1, 53, 64
3, 167040, Note_on_c, 1, 48, 112
3, 167040, Note_on_c, 1, 53, 107
3, 167040, Note_on_c, 1, 57, 118
3, 167232, Note_off_c, 1, 57, 64
3, 167232, Note_off_c, 1, 53, 64
3, 167232, Note_off_c, 1, 48, 64
3, 167280, Note_on_c, 1, 48, 115
3, 167280, Note_on_c, 1, 53, 107
3, 167280, Note_on_c, 1, 57, 110
3, 167472, Note_off_c, 1, 57, 64
3, 167472, Note_off_c, 1, 53, 64
3, 167472, Note_off_c, 1, 48, 64
3, 167520, Note_on_c, 1, 48, 102
3, 167520, Note_on_c, 1, 53, 100
3, 167520, Note_on_c, 1, 57, 109
3, 167712, Note_off_c, 1, 57, 64
3, 167712, Note_off_c, 1, 53, 64
3, 167712, Note_off_c, 1, 48, 64
3, 167760, Note_on_c, 1, 48, 123
3, 167760, Note_on_c, 1, 53, 110
3, 167760, Note_on_c, 1, 57, 107
3, 167856, Note_off_c, 1, 57, 64
3, 167856, Note_off_c, 1, 53, 64
3, 167856, Note_off_c, 1, 48, 64
3, 167880, Note_on_c, 1, 48, 114
3, 167880, Note_on_c, 1, 53, 111
3, 167880, Note_on_c, 1, 57, 96
3, 167980, Note_off_c, 1, 57, 64
3, 167980, Note_off_c, 1, 53, 64
3, 167980, Note_off_c, 1, 48, 64
3, 167980, End_track
4, 0, Start_track
4, 0, Title_t, "Brass"
4, 0, MIDI_port, 0
4, 0, Channel_prefix, 2
4, 0, Control_c, 2, 7, 107
4, 0, Control_c, 2, 10, 16
4, 0, Program_c, 2, 61
4, 0, Control_c, 2, 121, 0
4, 40, Control_c, 2, 123, 0
4, 80, Control_c, 2, 93, 65
4, 120, Control_c, 2, 91, 45
4, 160, Control_c, 2, 64, 0
4, 21120, Note_on_c, 2, 60, 108
4, 21120, Note_on_c, 2, 65, 123
4, 21120, Note_on_c, 2, 69, 101
4, 23904, Note_off_c, 2, 69, 64
4, 23904, Note_off_c, 2, 65, 64
4, 23904, Note_off_c, 2, 60, 64
4, 24600, Note_on_c, 2, 63, 112
4, 24696, Note_off_c, 2, 63, 64
4, 24720, Note_on_c, 2, 64, 108
4, 24816, Note_off_c, 2, 64, 64
4, 24840, Note_on_c, 2, 57, 111
4, 24840, Note_on_c, 2, 60, 125
4, 24840, Note_on_c, 2, 65, 107
4, 27816, Note_off_c, 2, 65, 64
4, 27816, Note_off_c, 2, 60, 64
4, 27816, Note_off_c, 2, 57, 64
4, 27960, Note_on_c, 2, 67, 110
4, 27960, Note_on_c, 2, 70, 99
4, 27960, Note_on_c, 2, 75, 113
4, 28152, Note_off_c, 2, 75, 64
4, 28152, Note_off_c, 2, 70, 64
4, 28152, Note_off_c, 2, 67, 64
4, 28200, Note_on_c, 2, 67, 110
4, 28200, Note_on_c, 2, 70, 111
4, 28200, Note_on_c, 2, 75, 111
4, 28296, Note_off_c, 2, 75, 64
4, 28296, Note_off_c, 2, 70, 64
4, 28296, Note_off_c, 2, 67, 64
4, 28320, Note_on_c, 2, 65, 105
4, 28320, Note_on_c, 2, 70, 106
4, 28320, Note_on_c, 2, 74, 113
4, 28512, Note_off_c, 2, 74, 64
4, 28512, Note_off_c, 2, 70, 64
4, 28512, Note_off_c, 2, 65, 64
4, 28560, Note_on_c, 2, 65, 103
4, 28560, Note_on_c, 2, 70, 114
4, 28560, Note_on_c, 2, 74, 101
4, 28656, Note_off_c, 2, 74, 64
4, 28656, Note_off_c, 2, 70, 64
4, 28656, Note_off_c, 2, 65, 64
4, 28680, Note_on_c, 2, 65, 111
4, 28680, Note_on_c, 2, 69, 98
4, 28680, Note_on_c, 2, 72, 110
4, 32616, Note_off_c, 2, 72, 64
4, 32616, Note_off_c, 2, 69, 64
4, 32616, Note_off_c, 2, 65, 64
4, 32640, Note_on_c, 2, 60, 104
4, 32640, Note_on_c, 2, 65, 119
4, 32640, Note_on_c, 2, 69, 109
4, 35328, Note_off_c, 2, 69, 64
4, 35328, Note_off_c, 2, 65, 64
4, 35328, Note_off_c, 2, 60, 64
4, 36000, Note_on_c, 2, 60, 98
4, 36000, Note_on_c, 2, 63, 110
4, 36000, Note_on_c, 2, 68, 110
4, 36384, Note_off_c, 2, 68, 64
4, 36384, Note_off_c, 2, 63, 64
4, 36384, Note_off_c, 2, 60, 64
4, 36480, Note_on_c, 2, 61, 115
4, 36480, Note_on_c, 2, 65, 110
4, 36864, Note_off_c, 2, 65, 64
4, 36864, Note_off_c, 2, 61, 64
4, 36960, Note_on_c, 2, 61, 115
4, 36960, Note_on_c, 2, 65, 106
4, 37344, Note_off_c, 2, 65, 64
4, 37344, Note_off_c, 2, 61, 64
4, 37440, Note_on_c, 2, 63, 122
4, 37440, Note_on_c, 2, 68, 106
4, 37728, Note_off_c, 2, 68, 64
4, 37728, Note_off_c, 2, 63, 64
4, 37800, Note_on_c, 2, 60, 107
4, 37800, Note_on_c, 2, 63, 119
4, 38280, Note_off_c, 2, 63, 64
4, 38280, Note_off_c, 2, 60, 64
4, 38400, Note_on_c, 2, 63, 99
4, 38592, Note_off_c, 2, 63, 64
4, 38640, Note_on_c, 2, 67, 121
4, 38832, Note_off_c, 2, 67, 64
4, 38880, Note_on_c, 2, 63, 124
4, 38880, Note_on_c, 2, 67, 110
4, 39648, Note_off_c, 2, 67, 64
4, 39648, Note_off_c, 2, 63, 64
4, 39840, Note_on_c, 2, 63, 122
4, 39840, Note_on_c, 2, 67, 120
4, 40224, Note_off_c, 2, 67, 64
4, 40224, Note_off_c, 2, 63, 64
4, 40320, Note_on_c, 2, 61, 111
4, 40320, Note_on_c, 2, 65, 106
4, 40704, Note_off_c, 2, 65, 64
4, 40704, Note_off_c, 2, 61, 64
4, 40800, Note_on_c, 2, 61, 112
4, 40800, Note_on_c, 2, 65, 107
4, 41184, Note_off_c, 2, 65, 64
4, 41184, Note_off_c, 2, 61, 64
4, 41280, Note_on_c, 2, 63, 112
4, 41280, Note_on_c, 2, 68, 102
4, 41568, Note_off_c, 2, 68, 64
4, 41568, Note_off_c, 2, 63, 64
4, 41640, Note_on_c, 2, 60, 102
4, 41640, Note_on_c, 2, 63, 122
4, 42120, Note_off_c, 2, 63, 64
4, 42120, Note_off_c, 2, 60, 64
4, 42240, Note_on_c, 2, 63, 109
4, 42432, Note_off_c, 2, 63, 64
4, 42480, Note_on_c, 2, 67, 112
4, 42672, Note_off_c, 2, 67, 64
4, 42720, Note_on_c, 2, 63, 120
4, 42720, Note_on_c, 2, 67, 98
4, 43180, Note_off_c, 2, 67, 64
4, 43180, Note_off_c, 2, 63, 64
4, 43560, Note_on_c, 2, 67, 111
4, 43560, Note_on_c, 2, 70, 99
4, 44040, Note_off_c, 2, 70, 64
4, 44040, Note_off_c, 2, 67, 64
4, 44160, Note_on_c, 2, 61, 95
4, 44160, Note_on_c, 2, 65, 117
4, 44544, Note_off_c, 2, 65, 64
4, 44544, Note_off_c, 2, 61, 64
4, 44640, Note_on_c, 2, 61, 111
4, 44640, Note_on_c, 2, 65, 110
4, 45024, Note_off_c, 2, 65, 64
4, 45024, Note_off_c, 2, 61, 64
4, 45120, Note_on_c, 2, 63, 124
4, 45120, Note_on_c, 2, 68, 119
4, 45408, Note_off_c, 2, 68, 64
4, 45408, Note_off_c, 2, 63, 64
4, 45480, Note_on_c, 2, 60, 112
4, 45480, Note_on_c, 2, 63, 112
4, 45960, Note_off_c, 2, 63, 64
4, 45960, Note_off_c, 2, 60, 64
4, 46080, Note_on_c, 2, 63, 112
4, 46272, Note_off_c, 2, 63, 64
4, 46320, Note_on_c, 2, 67, 105
4, 46512, Note_off_c, 2, 67, 64
4, 46560, Note_on_c, 2, 67, 110
4, 46944, Note_off_c, 2, 67, 64
4, 47040, Note_on_c, 2, 63, 106
4, 47040, Note_on_c, 2, 67, 108
4, 47232, Note_off_c, 2, 67, 64
4, 47232, Note_off_c, 2, 63, 64
4, 47280, Note_on_c, 2, 63, 111
4, 47280, Note_on_c, 2, 67, 115
4, 47376, Note_off_c, 2, 67, 64
4, 47376, Note_off_c, 2, 63, 64
4, 47400, Note_on_c, 2, 65, 116
4, 47400, Note_on_c, 2, 69, 108
4, 47980, Note_off_c, 2, 69, 64
4, 47980, Note_off_c, 2, 65, 64
4, 55680, Note_on_c, 2, 65, 110
4, 55680, Note_on_c, 2, 69, 109
4, 58080, Note_off_c, 2, 69, 64
4, 58080, Note_off_c, 2, 65, 64
4, 58680, Note_on_c, 2, 68, 121
4, 58776, Note_off_c, 2, 68, 64
4, 58800, Note_on_c, 2, 69, 107
4, 58896, Note_off_c, 2, 69, 64
4, 58920, Note_on_c, 2, 62, 110
4, 58920, Note_on_c, 2, 70, 109
4, 59016, Note_off_c, 2, 70, 64
4, 59016, Note_off_c, 2, 62, 64
4, 59040, Note_on_c, 2, 69, 112
4, 59136, Note_off_c, 2, 69, 64
4, 59160, Note_on_c, 2, 65, 109
4, 59256, Note_off_c, 2, 65, 64
4, 59280, Note_on_c, 2, 62, 110
4, 59376, Note_off_c, 2, 62, 64
4, 59400, Note_on_c, 2, 60, 116
4, 59496, Note_off_c, 2, 60, 64
4, 59520, Note_on_c, 2, 65, 121
4, 59520, Note_on_c, 2, 69, 110
4, 61920, Note_off_c, 2, 69, 64
4, 61920, Note_off_c, 2, 65, 64
4, 62520, Note_on_c, 2, 67, 108
4, 62520, Note_on_c, 2, 70, 112
4, 62520, Note_on_c, 2, 75, 109
4, 62712, Note_off_c, 2, 75, 64
4, 62712, Note_off_c, 2, 70, 64
4, 62712, Note_off_c, 2, 67, 64
4, 62760, Note_on_c, 2, 67, 100
4, 62760, Note_on_c, 2, 70, 114
4, 62760, Note_on_c, 2, 75, 113
4, 62856, Note_off_c, 2, 75, 64
4, 62856, Note_off_c, 2, 70, 64
4, 62856, Note_off_c, 2, 67, 64
4, 62880, Note_on_c, 2, 65, 107
4, 62880, Note_on_c, 2, 70, 124
4, 62880, Note_on_c, 2, 74, 109
4, 63072, Note_off_c, 2, 74, 64
4, 63072, Note_off_c, 2, 70, 64
4, 63072, Note_off_c, 2, 65, 64
4, 63120, Note_on_c, 2, 65, 111
4, 63120, Note_on_c, 2, 70, 115
4, 63120, Note_on_c, 2, 74, 123
4, 63216, Note_off_c, 2, 74, 64
4, 63216, Note_off_c, 2, 70, 64
4, 63216, Note_off_c, 2, 65, 64
4, 63240, Note_on_c, 2, 65, 121
4, 63240, Note_on_c, 2, 69, 97
4, 63240, Note_on_c, 2, 72, 110
4, 67176, Note_off_c, 2, 72, 64
4, 67176, Note_off_c, 2, 69, 64
4, 67176, Note_off_c, 2, 65, 64
4, 67200, Note_on_c, 2, 65, 117
4, 67200, Note_on_c, 2, 69, 109
4, 67200, Note_on_c, 2, 72, 96
4, 69888, Note_off_c, 2, 72, 64
4, 69888, Note_off_c, 2, 69, 64
4, 69888, Note_off_c, 2, 65, 64
4, 70560, Note_on_c, 2, 60, 114
4, 70560, Note_on_c, 2, 63, 112
4, 70560, Note_on_c, 2, 68, 110
4, 70944, Note_off_c, 2, 68, 64
4, 70944, Note_off_c, 2, 63, 64
4, 70944, Note_off_c, 2, 60, 64
4, 71040, Note_on_c, 2, 61, 120
4, 71040, Note_on_c, 2, 65, 108
4, 71424, Note_off_c, 2, 65, 64
4, 71424, Note_off_c, 2, 61, 64
4, 71520, Note_on_c, 2, 61, 109
4, 71520, Note_on_c, 2, 65, 111
4, 71904, Note_off_c, 2, 65, 64
4, 71904, Note_off_c, 2, 61, 64
4, 72000, Note_on_c, 2, 63, 118
4, 72000, Note_on_c, 2, 68, 118
4, 72288, Note_off_c, 2, 68, 64
4, 72288, Note_off_c, 2, 63, 64
4, 72360, Note_on_c, 2, 60, 115
4, 72360, Note_on_c, 2, 63, 110
4, 72840, Note_off_c, 2, 63, 64
4, 72840, Note_off_c, 2, 60, 64
4, 72960, Note_on_c, 2, 63, 111
4, 73152, Note_off_c, 2, 63, 64
4, 73200, Note_on_c, 2, 67, 109
4, 73392, Note_off_c, 2, 67, 64
4, 73440, Note_on_c, 2, 63, 97
4, 73440, Note_on_c, 2, 67, 111
4, 74208, Note_off_c, 2, 67, 64
4, 74208, Note_off_c, 2, 63, 64
4, 74400, Note_on_c, 2, 63, 118
4, 74400, Note_on_c, 2, 67, 124
4, 74784, Note_off_c, 2, 67, 64
4, 74784, Note_off_c, 2, 63, 64
4, 74880, Note_on_c, 2, 61, 113
4, 74880, Note_on_c, 2, 65, 109
4, 75264, Note_off_c, 2, 65, 64
4, 75264, Note_off_c, 2, 61, 64
4, 75360, Note_on_c, 2, 61, 120
4, 75360, Note_on_c, 2, 65, 104
4, 75744, Note_off_c, 2, 65, 64
4, 75744, Note_off_c, 2, 61, 64
4, 75840, Note_on_c, 2, 63, 102
4, 75840, Note_on_c, 2, 68, 104
4, 76128, Note_off_c, 2, 68, 64
4, 76128, Note_off_c, 2, 63, 64
4, 76200, Note_on_c, 2, 60, 116
4, 76200, Note_on_c, 2, 63, 109
4, 76680, Note_off_c, 2, 63, 64
4, 76680, Note_off_c, 2, 60, 64
4, 76800, Note_on_c, 2, 63, 117
4, 76992, Note_off_c, 2, 63, 64
4, 77040, Note_on_c, 2, 67, 110
4, 77232, Note_off_c, 2, 67, 64
4, 77280, Note_on_c, 2, 63, 109
4, 77280, Note_on_c, 2, 67, 110
4, 77740, Note_off_c, 2, 67, 64
4, 77740, Note_off_c, 2, 63, 64
4, 78120, Note_on_c, 2, 67, 114
4, 78120, Note_on_c, 2, 70, 108
4, 78600, Note_off_c, 2, 70, 64
4, 78600, Note_off_c, 2, 67, 64
4, 78720, Note_on_c, 2, 61, 110
4, 78720, Note_on_c, 2, 65, 108
4, 79104, Note_off_c, 2, 65, 64
4, 79104, Note_off_c, 2, 61, 64
4, 79200, Note_on_c, 2, 61, 114
4, 79200, Note_on_c, 2, 65, 99
4, 79584, Note_off_c, 2, 65, 64
4, 79584, Note_off_c, 2, 61, 64
4, 79680, Note_on_c, 2, 63, 97
4, 79680, Note_on_c, 2, 68, 98
4, 79968, Note_off_c, 2, 68, 64
4, 79968, Note_off_c, 2, 63, 64
4, 80040, Note_on_c, 2, 60, 111
4, 80040, Note_on_c, 2, 63, 110
4, 80520, Note_off_c, 2, 63, 64
4, 80520, Note_off_c, 2, 60, 64
4, 80640, Note_on_c, 2, 63, 106
4, 80832, Note_off_c, 2, 63, 64
4, 80880, Note_on_c, 2, 67, 112
4, 81072, Note_off_c, 2, 67, 64
4, 81120, Note_on_c, 2, 67, 110
4, 81504, Note_off_c, 2, 67, 64
4, 81600, Note_on_c, 2, 63, 123
4, 81600, Note_on_c, 2, 67, 112
4, 81792, Note_off_c, 2, 67, 64
4, 81792, Note_off_c, 2, 63, 64
4, 81840, Note_on_c, 2, 63, 101
4, 81840, Note_on_c, 2, 67, 110
4, 81936, Note_off_c, 2, 67, 64
4, 81936, Note_off_c, 2, 63, 64
4, 81960, Note_on_c, 2, 65, 125
4, 81960, Note_on_c, 2, 69, 105
4, 82540, Note_off_c, 2, 69, 64
4, 82540, Note_off_c, 2, 65, 64
4, 103680, Note_on_c, 2, 61, 112
4, 103680, Note_on_c, 2, 65, 105
4, 104064, Note_off_c, 2, 65, 64
4, 104064, Note_off_c, 2, 61, 64
4, 104160, Note_on_c, 2, 61, 114
4, 104160, Note_on_c, 2, 65, 125
4, 104544, Note_off_c, 2, 65, 64
4, 104544, Note_off_c, 2, 61, 64
4, 104640, Note_on_c, 2, 63, 107
4, 104640, Note_on_c, 2, 68, 109
4, 104928, Note_off_c, 2, 68, 64
4, 104928, Note_off_c, 2, 63, 64
4, 105000, Note_on_c, 2, 60, 110
4, 105000, Note_on_c, 2, 63, 96
4, 105480, Note_off_c, 2, 63, 64
4, 105480, Note_off_c, 2, 60, 64
4, 105600, Note_on_c, 2, 63, 111
4, 105792, Note_off_c, 2, 63, 64
4, 105840, Note_on_c, 2, 67, 110
4, 106032, Note_off_c, 2, 67, 64
4, 106080, Note_on_c, 2, 63, 103
4, 106080, Note_on_c, 2, 67, 97
4, 106848, Note_off_c, 2, 67, 64
4, 106848, Note_off_c, 2, 63, 64
4, 107040, Note_on_c, 2, 63, 110
4, 107040, Note_on_c, 2, 67, 116
4, 107424, Note_off_c, 2, 67, 64
4, 107424, Note_off_c, 2, 63, 64
4, 107520, Note_on_c, 2, 61, 108
4, 107520, Note_on_c, 2, 65, 108
4, 107904, Note_off_c, 2, 65, 64
4, 107904, Note_off_c, 2, 61, 64
4, 108000, Note_on_c, 2, 61, 99
4, 108000, Note_on_c, 2, 65, 107
4, 108384, Note_off_c, 2, 65, 64
4, 108384, Note_off_c, 2, 61, 64
4, 108480, Note_on_c, 2, 63, 96
4, 108480, Note_on_c, 2, 68, 111
4, 108768, Note_off_c, 2, 68, 64
4, 108768, Note_off_c, 2, 63, 64
4, 108840, Note_on_c, 2, 60, 118
4, 108840, Note_on_c, 2, 63, 109
4, 109320, Note_off_c, 2, 63, 64
4, 109320, Note_off_c, 2, 60, 64
4, 109440, Note_on_c, 2, 63, 110
4, 109632, Note_off_c, 2, 63, 64
4, 109680, Note_on_c, 2, 67, 118
4, 109872, Note_off_c, 2, 67, 64
4, 109920, Note_on_c, 2, 63, 113
4, 109920, Note_on_c, 2, 67, 112
4, 110380, Note_off_c, 2, 67, 64
4, 110380, Note_off_c, 2, 63, 64
4, 110760, Note_on_c, 2, 67, 111
4, 110760, Note_on_c, 2, 70, 98
4, 111240, Note_off_c, 2, 70, 64
4, 111240, Note_off_c, 2, 67, 64
4, 111360, Note_on_c, 2, 61, 103
4, 111360, Note_on_c, 2, 65, 110
4, 111744, Note_off_c, 2, 65, 64
4, 111744, Note_off_c, 2, 61, 64
4, 111840, Note_on_c, 2, 61, 104
4, 111840, Note_on_c, 2, 65, 97
4, 112224, Note_off_c, 2, 65, 64
4, 112224, Note_off_c, 2, 61, 64
4, 112320, Note_on_c, 2, 63, 116
4, 112320, Note_on_c, 2, 68, 118
4, 112608, Note_off_c, 2, 68, 64
4, 112608, Note_off_c, 2, 63, 64
4, 112680, Note_on_c, 2, 60, 99
4, 112680, Note_on_c, 2, 63, 115
4, 113160, Note_off_c, 2, 63, 64
4, 113160, Note_off_c, 2, 60, 64
4, 113280, Note_on_c, 2, 63, 115
4, 113472, Note_off_c, 2, 63, 64
4, 113520, Note_on_c, 2, 67, 110
4, 113712, Note_off_c, 2, 67, 64
4, 113760, Note_on_c, 2, 67, 99
4, 114144, Note_off_c, 2, 67, 64
4, 114240, Note_on_c, 2, 63, 108
4, 114240, Note_on_c, 2, 67, 110
4, 114432, Note_off_c, 2, 67, 64
4, 114432, Note_off_c, 2, 63, 64
4, 114480, Note_on_c, 2, 63, 102
4, 114480, Note_on_c, 2, 67, 114
4, 114576, Note_off_c, 2, 67, 64
4, 114576, Note_off_c, 2, 63, 64
4, 114600, Note_on_c, 2, 65, 109
4, 114600, Note_on_c, 2, 69, 110
4, 115180, Note_off_c, 2, 69, 64
4, 115180, Note_off_c, 2, 65, 64
4, 136320, Note_on_c, 2, 61, 110
4, 136320, Note_on_c, 2, 65, 101
4, 136704, Note_off_c, 2, 65, 64
4, 136704, Note_off_c, 2, 61, 64
4, 136800, Note_on_c, 2, 61, 104
4, 136800, Note_on_c, 2, 65, 99
4, 137184, Note_off_c, 2, 65, 64
4, 137184, Note_off_c, 2, 61, 64
4, 137280, Note_on_c, 2, 63, 107
4, 137280, Note_on_c, 2, 68, 101
4, 137568, Note_off_c, 2, 68, 64
4, 137568, Note_off_c, 2, 63, 64
4, 137640, Note_on_c, 2, 60, 109
4, 137640, Note_on_c, 2, 63, 110
4, 138120, Note_off_c, 2, 63, 64
4, 138120, Note_off_c, 2, 60, 64
4, 138240, Note_on_c, 2, 63, 110
4, 138432, Note_off_c, 2, 63, 64
4, 138480, Note_on_c, 2, 67, 118
4, 138672, Note_off_c, 2, 67, 64
4, 138720, Note_on_c, 2, 63, 110
4, 138720, Note_on_c, 2, 67, 124
4, 139488, Note_off_c, 2, 67, 64
4, 139488, Note_off_c, 2, 63, 64
4, 139680, Note_on_c, 2, 63, 114
4, 139680, Note_on_c, 2, 67, 106
4, 140064, Note_off_c, 2, 67, 64
4, 140064, Note_off_c, 2, 63, 64
4, 140160, Note_on_c, 2, 61, 110
4, 140160, Note_on_c, 2, 65, 111
4, 140544, Note_off_c, 2, 65, 64
4, 140544, Note_off_c, 2, 61, 64
4, 140640, Note_on_c, 2, 61, 109
4, 140640, Note_on_c, 2, 65, 114
4, 141024, Note_off_c, 2, 65, 64
4, 141024, Note_off_c, 2, 61, 64
4, 141120, Note_on_c, 2, 63, 104
4, 141120, Note_on_c, 2, 68, 103
4, 141408, Note_off_c, 2, 68, 64
4, 141408, Note_off_c, 2, 63, 64
4, 141480, Note_on_c, 2, 60, 108
4, 141480, Note_on_c, 2, 63, 116
4, 141960, Note_off_c, 2, 63, 64
4, 141960, Note_off_c, 2, 60, 64
4, 142080, Note_on_c, 2, 63, 122
4, 142272, Note_off_c, 2, 63, 64
4, 142320, Note_on_c, 2, 67, 123
4, 142512, Note_off_c, 2, 67, 64
4, 142560, Note_on_c, 2, 63, 110
4, 142560, Note_on_c, 2, 67, 111
4, 143020, Note_off_c, 2, 67, 64
4, 143020, Note_off_c, 2, 63, 64
4, 143400, Note_on_c, 2, 67, 107
4, 143400, Note_on_c, 2, 70, 103
4, 143880, Note_off_c, 2, 70, 64
4, 143880, Note_off_c, 2, 67, 64
4, 144000, Note_on_c, 2, 61, 108
4, 144000, Note_on_c, 2, 65, 105
4, 144384, Note_off_c, 2, 65, 64
4, 144384, Note_off_c, 2, 61, 64
4, 144480, Note_on_c, 2, 61, 112
4, 144480, Note_on_c, 2, 65, 110
4, 144864, Note_off_c, 2, 65, 64
4, 144864, Note_off_c, 2, 61, 64
4, 144960, Note_on_c, 2, 63, 114
4, 144960, Note_on_c, 2, 68, 102
4, 145248, Note_off_c, 2, 68, 64
4, 145248, Note_off_c, 2, 63, 64
4, 145320, Note_on_c, 2, 60, 124
4, 145320, Note_on_c, 2, 63, 121
4, 145800, Note_off_c, 2, 63, 64
4, 145800, Note_off_c, 2, 60, 64
4, 145920, Note_on_c, 2, 63, 119
4, 146112, Note_off_c, 2, 63, 64
4, 146160, Note_on_c, 2, 67, 110
4, 146352, Note_off_c, 2, 67, 64
4, 146400, Note_on_c, 2, 67, 120
4, 146784, Note_off_c, 2, 67, 64
4, 146880, Note_on_c, 2, 63, 110
4, 146880, Note_on_c, 2, 67, 115
4, 147072, Note_off_c, 2, 67, 64
4, 147072, Note_off_c, 2, 63, 64
4, 147120, Note_on_c, 2, 63, 112
4, 147120, Note_on_c, 2, 67, 110
4, 147216, Note_off_c, 2, 67, 64
4, 147216, Note_off_c, 2, 63, 64
4, 147240, Note_on_c, 2, 65, 101
4, 147240, Note_on_c, 2, 69, 107
4, 147820, Note_off_c, 2, 69, 64
4, 147820, Note_off_c, 2, 65, 64
4, 147820, End_track
5, 0, Start_track
5, 0, Title_t, "Piano   "
5, 0, MIDI_port, 0
5, 0, Channel_prefix, 3
5, 0, Control_c, 3, 7, 102
5, 0, Control_c, 3, 10, 112
5, 0, Program_c, 3, 1
5, 0, Control_c, 3, 121, 0
5, 40, Control_c, 3, 123, 0
5, 80, Control_c, 3, 93, 65
5, 120, Control_c, 3, 91, 45
5, 160, Control_c, 3, 64, 0
5, 21120, Note_on_c, 3, 65, 95
5, 21120, Note_on_c, 3, 60, 95
5, 21120, Note_on_c, 3, 57, 95
5, 24892, Note_off_c, 3, 57, 64
5, 24892, Note_off_c, 3, 60, 64
5, 24892, Note_off_c, 3, 65, 64
5, 24960, Note_on_c, 3, 72, 82
5, 24960, Note_on_c, 3, 69, 89
5, 24960, Note_on_c, 3, 65, 89
5, 27680, Note_off_c, 3, 65, 64
5, 27840, Note_on_c, 3, 65, 102
5, 27868, Note_off_c, 3, 65, 64
5, 28032, Note_off_c, 3, 69, 64
5, 28080, Note_on_c, 3, 65, 102
5, 28320, Note_on_c, 3, 69, 100
5, 28376, Note_off_c, 3, 72, 64
5, 28560, Note_on_c, 3, 72, 89
5, 28692, Note_off_c, 3, 72, 64
5, 28724, Note_off_c, 3, 69, 64
5, 28736, Note_off_c, 3, 65, 64
5, 28800, Note_on_c, 3, 65, 95
5, 28800, Note_on_c, 3, 60, 95
5, 28800, Note_on_c, 3, 57, 95
5, 32572, Note_off_c, 3, 57, 64
5, 32572, Note_off_c, 3, 60, 64
5, 32572, Note_off_c, 3, 65, 64
5, 32640, Note_on_c, 3, 65, 100
5, 32640, Note_on_c, 3, 60, 100
5, 32640, Note_on_c, 3, 57, 100
5, 33840, Note_on_c, 3, 53, 80
5, 33948, Note_off_c, 3, 57, 64
5, 33948, Note_off_c, 3, 60, 64
5, 33948, Note_off_c, 3, 65, 64
5, 34076, Note_off_c, 3, 53, 64
5, 34080, Note_on_c, 3, 65, 98
5, 34080, Note_on_c, 3, 60, 98
5, 34080, Note_on_c, 3, 57, 98
5, 34344, Note_off_c, 3, 57, 64
5, 34344, Note_off_c, 3, 60, 64
5, 34344, Note_off_c, 3, 65, 64
5, 34560, Note_on_c, 3, 72, 89
5, 34560, Note_on_c, 3, 65, 78
5, 34560, Note_on_c, 3, 69, 93
5, 35484, Note_off_c, 3, 65, 64
5, 35488, Note_off_c, 3, 72, 64
5, 35488, Note_off_c, 3, 69, 64
5, 36044, Note_on_c, 3, 63, 105
5, 36044, Note_on_c, 3, 60, 105
5, 36044, Note_on_c, 3, 56, 105
5, 36480, Note_off_c, 3, 56, 64
5, 36480, Note_off_c, 3, 60, 64
5, 36480, Note_off_c, 3, 63, 64
5, 36480, Note_on_c, 3, 77, 89
5, 36480, Note_on_c, 3, 80, 78
5, 36480, Note_on_c, 3, 73, 91
5, 36480, Note_on_c, 3, 68, 93
5, 36536, Note_off_c, 3, 73, 64
5, 36544, Note_off_c, 3, 68, 64
5, 36548, Note_off_c, 3, 77, 64
5, 36552, Note_off_c, 3, 80, 64
5, 36600, Note_on_c, 3, 77, 76
5, 36600, Note_on_c, 3, 73, 76
5, 36600, Note_on_c, 3, 80, 68
5, 36600, Note_on_c, 3, 68, 80
5, 36652, Note_off_c, 3, 73, 64
5, 36656, Note_off_c, 3, 68, 64
5, 36664, Note_off_c, 3, 77, 64
5, 36668, Note_off_c, 3, 80, 64
5, 36720, Note_on_c, 3, 80, 70
5, 36720, Note_on_c, 3, 77, 76
5, 36720, Note_on_c, 3, 68, 78
5, 36720, Note_on_c, 3, 73, 76
5, 36768, Note_off_c, 3, 73, 64
5, 36772, Note_off_c, 3, 68, 64
5, 36776, Note_off_c, 3, 77, 64
5, 36784, Note_off_c, 3, 80, 64
5, 36840, Note_on_c, 3, 77, 98
5, 36840, Note_on_c, 3, 80, 87
5, 36840, Note_on_c, 3, 73, 95
5, 36840, Note_on_c, 3, 68, 91
5, 36948, Note_off_c, 3, 73, 64
5, 36948, Note_off_c, 3, 77, 64
5, 36952, Note_off_c, 3, 80, 64
5, 36964, Note_off_c, 3, 68, 64
5, 37080, Note_on_c, 3, 77, 87
5, 37080, Note_on_c, 3, 80, 80
5, 37080, Note_on_c, 3, 73, 91
5, 37080, Note_on_c, 3, 68, 89
5, 37180, Note_off_c, 3, 73, 64
5, 37188, Note_off_c, 3, 77, 64
5, 37188, Note_off_c, 3, 68, 64
5, 37200, Note_off_c, 3, 80, 64
5, 37320, Note_on_c, 3, 77, 80
5, 37320, Note_on_c, 3, 80, 66
5, 37320, Note_on_c, 3, 73, 80
5, 37320, Note_on_c, 3, 68, 80
5, 37356, Note_off_c, 3, 68, 64
5, 37360, Note_off_c, 3, 73, 64
5, 37364, Note_off_c, 3, 77, 64
5, 37372, Note_off_c, 3, 80, 64
5, 37452, Note_on_c, 3, 92, 74
5, 37452, Note_on_c, 3, 87, 74
5, 37452, Note_on_c, 3, 84, 78
5, 37452, Note_on_c, 3, 80, 87
5, 37520, Note_off_c, 3, 84, 64
5, 37524, Note_off_c, 3, 87, 64
5, 37524, Note_off_c, 3, 80, 64
5, 37528, Note_off_c, 3, 92, 64
5, 37568, Note_on_c, 3, 92, 70
5, 37568, Note_on_c, 3, 84, 72
5, 37568, Note_on_c, 3, 87, 70
5, 37572, Note_on_c, 3, 80, 66
5, 37616, Note_off_c, 3, 84, 64
5, 37620, Note_off_c, 3, 87, 64
5, 37620, Note_off_c, 3, 80, 64
5, 37632, Note_off_c, 3, 92, 64
5, 37676, Note_on_c, 3, 87, 68
5, 37676, Note_on_c, 3, 84, 74
5, 37680, Note_on_c, 3, 92, 63
5, 37692, Note_on_c, 3, 80, 66
5, 37740, Note_off_c, 3, 80, 64
5, 37744, Note_off_c, 3, 84, 64
5, 37752, Note_off_c, 3, 87, 64
5, 37760, Note_off_c, 3, 92, 64
5, 37820, Note_on_c, 3, 87, 80
5, 37820, Note_on_c, 3, 92, 70
5, 37820, Note_on_c, 3, 84, 78
5, 37824, Note_on_c, 3, 80, 78
5, 37908, Note_off_c, 3, 80, 64
5, 37908, Note_off_c, 3, 84, 64
5, 37908, Note_off_c, 3, 87, 64
5, 37912, Note_off_c, 3, 92, 64
5, 38048, Note_on_c, 3, 87, 87
5, 38048, Note_on_c, 3, 84, 78
5, 38048, Note_on_c, 3, 80, 64
5, 38048, Note_on_c, 3, 92, 76
5, 38132, Note_off_c, 3, 80, 64
5, 38132, Note_off_c, 3, 84, 64
5, 38136, Note_off_c, 3, 87, 64
5, 38144, Note_off_c, 3, 92, 64
5, 38276, Note_on_c, 3, 44, 60
5, 38344, Note_off_c, 3, 44, 64
5, 38412, Note_on_c, 3, 87, 74
5, 38412, Note_on_c, 3, 82, 74
5, 38412, Note_on_c, 3, 79, 78
5, 38412, Note_on_c, 3, 75, 87
5, 38480, Note_off_c, 3, 79, 64
5, 38484, Note_off_c, 3, 82, 64
5, 38484, Note_off_c, 3, 75, 64
5, 38488, Note_off_c, 3, 87, 64
5, 38528, Note_on_c, 3, 87, 70
5, 38528, Note_on_c, 3, 79, 72
5, 38528, Note_on_c, 3, 82, 70
5, 38532, Note_on_c, 3, 75, 66
5, 38576, Note_off_c, 3, 79, 64
5, 38580, Note_off_c, 3, 82, 64
5, 38580, Note_off_c, 3, 75, 64
5, 38592, Note_off_c, 3, 87, 64
5, 38636, Note_on_c, 3, 82, 68
5, 38636, Note_on_c, 3, 79, 74
5, 38640, Note_on_c, 3, 87, 63
5, 38652, Note_on_c, 3, 75, 66
5, 38700, Note_off_c, 3, 75, 64
5, 38704, Note_off_c, 3, 79, 64
5, 38712, Note_off_c, 3, 82, 64
5, 38720, Note_off_c, 3, 87, 64
5, 38780, Note_on_c, 3, 82, 80
5, 38780, Note_on_c, 3, 87, 70
5, 38780, Note_on_c, 3, 79, 78
5, 38784, Note_on_c, 3, 75, 78
5, 38868, Note_off_c, 3, 75, 64
5, 38868, Note_off_c, 3, 79, 64
5, 38868, Note_off_c, 3, 82, 64
5, 38872, Note_off_c, 3, 87, 64
5, 39008, Note_on_c, 3, 82, 87
5, 39008, Note_on_c, 3, 79, 78
5, 39008, Note_on_c, 3, 75, 64
5, 39008, Note_on_c, 3, 87, 76
5, 39092, Note_off_c, 3, 75, 64
5, 39092, Note_off_c, 3, 79, 64
5, 39096, Note_off_c, 3, 82, 64
5, 39104, Note_off_c, 3, 87, 64
5, 39236, Note_on_c, 3, 51, 60
5, 39304, Note_off_c, 3, 51, 64
5, 39360, Note_on_c, 3, 82, 89
5, 39360, Note_on_c, 3, 87, 78
5, 39360, Note_on_c, 3, 79, 91
5, 39360, Note_on_c, 3, 75, 93
5, 39416, Note_off_c, 3, 79, 64
5, 39424, Note_off_c, 3, 75, 64
5, 39428, Note_off_c, 3, 82, 64
5, 39432, Note_off_c, 3, 87, 64
5, 39480, Note_on_c, 3, 82, 76
5, 39480, Note_on_c, 3, 79, 76
5, 39480, Note_on_c, 3, 87, 68
5, 39480, Note_on_c, 3, 75, 80
5, 39532, Note_off_c, 3, 79, 64
5, 39536, Note_off_c, 3, 75, 64
5, 39544, Note_off_c, 3, 82, 64
5, 39548, Note_off_c, 3, 87, 64
5, 39600, Note_on_c, 3, 87, 70
5, 39600, Note_on_c, 3, 82, 76
5, 39600, Note_on_c, 3, 75, 78
5, 39600, Note_on_c, 3, 79, 76
5, 39648, Note_off_c, 3, 79, 64
5, 39652, Note_off_c, 3, 75, 64
5, 39656, Note_off_c, 3, 82, 64
5, 39664, Note_off_c, 3, 87, 64
5, 39720, Note_on_c, 3, 82, 98
5, 39720, Note_on_c, 3, 87, 87
5, 39720, Note_on_c, 3, 79, 95
5, 39720, Note_on_c, 3, 75, 91
5, 39828, Note_off_c, 3, 79, 64
5, 39828, Note_off_c, 3, 82, 64
5, 39832, Note_off_c, 3, 87, 64
5, 39840, Note_off_c, 3, 75, 64
5, 39840, Note_on_c, 3, 72, 72
5, 39840, Note_on_c, 3, 67, 72
5, 39840, Note_on_c, 3, 79, 59
5, 39840, Note_on_c, 3, 75, 58
5, 39904, Note_off_c, 3, 72, 64
5, 39912, Note_off_c, 3, 67, 64
5, 39912, Note_off_c, 3, 79, 64
5, 39912, Note_off_c, 3, 75, 64
5, 39960, Note_on_c, 3, 75, 63
5, 39960, Note_on_c, 3, 79, 60
5, 39960, Note_on_c, 3, 72, 63
5, 39960, Note_on_c, 3, 67, 59
5, 40012, Note_off_c, 3, 72, 64
5, 40020, Note_off_c, 3, 75, 64
5, 40020, Note_off_c, 3, 67, 64
5, 40032, Note_off_c, 3, 79, 64
5, 40080, Note_on_c, 3, 75, 63
5, 40080, Note_on_c, 3, 72, 60
5, 40080, Note_on_c, 3, 79, 56
5, 40080, Note_on_c, 3, 67, 60
5, 40128, Note_off_c, 3, 67, 64
5, 40128, Note_off_c, 3, 72, 64
5, 40140, Note_off_c, 3, 75, 64
5, 40140, Note_off_c, 3, 79, 64
5, 40200, Note_on_c, 3, 75, 74
5, 40200, Note_on_c, 3, 79, 66
5, 40200, Note_on_c, 3, 72, 72
5, 40200, Note_on_c, 3, 67, 68
5, 40280, Note_off_c, 3, 72, 64
5, 40284, Note_off_c, 3, 75, 64
5, 40288, Note_off_c, 3, 67, 64
5, 40292, Note_off_c, 3, 79, 64
5, 40320, Note_on_c, 3, 77, 89
5, 40320, Note_on_c, 3, 80, 78
5, 40320, Note_on_c, 3, 73, 91
5, 40320, Note_on_c, 3, 68, 93
5, 40376, Note_off_c, 3, 73, 64
5, 40384, Note_off_c, 3, 68, 64
5, 40388, Note_off_c, 3, 77, 64
5, 40392, Note_off_c, 3, 80, 64
5, 40440, Note_on_c, 3, 77, 76
5, 40440, Note_on_c, 3, 73, 76
5, 40440, Note_on_c, 3, 80, 68
5, 40440, Note_on_c, 3, 68, 80
5, 40492, Note_off_c, 3, 73, 64
5, 40496, Note_off_c, 3, 68, 64
5, 40504, Note_off_c, 3, 77, 64
5, 40508, Note_off_c, 3, 80, 64
5, 40560, Note_on_c, 3, 80, 70
5, 40560, Note_on_c, 3, 77, 76
5, 40560, Note_on_c, 3, 68, 78
5, 40560, Note_on_c, 3, 73, 76
5, 40608, Note_off_c, 3, 73, 64
5, 40612, Note_off_c, 3, 68, 64
5, 40616, Note_off_c, 3, 77, 64
5, 40624, Note_off_c, 3, 80, 64
5, 40680, Note_on_c, 3, 77, 98
5, 40680, Note_on_c, 3, 80, 87
5, 40680, Note_on_c, 3, 73, 95
5, 40680, Note_on_c, 3, 68, 91
5, 40788, Note_off_c, 3, 73, 64
5, 40788, Note_off_c, 3, 77, 64
5, 40792, Note_off_c, 3, 80, 64
5, 40804, Note_off_c, 3, 68, 64
5, 40920, Note_on_c, 3, 77, 87
5, 40920, Note_on_c, 3, 80, 80
5, 40920, Note_on_c, 3, 73, 91
5, 40920, Note_on_c, 3, 68, 89
5, 41020, Note_off_c, 3, 73, 64
5, 41028, Note_off_c, 3, 77, 64
5, 41028, Note_off_c, 3, 68, 64
5, 41040, Note_off_c, 3, 80, 64
5, 41160, Note_on_c, 3, 77, 80
5, 41160, Note_on_c, 3, 80, 66
5, 41160, Note_on_c, 3, 73, 80
5, 41160, Note_on_c, 3, 68, 80
5, 41196, Note_off_c, 3, 68, 64
5, 41200, Note_off_c, 3, 73, 64
5, 41204, Note_off_c, 3, 77, 64
5, 41212, Note_off_c, 3, 80, 64
5, 41292, Note_on_c, 3, 92, 74
5, 41292, Note_on_c, 3, 87, 74
5, 41292, Note_on_c, 3, 84, 78
5, 41292, Note_on_c, 3, 80, 87
5, 41360, Note_off_c, 3, 84, 64
5, 41364, Note_off_c, 3, 87, 64
5, 41364, Note_off_c, 3, 80, 64
5, 41368, Note_off_c, 3, 92, 64
5, 41408, Note_on_c, 3, 92, 70
5, 41408, Note_on_c, 3, 84, 72
5, 41408, Note_on_c, 3, 87, 70
5, 41412, Note_on_c, 3, 80, 66
5, 41456, Note_off_c, 3, 84, 64
5, 41460, Note_off_c, 3, 87, 64
5, 41460, Note_off_c, 3, 80, 64
5, 41472, Note_off_c, 3, 92, 64
5, 41516, Note_on_c, 3, 87, 68
5, 41516, Note_on_c, 3, 84, 74
5, 41520, Note_on_c, 3, 92, 63
5, 41532, Note_on_c, 3, 80, 66
5, 41580, Note_off_c, 3, 80, 64
5, 41584, Note_off_c, 3, 84, 64
5, 41592, Note_off_c, 3, 87, 64
5, 41600, Note_off_c, 3, 92, 64
5, 41660, Note_on_c, 3, 87, 80
5, 41660, Note_on_c, 3, 92, 70
5, 41660, Note_on_c, 3, 84, 78
5, 41664, Note_on_c, 3, 80, 78
5, 41748, Note_off_c, 3, 80, 64
5, 41748, Note_off_c, 3, 84, 64
5, 41748, Note_off_c, 3, 87, 64
5, 41752, Note_off_c, 3, 92, 64
5, 41888, Note_on_c, 3, 87, 87
5, 41888, Note_on_c, 3, 84, 78
5, 41888, Note_on_c, 3, 80, 64
5, 41888, Note_on_c, 3, 92, 76
5, 41972, Note_off_c, 3, 80, 64
5, 41972, Note_off_c, 3, 84, 64
5, 41976, Note_off_c, 3, 87, 64
5, 41984, Note_off_c, 3, 92, 64
5, 42116, Note_on_c, 3, 44, 60
5, 42184, Note_off_c, 3, 44, 64
5, 42240, Note_on_c, 3, 82, 89
5, 42240, Note_on_c, 3, 87, 78
5, 42240, Note_on_c, 3, 79, 91
5, 42240, Note_on_c, 3, 75, 93
5, 42296, Note_off_c, 3, 79, 64
5, 42304, Note_off_c, 3, 75, 64
5, 42308, Note_off_c, 3, 82, 64
5, 42312, Note_off_c, 3, 87, 64
5, 42360, Note_on_c, 3, 82, 76
5, 42360, Note_on_c, 3, 79, 76
5, 42360, Note_on_c, 3, 87, 68
5, 42360, Note_on_c, 3, 75, 80
5, 42412, Note_off_c, 3, 79, 64
5, 42416, Note_off_c, 3, 75, 64
5, 42424, Note_off_c, 3, 82, 64
5, 42428, Note_off_c, 3, 87, 64
5, 42480, Note_on_c, 3, 87, 70
5, 42480, Note_on_c, 3, 82, 76
5, 42480, Note_on_c, 3, 75, 78
5, 42480, Note_on_c, 3, 79, 76
5, 42528, Note_off_c, 3, 79, 64
5, 42532, Note_off_c, 3, 75, 64
5, 42536, Note_off_c, 3, 82, 64
5, 42544, Note_off_c, 3, 87, 64
5, 42600, Note_on_c, 3, 82, 98
5, 42600, Note_on_c, 3, 87, 87
5, 42600, Note_on_c, 3, 79, 95
5, 42600, Note_on_c, 3, 75, 91
5, 42708, Note_off_c, 3, 79, 64
5, 42708, Note_off_c, 3, 82, 64
5, 42712, Note_off_c, 3, 87, 64
5, 42724, Note_off_c, 3, 75, 64
5, 42840, Note_on_c, 3, 82, 87
5, 42840, Note_on_c, 3, 87, 80
5, 42840, Note_on_c, 3, 79, 91
5, 42840, Note_on_c, 3, 75, 89
5, 42940, Note_off_c, 3, 79, 64
5, 42948, Note_off_c, 3, 82, 64
5, 42948, Note_off_c, 3, 75, 64
5, 42960, Note_off_c, 3, 87, 64
5, 43080, Note_on_c, 3, 82, 80
5, 43080, Note_on_c, 3, 87, 66
5, 43080, Note_on_c, 3, 79, 80
5, 43080, Note_on_c, 3, 75, 80
5, 43116, Note_off_c, 3, 75, 64
5, 43120, Note_off_c, 3, 79, 64
5, 43124, Note_off_c, 3, 82, 64
5, 43132, Note_off_c, 3, 87, 64
5, 43200, Note_on_c, 3, 82, 89
5, 43200, Note_on_c, 3, 87, 78
5, 43200, Note_on_c, 3, 79, 91
5, 43200, Note_on_c, 3, 75, 93
5, 43256, Note_off_c, 3, 79, 64
5, 43264, Note_off_c, 3, 75, 64
5, 43268, Note_off_c, 3, 82, 64
5, 43272, Note_off_c, 3, 87, 64
5, 43320, Note_on_c, 3, 82, 76
5, 43320, Note_on_c, 3, 79, 76
5, 43320, Note_on_c, 3, 87, 68
5, 43320, Note_on_c, 3, 75, 80
5, 43372, Note_off_c, 3, 79, 64
5, 43376, Note_off_c, 3, 75, 64
5, 43384, Note_off_c, 3, 82, 64
5, 43388, Note_off_c, 3, 87, 64
5, 43440, Note_on_c, 3, 87, 70
5, 43440, Note_on_c, 3, 82, 76
5, 43440, Note_on_c, 3, 75, 78
5, 43440, Note_on_c, 3, 79, 76
5, 43488, Note_off_c, 3, 79, 64
5, 43492, Note_off_c, 3, 75, 64
5, 43496, Note_off_c, 3, 82, 64
5, 43504, Note_off_c, 3, 87, 64
5, 43560, Note_on_c, 3, 82, 98
5, 43560, Note_on_c, 3, 87, 87
5, 43560, Note_on_c, 3, 79, 95
5, 43560, Note_on_c, 3, 75, 91
5, 43668, Note_off_c, 3, 79, 64
5, 43668, Note_off_c, 3, 82, 64
5, 43672, Note_off_c, 3, 87, 64
5, 43680, Note_off_c, 3, 75, 64
5, 43680, Note_on_c, 3, 67, 82
5, 43680, Note_on_c, 3, 72, 91
5, 43680, Note_on_c, 3, 75, 82
5, 43680, Note_on_c, 3, 79, 80
5, 43756, Note_off_c, 3, 72, 64
5, 43760, Note_off_c, 3, 75, 64
5, 43764, Note_off_c, 3, 79, 64
5, 43768, Note_off_c, 3, 67, 64
5, 43800, Note_on_c, 3, 75, 68
5, 43800, Note_on_c, 3, 67, 70
5, 43800, Note_on_c, 3, 79, 66
5, 43800, Note_on_c, 3, 72, 66
5, 43864, Note_off_c, 3, 72, 64
5, 43864, Note_off_c, 3, 67, 64
5, 43868, Note_off_c, 3, 75, 64
5, 43872, Note_off_c, 3, 79, 64
5, 43920, Note_on_c, 3, 72, 72
5, 43920, Note_on_c, 3, 75, 72
5, 43920, Note_on_c, 3, 79, 74
5, 43920, Note_on_c, 3, 67, 70
5, 43984, Note_off_c, 3, 67, 64
5, 43988, Note_off_c, 3, 75, 64
5, 43988, Note_off_c, 3, 72, 64
5, 43996, Note_off_c, 3, 79, 64
5, 44040, Note_on_c, 3, 79, 85
5, 44040, Note_on_c, 3, 75, 82
5, 44040, Note_on_c, 3, 72, 80
5, 44040, Note_on_c, 3, 67, 82
5, 44160, Note_off_c, 3, 67, 64
5, 44160, Note_off_c, 3, 72, 64
5, 44160, Note_off_c, 3, 75, 64
5, 44160, Note_off_c, 3, 79, 64
5, 44160, Note_on_c, 3, 77, 89
5, 44160, Note_on_c, 3, 80, 78
5, 44160, Note_on_c, 3, 73, 91
5, 44160, Note_on_c, 3, 68, 93
5, 44216, Note_off_c, 3, 73, 64
5, 44224, Note_off_c, 3, 68, 64
5, 44228, Note_off_c, 3, 77, 64
5, 44232, Note_off_c, 3, 80, 64
5, 44280, Note_on_c, 3, 77, 76
5, 44280, Note_on_c, 3, 73, 76
5, 44280, Note_on_c, 3, 80, 68
5, 44280, Note_on_c, 3, 68, 80
5, 44332, Note_off_c, 3, 73, 64
5, 44336, Note_off_c, 3, 68, 64
5, 44344, Note_off_c, 3, 77, 64
5, 44348, Note_off_c, 3, 80, 64
5, 44400, Note_on_c, 3, 80, 70
5, 44400, Note_on_c, 3, 77, 76
5, 44400, Note_on_c, 3, 68, 78
5, 44400, Note_on_c, 3, 73, 76
5, 44448, Note_off_c, 3, 73, 64
5, 44452, Note_off_c, 3, 68, 64
5, 44456, Note_off_c, 3, 77, 64
5, 44464, Note_off_c, 3, 80, 64
5, 44520, Note_on_c, 3, 77, 98
5, 44520, Note_on_c, 3, 80, 87
5, 44520, Note_on_c, 3, 73, 95
5, 44520, Note_on_c, 3, 68, 91
5, 44628, Note_off_c, 3, 73, 64
5, 44628, Note_off_c, 3, 77, 64
5, 44632, Note_off_c, 3, 80, 64
5, 44644, Note_off_c, 3, 68, 64
5, 44760, Note_on_c, 3, 77, 87
5, 44760, Note_on_c, 3, 80, 80
5, 44760, Note_on_c, 3, 73, 91
5, 44760, Note_on_c, 3, 68, 89
5, 44860, Note_off_c, 3, 73, 64
5, 44868, Note_off_c, 3, 77, 64
5, 44868, Note_off_c, 3, 68, 64
5, 44880, Note_off_c, 3, 80, 64
5, 45000, Note_on_c, 3, 77, 80
5, 45000, Note_on_c, 3, 80, 66
5, 45000, Note_on_c, 3, 73, 80
5, 45000, Note_on_c, 3, 68, 80
5, 45036, Note_off_c, 3, 68, 64
5, 45040, Note_off_c, 3, 73, 64
5, 45044, Note_off_c, 3, 77, 64
5, 45052, Note_off_c, 3, 80, 64
5, 45120, Note_on_c, 3, 80, 82
5, 45120, Note_on_c, 3, 84, 91
5, 45120, Note_on_c, 3, 87, 82
5, 45120, Note_on_c, 3, 92, 80
5, 45196, Note_off_c, 3, 84, 64
5, 45200, Note_off_c, 3, 87, 64
5, 45204, Note_off_c, 3, 92, 64
5, 45208, Note_off_c, 3, 80, 64
5, 45240, Note_on_c, 3, 87, 68
5, 45240, Note_on_c, 3, 80, 70
5, 45240, Note_on_c, 3, 92, 66
5, 45240, Note_on_c, 3, 84, 66
5, 45304, Note_off_c, 3, 84, 64
5, 45304, Note_off_c, 3, 80, 64
5, 45308, Note_off_c, 3, 87, 64
5, 45312, Note_off_c, 3, 92, 64
5, 45360, Note_on_c, 3, 84, 72
5, 45360, Note_on_c, 3, 87, 72
5, 45360, Note_on_c, 3, 92, 74
5, 45360, Note_on_c, 3, 80, 70
5, 45424, Note_off_c, 3, 80, 64
5, 45428, Note_off_c, 3, 87, 64
5, 45428, Note_off_c, 3, 84, 64
5, 45436, Note_off_c, 3, 92, 64
5, 45480, Note_on_c, 3, 92, 85
5, 45480, Note_on_c, 3, 87, 82
5, 45480, Note_on_c, 3, 84, 80
5, 45480, Note_on_c, 3, 80, 82
5, 45600, Note_off_c, 3, 80, 64
5, 45600, Note_off_c, 3, 84, 64
5, 45600, Note_off_c, 3, 87, 64
5, 45604, Note_off_c, 3, 92, 64
5, 45720, Note_on_c, 3, 80, 80
5, 45720, Note_on_c, 3, 87, 87
5, 45720, Note_on_c, 3, 84, 89
5, 45720, Note_on_c, 3, 92, 87
5, 45808, Note_off_c, 3, 84, 64
5, 45816, Note_off_c, 3, 87, 64
5, 45836, Note_off_c, 3, 80, 64
5, 45836, Note_off_c, 3, 92, 64
5, 45960, Note_on_c, 3, 44, 76
5, 46072, Note_off_c, 3, 44, 64
5, 46080, Note_on_c, 3, 79, 72
5, 46080, Note_on_c, 3, 75, 72
5, 46080, Note_on_c, 3, 87, 59
5, 46080, Note_on_c, 3, 82, 58
5, 46144, Note_off_c, 3, 79, 64
5, 46152, Note_off_c, 3, 75, 64
5, 46152, Note_off_c, 3, 87, 64
5, 46152, Note_off_c, 3, 82, 64
5, 46200, Note_on_c, 3, 82, 63
5, 46200, Note_on_c, 3, 87, 60
5, 46200, Note_on_c, 3, 79, 63
5, 46200, Note_on_c, 3, 75, 59
5, 46252, Note_off_c, 3, 79, 64
5, 46260, Note_off_c, 3, 82, 64
5, 46260, Note_off_c, 3, 75, 64
5, 46272, Note_off_c, 3, 87, 64
5, 46320, Note_on_c, 3, 82, 63
5, 46320, Note_on_c, 3, 79, 60
5, 46320, Note_on_c, 3, 87, 56
5, 46320, Note_on_c, 3, 75, 60
5, 46368, Note_off_c, 3, 75, 64
5, 46368, Note_off_c, 3, 79, 64
5, 46380, Note_off_c, 3, 82, 64
5, 46380, Note_off_c, 3, 87, 64
5, 46440, Note_on_c, 3, 82, 74
5, 46440, Note_on_c, 3, 87, 66
5, 46440, Note_on_c, 3, 79, 72
5, 46440, Note_on_c, 3, 75, 68
5, 46520, Note_off_c, 3, 79, 64
5, 46524, Note_off_c, 3, 82, 64
5, 46528, Note_off_c, 3, 75, 64
5, 46532, Note_off_c, 3, 87, 64
5, 46680, Note_on_c, 3, 51, 42
5, 46724, Note_off_c, 3, 51, 64
5, 46800, Note_on_c, 3, 82, 80
5, 46800, Note_on_c, 3, 79, 80
5, 46800, Note_on_c, 3, 87, 68
5, 46800, Note_on_c, 3, 75, 74
5, 46848, Note_off_c, 3, 75, 64
5, 46852, Note_off_c, 3, 79, 64
5, 46860, Note_off_c, 3, 82, 64
5, 46864, Note_off_c, 3, 87, 64
5, 46920, Note_on_c, 3, 82, 68
5, 46920, Note_on_c, 3, 79, 60
5, 46920, Note_on_c, 3, 87, 57
5, 46920, Note_on_c, 3, 75, 64
5, 46964, Note_off_c, 3, 75, 64
5, 46964, Note_off_c, 3, 79, 64
5, 46968, Note_off_c, 3, 82, 64
5, 46968, Note_off_c, 3, 87, 64
5, 47040, Note_on_c, 3, 84, 89
5, 47040, Note_on_c, 3, 89, 78
5, 47040, Note_on_c, 3, 81, 91
5, 47040, Note_on_c, 3, 77, 93
5, 47096, Note_off_c, 3, 81, 64
5, 47104, Note_off_c, 3, 77, 64
5, 47108, Note_off_c, 3, 84, 64
5, 47112, Note_off_c, 3, 89, 64
5, 47160, Note_on_c, 3, 84, 76
5, 47160, Note_on_c, 3, 81, 76
5, 47160, Note_on_c, 3, 89, 68
5, 47160, Note_on_c, 3, 77, 80
5, 47212, Note_off_c, 3, 81, 64
5, 47216, Note_off_c, 3, 77, 64
5, 47224, Note_off_c, 3, 84, 64
5, 47228, Note_off_c, 3, 89, 64
5, 47280, Note_on_c, 3, 89, 70
5, 47280, Note_on_c, 3, 84, 76
5, 47280, Note_on_c, 3, 77, 78
5, 47280, Note_on_c, 3, 81, 76
5, 47328, Note_off_c, 3, 81, 64
5, 47332, Note_off_c, 3, 77, 64
5, 47336, Note_off_c, 3, 84, 64
5, 47344, Note_off_c, 3, 89, 64
5, 47400, Note_on_c, 3, 84, 98
5, 47400, Note_on_c, 3, 89, 87
5, 47400, Note_on_c, 3, 81, 95
5, 47400, Note_on_c, 3, 77, 91
5, 47508, Note_off_c, 3, 81, 64
5, 47508, Note_off_c, 3, 84, 64
5, 47512, Note_off_c, 3, 89, 64
5, 47524, Note_off_c, 3, 77, 64
5, 47640, Note_on_c, 3, 84, 87
5, 47640, Note_on_c, 3, 89, 80
5, 47640, Note_on_c, 3, 81, 91
5, 47640, Note_on_c, 3, 77, 89
5, 47740, Note_off_c, 3, 81, 64
5, 47748, Note_off_c, 3, 84, 64
5, 47748, Note_off_c, 3, 77, 64
5, 47760, Note_off_c, 3, 89, 64
5, 47880, Note_on_c, 3, 84, 80
5, 47880, Note_on_c, 3, 89, 66
5, 47880, Note_on_c, 3, 81, 80
5, 47880, Note_on_c, 3, 77, 80
5, 47916, Note_off_c, 3, 77, 64
5, 47920, Note_off_c, 3, 81, 64
5, 47924, Note_off_c, 3, 84, 64
5, 47932, Note_off_c, 3, 89, 64
5, 55680, Note_on_c, 3, 72, 82
5, 55680, Note_on_c, 3, 69, 89
5, 55680, Note_on_c, 3, 65, 89
5, 58400, Note_off_c, 3, 65, 64
5, 58560, Note_on_c, 3, 65, 102
5, 58588, Note_off_c, 3, 65, 64
5, 58752, Note_off_c, 3, 69, 64
5, 58800, Note_on_c, 3, 65, 102
5, 59040, Note_on_c, 3, 69, 100
5, 59096, Note_off_c, 3, 72, 64
5, 59280, Note_on_c, 3, 72, 89
5, 59412, Note_off_c, 3, 72, 64
5, 59444, Note_off_c, 3, 69, 64
5, 59456, Note_off_c, 3, 65, 64
5, 59520, Note_on_c, 3, 72, 80
5, 59520, Note_on_c, 3, 69, 85
5, 59520, Note_on_c, 3, 65, 87
5, 60352, Note_off_c, 3, 65, 64
5, 60480, Note_on_c, 3, 65, 93
5, 60520, Note_off_c, 3, 65, 64
5, 60720, Note_on_c, 3, 65, 80
5, 60760, Note_off_c, 3, 69, 64
5, 60960, Note_on_c, 3, 69, 91
5, 61084, Note_off_c, 3, 65, 64
5, 61220, Note_off_c, 3, 72, 64
5, 61220, Note_on_c, 3, 65, 80
5, 61440, Note_on_c, 3, 72, 80
5, 62640, Note_on_c, 3, 77, 70
5, 63148, Note_off_c, 3, 77, 64
5, 63160, Note_off_c, 3, 69, 64
5, 63200, Note_off_c, 3, 72, 64
5, 63208, Note_off_c, 3, 65, 64
5, 63360, Note_on_c, 3, 65, 95
5, 63360, Note_on_c, 3, 60, 95
5, 63360, Note_on_c, 3, 57, 95
5, 67132, Note_off_c, 3, 57, 64
5, 67132, Note_off_c, 3, 60, 64
5, 67132, Note_off_c, 3, 65, 64
5, 67200, Note_on_c, 3, 72, 85
5, 67200, Note_on_c, 3, 53, 59
5, 67200, Note_on_c, 3, 69, 85
5, 67200, Note_on_c, 3, 65, 66
5, 67980, Control_c, 3, 64, 127
5, 68132, Note_off_c, 3, 65, 64
5, 68132, Note_off_c, 3, 69, 64
5, 68148, Note_off_c, 3, 72, 64
5, 68288, Note_off_c, 3, 53, 64
5, 68640, Note_on_c, 3, 81, 95
5, 68760, Note_on_c, 3, 84, 78
5, 68788, Note_off_c, 3, 81, 64
5, 68880, Note_on_c, 3, 89, 85
5, 68892, Note_off_c, 3, 84, 64
5, 68928, Control_c, 3, 64, 0
5, 69000, Note_off_c, 3, 89, 64
5, 69120, Note_on_c, 3, 72, 89
5, 69120, Note_on_c, 3, 65, 78
5, 69120, Note_on_c, 3, 69, 93
5, 70044, Note_off_c, 3, 65, 64
5, 70048, Note_off_c, 3, 72, 64
5, 70048, Note_off_c, 3, 69, 64
5, 70320, Note_on_c, 3, 44, 82
5, 70560, Note_on_c, 3, 63, 98
5, 70560, Note_on_c, 3, 60, 98
5, 70560, Note_on_c, 3, 56, 98
5, 70596, Note_off_c, 3, 44, 64
5, 71040, Note_off_c, 3, 63, 64
5, 71040, Note_off_c, 3, 60, 64
5, 71040, Note_off_c, 3, 56, 64
5, 71040, Note_on_c, 3, 77, 89
5, 71040, Note_on_c, 3, 80, 78
5, 71040, Note_on_c, 3, 73, 91
5, 71040, Note_on_c, 3, 68, 93
5, 71096, Note_off_c, 3, 73, 64
5, 71104, Note_off_c, 3, 68, 64
5, 71108, Note_off_c, 3, 77, 64
5, 71112, Note_off_c, 3, 80, 64
5, 71160, Note_on_c, 3, 77, 76
5, 71160, Note_on_c, 3, 73, 76
5, 71160, Note_on_c, 3, 80, 68
5, 71160, Note_on_c, 3, 68, 80
5, 71212, Note_off_c, 3, 73, 64
5, 71216, Note_off_c, 3, 68, 64
5, 71224, Note_off_c, 3, 77, 64
5, 71228, Note_off_c, 3, 80, 64
5, 71280, Note_on_c, 3, 80, 70
5, 71280, Note_on_c, 3, 77, 76
5, 71280, Note_on_c, 3, 68, 78
5, 71280, Note_on_c, 3, 73, 76
5, 71328, Note_off_c, 3, 73, 64
5, 71332, Note_off_c, 3, 68, 64
5, 71336, Note_off_c, 3, 77, 64
5, 71344, Note_off_c, 3, 80, 64
5, 71400, Note_on_c, 3, 77, 98
5, 71400, Note_on_c, 3, 80, 87
5, 71400, Note_on_c, 3, 73, 95
5, 71400, Note_on_c, 3, 68, 91
5, 71508, Note_off_c, 3, 73, 64
5, 71508, Note_off_c, 3, 77, 64
5, 71512, Note_off_c, 3, 80, 64
5, 71524, Note_off_c, 3, 68, 64
5, 71640, Note_on_c, 3, 77, 87
5, 71640, Note_on_c, 3, 80, 80
5, 71640, Note_on_c, 3, 73, 91
5, 71640, Note_on_c, 3, 68, 89
5, 71740, Note_off_c, 3, 73, 64
5, 71748, Note_off_c, 3, 77, 64
5, 71748, Note_off_c, 3, 68, 64
5, 71760, Note_off_c, 3, 80, 64
5, 71880, Note_on_c, 3, 77, 80
5, 71880, Note_on_c, 3, 80, 66
5, 71880, Note_on_c, 3, 73, 80
5, 71880, Note_on_c, 3, 68, 80
5, 71916, Note_off_c, 3, 68, 64
5, 71920, Note_off_c, 3, 73, 64
5, 71924, Note_off_c, 3, 77, 64
5, 71932, Note_off_c, 3, 80, 64
5, 72000, Note_on_c, 3, 84, 72
5, 72000, Note_on_c, 3, 80, 72
5, 72000, Note_on_c, 3, 92, 59
5, 72000, Note_on_c, 3, 87, 58
5, 72064, Note_off_c, 3, 84, 64
5, 72072, Note_off_c, 3, 80, 64
5, 72072, Note_off_c, 3, 92, 64
5, 72072, Note_off_c, 3, 87, 64
5, 72120, Note_on_c, 3, 87, 63
5, 72120, Note_on_c, 3, 92, 60
5, 72120, Note_on_c, 3, 84, 63
5, 72120, Note_on_c, 3, 80, 59
5, 72172, Note_off_c, 3, 84, 64
5, 72180, Note_off_c, 3, 87, 64
5, 72180, Note_off_c, 3, 80, 64
5, 72192, Note_off_c, 3, 92, 64
5, 72240, Note_on_c, 3, 87, 63
5, 72240, Note_on_c, 3, 84, 60
5, 72240, Note_on_c, 3, 92, 56
5, 72240, Note_on_c, 3, 80, 60
5, 72288, Note_off_c, 3, 80, 64
5, 72288, Note_off_c, 3, 84, 64
5, 72300, Note_off_c, 3, 87, 64
5, 72300, Note_off_c, 3, 92, 64
5, 72360, Note_on_c, 3, 87, 74
5, 72360, Note_on_c, 3, 92, 66
5, 72360, Note_on_c, 3, 84, 72
5, 72360, Note_on_c, 3, 80, 68
5, 72440, Note_off_c, 3, 84, 64
5, 72444, Note_off_c, 3, 87, 64
5, 72448, Note_off_c, 3, 80, 64
5, 72452, Note_off_c, 3, 92, 64
5, 72600, Note_on_c, 3, 44, 42
5, 72644, Note_off_c, 3, 44, 64
5, 72720, Note_on_c, 3, 87, 80
5, 72720, Note_on_c, 3, 84, 80
5, 72720, Note_on_c, 3, 92, 68
5, 72720, Note_on_c, 3, 80, 74
5, 72768, Note_off_c, 3, 80, 64
5, 72772, Note_off_c, 3, 84, 64
5, 72780, Note_off_c, 3, 87, 64
5, 72784, Note_off_c, 3, 92, 64
5, 72840, Note_on_c, 3, 87, 68
5, 72840, Note_on_c, 3, 84, 60
5, 72840, Note_on_c, 3, 92, 57
5, 72840, Note_on_c, 3, 80, 64
5, 72884, Note_off_c, 3, 80, 64
5, 72884, Note_off_c, 3, 84, 64
5, 72888, Note_off_c, 3, 87, 64
5, 72888, Note_off_c, 3, 92, 64
5, 72960, Note_on_c, 3, 82, 89
5, 72960, Note_on_c, 3, 87, 78
5, 72960, Note_on_c, 3, 79, 91
5, 72960, Note_on_c, 3, 75, 93
5, 73016, Note_off_c, 3, 79, 64
5, 73024, Note_off_c, 3, 75, 64
5, 73028, Note_off_c, 3, 82, 64
5, 73032, Note_off_c, 3, 87, 64
5, 73080, Note_on_c, 3, 82, 76
5, 73080, Note_on_c, 3, 79, 76
5, 73080, Note_on_c, 3, 87, 68
5, 73080, Note_on_c, 3, 75, 80
5, 73132, Note_off_c, 3, 79, 64
5, 73136, Note_off_c, 3, 75, 64
5, 73144, Note_off_c, 3, 82, 64
5, 73148, Note_off_c, 3, 87, 64
5, 73200, Note_on_c, 3, 87, 70
5, 73200, Note_on_c, 3, 82, 76
5, 73200, Note_on_c, 3, 75, 78
5, 73200, Note_on_c, 3, 79, 76
5, 73248, Note_off_c, 3, 79, 64
5, 73252, Note_off_c, 3, 75, 64
5, 73256, Note_off_c, 3, 82, 64
5, 73264, Note_off_c, 3, 87, 64
5, 73320, Note_on_c, 3, 82, 98
5, 73320, Note_on_c, 3, 87, 87
5, 73320, Note_on_c, 3, 79, 95
5, 73320, Note_on_c, 3, 75, 91
5, 73428, Note_off_c, 3, 79, 64
5, 73428, Note_off_c, 3, 82, 64
5, 73432, Note_off_c, 3, 87, 64
5, 73444, Note_off_c, 3, 75, 64
5, 73560, Note_on_c, 3, 82, 87
5, 73560, Note_on_c, 3, 87, 80
5, 73560, Note_on_c, 3, 79, 91
5, 73560, Note_on_c, 3, 75, 89
5, 73660, Note_off_c, 3, 79, 64
5, 73668, Note_off_c, 3, 82, 64
5, 73668, Note_off_c, 3, 75, 64
5, 73680, Note_off_c, 3, 87, 64
5, 73800, Note_on_c, 3, 82, 80
5, 73800, Note_on_c, 3, 87, 66
5, 73800, Note_on_c, 3, 79, 80
5, 73800, Note_on_c, 3, 75, 80
5, 73836, Note_off_c, 3, 75, 64
5, 73840, Note_off_c, 3, 79, 64
5, 73844, Note_off_c, 3, 82, 64
5, 73852, Note_off_c, 3, 87, 64
5, 73920, Note_on_c, 3, 82, 89
5, 73920, Note_on_c, 3, 87, 78
5, 73920, Note_on_c, 3, 79, 91
5, 73920, Note_on_c, 3, 75, 93
5, 73976, Note_off_c, 3, 79, 64
5, 73984, Note_off_c, 3, 75, 64
5, 73988, Note_off_c, 3, 82, 64
5, 73992, Note_off_c, 3, 87, 64
5, 74040, Note_on_c, 3, 82, 76
5, 74040, Note_on_c, 3, 79, 76
5, 74040, Note_on_c, 3, 87, 68
5, 74040, Note_on_c, 3, 75, 80
5, 74092, Note_off_c, 3, 79, 64
5, 74096, Note_off_c, 3, 75, 64
5, 74104, Note_off_c, 3, 82, 64
5, 74108, Note_off_c, 3, 87, 64
5, 74160, Note_on_c, 3, 87, 70
5, 74160, Note_on_c, 3, 82, 76
5, 74160, Note_on_c, 3, 75, 78
5, 74160, Note_on_c, 3, 79, 76
5, 74208, Note_off_c, 3, 79, 64
5, 74212, Note_off_c, 3, 75, 64
5, 74216, Note_off_c, 3, 82, 64
5, 74224, Note_off_c, 3, 87, 64
5, 74280, Note_on_c, 3, 82, 98
5, 74280, Note_on_c, 3, 87, 87
5, 74280, Note_on_c, 3, 79, 95
5, 74280, Note_on_c, 3, 75, 91
5, 74388, Note_off_c, 3, 79, 64
5, 74388, Note_off_c, 3, 82, 64
5, 74392, Note_off_c, 3, 87, 64
5, 74400, Note_off_c, 3, 75, 64
5, 74400, Note_on_c, 3, 72, 72
5, 74400, Note_on_c, 3, 67, 72
5, 74400, Note_on_c, 3, 79, 59
5, 74400, Note_on_c, 3, 75, 58
5, 74464, Note_off_c, 3, 72, 64
5, 74472, Note_off_c, 3, 67, 64
5, 74472, Note_off_c, 3, 79, 64
5, 74472, Note_off_c, 3, 75, 64
5, 74520, Note_on_c, 3, 75, 63
5, 74520, Note_on_c, 3, 79, 60
5, 74520, Note_on_c, 3, 72, 63
5, 74520, Note_on_c, 3, 67, 59
5, 74572, Note_off_c, 3, 72, 64
5, 74580, Note_off_c, 3, 75, 64
5, 74580, Note_off_c, 3, 67, 64
5, 74592, Note_off_c, 3, 79, 64
5, 74640, Note_on_c, 3, 75, 63
5, 74640, Note_on_c, 3, 72, 60
5, 74640, Note_on_c, 3, 79, 56
5, 74640, Note_on_c, 3, 67, 60
5, 74688, Note_off_c, 3, 67, 64
5, 74688, Note_off_c, 3, 72, 64
5, 74700, Note_off_c, 3, 75, 64
5, 74700, Note_off_c, 3, 79, 64
5, 74760, Note_on_c, 3, 75, 74
5, 74760, Note_on_c, 3, 79, 66
5, 74760, Note_on_c, 3, 72, 72
5, 74760, Note_on_c, 3, 67, 68
5, 74840, Note_off_c, 3, 72, 64
5, 74844, Note_off_c, 3, 75, 64
5, 74848, Note_off_c, 3, 67, 64
5, 74852, Note_off_c, 3, 79, 64
5, 74892, Note_on_c, 3, 80, 74
5, 74892, Note_on_c, 3, 77, 74
5, 74892, Note_on_c, 3, 73, 78
5, 74892, Note_on_c, 3, 68, 87
5, 74960, Note_off_c, 3, 73, 64
5, 74964, Note_off_c, 3, 77, 64
5, 74964, Note_off_c, 3, 68, 64
5, 74968, Note_off_c, 3, 80, 64
5, 75008, Note_on_c, 3, 80, 70
5, 75008, Note_on_c, 3, 73, 72
5, 75008, Note_on_c, 3, 77, 70
5, 75012, Note_on_c, 3, 68, 66
5, 75056, Note_off_c, 3, 73, 64
5, 75060, Note_off_c, 3, 77, 64
5, 75060, Note_off_c, 3, 68, 64
5, 75072, Note_off_c, 3, 80, 64
5, 75116, Note_on_c, 3, 77, 68
5, 75116, Note_on_c, 3, 73, 74
5, 75120, Note_on_c, 3, 80, 63
5, 75132, Note_on_c, 3, 68, 66
5, 75180, Note_off_c, 3, 68, 64
5, 75184, Note_off_c, 3, 73, 64
5, 75192, Note_off_c, 3, 77, 64
5, 75200, Note_off_c, 3, 80, 64
5, 75260, Note_on_c, 3, 77, 80
5, 75260, Note_on_c, 3, 80, 70
5, 75260, Note_on_c, 3, 73, 78
5, 75264, Note_on_c, 3, 68, 78
5, 75348, Note_off_c, 3, 68, 64
5, 75348, Note_off_c, 3, 73, 64
5, 75348, Note_off_c, 3, 77, 64
5, 75352, Note_off_c, 3, 80, 64
5, 75488, Note_on_c, 3, 77, 87
5, 75488, Note_on_c, 3, 73, 78
5, 75488, Note_on_c, 3, 68, 64
5, 75488, Note_on_c, 3, 80, 76
5, 75572, Note_off_c, 3, 68, 64
5, 75572, Note_off_c, 3, 73, 64
5, 75576, Note_off_c, 3, 77, 64
5, 75584, Note_off_c, 3, 80, 64
5, 75716, Note_on_c, 3, 37, 60
5, 75784, Note_off_c, 3, 37, 64
5, 75840, Note_on_c, 3, 80, 82
5, 75840, Note_on_c, 3, 84, 91
5, 75840, Note_on_c, 3, 87, 82
5, 75840, Note_on_c, 3, 92, 80
5, 75916, Note_off_c, 3, 84, 64
5, 75920, Note_off_c, 3, 87, 64
5, 75924, Note_off_c, 3, 92, 64
5, 75928, Note_off_c, 3, 80, 64
5, 75960, Note_on_c, 3, 87, 68
5, 75960, Note_on_c, 3, 80, 70
5, 75960, Note_on_c, 3, 92, 66
5, 75960, Note_on_c, 3, 84, 66
5, 76024, Note_off_c, 3, 84, 64
5, 76024, Note_off_c, 3, 80, 64
5, 76028, Note_off_c, 3, 87, 64
5, 76032, Note_off_c, 3, 92, 64
5, 76080, Note_on_c, 3, 84, 72
5, 76080, Note_on_c, 3, 87, 72
5, 76080, Note_on_c, 3, 92, 74
5, 76080, Note_on_c, 3, 80, 70
5, 76144, Note_off_c, 3, 80, 64
5, 76148, Note_off_c, 3, 87, 64
5, 76148, Note_off_c, 3, 84, 64
5, 76156, Note_off_c, 3, 92, 64
5, 76200, Note_on_c, 3, 92, 85
5, 76200, Note_on_c, 3, 87, 82
5, 76200, Note_on_c, 3, 84, 80
5, 76200, Note_on_c, 3, 80, 82
5, 76320, Note_off_c, 3, 80, 64
5, 76320, Note_off_c, 3, 84, 64
5, 76320, Note_off_c, 3, 87, 64
5, 76324, Note_off_c, 3, 92, 64
5, 76440, Note_on_c, 3, 80, 80
5, 76440, Note_on_c, 3, 87, 87
5, 76440, Note_on_c, 3, 84, 89
5, 76440, Note_on_c, 3, 92, 87
5, 76528, Note_off_c, 3, 84, 64
5, 76536, Note_off_c, 3, 87, 64
5, 76556, Note_off_c, 3, 80, 64
5, 76556, Note_off_c, 3, 92, 64
5, 76680, Note_on_c, 3, 44, 76
5, 76792, Note_off_c, 3, 44, 64
5, 76800, Note_on_c, 3, 75, 82
5, 76800, Note_on_c, 3, 79, 91
5, 76800, Note_on_c, 3, 82, 82
5, 76800, Note_on_c, 3, 87, 80
5, 76876, Note_off_c, 3, 79, 64
5, 76880, Note_off_c, 3, 82, 64
5, 76884, Note_off_c, 3, 87, 64
5, 76888, Note_off_c, 3, 75, 64
5, 76920, Note_on_c, 3, 82, 68
5, 76920, Note_on_c, 3, 75, 70
5, 76920, Note_on_c, 3, 87, 66
5, 76920, Note_on_c, 3, 79, 66
5, 76984, Note_off_c, 3, 79, 64
5, 76984, Note_off_c, 3, 75, 64
5, 76988, Note_off_c, 3, 82, 64
5, 76992, Note_off_c, 3, 87, 64
5, 77040, Note_on_c, 3, 79, 72
5, 77040, Note_on_c, 3, 82, 72
5, 77040, Note_on_c, 3, 87, 74
5, 77040, Note_on_c, 3, 75, 70
5, 77104, Note_off_c, 3, 75, 64
5, 77108, Note_off_c, 3, 82, 64
5, 77108, Note_off_c, 3, 79, 64
5, 77116, Note_off_c, 3, 87, 64
5, 77160, Note_on_c, 3, 87, 85
5, 77160, Note_on_c, 3, 82, 82
5, 77160, Note_on_c, 3, 79, 80
5, 77160, Note_on_c, 3, 75, 82
5, 77280, Note_off_c, 3, 75, 64
5, 77280, Note_off_c, 3, 79, 64
5, 77280, Note_off_c, 3, 82, 64
5, 77284, Note_off_c, 3, 87, 64
5, 77400, Note_on_c, 3, 75, 80
5, 77400, Note_on_c, 3, 82, 87
5, 77400, Note_on_c, 3, 79, 89
5, 77400, Note_on_c, 3, 87, 87
5, 77488, Note_off_c, 3, 79, 64
5, 77496, Note_off_c, 3, 82, 64
5, 77516, Note_off_c, 3, 75, 64
5, 77516, Note_off_c, 3, 87, 64
5, 77640, Note_on_c, 3, 51, 76
5, 77752, Note_off_c, 3, 51, 64
5, 77760, Note_on_c, 3, 87, 68
5, 77760, Note_on_c, 3, 79, 78
5, 77760, Note_on_c, 3, 82, 68
5, 77760, Note_on_c, 3, 75, 85
5, 77832, Note_off_c, 3, 79, 64
5, 77836, Note_off_c, 3, 82, 64
5, 77840, Note_off_c, 3, 87, 64
5, 77840, Note_off_c, 3, 75, 64
5, 77880, Note_on_c, 3, 82, 74
5, 77880, Note_on_c, 3, 79, 72
5, 77880, Note_on_c, 3, 87, 70
5, 77880, Note_on_c, 3, 75, 70
5, 77936, Note_off_c, 3, 79, 64
5, 77940, Note_off_c, 3, 75, 64
5, 77944, Note_off_c, 3, 82, 64
5, 77948, Note_off_c, 3, 87, 64
5, 78000, Note_on_c, 3, 79, 64
5, 78000, Note_on_c, 3, 82, 62
5, 78000, Note_on_c, 3, 87, 57
5, 78000, Note_on_c, 3, 75, 62
5, 78044, Note_off_c, 3, 75, 64
5, 78048, Note_off_c, 3, 79, 64
5, 78052, Note_off_c, 3, 82, 64
5, 78060, Note_off_c, 3, 87, 64
5, 78120, Note_on_c, 3, 82, 80
5, 78120, Note_on_c, 3, 79, 80
5, 78120, Note_on_c, 3, 75, 82
5, 78120, Note_on_c, 3, 87, 80
5, 78224, Note_off_c, 3, 79, 64
5, 78232, Note_off_c, 3, 82, 64
5, 78232, Note_off_c, 3, 75, 64
5, 78240, Note_off_c, 3, 87, 64
5, 78252, Note_on_c, 3, 79, 74
5, 78252, Note_on_c, 3, 75, 74
5, 78252, Note_on_c, 3, 72, 78
5, 78252, Note_on_c, 3, 67, 87
5, 78320, Note_off_c, 3, 72, 64
5, 78324, Note_off_c, 3, 75, 64
5, 78324, Note_off_c, 3, 67, 64
5, 78328, Note_off_c, 3, 79, 64
5, 78368, Note_on_c, 3, 79, 70
5, 78368, Note_on_c, 3, 72, 72
5, 78368, Note_on_c, 3, 75, 70
5, 78372, Note_on_c, 3, 67, 66
5, 78416, Note_off_c, 3, 72, 64
5, 78420, Note_off_c, 3, 75, 64
5, 78420, Note_off_c, 3, 67, 64
5, 78432, Note_off_c, 3, 79, 64
5, 78476, Note_on_c, 3, 75, 68
5, 78476, Note_on_c, 3, 72, 74
5, 78480, Note_on_c, 3, 79, 63
5, 78492, Note_on_c, 3, 67, 66
5, 78540, Note_off_c, 3, 67, 64
5, 78544, Note_off_c, 3, 72, 64
5, 78552, Note_off_c, 3, 75, 64
5, 78560, Note_off_c, 3, 79, 64
5, 78620, Note_on_c, 3, 75, 80
5, 78620, Note_on_c, 3, 79, 70
5, 78620, Note_on_c, 3, 72, 78
5, 78624, Note_on_c, 3, 67, 78
5, 78708, Note_off_c, 3, 67, 64
5, 78708, Note_off_c, 3, 72, 64
5, 78708, Note_off_c, 3, 75, 64
5, 78712, Note_off_c, 3, 79, 64
5, 78732, Note_on_c, 3, 80, 74
5, 78732, Note_on_c, 3, 77, 74
5, 78732, Note_on_c, 3, 73, 78
5, 78732, Note_on_c, 3, 68, 87
5, 78800, Note_off_c, 3, 73, 64
5, 78804, Note_off_c, 3, 77, 64
5, 78804, Note_off_c, 3, 68, 64
5, 78808, Note_off_c, 3, 80, 64
5, 78848, Note_on_c, 3, 80, 70
5, 78848, Note_on_c, 3, 73, 72
5, 78848, Note_on_c, 3, 77, 70
5, 78852, Note_on_c, 3, 68, 66
5, 78896, Note_off_c, 3, 73, 64
5, 78900, Note_off_c, 3, 77, 64
5, 78900, Note_off_c, 3, 68, 64
5, 78912, Note_off_c, 3, 80, 64
5, 78956, Note_on_c, 3, 77, 68
5, 78956, Note_on_c, 3, 73, 74
5, 78960, Note_on_c, 3, 80, 63
5, 78972, Note_on_c, 3, 68, 66
5, 79020, Note_off_c, 3, 68, 64
5, 79024, Note_off_c, 3, 73, 64
5, 79032, Note_off_c, 3, 77, 64
5, 79040, Note_off_c, 3, 80, 64
5, 79100, Note_on_c, 3, 77, 80
5, 79100, Note_on_c, 3, 80, 70
5, 79100, Note_on_c, 3, 73, 78
5, 79104, Note_on_c, 3, 68, 78
5, 79188, Note_off_c, 3, 68, 64
5, 79188, Note_off_c, 3, 73, 64
5, 79188, Note_off_c, 3, 77, 64
5, 79192, Note_off_c, 3, 80, 64
5, 79328, Note_on_c, 3, 77, 87
5, 79328, Note_on_c, 3, 73, 78
5, 79328, Note_on_c, 3, 68, 64
5, 79328, Note_on_c, 3, 80, 76
5, 79412, Note_off_c, 3, 68, 64
5, 79412, Note_off_c, 3, 73, 64
5, 79416, Note_off_c, 3, 77, 64
5, 79424, Note_off_c, 3, 80, 64
5, 79556, Note_on_c, 3, 37, 60
5, 79624, Note_off_c, 3, 37, 64
5, 79680, Note_on_c, 3, 87, 89
5, 79680, Note_on_c, 3, 92, 78
5, 79680, Note_on_c, 3, 84, 91
5, 79680, Note_on_c, 3, 80, 93
5, 79736, Note_off_c, 3, 84, 64
5, 79744, Note_off_c, 3, 80, 64
5, 79748, Note_off_c, 3, 87, 64
5, 79752, Note_off_c, 3, 92, 64
5, 79800, Note_on_c, 3, 87, 76
5, 79800, Note_on_c, 3, 84, 76
5, 79800, Note_on_c, 3, 92, 68
5, 79800, Note_on_c, 3, 80, 80
5, 79852, Note_off_c, 3, 84, 64
5, 79856, Note_off_c, 3, 80, 64
5, 79864, Note_off_c, 3, 87, 64
5, 79868, Note_off_c, 3, 92, 64
5, 79920, Note_on_c, 3, 92, 70
5, 79920, Note_on_c, 3, 87, 76
5, 79920, Note_on_c, 3, 80, 78
5, 79920, Note_on_c, 3, 84, 76
5, 79968, Note_off_c, 3, 84, 64
5, 79972, Note_off_c, 3, 80, 64
5, 79976, Note_off_c, 3, 87, 64
5, 79984, Note_off_c, 3, 92, 64
5, 80040, Note_on_c, 3, 87, 98
5, 80040, Note_on_c, 3, 92, 87
5, 80040, Note_on_c, 3, 84, 95
5, 80040, Note_on_c, 3, 80, 91
5, 80148, Note_off_c, 3, 84, 64
5, 80148, Note_off_c, 3, 87, 64
5, 80152, Note_off_c, 3, 92, 64
5, 80164, Note_off_c, 3, 80, 64
5, 80280, Note_on_c, 3, 87, 87
5, 80280, Note_on_c, 3, 92, 80
5, 80280, Note_on_c, 3, 84, 91
5, 80280, Note_on_c, 3, 80, 89
5, 80380, Note_off_c, 3, 84, 64
5, 80388, Note_off_c, 3, 87, 64
5, 80388, Note_off_c, 3, 80, 64
5, 80400, Note_off_c, 3, 92, 64
5, 80520, Note_on_c, 3, 87, 80
5, 80520, Note_on_c, 3, 92, 66
5, 80520, Note_on_c, 3, 84, 80
5, 80520, Note_on_c, 3, 80, 80
5, 80556, Note_off_c, 3, 80, 64
5, 80560, Note_off_c, 3, 84, 64
5, 80564, Note_off_c, 3, 87, 64
5, 80572, Note_off_c, 3, 92, 64
5, 80640, Note_on_c, 3, 87, 68
5, 80640, Note_on_c, 3, 79, 78
5, 80640, Note_on_c, 3, 82, 68
5, 80640, Note_on_c, 3, 75, 85
5, 80712, Note_off_c, 3, 79, 64
5, 80716, Note_off_c, 3, 82, 64
5, 80720, Note_off_c, 3, 87, 64
5, 80720, Note_off_c, 3, 75, 64
5, 80760, Note_on_c, 3, 82, 74
5, 80760, Note_on_c, 3, 79, 72
5, 80760, Note_on_c, 3, 87, 70
5, 80760, Note_on_c, 3, 75, 70
5, 80816, Note_off_c, 3, 79, 64
5, 80820, Note_off_c, 3, 75, 64
5, 80824, Note_off_c, 3, 82, 64
5, 80828, Note_off_c, 3, 87, 64
5, 80880, Note_on_c, 3, 79, 64
5, 80880, Note_on_c, 3, 82, 62
5, 80880, Note_on_c, 3, 87, 57
5, 80880, Note_on_c, 3, 75, 62
5, 80924, Note_off_c, 3, 75, 64
5, 80928, Note_off_c, 3, 79, 64
5, 80932, Note_off_c, 3, 82, 64
5, 80940, Note_off_c, 3, 87, 64
5, 81000, Note_on_c, 3, 82, 80
5, 81000, Note_on_c, 3, 79, 80
5, 81000, Note_on_c, 3, 75, 82
5, 81000, Note_on_c, 3, 87, 80
5, 81104, Note_off_c, 3, 79, 64
5, 81112, Note_off_c, 3, 82, 64
5, 81112, Note_off_c, 3, 75, 64
5, 81124, Note_off_c, 3, 87, 64
5, 81240, Note_on_c, 3, 51, 64
5, 81344, Note_off_c, 3, 51, 64
5, 81360, Note_on_c, 3, 87, 70
5, 81360, Note_on_c, 3, 82, 76
5, 81360, Note_on_c, 3, 79, 78
5, 81360, Note_on_c, 3, 75, 72
5, 81416, Note_off_c, 3, 75, 64
5, 81420, Note_off_c, 3, 79, 64
5, 81432, Note_off_c, 3, 82, 64
5, 81436, Note_off_c, 3, 87, 64
5, 81480, Note_on_c, 3, 82, 78
5, 81480, Note_on_c, 3, 75, 74
5, 81480, Note_on_c, 3, 87, 80
5, 81480, Note_on_c, 3, 79, 62
5, 81536, Note_off_c, 3, 79, 64
5, 81540, Note_off_c, 3, 82, 64
5, 81548, Note_off_c, 3, 75, 64
5, 81548, Note_off_c, 3, 87, 64
5, 81612, Note_on_c, 3, 89, 74
5, 81612, Note_on_c, 3, 84, 74
5, 81612, Note_on_c, 3, 81, 78
5, 81612, Note_on_c, 3, 77, 87
5, 81680, Note_off_c, 3, 81, 64
5, 81684, Note_off_c, 3, 84, 64
5, 81684, Note_off_c, 3, 77, 64
5, 81688, Note_off_c, 3, 89, 64
5, 81728, Note_on_c, 3, 89, 70
5, 81728, Note_on_c, 3, 81, 72
5, 81728, Note_on_c, 3, 84, 70
5, 81732, Note_on_c, 3, 77, 66
5, 81776, Note_off_c, 3, 81, 64
5, 81780, Note_off_c, 3, 84, 64
5, 81780, Note_off_c, 3, 77, 64
5, 81792, Note_off_c, 3, 89, 64
5, 81836, Note_on_c, 3, 84, 68
5, 81836, Note_on_c, 3, 81, 74
5, 81840, Note_on_c, 3, 89, 63
5, 81852, Note_on_c, 3, 77, 66
5, 81900, Note_off_c, 3, 77, 64
5, 81904, Note_off_c, 3, 81, 64
5, 81912, Note_off_c, 3, 84, 64
5, 81920, Note_off_c, 3, 89, 64
5, 81980, Note_on_c, 3, 84, 80
5, 81980, Note_on_c, 3, 89, 70
5, 81980, Note_on_c, 3, 81, 78
5, 81984, Note_on_c, 3, 77, 78
5, 82068, Note_off_c, 3, 77, 64
5, 82068, Note_off_c, 3, 81, 64
5, 82068, Note_off_c, 3, 84, 64
5, 82072, Note_off_c, 3, 89, 64
5, 82208, Note_on_c, 3, 84, 87
5, 82208, Note_on_c, 3, 81, 78
5, 82208, Note_on_c, 3, 77, 64
5, 82208, Note_on_c, 3, 89, 76
5, 82292, Note_off_c, 3, 77, 64
5, 82292, Note_off_c, 3, 81, 64
5, 82296, Note_off_c, 3, 84, 64
5, 82304, Note_off_c, 3, 89, 64
5, 82436, Note_on_c, 3, 53, 60
5, 82504, Note_off_c, 3, 53, 64
5, 90240, Note_on_c, 3, 70, 87
5, 90240, Note_on_c, 3, 67, 89
5, 90240, Note_on_c, 3, 63, 98
5, 91068, Note_off_c, 3, 63, 64
5, 91200, Note_on_c, 3, 63, 95
5, 91416, Note_off_c, 3, 67, 64
5, 91680, Note_on_c, 3, 67, 82
5, 91740, Note_off_c, 3, 70, 64
5, 91880, Note_off_c, 3, 63, 64
5, 91880, Note_off_c, 3, 67, 64
5, 91920, Note_on_c, 3, 72, 80
5, 91920, Note_on_c, 3, 69, 89
5, 91920, Note_on_c, 3, 65, 91
5, 93360, Note_on_c, 3, 53, 87
5, 93404, Note_off_c, 3, 65, 64
5, 93472, Note_off_c, 3, 69, 64
5, 93492, Note_off_c, 3, 72, 64
5, 93596, Note_off_c, 3, 53, 64
5, 93600, Note_on_c, 3, 69, 85
5, 93600, Note_on_c, 3, 72, 85
5, 93600, Note_on_c, 3, 65, 68
5, 93844, Note_off_c, 3, 69, 64
5, 93848, Note_off_c, 3, 65, 64
5, 93856, Note_off_c, 3, 72, 64
5, 94080, Note_on_c, 3, 70, 85
5, 94080, Note_on_c, 3, 67, 82
5, 94080, Note_on_c, 3, 63, 82
5, 95280, Note_off_c, 3, 63, 64
5, 95280, Note_on_c, 3, 53, 49
5, 95520, Note_on_c, 3, 63, 62
5, 95524, Note_off_c, 3, 63, 64
5, 95720, Note_off_c, 3, 67, 64
5, 95720, Note_off_c, 3, 70, 64
5, 95720, Note_off_c, 3, 53, 64
5, 95760, Note_on_c, 3, 72, 80
5, 95760, Note_on_c, 3, 69, 89
5, 95760, Note_on_c, 3, 65, 91
5, 97200, Note_on_c, 3, 53, 87
5, 97244, Note_off_c, 3, 65, 64
5, 97312, Note_off_c, 3, 69, 64
5, 97332, Note_off_c, 3, 72, 64
5, 97436, Note_off_c, 3, 53, 64
5, 97440, Note_on_c, 3, 69, 85
5, 97440, Note_on_c, 3, 72, 85
5, 97440, Note_on_c, 3, 65, 68
5, 97684, Note_off_c, 3, 69, 64
5, 97688, Note_off_c, 3, 65, 64
5, 97696, Note_off_c, 3, 72, 64
5, 97920, Note_on_c, 3, 70, 85
5, 97920, Note_on_c, 3, 67, 82
5, 97920, Note_on_c, 3, 63, 82
5, 99120, Note_off_c, 3, 63, 64
5, 99120, Note_on_c, 3, 53, 49
5, 99360, Note_on_c, 3, 63, 62
5, 99364, Note_off_c, 3, 63, 64
5, 99560, Note_off_c, 3, 67, 64
5, 99560, Note_off_c, 3, 70, 64
5, 99560, Note_off_c, 3, 53, 64
5, 99600, Note_on_c, 3, 72, 85
5, 99600, Note_on_c, 3, 69, 82
5, 99600, Note_on_c, 3, 65, 82
5, 101032, Note_off_c, 3, 65, 64
5, 101040, Note_on_c, 3, 53, 49
5, 101280, Note_on_c, 3, 65, 62
5, 101284, Note_off_c, 3, 65, 64
5, 101520, Note_on_c, 3, 65, 102
5, 101688, Note_off_c, 3, 69, 64
5, 101704, Note_off_c, 3, 72, 64
5, 101712, Note_off_c, 3, 65, 64
5, 101728, Note_off_c, 3, 53, 64
5, 101760, Note_on_c, 3, 72, 85
5, 101760, Note_on_c, 3, 69, 82
5, 101760, Note_on_c, 3, 65, 82
5, 102960, Note_off_c, 3, 65, 64
5, 102960, Note_on_c, 3, 53, 49
5, 103200, Note_on_c, 3, 65, 62
5, 103204, Note_off_c, 3, 65, 64
5, 103440, Note_on_c, 3, 65, 102
5, 103616, Note_off_c, 3, 69, 64
5, 103632, Note_off_c, 3, 72, 64
5, 103632, Note_off_c, 3, 65, 64
5, 103648, Note_off_c, 3, 53, 64
5, 103680, Note_on_c, 3, 73, 72
5, 103680, Note_on_c, 3, 68, 72
5, 103680, Note_on_c, 3, 80, 59
5, 103680, Note_on_c, 3, 77, 58
5, 103744, Note_off_c, 3, 73, 64
5, 103752, Note_off_c, 3, 68, 64
5, 103752, Note_off_c, 3, 80, 64
5, 103752, Note_off_c, 3, 77, 64
5, 103800, Note_on_c, 3, 77, 63
5, 103800, Note_on_c, 3, 80, 60
5, 103800, Note_on_c, 3, 73, 63
5, 103800, Note_on_c, 3, 68, 59
5, 103852, Note_off_c, 3, 73, 64
5, 103860, Note_off_c, 3, 77, 64
5, 103860, Note_off_c, 3, 68, 64
5, 103872, Note_off_c, 3, 80, 64
5, 103920, Note_on_c, 3, 77, 63
5, 103920, Note_on_c, 3, 73, 60
5, 103920, Note_on_c, 3, 80, 56
5, 103920, Note_on_c, 3, 68, 60
5, 103968, Note_off_c, 3, 68, 64
5, 103968, Note_off_c, 3, 73, 64
5, 103980, Note_off_c, 3, 77, 64
5, 103980, Note_off_c, 3, 80, 64
5, 104040, Note_on_c, 3, 77, 74
5, 104040, Note_on_c, 3, 80, 66
5, 104040, Note_on_c, 3, 73, 72
5, 104040, Note_on_c, 3, 68, 68
5, 104120, Note_off_c, 3, 73, 64
5, 104124, Note_off_c, 3, 77, 64
5, 104128, Note_off_c, 3, 68, 64
5, 104132, Note_off_c, 3, 80, 64
5, 104280, Note_on_c, 3, 37, 42
5, 104324, Note_off_c, 3, 37, 64
5, 104400, Note_on_c, 3, 77, 80
5, 104400, Note_on_c, 3, 73, 80
5, 104400, Note_on_c, 3, 80, 68
5, 104400, Note_on_c, 3, 68, 74
5, 104448, Note_off_c, 3, 68, 64
5, 104452, Note_off_c, 3, 73, 64
5, 104460, Note_off_c, 3, 77, 64
5, 104464, Note_off_c, 3, 80, 64
5, 104520, Note_on_c, 3, 77, 68
5, 104520, Note_on_c, 3, 73, 60
5, 104520, Note_on_c, 3, 80, 57
5, 104520, Note_on_c, 3, 68, 64
5, 104564, Note_off_c, 3, 68, 64
5, 104564, Note_off_c, 3, 73, 64
5, 104568, Note_off_c, 3, 77, 64
5, 104568, Note_off_c, 3, 80, 64
5, 104640, Note_on_c, 3, 87, 89
5, 104640, Note_on_c, 3, 92, 78
5, 104640, Note_on_c, 3, 84, 91
5, 104640, Note_on_c, 3, 80, 93
5, 104696, Note_off_c, 3, 84, 64
5, 104704, Note_off_c, 3, 80, 64
5, 104708, Note_off_c, 3, 87, 64
5, 104712, Note_off_c, 3, 92, 64
5, 104760, Note_on_c, 3, 87, 76
5, 104760, Note_on_c, 3, 84, 76
5, 104760, Note_on_c, 3, 92, 68
5, 104760, Note_on_c, 3, 80, 80
5, 104812, Note_off_c, 3, 84, 64
5, 104816, Note_off_c, 3, 80, 64
5, 104824, Note_off_c, 3, 87, 64
5, 104828, Note_off_c, 3, 92, 64
5, 104880, Note_on_c, 3, 92, 70
5, 104880, Note_on_c, 3, 87, 76
5, 104880, Note_on_c, 3, 80, 78
5, 104880, Note_on_c, 3, 84, 76
5, 104928, Note_off_c, 3, 84, 64
5, 104932, Note_off_c, 3, 80, 64
5, 104936, Note_off_c, 3, 87, 64
5, 104944, Note_off_c, 3, 92, 64
5, 105000, Note_on_c, 3, 87, 98
5, 105000, Note_on_c, 3, 92, 87
5, 105000, Note_on_c, 3, 84, 95
5, 105000, Note_on_c, 3, 80, 91
5, 105108, Note_off_c, 3, 84, 64
5, 105108, Note_off_c, 3, 87, 64
5, 105112, Note_off_c, 3, 92, 64
5, 105124, Note_off_c, 3, 80, 64
5, 105240, Note_on_c, 3, 87, 87
5, 105240, Note_on_c, 3, 92, 80
5, 105240, Note_on_c, 3, 84, 91
5, 105240, Note_on_c, 3, 80, 89
5, 105340, Note_off_c, 3, 84, 64
5, 105348, Note_off_c, 3, 87, 64
5, 105348, Note_off_c, 3, 80, 64
5, 105360, Note_off_c, 3, 92, 64
5, 105480, Note_on_c, 3, 87, 80
5, 105480, Note_on_c, 3, 92, 66
5, 105480, Note_on_c, 3, 84, 80
5, 105480, Note_on_c, 3, 80, 80
5, 105516, Note_off_c, 3, 80, 64
5, 105520, Note_off_c, 3, 84, 64
5, 105524, Note_off_c, 3, 87, 64
5, 105532, Note_off_c, 3, 92, 64
5, 105600, Note_on_c, 3, 75, 82
5, 105600, Note_on_c, 3, 79, 91
5, 105600, Note_on_c, 3, 82, 82
5, 105600, Note_on_c, 3, 87, 80
5, 105676, Note_off_c, 3, 79, 64
5, 105680, Note_off_c, 3, 82, 64
5, 105684, Note_off_c, 3, 87, 64
5, 105688, Note_off_c, 3, 75, 64
5, 105720, Note_on_c, 3, 82, 68
5, 105720, Note_on_c, 3, 75, 70
5, 105720, Note_on_c, 3, 87, 66
5, 105720, Note_on_c, 3, 79, 66
5, 105784, Note_off_c, 3, 79, 64
5, 105784, Note_off_c, 3, 75, 64
5, 105788, Note_off_c, 3, 82, 64
5, 105792, Note_off_c, 3, 87, 64
5, 105840, Note_on_c, 3, 79, 72
5, 105840, Note_on_c, 3, 82, 72
5, 105840, Note_on_c, 3, 87, 74
5, 105840, Note_on_c, 3, 75, 70
5, 105904, Note_off_c, 3, 75, 64
5, 105908, Note_off_c, 3, 82, 64
5, 105908, Note_off_c, 3, 79, 64
5, 105916, Note_off_c, 3, 87, 64
5, 105960, Note_on_c, 3, 87, 85
5, 105960, Note_on_c, 3, 82, 82
5, 105960, Note_on_c, 3, 79, 80
5, 105960, Note_on_c, 3, 75, 82
5, 106080, Note_off_c, 3, 75, 64
5, 106080, Note_off_c, 3, 79, 64
5, 106080, Note_off_c, 3, 82, 64
5, 106084, Note_off_c, 3, 87, 64
5, 106200, Note_on_c, 3, 75, 80
5, 106200, Note_on_c, 3, 82, 87
5, 106200, Note_on_c, 3, 79, 89
5, 106200, Note_on_c, 3, 87, 87
5, 106288, Note_off_c, 3, 79, 64
5, 106296, Note_off_c, 3, 82, 64
5, 106316, Note_off_c, 3, 75, 64
5, 106316, Note_off_c, 3, 87, 64
5, 106440, Note_on_c, 3, 51, 76
5, 106552, Note_off_c, 3, 51, 64
5, 106560, Note_on_c, 3, 72, 72
5, 106560, Note_on_c, 3, 67, 72
5, 106560, Note_on_c, 3, 79, 59
5, 106560, Note_on_c, 3, 75, 58
5, 106624, Note_off_c, 3, 72, 64
5, 106632, Note_off_c, 3, 67, 64
5, 106632, Note_off_c, 3, 79, 64
5, 106632, Note_off_c, 3, 75, 64
5, 106680, Note_on_c, 3, 75, 63
5, 106680, Note_on_c, 3, 79, 60
5, 106680, Note_on_c, 3, 72, 63
5, 106680, Note_on_c, 3, 67, 59
5, 106732, Note_off_c, 3, 72, 64
5, 106740, Note_off_c, 3, 75, 64
5, 106740, Note_off_c, 3, 67, 64
5, 106752, Note_off_c, 3, 79, 64
5, 106800, Note_on_c, 3, 75, 63
5, 106800, Note_on_c, 3, 72, 60
5, 106800, Note_on_c, 3, 79, 56
5, 106800, Note_on_c, 3, 67, 60
5, 106848, Note_off_c, 3, 67, 64
5, 106848, Note_off_c, 3, 72, 64
5, 106860, Note_off_c, 3, 75, 64
5, 106860, Note_off_c, 3, 79, 64
5, 106920, Note_on_c, 3, 75, 74
5, 106920, Note_on_c, 3, 79, 66
5, 106920, Note_on_c, 3, 72, 72
5, 106920, Note_on_c, 3, 67, 68
5, 107000, Note_off_c, 3, 72, 64
5, 107004, Note_off_c, 3, 75, 64
5, 107008, Note_off_c, 3, 67, 64
5, 107012, Note_off_c, 3, 79, 64
5, 107160, Note_on_c, 3, 36, 42
5, 107204, Note_off_c, 3, 36, 64
5, 107280, Note_on_c, 3, 75, 80
5, 107280, Note_on_c, 3, 72, 80
5, 107280, Note_on_c, 3, 79, 68
5, 107280, Note_on_c, 3, 67, 74
5, 107328, Note_off_c, 3, 67, 64
5, 107332, Note_off_c, 3, 72, 64
5, 107340, Note_off_c, 3, 75, 64
5, 107344, Note_off_c, 3, 79, 64
5, 107400, Note_on_c, 3, 75, 68
5, 107400, Note_on_c, 3, 72, 60
5, 107400, Note_on_c, 3, 79, 57
5, 107400, Note_on_c, 3, 67, 64
5, 107444, Note_off_c, 3, 67, 64
5, 107444, Note_off_c, 3, 72, 64
5, 107448, Note_off_c, 3, 75, 64
5, 107448, Note_off_c, 3, 79, 64
5, 107532, Note_on_c, 3, 80, 74
5, 107532, Note_on_c, 3, 77, 74
5, 107532, Note_on_c, 3, 73, 78
5, 107532, Note_on_c, 3, 68, 87
5, 107600, Note_off_c, 3, 73, 64
5, 107604, Note_off_c, 3, 77, 64
5, 107604, Note_off_c, 3, 68, 64
5, 107608, Note_off_c, 3, 80, 64
5, 107648, Note_on_c, 3, 80, 70
5, 107648, Note_on_c, 3, 73, 72
5, 107648, Note_on_c, 3, 77, 70
5, 107652, Note_on_c, 3, 68, 66
5, 107696, Note_off_c, 3, 73, 64
5, 107700, Note_off_c, 3, 77, 64
5, 107700, Note_off_c, 3, 68, 64
5, 107712, Note_off_c, 3, 80, 64
5, 107756, Note_on_c, 3, 77, 68
5, 107756, Note_on_c, 3, 73, 74
5, 107760, Note_on_c, 3, 80, 63
5, 107772, Note_on_c, 3, 68, 66
5, 107820, Note_off_c, 3, 68, 64
5, 107824, Note_off_c, 3, 73, 64
5, 107832, Note_off_c, 3, 77, 64
5, 107840, Note_off_c, 3, 80, 64
5, 107900, Note_on_c, 3, 77, 80
5, 107900, Note_on_c, 3, 80, 70
5, 107900, Note_on_c, 3, 73, 78
5, 107904, Note_on_c, 3, 68, 78
5, 107988, Note_off_c, 3, 68, 64
5, 107988, Note_off_c, 3, 73, 64
5, 107988, Note_off_c, 3, 77, 64
5, 107992, Note_off_c, 3, 80, 64
5, 108128, Note_on_c, 3, 77, 87
5, 108128, Note_on_c, 3, 73, 78
5, 108128, Note_on_c, 3, 68, 64
5, 108128, Note_on_c, 3, 80, 76
5, 108212, Note_off_c, 3, 68, 64
5, 108212, Note_off_c, 3, 73, 64
5, 108216, Note_off_c, 3, 77, 64
5, 108224, Note_off_c, 3, 80, 64
5, 108356, Note_on_c, 3, 37, 60
5, 108424, Note_off_c, 3, 37, 64
5, 108492, Note_on_c, 3, 92, 74
5, 108492, Note_on_c, 3, 87, 74
5, 108492, Note_on_c, 3, 84, 78
5, 108492, Note_on_c, 3, 80, 87
5, 108560, Note_off_c, 3, 84, 64
5, 108564, Note_off_c, 3, 87, 64
5, 108564, Note_off_c, 3, 80, 64
5, 108568, Note_off_c, 3, 92, 64
5, 108608, Note_on_c, 3, 92, 70
5, 108608, Note_on_c, 3, 84, 72
5, 108608, Note_on_c, 3, 87, 70
5, 108612, Note_on_c, 3, 80, 66
5, 108656, Note_off_c, 3, 84, 64
5, 108660, Note_off_c, 3, 87, 64
5, 108660, Note_off_c, 3, 80, 64
5, 108672, Note_off_c, 3, 92, 64
5, 108716, Note_on_c, 3, 87, 68
5, 108716, Note_on_c, 3, 84, 74
5, 108720, Note_on_c, 3, 92, 63
5, 108732, Note_on_c, 3, 80, 66
5, 108780, Note_off_c, 3, 80, 64
5, 108784, Note_off_c, 3, 84, 64
5, 108792, Note_off_c, 3, 87, 64
5, 108800, Note_off_c, 3, 92, 64
5, 108860, Note_on_c, 3, 87, 80
5, 108860, Note_on_c, 3, 92, 70
5, 108860, Note_on_c, 3, 84, 78
5, 108864, Note_on_c, 3, 80, 78
5, 108948, Note_off_c, 3, 80, 64
5, 108948, Note_off_c, 3, 84, 64
5, 108948, Note_off_c, 3, 87, 64
5, 108952, Note_off_c, 3, 92, 64
5, 109088, Note_on_c, 3, 87, 87
5, 109088, Note_on_c, 3, 84, 78
5, 109088, Note_on_c, 3, 80, 64
5, 109088, Note_on_c, 3, 92, 76
5, 109172, Note_off_c, 3, 80, 64
5, 109172, Note_off_c, 3, 84, 64
5, 109176, Note_off_c, 3, 87, 64
5, 109184, Note_off_c, 3, 92, 64
5, 109316, Note_on_c, 3, 44, 60
5, 109384, Note_off_c, 3, 44, 64
5, 109452, Note_on_c, 3, 87, 74
5, 109452, Note_on_c, 3, 82, 74
5, 109452, Note_on_c, 3, 79, 78
5, 109452, Note_on_c, 3, 75, 87
5, 109520, Note_off_c, 3, 79, 64
5, 109524, Note_off_c, 3, 82, 64
5, 109524, Note_off_c, 3, 75, 64
5, 109528, Note_off_c, 3, 87, 64
5, 109568, Note_on_c, 3, 87, 70
5, 109568, Note_on_c, 3, 79, 72
5, 109568, Note_on_c, 3, 82, 70
5, 109572, Note_on_c, 3, 75, 66
5, 109616, Note_off_c, 3, 79, 64
5, 109620, Note_off_c, 3, 82, 64
5, 109620, Note_off_c, 3, 75, 64
5, 109632, Note_off_c, 3, 87, 64
5, 109676, Note_on_c, 3, 82, 68
5, 109676, Note_on_c, 3, 79, 74
5, 109680, Note_on_c, 3, 87, 63
5, 109692, Note_on_c, 3, 75, 66
5, 109740, Note_off_c, 3, 75, 64
5, 109744, Note_off_c, 3, 79, 64
5, 109752, Note_off_c, 3, 82, 64
5, 109760, Note_off_c, 3, 87, 64
5, 109820, Note_on_c, 3, 82, 80
5, 109820, Note_on_c, 3, 87, 70
5, 109820, Note_on_c, 3, 79, 78
5, 109824, Note_on_c, 3, 75, 78
5, 109908, Note_off_c, 3, 75, 64
5, 109908, Note_off_c, 3, 79, 64
5, 109908, Note_off_c, 3, 82, 64
5, 109912, Note_off_c, 3, 87, 64
5, 110048, Note_on_c, 3, 82, 87
5, 110048, Note_on_c, 3, 79, 78
5, 110048, Note_on_c, 3, 75, 64
5, 110048, Note_on_c, 3, 87, 76
5, 110132, Note_off_c, 3, 75, 64
5, 110132, Note_off_c, 3, 79, 64
5, 110136, Note_off_c, 3, 82, 64
5, 110144, Note_off_c, 3, 87, 64
5, 110276, Note_on_c, 3, 51, 60
5, 110344, Note_off_c, 3, 51, 64
5, 110400, Note_on_c, 3, 67, 82
5, 110400, Note_on_c, 3, 72, 91
5, 110400, Note_on_c, 3, 75, 82
5, 110400, Note_on_c, 3, 79, 80
5, 110476, Note_off_c, 3, 72, 64
5, 110480, Note_off_c, 3, 75, 64
5, 110484, Note_off_c, 3, 79, 64
5, 110488, Note_off_c, 3, 67, 64
5, 110520, Note_on_c, 3, 75, 68
5, 110520, Note_on_c, 3, 67, 70
5, 110520, Note_on_c, 3, 79, 66
5, 110520, Note_on_c, 3, 72, 66
5, 110584, Note_off_c, 3, 72, 64
5, 110584, Note_off_c, 3, 67, 64
5, 110588, Note_off_c, 3, 75, 64
5, 110592, Note_off_c, 3, 79, 64
5, 110640, Note_on_c, 3, 72, 72
5, 110640, Note_on_c, 3, 75, 72
5, 110640, Note_on_c, 3, 79, 74
5, 110640, Note_on_c, 3, 67, 70
5, 110704, Note_off_c, 3, 67, 64
5, 110708, Note_off_c, 3, 75, 64
5, 110708, Note_off_c, 3, 72, 64
5, 110716, Note_off_c, 3, 79, 64
5, 110760, Note_on_c, 3, 79, 85
5, 110760, Note_on_c, 3, 75, 82
5, 110760, Note_on_c, 3, 72, 80
5, 110760, Note_on_c, 3, 67, 82
5, 110880, Note_off_c, 3, 67, 64
5, 110880, Note_off_c, 3, 72, 64
5, 110880, Note_off_c, 3, 75, 64
5, 110884, Note_off_c, 3, 79, 64
5, 111000, Note_on_c, 3, 67, 80
5, 111000, Note_on_c, 3, 75, 87
5, 111000, Note_on_c, 3, 72, 89
5, 111000, Note_on_c, 3, 79, 87
5, 111088, Note_off_c, 3, 72, 64
5, 111096, Note_off_c, 3, 75, 64
5, 111116, Note_off_c, 3, 67, 64
5, 111116, Note_off_c, 3, 79, 64
5, 111240, Note_on_c, 3, 36, 76
5, 111352, Note_off_c, 3, 36, 64
5, 111360, Note_on_c, 3, 77, 89
5, 111360, Note_on_c, 3, 80, 78
5, 111360, Note_on_c, 3, 73, 91
5, 111360, Note_on_c, 3, 68, 93
5, 111416, Note_off_c, 3, 73, 64
5, 111424, Note_off_c, 3, 68, 64
5, 111428, Note_off_c, 3, 77, 64
5, 111432, Note_off_c, 3, 80, 64
5, 111480, Note_on_c, 3, 77, 76
5, 111480, Note_on_c, 3, 73, 76
5, 111480, Note_on_c, 3, 80, 68
5, 111480, Note_on_c, 3, 68, 80
5, 111532, Note_off_c, 3, 73, 64
5, 111536, Note_off_c, 3, 68, 64
5, 111544, Note_off_c, 3, 77, 64
5, 111548, Note_off_c, 3, 80, 64
5, 111600, Note_on_c, 3, 80, 70
5, 111600, Note_on_c, 3, 77, 76
5, 111600, Note_on_c, 3, 68, 78
5, 111600, Note_on_c, 3, 73, 76
5, 111648, Note_off_c, 3, 73, 64
5, 111652, Note_off_c, 3, 68, 64
5, 111656, Note_off_c, 3, 77, 64
5, 111664, Note_off_c, 3, 80, 64
5, 111720, Note_on_c, 3, 77, 98
5, 111720, Note_on_c, 3, 80, 87
5, 111720, Note_on_c, 3, 73, 95
5, 111720, Note_on_c, 3, 68, 91
5, 111828, Note_off_c, 3, 73, 64
5, 111828, Note_off_c, 3, 77, 64
5, 111832, Note_off_c, 3, 80, 64
5, 111844, Note_off_c, 3, 68, 64
5, 111960, Note_on_c, 3, 77, 87
5, 111960, Note_on_c, 3, 80, 80
5, 111960, Note_on_c, 3, 73, 91
5, 111960, Note_on_c, 3, 68, 89
5, 112060, Note_off_c, 3, 73, 64
5, 112068, Note_off_c, 3, 77, 64
5, 112068, Note_off_c, 3, 68, 64
5, 112080, Note_off_c, 3, 80, 64
5, 112200, Note_on_c, 3, 77, 80
5, 112200, Note_on_c, 3, 80, 66
5, 112200, Note_on_c, 3, 73, 80
5, 112200, Note_on_c, 3, 68, 80
5, 112236, Note_off_c, 3, 68, 64
5, 112240, Note_off_c, 3, 73, 64
5, 112244, Note_off_c, 3, 77, 64
5, 112252, Note_off_c, 3, 80, 64
5, 112320, Note_on_c, 3, 87, 89
5, 112320, Note_on_c, 3, 92, 78
5, 112320, Note_on_c, 3, 84, 91
5, 112320, Note_on_c, 3, 80, 93
5, 112376, Note_off_c, 3, 84, 64
5, 112384, Note_off_c, 3, 80, 64
5, 112388, Note_off_c, 3, 87, 64
5, 112392, Note_off_c, 3, 92, 64
5, 112440, Note_on_c, 3, 87, 76
5, 112440, Note_on_c, 3, 84, 76
5, 112440, Note_on_c, 3, 92, 68
5, 112440, Note_on_c, 3, 80, 80
5, 112492, Note_off_c, 3, 84, 64
5, 112496, Note_off_c, 3, 80, 64
5, 112504, Note_off_c, 3, 87, 64
5, 112508, Note_off_c, 3, 92, 64
5, 112560, Note_on_c, 3, 92, 70
5, 112560, Note_on_c, 3, 87, 76
5, 112560, Note_on_c, 3, 80, 78
5, 112560, Note_on_c, 3, 84, 76
5, 112608, Note_off_c, 3, 84, 64
5, 112612, Note_off_c, 3, 80, 64
5, 112616, Note_off_c, 3, 87, 64
5, 112624, Note_off_c, 3, 92, 64
5, 112680, Note_on_c, 3, 87, 98
5, 112680, Note_on_c, 3, 92, 87
5, 112680, Note_on_c, 3, 84, 95
5, 112680, Note_on_c, 3, 80, 91
5, 112788, Note_off_c, 3, 84, 64
5, 112788, Note_off_c, 3, 87, 64
5, 112792, Note_off_c, 3, 92, 64
5, 112804, Note_off_c, 3, 80, 64
5, 112920, Note_on_c, 3, 87, 87
5, 112920, Note_on_c, 3, 92, 80
5, 112920, Note_on_c, 3, 84, 91
5, 112920, Note_on_c, 3, 80, 89
5, 113020, Note_off_c, 3, 84, 64
5, 113028, Note_off_c, 3, 87, 64
5, 113028, Note_off_c, 3, 80, 64
5, 113040, Note_off_c, 3, 92, 64
5, 113160, Note_on_c, 3, 87, 80
5, 113160, Note_on_c, 3, 92, 66
5, 113160, Note_on_c, 3, 84, 80
5, 113160, Note_on_c, 3, 80, 80
5, 113196, Note_off_c, 3, 80, 64
5, 113200, Note_off_c, 3, 84, 64
5, 113204, Note_off_c, 3, 87, 64
5, 113212, Note_off_c, 3, 92, 64
5, 113280, Note_on_c, 3, 87, 68
5, 113280, Note_on_c, 3, 79, 78
5, 113280, Note_on_c, 3, 82, 68
5, 113280, Note_on_c, 3, 75, 85
5, 113352, Note_off_c, 3, 79, 64
5, 113356, Note_off_c, 3, 82, 64
5, 113360, Note_off_c, 3, 87, 64
5, 113360, Note_off_c, 3, 75, 64
5, 113400, Note_on_c, 3, 82, 74
5, 113400, Note_on_c, 3, 79, 72
5, 113400, Note_on_c, 3, 87, 70
5, 113400, Note_on_c, 3, 75, 70
5, 113456, Note_off_c, 3, 79, 64
5, 113460, Note_off_c, 3, 75, 64
5, 113464, Note_off_c, 3, 82, 64
5, 113468, Note_off_c, 3, 87, 64
5, 113520, Note_on_c, 3, 79, 64
5, 113520, Note_on_c, 3, 82, 62
5, 113520, Note_on_c, 3, 87, 57
5, 113520, Note_on_c, 3, 75, 62
5, 113564, Note_off_c, 3, 75, 64
5, 113568, Note_off_c, 3, 79, 64
5, 113572, Note_off_c, 3, 82, 64
5, 113580, Note_off_c, 3, 87, 64
5, 113640, Note_on_c, 3, 82, 80
5, 113640, Note_on_c, 3, 79, 80
5, 113640, Note_on_c, 3, 75, 82
5, 113640, Note_on_c, 3, 87, 80
5, 113744, Note_off_c, 3, 79, 64
5, 113752, Note_off_c, 3, 82, 64
5, 113752, Note_off_c, 3, 75, 64
5, 113764, Note_off_c, 3, 87, 64
5, 113880, Note_on_c, 3, 51, 64
5, 113984, Note_off_c, 3, 51, 64
5, 114000, Note_on_c, 3, 87, 70
5, 114000, Note_on_c, 3, 82, 76
5, 114000, Note_on_c, 3, 79, 78
5, 114000, Note_on_c, 3, 75, 72
5, 114056, Note_off_c, 3, 75, 64
5, 114060, Note_off_c, 3, 79, 64
5, 114072, Note_off_c, 3, 82, 64
5, 114076, Note_off_c, 3, 87, 64
5, 114120, Note_on_c, 3, 82, 78
5, 114120, Note_on_c, 3, 75, 74
5, 114120, Note_on_c, 3, 87, 80
5, 114120, Note_on_c, 3, 79, 62
5, 114176, Note_off_c, 3, 79, 64
5, 114180, Note_off_c, 3, 82, 64
5, 114188, Note_off_c, 3, 75, 64
5, 114188, Note_off_c, 3, 87, 64
5, 114240, Note_on_c, 3, 79, 72
5, 114240, Note_on_c, 3, 75, 72
5, 114240, Note_on_c, 3, 87, 59
5, 114240, Note_on_c, 3, 82, 58
5, 114304, Note_off_c, 3, 79, 64
5, 114312, Note_off_c, 3, 75, 64
5, 114312, Note_off_c, 3, 87, 64
5, 114312, Note_off_c, 3, 82, 64
5, 114360, Note_on_c, 3, 82, 63
5, 114360, Note_on_c, 3, 87, 60
5, 114360, Note_on_c, 3, 79, 63
5, 114360, Note_on_c, 3, 75, 59
5, 114412, Note_off_c, 3, 79, 64
5, 114420, Note_off_c, 3, 82, 64
5, 114420, Note_off_c, 3, 75, 64
5, 114432, Note_off_c, 3, 87, 64
5, 114600, Note_on_c, 3, 81, 72
5, 114600, Note_on_c, 3, 77, 72
5, 114600, Note_on_c, 3, 89, 59
5, 114600, Note_on_c, 3, 84, 58
5, 114776, Note_off_c, 3, 81, 64
5, 114784, Note_off_c, 3, 77, 64
5, 114784, Note_off_c, 3, 89, 64
5, 114784, Note_off_c, 3, 84, 64
5, 114840, Note_on_c, 3, 84, 63
5, 114840, Note_on_c, 3, 89, 60
5, 114840, Note_on_c, 3, 81, 63
5, 114840, Note_on_c, 3, 77, 59
5, 114892, Note_off_c, 3, 81, 64
5, 114900, Note_off_c, 3, 84, 64
5, 114900, Note_off_c, 3, 77, 64
5, 114912, Note_off_c, 3, 89, 64
5, 114960, Note_on_c, 3, 84, 63
5, 114960, Note_on_c, 3, 81, 60
5, 114960, Note_on_c, 3, 89, 56
5, 114960, Note_on_c, 3, 77, 60
5, 115008, Note_off_c, 3, 77, 64
5, 115008, Note_off_c, 3, 81, 64
5, 115020, Note_off_c, 3, 84, 64
5, 115020, Note_off_c, 3, 89, 64
5, 115080, Note_on_c, 3, 84, 74
5, 115080, Note_on_c, 3, 89, 66
5, 115080, Note_on_c, 3, 81, 72
5, 115080, Note_on_c, 3, 77, 68
5, 115160, Note_off_c, 3, 81, 64
5, 115164, Note_off_c, 3, 84, 64
5, 115168, Note_off_c, 3, 77, 64
5, 115172, Note_off_c, 3, 89, 64
5, 122880, Note_on_c, 3, 70, 80
5, 122880, Note_on_c, 3, 67, 89
5, 122880, Note_on_c, 3, 63, 91
5, 124080, Note_on_c, 3, 53, 87
5, 124132, Note_off_c, 3, 63, 64
5, 124200, Note_off_c, 3, 67, 64
5, 124220, Note_off_c, 3, 70, 64
5, 124316, Note_off_c, 3, 53, 64
5, 124320, Note_on_c, 3, 67, 85
5, 124320, Note_on_c, 3, 70, 85
5, 124320, Note_on_c, 3, 63, 68
5, 124520, Note_off_c, 3, 63, 64
5, 124520, Note_off_c, 3, 70, 64
5, 124520, Note_off_c, 3, 67, 64
5, 124560, Note_on_c, 3, 53, 66
5, 124560, Note_on_c, 3, 77, 78
5, 124560, Note_on_c, 3, 65, 64
5, 124560, Note_on_c, 3, 72, 82
5, 124560, Note_on_c, 3, 69, 70
5, 126172, Note_off_c, 3, 65, 64
5, 126240, Note_on_c, 3, 65, 91
5, 126664, Note_off_c, 3, 72, 64
5, 126664, Note_off_c, 3, 69, 64
5, 126676, Note_off_c, 3, 65, 64
5, 126684, Note_off_c, 3, 77, 64
5, 126696, Note_off_c, 3, 53, 64
5, 126720, Note_on_c, 3, 63, 100
5, 126720, Note_on_c, 3, 58, 100
5, 126720, Note_on_c, 3, 55, 100
5, 127920, Note_on_c, 3, 53, 80
5, 128028, Note_off_c, 3, 55, 64
5, 128028, Note_off_c, 3, 58, 64
5, 128028, Note_off_c, 3, 63, 64
5, 128156, Note_off_c, 3, 53, 64
5, 128160, Note_on_c, 3, 63, 98
5, 128160, Note_on_c, 3, 58, 98
5, 128160, Note_on_c, 3, 55, 98
5, 128360, Note_off_c, 3, 55, 64
5, 128360, Note_off_c, 3, 58, 64
5, 128360, Note_off_c, 3, 63, 64
5, 128400, Note_on_c, 3, 72, 85
5, 128400, Note_on_c, 3, 69, 82
5, 128400, Note_on_c, 3, 65, 82
5, 129832, Note_off_c, 3, 65, 64
5, 129840, Note_on_c, 3, 53, 49
5, 130080, Note_on_c, 3, 65, 62
5, 130084, Note_off_c, 3, 65, 64
5, 130320, Note_on_c, 3, 65, 102
5, 130488, Note_off_c, 3, 69, 64
5, 130504, Note_off_c, 3, 72, 64
5, 130512, Note_off_c, 3, 65, 64
5, 130528, Note_off_c, 3, 53, 64
5, 130560, Note_on_c, 3, 70, 85
5, 130560, Note_on_c, 3, 53, 59
5, 130560, Note_on_c, 3, 67, 85
5, 130560, Note_on_c, 3, 63, 66
5, 131340, Control_c, 3, 64, 127
5, 131492, Note_off_c, 3, 63, 64
5, 131492, Note_off_c, 3, 67, 64
5, 131508, Note_off_c, 3, 70, 64
5, 131648, Note_off_c, 3, 53, 64
5, 132000, Note_on_c, 3, 79, 95
5, 132080, Control_c, 3, 64, 0
5, 132148, Note_off_c, 3, 79, 64
5, 132240, Note_on_c, 3, 72, 87
5, 132240, Note_on_c, 3, 69, 89
5, 132240, Note_on_c, 3, 65, 98
5, 133300, Note_off_c, 3, 65, 64
5, 133440, Note_on_c, 3, 65, 95
5, 133648, Note_off_c, 3, 69, 64
5, 133920, Note_on_c, 3, 69, 82
5, 133972, Note_off_c, 3, 72, 64
5, 134160, Note_on_c, 3, 72, 89
5, 134280, Note_off_c, 3, 72, 64
5, 134284, Note_off_c, 3, 69, 64
5, 134332, Note_off_c, 3, 65, 64
5, 134400, Note_on_c, 3, 72, 89
5, 134400, Note_on_c, 3, 65, 78
5, 134400, Note_on_c, 3, 69, 93
5, 135324, Note_off_c, 3, 65, 64
5, 135328, Note_off_c, 3, 72, 64
5, 135328, Note_off_c, 3, 69, 64
5, 136320, Note_on_c, 3, 73, 72
5, 136320, Note_on_c, 3, 68, 72
5, 136320, Note_on_c, 3, 80, 59
5, 136320, Note_on_c, 3, 77, 58
5, 136384, Note_off_c, 3, 73, 64
5, 136392, Note_off_c, 3, 68, 64
5, 136392, Note_off_c, 3, 80, 64
5, 136392, Note_off_c, 3, 77, 64
5, 136440, Note_on_c, 3, 77, 63
5, 136440, Note_on_c, 3, 80, 60
5, 136440, Note_on_c, 3, 73, 63
5, 136440, Note_on_c, 3, 68, 59
5, 136492, Note_off_c, 3, 73, 64
5, 136500, Note_off_c, 3, 77, 64
5, 136500, Note_off_c, 3, 68, 64
5, 136512, Note_off_c, 3, 80, 64
5, 136560, Note_on_c, 3, 77, 63
5, 136560, Note_on_c, 3, 73, 60
5, 136560, Note_on_c, 3, 80, 56
5, 136560, Note_on_c, 3, 68, 60
5, 136608, Note_off_c, 3, 68, 64
5, 136608, Note_off_c, 3, 73, 64
5, 136620, Note_off_c, 3, 77, 64
5, 136620, Note_off_c, 3, 80, 64
5, 136680, Note_on_c, 3, 77, 74
5, 136680, Note_on_c, 3, 80, 66
5, 136680, Note_on_c, 3, 73, 72
5, 136680, Note_on_c, 3, 68, 68
5, 136760, Note_off_c, 3, 73, 64
5, 136764, Note_off_c, 3, 77, 64
5, 136768, Note_off_c, 3, 68, 64
5, 136772, Note_off_c, 3, 80, 64
5, 136920, Note_on_c, 3, 37, 42
5, 136964, Note_off_c, 3, 37, 64
5, 137040, Note_on_c, 3, 77, 80
5, 137040, Note_on_c, 3, 73, 80
5, 137040, Note_on_c, 3, 80, 68
5, 137040, Note_on_c, 3, 68, 74
5, 137088, Note_off_c, 3, 68, 64
5, 137092, Note_off_c, 3, 73, 64
5, 137100, Note_off_c, 3, 77, 64
5, 137104, Note_off_c, 3, 80, 64
5, 137160, Note_on_c, 3, 77, 68
5, 137160, Note_on_c, 3, 73, 60
5, 137160, Note_on_c, 3, 80, 57
5, 137160, Note_on_c, 3, 68, 64
5, 137204, Note_off_c, 3, 68, 64
5, 137204, Note_off_c, 3, 73, 64
5, 137208, Note_off_c, 3, 77, 64
5, 137208, Note_off_c, 3, 80, 64
5, 137280, Note_on_c, 3, 87, 89
5, 137280, Note_on_c, 3, 92, 78
5, 137280, Note_on_c, 3, 84, 91
5, 137280, Note_on_c, 3, 80, 93
5, 137336, Note_off_c, 3, 84, 64
5, 137344, Note_off_c, 3, 80, 64
5, 137348, Note_off_c, 3, 87, 64
5, 137352, Note_off_c, 3, 92, 64
5, 137400, Note_on_c, 3, 87, 76
5, 137400, Note_on_c, 3, 84, 76
5, 137400, Note_on_c, 3, 92, 68
5, 137400, Note_on_c, 3, 80, 80
5, 137452, Note_off_c, 3, 84, 64
5, 137456, Note_off_c, 3, 80, 64
5, 137464, Note_off_c, 3, 87, 64
5, 137468, Note_off_c, 3, 92, 64
5, 137520, Note_on_c, 3, 92, 70
5, 137520, Note_on_c, 3, 87, 76
5, 137520, Note_on_c, 3, 80, 78
5, 137520, Note_on_c, 3, 84, 76
5, 137568, Note_off_c, 3, 84, 64
5, 137572, Note_off_c, 3, 80, 64
5, 137576, Note_off_c, 3, 87, 64
5, 137584, Note_off_c, 3, 92, 64
5, 137640, Note_on_c, 3, 87, 98
5, 137640, Note_on_c, 3, 92, 87
5, 137640, Note_on_c, 3, 84, 95
5, 137640, Note_on_c, 3, 80, 91
5, 137748, Note_off_c, 3, 84, 64
5, 137748, Note_off_c, 3, 87, 64
5, 137752, Note_off_c, 3, 92, 64
5, 137764, Note_off_c, 3, 80, 64
5, 137880, Note_on_c, 3, 87, 87
5, 137880, Note_on_c, 3, 92, 80
5, 137880, Note_on_c, 3, 84, 91
5, 137880, Note_on_c, 3, 80, 89
5, 137980, Note_off_c, 3, 84, 64
5, 137988, Note_off_c, 3, 87, 64
5, 137988, Note_off_c, 3, 80, 64
5, 138000, Note_off_c, 3, 92, 64
5, 138120, Note_on_c, 3, 87, 80
5, 138120, Note_on_c, 3, 92, 66
5, 138120, Note_on_c, 3, 84, 80
5, 138120, Note_on_c, 3, 80, 80
5, 138156, Note_off_c, 3, 80, 64
5, 138160, Note_off_c, 3, 84, 64
5, 138164, Note_off_c, 3, 87, 64
5, 138172, Note_off_c, 3, 92, 64
5, 138240, Note_on_c, 3, 87, 68
5, 138240, Note_on_c, 3, 79, 78
5, 138240, Note_on_c, 3, 82, 68
5, 138240, Note_on_c, 3, 75, 85
5, 138312, Note_off_c, 3, 79, 64
5, 138316, Note_off_c, 3, 82, 64
5, 138320, Note_off_c, 3, 87, 64
5, 138320, Note_off_c, 3, 75, 64
5, 138360, Note_on_c, 3, 82, 74
5, 138360, Note_on_c, 3, 79, 72
5, 138360, Note_on_c, 3, 87, 70
5, 138360, Note_on_c, 3, 75, 70
5, 138416, Note_off_c, 3, 79, 64
5, 138420, Note_off_c, 3, 75, 64
5, 138424, Note_off_c, 3, 82, 64
5, 138428, Note_off_c, 3, 87, 64
5, 138480, Note_on_c, 3, 79, 64
5, 138480, Note_on_c, 3, 82, 62
5, 138480, Note_on_c, 3, 87, 57
5, 138480, Note_on_c, 3, 75, 62
5, 138524, Note_off_c, 3, 75, 64
5, 138528, Note_off_c, 3, 79, 64
5, 138532, Note_off_c, 3, 82, 64
5, 138540, Note_off_c, 3, 87, 64
5, 138600, Note_on_c, 3, 82, 80
5, 138600, Note_on_c, 3, 79, 80
5, 138600, Note_on_c, 3, 75, 82
5, 138600, Note_on_c, 3, 87, 80
5, 138704, Note_off_c, 3, 79, 64
5, 138712, Note_off_c, 3, 82, 64
5, 138712, Note_off_c, 3, 75, 64
5, 138724, Note_off_c, 3, 87, 64
5, 138840, Note_on_c, 3, 51, 64
5, 138944, Note_off_c, 3, 51, 64
5, 138960, Note_on_c, 3, 87, 70
5, 138960, Note_on_c, 3, 82, 76
5, 138960, Note_on_c, 3, 79, 78
5, 138960, Note_on_c, 3, 75, 72
5, 139016, Note_off_c, 3, 75, 64
5, 139020, Note_off_c, 3, 79, 64
5, 139032, Note_off_c, 3, 82, 64
5, 139036, Note_off_c, 3, 87, 64
5, 139080, Note_on_c, 3, 82, 78
5, 139080, Note_on_c, 3, 75, 74
5, 139080, Note_on_c, 3, 87, 80
5, 139080, Note_on_c, 3, 79, 62
5, 139136, Note_off_c, 3, 79, 64
5, 139140, Note_off_c, 3, 82, 64
5, 139148, Note_off_c, 3, 75, 64
5, 139148, Note_off_c, 3, 87, 64
5, 139200, Note_on_c, 3, 67, 82
5, 139200, Note_on_c, 3, 72, 91
5, 139200, Note_on_c, 3, 75, 82
5, 139200, Note_on_c, 3, 79, 80
5, 139276, Note_off_c, 3, 72, 64
5, 139280, Note_off_c, 3, 75, 64
5, 139284, Note_off_c, 3, 79, 64
5, 139288, Note_off_c, 3, 67, 64
5, 139320, Note_on_c, 3, 75, 68
5, 139320, Note_on_c, 3, 67, 70
5, 139320, Note_on_c, 3, 79, 66
5, 139320, Note_on_c, 3, 72, 66
5, 139384, Note_off_c, 3, 72, 64
5, 139384, Note_off_c, 3, 67, 64
5, 139388, Note_off_c, 3, 75, 64
5, 139392, Note_off_c, 3, 79, 64
5, 139440, Note_on_c, 3, 72, 72
5, 139440, Note_on_c, 3, 75, 72
5, 139440, Note_on_c, 3, 79, 74
5, 139440, Note_on_c, 3, 67, 70
5, 139504, Note_off_c, 3, 67, 64
5, 139508, Note_off_c, 3, 75, 64
5, 139508, Note_off_c, 3, 72, 64
5, 139516, Note_off_c, 3, 79, 64
5, 139560, Note_on_c, 3, 79, 85
5, 139560, Note_on_c, 3, 75, 82
5, 139560, Note_on_c, 3, 72, 80
5, 139560, Note_on_c, 3, 67, 82
5, 139680, Note_off_c, 3, 67, 64
5, 139680, Note_off_c, 3, 72, 64
5, 139680, Note_off_c, 3, 75, 64
5, 139684, Note_off_c, 3, 79, 64
5, 139800, Note_on_c, 3, 67, 80
5, 139800, Note_on_c, 3, 75, 87
5, 139800, Note_on_c, 3, 72, 89
5, 139800, Note_on_c, 3, 79, 87
5, 139888, Note_off_c, 3, 72, 64
5, 139896, Note_off_c, 3, 75, 64
5, 139916, Note_off_c, 3, 67, 64
5, 139916, Note_off_c, 3, 79, 64
5, 140040, Note_on_c, 3, 36, 76
5, 140152, Note_off_c, 3, 36, 64
5, 140172, Note_on_c, 3, 80, 74
5, 140172, Note_on_c, 3, 77, 74
5, 140172, Note_on_c, 3, 73, 78
5, 140172, Note_on_c, 3, 68, 87
5, 140240, Note_off_c, 3, 73, 64
5, 140244, Note_off_c, 3, 77, 64
5, 140244, Note_off_c, 3, 68, 64
5, 140248, Note_off_c, 3, 80, 64
5, 140288, Note_on_c, 3, 80, 70
5, 140288, Note_on_c, 3, 73, 72
5, 140288, Note_on_c, 3, 77, 70
5, 140292, Note_on_c, 3, 68, 66
5, 140336, Note_off_c, 3, 73, 64
5, 140340, Note_off_c, 3, 77, 64
5, 140340, Note_off_c, 3, 68, 64
5, 140352, Note_off_c, 3, 80, 64
5, 140396, Note_on_c, 3, 77, 68
5, 140396, Note_on_c, 3, 73, 74
5, 140400, Note_on_c, 3, 80, 63
5, 140412, Note_on_c, 3, 68, 66
5, 140460, Note_off_c, 3, 68, 64
5, 140464, Note_off_c, 3, 73, 64
5, 140472, Note_off_c, 3, 77, 64
5, 140480, Note_off_c, 3, 80, 64
5, 140540, Note_on_c, 3, 77, 80
5, 140540, Note_on_c, 3, 80, 70
5, 140540, Note_on_c, 3, 73, 78
5, 140544, Note_on_c, 3, 68, 78
5, 140628, Note_off_c, 3, 68, 64
5, 140628, Note_off_c, 3, 73, 64
5, 140628, Note_off_c, 3, 77, 64
5, 140632, Note_off_c, 3, 80, 64
5, 140768, Note_on_c, 3, 77, 87
5, 140768, Note_on_c, 3, 73, 78
5, 140768, Note_on_c, 3, 68, 64
5, 140768, Note_on_c, 3, 80, 76
5, 140852, Note_off_c, 3, 68, 64
5, 140852, Note_off_c, 3, 73, 64
5, 140856, Note_off_c, 3, 77, 64
5, 140864, Note_off_c, 3, 80, 64
5, 140996, Note_on_c, 3, 37, 60
5, 141064, Note_off_c, 3, 37, 64
5, 141132, Note_on_c, 3, 92, 74
5, 141132, Note_on_c, 3, 87, 74
5, 141132, Note_on_c, 3, 84, 78
5, 141132, Note_on_c, 3, 80, 87
5, 141200, Note_off_c, 3, 84, 64
5, 141204, Note_off_c, 3, 87, 64
5, 141204, Note_off_c, 3, 80, 64
5, 141208, Note_off_c, 3, 92, 64
5, 141248, Note_on_c, 3, 92, 70
5, 141248, Note_on_c, 3, 84, 72
5, 141248, Note_on_c, 3, 87, 70
5, 141252, Note_on_c, 3, 80, 66
5, 141296, Note_off_c, 3, 84, 64
5, 141300, Note_off_c, 3, 87, 64
5, 141300, Note_off_c, 3, 80, 64
5, 141312, Note_off_c, 3, 92, 64
5, 141356, Note_on_c, 3, 87, 68
5, 141356, Note_on_c, 3, 84, 74
5, 141360, Note_on_c, 3, 92, 63
5, 141372, Note_on_c, 3, 80, 66
5, 141420, Note_off_c, 3, 80, 64
5, 141424, Note_off_c, 3, 84, 64
5, 141432, Note_off_c, 3, 87, 64
5, 141440, Note_off_c, 3, 92, 64
5, 141500, Note_on_c, 3, 87, 80
5, 141500, Note_on_c, 3, 92, 70
5, 141500, Note_on_c, 3, 84, 78
5, 141504, Note_on_c, 3, 80, 78
5, 141588, Note_off_c, 3, 80, 64
5, 141588, Note_off_c, 3, 84, 64
5, 141588, Note_off_c, 3, 87, 64
5, 141592, Note_off_c, 3, 92, 64
5, 141728, Note_on_c, 3, 87, 87
5, 141728, Note_on_c, 3, 84, 78
5, 141728, Note_on_c, 3, 80, 64
5, 141728, Note_on_c, 3, 92, 76
5, 141812, Note_off_c, 3, 80, 64
5, 141812, Note_off_c, 3, 84, 64
5, 141816, Note_off_c, 3, 87, 64
5, 141824, Note_off_c, 3, 92, 64
5, 141956, Note_on_c, 3, 44, 60
5, 142024, Note_off_c, 3, 44, 64
5, 142080, Note_on_c, 3, 87, 68
5, 142080, Note_on_c, 3, 79, 78
5, 142080, Note_on_c, 3, 82, 68
5, 142080, Note_on_c, 3, 75, 85
5, 142152, Note_off_c, 3, 79, 64
5, 142156, Note_off_c, 3, 82, 64
5, 142160, Note_off_c, 3, 87, 64
5, 142160, Note_off_c, 3, 75, 64
5, 142200, Note_on_c, 3, 82, 74
5, 142200, Note_on_c, 3, 79, 72
5, 142200, Note_on_c, 3, 87, 70
5, 142200, Note_on_c, 3, 75, 70
5, 142256, Note_off_c, 3, 79, 64
5, 142260, Note_off_c, 3, 75, 64
5, 142264, Note_off_c, 3, 82, 64
5, 142268, Note_off_c, 3, 87, 64
5, 142320, Note_on_c, 3, 79, 64
5, 142320, Note_on_c, 3, 82, 62
5, 142320, Note_on_c, 3, 87, 57
5, 142320, Note_on_c, 3, 75, 62
5, 142364, Note_off_c, 3, 75, 64
5, 142368, Note_off_c, 3, 79, 64
5, 142372, Note_off_c, 3, 82, 64
5, 142380, Note_off_c, 3, 87, 64
5, 142440, Note_on_c, 3, 82, 80
5, 142440, Note_on_c, 3, 79, 80
5, 142440, Note_on_c, 3, 75, 82
5, 142440, Note_on_c, 3, 87, 80
5, 142544, Note_off_c, 3, 79, 64
5, 142552, Note_off_c, 3, 82, 64
5, 142552, Note_off_c, 3, 75, 64
5, 142564, Note_off_c, 3, 87, 64
5, 142680, Note_on_c, 3, 51, 64
5, 142784, Note_off_c, 3, 51, 64
5, 142800, Note_on_c, 3, 87, 70
5, 142800, Note_on_c, 3, 82, 76
5, 142800, Note_on_c, 3, 79, 78
5, 142800, Note_on_c, 3, 75, 72
5, 142856, Note_off_c, 3, 75, 64
5, 142860, Note_off_c, 3, 79, 64
5, 142872, Note_off_c, 3, 82, 64
5, 142876, Note_off_c, 3, 87, 64
5, 142920, Note_on_c, 3, 82, 78
5, 142920, Note_on_c, 3, 75, 74
5, 142920, Note_on_c, 3, 87, 80
5, 142920, Note_on_c, 3, 79, 62
5, 142976, Note_off_c, 3, 79, 64
5, 142980, Note_off_c, 3, 82, 64
5, 142988, Note_off_c, 3, 75, 64
5, 142988, Note_off_c, 3, 87, 64
5, 143040, Note_on_c, 3, 67, 82
5, 143040, Note_on_c, 3, 72, 91
5, 143040, Note_on_c, 3, 75, 82
5, 143040, Note_on_c, 3, 79, 80
5, 143116, Note_off_c, 3, 72, 64
5, 143120, Note_off_c, 3, 75, 64
5, 143124, Note_off_c, 3, 79, 64
5, 143128, Note_off_c, 3, 67, 64
5, 143160, Note_on_c, 3, 75, 68
5, 143160, Note_on_c, 3, 67, 70
5, 143160, Note_on_c, 3, 79, 66
5, 143160, Note_on_c, 3, 72, 66
5, 143224, Note_off_c, 3, 72, 64
5, 143224, Note_off_c, 3, 67, 64
5, 143228, Note_off_c, 3, 75, 64
5, 143232, Note_off_c, 3, 79, 64
5, 143280, Note_on_c, 3, 72, 72
5, 143280, Note_on_c, 3, 75, 72
5, 143280, Note_on_c, 3, 79, 74
5, 143280, Note_on_c, 3, 67, 70
5, 143344, Note_off_c, 3, 67, 64
5, 143348, Note_off_c, 3, 75, 64
5, 143348, Note_off_c, 3, 72, 64
5, 143356, Note_off_c, 3, 79, 64
5, 143400, Note_on_c, 3, 79, 85
5, 143400, Note_on_c, 3, 75, 82
5, 143400, Note_on_c, 3, 72, 80
5, 143400, Note_on_c, 3, 67, 82
5, 143520, Note_off_c, 3, 67, 64
5, 143520, Note_off_c, 3, 72, 64
5, 143520, Note_off_c, 3, 75, 64
5, 143524, Note_off_c, 3, 79, 64
5, 143640, Note_on_c, 3, 67, 80
5, 143640, Note_on_c, 3, 75, 87
5, 143640, Note_on_c, 3, 72, 89
5, 143640, Note_on_c, 3, 79, 87
5, 143728, Note_off_c, 3, 72, 64
5, 143736, Note_off_c, 3, 75, 64
5, 143756, Note_off_c, 3, 67, 64
5, 143756, Note_off_c, 3, 79, 64
5, 143880, Note_on_c, 3, 36, 76
5, 143992, Note_off_c, 3, 36, 64
5, 144000, Note_on_c, 3, 77, 89
5, 144000, Note_on_c, 3, 80, 78
5, 144000, Note_on_c, 3, 73, 91
5, 144000, Note_on_c, 3, 68, 93
5, 144056, Note_off_c, 3, 73, 64
5, 144064, Note_off_c, 3, 68, 64
5, 144068, Note_off_c, 3, 77, 64
5, 144072, Note_off_c, 3, 80, 64
5, 144120, Note_on_c, 3, 77, 76
5, 144120, Note_on_c, 3, 73, 76
5, 144120, Note_on_c, 3, 80, 68
5, 144120, Note_on_c, 3, 68, 80
5, 144172, Note_off_c, 3, 73, 64
5, 144176, Note_off_c, 3, 68, 64
5, 144184, Note_off_c, 3, 77, 64
5, 144188, Note_off_c, 3, 80, 64
5, 144240, Note_on_c, 3, 80, 70
5, 144240, Note_on_c, 3, 77, 76
5, 144240, Note_on_c, 3, 68, 78
5, 144240, Note_on_c, 3, 73, 76
5, 144288, Note_off_c, 3, 73, 64
5, 144292, Note_off_c, 3, 68, 64
5, 144296, Note_off_c, 3, 77, 64
5, 144304, Note_off_c, 3, 80, 64
5, 144360, Note_on_c, 3, 77, 98
5, 144360, Note_on_c, 3, 80, 87
5, 144360, Note_on_c, 3, 73, 95
5, 144360, Note_on_c, 3, 68, 91
5, 144468, Note_off_c, 3, 73, 64
5, 144468, Note_off_c, 3, 77, 64
5, 144472, Note_off_c, 3, 80, 64
5, 144484, Note_off_c, 3, 68, 64
5, 144600, Note_on_c, 3, 77, 87
5, 144600, Note_on_c, 3, 80, 80
5, 144600, Note_on_c, 3, 73, 91
5, 144600, Note_on_c, 3, 68, 89
5, 144700, Note_off_c, 3, 73, 64
5, 144708, Note_off_c, 3, 77, 64
5, 144708, Note_off_c, 3, 68, 64
5, 144720, Note_off_c, 3, 80, 64
5, 144840, Note_on_c, 3, 77, 80
5, 144840, Note_on_c, 3, 80, 66
5, 144840, Note_on_c, 3, 73, 80
5, 144840, Note_on_c, 3, 68, 80
5, 144876, Note_off_c, 3, 68, 64
5, 144880, Note_off_c, 3, 73, 64
5, 144884, Note_off_c, 3, 77, 64
5, 144892, Note_off_c, 3, 80, 64
5, 144960, Note_on_c, 3, 80, 82
5, 144960, Note_on_c, 3, 84, 91
5, 144960, Note_on_c, 3, 87, 82
5, 144960, Note_on_c, 3, 92, 80
5, 145036, Note_off_c, 3, 84, 64
5, 145040, Note_off_c, 3, 87, 64
5, 145044, Note_off_c, 3, 92, 64
5, 145048, Note_off_c, 3, 80, 64
5, 145080, Note_on_c, 3, 87, 68
5, 145080, Note_on_c, 3, 80, 70
5, 145080, Note_on_c, 3, 92, 66
5, 145080, Note_on_c, 3, 84, 66
5, 145144, Note_off_c, 3, 84, 64
5, 145144, Note_off_c, 3, 80, 64
5, 145148, Note_off_c, 3, 87, 64
5, 145152, Note_off_c, 3, 92, 64
5, 145200, Note_on_c, 3, 84, 72
5, 145200, Note_on_c, 3, 87, 72
5, 145200, Note_on_c, 3, 92, 74
5, 145200, Note_on_c, 3, 80, 70
5, 145264, Note_off_c, 3, 80, 64
5, 145268, Note_off_c, 3, 87, 64
5, 145268, Note_off_c, 3, 84, 64
5, 145276, Note_off_c, 3, 92, 64
5, 145320, Note_on_c, 3, 92, 85
5, 145320, Note_on_c, 3, 87, 82
5, 145320, Note_on_c, 3, 84, 80
5, 145320, Note_on_c, 3, 80, 82
5, 145440, Note_off_c, 3, 80, 64
5, 145440, Note_off_c, 3, 84, 64
5, 145440, Note_off_c, 3, 87, 64
5, 145444, Note_off_c, 3, 92, 64
5, 145560, Note_on_c, 3, 80, 80
5, 145560, Note_on_c, 3, 87, 87
5, 145560, Note_on_c, 3, 84, 89
5, 145560, Note_on_c, 3, 92, 87
5, 145648, Note_off_c, 3, 84, 64
5, 145656, Note_off_c, 3, 87, 64
5, 145676, Note_off_c, 3, 80, 64
5, 145676, Note_off_c, 3, 92, 64
5, 145800, Note_on_c, 3, 44, 76
5, 145912, Note_off_c, 3, 44, 64
5, 145920, Note_on_c, 3, 75, 82
5, 145920, Note_on_c, 3, 79, 91
5, 145920, Note_on_c, 3, 82, 82
5, 145920, Note_on_c, 3, 87, 80
5, 145996, Note_off_c, 3, 79, 64
5, 146000, Note_off_c, 3, 82, 64
5, 146004, Note_off_c, 3, 87, 64
5, 146008, Note_off_c, 3, 75, 64
5, 146040, Note_on_c, 3, 82, 68
5, 146040, Note_on_c, 3, 75, 70
5, 146040, Note_on_c, 3, 87, 66
5, 146040, Note_on_c, 3, 79, 66
5, 146104, Note_off_c, 3, 79, 64
5, 146104, Note_off_c, 3, 75, 64
5, 146108, Note_off_c, 3, 82, 64
5, 146112, Note_off_c, 3, 87, 64
5, 146160, Note_on_c, 3, 79, 72
5, 146160, Note_on_c, 3, 82, 72
5, 146160, Note_on_c, 3, 87, 74
5, 146160, Note_on_c, 3, 75, 70
5, 146224, Note_off_c, 3, 75, 64
5, 146228, Note_off_c, 3, 82, 64
5, 146228, Note_off_c, 3, 79, 64
5, 146236, Note_off_c, 3, 87, 64
5, 146280, Note_on_c, 3, 87, 85
5, 146280, Note_on_c, 3, 82, 82
5, 146280, Note_on_c, 3, 79, 80
5, 146280, Note_on_c, 3, 75, 82
5, 146400, Note_off_c, 3, 75, 64
5, 146400, Note_off_c, 3, 79, 64
5, 146400, Note_off_c, 3, 82, 64
5, 146404, Note_off_c, 3, 87, 64
5, 146520, Note_on_c, 3, 75, 80
5, 146520, Note_on_c, 3, 82, 87
5, 146520, Note_on_c, 3, 79, 89
5, 146520, Note_on_c, 3, 87, 87
5, 146608, Note_off_c, 3, 79, 64
5, 146616, Note_off_c, 3, 82, 64
5, 146636, Note_off_c, 3, 75, 64
5, 146636, Note_off_c, 3, 87, 64
5, 146760, Note_on_c, 3, 51, 76
5, 146872, Note_off_c, 3, 51, 64
5, 146880, Note_on_c, 3, 79, 72
5, 146880, Note_on_c, 3, 75, 72
5, 146880, Note_on_c, 3, 87, 59
5, 146880, Note_on_c, 3, 82, 58
5, 146944, Note_off_c, 3, 79, 64
5, 146952, Note_off_c, 3, 75, 64
5, 146952, Note_off_c, 3, 87, 64
5, 146952, Note_off_c, 3, 82, 64
5, 147000, Note_on_c, 3, 82, 63
5, 147000, Note_on_c, 3, 87, 60
5, 147000, Note_on_c, 3, 79, 63
5, 147000, Note_on_c, 3, 75, 59
5, 147052, Note_off_c, 3, 79, 64
5, 147060, Note_off_c, 3, 82, 64
5, 147060, Note_off_c, 3, 75, 64
5, 147072, Note_off_c, 3, 87, 64
5, 147240, Note_on_c, 3, 84, 89
5, 147240, Note_on_c, 3, 89, 78
5, 147240, Note_on_c, 3, 81, 91
5, 147240, Note_on_c, 3, 77, 93
5, 147408, Note_off_c, 3, 81, 64
5, 147416, Note_off_c, 3, 77, 64
5, 147420, Note_off_c, 3, 84, 64
5, 147424, Note_off_c, 3, 89, 64
5, 147480, Note_on_c, 3, 84, 76
5, 147480, Note_on_c, 3, 81, 76
5, 147480, Note_on_c, 3, 89, 68
5, 147480, Note_on_c, 3, 77, 80
5, 147532, Note_off_c, 3, 81, 64
5, 147536, Note_off_c, 3, 77, 64
5, 147544, Note_off_c, 3, 84, 64
5, 147548, Note_off_c, 3, 89, 64
5, 147600, Note_on_c, 3, 89, 70
5, 147600, Note_on_c, 3, 84, 76
5, 147600, Note_on_c, 3, 77, 78
5, 147600, Note_on_c, 3, 81, 76
5, 147648, Note_off_c, 3, 81, 64
5, 147652, Note_off_c, 3, 77, 64
5, 147656, Note_off_c, 3, 84, 64
5, 147664, Note_off_c, 3, 89, 64
5, 147720, Note_on_c, 3, 84, 98
5, 147720, Note_on_c, 3, 89, 87
5, 147720, Note_on_c, 3, 81, 95
5, 147720, Note_on_c, 3, 77, 91
5, 147828, Note_off_c, 3, 81, 64
5, 147828, Note_off_c, 3, 84, 64
5, 147832, Note_off_c, 3, 89, 64
5, 147840, Note_off_c, 3, 77, 64
5, 155520, Note_on_c, 3, 63, 91
5, 155520, Note_on_c, 3, 58, 91
5, 155520, Note_on_c, 3, 55, 91
5, 157160, Note_off_c, 3, 55, 64
5, 157160, Note_off_c, 3, 58, 64
5, 157160, Note_off_c, 3, 63, 64
5, 157200, Note_on_c, 3, 72, 85
5, 157200, Note_on_c, 3, 69, 82
5, 157200, Note_on_c, 3, 65, 82
5, 158632, Note_off_c, 3, 65, 64
5, 158640, Note_on_c, 3, 53, 49
5, 158880, Note_on_c, 3, 65, 62
5, 158884, Note_off_c, 3, 65, 64
5, 159120, Note_on_c, 3, 65, 102
5, 159288, Note_off_c, 3, 69, 64
5, 159304, Note_off_c, 3, 72, 64
5, 159312, Note_off_c, 3, 65, 64
5, 159328, Note_off_c, 3, 53, 64
5, 159360, Note_on_c, 3, 63, 74
5, 159360, Note_on_c, 3, 75, 74
5, 159360, Note_on_c, 3, 67, 74
5, 159360, Note_on_c, 3, 70, 82
5, 160656, Note_off_c, 3, 63, 64
5, 160800, Note_on_c, 3, 63, 105
5, 161000, Note_off_c, 3, 75, 64
5, 161000, Note_off_c, 3, 67, 64
5, 161000, Note_off_c, 3, 70, 64
5, 161000, Note_off_c, 3, 63, 64
5, 161040, Note_on_c, 3, 65, 100
5, 161040, Note_on_c, 3, 60, 100
5, 161040, Note_on_c, 3, 57, 100
5, 162480, Note_on_c, 3, 53, 80
5, 162580, Note_off_c, 3, 57, 64
5, 162580, Note_off_c, 3, 60, 64
5, 162580, Note_off_c, 3, 65, 64
5, 162716, Note_off_c, 3, 53, 64
5, 162720, Note_on_c, 3, 65, 98
5, 162720, Note_on_c, 3, 60, 98
5, 162720, Note_on_c, 3, 57, 98
5, 162984, Note_off_c, 3, 57, 64
5, 162984, Note_off_c, 3, 60, 64
5, 162984, Note_off_c, 3, 65, 64
5, 163200, Note_on_c, 3, 70, 85
5, 163200, Note_on_c, 3, 53, 59
5, 163200, Note_on_c, 3, 67, 85
5, 163200, Note_on_c, 3, 63, 66
5, 163980, Control_c, 3, 64, 127
5, 164132, Note_off_c, 3, 63, 64
5, 164132, Note_off_c, 3, 67, 64
5, 164148, Note_off_c, 3, 70, 64
5, 164288, Note_off_c, 3, 53, 64
5, 164640, Note_on_c, 3, 79, 95
5, 164720, Control_c, 3, 64, 0
5, 164788, Note_off_c, 3, 79, 64
5, 164880, Note_on_c, 3, 65, 100
5, 164880, Note_on_c, 3, 60, 100
5, 164880, Note_on_c, 3, 57, 100
5, 166320, Note_on_c, 3, 53, 80
5, 166420, Note_off_c, 3, 57, 64
5, 166420, Note_off_c, 3, 60, 64
5, 166420, Note_off_c, 3, 65, 64
5, 166556, Note_off_c, 3, 53, 64
5, 166560, Note_on_c, 3, 65, 98
5, 166560, Note_on_c, 3, 60, 98
5, 166560, Note_on_c, 3, 57, 98
5, 166824, Note_off_c, 3, 57, 64
5, 166824, Note_off_c, 3, 60, 64
5, 166824, Note_off_c, 3, 65, 64
5, 167040, Note_on_c, 3, 72, 89
5, 167040, Note_on_c, 3, 65, 78
5, 167040, Note_on_c, 3, 69, 93
5, 167840, Note_off_c, 3, 69, 64
5, 167840, Note_off_c, 3, 65, 64
5, 167840, Note_off_c, 3, 72, 64
5, 167880, Note_on_c, 3, 65, 95
5, 167880, Note_on_c, 3, 60, 95
5, 167880, Note_on_c, 3, 57, 95
5, 168010, Note_off_c, 3, 57, 64
5, 168010, Note_off_c, 3, 60, 64
5, 168010, Note_off_c, 3, 65, 64
5, 168960, Control_c, 3, 64, 0
5, 168960, End_track
6, 0, Start_track
6, 0, Title_t, "Bass    "
6, 0, MIDI_port, 0
6, 0, Channel_prefix, 4
6, 0, Control_c, 4, 7, 116
6, 0, Control_c, 4, 10, 0
6, 0, Program_c, 4, 33
6, 0, Control_c, 4, 121, 0
6, 40, Control_c, 4, 123, 0
6, 120, Control_c, 4, 91, 45
6, 160, Control_c, 4, 64, 0
6, 3840, Note_on_c, 4, 41, 121
6, 4032, Note_off_c, 4, 41, 64
6, 4080, Note_on_c, 4, 41, 110
6, 4272, Note_off_c, 4, 41, 64
6, 4320, Note_on_c, 4, 41, 108
6, 4512, Note_off_c, 4, 41, 64
6, 4560, Note_on_c, 4, 41, 105
6, 4752, Note_off_c, 4, 41, 64
6, 4800, Note_on_c, 4, 41, 109
6, 4992, Note_off_c, 4, 41, 64
6, 5040, Note_on_c, 4, 41, 103
6, 5232, Note_off_c, 4, 41, 64
6, 5280, Note_on_c, 4, 41, 118
6, 5472, Note_off_c, 4, 41, 64
6, 5520, Note_on_c, 4, 41, 103
6, 5712, Note_off_c, 4, 41, 64
6, 5760, Note_on_c, 4, 41, 114
6, 5952, Note_off_c, 4, 41, 64
6, 6000, Note_on_c, 4, 41, 110
6, 6192, Note_off_c, 4, 41, 64
6, 6240, Note_on_c, 4, 41, 102
6, 6432, Note_off_c, 4, 41, 64
6, 6480, Note_on_c, 4, 41, 100
6, 6672, Note_off_c, 4, 41, 64
6, 6720, Note_on_c, 4, 41, 109
6, 6912, Note_off_c, 4, 41, 64
6, 6960, Note_on_c, 4, 41, 118
6, 7152, Note_off_c, 4, 41, 64
6, 7200, Note_on_c, 4, 41, 110
6, 7392, Note_off_c, 4, 41, 64
6, 7440, Note_on_c, 4, 41, 124
6, 7632, Note_off_c, 4, 41, 64
6, 7680, Note_on_c, 4, 41, 112
6, 7872, Note_off_c, 4, 41, 64
6, 7920, Note_on_c, 4, 41, 112
6, 8112, Note_off_c, 4, 41, 64
6, 8160, Note_on_c, 4, 41, 111
6, 8352, Note_off_c, 4, 41, 64
6, 8400, Note_on_c, 4, 41, 103
6, 8592, Note_off_c, 4, 41, 64
6, 8640, Note_on_c, 4, 41, 103
6, 8832, Note_off_c, 4, 41, 64
6, 8880, Note_on_c, 4, 41, 112
6, 9072, Note_off_c, 4, 41, 64
6, 9120, Note_on_c, 4, 41, 109
6, 9312, Note_off_c, 4, 41, 64
6, 9360, Note_on_c, 4, 41, 110
6, 9552, Note_off_c, 4, 41, 64
6, 9600, Note_on_c, 4, 41, 110
6, 9792, Note_off_c, 4, 41, 64
6, 9840, Note_on_c, 4, 41, 114
6, 10032, Note_off_c, 4, 41, 64
6, 10080, Note_on_c, 4, 41, 115
6, 10272, Note_off_c, 4, 41, 64
6, 10320, Note_on_c, 4, 41, 107
6, 10512, Note_off_c, 4, 41, 64
6, 10560, Note_on_c, 4, 41, 110
6, 10752, Note_off_c, 4, 41, 64
6, 10800, Note_on_c, 4, 41, 110
6, 10992, Note_off_c, 4, 41, 64
6, 11040, Note_on_c, 4, 41, 107
6, 11232, Note_off_c, 4, 41, 64
6, 11280, Note_on_c, 4, 41, 111
6, 11472, Note_off_c, 4, 41, 64
6, 11520, Note_on_c, 4, 41, 118
6, 11712, Note_off_c, 4, 41, 64
6, 11760, Note_on_c, 4, 41, 112
6, 11952, Note_off_c, 4, 41, 64
6, 12000, Note_on_c, 4, 41, 110
6, 12192, Note_off_c, 4, 41, 64
6, 12240, Note_on_c, 4, 41, 98
6, 12432, Note_off_c, 4, 41, 64
6, 12480, Note_on_c, 4, 41, 110
6, 12672, Note_off_c, 4, 41, 64
6, 12720, Note_on_c, 4, 41, 96
6, 12912, Note_off_c, 4, 41, 64
6, 12960, Note_on_c, 4, 41, 118
6, 13152, Note_off_c, 4, 41, 64
6, 13200, Note_on_c, 4, 41, 99
6, 13392, Note_off_c, 4, 41, 64
6, 13440, Note_on_c, 4, 41, 110
6, 13632, Note_off_c, 4, 41, 64
6, 13680, Note_on_c, 4, 41, 110
6, 13872, Note_off_c, 4, 41, 64
6, 13920, Note_on_c, 4, 41, 106
6, 14112, Note_off_c, 4, 41, 64
6, 14160, Note_on_c, 4, 41, 110
6, 14352, Note_off_c, 4, 41, 64
6, 14400, Note_on_c, 4, 41, 110
6, 14592, Note_off_c, 4, 41, 64
6, 14640, Note_on_c, 4, 41, 110
6, 14832, Note_off_c, 4, 41, 64
6, 14880, Note_on_c, 4, 41, 108
6, 15072, Note_off_c, 4, 41, 64
6, 15120, Note_on_c, 4, 41, 113
6, 15312, Note_off_c, 4, 41, 64
6, 15360, Note_on_c, 4, 41, 110
6, 15580, Note_off_c, 4, 41, 64
6, 17040, Note_on_c, 4, 41, 110
6, 17136, Note_off_c, 4, 41, 64
6, 17160, Note_on_c, 4, 41, 112
6, 17260, Note_off_c, 4, 41, 64
6, 17280, Control_c, 4, 85, 37
6, 18000, Note_on_c, 4, 41, 114
6, 18096, Note_off_c, 4, 41, 64
6, 18120, Note_on_c, 4, 41, 109
6, 18220, Note_off_c, 4, 41, 64
6, 18240, Control_c, 4, 85, 37
6, 18360, Note_on_c, 4, 48, 104
6, 18456, Note_off_c, 4, 48, 64
6, 18480, Note_on_c, 4, 38, 110
6, 18480, Note_on_c, 4, 50, 110
6, 18672, Note_off_c, 4, 50, 64
6, 18672, Note_off_c, 4, 38, 64
6, 18720, Note_on_c, 4, 41, 110
6, 18720, Note_on_c, 4, 53, 110
6, 19104, Note_off_c, 4, 53, 64
6, 19104, Note_off_c, 4, 41, 64
6, 19200, Note_on_c, 4, 41, 110
6, 19392, Note_off_c, 4, 41, 64
6, 19440, Note_on_c, 4, 41, 104
6, 19632, Note_off_c, 4, 41, 64
6, 19680, Note_on_c, 4, 41, 115
6, 19872, Note_off_c, 4, 41, 64
6, 19920, Note_on_c, 4, 41, 109
6, 20016, Note_off_c, 4, 41, 64
6, 20040, Note_on_c, 4, 41, 99
6, 20140, Note_off_c, 4, 41, 64
6, 21120, Note_on_c, 4, 41, 112
6, 21312, Note_off_c, 4, 41, 64
6, 21360, Note_on_c, 4, 41, 101
6, 21552, Note_off_c, 4, 41, 64
6, 21600, Note_on_c, 4, 41, 109
6, 21792, Note_off_c, 4, 41, 64
6, 21840, Note_on_c, 4, 41, 122
6, 22032, Note_off_c, 4, 41, 64
6, 22080, Note_on_c, 4, 41, 112
6, 22272, Note_off_c, 4, 41, 64
6, 22320, Note_on_c, 4, 41, 113
6, 22512, Note_off_c, 4, 41, 64
6, 22560, Note_on_c, 4, 41, 103
6, 22752, Note_off_c, 4, 41, 64
6, 22800, Note_on_c, 4, 41, 111
6, 22992, Note_off_c, 4, 41, 64
6, 23040, Note_on_c, 4, 41, 105
6, 23232, Note_off_c, 4, 41, 64
6, 23280, Note_on_c, 4, 41, 111
6, 23472, Note_off_c, 4, 41, 64
6, 23520, Note_on_c, 4, 41, 98
6, 23712, Note_off_c, 4, 41, 64
6, 23760, Note_on_c, 4, 41, 119
6, 23952, Note_off_c, 4, 41, 64
6, 24000, Note_on_c, 4, 41, 110
6, 24192, Note_off_c, 4, 41, 64
6, 24240, Note_on_c, 4, 41, 102
6, 24432, Note_off_c, 4, 41, 64
6, 24480, Note_on_c, 4, 41, 113
6, 24672, Note_off_c, 4, 41, 64
6, 24720, Note_on_c, 4, 41, 98
6, 24912, Note_off_c, 4, 41, 64
6, 24960, Note_on_c, 4, 41, 104
6, 25152, Note_off_c, 4, 41, 64
6, 25200, Note_on_c, 4, 41, 112
6, 25392, Note_off_c, 4, 41, 64
6, 25440, Note_on_c, 4, 41, 118
6, 25632, Note_off_c, 4, 41, 64
6, 25680, Note_on_c, 4, 41, 114
6, 25872, Note_off_c, 4, 41, 64
6, 25920, Note_on_c, 4, 41, 97
6, 26112, Note_off_c, 4, 41, 64
6, 26160, Note_on_c, 4, 41, 109
6, 26352, Note_off_c, 4, 41, 64
6, 26400, Note_on_c, 4, 41, 109
6, 26592, Note_off_c, 4, 41, 64
6, 26640, Note_on_c, 4, 41, 103
6, 26832, Note_off_c, 4, 41, 64
6, 26880, Note_on_c, 4, 41, 110
6, 27072, Note_off_c, 4, 41, 64
6, 27120, Note_on_c, 4, 41, 108
6, 27312, Note_off_c, 4, 41, 64
6, 27360, Note_on_c, 4, 41, 116
6, 27552, Note_off_c, 4, 41, 64
6, 27600, Note_on_c, 4, 41, 110
6, 27792, Note_off_c, 4, 41, 64
6, 27840, Note_on_c, 4, 41, 110
6, 28032, Note_off_c, 4, 41, 64
6, 28080, Note_on_c, 4, 41, 96
6, 28272, Note_off_c, 4, 41, 64
6, 28320, Note_on_c, 4, 41, 115
6, 28512, Note_off_c, 4, 41, 64
6, 28560, Note_on_c, 4, 41, 124
6, 28752, Note_off_c, 4, 41, 64
6, 28800, Note_on_c, 4, 41, 110
6, 28992, Note_off_c, 4, 41, 64
6, 29040, Note_on_c, 4, 41, 110
6, 29232, Note_off_c, 4, 41, 64
6, 29280, Note_on_c, 4, 41, 111
6, 29472, Note_off_c, 4, 41, 64
6, 29520, Note_on_c, 4, 41, 120
6, 29712, Note_off_c, 4, 41, 64
6, 29760, Note_on_c, 4, 41, 109
6, 29952, Note_off_c, 4, 41, 64
6, 30000, Note_on_c, 4, 41, 110
6, 30192, Note_off_c, 4, 41, 64
6, 30240, Note_on_c, 4, 41, 116
6, 30432, Note_off_c, 4, 41, 64
6, 30480, Note_on_c, 4, 41, 111
6, 30672, Note_off_c, 4, 41, 64
6, 30720, Note_on_c, 4, 41, 124
6, 30912, Note_off_c, 4, 41, 64
6, 30960, Note_on_c, 4, 41, 112
6, 31152, Note_off_c, 4, 41, 64
6, 31200, Note_on_c, 4, 41, 114
6, 31392, Note_off_c, 4, 41, 64
6, 31440, Note_on_c, 4, 41, 103
6, 31632, Note_off_c, 4, 41, 64
6, 31680, Note_on_c, 4, 41, 122
6, 31872, Note_off_c, 4, 41, 64
6, 31920, Note_on_c, 4, 41, 116
6, 32112, Note_off_c, 4, 41, 64
6, 32160, Note_on_c, 4, 41, 112
6, 32352, Note_off_c, 4, 41, 64
6, 32400, Note_on_c, 4, 41, 110
6, 32592, Note_off_c, 4, 41, 64
6, 32640, Note_on_c, 4, 41, 95
6, 32832, Note_off_c, 4, 41, 64
6, 32880, Note_on_c, 4, 41, 110
6, 33072, Note_off_c, 4, 41, 64
6, 33120, Note_on_c, 4, 41, 110
6, 33312, Note_off_c, 4, 41, 64
6, 33360, Note_on_c, 4, 41, 107
6, 33552, Note_off_c, 4, 41, 64
6, 33600, Note_on_c, 4, 41, 116
6, 33792, Note_off_c, 4, 41, 64
6, 33840, Note_on_c, 4, 41, 104
6, 34032, Note_off_c, 4, 41, 64
6, 34080, Note_on_c, 4, 41, 115
6, 34272, Note_off_c, 4, 41, 64
6, 34320, Note_on_c, 4, 41, 110
6, 34512, Note_off_c, 4, 41, 64
6, 34560, Note_on_c, 4, 29, 100
6, 34752, Note_off_c, 4, 29, 64
6, 34800, Note_on_c, 4, 29, 112
6, 34992, Note_off_c, 4, 29, 64
6, 35040, Note_on_c, 4, 29, 106
6, 35232, Note_off_c, 4, 29, 64
6, 35280, Note_on_c, 4, 29, 108
6, 35472, Note_off_c, 4, 29, 64
6, 35520, Note_on_c, 4, 29, 106
6, 35712, Note_off_c, 4, 29, 64
6, 35760, Note_on_c, 4, 29, 110
6, 35952, Note_off_c, 4, 29, 64
6, 36000, Note_on_c, 4, 32, 113
6, 36192, Note_off_c, 4, 32, 64
6, 36240, Note_on_c, 4, 32, 95
6, 36432, Note_off_c, 4, 32, 64
6, 36480, Note_on_c, 4, 37, 110
6, 36672, Note_off_c, 4, 37, 64
6, 36720, Note_on_c, 4, 37, 102
6, 36912, Note_off_c, 4, 37, 64
6, 36960, Note_on_c, 4, 37, 120
6, 37152, Note_off_c, 4, 37, 64
6, 37200, Note_on_c, 4, 37, 119
6, 37392, Note_off_c, 4, 37, 64
6, 37440, Note_on_c, 4, 32, 110
6, 37632, Note_off_c, 4, 32, 64
6, 37680, Note_on_c, 4, 32, 124
6, 37872, Note_off_c, 4, 32, 64
6, 37920, Note_on_c, 4, 32, 122
6, 38112, Note_off_c, 4, 32, 64
6, 38160, Note_on_c, 4, 32, 109
6, 38352, Note_off_c, 4, 32, 64
6, 38400, Note_on_c, 4, 39, 107
6, 38592, Note_off_c, 4, 39, 64
6, 38640, Note_on_c, 4, 39, 111
6, 38832, Note_off_c, 4, 39, 64
6, 38880, Note_on_c, 4, 39, 110
6, 39072, Note_off_c, 4, 39, 64
6, 39120, Note_on_c, 4, 39, 101
6, 39312, Note_off_c, 4, 39, 64
6, 39360, Note_on_c, 4, 39, 105
6, 39552, Note_off_c, 4, 39, 64
6, 39600, Note_on_c, 4, 39, 110
6, 39792, Note_off_c, 4, 39, 64
6, 39840, Note_on_c, 4, 36, 98
6, 40032, Note_off_c, 4, 36, 64
6, 40080, Note_on_c, 4, 36, 114
6, 40272, Note_off_c, 4, 36, 64
6, 40320, Note_on_c, 4, 37, 109
6, 40512, Note_off_c, 4, 37, 64
6, 40560, Note_on_c, 4, 37, 110
6, 40752, Note_off_c, 4, 37, 64
6, 40800, Note_on_c, 4, 37, 109
6, 40992, Note_off_c, 4, 37, 64
6, 41040, Note_on_c, 4, 37, 111
6, 41232, Note_off_c, 4, 37, 64
6, 41280, Note_on_c, 4, 32, 122
6, 41472, Note_off_c, 4, 32, 64
6, 41520, Note_on_c, 4, 32, 107
6, 41712, Note_off_c, 4, 32, 64
6, 41760, Note_on_c, 4, 32, 118
6, 41952, Note_off_c, 4, 32, 64
6, 42000, Note_on_c, 4, 32, 101
6, 42192, Note_off_c, 4, 32, 64
6, 42240, Note_on_c, 4, 39, 110
6, 42432, Note_off_c, 4, 39, 64
6, 42480, Note_on_c, 4, 39, 112
6, 42672, Note_off_c, 4, 39, 64
6, 42720, Note_on_c, 4, 39, 113
6, 42912, Note_off_c, 4, 39, 64
6, 42960, Note_on_c, 4, 39, 111
6, 43152, Note_off_c, 4, 39, 64
6, 43200, Note_on_c, 4, 39, 117
6, 43392, Note_off_c, 4, 39, 64
6, 43440, Note_on_c, 4, 39, 125
6, 43632, Note_off_c, 4, 39, 64
6, 43680, Note_on_c, 4, 36, 115
6, 43872, Note_off_c, 4, 36, 64
6, 43920, Note_on_c, 4, 36, 110
6, 44112, Note_off_c, 4, 36, 64
6, 44160, Note_on_c, 4, 37, 110
6, 44352, Note_off_c, 4, 37, 64
6, 44400, Note_on_c, 4, 37, 102
6, 44592, Note_off_c, 4, 37, 64
6, 44640, Note_on_c, 4, 37, 115
6, 44832, Note_off_c, 4, 37, 64
6, 44880, Note_on_c, 4, 37, 103
6, 45072, Note_off_c, 4, 37, 64
6, 45120, Note_on_c, 4, 32, 110
6, 45312, Note_off_c, 4, 32, 64
6, 45360, Note_on_c, 4, 32, 107
6, 45552, Note_off_c, 4, 32, 64
6, 45600, Note_on_c, 4, 32, 108
6, 45792, Note_off_c, 4, 32, 64
6, 45840, Note_on_c, 4, 32, 105
6, 46032, Note_off_c, 4, 32, 64
6, 46080, Note_on_c, 4, 39, 111
6, 46272, Note_off_c, 4, 39, 64
6, 46320, Note_on_c, 4, 39, 112
6, 46512, Note_off_c, 4, 39, 64
6, 46560, Note_on_c, 4, 39, 101
6, 46752, Note_off_c, 4, 39, 64
6, 46800, Note_on_c, 4, 39, 111
6, 46992, Note_off_c, 4, 39, 64
6, 47040, Note_on_c, 4, 39, 110
6, 47232, Note_off_c, 4, 39, 64
6, 47280, Note_on_c, 4, 39, 98
6, 47376, Note_off_c, 4, 39, 64
6, 47400, Note_on_c, 4, 41, 110
6, 47688, Note_off_c, 4, 41, 64
6, 47760, Note_on_c, 4, 39, 111
6, 47856, Note_off_c, 4, 39, 64
6, 47880, Note_on_c, 4, 39, 96
6, 47976, Note_off_c, 4, 39, 64
6, 48000, Note_on_c, 4, 39, 111
6, 48096, Note_off_c, 4, 39, 64
6, 48120, Note_on_c, 4, 41, 115
6, 48216, Note_off_c, 4, 41, 64
6, 48240, Note_on_c, 4, 41, 123
6, 48432, Note_off_c, 4, 41, 64
6, 48480, Note_on_c, 4, 41, 108
6, 49440, Note_off_c, 4, 41, 64
6, 49680, Note_on_c, 4, 39, 122
6, 49776, Note_off_c, 4, 39, 64
6, 49800, Note_on_c, 4, 39, 113
6, 49896, Note_off_c, 4, 39, 64
6, 49920, Note_on_c, 4, 39, 111
6, 50016, Note_off_c, 4, 39, 64
6, 50040, Note_on_c, 4, 41, 110
6, 50136, Note_off_c, 4, 41, 64
6, 50160, Note_on_c, 4, 41, 109
6, 50352, Note_off_c, 4, 41, 64
6, 50400, Note_on_c, 4, 41, 110
6, 51552, Note_off_c, 4, 41, 64
6, 51840, Note_on_c, 4, 39, 111
6, 51936, Note_off_c, 4, 39, 64
6, 51960, Note_on_c, 4, 41, 110
6, 52056, Note_off_c, 4, 41, 64
6, 52080, Note_on_c, 4, 41, 102
6, 52272, Note_off_c, 4, 41, 64
6, 52320, Note_on_c, 4, 41, 110
6, 53280, Note_off_c, 4, 41, 64
6, 53520, Note_on_c, 4, 39, 110
6, 53616, Note_off_c, 4, 39, 64
6, 53640, Note_on_c, 4, 39, 101
6, 53736, Note_off_c, 4, 39, 64
6, 53760, Note_on_c, 4, 39, 117
6, 53856, Note_off_c, 4, 39, 64
6, 53880, Note_on_c, 4, 41, 104
6, 53976, Note_off_c, 4, 41, 64
6, 54000, Note_on_c, 4, 41, 123
6, 54192, Note_off_c, 4, 41, 64
6, 54240, Note_on_c, 4, 41, 110
6, 55392, Note_off_c, 4, 41, 64
6, 55680, Note_on_c, 4, 41, 118
6, 55872, Note_off_c, 4, 41, 64
6, 55920, Note_on_c, 4, 41, 110
6, 56112, Note_off_c, 4, 41, 64
6, 56160, Note_on_c, 4, 41, 111
6, 56352, Note_off_c, 4, 41, 64
6, 56400, Note_on_c, 4, 41, 122
6, 56592, Note_off_c, 4, 41, 64
6, 56640, Note_on_c, 4, 41, 96
6, 56832, Note_off_c, 4, 41, 64
6, 56880, Note_on_c, 4, 41, 105
6, 57072, Note_off_c, 4, 41, 64
6, 57120, Note_on_c, 4, 41, 110
6, 57312, Note_off_c, 4, 41, 64
6, 57360, Note_on_c, 4, 41, 103
6, 57552, Note_off_c, 4, 41, 64
6, 57600, Note_on_c, 4, 41, 112
6, 57792, Note_off_c, 4, 41, 64
6, 57840, Note_on_c, 4, 41, 109
6, 58032, Note_off_c, 4, 41, 64
6, 58080, Note_on_c, 4, 41, 122
6, 58272, Note_off_c, 4, 41, 64
6, 58320, Note_on_c, 4, 41, 104
6, 58512, Note_off_c, 4, 41, 64
6, 58560, Note_on_c, 4, 41, 111
6, 58752, Note_off_c, 4, 41, 64
6, 58800, Note_on_c, 4, 41, 107
6, 58992, Note_off_c, 4, 41, 64
6, 59040, Note_on_c, 4, 41, 110
6, 59232, Note_off_c, 4, 41, 64
6, 59280, Note_on_c, 4, 41, 117
6, 59472, Note_off_c, 4, 41, 64
6, 59520, Note_on_c, 4, 41, 100
6, 59712, Note_off_c, 4, 41, 64
6, 59760, Note_on_c, 4, 41, 108
6, 59952, Note_off_c, 4, 41, 64
6, 60000, Note_on_c, 4, 41, 109
6, 60192, Note_off_c, 4, 41, 64
6, 60240, Note_on_c, 4, 41, 109
6, 60432, Note_off_c, 4, 41, 64
6, 60480, Note_on_c, 4, 41, 106
6, 60672, Note_off_c, 4, 41, 64
6, 60720, Note_on_c, 4, 41, 102
6, 60912, Note_off_c, 4, 41, 64
6, 60960, Note_on_c, 4, 41, 111
6, 61152, Note_off_c, 4, 41, 64
6, 61200, Note_on_c, 4, 41, 110
6, 61392, Note_off_c, 4, 41, 64
6, 61440, Note_on_c, 4, 41, 99
6, 61632, Note_off_c, 4, 41, 64
6, 61680, Note_on_c, 4, 41, 103
6, 61872, Note_off_c, 4, 41, 64
6, 61920, Note_on_c, 4, 41, 122
6, 62112, Note_off_c, 4, 41, 64
6, 62160, Note_on_c, 4, 41, 108
6, 62352, Note_off_c, 4, 41, 64
6, 62400, Note_on_c, 4, 41, 114
6, 62592, Note_off_c, 4, 41, 64
6, 62640, Note_on_c, 4, 41, 108
6, 62832, Note_off_c, 4, 41, 64
6, 62880, Note_on_c, 4, 41, 109
6, 63072, Note_off_c, 4, 41, 64
6, 63120, Note_on_c, 4, 41, 106
6, 63312, Note_off_c, 4, 41, 64
6, 63360, Note_on_c, 4, 41, 96
6, 63552, Note_off_c, 4, 41, 64
6, 63600, Note_on_c, 4, 41, 114
6, 63792, Note_off_c, 4, 41, 64
6, 63840, Note_on_c, 4, 41, 110
6, 64032, Note_off_c, 4, 41, 64
6, 64080, Note_on_c, 4, 41, 116
6, 64272, Note_off_c, 4, 41, 64
6, 64320, Note_on_c, 4, 41, 98
6, 64512, Note_off_c, 4, 41, 64
6, 64560, Note_on_c, 4, 41, 108
6, 64752, Note_off_c, 4, 41, 64
6, 64800, Note_on_c, 4, 41, 110
6, 64992, Note_off_c, 4, 41, 64
6, 65040, Note_on_c, 4, 41, 110
6, 65232, Note_off_c, 4, 41, 64
6, 65280, Note_on_c, 4, 41, 110
6, 65472, Note_off_c, 4, 41, 64
6, 65520, Note_on_c, 4, 41, 116
6, 65712, Note_off_c, 4, 41, 64
6, 65760, Note_on_c, 4, 41, 107
6, 65952, Note_off_c, 4, 41, 64
6, 66000, Note_on_c, 4, 41, 112
6, 66192, Note_off_c, 4, 41, 64
6, 66240, Note_on_c, 4, 41, 112
6, 66432, Note_off_c, 4, 41, 64
6, 66480, Note_on_c, 4, 41, 113
6, 66672, Note_off_c, 4, 41, 64
6, 66720, Note_on_c, 4, 41, 110
6, 66912, Note_off_c, 4, 41, 64
6, 66960, Note_on_c, 4, 41, 110
6, 67152, Note_off_c, 4, 41, 64
6, 67200, Note_on_c, 4, 41, 107
6, 67392, Note_off_c, 4, 41, 64
6, 67440, Note_on_c, 4, 41, 109
6, 67632, Note_off_c, 4, 41, 64
6, 67680, Note_on_c, 4, 41, 98
6, 67872, Note_off_c, 4, 41, 64
6, 67920, Note_on_c, 4, 41, 118
6, 68112, Note_off_c, 4, 41, 64
6, 68160, Note_on_c, 4, 41, 111
6, 68352, Note_off_c, 4, 41, 64
6, 68400, Note_on_c, 4, 41, 108
6, 68592, Note_off_c, 4, 41, 64
6, 68640, Note_on_c, 4, 41, 114
6, 68832, Note_off_c, 4, 41, 64
6, 68880, Note_on_c, 4, 41, 103
6, 69072, Note_off_c, 4, 41, 64
6, 69120, Note_on_c, 4, 41, 112
6, 69312, Note_off_c, 4, 41, 64
6, 69360, Note_on_c, 4, 41, 113
6, 69552, Note_off_c, 4, 41, 64
6, 69600, Note_on_c, 4, 41, 111
6, 69792, Note_off_c, 4, 41, 64
6, 69840, Note_on_c, 4, 41, 113
6, 70032, Note_off_c, 4, 41, 64
6, 70080, Note_on_c, 4, 41, 110
6, 70272, Note_off_c, 4, 41, 64
6, 70320, Note_on_c, 4, 41, 111
6, 70512, Note_off_c, 4, 41, 64
6, 70560, Note_on_c, 4, 32, 110
6, 70752, Note_off_c, 4, 32, 64
6, 70800, Note_on_c, 4, 32, 97
6, 70992, Note_off_c, 4, 32, 64
6, 71040, Note_on_c, 4, 37, 111
6, 71232, Note_off_c, 4, 37, 64
6, 71280, Note_on_c, 4, 37, 107
6, 71472, Note_off_c, 4, 37, 64
6, 71520, Note_on_c, 4, 37, 105
6, 71712, Note_off_c, 4, 37, 64
6, 71760, Note_on_c, 4, 37, 107
6, 71952, Note_off_c, 4, 37, 64
6, 72000, Note_on_c, 4, 32, 108
6, 72192, Note_off_c, 4, 32, 64
6, 72240, Note_on_c, 4, 32, 109
6, 72432, Note_off_c, 4, 32, 64
6, 72480, Note_on_c, 4, 32, 103
6, 72672, Note_off_c, 4, 32, 64
6, 72720, Note_on_c, 4, 32, 111
6, 72912, Note_off_c, 4, 32, 64
6, 72960, Note_on_c, 4, 39, 98
6, 73152, Note_off_c, 4, 39, 64
6, 73200, Note_on_c, 4, 39, 114
6, 73392, Note_off_c, 4, 39, 64
6, 73440, Note_on_c, 4, 39, 109
6, 73632, Note_off_c, 4, 39, 64
6, 73680, Note_on_c, 4, 39, 114
6, 73872, Note_off_c, 4, 39, 64
6, 73920, Note_on_c, 4, 39, 122
6, 74112, Note_off_c, 4, 39, 64
6, 74160, Note_on_c, 4, 39, 104
6, 74352, Note_off_c, 4, 39, 64
6, 74400, Note_on_c, 4, 36, 110
6, 74592, Note_off_c, 4, 36, 64
6, 74640, Note_on_c, 4, 36, 100
6, 74832, Note_off_c, 4, 36, 64
6, 74880, Note_on_c, 4, 37, 113
6, 75072, Note_off_c, 4, 37, 64
6, 75120, Note_on_c, 4, 37, 109
6, 75312, Note_off_c, 4, 37, 64
6, 75360, Note_on_c, 4, 37, 111
6, 75552, Note_off_c, 4, 37, 64
6, 75600, Note_on_c, 4, 37, 107
6, 75792, Note_off_c, 4, 37, 64
6, 75840, Note_on_c, 4, 32, 108
6, 76032, Note_off_c, 4, 32, 64
6, 76080, Note_on_c, 4, 32, 103
6, 76272, Note_off_c, 4, 32, 64
6, 76320, Note_on_c, 4, 32, 104
6, 76512, Note_off_c, 4, 32, 64
6, 76560, Note_on_c, 4, 32, 117
6, 76752, Note_off_c, 4, 32, 64
6, 76800, Note_on_c, 4, 39, 109
6, 76992, Note_off_c, 4, 39, 64
6, 77040, Note_on_c, 4, 39, 96
6, 77232, Note_off_c, 4, 39, 64
6, 77280, Note_on_c, 4, 39, 110
6, 77472, Note_off_c, 4, 39, 64
6, 77520, Note_on_c, 4, 39, 108
6, 77712, Note_off_c, 4, 39, 64
6, 77760, Note_on_c, 4, 39, 123
6, 77952, Note_off_c, 4, 39, 64
6, 78000, Note_on_c, 4, 39, 121
6, 78192, Note_off_c, 4, 39, 64
6, 78240, Note_on_c, 4, 36, 105
6, 78432, Note_off_c, 4, 36, 64
6, 78480, Note_on_c, 4, 36, 109
6, 78672, Note_off_c, 4, 36, 64
6, 78720, Note_on_c, 4, 37, 103
6, 78912, Note_off_c, 4, 37, 64
6, 78960, Note_on_c, 4, 37, 119
6, 79152, Note_off_c, 4, 37, 64
6, 79200, Note_on_c, 4, 37, 110
6, 79392, Note_off_c, 4, 37, 64
6, 79440, Note_on_c, 4, 37, 119
6, 79632, Note_off_c, 4, 37, 64
6, 79680, Note_on_c, 4, 32, 111
6, 79872, Note_off_c, 4, 32, 64
6, 79920, Note_on_c, 4, 32, 111
6, 80112, Note_off_c, 4, 32, 64
6, 80160, Note_on_c, 4, 32, 101
6, 80352, Note_off_c, 4, 32, 64
6, 80400, Note_on_c, 4, 32, 105
6, 80592, Note_off_c, 4, 32, 64
6, 80640, Note_on_c, 4, 39, 115
6, 80832, Note_off_c, 4, 39, 64
6, 80880, Note_on_c, 4, 39, 120
6, 81072, Note_off_c, 4, 39, 64
6, 81120, Note_on_c, 4, 39, 110
6, 81312, Note_off_c, 4, 39, 64
6, 81360, Note_on_c, 4, 39, 108
6, 81552, Note_off_c, 4, 39, 64
6, 81600, Note_on_c, 4, 39, 117
6, 81792, Note_off_c, 4, 39, 64
6, 81840, Note_on_c, 4, 39, 101
6, 81936, Note_off_c, 4, 39, 64
6, 81960, Note_on_c, 4, 41, 117
6, 82248, Note_off_c, 4, 41, 64
6, 82320, Note_on_c, 4, 39, 116
6, 82416, Note_off_c, 4, 39, 64
6, 82440, Note_on_c, 4, 39, 106
6, 82536, Note_off_c, 4, 39, 64
6, 82560, Note_on_c, 4, 39, 110
6, 82656, Note_off_c, 4, 39, 64
6, 82680, Note_on_c, 4, 41, 111
6, 82776, Note_off_c, 4, 41, 64
6, 82800, Note_on_c, 4, 41, 110
6, 82992, Note_off_c, 4, 41, 64
6, 83040, Note_on_c, 4, 41, 123
6, 84000, Note_off_c, 4, 41, 64
6, 84240, Note_on_c, 4, 39, 124
6, 84336, Note_off_c, 4, 39, 64
6, 84360, Note_on_c, 4, 39, 117
6, 84456, Note_off_c, 4, 39, 64
6, 84480, Note_on_c, 4, 39, 123
6, 84576, Note_off_c, 4, 39, 64
6, 84600, Note_on_c, 4, 41, 110
6, 84696, Note_off_c, 4, 41, 64
6, 84720, Note_on_c, 4, 41, 112
6, 84912, Note_off_c, 4, 41, 64
6, 84960, Note_on_c, 4, 41, 103
6, 86112, Note_off_c, 4, 41, 64
6, 86400, Note_on_c, 4, 39, 114
6, 86496, Note_off_c, 4, 39, 64
6, 86520, Note_on_c, 4, 41, 96
6, 86616, Note_off_c, 4, 41, 64
6, 86640, Note_on_c, 4, 41, 105
6, 86832, Note_off_c, 4, 41, 64
6, 86880, Note_on_c, 4, 41, 109
6, 87840, Note_off_c, 4, 41, 64
6, 88080, Note_on_c, 4, 39, 116
6, 88176, Note_off_c, 4, 39, 64
6, 88200, Note_on_c, 4, 39, 119
6, 88296, Note_off_c, 4, 39, 64
6, 88320, Note_on_c, 4, 39, 107
6, 88416, Note_off_c, 4, 39, 64
6, 88440, Note_on_c, 4, 41, 114
6, 88536, Note_off_c, 4, 41, 64
6, 88560, Note_on_c, 4, 41, 116
6, 88752, Note_off_c, 4, 41, 64
6, 88800, Note_on_c, 4, 41, 113
6, 89952, Note_off_c, 4, 41, 64
6, 90240, Note_on_c, 4, 41, 110
6, 90460, Note_off_c, 4, 41, 64
6, 92160, Note_on_c, 4, 41, 114
6, 92352, Note_off_c, 4, 41, 64
6, 92400, Note_on_c, 4, 41, 110
6, 92592, Note_off_c, 4, 41, 64
6, 92640, Note_on_c, 4, 41, 112
6, 92832, Note_off_c, 4, 41, 64
6, 92880, Note_on_c, 4, 41, 114
6, 93072, Note_off_c, 4, 41, 64
6, 93120, Note_on_c, 4, 41, 109
6, 93312, Note_off_c, 4, 41, 64
6, 93360, Note_on_c, 4, 41, 114
6, 93552, Note_off_c, 4, 41, 64
6, 93600, Note_on_c, 4, 41, 119
6, 93792, Note_off_c, 4, 41, 64
6, 93840, Note_on_c, 4, 41, 104
6, 94032, Note_off_c, 4, 41, 64
6, 94080, Note_on_c, 4, 41, 100
6, 94300, Note_off_c, 4, 41, 64
6, 96000, Note_on_c, 4, 41, 111
6, 96192, Note_off_c, 4, 41, 64
6, 96240, Note_on_c, 4, 41, 110
6, 96432, Note_off_c, 4, 41, 64
6, 96480, Note_on_c, 4, 41, 100
6, 96672, Note_off_c, 4, 41, 64
6, 96720, Note_on_c, 4, 41, 121
6, 96912, Note_off_c, 4, 41, 64
6, 96960, Note_on_c, 4, 41, 116
6, 97152, Note_off_c, 4, 41, 64
6, 97200, Note_on_c, 4, 41, 111
6, 97392, Note_off_c, 4, 41, 64
6, 97440, Note_on_c, 4, 41, 110
6, 97632, Note_off_c, 4, 41, 64
6, 97680, Note_on_c, 4, 41, 111
6, 97872, Note_off_c, 4, 41, 64
6, 97920, Note_on_c, 4, 41, 120
6, 98140, Note_off_c, 4, 41, 64
6, 99600, Note_on_c, 4, 41, 111
6, 99696, Note_off_c, 4, 41, 64
6, 99720, Note_on_c, 4, 41, 100
6, 99820, Note_off_c, 4, 41, 64
6, 100560, Note_on_c, 4, 41, 108
6, 100656, Note_off_c, 4, 41, 64
6, 100680, Note_on_c, 4, 41, 103
6, 100780, Note_off_c, 4, 41, 64
6, 100920, Note_on_c, 4, 48, 115
6, 101016, Note_off_c, 4, 48, 64
6, 101040, Note_on_c, 4, 38, 117
6, 101040, Note_on_c, 4, 50, 112
6, 101232, Note_off_c, 4, 50, 64
6, 101232, Note_off_c, 4, 38, 64
6, 101280, Note_on_c, 4, 41, 118
6, 101280, Note_on_c, 4, 53, 112
6, 101664, Note_off_c, 4, 53, 64
6, 101664, Note_off_c, 4, 41, 64
6, 101760, Note_on_c, 4, 41, 120
6, 101760, Note_on_c, 4, 53, 107
6, 101952, Note_off_c, 4, 53, 64
6, 101952, Note_off_c, 4, 41, 64
6, 102000, Note_on_c, 4, 41, 112
6, 102000, Note_on_c, 4, 53, 113
6, 102192, Note_off_c, 4, 53, 64
6, 102192, Note_off_c, 4, 41, 64
6, 102240, Note_on_c, 4, 41, 118
6, 102240, Note_on_c, 4, 53, 110
6, 102432, Note_off_c, 4, 53, 64
6, 102432, Note_off_c, 4, 41, 64
6, 102480, Note_on_c, 4, 41, 96
6, 102480, Note_on_c, 4, 53, 109
6, 102576, Note_off_c, 4, 53, 64
6, 102576, Note_off_c, 4, 41, 64
6, 102600, Note_on_c, 4, 41, 110
6, 102600, Note_on_c, 4, 53, 122
6, 102700, Note_off_c, 4, 53, 64
6, 102700, Note_off_c, 4, 41, 64
6, 103680, Note_on_c, 4, 37, 119
6, 103872, Note_off_c, 4, 37, 64
6, 103920, Note_on_c, 4, 37, 115
6, 104112, Note_off_c, 4, 37, 64
6, 104160, Note_on_c, 4, 37, 108
6, 104352, Note_off_c, 4, 37, 64
6, 104400, Note_on_c, 4, 37, 124
6, 104592, Note_off_c, 4, 37, 64
6, 104640, Note_on_c, 4, 32, 111
6, 104832, Note_off_c, 4, 32, 64
6, 104880, Note_on_c, 4, 32, 110
6, 105072, Note_off_c, 4, 32, 64
6, 105120, Note_on_c, 4, 32, 113
6, 105312, Note_off_c, 4, 32, 64
6, 105360, Note_on_c, 4, 32, 114
6, 105552, Note_off_c, 4, 32, 64
6, 105600, Note_on_c, 4, 39, 107
6, 105792, Note_off_c, 4, 39, 64
6, 105840, Note_on_c, 4, 39, 108
6, 106032, Note_off_c, 4, 39, 64
6, 106080, Note_on_c, 4, 39, 110
6, 106272, Note_off_c, 4, 39, 64
6, 106320, Note_on_c, 4, 39, 108
6, 106512, Note_off_c, 4, 39, 64
6, 106560, Note_on_c, 4, 39, 102
6, 106752, Note_off_c, 4, 39, 64
6, 106800, Note_on_c, 4, 39, 110
6, 106992, Note_off_c, 4, 39, 64
6, 107040, Note_on_c, 4, 36, 109
6, 107232, Note_off_c, 4, 36, 64
6, 107280, Note_on_c, 4, 36, 106
6, 107472, Note_off_c, 4, 36, 64
6, 107520, Note_on_c, 4, 37, 106
6, 107712, Note_off_c, 4, 37, 64
6, 107760, Note_on_c, 4, 37, 110
6, 107952, Note_off_c, 4, 37, 64
6, 108000, Note_on_c, 4, 37, 109
6, 108192, Note_off_c, 4, 37, 64
6, 108240, Note_on_c, 4, 37, 117
6, 108432, Note_off_c, 4, 37, 64
6, 108480, Note_on_c, 4, 32, 103
6, 108672, Note_off_c, 4, 32, 64
6, 108720, Note_on_c, 4, 32, 123
6, 108912, Note_off_c, 4, 32, 64
6, 108960, Note_on_c, 4, 32, 96
6, 109152, Note_off_c, 4, 32, 64
6, 109200, Note_on_c, 4, 32, 103
6, 109392, Note_off_c, 4, 32, 64
6, 109440, Note_on_c, 4, 39, 111
6, 109632, Note_off_c, 4, 39, 64
6, 109680, Note_on_c, 4, 39, 115
6, 109872, Note_off_c, 4, 39, 64
6, 109920, Note_on_c, 4, 39, 112
6, 110112, Note_off_c, 4, 39, 64
6, 110160, Note_on_c, 4, 39, 109
6, 110352, Note_off_c, 4, 39, 64
6, 110400, Note_on_c, 4, 39, 103
6, 110592, Note_off_c, 4, 39, 64
6, 110640, Note_on_c, 4, 39, 101
6, 110832, Note_off_c, 4, 39, 64
6, 110880, Note_on_c, 4, 36, 110
6, 111072, Note_off_c, 4, 36, 64
6, 111120, Note_on_c, 4, 36, 113
6, 111312, Note_off_c, 4, 36, 64
6, 111360, Note_on_c, 4, 37, 106
6, 111552, Note_off_c, 4, 37, 64
6, 111600, Note_on_c, 4, 37, 109
6, 111792, Note_off_c, 4, 37, 64
6, 111840, Note_on_c, 4, 37, 116
6, 112032, Note_off_c, 4, 37, 64
6, 112080, Note_on_c, 4, 37, 101
6, 112272, Note_off_c, 4, 37, 64
6, 112320, Note_on_c, 4, 32, 120
6, 112512, Note_off_c, 4, 32, 64
6, 112560, Note_on_c, 4, 32, 104
6, 112752, Note_off_c, 4, 32, 64
6, 112800, Note_on_c, 4, 32, 101
6, 112992, Note_off_c, 4, 32, 64
6, 113040, Note_on_c, 4, 32, 118
6, 113232, Note_off_c, 4, 32, 64
6, 113280, Note_on_c, 4, 39, 106
6, 113472, Note_off_c, 4, 39, 64
6, 113520, Note_on_c, 4, 39, 109
6, 113712, Note_off_c, 4, 39, 64
6, 113760, Note_on_c, 4, 39, 104
6, 113952, Note_off_c, 4, 39, 64
6, 114000, Note_on_c, 4, 39, 112
6, 114192, Note_off_c, 4, 39, 64
6, 114240, Note_on_c, 4, 39, 101
6, 114432, Note_off_c, 4, 39, 64
6, 114480, Note_on_c, 4, 39, 124
6, 114576, Note_off_c, 4, 39, 64
6, 114600, Note_on_c, 4, 41, 110
6, 114888, Note_off_c, 4, 41, 64
6, 114960, Note_on_c, 4, 39, 111
6, 115056, Note_off_c, 4, 39, 64
6, 115080, Note_on_c, 4, 39, 102
6, 115176, Note_off_c, 4, 39, 64
6, 115200, Note_on_c, 4, 39, 116
6, 115296, Note_off_c, 4, 39, 64
6, 115320, Note_on_c, 4, 41, 114
6, 115416, Note_off_c, 4, 41, 64
6, 115440, Note_on_c, 4, 41, 109
6, 115632, Note_off_c, 4, 41, 64
6, 115680, Note_on_c, 4, 41, 106
6, 115872, Note_off_c, 4, 41, 64
6, 115920, Note_on_c, 4, 29, 124
6, 116620, Note_off_c, 4, 29, 64
6, 116880, Note_on_c, 4, 39, 111
6, 116976, Note_off_c, 4, 39, 64
6, 117000, Note_on_c, 4, 39, 115
6, 117096, Note_off_c, 4, 39, 64
6, 117120, Note_on_c, 4, 39, 110
6, 117216, Note_off_c, 4, 39, 64
6, 117240, Note_on_c, 4, 41, 107
6, 117336, Note_off_c, 4, 41, 64
6, 117360, Note_on_c, 4, 41, 107
6, 117552, Note_off_c, 4, 41, 64
6, 117600, Note_on_c, 4, 41, 116
6, 117792, Note_off_c, 4, 41, 64
6, 117840, Note_on_c, 4, 29, 110
6, 118540, Note_off_c, 4, 29, 64
6, 118800, Note_on_c, 4, 39, 121
6, 118896, Note_off_c, 4, 39, 64
6, 118920, Note_on_c, 4, 39, 102
6, 119016, Note_off_c, 4, 39, 64
6, 119040, Note_on_c, 4, 39, 110
6, 119136, Note_off_c, 4, 39, 64
6, 119160, Note_on_c, 4, 41, 113
6, 119256, Note_off_c, 4, 41, 64
6, 119280, Note_on_c, 4, 41, 113
6, 119472, Note_off_c, 4, 41, 64
6, 119520, Note_on_c, 4, 41, 104
6, 119712, Note_off_c, 4, 41, 64
6, 119760, Note_on_c, 4, 29, 124
6, 120460, Note_off_c, 4, 29, 64
6, 120720, Note_on_c, 4, 39, 110
6, 120816, Note_off_c, 4, 39, 64
6, 120840, Note_on_c, 4, 39, 97
6, 120936, Note_off_c, 4, 39, 64
6, 120960, Note_on_c, 4, 39, 112
6, 121056, Note_off_c, 4, 39, 64
6, 121080, Note_on_c, 4, 41, 107
6, 121176, Note_off_c, 4, 41, 64
6, 121200, Note_on_c, 4, 41, 114
6, 121392, Note_off_c, 4, 41, 64
6, 121440, Note_on_c, 4, 41, 105
6, 121632, Note_off_c, 4, 41, 64
6, 121680, Note_on_c, 4, 29, 101
6, 122380, Note_off_c, 4, 29, 64
6, 122640, Note_on_c, 4, 29, 106
6, 122640, Note_on_c, 4, 41, 109
6, 122832, Note_off_c, 4, 41, 64
6, 122832, Note_off_c, 4, 29, 64
6, 122880, Note_on_c, 4, 29, 96
6, 122880, Note_on_c, 4, 41, 107
6, 123100, Note_off_c, 4, 41, 64
6, 123100, Note_off_c, 4, 29, 64
6, 124800, Note_on_c, 4, 29, 110
6, 124800, Note_on_c, 4, 41, 111
6, 124992, Note_off_c, 4, 41, 64
6, 124992, Note_off_c, 4, 29, 64
6, 125040, Note_on_c, 4, 29, 99
6, 125040, Note_on_c, 4, 41, 102
6, 125232, Note_off_c, 4, 41, 64
6, 125232, Note_off_c, 4, 29, 64
6, 125280, Note_on_c, 4, 29, 115
6, 125280, Note_on_c, 4, 41, 116
6, 125472, Note_off_c, 4, 41, 64
6, 125472, Note_off_c, 4, 29, 64
6, 125520, Note_on_c, 4, 29, 110
6, 125520, Note_on_c, 4, 41, 110
6, 125712, Note_off_c, 4, 41, 64
6, 125712, Note_off_c, 4, 29, 64
6, 125760, Note_on_c, 4, 29, 123
6, 125760, Note_on_c, 4, 41, 108
6, 125952, Note_off_c, 4, 41, 64
6, 125952, Note_off_c, 4, 29, 64
6, 126000, Note_on_c, 4, 29, 112
6, 126000, Note_on_c, 4, 41, 107
6, 126192, Note_off_c, 4, 41, 64
6, 126192, Note_off_c, 4, 29, 64
6, 126240, Note_on_c, 4, 29, 114
6, 126240, Note_on_c, 4, 41, 109
6, 126432, Note_off_c, 4, 41, 64
6, 126432, Note_off_c, 4, 29, 64
6, 126480, Note_on_c, 4, 29, 109
6, 126480, Note_on_c, 4, 41, 108
6, 126672, Note_off_c, 4, 41, 64
6, 126672, Note_off_c, 4, 29, 64
6, 126720, Note_on_c, 4, 29, 112
6, 126720, Note_on_c, 4, 41, 119
6, 126940, Note_off_c, 4, 41, 64
6, 126940, Note_off_c, 4, 29, 64
6, 128640, Note_on_c, 4, 29, 120
6, 128640, Note_on_c, 4, 41, 105
6, 128832, Note_off_c, 4, 41, 64
6, 128832, Note_off_c, 4, 29, 64
6, 128880, Note_on_c, 4, 29, 97
6, 128880, Note_on_c, 4, 41, 115
6, 129072, Note_off_c, 4, 41, 64
6, 129072, Note_off_c, 4, 29, 64
6, 129120, Note_on_c, 4, 29, 105
6, 129120, Note_on_c, 4, 41, 110
6, 129312, Note_off_c, 4, 41, 64
6, 129312, Note_off_c, 4, 29, 64
6, 129360, Note_on_c, 4, 29, 110
6, 129360, Note_on_c, 4, 41, 107
6, 129552, Note_off_c, 4, 41, 64
6, 129552, Note_off_c, 4, 29, 64
6, 129600, Note_on_c, 4, 29, 109
6, 129600, Note_on_c, 4, 41, 124
6, 129792, Note_off_c, 4, 41, 64
6, 129792, Note_off_c, 4, 29, 64
6, 129840, Note_on_c, 4, 29, 110
6, 129840, Note_on_c, 4, 41, 110
6, 130032, Note_off_c, 4, 41, 64
6, 130032, Note_off_c, 4, 29, 64
6, 130080, Note_on_c, 4, 29, 96
6, 130080, Note_on_c, 4, 41, 99
6, 130272, Note_off_c, 4, 41, 64
6, 130272, Note_off_c, 4, 29, 64
6, 130320, Note_on_c, 4, 29, 109
6, 130320, Note_on_c, 4, 41, 96
6, 130512, Note_off_c, 4, 41, 64
6, 130512, Note_off_c, 4, 29, 64
6, 130560, Note_on_c, 4, 29, 100
6, 130560, Note_on_c, 4, 41, 120
6, 130780, Note_off_c, 4, 41, 64
6, 130780, Note_off_c, 4, 29, 64
6, 132240, Note_on_c, 4, 29, 109
6, 132240, Note_on_c, 4, 41, 110
6, 132336, Note_off_c, 4, 41, 64
6, 132336, Note_off_c, 4, 29, 64
6, 132360, Note_on_c, 4, 29, 101
6, 132360, Note_on_c, 4, 41, 104
6, 132460, Note_off_c, 4, 41, 64
6, 132460, Note_off_c, 4, 29, 64
6, 133200, Note_on_c, 4, 29, 118
6, 133200, Note_on_c, 4, 41, 98
6, 133296, Note_off_c, 4, 41, 64
6, 133296, Note_off_c, 4, 29, 64
6, 133320, Note_on_c, 4, 29, 111
6, 133320, Note_on_c, 4, 41, 110
6, 133420, Note_off_c, 4, 41, 64
6, 133420, Note_off_c, 4, 29, 64
6, 133560, Note_on_c, 4, 48, 103
6, 133656, Note_off_c, 4, 48, 64
6, 133680, Note_on_c, 4, 38, 110
6, 133680, Note_on_c, 4, 50, 114
6, 133872, Note_off_c, 4, 50, 64
6, 133872, Note_off_c, 4, 38, 64
6, 133920, Note_on_c, 4, 41, 109
6, 133920, Note_on_c, 4, 53, 118
6, 134304, Note_off_c, 4, 53, 64
6, 134304, Note_off_c, 4, 41, 64
6, 134400, Note_on_c, 4, 41, 113
6, 134400, Note_on_c, 4, 53, 108
6, 134592, Note_off_c, 4, 53, 64
6, 134592, Note_off_c, 4, 41, 64
6, 134640, Note_on_c, 4, 41, 125
6, 134640, Note_on_c, 4, 53, 110
6, 134832, Note_off_c, 4, 53, 64
6, 134832, Note_off_c, 4, 41, 64
6, 134880, Note_on_c, 4, 41, 114
6, 134880, Note_on_c, 4, 53, 110
6, 135072, Note_off_c, 4, 53, 64
6, 135072, Note_off_c, 4, 41, 64
6, 135120, Note_on_c, 4, 41, 114
6, 135120, Note_on_c, 4, 53, 110
6, 135216, Note_off_c, 4, 53, 64
6, 135216, Note_off_c, 4, 41, 64
6, 135240, Note_on_c, 4, 41, 117
6, 135240, Note_on_c, 4, 53, 112
6, 135340, Note_off_c, 4, 53, 64
6, 135340, Note_off_c, 4, 41, 64
6, 136320, Note_on_c, 4, 37, 117
6, 136512, Note_off_c, 4, 37, 64
6, 136560, Note_on_c, 4, 37, 100
6, 136752, Note_off_c, 4, 37, 64
6, 136800, Note_on_c, 4, 37, 122
6, 136992, Note_off_c, 4, 37, 64
6, 137040, Note_on_c, 4, 37, 100
6, 137232, Note_off_c, 4, 37, 64
6, 137280, Note_on_c, 4, 32, 105
6, 137472, Note_off_c, 4, 32, 64
6, 137520, Note_on_c, 4, 32, 103
6, 137712, Note_off_c, 4, 32, 64
6, 137760, Note_on_c, 4, 32, 97
6, 137952, Note_off_c, 4, 32, 64
6, 138000, Note_on_c, 4, 32, 115
6, 138192, Note_off_c, 4, 32, 64
6, 138240, Note_on_c, 4, 39, 118
6, 138432, Note_off_c, 4, 39, 64
6, 138480, Note_on_c, 4, 39, 110
6, 138672, Note_off_c, 4, 39, 64
6, 138720, Note_on_c, 4, 39, 101
6, 138912, Note_off_c, 4, 39, 64
6, 138960, Note_on_c, 4, 39, 117
6, 139152, Note_off_c, 4, 39, 64
6, 139200, Note_on_c, 4, 39, 102
6, 139392, Note_off_c, 4, 39, 64
6, 139440, Note_on_c, 4, 39, 101
6, 139632, Note_off_c, 4, 39, 64
6, 139680, Note_on_c, 4, 36, 121
6, 139872, Note_off_c, 4, 36, 64
6, 139920, Note_on_c, 4, 36, 124
6, 140112, Note_off_c, 4, 36, 64
6, 140160, Note_on_c, 4, 37, 109
6, 140352, Note_off_c, 4, 37, 64
6, 140400, Note_on_c, 4, 37, 122
6, 140592, Note_off_c, 4, 37, 64
6, 140640, Note_on_c, 4, 37, 110
6, 140832, Note_off_c, 4, 37, 64
6, 140880, Note_on_c, 4, 37, 125
6, 141072, Note_off_c, 4, 37, 64
6, 141120, Note_on_c, 4, 32, 110
6, 141312, Note_off_c, 4, 32, 64
6, 141360, Note_on_c, 4, 32, 101
6, 141552, Note_off_c, 4, 32, 64
6, 141600, Note_on_c, 4, 32, 116
6, 141792, Note_off_c, 4, 32, 64
6, 141840, Note_on_c, 4, 32, 109
6, 142032, Note_off_c, 4, 32, 64
6, 142080, Note_on_c, 4, 39, 121
6, 142272, Note_off_c, 4, 39, 64
6, 142320, Note_on_c, 4, 39, 117
6, 142512, Note_off_c, 4, 39, 64
6, 142560, Note_on_c, 4, 39, 112
6, 142752, Note_off_c, 4, 39, 64
6, 142800, Note_on_c, 4, 39, 110
6, 142992, Note_off_c, 4, 39, 64
6, 143040, Note_on_c, 4, 39, 96
6, 143232, Note_off_c, 4, 39, 64
6, 143280, Note_on_c, 4, 39, 111
6, 143472, Note_off_c, 4, 39, 64
6, 143520, Note_on_c, 4, 36, 98
6, 143712, Note_off_c, 4, 36, 64
6, 143760, Note_on_c, 4, 36, 120
6, 143952, Note_off_c, 4, 36, 64
6, 144000, Note_on_c, 4, 37, 95
6, 144192, Note_off_c, 4, 37, 64
6, 144240, Note_on_c, 4, 37, 102
6, 144432, Note_off_c, 4, 37, 64
6, 144480, Note_on_c, 4, 37, 110
6, 144672, Note_off_c, 4, 37, 64
6, 144720, Note_on_c, 4, 37, 122
6, 144912, Note_off_c, 4, 37, 64
6, 144960, Note_on_c, 4, 32, 116
6, 145152, Note_off_c, 4, 32, 64
6, 145200, Note_on_c, 4, 32, 100
6, 145392, Note_off_c, 4, 32, 64
6, 145440, Note_on_c, 4, 32, 97
6, 145632, Note_off_c, 4, 32, 64
6, 145680, Note_on_c, 4, 32, 104
6, 145872, Note_off_c, 4, 32, 64
6, 145920, Note_on_c, 4, 39, 124
6, 146112, Note_off_c, 4, 39, 64
6, 146160, Note_on_c, 4, 39, 107
6, 146352, Note_off_c, 4, 39, 64
6, 146400, Note_on_c, 4, 39, 107
6, 146592, Note_off_c, 4, 39, 64
6, 146640, Note_on_c, 4, 39, 110
6, 146832, Note_off_c, 4, 39, 64
6, 146880, Note_on_c, 4, 39, 110
6, 147072, Note_off_c, 4, 39, 64
6, 147120, Note_on_c, 4, 39, 113
6, 147216, Note_off_c, 4, 39, 64
6, 147240, Note_on_c, 4, 41, 116
6, 147528, Note_off_c, 4, 41, 64
6, 147600, Note_on_c, 4, 39, 112
6, 147696, Note_off_c, 4, 39, 64
6, 147720, Note_on_c, 4, 39, 101
6, 147816, Note_off_c, 4, 39, 64
6, 147840, Note_on_c, 4, 39, 118
6, 147936, Note_off_c, 4, 39, 64
6, 147960, Note_on_c, 4, 41, 96
6, 148056, Note_off_c, 4, 41, 64
6, 148080, Note_on_c, 4, 41, 112
6, 148272, Note_off_c, 4, 41, 64
6, 148320, Note_on_c, 4, 41, 110
6, 148512, Note_off_c, 4, 41, 64
6, 148560, Note_on_c, 4, 29, 122
6, 149260, Note_off_c, 4, 29, 64
6, 149520, Note_on_c, 4, 39, 106
6, 149616, Note_off_c, 4, 39, 64
6, 149640, Note_on_c, 4, 39, 113
6, 149736, Note_off_c, 4, 39, 64
6, 149760, Note_on_c, 4, 39, 111
6, 149856, Note_off_c, 4, 39, 64
6, 149880, Note_on_c, 4, 41, 123
6, 149976, Note_off_c, 4, 41, 64
6, 150000, Note_on_c, 4, 41, 117
6, 150192, Note_off_c, 4, 41, 64
6, 150240, Note_on_c, 4, 41, 97
6, 150432, Note_off_c, 4, 41, 64
6, 150480, Note_on_c, 4, 29, 118
6, 151180, Note_off_c, 4, 29, 64
6, 151440, Note_on_c, 4, 39, 110
6, 151536, Note_off_c, 4, 39, 64
6, 151560, Note_on_c, 4, 39, 95
6, 151656, Note_off_c, 4, 39, 64
6, 151680, Note_on_c, 4, 39, 104
6, 151776, Note_off_c, 4, 39, 64
6, 151800, Note_on_c, 4, 41, 98
6, 151896, Note_off_c, 4, 41, 64
6, 151920, Note_on_c, 4, 41, 120
6, 152112, Note_off_c, 4, 41, 64
6, 152160, Note_on_c, 4, 41, 110
6, 152352, Note_off_c, 4, 41, 64
6, 152400, Note_on_c, 4, 29, 97
6, 153100, Note_off_c, 4, 29, 64
6, 153360, Note_on_c, 4, 39, 112
6, 153456, Note_off_c, 4, 39, 64
6, 153480, Note_on_c, 4, 39, 119
6, 153576, Note_off_c, 4, 39, 64
6, 153600, Note_on_c, 4, 39, 118
6, 153696, Note_off_c, 4, 39, 64
6, 153720, Note_on_c, 4, 41, 110
6, 153816, Note_off_c, 4, 41, 64
6, 153840, Note_on_c, 4, 41, 110
6, 154032, Note_off_c, 4, 41, 64
6, 154080, Note_on_c, 4, 41, 115
6, 154272, Note_off_c, 4, 41, 64
6, 154320, Note_on_c, 4, 29, 116
6, 155020, Note_off_c, 4, 29, 64
6, 155280, Note_on_c, 4, 29, 110
6, 155280, Note_on_c, 4, 41, 123
6, 155472, Note_off_c, 4, 41, 64
6, 155472, Note_off_c, 4, 29, 64
6, 155520, Note_on_c, 4, 29, 101
6, 155520, Note_on_c, 4, 41, 98
6, 155740, Note_off_c, 4, 41, 64
6, 155740, Note_off_c, 4, 29, 64
6, 157440, Note_on_c, 4, 29, 118
6, 157440, Note_on_c, 4, 41, 110
6, 157632, Note_off_c, 4, 41, 64
6, 157632, Note_off_c, 4, 29, 64
6, 157680, Note_on_c, 4, 29, 111
6, 157680, Note_on_c, 4, 41, 110
6, 157872, Note_off_c, 4, 41, 64
6, 157872, Note_off_c, 4, 29, 64
6, 157920, Note_on_c, 4, 29, 95
6, 157920, Note_on_c, 4, 41, 110
6, 158112, Note_off_c, 4, 41, 64
6, 158112, Note_off_c, 4, 29, 64
6, 158160, Note_on_c, 4, 29, 107
6, 158160, Note_on_c, 4, 41, 111
6, 158352, Note_off_c, 4, 41, 64
6, 158352, Note_off_c, 4, 29, 64
6, 158400, Note_on_c, 4, 29, 104
6, 158400, Note_on_c, 4, 41, 98
6, 158592, Note_off_c, 4, 41, 64
6, 158592, Note_off_c, 4, 29, 64
6, 158640, Note_on_c, 4, 29, 124
6, 158640, Note_on_c, 4, 41, 110
6, 158832, Note_off_c, 4, 41, 64
6, 158832, Note_off_c, 4, 29, 64
6, 158880, Note_on_c, 4, 29, 101
6, 158880, Note_on_c, 4, 41, 111
6, 159072, Note_off_c, 4, 41, 64
6, 159072, Note_off_c, 4, 29, 64
6, 159120, Note_on_c, 4, 29, 104
6, 159120, Note_on_c, 4, 41, 108
6, 159312, Note_off_c, 4, 41, 64
6, 159312, Note_off_c, 4, 29, 64
6, 159360, Note_on_c, 4, 29, 111
6, 159360, Note_on_c, 4, 41, 119
6, 159580, Note_off_c, 4, 41, 64
6, 159580, Note_off_c, 4, 29, 64
6, 161280, Note_on_c, 4, 29, 111
6, 161280, Note_on_c, 4, 41, 125
6, 161472, Note_off_c, 4, 41, 64
6, 161472, Note_off_c, 4, 29, 64
6, 161520, Note_on_c, 4, 29, 109
6, 161520, Note_on_c, 4, 41, 110
6, 161712, Note_off_c, 4, 41, 64
6, 161712, Note_off_c, 4, 29, 64
6, 161760, Note_on_c, 4, 29, 111
6, 161760, Note_on_c, 4, 41, 122
6, 161952, Note_off_c, 4, 41, 64
6, 161952, Note_off_c, 4, 29, 64
6, 162000, Note_on_c, 4, 29, 103
6, 162000, Note_on_c, 4, 41, 105
6, 162192, Note_off_c, 4, 41, 64
6, 162192, Note_off_c, 4, 29, 64
6, 162240, Note_on_c, 4, 29, 100
6, 162240, Note_on_c, 4, 41, 110
6, 162432, Note_off_c, 4, 41, 64
6, 162432, Note_off_c, 4, 29, 64
6, 162480, Note_on_c, 4, 29, 101
6, 162480, Note_on_c, 4, 41, 110
6, 162672, Note_off_c, 4, 41, 64
6, 162672, Note_off_c, 4, 29, 64
6, 162720, Note_on_c, 4, 29, 101
6, 162720, Note_on_c, 4, 41, 110
6, 162912, Note_off_c, 4, 41, 64
6, 162912, Note_off_c, 4, 29, 64
6, 162960, Note_on_c, 4, 29, 115
6, 162960, Note_on_c, 4, 41, 111
6, 163152, Note_off_c, 4, 41, 64
6, 163152, Note_off_c, 4, 29, 64
6, 163200, Note_on_c, 4, 29, 115
6, 163200, Note_on_c, 4, 41, 118
6, 163420, Note_off_c, 4, 41, 64
6, 163420, Note_off_c, 4, 29, 64
6, 164880, Note_on_c, 4, 29, 120
6, 164880, Note_on_c, 4, 41, 110
6, 164976, Note_off_c, 4, 41, 64
6, 164976, Note_off_c, 4, 29, 64
6, 165000, Note_on_c, 4, 29, 109
6, 165000, Note_on_c, 4, 41, 104
6, 165100, Note_off_c, 4, 41, 64
6, 165100, Note_off_c, 4, 29, 64
6, 165840, Note_on_c, 4, 29, 112
6, 165840, Note_on_c, 4, 41, 109
6, 165936, Note_off_c, 4, 41, 64
6, 165936, Note_off_c, 4, 29, 64
6, 165960, Note_on_c, 4, 29, 117
6, 165960, Note_on_c, 4, 41, 97
6, 166060, Note_off_c, 4, 41, 64
6, 166060, Note_off_c, 4, 29, 64
6, 166200, Note_on_c, 4, 48, 102
6, 166296, Note_off_c, 4, 48, 64
6, 166320, Note_on_c, 4, 38, 109
6, 166320, Note_on_c, 4, 50, 108
6, 166512, Note_off_c, 4, 50, 64
6, 166512, Note_off_c, 4, 38, 64
6, 166560, Note_on_c, 4, 41, 103
6, 166560, Note_on_c, 4, 53, 113
6, 166944, Note_off_c, 4, 53, 64
6, 166944, Note_off_c, 4, 41, 64
6, 167040, Note_on_c, 4, 41, 111
6, 167040, Note_on_c, 4, 53, 105
6, 167232, Note_off_c, 4, 53, 64
6, 167232, Note_off_c, 4, 41, 64
6, 167280, Note_on_c, 4, 41, 110
6, 167280, Note_on_c, 4, 53, 115
6, 167472, Note_off_c, 4, 53, 64
6, 167472, Note_off_c, 4, 41, 64
6, 167520, Note_on_c, 4, 41, 111
6, 167520, Note_on_c, 4, 53, 116
6, 167712, Note_off_c, 4, 53, 64
6, 167712, Note_off_c, 4, 41, 64
6, 167760, Note_on_c, 4, 41, 104
6, 167760, Note_on_c, 4, 53, 111
6, 167856, Note_off_c, 4, 53, 64
6, 167856, Note_off_c, 4, 41, 64
6, 167880, Note_on_c, 4, 41, 113
6, 167880, Note_on_c, 4, 53, 97
6, 167980, Note_off_c, 4, 53, 64
6, 167980, Note_off_c, 4, 41, 64
6, 168000, Control_c, 4, 86, 37
6, 168000, End_track
7, 0, Start_track
7, 0, Title_t, "Drums   "
7, 0, MIDI_port, 0
7, 0, Channel_prefix, 9
7, 0, Control_c, 9, 7, 127
7, 0, Control_c, 9, 10, 64
7, 0, Program_c, 9, 32
7, 0, Note_on_c, 9, 37, 84
7, 0, Control_c, 9, 121, 0
7, 40, Control_c, 9, 123, 0
7, 120, Control_c, 9, 91, 45
7, 480, Note_off_c, 9, 37, 64
7, 960, Note_on_c, 9, 37, 84
7, 1440, Note_off_c, 9, 37, 64
7, 1920, Note_on_c, 9, 37, 64
7, 2400, Note_off_c, 9, 37, 64
7, 2400, Note_on_c, 9, 37, 84
7, 2880, Note_off_c, 9, 37, 64
7, 2880, Note_on_c, 9, 37, 64
7, 3360, Note_off_c, 9, 37, 64
7, 3360, Note_on_c, 9, 37, 84
7, 3840, Note_off_c, 9, 37, 64
7, 3840, Note_on_c, 9, 35, 127
7, 3840, Note_on_c, 9, 42, 100
7, 3840, Note_on_c, 9, 37, 80
7, 3840, Note_on_c, 9, 56, 100
7, 3840, Note_on_c, 9, 49, 100
7, 3840, Note_on_c, 9, 54, 115
7, 3940, Note_off_c, 9, 54, 64
7, 3940, Note_off_c, 9, 49, 64
7, 3940, Note_off_c, 9, 56, 64
7, 3940, Note_off_c, 9, 37, 64
7, 3940, Note_off_c, 9, 42, 64
7, 3940, Note_off_c, 9, 35, 64
7, 3960, Note_on_c, 9, 42, 70
7, 3960, Note_on_c, 9, 37, 50
7, 3960, Note_on_c, 9, 54, 60
7, 4060, Note_off_c, 9, 54, 64
7, 4060, Note_off_c, 9, 37, 64
7, 4060, Note_off_c, 9, 42, 64
7, 4080, Note_on_c, 9, 42, 80
7, 4080, Note_on_c, 9, 37, 80
7, 4080, Note_on_c, 9, 56, 115
7, 4080, Note_on_c, 9, 54, 115
7, 4180, Note_off_c, 9, 54, 64
7, 4180, Note_off_c, 9, 56, 64
7, 4180, Note_off_c, 9, 37, 64
7, 4180, Note_off_c, 9, 42, 64
7, 4200, Note_on_c, 9, 42, 70
7, 4200, Note_on_c, 9, 37, 50
7, 4200, Note_on_c, 9, 54, 60
7, 4300, Note_off_c, 9, 54, 64
7, 4300, Note_off_c, 9, 37, 64
7, 4300, Note_off_c, 9, 42, 64
7, 4320, Note_on_c, 9, 35, 127
7, 4320, Note_on_c, 9, 38, 127
7, 4320, Note_on_c, 9, 42, 100
7, 4320, Note_on_c, 9, 37, 80
7, 4320, Note_on_c, 9, 54, 115
7, 4320, Note_on_c, 9, 39, 115
7, 4420, Note_off_c, 9, 39, 64
7, 4420, Note_off_c, 9, 54, 64
7, 4420, Note_off_c, 9, 37, 64
7, 4420, Note_off_c, 9, 42, 64
7, 4420, Note_off_c, 9, 38, 64
7, 4420, Note_off_c, 9, 35, 64
7, 4440, Note_on_c, 9, 42, 70
7, 4440, Note_on_c, 9, 37, 50
7, 4440, Note_on_c, 9, 54, 60
7, 4540, Note_off_c, 9, 54, 64
7, 4540, Note_off_c, 9, 37, 64
7, 4540, Note_off_c, 9, 42, 64
7, 4560, Note_on_c, 9, 42, 80
7, 4560, Note_on_c, 9, 37, 80
7, 4560, Note_on_c, 9, 56, 100
7, 4560, Note_on_c, 9, 54, 115
7, 4660, Note_off_c, 9, 54, 64
7, 4660, Note_off_c, 9, 56, 64
7, 4660, Note_off_c, 9, 37, 64
7, 4660, Note_off_c, 9, 42, 64
7, 4680, Note_on_c, 9, 35, 115
7, 4680, Note_on_c, 9, 42, 70
7, 4680, Note_on_c, 9, 37, 50
7, 4680, Note_on_c, 9, 56, 115
7, 4680, Note_on_c, 9, 54, 60
7, 4780, Note_off_c, 9, 54, 64
7, 4780, Note_off_c, 9, 56, 64
7, 4780, Note_off_c, 9, 37, 64
7, 4780, Note_off_c, 9, 42, 64
7, 4780, Note_off_c, 9, 35, 64
7, 4800, Note_on_c, 9, 35, 127
7, 4800, Note_on_c, 9, 42, 100
7, 4800, Note_on_c, 9, 37, 80
7, 4800, Note_on_c, 9, 56, 115
7, 4800, Note_on_c, 9, 54, 115
7, 4900, Note_off_c, 9, 54, 64
7, 4900, Note_off_c, 9, 56, 64
7, 4900, Note_off_c, 9, 37, 64
7, 4900, Note_off_c, 9, 42, 64
7, 4900, Note_off_c, 9, 35, 64
7, 4920, Note_on_c, 9, 42, 70
7, 4920, Note_on_c, 9, 37, 50
7, 4920, Note_on_c, 9, 54, 60
7, 5020, Note_off_c, 9, 54, 64
7, 5020, Note_off_c, 9, 37, 64
7, 5020, Note_off_c, 9, 42, 64
7, 5040, Note_on_c, 9, 42, 80
7, 5040, Note_on_c, 9, 37, 80
7, 5040, Note_on_c, 9, 56, 115
7, 5040, Note_on_c, 9, 54, 115
7, 5140, Note_off_c, 9, 54, 64
7, 5140, Note_off_c, 9, 56, 64
7, 5140, Note_off_c, 9, 37, 64
7, 5140, Note_off_c, 9, 42, 64
7, 5160, Note_on_c, 9, 42, 70
7, 5160, Note_on_c, 9, 37, 50
7, 5160, Note_on_c, 9, 54, 60
7, 5260, Note_off_c, 9, 54, 64
7, 5260, Note_off_c, 9, 37, 64
7, 5260, Note_off_c, 9, 42, 64
7, 5280, Note_on_c, 9, 35, 127
7, 5280, Note_on_c, 9, 38, 127
7, 5280, Note_on_c, 9, 42, 100
7, 5280, Note_on_c, 9, 37, 80
7, 5280, Note_on_c, 9, 54, 115
7, 5280, Note_on_c, 9, 39, 115
7, 5380, Note_off_c, 9, 39, 64
7, 5380, Note_off_c, 9, 54, 64
7, 5380, Note_off_c, 9, 37, 64
7, 5380, Note_off_c, 9, 42, 64
7, 5380, Note_off_c, 9, 38, 64
7, 5380, Note_off_c, 9, 35, 64
7, 5400, Note_on_c, 9, 35, 115
7, 5400, Note_on_c, 9, 42, 70
7, 5400, Note_on_c, 9, 37, 50
7, 5400, Note_on_c, 9, 54, 60
7, 5500, Note_off_c, 9, 54, 64
7, 5500, Note_off_c, 9, 37, 64
7, 5500, Note_off_c, 9, 42, 64
7, 5500, Note_off_c, 9, 35, 64
7, 5520, Note_on_c, 9, 35, 127
7, 5520, Note_on_c, 9, 42, 90
7, 5520, Note_on_c, 9, 37, 80
7, 5520, Note_on_c, 9, 54, 115
7, 5620, Note_off_c, 9, 54, 64
7, 5620, Note_off_c, 9, 37, 64
7, 5620, Note_off_c, 9, 42, 64
7, 5620, Note_off_c, 9, 35, 64
7, 5640, Note_on_c, 9, 35, 115
7, 5640, Note_on_c, 9, 42, 90
7, 5640, Note_on_c, 9, 37, 50
7, 5640, Note_on_c, 9, 54, 60
7, 5740, Note_off_c, 9, 54, 64
7, 5740, Note_off_c, 9, 37, 64
7, 5740, Note_off_c, 9, 42, 64
7, 5740, Note_off_c, 9, 35, 64
7, 5760, Note_on_c, 9, 35, 127
7, 5760, Note_on_c, 9, 42, 100
7, 5760, Note_on_c, 9, 37, 80
7, 5760, Note_on_c, 9, 56, 100
7, 5760, Note_on_c, 9, 54, 115
7, 5860, Note_off_c, 9, 54, 64
7, 5860, Note_off_c, 9, 56, 64
7, 5860, Note_off_c, 9, 37, 64
7, 5860, Note_off_c, 9, 42, 64
7, 5860, Note_off_c, 9, 35, 64
7, 5880, Note_on_c, 9, 42, 70
7, 5880, Note_on_c, 9, 37, 50
7, 5880, Note_on_c, 9, 54, 60
7, 5980, Note_off_c, 9, 54, 64
7, 5980, Note_off_c, 9, 37, 64
7, 5980, Note_off_c, 9, 42, 64
7, 6000, Note_on_c, 9, 42, 80
7, 6000, Note_on_c, 9, 37, 80
7, 6000, Note_on_c, 9, 56, 115
7, 6000, Note_on_c, 9, 54, 115
7, 6100, Note_off_c, 9, 54, 64
7, 6100, Note_off_c, 9, 56, 64
7, 6100, Note_off_c, 9, 37, 64
7, 6100, Note_off_c, 9, 42, 64
7, 6120, Note_on_c, 9, 42, 70
7, 6120, Note_on_c, 9, 37, 50
7, 6120, Note_on_c, 9, 54, 60
7, 6220, Note_off_c, 9, 54, 64
7, 6220, Note_off_c, 9, 37, 64
7, 6220, Note_off_c, 9, 42, 64
7, 6240, Note_on_c, 9, 35, 127
7, 6240, Note_on_c, 9, 38, 127
7, 6240, Note_on_c, 9, 42, 100
7, 6240, Note_on_c, 9, 37, 80
7, 6240, Note_on_c, 9, 54, 115
7, 6240, Note_on_c, 9, 39, 115
7, 6340, Note_off_c, 9, 39, 64
7, 6340, Note_off_c, 9, 54, 64
7, 6340, Note_off_c, 9, 37, 64
7, 6340, Note_off_c, 9, 42, 64
7, 6340, Note_off_c, 9, 38, 64
7, 6340, Note_off_c, 9, 35, 64
7, 6360, Note_on_c, 9, 42, 70
7, 6360, Note_on_c, 9, 37, 50
7, 6360, Note_on_c, 9, 54, 60
7, 6460, Note_off_c, 9, 54, 64
7, 6460, Note_off_c, 9, 37, 64
7, 6460, Note_off_c, 9, 42, 64
7, 6480, Note_on_c, 9, 42, 80
7, 6480, Note_on_c, 9, 37, 80
7, 6480, Note_on_c, 9, 56, 100
7, 6480, Note_on_c, 9, 54, 115
7, 6580, Note_off_c, 9, 54, 64
7, 6580, Note_off_c, 9, 56, 64
7, 6580, Note_off_c, 9, 37, 64
7, 6580, Note_off_c, 9, 42, 64
7, 6600, Note_on_c, 9, 35, 115
7, 6600, Note_on_c, 9, 42, 70
7, 6600, Note_on_c, 9, 37, 50
7, 6600, Note_on_c, 9, 56, 115
7, 6600, Note_on_c, 9, 54, 60
7, 6700, Note_off_c, 9, 54, 64
7, 6700, Note_off_c, 9, 56, 64
7, 6700, Note_off_c, 9, 37, 64
7, 6700, Note_off_c, 9, 42, 64
7, 6700, Note_off_c, 9, 35, 64
7, 6720, Note_on_c, 9, 35, 127
7, 6720, Note_on_c, 9, 42, 100
7, 6720, Note_on_c, 9, 37, 80
7, 6720, Note_on_c, 9, 56, 115
7, 6720, Note_on_c, 9, 54, 115
7, 6820, Note_off_c, 9, 54, 64
7, 6820, Note_off_c, 9, 56, 64
7, 6820, Note_off_c, 9, 37, 64
7, 6820, Note_off_c, 9, 42, 64
7, 6820, Note_off_c, 9, 35, 64
7, 6840, Note_on_c, 9, 42, 70
7, 6840, Note_on_c, 9, 37, 50
7, 6840, Note_on_c, 9, 54, 60
7, 6940, Note_off_c, 9, 54, 64
7, 6940, Note_off_c, 9, 37, 64
7, 6940, Note_off_c, 9, 42, 64
7, 6960, Note_on_c, 9, 42, 80
7, 6960, Note_on_c, 9, 37, 80
7, 6960, Note_on_c, 9, 56, 115
7, 6960, Note_on_c, 9, 54, 115
7, 7060, Note_off_c, 9, 54, 64
7, 7060, Note_off_c, 9, 56, 64
7, 7060, Note_off_c, 9, 37, 64
7, 7060, Note_off_c, 9, 42, 64
7, 7080, Note_on_c, 9, 42, 70
7, 7080, Note_on_c, 9, 37, 50
7, 7080, Note_on_c, 9, 54, 60
7, 7180, Note_off_c, 9, 54, 64
7, 7180, Note_off_c, 9, 37, 64
7, 7180, Note_off_c, 9, 42, 64
7, 7200, Note_on_c, 9, 35, 127
7, 7200, Note_on_c, 9, 38, 127
7, 7200, Note_on_c, 9, 42, 100
7, 7200, Note_on_c, 9, 37, 80
7, 7200, Note_on_c, 9, 54, 115
7, 7200, Note_on_c, 9, 39, 115
7, 7300, Note_off_c, 9, 39, 64
7, 7300, Note_off_c, 9, 54, 64
7, 7300, Note_off_c, 9, 37, 64
7, 7300, Note_off_c, 9, 42, 64
7, 7300, Note_off_c, 9, 38, 64
7, 7300, Note_off_c, 9, 35, 64
7, 7320, Note_on_c, 9, 35, 115
7, 7320, Note_on_c, 9, 42, 70
7, 7320, Note_on_c, 9, 37, 50
7, 7320, Note_on_c, 9, 54, 60
7, 7420, Note_off_c, 9, 54, 64
7, 7420, Note_off_c, 9, 37, 64
7, 7420, Note_off_c, 9, 42, 64
7, 7420, Note_off_c, 9, 35, 64
7, 7440, Note_on_c, 9, 35, 127
7, 7440, Note_on_c, 9, 42, 90
7, 7440, Note_on_c, 9, 37, 80
7, 7440, Note_on_c, 9, 54, 115
7, 7540, Note_off_c, 9, 54, 64
7, 7540, Note_off_c, 9, 37, 64
7, 7540, Note_off_c, 9, 42, 64
7, 7540, Note_off_c, 9, 35, 64
7, 7560, Note_on_c, 9, 35, 115
7, 7560, Note_on_c, 9, 42, 90
7, 7560, Note_on_c, 9, 37, 50
7, 7560, Note_on_c, 9, 54, 60
7, 7660, Note_off_c, 9, 54, 64
7, 7660, Note_off_c, 9, 37, 64
7, 7660, Note_off_c, 9, 42, 64
7, 7660, Note_off_c, 9, 35, 64
7, 7680, Note_on_c, 9, 35, 127
7, 7680, Note_on_c, 9, 42, 100
7, 7680, Note_on_c, 9, 37, 80
7, 7680, Note_on_c, 9, 56, 100
7, 7680, Note_on_c, 9, 54, 115
7, 7780, Note_off_c, 9, 54, 64
7, 7780, Note_off_c, 9, 56, 64
7, 7780, Note_off_c, 9, 37, 64
7, 7780, Note_off_c, 9, 42, 64
7, 7780, Note_off_c, 9, 35, 64
7, 7800, Note_on_c, 9, 42, 70
7, 7800, Note_on_c, 9, 37, 50
7, 7800, Note_on_c, 9, 54, 60
7, 7900, Note_off_c, 9, 54, 64
7, 7900, Note_off_c, 9, 37, 64
7, 7900, Note_off_c, 9, 42, 64
7, 7920, Note_on_c, 9, 42, 80
7, 7920, Note_on_c, 9, 37, 80
7, 7920, Note_on_c, 9, 56, 115
7, 7920, Note_on_c, 9, 54, 115
7, 8020, Note_off_c, 9, 54, 64
7, 8020, Note_off_c, 9, 56, 64
7, 8020, Note_off_c, 9, 37, 64
7, 8020, Note_off_c, 9, 42, 64
7, 8040, Note_on_c, 9, 42, 70
7, 8040, Note_on_c, 9, 37, 50
7, 8040, Note_on_c, 9, 54, 60
7, 8140, Note_off_c, 9, 54, 64
7, 8140, Note_off_c, 9, 37, 64
7, 8140, Note_off_c, 9, 42, 64
7, 8160, Note_on_c, 9, 35, 127
7, 8160, Note_on_c, 9, 38, 127
7, 8160, Note_on_c, 9, 42, 100
7, 8160, Note_on_c, 9, 37, 80
7, 8160, Note_on_c, 9, 54, 115
7, 8160, Note_on_c, 9, 39, 115
7, 8260, Note_off_c, 9, 39, 64
7, 8260, Note_off_c, 9, 54, 64
7, 8260, Note_off_c, 9, 37, 64
7, 8260, Note_off_c, 9, 42, 64
7, 8260, Note_off_c, 9, 38, 64
7, 8260, Note_off_c, 9, 35, 64
7, 8280, Note_on_c, 9, 42, 70
7, 8280, Note_on_c, 9, 37, 50
7, 8280, Note_on_c, 9, 54, 60
7, 8380, Note_off_c, 9, 54, 64
7, 8380, Note_off_c, 9, 37, 64
7, 8380, Note_off_c, 9, 42, 64
7, 8400, Note_on_c, 9, 42, 80
7, 8400, Note_on_c, 9, 37, 80
7, 8400, Note_on_c, 9, 56, 100
7, 8400, Note_on_c, 9, 54, 115
7, 8500, Note_off_c, 9, 54, 64
7, 8500, Note_off_c, 9, 56, 64
7, 8500, Note_off_c, 9, 37, 64
7, 8500, Note_off_c, 9, 42, 64
7, 8520, Note_on_c, 9, 35, 115
7, 8520, Note_on_c, 9, 42, 70
7, 8520, Note_on_c, 9, 37, 50
7, 8520, Note_on_c, 9, 56, 115
7, 8520, Note_on_c, 9, 54, 60
7, 8620, Note_off_c, 9, 54, 64
7, 8620, Note_off_c, 9, 56, 64
7, 8620, Note_off_c, 9, 37, 64
7, 8620, Note_off_c, 9, 42, 64
7, 8620, Note_off_c, 9, 35, 64
7, 8640, Note_on_c, 9, 35, 127
7, 8640, Note_on_c, 9, 42, 100
7, 8640, Note_on_c, 9, 37, 80
7, 8640, Note_on_c, 9, 56, 115
7, 8640, Note_on_c, 9, 54, 115
7, 8740, Note_off_c, 9, 54, 64
7, 8740, Note_off_c, 9, 56, 64
7, 8740, Note_off_c, 9, 37, 64
7, 8740, Note_off_c, 9, 42, 64
7, 8740, Note_off_c, 9, 35, 64
7, 8760, Note_on_c, 9, 42, 70
7, 8760, Note_on_c, 9, 37, 50
7, 8760, Note_on_c, 9, 54, 60
7, 8860, Note_off_c, 9, 54, 64
7, 8860, Note_off_c, 9, 37, 64
7, 8860, Note_off_c, 9, 42, 64
7, 8880, Note_on_c, 9, 42, 80
7, 8880, Note_on_c, 9, 37, 80
7, 8880, Note_on_c, 9, 56, 115
7, 8880, Note_on_c, 9, 54, 115
7, 8980, Note_off_c, 9, 54, 64
7, 8980, Note_off_c, 9, 56, 64
7, 8980, Note_off_c, 9, 37, 64
7, 8980, Note_off_c, 9, 42, 64
7, 9000, Note_on_c, 9, 42, 70
7, 9000, Note_on_c, 9, 37, 50
7, 9000, Note_on_c, 9, 54, 60
7, 9100, Note_off_c, 9, 54, 64
7, 9100, Note_off_c, 9, 37, 64
7, 9100, Note_off_c, 9, 42, 64
7, 9120, Note_on_c, 9, 35, 127
7, 9120, Note_on_c, 9, 38, 127
7, 9120, Note_on_c, 9, 42, 100
7, 9120, Note_on_c, 9, 37, 80
7, 9120, Note_on_c, 9, 54, 115
7, 9120, Note_on_c, 9, 39, 115
7, 9220, Note_off_c, 9, 39, 64
7, 9220, Note_off_c, 9, 54, 64
7, 9220, Note_off_c, 9, 37, 64
7, 9220, Note_off_c, 9, 42, 64
7, 9220, Note_off_c, 9, 38, 64
7, 9220, Note_off_c, 9, 35, 64
7, 9240, Note_on_c, 9, 35, 115
7, 9240, Note_on_c, 9, 42, 70
7, 9240, Note_on_c, 9, 37, 50
7, 9240, Note_on_c, 9, 54, 60
7, 9340, Note_off_c, 9, 54, 64
7, 9340, Note_off_c, 9, 37, 64
7, 9340, Note_off_c, 9, 42, 64
7, 9340, Note_off_c, 9, 35, 64
7, 9360, Note_on_c, 9, 35, 127
7, 9360, Note_on_c, 9, 42, 90
7, 9360, Note_on_c, 9, 37, 80
7, 9360, Note_on_c, 9, 54, 115
7, 9460, Note_off_c, 9, 54, 64
7, 9460, Note_off_c, 9, 37, 64
7, 9460, Note_off_c, 9, 42, 64
7, 9460, Note_off_c, 9, 35, 64
7, 9480, Note_on_c, 9, 35, 115
7, 9480, Note_on_c, 9, 42, 90
7, 9480, Note_on_c, 9, 37, 50
7, 9480, Note_on_c, 9, 54, 60
7, 9580, Note_off_c, 9, 54, 64
7, 9580, Note_off_c, 9, 37, 64
7, 9580, Note_off_c, 9, 42, 64
7, 9580, Note_off_c, 9, 35, 64
7, 9600, Note_on_c, 9, 35, 127
7, 9600, Note_on_c, 9, 42, 100
7, 9600, Note_on_c, 9, 37, 80
7, 9600, Note_on_c, 9, 56, 100
7, 9600, Note_on_c, 9, 54, 115
7, 9700, Note_off_c, 9, 54, 64
7, 9700, Note_off_c, 9, 56, 64
7, 9700, Note_off_c, 9, 37, 64
7, 9700, Note_off_c, 9, 42, 64
7, 9700, Note_off_c, 9, 35, 64
7, 9720, Note_on_c, 9, 42, 70
7, 9720, Note_on_c, 9, 37, 50
7, 9720, Note_on_c, 9, 54, 60
7, 9820, Note_off_c, 9, 54, 64
7, 9820, Note_off_c, 9, 37, 64
7, 9820, Note_off_c, 9, 42, 64
7, 9840, Note_on_c, 9, 42, 80
7, 9840, Note_on_c, 9, 37, 80
7, 9840, Note_on_c, 9, 56, 115
7, 9840, Note_on_c, 9, 54, 115
7, 9940, Note_off_c, 9, 54, 64
7, 9940, Note_off_c, 9, 56, 64
7, 9940, Note_off_c, 9, 37, 64
7, 9940, Note_off_c, 9, 42, 64
7, 9960, Note_on_c, 9, 42, 70
7, 9960, Note_on_c, 9, 37, 50
7, 9960, Note_on_c, 9, 54, 60
7, 10060, Note_off_c, 9, 54, 64
7, 10060, Note_off_c, 9, 37, 64
7, 10060, Note_off_c, 9, 42, 64
7, 10080, Note_on_c, 9, 35, 127
7, 10080, Note_on_c, 9, 38, 127
7, 10080, Note_on_c, 9, 42, 100
7, 10080, Note_on_c, 9, 37, 80
7, 10080, Note_on_c, 9, 54, 115
7, 10080, Note_on_c, 9, 39, 115
7, 10180, Note_off_c, 9, 39, 64
7, 10180, Note_off_c, 9, 54, 64
7, 10180, Note_off_c, 9, 37, 64
7, 10180, Note_off_c, 9, 42, 64
7, 10180, Note_off_c, 9, 38, 64
7, 10180, Note_off_c, 9, 35, 64
7, 10200, Note_on_c, 9, 42, 70
7, 10200, Note_on_c, 9, 37, 50
7, 10200, Note_on_c, 9, 54, 60
7, 10300, Note_off_c, 9, 54, 64
7, 10300, Note_off_c, 9, 37, 64
7, 10300, Note_off_c, 9, 42, 64
7, 10320, Note_on_c, 9, 42, 80
7, 10320, Note_on_c, 9, 37, 80
7, 10320, Note_on_c, 9, 56, 100
7, 10320, Note_on_c, 9, 54, 115
7, 10420, Note_off_c, 9, 54, 64
7, 10420, Note_off_c, 9, 56, 64
7, 10420, Note_off_c, 9, 37, 64
7, 10420, Note_off_c, 9, 42, 64
7, 10440, Note_on_c, 9, 35, 115
7, 10440, Note_on_c, 9, 42, 70
7, 10440, Note_on_c, 9, 37, 50
7, 10440, Note_on_c, 9, 56, 115
7, 10440, Note_on_c, 9, 54, 60
7, 10540, Note_off_c, 9, 54, 64
7, 10540, Note_off_c, 9, 56, 64
7, 10540, Note_off_c, 9, 37, 64
7, 10540, Note_off_c, 9, 42, 64
7, 10540, Note_off_c, 9, 35, 64
7, 10560, Note_on_c, 9, 35, 127
7, 10560, Note_on_c, 9, 42, 100
7, 10560, Note_on_c, 9, 37, 80
7, 10560, Note_on_c, 9, 56, 115
7, 10560, Note_on_c, 9, 54, 115
7, 10660, Note_off_c, 9, 54, 64
7, 10660, Note_off_c, 9, 56, 64
7, 10660, Note_off_c, 9, 37, 64
7, 10660, Note_off_c, 9, 42, 64
7, 10660, Note_off_c, 9, 35, 64
7, 10680, Note_on_c, 9, 42, 70
7, 10680, Note_on_c, 9, 37, 50
7, 10680, Note_on_c, 9, 54, 60
7, 10780, Note_off_c, 9, 54, 64
7, 10780, Note_off_c, 9, 37, 64
7, 10780, Note_off_c, 9, 42, 64
7, 10800, Note_on_c, 9, 42, 80
7, 10800, Note_on_c, 9, 37, 80
7, 10800, Note_on_c, 9, 56, 115
7, 10800, Note_on_c, 9, 54, 115
7, 10900, Note_off_c, 9, 54, 64
7, 10900, Note_off_c, 9, 56, 64
7, 10900, Note_off_c, 9, 37, 64
7, 10900, Note_off_c, 9, 42, 64
7, 10920, Note_on_c, 9, 42, 70
7, 10920, Note_on_c, 9, 37, 50
7, 10920, Note_on_c, 9, 54, 60
7, 11020, Note_off_c, 9, 54, 64
7, 11020, Note_off_c, 9, 37, 64
7, 11020, Note_off_c, 9, 42, 64
7, 11040, Note_on_c, 9, 35, 127
7, 11040, Note_on_c, 9, 38, 127
7, 11040, Note_on_c, 9, 42, 100
7, 11040, Note_on_c, 9, 37, 80
7, 11040, Note_on_c, 9, 54, 115
7, 11040, Note_on_c, 9, 39, 115
7, 11140, Note_off_c, 9, 39, 64
7, 11140, Note_off_c, 9, 54, 64
7, 11140, Note_off_c, 9, 37, 64
7, 11140, Note_off_c, 9, 42, 64
7, 11140, Note_off_c, 9, 38, 64
7, 11140, Note_off_c, 9, 35, 64
7, 11160, Note_on_c, 9, 35, 115
7, 11160, Note_on_c, 9, 42, 70
7, 11160, Note_on_c, 9, 37, 50
7, 11160, Note_on_c, 9, 54, 60
7, 11260, Note_off_c, 9, 54, 64
7, 11260, Note_off_c, 9, 37, 64
7, 11260, Note_off_c, 9, 42, 64
7, 11260, Note_off_c, 9, 35, 64
7, 11280, Note_on_c, 9, 35, 127
7, 11280, Note_on_c, 9, 42, 90
7, 11280, Note_on_c, 9, 37, 80
7, 11280, Note_on_c, 9, 54, 115
7, 11380, Note_off_c, 9, 54, 64
7, 11380, Note_off_c, 9, 37, 64
7, 11380, Note_off_c, 9, 42, 64
7, 11380, Note_off_c, 9, 35, 64
7, 11400, Note_on_c, 9, 35, 115
7, 11400, Note_on_c, 9, 42, 90
7, 11400, Note_on_c, 9, 37, 50
7, 11400, Note_on_c, 9, 54, 60
7, 11500, Note_off_c, 9, 54, 64
7, 11500, Note_off_c, 9, 37, 64
7, 11500, Note_off_c, 9, 42, 64
7, 11500, Note_off_c, 9, 35, 64
7, 11520, Note_on_c, 9, 35, 127
7, 11520, Note_on_c, 9, 42, 100
7, 11520, Note_on_c, 9, 37, 80
7, 11520, Note_on_c, 9, 56, 100
7, 11520, Note_on_c, 9, 54, 115
7, 11620, Note_off_c, 9, 54, 64
7, 11620, Note_off_c, 9, 56, 64
7, 11620, Note_off_c, 9, 37, 64
7, 11620, Note_off_c, 9, 42, 64
7, 11620, Note_off_c, 9, 35, 64
7, 11640, Note_on_c, 9, 42, 70
7, 11640, Note_on_c, 9, 37, 50
7, 11640, Note_on_c, 9, 54, 60
7, 11740, Note_off_c, 9, 54, 64
7, 11740, Note_off_c, 9, 37, 64
7, 11740, Note_off_c, 9, 42, 64
7, 11760, Note_on_c, 9, 42, 80
7, 11760, Note_on_c, 9, 37, 80
7, 11760, Note_on_c, 9, 56, 115
7, 11760, Note_on_c, 9, 54, 115
7, 11860, Note_off_c, 9, 54, 64
7, 11860, Note_off_c, 9, 56, 64
7, 11860, Note_off_c, 9, 37, 64
7, 11860, Note_off_c, 9, 42, 64
7, 11880, Note_on_c, 9, 42, 70
7, 11880, Note_on_c, 9, 37, 50
7, 11880, Note_on_c, 9, 54, 60
7, 11980, Note_off_c, 9, 54, 64
7, 11980, Note_off_c, 9, 37, 64
7, 11980, Note_off_c, 9, 42, 64
7, 12000, Note_on_c, 9, 35, 127
7, 12000, Note_on_c, 9, 38, 127
7, 12000, Note_on_c, 9, 42, 100
7, 12000, Note_on_c, 9, 37, 80
7, 12000, Note_on_c, 9, 54, 115
7, 12000, Note_on_c, 9, 39, 115
7, 12100, Note_off_c, 9, 39, 64
7, 12100, Note_off_c, 9, 54, 64
7, 12100, Note_off_c, 9, 37, 64
7, 12100, Note_off_c, 9, 42, 64
7, 12100, Note_off_c, 9, 38, 64
7, 12100, Note_off_c, 9, 35, 64
7, 12120, Note_on_c, 9, 42, 70
7, 12120, Note_on_c, 9, 37, 50
7, 12120, Note_on_c, 9, 54, 60
7, 12220, Note_off_c, 9, 54, 64
7, 12220, Note_off_c, 9, 37, 64
7, 12220, Note_off_c, 9, 42, 64
7, 12240, Note_on_c, 9, 42, 80
7, 12240, Note_on_c, 9, 37, 80
7, 12240, Note_on_c, 9, 56, 100
7, 12240, Note_on_c, 9, 54, 115
7, 12340, Note_off_c, 9, 54, 64
7, 12340, Note_off_c, 9, 56, 64
7, 12340, Note_off_c, 9, 37, 64
7, 12340, Note_off_c, 9, 42, 64
7, 12360, Note_on_c, 9, 35, 115
7, 12360, Note_on_c, 9, 42, 70
7, 12360, Note_on_c, 9, 37, 50
7, 12360, Note_on_c, 9, 56, 115
7, 12360, Note_on_c, 9, 54, 60
7, 12460, Note_off_c, 9, 54, 64
7, 12460, Note_off_c, 9, 56, 64
7, 12460, Note_off_c, 9, 37, 64
7, 12460, Note_off_c, 9, 42, 64
7, 12460, Note_off_c, 9, 35, 64
7, 12480, Note_on_c, 9, 35, 127
7, 12480, Note_on_c, 9, 42, 100
7, 12480, Note_on_c, 9, 37, 80
7, 12480, Note_on_c, 9, 56, 115
7, 12480, Note_on_c, 9, 54, 115
7, 12580, Note_off_c, 9, 54, 64
7, 12580, Note_off_c, 9, 56, 64
7, 12580, Note_off_c, 9, 37, 64
7, 12580, Note_off_c, 9, 42, 64
7, 12580, Note_off_c, 9, 35, 64
7, 12600, Note_on_c, 9, 42, 70
7, 12600, Note_on_c, 9, 37, 50
7, 12600, Note_on_c, 9, 54, 60
7, 12700, Note_off_c, 9, 54, 64
7, 12700, Note_off_c, 9, 37, 64
7, 12700, Note_off_c, 9, 42, 64
7, 12720, Note_on_c, 9, 42, 80
7, 12720, Note_on_c, 9, 37, 80
7, 12720, Note_on_c, 9, 56, 115
7, 12720, Note_on_c, 9, 54, 115
7, 12820, Note_off_c, 9, 54, 64
7, 12820, Note_off_c, 9, 56, 64
7, 12820, Note_off_c, 9, 37, 64
7, 12820, Note_off_c, 9, 42, 64
7, 12840, Note_on_c, 9, 42, 70
7, 12840, Note_on_c, 9, 37, 50
7, 12840, Note_on_c, 9, 54, 60
7, 12940, Note_off_c, 9, 54, 64
7, 12940, Note_off_c, 9, 37, 64
7, 12940, Note_off_c, 9, 42, 64
7, 12960, Note_on_c, 9, 35, 127
7, 12960, Note_on_c, 9, 38, 127
7, 12960, Note_on_c, 9, 42, 100
7, 12960, Note_on_c, 9, 37, 80
7, 12960, Note_on_c, 9, 54, 115
7, 12960, Note_on_c, 9, 39, 115
7, 13060, Note_off_c, 9, 39, 64
7, 13060, Note_off_c, 9, 54, 64
7, 13060, Note_off_c, 9, 37, 64
7, 13060, Note_off_c, 9, 42, 64
7, 13060, Note_off_c, 9, 38, 64
7, 13060, Note_off_c, 9, 35, 64
7, 13080, Note_on_c, 9, 35, 115
7, 13080, Note_on_c, 9, 42, 70
7, 13080, Note_on_c, 9, 37, 50
7, 13080, Note_on_c, 9, 54, 60
7, 13180, Note_off_c, 9, 54, 64
7, 13180, Note_off_c, 9, 37, 64
7, 13180, Note_off_c, 9, 42, 64
7, 13180, Note_off_c, 9, 35, 64
7, 13200, Note_on_c, 9, 35, 127
7, 13200, Note_on_c, 9, 42, 90
7, 13200, Note_on_c, 9, 37, 80
7, 13200, Note_on_c, 9, 54, 115
7, 13300, Note_off_c, 9, 54, 64
7, 13300, Note_off_c, 9, 37, 64
7, 13300, Note_off_c, 9, 42, 64
7, 13300, Note_off_c, 9, 35, 64
7, 13320, Note_on_c, 9, 35, 115
7, 13320, Note_on_c, 9, 42, 90
7, 13320, Note_on_c, 9, 37, 50
7, 13320, Note_on_c, 9, 54, 60
7, 13420, Note_off_c, 9, 54, 64
7, 13420, Note_off_c, 9, 37, 64
7, 13420, Note_off_c, 9, 42, 64
7, 13420, Note_off_c, 9, 35, 64
7, 13440, Note_on_c, 9, 35, 127
7, 13440, Note_on_c, 9, 42, 100
7, 13440, Note_on_c, 9, 37, 80
7, 13440, Note_on_c, 9, 56, 100
7, 13440, Note_on_c, 9, 54, 115
7, 13540, Note_off_c, 9, 54, 64
7, 13540, Note_off_c, 9, 56, 64
7, 13540, Note_off_c, 9, 37, 64
7, 13540, Note_off_c, 9, 42, 64
7, 13540, Note_off_c, 9, 35, 64
7, 13560, Note_on_c, 9, 42, 70
7, 13560, Note_on_c, 9, 37, 50
7, 13560, Note_on_c, 9, 54, 60
7, 13660, Note_off_c, 9, 54, 64
7, 13660, Note_off_c, 9, 37, 64
7, 13660, Note_off_c, 9, 42, 64
7, 13680, Note_on_c, 9, 42, 80
7, 13680, Note_on_c, 9, 37, 80
7, 13680, Note_on_c, 9, 56, 115
7, 13680, Note_on_c, 9, 54, 115
7, 13780, Note_off_c, 9, 54, 64
7, 13780, Note_off_c, 9, 56, 64
7, 13780, Note_off_c, 9, 37, 64
7, 13780, Note_off_c, 9, 42, 64
7, 13800, Note_on_c, 9, 42, 70
7, 13800, Note_on_c, 9, 37, 50
7, 13800, Note_on_c, 9, 54, 60
7, 13900, Note_off_c, 9, 54, 64
7, 13900, Note_off_c, 9, 37, 64
7, 13900, Note_off_c, 9, 42, 64
7, 13920, Note_on_c, 9, 35, 127
7, 13920, Note_on_c, 9, 38, 127
7, 13920, Note_on_c, 9, 42, 100
7, 13920, Note_on_c, 9, 37, 80
7, 13920, Note_on_c, 9, 54, 115
7, 13920, Note_on_c, 9, 39, 115
7, 14020, Note_off_c, 9, 39, 64
7, 14020, Note_off_c, 9, 54, 64
7, 14020, Note_off_c, 9, 37, 64
7, 14020, Note_off_c, 9, 42, 64
7, 14020, Note_off_c, 9, 38, 64
7, 14020, Note_off_c, 9, 35, 64
7, 14040, Note_on_c, 9, 42, 70
7, 14040, Note_on_c, 9, 37, 50
7, 14040, Note_on_c, 9, 54, 60
7, 14140, Note_off_c, 9, 54, 64
7, 14140, Note_off_c, 9, 37, 64
7, 14140, Note_off_c, 9, 42, 64
7, 14160, Note_on_c, 9, 42, 80
7, 14160, Note_on_c, 9, 37, 80
7, 14160, Note_on_c, 9, 56, 100
7, 14160, Note_on_c, 9, 54, 115
7, 14260, Note_off_c, 9, 54, 64
7, 14260, Note_off_c, 9, 56, 64
7, 14260, Note_off_c, 9, 37, 64
7, 14260, Note_off_c, 9, 42, 64
7, 14280, Note_on_c, 9, 35, 115
7, 14280, Note_on_c, 9, 42, 70
7, 14280, Note_on_c, 9, 37, 50
7, 14280, Note_on_c, 9, 56, 115
7, 14280, Note_on_c, 9, 54, 60
7, 14380, Note_off_c, 9, 54, 64
7, 14380, Note_off_c, 9, 56, 64
7, 14380, Note_off_c, 9, 37, 64
7, 14380, Note_off_c, 9, 42, 64
7, 14380, Note_off_c, 9, 35, 64
7, 14400, Note_on_c, 9, 35, 127
7, 14400, Note_on_c, 9, 42, 100
7, 14400, Note_on_c, 9, 37, 80
7, 14400, Note_on_c, 9, 56, 115
7, 14400, Note_on_c, 9, 54, 115
7, 14500, Note_off_c, 9, 54, 64
7, 14500, Note_off_c, 9, 56, 64
7, 14500, Note_off_c, 9, 37, 64
7, 14500, Note_off_c, 9, 42, 64
7, 14500, Note_off_c, 9, 35, 64
7, 14520, Note_on_c, 9, 42, 70
7, 14520, Note_on_c, 9, 37, 50
7, 14520, Note_on_c, 9, 54, 60
7, 14620, Note_off_c, 9, 54, 64
7, 14620, Note_off_c, 9, 37, 64
7, 14620, Note_off_c, 9, 42, 64
7, 14640, Note_on_c, 9, 42, 80
7, 14640, Note_on_c, 9, 37, 80
7, 14640, Note_on_c, 9, 56, 115
7, 14640, Note_on_c, 9, 54, 115
7, 14740, Note_off_c, 9, 54, 64
7, 14740, Note_off_c, 9, 56, 64
7, 14740, Note_off_c, 9, 37, 64
7, 14740, Note_off_c, 9, 42, 64
7, 14760, Note_on_c, 9, 42, 70
7, 14760, Note_on_c, 9, 37, 50
7, 14760, Note_on_c, 9, 54, 60
7, 14860, Note_off_c, 9, 54, 64
7, 14860, Note_off_c, 9, 37, 64
7, 14860, Note_off_c, 9, 42, 64
7, 14880, Note_on_c, 9, 35, 127
7, 14880, Note_on_c, 9, 38, 127
7, 14880, Note_on_c, 9, 42, 100
7, 14880, Note_on_c, 9, 37, 80
7, 14880, Note_on_c, 9, 54, 115
7, 14880, Note_on_c, 9, 39, 115
7, 14980, Note_off_c, 9, 39, 64
7, 14980, Note_off_c, 9, 54, 64
7, 14980, Note_off_c, 9, 37, 64
7, 14980, Note_off_c, 9, 42, 64
7, 14980, Note_off_c, 9, 38, 64
7, 14980, Note_off_c, 9, 35, 64
7, 15000, Note_on_c, 9, 35, 115
7, 15000, Note_on_c, 9, 42, 70
7, 15000, Note_on_c, 9, 37, 50
7, 15000, Note_on_c, 9, 54, 60
7, 15100, Note_off_c, 9, 54, 64
7, 15100, Note_off_c, 9, 37, 64
7, 15100, Note_off_c, 9, 42, 64
7, 15100, Note_off_c, 9, 35, 64
7, 15120, Note_on_c, 9, 35, 127
7, 15120, Note_on_c, 9, 42, 90
7, 15120, Note_on_c, 9, 37, 80
7, 15120, Note_on_c, 9, 54, 115
7, 15220, Note_off_c, 9, 54, 64
7, 15220, Note_off_c, 9, 37, 64
7, 15220, Note_off_c, 9, 42, 64
7, 15220, Note_off_c, 9, 35, 64
7, 15240, Note_on_c, 9, 35, 115
7, 15240, Note_on_c, 9, 42, 90
7, 15240, Note_on_c, 9, 37, 50
7, 15240, Note_on_c, 9, 54, 60
7, 15340, Note_off_c, 9, 54, 64
7, 15340, Note_off_c, 9, 37, 64
7, 15340, Note_off_c, 9, 42, 64
7, 15340, Note_off_c, 9, 35, 64
7, 15360, Note_on_c, 9, 35, 127
7, 15360, Note_on_c, 9, 42, 100
7, 15360, Note_on_c, 9, 37, 80
7, 15360, Note_on_c, 9, 56, 100
7, 15360, Note_on_c, 9, 54, 115
7, 15460, Note_off_c, 9, 54, 64
7, 15460, Note_off_c, 9, 56, 64
7, 15460, Note_off_c, 9, 37, 64
7, 15460, Note_off_c, 9, 42, 64
7, 15460, Note_off_c, 9, 35, 64
7, 15480, Note_on_c, 9, 42, 70
7, 15480, Note_on_c, 9, 37, 50
7, 15480, Note_on_c, 9, 54, 60
7, 15580, Note_off_c, 9, 54, 64
7, 15580, Note_off_c, 9, 37, 64
7, 15580, Note_off_c, 9, 42, 64
7, 15600, Note_on_c, 9, 42, 80
7, 15600, Note_on_c, 9, 37, 80
7, 15600, Note_on_c, 9, 56, 115
7, 15600, Note_on_c, 9, 54, 115
7, 15700, Note_off_c, 9, 54, 64
7, 15700, Note_off_c, 9, 56, 64
7, 15700, Note_off_c, 9, 37, 64
7, 15700, Note_off_c, 9, 42, 64
7, 15720, Note_on_c, 9, 42, 70
7, 15720, Note_on_c, 9, 37, 50
7, 15720, Note_on_c, 9, 54, 60
7, 15820, Note_off_c, 9, 54, 64
7, 15820, Note_off_c, 9, 37, 64
7, 15820, Note_off_c, 9, 42, 64
7, 15840, Note_on_c, 9, 35, 127
7, 15840, Note_on_c, 9, 38, 127
7, 15840, Note_on_c, 9, 42, 100
7, 15840, Note_on_c, 9, 37, 80
7, 15840, Note_on_c, 9, 54, 115
7, 15840, Note_on_c, 9, 39, 115
7, 15940, Note_off_c, 9, 39, 64
7, 15940, Note_off_c, 9, 54, 64
7, 15940, Note_off_c, 9, 37, 64
7, 15940, Note_off_c, 9, 42, 64
7, 15940, Note_off_c, 9, 38, 64
7, 15940, Note_off_c, 9, 35, 64
7, 15960, Note_on_c, 9, 42, 70
7, 15960, Note_on_c, 9, 37, 50
7, 15960, Note_on_c, 9, 54, 60
7, 16060, Note_off_c, 9, 54, 64
7, 16060, Note_off_c, 9, 37, 64
7, 16060, Note_off_c, 9, 42, 64
7, 16080, Note_on_c, 9, 42, 80
7, 16080, Note_on_c, 9, 37, 80
7, 16080, Note_on_c, 9, 56, 100
7, 16080, Note_on_c, 9, 54, 115
7, 16180, Note_off_c, 9, 54, 64
7, 16180, Note_off_c, 9, 56, 64
7, 16180, Note_off_c, 9, 37, 64
7, 16180, Note_off_c, 9, 42, 64
7, 16200, Note_on_c, 9, 35, 115
7, 16200, Note_on_c, 9, 42, 70
7, 16200, Note_on_c, 9, 37, 50
7, 16200, Note_on_c, 9, 56, 115
7, 16200, Note_on_c, 9, 54, 60
7, 16300, Note_off_c, 9, 54, 64
7, 16300, Note_off_c, 9, 56, 64
7, 16300, Note_off_c, 9, 37, 64
7, 16300, Note_off_c, 9, 42, 64
7, 16300, Note_off_c, 9, 35, 64
7, 16320, Note_on_c, 9, 35, 127
7, 16320, Note_on_c, 9, 42, 100
7, 16320, Note_on_c, 9, 37, 80
7, 16320, Note_on_c, 9, 56, 115
7, 16320, Note_on_c, 9, 54, 115
7, 16420, Note_off_c, 9, 54, 64
7, 16420, Note_off_c, 9, 56, 64
7, 16420, Note_off_c, 9, 37, 64
7, 16420, Note_off_c, 9, 42, 64
7, 16420, Note_off_c, 9, 35, 64
7, 16440, Note_on_c, 9, 42, 70
7, 16440, Note_on_c, 9, 37, 50
7, 16440, Note_on_c, 9, 54, 60
7, 16540, Note_off_c, 9, 54, 64
7, 16540, Note_off_c, 9, 37, 64
7, 16540, Note_off_c, 9, 42, 64
7, 16560, Note_on_c, 9, 42, 80
7, 16560, Note_on_c, 9, 37, 80
7, 16560, Note_on_c, 9, 56, 115
7, 16560, Note_on_c, 9, 54, 115
7, 16660, Note_off_c, 9, 54, 64
7, 16660, Note_off_c, 9, 56, 64
7, 16660, Note_off_c, 9, 37, 64
7, 16660, Note_off_c, 9, 42, 64
7, 16680, Note_on_c, 9, 42, 70
7, 16680, Note_on_c, 9, 37, 50
7, 16680, Note_on_c, 9, 54, 60
7, 16780, Note_off_c, 9, 54, 64
7, 16780, Note_off_c, 9, 37, 64
7, 16780, Note_off_c, 9, 42, 64
7, 16800, Note_on_c, 9, 35, 127
7, 16800, Note_on_c, 9, 38, 127
7, 16800, Note_on_c, 9, 42, 100
7, 16800, Note_on_c, 9, 37, 80
7, 16800, Note_on_c, 9, 54, 115
7, 16800, Note_on_c, 9, 39, 115
7, 16900, Note_off_c, 9, 39, 64
7, 16900, Note_off_c, 9, 54, 64
7, 16900, Note_off_c, 9, 37, 64
7, 16900, Note_off_c, 9, 42, 64
7, 16900, Note_off_c, 9, 38, 64
7, 16900, Note_off_c, 9, 35, 64
7, 16920, Note_on_c, 9, 35, 115
7, 16920, Note_on_c, 9, 42, 70
7, 16920, Note_on_c, 9, 37, 50
7, 16920, Note_on_c, 9, 54, 60
7, 17020, Note_off_c, 9, 54, 64
7, 17020, Note_off_c, 9, 37, 64
7, 17020, Note_off_c, 9, 42, 64
7, 17020, Note_off_c, 9, 35, 64
7, 17040, Note_on_c, 9, 35, 127
7, 17040, Note_on_c, 9, 42, 90
7, 17040, Note_on_c, 9, 37, 80
7, 17040, Note_on_c, 9, 54, 115
7, 17140, Note_off_c, 9, 54, 64
7, 17140, Note_off_c, 9, 37, 64
7, 17140, Note_off_c, 9, 42, 64
7, 17140, Note_off_c, 9, 35, 64
7, 17160, Note_on_c, 9, 35, 115
7, 17160, Note_on_c, 9, 42, 90
7, 17160, Note_on_c, 9, 37, 50
7, 17160, Note_on_c, 9, 54, 60
7, 17260, Note_off_c, 9, 54, 64
7, 17260, Note_off_c, 9, 37, 64
7, 17260, Note_off_c, 9, 42, 64
7, 17260, Note_off_c, 9, 35, 64
7, 17280, Note_on_c, 9, 35, 127
7, 17280, Note_on_c, 9, 42, 100
7, 17280, Note_on_c, 9, 37, 80
7, 17280, Note_on_c, 9, 56, 100
7, 17280, Note_on_c, 9, 54, 115
7, 17380, Note_off_c, 9, 54, 64
7, 17380, Note_off_c, 9, 56, 64
7, 17380, Note_off_c, 9, 37, 64
7, 17380, Note_off_c, 9, 42, 64
7, 17380, Note_off_c, 9, 35, 64
7, 17400, Note_on_c, 9, 42, 70
7, 17400, Note_on_c, 9, 37, 50
7, 17400, Note_on_c, 9, 54, 60
7, 17500, Note_off_c, 9, 54, 64
7, 17500, Note_off_c, 9, 37, 64
7, 17500, Note_off_c, 9, 42, 64
7, 17520, Note_on_c, 9, 42, 80
7, 17520, Note_on_c, 9, 37, 80
7, 17520, Note_on_c, 9, 56, 115
7, 17520, Note_on_c, 9, 54, 115
7, 17620, Note_off_c, 9, 54, 64
7, 17620, Note_off_c, 9, 56, 64
7, 17620, Note_off_c, 9, 37, 64
7, 17620, Note_off_c, 9, 42, 64
7, 17640, Note_on_c, 9, 42, 70
7, 17640, Note_on_c, 9, 37, 50
7, 17640, Note_on_c, 9, 54, 60
7, 17740, Note_off_c, 9, 54, 64
7, 17740, Note_off_c, 9, 37, 64
7, 17740, Note_off_c, 9, 42, 64
7, 17760, Note_on_c, 9, 35, 127
7, 17760, Note_on_c, 9, 38, 127
7, 17760, Note_on_c, 9, 42, 100
7, 17760, Note_on_c, 9, 37, 80
7, 17760, Note_on_c, 9, 54, 115
7, 17760, Note_on_c, 9, 39, 115
7, 17860, Note_off_c, 9, 39, 64
7, 17860, Note_off_c, 9, 54, 64
7, 17860, Note_off_c, 9, 37, 64
7, 17860, Note_off_c, 9, 42, 64
7, 17860, Note_off_c, 9, 38, 64
7, 17860, Note_off_c, 9, 35, 64
7, 17880, Note_on_c, 9, 42, 70
7, 17880, Note_on_c, 9, 37, 50
7, 17880, Note_on_c, 9, 54, 60
7, 17980, Note_off_c, 9, 54, 64
7, 17980, Note_off_c, 9, 37, 64
7, 17980, Note_off_c, 9, 42, 64
7, 18000, Note_on_c, 9, 42, 80
7, 18000, Note_on_c, 9, 37, 80
7, 18000, Note_on_c, 9, 56, 100
7, 18000, Note_on_c, 9, 54, 115
7, 18100, Note_off_c, 9, 54, 64
7, 18100, Note_off_c, 9, 56, 64
7, 18100, Note_off_c, 9, 37, 64
7, 18100, Note_off_c, 9, 42, 64
7, 18120, Note_on_c, 9, 35, 115
7, 18120, Note_on_c, 9, 42, 70
7, 18120, Note_on_c, 9, 37, 50
7, 18120, Note_on_c, 9, 56, 115
7, 18120, Note_on_c, 9, 54, 60
7, 18220, Note_off_c, 9, 54, 64
7, 18220, Note_off_c, 9, 56, 64
7, 18220, Note_off_c, 9, 37, 64
7, 18220, Note_off_c, 9, 42, 64
7, 18220, Note_off_c, 9, 35, 64
7, 18240, Note_on_c, 9, 35, 127
7, 18240, Note_on_c, 9, 42, 100
7, 18240, Note_on_c, 9, 37, 80
7, 18240, Note_on_c, 9, 56, 115
7, 18240, Note_on_c, 9, 54, 115
7, 18340, Note_off_c, 9, 54, 64
7, 18340, Note_off_c, 9, 56, 64
7, 18340, Note_off_c, 9, 37, 64
7, 18340, Note_off_c, 9, 42, 64
7, 18340, Note_off_c, 9, 35, 64
7, 18360, Note_on_c, 9, 42, 70
7, 18360, Note_on_c, 9, 37, 50
7, 18360, Note_on_c, 9, 54, 60
7, 18460, Note_off_c, 9, 54, 64
7, 18460, Note_off_c, 9, 37, 64
7, 18460, Note_off_c, 9, 42, 64
7, 18480, Note_on_c, 9, 42, 80
7, 18480, Note_on_c, 9, 37, 80
7, 18480, Note_on_c, 9, 56, 115
7, 18480, Note_on_c, 9, 54, 115
7, 18580, Note_off_c, 9, 54, 64
7, 18580, Note_off_c, 9, 56, 64
7, 18580, Note_off_c, 9, 37, 64
7, 18580, Note_off_c, 9, 42, 64
7, 18600, Note_on_c, 9, 42, 70
7, 18600, Note_on_c, 9, 37, 50
7, 18600, Note_on_c, 9, 54, 60
7, 18700, Note_off_c, 9, 54, 64
7, 18700, Note_off_c, 9, 37, 64
7, 18700, Note_off_c, 9, 42, 64
7, 18720, Note_on_c, 9, 35, 127
7, 18720, Note_on_c, 9, 38, 127
7, 18720, Note_on_c, 9, 42, 100
7, 18720, Note_on_c, 9, 37, 80
7, 18720, Note_on_c, 9, 54, 115
7, 18720, Note_on_c, 9, 39, 115
7, 18820, Note_off_c, 9, 39, 64
7, 18820, Note_off_c, 9, 54, 64
7, 18820, Note_off_c, 9, 37, 64
7, 18820, Note_off_c, 9, 42, 64
7, 18820, Note_off_c, 9, 38, 64
7, 18820, Note_off_c, 9, 35, 64
7, 18840, Note_on_c, 9, 35, 115
7, 18840, Note_on_c, 9, 42, 70
7, 18840, Note_on_c, 9, 37, 50
7, 18840, Note_on_c, 9, 54, 60
7, 18940, Note_off_c, 9, 54, 64
7, 18940, Note_off_c, 9, 37, 64
7, 18940, Note_off_c, 9, 42, 64
7, 18940, Note_off_c, 9, 35, 64
7, 18960, Note_on_c, 9, 35, 127
7, 18960, Note_on_c, 9, 42, 90
7, 18960, Note_on_c, 9, 37, 80
7, 18960, Note_on_c, 9, 54, 115
7, 19060, Note_off_c, 9, 54, 64
7, 19060, Note_off_c, 9, 37, 64
7, 19060, Note_off_c, 9, 42, 64
7, 19060, Note_off_c, 9, 35, 64
7, 19080, Note_on_c, 9, 35, 115
7, 19080, Note_on_c, 9, 42, 90
7, 19080, Note_on_c, 9, 37, 50
7, 19080, Note_on_c, 9, 54, 60
7, 19180, Note_off_c, 9, 54, 64
7, 19180, Note_off_c, 9, 37, 64
7, 19180, Note_off_c, 9, 42, 64
7, 19180, Note_off_c, 9, 35, 64
7, 19200, Note_on_c, 9, 35, 127
7, 19200, Note_on_c, 9, 38, 127
7, 19200, Note_on_c, 9, 42, 100
7, 19200, Note_on_c, 9, 37, 80
7, 19200, Note_on_c, 9, 56, 100
7, 19200, Note_on_c, 9, 54, 115
7, 19300, Note_off_c, 9, 54, 64
7, 19300, Note_off_c, 9, 56, 64
7, 19300, Note_off_c, 9, 37, 64
7, 19300, Note_off_c, 9, 42, 64
7, 19300, Note_off_c, 9, 38, 64
7, 19300, Note_off_c, 9, 35, 64
7, 19320, Note_on_c, 9, 38, 100
7, 19320, Note_on_c, 9, 42, 70
7, 19320, Note_on_c, 9, 37, 50
7, 19320, Note_on_c, 9, 54, 60
7, 19420, Note_off_c, 9, 54, 64
7, 19420, Note_off_c, 9, 37, 64
7, 19420, Note_off_c, 9, 42, 64
7, 19420, Note_off_c, 9, 38, 64
7, 19440, Note_on_c, 9, 38, 115
7, 19440, Note_on_c, 9, 42, 80
7, 19440, Note_on_c, 9, 37, 80
7, 19440, Note_on_c, 9, 56, 115
7, 19440, Note_on_c, 9, 54, 115
7, 19540, Note_off_c, 9, 54, 64
7, 19540, Note_off_c, 9, 56, 64
7, 19540, Note_off_c, 9, 37, 64
7, 19540, Note_off_c, 9, 42, 64
7, 19540, Note_off_c, 9, 38, 64
7, 19560, Note_on_c, 9, 38, 90
7, 19560, Note_on_c, 9, 42, 70
7, 19560, Note_on_c, 9, 37, 50
7, 19560, Note_on_c, 9, 54, 60
7, 19660, Note_off_c, 9, 54, 64
7, 19660, Note_off_c, 9, 37, 64
7, 19660, Note_off_c, 9, 42, 64
7, 19660, Note_off_c, 9, 38, 64
7, 19680, Note_on_c, 9, 35, 127
7, 19680, Note_on_c, 9, 38, 127
7, 19680, Note_on_c, 9, 42, 100
7, 19680, Note_on_c, 9, 37, 80
7, 19680, Note_on_c, 9, 54, 115
7, 19680, Note_on_c, 9, 39, 115
7, 19780, Note_off_c, 9, 39, 64
7, 19780, Note_off_c, 9, 54, 64
7, 19780, Note_off_c, 9, 37, 64
7, 19780, Note_off_c, 9, 42, 64
7, 19780, Note_off_c, 9, 38, 64
7, 19780, Note_off_c, 9, 35, 64
7, 19800, Note_on_c, 9, 38, 100
7, 19800, Note_on_c, 9, 42, 70
7, 19800, Note_on_c, 9, 37, 50
7, 19800, Note_on_c, 9, 54, 60
7, 19900, Note_off_c, 9, 54, 64
7, 19900, Note_off_c, 9, 37, 64
7, 19900, Note_off_c, 9, 42, 64
7, 19900, Note_off_c, 9, 38, 64
7, 19920, Note_on_c, 9, 38, 115
7, 19920, Note_on_c, 9, 42, 80
7, 19920, Note_on_c, 9, 37, 80
7, 19920, Note_on_c, 9, 56, 100
7, 19920, Note_on_c, 9, 54, 115
7, 20020, Note_off_c, 9, 54, 64
7, 20020, Note_off_c, 9, 56, 64
7, 20020, Note_off_c, 9, 37, 64
7, 20020, Note_off_c, 9, 42, 64
7, 20020, Note_off_c, 9, 38, 64
7, 20040, Note_on_c, 9, 35, 115
7, 20040, Note_on_c, 9, 38, 90
7, 20040, Note_on_c, 9, 42, 70
7, 20040, Note_on_c, 9, 37, 50
7, 20040, Note_on_c, 9, 56, 115
7, 20040, Note_on_c, 9, 54, 60
7, 20140, Note_off_c, 9, 54, 64
7, 20140, Note_off_c, 9, 56, 64
7, 20140, Note_off_c, 9, 37, 64
7, 20140, Note_off_c, 9, 42, 64
7, 20140, Note_off_c, 9, 38, 64
7, 20140, Note_off_c, 9, 35, 64
7, 20160, Note_on_c, 9, 35, 127
7, 20160, Note_on_c, 9, 38, 127
7, 20160, Note_on_c, 9, 42, 100
7, 20160, Note_on_c, 9, 37, 80
7, 20160, Note_on_c, 9, 56, 115
7, 20160, Note_on_c, 9, 54, 115
7, 20260, Note_off_c, 9, 54, 64
7, 20260, Note_off_c, 9, 56, 64
7, 20260, Note_off_c, 9, 37, 64
7, 20260, Note_off_c, 9, 42, 64
7, 20260, Note_off_c, 9, 38, 64
7, 20260, Note_off_c, 9, 35, 64
7, 20280, Note_on_c, 9, 38, 100
7, 20280, Note_on_c, 9, 42, 70
7, 20280, Note_on_c, 9, 37, 50
7, 20280, Note_on_c, 9, 54, 60
7, 20380, Note_off_c, 9, 54, 64
7, 20380, Note_off_c, 9, 37, 64
7, 20380, Note_off_c, 9, 42, 64
7, 20380, Note_off_c, 9, 38, 64
7, 20400, Note_on_c, 9, 38, 115
7, 20400, Note_on_c, 9, 42, 80
7, 20400, Note_on_c, 9, 37, 80
7, 20400, Note_on_c, 9, 56, 115
7, 20400, Note_on_c, 9, 54, 115
7, 20500, Note_off_c, 9, 54, 64
7, 20500, Note_off_c, 9, 56, 64
7, 20500, Note_off_c, 9, 37, 64
7, 20500, Note_off_c, 9, 42, 64
7, 20500, Note_off_c, 9, 38, 64
7, 20520, Note_on_c, 9, 38, 90
7, 20520, Note_on_c, 9, 42, 70
7, 20520, Note_on_c, 9, 37, 50
7, 20520, Note_on_c, 9, 54, 60
7, 20620, Note_off_c, 9, 54, 64
7, 20620, Note_off_c, 9, 37, 64
7, 20620, Note_off_c, 9, 42, 64
7, 20620, Note_off_c, 9, 38, 64
7, 20640, Note_on_c, 9, 35, 127
7, 20640, Note_on_c, 9, 38, 127
7, 20640, Note_on_c, 9, 42, 100
7, 20640, Note_on_c, 9, 37, 80
7, 20640, Note_on_c, 9, 54, 115
7, 20640, Note_on_c, 9, 39, 115
7, 20740, Note_off_c, 9, 39, 64
7, 20740, Note_off_c, 9, 54, 64
7, 20740, Note_off_c, 9, 37, 64
7, 20740, Note_off_c, 9, 42, 64
7, 20740, Note_off_c, 9, 38, 64
7, 20740, Note_off_c, 9, 35, 64
7, 20760, Note_on_c, 9, 35, 115
7, 20760, Note_on_c, 9, 38, 100
7, 20760, Note_on_c, 9, 42, 70
7, 20760, Note_on_c, 9, 37, 50
7, 20760, Note_on_c, 9, 54, 60
7, 20860, Note_off_c, 9, 54, 64
7, 20860, Note_off_c, 9, 37, 64
7, 20860, Note_off_c, 9, 42, 64
7, 20860, Note_off_c, 9, 38, 64
7, 20860, Note_off_c, 9, 35, 64
7, 20880, Note_on_c, 9, 35, 127
7, 20880, Note_on_c, 9, 38, 115
7, 20880, Note_on_c, 9, 42, 90
7, 20880, Note_on_c, 9, 37, 80
7, 20880, Note_on_c, 9, 54, 115
7, 20980, Note_off_c, 9, 54, 64
7, 20980, Note_off_c, 9, 37, 64
7, 20980, Note_off_c, 9, 42, 64
7, 20980, Note_off_c, 9, 38, 64
7, 20980, Note_off_c, 9, 35, 64
7, 21000, Note_on_c, 9, 35, 115
7, 21000, Note_on_c, 9, 38, 90
7, 21000, Note_on_c, 9, 42, 90
7, 21000, Note_on_c, 9, 37, 50
7, 21000, Note_on_c, 9, 54, 60
7, 21100, Note_off_c, 9, 54, 64
7, 21100, Note_off_c, 9, 37, 64
7, 21100, Note_off_c, 9, 42, 64
7, 21100, Note_off_c, 9, 38, 64
7, 21100, Note_off_c, 9, 35, 64
7, 21120, Note_on_c, 9, 35, 127
7, 21120, Note_on_c, 9, 42, 100
7, 21120, Note_on_c, 9, 37, 80
7, 21120, Note_on_c, 9, 56, 100
7, 21120, Note_on_c, 9, 49, 100
7, 21120, Note_on_c, 9, 54, 115
7, 21220, Note_off_c, 9, 54, 64
7, 21220, Note_off_c, 9, 49, 64
7, 21220, Note_off_c, 9, 56, 64
7, 21220, Note_off_c, 9, 37, 64
7, 21220, Note_off_c, 9, 42, 64
7, 21220, Note_off_c, 9, 35, 64
7, 21240, Note_on_c, 9, 42, 70
7, 21240, Note_on_c, 9, 37, 50
7, 21240, Note_on_c, 9, 54, 60
7, 21340, Note_off_c, 9, 54, 64
7, 21340, Note_off_c, 9, 37, 64
7, 21340, Note_off_c, 9, 42, 64
7, 21360, Note_on_c, 9, 42, 80
7, 21360, Note_on_c, 9, 37, 80
7, 21360, Note_on_c, 9, 56, 115
7, 21360, Note_on_c, 9, 54, 115
7, 21460, Note_off_c, 9, 54, 64
7, 21460, Note_off_c, 9, 56, 64
7, 21460, Note_off_c, 9, 37, 64
7, 21460, Note_off_c, 9, 42, 64
7, 21480, Note_on_c, 9, 42, 70
7, 21480, Note_on_c, 9, 37, 50
7, 21480, Note_on_c, 9, 54, 60
7, 21580, Note_off_c, 9, 54, 64
7, 21580, Note_off_c, 9, 37, 64
7, 21580, Note_off_c, 9, 42, 64
7, 21600, Note_on_c, 9, 35, 127
7, 21600, Note_on_c, 9, 38, 127
7, 21600, Note_on_c, 9, 42, 100
7, 21600, Note_on_c, 9, 37, 80
7, 21600, Note_on_c, 9, 54, 115
7, 21600, Note_on_c, 9, 39, 115
7, 21700, Note_off_c, 9, 39, 64
7, 21700, Note_off_c, 9, 54, 64
7, 21700, Note_off_c, 9, 37, 64
7, 21700, Note_off_c, 9, 42, 64
7, 21700, Note_off_c, 9, 38, 64
7, 21700, Note_off_c, 9, 35, 64
7, 21720, Note_on_c, 9, 42, 70
7, 21720, Note_on_c, 9, 37, 50
7, 21720, Note_on_c, 9, 54, 60
7, 21820, Note_off_c, 9, 54, 64
7, 21820, Note_off_c, 9, 37, 64
7, 21820, Note_off_c, 9, 42, 64
7, 21840, Note_on_c, 9, 42, 80
7, 21840, Note_on_c, 9, 37, 80
7, 21840, Note_on_c, 9, 56, 100
7, 21840, Note_on_c, 9, 54, 115
7, 21940, Note_off_c, 9, 54, 64
7, 21940, Note_off_c, 9, 56, 64
7, 21940, Note_off_c, 9, 37, 64
7, 21940, Note_off_c, 9, 42, 64
7, 21960, Note_on_c, 9, 35, 115
7, 21960, Note_on_c, 9, 42, 70
7, 21960, Note_on_c, 9, 37, 50
7, 21960, Note_on_c, 9, 56, 115
7, 21960, Note_on_c, 9, 54, 60
7, 22060, Note_off_c, 9, 54, 64
7, 22060, Note_off_c, 9, 56, 64
7, 22060, Note_off_c, 9, 37, 64
7, 22060, Note_off_c, 9, 42, 64
7, 22060, Note_off_c, 9, 35, 64
7, 22080, Note_on_c, 9, 35, 127
7, 22080, Note_on_c, 9, 42, 100
7, 22080, Note_on_c, 9, 37, 80
7, 22080, Note_on_c, 9, 56, 115
7, 22080, Note_on_c, 9, 54, 115
7, 22180, Note_off_c, 9, 54, 64
7, 22180, Note_off_c, 9, 56, 64
7, 22180, Note_off_c, 9, 37, 64
7, 22180, Note_off_c, 9, 42, 64
7, 22180, Note_off_c, 9, 35, 64
7, 22200, Note_on_c, 9, 42, 70
7, 22200, Note_on_c, 9, 37, 50
7, 22200, Note_on_c, 9, 54, 60
7, 22300, Note_off_c, 9, 54, 64
7, 22300, Note_off_c, 9, 37, 64
7, 22300, Note_off_c, 9, 42, 64
7, 22320, Note_on_c, 9, 42, 80
7, 22320, Note_on_c, 9, 37, 80
7, 22320, Note_on_c, 9, 56, 115
7, 22320, Note_on_c, 9, 54, 115
7, 22420, Note_off_c, 9, 54, 64
7, 22420, Note_off_c, 9, 56, 64
7, 22420, Note_off_c, 9, 37, 64
7, 22420, Note_off_c, 9, 42, 64
7, 22440, Note_on_c, 9, 42, 70
7, 22440, Note_on_c, 9, 37, 50
7, 22440, Note_on_c, 9, 54, 60
7, 22540, Note_off_c, 9, 54, 64
7, 22540, Note_off_c, 9, 37, 64
7, 22540, Note_off_c, 9, 42, 64
7, 22560, Note_on_c, 9, 35, 127
7, 22560, Note_on_c, 9, 38, 127
7, 22560, Note_on_c, 9, 42, 100
7, 22560, Note_on_c, 9, 37, 80
7, 22560, Note_on_c, 9, 54, 115
7, 22560, Note_on_c, 9, 39, 115
7, 22660, Note_off_c, 9, 39, 64
7, 22660, Note_off_c, 9, 54, 64
7, 22660, Note_off_c, 9, 37, 64
7, 22660, Note_off_c, 9, 42, 64
7, 22660, Note_off_c, 9, 38, 64
7, 22660, Note_off_c, 9, 35, 64
7, 22680, Note_on_c, 9, 35, 115
7, 22680, Note_on_c, 9, 42, 70
7, 22680, Note_on_c, 9, 37, 50
7, 22680, Note_on_c, 9, 54, 60
7, 22780, Note_off_c, 9, 54, 64
7, 22780, Note_off_c, 9, 37, 64
7, 22780, Note_off_c, 9, 42, 64
7, 22780, Note_off_c, 9, 35, 64
7, 22800, Note_on_c, 9, 35, 127
7, 22800, Note_on_c, 9, 42, 90
7, 22800, Note_on_c, 9, 37, 80
7, 22800, Note_on_c, 9, 54, 115
7, 22900, Note_off_c, 9, 54, 64
7, 22900, Note_off_c, 9, 37, 64
7, 22900, Note_off_c, 9, 42, 64
7, 22900, Note_off_c, 9, 35, 64
7, 22920, Note_on_c, 9, 35, 115
7, 22920, Note_on_c, 9, 42, 90
7, 22920, Note_on_c, 9, 37, 50
7, 22920, Note_on_c, 9, 54, 60
7, 23020, Note_off_c, 9, 54, 64
7, 23020, Note_off_c, 9, 37, 64
7, 23020, Note_off_c, 9, 42, 64
7, 23020, Note_off_c, 9, 35, 64
7, 23040, Note_on_c, 9, 35, 127
7, 23040, Note_on_c, 9, 42, 100
7, 23040, Note_on_c, 9, 37, 80
7, 23040, Note_on_c, 9, 56, 100
7, 23040, Note_on_c, 9, 54, 115
7, 23140, Note_off_c, 9, 54, 64
7, 23140, Note_off_c, 9, 56, 64
7, 23140, Note_off_c, 9, 37, 64
7, 23140, Note_off_c, 9, 42, 64
7, 23140, Note_off_c, 9, 35, 64
7, 23160, Note_on_c, 9, 42, 70
7, 23160, Note_on_c, 9, 37, 50
7, 23160, Note_on_c, 9, 54, 60
7, 23260, Note_off_c, 9, 54, 64
7, 23260, Note_off_c, 9, 37, 64
7, 23260, Note_off_c, 9, 42, 64
7, 23280, Note_on_c, 9, 42, 80
7, 23280, Note_on_c, 9, 37, 80
7, 23280, Note_on_c, 9, 56, 115
7, 23280, Note_on_c, 9, 54, 115
7, 23380, Note_off_c, 9, 54, 64
7, 23380, Note_off_c, 9, 56, 64
7, 23380, Note_off_c, 9, 37, 64
7, 23380, Note_off_c, 9, 42, 64
7, 23400, Note_on_c, 9, 42, 70
7, 23400, Note_on_c, 9, 37, 50
7, 23400, Note_on_c, 9, 54, 60
7, 23500, Note_off_c, 9, 54, 64
7, 23500, Note_off_c, 9, 37, 64
7, 23500, Note_off_c, 9, 42, 64
7, 23520, Note_on_c, 9, 35, 127
7, 23520, Note_on_c, 9, 38, 127
7, 23520, Note_on_c, 9, 42, 100
7, 23520, Note_on_c, 9, 37, 80
7, 23520, Note_on_c, 9, 54, 115
7, 23520, Note_on_c, 9, 39, 115
7, 23620, Note_off_c, 9, 39, 64
7, 23620, Note_off_c, 9, 54, 64
7, 23620, Note_off_c, 9, 37, 64
7, 23620, Note_off_c, 9, 42, 64
7, 23620, Note_off_c, 9, 38, 64
7, 23620, Note_off_c, 9, 35, 64
7, 23640, Note_on_c, 9, 42, 70
7, 23640, Note_on_c, 9, 37, 50
7, 23640, Note_on_c, 9, 54, 60
7, 23740, Note_off_c, 9, 54, 64
7, 23740, Note_off_c, 9, 37, 64
7, 23740, Note_off_c, 9, 42, 64
7, 23760, Note_on_c, 9, 42, 80
7, 23760, Note_on_c, 9, 37, 80
7, 23760, Note_on_c, 9, 56, 100
7, 23760, Note_on_c, 9, 54, 115
7, 23860, Note_off_c, 9, 54, 64
7, 23860, Note_off_c, 9, 56, 64
7, 23860, Note_off_c, 9, 37, 64
7, 23860, Note_off_c, 9, 42, 64
7, 23880, Note_on_c, 9, 35, 115
7, 23880, Note_on_c, 9, 42, 70
7, 23880, Note_on_c, 9, 37, 50
7, 23880, Note_on_c, 9, 56, 115
7, 23880, Note_on_c, 9, 54, 60
7, 23980, Note_off_c, 9, 54, 64
7, 23980, Note_off_c, 9, 56, 64
7, 23980, Note_off_c, 9, 37, 64
7, 23980, Note_off_c, 9, 42, 64
7, 23980, Note_off_c, 9, 35, 64
7, 24000, Note_on_c, 9, 35, 127
7, 24000, Note_on_c, 9, 42, 100
7, 24000, Note_on_c, 9, 37, 80
7, 24000, Note_on_c, 9, 56, 115
7, 24000, Note_on_c, 9, 54, 115
7, 24100, Note_off_c, 9, 54, 64
7, 24100, Note_off_c, 9, 56, 64
7, 24100, Note_off_c, 9, 37, 64
7, 24100, Note_off_c, 9, 42, 64
7, 24100, Note_off_c, 9, 35, 64
7, 24120, Note_on_c, 9, 42, 70
7, 24120, Note_on_c, 9, 37, 50
7, 24120, Note_on_c, 9, 54, 60
7, 24220, Note_off_c, 9, 54, 64
7, 24220, Note_off_c, 9, 37, 64
7, 24220, Note_off_c, 9, 42, 64
7, 24240, Note_on_c, 9, 42, 80
7, 24240, Note_on_c, 9, 37, 80
7, 24240, Note_on_c, 9, 56, 115
7, 24240, Note_on_c, 9, 54, 115
7, 24340, Note_off_c, 9, 54, 64
7, 24340, Note_off_c, 9, 56, 64
7, 24340, Note_off_c, 9, 37, 64
7, 24340, Note_off_c, 9, 42, 64
7, 24360, Note_on_c, 9, 42, 70
7, 24360, Note_on_c, 9, 37, 50
7, 24360, Note_on_c, 9, 54, 60
7, 24460, Note_off_c, 9, 54, 64
7, 24460, Note_off_c, 9, 37, 64
7, 24460, Note_off_c, 9, 42, 64
7, 24480, Note_on_c, 9, 35, 127
7, 24480, Note_on_c, 9, 38, 127
7, 24480, Note_on_c, 9, 42, 100
7, 24480, Note_on_c, 9, 37, 80
7, 24480, Note_on_c, 9, 54, 115
7, 24480, Note_on_c, 9, 39, 115
7, 24580, Note_off_c, 9, 39, 64
7, 24580, Note_off_c, 9, 54, 64
7, 24580, Note_off_c, 9, 37, 64
7, 24580, Note_off_c, 9, 42, 64
7, 24580, Note_off_c, 9, 38, 64
7, 24580, Note_off_c, 9, 35, 64
7, 24600, Note_on_c, 9, 35, 115
7, 24600, Note_on_c, 9, 42, 70
7, 24600, Note_on_c, 9, 37, 50
7, 24600, Note_on_c, 9, 54, 60
7, 24700, Note_off_c, 9, 54, 64
7, 24700, Note_off_c, 9, 37, 64
7, 24700, Note_off_c, 9, 42, 64
7, 24700, Note_off_c, 9, 35, 64
7, 24720, Note_on_c, 9, 35, 127
7, 24720, Note_on_c, 9, 42, 90
7, 24720, Note_on_c, 9, 37, 80
7, 24720, Note_on_c, 9, 54, 115
7, 24820, Note_off_c, 9, 54, 64
7, 24820, Note_off_c, 9, 37, 64
7, 24820, Note_off_c, 9, 42, 64
7, 24820, Note_off_c, 9, 35, 64
7, 24840, Note_on_c, 9, 35, 115
7, 24840, Note_on_c, 9, 42, 90
7, 24840, Note_on_c, 9, 37, 50
7, 24840, Note_on_c, 9, 54, 60
7, 24940, Note_off_c, 9, 54, 64
7, 24940, Note_off_c, 9, 37, 64
7, 24940, Note_off_c, 9, 42, 64
7, 24940, Note_off_c, 9, 35, 64
7, 24960, Note_on_c, 9, 35, 127
7, 24960, Note_on_c, 9, 42, 100
7, 24960, Note_on_c, 9, 37, 80
7, 24960, Note_on_c, 9, 56, 100
7, 24960, Note_on_c, 9, 54, 115
7, 25060, Note_off_c, 9, 54, 64
7, 25060, Note_off_c, 9, 56, 64
7, 25060, Note_off_c, 9, 37, 64
7, 25060, Note_off_c, 9, 42, 64
7, 25060, Note_off_c, 9, 35, 64
7, 25080, Note_on_c, 9, 42, 70
7, 25080, Note_on_c, 9, 37, 50
7, 25080, Note_on_c, 9, 54, 60
7, 25180, Note_off_c, 9, 54, 64
7, 25180, Note_off_c, 9, 37, 64
7, 25180, Note_off_c, 9, 42, 64
7, 25200, Note_on_c, 9, 42, 80
7, 25200, Note_on_c, 9, 37, 80
7, 25200, Note_on_c, 9, 56, 115
7, 25200, Note_on_c, 9, 54, 115
7, 25300, Note_off_c, 9, 54, 64
7, 25300, Note_off_c, 9, 56, 64
7, 25300, Note_off_c, 9, 37, 64
7, 25300, Note_off_c, 9, 42, 64
7, 25320, Note_on_c, 9, 42, 70
7, 25320, Note_on_c, 9, 37, 50
7, 25320, Note_on_c, 9, 54, 60
7, 25420, Note_off_c, 9, 54, 64
7, 25420, Note_off_c, 9, 37, 64
7, 25420, Note_off_c, 9, 42, 64
7, 25440, Note_on_c, 9, 35, 127
7, 25440, Note_on_c, 9, 38, 127
7, 25440, Note_on_c, 9, 42, 100
7, 25440, Note_on_c, 9, 37, 80
7, 25440, Note_on_c, 9, 54, 115
7, 25440, Note_on_c, 9, 39, 115
7, 25540, Note_off_c, 9, 39, 64
7, 25540, Note_off_c, 9, 54, 64
7, 25540, Note_off_c, 9, 37, 64
7, 25540, Note_off_c, 9, 42, 64
7, 25540, Note_off_c, 9, 38, 64
7, 25540, Note_off_c, 9, 35, 64
7, 25560, Note_on_c, 9, 42, 70
7, 25560, Note_on_c, 9, 37, 50
7, 25560, Note_on_c, 9, 54, 60
7, 25660, Note_off_c, 9, 54, 64
7, 25660, Note_off_c, 9, 37, 64
7, 25660, Note_off_c, 9, 42, 64
7, 25680, Note_on_c, 9, 42, 80
7, 25680, Note_on_c, 9, 37, 80
7, 25680, Note_on_c, 9, 56, 100
7, 25680, Note_on_c, 9, 54, 115
7, 25780, Note_off_c, 9, 54, 64
7, 25780, Note_off_c, 9, 56, 64
7, 25780, Note_off_c, 9, 37, 64
7, 25780, Note_off_c, 9, 42, 64
7, 25800, Note_on_c, 9, 35, 115
7, 25800, Note_on_c, 9, 42, 70
7, 25800, Note_on_c, 9, 37, 50
7, 25800, Note_on_c, 9, 56, 115
7, 25800, Note_on_c, 9, 54, 60
7, 25900, Note_off_c, 9, 54, 64
7, 25900, Note_off_c, 9, 56, 64
7, 25900, Note_off_c, 9, 37, 64
7, 25900, Note_off_c, 9, 42, 64
7, 25900, Note_off_c, 9, 35, 64
7, 25920, Note_on_c, 9, 35, 127
7, 25920, Note_on_c, 9, 42, 100
7, 25920, Note_on_c, 9, 37, 80
7, 25920, Note_on_c, 9, 56, 115
7, 25920, Note_on_c, 9, 54, 115
7, 26020, Note_off_c, 9, 54, 64
7, 26020, Note_off_c, 9, 56, 64
7, 26020, Note_off_c, 9, 37, 64
7, 26020, Note_off_c, 9, 42, 64
7, 26020, Note_off_c, 9, 35, 64
7, 26040, Note_on_c, 9, 42, 70
7, 26040, Note_on_c, 9, 37, 50
7, 26040, Note_on_c, 9, 54, 60
7, 26140, Note_off_c, 9, 54, 64
7, 26140, Note_off_c, 9, 37, 64
7, 26140, Note_off_c, 9, 42, 64
7, 26160, Note_on_c, 9, 42, 80
7, 26160, Note_on_c, 9, 37, 80
7, 26160, Note_on_c, 9, 56, 115
7, 26160, Note_on_c, 9, 54, 115
7, 26260, Note_off_c, 9, 54, 64
7, 26260, Note_off_c, 9, 56, 64
7, 26260, Note_off_c, 9, 37, 64
7, 26260, Note_off_c, 9, 42, 64
7, 26280, Note_on_c, 9, 42, 70
7, 26280, Note_on_c, 9, 37, 50
7, 26280, Note_on_c, 9, 54, 60
7, 26380, Note_off_c, 9, 54, 64
7, 26380, Note_off_c, 9, 37, 64
7, 26380, Note_off_c, 9, 42, 64
7, 26400, Note_on_c, 9, 35, 127
7, 26400, Note_on_c, 9, 38, 127
7, 26400, Note_on_c, 9, 42, 100
7, 26400, Note_on_c, 9, 37, 80
7, 26400, Note_on_c, 9, 54, 115
7, 26400, Note_on_c, 9, 39, 115
7, 26500, Note_off_c, 9, 39, 64
7, 26500, Note_off_c, 9, 54, 64
7, 26500, Note_off_c, 9, 37, 64
7, 26500, Note_off_c, 9, 42, 64
7, 26500, Note_off_c, 9, 38, 64
7, 26500, Note_off_c, 9, 35, 64
7, 26520, Note_on_c, 9, 35, 115
7, 26520, Note_on_c, 9, 42, 70
7, 26520, Note_on_c, 9, 37, 50
7, 26520, Note_on_c, 9, 54, 60
7, 26620, Note_off_c, 9, 54, 64
7, 26620, Note_off_c, 9, 37, 64
7, 26620, Note_off_c, 9, 42, 64
7, 26620, Note_off_c, 9, 35, 64
7, 26640, Note_on_c, 9, 35, 127
7, 26640, Note_on_c, 9, 42, 90
7, 26640, Note_on_c, 9, 37, 80
7, 26640, Note_on_c, 9, 54, 115
7, 26740, Note_off_c, 9, 54, 64
7, 26740, Note_off_c, 9, 37, 64
7, 26740, Note_off_c, 9, 42, 64
7, 26740, Note_off_c, 9, 35, 64
7, 26760, Note_on_c, 9, 35, 115
7, 26760, Note_on_c, 9, 42, 90
7, 26760, Note_on_c, 9, 37, 50
7, 26760, Note_on_c, 9, 54, 60
7, 26860, Note_off_c, 9, 54, 64
7, 26860, Note_off_c, 9, 37, 64
7, 26860, Note_off_c, 9, 42, 64
7, 26860, Note_off_c, 9, 35, 64
7, 26880, Note_on_c, 9, 35, 127
7, 26880, Note_on_c, 9, 38, 127
7, 26880, Note_on_c, 9, 42, 100
7, 26880, Note_on_c, 9, 37, 80
7, 26880, Note_on_c, 9, 56, 100
7, 26880, Note_on_c, 9, 54, 115
7, 26980, Note_off_c, 9, 54, 64
7, 26980, Note_off_c, 9, 56, 64
7, 26980, Note_off_c, 9, 37, 64
7, 26980, Note_off_c, 9, 42, 64
7, 26980, Note_off_c, 9, 38, 64
7, 26980, Note_off_c, 9, 35, 64
7, 27000, Note_on_c, 9, 38, 100
7, 27000, Note_on_c, 9, 42, 70
7, 27000, Note_on_c, 9, 37, 50
7, 27000, Note_on_c, 9, 54, 60
7, 27100, Note_off_c, 9, 54, 64
7, 27100, Note_off_c, 9, 37, 64
7, 27100, Note_off_c, 9, 42, 64
7, 27100, Note_off_c, 9, 38, 64
7, 27120, Note_on_c, 9, 38, 115
7, 27120, Note_on_c, 9, 42, 80
7, 27120, Note_on_c, 9, 37, 80
7, 27120, Note_on_c, 9, 56, 115
7, 27120, Note_on_c, 9, 54, 115
7, 27220, Note_off_c, 9, 54, 64
7, 27220, Note_off_c, 9, 56, 64
7, 27220, Note_off_c, 9, 37, 64
7, 27220, Note_off_c, 9, 42, 64
7, 27220, Note_off_c, 9, 38, 64
7, 27240, Note_on_c, 9, 38, 90
7, 27240, Note_on_c, 9, 42, 70
7, 27240, Note_on_c, 9, 37, 50
7, 27240, Note_on_c, 9, 54, 60
7, 27340, Note_off_c, 9, 54, 64
7, 27340, Note_off_c, 9, 37, 64
7, 27340, Note_off_c, 9, 42, 64
7, 27340, Note_off_c, 9, 38, 64
7, 27360, Note_on_c, 9, 35, 127
7, 27360, Note_on_c, 9, 38, 127
7, 27360, Note_on_c, 9, 42, 100
7, 27360, Note_on_c, 9, 37, 80
7, 27360, Note_on_c, 9, 54, 115
7, 27360, Note_on_c, 9, 39, 115
7, 27460, Note_off_c, 9, 39, 64
7, 27460, Note_off_c, 9, 54, 64
7, 27460, Note_off_c, 9, 37, 64
7, 27460, Note_off_c, 9, 42, 64
7, 27460, Note_off_c, 9, 38, 64
7, 27460, Note_off_c, 9, 35, 64
7, 27480, Note_on_c, 9, 38, 100
7, 27480, Note_on_c, 9, 42, 70
7, 27480, Note_on_c, 9, 37, 50
7, 27480, Note_on_c, 9, 54, 60
7, 27580, Note_off_c, 9, 54, 64
7, 27580, Note_off_c, 9, 37, 64
7, 27580, Note_off_c, 9, 42, 64
7, 27580, Note_off_c, 9, 38, 64
7, 27600, Note_on_c, 9, 38, 115
7, 27600, Note_on_c, 9, 42, 80
7, 27600, Note_on_c, 9, 37, 80
7, 27600, Note_on_c, 9, 56, 100
7, 27600, Note_on_c, 9, 54, 115
7, 27700, Note_off_c, 9, 54, 64
7, 27700, Note_off_c, 9, 56, 64
7, 27700, Note_off_c, 9, 37, 64
7, 27700, Note_off_c, 9, 42, 64
7, 27700, Note_off_c, 9, 38, 64
7, 27720, Note_on_c, 9, 35, 115
7, 27720, Note_on_c, 9, 38, 90
7, 27720, Note_on_c, 9, 42, 70
7, 27720, Note_on_c, 9, 37, 50
7, 27720, Note_on_c, 9, 56, 115
7, 27720, Note_on_c, 9, 54, 60
7, 27820, Note_off_c, 9, 54, 64
7, 27820, Note_off_c, 9, 56, 64
7, 27820, Note_off_c, 9, 37, 64
7, 27820, Note_off_c, 9, 42, 64
7, 27820, Note_off_c, 9, 38, 64
7, 27820, Note_off_c, 9, 35, 64
7, 27840, Note_on_c, 9, 35, 127
7, 27840, Note_on_c, 9, 38, 127
7, 27840, Note_on_c, 9, 42, 100
7, 27840, Note_on_c, 9, 37, 80
7, 27840, Note_on_c, 9, 56, 115
7, 27840, Note_on_c, 9, 54, 115
7, 27940, Note_off_c, 9, 54, 64
7, 27940, Note_off_c, 9, 56, 64
7, 27940, Note_off_c, 9, 37, 64
7, 27940, Note_off_c, 9, 42, 64
7, 27940, Note_off_c, 9, 38, 64
7, 27940, Note_off_c, 9, 35, 64
7, 27960, Note_on_c, 9, 38, 100
7, 27960, Note_on_c, 9, 42, 70
7, 27960, Note_on_c, 9, 37, 50
7, 27960, Note_on_c, 9, 54, 60
7, 28060, Note_off_c, 9, 54, 64
7, 28060, Note_off_c, 9, 37, 64
7, 28060, Note_off_c, 9, 42, 64
7, 28060, Note_off_c, 9, 38, 64
7, 28080, Note_on_c, 9, 38, 115
7, 28080, Note_on_c, 9, 42, 80
7, 28080, Note_on_c, 9, 37, 80
7, 28080, Note_on_c, 9, 56, 115
7, 28080, Note_on_c, 9, 54, 115
7, 28180, Note_off_c, 9, 54, 64
7, 28180, Note_off_c, 9, 56, 64
7, 28180, Note_off_c, 9, 37, 64
7, 28180, Note_off_c, 9, 42, 64
7, 28180, Note_off_c, 9, 38, 64
7, 28200, Note_on_c, 9, 38, 90
7, 28200, Note_on_c, 9, 42, 70
7, 28200, Note_on_c, 9, 37, 50
7, 28200, Note_on_c, 9, 54, 60
7, 28300, Note_off_c, 9, 54, 64
7, 28300, Note_off_c, 9, 37, 64
7, 28300, Note_off_c, 9, 42, 64
7, 28300, Note_off_c, 9, 38, 64
7, 28320, Note_on_c, 9, 35, 127
7, 28320, Note_on_c, 9, 38, 127
7, 28320, Note_on_c, 9, 42, 100
7, 28320, Note_on_c, 9, 37, 80
7, 28320, Note_on_c, 9, 54, 115
7, 28320, Note_on_c, 9, 39, 115
7, 28420, Note_off_c, 9, 39, 64
7, 28420, Note_off_c, 9, 54, 64
7, 28420, Note_off_c, 9, 37, 64
7, 28420, Note_off_c, 9, 42, 64
7, 28420, Note_off_c, 9, 38, 64
7, 28420, Note_off_c, 9, 35, 64
7, 28440, Note_on_c, 9, 35, 115
7, 28440, Note_on_c, 9, 38, 100
7, 28440, Note_on_c, 9, 42, 70
7, 28440, Note_on_c, 9, 37, 50
7, 28440, Note_on_c, 9, 54, 60
7, 28540, Note_off_c, 9, 54, 64
7, 28540, Note_off_c, 9, 37, 64
7, 28540, Note_off_c, 9, 42, 64
7, 28540, Note_off_c, 9, 38, 64
7, 28540, Note_off_c, 9, 35, 64
7, 28560, Note_on_c, 9, 35, 127
7, 28560, Note_on_c, 9, 38, 115
7, 28560, Note_on_c, 9, 42, 90
7, 28560, Note_on_c, 9, 37, 80
7, 28560, Note_on_c, 9, 54, 115
7, 28660, Note_off_c, 9, 54, 64
7, 28660, Note_off_c, 9, 37, 64
7, 28660, Note_off_c, 9, 42, 64
7, 28660, Note_off_c, 9, 38, 64
7, 28660, Note_off_c, 9, 35, 64
7, 28680, Note_on_c, 9, 35, 115
7, 28680, Note_on_c, 9, 38, 90
7, 28680, Note_on_c, 9, 42, 90
7, 28680, Note_on_c, 9, 37, 50
7, 28680, Note_on_c, 9, 54, 60
7, 28780, Note_off_c, 9, 54, 64
7, 28780, Note_off_c, 9, 37, 64
7, 28780, Note_off_c, 9, 42, 64
7, 28780, Note_off_c, 9, 38, 64
7, 28780, Note_off_c, 9, 35, 64
7, 28800, Note_on_c, 9, 35, 127
7, 28800, Note_on_c, 9, 42, 100
7, 28800, Note_on_c, 9, 37, 80
7, 28800, Note_on_c, 9, 56, 100
7, 28800, Note_on_c, 9, 49, 100
7, 28800, Note_on_c, 9, 54, 115
7, 28900, Note_off_c, 9, 54, 64
7, 28900, Note_off_c, 9, 49, 64
7, 28900, Note_off_c, 9, 56, 64
7, 28900, Note_off_c, 9, 37, 64
7, 28900, Note_off_c, 9, 42, 64
7, 28900, Note_off_c, 9, 35, 64
7, 28920, Note_on_c, 9, 42, 70
7, 28920, Note_on_c, 9, 37, 50
7, 28920, Note_on_c, 9, 54, 60
7, 29020, Note_off_c, 9, 54, 64
7, 29020, Note_off_c, 9, 37, 64
7, 29020, Note_off_c, 9, 42, 64
7, 29040, Note_on_c, 9, 42, 80
7, 29040, Note_on_c, 9, 37, 80
7, 29040, Note_on_c, 9, 56, 115
7, 29040, Note_on_c, 9, 54, 115
7, 29140, Note_off_c, 9, 54, 64
7, 29140, Note_off_c, 9, 56, 64
7, 29140, Note_off_c, 9, 37, 64
7, 29140, Note_off_c, 9, 42, 64
7, 29160, Note_on_c, 9, 42, 70
7, 29160, Note_on_c, 9, 37, 50
7, 29160, Note_on_c, 9, 54, 60
7, 29260, Note_off_c, 9, 54, 64
7, 29260, Note_off_c, 9, 37, 64
7, 29260, Note_off_c, 9, 42, 64
7, 29280, Note_on_c, 9, 35, 127
7, 29280, Note_on_c, 9, 38, 127
7, 29280, Note_on_c, 9, 42, 100
7, 29280, Note_on_c, 9, 37, 80
7, 29280, Note_on_c, 9, 54, 115
7, 29280, Note_on_c, 9, 39, 115
7, 29380, Note_off_c, 9, 39, 64
7, 29380, Note_off_c, 9, 54, 64
7, 29380, Note_off_c, 9, 37, 64
7, 29380, Note_off_c, 9, 42, 64
7, 29380, Note_off_c, 9, 38, 64
7, 29380, Note_off_c, 9, 35, 64
7, 29400, Note_on_c, 9, 42, 70
7, 29400, Note_on_c, 9, 37, 50
7, 29400, Note_on_c, 9, 54, 60
7, 29500, Note_off_c, 9, 54, 64
7, 29500, Note_off_c, 9, 37, 64
7, 29500, Note_off_c, 9, 42, 64
7, 29520, Note_on_c, 9, 42, 80
7, 29520, Note_on_c, 9, 37, 80
7, 29520, Note_on_c, 9, 56, 100
7, 29520, Note_on_c, 9, 54, 115
7, 29620, Note_off_c, 9, 54, 64
7, 29620, Note_off_c, 9, 56, 64
7, 29620, Note_off_c, 9, 37, 64
7, 29620, Note_off_c, 9, 42, 64
7, 29640, Note_on_c, 9, 35, 115
7, 29640, Note_on_c, 9, 42, 70
7, 29640, Note_on_c, 9, 37, 50
7, 29640, Note_on_c, 9, 56, 115
7, 29640, Note_on_c, 9, 54, 60
7, 29740, Note_off_c, 9, 54, 64
7, 29740, Note_off_c, 9, 56, 64
7, 29740, Note_off_c, 9, 37, 64
7, 29740, Note_off_c, 9, 42, 64
7, 29740, Note_off_c, 9, 35, 64
7, 29760, Note_on_c, 9, 35, 127
7, 29760, Note_on_c, 9, 42, 100
7, 29760, Note_on_c, 9, 37, 80
7, 29760, Note_on_c, 9, 56, 115
7, 29760, Note_on_c, 9, 54, 115
7, 29860, Note_off_c, 9, 54, 64
7, 29860, Note_off_c, 9, 56, 64
7, 29860, Note_off_c, 9, 37, 64
7, 29860, Note_off_c, 9, 42, 64
7, 29860, Note_off_c, 9, 35, 64
7, 29880, Note_on_c, 9, 42, 70
7, 29880, Note_on_c, 9, 37, 50
7, 29880, Note_on_c, 9, 54, 60
7, 29980, Note_off_c, 9, 54, 64
7, 29980, Note_off_c, 9, 37, 64
7, 29980, Note_off_c, 9, 42, 64
7, 30000, Note_on_c, 9, 42, 80
7, 30000, Note_on_c, 9, 37, 80
7, 30000, Note_on_c, 9, 56, 115
7, 30000, Note_on_c, 9, 54, 115
7, 30100, Note_off_c, 9, 54, 64
7, 30100, Note_off_c, 9, 56, 64
7, 30100, Note_off_c, 9, 37, 64
7, 30100, Note_off_c, 9, 42, 64
7, 30120, Note_on_c, 9, 42, 70
7, 30120, Note_on_c, 9, 37, 50
7, 30120, Note_on_c, 9, 54, 60
7, 30220, Note_off_c, 9, 54, 64
7, 30220, Note_off_c, 9, 37, 64
7, 30220, Note_off_c, 9, 42, 64
7, 30240, Note_on_c, 9, 35, 127
7, 30240, Note_on_c, 9, 38, 127
7, 30240, Note_on_c, 9, 42, 100
7, 30240, Note_on_c, 9, 37, 80
7, 30240, Note_on_c, 9, 54, 115
7, 30240, Note_on_c, 9, 39, 115
7, 30340, Note_off_c, 9, 39, 64
7, 30340, Note_off_c, 9, 54, 64
7, 30340, Note_off_c, 9, 37, 64
7, 30340, Note_off_c, 9, 42, 64
7, 30340, Note_off_c, 9, 38, 64
7, 30340, Note_off_c, 9, 35, 64
7, 30360, Note_on_c, 9, 35, 115
7, 30360, Note_on_c, 9, 42, 70
7, 30360, Note_on_c, 9, 37, 50
7, 30360, Note_on_c, 9, 54, 60
7, 30460, Note_off_c, 9, 54, 64
7, 30460, Note_off_c, 9, 37, 64
7, 30460, Note_off_c, 9, 42, 64
7, 30460, Note_off_c, 9, 35, 64
7, 30480, Note_on_c, 9, 35, 127
7, 30480, Note_on_c, 9, 42, 90
7, 30480, Note_on_c, 9, 37, 80
7, 30480, Note_on_c, 9, 54, 115
7, 30580, Note_off_c, 9, 54, 64
7, 30580, Note_off_c, 9, 37, 64
7, 30580, Note_off_c, 9, 42, 64
7, 30580, Note_off_c, 9, 35, 64
7, 30600, Note_on_c, 9, 35, 115
7, 30600, Note_on_c, 9, 42, 90
7, 30600, Note_on_c, 9, 37, 50
7, 30600, Note_on_c, 9, 54, 60
7, 30700, Note_off_c, 9, 54, 64
7, 30700, Note_off_c, 9, 37, 64
7, 30700, Note_off_c, 9, 42, 64
7, 30700, Note_off_c, 9, 35, 64
7, 30720, Note_on_c, 9, 35, 127
7, 30720, Note_on_c, 9, 42, 100
7, 30720, Note_on_c, 9, 37, 80
7, 30720, Note_on_c, 9, 56, 100
7, 30720, Note_on_c, 9, 54, 115
7, 30820, Note_off_c, 9, 54, 64
7, 30820, Note_off_c, 9, 56, 64
7, 30820, Note_off_c, 9, 37, 64
7, 30820, Note_off_c, 9, 42, 64
7, 30820, Note_off_c, 9, 35, 64
7, 30840, Note_on_c, 9, 42, 70
7, 30840, Note_on_c, 9, 37, 50
7, 30840, Note_on_c, 9, 54, 60
7, 30940, Note_off_c, 9, 54, 64
7, 30940, Note_off_c, 9, 37, 64
7, 30940, Note_off_c, 9, 42, 64
7, 30960, Note_on_c, 9, 42, 80
7, 30960, Note_on_c, 9, 37, 80
7, 30960, Note_on_c, 9, 56, 115
7, 30960, Note_on_c, 9, 54, 115
7, 31060, Note_off_c, 9, 54, 64
7, 31060, Note_off_c, 9, 56, 64
7, 31060, Note_off_c, 9, 37, 64
7, 31060, Note_off_c, 9, 42, 64
7, 31080, Note_on_c, 9, 42, 70
7, 31080, Note_on_c, 9, 37, 50
7, 31080, Note_on_c, 9, 54, 60
7, 31180, Note_off_c, 9, 54, 64
7, 31180, Note_off_c, 9, 37, 64
7, 31180, Note_off_c, 9, 42, 64
7, 31200, Note_on_c, 9, 35, 127
7, 31200, Note_on_c, 9, 38, 127
7, 31200, Note_on_c, 9, 42, 100
7, 31200, Note_on_c, 9, 37, 80
7, 31200, Note_on_c, 9, 54, 115
7, 31200, Note_on_c, 9, 39, 115
7, 31300, Note_off_c, 9, 39, 64
7, 31300, Note_off_c, 9, 54, 64
7, 31300, Note_off_c, 9, 37, 64
7, 31300, Note_off_c, 9, 42, 64
7, 31300, Note_off_c, 9, 38, 64
7, 31300, Note_off_c, 9, 35, 64
7, 31320, Note_on_c, 9, 42, 70
7, 31320, Note_on_c, 9, 37, 50
7, 31320, Note_on_c, 9, 54, 60
7, 31420, Note_off_c, 9, 54, 64
7, 31420, Note_off_c, 9, 37, 64
7, 31420, Note_off_c, 9, 42, 64
7, 31440, Note_on_c, 9, 42, 80
7, 31440, Note_on_c, 9, 37, 80
7, 31440, Note_on_c, 9, 56, 100
7, 31440, Note_on_c, 9, 54, 115
7, 31540, Note_off_c, 9, 54, 64
7, 31540, Note_off_c, 9, 56, 64
7, 31540, Note_off_c, 9, 37, 64
7, 31540, Note_off_c, 9, 42, 64
7, 31560, Note_on_c, 9, 35, 115
7, 31560, Note_on_c, 9, 42, 70
7, 31560, Note_on_c, 9, 37, 50
7, 31560, Note_on_c, 9, 56, 115
7, 31560, Note_on_c, 9, 54, 60
7, 31660, Note_off_c, 9, 54, 64
7, 31660, Note_off_c, 9, 56, 64
7, 31660, Note_off_c, 9, 37, 64
7, 31660, Note_off_c, 9, 42, 64
7, 31660, Note_off_c, 9, 35, 64
7, 31680, Note_on_c, 9, 35, 127
7, 31680, Note_on_c, 9, 42, 100
7, 31680, Note_on_c, 9, 37, 80
7, 31680, Note_on_c, 9, 56, 115
7, 31680, Note_on_c, 9, 54, 115
7, 31780, Note_off_c, 9, 54, 64
7, 31780, Note_off_c, 9, 56, 64
7, 31780, Note_off_c, 9, 37, 64
7, 31780, Note_off_c, 9, 42, 64
7, 31780, Note_off_c, 9, 35, 64
7, 31800, Note_on_c, 9, 42, 70
7, 31800, Note_on_c, 9, 37, 50
7, 31800, Note_on_c, 9, 54, 60
7, 31900, Note_off_c, 9, 54, 64
7, 31900, Note_off_c, 9, 37, 64
7, 31900, Note_off_c, 9, 42, 64
7, 31920, Note_on_c, 9, 42, 80
7, 31920, Note_on_c, 9, 37, 80
7, 31920, Note_on_c, 9, 56, 115
7, 31920, Note_on_c, 9, 54, 115
7, 32020, Note_off_c, 9, 54, 64
7, 32020, Note_off_c, 9, 56, 64
7, 32020, Note_off_c, 9, 37, 64
7, 32020, Note_off_c, 9, 42, 64
7, 32040, Note_on_c, 9, 42, 70
7, 32040, Note_on_c, 9, 37, 50
7, 32040, Note_on_c, 9, 54, 60
7, 32140, Note_off_c, 9, 54, 64
7, 32140, Note_off_c, 9, 37, 64
7, 32140, Note_off_c, 9, 42, 64
7, 32160, Note_on_c, 9, 35, 127
7, 32160, Note_on_c, 9, 38, 127
7, 32160, Note_on_c, 9, 42, 100
7, 32160, Note_on_c, 9, 37, 80
7, 32160, Note_on_c, 9, 54, 115
7, 32160, Note_on_c, 9, 39, 115
7, 32260, Note_off_c, 9, 39, 64
7, 32260, Note_off_c, 9, 54, 64
7, 32260, Note_off_c, 9, 37, 64
7, 32260, Note_off_c, 9, 42, 64
7, 32260, Note_off_c, 9, 38, 64
7, 32260, Note_off_c, 9, 35, 64
7, 32280, Note_on_c, 9, 35, 115
7, 32280, Note_on_c, 9, 42, 70
7, 32280, Note_on_c, 9, 37, 50
7, 32280, Note_on_c, 9, 54, 60
7, 32380, Note_off_c, 9, 54, 64
7, 32380, Note_off_c, 9, 37, 64
7, 32380, Note_off_c, 9, 42, 64
7, 32380, Note_off_c, 9, 35, 64
7, 32400, Note_on_c, 9, 35, 127
7, 32400, Note_on_c, 9, 42, 90
7, 32400, Note_on_c, 9, 37, 80
7, 32400, Note_on_c, 9, 54, 115
7, 32500, Note_off_c, 9, 54, 64
7, 32500, Note_off_c, 9, 37, 64
7, 32500, Note_off_c, 9, 42, 64
7, 32500, Note_off_c, 9, 35, 64
7, 32520, Note_on_c, 9, 35, 115
7, 32520, Note_on_c, 9, 42, 90
7, 32520, Note_on_c, 9, 37, 50
7, 32520, Note_on_c, 9, 54, 60
7, 32620, Note_off_c, 9, 54, 64
7, 32620, Note_off_c, 9, 37, 64
7, 32620, Note_off_c, 9, 42, 64
7, 32620, Note_off_c, 9, 35, 64
7, 32640, Note_on_c, 9, 35, 127
7, 32640, Note_on_c, 9, 42, 100
7, 32640, Note_on_c, 9, 37, 80
7, 32640, Note_on_c, 9, 56, 100
7, 32640, Note_on_c, 9, 54, 115
7, 32740, Note_off_c, 9, 54, 64
7, 32740, Note_off_c, 9, 56, 64
7, 32740, Note_off_c, 9, 37, 64
7, 32740, Note_off_c, 9, 42, 64
7, 32740, Note_off_c, 9, 35, 64
7, 32760, Note_on_c, 9, 42, 70
7, 32760, Note_on_c, 9, 37, 50
7, 32760, Note_on_c, 9, 54, 60
7, 32860, Note_off_c, 9, 54, 64
7, 32860, Note_off_c, 9, 37, 64
7, 32860, Note_off_c, 9, 42, 64
7, 32880, Note_on_c, 9, 42, 80
7, 32880, Note_on_c, 9, 37, 80
7, 32880, Note_on_c, 9, 56, 115
7, 32880, Note_on_c, 9, 54, 115
7, 32980, Note_off_c, 9, 54, 64
7, 32980, Note_off_c, 9, 56, 64
7, 32980, Note_off_c, 9, 37, 64
7, 32980, Note_off_c, 9, 42, 64
7, 33000, Note_on_c, 9, 42, 70
7, 33000, Note_on_c, 9, 37, 50
7, 33000, Note_on_c, 9, 54, 60
7, 33100, Note_off_c, 9, 54, 64
7, 33100, Note_off_c, 9, 37, 64
7, 33100, Note_off_c, 9, 42, 64
7, 33120, Note_on_c, 9, 35, 127
7, 33120, Note_on_c, 9, 38, 127
7, 33120, Note_on_c, 9, 42, 100
7, 33120, Note_on_c, 9, 37, 80
7, 33120, Note_on_c, 9, 54, 115
7, 33120, Note_on_c, 9, 39, 115
7, 33220, Note_off_c, 9, 39, 64
7, 33220, Note_off_c, 9, 54, 64
7, 33220, Note_off_c, 9, 37, 64
7, 33220, Note_off_c, 9, 42, 64
7, 33220, Note_off_c, 9, 38, 64
7, 33220, Note_off_c, 9, 35, 64
7, 33240, Note_on_c, 9, 42, 70
7, 33240, Note_on_c, 9, 37, 50
7, 33240, Note_on_c, 9, 54, 60
7, 33340, Note_off_c, 9, 54, 64
7, 33340, Note_off_c, 9, 37, 64
7, 33340, Note_off_c, 9, 42, 64
7, 33360, Note_on_c, 9, 42, 80
7, 33360, Note_on_c, 9, 37, 80
7, 33360, Note_on_c, 9, 56, 100
7, 33360, Note_on_c, 9, 54, 115
7, 33460, Note_off_c, 9, 54, 64
7, 33460, Note_off_c, 9, 56, 64
7, 33460, Note_off_c, 9, 37, 64
7, 33460, Note_off_c, 9, 42, 64
7, 33480, Note_on_c, 9, 35, 115
7, 33480, Note_on_c, 9, 42, 70
7, 33480, Note_on_c, 9, 37, 50
7, 33480, Note_on_c, 9, 56, 115
7, 33480, Note_on_c, 9, 54, 60
7, 33580, Note_off_c, 9, 54, 64
7, 33580, Note_off_c, 9, 56, 64
7, 33580, Note_off_c, 9, 37, 64
7, 33580, Note_off_c, 9, 42, 64
7, 33580, Note_off_c, 9, 35, 64
7, 33600, Note_on_c, 9, 35, 127
7, 33600, Note_on_c, 9, 42, 100
7, 33600, Note_on_c, 9, 37, 80
7, 33600, Note_on_c, 9, 56, 115
7, 33600, Note_on_c, 9, 54, 115
7, 33700, Note_off_c, 9, 54, 64
7, 33700, Note_off_c, 9, 56, 64
7, 33700, Note_off_c, 9, 37, 64
7, 33700, Note_off_c, 9, 42, 64
7, 33700, Note_off_c, 9, 35, 64
7, 33720, Note_on_c, 9, 42, 70
7, 33720, Note_on_c, 9, 37, 50
7, 33720, Note_on_c, 9, 54, 60
7, 33820, Note_off_c, 9, 54, 64
7, 33820, Note_off_c, 9, 37, 64
7, 33820, Note_off_c, 9, 42, 64
7, 33840, Note_on_c, 9, 42, 80
7, 33840, Note_on_c, 9, 37, 80
7, 33840, Note_on_c, 9, 56, 115
7, 33840, Note_on_c, 9, 54, 115
7, 33940, Note_off_c, 9, 54, 64
7, 33940, Note_off_c, 9, 56, 64
7, 33940, Note_off_c, 9, 37, 64
7, 33940, Note_off_c, 9, 42, 64
7, 33960, Note_on_c, 9, 42, 70
7, 33960, Note_on_c, 9, 37, 50
7, 33960, Note_on_c, 9, 54, 60
7, 34060, Note_off_c, 9, 54, 64
7, 34060, Note_off_c, 9, 37, 64
7, 34060, Note_off_c, 9, 42, 64
7, 34080, Note_on_c, 9, 35, 127
7, 34080, Note_on_c, 9, 38, 127
7, 34080, Note_on_c, 9, 42, 100
7, 34080, Note_on_c, 9, 37, 80
7, 34080, Note_on_c, 9, 54, 115
7, 34080, Note_on_c, 9, 39, 115
7, 34180, Note_off_c, 9, 39, 64
7, 34180, Note_off_c, 9, 54, 64
7, 34180, Note_off_c, 9, 37, 64
7, 34180, Note_off_c, 9, 42, 64
7, 34180, Note_off_c, 9, 38, 64
7, 34180, Note_off_c, 9, 35, 64
7, 34200, Note_on_c, 9, 35, 115
7, 34200, Note_on_c, 9, 42, 70
7, 34200, Note_on_c, 9, 37, 50
7, 34200, Note_on_c, 9, 54, 60
7, 34300, Note_off_c, 9, 54, 64
7, 34300, Note_off_c, 9, 37, 64
7, 34300, Note_off_c, 9, 42, 64
7, 34300, Note_off_c, 9, 35, 64
7, 34320, Note_on_c, 9, 35, 127
7, 34320, Note_on_c, 9, 42, 90
7, 34320, Note_on_c, 9, 37, 80
7, 34320, Note_on_c, 9, 54, 115
7, 34420, Note_off_c, 9, 54, 64
7, 34420, Note_off_c, 9, 37, 64
7, 34420, Note_off_c, 9, 42, 64
7, 34420, Note_off_c, 9, 35, 64
7, 34440, Note_on_c, 9, 35, 115
7, 34440, Note_on_c, 9, 42, 90
7, 34440, Note_on_c, 9, 37, 50
7, 34440, Note_on_c, 9, 54, 60
7, 34540, Note_off_c, 9, 54, 64
7, 34540, Note_off_c, 9, 37, 64
7, 34540, Note_off_c, 9, 42, 64
7, 34540, Note_off_c, 9, 35, 64
7, 34560, Note_on_c, 9, 35, 127
7, 34560, Note_on_c, 9, 38, 127
7, 34560, Note_on_c, 9, 42, 100
7, 34560, Note_on_c, 9, 37, 80
7, 34560, Note_on_c, 9, 56, 100
7, 34560, Note_on_c, 9, 54, 115
7, 34660, Note_off_c, 9, 54, 64
7, 34660, Note_off_c, 9, 56, 64
7, 34660, Note_off_c, 9, 37, 64
7, 34660, Note_off_c, 9, 42, 64
7, 34660, Note_off_c, 9, 38, 64
7, 34660, Note_off_c, 9, 35, 64
7, 34680, Note_on_c, 9, 38, 100
7, 34680, Note_on_c, 9, 42, 70
7, 34680, Note_on_c, 9, 37, 50
7, 34680, Note_on_c, 9, 54, 60
7, 34780, Note_off_c, 9, 54, 64
7, 34780, Note_off_c, 9, 37, 64
7, 34780, Note_off_c, 9, 42, 64
7, 34780, Note_off_c, 9, 38, 64
7, 34800, Note_on_c, 9, 38, 115
7, 34800, Note_on_c, 9, 42, 80
7, 34800, Note_on_c, 9, 37, 80
7, 34800, Note_on_c, 9, 56, 115
7, 34800, Note_on_c, 9, 54, 115
7, 34900, Note_off_c, 9, 54, 64
7, 34900, Note_off_c, 9, 56, 64
7, 34900, Note_off_c, 9, 37, 64
7, 34900, Note_off_c, 9, 42, 64
7, 34900, Note_off_c, 9, 38, 64
7, 34920, Note_on_c, 9, 38, 90
7, 34920, Note_on_c, 9, 42, 70
7, 34920, Note_on_c, 9, 37, 50
7, 34920, Note_on_c, 9, 54, 60
7, 35020, Note_off_c, 9, 54, 64
7, 35020, Note_off_c, 9, 37, 64
7, 35020, Note_off_c, 9, 42, 64
7, 35020, Note_off_c, 9, 38, 64
7, 35040, Note_on_c, 9, 35, 127
7, 35040, Note_on_c, 9, 38, 127
7, 35040, Note_on_c, 9, 42, 100
7, 35040, Note_on_c, 9, 37, 80
7, 35040, Note_on_c, 9, 54, 115
7, 35040, Note_on_c, 9, 39, 115
7, 35140, Note_off_c, 9, 39, 64
7, 35140, Note_off_c, 9, 54, 64
7, 35140, Note_off_c, 9, 37, 64
7, 35140, Note_off_c, 9, 42, 64
7, 35140, Note_off_c, 9, 38, 64
7, 35140, Note_off_c, 9, 35, 64
7, 35160, Note_on_c, 9, 38, 100
7, 35160, Note_on_c, 9, 42, 70
7, 35160, Note_on_c, 9, 37, 50
7, 35160, Note_on_c, 9, 54, 60
7, 35260, Note_off_c, 9, 54, 64
7, 35260, Note_off_c, 9, 37, 64
7, 35260, Note_off_c, 9, 42, 64
7, 35260, Note_off_c, 9, 38, 64
7, 35280, Note_on_c, 9, 38, 115
7, 35280, Note_on_c, 9, 42, 80
7, 35280, Note_on_c, 9, 37, 80
7, 35280, Note_on_c, 9, 56, 100
7, 35280, Note_on_c, 9, 54, 115
7, 35380, Note_off_c, 9, 54, 64
7, 35380, Note_off_c, 9, 56, 64
7, 35380, Note_off_c, 9, 37, 64
7, 35380, Note_off_c, 9, 42, 64
7, 35380, Note_off_c, 9, 38, 64
7, 35400, Note_on_c, 9, 35, 115
7, 35400, Note_on_c, 9, 38, 90
7, 35400, Note_on_c, 9, 42, 70
7, 35400, Note_on_c, 9, 37, 50
7, 35400, Note_on_c, 9, 56, 115
7, 35400, Note_on_c, 9, 54, 60
7, 35500, Note_off_c, 9, 54, 64
7, 35500, Note_off_c, 9, 56, 64
7, 35500, Note_off_c, 9, 37, 64
7, 35500, Note_off_c, 9, 42, 64
7, 35500, Note_off_c, 9, 38, 64
7, 35500, Note_off_c, 9, 35, 64
7, 35520, Note_on_c, 9, 35, 127
7, 35520, Note_on_c, 9, 38, 127
7, 35520, Note_on_c, 9, 42, 100
7, 35520, Note_on_c, 9, 37, 80
7, 35520, Note_on_c, 9, 56, 115
7, 35520, Note_on_c, 9, 54, 115
7, 35620, Note_off_c, 9, 54, 64
7, 35620, Note_off_c, 9, 56, 64
7, 35620, Note_off_c, 9, 37, 64
7, 35620, Note_off_c, 9, 42, 64
7, 35620, Note_off_c, 9, 38, 64
7, 35620, Note_off_c, 9, 35, 64
7, 35640, Note_on_c, 9, 38, 100
7, 35640, Note_on_c, 9, 42, 70
7, 35640, Note_on_c, 9, 37, 50
7, 35640, Note_on_c, 9, 54, 60
7, 35740, Note_off_c, 9, 54, 64
7, 35740, Note_off_c, 9, 37, 64
7, 35740, Note_off_c, 9, 42, 64
7, 35740, Note_off_c, 9, 38, 64
7, 35760, Note_on_c, 9, 38, 115
7, 35760, Note_on_c, 9, 42, 80
7, 35760, Note_on_c, 9, 37, 80
7, 35760, Note_on_c, 9, 56, 115
7, 35760, Note_on_c, 9, 54, 115
7, 35860, Note_off_c, 9, 54, 64
7, 35860, Note_off_c, 9, 56, 64
7, 35860, Note_off_c, 9, 37, 64
7, 35860, Note_off_c, 9, 42, 64
7, 35860, Note_off_c, 9, 38, 64
7, 35880, Note_on_c, 9, 38, 90
7, 35880, Note_on_c, 9, 42, 70
7, 35880, Note_on_c, 9, 37, 50
7, 35880, Note_on_c, 9, 54, 60
7, 35980, Note_off_c, 9, 54, 64
7, 35980, Note_off_c, 9, 37, 64
7, 35980, Note_off_c, 9, 42, 64
7, 35980, Note_off_c, 9, 38, 64
7, 36000, Note_on_c, 9, 35, 127
7, 36000, Note_on_c, 9, 38, 127
7, 36000, Note_on_c, 9, 42, 100
7, 36000, Note_on_c, 9, 37, 80
7, 36000, Note_on_c, 9, 54, 115
7, 36000, Note_on_c, 9, 39, 115
7, 36100, Note_off_c, 9, 39, 64
7, 36100, Note_off_c, 9, 54, 64
7, 36100, Note_off_c, 9, 37, 64
7, 36100, Note_off_c, 9, 42, 64
7, 36100, Note_off_c, 9, 38, 64
7, 36100, Note_off_c, 9, 35, 64
7, 36120, Note_on_c, 9, 35, 115
7, 36120, Note_on_c, 9, 38, 100
7, 36120, Note_on_c, 9, 42, 70
7, 36120, Note_on_c, 9, 37, 50
7, 36120, Note_on_c, 9, 54, 60
7, 36220, Note_off_c, 9, 54, 64
7, 36220, Note_off_c, 9, 37, 64
7, 36220, Note_off_c, 9, 42, 64
7, 36220, Note_off_c, 9, 38, 64
7, 36220, Note_off_c, 9, 35, 64
7, 36240, Note_on_c, 9, 35, 127
7, 36240, Note_on_c, 9, 38, 115
7, 36240, Note_on_c, 9, 42, 90
7, 36240, Note_on_c, 9, 37, 80
7, 36240, Note_on_c, 9, 54, 115
7, 36340, Note_off_c, 9, 54, 64
7, 36340, Note_off_c, 9, 37, 64
7, 36340, Note_off_c, 9, 42, 64
7, 36340, Note_off_c, 9, 38, 64
7, 36340, Note_off_c, 9, 35, 64
7, 36360, Note_on_c, 9, 35, 115
7, 36360, Note_on_c, 9, 38, 90
7, 36360, Note_on_c, 9, 42, 90
7, 36360, Note_on_c, 9, 37, 50
7, 36360, Note_on_c, 9, 54, 60
7, 36460, Note_off_c, 9, 54, 64
7, 36460, Note_off_c, 9, 37, 64
7, 36460, Note_off_c, 9, 42, 64
7, 36460, Note_off_c, 9, 38, 64
7, 36460, Note_off_c, 9, 35, 64
7, 36480, Note_on_c, 9, 35, 127
7, 36480, Note_on_c, 9, 42, 100
7, 36480, Note_on_c, 9, 37, 80
7, 36480, Note_on_c, 9, 56, 100
7, 36480, Note_on_c, 9, 49, 100
7, 36480, Note_on_c, 9, 54, 115
7, 36580, Note_off_c, 9, 54, 64
7, 36580, Note_off_c, 9, 49, 64
7, 36580, Note_off_c, 9, 56, 64
7, 36580, Note_off_c, 9, 37, 64
7, 36580, Note_off_c, 9, 42, 64
7, 36580, Note_off_c, 9, 35, 64
7, 36600, Note_on_c, 9, 42, 70
7, 36600, Note_on_c, 9, 37, 50
7, 36600, Note_on_c, 9, 54, 60
7, 36700, Note_off_c, 9, 54, 64
7, 36700, Note_off_c, 9, 37, 64
7, 36700, Note_off_c, 9, 42, 64
7, 36720, Note_on_c, 9, 42, 80
7, 36720, Note_on_c, 9, 37, 80
7, 36720, Note_on_c, 9, 56, 115
7, 36720, Note_on_c, 9, 54, 115
7, 36820, Note_off_c, 9, 54, 64
7, 36820, Note_off_c, 9, 56, 64
7, 36820, Note_off_c, 9, 37, 64
7, 36820, Note_off_c, 9, 42, 64
7, 36840, Note_on_c, 9, 42, 70
7, 36840, Note_on_c, 9, 37, 50
7, 36840, Note_on_c, 9, 54, 60
7, 36940, Note_off_c, 9, 54, 64
7, 36940, Note_off_c, 9, 37, 64
7, 36940, Note_off_c, 9, 42, 64
7, 36960, Note_on_c, 9, 35, 127
7, 36960, Note_on_c, 9, 38, 127
7, 36960, Note_on_c, 9, 42, 100
7, 36960, Note_on_c, 9, 37, 80
7, 36960, Note_on_c, 9, 54, 115
7, 36960, Note_on_c, 9, 39, 115
7, 37060, Note_off_c, 9, 39, 64
7, 37060, Note_off_c, 9, 54, 64
7, 37060, Note_off_c, 9, 37, 64
7, 37060, Note_off_c, 9, 42, 64
7, 37060, Note_off_c, 9, 38, 64
7, 37060, Note_off_c, 9, 35, 64
7, 37080, Note_on_c, 9, 42, 70
7, 37080, Note_on_c, 9, 37, 50
7, 37080, Note_on_c, 9, 54, 60
7, 37180, Note_off_c, 9, 54, 64
7, 37180, Note_off_c, 9, 37, 64
7, 37180, Note_off_c, 9, 42, 64
7, 37200, Note_on_c, 9, 42, 80
7, 37200, Note_on_c, 9, 37, 80
7, 37200, Note_on_c, 9, 56, 100
7, 37200, Note_on_c, 9, 54, 115
7, 37300, Note_off_c, 9, 54, 64
7, 37300, Note_off_c, 9, 56, 64
7, 37300, Note_off_c, 9, 37, 64
7, 37300, Note_off_c, 9, 42, 64
7, 37320, Note_on_c, 9, 35, 115
7, 37320, Note_on_c, 9, 42, 70
7, 37320, Note_on_c, 9, 37, 50
7, 37320, Note_on_c, 9, 56, 115
7, 37320, Note_on_c, 9, 54, 60
7, 37420, Note_off_c, 9, 54, 64
7, 37420, Note_off_c, 9, 56, 64
7, 37420, Note_off_c, 9, 37, 64
7, 37420, Note_off_c, 9, 42, 64
7, 37420, Note_off_c, 9, 35, 64
7, 37440, Note_on_c, 9, 35, 127
7, 37440, Note_on_c, 9, 42, 100
7, 37440, Note_on_c, 9, 37, 80
7, 37440, Note_on_c, 9, 56, 115
7, 37440, Note_on_c, 9, 54, 115
7, 37540, Note_off_c, 9, 54, 64
7, 37540, Note_off_c, 9, 56, 64
7, 37540, Note_off_c, 9, 37, 64
7, 37540, Note_off_c, 9, 42, 64
7, 37540, Note_off_c, 9, 35, 64
7, 37560, Note_on_c, 9, 42, 70
7, 37560, Note_on_c, 9, 37, 50
7, 37560, Note_on_c, 9, 54, 60
7, 37660, Note_off_c, 9, 54, 64
7, 37660, Note_off_c, 9, 37, 64
7, 37660, Note_off_c, 9, 42, 64
7, 37680, Note_on_c, 9, 42, 80
7, 37680, Note_on_c, 9, 37, 80
7, 37680, Note_on_c, 9, 56, 115
7, 37680, Note_on_c, 9, 54, 115
7, 37780, Note_off_c, 9, 54, 64
7, 37780, Note_off_c, 9, 56, 64
7, 37780, Note_off_c, 9, 37, 64
7, 37780, Note_off_c, 9, 42, 64
7, 37800, Note_on_c, 9, 42, 70
7, 37800, Note_on_c, 9, 37, 50
7, 37800, Note_on_c, 9, 54, 60
7, 37900, Note_off_c, 9, 54, 64
7, 37900, Note_off_c, 9, 37, 64
7, 37900, Note_off_c, 9, 42, 64
7, 37920, Note_on_c, 9, 35, 127
7, 37920, Note_on_c, 9, 38, 127
7, 37920, Note_on_c, 9, 42, 100
7, 37920, Note_on_c, 9, 37, 80
7, 37920, Note_on_c, 9, 54, 115
7, 37920, Note_on_c, 9, 39, 115
7, 38020, Note_off_c, 9, 39, 64
7, 38020, Note_off_c, 9, 54, 64
7, 38020, Note_off_c, 9, 37, 64
7, 38020, Note_off_c, 9, 42, 64
7, 38020, Note_off_c, 9, 38, 64
7, 38020, Note_off_c, 9, 35, 64
7, 38040, Note_on_c, 9, 35, 115
7, 38040, Note_on_c, 9, 42, 70
7, 38040, Note_on_c, 9, 37, 50
7, 38040, Note_on_c, 9, 54, 60
7, 38140, Note_off_c, 9, 54, 64
7, 38140, Note_off_c, 9, 37, 64
7, 38140, Note_off_c, 9, 42, 64
7, 38140, Note_off_c, 9, 35, 64
7, 38160, Note_on_c, 9, 35, 127
7, 38160, Note_on_c, 9, 42, 90
7, 38160, Note_on_c, 9, 37, 80
7, 38160, Note_on_c, 9, 54, 115
7, 38260, Note_off_c, 9, 54, 64
7, 38260, Note_off_c, 9, 37, 64
7, 38260, Note_off_c, 9, 42, 64
7, 38260, Note_off_c, 9, 35, 64
7, 38280, Note_on_c, 9, 35, 115
7, 38280, Note_on_c, 9, 42, 90
7, 38280, Note_on_c, 9, 37, 50
7, 38280, Note_on_c, 9, 54, 60
7, 38380, Note_off_c, 9, 54, 64
7, 38380, Note_off_c, 9, 37, 64
7, 38380, Note_off_c, 9, 42, 64
7, 38380, Note_off_c, 9, 35, 64
7, 38400, Note_on_c, 9, 35, 127
7, 38400, Note_on_c, 9, 42, 100
7, 38400, Note_on_c, 9, 37, 80
7, 38400, Note_on_c, 9, 56, 100
7, 38400, Note_on_c, 9, 54, 115
7, 38500, Note_off_c, 9, 54, 64
7, 38500, Note_off_c, 9, 56, 64
7, 38500, Note_off_c, 9, 37, 64
7, 38500, Note_off_c, 9, 42, 64
7, 38500, Note_off_c, 9, 35, 64
7, 38520, Note_on_c, 9, 42, 70
7, 38520, Note_on_c, 9, 37, 50
7, 38520, Note_on_c, 9, 54, 60
7, 38620, Note_off_c, 9, 54, 64
7, 38620, Note_off_c, 9, 37, 64
7, 38620, Note_off_c, 9, 42, 64
7, 38640, Note_on_c, 9, 42, 80
7, 38640, Note_on_c, 9, 37, 80
7, 38640, Note_on_c, 9, 56, 115
7, 38640, Note_on_c, 9, 54, 115
7, 38740, Note_off_c, 9, 54, 64
7, 38740, Note_off_c, 9, 56, 64
7, 38740, Note_off_c, 9, 37, 64
7, 38740, Note_off_c, 9, 42, 64
7, 38760, Note_on_c, 9, 42, 70
7, 38760, Note_on_c, 9, 37, 50
7, 38760, Note_on_c, 9, 54, 60
7, 38860, Note_off_c, 9, 54, 64
7, 38860, Note_off_c, 9, 37, 64
7, 38860, Note_off_c, 9, 42, 64
7, 38880, Note_on_c, 9, 35, 127
7, 38880, Note_on_c, 9, 38, 127
7, 38880, Note_on_c, 9, 42, 100
7, 38880, Note_on_c, 9, 37, 80
7, 38880, Note_on_c, 9, 54, 115
7, 38880, Note_on_c, 9, 39, 115
7, 38980, Note_off_c, 9, 39, 64
7, 38980, Note_off_c, 9, 54, 64
7, 38980, Note_off_c, 9, 37, 64
7, 38980, Note_off_c, 9, 42, 64
7, 38980, Note_off_c, 9, 38, 64
7, 38980, Note_off_c, 9, 35, 64
7, 39000, Note_on_c, 9, 42, 70
7, 39000, Note_on_c, 9, 37, 50
7, 39000, Note_on_c, 9, 54, 60
7, 39100, Note_off_c, 9, 54, 64
7, 39100, Note_off_c, 9, 37, 64
7, 39100, Note_off_c, 9, 42, 64
7, 39120, Note_on_c, 9, 42, 80
7, 39120, Note_on_c, 9, 37, 80
7, 39120, Note_on_c, 9, 56, 100
7, 39120, Note_on_c, 9, 54, 115
7, 39220, Note_off_c, 9, 54, 64
7, 39220, Note_off_c, 9, 56, 64
7, 39220, Note_off_c, 9, 37, 64
7, 39220, Note_off_c, 9, 42, 64
7, 39240, Note_on_c, 9, 35, 115
7, 39240, Note_on_c, 9, 42, 70
7, 39240, Note_on_c, 9, 37, 50
7, 39240, Note_on_c, 9, 56, 115
7, 39240, Note_on_c, 9, 54, 60
7, 39340, Note_off_c, 9, 54, 64
7, 39340, Note_off_c, 9, 56, 64
7, 39340, Note_off_c, 9, 37, 64
7, 39340, Note_off_c, 9, 42, 64
7, 39340, Note_off_c, 9, 35, 64
7, 39360, Note_on_c, 9, 35, 127
7, 39360, Note_on_c, 9, 42, 100
7, 39360, Note_on_c, 9, 37, 80
7, 39360, Note_on_c, 9, 56, 115
7, 39360, Note_on_c, 9, 54, 115
7, 39460, Note_off_c, 9, 54, 64
7, 39460, Note_off_c, 9, 56, 64
7, 39460, Note_off_c, 9, 37, 64
7, 39460, Note_off_c, 9, 42, 64
7, 39460, Note_off_c, 9, 35, 64
7, 39480, Note_on_c, 9, 42, 70
7, 39480, Note_on_c, 9, 37, 50
7, 39480, Note_on_c, 9, 54, 60
7, 39580, Note_off_c, 9, 54, 64
7, 39580, Note_off_c, 9, 37, 64
7, 39580, Note_off_c, 9, 42, 64
7, 39600, Note_on_c, 9, 42, 80
7, 39600, Note_on_c, 9, 37, 80
7, 39600, Note_on_c, 9, 56, 115
7, 39600, Note_on_c, 9, 54, 115
7, 39700, Note_off_c, 9, 54, 64
7, 39700, Note_off_c, 9, 56, 64
7, 39700, Note_off_c, 9, 37, 64
7, 39700, Note_off_c, 9, 42, 64
7, 39720, Note_on_c, 9, 42, 70
7, 39720, Note_on_c, 9, 37, 50
7, 39720, Note_on_c, 9, 54, 60
7, 39820, Note_off_c, 9, 54, 64
7, 39820, Note_off_c, 9, 37, 64
7, 39820, Note_off_c, 9, 42, 64
7, 39840, Note_on_c, 9, 35, 127
7, 39840, Note_on_c, 9, 38, 127
7, 39840, Note_on_c, 9, 42, 100
7, 39840, Note_on_c, 9, 37, 80
7, 39840, Note_on_c, 9, 54, 115
7, 39840, Note_on_c, 9, 39, 115
7, 39940, Note_off_c, 9, 39, 64
7, 39940, Note_off_c, 9, 54, 64
7, 39940, Note_off_c, 9, 37, 64
7, 39940, Note_off_c, 9, 42, 64
7, 39940, Note_off_c, 9, 38, 64
7, 39940, Note_off_c, 9, 35, 64
7, 39960, Note_on_c, 9, 35, 115
7, 39960, Note_on_c, 9, 42, 70
7, 39960, Note_on_c, 9, 37, 50
7, 39960, Note_on_c, 9, 54, 60
7, 40060, Note_off_c, 9, 54, 64
7, 40060, Note_off_c, 9, 37, 64
7, 40060, Note_off_c, 9, 42, 64
7, 40060, Note_off_c, 9, 35, 64
7, 40080, Note_on_c, 9, 35, 127
7, 40080, Note_on_c, 9, 42, 90
7, 40080, Note_on_c, 9, 37, 80
7, 40080, Note_on_c, 9, 54, 115
7, 40180, Note_off_c, 9, 54, 64
7, 40180, Note_off_c, 9, 37, 64
7, 40180, Note_off_c, 9, 42, 64
7, 40180, Note_off_c, 9, 35, 64
7, 40200, Note_on_c, 9, 35, 115
7, 40200, Note_on_c, 9, 42, 90
7, 40200, Note_on_c, 9, 37, 50
7, 40200, Note_on_c, 9, 54, 60
7, 40300, Note_off_c, 9, 54, 64
7, 40300, Note_off_c, 9, 37, 64
7, 40300, Note_off_c, 9, 42, 64
7, 40300, Note_off_c, 9, 35, 64
7, 40320, Note_on_c, 9, 35, 127
7, 40320, Note_on_c, 9, 42, 100
7, 40320, Note_on_c, 9, 37, 80
7, 40320, Note_on_c, 9, 56, 100
7, 40320, Note_on_c, 9, 54, 115
7, 40420, Note_off_c, 9, 54, 64
7, 40420, Note_off_c, 9, 56, 64
7, 40420, Note_off_c, 9, 37, 64
7, 40420, Note_off_c, 9, 42, 64
7, 40420, Note_off_c, 9, 35, 64
7, 40440, Note_on_c, 9, 42, 70
7, 40440, Note_on_c, 9, 37, 50
7, 40440, Note_on_c, 9, 54, 60
7, 40540, Note_off_c, 9, 54, 64
7, 40540, Note_off_c, 9, 37, 64
7, 40540, Note_off_c, 9, 42, 64
7, 40560, Note_on_c, 9, 42, 80
7, 40560, Note_on_c, 9, 37, 80
7, 40560, Note_on_c, 9, 56, 115
7, 40560, Note_on_c, 9, 54, 115
7, 40660, Note_off_c, 9, 54, 64
7, 40660, Note_off_c, 9, 56, 64
7, 40660, Note_off_c, 9, 37, 64
7, 40660, Note_off_c, 9, 42, 64
7, 40680, Note_on_c, 9, 42, 70
7, 40680, Note_on_c, 9, 37, 50
7, 40680, Note_on_c, 9, 54, 60
7, 40780, Note_off_c, 9, 54, 64
7, 40780, Note_off_c, 9, 37, 64
7, 40780, Note_off_c, 9, 42, 64
7, 40800, Note_on_c, 9, 35, 127
7, 40800, Note_on_c, 9, 38, 127
7, 40800, Note_on_c, 9, 42, 100
7, 40800, Note_on_c, 9, 37, 80
7, 40800, Note_on_c, 9, 54, 115
7, 40800, Note_on_c, 9, 39, 115
7, 40900, Note_off_c, 9, 39, 64
7, 40900, Note_off_c, 9, 54, 64
7, 40900, Note_off_c, 9, 37, 64
7, 40900, Note_off_c, 9, 42, 64
7, 40900, Note_off_c, 9, 38, 64
7, 40900, Note_off_c, 9, 35, 64
7, 40920, Note_on_c, 9, 42, 70
7, 40920, Note_on_c, 9, 37, 50
7, 40920, Note_on_c, 9, 54, 60
7, 41020, Note_off_c, 9, 54, 64
7, 41020, Note_off_c, 9, 37, 64
7, 41020, Note_off_c, 9, 42, 64
7, 41040, Note_on_c, 9, 42, 80
7, 41040, Note_on_c, 9, 37, 80
7, 41040, Note_on_c, 9, 56, 100
7, 41040, Note_on_c, 9, 54, 115
7, 41140, Note_off_c, 9, 54, 64
7, 41140, Note_off_c, 9, 56, 64
7, 41140, Note_off_c, 9, 37, 64
7, 41140, Note_off_c, 9, 42, 64
7, 41160, Note_on_c, 9, 35, 115
7, 41160, Note_on_c, 9, 42, 70
7, 41160, Note_on_c, 9, 37, 50
7, 41160, Note_on_c, 9, 56, 115
7, 41160, Note_on_c, 9, 54, 60
7, 41260, Note_off_c, 9, 54, 64
7, 41260, Note_off_c, 9, 56, 64
7, 41260, Note_off_c, 9, 37, 64
7, 41260, Note_off_c, 9, 42, 64
7, 41260, Note_off_c, 9, 35, 64
7, 41280, Note_on_c, 9, 35, 127
7, 41280, Note_on_c, 9, 42, 100
7, 41280, Note_on_c, 9, 37, 80
7, 41280, Note_on_c, 9, 56, 115
7, 41280, Note_on_c, 9, 54, 115
7, 41380, Note_off_c, 9, 54, 64
7, 41380, Note_off_c, 9, 56, 64
7, 41380, Note_off_c, 9, 37, 64
7, 41380, Note_off_c, 9, 42, 64
7, 41380, Note_off_c, 9, 35, 64
7, 41400, Note_on_c, 9, 42, 70
7, 41400, Note_on_c, 9, 37, 50
7, 41400, Note_on_c, 9, 54, 60
7, 41500, Note_off_c, 9, 54, 64
7, 41500, Note_off_c, 9, 37, 64
7, 41500, Note_off_c, 9, 42, 64
7, 41520, Note_on_c, 9, 42, 80
7, 41520, Note_on_c, 9, 37, 80
7, 41520, Note_on_c, 9, 56, 115
7, 41520, Note_on_c, 9, 54, 115
7, 41620, Note_off_c, 9, 54, 64
7, 41620, Note_off_c, 9, 56, 64
7, 41620, Note_off_c, 9, 37, 64
7, 41620, Note_off_c, 9, 42, 64
7, 41640, Note_on_c, 9, 42, 70
7, 41640, Note_on_c, 9, 37, 50
7, 41640, Note_on_c, 9, 54, 60
7, 41740, Note_off_c, 9, 54, 64
7, 41740, Note_off_c, 9, 37, 64
7, 41740, Note_off_c, 9, 42, 64
7, 41760, Note_on_c, 9, 35, 127
7, 41760, Note_on_c, 9, 38, 127
7, 41760, Note_on_c, 9, 42, 100
7, 41760, Note_on_c, 9, 37, 80
7, 41760, Note_on_c, 9, 54, 115
7, 41760, Note_on_c, 9, 39, 115
7, 41860, Note_off_c, 9, 39, 64
7, 41860, Note_off_c, 9, 54, 64
7, 41860, Note_off_c, 9, 37, 64
7, 41860, Note_off_c, 9, 42, 64
7, 41860, Note_off_c, 9, 38, 64
7, 41860, Note_off_c, 9, 35, 64
7, 41880, Note_on_c, 9, 35, 115
7, 41880, Note_on_c, 9, 42, 70
7, 41880, Note_on_c, 9, 37, 50
7, 41880, Note_on_c, 9, 54, 60
7, 41980, Note_off_c, 9, 54, 64
7, 41980, Note_off_c, 9, 37, 64
7, 41980, Note_off_c, 9, 42, 64
7, 41980, Note_off_c, 9, 35, 64
7, 42000, Note_on_c, 9, 35, 127
7, 42000, Note_on_c, 9, 42, 90
7, 42000, Note_on_c, 9, 37, 80
7, 42000, Note_on_c, 9, 54, 115
7, 42100, Note_off_c, 9, 54, 64
7, 42100, Note_off_c, 9, 37, 64
7, 42100, Note_off_c, 9, 42, 64
7, 42100, Note_off_c, 9, 35, 64
7, 42120, Note_on_c, 9, 35, 115
7, 42120, Note_on_c, 9, 42, 90
7, 42120, Note_on_c, 9, 37, 50
7, 42120, Note_on_c, 9, 54, 60
7, 42220, Note_off_c, 9, 54, 64
7, 42220, Note_off_c, 9, 37, 64
7, 42220, Note_off_c, 9, 42, 64
7, 42220, Note_off_c, 9, 35, 64
7, 42240, Note_on_c, 9, 35, 127
7, 42240, Note_on_c, 9, 38, 127
7, 42240, Note_on_c, 9, 42, 100
7, 42240, Note_on_c, 9, 37, 80
7, 42240, Note_on_c, 9, 56, 100
7, 42240, Note_on_c, 9, 54, 115
7, 42340, Note_off_c, 9, 54, 64
7, 42340, Note_off_c, 9, 56, 64
7, 42340, Note_off_c, 9, 37, 64
7, 42340, Note_off_c, 9, 42, 64
7, 42340, Note_off_c, 9, 38, 64
7, 42340, Note_off_c, 9, 35, 64
7, 42360, Note_on_c, 9, 38, 100
7, 42360, Note_on_c, 9, 42, 70
7, 42360, Note_on_c, 9, 37, 50
7, 42360, Note_on_c, 9, 54, 60
7, 42460, Note_off_c, 9, 54, 64
7, 42460, Note_off_c, 9, 37, 64
7, 42460, Note_off_c, 9, 42, 64
7, 42460, Note_off_c, 9, 38, 64
7, 42480, Note_on_c, 9, 38, 115
7, 42480, Note_on_c, 9, 42, 80
7, 42480, Note_on_c, 9, 37, 80
7, 42480, Note_on_c, 9, 56, 115
7, 42480, Note_on_c, 9, 54, 115
7, 42580, Note_off_c, 9, 54, 64
7, 42580, Note_off_c, 9, 56, 64
7, 42580, Note_off_c, 9, 37, 64
7, 42580, Note_off_c, 9, 42, 64
7, 42580, Note_off_c, 9, 38, 64
7, 42600, Note_on_c, 9, 38, 90
7, 42600, Note_on_c, 9, 42, 70
7, 42600, Note_on_c, 9, 37, 50
7, 42600, Note_on_c, 9, 54, 60
7, 42700, Note_off_c, 9, 54, 64
7, 42700, Note_off_c, 9, 37, 64
7, 42700, Note_off_c, 9, 42, 64
7, 42700, Note_off_c, 9, 38, 64
7, 42720, Note_on_c, 9, 35, 127
7, 42720, Note_on_c, 9, 38, 127
7, 42720, Note_on_c, 9, 42, 100
7, 42720, Note_on_c, 9, 37, 80
7, 42720, Note_on_c, 9, 54, 115
7, 42720, Note_on_c, 9, 39, 115
7, 42820, Note_off_c, 9, 39, 64
7, 42820, Note_off_c, 9, 54, 64
7, 42820, Note_off_c, 9, 37, 64
7, 42820, Note_off_c, 9, 42, 64
7, 42820, Note_off_c, 9, 38, 64
7, 42820, Note_off_c, 9, 35, 64
7, 42840, Note_on_c, 9, 38, 100
7, 42840, Note_on_c, 9, 42, 70
7, 42840, Note_on_c, 9, 37, 50
7, 42840, Note_on_c, 9, 54, 60
7, 42940, Note_off_c, 9, 54, 64
7, 42940, Note_off_c, 9, 37, 64
7, 42940, Note_off_c, 9, 42, 64
7, 42940, Note_off_c, 9, 38, 64
7, 42960, Note_on_c, 9, 38, 115
7, 42960, Note_on_c, 9, 42, 80
7, 42960, Note_on_c, 9, 37, 80
7, 42960, Note_on_c, 9, 56, 100
7, 42960, Note_on_c, 9, 54, 115
7, 43060, Note_off_c, 9, 54, 64
7, 43060, Note_off_c, 9, 56, 64
7, 43060, Note_off_c, 9, 37, 64
7, 43060, Note_off_c, 9, 42, 64
7, 43060, Note_off_c, 9, 38, 64
7, 43080, Note_on_c, 9, 35, 115
7, 43080, Note_on_c, 9, 38, 90
7, 43080, Note_on_c, 9, 42, 70
7, 43080, Note_on_c, 9, 37, 50
7, 43080, Note_on_c, 9, 56, 115
7, 43080, Note_on_c, 9, 54, 60
7, 43180, Note_off_c, 9, 54, 64
7, 43180, Note_off_c, 9, 56, 64
7, 43180, Note_off_c, 9, 37, 64
7, 43180, Note_off_c, 9, 42, 64
7, 43180, Note_off_c, 9, 38, 64
7, 43180, Note_off_c, 9, 35, 64
7, 43200, Note_on_c, 9, 35, 127
7, 43200, Note_on_c, 9, 38, 127
7, 43200, Note_on_c, 9, 42, 100
7, 43200, Note_on_c, 9, 37, 80
7, 43200, Note_on_c, 9, 56, 115
7, 43200, Note_on_c, 9, 54, 115
7, 43300, Note_off_c, 9, 54, 64
7, 43300, Note_off_c, 9, 56, 64
7, 43300, Note_off_c, 9, 37, 64
7, 43300, Note_off_c, 9, 42, 64
7, 43300, Note_off_c, 9, 38, 64
7, 43300, Note_off_c, 9, 35, 64
7, 43320, Note_on_c, 9, 38, 100
7, 43320, Note_on_c, 9, 42, 70
7, 43320, Note_on_c, 9, 37, 50
7, 43320, Note_on_c, 9, 54, 60
7, 43420, Note_off_c, 9, 54, 64
7, 43420, Note_off_c, 9, 37, 64
7, 43420, Note_off_c, 9, 42, 64
7, 43420, Note_off_c, 9, 38, 64
7, 43440, Note_on_c, 9, 38, 115
7, 43440, Note_on_c, 9, 42, 80
7, 43440, Note_on_c, 9, 37, 80
7, 43440, Note_on_c, 9, 56, 115
7, 43440, Note_on_c, 9, 54, 115
7, 43540, Note_off_c, 9, 54, 64
7, 43540, Note_off_c, 9, 56, 64
7, 43540, Note_off_c, 9, 37, 64
7, 43540, Note_off_c, 9, 42, 64
7, 43540, Note_off_c, 9, 38, 64
7, 43560, Note_on_c, 9, 38, 90
7, 43560, Note_on_c, 9, 42, 70
7, 43560, Note_on_c, 9, 37, 50
7, 43560, Note_on_c, 9, 54, 60
7, 43660, Note_off_c, 9, 54, 64
7, 43660, Note_off_c, 9, 37, 64
7, 43660, Note_off_c, 9, 42, 64
7, 43660, Note_off_c, 9, 38, 64
7, 43680, Note_on_c, 9, 35, 127
7, 43680, Note_on_c, 9, 38, 127
7, 43680, Note_on_c, 9, 42, 100
7, 43680, Note_on_c, 9, 37, 80
7, 43680, Note_on_c, 9, 54, 115
7, 43680, Note_on_c, 9, 39, 115
7, 43780, Note_off_c, 9, 39, 64
7, 43780, Note_off_c, 9, 54, 64
7, 43780, Note_off_c, 9, 37, 64
7, 43780, Note_off_c, 9, 42, 64
7, 43780, Note_off_c, 9, 38, 64
7, 43780, Note_off_c, 9, 35, 64
7, 43800, Note_on_c, 9, 35, 115
7, 43800, Note_on_c, 9, 38, 100
7, 43800, Note_on_c, 9, 42, 70
7, 43800, Note_on_c, 9, 37, 50
7, 43800, Note_on_c, 9, 54, 60
7, 43900, Note_off_c, 9, 54, 64
7, 43900, Note_off_c, 9, 37, 64
7, 43900, Note_off_c, 9, 42, 64
7, 43900, Note_off_c, 9, 38, 64
7, 43900, Note_off_c, 9, 35, 64
7, 43920, Note_on_c, 9, 35, 127
7, 43920, Note_on_c, 9, 38, 115
7, 43920, Note_on_c, 9, 42, 90
7, 43920, Note_on_c, 9, 37, 80
7, 43920, Note_on_c, 9, 54, 115
7, 44020, Note_off_c, 9, 54, 64
7, 44020, Note_off_c, 9, 37, 64
7, 44020, Note_off_c, 9, 42, 64
7, 44020, Note_off_c, 9, 38, 64
7, 44020, Note_off_c, 9, 35, 64
7, 44040, Note_on_c, 9, 35, 115
7, 44040, Note_on_c, 9, 38, 90
7, 44040, Note_on_c, 9, 42, 90
7, 44040, Note_on_c, 9, 37, 50
7, 44040, Note_on_c, 9, 54, 60
7, 44140, Note_off_c, 9, 54, 64
7, 44140, Note_off_c, 9, 37, 64
7, 44140, Note_off_c, 9, 42, 64
7, 44140, Note_off_c, 9, 38, 64
7, 44140, Note_off_c, 9, 35, 64
7, 44160, Note_on_c, 9, 35, 127
7, 44160, Note_on_c, 9, 42, 100
7, 44160, Note_on_c, 9, 37, 80
7, 44160, Note_on_c, 9, 56, 100
7, 44160, Note_on_c, 9, 49, 100
7, 44160, Note_on_c, 9, 54, 115
7, 44260, Note_off_c, 9, 54, 64
7, 44260, Note_off_c, 9, 49, 64
7, 44260, Note_off_c, 9, 56, 64
7, 44260, Note_off_c, 9, 37, 64
7, 44260, Note_off_c, 9, 42, 64
7, 44260, Note_off_c, 9, 35, 64
7, 44280, Note_on_c, 9, 42, 70
7, 44280, Note_on_c, 9, 37, 50
7, 44280, Note_on_c, 9, 54, 60
7, 44380, Note_off_c, 9, 54, 64
7, 44380, Note_off_c, 9, 37, 64
7, 44380, Note_off_c, 9, 42, 64
7, 44400, Note_on_c, 9, 42, 80
7, 44400, Note_on_c, 9, 37, 80
7, 44400, Note_on_c, 9, 56, 115
7, 44400, Note_on_c, 9, 54, 115
7, 44500, Note_off_c, 9, 54, 64
7, 44500, Note_off_c, 9, 56, 64
7, 44500, Note_off_c, 9, 37, 64
7, 44500, Note_off_c, 9, 42, 64
7, 44520, Note_on_c, 9, 42, 70
7, 44520, Note_on_c, 9, 37, 50
7, 44520, Note_on_c, 9, 54, 60
7, 44620, Note_off_c, 9, 54, 64
7, 44620, Note_off_c, 9, 37, 64
7, 44620, Note_off_c, 9, 42, 64
7, 44640, Note_on_c, 9, 35, 127
7, 44640, Note_on_c, 9, 38, 127
7, 44640, Note_on_c, 9, 42, 100
7, 44640, Note_on_c, 9, 37, 80
7, 44640, Note_on_c, 9, 54, 115
7, 44640, Note_on_c, 9, 39, 115
7, 44740, Note_off_c, 9, 39, 64
7, 44740, Note_off_c, 9, 54, 64
7, 44740, Note_off_c, 9, 37, 64
7, 44740, Note_off_c, 9, 42, 64
7, 44740, Note_off_c, 9, 38, 64
7, 44740, Note_off_c, 9, 35, 64
7, 44760, Note_on_c, 9, 42, 70
7, 44760, Note_on_c, 9, 37, 50
7, 44760, Note_on_c, 9, 54, 60
7, 44860, Note_off_c, 9, 54, 64
7, 44860, Note_off_c, 9, 37, 64
7, 44860, Note_off_c, 9, 42, 64
7, 44880, Note_on_c, 9, 42, 80
7, 44880, Note_on_c, 9, 37, 80
7, 44880, Note_on_c, 9, 56, 100
7, 44880, Note_on_c, 9, 54, 115
7, 44980, Note_off_c, 9, 54, 64
7, 44980, Note_off_c, 9, 56, 64
7, 44980, Note_off_c, 9, 37, 64
7, 44980, Note_off_c, 9, 42, 64
7, 45000, Note_on_c, 9, 35, 115
7, 45000, Note_on_c, 9, 42, 70
7, 45000, Note_on_c, 9, 37, 50
7, 45000, Note_on_c, 9, 56, 115
7, 45000, Note_on_c, 9, 54, 60
7, 45100, Note_off_c, 9, 54, 64
7, 45100, Note_off_c, 9, 56, 64
7, 45100, Note_off_c, 9, 37, 64
7, 45100, Note_off_c, 9, 42, 64
7, 45100, Note_off_c, 9, 35, 64
7, 45120, Note_on_c, 9, 35, 127
7, 45120, Note_on_c, 9, 42, 100
7, 45120, Note_on_c, 9, 37, 80
7, 45120, Note_on_c, 9, 56, 115
7, 45120, Note_on_c, 9, 54, 115
7, 45220, Note_off_c, 9, 54, 64
7, 45220, Note_off_c, 9, 56, 64
7, 45220, Note_off_c, 9, 37, 64
7, 45220, Note_off_c, 9, 42, 64
7, 45220, Note_off_c, 9, 35, 64
7, 45240, Note_on_c, 9, 42, 70
7, 45240, Note_on_c, 9, 37, 50
7, 45240, Note_on_c, 9, 54, 60
7, 45340, Note_off_c, 9, 54, 64
7, 45340, Note_off_c, 9, 37, 64
7, 45340, Note_off_c, 9, 42, 64
7, 45360, Note_on_c, 9, 42, 80
7, 45360, Note_on_c, 9, 37, 80
7, 45360, Note_on_c, 9, 56, 115
7, 45360, Note_on_c, 9, 54, 115
7, 45460, Note_off_c, 9, 54, 64
7, 45460, Note_off_c, 9, 56, 64
7, 45460, Note_off_c, 9, 37, 64
7, 45460, Note_off_c, 9, 42, 64
7, 45480, Note_on_c, 9, 42, 70
7, 45480, Note_on_c, 9, 37, 50
7, 45480, Note_on_c, 9, 54, 60
7, 45580, Note_off_c, 9, 54, 64
7, 45580, Note_off_c, 9, 37, 64
7, 45580, Note_off_c, 9, 42, 64
7, 45600, Note_on_c, 9, 35, 127
7, 45600, Note_on_c, 9, 38, 127
7, 45600, Note_on_c, 9, 42, 100
7, 45600, Note_on_c, 9, 37, 80
7, 45600, Note_on_c, 9, 54, 115
7, 45600, Note_on_c, 9, 39, 115
7, 45700, Note_off_c, 9, 39, 64
7, 45700, Note_off_c, 9, 54, 64
7, 45700, Note_off_c, 9, 37, 64
7, 45700, Note_off_c, 9, 42, 64
7, 45700, Note_off_c, 9, 38, 64
7, 45700, Note_off_c, 9, 35, 64
7, 45720, Note_on_c, 9, 35, 115
7, 45720, Note_on_c, 9, 42, 70
7, 45720, Note_on_c, 9, 37, 50
7, 45720, Note_on_c, 9, 54, 60
7, 45820, Note_off_c, 9, 54, 64
7, 45820, Note_off_c, 9, 37, 64
7, 45820, Note_off_c, 9, 42, 64
7, 45820, Note_off_c, 9, 35, 64
7, 45840, Note_on_c, 9, 35, 127
7, 45840, Note_on_c, 9, 42, 90
7, 45840, Note_on_c, 9, 37, 80
7, 45840, Note_on_c, 9, 54, 115
7, 45940, Note_off_c, 9, 54, 64
7, 45940, Note_off_c, 9, 37, 64
7, 45940, Note_off_c, 9, 42, 64
7, 45940, Note_off_c, 9, 35, 64
7, 45960, Note_on_c, 9, 35, 115
7, 45960, Note_on_c, 9, 42, 90
7, 45960, Note_on_c, 9, 37, 50
7, 45960, Note_on_c, 9, 54, 60
7, 46060, Note_off_c, 9, 54, 64
7, 46060, Note_off_c, 9, 37, 64
7, 46060, Note_off_c, 9, 42, 64
7, 46060, Note_off_c, 9, 35, 64
7, 46080, Note_on_c, 9, 35, 127
7, 46080, Note_on_c, 9, 42, 100
7, 46080, Note_on_c, 9, 37, 80
7, 46080, Note_on_c, 9, 56, 100
7, 46080, Note_on_c, 9, 54, 115
7, 46180, Note_off_c, 9, 54, 64
7, 46180, Note_off_c, 9, 56, 64
7, 46180, Note_off_c, 9, 37, 64
7, 46180, Note_off_c, 9, 42, 64
7, 46180, Note_off_c, 9, 35, 64
7, 46200, Note_on_c, 9, 42, 70
7, 46200, Note_on_c, 9, 37, 50
7, 46200, Note_on_c, 9, 54, 60
7, 46300, Note_off_c, 9, 54, 64
7, 46300, Note_off_c, 9, 37, 64
7, 46300, Note_off_c, 9, 42, 64
7, 46320, Note_on_c, 9, 42, 80
7, 46320, Note_on_c, 9, 37, 80
7, 46320, Note_on_c, 9, 56, 115
7, 46320, Note_on_c, 9, 54, 115
7, 46420, Note_off_c, 9, 54, 64
7, 46420, Note_off_c, 9, 56, 64
7, 46420, Note_off_c, 9, 37, 64
7, 46420, Note_off_c, 9, 42, 64
7, 46440, Note_on_c, 9, 42, 70
7, 46440, Note_on_c, 9, 37, 50
7, 46440, Note_on_c, 9, 54, 60
7, 46540, Note_off_c, 9, 54, 64
7, 46540, Note_off_c, 9, 37, 64
7, 46540, Note_off_c, 9, 42, 64
7, 46560, Note_on_c, 9, 35, 127
7, 46560, Note_on_c, 9, 38, 127
7, 46560, Note_on_c, 9, 42, 100
7, 46560, Note_on_c, 9, 37, 80
7, 46560, Note_on_c, 9, 54, 115
7, 46560, Note_on_c, 9, 39, 115
7, 46660, Note_off_c, 9, 39, 64
7, 46660, Note_off_c, 9, 54, 64
7, 46660, Note_off_c, 9, 37, 64
7, 46660, Note_off_c, 9, 42, 64
7, 46660, Note_off_c, 9, 38, 64
7, 46660, Note_off_c, 9, 35, 64
7, 46680, Note_on_c, 9, 42, 70
7, 46680, Note_on_c, 9, 37, 50
7, 46680, Note_on_c, 9, 54, 60
7, 46780, Note_off_c, 9, 54, 64
7, 46780, Note_off_c, 9, 37, 64
7, 46780, Note_off_c, 9, 42, 64
7, 46800, Note_on_c, 9, 42, 80
7, 46800, Note_on_c, 9, 37, 80
7, 46800, Note_on_c, 9, 56, 100
7, 46800, Note_on_c, 9, 54, 115
7, 46900, Note_off_c, 9, 54, 64
7, 46900, Note_off_c, 9, 56, 64
7, 46900, Note_off_c, 9, 37, 64
7, 46900, Note_off_c, 9, 42, 64
7, 46920, Note_on_c, 9, 35, 115
7, 46920, Note_on_c, 9, 42, 70
7, 46920, Note_on_c, 9, 37, 50
7, 46920, Note_on_c, 9, 56, 115
7, 46920, Note_on_c, 9, 54, 60
7, 47020, Note_off_c, 9, 54, 64
7, 47020, Note_off_c, 9, 56, 64
7, 47020, Note_off_c, 9, 37, 64
7, 47020, Note_off_c, 9, 42, 64
7, 47020, Note_off_c, 9, 35, 64
7, 47040, Note_on_c, 9, 35, 127
7, 47040, Note_on_c, 9, 42, 100
7, 47040, Note_on_c, 9, 37, 80
7, 47040, Note_on_c, 9, 56, 115
7, 47040, Note_on_c, 9, 54, 115
7, 47140, Note_off_c, 9, 54, 64
7, 47140, Note_off_c, 9, 56, 64
7, 47140, Note_off_c, 9, 37, 64
7, 47140, Note_off_c, 9, 42, 64
7, 47140, Note_off_c, 9, 35, 64
7, 47160, Note_on_c, 9, 42, 70
7, 47160, Note_on_c, 9, 37, 50
7, 47160, Note_on_c, 9, 54, 60
7, 47260, Note_off_c, 9, 54, 64
7, 47260, Note_off_c, 9, 37, 64
7, 47260, Note_off_c, 9, 42, 64
7, 47280, Note_on_c, 9, 42, 80
7, 47280, Note_on_c, 9, 37, 80
7, 47280, Note_on_c, 9, 56, 115
7, 47280, Note_on_c, 9, 54, 115
7, 47380, Note_off_c, 9, 54, 64
7, 47380, Note_off_c, 9, 56, 64
7, 47380, Note_off_c, 9, 37, 64
7, 47380, Note_off_c, 9, 42, 64
7, 47400, Note_on_c, 9, 42, 70
7, 47400, Note_on_c, 9, 37, 50
7, 47400, Note_on_c, 9, 54, 60
7, 47500, Note_off_c, 9, 54, 64
7, 47500, Note_off_c, 9, 37, 64
7, 47500, Note_off_c, 9, 42, 64
7, 47520, Note_on_c, 9, 35, 127
7, 47520, Note_on_c, 9, 38, 127
7, 47520, Note_on_c, 9, 42, 100
7, 47520, Note_on_c, 9, 37, 80
7, 47520, Note_on_c, 9, 54, 115
7, 47520, Note_on_c, 9, 39, 115
7, 47620, Note_off_c, 9, 39, 64
7, 47620, Note_off_c, 9, 54, 64
7, 47620, Note_off_c, 9, 37, 64
7, 47620, Note_off_c, 9, 42, 64
7, 47620, Note_off_c, 9, 38, 64
7, 47620, Note_off_c, 9, 35, 64
7, 47640, Note_on_c, 9, 35, 115
7, 47640, Note_on_c, 9, 42, 70
7, 47640, Note_on_c, 9, 37, 50
7, 47640, Note_on_c, 9, 54, 60
7, 47740, Note_off_c, 9, 54, 64
7, 47740, Note_off_c, 9, 37, 64
7, 47740, Note_off_c, 9, 42, 64
7, 47740, Note_off_c, 9, 35, 64
7, 47760, Note_on_c, 9, 35, 127
7, 47760, Note_on_c, 9, 42, 90
7, 47760, Note_on_c, 9, 37, 80
7, 47760, Note_on_c, 9, 54, 115
7, 47860, Note_off_c, 9, 54, 64
7, 47860, Note_off_c, 9, 37, 64
7, 47860, Note_off_c, 9, 42, 64
7, 47860, Note_off_c, 9, 35, 64
7, 47880, Note_on_c, 9, 35, 115
7, 47880, Note_on_c, 9, 42, 90
7, 47880, Note_on_c, 9, 37, 50
7, 47880, Note_on_c, 9, 54, 60
7, 47980, Note_off_c, 9, 54, 64
7, 47980, Note_off_c, 9, 37, 64
7, 47980, Note_off_c, 9, 42, 64
7, 47980, Note_off_c, 9, 35, 64
7, 48000, Note_on_c, 9, 35, 127
7, 48000, Note_on_c, 9, 42, 100
7, 48000, Note_on_c, 9, 37, 80
7, 48000, Note_on_c, 9, 56, 100
7, 48000, Note_on_c, 9, 54, 115
7, 48100, Note_off_c, 9, 54, 64
7, 48100, Note_off_c, 9, 56, 64
7, 48100, Note_off_c, 9, 37, 64
7, 48100, Note_off_c, 9, 42, 64
7, 48100, Note_off_c, 9, 35, 64
7, 48120, Note_on_c, 9, 42, 70
7, 48120, Note_on_c, 9, 37, 50
7, 48120, Note_on_c, 9, 54, 60
7, 48220, Note_off_c, 9, 54, 64
7, 48220, Note_off_c, 9, 37, 64
7, 48220, Note_off_c, 9, 42, 64
7, 48240, Note_on_c, 9, 42, 80
7, 48240, Note_on_c, 9, 37, 80
7, 48240, Note_on_c, 9, 56, 115
7, 48240, Note_on_c, 9, 54, 115
7, 48340, Note_off_c, 9, 54, 64
7, 48340, Note_off_c, 9, 56, 64
7, 48340, Note_off_c, 9, 37, 64
7, 48340, Note_off_c, 9, 42, 64
7, 48360, Note_on_c, 9, 42, 70
7, 48360, Note_on_c, 9, 37, 50
7, 48360, Note_on_c, 9, 54, 60
7, 48460, Note_off_c, 9, 54, 64
7, 48460, Note_off_c, 9, 37, 64
7, 48460, Note_off_c, 9, 42, 64
7, 48480, Note_on_c, 9, 35, 127
7, 48480, Note_on_c, 9, 38, 127
7, 48480, Note_on_c, 9, 42, 100
7, 48480, Note_on_c, 9, 37, 80
7, 48480, Note_on_c, 9, 54, 115
7, 48480, Note_on_c, 9, 39, 115
7, 48580, Note_off_c, 9, 39, 64
7, 48580, Note_off_c, 9, 54, 64
7, 48580, Note_off_c, 9, 37, 64
7, 48580, Note_off_c, 9, 42, 64
7, 48580, Note_off_c, 9, 38, 64
7, 48580, Note_off_c, 9, 35, 64
7, 48600, Note_on_c, 9, 42, 70
7, 48600, Note_on_c, 9, 37, 50
7, 48600, Note_on_c, 9, 54, 60
7, 48700, Note_off_c, 9, 54, 64
7, 48700, Note_off_c, 9, 37, 64
7, 48700, Note_off_c, 9, 42, 64
7, 48720, Note_on_c, 9, 42, 80
7, 48720, Note_on_c, 9, 37, 80
7, 48720, Note_on_c, 9, 56, 100
7, 48720, Note_on_c, 9, 54, 115
7, 48820, Note_off_c, 9, 54, 64
7, 48820, Note_off_c, 9, 56, 64
7, 48820, Note_off_c, 9, 37, 64
7, 48820, Note_off_c, 9, 42, 64
7, 48840, Note_on_c, 9, 35, 115
7, 48840, Note_on_c, 9, 42, 70
7, 48840, Note_on_c, 9, 37, 50
7, 48840, Note_on_c, 9, 56, 115
7, 48840, Note_on_c, 9, 54, 60
7, 48940, Note_off_c, 9, 54, 64
7, 48940, Note_off_c, 9, 56, 64
7, 48940, Note_off_c, 9, 37, 64
7, 48940, Note_off_c, 9, 42, 64
7, 48940, Note_off_c, 9, 35, 64
7, 48960, Note_on_c, 9, 35, 127
7, 48960, Note_on_c, 9, 42, 100
7, 48960, Note_on_c, 9, 37, 80
7, 48960, Note_on_c, 9, 56, 115
7, 48960, Note_on_c, 9, 54, 115
7, 49060, Note_off_c, 9, 54, 64
7, 49060, Note_off_c, 9, 56, 64
7, 49060, Note_off_c, 9, 37, 64
7, 49060, Note_off_c, 9, 42, 64
7, 49060, Note_off_c, 9, 35, 64
7, 49080, Note_on_c, 9, 42, 70
7, 49080, Note_on_c, 9, 37, 50
7, 49080, Note_on_c, 9, 54, 60
7, 49180, Note_off_c, 9, 54, 64
7, 49180, Note_off_c, 9, 37, 64
7, 49180, Note_off_c, 9, 42, 64
7, 49200, Note_on_c, 9, 42, 80
7, 49200, Note_on_c, 9, 37, 80
7, 49200, Note_on_c, 9, 56, 115
7, 49200, Note_on_c, 9, 54, 115
7, 49300, Note_off_c, 9, 54, 64
7, 49300, Note_off_c, 9, 56, 64
7, 49300, Note_off_c, 9, 37, 64
7, 49300, Note_off_c, 9, 42, 64
7, 49320, Note_on_c, 9, 42, 70
7, 49320, Note_on_c, 9, 37, 50
7, 49320, Note_on_c, 9, 54, 60
7, 49420, Note_off_c, 9, 54, 64
7, 49420, Note_off_c, 9, 37, 64
7, 49420, Note_off_c, 9, 42, 64
7, 49440, Note_on_c, 9, 35, 127
7, 49440, Note_on_c, 9, 38, 127
7, 49440, Note_on_c, 9, 42, 100
7, 49440, Note_on_c, 9, 37, 80
7, 49440, Note_on_c, 9, 54, 115
7, 49440, Note_on_c, 9, 39, 115
7, 49540, Note_off_c, 9, 39, 64
7, 49540, Note_off_c, 9, 54, 64
7, 49540, Note_off_c, 9, 37, 64
7, 49540, Note_off_c, 9, 42, 64
7, 49540, Note_off_c, 9, 38, 64
7, 49540, Note_off_c, 9, 35, 64
7, 49560, Note_on_c, 9, 35, 115
7, 49560, Note_on_c, 9, 42, 70
7, 49560, Note_on_c, 9, 37, 50
7, 49560, Note_on_c, 9, 54, 60
7, 49660, Note_off_c, 9, 54, 64
7, 49660, Note_off_c, 9, 37, 64
7, 49660, Note_off_c, 9, 42, 64
7, 49660, Note_off_c, 9, 35, 64
7, 49680, Note_on_c, 9, 35, 127
7, 49680, Note_on_c, 9, 42, 90
7, 49680, Note_on_c, 9, 37, 80
7, 49680, Note_on_c, 9, 54, 115
7, 49780, Note_off_c, 9, 54, 64
7, 49780, Note_off_c, 9, 37, 64
7, 49780, Note_off_c, 9, 42, 64
7, 49780, Note_off_c, 9, 35, 64
7, 49800, Note_on_c, 9, 35, 115
7, 49800, Note_on_c, 9, 42, 90
7, 49800, Note_on_c, 9, 37, 50
7, 49800, Note_on_c, 9, 54, 60
7, 49900, Note_off_c, 9, 54, 64
7, 49900, Note_off_c, 9, 37, 64
7, 49900, Note_off_c, 9, 42, 64
7, 49900, Note_off_c, 9, 35, 64
7, 49920, Note_on_c, 9, 35, 127
7, 49920, Note_on_c, 9, 42, 100
7, 49920, Note_on_c, 9, 37, 80
7, 49920, Note_on_c, 9, 56, 100
7, 49920, Note_on_c, 9, 54, 115
7, 50020, Note_off_c, 9, 54, 64
7, 50020, Note_off_c, 9, 56, 64
7, 50020, Note_off_c, 9, 37, 64
7, 50020, Note_off_c, 9, 42, 64
7, 50020, Note_off_c, 9, 35, 64
7, 50040, Note_on_c, 9, 42, 70
7, 50040, Note_on_c, 9, 37, 50
7, 50040, Note_on_c, 9, 54, 60
7, 50140, Note_off_c, 9, 54, 64
7, 50140, Note_off_c, 9, 37, 64
7, 50140, Note_off_c, 9, 42, 64
7, 50160, Note_on_c, 9, 42, 80
7, 50160, Note_on_c, 9, 37, 80
7, 50160, Note_on_c, 9, 56, 115
7, 50160, Note_on_c, 9, 54, 115
7, 50260, Note_off_c, 9, 54, 64
7, 50260, Note_off_c, 9, 56, 64
7, 50260, Note_off_c, 9, 37, 64
7, 50260, Note_off_c, 9, 42, 64
7, 50280, Note_on_c, 9, 42, 70
7, 50280, Note_on_c, 9, 37, 50
7, 50280, Note_on_c, 9, 54, 60
7, 50380, Note_off_c, 9, 54, 64
7, 50380, Note_off_c, 9, 37, 64
7, 50380, Note_off_c, 9, 42, 64
7, 50400, Note_on_c, 9, 35, 127
7, 50400, Note_on_c, 9, 38, 127
7, 50400, Note_on_c, 9, 42, 100
7, 50400, Note_on_c, 9, 37, 80
7, 50400, Note_on_c, 9, 54, 115
7, 50400, Note_on_c, 9, 39, 115
7, 50500, Note_off_c, 9, 39, 64
7, 50500, Note_off_c, 9, 54, 64
7, 50500, Note_off_c, 9, 37, 64
7, 50500, Note_off_c, 9, 42, 64
7, 50500, Note_off_c, 9, 38, 64
7, 50500, Note_off_c, 9, 35, 64
7, 50520, Note_on_c, 9, 42, 70
7, 50520, Note_on_c, 9, 37, 50
7, 50520, Note_on_c, 9, 54, 60
7, 50620, Note_off_c, 9, 54, 64
7, 50620, Note_off_c, 9, 37, 64
7, 50620, Note_off_c, 9, 42, 64
7, 50640, Note_on_c, 9, 42, 80
7, 50640, Note_on_c, 9, 37, 80
7, 50640, Note_on_c, 9, 56, 100
7, 50640, Note_on_c, 9, 54, 115
7, 50740, Note_off_c, 9, 54, 64
7, 50740, Note_off_c, 9, 56, 64
7, 50740, Note_off_c, 9, 37, 64
7, 50740, Note_off_c, 9, 42, 64
7, 50760, Note_on_c, 9, 35, 115
7, 50760, Note_on_c, 9, 42, 70
7, 50760, Note_on_c, 9, 37, 50
7, 50760, Note_on_c, 9, 56, 115
7, 50760, Note_on_c, 9, 54, 60
7, 50860, Note_off_c, 9, 54, 64
7, 50860, Note_off_c, 9, 56, 64
7, 50860, Note_off_c, 9, 37, 64
7, 50860, Note_off_c, 9, 42, 64
7, 50860, Note_off_c, 9, 35, 64
7, 50880, Note_on_c, 9, 35, 127
7, 50880, Note_on_c, 9, 42, 100
7, 50880, Note_on_c, 9, 37, 80
7, 50880, Note_on_c, 9, 56, 115
7, 50880, Note_on_c, 9, 54, 115
7, 50980, Note_off_c, 9, 54, 64
7, 50980, Note_off_c, 9, 56, 64
7, 50980, Note_off_c, 9, 37, 64
7, 50980, Note_off_c, 9, 42, 64
7, 50980, Note_off_c, 9, 35, 64
7, 51000, Note_on_c, 9, 42, 70
7, 51000, Note_on_c, 9, 37, 50
7, 51000, Note_on_c, 9, 54, 60
7, 51100, Note_off_c, 9, 54, 64
7, 51100, Note_off_c, 9, 37, 64
7, 51100, Note_off_c, 9, 42, 64
7, 51120, Note_on_c, 9, 42, 80
7, 51120, Note_on_c, 9, 37, 80
7, 51120, Note_on_c, 9, 56, 115
7, 51120, Note_on_c, 9, 54, 115
7, 51220, Note_off_c, 9, 54, 64
7, 51220, Note_off_c, 9, 56, 64
7, 51220, Note_off_c, 9, 37, 64
7, 51220, Note_off_c, 9, 42, 64
7, 51240, Note_on_c, 9, 42, 70
7, 51240, Note_on_c, 9, 37, 50
7, 51240, Note_on_c, 9, 54, 60
7, 51340, Note_off_c, 9, 54, 64
7, 51340, Note_off_c, 9, 37, 64
7, 51340, Note_off_c, 9, 42, 64
7, 51360, Note_on_c, 9, 35, 127
7, 51360, Note_on_c, 9, 38, 127
7, 51360, Note_on_c, 9, 42, 100
7, 51360, Note_on_c, 9, 37, 80
7, 51360, Note_on_c, 9, 54, 115
7, 51360, Note_on_c, 9, 39, 115
7, 51460, Note_off_c, 9, 39, 64
7, 51460, Note_off_c, 9, 54, 64
7, 51460, Note_off_c, 9, 37, 64
7, 51460, Note_off_c, 9, 42, 64
7, 51460, Note_off_c, 9, 38, 64
7, 51460, Note_off_c, 9, 35, 64
7, 51480, Note_on_c, 9, 35, 115
7, 51480, Note_on_c, 9, 42, 70
7, 51480, Note_on_c, 9, 37, 50
7, 51480, Note_on_c, 9, 54, 60
7, 51580, Note_off_c, 9, 54, 64
7, 51580, Note_off_c, 9, 37, 64
7, 51580, Note_off_c, 9, 42, 64
7, 51580, Note_off_c, 9, 35, 64
7, 51600, Note_on_c, 9, 35, 127
7, 51600, Note_on_c, 9, 42, 90
7, 51600, Note_on_c, 9, 37, 80
7, 51600, Note_on_c, 9, 54, 115
7, 51700, Note_off_c, 9, 54, 64
7, 51700, Note_off_c, 9, 37, 64
7, 51700, Note_off_c, 9, 42, 64
7, 51700, Note_off_c, 9, 35, 64
7, 51720, Note_on_c, 9, 35, 115
7, 51720, Note_on_c, 9, 42, 90
7, 51720, Note_on_c, 9, 37, 50
7, 51720, Note_on_c, 9, 54, 60
7, 51820, Note_off_c, 9, 54, 64
7, 51820, Note_off_c, 9, 37, 64
7, 51820, Note_off_c, 9, 42, 64
7, 51820, Note_off_c, 9, 35, 64
7, 51840, Note_on_c, 9, 35, 127
7, 51840, Note_on_c, 9, 42, 100
7, 51840, Note_on_c, 9, 37, 80
7, 51840, Note_on_c, 9, 56, 100
7, 51840, Note_on_c, 9, 54, 115
7, 51940, Note_off_c, 9, 54, 64
7, 51940, Note_off_c, 9, 56, 64
7, 51940, Note_off_c, 9, 37, 64
7, 51940, Note_off_c, 9, 42, 64
7, 51940, Note_off_c, 9, 35, 64
7, 51960, Note_on_c, 9, 42, 70
7, 51960, Note_on_c, 9, 37, 50
7, 51960, Note_on_c, 9, 54, 60
7, 52060, Note_off_c, 9, 54, 64
7, 52060, Note_off_c, 9, 37, 64
7, 52060, Note_off_c, 9, 42, 64
7, 52080, Note_on_c, 9, 42, 80
7, 52080, Note_on_c, 9, 37, 80
7, 52080, Note_on_c, 9, 56, 115
7, 52080, Note_on_c, 9, 54, 115
7, 52180, Note_off_c, 9, 54, 64
7, 52180, Note_off_c, 9, 56, 64
7, 52180, Note_off_c, 9, 37, 64
7, 52180, Note_off_c, 9, 42, 64
7, 52200, Note_on_c, 9, 42, 70
7, 52200, Note_on_c, 9, 37, 50
7, 52200, Note_on_c, 9, 54, 60
7, 52300, Note_off_c, 9, 54, 64
7, 52300, Note_off_c, 9, 37, 64
7, 52300, Note_off_c, 9, 42, 64
7, 52320, Note_on_c, 9, 35, 127
7, 52320, Note_on_c, 9, 38, 127
7, 52320, Note_on_c, 9, 42, 100
7, 52320, Note_on_c, 9, 37, 80
7, 52320, Note_on_c, 9, 54, 115
7, 52320, Note_on_c, 9, 39, 115
7, 52420, Note_off_c, 9, 39, 64
7, 52420, Note_off_c, 9, 54, 64
7, 52420, Note_off_c, 9, 37, 64
7, 52420, Note_off_c, 9, 42, 64
7, 52420, Note_off_c, 9, 38, 64
7, 52420, Note_off_c, 9, 35, 64
7, 52440, Note_on_c, 9, 42, 70
7, 52440, Note_on_c, 9, 37, 50
7, 52440, Note_on_c, 9, 54, 60
7, 52540, Note_off_c, 9, 54, 64
7, 52540, Note_off_c, 9, 37, 64
7, 52540, Note_off_c, 9, 42, 64
7, 52560, Note_on_c, 9, 42, 80
7, 52560, Note_on_c, 9, 37, 80
7, 52560, Note_on_c, 9, 56, 100
7, 52560, Note_on_c, 9, 54, 115
7, 52660, Note_off_c, 9, 54, 64
7, 52660, Note_off_c, 9, 56, 64
7, 52660, Note_off_c, 9, 37, 64
7, 52660, Note_off_c, 9, 42, 64
7, 52680, Note_on_c, 9, 35, 115
7, 52680, Note_on_c, 9, 42, 70
7, 52680, Note_on_c, 9, 37, 50
7, 52680, Note_on_c, 9, 56, 115
7, 52680, Note_on_c, 9, 54, 60
7, 52780, Note_off_c, 9, 54, 64
7, 52780, Note_off_c, 9, 56, 64
7, 52780, Note_off_c, 9, 37, 64
7, 52780, Note_off_c, 9, 42, 64
7, 52780, Note_off_c, 9, 35, 64
7, 52800, Note_on_c, 9, 35, 127
7, 52800, Note_on_c, 9, 42, 100
7, 52800, Note_on_c, 9, 37, 80
7, 52800, Note_on_c, 9, 56, 115
7, 52800, Note_on_c, 9, 54, 115
7, 52900, Note_off_c, 9, 54, 64
7, 52900, Note_off_c, 9, 56, 64
7, 52900, Note_off_c, 9, 37, 64
7, 52900, Note_off_c, 9, 42, 64
7, 52900, Note_off_c, 9, 35, 64
7, 52920, Note_on_c, 9, 42, 70
7, 52920, Note_on_c, 9, 37, 50
7, 52920, Note_on_c, 9, 54, 60
7, 53020, Note_off_c, 9, 54, 64
7, 53020, Note_off_c, 9, 37, 64
7, 53020, Note_off_c, 9, 42, 64
7, 53040, Note_on_c, 9, 42, 80
7, 53040, Note_on_c, 9, 37, 80
7, 53040, Note_on_c, 9, 56, 115
7, 53040, Note_on_c, 9, 54, 115
7, 53140, Note_off_c, 9, 54, 64
7, 53140, Note_off_c, 9, 56, 64
7, 53140, Note_off_c, 9, 37, 64
7, 53140, Note_off_c, 9, 42, 64
7, 53160, Note_on_c, 9, 42, 70
7, 53160, Note_on_c, 9, 37, 50
7, 53160, Note_on_c, 9, 54, 60
7, 53260, Note_off_c, 9, 54, 64
7, 53260, Note_off_c, 9, 37, 64
7, 53260, Note_off_c, 9, 42, 64
7, 53280, Note_on_c, 9, 35, 127
7, 53280, Note_on_c, 9, 38, 127
7, 53280, Note_on_c, 9, 42, 100
7, 53280, Note_on_c, 9, 37, 80
7, 53280, Note_on_c, 9, 54, 115
7, 53280, Note_on_c, 9, 39, 115
7, 53380, Note_off_c, 9, 39, 64
7, 53380, Note_off_c, 9, 54, 64
7, 53380, Note_off_c, 9, 37, 64
7, 53380, Note_off_c, 9, 42, 64
7, 53380, Note_off_c, 9, 38, 64
7, 53380, Note_off_c, 9, 35, 64
7, 53400, Note_on_c, 9, 35, 115
7, 53400, Note_on_c, 9, 42, 70
7, 53400, Note_on_c, 9, 37, 50
7, 53400, Note_on_c, 9, 54, 60
7, 53500, Note_off_c, 9, 54, 64
7, 53500, Note_off_c, 9, 37, 64
7, 53500, Note_off_c, 9, 42, 64
7, 53500, Note_off_c, 9, 35, 64
7, 53520, Note_on_c, 9, 35, 127
7, 53520, Note_on_c, 9, 42, 90
7, 53520, Note_on_c, 9, 37, 80
7, 53520, Note_on_c, 9, 54, 115
7, 53620, Note_off_c, 9, 54, 64
7, 53620, Note_off_c, 9, 37, 64
7, 53620, Note_off_c, 9, 42, 64
7, 53620, Note_off_c, 9, 35, 64
7, 53640, Note_on_c, 9, 35, 115
7, 53640, Note_on_c, 9, 42, 90
7, 53640, Note_on_c, 9, 37, 50
7, 53640, Note_on_c, 9, 54, 60
7, 53740, Note_off_c, 9, 54, 64
7, 53740, Note_off_c, 9, 37, 64
7, 53740, Note_off_c, 9, 42, 64
7, 53740, Note_off_c, 9, 35, 64
7, 53760, Note_on_c, 9, 35, 127
7, 53760, Note_on_c, 9, 38, 127
7, 53760, Note_on_c, 9, 42, 100
7, 53760, Note_on_c, 9, 37, 80
7, 53760, Note_on_c, 9, 56, 100
7, 53760, Note_on_c, 9, 54, 115
7, 53860, Note_off_c, 9, 54, 64
7, 53860, Note_off_c, 9, 56, 64
7, 53860, Note_off_c, 9, 37, 64
7, 53860, Note_off_c, 9, 42, 64
7, 53860, Note_off_c, 9, 38, 64
7, 53860, Note_off_c, 9, 35, 64
7, 53880, Note_on_c, 9, 38, 100
7, 53880, Note_on_c, 9, 42, 70
7, 53880, Note_on_c, 9, 37, 50
7, 53880, Note_on_c, 9, 54, 60
7, 53980, Note_off_c, 9, 54, 64
7, 53980, Note_off_c, 9, 37, 64
7, 53980, Note_off_c, 9, 42, 64
7, 53980, Note_off_c, 9, 38, 64
7, 54000, Note_on_c, 9, 38, 115
7, 54000, Note_on_c, 9, 42, 80
7, 54000, Note_on_c, 9, 37, 80
7, 54000, Note_on_c, 9, 56, 115
7, 54000, Note_on_c, 9, 54, 115
7, 54100, Note_off_c, 9, 54, 64
7, 54100, Note_off_c, 9, 56, 64
7, 54100, Note_off_c, 9, 37, 64
7, 54100, Note_off_c, 9, 42, 64
7, 54100, Note_off_c, 9, 38, 64
7, 54120, Note_on_c, 9, 38, 90
7, 54120, Note_on_c, 9, 42, 70
7, 54120, Note_on_c, 9, 37, 50
7, 54120, Note_on_c, 9, 54, 60
7, 54220, Note_off_c, 9, 54, 64
7, 54220, Note_off_c, 9, 37, 64
7, 54220, Note_off_c, 9, 42, 64
7, 54220, Note_off_c, 9, 38, 64
7, 54240, Note_on_c, 9, 35, 127
7, 54240, Note_on_c, 9, 38, 127
7, 54240, Note_on_c, 9, 42, 100
7, 54240, Note_on_c, 9, 37, 80
7, 54240, Note_on_c, 9, 54, 115
7, 54240, Note_on_c, 9, 39, 115
7, 54340, Note_off_c, 9, 39, 64
7, 54340, Note_off_c, 9, 54, 64
7, 54340, Note_off_c, 9, 37, 64
7, 54340, Note_off_c, 9, 42, 64
7, 54340, Note_off_c, 9, 38, 64
7, 54340, Note_off_c, 9, 35, 64
7, 54360, Note_on_c, 9, 38, 100
7, 54360, Note_on_c, 9, 42, 70
7, 54360, Note_on_c, 9, 37, 50
7, 54360, Note_on_c, 9, 54, 60
7, 54460, Note_off_c, 9, 54, 64
7, 54460, Note_off_c, 9, 37, 64
7, 54460, Note_off_c, 9, 42, 64
7, 54460, Note_off_c, 9, 38, 64
7, 54480, Note_on_c, 9, 38, 115
7, 54480, Note_on_c, 9, 42, 80
7, 54480, Note_on_c, 9, 37, 80
7, 54480, Note_on_c, 9, 56, 100
7, 54480, Note_on_c, 9, 54, 115
7, 54580, Note_off_c, 9, 54, 64
7, 54580, Note_off_c, 9, 56, 64
7, 54580, Note_off_c, 9, 37, 64
7, 54580, Note_off_c, 9, 42, 64
7, 54580, Note_off_c, 9, 38, 64
7, 54600, Note_on_c, 9, 35, 115
7, 54600, Note_on_c, 9, 38, 90
7, 54600, Note_on_c, 9, 42, 70
7, 54600, Note_on_c, 9, 37, 50
7, 54600, Note_on_c, 9, 56, 115
7, 54600, Note_on_c, 9, 54, 60
7, 54700, Note_off_c, 9, 54, 64
7, 54700, Note_off_c, 9, 56, 64
7, 54700, Note_off_c, 9, 37, 64
7, 54700, Note_off_c, 9, 42, 64
7, 54700, Note_off_c, 9, 38, 64
7, 54700, Note_off_c, 9, 35, 64
7, 54720, Note_on_c, 9, 35, 127
7, 54720, Note_on_c, 9, 38, 127
7, 54720, Note_on_c, 9, 42, 100
7, 54720, Note_on_c, 9, 37, 80
7, 54720, Note_on_c, 9, 56, 115
7, 54720, Note_on_c, 9, 54, 115
7, 54820, Note_off_c, 9, 54, 64
7, 54820, Note_off_c, 9, 56, 64
7, 54820, Note_off_c, 9, 37, 64
7, 54820, Note_off_c, 9, 42, 64
7, 54820, Note_off_c, 9, 38, 64
7, 54820, Note_off_c, 9, 35, 64
7, 54840, Note_on_c, 9, 38, 100
7, 54840, Note_on_c, 9, 42, 70
7, 54840, Note_on_c, 9, 37, 50
7, 54840, Note_on_c, 9, 54, 60
7, 54940, Note_off_c, 9, 54, 64
7, 54940, Note_off_c, 9, 37, 64
7, 54940, Note_off_c, 9, 42, 64
7, 54940, Note_off_c, 9, 38, 64
7, 54960, Note_on_c, 9, 38, 115
7, 54960, Note_on_c, 9, 42, 80
7, 54960, Note_on_c, 9, 37, 80
7, 54960, Note_on_c, 9, 56, 115
7, 54960, Note_on_c, 9, 54, 115
7, 55060, Note_off_c, 9, 54, 64
7, 55060, Note_off_c, 9, 56, 64
7, 55060, Note_off_c, 9, 37, 64
7, 55060, Note_off_c, 9, 42, 64
7, 55060, Note_off_c, 9, 38, 64
7, 55080, Note_on_c, 9, 38, 90
7, 55080, Note_on_c, 9, 42, 70
7, 55080, Note_on_c, 9, 37, 50
7, 55080, Note_on_c, 9, 54, 60
7, 55180, Note_off_c, 9, 54, 64
7, 55180, Note_off_c, 9, 37, 64
7, 55180, Note_off_c, 9, 42, 64
7, 55180, Note_off_c, 9, 38, 64
7, 55200, Note_on_c, 9, 35, 127
7, 55200, Note_on_c, 9, 38, 127
7, 55200, Note_on_c, 9, 42, 100
7, 55200, Note_on_c, 9, 37, 80
7, 55200, Note_on_c, 9, 54, 115
7, 55200, Note_on_c, 9, 39, 115
7, 55300, Note_off_c, 9, 39, 64
7, 55300, Note_off_c, 9, 54, 64
7, 55300, Note_off_c, 9, 37, 64
7, 55300, Note_off_c, 9, 42, 64
7, 55300, Note_off_c, 9, 38, 64
7, 55300, Note_off_c, 9, 35, 64
7, 55320, Note_on_c, 9, 35, 115
7, 55320, Note_on_c, 9, 38, 100
7, 55320, Note_on_c, 9, 42, 70
7, 55320, Note_on_c, 9, 37, 50
7, 55320, Note_on_c, 9, 54, 60
7, 55420, Note_off_c, 9, 54, 64
7, 55420, Note_off_c, 9, 37, 64
7, 55420, Note_off_c, 9, 42, 64
7, 55420, Note_off_c, 9, 38, 64
7, 55420, Note_off_c, 9, 35, 64
7, 55440, Note_on_c, 9, 35, 127
7, 55440, Note_on_c, 9, 38, 115
7, 55440, Note_on_c, 9, 42, 90
7, 55440, Note_on_c, 9, 37, 80
7, 55440, Note_on_c, 9, 54, 115
7, 55540, Note_off_c, 9, 54, 64
7, 55540, Note_off_c, 9, 37, 64
7, 55540, Note_off_c, 9, 42, 64
7, 55540, Note_off_c, 9, 38, 64
7, 55540, Note_off_c, 9, 35, 64
7, 55560, Note_on_c, 9, 35, 115
7, 55560, Note_on_c, 9, 38, 90
7, 55560, Note_on_c, 9, 42, 90
7, 55560, Note_on_c, 9, 37, 50
7, 55560, Note_on_c, 9, 54, 60
7, 55660, Note_off_c, 9, 54, 64
7, 55660, Note_off_c, 9, 37, 64
7, 55660, Note_off_c, 9, 42, 64
7, 55660, Note_off_c, 9, 38, 64
7, 55660, Note_off_c, 9, 35, 64
7, 55680, Note_on_c, 9, 35, 127
7, 55680, Note_on_c, 9, 42, 100
7, 55680, Note_on_c, 9, 37, 80
7, 55680, Note_on_c, 9, 56, 100
7, 55680, Note_on_c, 9, 49, 100
7, 55680, Note_on_c, 9, 54, 115
7, 55780, Note_off_c, 9, 54, 64
7, 55780, Note_off_c, 9, 49, 64
7, 55780, Note_off_c, 9, 56, 64
7, 55780, Note_off_c, 9, 37, 64
7, 55780, Note_off_c, 9, 42, 64
7, 55780, Note_off_c, 9, 35, 64
7, 55800, Note_on_c, 9, 42, 70
7, 55800, Note_on_c, 9, 37, 50
7, 55800, Note_on_c, 9, 54, 60
7, 55900, Note_off_c, 9, 54, 64
7, 55900, Note_off_c, 9, 37, 64
7, 55900, Note_off_c, 9, 42, 64
7, 55920, Note_on_c, 9, 42, 80
7, 55920, Note_on_c, 9, 37, 80
7, 55920, Note_on_c, 9, 56, 115
7, 55920, Note_on_c, 9, 54, 115
7, 56020, Note_off_c, 9, 54, 64
7, 56020, Note_off_c, 9, 56, 64
7, 56020, Note_off_c, 9, 37, 64
7, 56020, Note_off_c, 9, 42, 64
7, 56040, Note_on_c, 9, 42, 70
7, 56040, Note_on_c, 9, 37, 50
7, 56040, Note_on_c, 9, 54, 60
7, 56140, Note_off_c, 9, 54, 64
7, 56140, Note_off_c, 9, 37, 64
7, 56140, Note_off_c, 9, 42, 64
7, 56160, Note_on_c, 9, 35, 127
7, 56160, Note_on_c, 9, 38, 127
7, 56160, Note_on_c, 9, 42, 100
7, 56160, Note_on_c, 9, 37, 80
7, 56160, Note_on_c, 9, 54, 115
7, 56160, Note_on_c, 9, 39, 115
7, 56260, Note_off_c, 9, 39, 64
7, 56260, Note_off_c, 9, 54, 64
7, 56260, Note_off_c, 9, 37, 64
7, 56260, Note_off_c, 9, 42, 64
7, 56260, Note_off_c, 9, 38, 64
7, 56260, Note_off_c, 9, 35, 64
7, 56280, Note_on_c, 9, 42, 70
7, 56280, Note_on_c, 9, 37, 50
7, 56280, Note_on_c, 9, 54, 60
7, 56380, Note_off_c, 9, 54, 64
7, 56380, Note_off_c, 9, 37, 64
7, 56380, Note_off_c, 9, 42, 64
7, 56400, Note_on_c, 9, 42, 80
7, 56400, Note_on_c, 9, 37, 80
7, 56400, Note_on_c, 9, 56, 100
7, 56400, Note_on_c, 9, 54, 115
7, 56500, Note_off_c, 9, 54, 64
7, 56500, Note_off_c, 9, 56, 64
7, 56500, Note_off_c, 9, 37, 64
7, 56500, Note_off_c, 9, 42, 64
7, 56520, Note_on_c, 9, 35, 115
7, 56520, Note_on_c, 9, 42, 70
7, 56520, Note_on_c, 9, 37, 50
7, 56520, Note_on_c, 9, 56, 115
7, 56520, Note_on_c, 9, 54, 60
7, 56620, Note_off_c, 9, 54, 64
7, 56620, Note_off_c, 9, 56, 64
7, 56620, Note_off_c, 9, 37, 64
7, 56620, Note_off_c, 9, 42, 64
7, 56620, Note_off_c, 9, 35, 64
7, 56640, Note_on_c, 9, 35, 127
7, 56640, Note_on_c, 9, 42, 100
7, 56640, Note_on_c, 9, 37, 80
7, 56640, Note_on_c, 9, 56, 115
7, 56640, Note_on_c, 9, 54, 115
7, 56740, Note_off_c, 9, 54, 64
7, 56740, Note_off_c, 9, 56, 64
7, 56740, Note_off_c, 9, 37, 64
7, 56740, Note_off_c, 9, 42, 64
7, 56740, Note_off_c, 9, 35, 64
7, 56760, Note_on_c, 9, 42, 70
7, 56760, Note_on_c, 9, 37, 50
7, 56760, Note_on_c, 9, 54, 60
7, 56860, Note_off_c, 9, 54, 64
7, 56860, Note_off_c, 9, 37, 64
7, 56860, Note_off_c, 9, 42, 64
7, 56880, Note_on_c, 9, 42, 80
7, 56880, Note_on_c, 9, 37, 80
7, 56880, Note_on_c, 9, 56, 115
7, 56880, Note_on_c, 9, 54, 115
7, 56980, Note_off_c, 9, 54, 64
7, 56980, Note_off_c, 9, 56, 64
7, 56980, Note_off_c, 9, 37, 64
7, 56980, Note_off_c, 9, 42, 64
7, 57000, Note_on_c, 9, 42, 70
7, 57000, Note_on_c, 9, 37, 50
7, 57000, Note_on_c, 9, 54, 60
7, 57100, Note_off_c, 9, 54, 64
7, 57100, Note_off_c, 9, 37, 64
7, 57100, Note_off_c, 9, 42, 64
7, 57120, Note_on_c, 9, 35, 127
7, 57120, Note_on_c, 9, 38, 127
7, 57120, Note_on_c, 9, 42, 100
7, 57120, Note_on_c, 9, 37, 80
7, 57120, Note_on_c, 9, 54, 115
7, 57120, Note_on_c, 9, 39, 115
7, 57220, Note_off_c, 9, 39, 64
7, 57220, Note_off_c, 9, 54, 64
7, 57220, Note_off_c, 9, 37, 64
7, 57220, Note_off_c, 9, 42, 64
7, 57220, Note_off_c, 9, 38, 64
7, 57220, Note_off_c, 9, 35, 64
7, 57240, Note_on_c, 9, 35, 115
7, 57240, Note_on_c, 9, 42, 70
7, 57240, Note_on_c, 9, 37, 50
7, 57240, Note_on_c, 9, 54, 60
7, 57340, Note_off_c, 9, 54, 64
7, 57340, Note_off_c, 9, 37, 64
7, 57340, Note_off_c, 9, 42, 64
7, 57340, Note_off_c, 9, 35, 64
7, 57360, Note_on_c, 9, 35, 127
7, 57360, Note_on_c, 9, 42, 90
7, 57360, Note_on_c, 9, 37, 80
7, 57360, Note_on_c, 9, 54, 115
7, 57460, Note_off_c, 9, 54, 64
7, 57460, Note_off_c, 9, 37, 64
7, 57460, Note_off_c, 9, 42, 64
7, 57460, Note_off_c, 9, 35, 64
7, 57480, Note_on_c, 9, 35, 115
7, 57480, Note_on_c, 9, 42, 90
7, 57480, Note_on_c, 9, 37, 50
7, 57480, Note_on_c, 9, 54, 60
7, 57580, Note_off_c, 9, 54, 64
7, 57580, Note_off_c, 9, 37, 64
7, 57580, Note_off_c, 9, 42, 64
7, 57580, Note_off_c, 9, 35, 64
7, 57600, Note_on_c, 9, 35, 127
7, 57600, Note_on_c, 9, 42, 100
7, 57600, Note_on_c, 9, 37, 80
7, 57600, Note_on_c, 9, 56, 100
7, 57600, Note_on_c, 9, 54, 115
7, 57700, Note_off_c, 9, 54, 64
7, 57700, Note_off_c, 9, 56, 64
7, 57700, Note_off_c, 9, 37, 64
7, 57700, Note_off_c, 9, 42, 64
7, 57700, Note_off_c, 9, 35, 64
7, 57720, Note_on_c, 9, 42, 70
7, 57720, Note_on_c, 9, 37, 50
7, 57720, Note_on_c, 9, 54, 60
7, 57820, Note_off_c, 9, 54, 64
7, 57820, Note_off_c, 9, 37, 64
7, 57820, Note_off_c, 9, 42, 64
7, 57840, Note_on_c, 9, 42, 80
7, 57840, Note_on_c, 9, 37, 80
7, 57840, Note_on_c, 9, 56, 115
7, 57840, Note_on_c, 9, 54, 115
7, 57940, Note_off_c, 9, 54, 64
7, 57940, Note_off_c, 9, 56, 64
7, 57940, Note_off_c, 9, 37, 64
7, 57940, Note_off_c, 9, 42, 64
7, 57960, Note_on_c, 9, 42, 70
7, 57960, Note_on_c, 9, 37, 50
7, 57960, Note_on_c, 9, 54, 60
7, 58060, Note_off_c, 9, 54, 64
7, 58060, Note_off_c, 9, 37, 64
7, 58060, Note_off_c, 9, 42, 64
7, 58080, Note_on_c, 9, 35, 127
7, 58080, Note_on_c, 9, 38, 127
7, 58080, Note_on_c, 9, 42, 100
7, 58080, Note_on_c, 9, 37, 80
7, 58080, Note_on_c, 9, 54, 115
7, 58080, Note_on_c, 9, 39, 115
7, 58180, Note_off_c, 9, 39, 64
7, 58180, Note_off_c, 9, 54, 64
7, 58180, Note_off_c, 9, 37, 64
7, 58180, Note_off_c, 9, 42, 64
7, 58180, Note_off_c, 9, 38, 64
7, 58180, Note_off_c, 9, 35, 64
7, 58200, Note_on_c, 9, 42, 70
7, 58200, Note_on_c, 9, 37, 50
7, 58200, Note_on_c, 9, 54, 60
7, 58300, Note_off_c, 9, 54, 64
7, 58300, Note_off_c, 9, 37, 64
7, 58300, Note_off_c, 9, 42, 64
7, 58320, Note_on_c, 9, 42, 80
7, 58320, Note_on_c, 9, 37, 80
7, 58320, Note_on_c, 9, 56, 100
7, 58320, Note_on_c, 9, 54, 115
7, 58420, Note_off_c, 9, 54, 64
7, 58420, Note_off_c, 9, 56, 64
7, 58420, Note_off_c, 9, 37, 64
7, 58420, Note_off_c, 9, 42, 64
7, 58440, Note_on_c, 9, 35, 115
7, 58440, Note_on_c, 9, 42, 70
7, 58440, Note_on_c, 9, 37, 50
7, 58440, Note_on_c, 9, 56, 115
7, 58440, Note_on_c, 9, 54, 60
7, 58540, Note_off_c, 9, 54, 64
7, 58540, Note_off_c, 9, 56, 64
7, 58540, Note_off_c, 9, 37, 64
7, 58540, Note_off_c, 9, 42, 64
7, 58540, Note_off_c, 9, 35, 64
7, 58560, Note_on_c, 9, 35, 127
7, 58560, Note_on_c, 9, 42, 100
7, 58560, Note_on_c, 9, 37, 80
7, 58560, Note_on_c, 9, 56, 115
7, 58560, Note_on_c, 9, 54, 115
7, 58660, Note_off_c, 9, 54, 64
7, 58660, Note_off_c, 9, 56, 64
7, 58660, Note_off_c, 9, 37, 64
7, 58660, Note_off_c, 9, 42, 64
7, 58660, Note_off_c, 9, 35, 64
7, 58680, Note_on_c, 9, 42, 70
7, 58680, Note_on_c, 9, 37, 50
7, 58680, Note_on_c, 9, 54, 60
7, 58780, Note_off_c, 9, 54, 64
7, 58780, Note_off_c, 9, 37, 64
7, 58780, Note_off_c, 9, 42, 64
7, 58800, Note_on_c, 9, 42, 80
7, 58800, Note_on_c, 9, 37, 80
7, 58800, Note_on_c, 9, 56, 115
7, 58800, Note_on_c, 9, 54, 115
7, 58900, Note_off_c, 9, 54, 64
7, 58900, Note_off_c, 9, 56, 64
7, 58900, Note_off_c, 9, 37, 64
7, 58900, Note_off_c, 9, 42, 64
7, 58920, Note_on_c, 9, 42, 70
7, 58920, Note_on_c, 9, 37, 50
7, 58920, Note_on_c, 9, 54, 60
7, 59020, Note_off_c, 9, 54, 64
7, 59020, Note_off_c, 9, 37, 64
7, 59020, Note_off_c, 9, 42, 64
7, 59040, Note_on_c, 9, 35, 127
7, 59040, Note_on_c, 9, 38, 127
7, 59040, Note_on_c, 9, 42, 100
7, 59040, Note_on_c, 9, 37, 80
7, 59040, Note_on_c, 9, 54, 115
7, 59040, Note_on_c, 9, 39, 115
7, 59140, Note_off_c, 9, 39, 64
7, 59140, Note_off_c, 9, 54, 64
7, 59140, Note_off_c, 9, 37, 64
7, 59140, Note_off_c, 9, 42, 64
7, 59140, Note_off_c, 9, 38, 64
7, 59140, Note_off_c, 9, 35, 64
7, 59160, Note_on_c, 9, 35, 115
7, 59160, Note_on_c, 9, 42, 70
7, 59160, Note_on_c, 9, 37, 50
7, 59160, Note_on_c, 9, 54, 60
7, 59260, Note_off_c, 9, 54, 64
7, 59260, Note_off_c, 9, 37, 64
7, 59260, Note_off_c, 9, 42, 64
7, 59260, Note_off_c, 9, 35, 64
7, 59280, Note_on_c, 9, 35, 127
7, 59280, Note_on_c, 9, 42, 90
7, 59280, Note_on_c, 9, 37, 80
7, 59280, Note_on_c, 9, 54, 115
7, 59380, Note_off_c, 9, 54, 64
7, 59380, Note_off_c, 9, 37, 64
7, 59380, Note_off_c, 9, 42, 64
7, 59380, Note_off_c, 9, 35, 64
7, 59400, Note_on_c, 9, 35, 115
7, 59400, Note_on_c, 9, 42, 90
7, 59400, Note_on_c, 9, 37, 50
7, 59400, Note_on_c, 9, 54, 60
7, 59500, Note_off_c, 9, 54, 64
7, 59500, Note_off_c, 9, 37, 64
7, 59500, Note_off_c, 9, 42, 64
7, 59500, Note_off_c, 9, 35, 64
7, 59520, Note_on_c, 9, 35, 127
7, 59520, Note_on_c, 9, 42, 100
7, 59520, Note_on_c, 9, 37, 80
7, 59520, Note_on_c, 9, 56, 100
7, 59520, Note_on_c, 9, 54, 115
7, 59620, Note_off_c, 9, 54, 64
7, 59620, Note_off_c, 9, 56, 64
7, 59620, Note_off_c, 9, 37, 64
7, 59620, Note_off_c, 9, 42, 64
7, 59620, Note_off_c, 9, 35, 64
7, 59640, Note_on_c, 9, 42, 70
7, 59640, Note_on_c, 9, 37, 50
7, 59640, Note_on_c, 9, 54, 60
7, 59740, Note_off_c, 9, 54, 64
7, 59740, Note_off_c, 9, 37, 64
7, 59740, Note_off_c, 9, 42, 64
7, 59760, Note_on_c, 9, 42, 80
7, 59760, Note_on_c, 9, 37, 80
7, 59760, Note_on_c, 9, 56, 115
7, 59760, Note_on_c, 9, 54, 115
7, 59860, Note_off_c, 9, 54, 64
7, 59860, Note_off_c, 9, 56, 64
7, 59860, Note_off_c, 9, 37, 64
7, 59860, Note_off_c, 9, 42, 64
7, 59880, Note_on_c, 9, 42, 70
7, 59880, Note_on_c, 9, 37, 50
7, 59880, Note_on_c, 9, 54, 60
7, 59980, Note_off_c, 9, 54, 64
7, 59980, Note_off_c, 9, 37, 64
7, 59980, Note_off_c, 9, 42, 64
7, 60000, Note_on_c, 9, 35, 127
7, 60000, Note_on_c, 9, 38, 127
7, 60000, Note_on_c, 9, 42, 100
7, 60000, Note_on_c, 9, 37, 80
7, 60000, Note_on_c, 9, 54, 115
7, 60000, Note_on_c, 9, 39, 115
7, 60100, Note_off_c, 9, 39, 64
7, 60100, Note_off_c, 9, 54, 64
7, 60100, Note_off_c, 9, 37, 64
7, 60100, Note_off_c, 9, 42, 64
7, 60100, Note_off_c, 9, 38, 64
7, 60100, Note_off_c, 9, 35, 64
7, 60120, Note_on_c, 9, 42, 70
7, 60120, Note_on_c, 9, 37, 50
7, 60120, Note_on_c, 9, 54, 60
7, 60220, Note_off_c, 9, 54, 64
7, 60220, Note_off_c, 9, 37, 64
7, 60220, Note_off_c, 9, 42, 64
7, 60240, Note_on_c, 9, 42, 80
7, 60240, Note_on_c, 9, 37, 80
7, 60240, Note_on_c, 9, 56, 100
7, 60240, Note_on_c, 9, 54, 115
7, 60340, Note_off_c, 9, 54, 64
7, 60340, Note_off_c, 9, 56, 64
7, 60340, Note_off_c, 9, 37, 64
7, 60340, Note_off_c, 9, 42, 64
7, 60360, Note_on_c, 9, 35, 115
7, 60360, Note_on_c, 9, 42, 70
7, 60360, Note_on_c, 9, 37, 50
7, 60360, Note_on_c, 9, 56, 115
7, 60360, Note_on_c, 9, 54, 60
7, 60460, Note_off_c, 9, 54, 64
7, 60460, Note_off_c, 9, 56, 64
7, 60460, Note_off_c, 9, 37, 64
7, 60460, Note_off_c, 9, 42, 64
7, 60460, Note_off_c, 9, 35, 64
7, 60480, Note_on_c, 9, 35, 127
7, 60480, Note_on_c, 9, 42, 100
7, 60480, Note_on_c, 9, 37, 80
7, 60480, Note_on_c, 9, 56, 115
7, 60480, Note_on_c, 9, 54, 115
7, 60580, Note_off_c, 9, 54, 64
7, 60580, Note_off_c, 9, 56, 64
7, 60580, Note_off_c, 9, 37, 64
7, 60580, Note_off_c, 9, 42, 64
7, 60580, Note_off_c, 9, 35, 64
7, 60600, Note_on_c, 9, 42, 70
7, 60600, Note_on_c, 9, 37, 50
7, 60600, Note_on_c, 9, 54, 60
7, 60700, Note_off_c, 9, 54, 64
7, 60700, Note_off_c, 9, 37, 64
7, 60700, Note_off_c, 9, 42, 64
7, 60720, Note_on_c, 9, 42, 80
7, 60720, Note_on_c, 9, 37, 80
7, 60720, Note_on_c, 9, 56, 115
7, 60720, Note_on_c, 9, 54, 115
7, 60820, Note_off_c, 9, 54, 64
7, 60820, Note_off_c, 9, 56, 64
7, 60820, Note_off_c, 9, 37, 64
7, 60820, Note_off_c, 9, 42, 64
7, 60840, Note_on_c, 9, 42, 70
7, 60840, Note_on_c, 9, 37, 50
7, 60840, Note_on_c, 9, 54, 60
7, 60940, Note_off_c, 9, 54, 64
7, 60940, Note_off_c, 9, 37, 64
7, 60940, Note_off_c, 9, 42, 64
7, 60960, Note_on_c, 9, 35, 127
7, 60960, Note_on_c, 9, 38, 127
7, 60960, Note_on_c, 9, 42, 100
7, 60960, Note_on_c, 9, 37, 80
7, 60960, Note_on_c, 9, 54, 115
7, 60960, Note_on_c, 9, 39, 115
7, 61060, Note_off_c, 9, 39, 64
7, 61060, Note_off_c, 9, 54, 64
7, 61060, Note_off_c, 9, 37, 64
7, 61060, Note_off_c, 9, 42, 64
7, 61060, Note_off_c, 9, 38, 64
7, 61060, Note_off_c, 9, 35, 64
7, 61080, Note_on_c, 9, 35, 115
7, 61080, Note_on_c, 9, 42, 70
7, 61080, Note_on_c, 9, 37, 50
7, 61080, Note_on_c, 9, 54, 60
7, 61180, Note_off_c, 9, 54, 64
7, 61180, Note_off_c, 9, 37, 64
7, 61180, Note_off_c, 9, 42, 64
7, 61180, Note_off_c, 9, 35, 64
7, 61200, Note_on_c, 9, 35, 127
7, 61200, Note_on_c, 9, 42, 90
7, 61200, Note_on_c, 9, 37, 80
7, 61200, Note_on_c, 9, 54, 115
7, 61300, Note_off_c, 9, 54, 64
7, 61300, Note_off_c, 9, 37, 64
7, 61300, Note_off_c, 9, 42, 64
7, 61300, Note_off_c, 9, 35, 64
7, 61320, Note_on_c, 9, 35, 115
7, 61320, Note_on_c, 9, 42, 90
7, 61320, Note_on_c, 9, 37, 50
7, 61320, Note_on_c, 9, 54, 60
7, 61420, Note_off_c, 9, 54, 64
7, 61420, Note_off_c, 9, 37, 64
7, 61420, Note_off_c, 9, 42, 64
7, 61420, Note_off_c, 9, 35, 64
7, 61440, Note_on_c, 9, 35, 127
7, 61440, Note_on_c, 9, 38, 127
7, 61440, Note_on_c, 9, 42, 100
7, 61440, Note_on_c, 9, 37, 80
7, 61440, Note_on_c, 9, 56, 100
7, 61440, Note_on_c, 9, 54, 115
7, 61540, Note_off_c, 9, 54, 64
7, 61540, Note_off_c, 9, 56, 64
7, 61540, Note_off_c, 9, 37, 64
7, 61540, Note_off_c, 9, 42, 64
7, 61540, Note_off_c, 9, 38, 64
7, 61540, Note_off_c, 9, 35, 64
7, 61560, Note_on_c, 9, 38, 100
7, 61560, Note_on_c, 9, 42, 70
7, 61560, Note_on_c, 9, 37, 50
7, 61560, Note_on_c, 9, 54, 60
7, 61660, Note_off_c, 9, 54, 64
7, 61660, Note_off_c, 9, 37, 64
7, 61660, Note_off_c, 9, 42, 64
7, 61660, Note_off_c, 9, 38, 64
7, 61680, Note_on_c, 9, 38, 115
7, 61680, Note_on_c, 9, 42, 80
7, 61680, Note_on_c, 9, 37, 80
7, 61680, Note_on_c, 9, 56, 115
7, 61680, Note_on_c, 9, 54, 115
7, 61780, Note_off_c, 9, 54, 64
7, 61780, Note_off_c, 9, 56, 64
7, 61780, Note_off_c, 9, 37, 64
7, 61780, Note_off_c, 9, 42, 64
7, 61780, Note_off_c, 9, 38, 64
7, 61800, Note_on_c, 9, 38, 90
7, 61800, Note_on_c, 9, 42, 70
7, 61800, Note_on_c, 9, 37, 50
7, 61800, Note_on_c, 9, 54, 60
7, 61900, Note_off_c, 9, 54, 64
7, 61900, Note_off_c, 9, 37, 64
7, 61900, Note_off_c, 9, 42, 64
7, 61900, Note_off_c, 9, 38, 64
7, 61920, Note_on_c, 9, 35, 127
7, 61920, Note_on_c, 9, 38, 127
7, 61920, Note_on_c, 9, 42, 100
7, 61920, Note_on_c, 9, 37, 80
7, 61920, Note_on_c, 9, 54, 115
7, 61920, Note_on_c, 9, 39, 115
7, 62020, Note_off_c, 9, 39, 64
7, 62020, Note_off_c, 9, 54, 64
7, 62020, Note_off_c, 9, 37, 64
7, 62020, Note_off_c, 9, 42, 64
7, 62020, Note_off_c, 9, 38, 64
7, 62020, Note_off_c, 9, 35, 64
7, 62040, Note_on_c, 9, 38, 100
7, 62040, Note_on_c, 9, 42, 70
7, 62040, Note_on_c, 9, 37, 50
7, 62040, Note_on_c, 9, 54, 60
7, 62140, Note_off_c, 9, 54, 64
7, 62140, Note_off_c, 9, 37, 64
7, 62140, Note_off_c, 9, 42, 64
7, 62140, Note_off_c, 9, 38, 64
7, 62160, Note_on_c, 9, 38, 115
7, 62160, Note_on_c, 9, 42, 80
7, 62160, Note_on_c, 9, 37, 80
7, 62160, Note_on_c, 9, 56, 100
7, 62160, Note_on_c, 9, 54, 115
7, 62260, Note_off_c, 9, 54, 64
7, 62260, Note_off_c, 9, 56, 64
7, 62260, Note_off_c, 9, 37, 64
7, 62260, Note_off_c, 9, 42, 64
7, 62260, Note_off_c, 9, 38, 64
7, 62280, Note_on_c, 9, 35, 115
7, 62280, Note_on_c, 9, 38, 90
7, 62280, Note_on_c, 9, 42, 70
7, 62280, Note_on_c, 9, 37, 50
7, 62280, Note_on_c, 9, 56, 115
7, 62280, Note_on_c, 9, 54, 60
7, 62380, Note_off_c, 9, 54, 64
7, 62380, Note_off_c, 9, 56, 64
7, 62380, Note_off_c, 9, 37, 64
7, 62380, Note_off_c, 9, 42, 64
7, 62380, Note_off_c, 9, 38, 64
7, 62380, Note_off_c, 9, 35, 64
7, 62400, Note_on_c, 9, 35, 127
7, 62400, Note_on_c, 9, 38, 127
7, 62400, Note_on_c, 9, 42, 100
7, 62400, Note_on_c, 9, 37, 80
7, 62400, Note_on_c, 9, 56, 115
7, 62400, Note_on_c, 9, 54, 115
7, 62500, Note_off_c, 9, 54, 64
7, 62500, Note_off_c, 9, 56, 64
7, 62500, Note_off_c, 9, 37, 64
7, 62500, Note_off_c, 9, 42, 64
7, 62500, Note_off_c, 9, 38, 64
7, 62500, Note_off_c, 9, 35, 64
7, 62520, Note_on_c, 9, 38, 100
7, 62520, Note_on_c, 9, 42, 70
7, 62520, Note_on_c, 9, 37, 50
7, 62520, Note_on_c, 9, 54, 60
7, 62620, Note_off_c, 9, 54, 64
7, 62620, Note_off_c, 9, 37, 64
7, 62620, Note_off_c, 9, 42, 64
7, 62620, Note_off_c, 9, 38, 64
7, 62640, Note_on_c, 9, 38, 115
7, 62640, Note_on_c, 9, 42, 80
7, 62640, Note_on_c, 9, 37, 80
7, 62640, Note_on_c, 9, 56, 115
7, 62640, Note_on_c, 9, 54, 115
7, 62740, Note_off_c, 9, 54, 64
7, 62740, Note_off_c, 9, 56, 64
7, 62740, Note_off_c, 9, 37, 64
7, 62740, Note_off_c, 9, 42, 64
7, 62740, Note_off_c, 9, 38, 64
7, 62760, Note_on_c, 9, 38, 90
7, 62760, Note_on_c, 9, 42, 70
7, 62760, Note_on_c, 9, 37, 50
7, 62760, Note_on_c, 9, 54, 60
7, 62860, Note_off_c, 9, 54, 64
7, 62860, Note_off_c, 9, 37, 64
7, 62860, Note_off_c, 9, 42, 64
7, 62860, Note_off_c, 9, 38, 64
7, 62880, Note_on_c, 9, 35, 127
7, 62880, Note_on_c, 9, 38, 127
7, 62880, Note_on_c, 9, 42, 100
7, 62880, Note_on_c, 9, 37, 80
7, 62880, Note_on_c, 9, 54, 115
7, 62880, Note_on_c, 9, 39, 115
7, 62980, Note_off_c, 9, 39, 64
7, 62980, Note_off_c, 9, 54, 64
7, 62980, Note_off_c, 9, 37, 64
7, 62980, Note_off_c, 9, 42, 64
7, 62980, Note_off_c, 9, 38, 64
7, 62980, Note_off_c, 9, 35, 64
7, 63000, Note_on_c, 9, 35, 115
7, 63000, Note_on_c, 9, 38, 100
7, 63000, Note_on_c, 9, 42, 70
7, 63000, Note_on_c, 9, 37, 50
7, 63000, Note_on_c, 9, 54, 60
7, 63100, Note_off_c, 9, 54, 64
7, 63100, Note_off_c, 9, 37, 64
7, 63100, Note_off_c, 9, 42, 64
7, 63100, Note_off_c, 9, 38, 64
7, 63100, Note_off_c, 9, 35, 64
7, 63120, Note_on_c, 9, 35, 127
7, 63120, Note_on_c, 9, 38, 115
7, 63120, Note_on_c, 9, 42, 90
7, 63120, Note_on_c, 9, 37, 80
7, 63120, Note_on_c, 9, 54, 115
7, 63220, Note_off_c, 9, 54, 64
7, 63220, Note_off_c, 9, 37, 64
7, 63220, Note_off_c, 9, 42, 64
7, 63220, Note_off_c, 9, 38, 64
7, 63220, Note_off_c, 9, 35, 64
7, 63240, Note_on_c, 9, 35, 115
7, 63240, Note_on_c, 9, 38, 90
7, 63240, Note_on_c, 9, 42, 90
7, 63240, Note_on_c, 9, 37, 50
7, 63240, Note_on_c, 9, 54, 60
7, 63340, Note_off_c, 9, 54, 64
7, 63340, Note_off_c, 9, 37, 64
7, 63340, Note_off_c, 9, 42, 64
7, 63340, Note_off_c, 9, 38, 64
7, 63340, Note_off_c, 9, 35, 64
7, 63360, Note_on_c, 9, 35, 127
7, 63360, Note_on_c, 9, 42, 100
7, 63360, Note_on_c, 9, 37, 80
7, 63360, Note_on_c, 9, 56, 100
7, 63360, Note_on_c, 9, 49, 100
7, 63360, Note_on_c, 9, 54, 115
7, 63460, Note_off_c, 9, 54, 64
7, 63460, Note_off_c, 9, 49, 64
7, 63460, Note_off_c, 9, 56, 64
7, 63460, Note_off_c, 9, 37, 64
7, 63460, Note_off_c, 9, 42, 64
7, 63460, Note_off_c, 9, 35, 64
7, 63480, Note_on_c, 9, 42, 70
7, 63480, Note_on_c, 9, 37, 50
7, 63480, Note_on_c, 9, 54, 60
7, 63580, Note_off_c, 9, 54, 64
7, 63580, Note_off_c, 9, 37, 64
7, 63580, Note_off_c, 9, 42, 64
7, 63600, Note_on_c, 9, 42, 80
7, 63600, Note_on_c, 9, 37, 80
7, 63600, Note_on_c, 9, 56, 115
7, 63600, Note_on_c, 9, 54, 115
7, 63700, Note_off_c, 9, 54, 64
7, 63700, Note_off_c, 9, 56, 64
7, 63700, Note_off_c, 9, 37, 64
7, 63700, Note_off_c, 9, 42, 64
7, 63720, Note_on_c, 9, 42, 70
7, 63720, Note_on_c, 9, 37, 50
7, 63720, Note_on_c, 9, 54, 60
7, 63820, Note_off_c, 9, 54, 64
7, 63820, Note_off_c, 9, 37, 64
7, 63820, Note_off_c, 9, 42, 64
7, 63840, Note_on_c, 9, 35, 127
7, 63840, Note_on_c, 9, 38, 127
7, 63840, Note_on_c, 9, 42, 100
7, 63840, Note_on_c, 9, 37, 80
7, 63840, Note_on_c, 9, 54, 115
7, 63840, Note_on_c, 9, 39, 115
7, 63940, Note_off_c, 9, 39, 64
7, 63940, Note_off_c, 9, 54, 64
7, 63940, Note_off_c, 9, 37, 64
7, 63940, Note_off_c, 9, 42, 64
7, 63940, Note_off_c, 9, 38, 64
7, 63940, Note_off_c, 9, 35, 64
7, 63960, Note_on_c, 9, 42, 70
7, 63960, Note_on_c, 9, 37, 50
7, 63960, Note_on_c, 9, 54, 60
7, 64060, Note_off_c, 9, 54, 64
7, 64060, Note_off_c, 9, 37, 64
7, 64060, Note_off_c, 9, 42, 64
7, 64080, Note_on_c, 9, 42, 80
7, 64080, Note_on_c, 9, 37, 80
7, 64080, Note_on_c, 9, 56, 100
7, 64080, Note_on_c, 9, 54, 115
7, 64180, Note_off_c, 9, 54, 64
7, 64180, Note_off_c, 9, 56, 64
7, 64180, Note_off_c, 9, 37, 64
7, 64180, Note_off_c, 9, 42, 64
7, 64200, Note_on_c, 9, 35, 115
7, 64200, Note_on_c, 9, 42, 70
7, 64200, Note_on_c, 9, 37, 50
7, 64200, Note_on_c, 9, 56, 115
7, 64200, Note_on_c, 9, 54, 60
7, 64300, Note_off_c, 9, 54, 64
7, 64300, Note_off_c, 9, 56, 64
7, 64300, Note_off_c, 9, 37, 64
7, 64300, Note_off_c, 9, 42, 64
7, 64300, Note_off_c, 9, 35, 64
7, 64320, Note_on_c, 9, 35, 127
7, 64320, Note_on_c, 9, 42, 100
7, 64320, Note_on_c, 9, 37, 80
7, 64320, Note_on_c, 9, 56, 115
7, 64320, Note_on_c, 9, 54, 115
7, 64420, Note_off_c, 9, 54, 64
7, 64420, Note_off_c, 9, 56, 64
7, 64420, Note_off_c, 9, 37, 64
7, 64420, Note_off_c, 9, 42, 64
7, 64420, Note_off_c, 9, 35, 64
7, 64440, Note_on_c, 9, 42, 70
7, 64440, Note_on_c, 9, 37, 50
7, 64440, Note_on_c, 9, 54, 60
7, 64540, Note_off_c, 9, 54, 64
7, 64540, Note_off_c, 9, 37, 64
7, 64540, Note_off_c, 9, 42, 64
7, 64560, Note_on_c, 9, 42, 80
7, 64560, Note_on_c, 9, 37, 80
7, 64560, Note_on_c, 9, 56, 115
7, 64560, Note_on_c, 9, 54, 115
7, 64660, Note_off_c, 9, 54, 64
7, 64660, Note_off_c, 9, 56, 64
7, 64660, Note_off_c, 9, 37, 64
7, 64660, Note_off_c, 9, 42, 64
7, 64680, Note_on_c, 9, 42, 70
7, 64680, Note_on_c, 9, 37, 50
7, 64680, Note_on_c, 9, 54, 60
7, 64780, Note_off_c, 9, 54, 64
7, 64780, Note_off_c, 9, 37, 64
7, 64780, Note_off_c, 9, 42, 64
7, 64800, Note_on_c, 9, 35, 127
7, 64800, Note_on_c, 9, 38, 127
7, 64800, Note_on_c, 9, 42, 100
7, 64800, Note_on_c, 9, 37, 80
7, 64800, Note_on_c, 9, 54, 115
7, 64800, Note_on_c, 9, 39, 115
7, 64900, Note_off_c, 9, 39, 64
7, 64900, Note_off_c, 9, 54, 64
7, 64900, Note_off_c, 9, 37, 64
7, 64900, Note_off_c, 9, 42, 64
7, 64900, Note_off_c, 9, 38, 64
7, 64900, Note_off_c, 9, 35, 64
7, 64920, Note_on_c, 9, 35, 115
7, 64920, Note_on_c, 9, 42, 70
7, 64920, Note_on_c, 9, 37, 50
7, 64920, Note_on_c, 9, 54, 60
7, 65020, Note_off_c, 9, 54, 64
7, 65020, Note_off_c, 9, 37, 64
7, 65020, Note_off_c, 9, 42, 64
7, 65020, Note_off_c, 9, 35, 64
7, 65040, Note_on_c, 9, 35, 127
7, 65040, Note_on_c, 9, 42, 90
7, 65040, Note_on_c, 9, 37, 80
7, 65040, Note_on_c, 9, 54, 115
7, 65140, Note_off_c, 9, 54, 64
7, 65140, Note_off_c, 9, 37, 64
7, 65140, Note_off_c, 9, 42, 64
7, 65140, Note_off_c, 9, 35, 64
7, 65160, Note_on_c, 9, 35, 115
7, 65160, Note_on_c, 9, 42, 90
7, 65160, Note_on_c, 9, 37, 50
7, 65160, Note_on_c, 9, 54, 60
7, 65260, Note_off_c, 9, 54, 64
7, 65260, Note_off_c, 9, 37, 64
7, 65260, Note_off_c, 9, 42, 64
7, 65260, Note_off_c, 9, 35, 64
7, 65280, Note_on_c, 9, 35, 127
7, 65280, Note_on_c, 9, 42, 100
7, 65280, Note_on_c, 9, 37, 80
7, 65280, Note_on_c, 9, 56, 100
7, 65280, Note_on_c, 9, 54, 115
7, 65380, Note_off_c, 9, 54, 64
7, 65380, Note_off_c, 9, 56, 64
7, 65380, Note_off_c, 9, 37, 64
7, 65380, Note_off_c, 9, 42, 64
7, 65380, Note_off_c, 9, 35, 64
7, 65400, Note_on_c, 9, 42, 70
7, 65400, Note_on_c, 9, 37, 50
7, 65400, Note_on_c, 9, 54, 60
7, 65500, Note_off_c, 9, 54, 64
7, 65500, Note_off_c, 9, 37, 64
7, 65500, Note_off_c, 9, 42, 64
7, 65520, Note_on_c, 9, 42, 80
7, 65520, Note_on_c, 9, 37, 80
7, 65520, Note_on_c, 9, 56, 115
7, 65520, Note_on_c, 9, 54, 115
7, 65620, Note_off_c, 9, 54, 64
7, 65620, Note_off_c, 9, 56, 64
7, 65620, Note_off_c, 9, 37, 64
7, 65620, Note_off_c, 9, 42, 64
7, 65640, Note_on_c, 9, 42, 70
7, 65640, Note_on_c, 9, 37, 50
7, 65640, Note_on_c, 9, 54, 60
7, 65740, Note_off_c, 9, 54, 64
7, 65740, Note_off_c, 9, 37, 64
7, 65740, Note_off_c, 9, 42, 64
7, 65760, Note_on_c, 9, 35, 127
7, 65760, Note_on_c, 9, 38, 127
7, 65760, Note_on_c, 9, 42, 100
7, 65760, Note_on_c, 9, 37, 80
7, 65760, Note_on_c, 9, 54, 115
7, 65760, Note_on_c, 9, 39, 115
7, 65860, Note_off_c, 9, 39, 64
7, 65860, Note_off_c, 9, 54, 64
7, 65860, Note_off_c, 9, 37, 64
7, 65860, Note_off_c, 9, 42, 64
7, 65860, Note_off_c, 9, 38, 64
7, 65860, Note_off_c, 9, 35, 64
7, 65880, Note_on_c, 9, 42, 70
7, 65880, Note_on_c, 9, 37, 50
7, 65880, Note_on_c, 9, 54, 60
7, 65980, Note_off_c, 9, 54, 64
7, 65980, Note_off_c, 9, 37, 64
7, 65980, Note_off_c, 9, 42, 64
7, 66000, Note_on_c, 9, 42, 80
7, 66000, Note_on_c, 9, 37, 80
7, 66000, Note_on_c, 9, 56, 100
7, 66000, Note_on_c, 9, 54, 115
7, 66100, Note_off_c, 9, 54, 64
7, 66100, Note_off_c, 9, 56, 64
7, 66100, Note_off_c, 9, 37, 64
7, 66100, Note_off_c, 9, 42, 64
7, 66120, Note_on_c, 9, 35, 115
7, 66120, Note_on_c, 9, 42, 70
7, 66120, Note_on_c, 9, 37, 50
7, 66120, Note_on_c, 9, 56, 115
7, 66120, Note_on_c, 9, 54, 60
7, 66220, Note_off_c, 9, 54, 64
7, 66220, Note_off_c, 9, 56, 64
7, 66220, Note_off_c, 9, 37, 64
7, 66220, Note_off_c, 9, 42, 64
7, 66220, Note_off_c, 9, 35, 64
7, 66240, Note_on_c, 9, 35, 127
7, 66240, Note_on_c, 9, 42, 100
7, 66240, Note_on_c, 9, 37, 80
7, 66240, Note_on_c, 9, 56, 115
7, 66240, Note_on_c, 9, 54, 115
7, 66340, Note_off_c, 9, 54, 64
7, 66340, Note_off_c, 9, 56, 64
7, 66340, Note_off_c, 9, 37, 64
7, 66340, Note_off_c, 9, 42, 64
7, 66340, Note_off_c, 9, 35, 64
7, 66360, Note_on_c, 9, 42, 70
7, 66360, Note_on_c, 9, 37, 50
7, 66360, Note_on_c, 9, 54, 60
7, 66460, Note_off_c, 9, 54, 64
7, 66460, Note_off_c, 9, 37, 64
7, 66460, Note_off_c, 9, 42, 64
7, 66480, Note_on_c, 9, 42, 80
7, 66480, Note_on_c, 9, 37, 80
7, 66480, Note_on_c, 9, 56, 115
7, 66480, Note_on_c, 9, 54, 115
7, 66580, Note_off_c, 9, 54, 64
7, 66580, Note_off_c, 9, 56, 64
7, 66580, Note_off_c, 9, 37, 64
7, 66580, Note_off_c, 9, 42, 64
7, 66600, Note_on_c, 9, 42, 70
7, 66600, Note_on_c, 9, 37, 50
7, 66600, Note_on_c, 9, 54, 60
7, 66700, Note_off_c, 9, 54, 64
7, 66700, Note_off_c, 9, 37, 64
7, 66700, Note_off_c, 9, 42, 64
7, 66720, Note_on_c, 9, 35, 127
7, 66720, Note_on_c, 9, 38, 127
7, 66720, Note_on_c, 9, 42, 100
7, 66720, Note_on_c, 9, 37, 80
7, 66720, Note_on_c, 9, 54, 115
7, 66720, Note_on_c, 9, 39, 115
7, 66820, Note_off_c, 9, 39, 64
7, 66820, Note_off_c, 9, 54, 64
7, 66820, Note_off_c, 9, 37, 64
7, 66820, Note_off_c, 9, 42, 64
7, 66820, Note_off_c, 9, 38, 64
7, 66820, Note_off_c, 9, 35, 64
7, 66840, Note_on_c, 9, 35, 115
7, 66840, Note_on_c, 9, 42, 70
7, 66840, Note_on_c, 9, 37, 50
7, 66840, Note_on_c, 9, 54, 60
7, 66940, Note_off_c, 9, 54, 64
7, 66940, Note_off_c, 9, 37, 64
7, 66940, Note_off_c, 9, 42, 64
7, 66940, Note_off_c, 9, 35, 64
7, 66960, Note_on_c, 9, 35, 127
7, 66960, Note_on_c, 9, 42, 90
7, 66960, Note_on_c, 9, 37, 80
7, 66960, Note_on_c, 9, 54, 115
7, 67060, Note_off_c, 9, 54, 64
7, 67060, Note_off_c, 9, 37, 64
7, 67060, Note_off_c, 9, 42, 64
7, 67060, Note_off_c, 9, 35, 64
7, 67080, Note_on_c, 9, 35, 115
7, 67080, Note_on_c, 9, 42, 90
7, 67080, Note_on_c, 9, 37, 50
7, 67080, Note_on_c, 9, 54, 60
7, 67180, Note_off_c, 9, 54, 64
7, 67180, Note_off_c, 9, 37, 64
7, 67180, Note_off_c, 9, 42, 64
7, 67180, Note_off_c, 9, 35, 64
7, 67200, Note_on_c, 9, 35, 127
7, 67200, Note_on_c, 9, 42, 100
7, 67200, Note_on_c, 9, 37, 80
7, 67200, Note_on_c, 9, 56, 100
7, 67200, Note_on_c, 9, 54, 115
7, 67300, Note_off_c, 9, 54, 64
7, 67300, Note_off_c, 9, 56, 64
7, 67300, Note_off_c, 9, 37, 64
7, 67300, Note_off_c, 9, 42, 64
7, 67300, Note_off_c, 9, 35, 64
7, 67320, Note_on_c, 9, 42, 70
7, 67320, Note_on_c, 9, 37, 50
7, 67320, Note_on_c, 9, 54, 60
7, 67420, Note_off_c, 9, 54, 64
7, 67420, Note_off_c, 9, 37, 64
7, 67420, Note_off_c, 9, 42, 64
7, 67440, Note_on_c, 9, 42, 80
7, 67440, Note_on_c, 9, 37, 80
7, 67440, Note_on_c, 9, 56, 115
7, 67440, Note_on_c, 9, 54, 115
7, 67540, Note_off_c, 9, 54, 64
7, 67540, Note_off_c, 9, 56, 64
7, 67540, Note_off_c, 9, 37, 64
7, 67540, Note_off_c, 9, 42, 64
7, 67560, Note_on_c, 9, 42, 70
7, 67560, Note_on_c, 9, 37, 50
7, 67560, Note_on_c, 9, 54, 60
7, 67660, Note_off_c, 9, 54, 64
7, 67660, Note_off_c, 9, 37, 64
7, 67660, Note_off_c, 9, 42, 64
7, 67680, Note_on_c, 9, 35, 127
7, 67680, Note_on_c, 9, 38, 127
7, 67680, Note_on_c, 9, 42, 100
7, 67680, Note_on_c, 9, 37, 80
7, 67680, Note_on_c, 9, 54, 115
7, 67680, Note_on_c, 9, 39, 115
7, 67780, Note_off_c, 9, 39, 64
7, 67780, Note_off_c, 9, 54, 64
7, 67780, Note_off_c, 9, 37, 64
7, 67780, Note_off_c, 9, 42, 64
7, 67780, Note_off_c, 9, 38, 64
7, 67780, Note_off_c, 9, 35, 64
7, 67800, Note_on_c, 9, 42, 70
7, 67800, Note_on_c, 9, 37, 50
7, 67800, Note_on_c, 9, 54, 60
7, 67900, Note_off_c, 9, 54, 64
7, 67900, Note_off_c, 9, 37, 64
7, 67900, Note_off_c, 9, 42, 64
7, 67920, Note_on_c, 9, 42, 80
7, 67920, Note_on_c, 9, 37, 80
7, 67920, Note_on_c, 9, 56, 100
7, 67920, Note_on_c, 9, 54, 115
7, 68020, Note_off_c, 9, 54, 64
7, 68020, Note_off_c, 9, 56, 64
7, 68020, Note_off_c, 9, 37, 64
7, 68020, Note_off_c, 9, 42, 64
7, 68040, Note_on_c, 9, 35, 115
7, 68040, Note_on_c, 9, 42, 70
7, 68040, Note_on_c, 9, 37, 50
7, 68040, Note_on_c, 9, 56, 115
7, 68040, Note_on_c, 9, 54, 60
7, 68140, Note_off_c, 9, 54, 64
7, 68140, Note_off_c, 9, 56, 64
7, 68140, Note_off_c, 9, 37, 64
7, 68140, Note_off_c, 9, 42, 64
7, 68140, Note_off_c, 9, 35, 64
7, 68160, Note_on_c, 9, 35, 127
7, 68160, Note_on_c, 9, 42, 100
7, 68160, Note_on_c, 9, 37, 80
7, 68160, Note_on_c, 9, 56, 115
7, 68160, Note_on_c, 9, 54, 115
7, 68260, Note_off_c, 9, 54, 64
7, 68260, Note_off_c, 9, 56, 64
7, 68260, Note_off_c, 9, 37, 64
7, 68260, Note_off_c, 9, 42, 64
7, 68260, Note_off_c, 9, 35, 64
7, 68280, Note_on_c, 9, 42, 70
7, 68280, Note_on_c, 9, 37, 50
7, 68280, Note_on_c, 9, 54, 60
7, 68380, Note_off_c, 9, 54, 64
7, 68380, Note_off_c, 9, 37, 64
7, 68380, Note_off_c, 9, 42, 64
7, 68400, Note_on_c, 9, 42, 80
7, 68400, Note_on_c, 9, 37, 80
7, 68400, Note_on_c, 9, 56, 115
7, 68400, Note_on_c, 9, 54, 115
7, 68500, Note_off_c, 9, 54, 64
7, 68500, Note_off_c, 9, 56, 64
7, 68500, Note_off_c, 9, 37, 64
7, 68500, Note_off_c, 9, 42, 64
7, 68520, Note_on_c, 9, 42, 70
7, 68520, Note_on_c, 9, 37, 50
7, 68520, Note_on_c, 9, 54, 60
7, 68620, Note_off_c, 9, 54, 64
7, 68620, Note_off_c, 9, 37, 64
7, 68620, Note_off_c, 9, 42, 64
7, 68640, Note_on_c, 9, 35, 127
7, 68640, Note_on_c, 9, 38, 127
7, 68640, Note_on_c, 9, 42, 100
7, 68640, Note_on_c, 9, 37, 80
7, 68640, Note_on_c, 9, 54, 115
7, 68640, Note_on_c, 9, 39, 115
7, 68740, Note_off_c, 9, 39, 64
7, 68740, Note_off_c, 9, 54, 64
7, 68740, Note_off_c, 9, 37, 64
7, 68740, Note_off_c, 9, 42, 64
7, 68740, Note_off_c, 9, 38, 64
7, 68740, Note_off_c, 9, 35, 64
7, 68760, Note_on_c, 9, 35, 115
7, 68760, Note_on_c, 9, 42, 70
7, 68760, Note_on_c, 9, 37, 50
7, 68760, Note_on_c, 9, 54, 60
7, 68860, Note_off_c, 9, 54, 64
7, 68860, Note_off_c, 9, 37, 64
7, 68860, Note_off_c, 9, 42, 64
7, 68860, Note_off_c, 9, 35, 64
7, 68880, Note_on_c, 9, 35, 127
7, 68880, Note_on_c, 9, 42, 90
7, 68880, Note_on_c, 9, 37, 80
7, 68880, Note_on_c, 9, 54, 115
7, 68980, Note_off_c, 9, 54, 64
7, 68980, Note_off_c, 9, 37, 64
7, 68980, Note_off_c, 9, 42, 64
7, 68980, Note_off_c, 9, 35, 64
7, 69000, Note_on_c, 9, 35, 115
7, 69000, Note_on_c, 9, 42, 90
7, 69000, Note_on_c, 9, 37, 50
7, 69000, Note_on_c, 9, 54, 60
7, 69100, Note_off_c, 9, 54, 64
7, 69100, Note_off_c, 9, 37, 64
7, 69100, Note_off_c, 9, 42, 64
7, 69100, Note_off_c, 9, 35, 64
7, 69120, Note_on_c, 9, 35, 127
7, 69120, Note_on_c, 9, 38, 127
7, 69120, Note_on_c, 9, 42, 100
7, 69120, Note_on_c, 9, 37, 80
7, 69120, Note_on_c, 9, 56, 100
7, 69120, Note_on_c, 9, 54, 115
7, 69220, Note_off_c, 9, 54, 64
7, 69220, Note_off_c, 9, 56, 64
7, 69220, Note_off_c, 9, 37, 64
7, 69220, Note_off_c, 9, 42, 64
7, 69220, Note_off_c, 9, 38, 64
7, 69220, Note_off_c, 9, 35, 64
7, 69240, Note_on_c, 9, 38, 100
7, 69240, Note_on_c, 9, 42, 70
7, 69240, Note_on_c, 9, 37, 50
7, 69240, Note_on_c, 9, 54, 60
7, 69340, Note_off_c, 9, 54, 64
7, 69340, Note_off_c, 9, 37, 64
7, 69340, Note_off_c, 9, 42, 64
7, 69340, Note_off_c, 9, 38, 64
7, 69360, Note_on_c, 9, 38, 115
7, 69360, Note_on_c, 9, 42, 80
7, 69360, Note_on_c, 9, 37, 80
7, 69360, Note_on_c, 9, 56, 115
7, 69360, Note_on_c, 9, 54, 115
7, 69460, Note_off_c, 9, 54, 64
7, 69460, Note_off_c, 9, 56, 64
7, 69460, Note_off_c, 9, 37, 64
7, 69460, Note_off_c, 9, 42, 64
7, 69460, Note_off_c, 9, 38, 64
7, 69480, Note_on_c, 9, 38, 90
7, 69480, Note_on_c, 9, 42, 70
7, 69480, Note_on_c, 9, 37, 50
7, 69480, Note_on_c, 9, 54, 60
7, 69580, Note_off_c, 9, 54, 64
7, 69580, Note_off_c, 9, 37, 64
7, 69580, Note_off_c, 9, 42, 64
7, 69580, Note_off_c, 9, 38, 64
7, 69600, Note_on_c, 9, 35, 127
7, 69600, Note_on_c, 9, 38, 127
7, 69600, Note_on_c, 9, 42, 100
7, 69600, Note_on_c, 9, 37, 80
7, 69600, Note_on_c, 9, 54, 115
7, 69600, Note_on_c, 9, 39, 115
7, 69700, Note_off_c, 9, 39, 64
7, 69700, Note_off_c, 9, 54, 64
7, 69700, Note_off_c, 9, 37, 64
7, 69700, Note_off_c, 9, 42, 64
7, 69700, Note_off_c, 9, 38, 64
7, 69700, Note_off_c, 9, 35, 64
7, 69720, Note_on_c, 9, 38, 100
7, 69720, Note_on_c, 9, 42, 70
7, 69720, Note_on_c, 9, 37, 50
7, 69720, Note_on_c, 9, 54, 60
7, 69820, Note_off_c, 9, 54, 64
7, 69820, Note_off_c, 9, 37, 64
7, 69820, Note_off_c, 9, 42, 64
7, 69820, Note_off_c, 9, 38, 64
7, 69840, Note_on_c, 9, 38, 115
7, 69840, Note_on_c, 9, 42, 80
7, 69840, Note_on_c, 9, 37, 80
7, 69840, Note_on_c, 9, 56, 100
7, 69840, Note_on_c, 9, 54, 115
7, 69940, Note_off_c, 9, 54, 64
7, 69940, Note_off_c, 9, 56, 64
7, 69940, Note_off_c, 9, 37, 64
7, 69940, Note_off_c, 9, 42, 64
7, 69940, Note_off_c, 9, 38, 64
7, 69960, Note_on_c, 9, 35, 115
7, 69960, Note_on_c, 9, 38, 90
7, 69960, Note_on_c, 9, 42, 70
7, 69960, Note_on_c, 9, 37, 50
7, 69960, Note_on_c, 9, 56, 115
7, 69960, Note_on_c, 9, 54, 60
7, 70060, Note_off_c, 9, 54, 64
7, 70060, Note_off_c, 9, 56, 64
7, 70060, Note_off_c, 9, 37, 64
7, 70060, Note_off_c, 9, 42, 64
7, 70060, Note_off_c, 9, 38, 64
7, 70060, Note_off_c, 9, 35, 64
7, 70080, Note_on_c, 9, 35, 127
7, 70080, Note_on_c, 9, 38, 127
7, 70080, Note_on_c, 9, 42, 100
7, 70080, Note_on_c, 9, 37, 80
7, 70080, Note_on_c, 9, 56, 115
7, 70080, Note_on_c, 9, 54, 115
7, 70180, Note_off_c, 9, 54, 64
7, 70180, Note_off_c, 9, 56, 64
7, 70180, Note_off_c, 9, 37, 64
7, 70180, Note_off_c, 9, 42, 64
7, 70180, Note_off_c, 9, 38, 64
7, 70180, Note_off_c, 9, 35, 64
7, 70200, Note_on_c, 9, 38, 100
7, 70200, Note_on_c, 9, 42, 70
7, 70200, Note_on_c, 9, 37, 50
7, 70200, Note_on_c, 9, 54, 60
7, 70300, Note_off_c, 9, 54, 64
7, 70300, Note_off_c, 9, 37, 64
7, 70300, Note_off_c, 9, 42, 64
7, 70300, Note_off_c, 9, 38, 64
7, 70320, Note_on_c, 9, 38, 115
7, 70320, Note_on_c, 9, 42, 80
7, 70320, Note_on_c, 9, 37, 80
7, 70320, Note_on_c, 9, 56, 115
7, 70320, Note_on_c, 9, 54, 115
7, 70420, Note_off_c, 9, 54, 64
7, 70420, Note_off_c, 9, 56, 64
7, 70420, Note_off_c, 9, 37, 64
7, 70420, Note_off_c, 9, 42, 64
7, 70420, Note_off_c, 9, 38, 64
7, 70440, Note_on_c, 9, 38, 90
7, 70440, Note_on_c, 9, 42, 70
7, 70440, Note_on_c, 9, 37, 50
7, 70440, Note_on_c, 9, 54, 60
7, 70540, Note_off_c, 9, 54, 64
7, 70540, Note_off_c, 9, 37, 64
7, 70540, Note_off_c, 9, 42, 64
7, 70540, Note_off_c, 9, 38, 64
7, 70560, Note_on_c, 9, 35, 127
7, 70560, Note_on_c, 9, 38, 127
7, 70560, Note_on_c, 9, 42, 100
7, 70560, Note_on_c, 9, 37, 80
7, 70560, Note_on_c, 9, 54, 115
7, 70560, Note_on_c, 9, 39, 115
7, 70660, Note_off_c, 9, 39, 64
7, 70660, Note_off_c, 9, 54, 64
7, 70660, Note_off_c, 9, 37, 64
7, 70660, Note_off_c, 9, 42, 64
7, 70660, Note_off_c, 9, 38, 64
7, 70660, Note_off_c, 9, 35, 64
7, 70680, Note_on_c, 9, 35, 115
7, 70680, Note_on_c, 9, 38, 100
7, 70680, Note_on_c, 9, 42, 70
7, 70680, Note_on_c, 9, 37, 50
7, 70680, Note_on_c, 9, 54, 60
7, 70780, Note_off_c, 9, 54, 64
7, 70780, Note_off_c, 9, 37, 64
7, 70780, Note_off_c, 9, 42, 64
7, 70780, Note_off_c, 9, 38, 64
7, 70780, Note_off_c, 9, 35, 64
7, 70800, Note_on_c, 9, 35, 127
7, 70800, Note_on_c, 9, 38, 115
7, 70800, Note_on_c, 9, 42, 90
7, 70800, Note_on_c, 9, 37, 80
7, 70800, Note_on_c, 9, 54, 115
7, 70900, Note_off_c, 9, 54, 64
7, 70900, Note_off_c, 9, 37, 64
7, 70900, Note_off_c, 9, 42, 64
7, 70900, Note_off_c, 9, 38, 64
7, 70900, Note_off_c, 9, 35, 64
7, 70920, Note_on_c, 9, 35, 115
7, 70920, Note_on_c, 9, 38, 90
7, 70920, Note_on_c, 9, 42, 90
7, 70920, Note_on_c, 9, 37, 50
7, 70920, Note_on_c, 9, 54, 60
7, 71020, Note_off_c, 9, 54, 64
7, 71020, Note_off_c, 9, 37, 64
7, 71020, Note_off_c, 9, 42, 64
7, 71020, Note_off_c, 9, 38, 64
7, 71020, Note_off_c, 9, 35, 64
7, 71040, Note_on_c, 9, 35, 127
7, 71040, Note_on_c, 9, 42, 100
7, 71040, Note_on_c, 9, 37, 80
7, 71040, Note_on_c, 9, 56, 100
7, 71040, Note_on_c, 9, 49, 100
7, 71040, Note_on_c, 9, 54, 115
7, 71140, Note_off_c, 9, 54, 64
7, 71140, Note_off_c, 9, 49, 64
7, 71140, Note_off_c, 9, 56, 64
7, 71140, Note_off_c, 9, 37, 64
7, 71140, Note_off_c, 9, 42, 64
7, 71140, Note_off_c, 9, 35, 64
7, 71160, Note_on_c, 9, 42, 70
7, 71160, Note_on_c, 9, 37, 50
7, 71160, Note_on_c, 9, 54, 60
7, 71260, Note_off_c, 9, 54, 64
7, 71260, Note_off_c, 9, 37, 64
7, 71260, Note_off_c, 9, 42, 64
7, 71280, Note_on_c, 9, 42, 80
7, 71280, Note_on_c, 9, 37, 80
7, 71280, Note_on_c, 9, 56, 115
7, 71280, Note_on_c, 9, 54, 115
7, 71380, Note_off_c, 9, 54, 64
7, 71380, Note_off_c, 9, 56, 64
7, 71380, Note_off_c, 9, 37, 64
7, 71380, Note_off_c, 9, 42, 64
7, 71400, Note_on_c, 9, 42, 70
7, 71400, Note_on_c, 9, 37, 50
7, 71400, Note_on_c, 9, 54, 60
7, 71500, Note_off_c, 9, 54, 64
7, 71500, Note_off_c, 9, 37, 64
7, 71500, Note_off_c, 9, 42, 64
7, 71520, Note_on_c, 9, 35, 127
7, 71520, Note_on_c, 9, 38, 127
7, 71520, Note_on_c, 9, 42, 100
7, 71520, Note_on_c, 9, 37, 80
7, 71520, Note_on_c, 9, 54, 115
7, 71520, Note_on_c, 9, 39, 115
7, 71620, Note_off_c, 9, 39, 64
7, 71620, Note_off_c, 9, 54, 64
7, 71620, Note_off_c, 9, 37, 64
7, 71620, Note_off_c, 9, 42, 64
7, 71620, Note_off_c, 9, 38, 64
7, 71620, Note_off_c, 9, 35, 64
7, 71640, Note_on_c, 9, 42, 70
7, 71640, Note_on_c, 9, 37, 50
7, 71640, Note_on_c, 9, 54, 60
7, 71740, Note_off_c, 9, 54, 64
7, 71740, Note_off_c, 9, 37, 64
7, 71740, Note_off_c, 9, 42, 64
7, 71760, Note_on_c, 9, 42, 80
7, 71760, Note_on_c, 9, 37, 80
7, 71760, Note_on_c, 9, 56, 100
7, 71760, Note_on_c, 9, 54, 115
7, 71860, Note_off_c, 9, 54, 64
7, 71860, Note_off_c, 9, 56, 64
7, 71860, Note_off_c, 9, 37, 64
7, 71860, Note_off_c, 9, 42, 64
7, 71880, Note_on_c, 9, 35, 115
7, 71880, Note_on_c, 9, 42, 70
7, 71880, Note_on_c, 9, 37, 50
7, 71880, Note_on_c, 9, 56, 115
7, 71880, Note_on_c, 9, 54, 60
7, 71980, Note_off_c, 9, 54, 64
7, 71980, Note_off_c, 9, 56, 64
7, 71980, Note_off_c, 9, 37, 64
7, 71980, Note_off_c, 9, 42, 64
7, 71980, Note_off_c, 9, 35, 64
7, 72000, Note_on_c, 9, 35, 127
7, 72000, Note_on_c, 9, 42, 100
7, 72000, Note_on_c, 9, 37, 80
7, 72000, Note_on_c, 9, 56, 115
7, 72000, Note_on_c, 9, 54, 115
7, 72100, Note_off_c, 9, 54, 64
7, 72100, Note_off_c, 9, 56, 64
7, 72100, Note_off_c, 9, 37, 64
7, 72100, Note_off_c, 9, 42, 64
7, 72100, Note_off_c, 9, 35, 64
7, 72120, Note_on_c, 9, 42, 70
7, 72120, Note_on_c, 9, 37, 50
7, 72120, Note_on_c, 9, 54, 60
7, 72220, Note_off_c, 9, 54, 64
7, 72220, Note_off_c, 9, 37, 64
7, 72220, Note_off_c, 9, 42, 64
7, 72240, Note_on_c, 9, 42, 80
7, 72240, Note_on_c, 9, 37, 80
7, 72240, Note_on_c, 9, 56, 115
7, 72240, Note_on_c, 9, 54, 115
7, 72340, Note_off_c, 9, 54, 64
7, 72340, Note_off_c, 9, 56, 64
7, 72340, Note_off_c, 9, 37, 64
7, 72340, Note_off_c, 9, 42, 64
7, 72360, Note_on_c, 9, 42, 70
7, 72360, Note_on_c, 9, 37, 50
7, 72360, Note_on_c, 9, 54, 60
7, 72460, Note_off_c, 9, 54, 64
7, 72460, Note_off_c, 9, 37, 64
7, 72460, Note_off_c, 9, 42, 64
7, 72480, Note_on_c, 9, 35, 127
7, 72480, Note_on_c, 9, 38, 127
7, 72480, Note_on_c, 9, 42, 100
7, 72480, Note_on_c, 9, 37, 80
7, 72480, Note_on_c, 9, 54, 115
7, 72480, Note_on_c, 9, 39, 115
7, 72580, Note_off_c, 9, 39, 64
7, 72580, Note_off_c, 9, 54, 64
7, 72580, Note_off_c, 9, 37, 64
7, 72580, Note_off_c, 9, 42, 64
7, 72580, Note_off_c, 9, 38, 64
7, 72580, Note_off_c, 9, 35, 64
7, 72600, Note_on_c, 9, 35, 115
7, 72600, Note_on_c, 9, 42, 70
7, 72600, Note_on_c, 9, 37, 50
7, 72600, Note_on_c, 9, 54, 60
7, 72700, Note_off_c, 9, 54, 64
7, 72700, Note_off_c, 9, 37, 64
7, 72700, Note_off_c, 9, 42, 64
7, 72700, Note_off_c, 9, 35, 64
7, 72720, Note_on_c, 9, 35, 127
7, 72720, Note_on_c, 9, 42, 90
7, 72720, Note_on_c, 9, 37, 80
7, 72720, Note_on_c, 9, 54, 115
7, 72820, Note_off_c, 9, 54, 64
7, 72820, Note_off_c, 9, 37, 64
7, 72820, Note_off_c, 9, 42, 64
7, 72820, Note_off_c, 9, 35, 64
7, 72840, Note_on_c, 9, 35, 115
7, 72840, Note_on_c, 9, 42, 90
7, 72840, Note_on_c, 9, 37, 50
7, 72840, Note_on_c, 9, 54, 60
7, 72940, Note_off_c, 9, 54, 64
7, 72940, Note_off_c, 9, 37, 64
7, 72940, Note_off_c, 9, 42, 64
7, 72940, Note_off_c, 9, 35, 64
7, 72960, Note_on_c, 9, 35, 127
7, 72960, Note_on_c, 9, 42, 100
7, 72960, Note_on_c, 9, 37, 80
7, 72960, Note_on_c, 9, 56, 100
7, 72960, Note_on_c, 9, 54, 115
7, 73060, Note_off_c, 9, 54, 64
7, 73060, Note_off_c, 9, 56, 64
7, 73060, Note_off_c, 9, 37, 64
7, 73060, Note_off_c, 9, 42, 64
7, 73060, Note_off_c, 9, 35, 64
7, 73080, Note_on_c, 9, 42, 70
7, 73080, Note_on_c, 9, 37, 50
7, 73080, Note_on_c, 9, 54, 60
7, 73180, Note_off_c, 9, 54, 64
7, 73180, Note_off_c, 9, 37, 64
7, 73180, Note_off_c, 9, 42, 64
7, 73200, Note_on_c, 9, 42, 80
7, 73200, Note_on_c, 9, 37, 80
7, 73200, Note_on_c, 9, 56, 115
7, 73200, Note_on_c, 9, 54, 115
7, 73300, Note_off_c, 9, 54, 64
7, 73300, Note_off_c, 9, 56, 64
7, 73300, Note_off_c, 9, 37, 64
7, 73300, Note_off_c, 9, 42, 64
7, 73320, Note_on_c, 9, 42, 70
7, 73320, Note_on_c, 9, 37, 50
7, 73320, Note_on_c, 9, 54, 60
7, 73420, Note_off_c, 9, 54, 64
7, 73420, Note_off_c, 9, 37, 64
7, 73420, Note_off_c, 9, 42, 64
7, 73440, Note_on_c, 9, 35, 127
7, 73440, Note_on_c, 9, 38, 127
7, 73440, Note_on_c, 9, 42, 100
7, 73440, Note_on_c, 9, 37, 80
7, 73440, Note_on_c, 9, 54, 115
7, 73440, Note_on_c, 9, 39, 115
7, 73540, Note_off_c, 9, 39, 64
7, 73540, Note_off_c, 9, 54, 64
7, 73540, Note_off_c, 9, 37, 64
7, 73540, Note_off_c, 9, 42, 64
7, 73540, Note_off_c, 9, 38, 64
7, 73540, Note_off_c, 9, 35, 64
7, 73560, Note_on_c, 9, 42, 70
7, 73560, Note_on_c, 9, 37, 50
7, 73560, Note_on_c, 9, 54, 60
7, 73660, Note_off_c, 9, 54, 64
7, 73660, Note_off_c, 9, 37, 64
7, 73660, Note_off_c, 9, 42, 64
7, 73680, Note_on_c, 9, 42, 80
7, 73680, Note_on_c, 9, 37, 80
7, 73680, Note_on_c, 9, 56, 100
7, 73680, Note_on_c, 9, 54, 115
7, 73780, Note_off_c, 9, 54, 64
7, 73780, Note_off_c, 9, 56, 64
7, 73780, Note_off_c, 9, 37, 64
7, 73780, Note_off_c, 9, 42, 64
7, 73800, Note_on_c, 9, 35, 115
7, 73800, Note_on_c, 9, 42, 70
7, 73800, Note_on_c, 9, 37, 50
7, 73800, Note_on_c, 9, 56, 115
7, 73800, Note_on_c, 9, 54, 60
7, 73900, Note_off_c, 9, 54, 64
7, 73900, Note_off_c, 9, 56, 64
7, 73900, Note_off_c, 9, 37, 64
7, 73900, Note_off_c, 9, 42, 64
7, 73900, Note_off_c, 9, 35, 64
7, 73920, Note_on_c, 9, 35, 127
7, 73920, Note_on_c, 9, 42, 100
7, 73920, Note_on_c, 9, 37, 80
7, 73920, Note_on_c, 9, 56, 115
7, 73920, Note_on_c, 9, 54, 115
7, 74020, Note_off_c, 9, 54, 64
7, 74020, Note_off_c, 9, 56, 64
7, 74020, Note_off_c, 9, 37, 64
7, 74020, Note_off_c, 9, 42, 64
7, 74020, Note_off_c, 9, 35, 64
7, 74040, Note_on_c, 9, 42, 70
7, 74040, Note_on_c, 9, 37, 50
7, 74040, Note_on_c, 9, 54, 60
7, 74140, Note_off_c, 9, 54, 64
7, 74140, Note_off_c, 9, 37, 64
7, 74140, Note_off_c, 9, 42, 64
7, 74160, Note_on_c, 9, 42, 80
7, 74160, Note_on_c, 9, 37, 80
7, 74160, Note_on_c, 9, 56, 115
7, 74160, Note_on_c, 9, 54, 115
7, 74260, Note_off_c, 9, 54, 64
7, 74260, Note_off_c, 9, 56, 64
7, 74260, Note_off_c, 9, 37, 64
7, 74260, Note_off_c, 9, 42, 64
7, 74280, Note_on_c, 9, 42, 70
7, 74280, Note_on_c, 9, 37, 50
7, 74280, Note_on_c, 9, 54, 60
7, 74380, Note_off_c, 9, 54, 64
7, 74380, Note_off_c, 9, 37, 64
7, 74380, Note_off_c, 9, 42, 64
7, 74400, Note_on_c, 9, 35, 127
7, 74400, Note_on_c, 9, 38, 127
7, 74400, Note_on_c, 9, 42, 100
7, 74400, Note_on_c, 9, 37, 80
7, 74400, Note_on_c, 9, 54, 115
7, 74400, Note_on_c, 9, 39, 115
7, 74500, Note_off_c, 9, 39, 64
7, 74500, Note_off_c, 9, 54, 64
7, 74500, Note_off_c, 9, 37, 64
7, 74500, Note_off_c, 9, 42, 64
7, 74500, Note_off_c, 9, 38, 64
7, 74500, Note_off_c, 9, 35, 64
7, 74520, Note_on_c, 9, 35, 115
7, 74520, Note_on_c, 9, 42, 70
7, 74520, Note_on_c, 9, 37, 50
7, 74520, Note_on_c, 9, 54, 60
7, 74620, Note_off_c, 9, 54, 64
7, 74620, Note_off_c, 9, 37, 64
7, 74620, Note_off_c, 9, 42, 64
7, 74620, Note_off_c, 9, 35, 64
7, 74640, Note_on_c, 9, 35, 127
7, 74640, Note_on_c, 9, 42, 90
7, 74640, Note_on_c, 9, 37, 80
7, 74640, Note_on_c, 9, 54, 115
7, 74740, Note_off_c, 9, 54, 64
7, 74740, Note_off_c, 9, 37, 64
7, 74740, Note_off_c, 9, 42, 64
7, 74740, Note_off_c, 9, 35, 64
7, 74760, Note_on_c, 9, 35, 115
7, 74760, Note_on_c, 9, 42, 90
7, 74760, Note_on_c, 9, 37, 50
7, 74760, Note_on_c, 9, 54, 60
7, 74860, Note_off_c, 9, 54, 64
7, 74860, Note_off_c, 9, 37, 64
7, 74860, Note_off_c, 9, 42, 64
7, 74860, Note_off_c, 9, 35, 64
7, 74880, Note_on_c, 9, 35, 127
7, 74880, Note_on_c, 9, 42, 100
7, 74880, Note_on_c, 9, 37, 80
7, 74880, Note_on_c, 9, 56, 100
7, 74880, Note_on_c, 9, 54, 115
7, 74980, Note_off_c, 9, 54, 64
7, 74980, Note_off_c, 9, 56, 64
7, 74980, Note_off_c, 9, 37, 64
7, 74980, Note_off_c, 9, 42, 64
7, 74980, Note_off_c, 9, 35, 64
7, 75000, Note_on_c, 9, 42, 70
7, 75000, Note_on_c, 9, 37, 50
7, 75000, Note_on_c, 9, 54, 60
7, 75100, Note_off_c, 9, 54, 64
7, 75100, Note_off_c, 9, 37, 64
7, 75100, Note_off_c, 9, 42, 64
7, 75120, Note_on_c, 9, 42, 80
7, 75120, Note_on_c, 9, 37, 80
7, 75120, Note_on_c, 9, 56, 115
7, 75120, Note_on_c, 9, 54, 115
7, 75220, Note_off_c, 9, 54, 64
7, 75220, Note_off_c, 9, 56, 64
7, 75220, Note_off_c, 9, 37, 64
7, 75220, Note_off_c, 9, 42, 64
7, 75240, Note_on_c, 9, 42, 70
7, 75240, Note_on_c, 9, 37, 50
7, 75240, Note_on_c, 9, 54, 60
7, 75340, Note_off_c, 9, 54, 64
7, 75340, Note_off_c, 9, 37, 64
7, 75340, Note_off_c, 9, 42, 64
7, 75360, Note_on_c, 9, 35, 127
7, 75360, Note_on_c, 9, 38, 127
7, 75360, Note_on_c, 9, 42, 100
7, 75360, Note_on_c, 9, 37, 80
7, 75360, Note_on_c, 9, 54, 115
7, 75360, Note_on_c, 9, 39, 115
7, 75460, Note_off_c, 9, 39, 64
7, 75460, Note_off_c, 9, 54, 64
7, 75460, Note_off_c, 9, 37, 64
7, 75460, Note_off_c, 9, 42, 64
7, 75460, Note_off_c, 9, 38, 64
7, 75460, Note_off_c, 9, 35, 64
7, 75480, Note_on_c, 9, 42, 70
7, 75480, Note_on_c, 9, 37, 50
7, 75480, Note_on_c, 9, 54, 60
7, 75580, Note_off_c, 9, 54, 64
7, 75580, Note_off_c, 9, 37, 64
7, 75580, Note_off_c, 9, 42, 64
7, 75600, Note_on_c, 9, 42, 80
7, 75600, Note_on_c, 9, 37, 80
7, 75600, Note_on_c, 9, 56, 100
7, 75600, Note_on_c, 9, 54, 115
7, 75700, Note_off_c, 9, 54, 64
7, 75700, Note_off_c, 9, 56, 64
7, 75700, Note_off_c, 9, 37, 64
7, 75700, Note_off_c, 9, 42, 64
7, 75720, Note_on_c, 9, 35, 115
7, 75720, Note_on_c, 9, 42, 70
7, 75720, Note_on_c, 9, 37, 50
7, 75720, Note_on_c, 9, 56, 115
7, 75720, Note_on_c, 9, 54, 60
7, 75820, Note_off_c, 9, 54, 64
7, 75820, Note_off_c, 9, 56, 64
7, 75820, Note_off_c, 9, 37, 64
7, 75820, Note_off_c, 9, 42, 64
7, 75820, Note_off_c, 9, 35, 64
7, 75840, Note_on_c, 9, 35, 127
7, 75840, Note_on_c, 9, 42, 100
7, 75840, Note_on_c, 9, 37, 80
7, 75840, Note_on_c, 9, 56, 115
7, 75840, Note_on_c, 9, 54, 115
7, 75940, Note_off_c, 9, 54, 64
7, 75940, Note_off_c, 9, 56, 64
7, 75940, Note_off_c, 9, 37, 64
7, 75940, Note_off_c, 9, 42, 64
7, 75940, Note_off_c, 9, 35, 64
7, 75960, Note_on_c, 9, 42, 70
7, 75960, Note_on_c, 9, 37, 50
7, 75960, Note_on_c, 9, 54, 60
7, 76060, Note_off_c, 9, 54, 64
7, 76060, Note_off_c, 9, 37, 64
7, 76060, Note_off_c, 9, 42, 64
7, 76080, Note_on_c, 9, 42, 80
7, 76080, Note_on_c, 9, 37, 80
7, 76080, Note_on_c, 9, 56, 115
7, 76080, Note_on_c, 9, 54, 115
7, 76180, Note_off_c, 9, 54, 64
7, 76180, Note_off_c, 9, 56, 64
7, 76180, Note_off_c, 9, 37, 64
7, 76180, Note_off_c, 9, 42, 64
7, 76200, Note_on_c, 9, 42, 70
7, 76200, Note_on_c, 9, 37, 50
7, 76200, Note_on_c, 9, 54, 60
7, 76300, Note_off_c, 9, 54, 64
7, 76300, Note_off_c, 9, 37, 64
7, 76300, Note_off_c, 9, 42, 64
7, 76320, Note_on_c, 9, 35, 127
7, 76320, Note_on_c, 9, 38, 127
7, 76320, Note_on_c, 9, 42, 100
7, 76320, Note_on_c, 9, 37, 80
7, 76320, Note_on_c, 9, 54, 115
7, 76320, Note_on_c, 9, 39, 115
7, 76420, Note_off_c, 9, 39, 64
7, 76420, Note_off_c, 9, 54, 64
7, 76420, Note_off_c, 9, 37, 64
7, 76420, Note_off_c, 9, 42, 64
7, 76420, Note_off_c, 9, 38, 64
7, 76420, Note_off_c, 9, 35, 64
7, 76440, Note_on_c, 9, 35, 115
7, 76440, Note_on_c, 9, 42, 70
7, 76440, Note_on_c, 9, 37, 50
7, 76440, Note_on_c, 9, 54, 60
7, 76540, Note_off_c, 9, 54, 64
7, 76540, Note_off_c, 9, 37, 64
7, 76540, Note_off_c, 9, 42, 64
7, 76540, Note_off_c, 9, 35, 64
7, 76560, Note_on_c, 9, 35, 127
7, 76560, Note_on_c, 9, 42, 90
7, 76560, Note_on_c, 9, 37, 80
7, 76560, Note_on_c, 9, 54, 115
7, 76660, Note_off_c, 9, 54, 64
7, 76660, Note_off_c, 9, 37, 64
7, 76660, Note_off_c, 9, 42, 64
7, 76660, Note_off_c, 9, 35, 64
7, 76680, Note_on_c, 9, 35, 115
7, 76680, Note_on_c, 9, 42, 90
7, 76680, Note_on_c, 9, 37, 50
7, 76680, Note_on_c, 9, 54, 60
7, 76780, Note_off_c, 9, 54, 64
7, 76780, Note_off_c, 9, 37, 64
7, 76780, Note_off_c, 9, 42, 64
7, 76780, Note_off_c, 9, 35, 64
7, 76800, Note_on_c, 9, 35, 127
7, 76800, Note_on_c, 9, 38, 127
7, 76800, Note_on_c, 9, 42, 100
7, 76800, Note_on_c, 9, 37, 80
7, 76800, Note_on_c, 9, 56, 100
7, 76800, Note_on_c, 9, 54, 115
7, 76900, Note_off_c, 9, 54, 64
7, 76900, Note_off_c, 9, 56, 64
7, 76900, Note_off_c, 9, 37, 64
7, 76900, Note_off_c, 9, 42, 64
7, 76900, Note_off_c, 9, 38, 64
7, 76900, Note_off_c, 9, 35, 64
7, 76920, Note_on_c, 9, 38, 100
7, 76920, Note_on_c, 9, 42, 70
7, 76920, Note_on_c, 9, 37, 50
7, 76920, Note_on_c, 9, 54, 60
7, 77020, Note_off_c, 9, 54, 64
7, 77020, Note_off_c, 9, 37, 64
7, 77020, Note_off_c, 9, 42, 64
7, 77020, Note_off_c, 9, 38, 64
7, 77040, Note_on_c, 9, 38, 115
7, 77040, Note_on_c, 9, 42, 80
7, 77040, Note_on_c, 9, 37, 80
7, 77040, Note_on_c, 9, 56, 115
7, 77040, Note_on_c, 9, 54, 115
7, 77140, Note_off_c, 9, 54, 64
7, 77140, Note_off_c, 9, 56, 64
7, 77140, Note_off_c, 9, 37, 64
7, 77140, Note_off_c, 9, 42, 64
7, 77140, Note_off_c, 9, 38, 64
7, 77160, Note_on_c, 9, 38, 90
7, 77160, Note_on_c, 9, 42, 70
7, 77160, Note_on_c, 9, 37, 50
7, 77160, Note_on_c, 9, 54, 60
7, 77260, Note_off_c, 9, 54, 64
7, 77260, Note_off_c, 9, 37, 64
7, 77260, Note_off_c, 9, 42, 64
7, 77260, Note_off_c, 9, 38, 64
7, 77280, Note_on_c, 9, 35, 127
7, 77280, Note_on_c, 9, 38, 127
7, 77280, Note_on_c, 9, 42, 100
7, 77280, Note_on_c, 9, 37, 80
7, 77280, Note_on_c, 9, 54, 115
7, 77280, Note_on_c, 9, 39, 115
7, 77380, Note_off_c, 9, 39, 64
7, 77380, Note_off_c, 9, 54, 64
7, 77380, Note_off_c, 9, 37, 64
7, 77380, Note_off_c, 9, 42, 64
7, 77380, Note_off_c, 9, 38, 64
7, 77380, Note_off_c, 9, 35, 64
7, 77400, Note_on_c, 9, 38, 100
7, 77400, Note_on_c, 9, 42, 70
7, 77400, Note_on_c, 9, 37, 50
7, 77400, Note_on_c, 9, 54, 60
7, 77500, Note_off_c, 9, 54, 64
7, 77500, Note_off_c, 9, 37, 64
7, 77500, Note_off_c, 9, 42, 64
7, 77500, Note_off_c, 9, 38, 64
7, 77520, Note_on_c, 9, 38, 115
7, 77520, Note_on_c, 9, 42, 80
7, 77520, Note_on_c, 9, 37, 80
7, 77520, Note_on_c, 9, 56, 100
7, 77520, Note_on_c, 9, 54, 115
7, 77620, Note_off_c, 9, 54, 64
7, 77620, Note_off_c, 9, 56, 64
7, 77620, Note_off_c, 9, 37, 64
7, 77620, Note_off_c, 9, 42, 64
7, 77620, Note_off_c, 9, 38, 64
7, 77640, Note_on_c, 9, 35, 115
7, 77640, Note_on_c, 9, 38, 90
7, 77640, Note_on_c, 9, 42, 70
7, 77640, Note_on_c, 9, 37, 50
7, 77640, Note_on_c, 9, 56, 115
7, 77640, Note_on_c, 9, 54, 60
7, 77740, Note_off_c, 9, 54, 64
7, 77740, Note_off_c, 9, 56, 64
7, 77740, Note_off_c, 9, 37, 64
7, 77740, Note_off_c, 9, 42, 64
7, 77740, Note_off_c, 9, 38, 64
7, 77740, Note_off_c, 9, 35, 64
7, 77760, Note_on_c, 9, 35, 127
7, 77760, Note_on_c, 9, 38, 127
7, 77760, Note_on_c, 9, 42, 100
7, 77760, Note_on_c, 9, 37, 80
7, 77760, Note_on_c, 9, 56, 115
7, 77760, Note_on_c, 9, 54, 115
7, 77860, Note_off_c, 9, 54, 64
7, 77860, Note_off_c, 9, 56, 64
7, 77860, Note_off_c, 9, 37, 64
7, 77860, Note_off_c, 9, 42, 64
7, 77860, Note_off_c, 9, 38, 64
7, 77860, Note_off_c, 9, 35, 64
7, 77880, Note_on_c, 9, 38, 100
7, 77880, Note_on_c, 9, 42, 70
7, 77880, Note_on_c, 9, 37, 50
7, 77880, Note_on_c, 9, 54, 60
7, 77980, Note_off_c, 9, 54, 64
7, 77980, Note_off_c, 9, 37, 64
7, 77980, Note_off_c, 9, 42, 64
7, 77980, Note_off_c, 9, 38, 64
7, 78000, Note_on_c, 9, 38, 115
7, 78000, Note_on_c, 9, 42, 80
7, 78000, Note_on_c, 9, 37, 80
7, 78000, Note_on_c, 9, 56, 115
7, 78000, Note_on_c, 9, 54, 115
7, 78100, Note_off_c, 9, 54, 64
7, 78100, Note_off_c, 9, 56, 64
7, 78100, Note_off_c, 9, 37, 64
7, 78100, Note_off_c, 9, 42, 64
7, 78100, Note_off_c, 9, 38, 64
7, 78120, Note_on_c, 9, 38, 90
7, 78120, Note_on_c, 9, 42, 70
7, 78120, Note_on_c, 9, 37, 50
7, 78120, Note_on_c, 9, 54, 60
7, 78220, Note_off_c, 9, 54, 64
7, 78220, Note_off_c, 9, 37, 64
7, 78220, Note_off_c, 9, 42, 64
7, 78220, Note_off_c, 9, 38, 64
7, 78240, Note_on_c, 9, 35, 127
7, 78240, Note_on_c, 9, 38, 127
7, 78240, Note_on_c, 9, 42, 100
7, 78240, Note_on_c, 9, 37, 80
7, 78240, Note_on_c, 9, 54, 115
7, 78240, Note_on_c, 9, 39, 115
7, 78340, Note_off_c, 9, 39, 64
7, 78340, Note_off_c, 9, 54, 64
7, 78340, Note_off_c, 9, 37, 64
7, 78340, Note_off_c, 9, 42, 64
7, 78340, Note_off_c, 9, 38, 64
7, 78340, Note_off_c, 9, 35, 64
7, 78360, Note_on_c, 9, 35, 115
7, 78360, Note_on_c, 9, 38, 100
7, 78360, Note_on_c, 9, 42, 70
7, 78360, Note_on_c, 9, 37, 50
7, 78360, Note_on_c, 9, 54, 60
7, 78460, Note_off_c, 9, 54, 64
7, 78460, Note_off_c, 9, 37, 64
7, 78460, Note_off_c, 9, 42, 64
7, 78460, Note_off_c, 9, 38, 64
7, 78460, Note_off_c, 9, 35, 64
7, 78480, Note_on_c, 9, 35, 127
7, 78480, Note_on_c, 9, 38, 115
7, 78480, Note_on_c, 9, 42, 90
7, 78480, Note_on_c, 9, 37, 80
7, 78480, Note_on_c, 9, 54, 115
7, 78580, Note_off_c, 9, 54, 64
7, 78580, Note_off_c, 9, 37, 64
7, 78580, Note_off_c, 9, 42, 64
7, 78580, Note_off_c, 9, 38, 64
7, 78580, Note_off_c, 9, 35, 64
7, 78600, Note_on_c, 9, 35, 115
7, 78600, Note_on_c, 9, 38, 90
7, 78600, Note_on_c, 9, 42, 90
7, 78600, Note_on_c, 9, 37, 50
7, 78600, Note_on_c, 9, 54, 60
7, 78700, Note_off_c, 9, 54, 64
7, 78700, Note_off_c, 9, 37, 64
7, 78700, Note_off_c, 9, 42, 64
7, 78700, Note_off_c, 9, 38, 64
7, 78700, Note_off_c, 9, 35, 64
7, 78720, Note_on_c, 9, 35, 127
7, 78720, Note_on_c, 9, 42, 100
7, 78720, Note_on_c, 9, 37, 80
7, 78720, Note_on_c, 9, 56, 100
7, 78720, Note_on_c, 9, 49, 100
7, 78720, Note_on_c, 9, 54, 115
7, 78820, Note_off_c, 9, 54, 64
7, 78820, Note_off_c, 9, 49, 64
7, 78820, Note_off_c, 9, 56, 64
7, 78820, Note_off_c, 9, 37, 64
7, 78820, Note_off_c, 9, 42, 64
7, 78820, Note_off_c, 9, 35, 64
7, 78840, Note_on_c, 9, 42, 70
7, 78840, Note_on_c, 9, 37, 50
7, 78840, Note_on_c, 9, 54, 60
7, 78940, Note_off_c, 9, 54, 64
7, 78940, Note_off_c, 9, 37, 64
7, 78940, Note_off_c, 9, 42, 64
7, 78960, Note_on_c, 9, 42, 80
7, 78960, Note_on_c, 9, 37, 80
7, 78960, Note_on_c, 9, 56, 115
7, 78960, Note_on_c, 9, 54, 115
7, 79060, Note_off_c, 9, 54, 64
7, 79060, Note_off_c, 9, 56, 64
7, 79060, Note_off_c, 9, 37, 64
7, 79060, Note_off_c, 9, 42, 64
7, 79080, Note_on_c, 9, 42, 70
7, 79080, Note_on_c, 9, 37, 50
7, 79080, Note_on_c, 9, 54, 60
7, 79180, Note_off_c, 9, 54, 64
7, 79180, Note_off_c, 9, 37, 64
7, 79180, Note_off_c, 9, 42, 64
7, 79200, Note_on_c, 9, 35, 127
7, 79200, Note_on_c, 9, 38, 127
7, 79200, Note_on_c, 9, 42, 100
7, 79200, Note_on_c, 9, 37, 80
7, 79200, Note_on_c, 9, 54, 115
7, 79200, Note_on_c, 9, 39, 115
7, 79300, Note_off_c, 9, 39, 64
7, 79300, Note_off_c, 9, 54, 64
7, 79300, Note_off_c, 9, 37, 64
7, 79300, Note_off_c, 9, 42, 64
7, 79300, Note_off_c, 9, 38, 64
7, 79300, Note_off_c, 9, 35, 64
7, 79320, Note_on_c, 9, 42, 70
7, 79320, Note_on_c, 9, 37, 50
7, 79320, Note_on_c, 9, 54, 60
7, 79420, Note_off_c, 9, 54, 64
7, 79420, Note_off_c, 9, 37, 64
7, 79420, Note_off_c, 9, 42, 64
7, 79440, Note_on_c, 9, 42, 80
7, 79440, Note_on_c, 9, 37, 80
7, 79440, Note_on_c, 9, 56, 100
7, 79440, Note_on_c, 9, 54, 115
7, 79540, Note_off_c, 9, 54, 64
7, 79540, Note_off_c, 9, 56, 64
7, 79540, Note_off_c, 9, 37, 64
7, 79540, Note_off_c, 9, 42, 64
7, 79560, Note_on_c, 9, 35, 115
7, 79560, Note_on_c, 9, 42, 70
7, 79560, Note_on_c, 9, 37, 50
7, 79560, Note_on_c, 9, 56, 115
7, 79560, Note_on_c, 9, 54, 60
7, 79660, Note_off_c, 9, 54, 64
7, 79660, Note_off_c, 9, 56, 64
7, 79660, Note_off_c, 9, 37, 64
7, 79660, Note_off_c, 9, 42, 64
7, 79660, Note_off_c, 9, 35, 64
7, 79680, Note_on_c, 9, 35, 127
7, 79680, Note_on_c, 9, 42, 100
7, 79680, Note_on_c, 9, 37, 80
7, 79680, Note_on_c, 9, 56, 115
7, 79680, Note_on_c, 9, 54, 115
7, 79780, Note_off_c, 9, 54, 64
7, 79780, Note_off_c, 9, 56, 64
7, 79780, Note_off_c, 9, 37, 64
7, 79780, Note_off_c, 9, 42, 64
7, 79780, Note_off_c, 9, 35, 64
7, 79800, Note_on_c, 9, 42, 70
7, 79800, Note_on_c, 9, 37, 50
7, 79800, Note_on_c, 9, 54, 60
7, 79900, Note_off_c, 9, 54, 64
7, 79900, Note_off_c, 9, 37, 64
7, 79900, Note_off_c, 9, 42, 64
7, 79920, Note_on_c, 9, 42, 80
7, 79920, Note_on_c, 9, 37, 80
7, 79920, Note_on_c, 9, 56, 115
7, 79920, Note_on_c, 9, 54, 115
7, 80020, Note_off_c, 9, 54, 64
7, 80020, Note_off_c, 9, 56, 64
7, 80020, Note_off_c, 9, 37, 64
7, 80020, Note_off_c, 9, 42, 64
7, 80040, Note_on_c, 9, 42, 70
7, 80040, Note_on_c, 9, 37, 50
7, 80040, Note_on_c, 9, 54, 60
7, 80140, Note_off_c, 9, 54, 64
7, 80140, Note_off_c, 9, 37, 64
7, 80140, Note_off_c, 9, 42, 64
7, 80160, Note_on_c, 9, 35, 127
7, 80160, Note_on_c, 9, 38, 127
7, 80160, Note_on_c, 9, 42, 100
7, 80160, Note_on_c, 9, 37, 80
7, 80160, Note_on_c, 9, 54, 115
7, 80160, Note_on_c, 9, 39, 115
7, 80260, Note_off_c, 9, 39, 64
7, 80260, Note_off_c, 9, 54, 64
7, 80260, Note_off_c, 9, 37, 64
7, 80260, Note_off_c, 9, 42, 64
7, 80260, Note_off_c, 9, 38, 64
7, 80260, Note_off_c, 9, 35, 64
7, 80280, Note_on_c, 9, 35, 115
7, 80280, Note_on_c, 9, 42, 70
7, 80280, Note_on_c, 9, 37, 50
7, 80280, Note_on_c, 9, 54, 60
7, 80380, Note_off_c, 9, 54, 64
7, 80380, Note_off_c, 9, 37, 64
7, 80380, Note_off_c, 9, 42, 64
7, 80380, Note_off_c, 9, 35, 64
7, 80400, Note_on_c, 9, 35, 127
7, 80400, Note_on_c, 9, 42, 90
7, 80400, Note_on_c, 9, 37, 80
7, 80400, Note_on_c, 9, 54, 115
7, 80500, Note_off_c, 9, 54, 64
7, 80500, Note_off_c, 9, 37, 64
7, 80500, Note_off_c, 9, 42, 64
7, 80500, Note_off_c, 9, 35, 64
7, 80520, Note_on_c, 9, 35, 115
7, 80520, Note_on_c, 9, 42, 90
7, 80520, Note_on_c, 9, 37, 50
7, 80520, Note_on_c, 9, 54, 60
7, 80620, Note_off_c, 9, 54, 64
7, 80620, Note_off_c, 9, 37, 64
7, 80620, Note_off_c, 9, 42, 64
7, 80620, Note_off_c, 9, 35, 64
7, 80640, Note_on_c, 9, 35, 127
7, 80640, Note_on_c, 9, 42, 100
7, 80640, Note_on_c, 9, 37, 80
7, 80640, Note_on_c, 9, 56, 100
7, 80640, Note_on_c, 9, 54, 115
7, 80740, Note_off_c, 9, 54, 64
7, 80740, Note_off_c, 9, 56, 64
7, 80740, Note_off_c, 9, 37, 64
7, 80740, Note_off_c, 9, 42, 64
7, 80740, Note_off_c, 9, 35, 64
7, 80760, Note_on_c, 9, 42, 70
7, 80760, Note_on_c, 9, 37, 50
7, 80760, Note_on_c, 9, 54, 60
7, 80860, Note_off_c, 9, 54, 64
7, 80860, Note_off_c, 9, 37, 64
7, 80860, Note_off_c, 9, 42, 64
7, 80880, Note_on_c, 9, 42, 80
7, 80880, Note_on_c, 9, 37, 80
7, 80880, Note_on_c, 9, 56, 115
7, 80880, Note_on_c, 9, 54, 115
7, 80980, Note_off_c, 9, 54, 64
7, 80980, Note_off_c, 9, 56, 64
7, 80980, Note_off_c, 9, 37, 64
7, 80980, Note_off_c, 9, 42, 64
7, 81000, Note_on_c, 9, 42, 70
7, 81000, Note_on_c, 9, 37, 50
7, 81000, Note_on_c, 9, 54, 60
7, 81100, Note_off_c, 9, 54, 64
7, 81100, Note_off_c, 9, 37, 64
7, 81100, Note_off_c, 9, 42, 64
7, 81120, Note_on_c, 9, 35, 127
7, 81120, Note_on_c, 9, 38, 127
7, 81120, Note_on_c, 9, 42, 100
7, 81120, Note_on_c, 9, 37, 80
7, 81120, Note_on_c, 9, 54, 115
7, 81120, Note_on_c, 9, 39, 115
7, 81220, Note_off_c, 9, 39, 64
7, 81220, Note_off_c, 9, 54, 64
7, 81220, Note_off_c, 9, 37, 64
7, 81220, Note_off_c, 9, 42, 64
7, 81220, Note_off_c, 9, 38, 64
7, 81220, Note_off_c, 9, 35, 64
7, 81240, Note_on_c, 9, 42, 70
7, 81240, Note_on_c, 9, 37, 50
7, 81240, Note_on_c, 9, 54, 60
7, 81340, Note_off_c, 9, 54, 64
7, 81340, Note_off_c, 9, 37, 64
7, 81340, Note_off_c, 9, 42, 64
7, 81360, Note_on_c, 9, 42, 80
7, 81360, Note_on_c, 9, 37, 80
7, 81360, Note_on_c, 9, 56, 100
7, 81360, Note_on_c, 9, 54, 115
7, 81460, Note_off_c, 9, 54, 64
7, 81460, Note_off_c, 9, 56, 64
7, 81460, Note_off_c, 9, 37, 64
7, 81460, Note_off_c, 9, 42, 64
7, 81480, Note_on_c, 9, 35, 115
7, 81480, Note_on_c, 9, 42, 70
7, 81480, Note_on_c, 9, 37, 50
7, 81480, Note_on_c, 9, 56, 115
7, 81480, Note_on_c, 9, 54, 60
7, 81580, Note_off_c, 9, 54, 64
7, 81580, Note_off_c, 9, 56, 64
7, 81580, Note_off_c, 9, 37, 64
7, 81580, Note_off_c, 9, 42, 64
7, 81580, Note_off_c, 9, 35, 64
7, 81600, Note_on_c, 9, 35, 127
7, 81600, Note_on_c, 9, 42, 100
7, 81600, Note_on_c, 9, 37, 80
7, 81600, Note_on_c, 9, 56, 115
7, 81600, Note_on_c, 9, 54, 115
7, 81700, Note_off_c, 9, 54, 64
7, 81700, Note_off_c, 9, 56, 64
7, 81700, Note_off_c, 9, 37, 64
7, 81700, Note_off_c, 9, 42, 64
7, 81700, Note_off_c, 9, 35, 64
7, 81720, Note_on_c, 9, 42, 70
7, 81720, Note_on_c, 9, 37, 50
7, 81720, Note_on_c, 9, 54, 60
7, 81820, Note_off_c, 9, 54, 64
7, 81820, Note_off_c, 9, 37, 64
7, 81820, Note_off_c, 9, 42, 64
7, 81840, Note_on_c, 9, 42, 80
7, 81840, Note_on_c, 9, 37, 80
7, 81840, Note_on_c, 9, 56, 115
7, 81840, Note_on_c, 9, 54, 115
7, 81940, Note_off_c, 9, 54, 64
7, 81940, Note_off_c, 9, 56, 64
7, 81940, Note_off_c, 9, 37, 64
7, 81940, Note_off_c, 9, 42, 64
7, 81960, Note_on_c, 9, 42, 70
7, 81960, Note_on_c, 9, 37, 50
7, 81960, Note_on_c, 9, 54, 60
7, 82060, Note_off_c, 9, 54, 64
7, 82060, Note_off_c, 9, 37, 64
7, 82060, Note_off_c, 9, 42, 64
7, 82080, Note_on_c, 9, 35, 127
7, 82080, Note_on_c, 9, 38, 127
7, 82080, Note_on_c, 9, 42, 100
7, 82080, Note_on_c, 9, 37, 80
7, 82080, Note_on_c, 9, 54, 115
7, 82080, Note_on_c, 9, 39, 115
7, 82180, Note_off_c, 9, 39, 64
7, 82180, Note_off_c, 9, 54, 64
7, 82180, Note_off_c, 9, 37, 64
7, 82180, Note_off_c, 9, 42, 64
7, 82180, Note_off_c, 9, 38, 64
7, 82180, Note_off_c, 9, 35, 64
7, 82200, Note_on_c, 9, 35, 115
7, 82200, Note_on_c, 9, 42, 70
7, 82200, Note_on_c, 9, 37, 50
7, 82200, Note_on_c, 9, 54, 60
7, 82300, Note_off_c, 9, 54, 64
7, 82300, Note_off_c, 9, 37, 64
7, 82300, Note_off_c, 9, 42, 64
7, 82300, Note_off_c, 9, 35, 64
7, 82320, Note_on_c, 9, 35, 127
7, 82320, Note_on_c, 9, 42, 90
7, 82320, Note_on_c, 9, 37, 80
7, 82320, Note_on_c, 9, 54, 115
7, 82420, Note_off_c, 9, 54, 64
7, 82420, Note_off_c, 9, 37, 64
7, 82420, Note_off_c, 9, 42, 64
7, 82420, Note_off_c, 9, 35, 64
7, 82440, Note_on_c, 9, 35, 115
7, 82440, Note_on_c, 9, 42, 90
7, 82440, Note_on_c, 9, 37, 50
7, 82440, Note_on_c, 9, 54, 60
7, 82540, Note_off_c, 9, 54, 64
7, 82540, Note_off_c, 9, 37, 64
7, 82540, Note_off_c, 9, 42, 64
7, 82540, Note_off_c, 9, 35, 64
7, 82560, Note_on_c, 9, 35, 127
7, 82560, Note_on_c, 9, 42, 100
7, 82560, Note_on_c, 9, 37, 80
7, 82560, Note_on_c, 9, 56, 100
7, 82560, Note_on_c, 9, 54, 115
7, 82660, Note_off_c, 9, 54, 64
7, 82660, Note_off_c, 9, 56, 64
7, 82660, Note_off_c, 9, 37, 64
7, 82660, Note_off_c, 9, 42, 64
7, 82660, Note_off_c, 9, 35, 64
7, 82680, Note_on_c, 9, 42, 70
7, 82680, Note_on_c, 9, 37, 50
7, 82680, Note_on_c, 9, 54, 60
7, 82780, Note_off_c, 9, 54, 64
7, 82780, Note_off_c, 9, 37, 64
7, 82780, Note_off_c, 9, 42, 64
7, 82800, Note_on_c, 9, 42, 80
7, 82800, Note_on_c, 9, 37, 80
7, 82800, Note_on_c, 9, 56, 115
7, 82800, Note_on_c, 9, 54, 115
7, 82900, Note_off_c, 9, 54, 64
7, 82900, Note_off_c, 9, 56, 64
7, 82900, Note_off_c, 9, 37, 64
7, 82900, Note_off_c, 9, 42, 64
7, 82920, Note_on_c, 9, 42, 70
7, 82920, Note_on_c, 9, 37, 50
7, 82920, Note_on_c, 9, 54, 60
7, 83020, Note_off_c, 9, 54, 64
7, 83020, Note_off_c, 9, 37, 64
7, 83020, Note_off_c, 9, 42, 64
7, 83040, Note_on_c, 9, 35, 127
7, 83040, Note_on_c, 9, 38, 127
7, 83040, Note_on_c, 9, 42, 100
7, 83040, Note_on_c, 9, 37, 80
7, 83040, Note_on_c, 9, 54, 115
7, 83040, Note_on_c, 9, 39, 115
7, 83140, Note_off_c, 9, 39, 64
7, 83140, Note_off_c, 9, 54, 64
7, 83140, Note_off_c, 9, 37, 64
7, 83140, Note_off_c, 9, 42, 64
7, 83140, Note_off_c, 9, 38, 64
7, 83140, Note_off_c, 9, 35, 64
7, 83160, Note_on_c, 9, 42, 70
7, 83160, Note_on_c, 9, 37, 50
7, 83160, Note_on_c, 9, 54, 60
7, 83260, Note_off_c, 9, 54, 64
7, 83260, Note_off_c, 9, 37, 64
7, 83260, Note_off_c, 9, 42, 64
7, 83280, Note_on_c, 9, 42, 80
7, 83280, Note_on_c, 9, 37, 80
7, 83280, Note_on_c, 9, 56, 100
7, 83280, Note_on_c, 9, 54, 115
7, 83380, Note_off_c, 9, 54, 64
7, 83380, Note_off_c, 9, 56, 64
7, 83380, Note_off_c, 9, 37, 64
7, 83380, Note_off_c, 9, 42, 64
7, 83400, Note_on_c, 9, 35, 115
7, 83400, Note_on_c, 9, 42, 70
7, 83400, Note_on_c, 9, 37, 50
7, 83400, Note_on_c, 9, 56, 115
7, 83400, Note_on_c, 9, 54, 60
7, 83500, Note_off_c, 9, 54, 64
7, 83500, Note_off_c, 9, 56, 64
7, 83500, Note_off_c, 9, 37, 64
7, 83500, Note_off_c, 9, 42, 64
7, 83500, Note_off_c, 9, 35, 64
7, 83520, Note_on_c, 9, 35, 127
7, 83520, Note_on_c, 9, 42, 100
7, 83520, Note_on_c, 9, 37, 80
7, 83520, Note_on_c, 9, 56, 115
7, 83520, Note_on_c, 9, 54, 115
7, 83620, Note_off_c, 9, 54, 64
7, 83620, Note_off_c, 9, 56, 64
7, 83620, Note_off_c, 9, 37, 64
7, 83620, Note_off_c, 9, 42, 64
7, 83620, Note_off_c, 9, 35, 64
7, 83640, Note_on_c, 9, 42, 70
7, 83640, Note_on_c, 9, 37, 50
7, 83640, Note_on_c, 9, 54, 60
7, 83740, Note_off_c, 9, 54, 64
7, 83740, Note_off_c, 9, 37, 64
7, 83740, Note_off_c, 9, 42, 64
7, 83760, Note_on_c, 9, 42, 80
7, 83760, Note_on_c, 9, 37, 80
7, 83760, Note_on_c, 9, 56, 115
7, 83760, Note_on_c, 9, 54, 115
7, 83860, Note_off_c, 9, 54, 64
7, 83860, Note_off_c, 9, 56, 64
7, 83860, Note_off_c, 9, 37, 64
7, 83860, Note_off_c, 9, 42, 64
7, 83880, Note_on_c, 9, 42, 70
7, 83880, Note_on_c, 9, 37, 50
7, 83880, Note_on_c, 9, 54, 60
7, 83980, Note_off_c, 9, 54, 64
7, 83980, Note_off_c, 9, 37, 64
7, 83980, Note_off_c, 9, 42, 64
7, 84000, Note_on_c, 9, 35, 127
7, 84000, Note_on_c, 9, 38, 127
7, 84000, Note_on_c, 9, 42, 100
7, 84000, Note_on_c, 9, 37, 80
7, 84000, Note_on_c, 9, 54, 115
7, 84000, Note_on_c, 9, 39, 115
7, 84100, Note_off_c, 9, 39, 64
7, 84100, Note_off_c, 9, 54, 64
7, 84100, Note_off_c, 9, 37, 64
7, 84100, Note_off_c, 9, 42, 64
7, 84100, Note_off_c, 9, 38, 64
7, 84100, Note_off_c, 9, 35, 64
7, 84120, Note_on_c, 9, 35, 115
7, 84120, Note_on_c, 9, 42, 70
7, 84120, Note_on_c, 9, 37, 50
7, 84120, Note_on_c, 9, 54, 60
7, 84220, Note_off_c, 9, 54, 64
7, 84220, Note_off_c, 9, 37, 64
7, 84220, Note_off_c, 9, 42, 64
7, 84220, Note_off_c, 9, 35, 64
7, 84240, Note_on_c, 9, 35, 127
7, 84240, Note_on_c, 9, 42, 90
7, 84240, Note_on_c, 9, 37, 80
7, 84240, Note_on_c, 9, 54, 115
7, 84340, Note_off_c, 9, 54, 64
7, 84340, Note_off_c, 9, 37, 64
7, 84340, Note_off_c, 9, 42, 64
7, 84340, Note_off_c, 9, 35, 64
7, 84360, Note_on_c, 9, 35, 115
7, 84360, Note_on_c, 9, 42, 90
7, 84360, Note_on_c, 9, 37, 50
7, 84360, Note_on_c, 9, 54, 60
7, 84460, Note_off_c, 9, 54, 64
7, 84460, Note_off_c, 9, 37, 64
7, 84460, Note_off_c, 9, 42, 64
7, 84460, Note_off_c, 9, 35, 64
7, 84480, Note_on_c, 9, 35, 127
7, 84480, Note_on_c, 9, 42, 100
7, 84480, Note_on_c, 9, 37, 80
7, 84480, Note_on_c, 9, 56, 100
7, 84480, Note_on_c, 9, 54, 115
7, 84580, Note_off_c, 9, 54, 64
7, 84580, Note_off_c, 9, 56, 64
7, 84580, Note_off_c, 9, 37, 64
7, 84580, Note_off_c, 9, 42, 64
7, 84580, Note_off_c, 9, 35, 64
7, 84600, Note_on_c, 9, 42, 70
7, 84600, Note_on_c, 9, 37, 50
7, 84600, Note_on_c, 9, 54, 60
7, 84700, Note_off_c, 9, 54, 64
7, 84700, Note_off_c, 9, 37, 64
7, 84700, Note_off_c, 9, 42, 64
7, 84720, Note_on_c, 9, 42, 80
7, 84720, Note_on_c, 9, 37, 80
7, 84720, Note_on_c, 9, 56, 115
7, 84720, Note_on_c, 9, 54, 115
7, 84820, Note_off_c, 9, 54, 64
7, 84820, Note_off_c, 9, 56, 64
7, 84820, Note_off_c, 9, 37, 64
7, 84820, Note_off_c, 9, 42, 64
7, 84840, Note_on_c, 9, 42, 70
7, 84840, Note_on_c, 9, 37, 50
7, 84840, Note_on_c, 9, 54, 60
7, 84940, Note_off_c, 9, 54, 64
7, 84940, Note_off_c, 9, 37, 64
7, 84940, Note_off_c, 9, 42, 64
7, 84960, Note_on_c, 9, 35, 127
7, 84960, Note_on_c, 9, 38, 127
7, 84960, Note_on_c, 9, 42, 100
7, 84960, Note_on_c, 9, 37, 80
7, 84960, Note_on_c, 9, 54, 115
7, 84960, Note_on_c, 9, 39, 115
7, 85060, Note_off_c, 9, 39, 64
7, 85060, Note_off_c, 9, 54, 64
7, 85060, Note_off_c, 9, 37, 64
7, 85060, Note_off_c, 9, 42, 64
7, 85060, Note_off_c, 9, 38, 64
7, 85060, Note_off_c, 9, 35, 64
7, 85080, Note_on_c, 9, 42, 70
7, 85080, Note_on_c, 9, 37, 50
7, 85080, Note_on_c, 9, 54, 60
7, 85180, Note_off_c, 9, 54, 64
7, 85180, Note_off_c, 9, 37, 64
7, 85180, Note_off_c, 9, 42, 64
7, 85200, Note_on_c, 9, 42, 80
7, 85200, Note_on_c, 9, 37, 80
7, 85200, Note_on_c, 9, 56, 100
7, 85200, Note_on_c, 9, 54, 115
7, 85300, Note_off_c, 9, 54, 64
7, 85300, Note_off_c, 9, 56, 64
7, 85300, Note_off_c, 9, 37, 64
7, 85300, Note_off_c, 9, 42, 64
7, 85320, Note_on_c, 9, 35, 115
7, 85320, Note_on_c, 9, 42, 70
7, 85320, Note_on_c, 9, 37, 50
7, 85320, Note_on_c, 9, 56, 115
7, 85320, Note_on_c, 9, 54, 60
7, 85420, Note_off_c, 9, 54, 64
7, 85420, Note_off_c, 9, 56, 64
7, 85420, Note_off_c, 9, 37, 64
7, 85420, Note_off_c, 9, 42, 64
7, 85420, Note_off_c, 9, 35, 64
7, 85440, Note_on_c, 9, 35, 127
7, 85440, Note_on_c, 9, 42, 100
7, 85440, Note_on_c, 9, 37, 80
7, 85440, Note_on_c, 9, 56, 115
7, 85440, Note_on_c, 9, 54, 115
7, 85540, Note_off_c, 9, 54, 64
7, 85540, Note_off_c, 9, 56, 64
7, 85540, Note_off_c, 9, 37, 64
7, 85540, Note_off_c, 9, 42, 64
7, 85540, Note_off_c, 9, 35, 64
7, 85560, Note_on_c, 9, 42, 70
7, 85560, Note_on_c, 9, 37, 50
7, 85560, Note_on_c, 9, 54, 60
7, 85660, Note_off_c, 9, 54, 64
7, 85660, Note_off_c, 9, 37, 64
7, 85660, Note_off_c, 9, 42, 64
7, 85680, Note_on_c, 9, 42, 80
7, 85680, Note_on_c, 9, 37, 80
7, 85680, Note_on_c, 9, 56, 115
7, 85680, Note_on_c, 9, 54, 115
7, 85780, Note_off_c, 9, 54, 64
7, 85780, Note_off_c, 9, 56, 64
7, 85780, Note_off_c, 9, 37, 64
7, 85780, Note_off_c, 9, 42, 64
7, 85800, Note_on_c, 9, 42, 70
7, 85800, Note_on_c, 9, 37, 50
7, 85800, Note_on_c, 9, 54, 60
7, 85900, Note_off_c, 9, 54, 64
7, 85900, Note_off_c, 9, 37, 64
7, 85900, Note_off_c, 9, 42, 64
7, 85920, Note_on_c, 9, 35, 127
7, 85920, Note_on_c, 9, 38, 127
7, 85920, Note_on_c, 9, 42, 100
7, 85920, Note_on_c, 9, 37, 80
7, 85920, Note_on_c, 9, 54, 115
7, 85920, Note_on_c, 9, 39, 115
7, 86020, Note_off_c, 9, 39, 64
7, 86020, Note_off_c, 9, 54, 64
7, 86020, Note_off_c, 9, 37, 64
7, 86020, Note_off_c, 9, 42, 64
7, 86020, Note_off_c, 9, 38, 64
7, 86020, Note_off_c, 9, 35, 64
7, 86040, Note_on_c, 9, 35, 115
7, 86040, Note_on_c, 9, 42, 70
7, 86040, Note_on_c, 9, 37, 50
7, 86040, Note_on_c, 9, 54, 60
7, 86140, Note_off_c, 9, 54, 64
7, 86140, Note_off_c, 9, 37, 64
7, 86140, Note_off_c, 9, 42, 64
7, 86140, Note_off_c, 9, 35, 64
7, 86160, Note_on_c, 9, 35, 127
7, 86160, Note_on_c, 9, 42, 90
7, 86160, Note_on_c, 9, 37, 80
7, 86160, Note_on_c, 9, 54, 115
7, 86260, Note_off_c, 9, 54, 64
7, 86260, Note_off_c, 9, 37, 64
7, 86260, Note_off_c, 9, 42, 64
7, 86260, Note_off_c, 9, 35, 64
7, 86280, Note_on_c, 9, 35, 115
7, 86280, Note_on_c, 9, 42, 90
7, 86280, Note_on_c, 9, 37, 50
7, 86280, Note_on_c, 9, 54, 60
7, 86380, Note_off_c, 9, 54, 64
7, 86380, Note_off_c, 9, 37, 64
7, 86380, Note_off_c, 9, 42, 64
7, 86380, Note_off_c, 9, 35, 64
7, 86400, Note_on_c, 9, 35, 127
7, 86400, Note_on_c, 9, 42, 100
7, 86400, Note_on_c, 9, 37, 80
7, 86400, Note_on_c, 9, 56, 100
7, 86400, Note_on_c, 9, 54, 115
7, 86500, Note_off_c, 9, 54, 64
7, 86500, Note_off_c, 9, 56, 64
7, 86500, Note_off_c, 9, 37, 64
7, 86500, Note_off_c, 9, 42, 64
7, 86500, Note_off_c, 9, 35, 64
7, 86520, Note_on_c, 9, 42, 70
7, 86520, Note_on_c, 9, 37, 50
7, 86520, Note_on_c, 9, 54, 60
7, 86620, Note_off_c, 9, 54, 64
7, 86620, Note_off_c, 9, 37, 64
7, 86620, Note_off_c, 9, 42, 64
7, 86640, Note_on_c, 9, 42, 80
7, 86640, Note_on_c, 9, 37, 80
7, 86640, Note_on_c, 9, 56, 115
7, 86640, Note_on_c, 9, 54, 115
7, 86740, Note_off_c, 9, 54, 64
7, 86740, Note_off_c, 9, 56, 64
7, 86740, Note_off_c, 9, 37, 64
7, 86740, Note_off_c, 9, 42, 64
7, 86760, Note_on_c, 9, 42, 70
7, 86760, Note_on_c, 9, 37, 50
7, 86760, Note_on_c, 9, 54, 60
7, 86860, Note_off_c, 9, 54, 64
7, 86860, Note_off_c, 9, 37, 64
7, 86860, Note_off_c, 9, 42, 64
7, 86880, Note_on_c, 9, 35, 127
7, 86880, Note_on_c, 9, 38, 127
7, 86880, Note_on_c, 9, 42, 100
7, 86880, Note_on_c, 9, 37, 80
7, 86880, Note_on_c, 9, 54, 115
7, 86880, Note_on_c, 9, 39, 115
7, 86980, Note_off_c, 9, 39, 64
7, 86980, Note_off_c, 9, 54, 64
7, 86980, Note_off_c, 9, 37, 64
7, 86980, Note_off_c, 9, 42, 64
7, 86980, Note_off_c, 9, 38, 64
7, 86980, Note_off_c, 9, 35, 64
7, 87000, Note_on_c, 9, 42, 70
7, 87000, Note_on_c, 9, 37, 50
7, 87000, Note_on_c, 9, 54, 60
7, 87100, Note_off_c, 9, 54, 64
7, 87100, Note_off_c, 9, 37, 64
7, 87100, Note_off_c, 9, 42, 64
7, 87120, Note_on_c, 9, 42, 80
7, 87120, Note_on_c, 9, 37, 80
7, 87120, Note_on_c, 9, 56, 100
7, 87120, Note_on_c, 9, 54, 115
7, 87220, Note_off_c, 9, 54, 64
7, 87220, Note_off_c, 9, 56, 64
7, 87220, Note_off_c, 9, 37, 64
7, 87220, Note_off_c, 9, 42, 64
7, 87240, Note_on_c, 9, 35, 115
7, 87240, Note_on_c, 9, 42, 70
7, 87240, Note_on_c, 9, 37, 50
7, 87240, Note_on_c, 9, 56, 115
7, 87240, Note_on_c, 9, 54, 60
7, 87340, Note_off_c, 9, 54, 64
7, 87340, Note_off_c, 9, 56, 64
7, 87340, Note_off_c, 9, 37, 64
7, 87340, Note_off_c, 9, 42, 64
7, 87340, Note_off_c, 9, 35, 64
7, 87360, Note_on_c, 9, 35, 127
7, 87360, Note_on_c, 9, 42, 100
7, 87360, Note_on_c, 9, 37, 80
7, 87360, Note_on_c, 9, 56, 115
7, 87360, Note_on_c, 9, 54, 115
7, 87460, Note_off_c, 9, 54, 64
7, 87460, Note_off_c, 9, 56, 64
7, 87460, Note_off_c, 9, 37, 64
7, 87460, Note_off_c, 9, 42, 64
7, 87460, Note_off_c, 9, 35, 64
7, 87480, Note_on_c, 9, 42, 70
7, 87480, Note_on_c, 9, 37, 50
7, 87480, Note_on_c, 9, 54, 60
7, 87580, Note_off_c, 9, 54, 64
7, 87580, Note_off_c, 9, 37, 64
7, 87580, Note_off_c, 9, 42, 64
7, 87600, Note_on_c, 9, 42, 80
7, 87600, Note_on_c, 9, 37, 80
7, 87600, Note_on_c, 9, 56, 115
7, 87600, Note_on_c, 9, 54, 115
7, 87700, Note_off_c, 9, 54, 64
7, 87700, Note_off_c, 9, 56, 64
7, 87700, Note_off_c, 9, 37, 64
7, 87700, Note_off_c, 9, 42, 64
7, 87720, Note_on_c, 9, 42, 70
7, 87720, Note_on_c, 9, 37, 50
7, 87720, Note_on_c, 9, 54, 60
7, 87820, Note_off_c, 9, 54, 64
7, 87820, Note_off_c, 9, 37, 64
7, 87820, Note_off_c, 9, 42, 64
7, 87840, Note_on_c, 9, 35, 127
7, 87840, Note_on_c, 9, 38, 127
7, 87840, Note_on_c, 9, 42, 100
7, 87840, Note_on_c, 9, 37, 80
7, 87840, Note_on_c, 9, 54, 115
7, 87840, Note_on_c, 9, 39, 115
7, 87940, Note_off_c, 9, 39, 64
7, 87940, Note_off_c, 9, 54, 64
7, 87940, Note_off_c, 9, 37, 64
7, 87940, Note_off_c, 9, 42, 64
7, 87940, Note_off_c, 9, 38, 64
7, 87940, Note_off_c, 9, 35, 64
7, 87960, Note_on_c, 9, 35, 115
7, 87960, Note_on_c, 9, 42, 70
7, 87960, Note_on_c, 9, 37, 50
7, 87960, Note_on_c, 9, 54, 60
7, 88060, Note_off_c, 9, 54, 64
7, 88060, Note_off_c, 9, 37, 64
7, 88060, Note_off_c, 9, 42, 64
7, 88060, Note_off_c, 9, 35, 64
7, 88080, Note_on_c, 9, 35, 127
7, 88080, Note_on_c, 9, 42, 90
7, 88080, Note_on_c, 9, 37, 80
7, 88080, Note_on_c, 9, 54, 115
7, 88180, Note_off_c, 9, 54, 64
7, 88180, Note_off_c, 9, 37, 64
7, 88180, Note_off_c, 9, 42, 64
7, 88180, Note_off_c, 9, 35, 64
7, 88200, Note_on_c, 9, 35, 115
7, 88200, Note_on_c, 9, 42, 90
7, 88200, Note_on_c, 9, 37, 50
7, 88200, Note_on_c, 9, 54, 60
7, 88300, Note_off_c, 9, 54, 64
7, 88300, Note_off_c, 9, 37, 64
7, 88300, Note_off_c, 9, 42, 64
7, 88300, Note_off_c, 9, 35, 64
7, 88320, Note_on_c, 9, 35, 127
7, 88320, Note_on_c, 9, 38, 127
7, 88320, Note_on_c, 9, 42, 100
7, 88320, Note_on_c, 9, 37, 80
7, 88320, Note_on_c, 9, 56, 100
7, 88320, Note_on_c, 9, 54, 115
7, 88420, Note_off_c, 9, 54, 64
7, 88420, Note_off_c, 9, 56, 64
7, 88420, Note_off_c, 9, 37, 64
7, 88420, Note_off_c, 9, 42, 64
7, 88420, Note_off_c, 9, 38, 64
7, 88420, Note_off_c, 9, 35, 64
7, 88440, Note_on_c, 9, 38, 100
7, 88440, Note_on_c, 9, 42, 70
7, 88440, Note_on_c, 9, 37, 50
7, 88440, Note_on_c, 9, 54, 60
7, 88540, Note_off_c, 9, 54, 64
7, 88540, Note_off_c, 9, 37, 64
7, 88540, Note_off_c, 9, 42, 64
7, 88540, Note_off_c, 9, 38, 64
7, 88560, Note_on_c, 9, 38, 115
7, 88560, Note_on_c, 9, 42, 80
7, 88560, Note_on_c, 9, 37, 80
7, 88560, Note_on_c, 9, 56, 115
7, 88560, Note_on_c, 9, 54, 115
7, 88660, Note_off_c, 9, 54, 64
7, 88660, Note_off_c, 9, 56, 64
7, 88660, Note_off_c, 9, 37, 64
7, 88660, Note_off_c, 9, 42, 64
7, 88660, Note_off_c, 9, 38, 64
7, 88680, Note_on_c, 9, 38, 90
7, 88680, Note_on_c, 9, 42, 70
7, 88680, Note_on_c, 9, 37, 50
7, 88680, Note_on_c, 9, 54, 60
7, 88780, Note_off_c, 9, 54, 64
7, 88780, Note_off_c, 9, 37, 64
7, 88780, Note_off_c, 9, 42, 64
7, 88780, Note_off_c, 9, 38, 64
7, 88800, Note_on_c, 9, 35, 127
7, 88800, Note_on_c, 9, 38, 127
7, 88800, Note_on_c, 9, 42, 100
7, 88800, Note_on_c, 9, 37, 80
7, 88800, Note_on_c, 9, 54, 115
7, 88800, Note_on_c, 9, 39, 115
7, 88900, Note_off_c, 9, 39, 64
7, 88900, Note_off_c, 9, 54, 64
7, 88900, Note_off_c, 9, 37, 64
7, 88900, Note_off_c, 9, 42, 64
7, 88900, Note_off_c, 9, 38, 64
7, 88900, Note_off_c, 9, 35, 64
7, 88920, Note_on_c, 9, 38, 100
7, 88920, Note_on_c, 9, 42, 70
7, 88920, Note_on_c, 9, 37, 50
7, 88920, Note_on_c, 9, 54, 60
7, 89020, Note_off_c, 9, 54, 64
7, 89020, Note_off_c, 9, 37, 64
7, 89020, Note_off_c, 9, 42, 64
7, 89020, Note_off_c, 9, 38, 64
7, 89040, Note_on_c, 9, 38, 115
7, 89040, Note_on_c, 9, 42, 80
7, 89040, Note_on_c, 9, 37, 80
7, 89040, Note_on_c, 9, 56, 100
7, 89040, Note_on_c, 9, 54, 115
7, 89140, Note_off_c, 9, 54, 64
7, 89140, Note_off_c, 9, 56, 64
7, 89140, Note_off_c, 9, 37, 64
7, 89140, Note_off_c, 9, 42, 64
7, 89140, Note_off_c, 9, 38, 64
7, 89160, Note_on_c, 9, 35, 115
7, 89160, Note_on_c, 9, 38, 90
7, 89160, Note_on_c, 9, 42, 70
7, 89160, Note_on_c, 9, 37, 50
7, 89160, Note_on_c, 9, 56, 115
7, 89160, Note_on_c, 9, 54, 60
7, 89260, Note_off_c, 9, 54, 64
7, 89260, Note_off_c, 9, 56, 64
7, 89260, Note_off_c, 9, 37, 64
7, 89260, Note_off_c, 9, 42, 64
7, 89260, Note_off_c, 9, 38, 64
7, 89260, Note_off_c, 9, 35, 64
7, 89280, Note_on_c, 9, 35, 127
7, 89280, Note_on_c, 9, 38, 127
7, 89280, Note_on_c, 9, 42, 100
7, 89280, Note_on_c, 9, 37, 80
7, 89280, Note_on_c, 9, 56, 115
7, 89280, Note_on_c, 9, 54, 115
7, 89380, Note_off_c, 9, 54, 64
7, 89380, Note_off_c, 9, 56, 64
7, 89380, Note_off_c, 9, 37, 64
7, 89380, Note_off_c, 9, 42, 64
7, 89380, Note_off_c, 9, 38, 64
7, 89380, Note_off_c, 9, 35, 64
7, 89400, Note_on_c, 9, 38, 100
7, 89400, Note_on_c, 9, 42, 70
7, 89400, Note_on_c, 9, 37, 50
7, 89400, Note_on_c, 9, 54, 60
7, 89500, Note_off_c, 9, 54, 64
7, 89500, Note_off_c, 9, 37, 64
7, 89500, Note_off_c, 9, 42, 64
7, 89500, Note_off_c, 9, 38, 64
7, 89520, Note_on_c, 9, 38, 115
7, 89520, Note_on_c, 9, 42, 80
7, 89520, Note_on_c, 9, 37, 80
7, 89520, Note_on_c, 9, 56, 115
7, 89520, Note_on_c, 9, 54, 115
7, 89620, Note_off_c, 9, 54, 64
7, 89620, Note_off_c, 9, 56, 64
7, 89620, Note_off_c, 9, 37, 64
7, 89620, Note_off_c, 9, 42, 64
7, 89620, Note_off_c, 9, 38, 64
7, 89640, Note_on_c, 9, 38, 90
7, 89640, Note_on_c, 9, 42, 70
7, 89640, Note_on_c, 9, 37, 50
7, 89640, Note_on_c, 9, 54, 60
7, 89740, Note_off_c, 9, 54, 64
7, 89740, Note_off_c, 9, 37, 64
7, 89740, Note_off_c, 9, 42, 64
7, 89740, Note_off_c, 9, 38, 64
7, 89760, Note_on_c, 9, 35, 127
7, 89760, Note_on_c, 9, 38, 127
7, 89760, Note_on_c, 9, 42, 100
7, 89760, Note_on_c, 9, 37, 80
7, 89760, Note_on_c, 9, 54, 115
7, 89760, Note_on_c, 9, 39, 115
7, 89860, Note_off_c, 9, 39, 64
7, 89860, Note_off_c, 9, 54, 64
7, 89860, Note_off_c, 9, 37, 64
7, 89860, Note_off_c, 9, 42, 64
7, 89860, Note_off_c, 9, 38, 64
7, 89860, Note_off_c, 9, 35, 64
7, 89880, Note_on_c, 9, 35, 115
7, 89880, Note_on_c, 9, 38, 100
7, 89880, Note_on_c, 9, 42, 70
7, 89880, Note_on_c, 9, 37, 50
7, 89880, Note_on_c, 9, 54, 60
7, 89980, Note_off_c, 9, 54, 64
7, 89980, Note_off_c, 9, 37, 64
7, 89980, Note_off_c, 9, 42, 64
7, 89980, Note_off_c, 9, 38, 64
7, 89980, Note_off_c, 9, 35, 64
7, 90000, Note_on_c, 9, 35, 127
7, 90000, Note_on_c, 9, 38, 115
7, 90000, Note_on_c, 9, 42, 90
7, 90000, Note_on_c, 9, 37, 80
7, 90000, Note_on_c, 9, 54, 115
7, 90100, Note_off_c, 9, 54, 64
7, 90100, Note_off_c, 9, 37, 64
7, 90100, Note_off_c, 9, 42, 64
7, 90100, Note_off_c, 9, 38, 64
7, 90100, Note_off_c, 9, 35, 64
7, 90120, Note_on_c, 9, 35, 115
7, 90120, Note_on_c, 9, 38, 90
7, 90120, Note_on_c, 9, 42, 90
7, 90120, Note_on_c, 9, 37, 50
7, 90120, Note_on_c, 9, 54, 60
7, 90220, Note_off_c, 9, 54, 64
7, 90220, Note_off_c, 9, 37, 64
7, 90220, Note_off_c, 9, 42, 64
7, 90220, Note_off_c, 9, 38, 64
7, 90220, Note_off_c, 9, 35, 64
7, 90240, Note_on_c, 9, 35, 127
7, 90240, Note_on_c, 9, 42, 100
7, 90240, Note_on_c, 9, 37, 80
7, 90240, Note_on_c, 9, 56, 100
7, 90240, Note_on_c, 9, 49, 100
7, 90240, Note_on_c, 9, 54, 115
7, 90340, Note_off_c, 9, 54, 64
7, 90340, Note_off_c, 9, 49, 64
7, 90340, Note_off_c, 9, 56, 64
7, 90340, Note_off_c, 9, 37, 64
7, 90340, Note_off_c, 9, 42, 64
7, 90340, Note_off_c, 9, 35, 64
7, 90360, Note_on_c, 9, 42, 70
7, 90360, Note_on_c, 9, 37, 50
7, 90360, Note_on_c, 9, 54, 60
7, 90460, Note_off_c, 9, 54, 64
7, 90460, Note_off_c, 9, 37, 64
7, 90460, Note_off_c, 9, 42, 64
7, 90480, Note_on_c, 9, 42, 80
7, 90480, Note_on_c, 9, 37, 80
7, 90480, Note_on_c, 9, 56, 115
7, 90480, Note_on_c, 9, 54, 115
7, 90580, Note_off_c, 9, 54, 64
7, 90580, Note_off_c, 9, 56, 64
7, 90580, Note_off_c, 9, 37, 64
7, 90580, Note_off_c, 9, 42, 64
7, 90600, Note_on_c, 9, 42, 70
7, 90600, Note_on_c, 9, 37, 50
7, 90600, Note_on_c, 9, 54, 60
7, 90700, Note_off_c, 9, 54, 64
7, 90700, Note_off_c, 9, 37, 64
7, 90700, Note_off_c, 9, 42, 64
7, 90720, Note_on_c, 9, 35, 127
7, 90720, Note_on_c, 9, 38, 127
7, 90720, Note_on_c, 9, 42, 100
7, 90720, Note_on_c, 9, 37, 80
7, 90720, Note_on_c, 9, 54, 115
7, 90720, Note_on_c, 9, 39, 115
7, 90820, Note_off_c, 9, 39, 64
7, 90820, Note_off_c, 9, 54, 64
7, 90820, Note_off_c, 9, 37, 64
7, 90820, Note_off_c, 9, 42, 64
7, 90820, Note_off_c, 9, 38, 64
7, 90820, Note_off_c, 9, 35, 64
7, 90840, Note_on_c, 9, 42, 70
7, 90840, Note_on_c, 9, 37, 50
7, 90840, Note_on_c, 9, 54, 60
7, 90940, Note_off_c, 9, 54, 64
7, 90940, Note_off_c, 9, 37, 64
7, 90940, Note_off_c, 9, 42, 64
7, 90960, Note_on_c, 9, 42, 80
7, 90960, Note_on_c, 9, 37, 80
7, 90960, Note_on_c, 9, 56, 100
7, 90960, Note_on_c, 9, 54, 115
7, 91060, Note_off_c, 9, 54, 64
7, 91060, Note_off_c, 9, 56, 64
7, 91060, Note_off_c, 9, 37, 64
7, 91060, Note_off_c, 9, 42, 64
7, 91080, Note_on_c, 9, 35, 115
7, 91080, Note_on_c, 9, 42, 70
7, 91080, Note_on_c, 9, 37, 50
7, 91080, Note_on_c, 9, 56, 115
7, 91080, Note_on_c, 9, 54, 60
7, 91180, Note_off_c, 9, 54, 64
7, 91180, Note_off_c, 9, 56, 64
7, 91180, Note_off_c, 9, 37, 64
7, 91180, Note_off_c, 9, 42, 64
7, 91180, Note_off_c, 9, 35, 64
7, 91200, Note_on_c, 9, 35, 127
7, 91200, Note_on_c, 9, 42, 100
7, 91200, Note_on_c, 9, 37, 80
7, 91200, Note_on_c, 9, 56, 115
7, 91200, Note_on_c, 9, 54, 115
7, 91300, Note_off_c, 9, 54, 64
7, 91300, Note_off_c, 9, 56, 64
7, 91300, Note_off_c, 9, 37, 64
7, 91300, Note_off_c, 9, 42, 64
7, 91300, Note_off_c, 9, 35, 64
7, 91320, Note_on_c, 9, 42, 70
7, 91320, Note_on_c, 9, 37, 50
7, 91320, Note_on_c, 9, 54, 60
7, 91420, Note_off_c, 9, 54, 64
7, 91420, Note_off_c, 9, 37, 64
7, 91420, Note_off_c, 9, 42, 64
7, 91440, Note_on_c, 9, 42, 80
7, 91440, Note_on_c, 9, 37, 80
7, 91440, Note_on_c, 9, 56, 115
7, 91440, Note_on_c, 9, 54, 115
7, 91540, Note_off_c, 9, 54, 64
7, 91540, Note_off_c, 9, 56, 64
7, 91540, Note_off_c, 9, 37, 64
7, 91540, Note_off_c, 9, 42, 64
7, 91560, Note_on_c, 9, 42, 70
7, 91560, Note_on_c, 9, 37, 50
7, 91560, Note_on_c, 9, 54, 60
7, 91660, Note_off_c, 9, 54, 64
7, 91660, Note_off_c, 9, 37, 64
7, 91660, Note_off_c, 9, 42, 64
7, 91680, Note_on_c, 9, 35, 127
7, 91680, Note_on_c, 9, 38, 127
7, 91680, Note_on_c, 9, 42, 100
7, 91680, Note_on_c, 9, 37, 80
7, 91680, Note_on_c, 9, 54, 115
7, 91680, Note_on_c, 9, 39, 115
7, 91780, Note_off_c, 9, 39, 64
7, 91780, Note_off_c, 9, 54, 64
7, 91780, Note_off_c, 9, 37, 64
7, 91780, Note_off_c, 9, 42, 64
7, 91780, Note_off_c, 9, 38, 64
7, 91780, Note_off_c, 9, 35, 64
7, 91800, Note_on_c, 9, 35, 115
7, 91800, Note_on_c, 9, 42, 70
7, 91800, Note_on_c, 9, 37, 50
7, 91800, Note_on_c, 9, 54, 60
7, 91900, Note_off_c, 9, 54, 64
7, 91900, Note_off_c, 9, 37, 64
7, 91900, Note_off_c, 9, 42, 64
7, 91900, Note_off_c, 9, 35, 64
7, 91920, Note_on_c, 9, 35, 127
7, 91920, Note_on_c, 9, 42, 110
7, 91920, Note_on_c, 9, 37, 80
7, 91920, Note_on_c, 9, 54, 115
7, 92020, Note_off_c, 9, 54, 64
7, 92020, Note_off_c, 9, 37, 64
7, 92020, Note_off_c, 9, 42, 64
7, 92020, Note_off_c, 9, 35, 64
7, 92040, Note_on_c, 9, 35, 115
7, 92040, Note_on_c, 9, 42, 90
7, 92040, Note_on_c, 9, 37, 50
7, 92040, Note_on_c, 9, 54, 60
7, 92140, Note_off_c, 9, 54, 64
7, 92140, Note_off_c, 9, 37, 64
7, 92140, Note_off_c, 9, 42, 64
7, 92140, Note_off_c, 9, 35, 64
7, 92160, Note_on_c, 9, 35, 127
7, 92160, Note_on_c, 9, 42, 100
7, 92160, Note_on_c, 9, 37, 80
7, 92160, Note_on_c, 9, 56, 100
7, 92160, Note_on_c, 9, 54, 115
7, 92260, Note_off_c, 9, 54, 64
7, 92260, Note_off_c, 9, 56, 64
7, 92260, Note_off_c, 9, 37, 64
7, 92260, Note_off_c, 9, 42, 64
7, 92260, Note_off_c, 9, 35, 64
7, 92280, Note_on_c, 9, 42, 70
7, 92280, Note_on_c, 9, 37, 50
7, 92280, Note_on_c, 9, 54, 60
7, 92380, Note_off_c, 9, 54, 64
7, 92380, Note_off_c, 9, 37, 64
7, 92380, Note_off_c, 9, 42, 64
7, 92400, Note_on_c, 9, 42, 80
7, 92400, Note_on_c, 9, 37, 80
7, 92400, Note_on_c, 9, 56, 115
7, 92400, Note_on_c, 9, 54, 115
7, 92500, Note_off_c, 9, 54, 64
7, 92500, Note_off_c, 9, 56, 64
7, 92500, Note_off_c, 9, 37, 64
7, 92500, Note_off_c, 9, 42, 64
7, 92520, Note_on_c, 9, 42, 70
7, 92520, Note_on_c, 9, 37, 50
7, 92520, Note_on_c, 9, 54, 60
7, 92620, Note_off_c, 9, 54, 64
7, 92620, Note_off_c, 9, 37, 64
7, 92620, Note_off_c, 9, 42, 64
7, 92640, Note_on_c, 9, 35, 127
7, 92640, Note_on_c, 9, 38, 127
7, 92640, Note_on_c, 9, 42, 100
7, 92640, Note_on_c, 9, 37, 80
7, 92640, Note_on_c, 9, 54, 115
7, 92640, Note_on_c, 9, 39, 115
7, 92740, Note_off_c, 9, 39, 64
7, 92740, Note_off_c, 9, 54, 64
7, 92740, Note_off_c, 9, 37, 64
7, 92740, Note_off_c, 9, 42, 64
7, 92740, Note_off_c, 9, 38, 64
7, 92740, Note_off_c, 9, 35, 64
7, 92760, Note_on_c, 9, 42, 70
7, 92760, Note_on_c, 9, 37, 50
7, 92760, Note_on_c, 9, 54, 60
7, 92860, Note_off_c, 9, 54, 64
7, 92860, Note_off_c, 9, 37, 64
7, 92860, Note_off_c, 9, 42, 64
7, 92880, Note_on_c, 9, 42, 80
7, 92880, Note_on_c, 9, 37, 80
7, 92880, Note_on_c, 9, 56, 100
7, 92880, Note_on_c, 9, 54, 115
7, 92980, Note_off_c, 9, 54, 64
7, 92980, Note_off_c, 9, 56, 64
7, 92980, Note_off_c, 9, 37, 64
7, 92980, Note_off_c, 9, 42, 64
7, 93000, Note_on_c, 9, 35, 115
7, 93000, Note_on_c, 9, 42, 70
7, 93000, Note_on_c, 9, 37, 50
7, 93000, Note_on_c, 9, 56, 115
7, 93000, Note_on_c, 9, 54, 60
7, 93100, Note_off_c, 9, 54, 64
7, 93100, Note_off_c, 9, 56, 64
7, 93100, Note_off_c, 9, 37, 64
7, 93100, Note_off_c, 9, 42, 64
7, 93100, Note_off_c, 9, 35, 64
7, 93120, Note_on_c, 9, 35, 127
7, 93120, Note_on_c, 9, 42, 100
7, 93120, Note_on_c, 9, 37, 80
7, 93120, Note_on_c, 9, 56, 115
7, 93120, Note_on_c, 9, 54, 115
7, 93220, Note_off_c, 9, 54, 64
7, 93220, Note_off_c, 9, 56, 64
7, 93220, Note_off_c, 9, 37, 64
7, 93220, Note_off_c, 9, 42, 64
7, 93220, Note_off_c, 9, 35, 64
7, 93240, Note_on_c, 9, 42, 70
7, 93240, Note_on_c, 9, 37, 50
7, 93240, Note_on_c, 9, 54, 60
7, 93340, Note_off_c, 9, 54, 64
7, 93340, Note_off_c, 9, 37, 64
7, 93340, Note_off_c, 9, 42, 64
7, 93360, Note_on_c, 9, 42, 80
7, 93360, Note_on_c, 9, 37, 80
7, 93360, Note_on_c, 9, 56, 115
7, 93360, Note_on_c, 9, 54, 115
7, 93460, Note_off_c, 9, 54, 64
7, 93460, Note_off_c, 9, 56, 64
7, 93460, Note_off_c, 9, 37, 64
7, 93460, Note_off_c, 9, 42, 64
7, 93480, Note_on_c, 9, 42, 70
7, 93480, Note_on_c, 9, 37, 50
7, 93480, Note_on_c, 9, 54, 60
7, 93580, Note_off_c, 9, 54, 64
7, 93580, Note_off_c, 9, 37, 64
7, 93580, Note_off_c, 9, 42, 64
7, 93600, Note_on_c, 9, 35, 127
7, 93600, Note_on_c, 9, 38, 127
7, 93600, Note_on_c, 9, 42, 100
7, 93600, Note_on_c, 9, 37, 80
7, 93600, Note_on_c, 9, 54, 115
7, 93600, Note_on_c, 9, 39, 115
7, 93700, Note_off_c, 9, 39, 64
7, 93700, Note_off_c, 9, 54, 64
7, 93700, Note_off_c, 9, 37, 64
7, 93700, Note_off_c, 9, 42, 64
7, 93700, Note_off_c, 9, 38, 64
7, 93700, Note_off_c, 9, 35, 64
7, 93720, Note_on_c, 9, 35, 115
7, 93720, Note_on_c, 9, 42, 70
7, 93720, Note_on_c, 9, 37, 50
7, 93720, Note_on_c, 9, 54, 60
7, 93820, Note_off_c, 9, 54, 64
7, 93820, Note_off_c, 9, 37, 64
7, 93820, Note_off_c, 9, 42, 64
7, 93820, Note_off_c, 9, 35, 64
7, 93840, Note_on_c, 9, 35, 127
7, 93840, Note_on_c, 9, 42, 90
7, 93840, Note_on_c, 9, 37, 80
7, 93840, Note_on_c, 9, 54, 115
7, 93940, Note_off_c, 9, 54, 64
7, 93940, Note_off_c, 9, 37, 64
7, 93940, Note_off_c, 9, 42, 64
7, 93940, Note_off_c, 9, 35, 64
7, 93960, Note_on_c, 9, 35, 115
7, 93960, Note_on_c, 9, 42, 90
7, 93960, Note_on_c, 9, 37, 50
7, 93960, Note_on_c, 9, 54, 60
7, 94060, Note_off_c, 9, 54, 64
7, 94060, Note_off_c, 9, 37, 64
7, 94060, Note_off_c, 9, 42, 64
7, 94060, Note_off_c, 9, 35, 64
7, 94080, Note_on_c, 9, 35, 127
7, 94080, Note_on_c, 9, 42, 100
7, 94080, Note_on_c, 9, 37, 80
7, 94080, Note_on_c, 9, 56, 100
7, 94080, Note_on_c, 9, 54, 115
7, 94180, Note_off_c, 9, 54, 64
7, 94180, Note_off_c, 9, 56, 64
7, 94180, Note_off_c, 9, 37, 64
7, 94180, Note_off_c, 9, 42, 64
7, 94180, Note_off_c, 9, 35, 64
7, 94200, Note_on_c, 9, 42, 70
7, 94200, Note_on_c, 9, 37, 50
7, 94200, Note_on_c, 9, 54, 60
7, 94300, Note_off_c, 9, 54, 64
7, 94300, Note_off_c, 9, 37, 64
7, 94300, Note_off_c, 9, 42, 64
7, 94320, Note_on_c, 9, 42, 80
7, 94320, Note_on_c, 9, 37, 80
7, 94320, Note_on_c, 9, 56, 115
7, 94320, Note_on_c, 9, 54, 115
7, 94420, Note_off_c, 9, 54, 64
7, 94420, Note_off_c, 9, 56, 64
7, 94420, Note_off_c, 9, 37, 64
7, 94420, Note_off_c, 9, 42, 64
7, 94440, Note_on_c, 9, 42, 70
7, 94440, Note_on_c, 9, 37, 50
7, 94440, Note_on_c, 9, 54, 60
7, 94540, Note_off_c, 9, 54, 64
7, 94540, Note_off_c, 9, 37, 64
7, 94540, Note_off_c, 9, 42, 64
7, 94560, Note_on_c, 9, 35, 127
7, 94560, Note_on_c, 9, 38, 127
7, 94560, Note_on_c, 9, 42, 100
7, 94560, Note_on_c, 9, 37, 80
7, 94560, Note_on_c, 9, 54, 115
7, 94560, Note_on_c, 9, 39, 115
7, 94660, Note_off_c, 9, 39, 64
7, 94660, Note_off_c, 9, 54, 64
7, 94660, Note_off_c, 9, 37, 64
7, 94660, Note_off_c, 9, 42, 64
7, 94660, Note_off_c, 9, 38, 64
7, 94660, Note_off_c, 9, 35, 64
7, 94680, Note_on_c, 9, 42, 70
7, 94680, Note_on_c, 9, 37, 50
7, 94680, Note_on_c, 9, 54, 60
7, 94780, Note_off_c, 9, 54, 64
7, 94780, Note_off_c, 9, 37, 64
7, 94780, Note_off_c, 9, 42, 64
7, 94800, Note_on_c, 9, 42, 80
7, 94800, Note_on_c, 9, 37, 80
7, 94800, Note_on_c, 9, 56, 100
7, 94800, Note_on_c, 9, 54, 115
7, 94900, Note_off_c, 9, 54, 64
7, 94900, Note_off_c, 9, 56, 64
7, 94900, Note_off_c, 9, 37, 64
7, 94900, Note_off_c, 9, 42, 64
7, 94920, Note_on_c, 9, 35, 115
7, 94920, Note_on_c, 9, 42, 70
7, 94920, Note_on_c, 9, 37, 50
7, 94920, Note_on_c, 9, 56, 115
7, 94920, Note_on_c, 9, 54, 60
7, 95020, Note_off_c, 9, 54, 64
7, 95020, Note_off_c, 9, 56, 64
7, 95020, Note_off_c, 9, 37, 64
7, 95020, Note_off_c, 9, 42, 64
7, 95020, Note_off_c, 9, 35, 64
7, 95040, Note_on_c, 9, 35, 127
7, 95040, Note_on_c, 9, 42, 100
7, 95040, Note_on_c, 9, 37, 80
7, 95040, Note_on_c, 9, 56, 115
7, 95040, Note_on_c, 9, 54, 115
7, 95140, Note_off_c, 9, 54, 64
7, 95140, Note_off_c, 9, 56, 64
7, 95140, Note_off_c, 9, 37, 64
7, 95140, Note_off_c, 9, 42, 64
7, 95140, Note_off_c, 9, 35, 64
7, 95160, Note_on_c, 9, 42, 70
7, 95160, Note_on_c, 9, 37, 50
7, 95160, Note_on_c, 9, 54, 60
7, 95260, Note_off_c, 9, 54, 64
7, 95260, Note_off_c, 9, 37, 64
7, 95260, Note_off_c, 9, 42, 64
7, 95280, Note_on_c, 9, 42, 80
7, 95280, Note_on_c, 9, 37, 80
7, 95280, Note_on_c, 9, 56, 115
7, 95280, Note_on_c, 9, 54, 115
7, 95380, Note_off_c, 9, 54, 64
7, 95380, Note_off_c, 9, 56, 64
7, 95380, Note_off_c, 9, 37, 64
7, 95380, Note_off_c, 9, 42, 64
7, 95400, Note_on_c, 9, 42, 70
7, 95400, Note_on_c, 9, 37, 50
7, 95400, Note_on_c, 9, 54, 60
7, 95500, Note_off_c, 9, 54, 64
7, 95500, Note_off_c, 9, 37, 64
7, 95500, Note_off_c, 9, 42, 64
7, 95520, Note_on_c, 9, 35, 127
7, 95520, Note_on_c, 9, 38, 127
7, 95520, Note_on_c, 9, 42, 100
7, 95520, Note_on_c, 9, 37, 80
7, 95520, Note_on_c, 9, 54, 115
7, 95520, Note_on_c, 9, 39, 115
7, 95620, Note_off_c, 9, 39, 64
7, 95620, Note_off_c, 9, 54, 64
7, 95620, Note_off_c, 9, 37, 64
7, 95620, Note_off_c, 9, 42, 64
7, 95620, Note_off_c, 9, 38, 64
7, 95620, Note_off_c, 9, 35, 64
7, 95640, Note_on_c, 9, 35, 115
7, 95640, Note_on_c, 9, 42, 70
7, 95640, Note_on_c, 9, 37, 50
7, 95640, Note_on_c, 9, 54, 60
7, 95740, Note_off_c, 9, 54, 64
7, 95740, Note_off_c, 9, 37, 64
7, 95740, Note_off_c, 9, 42, 64
7, 95740, Note_off_c, 9, 35, 64
7, 95760, Note_on_c, 9, 35, 127
7, 95760, Note_on_c, 9, 42, 110
7, 95760, Note_on_c, 9, 37, 80
7, 95760, Note_on_c, 9, 54, 115
7, 95860, Note_off_c, 9, 54, 64
7, 95860, Note_off_c, 9, 37, 64
7, 95860, Note_off_c, 9, 42, 64
7, 95860, Note_off_c, 9, 35, 64
7, 95880, Note_on_c, 9, 35, 115
7, 95880, Note_on_c, 9, 42, 90
7, 95880, Note_on_c, 9, 37, 50
7, 95880, Note_on_c, 9, 54, 60
7, 95980, Note_off_c, 9, 54, 64
7, 95980, Note_off_c, 9, 37, 64
7, 95980, Note_off_c, 9, 42, 64
7, 95980, Note_off_c, 9, 35, 64
7, 96000, Note_on_c, 9, 35, 127
7, 96000, Note_on_c, 9, 38, 127
7, 96000, Note_on_c, 9, 42, 100
7, 96000, Note_on_c, 9, 37, 80
7, 96000, Note_on_c, 9, 56, 100
7, 96000, Note_on_c, 9, 54, 115
7, 96100, Note_off_c, 9, 54, 64
7, 96100, Note_off_c, 9, 56, 64
7, 96100, Note_off_c, 9, 37, 64
7, 96100, Note_off_c, 9, 42, 64
7, 96100, Note_off_c, 9, 38, 64
7, 96100, Note_off_c, 9, 35, 64
7, 96120, Note_on_c, 9, 38, 100
7, 96120, Note_on_c, 9, 42, 70
7, 96120, Note_on_c, 9, 37, 50
7, 96120, Note_on_c, 9, 54, 60
7, 96220, Note_off_c, 9, 54, 64
7, 96220, Note_off_c, 9, 37, 64
7, 96220, Note_off_c, 9, 42, 64
7, 96220, Note_off_c, 9, 38, 64
7, 96240, Note_on_c, 9, 38, 115
7, 96240, Note_on_c, 9, 42, 80
7, 96240, Note_on_c, 9, 37, 80
7, 96240, Note_on_c, 9, 56, 115
7, 96240, Note_on_c, 9, 54, 115
7, 96340, Note_off_c, 9, 54, 64
7, 96340, Note_off_c, 9, 56, 64
7, 96340, Note_off_c, 9, 37, 64
7, 96340, Note_off_c, 9, 42, 64
7, 96340, Note_off_c, 9, 38, 64
7, 96360, Note_on_c, 9, 38, 90
7, 96360, Note_on_c, 9, 42, 70
7, 96360, Note_on_c, 9, 37, 50
7, 96360, Note_on_c, 9, 54, 60
7, 96460, Note_off_c, 9, 54, 64
7, 96460, Note_off_c, 9, 37, 64
7, 96460, Note_off_c, 9, 42, 64
7, 96460, Note_off_c, 9, 38, 64
7, 96480, Note_on_c, 9, 35, 127
7, 96480, Note_on_c, 9, 38, 127
7, 96480, Note_on_c, 9, 42, 100
7, 96480, Note_on_c, 9, 37, 80
7, 96480, Note_on_c, 9, 54, 115
7, 96480, Note_on_c, 9, 39, 115
7, 96580, Note_off_c, 9, 39, 64
7, 96580, Note_off_c, 9, 54, 64
7, 96580, Note_off_c, 9, 37, 64
7, 96580, Note_off_c, 9, 42, 64
7, 96580, Note_off_c, 9, 38, 64
7, 96580, Note_off_c, 9, 35, 64
7, 96600, Note_on_c, 9, 38, 100
7, 96600, Note_on_c, 9, 42, 70
7, 96600, Note_on_c, 9, 37, 50
7, 96600, Note_on_c, 9, 54, 60
7, 96700, Note_off_c, 9, 54, 64
7, 96700, Note_off_c, 9, 37, 64
7, 96700, Note_off_c, 9, 42, 64
7, 96700, Note_off_c, 9, 38, 64
7, 96720, Note_on_c, 9, 38, 115
7, 96720, Note_on_c, 9, 42, 80
7, 96720, Note_on_c, 9, 37, 80
7, 96720, Note_on_c, 9, 56, 100
7, 96720, Note_on_c, 9, 54, 115
7, 96820, Note_off_c, 9, 54, 64
7, 96820, Note_off_c, 9, 56, 64
7, 96820, Note_off_c, 9, 37, 64
7, 96820, Note_off_c, 9, 42, 64
7, 96820, Note_off_c, 9, 38, 64
7, 96840, Note_on_c, 9, 35, 115
7, 96840, Note_on_c, 9, 38, 90
7, 96840, Note_on_c, 9, 42, 70
7, 96840, Note_on_c, 9, 37, 50
7, 96840, Note_on_c, 9, 56, 115
7, 96840, Note_on_c, 9, 54, 60
7, 96940, Note_off_c, 9, 54, 64
7, 96940, Note_off_c, 9, 56, 64
7, 96940, Note_off_c, 9, 37, 64
7, 96940, Note_off_c, 9, 42, 64
7, 96940, Note_off_c, 9, 38, 64
7, 96940, Note_off_c, 9, 35, 64
7, 96960, Note_on_c, 9, 35, 127
7, 96960, Note_on_c, 9, 38, 127
7, 96960, Note_on_c, 9, 42, 100
7, 96960, Note_on_c, 9, 37, 80
7, 96960, Note_on_c, 9, 56, 115
7, 96960, Note_on_c, 9, 54, 115
7, 97060, Note_off_c, 9, 54, 64
7, 97060, Note_off_c, 9, 56, 64
7, 97060, Note_off_c, 9, 37, 64
7, 97060, Note_off_c, 9, 42, 64
7, 97060, Note_off_c, 9, 38, 64
7, 97060, Note_off_c, 9, 35, 64
7, 97080, Note_on_c, 9, 38, 100
7, 97080, Note_on_c, 9, 42, 70
7, 97080, Note_on_c, 9, 37, 50
7, 97080, Note_on_c, 9, 54, 60
7, 97180, Note_off_c, 9, 54, 64
7, 97180, Note_off_c, 9, 37, 64
7, 97180, Note_off_c, 9, 42, 64
7, 97180, Note_off_c, 9, 38, 64
7, 97200, Note_on_c, 9, 38, 115
7, 97200, Note_on_c, 9, 42, 80
7, 97200, Note_on_c, 9, 37, 80
7, 97200, Note_on_c, 9, 56, 115
7, 97200, Note_on_c, 9, 54, 115
7, 97300, Note_off_c, 9, 54, 64
7, 97300, Note_off_c, 9, 56, 64
7, 97300, Note_off_c, 9, 37, 64
7, 97300, Note_off_c, 9, 42, 64
7, 97300, Note_off_c, 9, 38, 64
7, 97320, Note_on_c, 9, 38, 90
7, 97320, Note_on_c, 9, 42, 70
7, 97320, Note_on_c, 9, 37, 50
7, 97320, Note_on_c, 9, 54, 60
7, 97420, Note_off_c, 9, 54, 64
7, 97420, Note_off_c, 9, 37, 64
7, 97420, Note_off_c, 9, 42, 64
7, 97420, Note_off_c, 9, 38, 64
7, 97440, Note_on_c, 9, 35, 127
7, 97440, Note_on_c, 9, 38, 127
7, 97440, Note_on_c, 9, 42, 100
7, 97440, Note_on_c, 9, 37, 80
7, 97440, Note_on_c, 9, 54, 115
7, 97440, Note_on_c, 9, 39, 115
7, 97540, Note_off_c, 9, 39, 64
7, 97540, Note_off_c, 9, 54, 64
7, 97540, Note_off_c, 9, 37, 64
7, 97540, Note_off_c, 9, 42, 64
7, 97540, Note_off_c, 9, 38, 64
7, 97540, Note_off_c, 9, 35, 64
7, 97560, Note_on_c, 9, 35, 115
7, 97560, Note_on_c, 9, 38, 100
7, 97560, Note_on_c, 9, 42, 70
7, 97560, Note_on_c, 9, 37, 50
7, 97560, Note_on_c, 9, 54, 60
7, 97660, Note_off_c, 9, 54, 64
7, 97660, Note_off_c, 9, 37, 64
7, 97660, Note_off_c, 9, 42, 64
7, 97660, Note_off_c, 9, 38, 64
7, 97660, Note_off_c, 9, 35, 64
7, 97680, Note_on_c, 9, 35, 127
7, 97680, Note_on_c, 9, 38, 115
7, 97680, Note_on_c, 9, 42, 90
7, 97680, Note_on_c, 9, 37, 80
7, 97680, Note_on_c, 9, 54, 115
7, 97780, Note_off_c, 9, 54, 64
7, 97780, Note_off_c, 9, 37, 64
7, 97780, Note_off_c, 9, 42, 64
7, 97780, Note_off_c, 9, 38, 64
7, 97780, Note_off_c, 9, 35, 64
7, 97800, Note_on_c, 9, 35, 115
7, 97800, Note_on_c, 9, 38, 90
7, 97800, Note_on_c, 9, 42, 90
7, 97800, Note_on_c, 9, 37, 50
7, 97800, Note_on_c, 9, 54, 60
7, 97900, Note_off_c, 9, 54, 64
7, 97900, Note_off_c, 9, 37, 64
7, 97900, Note_off_c, 9, 42, 64
7, 97900, Note_off_c, 9, 38, 64
7, 97900, Note_off_c, 9, 35, 64
7, 97920, Note_on_c, 9, 35, 127
7, 97920, Note_on_c, 9, 42, 100
7, 97920, Note_on_c, 9, 37, 80
7, 97920, Note_on_c, 9, 56, 100
7, 97920, Note_on_c, 9, 49, 100
7, 97920, Note_on_c, 9, 54, 115
7, 98020, Note_off_c, 9, 54, 64
7, 98020, Note_off_c, 9, 49, 64
7, 98020, Note_off_c, 9, 56, 64
7, 98020, Note_off_c, 9, 37, 64
7, 98020, Note_off_c, 9, 42, 64
7, 98020, Note_off_c, 9, 35, 64
7, 98040, Note_on_c, 9, 42, 70
7, 98040, Note_on_c, 9, 37, 50
7, 98040, Note_on_c, 9, 54, 60
7, 98140, Note_off_c, 9, 54, 64
7, 98140, Note_off_c, 9, 37, 64
7, 98140, Note_off_c, 9, 42, 64
7, 98160, Note_on_c, 9, 42, 80
7, 98160, Note_on_c, 9, 37, 80
7, 98160, Note_on_c, 9, 56, 115
7, 98160, Note_on_c, 9, 54, 115
7, 98260, Note_off_c, 9, 54, 64
7, 98260, Note_off_c, 9, 56, 64
7, 98260, Note_off_c, 9, 37, 64
7, 98260, Note_off_c, 9, 42, 64
7, 98280, Note_on_c, 9, 42, 70
7, 98280, Note_on_c, 9, 37, 50
7, 98280, Note_on_c, 9, 54, 60
7, 98380, Note_off_c, 9, 54, 64
7, 98380, Note_off_c, 9, 37, 64
7, 98380, Note_off_c, 9, 42, 64
7, 98400, Note_on_c, 9, 35, 127
7, 98400, Note_on_c, 9, 38, 127
7, 98400, Note_on_c, 9, 42, 100
7, 98400, Note_on_c, 9, 37, 80
7, 98400, Note_on_c, 9, 54, 115
7, 98400, Note_on_c, 9, 39, 115
7, 98500, Note_off_c, 9, 39, 64
7, 98500, Note_off_c, 9, 54, 64
7, 98500, Note_off_c, 9, 37, 64
7, 98500, Note_off_c, 9, 42, 64
7, 98500, Note_off_c, 9, 38, 64
7, 98500, Note_off_c, 9, 35, 64
7, 98520, Note_on_c, 9, 42, 70
7, 98520, Note_on_c, 9, 37, 50
7, 98520, Note_on_c, 9, 54, 60
7, 98620, Note_off_c, 9, 54, 64
7, 98620, Note_off_c, 9, 37, 64
7, 98620, Note_off_c, 9, 42, 64
7, 98640, Note_on_c, 9, 42, 80
7, 98640, Note_on_c, 9, 37, 80
7, 98640, Note_on_c, 9, 56, 100
7, 98640, Note_on_c, 9, 54, 115
7, 98740, Note_off_c, 9, 54, 64
7, 98740, Note_off_c, 9, 56, 64
7, 98740, Note_off_c, 9, 37, 64
7, 98740, Note_off_c, 9, 42, 64
7, 98760, Note_on_c, 9, 35, 115
7, 98760, Note_on_c, 9, 42, 70
7, 98760, Note_on_c, 9, 37, 50
7, 98760, Note_on_c, 9, 56, 115
7, 98760, Note_on_c, 9, 54, 60
7, 98860, Note_off_c, 9, 54, 64
7, 98860, Note_off_c, 9, 56, 64
7, 98860, Note_off_c, 9, 37, 64
7, 98860, Note_off_c, 9, 42, 64
7, 98860, Note_off_c, 9, 35, 64
7, 98880, Note_on_c, 9, 35, 127
7, 98880, Note_on_c, 9, 42, 100
7, 98880, Note_on_c, 9, 37, 80
7, 98880, Note_on_c, 9, 56, 115
7, 98880, Note_on_c, 9, 54, 115
7, 98980, Note_off_c, 9, 54, 64
7, 98980, Note_off_c, 9, 56, 64
7, 98980, Note_off_c, 9, 37, 64
7, 98980, Note_off_c, 9, 42, 64
7, 98980, Note_off_c, 9, 35, 64
7, 99000, Note_on_c, 9, 42, 70
7, 99000, Note_on_c, 9, 37, 50
7, 99000, Note_on_c, 9, 54, 60
7, 99100, Note_off_c, 9, 54, 64
7, 99100, Note_off_c, 9, 37, 64
7, 99100, Note_off_c, 9, 42, 64
7, 99120, Note_on_c, 9, 42, 80
7, 99120, Note_on_c, 9, 37, 80
7, 99120, Note_on_c, 9, 56, 115
7, 99120, Note_on_c, 9, 54, 115
7, 99220, Note_off_c, 9, 54, 64
7, 99220, Note_off_c, 9, 56, 64
7, 99220, Note_off_c, 9, 37, 64
7, 99220, Note_off_c, 9, 42, 64
7, 99240, Note_on_c, 9, 42, 70
7, 99240, Note_on_c, 9, 37, 50
7, 99240, Note_on_c, 9, 54, 60
7, 99340, Note_off_c, 9, 54, 64
7, 99340, Note_off_c, 9, 37, 64
7, 99340, Note_off_c, 9, 42, 64
7, 99360, Note_on_c, 9, 35, 127
7, 99360, Note_on_c, 9, 38, 127
7, 99360, Note_on_c, 9, 42, 100
7, 99360, Note_on_c, 9, 37, 80
7, 99360, Note_on_c, 9, 54, 115
7, 99360, Note_on_c, 9, 39, 115
7, 99460, Note_off_c, 9, 39, 64
7, 99460, Note_off_c, 9, 54, 64
7, 99460, Note_off_c, 9, 37, 64
7, 99460, Note_off_c, 9, 42, 64
7, 99460, Note_off_c, 9, 38, 64
7, 99460, Note_off_c, 9, 35, 64
7, 99480, Note_on_c, 9, 35, 115
7, 99480, Note_on_c, 9, 42, 70
7, 99480, Note_on_c, 9, 37, 50
7, 99480, Note_on_c, 9, 54, 60
7, 99580, Note_off_c, 9, 54, 64
7, 99580, Note_off_c, 9, 37, 64
7, 99580, Note_off_c, 9, 42, 64
7, 99580, Note_off_c, 9, 35, 64
7, 99600, Note_on_c, 9, 35, 127
7, 99600, Note_on_c, 9, 42, 110
7, 99600, Note_on_c, 9, 37, 80
7, 99600, Note_on_c, 9, 54, 115
7, 99700, Note_off_c, 9, 54, 64
7, 99700, Note_off_c, 9, 37, 64
7, 99700, Note_off_c, 9, 42, 64
7, 99700, Note_off_c, 9, 35, 64
7, 99720, Note_on_c, 9, 35, 115
7, 99720, Note_on_c, 9, 42, 90
7, 99720, Note_on_c, 9, 37, 50
7, 99720, Note_on_c, 9, 54, 60
7, 99820, Note_off_c, 9, 54, 64
7, 99820, Note_off_c, 9, 37, 64
7, 99820, Note_off_c, 9, 42, 64
7, 99820, Note_off_c, 9, 35, 64
7, 99840, Note_on_c, 9, 35, 127
7, 99840, Note_on_c, 9, 42, 100
7, 99840, Note_on_c, 9, 37, 80
7, 99840, Note_on_c, 9, 56, 100
7, 99840, Note_on_c, 9, 54, 115
7, 99940, Note_off_c, 9, 54, 64
7, 99940, Note_off_c, 9, 56, 64
7, 99940, Note_off_c, 9, 37, 64
7, 99940, Note_off_c, 9, 42, 64
7, 99940, Note_off_c, 9, 35, 64
7, 99960, Note_on_c, 9, 42, 70
7, 99960, Note_on_c, 9, 37, 50
7, 99960, Note_on_c, 9, 54, 60
7, 100060, Note_off_c, 9, 54, 64
7, 100060, Note_off_c, 9, 37, 64
7, 100060, Note_off_c, 9, 42, 64
7, 100080, Note_on_c, 9, 42, 80
7, 100080, Note_on_c, 9, 37, 80
7, 100080, Note_on_c, 9, 56, 115
7, 100080, Note_on_c, 9, 54, 115
7, 100180, Note_off_c, 9, 54, 64
7, 100180, Note_off_c, 9, 56, 64
7, 100180, Note_off_c, 9, 37, 64
7, 100180, Note_off_c, 9, 42, 64
7, 100200, Note_on_c, 9, 42, 70
7, 100200, Note_on_c, 9, 37, 50
7, 100200, Note_on_c, 9, 54, 60
7, 100300, Note_off_c, 9, 54, 64
7, 100300, Note_off_c, 9, 37, 64
7, 100300, Note_off_c, 9, 42, 64
7, 100320, Note_on_c, 9, 35, 127
7, 100320, Note_on_c, 9, 38, 127
7, 100320, Note_on_c, 9, 42, 100
7, 100320, Note_on_c, 9, 37, 80
7, 100320, Note_on_c, 9, 54, 115
7, 100320, Note_on_c, 9, 39, 115
7, 100420, Note_off_c, 9, 39, 64
7, 100420, Note_off_c, 9, 54, 64
7, 100420, Note_off_c, 9, 37, 64
7, 100420, Note_off_c, 9, 42, 64
7, 100420, Note_off_c, 9, 38, 64
7, 100420, Note_off_c, 9, 35, 64
7, 100440, Note_on_c, 9, 42, 70
7, 100440, Note_on_c, 9, 37, 50
7, 100440, Note_on_c, 9, 54, 60
7, 100540, Note_off_c, 9, 54, 64
7, 100540, Note_off_c, 9, 37, 64
7, 100540, Note_off_c, 9, 42, 64
7, 100560, Note_on_c, 9, 42, 80
7, 100560, Note_on_c, 9, 37, 80
7, 100560, Note_on_c, 9, 56, 100
7, 100560, Note_on_c, 9, 54, 115
7, 100660, Note_off_c, 9, 54, 64
7, 100660, Note_off_c, 9, 56, 64
7, 100660, Note_off_c, 9, 37, 64
7, 100660, Note_off_c, 9, 42, 64
7, 100680, Note_on_c, 9, 35, 115
7, 100680, Note_on_c, 9, 42, 70
7, 100680, Note_on_c, 9, 37, 50
7, 100680, Note_on_c, 9, 56, 115
7, 100680, Note_on_c, 9, 54, 60
7, 100780, Note_off_c, 9, 54, 64
7, 100780, Note_off_c, 9, 56, 64
7, 100780, Note_off_c, 9, 37, 64
7, 100780, Note_off_c, 9, 42, 64
7, 100780, Note_off_c, 9, 35, 64
7, 100800, Note_on_c, 9, 35, 127
7, 100800, Note_on_c, 9, 42, 100
7, 100800, Note_on_c, 9, 37, 80
7, 100800, Note_on_c, 9, 56, 115
7, 100800, Note_on_c, 9, 54, 115
7, 100900, Note_off_c, 9, 54, 64
7, 100900, Note_off_c, 9, 56, 64
7, 100900, Note_off_c, 9, 37, 64
7, 100900, Note_off_c, 9, 42, 64
7, 100900, Note_off_c, 9, 35, 64
7, 100920, Note_on_c, 9, 42, 70
7, 100920, Note_on_c, 9, 37, 50
7, 100920, Note_on_c, 9, 54, 60
7, 101020, Note_off_c, 9, 54, 64
7, 101020, Note_off_c, 9, 37, 64
7, 101020, Note_off_c, 9, 42, 64
7, 101040, Note_on_c, 9, 42, 80
7, 101040, Note_on_c, 9, 37, 80
7, 101040, Note_on_c, 9, 56, 115
7, 101040, Note_on_c, 9, 54, 115
7, 101140, Note_off_c, 9, 54, 64
7, 101140, Note_off_c, 9, 56, 64
7, 101140, Note_off_c, 9, 37, 64
7, 101140, Note_off_c, 9, 42, 64
7, 101160, Note_on_c, 9, 42, 70
7, 101160, Note_on_c, 9, 37, 50
7, 101160, Note_on_c, 9, 54, 60
7, 101260, Note_off_c, 9, 54, 64
7, 101260, Note_off_c, 9, 37, 64
7, 101260, Note_off_c, 9, 42, 64
7, 101280, Note_on_c, 9, 35, 127
7, 101280, Note_on_c, 9, 38, 127
7, 101280, Note_on_c, 9, 42, 100
7, 101280, Note_on_c, 9, 37, 80
7, 101280, Note_on_c, 9, 54, 115
7, 101280, Note_on_c, 9, 39, 115
7, 101380, Note_off_c, 9, 39, 64
7, 101380, Note_off_c, 9, 54, 64
7, 101380, Note_off_c, 9, 37, 64
7, 101380, Note_off_c, 9, 42, 64
7, 101380, Note_off_c, 9, 38, 64
7, 101380, Note_off_c, 9, 35, 64
7, 101400, Note_on_c, 9, 35, 115
7, 101400, Note_on_c, 9, 42, 70
7, 101400, Note_on_c, 9, 37, 50
7, 101400, Note_on_c, 9, 54, 60
7, 101500, Note_off_c, 9, 54, 64
7, 101500, Note_off_c, 9, 37, 64
7, 101500, Note_off_c, 9, 42, 64
7, 101500, Note_off_c, 9, 35, 64
7, 101520, Note_on_c, 9, 35, 127
7, 101520, Note_on_c, 9, 42, 90
7, 101520, Note_on_c, 9, 37, 80
7, 101520, Note_on_c, 9, 54, 115
7, 101620, Note_off_c, 9, 54, 64
7, 101620, Note_off_c, 9, 37, 64
7, 101620, Note_off_c, 9, 42, 64
7, 101620, Note_off_c, 9, 35, 64
7, 101640, Note_on_c, 9, 35, 115
7, 101640, Note_on_c, 9, 42, 90
7, 101640, Note_on_c, 9, 37, 50
7, 101640, Note_on_c, 9, 54, 60
7, 101740, Note_off_c, 9, 54, 64
7, 101740, Note_off_c, 9, 37, 64
7, 101740, Note_off_c, 9, 42, 64
7, 101740, Note_off_c, 9, 35, 64
7, 101760, Note_on_c, 9, 35, 127
7, 101760, Note_on_c, 9, 38, 127
7, 101760, Note_on_c, 9, 42, 100
7, 101760, Note_on_c, 9, 37, 80
7, 101760, Note_on_c, 9, 56, 100
7, 101760, Note_on_c, 9, 54, 115
7, 101860, Note_off_c, 9, 54, 64
7, 101860, Note_off_c, 9, 56, 64
7, 101860, Note_off_c, 9, 37, 64
7, 101860, Note_off_c, 9, 42, 64
7, 101860, Note_off_c, 9, 38, 64
7, 101860, Note_off_c, 9, 35, 64
7, 101880, Note_on_c, 9, 38, 100
7, 101880, Note_on_c, 9, 42, 70
7, 101880, Note_on_c, 9, 37, 50
7, 101880, Note_on_c, 9, 54, 60
7, 101980, Note_off_c, 9, 54, 64
7, 101980, Note_off_c, 9, 37, 64
7, 101980, Note_off_c, 9, 42, 64
7, 101980, Note_off_c, 9, 38, 64
7, 102000, Note_on_c, 9, 38, 115
7, 102000, Note_on_c, 9, 42, 80
7, 102000, Note_on_c, 9, 37, 80
7, 102000, Note_on_c, 9, 56, 115
7, 102000, Note_on_c, 9, 54, 115
7, 102100, Note_off_c, 9, 54, 64
7, 102100, Note_off_c, 9, 56, 64
7, 102100, Note_off_c, 9, 37, 64
7, 102100, Note_off_c, 9, 42, 64
7, 102100, Note_off_c, 9, 38, 64
7, 102120, Note_on_c, 9, 38, 90
7, 102120, Note_on_c, 9, 42, 70
7, 102120, Note_on_c, 9, 37, 50
7, 102120, Note_on_c, 9, 54, 60
7, 102220, Note_off_c, 9, 54, 64
7, 102220, Note_off_c, 9, 37, 64
7, 102220, Note_off_c, 9, 42, 64
7, 102220, Note_off_c, 9, 38, 64
7, 102240, Note_on_c, 9, 35, 127
7, 102240, Note_on_c, 9, 38, 127
7, 102240, Note_on_c, 9, 42, 100
7, 102240, Note_on_c, 9, 37, 80
7, 102240, Note_on_c, 9, 54, 115
7, 102240, Note_on_c, 9, 39, 115
7, 102340, Note_off_c, 9, 39, 64
7, 102340, Note_off_c, 9, 54, 64
7, 102340, Note_off_c, 9, 37, 64
7, 102340, Note_off_c, 9, 42, 64
7, 102340, Note_off_c, 9, 38, 64
7, 102340, Note_off_c, 9, 35, 64
7, 102360, Note_on_c, 9, 38, 100
7, 102360, Note_on_c, 9, 42, 70
7, 102360, Note_on_c, 9, 37, 50
7, 102360, Note_on_c, 9, 54, 60
7, 102460, Note_off_c, 9, 54, 64
7, 102460, Note_off_c, 9, 37, 64
7, 102460, Note_off_c, 9, 42, 64
7, 102460, Note_off_c, 9, 38, 64
7, 102480, Note_on_c, 9, 38, 115
7, 102480, Note_on_c, 9, 42, 80
7, 102480, Note_on_c, 9, 37, 80
7, 102480, Note_on_c, 9, 56, 100
7, 102480, Note_on_c, 9, 54, 115
7, 102580, Note_off_c, 9, 54, 64
7, 102580, Note_off_c, 9, 56, 64
7, 102580, Note_off_c, 9, 37, 64
7, 102580, Note_off_c, 9, 42, 64
7, 102580, Note_off_c, 9, 38, 64
7, 102600, Note_on_c, 9, 35, 115
7, 102600, Note_on_c, 9, 38, 90
7, 102600, Note_on_c, 9, 42, 70
7, 102600, Note_on_c, 9, 37, 50
7, 102600, Note_on_c, 9, 56, 115
7, 102600, Note_on_c, 9, 54, 60
7, 102700, Note_off_c, 9, 54, 64
7, 102700, Note_off_c, 9, 56, 64
7, 102700, Note_off_c, 9, 37, 64
7, 102700, Note_off_c, 9, 42, 64
7, 102700, Note_off_c, 9, 38, 64
7, 102700, Note_off_c, 9, 35, 64
7, 102720, Note_on_c, 9, 35, 127
7, 102720, Note_on_c, 9, 38, 127
7, 102720, Note_on_c, 9, 42, 100
7, 102720, Note_on_c, 9, 37, 80
7, 102720, Note_on_c, 9, 56, 115
7, 102720, Note_on_c, 9, 54, 115
7, 102820, Note_off_c, 9, 54, 64
7, 102820, Note_off_c, 9, 56, 64
7, 102820, Note_off_c, 9, 37, 64
7, 102820, Note_off_c, 9, 42, 64
7, 102820, Note_off_c, 9, 38, 64
7, 102820, Note_off_c, 9, 35, 64
7, 102840, Note_on_c, 9, 38, 100
7, 102840, Note_on_c, 9, 42, 70
7, 102840, Note_on_c, 9, 37, 50
7, 102840, Note_on_c, 9, 54, 60
7, 102940, Note_off_c, 9, 54, 64
7, 102940, Note_off_c, 9, 37, 64
7, 102940, Note_off_c, 9, 42, 64
7, 102940, Note_off_c, 9, 38, 64
7, 102960, Note_on_c, 9, 38, 115
7, 102960, Note_on_c, 9, 42, 80
7, 102960, Note_on_c, 9, 37, 80
7, 102960, Note_on_c, 9, 56, 115
7, 102960, Note_on_c, 9, 54, 115
7, 103060, Note_off_c, 9, 54, 64
7, 103060, Note_off_c, 9, 56, 64
7, 103060, Note_off_c, 9, 37, 64
7, 103060, Note_off_c, 9, 42, 64
7, 103060, Note_off_c, 9, 38, 64
7, 103080, Note_on_c, 9, 38, 90
7, 103080, Note_on_c, 9, 42, 70
7, 103080, Note_on_c, 9, 37, 50
7, 103080, Note_on_c, 9, 54, 60
7, 103180, Note_off_c, 9, 54, 64
7, 103180, Note_off_c, 9, 37, 64
7, 103180, Note_off_c, 9, 42, 64
7, 103180, Note_off_c, 9, 38, 64
7, 103200, Note_on_c, 9, 35, 127
7, 103200, Note_on_c, 9, 38, 127
7, 103200, Note_on_c, 9, 42, 100
7, 103200, Note_on_c, 9, 37, 80
7, 103200, Note_on_c, 9, 54, 115
7, 103200, Note_on_c, 9, 39, 115
7, 103300, Note_off_c, 9, 39, 64
7, 103300, Note_off_c, 9, 54, 64
7, 103300, Note_off_c, 9, 37, 64
7, 103300, Note_off_c, 9, 42, 64
7, 103300, Note_off_c, 9, 38, 64
7, 103300, Note_off_c, 9, 35, 64
7, 103320, Note_on_c, 9, 35, 115
7, 103320, Note_on_c, 9, 38, 100
7, 103320, Note_on_c, 9, 42, 70
7, 103320, Note_on_c, 9, 37, 50
7, 103320, Note_on_c, 9, 54, 60
7, 103420, Note_off_c, 9, 54, 64
7, 103420, Note_off_c, 9, 37, 64
7, 103420, Note_off_c, 9, 42, 64
7, 103420, Note_off_c, 9, 38, 64
7, 103420, Note_off_c, 9, 35, 64
7, 103440, Note_on_c, 9, 35, 127
7, 103440, Note_on_c, 9, 38, 115
7, 103440, Note_on_c, 9, 42, 90
7, 103440, Note_on_c, 9, 37, 80
7, 103440, Note_on_c, 9, 54, 115
7, 103540, Note_off_c, 9, 54, 64
7, 103540, Note_off_c, 9, 37, 64
7, 103540, Note_off_c, 9, 42, 64
7, 103540, Note_off_c, 9, 38, 64
7, 103540, Note_off_c, 9, 35, 64
7, 103560, Note_on_c, 9, 35, 115
7, 103560, Note_on_c, 9, 38, 90
7, 103560, Note_on_c, 9, 42, 90
7, 103560, Note_on_c, 9, 37, 50
7, 103560, Note_on_c, 9, 54, 60
7, 103660, Note_off_c, 9, 54, 64
7, 103660, Note_off_c, 9, 37, 64
7, 103660, Note_off_c, 9, 42, 64
7, 103660, Note_off_c, 9, 38, 64
7, 103660, Note_off_c, 9, 35, 64
7, 103680, Note_on_c, 9, 35, 127
7, 103680, Note_on_c, 9, 42, 100
7, 103680, Note_on_c, 9, 37, 80
7, 103680, Note_on_c, 9, 56, 100
7, 103680, Note_on_c, 9, 49, 100
7, 103680, Note_on_c, 9, 54, 115
7, 103780, Note_off_c, 9, 54, 64
7, 103780, Note_off_c, 9, 49, 64
7, 103780, Note_off_c, 9, 56, 64
7, 103780, Note_off_c, 9, 37, 64
7, 103780, Note_off_c, 9, 42, 64
7, 103780, Note_off_c, 9, 35, 64
7, 103800, Note_on_c, 9, 42, 70
7, 103800, Note_on_c, 9, 37, 50
7, 103800, Note_on_c, 9, 54, 60
7, 103900, Note_off_c, 9, 54, 64
7, 103900, Note_off_c, 9, 37, 64
7, 103900, Note_off_c, 9, 42, 64
7, 103920, Note_on_c, 9, 42, 80
7, 103920, Note_on_c, 9, 37, 80
7, 103920, Note_on_c, 9, 56, 115
7, 103920, Note_on_c, 9, 54, 115
7, 104020, Note_off_c, 9, 54, 64
7, 104020, Note_off_c, 9, 56, 64
7, 104020, Note_off_c, 9, 37, 64
7, 104020, Note_off_c, 9, 42, 64
7, 104040, Note_on_c, 9, 42, 70
7, 104040, Note_on_c, 9, 37, 50
7, 104040, Note_on_c, 9, 54, 60
7, 104140, Note_off_c, 9, 54, 64
7, 104140, Note_off_c, 9, 37, 64
7, 104140, Note_off_c, 9, 42, 64
7, 104160, Note_on_c, 9, 35, 127
7, 104160, Note_on_c, 9, 38, 127
7, 104160, Note_on_c, 9, 42, 100
7, 104160, Note_on_c, 9, 37, 80
7, 104160, Note_on_c, 9, 54, 115
7, 104160, Note_on_c, 9, 39, 115
7, 104260, Note_off_c, 9, 39, 64
7, 104260, Note_off_c, 9, 54, 64
7, 104260, Note_off_c, 9, 37, 64
7, 104260, Note_off_c, 9, 42, 64
7, 104260, Note_off_c, 9, 38, 64
7, 104260, Note_off_c, 9, 35, 64
7, 104280, Note_on_c, 9, 42, 70
7, 104280, Note_on_c, 9, 37, 50
7, 104280, Note_on_c, 9, 54, 60
7, 104380, Note_off_c, 9, 54, 64
7, 104380, Note_off_c, 9, 37, 64
7, 104380, Note_off_c, 9, 42, 64
7, 104400, Note_on_c, 9, 42, 80
7, 104400, Note_on_c, 9, 37, 80
7, 104400, Note_on_c, 9, 56, 100
7, 104400, Note_on_c, 9, 54, 115
7, 104500, Note_off_c, 9, 54, 64
7, 104500, Note_off_c, 9, 56, 64
7, 104500, Note_off_c, 9, 37, 64
7, 104500, Note_off_c, 9, 42, 64
7, 104520, Note_on_c, 9, 35, 115
7, 104520, Note_on_c, 9, 42, 70
7, 104520, Note_on_c, 9, 37, 50
7, 104520, Note_on_c, 9, 56, 115
7, 104520, Note_on_c, 9, 54, 60
7, 104620, Note_off_c, 9, 54, 64
7, 104620, Note_off_c, 9, 56, 64
7, 104620, Note_off_c, 9, 37, 64
7, 104620, Note_off_c, 9, 42, 64
7, 104620, Note_off_c, 9, 35, 64
7, 104640, Note_on_c, 9, 35, 127
7, 104640, Note_on_c, 9, 42, 100
7, 104640, Note_on_c, 9, 37, 80
7, 104640, Note_on_c, 9, 56, 115
7, 104640, Note_on_c, 9, 54, 115
7, 104740, Note_off_c, 9, 54, 64
7, 104740, Note_off_c, 9, 56, 64
7, 104740, Note_off_c, 9, 37, 64
7, 104740, Note_off_c, 9, 42, 64
7, 104740, Note_off_c, 9, 35, 64
7, 104760, Note_on_c, 9, 42, 70
7, 104760, Note_on_c, 9, 37, 50
7, 104760, Note_on_c, 9, 54, 60
7, 104860, Note_off_c, 9, 54, 64
7, 104860, Note_off_c, 9, 37, 64
7, 104860, Note_off_c, 9, 42, 64
7, 104880, Note_on_c, 9, 42, 80
7, 104880, Note_on_c, 9, 37, 80
7, 104880, Note_on_c, 9, 56, 115
7, 104880, Note_on_c, 9, 54, 115
7, 104980, Note_off_c, 9, 54, 64
7, 104980, Note_off_c, 9, 56, 64
7, 104980, Note_off_c, 9, 37, 64
7, 104980, Note_off_c, 9, 42, 64
7, 105000, Note_on_c, 9, 42, 70
7, 105000, Note_on_c, 9, 37, 50
7, 105000, Note_on_c, 9, 54, 60
7, 105100, Note_off_c, 9, 54, 64
7, 105100, Note_off_c, 9, 37, 64
7, 105100, Note_off_c, 9, 42, 64
7, 105120, Note_on_c, 9, 35, 127
7, 105120, Note_on_c, 9, 38, 127
7, 105120, Note_on_c, 9, 42, 100
7, 105120, Note_on_c, 9, 37, 80
7, 105120, Note_on_c, 9, 54, 115
7, 105120, Note_on_c, 9, 39, 115
7, 105220, Note_off_c, 9, 39, 64
7, 105220, Note_off_c, 9, 54, 64
7, 105220, Note_off_c, 9, 37, 64
7, 105220, Note_off_c, 9, 42, 64
7, 105220, Note_off_c, 9, 38, 64
7, 105220, Note_off_c, 9, 35, 64
7, 105240, Note_on_c, 9, 35, 115
7, 105240, Note_on_c, 9, 42, 70
7, 105240, Note_on_c, 9, 37, 50
7, 105240, Note_on_c, 9, 54, 60
7, 105340, Note_off_c, 9, 54, 64
7, 105340, Note_off_c, 9, 37, 64
7, 105340, Note_off_c, 9, 42, 64
7, 105340, Note_off_c, 9, 35, 64
7, 105360, Note_on_c, 9, 35, 127
7, 105360, Note_on_c, 9, 42, 90
7, 105360, Note_on_c, 9, 37, 80
7, 105360, Note_on_c, 9, 54, 115
7, 105460, Note_off_c, 9, 54, 64
7, 105460, Note_off_c, 9, 37, 64
7, 105460, Note_off_c, 9, 42, 64
7, 105460, Note_off_c, 9, 35, 64
7, 105480, Note_on_c, 9, 35, 115
7, 105480, Note_on_c, 9, 42, 90
7, 105480, Note_on_c, 9, 37, 50
7, 105480, Note_on_c, 9, 54, 60
7, 105580, Note_off_c, 9, 54, 64
7, 105580, Note_off_c, 9, 37, 64
7, 105580, Note_off_c, 9, 42, 64
7, 105580, Note_off_c, 9, 35, 64
7, 105600, Note_on_c, 9, 35, 127
7, 105600, Note_on_c, 9, 42, 100
7, 105600, Note_on_c, 9, 37, 80
7, 105600, Note_on_c, 9, 56, 100
7, 105600, Note_on_c, 9, 54, 115
7, 105700, Note_off_c, 9, 54, 64
7, 105700, Note_off_c, 9, 56, 64
7, 105700, Note_off_c, 9, 37, 64
7, 105700, Note_off_c, 9, 42, 64
7, 105700, Note_off_c, 9, 35, 64
7, 105720, Note_on_c, 9, 42, 70
7, 105720, Note_on_c, 9, 37, 50
7, 105720, Note_on_c, 9, 54, 60
7, 105820, Note_off_c, 9, 54, 64
7, 105820, Note_off_c, 9, 37, 64
7, 105820, Note_off_c, 9, 42, 64
7, 105840, Note_on_c, 9, 42, 80
7, 105840, Note_on_c, 9, 37, 80
7, 105840, Note_on_c, 9, 56, 115
7, 105840, Note_on_c, 9, 54, 115
7, 105940, Note_off_c, 9, 54, 64
7, 105940, Note_off_c, 9, 56, 64
7, 105940, Note_off_c, 9, 37, 64
7, 105940, Note_off_c, 9, 42, 64
7, 105960, Note_on_c, 9, 42, 70
7, 105960, Note_on_c, 9, 37, 50
7, 105960, Note_on_c, 9, 54, 60
7, 106060, Note_off_c, 9, 54, 64
7, 106060, Note_off_c, 9, 37, 64
7, 106060, Note_off_c, 9, 42, 64
7, 106080, Note_on_c, 9, 35, 127
7, 106080, Note_on_c, 9, 38, 127
7, 106080, Note_on_c, 9, 42, 100
7, 106080, Note_on_c, 9, 37, 80
7, 106080, Note_on_c, 9, 54, 115
7, 106080, Note_on_c, 9, 39, 115
7, 106180, Note_off_c, 9, 39, 64
7, 106180, Note_off_c, 9, 54, 64
7, 106180, Note_off_c, 9, 37, 64
7, 106180, Note_off_c, 9, 42, 64
7, 106180, Note_off_c, 9, 38, 64
7, 106180, Note_off_c, 9, 35, 64
7, 106200, Note_on_c, 9, 42, 70
7, 106200, Note_on_c, 9, 37, 50
7, 106200, Note_on_c, 9, 54, 60
7, 106300, Note_off_c, 9, 54, 64
7, 106300, Note_off_c, 9, 37, 64
7, 106300, Note_off_c, 9, 42, 64
7, 106320, Note_on_c, 9, 42, 80
7, 106320, Note_on_c, 9, 37, 80
7, 106320, Note_on_c, 9, 56, 100
7, 106320, Note_on_c, 9, 54, 115
7, 106420, Note_off_c, 9, 54, 64
7, 106420, Note_off_c, 9, 56, 64
7, 106420, Note_off_c, 9, 37, 64
7, 106420, Note_off_c, 9, 42, 64
7, 106440, Note_on_c, 9, 35, 115
7, 106440, Note_on_c, 9, 42, 70
7, 106440, Note_on_c, 9, 37, 50
7, 106440, Note_on_c, 9, 56, 115
7, 106440, Note_on_c, 9, 54, 60
7, 106540, Note_off_c, 9, 54, 64
7, 106540, Note_off_c, 9, 56, 64
7, 106540, Note_off_c, 9, 37, 64
7, 106540, Note_off_c, 9, 42, 64
7, 106540, Note_off_c, 9, 35, 64
7, 106560, Note_on_c, 9, 35, 127
7, 106560, Note_on_c, 9, 42, 100
7, 106560, Note_on_c, 9, 37, 80
7, 106560, Note_on_c, 9, 56, 115
7, 106560, Note_on_c, 9, 54, 115
7, 106660, Note_off_c, 9, 54, 64
7, 106660, Note_off_c, 9, 56, 64
7, 106660, Note_off_c, 9, 37, 64
7, 106660, Note_off_c, 9, 42, 64
7, 106660, Note_off_c, 9, 35, 64
7, 106680, Note_on_c, 9, 42, 70
7, 106680, Note_on_c, 9, 37, 50
7, 106680, Note_on_c, 9, 54, 60
7, 106780, Note_off_c, 9, 54, 64
7, 106780, Note_off_c, 9, 37, 64
7, 106780, Note_off_c, 9, 42, 64
7, 106800, Note_on_c, 9, 42, 80
7, 106800, Note_on_c, 9, 37, 80
7, 106800, Note_on_c, 9, 56, 115
7, 106800, Note_on_c, 9, 54, 115
7, 106900, Note_off_c, 9, 54, 64
7, 106900, Note_off_c, 9, 56, 64
7, 106900, Note_off_c, 9, 37, 64
7, 106900, Note_off_c, 9, 42, 64
7, 106920, Note_on_c, 9, 42, 70
7, 106920, Note_on_c, 9, 37, 50
7, 106920, Note_on_c, 9, 54, 60
7, 107020, Note_off_c, 9, 54, 64
7, 107020, Note_off_c, 9, 37, 64
7, 107020, Note_off_c, 9, 42, 64
7, 107040, Note_on_c, 9, 35, 127
7, 107040, Note_on_c, 9, 38, 127
7, 107040, Note_on_c, 9, 42, 100
7, 107040, Note_on_c, 9, 37, 80
7, 107040, Note_on_c, 9, 54, 115
7, 107040, Note_on_c, 9, 39, 115
7, 107140, Note_off_c, 9, 39, 64
7, 107140, Note_off_c, 9, 54, 64
7, 107140, Note_off_c, 9, 37, 64
7, 107140, Note_off_c, 9, 42, 64
7, 107140, Note_off_c, 9, 38, 64
7, 107140, Note_off_c, 9, 35, 64
7, 107160, Note_on_c, 9, 35, 115
7, 107160, Note_on_c, 9, 42, 70
7, 107160, Note_on_c, 9, 37, 50
7, 107160, Note_on_c, 9, 54, 60
7, 107260, Note_off_c, 9, 54, 64
7, 107260, Note_off_c, 9, 37, 64
7, 107260, Note_off_c, 9, 42, 64
7, 107260, Note_off_c, 9, 35, 64
7, 107280, Note_on_c, 9, 35, 127
7, 107280, Note_on_c, 9, 42, 90
7, 107280, Note_on_c, 9, 37, 80
7, 107280, Note_on_c, 9, 54, 115
7, 107380, Note_off_c, 9, 54, 64
7, 107380, Note_off_c, 9, 37, 64
7, 107380, Note_off_c, 9, 42, 64
7, 107380, Note_off_c, 9, 35, 64
7, 107400, Note_on_c, 9, 35, 115
7, 107400, Note_on_c, 9, 42, 90
7, 107400, Note_on_c, 9, 37, 50
7, 107400, Note_on_c, 9, 54, 60
7, 107500, Note_off_c, 9, 54, 64
7, 107500, Note_off_c, 9, 37, 64
7, 107500, Note_off_c, 9, 42, 64
7, 107500, Note_off_c, 9, 35, 64
7, 107520, Note_on_c, 9, 35, 127
7, 107520, Note_on_c, 9, 42, 100
7, 107520, Note_on_c, 9, 37, 80
7, 107520, Note_on_c, 9, 56, 100
7, 107520, Note_on_c, 9, 54, 115
7, 107620, Note_off_c, 9, 54, 64
7, 107620, Note_off_c, 9, 56, 64
7, 107620, Note_off_c, 9, 37, 64
7, 107620, Note_off_c, 9, 42, 64
7, 107620, Note_off_c, 9, 35, 64
7, 107640, Note_on_c, 9, 42, 70
7, 107640, Note_on_c, 9, 37, 50
7, 107640, Note_on_c, 9, 54, 60
7, 107740, Note_off_c, 9, 54, 64
7, 107740, Note_off_c, 9, 37, 64
7, 107740, Note_off_c, 9, 42, 64
7, 107760, Note_on_c, 9, 42, 80
7, 107760, Note_on_c, 9, 37, 80
7, 107760, Note_on_c, 9, 56, 115
7, 107760, Note_on_c, 9, 54, 115
7, 107860, Note_off_c, 9, 54, 64
7, 107860, Note_off_c, 9, 56, 64
7, 107860, Note_off_c, 9, 37, 64
7, 107860, Note_off_c, 9, 42, 64
7, 107880, Note_on_c, 9, 42, 70
7, 107880, Note_on_c, 9, 37, 50
7, 107880, Note_on_c, 9, 54, 60
7, 107980, Note_off_c, 9, 54, 64
7, 107980, Note_off_c, 9, 37, 64
7, 107980, Note_off_c, 9, 42, 64
7, 108000, Note_on_c, 9, 35, 127
7, 108000, Note_on_c, 9, 38, 127
7, 108000, Note_on_c, 9, 42, 100
7, 108000, Note_on_c, 9, 37, 80
7, 108000, Note_on_c, 9, 54, 115
7, 108000, Note_on_c, 9, 39, 115
7, 108100, Note_off_c, 9, 39, 64
7, 108100, Note_off_c, 9, 54, 64
7, 108100, Note_off_c, 9, 37, 64
7, 108100, Note_off_c, 9, 42, 64
7, 108100, Note_off_c, 9, 38, 64
7, 108100, Note_off_c, 9, 35, 64
7, 108120, Note_on_c, 9, 42, 70
7, 108120, Note_on_c, 9, 37, 50
7, 108120, Note_on_c, 9, 54, 60
7, 108220, Note_off_c, 9, 54, 64
7, 108220, Note_off_c, 9, 37, 64
7, 108220, Note_off_c, 9, 42, 64
7, 108240, Note_on_c, 9, 42, 80
7, 108240, Note_on_c, 9, 37, 80
7, 108240, Note_on_c, 9, 56, 100
7, 108240, Note_on_c, 9, 54, 115
7, 108340, Note_off_c, 9, 54, 64
7, 108340, Note_off_c, 9, 56, 64
7, 108340, Note_off_c, 9, 37, 64
7, 108340, Note_off_c, 9, 42, 64
7, 108360, Note_on_c, 9, 35, 115
7, 108360, Note_on_c, 9, 42, 70
7, 108360, Note_on_c, 9, 37, 50
7, 108360, Note_on_c, 9, 56, 115
7, 108360, Note_on_c, 9, 54, 60
7, 108460, Note_off_c, 9, 54, 64
7, 108460, Note_off_c, 9, 56, 64
7, 108460, Note_off_c, 9, 37, 64
7, 108460, Note_off_c, 9, 42, 64
7, 108460, Note_off_c, 9, 35, 64
7, 108480, Note_on_c, 9, 35, 127
7, 108480, Note_on_c, 9, 42, 100
7, 108480, Note_on_c, 9, 37, 80
7, 108480, Note_on_c, 9, 56, 115
7, 108480, Note_on_c, 9, 54, 115
7, 108580, Note_off_c, 9, 54, 64
7, 108580, Note_off_c, 9, 56, 64
7, 108580, Note_off_c, 9, 37, 64
7, 108580, Note_off_c, 9, 42, 64
7, 108580, Note_off_c, 9, 35, 64
7, 108600, Note_on_c, 9, 42, 70
7, 108600, Note_on_c, 9, 37, 50
7, 108600, Note_on_c, 9, 54, 60
7, 108700, Note_off_c, 9, 54, 64
7, 108700, Note_off_c, 9, 37, 64
7, 108700, Note_off_c, 9, 42, 64
7, 108720, Note_on_c, 9, 42, 80
7, 108720, Note_on_c, 9, 37, 80
7, 108720, Note_on_c, 9, 56, 115
7, 108720, Note_on_c, 9, 54, 115
7, 108820, Note_off_c, 9, 54, 64
7, 108820, Note_off_c, 9, 56, 64
7, 108820, Note_off_c, 9, 37, 64
7, 108820, Note_off_c, 9, 42, 64
7, 108840, Note_on_c, 9, 42, 70
7, 108840, Note_on_c, 9, 37, 50
7, 108840, Note_on_c, 9, 54, 60
7, 108940, Note_off_c, 9, 54, 64
7, 108940, Note_off_c, 9, 37, 64
7, 108940, Note_off_c, 9, 42, 64
7, 108960, Note_on_c, 9, 35, 127
7, 108960, Note_on_c, 9, 38, 127
7, 108960, Note_on_c, 9, 42, 100
7, 108960, Note_on_c, 9, 37, 80
7, 108960, Note_on_c, 9, 54, 115
7, 108960, Note_on_c, 9, 39, 115
7, 109060, Note_off_c, 9, 39, 64
7, 109060, Note_off_c, 9, 54, 64
7, 109060, Note_off_c, 9, 37, 64
7, 109060, Note_off_c, 9, 42, 64
7, 109060, Note_off_c, 9, 38, 64
7, 109060, Note_off_c, 9, 35, 64
7, 109080, Note_on_c, 9, 35, 115
7, 109080, Note_on_c, 9, 42, 70
7, 109080, Note_on_c, 9, 37, 50
7, 109080, Note_on_c, 9, 54, 60
7, 109180, Note_off_c, 9, 54, 64
7, 109180, Note_off_c, 9, 37, 64
7, 109180, Note_off_c, 9, 42, 64
7, 109180, Note_off_c, 9, 35, 64
7, 109200, Note_on_c, 9, 35, 127
7, 109200, Note_on_c, 9, 42, 90
7, 109200, Note_on_c, 9, 37, 80
7, 109200, Note_on_c, 9, 54, 115
7, 109300, Note_off_c, 9, 54, 64
7, 109300, Note_off_c, 9, 37, 64
7, 109300, Note_off_c, 9, 42, 64
7, 109300, Note_off_c, 9, 35, 64
7, 109320, Note_on_c, 9, 35, 115
7, 109320, Note_on_c, 9, 42, 90
7, 109320, Note_on_c, 9, 37, 50
7, 109320, Note_on_c, 9, 54, 60
7, 109420, Note_off_c, 9, 54, 64
7, 109420, Note_off_c, 9, 37, 64
7, 109420, Note_off_c, 9, 42, 64
7, 109420, Note_off_c, 9, 35, 64
7, 109440, Note_on_c, 9, 35, 127
7, 109440, Note_on_c, 9, 38, 127
7, 109440, Note_on_c, 9, 42, 100
7, 109440, Note_on_c, 9, 37, 80
7, 109440, Note_on_c, 9, 56, 100
7, 109440, Note_on_c, 9, 54, 115
7, 109540, Note_off_c, 9, 54, 64
7, 109540, Note_off_c, 9, 56, 64
7, 109540, Note_off_c, 9, 37, 64
7, 109540, Note_off_c, 9, 42, 64
7, 109540, Note_off_c, 9, 38, 64
7, 109540, Note_off_c, 9, 35, 64
7, 109560, Note_on_c, 9, 38, 100
7, 109560, Note_on_c, 9, 42, 70
7, 109560, Note_on_c, 9, 37, 50
7, 109560, Note_on_c, 9, 54, 60
7, 109660, Note_off_c, 9, 54, 64
7, 109660, Note_off_c, 9, 37, 64
7, 109660, Note_off_c, 9, 42, 64
7, 109660, Note_off_c, 9, 38, 64
7, 109680, Note_on_c, 9, 38, 115
7, 109680, Note_on_c, 9, 42, 80
7, 109680, Note_on_c, 9, 37, 80
7, 109680, Note_on_c, 9, 56, 115
7, 109680, Note_on_c, 9, 54, 115
7, 109780, Note_off_c, 9, 54, 64
7, 109780, Note_off_c, 9, 56, 64
7, 109780, Note_off_c, 9, 37, 64
7, 109780, Note_off_c, 9, 42, 64
7, 109780, Note_off_c, 9, 38, 64
7, 109800, Note_on_c, 9, 38, 90
7, 109800, Note_on_c, 9, 42, 70
7, 109800, Note_on_c, 9, 37, 50
7, 109800, Note_on_c, 9, 54, 60
7, 109900, Note_off_c, 9, 54, 64
7, 109900, Note_off_c, 9, 37, 64
7, 109900, Note_off_c, 9, 42, 64
7, 109900, Note_off_c, 9, 38, 64
7, 109920, Note_on_c, 9, 35, 127
7, 109920, Note_on_c, 9, 38, 127
7, 109920, Note_on_c, 9, 42, 100
7, 109920, Note_on_c, 9, 37, 80
7, 109920, Note_on_c, 9, 54, 115
7, 109920, Note_on_c, 9, 39, 115
7, 110020, Note_off_c, 9, 39, 64
7, 110020, Note_off_c, 9, 54, 64
7, 110020, Note_off_c, 9, 37, 64
7, 110020, Note_off_c, 9, 42, 64
7, 110020, Note_off_c, 9, 38, 64
7, 110020, Note_off_c, 9, 35, 64
7, 110040, Note_on_c, 9, 38, 100
7, 110040, Note_on_c, 9, 42, 70
7, 110040, Note_on_c, 9, 37, 50
7, 110040, Note_on_c, 9, 54, 60
7, 110140, Note_off_c, 9, 54, 64
7, 110140, Note_off_c, 9, 37, 64
7, 110140, Note_off_c, 9, 42, 64
7, 110140, Note_off_c, 9, 38, 64
7, 110160, Note_on_c, 9, 38, 115
7, 110160, Note_on_c, 9, 42, 80
7, 110160, Note_on_c, 9, 37, 80
7, 110160, Note_on_c, 9, 56, 100
7, 110160, Note_on_c, 9, 54, 115
7, 110260, Note_off_c, 9, 54, 64
7, 110260, Note_off_c, 9, 56, 64
7, 110260, Note_off_c, 9, 37, 64
7, 110260, Note_off_c, 9, 42, 64
7, 110260, Note_off_c, 9, 38, 64
7, 110280, Note_on_c, 9, 35, 115
7, 110280, Note_on_c, 9, 38, 90
7, 110280, Note_on_c, 9, 42, 70
7, 110280, Note_on_c, 9, 37, 50
7, 110280, Note_on_c, 9, 56, 115
7, 110280, Note_on_c, 9, 54, 60
7, 110380, Note_off_c, 9, 54, 64
7, 110380, Note_off_c, 9, 56, 64
7, 110380, Note_off_c, 9, 37, 64
7, 110380, Note_off_c, 9, 42, 64
7, 110380, Note_off_c, 9, 38, 64
7, 110380, Note_off_c, 9, 35, 64
7, 110400, Note_on_c, 9, 35, 127
7, 110400, Note_on_c, 9, 38, 127
7, 110400, Note_on_c, 9, 42, 100
7, 110400, Note_on_c, 9, 37, 80
7, 110400, Note_on_c, 9, 56, 115
7, 110400, Note_on_c, 9, 54, 115
7, 110500, Note_off_c, 9, 54, 64
7, 110500, Note_off_c, 9, 56, 64
7, 110500, Note_off_c, 9, 37, 64
7, 110500, Note_off_c, 9, 42, 64
7, 110500, Note_off_c, 9, 38, 64
7, 110500, Note_off_c, 9, 35, 64
7, 110520, Note_on_c, 9, 38, 100
7, 110520, Note_on_c, 9, 42, 70
7, 110520, Note_on_c, 9, 37, 50
7, 110520, Note_on_c, 9, 54, 60
7, 110620, Note_off_c, 9, 54, 64
7, 110620, Note_off_c, 9, 37, 64
7, 110620, Note_off_c, 9, 42, 64
7, 110620, Note_off_c, 9, 38, 64
7, 110640, Note_on_c, 9, 38, 115
7, 110640, Note_on_c, 9, 42, 80
7, 110640, Note_on_c, 9, 37, 80
7, 110640, Note_on_c, 9, 56, 115
7, 110640, Note_on_c, 9, 54, 115
7, 110740, Note_off_c, 9, 54, 64
7, 110740, Note_off_c, 9, 56, 64
7, 110740, Note_off_c, 9, 37, 64
7, 110740, Note_off_c, 9, 42, 64
7, 110740, Note_off_c, 9, 38, 64
7, 110760, Note_on_c, 9, 38, 90
7, 110760, Note_on_c, 9, 42, 70
7, 110760, Note_on_c, 9, 37, 50
7, 110760, Note_on_c, 9, 54, 60
7, 110860, Note_off_c, 9, 54, 64
7, 110860, Note_off_c, 9, 37, 64
7, 110860, Note_off_c, 9, 42, 64
7, 110860, Note_off_c, 9, 38, 64
7, 110880, Note_on_c, 9, 35, 127
7, 110880, Note_on_c, 9, 38, 127
7, 110880, Note_on_c, 9, 42, 100
7, 110880, Note_on_c, 9, 37, 80
7, 110880, Note_on_c, 9, 54, 115
7, 110880, Note_on_c, 9, 39, 115
7, 110980, Note_off_c, 9, 39, 64
7, 110980, Note_off_c, 9, 54, 64
7, 110980, Note_off_c, 9, 37, 64
7, 110980, Note_off_c, 9, 42, 64
7, 110980, Note_off_c, 9, 38, 64
7, 110980, Note_off_c, 9, 35, 64
7, 111000, Note_on_c, 9, 35, 115
7, 111000, Note_on_c, 9, 38, 100
7, 111000, Note_on_c, 9, 42, 70
7, 111000, Note_on_c, 9, 37, 50
7, 111000, Note_on_c, 9, 54, 60
7, 111100, Note_off_c, 9, 54, 64
7, 111100, Note_off_c, 9, 37, 64
7, 111100, Note_off_c, 9, 42, 64
7, 111100, Note_off_c, 9, 38, 64
7, 111100, Note_off_c, 9, 35, 64
7, 111120, Note_on_c, 9, 35, 127
7, 111120, Note_on_c, 9, 38, 115
7, 111120, Note_on_c, 9, 42, 90
7, 111120, Note_on_c, 9, 37, 80
7, 111120, Note_on_c, 9, 54, 115
7, 111220, Note_off_c, 9, 54, 64
7, 111220, Note_off_c, 9, 37, 64
7, 111220, Note_off_c, 9, 42, 64
7, 111220, Note_off_c, 9, 38, 64
7, 111220, Note_off_c, 9, 35, 64
7, 111240, Note_on_c, 9, 35, 115
7, 111240, Note_on_c, 9, 38, 90
7, 111240, Note_on_c, 9, 42, 90
7, 111240, Note_on_c, 9, 37, 50
7, 111240, Note_on_c, 9, 54, 60
7, 111340, Note_off_c, 9, 54, 64
7, 111340, Note_off_c, 9, 37, 64
7, 111340, Note_off_c, 9, 42, 64
7, 111340, Note_off_c, 9, 38, 64
7, 111340, Note_off_c, 9, 35, 64
7, 111360, Note_on_c, 9, 35, 127
7, 111360, Note_on_c, 9, 42, 100
7, 111360, Note_on_c, 9, 37, 80
7, 111360, Note_on_c, 9, 56, 100
7, 111360, Note_on_c, 9, 49, 100
7, 111360, Note_on_c, 9, 54, 115
7, 111460, Note_off_c, 9, 54, 64
7, 111460, Note_off_c, 9, 49, 64
7, 111460, Note_off_c, 9, 56, 64
7, 111460, Note_off_c, 9, 37, 64
7, 111460, Note_off_c, 9, 42, 64
7, 111460, Note_off_c, 9, 35, 64
7, 111480, Note_on_c, 9, 42, 70
7, 111480, Note_on_c, 9, 37, 50
7, 111480, Note_on_c, 9, 54, 60
7, 111580, Note_off_c, 9, 54, 64
7, 111580, Note_off_c, 9, 37, 64
7, 111580, Note_off_c, 9, 42, 64
7, 111600, Note_on_c, 9, 42, 80
7, 111600, Note_on_c, 9, 37, 80
7, 111600, Note_on_c, 9, 56, 115
7, 111600, Note_on_c, 9, 54, 115
7, 111700, Note_off_c, 9, 54, 64
7, 111700, Note_off_c, 9, 56, 64
7, 111700, Note_off_c, 9, 37, 64
7, 111700, Note_off_c, 9, 42, 64
7, 111720, Note_on_c, 9, 42, 70
7, 111720, Note_on_c, 9, 37, 50
7, 111720, Note_on_c, 9, 54, 60
7, 111820, Note_off_c, 9, 54, 64
7, 111820, Note_off_c, 9, 37, 64
7, 111820, Note_off_c, 9, 42, 64
7, 111840, Note_on_c, 9, 35, 127
7, 111840, Note_on_c, 9, 38, 127
7, 111840, Note_on_c, 9, 42, 100
7, 111840, Note_on_c, 9, 37, 80
7, 111840, Note_on_c, 9, 54, 115
7, 111840, Note_on_c, 9, 39, 115
7, 111940, Note_off_c, 9, 39, 64
7, 111940, Note_off_c, 9, 54, 64
7, 111940, Note_off_c, 9, 37, 64
7, 111940, Note_off_c, 9, 42, 64
7, 111940, Note_off_c, 9, 38, 64
7, 111940, Note_off_c, 9, 35, 64
7, 111960, Note_on_c, 9, 42, 70
7, 111960, Note_on_c, 9, 37, 50
7, 111960, Note_on_c, 9, 54, 60
7, 112060, Note_off_c, 9, 54, 64
7, 112060, Note_off_c, 9, 37, 64
7, 112060, Note_off_c, 9, 42, 64
7, 112080, Note_on_c, 9, 42, 80
7, 112080, Note_on_c, 9, 37, 80
7, 112080, Note_on_c, 9, 56, 100
7, 112080, Note_on_c, 9, 54, 115
7, 112180, Note_off_c, 9, 54, 64
7, 112180, Note_off_c, 9, 56, 64
7, 112180, Note_off_c, 9, 37, 64
7, 112180, Note_off_c, 9, 42, 64
7, 112200, Note_on_c, 9, 35, 115
7, 112200, Note_on_c, 9, 42, 70
7, 112200, Note_on_c, 9, 37, 50
7, 112200, Note_on_c, 9, 56, 115
7, 112200, Note_on_c, 9, 54, 60
7, 112300, Note_off_c, 9, 54, 64
7, 112300, Note_off_c, 9, 56, 64
7, 112300, Note_off_c, 9, 37, 64
7, 112300, Note_off_c, 9, 42, 64
7, 112300, Note_off_c, 9, 35, 64
7, 112320, Note_on_c, 9, 35, 127
7, 112320, Note_on_c, 9, 42, 100
7, 112320, Note_on_c, 9, 37, 80
7, 112320, Note_on_c, 9, 56, 115
7, 112320, Note_on_c, 9, 54, 115
7, 112420, Note_off_c, 9, 54, 64
7, 112420, Note_off_c, 9, 56, 64
7, 112420, Note_off_c, 9, 37, 64
7, 112420, Note_off_c, 9, 42, 64
7, 112420, Note_off_c, 9, 35, 64
7, 112440, Note_on_c, 9, 42, 70
7, 112440, Note_on_c, 9, 37, 50
7, 112440, Note_on_c, 9, 54, 60
7, 112540, Note_off_c, 9, 54, 64
7, 112540, Note_off_c, 9, 37, 64
7, 112540, Note_off_c, 9, 42, 64
7, 112560, Note_on_c, 9, 42, 80
7, 112560, Note_on_c, 9, 37, 80
7, 112560, Note_on_c, 9, 56, 115
7, 112560, Note_on_c, 9, 54, 115
7, 112660, Note_off_c, 9, 54, 64
7, 112660, Note_off_c, 9, 56, 64
7, 112660, Note_off_c, 9, 37, 64
7, 112660, Note_off_c, 9, 42, 64
7, 112680, Note_on_c, 9, 42, 70
7, 112680, Note_on_c, 9, 37, 50
7, 112680, Note_on_c, 9, 54, 60
7, 112780, Note_off_c, 9, 54, 64
7, 112780, Note_off_c, 9, 37, 64
7, 112780, Note_off_c, 9, 42, 64
7, 112800, Note_on_c, 9, 35, 127
7, 112800, Note_on_c, 9, 38, 127
7, 112800, Note_on_c, 9, 42, 100
7, 112800, Note_on_c, 9, 37, 80
7, 112800, Note_on_c, 9, 54, 115
7, 112800, Note_on_c, 9, 39, 115
7, 112900, Note_off_c, 9, 39, 64
7, 112900, Note_off_c, 9, 54, 64
7, 112900, Note_off_c, 9, 37, 64
7, 112900, Note_off_c, 9, 42, 64
7, 112900, Note_off_c, 9, 38, 64
7, 112900, Note_off_c, 9, 35, 64
7, 112920, Note_on_c, 9, 35, 115
7, 112920, Note_on_c, 9, 42, 70
7, 112920, Note_on_c, 9, 37, 50
7, 112920, Note_on_c, 9, 54, 60
7, 113020, Note_off_c, 9, 54, 64
7, 113020, Note_off_c, 9, 37, 64
7, 113020, Note_off_c, 9, 42, 64
7, 113020, Note_off_c, 9, 35, 64
7, 113040, Note_on_c, 9, 35, 127
7, 113040, Note_on_c, 9, 42, 90
7, 113040, Note_on_c, 9, 37, 80
7, 113040, Note_on_c, 9, 54, 115
7, 113140, Note_off_c, 9, 54, 64
7, 113140, Note_off_c, 9, 37, 64
7, 113140, Note_off_c, 9, 42, 64
7, 113140, Note_off_c, 9, 35, 64
7, 113160, Note_on_c, 9, 35, 115
7, 113160, Note_on_c, 9, 42, 90
7, 113160, Note_on_c, 9, 37, 50
7, 113160, Note_on_c, 9, 54, 60
7, 113260, Note_off_c, 9, 54, 64
7, 113260, Note_off_c, 9, 37, 64
7, 113260, Note_off_c, 9, 42, 64
7, 113260, Note_off_c, 9, 35, 64
7, 113280, Note_on_c, 9, 35, 127
7, 113280, Note_on_c, 9, 42, 100
7, 113280, Note_on_c, 9, 37, 80
7, 113280, Note_on_c, 9, 56, 100
7, 113280, Note_on_c, 9, 54, 115
7, 113380, Note_off_c, 9, 54, 64
7, 113380, Note_off_c, 9, 56, 64
7, 113380, Note_off_c, 9, 37, 64
7, 113380, Note_off_c, 9, 42, 64
7, 113380, Note_off_c, 9, 35, 64
7, 113400, Note_on_c, 9, 42, 70
7, 113400, Note_on_c, 9, 37, 50
7, 113400, Note_on_c, 9, 54, 60
7, 113500, Note_off_c, 9, 54, 64
7, 113500, Note_off_c, 9, 37, 64
7, 113500, Note_off_c, 9, 42, 64
7, 113520, Note_on_c, 9, 42, 80
7, 113520, Note_on_c, 9, 37, 80
7, 113520, Note_on_c, 9, 56, 115
7, 113520, Note_on_c, 9, 54, 115
7, 113620, Note_off_c, 9, 54, 64
7, 113620, Note_off_c, 9, 56, 64
7, 113620, Note_off_c, 9, 37, 64
7, 113620, Note_off_c, 9, 42, 64
7, 113640, Note_on_c, 9, 42, 70
7, 113640, Note_on_c, 9, 37, 50
7, 113640, Note_on_c, 9, 54, 60
7, 113740, Note_off_c, 9, 54, 64
7, 113740, Note_off_c, 9, 37, 64
7, 113740, Note_off_c, 9, 42, 64
7, 113760, Note_on_c, 9, 35, 127
7, 113760, Note_on_c, 9, 38, 127
7, 113760, Note_on_c, 9, 42, 100
7, 113760, Note_on_c, 9, 37, 80
7, 113760, Note_on_c, 9, 54, 115
7, 113760, Note_on_c, 9, 39, 115
7, 113860, Note_off_c, 9, 39, 64
7, 113860, Note_off_c, 9, 54, 64
7, 113860, Note_off_c, 9, 37, 64
7, 113860, Note_off_c, 9, 42, 64
7, 113860, Note_off_c, 9, 38, 64
7, 113860, Note_off_c, 9, 35, 64
7, 113880, Note_on_c, 9, 42, 70
7, 113880, Note_on_c, 9, 37, 50
7, 113880, Note_on_c, 9, 54, 60
7, 113980, Note_off_c, 9, 54, 64
7, 113980, Note_off_c, 9, 37, 64
7, 113980, Note_off_c, 9, 42, 64
7, 114000, Note_on_c, 9, 42, 80
7, 114000, Note_on_c, 9, 37, 80
7, 114000, Note_on_c, 9, 56, 100
7, 114000, Note_on_c, 9, 54, 115
7, 114100, Note_off_c, 9, 54, 64
7, 114100, Note_off_c, 9, 56, 64
7, 114100, Note_off_c, 9, 37, 64
7, 114100, Note_off_c, 9, 42, 64
7, 114120, Note_on_c, 9, 35, 115
7, 114120, Note_on_c, 9, 42, 70
7, 114120, Note_on_c, 9, 37, 50
7, 114120, Note_on_c, 9, 56, 115
7, 114120, Note_on_c, 9, 54, 60
7, 114220, Note_off_c, 9, 54, 64
7, 114220, Note_off_c, 9, 56, 64
7, 114220, Note_off_c, 9, 37, 64
7, 114220, Note_off_c, 9, 42, 64
7, 114220, Note_off_c, 9, 35, 64
7, 114240, Note_on_c, 9, 35, 127
7, 114240, Note_on_c, 9, 42, 100
7, 114240, Note_on_c, 9, 37, 80
7, 114240, Note_on_c, 9, 56, 115
7, 114240, Note_on_c, 9, 54, 115
7, 114340, Note_off_c, 9, 54, 64
7, 114340, Note_off_c, 9, 56, 64
7, 114340, Note_off_c, 9, 37, 64
7, 114340, Note_off_c, 9, 42, 64
7, 114340, Note_off_c, 9, 35, 64
7, 114360, Note_on_c, 9, 42, 70
7, 114360, Note_on_c, 9, 37, 50
7, 114360, Note_on_c, 9, 54, 60
7, 114460, Note_off_c, 9, 54, 64
7, 114460, Note_off_c, 9, 37, 64
7, 114460, Note_off_c, 9, 42, 64
7, 114480, Note_on_c, 9, 42, 80
7, 114480, Note_on_c, 9, 37, 80
7, 114480, Note_on_c, 9, 56, 115
7, 114480, Note_on_c, 9, 54, 115
7, 114580, Note_off_c, 9, 54, 64
7, 114580, Note_off_c, 9, 56, 64
7, 114580, Note_off_c, 9, 37, 64
7, 114580, Note_off_c, 9, 42, 64
7, 114600, Note_on_c, 9, 42, 110
7, 114600, Note_on_c, 9, 37, 50
7, 114600, Note_on_c, 9, 54, 60
7, 114700, Note_off_c, 9, 54, 64
7, 114700, Note_off_c, 9, 37, 64
7, 114700, Note_off_c, 9, 42, 64
7, 114720, Note_on_c, 9, 35, 127
7, 114720, Note_on_c, 9, 38, 127
7, 114720, Note_on_c, 9, 42, 100
7, 114720, Note_on_c, 9, 37, 80
7, 114720, Note_on_c, 9, 54, 115
7, 114720, Note_on_c, 9, 39, 115
7, 114820, Note_off_c, 9, 39, 64
7, 114820, Note_off_c, 9, 54, 64
7, 114820, Note_off_c, 9, 37, 64
7, 114820, Note_off_c, 9, 42, 64
7, 114820, Note_off_c, 9, 38, 64
7, 114820, Note_off_c, 9, 35, 64
7, 114840, Note_on_c, 9, 35, 115
7, 114840, Note_on_c, 9, 42, 70
7, 114840, Note_on_c, 9, 37, 50
7, 114840, Note_on_c, 9, 54, 60
7, 114940, Note_off_c, 9, 54, 64
7, 114940, Note_off_c, 9, 37, 64
7, 114940, Note_off_c, 9, 42, 64
7, 114940, Note_off_c, 9, 35, 64
7, 114960, Note_on_c, 9, 35, 127
7, 114960, Note_on_c, 9, 42, 90
7, 114960, Note_on_c, 9, 37, 80
7, 114960, Note_on_c, 9, 54, 115
7, 115060, Note_off_c, 9, 54, 64
7, 115060, Note_off_c, 9, 37, 64
7, 115060, Note_off_c, 9, 42, 64
7, 115060, Note_off_c, 9, 35, 64
7, 115080, Note_on_c, 9, 35, 115
7, 115080, Note_on_c, 9, 42, 90
7, 115080, Note_on_c, 9, 37, 50
7, 115080, Note_on_c, 9, 54, 60
7, 115180, Note_off_c, 9, 54, 64
7, 115180, Note_off_c, 9, 37, 64
7, 115180, Note_off_c, 9, 42, 64
7, 115180, Note_off_c, 9, 35, 64
7, 115200, Note_on_c, 9, 35, 127
7, 115200, Note_on_c, 9, 42, 100
7, 115200, Note_on_c, 9, 37, 80
7, 115200, Note_on_c, 9, 56, 100
7, 115200, Note_on_c, 9, 54, 115
7, 115300, Note_off_c, 9, 54, 64
7, 115300, Note_off_c, 9, 56, 64
7, 115300, Note_off_c, 9, 37, 64
7, 115300, Note_off_c, 9, 42, 64
7, 115300, Note_off_c, 9, 35, 64
7, 115320, Note_on_c, 9, 42, 70
7, 115320, Note_on_c, 9, 37, 50
7, 115320, Note_on_c, 9, 54, 60
7, 115420, Note_off_c, 9, 54, 64
7, 115420, Note_off_c, 9, 37, 64
7, 115420, Note_off_c, 9, 42, 64
7, 115440, Note_on_c, 9, 42, 80
7, 115440, Note_on_c, 9, 37, 80
7, 115440, Note_on_c, 9, 56, 115
7, 115440, Note_on_c, 9, 54, 115
7, 115540, Note_off_c, 9, 54, 64
7, 115540, Note_off_c, 9, 56, 64
7, 115540, Note_off_c, 9, 37, 64
7, 115540, Note_off_c, 9, 42, 64
7, 115560, Note_on_c, 9, 42, 70
7, 115560, Note_on_c, 9, 37, 50
7, 115560, Note_on_c, 9, 54, 60
7, 115660, Note_off_c, 9, 54, 64
7, 115660, Note_off_c, 9, 37, 64
7, 115660, Note_off_c, 9, 42, 64
7, 115680, Note_on_c, 9, 35, 127
7, 115680, Note_on_c, 9, 38, 127
7, 115680, Note_on_c, 9, 42, 100
7, 115680, Note_on_c, 9, 37, 80
7, 115680, Note_on_c, 9, 54, 115
7, 115680, Note_on_c, 9, 39, 115
7, 115780, Note_off_c, 9, 39, 64
7, 115780, Note_off_c, 9, 54, 64
7, 115780, Note_off_c, 9, 37, 64
7, 115780, Note_off_c, 9, 42, 64
7, 115780, Note_off_c, 9, 38, 64
7, 115780, Note_off_c, 9, 35, 64
7, 115800, Note_on_c, 9, 42, 70
7, 115800, Note_on_c, 9, 37, 50
7, 115800, Note_on_c, 9, 54, 60
7, 115900, Note_off_c, 9, 54, 64
7, 115900, Note_off_c, 9, 37, 64
7, 115900, Note_off_c, 9, 42, 64
7, 115920, Note_on_c, 9, 42, 80
7, 115920, Note_on_c, 9, 37, 80
7, 115920, Note_on_c, 9, 56, 100
7, 115920, Note_on_c, 9, 54, 115
7, 116020, Note_off_c, 9, 54, 64
7, 116020, Note_off_c, 9, 56, 64
7, 116020, Note_off_c, 9, 37, 64
7, 116020, Note_off_c, 9, 42, 64
7, 116040, Note_on_c, 9, 35, 115
7, 116040, Note_on_c, 9, 42, 70
7, 116040, Note_on_c, 9, 37, 50
7, 116040, Note_on_c, 9, 56, 115
7, 116040, Note_on_c, 9, 54, 60
7, 116140, Note_off_c, 9, 54, 64
7, 116140, Note_off_c, 9, 56, 64
7, 116140, Note_off_c, 9, 37, 64
7, 116140, Note_off_c, 9, 42, 64
7, 116140, Note_off_c, 9, 35, 64
7, 116160, Note_on_c, 9, 35, 127
7, 116160, Note_on_c, 9, 42, 100
7, 116160, Note_on_c, 9, 37, 80
7, 116160, Note_on_c, 9, 56, 115
7, 116160, Note_on_c, 9, 54, 115
7, 116260, Note_off_c, 9, 54, 64
7, 116260, Note_off_c, 9, 56, 64
7, 116260, Note_off_c, 9, 37, 64
7, 116260, Note_off_c, 9, 42, 64
7, 116260, Note_off_c, 9, 35, 64
7, 116280, Note_on_c, 9, 42, 70
7, 116280, Note_on_c, 9, 37, 50
7, 116280, Note_on_c, 9, 54, 60
7, 116380, Note_off_c, 9, 54, 64
7, 116380, Note_off_c, 9, 37, 64
7, 116380, Note_off_c, 9, 42, 64
7, 116400, Note_on_c, 9, 42, 80
7, 116400, Note_on_c, 9, 37, 80
7, 116400, Note_on_c, 9, 56, 115
7, 116400, Note_on_c, 9, 54, 115
7, 116500, Note_off_c, 9, 54, 64
7, 116500, Note_off_c, 9, 56, 64
7, 116500, Note_off_c, 9, 37, 64
7, 116500, Note_off_c, 9, 42, 64
7, 116520, Note_on_c, 9, 42, 70
7, 116520, Note_on_c, 9, 37, 50
7, 116520, Note_on_c, 9, 54, 60
7, 116620, Note_off_c, 9, 54, 64
7, 116620, Note_off_c, 9, 37, 64
7, 116620, Note_off_c, 9, 42, 64
7, 116640, Note_on_c, 9, 35, 127
7, 116640, Note_on_c, 9, 38, 127
7, 116640, Note_on_c, 9, 42, 100
7, 116640, Note_on_c, 9, 37, 80
7, 116640, Note_on_c, 9, 54, 115
7, 116640, Note_on_c, 9, 39, 115
7, 116740, Note_off_c, 9, 39, 64
7, 116740, Note_off_c, 9, 54, 64
7, 116740, Note_off_c, 9, 37, 64
7, 116740, Note_off_c, 9, 42, 64
7, 116740, Note_off_c, 9, 38, 64
7, 116740, Note_off_c, 9, 35, 64
7, 116760, Note_on_c, 9, 35, 115
7, 116760, Note_on_c, 9, 42, 70
7, 116760, Note_on_c, 9, 37, 50
7, 116760, Note_on_c, 9, 54, 60
7, 116860, Note_off_c, 9, 54, 64
7, 116860, Note_off_c, 9, 37, 64
7, 116860, Note_off_c, 9, 42, 64
7, 116860, Note_off_c, 9, 35, 64
7, 116880, Note_on_c, 9, 35, 127
7, 116880, Note_on_c, 9, 42, 90
7, 116880, Note_on_c, 9, 37, 80
7, 116880, Note_on_c, 9, 54, 115
7, 116980, Note_off_c, 9, 54, 64
7, 116980, Note_off_c, 9, 37, 64
7, 116980, Note_off_c, 9, 42, 64
7, 116980, Note_off_c, 9, 35, 64
7, 117000, Note_on_c, 9, 35, 115
7, 117000, Note_on_c, 9, 42, 90
7, 117000, Note_on_c, 9, 37, 50
7, 117000, Note_on_c, 9, 54, 60
7, 117100, Note_off_c, 9, 54, 64
7, 117100, Note_off_c, 9, 37, 64
7, 117100, Note_off_c, 9, 42, 64
7, 117100, Note_off_c, 9, 35, 64
7, 117120, Note_on_c, 9, 35, 127
7, 117120, Note_on_c, 9, 42, 100
7, 117120, Note_on_c, 9, 37, 80
7, 117120, Note_on_c, 9, 56, 100
7, 117120, Note_on_c, 9, 54, 115
7, 117220, Note_off_c, 9, 54, 64
7, 117220, Note_off_c, 9, 56, 64
7, 117220, Note_off_c, 9, 37, 64
7, 117220, Note_off_c, 9, 42, 64
7, 117220, Note_off_c, 9, 35, 64
7, 117240, Note_on_c, 9, 42, 70
7, 117240, Note_on_c, 9, 37, 50
7, 117240, Note_on_c, 9, 54, 60
7, 117340, Note_off_c, 9, 54, 64
7, 117340, Note_off_c, 9, 37, 64
7, 117340, Note_off_c, 9, 42, 64
7, 117360, Note_on_c, 9, 42, 80
7, 117360, Note_on_c, 9, 37, 80
7, 117360, Note_on_c, 9, 56, 115
7, 117360, Note_on_c, 9, 54, 115
7, 117460, Note_off_c, 9, 54, 64
7, 117460, Note_off_c, 9, 56, 64
7, 117460, Note_off_c, 9, 37, 64
7, 117460, Note_off_c, 9, 42, 64
7, 117480, Note_on_c, 9, 42, 70
7, 117480, Note_on_c, 9, 37, 50
7, 117480, Note_on_c, 9, 54, 60
7, 117580, Note_off_c, 9, 54, 64
7, 117580, Note_off_c, 9, 37, 64
7, 117580, Note_off_c, 9, 42, 64
7, 117600, Note_on_c, 9, 35, 127
7, 117600, Note_on_c, 9, 38, 127
7, 117600, Note_on_c, 9, 42, 100
7, 117600, Note_on_c, 9, 37, 80
7, 117600, Note_on_c, 9, 54, 115
7, 117600, Note_on_c, 9, 39, 115
7, 117700, Note_off_c, 9, 39, 64
7, 117700, Note_off_c, 9, 54, 64
7, 117700, Note_off_c, 9, 37, 64
7, 117700, Note_off_c, 9, 42, 64
7, 117700, Note_off_c, 9, 38, 64
7, 117700, Note_off_c, 9, 35, 64
7, 117720, Note_on_c, 9, 42, 70
7, 117720, Note_on_c, 9, 37, 50
7, 117720, Note_on_c, 9, 54, 60
7, 117820, Note_off_c, 9, 54, 64
7, 117820, Note_off_c, 9, 37, 64
7, 117820, Note_off_c, 9, 42, 64
7, 117840, Note_on_c, 9, 42, 80
7, 117840, Note_on_c, 9, 37, 80
7, 117840, Note_on_c, 9, 56, 100
7, 117840, Note_on_c, 9, 54, 115
7, 117940, Note_off_c, 9, 54, 64
7, 117940, Note_off_c, 9, 56, 64
7, 117940, Note_off_c, 9, 37, 64
7, 117940, Note_off_c, 9, 42, 64
7, 117960, Note_on_c, 9, 35, 115
7, 117960, Note_on_c, 9, 42, 70
7, 117960, Note_on_c, 9, 37, 50
7, 117960, Note_on_c, 9, 56, 115
7, 117960, Note_on_c, 9, 54, 60
7, 118060, Note_off_c, 9, 54, 64
7, 118060, Note_off_c, 9, 56, 64
7, 118060, Note_off_c, 9, 37, 64
7, 118060, Note_off_c, 9, 42, 64
7, 118060, Note_off_c, 9, 35, 64
7, 118080, Note_on_c, 9, 35, 127
7, 118080, Note_on_c, 9, 42, 100
7, 118080, Note_on_c, 9, 37, 80
7, 118080, Note_on_c, 9, 56, 115
7, 118080, Note_on_c, 9, 54, 115
7, 118180, Note_off_c, 9, 54, 64
7, 118180, Note_off_c, 9, 56, 64
7, 118180, Note_off_c, 9, 37, 64
7, 118180, Note_off_c, 9, 42, 64
7, 118180, Note_off_c, 9, 35, 64
7, 118200, Note_on_c, 9, 42, 70
7, 118200, Note_on_c, 9, 37, 50
7, 118200, Note_on_c, 9, 54, 60
7, 118300, Note_off_c, 9, 54, 64
7, 118300, Note_off_c, 9, 37, 64
7, 118300, Note_off_c, 9, 42, 64
7, 118320, Note_on_c, 9, 42, 80
7, 118320, Note_on_c, 9, 37, 80
7, 118320, Note_on_c, 9, 56, 115
7, 118320, Note_on_c, 9, 54, 115
7, 118420, Note_off_c, 9, 54, 64
7, 118420, Note_off_c, 9, 56, 64
7, 118420, Note_off_c, 9, 37, 64
7, 118420, Note_off_c, 9, 42, 64
7, 118440, Note_on_c, 9, 42, 70
7, 118440, Note_on_c, 9, 37, 50
7, 118440, Note_on_c, 9, 54, 60
7, 118540, Note_off_c, 9, 54, 64
7, 118540, Note_off_c, 9, 37, 64
7, 118540, Note_off_c, 9, 42, 64
7, 118560, Note_on_c, 9, 35, 127
7, 118560, Note_on_c, 9, 38, 127
7, 118560, Note_on_c, 9, 42, 100
7, 118560, Note_on_c, 9, 37, 80
7, 118560, Note_on_c, 9, 54, 115
7, 118560, Note_on_c, 9, 39, 115
7, 118660, Note_off_c, 9, 39, 64
7, 118660, Note_off_c, 9, 54, 64
7, 118660, Note_off_c, 9, 37, 64
7, 118660, Note_off_c, 9, 42, 64
7, 118660, Note_off_c, 9, 38, 64
7, 118660, Note_off_c, 9, 35, 64
7, 118680, Note_on_c, 9, 35, 115
7, 118680, Note_on_c, 9, 42, 70
7, 118680, Note_on_c, 9, 37, 50
7, 118680, Note_on_c, 9, 54, 60
7, 118780, Note_off_c, 9, 54, 64
7, 118780, Note_off_c, 9, 37, 64
7, 118780, Note_off_c, 9, 42, 64
7, 118780, Note_off_c, 9, 35, 64
7, 118800, Note_on_c, 9, 35, 127
7, 118800, Note_on_c, 9, 42, 90
7, 118800, Note_on_c, 9, 37, 80
7, 118800, Note_on_c, 9, 54, 115
7, 118900, Note_off_c, 9, 54, 64
7, 118900, Note_off_c, 9, 37, 64
7, 118900, Note_off_c, 9, 42, 64
7, 118900, Note_off_c, 9, 35, 64
7, 118920, Note_on_c, 9, 35, 115
7, 118920, Note_on_c, 9, 42, 90
7, 118920, Note_on_c, 9, 37, 50
7, 118920, Note_on_c, 9, 54, 60
7, 119020, Note_off_c, 9, 54, 64
7, 119020, Note_off_c, 9, 37, 64
7, 119020, Note_off_c, 9, 42, 64
7, 119020, Note_off_c, 9, 35, 64
7, 119040, Note_on_c, 9, 35, 127
7, 119040, Note_on_c, 9, 42, 100
7, 119040, Note_on_c, 9, 37, 80
7, 119040, Note_on_c, 9, 56, 100
7, 119040, Note_on_c, 9, 54, 115
7, 119140, Note_off_c, 9, 54, 64
7, 119140, Note_off_c, 9, 56, 64
7, 119140, Note_off_c, 9, 37, 64
7, 119140, Note_off_c, 9, 42, 64
7, 119140, Note_off_c, 9, 35, 64
7, 119160, Note_on_c, 9, 42, 70
7, 119160, Note_on_c, 9, 37, 50
7, 119160, Note_on_c, 9, 54, 60
7, 119260, Note_off_c, 9, 54, 64
7, 119260, Note_off_c, 9, 37, 64
7, 119260, Note_off_c, 9, 42, 64
7, 119280, Note_on_c, 9, 42, 80
7, 119280, Note_on_c, 9, 37, 80
7, 119280, Note_on_c, 9, 56, 115
7, 119280, Note_on_c, 9, 54, 115
7, 119380, Note_off_c, 9, 54, 64
7, 119380, Note_off_c, 9, 56, 64
7, 119380, Note_off_c, 9, 37, 64
7, 119380, Note_off_c, 9, 42, 64
7, 119400, Note_on_c, 9, 42, 70
7, 119400, Note_on_c, 9, 37, 50
7, 119400, Note_on_c, 9, 54, 60
7, 119500, Note_off_c, 9, 54, 64
7, 119500, Note_off_c, 9, 37, 64
7, 119500, Note_off_c, 9, 42, 64
7, 119520, Note_on_c, 9, 35, 127
7, 119520, Note_on_c, 9, 38, 127
7, 119520, Note_on_c, 9, 42, 100
7, 119520, Note_on_c, 9, 37, 80
7, 119520, Note_on_c, 9, 54, 115
7, 119520, Note_on_c, 9, 39, 115
7, 119620, Note_off_c, 9, 39, 64
7, 119620, Note_off_c, 9, 54, 64
7, 119620, Note_off_c, 9, 37, 64
7, 119620, Note_off_c, 9, 42, 64
7, 119620, Note_off_c, 9, 38, 64
7, 119620, Note_off_c, 9, 35, 64
7, 119640, Note_on_c, 9, 42, 70
7, 119640, Note_on_c, 9, 37, 50
7, 119640, Note_on_c, 9, 54, 60
7, 119740, Note_off_c, 9, 54, 64
7, 119740, Note_off_c, 9, 37, 64
7, 119740, Note_off_c, 9, 42, 64
7, 119760, Note_on_c, 9, 42, 80
7, 119760, Note_on_c, 9, 37, 80
7, 119760, Note_on_c, 9, 56, 100
7, 119760, Note_on_c, 9, 54, 115
7, 119860, Note_off_c, 9, 54, 64
7, 119860, Note_off_c, 9, 56, 64
7, 119860, Note_off_c, 9, 37, 64
7, 119860, Note_off_c, 9, 42, 64
7, 119880, Note_on_c, 9, 35, 115
7, 119880, Note_on_c, 9, 42, 70
7, 119880, Note_on_c, 9, 37, 50
7, 119880, Note_on_c, 9, 56, 115
7, 119880, Note_on_c, 9, 54, 60
7, 119980, Note_off_c, 9, 54, 64
7, 119980, Note_off_c, 9, 56, 64
7, 119980, Note_off_c, 9, 37, 64
7, 119980, Note_off_c, 9, 42, 64
7, 119980, Note_off_c, 9, 35, 64
7, 120000, Note_on_c, 9, 35, 127
7, 120000, Note_on_c, 9, 42, 100
7, 120000, Note_on_c, 9, 37, 80
7, 120000, Note_on_c, 9, 56, 115
7, 120000, Note_on_c, 9, 54, 115
7, 120100, Note_off_c, 9, 54, 64
7, 120100, Note_off_c, 9, 56, 64
7, 120100, Note_off_c, 9, 37, 64
7, 120100, Note_off_c, 9, 42, 64
7, 120100, Note_off_c, 9, 35, 64
7, 120120, Note_on_c, 9, 42, 70
7, 120120, Note_on_c, 9, 37, 50
7, 120120, Note_on_c, 9, 54, 60
7, 120220, Note_off_c, 9, 54, 64
7, 120220, Note_off_c, 9, 37, 64
7, 120220, Note_off_c, 9, 42, 64
7, 120240, Note_on_c, 9, 42, 80
7, 120240, Note_on_c, 9, 37, 80
7, 120240, Note_on_c, 9, 56, 115
7, 120240, Note_on_c, 9, 54, 115
7, 120340, Note_off_c, 9, 54, 64
7, 120340, Note_off_c, 9, 56, 64
7, 120340, Note_off_c, 9, 37, 64
7, 120340, Note_off_c, 9, 42, 64
7, 120360, Note_on_c, 9, 42, 70
7, 120360, Note_on_c, 9, 37, 50
7, 120360, Note_on_c, 9, 54, 60
7, 120460, Note_off_c, 9, 54, 64
7, 120460, Note_off_c, 9, 37, 64
7, 120460, Note_off_c, 9, 42, 64
7, 120480, Note_on_c, 9, 35, 127
7, 120480, Note_on_c, 9, 38, 127
7, 120480, Note_on_c, 9, 42, 100
7, 120480, Note_on_c, 9, 37, 80
7, 120480, Note_on_c, 9, 54, 115
7, 120480, Note_on_c, 9, 39, 115
7, 120580, Note_off_c, 9, 39, 64
7, 120580, Note_off_c, 9, 54, 64
7, 120580, Note_off_c, 9, 37, 64
7, 120580, Note_off_c, 9, 42, 64
7, 120580, Note_off_c, 9, 38, 64
7, 120580, Note_off_c, 9, 35, 64
7, 120600, Note_on_c, 9, 35, 115
7, 120600, Note_on_c, 9, 42, 70
7, 120600, Note_on_c, 9, 37, 50
7, 120600, Note_on_c, 9, 54, 60
7, 120700, Note_off_c, 9, 54, 64
7, 120700, Note_off_c, 9, 37, 64
7, 120700, Note_off_c, 9, 42, 64
7, 120700, Note_off_c, 9, 35, 64
7, 120720, Note_on_c, 9, 35, 127
7, 120720, Note_on_c, 9, 42, 90
7, 120720, Note_on_c, 9, 37, 80
7, 120720, Note_on_c, 9, 54, 115
7, 120820, Note_off_c, 9, 54, 64
7, 120820, Note_off_c, 9, 37, 64
7, 120820, Note_off_c, 9, 42, 64
7, 120820, Note_off_c, 9, 35, 64
7, 120840, Note_on_c, 9, 35, 115
7, 120840, Note_on_c, 9, 42, 90
7, 120840, Note_on_c, 9, 37, 50
7, 120840, Note_on_c, 9, 54, 60
7, 120940, Note_off_c, 9, 54, 64
7, 120940, Note_off_c, 9, 37, 64
7, 120940, Note_off_c, 9, 42, 64
7, 120940, Note_off_c, 9, 35, 64
7, 120960, Note_on_c, 9, 35, 127
7, 120960, Note_on_c, 9, 38, 127
7, 120960, Note_on_c, 9, 42, 100
7, 120960, Note_on_c, 9, 37, 80
7, 120960, Note_on_c, 9, 56, 100
7, 120960, Note_on_c, 9, 54, 115
7, 121060, Note_off_c, 9, 54, 64
7, 121060, Note_off_c, 9, 56, 64
7, 121060, Note_off_c, 9, 37, 64
7, 121060, Note_off_c, 9, 42, 64
7, 121060, Note_off_c, 9, 38, 64
7, 121060, Note_off_c, 9, 35, 64
7, 121080, Note_on_c, 9, 38, 100
7, 121080, Note_on_c, 9, 42, 70
7, 121080, Note_on_c, 9, 37, 50
7, 121080, Note_on_c, 9, 54, 60
7, 121180, Note_off_c, 9, 54, 64
7, 121180, Note_off_c, 9, 37, 64
7, 121180, Note_off_c, 9, 42, 64
7, 121180, Note_off_c, 9, 38, 64
7, 121200, Note_on_c, 9, 38, 115
7, 121200, Note_on_c, 9, 42, 80
7, 121200, Note_on_c, 9, 37, 80
7, 121200, Note_on_c, 9, 56, 115
7, 121200, Note_on_c, 9, 54, 115
7, 121300, Note_off_c, 9, 54, 64
7, 121300, Note_off_c, 9, 56, 64
7, 121300, Note_off_c, 9, 37, 64
7, 121300, Note_off_c, 9, 42, 64
7, 121300, Note_off_c, 9, 38, 64
7, 121320, Note_on_c, 9, 38, 90
7, 121320, Note_on_c, 9, 42, 70
7, 121320, Note_on_c, 9, 37, 50
7, 121320, Note_on_c, 9, 54, 60
7, 121420, Note_off_c, 9, 54, 64
7, 121420, Note_off_c, 9, 37, 64
7, 121420, Note_off_c, 9, 42, 64
7, 121420, Note_off_c, 9, 38, 64
7, 121440, Note_on_c, 9, 35, 127
7, 121440, Note_on_c, 9, 38, 127
7, 121440, Note_on_c, 9, 42, 100
7, 121440, Note_on_c, 9, 37, 80
7, 121440, Note_on_c, 9, 54, 115
7, 121440, Note_on_c, 9, 39, 115
7, 121540, Note_off_c, 9, 39, 64
7, 121540, Note_off_c, 9, 54, 64
7, 121540, Note_off_c, 9, 37, 64
7, 121540, Note_off_c, 9, 42, 64
7, 121540, Note_off_c, 9, 38, 64
7, 121540, Note_off_c, 9, 35, 64
7, 121560, Note_on_c, 9, 38, 100
7, 121560, Note_on_c, 9, 42, 70
7, 121560, Note_on_c, 9, 37, 50
7, 121560, Note_on_c, 9, 54, 60
7, 121660, Note_off_c, 9, 54, 64
7, 121660, Note_off_c, 9, 37, 64
7, 121660, Note_off_c, 9, 42, 64
7, 121660, Note_off_c, 9, 38, 64
7, 121680, Note_on_c, 9, 38, 115
7, 121680, Note_on_c, 9, 42, 80
7, 121680, Note_on_c, 9, 37, 80
7, 121680, Note_on_c, 9, 56, 100
7, 121680, Note_on_c, 9, 54, 115
7, 121780, Note_off_c, 9, 54, 64
7, 121780, Note_off_c, 9, 56, 64
7, 121780, Note_off_c, 9, 37, 64
7, 121780, Note_off_c, 9, 42, 64
7, 121780, Note_off_c, 9, 38, 64
7, 121800, Note_on_c, 9, 35, 115
7, 121800, Note_on_c, 9, 38, 90
7, 121800, Note_on_c, 9, 42, 70
7, 121800, Note_on_c, 9, 37, 50
7, 121800, Note_on_c, 9, 56, 115
7, 121800, Note_on_c, 9, 54, 60
7, 121900, Note_off_c, 9, 54, 64
7, 121900, Note_off_c, 9, 56, 64
7, 121900, Note_off_c, 9, 37, 64
7, 121900, Note_off_c, 9, 42, 64
7, 121900, Note_off_c, 9, 38, 64
7, 121900, Note_off_c, 9, 35, 64
7, 121920, Note_on_c, 9, 35, 127
7, 121920, Note_on_c, 9, 38, 127
7, 121920, Note_on_c, 9, 42, 100
7, 121920, Note_on_c, 9, 37, 80
7, 121920, Note_on_c, 9, 56, 115
7, 121920, Note_on_c, 9, 54, 115
7, 122020, Note_off_c, 9, 54, 64
7, 122020, Note_off_c, 9, 56, 64
7, 122020, Note_off_c, 9, 37, 64
7, 122020, Note_off_c, 9, 42, 64
7, 122020, Note_off_c, 9, 38, 64
7, 122020, Note_off_c, 9, 35, 64
7, 122040, Note_on_c, 9, 38, 100
7, 122040, Note_on_c, 9, 42, 70
7, 122040, Note_on_c, 9, 37, 50
7, 122040, Note_on_c, 9, 54, 60
7, 122140, Note_off_c, 9, 54, 64
7, 122140, Note_off_c, 9, 37, 64
7, 122140, Note_off_c, 9, 42, 64
7, 122140, Note_off_c, 9, 38, 64
7, 122160, Note_on_c, 9, 38, 115
7, 122160, Note_on_c, 9, 42, 80
7, 122160, Note_on_c, 9, 37, 80
7, 122160, Note_on_c, 9, 56, 115
7, 122160, Note_on_c, 9, 54, 115
7, 122260, Note_off_c, 9, 54, 64
7, 122260, Note_off_c, 9, 56, 64
7, 122260, Note_off_c, 9, 37, 64
7, 122260, Note_off_c, 9, 42, 64
7, 122260, Note_off_c, 9, 38, 64
7, 122280, Note_on_c, 9, 38, 90
7, 122280, Note_on_c, 9, 42, 70
7, 122280, Note_on_c, 9, 37, 50
7, 122280, Note_on_c, 9, 54, 60
7, 122380, Note_off_c, 9, 54, 64
7, 122380, Note_off_c, 9, 37, 64
7, 122380, Note_off_c, 9, 42, 64
7, 122380, Note_off_c, 9, 38, 64
7, 122400, Note_on_c, 9, 35, 127
7, 122400, Note_on_c, 9, 38, 127
7, 122400, Note_on_c, 9, 42, 100
7, 122400, Note_on_c, 9, 37, 80
7, 122400, Note_on_c, 9, 54, 115
7, 122400, Note_on_c, 9, 39, 115
7, 122500, Note_off_c, 9, 39, 64
7, 122500, Note_off_c, 9, 54, 64
7, 122500, Note_off_c, 9, 37, 64
7, 122500, Note_off_c, 9, 42, 64
7, 122500, Note_off_c, 9, 38, 64
7, 122500, Note_off_c, 9, 35, 64
7, 122520, Note_on_c, 9, 35, 115
7, 122520, Note_on_c, 9, 38, 100
7, 122520, Note_on_c, 9, 42, 70
7, 122520, Note_on_c, 9, 37, 50
7, 122520, Note_on_c, 9, 54, 60
7, 122620, Note_off_c, 9, 54, 64
7, 122620, Note_off_c, 9, 37, 64
7, 122620, Note_off_c, 9, 42, 64
7, 122620, Note_off_c, 9, 38, 64
7, 122620, Note_off_c, 9, 35, 64
7, 122640, Note_on_c, 9, 35, 127
7, 122640, Note_on_c, 9, 38, 115
7, 122640, Note_on_c, 9, 42, 90
7, 122640, Note_on_c, 9, 37, 80
7, 122640, Note_on_c, 9, 54, 115
7, 122740, Note_off_c, 9, 54, 64
7, 122740, Note_off_c, 9, 37, 64
7, 122740, Note_off_c, 9, 42, 64
7, 122740, Note_off_c, 9, 38, 64
7, 122740, Note_off_c, 9, 35, 64
7, 122760, Note_on_c, 9, 35, 115
7, 122760, Note_on_c, 9, 38, 90
7, 122760, Note_on_c, 9, 42, 90
7, 122760, Note_on_c, 9, 37, 50
7, 122760, Note_on_c, 9, 54, 60
7, 122860, Note_off_c, 9, 54, 64
7, 122860, Note_off_c, 9, 37, 64
7, 122860, Note_off_c, 9, 42, 64
7, 122860, Note_off_c, 9, 38, 64
7, 122860, Note_off_c, 9, 35, 64
7, 122880, Note_on_c, 9, 35, 127
7, 122880, Note_on_c, 9, 42, 100
7, 122880, Note_on_c, 9, 37, 80
7, 122880, Note_on_c, 9, 56, 100
7, 122880, Note_on_c, 9, 49, 100
7, 122880, Note_on_c, 9, 54, 115
7, 122980, Note_off_c, 9, 54, 64
7, 122980, Note_off_c, 9, 49, 64
7, 122980, Note_off_c, 9, 56, 64
7, 122980, Note_off_c, 9, 37, 64
7, 122980, Note_off_c, 9, 42, 64
7, 122980, Note_off_c, 9, 35, 64
7, 123000, Note_on_c, 9, 42, 70
7, 123000, Note_on_c, 9, 37, 50
7, 123000, Note_on_c, 9, 54, 60
7, 123100, Note_off_c, 9, 54, 64
7, 123100, Note_off_c, 9, 37, 64
7, 123100, Note_off_c, 9, 42, 64
7, 123120, Note_on_c, 9, 42, 80
7, 123120, Note_on_c, 9, 37, 80
7, 123120, Note_on_c, 9, 56, 115
7, 123120, Note_on_c, 9, 54, 115
7, 123220, Note_off_c, 9, 54, 64
7, 123220, Note_off_c, 9, 56, 64
7, 123220, Note_off_c, 9, 37, 64
7, 123220, Note_off_c, 9, 42, 64
7, 123240, Note_on_c, 9, 42, 70
7, 123240, Note_on_c, 9, 37, 50
7, 123240, Note_on_c, 9, 54, 60
7, 123340, Note_off_c, 9, 54, 64
7, 123340, Note_off_c, 9, 37, 64
7, 123340, Note_off_c, 9, 42, 64
7, 123360, Note_on_c, 9, 35, 127
7, 123360, Note_on_c, 9, 38, 127
7, 123360, Note_on_c, 9, 42, 100
7, 123360, Note_on_c, 9, 37, 80
7, 123360, Note_on_c, 9, 54, 115
7, 123360, Note_on_c, 9, 39, 115
7, 123460, Note_off_c, 9, 39, 64
7, 123460, Note_off_c, 9, 54, 64
7, 123460, Note_off_c, 9, 37, 64
7, 123460, Note_off_c, 9, 42, 64
7, 123460, Note_off_c, 9, 38, 64
7, 123460, Note_off_c, 9, 35, 64
7, 123480, Note_on_c, 9, 42, 70
7, 123480, Note_on_c, 9, 37, 50
7, 123480, Note_on_c, 9, 54, 60
7, 123580, Note_off_c, 9, 54, 64
7, 123580, Note_off_c, 9, 37, 64
7, 123580, Note_off_c, 9, 42, 64
7, 123600, Note_on_c, 9, 42, 80
7, 123600, Note_on_c, 9, 37, 80
7, 123600, Note_on_c, 9, 56, 100
7, 123600, Note_on_c, 9, 54, 115
7, 123700, Note_off_c, 9, 54, 64
7, 123700, Note_off_c, 9, 56, 64
7, 123700, Note_off_c, 9, 37, 64
7, 123700, Note_off_c, 9, 42, 64
7, 123720, Note_on_c, 9, 35, 115
7, 123720, Note_on_c, 9, 42, 70
7, 123720, Note_on_c, 9, 37, 50
7, 123720, Note_on_c, 9, 56, 115
7, 123720, Note_on_c, 9, 54, 60
7, 123820, Note_off_c, 9, 54, 64
7, 123820, Note_off_c, 9, 56, 64
7, 123820, Note_off_c, 9, 37, 64
7, 123820, Note_off_c, 9, 42, 64
7, 123820, Note_off_c, 9, 35, 64
7, 123840, Note_on_c, 9, 35, 127
7, 123840, Note_on_c, 9, 42, 100
7, 123840, Note_on_c, 9, 37, 80
7, 123840, Note_on_c, 9, 56, 115
7, 123840, Note_on_c, 9, 54, 115
7, 123940, Note_off_c, 9, 54, 64
7, 123940, Note_off_c, 9, 56, 64
7, 123940, Note_off_c, 9, 37, 64
7, 123940, Note_off_c, 9, 42, 64
7, 123940, Note_off_c, 9, 35, 64
7, 123960, Note_on_c, 9, 42, 70
7, 123960, Note_on_c, 9, 37, 50
7, 123960, Note_on_c, 9, 54, 60
7, 124060, Note_off_c, 9, 54, 64
7, 124060, Note_off_c, 9, 37, 64
7, 124060, Note_off_c, 9, 42, 64
7, 124080, Note_on_c, 9, 42, 80
7, 124080, Note_on_c, 9, 37, 80
7, 124080, Note_on_c, 9, 56, 115
7, 124080, Note_on_c, 9, 54, 115
7, 124180, Note_off_c, 9, 54, 64
7, 124180, Note_off_c, 9, 56, 64
7, 124180, Note_off_c, 9, 37, 64
7, 124180, Note_off_c, 9, 42, 64
7, 124200, Note_on_c, 9, 42, 70
7, 124200, Note_on_c, 9, 37, 50
7, 124200, Note_on_c, 9, 54, 60
7, 124300, Note_off_c, 9, 54, 64
7, 124300, Note_off_c, 9, 37, 64
7, 124300, Note_off_c, 9, 42, 64
7, 124320, Note_on_c, 9, 35, 127
7, 124320, Note_on_c, 9, 38, 127
7, 124320, Note_on_c, 9, 42, 100
7, 124320, Note_on_c, 9, 37, 80
7, 124320, Note_on_c, 9, 54, 115
7, 124320, Note_on_c, 9, 39, 115
7, 124420, Note_off_c, 9, 39, 64
7, 124420, Note_off_c, 9, 54, 64
7, 124420, Note_off_c, 9, 37, 64
7, 124420, Note_off_c, 9, 42, 64
7, 124420, Note_off_c, 9, 38, 64
7, 124420, Note_off_c, 9, 35, 64
7, 124440, Note_on_c, 9, 35, 115
7, 124440, Note_on_c, 9, 42, 70
7, 124440, Note_on_c, 9, 37, 50
7, 124440, Note_on_c, 9, 54, 60
7, 124540, Note_off_c, 9, 54, 64
7, 124540, Note_off_c, 9, 37, 64
7, 124540, Note_off_c, 9, 42, 64
7, 124540, Note_off_c, 9, 35, 64
7, 124560, Note_on_c, 9, 35, 127
7, 124560, Note_on_c, 9, 42, 110
7, 124560, Note_on_c, 9, 37, 80
7, 124560, Note_on_c, 9, 54, 115
7, 124660, Note_off_c, 9, 54, 64
7, 124660, Note_off_c, 9, 37, 64
7, 124660, Note_off_c, 9, 42, 64
7, 124660, Note_off_c, 9, 35, 64
7, 124680, Note_on_c, 9, 35, 115
7, 124680, Note_on_c, 9, 42, 90
7, 124680, Note_on_c, 9, 37, 50
7, 124680, Note_on_c, 9, 54, 60
7, 124780, Note_off_c, 9, 54, 64
7, 124780, Note_off_c, 9, 37, 64
7, 124780, Note_off_c, 9, 42, 64
7, 124780, Note_off_c, 9, 35, 64
7, 124800, Note_on_c, 9, 35, 127
7, 124800, Note_on_c, 9, 42, 100
7, 124800, Note_on_c, 9, 37, 80
7, 124800, Note_on_c, 9, 56, 100
7, 124800, Note_on_c, 9, 54, 115
7, 124900, Note_off_c, 9, 54, 64
7, 124900, Note_off_c, 9, 56, 64
7, 124900, Note_off_c, 9, 37, 64
7, 124900, Note_off_c, 9, 42, 64
7, 124900, Note_off_c, 9, 35, 64
7, 124920, Note_on_c, 9, 42, 70
7, 124920, Note_on_c, 9, 37, 50
7, 124920, Note_on_c, 9, 54, 60
7, 125020, Note_off_c, 9, 54, 64
7, 125020, Note_off_c, 9, 37, 64
7, 125020, Note_off_c, 9, 42, 64
7, 125040, Note_on_c, 9, 42, 80
7, 125040, Note_on_c, 9, 37, 80
7, 125040, Note_on_c, 9, 56, 115
7, 125040, Note_on_c, 9, 54, 115
7, 125140, Note_off_c, 9, 54, 64
7, 125140, Note_off_c, 9, 56, 64
7, 125140, Note_off_c, 9, 37, 64
7, 125140, Note_off_c, 9, 42, 64
7, 125160, Note_on_c, 9, 42, 70
7, 125160, Note_on_c, 9, 37, 50
7, 125160, Note_on_c, 9, 54, 60
7, 125260, Note_off_c, 9, 54, 64
7, 125260, Note_off_c, 9, 37, 64
7, 125260, Note_off_c, 9, 42, 64
7, 125280, Note_on_c, 9, 35, 127
7, 125280, Note_on_c, 9, 38, 127
7, 125280, Note_on_c, 9, 42, 100
7, 125280, Note_on_c, 9, 37, 80
7, 125280, Note_on_c, 9, 54, 115
7, 125280, Note_on_c, 9, 39, 115
7, 125380, Note_off_c, 9, 39, 64
7, 125380, Note_off_c, 9, 54, 64
7, 125380, Note_off_c, 9, 37, 64
7, 125380, Note_off_c, 9, 42, 64
7, 125380, Note_off_c, 9, 38, 64
7, 125380, Note_off_c, 9, 35, 64
7, 125400, Note_on_c, 9, 42, 70
7, 125400, Note_on_c, 9, 37, 50
7, 125400, Note_on_c, 9, 54, 60
7, 125500, Note_off_c, 9, 54, 64
7, 125500, Note_off_c, 9, 37, 64
7, 125500, Note_off_c, 9, 42, 64
7, 125520, Note_on_c, 9, 42, 80
7, 125520, Note_on_c, 9, 37, 80
7, 125520, Note_on_c, 9, 56, 100
7, 125520, Note_on_c, 9, 54, 115
7, 125620, Note_off_c, 9, 54, 64
7, 125620, Note_off_c, 9, 56, 64
7, 125620, Note_off_c, 9, 37, 64
7, 125620, Note_off_c, 9, 42, 64
7, 125640, Note_on_c, 9, 35, 115
7, 125640, Note_on_c, 9, 42, 70
7, 125640, Note_on_c, 9, 37, 50
7, 125640, Note_on_c, 9, 56, 115
7, 125640, Note_on_c, 9, 54, 60
7, 125740, Note_off_c, 9, 54, 64
7, 125740, Note_off_c, 9, 56, 64
7, 125740, Note_off_c, 9, 37, 64
7, 125740, Note_off_c, 9, 42, 64
7, 125740, Note_off_c, 9, 35, 64
7, 125760, Note_on_c, 9, 35, 127
7, 125760, Note_on_c, 9, 42, 100
7, 125760, Note_on_c, 9, 37, 80
7, 125760, Note_on_c, 9, 56, 115
7, 125760, Note_on_c, 9, 54, 115
7, 125860, Note_off_c, 9, 54, 64
7, 125860, Note_off_c, 9, 56, 64
7, 125860, Note_off_c, 9, 37, 64
7, 125860, Note_off_c, 9, 42, 64
7, 125860, Note_off_c, 9, 35, 64
7, 125880, Note_on_c, 9, 42, 70
7, 125880, Note_on_c, 9, 37, 50
7, 125880, Note_on_c, 9, 54, 60
7, 125980, Note_off_c, 9, 54, 64
7, 125980, Note_off_c, 9, 37, 64
7, 125980, Note_off_c, 9, 42, 64
7, 126000, Note_on_c, 9, 42, 80
7, 126000, Note_on_c, 9, 37, 80
7, 126000, Note_on_c, 9, 56, 115
7, 126000, Note_on_c, 9, 54, 115
7, 126100, Note_off_c, 9, 54, 64
7, 126100, Note_off_c, 9, 56, 64
7, 126100, Note_off_c, 9, 37, 64
7, 126100, Note_off_c, 9, 42, 64
7, 126120, Note_on_c, 9, 42, 70
7, 126120, Note_on_c, 9, 37, 50
7, 126120, Note_on_c, 9, 54, 60
7, 126220, Note_off_c, 9, 54, 64
7, 126220, Note_off_c, 9, 37, 64
7, 126220, Note_off_c, 9, 42, 64
7, 126240, Note_on_c, 9, 35, 127
7, 126240, Note_on_c, 9, 38, 127
7, 126240, Note_on_c, 9, 42, 100
7, 126240, Note_on_c, 9, 37, 80
7, 126240, Note_on_c, 9, 54, 115
7, 126240, Note_on_c, 9, 39, 115
7, 126340, Note_off_c, 9, 39, 64
7, 126340, Note_off_c, 9, 54, 64
7, 126340, Note_off_c, 9, 37, 64
7, 126340, Note_off_c, 9, 42, 64
7, 126340, Note_off_c, 9, 38, 64
7, 126340, Note_off_c, 9, 35, 64
7, 126360, Note_on_c, 9, 35, 115
7, 126360, Note_on_c, 9, 42, 70
7, 126360, Note_on_c, 9, 37, 50
7, 126360, Note_on_c, 9, 54, 60
7, 126460, Note_off_c, 9, 54, 64
7, 126460, Note_off_c, 9, 37, 64
7, 126460, Note_off_c, 9, 42, 64
7, 126460, Note_off_c, 9, 35, 64
7, 126480, Note_on_c, 9, 35, 127
7, 126480, Note_on_c, 9, 42, 90
7, 126480, Note_on_c, 9, 37, 80
7, 126480, Note_on_c, 9, 54, 115
7, 126580, Note_off_c, 9, 54, 64
7, 126580, Note_off_c, 9, 37, 64
7, 126580, Note_off_c, 9, 42, 64
7, 126580, Note_off_c, 9, 35, 64
7, 126600, Note_on_c, 9, 35, 115
7, 126600, Note_on_c, 9, 42, 90
7, 126600, Note_on_c, 9, 37, 50
7, 126600, Note_on_c, 9, 54, 60
7, 126700, Note_off_c, 9, 54, 64
7, 126700, Note_off_c, 9, 37, 64
7, 126700, Note_off_c, 9, 42, 64
7, 126700, Note_off_c, 9, 35, 64
7, 126720, Note_on_c, 9, 35, 127
7, 126720, Note_on_c, 9, 42, 100
7, 126720, Note_on_c, 9, 37, 80
7, 126720, Note_on_c, 9, 56, 100
7, 126720, Note_on_c, 9, 54, 115
7, 126820, Note_off_c, 9, 54, 64
7, 126820, Note_off_c, 9, 56, 64
7, 126820, Note_off_c, 9, 37, 64
7, 126820, Note_off_c, 9, 42, 64
7, 126820, Note_off_c, 9, 35, 64
7, 126840, Note_on_c, 9, 42, 70
7, 126840, Note_on_c, 9, 37, 50
7, 126840, Note_on_c, 9, 54, 60
7, 126940, Note_off_c, 9, 54, 64
7, 126940, Note_off_c, 9, 37, 64
7, 126940, Note_off_c, 9, 42, 64
7, 126960, Note_on_c, 9, 42, 80
7, 126960, Note_on_c, 9, 37, 80
7, 126960, Note_on_c, 9, 56, 115
7, 126960, Note_on_c, 9, 54, 115
7, 127060, Note_off_c, 9, 54, 64
7, 127060, Note_off_c, 9, 56, 64
7, 127060, Note_off_c, 9, 37, 64
7, 127060, Note_off_c, 9, 42, 64
7, 127080, Note_on_c, 9, 42, 70
7, 127080, Note_on_c, 9, 37, 50
7, 127080, Note_on_c, 9, 54, 60
7, 127180, Note_off_c, 9, 54, 64
7, 127180, Note_off_c, 9, 37, 64
7, 127180, Note_off_c, 9, 42, 64
7, 127200, Note_on_c, 9, 35, 127
7, 127200, Note_on_c, 9, 38, 127
7, 127200, Note_on_c, 9, 42, 100
7, 127200, Note_on_c, 9, 37, 80
7, 127200, Note_on_c, 9, 54, 115
7, 127200, Note_on_c, 9, 39, 115
7, 127300, Note_off_c, 9, 39, 64
7, 127300, Note_off_c, 9, 54, 64
7, 127300, Note_off_c, 9, 37, 64
7, 127300, Note_off_c, 9, 42, 64
7, 127300, Note_off_c, 9, 38, 64
7, 127300, Note_off_c, 9, 35, 64
7, 127320, Note_on_c, 9, 42, 70
7, 127320, Note_on_c, 9, 37, 50
7, 127320, Note_on_c, 9, 54, 60
7, 127420, Note_off_c, 9, 54, 64
7, 127420, Note_off_c, 9, 37, 64
7, 127420, Note_off_c, 9, 42, 64
7, 127440, Note_on_c, 9, 42, 80
7, 127440, Note_on_c, 9, 37, 80
7, 127440, Note_on_c, 9, 56, 100
7, 127440, Note_on_c, 9, 54, 115
7, 127540, Note_off_c, 9, 54, 64
7, 127540, Note_off_c, 9, 56, 64
7, 127540, Note_off_c, 9, 37, 64
7, 127540, Note_off_c, 9, 42, 64
7, 127560, Note_on_c, 9, 35, 115
7, 127560, Note_on_c, 9, 42, 70
7, 127560, Note_on_c, 9, 37, 50
7, 127560, Note_on_c, 9, 56, 115
7, 127560, Note_on_c, 9, 54, 60
7, 127660, Note_off_c, 9, 54, 64
7, 127660, Note_off_c, 9, 56, 64
7, 127660, Note_off_c, 9, 37, 64
7, 127660, Note_off_c, 9, 42, 64
7, 127660, Note_off_c, 9, 35, 64
7, 127680, Note_on_c, 9, 35, 127
7, 127680, Note_on_c, 9, 42, 100
7, 127680, Note_on_c, 9, 37, 80
7, 127680, Note_on_c, 9, 56, 115
7, 127680, Note_on_c, 9, 54, 115
7, 127780, Note_off_c, 9, 54, 64
7, 127780, Note_off_c, 9, 56, 64
7, 127780, Note_off_c, 9, 37, 64
7, 127780, Note_off_c, 9, 42, 64
7, 127780, Note_off_c, 9, 35, 64
7, 127800, Note_on_c, 9, 42, 70
7, 127800, Note_on_c, 9, 37, 50
7, 127800, Note_on_c, 9, 54, 60
7, 127900, Note_off_c, 9, 54, 64
7, 127900, Note_off_c, 9, 37, 64
7, 127900, Note_off_c, 9, 42, 64
7, 127920, Note_on_c, 9, 42, 80
7, 127920, Note_on_c, 9, 37, 80
7, 127920, Note_on_c, 9, 56, 115
7, 127920, Note_on_c, 9, 54, 115
7, 128020, Note_off_c, 9, 54, 64
7, 128020, Note_off_c, 9, 56, 64
7, 128020, Note_off_c, 9, 37, 64
7, 128020, Note_off_c, 9, 42, 64
7, 128040, Note_on_c, 9, 42, 70
7, 128040, Note_on_c, 9, 37, 50
7, 128040, Note_on_c, 9, 54, 60
7, 128140, Note_off_c, 9, 54, 64
7, 128140, Note_off_c, 9, 37, 64
7, 128140, Note_off_c, 9, 42, 64
7, 128160, Note_on_c, 9, 35, 127
7, 128160, Note_on_c, 9, 38, 127
7, 128160, Note_on_c, 9, 42, 100
7, 128160, Note_on_c, 9, 37, 80
7, 128160, Note_on_c, 9, 54, 115
7, 128160, Note_on_c, 9, 39, 115
7, 128260, Note_off_c, 9, 39, 64
7, 128260, Note_off_c, 9, 54, 64
7, 128260, Note_off_c, 9, 37, 64
7, 128260, Note_off_c, 9, 42, 64
7, 128260, Note_off_c, 9, 38, 64
7, 128260, Note_off_c, 9, 35, 64
7, 128280, Note_on_c, 9, 35, 115
7, 128280, Note_on_c, 9, 42, 70
7, 128280, Note_on_c, 9, 37, 50
7, 128280, Note_on_c, 9, 54, 60
7, 128380, Note_off_c, 9, 54, 64
7, 128380, Note_off_c, 9, 37, 64
7, 128380, Note_off_c, 9, 42, 64
7, 128380, Note_off_c, 9, 35, 64
7, 128400, Note_on_c, 9, 35, 127
7, 128400, Note_on_c, 9, 42, 110
7, 128400, Note_on_c, 9, 37, 80
7, 128400, Note_on_c, 9, 54, 115
7, 128500, Note_off_c, 9, 54, 64
7, 128500, Note_off_c, 9, 37, 64
7, 128500, Note_off_c, 9, 42, 64
7, 128500, Note_off_c, 9, 35, 64
7, 128520, Note_on_c, 9, 35, 115
7, 128520, Note_on_c, 9, 42, 90
7, 128520, Note_on_c, 9, 37, 50
7, 128520, Note_on_c, 9, 54, 60
7, 128620, Note_off_c, 9, 54, 64
7, 128620, Note_off_c, 9, 37, 64
7, 128620, Note_off_c, 9, 42, 64
7, 128620, Note_off_c, 9, 35, 64
7, 128640, Note_on_c, 9, 35, 127
7, 128640, Note_on_c, 9, 38, 127
7, 128640, Note_on_c, 9, 42, 100
7, 128640, Note_on_c, 9, 37, 80
7, 128640, Note_on_c, 9, 56, 100
7, 128640, Note_on_c, 9, 54, 115
7, 128740, Note_off_c, 9, 54, 64
7, 128740, Note_off_c, 9, 56, 64
7, 128740, Note_off_c, 9, 37, 64
7, 128740, Note_off_c, 9, 42, 64
7, 128740, Note_off_c, 9, 38, 64
7, 128740, Note_off_c, 9, 35, 64
7, 128760, Note_on_c, 9, 38, 100
7, 128760, Note_on_c, 9, 42, 70
7, 128760, Note_on_c, 9, 37, 50
7, 128760, Note_on_c, 9, 54, 60
7, 128860, Note_off_c, 9, 54, 64
7, 128860, Note_off_c, 9, 37, 64
7, 128860, Note_off_c, 9, 42, 64
7, 128860, Note_off_c, 9, 38, 64
7, 128880, Note_on_c, 9, 38, 115
7, 128880, Note_on_c, 9, 42, 80
7, 128880, Note_on_c, 9, 37, 80
7, 128880, Note_on_c, 9, 56, 115
7, 128880, Note_on_c, 9, 54, 115
7, 128980, Note_off_c, 9, 54, 64
7, 128980, Note_off_c, 9, 56, 64
7, 128980, Note_off_c, 9, 37, 64
7, 128980, Note_off_c, 9, 42, 64
7, 128980, Note_off_c, 9, 38, 64
7, 129000, Note_on_c, 9, 38, 90
7, 129000, Note_on_c, 9, 42, 70
7, 129000, Note_on_c, 9, 37, 50
7, 129000, Note_on_c, 9, 54, 60
7, 129100, Note_off_c, 9, 54, 64
7, 129100, Note_off_c, 9, 37, 64
7, 129100, Note_off_c, 9, 42, 64
7, 129100, Note_off_c, 9, 38, 64
7, 129120, Note_on_c, 9, 35, 127
7, 129120, Note_on_c, 9, 38, 127
7, 129120, Note_on_c, 9, 42, 100
7, 129120, Note_on_c, 9, 37, 80
7, 129120, Note_on_c, 9, 54, 115
7, 129120, Note_on_c, 9, 39, 115
7, 129220, Note_off_c, 9, 39, 64
7, 129220, Note_off_c, 9, 54, 64
7, 129220, Note_off_c, 9, 37, 64
7, 129220, Note_off_c, 9, 42, 64
7, 129220, Note_off_c, 9, 38, 64
7, 129220, Note_off_c, 9, 35, 64
7, 129240, Note_on_c, 9, 38, 100
7, 129240, Note_on_c, 9, 42, 70
7, 129240, Note_on_c, 9, 37, 50
7, 129240, Note_on_c, 9, 54, 60
7, 129340, Note_off_c, 9, 54, 64
7, 129340, Note_off_c, 9, 37, 64
7, 129340, Note_off_c, 9, 42, 64
7, 129340, Note_off_c, 9, 38, 64
7, 129360, Note_on_c, 9, 38, 115
7, 129360, Note_on_c, 9, 42, 80
7, 129360, Note_on_c, 9, 37, 80
7, 129360, Note_on_c, 9, 56, 100
7, 129360, Note_on_c, 9, 54, 115
7, 129460, Note_off_c, 9, 54, 64
7, 129460, Note_off_c, 9, 56, 64
7, 129460, Note_off_c, 9, 37, 64
7, 129460, Note_off_c, 9, 42, 64
7, 129460, Note_off_c, 9, 38, 64
7, 129480, Note_on_c, 9, 35, 115
7, 129480, Note_on_c, 9, 38, 90
7, 129480, Note_on_c, 9, 42, 70
7, 129480, Note_on_c, 9, 37, 50
7, 129480, Note_on_c, 9, 56, 115
7, 129480, Note_on_c, 9, 54, 60
7, 129580, Note_off_c, 9, 54, 64
7, 129580, Note_off_c, 9, 56, 64
7, 129580, Note_off_c, 9, 37, 64
7, 129580, Note_off_c, 9, 42, 64
7, 129580, Note_off_c, 9, 38, 64
7, 129580, Note_off_c, 9, 35, 64
7, 129600, Note_on_c, 9, 35, 127
7, 129600, Note_on_c, 9, 38, 127
7, 129600, Note_on_c, 9, 42, 100
7, 129600, Note_on_c, 9, 37, 80
7, 129600, Note_on_c, 9, 56, 115
7, 129600, Note_on_c, 9, 54, 115
7, 129700, Note_off_c, 9, 54, 64
7, 129700, Note_off_c, 9, 56, 64
7, 129700, Note_off_c, 9, 37, 64
7, 129700, Note_off_c, 9, 42, 64
7, 129700, Note_off_c, 9, 38, 64
7, 129700, Note_off_c, 9, 35, 64
7, 129720, Note_on_c, 9, 38, 100
7, 129720, Note_on_c, 9, 42, 70
7, 129720, Note_on_c, 9, 37, 50
7, 129720, Note_on_c, 9, 54, 60
7, 129820, Note_off_c, 9, 54, 64
7, 129820, Note_off_c, 9, 37, 64
7, 129820, Note_off_c, 9, 42, 64
7, 129820, Note_off_c, 9, 38, 64
7, 129840, Note_on_c, 9, 38, 115
7, 129840, Note_on_c, 9, 42, 80
7, 129840, Note_on_c, 9, 37, 80
7, 129840, Note_on_c, 9, 56, 115
7, 129840, Note_on_c, 9, 54, 115
7, 129940, Note_off_c, 9, 54, 64
7, 129940, Note_off_c, 9, 56, 64
7, 129940, Note_off_c, 9, 37, 64
7, 129940, Note_off_c, 9, 42, 64
7, 129940, Note_off_c, 9, 38, 64
7, 129960, Note_on_c, 9, 38, 90
7, 129960, Note_on_c, 9, 42, 70
7, 129960, Note_on_c, 9, 37, 50
7, 129960, Note_on_c, 9, 54, 60
7, 130060, Note_off_c, 9, 54, 64
7, 130060, Note_off_c, 9, 37, 64
7, 130060, Note_off_c, 9, 42, 64
7, 130060, Note_off_c, 9, 38, 64
7, 130080, Note_on_c, 9, 35, 127
7, 130080, Note_on_c, 9, 38, 127
7, 130080, Note_on_c, 9, 42, 100
7, 130080, Note_on_c, 9, 37, 80
7, 130080, Note_on_c, 9, 54, 115
7, 130080, Note_on_c, 9, 39, 115
7, 130180, Note_off_c, 9, 39, 64
7, 130180, Note_off_c, 9, 54, 64
7, 130180, Note_off_c, 9, 37, 64
7, 130180, Note_off_c, 9, 42, 64
7, 130180, Note_off_c, 9, 38, 64
7, 130180, Note_off_c, 9, 35, 64
7, 130200, Note_on_c, 9, 35, 115
7, 130200, Note_on_c, 9, 38, 100
7, 130200, Note_on_c, 9, 42, 70
7, 130200, Note_on_c, 9, 37, 50
7, 130200, Note_on_c, 9, 54, 60
7, 130300, Note_off_c, 9, 54, 64
7, 130300, Note_off_c, 9, 37, 64
7, 130300, Note_off_c, 9, 42, 64
7, 130300, Note_off_c, 9, 38, 64
7, 130300, Note_off_c, 9, 35, 64
7, 130320, Note_on_c, 9, 35, 127
7, 130320, Note_on_c, 9, 38, 115
7, 130320, Note_on_c, 9, 42, 90
7, 130320, Note_on_c, 9, 37, 80
7, 130320, Note_on_c, 9, 54, 115
7, 130420, Note_off_c, 9, 54, 64
7, 130420, Note_off_c, 9, 37, 64
7, 130420, Note_off_c, 9, 42, 64
7, 130420, Note_off_c, 9, 38, 64
7, 130420, Note_off_c, 9, 35, 64
7, 130440, Note_on_c, 9, 35, 115
7, 130440, Note_on_c, 9, 38, 90
7, 130440, Note_on_c, 9, 42, 90
7, 130440, Note_on_c, 9, 37, 50
7, 130440, Note_on_c, 9, 54, 60
7, 130540, Note_off_c, 9, 54, 64
7, 130540, Note_off_c, 9, 37, 64
7, 130540, Note_off_c, 9, 42, 64
7, 130540, Note_off_c, 9, 38, 64
7, 130540, Note_off_c, 9, 35, 64
7, 130560, Note_on_c, 9, 35, 127
7, 130560, Note_on_c, 9, 42, 100
7, 130560, Note_on_c, 9, 37, 80
7, 130560, Note_on_c, 9, 56, 100
7, 130560, Note_on_c, 9, 49, 100
7, 130560, Note_on_c, 9, 54, 115
7, 130660, Note_off_c, 9, 54, 64
7, 130660, Note_off_c, 9, 49, 64
7, 130660, Note_off_c, 9, 56, 64
7, 130660, Note_off_c, 9, 37, 64
7, 130660, Note_off_c, 9, 42, 64
7, 130660, Note_off_c, 9, 35, 64
7, 130680, Note_on_c, 9, 42, 70
7, 130680, Note_on_c, 9, 37, 50
7, 130680, Note_on_c, 9, 54, 60
7, 130780, Note_off_c, 9, 54, 64
7, 130780, Note_off_c, 9, 37, 64
7, 130780, Note_off_c, 9, 42, 64
7, 130800, Note_on_c, 9, 42, 80
7, 130800, Note_on_c, 9, 37, 80
7, 130800, Note_on_c, 9, 56, 115
7, 130800, Note_on_c, 9, 54, 115
7, 130900, Note_off_c, 9, 54, 64
7, 130900, Note_off_c, 9, 56, 64
7, 130900, Note_off_c, 9, 37, 64
7, 130900, Note_off_c, 9, 42, 64
7, 130920, Note_on_c, 9, 42, 70
7, 130920, Note_on_c, 9, 37, 50
7, 130920, Note_on_c, 9, 54, 60
7, 131020, Note_off_c, 9, 54, 64
7, 131020, Note_off_c, 9, 37, 64
7, 131020, Note_off_c, 9, 42, 64
7, 131040, Note_on_c, 9, 35, 127
7, 131040, Note_on_c, 9, 38, 127
7, 131040, Note_on_c, 9, 42, 100
7, 131040, Note_on_c, 9, 37, 80
7, 131040, Note_on_c, 9, 54, 115
7, 131040, Note_on_c, 9, 39, 115
7, 131140, Note_off_c, 9, 39, 64
7, 131140, Note_off_c, 9, 54, 64
7, 131140, Note_off_c, 9, 37, 64
7, 131140, Note_off_c, 9, 42, 64
7, 131140, Note_off_c, 9, 38, 64
7, 131140, Note_off_c, 9, 35, 64
7, 131160, Note_on_c, 9, 42, 70
7, 131160, Note_on_c, 9, 37, 50
7, 131160, Note_on_c, 9, 54, 60
7, 131260, Note_off_c, 9, 54, 64
7, 131260, Note_off_c, 9, 37, 64
7, 131260, Note_off_c, 9, 42, 64
7, 131280, Note_on_c, 9, 42, 80
7, 131280, Note_on_c, 9, 37, 80
7, 131280, Note_on_c, 9, 56, 100
7, 131280, Note_on_c, 9, 54, 115
7, 131380, Note_off_c, 9, 54, 64
7, 131380, Note_off_c, 9, 56, 64
7, 131380, Note_off_c, 9, 37, 64
7, 131380, Note_off_c, 9, 42, 64
7, 131400, Note_on_c, 9, 35, 115
7, 131400, Note_on_c, 9, 42, 70
7, 131400, Note_on_c, 9, 37, 50
7, 131400, Note_on_c, 9, 56, 115
7, 131400, Note_on_c, 9, 54, 60
7, 131500, Note_off_c, 9, 54, 64
7, 131500, Note_off_c, 9, 56, 64
7, 131500, Note_off_c, 9, 37, 64
7, 131500, Note_off_c, 9, 42, 64
7, 131500, Note_off_c, 9, 35, 64
7, 131520, Note_on_c, 9, 35, 127
7, 131520, Note_on_c, 9, 42, 100
7, 131520, Note_on_c, 9, 37, 80
7, 131520, Note_on_c, 9, 56, 115
7, 131520, Note_on_c, 9, 54, 115
7, 131620, Note_off_c, 9, 54, 64
7, 131620, Note_off_c, 9, 56, 64
7, 131620, Note_off_c, 9, 37, 64
7, 131620, Note_off_c, 9, 42, 64
7, 131620, Note_off_c, 9, 35, 64
7, 131640, Note_on_c, 9, 42, 70
7, 131640, Note_on_c, 9, 37, 50
7, 131640, Note_on_c, 9, 54, 60
7, 131740, Note_off_c, 9, 54, 64
7, 131740, Note_off_c, 9, 37, 64
7, 131740, Note_off_c, 9, 42, 64
7, 131760, Note_on_c, 9, 42, 80
7, 131760, Note_on_c, 9, 37, 80
7, 131760, Note_on_c, 9, 56, 115
7, 131760, Note_on_c, 9, 54, 115
7, 131860, Note_off_c, 9, 54, 64
7, 131860, Note_off_c, 9, 56, 64
7, 131860, Note_off_c, 9, 37, 64
7, 131860, Note_off_c, 9, 42, 64
7, 131880, Note_on_c, 9, 42, 70
7, 131880, Note_on_c, 9, 37, 50
7, 131880, Note_on_c, 9, 54, 60
7, 131980, Note_off_c, 9, 54, 64
7, 131980, Note_off_c, 9, 37, 64
7, 131980, Note_off_c, 9, 42, 64
7, 132000, Note_on_c, 9, 35, 127
7, 132000, Note_on_c, 9, 38, 127
7, 132000, Note_on_c, 9, 42, 100
7, 132000, Note_on_c, 9, 37, 80
7, 132000, Note_on_c, 9, 54, 115
7, 132000, Note_on_c, 9, 39, 115
7, 132100, Note_off_c, 9, 39, 64
7, 132100, Note_off_c, 9, 54, 64
7, 132100, Note_off_c, 9, 37, 64
7, 132100, Note_off_c, 9, 42, 64
7, 132100, Note_off_c, 9, 38, 64
7, 132100, Note_off_c, 9, 35, 64
7, 132120, Note_on_c, 9, 35, 115
7, 132120, Note_on_c, 9, 42, 70
7, 132120, Note_on_c, 9, 37, 50
7, 132120, Note_on_c, 9, 54, 60
7, 132220, Note_off_c, 9, 54, 64
7, 132220, Note_off_c, 9, 37, 64
7, 132220, Note_off_c, 9, 42, 64
7, 132220, Note_off_c, 9, 35, 64
7, 132240, Note_on_c, 9, 35, 127
7, 132240, Note_on_c, 9, 42, 110
7, 132240, Note_on_c, 9, 37, 80
7, 132240, Note_on_c, 9, 54, 115
7, 132340, Note_off_c, 9, 54, 64
7, 132340, Note_off_c, 9, 37, 64
7, 132340, Note_off_c, 9, 42, 64
7, 132340, Note_off_c, 9, 35, 64
7, 132360, Note_on_c, 9, 35, 115
7, 132360, Note_on_c, 9, 42, 90
7, 132360, Note_on_c, 9, 37, 50
7, 132360, Note_on_c, 9, 54, 60
7, 132460, Note_off_c, 9, 54, 64
7, 132460, Note_off_c, 9, 37, 64
7, 132460, Note_off_c, 9, 42, 64
7, 132460, Note_off_c, 9, 35, 64
7, 132480, Note_on_c, 9, 35, 127
7, 132480, Note_on_c, 9, 42, 100
7, 132480, Note_on_c, 9, 37, 80
7, 132480, Note_on_c, 9, 56, 100
7, 132480, Note_on_c, 9, 54, 115
7, 132580, Note_off_c, 9, 54, 64
7, 132580, Note_off_c, 9, 56, 64
7, 132580, Note_off_c, 9, 37, 64
7, 132580, Note_off_c, 9, 42, 64
7, 132580, Note_off_c, 9, 35, 64
7, 132600, Note_on_c, 9, 42, 70
7, 132600, Note_on_c, 9, 37, 50
7, 132600, Note_on_c, 9, 54, 60
7, 132700, Note_off_c, 9, 54, 64
7, 132700, Note_off_c, 9, 37, 64
7, 132700, Note_off_c, 9, 42, 64
7, 132720, Note_on_c, 9, 42, 80
7, 132720, Note_on_c, 9, 37, 80
7, 132720, Note_on_c, 9, 56, 115
7, 132720, Note_on_c, 9, 54, 115
7, 132820, Note_off_c, 9, 54, 64
7, 132820, Note_off_c, 9, 56, 64
7, 132820, Note_off_c, 9, 37, 64
7, 132820, Note_off_c, 9, 42, 64
7, 132840, Note_on_c, 9, 42, 70
7, 132840, Note_on_c, 9, 37, 50
7, 132840, Note_on_c, 9, 54, 60
7, 132940, Note_off_c, 9, 54, 64
7, 132940, Note_off_c, 9, 37, 64
7, 132940, Note_off_c, 9, 42, 64
7, 132960, Note_on_c, 9, 35, 127
7, 132960, Note_on_c, 9, 38, 127
7, 132960, Note_on_c, 9, 42, 100
7, 132960, Note_on_c, 9, 37, 80
7, 132960, Note_on_c, 9, 54, 115
7, 132960, Note_on_c, 9, 39, 115
7, 133060, Note_off_c, 9, 39, 64
7, 133060, Note_off_c, 9, 54, 64
7, 133060, Note_off_c, 9, 37, 64
7, 133060, Note_off_c, 9, 42, 64
7, 133060, Note_off_c, 9, 38, 64
7, 133060, Note_off_c, 9, 35, 64
7, 133080, Note_on_c, 9, 42, 70
7, 133080, Note_on_c, 9, 37, 50
7, 133080, Note_on_c, 9, 54, 60
7, 133180, Note_off_c, 9, 54, 64
7, 133180, Note_off_c, 9, 37, 64
7, 133180, Note_off_c, 9, 42, 64
7, 133200, Note_on_c, 9, 42, 80
7, 133200, Note_on_c, 9, 37, 80
7, 133200, Note_on_c, 9, 56, 100
7, 133200, Note_on_c, 9, 54, 115
7, 133300, Note_off_c, 9, 54, 64
7, 133300, Note_off_c, 9, 56, 64
7, 133300, Note_off_c, 9, 37, 64
7, 133300, Note_off_c, 9, 42, 64
7, 133320, Note_on_c, 9, 35, 115
7, 133320, Note_on_c, 9, 42, 70
7, 133320, Note_on_c, 9, 37, 50
7, 133320, Note_on_c, 9, 56, 115
7, 133320, Note_on_c, 9, 54, 60
7, 133420, Note_off_c, 9, 54, 64
7, 133420, Note_off_c, 9, 56, 64
7, 133420, Note_off_c, 9, 37, 64
7, 133420, Note_off_c, 9, 42, 64
7, 133420, Note_off_c, 9, 35, 64
7, 133440, Note_on_c, 9, 35, 127
7, 133440, Note_on_c, 9, 42, 100
7, 133440, Note_on_c, 9, 37, 80
7, 133440, Note_on_c, 9, 56, 115
7, 133440, Note_on_c, 9, 54, 115
7, 133540, Note_off_c, 9, 54, 64
7, 133540, Note_off_c, 9, 56, 64
7, 133540, Note_off_c, 9, 37, 64
7, 133540, Note_off_c, 9, 42, 64
7, 133540, Note_off_c, 9, 35, 64
7, 133560, Note_on_c, 9, 42, 70
7, 133560, Note_on_c, 9, 37, 50
7, 133560, Note_on_c, 9, 54, 60
7, 133660, Note_off_c, 9, 54, 64
7, 133660, Note_off_c, 9, 37, 64
7, 133660, Note_off_c, 9, 42, 64
7, 133680, Note_on_c, 9, 42, 80
7, 133680, Note_on_c, 9, 37, 80
7, 133680, Note_on_c, 9, 56, 115
7, 133680, Note_on_c, 9, 54, 115
7, 133780, Note_off_c, 9, 54, 64
7, 133780, Note_off_c, 9, 56, 64
7, 133780, Note_off_c, 9, 37, 64
7, 133780, Note_off_c, 9, 42, 64
7, 133800, Note_on_c, 9, 42, 70
7, 133800, Note_on_c, 9, 37, 50
7, 133800, Note_on_c, 9, 54, 60
7, 133900, Note_off_c, 9, 54, 64
7, 133900, Note_off_c, 9, 37, 64
7, 133900, Note_off_c, 9, 42, 64
7, 133920, Note_on_c, 9, 35, 127
7, 133920, Note_on_c, 9, 38, 127
7, 133920, Note_on_c, 9, 42, 100
7, 133920, Note_on_c, 9, 37, 80
7, 133920, Note_on_c, 9, 54, 115
7, 133920, Note_on_c, 9, 39, 115
7, 134020, Note_off_c, 9, 39, 64
7, 134020, Note_off_c, 9, 54, 64
7, 134020, Note_off_c, 9, 37, 64
7, 134020, Note_off_c, 9, 42, 64
7, 134020, Note_off_c, 9, 38, 64
7, 134020, Note_off_c, 9, 35, 64
7, 134040, Note_on_c, 9, 35, 115
7, 134040, Note_on_c, 9, 42, 70
7, 134040, Note_on_c, 9, 37, 50
7, 134040, Note_on_c, 9, 54, 60
7, 134140, Note_off_c, 9, 54, 64
7, 134140, Note_off_c, 9, 37, 64
7, 134140, Note_off_c, 9, 42, 64
7, 134140, Note_off_c, 9, 35, 64
7, 134160, Note_on_c, 9, 35, 127
7, 134160, Note_on_c, 9, 42, 90
7, 134160, Note_on_c, 9, 37, 80
7, 134160, Note_on_c, 9, 54, 115
7, 134260, Note_off_c, 9, 54, 64
7, 134260, Note_off_c, 9, 37, 64
7, 134260, Note_off_c, 9, 42, 64
7, 134260, Note_off_c, 9, 35, 64
7, 134280, Note_on_c, 9, 35, 115
7, 134280, Note_on_c, 9, 42, 90
7, 134280, Note_on_c, 9, 37, 50
7, 134280, Note_on_c, 9, 54, 60
7, 134380, Note_off_c, 9, 54, 64
7, 134380, Note_off_c, 9, 37, 64
7, 134380, Note_off_c, 9, 42, 64
7, 134380, Note_off_c, 9, 35, 64
7, 134400, Note_on_c, 9, 35, 127
7, 134400, Note_on_c, 9, 38, 127
7, 134400, Note_on_c, 9, 42, 100
7, 134400, Note_on_c, 9, 37, 80
7, 134400, Note_on_c, 9, 56, 100
7, 134400, Note_on_c, 9, 54, 115
7, 134500, Note_off_c, 9, 54, 64
7, 134500, Note_off_c, 9, 56, 64
7, 134500, Note_off_c, 9, 37, 64
7, 134500, Note_off_c, 9, 42, 64
7, 134500, Note_off_c, 9, 38, 64
7, 134500, Note_off_c, 9, 35, 64
7, 134520, Note_on_c, 9, 38, 100
7, 134520, Note_on_c, 9, 42, 70
7, 134520, Note_on_c, 9, 37, 50
7, 134520, Note_on_c, 9, 54, 60
7, 134620, Note_off_c, 9, 54, 64
7, 134620, Note_off_c, 9, 37, 64
7, 134620, Note_off_c, 9, 42, 64
7, 134620, Note_off_c, 9, 38, 64
7, 134640, Note_on_c, 9, 38, 115
7, 134640, Note_on_c, 9, 42, 80
7, 134640, Note_on_c, 9, 37, 80
7, 134640, Note_on_c, 9, 56, 115
7, 134640, Note_on_c, 9, 54, 115
7, 134740, Note_off_c, 9, 54, 64
7, 134740, Note_off_c, 9, 56, 64
7, 134740, Note_off_c, 9, 37, 64
7, 134740, Note_off_c, 9, 42, 64
7, 134740, Note_off_c, 9, 38, 64
7, 134760, Note_on_c, 9, 38, 90
7, 134760, Note_on_c, 9, 42, 70
7, 134760, Note_on_c, 9, 37, 50
7, 134760, Note_on_c, 9, 54, 60
7, 134860, Note_off_c, 9, 54, 64
7, 134860, Note_off_c, 9, 37, 64
7, 134860, Note_off_c, 9, 42, 64
7, 134860, Note_off_c, 9, 38, 64
7, 134880, Note_on_c, 9, 35, 127
7, 134880, Note_on_c, 9, 38, 127
7, 134880, Note_on_c, 9, 42, 100
7, 134880, Note_on_c, 9, 37, 80
7, 134880, Note_on_c, 9, 54, 115
7, 134880, Note_on_c, 9, 39, 115
7, 134980, Note_off_c, 9, 39, 64
7, 134980, Note_off_c, 9, 54, 64
7, 134980, Note_off_c, 9, 37, 64
7, 134980, Note_off_c, 9, 42, 64
7, 134980, Note_off_c, 9, 38, 64
7, 134980, Note_off_c, 9, 35, 64
7, 135000, Note_on_c, 9, 38, 100
7, 135000, Note_on_c, 9, 42, 70
7, 135000, Note_on_c, 9, 37, 50
7, 135000, Note_on_c, 9, 54, 60
7, 135100, Note_off_c, 9, 54, 64
7, 135100, Note_off_c, 9, 37, 64
7, 135100, Note_off_c, 9, 42, 64
7, 135100, Note_off_c, 9, 38, 64
7, 135120, Note_on_c, 9, 38, 115
7, 135120, Note_on_c, 9, 42, 80
7, 135120, Note_on_c, 9, 37, 80
7, 135120, Note_on_c, 9, 56, 100
7, 135120, Note_on_c, 9, 54, 115
7, 135220, Note_off_c, 9, 54, 64
7, 135220, Note_off_c, 9, 56, 64
7, 135220, Note_off_c, 9, 37, 64
7, 135220, Note_off_c, 9, 42, 64
7, 135220, Note_off_c, 9, 38, 64
7, 135240, Note_on_c, 9, 35, 115
7, 135240, Note_on_c, 9, 38, 90
7, 135240, Note_on_c, 9, 42, 70
7, 135240, Note_on_c, 9, 37, 50
7, 135240, Note_on_c, 9, 56, 115
7, 135240, Note_on_c, 9, 54, 60
7, 135340, Note_off_c, 9, 54, 64
7, 135340, Note_off_c, 9, 56, 64
7, 135340, Note_off_c, 9, 37, 64
7, 135340, Note_off_c, 9, 42, 64
7, 135340, Note_off_c, 9, 38, 64
7, 135340, Note_off_c, 9, 35, 64
7, 136320, Note_on_c, 9, 35, 127
7, 136320, Note_on_c, 9, 42, 100
7, 136320, Note_on_c, 9, 37, 80
7, 136320, Note_on_c, 9, 56, 100
7, 136320, Note_on_c, 9, 49, 100
7, 136320, Note_on_c, 9, 54, 115
7, 136420, Note_off_c, 9, 54, 64
7, 136420, Note_off_c, 9, 49, 64
7, 136420, Note_off_c, 9, 56, 64
7, 136420, Note_off_c, 9, 37, 64
7, 136420, Note_off_c, 9, 42, 64
7, 136420, Note_off_c, 9, 35, 64
7, 136440, Note_on_c, 9, 42, 70
7, 136440, Note_on_c, 9, 37, 50
7, 136440, Note_on_c, 9, 54, 60
7, 136540, Note_off_c, 9, 54, 64
7, 136540, Note_off_c, 9, 37, 64
7, 136540, Note_off_c, 9, 42, 64
7, 136560, Note_on_c, 9, 42, 80
7, 136560, Note_on_c, 9, 37, 80
7, 136560, Note_on_c, 9, 56, 115
7, 136560, Note_on_c, 9, 54, 115
7, 136660, Note_off_c, 9, 54, 64
7, 136660, Note_off_c, 9, 56, 64
7, 136660, Note_off_c, 9, 37, 64
7, 136660, Note_off_c, 9, 42, 64
7, 136680, Note_on_c, 9, 42, 70
7, 136680, Note_on_c, 9, 37, 50
7, 136680, Note_on_c, 9, 54, 60
7, 136780, Note_off_c, 9, 54, 64
7, 136780, Note_off_c, 9, 37, 64
7, 136780, Note_off_c, 9, 42, 64
7, 136800, Note_on_c, 9, 35, 127
7, 136800, Note_on_c, 9, 38, 127
7, 136800, Note_on_c, 9, 42, 100
7, 136800, Note_on_c, 9, 37, 80
7, 136800, Note_on_c, 9, 54, 115
7, 136800, Note_on_c, 9, 39, 115
7, 136900, Note_off_c, 9, 39, 64
7, 136900, Note_off_c, 9, 54, 64
7, 136900, Note_off_c, 9, 37, 64
7, 136900, Note_off_c, 9, 42, 64
7, 136900, Note_off_c, 9, 38, 64
7, 136900, Note_off_c, 9, 35, 64
7, 136920, Note_on_c, 9, 42, 70
7, 136920, Note_on_c, 9, 37, 50
7, 136920, Note_on_c, 9, 54, 60
7, 137020, Note_off_c, 9, 54, 64
7, 137020, Note_off_c, 9, 37, 64
7, 137020, Note_off_c, 9, 42, 64
7, 137040, Note_on_c, 9, 42, 80
7, 137040, Note_on_c, 9, 37, 80
7, 137040, Note_on_c, 9, 56, 100
7, 137040, Note_on_c, 9, 54, 115
7, 137140, Note_off_c, 9, 54, 64
7, 137140, Note_off_c, 9, 56, 64
7, 137140, Note_off_c, 9, 37, 64
7, 137140, Note_off_c, 9, 42, 64
7, 137160, Note_on_c, 9, 35, 115
7, 137160, Note_on_c, 9, 42, 70
7, 137160, Note_on_c, 9, 37, 50
7, 137160, Note_on_c, 9, 56, 115
7, 137160, Note_on_c, 9, 54, 60
7, 137260, Note_off_c, 9, 54, 64
7, 137260, Note_off_c, 9, 56, 64
7, 137260, Note_off_c, 9, 37, 64
7, 137260, Note_off_c, 9, 42, 64
7, 137260, Note_off_c, 9, 35, 64
7, 137280, Note_on_c, 9, 35, 127
7, 137280, Note_on_c, 9, 42, 100
7, 137280, Note_on_c, 9, 37, 80
7, 137280, Note_on_c, 9, 56, 115
7, 137280, Note_on_c, 9, 54, 115
7, 137380, Note_off_c, 9, 54, 64
7, 137380, Note_off_c, 9, 56, 64
7, 137380, Note_off_c, 9, 37, 64
7, 137380, Note_off_c, 9, 42, 64
7, 137380, Note_off_c, 9, 35, 64
7, 137400, Note_on_c, 9, 42, 70
7, 137400, Note_on_c, 9, 37, 50
7, 137400, Note_on_c, 9, 54, 60
7, 137500, Note_off_c, 9, 54, 64
7, 137500, Note_off_c, 9, 37, 64
7, 137500, Note_off_c, 9, 42, 64
7, 137520, Note_on_c, 9, 42, 80
7, 137520, Note_on_c, 9, 37, 80
7, 137520, Note_on_c, 9, 56, 115
7, 137520, Note_on_c, 9, 54, 115
7, 137620, Note_off_c, 9, 54, 64
7, 137620, Note_off_c, 9, 56, 64
7, 137620, Note_off_c, 9, 37, 64
7, 137620, Note_off_c, 9, 42, 64
7, 137640, Note_on_c, 9, 42, 70
7, 137640, Note_on_c, 9, 37, 50
7, 137640, Note_on_c, 9, 54, 60
7, 137740, Note_off_c, 9, 54, 64
7, 137740, Note_off_c, 9, 37, 64
7, 137740, Note_off_c, 9, 42, 64
7, 137760, Note_on_c, 9, 35, 127
7, 137760, Note_on_c, 9, 38, 127
7, 137760, Note_on_c, 9, 42, 100
7, 137760, Note_on_c, 9, 37, 80
7, 137760, Note_on_c, 9, 54, 115
7, 137760, Note_on_c, 9, 39, 115
7, 137860, Note_off_c, 9, 39, 64
7, 137860, Note_off_c, 9, 54, 64
7, 137860, Note_off_c, 9, 37, 64
7, 137860, Note_off_c, 9, 42, 64
7, 137860, Note_off_c, 9, 38, 64
7, 137860, Note_off_c, 9, 35, 64
7, 137880, Note_on_c, 9, 35, 115
7, 137880, Note_on_c, 9, 42, 70
7, 137880, Note_on_c, 9, 37, 50
7, 137880, Note_on_c, 9, 54, 60
7, 137980, Note_off_c, 9, 54, 64
7, 137980, Note_off_c, 9, 37, 64
7, 137980, Note_off_c, 9, 42, 64
7, 137980, Note_off_c, 9, 35, 64
7, 138000, Note_on_c, 9, 35, 127
7, 138000, Note_on_c, 9, 42, 90
7, 138000, Note_on_c, 9, 37, 80
7, 138000, Note_on_c, 9, 54, 115
7, 138100, Note_off_c, 9, 54, 64
7, 138100, Note_off_c, 9, 37, 64
7, 138100, Note_off_c, 9, 42, 64
7, 138100, Note_off_c, 9, 35, 64
7, 138120, Note_on_c, 9, 35, 115
7, 138120, Note_on_c, 9, 42, 90
7, 138120, Note_on_c, 9, 37, 50
7, 138120, Note_on_c, 9, 54, 60
7, 138220, Note_off_c, 9, 54, 64
7, 138220, Note_off_c, 9, 37, 64
7, 138220, Note_off_c, 9, 42, 64
7, 138220, Note_off_c, 9, 35, 64
7, 138240, Note_on_c, 9, 35, 127
7, 138240, Note_on_c, 9, 42, 100
7, 138240, Note_on_c, 9, 37, 80
7, 138240, Note_on_c, 9, 56, 100
7, 138240, Note_on_c, 9, 54, 115
7, 138340, Note_off_c, 9, 54, 64
7, 138340, Note_off_c, 9, 56, 64
7, 138340, Note_off_c, 9, 37, 64
7, 138340, Note_off_c, 9, 42, 64
7, 138340, Note_off_c, 9, 35, 64
7, 138360, Note_on_c, 9, 42, 70
7, 138360, Note_on_c, 9, 37, 50
7, 138360, Note_on_c, 9, 54, 60
7, 138460, Note_off_c, 9, 54, 64
7, 138460, Note_off_c, 9, 37, 64
7, 138460, Note_off_c, 9, 42, 64
7, 138480, Note_on_c, 9, 42, 80
7, 138480, Note_on_c, 9, 37, 80
7, 138480, Note_on_c, 9, 56, 115
7, 138480, Note_on_c, 9, 54, 115
7, 138580, Note_off_c, 9, 54, 64
7, 138580, Note_off_c, 9, 56, 64
7, 138580, Note_off_c, 9, 37, 64
7, 138580, Note_off_c, 9, 42, 64
7, 138600, Note_on_c, 9, 42, 70
7, 138600, Note_on_c, 9, 37, 50
7, 138600, Note_on_c, 9, 54, 60
7, 138700, Note_off_c, 9, 54, 64
7, 138700, Note_off_c, 9, 37, 64
7, 138700, Note_off_c, 9, 42, 64
7, 138720, Note_on_c, 9, 35, 127
7, 138720, Note_on_c, 9, 38, 127
7, 138720, Note_on_c, 9, 42, 100
7, 138720, Note_on_c, 9, 37, 80
7, 138720, Note_on_c, 9, 54, 115
7, 138720, Note_on_c, 9, 39, 115
7, 138820, Note_off_c, 9, 39, 64
7, 138820, Note_off_c, 9, 54, 64
7, 138820, Note_off_c, 9, 37, 64
7, 138820, Note_off_c, 9, 42, 64
7, 138820, Note_off_c, 9, 38, 64
7, 138820, Note_off_c, 9, 35, 64
7, 138840, Note_on_c, 9, 42, 70
7, 138840, Note_on_c, 9, 37, 50
7, 138840, Note_on_c, 9, 54, 60
7, 138940, Note_off_c, 9, 54, 64
7, 138940, Note_off_c, 9, 37, 64
7, 138940, Note_off_c, 9, 42, 64
7, 138960, Note_on_c, 9, 42, 80
7, 138960, Note_on_c, 9, 37, 80
7, 138960, Note_on_c, 9, 56, 100
7, 138960, Note_on_c, 9, 54, 115
7, 139060, Note_off_c, 9, 54, 64
7, 139060, Note_off_c, 9, 56, 64
7, 139060, Note_off_c, 9, 37, 64
7, 139060, Note_off_c, 9, 42, 64
7, 139080, Note_on_c, 9, 35, 115
7, 139080, Note_on_c, 9, 42, 70
7, 139080, Note_on_c, 9, 37, 50
7, 139080, Note_on_c, 9, 56, 115
7, 139080, Note_on_c, 9, 54, 60
7, 139180, Note_off_c, 9, 54, 64
7, 139180, Note_off_c, 9, 56, 64
7, 139180, Note_off_c, 9, 37, 64
7, 139180, Note_off_c, 9, 42, 64
7, 139180, Note_off_c, 9, 35, 64
7, 139200, Note_on_c, 9, 35, 127
7, 139200, Note_on_c, 9, 42, 100
7, 139200, Note_on_c, 9, 37, 80
7, 139200, Note_on_c, 9, 56, 115
7, 139200, Note_on_c, 9, 54, 115
7, 139300, Note_off_c, 9, 54, 64
7, 139300, Note_off_c, 9, 56, 64
7, 139300, Note_off_c, 9, 37, 64
7, 139300, Note_off_c, 9, 42, 64
7, 139300, Note_off_c, 9, 35, 64
7, 139320, Note_on_c, 9, 42, 70
7, 139320, Note_on_c, 9, 37, 50
7, 139320, Note_on_c, 9, 54, 60
7, 139420, Note_off_c, 9, 54, 64
7, 139420, Note_off_c, 9, 37, 64
7, 139420, Note_off_c, 9, 42, 64
7, 139440, Note_on_c, 9, 42, 80
7, 139440, Note_on_c, 9, 37, 80
7, 139440, Note_on_c, 9, 56, 115
7, 139440, Note_on_c, 9, 54, 115
7, 139540, Note_off_c, 9, 54, 64
7, 139540, Note_off_c, 9, 56, 64
7, 139540, Note_off_c, 9, 37, 64
7, 139540, Note_off_c, 9, 42, 64
7, 139560, Note_on_c, 9, 42, 70
7, 139560, Note_on_c, 9, 37, 50
7, 139560, Note_on_c, 9, 54, 60
7, 139660, Note_off_c, 9, 54, 64
7, 139660, Note_off_c, 9, 37, 64
7, 139660, Note_off_c, 9, 42, 64
7, 139680, Note_on_c, 9, 35, 127
7, 139680, Note_on_c, 9, 38, 127
7, 139680, Note_on_c, 9, 42, 100
7, 139680, Note_on_c, 9, 37, 80
7, 139680, Note_on_c, 9, 54, 115
7, 139680, Note_on_c, 9, 39, 115
7, 139780, Note_off_c, 9, 39, 64
7, 139780, Note_off_c, 9, 54, 64
7, 139780, Note_off_c, 9, 37, 64
7, 139780, Note_off_c, 9, 42, 64
7, 139780, Note_off_c, 9, 38, 64
7, 139780, Note_off_c, 9, 35, 64
7, 139800, Note_on_c, 9, 35, 115
7, 139800, Note_on_c, 9, 42, 70
7, 139800, Note_on_c, 9, 37, 50
7, 139800, Note_on_c, 9, 54, 60
7, 139900, Note_off_c, 9, 54, 64
7, 139900, Note_off_c, 9, 37, 64
7, 139900, Note_off_c, 9, 42, 64
7, 139900, Note_off_c, 9, 35, 64
7, 139920, Note_on_c, 9, 35, 127
7, 139920, Note_on_c, 9, 42, 90
7, 139920, Note_on_c, 9, 37, 80
7, 139920, Note_on_c, 9, 54, 115
7, 140020, Note_off_c, 9, 54, 64
7, 140020, Note_off_c, 9, 37, 64
7, 140020, Note_off_c, 9, 42, 64
7, 140020, Note_off_c, 9, 35, 64
7, 140040, Note_on_c, 9, 35, 115
7, 140040, Note_on_c, 9, 42, 90
7, 140040, Note_on_c, 9, 37, 50
7, 140040, Note_on_c, 9, 54, 60
7, 140140, Note_off_c, 9, 54, 64
7, 140140, Note_off_c, 9, 37, 64
7, 140140, Note_off_c, 9, 42, 64
7, 140140, Note_off_c, 9, 35, 64
7, 140160, Note_on_c, 9, 35, 127
7, 140160, Note_on_c, 9, 42, 100
7, 140160, Note_on_c, 9, 37, 80
7, 140160, Note_on_c, 9, 56, 100
7, 140160, Note_on_c, 9, 54, 115
7, 140260, Note_off_c, 9, 54, 64
7, 140260, Note_off_c, 9, 56, 64
7, 140260, Note_off_c, 9, 37, 64
7, 140260, Note_off_c, 9, 42, 64
7, 140260, Note_off_c, 9, 35, 64
7, 140280, Note_on_c, 9, 42, 70
7, 140280, Note_on_c, 9, 37, 50
7, 140280, Note_on_c, 9, 54, 60
7, 140380, Note_off_c, 9, 54, 64
7, 140380, Note_off_c, 9, 37, 64
7, 140380, Note_off_c, 9, 42, 64
7, 140400, Note_on_c, 9, 42, 80
7, 140400, Note_on_c, 9, 37, 80
7, 140400, Note_on_c, 9, 56, 115
7, 140400, Note_on_c, 9, 54, 115
7, 140500, Note_off_c, 9, 54, 64
7, 140500, Note_off_c, 9, 56, 64
7, 140500, Note_off_c, 9, 37, 64
7, 140500, Note_off_c, 9, 42, 64
7, 140520, Note_on_c, 9, 42, 70
7, 140520, Note_on_c, 9, 37, 50
7, 140520, Note_on_c, 9, 54, 60
7, 140620, Note_off_c, 9, 54, 64
7, 140620, Note_off_c, 9, 37, 64
7, 140620, Note_off_c, 9, 42, 64
7, 140640, Note_on_c, 9, 35, 127
7, 140640, Note_on_c, 9, 38, 127
7, 140640, Note_on_c, 9, 42, 100
7, 140640, Note_on_c, 9, 37, 80
7, 140640, Note_on_c, 9, 54, 115
7, 140640, Note_on_c, 9, 39, 115
7, 140740, Note_off_c, 9, 39, 64
7, 140740, Note_off_c, 9, 54, 64
7, 140740, Note_off_c, 9, 37, 64
7, 140740, Note_off_c, 9, 42, 64
7, 140740, Note_off_c, 9, 38, 64
7, 140740, Note_off_c, 9, 35, 64
7, 140760, Note_on_c, 9, 42, 70
7, 140760, Note_on_c, 9, 37, 50
7, 140760, Note_on_c, 9, 54, 60
7, 140860, Note_off_c, 9, 54, 64
7, 140860, Note_off_c, 9, 37, 64
7, 140860, Note_off_c, 9, 42, 64
7, 140880, Note_on_c, 9, 42, 80
7, 140880, Note_on_c, 9, 37, 80
7, 140880, Note_on_c, 9, 56, 100
7, 140880, Note_on_c, 9, 54, 115
7, 140980, Note_off_c, 9, 54, 64
7, 140980, Note_off_c, 9, 56, 64
7, 140980, Note_off_c, 9, 37, 64
7, 140980, Note_off_c, 9, 42, 64
7, 141000, Note_on_c, 9, 35, 115
7, 141000, Note_on_c, 9, 42, 70
7, 141000, Note_on_c, 9, 37, 50
7, 141000, Note_on_c, 9, 56, 115
7, 141000, Note_on_c, 9, 54, 60
7, 141100, Note_off_c, 9, 54, 64
7, 141100, Note_off_c, 9, 56, 64
7, 141100, Note_off_c, 9, 37, 64
7, 141100, Note_off_c, 9, 42, 64
7, 141100, Note_off_c, 9, 35, 64
7, 141120, Note_on_c, 9, 35, 127
7, 141120, Note_on_c, 9, 42, 100
7, 141120, Note_on_c, 9, 37, 80
7, 141120, Note_on_c, 9, 56, 115
7, 141120, Note_on_c, 9, 54, 115
7, 141220, Note_off_c, 9, 54, 64
7, 141220, Note_off_c, 9, 56, 64
7, 141220, Note_off_c, 9, 37, 64
7, 141220, Note_off_c, 9, 42, 64
7, 141220, Note_off_c, 9, 35, 64
7, 141240, Note_on_c, 9, 42, 70
7, 141240, Note_on_c, 9, 37, 50
7, 141240, Note_on_c, 9, 54, 60
7, 141340, Note_off_c, 9, 54, 64
7, 141340, Note_off_c, 9, 37, 64
7, 141340, Note_off_c, 9, 42, 64
7, 141360, Note_on_c, 9, 42, 80
7, 141360, Note_on_c, 9, 37, 80
7, 141360, Note_on_c, 9, 56, 115
7, 141360, Note_on_c, 9, 54, 115
7, 141460, Note_off_c, 9, 54, 64
7, 141460, Note_off_c, 9, 56, 64
7, 141460, Note_off_c, 9, 37, 64
7, 141460, Note_off_c, 9, 42, 64
7, 141480, Note_on_c, 9, 42, 70
7, 141480, Note_on_c, 9, 37, 50
7, 141480, Note_on_c, 9, 54, 60
7, 141580, Note_off_c, 9, 54, 64
7, 141580, Note_off_c, 9, 37, 64
7, 141580, Note_off_c, 9, 42, 64
7, 141600, Note_on_c, 9, 35, 127
7, 141600, Note_on_c, 9, 38, 127
7, 141600, Note_on_c, 9, 42, 100
7, 141600, Note_on_c, 9, 37, 80
7, 141600, Note_on_c, 9, 54, 115
7, 141600, Note_on_c, 9, 39, 115
7, 141700, Note_off_c, 9, 39, 64
7, 141700, Note_off_c, 9, 54, 64
7, 141700, Note_off_c, 9, 37, 64
7, 141700, Note_off_c, 9, 42, 64
7, 141700, Note_off_c, 9, 38, 64
7, 141700, Note_off_c, 9, 35, 64
7, 141720, Note_on_c, 9, 35, 115
7, 141720, Note_on_c, 9, 42, 70
7, 141720, Note_on_c, 9, 37, 50
7, 141720, Note_on_c, 9, 54, 60
7, 141820, Note_off_c, 9, 54, 64
7, 141820, Note_off_c, 9, 37, 64
7, 141820, Note_off_c, 9, 42, 64
7, 141820, Note_off_c, 9, 35, 64
7, 141840, Note_on_c, 9, 35, 127
7, 141840, Note_on_c, 9, 42, 90
7, 141840, Note_on_c, 9, 37, 80
7, 141840, Note_on_c, 9, 54, 115
7, 141940, Note_off_c, 9, 54, 64
7, 141940, Note_off_c, 9, 37, 64
7, 141940, Note_off_c, 9, 42, 64
7, 141940, Note_off_c, 9, 35, 64
7, 141960, Note_on_c, 9, 35, 115
7, 141960, Note_on_c, 9, 42, 90
7, 141960, Note_on_c, 9, 37, 50
7, 141960, Note_on_c, 9, 54, 60
7, 142060, Note_off_c, 9, 54, 64
7, 142060, Note_off_c, 9, 37, 64
7, 142060, Note_off_c, 9, 42, 64
7, 142060, Note_off_c, 9, 35, 64
7, 142080, Note_on_c, 9, 35, 127
7, 142080, Note_on_c, 9, 38, 127
7, 142080, Note_on_c, 9, 42, 100
7, 142080, Note_on_c, 9, 37, 80
7, 142080, Note_on_c, 9, 56, 100
7, 142080, Note_on_c, 9, 54, 115
7, 142180, Note_off_c, 9, 54, 64
7, 142180, Note_off_c, 9, 56, 64
7, 142180, Note_off_c, 9, 37, 64
7, 142180, Note_off_c, 9, 42, 64
7, 142180, Note_off_c, 9, 38, 64
7, 142180, Note_off_c, 9, 35, 64
7, 142200, Note_on_c, 9, 38, 100
7, 142200, Note_on_c, 9, 42, 70
7, 142200, Note_on_c, 9, 37, 50
7, 142200, Note_on_c, 9, 54, 60
7, 142300, Note_off_c, 9, 54, 64
7, 142300, Note_off_c, 9, 37, 64
7, 142300, Note_off_c, 9, 42, 64
7, 142300, Note_off_c, 9, 38, 64
7, 142320, Note_on_c, 9, 38, 115
7, 142320, Note_on_c, 9, 42, 80
7, 142320, Note_on_c, 9, 37, 80
7, 142320, Note_on_c, 9, 56, 115
7, 142320, Note_on_c, 9, 54, 115
7, 142420, Note_off_c, 9, 54, 64
7, 142420, Note_off_c, 9, 56, 64
7, 142420, Note_off_c, 9, 37, 64
7, 142420, Note_off_c, 9, 42, 64
7, 142420, Note_off_c, 9, 38, 64
7, 142440, Note_on_c, 9, 38, 90
7, 142440, Note_on_c, 9, 42, 70
7, 142440, Note_on_c, 9, 37, 50
7, 142440, Note_on_c, 9, 54, 60
7, 142540, Note_off_c, 9, 54, 64
7, 142540, Note_off_c, 9, 37, 64
7, 142540, Note_off_c, 9, 42, 64
7, 142540, Note_off_c, 9, 38, 64
7, 142560, Note_on_c, 9, 35, 127
7, 142560, Note_on_c, 9, 38, 127
7, 142560, Note_on_c, 9, 42, 100
7, 142560, Note_on_c, 9, 37, 80
7, 142560, Note_on_c, 9, 54, 115
7, 142560, Note_on_c, 9, 39, 115
7, 142660, Note_off_c, 9, 39, 64
7, 142660, Note_off_c, 9, 54, 64
7, 142660, Note_off_c, 9, 37, 64
7, 142660, Note_off_c, 9, 42, 64
7, 142660, Note_off_c, 9, 38, 64
7, 142660, Note_off_c, 9, 35, 64
7, 142680, Note_on_c, 9, 38, 100
7, 142680, Note_on_c, 9, 42, 70
7, 142680, Note_on_c, 9, 37, 50
7, 142680, Note_on_c, 9, 54, 60
7, 142780, Note_off_c, 9, 54, 64
7, 142780, Note_off_c, 9, 37, 64
7, 142780, Note_off_c, 9, 42, 64
7, 142780, Note_off_c, 9, 38, 64
7, 142800, Note_on_c, 9, 38, 115
7, 142800, Note_on_c, 9, 42, 80
7, 142800, Note_on_c, 9, 37, 80
7, 142800, Note_on_c, 9, 56, 100
7, 142800, Note_on_c, 9, 54, 115
7, 142900, Note_off_c, 9, 54, 64
7, 142900, Note_off_c, 9, 56, 64
7, 142900, Note_off_c, 9, 37, 64
7, 142900, Note_off_c, 9, 42, 64
7, 142900, Note_off_c, 9, 38, 64
7, 142920, Note_on_c, 9, 35, 115
7, 142920, Note_on_c, 9, 38, 90
7, 142920, Note_on_c, 9, 42, 70
7, 142920, Note_on_c, 9, 37, 50
7, 142920, Note_on_c, 9, 56, 115
7, 142920, Note_on_c, 9, 54, 60
7, 143020, Note_off_c, 9, 54, 64
7, 143020, Note_off_c, 9, 56, 64
7, 143020, Note_off_c, 9, 37, 64
7, 143020, Note_off_c, 9, 42, 64
7, 143020, Note_off_c, 9, 38, 64
7, 143020, Note_off_c, 9, 35, 64
7, 143040, Note_on_c, 9, 35, 127
7, 143040, Note_on_c, 9, 38, 127
7, 143040, Note_on_c, 9, 42, 100
7, 143040, Note_on_c, 9, 37, 80
7, 143040, Note_on_c, 9, 56, 115
7, 143040, Note_on_c, 9, 54, 115
7, 143140, Note_off_c, 9, 54, 64
7, 143140, Note_off_c, 9, 56, 64
7, 143140, Note_off_c, 9, 37, 64
7, 143140, Note_off_c, 9, 42, 64
7, 143140, Note_off_c, 9, 38, 64
7, 143140, Note_off_c, 9, 35, 64
7, 143160, Note_on_c, 9, 38, 100
7, 143160, Note_on_c, 9, 42, 70
7, 143160, Note_on_c, 9, 37, 50
7, 143160, Note_on_c, 9, 54, 60
7, 143260, Note_off_c, 9, 54, 64
7, 143260, Note_off_c, 9, 37, 64
7, 143260, Note_off_c, 9, 42, 64
7, 143260, Note_off_c, 9, 38, 64
7, 143280, Note_on_c, 9, 38, 115
7, 143280, Note_on_c, 9, 42, 80
7, 143280, Note_on_c, 9, 37, 80
7, 143280, Note_on_c, 9, 56, 115
7, 143280, Note_on_c, 9, 54, 115
7, 143380, Note_off_c, 9, 54, 64
7, 143380, Note_off_c, 9, 56, 64
7, 143380, Note_off_c, 9, 37, 64
7, 143380, Note_off_c, 9, 42, 64
7, 143380, Note_off_c, 9, 38, 64
7, 143400, Note_on_c, 9, 38, 90
7, 143400, Note_on_c, 9, 42, 70
7, 143400, Note_on_c, 9, 37, 50
7, 143400, Note_on_c, 9, 54, 60
7, 143500, Note_off_c, 9, 54, 64
7, 143500, Note_off_c, 9, 37, 64
7, 143500, Note_off_c, 9, 42, 64
7, 143500, Note_off_c, 9, 38, 64
7, 143520, Note_on_c, 9, 35, 127
7, 143520, Note_on_c, 9, 38, 127
7, 143520, Note_on_c, 9, 42, 100
7, 143520, Note_on_c, 9, 37, 80
7, 143520, Note_on_c, 9, 54, 115
7, 143520, Note_on_c, 9, 39, 115
7, 143620, Note_off_c, 9, 39, 64
7, 143620, Note_off_c, 9, 54, 64
7, 143620, Note_off_c, 9, 37, 64
7, 143620, Note_off_c, 9, 42, 64
7, 143620, Note_off_c, 9, 38, 64
7, 143620, Note_off_c, 9, 35, 64
7, 143640, Note_on_c, 9, 35, 115
7, 143640, Note_on_c, 9, 38, 100
7, 143640, Note_on_c, 9, 42, 70
7, 143640, Note_on_c, 9, 37, 50
7, 143640, Note_on_c, 9, 54, 60
7, 143740, Note_off_c, 9, 54, 64
7, 143740, Note_off_c, 9, 37, 64
7, 143740, Note_off_c, 9, 42, 64
7, 143740, Note_off_c, 9, 38, 64
7, 143740, Note_off_c, 9, 35, 64
7, 143760, Note_on_c, 9, 35, 127
7, 143760, Note_on_c, 9, 38, 115
7, 143760, Note_on_c, 9, 42, 90
7, 143760, Note_on_c, 9, 37, 80
7, 143760, Note_on_c, 9, 54, 115
7, 143860, Note_off_c, 9, 54, 64
7, 143860, Note_off_c, 9, 37, 64
7, 143860, Note_off_c, 9, 42, 64
7, 143860, Note_off_c, 9, 38, 64
7, 143860, Note_off_c, 9, 35, 64
7, 143880, Note_on_c, 9, 35, 115
7, 143880, Note_on_c, 9, 38, 90
7, 143880, Note_on_c, 9, 42, 90
7, 143880, Note_on_c, 9, 37, 50
7, 143880, Note_on_c, 9, 54, 60
7, 143980, Note_off_c, 9, 54, 64
7, 143980, Note_off_c, 9, 37, 64
7, 143980, Note_off_c, 9, 42, 64
7, 143980, Note_off_c, 9, 38, 64
7, 143980, Note_off_c, 9, 35, 64
7, 144000, Note_on_c, 9, 35, 127
7, 144000, Note_on_c, 9, 42, 100
7, 144000, Note_on_c, 9, 37, 80
7, 144000, Note_on_c, 9, 56, 100
7, 144000, Note_on_c, 9, 49, 100
7, 144000, Note_on_c, 9, 54, 115
7, 144100, Note_off_c, 9, 54, 64
7, 144100, Note_off_c, 9, 49, 64
7, 144100, Note_off_c, 9, 56, 64
7, 144100, Note_off_c, 9, 37, 64
7, 144100, Note_off_c, 9, 42, 64
7, 144100, Note_off_c, 9, 35, 64
7, 144120, Note_on_c, 9, 42, 70
7, 144120, Note_on_c, 9, 37, 50
7, 144120, Note_on_c, 9, 54, 60
7, 144220, Note_off_c, 9, 54, 64
7, 144220, Note_off_c, 9, 37, 64
7, 144220, Note_off_c, 9, 42, 64
7, 144240, Note_on_c, 9, 42, 80
7, 144240, Note_on_c, 9, 37, 80
7, 144240, Note_on_c, 9, 56, 115
7, 144240, Note_on_c, 9, 54, 115
7, 144340, Note_off_c, 9, 54, 64
7, 144340, Note_off_c, 9, 56, 64
7, 144340, Note_off_c, 9, 37, 64
7, 144340, Note_off_c, 9, 42, 64
7, 144360, Note_on_c, 9, 42, 70
7, 144360, Note_on_c, 9, 37, 50
7, 144360, Note_on_c, 9, 54, 60
7, 144460, Note_off_c, 9, 54, 64
7, 144460, Note_off_c, 9, 37, 64
7, 144460, Note_off_c, 9, 42, 64
7, 144480, Note_on_c, 9, 35, 127
7, 144480, Note_on_c, 9, 38, 127
7, 144480, Note_on_c, 9, 42, 100
7, 144480, Note_on_c, 9, 37, 80
7, 144480, Note_on_c, 9, 54, 115
7, 144480, Note_on_c, 9, 39, 115
7, 144580, Note_off_c, 9, 39, 64
7, 144580, Note_off_c, 9, 54, 64
7, 144580, Note_off_c, 9, 37, 64
7, 144580, Note_off_c, 9, 42, 64
7, 144580, Note_off_c, 9, 38, 64
7, 144580, Note_off_c, 9, 35, 64
7, 144600, Note_on_c, 9, 42, 70
7, 144600, Note_on_c, 9, 37, 50
7, 144600, Note_on_c, 9, 54, 60
7, 144700, Note_off_c, 9, 54, 64
7, 144700, Note_off_c, 9, 37, 64
7, 144700, Note_off_c, 9, 42, 64
7, 144720, Note_on_c, 9, 42, 80
7, 144720, Note_on_c, 9, 37, 80
7, 144720, Note_on_c, 9, 56, 100
7, 144720, Note_on_c, 9, 54, 115
7, 144820, Note_off_c, 9, 54, 64
7, 144820, Note_off_c, 9, 56, 64
7, 144820, Note_off_c, 9, 37, 64
7, 144820, Note_off_c, 9, 42, 64
7, 144840, Note_on_c, 9, 35, 115
7, 144840, Note_on_c, 9, 42, 70
7, 144840, Note_on_c, 9, 37, 50
7, 144840, Note_on_c, 9, 56, 115
7, 144840, Note_on_c, 9, 54, 60
7, 144940, Note_off_c, 9, 54, 64
7, 144940, Note_off_c, 9, 56, 64
7, 144940, Note_off_c, 9, 37, 64
7, 144940, Note_off_c, 9, 42, 64
7, 144940, Note_off_c, 9, 35, 64
7, 144960, Note_on_c, 9, 35, 127
7, 144960, Note_on_c, 9, 42, 100
7, 144960, Note_on_c, 9, 37, 80
7, 144960, Note_on_c, 9, 56, 115
7, 144960, Note_on_c, 9, 54, 115
7, 145060, Note_off_c, 9, 54, 64
7, 145060, Note_off_c, 9, 56, 64
7, 145060, Note_off_c, 9, 37, 64
7, 145060, Note_off_c, 9, 42, 64
7, 145060, Note_off_c, 9, 35, 64
7, 145080, Note_on_c, 9, 42, 70
7, 145080, Note_on_c, 9, 37, 50
7, 145080, Note_on_c, 9, 54, 60
7, 145180, Note_off_c, 9, 54, 64
7, 145180, Note_off_c, 9, 37, 64
7, 145180, Note_off_c, 9, 42, 64
7, 145200, Note_on_c, 9, 42, 80
7, 145200, Note_on_c, 9, 37, 80
7, 145200, Note_on_c, 9, 56, 115
7, 145200, Note_on_c, 9, 54, 115
7, 145300, Note_off_c, 9, 54, 64
7, 145300, Note_off_c, 9, 56, 64
7, 145300, Note_off_c, 9, 37, 64
7, 145300, Note_off_c, 9, 42, 64
7, 145320, Note_on_c, 9, 42, 70
7, 145320, Note_on_c, 9, 37, 50
7, 145320, Note_on_c, 9, 54, 60
7, 145420, Note_off_c, 9, 54, 64
7, 145420, Note_off_c, 9, 37, 64
7, 145420, Note_off_c, 9, 42, 64
7, 145440, Note_on_c, 9, 35, 127
7, 145440, Note_on_c, 9, 38, 127
7, 145440, Note_on_c, 9, 42, 100
7, 145440, Note_on_c, 9, 37, 80
7, 145440, Note_on_c, 9, 54, 115
7, 145440, Note_on_c, 9, 39, 115
7, 145540, Note_off_c, 9, 39, 64
7, 145540, Note_off_c, 9, 54, 64
7, 145540, Note_off_c, 9, 37, 64
7, 145540, Note_off_c, 9, 42, 64
7, 145540, Note_off_c, 9, 38, 64
7, 145540, Note_off_c, 9, 35, 64
7, 145560, Note_on_c, 9, 35, 115
7, 145560, Note_on_c, 9, 42, 70
7, 145560, Note_on_c, 9, 37, 50
7, 145560, Note_on_c, 9, 54, 60
7, 145660, Note_off_c, 9, 54, 64
7, 145660, Note_off_c, 9, 37, 64
7, 145660, Note_off_c, 9, 42, 64
7, 145660, Note_off_c, 9, 35, 64
7, 145680, Note_on_c, 9, 35, 127
7, 145680, Note_on_c, 9, 42, 90
7, 145680, Note_on_c, 9, 37, 80
7, 145680, Note_on_c, 9, 54, 115
7, 145780, Note_off_c, 9, 54, 64
7, 145780, Note_off_c, 9, 37, 64
7, 145780, Note_off_c, 9, 42, 64
7, 145780, Note_off_c, 9, 35, 64
7, 145800, Note_on_c, 9, 35, 115
7, 145800, Note_on_c, 9, 42, 90
7, 145800, Note_on_c, 9, 37, 50
7, 145800, Note_on_c, 9, 54, 60
7, 145900, Note_off_c, 9, 54, 64
7, 145900, Note_off_c, 9, 37, 64
7, 145900, Note_off_c, 9, 42, 64
7, 145900, Note_off_c, 9, 35, 64
7, 145920, Note_on_c, 9, 35, 127
7, 145920, Note_on_c, 9, 42, 100
7, 145920, Note_on_c, 9, 37, 80
7, 145920, Note_on_c, 9, 56, 100
7, 145920, Note_on_c, 9, 54, 115
7, 146020, Note_off_c, 9, 54, 64
7, 146020, Note_off_c, 9, 56, 64
7, 146020, Note_off_c, 9, 37, 64
7, 146020, Note_off_c, 9, 42, 64
7, 146020, Note_off_c, 9, 35, 64
7, 146040, Note_on_c, 9, 42, 70
7, 146040, Note_on_c, 9, 37, 50
7, 146040, Note_on_c, 9, 54, 60
7, 146140, Note_off_c, 9, 54, 64
7, 146140, Note_off_c, 9, 37, 64
7, 146140, Note_off_c, 9, 42, 64
7, 146160, Note_on_c, 9, 42, 80
7, 146160, Note_on_c, 9, 37, 80
7, 146160, Note_on_c, 9, 56, 115
7, 146160, Note_on_c, 9, 54, 115
7, 146260, Note_off_c, 9, 54, 64
7, 146260, Note_off_c, 9, 56, 64
7, 146260, Note_off_c, 9, 37, 64
7, 146260, Note_off_c, 9, 42, 64
7, 146280, Note_on_c, 9, 42, 70
7, 146280, Note_on_c, 9, 37, 50
7, 146280, Note_on_c, 9, 54, 60
7, 146380, Note_off_c, 9, 54, 64
7, 146380, Note_off_c, 9, 37, 64
7, 146380, Note_off_c, 9, 42, 64
7, 146400, Note_on_c, 9, 35, 127
7, 146400, Note_on_c, 9, 38, 127
7, 146400, Note_on_c, 9, 42, 100
7, 146400, Note_on_c, 9, 37, 80
7, 146400, Note_on_c, 9, 54, 115
7, 146400, Note_on_c, 9, 39, 115
7, 146500, Note_off_c, 9, 39, 64
7, 146500, Note_off_c, 9, 54, 64
7, 146500, Note_off_c, 9, 37, 64
7, 146500, Note_off_c, 9, 42, 64
7, 146500, Note_off_c, 9, 38, 64
7, 146500, Note_off_c, 9, 35, 64
7, 146520, Note_on_c, 9, 42, 70
7, 146520, Note_on_c, 9, 37, 50
7, 146520, Note_on_c, 9, 54, 60
7, 146620, Note_off_c, 9, 54, 64
7, 146620, Note_off_c, 9, 37, 64
7, 146620, Note_off_c, 9, 42, 64
7, 146640, Note_on_c, 9, 42, 80
7, 146640, Note_on_c, 9, 37, 80
7, 146640, Note_on_c, 9, 56, 100
7, 146640, Note_on_c, 9, 54, 115
7, 146740, Note_off_c, 9, 54, 64
7, 146740, Note_off_c, 9, 56, 64
7, 146740, Note_off_c, 9, 37, 64
7, 146740, Note_off_c, 9, 42, 64
7, 146760, Note_on_c, 9, 35, 115
7, 146760, Note_on_c, 9, 42, 70
7, 146760, Note_on_c, 9, 37, 50
7, 146760, Note_on_c, 9, 56, 115
7, 146760, Note_on_c, 9, 54, 60
7, 146860, Note_off_c, 9, 54, 64
7, 146860, Note_off_c, 9, 56, 64
7, 146860, Note_off_c, 9, 37, 64
7, 146860, Note_off_c, 9, 42, 64
7, 146860, Note_off_c, 9, 35, 64
7, 146880, Note_on_c, 9, 35, 127
7, 146880, Note_on_c, 9, 42, 100
7, 146880, Note_on_c, 9, 37, 80
7, 146880, Note_on_c, 9, 56, 115
7, 146880, Note_on_c, 9, 54, 115
7, 146980, Note_off_c, 9, 54, 64
7, 146980, Note_off_c, 9, 56, 64
7, 146980, Note_off_c, 9, 37, 64
7, 146980, Note_off_c, 9, 42, 64
7, 146980, Note_off_c, 9, 35, 64
7, 147000, Note_on_c, 9, 42, 70
7, 147000, Note_on_c, 9, 37, 50
7, 147000, Note_on_c, 9, 54, 60
7, 147100, Note_off_c, 9, 54, 64
7, 147100, Note_off_c, 9, 37, 64
7, 147100, Note_off_c, 9, 42, 64
7, 147120, Note_on_c, 9, 42, 80
7, 147120, Note_on_c, 9, 37, 80
7, 147120, Note_on_c, 9, 56, 115
7, 147120, Note_on_c, 9, 54, 115
7, 147220, Note_off_c, 9, 54, 64
7, 147220, Note_off_c, 9, 56, 64
7, 147220, Note_off_c, 9, 37, 64
7, 147220, Note_off_c, 9, 42, 64
7, 147240, Note_on_c, 9, 42, 110
7, 147240, Note_on_c, 9, 37, 50
7, 147240, Note_on_c, 9, 54, 60
7, 147340, Note_off_c, 9, 54, 64
7, 147340, Note_off_c, 9, 37, 64
7, 147340, Note_off_c, 9, 42, 64
7, 147360, Note_on_c, 9, 35, 127
7, 147360, Note_on_c, 9, 38, 127
7, 147360, Note_on_c, 9, 42, 100
7, 147360, Note_on_c, 9, 37, 80
7, 147360, Note_on_c, 9, 54, 115
7, 147360, Note_on_c, 9, 39, 115
7, 147460, Note_off_c, 9, 39, 64
7, 147460, Note_off_c, 9, 54, 64
7, 147460, Note_off_c, 9, 37, 64
7, 147460, Note_off_c, 9, 42, 64
7, 147460, Note_off_c, 9, 38, 64
7, 147460, Note_off_c, 9, 35, 64
7, 147480, Note_on_c, 9, 35, 115
7, 147480, Note_on_c, 9, 42, 70
7, 147480, Note_on_c, 9, 37, 50
7, 147480, Note_on_c, 9, 54, 60
7, 147580, Note_off_c, 9, 54, 64
7, 147580, Note_off_c, 9, 37, 64
7, 147580, Note_off_c, 9, 42, 64
7, 147580, Note_off_c, 9, 35, 64
7, 147600, Note_on_c, 9, 35, 127
7, 147600, Note_on_c, 9, 42, 90
7, 147600, Note_on_c, 9, 37, 80
7, 147600, Note_on_c, 9, 54, 115
7, 147700, Note_off_c, 9, 54, 64
7, 147700, Note_off_c, 9, 37, 64
7, 147700, Note_off_c, 9, 42, 64
7, 147700, Note_off_c, 9, 35, 64
7, 147720, Note_on_c, 9, 35, 115
7, 147720, Note_on_c, 9, 42, 90
7, 147720, Note_on_c, 9, 37, 50
7, 147720, Note_on_c, 9, 54, 60
7, 147820, Note_off_c, 9, 54, 64
7, 147820, Note_off_c, 9, 37, 64
7, 147820, Note_off_c, 9, 42, 64
7, 147820, Note_off_c, 9, 35, 64
7, 147840, Note_on_c, 9, 35, 127
7, 147840, Note_on_c, 9, 42, 100
7, 147840, Note_on_c, 9, 37, 80
7, 147840, Note_on_c, 9, 56, 100
7, 147840, Note_on_c, 9, 54, 115
7, 147940, Note_off_c, 9, 54, 64
7, 147940, Note_off_c, 9, 56, 64
7, 147940, Note_off_c, 9, 37, 64
7, 147940, Note_off_c, 9, 42, 64
7, 147940, Note_off_c, 9, 35, 64
7, 147960, Note_on_c, 9, 42, 70
7, 147960, Note_on_c, 9, 37, 50
7, 147960, Note_on_c, 9, 54, 60
7, 148060, Note_off_c, 9, 54, 64
7, 148060, Note_off_c, 9, 37, 64
7, 148060, Note_off_c, 9, 42, 64
7, 148080, Note_on_c, 9, 42, 80
7, 148080, Note_on_c, 9, 37, 80
7, 148080, Note_on_c, 9, 56, 115
7, 148080, Note_on_c, 9, 54, 115
7, 148180, Note_off_c, 9, 54, 64
7, 148180, Note_off_c, 9, 56, 64
7, 148180, Note_off_c, 9, 37, 64
7, 148180, Note_off_c, 9, 42, 64
7, 148200, Note_on_c, 9, 42, 70
7, 148200, Note_on_c, 9, 37, 50
7, 148200, Note_on_c, 9, 54, 60
7, 148300, Note_off_c, 9, 54, 64
7, 148300, Note_off_c, 9, 37, 64
7, 148300, Note_off_c, 9, 42, 64
7, 148320, Note_on_c, 9, 35, 127
7, 148320, Note_on_c, 9, 38, 127
7, 148320, Note_on_c, 9, 42, 100
7, 148320, Note_on_c, 9, 37, 80
7, 148320, Note_on_c, 9, 54, 115
7, 148320, Note_on_c, 9, 39, 115
7, 148420, Note_off_c, 9, 39, 64
7, 148420, Note_off_c, 9, 54, 64
7, 148420, Note_off_c, 9, 37, 64
7, 148420, Note_off_c, 9, 42, 64
7, 148420, Note_off_c, 9, 38, 64
7, 148420, Note_off_c, 9, 35, 64
7, 148440, Note_on_c, 9, 42, 70
7, 148440, Note_on_c, 9, 37, 50
7, 148440, Note_on_c, 9, 54, 60
7, 148540, Note_off_c, 9, 54, 64
7, 148540, Note_off_c, 9, 37, 64
7, 148540, Note_off_c, 9, 42, 64
7, 148560, Note_on_c, 9, 42, 80
7, 148560, Note_on_c, 9, 37, 80
7, 148560, Note_on_c, 9, 56, 100
7, 148560, Note_on_c, 9, 54, 115
7, 148660, Note_off_c, 9, 54, 64
7, 148660, Note_off_c, 9, 56, 64
7, 148660, Note_off_c, 9, 37, 64
7, 148660, Note_off_c, 9, 42, 64
7, 148680, Note_on_c, 9, 35, 115
7, 148680, Note_on_c, 9, 42, 70
7, 148680, Note_on_c, 9, 37, 50
7, 148680, Note_on_c, 9, 56, 115
7, 148680, Note_on_c, 9, 54, 60
7, 148780, Note_off_c, 9, 54, 64
7, 148780, Note_off_c, 9, 56, 64
7, 148780, Note_off_c, 9, 37, 64
7, 148780, Note_off_c, 9, 42, 64
7, 148780, Note_off_c, 9, 35, 64
7, 148800, Note_on_c, 9, 35, 127
7, 148800, Note_on_c, 9, 42, 100
7, 148800, Note_on_c, 9, 37, 80
7, 148800, Note_on_c, 9, 56, 115
7, 148800, Note_on_c, 9, 54, 115
7, 148900, Note_off_c, 9, 54, 64
7, 148900, Note_off_c, 9, 56, 64
7, 148900, Note_off_c, 9, 37, 64
7, 148900, Note_off_c, 9, 42, 64
7, 148900, Note_off_c, 9, 35, 64
7, 148920, Note_on_c, 9, 42, 70
7, 148920, Note_on_c, 9, 37, 50
7, 148920, Note_on_c, 9, 54, 60
7, 149020, Note_off_c, 9, 54, 64
7, 149020, Note_off_c, 9, 37, 64
7, 149020, Note_off_c, 9, 42, 64
7, 149040, Note_on_c, 9, 42, 80
7, 149040, Note_on_c, 9, 37, 80
7, 149040, Note_on_c, 9, 56, 115
7, 149040, Note_on_c, 9, 54, 115
7, 149140, Note_off_c, 9, 54, 64
7, 149140, Note_off_c, 9, 56, 64
7, 149140, Note_off_c, 9, 37, 64
7, 149140, Note_off_c, 9, 42, 64
7, 149160, Note_on_c, 9, 42, 70
7, 149160, Note_on_c, 9, 37, 50
7, 149160, Note_on_c, 9, 54, 60
7, 149260, Note_off_c, 9, 54, 64
7, 149260, Note_off_c, 9, 37, 64
7, 149260, Note_off_c, 9, 42, 64
7, 149280, Note_on_c, 9, 35, 127
7, 149280, Note_on_c, 9, 38, 127
7, 149280, Note_on_c, 9, 42, 100
7, 149280, Note_on_c, 9, 37, 80
7, 149280, Note_on_c, 9, 54, 115
7, 149280, Note_on_c, 9, 39, 115
7, 149380, Note_off_c, 9, 39, 64
7, 149380, Note_off_c, 9, 54, 64
7, 149380, Note_off_c, 9, 37, 64
7, 149380, Note_off_c, 9, 42, 64
7, 149380, Note_off_c, 9, 38, 64
7, 149380, Note_off_c, 9, 35, 64
7, 149400, Note_on_c, 9, 35, 115
7, 149400, Note_on_c, 9, 42, 70
7, 149400, Note_on_c, 9, 37, 50
7, 149400, Note_on_c, 9, 54, 60
7, 149500, Note_off_c, 9, 54, 64
7, 149500, Note_off_c, 9, 37, 64
7, 149500, Note_off_c, 9, 42, 64
7, 149500, Note_off_c, 9, 35, 64
7, 149520, Note_on_c, 9, 35, 127
7, 149520, Note_on_c, 9, 42, 90
7, 149520, Note_on_c, 9, 37, 80
7, 149520, Note_on_c, 9, 54, 115
7, 149620, Note_off_c, 9, 54, 64
7, 149620, Note_off_c, 9, 37, 64
7, 149620, Note_off_c, 9, 42, 64
7, 149620, Note_off_c, 9, 35, 64
7, 149640, Note_on_c, 9, 35, 115
7, 149640, Note_on_c, 9, 42, 90
7, 149640, Note_on_c, 9, 37, 50
7, 149640, Note_on_c, 9, 54, 60
7, 149740, Note_off_c, 9, 54, 64
7, 149740, Note_off_c, 9, 37, 64
7, 149740, Note_off_c, 9, 42, 64
7, 149740, Note_off_c, 9, 35, 64
7, 149760, Note_on_c, 9, 35, 127
7, 149760, Note_on_c, 9, 42, 100
7, 149760, Note_on_c, 9, 37, 80
7, 149760, Note_on_c, 9, 56, 100
7, 149760, Note_on_c, 9, 54, 115
7, 149860, Note_off_c, 9, 54, 64
7, 149860, Note_off_c, 9, 56, 64
7, 149860, Note_off_c, 9, 37, 64
7, 149860, Note_off_c, 9, 42, 64
7, 149860, Note_off_c, 9, 35, 64
7, 149880, Note_on_c, 9, 42, 70
7, 149880, Note_on_c, 9, 37, 50
7, 149880, Note_on_c, 9, 54, 60
7, 149980, Note_off_c, 9, 54, 64
7, 149980, Note_off_c, 9, 37, 64
7, 149980, Note_off_c, 9, 42, 64
7, 150000, Note_on_c, 9, 42, 80
7, 150000, Note_on_c, 9, 37, 80
7, 150000, Note_on_c, 9, 56, 115
7, 150000, Note_on_c, 9, 54, 115
7, 150100, Note_off_c, 9, 54, 64
7, 150100, Note_off_c, 9, 56, 64
7, 150100, Note_off_c, 9, 37, 64
7, 150100, Note_off_c, 9, 42, 64
7, 150120, Note_on_c, 9, 42, 70
7, 150120, Note_on_c, 9, 37, 50
7, 150120, Note_on_c, 9, 54, 60
7, 150220, Note_off_c, 9, 54, 64
7, 150220, Note_off_c, 9, 37, 64
7, 150220, Note_off_c, 9, 42, 64
7, 150240, Note_on_c, 9, 35, 127
7, 150240, Note_on_c, 9, 38, 127
7, 150240, Note_on_c, 9, 42, 100
7, 150240, Note_on_c, 9, 37, 80
7, 150240, Note_on_c, 9, 54, 115
7, 150240, Note_on_c, 9, 39, 115
7, 150340, Note_off_c, 9, 39, 64
7, 150340, Note_off_c, 9, 54, 64
7, 150340, Note_off_c, 9, 37, 64
7, 150340, Note_off_c, 9, 42, 64
7, 150340, Note_off_c, 9, 38, 64
7, 150340, Note_off_c, 9, 35, 64
7, 150360, Note_on_c, 9, 42, 70
7, 150360, Note_on_c, 9, 37, 50
7, 150360, Note_on_c, 9, 54, 60
7, 150460, Note_off_c, 9, 54, 64
7, 150460, Note_off_c, 9, 37, 64
7, 150460, Note_off_c, 9, 42, 64
7, 150480, Note_on_c, 9, 42, 80
7, 150480, Note_on_c, 9, 37, 80
7, 150480, Note_on_c, 9, 56, 100
7, 150480, Note_on_c, 9, 54, 115
7, 150580, Note_off_c, 9, 54, 64
7, 150580, Note_off_c, 9, 56, 64
7, 150580, Note_off_c, 9, 37, 64
7, 150580, Note_off_c, 9, 42, 64
7, 150600, Note_on_c, 9, 35, 115
7, 150600, Note_on_c, 9, 42, 70
7, 150600, Note_on_c, 9, 37, 50
7, 150600, Note_on_c, 9, 56, 115
7, 150600, Note_on_c, 9, 54, 60
7, 150700, Note_off_c, 9, 54, 64
7, 150700, Note_off_c, 9, 56, 64
7, 150700, Note_off_c, 9, 37, 64
7, 150700, Note_off_c, 9, 42, 64
7, 150700, Note_off_c, 9, 35, 64
7, 150720, Note_on_c, 9, 35, 127
7, 150720, Note_on_c, 9, 42, 100
7, 150720, Note_on_c, 9, 37, 80
7, 150720, Note_on_c, 9, 56, 115
7, 150720, Note_on_c, 9, 54, 115
7, 150820, Note_off_c, 9, 54, 64
7, 150820, Note_off_c, 9, 56, 64
7, 150820, Note_off_c, 9, 37, 64
7, 150820, Note_off_c, 9, 42, 64
7, 150820, Note_off_c, 9, 35, 64
7, 150840, Note_on_c, 9, 42, 70
7, 150840, Note_on_c, 9, 37, 50
7, 150840, Note_on_c, 9, 54, 60
7, 150940, Note_off_c, 9, 54, 64
7, 150940, Note_off_c, 9, 37, 64
7, 150940, Note_off_c, 9, 42, 64
7, 150960, Note_on_c, 9, 42, 80
7, 150960, Note_on_c, 9, 37, 80
7, 150960, Note_on_c, 9, 56, 115
7, 150960, Note_on_c, 9, 54, 115
7, 151060, Note_off_c, 9, 54, 64
7, 151060, Note_off_c, 9, 56, 64
7, 151060, Note_off_c, 9, 37, 64
7, 151060, Note_off_c, 9, 42, 64
7, 151080, Note_on_c, 9, 42, 70
7, 151080, Note_on_c, 9, 37, 50
7, 151080, Note_on_c, 9, 54, 60
7, 151180, Note_off_c, 9, 54, 64
7, 151180, Note_off_c, 9, 37, 64
7, 151180, Note_off_c, 9, 42, 64
7, 151200, Note_on_c, 9, 35, 127
7, 151200, Note_on_c, 9, 38, 127
7, 151200, Note_on_c, 9, 42, 100
7, 151200, Note_on_c, 9, 37, 80
7, 151200, Note_on_c, 9, 54, 115
7, 151200, Note_on_c, 9, 39, 115
7, 151300, Note_off_c, 9, 39, 64
7, 151300, Note_off_c, 9, 54, 64
7, 151300, Note_off_c, 9, 37, 64
7, 151300, Note_off_c, 9, 42, 64
7, 151300, Note_off_c, 9, 38, 64
7, 151300, Note_off_c, 9, 35, 64
7, 151320, Note_on_c, 9, 35, 115
7, 151320, Note_on_c, 9, 42, 70
7, 151320, Note_on_c, 9, 37, 50
7, 151320, Note_on_c, 9, 54, 60
7, 151420, Note_off_c, 9, 54, 64
7, 151420, Note_off_c, 9, 37, 64
7, 151420, Note_off_c, 9, 42, 64
7, 151420, Note_off_c, 9, 35, 64
7, 151440, Note_on_c, 9, 35, 127
7, 151440, Note_on_c, 9, 42, 90
7, 151440, Note_on_c, 9, 37, 80
7, 151440, Note_on_c, 9, 54, 115
7, 151540, Note_off_c, 9, 54, 64
7, 151540, Note_off_c, 9, 37, 64
7, 151540, Note_off_c, 9, 42, 64
7, 151540, Note_off_c, 9, 35, 64
7, 151560, Note_on_c, 9, 35, 115
7, 151560, Note_on_c, 9, 42, 90
7, 151560, Note_on_c, 9, 37, 50
7, 151560, Note_on_c, 9, 54, 60
7, 151660, Note_off_c, 9, 54, 64
7, 151660, Note_off_c, 9, 37, 64
7, 151660, Note_off_c, 9, 42, 64
7, 151660, Note_off_c, 9, 35, 64
7, 151680, Note_on_c, 9, 35, 127
7, 151680, Note_on_c, 9, 42, 100
7, 151680, Note_on_c, 9, 37, 80
7, 151680, Note_on_c, 9, 56, 100
7, 151680, Note_on_c, 9, 54, 115
7, 151780, Note_off_c, 9, 54, 64
7, 151780, Note_off_c, 9, 56, 64
7, 151780, Note_off_c, 9, 37, 64
7, 151780, Note_off_c, 9, 42, 64
7, 151780, Note_off_c, 9, 35, 64
7, 151800, Note_on_c, 9, 42, 70
7, 151800, Note_on_c, 9, 37, 50
7, 151800, Note_on_c, 9, 54, 60
7, 151900, Note_off_c, 9, 54, 64
7, 151900, Note_off_c, 9, 37, 64
7, 151900, Note_off_c, 9, 42, 64
7, 151920, Note_on_c, 9, 42, 80
7, 151920, Note_on_c, 9, 37, 80
7, 151920, Note_on_c, 9, 56, 115
7, 151920, Note_on_c, 9, 54, 115
7, 152020, Note_off_c, 9, 54, 64
7, 152020, Note_off_c, 9, 56, 64
7, 152020, Note_off_c, 9, 37, 64
7, 152020, Note_off_c, 9, 42, 64
7, 152040, Note_on_c, 9, 42, 70
7, 152040, Note_on_c, 9, 37, 50
7, 152040, Note_on_c, 9, 54, 60
7, 152140, Note_off_c, 9, 54, 64
7, 152140, Note_off_c, 9, 37, 64
7, 152140, Note_off_c, 9, 42, 64
7, 152160, Note_on_c, 9, 35, 127
7, 152160, Note_on_c, 9, 38, 127
7, 152160, Note_on_c, 9, 42, 100
7, 152160, Note_on_c, 9, 37, 80
7, 152160, Note_on_c, 9, 54, 115
7, 152160, Note_on_c, 9, 39, 115
7, 152260, Note_off_c, 9, 39, 64
7, 152260, Note_off_c, 9, 54, 64
7, 152260, Note_off_c, 9, 37, 64
7, 152260, Note_off_c, 9, 42, 64
7, 152260, Note_off_c, 9, 38, 64
7, 152260, Note_off_c, 9, 35, 64
7, 152280, Note_on_c, 9, 42, 70
7, 152280, Note_on_c, 9, 37, 50
7, 152280, Note_on_c, 9, 54, 60
7, 152380, Note_off_c, 9, 54, 64
7, 152380, Note_off_c, 9, 37, 64
7, 152380, Note_off_c, 9, 42, 64
7, 152400, Note_on_c, 9, 42, 80
7, 152400, Note_on_c, 9, 37, 80
7, 152400, Note_on_c, 9, 56, 100
7, 152400, Note_on_c, 9, 54, 115
7, 152500, Note_off_c, 9, 54, 64
7, 152500, Note_off_c, 9, 56, 64
7, 152500, Note_off_c, 9, 37, 64
7, 152500, Note_off_c, 9, 42, 64
7, 152520, Note_on_c, 9, 35, 115
7, 152520, Note_on_c, 9, 42, 70
7, 152520, Note_on_c, 9, 37, 50
7, 152520, Note_on_c, 9, 56, 115
7, 152520, Note_on_c, 9, 54, 60
7, 152620, Note_off_c, 9, 54, 64
7, 152620, Note_off_c, 9, 56, 64
7, 152620, Note_off_c, 9, 37, 64
7, 152620, Note_off_c, 9, 42, 64
7, 152620, Note_off_c, 9, 35, 64
7, 152640, Note_on_c, 9, 35, 127
7, 152640, Note_on_c, 9, 42, 100
7, 152640, Note_on_c, 9, 37, 80
7, 152640, Note_on_c, 9, 56, 115
7, 152640, Note_on_c, 9, 54, 115
7, 152740, Note_off_c, 9, 54, 64
7, 152740, Note_off_c, 9, 56, 64
7, 152740, Note_off_c, 9, 37, 64
7, 152740, Note_off_c, 9, 42, 64
7, 152740, Note_off_c, 9, 35, 64
7, 152760, Note_on_c, 9, 42, 70
7, 152760, Note_on_c, 9, 37, 50
7, 152760, Note_on_c, 9, 54, 60
7, 152860, Note_off_c, 9, 54, 64
7, 152860, Note_off_c, 9, 37, 64
7, 152860, Note_off_c, 9, 42, 64
7, 152880, Note_on_c, 9, 42, 80
7, 152880, Note_on_c, 9, 37, 80
7, 152880, Note_on_c, 9, 56, 115
7, 152880, Note_on_c, 9, 54, 115
7, 152980, Note_off_c, 9, 54, 64
7, 152980, Note_off_c, 9, 56, 64
7, 152980, Note_off_c, 9, 37, 64
7, 152980, Note_off_c, 9, 42, 64
7, 153000, Note_on_c, 9, 42, 70
7, 153000, Note_on_c, 9, 37, 50
7, 153000, Note_on_c, 9, 54, 60
7, 153100, Note_off_c, 9, 54, 64
7, 153100, Note_off_c, 9, 37, 64
7, 153100, Note_off_c, 9, 42, 64
7, 153120, Note_on_c, 9, 35, 127
7, 153120, Note_on_c, 9, 38, 127
7, 153120, Note_on_c, 9, 42, 100
7, 153120, Note_on_c, 9, 37, 80
7, 153120, Note_on_c, 9, 54, 115
7, 153120, Note_on_c, 9, 39, 115
7, 153220, Note_off_c, 9, 39, 64
7, 153220, Note_off_c, 9, 54, 64
7, 153220, Note_off_c, 9, 37, 64
7, 153220, Note_off_c, 9, 42, 64
7, 153220, Note_off_c, 9, 38, 64
7, 153220, Note_off_c, 9, 35, 64
7, 153240, Note_on_c, 9, 35, 115
7, 153240, Note_on_c, 9, 42, 70
7, 153240, Note_on_c, 9, 37, 50
7, 153240, Note_on_c, 9, 54, 60
7, 153340, Note_off_c, 9, 54, 64
7, 153340, Note_off_c, 9, 37, 64
7, 153340, Note_off_c, 9, 42, 64
7, 153340, Note_off_c, 9, 35, 64
7, 153360, Note_on_c, 9, 35, 127
7, 153360, Note_on_c, 9, 42, 90
7, 153360, Note_on_c, 9, 37, 80
7, 153360, Note_on_c, 9, 54, 115
7, 153460, Note_off_c, 9, 54, 64
7, 153460, Note_off_c, 9, 37, 64
7, 153460, Note_off_c, 9, 42, 64
7, 153460, Note_off_c, 9, 35, 64
7, 153480, Note_on_c, 9, 35, 115
7, 153480, Note_on_c, 9, 42, 90
7, 153480, Note_on_c, 9, 37, 50
7, 153480, Note_on_c, 9, 54, 60
7, 153580, Note_off_c, 9, 54, 64
7, 153580, Note_off_c, 9, 37, 64
7, 153580, Note_off_c, 9, 42, 64
7, 153580, Note_off_c, 9, 35, 64
7, 153600, Note_on_c, 9, 35, 127
7, 153600, Note_on_c, 9, 38, 127
7, 153600, Note_on_c, 9, 42, 100
7, 153600, Note_on_c, 9, 37, 80
7, 153600, Note_on_c, 9, 56, 100
7, 153600, Note_on_c, 9, 54, 115
7, 153700, Note_off_c, 9, 54, 64
7, 153700, Note_off_c, 9, 56, 64
7, 153700, Note_off_c, 9, 37, 64
7, 153700, Note_off_c, 9, 42, 64
7, 153700, Note_off_c, 9, 38, 64
7, 153700, Note_off_c, 9, 35, 64
7, 153720, Note_on_c, 9, 38, 100
7, 153720, Note_on_c, 9, 42, 70
7, 153720, Note_on_c, 9, 37, 50
7, 153720, Note_on_c, 9, 54, 60
7, 153820, Note_off_c, 9, 54, 64
7, 153820, Note_off_c, 9, 37, 64
7, 153820, Note_off_c, 9, 42, 64
7, 153820, Note_off_c, 9, 38, 64
7, 153840, Note_on_c, 9, 38, 115
7, 153840, Note_on_c, 9, 42, 80
7, 153840, Note_on_c, 9, 37, 80
7, 153840, Note_on_c, 9, 56, 115
7, 153840, Note_on_c, 9, 54, 115
7, 153940, Note_off_c, 9, 54, 64
7, 153940, Note_off_c, 9, 56, 64
7, 153940, Note_off_c, 9, 37, 64
7, 153940, Note_off_c, 9, 42, 64
7, 153940, Note_off_c, 9, 38, 64
7, 153960, Note_on_c, 9, 38, 90
7, 153960, Note_on_c, 9, 42, 70
7, 153960, Note_on_c, 9, 37, 50
7, 153960, Note_on_c, 9, 54, 60
7, 154060, Note_off_c, 9, 54, 64
7, 154060, Note_off_c, 9, 37, 64
7, 154060, Note_off_c, 9, 42, 64
7, 154060, Note_off_c, 9, 38, 64
7, 154080, Note_on_c, 9, 35, 127
7, 154080, Note_on_c, 9, 38, 127
7, 154080, Note_on_c, 9, 42, 100
7, 154080, Note_on_c, 9, 37, 80
7, 154080, Note_on_c, 9, 54, 115
7, 154080, Note_on_c, 9, 39, 115
7, 154180, Note_off_c, 9, 39, 64
7, 154180, Note_off_c, 9, 54, 64
7, 154180, Note_off_c, 9, 37, 64
7, 154180, Note_off_c, 9, 42, 64
7, 154180, Note_off_c, 9, 38, 64
7, 154180, Note_off_c, 9, 35, 64
7, 154200, Note_on_c, 9, 38, 100
7, 154200, Note_on_c, 9, 42, 70
7, 154200, Note_on_c, 9, 37, 50
7, 154200, Note_on_c, 9, 54, 60
7, 154300, Note_off_c, 9, 54, 64
7, 154300, Note_off_c, 9, 37, 64
7, 154300, Note_off_c, 9, 42, 64
7, 154300, Note_off_c, 9, 38, 64
7, 154320, Note_on_c, 9, 38, 115
7, 154320, Note_on_c, 9, 42, 80
7, 154320, Note_on_c, 9, 37, 80
7, 154320, Note_on_c, 9, 56, 100
7, 154320, Note_on_c, 9, 54, 115
7, 154420, Note_off_c, 9, 54, 64
7, 154420, Note_off_c, 9, 56, 64
7, 154420, Note_off_c, 9, 37, 64
7, 154420, Note_off_c, 9, 42, 64
7, 154420, Note_off_c, 9, 38, 64
7, 154440, Note_on_c, 9, 35, 115
7, 154440, Note_on_c, 9, 38, 90
7, 154440, Note_on_c, 9, 42, 70
7, 154440, Note_on_c, 9, 37, 50
7, 154440, Note_on_c, 9, 56, 115
7, 154440, Note_on_c, 9, 54, 60
7, 154540, Note_off_c, 9, 54, 64
7, 154540, Note_off_c, 9, 56, 64
7, 154540, Note_off_c, 9, 37, 64
7, 154540, Note_off_c, 9, 42, 64
7, 154540, Note_off_c, 9, 38, 64
7, 154540, Note_off_c, 9, 35, 64
7, 154560, Note_on_c, 9, 35, 127
7, 154560, Note_on_c, 9, 38, 127
7, 154560, Note_on_c, 9, 42, 100
7, 154560, Note_on_c, 9, 37, 80
7, 154560, Note_on_c, 9, 56, 115
7, 154560, Note_on_c, 9, 54, 115
7, 154660, Note_off_c, 9, 54, 64
7, 154660, Note_off_c, 9, 56, 64
7, 154660, Note_off_c, 9, 37, 64
7, 154660, Note_off_c, 9, 42, 64
7, 154660, Note_off_c, 9, 38, 64
7, 154660, Note_off_c, 9, 35, 64
7, 154680, Note_on_c, 9, 38, 100
7, 154680, Note_on_c, 9, 42, 70
7, 154680, Note_on_c, 9, 37, 50
7, 154680, Note_on_c, 9, 54, 60
7, 154780, Note_off_c, 9, 54, 64
7, 154780, Note_off_c, 9, 37, 64
7, 154780, Note_off_c, 9, 42, 64
7, 154780, Note_off_c, 9, 38, 64
7, 154800, Note_on_c, 9, 38, 115
7, 154800, Note_on_c, 9, 42, 80
7, 154800, Note_on_c, 9, 37, 80
7, 154800, Note_on_c, 9, 56, 115
7, 154800, Note_on_c, 9, 54, 115
7, 154900, Note_off_c, 9, 54, 64
7, 154900, Note_off_c, 9, 56, 64
7, 154900, Note_off_c, 9, 37, 64
7, 154900, Note_off_c, 9, 42, 64
7, 154900, Note_off_c, 9, 38, 64
7, 154920, Note_on_c, 9, 38, 90
7, 154920, Note_on_c, 9, 42, 70
7, 154920, Note_on_c, 9, 37, 50
7, 154920, Note_on_c, 9, 54, 60
7, 155020, Note_off_c, 9, 54, 64
7, 155020, Note_off_c, 9, 37, 64
7, 155020, Note_off_c, 9, 42, 64
7, 155020, Note_off_c, 9, 38, 64
7, 155040, Note_on_c, 9, 35, 127
7, 155040, Note_on_c, 9, 38, 127
7, 155040, Note_on_c, 9, 42, 100
7, 155040, Note_on_c, 9, 37, 80
7, 155040, Note_on_c, 9, 54, 115
7, 155040, Note_on_c, 9, 39, 115
7, 155140, Note_off_c, 9, 39, 64
7, 155140, Note_off_c, 9, 54, 64
7, 155140, Note_off_c, 9, 37, 64
7, 155140, Note_off_c, 9, 42, 64
7, 155140, Note_off_c, 9, 38, 64
7, 155140, Note_off_c, 9, 35, 64
7, 155160, Note_on_c, 9, 35, 115
7, 155160, Note_on_c, 9, 38, 100
7, 155160, Note_on_c, 9, 42, 70
7, 155160, Note_on_c, 9, 37, 50
7, 155160, Note_on_c, 9, 54, 60
7, 155260, Note_off_c, 9, 54, 64
7, 155260, Note_off_c, 9, 37, 64
7, 155260, Note_off_c, 9, 42, 64
7, 155260, Note_off_c, 9, 38, 64
7, 155260, Note_off_c, 9, 35, 64
7, 155280, Note_on_c, 9, 35, 127
7, 155280, Note_on_c, 9, 38, 115
7, 155280, Note_on_c, 9, 42, 90
7, 155280, Note_on_c, 9, 37, 80
7, 155280, Note_on_c, 9, 54, 115
7, 155380, Note_off_c, 9, 54, 64
7, 155380, Note_off_c, 9, 37, 64
7, 155380, Note_off_c, 9, 42, 64
7, 155380, Note_off_c, 9, 38, 64
7, 155380, Note_off_c, 9, 35, 64
7, 155400, Note_on_c, 9, 35, 115
7, 155400, Note_on_c, 9, 38, 90
7, 155400, Note_on_c, 9, 42, 90
7, 155400, Note_on_c, 9, 37, 50
7, 155400, Note_on_c, 9, 54, 60
7, 155500, Note_off_c, 9, 54, 64
7, 155500, Note_off_c, 9, 37, 64
7, 155500, Note_off_c, 9, 42, 64
7, 155500, Note_off_c, 9, 38, 64
7, 155500, Note_off_c, 9, 35, 64
7, 155520, Note_on_c, 9, 35, 127
7, 155520, Note_on_c, 9, 42, 100
7, 155520, Note_on_c, 9, 37, 80
7, 155520, Note_on_c, 9, 56, 100
7, 155520, Note_on_c, 9, 49, 100
7, 155520, Note_on_c, 9, 54, 115
7, 155620, Note_off_c, 9, 54, 64
7, 155620, Note_off_c, 9, 49, 64
7, 155620, Note_off_c, 9, 56, 64
7, 155620, Note_off_c, 9, 37, 64
7, 155620, Note_off_c, 9, 42, 64
7, 155620, Note_off_c, 9, 35, 64
7, 155640, Note_on_c, 9, 42, 70
7, 155640, Note_on_c, 9, 37, 50
7, 155640, Note_on_c, 9, 54, 60
7, 155740, Note_off_c, 9, 54, 64
7, 155740, Note_off_c, 9, 37, 64
7, 155740, Note_off_c, 9, 42, 64
7, 155760, Note_on_c, 9, 42, 80
7, 155760, Note_on_c, 9, 37, 80
7, 155760, Note_on_c, 9, 56, 115
7, 155760, Note_on_c, 9, 54, 115
7, 155860, Note_off_c, 9, 54, 64
7, 155860, Note_off_c, 9, 56, 64
7, 155860, Note_off_c, 9, 37, 64
7, 155860, Note_off_c, 9, 42, 64
7, 155880, Note_on_c, 9, 42, 70
7, 155880, Note_on_c, 9, 37, 50
7, 155880, Note_on_c, 9, 54, 60
7, 155980, Note_off_c, 9, 54, 64
7, 155980, Note_off_c, 9, 37, 64
7, 155980, Note_off_c, 9, 42, 64
7, 156000, Note_on_c, 9, 35, 127
7, 156000, Note_on_c, 9, 38, 127
7, 156000, Note_on_c, 9, 42, 100
7, 156000, Note_on_c, 9, 37, 80
7, 156000, Note_on_c, 9, 54, 115
7, 156000, Note_on_c, 9, 39, 115
7, 156100, Note_off_c, 9, 39, 64
7, 156100, Note_off_c, 9, 54, 64
7, 156100, Note_off_c, 9, 37, 64
7, 156100, Note_off_c, 9, 42, 64
7, 156100, Note_off_c, 9, 38, 64
7, 156100, Note_off_c, 9, 35, 64
7, 156120, Note_on_c, 9, 42, 70
7, 156120, Note_on_c, 9, 37, 50
7, 156120, Note_on_c, 9, 54, 60
7, 156220, Note_off_c, 9, 54, 64
7, 156220, Note_off_c, 9, 37, 64
7, 156220, Note_off_c, 9, 42, 64
7, 156240, Note_on_c, 9, 42, 80
7, 156240, Note_on_c, 9, 37, 80
7, 156240, Note_on_c, 9, 56, 100
7, 156240, Note_on_c, 9, 54, 115
7, 156340, Note_off_c, 9, 54, 64
7, 156340, Note_off_c, 9, 56, 64
7, 156340, Note_off_c, 9, 37, 64
7, 156340, Note_off_c, 9, 42, 64
7, 156360, Note_on_c, 9, 35, 115
7, 156360, Note_on_c, 9, 42, 70
7, 156360, Note_on_c, 9, 37, 50
7, 156360, Note_on_c, 9, 56, 115
7, 156360, Note_on_c, 9, 54, 60
7, 156460, Note_off_c, 9, 54, 64
7, 156460, Note_off_c, 9, 56, 64
7, 156460, Note_off_c, 9, 37, 64
7, 156460, Note_off_c, 9, 42, 64
7, 156460, Note_off_c, 9, 35, 64
7, 156480, Note_on_c, 9, 35, 127
7, 156480, Note_on_c, 9, 42, 100
7, 156480, Note_on_c, 9, 37, 80
7, 156480, Note_on_c, 9, 56, 115
7, 156480, Note_on_c, 9, 54, 115
7, 156580, Note_off_c, 9, 54, 64
7, 156580, Note_off_c, 9, 56, 64
7, 156580, Note_off_c, 9, 37, 64
7, 156580, Note_off_c, 9, 42, 64
7, 156580, Note_off_c, 9, 35, 64
7, 156600, Note_on_c, 9, 42, 70
7, 156600, Note_on_c, 9, 37, 50
7, 156600, Note_on_c, 9, 54, 60
7, 156700, Note_off_c, 9, 54, 64
7, 156700, Note_off_c, 9, 37, 64
7, 156700, Note_off_c, 9, 42, 64
7, 156720, Note_on_c, 9, 42, 80
7, 156720, Note_on_c, 9, 37, 80
7, 156720, Note_on_c, 9, 56, 115
7, 156720, Note_on_c, 9, 54, 115
7, 156820, Note_off_c, 9, 54, 64
7, 156820, Note_off_c, 9, 56, 64
7, 156820, Note_off_c, 9, 37, 64
7, 156820, Note_off_c, 9, 42, 64
7, 156840, Note_on_c, 9, 42, 70
7, 156840, Note_on_c, 9, 37, 50
7, 156840, Note_on_c, 9, 54, 60
7, 156940, Note_off_c, 9, 54, 64
7, 156940, Note_off_c, 9, 37, 64
7, 156940, Note_off_c, 9, 42, 64
7, 156960, Note_on_c, 9, 35, 127
7, 156960, Note_on_c, 9, 38, 127
7, 156960, Note_on_c, 9, 42, 100
7, 156960, Note_on_c, 9, 37, 80
7, 156960, Note_on_c, 9, 54, 115
7, 156960, Note_on_c, 9, 39, 115
7, 157060, Note_off_c, 9, 39, 64
7, 157060, Note_off_c, 9, 54, 64
7, 157060, Note_off_c, 9, 37, 64
7, 157060, Note_off_c, 9, 42, 64
7, 157060, Note_off_c, 9, 38, 64
7, 157060, Note_off_c, 9, 35, 64
7, 157080, Note_on_c, 9, 35, 115
7, 157080, Note_on_c, 9, 42, 70
7, 157080, Note_on_c, 9, 37, 50
7, 157080, Note_on_c, 9, 54, 60
7, 157180, Note_off_c, 9, 54, 64
7, 157180, Note_off_c, 9, 37, 64
7, 157180, Note_off_c, 9, 42, 64
7, 157180, Note_off_c, 9, 35, 64
7, 157200, Note_on_c, 9, 35, 127
7, 157200, Note_on_c, 9, 42, 110
7, 157200, Note_on_c, 9, 37, 80
7, 157200, Note_on_c, 9, 54, 115
7, 157300, Note_off_c, 9, 54, 64
7, 157300, Note_off_c, 9, 37, 64
7, 157300, Note_off_c, 9, 42, 64
7, 157300, Note_off_c, 9, 35, 64
7, 157320, Note_on_c, 9, 35, 115
7, 157320, Note_on_c, 9, 42, 90
7, 157320, Note_on_c, 9, 37, 50
7, 157320, Note_on_c, 9, 54, 60
7, 157420, Note_off_c, 9, 54, 64
7, 157420, Note_off_c, 9, 37, 64
7, 157420, Note_off_c, 9, 42, 64
7, 157420, Note_off_c, 9, 35, 64
7, 157440, Note_on_c, 9, 35, 127
7, 157440, Note_on_c, 9, 42, 100
7, 157440, Note_on_c, 9, 37, 80
7, 157440, Note_on_c, 9, 56, 100
7, 157440, Note_on_c, 9, 54, 115
7, 157540, Note_off_c, 9, 54, 64
7, 157540, Note_off_c, 9, 56, 64
7, 157540, Note_off_c, 9, 37, 64
7, 157540, Note_off_c, 9, 42, 64
7, 157540, Note_off_c, 9, 35, 64
7, 157560, Note_on_c, 9, 42, 70
7, 157560, Note_on_c, 9, 37, 50
7, 157560, Note_on_c, 9, 54, 60
7, 157660, Note_off_c, 9, 54, 64
7, 157660, Note_off_c, 9, 37, 64
7, 157660, Note_off_c, 9, 42, 64
7, 157680, Note_on_c, 9, 42, 80
7, 157680, Note_on_c, 9, 37, 80
7, 157680, Note_on_c, 9, 56, 115
7, 157680, Note_on_c, 9, 54, 115
7, 157780, Note_off_c, 9, 54, 64
7, 157780, Note_off_c, 9, 56, 64
7, 157780, Note_off_c, 9, 37, 64
7, 157780, Note_off_c, 9, 42, 64
7, 157800, Note_on_c, 9, 42, 70
7, 157800, Note_on_c, 9, 37, 50
7, 157800, Note_on_c, 9, 54, 60
7, 157900, Note_off_c, 9, 54, 64
7, 157900, Note_off_c, 9, 37, 64
7, 157900, Note_off_c, 9, 42, 64
7, 157920, Note_on_c, 9, 35, 127
7, 157920, Note_on_c, 9, 38, 127
7, 157920, Note_on_c, 9, 42, 100
7, 157920, Note_on_c, 9, 37, 80
7, 157920, Note_on_c, 9, 54, 115
7, 157920, Note_on_c, 9, 39, 115
7, 158020, Note_off_c, 9, 39, 64
7, 158020, Note_off_c, 9, 54, 64
7, 158020, Note_off_c, 9, 37, 64
7, 158020, Note_off_c, 9, 42, 64
7, 158020, Note_off_c, 9, 38, 64
7, 158020, Note_off_c, 9, 35, 64
7, 158040, Note_on_c, 9, 42, 70
7, 158040, Note_on_c, 9, 37, 50
7, 158040, Note_on_c, 9, 54, 60
7, 158140, Note_off_c, 9, 54, 64
7, 158140, Note_off_c, 9, 37, 64
7, 158140, Note_off_c, 9, 42, 64
7, 158160, Note_on_c, 9, 42, 80
7, 158160, Note_on_c, 9, 37, 80
7, 158160, Note_on_c, 9, 56, 100
7, 158160, Note_on_c, 9, 54, 115
7, 158260, Note_off_c, 9, 54, 64
7, 158260, Note_off_c, 9, 56, 64
7, 158260, Note_off_c, 9, 37, 64
7, 158260, Note_off_c, 9, 42, 64
7, 158280, Note_on_c, 9, 35, 115
7, 158280, Note_on_c, 9, 42, 70
7, 158280, Note_on_c, 9, 37, 50
7, 158280, Note_on_c, 9, 56, 115
7, 158280, Note_on_c, 9, 54, 60
7, 158380, Note_off_c, 9, 54, 64
7, 158380, Note_off_c, 9, 56, 64
7, 158380, Note_off_c, 9, 37, 64
7, 158380, Note_off_c, 9, 42, 64
7, 158380, Note_off_c, 9, 35, 64
7, 158400, Note_on_c, 9, 35, 127
7, 158400, Note_on_c, 9, 42, 100
7, 158400, Note_on_c, 9, 37, 80
7, 158400, Note_on_c, 9, 56, 115
7, 158400, Note_on_c, 9, 54, 115
7, 158500, Note_off_c, 9, 54, 64
7, 158500, Note_off_c, 9, 56, 64
7, 158500, Note_off_c, 9, 37, 64
7, 158500, Note_off_c, 9, 42, 64
7, 158500, Note_off_c, 9, 35, 64
7, 158520, Note_on_c, 9, 42, 70
7, 158520, Note_on_c, 9, 37, 50
7, 158520, Note_on_c, 9, 54, 60
7, 158620, Note_off_c, 9, 54, 64
7, 158620, Note_off_c, 9, 37, 64
7, 158620, Note_off_c, 9, 42, 64
7, 158640, Note_on_c, 9, 42, 80
7, 158640, Note_on_c, 9, 37, 80
7, 158640, Note_on_c, 9, 56, 115
7, 158640, Note_on_c, 9, 54, 115
7, 158740, Note_off_c, 9, 54, 64
7, 158740, Note_off_c, 9, 56, 64
7, 158740, Note_off_c, 9, 37, 64
7, 158740, Note_off_c, 9, 42, 64
7, 158760, Note_on_c, 9, 42, 70
7, 158760, Note_on_c, 9, 37, 50
7, 158760, Note_on_c, 9, 54, 60
7, 158860, Note_off_c, 9, 54, 64
7, 158860, Note_off_c, 9, 37, 64
7, 158860, Note_off_c, 9, 42, 64
7, 158880, Note_on_c, 9, 35, 127
7, 158880, Note_on_c, 9, 38, 127
7, 158880, Note_on_c, 9, 42, 100
7, 158880, Note_on_c, 9, 37, 80
7, 158880, Note_on_c, 9, 54, 115
7, 158880, Note_on_c, 9, 39, 115
7, 158980, Note_off_c, 9, 39, 64
7, 158980, Note_off_c, 9, 54, 64
7, 158980, Note_off_c, 9, 37, 64
7, 158980, Note_off_c, 9, 42, 64
7, 158980, Note_off_c, 9, 38, 64
7, 158980, Note_off_c, 9, 35, 64
7, 159000, Note_on_c, 9, 35, 115
7, 159000, Note_on_c, 9, 42, 70
7, 159000, Note_on_c, 9, 37, 50
7, 159000, Note_on_c, 9, 54, 60
7, 159100, Note_off_c, 9, 54, 64
7, 159100, Note_off_c, 9, 37, 64
7, 159100, Note_off_c, 9, 42, 64
7, 159100, Note_off_c, 9, 35, 64
7, 159120, Note_on_c, 9, 35, 127
7, 159120, Note_on_c, 9, 42, 90
7, 159120, Note_on_c, 9, 37, 80
7, 159120, Note_on_c, 9, 54, 115
7, 159220, Note_off_c, 9, 54, 64
7, 159220, Note_off_c, 9, 37, 64
7, 159220, Note_off_c, 9, 42, 64
7, 159220, Note_off_c, 9, 35, 64
7, 159240, Note_on_c, 9, 35, 115
7, 159240, Note_on_c, 9, 42, 90
7, 159240, Note_on_c, 9, 37, 50
7, 159240, Note_on_c, 9, 54, 60
7, 159340, Note_off_c, 9, 54, 64
7, 159340, Note_off_c, 9, 37, 64
7, 159340, Note_off_c, 9, 42, 64
7, 159340, Note_off_c, 9, 35, 64
7, 159360, Note_on_c, 9, 35, 127
7, 159360, Note_on_c, 9, 42, 100
7, 159360, Note_on_c, 9, 37, 80
7, 159360, Note_on_c, 9, 56, 100
7, 159360, Note_on_c, 9, 54, 115
7, 159460, Note_off_c, 9, 54, 64
7, 159460, Note_off_c, 9, 56, 64
7, 159460, Note_off_c, 9, 37, 64
7, 159460, Note_off_c, 9, 42, 64
7, 159460, Note_off_c, 9, 35, 64
7, 159480, Note_on_c, 9, 42, 70
7, 159480, Note_on_c, 9, 37, 50
7, 159480, Note_on_c, 9, 54, 60
7, 159580, Note_off_c, 9, 54, 64
7, 159580, Note_off_c, 9, 37, 64
7, 159580, Note_off_c, 9, 42, 64
7, 159600, Note_on_c, 9, 42, 80
7, 159600, Note_on_c, 9, 37, 80
7, 159600, Note_on_c, 9, 56, 115
7, 159600, Note_on_c, 9, 54, 115
7, 159700, Note_off_c, 9, 54, 64
7, 159700, Note_off_c, 9, 56, 64
7, 159700, Note_off_c, 9, 37, 64
7, 159700, Note_off_c, 9, 42, 64
7, 159720, Note_on_c, 9, 42, 70
7, 159720, Note_on_c, 9, 37, 50
7, 159720, Note_on_c, 9, 54, 60
7, 159820, Note_off_c, 9, 54, 64
7, 159820, Note_off_c, 9, 37, 64
7, 159820, Note_off_c, 9, 42, 64
7, 159840, Note_on_c, 9, 35, 127
7, 159840, Note_on_c, 9, 38, 127
7, 159840, Note_on_c, 9, 42, 100
7, 159840, Note_on_c, 9, 37, 80
7, 159840, Note_on_c, 9, 54, 115
7, 159840, Note_on_c, 9, 39, 115
7, 159940, Note_off_c, 9, 39, 64
7, 159940, Note_off_c, 9, 54, 64
7, 159940, Note_off_c, 9, 37, 64
7, 159940, Note_off_c, 9, 42, 64
7, 159940, Note_off_c, 9, 38, 64
7, 159940, Note_off_c, 9, 35, 64
7, 159960, Note_on_c, 9, 42, 70
7, 159960, Note_on_c, 9, 37, 50
7, 159960, Note_on_c, 9, 54, 60
7, 160060, Note_off_c, 9, 54, 64
7, 160060, Note_off_c, 9, 37, 64
7, 160060, Note_off_c, 9, 42, 64
7, 160080, Note_on_c, 9, 42, 80
7, 160080, Note_on_c, 9, 37, 80
7, 160080, Note_on_c, 9, 56, 100
7, 160080, Note_on_c, 9, 54, 115
7, 160180, Note_off_c, 9, 54, 64
7, 160180, Note_off_c, 9, 56, 64
7, 160180, Note_off_c, 9, 37, 64
7, 160180, Note_off_c, 9, 42, 64
7, 160200, Note_on_c, 9, 35, 115
7, 160200, Note_on_c, 9, 42, 70
7, 160200, Note_on_c, 9, 37, 50
7, 160200, Note_on_c, 9, 56, 115
7, 160200, Note_on_c, 9, 54, 60
7, 160300, Note_off_c, 9, 54, 64
7, 160300, Note_off_c, 9, 56, 64
7, 160300, Note_off_c, 9, 37, 64
7, 160300, Note_off_c, 9, 42, 64
7, 160300, Note_off_c, 9, 35, 64
7, 160320, Note_on_c, 9, 35, 127
7, 160320, Note_on_c, 9, 42, 100
7, 160320, Note_on_c, 9, 37, 80
7, 160320, Note_on_c, 9, 56, 115
7, 160320, Note_on_c, 9, 54, 115
7, 160420, Note_off_c, 9, 54, 64
7, 160420, Note_off_c, 9, 56, 64
7, 160420, Note_off_c, 9, 37, 64
7, 160420, Note_off_c, 9, 42, 64
7, 160420, Note_off_c, 9, 35, 64
7, 160440, Note_on_c, 9, 42, 70
7, 160440, Note_on_c, 9, 37, 50
7, 160440, Note_on_c, 9, 54, 60
7, 160540, Note_off_c, 9, 54, 64
7, 160540, Note_off_c, 9, 37, 64
7, 160540, Note_off_c, 9, 42, 64
7, 160560, Note_on_c, 9, 42, 80
7, 160560, Note_on_c, 9, 37, 80
7, 160560, Note_on_c, 9, 56, 115
7, 160560, Note_on_c, 9, 54, 115
7, 160660, Note_off_c, 9, 54, 64
7, 160660, Note_off_c, 9, 56, 64
7, 160660, Note_off_c, 9, 37, 64
7, 160660, Note_off_c, 9, 42, 64
7, 160680, Note_on_c, 9, 42, 70
7, 160680, Note_on_c, 9, 37, 50
7, 160680, Note_on_c, 9, 54, 60
7, 160780, Note_off_c, 9, 54, 64
7, 160780, Note_off_c, 9, 37, 64
7, 160780, Note_off_c, 9, 42, 64
7, 160800, Note_on_c, 9, 35, 127
7, 160800, Note_on_c, 9, 38, 127
7, 160800, Note_on_c, 9, 42, 100
7, 160800, Note_on_c, 9, 37, 80
7, 160800, Note_on_c, 9, 54, 115
7, 160800, Note_on_c, 9, 39, 115
7, 160900, Note_off_c, 9, 39, 64
7, 160900, Note_off_c, 9, 54, 64
7, 160900, Note_off_c, 9, 37, 64
7, 160900, Note_off_c, 9, 42, 64
7, 160900, Note_off_c, 9, 38, 64
7, 160900, Note_off_c, 9, 35, 64
7, 160920, Note_on_c, 9, 35, 115
7, 160920, Note_on_c, 9, 42, 70
7, 160920, Note_on_c, 9, 37, 50
7, 160920, Note_on_c, 9, 54, 60
7, 161020, Note_off_c, 9, 54, 64
7, 161020, Note_off_c, 9, 37, 64
7, 161020, Note_off_c, 9, 42, 64
7, 161020, Note_off_c, 9, 35, 64
7, 161040, Note_on_c, 9, 35, 127
7, 161040, Note_on_c, 9, 42, 110
7, 161040, Note_on_c, 9, 37, 80
7, 161040, Note_on_c, 9, 54, 115
7, 161140, Note_off_c, 9, 54, 64
7, 161140, Note_off_c, 9, 37, 64
7, 161140, Note_off_c, 9, 42, 64
7, 161140, Note_off_c, 9, 35, 64
7, 161160, Note_on_c, 9, 35, 115
7, 161160, Note_on_c, 9, 42, 90
7, 161160, Note_on_c, 9, 37, 50
7, 161160, Note_on_c, 9, 54, 60
7, 161260, Note_off_c, 9, 54, 64
7, 161260, Note_off_c, 9, 37, 64
7, 161260, Note_off_c, 9, 42, 64
7, 161260, Note_off_c, 9, 35, 64
7, 161280, Note_on_c, 9, 35, 127
7, 161280, Note_on_c, 9, 38, 127
7, 161280, Note_on_c, 9, 42, 100
7, 161280, Note_on_c, 9, 37, 80
7, 161280, Note_on_c, 9, 56, 100
7, 161280, Note_on_c, 9, 54, 115
7, 161380, Note_off_c, 9, 54, 64
7, 161380, Note_off_c, 9, 56, 64
7, 161380, Note_off_c, 9, 37, 64
7, 161380, Note_off_c, 9, 42, 64
7, 161380, Note_off_c, 9, 38, 64
7, 161380, Note_off_c, 9, 35, 64
7, 161400, Note_on_c, 9, 38, 100
7, 161400, Note_on_c, 9, 42, 70
7, 161400, Note_on_c, 9, 37, 50
7, 161400, Note_on_c, 9, 54, 60
7, 161500, Note_off_c, 9, 54, 64
7, 161500, Note_off_c, 9, 37, 64
7, 161500, Note_off_c, 9, 42, 64
7, 161500, Note_off_c, 9, 38, 64
7, 161520, Note_on_c, 9, 38, 115
7, 161520, Note_on_c, 9, 42, 80
7, 161520, Note_on_c, 9, 37, 80
7, 161520, Note_on_c, 9, 56, 115
7, 161520, Note_on_c, 9, 54, 115
7, 161620, Note_off_c, 9, 54, 64
7, 161620, Note_off_c, 9, 56, 64
7, 161620, Note_off_c, 9, 37, 64
7, 161620, Note_off_c, 9, 42, 64
7, 161620, Note_off_c, 9, 38, 64
7, 161640, Note_on_c, 9, 38, 90
7, 161640, Note_on_c, 9, 42, 70
7, 161640, Note_on_c, 9, 37, 50
7, 161640, Note_on_c, 9, 54, 60
7, 161740, Note_off_c, 9, 54, 64
7, 161740, Note_off_c, 9, 37, 64
7, 161740, Note_off_c, 9, 42, 64
7, 161740, Note_off_c, 9, 38, 64
7, 161760, Note_on_c, 9, 35, 127
7, 161760, Note_on_c, 9, 38, 127
7, 161760, Note_on_c, 9, 42, 100
7, 161760, Note_on_c, 9, 37, 80
7, 161760, Note_on_c, 9, 54, 115
7, 161760, Note_on_c, 9, 39, 115
7, 161860, Note_off_c, 9, 39, 64
7, 161860, Note_off_c, 9, 54, 64
7, 161860, Note_off_c, 9, 37, 64
7, 161860, Note_off_c, 9, 42, 64
7, 161860, Note_off_c, 9, 38, 64
7, 161860, Note_off_c, 9, 35, 64
7, 161880, Note_on_c, 9, 38, 100
7, 161880, Note_on_c, 9, 42, 70
7, 161880, Note_on_c, 9, 37, 50
7, 161880, Note_on_c, 9, 54, 60
7, 161980, Note_off_c, 9, 54, 64
7, 161980, Note_off_c, 9, 37, 64
7, 161980, Note_off_c, 9, 42, 64
7, 161980, Note_off_c, 9, 38, 64
7, 162000, Note_on_c, 9, 38, 115
7, 162000, Note_on_c, 9, 42, 80
7, 162000, Note_on_c, 9, 37, 80
7, 162000, Note_on_c, 9, 56, 100
7, 162000, Note_on_c, 9, 54, 115
7, 162100, Note_off_c, 9, 54, 64
7, 162100, Note_off_c, 9, 56, 64
7, 162100, Note_off_c, 9, 37, 64
7, 162100, Note_off_c, 9, 42, 64
7, 162100, Note_off_c, 9, 38, 64
7, 162120, Note_on_c, 9, 35, 115
7, 162120, Note_on_c, 9, 38, 90
7, 162120, Note_on_c, 9, 42, 70
7, 162120, Note_on_c, 9, 37, 50
7, 162120, Note_on_c, 9, 56, 115
7, 162120, Note_on_c, 9, 54, 60
7, 162220, Note_off_c, 9, 54, 64
7, 162220, Note_off_c, 9, 56, 64
7, 162220, Note_off_c, 9, 37, 64
7, 162220, Note_off_c, 9, 42, 64
7, 162220, Note_off_c, 9, 38, 64
7, 162220, Note_off_c, 9, 35, 64
7, 162240, Note_on_c, 9, 35, 127
7, 162240, Note_on_c, 9, 38, 127
7, 162240, Note_on_c, 9, 42, 100
7, 162240, Note_on_c, 9, 37, 80
7, 162240, Note_on_c, 9, 56, 115
7, 162240, Note_on_c, 9, 54, 115
7, 162340, Note_off_c, 9, 54, 64
7, 162340, Note_off_c, 9, 56, 64
7, 162340, Note_off_c, 9, 37, 64
7, 162340, Note_off_c, 9, 42, 64
7, 162340, Note_off_c, 9, 38, 64
7, 162340, Note_off_c, 9, 35, 64
7, 162360, Note_on_c, 9, 38, 100
7, 162360, Note_on_c, 9, 42, 70
7, 162360, Note_on_c, 9, 37, 50
7, 162360, Note_on_c, 9, 54, 60
7, 162460, Note_off_c, 9, 54, 64
7, 162460, Note_off_c, 9, 37, 64
7, 162460, Note_off_c, 9, 42, 64
7, 162460, Note_off_c, 9, 38, 64
7, 162480, Note_on_c, 9, 38, 115
7, 162480, Note_on_c, 9, 42, 80
7, 162480, Note_on_c, 9, 37, 80
7, 162480, Note_on_c, 9, 56, 115
7, 162480, Note_on_c, 9, 54, 115
7, 162580, Note_off_c, 9, 54, 64
7, 162580, Note_off_c, 9, 56, 64
7, 162580, Note_off_c, 9, 37, 64
7, 162580, Note_off_c, 9, 42, 64
7, 162580, Note_off_c, 9, 38, 64
7, 162600, Note_on_c, 9, 38, 90
7, 162600, Note_on_c, 9, 42, 70
7, 162600, Note_on_c, 9, 37, 50
7, 162600, Note_on_c, 9, 54, 60
7, 162700, Note_off_c, 9, 54, 64
7, 162700, Note_off_c, 9, 37, 64
7, 162700, Note_off_c, 9, 42, 64
7, 162700, Note_off_c, 9, 38, 64
7, 162720, Note_on_c, 9, 35, 127
7, 162720, Note_on_c, 9, 38, 127
7, 162720, Note_on_c, 9, 42, 100
7, 162720, Note_on_c, 9, 37, 80
7, 162720, Note_on_c, 9, 54, 115
7, 162720, Note_on_c, 9, 39, 115
7, 162820, Note_off_c, 9, 39, 64
7, 162820, Note_off_c, 9, 54, 64
7, 162820, Note_off_c, 9, 37, 64
7, 162820, Note_off_c, 9, 42, 64
7, 162820, Note_off_c, 9, 38, 64
7, 162820, Note_off_c, 9, 35, 64
7, 162840, Note_on_c, 9, 35, 115
7, 162840, Note_on_c, 9, 38, 100
7, 162840, Note_on_c, 9, 42, 70
7, 162840, Note_on_c, 9, 37, 50
7, 162840, Note_on_c, 9, 54, 60
7, 162940, Note_off_c, 9, 54, 64
7, 162940, Note_off_c, 9, 37, 64
7, 162940, Note_off_c, 9, 42, 64
7, 162940, Note_off_c, 9, 38, 64
7, 162940, Note_off_c, 9, 35, 64
7, 162960, Note_on_c, 9, 35, 127
7, 162960, Note_on_c, 9, 38, 115
7, 162960, Note_on_c, 9, 42, 90
7, 162960, Note_on_c, 9, 37, 80
7, 162960, Note_on_c, 9, 54, 115
7, 163060, Note_off_c, 9, 54, 64
7, 163060, Note_off_c, 9, 37, 64
7, 163060, Note_off_c, 9, 42, 64
7, 163060, Note_off_c, 9, 38, 64
7, 163060, Note_off_c, 9, 35, 64
7, 163080, Note_on_c, 9, 35, 115
7, 163080, Note_on_c, 9, 38, 90
7, 163080, Note_on_c, 9, 42, 90
7, 163080, Note_on_c, 9, 37, 50
7, 163080, Note_on_c, 9, 54, 60
7, 163180, Note_off_c, 9, 54, 64
7, 163180, Note_off_c, 9, 37, 64
7, 163180, Note_off_c, 9, 42, 64
7, 163180, Note_off_c, 9, 38, 64
7, 163180, Note_off_c, 9, 35, 64
7, 163200, Note_on_c, 9, 35, 127
7, 163200, Note_on_c, 9, 42, 100
7, 163200, Note_on_c, 9, 37, 80
7, 163200, Note_on_c, 9, 56, 100
7, 163200, Note_on_c, 9, 49, 100
7, 163200, Note_on_c, 9, 54, 115
7, 163300, Note_off_c, 9, 54, 64
7, 163300, Note_off_c, 9, 49, 64
7, 163300, Note_off_c, 9, 56, 64
7, 163300, Note_off_c, 9, 37, 64
7, 163300, Note_off_c, 9, 42, 64
7, 163300, Note_off_c, 9, 35, 64
7, 163320, Note_on_c, 9, 42, 70
7, 163320, Note_on_c, 9, 37, 50
7, 163320, Note_on_c, 9, 54, 60
7, 163420, Note_off_c, 9, 54, 64
7, 163420, Note_off_c, 9, 37, 64
7, 163420, Note_off_c, 9, 42, 64
7, 163440, Note_on_c, 9, 42, 80
7, 163440, Note_on_c, 9, 37, 80
7, 163440, Note_on_c, 9, 56, 115
7, 163440, Note_on_c, 9, 54, 115
7, 163540, Note_off_c, 9, 54, 64
7, 163540, Note_off_c, 9, 56, 64
7, 163540, Note_off_c, 9, 37, 64
7, 163540, Note_off_c, 9, 42, 64
7, 163560, Note_on_c, 9, 42, 70
7, 163560, Note_on_c, 9, 37, 50
7, 163560, Note_on_c, 9, 54, 60
7, 163660, Note_off_c, 9, 54, 64
7, 163660, Note_off_c, 9, 37, 64
7, 163660, Note_off_c, 9, 42, 64
7, 163680, Note_on_c, 9, 35, 127
7, 163680, Note_on_c, 9, 38, 127
7, 163680, Note_on_c, 9, 42, 100
7, 163680, Note_on_c, 9, 37, 80
7, 163680, Note_on_c, 9, 54, 115
7, 163680, Note_on_c, 9, 39, 115
7, 163780, Note_off_c, 9, 39, 64
7, 163780, Note_off_c, 9, 54, 64
7, 163780, Note_off_c, 9, 37, 64
7, 163780, Note_off_c, 9, 42, 64
7, 163780, Note_off_c, 9, 38, 64
7, 163780, Note_off_c, 9, 35, 64
7, 163800, Note_on_c, 9, 42, 70
7, 163800, Note_on_c, 9, 37, 50
7, 163800, Note_on_c, 9, 54, 60
7, 163900, Note_off_c, 9, 54, 64
7, 163900, Note_off_c, 9, 37, 64
7, 163900, Note_off_c, 9, 42, 64
7, 163920, Note_on_c, 9, 42, 80
7, 163920, Note_on_c, 9, 37, 80
7, 163920, Note_on_c, 9, 56, 100
7, 163920, Note_on_c, 9, 54, 115
7, 164020, Note_off_c, 9, 54, 64
7, 164020, Note_off_c, 9, 56, 64
7, 164020, Note_off_c, 9, 37, 64
7, 164020, Note_off_c, 9, 42, 64
7, 164040, Note_on_c, 9, 35, 115
7, 164040, Note_on_c, 9, 42, 70
7, 164040, Note_on_c, 9, 37, 50
7, 164040, Note_on_c, 9, 56, 115
7, 164040, Note_on_c, 9, 54, 60
7, 164140, Note_off_c, 9, 54, 64
7, 164140, Note_off_c, 9, 56, 64
7, 164140, Note_off_c, 9, 37, 64
7, 164140, Note_off_c, 9, 42, 64
7, 164140, Note_off_c, 9, 35, 64
7, 164160, Note_on_c, 9, 35, 127
7, 164160, Note_on_c, 9, 42, 100
7, 164160, Note_on_c, 9, 37, 80
7, 164160, Note_on_c, 9, 56, 115
7, 164160, Note_on_c, 9, 54, 115
7, 164260, Note_off_c, 9, 54, 64
7, 164260, Note_off_c, 9, 56, 64
7, 164260, Note_off_c, 9, 37, 64
7, 164260, Note_off_c, 9, 42, 64
7, 164260, Note_off_c, 9, 35, 64
7, 164280, Note_on_c, 9, 42, 70
7, 164280, Note_on_c, 9, 37, 50
7, 164280, Note_on_c, 9, 54, 60
7, 164380, Note_off_c, 9, 54, 64
7, 164380, Note_off_c, 9, 37, 64
7, 164380, Note_off_c, 9, 42, 64
7, 164400, Note_on_c, 9, 42, 80
7, 164400, Note_on_c, 9, 37, 80
7, 164400, Note_on_c, 9, 56, 115
7, 164400, Note_on_c, 9, 54, 115
7, 164500, Note_off_c, 9, 54, 64
7, 164500, Note_off_c, 9, 56, 64
7, 164500, Note_off_c, 9, 37, 64
7, 164500, Note_off_c, 9, 42, 64
7, 164520, Note_on_c, 9, 42, 70
7, 164520, Note_on_c, 9, 37, 50
7, 164520, Note_on_c, 9, 54, 60
7, 164620, Note_off_c, 9, 54, 64
7, 164620, Note_off_c, 9, 37, 64
7, 164620, Note_off_c, 9, 42, 64
7, 164640, Note_on_c, 9, 35, 127
7, 164640, Note_on_c, 9, 38, 127
7, 164640, Note_on_c, 9, 42, 100
7, 164640, Note_on_c, 9, 37, 80
7, 164640, Note_on_c, 9, 54, 115
7, 164640, Note_on_c, 9, 39, 115
7, 164740, Note_off_c, 9, 39, 64
7, 164740, Note_off_c, 9, 54, 64
7, 164740, Note_off_c, 9, 37, 64
7, 164740, Note_off_c, 9, 42, 64
7, 164740, Note_off_c, 9, 38, 64
7, 164740, Note_off_c, 9, 35, 64
7, 164760, Note_on_c, 9, 35, 115
7, 164760, Note_on_c, 9, 42, 70
7, 164760, Note_on_c, 9, 37, 50
7, 164760, Note_on_c, 9, 54, 60
7, 164860, Note_off_c, 9, 54, 64
7, 164860, Note_off_c, 9, 37, 64
7, 164860, Note_off_c, 9, 42, 64
7, 164860, Note_off_c, 9, 35, 64
7, 164880, Note_on_c, 9, 35, 127
7, 164880, Note_on_c, 9, 42, 110
7, 164880, Note_on_c, 9, 37, 80
7, 164880, Note_on_c, 9, 54, 115
7, 164980, Note_off_c, 9, 54, 64
7, 164980, Note_off_c, 9, 37, 64
7, 164980, Note_off_c, 9, 42, 64
7, 164980, Note_off_c, 9, 35, 64
7, 165000, Note_on_c, 9, 35, 115
7, 165000, Note_on_c, 9, 42, 90
7, 165000, Note_on_c, 9, 37, 50
7, 165000, Note_on_c, 9, 54, 60
7, 165100, Note_off_c, 9, 54, 64
7, 165100, Note_off_c, 9, 37, 64
7, 165100, Note_off_c, 9, 42, 64
7, 165100, Note_off_c, 9, 35, 64
7, 165120, Note_on_c, 9, 35, 127
7, 165120, Note_on_c, 9, 42, 100
7, 165120, Note_on_c, 9, 37, 80
7, 165120, Note_on_c, 9, 56, 100
7, 165120, Note_on_c, 9, 54, 115
7, 165220, Note_off_c, 9, 54, 64
7, 165220, Note_off_c, 9, 56, 64
7, 165220, Note_off_c, 9, 37, 64
7, 165220, Note_off_c, 9, 42, 64
7, 165220, Note_off_c, 9, 35, 64
7, 165240, Note_on_c, 9, 42, 70
7, 165240, Note_on_c, 9, 37, 50
7, 165240, Note_on_c, 9, 54, 60
7, 165340, Note_off_c, 9, 54, 64
7, 165340, Note_off_c, 9, 37, 64
7, 165340, Note_off_c, 9, 42, 64
7, 165360, Note_on_c, 9, 42, 80
7, 165360, Note_on_c, 9, 37, 80
7, 165360, Note_on_c, 9, 56, 115
7, 165360, Note_on_c, 9, 54, 115
7, 165460, Note_off_c, 9, 54, 64
7, 165460, Note_off_c, 9, 56, 64
7, 165460, Note_off_c, 9, 37, 64
7, 165460, Note_off_c, 9, 42, 64
7, 165480, Note_on_c, 9, 42, 70
7, 165480, Note_on_c, 9, 37, 50
7, 165480, Note_on_c, 9, 54, 60
7, 165580, Note_off_c, 9, 54, 64
7, 165580, Note_off_c, 9, 37, 64
7, 165580, Note_off_c, 9, 42, 64
7, 165600, Note_on_c, 9, 35, 127
7, 165600, Note_on_c, 9, 38, 127
7, 165600, Note_on_c, 9, 42, 100
7, 165600, Note_on_c, 9, 37, 80
7, 165600, Note_on_c, 9, 54, 115
7, 165600, Note_on_c, 9, 39, 115
7, 165700, Note_off_c, 9, 39, 64
7, 165700, Note_off_c, 9, 54, 64
7, 165700, Note_off_c, 9, 37, 64
7, 165700, Note_off_c, 9, 42, 64
7, 165700, Note_off_c, 9, 38, 64
7, 165700, Note_off_c, 9, 35, 64
7, 165720, Note_on_c, 9, 42, 70
7, 165720, Note_on_c, 9, 37, 50
7, 165720, Note_on_c, 9, 54, 60
7, 165820, Note_off_c, 9, 54, 64
7, 165820, Note_off_c, 9, 37, 64
7, 165820, Note_off_c, 9, 42, 64
7, 165840, Note_on_c, 9, 42, 80
7, 165840, Note_on_c, 9, 37, 80
7, 165840, Note_on_c, 9, 56, 100
7, 165840, Note_on_c, 9, 54, 115
7, 165940, Note_off_c, 9, 54, 64
7, 165940, Note_off_c, 9, 56, 64
7, 165940, Note_off_c, 9, 37, 64
7, 165940, Note_off_c, 9, 42, 64
7, 165960, Note_on_c, 9, 35, 115
7, 165960, Note_on_c, 9, 42, 70
7, 165960, Note_on_c, 9, 37, 50
7, 165960, Note_on_c, 9, 56, 115
7, 165960, Note_on_c, 9, 54, 60
7, 166060, Note_off_c, 9, 54, 64
7, 166060, Note_off_c, 9, 56, 64
7, 166060, Note_off_c, 9, 37, 64
7, 166060, Note_off_c, 9, 42, 64
7, 166060, Note_off_c, 9, 35, 64
7, 166080, Note_on_c, 9, 35, 127
7, 166080, Note_on_c, 9, 42, 100
7, 166080, Note_on_c, 9, 37, 80
7, 166080, Note_on_c, 9, 56, 115
7, 166080, Note_on_c, 9, 54, 115
7, 166180, Note_off_c, 9, 54, 64
7, 166180, Note_off_c, 9, 56, 64
7, 166180, Note_off_c, 9, 37, 64
7, 166180, Note_off_c, 9, 42, 64
7, 166180, Note_off_c, 9, 35, 64
7, 166200, Note_on_c, 9, 42, 70
7, 166200, Note_on_c, 9, 37, 50
7, 166200, Note_on_c, 9, 54, 60
7, 166300, Note_off_c, 9, 54, 64
7, 166300, Note_off_c, 9, 37, 64
7, 166300, Note_off_c, 9, 42, 64
7, 166320, Note_on_c, 9, 42, 80
7, 166320, Note_on_c, 9, 37, 80
7, 166320, Note_on_c, 9, 56, 115
7, 166320, Note_on_c, 9, 54, 115
7, 166420, Note_off_c, 9, 54, 64
7, 166420, Note_off_c, 9, 56, 64
7, 166420, Note_off_c, 9, 37, 64
7, 166420, Note_off_c, 9, 42, 64
7, 166440, Note_on_c, 9, 42, 70
7, 166440, Note_on_c, 9, 37, 50
7, 166440, Note_on_c, 9, 54, 60
7, 166540, Note_off_c, 9, 54, 64
7, 166540, Note_off_c, 9, 37, 64
7, 166540, Note_off_c, 9, 42, 64
7, 166560, Note_on_c, 9, 35, 127
7, 166560, Note_on_c, 9, 38, 127
7, 166560, Note_on_c, 9, 42, 100
7, 166560, Note_on_c, 9, 37, 80
7, 166560, Note_on_c, 9, 54, 115
7, 166560, Note_on_c, 9, 39, 115
7, 166660, Note_off_c, 9, 39, 64
7, 166660, Note_off_c, 9, 54, 64
7, 166660, Note_off_c, 9, 37, 64
7, 166660, Note_off_c, 9, 42, 64
7, 166660, Note_off_c, 9, 38, 64
7, 166660, Note_off_c, 9, 35, 64
7, 166680, Note_on_c, 9, 35, 115
7, 166680, Note_on_c, 9, 42, 70
7, 166680, Note_on_c, 9, 37, 50
7, 166680, Note_on_c, 9, 54, 60
7, 166780, Note_off_c, 9, 54, 64
7, 166780, Note_off_c, 9, 37, 64
7, 166780, Note_off_c, 9, 42, 64
7, 166780, Note_off_c, 9, 35, 64
7, 166800, Note_on_c, 9, 35, 127
7, 166800, Note_on_c, 9, 42, 90
7, 166800, Note_on_c, 9, 37, 80
7, 166800, Note_on_c, 9, 54, 115
7, 166900, Note_off_c, 9, 54, 64
7, 166900, Note_off_c, 9, 37, 64
7, 166900, Note_off_c, 9, 42, 64
7, 166900, Note_off_c, 9, 35, 64
7, 166920, Note_on_c, 9, 35, 115
7, 166920, Note_on_c, 9, 42, 90
7, 166920, Note_on_c, 9, 37, 50
7, 166920, Note_on_c, 9, 54, 60
7, 167020, Note_off_c, 9, 54, 64
7, 167020, Note_off_c, 9, 37, 64
7, 167020, Note_off_c, 9, 42, 64
7, 167020, Note_off_c, 9, 35, 64
7, 167040, Note_on_c, 9, 35, 127
7, 167040, Note_on_c, 9, 42, 100
7, 167040, Note_on_c, 9, 37, 80
7, 167040, Note_on_c, 9, 56, 100
7, 167040, Note_on_c, 9, 54, 115
7, 167140, Note_off_c, 9, 54, 64
7, 167140, Note_off_c, 9, 56, 64
7, 167140, Note_off_c, 9, 37, 64
7, 167140, Note_off_c, 9, 42, 64
7, 167140, Note_off_c, 9, 35, 64
7, 167160, Note_on_c, 9, 42, 70
7, 167160, Note_on_c, 9, 37, 50
7, 167160, Note_on_c, 9, 54, 60
7, 167260, Note_off_c, 9, 54, 64
7, 167260, Note_off_c, 9, 37, 64
7, 167260, Note_off_c, 9, 42, 64
7, 167280, Note_on_c, 9, 42, 80
7, 167280, Note_on_c, 9, 37, 80
7, 167280, Note_on_c, 9, 56, 115
7, 167280, Note_on_c, 9, 54, 115
7, 167380, Note_off_c, 9, 54, 64
7, 167380, Note_off_c, 9, 56, 64
7, 167380, Note_off_c, 9, 37, 64
7, 167380, Note_off_c, 9, 42, 64
7, 167400, Note_on_c, 9, 42, 70
7, 167400, Note_on_c, 9, 37, 50
7, 167400, Note_on_c, 9, 54, 60
7, 167500, Note_off_c, 9, 54, 64
7, 167500, Note_off_c, 9, 37, 64
7, 167500, Note_off_c, 9, 42, 64
7, 167520, Note_on_c, 9, 35, 127
7, 167520, Note_on_c, 9, 38, 127
7, 167520, Note_on_c, 9, 42, 100
7, 167520, Note_on_c, 9, 37, 80
7, 167520, Note_on_c, 9, 54, 115
7, 167520, Note_on_c, 9, 39, 115
7, 167620, Note_off_c, 9, 39, 64
7, 167620, Note_off_c, 9, 54, 64
7, 167620, Note_off_c, 9, 37, 64
7, 167620, Note_off_c, 9, 42, 64
7, 167620, Note_off_c, 9, 38, 64
7, 167620, Note_off_c, 9, 35, 64
7, 167640, Note_on_c, 9, 42, 70
7, 167640, Note_on_c, 9, 37, 50
7, 167640, Note_on_c, 9, 54, 60
7, 167740, Note_off_c, 9, 54, 64
7, 167740, Note_off_c, 9, 37, 64
7, 167740, Note_off_c, 9, 42, 64
7, 167760, Note_on_c, 9, 42, 80
7, 167760, Note_on_c, 9, 37, 80
7, 167760, Note_on_c, 9, 56, 100
7, 167760, Note_on_c, 9, 54, 115
7, 167860, Note_off_c, 9, 54, 64
7, 167860, Note_off_c, 9, 56, 64
7, 167860, Note_off_c, 9, 37, 64
7, 167860, Note_off_c, 9, 42, 64
7, 167880, Note_on_c, 9, 35, 115
7, 167880, Note_on_c, 9, 42, 110
7, 167880, Note_on_c, 9, 37, 50
7, 167880, Note_on_c, 9, 56, 115
7, 167880, Note_on_c, 9, 54, 60
7, 167880, Note_on_c, 9, 39, 115
7, 167880, Note_on_c, 9, 38, 127
7, 167980, Note_off_c, 9, 38, 64
7, 167980, Note_off_c, 9, 39, 64
7, 167980, Note_off_c, 9, 54, 64
7, 167980, Note_off_c, 9, 56, 64
7, 167980, Note_off_c, 9, 37, 64
7, 167980, Note_off_c, 9, 42, 64
7, 167980, Note_off_c, 9, 35, 64
7, 167980, End_track
8, 0, Start_track
8, 0, Title_t, "Rubberband Man"
8, 0, MIDI_port, 0
8, 0, End_track
9, 0, Start_track
9, 0, Title_t, "Words and Music by:"
9, 0, MIDI_port, 0
9, 0, End_track
10, 0, Start_track
10, 0, Title_t, "Thom Bell and Linda Creed"
10, 0, MIDI_port, 0
10, 0, End_track
11, 0, Start_track
11, 0, Title_t, "Sequenced by:"
11, 0, MIDI_port, 0
11, 0, End_track
12, 0, Start_track
12, 0, Title_t, "Gary Rogers"
12, 0, MIDI_port, 0
12, 0, End_track
0, 0, End_of_file
