0, 0, Header, 1, 18, 120
1, 0, Start_track
1, 0, Time_signature, 4, 2, 24, 8
1, 0, Key_signature, 0, "major"
1, 0, Tempo, 500000
1, 0, End_track
2, 0, Start_track
2, 0, MIDI_port, 0
2, 0, Title_t, "emu"
2, 0, Control_c, 0, 0, 56
2, 0, Control_c, 0, 32, 0
2, 0, Program_c, 0, 1
2, 0, Control_c, 0, 7, 127
2, 0, Control_c, 0, 10, 64
2, 480, Note_on_c, 0, 29, 64
2, 531, Note_on_c, 0, 29, 0
2, 680, Note_on_c, 0, 29, 91
2, 717, Note_on_c, 0, 29, 0
2, 960, Note_on_c, 0, 29, 73
2, 1006, Note_on_c, 0, 29, 0
2, 1160, Note_on_c, 0, 29, 73
2, 1200, Note_on_c, 0, 29, 0
2, 1441, Note_on_c, 0, 29, 73
2, 1492, Note_on_c, 0, 29, 0
2, 1562, Note_on_c, 0, 60, 48
2, 1564, Note_on_c, 0, 62, 56
2, 1641, Note_on_c, 0, 29, 73
2, 1674, Note_on_c, 0, 29, 0
2, 1683, Note_on_c, 0, 63, 56
2, 1686, Note_on_c, 0, 62, 0
2, 1686, Note_on_c, 0, 58, 48
2, 1695, Note_on_c, 0, 60, 0
2, 1789, Note_on_c, 0, 58, 0
2, 1797, Note_on_c, 0, 63, 0
2, 1811, Note_on_c, 0, 60, 27
2, 1811, Note_on_c, 0, 62, 25
2, 1865, Note_on_c, 0, 62, 0
2, 1865, Note_on_c, 0, 60, 0
2, 1924, Note_on_c, 0, 29, 73
2, 1974, Note_on_c, 0, 29, 0
2, 2121, Note_on_c, 0, 29, 64
2, 2158, Note_on_c, 0, 29, 0
2, 2394, Note_on_c, 0, 29, 73
2, 2452, Note_on_c, 0, 29, 0
2, 2598, Note_on_c, 0, 29, 73
2, 2632, Note_on_c, 0, 29, 0
2, 2875, Note_on_c, 0, 29, 73
2, 2942, Note_on_c, 0, 29, 0
2, 3079, Note_on_c, 0, 29, 73
2, 3113, Note_on_c, 0, 29, 0
2, 3358, Note_on_c, 0, 29, 73
2, 3407, Note_on_c, 0, 29, 0
2, 3485, Note_on_c, 0, 62, 52
2, 3487, Note_on_c, 0, 60, 48
2, 3560, Note_on_c, 0, 29, 60
2, 3602, Note_on_c, 0, 60, 0
2, 3603, Note_on_c, 0, 29, 0
2, 3604, Note_on_c, 0, 63, 60
2, 3606, Note_on_c, 0, 62, 0
2, 3606, Note_on_c, 0, 58, 52
2, 3720, Note_on_c, 0, 58, 0
2, 3725, Note_on_c, 0, 63, 0
2, 3732, Note_on_c, 0, 62, 32
2, 3738, Note_on_c, 0, 60, 40
2, 3810, Note_on_c, 0, 62, 0
2, 3812, Note_on_c, 0, 60, 0
2, 3843, Note_on_c, 0, 62, 48
2, 3844, Note_on_c, 0, 29, 73
2, 3845, Note_on_c, 0, 60, 48
2, 3864, Note_on_c, 0, 60, 0
2, 3868, Note_on_c, 0, 62, 0
2, 3893, Note_on_c, 0, 29, 0
2, 3966, Note_on_c, 0, 60, 60
2, 3968, Note_on_c, 0, 62, 56
2, 4037, Note_on_c, 0, 29, 91
2, 4077, Note_on_c, 0, 29, 0
2, 4079, Note_on_c, 0, 60, 0
2, 4083, Note_on_c, 0, 63, 52
2, 4085, Note_on_c, 0, 58, 48
2, 4087, Note_on_c, 0, 62, 0
2, 4175, Note_on_c, 0, 58, 0
2, 4195, Note_on_c, 0, 63, 0
2, 4206, Note_on_c, 0, 60, 32
2, 4208, Note_on_c, 0, 62, 40
2, 4260, Note_on_c, 0, 60, 0
2, 4269, Note_on_c, 0, 62, 0
2, 4314, Note_on_c, 0, 29, 64
2, 4378, Note_on_c, 0, 29, 0
2, 4516, Note_on_c, 0, 29, 56
2, 4550, Note_on_c, 0, 29, 0
2, 4801, Note_on_c, 0, 29, 64
2, 4853, Note_on_c, 0, 29, 0
2, 4999, Note_on_c, 0, 29, 73
2, 5040, Note_on_c, 0, 29, 0
2, 5232, Note_on_c, 0, 73, 82
2, 5236, Note_on_c, 0, 65, 91
2, 5236, Note_on_c, 0, 74, 73
2, 5249, Note_on_c, 0, 73, 0
2, 5270, Note_on_c, 0, 65, 0
2, 5279, Note_on_c, 0, 29, 64
2, 5285, Note_on_c, 0, 72, 48
2, 5285, Note_on_c, 0, 63, 52
2, 5287, Note_on_c, 0, 69, 28
2, 5291, Note_on_c, 0, 74, 0
2, 5310, Note_on_c, 0, 69, 0
2, 5314, Note_on_c, 0, 72, 0
2, 5329, Note_on_c, 0, 63, 0
2, 5337, Note_on_c, 0, 29, 0
2, 5474, Note_on_c, 0, 29, 60
2, 5506, Note_on_c, 0, 29, 0
2, 5758, Note_on_c, 0, 29, 56
2, 5761, Note_on_c, 0, 63, 82
2, 5761, Note_on_c, 0, 65, 64
2, 5786, Note_on_c, 0, 63, 0
2, 5790, Note_on_c, 0, 65, 0
2, 5822, Note_on_c, 0, 29, 0
2, 5957, Note_on_c, 0, 29, 56
2, 5959, Note_on_c, 0, 65, 82
2, 5959, Note_on_c, 0, 63, 91
2, 5986, Note_on_c, 0, 63, 0
2, 5986, Note_on_c, 0, 65, 0
2, 5988, Note_on_c, 0, 29, 0
2, 6195, Note_on_c, 0, 63, 82
2, 6195, Note_on_c, 0, 65, 82
2, 6224, Note_on_c, 0, 63, 0
2, 6229, Note_on_c, 0, 65, 0
2, 6240, Note_on_c, 0, 29, 64
2, 6292, Note_on_c, 0, 29, 0
2, 6316, Note_on_c, 0, 63, 82
2, 6318, Note_on_c, 0, 65, 73
2, 6340, Note_on_c, 0, 65, 0
2, 6340, Note_on_c, 0, 63, 0
2, 6364, Note_on_c, 0, 60, 52
2, 6364, Note_on_c, 0, 62, 52
2, 6438, Note_on_c, 0, 29, 82
2, 6478, Note_on_c, 0, 29, 0
2, 6483, Note_on_c, 0, 62, 0
2, 6485, Note_on_c, 0, 63, 56
2, 6485, Note_on_c, 0, 58, 52
2, 6487, Note_on_c, 0, 60, 0
2, 6588, Note_on_c, 0, 58, 0
2, 6600, Note_on_c, 0, 63, 0
2, 6608, Note_on_c, 0, 62, 31
2, 6608, Note_on_c, 0, 60, 40
2, 6662, Note_on_c, 0, 60, 0
2, 6666, Note_on_c, 0, 62, 0
2, 6720, Note_on_c, 0, 29, 73
2, 6720, Note_on_c, 0, 63, 48
2, 6720, Note_on_c, 0, 65, 56
2, 6777, Note_on_c, 0, 29, 0
2, 6786, Note_on_c, 0, 63, 0
2, 6794, Note_on_c, 0, 65, 0
2, 6808, Note_on_c, 0, 65, 73
2, 6808, Note_on_c, 0, 63, 64
2, 6834, Note_on_c, 0, 63, 0
2, 6839, Note_on_c, 0, 65, 0
2, 6916, Note_on_c, 0, 29, 60
2, 6962, Note_on_c, 0, 29, 0
2, 7206, Note_on_c, 0, 29, 73
2, 7265, Note_on_c, 0, 29, 0
2, 7328, Note_on_c, 0, 60, 52
2, 7330, Note_on_c, 0, 62, 52
2, 7398, Note_on_c, 0, 29, 64
2, 7404, Note_on_c, 0, 65, 73
2, 7404, Note_on_c, 0, 63, 82
2, 7426, Note_on_c, 0, 63, 0
2, 7430, Note_on_c, 0, 65, 0
2, 7435, Note_on_c, 0, 29, 0
2, 7446, Note_on_c, 0, 62, 0
2, 7451, Note_on_c, 0, 63, 48
2, 7453, Note_on_c, 0, 60, 0
2, 7453, Note_on_c, 0, 58, 40
2, 7552, Note_on_c, 0, 58, 0
2, 7565, Note_on_c, 0, 63, 0
2, 7572, Note_on_c, 0, 62, 40
2, 7574, Note_on_c, 0, 60, 36
2, 7630, Note_on_c, 0, 60, 0
2, 7632, Note_on_c, 0, 62, 0
2, 7685, Note_on_c, 0, 29, 73
2, 7686, Note_on_c, 0, 62, 52
2, 7688, Note_on_c, 0, 60, 44
2, 7711, Note_on_c, 0, 62, 0
2, 7713, Note_on_c, 0, 60, 0
2, 7730, Note_on_c, 0, 29, 0
2, 7805, Note_on_c, 0, 60, 44
2, 7805, Note_on_c, 0, 62, 52
2, 7876, Note_on_c, 0, 29, 73
2, 7885, Note_on_c, 0, 65, 82
2, 7885, Note_on_c, 0, 63, 73
2, 7892, Note_on_c, 0, 60, 0
2, 7909, Note_on_c, 0, 63, 0
2, 7913, Note_on_c, 0, 65, 0
2, 7916, Note_on_c, 0, 29, 0
2, 7920, Note_on_c, 0, 63, 44
2, 7926, Note_on_c, 0, 62, 0
2, 7926, Note_on_c, 0, 58, 36
2, 7996, Note_on_c, 0, 58, 0
2, 8032, Note_on_c, 0, 63, 0
2, 8045, Note_on_c, 0, 62, 44
2, 8045, Note_on_c, 0, 60, 44
2, 8077, Note_on_c, 0, 62, 0
2, 8088, Note_on_c, 0, 60, 0
2, 8124, Note_on_c, 0, 65, 91
2, 8125, Note_on_c, 0, 63, 91
2, 8145, Note_on_c, 0, 63, 0
2, 8150, Note_on_c, 0, 65, 0
2, 8157, Note_on_c, 0, 29, 73
2, 8209, Note_on_c, 0, 29, 0
2, 8287, Note_on_c, 0, 60, 36
2, 8289, Note_on_c, 0, 62, 31
2, 8359, Note_on_c, 0, 60, 0
2, 8359, Note_on_c, 0, 29, 64
2, 8361, Note_on_c, 0, 63, 73
2, 8361, Note_on_c, 0, 65, 73
2, 8370, Note_on_c, 0, 62, 0
2, 8387, Note_on_c, 0, 63, 0
2, 8388, Note_on_c, 0, 65, 0
2, 8393, Note_on_c, 0, 29, 0
2, 8397, Note_on_c, 0, 63, 44
2, 8400, Note_on_c, 0, 58, 32
2, 8490, Note_on_c, 0, 58, 0
2, 8514, Note_on_c, 0, 63, 0
2, 8523, Note_on_c, 0, 62, 32
2, 8523, Note_on_c, 0, 60, 40
2, 8577, Note_on_c, 0, 60, 0
2, 8588, Note_on_c, 0, 62, 0
2, 8594, Note_on_c, 0, 65, 91
2, 8594, Note_on_c, 0, 63, 82
2, 8606, Note_on_c, 0, 58, 27
2, 8614, Note_on_c, 0, 63, 0
2, 8616, Note_on_c, 0, 65, 0
2, 8626, Note_on_c, 0, 58, 0
2, 8643, Note_on_c, 0, 29, 64
2, 8646, Note_on_c, 0, 62, 29
2, 8650, Note_on_c, 0, 60, 24
2, 8684, Note_on_c, 0, 60, 0
2, 8684, Note_on_c, 0, 62, 0
2, 8695, Note_on_c, 0, 29, 0
2, 8761, Note_on_c, 0, 60, 48
2, 8763, Note_on_c, 0, 62, 56
2, 8830, Note_on_c, 0, 60, 0
2, 8836, Note_on_c, 0, 29, 82
2, 8880, Note_on_c, 0, 62, 0
2, 8886, Note_on_c, 0, 29, 0
2, 8886, Note_on_c, 0, 63, 28
2, 8888, Note_on_c, 0, 58, 28
2, 8964, Note_on_c, 0, 58, 0
2, 8991, Note_on_c, 0, 63, 0
2, 9086, Note_on_c, 0, 67, 91
2, 9088, Note_on_c, 0, 63, 73
2, 9088, Note_on_c, 0, 58, 64
2, 9090, Note_on_c, 0, 60, 82
2, 9092, Note_on_c, 0, 29, 73
2, 9102, Control_c, 0, 3, 2
2, 9103, Control_c, 0, 3, 3
2, 9107, Control_c, 0, 3, 4
2, 9116, Control_c, 0, 3, 3
2, 9118, Control_c, 0, 3, 2
2, 9233, Note_on_c, 0, 29, 0
2, 9311, Control_c, 0, 3, 1
2, 9320, Note_on_c, 0, 29, 64
2, 9338, Note_on_c, 0, 29, 0
2, 9599, Note_on_c, 0, 29, 52
2, 9640, Note_on_c, 0, 29, 0
2, 9793, Note_on_c, 0, 29, 73
2, 9812, Note_on_c, 0, 29, 0
2, 10074, Note_on_c, 0, 29, 31
2, 10191, Note_on_c, 0, 58, 0
2, 10193, Note_on_c, 0, 67, 0
2, 10195, Note_on_c, 0, 60, 0
2, 10197, Note_on_c, 0, 63, 0
2, 10274, Note_on_c, 0, 41, 25
2, 10302, Note_on_c, 0, 41, 0
2, 10321, Note_on_c, 0, 67, 91
2, 10322, Note_on_c, 0, 63, 73
2, 10324, Note_on_c, 0, 60, 73
2, 10324, Note_on_c, 0, 58, 60
2, 10383, Note_on_c, 0, 60, 0
2, 10385, Note_on_c, 0, 58, 0
2, 10391, Note_on_c, 0, 67, 0
2, 10405, Note_on_c, 0, 41, 32
2, 10407, Note_on_c, 0, 63, 0
2, 10416, Note_on_c, 0, 41, 0
2, 10440, Note_on_c, 0, 69, 52
2, 10440, Note_on_c, 0, 65, 56
2, 10443, Note_on_c, 0, 60, 44
2, 10445, Note_on_c, 0, 62, 36
2, 10503, Note_on_c, 0, 69, 0
2, 10507, Note_on_c, 0, 62, 0
2, 10514, Note_on_c, 0, 65, 0
2, 10519, Note_on_c, 0, 60, 0
2, 10536, Note_on_c, 0, 41, 16
2, 10570, Note_on_c, 0, 70, 40
2, 10572, Note_on_c, 0, 62, 36
2, 10575, Note_on_c, 0, 63, 29
2, 10641, Note_on_c, 0, 62, 0
2, 10641, Note_on_c, 0, 70, 0
2, 10679, Note_on_c, 0, 63, 0
2, 10686, Note_on_c, 0, 69, 56
2, 10688, Note_on_c, 0, 60, 56
2, 10690, Note_on_c, 0, 65, 60
2, 10702, Note_on_c, 0, 65, 0
2, 10706, Note_on_c, 0, 69, 0
2, 10706, Note_on_c, 0, 60, 0
2, 10796, Note_on_c, 0, 67, 36
2, 10800, Note_on_c, 0, 29, 0
2, 10800, Note_on_c, 0, 60, 32
2, 10800, Note_on_c, 0, 63, 52
2, 10803, Note_on_c, 0, 41, 0
2, 10803, Note_on_c, 0, 58, 29
2, 10877, Note_on_c, 0, 58, 0
2, 10877, Note_on_c, 0, 67, 0
2, 10878, Note_on_c, 0, 63, 0
2, 10880, Note_on_c, 0, 60, 0
2, 10991, Note_on_c, 0, 29, 56
2, 10995, Note_on_c, 0, 63, 82
2, 10995, Note_on_c, 0, 58, 82
2, 10997, Note_on_c, 0, 60, 73
2, 10997, Note_on_c, 0, 67, 91
2, 11136, Note_on_c, 0, 29, 0
2, 11235, Note_on_c, 0, 29, 64
2, 11238, Note_on_c, 0, 41, 64
2, 11258, Note_on_c, 0, 29, 0
2, 11260, Note_on_c, 0, 41, 0
2, 11518, Note_on_c, 0, 29, 44
2, 11520, Note_on_c, 0, 41, 31
2, 11557, Note_on_c, 0, 41, 0
2, 11559, Note_on_c, 0, 29, 0
2, 11711, Note_on_c, 0, 29, 60
2, 11711, Note_on_c, 0, 41, 52
2, 11736, Note_on_c, 0, 41, 0
2, 11738, Note_on_c, 0, 29, 0
2, 11999, Note_on_c, 0, 67, 0
2, 12001, Note_on_c, 0, 63, 0
2, 12001, Note_on_c, 0, 60, 0
2, 12003, Note_on_c, 0, 58, 0
2, 12003, Note_on_c, 0, 29, 52
2, 12111, Note_on_c, 0, 29, 0
2, 12132, Note_on_c, 0, 58, 23
2, 12134, Note_on_c, 0, 63, 30
2, 12136, Note_on_c, 0, 67, 24
2, 12136, Note_on_c, 0, 60, 36
2, 12194, Note_on_c, 0, 29, 64
2, 12211, Note_on_c, 0, 29, 0
2, 12211, Note_on_c, 0, 67, 0
2, 12211, Note_on_c, 0, 58, 0
2, 12213, Note_on_c, 0, 63, 0
2, 12215, Note_on_c, 0, 60, 0
2, 12236, Note_on_c, 0, 60, 31
2, 12238, Note_on_c, 0, 63, 32
2, 12238, Note_on_c, 0, 58, 31
2, 12240, Note_on_c, 0, 67, 31
2, 12310, Note_on_c, 0, 60, 0
2, 12312, Note_on_c, 0, 67, 0
2, 12312, Note_on_c, 0, 58, 0
2, 12320, Note_on_c, 0, 41, 48
2, 12320, Note_on_c, 0, 29, 44
2, 12327, Note_on_c, 0, 63, 0
2, 12352, Note_on_c, 0, 29, 0
2, 12358, Note_on_c, 0, 65, 64
2, 12358, Note_on_c, 0, 60, 56
2, 12360, Note_on_c, 0, 69, 56
2, 12361, Note_on_c, 0, 62, 40
2, 12414, Note_on_c, 0, 62, 0
2, 12418, Note_on_c, 0, 69, 0
2, 12420, Note_on_c, 0, 65, 0
2, 12430, Note_on_c, 0, 60, 0
2, 12439, Note_on_c, 0, 29, 52
2, 12463, Note_on_c, 0, 29, 0
2, 12479, Note_on_c, 0, 70, 48
2, 12481, Note_on_c, 0, 63, 40
2, 12483, Note_on_c, 0, 62, 60
2, 12487, Note_on_c, 0, 67, 52
2, 12553, Note_on_c, 0, 70, 0
2, 12555, Note_on_c, 0, 62, 0
2, 12557, Note_on_c, 0, 29, 48
2, 12561, Note_on_c, 0, 63, 0
2, 12563, Note_on_c, 0, 67, 0
2, 12600, Note_on_c, 0, 69, 56
2, 12602, Note_on_c, 0, 29, 0
2, 12602, Note_on_c, 0, 60, 52
2, 12602, Note_on_c, 0, 65, 64
2, 12642, Note_on_c, 0, 69, 0
2, 12653, Note_on_c, 0, 65, 0
2, 12659, Note_on_c, 0, 60, 0
2, 12670, Note_on_c, 0, 29, 44
2, 12695, Note_on_c, 0, 29, 0
2, 12715, Note_on_c, 0, 67, 52
2, 12719, Note_on_c, 0, 58, 52
2, 12719, Note_on_c, 0, 63, 52
2, 12778, Note_on_c, 0, 67, 0
2, 12783, Note_on_c, 0, 29, 56
2, 12785, Note_on_c, 0, 63, 0
2, 12785, Note_on_c, 0, 58, 0
2, 12802, Note_on_c, 0, 29, 0
2, 12864, Note_on_c, 0, 41, 0
2, 12912, Note_on_c, 0, 70, 73
2, 12914, Note_on_c, 0, 63, 73
2, 12914, Note_on_c, 0, 67, 82
2, 12914, Note_on_c, 0, 56, 60
2, 12914, Note_on_c, 0, 60, 82
2, 13310, Note_on_c, 0, 67, 0
2, 13312, Note_on_c, 0, 70, 0
2, 13312, Note_on_c, 0, 63, 0
2, 13314, Note_on_c, 0, 56, 0
2, 13316, Note_on_c, 0, 60, 0
2, 13399, Note_on_c, 0, 70, 73
2, 13401, Note_on_c, 0, 63, 64
2, 13401, Note_on_c, 0, 67, 91
2, 13401, Note_on_c, 0, 60, 73
2, 13401, Note_on_c, 0, 34, 60
2, 13403, Note_on_c, 0, 56, 64
2, 13752, Note_on_c, 0, 55, 91
2, 13781, Note_on_c, 0, 67, 0
2, 13783, Note_on_c, 0, 63, 0
2, 13785, Note_on_c, 0, 70, 0
2, 13787, Note_on_c, 0, 34, 0
2, 13787, Note_on_c, 0, 60, 0
2, 13788, Note_on_c, 0, 56, 0
2, 13794, Note_on_c, 0, 55, 0
2, 13806, Note_on_c, 0, 56, 32
2, 13843, Note_on_c, 0, 56, 0
2, 13877, Note_on_c, 0, 57, 56
2, 13879, Note_on_c, 0, 67, 73
2, 13881, Note_on_c, 0, 63, 60
2, 13881, Note_on_c, 0, 60, 52
2, 14005, Note_on_c, 0, 67, 0
2, 14012, Note_on_c, 0, 60, 0
2, 14012, Note_on_c, 0, 63, 0
2, 14014, Note_on_c, 0, 57, 0
2, 14111, Note_on_c, 0, 58, 60
2, 14273, Note_on_c, 0, 58, 0
2, 14351, Note_on_c, 0, 65, 73
2, 14351, Note_on_c, 0, 57, 60
2, 14352, Note_on_c, 0, 62, 60
2, 14484, Note_on_c, 0, 65, 0
2, 14486, Note_on_c, 0, 62, 0
2, 14490, Note_on_c, 0, 57, 0
2, 14596, Note_on_c, 0, 64, 64
2, 14596, Note_on_c, 0, 60, 64
2, 14598, Note_on_c, 0, 55, 73
2, 14706, Note_on_c, 0, 55, 0
2, 14710, Note_on_c, 0, 60, 0
2, 14710, Note_on_c, 0, 64, 0
2, 14836, Note_on_c, 0, 62, 82
2, 14838, Note_on_c, 0, 70, 82
2, 14838, Note_on_c, 0, 65, 82
2, 14840, Note_on_c, 0, 60, 91
2, 15217, Note_on_c, 0, 70, 0
2, 15218, Note_on_c, 0, 60, 0
2, 15219, Note_on_c, 0, 65, 0
2, 15223, Note_on_c, 0, 62, 0
2, 15308, Note_on_c, 0, 70, 64
2, 15310, Note_on_c, 0, 62, 64
2, 15312, Note_on_c, 0, 65, 73
2, 15312, Note_on_c, 0, 31, 82
2, 15312, Note_on_c, 0, 43, 64
2, 15314, Note_on_c, 0, 60, 60
2, 15417, Note_on_c, 0, 70, 0
2, 15431, Note_on_c, 0, 60, 0
2, 15471, Note_on_c, 0, 33, 64
2, 15474, Note_on_c, 0, 69, 60
2, 15476, Note_on_c, 0, 60, 52
2, 15483, Note_on_c, 0, 31, 0
2, 15483, Note_on_c, 0, 43, 0
2, 15485, Note_on_c, 0, 62, 0
2, 15504, Note_on_c, 0, 69, 0
2, 15509, Note_on_c, 0, 65, 0
2, 15513, Note_on_c, 0, 60, 0
2, 15560, Note_on_c, 0, 33, 0
2, 15594, Note_on_c, 0, 67, 82
2, 15596, Note_on_c, 0, 63, 73
2, 15596, Note_on_c, 0, 34, 82
2, 15596, Note_on_c, 0, 58, 60
2, 15657, Note_on_c, 0, 58, 0
2, 15657, Note_on_c, 0, 67, 0
2, 15663, Note_on_c, 0, 63, 0
2, 15696, Note_on_c, 0, 34, 0
2, 15713, Note_on_c, 0, 36, 56
2, 15722, Note_on_c, 0, 36, 0
2, 16276, Note_on_c, 0, 41, 64
2, 16316, Note_on_c, 0, 29, 64
2, 16411, Note_on_c, 0, 29, 0
2, 16417, Note_on_c, 0, 41, 0
2, 16520, Note_on_c, 0, 29, 64
2, 16522, Note_on_c, 0, 41, 56
2, 16540, Note_on_c, 0, 41, 0
2, 16540, Note_on_c, 0, 29, 0
2, 16766, Note_on_c, 0, 41, 16
2, 16776, Note_on_c, 0, 41, 0
2, 16797, Note_on_c, 0, 29, 73
2, 16797, Note_on_c, 0, 41, 60
2, 16906, Note_on_c, 0, 41, 0
2, 16906, Note_on_c, 0, 29, 0
2, 16999, Note_on_c, 0, 29, 64
2, 16999, Note_on_c, 0, 41, 60
2, 17027, Note_on_c, 0, 41, 0
2, 17030, Note_on_c, 0, 29, 0
2, 17235, Note_on_c, 0, 38, 73
2, 17282, Note_on_c, 0, 36, 52
2, 17286, Note_on_c, 0, 38, 0
2, 17351, Note_on_c, 0, 38, 48
2, 17354, Note_on_c, 0, 36, 0
2, 17378, Note_on_c, 0, 38, 0
2, 17398, Note_on_c, 0, 39, 82
2, 17463, Note_on_c, 0, 39, 0
2, 17468, Note_on_c, 0, 46, 48
2, 17494, Note_on_c, 0, 46, 0
2, 17517, Note_on_c, 0, 44, 30
2, 17521, Note_on_c, 0, 45, 20
2, 17539, Note_on_c, 0, 44, 0
2, 17591, Note_on_c, 0, 41, 64
2, 17593, Note_on_c, 0, 45, 0
2, 17629, Note_on_c, 0, 41, 0
2, 17726, Note_on_c, 0, 67, 91
2, 17728, Note_on_c, 0, 63, 73
2, 17728, Note_on_c, 0, 58, 64
2, 17730, Note_on_c, 0, 60, 82
2, 17732, Note_on_c, 0, 29, 73
2, 17742, Control_c, 0, 3, 2
2, 17743, Control_c, 0, 3, 3
2, 17747, Control_c, 0, 3, 4
2, 17756, Control_c, 0, 3, 3
2, 17758, Control_c, 0, 3, 2
2, 17873, Note_on_c, 0, 29, 0
2, 17951, Control_c, 0, 3, 1
2, 17960, Note_on_c, 0, 29, 64
2, 17978, Note_on_c, 0, 29, 0
2, 18239, Note_on_c, 0, 29, 52
2, 18280, Note_on_c, 0, 29, 0
2, 18433, Note_on_c, 0, 29, 73
2, 18452, Note_on_c, 0, 29, 0
2, 18714, Note_on_c, 0, 29, 31
2, 18831, Note_on_c, 0, 58, 0
2, 18833, Note_on_c, 0, 67, 0
2, 18835, Note_on_c, 0, 60, 0
2, 18837, Note_on_c, 0, 63, 0
2, 18914, Note_on_c, 0, 41, 25
2, 18942, Note_on_c, 0, 41, 0
2, 18961, Note_on_c, 0, 67, 91
2, 18962, Note_on_c, 0, 63, 73
2, 18964, Note_on_c, 0, 60, 73
2, 18964, Note_on_c, 0, 58, 60
2, 19023, Note_on_c, 0, 60, 0
2, 19025, Note_on_c, 0, 58, 0
2, 19031, Note_on_c, 0, 67, 0
2, 19045, Note_on_c, 0, 41, 32
2, 19047, Note_on_c, 0, 63, 0
2, 19056, Note_on_c, 0, 41, 0
2, 19080, Note_on_c, 0, 69, 52
2, 19080, Note_on_c, 0, 65, 56
2, 19083, Note_on_c, 0, 60, 44
2, 19085, Note_on_c, 0, 62, 36
2, 19143, Note_on_c, 0, 69, 0
2, 19147, Note_on_c, 0, 62, 0
2, 19154, Note_on_c, 0, 65, 0
2, 19159, Note_on_c, 0, 60, 0
2, 19176, Note_on_c, 0, 41, 16
2, 19210, Note_on_c, 0, 70, 40
2, 19212, Note_on_c, 0, 62, 36
2, 19215, Note_on_c, 0, 63, 29
2, 19281, Note_on_c, 0, 62, 0
2, 19281, Note_on_c, 0, 70, 0
2, 19319, Note_on_c, 0, 63, 0
2, 19326, Note_on_c, 0, 69, 56
2, 19328, Note_on_c, 0, 60, 56
2, 19330, Note_on_c, 0, 65, 60
2, 19342, Note_on_c, 0, 65, 0
2, 19346, Note_on_c, 0, 69, 0
2, 19346, Note_on_c, 0, 60, 0
2, 19436, Note_on_c, 0, 67, 36
2, 19440, Note_on_c, 0, 29, 0
2, 19440, Note_on_c, 0, 60, 32
2, 19440, Note_on_c, 0, 63, 52
2, 19443, Note_on_c, 0, 41, 0
2, 19443, Note_on_c, 0, 58, 29
2, 19517, Note_on_c, 0, 58, 0
2, 19517, Note_on_c, 0, 67, 0
2, 19518, Note_on_c, 0, 63, 0
2, 19520, Note_on_c, 0, 60, 0
2, 19631, Note_on_c, 0, 29, 56
2, 19635, Note_on_c, 0, 63, 82
2, 19635, Note_on_c, 0, 58, 82
2, 19637, Note_on_c, 0, 60, 73
2, 19637, Note_on_c, 0, 67, 91
2, 19776, Note_on_c, 0, 29, 0
2, 19875, Note_on_c, 0, 29, 64
2, 19878, Note_on_c, 0, 41, 64
2, 19898, Note_on_c, 0, 29, 0
2, 19900, Note_on_c, 0, 41, 0
2, 20158, Note_on_c, 0, 29, 44
2, 20160, Note_on_c, 0, 41, 31
2, 20197, Note_on_c, 0, 41, 0
2, 20199, Note_on_c, 0, 29, 0
2, 20351, Note_on_c, 0, 29, 60
2, 20351, Note_on_c, 0, 41, 52
2, 20376, Note_on_c, 0, 41, 0
2, 20378, Note_on_c, 0, 29, 0
2, 20639, Note_on_c, 0, 67, 0
2, 20641, Note_on_c, 0, 63, 0
2, 20641, Note_on_c, 0, 60, 0
2, 20643, Note_on_c, 0, 58, 0
2, 20643, Note_on_c, 0, 29, 52
2, 20751, Note_on_c, 0, 29, 0
2, 20772, Note_on_c, 0, 58, 23
2, 20774, Note_on_c, 0, 63, 30
2, 20776, Note_on_c, 0, 67, 24
2, 20776, Note_on_c, 0, 60, 36
2, 20834, Note_on_c, 0, 29, 64
2, 20851, Note_on_c, 0, 29, 0
2, 20851, Note_on_c, 0, 67, 0
2, 20851, Note_on_c, 0, 58, 0
2, 20853, Note_on_c, 0, 63, 0
2, 20855, Note_on_c, 0, 60, 0
2, 20876, Note_on_c, 0, 60, 31
2, 20878, Note_on_c, 0, 63, 32
2, 20878, Note_on_c, 0, 58, 31
2, 20880, Note_on_c, 0, 67, 31
2, 20950, Note_on_c, 0, 60, 0
2, 20952, Note_on_c, 0, 67, 0
2, 20952, Note_on_c, 0, 58, 0
2, 20960, Note_on_c, 0, 41, 48
2, 20960, Note_on_c, 0, 29, 44
2, 20967, Note_on_c, 0, 63, 0
2, 20992, Note_on_c, 0, 29, 0
2, 20998, Note_on_c, 0, 65, 64
2, 20998, Note_on_c, 0, 60, 56
2, 21000, Note_on_c, 0, 69, 56
2, 21001, Note_on_c, 0, 62, 40
2, 21054, Note_on_c, 0, 62, 0
2, 21058, Note_on_c, 0, 69, 0
2, 21060, Note_on_c, 0, 65, 0
2, 21070, Note_on_c, 0, 60, 0
2, 21079, Note_on_c, 0, 29, 52
2, 21103, Note_on_c, 0, 29, 0
2, 21119, Note_on_c, 0, 70, 48
2, 21121, Note_on_c, 0, 63, 40
2, 21123, Note_on_c, 0, 62, 60
2, 21127, Note_on_c, 0, 67, 52
2, 21193, Note_on_c, 0, 70, 0
2, 21195, Note_on_c, 0, 62, 0
2, 21197, Note_on_c, 0, 29, 48
2, 21201, Note_on_c, 0, 63, 0
2, 21203, Note_on_c, 0, 67, 0
2, 21240, Note_on_c, 0, 69, 56
2, 21242, Note_on_c, 0, 29, 0
2, 21242, Note_on_c, 0, 60, 52
2, 21242, Note_on_c, 0, 65, 64
2, 21282, Note_on_c, 0, 69, 0
2, 21293, Note_on_c, 0, 65, 0
2, 21299, Note_on_c, 0, 60, 0
2, 21310, Note_on_c, 0, 29, 44
2, 21335, Note_on_c, 0, 29, 0
2, 21355, Note_on_c, 0, 67, 52
2, 21359, Note_on_c, 0, 58, 52
2, 21359, Note_on_c, 0, 63, 52
2, 21418, Note_on_c, 0, 67, 0
2, 21423, Note_on_c, 0, 29, 56
2, 21425, Note_on_c, 0, 63, 0
2, 21425, Note_on_c, 0, 58, 0
2, 21442, Note_on_c, 0, 29, 0
2, 21504, Note_on_c, 0, 41, 0
2, 21552, Note_on_c, 0, 70, 73
2, 21554, Note_on_c, 0, 63, 73
2, 21554, Note_on_c, 0, 67, 82
2, 21554, Note_on_c, 0, 56, 60
2, 21554, Note_on_c, 0, 60, 82
2, 21950, Note_on_c, 0, 67, 0
2, 21952, Note_on_c, 0, 70, 0
2, 21952, Note_on_c, 0, 63, 0
2, 21954, Note_on_c, 0, 56, 0
2, 21956, Note_on_c, 0, 60, 0
2, 22039, Note_on_c, 0, 70, 73
2, 22041, Note_on_c, 0, 63, 64
2, 22041, Note_on_c, 0, 67, 91
2, 22041, Note_on_c, 0, 60, 73
2, 22041, Note_on_c, 0, 34, 60
2, 22043, Note_on_c, 0, 56, 64
2, 22392, Note_on_c, 0, 55, 91
2, 22421, Note_on_c, 0, 67, 0
2, 22423, Note_on_c, 0, 63, 0
2, 22425, Note_on_c, 0, 70, 0
2, 22427, Note_on_c, 0, 34, 0
2, 22427, Note_on_c, 0, 60, 0
2, 22428, Note_on_c, 0, 56, 0
2, 22434, Note_on_c, 0, 55, 0
2, 22446, Note_on_c, 0, 56, 32
2, 22483, Note_on_c, 0, 56, 0
2, 22517, Note_on_c, 0, 57, 56
2, 22519, Note_on_c, 0, 67, 73
2, 22521, Note_on_c, 0, 63, 60
2, 22521, Note_on_c, 0, 60, 52
2, 22645, Note_on_c, 0, 67, 0
2, 22652, Note_on_c, 0, 60, 0
2, 22652, Note_on_c, 0, 63, 0
2, 22654, Note_on_c, 0, 57, 0
2, 22751, Note_on_c, 0, 58, 60
2, 22913, Note_on_c, 0, 58, 0
2, 22991, Note_on_c, 0, 65, 73
2, 22991, Note_on_c, 0, 57, 60
2, 22992, Note_on_c, 0, 62, 60
2, 23124, Note_on_c, 0, 65, 0
2, 23126, Note_on_c, 0, 62, 0
2, 23130, Note_on_c, 0, 57, 0
2, 23236, Note_on_c, 0, 64, 64
2, 23236, Note_on_c, 0, 60, 64
2, 23238, Note_on_c, 0, 55, 73
2, 23346, Note_on_c, 0, 55, 0
2, 23350, Note_on_c, 0, 60, 0
2, 23350, Note_on_c, 0, 64, 0
2, 23476, Note_on_c, 0, 62, 82
2, 23478, Note_on_c, 0, 70, 82
2, 23478, Note_on_c, 0, 65, 82
2, 23480, Note_on_c, 0, 60, 91
2, 23857, Note_on_c, 0, 70, 0
2, 23858, Note_on_c, 0, 60, 0
2, 23859, Note_on_c, 0, 65, 0
2, 23863, Note_on_c, 0, 62, 0
2, 23948, Note_on_c, 0, 70, 64
2, 23950, Note_on_c, 0, 62, 64
2, 23952, Note_on_c, 0, 65, 73
2, 23952, Note_on_c, 0, 31, 82
2, 23952, Note_on_c, 0, 43, 64
2, 23954, Note_on_c, 0, 60, 60
2, 24057, Note_on_c, 0, 70, 0
2, 24071, Note_on_c, 0, 60, 0
2, 24111, Note_on_c, 0, 33, 64
2, 24114, Note_on_c, 0, 69, 60
2, 24116, Note_on_c, 0, 60, 52
2, 24123, Note_on_c, 0, 31, 0
2, 24123, Note_on_c, 0, 43, 0
2, 24125, Note_on_c, 0, 62, 0
2, 24144, Note_on_c, 0, 69, 0
2, 24149, Note_on_c, 0, 65, 0
2, 24153, Note_on_c, 0, 60, 0
2, 24200, Note_on_c, 0, 33, 0
2, 24234, Note_on_c, 0, 67, 82
2, 24236, Note_on_c, 0, 63, 73
2, 24236, Note_on_c, 0, 34, 82
2, 24236, Note_on_c, 0, 58, 60
2, 24297, Note_on_c, 0, 58, 0
2, 24297, Note_on_c, 0, 67, 0
2, 24303, Note_on_c, 0, 63, 0
2, 24336, Note_on_c, 0, 34, 0
2, 24353, Note_on_c, 0, 36, 56
2, 24362, Note_on_c, 0, 36, 0
2, 24434, Note_on_c, 0, 65, 82
2, 24438, Note_on_c, 0, 29, 73
2, 24442, Note_on_c, 0, 41, 60
2, 24444, Note_on_c, 0, 53, 91
2, 24444, Note_on_c, 0, 62, 64
2, 24446, Note_on_c, 0, 60, 60
2, 24448, Note_on_c, 0, 59, 64
2, 24496, Note_on_c, 0, 59, 0
2, 24894, Note_on_c, 0, 29, 0
2, 24916, Note_on_c, 0, 41, 64
2, 24956, Note_on_c, 0, 29, 64
2, 25051, Note_on_c, 0, 29, 0
2, 25057, Note_on_c, 0, 41, 0
2, 25062, Note_on_c, 0, 41, 0
2, 25160, Note_on_c, 0, 29, 64
2, 25162, Note_on_c, 0, 41, 56
2, 25180, Note_on_c, 0, 41, 0
2, 25180, Note_on_c, 0, 29, 0
2, 25406, Note_on_c, 0, 41, 16
2, 25416, Note_on_c, 0, 41, 0
2, 25437, Note_on_c, 0, 29, 73
2, 25437, Note_on_c, 0, 41, 60
2, 25546, Note_on_c, 0, 41, 0
2, 25546, Note_on_c, 0, 29, 0
2, 25639, Note_on_c, 0, 29, 64
2, 25639, Note_on_c, 0, 41, 60
2, 25667, Note_on_c, 0, 41, 0
2, 25670, Note_on_c, 0, 29, 0
2, 25875, Note_on_c, 0, 38, 73
2, 25922, Note_on_c, 0, 36, 52
2, 25922, Control_c, 0, 7, 114
2, 25926, Note_on_c, 0, 38, 0
2, 25991, Note_on_c, 0, 38, 48
2, 25994, Note_on_c, 0, 36, 0
2, 26018, Note_on_c, 0, 38, 0
2, 26038, Note_on_c, 0, 39, 82
2, 26103, Note_on_c, 0, 39, 0
2, 26108, Note_on_c, 0, 46, 48
2, 26134, Note_on_c, 0, 46, 0
2, 26157, Note_on_c, 0, 44, 30
2, 26161, Note_on_c, 0, 45, 20
2, 26179, Note_on_c, 0, 44, 0
2, 26183, Control_c, 0, 7, 111
2, 26188, Control_c, 0, 7, 107
2, 26204, Control_c, 0, 7, 104
2, 26231, Note_on_c, 0, 41, 64
2, 26233, Note_on_c, 0, 45, 0
2, 26269, Note_on_c, 0, 41, 0
2, 26288, Note_on_c, 0, 65, 0
2, 26290, Note_on_c, 0, 53, 0
2, 26294, Note_on_c, 0, 62, 0
2, 26298, Note_on_c, 0, 60, 0
2, 26358, Note_on_c, 0, 29, 91
2, 26412, Note_on_c, 0, 29, 0
2, 26540, Control_c, 0, 7, 100
2, 26555, Control_c, 0, 7, 97
2, 26582, Control_c, 0, 7, 100
2, 26588, Note_on_c, 0, 29, 60
2, 26630, Note_on_c, 0, 29, 0
2, 26650, Control_c, 0, 7, 103
2, 26655, Control_c, 0, 7, 107
2, 26670, Control_c, 0, 7, 110
2, 26878, Note_on_c, 0, 29, 60
2, 26936, Note_on_c, 0, 29, 0
2, 26975, Control_c, 0, 7, 114
2, 27069, Note_on_c, 0, 29, 52
2, 27111, Note_on_c, 0, 29, 0
2, 27366, Note_on_c, 0, 29, 40
2, 27409, Note_on_c, 0, 29, 0
2, 27555, Note_on_c, 0, 29, 44
2, 27588, Note_on_c, 0, 29, 0
2, 28269, Note_on_c, 0, 29, 60
2, 28332, Note_on_c, 0, 29, 0
2, 28515, Note_on_c, 0, 29, 48
2, 28549, Note_on_c, 0, 29, 0
2, 28798, Note_on_c, 0, 29, 48
2, 28838, Note_on_c, 0, 29, 0
2, 29279, Note_on_c, 0, 29, 48
2, 29324, Note_on_c, 0, 29, 0
2, 29473, Note_on_c, 0, 29, 48
2, 29502, Note_on_c, 0, 29, 0
2, 35048, Note_on_c, 0, 29, 64
2, 35099, Note_on_c, 0, 29, 0
2, 35237, Note_on_c, 0, 29, 91
2, 35237, Control_c, 0, 7, 117
2, 35241, Control_c, 0, 7, 124
2, 35246, Control_c, 0, 7, 127
2, 35274, Note_on_c, 0, 29, 0
2, 35526, Note_on_c, 0, 29, 73
2, 35572, Note_on_c, 0, 29, 0
2, 35713, Note_on_c, 0, 29, 73
2, 35753, Note_on_c, 0, 29, 0
2, 36008, Note_on_c, 0, 29, 64
2, 36059, Note_on_c, 0, 29, 0
2, 36197, Note_on_c, 0, 29, 91
2, 36234, Note_on_c, 0, 29, 0
2, 36486, Note_on_c, 0, 29, 73
2, 36532, Note_on_c, 0, 29, 0
2, 36673, Note_on_c, 0, 29, 73
2, 36713, Note_on_c, 0, 29, 0
2, 36961, Note_on_c, 0, 29, 73
2, 37012, Note_on_c, 0, 29, 0
2, 37082, Note_on_c, 0, 60, 48
2, 37084, Note_on_c, 0, 62, 56
2, 37161, Note_on_c, 0, 29, 73
2, 37194, Note_on_c, 0, 29, 0
2, 37203, Note_on_c, 0, 63, 56
2, 37206, Note_on_c, 0, 62, 0
2, 37206, Note_on_c, 0, 58, 48
2, 37215, Note_on_c, 0, 60, 0
2, 37309, Note_on_c, 0, 58, 0
2, 37317, Note_on_c, 0, 63, 0
2, 37331, Note_on_c, 0, 60, 27
2, 37331, Note_on_c, 0, 62, 25
2, 37385, Note_on_c, 0, 62, 0
2, 37385, Note_on_c, 0, 60, 0
2, 37434, Note_on_c, 0, 29, 60
2, 37519, Note_on_c, 0, 29, 0
2, 37639, Note_on_c, 0, 29, 64
2, 37666, Note_on_c, 0, 29, 0
2, 37915, Note_on_c, 0, 29, 73
2, 37982, Note_on_c, 0, 29, 0
2, 38119, Note_on_c, 0, 29, 73
2, 38153, Note_on_c, 0, 29, 0
2, 38398, Note_on_c, 0, 29, 73
2, 38447, Note_on_c, 0, 29, 0
2, 38525, Note_on_c, 0, 62, 52
2, 38527, Note_on_c, 0, 60, 48
2, 38600, Note_on_c, 0, 29, 60
2, 38642, Note_on_c, 0, 60, 0
2, 38643, Note_on_c, 0, 29, 0
2, 38644, Note_on_c, 0, 63, 60
2, 38646, Note_on_c, 0, 62, 0
2, 38646, Note_on_c, 0, 58, 52
2, 38760, Note_on_c, 0, 58, 0
2, 38765, Note_on_c, 0, 63, 0
2, 38772, Note_on_c, 0, 62, 32
2, 38778, Note_on_c, 0, 60, 40
2, 38850, Note_on_c, 0, 62, 0
2, 38852, Note_on_c, 0, 60, 0
2, 38883, Note_on_c, 0, 62, 48
2, 38884, Note_on_c, 0, 29, 73
2, 38885, Note_on_c, 0, 60, 48
2, 38904, Note_on_c, 0, 60, 0
2, 38908, Note_on_c, 0, 62, 0
2, 38933, Note_on_c, 0, 29, 0
2, 39006, Note_on_c, 0, 60, 60
2, 39008, Note_on_c, 0, 62, 56
2, 39067, Control_c, 0, 7, 115
2, 39077, Note_on_c, 0, 29, 91
2, 39078, Control_c, 0, 7, 117
2, 39086, Control_c, 0, 7, 118
2, 39094, Control_c, 0, 7, 120
2, 39117, Note_on_c, 0, 29, 0
2, 39119, Note_on_c, 0, 60, 0
2, 39123, Note_on_c, 0, 63, 52
2, 39125, Note_on_c, 0, 58, 48
2, 39127, Note_on_c, 0, 62, 0
2, 39215, Note_on_c, 0, 58, 0
2, 39235, Note_on_c, 0, 63, 0
2, 39246, Note_on_c, 0, 60, 32
2, 39248, Note_on_c, 0, 62, 40
2, 39248, Control_c, 0, 7, 122
2, 39253, Control_c, 0, 7, 124
2, 39259, Control_c, 0, 7, 125
2, 39280, Control_c, 0, 7, 127
2, 39300, Note_on_c, 0, 60, 0
2, 39309, Note_on_c, 0, 62, 0
2, 39354, Note_on_c, 0, 29, 64
2, 39361, Note_on_c, 0, 29, 64
2, 39413, Note_on_c, 0, 29, 0
2, 39418, Note_on_c, 0, 29, 0
2, 39559, Note_on_c, 0, 29, 73
2, 39600, Note_on_c, 0, 29, 0
2, 39792, Note_on_c, 0, 73, 82
2, 39796, Note_on_c, 0, 65, 91
2, 39796, Note_on_c, 0, 74, 73
2, 39809, Note_on_c, 0, 73, 0
2, 39830, Note_on_c, 0, 65, 0
2, 39839, Note_on_c, 0, 29, 64
2, 39845, Note_on_c, 0, 72, 48
2, 39845, Note_on_c, 0, 63, 52
2, 39847, Note_on_c, 0, 69, 28
2, 39851, Note_on_c, 0, 74, 0
2, 39870, Note_on_c, 0, 69, 0
2, 39874, Note_on_c, 0, 72, 0
2, 39889, Note_on_c, 0, 63, 0
2, 39897, Note_on_c, 0, 29, 0
2, 40034, Note_on_c, 0, 29, 60
2, 40066, Note_on_c, 0, 29, 0
2, 40318, Note_on_c, 0, 29, 56
2, 40321, Note_on_c, 0, 63, 82
2, 40321, Note_on_c, 0, 65, 64
2, 40346, Note_on_c, 0, 63, 0
2, 40350, Note_on_c, 0, 65, 0
2, 40382, Note_on_c, 0, 29, 0
2, 40517, Note_on_c, 0, 29, 56
2, 40519, Note_on_c, 0, 65, 82
2, 40519, Note_on_c, 0, 63, 91
2, 40546, Note_on_c, 0, 63, 0
2, 40546, Note_on_c, 0, 65, 0
2, 40548, Note_on_c, 0, 29, 0
2, 40755, Note_on_c, 0, 63, 82
2, 40755, Note_on_c, 0, 65, 82
2, 40784, Note_on_c, 0, 63, 0
2, 40789, Note_on_c, 0, 65, 0
2, 40800, Note_on_c, 0, 29, 64
2, 40852, Note_on_c, 0, 29, 0
2, 40876, Note_on_c, 0, 63, 82
2, 40878, Note_on_c, 0, 65, 73
2, 40900, Note_on_c, 0, 65, 0
2, 40900, Note_on_c, 0, 63, 0
2, 40924, Note_on_c, 0, 60, 52
2, 40924, Note_on_c, 0, 62, 52
2, 40998, Note_on_c, 0, 29, 82
2, 41038, Note_on_c, 0, 29, 0
2, 41043, Note_on_c, 0, 62, 0
2, 41045, Note_on_c, 0, 63, 56
2, 41045, Note_on_c, 0, 58, 52
2, 41047, Note_on_c, 0, 60, 0
2, 41148, Note_on_c, 0, 58, 0
2, 41160, Note_on_c, 0, 63, 0
2, 41168, Note_on_c, 0, 62, 31
2, 41168, Note_on_c, 0, 60, 40
2, 41222, Note_on_c, 0, 60, 0
2, 41226, Note_on_c, 0, 62, 0
2, 41280, Note_on_c, 0, 29, 73
2, 41280, Note_on_c, 0, 63, 48
2, 41280, Note_on_c, 0, 65, 56
2, 41337, Note_on_c, 0, 29, 0
2, 41346, Note_on_c, 0, 63, 0
2, 41354, Note_on_c, 0, 65, 0
2, 41368, Note_on_c, 0, 65, 73
2, 41368, Note_on_c, 0, 63, 64
2, 41394, Note_on_c, 0, 63, 0
2, 41399, Note_on_c, 0, 65, 0
2, 41476, Note_on_c, 0, 29, 60
2, 41522, Note_on_c, 0, 29, 0
2, 41766, Note_on_c, 0, 29, 73
2, 41825, Note_on_c, 0, 29, 0
2, 41888, Note_on_c, 0, 60, 52
2, 41890, Note_on_c, 0, 62, 52
2, 41958, Note_on_c, 0, 29, 64
2, 41964, Note_on_c, 0, 65, 73
2, 41964, Note_on_c, 0, 63, 82
2, 41986, Note_on_c, 0, 63, 0
2, 41990, Note_on_c, 0, 65, 0
2, 41995, Note_on_c, 0, 29, 0
2, 42006, Note_on_c, 0, 62, 0
2, 42011, Note_on_c, 0, 63, 48
2, 42013, Note_on_c, 0, 60, 0
2, 42013, Note_on_c, 0, 58, 40
2, 42112, Note_on_c, 0, 58, 0
2, 42125, Note_on_c, 0, 63, 0
2, 42132, Note_on_c, 0, 62, 40
2, 42134, Note_on_c, 0, 60, 36
2, 42190, Note_on_c, 0, 60, 0
2, 42192, Note_on_c, 0, 62, 0
2, 42245, Note_on_c, 0, 29, 73
2, 42246, Note_on_c, 0, 62, 52
2, 42248, Note_on_c, 0, 60, 44
2, 42271, Note_on_c, 0, 62, 0
2, 42273, Note_on_c, 0, 60, 0
2, 42290, Note_on_c, 0, 29, 0
2, 42365, Note_on_c, 0, 60, 44
2, 42365, Note_on_c, 0, 62, 52
2, 42436, Note_on_c, 0, 29, 73
2, 42445, Note_on_c, 0, 65, 82
2, 42445, Note_on_c, 0, 63, 73
2, 42452, Note_on_c, 0, 60, 0
2, 42469, Note_on_c, 0, 63, 0
2, 42473, Note_on_c, 0, 65, 0
2, 42476, Note_on_c, 0, 29, 0
2, 42480, Note_on_c, 0, 63, 44
2, 42486, Note_on_c, 0, 62, 0
2, 42486, Note_on_c, 0, 58, 36
2, 42556, Note_on_c, 0, 58, 0
2, 42592, Note_on_c, 0, 63, 0
2, 42605, Note_on_c, 0, 62, 44
2, 42605, Note_on_c, 0, 60, 44
2, 42637, Note_on_c, 0, 62, 0
2, 42648, Note_on_c, 0, 60, 0
2, 42684, Note_on_c, 0, 65, 91
2, 42685, Note_on_c, 0, 63, 91
2, 42705, Note_on_c, 0, 63, 0
2, 42710, Note_on_c, 0, 65, 0
2, 42717, Note_on_c, 0, 29, 73
2, 42769, Note_on_c, 0, 29, 0
2, 42847, Note_on_c, 0, 60, 36
2, 42849, Note_on_c, 0, 62, 31
2, 42919, Note_on_c, 0, 60, 0
2, 42919, Note_on_c, 0, 29, 64
2, 42921, Note_on_c, 0, 63, 73
2, 42921, Note_on_c, 0, 65, 73
2, 42930, Note_on_c, 0, 62, 0
2, 42947, Note_on_c, 0, 63, 0
2, 42948, Note_on_c, 0, 65, 0
2, 42953, Note_on_c, 0, 29, 0
2, 42957, Note_on_c, 0, 63, 44
2, 42960, Note_on_c, 0, 58, 32
2, 43050, Note_on_c, 0, 58, 0
2, 43074, Note_on_c, 0, 63, 0
2, 43083, Note_on_c, 0, 62, 32
2, 43083, Note_on_c, 0, 60, 40
2, 43137, Note_on_c, 0, 60, 0
2, 43148, Note_on_c, 0, 62, 0
2, 43154, Note_on_c, 0, 65, 91
2, 43154, Note_on_c, 0, 63, 82
2, 43166, Note_on_c, 0, 58, 27
2, 43174, Note_on_c, 0, 63, 0
2, 43176, Note_on_c, 0, 65, 0
2, 43186, Note_on_c, 0, 58, 0
2, 43203, Note_on_c, 0, 29, 64
2, 43206, Note_on_c, 0, 62, 29
2, 43210, Note_on_c, 0, 60, 24
2, 43244, Note_on_c, 0, 60, 0
2, 43244, Note_on_c, 0, 62, 0
2, 43255, Note_on_c, 0, 29, 0
2, 43321, Note_on_c, 0, 60, 48
2, 43323, Note_on_c, 0, 62, 56
2, 43390, Note_on_c, 0, 60, 0
2, 43396, Note_on_c, 0, 29, 82
2, 43440, Note_on_c, 0, 62, 0
2, 43446, Note_on_c, 0, 29, 0
2, 43446, Note_on_c, 0, 63, 28
2, 43448, Note_on_c, 0, 58, 28
2, 43524, Note_on_c, 0, 58, 0
2, 43551, Note_on_c, 0, 63, 0
2, 43646, Note_on_c, 0, 68, 91
2, 43648, Note_on_c, 0, 64, 73
2, 43648, Note_on_c, 0, 59, 64
2, 43650, Note_on_c, 0, 61, 82
2, 43652, Note_on_c, 0, 30, 73
2, 43662, Control_c, 0, 3, 2
2, 43663, Control_c, 0, 3, 3
2, 43667, Control_c, 0, 3, 4
2, 43676, Control_c, 0, 3, 3
2, 43678, Control_c, 0, 3, 2
2, 43793, Note_on_c, 0, 30, 0
2, 43871, Control_c, 0, 3, 1
2, 43880, Note_on_c, 0, 30, 64
2, 43898, Note_on_c, 0, 30, 0
2, 44159, Note_on_c, 0, 30, 52
2, 44200, Note_on_c, 0, 30, 0
2, 44353, Note_on_c, 0, 30, 73
2, 44372, Note_on_c, 0, 30, 0
2, 44634, Note_on_c, 0, 30, 31
2, 44751, Note_on_c, 0, 59, 0
2, 44753, Note_on_c, 0, 68, 0
2, 44755, Note_on_c, 0, 61, 0
2, 44757, Note_on_c, 0, 64, 0
2, 44834, Note_on_c, 0, 42, 25
2, 44862, Note_on_c, 0, 42, 0
2, 44881, Note_on_c, 0, 68, 91
2, 44882, Note_on_c, 0, 64, 73
2, 44884, Note_on_c, 0, 61, 73
2, 44884, Note_on_c, 0, 59, 60
2, 44943, Note_on_c, 0, 61, 0
2, 44945, Note_on_c, 0, 59, 0
2, 44951, Note_on_c, 0, 68, 0
2, 44965, Note_on_c, 0, 42, 32
2, 44967, Note_on_c, 0, 64, 0
2, 44976, Note_on_c, 0, 42, 0
2, 45000, Note_on_c, 0, 70, 52
2, 45000, Note_on_c, 0, 66, 56
2, 45003, Note_on_c, 0, 61, 44
2, 45005, Note_on_c, 0, 63, 36
2, 45063, Note_on_c, 0, 70, 0
2, 45067, Note_on_c, 0, 63, 0
2, 45074, Note_on_c, 0, 66, 0
2, 45079, Note_on_c, 0, 61, 0
2, 45096, Note_on_c, 0, 42, 16
2, 45130, Note_on_c, 0, 71, 40
2, 45132, Note_on_c, 0, 63, 36
2, 45135, Note_on_c, 0, 64, 29
2, 45201, Note_on_c, 0, 63, 0
2, 45201, Note_on_c, 0, 71, 0
2, 45239, Note_on_c, 0, 64, 0
2, 45246, Note_on_c, 0, 70, 56
2, 45248, Note_on_c, 0, 61, 56
2, 45250, Note_on_c, 0, 66, 60
2, 45262, Note_on_c, 0, 66, 0
2, 45266, Note_on_c, 0, 70, 0
2, 45266, Note_on_c, 0, 61, 0
2, 45356, Note_on_c, 0, 68, 36
2, 45360, Note_on_c, 0, 30, 0
2, 45360, Note_on_c, 0, 61, 32
2, 45360, Note_on_c, 0, 64, 52
2, 45363, Note_on_c, 0, 42, 0
2, 45363, Note_on_c, 0, 59, 29
2, 45437, Note_on_c, 0, 59, 0
2, 45437, Note_on_c, 0, 68, 0
2, 45438, Note_on_c, 0, 64, 0
2, 45440, Note_on_c, 0, 61, 0
2, 45551, Note_on_c, 0, 30, 56
2, 45555, Note_on_c, 0, 64, 82
2, 45555, Note_on_c, 0, 59, 82
2, 45557, Note_on_c, 0, 61, 73
2, 45557, Note_on_c, 0, 68, 91
2, 45696, Note_on_c, 0, 30, 0
2, 45795, Note_on_c, 0, 30, 64
2, 45798, Note_on_c, 0, 42, 64
2, 45818, Note_on_c, 0, 30, 0
2, 45820, Note_on_c, 0, 42, 0
2, 46078, Note_on_c, 0, 30, 44
2, 46080, Note_on_c, 0, 42, 31
2, 46117, Note_on_c, 0, 42, 0
2, 46119, Note_on_c, 0, 30, 0
2, 46271, Note_on_c, 0, 30, 60
2, 46271, Note_on_c, 0, 42, 52
2, 46296, Note_on_c, 0, 42, 0
2, 46298, Note_on_c, 0, 30, 0
2, 46559, Note_on_c, 0, 68, 0
2, 46561, Note_on_c, 0, 64, 0
2, 46561, Note_on_c, 0, 61, 0
2, 46563, Note_on_c, 0, 59, 0
2, 46563, Note_on_c, 0, 30, 52
2, 46671, Note_on_c, 0, 30, 0
2, 46692, Note_on_c, 0, 59, 23
2, 46694, Note_on_c, 0, 64, 30
2, 46696, Note_on_c, 0, 68, 24
2, 46696, Note_on_c, 0, 61, 36
2, 46754, Note_on_c, 0, 30, 64
2, 46771, Note_on_c, 0, 30, 0
2, 46771, Note_on_c, 0, 68, 0
2, 46771, Note_on_c, 0, 59, 0
2, 46773, Note_on_c, 0, 64, 0
2, 46775, Note_on_c, 0, 61, 0
2, 46796, Note_on_c, 0, 61, 31
2, 46798, Note_on_c, 0, 64, 32
2, 46798, Note_on_c, 0, 59, 31
2, 46800, Note_on_c, 0, 68, 31
2, 46870, Note_on_c, 0, 61, 0
2, 46872, Note_on_c, 0, 68, 0
2, 46872, Note_on_c, 0, 59, 0
2, 46880, Note_on_c, 0, 42, 48
2, 46880, Note_on_c, 0, 30, 44
2, 46887, Note_on_c, 0, 64, 0
2, 46912, Note_on_c, 0, 30, 0
2, 46918, Note_on_c, 0, 66, 64
2, 46918, Note_on_c, 0, 61, 56
2, 46920, Note_on_c, 0, 70, 56
2, 46921, Note_on_c, 0, 63, 40
2, 46974, Note_on_c, 0, 63, 0
2, 46978, Note_on_c, 0, 70, 0
2, 46980, Note_on_c, 0, 66, 0
2, 46990, Note_on_c, 0, 61, 0
2, 46999, Note_on_c, 0, 30, 52
2, 47023, Note_on_c, 0, 30, 0
2, 47039, Note_on_c, 0, 71, 48
2, 47041, Note_on_c, 0, 64, 40
2, 47043, Note_on_c, 0, 63, 60
2, 47047, Note_on_c, 0, 68, 52
2, 47113, Note_on_c, 0, 71, 0
2, 47115, Note_on_c, 0, 63, 0
2, 47117, Note_on_c, 0, 30, 48
2, 47121, Note_on_c, 0, 64, 0
2, 47123, Note_on_c, 0, 68, 0
2, 47160, Note_on_c, 0, 70, 56
2, 47162, Note_on_c, 0, 30, 0
2, 47162, Note_on_c, 0, 61, 52
2, 47162, Note_on_c, 0, 66, 64
2, 47202, Note_on_c, 0, 70, 0
2, 47213, Note_on_c, 0, 66, 0
2, 47219, Note_on_c, 0, 61, 0
2, 47230, Note_on_c, 0, 30, 44
2, 47255, Note_on_c, 0, 30, 0
2, 47275, Note_on_c, 0, 68, 52
2, 47279, Note_on_c, 0, 59, 52
2, 47279, Note_on_c, 0, 64, 52
2, 47338, Note_on_c, 0, 68, 0
2, 47343, Note_on_c, 0, 30, 56
2, 47345, Note_on_c, 0, 64, 0
2, 47345, Note_on_c, 0, 59, 0
2, 47362, Note_on_c, 0, 30, 0
2, 47424, Note_on_c, 0, 42, 0
2, 47472, Note_on_c, 0, 71, 73
2, 47474, Note_on_c, 0, 64, 73
2, 47474, Note_on_c, 0, 68, 82
2, 47474, Note_on_c, 0, 57, 60
2, 47474, Note_on_c, 0, 61, 82
2, 47870, Note_on_c, 0, 68, 0
2, 47872, Note_on_c, 0, 71, 0
2, 47872, Note_on_c, 0, 64, 0
2, 47874, Note_on_c, 0, 57, 0
2, 47876, Note_on_c, 0, 61, 0
2, 47959, Note_on_c, 0, 71, 73
2, 47961, Note_on_c, 0, 64, 64
2, 47961, Note_on_c, 0, 68, 91
2, 47961, Note_on_c, 0, 61, 73
2, 47961, Note_on_c, 0, 35, 60
2, 47963, Note_on_c, 0, 57, 64
2, 48312, Note_on_c, 0, 56, 91
2, 48341, Note_on_c, 0, 68, 0
2, 48343, Note_on_c, 0, 64, 0
2, 48345, Note_on_c, 0, 71, 0
2, 48347, Note_on_c, 0, 35, 0
2, 48347, Note_on_c, 0, 61, 0
2, 48348, Note_on_c, 0, 57, 0
2, 48354, Note_on_c, 0, 56, 0
2, 48366, Note_on_c, 0, 57, 32
2, 48403, Note_on_c, 0, 57, 0
2, 48437, Note_on_c, 0, 58, 56
2, 48439, Note_on_c, 0, 68, 73
2, 48441, Note_on_c, 0, 64, 60
2, 48441, Note_on_c, 0, 61, 52
2, 48565, Note_on_c, 0, 68, 0
2, 48572, Note_on_c, 0, 61, 0
2, 48572, Note_on_c, 0, 64, 0
2, 48574, Note_on_c, 0, 58, 0
2, 48671, Note_on_c, 0, 59, 60
2, 48833, Note_on_c, 0, 59, 0
2, 48911, Note_on_c, 0, 66, 73
2, 48911, Note_on_c, 0, 58, 60
2, 48912, Note_on_c, 0, 63, 60
2, 49044, Note_on_c, 0, 66, 0
2, 49046, Note_on_c, 0, 63, 0
2, 49050, Note_on_c, 0, 58, 0
2, 49156, Note_on_c, 0, 65, 64
2, 49156, Note_on_c, 0, 61, 64
2, 49158, Note_on_c, 0, 56, 73
2, 49266, Note_on_c, 0, 56, 0
2, 49270, Note_on_c, 0, 61, 0
2, 49270, Note_on_c, 0, 65, 0
2, 49396, Note_on_c, 0, 63, 82
2, 49398, Note_on_c, 0, 71, 82
2, 49398, Note_on_c, 0, 66, 82
2, 49400, Note_on_c, 0, 61, 91
2, 49777, Note_on_c, 0, 71, 0
2, 49778, Note_on_c, 0, 61, 0
2, 49779, Note_on_c, 0, 66, 0
2, 49783, Note_on_c, 0, 63, 0
2, 49868, Note_on_c, 0, 71, 64
2, 49870, Note_on_c, 0, 63, 64
2, 49872, Note_on_c, 0, 66, 73
2, 49872, Note_on_c, 0, 32, 82
2, 49872, Note_on_c, 0, 44, 64
2, 49874, Note_on_c, 0, 61, 60
2, 49977, Note_on_c, 0, 71, 0
2, 49991, Note_on_c, 0, 61, 0
2, 50031, Note_on_c, 0, 34, 64
2, 50034, Note_on_c, 0, 70, 60
2, 50036, Note_on_c, 0, 61, 52
2, 50043, Note_on_c, 0, 32, 0
2, 50043, Note_on_c, 0, 44, 0
2, 50045, Note_on_c, 0, 63, 0
2, 50064, Note_on_c, 0, 70, 0
2, 50069, Note_on_c, 0, 66, 0
2, 50073, Note_on_c, 0, 61, 0
2, 50120, Note_on_c, 0, 34, 0
2, 50154, Note_on_c, 0, 68, 82
2, 50156, Note_on_c, 0, 64, 73
2, 50156, Note_on_c, 0, 35, 82
2, 50156, Note_on_c, 0, 59, 60
2, 50217, Note_on_c, 0, 59, 0
2, 50217, Note_on_c, 0, 68, 0
2, 50223, Note_on_c, 0, 64, 0
2, 50256, Note_on_c, 0, 35, 0
2, 50273, Note_on_c, 0, 37, 56
2, 50282, Note_on_c, 0, 37, 0
2, 50352, Note_on_c, 0, 68, 82
2, 50352, Note_on_c, 0, 64, 82
2, 50352, Note_on_c, 0, 61, 73
2, 50352, Note_on_c, 0, 58, 64
2, 50507, Note_on_c, 0, 68, 0
2, 50510, Note_on_c, 0, 64, 0
2, 50512, Note_on_c, 0, 58, 0
2, 50514, Note_on_c, 0, 61, 0
2, 50603, Note_on_c, 0, 64, 91
2, 50603, Note_on_c, 0, 68, 82
2, 50604, Note_on_c, 0, 58, 82
2, 50606, Note_on_c, 0, 61, 73
2, 50758, Note_on_c, 0, 68, 0
2, 50763, Note_on_c, 0, 64, 0
2, 50763, Note_on_c, 0, 58, 0
2, 50769, Note_on_c, 0, 61, 0
2, 50854, Note_on_c, 0, 58, 16
2, 50857, Note_on_c, 0, 58, 0
2, 50882, Note_on_c, 0, 61, 82
2, 50884, Note_on_c, 0, 68, 82
2, 50886, Note_on_c, 0, 64, 91
2, 50886, Note_on_c, 0, 58, 91
2, 50958, Note_on_c, 0, 58, 0
2, 50996, Note_on_c, 0, 64, 0
2, 50998, Note_on_c, 0, 68, 0
2, 51002, Note_on_c, 0, 58, 29
2, 51004, Note_on_c, 0, 61, 0
2, 51009, Note_on_c, 0, 58, 0
2, 51072, Note_on_c, 0, 63, 91
2, 51072, Note_on_c, 0, 67, 91
2, 51074, Note_on_c, 0, 61, 64
2, 51074, Note_on_c, 0, 58, 73
2, 51252, Note_on_c, 0, 67, 0
2, 51260, Note_on_c, 0, 61, 0
2, 51262, Note_on_c, 0, 63, 0
2, 51265, Note_on_c, 0, 58, 0
2, 51315, Note_on_c, 0, 68, 82
2, 51317, Note_on_c, 0, 56, 64
2, 51317, Note_on_c, 0, 63, 73
2, 51317, Note_on_c, 0, 59, 91
2, 51671, Note_on_c, 0, 63, 0
2, 51674, Note_on_c, 0, 59, 0
2, 51676, Note_on_c, 0, 68, 0
2, 51684, Note_on_c, 0, 56, 0
2, 51732, Note_on_c, 0, 68, 16
2, 51732, Note_on_c, 0, 68, 0
2, 51793, Note_on_c, 0, 71, 100
2, 51793, Note_on_c, 0, 66, 100
2, 51793, Note_on_c, 0, 63, 82
2, 51920, Note_on_c, 0, 63, 0
2, 51956, Note_on_c, 0, 71, 0
2, 51956, Note_on_c, 0, 70, 91
2, 51958, Note_on_c, 0, 61, 91
2, 51981, Note_on_c, 0, 70, 0
2, 51983, Note_on_c, 0, 61, 0
2, 51983, Note_on_c, 0, 66, 0
2, 52075, Note_on_c, 0, 59, 82
2, 52077, Note_on_c, 0, 68, 82
2, 52077, Note_on_c, 0, 63, 82
2, 52165, Note_on_c, 0, 59, 0
2, 52176, Note_on_c, 0, 68, 0
2, 52198, Note_on_c, 0, 63, 0
2, 52281, Note_on_c, 0, 66, 73
2, 52281, Note_on_c, 0, 63, 73
2, 52283, Note_on_c, 0, 54, 60
2, 52283, Note_on_c, 0, 64, 73
2, 52284, Note_on_c, 0, 61, 73
2, 52760, Note_on_c, 0, 37, 52
2, 52769, Note_on_c, 0, 37, 0
2, 52798, Note_on_c, 0, 30, 73
2, 52889, Note_on_c, 0, 30, 0
2, 53097, Note_on_c, 0, 64, 0
2, 53097, Note_on_c, 0, 54, 0
2, 53099, Note_on_c, 0, 66, 0
2, 53099, Note_on_c, 0, 61, 0
2, 53099, Note_on_c, 0, 63, 0
2, 53155, Note_on_c, 0, 54, 91
2, 53157, Note_on_c, 0, 63, 91
2, 53157, Note_on_c, 0, 58, 91
2, 53159, Note_on_c, 0, 59, 100
2, 53173, Note_on_c, 0, 58, 0
2, 53189, Note_on_c, 0, 54, 0
2, 53198, Note_on_c, 0, 63, 0
2, 53198, Note_on_c, 0, 59, 0
2, 53276, Note_on_c, 0, 61, 64
2, 53276, Note_on_c, 0, 52, 56
2, 53278, Note_on_c, 0, 56, 73
2, 53280, Note_on_c, 0, 58, 48
2, 53307, Note_on_c, 0, 56, 0
2, 53325, Note_on_c, 0, 56, 16
2, 53341, Note_on_c, 0, 56, 0
2, 53341, Note_on_c, 0, 61, 0
2, 53352, Note_on_c, 0, 52, 0
2, 53352, Note_on_c, 0, 58, 0
2, 53367, Note_on_c, 0, 58, 82
2, 53367, Note_on_c, 0, 61, 82
2, 53369, Note_on_c, 0, 52, 82
2, 53380, Note_on_c, 0, 52, 0
2, 53380, Note_on_c, 0, 61, 0
2, 53381, Note_on_c, 0, 58, 0
2, 54193, Note_on_c, 0, 44, 60
2, 54204, Note_on_c, 0, 44, 0
2, 54228, Note_on_c, 0, 49, 60
2, 54228, Note_on_c, 0, 37, 64
2, 54231, Note_on_c, 0, 73, 91
2, 54233, Note_on_c, 0, 61, 82
2, 54235, Note_on_c, 0, 67, 73
2, 54235, Note_on_c, 0, 68, 73
2, 54242, Note_on_c, 0, 67, 0
2, 54242, Note_on_c, 0, 49, 0
2, 54244, Note_on_c, 0, 37, 0
2, 54275, Note_on_c, 0, 61, 0
2, 54277, Note_on_c, 0, 68, 0
2, 54277, Note_on_c, 0, 73, 0
2, 54437, Note_on_c, 0, 73, 82
2, 54437, Note_on_c, 0, 61, 82
2, 54440, Note_on_c, 0, 68, 82
2, 54440, Note_on_c, 0, 37, 56
2, 54442, Note_on_c, 0, 49, 56
2, 54442, Note_on_c, 0, 67, 56
2, 54449, Note_on_c, 0, 67, 0
2, 54451, Note_on_c, 0, 61, 0
2, 54453, Note_on_c, 0, 37, 0
2, 54453, Note_on_c, 0, 73, 0
2, 54453, Note_on_c, 0, 68, 0
2, 54455, Note_on_c, 0, 49, 0
2, 54727, Note_on_c, 0, 71, 91
2, 54727, Note_on_c, 0, 57, 73
2, 54727, Note_on_c, 0, 63, 91
2, 54727, Note_on_c, 0, 66, 91
2, 54727, Note_on_c, 0, 59, 82
2, 54752, Note_on_c, 0, 59, 0
2, 54752, Note_on_c, 0, 57, 0
2, 54756, Note_on_c, 0, 71, 0
2, 54756, Note_on_c, 0, 63, 0
2, 54756, Note_on_c, 0, 66, 0
2, 54920, Note_on_c, 0, 71, 82
2, 54920, Note_on_c, 0, 57, 91
2, 54922, Note_on_c, 0, 35, 52
2, 54922, Note_on_c, 0, 59, 91
2, 54924, Note_on_c, 0, 66, 91
2, 54924, Note_on_c, 0, 63, 91
2, 54925, Note_on_c, 0, 47, 17
2, 54935, Note_on_c, 0, 59, 0
2, 54935, Note_on_c, 0, 35, 0
2, 54937, Note_on_c, 0, 57, 0
2, 54937, Note_on_c, 0, 66, 0
2, 54937, Note_on_c, 0, 63, 0
2, 54939, Note_on_c, 0, 71, 0
2, 54939, Note_on_c, 0, 47, 0
2, 55045, Note_on_c, 0, 35, 52
2, 55055, Note_on_c, 0, 35, 0
2, 55074, Note_on_c, 0, 69, 64
2, 55074, Note_on_c, 0, 63, 60
2, 55078, Note_on_c, 0, 66, 44
2, 55100, Note_on_c, 0, 66, 0
2, 55111, Note_on_c, 0, 69, 0
2, 55113, Note_on_c, 0, 66, 64
2, 55120, Note_on_c, 0, 63, 0
2, 55123, Note_on_c, 0, 66, 0
2, 55143, Note_on_c, 0, 66, 73
2, 55167, Note_on_c, 0, 61, 31
2, 55372, Note_on_c, 0, 61, 0
2, 55388, Note_on_c, 0, 66, 0
2, 55406, Note_on_c, 0, 66, 82
2, 55408, Note_on_c, 0, 61, 73
2, 55416, Note_on_c, 0, 61, 0
2, 56004, Note_on_c, 0, 66, 0
2, 56004, Note_on_c, 0, 42, 73
2, 56008, Note_on_c, 0, 42, 0
2, 56037, Note_on_c, 0, 54, 91
2, 56039, Note_on_c, 0, 59, 91
2, 56039, Note_on_c, 0, 63, 91
2, 56044, Note_on_c, 0, 56, 16
2, 56046, Note_on_c, 0, 56, 0
2, 56088, Note_on_c, 0, 63, 0
2, 56093, Note_on_c, 0, 59, 0
2, 56104, Note_on_c, 0, 54, 0
2, 56120, Note_on_c, 0, 30, 64
2, 56138, Note_on_c, 0, 30, 0
2, 56144, Note_on_c, 0, 42, 24
2, 56149, Note_on_c, 0, 42, 0
2, 56151, Note_on_c, 0, 52, 64
2, 56155, Note_on_c, 0, 56, 64
2, 56155, Note_on_c, 0, 61, 73
2, 56177, Note_on_c, 0, 58, 52
2, 56184, Note_on_c, 0, 56, 0
2, 56219, Note_on_c, 0, 61, 0
2, 56234, Note_on_c, 0, 61, 64
2, 56247, Note_on_c, 0, 52, 0
2, 56249, Note_on_c, 0, 61, 0
2, 56249, Note_on_c, 0, 58, 0
2, 56476, Note_on_c, 0, 66, 100
2, 56512, Note_on_c, 0, 64, 52
2, 56516, Note_on_c, 0, 66, 0
2, 56584, Note_on_c, 0, 64, 0
2, 56603, Note_on_c, 0, 63, 19
2, 56629, Note_on_c, 0, 63, 0
2, 56642, Note_on_c, 0, 61, 25
2, 56678, Note_on_c, 0, 61, 0
2, 56684, Note_on_c, 0, 62, 31
2, 56691, Note_on_c, 0, 62, 0
2, 56714, Note_on_c, 0, 63, 64
2, 56752, Note_on_c, 0, 64, 52
2, 56754, Note_on_c, 0, 63, 0
2, 56826, Note_on_c, 0, 70, 48
2, 56830, Note_on_c, 0, 64, 0
2, 56837, Note_on_c, 0, 71, 64
2, 56856, Note_on_c, 0, 70, 0
2, 56870, Note_on_c, 0, 70, 56
2, 56877, Note_on_c, 0, 71, 0
2, 56946, Note_on_c, 0, 70, 0
2, 56948, Note_on_c, 0, 66, 60
2, 56962, Note_on_c, 0, 66, 0
2, 57072, Note_on_c, 0, 44, 64
2, 57083, Note_on_c, 0, 44, 0
2, 57110, Note_on_c, 0, 73, 91
2, 57112, Note_on_c, 0, 68, 82
2, 57112, Note_on_c, 0, 61, 91
2, 57112, Note_on_c, 0, 67, 64
2, 57114, Note_on_c, 0, 49, 73
2, 57114, Note_on_c, 0, 37, 73
2, 57118, Note_on_c, 0, 67, 0
2, 57132, Note_on_c, 0, 68, 0
2, 57141, Note_on_c, 0, 61, 0
2, 57150, Note_on_c, 0, 49, 0
2, 57159, Note_on_c, 0, 37, 0
2, 57159, Note_on_c, 0, 73, 0
2, 57325, Note_on_c, 0, 73, 82
2, 57325, Note_on_c, 0, 61, 73
2, 57327, Note_on_c, 0, 68, 73
2, 57327, Note_on_c, 0, 37, 56
2, 57329, Note_on_c, 0, 67, 60
2, 57331, Note_on_c, 0, 67, 0
2, 57335, Note_on_c, 0, 68, 0
2, 57335, Note_on_c, 0, 37, 0
2, 57336, Note_on_c, 0, 61, 0
2, 57336, Note_on_c, 0, 73, 0
2, 57603, Note_on_c, 0, 35, 60
2, 57612, Note_on_c, 0, 47, 30
2, 57634, Note_on_c, 0, 35, 0
2, 57639, Note_on_c, 0, 71, 91
2, 57639, Note_on_c, 0, 57, 64
2, 57639, Note_on_c, 0, 66, 82
2, 57639, Note_on_c, 0, 59, 60
2, 57639, Note_on_c, 0, 63, 73
2, 57643, Note_on_c, 0, 47, 0
2, 57649, Note_on_c, 0, 63, 0
2, 57651, Note_on_c, 0, 66, 0
2, 57653, Note_on_c, 0, 71, 0
2, 57653, Note_on_c, 0, 57, 0
2, 57653, Note_on_c, 0, 59, 0
2, 57720, Note_on_c, 0, 66, 91
2, 57720, Note_on_c, 0, 57, 73
2, 57720, Note_on_c, 0, 71, 91
2, 57721, Note_on_c, 0, 59, 73
2, 57721, Note_on_c, 0, 63, 73
2, 57898, Note_on_c, 0, 71, 0
2, 57905, Note_on_c, 0, 59, 0
2, 57905, Note_on_c, 0, 57, 0
2, 57907, Note_on_c, 0, 66, 0
2, 57909, Note_on_c, 0, 63, 0
2, 57925, Note_on_c, 0, 47, 56
2, 57927, Note_on_c, 0, 35, 60
2, 57944, Note_on_c, 0, 35, 0
2, 57946, Note_on_c, 0, 47, 0
2, 57960, Note_on_c, 0, 69, 91
2, 57962, Note_on_c, 0, 64, 91
2, 57989, Note_on_c, 0, 69, 0
2, 57993, Note_on_c, 0, 66, 60
2, 57995, Note_on_c, 0, 61, 64
2, 58279, Note_on_c, 0, 64, 0
2, 58279, Note_on_c, 0, 30, 56
2, 58284, Note_on_c, 0, 30, 0
2, 58551, Note_on_c, 0, 66, 0
2, 58562, Note_on_c, 0, 61, 0
2, 58875, Note_on_c, 0, 30, 60
2, 58877, Note_on_c, 0, 42, 48
2, 58884, Note_on_c, 0, 30, 0
2, 58888, Note_on_c, 0, 42, 0
2, 58915, Note_on_c, 0, 63, 82
2, 58915, Note_on_c, 0, 54, 91
2, 58915, Note_on_c, 0, 59, 91
2, 58964, Note_on_c, 0, 59, 0
2, 58966, Note_on_c, 0, 63, 0
2, 58984, Note_on_c, 0, 54, 0
2, 58999, Note_on_c, 0, 30, 52
2, 59000, Note_on_c, 0, 42, 31
2, 59008, Note_on_c, 0, 30, 0
2, 59009, Note_on_c, 0, 42, 0
2, 59037, Note_on_c, 0, 61, 44
2, 59039, Note_on_c, 0, 56, 52
2, 59040, Note_on_c, 0, 52, 52
2, 59051, Note_on_c, 0, 58, 40
2, 59067, Note_on_c, 0, 56, 0
2, 59111, Note_on_c, 0, 61, 0
2, 59113, Note_on_c, 0, 58, 0
2, 59120, Note_on_c, 0, 61, 64
2, 59122, Note_on_c, 0, 58, 56
2, 59135, Note_on_c, 0, 58, 0
2, 59136, Note_on_c, 0, 61, 0
2, 59136, Note_on_c, 0, 52, 0
2, 59351, Note_on_c, 0, 42, 91
2, 59392, Note_on_c, 0, 42, 0
2, 59396, Note_on_c, 0, 40, 56
2, 59470, Note_on_c, 0, 39, 82
2, 59477, Note_on_c, 0, 40, 0
2, 59524, Note_on_c, 0, 37, 52
2, 59532, Note_on_c, 0, 39, 0
2, 59591, Note_on_c, 0, 39, 64
2, 59596, Note_on_c, 0, 37, 0
2, 59627, Note_on_c, 0, 40, 64
2, 59629, Note_on_c, 0, 39, 0
2, 59703, Note_on_c, 0, 40, 0
2, 59710, Note_on_c, 0, 47, 64
2, 59742, Note_on_c, 0, 47, 0
2, 59748, Note_on_c, 0, 46, 73
2, 59825, Note_on_c, 0, 42, 64
2, 59829, Note_on_c, 0, 46, 0
2, 59844, Note_on_c, 0, 42, 0
2, 59953, Note_on_c, 0, 44, 44
2, 59961, Note_on_c, 0, 44, 0
2, 59993, Note_on_c, 0, 61, 64
2, 59995, Note_on_c, 0, 68, 73
2, 59995, Note_on_c, 0, 73, 73
2, 59997, Note_on_c, 0, 49, 60
2, 59997, Note_on_c, 0, 37, 73
2, 60010, Note_on_c, 0, 61, 0
2, 60012, Note_on_c, 0, 73, 0
2, 60013, Note_on_c, 0, 68, 0
2, 60019, Note_on_c, 0, 37, 0
2, 60062, Note_on_c, 0, 49, 0
2, 60117, Note_on_c, 0, 37, 48
2, 60133, Note_on_c, 0, 37, 0
2, 60200, Note_on_c, 0, 73, 91
2, 60200, Note_on_c, 0, 61, 82
2, 60202, Note_on_c, 0, 68, 91
2, 60214, Note_on_c, 0, 68, 0
2, 60214, Note_on_c, 0, 61, 0
2, 60214, Note_on_c, 0, 73, 0
2, 60446, Note_on_c, 0, 42, 44
2, 60452, Note_on_c, 0, 42, 0
2, 60479, Note_on_c, 0, 71, 91
2, 60480, Note_on_c, 0, 59, 82
2, 60481, Note_on_c, 0, 66, 91
2, 60552, Note_on_c, 0, 59, 0
2, 60552, Note_on_c, 0, 71, 0
2, 60553, Note_on_c, 0, 66, 0
2, 60586, Note_on_c, 0, 35, 60
2, 60591, Note_on_c, 0, 47, 40
2, 60595, Note_on_c, 0, 35, 0
2, 60608, Note_on_c, 0, 47, 0
2, 60678, Note_on_c, 0, 59, 82
2, 60680, Note_on_c, 0, 71, 91
2, 60680, Note_on_c, 0, 66, 91
2, 60693, Note_on_c, 0, 71, 0
2, 60695, Note_on_c, 0, 66, 0
2, 60695, Note_on_c, 0, 59, 0
2, 60801, Note_on_c, 0, 35, 73
2, 60801, Note_on_c, 0, 47, 73
2, 60812, Note_on_c, 0, 35, 0
2, 60817, Note_on_c, 0, 47, 0
2, 60835, Note_on_c, 0, 57, 91
2, 60837, Note_on_c, 0, 69, 91
2, 60837, Note_on_c, 0, 64, 91
2, 60863, Note_on_c, 0, 57, 0
2, 60874, Note_on_c, 0, 66, 44
2, 60881, Note_on_c, 0, 64, 0
2, 60881, Note_on_c, 0, 69, 0
2, 60888, Note_on_c, 0, 66, 0
2, 60904, Note_on_c, 0, 66, 44
2, 60921, Note_on_c, 0, 61, 29
2, 60953, Note_on_c, 0, 30, 60
2, 60987, Note_on_c, 0, 30, 0
2, 61025, Note_on_c, 0, 61, 0
2, 61038, Note_on_c, 0, 66, 0
2, 61072, Note_on_c, 0, 42, 44
2, 61101, Note_on_c, 0, 42, 0
2, 61159, Note_on_c, 0, 66, 91
2, 61161, Note_on_c, 0, 61, 82
2, 61161, Note_on_c, 0, 54, 82
2, 61170, Note_on_c, 0, 54, 0
2, 61170, Note_on_c, 0, 66, 0
2, 61172, Note_on_c, 0, 61, 0
2, 61440, Note_on_c, 0, 30, 29
2, 61475, Note_on_c, 0, 30, 0
2, 61514, Note_on_c, 0, 42, 64
2, 61523, Note_on_c, 0, 42, 0
2, 61554, Note_on_c, 0, 66, 64
2, 61554, Note_on_c, 0, 54, 73
2, 61556, Note_on_c, 0, 61, 64
2, 61563, Note_on_c, 0, 66, 0
2, 61567, Note_on_c, 0, 61, 0
2, 61569, Note_on_c, 0, 54, 0
2, 61635, Note_on_c, 0, 42, 40
2, 61639, Note_on_c, 0, 30, 36
2, 61644, Note_on_c, 0, 30, 0
2, 61648, Note_on_c, 0, 42, 0
2, 61679, Note_on_c, 0, 54, 82
2, 61681, Note_on_c, 0, 63, 82
2, 61681, Note_on_c, 0, 59, 91
2, 61755, Note_on_c, 0, 63, 0
2, 61757, Note_on_c, 0, 54, 0
2, 61757, Note_on_c, 0, 42, 40
2, 61759, Note_on_c, 0, 30, 64
2, 61761, Note_on_c, 0, 59, 0
2, 61768, Note_on_c, 0, 30, 0
2, 61775, Note_on_c, 0, 42, 0
2, 61795, Note_on_c, 0, 54, 100
2, 61795, Note_on_c, 0, 59, 91
2, 61795, Note_on_c, 0, 63, 82
2, 61806, Note_on_c, 0, 42, 44
2, 61833, Note_on_c, 0, 59, 0
2, 61835, Note_on_c, 0, 63, 0
2, 61857, Note_on_c, 0, 54, 0
2, 61873, Note_on_c, 0, 30, 73
2, 61888, Note_on_c, 0, 30, 0
2, 61891, Note_on_c, 0, 42, 0
2, 61917, Note_on_c, 0, 56, 56
2, 61919, Note_on_c, 0, 61, 64
2, 61920, Note_on_c, 0, 52, 64
2, 61944, Note_on_c, 0, 58, 44
2, 61976, Note_on_c, 0, 56, 0
2, 61989, Note_on_c, 0, 61, 0
2, 61992, Note_on_c, 0, 52, 0
2, 61992, Note_on_c, 0, 58, 0
2, 62002, Note_on_c, 0, 61, 64
2, 62002, Note_on_c, 0, 52, 73
2, 62004, Note_on_c, 0, 58, 56
2, 62013, Note_on_c, 0, 52, 0
2, 62015, Note_on_c, 0, 58, 0
2, 62015, Note_on_c, 0, 61, 0
2, 62236, Note_on_c, 0, 30, 64
2, 62242, Note_on_c, 0, 42, 91
2, 62245, Note_on_c, 0, 30, 0
2, 62255, Note_on_c, 0, 42, 0
2, 62273, Note_on_c, 0, 54, 91
2, 62273, Note_on_c, 0, 63, 91
2, 62273, Note_on_c, 0, 59, 82
2, 62361, Note_on_c, 0, 30, 56
2, 62363, Note_on_c, 0, 54, 0
2, 62363, Note_on_c, 0, 42, 48
2, 62370, Note_on_c, 0, 30, 0
2, 62376, Note_on_c, 0, 42, 0
2, 62392, Note_on_c, 0, 63, 0
2, 62403, Note_on_c, 0, 64, 48
2, 62405, Note_on_c, 0, 59, 0
2, 62405, Note_on_c, 0, 61, 40
2, 62407, Note_on_c, 0, 54, 36
2, 62475, Note_on_c, 0, 42, 16
2, 62481, Note_on_c, 0, 30, 82
2, 62484, Note_on_c, 0, 54, 0
2, 62494, Note_on_c, 0, 42, 0
2, 62496, Note_on_c, 0, 64, 0
2, 62497, Note_on_c, 0, 30, 0
2, 62503, Note_on_c, 0, 61, 0
2, 62514, Note_on_c, 0, 63, 82
2, 62518, Note_on_c, 0, 59, 82
2, 62518, Note_on_c, 0, 54, 91
2, 62593, Note_on_c, 0, 54, 0
2, 62597, Note_on_c, 0, 59, 0
2, 62597, Note_on_c, 0, 30, 56
2, 62603, Note_on_c, 0, 63, 0
2, 62604, Note_on_c, 0, 42, 52
2, 62619, Note_on_c, 0, 30, 0
2, 62631, Note_on_c, 0, 52, 60
2, 62635, Note_on_c, 0, 58, 56
2, 62635, Note_on_c, 0, 61, 64
2, 62702, Note_on_c, 0, 58, 0
2, 62707, Note_on_c, 0, 59, 19
2, 62713, Note_on_c, 0, 52, 0
2, 62727, Note_on_c, 0, 59, 0
2, 62735, Note_on_c, 0, 61, 0
2, 62744, Note_on_c, 0, 42, 0
2, 62744, Note_on_c, 0, 30, 64
2, 62758, Note_on_c, 0, 30, 0
2, 62841, Note_on_c, 0, 73, 82
2, 62841, Note_on_c, 0, 61, 73
2, 62843, Note_on_c, 0, 68, 91
2, 62852, Note_on_c, 0, 49, 64
2, 62976, Note_on_c, 0, 73, 0
2, 62980, Note_on_c, 0, 61, 0
2, 62982, Note_on_c, 0, 68, 0
2, 62986, Note_on_c, 0, 49, 0
2, 62991, Note_on_c, 0, 37, 44
2, 63004, Note_on_c, 0, 37, 0
2, 63326, Note_on_c, 0, 71, 91
2, 63328, Note_on_c, 0, 47, 48
2, 63328, Note_on_c, 0, 59, 64
2, 63328, Note_on_c, 0, 66, 91
2, 63328, Note_on_c, 0, 57, 82
2, 63330, Note_on_c, 0, 63, 82
2, 63330, Note_on_c, 0, 35, 32
2, 63334, Note_on_c, 0, 35, 0
2, 63336, Note_on_c, 0, 47, 0
2, 63456, Note_on_c, 0, 71, 0
2, 63458, Note_on_c, 0, 57, 0
2, 63458, Note_on_c, 0, 59, 0
2, 63460, Note_on_c, 0, 66, 0
2, 63462, Note_on_c, 0, 63, 0
2, 63469, Note_on_c, 0, 35, 52
2, 63482, Note_on_c, 0, 35, 0
2, 63687, Note_on_c, 0, 37, 44
2, 63717, Note_on_c, 0, 37, 0
2, 63719, Note_on_c, 0, 64, 100
2, 63720, Note_on_c, 0, 69, 91
2, 63745, Note_on_c, 0, 66, 48
2, 63747, Note_on_c, 0, 69, 0
2, 63751, Note_on_c, 0, 64, 0
2, 63760, Note_on_c, 0, 66, 0
2, 63773, Note_on_c, 0, 66, 16
2, 63778, Note_on_c, 0, 66, 0
2, 63796, Note_on_c, 0, 66, 64
2, 63798, Note_on_c, 0, 61, 60
2, 63798, Note_on_c, 0, 63, 64
2, 64018, Note_on_c, 0, 63, 0
2, 64018, Note_on_c, 0, 61, 0
2, 64027, Note_on_c, 0, 66, 0
2, 64033, Note_on_c, 0, 30, 52
2, 64034, Note_on_c, 0, 42, 40
2, 64038, Note_on_c, 0, 61, 91
2, 64038, Note_on_c, 0, 63, 91
2, 64038, Note_on_c, 0, 66, 91
2, 64044, Note_on_c, 0, 42, 0
2, 64046, Note_on_c, 0, 30, 0
2, 64048, Note_on_c, 0, 66, 0
2, 64048, Note_on_c, 0, 61, 0
2, 64050, Note_on_c, 0, 63, 0
2, 64320, Note_on_c, 0, 30, 52
2, 64331, Note_on_c, 0, 30, 0
2, 64444, Note_on_c, 0, 66, 36
2, 64452, Note_on_c, 0, 66, 0
2, 64452, Note_on_c, 0, 54, 16
2, 64452, Note_on_c, 0, 54, 0
2, 64644, Note_on_c, 0, 42, 40
2, 64644, Note_on_c, 0, 30, 29
2, 64650, Note_on_c, 0, 30, 0
2, 64650, Note_on_c, 0, 42, 0
2, 64679, Note_on_c, 0, 59, 73
2, 64679, Note_on_c, 0, 54, 64
2, 64679, Note_on_c, 0, 63, 60
2, 64754, Note_on_c, 0, 63, 0
2, 64765, Note_on_c, 0, 30, 36
2, 64771, Note_on_c, 0, 59, 0
2, 64788, Note_on_c, 0, 54, 0
2, 64801, Note_on_c, 0, 42, 48
2, 64838, Note_on_c, 0, 42, 0
2, 64841, Note_on_c, 0, 30, 0
2, 64845, Note_on_c, 0, 52, 48
2, 64847, Note_on_c, 0, 61, 36
2, 64849, Note_on_c, 0, 56, 32
2, 64851, Note_on_c, 0, 58, 44
2, 64885, Note_on_c, 0, 56, 0
2, 64992, Note_on_c, 0, 42, 56
2, 64992, Note_on_c, 0, 30, 73
2, 65011, Note_on_c, 0, 30, 0
2, 65019, Note_on_c, 0, 42, 0
2, 65100, Note_on_c, 0, 52, 0
2, 65109, Note_on_c, 0, 61, 0
2, 65111, Note_on_c, 0, 58, 0
2, 65118, Note_on_c, 0, 42, 52
2, 65127, Note_on_c, 0, 42, 0
2, 65156, Note_on_c, 0, 54, 44
2, 65156, Note_on_c, 0, 63, 31
2, 65158, Note_on_c, 0, 59, 31
2, 65212, Note_on_c, 0, 63, 0
2, 65219, Note_on_c, 0, 59, 0
2, 65225, Note_on_c, 0, 42, 22
2, 65230, Note_on_c, 0, 54, 0
2, 65239, Note_on_c, 0, 30, 60
2, 65250, Note_on_c, 0, 30, 0
2, 65254, Note_on_c, 0, 42, 0
2, 65279, Note_on_c, 0, 56, 48
2, 65281, Note_on_c, 0, 52, 52
2, 65281, Note_on_c, 0, 61, 48
2, 65287, Note_on_c, 0, 58, 44
2, 65319, Note_on_c, 0, 56, 0
2, 65342, Note_on_c, 0, 52, 0
2, 65346, Note_on_c, 0, 61, 0
2, 65355, Note_on_c, 0, 58, 0
2, 65359, Note_on_c, 0, 42, 64
2, 65363, Note_on_c, 0, 30, 60
2, 65368, Note_on_c, 0, 30, 0
2, 65372, Note_on_c, 0, 42, 0
2, 65394, Note_on_c, 0, 59, 73
2, 65394, Note_on_c, 0, 54, 73
2, 65394, Note_on_c, 0, 63, 64
2, 65457, Note_on_c, 0, 59, 0
2, 65462, Note_on_c, 0, 63, 0
2, 65475, Note_on_c, 0, 42, 48
2, 65477, Note_on_c, 0, 30, 52
2, 65493, Note_on_c, 0, 54, 0
2, 65506, Note_on_c, 0, 30, 0
2, 65513, Note_on_c, 0, 64, 64
2, 65517, Note_on_c, 0, 61, 60
2, 65519, Note_on_c, 0, 54, 73
2, 65562, Note_on_c, 0, 61, 0
2, 65592, Note_on_c, 0, 54, 0
2, 65592, Note_on_c, 0, 64, 0
2, 65595, Note_on_c, 0, 61, 73
2, 65597, Note_on_c, 0, 42, 0
2, 65602, Note_on_c, 0, 61, 0
2, 65714, Note_on_c, 0, 25, 82
2, 65715, Note_on_c, 0, 61, 82
2, 65717, Note_on_c, 0, 73, 82
2, 65719, Note_on_c, 0, 37, 91
2, 65720, Note_on_c, 0, 68, 82
2, 65720, Note_on_c, 0, 67, 60
2, 65724, Note_on_c, 0, 25, 0
2, 65725, Note_on_c, 0, 67, 0
2, 65727, Note_on_c, 0, 37, 0
2, 65871, Note_on_c, 0, 73, 0
2, 65880, Note_on_c, 0, 61, 0
2, 65880, Note_on_c, 0, 68, 0
2, 65963, Note_on_c, 0, 73, 52
2, 65965, Note_on_c, 0, 61, 36
2, 65969, Note_on_c, 0, 73, 0
2, 65971, Note_on_c, 0, 61, 0
2, 66203, Note_on_c, 0, 35, 56
2, 66205, Note_on_c, 0, 66, 91
2, 66205, Note_on_c, 0, 47, 52
2, 66207, Note_on_c, 0, 71, 91
2, 66209, Note_on_c, 0, 57, 91
2, 66209, Note_on_c, 0, 59, 91
2, 66209, Note_on_c, 0, 63, 91
2, 66211, Note_on_c, 0, 35, 0
2, 66213, Note_on_c, 0, 47, 0
2, 66517, Note_on_c, 0, 71, 0
2, 66524, Note_on_c, 0, 59, 0
2, 66524, Note_on_c, 0, 63, 0
2, 66526, Note_on_c, 0, 57, 0
2, 66530, Note_on_c, 0, 66, 0
2, 66564, Note_on_c, 0, 42, 73
2, 66566, Note_on_c, 0, 37, 73
2, 66588, Note_on_c, 0, 42, 0
2, 66589, Note_on_c, 0, 37, 0
2, 66595, Note_on_c, 0, 69, 82
2, 66597, Note_on_c, 0, 64, 73
2, 66617, Note_on_c, 0, 69, 0
2, 66620, Note_on_c, 0, 66, 56
2, 66626, Note_on_c, 0, 64, 0
2, 66626, Note_on_c, 0, 61, 60
2, 66702, Note_on_c, 0, 42, 16
2, 66702, Note_on_c, 0, 42, 0
2, 66707, Note_on_c, 0, 30, 40
2, 66713, Note_on_c, 0, 61, 0
2, 66715, Note_on_c, 0, 66, 0
2, 66732, Note_on_c, 0, 30, 0
2, 66799, Note_on_c, 0, 42, 48
2, 66808, Note_on_c, 0, 42, 0
2, 66832, Note_on_c, 0, 66, 91
2, 66836, Note_on_c, 0, 61, 82
2, 66854, Note_on_c, 0, 61, 0
2, 66854, Note_on_c, 0, 66, 0
2, 67090, Note_on_c, 0, 66, 16
2, 67099, Note_on_c, 0, 63, 16
2, 67101, Note_on_c, 0, 63, 0
2, 67115, Note_on_c, 0, 66, 0
2, 67167, Note_on_c, 0, 42, 48
2, 67175, Note_on_c, 0, 42, 0
2, 67286, Note_on_c, 0, 42, 60
2, 67296, Note_on_c, 0, 49, 40
2, 67297, Note_on_c, 0, 42, 0
2, 67303, Note_on_c, 0, 49, 0
2, 67324, Note_on_c, 0, 69, 100
2, 67326, Note_on_c, 0, 61, 82
2, 67395, Note_on_c, 0, 61, 0
2, 67400, Note_on_c, 0, 59, 48
2, 67402, Note_on_c, 0, 69, 0
2, 67402, Note_on_c, 0, 68, 44
2, 67415, Note_on_c, 0, 59, 0
2, 67444, Note_on_c, 0, 68, 0
2, 67444, Note_on_c, 0, 57, 16
2, 67446, Note_on_c, 0, 66, 16
2, 67455, Note_on_c, 0, 66, 0
2, 67476, Note_on_c, 0, 66, 29
2, 67504, Note_on_c, 0, 66, 0
2, 67509, Note_on_c, 0, 57, 0
2, 67513, Note_on_c, 0, 42, 73
2, 67527, Note_on_c, 0, 49, 91
2, 67535, Note_on_c, 0, 42, 0
2, 67536, Note_on_c, 0, 49, 0
2, 67538, Note_on_c, 0, 48, 64
2, 67544, Note_on_c, 0, 48, 0
2, 67553, Note_on_c, 0, 59, 60
2, 67557, Note_on_c, 0, 63, 64
2, 67612, Note_on_c, 0, 59, 0
2, 67623, Note_on_c, 0, 63, 0
2, 67638, Note_on_c, 0, 42, 60
2, 67644, Note_on_c, 0, 42, 0
2, 67670, Note_on_c, 0, 54, 28
2, 67696, Note_on_c, 0, 61, 40
2, 67728, Note_on_c, 0, 56, 60
2, 67748, Note_on_c, 0, 54, 0
2, 67750, Note_on_c, 0, 61, 0
2, 67754, Note_on_c, 0, 56, 0
2, 67770, Note_on_c, 0, 58, 60
2, 67772, Note_on_c, 0, 61, 44
2, 67779, Note_on_c, 0, 61, 0
2, 67781, Note_on_c, 0, 58, 0
2, 67993, Note_on_c, 0, 30, 56
2, 67995, Note_on_c, 0, 42, 73
2, 68008, Note_on_c, 0, 42, 0
2, 68008, Note_on_c, 0, 30, 0
2, 68028, Note_on_c, 0, 64, 82
2, 68032, Note_on_c, 0, 61, 64
2, 68108, Note_on_c, 0, 64, 0
2, 68109, Note_on_c, 0, 61, 0
2, 68117, Note_on_c, 0, 63, 16
2, 68122, Note_on_c, 0, 63, 0
2, 68228, Note_on_c, 0, 30, 60
2, 68241, Note_on_c, 0, 42, 73
2, 68243, Note_on_c, 0, 30, 0
2, 68252, Note_on_c, 0, 42, 0
2, 68270, Note_on_c, 0, 54, 73
2, 68272, Note_on_c, 0, 56, 73
2, 68274, Note_on_c, 0, 61, 73
2, 68274, Note_on_c, 0, 58, 64
2, 68312, Note_on_c, 0, 58, 0
2, 68323, Note_on_c, 0, 56, 0
2, 68327, Note_on_c, 0, 61, 0
2, 68328, Note_on_c, 0, 54, 0
2, 68363, Note_on_c, 0, 42, 24
2, 68370, Note_on_c, 0, 42, 0
2, 68503, Note_on_c, 0, 30, 16
2, 68505, Note_on_c, 0, 30, 0
2, 68595, Note_on_c, 0, 32, 82
2, 68635, Note_on_c, 0, 61, 82
2, 68635, Note_on_c, 0, 73, 91
2, 68637, Note_on_c, 0, 68, 82
2, 68637, Note_on_c, 0, 67, 73
2, 68638, Note_on_c, 0, 32, 0
2, 68638, Note_on_c, 0, 25, 64
2, 68639, Note_on_c, 0, 37, 73
2, 68644, Note_on_c, 0, 67, 0
2, 68657, Note_on_c, 0, 25, 0
2, 68679, Note_on_c, 0, 37, 0
2, 68722, Note_on_c, 0, 61, 0
2, 68724, Note_on_c, 0, 73, 0
2, 68729, Note_on_c, 0, 68, 0
2, 68838, Note_on_c, 0, 73, 60
2, 68838, Note_on_c, 0, 61, 52
2, 68838, Note_on_c, 0, 68, 56
2, 68847, Note_on_c, 0, 68, 0
2, 68849, Note_on_c, 0, 61, 0
2, 68849, Note_on_c, 0, 73, 0
2, 69081, Note_on_c, 0, 71, 91
2, 69084, Note_on_c, 0, 59, 60
2, 69084, Note_on_c, 0, 57, 73
2, 69085, Note_on_c, 0, 66, 82
2, 69085, Note_on_c, 0, 47, 31
2, 69085, Note_on_c, 0, 63, 82
2, 69087, Note_on_c, 0, 42, 48
2, 69089, Note_on_c, 0, 35, 24
2, 69096, Note_on_c, 0, 35, 0
2, 69105, Note_on_c, 0, 42, 0
2, 69116, Note_on_c, 0, 47, 0
2, 69341, Note_on_c, 0, 57, 0
2, 69341, Note_on_c, 0, 71, 0
2, 69341, Note_on_c, 0, 59, 0
2, 69352, Note_on_c, 0, 66, 0
2, 69354, Note_on_c, 0, 63, 0
2, 69561, Note_on_c, 0, 66, 73
2, 69563, Note_on_c, 0, 63, 73
2, 69563, Note_on_c, 0, 64, 82
2, 69565, Note_on_c, 0, 42, 82
2, 69565, Note_on_c, 0, 61, 64
2, 69565, Note_on_c, 0, 54, 82
2, 69567, Note_on_c, 0, 42, 0
2, 69961, Note_on_c, 0, 54, 0
2, 69977, Note_on_c, 0, 64, 0
2, 69981, Note_on_c, 0, 66, 0
2, 69986, Note_on_c, 0, 63, 0
2, 69986, Note_on_c, 0, 61, 0
2, 70010, Note_on_c, 0, 54, 27
2, 70027, Note_on_c, 0, 42, 16
2, 70027, Note_on_c, 0, 42, 0
2, 70039, Note_on_c, 0, 61, 36
2, 70043, Note_on_c, 0, 54, 0
2, 70048, Note_on_c, 0, 61, 0
2, 70054, Note_on_c, 0, 42, 16
2, 70057, Note_on_c, 0, 42, 0
2, 70078, Note_on_c, 0, 63, 60
2, 70081, Note_on_c, 0, 54, 60
2, 70083, Note_on_c, 0, 66, 64
2, 70085, Note_on_c, 0, 64, 64
2, 70085, Note_on_c, 0, 61, 64
2, 70146, Note_on_c, 0, 42, 16
2, 70152, Note_on_c, 0, 61, 0
2, 70154, Note_on_c, 0, 64, 0
2, 70154, Note_on_c, 0, 66, 0
2, 70156, Note_on_c, 0, 63, 0
2, 70159, Note_on_c, 0, 54, 0
2, 70159, Note_on_c, 0, 42, 0
2, 70165, Note_on_c, 0, 66, 64
2, 70167, Note_on_c, 0, 61, 64
2, 70167, Note_on_c, 0, 63, 56
2, 70167, Note_on_c, 0, 64, 64
2, 70167, Note_on_c, 0, 54, 56
2, 70176, Note_on_c, 0, 54, 0
2, 70176, Note_on_c, 0, 63, 0
2, 70176, Note_on_c, 0, 64, 0
2, 70176, Note_on_c, 0, 66, 0
2, 70178, Note_on_c, 0, 61, 0
2, 70407, Note_on_c, 0, 42, 82
2, 70409, Note_on_c, 0, 42, 0
2, 70443, Note_on_c, 0, 59, 91
2, 70443, Note_on_c, 0, 63, 82
2, 70443, Note_on_c, 0, 54, 82
2, 70508, Note_on_c, 0, 63, 0
2, 70512, Note_on_c, 0, 59, 0
2, 70526, Note_on_c, 0, 54, 0
2, 70526, Note_on_c, 0, 30, 52
2, 70526, Note_on_c, 0, 42, 48
2, 70528, Note_on_c, 0, 37, 44
2, 70543, Note_on_c, 0, 30, 0
2, 70552, Note_on_c, 0, 37, 0
2, 70565, Note_on_c, 0, 52, 48
2, 70566, Note_on_c, 0, 42, 0
2, 70568, Note_on_c, 0, 61, 40
2, 70576, Note_on_c, 0, 56, 32
2, 70596, Note_on_c, 0, 58, 21
2, 70610, Note_on_c, 0, 56, 0
2, 70833, Note_on_c, 0, 52, 0
2, 70846, Note_on_c, 0, 58, 0
2, 70853, Note_on_c, 0, 61, 0
2, 70878, Note_on_c, 0, 42, 44
2, 70886, Note_on_c, 0, 42, 0
2, 70924, Note_on_c, 0, 63, 32
2, 70924, Note_on_c, 0, 59, 26
2, 70928, Note_on_c, 0, 54, 27
2, 70994, Note_on_c, 0, 63, 0
2, 70998, Note_on_c, 0, 59, 0
2, 71000, Note_on_c, 0, 30, 56
2, 71004, Note_on_c, 0, 54, 0
2, 71005, Note_on_c, 0, 42, 56
2, 71009, Note_on_c, 0, 30, 0
2, 71016, Note_on_c, 0, 42, 0
2, 71038, Note_on_c, 0, 61, 60
2, 71038, Note_on_c, 0, 64, 60
2, 71038, Note_on_c, 0, 54, 56
2, 71101, Note_on_c, 0, 30, 48
2, 71119, Note_on_c, 0, 42, 91
2, 71121, Note_on_c, 0, 30, 0
2, 71121, Note_on_c, 0, 54, 0
2, 71123, Note_on_c, 0, 64, 0
2, 71125, Note_on_c, 0, 61, 0
2, 71129, Note_on_c, 0, 42, 0
2, 71150, Note_on_c, 0, 63, 91
2, 71152, Note_on_c, 0, 59, 82
2, 71152, Note_on_c, 0, 54, 82
2, 71235, Note_on_c, 0, 63, 0
2, 71239, Note_on_c, 0, 54, 0
2, 71239, Note_on_c, 0, 30, 56
2, 71241, Note_on_c, 0, 59, 0
2, 71241, Note_on_c, 0, 42, 82
2, 71246, Note_on_c, 0, 30, 0
2, 71277, Note_on_c, 0, 54, 60
2, 71279, Note_on_c, 0, 58, 40
2, 71279, Note_on_c, 0, 61, 48
2, 71351, Note_on_c, 0, 61, 0
2, 71353, Note_on_c, 0, 42, 0
2, 71355, Note_on_c, 0, 59, 82
2, 71355, Note_on_c, 0, 63, 60
2, 71359, Note_on_c, 0, 58, 0
2, 71359, Note_on_c, 0, 54, 0
2, 71366, Note_on_c, 0, 59, 0
2, 71372, Note_on_c, 0, 63, 0
2, 71474, Note_on_c, 0, 73, 82
2, 71476, Note_on_c, 0, 25, 73
2, 71478, Note_on_c, 0, 61, 91
2, 71478, Note_on_c, 0, 67, 82
2, 71480, Note_on_c, 0, 37, 100
2, 71482, Note_on_c, 0, 68, 91
2, 71485, Note_on_c, 0, 67, 0
2, 71486, Note_on_c, 0, 25, 0
2, 71491, Note_on_c, 0, 37, 0
2, 71736, Note_on_c, 0, 73, 0
2, 71747, Note_on_c, 0, 68, 0
2, 71747, Note_on_c, 0, 61, 0
2, 71959, Note_on_c, 0, 35, 82
2, 71959, Note_on_c, 0, 75, 73
2, 71963, Note_on_c, 0, 42, 73
2, 71965, Note_on_c, 0, 63, 82
2, 71965, Note_on_c, 0, 47, 91
2, 71967, Note_on_c, 0, 69, 82
2, 71969, Note_on_c, 0, 42, 0
2, 71971, Note_on_c, 0, 35, 0
2, 71973, Note_on_c, 0, 47, 0
2, 72007, Note_on_c, 0, 75, 0
2, 72007, Note_on_c, 0, 63, 0
2, 72011, Note_on_c, 0, 69, 0
2, 72202, Note_on_c, 0, 35, 56
2, 72204, Note_on_c, 0, 47, 60
2, 72211, Note_on_c, 0, 35, 0
2, 72218, Note_on_c, 0, 47, 0
2, 72251, Note_on_c, 0, 63, 82
2, 72251, Note_on_c, 0, 71, 82
2, 72251, Note_on_c, 0, 57, 73
2, 72252, Note_on_c, 0, 59, 91
2, 72252, Note_on_c, 0, 66, 91
2, 72311, Note_on_c, 0, 71, 0
2, 72318, Note_on_c, 0, 59, 0
2, 72318, Note_on_c, 0, 57, 0
2, 72324, Note_on_c, 0, 63, 0
2, 72324, Note_on_c, 0, 47, 64
2, 72325, Note_on_c, 0, 35, 73
2, 72336, Note_on_c, 0, 35, 0
2, 72336, Note_on_c, 0, 47, 0
2, 72356, Note_on_c, 0, 69, 82
2, 72360, Note_on_c, 0, 66, 0
2, 72360, Note_on_c, 0, 57, 91
2, 72360, Note_on_c, 0, 63, 82
2, 72389, Note_on_c, 0, 66, 82
2, 72393, Note_on_c, 0, 57, 0
2, 72395, Note_on_c, 0, 69, 0
2, 72411, Note_on_c, 0, 63, 0
2, 72421, Note_on_c, 0, 66, 0
2, 72427, Note_on_c, 0, 66, 52
2, 72432, Note_on_c, 0, 61, 60
2, 72476, Note_on_c, 0, 30, 60
2, 72546, Note_on_c, 0, 30, 0
2, 72599, Note_on_c, 0, 61, 0
2, 72600, Note_on_c, 0, 66, 0
2, 72604, Note_on_c, 0, 42, 40
2, 72629, Note_on_c, 0, 42, 0
2, 72680, Note_on_c, 0, 66, 73
2, 72682, Note_on_c, 0, 54, 73
2, 72682, Note_on_c, 0, 61, 73
2, 72682, Note_on_c, 0, 63, 64
2, 72684, Note_on_c, 0, 64, 82
2, 72684, Note_on_c, 0, 30, 52
2, 72693, Note_on_c, 0, 64, 0
2, 72693, Note_on_c, 0, 63, 0
2, 72693, Note_on_c, 0, 61, 0
2, 72693, Note_on_c, 0, 54, 0
2, 72695, Note_on_c, 0, 66, 0
2, 72697, Note_on_c, 0, 30, 0
2, 72866, Note_on_c, 0, 42, 16
2, 72889, Note_on_c, 0, 42, 0
2, 73044, Note_on_c, 0, 30, 56
2, 73056, Note_on_c, 0, 30, 0
2, 73273, Note_on_c, 0, 30, 44
2, 73275, Note_on_c, 0, 42, 48
2, 73284, Note_on_c, 0, 30, 0
2, 73293, Note_on_c, 0, 42, 0
2, 73313, Note_on_c, 0, 54, 56
2, 73315, Note_on_c, 0, 63, 52
2, 73317, Note_on_c, 0, 59, 56
2, 73419, Note_on_c, 0, 63, 0
2, 73421, Note_on_c, 0, 59, 0
2, 73429, Note_on_c, 0, 54, 0
2, 73456, Note_on_c, 0, 30, 31
2, 73481, Note_on_c, 0, 30, 0
2, 73503, Note_on_c, 0, 30, 56
2, 73513, Note_on_c, 0, 42, 60
2, 73524, Note_on_c, 0, 30, 0
2, 73530, Note_on_c, 0, 42, 0
2, 73552, Note_on_c, 0, 52, 40
2, 73552, Note_on_c, 0, 56, 32
2, 73556, Note_on_c, 0, 61, 26
2, 73558, Note_on_c, 0, 58, 48
2, 73568, Note_on_c, 0, 56, 0
2, 73713, Note_on_c, 0, 52, 0
2, 73720, Note_on_c, 0, 58, 0
2, 73725, Note_on_c, 0, 61, 0
2, 73751, Note_on_c, 0, 42, 29
2, 73758, Note_on_c, 0, 30, 31
2, 73763, Note_on_c, 0, 30, 0
2, 73763, Note_on_c, 0, 42, 0
2, 73794, Note_on_c, 0, 54, 32
2, 73800, Note_on_c, 0, 59, 28
2, 73801, Note_on_c, 0, 63, 25
2, 73859, Note_on_c, 0, 63, 0
2, 73859, Note_on_c, 0, 59, 0
2, 73870, Note_on_c, 0, 54, 0
2, 73875, Note_on_c, 0, 42, 48
2, 73877, Note_on_c, 0, 30, 48
2, 73884, Note_on_c, 0, 30, 0
2, 73888, Note_on_c, 0, 42, 0
2, 73914, Note_on_c, 0, 64, 64
2, 73916, Note_on_c, 0, 61, 56
2, 73916, Note_on_c, 0, 54, 56
2, 73997, Note_on_c, 0, 54, 0
2, 73997, Note_on_c, 0, 64, 0
2, 73997, Note_on_c, 0, 30, 40
2, 73997, Note_on_c, 0, 42, 52
2, 73999, Note_on_c, 0, 61, 0
2, 74004, Note_on_c, 0, 30, 0
2, 74006, Note_on_c, 0, 42, 0
2, 74035, Note_on_c, 0, 63, 60
2, 74037, Note_on_c, 0, 59, 64
2, 74039, Note_on_c, 0, 54, 56
2, 74114, Note_on_c, 0, 54, 0
2, 74114, Note_on_c, 0, 59, 0
2, 74114, Note_on_c, 0, 63, 0
2, 74117, Note_on_c, 0, 42, 52
2, 74118, Note_on_c, 0, 30, 44
2, 74131, Note_on_c, 0, 30, 0
2, 74157, Note_on_c, 0, 52, 91
2, 74157, Note_on_c, 0, 58, 91
2, 74157, Note_on_c, 0, 61, 91
2, 74159, Note_on_c, 0, 42, 0
2, 74182, Note_on_c, 0, 52, 0
2, 74193, Note_on_c, 0, 30, 52
2, 74200, Note_on_c, 0, 62, 29
2, 74200, Note_on_c, 0, 37, 56
2, 74202, Note_on_c, 0, 58, 0
2, 74202, Note_on_c, 0, 61, 0
2, 74208, Note_on_c, 0, 62, 0
2, 74220, Note_on_c, 0, 30, 0
2, 74228, Note_on_c, 0, 42, 64
2, 74230, Note_on_c, 0, 37, 0
2, 74237, Note_on_c, 0, 68, 60
2, 74243, Note_on_c, 0, 68, 0
2, 74255, Note_on_c, 0, 42, 0
2, 74351, Note_on_c, 0, 61, 91
2, 74352, Note_on_c, 0, 37, 91
2, 74424, Note_on_c, 0, 37, 0
2, 74495, Note_on_c, 0, 61, 0
2, 74844, Note_on_c, 0, 42, 56
2, 74851, Note_on_c, 0, 66, 64
2, 74853, Note_on_c, 0, 63, 56
2, 74853, Note_on_c, 0, 71, 60
2, 74855, Note_on_c, 0, 57, 40
2, 74855, Note_on_c, 0, 47, 16
2, 74857, Note_on_c, 0, 47, 0
2, 74857, Note_on_c, 0, 42, 0
2, 74857, Note_on_c, 0, 59, 31
2, 75123, Note_on_c, 0, 71, 0
2, 75127, Note_on_c, 0, 59, 0
2, 75129, Note_on_c, 0, 57, 0
2, 75131, Note_on_c, 0, 66, 0
2, 75135, Note_on_c, 0, 63, 0
2, 75200, Note_on_c, 0, 37, 16
2, 75202, Note_on_c, 0, 37, 0
2, 75227, Note_on_c, 0, 69, 48
2, 75230, Note_on_c, 0, 64, 48
2, 75254, Note_on_c, 0, 69, 0
2, 75260, Note_on_c, 0, 64, 0
2, 75260, Note_on_c, 0, 66, 36
2, 75262, Note_on_c, 0, 61, 31
2, 75353, Note_on_c, 0, 30, 44
2, 75451, Note_on_c, 0, 30, 0
2, 75478, Note_on_c, 0, 42, 31
2, 75481, Note_on_c, 0, 66, 0
2, 75487, Note_on_c, 0, 61, 0
2, 75546, Note_on_c, 0, 42, 0
2, 75557, Note_on_c, 0, 66, 73
2, 75559, Note_on_c, 0, 61, 64
2, 75559, Note_on_c, 0, 54, 60
2, 75561, Note_on_c, 0, 63, 64
2, 75570, Note_on_c, 0, 66, 0
2, 75572, Note_on_c, 0, 61, 0
2, 75572, Note_on_c, 0, 54, 0
2, 75572, Note_on_c, 0, 63, 0
2, 76047, Note_on_c, 0, 30, 52
2, 76047, Note_on_c, 0, 42, 44
2, 76056, Note_on_c, 0, 42, 0
2, 76056, Note_on_c, 0, 30, 0
2, 76082, Note_on_c, 0, 54, 24
2, 76084, Note_on_c, 0, 63, 23
2, 76088, Note_on_c, 0, 59, 30
2, 76165, Note_on_c, 0, 63, 0
2, 76165, Note_on_c, 0, 42, 56
2, 76165, Note_on_c, 0, 30, 56
2, 76169, Note_on_c, 0, 59, 0
2, 76173, Note_on_c, 0, 54, 0
2, 76175, Note_on_c, 0, 30, 0
2, 76178, Note_on_c, 0, 42, 0
2, 76198, Note_on_c, 0, 54, 82
2, 76200, Note_on_c, 0, 59, 91
2, 76200, Note_on_c, 0, 63, 82
2, 76272, Note_on_c, 0, 63, 0
2, 76276, Note_on_c, 0, 59, 0
2, 76281, Note_on_c, 0, 42, 48
2, 76285, Note_on_c, 0, 30, 48
2, 76287, Note_on_c, 0, 54, 0
2, 76316, Note_on_c, 0, 30, 0
2, 76318, Note_on_c, 0, 42, 0
2, 76323, Note_on_c, 0, 52, 48
2, 76323, Note_on_c, 0, 61, 28
2, 76323, Note_on_c, 0, 56, 44
2, 76345, Note_on_c, 0, 58, 36
2, 76368, Note_on_c, 0, 56, 0
2, 76372, Note_on_c, 0, 58, 0
2, 76406, Note_on_c, 0, 61, 0
2, 76416, Note_on_c, 0, 52, 0
2, 76442, Note_on_c, 0, 30, 30
2, 76450, Note_on_c, 0, 30, 0
2, 76524, Note_on_c, 0, 52, 16
2, 76526, Note_on_c, 0, 52, 0
2, 76643, Note_on_c, 0, 42, 52
2, 76644, Note_on_c, 0, 30, 48
2, 76650, Note_on_c, 0, 30, 0
2, 76656, Note_on_c, 0, 42, 0
2, 76675, Note_on_c, 0, 54, 82
2, 76679, Note_on_c, 0, 63, 91
2, 76681, Note_on_c, 0, 59, 82
2, 76752, Note_on_c, 0, 59, 0
2, 76753, Note_on_c, 0, 63, 0
2, 76764, Note_on_c, 0, 42, 44
2, 76764, Note_on_c, 0, 30, 56
2, 76766, Note_on_c, 0, 54, 0
2, 76781, Note_on_c, 0, 30, 0
2, 76793, Note_on_c, 0, 42, 0
2, 76802, Note_on_c, 0, 56, 48
2, 76802, Note_on_c, 0, 64, 52
2, 76804, Note_on_c, 0, 61, 40
2, 76873, Note_on_c, 0, 64, 0
2, 76878, Note_on_c, 0, 61, 0
2, 76878, Note_on_c, 0, 56, 0
2, 76882, Note_on_c, 0, 42, 52
2, 76886, Note_on_c, 0, 30, 40
2, 76893, Note_on_c, 0, 30, 0
2, 76893, Note_on_c, 0, 42, 0
2, 76917, Note_on_c, 0, 63, 91
2, 76919, Note_on_c, 0, 59, 91
2, 76919, Note_on_c, 0, 54, 82
2, 76998, Note_on_c, 0, 63, 0
2, 76998, Note_on_c, 0, 42, 60
2, 77000, Note_on_c, 0, 30, 48
2, 77004, Note_on_c, 0, 54, 0
2, 77004, Note_on_c, 0, 59, 0
2, 77011, Note_on_c, 0, 30, 0
2, 77038, Note_on_c, 0, 58, 40
2, 77040, Note_on_c, 0, 61, 48
2, 77042, Note_on_c, 0, 52, 27
2, 77081, Note_on_c, 0, 52, 0
2, 77107, Note_on_c, 0, 58, 0
2, 77109, Note_on_c, 0, 61, 0
2, 77112, Note_on_c, 0, 42, 0
2, 77120, Note_on_c, 0, 54, 82
2, 77120, Note_on_c, 0, 63, 64
2, 77120, Note_on_c, 0, 59, 82
2, 77132, Note_on_c, 0, 59, 0
2, 77134, Note_on_c, 0, 63, 0
2, 77134, Note_on_c, 0, 54, 0
2, 77239, Note_on_c, 0, 61, 82
2, 77239, Note_on_c, 0, 68, 91
2, 77239, Note_on_c, 0, 25, 73
2, 77239, Note_on_c, 0, 73, 91
2, 77239, Note_on_c, 0, 67, 91
2, 77241, Note_on_c, 0, 37, 91
2, 77243, Note_on_c, 0, 25, 0
2, 77245, Note_on_c, 0, 37, 0
2, 77277, Note_on_c, 0, 67, 0
2, 77493, Note_on_c, 0, 73, 0
2, 77497, Note_on_c, 0, 61, 0
2, 77504, Note_on_c, 0, 68, 0
2, 77717, Note_on_c, 0, 35, 64
2, 77721, Note_on_c, 0, 57, 73
2, 77721, Note_on_c, 0, 42, 64
2, 77724, Note_on_c, 0, 42, 0
2, 77724, Note_on_c, 0, 63, 73
2, 77724, Note_on_c, 0, 47, 64
2, 77724, Note_on_c, 0, 66, 91
2, 77724, Note_on_c, 0, 71, 91
2, 77724, Note_on_c, 0, 59, 56
2, 77726, Note_on_c, 0, 35, 0
2, 77728, Note_on_c, 0, 47, 0
2, 78018, Note_on_c, 0, 59, 0
2, 78020, Note_on_c, 0, 71, 0
2, 78022, Note_on_c, 0, 57, 0
2, 78033, Note_on_c, 0, 66, 0
2, 78035, Note_on_c, 0, 63, 0
2, 78071, Note_on_c, 0, 30, 52
2, 78085, Note_on_c, 0, 37, 64
2, 78087, Note_on_c, 0, 42, 64
2, 78093, Note_on_c, 0, 30, 0
2, 78096, Note_on_c, 0, 37, 0
2, 78098, Note_on_c, 0, 42, 0
2, 78113, Note_on_c, 0, 57, 91
2, 78115, Note_on_c, 0, 69, 100
2, 78115, Note_on_c, 0, 64, 91
2, 78117, Note_on_c, 0, 66, 82
2, 78133, Note_on_c, 0, 57, 0
2, 78174, Note_on_c, 0, 69, 0
2, 78189, Note_on_c, 0, 64, 0
2, 78202, Note_on_c, 0, 58, 16
2, 78211, Note_on_c, 0, 66, 0
2, 78213, Note_on_c, 0, 58, 0
2, 78506, Note_on_c, 0, 42, 16
2, 78508, Note_on_c, 0, 42, 0
2, 78508, Note_on_c, 0, 30, 16
2, 78510, Note_on_c, 0, 30, 0
2, 78533, Note_on_c, 0, 54, 73
2, 78535, Note_on_c, 0, 61, 64
2, 78535, Note_on_c, 0, 63, 64
2, 78535, Note_on_c, 0, 64, 73
2, 78541, Note_on_c, 0, 66, 56
2, 78541, Note_on_c, 0, 66, 0
2, 78545, Note_on_c, 0, 63, 0
2, 78545, Note_on_c, 0, 64, 0
2, 78545, Note_on_c, 0, 61, 0
2, 78547, Note_on_c, 0, 54, 0
2, 78613, Note_on_c, 0, 54, 56
2, 78619, Note_on_c, 0, 64, 48
2, 78619, Note_on_c, 0, 63, 52
2, 78619, Note_on_c, 0, 61, 44
2, 78621, Note_on_c, 0, 66, 30
2, 78975, Note_on_c, 0, 64, 0
2, 78976, Note_on_c, 0, 66, 0
2, 78978, Note_on_c, 0, 63, 0
2, 78992, Note_on_c, 0, 61, 0
2, 79033, Note_on_c, 0, 54, 0
2, 79044, Note_on_c, 0, 30, 48
2, 79044, Note_on_c, 0, 42, 44
2, 79050, Note_on_c, 0, 30, 0
2, 79056, Note_on_c, 0, 42, 0
2, 79079, Note_on_c, 0, 63, 48
2, 79079, Note_on_c, 0, 54, 36
2, 79079, Note_on_c, 0, 59, 60
2, 79153, Note_on_c, 0, 63, 0
2, 79155, Note_on_c, 0, 59, 0
2, 79162, Note_on_c, 0, 54, 0
2, 79164, Note_on_c, 0, 30, 44
2, 79166, Note_on_c, 0, 42, 30
2, 79182, Note_on_c, 0, 30, 0
2, 79186, Note_on_c, 0, 42, 0
2, 79197, Note_on_c, 0, 61, 44
2, 79199, Note_on_c, 0, 52, 44
2, 79200, Note_on_c, 0, 56, 44
2, 79409, Note_on_c, 0, 42, 16
2, 79411, Note_on_c, 0, 42, 0
2, 79509, Note_on_c, 0, 52, 0
2, 79526, Note_on_c, 0, 30, 44
2, 79528, Note_on_c, 0, 42, 30
2, 79534, Note_on_c, 0, 42, 0
2, 79534, Note_on_c, 0, 30, 0
2, 79534, Note_on_c, 0, 56, 0
2, 79540, Note_on_c, 0, 61, 0
2, 79560, Note_on_c, 0, 63, 48
2, 79561, Note_on_c, 0, 54, 40
2, 79561, Note_on_c, 0, 59, 48
2, 79619, Note_on_c, 0, 63, 0
2, 79623, Note_on_c, 0, 59, 0
2, 79628, Note_on_c, 0, 54, 0
2, 79637, Note_on_c, 0, 30, 28
2, 79639, Note_on_c, 0, 42, 24
2, 79645, Note_on_c, 0, 42, 0
2, 79645, Note_on_c, 0, 30, 0
2, 79870, Note_on_c, 0, 30, 52
2, 79872, Note_on_c, 0, 42, 82
2, 79883, Note_on_c, 0, 30, 0
2, 79884, Note_on_c, 0, 42, 0
2, 79912, Note_on_c, 0, 60, 60
2, 79912, Note_on_c, 0, 54, 73
2, 79914, Note_on_c, 0, 64, 73
2, 79926, Note_on_c, 0, 60, 0
2, 79928, Note_on_c, 0, 61, 52
2, 79959, Note_on_c, 0, 64, 0
2, 79963, Note_on_c, 0, 54, 0
2, 79965, Note_on_c, 0, 60, 25
2, 79970, Note_on_c, 0, 61, 0
2, 79972, Note_on_c, 0, 60, 0
2, 80128, Note_on_c, 0, 32, 40
2, 80134, Note_on_c, 0, 32, 0
2, 80158, Note_on_c, 0, 61, 82
2, 80158, Note_on_c, 0, 67, 73
2, 80160, Note_on_c, 0, 73, 73
2, 80160, Note_on_c, 0, 37, 60
2, 80161, Note_on_c, 0, 68, 73
2, 80163, Note_on_c, 0, 25, 73
2, 80169, Note_on_c, 0, 67, 0
2, 80201, Note_on_c, 0, 37, 0
2, 80207, Note_on_c, 0, 61, 0
2, 80209, Note_on_c, 0, 73, 0
2, 80210, Note_on_c, 0, 68, 0
2, 80227, Note_on_c, 0, 25, 0
2, 80227, End_track
3, 0, Start_track
3, 0, MIDI_port, 0
3, 0, Title_t, "pad"
3, 0, Control_c, 14, 0, 56
3, 0, Control_c, 14, 32, 0
3, 0, Program_c, 14, 90
3, 0, Control_c, 14, 7, 80
3, 0, Control_c, 14, 10, 127
3, 0, Control_c, 14, 93, 0
3, 3004, Note_on_c, 14, 66, 91
3, 3004, Note_on_c, 14, 62, 64
3, 3067, Note_on_c, 14, 62, 0
3, 3076, Note_on_c, 14, 67, 73
3, 3076, Note_on_c, 14, 63, 73
3, 3087, Note_on_c, 14, 66, 0
3, 3104, Note_on_c, 14, 67, 0
3, 3106, Note_on_c, 14, 63, 0
3, 3192, Note_on_c, 14, 68, 64
3, 3192, Note_on_c, 14, 62, 64
3, 3223, Note_on_c, 14, 62, 0
3, 3230, Note_on_c, 14, 68, 0
3, 3233, Note_on_c, 14, 69, 64
3, 3235, Note_on_c, 14, 65, 60
3, 3273, Note_on_c, 14, 65, 0
3, 3277, Note_on_c, 14, 69, 0
3, 3312, Note_on_c, 14, 72, 73
3, 3313, Note_on_c, 14, 68, 73
3, 3452, Note_on_c, 14, 72, 0
3, 3454, Note_on_c, 14, 68, 0
3, 3475, Note_on_c, 14, 69, 60
3, 3477, Note_on_c, 14, 65, 64
3, 3519, Note_on_c, 14, 69, 0
3, 3524, Note_on_c, 14, 65, 0
3, 3593, Note_on_c, 14, 65, 60
3, 3595, Note_on_c, 14, 60, 40
3, 3683, Note_on_c, 14, 60, 0
3, 3688, Note_on_c, 14, 65, 0
3, 3721, Note_on_c, 14, 65, 60
3, 3721, Note_on_c, 14, 60, 40
3, 3748, Note_on_c, 14, 60, 0
3, 3750, Note_on_c, 14, 65, 0
3, 5239, Note_on_c, 14, 74, 56
3, 5241, Note_on_c, 14, 69, 52
3, 5241, Note_on_c, 14, 65, 56
3, 5277, Note_on_c, 14, 65, 0
3, 5282, Note_on_c, 14, 74, 0
3, 5284, Note_on_c, 14, 69, 0
3, 5284, Note_on_c, 14, 72, 44
3, 5288, Note_on_c, 14, 63, 48
3, 5337, Note_on_c, 14, 72, 0
3, 5356, Note_on_c, 14, 63, 0
3, 6843, Note_on_c, 14, 66, 73
3, 6845, Note_on_c, 14, 62, 64
3, 6912, Note_on_c, 14, 62, 0
3, 6919, Note_on_c, 14, 67, 56
3, 6921, Note_on_c, 14, 63, 40
3, 6932, Note_on_c, 14, 66, 0
3, 6937, Note_on_c, 14, 67, 0
3, 6947, Note_on_c, 14, 63, 0
3, 7035, Note_on_c, 14, 68, 60
3, 7038, Note_on_c, 14, 62, 48
3, 7083, Note_on_c, 14, 69, 48
3, 7085, Note_on_c, 14, 62, 0
3, 7085, Note_on_c, 14, 65, 40
3, 7094, Note_on_c, 14, 68, 0
3, 7098, Note_on_c, 14, 65, 0
3, 7100, Note_on_c, 14, 69, 0
3, 7157, Note_on_c, 14, 74, 64
3, 7159, Note_on_c, 14, 68, 56
3, 7318, Note_on_c, 14, 68, 0
3, 7318, Note_on_c, 14, 74, 0
3, 7320, Note_on_c, 14, 72, 64
3, 7321, Note_on_c, 14, 69, 60
3, 7352, Note_on_c, 14, 69, 0
3, 7354, Note_on_c, 14, 72, 0
3, 7565, Note_on_c, 14, 74, 73
3, 7569, Note_on_c, 14, 68, 56
3, 7657, Note_on_c, 14, 68, 0
3, 7668, Note_on_c, 14, 74, 0
3, 7686, Note_on_c, 14, 72, 48
3, 7686, Note_on_c, 14, 69, 48
3, 7706, Note_on_c, 14, 72, 0
3, 7710, Note_on_c, 14, 69, 0
3, 7877, Note_on_c, 14, 74, 60
3, 7879, Note_on_c, 14, 68, 48
3, 8010, Note_on_c, 14, 68, 0
3, 8025, Note_on_c, 14, 74, 0
3, 8043, Note_on_c, 14, 72, 48
3, 8047, Note_on_c, 14, 69, 32
3, 8065, Note_on_c, 14, 72, 0
3, 8070, Note_on_c, 14, 69, 0
3, 8164, Note_on_c, 14, 74, 29
3, 8166, Note_on_c, 14, 68, 27
3, 8270, Note_on_c, 14, 68, 0
3, 8274, Note_on_c, 14, 74, 0
3, 8281, Note_on_c, 14, 72, 56
3, 8281, Note_on_c, 14, 69, 56
3, 8318, Note_on_c, 14, 72, 0
3, 8325, Note_on_c, 14, 69, 0
3, 8474, Note_on_c, 14, 74, 73
3, 8478, Note_on_c, 14, 68, 56
3, 8604, Note_on_c, 14, 68, 0
3, 8628, Note_on_c, 14, 74, 0
3, 8648, Note_on_c, 14, 72, 40
3, 8648, Note_on_c, 14, 69, 31
3, 8671, Note_on_c, 14, 72, 0
3, 8673, Note_on_c, 14, 69, 0
3, 8833, Note_on_c, 14, 74, 56
3, 8835, Note_on_c, 14, 68, 44
3, 8976, Note_on_c, 14, 74, 0
3, 8983, Note_on_c, 14, 68, 0
3, 9084, Note_on_c, 14, 67, 56
3, 9087, Note_on_c, 14, 63, 48
3, 9089, Note_on_c, 14, 60, 48
3, 10059, Note_on_c, 14, 60, 0
3, 10063, Note_on_c, 14, 63, 0
3, 10065, Note_on_c, 14, 67, 0
3, 10322, Note_on_c, 14, 67, 40
3, 10325, Note_on_c, 14, 63, 31
3, 10330, Note_on_c, 14, 60, 28
3, 10400, Note_on_c, 14, 60, 0
3, 10409, Note_on_c, 14, 63, 0
3, 10413, Note_on_c, 14, 67, 0
3, 10440, Note_on_c, 14, 69, 60
3, 10442, Note_on_c, 14, 65, 60
3, 10444, Note_on_c, 14, 62, 56
3, 10487, Note_on_c, 14, 62, 0
3, 10489, Note_on_c, 14, 69, 0
3, 10498, Note_on_c, 14, 65, 0
3, 10524, Note_on_c, 14, 62, 16
3, 10525, Note_on_c, 14, 62, 0
3, 10560, Note_on_c, 14, 70, 48
3, 10560, Note_on_c, 14, 63, 40
3, 10569, Note_on_c, 14, 67, 31
3, 10623, Note_on_c, 14, 70, 0
3, 10635, Note_on_c, 14, 67, 0
3, 10637, Note_on_c, 14, 63, 0
3, 10674, Note_on_c, 14, 69, 56
3, 10676, Note_on_c, 14, 65, 52
3, 10676, Note_on_c, 14, 62, 40
3, 10733, Note_on_c, 14, 62, 0
3, 10752, Note_on_c, 14, 65, 0
3, 10755, Note_on_c, 14, 69, 0
3, 10793, Note_on_c, 14, 67, 40
3, 10795, Note_on_c, 14, 63, 36
3, 10799, Note_on_c, 14, 60, 26
3, 10844, Note_on_c, 14, 60, 0
3, 10878, Note_on_c, 14, 63, 0
3, 10878, Note_on_c, 14, 67, 0
3, 10884, Note_on_c, 14, 62, 40
3, 10884, Note_on_c, 14, 69, 28
3, 10895, Note_on_c, 14, 65, 16
3, 10896, Note_on_c, 14, 65, 0
3, 10898, Note_on_c, 14, 69, 0
3, 10898, Note_on_c, 14, 62, 0
3, 10999, Note_on_c, 14, 67, 73
3, 10999, Note_on_c, 14, 60, 56
3, 11001, Note_on_c, 14, 63, 73
3, 11982, Note_on_c, 14, 63, 0
3, 11984, Note_on_c, 14, 67, 0
3, 11986, Note_on_c, 14, 60, 0
3, 12121, Note_on_c, 14, 67, 25
3, 12123, Note_on_c, 14, 60, 31
3, 12125, Note_on_c, 14, 63, 30
3, 12186, Note_on_c, 14, 60, 0
3, 12186, Note_on_c, 14, 67, 0
3, 12190, Note_on_c, 14, 63, 0
3, 12208, Note_on_c, 14, 60, 52
3, 12240, Note_on_c, 14, 63, 64
3, 12240, Note_on_c, 14, 67, 64
3, 12311, Note_on_c, 14, 60, 0
3, 12314, Note_on_c, 14, 67, 0
3, 12316, Note_on_c, 14, 63, 0
3, 12360, Note_on_c, 14, 69, 19
3, 12363, Note_on_c, 14, 62, 28
3, 12365, Note_on_c, 14, 65, 30
3, 12398, Note_on_c, 14, 69, 0
3, 12420, Note_on_c, 14, 65, 0
3, 12436, Note_on_c, 14, 62, 0
3, 12475, Note_on_c, 14, 70, 44
3, 12475, Note_on_c, 14, 67, 44
3, 12481, Note_on_c, 14, 63, 30
3, 12557, Note_on_c, 14, 63, 0
3, 12559, Note_on_c, 14, 67, 0
3, 12562, Note_on_c, 14, 70, 0
3, 12591, Note_on_c, 14, 65, 44
3, 12599, Note_on_c, 14, 62, 30
3, 12599, Note_on_c, 14, 69, 30
3, 12667, Note_on_c, 14, 62, 0
3, 12669, Note_on_c, 14, 69, 0
3, 12671, Note_on_c, 14, 65, 0
3, 12723, Note_on_c, 14, 67, 40
3, 12723, Note_on_c, 14, 60, 28
3, 12727, Note_on_c, 14, 63, 30
3, 12775, Note_on_c, 14, 63, 0
3, 12778, Note_on_c, 14, 67, 0
3, 12779, Note_on_c, 14, 60, 0
3, 12915, Note_on_c, 14, 56, 36
3, 12917, Note_on_c, 14, 67, 56
3, 12917, Note_on_c, 14, 70, 56
3, 12919, Note_on_c, 14, 60, 56
3, 12919, Note_on_c, 14, 63, 60
3, 13315, Note_on_c, 14, 63, 0
3, 13320, Note_on_c, 14, 70, 0
3, 13320, Note_on_c, 14, 60, 0
3, 13322, Note_on_c, 14, 67, 0
3, 13322, Note_on_c, 14, 56, 0
3, 13396, Note_on_c, 14, 56, 48
3, 13396, Note_on_c, 14, 60, 64
3, 13398, Note_on_c, 14, 70, 48
3, 13398, Note_on_c, 14, 63, 52
3, 13401, Note_on_c, 14, 67, 56
3, 13833, Note_on_c, 14, 70, 0
3, 13835, Note_on_c, 14, 63, 0
3, 13838, Note_on_c, 14, 67, 0
3, 13838, Note_on_c, 14, 60, 0
3, 13842, Note_on_c, 14, 56, 0
3, 13881, Note_on_c, 14, 63, 56
3, 13883, Note_on_c, 14, 60, 64
3, 13883, Note_on_c, 14, 57, 44
3, 13884, Note_on_c, 14, 67, 56
3, 14036, Note_on_c, 14, 67, 0
3, 14036, Note_on_c, 14, 57, 0
3, 14036, Note_on_c, 14, 63, 0
3, 14038, Note_on_c, 14, 60, 0
3, 14108, Note_on_c, 14, 63, 56
3, 14108, Note_on_c, 14, 60, 60
3, 14110, Note_on_c, 14, 67, 60
3, 14112, Note_on_c, 14, 58, 52
3, 14272, Note_on_c, 14, 67, 0
3, 14274, Note_on_c, 14, 63, 0
3, 14281, Note_on_c, 14, 60, 0
3, 14285, Note_on_c, 14, 58, 0
3, 14836, Note_on_c, 14, 67, 60
3, 14838, Note_on_c, 14, 72, 64
3, 14842, Note_on_c, 14, 70, 60
3, 14842, Note_on_c, 14, 62, 48
3, 14842, Note_on_c, 14, 60, 52
3, 14842, Note_on_c, 14, 65, 60
3, 15220, Note_on_c, 14, 72, 0
3, 15226, Note_on_c, 14, 60, 0
3, 15226, Note_on_c, 14, 62, 0
3, 15226, Note_on_c, 14, 67, 0
3, 15226, Note_on_c, 14, 65, 0
3, 15228, Note_on_c, 14, 70, 0
3, 15309, Note_on_c, 14, 70, 60
3, 15312, Note_on_c, 14, 62, 52
3, 15312, Note_on_c, 14, 65, 64
3, 15312, Note_on_c, 14, 60, 56
3, 15392, Note_on_c, 14, 65, 0
3, 15392, Note_on_c, 14, 70, 0
3, 15396, Note_on_c, 14, 62, 0
3, 15396, Note_on_c, 14, 60, 0
3, 15469, Note_on_c, 14, 69, 56
3, 15471, Note_on_c, 14, 65, 60
3, 15473, Note_on_c, 14, 62, 56
3, 15475, Note_on_c, 14, 60, 56
3, 15526, Note_on_c, 14, 62, 0
3, 15531, Note_on_c, 14, 60, 0
3, 15531, Note_on_c, 14, 65, 0
3, 15535, Note_on_c, 14, 69, 0
3, 15596, Note_on_c, 14, 67, 56
3, 15598, Note_on_c, 14, 63, 52
3, 15600, Note_on_c, 14, 58, 52
3, 15656, Note_on_c, 14, 67, 0
3, 15663, Note_on_c, 14, 63, 0
3, 15669, Note_on_c, 14, 58, 0
3, 15719, Note_on_c, 14, 57, 30
3, 15725, Note_on_c, 14, 65, 16
3, 15733, Note_on_c, 14, 57, 0
3, 15735, Note_on_c, 14, 65, 0
3, 15802, Note_on_c, 14, 53, 52
3, 15804, Note_on_c, 14, 65, 64
3, 15808, Note_on_c, 14, 60, 40
3, 15817, Note_on_c, 14, 62, 40
3, 17557, Note_on_c, 14, 53, 0
3, 17559, Note_on_c, 14, 65, 0
3, 17568, Note_on_c, 14, 60, 0
3, 17590, Note_on_c, 14, 62, 0
3, 17599, Note_on_c, 14, 65, 64
3, 17601, Note_on_c, 14, 53, 64
3, 17601, Note_on_c, 14, 60, 82
3, 17619, Note_on_c, 14, 53, 0
3, 17621, Note_on_c, 14, 60, 0
3, 17625, Note_on_c, 14, 65, 0
3, 17724, Note_on_c, 14, 67, 56
3, 17727, Note_on_c, 14, 63, 48
3, 17729, Note_on_c, 14, 60, 48
3, 18699, Note_on_c, 14, 60, 0
3, 18703, Note_on_c, 14, 63, 0
3, 18705, Note_on_c, 14, 67, 0
3, 18962, Note_on_c, 14, 67, 40
3, 18965, Note_on_c, 14, 63, 31
3, 18970, Note_on_c, 14, 60, 28
3, 19040, Note_on_c, 14, 60, 0
3, 19049, Note_on_c, 14, 63, 0
3, 19053, Note_on_c, 14, 67, 0
3, 19080, Note_on_c, 14, 69, 60
3, 19082, Note_on_c, 14, 65, 60
3, 19084, Note_on_c, 14, 62, 56
3, 19127, Note_on_c, 14, 62, 0
3, 19129, Note_on_c, 14, 69, 0
3, 19138, Note_on_c, 14, 65, 0
3, 19164, Note_on_c, 14, 62, 16
3, 19165, Note_on_c, 14, 62, 0
3, 19200, Note_on_c, 14, 70, 48
3, 19200, Note_on_c, 14, 63, 40
3, 19209, Note_on_c, 14, 67, 31
3, 19263, Note_on_c, 14, 70, 0
3, 19275, Note_on_c, 14, 67, 0
3, 19277, Note_on_c, 14, 63, 0
3, 19314, Note_on_c, 14, 69, 56
3, 19316, Note_on_c, 14, 65, 52
3, 19316, Note_on_c, 14, 62, 40
3, 19373, Note_on_c, 14, 62, 0
3, 19392, Note_on_c, 14, 65, 0
3, 19395, Note_on_c, 14, 69, 0
3, 19433, Note_on_c, 14, 67, 40
3, 19435, Note_on_c, 14, 63, 36
3, 19439, Note_on_c, 14, 60, 26
3, 19484, Note_on_c, 14, 60, 0
3, 19518, Note_on_c, 14, 63, 0
3, 19518, Note_on_c, 14, 67, 0
3, 19524, Note_on_c, 14, 62, 40
3, 19524, Note_on_c, 14, 69, 28
3, 19535, Note_on_c, 14, 65, 16
3, 19536, Note_on_c, 14, 65, 0
3, 19538, Note_on_c, 14, 69, 0
3, 19538, Note_on_c, 14, 62, 0
3, 19639, Note_on_c, 14, 67, 73
3, 19639, Note_on_c, 14, 60, 56
3, 19641, Note_on_c, 14, 63, 73
3, 20622, Note_on_c, 14, 63, 0
3, 20624, Note_on_c, 14, 67, 0
3, 20626, Note_on_c, 14, 60, 0
3, 20761, Note_on_c, 14, 67, 25
3, 20763, Note_on_c, 14, 60, 31
3, 20765, Note_on_c, 14, 63, 30
3, 20826, Note_on_c, 14, 60, 0
3, 20826, Note_on_c, 14, 67, 0
3, 20830, Note_on_c, 14, 63, 0
3, 20848, Note_on_c, 14, 60, 52
3, 20880, Note_on_c, 14, 63, 64
3, 20880, Note_on_c, 14, 67, 64
3, 20951, Note_on_c, 14, 60, 0
3, 20954, Note_on_c, 14, 67, 0
3, 20956, Note_on_c, 14, 63, 0
3, 21000, Note_on_c, 14, 69, 19
3, 21003, Note_on_c, 14, 62, 28
3, 21005, Note_on_c, 14, 65, 30
3, 21038, Note_on_c, 14, 69, 0
3, 21060, Note_on_c, 14, 65, 0
3, 21076, Note_on_c, 14, 62, 0
3, 21115, Note_on_c, 14, 70, 44
3, 21115, Note_on_c, 14, 67, 44
3, 21121, Note_on_c, 14, 63, 30
3, 21197, Note_on_c, 14, 63, 0
3, 21199, Note_on_c, 14, 67, 0
3, 21202, Note_on_c, 14, 70, 0
3, 21231, Note_on_c, 14, 65, 44
3, 21239, Note_on_c, 14, 62, 30
3, 21239, Note_on_c, 14, 69, 30
3, 21307, Note_on_c, 14, 62, 0
3, 21309, Note_on_c, 14, 69, 0
3, 21311, Note_on_c, 14, 65, 0
3, 21363, Note_on_c, 14, 67, 40
3, 21363, Note_on_c, 14, 60, 28
3, 21367, Note_on_c, 14, 63, 30
3, 21415, Note_on_c, 14, 63, 0
3, 21418, Note_on_c, 14, 67, 0
3, 21419, Note_on_c, 14, 60, 0
3, 21555, Note_on_c, 14, 56, 36
3, 21557, Note_on_c, 14, 67, 56
3, 21557, Note_on_c, 14, 70, 56
3, 21559, Note_on_c, 14, 60, 56
3, 21559, Note_on_c, 14, 63, 60
3, 21955, Note_on_c, 14, 63, 0
3, 21960, Note_on_c, 14, 70, 0
3, 21960, Note_on_c, 14, 60, 0
3, 21962, Note_on_c, 14, 67, 0
3, 21962, Note_on_c, 14, 56, 0
3, 22036, Note_on_c, 14, 56, 48
3, 22036, Note_on_c, 14, 60, 64
3, 22038, Note_on_c, 14, 70, 48
3, 22038, Note_on_c, 14, 63, 52
3, 22041, Note_on_c, 14, 67, 56
3, 22473, Note_on_c, 14, 70, 0
3, 22475, Note_on_c, 14, 63, 0
3, 22478, Note_on_c, 14, 67, 0
3, 22478, Note_on_c, 14, 60, 0
3, 22482, Note_on_c, 14, 56, 0
3, 22521, Note_on_c, 14, 63, 56
3, 22523, Note_on_c, 14, 60, 64
3, 22523, Note_on_c, 14, 57, 44
3, 22524, Note_on_c, 14, 67, 56
3, 22676, Note_on_c, 14, 67, 0
3, 22676, Note_on_c, 14, 57, 0
3, 22676, Note_on_c, 14, 63, 0
3, 22678, Note_on_c, 14, 60, 0
3, 22748, Note_on_c, 14, 63, 56
3, 22748, Note_on_c, 14, 60, 60
3, 22750, Note_on_c, 14, 67, 60
3, 22752, Note_on_c, 14, 58, 52
3, 22912, Note_on_c, 14, 67, 0
3, 22914, Note_on_c, 14, 63, 0
3, 22921, Note_on_c, 14, 60, 0
3, 22925, Note_on_c, 14, 58, 0
3, 23476, Note_on_c, 14, 67, 60
3, 23478, Note_on_c, 14, 72, 64
3, 23482, Note_on_c, 14, 70, 60
3, 23482, Note_on_c, 14, 62, 48
3, 23482, Note_on_c, 14, 60, 52
3, 23482, Note_on_c, 14, 65, 60
3, 23860, Note_on_c, 14, 72, 0
3, 23866, Note_on_c, 14, 60, 0
3, 23866, Note_on_c, 14, 62, 0
3, 23866, Note_on_c, 14, 67, 0
3, 23866, Note_on_c, 14, 65, 0
3, 23868, Note_on_c, 14, 70, 0
3, 23949, Note_on_c, 14, 70, 60
3, 23952, Note_on_c, 14, 62, 52
3, 23952, Note_on_c, 14, 65, 64
3, 23952, Note_on_c, 14, 60, 56
3, 24032, Note_on_c, 14, 65, 0
3, 24032, Note_on_c, 14, 70, 0
3, 24036, Note_on_c, 14, 62, 0
3, 24036, Note_on_c, 14, 60, 0
3, 24109, Note_on_c, 14, 69, 56
3, 24111, Note_on_c, 14, 65, 60
3, 24113, Note_on_c, 14, 62, 56
3, 24115, Note_on_c, 14, 60, 56
3, 24166, Note_on_c, 14, 62, 0
3, 24171, Note_on_c, 14, 60, 0
3, 24171, Note_on_c, 14, 65, 0
3, 24175, Note_on_c, 14, 69, 0
3, 24236, Note_on_c, 14, 67, 56
3, 24238, Note_on_c, 14, 63, 52
3, 24240, Note_on_c, 14, 58, 52
3, 24296, Note_on_c, 14, 67, 0
3, 24303, Note_on_c, 14, 63, 0
3, 24309, Note_on_c, 14, 58, 0
3, 24359, Note_on_c, 14, 57, 30
3, 24365, Note_on_c, 14, 65, 16
3, 24373, Note_on_c, 14, 57, 0
3, 24375, Note_on_c, 14, 65, 0
3, 24442, Note_on_c, 14, 53, 52
3, 24444, Note_on_c, 14, 65, 64
3, 24448, Note_on_c, 14, 60, 40
3, 24457, Note_on_c, 14, 62, 40
3, 26197, Note_on_c, 14, 53, 0
3, 26199, Note_on_c, 14, 65, 0
3, 26208, Note_on_c, 14, 60, 0
3, 26230, Note_on_c, 14, 62, 0
3, 26239, Note_on_c, 14, 65, 64
3, 26241, Note_on_c, 14, 53, 64
3, 26241, Note_on_c, 14, 60, 82
3, 26259, Note_on_c, 14, 53, 0
3, 26261, Note_on_c, 14, 60, 0
3, 26265, Note_on_c, 14, 65, 0
3, 26346, Note_on_c, 14, 65, 73
3, 26350, Note_on_c, 14, 53, 91
3, 26384, Note_on_c, 14, 65, 0
3, 26389, Note_on_c, 14, 53, 0
3, 38044, Note_on_c, 14, 66, 91
3, 38044, Note_on_c, 14, 62, 64
3, 38107, Note_on_c, 14, 62, 0
3, 38116, Note_on_c, 14, 67, 73
3, 38116, Note_on_c, 14, 63, 73
3, 38127, Note_on_c, 14, 66, 0
3, 38144, Note_on_c, 14, 67, 0
3, 38146, Note_on_c, 14, 63, 0
3, 38232, Note_on_c, 14, 68, 64
3, 38232, Note_on_c, 14, 62, 64
3, 38263, Note_on_c, 14, 62, 0
3, 38270, Note_on_c, 14, 68, 0
3, 38273, Note_on_c, 14, 69, 64
3, 38275, Note_on_c, 14, 65, 60
3, 38313, Note_on_c, 14, 65, 0
3, 38317, Note_on_c, 14, 69, 0
3, 38352, Note_on_c, 14, 72, 73
3, 38353, Note_on_c, 14, 68, 73
3, 38492, Note_on_c, 14, 72, 0
3, 38494, Note_on_c, 14, 68, 0
3, 38515, Note_on_c, 14, 69, 60
3, 38517, Note_on_c, 14, 65, 64
3, 38559, Note_on_c, 14, 69, 0
3, 38564, Note_on_c, 14, 65, 0
3, 38633, Note_on_c, 14, 65, 60
3, 38635, Note_on_c, 14, 60, 40
3, 38723, Note_on_c, 14, 60, 0
3, 38728, Note_on_c, 14, 65, 0
3, 38761, Note_on_c, 14, 65, 60
3, 38761, Note_on_c, 14, 60, 40
3, 38788, Note_on_c, 14, 60, 0
3, 38790, Note_on_c, 14, 65, 0
3, 39799, Note_on_c, 14, 74, 56
3, 39801, Note_on_c, 14, 69, 52
3, 39801, Note_on_c, 14, 65, 56
3, 39837, Note_on_c, 14, 65, 0
3, 39842, Note_on_c, 14, 74, 0
3, 39844, Note_on_c, 14, 69, 0
3, 39844, Note_on_c, 14, 72, 44
3, 39848, Note_on_c, 14, 63, 48
3, 39897, Note_on_c, 14, 72, 0
3, 39916, Note_on_c, 14, 63, 0
3, 41403, Note_on_c, 14, 66, 73
3, 41405, Note_on_c, 14, 62, 64
3, 41472, Note_on_c, 14, 62, 0
3, 41479, Note_on_c, 14, 67, 56
3, 41481, Note_on_c, 14, 63, 40
3, 41492, Note_on_c, 14, 66, 0
3, 41497, Note_on_c, 14, 67, 0
3, 41507, Note_on_c, 14, 63, 0
3, 41595, Note_on_c, 14, 68, 60
3, 41598, Note_on_c, 14, 62, 48
3, 41643, Note_on_c, 14, 69, 48
3, 41645, Note_on_c, 14, 62, 0
3, 41645, Note_on_c, 14, 65, 40
3, 41654, Note_on_c, 14, 68, 0
3, 41658, Note_on_c, 14, 65, 0
3, 41660, Note_on_c, 14, 69, 0
3, 41717, Note_on_c, 14, 74, 64
3, 41719, Note_on_c, 14, 68, 56
3, 41878, Note_on_c, 14, 68, 0
3, 41878, Note_on_c, 14, 74, 0
3, 41880, Note_on_c, 14, 72, 64
3, 41881, Note_on_c, 14, 69, 60
3, 41912, Note_on_c, 14, 69, 0
3, 41914, Note_on_c, 14, 72, 0
3, 42125, Note_on_c, 14, 74, 73
3, 42129, Note_on_c, 14, 68, 56
3, 42217, Note_on_c, 14, 68, 0
3, 42228, Note_on_c, 14, 74, 0
3, 42246, Note_on_c, 14, 72, 48
3, 42246, Note_on_c, 14, 69, 48
3, 42266, Note_on_c, 14, 72, 0
3, 42270, Note_on_c, 14, 69, 0
3, 42437, Note_on_c, 14, 74, 60
3, 42439, Note_on_c, 14, 68, 48
3, 42570, Note_on_c, 14, 68, 0
3, 42585, Note_on_c, 14, 74, 0
3, 42603, Note_on_c, 14, 72, 48
3, 42607, Note_on_c, 14, 69, 32
3, 42625, Note_on_c, 14, 72, 0
3, 42630, Note_on_c, 14, 69, 0
3, 42724, Note_on_c, 14, 74, 29
3, 42726, Note_on_c, 14, 68, 27
3, 42830, Note_on_c, 14, 68, 0
3, 42834, Note_on_c, 14, 74, 0
3, 42841, Note_on_c, 14, 72, 56
3, 42841, Note_on_c, 14, 69, 56
3, 42878, Note_on_c, 14, 72, 0
3, 42885, Note_on_c, 14, 69, 0
3, 43034, Note_on_c, 14, 74, 73
3, 43038, Note_on_c, 14, 68, 56
3, 43164, Note_on_c, 14, 68, 0
3, 43188, Note_on_c, 14, 74, 0
3, 43208, Note_on_c, 14, 72, 40
3, 43208, Note_on_c, 14, 69, 31
3, 43231, Note_on_c, 14, 72, 0
3, 43233, Note_on_c, 14, 69, 0
3, 43393, Note_on_c, 14, 74, 56
3, 43395, Note_on_c, 14, 68, 44
3, 43536, Note_on_c, 14, 74, 0
3, 43543, Note_on_c, 14, 68, 0
3, 43644, Note_on_c, 14, 68, 56
3, 43647, Note_on_c, 14, 64, 48
3, 43649, Note_on_c, 14, 61, 48
3, 44619, Note_on_c, 14, 61, 0
3, 44623, Note_on_c, 14, 64, 0
3, 44625, Note_on_c, 14, 68, 0
3, 44882, Note_on_c, 14, 68, 40
3, 44885, Note_on_c, 14, 64, 31
3, 44890, Note_on_c, 14, 61, 28
3, 44960, Note_on_c, 14, 61, 0
3, 44969, Note_on_c, 14, 64, 0
3, 44973, Note_on_c, 14, 68, 0
3, 45000, Note_on_c, 14, 70, 60
3, 45002, Note_on_c, 14, 66, 60
3, 45004, Note_on_c, 14, 63, 56
3, 45047, Note_on_c, 14, 63, 0
3, 45049, Note_on_c, 14, 70, 0
3, 45058, Note_on_c, 14, 66, 0
3, 45084, Note_on_c, 14, 63, 16
3, 45085, Note_on_c, 14, 63, 0
3, 45120, Note_on_c, 14, 71, 48
3, 45120, Note_on_c, 14, 64, 40
3, 45129, Note_on_c, 14, 68, 31
3, 45183, Note_on_c, 14, 71, 0
3, 45195, Note_on_c, 14, 68, 0
3, 45197, Note_on_c, 14, 64, 0
3, 45234, Note_on_c, 14, 70, 56
3, 45236, Note_on_c, 14, 66, 52
3, 45236, Note_on_c, 14, 63, 40
3, 45293, Note_on_c, 14, 63, 0
3, 45312, Note_on_c, 14, 66, 0
3, 45315, Note_on_c, 14, 70, 0
3, 45353, Note_on_c, 14, 68, 40
3, 45355, Note_on_c, 14, 64, 36
3, 45359, Note_on_c, 14, 61, 26
3, 45404, Note_on_c, 14, 61, 0
3, 45438, Note_on_c, 14, 64, 0
3, 45438, Note_on_c, 14, 68, 0
3, 45444, Note_on_c, 14, 63, 40
3, 45444, Note_on_c, 14, 70, 28
3, 45455, Note_on_c, 14, 66, 16
3, 45456, Note_on_c, 14, 66, 0
3, 45458, Note_on_c, 14, 70, 0
3, 45458, Note_on_c, 14, 63, 0
3, 45559, Note_on_c, 14, 68, 73
3, 45559, Note_on_c, 14, 61, 56
3, 45561, Note_on_c, 14, 64, 73
3, 46542, Note_on_c, 14, 64, 0
3, 46544, Note_on_c, 14, 68, 0
3, 46546, Note_on_c, 14, 61, 0
3, 46681, Note_on_c, 14, 68, 25
3, 46683, Note_on_c, 14, 61, 31
3, 46685, Note_on_c, 14, 64, 30
3, 46746, Note_on_c, 14, 61, 0
3, 46746, Note_on_c, 14, 68, 0
3, 46750, Note_on_c, 14, 64, 0
3, 46768, Note_on_c, 14, 61, 52
3, 46800, Note_on_c, 14, 64, 64
3, 46800, Note_on_c, 14, 68, 64
3, 46871, Note_on_c, 14, 61, 0
3, 46874, Note_on_c, 14, 68, 0
3, 46876, Note_on_c, 14, 64, 0
3, 46920, Note_on_c, 14, 70, 19
3, 46923, Note_on_c, 14, 63, 28
3, 46925, Note_on_c, 14, 66, 30
3, 46958, Note_on_c, 14, 70, 0
3, 46980, Note_on_c, 14, 66, 0
3, 46996, Note_on_c, 14, 63, 0
3, 47035, Note_on_c, 14, 71, 44
3, 47035, Note_on_c, 14, 68, 44
3, 47041, Note_on_c, 14, 64, 30
3, 47117, Note_on_c, 14, 64, 0
3, 47119, Note_on_c, 14, 68, 0
3, 47122, Note_on_c, 14, 71, 0
3, 47151, Note_on_c, 14, 66, 44
3, 47159, Note_on_c, 14, 63, 30
3, 47159, Note_on_c, 14, 70, 30
3, 47227, Note_on_c, 14, 63, 0
3, 47229, Note_on_c, 14, 70, 0
3, 47231, Note_on_c, 14, 66, 0
3, 47283, Note_on_c, 14, 68, 40
3, 47283, Note_on_c, 14, 61, 28
3, 47287, Note_on_c, 14, 64, 30
3, 47335, Note_on_c, 14, 64, 0
3, 47338, Note_on_c, 14, 68, 0
3, 47339, Note_on_c, 14, 61, 0
3, 47475, Note_on_c, 14, 57, 36
3, 47477, Note_on_c, 14, 68, 56
3, 47477, Note_on_c, 14, 71, 56
3, 47479, Note_on_c, 14, 61, 56
3, 47479, Note_on_c, 14, 64, 60
3, 47875, Note_on_c, 14, 64, 0
3, 47880, Note_on_c, 14, 71, 0
3, 47880, Note_on_c, 14, 61, 0
3, 47882, Note_on_c, 14, 68, 0
3, 47882, Note_on_c, 14, 57, 0
3, 47956, Note_on_c, 14, 57, 48
3, 47956, Note_on_c, 14, 61, 64
3, 47958, Note_on_c, 14, 71, 48
3, 47958, Note_on_c, 14, 64, 52
3, 47961, Note_on_c, 14, 68, 56
3, 48393, Note_on_c, 14, 71, 0
3, 48395, Note_on_c, 14, 64, 0
3, 48398, Note_on_c, 14, 68, 0
3, 48398, Note_on_c, 14, 61, 0
3, 48402, Note_on_c, 14, 57, 0
3, 48441, Note_on_c, 14, 64, 56
3, 48443, Note_on_c, 14, 61, 64
3, 48443, Note_on_c, 14, 58, 44
3, 48444, Note_on_c, 14, 68, 56
3, 48596, Note_on_c, 14, 68, 0
3, 48596, Note_on_c, 14, 58, 0
3, 48596, Note_on_c, 14, 64, 0
3, 48598, Note_on_c, 14, 61, 0
3, 48668, Note_on_c, 14, 64, 56
3, 48668, Note_on_c, 14, 61, 60
3, 48670, Note_on_c, 14, 68, 60
3, 48672, Note_on_c, 14, 59, 52
3, 48832, Note_on_c, 14, 68, 0
3, 48834, Note_on_c, 14, 64, 0
3, 48841, Note_on_c, 14, 61, 0
3, 48845, Note_on_c, 14, 59, 0
3, 49396, Note_on_c, 14, 68, 60
3, 49398, Note_on_c, 14, 73, 64
3, 49402, Note_on_c, 14, 71, 60
3, 49402, Note_on_c, 14, 63, 48
3, 49402, Note_on_c, 14, 61, 52
3, 49402, Note_on_c, 14, 66, 60
3, 49780, Note_on_c, 14, 73, 0
3, 49786, Note_on_c, 14, 61, 0
3, 49786, Note_on_c, 14, 63, 0
3, 49786, Note_on_c, 14, 68, 0
3, 49786, Note_on_c, 14, 66, 0
3, 49788, Note_on_c, 14, 71, 0
3, 49869, Note_on_c, 14, 71, 60
3, 49872, Note_on_c, 14, 63, 52
3, 49872, Note_on_c, 14, 66, 64
3, 49872, Note_on_c, 14, 61, 56
3, 49952, Note_on_c, 14, 66, 0
3, 49952, Note_on_c, 14, 71, 0
3, 49956, Note_on_c, 14, 63, 0
3, 49956, Note_on_c, 14, 61, 0
3, 50029, Note_on_c, 14, 70, 56
3, 50031, Note_on_c, 14, 66, 60
3, 50033, Note_on_c, 14, 63, 56
3, 50035, Note_on_c, 14, 61, 56
3, 50086, Note_on_c, 14, 63, 0
3, 50091, Note_on_c, 14, 61, 0
3, 50091, Note_on_c, 14, 66, 0
3, 50095, Note_on_c, 14, 70, 0
3, 50156, Note_on_c, 14, 68, 56
3, 50158, Note_on_c, 14, 64, 52
3, 50160, Note_on_c, 14, 59, 52
3, 50216, Note_on_c, 14, 68, 0
3, 50223, Note_on_c, 14, 64, 0
3, 50229, Note_on_c, 14, 59, 0
3, 50279, Note_on_c, 14, 58, 30
3, 50293, Note_on_c, 14, 58, 0
3, 50293, End_track
4, 0, Start_track
4, 0, MIDI_port, 0
4, 0, Title_t, "el piano"
4, 0, Control_c, 10, 0, 56
4, 0, Control_c, 10, 32, 0
4, 0, Program_c, 10, 4
4, 0, Control_c, 10, 7, 80
4, 0, Control_c, 10, 10, 64
4, 9080, Note_on_c, 10, 67, 73
4, 9081, Note_on_c, 10, 63, 73
4, 9082, Note_on_c, 10, 60, 73
4, 9083, Note_on_c, 10, 58, 64
4, 9992, Note_on_c, 10, 63, 0
4, 9995, Note_on_c, 10, 60, 0
4, 10014, Note_on_c, 10, 58, 0
4, 10018, Note_on_c, 10, 67, 0
4, 10160, Note_on_c, 10, 58, 44
4, 10169, Note_on_c, 10, 58, 0
4, 10200, Note_on_c, 10, 67, 73
4, 10202, Note_on_c, 10, 63, 73
4, 10202, Note_on_c, 10, 60, 64
4, 10270, Note_on_c, 10, 63, 0
4, 10272, Note_on_c, 10, 60, 0
4, 10272, Note_on_c, 10, 67, 0
4, 10283, Note_on_c, 10, 58, 16
4, 10285, Note_on_c, 10, 58, 0
4, 10314, Note_on_c, 10, 67, 48
4, 10320, Note_on_c, 10, 63, 40
4, 10320, Note_on_c, 10, 60, 29
4, 10399, Note_on_c, 10, 60, 0
4, 10399, Note_on_c, 10, 58, 40
4, 10401, Note_on_c, 10, 63, 0
4, 10404, Note_on_c, 10, 67, 0
4, 10408, Note_on_c, 10, 58, 0
4, 10435, Note_on_c, 10, 65, 64
4, 10437, Note_on_c, 10, 69, 60
4, 10439, Note_on_c, 10, 62, 44
4, 10493, Note_on_c, 10, 65, 0
4, 10499, Note_on_c, 10, 62, 0
4, 10506, Note_on_c, 10, 69, 0
4, 10565, Note_on_c, 10, 67, 56
4, 10565, Note_on_c, 10, 70, 48
4, 10565, Note_on_c, 10, 63, 52
4, 10634, Note_on_c, 10, 67, 0
4, 10641, Note_on_c, 10, 63, 0
4, 10641, Note_on_c, 10, 70, 0
4, 10679, Note_on_c, 10, 69, 64
4, 10681, Note_on_c, 10, 65, 73
4, 10681, Note_on_c, 10, 62, 64
4, 10752, Note_on_c, 10, 65, 0
4, 10755, Note_on_c, 10, 62, 0
4, 10763, Note_on_c, 10, 69, 0
4, 10763, Note_on_c, 10, 58, 30
4, 10779, Note_on_c, 10, 58, 0
4, 10804, Note_on_c, 10, 60, 56
4, 10806, Note_on_c, 10, 63, 56
4, 10806, Note_on_c, 10, 67, 64
4, 10853, Note_on_c, 10, 60, 0
4, 10880, Note_on_c, 10, 67, 0
4, 10880, Note_on_c, 10, 69, 44
4, 10884, Note_on_c, 10, 62, 48
4, 10884, Note_on_c, 10, 65, 56
4, 10891, Note_on_c, 10, 63, 0
4, 10897, Note_on_c, 10, 65, 0
4, 10898, Note_on_c, 10, 69, 0
4, 10900, Note_on_c, 10, 62, 0
4, 11000, Note_on_c, 10, 58, 64
4, 11002, Note_on_c, 10, 67, 73
4, 11002, Note_on_c, 10, 63, 73
4, 11932, Note_on_c, 10, 60, 73
4, 11932, Note_on_c, 10, 60, 0
4, 11934, Note_on_c, 10, 58, 0
4, 11936, Note_on_c, 10, 67, 0
4, 11938, Note_on_c, 10, 63, 0
4, 12123, Note_on_c, 10, 67, 52
4, 12123, Note_on_c, 10, 63, 40
4, 12123, Note_on_c, 10, 60, 36
4, 12185, Note_on_c, 10, 67, 0
4, 12187, Note_on_c, 10, 60, 0
4, 12189, Note_on_c, 10, 63, 0
4, 12203, Note_on_c, 10, 58, 16
4, 12209, Note_on_c, 10, 58, 0
4, 12245, Note_on_c, 10, 60, 56
4, 12245, Note_on_c, 10, 67, 64
4, 12245, Note_on_c, 10, 63, 64
4, 12319, Note_on_c, 10, 60, 0
4, 12319, Note_on_c, 10, 58, 40
4, 12321, Note_on_c, 10, 63, 0
4, 12321, Note_on_c, 10, 67, 0
4, 12328, Note_on_c, 10, 58, 0
4, 12362, Note_on_c, 10, 62, 73
4, 12362, Note_on_c, 10, 69, 64
4, 12362, Note_on_c, 10, 65, 64
4, 12415, Note_on_c, 10, 69, 0
4, 12420, Note_on_c, 10, 65, 0
4, 12428, Note_on_c, 10, 62, 0
4, 12444, Note_on_c, 10, 58, 16
4, 12447, Note_on_c, 10, 58, 0
4, 12482, Note_on_c, 10, 67, 60
4, 12486, Note_on_c, 10, 63, 44
4, 12486, Note_on_c, 10, 70, 60
4, 12488, Note_on_c, 10, 62, 56
4, 12562, Note_on_c, 10, 62, 0
4, 12562, Note_on_c, 10, 70, 0
4, 12571, Note_on_c, 10, 63, 0
4, 12574, Note_on_c, 10, 67, 0
4, 12601, Note_on_c, 10, 69, 64
4, 12601, Note_on_c, 10, 65, 73
4, 12679, Note_on_c, 10, 65, 0
4, 12679, Note_on_c, 10, 69, 0
4, 12679, Note_on_c, 10, 60, 60
4, 12679, Note_on_c, 10, 60, 0
4, 12683, Note_on_c, 10, 58, 40
4, 12694, Note_on_c, 10, 58, 0
4, 12721, Note_on_c, 10, 67, 64
4, 12721, Note_on_c, 10, 60, 56
4, 12723, Note_on_c, 10, 63, 64
4, 12775, Note_on_c, 10, 63, 0
4, 12780, Note_on_c, 10, 67, 0
4, 12799, Note_on_c, 10, 67, 44
4, 12802, Note_on_c, 10, 63, 36
4, 12806, Note_on_c, 10, 60, 0
4, 12812, Note_on_c, 10, 63, 0
4, 12812, Note_on_c, 10, 67, 0
4, 12909, Note_on_c, 10, 63, 73
4, 12909, Note_on_c, 10, 67, 60
4, 12911, Note_on_c, 10, 60, 48
4, 12913, Note_on_c, 10, 70, 82
4, 13287, Note_on_c, 10, 70, 0
4, 13289, Note_on_c, 10, 60, 0
4, 13293, Note_on_c, 10, 67, 0
4, 13298, Note_on_c, 10, 63, 0
4, 13399, Note_on_c, 10, 70, 56
4, 13399, Note_on_c, 10, 63, 56
4, 13401, Note_on_c, 10, 67, 60
4, 13401, Note_on_c, 10, 60, 52
4, 13736, Note_on_c, 10, 70, 0
4, 13745, Note_on_c, 10, 67, 0
4, 13754, Note_on_c, 10, 63, 0
4, 13762, Note_on_c, 10, 60, 0
4, 13875, Note_on_c, 10, 67, 64
4, 13877, Note_on_c, 10, 60, 56
4, 14142, Note_on_c, 10, 67, 0
4, 14147, Note_on_c, 10, 60, 0
4, 14352, Note_on_c, 10, 57, 64
4, 14354, Note_on_c, 10, 62, 64
4, 14354, Note_on_c, 10, 65, 64
4, 14459, Note_on_c, 10, 65, 0
4, 14461, Note_on_c, 10, 62, 0
4, 14461, Note_on_c, 10, 57, 0
4, 14594, Note_on_c, 10, 64, 73
4, 14594, Note_on_c, 10, 55, 56
4, 14594, Note_on_c, 10, 60, 56
4, 14736, Note_on_c, 10, 60, 0
4, 14736, Note_on_c, 10, 55, 0
4, 14736, Note_on_c, 10, 64, 0
4, 14837, Note_on_c, 10, 62, 56
4, 14841, Note_on_c, 10, 60, 56
4, 14841, Note_on_c, 10, 72, 73
4, 14841, Note_on_c, 10, 71, 82
4, 14847, Note_on_c, 10, 71, 0
4, 14856, Note_on_c, 10, 71, 16
4, 14868, Note_on_c, 10, 71, 0
4, 15162, Note_on_c, 10, 72, 0
4, 15179, Note_on_c, 10, 62, 0
4, 15184, Note_on_c, 10, 60, 0
4, 15312, Note_on_c, 10, 62, 52
4, 15312, Note_on_c, 10, 70, 56
4, 15314, Note_on_c, 10, 65, 64
4, 15413, Note_on_c, 10, 70, 0
4, 15429, Note_on_c, 10, 62, 0
4, 15436, Note_on_c, 10, 65, 0
4, 15469, Note_on_c, 10, 69, 60
4, 15471, Note_on_c, 10, 60, 48
4, 15473, Note_on_c, 10, 65, 60
4, 15500, Note_on_c, 10, 65, 0
4, 15500, Note_on_c, 10, 69, 0
4, 15511, Note_on_c, 10, 60, 0
4, 15594, Note_on_c, 10, 67, 73
4, 15596, Note_on_c, 10, 63, 60
4, 15596, Note_on_c, 10, 58, 60
4, 15677, Note_on_c, 10, 58, 0
4, 15693, Note_on_c, 10, 63, 0
4, 15693, Note_on_c, 10, 67, 0
4, 15801, Note_on_c, 10, 60, 73
4, 15805, Note_on_c, 10, 65, 64
4, 15830, Note_on_c, 10, 62, 21
4, 16611, Note_on_c, 10, 60, 0
4, 16615, Note_on_c, 10, 62, 0
4, 16617, Note_on_c, 10, 65, 0
4, 16639, Note_on_c, 10, 65, 56
4, 16641, Note_on_c, 10, 60, 52
4, 16643, Note_on_c, 10, 62, 56
4, 16652, Note_on_c, 10, 62, 0
4, 16655, Note_on_c, 10, 60, 0
4, 16657, Note_on_c, 10, 65, 0
4, 16760, Note_on_c, 10, 65, 52
4, 16762, Note_on_c, 10, 62, 56
4, 16762, Note_on_c, 10, 60, 52
4, 16852, Note_on_c, 10, 60, 0
4, 16856, Note_on_c, 10, 65, 0
4, 16858, Note_on_c, 10, 62, 0
4, 16874, Note_on_c, 10, 65, 48
4, 16874, Note_on_c, 10, 62, 52
4, 16874, Note_on_c, 10, 60, 52
4, 16883, Note_on_c, 10, 60, 0
4, 16885, Note_on_c, 10, 62, 0
4, 16885, Note_on_c, 10, 65, 0
4, 17600, Note_on_c, 10, 65, 64
4, 17602, Note_on_c, 10, 60, 64
4, 17611, Note_on_c, 10, 65, 0
4, 17615, Note_on_c, 10, 60, 0
4, 17720, Note_on_c, 10, 67, 73
4, 17721, Note_on_c, 10, 63, 73
4, 17722, Note_on_c, 10, 60, 73
4, 17723, Note_on_c, 10, 58, 64
4, 18632, Note_on_c, 10, 63, 0
4, 18635, Note_on_c, 10, 60, 0
4, 18654, Note_on_c, 10, 58, 0
4, 18658, Note_on_c, 10, 67, 0
4, 18800, Note_on_c, 10, 58, 44
4, 18809, Note_on_c, 10, 58, 0
4, 18840, Note_on_c, 10, 67, 73
4, 18842, Note_on_c, 10, 63, 73
4, 18842, Note_on_c, 10, 60, 64
4, 18910, Note_on_c, 10, 63, 0
4, 18912, Note_on_c, 10, 60, 0
4, 18912, Note_on_c, 10, 67, 0
4, 18923, Note_on_c, 10, 58, 16
4, 18925, Note_on_c, 10, 58, 0
4, 18954, Note_on_c, 10, 67, 48
4, 18960, Note_on_c, 10, 63, 40
4, 18960, Note_on_c, 10, 60, 29
4, 19039, Note_on_c, 10, 60, 0
4, 19039, Note_on_c, 10, 58, 40
4, 19041, Note_on_c, 10, 63, 0
4, 19044, Note_on_c, 10, 67, 0
4, 19048, Note_on_c, 10, 58, 0
4, 19075, Note_on_c, 10, 65, 64
4, 19077, Note_on_c, 10, 69, 60
4, 19079, Note_on_c, 10, 62, 44
4, 19133, Note_on_c, 10, 65, 0
4, 19139, Note_on_c, 10, 62, 0
4, 19146, Note_on_c, 10, 69, 0
4, 19205, Note_on_c, 10, 67, 56
4, 19205, Note_on_c, 10, 70, 48
4, 19205, Note_on_c, 10, 63, 52
4, 19274, Note_on_c, 10, 67, 0
4, 19281, Note_on_c, 10, 63, 0
4, 19281, Note_on_c, 10, 70, 0
4, 19319, Note_on_c, 10, 69, 64
4, 19321, Note_on_c, 10, 65, 73
4, 19321, Note_on_c, 10, 62, 64
4, 19392, Note_on_c, 10, 65, 0
4, 19395, Note_on_c, 10, 62, 0
4, 19403, Note_on_c, 10, 69, 0
4, 19403, Note_on_c, 10, 58, 30
4, 19419, Note_on_c, 10, 58, 0
4, 19444, Note_on_c, 10, 60, 56
4, 19446, Note_on_c, 10, 63, 56
4, 19446, Note_on_c, 10, 67, 64
4, 19493, Note_on_c, 10, 60, 0
4, 19520, Note_on_c, 10, 67, 0
4, 19520, Note_on_c, 10, 69, 44
4, 19524, Note_on_c, 10, 62, 48
4, 19524, Note_on_c, 10, 65, 56
4, 19531, Note_on_c, 10, 63, 0
4, 19537, Note_on_c, 10, 65, 0
4, 19538, Note_on_c, 10, 69, 0
4, 19540, Note_on_c, 10, 62, 0
4, 19640, Note_on_c, 10, 58, 64
4, 19642, Note_on_c, 10, 67, 73
4, 19642, Note_on_c, 10, 63, 73
4, 20572, Note_on_c, 10, 60, 73
4, 20572, Note_on_c, 10, 60, 0
4, 20574, Note_on_c, 10, 58, 0
4, 20576, Note_on_c, 10, 67, 0
4, 20578, Note_on_c, 10, 63, 0
4, 20763, Note_on_c, 10, 67, 52
4, 20763, Note_on_c, 10, 63, 40
4, 20763, Note_on_c, 10, 60, 36
4, 20825, Note_on_c, 10, 67, 0
4, 20827, Note_on_c, 10, 60, 0
4, 20829, Note_on_c, 10, 63, 0
4, 20843, Note_on_c, 10, 58, 16
4, 20849, Note_on_c, 10, 58, 0
4, 20885, Note_on_c, 10, 60, 56
4, 20885, Note_on_c, 10, 67, 64
4, 20885, Note_on_c, 10, 63, 64
4, 20959, Note_on_c, 10, 60, 0
4, 20959, Note_on_c, 10, 58, 40
4, 20961, Note_on_c, 10, 63, 0
4, 20961, Note_on_c, 10, 67, 0
4, 20968, Note_on_c, 10, 58, 0
4, 21002, Note_on_c, 10, 62, 73
4, 21002, Note_on_c, 10, 69, 64
4, 21002, Note_on_c, 10, 65, 64
4, 21055, Note_on_c, 10, 69, 0
4, 21060, Note_on_c, 10, 65, 0
4, 21068, Note_on_c, 10, 62, 0
4, 21084, Note_on_c, 10, 58, 16
4, 21087, Note_on_c, 10, 58, 0
4, 21122, Note_on_c, 10, 67, 60
4, 21126, Note_on_c, 10, 63, 44
4, 21126, Note_on_c, 10, 70, 60
4, 21128, Note_on_c, 10, 62, 56
4, 21202, Note_on_c, 10, 62, 0
4, 21202, Note_on_c, 10, 70, 0
4, 21211, Note_on_c, 10, 63, 0
4, 21214, Note_on_c, 10, 67, 0
4, 21241, Note_on_c, 10, 69, 64
4, 21241, Note_on_c, 10, 65, 73
4, 21319, Note_on_c, 10, 65, 0
4, 21319, Note_on_c, 10, 69, 0
4, 21319, Note_on_c, 10, 60, 60
4, 21319, Note_on_c, 10, 60, 0
4, 21323, Note_on_c, 10, 58, 40
4, 21334, Note_on_c, 10, 58, 0
4, 21361, Note_on_c, 10, 67, 64
4, 21361, Note_on_c, 10, 60, 56
4, 21363, Note_on_c, 10, 63, 64
4, 21415, Note_on_c, 10, 63, 0
4, 21420, Note_on_c, 10, 67, 0
4, 21439, Note_on_c, 10, 67, 44
4, 21442, Note_on_c, 10, 63, 36
4, 21446, Note_on_c, 10, 60, 0
4, 21452, Note_on_c, 10, 63, 0
4, 21452, Note_on_c, 10, 67, 0
4, 21549, Note_on_c, 10, 63, 73
4, 21549, Note_on_c, 10, 67, 60
4, 21551, Note_on_c, 10, 60, 48
4, 21553, Note_on_c, 10, 70, 82
4, 21927, Note_on_c, 10, 70, 0
4, 21929, Note_on_c, 10, 60, 0
4, 21933, Note_on_c, 10, 67, 0
4, 21938, Note_on_c, 10, 63, 0
4, 22039, Note_on_c, 10, 70, 56
4, 22039, Note_on_c, 10, 63, 56
4, 22041, Note_on_c, 10, 67, 60
4, 22041, Note_on_c, 10, 60, 52
4, 22376, Note_on_c, 10, 70, 0
4, 22385, Note_on_c, 10, 67, 0
4, 22394, Note_on_c, 10, 63, 0
4, 22402, Note_on_c, 10, 60, 0
4, 22515, Note_on_c, 10, 67, 64
4, 22517, Note_on_c, 10, 60, 56
4, 22782, Note_on_c, 10, 67, 0
4, 22787, Note_on_c, 10, 60, 0
4, 22992, Note_on_c, 10, 57, 64
4, 22994, Note_on_c, 10, 62, 64
4, 22994, Note_on_c, 10, 65, 64
4, 23099, Note_on_c, 10, 65, 0
4, 23101, Note_on_c, 10, 62, 0
4, 23101, Note_on_c, 10, 57, 0
4, 23234, Note_on_c, 10, 64, 73
4, 23234, Note_on_c, 10, 55, 56
4, 23234, Note_on_c, 10, 60, 56
4, 23376, Note_on_c, 10, 60, 0
4, 23376, Note_on_c, 10, 55, 0
4, 23376, Note_on_c, 10, 64, 0
4, 23477, Note_on_c, 10, 62, 56
4, 23481, Note_on_c, 10, 60, 56
4, 23481, Note_on_c, 10, 72, 73
4, 23481, Note_on_c, 10, 71, 82
4, 23487, Note_on_c, 10, 71, 0
4, 23496, Note_on_c, 10, 71, 16
4, 23508, Note_on_c, 10, 71, 0
4, 23802, Note_on_c, 10, 72, 0
4, 23819, Note_on_c, 10, 62, 0
4, 23824, Note_on_c, 10, 60, 0
4, 23952, Note_on_c, 10, 62, 52
4, 23952, Note_on_c, 10, 70, 56
4, 23954, Note_on_c, 10, 65, 64
4, 24053, Note_on_c, 10, 70, 0
4, 24069, Note_on_c, 10, 62, 0
4, 24076, Note_on_c, 10, 65, 0
4, 24109, Note_on_c, 10, 69, 60
4, 24111, Note_on_c, 10, 60, 48
4, 24113, Note_on_c, 10, 65, 60
4, 24140, Note_on_c, 10, 65, 0
4, 24140, Note_on_c, 10, 69, 0
4, 24151, Note_on_c, 10, 60, 0
4, 24234, Note_on_c, 10, 67, 73
4, 24236, Note_on_c, 10, 63, 60
4, 24236, Note_on_c, 10, 58, 60
4, 24317, Note_on_c, 10, 58, 0
4, 24333, Note_on_c, 10, 63, 0
4, 24333, Note_on_c, 10, 67, 0
4, 24441, Note_on_c, 10, 60, 73
4, 24445, Note_on_c, 10, 65, 64
4, 24470, Note_on_c, 10, 62, 21
4, 25251, Note_on_c, 10, 60, 0
4, 25255, Note_on_c, 10, 62, 0
4, 25257, Note_on_c, 10, 65, 0
4, 25279, Note_on_c, 10, 65, 56
4, 25281, Note_on_c, 10, 60, 52
4, 25283, Note_on_c, 10, 62, 56
4, 25292, Note_on_c, 10, 62, 0
4, 25295, Note_on_c, 10, 60, 0
4, 25297, Note_on_c, 10, 65, 0
4, 25400, Note_on_c, 10, 65, 52
4, 25402, Note_on_c, 10, 62, 56
4, 25402, Note_on_c, 10, 60, 52
4, 25492, Note_on_c, 10, 60, 0
4, 25496, Note_on_c, 10, 65, 0
4, 25498, Note_on_c, 10, 62, 0
4, 25514, Note_on_c, 10, 65, 48
4, 25514, Note_on_c, 10, 62, 52
4, 25514, Note_on_c, 10, 60, 52
4, 25523, Note_on_c, 10, 60, 0
4, 25525, Note_on_c, 10, 62, 0
4, 25525, Note_on_c, 10, 65, 0
4, 26240, Note_on_c, 10, 65, 64
4, 26242, Note_on_c, 10, 60, 64
4, 26251, Note_on_c, 10, 65, 0
4, 26255, Note_on_c, 10, 60, 0
4, 26481, Note_on_c, 10, 56, 56
4, 26483, Note_on_c, 10, 50, 52
4, 26594, Note_on_c, 10, 57, 52
4, 26596, Note_on_c, 10, 50, 0
4, 26596, Note_on_c, 10, 56, 0
4, 26596, Note_on_c, 10, 51, 52
4, 27565, Note_on_c, 10, 57, 0
4, 27581, Note_on_c, 10, 51, 0
4, 28404, Note_on_c, 10, 56, 48
4, 28407, Note_on_c, 10, 50, 36
4, 28516, Note_on_c, 10, 56, 0
4, 28516, Note_on_c, 10, 57, 56
4, 28518, Note_on_c, 10, 50, 0
4, 28520, Note_on_c, 10, 51, 56
4, 29655, Note_on_c, 10, 57, 0
4, 29659, Note_on_c, 10, 51, 0
4, 30073, Note_on_c, 10, 66, 60
4, 30075, Note_on_c, 10, 61, 60
4, 30077, Note_on_c, 10, 55, 52
4, 30120, Note_on_c, 10, 55, 0
4, 30120, Note_on_c, 10, 61, 0
4, 30129, Note_on_c, 10, 66, 0
4, 30194, Note_on_c, 10, 56, 40
4, 30196, Note_on_c, 10, 67, 40
4, 30198, Note_on_c, 10, 62, 56
4, 30198, Note_on_c, 10, 60, 56
4, 30589, Note_on_c, 10, 56, 0
4, 30591, Note_on_c, 10, 67, 0
4, 30591, Note_on_c, 10, 62, 0
4, 30591, Note_on_c, 10, 60, 0
4, 30688, Note_on_c, 10, 67, 60
4, 30688, Note_on_c, 10, 62, 60
4, 30688, Note_on_c, 10, 60, 64
4, 30688, Note_on_c, 10, 56, 60
4, 30728, Note_on_c, 10, 56, 0
4, 30730, Note_on_c, 10, 60, 0
4, 30732, Note_on_c, 10, 62, 0
4, 30734, Note_on_c, 10, 67, 0
4, 31155, Note_on_c, 10, 67, 56
4, 31157, Note_on_c, 10, 63, 56
4, 31158, Note_on_c, 10, 57, 40
4, 31158, Note_on_c, 10, 60, 56
4, 31534, Note_on_c, 10, 67, 0
4, 31537, Note_on_c, 10, 63, 0
4, 31537, Note_on_c, 10, 57, 0
4, 31539, Note_on_c, 10, 60, 0
4, 31640, Note_on_c, 10, 66, 36
4, 31644, Note_on_c, 10, 61, 31
4, 31645, Note_on_c, 10, 55, 40
4, 31691, Note_on_c, 10, 66, 0
4, 31700, Note_on_c, 10, 61, 0
4, 31702, Note_on_c, 10, 55, 0
4, 31871, Note_on_c, 10, 65, 44
4, 31872, Note_on_c, 10, 60, 52
4, 31880, Note_on_c, 10, 54, 31
4, 31927, Note_on_c, 10, 60, 0
4, 31929, Note_on_c, 10, 65, 0
4, 31932, Note_on_c, 10, 54, 0
4, 32112, Note_on_c, 10, 58, 56
4, 32118, Note_on_c, 10, 60, 64
4, 32118, Note_on_c, 10, 62, 56
4, 32118, Note_on_c, 10, 55, 52
4, 32118, Note_on_c, 10, 53, 56
4, 32504, Note_on_c, 10, 60, 0
4, 32507, Note_on_c, 10, 58, 0
4, 32509, Note_on_c, 10, 62, 0
4, 32511, Note_on_c, 10, 55, 0
4, 32511, Note_on_c, 10, 53, 0
4, 32597, Note_on_c, 10, 62, 64
4, 32600, Note_on_c, 10, 58, 60
4, 32600, Note_on_c, 10, 53, 60
4, 32727, Note_on_c, 10, 53, 0
4, 32747, Note_on_c, 10, 62, 0
4, 32751, Note_on_c, 10, 58, 0
4, 32765, Note_on_c, 10, 53, 23
4, 32769, Note_on_c, 10, 60, 16
4, 32774, Note_on_c, 10, 60, 0
4, 32778, Note_on_c, 10, 53, 0
4, 32885, Note_on_c, 10, 63, 73
4, 32885, Note_on_c, 10, 58, 64
4, 32887, Note_on_c, 10, 55, 56
4, 32944, Note_on_c, 10, 55, 0
4, 32946, Note_on_c, 10, 58, 0
4, 32952, Note_on_c, 10, 63, 0
4, 32968, Note_on_c, 10, 62, 48
4, 32970, Note_on_c, 10, 58, 29
4, 32977, Note_on_c, 10, 53, 16
4, 32979, Note_on_c, 10, 53, 0
4, 32979, Note_on_c, 10, 62, 0
4, 32983, Note_on_c, 10, 58, 0
4, 33089, Note_on_c, 10, 60, 44
4, 33091, Note_on_c, 10, 65, 31
4, 33093, Note_on_c, 10, 53, 27
4, 33460, Note_on_c, 10, 65, 0
4, 33462, Note_on_c, 10, 60, 0
4, 33466, Note_on_c, 10, 53, 0
4, 33559, Note_on_c, 10, 56, 52
4, 33559, Note_on_c, 10, 62, 64
4, 33608, Note_on_c, 10, 57, 32
4, 33619, Note_on_c, 10, 56, 0
4, 33819, Note_on_c, 10, 62, 0
4, 33824, Note_on_c, 10, 57, 0
4, 33916, Note_on_c, 10, 56, 73
4, 33918, Note_on_c, 10, 50, 52
4, 33945, Note_on_c, 10, 50, 0
4, 33947, Note_on_c, 10, 56, 0
4, 34032, Note_on_c, 10, 51, 36
4, 34034, Note_on_c, 10, 57, 31
4, 34532, Note_on_c, 10, 57, 0
4, 34532, Note_on_c, 10, 51, 0
4, 43640, Note_on_c, 10, 68, 73
4, 43641, Note_on_c, 10, 64, 73
4, 43642, Note_on_c, 10, 61, 73
4, 43643, Note_on_c, 10, 59, 64
4, 44552, Note_on_c, 10, 64, 0
4, 44555, Note_on_c, 10, 61, 0
4, 44574, Note_on_c, 10, 59, 0
4, 44578, Note_on_c, 10, 68, 0
4, 44720, Note_on_c, 10, 59, 44
4, 44729, Note_on_c, 10, 59, 0
4, 44760, Note_on_c, 10, 68, 73
4, 44762, Note_on_c, 10, 64, 73
4, 44762, Note_on_c, 10, 61, 64
4, 44830, Note_on_c, 10, 64, 0
4, 44832, Note_on_c, 10, 61, 0
4, 44832, Note_on_c, 10, 68, 0
4, 44843, Note_on_c, 10, 59, 16
4, 44845, Note_on_c, 10, 59, 0
4, 44874, Note_on_c, 10, 68, 48
4, 44880, Note_on_c, 10, 64, 40
4, 44880, Note_on_c, 10, 61, 29
4, 44959, Note_on_c, 10, 61, 0
4, 44959, Note_on_c, 10, 59, 40
4, 44961, Note_on_c, 10, 64, 0
4, 44964, Note_on_c, 10, 68, 0
4, 44968, Note_on_c, 10, 59, 0
4, 44995, Note_on_c, 10, 66, 64
4, 44997, Note_on_c, 10, 70, 60
4, 44999, Note_on_c, 10, 63, 44
4, 45053, Note_on_c, 10, 66, 0
4, 45059, Note_on_c, 10, 63, 0
4, 45066, Note_on_c, 10, 70, 0
4, 45125, Note_on_c, 10, 68, 56
4, 45125, Note_on_c, 10, 71, 48
4, 45125, Note_on_c, 10, 64, 52
4, 45194, Note_on_c, 10, 68, 0
4, 45201, Note_on_c, 10, 64, 0
4, 45201, Note_on_c, 10, 71, 0
4, 45239, Note_on_c, 10, 70, 64
4, 45241, Note_on_c, 10, 66, 73
4, 45241, Note_on_c, 10, 63, 64
4, 45312, Note_on_c, 10, 66, 0
4, 45315, Note_on_c, 10, 63, 0
4, 45323, Note_on_c, 10, 70, 0
4, 45323, Note_on_c, 10, 59, 30
4, 45339, Note_on_c, 10, 59, 0
4, 45364, Note_on_c, 10, 61, 56
4, 45366, Note_on_c, 10, 64, 56
4, 45366, Note_on_c, 10, 68, 64
4, 45413, Note_on_c, 10, 61, 0
4, 45440, Note_on_c, 10, 68, 0
4, 45440, Note_on_c, 10, 70, 44
4, 45444, Note_on_c, 10, 63, 48
4, 45444, Note_on_c, 10, 66, 56
4, 45451, Note_on_c, 10, 64, 0
4, 45457, Note_on_c, 10, 66, 0
4, 45458, Note_on_c, 10, 70, 0
4, 45460, Note_on_c, 10, 63, 0
4, 45560, Note_on_c, 10, 59, 64
4, 45562, Note_on_c, 10, 68, 73
4, 45562, Note_on_c, 10, 64, 73
4, 46492, Note_on_c, 10, 61, 73
4, 46492, Note_on_c, 10, 61, 0
4, 46494, Note_on_c, 10, 59, 0
4, 46496, Note_on_c, 10, 68, 0
4, 46498, Note_on_c, 10, 64, 0
4, 46683, Note_on_c, 10, 68, 52
4, 46683, Note_on_c, 10, 64, 40
4, 46683, Note_on_c, 10, 61, 36
4, 46745, Note_on_c, 10, 68, 0
4, 46747, Note_on_c, 10, 61, 0
4, 46749, Note_on_c, 10, 64, 0
4, 46763, Note_on_c, 10, 59, 16
4, 46769, Note_on_c, 10, 59, 0
4, 46805, Note_on_c, 10, 61, 56
4, 46805, Note_on_c, 10, 68, 64
4, 46805, Note_on_c, 10, 64, 64
4, 46879, Note_on_c, 10, 61, 0
4, 46879, Note_on_c, 10, 59, 40
4, 46881, Note_on_c, 10, 64, 0
4, 46881, Note_on_c, 10, 68, 0
4, 46888, Note_on_c, 10, 59, 0
4, 46922, Note_on_c, 10, 63, 73
4, 46922, Note_on_c, 10, 70, 64
4, 46922, Note_on_c, 10, 66, 64
4, 46975, Note_on_c, 10, 70, 0
4, 46980, Note_on_c, 10, 66, 0
4, 46988, Note_on_c, 10, 63, 0
4, 47004, Note_on_c, 10, 59, 16
4, 47007, Note_on_c, 10, 59, 0
4, 47042, Note_on_c, 10, 68, 60
4, 47046, Note_on_c, 10, 64, 44
4, 47046, Note_on_c, 10, 71, 60
4, 47048, Note_on_c, 10, 63, 56
4, 47122, Note_on_c, 10, 63, 0
4, 47122, Note_on_c, 10, 71, 0
4, 47131, Note_on_c, 10, 64, 0
4, 47134, Note_on_c, 10, 68, 0
4, 47161, Note_on_c, 10, 70, 64
4, 47161, Note_on_c, 10, 66, 73
4, 47239, Note_on_c, 10, 66, 0
4, 47239, Note_on_c, 10, 70, 0
4, 47239, Note_on_c, 10, 61, 60
4, 47239, Note_on_c, 10, 61, 0
4, 47243, Note_on_c, 10, 59, 40
4, 47254, Note_on_c, 10, 59, 0
4, 47281, Note_on_c, 10, 68, 64
4, 47281, Note_on_c, 10, 61, 56
4, 47283, Note_on_c, 10, 64, 64
4, 47335, Note_on_c, 10, 64, 0
4, 47340, Note_on_c, 10, 68, 0
4, 47359, Note_on_c, 10, 68, 44
4, 47362, Note_on_c, 10, 64, 36
4, 47366, Note_on_c, 10, 61, 0
4, 47372, Note_on_c, 10, 64, 0
4, 47372, Note_on_c, 10, 68, 0
4, 47469, Note_on_c, 10, 64, 73
4, 47469, Note_on_c, 10, 68, 60
4, 47471, Note_on_c, 10, 61, 48
4, 47473, Note_on_c, 10, 71, 82
4, 47847, Note_on_c, 10, 71, 0
4, 47849, Note_on_c, 10, 61, 0
4, 47853, Note_on_c, 10, 68, 0
4, 47858, Note_on_c, 10, 64, 0
4, 47959, Note_on_c, 10, 71, 56
4, 47959, Note_on_c, 10, 64, 56
4, 47961, Note_on_c, 10, 68, 60
4, 47961, Note_on_c, 10, 61, 52
4, 48296, Note_on_c, 10, 71, 0
4, 48305, Note_on_c, 10, 68, 0
4, 48314, Note_on_c, 10, 64, 0
4, 48322, Note_on_c, 10, 61, 0
4, 48435, Note_on_c, 10, 68, 64
4, 48437, Note_on_c, 10, 61, 56
4, 48702, Note_on_c, 10, 68, 0
4, 48707, Note_on_c, 10, 61, 0
4, 48912, Note_on_c, 10, 58, 64
4, 48914, Note_on_c, 10, 63, 64
4, 48914, Note_on_c, 10, 66, 64
4, 49019, Note_on_c, 10, 66, 0
4, 49021, Note_on_c, 10, 63, 0
4, 49021, Note_on_c, 10, 58, 0
4, 49154, Note_on_c, 10, 65, 73
4, 49154, Note_on_c, 10, 56, 56
4, 49154, Note_on_c, 10, 61, 56
4, 49296, Note_on_c, 10, 61, 0
4, 49296, Note_on_c, 10, 56, 0
4, 49296, Note_on_c, 10, 65, 0
4, 49397, Note_on_c, 10, 63, 56
4, 49401, Note_on_c, 10, 61, 56
4, 49401, Note_on_c, 10, 73, 73
4, 49401, Note_on_c, 10, 72, 82
4, 49407, Note_on_c, 10, 72, 0
4, 49416, Note_on_c, 10, 72, 16
4, 49428, Note_on_c, 10, 72, 0
4, 49722, Note_on_c, 10, 73, 0
4, 49739, Note_on_c, 10, 63, 0
4, 49744, Note_on_c, 10, 61, 0
4, 49872, Note_on_c, 10, 63, 52
4, 49872, Note_on_c, 10, 71, 56
4, 49874, Note_on_c, 10, 66, 64
4, 49973, Note_on_c, 10, 71, 0
4, 49989, Note_on_c, 10, 63, 0
4, 49996, Note_on_c, 10, 66, 0
4, 50029, Note_on_c, 10, 70, 60
4, 50031, Note_on_c, 10, 61, 48
4, 50033, Note_on_c, 10, 66, 60
4, 50060, Note_on_c, 10, 66, 0
4, 50060, Note_on_c, 10, 70, 0
4, 50071, Note_on_c, 10, 61, 0
4, 50154, Note_on_c, 10, 68, 73
4, 50156, Note_on_c, 10, 64, 60
4, 50156, Note_on_c, 10, 59, 60
4, 50237, Note_on_c, 10, 59, 0
4, 50253, Note_on_c, 10, 64, 0
4, 50253, Note_on_c, 10, 68, 0
4, 50358, Note_on_c, 10, 68, 82
4, 50358, Note_on_c, 10, 64, 82
4, 50358, Note_on_c, 10, 61, 73
4, 50358, Note_on_c, 10, 58, 82
4, 50364, Control_c, 10, 3, 2
4, 50366, Control_c, 10, 3, 3
4, 50368, Control_c, 10, 3, 5
4, 50373, Control_c, 10, 3, 3
4, 50377, Control_c, 10, 3, 2
4, 50382, Control_c, 10, 3, 1
4, 50507, Note_on_c, 10, 58, 0
4, 50509, Note_on_c, 10, 64, 0
4, 50511, Note_on_c, 10, 61, 0
4, 50511, Note_on_c, 10, 68, 0
4, 50605, Note_on_c, 10, 64, 91
4, 50605, Note_on_c, 10, 68, 73
4, 50605, Note_on_c, 10, 61, 82
4, 50605, Note_on_c, 10, 58, 91
4, 50738, Note_on_c, 10, 68, 0
4, 50742, Note_on_c, 10, 64, 0
4, 50742, Note_on_c, 10, 58, 0
4, 50745, Note_on_c, 10, 61, 0
4, 50960, Note_on_c, 10, 64, 91
4, 50962, Note_on_c, 10, 58, 91
4, 50962, Note_on_c, 10, 61, 91
4, 50962, Note_on_c, 10, 68, 82
4, 50962, Note_on_c, 10, 65, 82
4, 50964, Note_on_c, 10, 65, 0
4, 50969, Note_on_c, 10, 64, 0
4, 50971, Note_on_c, 10, 58, 0
4, 50971, Note_on_c, 10, 61, 0
4, 50971, Note_on_c, 10, 68, 0
4, 50998, Note_on_c, 10, 46, 60
4, 51004, Note_on_c, 10, 46, 0
4, 51076, Note_on_c, 10, 67, 64
4, 51079, Note_on_c, 10, 61, 73
4, 51080, Note_on_c, 10, 63, 64
4, 51080, Note_on_c, 10, 58, 73
4, 51080, Note_on_c, 10, 51, 73
4, 51085, Note_on_c, 10, 39, 64
4, 51134, Note_on_c, 10, 39, 0
4, 51206, Note_on_c, 10, 67, 0
4, 51211, Note_on_c, 10, 58, 0
4, 51213, Note_on_c, 10, 63, 0
4, 51215, Note_on_c, 10, 61, 0
4, 51241, Note_on_c, 10, 51, 0
4, 51316, Note_on_c, 10, 63, 100
4, 51316, Note_on_c, 10, 56, 91
4, 51316, Note_on_c, 10, 66, 82
4, 51316, Note_on_c, 10, 59, 82
4, 51475, Note_on_c, 10, 66, 0
4, 51479, Note_on_c, 10, 63, 0
4, 51479, Note_on_c, 10, 56, 0
4, 51479, Note_on_c, 10, 59, 0
4, 51605, Note_on_c, 10, 37, 44
4, 51699, Note_on_c, 10, 37, 0
4, 51791, Note_on_c, 10, 71, 91
4, 51791, Note_on_c, 10, 66, 100
4, 51793, Note_on_c, 10, 63, 91
4, 51793, Note_on_c, 10, 44, 91
4, 51912, Note_on_c, 10, 63, 0
4, 51957, Note_on_c, 10, 70, 64
4, 51957, Note_on_c, 10, 46, 91
4, 51957, Note_on_c, 10, 61, 64
4, 51961, Note_on_c, 10, 71, 0
4, 51963, Note_on_c, 10, 44, 0
4, 51986, Note_on_c, 10, 66, 0
4, 51988, Note_on_c, 10, 70, 0
4, 51990, Note_on_c, 10, 61, 0
4, 52048, Note_on_c, 10, 46, 0
4, 52071, Note_on_c, 10, 47, 82
4, 52073, Note_on_c, 10, 68, 64
4, 52075, Note_on_c, 10, 59, 64
4, 52075, Note_on_c, 10, 63, 73
4, 52178, Note_on_c, 10, 68, 0
4, 52185, Note_on_c, 10, 47, 0
4, 52192, Note_on_c, 10, 59, 0
4, 52194, Note_on_c, 10, 63, 0
4, 52197, Note_on_c, 10, 66, 91
4, 52197, Note_on_c, 10, 63, 73
4, 52197, Note_on_c, 10, 61, 73
4, 52197, Note_on_c, 10, 56, 82
4, 52199, Note_on_c, 10, 59, 91
4, 52217, Note_on_c, 10, 59, 0
4, 52224, Note_on_c, 10, 61, 0
4, 52226, Note_on_c, 10, 56, 0
4, 52226, Note_on_c, 10, 66, 0
4, 52228, Note_on_c, 10, 63, 0
4, 52284, Note_on_c, 10, 66, 73
4, 52284, Note_on_c, 10, 64, 82
4, 52284, Note_on_c, 10, 61, 73
4, 52289, Note_on_c, 10, 54, 82
4, 52289, Control_c, 10, 3, 2
4, 52291, Control_c, 10, 3, 4
4, 52293, Control_c, 10, 3, 5
4, 52293, Control_c, 10, 3, 6
4, 52295, Control_c, 10, 3, 7
4, 52296, Control_c, 10, 3, 8
4, 52298, Control_c, 10, 3, 7
4, 52300, Control_c, 10, 3, 6
4, 52302, Control_c, 10, 3, 5
4, 52304, Control_c, 10, 3, 4
4, 52304, Control_c, 10, 3, 3
4, 52306, Control_c, 10, 3, 2
4, 52315, Control_c, 10, 3, 1
4, 52764, Note_on_c, 10, 49, 32
4, 52785, Note_on_c, 10, 49, 0
4, 52801, Note_on_c, 10, 42, 91
4, 52879, Note_on_c, 10, 49, 73
4, 52881, Note_on_c, 10, 42, 0
4, 52920, Note_on_c, 10, 49, 0
4, 52920, Note_on_c, 10, 51, 60
4, 52981, Note_on_c, 10, 51, 0
4, 52996, Note_on_c, 10, 52, 64
4, 53011, Note_on_c, 10, 52, 0
4, 53014, Note_on_c, 10, 64, 0
4, 53016, Note_on_c, 10, 66, 0
4, 53016, Note_on_c, 10, 54, 0
4, 53020, Note_on_c, 10, 61, 0
4, 53117, Note_on_c, 10, 64, 82
4, 53119, Note_on_c, 10, 66, 82
4, 53119, Note_on_c, 10, 54, 82
4, 53119, Note_on_c, 10, 61, 73
4, 53130, Note_on_c, 10, 54, 0
4, 53134, Note_on_c, 10, 61, 0
4, 53134, Note_on_c, 10, 64, 0
4, 53136, Note_on_c, 10, 66, 0
4, 53188, Note_on_c, 10, 63, 16
4, 53203, Note_on_c, 10, 63, 0
4, 53233, Note_on_c, 10, 64, 82
4, 53235, Note_on_c, 10, 54, 82
4, 53237, Note_on_c, 10, 66, 82
4, 53239, Note_on_c, 10, 61, 73
4, 53239, Note_on_c, 10, 42, 73
4, 53243, Note_on_c, 10, 42, 0
4, 53320, Note_on_c, 10, 54, 0
4, 53326, Note_on_c, 10, 66, 0
4, 53328, Note_on_c, 10, 61, 0
4, 53329, Note_on_c, 10, 64, 0
4, 53344, Note_on_c, 10, 64, 73
4, 53344, Note_on_c, 10, 66, 73
4, 53346, Note_on_c, 10, 54, 82
4, 53348, Note_on_c, 10, 61, 64
4, 53359, Note_on_c, 10, 54, 0
4, 53361, Note_on_c, 10, 64, 0
4, 53361, Note_on_c, 10, 66, 0
4, 53361, Note_on_c, 10, 61, 0
4, 53598, Note_on_c, 10, 54, 100
4, 53638, Note_on_c, 10, 52, 36
4, 53654, Note_on_c, 10, 54, 0
4, 53719, Note_on_c, 10, 51, 82
4, 53721, Note_on_c, 10, 52, 0
4, 53755, Note_on_c, 10, 49, 64
4, 53761, Note_on_c, 10, 51, 0
4, 53833, Note_on_c, 10, 51, 40
4, 53837, Note_on_c, 10, 49, 0
4, 53866, Note_on_c, 10, 51, 0
4, 53873, Note_on_c, 10, 52, 60
4, 53943, Note_on_c, 10, 52, 0
4, 53949, Note_on_c, 10, 59, 82
4, 53988, Note_on_c, 10, 59, 0
4, 53998, Note_on_c, 10, 58, 82
4, 54015, Note_on_c, 10, 58, 0
4, 54072, Note_on_c, 10, 54, 64
4, 54081, Note_on_c, 10, 54, 0
4, 54199, Note_on_c, 10, 44, 40
4, 54206, Note_on_c, 10, 44, 0
4, 54237, Note_on_c, 10, 61, 100
4, 54237, Note_on_c, 10, 73, 91
4, 54240, Note_on_c, 10, 68, 91
4, 54241, Note_on_c, 10, 49, 60
4, 54241, Note_on_c, 10, 67, 91
4, 54241, Note_on_c, 10, 37, 64
4, 54249, Note_on_c, 10, 67, 0
4, 54252, Note_on_c, 10, 61, 0
4, 54258, Note_on_c, 10, 68, 0
4, 54260, Note_on_c, 10, 37, 0
4, 54260, Note_on_c, 10, 73, 0
4, 54317, Note_on_c, 10, 49, 0
4, 54394, Control_c, 10, 7, 124
4, 54428, Control_c, 10, 7, 120
4, 54438, Note_on_c, 10, 56, 82
4, 54440, Note_on_c, 10, 61, 82
4, 54442, Note_on_c, 10, 37, 52
4, 54442, Note_on_c, 10, 49, 44
4, 54451, Note_on_c, 10, 61, 0
4, 54451, Note_on_c, 10, 56, 0
4, 54453, Note_on_c, 10, 37, 0
4, 54456, Note_on_c, 10, 49, 0
4, 54680, Note_on_c, 10, 54, 60
4, 54682, Note_on_c, 10, 47, 60
4, 54684, Note_on_c, 10, 57, 82
4, 54684, Note_on_c, 10, 63, 91
4, 54684, Note_on_c, 10, 61, 91
4, 54687, Note_on_c, 10, 47, 0
4, 54689, Note_on_c, 10, 54, 0
4, 54803, Control_c, 10, 7, 117
4, 54898, Note_on_c, 10, 57, 0
4, 54902, Note_on_c, 10, 61, 0
4, 54927, Note_on_c, 10, 57, 60
4, 54927, Note_on_c, 10, 61, 56
4, 54942, Note_on_c, 10, 57, 0
4, 54948, Note_on_c, 10, 61, 0
4, 54948, Note_on_c, 10, 63, 0
4, 55154, Note_on_c, 10, 42, 64
4, 55158, Note_on_c, 10, 66, 64
4, 55162, Note_on_c, 10, 54, 73
4, 55162, Note_on_c, 10, 64, 82
4, 55164, Note_on_c, 10, 63, 73
4, 55164, Note_on_c, 10, 61, 73
4, 55166, Note_on_c, 10, 42, 0
4, 55986, Note_on_c, 10, 54, 0
4, 55995, Note_on_c, 10, 64, 0
4, 55997, Note_on_c, 10, 63, 0
4, 55997, Note_on_c, 10, 61, 0
4, 56004, Note_on_c, 10, 66, 0
4, 56513, Note_on_c, 10, 52, 60
4, 56594, Note_on_c, 10, 51, 73
4, 56597, Note_on_c, 10, 52, 0
4, 56639, Note_on_c, 10, 49, 52
4, 56648, Note_on_c, 10, 51, 0
4, 56704, Note_on_c, 10, 49, 0
4, 56828, Note_on_c, 10, 47, 73
4, 56868, Note_on_c, 10, 47, 0
4, 56873, Note_on_c, 10, 46, 48
4, 56949, Note_on_c, 10, 46, 0
4, 56949, Note_on_c, 10, 42, 56
4, 56966, Note_on_c, 10, 42, 0
4, 57076, Note_on_c, 10, 44, 30
4, 57088, Note_on_c, 10, 44, 0
4, 57112, Note_on_c, 10, 37, 56
4, 57114, Note_on_c, 10, 49, 64
4, 57114, Note_on_c, 10, 61, 91
4, 57120, Note_on_c, 10, 68, 91
4, 57121, Note_on_c, 10, 49, 60
4, 57121, Note_on_c, 10, 67, 91
4, 57121, Note_on_c, 10, 37, 64
4, 57128, Note_on_c, 10, 37, 0
4, 57128, Note_on_c, 10, 61, 0
4, 57129, Note_on_c, 10, 67, 0
4, 57138, Note_on_c, 10, 68, 0
4, 57140, Note_on_c, 10, 37, 0
4, 57177, Note_on_c, 10, 49, 0
4, 57197, Note_on_c, 10, 49, 0
4, 57318, Note_on_c, 10, 56, 82
4, 57320, Note_on_c, 10, 61, 82
4, 57322, Note_on_c, 10, 37, 52
4, 57322, Note_on_c, 10, 49, 44
4, 57331, Note_on_c, 10, 61, 0
4, 57331, Note_on_c, 10, 56, 0
4, 57333, Note_on_c, 10, 37, 0
4, 57336, Note_on_c, 10, 49, 0
4, 57560, Note_on_c, 10, 54, 60
4, 57562, Note_on_c, 10, 47, 60
4, 57564, Note_on_c, 10, 57, 82
4, 57564, Note_on_c, 10, 63, 91
4, 57564, Note_on_c, 10, 61, 91
4, 57567, Note_on_c, 10, 47, 0
4, 57569, Note_on_c, 10, 54, 0
4, 57778, Note_on_c, 10, 57, 0
4, 57782, Note_on_c, 10, 61, 0
4, 57807, Note_on_c, 10, 57, 60
4, 57807, Note_on_c, 10, 61, 56
4, 57822, Note_on_c, 10, 57, 0
4, 57828, Note_on_c, 10, 61, 0
4, 57828, Note_on_c, 10, 63, 0
4, 58034, Note_on_c, 10, 42, 64
4, 58038, Note_on_c, 10, 66, 64
4, 58042, Note_on_c, 10, 54, 73
4, 58042, Note_on_c, 10, 64, 82
4, 58044, Note_on_c, 10, 63, 73
4, 58044, Note_on_c, 10, 61, 73
4, 58046, Note_on_c, 10, 42, 0
4, 58866, Note_on_c, 10, 54, 0
4, 58875, Note_on_c, 10, 64, 0
4, 58877, Note_on_c, 10, 63, 0
4, 58877, Note_on_c, 10, 61, 0
4, 58884, Note_on_c, 10, 66, 0
4, 59393, Note_on_c, 10, 52, 60
4, 59474, Note_on_c, 10, 51, 73
4, 59477, Note_on_c, 10, 52, 0
4, 59519, Note_on_c, 10, 49, 52
4, 59528, Note_on_c, 10, 51, 0
4, 59584, Note_on_c, 10, 49, 0
4, 59708, Note_on_c, 10, 47, 73
4, 59748, Note_on_c, 10, 47, 0
4, 59753, Note_on_c, 10, 46, 48
4, 59829, Note_on_c, 10, 46, 0
4, 59829, Note_on_c, 10, 42, 56
4, 59846, Note_on_c, 10, 42, 0
4, 59956, Note_on_c, 10, 44, 30
4, 59968, Note_on_c, 10, 44, 0
4, 59992, Note_on_c, 10, 37, 56
4, 59994, Note_on_c, 10, 49, 64
4, 59994, Note_on_c, 10, 61, 91
4, 60000, Note_on_c, 10, 68, 91
4, 60001, Note_on_c, 10, 49, 60
4, 60001, Note_on_c, 10, 67, 91
4, 60001, Note_on_c, 10, 37, 64
4, 60008, Note_on_c, 10, 37, 0
4, 60008, Note_on_c, 10, 61, 0
4, 60009, Note_on_c, 10, 67, 0
4, 60018, Note_on_c, 10, 68, 0
4, 60020, Note_on_c, 10, 37, 0
4, 60057, Note_on_c, 10, 49, 0
4, 60077, Note_on_c, 10, 49, 0
4, 60198, Note_on_c, 10, 56, 82
4, 60200, Note_on_c, 10, 61, 82
4, 60202, Note_on_c, 10, 37, 52
4, 60202, Note_on_c, 10, 49, 44
4, 60211, Note_on_c, 10, 61, 0
4, 60211, Note_on_c, 10, 56, 0
4, 60213, Note_on_c, 10, 37, 0
4, 60216, Note_on_c, 10, 49, 0
4, 60440, Note_on_c, 10, 54, 60
4, 60442, Note_on_c, 10, 47, 60
4, 60444, Note_on_c, 10, 57, 82
4, 60444, Note_on_c, 10, 63, 91
4, 60444, Note_on_c, 10, 61, 91
4, 60447, Note_on_c, 10, 47, 0
4, 60449, Note_on_c, 10, 54, 0
4, 60658, Note_on_c, 10, 57, 0
4, 60662, Note_on_c, 10, 61, 0
4, 60687, Note_on_c, 10, 57, 60
4, 60687, Note_on_c, 10, 61, 56
4, 60702, Note_on_c, 10, 57, 0
4, 60708, Note_on_c, 10, 61, 0
4, 60708, Note_on_c, 10, 63, 0
4, 60914, Note_on_c, 10, 42, 64
4, 60918, Note_on_c, 10, 66, 64
4, 60922, Note_on_c, 10, 54, 73
4, 60922, Note_on_c, 10, 64, 82
4, 60924, Note_on_c, 10, 63, 73
4, 60924, Note_on_c, 10, 61, 73
4, 60926, Note_on_c, 10, 42, 0
4, 61746, Note_on_c, 10, 54, 0
4, 61755, Note_on_c, 10, 64, 0
4, 61757, Note_on_c, 10, 63, 0
4, 61757, Note_on_c, 10, 61, 0
4, 61764, Note_on_c, 10, 66, 0
4, 62273, Note_on_c, 10, 52, 60
4, 62354, Note_on_c, 10, 51, 73
4, 62357, Note_on_c, 10, 52, 0
4, 62399, Note_on_c, 10, 49, 52
4, 62408, Note_on_c, 10, 51, 0
4, 62464, Note_on_c, 10, 49, 0
4, 62588, Note_on_c, 10, 47, 73
4, 62628, Note_on_c, 10, 47, 0
4, 62633, Note_on_c, 10, 46, 48
4, 62709, Note_on_c, 10, 46, 0
4, 62709, Note_on_c, 10, 42, 56
4, 62726, Note_on_c, 10, 42, 0
4, 62836, Note_on_c, 10, 44, 30
4, 62848, Note_on_c, 10, 44, 0
4, 62872, Note_on_c, 10, 37, 56
4, 62874, Note_on_c, 10, 49, 64
4, 62874, Note_on_c, 10, 61, 91
4, 62880, Note_on_c, 10, 68, 91
4, 62881, Note_on_c, 10, 49, 60
4, 62881, Note_on_c, 10, 67, 91
4, 62881, Note_on_c, 10, 37, 64
4, 62888, Note_on_c, 10, 37, 0
4, 62888, Note_on_c, 10, 61, 0
4, 62889, Note_on_c, 10, 67, 0
4, 62898, Note_on_c, 10, 68, 0
4, 62900, Note_on_c, 10, 37, 0
4, 62937, Note_on_c, 10, 49, 0
4, 62957, Note_on_c, 10, 49, 0
4, 63078, Note_on_c, 10, 56, 82
4, 63080, Note_on_c, 10, 61, 82
4, 63082, Note_on_c, 10, 37, 52
4, 63082, Note_on_c, 10, 49, 44
4, 63091, Note_on_c, 10, 61, 0
4, 63091, Note_on_c, 10, 56, 0
4, 63093, Note_on_c, 10, 37, 0
4, 63096, Note_on_c, 10, 49, 0
4, 63320, Note_on_c, 10, 54, 60
4, 63322, Note_on_c, 10, 47, 60
4, 63324, Note_on_c, 10, 57, 82
4, 63324, Note_on_c, 10, 63, 91
4, 63324, Note_on_c, 10, 61, 91
4, 63327, Note_on_c, 10, 47, 0
4, 63329, Note_on_c, 10, 54, 0
4, 63538, Note_on_c, 10, 57, 0
4, 63542, Note_on_c, 10, 61, 0
4, 63567, Note_on_c, 10, 57, 60
4, 63567, Note_on_c, 10, 61, 56
4, 63582, Note_on_c, 10, 57, 0
4, 63588, Note_on_c, 10, 61, 0
4, 63588, Note_on_c, 10, 63, 0
4, 63794, Note_on_c, 10, 42, 64
4, 63798, Note_on_c, 10, 66, 64
4, 63802, Note_on_c, 10, 54, 73
4, 63802, Note_on_c, 10, 64, 82
4, 63804, Note_on_c, 10, 63, 73
4, 63804, Note_on_c, 10, 61, 73
4, 63806, Note_on_c, 10, 42, 0
4, 64626, Note_on_c, 10, 54, 0
4, 64635, Note_on_c, 10, 64, 0
4, 64637, Note_on_c, 10, 63, 0
4, 64637, Note_on_c, 10, 61, 0
4, 64644, Note_on_c, 10, 66, 0
4, 65153, Note_on_c, 10, 52, 60
4, 65234, Note_on_c, 10, 51, 73
4, 65237, Note_on_c, 10, 52, 0
4, 65279, Note_on_c, 10, 49, 52
4, 65288, Note_on_c, 10, 51, 0
4, 65344, Note_on_c, 10, 49, 0
4, 65468, Note_on_c, 10, 47, 73
4, 65508, Note_on_c, 10, 47, 0
4, 65513, Note_on_c, 10, 46, 48
4, 65589, Note_on_c, 10, 46, 0
4, 65589, Note_on_c, 10, 42, 56
4, 65606, Note_on_c, 10, 42, 0
4, 65716, Note_on_c, 10, 44, 30
4, 65728, Note_on_c, 10, 44, 0
4, 65752, Note_on_c, 10, 37, 56
4, 65754, Note_on_c, 10, 49, 64
4, 65754, Note_on_c, 10, 61, 91
4, 65760, Note_on_c, 10, 68, 91
4, 65761, Note_on_c, 10, 49, 60
4, 65761, Note_on_c, 10, 67, 91
4, 65761, Note_on_c, 10, 37, 64
4, 65768, Note_on_c, 10, 37, 0
4, 65768, Note_on_c, 10, 61, 0
4, 65769, Note_on_c, 10, 67, 0
4, 65778, Note_on_c, 10, 68, 0
4, 65780, Note_on_c, 10, 37, 0
4, 65817, Note_on_c, 10, 49, 0
4, 65837, Note_on_c, 10, 49, 0
4, 65958, Note_on_c, 10, 56, 82
4, 65960, Note_on_c, 10, 61, 82
4, 65962, Note_on_c, 10, 37, 52
4, 65962, Note_on_c, 10, 49, 44
4, 65971, Note_on_c, 10, 61, 0
4, 65971, Note_on_c, 10, 56, 0
4, 65973, Note_on_c, 10, 37, 0
4, 65976, Note_on_c, 10, 49, 0
4, 66200, Note_on_c, 10, 54, 60
4, 66202, Note_on_c, 10, 47, 60
4, 66204, Note_on_c, 10, 57, 82
4, 66204, Note_on_c, 10, 63, 91
4, 66204, Note_on_c, 10, 61, 91
4, 66207, Note_on_c, 10, 47, 0
4, 66209, Note_on_c, 10, 54, 0
4, 66418, Note_on_c, 10, 57, 0
4, 66422, Note_on_c, 10, 61, 0
4, 66447, Note_on_c, 10, 57, 60
4, 66447, Note_on_c, 10, 61, 56
4, 66462, Note_on_c, 10, 57, 0
4, 66468, Note_on_c, 10, 61, 0
4, 66468, Note_on_c, 10, 63, 0
4, 66674, Note_on_c, 10, 42, 64
4, 66678, Note_on_c, 10, 66, 64
4, 66682, Note_on_c, 10, 54, 73
4, 66682, Note_on_c, 10, 64, 82
4, 66684, Note_on_c, 10, 63, 73
4, 66684, Note_on_c, 10, 61, 73
4, 66686, Note_on_c, 10, 42, 0
4, 67506, Note_on_c, 10, 54, 0
4, 67515, Note_on_c, 10, 64, 0
4, 67517, Note_on_c, 10, 63, 0
4, 67517, Note_on_c, 10, 61, 0
4, 67524, Note_on_c, 10, 66, 0
4, 68033, Note_on_c, 10, 52, 60
4, 68114, Note_on_c, 10, 51, 73
4, 68117, Note_on_c, 10, 52, 0
4, 68159, Note_on_c, 10, 49, 52
4, 68168, Note_on_c, 10, 51, 0
4, 68224, Note_on_c, 10, 49, 0
4, 68348, Note_on_c, 10, 47, 73
4, 68388, Note_on_c, 10, 47, 0
4, 68393, Note_on_c, 10, 46, 48
4, 68469, Note_on_c, 10, 46, 0
4, 68469, Note_on_c, 10, 42, 56
4, 68486, Note_on_c, 10, 42, 0
4, 68596, Note_on_c, 10, 44, 30
4, 68608, Note_on_c, 10, 44, 0
4, 68632, Note_on_c, 10, 37, 56
4, 68634, Note_on_c, 10, 49, 64
4, 68634, Note_on_c, 10, 61, 91
4, 68640, Note_on_c, 10, 68, 91
4, 68641, Note_on_c, 10, 49, 60
4, 68641, Note_on_c, 10, 67, 91
4, 68641, Note_on_c, 10, 37, 64
4, 68648, Note_on_c, 10, 37, 0
4, 68648, Note_on_c, 10, 61, 0
4, 68649, Note_on_c, 10, 67, 0
4, 68658, Note_on_c, 10, 68, 0
4, 68660, Note_on_c, 10, 37, 0
4, 68697, Note_on_c, 10, 49, 0
4, 68717, Note_on_c, 10, 49, 0
4, 68838, Note_on_c, 10, 56, 82
4, 68840, Note_on_c, 10, 61, 82
4, 68842, Note_on_c, 10, 37, 52
4, 68842, Note_on_c, 10, 49, 44
4, 68851, Note_on_c, 10, 61, 0
4, 68851, Note_on_c, 10, 56, 0
4, 68853, Note_on_c, 10, 37, 0
4, 68856, Note_on_c, 10, 49, 0
4, 69080, Note_on_c, 10, 54, 60
4, 69082, Note_on_c, 10, 47, 60
4, 69084, Note_on_c, 10, 57, 82
4, 69084, Note_on_c, 10, 63, 91
4, 69084, Note_on_c, 10, 61, 91
4, 69087, Note_on_c, 10, 47, 0
4, 69089, Note_on_c, 10, 54, 0
4, 69298, Note_on_c, 10, 57, 0
4, 69302, Note_on_c, 10, 61, 0
4, 69327, Note_on_c, 10, 57, 60
4, 69327, Note_on_c, 10, 61, 56
4, 69342, Note_on_c, 10, 57, 0
4, 69348, Note_on_c, 10, 61, 0
4, 69348, Note_on_c, 10, 63, 0
4, 69554, Note_on_c, 10, 42, 64
4, 69558, Note_on_c, 10, 66, 64
4, 69562, Note_on_c, 10, 54, 73
4, 69562, Note_on_c, 10, 64, 82
4, 69564, Note_on_c, 10, 63, 73
4, 69564, Note_on_c, 10, 61, 73
4, 69566, Note_on_c, 10, 42, 0
4, 70386, Note_on_c, 10, 54, 0
4, 70395, Note_on_c, 10, 64, 0
4, 70397, Note_on_c, 10, 63, 0
4, 70397, Note_on_c, 10, 61, 0
4, 70404, Note_on_c, 10, 66, 0
4, 70913, Note_on_c, 10, 52, 60
4, 70994, Note_on_c, 10, 51, 73
4, 70997, Note_on_c, 10, 52, 0
4, 71039, Note_on_c, 10, 49, 52
4, 71048, Note_on_c, 10, 51, 0
4, 71104, Note_on_c, 10, 49, 0
4, 71228, Note_on_c, 10, 47, 73
4, 71268, Note_on_c, 10, 47, 0
4, 71273, Note_on_c, 10, 46, 48
4, 71349, Note_on_c, 10, 46, 0
4, 71349, Note_on_c, 10, 42, 56
4, 71366, Note_on_c, 10, 42, 0
4, 71476, Note_on_c, 10, 44, 30
4, 71488, Note_on_c, 10, 44, 0
4, 71512, Note_on_c, 10, 37, 56
4, 71514, Note_on_c, 10, 49, 64
4, 71514, Note_on_c, 10, 61, 91
4, 71520, Note_on_c, 10, 68, 91
4, 71521, Note_on_c, 10, 49, 60
4, 71521, Note_on_c, 10, 67, 91
4, 71521, Note_on_c, 10, 37, 64
4, 71528, Note_on_c, 10, 37, 0
4, 71528, Note_on_c, 10, 61, 0
4, 71529, Note_on_c, 10, 67, 0
4, 71538, Note_on_c, 10, 68, 0
4, 71540, Note_on_c, 10, 37, 0
4, 71577, Note_on_c, 10, 49, 0
4, 71597, Note_on_c, 10, 49, 0
4, 71718, Note_on_c, 10, 56, 82
4, 71720, Note_on_c, 10, 61, 82
4, 71722, Note_on_c, 10, 37, 52
4, 71722, Note_on_c, 10, 49, 44
4, 71731, Note_on_c, 10, 61, 0
4, 71731, Note_on_c, 10, 56, 0
4, 71733, Note_on_c, 10, 37, 0
4, 71736, Note_on_c, 10, 49, 0
4, 71960, Note_on_c, 10, 54, 60
4, 71962, Note_on_c, 10, 47, 60
4, 71964, Note_on_c, 10, 57, 82
4, 71964, Note_on_c, 10, 63, 91
4, 71964, Note_on_c, 10, 61, 91
4, 71967, Note_on_c, 10, 47, 0
4, 71969, Note_on_c, 10, 54, 0
4, 72178, Note_on_c, 10, 57, 0
4, 72182, Note_on_c, 10, 61, 0
4, 72207, Note_on_c, 10, 57, 60
4, 72207, Note_on_c, 10, 61, 56
4, 72222, Note_on_c, 10, 57, 0
4, 72228, Note_on_c, 10, 61, 0
4, 72228, Note_on_c, 10, 63, 0
4, 72434, Note_on_c, 10, 42, 64
4, 72438, Note_on_c, 10, 66, 64
4, 72442, Note_on_c, 10, 54, 73
4, 72442, Note_on_c, 10, 64, 82
4, 72444, Note_on_c, 10, 63, 73
4, 72444, Note_on_c, 10, 61, 73
4, 72446, Note_on_c, 10, 42, 0
4, 73266, Note_on_c, 10, 54, 0
4, 73275, Note_on_c, 10, 64, 0
4, 73277, Note_on_c, 10, 63, 0
4, 73277, Note_on_c, 10, 61, 0
4, 73284, Note_on_c, 10, 66, 0
4, 73793, Note_on_c, 10, 52, 60
4, 73874, Note_on_c, 10, 51, 73
4, 73877, Note_on_c, 10, 52, 0
4, 73919, Note_on_c, 10, 49, 52
4, 73928, Note_on_c, 10, 51, 0
4, 73984, Note_on_c, 10, 49, 0
4, 74108, Note_on_c, 10, 47, 73
4, 74148, Note_on_c, 10, 47, 0
4, 74153, Note_on_c, 10, 46, 48
4, 74229, Note_on_c, 10, 46, 0
4, 74229, Note_on_c, 10, 42, 56
4, 74246, Note_on_c, 10, 42, 0
4, 74356, Note_on_c, 10, 44, 30
4, 74368, Note_on_c, 10, 44, 0
4, 74392, Note_on_c, 10, 37, 56
4, 74394, Note_on_c, 10, 49, 64
4, 74394, Note_on_c, 10, 61, 91
4, 74400, Note_on_c, 10, 68, 91
4, 74401, Note_on_c, 10, 49, 60
4, 74401, Note_on_c, 10, 67, 91
4, 74401, Note_on_c, 10, 37, 64
4, 74408, Note_on_c, 10, 37, 0
4, 74408, Note_on_c, 10, 61, 0
4, 74409, Note_on_c, 10, 67, 0
4, 74418, Note_on_c, 10, 68, 0
4, 74420, Note_on_c, 10, 37, 0
4, 74457, Note_on_c, 10, 49, 0
4, 74477, Note_on_c, 10, 49, 0
4, 74598, Note_on_c, 10, 56, 82
4, 74600, Note_on_c, 10, 61, 82
4, 74602, Note_on_c, 10, 37, 52
4, 74602, Note_on_c, 10, 49, 44
4, 74611, Note_on_c, 10, 61, 0
4, 74611, Note_on_c, 10, 56, 0
4, 74613, Note_on_c, 10, 37, 0
4, 74616, Note_on_c, 10, 49, 0
4, 74840, Note_on_c, 10, 54, 60
4, 74842, Note_on_c, 10, 47, 60
4, 74844, Note_on_c, 10, 57, 82
4, 74844, Note_on_c, 10, 63, 91
4, 74844, Note_on_c, 10, 61, 91
4, 74847, Note_on_c, 10, 47, 0
4, 74849, Note_on_c, 10, 54, 0
4, 75058, Note_on_c, 10, 57, 0
4, 75062, Note_on_c, 10, 61, 0
4, 75087, Note_on_c, 10, 57, 60
4, 75087, Note_on_c, 10, 61, 56
4, 75102, Note_on_c, 10, 57, 0
4, 75108, Note_on_c, 10, 61, 0
4, 75108, Note_on_c, 10, 63, 0
4, 75314, Note_on_c, 10, 42, 64
4, 75318, Note_on_c, 10, 66, 64
4, 75322, Note_on_c, 10, 54, 73
4, 75322, Note_on_c, 10, 64, 82
4, 75324, Note_on_c, 10, 63, 73
4, 75324, Note_on_c, 10, 61, 73
4, 75326, Note_on_c, 10, 42, 0
4, 76146, Note_on_c, 10, 54, 0
4, 76155, Note_on_c, 10, 64, 0
4, 76157, Note_on_c, 10, 63, 0
4, 76157, Note_on_c, 10, 61, 0
4, 76164, Note_on_c, 10, 66, 0
4, 76673, Note_on_c, 10, 52, 60
4, 76754, Note_on_c, 10, 51, 73
4, 76757, Note_on_c, 10, 52, 0
4, 76799, Note_on_c, 10, 49, 52
4, 76808, Note_on_c, 10, 51, 0
4, 76864, Note_on_c, 10, 49, 0
4, 76988, Note_on_c, 10, 47, 73
4, 77028, Note_on_c, 10, 47, 0
4, 77033, Note_on_c, 10, 46, 48
4, 77109, Note_on_c, 10, 46, 0
4, 77109, Note_on_c, 10, 42, 56
4, 77126, Note_on_c, 10, 42, 0
4, 77236, Note_on_c, 10, 44, 30
4, 77248, Note_on_c, 10, 44, 0
4, 77272, Note_on_c, 10, 37, 56
4, 77274, Note_on_c, 10, 49, 64
4, 77274, Note_on_c, 10, 61, 91
4, 77280, Note_on_c, 10, 68, 91
4, 77281, Note_on_c, 10, 49, 60
4, 77281, Note_on_c, 10, 67, 91
4, 77281, Note_on_c, 10, 37, 64
4, 77288, Note_on_c, 10, 37, 0
4, 77288, Note_on_c, 10, 61, 0
4, 77289, Note_on_c, 10, 67, 0
4, 77298, Note_on_c, 10, 68, 0
4, 77300, Note_on_c, 10, 37, 0
4, 77337, Note_on_c, 10, 49, 0
4, 77357, Note_on_c, 10, 49, 0
4, 77478, Note_on_c, 10, 56, 82
4, 77480, Note_on_c, 10, 61, 82
4, 77482, Note_on_c, 10, 37, 52
4, 77482, Note_on_c, 10, 49, 44
4, 77491, Note_on_c, 10, 61, 0
4, 77491, Note_on_c, 10, 56, 0
4, 77493, Note_on_c, 10, 37, 0
4, 77496, Note_on_c, 10, 49, 0
4, 77720, Note_on_c, 10, 54, 60
4, 77722, Note_on_c, 10, 47, 60
4, 77724, Note_on_c, 10, 57, 82
4, 77724, Note_on_c, 10, 63, 91
4, 77724, Note_on_c, 10, 61, 91
4, 77727, Note_on_c, 10, 47, 0
4, 77729, Note_on_c, 10, 54, 0
4, 77938, Note_on_c, 10, 57, 0
4, 77942, Note_on_c, 10, 61, 0
4, 77967, Note_on_c, 10, 57, 60
4, 77967, Note_on_c, 10, 61, 56
4, 77982, Note_on_c, 10, 57, 0
4, 77988, Note_on_c, 10, 61, 0
4, 77988, Note_on_c, 10, 63, 0
4, 78194, Note_on_c, 10, 42, 64
4, 78198, Note_on_c, 10, 66, 64
4, 78202, Note_on_c, 10, 54, 73
4, 78202, Note_on_c, 10, 64, 82
4, 78204, Note_on_c, 10, 63, 73
4, 78204, Note_on_c, 10, 61, 73
4, 78206, Note_on_c, 10, 42, 0
4, 79026, Note_on_c, 10, 54, 0
4, 79035, Note_on_c, 10, 64, 0
4, 79037, Note_on_c, 10, 63, 0
4, 79037, Note_on_c, 10, 61, 0
4, 79044, Note_on_c, 10, 66, 0
4, 79553, Note_on_c, 10, 52, 60
4, 79634, Note_on_c, 10, 51, 73
4, 79637, Note_on_c, 10, 52, 0
4, 79679, Note_on_c, 10, 49, 52
4, 79688, Note_on_c, 10, 51, 0
4, 79744, Note_on_c, 10, 49, 0
4, 79868, Note_on_c, 10, 47, 73
4, 79908, Note_on_c, 10, 47, 0
4, 79913, Note_on_c, 10, 46, 48
4, 79989, Note_on_c, 10, 46, 0
4, 79989, Note_on_c, 10, 42, 56
4, 80006, Note_on_c, 10, 42, 0
4, 80116, Note_on_c, 10, 44, 30
4, 80128, Note_on_c, 10, 44, 0
4, 80152, Note_on_c, 10, 37, 56
4, 80154, Note_on_c, 10, 49, 64
4, 80154, Note_on_c, 10, 61, 91
4, 80168, Note_on_c, 10, 61, 0
4, 80168, Note_on_c, 10, 37, 0
4, 80217, Note_on_c, 10, 49, 0
4, 80217, End_track
5, 0, Start_track
5, 0, MIDI_port, 0
5, 0, Title_t, "marimba"
5, 0, Control_c, 2, 0, 56
5, 0, Control_c, 2, 32, 0
5, 0, Program_c, 2, 12
5, 0, Control_c, 2, 7, 100
5, 0, Control_c, 2, 10, 21
5, 3002, Note_on_c, 2, 78, 73
5, 3004, Note_on_c, 2, 74, 60
5, 3074, Note_on_c, 2, 74, 0
5, 3078, Note_on_c, 2, 79, 64
5, 3080, Note_on_c, 2, 75, 60
5, 3084, Note_on_c, 2, 78, 0
5, 3111, Note_on_c, 2, 79, 0
5, 3117, Note_on_c, 2, 75, 0
5, 3201, Note_on_c, 2, 80, 64
5, 3201, Note_on_c, 2, 74, 60
5, 3248, Note_on_c, 2, 81, 48
5, 3250, Note_on_c, 2, 74, 0
5, 3252, Note_on_c, 2, 77, 44
5, 3254, Note_on_c, 2, 80, 0
5, 3288, Note_on_c, 2, 81, 0
5, 3297, Note_on_c, 2, 77, 0
5, 3317, Note_on_c, 2, 84, 73
5, 3317, Note_on_c, 2, 80, 60
5, 3447, Note_on_c, 2, 84, 0
5, 3453, Note_on_c, 2, 80, 0
5, 3476, Note_on_c, 2, 81, 56
5, 3476, Note_on_c, 2, 77, 44
5, 3528, Note_on_c, 2, 81, 0
5, 3536, Note_on_c, 2, 77, 0
5, 3599, Note_on_c, 2, 77, 56
5, 3602, Note_on_c, 2, 72, 52
5, 3676, Note_on_c, 2, 72, 0
5, 3693, Note_on_c, 2, 77, 0
5, 3716, Note_on_c, 2, 77, 52
5, 3720, Note_on_c, 2, 72, 52
5, 3763, Note_on_c, 2, 77, 0
5, 3768, Note_on_c, 2, 72, 0
5, 6850, Note_on_c, 2, 78, 91
5, 6852, Note_on_c, 2, 74, 82
5, 6908, Note_on_c, 2, 74, 0
5, 6919, Note_on_c, 2, 75, 48
5, 6919, Note_on_c, 2, 79, 60
5, 6933, Note_on_c, 2, 78, 0
5, 6946, Note_on_c, 2, 79, 0
5, 6959, Note_on_c, 2, 75, 0
5, 7040, Note_on_c, 2, 74, 60
5, 7042, Note_on_c, 2, 80, 82
5, 7081, Note_on_c, 2, 74, 0
5, 7089, Note_on_c, 2, 75, 52
5, 7090, Note_on_c, 2, 81, 48
5, 7096, Note_on_c, 2, 80, 0
5, 7103, Note_on_c, 2, 75, 0
5, 7107, Note_on_c, 2, 81, 0
5, 7155, Note_on_c, 2, 80, 82
5, 7157, Note_on_c, 2, 86, 91
5, 7159, Note_on_c, 2, 81, 56
5, 7177, Note_on_c, 2, 80, 0
5, 7320, Note_on_c, 2, 86, 0
5, 7329, Note_on_c, 2, 84, 64
5, 7329, Note_on_c, 2, 79, 52
5, 7340, Note_on_c, 2, 81, 0
5, 7358, Note_on_c, 2, 79, 0
5, 7363, Note_on_c, 2, 84, 0
5, 7448, Note_on_c, 2, 75, 29
5, 7450, Note_on_c, 2, 81, 36
5, 7531, Note_on_c, 2, 75, 0
5, 7540, Note_on_c, 2, 81, 0
5, 7563, Note_on_c, 2, 81, 64
5, 7566, Note_on_c, 2, 86, 73
5, 7627, Note_on_c, 2, 86, 0
5, 7638, Note_on_c, 2, 81, 0
5, 7643, Note_on_c, 2, 75, 21
5, 7657, Note_on_c, 2, 75, 0
5, 7683, Note_on_c, 2, 84, 73
5, 7687, Note_on_c, 2, 81, 64
5, 7760, Note_on_c, 2, 84, 0
5, 7764, Note_on_c, 2, 81, 0
5, 7806, Note_on_c, 2, 81, 60
5, 7883, Note_on_c, 2, 81, 0
5, 7924, Note_on_c, 2, 81, 48
5, 7927, Note_on_c, 2, 86, 60
5, 7928, Note_on_c, 2, 80, 16
5, 7930, Note_on_c, 2, 80, 0
5, 8029, Note_on_c, 2, 86, 0
5, 8042, Note_on_c, 2, 84, 64
5, 8044, Note_on_c, 2, 75, 56
5, 8098, Note_on_c, 2, 81, 0
5, 8100, Note_on_c, 2, 84, 0
5, 8120, Note_on_c, 2, 75, 0
5, 8124, Note_on_c, 2, 84, 82
5, 8124, Note_on_c, 2, 81, 73
5, 8161, Note_on_c, 2, 81, 0
5, 8161, Note_on_c, 2, 84, 0
5, 8235, Note_on_c, 2, 75, 30
5, 8259, Note_on_c, 2, 75, 0
5, 8316, Note_on_c, 2, 81, 16
5, 8322, Note_on_c, 2, 81, 0
5, 8360, Note_on_c, 2, 86, 60
5, 8360, Note_on_c, 2, 81, 64
5, 8393, Note_on_c, 2, 86, 0
5, 8403, Note_on_c, 2, 81, 0
5, 8479, Note_on_c, 2, 75, 40
5, 8507, Note_on_c, 2, 75, 0
5, 8517, Note_on_c, 2, 81, 64
5, 8519, Note_on_c, 2, 84, 73
5, 8590, Note_on_c, 2, 84, 0
5, 8591, Note_on_c, 2, 81, 0
5, 8601, Note_on_c, 2, 75, 16
5, 8609, Note_on_c, 2, 75, 0
5, 8721, Note_on_c, 2, 75, 29
5, 8741, Note_on_c, 2, 75, 0
5, 8763, Note_on_c, 2, 80, 60
5, 8766, Note_on_c, 2, 86, 73
5, 8766, Note_on_c, 2, 81, 64
5, 8781, Note_on_c, 2, 80, 0
5, 8826, Note_on_c, 2, 86, 0
5, 8835, Note_on_c, 2, 75, 56
5, 8837, Note_on_c, 2, 84, 60
5, 8893, Note_on_c, 2, 81, 0
5, 8895, Note_on_c, 2, 84, 0
5, 8895, Note_on_c, 2, 75, 0
5, 38042, Note_on_c, 2, 78, 73
5, 38044, Note_on_c, 2, 74, 60
5, 38114, Note_on_c, 2, 74, 0
5, 38118, Note_on_c, 2, 79, 64
5, 38120, Note_on_c, 2, 75, 60
5, 38124, Note_on_c, 2, 78, 0
5, 38151, Note_on_c, 2, 79, 0
5, 38157, Note_on_c, 2, 75, 0
5, 38241, Note_on_c, 2, 80, 64
5, 38241, Note_on_c, 2, 74, 60
5, 38288, Note_on_c, 2, 81, 48
5, 38290, Note_on_c, 2, 74, 0
5, 38292, Note_on_c, 2, 77, 44
5, 38294, Note_on_c, 2, 80, 0
5, 38328, Note_on_c, 2, 81, 0
5, 38337, Note_on_c, 2, 77, 0
5, 38357, Note_on_c, 2, 84, 73
5, 38357, Note_on_c, 2, 80, 60
5, 38487, Note_on_c, 2, 84, 0
5, 38493, Note_on_c, 2, 80, 0
5, 38516, Note_on_c, 2, 81, 56
5, 38516, Note_on_c, 2, 77, 44
5, 38568, Note_on_c, 2, 81, 0
5, 38576, Note_on_c, 2, 77, 0
5, 38639, Note_on_c, 2, 77, 56
5, 38642, Note_on_c, 2, 72, 52
5, 38716, Note_on_c, 2, 72, 0
5, 38733, Note_on_c, 2, 77, 0
5, 38756, Note_on_c, 2, 77, 52
5, 38760, Note_on_c, 2, 72, 52
5, 38803, Note_on_c, 2, 77, 0
5, 38808, Note_on_c, 2, 72, 0
5, 41410, Note_on_c, 2, 78, 91
5, 41412, Note_on_c, 2, 74, 82
5, 41468, Note_on_c, 2, 74, 0
5, 41479, Note_on_c, 2, 75, 48
5, 41479, Note_on_c, 2, 79, 60
5, 41493, Note_on_c, 2, 78, 0
5, 41506, Note_on_c, 2, 79, 0
5, 41519, Note_on_c, 2, 75, 0
5, 41600, Note_on_c, 2, 74, 60
5, 41602, Note_on_c, 2, 80, 82
5, 41641, Note_on_c, 2, 74, 0
5, 41649, Note_on_c, 2, 75, 52
5, 41650, Note_on_c, 2, 81, 48
5, 41656, Note_on_c, 2, 80, 0
5, 41663, Note_on_c, 2, 75, 0
5, 41667, Note_on_c, 2, 81, 0
5, 41715, Note_on_c, 2, 80, 82
5, 41717, Note_on_c, 2, 86, 91
5, 41719, Note_on_c, 2, 81, 56
5, 41737, Note_on_c, 2, 80, 0
5, 41880, Note_on_c, 2, 86, 0
5, 41889, Note_on_c, 2, 84, 64
5, 41889, Note_on_c, 2, 79, 52
5, 41900, Note_on_c, 2, 81, 0
5, 41918, Note_on_c, 2, 79, 0
5, 41923, Note_on_c, 2, 84, 0
5, 42008, Note_on_c, 2, 75, 29
5, 42010, Note_on_c, 2, 81, 36
5, 42091, Note_on_c, 2, 75, 0
5, 42100, Note_on_c, 2, 81, 0
5, 42123, Note_on_c, 2, 81, 64
5, 42126, Note_on_c, 2, 86, 73
5, 42187, Note_on_c, 2, 86, 0
5, 42198, Note_on_c, 2, 81, 0
5, 42203, Note_on_c, 2, 75, 21
5, 42217, Note_on_c, 2, 75, 0
5, 42243, Note_on_c, 2, 84, 73
5, 42247, Note_on_c, 2, 81, 64
5, 42320, Note_on_c, 2, 84, 0
5, 42324, Note_on_c, 2, 81, 0
5, 42366, Note_on_c, 2, 81, 60
5, 42443, Note_on_c, 2, 81, 0
5, 42484, Note_on_c, 2, 81, 48
5, 42487, Note_on_c, 2, 86, 60
5, 42488, Note_on_c, 2, 80, 16
5, 42490, Note_on_c, 2, 80, 0
5, 42589, Note_on_c, 2, 86, 0
5, 42602, Note_on_c, 2, 84, 64
5, 42604, Note_on_c, 2, 75, 56
5, 42658, Note_on_c, 2, 81, 0
5, 42660, Note_on_c, 2, 84, 0
5, 42680, Note_on_c, 2, 75, 0
5, 42684, Note_on_c, 2, 84, 82
5, 42684, Note_on_c, 2, 81, 73
5, 42721, Note_on_c, 2, 81, 0
5, 42721, Note_on_c, 2, 84, 0
5, 42795, Note_on_c, 2, 75, 30
5, 42819, Note_on_c, 2, 75, 0
5, 42876, Note_on_c, 2, 81, 16
5, 42882, Note_on_c, 2, 81, 0
5, 42920, Note_on_c, 2, 86, 60
5, 42920, Note_on_c, 2, 81, 64
5, 42953, Note_on_c, 2, 86, 0
5, 42963, Note_on_c, 2, 81, 0
5, 43039, Note_on_c, 2, 75, 40
5, 43067, Note_on_c, 2, 75, 0
5, 43077, Note_on_c, 2, 81, 64
5, 43079, Note_on_c, 2, 84, 73
5, 43150, Note_on_c, 2, 84, 0
5, 43151, Note_on_c, 2, 81, 0
5, 43161, Note_on_c, 2, 75, 16
5, 43169, Note_on_c, 2, 75, 0
5, 43281, Note_on_c, 2, 75, 29
5, 43301, Note_on_c, 2, 75, 0
5, 43323, Note_on_c, 2, 80, 60
5, 43326, Note_on_c, 2, 86, 73
5, 43326, Note_on_c, 2, 81, 64
5, 43341, Note_on_c, 2, 80, 0
5, 43386, Note_on_c, 2, 86, 0
5, 43395, Note_on_c, 2, 75, 56
5, 43397, Note_on_c, 2, 84, 60
5, 43453, Note_on_c, 2, 81, 0
5, 43455, Note_on_c, 2, 84, 0
5, 43455, Note_on_c, 2, 75, 0
5, 43455, End_track
6, 0, Start_track
6, 0, MIDI_port, 0
6, 0, Title_t, "guitar"
6, 0, Control_c, 13, 0, 56
6, 0, Control_c, 13, 32, 0
6, 0, Program_c, 13, 26
6, 0, Control_c, 13, 7, 50
6, 0, Control_c, 13, 10, 29
6, 0, Control_c, 13, 93, 63
6, 5235, Note_on_c, 13, 69, 64
6, 5235, Note_on_c, 13, 74, 64
6, 5235, Note_on_c, 13, 65, 64
6, 5279, Note_on_c, 13, 74, 0
6, 5281, Note_on_c, 13, 65, 0
6, 5282, Note_on_c, 13, 63, 52
6, 5284, Note_on_c, 13, 72, 40
6, 5367, Note_on_c, 13, 72, 0
6, 5367, Note_on_c, 13, 69, 0
6, 5378, Note_on_c, 13, 63, 0
6, 5868, Control_c, 13, 1, 2
6, 5870, Control_c, 13, 1, 4
6, 5872, Control_c, 13, 1, 6
6, 5874, Control_c, 13, 1, 7
6, 5874, Control_c, 13, 1, 8
6, 5876, Control_c, 13, 1, 9
6, 5878, Control_c, 13, 1, 10
6, 5880, Control_c, 13, 1, 12
6, 5880, Control_c, 13, 1, 13
6, 5881, Control_c, 13, 1, 14
6, 5883, Control_c, 13, 1, 15
6, 5887, Control_c, 13, 1, 16
6, 5900, Control_c, 13, 1, 15
6, 5904, Control_c, 13, 1, 14
6, 5905, Control_c, 13, 1, 13
6, 5907, Control_c, 13, 1, 12
6, 5909, Control_c, 13, 1, 11
6, 5913, Control_c, 13, 1, 10
6, 5972, Control_c, 13, 1, 9
6, 5976, Control_c, 13, 1, 8
6, 5978, Control_c, 13, 1, 7
6, 5980, Control_c, 13, 1, 6
6, 5982, Control_c, 13, 1, 5
6, 5984, Control_c, 13, 1, 4
6, 5987, Control_c, 13, 1, 3
6, 6923, Note_on_c, 13, 71, 100
6, 6955, Pitch_bend_c, 13, 8452
6, 6955, Pitch_bend_c, 13, 8582
6, 6957, Pitch_bend_c, 13, 8712
6, 6959, Pitch_bend_c, 13, 8842
6, 6959, Pitch_bend_c, 13, 8972
6, 6961, Pitch_bend_c, 13, 9102
6, 6963, Pitch_bend_c, 13, 9232
6, 6963, Pitch_bend_c, 13, 9362
6, 6965, Pitch_bend_c, 13, 9492
6, 6967, Pitch_bend_c, 13, 9622
6, 6967, Pitch_bend_c, 13, 9752
6, 6971, Pitch_bend_c, 13, 10012
6, 6971, Pitch_bend_c, 13, 10142
6, 6972, Pitch_bend_c, 13, 10272
6, 6974, Pitch_bend_c, 13, 10402
6, 6976, Pitch_bend_c, 13, 10532
6, 6978, Pitch_bend_c, 13, 10662
6, 6980, Pitch_bend_c, 13, 10792
6, 6982, Pitch_bend_c, 13, 10922
6, 6985, Pitch_bend_c, 13, 11052
6, 6987, Pitch_bend_c, 13, 11182
6, 6989, Pitch_bend_c, 13, 11312
6, 6991, Pitch_bend_c, 13, 11442
6, 6993, Pitch_bend_c, 13, 11572
6, 6995, Pitch_bend_c, 13, 11702
6, 6997, Pitch_bend_c, 13, 11832
6, 6999, Pitch_bend_c, 13, 11962
6, 7001, Pitch_bend_c, 13, 12092
6, 7004, Pitch_bend_c, 13, 12222
6, 7006, Pitch_bend_c, 13, 12352
6, 7010, Pitch_bend_c, 13, 12482
6, 7014, Pitch_bend_c, 13, 12612
6, 7017, Pitch_bend_c, 13, 12742
6, 7023, Pitch_bend_c, 13, 12872
6, 7061, Pitch_bend_c, 13, 13002
6, 7068, Pitch_bend_c, 13, 13132
6, 7073, Pitch_bend_c, 13, 13262
6, 7081, Pitch_bend_c, 13, 13392
6, 7086, Pitch_bend_c, 13, 13262
6, 7088, Pitch_bend_c, 13, 13002
6, 7088, Pitch_bend_c, 13, 12742
6, 7090, Pitch_bend_c, 13, 12222
6, 7090, Pitch_bend_c, 13, 11312
6, 7092, Pitch_bend_c, 13, 10012
6, 7094, Pitch_bend_c, 13, 8192
6, 7161, Note_on_c, 13, 71, 0
6, 7170, Note_on_c, 13, 68, 100
6, 7184, Pitch_bend_c, 13, 8322
6, 7186, Pitch_bend_c, 13, 8452
6, 7188, Pitch_bend_c, 13, 8712
6, 7188, Pitch_bend_c, 13, 8842
6, 7190, Pitch_bend_c, 13, 8972
6, 7197, Pitch_bend_c, 13, 8842
6, 7197, Pitch_bend_c, 13, 8582
6, 7199, Pitch_bend_c, 13, 8322
6, 7201, Pitch_bend_c, 13, 8192
6, 7219, Pitch_bend_c, 13, 8452
6, 7221, Pitch_bend_c, 13, 8712
6, 7221, Pitch_bend_c, 13, 9102
6, 7223, Pitch_bend_c, 13, 9362
6, 7225, Pitch_bend_c, 13, 9752
6, 7225, Pitch_bend_c, 13, 10012
6, 7227, Pitch_bend_c, 13, 10272
6, 7229, Pitch_bend_c, 13, 10532
6, 7229, Pitch_bend_c, 13, 10662
6, 7231, Pitch_bend_c, 13, 10792
6, 7233, Pitch_bend_c, 13, 10922
6, 7238, Pitch_bend_c, 13, 11052
6, 7244, Pitch_bend_c, 13, 10922
6, 7246, Pitch_bend_c, 13, 10792
6, 7246, Pitch_bend_c, 13, 10272
6, 7248, Pitch_bend_c, 13, 9232
6, 7249, Pitch_bend_c, 13, 8192
6, 7262, Note_on_c, 13, 65, 82
6, 7264, Note_on_c, 13, 68, 0
6, 7306, Pitch_bend_c, 13, 8452
6, 7306, Pitch_bend_c, 13, 8842
6, 7308, Pitch_bend_c, 13, 9102
6, 7309, Pitch_bend_c, 13, 9232
6, 7309, Pitch_bend_c, 13, 9492
6, 7311, Pitch_bend_c, 13, 9622
6, 7319, Pitch_bend_c, 13, 9362
6, 7320, Pitch_bend_c, 13, 9232
6, 7322, Pitch_bend_c, 13, 8972
6, 7322, Pitch_bend_c, 13, 8712
6, 7324, Pitch_bend_c, 13, 8322
6, 7326, Pitch_bend_c, 13, 8192
6, 7343, Pitch_bend_c, 13, 8452
6, 7344, Pitch_bend_c, 13, 8712
6, 7346, Pitch_bend_c, 13, 9102
6, 7346, Pitch_bend_c, 13, 9362
6, 7348, Pitch_bend_c, 13, 9622
6, 7350, Pitch_bend_c, 13, 9752
6, 7350, Pitch_bend_c, 13, 9882
6, 7354, Pitch_bend_c, 13, 10012
6, 7359, Pitch_bend_c, 13, 9882
6, 7361, Pitch_bend_c, 13, 9752
6, 7361, Pitch_bend_c, 13, 9492
6, 7363, Pitch_bend_c, 13, 9362
6, 7365, Pitch_bend_c, 13, 9102
6, 7365, Pitch_bend_c, 13, 8842
6, 7367, Pitch_bend_c, 13, 8192
6, 7389, Pitch_bend_c, 13, 8452
6, 7389, Pitch_bend_c, 13, 8712
6, 7391, Pitch_bend_c, 13, 8972
6, 7391, Pitch_bend_c, 13, 9232
6, 7392, Pitch_bend_c, 13, 9362
6, 7395, Pitch_bend_c, 13, 9622
6, 7396, Pitch_bend_c, 13, 9752
6, 7405, Pitch_bend_c, 13, 9622
6, 7407, Pitch_bend_c, 13, 9362
6, 7407, Pitch_bend_c, 13, 9232
6, 7409, Pitch_bend_c, 13, 8972
6, 7411, Pitch_bend_c, 13, 8712
6, 7411, Pitch_bend_c, 13, 8192
6, 7444, Pitch_bend_c, 13, 8322
6, 7446, Pitch_bend_c, 13, 8712
6, 7446, Pitch_bend_c, 13, 8972
6, 7448, Pitch_bend_c, 13, 9232
6, 7450, Pitch_bend_c, 13, 9492
6, 7450, Pitch_bend_c, 13, 9622
6, 7452, Pitch_bend_c, 13, 9882
6, 7453, Pitch_bend_c, 13, 10012
6, 7463, Pitch_bend_c, 13, 9882
6, 7463, Pitch_bend_c, 13, 9752
6, 7464, Pitch_bend_c, 13, 9492
6, 7466, Pitch_bend_c, 13, 9362
6, 7468, Pitch_bend_c, 13, 9102
6, 7468, Pitch_bend_c, 13, 8712
6, 7470, Pitch_bend_c, 13, 8192
6, 7487, Note_on_c, 13, 65, 0
6, 7532, Note_on_c, 13, 65, 40
6, 7541, Note_on_c, 13, 65, 0
6, 7564, Note_on_c, 13, 76, 100
6, 7586, Pitch_bend_c, 13, 8452
6, 7588, Pitch_bend_c, 13, 8712
6, 7590, Pitch_bend_c, 13, 8972
6, 7590, Pitch_bend_c, 13, 9232
6, 7592, Pitch_bend_c, 13, 9492
6, 7594, Pitch_bend_c, 13, 9882
6, 7594, Pitch_bend_c, 13, 10142
6, 7596, Pitch_bend_c, 13, 10402
6, 7597, Pitch_bend_c, 13, 10792
6, 7598, Pitch_bend_c, 13, 11182
6, 7599, Pitch_bend_c, 13, 11442
6, 7601, Pitch_bend_c, 13, 11702
6, 7601, Pitch_bend_c, 13, 12092
6, 7603, Pitch_bend_c, 13, 12222
6, 7605, Pitch_bend_c, 13, 12482
6, 7605, Pitch_bend_c, 13, 12612
6, 7607, Pitch_bend_c, 13, 12742
6, 7611, Note_on_c, 13, 76, 0
6, 7614, Pitch_bend_c, 13, 12482
6, 7614, Pitch_bend_c, 13, 12352
6, 7618, Pitch_bend_c, 13, 11832
6, 7618, Pitch_bend_c, 13, 11442
6, 7620, Pitch_bend_c, 13, 10922
6, 7620, Pitch_bend_c, 13, 10532
6, 7622, Pitch_bend_c, 13, 10142
6, 7624, Pitch_bend_c, 13, 9622
6, 7626, Pitch_bend_c, 13, 8972
6, 7626, Pitch_bend_c, 13, 8192
6, 7644, Note_on_c, 13, 76, 109
6, 7657, Pitch_bend_c, 13, 8582
6, 7658, Pitch_bend_c, 13, 9102
6, 7658, Pitch_bend_c, 13, 9622
6, 7661, Pitch_bend_c, 13, 10012
6, 7662, Pitch_bend_c, 13, 10532
6, 7662, Pitch_bend_c, 13, 11052
6, 7665, Pitch_bend_c, 13, 11442
6, 7667, Pitch_bend_c, 13, 11962
6, 7667, Pitch_bend_c, 13, 12222
6, 7668, Pitch_bend_c, 13, 12612
6, 7670, Pitch_bend_c, 13, 12872
6, 7670, Pitch_bend_c, 13, 13132
6, 7672, Pitch_bend_c, 13, 13262
6, 7674, Pitch_bend_c, 13, 13392
6, 7676, Pitch_bend_c, 13, 13522
6, 7678, Control_c, 13, 7, 49
6, 7693, Control_c, 13, 7, 52
6, 7707, Pitch_bend_c, 13, 13392
6, 7710, Pitch_bend_c, 13, 13262
6, 7761, Pitch_bend_c, 13, 13392
6, 7775, Pitch_bend_c, 13, 13262
6, 7777, Pitch_bend_c, 13, 13132
6, 7779, Pitch_bend_c, 13, 12872
6, 7779, Pitch_bend_c, 13, 12612
6, 7781, Pitch_bend_c, 13, 12352
6, 7783, Pitch_bend_c, 13, 11962
6, 7783, Pitch_bend_c, 13, 11702
6, 7785, Pitch_bend_c, 13, 11182
6, 7787, Pitch_bend_c, 13, 10792
6, 7787, Pitch_bend_c, 13, 10272
6, 7789, Pitch_bend_c, 13, 9752
6, 7790, Pitch_bend_c, 13, 9232
6, 7790, Pitch_bend_c, 13, 8192
6, 7830, Note_on_c, 13, 75, 73
6, 7837, Note_on_c, 13, 76, 0
6, 7870, Note_on_c, 13, 72, 64
6, 7872, Note_on_c, 13, 75, 0
6, 7901, Note_on_c, 13, 72, 0
6, 7914, Note_on_c, 13, 71, 91
6, 7916, Control_c, 13, 7, 56
6, 7939, Note_on_c, 13, 71, 0
6, 7939, Control_c, 13, 7, 59
6, 7953, Note_on_c, 13, 70, 73
6, 7993, Note_on_c, 13, 70, 0
6, 7995, Note_on_c, 13, 68, 82
6, 8033, Pitch_bend_c, 13, 8582
6, 8035, Pitch_bend_c, 13, 9102
6, 8037, Pitch_bend_c, 13, 9492
6, 8037, Pitch_bend_c, 13, 9622
6, 8040, Pitch_bend_c, 13, 9752
6, 8050, Pitch_bend_c, 13, 9622
6, 8053, Pitch_bend_c, 13, 9492
6, 8061, Pitch_bend_c, 13, 9622
6, 8062, Pitch_bend_c, 13, 9752
6, 8062, Pitch_bend_c, 13, 10012
6, 8064, Pitch_bend_c, 13, 10142
6, 8066, Pitch_bend_c, 13, 10272
6, 8066, Pitch_bend_c, 13, 10532
6, 8068, Pitch_bend_c, 13, 10662
6, 8068, Pitch_bend_c, 13, 10922
6, 8070, Pitch_bend_c, 13, 11052
6, 8072, Pitch_bend_c, 13, 11182
6, 8074, Pitch_bend_c, 13, 11312
6, 8074, Pitch_bend_c, 13, 11442
6, 8076, Pitch_bend_c, 13, 11572
6, 8076, Pitch_bend_c, 13, 11702
6, 8080, Pitch_bend_c, 13, 11962
6, 8082, Pitch_bend_c, 13, 12092
6, 8082, Pitch_bend_c, 13, 12222
6, 8086, Pitch_bend_c, 13, 11832
6, 8087, Pitch_bend_c, 13, 11182
6, 8087, Pitch_bend_c, 13, 10272
6, 8089, Pitch_bend_c, 13, 9232
6, 8089, Pitch_bend_c, 13, 8192
6, 8100, Note_on_c, 13, 68, 0
6, 8358, Note_on_c, 13, 83, 109
6, 8390, Pitch_bend_c, 13, 8322
6, 8392, Pitch_bend_c, 13, 8452
6, 8394, Pitch_bend_c, 13, 8582
6, 8394, Pitch_bend_c, 13, 8842
6, 8396, Pitch_bend_c, 13, 8972
6, 8398, Pitch_bend_c, 13, 9232
6, 8398, Pitch_bend_c, 13, 9362
6, 8400, Pitch_bend_c, 13, 9492
6, 8401, Pitch_bend_c, 13, 9622
6, 8401, Pitch_bend_c, 13, 9752
6, 8403, Pitch_bend_c, 13, 9882
6, 8405, Pitch_bend_c, 13, 10012
6, 8407, Pitch_bend_c, 13, 10142
6, 8407, Pitch_bend_c, 13, 10272
6, 8411, Pitch_bend_c, 13, 10532
6, 8413, Pitch_bend_c, 13, 10662
6, 8413, Pitch_bend_c, 13, 10792
6, 8417, Pitch_bend_c, 13, 10922
6, 8419, Pitch_bend_c, 13, 11052
6, 8422, Pitch_bend_c, 13, 11182
6, 8424, Pitch_bend_c, 13, 11312
6, 8428, Pitch_bend_c, 13, 11442
6, 8430, Pitch_bend_c, 13, 11572
6, 8432, Pitch_bend_c, 13, 11702
6, 8434, Pitch_bend_c, 13, 11832
6, 8436, Pitch_bend_c, 13, 11962
6, 8439, Pitch_bend_c, 13, 12092
6, 8443, Pitch_bend_c, 13, 12222
6, 8447, Pitch_bend_c, 13, 12352
6, 8450, Pitch_bend_c, 13, 12482
6, 8452, Pitch_bend_c, 13, 12612
6, 8454, Pitch_bend_c, 13, 12742
6, 8454, Pitch_bend_c, 13, 12872
6, 8456, Pitch_bend_c, 13, 13002
6, 8458, Pitch_bend_c, 13, 13132
6, 8461, Pitch_bend_c, 13, 13262
6, 8463, Pitch_bend_c, 13, 13392
6, 8465, Pitch_bend_c, 13, 13522
6, 8469, Pitch_bend_c, 13, 13652
6, 8474, Pitch_bend_c, 13, 13782
6, 8487, Note_on_c, 13, 83, 0
6, 8487, Pitch_bend_c, 13, 13652
6, 8491, Pitch_bend_c, 13, 13522
6, 8493, Pitch_bend_c, 13, 13392
6, 8493, Pitch_bend_c, 13, 13262
6, 8495, Pitch_bend_c, 13, 13002
6, 8496, Pitch_bend_c, 13, 12742
6, 8496, Pitch_bend_c, 13, 12482
6, 8498, Pitch_bend_c, 13, 12092
6, 8500, Pitch_bend_c, 13, 11312
6, 8500, Pitch_bend_c, 13, 10402
6, 8502, Pitch_bend_c, 13, 9492
6, 8502, Pitch_bend_c, 13, 8192
6, 8520, Note_on_c, 13, 80, 100
6, 8556, Pitch_bend_c, 13, 8322
6, 8558, Pitch_bend_c, 13, 8452
6, 8560, Pitch_bend_c, 13, 8712
6, 8560, Pitch_bend_c, 13, 8842
6, 8562, Pitch_bend_c, 13, 8972
6, 8562, Pitch_bend_c, 13, 9102
6, 8565, Pitch_bend_c, 13, 9232
6, 8566, Pitch_bend_c, 13, 9362
6, 8568, Pitch_bend_c, 13, 9492
6, 8568, Pitch_bend_c, 13, 9622
6, 8572, Pitch_bend_c, 13, 9752
6, 8574, Pitch_bend_c, 13, 9882
6, 8585, Pitch_bend_c, 13, 9752
6, 8587, Pitch_bend_c, 13, 9622
6, 8589, Pitch_bend_c, 13, 9362
6, 8589, Pitch_bend_c, 13, 9232
6, 8591, Pitch_bend_c, 13, 8972
6, 8592, Note_on_c, 13, 80, 0
6, 8592, Pitch_bend_c, 13, 8582
6, 8592, Pitch_bend_c, 13, 8192
6, 8600, Note_on_c, 13, 77, 100
6, 8623, Pitch_bend_c, 13, 8452
6, 8625, Pitch_bend_c, 13, 8582
6, 8627, Pitch_bend_c, 13, 8712
6, 8627, Pitch_bend_c, 13, 8842
6, 8634, Pitch_bend_c, 13, 8712
6, 8634, Pitch_bend_c, 13, 8582
6, 8637, Pitch_bend_c, 13, 8452
6, 8638, Pitch_bend_c, 13, 8192
6, 8671, Pitch_bend_c, 13, 8452
6, 8671, Pitch_bend_c, 13, 8712
6, 8673, Pitch_bend_c, 13, 8972
6, 8673, Pitch_bend_c, 13, 9102
6, 8675, Pitch_bend_c, 13, 9232
6, 8676, Pitch_bend_c, 13, 9362
6, 8678, Pitch_bend_c, 13, 9492
6, 8680, Pitch_bend_c, 13, 9622
6, 8689, Pitch_bend_c, 13, 9492
6, 8691, Pitch_bend_c, 13, 9362
6, 8693, Pitch_bend_c, 13, 9232
6, 8693, Pitch_bend_c, 13, 9102
6, 8695, Pitch_bend_c, 13, 8972
6, 8697, Pitch_bend_c, 13, 8712
6, 8697, Pitch_bend_c, 13, 8452
6, 8699, Pitch_bend_c, 13, 8192
6, 8717, Pitch_bend_c, 13, 8582
6, 8719, Pitch_bend_c, 13, 8842
6, 8721, Pitch_bend_c, 13, 9102
6, 8721, Pitch_bend_c, 13, 9362
6, 8723, Pitch_bend_c, 13, 9492
6, 8725, Pitch_bend_c, 13, 9752
6, 8727, Pitch_bend_c, 13, 9882
6, 8727, Pitch_bend_c, 13, 10012
6, 8730, Pitch_bend_c, 13, 10142
6, 8732, Pitch_bend_c, 13, 10272
6, 8743, Pitch_bend_c, 13, 10142
6, 8745, Pitch_bend_c, 13, 10012
6, 8747, Pitch_bend_c, 13, 9882
6, 8749, Pitch_bend_c, 13, 9622
6, 8751, Pitch_bend_c, 13, 9492
6, 8753, Pitch_bend_c, 13, 9362
6, 8753, Pitch_bend_c, 13, 9232
6, 8755, Pitch_bend_c, 13, 8972
6, 8757, Pitch_bend_c, 13, 8582
6, 8759, Pitch_bend_c, 13, 8192
6, 8760, Note_on_c, 13, 77, 0
6, 8764, Note_on_c, 13, 75, 91
6, 8802, Note_on_c, 13, 72, 82
6, 8804, Note_on_c, 13, 75, 0
6, 8825, Note_on_c, 13, 72, 0
6, 8840, Note_on_c, 13, 71, 64
6, 8867, Note_on_c, 13, 71, 0
6, 8878, Note_on_c, 13, 70, 82
6, 8898, Note_on_c, 13, 70, 0
6, 8917, Note_on_c, 13, 68, 91
6, 8954, Note_on_c, 13, 68, 0
6, 8961, Note_on_c, 13, 70, 60
6, 8987, Note_on_c, 13, 70, 0
6, 9002, Note_on_c, 13, 65, 60
6, 9033, Note_on_c, 13, 65, 0
6, 9044, Note_on_c, 13, 70, 64
6, 9068, Note_on_c, 13, 70, 0
6, 9086, Note_on_c, 13, 68, 73
6, 9100, Note_on_c, 13, 68, 0
6, 9427, Control_c, 13, 7, 56
6, 9722, Control_c, 13, 7, 53
6, 9822, Control_c, 13, 7, 56
6, 16170, Note_on_c, 13, 71, 16
6, 16172, Note_on_c, 13, 71, 0
6, 16206, Note_on_c, 13, 76, 73
6, 16232, Pitch_bend_c, 13, 8322
6, 16234, Pitch_bend_c, 13, 8452
6, 16234, Pitch_bend_c, 13, 8582
6, 16236, Pitch_bend_c, 13, 8712
6, 16237, Pitch_bend_c, 13, 8842
6, 16237, Pitch_bend_c, 13, 8972
6, 16239, Pitch_bend_c, 13, 9102
6, 16241, Pitch_bend_c, 13, 9232
6, 16241, Pitch_bend_c, 13, 9362
6, 16243, Pitch_bend_c, 13, 9622
6, 16245, Pitch_bend_c, 13, 9752
6, 16247, Pitch_bend_c, 13, 10012
6, 16249, Pitch_bend_c, 13, 10142
6, 16249, Pitch_bend_c, 13, 10272
6, 16251, Pitch_bend_c, 13, 10402
6, 16253, Pitch_bend_c, 13, 10532
6, 16253, Pitch_bend_c, 13, 10662
6, 16255, Pitch_bend_c, 13, 10792
6, 16257, Note_on_c, 13, 76, 0
6, 16257, Pitch_bend_c, 13, 10922
6, 16257, Pitch_bend_c, 13, 11182
6, 16259, Pitch_bend_c, 13, 11312
6, 16262, Pitch_bend_c, 13, 11442
6, 16262, Pitch_bend_c, 13, 11572
6, 16264, Pitch_bend_c, 13, 11702
6, 16266, Pitch_bend_c, 13, 11832
6, 16270, Pitch_bend_c, 13, 11962
6, 16277, Pitch_bend_c, 13, 11832
6, 16279, Pitch_bend_c, 13, 11702
6, 16281, Pitch_bend_c, 13, 11572
6, 16281, Pitch_bend_c, 13, 11312
6, 16283, Pitch_bend_c, 13, 11182
6, 16284, Pitch_bend_c, 13, 10922
6, 16284, Pitch_bend_c, 13, 10792
6, 16287, Pitch_bend_c, 13, 10532
6, 16288, Pitch_bend_c, 13, 10272
6, 16288, Pitch_bend_c, 13, 10012
6, 16291, Note_on_c, 13, 76, 100
6, 16292, Pitch_bend_c, 13, 9752
6, 16292, Pitch_bend_c, 13, 9622
6, 16296, Pitch_bend_c, 13, 9492
6, 16300, Pitch_bend_c, 13, 9622
6, 16302, Pitch_bend_c, 13, 9752
6, 16306, Pitch_bend_c, 13, 9882
6, 16306, Pitch_bend_c, 13, 10012
6, 16309, Pitch_bend_c, 13, 10142
6, 16311, Pitch_bend_c, 13, 10272
6, 16311, Pitch_bend_c, 13, 10402
6, 16313, Pitch_bend_c, 13, 10532
6, 16313, Pitch_bend_c, 13, 10792
6, 16315, Pitch_bend_c, 13, 10922
6, 16317, Pitch_bend_c, 13, 11182
6, 16319, Pitch_bend_c, 13, 11312
6, 16319, Pitch_bend_c, 13, 11442
6, 16321, Pitch_bend_c, 13, 11702
6, 16322, Pitch_bend_c, 13, 11832
6, 16324, Pitch_bend_c, 13, 11962
6, 16326, Pitch_bend_c, 13, 12092
6, 16377, Pitch_bend_c, 13, 12222
6, 16380, Pitch_bend_c, 13, 12352
6, 16384, Pitch_bend_c, 13, 12482
6, 16388, Pitch_bend_c, 13, 12612
6, 16392, Pitch_bend_c, 13, 12742
6, 16399, Pitch_bend_c, 13, 12872
6, 16404, Pitch_bend_c, 13, 13002
6, 16408, Pitch_bend_c, 13, 13132
6, 16430, Pitch_bend_c, 13, 13262
6, 16450, Pitch_bend_c, 13, 13392
6, 16536, Pitch_bend_c, 13, 13262
6, 16540, Pitch_bend_c, 13, 13132
6, 16542, Pitch_bend_c, 13, 13002
6, 16544, Pitch_bend_c, 13, 12872
6, 16544, Pitch_bend_c, 13, 12742
6, 16546, Pitch_bend_c, 13, 12612
6, 16546, Pitch_bend_c, 13, 12482
6, 16548, Pitch_bend_c, 13, 12222
6, 16549, Pitch_bend_c, 13, 11962
6, 16551, Pitch_bend_c, 13, 11832
6, 16551, Pitch_bend_c, 13, 11572
6, 16553, Pitch_bend_c, 13, 11312
6, 16553, Pitch_bend_c, 13, 11052
6, 16555, Pitch_bend_c, 13, 10792
6, 16557, Pitch_bend_c, 13, 10532
6, 16559, Pitch_bend_c, 13, 10272
6, 16559, Pitch_bend_c, 13, 10012
6, 16561, Pitch_bend_c, 13, 9882
6, 16563, Pitch_bend_c, 13, 9622
6, 16563, Pitch_bend_c, 13, 9492
6, 16565, Pitch_bend_c, 13, 9232
6, 16567, Pitch_bend_c, 13, 9102
6, 16567, Pitch_bend_c, 13, 8712
6, 16569, Pitch_bend_c, 13, 8582
6, 16571, Pitch_bend_c, 13, 8322
6, 16571, Pitch_bend_c, 13, 8192
6, 16607, Note_on_c, 13, 72, 52
6, 16609, Note_on_c, 13, 76, 0
6, 16636, Note_on_c, 13, 72, 0
6, 16643, Note_on_c, 13, 70, 64
6, 16665, Note_on_c, 13, 70, 0
6, 16681, Note_on_c, 13, 68, 82
6, 16697, Pitch_bend_c, 13, 8322
6, 16699, Pitch_bend_c, 13, 8582
6, 16699, Pitch_bend_c, 13, 8712
6, 16701, Pitch_bend_c, 13, 8842
6, 16703, Pitch_bend_c, 13, 9102
6, 16705, Pitch_bend_c, 13, 9232
6, 16705, Pitch_bend_c, 13, 9362
6, 16707, Pitch_bend_c, 13, 9492
6, 16719, Pitch_bend_c, 13, 9362
6, 16723, Pitch_bend_c, 13, 9232
6, 16723, Pitch_bend_c, 13, 9102
6, 16730, Pitch_bend_c, 13, 9232
6, 16730, Pitch_bend_c, 13, 9492
6, 16733, Pitch_bend_c, 13, 9622
6, 16735, Pitch_bend_c, 13, 9882
6, 16735, Pitch_bend_c, 13, 10142
6, 16737, Pitch_bend_c, 13, 10532
6, 16739, Pitch_bend_c, 13, 10922
6, 16739, Pitch_bend_c, 13, 11312
6, 16740, Note_on_c, 13, 68, 0
6, 16740, Pitch_bend_c, 13, 11702
6, 16740, Pitch_bend_c, 13, 11962
6, 16742, Pitch_bend_c, 13, 12092
6, 16744, Pitch_bend_c, 13, 12222
6, 16755, Note_on_c, 13, 68, 64
6, 16755, Pitch_bend_c, 13, 12092
6, 16757, Pitch_bend_c, 13, 11962
6, 16757, Pitch_bend_c, 13, 11702
6, 16759, Pitch_bend_c, 13, 11572
6, 16761, Pitch_bend_c, 13, 11442
6, 16761, Pitch_bend_c, 13, 11182
6, 16763, Pitch_bend_c, 13, 11052
6, 16765, Pitch_bend_c, 13, 10922
6, 16767, Pitch_bend_c, 13, 10662
6, 16767, Pitch_bend_c, 13, 10532
6, 16769, Pitch_bend_c, 13, 10272
6, 16771, Pitch_bend_c, 13, 10142
6, 16771, Pitch_bend_c, 13, 9882
6, 16773, Pitch_bend_c, 13, 9622
6, 16775, Pitch_bend_c, 13, 9362
6, 16775, Pitch_bend_c, 13, 9232
6, 16776, Pitch_bend_c, 13, 8972
6, 16778, Pitch_bend_c, 13, 8842
6, 16778, Pitch_bend_c, 13, 8712
6, 16784, Pitch_bend_c, 13, 8842
6, 16786, Pitch_bend_c, 13, 9102
6, 16786, Pitch_bend_c, 13, 9492
6, 16788, Pitch_bend_c, 13, 9752
6, 16789, Pitch_bend_c, 13, 10272
6, 16789, Pitch_bend_c, 13, 10662
6, 16791, Pitch_bend_c, 13, 11182
6, 16793, Pitch_bend_c, 13, 11832
6, 16793, Pitch_bend_c, 13, 12482
6, 16795, Pitch_bend_c, 13, 12872
6, 16797, Pitch_bend_c, 13, 13392
6, 16797, Pitch_bend_c, 13, 13652
6, 16800, Pitch_bend_c, 13, 14042
6, 16801, Pitch_bend_c, 13, 14172
6, 16801, Pitch_bend_c, 13, 14302
6, 16803, Pitch_bend_c, 13, 14432
6, 16812, Pitch_bend_c, 13, 14302
6, 16814, Pitch_bend_c, 13, 14172
6, 16818, Pitch_bend_c, 13, 14042
6, 16822, Pitch_bend_c, 13, 13912
6, 16825, Pitch_bend_c, 13, 13782
6, 16827, Pitch_bend_c, 13, 13652
6, 16829, Pitch_bend_c, 13, 13522
6, 16829, Pitch_bend_c, 13, 13392
6, 16831, Pitch_bend_c, 13, 13262
6, 16833, Pitch_bend_c, 13, 13002
6, 16833, Pitch_bend_c, 13, 12742
6, 16835, Pitch_bend_c, 13, 12222
6, 16836, Pitch_bend_c, 13, 11182
6, 16838, Note_on_c, 13, 68, 0
6, 16838, Pitch_bend_c, 13, 9622
6, 16838, Pitch_bend_c, 13, 8192
6, 16849, Note_on_c, 13, 65, 60
6, 16871, Note_on_c, 13, 65, 0
6, 16913, Pitch_bend_c, 13, 8322
6, 16915, Pitch_bend_c, 13, 8452
6, 16915, Pitch_bend_c, 13, 8582
6, 16917, Pitch_bend_c, 13, 8712
6, 16919, Pitch_bend_c, 13, 8972
6, 16920, Pitch_bend_c, 13, 9102
6, 16920, Pitch_bend_c, 13, 9362
6, 16924, Pitch_bend_c, 13, 9492
6, 16924, Note_on_c, 13, 65, 73
6, 16926, Pitch_bend_c, 13, 9752
6, 16927, Pitch_bend_c, 13, 9882
6, 16928, Pitch_bend_c, 13, 10012
6, 16932, Pitch_bend_c, 13, 10272
6, 16937, Pitch_bend_c, 13, 10012
6, 16939, Pitch_bend_c, 13, 9882
6, 16941, Pitch_bend_c, 13, 9622
6, 16941, Pitch_bend_c, 13, 9232
6, 16943, Pitch_bend_c, 13, 8842
6, 16945, Pitch_bend_c, 13, 8192
6, 16963, Pitch_bend_c, 13, 8582
6, 16963, Pitch_bend_c, 13, 9102
6, 16965, Pitch_bend_c, 13, 9622
6, 16967, Pitch_bend_c, 13, 10142
6, 16969, Pitch_bend_c, 13, 10532
6, 16969, Pitch_bend_c, 13, 10922
6, 16971, Pitch_bend_c, 13, 11182
6, 16973, Pitch_bend_c, 13, 11312
6, 16976, Pitch_bend_c, 13, 11182
6, 16978, Pitch_bend_c, 13, 11052
6, 16980, Pitch_bend_c, 13, 10922
6, 16982, Pitch_bend_c, 13, 10792
6, 16984, Pitch_bend_c, 13, 10662
6, 16984, Pitch_bend_c, 13, 10532
6, 16988, Pitch_bend_c, 13, 10402
6, 16988, Pitch_bend_c, 13, 10272
6, 16993, Pitch_bend_c, 13, 10142
6, 16999, Pitch_bend_c, 13, 10012
6, 17002, Pitch_bend_c, 13, 9882
6, 17008, Pitch_bend_c, 13, 10012
6, 17010, Pitch_bend_c, 13, 10142
6, 17010, Pitch_bend_c, 13, 10272
6, 17012, Pitch_bend_c, 13, 10402
6, 17014, Pitch_bend_c, 13, 10662
6, 17014, Pitch_bend_c, 13, 10922
6, 17016, Pitch_bend_c, 13, 11182
6, 17017, Pitch_bend_c, 13, 11442
6, 17017, Pitch_bend_c, 13, 11572
6, 17019, Pitch_bend_c, 13, 11702
6, 17021, Pitch_bend_c, 13, 11832
6, 17027, Pitch_bend_c, 13, 11702
6, 17027, Pitch_bend_c, 13, 11572
6, 17028, Pitch_bend_c, 13, 11312
6, 17031, Pitch_bend_c, 13, 11052
6, 17031, Pitch_bend_c, 13, 10532
6, 17033, Pitch_bend_c, 13, 9362
6, 17035, Pitch_bend_c, 13, 8192
6, 17036, Note_on_c, 13, 65, 0
6, 17204, Note_on_c, 13, 60, 30
6, 17229, Note_on_c, 13, 60, 0
6, 17240, Note_on_c, 13, 62, 56
6, 17265, Note_on_c, 13, 62, 0
6, 17280, Note_on_c, 13, 68, 91
6, 17298, Note_on_c, 13, 68, 0
6, 17318, Note_on_c, 13, 70, 82
6, 17347, Note_on_c, 13, 70, 0
6, 17359, Note_on_c, 13, 68, 82
6, 17376, Note_on_c, 13, 68, 0
6, 17396, Note_on_c, 13, 70, 100
6, 17419, Pitch_bend_c, 13, 8322
6, 17421, Pitch_bend_c, 13, 8582
6, 17423, Pitch_bend_c, 13, 8972
6, 17423, Pitch_bend_c, 13, 9232
6, 17425, Pitch_bend_c, 13, 9622
6, 17426, Pitch_bend_c, 13, 9882
6, 17426, Pitch_bend_c, 13, 10272
6, 17429, Pitch_bend_c, 13, 10532
6, 17430, Pitch_bend_c, 13, 10922
6, 17430, Pitch_bend_c, 13, 11312
6, 17433, Pitch_bend_c, 13, 11572
6, 17434, Pitch_bend_c, 13, 11962
6, 17436, Pitch_bend_c, 13, 12222
6, 17436, Pitch_bend_c, 13, 12352
6, 17438, Pitch_bend_c, 13, 12612
6, 17438, Pitch_bend_c, 13, 12742
6, 17440, Pitch_bend_c, 13, 12872
6, 17442, Pitch_bend_c, 13, 13002
6, 17446, Pitch_bend_c, 13, 13132
6, 17453, Pitch_bend_c, 13, 13002
6, 17455, Pitch_bend_c, 13, 12742
6, 17455, Pitch_bend_c, 13, 12482
6, 17457, Note_on_c, 13, 70, 0
6, 17457, Pitch_bend_c, 13, 12222
6, 17459, Pitch_bend_c, 13, 11702
6, 17460, Pitch_bend_c, 13, 11312
6, 17460, Pitch_bend_c, 13, 10922
6, 17463, Pitch_bend_c, 13, 10402
6, 17463, Pitch_bend_c, 13, 9752
6, 17465, Pitch_bend_c, 13, 9232
6, 17467, Pitch_bend_c, 13, 8582
6, 17469, Pitch_bend_c, 13, 8192
6, 17481, Pitch_bend_c, 13, 8322
6, 17481, Note_on_c, 13, 70, 91
6, 17483, Pitch_bend_c, 13, 8842
6, 17483, Pitch_bend_c, 13, 9232
6, 17485, Pitch_bend_c, 13, 9622
6, 17487, Pitch_bend_c, 13, 9882
6, 17487, Pitch_bend_c, 13, 10142
6, 17489, Pitch_bend_c, 13, 10402
6, 17491, Pitch_bend_c, 13, 10662
6, 17491, Pitch_bend_c, 13, 10922
6, 17493, Pitch_bend_c, 13, 11182
6, 17495, Pitch_bend_c, 13, 11442
6, 17495, Pitch_bend_c, 13, 11572
6, 17496, Pitch_bend_c, 13, 11702
6, 17500, Pitch_bend_c, 13, 11832
6, 17504, Pitch_bend_c, 13, 11572
6, 17506, Pitch_bend_c, 13, 11312
6, 17506, Pitch_bend_c, 13, 11052
6, 17508, Pitch_bend_c, 13, 10532
6, 17510, Pitch_bend_c, 13, 9882
6, 17510, Pitch_bend_c, 13, 9102
6, 17512, Pitch_bend_c, 13, 8192
6, 17519, Pitch_bend_c, 13, 7936
6, 17521, Pitch_bend_c, 13, 7680
6, 17527, Pitch_bend_c, 13, 7936
6, 17528, Pitch_bend_c, 13, 8192
6, 17535, Pitch_bend_c, 13, 8452
6, 17537, Pitch_bend_c, 13, 9492
6, 17537, Pitch_bend_c, 13, 10532
6, 17539, Pitch_bend_c, 13, 11442
6, 17541, Pitch_bend_c, 13, 12092
6, 17541, Pitch_bend_c, 13, 12222
6, 17545, Pitch_bend_c, 13, 12352
6, 17547, Pitch_bend_c, 13, 12482
6, 17552, Pitch_bend_c, 13, 12222
6, 17554, Pitch_bend_c, 13, 11962
6, 17556, Pitch_bend_c, 13, 11442
6, 17556, Pitch_bend_c, 13, 10922
6, 17558, Pitch_bend_c, 13, 10272
6, 17560, Pitch_bend_c, 13, 9492
6, 17560, Pitch_bend_c, 13, 8192
6, 17562, Note_on_c, 13, 68, 60
6, 17568, Note_on_c, 13, 70, 0
6, 17591, Note_on_c, 13, 65, 73
6, 17594, Note_on_c, 13, 68, 0
6, 17611, Note_on_c, 13, 65, 0
6, 17631, Note_on_c, 13, 68, 82
6, 17647, Pitch_bend_c, 13, 8452
6, 17649, Pitch_bend_c, 13, 8582
6, 17649, Pitch_bend_c, 13, 8712
6, 17653, Pitch_bend_c, 13, 8842
6, 17656, Pitch_bend_c, 13, 8712
6, 17658, Pitch_bend_c, 13, 8582
6, 17658, Pitch_bend_c, 13, 8192
6, 17684, Pitch_bend_c, 13, 8582
6, 17686, Pitch_bend_c, 13, 9232
6, 17688, Pitch_bend_c, 13, 9752
6, 17688, Pitch_bend_c, 13, 10272
6, 17689, Pitch_bend_c, 13, 10922
6, 17691, Pitch_bend_c, 13, 11442
6, 17691, Pitch_bend_c, 13, 11962
6, 17693, Pitch_bend_c, 13, 12222
6, 17695, Pitch_bend_c, 13, 12482
6, 17695, Pitch_bend_c, 13, 12612
6, 17704, Pitch_bend_c, 13, 12482
6, 17704, Pitch_bend_c, 13, 12222
6, 17706, Pitch_bend_c, 13, 11962
6, 17708, Pitch_bend_c, 13, 11572
6, 17708, Pitch_bend_c, 13, 11052
6, 17710, Pitch_bend_c, 13, 10662
6, 17712, Pitch_bend_c, 13, 10142
6, 17714, Note_on_c, 13, 68, 0
6, 17714, Pitch_bend_c, 13, 9492
6, 17714, Pitch_bend_c, 13, 8322
6, 17716, Pitch_bend_c, 13, 8192
6, 17720, Note_on_c, 13, 65, 60
6, 17760, Pitch_bend_c, 13, 8452
6, 17761, Pitch_bend_c, 13, 8582
6, 17763, Pitch_bend_c, 13, 8712
6, 17763, Pitch_bend_c, 13, 8842
6, 17769, Pitch_bend_c, 13, 8712
6, 17771, Pitch_bend_c, 13, 8582
6, 17771, Pitch_bend_c, 13, 8322
6, 17772, Pitch_bend_c, 13, 8192
6, 17794, Pitch_bend_c, 13, 8322
6, 17796, Pitch_bend_c, 13, 8582
6, 17798, Pitch_bend_c, 13, 8712
6, 17798, Pitch_bend_c, 13, 9102
6, 17800, Pitch_bend_c, 13, 9492
6, 17802, Pitch_bend_c, 13, 9752
6, 17804, Pitch_bend_c, 13, 9882
6, 17808, Pitch_bend_c, 13, 10012
6, 17809, Pitch_bend_c, 13, 9882
6, 17811, Pitch_bend_c, 13, 9752
6, 17811, Pitch_bend_c, 13, 9622
6, 17813, Pitch_bend_c, 13, 9362
6, 17813, Pitch_bend_c, 13, 9102
6, 17815, Pitch_bend_c, 13, 8842
6, 17817, Pitch_bend_c, 13, 8452
6, 17819, Pitch_bend_c, 13, 8192
6, 17857, Note_on_c, 13, 65, 0
6, 19571, Note_on_c, 13, 60, 60
6, 19590, Note_on_c, 13, 60, 0
6, 19608, Note_on_c, 13, 62, 73
6, 19623, Note_on_c, 13, 62, 0
6, 19646, Note_on_c, 13, 65, 64
6, 19670, Pitch_bend_c, 13, 8322
6, 19672, Pitch_bend_c, 13, 8582
6, 19672, Pitch_bend_c, 13, 8972
6, 19674, Pitch_bend_c, 13, 9232
6, 19676, Pitch_bend_c, 13, 9622
6, 19676, Pitch_bend_c, 13, 9882
6, 19678, Pitch_bend_c, 13, 10142
6, 19680, Pitch_bend_c, 13, 10272
6, 19680, Pitch_bend_c, 13, 10532
6, 19681, Pitch_bend_c, 13, 10662
6, 19687, Pitch_bend_c, 13, 10402
6, 19687, Pitch_bend_c, 13, 10272
6, 19689, Pitch_bend_c, 13, 10012
6, 19691, Pitch_bend_c, 13, 9752
6, 19693, Pitch_bend_c, 13, 9492
6, 19693, Pitch_bend_c, 13, 9232
6, 19695, Pitch_bend_c, 13, 8842
6, 19697, Pitch_bend_c, 13, 8452
6, 19697, Pitch_bend_c, 13, 8192
6, 19716, Pitch_bend_c, 13, 8452
6, 19716, Pitch_bend_c, 13, 8582
6, 19718, Pitch_bend_c, 13, 8712
6, 19724, Pitch_bend_c, 13, 8582
6, 19726, Pitch_bend_c, 13, 8452
6, 19728, Pitch_bend_c, 13, 8192
6, 19767, Pitch_bend_c, 13, 8452
6, 19769, Pitch_bend_c, 13, 8582
6, 19780, Pitch_bend_c, 13, 8452
6, 19782, Pitch_bend_c, 13, 8192
6, 19797, Note_on_c, 13, 65, 0
6, 20040, Note_on_c, 13, 68, 91
6, 20065, Pitch_bend_c, 13, 8582
6, 20067, Pitch_bend_c, 13, 8972
6, 20067, Pitch_bend_c, 13, 9492
6, 20069, Pitch_bend_c, 13, 9882
6, 20071, Pitch_bend_c, 13, 10272
6, 20071, Pitch_bend_c, 13, 10792
6, 20073, Pitch_bend_c, 13, 11182
6, 20075, Pitch_bend_c, 13, 11572
6, 20075, Pitch_bend_c, 13, 11962
6, 20076, Pitch_bend_c, 13, 12222
6, 20078, Pitch_bend_c, 13, 12612
6, 20080, Pitch_bend_c, 13, 12872
6, 20080, Pitch_bend_c, 13, 13132
6, 20082, Pitch_bend_c, 13, 13262
6, 20084, Pitch_bend_c, 13, 13392
6, 20084, Pitch_bend_c, 13, 13652
6, 20088, Pitch_bend_c, 13, 13782
6, 20088, Pitch_bend_c, 13, 13912
6, 20092, Pitch_bend_c, 13, 14042
6, 20097, Note_on_c, 13, 68, 0
6, 20101, Pitch_bend_c, 13, 13782
6, 20103, Pitch_bend_c, 13, 13652
6, 20105, Pitch_bend_c, 13, 13392
6, 20107, Pitch_bend_c, 13, 13262
6, 20107, Pitch_bend_c, 13, 13002
6, 20109, Pitch_bend_c, 13, 12742
6, 20111, Pitch_bend_c, 13, 12482
6, 20111, Pitch_bend_c, 13, 12092
6, 20112, Pitch_bend_c, 13, 11572
6, 20112, Pitch_bend_c, 13, 11052
6, 20114, Pitch_bend_c, 13, 10272
6, 20116, Pitch_bend_c, 13, 9232
6, 20118, Pitch_bend_c, 13, 8192
6, 20129, Note_on_c, 13, 65, 52
6, 20165, Pitch_bend_c, 13, 8322
6, 20165, Pitch_bend_c, 13, 8582
6, 20167, Pitch_bend_c, 13, 8842
6, 20169, Pitch_bend_c, 13, 9102
6, 20169, Pitch_bend_c, 13, 9232
6, 20171, Pitch_bend_c, 13, 9362
6, 20173, Pitch_bend_c, 13, 9492
6, 20173, Pitch_bend_c, 13, 9622
6, 20179, Pitch_bend_c, 13, 9752
6, 20184, Pitch_bend_c, 13, 9622
6, 20187, Pitch_bend_c, 13, 9492
6, 20187, Pitch_bend_c, 13, 9362
6, 20189, Pitch_bend_c, 13, 9232
6, 20189, Pitch_bend_c, 13, 8972
6, 20192, Pitch_bend_c, 13, 8842
6, 20193, Pitch_bend_c, 13, 8712
6, 20195, Pitch_bend_c, 13, 8582
6, 20197, Pitch_bend_c, 13, 8322
6, 20201, Pitch_bend_c, 13, 8192
6, 20233, Pitch_bend_c, 13, 8452
6, 20235, Pitch_bend_c, 13, 8582
6, 20235, Pitch_bend_c, 13, 8712
6, 20239, Pitch_bend_c, 13, 8842
6, 20244, Pitch_bend_c, 13, 8582
6, 20246, Pitch_bend_c, 13, 8322
6, 20248, Pitch_bend_c, 13, 8192
6, 20272, Note_on_c, 13, 65, 0
6, 20758, Note_on_c, 13, 75, 91
6, 20778, Pitch_bend_c, 13, 8712
6, 20780, Pitch_bend_c, 13, 9492
6, 20782, Pitch_bend_c, 13, 10402
6, 20782, Pitch_bend_c, 13, 11182
6, 20784, Pitch_bend_c, 13, 12092
6, 20784, Pitch_bend_c, 13, 13002
6, 20785, Pitch_bend_c, 13, 13522
6, 20787, Pitch_bend_c, 13, 14172
6, 20787, Pitch_bend_c, 13, 14692
6, 20789, Pitch_bend_c, 13, 15212
6, 20791, Pitch_bend_c, 13, 15602
6, 20791, Pitch_bend_c, 13, 15992
6, 20793, Pitch_bend_c, 13, 16382
6, 20809, Note_on_c, 13, 75, 0
6, 20842, Note_on_c, 13, 75, 91
6, 20928, Pitch_bend_c, 13, 16252
6, 20928, Pitch_bend_c, 13, 16122
6, 20930, Pitch_bend_c, 13, 15992
6, 20932, Pitch_bend_c, 13, 15862
6, 20932, Pitch_bend_c, 13, 15732
6, 20934, Pitch_bend_c, 13, 15602
6, 20936, Pitch_bend_c, 13, 15472
6, 20938, Pitch_bend_c, 13, 15212
6, 20938, Pitch_bend_c, 13, 15082
6, 20940, Pitch_bend_c, 13, 14952
6, 20942, Pitch_bend_c, 13, 14692
6, 20942, Pitch_bend_c, 13, 14432
6, 20944, Pitch_bend_c, 13, 14172
6, 20946, Pitch_bend_c, 13, 13912
6, 20946, Pitch_bend_c, 13, 13652
6, 20948, Pitch_bend_c, 13, 13262
6, 20950, Pitch_bend_c, 13, 12872
6, 20950, Pitch_bend_c, 13, 12482
6, 20952, Pitch_bend_c, 13, 11962
6, 20953, Pitch_bend_c, 13, 11572
6, 20953, Pitch_bend_c, 13, 11052
6, 20955, Pitch_bend_c, 13, 10532
6, 20957, Pitch_bend_c, 13, 9882
6, 20959, Pitch_bend_c, 13, 9362
6, 20961, Note_on_c, 13, 72, 32
6, 20961, Pitch_bend_c, 13, 8972
6, 20961, Pitch_bend_c, 13, 8582
6, 20963, Note_on_c, 13, 75, 0
6, 20963, Pitch_bend_c, 13, 8192
6, 20983, Note_on_c, 13, 70, 64
6, 20990, Note_on_c, 13, 72, 0
6, 21001, Note_on_c, 13, 70, 0
6, 21021, Note_on_c, 13, 68, 82
6, 21050, Note_on_c, 13, 70, 52
6, 21057, Note_on_c, 13, 68, 0
6, 21073, Note_on_c, 13, 70, 0
6, 21086, Note_on_c, 13, 65, 52
6, 21104, Note_on_c, 13, 65, 0
6, 21122, Note_on_c, 13, 70, 82
6, 21156, Pitch_bend_c, 13, 8322
6, 21158, Note_on_c, 13, 70, 0
6, 21158, Note_on_c, 13, 68, 52
6, 21158, Pitch_bend_c, 13, 8452
6, 21158, Pitch_bend_c, 13, 8582
6, 21161, Pitch_bend_c, 13, 8712
6, 21166, Pitch_bend_c, 13, 8842
6, 21173, Pitch_bend_c, 13, 8712
6, 21175, Pitch_bend_c, 13, 8582
6, 21177, Note_on_c, 13, 68, 0
6, 21177, Pitch_bend_c, 13, 8322
6, 21177, Pitch_bend_c, 13, 8192
6, 21199, Note_on_c, 13, 70, 73
6, 21223, Pitch_bend_c, 13, 8322
6, 21225, Pitch_bend_c, 13, 8582
6, 21225, Pitch_bend_c, 13, 8712
6, 21227, Pitch_bend_c, 13, 8972
6, 21227, Pitch_bend_c, 13, 9232
6, 21228, Pitch_bend_c, 13, 9362
6, 21230, Pitch_bend_c, 13, 9492
6, 21232, Pitch_bend_c, 13, 9752
6, 21232, Pitch_bend_c, 13, 9882
6, 21234, Pitch_bend_c, 13, 10012
6, 21234, Pitch_bend_c, 13, 10272
6, 21236, Pitch_bend_c, 13, 10402
6, 21238, Pitch_bend_c, 13, 10532
6, 21240, Pitch_bend_c, 13, 10792
6, 21240, Pitch_bend_c, 13, 11052
6, 21242, Pitch_bend_c, 13, 11182
6, 21244, Pitch_bend_c, 13, 11312
6, 21244, Pitch_bend_c, 13, 11572
6, 21246, Pitch_bend_c, 13, 11702
6, 21246, Pitch_bend_c, 13, 11832
6, 21248, Pitch_bend_c, 13, 11962
6, 21250, Pitch_bend_c, 13, 12092
6, 21252, Pitch_bend_c, 13, 12222
6, 21255, Pitch_bend_c, 13, 12352
6, 21264, Pitch_bend_c, 13, 12222
6, 21264, Pitch_bend_c, 13, 12092
6, 21266, Pitch_bend_c, 13, 11832
6, 21268, Pitch_bend_c, 13, 11442
6, 21268, Pitch_bend_c, 13, 10792
6, 21270, Note_on_c, 13, 70, 0
6, 21270, Pitch_bend_c, 13, 9362
6, 21272, Pitch_bend_c, 13, 8192
6, 21290, Note_on_c, 13, 68, 56
6, 21323, Note_on_c, 13, 68, 0
6, 21342, Pitch_bend_c, 13, 8452
6, 21342, Pitch_bend_c, 13, 8712
6, 21345, Pitch_bend_c, 13, 9102
6, 21345, Pitch_bend_c, 13, 9232
6, 21347, Pitch_bend_c, 13, 9362
6, 21350, Pitch_bend_c, 13, 9492
6, 21354, Pitch_bend_c, 13, 9362
6, 21358, Pitch_bend_c, 13, 9232
6, 21360, Pitch_bend_c, 13, 8972
6, 21360, Pitch_bend_c, 13, 8712
6, 21361, Pitch_bend_c, 13, 8452
6, 21361, Pitch_bend_c, 13, 8192
6, 21394, Pitch_bend_c, 13, 8322
6, 21396, Pitch_bend_c, 13, 8452
6, 21396, Pitch_bend_c, 13, 8712
6, 21398, Pitch_bend_c, 13, 8842
6, 21400, Pitch_bend_c, 13, 9102
6, 21400, Pitch_bend_c, 13, 9232
6, 21402, Pitch_bend_c, 13, 9362
6, 21405, Pitch_bend_c, 13, 9492
6, 21412, Pitch_bend_c, 13, 9362
6, 21415, Pitch_bend_c, 13, 9232
6, 21416, Pitch_bend_c, 13, 9102
6, 21418, Pitch_bend_c, 13, 8842
6, 21418, Pitch_bend_c, 13, 8582
6, 21418, Pitch_bend_c, 13, 8322
6, 21420, Pitch_bend_c, 13, 8192
6, 21429, Note_on_c, 13, 65, 60
6, 21453, Pitch_bend_c, 13, 8452
6, 21453, Pitch_bend_c, 13, 8582
6, 21455, Note_on_c, 13, 65, 0
6, 21455, Pitch_bend_c, 13, 8842
6, 21457, Pitch_bend_c, 13, 8972
6, 21458, Pitch_bend_c, 13, 9232
6, 21469, Pitch_bend_c, 13, 8972
6, 21471, Pitch_bend_c, 13, 8842
6, 21471, Pitch_bend_c, 13, 8712
6, 21473, Pitch_bend_c, 13, 8582
6, 21475, Pitch_bend_c, 13, 8452
6, 21475, Pitch_bend_c, 13, 8192
6, 21637, Note_on_c, 13, 60, 30
6, 21659, Note_on_c, 13, 60, 0
6, 21670, Note_on_c, 13, 62, 56
6, 21694, Note_on_c, 13, 62, 0
6, 21717, Note_on_c, 13, 65, 91
6, 21758, Note_on_c, 13, 67, 60
6, 21764, Note_on_c, 13, 65, 0
6, 21775, Note_on_c, 13, 67, 0
6, 21805, Note_on_c, 13, 68, 82
6, 21833, Pitch_bend_c, 13, 8452
6, 21835, Pitch_bend_c, 13, 8712
6, 21835, Pitch_bend_c, 13, 9102
6, 21838, Pitch_bend_c, 13, 8842
6, 21840, Pitch_bend_c, 13, 8712
6, 21840, Pitch_bend_c, 13, 8582
6, 21846, Pitch_bend_c, 13, 8322
6, 21846, Pitch_bend_c, 13, 8192
6, 21859, Pitch_bend_c, 13, 7936
6, 21860, Pitch_bend_c, 13, 7808
6, 21864, Pitch_bend_c, 13, 7936
6, 21866, Pitch_bend_c, 13, 8192
6, 21875, Pitch_bend_c, 13, 8452
6, 21877, Pitch_bend_c, 13, 8972
6, 21877, Pitch_bend_c, 13, 9362
6, 21879, Pitch_bend_c, 13, 9622
6, 21881, Pitch_bend_c, 13, 9882
6, 21883, Pitch_bend_c, 13, 10012
6, 21890, Pitch_bend_c, 13, 9882
6, 21892, Pitch_bend_c, 13, 9752
6, 21896, Pitch_bend_c, 13, 9622
6, 21896, Pitch_bend_c, 13, 9492
6, 21900, Pitch_bend_c, 13, 9362
6, 21901, Pitch_bend_c, 13, 9232
6, 21905, Pitch_bend_c, 13, 9102
6, 21907, Pitch_bend_c, 13, 8972
6, 21911, Pitch_bend_c, 13, 8712
6, 21911, Pitch_bend_c, 13, 8452
6, 21912, Pitch_bend_c, 13, 8322
6, 21914, Pitch_bend_c, 13, 8192
6, 21916, Note_on_c, 13, 68, 0
6, 21940, Note_on_c, 13, 67, 30
6, 21945, Note_on_c, 13, 67, 0
6, 21956, Note_on_c, 13, 65, 56
6, 21999, Note_on_c, 13, 65, 0
6, 22037, Note_on_c, 13, 70, 82
6, 22057, Pitch_bend_c, 13, 8322
6, 22059, Pitch_bend_c, 13, 8582
6, 22061, Pitch_bend_c, 13, 8972
6, 22061, Pitch_bend_c, 13, 9362
6, 22063, Pitch_bend_c, 13, 9752
6, 22063, Pitch_bend_c, 13, 10012
6, 22065, Pitch_bend_c, 13, 10402
6, 22067, Pitch_bend_c, 13, 10792
6, 22068, Pitch_bend_c, 13, 11052
6, 22068, Pitch_bend_c, 13, 11442
6, 22071, Pitch_bend_c, 13, 11702
6, 22072, Pitch_bend_c, 13, 11572
6, 22072, Pitch_bend_c, 13, 11312
6, 22075, Pitch_bend_c, 13, 11052
6, 22078, Pitch_bend_c, 13, 11182
6, 22080, Pitch_bend_c, 13, 11312
6, 22082, Pitch_bend_c, 13, 11442
6, 22084, Pitch_bend_c, 13, 11572
6, 22086, Pitch_bend_c, 13, 11702
6, 22089, Pitch_bend_c, 13, 11832
6, 22097, Pitch_bend_c, 13, 11962
6, 22099, Note_on_c, 13, 70, 0
6, 22102, Pitch_bend_c, 13, 12092
6, 22118, Pitch_bend_c, 13, 11962
6, 22118, Pitch_bend_c, 13, 11832
6, 22120, Pitch_bend_c, 13, 11702
6, 22122, Pitch_bend_c, 13, 11572
6, 22124, Pitch_bend_c, 13, 11442
6, 22124, Pitch_bend_c, 13, 11182
6, 22126, Pitch_bend_c, 13, 10922
6, 22126, Pitch_bend_c, 13, 10532
6, 22128, Pitch_bend_c, 13, 10142
6, 22130, Pitch_bend_c, 13, 9752
6, 22132, Pitch_bend_c, 13, 9362
6, 22134, Note_on_c, 13, 70, 64
6, 22134, Pitch_bend_c, 13, 8582
6, 22134, Pitch_bend_c, 13, 8192
6, 22154, Pitch_bend_c, 13, 8322
6, 22156, Pitch_bend_c, 13, 8582
6, 22158, Pitch_bend_c, 13, 9102
6, 22158, Pitch_bend_c, 13, 9362
6, 22160, Pitch_bend_c, 13, 9752
6, 22162, Pitch_bend_c, 13, 10142
6, 22162, Pitch_bend_c, 13, 10532
6, 22164, Pitch_bend_c, 13, 10792
6, 22165, Pitch_bend_c, 13, 11052
6, 22165, Pitch_bend_c, 13, 11312
6, 22167, Pitch_bend_c, 13, 11442
6, 22169, Pitch_bend_c, 13, 11572
6, 22176, Pitch_bend_c, 13, 11442
6, 22178, Pitch_bend_c, 13, 11182
6, 22178, Pitch_bend_c, 13, 10922
6, 22180, Pitch_bend_c, 13, 10662
6, 22182, Pitch_bend_c, 13, 10272
6, 22182, Pitch_bend_c, 13, 9882
6, 22184, Pitch_bend_c, 13, 9492
6, 22186, Pitch_bend_c, 13, 9102
6, 22186, Pitch_bend_c, 13, 8582
6, 22188, Pitch_bend_c, 13, 8192
6, 22194, Note_on_c, 13, 70, 0
6, 22210, Note_on_c, 13, 68, 60
6, 22257, Note_on_c, 13, 68, 0
6, 22284, Note_on_c, 13, 65, 44
6, 22298, Pitch_bend_c, 13, 8322
6, 22300, Pitch_bend_c, 13, 8712
6, 22300, Pitch_bend_c, 13, 9102
6, 22302, Pitch_bend_c, 13, 9362
6, 22304, Pitch_bend_c, 13, 9492
6, 22304, Pitch_bend_c, 13, 9622
6, 22313, Pitch_bend_c, 13, 9492
6, 22315, Pitch_bend_c, 13, 9102
6, 22317, Pitch_bend_c, 13, 8712
6, 22317, Pitch_bend_c, 13, 8322
6, 22319, Pitch_bend_c, 13, 8192
6, 22341, Pitch_bend_c, 13, 8322
6, 22343, Pitch_bend_c, 13, 8712
6, 22344, Pitch_bend_c, 13, 9102
6, 22346, Pitch_bend_c, 13, 9622
6, 22346, Pitch_bend_c, 13, 10012
6, 22348, Pitch_bend_c, 13, 10272
6, 22348, Pitch_bend_c, 13, 10532
6, 22350, Pitch_bend_c, 13, 10792
6, 22352, Pitch_bend_c, 13, 10922
6, 22359, Pitch_bend_c, 13, 10792
6, 22359, Pitch_bend_c, 13, 10532
6, 22361, Pitch_bend_c, 13, 10272
6, 22363, Pitch_bend_c, 13, 10012
6, 22363, Pitch_bend_c, 13, 9752
6, 22365, Pitch_bend_c, 13, 9492
6, 22367, Pitch_bend_c, 13, 9232
6, 22367, Pitch_bend_c, 13, 8972
6, 22369, Pitch_bend_c, 13, 8712
6, 22371, Pitch_bend_c, 13, 8582
6, 22371, Pitch_bend_c, 13, 8322
6, 22373, Pitch_bend_c, 13, 8192
6, 22389, Pitch_bend_c, 13, 8322
6, 22389, Pitch_bend_c, 13, 8582
6, 22391, Pitch_bend_c, 13, 8712
6, 22393, Pitch_bend_c, 13, 8972
6, 22393, Pitch_bend_c, 13, 9232
6, 22395, Pitch_bend_c, 13, 9362
6, 22397, Pitch_bend_c, 13, 9622
6, 22397, Pitch_bend_c, 13, 9882
6, 22399, Pitch_bend_c, 13, 10142
6, 22401, Pitch_bend_c, 13, 10402
6, 22403, Pitch_bend_c, 13, 10532
6, 22403, Pitch_bend_c, 13, 10792
6, 22404, Pitch_bend_c, 13, 10922
6, 22406, Pitch_bend_c, 13, 11052
6, 22406, Pitch_bend_c, 13, 10792
6, 22408, Note_on_c, 13, 65, 0
6, 22408, Pitch_bend_c, 13, 10012
6, 22411, Pitch_bend_c, 13, 9232
6, 22411, Pitch_bend_c, 13, 8192
6, 22680, Note_on_c, 13, 60, 30
6, 22745, Note_on_c, 13, 60, 0
6, 22754, Note_on_c, 13, 62, 60
6, 22784, Note_on_c, 13, 62, 0
6, 22805, Note_on_c, 13, 65, 73
6, 22856, Note_on_c, 13, 65, 0
6, 22869, Note_on_c, 13, 67, 64
6, 22888, Note_on_c, 13, 67, 0
6, 22915, Note_on_c, 13, 68, 82
6, 22935, Note_on_c, 13, 68, 0
6, 22935, Note_on_c, 13, 69, 64
6, 22986, Note_on_c, 13, 69, 0
6, 22986, Note_on_c, 13, 72, 82
6, 23018, Note_on_c, 13, 72, 0
6, 23037, Note_on_c, 13, 72, 73
6, 23054, Note_on_c, 13, 74, 64
6, 23065, Note_on_c, 13, 72, 0
6, 23105, Note_on_c, 13, 74, 0
6, 23112, Note_on_c, 13, 79, 91
6, 23147, Note_on_c, 13, 79, 0
6, 23160, Note_on_c, 13, 77, 73
6, 23184, Pitch_bend_c, 13, 8322
6, 23186, Pitch_bend_c, 13, 8452
6, 23186, Pitch_bend_c, 13, 8712
6, 23189, Pitch_bend_c, 13, 8972
6, 23190, Pitch_bend_c, 13, 9102
6, 23190, Pitch_bend_c, 13, 9232
6, 23192, Pitch_bend_c, 13, 9362
6, 23194, Pitch_bend_c, 13, 9492
6, 23203, Pitch_bend_c, 13, 9362
6, 23205, Pitch_bend_c, 13, 9232
6, 23207, Pitch_bend_c, 13, 8972
6, 23207, Pitch_bend_c, 13, 8712
6, 23209, Note_on_c, 13, 77, 0
6, 23209, Pitch_bend_c, 13, 8322
6, 23211, Pitch_bend_c, 13, 8192
6, 23219, Note_on_c, 13, 72, 52
6, 23233, Note_on_c, 13, 73, 73
6, 23236, Note_on_c, 13, 72, 0
6, 23245, Note_on_c, 13, 73, 0
6, 23247, Note_on_c, 13, 74, 56
6, 23285, Note_on_c, 13, 74, 0
6, 23289, Note_on_c, 13, 72, 56
6, 23352, Note_on_c, 13, 72, 0
6, 23352, Note_on_c, 13, 69, 52
6, 23388, Note_on_c, 13, 69, 0
6, 23478, Note_on_c, 13, 72, 30
6, 23495, Pitch_bend_c, 13, 8452
6, 23496, Pitch_bend_c, 13, 8842
6, 23498, Pitch_bend_c, 13, 9232
6, 23498, Pitch_bend_c, 13, 9492
6, 23500, Pitch_bend_c, 13, 9622
6, 23502, Pitch_bend_c, 13, 9752
6, 23504, Pitch_bend_c, 13, 9882
6, 23508, Pitch_bend_c, 13, 9752
6, 23510, Pitch_bend_c, 13, 9622
6, 23510, Pitch_bend_c, 13, 9492
6, 23512, Pitch_bend_c, 13, 9232
6, 23514, Pitch_bend_c, 13, 8842
6, 23514, Pitch_bend_c, 13, 8582
6, 23516, Pitch_bend_c, 13, 8192
6, 23544, Pitch_bend_c, 13, 8452
6, 23545, Pitch_bend_c, 13, 8582
6, 23548, Pitch_bend_c, 13, 8712
6, 23556, Pitch_bend_c, 13, 8452
6, 23557, Pitch_bend_c, 13, 8322
6, 23559, Pitch_bend_c, 13, 8192
6, 23621, Note_on_c, 13, 72, 0
6, 23950, Note_on_c, 13, 70, 91
6, 23984, Pitch_bend_c, 13, 8322
6, 23984, Pitch_bend_c, 13, 8452
6, 23987, Pitch_bend_c, 13, 8582
6, 23990, Pitch_bend_c, 13, 8842
6, 23992, Pitch_bend_c, 13, 8972
6, 23998, Pitch_bend_c, 13, 8842
6, 24000, Pitch_bend_c, 13, 8452
6, 24001, Pitch_bend_c, 13, 8192
6, 24034, Pitch_bend_c, 13, 8452
6, 24037, Pitch_bend_c, 13, 8582
6, 24047, Pitch_bend_c, 13, 8452
6, 24048, Pitch_bend_c, 13, 8322
6, 24050, Pitch_bend_c, 13, 8192
6, 24072, Note_on_c, 13, 70, 0
6, 24117, Note_on_c, 13, 68, 73
6, 24137, Pitch_bend_c, 13, 8322
6, 24139, Pitch_bend_c, 13, 8452
6, 24139, Pitch_bend_c, 13, 8712
6, 24141, Pitch_bend_c, 13, 9102
6, 24143, Pitch_bend_c, 13, 9362
6, 24143, Pitch_bend_c, 13, 9752
6, 24144, Pitch_bend_c, 13, 10012
6, 24146, Pitch_bend_c, 13, 10402
6, 24146, Pitch_bend_c, 13, 10792
6, 24148, Pitch_bend_c, 13, 11182
6, 24150, Pitch_bend_c, 13, 11572
6, 24152, Pitch_bend_c, 13, 11832
6, 24152, Pitch_bend_c, 13, 12222
6, 24154, Pitch_bend_c, 13, 12482
6, 24156, Pitch_bend_c, 13, 12742
6, 24156, Pitch_bend_c, 13, 12872
6, 24158, Pitch_bend_c, 13, 13132
6, 24160, Pitch_bend_c, 13, 13262
6, 24162, Pitch_bend_c, 13, 13392
6, 24166, Pitch_bend_c, 13, 13522
6, 24171, Note_on_c, 13, 68, 0
6, 24178, Pitch_bend_c, 13, 13392
6, 24180, Pitch_bend_c, 13, 13262
6, 24182, Pitch_bend_c, 13, 13132
6, 24184, Pitch_bend_c, 13, 13002
6, 24184, Pitch_bend_c, 13, 12742
6, 24186, Pitch_bend_c, 13, 12482
6, 24188, Pitch_bend_c, 13, 12352
6, 24190, Pitch_bend_c, 13, 12092
6, 24190, Pitch_bend_c, 13, 11702
6, 24192, Pitch_bend_c, 13, 11312
6, 24193, Pitch_bend_c, 13, 10922
6, 24193, Pitch_bend_c, 13, 10142
6, 24195, Pitch_bend_c, 13, 9232
6, 24197, Pitch_bend_c, 13, 8192
6, 24234, Note_on_c, 13, 67, 64
6, 24252, Pitch_bend_c, 13, 8452
6, 24252, Pitch_bend_c, 13, 8582
6, 24253, Pitch_bend_c, 13, 8842
6, 24255, Pitch_bend_c, 13, 8972
6, 24257, Pitch_bend_c, 13, 9102
6, 24259, Pitch_bend_c, 13, 9232
6, 24268, Pitch_bend_c, 13, 8972
6, 24270, Pitch_bend_c, 13, 8712
6, 24270, Pitch_bend_c, 13, 8452
6, 24272, Pitch_bend_c, 13, 8192
6, 24298, Note_on_c, 13, 65, 60
6, 24300, Note_on_c, 13, 67, 0
6, 24337, Note_on_c, 13, 65, 0
6, 24434, Note_on_c, 13, 65, 56
6, 24499, Pitch_bend_c, 13, 8452
6, 24501, Pitch_bend_c, 13, 8712
6, 24503, Pitch_bend_c, 13, 8842
6, 24503, Pitch_bend_c, 13, 8972
6, 24511, Pitch_bend_c, 13, 8712
6, 24513, Pitch_bend_c, 13, 8452
6, 24513, Pitch_bend_c, 13, 8322
6, 24516, Pitch_bend_c, 13, 8192
6, 24552, Pitch_bend_c, 13, 8322
6, 24558, Pitch_bend_c, 13, 8192
6, 24596, Pitch_bend_c, 13, 8322
6, 24598, Pitch_bend_c, 13, 8452
6, 24598, Pitch_bend_c, 13, 8582
6, 24600, Pitch_bend_c, 13, 8712
6, 24618, Pitch_bend_c, 13, 8582
6, 24634, Pitch_bend_c, 13, 8452
6, 24641, Note_on_c, 13, 65, 0
6, 24643, Note_on_c, 13, 63, 30
6, 24670, Note_on_c, 13, 63, 0
6, 24677, Pitch_bend_c, 13, 8322
6, 24679, Note_on_c, 13, 60, 56
6, 24697, Pitch_bend_c, 13, 8192
6, 24701, Note_on_c, 13, 60, 0
6, 24716, Note_on_c, 13, 63, 100
6, 24752, Note_on_c, 13, 63, 0
6, 24754, Note_on_c, 13, 58, 56
6, 24786, Note_on_c, 13, 58, 0
6, 24793, Note_on_c, 13, 53, 60
6, 24815, Note_on_c, 13, 53, 0
6, 24837, Note_on_c, 13, 60, 64
6, 24867, Note_on_c, 13, 60, 0
6, 24876, Note_on_c, 13, 58, 64
6, 24902, Pitch_bend_c, 13, 8322
6, 24902, Pitch_bend_c, 13, 8582
6, 24904, Pitch_bend_c, 13, 8972
6, 24906, Pitch_bend_c, 13, 9232
6, 24906, Pitch_bend_c, 13, 9492
6, 24908, Pitch_bend_c, 13, 9752
6, 24910, Pitch_bend_c, 13, 10012
6, 24910, Pitch_bend_c, 13, 10142
6, 24912, Pitch_bend_c, 13, 10402
6, 24915, Note_on_c, 13, 58, 0
6, 24917, Pitch_bend_c, 13, 10272
6, 24919, Pitch_bend_c, 13, 9882
6, 24919, Pitch_bend_c, 13, 9622
6, 24921, Pitch_bend_c, 13, 9232
6, 24921, Pitch_bend_c, 13, 8842
6, 24923, Pitch_bend_c, 13, 8192
6, 24941, Pitch_bend_c, 13, 8582
6, 24941, Pitch_bend_c, 13, 9102
6, 24943, Pitch_bend_c, 13, 9752
6, 24945, Pitch_bend_c, 13, 10402
6, 24945, Pitch_bend_c, 13, 11182
6, 24947, Pitch_bend_c, 13, 11702
6, 24948, Pitch_bend_c, 13, 12092
6, 24948, Pitch_bend_c, 13, 12352
6, 24950, Pitch_bend_c, 13, 12612
6, 24952, Pitch_bend_c, 13, 12742
6, 24958, Pitch_bend_c, 13, 12612
6, 24961, Pitch_bend_c, 13, 12352
6, 24961, Pitch_bend_c, 13, 12222
6, 24963, Pitch_bend_c, 13, 12092
6, 24965, Pitch_bend_c, 13, 11962
6, 24965, Pitch_bend_c, 13, 11702
6, 24968, Pitch_bend_c, 13, 11442
6, 24970, Pitch_bend_c, 13, 10662
6, 24971, Pitch_bend_c, 13, 9492
6, 24971, Pitch_bend_c, 13, 8192
6, 25099, Pitch_bend_c, 13, 8322
6, 25099, Pitch_bend_c, 13, 8582
6, 25101, Pitch_bend_c, 13, 8712
6, 25103, Pitch_bend_c, 13, 8972
6, 25103, Pitch_bend_c, 13, 9232
6, 25105, Pitch_bend_c, 13, 9362
6, 25107, Pitch_bend_c, 13, 9492
6, 25109, Pitch_bend_c, 13, 9622
6, 25118, Pitch_bend_c, 13, 9492
6, 25120, Pitch_bend_c, 13, 9362
6, 25120, Pitch_bend_c, 13, 9102
6, 25122, Pitch_bend_c, 13, 8842
6, 25124, Pitch_bend_c, 13, 8452
6, 25124, Pitch_bend_c, 13, 8192
6, 25156, Note_on_c, 13, 56, 100
6, 25185, Note_on_c, 13, 56, 0
6, 25192, Pitch_bend_c, 13, 8452
6, 25192, Pitch_bend_c, 13, 8582
6, 25194, Pitch_bend_c, 13, 8712
6, 25196, Pitch_bend_c, 13, 8842
6, 25198, Pitch_bend_c, 13, 8972
6, 25198, Pitch_bend_c, 13, 9102
6, 25202, Pitch_bend_c, 13, 9232
6, 25204, Pitch_bend_c, 13, 9362
6, 25220, Note_on_c, 13, 58, 91
6, 25220, Pitch_bend_c, 13, 9232
6, 25224, Pitch_bend_c, 13, 8972
6, 25224, Pitch_bend_c, 13, 8712
6, 25226, Pitch_bend_c, 13, 8452
6, 25228, Pitch_bend_c, 13, 8192
6, 25255, Note_on_c, 13, 58, 0
6, 25275, Pitch_bend_c, 13, 8322
6, 25280, Pitch_bend_c, 13, 8192
6, 25282, Note_on_c, 13, 58, 82
6, 25311, Pitch_bend_c, 13, 8452
6, 25311, Pitch_bend_c, 13, 8842
6, 25313, Pitch_bend_c, 13, 9362
6, 25315, Pitch_bend_c, 13, 9752
6, 25315, Pitch_bend_c, 13, 10272
6, 25317, Pitch_bend_c, 13, 10662
6, 25319, Pitch_bend_c, 13, 11182
6, 25319, Pitch_bend_c, 13, 11572
6, 25320, Pitch_bend_c, 13, 11832
6, 25322, Pitch_bend_c, 13, 12092
6, 25324, Pitch_bend_c, 13, 12222
6, 25325, Pitch_bend_c, 13, 12352
6, 25332, Pitch_bend_c, 13, 12222
6, 25332, Pitch_bend_c, 13, 11962
6, 25334, Pitch_bend_c, 13, 11832
6, 25335, Pitch_bend_c, 13, 11572
6, 25335, Pitch_bend_c, 13, 11312
6, 25338, Pitch_bend_c, 13, 11052
6, 25340, Pitch_bend_c, 13, 10792
6, 25340, Pitch_bend_c, 13, 10402
6, 25342, Pitch_bend_c, 13, 10142
6, 25344, Pitch_bend_c, 13, 9882
6, 25344, Pitch_bend_c, 13, 9622
6, 25345, Pitch_bend_c, 13, 9492
6, 25347, Pitch_bend_c, 13, 9362
6, 25353, Note_on_c, 13, 58, 0
6, 25356, Pitch_bend_c, 13, 9492
6, 25358, Pitch_bend_c, 13, 9622
6, 25360, Pitch_bend_c, 13, 9752
6, 25364, Pitch_bend_c, 13, 9882
6, 25366, Note_on_c, 13, 56, 64
6, 25366, Pitch_bend_c, 13, 10012
6, 25369, Pitch_bend_c, 13, 10142
6, 25377, Pitch_bend_c, 13, 10012
6, 25379, Pitch_bend_c, 13, 9882
6, 25380, Pitch_bend_c, 13, 9752
6, 25380, Pitch_bend_c, 13, 9622
6, 25382, Pitch_bend_c, 13, 9492
6, 25384, Pitch_bend_c, 13, 9232
6, 25384, Pitch_bend_c, 13, 8842
6, 25386, Pitch_bend_c, 13, 8322
6, 25388, Pitch_bend_c, 13, 8192
6, 25399, Note_on_c, 13, 56, 0
6, 25399, Note_on_c, 13, 53, 52
6, 25423, Note_on_c, 13, 53, 0
6, 25430, Pitch_bend_c, 13, 8322
6, 25434, Pitch_bend_c, 13, 8452
6, 25436, Pitch_bend_c, 13, 8582
6, 25446, Note_on_c, 13, 53, 73
6, 25452, Pitch_bend_c, 13, 8452
6, 25455, Pitch_bend_c, 13, 8322
6, 25459, Pitch_bend_c, 13, 8192
6, 25481, Pitch_bend_c, 13, 8322
6, 25481, Pitch_bend_c, 13, 8452
6, 25483, Pitch_bend_c, 13, 8712
6, 25485, Pitch_bend_c, 13, 8972
6, 25485, Pitch_bend_c, 13, 9102
6, 25487, Pitch_bend_c, 13, 9232
6, 25488, Pitch_bend_c, 13, 9362
6, 25488, Pitch_bend_c, 13, 9492
6, 25490, Note_on_c, 13, 53, 0
6, 25500, Pitch_bend_c, 13, 9362
6, 25500, Pitch_bend_c, 13, 9232
6, 25501, Pitch_bend_c, 13, 9102
6, 25503, Pitch_bend_c, 13, 8842
6, 25506, Pitch_bend_c, 13, 8712
6, 25506, Pitch_bend_c, 13, 8452
6, 25507, Pitch_bend_c, 13, 8322
6, 25509, Pitch_bend_c, 13, 8192
6, 25513, Note_on_c, 13, 53, 64
6, 25527, Pitch_bend_c, 13, 8322
6, 25527, Pitch_bend_c, 13, 8582
6, 25529, Pitch_bend_c, 13, 8712
6, 25531, Pitch_bend_c, 13, 8842
6, 25533, Pitch_bend_c, 13, 9102
6, 25533, Pitch_bend_c, 13, 9232
6, 25535, Pitch_bend_c, 13, 9362
6, 25537, Pitch_bend_c, 13, 9492
6, 25537, Pitch_bend_c, 13, 9622
6, 25539, Note_on_c, 13, 53, 0
6, 25541, Pitch_bend_c, 13, 9752
6, 25543, Pitch_bend_c, 13, 9882
6, 25550, Pitch_bend_c, 13, 9752
6, 25556, Pitch_bend_c, 13, 9622
6, 25556, Pitch_bend_c, 13, 9492
6, 25558, Pitch_bend_c, 13, 9362
6, 25560, Pitch_bend_c, 13, 9232
6, 25561, Pitch_bend_c, 13, 8972
6, 25561, Pitch_bend_c, 13, 8712
6, 25563, Pitch_bend_c, 13, 8452
6, 25565, Pitch_bend_c, 13, 8192
6, 25751, Note_on_c, 13, 53, 26
6, 25778, Note_on_c, 13, 53, 0
6, 25792, Note_on_c, 13, 65, 73
6, 25826, Note_on_c, 13, 65, 0
6, 25834, Note_on_c, 13, 63, 64
6, 25858, Note_on_c, 13, 63, 0
6, 25872, Note_on_c, 13, 62, 40
6, 25888, Note_on_c, 13, 62, 0
6, 25919, Note_on_c, 13, 60, 60
6, 25993, Note_on_c, 13, 60, 0
6, 26000, Note_on_c, 13, 62, 73
6, 26023, Note_on_c, 13, 62, 0
6, 26040, Note_on_c, 13, 63, 82
6, 26067, Note_on_c, 13, 63, 0
6, 26073, Note_on_c, 13, 64, 44
6, 26100, Note_on_c, 13, 64, 0
6, 26114, Note_on_c, 13, 70, 82
6, 26141, Note_on_c, 13, 70, 0
6, 26154, Note_on_c, 13, 68, 73
6, 26173, Note_on_c, 13, 69, 48
6, 26183, Note_on_c, 13, 68, 0
6, 26222, Note_on_c, 13, 69, 0
6, 26233, Note_on_c, 13, 65, 60
6, 26256, Pitch_bend_c, 13, 8322
6, 26256, Pitch_bend_c, 13, 8582
6, 26259, Pitch_bend_c, 13, 8712
6, 26261, Pitch_bend_c, 13, 8842
6, 26262, Pitch_bend_c, 13, 8972
6, 26271, Pitch_bend_c, 13, 8712
6, 26273, Pitch_bend_c, 13, 8322
6, 26273, Pitch_bend_c, 13, 8192
6, 26284, Note_on_c, 13, 65, 0
6, 33894, Note_on_c, 13, 65, 91
6, 33928, Note_on_c, 13, 60, 82
6, 33935, Note_on_c, 13, 65, 0
6, 33955, Note_on_c, 13, 60, 0
6, 33964, Note_on_c, 13, 59, 91
6, 33993, Note_on_c, 13, 59, 0
6, 34002, Note_on_c, 13, 58, 91
6, 34031, Note_on_c, 13, 58, 0
6, 34035, Pitch_bend_c, 13, 8452
6, 34037, Pitch_bend_c, 13, 8582
6, 34038, Note_on_c, 13, 56, 100
6, 34038, Pitch_bend_c, 13, 8972
6, 34041, Pitch_bend_c, 13, 9232
6, 34042, Pitch_bend_c, 13, 9362
6, 34042, Pitch_bend_c, 13, 9622
6, 34044, Pitch_bend_c, 13, 9752
6, 34046, Pitch_bend_c, 13, 10012
6, 34046, Pitch_bend_c, 13, 10142
6, 34048, Pitch_bend_c, 13, 10272
6, 34050, Pitch_bend_c, 13, 10532
6, 34050, Pitch_bend_c, 13, 10662
6, 34054, Pitch_bend_c, 13, 10792
6, 34059, Pitch_bend_c, 13, 10532
6, 34061, Pitch_bend_c, 13, 10272
6, 34063, Pitch_bend_c, 13, 9752
6, 34063, Pitch_bend_c, 13, 9232
6, 34065, Pitch_bend_c, 13, 8192
6, 34070, Note_on_c, 13, 56, 0
6, 34081, Note_on_c, 13, 53, 100
6, 34121, Pitch_bend_c, 13, 8322
6, 34123, Pitch_bend_c, 13, 8582
6, 34123, Pitch_bend_c, 13, 8842
6, 34125, Pitch_bend_c, 13, 9102
6, 34127, Pitch_bend_c, 13, 9362
6, 34127, Pitch_bend_c, 13, 9622
6, 34129, Pitch_bend_c, 13, 9882
6, 34130, Pitch_bend_c, 13, 10142
6, 34130, Pitch_bend_c, 13, 10402
6, 34133, Pitch_bend_c, 13, 10532
6, 34135, Pitch_bend_c, 13, 10662
6, 34140, Pitch_bend_c, 13, 10272
6, 34142, Pitch_bend_c, 13, 10142
6, 34144, Pitch_bend_c, 13, 9882
6, 34144, Pitch_bend_c, 13, 9622
6, 34146, Pitch_bend_c, 13, 9232
6, 34148, Pitch_bend_c, 13, 8582
6, 34148, Pitch_bend_c, 13, 8192
6, 34164, Pitch_bend_c, 13, 8452
6, 34166, Pitch_bend_c, 13, 8972
6, 34166, Pitch_bend_c, 13, 9492
6, 34168, Pitch_bend_c, 13, 10012
6, 34170, Pitch_bend_c, 13, 10532
6, 34170, Pitch_bend_c, 13, 10922
6, 34172, Pitch_bend_c, 13, 11052
6, 34177, Pitch_bend_c, 13, 10922
6, 34177, Pitch_bend_c, 13, 10662
6, 34179, Pitch_bend_c, 13, 10402
6, 34181, Pitch_bend_c, 13, 10142
6, 34181, Pitch_bend_c, 13, 9622
6, 34183, Pitch_bend_c, 13, 8972
6, 34183, Pitch_bend_c, 13, 8192
6, 34190, Pitch_bend_c, 13, 7936
6, 34192, Pitch_bend_c, 13, 7296
6, 34192, Pitch_bend_c, 13, 6912
6, 34194, Pitch_bend_c, 13, 6656
6, 34196, Pitch_bend_c, 13, 6528
6, 34198, Pitch_bend_c, 13, 6656
6, 34198, Pitch_bend_c, 13, 6912
6, 34200, Pitch_bend_c, 13, 7296
6, 34202, Pitch_bend_c, 13, 8192
6, 34218, Note_on_c, 13, 53, 0
6, 34276, Note_on_c, 13, 53, 109
6, 34283, Note_on_c, 13, 53, 0
6, 34317, Pitch_bend_c, 13, 8064
6, 34317, Pitch_bend_c, 13, 7808
6, 34319, Pitch_bend_c, 13, 7552
6, 34321, Pitch_bend_c, 13, 7296
6, 34323, Pitch_bend_c, 13, 7168
6, 34323, Pitch_bend_c, 13, 6912
6, 34325, Pitch_bend_c, 13, 6784
6, 34327, Pitch_bend_c, 13, 6528
6, 34327, Pitch_bend_c, 13, 6400
6, 34329, Pitch_bend_c, 13, 6144
6, 34331, Pitch_bend_c, 13, 6016
6, 34331, Pitch_bend_c, 13, 5888
6, 34332, Pitch_bend_c, 13, 5632
6, 34334, Pitch_bend_c, 13, 5504
6, 34334, Pitch_bend_c, 13, 5376
6, 34336, Pitch_bend_c, 13, 5248
6, 34338, Pitch_bend_c, 13, 5120
6, 34340, Pitch_bend_c, 13, 4992
6, 34344, Pitch_bend_c, 13, 4864
6, 34347, Pitch_bend_c, 13, 4736
6, 34351, Pitch_bend_c, 13, 4608
6, 34353, Pitch_bend_c, 13, 4480
6, 34373, Pitch_bend_c, 13, 4608
6, 34377, Pitch_bend_c, 13, 4736
6, 34377, Pitch_bend_c, 13, 4864
6, 34379, Pitch_bend_c, 13, 4992
6, 34380, Pitch_bend_c, 13, 5248
6, 34380, Pitch_bend_c, 13, 5504
6, 34382, Pitch_bend_c, 13, 5760
6, 34384, Pitch_bend_c, 13, 6016
6, 34384, Pitch_bend_c, 13, 6400
6, 34386, Pitch_bend_c, 13, 7040
6, 34388, Pitch_bend_c, 13, 7680
6, 34388, Pitch_bend_c, 13, 8192
6, 42684, Note_on_c, 13, 75, 91
6, 42691, Pitch_bend_c, 13, 8452
6, 42693, Pitch_bend_c, 13, 8972
6, 42695, Pitch_bend_c, 13, 9492
6, 42697, Pitch_bend_c, 13, 10142
6, 42697, Pitch_bend_c, 13, 10922
6, 42699, Pitch_bend_c, 13, 11702
6, 42701, Pitch_bend_c, 13, 12612
6, 42701, Pitch_bend_c, 13, 13522
6, 42703, Pitch_bend_c, 13, 14302
6, 42705, Pitch_bend_c, 13, 14952
6, 42705, Pitch_bend_c, 13, 15602
6, 42707, Pitch_bend_c, 13, 15992
6, 42708, Pitch_bend_c, 13, 16382
6, 42964, Pitch_bend_c, 13, 16122
6, 42966, Pitch_bend_c, 13, 15212
6, 42968, Pitch_bend_c, 13, 13522
6, 42968, Pitch_bend_c, 13, 11312
6, 42970, Pitch_bend_c, 13, 8192
6, 42972, Pitch_bend_c, 13, 7552
6, 42974, Pitch_bend_c, 13, 8192
6, 43004, Note_on_c, 13, 72, 56
6, 43010, Note_on_c, 13, 75, 0
6, 43039, Note_on_c, 13, 70, 64
6, 43046, Note_on_c, 13, 72, 0
6, 43079, Note_on_c, 13, 65, 82
6, 43086, Note_on_c, 13, 70, 0
6, 43113, Note_on_c, 13, 65, 0
6, 43120, Note_on_c, 13, 68, 64
6, 43152, Note_on_c, 13, 68, 0
6, 43160, Note_on_c, 13, 65, 82
6, 43200, Note_on_c, 13, 68, 60
6, 43204, Note_on_c, 13, 65, 0
6, 43237, Note_on_c, 13, 65, 64
6, 43239, Note_on_c, 13, 68, 0
6, 43276, Note_on_c, 13, 65, 0
6, 43276, Note_on_c, 13, 68, 91
6, 43301, Note_on_c, 13, 68, 0
6, 43315, Note_on_c, 13, 70, 100
6, 43353, Note_on_c, 13, 68, 56
6, 43357, Note_on_c, 13, 70, 0
6, 43391, Note_on_c, 13, 68, 0
6, 43395, Note_on_c, 13, 65, 82
6, 43422, Note_on_c, 13, 65, 0
6, 43437, Note_on_c, 13, 63, 91
6, 43475, Note_on_c, 13, 60, 64
6, 43476, Note_on_c, 13, 63, 0
6, 43507, Note_on_c, 13, 60, 0
6, 43514, Note_on_c, 13, 63, 100
6, 43550, Note_on_c, 13, 63, 0
6, 43554, Note_on_c, 13, 64, 91
6, 43588, Note_on_c, 13, 64, 0
6, 43594, Note_on_c, 13, 65, 64
6, 43619, Note_on_c, 13, 65, 0
6, 43635, Note_on_c, 13, 66, 100
6, 43769, Note_on_c, 13, 66, 0
6, 55047, Note_on_c, 13, 64, 30
6, 55056, Note_on_c, 13, 64, 0
6, 55081, Note_on_c, 13, 69, 64
6, 55121, Note_on_c, 13, 66, 48
6, 55127, Note_on_c, 13, 69, 0
6, 55146, Note_on_c, 13, 66, 0
6, 55164, Note_on_c, 13, 66, 40
6, 55199, Pitch_bend_c, 13, 8322
6, 55200, Pitch_bend_c, 13, 8452
6, 55202, Pitch_bend_c, 13, 8712
6, 55202, Pitch_bend_c, 13, 8972
6, 55204, Pitch_bend_c, 13, 9232
6, 55206, Pitch_bend_c, 13, 9492
6, 55206, Pitch_bend_c, 13, 9622
6, 55208, Pitch_bend_c, 13, 9882
6, 55210, Pitch_bend_c, 13, 10012
6, 55210, Pitch_bend_c, 13, 10142
6, 55212, Pitch_bend_c, 13, 10272
6, 55214, Pitch_bend_c, 13, 10402
6, 55221, Pitch_bend_c, 13, 10272
6, 55223, Pitch_bend_c, 13, 10142
6, 55225, Pitch_bend_c, 13, 9882
6, 55225, Pitch_bend_c, 13, 9752
6, 55225, Pitch_bend_c, 13, 9492
6, 55227, Pitch_bend_c, 13, 9232
6, 55229, Pitch_bend_c, 13, 8972
6, 55231, Pitch_bend_c, 13, 8712
6, 55231, Pitch_bend_c, 13, 8452
6, 55233, Pitch_bend_c, 13, 8192
6, 55281, Note_on_c, 13, 66, 0
6, 55692, Note_on_c, 13, 69, 48
6, 55730, Note_on_c, 13, 69, 0
6, 55759, Pitch_bend_c, 13, 8322
6, 55761, Note_on_c, 13, 71, 82
6, 55761, Pitch_bend_c, 13, 8452
6, 55764, Pitch_bend_c, 13, 8582
6, 55764, Pitch_bend_c, 13, 8712
6, 55766, Pitch_bend_c, 13, 8842
6, 55768, Pitch_bend_c, 13, 8972
6, 55770, Pitch_bend_c, 13, 9102
6, 55772, Pitch_bend_c, 13, 9232
6, 55776, Pitch_bend_c, 13, 9362
6, 55777, Pitch_bend_c, 13, 9492
6, 55796, Note_on_c, 13, 71, 0
6, 55799, Pitch_bend_c, 13, 9362
6, 55803, Pitch_bend_c, 13, 9232
6, 55805, Pitch_bend_c, 13, 9102
6, 55807, Pitch_bend_c, 13, 8842
6, 55807, Pitch_bend_c, 13, 8712
6, 55809, Pitch_bend_c, 13, 8582
6, 55811, Pitch_bend_c, 13, 8452
6, 55812, Pitch_bend_c, 13, 8192
6, 55831, Note_on_c, 13, 71, 82
6, 55839, Pitch_bend_c, 13, 8322
6, 55841, Pitch_bend_c, 13, 8452
6, 55843, Pitch_bend_c, 13, 8582
6, 55843, Pitch_bend_c, 13, 8712
6, 55846, Pitch_bend_c, 13, 8842
6, 55848, Pitch_bend_c, 13, 8972
6, 55849, Pitch_bend_c, 13, 9102
6, 55849, Pitch_bend_c, 13, 9232
6, 55851, Pitch_bend_c, 13, 9492
6, 55855, Pitch_bend_c, 13, 9622
6, 55857, Pitch_bend_c, 13, 9882
6, 55859, Pitch_bend_c, 13, 10012
6, 55860, Pitch_bend_c, 13, 10142
6, 55860, Pitch_bend_c, 13, 10272
6, 55862, Pitch_bend_c, 13, 10402
6, 55864, Pitch_bend_c, 13, 10662
6, 55864, Pitch_bend_c, 13, 10792
6, 55866, Pitch_bend_c, 13, 10922
6, 55868, Pitch_bend_c, 13, 11182
6, 55868, Pitch_bend_c, 13, 11312
6, 55870, Pitch_bend_c, 13, 11572
6, 55872, Pitch_bend_c, 13, 11702
6, 55872, Pitch_bend_c, 13, 11832
6, 55874, Pitch_bend_c, 13, 11962
6, 55874, Pitch_bend_c, 13, 12092
6, 55876, Pitch_bend_c, 13, 12222
6, 55878, Pitch_bend_c, 13, 12352
6, 55880, Pitch_bend_c, 13, 12482
6, 55882, Note_on_c, 13, 71, 0
6, 55884, Pitch_bend_c, 13, 12612
6, 55900, Pitch_bend_c, 13, 12482
6, 55903, Pitch_bend_c, 13, 12352
6, 55903, Pitch_bend_c, 13, 12222
6, 55907, Pitch_bend_c, 13, 12092
6, 55907, Pitch_bend_c, 13, 11962
6, 55911, Pitch_bend_c, 13, 11832
6, 55911, Pitch_bend_c, 13, 11572
6, 55911, Note_on_c, 13, 71, 52
6, 55913, Pitch_bend_c, 13, 11442
6, 55915, Pitch_bend_c, 13, 11312
6, 55917, Pitch_bend_c, 13, 11052
6, 55917, Pitch_bend_c, 13, 10922
6, 55919, Pitch_bend_c, 13, 10662
6, 55919, Pitch_bend_c, 13, 10402
6, 55921, Pitch_bend_c, 13, 10142
6, 55922, Pitch_bend_c, 13, 9882
6, 55922, Pitch_bend_c, 13, 9622
6, 55925, Pitch_bend_c, 13, 9362
6, 55926, Pitch_bend_c, 13, 9102
6, 55926, Pitch_bend_c, 13, 8712
6, 55929, Pitch_bend_c, 13, 8452
6, 55931, Pitch_bend_c, 13, 8192
6, 55950, Pitch_bend_c, 13, 8322
6, 55952, Pitch_bend_c, 13, 8712
6, 55954, Pitch_bend_c, 13, 8972
6, 55956, Pitch_bend_c, 13, 9362
6, 55956, Pitch_bend_c, 13, 9622
6, 55958, Pitch_bend_c, 13, 9882
6, 55960, Pitch_bend_c, 13, 10012
6, 55960, Pitch_bend_c, 13, 10272
6, 55962, Pitch_bend_c, 13, 10402
6, 55964, Pitch_bend_c, 13, 10532
6, 55966, Pitch_bend_c, 13, 10662
6, 55969, Note_on_c, 13, 71, 0
6, 55973, Pitch_bend_c, 13, 10532
6, 55973, Pitch_bend_c, 13, 10402
6, 55975, Pitch_bend_c, 13, 10272
6, 55977, Pitch_bend_c, 13, 10142
6, 55979, Pitch_bend_c, 13, 10012
6, 55980, Pitch_bend_c, 13, 9752
6, 55980, Note_on_c, 13, 69, 40
6, 55980, Pitch_bend_c, 13, 9622
6, 55984, Pitch_bend_c, 13, 9492
6, 55986, Pitch_bend_c, 13, 9362
6, 55988, Pitch_bend_c, 13, 9232
6, 55988, Pitch_bend_c, 13, 9102
6, 55990, Pitch_bend_c, 13, 8972
6, 55990, Pitch_bend_c, 13, 8842
6, 55992, Pitch_bend_c, 13, 8712
6, 55992, Pitch_bend_c, 13, 8582
6, 55996, Pitch_bend_c, 13, 8452
6, 56000, Pitch_bend_c, 13, 8192
6, 56027, Note_on_c, 13, 69, 0
6, 56046, Note_on_c, 13, 66, 48
6, 56079, Note_on_c, 13, 66, 0
6, 56086, Note_on_c, 13, 69, 56
6, 56113, Note_on_c, 13, 69, 0
6, 56121, Note_on_c, 13, 66, 52
6, 56153, Pitch_bend_c, 13, 8452
6, 56155, Pitch_bend_c, 13, 8712
6, 56155, Pitch_bend_c, 13, 8842
6, 56157, Pitch_bend_c, 13, 9102
6, 56157, Pitch_bend_c, 13, 9232
6, 56159, Pitch_bend_c, 13, 9362
6, 56162, Pitch_bend_c, 13, 9492
6, 56175, Pitch_bend_c, 13, 9232
6, 56177, Pitch_bend_c, 13, 8972
6, 56177, Pitch_bend_c, 13, 8712
6, 56179, Pitch_bend_c, 13, 8452
6, 56181, Pitch_bend_c, 13, 8192
6, 56210, Pitch_bend_c, 13, 8712
6, 56212, Pitch_bend_c, 13, 9492
6, 56212, Pitch_bend_c, 13, 10402
6, 56214, Pitch_bend_c, 13, 11052
6, 56216, Pitch_bend_c, 13, 11702
6, 56218, Pitch_bend_c, 13, 11962
6, 56218, Pitch_bend_c, 13, 12222
6, 56220, Pitch_bend_c, 13, 12482
6, 56221, Pitch_bend_c, 13, 12612
6, 56225, Pitch_bend_c, 13, 12482
6, 56227, Pitch_bend_c, 13, 12222
6, 56229, Pitch_bend_c, 13, 12092
6, 56229, Pitch_bend_c, 13, 11832
6, 56231, Pitch_bend_c, 13, 11442
6, 56233, Pitch_bend_c, 13, 11182
6, 56233, Pitch_bend_c, 13, 10792
6, 56235, Pitch_bend_c, 13, 10532
6, 56236, Pitch_bend_c, 13, 10272
6, 56236, Pitch_bend_c, 13, 10012
6, 56239, Pitch_bend_c, 13, 9752
6, 56241, Pitch_bend_c, 13, 9622
6, 56241, Pitch_bend_c, 13, 9492
6, 56243, Pitch_bend_c, 13, 9362
6, 56244, Pitch_bend_c, 13, 9232
6, 56250, Pitch_bend_c, 13, 8972
6, 56252, Pitch_bend_c, 13, 8712
6, 56254, Pitch_bend_c, 13, 8452
6, 56256, Pitch_bend_c, 13, 8192
6, 56292, Pitch_bend_c, 13, 8322
6, 56293, Pitch_bend_c, 13, 8582
6, 56293, Pitch_bend_c, 13, 8972
6, 56295, Pitch_bend_c, 13, 9232
6, 56297, Pitch_bend_c, 13, 9362
6, 56299, Note_on_c, 13, 66, 0
6, 56299, Pitch_bend_c, 13, 9492
6, 56299, Pitch_bend_c, 13, 9622
6, 56306, Pitch_bend_c, 13, 9492
6, 56306, Pitch_bend_c, 13, 9232
6, 56308, Pitch_bend_c, 13, 9102
6, 56308, Pitch_bend_c, 13, 8842
6, 56311, Pitch_bend_c, 13, 8582
6, 56313, Pitch_bend_c, 13, 8322
6, 56313, Pitch_bend_c, 13, 8192
6, 56503, Control_c, 13, 7, 59
6, 56523, Note_on_c, 13, 61, 27
6, 56559, Note_on_c, 13, 61, 0
6, 56561, Note_on_c, 13, 63, 60
6, 56578, Control_c, 13, 7, 63
6, 56593, Note_on_c, 13, 66, 64
6, 56603, Note_on_c, 13, 63, 0
6, 56616, Note_on_c, 13, 66, 0
6, 56633, Note_on_c, 13, 69, 82
6, 56648, Control_c, 13, 7, 66
6, 56654, Control_c, 13, 7, 70
6, 56677, Note_on_c, 13, 61, 56
6, 56680, Note_on_c, 13, 69, 0
6, 56706, Note_on_c, 13, 61, 0
6, 56713, Note_on_c, 13, 68, 64
6, 56753, Note_on_c, 13, 61, 36
6, 56758, Note_on_c, 13, 68, 0
6, 56765, Note_on_c, 13, 61, 0
6, 56793, Note_on_c, 13, 66, 73
6, 56812, Pitch_bend_c, 13, 8322
6, 56814, Pitch_bend_c, 13, 8712
6, 56814, Pitch_bend_c, 13, 9102
6, 56816, Pitch_bend_c, 13, 9362
6, 56818, Pitch_bend_c, 13, 9622
6, 56818, Pitch_bend_c, 13, 9882
6, 56820, Pitch_bend_c, 13, 10142
6, 56822, Pitch_bend_c, 13, 10272
6, 56824, Pitch_bend_c, 13, 10402
6, 56826, Pitch_bend_c, 13, 10272
6, 56828, Pitch_bend_c, 13, 10012
6, 56830, Pitch_bend_c, 13, 9752
6, 56830, Pitch_bend_c, 13, 9362
6, 56832, Pitch_bend_c, 13, 8842
6, 56833, Pitch_bend_c, 13, 8192
6, 56852, Pitch_bend_c, 13, 8712
6, 56853, Pitch_bend_c, 13, 9492
6, 56853, Control_c, 13, 7, 67
6, 56856, Pitch_bend_c, 13, 10142
6, 56856, Pitch_bend_c, 13, 10922
6, 56857, Pitch_bend_c, 13, 11442
6, 56859, Pitch_bend_c, 13, 11962
6, 56861, Pitch_bend_c, 13, 12222
6, 56861, Pitch_bend_c, 13, 12352
6, 56867, Pitch_bend_c, 13, 12222
6, 56868, Pitch_bend_c, 13, 12092
6, 56870, Pitch_bend_c, 13, 11832
6, 56870, Pitch_bend_c, 13, 11702
6, 56872, Pitch_bend_c, 13, 11572
6, 56872, Pitch_bend_c, 13, 11442
6, 56874, Pitch_bend_c, 13, 11312
6, 56876, Pitch_bend_c, 13, 11052
6, 56878, Pitch_bend_c, 13, 10922
6, 56878, Pitch_bend_c, 13, 10792
6, 56880, Pitch_bend_c, 13, 10662
6, 56882, Pitch_bend_c, 13, 10532
6, 56882, Pitch_bend_c, 13, 10272
6, 56884, Pitch_bend_c, 13, 10012
6, 56886, Pitch_bend_c, 13, 9752
6, 56886, Pitch_bend_c, 13, 9492
6, 56888, Pitch_bend_c, 13, 9102
6, 56890, Pitch_bend_c, 13, 8452
6, 56892, Pitch_bend_c, 13, 8192
6, 56926, Pitch_bend_c, 13, 8322
6, 56928, Pitch_bend_c, 13, 8582
6, 56928, Pitch_bend_c, 13, 8842
6, 56930, Pitch_bend_c, 13, 8972
6, 56931, Pitch_bend_c, 13, 9102
6, 56931, Pitch_bend_c, 13, 9362
6, 56933, Pitch_bend_c, 13, 9492
6, 56936, Pitch_bend_c, 13, 9622
6, 56936, Pitch_bend_c, 13, 9752
6, 56937, Pitch_bend_c, 13, 9882
6, 56940, Pitch_bend_c, 13, 10012
6, 56940, Pitch_bend_c, 13, 10142
6, 56943, Pitch_bend_c, 13, 10272
6, 56952, Note_on_c, 13, 61, 52
6, 56952, Pitch_bend_c, 13, 10142
6, 56954, Pitch_bend_c, 13, 10012
6, 56954, Pitch_bend_c, 13, 9882
6, 56956, Pitch_bend_c, 13, 9622
6, 56958, Pitch_bend_c, 13, 9362
6, 56958, Pitch_bend_c, 13, 8972
6, 56960, Pitch_bend_c, 13, 8452
6, 56962, Note_on_c, 13, 66, 0
6, 56962, Pitch_bend_c, 13, 8192
6, 56976, Note_on_c, 13, 61, 0
6, 56989, Note_on_c, 13, 64, 64
6, 57003, Pitch_bend_c, 13, 8322
6, 57003, Pitch_bend_c, 13, 8452
6, 57005, Pitch_bend_c, 13, 8712
6, 57007, Pitch_bend_c, 13, 8972
6, 57007, Pitch_bend_c, 13, 9102
6, 57009, Pitch_bend_c, 13, 9232
6, 57011, Pitch_bend_c, 13, 9492
6, 57013, Pitch_bend_c, 13, 9622
6, 57024, Pitch_bend_c, 13, 9362
6, 57026, Pitch_bend_c, 13, 9232
6, 57028, Pitch_bend_c, 13, 9102
6, 57030, Pitch_bend_c, 13, 8842
6, 57030, Pitch_bend_c, 13, 8582
6, 57032, Pitch_bend_c, 13, 8452
6, 57032, Pitch_bend_c, 13, 8192
6, 57070, Note_on_c, 13, 64, 0
6, 57073, Note_on_c, 13, 59, 56
6, 57086, Note_on_c, 13, 61, 56
6, 57095, Note_on_c, 13, 59, 0
6, 57126, Pitch_bend_c, 13, 8452
6, 57126, Pitch_bend_c, 13, 8582
6, 57128, Pitch_bend_c, 13, 8712
6, 57130, Pitch_bend_c, 13, 8842
6, 57132, Pitch_bend_c, 13, 8972
6, 57135, Pitch_bend_c, 13, 9102
6, 57137, Pitch_bend_c, 13, 9232
6, 57153, Pitch_bend_c, 13, 9102
6, 57156, Pitch_bend_c, 13, 8842
6, 57157, Pitch_bend_c, 13, 8582
6, 57157, Pitch_bend_c, 13, 8452
6, 57159, Pitch_bend_c, 13, 8192
6, 57186, Pitch_bend_c, 13, 8322
6, 57190, Pitch_bend_c, 13, 8452
6, 57192, Note_on_c, 13, 61, 0
6, 57192, Pitch_bend_c, 13, 8582
6, 57192, Pitch_bend_c, 13, 8712
6, 57197, Pitch_bend_c, 13, 8582
6, 57197, Pitch_bend_c, 13, 8192
6, 57687, Note_on_c, 13, 59, 44
6, 57712, Note_on_c, 13, 59, 0
6, 57725, Note_on_c, 13, 63, 52
6, 57761, Note_on_c, 13, 66, 48
6, 57763, Note_on_c, 13, 63, 0
6, 57781, Note_on_c, 13, 66, 0
6, 57799, Note_on_c, 13, 69, 64
6, 57828, Pitch_bend_c, 13, 8322
6, 57830, Pitch_bend_c, 13, 8582
6, 57830, Pitch_bend_c, 13, 8712
6, 57832, Pitch_bend_c, 13, 8972
6, 57834, Pitch_bend_c, 13, 9232
6, 57836, Pitch_bend_c, 13, 9492
6, 57836, Pitch_bend_c, 13, 9622
6, 57838, Pitch_bend_c, 13, 9882
6, 57840, Pitch_bend_c, 13, 10012
6, 57840, Pitch_bend_c, 13, 10142
6, 57841, Pitch_bend_c, 13, 10272
6, 57843, Pitch_bend_c, 13, 10402
6, 57845, Pitch_bend_c, 13, 10532
6, 57851, Note_on_c, 13, 69, 0
6, 57851, Pitch_bend_c, 13, 10402
6, 57851, Pitch_bend_c, 13, 10272
6, 57853, Pitch_bend_c, 13, 10012
6, 57855, Pitch_bend_c, 13, 9882
6, 57855, Pitch_bend_c, 13, 9622
6, 57857, Pitch_bend_c, 13, 9232
6, 57857, Pitch_bend_c, 13, 8842
6, 57859, Pitch_bend_c, 13, 8452
6, 57861, Pitch_bend_c, 13, 8322
6, 57863, Pitch_bend_c, 13, 8192
6, 58406, Note_on_c, 13, 66, 48
6, 58421, Note_on_c, 13, 66, 0
6, 58444, Note_on_c, 13, 76, 73
6, 58466, Pitch_bend_c, 13, 8322
6, 58467, Pitch_bend_c, 13, 8582
6, 58470, Pitch_bend_c, 13, 8972
6, 58470, Pitch_bend_c, 13, 9362
6, 58472, Pitch_bend_c, 13, 9752
6, 58472, Pitch_bend_c, 13, 10012
6, 58474, Pitch_bend_c, 13, 10402
6, 58476, Pitch_bend_c, 13, 10662
6, 58476, Pitch_bend_c, 13, 11052
6, 58477, Pitch_bend_c, 13, 11312
6, 58479, Pitch_bend_c, 13, 11572
6, 58479, Pitch_bend_c, 13, 11832
6, 58481, Pitch_bend_c, 13, 12092
6, 58483, Pitch_bend_c, 13, 12222
6, 58485, Pitch_bend_c, 13, 12482
6, 58485, Pitch_bend_c, 13, 12742
6, 58487, Pitch_bend_c, 13, 12872
6, 58489, Pitch_bend_c, 13, 13002
6, 58489, Pitch_bend_c, 13, 13132
6, 58491, Pitch_bend_c, 13, 13262
6, 58493, Pitch_bend_c, 13, 13392
6, 58493, Pitch_bend_c, 13, 13522
6, 58495, Pitch_bend_c, 13, 13652
6, 58500, Pitch_bend_c, 13, 13522
6, 58502, Note_on_c, 13, 76, 0
6, 58502, Pitch_bend_c, 13, 13262
6, 58504, Pitch_bend_c, 13, 12872
6, 58506, Pitch_bend_c, 13, 12352
6, 58508, Pitch_bend_c, 13, 11832
6, 58508, Pitch_bend_c, 13, 11182
6, 58510, Pitch_bend_c, 13, 10532
6, 58512, Pitch_bend_c, 13, 9752
6, 58512, Pitch_bend_c, 13, 8972
6, 58513, Pitch_bend_c, 13, 8192
6, 58523, Note_on_c, 13, 76, 82
6, 58541, Pitch_bend_c, 13, 8452
6, 58543, Pitch_bend_c, 13, 9102
6, 58545, Pitch_bend_c, 13, 9882
6, 58545, Pitch_bend_c, 13, 10792
6, 58547, Pitch_bend_c, 13, 11572
6, 58548, Pitch_bend_c, 13, 12352
6, 58548, Pitch_bend_c, 13, 12872
6, 58550, Pitch_bend_c, 13, 13262
6, 58552, Pitch_bend_c, 13, 13652
6, 58552, Pitch_bend_c, 13, 14042
6, 58554, Pitch_bend_c, 13, 14302
6, 58556, Pitch_bend_c, 13, 14562
6, 58556, Pitch_bend_c, 13, 14822
6, 58558, Pitch_bend_c, 13, 14952
6, 58560, Pitch_bend_c, 13, 15212
6, 58560, Pitch_bend_c, 13, 15472
6, 58562, Pitch_bend_c, 13, 15602
6, 58564, Pitch_bend_c, 13, 15862
6, 58566, Pitch_bend_c, 13, 15992
6, 58566, Pitch_bend_c, 13, 16122
6, 58568, Pitch_bend_c, 13, 16252
6, 58568, Pitch_bend_c, 13, 16382
6, 58831, Pitch_bend_c, 13, 16252
6, 58834, Pitch_bend_c, 13, 16122
6, 58836, Pitch_bend_c, 13, 15992
6, 58838, Pitch_bend_c, 13, 15862
6, 58840, Pitch_bend_c, 13, 15732
6, 58842, Pitch_bend_c, 13, 15602
6, 58844, Pitch_bend_c, 13, 15472
6, 58846, Pitch_bend_c, 13, 15342
6, 58848, Pitch_bend_c, 13, 15212
6, 58849, Pitch_bend_c, 13, 15082
6, 58849, Pitch_bend_c, 13, 14952
6, 58851, Pitch_bend_c, 13, 14822
6, 58853, Pitch_bend_c, 13, 14692
6, 58853, Pitch_bend_c, 13, 14432
6, 58855, Pitch_bend_c, 13, 14302
6, 58857, Pitch_bend_c, 13, 14172
6, 58858, Pitch_bend_c, 13, 13912
6, 58859, Pitch_bend_c, 13, 13652
6, 58861, Pitch_bend_c, 13, 13392
6, 58861, Pitch_bend_c, 13, 13132
6, 58863, Pitch_bend_c, 13, 12872
6, 58865, Pitch_bend_c, 13, 12612
6, 58865, Pitch_bend_c, 13, 12222
6, 58867, Pitch_bend_c, 13, 11962
6, 58869, Pitch_bend_c, 13, 11702
6, 58871, Pitch_bend_c, 13, 11312
6, 58871, Pitch_bend_c, 13, 10922
6, 58872, Pitch_bend_c, 13, 10662
6, 58874, Pitch_bend_c, 13, 10272
6, 58874, Pitch_bend_c, 13, 9882
6, 58874, Pitch_bend_c, 13, 9622
6, 58878, Pitch_bend_c, 13, 9232
6, 58878, Pitch_bend_c, 13, 8712
6, 58880, Pitch_bend_c, 13, 8322
6, 58882, Pitch_bend_c, 13, 8192
6, 58896, Note_on_c, 13, 73, 48
6, 58909, Note_on_c, 13, 76, 0
6, 58922, Note_on_c, 13, 73, 0
6, 58924, Note_on_c, 13, 71, 56
6, 58992, Pitch_bend_c, 13, 8322
6, 58994, Pitch_bend_c, 13, 8582
6, 58996, Pitch_bend_c, 13, 8972
6, 58996, Pitch_bend_c, 13, 9362
6, 58998, Pitch_bend_c, 13, 9752
6, 59000, Pitch_bend_c, 13, 10012
6, 59000, Pitch_bend_c, 13, 10272
6, 59002, Pitch_bend_c, 13, 10662
6, 59004, Pitch_bend_c, 13, 10792
6, 59004, Pitch_bend_c, 13, 11052
6, 59005, Pitch_bend_c, 13, 11182
6, 59011, Pitch_bend_c, 13, 10922
6, 59013, Pitch_bend_c, 13, 10662
6, 59013, Pitch_bend_c, 13, 10402
6, 59015, Pitch_bend_c, 13, 10012
6, 59017, Pitch_bend_c, 13, 9752
6, 59019, Pitch_bend_c, 13, 9232
6, 59019, Pitch_bend_c, 13, 8842
6, 59021, Pitch_bend_c, 13, 8452
6, 59023, Pitch_bend_c, 13, 8322
6, 59023, Pitch_bend_c, 13, 8192
6, 59036, Pitch_bend_c, 13, 8322
6, 59037, Pitch_bend_c, 13, 8712
6, 59039, Pitch_bend_c, 13, 9102
6, 59041, Pitch_bend_c, 13, 9492
6, 59041, Pitch_bend_c, 13, 10012
6, 59043, Note_on_c, 13, 69, 56
6, 59043, Pitch_bend_c, 13, 10272
6, 59045, Note_on_c, 13, 71, 0
6, 59047, Pitch_bend_c, 13, 10402
6, 59056, Pitch_bend_c, 13, 10272
6, 59060, Pitch_bend_c, 13, 10142
6, 59062, Pitch_bend_c, 13, 10012
6, 59064, Pitch_bend_c, 13, 9882
6, 59065, Pitch_bend_c, 13, 9752
6, 59073, Pitch_bend_c, 13, 9622
6, 59075, Pitch_bend_c, 13, 9492
6, 59078, Pitch_bend_c, 13, 9362
6, 59080, Pitch_bend_c, 13, 9232
6, 59082, Pitch_bend_c, 13, 9102
6, 59082, Pitch_bend_c, 13, 8972
6, 59084, Pitch_bend_c, 13, 8842
6, 59086, Pitch_bend_c, 13, 8712
6, 59088, Pitch_bend_c, 13, 8452
6, 59088, Pitch_bend_c, 13, 8322
6, 59090, Pitch_bend_c, 13, 8192
6, 59117, Note_on_c, 13, 69, 0
6, 59122, Pitch_bend_c, 13, 8582
6, 59124, Note_on_c, 13, 66, 40
6, 59124, Pitch_bend_c, 13, 8972
6, 59126, Pitch_bend_c, 13, 9232
6, 59126, Pitch_bend_c, 13, 9492
6, 59128, Pitch_bend_c, 13, 9752
6, 59130, Pitch_bend_c, 13, 9882
6, 59130, Pitch_bend_c, 13, 10012
6, 59143, Pitch_bend_c, 13, 9882
6, 59145, Note_on_c, 13, 66, 0
6, 59148, Pitch_bend_c, 13, 9752
6, 59154, Pitch_bend_c, 13, 9622
6, 59156, Pitch_bend_c, 13, 9362
6, 59158, Pitch_bend_c, 13, 9232
6, 59158, Pitch_bend_c, 13, 8842
6, 59160, Pitch_bend_c, 13, 8192
6, 59356, Note_on_c, 13, 61, 32
6, 59379, Note_on_c, 13, 61, 0
6, 59394, Note_on_c, 13, 69, 82
6, 59423, Pitch_bend_c, 13, 8322
6, 59426, Pitch_bend_c, 13, 8452
6, 59426, Pitch_bend_c, 13, 8582
6, 59430, Pitch_bend_c, 13, 8712
6, 59443, Pitch_bend_c, 13, 8582
6, 59445, Pitch_bend_c, 13, 8452
6, 59445, Pitch_bend_c, 13, 8322
6, 59448, Pitch_bend_c, 13, 8192
6, 59468, Note_on_c, 13, 69, 0
6, 59470, Note_on_c, 13, 68, 60
6, 59506, Note_on_c, 13, 68, 0
6, 59535, Note_on_c, 13, 66, 21
6, 59573, Note_on_c, 13, 66, 0
6, 59593, Note_on_c, 13, 66, 48
6, 59615, Note_on_c, 13, 66, 0
6, 59633, Note_on_c, 13, 69, 56
6, 59642, Pitch_bend_c, 13, 8322
6, 59645, Pitch_bend_c, 13, 8452
6, 59648, Pitch_bend_c, 13, 8582
6, 59662, Pitch_bend_c, 13, 8452
6, 59664, Pitch_bend_c, 13, 8322
6, 59667, Pitch_bend_c, 13, 8192
6, 59695, Note_on_c, 13, 69, 0
6, 59720, Note_on_c, 13, 66, 17
6, 59735, Note_on_c, 13, 66, 0
6, 59752, Note_on_c, 13, 71, 73
6, 59772, Pitch_bend_c, 13, 8322
6, 59774, Pitch_bend_c, 13, 8452
6, 59776, Pitch_bend_c, 13, 8582
6, 59778, Pitch_bend_c, 13, 8712
6, 59778, Pitch_bend_c, 13, 8842
6, 59780, Pitch_bend_c, 13, 8972
6, 59782, Pitch_bend_c, 13, 9102
6, 59782, Pitch_bend_c, 13, 9232
6, 59785, Pitch_bend_c, 13, 9362
6, 59789, Pitch_bend_c, 13, 9492
6, 59795, Pitch_bend_c, 13, 9362
6, 59796, Pitch_bend_c, 13, 9232
6, 59796, Pitch_bend_c, 13, 9102
6, 59798, Pitch_bend_c, 13, 8842
6, 59800, Pitch_bend_c, 13, 8582
6, 59800, Pitch_bend_c, 13, 8322
6, 59804, Pitch_bend_c, 13, 8192
6, 59815, Note_on_c, 13, 71, 0
6, 59826, Note_on_c, 13, 66, 44
6, 59849, Note_on_c, 13, 66, 0
6, 59868, Note_on_c, 13, 69, 73
6, 59927, Note_on_c, 13, 69, 0
6, 59952, Note_on_c, 13, 71, 91
6, 59963, Pitch_bend_c, 13, 8322
6, 59965, Pitch_bend_c, 13, 8452
6, 59965, Pitch_bend_c, 13, 8972
6, 59967, Pitch_bend_c, 13, 9232
6, 59967, Pitch_bend_c, 13, 9622
6, 59969, Pitch_bend_c, 13, 9752
6, 59971, Pitch_bend_c, 13, 10012
6, 59973, Pitch_bend_c, 13, 10142
6, 59973, Pitch_bend_c, 13, 10402
6, 59975, Pitch_bend_c, 13, 10532
6, 59975, Pitch_bend_c, 13, 10662
6, 59977, Pitch_bend_c, 13, 10792
6, 59979, Pitch_bend_c, 13, 10922
6, 59982, Pitch_bend_c, 13, 11052
6, 59993, Pitch_bend_c, 13, 11182
6, 59997, Pitch_bend_c, 13, 11312
6, 59997, Pitch_bend_c, 13, 11442
6, 59999, Pitch_bend_c, 13, 11572
6, 59999, Pitch_bend_c, 13, 11702
6, 60001, Pitch_bend_c, 13, 11832
6, 60003, Pitch_bend_c, 13, 11962
6, 60005, Pitch_bend_c, 13, 12092
6, 60005, Pitch_bend_c, 13, 12222
6, 60007, Pitch_bend_c, 13, 12482
6, 60009, Pitch_bend_c, 13, 12612
6, 60009, Pitch_bend_c, 13, 12742
6, 60011, Pitch_bend_c, 13, 12872
6, 60012, Pitch_bend_c, 13, 13132
6, 60014, Pitch_bend_c, 13, 13262
6, 60016, Pitch_bend_c, 13, 13522
6, 60018, Pitch_bend_c, 13, 13652
6, 60018, Pitch_bend_c, 13, 13782
6, 60020, Pitch_bend_c, 13, 13912
6, 60020, Pitch_bend_c, 13, 14042
6, 60022, Pitch_bend_c, 13, 14172
6, 60024, Pitch_bend_c, 13, 14432
6, 60024, Pitch_bend_c, 13, 14562
6, 60026, Pitch_bend_c, 13, 14692
6, 60028, Pitch_bend_c, 13, 14822
6, 60028, Pitch_bend_c, 13, 14952
6, 60030, Pitch_bend_c, 13, 15082
6, 60032, Pitch_bend_c, 13, 15342
6, 60032, Pitch_bend_c, 13, 15472
6, 60035, Pitch_bend_c, 13, 15602
6, 60037, Pitch_bend_c, 13, 15862
6, 60039, Pitch_bend_c, 13, 15992
6, 60043, Pitch_bend_c, 13, 16252
6, 60045, Pitch_bend_c, 13, 16382
6, 60111, Pitch_bend_c, 13, 16252
6, 60113, Pitch_bend_c, 13, 16122
6, 60115, Pitch_bend_c, 13, 15992
6, 60115, Pitch_bend_c, 13, 15862
6, 60117, Pitch_bend_c, 13, 15732
6, 60117, Pitch_bend_c, 13, 15602
6, 60119, Pitch_bend_c, 13, 15342
6, 60121, Pitch_bend_c, 13, 15212
6, 60121, Pitch_bend_c, 13, 15082
6, 60123, Pitch_bend_c, 13, 14952
6, 60125, Pitch_bend_c, 13, 14822
6, 60127, Pitch_bend_c, 13, 14692
6, 60131, Pitch_bend_c, 13, 14562
6, 60148, Pitch_bend_c, 13, 14432
6, 60154, Pitch_bend_c, 13, 14302
6, 60157, Pitch_bend_c, 13, 14172
6, 60165, Pitch_bend_c, 13, 14042
6, 60178, Pitch_bend_c, 13, 13912
6, 60183, Pitch_bend_c, 13, 13782
6, 60194, Pitch_bend_c, 13, 13652
6, 60208, Pitch_bend_c, 13, 13522
6, 60217, Pitch_bend_c, 13, 13392
6, 60230, Pitch_bend_c, 13, 13262
6, 60238, Pitch_bend_c, 13, 13132
6, 60249, Pitch_bend_c, 13, 13002
6, 60257, Pitch_bend_c, 13, 12872
6, 60263, Pitch_bend_c, 13, 12742
6, 60268, Pitch_bend_c, 13, 12612
6, 60276, Pitch_bend_c, 13, 12482
6, 60281, Pitch_bend_c, 13, 12352
6, 60285, Pitch_bend_c, 13, 12222
6, 60288, Pitch_bend_c, 13, 12092
6, 60292, Pitch_bend_c, 13, 11962
6, 60296, Pitch_bend_c, 13, 11832
6, 60298, Pitch_bend_c, 13, 11702
6, 60301, Pitch_bend_c, 13, 11572
6, 60303, Pitch_bend_c, 13, 11442
6, 60305, Pitch_bend_c, 13, 11312
6, 60307, Pitch_bend_c, 13, 11182
6, 60307, Pitch_bend_c, 13, 11052
6, 60311, Pitch_bend_c, 13, 10792
6, 60313, Pitch_bend_c, 13, 10662
6, 60313, Pitch_bend_c, 13, 10532
6, 60315, Pitch_bend_c, 13, 10402
6, 60315, Pitch_bend_c, 13, 10272
6, 60317, Pitch_bend_c, 13, 10012
6, 60319, Pitch_bend_c, 13, 9882
6, 60321, Pitch_bend_c, 13, 9752
6, 60321, Pitch_bend_c, 13, 9622
6, 60323, Pitch_bend_c, 13, 9362
6, 60324, Pitch_bend_c, 13, 9102
6, 60324, Pitch_bend_c, 13, 8842
6, 60326, Pitch_bend_c, 13, 8582
6, 60328, Note_on_c, 13, 71, 0
6, 60328, Pitch_bend_c, 13, 8322
6, 60330, Pitch_bend_c, 13, 8192
6, 60676, Note_on_c, 13, 71, 82
6, 60716, Note_on_c, 13, 69, 56
6, 60718, Note_on_c, 13, 71, 0
6, 60750, Note_on_c, 13, 66, 48
6, 60756, Note_on_c, 13, 69, 0
6, 60774, Note_on_c, 13, 66, 0
6, 60786, Note_on_c, 13, 69, 60
6, 60869, Note_on_c, 13, 69, 0
6, 61559, Note_on_c, 13, 69, 82
6, 61614, Note_on_c, 13, 69, 0
6, 61636, Note_on_c, 13, 66, 40
6, 61645, Note_on_c, 13, 66, 0
6, 61674, Note_on_c, 13, 71, 56
6, 61742, Note_on_c, 13, 66, 56
6, 61748, Note_on_c, 13, 71, 0
6, 61757, Note_on_c, 13, 66, 0
6, 61791, Note_on_c, 13, 71, 91
6, 61806, Pitch_bend_c, 13, 8322
6, 61808, Pitch_bend_c, 13, 8582
6, 61810, Pitch_bend_c, 13, 8712
6, 61810, Pitch_bend_c, 13, 8842
6, 61812, Pitch_bend_c, 13, 9102
6, 61813, Pitch_bend_c, 13, 9232
6, 61813, Pitch_bend_c, 13, 9492
6, 61815, Pitch_bend_c, 13, 9622
6, 61817, Pitch_bend_c, 13, 9882
6, 61817, Pitch_bend_c, 13, 10142
6, 61819, Pitch_bend_c, 13, 10272
6, 61821, Pitch_bend_c, 13, 10532
6, 61821, Pitch_bend_c, 13, 10792
6, 61823, Pitch_bend_c, 13, 10922
6, 61823, Pitch_bend_c, 13, 11182
6, 61825, Pitch_bend_c, 13, 11442
6, 61827, Pitch_bend_c, 13, 11832
6, 61827, Pitch_bend_c, 13, 12092
6, 61829, Pitch_bend_c, 13, 12222
6, 61831, Pitch_bend_c, 13, 12482
6, 61831, Pitch_bend_c, 13, 12742
6, 61833, Pitch_bend_c, 13, 13002
6, 61835, Pitch_bend_c, 13, 13132
6, 61836, Pitch_bend_c, 13, 13262
6, 61836, Pitch_bend_c, 13, 13392
6, 61840, Pitch_bend_c, 13, 13522
6, 61844, Note_on_c, 13, 71, 0
6, 61849, Pitch_bend_c, 13, 13392
6, 61853, Pitch_bend_c, 13, 13132
6, 61855, Pitch_bend_c, 13, 13002
6, 61855, Pitch_bend_c, 13, 12612
6, 61857, Pitch_bend_c, 13, 12352
6, 61859, Pitch_bend_c, 13, 12092
6, 61859, Pitch_bend_c, 13, 11702
6, 61861, Pitch_bend_c, 13, 11312
6, 61863, Pitch_bend_c, 13, 10792
6, 61863, Pitch_bend_c, 13, 10272
6, 61865, Pitch_bend_c, 13, 9752
6, 61867, Pitch_bend_c, 13, 9232
6, 61867, Pitch_bend_c, 13, 8582
6, 61869, Pitch_bend_c, 13, 8192
6, 61878, Note_on_c, 13, 69, 56
6, 61897, Pitch_bend_c, 13, 8452
6, 61897, Pitch_bend_c, 13, 8972
6, 61899, Pitch_bend_c, 13, 9362
6, 61901, Pitch_bend_c, 13, 9882
6, 61903, Pitch_bend_c, 13, 10272
6, 61903, Pitch_bend_c, 13, 10792
6, 61905, Pitch_bend_c, 13, 11052
6, 61907, Pitch_bend_c, 13, 11312
6, 61907, Pitch_bend_c, 13, 11572
6, 61909, Pitch_bend_c, 13, 11832
6, 61911, Pitch_bend_c, 13, 11962
6, 61913, Note_on_c, 13, 69, 0
6, 61920, Pitch_bend_c, 13, 11702
6, 61922, Pitch_bend_c, 13, 11572
6, 61922, Pitch_bend_c, 13, 11442
6, 61924, Pitch_bend_c, 13, 11182
6, 61926, Pitch_bend_c, 13, 10922
6, 61926, Pitch_bend_c, 13, 10792
6, 61928, Pitch_bend_c, 13, 10532
6, 61930, Pitch_bend_c, 13, 10402
6, 61930, Pitch_bend_c, 13, 10142
6, 61932, Pitch_bend_c, 13, 10012
6, 61934, Pitch_bend_c, 13, 9882
6, 61935, Pitch_bend_c, 13, 9752
6, 61939, Pitch_bend_c, 13, 9622
6, 61941, Pitch_bend_c, 13, 9362
6, 61941, Note_on_c, 13, 66, 60
6, 61941, Pitch_bend_c, 13, 9232
6, 61943, Pitch_bend_c, 13, 9102
6, 61945, Pitch_bend_c, 13, 8972
6, 61947, Pitch_bend_c, 13, 8842
6, 61947, Pitch_bend_c, 13, 8582
6, 61949, Pitch_bend_c, 13, 8452
6, 61951, Pitch_bend_c, 13, 8322
6, 61953, Pitch_bend_c, 13, 8192
6, 61998, Note_on_c, 13, 66, 0
6, 62019, Note_on_c, 13, 66, 56
6, 62052, Pitch_bend_c, 13, 8452
6, 62052, Pitch_bend_c, 13, 8842
6, 62054, Pitch_bend_c, 13, 9102
6, 62054, Pitch_bend_c, 13, 9362
6, 62056, Pitch_bend_c, 13, 9492
6, 62058, Pitch_bend_c, 13, 9752
6, 62058, Pitch_bend_c, 13, 9882
6, 62065, Pitch_bend_c, 13, 9752
6, 62067, Pitch_bend_c, 13, 9622
6, 62067, Pitch_bend_c, 13, 9362
6, 62069, Pitch_bend_c, 13, 9102
6, 62071, Pitch_bend_c, 13, 8712
6, 62071, Pitch_bend_c, 13, 8452
6, 62073, Pitch_bend_c, 13, 8192
6, 62095, Pitch_bend_c, 13, 8452
6, 62097, Pitch_bend_c, 13, 8842
6, 62098, Pitch_bend_c, 13, 9232
6, 62100, Pitch_bend_c, 13, 9622
6, 62100, Pitch_bend_c, 13, 9882
6, 62102, Pitch_bend_c, 13, 10012
6, 62104, Pitch_bend_c, 13, 10142
6, 62108, Pitch_bend_c, 13, 10012
6, 62110, Pitch_bend_c, 13, 9882
6, 62110, Pitch_bend_c, 13, 9622
6, 62112, Pitch_bend_c, 13, 9102
6, 62113, Pitch_bend_c, 13, 8712
6, 62115, Pitch_bend_c, 13, 8322
6, 62115, Pitch_bend_c, 13, 8192
6, 62141, Pitch_bend_c, 13, 8322
6, 62144, Pitch_bend_c, 13, 8452
6, 62166, Pitch_bend_c, 13, 8582
6, 62166, Pitch_bend_c, 13, 8842
6, 62168, Pitch_bend_c, 13, 9232
6, 62170, Pitch_bend_c, 13, 9622
6, 62170, Pitch_bend_c, 13, 9882
6, 62172, Pitch_bend_c, 13, 10142
6, 62174, Pitch_bend_c, 13, 10532
6, 62176, Pitch_bend_c, 13, 10662
6, 62176, Pitch_bend_c, 13, 10922
6, 62178, Pitch_bend_c, 13, 11052
6, 62183, Pitch_bend_c, 13, 10922
6, 62185, Pitch_bend_c, 13, 10792
6, 62187, Pitch_bend_c, 13, 10662
6, 62187, Pitch_bend_c, 13, 10402
6, 62189, Pitch_bend_c, 13, 10272
6, 62191, Pitch_bend_c, 13, 10012
6, 62193, Pitch_bend_c, 13, 9882
6, 62193, Pitch_bend_c, 13, 9622
6, 62195, Pitch_bend_c, 13, 9362
6, 62196, Pitch_bend_c, 13, 9232
6, 62196, Pitch_bend_c, 13, 8972
6, 62198, Pitch_bend_c, 13, 8712
6, 62200, Pitch_bend_c, 13, 8452
6, 62202, Pitch_bend_c, 13, 8192
6, 62220, Pitch_bend_c, 13, 8322
6, 62224, Pitch_bend_c, 13, 8582
6, 62226, Pitch_bend_c, 13, 8842
6, 62228, Pitch_bend_c, 13, 9102
6, 62228, Pitch_bend_c, 13, 9232
6, 62230, Pitch_bend_c, 13, 9362
6, 62233, Pitch_bend_c, 13, 9232
6, 62235, Pitch_bend_c, 13, 9102
6, 62235, Pitch_bend_c, 13, 8842
6, 62237, Pitch_bend_c, 13, 8322
6, 62237, Pitch_bend_c, 13, 8192
6, 62265, Note_on_c, 13, 66, 0
6, 62279, Note_on_c, 13, 61, 44
6, 62317, Note_on_c, 13, 61, 0
6, 62320, Note_on_c, 13, 63, 52
6, 62340, Note_on_c, 13, 63, 0
6, 62357, Note_on_c, 13, 69, 82
6, 62391, Note_on_c, 13, 69, 0
6, 62397, Note_on_c, 13, 61, 56
6, 62414, Note_on_c, 13, 61, 0
6, 62414, Control_c, 13, 7, 63
6, 62436, Note_on_c, 13, 68, 73
6, 62474, Pitch_bend_c, 13, 8322
6, 62476, Pitch_bend_c, 13, 8192
6, 62476, Note_on_c, 13, 61, 40
6, 62484, Note_on_c, 13, 68, 0
6, 62494, Note_on_c, 13, 61, 0
6, 62525, Note_on_c, 13, 66, 82
6, 62541, Pitch_bend_c, 13, 8452
6, 62543, Pitch_bend_c, 13, 8712
6, 62543, Pitch_bend_c, 13, 8842
6, 62545, Pitch_bend_c, 13, 8972
6, 62547, Pitch_bend_c, 13, 9102
6, 62551, Pitch_bend_c, 13, 8972
6, 62553, Pitch_bend_c, 13, 8712
6, 62553, Pitch_bend_c, 13, 8452
6, 62555, Pitch_bend_c, 13, 8192
6, 62576, Note_on_c, 13, 66, 0
6, 62585, Pitch_bend_c, 13, 8322
6, 62587, Pitch_bend_c, 13, 8842
6, 62587, Pitch_bend_c, 13, 9362
6, 62589, Pitch_bend_c, 13, 9882
6, 62591, Pitch_bend_c, 13, 10272
6, 62593, Pitch_bend_c, 13, 10662
6, 62593, Pitch_bend_c, 13, 10922
6, 62595, Pitch_bend_c, 13, 11182
6, 62597, Pitch_bend_c, 13, 11312
6, 62597, Pitch_bend_c, 13, 11442
6, 62603, Note_on_c, 13, 64, 73
6, 62604, Pitch_bend_c, 13, 11182
6, 62606, Pitch_bend_c, 13, 10922
6, 62608, Pitch_bend_c, 13, 10662
6, 62610, Pitch_bend_c, 13, 10402
6, 62610, Pitch_bend_c, 13, 10142
6, 62612, Pitch_bend_c, 13, 9882
6, 62614, Pitch_bend_c, 13, 9622
6, 62614, Pitch_bend_c, 13, 9232
6, 62616, Pitch_bend_c, 13, 8972
6, 62616, Pitch_bend_c, 13, 8582
6, 62617, Pitch_bend_c, 13, 8322
6, 62619, Pitch_bend_c, 13, 8192
6, 62638, Pitch_bend_c, 13, 8322
6, 62638, Pitch_bend_c, 13, 8712
6, 62640, Pitch_bend_c, 13, 9102
6, 62641, Pitch_bend_c, 13, 9622
6, 62643, Pitch_bend_c, 13, 10142
6, 62643, Pitch_bend_c, 13, 10662
6, 62645, Pitch_bend_c, 13, 11052
6, 62647, Pitch_bend_c, 13, 11572
6, 62647, Pitch_bend_c, 13, 12092
6, 62649, Pitch_bend_c, 13, 12482
6, 62651, Pitch_bend_c, 13, 12612
6, 62651, Pitch_bend_c, 13, 12742
6, 62657, Pitch_bend_c, 13, 12612
6, 62657, Pitch_bend_c, 13, 12352
6, 62659, Pitch_bend_c, 13, 11832
6, 62661, Pitch_bend_c, 13, 11312
6, 62661, Pitch_bend_c, 13, 10792
6, 62663, Pitch_bend_c, 13, 10142
6, 62664, Note_on_c, 13, 64, 0
6, 62664, Pitch_bend_c, 13, 9362
6, 62666, Pitch_bend_c, 13, 8712
6, 62666, Pitch_bend_c, 13, 8192
6, 62692, Pitch_bend_c, 13, 8452
6, 62694, Pitch_bend_c, 13, 8712
6, 62696, Pitch_bend_c, 13, 8972
6, 62696, Pitch_bend_c, 13, 9102
6, 62700, Pitch_bend_c, 13, 9232
6, 62705, Pitch_bend_c, 13, 9102
6, 62707, Pitch_bend_c, 13, 8842
6, 62709, Pitch_bend_c, 13, 8712
6, 62709, Pitch_bend_c, 13, 8452
6, 62711, Pitch_bend_c, 13, 8322
6, 62712, Pitch_bend_c, 13, 8192
6, 62713, Control_c, 13, 7, 60
6, 62718, Control_c, 13, 7, 56
6, 62754, Pitch_bend_c, 13, 8322
6, 62754, Pitch_bend_c, 13, 8452
6, 62756, Pitch_bend_c, 13, 8582
6, 62758, Pitch_bend_c, 13, 8712
6, 62760, Pitch_bend_c, 13, 8842
6, 62767, Pitch_bend_c, 13, 8582
6, 62767, Pitch_bend_c, 13, 8322
6, 62769, Pitch_bend_c, 13, 8192
6, 62828, Note_on_c, 13, 60, 64
6, 62852, Pitch_bend_c, 13, 8322
6, 62854, Pitch_bend_c, 13, 8712
6, 62856, Pitch_bend_c, 13, 8972
6, 62856, Pitch_bend_c, 13, 9362
6, 62857, Pitch_bend_c, 13, 9622
6, 62857, Pitch_bend_c, 13, 9882
6, 62859, Pitch_bend_c, 13, 10012
6, 62861, Pitch_bend_c, 13, 10272
6, 62863, Pitch_bend_c, 13, 10532
6, 62863, Pitch_bend_c, 13, 10792
6, 62866, Pitch_bend_c, 13, 11052
6, 62867, Pitch_bend_c, 13, 11312
6, 62867, Pitch_bend_c, 13, 11572
6, 62869, Pitch_bend_c, 13, 11832
6, 62871, Pitch_bend_c, 13, 12092
6, 62871, Pitch_bend_c, 13, 12352
6, 62873, Pitch_bend_c, 13, 12742
6, 62875, Pitch_bend_c, 13, 13002
6, 62877, Pitch_bend_c, 13, 13262
6, 62877, Pitch_bend_c, 13, 13522
6, 62879, Pitch_bend_c, 13, 13652
6, 62880, Pitch_bend_c, 13, 13912
6, 62880, Pitch_bend_c, 13, 14042
6, 62884, Pitch_bend_c, 13, 14302
6, 62889, Control_c, 13, 7, 59
6, 62893, Pitch_bend_c, 13, 14172
6, 62897, Pitch_bend_c, 13, 13912
6, 62899, Pitch_bend_c, 13, 13782
6, 62901, Pitch_bend_c, 13, 13652
6, 62903, Pitch_bend_c, 13, 13522
6, 62904, Pitch_bend_c, 13, 13392
6, 62908, Pitch_bend_c, 13, 13262
6, 62928, Pitch_bend_c, 13, 13392
6, 62934, Pitch_bend_c, 13, 13522
6, 62939, Note_on_c, 13, 60, 0
6, 62939, Pitch_bend_c, 13, 13652
6, 62950, Pitch_bend_c, 13, 13522
6, 62952, Pitch_bend_c, 13, 13392
6, 62954, Pitch_bend_c, 13, 13262
6, 62954, Pitch_bend_c, 13, 13002
6, 62956, Pitch_bend_c, 13, 12742
6, 62958, Pitch_bend_c, 13, 11962
6, 62958, Pitch_bend_c, 13, 10272
6, 62960, Pitch_bend_c, 13, 8192
6, 63322, Note_on_c, 13, 61, 82
6, 63352, Pitch_bend_c, 13, 8322
6, 63352, Pitch_bend_c, 13, 8582
6, 63354, Pitch_bend_c, 13, 8842
6, 63354, Pitch_bend_c, 13, 9102
6, 63356, Pitch_bend_c, 13, 9362
6, 63358, Pitch_bend_c, 13, 9752
6, 63360, Pitch_bend_c, 13, 10012
6, 63360, Pitch_bend_c, 13, 10402
6, 63362, Pitch_bend_c, 13, 10662
6, 63364, Pitch_bend_c, 13, 11052
6, 63364, Pitch_bend_c, 13, 11442
6, 63364, Control_c, 13, 7, 56
6, 63366, Pitch_bend_c, 13, 11832
6, 63368, Pitch_bend_c, 13, 12352
6, 63368, Pitch_bend_c, 13, 12742
6, 63370, Note_on_c, 13, 61, 0
6, 63370, Pitch_bend_c, 13, 13132
6, 63372, Pitch_bend_c, 13, 13392
6, 63372, Pitch_bend_c, 13, 13782
6, 63374, Pitch_bend_c, 13, 14042
6, 63375, Pitch_bend_c, 13, 14432
6, 63375, Pitch_bend_c, 13, 14692
6, 63377, Pitch_bend_c, 13, 14952
6, 63380, Pitch_bend_c, 13, 15212
6, 63380, Pitch_bend_c, 13, 15602
6, 63382, Pitch_bend_c, 13, 15732
6, 63383, Pitch_bend_c, 13, 15992
6, 63383, Pitch_bend_c, 13, 16252
6, 63385, Pitch_bend_c, 13, 16382
6, 63421, Pitch_bend_c, 13, 16252
6, 63423, Pitch_bend_c, 13, 16122
6, 63425, Pitch_bend_c, 13, 15992
6, 63425, Pitch_bend_c, 13, 15862
6, 63429, Pitch_bend_c, 13, 15602
6, 63429, Pitch_bend_c, 13, 15342
6, 63431, Pitch_bend_c, 13, 14952
6, 63433, Pitch_bend_c, 13, 14562
6, 63434, Note_on_c, 13, 69, 64
6, 63434, Note_on_c, 13, 66, 16
6, 63434, Note_on_c, 13, 66, 0
6, 63434, Pitch_bend_c, 13, 13782
6, 63437, Pitch_bend_c, 13, 13522
6, 63439, Pitch_bend_c, 13, 13002
6, 63439, Pitch_bend_c, 13, 12482
6, 63441, Pitch_bend_c, 13, 11962
6, 63443, Pitch_bend_c, 13, 11442
6, 63443, Pitch_bend_c, 13, 10922
6, 63444, Pitch_bend_c, 13, 10402
6, 63446, Pitch_bend_c, 13, 9882
6, 63446, Pitch_bend_c, 13, 9622
6, 63448, Pitch_bend_c, 13, 9232
6, 63450, Pitch_bend_c, 13, 8972
6, 63450, Pitch_bend_c, 13, 8712
6, 63452, Pitch_bend_c, 13, 8452
6, 63454, Pitch_bend_c, 13, 8322
6, 63483, Pitch_bend_c, 13, 8192
6, 63485, Note_on_c, 13, 69, 0
6, 63690, Note_on_c, 13, 63, 30
6, 63696, Note_on_c, 13, 63, 0
6, 63724, Note_on_c, 13, 71, 73
6, 63755, Note_on_c, 13, 69, 60
6, 63759, Note_on_c, 13, 71, 0
6, 63782, Pitch_bend_c, 13, 8322
6, 63786, Pitch_bend_c, 13, 8452
6, 63790, Pitch_bend_c, 13, 8582
6, 63793, Pitch_bend_c, 13, 8712
6, 63795, Pitch_bend_c, 13, 8842
6, 63795, Pitch_bend_c, 13, 8972
6, 63797, Pitch_bend_c, 13, 9102
6, 63801, Pitch_bend_c, 13, 9232
6, 63803, Pitch_bend_c, 13, 9362
6, 63808, Pitch_bend_c, 13, 9492
6, 63812, Note_on_c, 13, 69, 0
6, 63816, Pitch_bend_c, 13, 9362
6, 63817, Pitch_bend_c, 13, 9232
6, 63817, Pitch_bend_c, 13, 9102
6, 63819, Pitch_bend_c, 13, 8842
6, 63821, Pitch_bend_c, 13, 8582
6, 63821, Pitch_bend_c, 13, 8192
6, 63904, Control_c, 13, 7, 53
6, 64167, Note_on_c, 13, 73, 32
6, 64175, Note_on_c, 13, 73, 0
6, 64198, Note_on_c, 13, 77, 82
6, 64211, Pitch_bend_c, 13, 8322
6, 64211, Pitch_bend_c, 13, 8582
6, 64212, Pitch_bend_c, 13, 8842
6, 64214, Pitch_bend_c, 13, 8972
6, 64214, Pitch_bend_c, 13, 9232
6, 64216, Pitch_bend_c, 13, 9362
6, 64218, Pitch_bend_c, 13, 9622
6, 64218, Pitch_bend_c, 13, 9882
6, 64220, Pitch_bend_c, 13, 10012
6, 64222, Pitch_bend_c, 13, 10272
6, 64222, Pitch_bend_c, 13, 10532
6, 64224, Pitch_bend_c, 13, 10792
6, 64226, Pitch_bend_c, 13, 11052
6, 64226, Pitch_bend_c, 13, 11312
6, 64228, Pitch_bend_c, 13, 11442
6, 64230, Pitch_bend_c, 13, 11702
6, 64230, Pitch_bend_c, 13, 11962
6, 64232, Pitch_bend_c, 13, 12092
6, 64234, Pitch_bend_c, 13, 12222
6, 64234, Pitch_bend_c, 13, 12352
6, 64236, Pitch_bend_c, 13, 12482
6, 64237, Note_on_c, 13, 77, 0
6, 64245, Pitch_bend_c, 13, 12352
6, 64247, Pitch_bend_c, 13, 12222
6, 64247, Pitch_bend_c, 13, 11962
6, 64248, Pitch_bend_c, 13, 11702
6, 64250, Pitch_bend_c, 13, 11442
6, 64250, Pitch_bend_c, 13, 11052
6, 64253, Pitch_bend_c, 13, 10532
6, 64253, Pitch_bend_c, 13, 10142
6, 64254, Pitch_bend_c, 13, 9752
6, 64256, Pitch_bend_c, 13, 9232
6, 64259, Pitch_bend_c, 13, 8452
6, 64259, Pitch_bend_c, 13, 8192
6, 64284, Note_on_c, 13, 77, 100
6, 64300, Pitch_bend_c, 13, 8322
6, 64302, Pitch_bend_c, 13, 8582
6, 64304, Pitch_bend_c, 13, 8972
6, 64306, Pitch_bend_c, 13, 9232
6, 64306, Pitch_bend_c, 13, 9492
6, 64308, Pitch_bend_c, 13, 9752
6, 64309, Pitch_bend_c, 13, 10142
6, 64309, Pitch_bend_c, 13, 10402
6, 64311, Pitch_bend_c, 13, 10792
6, 64313, Pitch_bend_c, 13, 11052
6, 64313, Pitch_bend_c, 13, 11312
6, 64315, Pitch_bend_c, 13, 11702
6, 64315, Pitch_bend_c, 13, 11962
6, 64317, Pitch_bend_c, 13, 12092
6, 64319, Pitch_bend_c, 13, 12352
6, 64319, Pitch_bend_c, 13, 12482
6, 64321, Pitch_bend_c, 13, 12742
6, 64323, Pitch_bend_c, 13, 12872
6, 64325, Pitch_bend_c, 13, 13002
6, 64325, Pitch_bend_c, 13, 13132
6, 64329, Pitch_bend_c, 13, 13262
6, 64334, Pitch_bend_c, 13, 13392
6, 64379, Pitch_bend_c, 13, 13522
6, 64388, Pitch_bend_c, 13, 13652
6, 64395, Pitch_bend_c, 13, 13782
6, 64403, Pitch_bend_c, 13, 13912
6, 64408, Pitch_bend_c, 13, 14042
6, 64444, Pitch_bend_c, 13, 14172
6, 64472, Pitch_bend_c, 13, 13912
6, 64473, Pitch_bend_c, 13, 13782
6, 64476, Pitch_bend_c, 13, 13522
6, 64476, Pitch_bend_c, 13, 13392
6, 64477, Pitch_bend_c, 13, 13132
6, 64479, Pitch_bend_c, 13, 12872
6, 64479, Pitch_bend_c, 13, 12482
6, 64481, Pitch_bend_c, 13, 12092
6, 64483, Pitch_bend_c, 13, 11702
6, 64483, Pitch_bend_c, 13, 11312
6, 64485, Pitch_bend_c, 13, 10792
6, 64487, Pitch_bend_c, 13, 10402
6, 64489, Note_on_c, 13, 76, 64
6, 64489, Pitch_bend_c, 13, 9622
6, 64489, Pitch_bend_c, 13, 9232
6, 64493, Note_on_c, 13, 77, 0
6, 64493, Pitch_bend_c, 13, 8842
6, 64493, Pitch_bend_c, 13, 8192
6, 64516, Note_on_c, 13, 76, 0
6, 64520, Note_on_c, 13, 73, 48
6, 64556, Note_on_c, 13, 73, 0
6, 64560, Note_on_c, 13, 71, 64
6, 64597, Note_on_c, 13, 71, 0
6, 64597, Note_on_c, 13, 69, 52
6, 64618, Note_on_c, 13, 69, 0
6, 64635, Note_on_c, 13, 71, 73
6, 64666, Pitch_bend_c, 13, 8322
6, 64666, Pitch_bend_c, 13, 8582
6, 64668, Pitch_bend_c, 13, 8972
6, 64670, Pitch_bend_c, 13, 9232
6, 64670, Pitch_bend_c, 13, 9492
6, 64672, Pitch_bend_c, 13, 9622
6, 64674, Pitch_bend_c, 13, 9882
6, 64674, Pitch_bend_c, 13, 10012
6, 64676, Pitch_bend_c, 13, 10142
6, 64678, Pitch_bend_c, 13, 10272
6, 64680, Pitch_bend_c, 13, 10402
6, 64689, Pitch_bend_c, 13, 10272
6, 64691, Pitch_bend_c, 13, 10142
6, 64691, Pitch_bend_c, 13, 10012
6, 64692, Pitch_bend_c, 13, 9752
6, 64694, Pitch_bend_c, 13, 9492
6, 64694, Pitch_bend_c, 13, 9232
6, 64697, Pitch_bend_c, 13, 8842
6, 64697, Pitch_bend_c, 13, 8582
6, 64699, Pitch_bend_c, 13, 8322
6, 64702, Pitch_bend_c, 13, 8192
6, 64713, Pitch_bend_c, 13, 8322
6, 64713, Pitch_bend_c, 13, 8582
6, 64715, Note_on_c, 13, 71, 0
6, 64715, Pitch_bend_c, 13, 8712
6, 64717, Pitch_bend_c, 13, 9102
6, 64717, Pitch_bend_c, 13, 9232
6, 64719, Pitch_bend_c, 13, 9492
6, 64721, Pitch_bend_c, 13, 9752
6, 64723, Pitch_bend_c, 13, 10012
6, 64723, Pitch_bend_c, 13, 10272
6, 64725, Pitch_bend_c, 13, 10402
6, 64727, Pitch_bend_c, 13, 10662
6, 64727, Pitch_bend_c, 13, 10922
6, 64728, Pitch_bend_c, 13, 11052
6, 64728, Pitch_bend_c, 13, 11182
6, 64732, Pitch_bend_c, 13, 11312
6, 64734, Note_on_c, 13, 69, 48
6, 64740, Pitch_bend_c, 13, 11182
6, 64741, Pitch_bend_c, 13, 11052
6, 64741, Pitch_bend_c, 13, 10922
6, 64743, Pitch_bend_c, 13, 10792
6, 64745, Pitch_bend_c, 13, 10532
6, 64745, Pitch_bend_c, 13, 10402
6, 64748, Pitch_bend_c, 13, 10142
6, 64749, Pitch_bend_c, 13, 9882
6, 64749, Pitch_bend_c, 13, 9622
6, 64752, Pitch_bend_c, 13, 9362
6, 64753, Pitch_bend_c, 13, 8452
6, 64753, Pitch_bend_c, 13, 8192
6, 64762, Note_on_c, 13, 69, 0
6, 64766, Note_on_c, 13, 66, 48
6, 64793, Note_on_c, 13, 66, 0
6, 64804, Note_on_c, 13, 69, 64
6, 64829, Note_on_c, 13, 69, 0
6, 64840, Note_on_c, 13, 69, 52
6, 64872, Note_on_c, 13, 69, 0
6, 64876, Note_on_c, 13, 66, 60
6, 64885, Pitch_bend_c, 13, 8322
6, 64889, Pitch_bend_c, 13, 8452
6, 64893, Pitch_bend_c, 13, 8582
6, 64895, Pitch_bend_c, 13, 8712
6, 64896, Pitch_bend_c, 13, 8842
6, 64896, Pitch_bend_c, 13, 8972
6, 64900, Pitch_bend_c, 13, 9232
6, 64900, Pitch_bend_c, 13, 9362
6, 64902, Pitch_bend_c, 13, 9492
6, 64904, Pitch_bend_c, 13, 9752
6, 64906, Pitch_bend_c, 13, 9882
6, 64906, Pitch_bend_c, 13, 10142
6, 64908, Pitch_bend_c, 13, 10272
6, 64910, Pitch_bend_c, 13, 10532
6, 64910, Pitch_bend_c, 13, 10662
6, 64912, Pitch_bend_c, 13, 10792
6, 64914, Pitch_bend_c, 13, 11052
6, 64914, Pitch_bend_c, 13, 11182
6, 64916, Pitch_bend_c, 13, 11312
6, 64918, Pitch_bend_c, 13, 11442
6, 64923, Pitch_bend_c, 13, 11312
6, 64925, Pitch_bend_c, 13, 11052
6, 64927, Pitch_bend_c, 13, 10792
6, 64927, Pitch_bend_c, 13, 10532
6, 64929, Pitch_bend_c, 13, 10272
6, 64931, Pitch_bend_c, 13, 10012
6, 64931, Pitch_bend_c, 13, 9752
6, 64932, Pitch_bend_c, 13, 9622
6, 64934, Pitch_bend_c, 13, 9492
6, 64944, Pitch_bend_c, 13, 9622
6, 64945, Pitch_bend_c, 13, 9752
6, 64947, Note_on_c, 13, 66, 0
6, 64949, Pitch_bend_c, 13, 9882
6, 64951, Pitch_bend_c, 13, 9492
6, 64953, Pitch_bend_c, 13, 8452
6, 64953, Pitch_bend_c, 13, 8192
6, 65130, Note_on_c, 13, 61, 17
6, 65137, Note_on_c, 13, 61, 0
6, 65159, Note_on_c, 13, 69, 73
6, 65160, Note_on_c, 13, 64, 73
6, 65211, Note_on_c, 13, 64, 0
6, 65229, Note_on_c, 13, 69, 0
6, 65238, Note_on_c, 13, 68, 60
6, 65238, Note_on_c, 13, 63, 52
6, 65258, Note_on_c, 13, 63, 0
6, 65280, Note_on_c, 13, 61, 36
6, 65280, Note_on_c, 13, 66, 52
6, 65283, Note_on_c, 13, 68, 0
6, 65325, Pitch_bend_c, 13, 8322
6, 65327, Pitch_bend_c, 13, 8582
6, 65327, Pitch_bend_c, 13, 8712
6, 65329, Pitch_bend_c, 13, 8972
6, 65329, Pitch_bend_c, 13, 9232
6, 65331, Pitch_bend_c, 13, 9492
6, 65333, Pitch_bend_c, 13, 9752
6, 65335, Note_on_c, 13, 61, 0
6, 65335, Pitch_bend_c, 13, 10012
6, 65335, Pitch_bend_c, 13, 10402
6, 65337, Pitch_bend_c, 13, 10662
6, 65339, Pitch_bend_c, 13, 10922
6, 65340, Pitch_bend_c, 13, 11182
6, 65340, Pitch_bend_c, 13, 11312
6, 65344, Pitch_bend_c, 13, 11442
6, 65352, Pitch_bend_c, 13, 11312
6, 65353, Pitch_bend_c, 13, 11182
6, 65357, Pitch_bend_c, 13, 11052
6, 65359, Pitch_bend_c, 13, 10792
6, 65359, Pitch_bend_c, 13, 10662
6, 65361, Pitch_bend_c, 13, 10272
6, 65363, Note_on_c, 13, 66, 0
6, 65363, Pitch_bend_c, 13, 10012
6, 65363, Pitch_bend_c, 13, 9622
6, 65365, Pitch_bend_c, 13, 8972
6, 65367, Pitch_bend_c, 13, 8322
6, 65367, Pitch_bend_c, 13, 8192
6, 65390, Note_on_c, 13, 64, 73
6, 65392, Note_on_c, 13, 59, 52
6, 65468, Note_on_c, 13, 59, 0
6, 65472, Note_on_c, 13, 63, 48
6, 65477, Note_on_c, 13, 64, 0
6, 65506, Note_on_c, 13, 61, 64
6, 65508, Note_on_c, 13, 63, 0
6, 65532, Pitch_bend_c, 13, 8322
6, 65533, Pitch_bend_c, 13, 8452
6, 65535, Pitch_bend_c, 13, 8712
6, 65535, Pitch_bend_c, 13, 9102
6, 65537, Pitch_bend_c, 13, 9362
6, 65539, Pitch_bend_c, 13, 9492
6, 65541, Pitch_bend_c, 13, 9752
6, 65541, Pitch_bend_c, 13, 9882
6, 65543, Pitch_bend_c, 13, 10012
6, 65545, Pitch_bend_c, 13, 10142
6, 65552, Pitch_bend_c, 13, 9882
6, 65552, Pitch_bend_c, 13, 9752
6, 65554, Pitch_bend_c, 13, 9622
6, 65556, Pitch_bend_c, 13, 9492
6, 65556, Pitch_bend_c, 13, 9232
6, 65558, Pitch_bend_c, 13, 8842
6, 65560, Pitch_bend_c, 13, 8582
6, 65560, Pitch_bend_c, 13, 8452
6, 65562, Pitch_bend_c, 13, 8322
6, 65564, Pitch_bend_c, 13, 8192
6, 65591, Note_on_c, 13, 61, 0
6, 65591, Note_on_c, 13, 63, 64
6, 65613, Note_on_c, 13, 63, 0
6, 65622, Pitch_bend_c, 13, 8322
6, 65623, Pitch_bend_c, 13, 8452
6, 65625, Pitch_bend_c, 13, 8582
6, 65627, Pitch_bend_c, 13, 8712
6, 65638, Pitch_bend_c, 13, 8582
6, 65640, Pitch_bend_c, 13, 8322
6, 65644, Pitch_bend_c, 13, 8192
6, 65717, Note_on_c, 13, 61, 28
6, 65824, Note_on_c, 13, 61, 0
6, 66085, Note_on_c, 13, 61, 29
6, 66097, Note_on_c, 13, 61, 0
6, 66116, Note_on_c, 13, 69, 73
6, 66135, Pitch_bend_c, 13, 8322
6, 66137, Pitch_bend_c, 13, 8582
6, 66139, Pitch_bend_c, 13, 8972
6, 66139, Pitch_bend_c, 13, 9232
6, 66141, Pitch_bend_c, 13, 9622
6, 66143, Pitch_bend_c, 13, 9752
6, 66143, Pitch_bend_c, 13, 10012
6, 66145, Pitch_bend_c, 13, 10142
6, 66147, Pitch_bend_c, 13, 10402
6, 66147, Pitch_bend_c, 13, 10532
6, 66149, Pitch_bend_c, 13, 10662
6, 66151, Pitch_bend_c, 13, 10792
6, 66155, Pitch_bend_c, 13, 11052
6, 66156, Pitch_bend_c, 13, 11182
6, 66164, Note_on_c, 13, 69, 0
6, 66164, Pitch_bend_c, 13, 11052
6, 66166, Pitch_bend_c, 13, 10922
6, 66168, Pitch_bend_c, 13, 10662
6, 66168, Pitch_bend_c, 13, 10402
6, 66169, Pitch_bend_c, 13, 10142
6, 66169, Pitch_bend_c, 13, 9752
6, 66171, Pitch_bend_c, 13, 9492
6, 66173, Pitch_bend_c, 13, 8972
6, 66175, Pitch_bend_c, 13, 8452
6, 66175, Pitch_bend_c, 13, 8192
6, 66208, Note_on_c, 13, 66, 60
6, 66239, Pitch_bend_c, 13, 8322
6, 66240, Pitch_bend_c, 13, 8452
6, 66242, Pitch_bend_c, 13, 8712
6, 66242, Pitch_bend_c, 13, 8972
6, 66244, Pitch_bend_c, 13, 9102
6, 66246, Pitch_bend_c, 13, 9362
6, 66248, Pitch_bend_c, 13, 9492
6, 66248, Pitch_bend_c, 13, 9622
6, 66250, Pitch_bend_c, 13, 9752
6, 66252, Pitch_bend_c, 13, 9882
6, 66252, Pitch_bend_c, 13, 10012
6, 66254, Pitch_bend_c, 13, 10142
6, 66256, Pitch_bend_c, 13, 10272
6, 66261, Pitch_bend_c, 13, 10142
6, 66263, Pitch_bend_c, 13, 9882
6, 66265, Pitch_bend_c, 13, 9752
6, 66265, Pitch_bend_c, 13, 9622
6, 66267, Pitch_bend_c, 13, 9362
6, 66269, Pitch_bend_c, 13, 9102
6, 66271, Pitch_bend_c, 13, 8842
6, 66271, Pitch_bend_c, 13, 8582
6, 66273, Pitch_bend_c, 13, 8322
6, 66275, Pitch_bend_c, 13, 8192
6, 66293, Pitch_bend_c, 13, 8452
6, 66295, Pitch_bend_c, 13, 8712
6, 66295, Pitch_bend_c, 13, 8972
6, 66297, Pitch_bend_c, 13, 9362
6, 66299, Pitch_bend_c, 13, 9622
6, 66300, Pitch_bend_c, 13, 9882
6, 66300, Pitch_bend_c, 13, 10272
6, 66302, Pitch_bend_c, 13, 10402
6, 66304, Pitch_bend_c, 13, 10662
6, 66304, Pitch_bend_c, 13, 10792
6, 66306, Pitch_bend_c, 13, 10922
6, 66308, Pitch_bend_c, 13, 11052
6, 66317, Pitch_bend_c, 13, 10922
6, 66319, Pitch_bend_c, 13, 10792
6, 66321, Pitch_bend_c, 13, 10662
6, 66321, Pitch_bend_c, 13, 10532
6, 66323, Pitch_bend_c, 13, 10272
6, 66324, Pitch_bend_c, 13, 9492
6, 66324, Pitch_bend_c, 13, 8192
6, 66327, Note_on_c, 13, 66, 0
6, 67036, Note_on_c, 13, 84, 73
6, 67061, Pitch_bend_c, 13, 8322
6, 67070, Pitch_bend_c, 13, 8452
6, 67074, Pitch_bend_c, 13, 8582
6, 67074, Pitch_bend_c, 13, 8712
6, 67076, Pitch_bend_c, 13, 8842
6, 67078, Pitch_bend_c, 13, 8972
6, 67080, Pitch_bend_c, 13, 9102
6, 67081, Pitch_bend_c, 13, 9232
6, 67083, Pitch_bend_c, 13, 9362
6, 67085, Pitch_bend_c, 13, 9492
6, 67089, Pitch_bend_c, 13, 9622
6, 67089, Pitch_bend_c, 13, 9752
6, 67091, Pitch_bend_c, 13, 9882
6, 67095, Pitch_bend_c, 13, 10012
6, 67096, Pitch_bend_c, 13, 10142
6, 67100, Pitch_bend_c, 13, 10272
6, 67104, Pitch_bend_c, 13, 10402
6, 67111, Pitch_bend_c, 13, 10532
6, 67122, Pitch_bend_c, 13, 10662
6, 67129, Pitch_bend_c, 13, 10792
6, 67133, Pitch_bend_c, 13, 10922
6, 67139, Pitch_bend_c, 13, 11052
6, 67142, Pitch_bend_c, 13, 11182
6, 67146, Pitch_bend_c, 13, 11312
6, 67150, Pitch_bend_c, 13, 11442
6, 67153, Pitch_bend_c, 13, 11572
6, 67173, Pitch_bend_c, 13, 11442
6, 67175, Pitch_bend_c, 13, 11182
6, 67177, Pitch_bend_c, 13, 10922
6, 67179, Note_on_c, 13, 84, 0
6, 67179, Pitch_bend_c, 13, 10662
6, 67179, Pitch_bend_c, 13, 10402
6, 67181, Pitch_bend_c, 13, 10012
6, 67183, Pitch_bend_c, 13, 9752
6, 67183, Pitch_bend_c, 13, 9362
6, 67185, Pitch_bend_c, 13, 8842
6, 67187, Pitch_bend_c, 13, 8192
6, 67207, Note_on_c, 13, 81, 60
6, 67246, Pitch_bend_c, 13, 8322
6, 67250, Pitch_bend_c, 13, 8452
6, 67264, Pitch_bend_c, 13, 8322
6, 67266, Note_on_c, 13, 81, 0
6, 67266, Pitch_bend_c, 13, 8192
6, 67290, Note_on_c, 13, 78, 60
6, 67299, Pitch_bend_c, 13, 8322
6, 67299, Pitch_bend_c, 13, 8582
6, 67301, Pitch_bend_c, 13, 8842
6, 67303, Pitch_bend_c, 13, 9102
6, 67303, Pitch_bend_c, 13, 9362
6, 67305, Pitch_bend_c, 13, 9622
6, 67305, Pitch_bend_c, 13, 9882
6, 67307, Pitch_bend_c, 13, 10142
6, 67308, Pitch_bend_c, 13, 10272
6, 67318, Pitch_bend_c, 13, 10012
6, 67318, Pitch_bend_c, 13, 9882
6, 67320, Pitch_bend_c, 13, 9752
6, 67321, Pitch_bend_c, 13, 9492
6, 67321, Pitch_bend_c, 13, 9362
6, 67323, Pitch_bend_c, 13, 8972
6, 67325, Pitch_bend_c, 13, 8712
6, 67325, Pitch_bend_c, 13, 8582
6, 67327, Pitch_bend_c, 13, 8452
6, 67331, Pitch_bend_c, 13, 8322
6, 67336, Pitch_bend_c, 13, 8452
6, 67340, Pitch_bend_c, 13, 8582
6, 67344, Pitch_bend_c, 13, 8712
6, 67348, Pitch_bend_c, 13, 8842
6, 67348, Pitch_bend_c, 13, 9232
6, 67350, Pitch_bend_c, 13, 9362
6, 67352, Pitch_bend_c, 13, 9622
6, 67352, Pitch_bend_c, 13, 9752
6, 67354, Pitch_bend_c, 13, 10012
6, 67356, Pitch_bend_c, 13, 10272
6, 67356, Pitch_bend_c, 13, 10532
6, 67357, Pitch_bend_c, 13, 10662
6, 67357, Pitch_bend_c, 13, 10922
6, 67359, Pitch_bend_c, 13, 11182
6, 67361, Pitch_bend_c, 13, 11312
6, 67363, Pitch_bend_c, 13, 11572
6, 67363, Pitch_bend_c, 13, 11702
6, 67367, Pitch_bend_c, 13, 11832
6, 67374, Pitch_bend_c, 13, 11572
6, 67376, Pitch_bend_c, 13, 11442
6, 67378, Pitch_bend_c, 13, 11312
6, 67380, Pitch_bend_c, 13, 11052
6, 67382, Pitch_bend_c, 13, 10922
6, 67382, Pitch_bend_c, 13, 10792
6, 67384, Pitch_bend_c, 13, 10662
6, 67385, Pitch_bend_c, 13, 10532
6, 67389, Pitch_bend_c, 13, 10402
6, 67404, Pitch_bend_c, 13, 10532
6, 67407, Pitch_bend_c, 13, 10662
6, 67411, Pitch_bend_c, 13, 10792
6, 67413, Pitch_bend_c, 13, 10922
6, 67416, Pitch_bend_c, 13, 11052
6, 67422, Pitch_bend_c, 13, 10922
6, 67424, Pitch_bend_c, 13, 10792
6, 67424, Pitch_bend_c, 13, 10532
6, 67426, Pitch_bend_c, 13, 10272
6, 67428, Pitch_bend_c, 13, 9882
6, 67428, Pitch_bend_c, 13, 9622
6, 67430, Pitch_bend_c, 13, 9232
6, 67432, Pitch_bend_c, 13, 8842
6, 67432, Pitch_bend_c, 13, 8322
6, 67434, Pitch_bend_c, 13, 8192
6, 67463, Pitch_bend_c, 13, 8452
6, 67464, Pitch_bend_c, 13, 8582
6, 67464, Pitch_bend_c, 13, 8712
6, 67466, Pitch_bend_c, 13, 8972
6, 67468, Pitch_bend_c, 13, 9102
6, 67476, Pitch_bend_c, 13, 8842
6, 67476, Pitch_bend_c, 13, 8712
6, 67477, Pitch_bend_c, 13, 8452
6, 67477, Pitch_bend_c, 13, 8192
6, 67512, Note_on_c, 13, 73, 44
6, 67523, Note_on_c, 13, 73, 0
6, 67526, Note_on_c, 13, 78, 0
6, 67554, Note_on_c, 13, 78, 17
6, 67556, Note_on_c, 13, 81, 82
6, 67568, Note_on_c, 13, 78, 0
6, 67590, Note_on_c, 13, 81, 0
6, 67596, Note_on_c, 13, 73, 44
6, 67615, Note_on_c, 13, 73, 0
6, 67635, Note_on_c, 13, 78, 56
6, 67641, Pitch_bend_c, 13, 8452
6, 67643, Pitch_bend_c, 13, 8582
6, 67644, Pitch_bend_c, 13, 8842
6, 67646, Pitch_bend_c, 13, 8972
6, 67646, Pitch_bend_c, 13, 9102
6, 67656, Pitch_bend_c, 13, 8842
6, 67656, Pitch_bend_c, 13, 8582
6, 67657, Pitch_bend_c, 13, 8452
6, 67659, Pitch_bend_c, 13, 8322
6, 67661, Pitch_bend_c, 13, 8192
6, 67668, Pitch_bend_c, 13, 8322
6, 67668, Pitch_bend_c, 13, 8452
6, 67670, Pitch_bend_c, 13, 8582
6, 67672, Pitch_bend_c, 13, 8842
6, 67674, Pitch_bend_c, 13, 9492
6, 67674, Pitch_bend_c, 13, 10012
6, 67676, Pitch_bend_c, 13, 10532
6, 67678, Pitch_bend_c, 13, 10922
6, 67678, Pitch_bend_c, 13, 11312
6, 67680, Pitch_bend_c, 13, 11572
6, 67682, Pitch_bend_c, 13, 11832
6, 67682, Pitch_bend_c, 13, 11962
6, 67684, Pitch_bend_c, 13, 12092
6, 67686, Pitch_bend_c, 13, 12222
6, 67688, Pitch_bend_c, 13, 11832
6, 67690, Pitch_bend_c, 13, 10922
6, 67692, Pitch_bend_c, 13, 9752
6, 67692, Pitch_bend_c, 13, 8192
6, 67708, Note_on_c, 13, 78, 0
6, 67710, Note_on_c, 13, 76, 52
6, 67746, Note_on_c, 13, 73, 36
6, 67748, Note_on_c, 13, 76, 0
6, 67769, Note_on_c, 13, 73, 0
6, 67788, Note_on_c, 13, 71, 73
6, 67827, Note_on_c, 13, 71, 0
6, 67827, Note_on_c, 13, 69, 44
6, 67842, Note_on_c, 13, 69, 0
6, 67861, Note_on_c, 13, 71, 60
6, 67892, Note_on_c, 13, 71, 0
6, 67901, Note_on_c, 13, 69, 48
6, 67920, Note_on_c, 13, 69, 0
6, 67943, Note_on_c, 13, 71, 82
6, 67957, Pitch_bend_c, 13, 8322
6, 67957, Pitch_bend_c, 13, 8582
6, 67959, Pitch_bend_c, 13, 8842
6, 67961, Pitch_bend_c, 13, 9102
6, 67961, Pitch_bend_c, 13, 9362
6, 67963, Pitch_bend_c, 13, 9622
6, 67965, Pitch_bend_c, 13, 9882
6, 67965, Pitch_bend_c, 13, 10012
6, 67967, Pitch_bend_c, 13, 10272
6, 67969, Pitch_bend_c, 13, 10532
6, 67969, Pitch_bend_c, 13, 10792
6, 67971, Pitch_bend_c, 13, 10922
6, 67973, Pitch_bend_c, 13, 11182
6, 67973, Pitch_bend_c, 13, 11312
6, 67975, Pitch_bend_c, 13, 11572
6, 67977, Pitch_bend_c, 13, 11702
6, 67979, Pitch_bend_c, 13, 11832
6, 67986, Pitch_bend_c, 13, 11702
6, 67988, Pitch_bend_c, 13, 11442
6, 67988, Pitch_bend_c, 13, 11312
6, 67990, Pitch_bend_c, 13, 11052
6, 67990, Pitch_bend_c, 13, 10792
6, 67992, Pitch_bend_c, 13, 10532
6, 67993, Pitch_bend_c, 13, 10142
6, 67993, Pitch_bend_c, 13, 9882
6, 67995, Pitch_bend_c, 13, 9622
6, 67997, Pitch_bend_c, 13, 9492
6, 68001, Pitch_bend_c, 13, 9622
6, 68003, Pitch_bend_c, 13, 9882
6, 68003, Pitch_bend_c, 13, 10142
6, 68005, Pitch_bend_c, 13, 10532
6, 68007, Pitch_bend_c, 13, 10922
6, 68009, Pitch_bend_c, 13, 11182
6, 68009, Pitch_bend_c, 13, 11572
6, 68011, Pitch_bend_c, 13, 11962
6, 68013, Pitch_bend_c, 13, 12222
6, 68013, Pitch_bend_c, 13, 12612
6, 68015, Pitch_bend_c, 13, 13002
6, 68016, Pitch_bend_c, 13, 13392
6, 68016, Pitch_bend_c, 13, 13652
6, 68018, Pitch_bend_c, 13, 14042
6, 68020, Pitch_bend_c, 13, 14432
6, 68020, Pitch_bend_c, 13, 14692
6, 68022, Pitch_bend_c, 13, 15082
6, 68024, Pitch_bend_c, 13, 15342
6, 68024, Pitch_bend_c, 13, 15602
6, 68026, Pitch_bend_c, 13, 15732
6, 68033, Pitch_bend_c, 13, 15472
6, 68033, Pitch_bend_c, 13, 15342
6, 68035, Pitch_bend_c, 13, 15082
6, 68037, Pitch_bend_c, 13, 14822
6, 68037, Pitch_bend_c, 13, 14562
6, 68039, Pitch_bend_c, 13, 14172
6, 68041, Pitch_bend_c, 13, 13782
6, 68043, Pitch_bend_c, 13, 13392
6, 68043, Pitch_bend_c, 13, 12872
6, 68045, Pitch_bend_c, 13, 12352
6, 68047, Pitch_bend_c, 13, 11702
6, 68047, Pitch_bend_c, 13, 10922
6, 68049, Pitch_bend_c, 13, 10012
6, 68051, Pitch_bend_c, 13, 9232
6, 68051, Pitch_bend_c, 13, 8192
6, 68087, Note_on_c, 13, 69, 48
6, 68088, Note_on_c, 13, 71, 0
6, 68101, Note_on_c, 13, 69, 0
6, 68105, Note_on_c, 13, 66, 40
6, 68130, Note_on_c, 13, 66, 0
6, 68145, Pitch_bend_c, 13, 8322
6, 68145, Pitch_bend_c, 13, 8452
6, 68147, Pitch_bend_c, 13, 8582
6, 68150, Note_on_c, 13, 69, 82
6, 68150, Pitch_bend_c, 13, 8842
6, 68150, Pitch_bend_c, 13, 8972
6, 68152, Pitch_bend_c, 13, 9102
6, 68154, Pitch_bend_c, 13, 9232
6, 68156, Pitch_bend_c, 13, 9492
6, 68156, Pitch_bend_c, 13, 9622
6, 68158, Pitch_bend_c, 13, 9882
6, 68158, Pitch_bend_c, 13, 10012
6, 68160, Pitch_bend_c, 13, 10272
6, 68162, Pitch_bend_c, 13, 10402
6, 68162, Pitch_bend_c, 13, 10532
6, 68164, Pitch_bend_c, 13, 10662
6, 68170, Pitch_bend_c, 13, 10532
6, 68172, Pitch_bend_c, 13, 10272
6, 68173, Pitch_bend_c, 13, 10012
6, 68175, Pitch_bend_c, 13, 9622
6, 68175, Pitch_bend_c, 13, 9232
6, 68177, Pitch_bend_c, 13, 8842
6, 68179, Pitch_bend_c, 13, 8322
6, 68179, Pitch_bend_c, 13, 8192
6, 68194, Note_on_c, 13, 69, 0
6, 68194, Note_on_c, 13, 66, 52
6, 68210, Pitch_bend_c, 13, 8322
6, 68212, Pitch_bend_c, 13, 8452
6, 68214, Pitch_bend_c, 13, 8582
6, 68216, Pitch_bend_c, 13, 8712
6, 68218, Pitch_bend_c, 13, 8842
6, 68229, Pitch_bend_c, 13, 8712
6, 68241, Pitch_bend_c, 13, 8972
6, 68241, Pitch_bend_c, 13, 9362
6, 68243, Pitch_bend_c, 13, 9492
6, 68245, Pitch_bend_c, 13, 9752
6, 68245, Pitch_bend_c, 13, 10012
6, 68247, Pitch_bend_c, 13, 10272
6, 68247, Pitch_bend_c, 13, 10142
6, 68249, Pitch_bend_c, 13, 9752
6, 68251, Pitch_bend_c, 13, 9362
6, 68251, Pitch_bend_c, 13, 8972
6, 68253, Pitch_bend_c, 13, 8452
6, 68255, Pitch_bend_c, 13, 8192
6, 68282, Note_on_c, 13, 66, 0
6, 68318, Note_on_c, 13, 61, 32
6, 68347, Note_on_c, 13, 63, 56
6, 68349, Note_on_c, 13, 61, 0
6, 68358, Note_on_c, 13, 66, 48
6, 68390, Note_on_c, 13, 63, 0
6, 68390, Note_on_c, 13, 69, 91
6, 68399, Note_on_c, 13, 66, 0
6, 68450, Note_on_c, 13, 69, 0
6, 68466, Note_on_c, 13, 66, 91
6, 68502, Note_on_c, 13, 66, 0
6, 68515, Pitch_bend_c, 13, 7936
6, 68517, Pitch_bend_c, 13, 7808
6, 68517, Pitch_bend_c, 13, 7680
6, 68519, Pitch_bend_c, 13, 7552
6, 68524, Pitch_bend_c, 13, 7680
6, 68524, Pitch_bend_c, 13, 7936
6, 68526, Pitch_bend_c, 13, 8192
6, 68559, Note_on_c, 13, 64, 56
6, 68579, Note_on_c, 13, 64, 0
6, 68633, Note_on_c, 13, 61, 48
6, 68635, Pitch_bend_c, 13, 8322
6, 68637, Pitch_bend_c, 13, 8452
6, 68637, Pitch_bend_c, 13, 8712
6, 68639, Pitch_bend_c, 13, 8972
6, 68639, Pitch_bend_c, 13, 9232
6, 68640, Pitch_bend_c, 13, 9362
6, 68642, Pitch_bend_c, 13, 9492
6, 68648, Pitch_bend_c, 13, 9362
6, 68648, Pitch_bend_c, 13, 8972
6, 68650, Pitch_bend_c, 13, 8712
6, 68650, Pitch_bend_c, 13, 8322
6, 68652, Pitch_bend_c, 13, 8192
6, 68680, Pitch_bend_c, 13, 8322
6, 68682, Pitch_bend_c, 13, 8452
6, 68684, Pitch_bend_c, 13, 8582
6, 68693, Pitch_bend_c, 13, 8452
6, 68693, Pitch_bend_c, 13, 8322
6, 68695, Pitch_bend_c, 13, 8192
6, 68721, Note_on_c, 13, 61, 0
6, 68998, Note_on_c, 13, 61, 82
6, 69032, Pitch_bend_c, 13, 8322
6, 69032, Pitch_bend_c, 13, 8452
6, 69034, Pitch_bend_c, 13, 8582
6, 69036, Pitch_bend_c, 13, 8712
6, 69040, Pitch_bend_c, 13, 8972
6, 69040, Pitch_bend_c, 13, 9102
6, 69044, Pitch_bend_c, 13, 9232
6, 69044, Pitch_bend_c, 13, 9362
6, 69048, Pitch_bend_c, 13, 9492
6, 69049, Pitch_bend_c, 13, 9622
6, 69053, Pitch_bend_c, 13, 9752
6, 69057, Pitch_bend_c, 13, 9882
6, 69059, Pitch_bend_c, 13, 10012
6, 69060, Pitch_bend_c, 13, 10142
6, 69062, Pitch_bend_c, 13, 10272
6, 69064, Pitch_bend_c, 13, 10402
6, 69066, Pitch_bend_c, 13, 10532
6, 69066, Pitch_bend_c, 13, 10662
6, 69068, Pitch_bend_c, 13, 10792
6, 69070, Pitch_bend_c, 13, 10922
6, 69070, Pitch_bend_c, 13, 11052
6, 69072, Pitch_bend_c, 13, 11312
6, 69072, Pitch_bend_c, 13, 11442
6, 69074, Pitch_bend_c, 13, 11572
6, 69076, Pitch_bend_c, 13, 11702
6, 69076, Pitch_bend_c, 13, 11832
6, 69078, Pitch_bend_c, 13, 11962
6, 69080, Pitch_bend_c, 13, 12222
6, 69080, Pitch_bend_c, 13, 12352
6, 69082, Pitch_bend_c, 13, 12482
6, 69084, Pitch_bend_c, 13, 12612
6, 69085, Pitch_bend_c, 13, 12742
6, 69085, Pitch_bend_c, 13, 12872
6, 69087, Pitch_bend_c, 13, 13002
6, 69089, Pitch_bend_c, 13, 13132
6, 69093, Pitch_bend_c, 13, 13262
6, 69095, Pitch_bend_c, 13, 13392
6, 69096, Note_on_c, 13, 61, 0
6, 69096, Pitch_bend_c, 13, 13522
6, 69109, Pitch_bend_c, 13, 13262
6, 69109, Pitch_bend_c, 13, 12742
6, 69111, Pitch_bend_c, 13, 12092
6, 69113, Pitch_bend_c, 13, 11442
6, 69115, Pitch_bend_c, 13, 10532
6, 69115, Pitch_bend_c, 13, 9882
6, 69117, Pitch_bend_c, 13, 8972
6, 69119, Pitch_bend_c, 13, 8192
6, 69187, Note_on_c, 13, 71, 60
6, 69222, Pitch_bend_c, 13, 8322
6, 69222, Pitch_bend_c, 13, 8582
6, 69224, Pitch_bend_c, 13, 8842
6, 69226, Pitch_bend_c, 13, 9102
6, 69226, Pitch_bend_c, 13, 9362
6, 69228, Pitch_bend_c, 13, 9622
6, 69229, Pitch_bend_c, 13, 9882
6, 69229, Pitch_bend_c, 13, 10012
6, 69231, Pitch_bend_c, 13, 10142
6, 69233, Pitch_bend_c, 13, 10272
6, 69235, Pitch_bend_c, 13, 10402
6, 69237, Pitch_bend_c, 13, 10532
6, 69242, Pitch_bend_c, 13, 10402
6, 69244, Pitch_bend_c, 13, 10272
6, 69246, Pitch_bend_c, 13, 10142
6, 69248, Pitch_bend_c, 13, 9882
6, 69248, Pitch_bend_c, 13, 9622
6, 69250, Pitch_bend_c, 13, 9362
6, 69252, Pitch_bend_c, 13, 8972
6, 69252, Pitch_bend_c, 13, 8452
6, 69254, Pitch_bend_c, 13, 8192
6, 69283, Pitch_bend_c, 13, 8322
6, 69287, Pitch_bend_c, 13, 8452
6, 69288, Pitch_bend_c, 13, 8582
6, 69298, Pitch_bend_c, 13, 8452
6, 69300, Pitch_bend_c, 13, 8322
6, 69301, Pitch_bend_c, 13, 8192
6, 69339, Pitch_bend_c, 13, 8452
6, 69341, Pitch_bend_c, 13, 8842
6, 69341, Pitch_bend_c, 13, 9102
6, 69343, Pitch_bend_c, 13, 9362
6, 69345, Pitch_bend_c, 13, 9622
6, 69345, Pitch_bend_c, 13, 9752
6, 69348, Pitch_bend_c, 13, 9882
6, 69352, Pitch_bend_c, 13, 9752
6, 69354, Pitch_bend_c, 13, 9622
6, 69354, Pitch_bend_c, 13, 9362
6, 69356, Pitch_bend_c, 13, 9102
6, 69358, Pitch_bend_c, 13, 8712
6, 69360, Pitch_bend_c, 13, 8452
6, 69360, Pitch_bend_c, 13, 8322
6, 69362, Pitch_bend_c, 13, 8192
6, 69391, Pitch_bend_c, 13, 8322
6, 69393, Pitch_bend_c, 13, 8452
6, 69395, Pitch_bend_c, 13, 8712
6, 69395, Pitch_bend_c, 13, 8842
6, 69396, Pitch_bend_c, 13, 9102
6, 69396, Pitch_bend_c, 13, 9232
6, 69398, Pitch_bend_c, 13, 9362
6, 69408, Pitch_bend_c, 13, 9232
6, 69409, Pitch_bend_c, 13, 8972
6, 69411, Pitch_bend_c, 13, 8712
6, 69411, Pitch_bend_c, 13, 8452
6, 69413, Pitch_bend_c, 13, 8322
6, 69413, Pitch_bend_c, 13, 8192
6, 69426, Note_on_c, 13, 71, 0
6, 69446, Note_on_c, 13, 66, 48
6, 69460, Note_on_c, 13, 66, 0
6, 69480, Note_on_c, 13, 69, 64
6, 69554, Note_on_c, 13, 69, 0
6, 69564, Note_on_c, 13, 66, 52
6, 69585, Note_on_c, 13, 66, 0
6, 69760, Note_on_c, 13, 61, 29
6, 69794, Note_on_c, 13, 63, 56
6, 69800, Note_on_c, 13, 61, 0
6, 69817, Note_on_c, 13, 63, 0
6, 69839, Note_on_c, 13, 69, 100
6, 69868, Note_on_c, 13, 69, 0
6, 69879, Note_on_c, 13, 68, 73
6, 69902, Note_on_c, 13, 68, 0
6, 69917, Note_on_c, 13, 66, 82
6, 69940, Pitch_bend_c, 13, 8322
6, 69942, Pitch_bend_c, 13, 8582
6, 69944, Pitch_bend_c, 13, 8972
6, 69944, Pitch_bend_c, 13, 9232
6, 69946, Pitch_bend_c, 13, 9492
6, 69948, Pitch_bend_c, 13, 9752
6, 69948, Pitch_bend_c, 13, 10012
6, 69950, Pitch_bend_c, 13, 10272
6, 69952, Pitch_bend_c, 13, 10532
6, 69952, Pitch_bend_c, 13, 10792
6, 69954, Pitch_bend_c, 13, 10922
6, 69956, Pitch_bend_c, 13, 11182
6, 69958, Note_on_c, 13, 61, 64
6, 69958, Pitch_bend_c, 13, 11312
6, 69961, Note_on_c, 13, 66, 0
6, 69963, Pitch_bend_c, 13, 11182
6, 69963, Pitch_bend_c, 13, 11052
6, 69965, Pitch_bend_c, 13, 10792
6, 69967, Pitch_bend_c, 13, 10662
6, 69967, Pitch_bend_c, 13, 10272
6, 69969, Pitch_bend_c, 13, 10012
6, 69971, Pitch_bend_c, 13, 9622
6, 69971, Pitch_bend_c, 13, 9232
6, 69973, Pitch_bend_c, 13, 8712
6, 69975, Pitch_bend_c, 13, 8322
6, 69975, Pitch_bend_c, 13, 8192
6, 69984, Note_on_c, 13, 61, 0
6, 69998, Note_on_c, 13, 64, 82
6, 70024, Pitch_bend_c, 13, 8322
6, 70026, Pitch_bend_c, 13, 8582
6, 70028, Pitch_bend_c, 13, 8842
6, 70030, Pitch_bend_c, 13, 9102
6, 70030, Pitch_bend_c, 13, 9232
6, 70032, Pitch_bend_c, 13, 9492
6, 70032, Pitch_bend_c, 13, 9752
6, 70033, Pitch_bend_c, 13, 9882
6, 70035, Pitch_bend_c, 13, 10012
6, 70037, Pitch_bend_c, 13, 10142
6, 70037, Pitch_bend_c, 13, 10402
6, 70041, Note_on_c, 13, 64, 0
6, 70041, Pitch_bend_c, 13, 10532
6, 70043, Pitch_bend_c, 13, 10662
6, 70050, Pitch_bend_c, 13, 10532
6, 70054, Pitch_bend_c, 13, 10402
6, 70054, Pitch_bend_c, 13, 10142
6, 70056, Pitch_bend_c, 13, 10012
6, 70058, Pitch_bend_c, 13, 9752
6, 70058, Pitch_bend_c, 13, 9492
6, 70060, Pitch_bend_c, 13, 9102
6, 70060, Pitch_bend_c, 13, 8582
6, 70062, Pitch_bend_c, 13, 8192
6, 70193, Pitch_bend_c, 13, 8322
6, 70195, Pitch_bend_c, 13, 8582
6, 70200, Pitch_bend_c, 13, 8322
6, 70204, Pitch_bend_c, 13, 8192
6, 70321, Note_on_c, 13, 63, 82
6, 70321, Note_on_c, 13, 59, 73
6, 70381, Pitch_bend_c, 13, 8452
6, 70383, Pitch_bend_c, 13, 8582
6, 70383, Pitch_bend_c, 13, 8972
6, 70385, Pitch_bend_c, 13, 9362
6, 70387, Pitch_bend_c, 13, 9752
6, 70387, Pitch_bend_c, 13, 10012
6, 70389, Pitch_bend_c, 13, 10402
6, 70391, Note_on_c, 13, 63, 0
6, 70391, Pitch_bend_c, 13, 10662
6, 70392, Note_on_c, 13, 59, 0
6, 70392, Pitch_bend_c, 13, 10922
6, 70392, Pitch_bend_c, 13, 11182
6, 70394, Pitch_bend_c, 13, 11312
6, 70402, Pitch_bend_c, 13, 11052
6, 70402, Pitch_bend_c, 13, 10662
6, 70404, Pitch_bend_c, 13, 10402
6, 70404, Pitch_bend_c, 13, 10012
6, 70406, Pitch_bend_c, 13, 9492
6, 70408, Pitch_bend_c, 13, 8972
6, 70408, Pitch_bend_c, 13, 8322
6, 70410, Pitch_bend_c, 13, 8192
6, 70442, Note_on_c, 13, 63, 52
6, 70444, Note_on_c, 13, 59, 56
6, 70451, Pitch_bend_c, 13, 8322
6, 70453, Pitch_bend_c, 13, 8582
6, 70455, Pitch_bend_c, 13, 8842
6, 70457, Pitch_bend_c, 13, 8192
6, 70514, Note_on_c, 13, 59, 0
6, 70518, Note_on_c, 13, 63, 0
6, 70525, Note_on_c, 13, 61, 56
6, 70527, Note_on_c, 13, 57, 30
6, 70558, Pitch_bend_c, 13, 8322
6, 70560, Pitch_bend_c, 13, 8452
6, 70560, Pitch_bend_c, 13, 8712
6, 70562, Pitch_bend_c, 13, 9102
6, 70564, Pitch_bend_c, 13, 9492
6, 70564, Pitch_bend_c, 13, 9622
6, 70566, Pitch_bend_c, 13, 9882
6, 70568, Pitch_bend_c, 13, 10142
6, 70568, Pitch_bend_c, 13, 10272
6, 70570, Pitch_bend_c, 13, 10402
6, 70570, Pitch_bend_c, 13, 10662
6, 70572, Pitch_bend_c, 13, 10792
6, 70573, Pitch_bend_c, 13, 10922
6, 70575, Pitch_bend_c, 13, 11052
6, 70579, Pitch_bend_c, 13, 11182
6, 70579, Pitch_bend_c, 13, 11312
6, 70585, Pitch_bend_c, 13, 11442
6, 70594, Pitch_bend_c, 13, 11312
6, 70596, Pitch_bend_c, 13, 11182
6, 70597, Pitch_bend_c, 13, 10922
6, 70597, Pitch_bend_c, 13, 10792
6, 70599, Pitch_bend_c, 13, 10402
6, 70601, Pitch_bend_c, 13, 10012
6, 70601, Pitch_bend_c, 13, 8972
6, 70603, Note_on_c, 13, 57, 0
6, 70605, Note_on_c, 13, 61, 0
6, 70605, Pitch_bend_c, 13, 8192
6, 70845, Note_on_c, 13, 58, 16
6, 70875, Note_on_c, 13, 58, 0
6, 70877, Note_on_c, 13, 61, 56
6, 70901, Note_on_c, 13, 61, 0
6, 70917, Note_on_c, 13, 63, 91
6, 70953, Note_on_c, 13, 66, 48
6, 70957, Note_on_c, 13, 63, 0
6, 70980, Note_on_c, 13, 66, 0
6, 70991, Note_on_c, 13, 63, 44
6, 71004, Note_on_c, 13, 63, 0
6, 71037, Note_on_c, 13, 69, 60
6, 71037, Note_on_c, 13, 67, 73
6, 71078, Note_on_c, 13, 67, 0
6, 71078, Note_on_c, 13, 69, 0
6, 71122, Note_on_c, 13, 68, 82
6, 71154, Pitch_bend_c, 13, 8322
6, 71158, Pitch_bend_c, 13, 8452
6, 71160, Pitch_bend_c, 13, 8582
6, 71160, Pitch_bend_c, 13, 8712
6, 71161, Pitch_bend_c, 13, 8842
6, 71169, Pitch_bend_c, 13, 8712
6, 71171, Pitch_bend_c, 13, 8582
6, 71172, Pitch_bend_c, 13, 8322
6, 71174, Pitch_bend_c, 13, 8192
6, 71180, Note_on_c, 13, 68, 0
6, 71200, Note_on_c, 13, 66, 64
6, 71203, Pitch_bend_c, 13, 8322
6, 71206, Pitch_bend_c, 13, 8582
6, 71206, Pitch_bend_c, 13, 8842
6, 71208, Pitch_bend_c, 13, 8972
6, 71208, Pitch_bend_c, 13, 9232
6, 71209, Pitch_bend_c, 13, 9362
6, 71211, Pitch_bend_c, 13, 9492
6, 71211, Pitch_bend_c, 13, 9622
6, 71219, Pitch_bend_c, 13, 9362
6, 71220, Pitch_bend_c, 13, 8972
6, 71220, Pitch_bend_c, 13, 8452
6, 71222, Pitch_bend_c, 13, 8192
6, 71239, Note_on_c, 13, 66, 0
6, 71262, Pitch_bend_c, 13, 8322
6, 71262, Pitch_bend_c, 13, 8452
6, 71264, Pitch_bend_c, 13, 8712
6, 71266, Pitch_bend_c, 13, 8972
6, 71266, Pitch_bend_c, 13, 9102
6, 71268, Pitch_bend_c, 13, 9362
6, 71270, Pitch_bend_c, 13, 9492
6, 71270, Pitch_bend_c, 13, 9622
6, 71272, Pitch_bend_c, 13, 9752
6, 71276, Note_on_c, 13, 69, 82
6, 71288, Pitch_bend_c, 13, 10012
6, 71290, Pitch_bend_c, 13, 10142
6, 71290, Pitch_bend_c, 13, 10272
6, 71292, Pitch_bend_c, 13, 10532
6, 71294, Pitch_bend_c, 13, 10792
6, 71294, Pitch_bend_c, 13, 11052
6, 71296, Pitch_bend_c, 13, 11312
6, 71298, Pitch_bend_c, 13, 11572
6, 71300, Pitch_bend_c, 13, 11832
6, 71300, Pitch_bend_c, 13, 12092
6, 71302, Pitch_bend_c, 13, 12222
6, 71304, Pitch_bend_c, 13, 12352
6, 71307, Pitch_bend_c, 13, 12092
6, 71309, Pitch_bend_c, 13, 11832
6, 71311, Pitch_bend_c, 13, 11312
6, 71313, Pitch_bend_c, 13, 10792
6, 71313, Pitch_bend_c, 13, 10012
6, 71315, Pitch_bend_c, 13, 9232
6, 71316, Pitch_bend_c, 13, 8192
6, 71322, Note_on_c, 13, 69, 0
6, 71322, Note_on_c, 13, 68, 48
6, 71340, Pitch_bend_c, 13, 8322
6, 71342, Pitch_bend_c, 13, 8192
6, 71350, Note_on_c, 13, 68, 0
6, 71359, Note_on_c, 13, 66, 60
6, 71377, Note_on_c, 13, 66, 0
6, 71389, Note_on_c, 13, 71, 82
6, 71408, Pitch_bend_c, 13, 8452
6, 71408, Pitch_bend_c, 13, 8582
6, 71410, Pitch_bend_c, 13, 8972
6, 71410, Pitch_bend_c, 13, 9102
6, 71412, Pitch_bend_c, 13, 9362
6, 71413, Pitch_bend_c, 13, 9622
6, 71415, Pitch_bend_c, 13, 9882
6, 71415, Pitch_bend_c, 13, 10142
6, 71417, Pitch_bend_c, 13, 10402
6, 71419, Pitch_bend_c, 13, 10532
6, 71419, Pitch_bend_c, 13, 10662
6, 71421, Pitch_bend_c, 13, 10792
6, 71421, Pitch_bend_c, 13, 10922
6, 71430, Note_on_c, 13, 71, 0
6, 71430, Note_on_c, 13, 66, 44
6, 71432, Pitch_bend_c, 13, 10792
6, 71434, Pitch_bend_c, 13, 10662
6, 71434, Pitch_bend_c, 13, 10402
6, 71436, Pitch_bend_c, 13, 10142
6, 71438, Pitch_bend_c, 13, 10012
6, 71438, Pitch_bend_c, 13, 9752
6, 71440, Pitch_bend_c, 13, 9362
6, 71442, Pitch_bend_c, 13, 9102
6, 71442, Pitch_bend_c, 13, 8712
6, 71444, Pitch_bend_c, 13, 8322
6, 71446, Pitch_bend_c, 13, 8192
6, 71453, Note_on_c, 13, 66, 0
6, 71471, Note_on_c, 13, 71, 73
6, 71485, Pitch_bend_c, 13, 8452
6, 71487, Pitch_bend_c, 13, 8712
6, 71489, Pitch_bend_c, 13, 9102
6, 71491, Pitch_bend_c, 13, 9492
6, 71491, Pitch_bend_c, 13, 9882
6, 71493, Pitch_bend_c, 13, 10272
6, 71493, Pitch_bend_c, 13, 10662
6, 71495, Pitch_bend_c, 13, 11052
6, 71497, Pitch_bend_c, 13, 11442
6, 71499, Pitch_bend_c, 13, 11962
6, 71499, Pitch_bend_c, 13, 12352
6, 71501, Pitch_bend_c, 13, 12612
6, 71503, Pitch_bend_c, 13, 13002
6, 71503, Pitch_bend_c, 13, 13132
6, 71505, Pitch_bend_c, 13, 13392
6, 71507, Pitch_bend_c, 13, 13522
6, 71507, Pitch_bend_c, 13, 13652
6, 71508, Pitch_bend_c, 13, 13912
6, 71510, Pitch_bend_c, 13, 14042
6, 71512, Pitch_bend_c, 13, 14172
6, 71512, Pitch_bend_c, 13, 14302
6, 71514, Pitch_bend_c, 13, 14432
6, 71516, Pitch_bend_c, 13, 14562
6, 71518, Pitch_bend_c, 13, 14692
6, 71518, Pitch_bend_c, 13, 14822
6, 71520, Pitch_bend_c, 13, 14952
6, 71522, Pitch_bend_c, 13, 15082
6, 71522, Pitch_bend_c, 13, 15212
6, 71524, Pitch_bend_c, 13, 15342
6, 71526, Pitch_bend_c, 13, 15472
6, 71526, Pitch_bend_c, 13, 15602
6, 71528, Pitch_bend_c, 13, 15732
6, 71530, Pitch_bend_c, 13, 15862
6, 71532, Pitch_bend_c, 13, 15992
6, 71533, Pitch_bend_c, 13, 16122
6, 71541, Pitch_bend_c, 13, 16252
6, 71543, Pitch_bend_c, 13, 16382
6, 71544, Note_on_c, 13, 71, 0
6, 71602, Pitch_bend_c, 13, 16252
6, 71604, Pitch_bend_c, 13, 15992
6, 71604, Pitch_bend_c, 13, 15732
6, 71606, Pitch_bend_c, 13, 15472
6, 71608, Pitch_bend_c, 13, 15212
6, 71608, Pitch_bend_c, 13, 14822
6, 71610, Pitch_bend_c, 13, 14432
6, 71612, Pitch_bend_c, 13, 13912
6, 71612, Pitch_bend_c, 13, 12872
6, 71614, Pitch_bend_c, 13, 11052
6, 71616, Pitch_bend_c, 13, 9102
6, 71617, Pitch_bend_c, 13, 8192
6, 71843, Note_on_c, 13, 71, 27
6, 71848, Note_on_c, 13, 71, 0
6, 71879, Note_on_c, 13, 74, 100
6, 71895, Pitch_bend_c, 13, 8322
6, 71897, Pitch_bend_c, 13, 8582
6, 71899, Pitch_bend_c, 13, 8972
6, 71901, Pitch_bend_c, 13, 9232
6, 71901, Pitch_bend_c, 13, 9622
6, 71903, Pitch_bend_c, 13, 9882
6, 71903, Pitch_bend_c, 13, 10402
6, 71904, Pitch_bend_c, 13, 10792
6, 71906, Pitch_bend_c, 13, 11182
6, 71908, Pitch_bend_c, 13, 11442
6, 71908, Pitch_bend_c, 13, 11832
6, 71910, Pitch_bend_c, 13, 12092
6, 71912, Pitch_bend_c, 13, 12352
6, 71912, Pitch_bend_c, 13, 12482
6, 71914, Pitch_bend_c, 13, 12742
6, 71916, Pitch_bend_c, 13, 12872
6, 71916, Pitch_bend_c, 13, 13132
6, 71918, Pitch_bend_c, 13, 13262
6, 71920, Pitch_bend_c, 13, 13522
6, 71922, Pitch_bend_c, 13, 13652
6, 71922, Pitch_bend_c, 13, 13912
6, 71924, Pitch_bend_c, 13, 14042
6, 71924, Pitch_bend_c, 13, 14172
6, 71926, Pitch_bend_c, 13, 14302
6, 71928, Pitch_bend_c, 13, 14562
6, 71929, Pitch_bend_c, 13, 14692
6, 71929, Pitch_bend_c, 13, 14822
6, 71931, Pitch_bend_c, 13, 14952
6, 71933, Pitch_bend_c, 13, 15082
6, 71933, Pitch_bend_c, 13, 15342
6, 71935, Pitch_bend_c, 13, 15472
6, 71937, Pitch_bend_c, 13, 15602
6, 71937, Pitch_bend_c, 13, 15732
6, 71939, Pitch_bend_c, 13, 15862
6, 71943, Pitch_bend_c, 13, 15992
6, 71945, Pitch_bend_c, 13, 16122
6, 71947, Pitch_bend_c, 13, 16252
6, 71949, Pitch_bend_c, 13, 16382
6, 72084, Pitch_bend_c, 13, 16122
6, 72085, Pitch_bend_c, 13, 15862
6, 72087, Pitch_bend_c, 13, 15602
6, 72087, Pitch_bend_c, 13, 15342
6, 72089, Pitch_bend_c, 13, 14952
6, 72091, Pitch_bend_c, 13, 14432
6, 72091, Pitch_bend_c, 13, 13912
6, 72093, Pitch_bend_c, 13, 13392
6, 72095, Pitch_bend_c, 13, 12612
6, 72095, Pitch_bend_c, 13, 11962
6, 72097, Pitch_bend_c, 13, 11182
6, 72099, Pitch_bend_c, 13, 10272
6, 72101, Pitch_bend_c, 13, 9492
6, 72101, Pitch_bend_c, 13, 8322
6, 72103, Note_on_c, 13, 74, 0
6, 72103, Pitch_bend_c, 13, 8192
6, 72121, Note_on_c, 13, 73, 64
6, 72144, Pitch_bend_c, 13, 8322
6, 72146, Pitch_bend_c, 13, 8452
6, 72146, Pitch_bend_c, 13, 8582
6, 72148, Pitch_bend_c, 13, 8712
6, 72150, Pitch_bend_c, 13, 8842
6, 72154, Pitch_bend_c, 13, 8972
6, 72161, Pitch_bend_c, 13, 8842
6, 72163, Pitch_bend_c, 13, 8712
6, 72165, Pitch_bend_c, 13, 8452
6, 72167, Pitch_bend_c, 13, 8322
6, 72168, Pitch_bend_c, 13, 8192
6, 72183, Note_on_c, 13, 73, 0
6, 72241, Note_on_c, 13, 69, 73
6, 72320, Note_on_c, 13, 66, 56
6, 72324, Note_on_c, 13, 69, 0
6, 72329, Pitch_bend_c, 13, 8322
6, 72329, Pitch_bend_c, 13, 8582
6, 72331, Pitch_bend_c, 13, 8842
6, 72333, Pitch_bend_c, 13, 9102
6, 72333, Pitch_bend_c, 13, 9232
6, 72337, Pitch_bend_c, 13, 9362
6, 72342, Pitch_bend_c, 13, 9232
6, 72342, Pitch_bend_c, 13, 8842
6, 72345, Pitch_bend_c, 13, 8582
6, 72346, Pitch_bend_c, 13, 8192
6, 72350, Note_on_c, 13, 66, 0
6, 72375, Pitch_bend_c, 13, 8322
6, 72377, Pitch_bend_c, 13, 8582
6, 72377, Pitch_bend_c, 13, 9232
6, 72379, Pitch_bend_c, 13, 9492
6, 72381, Pitch_bend_c, 13, 9882
6, 72383, Pitch_bend_c, 13, 10142
6, 72383, Pitch_bend_c, 13, 10402
6, 72385, Pitch_bend_c, 13, 10532
6, 72385, Pitch_bend_c, 13, 10792
6, 72389, Pitch_bend_c, 13, 10922
6, 72401, Pitch_bend_c, 13, 10792
6, 72405, Pitch_bend_c, 13, 10662
6, 72407, Pitch_bend_c, 13, 10532
6, 72409, Pitch_bend_c, 13, 10402
6, 72411, Pitch_bend_c, 13, 10272
6, 72411, Pitch_bend_c, 13, 10142
6, 72413, Pitch_bend_c, 13, 10012
6, 72413, Pitch_bend_c, 13, 9882
6, 72417, Pitch_bend_c, 13, 9752
6, 72418, Pitch_bend_c, 13, 9492
6, 72418, Pitch_bend_c, 13, 9362
6, 72420, Pitch_bend_c, 13, 9232
6, 72424, Pitch_bend_c, 13, 9102
6, 72424, Pitch_bend_c, 13, 8842
6, 72426, Pitch_bend_c, 13, 8712
6, 72428, Pitch_bend_c, 13, 8452
6, 72428, Pitch_bend_c, 13, 8322
6, 72430, Pitch_bend_c, 13, 8192
6, 72568, Note_on_c, 13, 64, 16
6, 72574, Note_on_c, 13, 64, 0
6, 72596, Note_on_c, 13, 76, 73
6, 72599, Note_on_c, 13, 71, 73
6, 72614, Pitch_bend_c, 13, 8452
6, 72614, Pitch_bend_c, 13, 8582
6, 72616, Pitch_bend_c, 13, 8842
6, 72616, Pitch_bend_c, 13, 8972
6, 72618, Pitch_bend_c, 13, 9102
6, 72620, Pitch_bend_c, 13, 9232
6, 72629, Pitch_bend_c, 13, 8972
6, 72631, Pitch_bend_c, 13, 8712
6, 72633, Pitch_bend_c, 13, 8452
6, 72633, Pitch_bend_c, 13, 8192
6, 72643, Note_on_c, 13, 76, 0
6, 72645, Note_on_c, 13, 71, 0
6, 72678, Note_on_c, 13, 75, 60
6, 72680, Note_on_c, 13, 70, 64
6, 72723, Note_on_c, 13, 70, 0
6, 72730, Note_on_c, 13, 75, 0
6, 72739, Note_on_c, 13, 73, 64
6, 72779, Pitch_bend_c, 13, 8452
6, 72781, Pitch_bend_c, 13, 8582
6, 72781, Pitch_bend_c, 13, 8842
6, 72783, Pitch_bend_c, 13, 8972
6, 72783, Pitch_bend_c, 13, 9232
6, 72785, Pitch_bend_c, 13, 9362
6, 72787, Pitch_bend_c, 13, 9492
6, 72789, Pitch_bend_c, 13, 9622
6, 72798, Pitch_bend_c, 13, 9492
6, 72800, Pitch_bend_c, 13, 9362
6, 72800, Pitch_bend_c, 13, 9102
6, 72802, Pitch_bend_c, 13, 8842
6, 72804, Pitch_bend_c, 13, 8582
6, 72804, Pitch_bend_c, 13, 8322
6, 72805, Pitch_bend_c, 13, 8192
6, 72809, Note_on_c, 13, 73, 0
6, 72818, Note_on_c, 13, 66, 16
6, 72824, Note_on_c, 13, 66, 0
6, 72854, Note_on_c, 13, 69, 60
6, 72887, Pitch_bend_c, 13, 8322
6, 72889, Pitch_bend_c, 13, 8582
6, 72890, Pitch_bend_c, 13, 8842
6, 72890, Pitch_bend_c, 13, 9102
6, 72892, Pitch_bend_c, 13, 9232
6, 72892, Pitch_bend_c, 13, 9492
6, 72895, Pitch_bend_c, 13, 9752
6, 72896, Pitch_bend_c, 13, 9882
6, 72899, Pitch_bend_c, 13, 10142
6, 72899, Pitch_bend_c, 13, 10272
6, 72900, Pitch_bend_c, 13, 10402
6, 72902, Pitch_bend_c, 13, 10662
6, 72902, Pitch_bend_c, 13, 10792
6, 72906, Pitch_bend_c, 13, 10922
6, 72913, Note_on_c, 13, 69, 0
6, 72913, Pitch_bend_c, 13, 10792
6, 72915, Pitch_bend_c, 13, 10662
6, 72915, Pitch_bend_c, 13, 10402
6, 72917, Pitch_bend_c, 13, 10272
6, 72919, Pitch_bend_c, 13, 10012
6, 72919, Pitch_bend_c, 13, 9752
6, 72921, Pitch_bend_c, 13, 9362
6, 72923, Pitch_bend_c, 13, 8842
6, 72923, Pitch_bend_c, 13, 8322
6, 72925, Pitch_bend_c, 13, 8192
6, 72961, Note_on_c, 13, 66, 56
6, 72990, Pitch_bend_c, 13, 8322
6, 72992, Pitch_bend_c, 13, 8582
6, 72994, Pitch_bend_c, 13, 8842
6, 72994, Pitch_bend_c, 13, 9102
6, 72996, Pitch_bend_c, 13, 9362
6, 72997, Pitch_bend_c, 13, 9492
6, 72997, Pitch_bend_c, 13, 9752
6, 72999, Pitch_bend_c, 13, 9882
6, 73001, Pitch_bend_c, 13, 10012
6, 73001, Pitch_bend_c, 13, 10142
6, 73003, Pitch_bend_c, 13, 10272
6, 73010, Note_on_c, 13, 66, 0
6, 73020, Pitch_bend_c, 13, 10142
6, 73021, Pitch_bend_c, 13, 10012
6, 73025, Pitch_bend_c, 13, 9882
6, 73027, Pitch_bend_c, 13, 9752
6, 73031, Pitch_bend_c, 13, 9622
6, 73033, Pitch_bend_c, 13, 9492
6, 73033, Pitch_bend_c, 13, 9362
6, 73034, Pitch_bend_c, 13, 9232
6, 73037, Pitch_bend_c, 13, 9102
6, 73037, Pitch_bend_c, 13, 8842
6, 73039, Pitch_bend_c, 13, 8452
6, 73039, Pitch_bend_c, 13, 8192
6, 73077, Pitch_bend_c, 13, 8452
6, 73077, Note_on_c, 13, 64, 73
6, 73077, Pitch_bend_c, 13, 8712
6, 73079, Pitch_bend_c, 13, 8842
6, 73079, Pitch_bend_c, 13, 8972
6, 73080, Pitch_bend_c, 13, 9102
6, 73082, Pitch_bend_c, 13, 9232
6, 73084, Pitch_bend_c, 13, 9362
6, 73095, Pitch_bend_c, 13, 9232
6, 73095, Pitch_bend_c, 13, 9102
6, 73097, Pitch_bend_c, 13, 8972
6, 73099, Pitch_bend_c, 13, 8582
6, 73099, Pitch_bend_c, 13, 8322
6, 73101, Pitch_bend_c, 13, 8192
6, 73150, Note_on_c, 13, 64, 0
6, 73200, Note_on_c, 13, 61, 56
6, 73247, Pitch_bend_c, 13, 8452
6, 73247, Pitch_bend_c, 13, 8712
6, 73249, Pitch_bend_c, 13, 8972
6, 73251, Pitch_bend_c, 13, 9102
6, 73251, Pitch_bend_c, 13, 9232
6, 73253, Pitch_bend_c, 13, 9362
6, 73255, Pitch_bend_c, 13, 9492
6, 73259, Pitch_bend_c, 13, 9622
6, 73262, Note_on_c, 13, 61, 0
6, 73264, Pitch_bend_c, 13, 9492
6, 73266, Pitch_bend_c, 13, 9362
6, 73268, Pitch_bend_c, 13, 9232
6, 73268, Pitch_bend_c, 13, 8972
6, 73270, Pitch_bend_c, 13, 8582
6, 73272, Pitch_bend_c, 13, 8322
6, 73272, Pitch_bend_c, 13, 8192
6, 73313, Note_on_c, 13, 59, 64
6, 73332, Pitch_bend_c, 13, 8322
6, 73333, Pitch_bend_c, 13, 8712
6, 73335, Pitch_bend_c, 13, 9102
6, 73335, Pitch_bend_c, 13, 9362
6, 73337, Pitch_bend_c, 13, 9752
6, 73339, Pitch_bend_c, 13, 10012
6, 73339, Pitch_bend_c, 13, 10272
6, 73341, Pitch_bend_c, 13, 10532
6, 73343, Pitch_bend_c, 13, 10792
6, 73343, Pitch_bend_c, 13, 11052
6, 73344, Pitch_bend_c, 13, 11312
6, 73347, Pitch_bend_c, 13, 11572
6, 73347, Pitch_bend_c, 13, 11702
6, 73348, Pitch_bend_c, 13, 11832
6, 73350, Pitch_bend_c, 13, 11962
6, 73352, Pitch_bend_c, 13, 12092
6, 73365, Pitch_bend_c, 13, 11962
6, 73367, Pitch_bend_c, 13, 11832
6, 73369, Pitch_bend_c, 13, 11702
6, 73371, Note_on_c, 13, 59, 0
6, 73371, Pitch_bend_c, 13, 11442
6, 73373, Pitch_bend_c, 13, 11312
6, 73375, Pitch_bend_c, 13, 11182
6, 73377, Pitch_bend_c, 13, 11052
6, 73377, Pitch_bend_c, 13, 10922
6, 73379, Pitch_bend_c, 13, 10662
6, 73379, Pitch_bend_c, 13, 10532
6, 73380, Pitch_bend_c, 13, 10272
6, 73382, Pitch_bend_c, 13, 10012
6, 73384, Pitch_bend_c, 13, 9752
6, 73384, Pitch_bend_c, 13, 9492
6, 73386, Pitch_bend_c, 13, 9232
6, 73386, Pitch_bend_c, 13, 8842
6, 73388, Pitch_bend_c, 13, 8452
6, 73390, Pitch_bend_c, 13, 8192
6, 73401, Note_on_c, 13, 57, 64
6, 73428, Pitch_bend_c, 13, 8452
6, 73430, Pitch_bend_c, 13, 8712
6, 73430, Pitch_bend_c, 13, 8972
6, 73432, Pitch_bend_c, 13, 9232
6, 73434, Pitch_bend_c, 13, 9492
6, 73434, Pitch_bend_c, 13, 9752
6, 73436, Pitch_bend_c, 13, 10012
6, 73438, Pitch_bend_c, 13, 10402
6, 73438, Pitch_bend_c, 13, 10792
6, 73440, Pitch_bend_c, 13, 11312
6, 73440, Pitch_bend_c, 13, 11702
6, 73441, Pitch_bend_c, 13, 12222
6, 73443, Pitch_bend_c, 13, 12612
6, 73443, Pitch_bend_c, 13, 13002
6, 73445, Pitch_bend_c, 13, 13392
6, 73447, Pitch_bend_c, 13, 13652
6, 73449, Pitch_bend_c, 13, 13782
6, 73449, Pitch_bend_c, 13, 14042
6, 73451, Pitch_bend_c, 13, 14172
6, 73458, Pitch_bend_c, 13, 14042
6, 73460, Pitch_bend_c, 13, 13912
6, 73462, Note_on_c, 13, 57, 0
6, 73462, Pitch_bend_c, 13, 13652
6, 73462, Pitch_bend_c, 13, 13392
6, 73464, Pitch_bend_c, 13, 13262
6, 73466, Pitch_bend_c, 13, 13132
6, 73466, Pitch_bend_c, 13, 12872
6, 73468, Pitch_bend_c, 13, 12742
6, 73468, Pitch_bend_c, 13, 12482
6, 73470, Pitch_bend_c, 13, 12222
6, 73472, Pitch_bend_c, 13, 11962
6, 73474, Pitch_bend_c, 13, 11572
6, 73474, Pitch_bend_c, 13, 11182
6, 73476, Pitch_bend_c, 13, 10662
6, 73477, Pitch_bend_c, 13, 9882
6, 73477, Note_on_c, 13, 54, 73
6, 73480, Pitch_bend_c, 13, 8972
6, 73480, Pitch_bend_c, 13, 8192
6, 73509, Note_on_c, 13, 54, 0
6, 73555, Note_on_c, 13, 54, 56
6, 73573, Pitch_bend_c, 13, 8452
6, 73573, Pitch_bend_c, 13, 8712
6, 73575, Pitch_bend_c, 13, 8972
6, 73577, Pitch_bend_c, 13, 9232
6, 73579, Pitch_bend_c, 13, 9492
6, 73579, Pitch_bend_c, 13, 9622
6, 73579, Pitch_bend_c, 13, 9882
6, 73583, Pitch_bend_c, 13, 10012
6, 73583, Pitch_bend_c, 13, 10142
6, 73590, Pitch_bend_c, 13, 10012
6, 73593, Pitch_bend_c, 13, 9752
6, 73594, Pitch_bend_c, 13, 9622
6, 73594, Pitch_bend_c, 13, 9492
6, 73596, Pitch_bend_c, 13, 9362
6, 73598, Pitch_bend_c, 13, 9232
6, 73598, Pitch_bend_c, 13, 8972
6, 73600, Pitch_bend_c, 13, 8582
6, 73602, Pitch_bend_c, 13, 8452
6, 73604, Pitch_bend_c, 13, 8192
6, 73617, Pitch_bend_c, 13, 8322
6, 73619, Pitch_bend_c, 13, 8582
6, 73619, Pitch_bend_c, 13, 8712
6, 73620, Pitch_bend_c, 13, 8842
6, 73622, Pitch_bend_c, 13, 9102
6, 73622, Pitch_bend_c, 13, 9232
6, 73624, Pitch_bend_c, 13, 9362
6, 73626, Pitch_bend_c, 13, 9492
6, 73626, Pitch_bend_c, 13, 9622
6, 73630, Pitch_bend_c, 13, 9882
6, 73630, Pitch_bend_c, 13, 10012
6, 73632, Pitch_bend_c, 13, 10142
6, 73634, Pitch_bend_c, 13, 10272
6, 73634, Pitch_bend_c, 13, 10402
6, 73636, Pitch_bend_c, 13, 10532
6, 73639, Pitch_bend_c, 13, 10662
6, 73659, Pitch_bend_c, 13, 10792
6, 73659, Pitch_bend_c, 13, 10922
6, 73661, Pitch_bend_c, 13, 11052
6, 73663, Pitch_bend_c, 13, 11312
6, 73665, Pitch_bend_c, 13, 11572
6, 73665, Pitch_bend_c, 13, 11702
6, 73667, Pitch_bend_c, 13, 11962
6, 73669, Pitch_bend_c, 13, 12352
6, 73669, Pitch_bend_c, 13, 12612
6, 73671, Pitch_bend_c, 13, 12872
6, 73673, Pitch_bend_c, 13, 13002
6, 73673, Pitch_bend_c, 13, 13262
6, 73675, Pitch_bend_c, 13, 13392
6, 73677, Pitch_bend_c, 13, 13522
6, 73682, Pitch_bend_c, 13, 13392
6, 73684, Pitch_bend_c, 13, 13132
6, 73686, Pitch_bend_c, 13, 12872
6, 73686, Pitch_bend_c, 13, 12612
6, 73688, Pitch_bend_c, 13, 12222
6, 73690, Pitch_bend_c, 13, 11702
6, 73690, Pitch_bend_c, 13, 11182
6, 73692, Pitch_bend_c, 13, 10662
6, 73693, Pitch_bend_c, 13, 10142
6, 73695, Pitch_bend_c, 13, 9622
6, 73695, Pitch_bend_c, 13, 9102
6, 73697, Pitch_bend_c, 13, 8582
6, 73697, Pitch_bend_c, 13, 8192
6, 73727, Note_on_c, 13, 49, 32
6, 73732, Note_on_c, 13, 54, 0
6, 73759, Note_on_c, 13, 49, 0
6, 73764, Note_on_c, 13, 51, 60
6, 73791, Note_on_c, 13, 51, 0
6, 73800, Note_on_c, 13, 54, 91
6, 73831, Note_on_c, 13, 56, 52
6, 73842, Note_on_c, 13, 54, 0
6, 73864, Note_on_c, 13, 56, 0
6, 73873, Note_on_c, 13, 54, 48
6, 73900, Note_on_c, 13, 54, 0
6, 73916, Note_on_c, 13, 57, 91
6, 73954, Note_on_c, 13, 57, 0
6, 73958, Note_on_c, 13, 54, 64
6, 73963, Note_on_c, 13, 55, 48
6, 73971, Note_on_c, 13, 54, 0
6, 73972, Note_on_c, 13, 55, 0
6, 73994, Note_on_c, 13, 59, 64
6, 74028, Note_on_c, 13, 59, 0
6, 74036, Note_on_c, 13, 54, 48
6, 74068, Note_on_c, 13, 54, 0
6, 74079, Note_on_c, 13, 59, 82
6, 74096, Pitch_bend_c, 13, 8322
6, 74096, Pitch_bend_c, 13, 8712
6, 74098, Pitch_bend_c, 13, 9102
6, 74100, Pitch_bend_c, 13, 9362
6, 74100, Pitch_bend_c, 13, 9752
6, 74101, Pitch_bend_c, 13, 10142
6, 74103, Pitch_bend_c, 13, 10532
6, 74103, Pitch_bend_c, 13, 11052
6, 74105, Pitch_bend_c, 13, 11442
6, 74107, Pitch_bend_c, 13, 11962
6, 74107, Pitch_bend_c, 13, 12352
6, 74109, Pitch_bend_c, 13, 12742
6, 74111, Pitch_bend_c, 13, 13002
6, 74111, Pitch_bend_c, 13, 13262
6, 74113, Pitch_bend_c, 13, 13522
6, 74113, Pitch_bend_c, 13, 13652
6, 74117, Pitch_bend_c, 13, 13782
6, 74120, Note_on_c, 13, 59, 0
6, 74120, Pitch_bend_c, 13, 13522
6, 74122, Pitch_bend_c, 13, 13392
6, 74124, Pitch_bend_c, 13, 13132
6, 74124, Pitch_bend_c, 13, 12872
6, 74126, Pitch_bend_c, 13, 12612
6, 74128, Pitch_bend_c, 13, 12092
6, 74128, Pitch_bend_c, 13, 11702
6, 74130, Pitch_bend_c, 13, 11182
6, 74132, Pitch_bend_c, 13, 10792
6, 74132, Pitch_bend_c, 13, 10402
6, 74134, Pitch_bend_c, 13, 10012
6, 74136, Pitch_bend_c, 13, 9622
6, 74138, Pitch_bend_c, 13, 9362
6, 74138, Pitch_bend_c, 13, 9102
6, 74140, Pitch_bend_c, 13, 8842
6, 74141, Pitch_bend_c, 13, 8582
6, 74141, Pitch_bend_c, 13, 8322
6, 74144, Pitch_bend_c, 13, 8192
6, 74165, Note_on_c, 13, 57, 82
6, 74178, Pitch_bend_c, 13, 8452
6, 74180, Pitch_bend_c, 13, 8582
6, 74180, Pitch_bend_c, 13, 8712
6, 74182, Pitch_bend_c, 13, 8842
6, 74184, Pitch_bend_c, 13, 8972
6, 74185, Pitch_bend_c, 13, 9102
6, 74195, Pitch_bend_c, 13, 8972
6, 74196, Pitch_bend_c, 13, 8842
6, 74198, Pitch_bend_c, 13, 8712
6, 74198, Pitch_bend_c, 13, 8582
6, 74200, Pitch_bend_c, 13, 8452
6, 74202, Pitch_bend_c, 13, 8322
6, 74204, Pitch_bend_c, 13, 8192
6, 74233, Note_on_c, 13, 57, 0
6, 74238, Note_on_c, 13, 54, 60
6, 74249, Pitch_bend_c, 13, 8322
6, 74249, Pitch_bend_c, 13, 8582
6, 74251, Pitch_bend_c, 13, 8712
6, 74253, Pitch_bend_c, 13, 8842
6, 74260, Pitch_bend_c, 13, 8712
6, 74262, Pitch_bend_c, 13, 8582
6, 74262, Pitch_bend_c, 13, 8452
6, 74264, Pitch_bend_c, 13, 8322
6, 74271, Note_on_c, 13, 59, 64
6, 74275, Note_on_c, 13, 54, 0
6, 74275, Pitch_bend_c, 13, 8192
6, 74301, Note_on_c, 13, 57, 56
6, 74303, Note_on_c, 13, 59, 0
6, 74335, Note_on_c, 13, 57, 0
6, 74350, Note_on_c, 13, 59, 64
6, 74369, Note_on_c, 13, 59, 0
6, 74388, Note_on_c, 13, 61, 82
6, 74400, Pitch_bend_c, 13, 8452
6, 74400, Pitch_bend_c, 13, 8842
6, 74402, Pitch_bend_c, 13, 9102
6, 74404, Pitch_bend_c, 13, 9492
6, 74404, Pitch_bend_c, 13, 9752
6, 74406, Pitch_bend_c, 13, 10142
6, 74408, Pitch_bend_c, 13, 10402
6, 74410, Pitch_bend_c, 13, 10532
6, 74410, Pitch_bend_c, 13, 10792
6, 74412, Pitch_bend_c, 13, 10922
6, 74415, Pitch_bend_c, 13, 10792
6, 74417, Pitch_bend_c, 13, 10532
6, 74419, Pitch_bend_c, 13, 10272
6, 74419, Pitch_bend_c, 13, 10012
6, 74421, Pitch_bend_c, 13, 9622
6, 74423, Pitch_bend_c, 13, 9232
6, 74423, Pitch_bend_c, 13, 8842
6, 74425, Pitch_bend_c, 13, 8322
6, 74427, Pitch_bend_c, 13, 8192
6, 74439, Pitch_bend_c, 13, 8452
6, 74441, Pitch_bend_c, 13, 8842
6, 74441, Pitch_bend_c, 13, 9232
6, 74443, Pitch_bend_c, 13, 9752
6, 74445, Pitch_bend_c, 13, 10272
6, 74445, Pitch_bend_c, 13, 10792
6, 74447, Pitch_bend_c, 13, 11312
6, 74449, Pitch_bend_c, 13, 11832
6, 74449, Pitch_bend_c, 13, 12352
6, 74451, Pitch_bend_c, 13, 12612
6, 74453, Pitch_bend_c, 13, 13002
6, 74453, Pitch_bend_c, 13, 13132
6, 74455, Pitch_bend_c, 13, 13262
6, 74459, Pitch_bend_c, 13, 13132
6, 74460, Pitch_bend_c, 13, 12482
6, 74462, Pitch_bend_c, 13, 11572
6, 74462, Pitch_bend_c, 13, 10142
6, 74464, Pitch_bend_c, 13, 8192
6, 74475, Note_on_c, 13, 61, 0
6, 74769, Note_on_c, 13, 61, 91
6, 74778, Pitch_bend_c, 13, 8322
6, 74778, Pitch_bend_c, 13, 8452
6, 74780, Pitch_bend_c, 13, 8582
6, 74782, Pitch_bend_c, 13, 8712
6, 74782, Pitch_bend_c, 13, 8842
6, 74784, Pitch_bend_c, 13, 8972
6, 74785, Pitch_bend_c, 13, 9102
6, 74787, Pitch_bend_c, 13, 9362
6, 74789, Pitch_bend_c, 13, 9492
6, 74791, Pitch_bend_c, 13, 9622
6, 74791, Pitch_bend_c, 13, 9882
6, 74793, Pitch_bend_c, 13, 10012
6, 74795, Pitch_bend_c, 13, 10402
6, 74795, Pitch_bend_c, 13, 10662
6, 74797, Pitch_bend_c, 13, 11052
6, 74797, Pitch_bend_c, 13, 11442
6, 74799, Pitch_bend_c, 13, 11962
6, 74801, Pitch_bend_c, 13, 12482
6, 74803, Pitch_bend_c, 13, 13002
6, 74803, Pitch_bend_c, 13, 13392
6, 74805, Pitch_bend_c, 13, 13782
6, 74807, Pitch_bend_c, 13, 14302
6, 74807, Pitch_bend_c, 13, 14822
6, 74808, Pitch_bend_c, 13, 15342
6, 74810, Note_on_c, 13, 61, 0
6, 74810, Pitch_bend_c, 13, 15732
6, 74810, Pitch_bend_c, 13, 16252
6, 74812, Pitch_bend_c, 13, 16382
6, 74842, Pitch_bend_c, 13, 16122
6, 74843, Pitch_bend_c, 13, 14432
6, 74843, Pitch_bend_c, 13, 12352
6, 74845, Pitch_bend_c, 13, 9752
6, 74845, Pitch_bend_c, 13, 8192
6, 74849, Note_on_c, 13, 71, 64
6, 74853, Note_on_c, 13, 69, 64
6, 74860, Note_on_c, 13, 69, 0
6, 74961, Pitch_bend_c, 13, 8322
6, 74961, Pitch_bend_c, 13, 8582
6, 74961, Pitch_bend_c, 13, 8972
6, 74963, Pitch_bend_c, 13, 9362
6, 74965, Pitch_bend_c, 13, 9622
6, 74967, Pitch_bend_c, 13, 9882
6, 74967, Pitch_bend_c, 13, 10142
6, 74969, Pitch_bend_c, 13, 10272
6, 74974, Pitch_bend_c, 13, 10012
6, 74974, Pitch_bend_c, 13, 9622
6, 74976, Pitch_bend_c, 13, 9232
6, 74978, Pitch_bend_c, 13, 8712
6, 74978, Pitch_bend_c, 13, 8192
6, 74996, Pitch_bend_c, 13, 8322
6, 74998, Pitch_bend_c, 13, 8972
6, 75000, Pitch_bend_c, 13, 9492
6, 75000, Pitch_bend_c, 13, 10012
6, 75002, Pitch_bend_c, 13, 10532
6, 75004, Pitch_bend_c, 13, 10922
6, 75004, Pitch_bend_c, 13, 11182
6, 75006, Pitch_bend_c, 13, 11442
6, 75008, Pitch_bend_c, 13, 11572
6, 75013, Pitch_bend_c, 13, 11442
6, 75013, Pitch_bend_c, 13, 11312
6, 75015, Pitch_bend_c, 13, 11052
6, 75017, Pitch_bend_c, 13, 10792
6, 75017, Pitch_bend_c, 13, 10402
6, 75019, Pitch_bend_c, 13, 10012
6, 75021, Pitch_bend_c, 13, 9752
6, 75021, Pitch_bend_c, 13, 9362
6, 75023, Pitch_bend_c, 13, 9102
6, 75025, Pitch_bend_c, 13, 8712
6, 75025, Pitch_bend_c, 13, 8452
6, 75027, Pitch_bend_c, 13, 8322
6, 75032, Pitch_bend_c, 13, 8452
6, 75034, Pitch_bend_c, 13, 8712
6, 75034, Pitch_bend_c, 13, 8842
6, 75036, Pitch_bend_c, 13, 9102
6, 75038, Pitch_bend_c, 13, 9492
6, 75038, Pitch_bend_c, 13, 9752
6, 75040, Pitch_bend_c, 13, 10012
6, 75042, Pitch_bend_c, 13, 10402
6, 75042, Pitch_bend_c, 13, 10662
6, 75044, Pitch_bend_c, 13, 10792
6, 75046, Pitch_bend_c, 13, 10922
6, 75051, Pitch_bend_c, 13, 10662
6, 75053, Pitch_bend_c, 13, 10532
6, 75055, Pitch_bend_c, 13, 10142
6, 75055, Pitch_bend_c, 13, 9752
6, 75057, Pitch_bend_c, 13, 9492
6, 75059, Pitch_bend_c, 13, 9102
6, 75059, Pitch_bend_c, 13, 8712
6, 75060, Pitch_bend_c, 13, 8322
6, 75062, Pitch_bend_c, 13, 8192
6, 75072, Pitch_bend_c, 13, 8452
6, 75073, Pitch_bend_c, 13, 8712
6, 75073, Pitch_bend_c, 13, 8972
6, 75075, Pitch_bend_c, 13, 9362
6, 75077, Pitch_bend_c, 13, 9622
6, 75077, Pitch_bend_c, 13, 10012
6, 75079, Pitch_bend_c, 13, 10402
6, 75079, Pitch_bend_c, 13, 10662
6, 75081, Pitch_bend_c, 13, 10922
6, 75083, Pitch_bend_c, 13, 11182
6, 75085, Pitch_bend_c, 13, 11442
6, 75085, Pitch_bend_c, 13, 11572
6, 75089, Pitch_bend_c, 13, 11702
6, 75093, Pitch_bend_c, 13, 11572
6, 75095, Pitch_bend_c, 13, 11312
6, 75096, Pitch_bend_c, 13, 11182
6, 75096, Pitch_bend_c, 13, 10922
6, 75098, Pitch_bend_c, 13, 10662
6, 75098, Pitch_bend_c, 13, 10402
6, 75100, Pitch_bend_c, 13, 10012
6, 75102, Pitch_bend_c, 13, 9622
6, 75102, Pitch_bend_c, 13, 9232
6, 75104, Pitch_bend_c, 13, 8712
6, 75106, Pitch_bend_c, 13, 8192
6, 75122, Pitch_bend_c, 13, 8322
6, 75124, Pitch_bend_c, 13, 8582
6, 75124, Pitch_bend_c, 13, 8972
6, 75126, Pitch_bend_c, 13, 9362
6, 75128, Pitch_bend_c, 13, 9752
6, 75128, Pitch_bend_c, 13, 10142
6, 75130, Pitch_bend_c, 13, 10792
6, 75132, Pitch_bend_c, 13, 11312
6, 75132, Pitch_bend_c, 13, 11702
6, 75134, Pitch_bend_c, 13, 12092
6, 75136, Pitch_bend_c, 13, 12482
6, 75136, Pitch_bend_c, 13, 12742
6, 75138, Pitch_bend_c, 13, 12872
6, 75143, Pitch_bend_c, 13, 12742
6, 75143, Pitch_bend_c, 13, 12482
6, 75145, Pitch_bend_c, 13, 12092
6, 75147, Pitch_bend_c, 13, 11572
6, 75147, Pitch_bend_c, 13, 10922
6, 75149, Pitch_bend_c, 13, 10272
6, 75151, Pitch_bend_c, 13, 9622
6, 75151, Pitch_bend_c, 13, 8452
6, 75153, Pitch_bend_c, 13, 8192
6, 75192, Pitch_bend_c, 13, 8322
6, 75202, Note_on_c, 13, 66, 48
6, 75204, Pitch_bend_c, 13, 8192
6, 75218, Note_on_c, 13, 66, 0
6, 75220, Note_on_c, 13, 71, 0
6, 75238, Note_on_c, 13, 69, 64
6, 75254, Pitch_bend_c, 13, 8452
6, 75254, Pitch_bend_c, 13, 8712
6, 75256, Pitch_bend_c, 13, 8972
6, 75258, Pitch_bend_c, 13, 9232
6, 75259, Pitch_bend_c, 13, 9492
6, 75260, Pitch_bend_c, 13, 9752
6, 75260, Pitch_bend_c, 13, 10012
6, 75262, Pitch_bend_c, 13, 10272
6, 75264, Pitch_bend_c, 13, 10532
6, 75266, Pitch_bend_c, 13, 10662
6, 75266, Pitch_bend_c, 13, 10792
6, 75268, Pitch_bend_c, 13, 10922
6, 75270, Pitch_bend_c, 13, 11052
6, 75275, Pitch_bend_c, 13, 10922
6, 75275, Pitch_bend_c, 13, 10662
6, 75277, Pitch_bend_c, 13, 10272
6, 75279, Pitch_bend_c, 13, 9882
6, 75279, Pitch_bend_c, 13, 9492
6, 75281, Pitch_bend_c, 13, 9102
6, 75283, Pitch_bend_c, 13, 8452
6, 75283, Pitch_bend_c, 13, 8192
6, 75310, Pitch_bend_c, 13, 8322
6, 75312, Pitch_bend_c, 13, 8712
6, 75314, Pitch_bend_c, 13, 8972
6, 75316, Pitch_bend_c, 13, 9362
6, 75316, Pitch_bend_c, 13, 9622
6, 75318, Pitch_bend_c, 13, 9882
6, 75320, Pitch_bend_c, 13, 10012
6, 75320, Pitch_bend_c, 13, 10142
6, 75325, Note_on_c, 13, 66, 64
6, 75327, Note_on_c, 13, 69, 0
6, 75329, Pitch_bend_c, 13, 10012
6, 75331, Pitch_bend_c, 13, 9882
6, 75333, Pitch_bend_c, 13, 9752
6, 75333, Pitch_bend_c, 13, 9492
6, 75335, Pitch_bend_c, 13, 9232
6, 75336, Pitch_bend_c, 13, 8972
6, 75336, Pitch_bend_c, 13, 8582
6, 75338, Pitch_bend_c, 13, 8192
6, 75364, Note_on_c, 13, 66, 0
6, 75578, Note_on_c, 13, 66, 32
6, 75591, Note_on_c, 13, 66, 0
6, 75609, Note_on_c, 13, 76, 73
6, 75622, Pitch_bend_c, 13, 8712
6, 75622, Pitch_bend_c, 13, 9492
6, 75624, Pitch_bend_c, 13, 10272
6, 75625, Pitch_bend_c, 13, 10922
6, 75627, Pitch_bend_c, 13, 11832
6, 75628, Pitch_bend_c, 13, 12482
6, 75629, Pitch_bend_c, 13, 13132
6, 75631, Pitch_bend_c, 13, 13782
6, 75631, Pitch_bend_c, 13, 14302
6, 75633, Pitch_bend_c, 13, 14822
6, 75635, Pitch_bend_c, 13, 15342
6, 75635, Pitch_bend_c, 13, 15732
6, 75637, Pitch_bend_c, 13, 16122
6, 75639, Pitch_bend_c, 13, 16382
6, 75643, Note_on_c, 13, 76, 0
6, 75659, Pitch_bend_c, 13, 16252
6, 75661, Pitch_bend_c, 13, 15862
6, 75661, Pitch_bend_c, 13, 15472
6, 75663, Pitch_bend_c, 13, 14952
6, 75664, Pitch_bend_c, 13, 14432
6, 75666, Pitch_bend_c, 13, 13782
6, 75666, Pitch_bend_c, 13, 13002
6, 75668, Pitch_bend_c, 13, 12092
6, 75668, Pitch_bend_c, 13, 11052
6, 75671, Pitch_bend_c, 13, 10012
6, 75672, Pitch_bend_c, 13, 8842
6, 75674, Pitch_bend_c, 13, 8192
6, 75685, Note_on_c, 13, 76, 91
6, 75696, Pitch_bend_c, 13, 8582
6, 75696, Pitch_bend_c, 13, 9362
6, 75698, Pitch_bend_c, 13, 10142
6, 75698, Pitch_bend_c, 13, 11182
6, 75700, Pitch_bend_c, 13, 11962
6, 75702, Pitch_bend_c, 13, 12872
6, 75702, Pitch_bend_c, 13, 13652
6, 75704, Pitch_bend_c, 13, 14302
6, 75706, Pitch_bend_c, 13, 14952
6, 75706, Pitch_bend_c, 13, 15472
6, 75708, Pitch_bend_c, 13, 15862
6, 75709, Pitch_bend_c, 13, 16382
6, 75952, Pitch_bend_c, 13, 16252
6, 75960, Pitch_bend_c, 13, 16122
6, 75967, Pitch_bend_c, 13, 15992
6, 75974, Pitch_bend_c, 13, 15862
6, 75982, Pitch_bend_c, 13, 15732
6, 75987, Pitch_bend_c, 13, 15602
6, 75996, Pitch_bend_c, 13, 15472
6, 76009, Pitch_bend_c, 13, 15342
6, 76014, Pitch_bend_c, 13, 15212
6, 76018, Pitch_bend_c, 13, 15082
6, 76022, Pitch_bend_c, 13, 14952
6, 76027, Pitch_bend_c, 13, 14822
6, 76076, Pitch_bend_c, 13, 14692
6, 76081, Pitch_bend_c, 13, 14562
6, 76083, Pitch_bend_c, 13, 14432
6, 76087, Pitch_bend_c, 13, 14302
6, 76087, Pitch_bend_c, 13, 14172
6, 76089, Pitch_bend_c, 13, 14042
6, 76091, Pitch_bend_c, 13, 13782
6, 76091, Pitch_bend_c, 13, 13652
6, 76093, Pitch_bend_c, 13, 13392
6, 76095, Pitch_bend_c, 13, 13132
6, 76095, Pitch_bend_c, 13, 12872
6, 76097, Pitch_bend_c, 13, 12612
6, 76099, Pitch_bend_c, 13, 12352
6, 76099, Pitch_bend_c, 13, 12092
6, 76101, Pitch_bend_c, 13, 11832
6, 76103, Pitch_bend_c, 13, 11572
6, 76104, Pitch_bend_c, 13, 11312
6, 76104, Pitch_bend_c, 13, 11052
6, 76106, Pitch_bend_c, 13, 10792
6, 76106, Pitch_bend_c, 13, 10532
6, 76108, Pitch_bend_c, 13, 10402
6, 76110, Pitch_bend_c, 13, 10142
6, 76112, Pitch_bend_c, 13, 9882
6, 76112, Pitch_bend_c, 13, 9622
6, 76114, Pitch_bend_c, 13, 9362
6, 76114, Pitch_bend_c, 13, 9102
6, 76116, Pitch_bend_c, 13, 8712
6, 76118, Pitch_bend_c, 13, 8322
6, 76120, Pitch_bend_c, 13, 8192
6, 76129, Note_on_c, 13, 73, 48
6, 76147, Note_on_c, 13, 76, 0
6, 76165, Note_on_c, 13, 71, 60
6, 76169, Note_on_c, 13, 73, 0
6, 76194, Note_on_c, 13, 71, 0
6, 76209, Note_on_c, 13, 69, 73
6, 76250, Note_on_c, 13, 71, 60
6, 76259, Note_on_c, 13, 69, 0
6, 76264, Note_on_c, 13, 71, 0
6, 76279, Note_on_c, 13, 71, 73
6, 76308, Pitch_bend_c, 13, 8322
6, 76310, Pitch_bend_c, 13, 8712
6, 76312, Pitch_bend_c, 13, 9232
6, 76313, Pitch_bend_c, 13, 9622
6, 76313, Pitch_bend_c, 13, 10142
6, 76316, Pitch_bend_c, 13, 10532
6, 76318, Pitch_bend_c, 13, 10922
6, 76318, Pitch_bend_c, 13, 11312
6, 76320, Pitch_bend_c, 13, 11702
6, 76321, Pitch_bend_c, 13, 11962
6, 76321, Pitch_bend_c, 13, 12092
6, 76323, Pitch_bend_c, 13, 12222
6, 76327, Pitch_bend_c, 13, 12092
6, 76329, Pitch_bend_c, 13, 11832
6, 76331, Pitch_bend_c, 13, 11572
6, 76331, Pitch_bend_c, 13, 11182
6, 76332, Pitch_bend_c, 13, 10662
6, 76334, Pitch_bend_c, 13, 10142
6, 76334, Pitch_bend_c, 13, 9622
6, 76336, Pitch_bend_c, 13, 8972
6, 76338, Pitch_bend_c, 13, 8192
6, 76342, Note_on_c, 13, 71, 0
6, 76360, Note_on_c, 13, 69, 26
6, 76382, Note_on_c, 13, 69, 0
6, 76391, Note_on_c, 13, 66, 48
6, 76415, Note_on_c, 13, 66, 0
6, 76425, Note_on_c, 13, 69, 64
6, 76461, Note_on_c, 13, 69, 0
6, 76508, Note_on_c, 13, 66, 64
6, 76532, Pitch_bend_c, 13, 8322
6, 76532, Pitch_bend_c, 13, 8582
6, 76534, Pitch_bend_c, 13, 8842
6, 76536, Pitch_bend_c, 13, 9102
6, 76536, Pitch_bend_c, 13, 9362
6, 76537, Pitch_bend_c, 13, 9622
6, 76537, Pitch_bend_c, 13, 9882
6, 76539, Pitch_bend_c, 13, 10142
6, 76541, Pitch_bend_c, 13, 10532
6, 76541, Pitch_bend_c, 13, 10792
6, 76543, Pitch_bend_c, 13, 11182
6, 76545, Pitch_bend_c, 13, 11442
6, 76547, Pitch_bend_c, 13, 11832
6, 76547, Pitch_bend_c, 13, 12092
6, 76549, Pitch_bend_c, 13, 12222
6, 76553, Pitch_bend_c, 13, 11962
6, 76555, Pitch_bend_c, 13, 11572
6, 76557, Pitch_bend_c, 13, 10922
6, 76559, Pitch_bend_c, 13, 10272
6, 76559, Pitch_bend_c, 13, 9492
6, 76560, Pitch_bend_c, 13, 8452
6, 76560, Pitch_bend_c, 13, 8192
6, 76579, Pitch_bend_c, 13, 8322
6, 76579, Pitch_bend_c, 13, 8712
6, 76581, Pitch_bend_c, 13, 9232
6, 76583, Pitch_bend_c, 13, 9622
6, 76583, Pitch_bend_c, 13, 10142
6, 76584, Pitch_bend_c, 13, 10662
6, 76586, Pitch_bend_c, 13, 11052
6, 76586, Pitch_bend_c, 13, 11442
6, 76588, Pitch_bend_c, 13, 11832
6, 76590, Pitch_bend_c, 13, 12092
6, 76590, Pitch_bend_c, 13, 12482
6, 76592, Pitch_bend_c, 13, 12742
6, 76594, Pitch_bend_c, 13, 13132
6, 76594, Pitch_bend_c, 13, 13522
6, 76596, Pitch_bend_c, 13, 13782
6, 76598, Pitch_bend_c, 13, 14302
6, 76598, Pitch_bend_c, 13, 14692
6, 76600, Pitch_bend_c, 13, 14952
6, 76600, Pitch_bend_c, 13, 15342
6, 76602, Pitch_bend_c, 13, 15602
6, 76604, Pitch_bend_c, 13, 15862
6, 76606, Pitch_bend_c, 13, 15992
6, 76606, Pitch_bend_c, 13, 16122
6, 76613, Pitch_bend_c, 13, 15992
6, 76613, Pitch_bend_c, 13, 15862
6, 76615, Pitch_bend_c, 13, 15472
6, 76617, Pitch_bend_c, 13, 14692
6, 76619, Pitch_bend_c, 13, 13132
6, 76619, Pitch_bend_c, 13, 10792
6, 76620, Pitch_bend_c, 13, 8192
6, 76622, Note_on_c, 13, 66, 0
6, 76622, Pitch_bend_c, 13, 7808
6, 76624, Pitch_bend_c, 13, 8192
6, 76731, Note_on_c, 13, 61, 40
6, 76751, Note_on_c, 13, 61, 0
6, 76754, Note_on_c, 13, 63, 48
6, 76765, Note_on_c, 13, 66, 64
6, 76778, Note_on_c, 13, 68, 52
6, 76784, Note_on_c, 13, 63, 0
6, 76796, Note_on_c, 13, 69, 100
6, 76801, Note_on_c, 13, 66, 0
6, 76803, Note_on_c, 13, 68, 0
6, 76845, Note_on_c, 13, 68, 64
6, 76847, Note_on_c, 13, 69, 0
6, 76872, Note_on_c, 13, 68, 0
6, 76910, Note_on_c, 13, 66, 82
6, 76921, Pitch_bend_c, 13, 8322
6, 76923, Pitch_bend_c, 13, 8452
6, 76925, Pitch_bend_c, 13, 8582
6, 76925, Pitch_bend_c, 13, 8842
6, 76927, Pitch_bend_c, 13, 8972
6, 76929, Pitch_bend_c, 13, 9232
6, 76929, Pitch_bend_c, 13, 9362
6, 76931, Pitch_bend_c, 13, 9492
6, 76932, Pitch_bend_c, 13, 9752
6, 76932, Pitch_bend_c, 13, 9882
6, 76934, Pitch_bend_c, 13, 10012
6, 76936, Pitch_bend_c, 13, 10142
6, 76938, Pitch_bend_c, 13, 10402
6, 76942, Note_on_c, 13, 66, 0
6, 76947, Pitch_bend_c, 13, 10142
6, 76949, Pitch_bend_c, 13, 9882
6, 76951, Pitch_bend_c, 13, 9622
6, 76951, Pitch_bend_c, 13, 9232
6, 76953, Pitch_bend_c, 13, 8582
6, 76955, Pitch_bend_c, 13, 8192
6, 76955, Note_on_c, 13, 61, 36
6, 76973, Note_on_c, 13, 61, 0
6, 77000, Note_on_c, 13, 64, 64
6, 77034, Pitch_bend_c, 13, 8322
6, 77036, Pitch_bend_c, 13, 8452
6, 77039, Note_on_c, 13, 64, 0
6, 77039, Pitch_bend_c, 13, 8582
6, 77040, Pitch_bend_c, 13, 8842
6, 77040, Pitch_bend_c, 13, 9102
6, 77042, Pitch_bend_c, 13, 9362
6, 77044, Pitch_bend_c, 13, 9492
6, 77044, Pitch_bend_c, 13, 9622
6, 77046, Pitch_bend_c, 13, 9752
6, 77050, Pitch_bend_c, 13, 9882
6, 77055, Pitch_bend_c, 13, 9752
6, 77057, Pitch_bend_c, 13, 9622
6, 77059, Pitch_bend_c, 13, 9362
6, 77061, Pitch_bend_c, 13, 9102
6, 77061, Pitch_bend_c, 13, 8712
6, 77063, Pitch_bend_c, 13, 8452
6, 77065, Pitch_bend_c, 13, 8192
6, 77072, Note_on_c, 13, 63, 64
6, 77099, Pitch_bend_c, 13, 8452
6, 77101, Pitch_bend_c, 13, 8582
6, 77103, Pitch_bend_c, 13, 8842
6, 77105, Pitch_bend_c, 13, 9102
6, 77107, Note_on_c, 13, 63, 0
6, 77107, Pitch_bend_c, 13, 9362
6, 77107, Pitch_bend_c, 13, 9492
6, 77107, Pitch_bend_c, 13, 9622
6, 77109, Pitch_bend_c, 13, 9752
6, 77111, Pitch_bend_c, 13, 9882
6, 77112, Pitch_bend_c, 13, 10012
6, 77114, Pitch_bend_c, 13, 10142
6, 77120, Pitch_bend_c, 13, 10012
6, 77124, Pitch_bend_c, 13, 9882
6, 77125, Pitch_bend_c, 13, 9752
6, 77125, Pitch_bend_c, 13, 9492
6, 77127, Pitch_bend_c, 13, 9232
6, 77129, Pitch_bend_c, 13, 8972
6, 77129, Pitch_bend_c, 13, 8452
6, 77131, Pitch_bend_c, 13, 8192
6, 77155, Note_on_c, 13, 61, 73
6, 77159, Pitch_bend_c, 13, 8322
6, 77159, Pitch_bend_c, 13, 8712
6, 77160, Pitch_bend_c, 13, 8972
6, 77162, Pitch_bend_c, 13, 9362
6, 77164, Pitch_bend_c, 13, 9622
6, 77164, Pitch_bend_c, 13, 9882
6, 77166, Pitch_bend_c, 13, 10012
6, 77168, Pitch_bend_c, 13, 10142
6, 77170, Pitch_bend_c, 13, 10012
6, 77172, Pitch_bend_c, 13, 9752
6, 77174, Pitch_bend_c, 13, 9492
6, 77175, Pitch_bend_c, 13, 9102
6, 77175, Pitch_bend_c, 13, 8712
6, 77178, Pitch_bend_c, 13, 8322
6, 77180, Pitch_bend_c, 13, 8192
6, 77197, Pitch_bend_c, 13, 8452
6, 77199, Pitch_bend_c, 13, 8842
6, 77201, Pitch_bend_c, 13, 9232
6, 77201, Pitch_bend_c, 13, 9752
6, 77203, Pitch_bend_c, 13, 10012
6, 77205, Pitch_bend_c, 13, 10272
6, 77205, Pitch_bend_c, 13, 10402
6, 77207, Pitch_bend_c, 13, 10532
6, 77211, Pitch_bend_c, 13, 10272
6, 77211, Pitch_bend_c, 13, 10012
6, 77213, Pitch_bend_c, 13, 9752
6, 77213, Pitch_bend_c, 13, 9232
6, 77215, Pitch_bend_c, 13, 8582
6, 77217, Pitch_bend_c, 13, 8192
6, 77238, Pitch_bend_c, 13, 8322
6, 77238, Pitch_bend_c, 13, 8712
6, 77240, Pitch_bend_c, 13, 9232
6, 77242, Pitch_bend_c, 13, 9752
6, 77244, Pitch_bend_c, 13, 10142
6, 77244, Pitch_bend_c, 13, 10402
6, 77246, Note_on_c, 13, 61, 0
6, 77246, Pitch_bend_c, 13, 10012
6, 77246, Pitch_bend_c, 13, 8712
6, 77248, Pitch_bend_c, 13, 8192
6, 77644, Note_on_c, 13, 61, 64
6, 77669, Pitch_bend_c, 13, 8452
6, 77669, Pitch_bend_c, 13, 8842
6, 77671, Pitch_bend_c, 13, 9232
6, 77673, Pitch_bend_c, 13, 9622
6, 77673, Pitch_bend_c, 13, 10012
6, 77675, Pitch_bend_c, 13, 10402
6, 77677, Pitch_bend_c, 13, 10662
6, 77685, Note_on_c, 13, 61, 0
6, 77685, Pitch_bend_c, 13, 10922
6, 77687, Pitch_bend_c, 13, 11312
6, 77688, Pitch_bend_c, 13, 11832
6, 77690, Pitch_bend_c, 13, 12222
6, 77690, Pitch_bend_c, 13, 12482
6, 77692, Pitch_bend_c, 13, 12742
6, 77694, Pitch_bend_c, 13, 13002
6, 77694, Pitch_bend_c, 13, 13132
6, 77696, Pitch_bend_c, 13, 13262
6, 77698, Pitch_bend_c, 13, 13392
6, 77698, Pitch_bend_c, 13, 13522
6, 77700, Pitch_bend_c, 13, 13652
6, 77703, Pitch_bend_c, 13, 13782
6, 77712, Pitch_bend_c, 13, 13652
6, 77714, Pitch_bend_c, 13, 13392
6, 77716, Pitch_bend_c, 13, 13132
6, 77718, Pitch_bend_c, 13, 12352
6, 77718, Pitch_bend_c, 13, 11052
6, 77720, Pitch_bend_c, 13, 9362
6, 77720, Pitch_bend_c, 13, 8192
6, 77726, Note_on_c, 13, 63, 60
6, 77776, Pitch_bend_c, 13, 8322
6, 77778, Pitch_bend_c, 13, 8582
6, 77780, Pitch_bend_c, 13, 8842
6, 77780, Pitch_bend_c, 13, 8972
6, 77782, Pitch_bend_c, 13, 9102
6, 77787, Pitch_bend_c, 13, 8842
6, 77789, Pitch_bend_c, 13, 8582
6, 77789, Pitch_bend_c, 13, 8322
6, 77791, Pitch_bend_c, 13, 8192
6, 77819, Pitch_bend_c, 13, 8322
6, 77820, Pitch_bend_c, 13, 8712
6, 77820, Pitch_bend_c, 13, 9102
6, 77822, Pitch_bend_c, 13, 9232
6, 77824, Pitch_bend_c, 13, 9362
6, 77830, Pitch_bend_c, 13, 9102
6, 77832, Pitch_bend_c, 13, 8842
6, 77833, Pitch_bend_c, 13, 8452
6, 77833, Pitch_bend_c, 13, 8192
6, 77866, Pitch_bend_c, 13, 8322
6, 77868, Pitch_bend_c, 13, 8582
6, 77868, Pitch_bend_c, 13, 8712
6, 77870, Pitch_bend_c, 13, 8842
6, 77872, Pitch_bend_c, 13, 8972
6, 77875, Note_on_c, 13, 63, 0
6, 77875, Note_on_c, 13, 59, 60
6, 77877, Pitch_bend_c, 13, 8842
6, 77880, Pitch_bend_c, 13, 8712
6, 77880, Pitch_bend_c, 13, 8452
6, 77881, Pitch_bend_c, 13, 8322
6, 77883, Pitch_bend_c, 13, 8192
6, 77921, Note_on_c, 13, 59, 0
6, 77957, Note_on_c, 13, 57, 64
6, 77997, Note_on_c, 13, 57, 0
6, 78013, Pitch_bend_c, 13, 8322
6, 78013, Pitch_bend_c, 13, 8582
6, 78015, Pitch_bend_c, 13, 8712
6, 78017, Pitch_bend_c, 13, 8972
6, 78017, Pitch_bend_c, 13, 9232
6, 78019, Pitch_bend_c, 13, 9362
6, 78021, Pitch_bend_c, 13, 9492
6, 78021, Pitch_bend_c, 13, 9622
6, 78023, Pitch_bend_c, 13, 9752
6, 78026, Pitch_bend_c, 13, 9882
6, 78034, Pitch_bend_c, 13, 9752
6, 78036, Pitch_bend_c, 13, 9622
6, 78037, Pitch_bend_c, 13, 9492
6, 78037, Pitch_bend_c, 13, 9232
6, 78039, Pitch_bend_c, 13, 9102
6, 78041, Pitch_bend_c, 13, 8842
6, 78043, Pitch_bend_c, 13, 8582
6, 78043, Pitch_bend_c, 13, 8322
6, 78045, Pitch_bend_c, 13, 8192
6, 78088, Pitch_bend_c, 13, 8322
6, 78088, Pitch_bend_c, 13, 8452
6, 78090, Pitch_bend_c, 13, 8582
6, 78092, Pitch_bend_c, 13, 8712
6, 78094, Pitch_bend_c, 13, 8842
6, 78094, Pitch_bend_c, 13, 8972
6, 78098, Pitch_bend_c, 13, 9102
6, 78100, Note_on_c, 13, 57, 32
6, 78109, Pitch_bend_c, 13, 8972
6, 78113, Pitch_bend_c, 13, 8842
6, 78115, Pitch_bend_c, 13, 8582
6, 78117, Pitch_bend_c, 13, 8452
6, 78118, Pitch_bend_c, 13, 8322
6, 78120, Pitch_bend_c, 13, 8192
6, 78167, Pitch_bend_c, 13, 8322
6, 78180, Pitch_bend_c, 13, 8192
6, 78191, Note_on_c, 13, 57, 0
6, 78191, Note_on_c, 13, 54, 52
6, 78209, Pitch_bend_c, 13, 8322
6, 78211, Pitch_bend_c, 13, 8582
6, 78213, Pitch_bend_c, 13, 8972
6, 78213, Pitch_bend_c, 13, 9362
6, 78215, Pitch_bend_c, 13, 9752
6, 78216, Pitch_bend_c, 13, 10142
6, 78216, Pitch_bend_c, 13, 10532
6, 78218, Pitch_bend_c, 13, 10922
6, 78220, Pitch_bend_c, 13, 11312
6, 78220, Pitch_bend_c, 13, 11572
6, 78222, Pitch_bend_c, 13, 11702
6, 78224, Pitch_bend_c, 13, 11832
6, 78230, Pitch_bend_c, 13, 11702
6, 78231, Pitch_bend_c, 13, 11572
6, 78231, Pitch_bend_c, 13, 11312
6, 78233, Pitch_bend_c, 13, 11052
6, 78235, Pitch_bend_c, 13, 10792
6, 78235, Pitch_bend_c, 13, 10532
6, 78237, Pitch_bend_c, 13, 10142
6, 78239, Pitch_bend_c, 13, 9752
6, 78239, Pitch_bend_c, 13, 9492
6, 78241, Pitch_bend_c, 13, 9102
6, 78243, Pitch_bend_c, 13, 8712
6, 78243, Pitch_bend_c, 13, 8322
6, 78245, Pitch_bend_c, 13, 8192
6, 78267, Note_on_c, 13, 54, 0
6, 78272, Note_on_c, 13, 52, 30
6, 78305, Note_on_c, 13, 52, 0
6, 78314, Note_on_c, 13, 54, 64
6, 78348, Note_on_c, 13, 54, 0
6, 78357, Note_on_c, 13, 57, 91
6, 78399, Note_on_c, 13, 59, 60
6, 78402, Note_on_c, 13, 57, 0
6, 78419, Note_on_c, 13, 59, 0
6, 78437, Note_on_c, 13, 57, 60
6, 78456, Note_on_c, 13, 57, 0
6, 78475, Note_on_c, 13, 59, 91
6, 78484, Pitch_bend_c, 13, 8322
6, 78486, Pitch_bend_c, 13, 8712
6, 78488, Pitch_bend_c, 13, 8972
6, 78490, Pitch_bend_c, 13, 9362
6, 78490, Pitch_bend_c, 13, 9752
6, 78492, Pitch_bend_c, 13, 10142
6, 78493, Pitch_bend_c, 13, 10402
6, 78493, Pitch_bend_c, 13, 10792
6, 78495, Pitch_bend_c, 13, 11052
6, 78497, Pitch_bend_c, 13, 11442
6, 78497, Pitch_bend_c, 13, 11702
6, 78499, Pitch_bend_c, 13, 11962
6, 78501, Pitch_bend_c, 13, 12222
6, 78501, Pitch_bend_c, 13, 12482
6, 78503, Pitch_bend_c, 13, 12612
6, 78505, Pitch_bend_c, 13, 12742
6, 78507, Note_on_c, 13, 59, 0
6, 78510, Pitch_bend_c, 13, 12612
6, 78510, Pitch_bend_c, 13, 12352
6, 78512, Pitch_bend_c, 13, 12092
6, 78514, Pitch_bend_c, 13, 11832
6, 78518, Pitch_bend_c, 13, 11182
6, 78518, Note_on_c, 13, 59, 73
6, 78518, Pitch_bend_c, 13, 10662
6, 78518, Pitch_bend_c, 13, 10142
6, 78520, Pitch_bend_c, 13, 9622
6, 78522, Pitch_bend_c, 13, 9102
6, 78522, Pitch_bend_c, 13, 8452
6, 78524, Pitch_bend_c, 13, 8192
6, 78547, Note_on_c, 13, 59, 0
6, 78547, Note_on_c, 13, 57, 73
6, 78584, Note_on_c, 13, 57, 0
6, 78586, Note_on_c, 13, 54, 52
6, 78614, Note_on_c, 13, 54, 0
6, 78629, Note_on_c, 13, 57, 56
6, 78652, Note_on_c, 13, 57, 0
6, 78669, Note_on_c, 13, 66, 73
6, 78687, Pitch_bend_c, 13, 8322
6, 78689, Pitch_bend_c, 13, 8452
6, 78690, Pitch_bend_c, 13, 8712
6, 78692, Pitch_bend_c, 13, 8842
6, 78692, Pitch_bend_c, 13, 9102
6, 78695, Pitch_bend_c, 13, 9232
6, 78696, Pitch_bend_c, 13, 9362
6, 78696, Pitch_bend_c, 13, 9492
6, 78698, Pitch_bend_c, 13, 9622
6, 78700, Pitch_bend_c, 13, 9752
6, 78702, Pitch_bend_c, 13, 9882
6, 78704, Pitch_bend_c, 13, 10012
6, 78704, Pitch_bend_c, 13, 10142
6, 78706, Pitch_bend_c, 13, 10272
6, 78706, Pitch_bend_c, 13, 10402
6, 78708, Pitch_bend_c, 13, 10532
6, 78709, Pitch_bend_c, 13, 10662
6, 78711, Pitch_bend_c, 13, 10922
6, 78711, Pitch_bend_c, 13, 11052
6, 78714, Pitch_bend_c, 13, 11312
6, 78715, Pitch_bend_c, 13, 11572
6, 78715, Pitch_bend_c, 13, 11832
6, 78718, Pitch_bend_c, 13, 12092
6, 78718, Pitch_bend_c, 13, 12352
6, 78720, Pitch_bend_c, 13, 12482
6, 78721, Pitch_bend_c, 13, 12742
6, 78723, Pitch_bend_c, 13, 13002
6, 78723, Pitch_bend_c, 13, 13132
6, 78727, Pitch_bend_c, 13, 13262
6, 78729, Pitch_bend_c, 13, 13132
6, 78731, Pitch_bend_c, 13, 13002
6, 78732, Pitch_bend_c, 13, 12742
6, 78732, Pitch_bend_c, 13, 12482
6, 78734, Pitch_bend_c, 13, 12222
6, 78736, Pitch_bend_c, 13, 11702
6, 78738, Note_on_c, 13, 66, 0
6, 78738, Pitch_bend_c, 13, 11312
6, 78738, Pitch_bend_c, 13, 10662
6, 78740, Pitch_bend_c, 13, 10272
6, 78742, Pitch_bend_c, 13, 9622
6, 78742, Pitch_bend_c, 13, 8582
6, 78744, Pitch_bend_c, 13, 8192
6, 78881, Note_on_c, 13, 54, 36
6, 78912, Note_on_c, 13, 54, 0
6, 78921, Note_on_c, 13, 57, 60
6, 78943, Note_on_c, 13, 57, 0
6, 78962, Note_on_c, 13, 54, 60
6, 78984, Note_on_c, 13, 54, 0
6, 79004, Note_on_c, 13, 64, 82
6, 79019, Pitch_bend_c, 13, 8322
6, 79019, Pitch_bend_c, 13, 8452
6, 79020, Pitch_bend_c, 13, 8582
6, 79022, Pitch_bend_c, 13, 8842
6, 79024, Pitch_bend_c, 13, 8972
6, 79024, Pitch_bend_c, 13, 9102
6, 79026, Pitch_bend_c, 13, 9232
6, 79026, Pitch_bend_c, 13, 9362
6, 79028, Pitch_bend_c, 13, 9622
6, 79030, Pitch_bend_c, 13, 9752
6, 79032, Pitch_bend_c, 13, 10012
6, 79032, Pitch_bend_c, 13, 10272
6, 79034, Pitch_bend_c, 13, 10532
6, 79036, Pitch_bend_c, 13, 10922
6, 79036, Pitch_bend_c, 13, 11182
6, 79038, Pitch_bend_c, 13, 11572
6, 79040, Pitch_bend_c, 13, 11962
6, 79040, Pitch_bend_c, 13, 12352
6, 79042, Pitch_bend_c, 13, 12742
6, 79044, Pitch_bend_c, 13, 13132
6, 79045, Pitch_bend_c, 13, 13392
6, 79045, Pitch_bend_c, 13, 13782
6, 79047, Pitch_bend_c, 13, 14042
6, 79049, Pitch_bend_c, 13, 14172
6, 79049, Pitch_bend_c, 13, 14432
6, 79051, Note_on_c, 13, 64, 0
6, 79051, Pitch_bend_c, 13, 14562
6, 79053, Pitch_bend_c, 13, 14692
6, 79057, Pitch_bend_c, 13, 14822
6, 79064, Pitch_bend_c, 13, 14692
6, 79066, Pitch_bend_c, 13, 14562
6, 79068, Pitch_bend_c, 13, 14302
6, 79070, Pitch_bend_c, 13, 14172
6, 79072, Pitch_bend_c, 13, 13912
6, 79072, Pitch_bend_c, 13, 13522
6, 79074, Pitch_bend_c, 13, 13132
6, 79076, Pitch_bend_c, 13, 12742
6, 79076, Pitch_bend_c, 13, 12222
6, 79078, Pitch_bend_c, 13, 11572
6, 79080, Pitch_bend_c, 13, 10922
6, 79080, Pitch_bend_c, 13, 10272
6, 79081, Pitch_bend_c, 13, 9362
6, 79083, Pitch_bend_c, 13, 8322
6, 79083, Pitch_bend_c, 13, 8192
6, 79094, Note_on_c, 13, 64, 73
6, 79107, Pitch_bend_c, 13, 8322
6, 79109, Pitch_bend_c, 13, 8452
6, 79111, Pitch_bend_c, 13, 8582
6, 79111, Pitch_bend_c, 13, 8972
6, 79113, Pitch_bend_c, 13, 9232
6, 79115, Pitch_bend_c, 13, 9622
6, 79116, Pitch_bend_c, 13, 10012
6, 79116, Pitch_bend_c, 13, 10272
6, 79118, Pitch_bend_c, 13, 10662
6, 79120, Pitch_bend_c, 13, 11182
6, 79120, Pitch_bend_c, 13, 11572
6, 79122, Pitch_bend_c, 13, 12092
6, 79124, Pitch_bend_c, 13, 12612
6, 79124, Pitch_bend_c, 13, 13002
6, 79126, Pitch_bend_c, 13, 13392
6, 79128, Pitch_bend_c, 13, 13782
6, 79128, Pitch_bend_c, 13, 14172
6, 79130, Pitch_bend_c, 13, 14432
6, 79132, Pitch_bend_c, 13, 14822
6, 79132, Pitch_bend_c, 13, 15082
6, 79134, Pitch_bend_c, 13, 15342
6, 79136, Pitch_bend_c, 13, 15602
6, 79136, Pitch_bend_c, 13, 15732
6, 79138, Pitch_bend_c, 13, 15992
6, 79140, Pitch_bend_c, 13, 16122
6, 79141, Pitch_bend_c, 13, 16252
6, 79141, Pitch_bend_c, 13, 16382
6, 79145, Note_on_c, 13, 64, 0
6, 79152, Pitch_bend_c, 13, 16252
6, 79154, Pitch_bend_c, 13, 15992
6, 79154, Pitch_bend_c, 13, 15732
6, 79156, Pitch_bend_c, 13, 15342
6, 79158, Pitch_bend_c, 13, 14952
6, 79158, Pitch_bend_c, 13, 14432
6, 79160, Pitch_bend_c, 13, 13912
6, 79162, Pitch_bend_c, 13, 13132
6, 79162, Pitch_bend_c, 13, 12222
6, 79164, Pitch_bend_c, 13, 11182
6, 79166, Pitch_bend_c, 13, 9882
6, 79168, Pitch_bend_c, 13, 8452
6, 79168, Pitch_bend_c, 13, 8192
6, 79172, Note_on_c, 13, 64, 82
6, 79188, Pitch_bend_c, 13, 8322
6, 79188, Pitch_bend_c, 13, 8712
6, 79190, Pitch_bend_c, 13, 9232
6, 79192, Pitch_bend_c, 13, 9752
6, 79194, Pitch_bend_c, 13, 10402
6, 79194, Pitch_bend_c, 13, 11182
6, 79196, Pitch_bend_c, 13, 11962
6, 79198, Pitch_bend_c, 13, 12742
6, 79198, Pitch_bend_c, 13, 13522
6, 79200, Pitch_bend_c, 13, 14302
6, 79201, Pitch_bend_c, 13, 14952
6, 79201, Pitch_bend_c, 13, 15602
6, 79203, Pitch_bend_c, 13, 15992
6, 79205, Pitch_bend_c, 13, 16382
6, 79529, Pitch_bend_c, 13, 16122
6, 79531, Pitch_bend_c, 13, 15732
6, 79531, Pitch_bend_c, 13, 15472
6, 79533, Pitch_bend_c, 13, 15082
6, 79535, Note_on_c, 13, 64, 0
6, 79535, Pitch_bend_c, 13, 14562
6, 79535, Pitch_bend_c, 13, 14172
6, 79537, Pitch_bend_c, 13, 13652
6, 79539, Pitch_bend_c, 13, 13132
6, 79539, Pitch_bend_c, 13, 12482
6, 79541, Pitch_bend_c, 13, 11832
6, 79543, Pitch_bend_c, 13, 11052
6, 79543, Pitch_bend_c, 13, 10272
6, 79545, Pitch_bend_c, 13, 9492
6, 79547, Pitch_bend_c, 13, 8712
6, 79548, Pitch_bend_c, 13, 8192
6, 79561, Note_on_c, 13, 64, 100
6, 79565, Pitch_bend_c, 13, 8582
6, 79567, Pitch_bend_c, 13, 9362
6, 79567, Pitch_bend_c, 13, 10142
6, 79569, Pitch_bend_c, 13, 11182
6, 79571, Pitch_bend_c, 13, 12222
6, 79571, Pitch_bend_c, 13, 13132
6, 79572, Pitch_bend_c, 13, 14042
6, 79574, Pitch_bend_c, 13, 15082
6, 79576, Pitch_bend_c, 13, 15862
6, 79576, Pitch_bend_c, 13, 16382
6, 79618, Note_on_c, 13, 64, 0
6, 79632, Pitch_bend_c, 13, 16252
6, 79634, Pitch_bend_c, 13, 15732
6, 79634, Pitch_bend_c, 13, 15212
6, 79638, Pitch_bend_c, 13, 14432
6, 79638, Note_on_c, 13, 64, 64
6, 79638, Pitch_bend_c, 13, 13522
6, 79640, Pitch_bend_c, 13, 12872
6, 79642, Pitch_bend_c, 13, 12092
6, 79644, Pitch_bend_c, 13, 11182
6, 79644, Pitch_bend_c, 13, 10402
6, 79646, Pitch_bend_c, 13, 9622
6, 79646, Pitch_bend_c, 13, 8972
6, 79648, Pitch_bend_c, 13, 8322
6, 79650, Pitch_bend_c, 13, 8192
6, 79688, Pitch_bend_c, 13, 8452
6, 79688, Pitch_bend_c, 13, 8842
6, 79690, Pitch_bend_c, 13, 9232
6, 79692, Pitch_bend_c, 13, 9622
6, 79692, Pitch_bend_c, 13, 10012
6, 79693, Pitch_bend_c, 13, 10402
6, 79693, Pitch_bend_c, 13, 10662
6, 79695, Pitch_bend_c, 13, 10922
6, 79697, Pitch_bend_c, 13, 11182
6, 79697, Pitch_bend_c, 13, 11442
6, 79701, Pitch_bend_c, 13, 11572
6, 79703, Pitch_bend_c, 13, 11442
6, 79705, Pitch_bend_c, 13, 11052
6, 79707, Pitch_bend_c, 13, 10792
6, 79707, Pitch_bend_c, 13, 10402
6, 79709, Pitch_bend_c, 13, 10012
6, 79711, Pitch_bend_c, 13, 9622
6, 79711, Pitch_bend_c, 13, 9232
6, 79713, Pitch_bend_c, 13, 8842
6, 79715, Pitch_bend_c, 13, 8452
6, 79715, Pitch_bend_c, 13, 8192
6, 79727, Pitch_bend_c, 13, 8582
6, 79729, Pitch_bend_c, 13, 9102
6, 79731, Pitch_bend_c, 13, 9492
6, 79733, Pitch_bend_c, 13, 10012
6, 79733, Pitch_bend_c, 13, 10402
6, 79735, Pitch_bend_c, 13, 10922
6, 79737, Pitch_bend_c, 13, 11312
6, 79737, Pitch_bend_c, 13, 11832
6, 79739, Pitch_bend_c, 13, 12092
6, 79739, Pitch_bend_c, 13, 12482
6, 79740, Pitch_bend_c, 13, 12742
6, 79742, Pitch_bend_c, 13, 13002
6, 79744, Pitch_bend_c, 13, 13132
6, 79750, Pitch_bend_c, 13, 12872
6, 79752, Pitch_bend_c, 13, 12612
6, 79752, Pitch_bend_c, 13, 12222
6, 79754, Pitch_bend_c, 13, 11832
6, 79756, Pitch_bend_c, 13, 11442
6, 79757, Pitch_bend_c, 13, 10922
6, 79757, Pitch_bend_c, 13, 10272
6, 79759, Pitch_bend_c, 13, 9492
6, 79761, Pitch_bend_c, 13, 8582
6, 79761, Pitch_bend_c, 13, 8192
6, 79776, Note_on_c, 13, 64, 0
6, 79790, Note_on_c, 13, 69, 91
6, 79873, Note_on_c, 13, 69, 0
6, 79875, Note_on_c, 13, 64, 64
6, 79883, Note_on_c, 13, 66, 64
6, 79895, Note_on_c, 13, 64, 0
6, 79901, Pitch_bend_c, 13, 8322
6, 79903, Pitch_bend_c, 13, 8452
6, 79906, Pitch_bend_c, 13, 8582
6, 79912, Pitch_bend_c, 13, 8322
6, 79915, Pitch_bend_c, 13, 8192
6, 79941, Pitch_bend_c, 13, 8582
6, 79941, Pitch_bend_c, 13, 9102
6, 79943, Pitch_bend_c, 13, 9622
6, 79944, Pitch_bend_c, 13, 10012
6, 79944, Pitch_bend_c, 13, 10272
6, 79946, Pitch_bend_c, 13, 10402
6, 79954, Pitch_bend_c, 13, 10272
6, 79954, Pitch_bend_c, 13, 10142
6, 79956, Pitch_bend_c, 13, 9882
6, 79956, Pitch_bend_c, 13, 9752
6, 79958, Pitch_bend_c, 13, 9622
6, 79961, Pitch_bend_c, 13, 9492
6, 79965, Pitch_bend_c, 13, 9622
6, 79967, Pitch_bend_c, 13, 9882
6, 79969, Pitch_bend_c, 13, 10142
6, 79969, Pitch_bend_c, 13, 10532
6, 79971, Pitch_bend_c, 13, 11052
6, 79973, Pitch_bend_c, 13, 11442
6, 79973, Pitch_bend_c, 13, 11962
6, 79975, Pitch_bend_c, 13, 12482
6, 79977, Pitch_bend_c, 13, 12872
6, 79977, Pitch_bend_c, 13, 13262
6, 79979, Pitch_bend_c, 13, 13522
6, 79980, Pitch_bend_c, 13, 13652
6, 79980, Pitch_bend_c, 13, 13912
6, 79984, Pitch_bend_c, 13, 14042
6, 79990, Pitch_bend_c, 13, 13912
6, 79990, Pitch_bend_c, 13, 13652
6, 79992, Pitch_bend_c, 13, 13522
6, 79993, Pitch_bend_c, 13, 13262
6, 79995, Pitch_bend_c, 13, 13002
6, 79995, Pitch_bend_c, 13, 12612
6, 79997, Pitch_bend_c, 13, 12222
6, 79999, Pitch_bend_c, 13, 11832
6, 79999, Pitch_bend_c, 13, 11572
6, 80001, Pitch_bend_c, 13, 11312
6, 80003, Pitch_bend_c, 13, 11052
6, 80003, Pitch_bend_c, 13, 10792
6, 80005, Pitch_bend_c, 13, 10662
6, 80007, Pitch_bend_c, 13, 10532
6, 80018, Pitch_bend_c, 13, 10662
6, 80020, Pitch_bend_c, 13, 10792
6, 80022, Pitch_bend_c, 13, 10922
6, 80024, Pitch_bend_c, 13, 11052
6, 80026, Pitch_bend_c, 13, 11312
6, 80026, Pitch_bend_c, 13, 11442
6, 80028, Pitch_bend_c, 13, 11702
6, 80029, Pitch_bend_c, 13, 11962
6, 80029, Pitch_bend_c, 13, 12222
6, 80031, Pitch_bend_c, 13, 12352
6, 80033, Pitch_bend_c, 13, 12612
6, 80035, Note_on_c, 13, 64, 60
6, 80035, Pitch_bend_c, 13, 12872
6, 80042, Note_on_c, 13, 66, 0
6, 80042, Pitch_bend_c, 13, 12612
6, 80042, Pitch_bend_c, 13, 12352
6, 80044, Pitch_bend_c, 13, 12092
6, 80046, Pitch_bend_c, 13, 11702
6, 80048, Pitch_bend_c, 13, 11312
6, 80048, Pitch_bend_c, 13, 10792
6, 80050, Pitch_bend_c, 13, 10272
6, 80050, Pitch_bend_c, 13, 9752
6, 80052, Pitch_bend_c, 13, 9232
6, 80054, Pitch_bend_c, 13, 8452
6, 80054, Pitch_bend_c, 13, 8192
6, 80119, Note_on_c, 13, 61, 82
6, 80123, Note_on_c, 13, 64, 0
6, 80159, Note_on_c, 13, 61, 0
6, 80159, End_track
7, 0, Start_track
7, 0, MIDI_port, 0
7, 0, Title_t, "bass"
7, 0, Control_c, 4, 0, 56
7, 0, Control_c, 4, 32, 0
7, 0, Program_c, 4, 35
7, 0, Control_c, 4, 7, 85
7, 0, Control_c, 4, 10, 64
7, 0, Control_c, 4, 93, 88
7, 0, Control_c, 4, 91, 0
7, 4310, Note_on_c, 4, 29, 73
7, 4434, Note_on_c, 4, 29, 0
7, 4508, Note_on_c, 4, 29, 82
7, 4528, Note_on_c, 4, 29, 0
7, 4792, Note_on_c, 4, 29, 73
7, 4832, Note_on_c, 4, 29, 0
7, 4983, Note_on_c, 4, 29, 82
7, 5004, Note_on_c, 4, 29, 0
7, 5198, Note_on_c, 4, 39, 73
7, 5225, Note_on_c, 4, 41, 64
7, 5236, Note_on_c, 4, 39, 0
7, 5252, Note_on_c, 4, 41, 0
7, 5263, Note_on_c, 4, 29, 91
7, 6044, Pitch_bend_c, 4, 8064
7, 6046, Pitch_bend_c, 4, 7936
7, 6048, Pitch_bend_c, 4, 7808
7, 6051, Pitch_bend_c, 4, 7552
7, 6051, Pitch_bend_c, 4, 7424
7, 6053, Pitch_bend_c, 4, 7296
7, 6057, Pitch_bend_c, 4, 7168
7, 6059, Pitch_bend_c, 4, 7040
7, 6061, Pitch_bend_c, 4, 6912
7, 6063, Pitch_bend_c, 4, 6784
7, 6064, Pitch_bend_c, 4, 6656
7, 6068, Pitch_bend_c, 4, 6528
7, 6068, Pitch_bend_c, 4, 6400
7, 6070, Pitch_bend_c, 4, 6272
7, 6072, Pitch_bend_c, 4, 6144
7, 6074, Pitch_bend_c, 4, 6016
7, 6076, Pitch_bend_c, 4, 5888
7, 6078, Pitch_bend_c, 4, 5760
7, 6080, Pitch_bend_c, 4, 5632
7, 6082, Pitch_bend_c, 4, 5504
7, 6084, Pitch_bend_c, 4, 5376
7, 6085, Pitch_bend_c, 4, 5248
7, 6089, Pitch_bend_c, 4, 4992
7, 6091, Pitch_bend_c, 4, 4864
7, 6093, Pitch_bend_c, 4, 4736
7, 6093, Pitch_bend_c, 4, 4608
7, 6095, Pitch_bend_c, 4, 4480
7, 6096, Pitch_bend_c, 4, 4352
7, 6096, Pitch_bend_c, 4, 4224
7, 6098, Pitch_bend_c, 4, 4096
7, 6100, Pitch_bend_c, 4, 3968
7, 6102, Pitch_bend_c, 4, 3840
7, 6104, Pitch_bend_c, 4, 3712
7, 6104, Pitch_bend_c, 4, 3584
7, 6107, Pitch_bend_c, 4, 3456
7, 6108, Pitch_bend_c, 4, 3328
7, 6110, Pitch_bend_c, 4, 3200
7, 6110, Pitch_bend_c, 4, 3072
7, 6112, Pitch_bend_c, 4, 2944
7, 6112, Pitch_bend_c, 4, 2816
7, 6114, Pitch_bend_c, 4, 2688
7, 6116, Pitch_bend_c, 4, 2560
7, 6116, Pitch_bend_c, 4, 2304
7, 6118, Pitch_bend_c, 4, 2176
7, 6120, Pitch_bend_c, 4, 2048
7, 6121, Pitch_bend_c, 4, 1920
7, 6121, Pitch_bend_c, 4, 1792
7, 6123, Pitch_bend_c, 4, 1664
7, 6126, Pitch_bend_c, 4, 1536
7, 6126, Pitch_bend_c, 4, 1408
7, 6127, Pitch_bend_c, 4, 1152
7, 6129, Pitch_bend_c, 4, 1024
7, 6129, Pitch_bend_c, 4, 896
7, 6131, Pitch_bend_c, 4, 768
7, 6133, Pitch_bend_c, 4, 512
7, 6133, Pitch_bend_c, 4, 256
7, 6135, Pitch_bend_c, 4, 128
7, 6135, Pitch_bend_c, 4, 0
7, 6218, Pitch_bend_c, 4, 896
7, 6218, Pitch_bend_c, 4, 3328
7, 6220, Pitch_bend_c, 4, 6528
7, 6222, Pitch_bend_c, 4, 8192
7, 6222, Pitch_bend_c, 4, 9622
7, 6224, Pitch_bend_c, 4, 10662
7, 6226, Pitch_bend_c, 4, 10272
7, 6228, Pitch_bend_c, 4, 8712
7, 6228, Pitch_bend_c, 4, 8192
7, 6368, Note_on_c, 4, 29, 0
7, 6426, Note_on_c, 4, 29, 52
7, 6584, Note_on_c, 4, 29, 0
7, 6708, Note_on_c, 4, 29, 60
7, 6802, Note_on_c, 4, 29, 0
7, 6907, Note_on_c, 4, 29, 56
7, 6939, Note_on_c, 4, 29, 0
7, 7108, Note_on_c, 4, 39, 60
7, 7143, Note_on_c, 4, 41, 64
7, 7152, Note_on_c, 4, 39, 0
7, 7164, Note_on_c, 4, 41, 0
7, 7186, Note_on_c, 4, 29, 64
7, 7310, Note_on_c, 4, 29, 0
7, 7393, Note_on_c, 4, 29, 73
7, 7420, Note_on_c, 4, 29, 0
7, 7680, Note_on_c, 4, 29, 73
7, 7788, Note_on_c, 4, 29, 0
7, 7871, Note_on_c, 4, 29, 100
7, 7899, Note_on_c, 4, 29, 0
7, 8108, Note_on_c, 4, 39, 60
7, 8121, Note_on_c, 4, 41, 64
7, 8130, Note_on_c, 4, 39, 0
7, 8153, Note_on_c, 4, 41, 0
7, 8153, Note_on_c, 4, 29, 64
7, 8259, Note_on_c, 4, 29, 0
7, 8355, Note_on_c, 4, 29, 100
7, 8380, Note_on_c, 4, 29, 0
7, 8592, Note_on_c, 4, 41, 73
7, 8634, Note_on_c, 4, 41, 0
7, 8825, Note_on_c, 4, 41, 73
7, 8850, Note_on_c, 4, 41, 0
7, 8951, Note_on_c, 4, 29, 52
7, 8965, Note_on_c, 4, 29, 0
7, 8986, Note_on_c, 4, 36, 48
7, 9000, Note_on_c, 4, 36, 0
7, 9076, Note_on_c, 4, 34, 40
7, 9081, Note_on_c, 4, 34, 0
7, 9112, Note_on_c, 4, 29, 56
7, 9207, Note_on_c, 4, 29, 0
7, 9317, Note_on_c, 4, 29, 91
7, 9359, Note_on_c, 4, 29, 0
7, 9553, Note_on_c, 4, 36, 73
7, 9587, Note_on_c, 4, 36, 0
7, 9589, Note_on_c, 4, 29, 64
7, 9667, Note_on_c, 4, 29, 0
7, 9672, Note_on_c, 4, 36, 73
7, 9708, Note_on_c, 4, 38, 91
7, 9712, Note_on_c, 4, 36, 0
7, 9768, Note_on_c, 4, 38, 0
7, 9788, Note_on_c, 4, 39, 100
7, 9828, Note_on_c, 4, 39, 0
7, 10011, Note_on_c, 4, 38, 60
7, 10031, Note_on_c, 4, 38, 0
7, 10040, Note_on_c, 4, 36, 60
7, 10053, Note_on_c, 4, 36, 0
7, 10076, Note_on_c, 4, 29, 82
7, 10173, Note_on_c, 4, 29, 0
7, 10271, Note_on_c, 4, 41, 64
7, 10326, Note_on_c, 4, 41, 0
7, 10393, Note_on_c, 4, 29, 64
7, 10416, Note_on_c, 4, 29, 0
7, 10428, Note_on_c, 4, 39, 73
7, 10501, Note_on_c, 4, 39, 0
7, 10514, Note_on_c, 4, 38, 60
7, 10528, Note_on_c, 4, 38, 0
7, 10550, Note_on_c, 4, 35, 56
7, 10552, Note_on_c, 4, 36, 56
7, 10581, Note_on_c, 4, 35, 0
7, 10635, Note_on_c, 4, 38, 73
7, 10642, Note_on_c, 4, 36, 0
7, 10651, Note_on_c, 4, 38, 0
7, 10673, Note_on_c, 4, 39, 91
7, 10743, Note_on_c, 4, 39, 0
7, 10751, Note_on_c, 4, 46, 60
7, 10776, Note_on_c, 4, 46, 0
7, 10792, Note_on_c, 4, 44, 52
7, 10801, Note_on_c, 4, 45, 60
7, 10810, Note_on_c, 4, 44, 0
7, 10864, Note_on_c, 4, 45, 0
7, 10866, Note_on_c, 4, 41, 73
7, 10892, Note_on_c, 4, 41, 0
7, 10989, Note_on_c, 4, 29, 100
7, 11129, Note_on_c, 4, 29, 0
7, 11235, Note_on_c, 4, 29, 100
7, 11272, Note_on_c, 4, 29, 0
7, 11473, Note_on_c, 4, 36, 73
7, 11509, Note_on_c, 4, 29, 56
7, 11513, Note_on_c, 4, 36, 0
7, 11591, Note_on_c, 4, 29, 0
7, 11592, Note_on_c, 4, 36, 82
7, 11628, Note_on_c, 4, 38, 73
7, 11637, Note_on_c, 4, 36, 0
7, 11702, Note_on_c, 4, 38, 0
7, 11708, Note_on_c, 4, 39, 73
7, 11757, Note_on_c, 4, 39, 0
7, 11920, Note_on_c, 4, 38, 56
7, 11935, Note_on_c, 4, 38, 0
7, 11949, Note_on_c, 4, 36, 64
7, 11962, Note_on_c, 4, 36, 0
7, 11985, Note_on_c, 4, 29, 73
7, 12086, Note_on_c, 4, 29, 0
7, 12191, Note_on_c, 4, 41, 91
7, 12264, Note_on_c, 4, 41, 0
7, 12326, Note_on_c, 4, 28, 16
7, 12329, Note_on_c, 4, 29, 16
7, 12335, Note_on_c, 4, 28, 0
7, 12339, Note_on_c, 4, 29, 0
7, 12353, Note_on_c, 4, 39, 82
7, 12434, Note_on_c, 4, 39, 0
7, 12440, Note_on_c, 4, 38, 52
7, 12458, Note_on_c, 4, 38, 0
7, 12476, Note_on_c, 4, 36, 73
7, 12548, Note_on_c, 4, 36, 0
7, 12555, Note_on_c, 4, 38, 73
7, 12566, Note_on_c, 4, 38, 0
7, 12593, Note_on_c, 4, 39, 91
7, 12653, Note_on_c, 4, 39, 0
7, 12674, Note_on_c, 4, 46, 60
7, 12696, Note_on_c, 4, 46, 0
7, 12710, Note_on_c, 4, 44, 56
7, 12725, Note_on_c, 4, 45, 56
7, 12731, Note_on_c, 4, 44, 0
7, 12786, Note_on_c, 4, 45, 0
7, 12792, Note_on_c, 4, 41, 73
7, 12815, Note_on_c, 4, 41, 0
7, 12912, Note_on_c, 4, 34, 73
7, 13042, Note_on_c, 4, 34, 0
7, 13069, Note_on_c, 4, 46, 64
7, 13141, Note_on_c, 4, 46, 0
7, 13158, Note_on_c, 4, 34, 44
7, 13172, Note_on_c, 4, 34, 0
7, 13194, Note_on_c, 4, 44, 56
7, 13314, Note_on_c, 4, 46, 64
7, 13316, Note_on_c, 4, 44, 0
7, 13338, Note_on_c, 4, 46, 0
7, 13389, Note_on_c, 4, 34, 73
7, 13543, Note_on_c, 4, 34, 0
7, 13561, Note_on_c, 4, 46, 56
7, 13622, Note_on_c, 4, 46, 0
7, 13635, Note_on_c, 4, 34, 48
7, 13653, Note_on_c, 4, 34, 0
7, 13671, Note_on_c, 4, 44, 56
7, 13792, Note_on_c, 4, 46, 60
7, 13801, Note_on_c, 4, 44, 0
7, 13810, Note_on_c, 4, 46, 0
7, 13859, Note_on_c, 4, 29, 73
7, 13934, Note_on_c, 4, 29, 0
7, 13992, Note_on_c, 4, 36, 60
7, 14032, Note_on_c, 4, 38, 56
7, 14040, Note_on_c, 4, 36, 0
7, 14079, Note_on_c, 4, 38, 0
7, 14108, Note_on_c, 4, 41, 73
7, 14174, Note_on_c, 4, 41, 0
7, 14231, Note_on_c, 4, 38, 60
7, 14265, Note_on_c, 4, 38, 0
7, 14267, Note_on_c, 4, 36, 56
7, 14299, Note_on_c, 4, 36, 0
7, 14344, Note_on_c, 4, 34, 82
7, 14427, Note_on_c, 4, 34, 0
7, 14463, Note_on_c, 4, 41, 73
7, 14479, Note_on_c, 4, 41, 0
7, 14505, Note_on_c, 4, 34, 73
7, 14512, Note_on_c, 4, 34, 0
7, 14580, Note_on_c, 4, 33, 82
7, 14679, Note_on_c, 4, 33, 0
7, 14708, Note_on_c, 4, 40, 73
7, 14723, Note_on_c, 4, 40, 0
7, 14746, Note_on_c, 4, 33, 73
7, 14762, Note_on_c, 4, 33, 0
7, 14818, Note_on_c, 4, 36, 82
7, 14961, Note_on_c, 4, 36, 0
7, 14995, Note_on_c, 4, 48, 64
7, 15063, Note_on_c, 4, 48, 0
7, 15078, Note_on_c, 4, 36, 52
7, 15096, Note_on_c, 4, 36, 0
7, 15118, Note_on_c, 4, 46, 82
7, 15236, Note_on_c, 4, 48, 73
7, 15249, Note_on_c, 4, 46, 0
7, 15271, Note_on_c, 4, 48, 0
7, 15314, Note_on_c, 4, 31, 100
7, 15456, Note_on_c, 4, 31, 0
7, 15474, Note_on_c, 4, 33, 73
7, 15566, Note_on_c, 4, 33, 0
7, 15589, Note_on_c, 4, 34, 64
7, 15665, Note_on_c, 4, 34, 0
7, 15672, Note_on_c, 4, 35, 60
7, 15698, Note_on_c, 4, 35, 0
7, 15707, Note_on_c, 4, 36, 73
7, 15757, Note_on_c, 4, 36, 0
7, 15790, Note_on_c, 4, 29, 73
7, 15889, Note_on_c, 4, 29, 0
7, 16035, Note_on_c, 4, 29, 91
7, 16067, Note_on_c, 4, 29, 0
7, 16272, Note_on_c, 4, 36, 64
7, 16312, Note_on_c, 4, 36, 0
7, 16314, Note_on_c, 4, 29, 60
7, 16386, Note_on_c, 4, 29, 0
7, 16395, Note_on_c, 4, 36, 60
7, 16435, Note_on_c, 4, 38, 73
7, 16439, Note_on_c, 4, 36, 0
7, 16496, Note_on_c, 4, 38, 0
7, 16511, Note_on_c, 4, 39, 100
7, 16552, Note_on_c, 4, 39, 0
7, 16716, Note_on_c, 4, 38, 64
7, 16747, Note_on_c, 4, 36, 64
7, 16750, Note_on_c, 4, 38, 0
7, 16768, Note_on_c, 4, 36, 0
7, 16792, Note_on_c, 4, 29, 73
7, 16893, Note_on_c, 4, 29, 0
7, 16995, Note_on_c, 4, 41, 82
7, 17040, Note_on_c, 4, 41, 0
7, 17111, Note_on_c, 4, 29, 60
7, 17140, Note_on_c, 4, 29, 0
7, 17150, Note_on_c, 4, 39, 82
7, 17230, Note_on_c, 4, 39, 0
7, 17237, Note_on_c, 4, 38, 56
7, 17255, Note_on_c, 4, 38, 0
7, 17271, Note_on_c, 4, 36, 60
7, 17336, Note_on_c, 4, 36, 0
7, 17354, Note_on_c, 4, 38, 56
7, 17371, Note_on_c, 4, 38, 0
7, 17387, Note_on_c, 4, 38, 64
7, 17405, Note_on_c, 4, 38, 0
7, 17437, Note_on_c, 4, 40, 40
7, 17448, Note_on_c, 4, 40, 0
7, 17470, Note_on_c, 4, 46, 64
7, 17497, Note_on_c, 4, 46, 0
7, 17503, Note_on_c, 4, 44, 64
7, 17506, Note_on_c, 4, 45, 73
7, 17512, Note_on_c, 4, 44, 0
7, 17580, Note_on_c, 4, 45, 0
7, 17586, Note_on_c, 4, 41, 73
7, 17607, Note_on_c, 4, 41, 0
7, 17751, Note_on_c, 4, 29, 91
7, 17789, Note_on_c, 4, 29, 0
7, 17957, Note_on_c, 4, 29, 91
7, 17982, Note_on_c, 4, 29, 0
7, 18191, Note_on_c, 4, 36, 73
7, 18234, Note_on_c, 4, 36, 0
7, 18234, Note_on_c, 4, 29, 44
7, 18308, Note_on_c, 4, 29, 0
7, 18313, Note_on_c, 4, 36, 64
7, 18353, Note_on_c, 4, 38, 73
7, 18359, Note_on_c, 4, 36, 0
7, 18420, Note_on_c, 4, 38, 0
7, 18425, Note_on_c, 4, 39, 64
7, 18487, Note_on_c, 4, 39, 0
7, 18640, Note_on_c, 4, 38, 64
7, 18661, Note_on_c, 4, 38, 0
7, 18669, Note_on_c, 4, 36, 60
7, 18683, Note_on_c, 4, 36, 0
7, 18710, Note_on_c, 4, 29, 73
7, 18820, Note_on_c, 4, 29, 0
7, 18914, Note_on_c, 4, 41, 82
7, 18964, Note_on_c, 4, 41, 0
7, 19032, Note_on_c, 4, 29, 82
7, 19060, Note_on_c, 4, 29, 0
7, 19069, Note_on_c, 4, 39, 91
7, 19148, Note_on_c, 4, 39, 0
7, 19157, Note_on_c, 4, 38, 60
7, 19177, Note_on_c, 4, 38, 0
7, 19193, Note_on_c, 4, 36, 82
7, 19258, Note_on_c, 4, 36, 0
7, 19278, Note_on_c, 4, 38, 64
7, 19295, Note_on_c, 4, 38, 0
7, 19320, Note_on_c, 4, 39, 82
7, 19379, Note_on_c, 4, 39, 0
7, 19386, Note_on_c, 4, 46, 60
7, 19406, Note_on_c, 4, 46, 0
7, 19428, Note_on_c, 4, 44, 52
7, 19448, Note_on_c, 4, 45, 56
7, 19455, Note_on_c, 4, 44, 0
7, 19504, Note_on_c, 4, 45, 0
7, 19504, Note_on_c, 4, 41, 73
7, 19540, Note_on_c, 4, 41, 0
7, 19628, Note_on_c, 4, 29, 91
7, 19756, Note_on_c, 4, 29, 0
7, 19875, Note_on_c, 4, 29, 100
7, 19913, Note_on_c, 4, 29, 0
7, 20116, Note_on_c, 4, 36, 73
7, 20158, Note_on_c, 4, 36, 0
7, 20160, Note_on_c, 4, 29, 73
7, 20226, Note_on_c, 4, 29, 0
7, 20233, Note_on_c, 4, 36, 64
7, 20277, Note_on_c, 4, 38, 73
7, 20284, Note_on_c, 4, 36, 0
7, 20343, Note_on_c, 4, 38, 0
7, 20352, Note_on_c, 4, 39, 73
7, 20398, Note_on_c, 4, 39, 0
7, 20560, Note_on_c, 4, 38, 60
7, 20587, Note_on_c, 4, 38, 0
7, 20592, Note_on_c, 4, 36, 60
7, 20608, Note_on_c, 4, 36, 0
7, 20636, Note_on_c, 4, 29, 64
7, 20736, Note_on_c, 4, 29, 0
7, 20835, Note_on_c, 4, 41, 82
7, 20892, Note_on_c, 4, 41, 0
7, 20954, Note_on_c, 4, 29, 73
7, 20980, Note_on_c, 4, 29, 0
7, 20994, Note_on_c, 4, 39, 91
7, 21070, Note_on_c, 4, 39, 0
7, 21077, Note_on_c, 4, 38, 64
7, 21097, Note_on_c, 4, 38, 0
7, 21113, Note_on_c, 4, 36, 64
7, 21180, Note_on_c, 4, 36, 0
7, 21198, Note_on_c, 4, 38, 64
7, 21213, Note_on_c, 4, 38, 0
7, 21236, Note_on_c, 4, 39, 91
7, 21287, Note_on_c, 4, 39, 0
7, 21313, Note_on_c, 4, 46, 60
7, 21334, Note_on_c, 4, 46, 0
7, 21350, Note_on_c, 4, 44, 73
7, 21372, Note_on_c, 4, 45, 64
7, 21379, Note_on_c, 4, 44, 0
7, 21424, Note_on_c, 4, 45, 0
7, 21429, Note_on_c, 4, 41, 73
7, 21462, Note_on_c, 4, 41, 0
7, 21554, Note_on_c, 4, 34, 73
7, 21680, Note_on_c, 4, 34, 0
7, 21712, Note_on_c, 4, 46, 60
7, 21782, Note_on_c, 4, 46, 0
7, 21799, Note_on_c, 4, 34, 56
7, 21815, Note_on_c, 4, 34, 0
7, 21831, Note_on_c, 4, 44, 60
7, 21948, Note_on_c, 4, 44, 0
7, 21948, Note_on_c, 4, 46, 64
7, 22002, Note_on_c, 4, 46, 0
7, 22028, Note_on_c, 4, 34, 64
7, 22164, Note_on_c, 4, 34, 0
7, 22202, Note_on_c, 4, 46, 64
7, 22266, Note_on_c, 4, 46, 0
7, 22316, Note_on_c, 4, 44, 64
7, 22408, Note_on_c, 4, 44, 0
7, 22433, Note_on_c, 4, 46, 60
7, 22476, Note_on_c, 4, 46, 0
7, 22507, Note_on_c, 4, 29, 60
7, 22590, Note_on_c, 4, 29, 0
7, 22632, Note_on_c, 4, 36, 73
7, 22673, Note_on_c, 4, 38, 73
7, 22680, Note_on_c, 4, 36, 0
7, 22722, Note_on_c, 4, 38, 0
7, 22747, Note_on_c, 4, 41, 82
7, 22817, Note_on_c, 4, 41, 0
7, 22864, Note_on_c, 4, 38, 82
7, 22898, Note_on_c, 4, 38, 0
7, 22908, Note_on_c, 4, 36, 64
7, 22961, Note_on_c, 4, 36, 0
7, 22983, Note_on_c, 4, 34, 91
7, 23088, Note_on_c, 4, 34, 0
7, 23106, Note_on_c, 4, 41, 73
7, 23129, Note_on_c, 4, 41, 0
7, 23145, Note_on_c, 4, 34, 82
7, 23161, Note_on_c, 4, 34, 0
7, 23227, Note_on_c, 4, 33, 91
7, 23333, Note_on_c, 4, 33, 0
7, 23347, Note_on_c, 4, 40, 73
7, 23364, Note_on_c, 4, 40, 0
7, 23390, Note_on_c, 4, 33, 73
7, 23407, Note_on_c, 4, 33, 0
7, 23466, Note_on_c, 4, 36, 73
7, 23605, Note_on_c, 4, 36, 0
7, 23639, Note_on_c, 4, 48, 64
7, 23713, Note_on_c, 4, 48, 0
7, 23724, Note_on_c, 4, 36, 52
7, 23738, Note_on_c, 4, 36, 0
7, 23759, Note_on_c, 4, 46, 82
7, 23876, Note_on_c, 4, 48, 64
7, 23888, Note_on_c, 4, 46, 0
7, 23929, Note_on_c, 4, 48, 0
7, 23959, Note_on_c, 4, 31, 100
7, 24099, Note_on_c, 4, 31, 0
7, 24117, Note_on_c, 4, 33, 91
7, 24204, Note_on_c, 4, 33, 0
7, 24230, Note_on_c, 4, 34, 82
7, 24349, Note_on_c, 4, 34, 0
7, 24349, Note_on_c, 4, 36, 82
7, 24378, Note_on_c, 4, 36, 0
7, 24429, Note_on_c, 4, 29, 91
7, 24573, Note_on_c, 4, 29, 0
7, 24677, Note_on_c, 4, 29, 91
7, 24715, Note_on_c, 4, 29, 0
7, 24904, Note_on_c, 4, 36, 82
7, 24942, Note_on_c, 4, 36, 0
7, 24946, Note_on_c, 4, 29, 73
7, 25020, Note_on_c, 4, 29, 0
7, 25027, Note_on_c, 4, 36, 64
7, 25067, Note_on_c, 4, 38, 73
7, 25070, Note_on_c, 4, 36, 0
7, 25130, Note_on_c, 4, 38, 0
7, 25146, Note_on_c, 4, 39, 91
7, 25189, Note_on_c, 4, 39, 0
7, 25351, Note_on_c, 4, 38, 64
7, 25387, Note_on_c, 4, 38, 0
7, 25387, Note_on_c, 4, 36, 64
7, 25405, Note_on_c, 4, 36, 0
7, 25427, Note_on_c, 4, 29, 73
7, 25532, Note_on_c, 4, 29, 0
7, 25632, Note_on_c, 4, 41, 82
7, 25678, Note_on_c, 4, 41, 0
7, 25757, Note_on_c, 4, 29, 73
7, 25782, Note_on_c, 4, 29, 0
7, 25797, Note_on_c, 4, 39, 73
7, 25871, Note_on_c, 4, 39, 0
7, 25880, Note_on_c, 4, 38, 60
7, 25897, Note_on_c, 4, 38, 0
7, 25914, Note_on_c, 4, 36, 60
7, 25984, Note_on_c, 4, 36, 0
7, 25997, Note_on_c, 4, 38, 82
7, 26015, Note_on_c, 4, 38, 0
7, 26039, Note_on_c, 4, 39, 91
7, 26092, Note_on_c, 4, 39, 0
7, 26109, Note_on_c, 4, 46, 56
7, 26122, Note_on_c, 4, 46, 0
7, 26143, Note_on_c, 4, 44, 60
7, 26167, Note_on_c, 4, 45, 64
7, 26174, Note_on_c, 4, 44, 0
7, 26220, Note_on_c, 4, 45, 0
7, 26226, Note_on_c, 4, 41, 64
7, 26256, Note_on_c, 4, 41, 0
7, 26396, Note_on_c, 4, 29, 82
7, 26434, Note_on_c, 4, 29, 0
7, 26592, Note_on_c, 4, 29, 91
7, 26624, Note_on_c, 4, 29, 0
7, 26833, Note_on_c, 4, 36, 52
7, 26856, Note_on_c, 4, 36, 0
7, 26877, Note_on_c, 4, 29, 40
7, 26941, Note_on_c, 4, 29, 0
7, 26947, Note_on_c, 4, 36, 64
7, 26992, Note_on_c, 4, 38, 64
7, 27001, Note_on_c, 4, 36, 0
7, 27053, Note_on_c, 4, 38, 0
7, 27068, Note_on_c, 4, 39, 82
7, 27120, Note_on_c, 4, 39, 0
7, 27348, Note_on_c, 4, 29, 73
7, 27426, Note_on_c, 4, 29, 0
7, 27547, Note_on_c, 4, 41, 73
7, 27651, Note_on_c, 4, 41, 0
7, 27666, Note_on_c, 4, 39, 73
7, 27700, Note_on_c, 4, 39, 0
7, 27700, Note_on_c, 4, 38, 60
7, 27768, Note_on_c, 4, 38, 0
7, 27785, Note_on_c, 4, 37, 91
7, 27817, Note_on_c, 4, 37, 0
7, 27823, Note_on_c, 4, 36, 56
7, 27893, Note_on_c, 4, 36, 0
7, 27911, Note_on_c, 4, 38, 64
7, 27938, Note_on_c, 4, 38, 0
7, 27951, Note_on_c, 4, 39, 64
7, 28030, Note_on_c, 4, 39, 0
7, 28034, Note_on_c, 4, 46, 56
7, 28059, Note_on_c, 4, 46, 0
7, 28070, Note_on_c, 4, 44, 48
7, 28079, Note_on_c, 4, 45, 56
7, 28090, Note_on_c, 4, 44, 0
7, 28144, Note_on_c, 4, 45, 0
7, 28148, Note_on_c, 4, 41, 73
7, 28175, Note_on_c, 4, 41, 0
7, 28313, Note_on_c, 4, 29, 91
7, 28402, Note_on_c, 4, 29, 0
7, 28513, Note_on_c, 4, 29, 82
7, 28564, Note_on_c, 4, 29, 0
7, 28751, Note_on_c, 4, 36, 52
7, 28765, Note_on_c, 4, 36, 0
7, 28789, Note_on_c, 4, 29, 64
7, 28870, Note_on_c, 4, 29, 0
7, 28872, Note_on_c, 4, 36, 73
7, 28911, Note_on_c, 4, 38, 64
7, 28919, Note_on_c, 4, 36, 0
7, 28978, Note_on_c, 4, 38, 0
7, 28989, Note_on_c, 4, 39, 91
7, 29027, Note_on_c, 4, 39, 0
7, 29274, Note_on_c, 4, 29, 64
7, 29369, Note_on_c, 4, 29, 0
7, 29468, Note_on_c, 4, 41, 73
7, 29531, Note_on_c, 4, 41, 0
7, 29598, Note_on_c, 4, 39, 82
7, 29634, Note_on_c, 4, 39, 0
7, 29636, Note_on_c, 4, 38, 48
7, 29702, Note_on_c, 4, 38, 0
7, 29715, Note_on_c, 4, 37, 73
7, 29749, Note_on_c, 4, 37, 0
7, 29751, Note_on_c, 4, 36, 56
7, 29815, Note_on_c, 4, 36, 0
7, 29838, Note_on_c, 4, 38, 64
7, 29874, Note_on_c, 4, 38, 0
7, 29874, Note_on_c, 4, 39, 73
7, 29935, Note_on_c, 4, 39, 0
7, 29952, Note_on_c, 4, 46, 60
7, 29977, Note_on_c, 4, 46, 0
7, 29984, Note_on_c, 4, 44, 60
7, 29997, Note_on_c, 4, 45, 56
7, 30006, Note_on_c, 4, 44, 0
7, 30074, Note_on_c, 4, 41, 73
7, 30076, Note_on_c, 4, 45, 0
7, 30110, Note_on_c, 4, 41, 0
7, 30239, Note_on_c, 4, 34, 60
7, 30301, Note_on_c, 4, 34, 0
7, 30357, Note_on_c, 4, 46, 64
7, 30424, Note_on_c, 4, 46, 0
7, 30476, Note_on_c, 4, 44, 60
7, 30555, Note_on_c, 4, 44, 0
7, 30592, Note_on_c, 4, 46, 64
7, 30629, Note_on_c, 4, 46, 0
7, 30667, Note_on_c, 4, 34, 60
7, 30790, Note_on_c, 4, 34, 0
7, 30833, Note_on_c, 4, 46, 48
7, 30905, Note_on_c, 4, 46, 0
7, 30952, Note_on_c, 4, 44, 56
7, 31056, Note_on_c, 4, 44, 0
7, 31073, Note_on_c, 4, 46, 56
7, 31109, Note_on_c, 4, 46, 0
7, 31151, Note_on_c, 4, 29, 44
7, 31226, Note_on_c, 4, 29, 0
7, 31276, Note_on_c, 4, 36, 60
7, 31323, Note_on_c, 4, 38, 73
7, 31329, Note_on_c, 4, 36, 0
7, 31367, Note_on_c, 4, 38, 0
7, 31392, Note_on_c, 4, 41, 82
7, 31467, Note_on_c, 4, 41, 0
7, 31511, Note_on_c, 4, 38, 82
7, 31549, Note_on_c, 4, 38, 0
7, 31550, Note_on_c, 4, 36, 52
7, 31617, Note_on_c, 4, 36, 0
7, 31628, Note_on_c, 4, 34, 82
7, 31751, Note_on_c, 4, 41, 73
7, 31756, Note_on_c, 4, 34, 0
7, 31783, Note_on_c, 4, 41, 0
7, 31796, Note_on_c, 4, 34, 73
7, 31809, Note_on_c, 4, 34, 0
7, 31870, Note_on_c, 4, 33, 91
7, 31980, Note_on_c, 4, 33, 0
7, 31992, Note_on_c, 4, 40, 82
7, 32012, Note_on_c, 4, 40, 0
7, 32027, Note_on_c, 4, 33, 52
7, 32066, Note_on_c, 4, 33, 0
7, 32106, Note_on_c, 4, 36, 73
7, 32234, Note_on_c, 4, 36, 0
7, 32268, Note_on_c, 4, 48, 73
7, 32329, Note_on_c, 4, 48, 0
7, 32351, Note_on_c, 4, 36, 44
7, 32365, Note_on_c, 4, 36, 0
7, 32389, Note_on_c, 4, 46, 82
7, 32506, Note_on_c, 4, 48, 73
7, 32510, Note_on_c, 4, 46, 0
7, 32542, Note_on_c, 4, 48, 0
7, 32591, Note_on_c, 4, 31, 91
7, 32731, Note_on_c, 4, 31, 0
7, 32748, Note_on_c, 4, 33, 91
7, 32832, Note_on_c, 4, 33, 0
7, 32870, Note_on_c, 4, 34, 60
7, 32969, Note_on_c, 4, 34, 0
7, 32993, Note_on_c, 4, 36, 64
7, 33027, Note_on_c, 4, 36, 0
7, 33074, Note_on_c, 4, 29, 73
7, 33173, Note_on_c, 4, 29, 0
7, 33312, Note_on_c, 4, 29, 73
7, 33359, Note_on_c, 4, 29, 0
7, 33551, Note_on_c, 4, 36, 64
7, 33587, Note_on_c, 4, 36, 0
7, 33591, Note_on_c, 4, 29, 52
7, 33665, Note_on_c, 4, 29, 0
7, 33668, Note_on_c, 4, 36, 73
7, 33708, Note_on_c, 4, 38, 73
7, 33717, Note_on_c, 4, 36, 0
7, 33777, Note_on_c, 4, 38, 0
7, 33786, Note_on_c, 4, 39, 73
7, 33829, Note_on_c, 4, 39, 0
7, 33985, Note_on_c, 4, 38, 56
7, 34018, Note_on_c, 4, 38, 0
7, 34022, Note_on_c, 4, 36, 73
7, 34042, Note_on_c, 4, 36, 0
7, 34068, Note_on_c, 4, 29, 48
7, 34171, Note_on_c, 4, 29, 0
7, 34269, Note_on_c, 4, 41, 82
7, 34303, Note_on_c, 4, 41, 0
7, 34389, Note_on_c, 4, 29, 44
7, 34416, Note_on_c, 4, 29, 0
7, 34426, Note_on_c, 4, 39, 52
7, 34510, Note_on_c, 4, 39, 0
7, 34512, Note_on_c, 4, 38, 60
7, 34532, Note_on_c, 4, 38, 0
7, 34548, Note_on_c, 4, 36, 52
7, 34615, Note_on_c, 4, 36, 0
7, 34631, Note_on_c, 4, 38, 56
7, 34664, Note_on_c, 4, 38, 0
7, 34669, Note_on_c, 4, 39, 64
7, 34736, Note_on_c, 4, 39, 0
7, 34750, Note_on_c, 4, 46, 52
7, 34777, Note_on_c, 4, 46, 0
7, 34785, Note_on_c, 4, 44, 60
7, 34797, Note_on_c, 4, 45, 52
7, 34806, Note_on_c, 4, 44, 0
7, 34857, Note_on_c, 4, 45, 0
7, 34862, Note_on_c, 4, 41, 52
7, 34893, Note_on_c, 4, 41, 0
7, 35023, Note_on_c, 4, 29, 73
7, 35075, Note_on_c, 4, 29, 0
7, 35232, Note_on_c, 4, 29, 73
7, 35266, Note_on_c, 4, 29, 0
7, 35516, Note_on_c, 4, 29, 64
7, 35572, Note_on_c, 4, 29, 0
7, 35712, Note_on_c, 4, 29, 82
7, 35745, Note_on_c, 4, 29, 0
7, 35999, Note_on_c, 4, 29, 91
7, 36055, Note_on_c, 4, 29, 0
7, 36193, Note_on_c, 4, 29, 60
7, 36235, Note_on_c, 4, 29, 0
7, 36470, Note_on_c, 4, 29, 91
7, 36514, Note_on_c, 4, 29, 0
7, 36679, Note_on_c, 4, 29, 73
7, 36717, Note_on_c, 4, 29, 0
7, 36877, Note_on_c, 4, 36, 60
7, 36908, Note_on_c, 4, 38, 60
7, 36910, Note_on_c, 4, 36, 0
7, 36930, Note_on_c, 4, 38, 0
7, 36953, Note_on_c, 4, 29, 60
7, 37067, Note_on_c, 4, 29, 0
7, 37155, Note_on_c, 4, 29, 64
7, 37188, Note_on_c, 4, 29, 0
7, 37434, Note_on_c, 4, 29, 73
7, 37553, Note_on_c, 4, 29, 0
7, 37631, Note_on_c, 4, 29, 73
7, 37659, Note_on_c, 4, 29, 0
7, 37915, Note_on_c, 4, 29, 73
7, 38028, Note_on_c, 4, 29, 0
7, 38113, Note_on_c, 4, 29, 91
7, 38138, Note_on_c, 4, 29, 0
7, 38397, Note_on_c, 4, 29, 73
7, 38514, Note_on_c, 4, 29, 0
7, 38586, Note_on_c, 4, 29, 64
7, 38614, Note_on_c, 4, 29, 0
7, 38873, Note_on_c, 4, 29, 73
7, 38972, Note_on_c, 4, 29, 0
7, 39074, Note_on_c, 4, 29, 82
7, 39109, Note_on_c, 4, 29, 0
7, 39282, Note_on_c, 4, 39, 82
7, 39309, Note_on_c, 4, 41, 82
7, 39320, Note_on_c, 4, 39, 0
7, 39339, Note_on_c, 4, 41, 0
7, 39348, Note_on_c, 4, 29, 73
7, 39532, Note_on_c, 4, 29, 0
7, 39550, Note_on_c, 4, 29, 73
7, 39566, Note_on_c, 4, 29, 0
7, 39780, Note_on_c, 4, 29, 64
7, 39849, Note_on_c, 4, 29, 0
7, 40024, Note_on_c, 4, 29, 91
7, 40068, Note_on_c, 4, 29, 0
7, 40316, Note_on_c, 4, 29, 64
7, 40425, Note_on_c, 4, 29, 0
7, 40512, Note_on_c, 4, 29, 91
7, 40534, Note_on_c, 4, 29, 0
7, 40751, Note_on_c, 4, 39, 82
7, 40780, Note_on_c, 4, 39, 0
7, 40788, Note_on_c, 4, 41, 73
7, 40969, Note_on_c, 4, 41, 0
7, 40992, Note_on_c, 4, 41, 82
7, 41020, Note_on_c, 4, 41, 0
7, 41238, Note_on_c, 4, 29, 60
7, 41256, Note_on_c, 4, 29, 0
7, 41274, Note_on_c, 4, 41, 64
7, 41400, Note_on_c, 4, 41, 0
7, 41472, Note_on_c, 4, 41, 82
7, 41499, Note_on_c, 4, 41, 0
7, 41676, Note_on_c, 4, 35, 56
7, 41697, Note_on_c, 4, 35, 0
7, 41712, Note_on_c, 4, 36, 82
7, 41724, Note_on_c, 4, 36, 0
7, 41755, Note_on_c, 4, 29, 91
7, 41861, Note_on_c, 4, 29, 0
7, 41955, Note_on_c, 4, 29, 91
7, 41982, Note_on_c, 4, 29, 0
7, 42238, Note_on_c, 4, 29, 60
7, 42359, Note_on_c, 4, 29, 0
7, 42437, Note_on_c, 4, 29, 91
7, 42470, Note_on_c, 4, 29, 0
7, 42646, Note_on_c, 4, 27, 100
7, 42673, Note_on_c, 4, 27, 0
7, 42675, Note_on_c, 4, 28, 64
7, 42702, Note_on_c, 4, 28, 0
7, 42715, Note_on_c, 4, 29, 91
7, 42827, Note_on_c, 4, 29, 0
7, 42915, Note_on_c, 4, 29, 91
7, 42948, Note_on_c, 4, 29, 0
7, 43145, Note_on_c, 4, 29, 100
7, 43296, Note_on_c, 4, 29, 0
7, 43387, Note_on_c, 4, 29, 91
7, 43416, Note_on_c, 4, 29, 0
7, 43628, Note_on_c, 4, 30, 91
7, 43781, Note_on_c, 4, 30, 0
7, 43876, Note_on_c, 4, 30, 91
7, 43932, Note_on_c, 4, 30, 0
7, 44116, Note_on_c, 4, 37, 82
7, 44148, Note_on_c, 4, 37, 0
7, 44154, Note_on_c, 4, 30, 73
7, 44230, Note_on_c, 4, 30, 0
7, 44237, Note_on_c, 4, 37, 64
7, 44269, Note_on_c, 4, 39, 73
7, 44280, Note_on_c, 4, 37, 0
7, 44331, Note_on_c, 4, 39, 0
7, 44349, Note_on_c, 4, 40, 73
7, 44414, Note_on_c, 4, 40, 0
7, 44473, Note_on_c, 4, 39, 64
7, 44498, Note_on_c, 4, 39, 0
7, 44508, Note_on_c, 4, 37, 48
7, 44538, Note_on_c, 4, 37, 0
7, 44634, Note_on_c, 4, 30, 73
7, 44727, Note_on_c, 4, 30, 0
7, 44826, Note_on_c, 4, 42, 82
7, 44893, Note_on_c, 4, 42, 0
7, 44994, Note_on_c, 4, 40, 64
7, 45071, Note_on_c, 4, 40, 0
7, 45077, Note_on_c, 4, 39, 64
7, 45102, Note_on_c, 4, 39, 0
7, 45111, Note_on_c, 4, 37, 73
7, 45198, Note_on_c, 4, 39, 64
7, 45200, Note_on_c, 4, 37, 0
7, 45223, Note_on_c, 4, 39, 0
7, 45232, Note_on_c, 4, 40, 64
7, 45311, Note_on_c, 4, 40, 0
7, 45313, Note_on_c, 4, 47, 60
7, 45340, Note_on_c, 4, 47, 0
7, 45351, Note_on_c, 4, 45, 60
7, 45373, Note_on_c, 4, 46, 52
7, 45380, Note_on_c, 4, 45, 0
7, 45423, Note_on_c, 4, 46, 0
7, 45431, Note_on_c, 4, 42, 82
7, 45463, Note_on_c, 4, 42, 0
7, 45553, Note_on_c, 4, 30, 82
7, 45706, Note_on_c, 4, 30, 0
7, 45796, Note_on_c, 4, 30, 82
7, 45834, Note_on_c, 4, 30, 0
7, 46034, Note_on_c, 4, 37, 73
7, 46063, Note_on_c, 4, 37, 0
7, 46074, Note_on_c, 4, 30, 56
7, 46146, Note_on_c, 4, 30, 0
7, 46151, Note_on_c, 4, 37, 73
7, 46184, Note_on_c, 4, 39, 73
7, 46195, Note_on_c, 4, 37, 0
7, 46263, Note_on_c, 4, 39, 0
7, 46263, Note_on_c, 4, 40, 73
7, 46308, Note_on_c, 4, 40, 0
7, 46470, Note_on_c, 4, 39, 56
7, 46492, Note_on_c, 4, 39, 0
7, 46504, Note_on_c, 4, 37, 73
7, 46519, Note_on_c, 4, 37, 0
7, 46550, Note_on_c, 4, 30, 73
7, 46647, Note_on_c, 4, 30, 0
7, 46748, Note_on_c, 4, 42, 64
7, 46798, Note_on_c, 4, 42, 0
7, 46871, Note_on_c, 4, 30, 56
7, 46907, Note_on_c, 4, 30, 0
7, 46908, Note_on_c, 4, 40, 64
7, 46997, Note_on_c, 4, 40, 0
7, 47000, Note_on_c, 4, 39, 64
7, 47024, Note_on_c, 4, 39, 0
7, 47033, Note_on_c, 4, 37, 64
7, 47105, Note_on_c, 4, 37, 0
7, 47118, Note_on_c, 4, 39, 60
7, 47147, Note_on_c, 4, 39, 0
7, 47150, Note_on_c, 4, 40, 64
7, 47226, Note_on_c, 4, 47, 56
7, 47239, Note_on_c, 4, 40, 0
7, 47259, Note_on_c, 4, 47, 0
7, 47260, Note_on_c, 4, 45, 64
7, 47286, Note_on_c, 4, 45, 0
7, 47286, Note_on_c, 4, 46, 56
7, 47345, Note_on_c, 4, 46, 0
7, 47349, Note_on_c, 4, 42, 82
7, 47379, Note_on_c, 4, 42, 0
7, 47468, Note_on_c, 4, 35, 82
7, 47581, Note_on_c, 4, 35, 0
7, 47633, Note_on_c, 4, 47, 73
7, 47706, Note_on_c, 4, 47, 0
7, 47752, Note_on_c, 4, 45, 64
7, 47855, Note_on_c, 4, 45, 0
7, 47871, Note_on_c, 4, 47, 64
7, 47913, Note_on_c, 4, 47, 0
7, 47952, Note_on_c, 4, 35, 91
7, 48084, Note_on_c, 4, 35, 0
7, 48116, Note_on_c, 4, 47, 73
7, 48201, Note_on_c, 4, 47, 0
7, 48233, Note_on_c, 4, 45, 64
7, 48350, Note_on_c, 4, 45, 0
7, 48350, Note_on_c, 4, 47, 52
7, 48360, Note_on_c, 4, 47, 0
7, 48424, Note_on_c, 4, 30, 73
7, 48524, Note_on_c, 4, 30, 0
7, 48560, Note_on_c, 4, 37, 60
7, 48600, Note_on_c, 4, 39, 60
7, 48603, Note_on_c, 4, 37, 0
7, 48654, Note_on_c, 4, 39, 0
7, 48664, Note_on_c, 4, 42, 73
7, 48742, Note_on_c, 4, 42, 0
7, 48787, Note_on_c, 4, 39, 82
7, 48818, Note_on_c, 4, 39, 0
7, 48825, Note_on_c, 4, 37, 48
7, 48855, Note_on_c, 4, 37, 0
7, 48900, Note_on_c, 4, 35, 91
7, 48985, Note_on_c, 4, 35, 0
7, 49020, Note_on_c, 4, 42, 60
7, 49045, Note_on_c, 4, 42, 0
7, 49059, Note_on_c, 4, 35, 73
7, 49081, Note_on_c, 4, 35, 0
7, 49140, Note_on_c, 4, 34, 91
7, 49239, Note_on_c, 4, 34, 0
7, 49261, Note_on_c, 4, 42, 56
7, 49279, Note_on_c, 4, 42, 0
7, 49303, Note_on_c, 4, 34, 48
7, 49321, Note_on_c, 4, 34, 0
7, 49380, Note_on_c, 4, 37, 82
7, 49519, Note_on_c, 4, 37, 0
7, 49549, Note_on_c, 4, 49, 64
7, 49629, Note_on_c, 4, 49, 0
7, 49645, Note_on_c, 4, 37, 52
7, 49663, Note_on_c, 4, 37, 0
7, 49678, Note_on_c, 4, 47, 73
7, 49788, Note_on_c, 4, 49, 73
7, 49791, Note_on_c, 4, 47, 0
7, 49833, Note_on_c, 4, 49, 0
7, 49869, Note_on_c, 4, 32, 91
7, 50011, Note_on_c, 4, 32, 0
7, 50026, Note_on_c, 4, 34, 73
7, 50114, Note_on_c, 4, 34, 0
7, 50148, Note_on_c, 4, 35, 91
7, 50260, Note_on_c, 4, 35, 0
7, 50272, Note_on_c, 4, 37, 60
7, 50283, Note_on_c, 4, 37, 0
7, 50352, Note_on_c, 4, 34, 91
7, 50501, Note_on_c, 4, 34, 0
7, 50519, Note_on_c, 4, 40, 64
7, 50532, Note_on_c, 4, 40, 0
7, 50593, Note_on_c, 4, 34, 82
7, 50752, Note_on_c, 4, 34, 0
7, 50835, Note_on_c, 4, 37, 91
7, 50864, Note_on_c, 4, 37, 0
7, 50875, Note_on_c, 4, 34, 64
7, 50949, Note_on_c, 4, 34, 0
7, 50958, Note_on_c, 4, 37, 82
7, 50995, Note_on_c, 4, 40, 91
7, 50997, Note_on_c, 4, 37, 0
7, 51053, Note_on_c, 4, 40, 0
7, 51071, Note_on_c, 4, 39, 100
7, 51253, Note_on_c, 4, 39, 0
7, 51345, Note_on_c, 4, 37, 73
7, 51442, Note_on_c, 4, 37, 0
7, 51475, Note_on_c, 4, 49, 73
7, 51545, Note_on_c, 4, 49, 0
7, 51561, Note_on_c, 4, 37, 64
7, 51581, Note_on_c, 4, 37, 0
7, 51599, Note_on_c, 4, 47, 64
7, 51709, Note_on_c, 4, 49, 64
7, 51716, Note_on_c, 4, 47, 0
7, 51736, Note_on_c, 4, 49, 0
7, 51798, Note_on_c, 4, 30, 64
7, 51799, Note_on_c, 4, 32, 44
7, 51808, Note_on_c, 4, 31, 52
7, 51814, Note_on_c, 4, 30, 0
7, 51827, Note_on_c, 4, 31, 0
7, 51839, Note_on_c, 4, 32, 0
7, 51853, Note_on_c, 4, 32, 36
7, 51935, Note_on_c, 4, 32, 0
7, 51955, Note_on_c, 4, 34, 64
7, 52016, Note_on_c, 4, 34, 0
7, 52070, Note_on_c, 4, 35, 64
7, 52171, Note_on_c, 4, 35, 0
7, 52185, Note_on_c, 4, 37, 60
7, 52221, Note_on_c, 4, 37, 0
7, 52264, Note_on_c, 4, 30, 73
7, 52412, Note_on_c, 4, 30, 0
7, 52517, Note_on_c, 4, 30, 91
7, 52558, Note_on_c, 4, 30, 0
7, 52756, Note_on_c, 4, 37, 82
7, 52796, Note_on_c, 4, 37, 0
7, 52798, Note_on_c, 4, 30, 56
7, 52864, Note_on_c, 4, 30, 0
7, 52872, Note_on_c, 4, 37, 73
7, 52909, Note_on_c, 4, 39, 64
7, 52915, Note_on_c, 4, 37, 0
7, 52981, Note_on_c, 4, 39, 0
7, 52984, Note_on_c, 4, 40, 73
7, 53027, Note_on_c, 4, 40, 0
7, 53192, Note_on_c, 4, 39, 60
7, 53223, Note_on_c, 4, 39, 0
7, 53227, Note_on_c, 4, 37, 73
7, 53248, Note_on_c, 4, 37, 0
7, 53268, Note_on_c, 4, 30, 82
7, 53382, Note_on_c, 4, 30, 0
7, 53465, Note_on_c, 4, 42, 91
7, 53512, Note_on_c, 4, 42, 0
7, 53587, Note_on_c, 4, 30, 64
7, 53622, Note_on_c, 4, 30, 0
7, 53622, Note_on_c, 4, 40, 82
7, 53710, Note_on_c, 4, 40, 0
7, 53712, Note_on_c, 4, 39, 64
7, 53739, Note_on_c, 4, 39, 0
7, 53746, Note_on_c, 4, 37, 64
7, 53815, Note_on_c, 4, 37, 0
7, 53831, Note_on_c, 4, 39, 73
7, 53860, Note_on_c, 4, 39, 0
7, 53863, Note_on_c, 4, 40, 64
7, 53935, Note_on_c, 4, 47, 64
7, 53937, Note_on_c, 4, 40, 0
7, 53974, Note_on_c, 4, 47, 0
7, 53983, Note_on_c, 4, 45, 73
7, 54002, Note_on_c, 4, 46, 56
7, 54012, Note_on_c, 4, 45, 0
7, 54062, Note_on_c, 4, 46, 0
7, 54066, Note_on_c, 4, 42, 82
7, 54107, Note_on_c, 4, 42, 0
7, 54235, Note_on_c, 4, 37, 82
7, 54280, Note_on_c, 4, 37, 0
7, 54356, Note_on_c, 4, 49, 64
7, 54404, Note_on_c, 4, 49, 0
7, 54471, Note_on_c, 4, 47, 73
7, 54536, Note_on_c, 4, 47, 0
7, 54592, Note_on_c, 4, 49, 73
7, 54638, Note_on_c, 4, 49, 0
7, 54718, Note_on_c, 4, 35, 64
7, 54777, Note_on_c, 4, 35, 0
7, 54840, Note_on_c, 4, 47, 73
7, 54901, Note_on_c, 4, 47, 0
7, 54956, Note_on_c, 4, 45, 73
7, 55019, Note_on_c, 4, 45, 0
7, 55071, Note_on_c, 4, 47, 64
7, 55114, Note_on_c, 4, 47, 0
7, 55194, Note_on_c, 4, 30, 60
7, 55310, Note_on_c, 4, 30, 0
7, 55401, Note_on_c, 4, 30, 73
7, 55437, Note_on_c, 4, 30, 0
7, 55633, Note_on_c, 4, 37, 73
7, 55671, Note_on_c, 4, 37, 0
7, 55676, Note_on_c, 4, 30, 56
7, 55745, Note_on_c, 4, 30, 0
7, 55750, Note_on_c, 4, 37, 73
7, 55790, Note_on_c, 4, 39, 73
7, 55797, Note_on_c, 4, 37, 0
7, 55869, Note_on_c, 4, 40, 82
7, 55873, Note_on_c, 4, 39, 0
7, 55927, Note_on_c, 4, 40, 0
7, 56076, Note_on_c, 4, 39, 56
7, 56102, Note_on_c, 4, 39, 0
7, 56104, Note_on_c, 4, 37, 73
7, 56125, Note_on_c, 4, 37, 0
7, 56149, Note_on_c, 4, 30, 64
7, 56255, Note_on_c, 4, 30, 0
7, 56349, Note_on_c, 4, 42, 91
7, 56385, Note_on_c, 4, 42, 0
7, 56475, Note_on_c, 4, 30, 73
7, 56508, Note_on_c, 4, 30, 0
7, 56508, Note_on_c, 4, 40, 73
7, 56590, Note_on_c, 4, 40, 0
7, 56592, Note_on_c, 4, 39, 64
7, 56621, Note_on_c, 4, 39, 0
7, 56625, Note_on_c, 4, 37, 73
7, 56697, Note_on_c, 4, 37, 0
7, 56708, Note_on_c, 4, 39, 73
7, 56738, Note_on_c, 4, 39, 0
7, 56742, Note_on_c, 4, 40, 73
7, 56825, Note_on_c, 4, 40, 0
7, 56827, Note_on_c, 4, 47, 64
7, 56856, Note_on_c, 4, 45, 64
7, 56863, Note_on_c, 4, 47, 0
7, 56874, Note_on_c, 4, 46, 52
7, 56881, Note_on_c, 4, 45, 0
7, 56946, Note_on_c, 4, 46, 0
7, 56948, Note_on_c, 4, 42, 91
7, 56988, Note_on_c, 4, 42, 0
7, 57119, Note_on_c, 4, 37, 73
7, 57173, Note_on_c, 4, 37, 0
7, 57234, Note_on_c, 4, 49, 73
7, 57283, Note_on_c, 4, 49, 0
7, 57321, Note_on_c, 4, 37, 60
7, 57339, Note_on_c, 4, 37, 0
7, 57357, Note_on_c, 4, 47, 73
7, 57444, Note_on_c, 4, 47, 0
7, 57474, Note_on_c, 4, 49, 73
7, 57534, Note_on_c, 4, 49, 0
7, 57599, Note_on_c, 4, 35, 60
7, 57669, Note_on_c, 4, 35, 0
7, 57712, Note_on_c, 4, 47, 64
7, 57775, Note_on_c, 4, 47, 0
7, 57799, Note_on_c, 4, 35, 60
7, 57822, Note_on_c, 4, 35, 0
7, 57833, Note_on_c, 4, 45, 60
7, 57910, Note_on_c, 4, 45, 0
7, 57916, Note_on_c, 4, 35, 73
7, 57936, Note_on_c, 4, 35, 0
7, 57948, Note_on_c, 4, 40, 82
7, 58020, Note_on_c, 4, 40, 0
7, 58037, Note_on_c, 4, 42, 60
7, 58176, Note_on_c, 4, 42, 0
7, 58191, Note_on_c, 4, 30, 56
7, 58215, Note_on_c, 4, 30, 0
7, 58273, Note_on_c, 4, 30, 82
7, 58312, Note_on_c, 4, 30, 0
7, 58516, Note_on_c, 4, 37, 60
7, 58556, Note_on_c, 4, 30, 56
7, 58559, Note_on_c, 4, 37, 0
7, 58632, Note_on_c, 4, 30, 0
7, 58644, Note_on_c, 4, 37, 73
7, 58680, Note_on_c, 4, 39, 73
7, 58689, Note_on_c, 4, 37, 0
7, 58754, Note_on_c, 4, 40, 73
7, 58760, Note_on_c, 4, 39, 0
7, 58796, Note_on_c, 4, 40, 0
7, 58957, Note_on_c, 4, 40, 73
7, 58991, Note_on_c, 4, 42, 82
7, 58995, Note_on_c, 4, 40, 0
7, 59016, Note_on_c, 4, 42, 0
7, 59032, Note_on_c, 4, 30, 60
7, 59156, Note_on_c, 4, 30, 0
7, 59232, Note_on_c, 4, 42, 82
7, 59271, Note_on_c, 4, 42, 0
7, 59356, Note_on_c, 4, 30, 82
7, 59388, Note_on_c, 4, 30, 0
7, 59390, Note_on_c, 4, 40, 73
7, 59473, Note_on_c, 4, 40, 0
7, 59475, Note_on_c, 4, 39, 52
7, 59500, Note_on_c, 4, 39, 0
7, 59508, Note_on_c, 4, 37, 73
7, 59583, Note_on_c, 4, 37, 0
7, 59594, Note_on_c, 4, 39, 64
7, 59621, Note_on_c, 4, 39, 0
7, 59623, Note_on_c, 4, 40, 60
7, 59704, Note_on_c, 4, 47, 73
7, 59715, Note_on_c, 4, 40, 0
7, 59731, Note_on_c, 4, 47, 0
7, 59742, Note_on_c, 4, 45, 91
7, 59762, Note_on_c, 4, 46, 56
7, 59770, Note_on_c, 4, 45, 0
7, 59823, Note_on_c, 4, 46, 0
7, 59829, Note_on_c, 4, 42, 73
7, 59892, Note_on_c, 4, 42, 0
7, 59993, Note_on_c, 4, 37, 73
7, 60056, Note_on_c, 4, 37, 0
7, 60110, Note_on_c, 4, 49, 60
7, 60184, Note_on_c, 4, 49, 0
7, 60200, Note_on_c, 4, 37, 56
7, 60218, Note_on_c, 4, 37, 0
7, 60233, Note_on_c, 4, 47, 64
7, 60310, Note_on_c, 4, 47, 0
7, 60312, Note_on_c, 4, 37, 48
7, 60334, Note_on_c, 4, 37, 0
7, 60350, Note_on_c, 4, 49, 64
7, 60417, Note_on_c, 4, 49, 0
7, 60478, Note_on_c, 4, 35, 73
7, 60548, Note_on_c, 4, 35, 0
7, 60595, Note_on_c, 4, 47, 64
7, 60667, Note_on_c, 4, 47, 0
7, 60684, Note_on_c, 4, 35, 56
7, 60707, Note_on_c, 4, 35, 0
7, 60716, Note_on_c, 4, 45, 64
7, 60797, Note_on_c, 4, 45, 0
7, 60799, Note_on_c, 4, 35, 64
7, 60815, Note_on_c, 4, 35, 0
7, 60831, Note_on_c, 4, 40, 73
7, 60895, Note_on_c, 4, 40, 0
7, 60911, Note_on_c, 4, 42, 73
7, 61064, Note_on_c, 4, 42, 0
7, 61073, Note_on_c, 4, 30, 48
7, 61082, Note_on_c, 4, 30, 0
7, 61162, Note_on_c, 4, 42, 91
7, 61199, Note_on_c, 4, 42, 0
7, 61390, Note_on_c, 4, 37, 64
7, 61428, Note_on_c, 4, 37, 0
7, 61431, Note_on_c, 4, 30, 64
7, 61512, Note_on_c, 4, 30, 0
7, 61514, Note_on_c, 4, 37, 73
7, 61552, Note_on_c, 4, 39, 73
7, 61565, Note_on_c, 4, 37, 0
7, 61630, Note_on_c, 4, 39, 0
7, 61632, Note_on_c, 4, 40, 73
7, 61680, Note_on_c, 4, 40, 0
7, 61796, Note_on_c, 4, 33, 82
7, 61864, Note_on_c, 4, 33, 0
7, 61908, Note_on_c, 4, 30, 73
7, 62019, Note_on_c, 4, 30, 0
7, 62111, Note_on_c, 4, 42, 64
7, 62152, Note_on_c, 4, 42, 0
7, 62237, Note_on_c, 4, 30, 73
7, 62268, Note_on_c, 4, 30, 0
7, 62275, Note_on_c, 4, 40, 73
7, 62358, Note_on_c, 4, 40, 0
7, 62358, Note_on_c, 4, 39, 60
7, 62383, Note_on_c, 4, 39, 0
7, 62392, Note_on_c, 4, 37, 64
7, 62464, Note_on_c, 4, 37, 0
7, 62475, Note_on_c, 4, 39, 64
7, 62504, Note_on_c, 4, 39, 0
7, 62509, Note_on_c, 4, 40, 82
7, 62591, Note_on_c, 4, 47, 64
7, 62596, Note_on_c, 4, 40, 0
7, 62616, Note_on_c, 4, 47, 0
7, 62620, Note_on_c, 4, 45, 60
7, 62642, Note_on_c, 4, 46, 48
7, 62645, Note_on_c, 4, 45, 0
7, 62707, Note_on_c, 4, 46, 0
7, 62710, Note_on_c, 4, 42, 73
7, 62757, Note_on_c, 4, 42, 0
7, 62870, Note_on_c, 4, 37, 73
7, 62940, Note_on_c, 4, 37, 0
7, 62997, Note_on_c, 4, 49, 64
7, 63069, Note_on_c, 4, 49, 0
7, 63083, Note_on_c, 4, 37, 56
7, 63110, Note_on_c, 4, 37, 0
7, 63119, Note_on_c, 4, 47, 64
7, 63193, Note_on_c, 4, 47, 0
7, 63236, Note_on_c, 4, 49, 64
7, 63305, Note_on_c, 4, 49, 0
7, 63359, Note_on_c, 4, 35, 60
7, 63424, Note_on_c, 4, 35, 0
7, 63481, Note_on_c, 4, 47, 64
7, 63537, Note_on_c, 4, 47, 0
7, 63597, Note_on_c, 4, 45, 64
7, 63651, Note_on_c, 4, 45, 0
7, 63718, Note_on_c, 4, 47, 73
7, 63756, Note_on_c, 4, 47, 0
7, 63837, Note_on_c, 4, 30, 64
7, 63954, Note_on_c, 4, 30, 0
7, 64040, Note_on_c, 4, 30, 73
7, 64078, Note_on_c, 4, 30, 0
7, 64278, Note_on_c, 4, 37, 60
7, 64318, Note_on_c, 4, 37, 0
7, 64318, Note_on_c, 4, 30, 64
7, 64393, Note_on_c, 4, 30, 0
7, 64398, Note_on_c, 4, 37, 64
7, 64433, Note_on_c, 4, 39, 64
7, 64444, Note_on_c, 4, 37, 0
7, 64511, Note_on_c, 4, 40, 82
7, 64516, Note_on_c, 4, 39, 0
7, 64581, Note_on_c, 4, 40, 0
7, 64719, Note_on_c, 4, 39, 73
7, 64752, Note_on_c, 4, 37, 82
7, 64755, Note_on_c, 4, 39, 0
7, 64781, Note_on_c, 4, 37, 0
7, 64795, Note_on_c, 4, 30, 82
7, 64903, Note_on_c, 4, 30, 0
7, 64992, Note_on_c, 4, 42, 91
7, 65028, Note_on_c, 4, 42, 0
7, 65114, Note_on_c, 4, 30, 82
7, 65148, Note_on_c, 4, 30, 0
7, 65148, Note_on_c, 4, 40, 73
7, 65231, Note_on_c, 4, 40, 0
7, 65233, Note_on_c, 4, 39, 60
7, 65258, Note_on_c, 4, 39, 0
7, 65269, Note_on_c, 4, 37, 64
7, 65334, Note_on_c, 4, 37, 0
7, 65349, Note_on_c, 4, 39, 64
7, 65374, Note_on_c, 4, 39, 0
7, 65381, Note_on_c, 4, 40, 64
7, 65466, Note_on_c, 4, 47, 60
7, 65468, Note_on_c, 4, 40, 0
7, 65495, Note_on_c, 4, 47, 0
7, 65495, Note_on_c, 4, 45, 73
7, 65515, Note_on_c, 4, 45, 0
7, 65517, Note_on_c, 4, 46, 73
7, 65578, Note_on_c, 4, 46, 0
7, 65583, Note_on_c, 4, 42, 82
7, 65630, Note_on_c, 4, 42, 0
7, 65755, Note_on_c, 4, 37, 73
7, 65807, Note_on_c, 4, 37, 0
7, 65870, Note_on_c, 4, 37, 73
7, 65956, Note_on_c, 4, 37, 0
7, 65991, Note_on_c, 4, 35, 60
7, 66077, Note_on_c, 4, 35, 0
7, 66109, Note_on_c, 4, 37, 64
7, 66205, Note_on_c, 4, 37, 0
7, 66234, Note_on_c, 4, 35, 52
7, 66319, Note_on_c, 4, 35, 0
7, 66353, Note_on_c, 4, 39, 64
7, 66452, Note_on_c, 4, 39, 0
7, 66474, Note_on_c, 4, 40, 52
7, 66554, Note_on_c, 4, 40, 0
7, 66596, Note_on_c, 4, 41, 64
7, 66659, Note_on_c, 4, 41, 0
7, 66673, Note_on_c, 4, 42, 56
7, 66706, Note_on_c, 4, 42, 0
7, 66715, Note_on_c, 4, 30, 48
7, 66821, Note_on_c, 4, 30, 0
7, 66921, Note_on_c, 4, 30, 82
7, 66964, Note_on_c, 4, 30, 0
7, 67153, Note_on_c, 4, 37, 73
7, 67192, Note_on_c, 4, 37, 0
7, 67201, Note_on_c, 4, 30, 56
7, 67268, Note_on_c, 4, 30, 0
7, 67279, Note_on_c, 4, 37, 64
7, 67317, Note_on_c, 4, 39, 60
7, 67328, Note_on_c, 4, 37, 0
7, 67393, Note_on_c, 4, 39, 0
7, 67393, Note_on_c, 4, 40, 73
7, 67434, Note_on_c, 4, 40, 0
7, 67595, Note_on_c, 4, 33, 64
7, 67632, Note_on_c, 4, 33, 0
7, 67634, Note_on_c, 4, 34, 82
7, 67656, Note_on_c, 4, 34, 0
7, 67672, Note_on_c, 4, 30, 64
7, 67775, Note_on_c, 4, 30, 0
7, 67867, Note_on_c, 4, 42, 82
7, 67912, Note_on_c, 4, 42, 0
7, 67991, Note_on_c, 4, 30, 60
7, 68025, Note_on_c, 4, 30, 0
7, 68031, Note_on_c, 4, 40, 73
7, 68108, Note_on_c, 4, 39, 64
7, 68110, Note_on_c, 4, 40, 0
7, 68136, Note_on_c, 4, 39, 0
7, 68147, Note_on_c, 4, 37, 73
7, 68213, Note_on_c, 4, 37, 0
7, 68229, Note_on_c, 4, 39, 64
7, 68258, Note_on_c, 4, 39, 0
7, 68262, Note_on_c, 4, 40, 73
7, 68347, Note_on_c, 4, 47, 52
7, 68350, Note_on_c, 4, 40, 0
7, 68377, Note_on_c, 4, 47, 0
7, 68379, Note_on_c, 4, 45, 60
7, 68400, Note_on_c, 4, 46, 64
7, 68401, Note_on_c, 4, 45, 0
7, 68459, Note_on_c, 4, 46, 0
7, 68464, Note_on_c, 4, 42, 73
7, 68520, Note_on_c, 4, 42, 0
7, 68630, Note_on_c, 4, 37, 82
7, 68693, Note_on_c, 4, 37, 0
7, 68754, Note_on_c, 4, 49, 64
7, 68819, Note_on_c, 4, 49, 0
7, 68846, Note_on_c, 4, 37, 60
7, 68866, Note_on_c, 4, 37, 0
7, 68879, Note_on_c, 4, 47, 73
7, 68947, Note_on_c, 4, 47, 0
7, 68996, Note_on_c, 4, 49, 73
7, 69052, Note_on_c, 4, 49, 0
7, 69115, Note_on_c, 4, 35, 60
7, 69181, Note_on_c, 4, 35, 0
7, 69230, Note_on_c, 4, 47, 64
7, 69304, Note_on_c, 4, 47, 0
7, 69355, Note_on_c, 4, 45, 64
7, 69433, Note_on_c, 4, 45, 0
7, 69437, Note_on_c, 4, 35, 64
7, 69452, Note_on_c, 4, 35, 0
7, 69472, Note_on_c, 4, 40, 64
7, 69540, Note_on_c, 4, 40, 0
7, 69551, Note_on_c, 4, 42, 60
7, 69691, Note_on_c, 4, 42, 0
7, 69800, Note_on_c, 4, 42, 82
7, 69839, Note_on_c, 4, 42, 0
7, 70033, Note_on_c, 4, 37, 82
7, 70064, Note_on_c, 4, 37, 0
7, 70072, Note_on_c, 4, 30, 56
7, 70149, Note_on_c, 4, 30, 0
7, 70160, Note_on_c, 4, 37, 82
7, 70198, Note_on_c, 4, 39, 64
7, 70207, Note_on_c, 4, 37, 0
7, 70277, Note_on_c, 4, 40, 73
7, 70283, Note_on_c, 4, 39, 0
7, 70315, Note_on_c, 4, 40, 0
7, 70482, Note_on_c, 4, 28, 100
7, 70512, Note_on_c, 4, 28, 0
7, 70515, Note_on_c, 4, 29, 91
7, 70542, Note_on_c, 4, 29, 0
7, 70559, Note_on_c, 4, 30, 91
7, 70665, Note_on_c, 4, 30, 0
7, 70755, Note_on_c, 4, 42, 91
7, 70793, Note_on_c, 4, 42, 0
7, 70879, Note_on_c, 4, 30, 82
7, 70915, Note_on_c, 4, 40, 82
7, 70919, Note_on_c, 4, 30, 0
7, 70996, Note_on_c, 4, 40, 0
7, 70998, Note_on_c, 4, 39, 64
7, 71025, Note_on_c, 4, 39, 0
7, 71032, Note_on_c, 4, 37, 73
7, 71105, Note_on_c, 4, 37, 0
7, 71115, Note_on_c, 4, 39, 56
7, 71148, Note_on_c, 4, 39, 0
7, 71150, Note_on_c, 4, 40, 60
7, 71231, Note_on_c, 4, 47, 56
7, 71232, Note_on_c, 4, 40, 0
7, 71255, Note_on_c, 4, 47, 0
7, 71256, Note_on_c, 4, 45, 64
7, 71276, Note_on_c, 4, 45, 0
7, 71280, Note_on_c, 4, 46, 60
7, 71343, Note_on_c, 4, 46, 0
7, 71349, Note_on_c, 4, 42, 82
7, 71393, Note_on_c, 4, 42, 0
7, 71513, Note_on_c, 4, 25, 82
7, 71568, Note_on_c, 4, 25, 0
7, 71631, Note_on_c, 4, 37, 73
7, 71694, Note_on_c, 4, 37, 0
7, 71756, Note_on_c, 4, 41, 64
7, 71835, Note_on_c, 4, 41, 0
7, 71869, Note_on_c, 4, 36, 60
7, 71955, Note_on_c, 4, 36, 0
7, 71993, Note_on_c, 4, 35, 64
7, 72085, Note_on_c, 4, 35, 0
7, 72114, Note_on_c, 4, 35, 64
7, 72199, Note_on_c, 4, 35, 0
7, 72206, Note_on_c, 4, 29, 60
7, 72223, Note_on_c, 4, 29, 0
7, 72237, Note_on_c, 4, 33, 64
7, 72320, Note_on_c, 4, 33, 0
7, 72331, Note_on_c, 4, 30, 64
7, 72358, Note_on_c, 4, 30, 0
7, 72360, Note_on_c, 4, 28, 73
7, 72424, Note_on_c, 4, 28, 0
7, 72433, Note_on_c, 4, 30, 73
7, 72562, Note_on_c, 4, 30, 0
7, 72630, Note_on_c, 4, 30, 16
7, 72632, Note_on_c, 4, 30, 0
7, 72688, Note_on_c, 4, 30, 82
7, 72729, Note_on_c, 4, 30, 0
7, 72922, Note_on_c, 4, 37, 82
7, 72960, Note_on_c, 4, 37, 0
7, 72965, Note_on_c, 4, 30, 64
7, 73032, Note_on_c, 4, 30, 0
7, 73039, Note_on_c, 4, 37, 64
7, 73077, Note_on_c, 4, 39, 73
7, 73086, Note_on_c, 4, 37, 0
7, 73152, Note_on_c, 4, 40, 73
7, 73160, Note_on_c, 4, 39, 0
7, 73196, Note_on_c, 4, 40, 0
7, 73371, Note_on_c, 4, 39, 60
7, 73394, Note_on_c, 4, 39, 0
7, 73398, Note_on_c, 4, 37, 64
7, 73419, Note_on_c, 4, 37, 0
7, 73438, Note_on_c, 4, 30, 73
7, 73555, Note_on_c, 4, 30, 0
7, 73632, Note_on_c, 4, 42, 82
7, 73667, Note_on_c, 4, 42, 0
7, 73755, Note_on_c, 4, 30, 82
7, 73789, Note_on_c, 4, 30, 0
7, 73791, Note_on_c, 4, 40, 73
7, 73870, Note_on_c, 4, 40, 0
7, 73870, Note_on_c, 4, 39, 52
7, 73894, Note_on_c, 4, 39, 0
7, 73904, Note_on_c, 4, 37, 73
7, 73973, Note_on_c, 4, 37, 0
7, 73992, Note_on_c, 4, 39, 64
7, 74018, Note_on_c, 4, 39, 0
7, 74026, Note_on_c, 4, 40, 60
7, 74103, Note_on_c, 4, 47, 60
7, 74107, Note_on_c, 4, 40, 0
7, 74130, Note_on_c, 4, 47, 0
7, 74143, Note_on_c, 4, 45, 16
7, 74148, Note_on_c, 4, 45, 0
7, 74164, Note_on_c, 4, 46, 40
7, 74231, Note_on_c, 4, 42, 91
7, 74233, Note_on_c, 4, 46, 0
7, 74268, Note_on_c, 4, 42, 0
7, 74395, Note_on_c, 4, 37, 91
7, 74451, Note_on_c, 4, 37, 0
7, 74514, Note_on_c, 4, 37, 73
7, 74597, Note_on_c, 4, 37, 0
7, 74597, Note_on_c, 4, 33, 60
7, 74613, Note_on_c, 4, 33, 0
7, 74633, Note_on_c, 4, 35, 60
7, 74730, Note_on_c, 4, 35, 0
7, 74750, Note_on_c, 4, 37, 73
7, 74853, Note_on_c, 4, 37, 0
7, 74873, Note_on_c, 4, 35, 60
7, 74959, Note_on_c, 4, 35, 0
7, 74995, Note_on_c, 4, 39, 73
7, 75103, Note_on_c, 4, 39, 0
7, 75116, Note_on_c, 4, 40, 64
7, 75192, Note_on_c, 4, 40, 0
7, 75214, Note_on_c, 4, 35, 16
7, 75221, Note_on_c, 4, 35, 0
7, 75239, Note_on_c, 4, 41, 64
7, 75298, Note_on_c, 4, 41, 0
7, 75320, Note_on_c, 4, 42, 73
7, 75371, Note_on_c, 4, 30, 52
7, 75374, Note_on_c, 4, 42, 0
7, 75392, Note_on_c, 4, 42, 16
7, 75394, Note_on_c, 4, 42, 0
7, 75468, Note_on_c, 4, 30, 0
7, 75562, Note_on_c, 4, 30, 82
7, 75601, Note_on_c, 4, 30, 0
7, 75796, Note_on_c, 4, 37, 73
7, 75835, Note_on_c, 4, 37, 0
7, 75839, Note_on_c, 4, 30, 73
7, 75911, Note_on_c, 4, 30, 0
7, 75924, Note_on_c, 4, 37, 64
7, 75954, Note_on_c, 4, 39, 82
7, 75963, Note_on_c, 4, 37, 0
7, 76023, Note_on_c, 4, 39, 0
7, 76036, Note_on_c, 4, 40, 73
7, 76081, Note_on_c, 4, 40, 0
7, 76245, Note_on_c, 4, 40, 73
7, 76275, Note_on_c, 4, 42, 73
7, 76279, Note_on_c, 4, 40, 0
7, 76301, Note_on_c, 4, 42, 0
7, 76313, Note_on_c, 4, 30, 64
7, 76427, Note_on_c, 4, 30, 0
7, 76513, Note_on_c, 4, 42, 82
7, 76553, Note_on_c, 4, 42, 0
7, 76630, Note_on_c, 4, 30, 64
7, 76667, Note_on_c, 4, 30, 0
7, 76667, Note_on_c, 4, 40, 73
7, 76753, Note_on_c, 4, 40, 0
7, 76755, Note_on_c, 4, 39, 60
7, 76776, Note_on_c, 4, 39, 0
7, 76789, Note_on_c, 4, 37, 64
7, 76854, Note_on_c, 4, 37, 0
7, 76869, Note_on_c, 4, 39, 64
7, 76899, Note_on_c, 4, 39, 0
7, 76903, Note_on_c, 4, 40, 73
7, 76986, Note_on_c, 4, 40, 0
7, 76986, Note_on_c, 4, 47, 56
7, 77012, Note_on_c, 4, 47, 0
7, 77016, Note_on_c, 4, 45, 64
7, 77042, Note_on_c, 4, 46, 73
7, 77044, Note_on_c, 4, 45, 0
7, 77101, Note_on_c, 4, 46, 0
7, 77105, Note_on_c, 4, 42, 82
7, 77154, Note_on_c, 4, 42, 0
7, 77269, Note_on_c, 4, 37, 73
7, 77327, Note_on_c, 4, 37, 0
7, 77393, Note_on_c, 4, 49, 73
7, 77442, Note_on_c, 4, 49, 0
7, 77516, Note_on_c, 4, 47, 73
7, 77574, Note_on_c, 4, 47, 0
7, 77640, Note_on_c, 4, 49, 73
7, 77689, Note_on_c, 4, 49, 0
7, 77763, Note_on_c, 4, 35, 64
7, 77826, Note_on_c, 4, 35, 0
7, 77880, Note_on_c, 4, 47, 73
7, 77943, Note_on_c, 4, 47, 0
7, 77997, Note_on_c, 4, 45, 60
7, 78074, Note_on_c, 4, 45, 0
7, 78080, Note_on_c, 4, 35, 56
7, 78098, Note_on_c, 4, 35, 0
7, 78112, Note_on_c, 4, 40, 56
7, 78185, Note_on_c, 4, 40, 0
7, 78192, Note_on_c, 4, 42, 60
7, 78332, Note_on_c, 4, 42, 0
7, 78435, Note_on_c, 4, 42, 91
7, 78477, Note_on_c, 4, 42, 0
7, 78648, Note_on_c, 4, 42, 73
7, 78674, Note_on_c, 4, 42, 0
7, 78674, Note_on_c, 4, 37, 73
7, 78698, Note_on_c, 4, 37, 0
7, 78713, Note_on_c, 4, 30, 82
7, 78779, Note_on_c, 4, 30, 0
7, 78788, Note_on_c, 4, 37, 64
7, 78823, Note_on_c, 4, 39, 73
7, 78828, Note_on_c, 4, 37, 0
7, 78888, Note_on_c, 4, 39, 0
7, 78906, Note_on_c, 4, 40, 73
7, 78951, Note_on_c, 4, 40, 0
7, 79111, Note_on_c, 4, 33, 91
7, 79147, Note_on_c, 4, 33, 0
7, 79147, Note_on_c, 4, 34, 82
7, 79165, Note_on_c, 4, 34, 0
7, 79189, Note_on_c, 4, 30, 64
7, 79302, Note_on_c, 4, 30, 0
7, 79391, Note_on_c, 4, 42, 82
7, 79437, Note_on_c, 4, 42, 0
7, 79509, Note_on_c, 4, 30, 56
7, 79542, Note_on_c, 4, 30, 0
7, 79549, Note_on_c, 4, 40, 64
7, 79635, Note_on_c, 4, 40, 0
7, 79637, Note_on_c, 4, 39, 56
7, 79663, Note_on_c, 4, 39, 0
7, 79674, Note_on_c, 4, 37, 73
7, 79749, Note_on_c, 4, 37, 0
7, 79756, Note_on_c, 4, 39, 82
7, 79789, Note_on_c, 4, 39, 0
7, 79792, Note_on_c, 4, 40, 73
7, 79868, Note_on_c, 4, 47, 73
7, 79874, Note_on_c, 4, 40, 0
7, 79903, Note_on_c, 4, 45, 73
7, 79905, Note_on_c, 4, 47, 0
7, 79926, Note_on_c, 4, 45, 0
7, 79933, Note_on_c, 4, 46, 73
7, 79988, Note_on_c, 4, 42, 91
7, 79990, Note_on_c, 4, 46, 0
7, 80026, Note_on_c, 4, 42, 0
7, 80152, Note_on_c, 4, 37, 82
7, 80153, Note_on_c, 4, 25, 91
7, 80258, Note_on_c, 4, 25, 0
7, 80258, Note_on_c, 4, 37, 0
7, 80258, End_track
8, 0, Start_track
8, 0, MIDI_port, 0
8, 0, Title_t, "organ"
8, 0, Program_c, 8, 18
8, 0, Control_c, 8, 7, 60
8, 0, Control_c, 8, 10, 94
8, 1560, Note_on_c, 8, 86, 48
8, 1562, Note_on_c, 8, 84, 44
8, 1682, Note_on_c, 8, 87, 52
8, 1684, Note_on_c, 8, 86, 0
8, 1684, Note_on_c, 8, 82, 48
8, 1692, Note_on_c, 8, 84, 0
8, 1794, Note_on_c, 8, 82, 0
8, 1802, Note_on_c, 8, 87, 0
8, 1804, Note_on_c, 8, 86, 26
8, 1806, Note_on_c, 8, 84, 40
8, 1863, Note_on_c, 8, 84, 0
8, 1874, Note_on_c, 8, 86, 0
8, 3473, Note_on_c, 8, 84, 56
8, 3473, Note_on_c, 8, 86, 60
8, 3599, Note_on_c, 8, 87, 60
8, 3601, Note_on_c, 8, 86, 0
8, 3601, Note_on_c, 8, 82, 48
8, 3608, Note_on_c, 8, 84, 0
8, 3707, Note_on_c, 8, 82, 0
8, 3716, Note_on_c, 8, 86, 48
8, 3716, Note_on_c, 8, 84, 52
8, 3720, Note_on_c, 8, 87, 0
8, 3812, Note_on_c, 8, 86, 0
8, 3814, Note_on_c, 8, 84, 0
8, 3832, Note_on_c, 8, 86, 52
8, 3839, Note_on_c, 8, 84, 32
8, 3859, Note_on_c, 8, 84, 0
8, 3859, Note_on_c, 8, 86, 0
8, 3957, Note_on_c, 8, 84, 52
8, 3959, Note_on_c, 8, 86, 52
8, 4077, Note_on_c, 8, 87, 48
8, 4081, Note_on_c, 8, 86, 0
8, 4083, Note_on_c, 8, 82, 36
8, 4087, Note_on_c, 8, 84, 0
8, 4188, Note_on_c, 8, 82, 0
8, 4195, Note_on_c, 8, 87, 0
8, 4202, Note_on_c, 8, 86, 30
8, 4204, Note_on_c, 8, 84, 44
8, 4251, Note_on_c, 8, 84, 0
8, 4269, Note_on_c, 8, 86, 0
8, 6362, Note_on_c, 8, 84, 30
8, 6364, Note_on_c, 8, 86, 44
8, 6478, Note_on_c, 8, 87, 52
8, 6480, Note_on_c, 8, 86, 0
8, 6481, Note_on_c, 8, 82, 48
8, 6498, Note_on_c, 8, 84, 0
8, 6599, Note_on_c, 8, 82, 0
8, 6602, Note_on_c, 8, 86, 44
8, 6604, Note_on_c, 8, 84, 40
8, 6608, Note_on_c, 8, 87, 0
8, 6662, Note_on_c, 8, 86, 0
8, 6664, Note_on_c, 8, 84, 0
8, 7328, Note_on_c, 8, 84, 48
8, 7328, Note_on_c, 8, 86, 52
8, 7445, Note_on_c, 8, 87, 60
8, 7447, Note_on_c, 8, 86, 0
8, 7449, Note_on_c, 8, 82, 60
8, 7451, Note_on_c, 8, 84, 0
8, 7563, Note_on_c, 8, 82, 0
8, 7563, Note_on_c, 8, 87, 0
8, 7565, Note_on_c, 8, 86, 48
8, 7565, Note_on_c, 8, 84, 48
8, 7635, Note_on_c, 8, 86, 0
8, 7637, Note_on_c, 8, 84, 0
8, 7679, Note_on_c, 8, 86, 40
8, 7682, Note_on_c, 8, 84, 44
8, 7713, Note_on_c, 8, 86, 0
8, 7720, Note_on_c, 8, 84, 0
8, 7794, Note_on_c, 8, 84, 44
8, 7798, Note_on_c, 8, 86, 44
8, 7922, Note_on_c, 8, 87, 48
8, 7926, Note_on_c, 8, 86, 0
8, 7926, Note_on_c, 8, 84, 0
8, 7926, Note_on_c, 8, 82, 48
8, 8032, Note_on_c, 8, 82, 0
8, 8040, Note_on_c, 8, 86, 48
8, 8041, Note_on_c, 8, 87, 0
8, 8043, Note_on_c, 8, 84, 48
8, 8083, Note_on_c, 8, 86, 0
8, 8085, Note_on_c, 8, 84, 0
8, 8281, Note_on_c, 8, 84, 56
8, 8281, Note_on_c, 8, 86, 60
8, 8398, Note_on_c, 8, 87, 60
8, 8402, Note_on_c, 8, 86, 0
8, 8404, Note_on_c, 8, 82, 48
8, 8413, Note_on_c, 8, 84, 0
8, 8514, Note_on_c, 8, 82, 0
8, 8516, Note_on_c, 8, 86, 56
8, 8518, Note_on_c, 8, 87, 0
8, 8521, Note_on_c, 8, 84, 40
8, 8658, Note_on_c, 8, 86, 0
8, 8662, Note_on_c, 8, 84, 0
8, 8752, Note_on_c, 8, 84, 56
8, 8754, Note_on_c, 8, 86, 56
8, 8876, Note_on_c, 8, 86, 0
8, 8878, Note_on_c, 8, 87, 44
8, 8882, Note_on_c, 8, 82, 48
8, 8891, Note_on_c, 8, 84, 0
8, 8965, Note_on_c, 8, 82, 0
8, 8987, Note_on_c, 8, 87, 0
8, 8999, Note_on_c, 8, 86, 44
8, 9005, Note_on_c, 8, 84, 52
8, 9034, Note_on_c, 8, 84, 0
8, 9034, Note_on_c, 8, 86, 0
8, 16673, Note_on_c, 8, 89, 31
8, 16675, Note_on_c, 8, 87, 32
8, 16677, Note_on_c, 8, 77, 32
8, 16692, Note_on_c, 8, 84, 16
8, 16701, Note_on_c, 8, 89, 0
8, 16703, Note_on_c, 8, 87, 0
8, 16703, Note_on_c, 8, 77, 0
8, 16704, Note_on_c, 8, 84, 0
8, 16762, Note_on_c, 8, 87, 36
8, 16762, Note_on_c, 8, 89, 31
8, 16764, Note_on_c, 8, 84, 52
8, 16766, Note_on_c, 8, 77, 30
8, 17606, Note_on_c, 8, 77, 0
8, 17630, Note_on_c, 8, 89, 0
8, 17634, Note_on_c, 8, 87, 0
8, 17638, Note_on_c, 8, 84, 0
8, 17713, Note_on_c, 8, 89, 60
8, 17715, Note_on_c, 8, 87, 60
8, 17721, Note_on_c, 8, 77, 48
8, 17757, Note_on_c, 8, 77, 0
8, 17757, Note_on_c, 8, 89, 0
8, 17759, Note_on_c, 8, 87, 0
8, 18840, Note_on_c, 8, 80, 26
8, 18844, Note_on_c, 8, 84, 27
8, 18866, Note_on_c, 8, 84, 0
8, 18866, Note_on_c, 8, 80, 0
8, 18954, Note_on_c, 8, 84, 48
8, 18956, Note_on_c, 8, 80, 32
8, 19023, Note_on_c, 8, 80, 0
8, 19023, Note_on_c, 8, 84, 0
8, 19079, Note_on_c, 8, 86, 60
8, 19082, Note_on_c, 8, 82, 60
8, 19131, Note_on_c, 8, 86, 0
8, 19135, Note_on_c, 8, 82, 0
8, 19201, Note_on_c, 8, 87, 48
8, 19207, Note_on_c, 8, 84, 32
8, 19256, Note_on_c, 8, 87, 0
8, 19270, Note_on_c, 8, 84, 0
8, 19279, Note_on_c, 8, 77, 44
8, 19292, Note_on_c, 8, 77, 0
8, 19314, Note_on_c, 8, 86, 56
8, 19315, Note_on_c, 8, 82, 60
8, 19382, Note_on_c, 8, 86, 0
8, 19386, Note_on_c, 8, 82, 0
8, 19438, Note_on_c, 8, 80, 44
8, 19452, Note_on_c, 8, 80, 0
8, 19510, Note_on_c, 8, 89, 56
8, 19512, Note_on_c, 8, 87, 60
8, 19514, Note_on_c, 8, 77, 60
8, 19532, Note_on_c, 8, 77, 0
8, 19532, Note_on_c, 8, 89, 0
8, 19534, Note_on_c, 8, 87, 0
8, 19635, Note_on_c, 8, 89, 48
8, 19639, Note_on_c, 8, 87, 32
8, 19641, Note_on_c, 8, 77, 44
8, 19869, Note_on_c, 8, 77, 0
8, 20236, Note_on_c, 8, 89, 0
8, 20238, Note_on_c, 8, 87, 0
8, 20281, Note_on_c, 8, 89, 64
8, 20284, Note_on_c, 8, 87, 64
8, 20328, Note_on_c, 8, 89, 0
8, 20343, Note_on_c, 8, 87, 0
8, 20387, Note_on_c, 8, 84, 16
8, 20392, Note_on_c, 8, 84, 0
8, 20475, Note_on_c, 8, 83, 32
8, 20487, Note_on_c, 8, 83, 0
8, 20531, Note_on_c, 8, 77, 27
8, 20561, Note_on_c, 8, 77, 0
8, 20570, Note_on_c, 8, 82, 82
8, 20603, Note_on_c, 8, 82, 0
8, 20617, Note_on_c, 8, 80, 29
8, 20639, Note_on_c, 8, 80, 0
8, 20654, Note_on_c, 8, 77, 40
8, 20674, Note_on_c, 8, 77, 0
8, 20697, Note_on_c, 8, 82, 48
8, 20730, Note_on_c, 8, 82, 0
8, 20740, Note_on_c, 8, 80, 26
8, 20760, Note_on_c, 8, 80, 0
8, 20816, Note_on_c, 8, 77, 60
8, 20870, Note_on_c, 8, 77, 0
8, 21086, Note_on_c, 8, 89, 73
8, 21088, Note_on_c, 8, 87, 73
8, 21090, Note_on_c, 8, 77, 52
8, 21107, Note_on_c, 8, 77, 0
8, 21108, Note_on_c, 8, 87, 0
8, 21108, Note_on_c, 8, 89, 0
8, 21442, Note_on_c, 8, 89, 60
8, 21444, Note_on_c, 8, 87, 60
8, 21445, Note_on_c, 8, 77, 52
8, 21445, Note_on_c, 8, 84, 56
8, 21456, Note_on_c, 8, 77, 0
8, 21460, Note_on_c, 8, 84, 0
8, 21460, Note_on_c, 8, 89, 0
8, 21464, Note_on_c, 8, 87, 0
8, 21559, Note_on_c, 8, 82, 56
8, 21561, Note_on_c, 8, 80, 40
8, 21903, Note_on_c, 8, 82, 0
8, 21905, Note_on_c, 8, 80, 0
8, 22038, Note_on_c, 8, 84, 56
8, 22040, Note_on_c, 8, 80, 52
8, 22040, Note_on_c, 8, 89, 64
8, 22377, Note_on_c, 8, 89, 0
8, 22399, Note_on_c, 8, 84, 0
8, 22401, Note_on_c, 8, 80, 0
8, 22511, Note_on_c, 8, 84, 64
8, 22512, Note_on_c, 8, 77, 64
8, 22671, Note_on_c, 8, 77, 0
8, 22678, Note_on_c, 8, 84, 0
8, 22755, Note_on_c, 8, 86, 56
8, 22759, Note_on_c, 8, 77, 40
8, 22817, Note_on_c, 8, 86, 0
8, 22819, Note_on_c, 8, 77, 0
8, 22925, Note_on_c, 8, 77, 16
8, 22925, Note_on_c, 8, 77, 0
8, 22994, Note_on_c, 8, 87, 82
8, 22995, Note_on_c, 8, 77, 64
8, 23066, Note_on_c, 8, 87, 0
8, 23071, Note_on_c, 8, 77, 0
8, 23158, Note_on_c, 8, 86, 48
8, 23165, Note_on_c, 8, 77, 32
8, 23203, Note_on_c, 8, 86, 0
8, 23241, Note_on_c, 8, 84, 60
8, 23266, Note_on_c, 8, 77, 0
8, 23280, Note_on_c, 8, 84, 0
8, 23472, Note_on_c, 8, 85, 48
8, 23473, Note_on_c, 8, 82, 73
8, 23475, Note_on_c, 8, 84, 82
8, 23486, Note_on_c, 8, 85, 0
8, 23859, Note_on_c, 8, 84, 0
8, 23859, Note_on_c, 8, 82, 0
8, 23956, Note_on_c, 8, 78, 82
8, 23958, Note_on_c, 8, 72, 64
8, 23958, Note_on_c, 8, 82, 73
8, 23967, Note_on_c, 8, 78, 0
8, 23969, Note_on_c, 8, 79, 56
8, 24061, Note_on_c, 8, 72, 0
8, 24067, Note_on_c, 8, 82, 0
8, 24068, Note_on_c, 8, 79, 0
8, 24117, Note_on_c, 8, 81, 64
8, 24119, Note_on_c, 8, 72, 60
8, 24121, Note_on_c, 8, 77, 56
8, 24148, Note_on_c, 8, 81, 0
8, 24152, Note_on_c, 8, 77, 0
8, 24157, Note_on_c, 8, 72, 0
8, 24237, Note_on_c, 8, 79, 82
8, 24237, Note_on_c, 8, 70, 73
8, 24237, Note_on_c, 8, 75, 64
8, 24321, Note_on_c, 8, 70, 0
8, 24330, Note_on_c, 8, 79, 0
8, 24350, Note_on_c, 8, 75, 0
8, 24440, Note_on_c, 8, 82, 52
8, 24440, Note_on_c, 8, 84, 52
8, 24443, Note_on_c, 8, 72, 52
8, 24714, Note_on_c, 8, 72, 0
8, 24839, Note_on_c, 8, 82, 0
8, 24842, Note_on_c, 8, 84, 0
8, 24918, Note_on_c, 8, 89, 60
8, 24920, Note_on_c, 8, 77, 48
8, 24922, Note_on_c, 8, 87, 52
8, 24943, Note_on_c, 8, 77, 0
8, 24945, Note_on_c, 8, 87, 0
8, 24947, Note_on_c, 8, 89, 0
8, 25307, Note_on_c, 8, 87, 52
8, 25309, Note_on_c, 8, 89, 56
8, 25311, Note_on_c, 8, 77, 48
8, 25327, Note_on_c, 8, 77, 0
8, 25333, Note_on_c, 8, 87, 0
8, 25334, Note_on_c, 8, 89, 0
8, 25400, Note_on_c, 8, 89, 64
8, 25400, Note_on_c, 8, 87, 64
8, 25400, Note_on_c, 8, 77, 48
8, 26242, Note_on_c, 8, 77, 0
8, 26244, Note_on_c, 8, 89, 0
8, 26255, Note_on_c, 8, 85, 16
8, 26257, Note_on_c, 8, 87, 0
8, 26259, Note_on_c, 8, 86, 52
8, 26262, Note_on_c, 8, 84, 52
8, 26266, Note_on_c, 8, 85, 0
8, 26268, Note_on_c, 8, 83, 56
8, 26270, Note_on_c, 8, 86, 0
8, 26277, Note_on_c, 8, 84, 0
8, 26277, Note_on_c, 8, 81, 56
8, 26282, Note_on_c, 8, 79, 52
8, 26285, Note_on_c, 8, 83, 0
8, 26288, Note_on_c, 8, 77, 56
8, 26290, Note_on_c, 8, 81, 0
8, 26296, Note_on_c, 8, 79, 0
8, 26296, Note_on_c, 8, 76, 60
8, 26299, Note_on_c, 8, 77, 0
8, 26303, Note_on_c, 8, 76, 0
8, 26307, Note_on_c, 8, 74, 16
8, 26309, Note_on_c, 8, 74, 0
8, 30193, Note_on_c, 8, 84, 52
8, 30193, Note_on_c, 8, 74, 48
8, 30193, Note_on_c, 8, 80, 52
8, 30586, Note_on_c, 8, 84, 0
8, 30592, Note_on_c, 8, 80, 0
8, 30671, Note_on_c, 8, 78, 64
8, 30678, Note_on_c, 8, 82, 64
8, 30684, Note_on_c, 8, 79, 100
8, 30685, Note_on_c, 8, 78, 0
8, 31068, Note_on_c, 8, 74, 0
8, 31068, Note_on_c, 8, 82, 0
8, 31071, Note_on_c, 8, 79, 0
8, 31159, Note_on_c, 8, 84, 82
8, 31159, Note_on_c, 8, 77, 64
8, 31161, Note_on_c, 8, 72, 64
8, 31314, Note_on_c, 8, 77, 0
8, 31314, Note_on_c, 8, 84, 0
8, 31527, Note_on_c, 8, 72, 0
8, 32114, Note_on_c, 8, 86, 82
8, 32114, Note_on_c, 8, 84, 82
8, 32114, Note_on_c, 8, 77, 91
8, 32577, Note_on_c, 8, 86, 0
8, 32597, Note_on_c, 8, 86, 60
8, 32611, Note_on_c, 8, 77, 0
8, 32617, Note_on_c, 8, 86, 0
8, 32620, Note_on_c, 8, 84, 0
8, 32635, Note_on_c, 8, 84, 56
8, 32635, Note_on_c, 8, 82, 60
8, 32637, Note_on_c, 8, 77, 64
8, 32640, Note_on_c, 8, 87, 73
8, 32712, Note_on_c, 8, 77, 0
8, 32720, Note_on_c, 8, 82, 0
8, 32725, Note_on_c, 8, 84, 0
8, 32725, Note_on_c, 8, 87, 0
8, 32762, Note_on_c, 8, 82, 82
8, 32763, Note_on_c, 8, 77, 73
8, 32765, Note_on_c, 8, 86, 91
8, 32765, Note_on_c, 8, 84, 82
8, 32836, Note_on_c, 8, 86, 0
8, 32840, Note_on_c, 8, 84, 0
8, 32848, Note_on_c, 8, 82, 0
8, 32850, Note_on_c, 8, 77, 0
8, 32887, Note_on_c, 8, 84, 64
8, 32890, Note_on_c, 8, 82, 44
8, 32892, Note_on_c, 8, 80, 44
8, 32899, Note_on_c, 8, 77, 16
8, 32901, Note_on_c, 8, 77, 0
8, 32923, Note_on_c, 8, 77, 44
8, 32941, Note_on_c, 8, 80, 0
8, 32943, Note_on_c, 8, 82, 0
8, 32956, Note_on_c, 8, 84, 0
8, 32958, Note_on_c, 8, 77, 0
8, 33004, Note_on_c, 8, 72, 64
8, 33048, Note_on_c, 8, 72, 0
8, 33086, Note_on_c, 8, 89, 64
8, 33086, Note_on_c, 8, 87, 60
8, 33088, Note_on_c, 8, 84, 64
8, 33090, Note_on_c, 8, 77, 60
8, 34030, Note_on_c, 8, 89, 0
8, 34033, Note_on_c, 8, 77, 0
8, 34041, Note_on_c, 8, 86, 48
8, 34043, Note_on_c, 8, 88, 24
8, 34046, Note_on_c, 8, 87, 0
8, 34050, Note_on_c, 8, 88, 0
8, 34050, Note_on_c, 8, 83, 56
8, 34056, Note_on_c, 8, 86, 0
8, 34056, Note_on_c, 8, 81, 52
8, 34061, Note_on_c, 8, 79, 56
8, 34063, Note_on_c, 8, 84, 0
8, 34067, Note_on_c, 8, 77, 60
8, 34070, Note_on_c, 8, 83, 0
8, 34074, Note_on_c, 8, 76, 48
8, 34076, Note_on_c, 8, 81, 0
8, 34085, Note_on_c, 8, 79, 0
8, 34085, Note_on_c, 8, 74, 31
8, 34094, Note_on_c, 8, 77, 0
8, 34096, Note_on_c, 8, 72, 25
8, 34104, Note_on_c, 8, 76, 0
8, 34105, Note_on_c, 8, 71, 48
8, 34111, Note_on_c, 8, 74, 0
8, 34116, Note_on_c, 8, 72, 0
8, 34118, Note_on_c, 8, 71, 0
8, 34395, Note_on_c, 8, 87, 91
8, 34399, Note_on_c, 8, 89, 82
8, 34399, Note_on_c, 8, 77, 91
8, 34401, Note_on_c, 8, 84, 64
8, 34403, Note_on_c, 8, 84, 0
8, 34407, Note_on_c, 8, 87, 0
8, 34407, Note_on_c, 8, 89, 0
8, 34407, Note_on_c, 8, 77, 0
8, 34634, Note_on_c, 8, 84, 73
8, 34634, Note_on_c, 8, 86, 64
8, 34634, Note_on_c, 8, 77, 56
8, 34636, Note_on_c, 8, 89, 56
8, 34643, Note_on_c, 8, 89, 0
8, 34643, Note_on_c, 8, 86, 0
8, 34645, Note_on_c, 8, 84, 0
8, 34647, Note_on_c, 8, 77, 0
8, 34863, Note_on_c, 8, 87, 52
8, 34863, Note_on_c, 8, 89, 60
8, 34865, Note_on_c, 8, 77, 52
8, 34869, Note_on_c, 8, 77, 0
8, 34869, Note_on_c, 8, 89, 0
8, 34869, Note_on_c, 8, 87, 0
8, 37080, Note_on_c, 8, 86, 48
8, 37082, Note_on_c, 8, 84, 44
8, 37202, Note_on_c, 8, 87, 52
8, 37204, Note_on_c, 8, 86, 0
8, 37204, Note_on_c, 8, 82, 48
8, 37212, Note_on_c, 8, 84, 0
8, 37314, Note_on_c, 8, 82, 0
8, 37322, Note_on_c, 8, 87, 0
8, 37324, Note_on_c, 8, 86, 26
8, 37326, Note_on_c, 8, 84, 40
8, 37383, Note_on_c, 8, 84, 0
8, 37394, Note_on_c, 8, 86, 0
8, 38513, Note_on_c, 8, 84, 56
8, 38513, Note_on_c, 8, 86, 60
8, 38639, Note_on_c, 8, 87, 60
8, 38641, Note_on_c, 8, 86, 0
8, 38641, Note_on_c, 8, 82, 48
8, 38648, Note_on_c, 8, 84, 0
8, 38747, Note_on_c, 8, 82, 0
8, 38756, Note_on_c, 8, 86, 48
8, 38756, Note_on_c, 8, 84, 52
8, 38760, Note_on_c, 8, 87, 0
8, 38852, Note_on_c, 8, 86, 0
8, 38854, Note_on_c, 8, 84, 0
8, 38872, Note_on_c, 8, 86, 52
8, 38879, Note_on_c, 8, 84, 32
8, 38899, Note_on_c, 8, 84, 0
8, 38899, Note_on_c, 8, 86, 0
8, 38997, Note_on_c, 8, 84, 52
8, 38999, Note_on_c, 8, 86, 52
8, 39117, Note_on_c, 8, 87, 48
8, 39121, Note_on_c, 8, 86, 0
8, 39123, Note_on_c, 8, 82, 36
8, 39127, Note_on_c, 8, 84, 0
8, 39228, Note_on_c, 8, 82, 0
8, 39235, Note_on_c, 8, 87, 0
8, 39242, Note_on_c, 8, 86, 30
8, 39244, Note_on_c, 8, 84, 44
8, 39291, Note_on_c, 8, 84, 0
8, 39309, Note_on_c, 8, 86, 0
8, 40922, Note_on_c, 8, 84, 30
8, 40924, Note_on_c, 8, 86, 44
8, 41038, Note_on_c, 8, 87, 52
8, 41040, Note_on_c, 8, 86, 0
8, 41041, Note_on_c, 8, 82, 48
8, 41058, Note_on_c, 8, 84, 0
8, 41159, Note_on_c, 8, 82, 0
8, 41162, Note_on_c, 8, 86, 44
8, 41164, Note_on_c, 8, 84, 40
8, 41168, Note_on_c, 8, 87, 0
8, 41222, Note_on_c, 8, 86, 0
8, 41224, Note_on_c, 8, 84, 0
8, 41888, Note_on_c, 8, 84, 48
8, 41888, Note_on_c, 8, 86, 52
8, 42005, Note_on_c, 8, 87, 60
8, 42007, Note_on_c, 8, 86, 0
8, 42009, Note_on_c, 8, 82, 60
8, 42011, Note_on_c, 8, 84, 0
8, 42123, Note_on_c, 8, 82, 0
8, 42123, Note_on_c, 8, 87, 0
8, 42125, Note_on_c, 8, 86, 48
8, 42125, Note_on_c, 8, 84, 48
8, 42195, Note_on_c, 8, 86, 0
8, 42197, Note_on_c, 8, 84, 0
8, 42239, Note_on_c, 8, 86, 40
8, 42242, Note_on_c, 8, 84, 44
8, 42273, Note_on_c, 8, 86, 0
8, 42280, Note_on_c, 8, 84, 0
8, 42354, Note_on_c, 8, 84, 44
8, 42358, Note_on_c, 8, 86, 44
8, 42482, Note_on_c, 8, 87, 48
8, 42486, Note_on_c, 8, 86, 0
8, 42486, Note_on_c, 8, 84, 0
8, 42486, Note_on_c, 8, 82, 48
8, 42592, Note_on_c, 8, 82, 0
8, 42600, Note_on_c, 8, 86, 48
8, 42601, Note_on_c, 8, 87, 0
8, 42603, Note_on_c, 8, 84, 48
8, 42643, Note_on_c, 8, 86, 0
8, 42645, Note_on_c, 8, 84, 0
8, 42841, Note_on_c, 8, 84, 56
8, 42841, Note_on_c, 8, 86, 60
8, 42958, Note_on_c, 8, 87, 60
8, 42962, Note_on_c, 8, 86, 0
8, 42964, Note_on_c, 8, 82, 48
8, 42973, Note_on_c, 8, 84, 0
8, 43074, Note_on_c, 8, 82, 0
8, 43076, Note_on_c, 8, 86, 56
8, 43078, Note_on_c, 8, 87, 0
8, 43081, Note_on_c, 8, 84, 40
8, 43218, Note_on_c, 8, 86, 0
8, 43222, Note_on_c, 8, 84, 0
8, 43312, Note_on_c, 8, 84, 56
8, 43314, Note_on_c, 8, 86, 56
8, 43436, Note_on_c, 8, 86, 0
8, 43438, Note_on_c, 8, 87, 44
8, 43442, Note_on_c, 8, 82, 48
8, 43451, Note_on_c, 8, 84, 0
8, 43525, Note_on_c, 8, 82, 0
8, 43547, Note_on_c, 8, 87, 0
8, 43640, Note_on_c, 8, 78, 73
8, 43644, Note_on_c, 8, 73, 82
8, 43644, Note_on_c, 8, 76, 82
8, 43653, Control_c, 8, 3, 2
8, 43655, Control_c, 8, 3, 3
8, 43660, Control_c, 8, 3, 2
8, 43665, Control_c, 8, 3, 1
8, 44024, Note_on_c, 8, 73, 0
8, 44026, Note_on_c, 8, 76, 0
8, 44033, Note_on_c, 8, 75, 73
8, 44117, Note_on_c, 8, 75, 0
8, 44119, Note_on_c, 8, 78, 0
8, 44119, Note_on_c, 8, 66, 16
8, 44123, Note_on_c, 8, 66, 0
8, 44158, Note_on_c, 8, 78, 73
8, 44158, Note_on_c, 8, 76, 73
8, 44222, Note_on_c, 8, 78, 0
8, 44232, Note_on_c, 8, 76, 0
8, 44273, Note_on_c, 8, 75, 73
8, 44275, Note_on_c, 8, 78, 82
8, 44329, Note_on_c, 8, 78, 0
8, 44331, Note_on_c, 8, 75, 0
8, 44396, Note_on_c, 8, 78, 91
8, 44398, Note_on_c, 8, 73, 82
8, 44472, Note_on_c, 8, 73, 0
8, 44472, Note_on_c, 8, 78, 0
8, 44599, Note_on_c, 8, 78, 82
8, 44601, Note_on_c, 8, 73, 91
8, 44601, Note_on_c, 8, 76, 91
8, 44632, Note_on_c, 8, 73, 0
8, 44634, Note_on_c, 8, 78, 0
8, 44636, Note_on_c, 8, 76, 0
8, 44836, Note_on_c, 8, 85, 82
8, 44836, Note_on_c, 8, 78, 91
8, 44836, Note_on_c, 8, 73, 73
8, 44850, Note_on_c, 8, 73, 0
8, 44852, Note_on_c, 8, 85, 0
8, 44854, Note_on_c, 8, 78, 0
8, 45002, Control_c, 8, 7, 66
8, 45049, Control_c, 8, 7, 63
8, 45068, Control_c, 8, 7, 60
8, 45504, Note_on_c, 8, 70, 91
8, 45504, Note_on_c, 8, 68, 91
8, 45506, Note_on_c, 8, 67, 82
8, 45511, Note_on_c, 8, 67, 0
8, 45513, Note_on_c, 8, 68, 0
8, 45529, Note_on_c, 8, 70, 0
8, 45575, Note_on_c, 8, 75, 73
8, 45578, Note_on_c, 8, 73, 73
8, 45578, Note_on_c, 8, 78, 73
8, 45589, Note_on_c, 8, 76, 82
8, 45595, Note_on_c, 8, 75, 0
8, 45602, Note_on_c, 8, 73, 0
8, 45644, Note_on_c, 8, 73, 44
8, 45717, Control_c, 8, 7, 56
8, 45747, Control_c, 8, 7, 53
8, 45752, Control_c, 8, 7, 49
8, 45835, Control_c, 8, 7, 52
8, 46112, Control_c, 8, 7, 56
8, 46165, Note_on_c, 8, 73, 0
8, 46175, Note_on_c, 8, 76, 0
8, 46202, Note_on_c, 8, 75, 100
8, 46268, Note_on_c, 8, 75, 0
8, 46271, Note_on_c, 8, 78, 0
8, 46315, Note_on_c, 8, 78, 64
8, 46317, Note_on_c, 8, 73, 64
8, 46366, Note_on_c, 8, 73, 0
8, 46380, Note_on_c, 8, 78, 0
8, 46422, Note_on_c, 8, 71, 52
8, 46442, Note_on_c, 8, 71, 0
8, 46516, Note_on_c, 8, 78, 82
8, 46518, Note_on_c, 8, 76, 73
8, 46520, Note_on_c, 8, 73, 64
8, 46520, Note_on_c, 8, 71, 60
8, 46525, Note_on_c, 8, 75, 16
8, 46525, Note_on_c, 8, 75, 0
8, 46529, Note_on_c, 8, 71, 0
8, 46574, Note_on_c, 8, 78, 0
8, 46581, Note_on_c, 8, 73, 0
8, 46592, Note_on_c, 8, 76, 0
8, 47474, Note_on_c, 8, 83, 91
8, 47474, Note_on_c, 8, 78, 100
8, 47476, Note_on_c, 8, 80, 91
8, 47478, Note_on_c, 8, 81, 91
8, 47487, Note_on_c, 8, 80, 0
8, 47618, Note_on_c, 8, 83, 0
8, 47626, Note_on_c, 8, 80, 28
8, 47631, Note_on_c, 8, 79, 21
8, 47635, Note_on_c, 8, 80, 0
8, 47635, Note_on_c, 8, 78, 0
8, 47635, Note_on_c, 8, 77, 73
8, 47637, Note_on_c, 8, 81, 0
8, 47637, Note_on_c, 8, 76, 73
8, 47640, Note_on_c, 8, 74, 64
8, 47646, Note_on_c, 8, 79, 0
8, 47646, Note_on_c, 8, 72, 64
8, 47652, Note_on_c, 8, 77, 0
8, 47653, Note_on_c, 8, 71, 48
8, 47657, Note_on_c, 8, 76, 0
8, 47661, Note_on_c, 8, 69, 48
8, 47663, Note_on_c, 8, 74, 0
8, 47666, Note_on_c, 8, 67, 56
8, 47670, Note_on_c, 8, 72, 0
8, 47672, Note_on_c, 8, 65, 56
8, 47676, Note_on_c, 8, 71, 0
8, 47679, Note_on_c, 8, 64, 40
8, 47681, Note_on_c, 8, 69, 0
8, 47685, Note_on_c, 8, 67, 0
8, 47687, Note_on_c, 8, 65, 0
8, 47687, Note_on_c, 8, 62, 48
8, 47692, Note_on_c, 8, 64, 0
8, 47695, Note_on_c, 8, 62, 0
8, 47695, Note_on_c, 8, 60, 40
8, 47700, Note_on_c, 8, 60, 0
8, 47961, Note_on_c, 8, 83, 100
8, 47963, Note_on_c, 8, 78, 100
8, 47965, Note_on_c, 8, 80, 100
8, 47965, Note_on_c, 8, 71, 91
8, 47965, Note_on_c, 8, 81, 82
8, 47979, Note_on_c, 8, 71, 0
8, 47996, Note_on_c, 8, 71, 31
8, 48039, Note_on_c, 8, 83, 0
8, 48048, Note_on_c, 8, 71, 0
8, 48052, Note_on_c, 8, 79, 24
8, 48056, Note_on_c, 8, 78, 0
8, 48056, Note_on_c, 8, 80, 0
8, 48056, Note_on_c, 8, 77, 73
8, 48059, Note_on_c, 8, 81, 0
8, 48061, Note_on_c, 8, 76, 52
8, 48069, Note_on_c, 8, 79, 0
8, 48074, Note_on_c, 8, 74, 16
8, 48078, Note_on_c, 8, 72, 40
8, 48080, Note_on_c, 8, 77, 0
8, 48087, Note_on_c, 8, 71, 40
8, 48089, Note_on_c, 8, 76, 0
8, 48094, Note_on_c, 8, 69, 32
8, 48096, Note_on_c, 8, 74, 0
8, 48100, Note_on_c, 8, 67, 52
8, 48104, Note_on_c, 8, 72, 0
8, 48106, Note_on_c, 8, 65, 48
8, 48109, Note_on_c, 8, 71, 0
8, 48113, Note_on_c, 8, 64, 48
8, 48117, Note_on_c, 8, 69, 0
8, 48119, Note_on_c, 8, 62, 48
8, 48120, Note_on_c, 8, 67, 0
8, 48126, Note_on_c, 8, 65, 0
8, 48126, Note_on_c, 8, 60, 40
8, 48132, Note_on_c, 8, 64, 0
8, 48132, Note_on_c, 8, 59, 48
8, 48133, Note_on_c, 8, 62, 0
8, 48137, Note_on_c, 8, 60, 0
8, 48139, Note_on_c, 8, 59, 0
8, 48139, Note_on_c, 8, 57, 25
8, 48146, Note_on_c, 8, 57, 0
8, 48436, Note_on_c, 8, 78, 91
8, 48438, Note_on_c, 8, 85, 100
8, 48512, Note_on_c, 8, 78, 0
8, 48516, Note_on_c, 8, 85, 0
8, 48908, Note_on_c, 8, 88, 91
8, 48908, Note_on_c, 8, 76, 100
8, 48975, Note_on_c, 8, 88, 0
8, 48982, Note_on_c, 8, 76, 0
8, 49070, Note_on_c, 8, 87, 32
8, 49080, Note_on_c, 8, 75, 44
8, 49123, Note_on_c, 8, 75, 0
8, 49139, Note_on_c, 8, 87, 0
8, 49150, Note_on_c, 8, 73, 91
8, 49150, Note_on_c, 8, 85, 82
8, 49195, Note_on_c, 8, 85, 0
8, 49195, Note_on_c, 8, 73, 0
8, 49395, Note_on_c, 8, 85, 91
8, 49395, Note_on_c, 8, 80, 82
8, 49397, Note_on_c, 8, 73, 82
8, 49768, Note_on_c, 8, 85, 0
8, 49771, Note_on_c, 8, 80, 0
8, 49773, Note_on_c, 8, 73, 0
8, 49876, Note_on_c, 8, 80, 91
8, 49876, Note_on_c, 8, 83, 91
8, 49944, Note_on_c, 8, 83, 0
8, 49948, Note_on_c, 8, 80, 0
8, 50033, Note_on_c, 8, 82, 100
8, 50092, Note_on_c, 8, 82, 0
8, 50159, Note_on_c, 8, 80, 91
8, 50256, Note_on_c, 8, 80, 0
8, 50273, Note_on_c, 8, 78, 60
8, 50281, Note_on_c, 8, 78, 0
8, 50361, Note_on_c, 8, 82, 91
8, 50363, Note_on_c, 8, 78, 82
8, 50478, Note_on_c, 8, 78, 0
8, 50480, Note_on_c, 8, 77, 56
8, 50557, Note_on_c, 8, 77, 0
8, 50597, Note_on_c, 8, 76, 73
8, 50756, Note_on_c, 8, 85, 64
8, 50763, Note_on_c, 8, 76, 0
8, 50770, Note_on_c, 8, 85, 0
8, 50772, Note_on_c, 8, 82, 0
8, 50846, Note_on_c, 8, 85, 91
8, 50846, Note_on_c, 8, 76, 64
8, 50848, Note_on_c, 8, 82, 82
8, 50918, Note_on_c, 8, 85, 0
8, 50922, Note_on_c, 8, 76, 0
8, 50924, Note_on_c, 8, 82, 0
8, 51082, Note_on_c, 8, 82, 82
8, 51084, Note_on_c, 8, 75, 73
8, 51208, Note_on_c, 8, 82, 0
8, 51212, Note_on_c, 8, 75, 0
8, 51318, Note_on_c, 8, 80, 73
8, 51361, Note_on_c, 8, 80, 0
8, 51365, Note_on_c, 8, 85, 82
8, 51473, Note_on_c, 8, 73, 27
8, 51689, Note_on_c, 8, 85, 0
8, 51697, Note_on_c, 8, 73, 0
8, 51798, Note_on_c, 8, 83, 91
8, 51800, Note_on_c, 8, 80, 100
8, 51881, Note_on_c, 8, 83, 0
8, 51882, Note_on_c, 8, 80, 0
8, 51953, Note_on_c, 8, 82, 91
8, 52025, Note_on_c, 8, 82, 0
8, 52079, Note_on_c, 8, 80, 64
8, 52187, Note_on_c, 8, 78, 52
8, 52189, Note_on_c, 8, 80, 0
8, 52198, Note_on_c, 8, 78, 0
8, 52273, Note_on_c, 8, 76, 52
8, 52275, Note_on_c, 8, 78, 56
8, 52277, Note_on_c, 8, 73, 40
8, 52281, Note_on_c, 8, 75, 44
8, 52548, Note_on_c, 8, 73, 0
8, 52548, Note_on_c, 8, 76, 0
8, 52548, Note_on_c, 8, 78, 0
8, 52551, Note_on_c, 8, 75, 0
8, 52647, Note_on_c, 8, 66, 44
8, 52656, Note_on_c, 8, 66, 0
8, 52683, Note_on_c, 8, 78, 91
8, 52683, Note_on_c, 8, 75, 91
8, 52683, Note_on_c, 8, 76, 82
8, 52685, Note_on_c, 8, 73, 91
8, 52739, Note_on_c, 8, 73, 0
8, 52745, Note_on_c, 8, 76, 0
8, 52745, Note_on_c, 8, 75, 0
8, 52747, Note_on_c, 8, 78, 0
8, 52777, Note_on_c, 8, 66, 16
8, 52781, Note_on_c, 8, 66, 0
8, 52804, Note_on_c, 8, 78, 56
8, 52806, Note_on_c, 8, 75, 52
8, 52806, Note_on_c, 8, 76, 64
8, 52806, Note_on_c, 8, 73, 56
8, 52868, Note_on_c, 8, 73, 0
8, 52870, Note_on_c, 8, 76, 0
8, 52872, Note_on_c, 8, 75, 0
8, 52872, Note_on_c, 8, 78, 0
8, 52884, Note_on_c, 8, 78, 82
8, 52884, Note_on_c, 8, 75, 73
8, 52886, Note_on_c, 8, 76, 73
8, 52886, Note_on_c, 8, 73, 64
8, 52886, Note_on_c, 8, 66, 82
8, 52897, Note_on_c, 8, 73, 0
8, 52899, Note_on_c, 8, 78, 0
8, 52899, Note_on_c, 8, 66, 0
8, 52901, Note_on_c, 8, 75, 0
8, 52903, Note_on_c, 8, 76, 0
8, 53119, Note_on_c, 8, 66, 36
8, 53130, Note_on_c, 8, 66, 0
8, 53152, Note_on_c, 8, 75, 82
8, 53154, Note_on_c, 8, 71, 91
8, 53156, Note_on_c, 8, 66, 82
8, 53197, Note_on_c, 8, 66, 0
8, 53203, Note_on_c, 8, 71, 0
8, 53206, Note_on_c, 8, 75, 0
8, 53313, Note_on_c, 8, 78, 64
8, 53313, Note_on_c, 8, 76, 73
8, 53313, Note_on_c, 8, 73, 56
8, 53325, Note_on_c, 8, 73, 0
8, 53327, Note_on_c, 8, 76, 0
8, 53329, Note_on_c, 8, 78, 0
8, 53394, Note_on_c, 8, 78, 64
8, 53396, Note_on_c, 8, 76, 73
8, 53398, Note_on_c, 8, 66, 60
8, 53398, Note_on_c, 8, 73, 56
8, 53405, Note_on_c, 8, 73, 0
8, 53407, Note_on_c, 8, 66, 0
8, 53409, Note_on_c, 8, 78, 0
8, 53412, Note_on_c, 8, 76, 0
8, 53481, Note_on_c, 8, 78, 64
8, 53481, Note_on_c, 8, 76, 64
8, 53485, Note_on_c, 8, 66, 48
8, 53485, Note_on_c, 8, 73, 52
8, 53494, Note_on_c, 8, 73, 0
8, 53496, Note_on_c, 8, 66, 0
8, 53498, Note_on_c, 8, 76, 0
8, 53498, Note_on_c, 8, 78, 0
8, 53563, Note_on_c, 8, 66, 60
8, 53565, Note_on_c, 8, 76, 64
8, 53565, Note_on_c, 8, 78, 56
8, 53567, Note_on_c, 8, 73, 60
8, 53570, Note_on_c, 8, 75, 16
8, 53574, Note_on_c, 8, 73, 0
8, 53574, Note_on_c, 8, 78, 0
8, 53574, Note_on_c, 8, 66, 0
8, 53576, Note_on_c, 8, 76, 0
8, 53576, Note_on_c, 8, 75, 0
8, 53641, Note_on_c, 8, 76, 73
8, 53643, Note_on_c, 8, 78, 64
8, 53643, Note_on_c, 8, 75, 82
8, 53645, Note_on_c, 8, 73, 64
8, 53645, Note_on_c, 8, 66, 82
8, 53654, Note_on_c, 8, 66, 0
8, 53654, Note_on_c, 8, 75, 0
8, 53654, Note_on_c, 8, 76, 0
8, 53654, Note_on_c, 8, 78, 0
8, 53654, Note_on_c, 8, 73, 0
8, 53878, Note_on_c, 8, 85, 100
8, 53880, Note_on_c, 8, 73, 73
8, 53899, Note_on_c, 8, 73, 0
8, 53959, Note_on_c, 8, 73, 44
8, 53964, Note_on_c, 8, 85, 0
8, 53972, Note_on_c, 8, 73, 0
8, 53995, Note_on_c, 8, 78, 73
8, 53997, Note_on_c, 8, 81, 91
8, 54015, Note_on_c, 8, 78, 0
8, 54072, Note_on_c, 8, 81, 0
8, 54074, Note_on_c, 8, 78, 91
8, 54096, Note_on_c, 8, 78, 0
8, 54129, Note_on_c, 8, 82, 16
8, 54129, Note_on_c, 8, 82, 0
8, 54188, Note_on_c, 8, 84, 73
8, 54190, Note_on_c, 8, 73, 91
8, 54192, Note_on_c, 8, 85, 82
8, 54205, Note_on_c, 8, 84, 0
8, 54286, Note_on_c, 8, 73, 0
8, 54291, Note_on_c, 8, 85, 0
8, 54441, Note_on_c, 8, 85, 56
8, 54443, Note_on_c, 8, 73, 64
8, 54446, Note_on_c, 8, 85, 0
8, 54450, Note_on_c, 8, 73, 0
8, 54683, Note_on_c, 8, 83, 91
8, 54683, Note_on_c, 8, 71, 100
8, 54700, Note_on_c, 8, 71, 0
8, 54700, Note_on_c, 8, 83, 0
8, 55043, Note_on_c, 8, 69, 73
8, 55057, Note_on_c, 8, 69, 0
8, 55079, Note_on_c, 8, 81, 91
8, 55080, Note_on_c, 8, 79, 73
8, 55088, Note_on_c, 8, 79, 0
8, 55115, Note_on_c, 8, 81, 0
8, 55117, Note_on_c, 8, 78, 73
8, 55137, Note_on_c, 8, 78, 0
8, 55157, Note_on_c, 8, 78, 64
8, 55157, Note_on_c, 8, 73, 52
8, 55195, Note_on_c, 8, 73, 0
8, 55197, Note_on_c, 8, 78, 0
8, 55402, Note_on_c, 8, 78, 73
8, 55404, Note_on_c, 8, 66, 73
8, 55405, Note_on_c, 8, 73, 64
8, 55409, Note_on_c, 8, 76, 26
8, 55413, Note_on_c, 8, 73, 0
8, 55415, Note_on_c, 8, 76, 0
8, 55417, Note_on_c, 8, 66, 0
8, 55418, Note_on_c, 8, 78, 0
8, 55763, Note_on_c, 8, 66, 27
8, 55772, Note_on_c, 8, 66, 0
8, 55795, Note_on_c, 8, 75, 82
8, 55797, Note_on_c, 8, 71, 73
8, 55840, Note_on_c, 8, 75, 0
8, 55842, Note_on_c, 8, 71, 0
8, 55882, Note_on_c, 8, 66, 44
8, 55900, Note_on_c, 8, 66, 0
8, 55911, Note_on_c, 8, 75, 29
8, 55918, Note_on_c, 8, 75, 0
8, 55999, Note_on_c, 8, 66, 48
8, 56012, Note_on_c, 8, 66, 0
8, 56032, Note_on_c, 8, 75, 100
8, 56032, Note_on_c, 8, 71, 100
8, 56095, Note_on_c, 8, 75, 0
8, 56097, Note_on_c, 8, 71, 0
8, 56117, Note_on_c, 8, 66, 16
8, 56117, Note_on_c, 8, 66, 0
8, 56153, Note_on_c, 8, 73, 60
8, 56153, Note_on_c, 8, 68, 48
8, 56155, Note_on_c, 8, 64, 52
8, 56178, Note_on_c, 8, 64, 0
8, 56180, Note_on_c, 8, 73, 0
8, 56182, Note_on_c, 8, 68, 0
8, 56355, Note_on_c, 8, 78, 82
8, 56359, Note_on_c, 8, 75, 64
8, 56361, Note_on_c, 8, 73, 73
8, 56363, Note_on_c, 8, 66, 91
8, 56363, Note_on_c, 8, 76, 82
8, 56370, Note_on_c, 8, 73, 0
8, 56372, Note_on_c, 8, 66, 0
8, 56372, Note_on_c, 8, 78, 0
8, 56372, Note_on_c, 8, 75, 0
8, 56372, Note_on_c, 8, 76, 0
8, 56719, Note_on_c, 8, 73, 36
8, 56728, Note_on_c, 8, 73, 0
8, 56748, Note_on_c, 8, 81, 82
8, 56752, Note_on_c, 8, 78, 82
8, 56752, Note_on_c, 8, 73, 91
8, 56806, Note_on_c, 8, 73, 0
8, 56810, Note_on_c, 8, 78, 0
8, 56817, Note_on_c, 8, 81, 0
8, 56873, Note_on_c, 8, 78, 91
8, 56875, Note_on_c, 8, 73, 64
8, 56934, Note_on_c, 8, 73, 0
8, 56951, Note_on_c, 8, 78, 0
8, 56951, Note_on_c, 8, 76, 64
8, 56958, Note_on_c, 8, 76, 0
8, 57108, Note_on_c, 8, 73, 73
8, 57109, Note_on_c, 8, 84, 73
8, 57113, Note_on_c, 8, 85, 82
8, 57122, Note_on_c, 8, 84, 0
8, 57162, Note_on_c, 8, 73, 0
8, 57167, Note_on_c, 8, 85, 0
8, 57564, Note_on_c, 8, 87, 91
8, 57565, Note_on_c, 8, 85, 91
8, 57567, Note_on_c, 8, 78, 82
8, 57567, Note_on_c, 8, 81, 82
8, 57584, Note_on_c, 8, 87, 0
8, 57594, Note_on_c, 8, 78, 0
8, 57603, Note_on_c, 8, 81, 0
8, 57605, Note_on_c, 8, 82, 52
8, 57607, Note_on_c, 8, 85, 0
8, 57624, Note_on_c, 8, 80, 44
8, 57625, Note_on_c, 8, 82, 0
8, 57631, Note_on_c, 8, 81, 17
8, 57631, Note_on_c, 8, 79, 32
8, 57636, Note_on_c, 8, 77, 60
8, 57636, Note_on_c, 8, 78, 16
8, 57638, Note_on_c, 8, 78, 0
8, 57638, Note_on_c, 8, 80, 0
8, 57638, Note_on_c, 8, 81, 0
8, 57642, Note_on_c, 8, 76, 56
8, 57644, Note_on_c, 8, 79, 0
8, 57649, Note_on_c, 8, 74, 64
8, 57651, Note_on_c, 8, 77, 0
8, 57657, Note_on_c, 8, 76, 0
8, 57657, Note_on_c, 8, 72, 56
8, 57664, Note_on_c, 8, 71, 52
8, 57666, Note_on_c, 8, 74, 0
8, 57673, Note_on_c, 8, 72, 0
8, 57673, Note_on_c, 8, 69, 44
8, 57677, Note_on_c, 8, 71, 0
8, 57683, Note_on_c, 8, 69, 0
8, 57683, Note_on_c, 8, 67, 25
8, 57688, Note_on_c, 8, 67, 0
8, 57935, Note_on_c, 8, 76, 16
8, 57935, Note_on_c, 8, 76, 0
8, 57964, Note_on_c, 8, 81, 100
8, 58009, Note_on_c, 8, 76, 16
8, 58013, Note_on_c, 8, 76, 0
8, 58013, Note_on_c, 8, 81, 0
8, 58027, Note_on_c, 8, 78, 52
8, 58092, Note_on_c, 8, 78, 0
8, 58324, Note_on_c, 8, 78, 36
8, 58328, Note_on_c, 8, 73, 44
8, 58333, Note_on_c, 8, 66, 19
8, 58363, Note_on_c, 8, 73, 0
8, 58366, Note_on_c, 8, 78, 0
8, 58368, Note_on_c, 8, 66, 0
8, 58517, Note_on_c, 8, 78, 91
8, 58519, Note_on_c, 8, 76, 91
8, 58522, Note_on_c, 8, 73, 73
8, 58523, Note_on_c, 8, 75, 73
8, 58524, Note_on_c, 8, 66, 91
8, 58531, Note_on_c, 8, 66, 0
8, 58531, Note_on_c, 8, 76, 0
8, 58531, Note_on_c, 8, 75, 0
8, 58533, Note_on_c, 8, 73, 0
8, 58533, Note_on_c, 8, 78, 0
8, 58756, Note_on_c, 8, 75, 100
8, 58758, Note_on_c, 8, 78, 91
8, 58760, Note_on_c, 8, 73, 91
8, 58762, Note_on_c, 8, 66, 91
8, 58764, Note_on_c, 8, 76, 91
8, 58767, Note_on_c, 8, 76, 0
8, 58769, Note_on_c, 8, 73, 0
8, 58769, Note_on_c, 8, 75, 0
8, 58771, Note_on_c, 8, 78, 0
8, 58771, Note_on_c, 8, 66, 0
8, 59362, Note_on_c, 8, 66, 64
8, 59378, Note_on_c, 8, 66, 0
8, 59394, Note_on_c, 8, 81, 91
8, 59396, Note_on_c, 8, 76, 82
8, 59452, Note_on_c, 8, 81, 0
8, 59470, Note_on_c, 8, 76, 0
8, 59475, Note_on_c, 8, 75, 60
8, 59475, Note_on_c, 8, 80, 73
8, 59497, Note_on_c, 8, 75, 0
8, 59522, Note_on_c, 8, 80, 0
8, 59526, Note_on_c, 8, 73, 44
8, 59526, Note_on_c, 8, 78, 52
8, 59535, Note_on_c, 8, 73, 0
8, 59544, Note_on_c, 8, 78, 0
8, 59636, Note_on_c, 8, 81, 91
8, 59639, Note_on_c, 8, 76, 91
8, 59687, Note_on_c, 8, 81, 0
8, 59689, Note_on_c, 8, 76, 0
8, 59720, Note_on_c, 8, 78, 91
8, 59720, Note_on_c, 8, 73, 82
8, 59723, Note_on_c, 8, 80, 60
8, 59729, Note_on_c, 8, 80, 0
8, 59748, Note_on_c, 8, 73, 0
8, 59760, Note_on_c, 8, 75, 24
8, 59763, Note_on_c, 8, 76, 60
8, 59765, Note_on_c, 8, 78, 0
8, 59765, Note_on_c, 8, 77, 56
8, 59767, Note_on_c, 8, 74, 82
8, 59771, Note_on_c, 8, 73, 40
8, 59772, Note_on_c, 8, 77, 0
8, 59774, Note_on_c, 8, 72, 64
8, 59776, Note_on_c, 8, 75, 0
8, 59780, Note_on_c, 8, 73, 0
8, 59782, Note_on_c, 8, 71, 48
8, 59784, Note_on_c, 8, 76, 0
8, 59789, Note_on_c, 8, 74, 0
8, 59789, Note_on_c, 8, 69, 31
8, 59797, Note_on_c, 8, 72, 0
8, 59797, Note_on_c, 8, 67, 32
8, 59802, Note_on_c, 8, 71, 0
8, 59804, Note_on_c, 8, 65, 52
8, 59808, Note_on_c, 8, 69, 0
8, 59815, Note_on_c, 8, 67, 0
8, 59815, Note_on_c, 8, 64, 32
8, 59820, Note_on_c, 8, 65, 0
8, 59826, Note_on_c, 8, 64, 0
8, 59828, Note_on_c, 8, 62, 16
8, 59833, Note_on_c, 8, 62, 0
8, 59988, Note_on_c, 8, 84, 82
8, 59990, Note_on_c, 8, 80, 73
8, 59990, Note_on_c, 8, 73, 73
8, 59994, Note_on_c, 8, 85, 64
8, 60009, Note_on_c, 8, 84, 0
8, 60019, Note_on_c, 8, 80, 0
8, 60027, Note_on_c, 8, 73, 0
8, 60077, Note_on_c, 8, 85, 0
8, 60437, Note_on_c, 8, 69, 82
8, 60441, Note_on_c, 8, 78, 91
8, 60443, Note_on_c, 8, 73, 100
8, 60443, Note_on_c, 8, 75, 82
8, 60765, Note_on_c, 8, 69, 0
8, 60796, Note_on_c, 8, 78, 0
8, 60800, Note_on_c, 8, 75, 0
8, 60802, Note_on_c, 8, 69, 60
8, 60805, Note_on_c, 8, 73, 0
8, 60819, Note_on_c, 8, 69, 0
8, 60828, Note_on_c, 8, 73, 91
8, 60830, Note_on_c, 8, 78, 91
8, 60895, Note_on_c, 8, 73, 0
8, 60903, Note_on_c, 8, 78, 0
8, 60915, Note_on_c, 8, 78, 73
8, 60917, Note_on_c, 8, 66, 73
8, 60917, Note_on_c, 8, 73, 64
8, 60936, Note_on_c, 8, 66, 0
8, 60937, Note_on_c, 8, 78, 0
8, 60943, Note_on_c, 8, 73, 0
8, 61161, Note_on_c, 8, 78, 64
8, 61163, Note_on_c, 8, 66, 64
8, 61163, Note_on_c, 8, 73, 60
8, 61172, Note_on_c, 8, 78, 0
8, 61174, Note_on_c, 8, 73, 0
8, 61174, Note_on_c, 8, 66, 0
8, 61525, Note_on_c, 8, 66, 22
8, 61530, Note_on_c, 8, 66, 0
8, 61557, Note_on_c, 8, 81, 82
8, 61557, Note_on_c, 8, 76, 91
8, 61619, Note_on_c, 8, 81, 0
8, 61641, Note_on_c, 8, 75, 48
8, 61642, Note_on_c, 8, 76, 0
8, 61644, Note_on_c, 8, 80, 60
8, 61657, Note_on_c, 8, 75, 0
8, 61673, Note_on_c, 8, 80, 0
8, 61677, Note_on_c, 8, 73, 64
8, 61679, Note_on_c, 8, 78, 56
8, 61749, Note_on_c, 8, 73, 0
8, 61765, Note_on_c, 8, 78, 0
8, 61801, Note_on_c, 8, 75, 73
8, 61801, Note_on_c, 8, 80, 73
8, 61848, Note_on_c, 8, 80, 0
8, 61852, Note_on_c, 8, 75, 0
8, 62280, Note_on_c, 8, 73, 82
8, 62282, Note_on_c, 8, 84, 91
8, 62286, Note_on_c, 8, 85, 73
8, 62301, Note_on_c, 8, 84, 0
8, 62303, Note_on_c, 8, 73, 0
8, 62340, Note_on_c, 8, 85, 0
8, 62594, Note_on_c, 8, 89, 100
8, 62596, Note_on_c, 8, 90, 91
8, 62596, Note_on_c, 8, 78, 91
8, 62618, Note_on_c, 8, 89, 0
8, 62625, Note_on_c, 8, 89, 16
8, 62630, Note_on_c, 8, 89, 0
8, 62832, Note_on_c, 8, 78, 0
8, 62877, Note_on_c, 8, 85, 91
8, 62892, Note_on_c, 8, 90, 0
8, 62948, Note_on_c, 8, 85, 0
8, 63326, Note_on_c, 8, 87, 91
8, 63326, Note_on_c, 8, 78, 82
8, 63326, Note_on_c, 8, 83, 91
8, 63330, Note_on_c, 8, 81, 56
8, 63349, Note_on_c, 8, 87, 0
8, 63353, Note_on_c, 8, 78, 0
8, 63371, Note_on_c, 8, 81, 0
8, 63375, Note_on_c, 8, 83, 0
8, 63843, Note_on_c, 8, 66, 16
8, 63845, Note_on_c, 8, 66, 0
8, 64084, Note_on_c, 8, 81, 91
8, 64118, Note_on_c, 8, 81, 0
8, 64128, Note_on_c, 8, 73, 36
8, 64137, Note_on_c, 8, 73, 0
8, 64162, Note_on_c, 8, 78, 91
8, 64203, Note_on_c, 8, 78, 0
8, 64203, Note_on_c, 8, 73, 32
8, 64216, Note_on_c, 8, 73, 0
8, 64242, Note_on_c, 8, 76, 56
8, 64272, Note_on_c, 8, 76, 0
8, 64276, Note_on_c, 8, 73, 40
8, 64294, Note_on_c, 8, 73, 0
8, 64321, Note_on_c, 8, 76, 64
8, 64361, Note_on_c, 8, 78, 56
8, 64368, Note_on_c, 8, 76, 0
8, 64390, Note_on_c, 8, 78, 0
8, 64406, Note_on_c, 8, 73, 40
8, 64424, Note_on_c, 8, 73, 0
8, 64439, Note_on_c, 8, 78, 64
8, 64473, Note_on_c, 8, 78, 0
8, 64480, Note_on_c, 8, 73, 27
8, 64493, Note_on_c, 8, 73, 0
8, 64522, Note_on_c, 8, 81, 30
8, 64529, Note_on_c, 8, 78, 29
8, 64535, Note_on_c, 8, 81, 0
8, 64542, Note_on_c, 8, 78, 0
8, 64675, Note_on_c, 8, 87, 91
8, 64675, Note_on_c, 8, 83, 91
8, 64677, Note_on_c, 8, 78, 82
8, 64715, Note_on_c, 8, 78, 0
8, 64737, Note_on_c, 8, 87, 0
8, 64739, Note_on_c, 8, 83, 0
8, 64753, Note_on_c, 8, 78, 16
8, 64757, Note_on_c, 8, 78, 0
8, 64797, Note_on_c, 8, 76, 73
8, 64797, Note_on_c, 8, 85, 73
8, 64797, Note_on_c, 8, 80, 82
8, 64829, Note_on_c, 8, 82, 44
8, 64842, Note_on_c, 8, 80, 0
8, 64844, Note_on_c, 8, 76, 0
8, 64858, Note_on_c, 8, 85, 0
8, 64874, Note_on_c, 8, 82, 0
8, 64882, Note_on_c, 8, 76, 64
8, 64884, Note_on_c, 8, 85, 73
8, 64884, Note_on_c, 8, 80, 60
8, 64895, Note_on_c, 8, 80, 0
8, 64895, Note_on_c, 8, 85, 0
8, 64895, Note_on_c, 8, 76, 0
8, 65158, Note_on_c, 8, 75, 91
8, 65158, Note_on_c, 8, 71, 91
8, 65160, Note_on_c, 8, 66, 91
8, 65207, Note_on_c, 8, 66, 0
8, 65239, Note_on_c, 8, 66, 40
8, 65248, Note_on_c, 8, 71, 0
8, 65250, Note_on_c, 8, 75, 0
8, 65255, Note_on_c, 8, 66, 0
8, 65273, Note_on_c, 8, 76, 64
8, 65275, Note_on_c, 8, 73, 60
8, 65343, Note_on_c, 8, 76, 0
8, 65351, Note_on_c, 8, 73, 0
8, 65358, Note_on_c, 8, 66, 32
8, 65371, Note_on_c, 8, 66, 0
8, 65389, Note_on_c, 8, 71, 73
8, 65389, Note_on_c, 8, 75, 82
8, 65440, Note_on_c, 8, 71, 0
8, 65452, Note_on_c, 8, 75, 0
8, 65713, Note_on_c, 8, 85, 100
8, 65774, Note_on_c, 8, 85, 0
8, 65958, Note_on_c, 8, 73, 82
8, 65958, Note_on_c, 8, 84, 73
8, 65961, Note_on_c, 8, 85, 91
8, 65973, Note_on_c, 8, 84, 0
8, 66074, Note_on_c, 8, 73, 0
8, 66088, Note_on_c, 8, 85, 0
8, 66200, Note_on_c, 8, 82, 82
8, 66202, Note_on_c, 8, 87, 82
8, 66204, Note_on_c, 8, 78, 73
8, 66205, Note_on_c, 8, 81, 64
8, 66216, Note_on_c, 8, 82, 0
8, 66218, Note_on_c, 8, 81, 0
8, 66222, Note_on_c, 8, 78, 0
8, 66224, Note_on_c, 8, 87, 0
8, 66364, Note_on_c, 8, 90, 91
8, 66364, Note_on_c, 8, 78, 82
8, 66366, Note_on_c, 8, 82, 82
8, 66379, Note_on_c, 8, 78, 0
8, 66397, Note_on_c, 8, 82, 0
8, 66405, Note_on_c, 8, 90, 0
8, 66437, Note_on_c, 8, 78, 40
8, 66448, Note_on_c, 8, 78, 0
8, 66484, Note_on_c, 8, 93, 82
8, 66488, Note_on_c, 8, 87, 82
8, 66488, Note_on_c, 8, 81, 91
8, 66529, Note_on_c, 8, 81, 0
8, 66535, Note_on_c, 8, 87, 0
8, 66542, Note_on_c, 8, 93, 0
8, 66551, Note_on_c, 8, 93, 73
8, 66553, Note_on_c, 8, 87, 73
8, 66553, Note_on_c, 8, 81, 82
8, 66586, Note_on_c, 8, 93, 0
8, 66588, Note_on_c, 8, 87, 0
8, 66589, Note_on_c, 8, 81, 0
8, 67079, Note_on_c, 8, 90, 82
8, 67084, Note_on_c, 8, 78, 56
8, 67084, Note_on_c, 8, 85, 64
8, 67086, Note_on_c, 8, 89, 48
8, 67140, Note_on_c, 8, 78, 0
8, 67144, Note_on_c, 8, 90, 0
8, 67144, Note_on_c, 8, 85, 0
8, 67148, Note_on_c, 8, 89, 0
8, 67163, Note_on_c, 8, 90, 82
8, 67166, Note_on_c, 8, 85, 73
8, 67168, Note_on_c, 8, 78, 82
8, 67170, Note_on_c, 8, 89, 56
8, 67177, Note_on_c, 8, 89, 0
8, 67191, Note_on_c, 8, 78, 0
8, 67195, Note_on_c, 8, 90, 0
8, 67199, Note_on_c, 8, 85, 0
8, 67518, Note_on_c, 8, 78, 32
8, 67527, Note_on_c, 8, 78, 0
8, 67558, Note_on_c, 8, 87, 91
8, 67558, Note_on_c, 8, 78, 91
8, 67558, Note_on_c, 8, 83, 91
8, 67606, Note_on_c, 8, 78, 0
8, 67624, Note_on_c, 8, 83, 0
8, 67626, Note_on_c, 8, 87, 0
8, 67639, Note_on_c, 8, 78, 16
8, 67641, Note_on_c, 8, 78, 0
8, 67680, Note_on_c, 8, 76, 64
8, 67682, Note_on_c, 8, 80, 73
8, 67682, Note_on_c, 8, 85, 64
8, 67701, Note_on_c, 8, 82, 73
8, 67710, Note_on_c, 8, 80, 0
8, 67713, Note_on_c, 8, 76, 0
8, 67722, Note_on_c, 8, 85, 0
8, 67731, Note_on_c, 8, 80, 56
8, 67733, Note_on_c, 8, 76, 52
8, 67739, Note_on_c, 8, 82, 0
8, 67744, Note_on_c, 8, 80, 0
8, 67746, Note_on_c, 8, 76, 0
8, 68274, Note_on_c, 8, 48, 16
8, 68276, Note_on_c, 8, 48, 0
8, 68285, Note_on_c, 8, 50, 16
8, 68292, Note_on_c, 8, 50, 0
8, 68297, Note_on_c, 8, 52, 16
8, 68303, Note_on_c, 8, 52, 0
8, 68316, Note_on_c, 8, 53, 16
8, 68317, Note_on_c, 8, 53, 0
8, 68323, Note_on_c, 8, 62, 16
8, 68328, Note_on_c, 8, 62, 0
8, 68332, Note_on_c, 8, 64, 16
8, 68340, Note_on_c, 8, 65, 16
8, 68341, Note_on_c, 8, 57, 16
8, 68341, Note_on_c, 8, 57, 0
8, 68343, Note_on_c, 8, 64, 0
8, 68345, Note_on_c, 8, 67, 16
8, 68349, Note_on_c, 8, 69, 16
8, 68354, Note_on_c, 8, 59, 16
8, 68356, Note_on_c, 8, 59, 0
8, 68356, Note_on_c, 8, 71, 16
8, 68360, Note_on_c, 8, 65, 0
8, 68362, Note_on_c, 8, 72, 16
8, 68362, Note_on_c, 8, 68, 16
8, 68364, Note_on_c, 8, 60, 16
8, 68367, Note_on_c, 8, 68, 0
8, 68371, Note_on_c, 8, 62, 22
8, 68371, Note_on_c, 8, 74, 16
8, 68373, Note_on_c, 8, 60, 0
8, 68379, Note_on_c, 8, 67, 0
8, 68379, Note_on_c, 8, 70, 16
8, 68379, Note_on_c, 8, 70, 0
8, 68381, Note_on_c, 8, 64, 19
8, 68390, Note_on_c, 8, 62, 0
8, 68390, Note_on_c, 8, 76, 16
8, 68394, Note_on_c, 8, 67, 16
8, 68394, Note_on_c, 8, 65, 24
8, 68399, Note_on_c, 8, 71, 0
8, 68401, Note_on_c, 8, 64, 0
8, 68408, Note_on_c, 8, 72, 0
8, 68410, Note_on_c, 8, 77, 16
8, 68412, Note_on_c, 8, 65, 0
8, 68419, Note_on_c, 8, 74, 0
8, 68419, Note_on_c, 8, 71, 16
8, 68423, Note_on_c, 8, 67, 0
8, 68425, Note_on_c, 8, 72, 16
8, 68429, Note_on_c, 8, 76, 0
8, 68434, Note_on_c, 8, 69, 0
8, 68434, Note_on_c, 8, 74, 16
8, 68434, Note_on_c, 8, 79, 16
8, 68436, Note_on_c, 8, 77, 0
8, 68446, Note_on_c, 8, 71, 0
8, 68446, Note_on_c, 8, 76, 16
8, 68447, Note_on_c, 8, 81, 16
8, 68449, Note_on_c, 8, 79, 0
8, 68455, Note_on_c, 8, 72, 0
8, 68457, Note_on_c, 8, 77, 16
8, 68459, Note_on_c, 8, 83, 16
8, 68460, Note_on_c, 8, 81, 0
8, 68462, Note_on_c, 8, 74, 0
8, 68462, Note_on_c, 8, 79, 16
8, 68464, Note_on_c, 8, 83, 0
8, 68470, Note_on_c, 8, 84, 16
8, 68472, Note_on_c, 8, 84, 0
8, 68472, Note_on_c, 8, 76, 0
8, 68472, Note_on_c, 8, 81, 16
8, 68477, Note_on_c, 8, 77, 0
8, 68484, Note_on_c, 8, 79, 0
8, 68484, Note_on_c, 8, 83, 28
8, 68492, Note_on_c, 8, 81, 0
8, 68492, Note_on_c, 8, 84, 23
8, 68501, Note_on_c, 8, 83, 0
8, 68501, Note_on_c, 8, 86, 23
8, 68508, Note_on_c, 8, 84, 0
8, 68508, Note_on_c, 8, 88, 29
8, 68516, Note_on_c, 8, 86, 0
8, 68518, Note_on_c, 8, 89, 32
8, 68527, Note_on_c, 8, 88, 0
8, 68529, Note_on_c, 8, 91, 60
8, 68538, Note_on_c, 8, 89, 0
8, 68540, Note_on_c, 8, 93, 56
8, 68547, Note_on_c, 8, 91, 0
8, 68549, Note_on_c, 8, 95, 73
8, 68556, Note_on_c, 8, 93, 0
8, 68558, Note_on_c, 8, 96, 64
8, 68560, Note_on_c, 8, 95, 0
8, 68564, Note_on_c, 8, 96, 0
8, 68632, Note_on_c, 8, 85, 100
8, 68713, Note_on_c, 8, 85, 0
8, 69120, Note_on_c, 8, 87, 82
8, 69122, Note_on_c, 8, 85, 73
8, 69124, Note_on_c, 8, 78, 64
8, 69124, Note_on_c, 8, 81, 64
8, 69151, Note_on_c, 8, 78, 0
8, 69155, Note_on_c, 8, 87, 0
8, 69156, Note_on_c, 8, 81, 0
8, 69158, Note_on_c, 8, 85, 0
8, 69200, Note_on_c, 8, 81, 52
8, 69200, Note_on_c, 8, 78, 48
8, 69205, Note_on_c, 8, 81, 0
8, 69209, Note_on_c, 8, 78, 0
8, 69621, Note_on_c, 8, 78, 73
8, 69625, Note_on_c, 8, 73, 56
8, 69625, Note_on_c, 8, 76, 60
8, 69627, Note_on_c, 8, 75, 56
8, 69634, Note_on_c, 8, 75, 0
8, 69634, Note_on_c, 8, 76, 0
8, 69638, Note_on_c, 8, 73, 0
8, 69638, Note_on_c, 8, 78, 0
8, 69721, Note_on_c, 8, 75, 60
8, 69723, Note_on_c, 8, 78, 73
8, 69723, Note_on_c, 8, 76, 73
8, 69723, Note_on_c, 8, 73, 64
8, 69736, Note_on_c, 8, 76, 0
8, 69738, Note_on_c, 8, 75, 0
8, 69738, Note_on_c, 8, 78, 0
8, 69738, Note_on_c, 8, 73, 0
8, 69803, Note_on_c, 8, 78, 91
8, 69804, Note_on_c, 8, 75, 91
8, 69806, Note_on_c, 8, 73, 82
8, 69806, Note_on_c, 8, 77, 56
8, 69806, Note_on_c, 8, 76, 56
8, 69814, Note_on_c, 8, 76, 0
8, 69814, Note_on_c, 8, 77, 0
8, 69817, Note_on_c, 8, 75, 0
8, 69819, Note_on_c, 8, 73, 0
8, 69821, Note_on_c, 8, 78, 0
8, 69884, Note_on_c, 8, 78, 100
8, 69888, Note_on_c, 8, 75, 91
8, 69888, Note_on_c, 8, 73, 82
8, 69888, Note_on_c, 8, 76, 73
8, 69888, Note_on_c, 8, 77, 82
8, 69898, Note_on_c, 8, 77, 0
8, 69898, Note_on_c, 8, 76, 0
8, 69901, Note_on_c, 8, 75, 0
8, 69903, Note_on_c, 8, 78, 0
8, 69905, Note_on_c, 8, 73, 0
8, 69966, Note_on_c, 8, 78, 100
8, 69968, Note_on_c, 8, 76, 91
8, 69968, Note_on_c, 8, 75, 100
8, 69968, Note_on_c, 8, 73, 82
8, 69997, Note_on_c, 8, 75, 0
8, 69997, Note_on_c, 8, 76, 0
8, 70003, Note_on_c, 8, 78, 0
8, 70007, Note_on_c, 8, 73, 0
8, 70289, Note_on_c, 8, 66, 16
8, 70289, Note_on_c, 8, 66, 0
8, 70315, Note_on_c, 8, 78, 60
8, 70336, Note_on_c, 8, 78, 0
8, 70406, Note_on_c, 8, 66, 40
8, 70414, Note_on_c, 8, 66, 0
8, 70441, Note_on_c, 8, 78, 91
8, 70443, Note_on_c, 8, 71, 100
8, 70445, Note_on_c, 8, 75, 91
8, 70445, Note_on_c, 8, 66, 91
8, 70490, Note_on_c, 8, 66, 0
8, 70500, Note_on_c, 8, 71, 0
8, 70506, Note_on_c, 8, 78, 0
8, 70513, Note_on_c, 8, 75, 0
8, 70645, Note_on_c, 8, 78, 82
8, 70645, Note_on_c, 8, 66, 91
8, 70645, Note_on_c, 8, 76, 82
8, 70647, Note_on_c, 8, 73, 82
8, 70652, Note_on_c, 8, 66, 0
8, 70656, Note_on_c, 8, 73, 0
8, 70658, Note_on_c, 8, 76, 0
8, 70660, Note_on_c, 8, 78, 0
8, 70799, Note_on_c, 8, 81, 82
8, 70800, Note_on_c, 8, 76, 73
8, 70800, Note_on_c, 8, 78, 64
8, 70806, Note_on_c, 8, 73, 64
8, 70844, Note_on_c, 8, 73, 0
8, 70846, Note_on_c, 8, 78, 0
8, 70851, Note_on_c, 8, 76, 0
8, 70864, Note_on_c, 8, 81, 0
8, 70875, Note_on_c, 8, 80, 82
8, 70875, Note_on_c, 8, 76, 82
8, 70875, Note_on_c, 8, 71, 100
8, 70891, Note_on_c, 8, 71, 0
8, 70919, Note_on_c, 8, 80, 0
8, 70922, Note_on_c, 8, 78, 60
8, 70926, Note_on_c, 8, 70, 40
8, 70940, Note_on_c, 8, 76, 0
8, 70944, Note_on_c, 8, 70, 0
8, 70975, Note_on_c, 8, 78, 0
8, 71119, Note_on_c, 8, 73, 36
8, 71128, Note_on_c, 8, 73, 0
8, 71157, Note_on_c, 8, 81, 73
8, 71157, Note_on_c, 8, 76, 82
8, 71159, Note_on_c, 8, 78, 64
8, 71160, Note_on_c, 8, 73, 60
8, 71193, Note_on_c, 8, 81, 0
8, 71200, Note_on_c, 8, 73, 0
8, 71215, Note_on_c, 8, 76, 0
8, 71224, Note_on_c, 8, 78, 0
8, 71231, Note_on_c, 8, 83, 82
8, 71231, Note_on_c, 8, 74, 60
8, 71249, Note_on_c, 8, 74, 0
8, 71260, Note_on_c, 8, 83, 0
8, 71278, Note_on_c, 8, 80, 32
8, 71282, Note_on_c, 8, 85, 73
8, 71286, Note_on_c, 8, 76, 44
8, 71315, Note_on_c, 8, 80, 0
8, 71324, Note_on_c, 8, 81, 56
8, 71334, Note_on_c, 8, 76, 0
8, 71334, Note_on_c, 8, 80, 16
8, 71338, Note_on_c, 8, 80, 0
8, 71338, Note_on_c, 8, 85, 0
8, 71356, Note_on_c, 8, 82, 56
8, 71358, Note_on_c, 8, 81, 0
8, 71371, Note_on_c, 8, 76, 30
8, 71378, Note_on_c, 8, 82, 0
8, 71378, Note_on_c, 8, 81, 56
8, 71399, Note_on_c, 8, 76, 0
8, 71400, Note_on_c, 8, 81, 0
8, 71472, Note_on_c, 8, 78, 56
8, 71492, Note_on_c, 8, 84, 64
8, 71497, Note_on_c, 8, 82, 32
8, 71499, Note_on_c, 8, 78, 0
8, 71508, Note_on_c, 8, 82, 0
8, 71518, Note_on_c, 8, 85, 73
8, 71521, Note_on_c, 8, 78, 82
8, 71531, Note_on_c, 8, 84, 0
8, 71536, Note_on_c, 8, 78, 0
8, 71606, Note_on_c, 8, 85, 0
8, 71964, Note_on_c, 8, 90, 100
8, 71966, Note_on_c, 8, 84, 60
8, 71966, Note_on_c, 8, 87, 91
8, 71968, Note_on_c, 8, 78, 82
8, 71968, Note_on_c, 8, 83, 73
8, 71970, Note_on_c, 8, 86, 60
8, 71972, Note_on_c, 8, 86, 0
8, 71972, Note_on_c, 8, 83, 0
8, 71976, Note_on_c, 8, 84, 0
8, 71981, Note_on_c, 8, 78, 0
8, 71994, Note_on_c, 8, 87, 0
8, 71996, Note_on_c, 8, 78, 16
8, 72270, Note_on_c, 8, 87, 21
8, 72284, Note_on_c, 8, 88, 48
8, 72284, Note_on_c, 8, 89, 40
8, 72286, Note_on_c, 8, 78, 0
8, 72291, Note_on_c, 8, 89, 0
8, 72293, Note_on_c, 8, 90, 0
8, 72293, Note_on_c, 8, 85, 26
8, 72301, Note_on_c, 8, 88, 0
8, 72313, Note_on_c, 8, 82, 44
8, 72315, Note_on_c, 8, 87, 0
8, 72326, Note_on_c, 8, 85, 0
8, 72326, Note_on_c, 8, 80, 56
8, 72328, Note_on_c, 8, 83, 28
8, 72328, Note_on_c, 8, 81, 60
8, 72330, Note_on_c, 8, 84, 16
8, 72330, Note_on_c, 8, 84, 0
8, 72337, Note_on_c, 8, 79, 48
8, 72339, Note_on_c, 8, 83, 0
8, 72339, Note_on_c, 8, 82, 0
8, 72339, Note_on_c, 8, 78, 73
8, 72343, Note_on_c, 8, 77, 64
8, 72347, Note_on_c, 8, 80, 0
8, 72347, Note_on_c, 8, 81, 0
8, 72351, Note_on_c, 8, 78, 0
8, 72351, Note_on_c, 8, 76, 44
8, 72357, Note_on_c, 8, 79, 0
8, 72357, Note_on_c, 8, 74, 32
8, 72362, Note_on_c, 8, 77, 0
8, 72364, Note_on_c, 8, 72, 36
8, 72367, Note_on_c, 8, 76, 0
8, 72373, Note_on_c, 8, 74, 0
8, 72375, Note_on_c, 8, 71, 32
8, 72377, Note_on_c, 8, 72, 0
8, 72380, Note_on_c, 8, 71, 0
8, 72679, Note_on_c, 8, 90, 64
8, 72684, Note_on_c, 8, 85, 64
8, 72684, Note_on_c, 8, 87, 56
8, 72687, Note_on_c, 8, 90, 0
8, 72687, Note_on_c, 8, 78, 82
8, 72687, Note_on_c, 8, 88, 60
8, 72687, Note_on_c, 8, 89, 64
8, 72691, Note_on_c, 8, 89, 0
8, 72696, Note_on_c, 8, 86, 44
8, 72703, Note_on_c, 8, 78, 0
8, 72703, Note_on_c, 8, 88, 0
8, 72705, Note_on_c, 8, 82, 60
8, 72705, Note_on_c, 8, 84, 48
8, 72711, Note_on_c, 8, 87, 0
8, 72711, Note_on_c, 8, 83, 56
8, 72717, Note_on_c, 8, 86, 0
8, 72719, Note_on_c, 8, 81, 36
8, 72722, Note_on_c, 8, 85, 0
8, 72728, Note_on_c, 8, 82, 0
8, 72730, Note_on_c, 8, 84, 0
8, 72730, Note_on_c, 8, 79, 16
8, 72733, Note_on_c, 8, 77, 52
8, 72735, Note_on_c, 8, 83, 0
8, 72737, Note_on_c, 8, 76, 64
8, 72743, Note_on_c, 8, 81, 0
8, 72744, Note_on_c, 8, 74, 52
8, 72748, Note_on_c, 8, 79, 0
8, 72752, Note_on_c, 8, 77, 0
8, 72752, Note_on_c, 8, 72, 36
8, 72757, Note_on_c, 8, 76, 0
8, 72759, Note_on_c, 8, 71, 44
8, 72763, Note_on_c, 8, 74, 0
8, 72768, Note_on_c, 8, 72, 0
8, 72768, Note_on_c, 8, 69, 40
8, 72774, Note_on_c, 8, 71, 0
8, 72776, Note_on_c, 8, 69, 0
8, 72780, Note_on_c, 8, 67, 16
8, 72781, Note_on_c, 8, 67, 0
8, 73204, Note_on_c, 8, 90, 91
8, 73204, Note_on_c, 8, 88, 73
8, 73206, Note_on_c, 8, 85, 91
8, 73208, Note_on_c, 8, 78, 91
8, 73210, Note_on_c, 8, 89, 82
8, 73250, Note_on_c, 8, 89, 0
8, 73264, Note_on_c, 8, 90, 0
8, 73264, Note_on_c, 8, 78, 0
8, 73266, Note_on_c, 8, 85, 0
8, 73272, Note_on_c, 8, 88, 0
8, 73284, Note_on_c, 8, 85, 82
8, 73286, Note_on_c, 8, 78, 91
8, 73286, Note_on_c, 8, 87, 91
8, 73288, Note_on_c, 8, 90, 82
8, 73288, Note_on_c, 8, 88, 82
8, 73303, Note_on_c, 8, 88, 0
8, 73305, Note_on_c, 8, 90, 0
8, 73307, Note_on_c, 8, 87, 0
8, 73308, Note_on_c, 8, 78, 0
8, 73308, Note_on_c, 8, 85, 0
8, 73634, Note_on_c, 8, 85, 100
8, 73636, Note_on_c, 8, 88, 91
8, 73639, Note_on_c, 8, 78, 91
8, 73640, Note_on_c, 8, 87, 73
8, 73640, Note_on_c, 8, 90, 91
8, 73674, Note_on_c, 8, 87, 0
8, 73676, Note_on_c, 8, 85, 0
8, 73792, Note_on_c, 8, 88, 0
8, 73795, Note_on_c, 8, 87, 48
8, 73859, Note_on_c, 8, 78, 0
8, 73889, Note_on_c, 8, 78, 56
8, 73904, Note_on_c, 8, 90, 0
8, 73907, Note_on_c, 8, 78, 0
8, 73920, Note_on_c, 8, 85, 73
8, 73922, Note_on_c, 8, 90, 82
8, 73929, Note_on_c, 8, 87, 0
8, 73976, Note_on_c, 8, 90, 0
8, 74005, Note_on_c, 8, 85, 0
8, 74007, Note_on_c, 8, 78, 44
8, 74021, Note_on_c, 8, 78, 0
8, 74032, Note_on_c, 8, 88, 91
8, 74034, Note_on_c, 8, 85, 64
8, 74064, Note_on_c, 8, 88, 0
8, 74077, Note_on_c, 8, 83, 17
8, 74104, Note_on_c, 8, 85, 0
8, 74115, Note_on_c, 8, 83, 0
8, 74117, Note_on_c, 8, 78, 36
8, 74136, Note_on_c, 8, 78, 0
8, 74152, Note_on_c, 8, 83, 64
8, 74155, Note_on_c, 8, 85, 56
8, 74199, Note_on_c, 8, 83, 0
8, 74235, Note_on_c, 8, 78, 56
8, 74237, Note_on_c, 8, 86, 52
8, 74244, Note_on_c, 8, 86, 0
8, 74244, Note_on_c, 8, 78, 0
8, 74244, Note_on_c, 8, 82, 64
8, 74255, Note_on_c, 8, 85, 0
8, 74255, Note_on_c, 8, 83, 36
8, 74257, Note_on_c, 8, 80, 64
8, 74257, Note_on_c, 8, 84, 48
8, 74257, Note_on_c, 8, 81, 56
8, 74259, Note_on_c, 8, 84, 0
8, 74261, Note_on_c, 8, 79, 56
8, 74261, Note_on_c, 8, 78, 64
8, 74265, Note_on_c, 8, 83, 0
8, 74265, Note_on_c, 8, 82, 0
8, 74267, Note_on_c, 8, 77, 73
8, 74270, Note_on_c, 8, 80, 0
8, 74272, Note_on_c, 8, 78, 0
8, 74272, Note_on_c, 8, 81, 0
8, 74272, Note_on_c, 8, 76, 56
8, 74274, Note_on_c, 8, 79, 0
8, 74278, Note_on_c, 8, 74, 64
8, 74280, Note_on_c, 8, 77, 0
8, 74283, Note_on_c, 8, 72, 56
8, 74287, Note_on_c, 8, 76, 0
8, 74289, Note_on_c, 8, 71, 40
8, 74291, Note_on_c, 8, 74, 0
8, 74296, Note_on_c, 8, 72, 0
8, 74304, Note_on_c, 8, 71, 0
8, 74396, Note_on_c, 8, 85, 91
8, 74398, Note_on_c, 8, 73, 73
8, 74439, Note_on_c, 8, 73, 0
8, 74439, Note_on_c, 8, 85, 0
8, 74844, Note_on_c, 8, 82, 91
8, 74846, Note_on_c, 8, 78, 91
8, 74846, Note_on_c, 8, 87, 82
8, 74848, Note_on_c, 8, 85, 100
8, 74848, Note_on_c, 8, 86, 64
8, 74854, Note_on_c, 8, 86, 0
8, 74861, Note_on_c, 8, 81, 16
8, 74863, Note_on_c, 8, 81, 0
8, 74873, Note_on_c, 8, 82, 0
8, 74877, Note_on_c, 8, 87, 0
8, 74879, Note_on_c, 8, 81, 32
8, 74888, Note_on_c, 8, 78, 0
8, 74892, Note_on_c, 8, 81, 0
8, 74892, Note_on_c, 8, 82, 48
8, 74903, Note_on_c, 8, 85, 0
8, 74903, Note_on_c, 8, 80, 44
8, 74905, Note_on_c, 8, 83, 48
8, 74905, Note_on_c, 8, 81, 73
8, 74914, Note_on_c, 8, 79, 73
8, 74916, Note_on_c, 8, 82, 0
8, 74918, Note_on_c, 8, 83, 0
8, 74920, Note_on_c, 8, 80, 0
8, 74920, Note_on_c, 8, 78, 31
8, 74922, Note_on_c, 8, 77, 56
8, 74925, Note_on_c, 8, 78, 0
8, 74925, Note_on_c, 8, 76, 48
8, 74927, Note_on_c, 8, 81, 0
8, 74933, Note_on_c, 8, 79, 0
8, 74935, Note_on_c, 8, 74, 26
8, 74940, Note_on_c, 8, 77, 0
8, 74942, Note_on_c, 8, 72, 44
8, 74948, Note_on_c, 8, 76, 0
8, 74953, Note_on_c, 8, 71, 26
8, 74957, Note_on_c, 8, 74, 0
8, 74964, Note_on_c, 8, 72, 0
8, 74968, Note_on_c, 8, 71, 0
8, 74971, Note_on_c, 8, 69, 16
8, 74971, Note_on_c, 8, 69, 0
8, 75130, Note_on_c, 8, 82, 16
8, 75144, Note_on_c, 8, 82, 0
8, 75454, Note_on_c, 8, 78, 31
8, 75468, Note_on_c, 8, 78, 0
8, 75483, Note_on_c, 8, 90, 100
8, 75519, Note_on_c, 8, 88, 64
8, 75523, Note_on_c, 8, 90, 0
8, 75542, Note_on_c, 8, 88, 0
8, 75559, Note_on_c, 8, 88, 32
8, 75564, Note_on_c, 8, 85, 56
8, 75574, Note_on_c, 8, 88, 0
8, 75584, Note_on_c, 8, 85, 0
8, 75599, Note_on_c, 8, 78, 64
8, 75617, Note_on_c, 8, 78, 0
8, 75635, Note_on_c, 8, 90, 82
8, 75635, Note_on_c, 8, 78, 64
8, 75637, Note_on_c, 8, 87, 48
8, 75642, Note_on_c, 8, 88, 40
8, 75642, Note_on_c, 8, 85, 48
8, 75646, Note_on_c, 8, 88, 0
8, 75650, Note_on_c, 8, 85, 0
8, 75652, Note_on_c, 8, 87, 0
8, 75656, Note_on_c, 8, 78, 0
8, 75670, Note_on_c, 8, 90, 0
8, 75672, Note_on_c, 8, 78, 27
8, 75674, Note_on_c, 8, 88, 52
8, 75676, Note_on_c, 8, 87, 40
8, 75685, Note_on_c, 8, 78, 0
8, 75696, Note_on_c, 8, 88, 0
8, 75697, Note_on_c, 8, 87, 0
8, 75714, Note_on_c, 8, 85, 60
8, 75743, Note_on_c, 8, 85, 0
8, 75756, Note_on_c, 8, 78, 48
8, 75780, Note_on_c, 8, 78, 0
8, 75804, Note_on_c, 8, 83, 64
8, 75808, Note_on_c, 8, 78, 56
8, 75828, Note_on_c, 8, 78, 0
8, 75839, Note_on_c, 8, 83, 0
8, 75842, Note_on_c, 8, 78, 30
8, 75869, Note_on_c, 8, 78, 0
8, 75889, Note_on_c, 8, 81, 52
8, 75893, Note_on_c, 8, 83, 73
8, 75895, Note_on_c, 8, 78, 82
8, 75935, Note_on_c, 8, 81, 0
8, 75935, Note_on_c, 8, 85, 56
8, 75936, Note_on_c, 8, 78, 0
8, 75946, Note_on_c, 8, 83, 0
8, 75957, Note_on_c, 8, 85, 0
8, 75982, Note_on_c, 8, 78, 91
8, 75984, Note_on_c, 8, 81, 82
8, 75985, Note_on_c, 8, 83, 64
8, 75996, Note_on_c, 8, 83, 0
8, 76025, Note_on_c, 8, 78, 0
8, 76049, Note_on_c, 8, 81, 0
8, 76060, Note_on_c, 8, 78, 82
8, 76112, Note_on_c, 8, 78, 0
8, 76175, Note_on_c, 8, 77, 64
8, 76179, Note_on_c, 8, 78, 73
8, 76179, Note_on_c, 8, 73, 56
8, 76224, Note_on_c, 8, 78, 0
8, 76229, Note_on_c, 8, 73, 0
8, 76231, Note_on_c, 8, 77, 0
8, 76285, Note_on_c, 8, 78, 64
8, 76285, Note_on_c, 8, 75, 73
8, 76285, Note_on_c, 8, 71, 64
8, 76320, Note_on_c, 8, 71, 0
8, 76323, Note_on_c, 8, 75, 0
8, 76359, Note_on_c, 8, 70, 40
8, 76374, Note_on_c, 8, 73, 56
8, 76378, Note_on_c, 8, 70, 0
8, 76514, Note_on_c, 8, 66, 44
8, 76585, Note_on_c, 8, 66, 0
8, 76596, Note_on_c, 8, 78, 0
8, 76605, Note_on_c, 8, 73, 0
8, 76643, Note_on_c, 8, 66, 56
8, 76659, Note_on_c, 8, 66, 0
8, 76673, Note_on_c, 8, 75, 91
8, 76673, Note_on_c, 8, 78, 91
8, 76677, Note_on_c, 8, 73, 64
8, 76684, Note_on_c, 8, 73, 0
8, 76731, Note_on_c, 8, 78, 0
8, 76746, Note_on_c, 8, 75, 0
8, 76757, Note_on_c, 8, 66, 48
8, 76776, Note_on_c, 8, 66, 0
8, 76795, Note_on_c, 8, 78, 91
8, 76797, Note_on_c, 8, 73, 91
8, 76799, Note_on_c, 8, 76, 91
8, 76804, Note_on_c, 8, 75, 16
8, 76856, Note_on_c, 8, 75, 0
8, 76874, Note_on_c, 8, 76, 0
8, 76874, Note_on_c, 8, 66, 48
8, 76878, Note_on_c, 8, 78, 0
8, 76885, Note_on_c, 8, 73, 0
8, 76898, Note_on_c, 8, 66, 0
8, 76911, Note_on_c, 8, 78, 91
8, 76913, Note_on_c, 8, 75, 82
8, 76913, Note_on_c, 8, 66, 60
8, 76967, Note_on_c, 8, 66, 0
8, 76999, Note_on_c, 8, 66, 64
8, 77005, Note_on_c, 8, 78, 0
8, 77016, Note_on_c, 8, 75, 0
8, 77030, Note_on_c, 8, 66, 0
8, 77034, Note_on_c, 8, 73, 73
8, 77036, Note_on_c, 8, 78, 64
8, 77043, Note_on_c, 8, 78, 0
8, 77049, Note_on_c, 8, 73, 0
8, 77076, Note_on_c, 8, 62, 44
8, 77079, Note_on_c, 8, 62, 0
8, 77085, Note_on_c, 8, 59, 64
8, 77096, Note_on_c, 8, 60, 24
8, 77100, Note_on_c, 8, 59, 0
8, 77105, Note_on_c, 8, 62, 64
8, 77110, Note_on_c, 8, 60, 0
8, 77112, Note_on_c, 8, 64, 52
8, 77118, Note_on_c, 8, 62, 0
8, 77120, Note_on_c, 8, 65, 60
8, 77127, Note_on_c, 8, 64, 0
8, 77129, Note_on_c, 8, 66, 64
8, 77129, Note_on_c, 8, 67, 73
8, 77136, Note_on_c, 8, 65, 0
8, 77138, Note_on_c, 8, 66, 0
8, 77138, Note_on_c, 8, 69, 48
8, 77140, Note_on_c, 8, 68, 36
8, 77144, Note_on_c, 8, 67, 0
8, 77146, Note_on_c, 8, 68, 0
8, 77146, Note_on_c, 8, 71, 48
8, 77153, Note_on_c, 8, 69, 0
8, 77153, Note_on_c, 8, 72, 52
8, 77160, Note_on_c, 8, 71, 0
8, 77162, Note_on_c, 8, 74, 64
8, 77170, Note_on_c, 8, 72, 0
8, 77172, Note_on_c, 8, 76, 56
8, 77177, Note_on_c, 8, 74, 0
8, 77181, Note_on_c, 8, 77, 73
8, 77186, Note_on_c, 8, 76, 0
8, 77188, Note_on_c, 8, 79, 73
8, 77194, Note_on_c, 8, 77, 0
8, 77195, Note_on_c, 8, 81, 73
8, 77203, Note_on_c, 8, 79, 0
8, 77203, Note_on_c, 8, 83, 64
8, 77212, Note_on_c, 8, 81, 0
8, 77212, Note_on_c, 8, 84, 60
8, 77217, Note_on_c, 8, 83, 0
8, 77219, Note_on_c, 8, 86, 91
8, 77219, Note_on_c, 8, 85, 31
8, 77225, Note_on_c, 8, 85, 0
8, 77225, Note_on_c, 8, 84, 0
8, 77229, Note_on_c, 8, 88, 73
8, 77231, Note_on_c, 8, 87, 60
8, 77234, Note_on_c, 8, 87, 0
8, 77234, Note_on_c, 8, 86, 0
8, 77236, Note_on_c, 8, 89, 82
8, 77240, Note_on_c, 8, 88, 0
8, 77242, Note_on_c, 8, 90, 56
8, 77244, Note_on_c, 8, 91, 91
8, 77245, Note_on_c, 8, 90, 0
8, 77245, Note_on_c, 8, 89, 0
8, 77249, Note_on_c, 8, 91, 0
8, 77249, Note_on_c, 8, 93, 52
8, 77249, Note_on_c, 8, 92, 36
8, 77253, Note_on_c, 8, 93, 0
8, 77255, Note_on_c, 8, 92, 0
8, 77279, Note_on_c, 8, 85, 91
8, 77280, Note_on_c, 8, 87, 82
8, 77309, Note_on_c, 8, 87, 0
8, 77371, Note_on_c, 8, 85, 0
8, 77720, Note_on_c, 8, 90, 73
8, 77720, Note_on_c, 8, 78, 73
8, 77724, Note_on_c, 8, 85, 52
8, 77731, Note_on_c, 8, 85, 0
8, 77958, Note_on_c, 8, 93, 82
8, 77960, Note_on_c, 8, 88, 73
8, 78147, Note_on_c, 8, 78, 0
8, 78172, Note_on_c, 8, 90, 0
8, 78188, Note_on_c, 8, 93, 0
8, 78195, Note_on_c, 8, 87, 16
8, 78198, Note_on_c, 8, 87, 0
8, 78198, Note_on_c, 8, 90, 91
8, 78199, Note_on_c, 8, 85, 91
8, 78207, Note_on_c, 8, 88, 0
8, 78842, Note_on_c, 8, 87, 16
8, 78857, Note_on_c, 8, 87, 0
8, 78943, Note_on_c, 8, 78, 31
8, 78994, Note_on_c, 8, 78, 0
8, 79037, Note_on_c, 8, 78, 64
8, 79050, Note_on_c, 8, 85, 0
8, 79069, Note_on_c, 8, 83, 91
8, 79069, Note_on_c, 8, 87, 82
8, 79084, Note_on_c, 8, 78, 0
8, 79162, Note_on_c, 8, 78, 48
8, 79165, Note_on_c, 8, 90, 0
8, 79169, Note_on_c, 8, 83, 0
8, 79183, Note_on_c, 8, 78, 0
8, 79189, Note_on_c, 8, 87, 0
8, 79194, Note_on_c, 8, 83, 91
8, 79194, Note_on_c, 8, 90, 91
8, 79194, Note_on_c, 8, 85, 82
8, 79258, Note_on_c, 8, 83, 0
8, 79279, Note_on_c, 8, 78, 82
8, 79294, Note_on_c, 8, 90, 0
8, 79296, Note_on_c, 8, 85, 0
8, 79301, Note_on_c, 8, 78, 0
8, 79557, Note_on_c, 8, 90, 82
8, 79557, Note_on_c, 8, 87, 73
8, 79559, Note_on_c, 8, 83, 91
8, 79618, Note_on_c, 8, 83, 0
8, 79622, Note_on_c, 8, 90, 0
8, 79627, Note_on_c, 8, 87, 0
8, 79645, Note_on_c, 8, 78, 31
8, 79658, Note_on_c, 8, 78, 0
8, 79681, Note_on_c, 8, 88, 91
8, 79681, Note_on_c, 8, 85, 60
8, 79681, Note_on_c, 8, 90, 82
8, 79736, Note_on_c, 8, 90, 0
8, 79756, Note_on_c, 8, 88, 0
8, 79759, Note_on_c, 8, 78, 56
8, 79765, Note_on_c, 8, 85, 0
8, 79769, Note_on_c, 8, 78, 0
8, 79794, Note_on_c, 8, 90, 82
8, 79794, Note_on_c, 8, 78, 73
8, 79796, Note_on_c, 8, 87, 82
8, 79845, Note_on_c, 8, 78, 0
8, 79877, Note_on_c, 8, 78, 64
8, 79881, Note_on_c, 8, 90, 0
8, 79886, Note_on_c, 8, 87, 0
8, 79896, Note_on_c, 8, 78, 0
8, 79919, Note_on_c, 8, 89, 56
8, 79920, Note_on_c, 8, 88, 91
8, 79922, Note_on_c, 8, 87, 60
8, 79924, Note_on_c, 8, 85, 60
8, 79926, Note_on_c, 8, 89, 0
8, 79932, Note_on_c, 8, 86, 27
8, 79944, Note_on_c, 8, 84, 26
8, 79954, Note_on_c, 8, 88, 0
8, 79956, Note_on_c, 8, 87, 0
8, 79957, Note_on_c, 8, 83, 44
8, 79959, Note_on_c, 8, 82, 52
8, 79965, Note_on_c, 8, 85, 0
8, 79965, Note_on_c, 8, 86, 0
8, 79968, Note_on_c, 8, 81, 52
8, 79974, Note_on_c, 8, 82, 0
8, 79978, Note_on_c, 8, 84, 0
8, 79980, Note_on_c, 8, 79, 44
8, 79981, Note_on_c, 8, 80, 16
8, 79983, Note_on_c, 8, 80, 0
8, 79987, Note_on_c, 8, 83, 0
8, 79989, Note_on_c, 8, 77, 40
8, 79994, Note_on_c, 8, 81, 0
8, 79996, Note_on_c, 8, 76, 52
8, 80002, Note_on_c, 8, 79, 0
8, 80004, Note_on_c, 8, 74, 64
8, 80007, Note_on_c, 8, 77, 0
8, 80009, Note_on_c, 8, 72, 52
8, 80015, Note_on_c, 8, 76, 0
8, 80016, Note_on_c, 8, 71, 48
8, 80020, Note_on_c, 8, 74, 0
8, 80022, Note_on_c, 8, 69, 48
8, 80026, Note_on_c, 8, 72, 0
8, 80028, Note_on_c, 8, 67, 56
8, 80031, Note_on_c, 8, 71, 0
8, 80035, Note_on_c, 8, 65, 60
8, 80037, Note_on_c, 8, 69, 0
8, 80042, Note_on_c, 8, 67, 0
8, 80042, Note_on_c, 8, 64, 44
8, 80044, Note_on_c, 8, 65, 0
8, 80048, Note_on_c, 8, 64, 0
8, 80048, End_track
9, 0, Start_track
9, 0, MIDI_port, 0
9, 0, Title_t, "drums"
9, 0, Control_c, 9, 0, 62
9, 0, Control_c, 9, 32, 0
9, 0, Program_c, 9, 37
9, 0, Control_c, 9, 7, 115
9, 0, Control_c, 9, 10, 64
9, 0, End_track
10, 0, Start_track
10, 0, MIDI_port, 0
10, 0, Title_t, "triangle"
10, 0, Program_c, 9, 0
10, 0, Control_c, 9, 7, 115
10, 0, Control_c, 9, 10, 64
10, 2880, Note_on_c, 9, 81, 16
10, 2914, Note_on_c, 9, 81, 0
10, 2960, Note_on_c, 9, 81, 27
10, 3000, Note_on_c, 9, 80, 26
10, 3029, Note_on_c, 9, 80, 0
10, 3039, Note_on_c, 9, 81, 0
10, 3080, Note_on_c, 9, 81, 32
10, 3136, Note_on_c, 9, 81, 0
10, 3200, Note_on_c, 9, 81, 20
10, 3240, Note_on_c, 9, 80, 30
10, 3276, Note_on_c, 9, 81, 0
10, 3277, Note_on_c, 9, 80, 0
10, 3320, Note_on_c, 9, 81, 28
10, 3387, Note_on_c, 9, 81, 0
10, 3440, Note_on_c, 9, 81, 26
10, 3480, Note_on_c, 9, 80, 32
10, 3505, Note_on_c, 9, 81, 0
10, 3512, Note_on_c, 9, 80, 0
10, 3520, Note_on_c, 9, 81, 22
10, 3554, Note_on_c, 9, 81, 0
10, 3560, Note_on_c, 9, 80, 20
10, 3589, Note_on_c, 9, 80, 0
10, 3600, Note_on_c, 9, 81, 18
10, 3641, Note_on_c, 9, 81, 0
10, 3680, Note_on_c, 9, 81, 28
10, 3720, Note_on_c, 9, 80, 28
10, 3730, Note_on_c, 9, 81, 0
10, 3756, Note_on_c, 9, 80, 0
10, 3800, Note_on_c, 9, 81, 27
10, 3816, Note_on_c, 9, 81, 0
10, 3840, Note_on_c, 9, 81, 32
10, 3920, Note_on_c, 9, 80, 16
10, 3924, Note_on_c, 9, 81, 0
10, 3942, Note_on_c, 9, 80, 0
10, 3960, Note_on_c, 9, 81, 27
10, 4040, Note_on_c, 9, 80, 28
10, 4045, Note_on_c, 9, 81, 0
10, 4064, Note_on_c, 9, 80, 0
10, 4080, Note_on_c, 9, 81, 48
10, 4145, Note_on_c, 9, 81, 0
10, 4160, Note_on_c, 9, 81, 48
10, 4200, Note_on_c, 9, 80, 48
10, 4219, Note_on_c, 9, 81, 0
10, 4250, Note_on_c, 9, 80, 0
10, 4280, Note_on_c, 9, 81, 48
10, 4323, Note_on_c, 9, 81, 0
10, 4400, Note_on_c, 9, 81, 44
10, 4420, Note_on_c, 9, 81, 0
10, 4440, Note_on_c, 9, 81, 52
10, 4480, Note_on_c, 9, 80, 36
10, 4489, Note_on_c, 9, 81, 0
10, 4500, Note_on_c, 9, 80, 0
10, 4560, Note_on_c, 9, 81, 16
10, 4560, Note_on_c, 9, 81, 0
10, 4560, Note_on_c, 9, 81, 30
10, 4621, Note_on_c, 9, 81, 0
10, 4640, Note_on_c, 9, 80, 23
10, 4669, Note_on_c, 9, 80, 0
10, 4680, Note_on_c, 9, 81, 40
10, 4702, Note_on_c, 9, 81, 0
10, 4720, Note_on_c, 9, 81, 36
10, 4760, Note_on_c, 9, 80, 44
10, 4766, Note_on_c, 9, 81, 0
10, 4791, Note_on_c, 9, 80, 0
10, 4800, Note_on_c, 9, 81, 48
10, 4822, Note_on_c, 9, 81, 0
10, 4840, Note_on_c, 9, 81, 44
10, 4880, Note_on_c, 9, 80, 40
10, 4883, Note_on_c, 9, 81, 0
10, 4913, Note_on_c, 9, 80, 0
10, 4920, Note_on_c, 9, 81, 27
10, 4938, Note_on_c, 9, 81, 0
10, 4960, Note_on_c, 9, 81, 27
10, 5000, Note_on_c, 9, 80, 32
10, 5005, Note_on_c, 9, 81, 0
10, 5040, Note_on_c, 9, 80, 0
10, 5040, Note_on_c, 9, 81, 30
10, 5062, Note_on_c, 9, 81, 0
10, 5080, Note_on_c, 9, 81, 44
10, 5118, Note_on_c, 9, 81, 0
10, 5120, Note_on_c, 9, 80, 36
10, 5160, Note_on_c, 9, 81, 36
10, 5162, Note_on_c, 9, 80, 0
10, 5205, Note_on_c, 9, 81, 0
10, 5240, Note_on_c, 9, 80, 44
10, 5275, Note_on_c, 9, 80, 0
10, 5280, Note_on_c, 9, 81, 40
10, 5320, Note_on_c, 9, 81, 0
10, 5360, Note_on_c, 9, 81, 44
10, 5400, Note_on_c, 9, 80, 40
10, 5409, Note_on_c, 9, 81, 0
10, 5445, Note_on_c, 9, 80, 0
10, 5480, Note_on_c, 9, 81, 60
10, 5504, Note_on_c, 9, 81, 0
10, 5520, Note_on_c, 9, 81, 40
10, 5549, Note_on_c, 9, 81, 0
10, 5600, Note_on_c, 9, 80, 40
10, 5640, Note_on_c, 9, 81, 36
10, 5645, Note_on_c, 9, 80, 0
10, 5687, Note_on_c, 9, 81, 0
10, 5720, Note_on_c, 9, 81, 56
10, 5760, Note_on_c, 9, 80, 48
10, 5784, Note_on_c, 9, 81, 0
10, 5800, Note_on_c, 9, 80, 0
10, 5840, Note_on_c, 9, 81, 48
10, 5858, Note_on_c, 9, 81, 0
10, 5880, Note_on_c, 9, 81, 40
10, 5960, Note_on_c, 9, 80, 52
10, 5972, Note_on_c, 9, 81, 0
10, 6000, Note_on_c, 9, 81, 31
10, 6007, Note_on_c, 9, 80, 0
10, 6032, Note_on_c, 9, 81, 0
10, 6080, Note_on_c, 9, 81, 64
10, 6120, Note_on_c, 9, 80, 48
10, 6146, Note_on_c, 9, 81, 0
10, 6163, Note_on_c, 9, 80, 0
10, 6200, Note_on_c, 9, 81, 56
10, 6240, Note_on_c, 9, 80, 44
10, 6256, Note_on_c, 9, 81, 0
10, 6276, Note_on_c, 9, 80, 0
10, 6320, Note_on_c, 9, 81, 64
10, 6430, Note_on_c, 9, 81, 0
10, 6440, Note_on_c, 9, 80, 36
10, 6463, Note_on_c, 9, 80, 0
10, 6480, Note_on_c, 9, 81, 56
10, 6560, Note_on_c, 9, 80, 32
10, 6575, Note_on_c, 9, 81, 0
10, 6588, Note_on_c, 9, 80, 0
10, 6600, Note_on_c, 9, 81, 25
10, 6620, Note_on_c, 9, 81, 0
10, 6680, Note_on_c, 9, 80, 52
10, 6720, Note_on_c, 9, 81, 36
10, 6721, Note_on_c, 9, 80, 0
10, 6737, Note_on_c, 9, 81, 0
10, 6760, Note_on_c, 9, 81, 48
10, 6800, Note_on_c, 9, 80, 40
10, 6808, Note_on_c, 9, 81, 0
10, 6839, Note_on_c, 9, 80, 0
10, 6840, Note_on_c, 9, 81, 52
10, 6873, Note_on_c, 9, 81, 0
10, 6920, Note_on_c, 9, 81, 60
10, 6960, Note_on_c, 9, 80, 48
10, 6961, Note_on_c, 9, 81, 0
10, 6985, Note_on_c, 9, 80, 0
10, 7000, Note_on_c, 9, 81, 44
10, 7025, Note_on_c, 9, 81, 0
10, 7040, Note_on_c, 9, 80, 48
10, 7067, Note_on_c, 9, 80, 0
10, 7080, Note_on_c, 9, 81, 44
10, 7116, Note_on_c, 9, 81, 0
10, 7160, Note_on_c, 9, 81, 52
10, 7200, Note_on_c, 9, 80, 48
10, 7209, Note_on_c, 9, 81, 0
10, 7226, Note_on_c, 9, 80, 0
10, 7240, Note_on_c, 9, 81, 36
10, 7267, Note_on_c, 9, 81, 0
10, 7280, Note_on_c, 9, 80, 40
10, 7296, Note_on_c, 9, 80, 0
10, 7320, Note_on_c, 9, 80, 48
10, 7356, Note_on_c, 9, 80, 0
10, 7360, Note_on_c, 9, 81, 30
10, 7393, Note_on_c, 9, 81, 0
10, 7400, Note_on_c, 9, 80, 30
10, 7416, Note_on_c, 9, 80, 0
10, 7440, Note_on_c, 9, 80, 48
10, 7480, Note_on_c, 9, 80, 0
10, 7520, Note_on_c, 9, 81, 64
10, 7540, Note_on_c, 9, 81, 0
10, 7560, Note_on_c, 9, 81, 56
10, 7634, Note_on_c, 9, 81, 0
10, 7640, Note_on_c, 9, 80, 40
10, 7660, Note_on_c, 9, 80, 0
10, 7680, Note_on_c, 9, 80, 44
10, 7726, Note_on_c, 9, 80, 0
10, 7760, Note_on_c, 9, 81, 64
10, 7778, Note_on_c, 9, 81, 0
10, 7800, Note_on_c, 9, 81, 52
10, 7880, Note_on_c, 9, 80, 48
10, 7889, Note_on_c, 9, 81, 0
10, 7908, Note_on_c, 9, 80, 0
10, 7920, Note_on_c, 9, 81, 48
10, 7954, Note_on_c, 9, 81, 0
10, 8000, Note_on_c, 9, 81, 73
10, 8040, Note_on_c, 9, 80, 60
10, 8049, Note_on_c, 9, 81, 0
10, 8071, Note_on_c, 9, 80, 0
10, 8120, Note_on_c, 9, 81, 60
10, 8150, Note_on_c, 9, 81, 0
10, 8200, Note_on_c, 9, 81, 48
10, 8236, Note_on_c, 9, 81, 0
10, 8240, Note_on_c, 9, 80, 52
10, 8264, Note_on_c, 9, 80, 0
10, 8280, Note_on_c, 9, 81, 56
10, 8316, Note_on_c, 9, 81, 0
10, 8320, Note_on_c, 9, 80, 52
10, 8340, Note_on_c, 9, 80, 0
10, 8360, Note_on_c, 9, 81, 60
10, 8394, Note_on_c, 9, 81, 0
10, 8400, Note_on_c, 9, 80, 40
10, 8421, Note_on_c, 9, 80, 0
10, 8440, Note_on_c, 9, 81, 52
10, 8469, Note_on_c, 9, 81, 0
10, 8480, Note_on_c, 9, 80, 40
10, 8502, Note_on_c, 9, 80, 0
10, 8520, Note_on_c, 9, 81, 60
10, 8551, Note_on_c, 9, 81, 0
10, 8560, Note_on_c, 9, 80, 44
10, 8578, Note_on_c, 9, 80, 0
10, 8600, Note_on_c, 9, 81, 44
10, 8635, Note_on_c, 9, 81, 0
10, 8640, Note_on_c, 9, 80, 48
10, 8663, Note_on_c, 9, 80, 0
10, 8680, Note_on_c, 9, 81, 48
10, 8707, Note_on_c, 9, 81, 0
10, 8720, Note_on_c, 9, 80, 60
10, 8735, Note_on_c, 9, 80, 0
10, 8760, Note_on_c, 9, 81, 44
10, 8784, Note_on_c, 9, 81, 0
10, 8800, Note_on_c, 9, 80, 60
10, 8820, Note_on_c, 9, 80, 0
10, 8840, Note_on_c, 9, 81, 48
10, 8857, Note_on_c, 9, 81, 0
10, 8880, Note_on_c, 9, 81, 52
10, 8915, Note_on_c, 9, 81, 0
10, 8920, Note_on_c, 9, 80, 44
10, 8949, Note_on_c, 9, 80, 0
10, 8960, Note_on_c, 9, 81, 52
10, 8976, Note_on_c, 9, 81, 0
10, 9000, Note_on_c, 9, 81, 60
10, 9040, Note_on_c, 9, 80, 56
10, 9049, Note_on_c, 9, 81, 0
10, 9066, Note_on_c, 9, 80, 0
10, 9080, Note_on_c, 9, 81, 64
10, 9099, Note_on_c, 9, 81, 0
10, 17640, Note_on_c, 9, 81, 60
10, 17680, Note_on_c, 9, 80, 56
10, 17689, Note_on_c, 9, 81, 0
10, 17706, Note_on_c, 9, 80, 0
10, 17720, Note_on_c, 9, 81, 64
10, 17739, Note_on_c, 9, 81, 0
10, 34920, Note_on_c, 9, 81, 60
10, 34960, Note_on_c, 9, 80, 56
10, 34969, Note_on_c, 9, 81, 0
10, 34986, Note_on_c, 9, 80, 0
10, 35000, Note_on_c, 9, 81, 64
10, 35019, Note_on_c, 9, 81, 0
10, 37920, Note_on_c, 9, 81, 16
10, 37954, Note_on_c, 9, 81, 0
10, 38000, Note_on_c, 9, 81, 27
10, 38040, Note_on_c, 9, 80, 26
10, 38069, Note_on_c, 9, 80, 0
10, 38079, Note_on_c, 9, 81, 0
10, 38120, Note_on_c, 9, 81, 32
10, 38176, Note_on_c, 9, 81, 0
10, 38240, Note_on_c, 9, 81, 20
10, 38280, Note_on_c, 9, 80, 30
10, 38316, Note_on_c, 9, 81, 0
10, 38317, Note_on_c, 9, 80, 0
10, 38360, Note_on_c, 9, 81, 28
10, 38427, Note_on_c, 9, 81, 0
10, 38480, Note_on_c, 9, 81, 26
10, 38520, Note_on_c, 9, 80, 32
10, 38545, Note_on_c, 9, 81, 0
10, 38552, Note_on_c, 9, 80, 0
10, 38560, Note_on_c, 9, 81, 22
10, 38594, Note_on_c, 9, 81, 0
10, 38600, Note_on_c, 9, 80, 20
10, 38629, Note_on_c, 9, 80, 0
10, 38640, Note_on_c, 9, 81, 18
10, 38681, Note_on_c, 9, 81, 0
10, 38720, Note_on_c, 9, 81, 28
10, 38760, Note_on_c, 9, 80, 28
10, 38770, Note_on_c, 9, 81, 0
10, 38796, Note_on_c, 9, 80, 0
10, 38840, Note_on_c, 9, 81, 27
10, 38856, Note_on_c, 9, 81, 0
10, 38880, Note_on_c, 9, 81, 32
10, 38960, Note_on_c, 9, 80, 16
10, 38964, Note_on_c, 9, 81, 0
10, 38982, Note_on_c, 9, 80, 0
10, 39000, Note_on_c, 9, 81, 27
10, 39080, Note_on_c, 9, 80, 28
10, 39085, Note_on_c, 9, 81, 0
10, 39104, Note_on_c, 9, 80, 0
10, 39120, Note_on_c, 9, 81, 48
10, 39185, Note_on_c, 9, 81, 0
10, 39200, Note_on_c, 9, 81, 48
10, 39240, Note_on_c, 9, 80, 48
10, 39259, Note_on_c, 9, 81, 0
10, 39290, Note_on_c, 9, 80, 0
10, 39320, Note_on_c, 9, 81, 48
10, 39360, Note_on_c, 9, 81, 48
10, 39363, Note_on_c, 9, 81, 0
10, 39382, Note_on_c, 9, 81, 0
10, 39400, Note_on_c, 9, 81, 44
10, 39440, Note_on_c, 9, 80, 40
10, 39443, Note_on_c, 9, 81, 0
10, 39473, Note_on_c, 9, 80, 0
10, 39480, Note_on_c, 9, 81, 27
10, 39498, Note_on_c, 9, 81, 0
10, 39520, Note_on_c, 9, 81, 27
10, 39560, Note_on_c, 9, 80, 32
10, 39565, Note_on_c, 9, 81, 0
10, 39600, Note_on_c, 9, 80, 0
10, 39600, Note_on_c, 9, 81, 30
10, 39622, Note_on_c, 9, 81, 0
10, 39640, Note_on_c, 9, 81, 44
10, 39678, Note_on_c, 9, 81, 0
10, 39680, Note_on_c, 9, 80, 36
10, 39720, Note_on_c, 9, 81, 36
10, 39722, Note_on_c, 9, 80, 0
10, 39765, Note_on_c, 9, 81, 0
10, 39800, Note_on_c, 9, 80, 44
10, 39835, Note_on_c, 9, 80, 0
10, 39840, Note_on_c, 9, 81, 40
10, 39880, Note_on_c, 9, 81, 0
10, 39920, Note_on_c, 9, 81, 44
10, 39960, Note_on_c, 9, 80, 40
10, 39969, Note_on_c, 9, 81, 0
10, 40005, Note_on_c, 9, 80, 0
10, 40040, Note_on_c, 9, 81, 60
10, 40064, Note_on_c, 9, 81, 0
10, 40080, Note_on_c, 9, 81, 40
10, 40109, Note_on_c, 9, 81, 0
10, 40160, Note_on_c, 9, 80, 40
10, 40200, Note_on_c, 9, 81, 36
10, 40205, Note_on_c, 9, 80, 0
10, 40247, Note_on_c, 9, 81, 0
10, 40280, Note_on_c, 9, 81, 56
10, 40320, Note_on_c, 9, 80, 48
10, 40344, Note_on_c, 9, 81, 0
10, 40360, Note_on_c, 9, 80, 0
10, 40400, Note_on_c, 9, 81, 48
10, 40418, Note_on_c, 9, 81, 0
10, 40440, Note_on_c, 9, 81, 40
10, 40520, Note_on_c, 9, 80, 52
10, 40532, Note_on_c, 9, 81, 0
10, 40560, Note_on_c, 9, 81, 31
10, 40567, Note_on_c, 9, 80, 0
10, 40592, Note_on_c, 9, 81, 0
10, 40640, Note_on_c, 9, 81, 64
10, 40680, Note_on_c, 9, 80, 48
10, 40706, Note_on_c, 9, 81, 0
10, 40723, Note_on_c, 9, 80, 0
10, 40760, Note_on_c, 9, 81, 56
10, 40800, Note_on_c, 9, 80, 44
10, 40816, Note_on_c, 9, 81, 0
10, 40836, Note_on_c, 9, 80, 0
10, 40880, Note_on_c, 9, 81, 64
10, 40990, Note_on_c, 9, 81, 0
10, 41000, Note_on_c, 9, 80, 36
10, 41023, Note_on_c, 9, 80, 0
10, 41040, Note_on_c, 9, 81, 56
10, 41120, Note_on_c, 9, 80, 32
10, 41135, Note_on_c, 9, 81, 0
10, 41148, Note_on_c, 9, 80, 0
10, 41160, Note_on_c, 9, 81, 25
10, 41180, Note_on_c, 9, 81, 0
10, 41240, Note_on_c, 9, 80, 52
10, 41280, Note_on_c, 9, 81, 36
10, 41281, Note_on_c, 9, 80, 0
10, 41297, Note_on_c, 9, 81, 0
10, 41320, Note_on_c, 9, 81, 48
10, 41360, Note_on_c, 9, 80, 40
10, 41368, Note_on_c, 9, 81, 0
10, 41399, Note_on_c, 9, 80, 0
10, 41400, Note_on_c, 9, 81, 52
10, 41433, Note_on_c, 9, 81, 0
10, 41480, Note_on_c, 9, 81, 60
10, 41520, Note_on_c, 9, 80, 48
10, 41521, Note_on_c, 9, 81, 0
10, 41545, Note_on_c, 9, 80, 0
10, 41560, Note_on_c, 9, 81, 44
10, 41585, Note_on_c, 9, 81, 0
10, 41600, Note_on_c, 9, 80, 48
10, 41627, Note_on_c, 9, 80, 0
10, 41640, Note_on_c, 9, 81, 44
10, 41676, Note_on_c, 9, 81, 0
10, 41720, Note_on_c, 9, 81, 52
10, 41760, Note_on_c, 9, 80, 48
10, 41769, Note_on_c, 9, 81, 0
10, 41786, Note_on_c, 9, 80, 0
10, 41800, Note_on_c, 9, 81, 36
10, 41827, Note_on_c, 9, 81, 0
10, 41840, Note_on_c, 9, 80, 40
10, 41856, Note_on_c, 9, 80, 0
10, 41880, Note_on_c, 9, 80, 48
10, 41916, Note_on_c, 9, 80, 0
10, 41920, Note_on_c, 9, 81, 30
10, 41953, Note_on_c, 9, 81, 0
10, 41960, Note_on_c, 9, 80, 30
10, 41976, Note_on_c, 9, 80, 0
10, 42000, Note_on_c, 9, 80, 48
10, 42040, Note_on_c, 9, 80, 0
10, 42080, Note_on_c, 9, 81, 64
10, 42100, Note_on_c, 9, 81, 0
10, 42120, Note_on_c, 9, 81, 56
10, 42194, Note_on_c, 9, 81, 0
10, 42200, Note_on_c, 9, 80, 40
10, 42220, Note_on_c, 9, 80, 0
10, 42240, Note_on_c, 9, 80, 44
10, 42286, Note_on_c, 9, 80, 0
10, 42320, Note_on_c, 9, 81, 64
10, 42338, Note_on_c, 9, 81, 0
10, 42360, Note_on_c, 9, 81, 52
10, 42440, Note_on_c, 9, 80, 48
10, 42449, Note_on_c, 9, 81, 0
10, 42468, Note_on_c, 9, 80, 0
10, 42480, Note_on_c, 9, 81, 48
10, 42514, Note_on_c, 9, 81, 0
10, 42560, Note_on_c, 9, 81, 73
10, 42600, Note_on_c, 9, 80, 60
10, 42609, Note_on_c, 9, 81, 0
10, 42631, Note_on_c, 9, 80, 0
10, 42680, Note_on_c, 9, 81, 60
10, 42710, Note_on_c, 9, 81, 0
10, 42760, Note_on_c, 9, 81, 48
10, 42796, Note_on_c, 9, 81, 0
10, 42800, Note_on_c, 9, 80, 52
10, 42824, Note_on_c, 9, 80, 0
10, 42840, Note_on_c, 9, 81, 56
10, 42876, Note_on_c, 9, 81, 0
10, 42880, Note_on_c, 9, 80, 52
10, 42900, Note_on_c, 9, 80, 0
10, 42920, Note_on_c, 9, 81, 60
10, 42954, Note_on_c, 9, 81, 0
10, 42960, Note_on_c, 9, 80, 40
10, 42981, Note_on_c, 9, 80, 0
10, 43000, Note_on_c, 9, 81, 52
10, 43029, Note_on_c, 9, 81, 0
10, 43040, Note_on_c, 9, 80, 40
10, 43062, Note_on_c, 9, 80, 0
10, 43080, Note_on_c, 9, 81, 60
10, 43111, Note_on_c, 9, 81, 0
10, 43120, Note_on_c, 9, 80, 44
10, 43138, Note_on_c, 9, 80, 0
10, 43160, Note_on_c, 9, 81, 44
10, 43195, Note_on_c, 9, 81, 0
10, 43200, Note_on_c, 9, 80, 48
10, 43223, Note_on_c, 9, 80, 0
10, 43240, Note_on_c, 9, 81, 48
10, 43267, Note_on_c, 9, 81, 0
10, 43280, Note_on_c, 9, 80, 60
10, 43295, Note_on_c, 9, 80, 0
10, 43320, Note_on_c, 9, 81, 44
10, 43344, Note_on_c, 9, 81, 0
10, 43360, Note_on_c, 9, 80, 60
10, 43380, Note_on_c, 9, 80, 0
10, 43400, Note_on_c, 9, 81, 48
10, 43417, Note_on_c, 9, 81, 0
10, 43440, Note_on_c, 9, 81, 52
10, 43475, Note_on_c, 9, 81, 0
10, 43480, Note_on_c, 9, 80, 44
10, 43509, Note_on_c, 9, 80, 0
10, 43520, Note_on_c, 9, 81, 52
10, 43536, Note_on_c, 9, 81, 0
10, 43560, Note_on_c, 9, 81, 60
10, 43600, Note_on_c, 9, 80, 56
10, 43609, Note_on_c, 9, 81, 0
10, 43626, Note_on_c, 9, 80, 0
10, 43640, Note_on_c, 9, 81, 64
10, 43659, Note_on_c, 9, 81, 0
10, 54360, Note_on_c, 9, 39, 82
10, 54362, Note_on_c, 9, 54, 73
10, 54403, Note_on_c, 9, 39, 0
10, 54405, Note_on_c, 9, 54, 0
10, 54598, Note_on_c, 9, 39, 60
10, 54600, Note_on_c, 9, 54, 64
10, 54634, Note_on_c, 9, 54, 0
10, 54683, Note_on_c, 9, 39, 0
10, 54841, Note_on_c, 9, 39, 60
10, 54843, Note_on_c, 9, 54, 91
10, 54877, Note_on_c, 9, 54, 0
10, 54912, Note_on_c, 9, 39, 0
10, 55081, Note_on_c, 9, 54, 82
10, 55083, Note_on_c, 9, 39, 29
10, 55117, Note_on_c, 9, 54, 0
10, 55130, Note_on_c, 9, 39, 0
10, 55320, Note_on_c, 9, 39, 82
10, 55322, Note_on_c, 9, 54, 73
10, 55363, Note_on_c, 9, 39, 0
10, 55365, Note_on_c, 9, 54, 0
10, 55558, Note_on_c, 9, 39, 60
10, 55560, Note_on_c, 9, 54, 64
10, 55594, Note_on_c, 9, 54, 0
10, 55643, Note_on_c, 9, 39, 0
10, 55801, Note_on_c, 9, 39, 60
10, 55803, Note_on_c, 9, 54, 91
10, 55837, Note_on_c, 9, 54, 0
10, 55872, Note_on_c, 9, 39, 0
10, 56041, Note_on_c, 9, 54, 82
10, 56043, Note_on_c, 9, 39, 29
10, 56077, Note_on_c, 9, 54, 0
10, 56090, Note_on_c, 9, 39, 0
10, 56280, Note_on_c, 9, 54, 91
10, 56282, Note_on_c, 9, 39, 31
10, 56312, Note_on_c, 9, 54, 0
10, 56324, Note_on_c, 9, 39, 0
10, 56518, Note_on_c, 9, 39, 56
10, 56518, Note_on_c, 9, 54, 91
10, 56556, Note_on_c, 9, 54, 0
10, 56607, Note_on_c, 9, 39, 0
10, 56755, Note_on_c, 9, 39, 40
10, 56757, Note_on_c, 9, 54, 82
10, 56791, Note_on_c, 9, 54, 0
10, 56807, Note_on_c, 9, 39, 0
10, 56994, Note_on_c, 9, 39, 44
10, 56996, Note_on_c, 9, 54, 82
10, 57029, Note_on_c, 9, 54, 0
10, 57040, Note_on_c, 9, 39, 0
10, 57240, Note_on_c, 9, 39, 82
10, 57242, Note_on_c, 9, 54, 73
10, 57283, Note_on_c, 9, 39, 0
10, 57285, Note_on_c, 9, 54, 0
10, 57478, Note_on_c, 9, 39, 60
10, 57480, Note_on_c, 9, 54, 64
10, 57514, Note_on_c, 9, 54, 0
10, 57563, Note_on_c, 9, 39, 0
10, 57721, Note_on_c, 9, 39, 60
10, 57723, Note_on_c, 9, 54, 91
10, 57757, Note_on_c, 9, 54, 0
10, 57792, Note_on_c, 9, 39, 0
10, 57961, Note_on_c, 9, 54, 82
10, 57963, Note_on_c, 9, 39, 29
10, 57997, Note_on_c, 9, 54, 0
10, 58010, Note_on_c, 9, 39, 0
10, 58200, Note_on_c, 9, 39, 82
10, 58202, Note_on_c, 9, 54, 73
10, 58243, Note_on_c, 9, 39, 0
10, 58245, Note_on_c, 9, 54, 0
10, 58438, Note_on_c, 9, 39, 60
10, 58440, Note_on_c, 9, 54, 64
10, 58474, Note_on_c, 9, 54, 0
10, 58523, Note_on_c, 9, 39, 0
10, 58681, Note_on_c, 9, 39, 60
10, 58683, Note_on_c, 9, 54, 91
10, 58717, Note_on_c, 9, 54, 0
10, 58752, Note_on_c, 9, 39, 0
10, 58875, Control_c, 9, 7, 124
10, 58910, Control_c, 9, 7, 120
10, 58921, Note_on_c, 9, 54, 82
10, 58923, Note_on_c, 9, 39, 29
10, 58957, Note_on_c, 9, 54, 0
10, 58970, Note_on_c, 9, 39, 0
10, 59160, Note_on_c, 9, 54, 91
10, 59162, Note_on_c, 9, 39, 31
10, 59192, Note_on_c, 9, 54, 0
10, 59204, Note_on_c, 9, 39, 0
10, 59318, Control_c, 9, 7, 117
10, 59398, Note_on_c, 9, 39, 56
10, 59398, Note_on_c, 9, 54, 91
10, 59436, Note_on_c, 9, 54, 0
10, 59487, Note_on_c, 9, 39, 0
10, 59635, Note_on_c, 9, 39, 40
10, 59637, Note_on_c, 9, 54, 82
10, 59671, Note_on_c, 9, 54, 0
10, 59687, Note_on_c, 9, 39, 0
10, 59874, Note_on_c, 9, 39, 44
10, 59876, Note_on_c, 9, 54, 82
10, 59909, Note_on_c, 9, 54, 0
10, 59920, Note_on_c, 9, 39, 0
10, 60120, Note_on_c, 9, 39, 82
10, 60122, Note_on_c, 9, 54, 73
10, 60163, Note_on_c, 9, 39, 0
10, 60165, Note_on_c, 9, 54, 0
10, 60358, Note_on_c, 9, 39, 60
10, 60360, Note_on_c, 9, 54, 64
10, 60394, Note_on_c, 9, 54, 0
10, 60443, Note_on_c, 9, 39, 0
10, 60601, Note_on_c, 9, 39, 60
10, 60603, Note_on_c, 9, 54, 91
10, 60637, Note_on_c, 9, 54, 0
10, 60672, Note_on_c, 9, 39, 0
10, 60841, Note_on_c, 9, 54, 82
10, 60843, Note_on_c, 9, 39, 29
10, 60877, Note_on_c, 9, 54, 0
10, 60890, Note_on_c, 9, 39, 0
10, 61080, Note_on_c, 9, 39, 82
10, 61082, Note_on_c, 9, 54, 73
10, 61123, Note_on_c, 9, 39, 0
10, 61125, Note_on_c, 9, 54, 0
10, 61318, Note_on_c, 9, 39, 60
10, 61320, Note_on_c, 9, 54, 64
10, 61354, Note_on_c, 9, 54, 0
10, 61403, Note_on_c, 9, 39, 0
10, 61561, Note_on_c, 9, 39, 60
10, 61563, Note_on_c, 9, 54, 91
10, 61597, Note_on_c, 9, 54, 0
10, 61632, Note_on_c, 9, 39, 0
10, 61801, Note_on_c, 9, 54, 82
10, 61803, Note_on_c, 9, 39, 29
10, 61837, Note_on_c, 9, 54, 0
10, 61850, Note_on_c, 9, 39, 0
10, 62040, Note_on_c, 9, 54, 91
10, 62042, Note_on_c, 9, 39, 31
10, 62072, Note_on_c, 9, 54, 0
10, 62084, Note_on_c, 9, 39, 0
10, 62278, Note_on_c, 9, 39, 56
10, 62278, Note_on_c, 9, 54, 91
10, 62316, Note_on_c, 9, 54, 0
10, 62367, Note_on_c, 9, 39, 0
10, 62515, Note_on_c, 9, 39, 40
10, 62517, Note_on_c, 9, 54, 82
10, 62551, Note_on_c, 9, 54, 0
10, 62567, Note_on_c, 9, 39, 0
10, 62754, Note_on_c, 9, 39, 44
10, 62756, Note_on_c, 9, 54, 82
10, 62789, Note_on_c, 9, 54, 0
10, 62800, Note_on_c, 9, 39, 0
10, 63000, Note_on_c, 9, 39, 82
10, 63002, Note_on_c, 9, 54, 73
10, 63043, Note_on_c, 9, 39, 0
10, 63045, Note_on_c, 9, 54, 0
10, 63238, Note_on_c, 9, 39, 60
10, 63240, Note_on_c, 9, 54, 64
10, 63274, Note_on_c, 9, 54, 0
10, 63323, Note_on_c, 9, 39, 0
10, 63481, Note_on_c, 9, 39, 60
10, 63483, Note_on_c, 9, 54, 91
10, 63517, Note_on_c, 9, 54, 0
10, 63552, Note_on_c, 9, 39, 0
10, 63721, Note_on_c, 9, 54, 82
10, 63723, Note_on_c, 9, 39, 29
10, 63757, Note_on_c, 9, 54, 0
10, 63770, Note_on_c, 9, 39, 0
10, 63960, Note_on_c, 9, 39, 82
10, 63962, Note_on_c, 9, 54, 73
10, 64003, Note_on_c, 9, 39, 0
10, 64005, Note_on_c, 9, 54, 0
10, 64198, Note_on_c, 9, 39, 60
10, 64200, Note_on_c, 9, 54, 64
10, 64234, Note_on_c, 9, 54, 0
10, 64283, Note_on_c, 9, 39, 0
10, 64441, Note_on_c, 9, 39, 60
10, 64443, Note_on_c, 9, 54, 91
10, 64477, Note_on_c, 9, 54, 0
10, 64512, Note_on_c, 9, 39, 0
10, 64681, Note_on_c, 9, 54, 82
10, 64683, Note_on_c, 9, 39, 29
10, 64717, Note_on_c, 9, 54, 0
10, 64730, Note_on_c, 9, 39, 0
10, 64920, Note_on_c, 9, 54, 91
10, 64922, Note_on_c, 9, 39, 31
10, 64952, Note_on_c, 9, 54, 0
10, 64964, Note_on_c, 9, 39, 0
10, 65158, Note_on_c, 9, 39, 56
10, 65158, Note_on_c, 9, 54, 91
10, 65196, Note_on_c, 9, 54, 0
10, 65247, Note_on_c, 9, 39, 0
10, 65395, Note_on_c, 9, 39, 40
10, 65397, Note_on_c, 9, 54, 82
10, 65431, Note_on_c, 9, 54, 0
10, 65447, Note_on_c, 9, 39, 0
10, 65634, Note_on_c, 9, 39, 44
10, 65636, Note_on_c, 9, 54, 82
10, 65669, Note_on_c, 9, 54, 0
10, 65680, Note_on_c, 9, 39, 0
10, 65880, Note_on_c, 9, 39, 82
10, 65882, Note_on_c, 9, 54, 73
10, 65923, Note_on_c, 9, 39, 0
10, 65925, Note_on_c, 9, 54, 0
10, 66118, Note_on_c, 9, 39, 60
10, 66120, Note_on_c, 9, 54, 64
10, 66154, Note_on_c, 9, 54, 0
10, 66203, Note_on_c, 9, 39, 0
10, 66361, Note_on_c, 9, 39, 60
10, 66363, Note_on_c, 9, 54, 91
10, 66397, Note_on_c, 9, 54, 0
10, 66432, Note_on_c, 9, 39, 0
10, 66601, Note_on_c, 9, 54, 82
10, 66603, Note_on_c, 9, 39, 29
10, 66637, Note_on_c, 9, 54, 0
10, 66650, Note_on_c, 9, 39, 0
10, 66840, Note_on_c, 9, 39, 82
10, 66842, Note_on_c, 9, 54, 73
10, 66883, Note_on_c, 9, 39, 0
10, 66885, Note_on_c, 9, 54, 0
10, 67078, Note_on_c, 9, 39, 60
10, 67080, Note_on_c, 9, 54, 64
10, 67114, Note_on_c, 9, 54, 0
10, 67163, Note_on_c, 9, 39, 0
10, 67321, Note_on_c, 9, 39, 60
10, 67323, Note_on_c, 9, 54, 91
10, 67357, Note_on_c, 9, 54, 0
10, 67392, Note_on_c, 9, 39, 0
10, 67561, Note_on_c, 9, 54, 82
10, 67563, Note_on_c, 9, 39, 29
10, 67597, Note_on_c, 9, 54, 0
10, 67610, Note_on_c, 9, 39, 0
10, 67800, Note_on_c, 9, 54, 91
10, 67802, Note_on_c, 9, 39, 31
10, 67832, Note_on_c, 9, 54, 0
10, 67844, Note_on_c, 9, 39, 0
10, 68038, Note_on_c, 9, 39, 56
10, 68038, Note_on_c, 9, 54, 91
10, 68076, Note_on_c, 9, 54, 0
10, 68127, Note_on_c, 9, 39, 0
10, 68275, Note_on_c, 9, 39, 40
10, 68277, Note_on_c, 9, 54, 82
10, 68311, Note_on_c, 9, 54, 0
10, 68327, Note_on_c, 9, 39, 0
10, 68514, Note_on_c, 9, 39, 44
10, 68516, Note_on_c, 9, 54, 82
10, 68549, Note_on_c, 9, 54, 0
10, 68560, Note_on_c, 9, 39, 0
10, 68760, Note_on_c, 9, 39, 82
10, 68762, Note_on_c, 9, 54, 73
10, 68803, Note_on_c, 9, 39, 0
10, 68805, Note_on_c, 9, 54, 0
10, 68998, Note_on_c, 9, 39, 60
10, 69000, Note_on_c, 9, 54, 64
10, 69034, Note_on_c, 9, 54, 0
10, 69083, Note_on_c, 9, 39, 0
10, 69241, Note_on_c, 9, 39, 60
10, 69243, Note_on_c, 9, 54, 91
10, 69277, Note_on_c, 9, 54, 0
10, 69312, Note_on_c, 9, 39, 0
10, 69481, Note_on_c, 9, 54, 82
10, 69483, Note_on_c, 9, 39, 29
10, 69517, Note_on_c, 9, 54, 0
10, 69530, Note_on_c, 9, 39, 0
10, 69720, Note_on_c, 9, 39, 82
10, 69722, Note_on_c, 9, 54, 73
10, 69763, Note_on_c, 9, 39, 0
10, 69765, Note_on_c, 9, 54, 0
10, 69958, Note_on_c, 9, 39, 60
10, 69960, Note_on_c, 9, 54, 64
10, 69994, Note_on_c, 9, 54, 0
10, 70043, Note_on_c, 9, 39, 0
10, 70201, Note_on_c, 9, 39, 60
10, 70203, Note_on_c, 9, 54, 91
10, 70237, Note_on_c, 9, 54, 0
10, 70272, Note_on_c, 9, 39, 0
10, 70441, Note_on_c, 9, 54, 82
10, 70443, Note_on_c, 9, 39, 29
10, 70477, Note_on_c, 9, 54, 0
10, 70490, Note_on_c, 9, 39, 0
10, 70680, Note_on_c, 9, 54, 91
10, 70682, Note_on_c, 9, 39, 31
10, 70712, Note_on_c, 9, 54, 0
10, 70724, Note_on_c, 9, 39, 0
10, 70918, Note_on_c, 9, 39, 56
10, 70918, Note_on_c, 9, 54, 91
10, 70956, Note_on_c, 9, 54, 0
10, 71007, Note_on_c, 9, 39, 0
10, 71155, Note_on_c, 9, 39, 40
10, 71157, Note_on_c, 9, 54, 82
10, 71191, Note_on_c, 9, 54, 0
10, 71207, Note_on_c, 9, 39, 0
10, 71394, Note_on_c, 9, 39, 44
10, 71396, Note_on_c, 9, 54, 82
10, 71429, Note_on_c, 9, 54, 0
10, 71440, Note_on_c, 9, 39, 0
10, 71640, Note_on_c, 9, 39, 82
10, 71642, Note_on_c, 9, 54, 73
10, 71683, Note_on_c, 9, 39, 0
10, 71685, Note_on_c, 9, 54, 0
10, 71878, Note_on_c, 9, 39, 60
10, 71880, Note_on_c, 9, 54, 64
10, 71914, Note_on_c, 9, 54, 0
10, 71963, Note_on_c, 9, 39, 0
10, 72121, Note_on_c, 9, 39, 60
10, 72123, Note_on_c, 9, 54, 91
10, 72157, Note_on_c, 9, 54, 0
10, 72192, Note_on_c, 9, 39, 0
10, 72361, Note_on_c, 9, 54, 82
10, 72363, Note_on_c, 9, 39, 29
10, 72397, Note_on_c, 9, 54, 0
10, 72410, Note_on_c, 9, 39, 0
10, 72600, Note_on_c, 9, 39, 82
10, 72602, Note_on_c, 9, 54, 73
10, 72643, Note_on_c, 9, 39, 0
10, 72645, Note_on_c, 9, 54, 0
10, 72838, Note_on_c, 9, 39, 60
10, 72840, Note_on_c, 9, 54, 64
10, 72874, Note_on_c, 9, 54, 0
10, 72923, Note_on_c, 9, 39, 0
10, 73081, Note_on_c, 9, 39, 60
10, 73083, Note_on_c, 9, 54, 91
10, 73117, Note_on_c, 9, 54, 0
10, 73152, Note_on_c, 9, 39, 0
10, 73321, Note_on_c, 9, 54, 82
10, 73323, Note_on_c, 9, 39, 29
10, 73357, Note_on_c, 9, 54, 0
10, 73370, Note_on_c, 9, 39, 0
10, 73560, Note_on_c, 9, 54, 91
10, 73562, Note_on_c, 9, 39, 31
10, 73592, Note_on_c, 9, 54, 0
10, 73604, Note_on_c, 9, 39, 0
10, 73798, Note_on_c, 9, 39, 56
10, 73798, Note_on_c, 9, 54, 91
10, 73836, Note_on_c, 9, 54, 0
10, 73887, Note_on_c, 9, 39, 0
10, 74035, Note_on_c, 9, 39, 40
10, 74037, Note_on_c, 9, 54, 82
10, 74071, Note_on_c, 9, 54, 0
10, 74087, Note_on_c, 9, 39, 0
10, 74274, Note_on_c, 9, 39, 44
10, 74276, Note_on_c, 9, 54, 82
10, 74309, Note_on_c, 9, 54, 0
10, 74320, Note_on_c, 9, 39, 0
10, 74520, Note_on_c, 9, 39, 82
10, 74522, Note_on_c, 9, 54, 73
10, 74563, Note_on_c, 9, 39, 0
10, 74565, Note_on_c, 9, 54, 0
10, 74758, Note_on_c, 9, 39, 60
10, 74760, Note_on_c, 9, 54, 64
10, 74794, Note_on_c, 9, 54, 0
10, 74843, Note_on_c, 9, 39, 0
10, 75001, Note_on_c, 9, 39, 60
10, 75003, Note_on_c, 9, 54, 91
10, 75037, Note_on_c, 9, 54, 0
10, 75072, Note_on_c, 9, 39, 0
10, 75241, Note_on_c, 9, 54, 82
10, 75243, Note_on_c, 9, 39, 29
10, 75277, Note_on_c, 9, 54, 0
10, 75290, Note_on_c, 9, 39, 0
10, 75480, Note_on_c, 9, 39, 82
10, 75482, Note_on_c, 9, 54, 73
10, 75523, Note_on_c, 9, 39, 0
10, 75525, Note_on_c, 9, 54, 0
10, 75718, Note_on_c, 9, 39, 60
10, 75720, Note_on_c, 9, 54, 64
10, 75754, Note_on_c, 9, 54, 0
10, 75803, Note_on_c, 9, 39, 0
10, 75961, Note_on_c, 9, 39, 60
10, 75963, Note_on_c, 9, 54, 91
10, 75997, Note_on_c, 9, 54, 0
10, 76032, Note_on_c, 9, 39, 0
10, 76201, Note_on_c, 9, 54, 82
10, 76203, Note_on_c, 9, 39, 29
10, 76237, Note_on_c, 9, 54, 0
10, 76250, Note_on_c, 9, 39, 0
10, 76440, Note_on_c, 9, 54, 91
10, 76442, Note_on_c, 9, 39, 31
10, 76472, Note_on_c, 9, 54, 0
10, 76484, Note_on_c, 9, 39, 0
10, 76678, Note_on_c, 9, 39, 56
10, 76678, Note_on_c, 9, 54, 91
10, 76716, Note_on_c, 9, 54, 0
10, 76767, Note_on_c, 9, 39, 0
10, 76915, Note_on_c, 9, 39, 40
10, 76917, Note_on_c, 9, 54, 82
10, 76951, Note_on_c, 9, 54, 0
10, 76967, Note_on_c, 9, 39, 0
10, 77154, Note_on_c, 9, 39, 44
10, 77156, Note_on_c, 9, 54, 82
10, 77189, Note_on_c, 9, 54, 0
10, 77200, Note_on_c, 9, 39, 0
10, 77400, Note_on_c, 9, 39, 82
10, 77402, Note_on_c, 9, 54, 73
10, 77443, Note_on_c, 9, 39, 0
10, 77445, Note_on_c, 9, 54, 0
10, 77638, Note_on_c, 9, 39, 60
10, 77640, Note_on_c, 9, 54, 64
10, 77674, Note_on_c, 9, 54, 0
10, 77723, Note_on_c, 9, 39, 0
10, 77881, Note_on_c, 9, 39, 60
10, 77883, Note_on_c, 9, 54, 91
10, 77917, Note_on_c, 9, 54, 0
10, 77952, Note_on_c, 9, 39, 0
10, 78121, Note_on_c, 9, 54, 82
10, 78123, Note_on_c, 9, 39, 29
10, 78157, Note_on_c, 9, 54, 0
10, 78170, Note_on_c, 9, 39, 0
10, 78360, Note_on_c, 9, 39, 82
10, 78362, Note_on_c, 9, 54, 73
10, 78403, Note_on_c, 9, 39, 0
10, 78405, Note_on_c, 9, 54, 0
10, 78598, Note_on_c, 9, 39, 60
10, 78600, Note_on_c, 9, 54, 64
10, 78634, Note_on_c, 9, 54, 0
10, 78683, Note_on_c, 9, 39, 0
10, 78841, Note_on_c, 9, 39, 60
10, 78843, Note_on_c, 9, 54, 91
10, 78877, Note_on_c, 9, 54, 0
10, 78912, Note_on_c, 9, 39, 0
10, 79081, Note_on_c, 9, 54, 82
10, 79083, Note_on_c, 9, 39, 29
10, 79117, Note_on_c, 9, 54, 0
10, 79130, Note_on_c, 9, 39, 0
10, 79320, Note_on_c, 9, 54, 91
10, 79322, Note_on_c, 9, 39, 31
10, 79352, Note_on_c, 9, 54, 0
10, 79364, Note_on_c, 9, 39, 0
10, 79558, Note_on_c, 9, 39, 56
10, 79558, Note_on_c, 9, 54, 91
10, 79596, Note_on_c, 9, 54, 0
10, 79647, Note_on_c, 9, 39, 0
10, 79795, Note_on_c, 9, 39, 40
10, 79797, Note_on_c, 9, 54, 82
10, 79831, Note_on_c, 9, 54, 0
10, 79847, Note_on_c, 9, 39, 0
10, 80034, Note_on_c, 9, 39, 44
10, 80036, Note_on_c, 9, 54, 82
10, 80069, Note_on_c, 9, 54, 0
10, 80080, Note_on_c, 9, 39, 0
10, 80080, End_track
11, 0, Start_track
11, 0, MIDI_port, 0
11, 0, Title_t, "cymbals"
11, 0, Program_c, 9, 0
11, 0, Control_c, 9, 7, 115
11, 0, Control_c, 9, 10, 64
11, 440, Note_on_c, 9, 46, 51
11, 485, Note_on_c, 9, 46, 0
11, 9080, Note_on_c, 9, 57, 59
11, 9203, Note_on_c, 9, 57, 0
11, 9240, Note_on_c, 9, 59, 35
11, 9312, Note_on_c, 9, 59, 0
11, 9360, Note_on_c, 9, 59, 43
11, 9441, Note_on_c, 9, 59, 0
11, 9480, Note_on_c, 9, 59, 51
11, 9538, Note_on_c, 9, 59, 0
11, 9560, Note_on_c, 9, 59, 31
11, 9571, Note_on_c, 9, 59, 0
11, 9600, Note_on_c, 9, 59, 51
11, 9680, Note_on_c, 9, 59, 0
11, 9720, Note_on_c, 9, 59, 51
11, 9797, Note_on_c, 9, 59, 0
11, 9840, Note_on_c, 9, 59, 43
11, 9916, Note_on_c, 9, 59, 0
11, 9960, Note_on_c, 9, 59, 59
11, 10041, Note_on_c, 9, 59, 0
11, 10080, Note_on_c, 9, 59, 43
11, 10147, Note_on_c, 9, 59, 0
11, 10200, Note_on_c, 9, 59, 68
11, 10279, Note_on_c, 9, 59, 0
11, 10320, Note_on_c, 9, 59, 47
11, 10397, Note_on_c, 9, 59, 0
11, 10440, Note_on_c, 9, 59, 68
11, 10528, Note_on_c, 9, 59, 0
11, 10560, Note_on_c, 9, 59, 55
11, 10632, Note_on_c, 9, 59, 0
11, 10680, Note_on_c, 9, 59, 59
11, 10724, Note_on_c, 9, 59, 0
11, 10760, Note_on_c, 9, 59, 55
11, 10773, Note_on_c, 9, 59, 0
11, 10800, Note_on_c, 9, 59, 55
11, 10877, Note_on_c, 9, 59, 0
11, 10920, Note_on_c, 9, 59, 51
11, 10952, Note_on_c, 9, 59, 0
11, 11000, Note_on_c, 9, 59, 59
11, 11106, Note_on_c, 9, 59, 0
11, 11160, Note_on_c, 9, 59, 55
11, 11205, Note_on_c, 9, 59, 0
11, 11240, Note_on_c, 9, 59, 35
11, 11264, Note_on_c, 9, 59, 0
11, 11280, Note_on_c, 9, 59, 26
11, 11358, Note_on_c, 9, 59, 0
11, 11400, Note_on_c, 9, 59, 55
11, 11454, Note_on_c, 9, 59, 0
11, 11480, Note_on_c, 9, 59, 43
11, 11499, Note_on_c, 9, 59, 0
11, 11520, Note_on_c, 9, 59, 26
11, 11596, Note_on_c, 9, 59, 0
11, 11640, Note_on_c, 9, 59, 59
11, 11697, Note_on_c, 9, 59, 0
11, 11720, Note_on_c, 9, 59, 35
11, 11738, Note_on_c, 9, 59, 0
11, 11760, Note_on_c, 9, 59, 25
11, 11812, Note_on_c, 9, 59, 0
11, 11840, Note_on_c, 9, 59, 51
11, 11864, Note_on_c, 9, 59, 0
11, 11880, Note_on_c, 9, 59, 39
11, 11926, Note_on_c, 9, 59, 0
11, 11960, Note_on_c, 9, 59, 51
11, 11986, Note_on_c, 9, 59, 0
11, 12000, Note_on_c, 9, 59, 43
11, 12045, Note_on_c, 9, 59, 0
11, 12080, Note_on_c, 9, 59, 39
11, 12093, Note_on_c, 9, 59, 0
11, 12120, Note_on_c, 9, 59, 51
11, 12203, Note_on_c, 9, 59, 0
11, 12240, Note_on_c, 9, 59, 55
11, 12306, Note_on_c, 9, 59, 0
11, 12360, Note_on_c, 9, 59, 59
11, 12409, Note_on_c, 9, 59, 0
11, 12440, Note_on_c, 9, 59, 47
11, 12453, Note_on_c, 9, 59, 0
11, 12480, Note_on_c, 9, 59, 39
11, 12555, Note_on_c, 9, 59, 0
11, 12600, Note_on_c, 9, 59, 68
11, 12644, Note_on_c, 9, 59, 0
11, 12680, Note_on_c, 9, 59, 39
11, 12689, Note_on_c, 9, 59, 0
11, 12720, Note_on_c, 9, 59, 47
11, 12758, Note_on_c, 9, 59, 0
11, 12800, Note_on_c, 9, 59, 51
11, 12816, Note_on_c, 9, 59, 0
11, 12840, Note_on_c, 9, 59, 11
11, 12842, Note_on_c, 9, 59, 0
11, 12920, Note_on_c, 9, 55, 77
11, 13057, Note_on_c, 9, 55, 0
11, 13080, Note_on_c, 9, 59, 43
11, 13114, Note_on_c, 9, 59, 0
11, 13160, Note_on_c, 9, 59, 31
11, 13174, Note_on_c, 9, 59, 0
11, 13200, Note_on_c, 9, 59, 59
11, 13285, Note_on_c, 9, 59, 0
11, 13320, Note_on_c, 9, 59, 55
11, 13331, Note_on_c, 9, 59, 0
11, 13400, Note_on_c, 9, 55, 68
11, 13533, Note_on_c, 9, 55, 0
11, 13560, Note_on_c, 9, 59, 47
11, 13598, Note_on_c, 9, 59, 0
11, 13640, Note_on_c, 9, 59, 47
11, 13651, Note_on_c, 9, 59, 0
11, 13680, Note_on_c, 9, 59, 35
11, 13745, Note_on_c, 9, 59, 0
11, 13800, Note_on_c, 9, 59, 68
11, 13806, Note_on_c, 9, 59, 0
11, 13880, Note_on_c, 9, 55, 68
11, 13982, Note_on_c, 9, 55, 0
11, 14040, Note_on_c, 9, 59, 51
11, 14089, Note_on_c, 9, 59, 0
11, 14120, Note_on_c, 9, 59, 43
11, 14131, Note_on_c, 9, 59, 0
11, 14160, Note_on_c, 9, 59, 55
11, 14237, Note_on_c, 9, 59, 0
11, 14280, Note_on_c, 9, 59, 68
11, 14352, Note_on_c, 9, 59, 0
11, 14400, Note_on_c, 9, 59, 77
11, 14472, Note_on_c, 9, 59, 0
11, 14520, Note_on_c, 9, 59, 86
11, 14583, Note_on_c, 9, 59, 0
11, 14640, Note_on_c, 9, 59, 59
11, 14690, Note_on_c, 9, 59, 0
11, 14720, Note_on_c, 9, 59, 59
11, 14734, Note_on_c, 9, 59, 0
11, 14760, Note_on_c, 9, 59, 59
11, 14812, Note_on_c, 9, 59, 0
11, 14840, Note_on_c, 9, 59, 43
11, 14852, Note_on_c, 9, 59, 0
11, 14880, Note_on_c, 9, 53, 55
11, 14880, Note_on_c, 9, 59, 27
11, 14903, Note_on_c, 9, 59, 0
11, 14970, Note_on_c, 9, 53, 0
11, 15000, Note_on_c, 9, 59, 51
11, 15000, Note_on_c, 9, 53, 51
11, 15052, Note_on_c, 9, 59, 0
11, 15080, Note_on_c, 9, 59, 35
11, 15085, Note_on_c, 9, 53, 0
11, 15087, Note_on_c, 9, 59, 0
11, 15120, Note_on_c, 9, 53, 43
11, 15120, Note_on_c, 9, 59, 35
11, 15182, Note_on_c, 9, 59, 0
11, 15197, Note_on_c, 9, 53, 0
11, 15240, Note_on_c, 9, 53, 43
11, 15240, Note_on_c, 9, 59, 43
11, 15253, Note_on_c, 9, 59, 0
11, 15320, Note_on_c, 9, 55, 68
11, 15328, Note_on_c, 9, 53, 0
11, 15465, Note_on_c, 9, 55, 0
11, 15480, Note_on_c, 9, 53, 59
11, 15480, Note_on_c, 9, 59, 26
11, 15502, Note_on_c, 9, 59, 0
11, 15569, Note_on_c, 9, 53, 0
11, 15600, Note_on_c, 9, 53, 51
11, 15600, Note_on_c, 9, 59, 11
11, 15606, Note_on_c, 9, 59, 0
11, 15681, Note_on_c, 9, 53, 0
11, 15720, Note_on_c, 9, 53, 51
11, 15720, Note_on_c, 9, 59, 21
11, 15737, Note_on_c, 9, 59, 0
11, 15800, Note_on_c, 9, 57, 59
11, 15817, Note_on_c, 9, 53, 0
11, 15960, Note_on_c, 9, 59, 47
11, 15966, Note_on_c, 9, 57, 0
11, 16002, Note_on_c, 9, 59, 0
11, 16040, Note_on_c, 9, 59, 27
11, 16053, Note_on_c, 9, 59, 0
11, 16080, Note_on_c, 9, 59, 47
11, 16150, Note_on_c, 9, 59, 0
11, 16200, Note_on_c, 9, 59, 68
11, 16274, Note_on_c, 9, 59, 0
11, 16320, Note_on_c, 9, 59, 43
11, 16388, Note_on_c, 9, 59, 0
11, 16440, Note_on_c, 9, 59, 59
11, 16510, Note_on_c, 9, 59, 0
11, 16560, Note_on_c, 9, 59, 51
11, 16640, Note_on_c, 9, 55, 68
11, 16646, Note_on_c, 9, 59, 0
11, 16705, Note_on_c, 9, 55, 0
11, 16760, Note_on_c, 9, 55, 59
11, 16889, Note_on_c, 9, 55, 0
11, 16920, Note_on_c, 9, 59, 43
11, 16955, Note_on_c, 9, 59, 0
11, 17000, Note_on_c, 9, 59, 51
11, 17011, Note_on_c, 9, 59, 0
11, 17040, Note_on_c, 9, 59, 23
11, 17119, Note_on_c, 9, 59, 0
11, 17160, Note_on_c, 9, 59, 43
11, 17216, Note_on_c, 9, 59, 0
11, 17240, Note_on_c, 9, 59, 43
11, 17258, Note_on_c, 9, 59, 0
11, 17280, Note_on_c, 9, 59, 39
11, 17340, Note_on_c, 9, 59, 0
11, 17400, Note_on_c, 9, 59, 47
11, 17458, Note_on_c, 9, 59, 0
11, 17480, Note_on_c, 9, 59, 27
11, 17493, Note_on_c, 9, 59, 0
11, 17520, Note_on_c, 9, 59, 43
11, 17527, Note_on_c, 9, 59, 0
11, 17600, Note_on_c, 9, 55, 77
11, 17632, Note_on_c, 9, 55, 0
11, 17720, Note_on_c, 9, 57, 68
11, 17852, Note_on_c, 9, 57, 0
11, 17880, Note_on_c, 9, 59, 43
11, 17936, Note_on_c, 9, 59, 0
11, 18000, Note_on_c, 9, 59, 51
11, 18063, Note_on_c, 9, 59, 0
11, 18120, Note_on_c, 9, 59, 77
11, 18201, Note_on_c, 9, 59, 0
11, 18240, Note_on_c, 9, 59, 43
11, 18306, Note_on_c, 9, 59, 0
11, 18360, Note_on_c, 9, 59, 77
11, 18418, Note_on_c, 9, 59, 0
11, 18440, Note_on_c, 9, 59, 43
11, 18462, Note_on_c, 9, 59, 0
11, 18480, Note_on_c, 9, 59, 51
11, 18547, Note_on_c, 9, 59, 0
11, 18600, Note_on_c, 9, 59, 68
11, 18667, Note_on_c, 9, 59, 0
11, 18720, Note_on_c, 9, 59, 55
11, 18785, Note_on_c, 9, 59, 0
11, 18840, Note_on_c, 9, 59, 68
11, 18896, Note_on_c, 9, 59, 0
11, 18920, Note_on_c, 9, 59, 31
11, 18931, Note_on_c, 9, 59, 0
11, 18960, Note_on_c, 9, 59, 43
11, 19036, Note_on_c, 9, 59, 0
11, 19080, Note_on_c, 9, 59, 68
11, 19134, Note_on_c, 9, 59, 0
11, 19160, Note_on_c, 9, 59, 31
11, 19169, Note_on_c, 9, 59, 0
11, 19200, Note_on_c, 9, 59, 47
11, 19288, Note_on_c, 9, 59, 0
11, 19320, Note_on_c, 9, 59, 59
11, 19369, Note_on_c, 9, 59, 0
11, 19400, Note_on_c, 9, 59, 23
11, 19411, Note_on_c, 9, 59, 0
11, 19440, Note_on_c, 9, 59, 43
11, 19501, Note_on_c, 9, 59, 0
11, 19520, Note_on_c, 9, 55, 59
11, 19560, Note_on_c, 9, 55, 0
11, 19560, Note_on_c, 9, 59, 18
11, 19578, Note_on_c, 9, 59, 0
11, 19640, Note_on_c, 9, 57, 51
11, 19777, Note_on_c, 9, 57, 0
11, 19800, Note_on_c, 9, 59, 47
11, 19843, Note_on_c, 9, 59, 0
11, 19880, Note_on_c, 9, 59, 35
11, 19896, Note_on_c, 9, 59, 0
11, 19920, Note_on_c, 9, 59, 43
11, 19994, Note_on_c, 9, 59, 0
11, 20040, Note_on_c, 9, 59, 59
11, 20092, Note_on_c, 9, 59, 0
11, 20120, Note_on_c, 9, 59, 43
11, 20134, Note_on_c, 9, 59, 0
11, 20160, Note_on_c, 9, 59, 43
11, 20229, Note_on_c, 9, 59, 0
11, 20280, Note_on_c, 9, 59, 68
11, 20336, Note_on_c, 9, 59, 0
11, 20360, Note_on_c, 9, 59, 39
11, 20370, Note_on_c, 9, 59, 0
11, 20400, Note_on_c, 9, 59, 35
11, 20465, Note_on_c, 9, 59, 0
11, 20520, Note_on_c, 9, 59, 68
11, 20601, Note_on_c, 9, 59, 0
11, 20640, Note_on_c, 9, 59, 51
11, 20701, Note_on_c, 9, 59, 0
11, 20760, Note_on_c, 9, 59, 68
11, 20815, Note_on_c, 9, 59, 0
11, 20840, Note_on_c, 9, 59, 31
11, 20851, Note_on_c, 9, 59, 0
11, 20880, Note_on_c, 9, 59, 35
11, 20968, Note_on_c, 9, 59, 0
11, 21000, Note_on_c, 9, 59, 59
11, 21061, Note_on_c, 9, 59, 0
11, 21080, Note_on_c, 9, 59, 35
11, 21096, Note_on_c, 9, 59, 0
11, 21120, Note_on_c, 9, 59, 39
11, 21186, Note_on_c, 9, 59, 0
11, 21240, Note_on_c, 9, 59, 68
11, 21287, Note_on_c, 9, 59, 0
11, 21320, Note_on_c, 9, 59, 39
11, 21331, Note_on_c, 9, 59, 0
11, 21360, Note_on_c, 9, 59, 43
11, 21386, Note_on_c, 9, 59, 0
11, 21440, Note_on_c, 9, 55, 55
11, 21463, Note_on_c, 9, 55, 0
11, 21480, Note_on_c, 9, 59, 35
11, 21494, Note_on_c, 9, 59, 0
11, 21560, Note_on_c, 9, 57, 47
11, 21691, Note_on_c, 9, 57, 0
11, 21720, Note_on_c, 9, 59, 47
11, 21763, Note_on_c, 9, 59, 0
11, 21800, Note_on_c, 9, 59, 39
11, 21810, Note_on_c, 9, 59, 0
11, 21840, Note_on_c, 9, 59, 43
11, 21905, Note_on_c, 9, 59, 0
11, 21960, Note_on_c, 9, 59, 77
11, 21967, Note_on_c, 9, 59, 0
11, 22040, Note_on_c, 9, 53, 59
11, 22173, Note_on_c, 9, 53, 0
11, 22200, Note_on_c, 9, 59, 51
11, 22243, Note_on_c, 9, 59, 0
11, 22280, Note_on_c, 9, 59, 43
11, 22296, Note_on_c, 9, 59, 0
11, 22320, Note_on_c, 9, 59, 47
11, 22392, Note_on_c, 9, 59, 0
11, 22440, Note_on_c, 9, 59, 55
11, 22460, Note_on_c, 9, 59, 0
11, 22520, Note_on_c, 9, 53, 59
11, 22642, Note_on_c, 9, 53, 0
11, 22680, Note_on_c, 9, 53, 35
11, 22760, Note_on_c, 9, 59, 51
11, 22766, Note_on_c, 9, 53, 0
11, 22771, Note_on_c, 9, 59, 0
11, 22800, Note_on_c, 9, 53, 39
11, 22880, Note_on_c, 9, 59, 68
11, 22885, Note_on_c, 9, 53, 0
11, 22886, Note_on_c, 9, 59, 0
11, 22920, Note_on_c, 9, 53, 35
11, 23000, Note_on_c, 9, 59, 77
11, 23007, Note_on_c, 9, 59, 0
11, 23016, Note_on_c, 9, 53, 0
11, 23040, Note_on_c, 9, 53, 43
11, 23131, Note_on_c, 9, 53, 0
11, 23160, Note_on_c, 9, 53, 43
11, 23160, Note_on_c, 9, 59, 47
11, 23190, Note_on_c, 9, 59, 0
11, 23240, Note_on_c, 9, 59, 68
11, 23241, Note_on_c, 9, 53, 0
11, 23249, Note_on_c, 9, 59, 0
11, 23280, Note_on_c, 9, 59, 39
11, 23280, Note_on_c, 9, 53, 27
11, 23299, Note_on_c, 9, 59, 0
11, 23360, Note_on_c, 9, 59, 59
11, 23363, Note_on_c, 9, 53, 0
11, 23369, Note_on_c, 9, 59, 0
11, 23400, Note_on_c, 9, 53, 39
11, 23449, Note_on_c, 9, 53, 0
11, 23480, Note_on_c, 9, 55, 68
11, 23637, Note_on_c, 9, 55, 0
11, 23640, Note_on_c, 9, 59, 59
11, 23687, Note_on_c, 9, 59, 0
11, 23720, Note_on_c, 9, 59, 43
11, 23732, Note_on_c, 9, 59, 0
11, 23760, Note_on_c, 9, 59, 59
11, 23828, Note_on_c, 9, 59, 0
11, 23880, Note_on_c, 9, 59, 77
11, 23887, Note_on_c, 9, 59, 0
11, 23960, Note_on_c, 9, 57, 51
11, 24099, Note_on_c, 9, 57, 0
11, 24120, Note_on_c, 9, 59, 59
11, 24167, Note_on_c, 9, 59, 0
11, 24200, Note_on_c, 9, 59, 51
11, 24211, Note_on_c, 9, 59, 0
11, 24240, Note_on_c, 9, 59, 55
11, 24305, Note_on_c, 9, 59, 0
11, 24360, Note_on_c, 9, 59, 43
11, 24406, Note_on_c, 9, 59, 0
11, 24440, Note_on_c, 9, 57, 51
11, 24579, Note_on_c, 9, 57, 0
11, 24600, Note_on_c, 9, 59, 47
11, 24632, Note_on_c, 9, 59, 0
11, 24680, Note_on_c, 9, 59, 31
11, 24685, Note_on_c, 9, 59, 0
11, 24720, Note_on_c, 9, 59, 31
11, 24778, Note_on_c, 9, 59, 0
11, 24800, Note_on_c, 9, 59, 51
11, 24815, Note_on_c, 9, 59, 0
11, 24840, Note_on_c, 9, 59, 51
11, 24900, Note_on_c, 9, 59, 0
11, 24920, Note_on_c, 9, 59, 43
11, 24934, Note_on_c, 9, 59, 0
11, 24960, Note_on_c, 9, 59, 51
11, 25034, Note_on_c, 9, 59, 0
11, 25080, Note_on_c, 9, 59, 59
11, 25121, Note_on_c, 9, 59, 0
11, 25160, Note_on_c, 9, 59, 43
11, 25173, Note_on_c, 9, 59, 0
11, 25200, Note_on_c, 9, 59, 47
11, 25251, Note_on_c, 9, 59, 0
11, 25280, Note_on_c, 9, 59, 59
11, 25302, Note_on_c, 9, 59, 0
11, 25400, Note_on_c, 9, 55, 68
11, 25555, Note_on_c, 9, 55, 0
11, 25560, Note_on_c, 9, 59, 47
11, 25593, Note_on_c, 9, 59, 0
11, 25640, Note_on_c, 9, 59, 51
11, 25655, Note_on_c, 9, 59, 0
11, 25680, Note_on_c, 9, 59, 13
11, 25694, Note_on_c, 9, 59, 0
11, 25760, Note_on_c, 9, 59, 68
11, 25785, Note_on_c, 9, 59, 0
11, 25800, Note_on_c, 9, 59, 35
11, 25833, Note_on_c, 9, 59, 0
11, 25880, Note_on_c, 9, 59, 47
11, 25896, Note_on_c, 9, 59, 0
11, 25920, Note_on_c, 9, 59, 26
11, 25974, Note_on_c, 9, 59, 0
11, 26000, Note_on_c, 9, 59, 39
11, 26012, Note_on_c, 9, 59, 0
11, 26040, Note_on_c, 9, 59, 68
11, 26094, Note_on_c, 9, 59, 0
11, 26120, Note_on_c, 9, 59, 51
11, 26133, Note_on_c, 9, 59, 0
11, 26160, Note_on_c, 9, 59, 55
11, 26225, Note_on_c, 9, 59, 0
11, 26240, Note_on_c, 9, 55, 68
11, 26280, Note_on_c, 9, 59, 27
11, 26282, Note_on_c, 9, 55, 0
11, 26290, Note_on_c, 9, 59, 0
11, 26360, Note_on_c, 9, 57, 51
11, 26423, Note_on_c, 9, 57, 0
11, 26520, Note_on_c, 9, 59, 35
11, 26592, Note_on_c, 9, 59, 0
11, 26640, Note_on_c, 9, 59, 43
11, 26721, Note_on_c, 9, 59, 0
11, 26760, Note_on_c, 9, 59, 51
11, 26818, Note_on_c, 9, 59, 0
11, 26840, Note_on_c, 9, 59, 31
11, 26851, Note_on_c, 9, 59, 0
11, 26880, Note_on_c, 9, 59, 51
11, 26960, Note_on_c, 9, 59, 0
11, 27000, Note_on_c, 9, 59, 51
11, 27077, Note_on_c, 9, 59, 0
11, 27120, Note_on_c, 9, 59, 43
11, 27196, Note_on_c, 9, 59, 0
11, 27240, Note_on_c, 9, 59, 59
11, 27321, Note_on_c, 9, 59, 0
11, 27360, Note_on_c, 9, 59, 43
11, 27427, Note_on_c, 9, 59, 0
11, 27480, Note_on_c, 9, 59, 68
11, 27559, Note_on_c, 9, 59, 0
11, 27600, Note_on_c, 9, 59, 47
11, 27677, Note_on_c, 9, 59, 0
11, 27720, Note_on_c, 9, 59, 68
11, 27808, Note_on_c, 9, 59, 0
11, 27840, Note_on_c, 9, 59, 55
11, 27912, Note_on_c, 9, 59, 0
11, 27960, Note_on_c, 9, 59, 59
11, 28004, Note_on_c, 9, 59, 0
11, 28040, Note_on_c, 9, 59, 55
11, 28053, Note_on_c, 9, 59, 0
11, 28080, Note_on_c, 9, 59, 55
11, 28157, Note_on_c, 9, 59, 0
11, 28200, Note_on_c, 9, 59, 51
11, 28232, Note_on_c, 9, 59, 0
11, 28280, Note_on_c, 9, 59, 59
11, 28386, Note_on_c, 9, 59, 0
11, 28440, Note_on_c, 9, 59, 55
11, 28485, Note_on_c, 9, 59, 0
11, 28520, Note_on_c, 9, 59, 35
11, 28544, Note_on_c, 9, 59, 0
11, 28560, Note_on_c, 9, 59, 26
11, 28638, Note_on_c, 9, 59, 0
11, 28680, Note_on_c, 9, 59, 55
11, 28734, Note_on_c, 9, 59, 0
11, 28760, Note_on_c, 9, 59, 43
11, 28779, Note_on_c, 9, 59, 0
11, 28800, Note_on_c, 9, 59, 26
11, 28876, Note_on_c, 9, 59, 0
11, 28920, Note_on_c, 9, 59, 59
11, 28977, Note_on_c, 9, 59, 0
11, 29000, Note_on_c, 9, 59, 35
11, 29018, Note_on_c, 9, 59, 0
11, 29040, Note_on_c, 9, 59, 25
11, 29092, Note_on_c, 9, 59, 0
11, 29120, Note_on_c, 9, 59, 51
11, 29144, Note_on_c, 9, 59, 0
11, 29160, Note_on_c, 9, 59, 39
11, 29206, Note_on_c, 9, 59, 0
11, 29240, Note_on_c, 9, 59, 51
11, 29266, Note_on_c, 9, 59, 0
11, 29280, Note_on_c, 9, 59, 43
11, 29325, Note_on_c, 9, 59, 0
11, 29360, Note_on_c, 9, 59, 39
11, 29373, Note_on_c, 9, 59, 0
11, 29400, Note_on_c, 9, 59, 51
11, 29483, Note_on_c, 9, 59, 0
11, 29520, Note_on_c, 9, 59, 55
11, 29586, Note_on_c, 9, 59, 0
11, 29640, Note_on_c, 9, 59, 59
11, 29689, Note_on_c, 9, 59, 0
11, 29720, Note_on_c, 9, 59, 47
11, 29733, Note_on_c, 9, 59, 0
11, 29760, Note_on_c, 9, 59, 39
11, 29835, Note_on_c, 9, 59, 0
11, 29880, Note_on_c, 9, 59, 68
11, 29924, Note_on_c, 9, 59, 0
11, 29960, Note_on_c, 9, 59, 39
11, 29969, Note_on_c, 9, 59, 0
11, 30000, Note_on_c, 9, 59, 47
11, 30038, Note_on_c, 9, 59, 0
11, 30080, Note_on_c, 9, 59, 51
11, 30096, Note_on_c, 9, 59, 0
11, 30120, Note_on_c, 9, 59, 11
11, 30122, Note_on_c, 9, 59, 0
11, 30197, Note_on_c, 9, 53, 35
11, 30200, Note_on_c, 9, 55, 77
11, 30307, Note_on_c, 9, 53, 0
11, 30337, Note_on_c, 9, 55, 0
11, 30359, Note_on_c, 9, 53, 39
11, 30360, Note_on_c, 9, 59, 43
11, 30394, Note_on_c, 9, 59, 0
11, 30428, Note_on_c, 9, 53, 0
11, 30440, Note_on_c, 9, 59, 31
11, 30454, Note_on_c, 9, 59, 0
11, 30478, Note_on_c, 9, 53, 43
11, 30480, Note_on_c, 9, 59, 59
11, 30548, Note_on_c, 9, 53, 0
11, 30565, Note_on_c, 9, 59, 0
11, 30593, Note_on_c, 9, 53, 51
11, 30600, Note_on_c, 9, 59, 55
11, 30611, Note_on_c, 9, 59, 0
11, 30662, Note_on_c, 9, 53, 0
11, 30680, Note_on_c, 9, 55, 68
11, 30723, Note_on_c, 9, 53, 43
11, 30795, Note_on_c, 9, 53, 0
11, 30813, Note_on_c, 9, 55, 0
11, 30840, Note_on_c, 9, 59, 47
11, 30840, Note_on_c, 9, 53, 43
11, 30878, Note_on_c, 9, 59, 0
11, 30916, Note_on_c, 9, 53, 0
11, 30920, Note_on_c, 9, 59, 47
11, 30931, Note_on_c, 9, 59, 0
11, 30956, Note_on_c, 9, 53, 39
11, 30960, Note_on_c, 9, 59, 35
11, 31025, Note_on_c, 9, 59, 0
11, 31032, Note_on_c, 9, 53, 0
11, 31075, Note_on_c, 9, 53, 51
11, 31080, Note_on_c, 9, 59, 68
11, 31086, Note_on_c, 9, 59, 0
11, 31141, Note_on_c, 9, 53, 0
11, 31160, Note_on_c, 9, 55, 68
11, 31199, Note_on_c, 9, 53, 43
11, 31262, Note_on_c, 9, 53, 0
11, 31262, Note_on_c, 9, 55, 0
11, 31318, Note_on_c, 9, 53, 43
11, 31320, Note_on_c, 9, 59, 51
11, 31369, Note_on_c, 9, 59, 0
11, 31372, Note_on_c, 9, 53, 0
11, 31400, Note_on_c, 9, 59, 43
11, 31411, Note_on_c, 9, 59, 0
11, 31439, Note_on_c, 9, 53, 51
11, 31440, Note_on_c, 9, 59, 55
11, 31504, Note_on_c, 9, 53, 0
11, 31517, Note_on_c, 9, 59, 0
11, 31560, Note_on_c, 9, 59, 68
11, 31560, Note_on_c, 9, 53, 47
11, 31624, Note_on_c, 9, 53, 0
11, 31632, Note_on_c, 9, 59, 0
11, 31680, Note_on_c, 9, 59, 77
11, 31680, Note_on_c, 9, 53, 55
11, 31752, Note_on_c, 9, 59, 0
11, 31762, Note_on_c, 9, 53, 0
11, 31800, Note_on_c, 9, 59, 86
11, 31801, Note_on_c, 9, 53, 51
11, 31862, Note_on_c, 9, 53, 0
11, 31863, Note_on_c, 9, 59, 0
11, 31915, Note_on_c, 9, 53, 43
11, 31920, Note_on_c, 9, 59, 59
11, 31970, Note_on_c, 9, 59, 0
11, 31994, Note_on_c, 9, 53, 0
11, 32000, Note_on_c, 9, 59, 59
11, 32014, Note_on_c, 9, 59, 0
11, 32039, Note_on_c, 9, 53, 51
11, 32040, Note_on_c, 9, 59, 59
11, 32074, Note_on_c, 9, 53, 0
11, 32092, Note_on_c, 9, 59, 0
11, 32115, Note_on_c, 9, 53, 27
11, 32120, Note_on_c, 9, 59, 43
11, 32127, Note_on_c, 9, 53, 0
11, 32132, Note_on_c, 9, 59, 0
11, 32158, Note_on_c, 9, 53, 35
11, 32160, Note_on_c, 9, 53, 55
11, 32160, Note_on_c, 9, 59, 27
11, 32183, Note_on_c, 9, 59, 0
11, 32230, Note_on_c, 9, 53, 0
11, 32250, Note_on_c, 9, 53, 0
11, 32279, Note_on_c, 9, 53, 51
11, 32280, Note_on_c, 9, 59, 51
11, 32280, Note_on_c, 9, 53, 51
11, 32322, Note_on_c, 9, 53, 0
11, 32332, Note_on_c, 9, 59, 0
11, 32360, Note_on_c, 9, 59, 35
11, 32365, Note_on_c, 9, 53, 0
11, 32365, Note_on_c, 9, 53, 20
11, 32367, Note_on_c, 9, 59, 0
11, 32376, Note_on_c, 9, 53, 0
11, 32400, Note_on_c, 9, 53, 43
11, 32400, Note_on_c, 9, 59, 35
11, 32400, Note_on_c, 9, 53, 39
11, 32462, Note_on_c, 9, 59, 0
11, 32467, Note_on_c, 9, 53, 0
11, 32477, Note_on_c, 9, 53, 0
11, 32517, Note_on_c, 9, 53, 55
11, 32520, Note_on_c, 9, 53, 43
11, 32520, Note_on_c, 9, 59, 43
11, 32533, Note_on_c, 9, 59, 0
11, 32551, Note_on_c, 9, 53, 0
11, 32596, Note_on_c, 9, 53, 59
11, 32600, Note_on_c, 9, 55, 68
11, 32608, Note_on_c, 9, 53, 0
11, 32701, Note_on_c, 9, 53, 0
11, 32745, Note_on_c, 9, 55, 0
11, 32751, Note_on_c, 9, 53, 47
11, 32760, Note_on_c, 9, 53, 59
11, 32760, Note_on_c, 9, 59, 26
11, 32782, Note_on_c, 9, 59, 0
11, 32798, Note_on_c, 9, 53, 0
11, 32845, Note_on_c, 9, 53, 11
11, 32849, Note_on_c, 9, 53, 0
11, 32851, Note_on_c, 9, 53, 0
11, 32880, Note_on_c, 9, 53, 51
11, 32880, Note_on_c, 9, 59, 11
11, 32880, Note_on_c, 9, 53, 26
11, 32886, Note_on_c, 9, 59, 0
11, 32932, Note_on_c, 9, 53, 0
11, 32959, Note_on_c, 9, 53, 35
11, 32961, Note_on_c, 9, 53, 0
11, 32975, Note_on_c, 9, 53, 0
11, 32999, Note_on_c, 9, 53, 47
11, 33000, Note_on_c, 9, 53, 51
11, 33000, Note_on_c, 9, 59, 21
11, 33017, Note_on_c, 9, 59, 0
11, 33051, Note_on_c, 9, 53, 0
11, 33074, Note_on_c, 9, 53, 43
11, 33080, Note_on_c, 9, 57, 59
11, 33093, Note_on_c, 9, 53, 0
11, 33097, Note_on_c, 9, 53, 0
11, 33118, Note_on_c, 9, 53, 26
11, 33190, Note_on_c, 9, 53, 0
11, 33237, Note_on_c, 9, 53, 39
11, 33240, Note_on_c, 9, 59, 47
11, 33246, Note_on_c, 9, 57, 0
11, 33282, Note_on_c, 9, 59, 0
11, 33309, Note_on_c, 9, 53, 0
11, 33320, Note_on_c, 9, 59, 27
11, 33333, Note_on_c, 9, 59, 0
11, 33360, Note_on_c, 9, 59, 47
11, 33363, Note_on_c, 9, 53, 55
11, 33430, Note_on_c, 9, 59, 0
11, 33437, Note_on_c, 9, 53, 0
11, 33479, Note_on_c, 9, 53, 59
11, 33480, Note_on_c, 9, 59, 68
11, 33545, Note_on_c, 9, 53, 0
11, 33554, Note_on_c, 9, 59, 0
11, 33594, Note_on_c, 9, 53, 47
11, 33600, Note_on_c, 9, 59, 43
11, 33660, Note_on_c, 9, 53, 0
11, 33668, Note_on_c, 9, 59, 0
11, 33713, Note_on_c, 9, 53, 27
11, 33720, Note_on_c, 9, 59, 59
11, 33770, Note_on_c, 9, 53, 0
11, 33790, Note_on_c, 9, 59, 0
11, 33828, Note_on_c, 9, 53, 26
11, 33840, Note_on_c, 9, 59, 51
11, 33893, Note_on_c, 9, 53, 0
11, 33920, Note_on_c, 9, 55, 68
11, 33926, Note_on_c, 9, 59, 0
11, 33947, Note_on_c, 9, 53, 35
11, 33985, Note_on_c, 9, 55, 0
11, 34005, Note_on_c, 9, 53, 0
11, 34040, Note_on_c, 9, 55, 59
11, 34046, Note_on_c, 9, 53, 22
11, 34059, Note_on_c, 9, 53, 0
11, 34079, Note_on_c, 9, 53, 31
11, 34149, Note_on_c, 9, 53, 0
11, 34169, Note_on_c, 9, 55, 0
11, 34200, Note_on_c, 9, 59, 43
11, 34201, Note_on_c, 9, 53, 31
11, 34235, Note_on_c, 9, 59, 0
11, 34250, Note_on_c, 9, 53, 0
11, 34280, Note_on_c, 9, 59, 51
11, 34291, Note_on_c, 9, 59, 0
11, 34315, Note_on_c, 9, 53, 35
11, 34320, Note_on_c, 9, 59, 23
11, 34383, Note_on_c, 9, 53, 0
11, 34399, Note_on_c, 9, 59, 0
11, 34436, Note_on_c, 9, 53, 43
11, 34440, Note_on_c, 9, 59, 43
11, 34496, Note_on_c, 9, 59, 0
11, 34512, Note_on_c, 9, 53, 0
11, 34520, Note_on_c, 9, 59, 43
11, 34538, Note_on_c, 9, 59, 0
11, 34557, Note_on_c, 9, 53, 27
11, 34560, Note_on_c, 9, 59, 39
11, 34620, Note_on_c, 9, 59, 0
11, 34632, Note_on_c, 9, 53, 0
11, 34672, Note_on_c, 9, 53, 39
11, 34680, Note_on_c, 9, 59, 47
11, 34738, Note_on_c, 9, 59, 0
11, 34739, Note_on_c, 9, 53, 0
11, 34760, Note_on_c, 9, 59, 27
11, 34773, Note_on_c, 9, 59, 0
11, 34791, Note_on_c, 9, 53, 26
11, 34800, Note_on_c, 9, 59, 43
11, 34807, Note_on_c, 9, 59, 0
11, 34858, Note_on_c, 9, 53, 0
11, 34880, Note_on_c, 9, 55, 77
11, 34904, Note_on_c, 9, 53, 43
11, 34912, Note_on_c, 9, 55, 0
11, 34932, Note_on_c, 9, 53, 0
11, 35000, Note_on_c, 9, 57, 68
11, 35132, Note_on_c, 9, 57, 0
11, 35960, Note_on_c, 9, 46, 68
11, 35991, Note_on_c, 9, 46, 0
11, 36920, Note_on_c, 9, 46, 68
11, 36951, Note_on_c, 9, 46, 0
11, 37440, Note_on_c, 9, 58, 35
11, 37514, Note_on_c, 9, 58, 0
11, 38400, Note_on_c, 9, 59, 39
11, 38494, Note_on_c, 9, 59, 0
11, 38520, Note_on_c, 9, 59, 26
11, 38599, Note_on_c, 9, 59, 0
11, 38640, Note_on_c, 9, 59, 11
11, 38721, Note_on_c, 9, 59, 0
11, 38760, Note_on_c, 9, 59, 39
11, 38816, Note_on_c, 9, 59, 0
11, 38840, Note_on_c, 9, 59, 21
11, 38858, Note_on_c, 9, 59, 0
11, 38880, Note_on_c, 9, 59, 22
11, 38967, Note_on_c, 9, 59, 0
11, 39000, Note_on_c, 9, 59, 51
11, 39047, Note_on_c, 9, 59, 0
11, 39080, Note_on_c, 9, 59, 22
11, 39091, Note_on_c, 9, 59, 0
11, 39200, Note_on_c, 9, 59, 31
11, 39214, Note_on_c, 9, 59, 0
11, 39240, Note_on_c, 9, 59, 14
11, 39240, Note_on_c, 9, 57, 11
11, 39246, Note_on_c, 9, 57, 0
11, 39273, Note_on_c, 9, 59, 0
11, 39320, Note_on_c, 9, 59, 43
11, 39360, Note_on_c, 9, 59, 14
11, 39374, Note_on_c, 9, 59, 0
11, 39424, Note_on_c, 9, 59, 0
11, 39440, Note_on_c, 9, 59, 55
11, 39474, Note_on_c, 9, 59, 0
11, 39560, Note_on_c, 9, 59, 39
11, 39596, Note_on_c, 9, 59, 0
11, 39680, Note_on_c, 9, 50, 59
11, 39720, Note_on_c, 9, 59, 43
11, 39736, Note_on_c, 9, 59, 0
11, 39760, Note_on_c, 9, 48, 39
11, 39795, Note_on_c, 9, 50, 0
11, 39800, Note_on_c, 9, 47, 59
11, 39814, Note_on_c, 9, 48, 0
11, 39840, Note_on_c, 9, 59, 51
11, 39847, Note_on_c, 9, 47, 0
11, 39883, Note_on_c, 9, 59, 0
11, 39920, Note_on_c, 9, 59, 26
11, 39938, Note_on_c, 9, 59, 0
11, 39960, Note_on_c, 9, 59, 26
11, 40005, Note_on_c, 9, 59, 0
11, 40040, Note_on_c, 9, 59, 55
11, 40073, Note_on_c, 9, 59, 0
11, 40080, Note_on_c, 9, 59, 35
11, 40122, Note_on_c, 9, 59, 0
11, 40160, Note_on_c, 9, 59, 39
11, 40173, Note_on_c, 9, 59, 0
11, 40200, Note_on_c, 9, 59, 26
11, 40267, Note_on_c, 9, 59, 0
11, 40280, Note_on_c, 9, 47, 59
11, 40311, Note_on_c, 9, 47, 0
11, 40320, Note_on_c, 9, 59, 35
11, 40347, Note_on_c, 9, 59, 0
11, 40400, Note_on_c, 9, 59, 31
11, 40420, Note_on_c, 9, 59, 0
11, 40440, Note_on_c, 9, 59, 35
11, 40496, Note_on_c, 9, 59, 0
11, 40520, Note_on_c, 9, 59, 11
11, 40522, Note_on_c, 9, 59, 0
11, 40560, Note_on_c, 9, 59, 39
11, 40624, Note_on_c, 9, 59, 0
11, 40680, Note_on_c, 9, 59, 59
11, 40736, Note_on_c, 9, 59, 0
11, 40760, Note_on_c, 9, 59, 39
11, 40777, Note_on_c, 9, 59, 0
11, 40800, Note_on_c, 9, 59, 35
11, 40856, Note_on_c, 9, 59, 0
11, 40920, Note_on_c, 9, 59, 59
11, 40969, Note_on_c, 9, 59, 0
11, 41000, Note_on_c, 9, 59, 39
11, 41007, Note_on_c, 9, 59, 0
11, 41040, Note_on_c, 9, 59, 35
11, 41111, Note_on_c, 9, 59, 0
11, 41160, Note_on_c, 9, 55, 51
11, 41160, Note_on_c, 9, 59, 27
11, 41177, Note_on_c, 9, 59, 0
11, 41240, Note_on_c, 9, 59, 25
11, 41246, Note_on_c, 9, 59, 0
11, 41265, Note_on_c, 9, 55, 0
11, 41280, Note_on_c, 9, 59, 27
11, 41341, Note_on_c, 9, 59, 0
11, 41400, Note_on_c, 9, 59, 47
11, 41451, Note_on_c, 9, 59, 0
11, 41480, Note_on_c, 9, 59, 26
11, 41489, Note_on_c, 9, 59, 0
11, 41520, Note_on_c, 9, 59, 26
11, 41592, Note_on_c, 9, 59, 0
11, 41600, Note_on_c, 9, 55, 59
11, 41640, Note_on_c, 9, 59, 43
11, 41653, Note_on_c, 9, 55, 0
11, 41673, Note_on_c, 9, 59, 0
11, 41720, Note_on_c, 9, 59, 21
11, 41729, Note_on_c, 9, 59, 0
11, 41760, Note_on_c, 9, 59, 43
11, 41841, Note_on_c, 9, 59, 0
11, 41880, Note_on_c, 9, 59, 59
11, 41935, Note_on_c, 9, 59, 0
11, 41960, Note_on_c, 9, 59, 27
11, 41969, Note_on_c, 9, 59, 0
11, 42000, Note_on_c, 9, 59, 47
11, 42063, Note_on_c, 9, 59, 0
11, 42120, Note_on_c, 9, 59, 77
11, 42181, Note_on_c, 9, 59, 0
11, 42200, Note_on_c, 9, 59, 43
11, 42211, Note_on_c, 9, 59, 0
11, 42240, Note_on_c, 9, 59, 43
11, 42308, Note_on_c, 9, 59, 0
11, 42360, Note_on_c, 9, 59, 59
11, 42401, Note_on_c, 9, 59, 0
11, 42440, Note_on_c, 9, 59, 47
11, 42450, Note_on_c, 9, 59, 0
11, 42480, Note_on_c, 9, 59, 43
11, 42540, Note_on_c, 9, 59, 0
11, 42560, Note_on_c, 9, 59, 47
11, 42567, Note_on_c, 9, 59, 0
11, 42600, Note_on_c, 9, 59, 51
11, 42653, Note_on_c, 9, 59, 0
11, 42680, Note_on_c, 9, 59, 55
11, 42720, Note_on_c, 9, 53, 59
11, 42730, Note_on_c, 9, 59, 0
11, 42800, Note_on_c, 9, 59, 51
11, 42813, Note_on_c, 9, 53, 0
11, 42818, Note_on_c, 9, 59, 0
11, 42840, Note_on_c, 9, 53, 51
11, 42840, Note_on_c, 9, 59, 51
11, 42894, Note_on_c, 9, 59, 0
11, 42920, Note_on_c, 9, 59, 39
11, 42925, Note_on_c, 9, 53, 0
11, 42938, Note_on_c, 9, 59, 0
11, 42960, Note_on_c, 9, 53, 47
11, 42960, Note_on_c, 9, 59, 39
11, 42999, Note_on_c, 9, 59, 0
11, 43040, Note_on_c, 9, 59, 51
11, 43043, Note_on_c, 9, 53, 0
11, 43049, Note_on_c, 9, 59, 0
11, 43080, Note_on_c, 9, 53, 86
11, 43080, Note_on_c, 9, 59, 24
11, 43099, Note_on_c, 9, 59, 0
11, 43160, Note_on_c, 9, 59, 51
11, 43178, Note_on_c, 9, 59, 0
11, 43179, Note_on_c, 9, 53, 0
11, 43200, Note_on_c, 9, 53, 59
11, 43200, Note_on_c, 9, 59, 43
11, 43236, Note_on_c, 9, 59, 0
11, 43280, Note_on_c, 9, 59, 51
11, 43287, Note_on_c, 9, 59, 0
11, 43287, Note_on_c, 9, 53, 0
11, 43320, Note_on_c, 9, 53, 86
11, 43320, Note_on_c, 9, 59, 47
11, 43358, Note_on_c, 9, 59, 0
11, 43400, Note_on_c, 9, 59, 51
11, 43405, Note_on_c, 9, 53, 0
11, 43409, Note_on_c, 9, 59, 0
11, 43440, Note_on_c, 9, 53, 51
11, 43440, Note_on_c, 9, 59, 39
11, 43487, Note_on_c, 9, 53, 0
11, 43508, Note_on_c, 9, 59, 0
11, 43520, Note_on_c, 9, 55, 86
11, 43560, Note_on_c, 9, 59, 31
11, 43640, Note_on_c, 9, 57, 59
11, 43655, Note_on_c, 9, 55, 0
11, 43679, Note_on_c, 9, 59, 0
11, 43763, Note_on_c, 9, 57, 0
11, 43800, Note_on_c, 9, 59, 35
11, 43872, Note_on_c, 9, 59, 0
11, 43920, Note_on_c, 9, 59, 43
11, 44001, Note_on_c, 9, 59, 0
11, 44040, Note_on_c, 9, 59, 51
11, 44098, Note_on_c, 9, 59, 0
11, 44120, Note_on_c, 9, 59, 31
11, 44131, Note_on_c, 9, 59, 0
11, 44160, Note_on_c, 9, 59, 51
11, 44240, Note_on_c, 9, 59, 0
11, 44280, Note_on_c, 9, 59, 51
11, 44357, Note_on_c, 9, 59, 0
11, 44400, Note_on_c, 9, 59, 43
11, 44476, Note_on_c, 9, 59, 0
11, 44520, Note_on_c, 9, 59, 59
11, 44601, Note_on_c, 9, 59, 0
11, 44640, Note_on_c, 9, 59, 43
11, 44707, Note_on_c, 9, 59, 0
11, 44760, Note_on_c, 9, 59, 68
11, 44839, Note_on_c, 9, 59, 0
11, 44880, Note_on_c, 9, 59, 47
11, 44957, Note_on_c, 9, 59, 0
11, 45000, Note_on_c, 9, 59, 68
11, 45088, Note_on_c, 9, 59, 0
11, 45120, Note_on_c, 9, 59, 55
11, 45192, Note_on_c, 9, 59, 0
11, 45240, Note_on_c, 9, 59, 59
11, 45284, Note_on_c, 9, 59, 0
11, 45320, Note_on_c, 9, 59, 55
11, 45333, Note_on_c, 9, 59, 0
11, 45360, Note_on_c, 9, 59, 55
11, 45437, Note_on_c, 9, 59, 0
11, 45480, Note_on_c, 9, 59, 51
11, 45512, Note_on_c, 9, 59, 0
11, 45560, Note_on_c, 9, 59, 59
11, 45666, Note_on_c, 9, 59, 0
11, 45720, Note_on_c, 9, 59, 55
11, 45765, Note_on_c, 9, 59, 0
11, 45800, Note_on_c, 9, 59, 35
11, 45824, Note_on_c, 9, 59, 0
11, 45840, Note_on_c, 9, 59, 26
11, 45918, Note_on_c, 9, 59, 0
11, 45960, Note_on_c, 9, 59, 55
11, 46014, Note_on_c, 9, 59, 0
11, 46040, Note_on_c, 9, 59, 43
11, 46059, Note_on_c, 9, 59, 0
11, 46080, Note_on_c, 9, 59, 26
11, 46156, Note_on_c, 9, 59, 0
11, 46200, Note_on_c, 9, 59, 59
11, 46257, Note_on_c, 9, 59, 0
11, 46280, Note_on_c, 9, 59, 35
11, 46298, Note_on_c, 9, 59, 0
11, 46320, Note_on_c, 9, 59, 25
11, 46372, Note_on_c, 9, 59, 0
11, 46400, Note_on_c, 9, 59, 51
11, 46424, Note_on_c, 9, 59, 0
11, 46440, Note_on_c, 9, 59, 39
11, 46486, Note_on_c, 9, 59, 0
11, 46520, Note_on_c, 9, 59, 51
11, 46546, Note_on_c, 9, 59, 0
11, 46560, Note_on_c, 9, 59, 43
11, 46605, Note_on_c, 9, 59, 0
11, 46640, Note_on_c, 9, 59, 39
11, 46653, Note_on_c, 9, 59, 0
11, 46680, Note_on_c, 9, 59, 51
11, 46763, Note_on_c, 9, 59, 0
11, 46800, Note_on_c, 9, 59, 55
11, 46866, Note_on_c, 9, 59, 0
11, 46920, Note_on_c, 9, 59, 59
11, 46969, Note_on_c, 9, 59, 0
11, 47000, Note_on_c, 9, 59, 47
11, 47013, Note_on_c, 9, 59, 0
11, 47040, Note_on_c, 9, 59, 39
11, 47115, Note_on_c, 9, 59, 0
11, 47160, Note_on_c, 9, 59, 68
11, 47204, Note_on_c, 9, 59, 0
11, 47240, Note_on_c, 9, 59, 39
11, 47249, Note_on_c, 9, 59, 0
11, 47280, Note_on_c, 9, 59, 47
11, 47318, Note_on_c, 9, 59, 0
11, 47360, Note_on_c, 9, 59, 51
11, 47376, Note_on_c, 9, 59, 0
11, 47400, Note_on_c, 9, 59, 11
11, 47402, Note_on_c, 9, 59, 0
11, 47480, Note_on_c, 9, 55, 77
11, 47617, Note_on_c, 9, 55, 0
11, 47640, Note_on_c, 9, 59, 43
11, 47674, Note_on_c, 9, 59, 0
11, 47720, Note_on_c, 9, 59, 31
11, 47734, Note_on_c, 9, 59, 0
11, 47760, Note_on_c, 9, 59, 59
11, 47845, Note_on_c, 9, 59, 0
11, 47880, Note_on_c, 9, 59, 55
11, 47891, Note_on_c, 9, 59, 0
11, 47960, Note_on_c, 9, 55, 68
11, 48093, Note_on_c, 9, 55, 0
11, 48120, Note_on_c, 9, 59, 47
11, 48158, Note_on_c, 9, 59, 0
11, 48200, Note_on_c, 9, 59, 47
11, 48211, Note_on_c, 9, 59, 0
11, 48240, Note_on_c, 9, 59, 35
11, 48305, Note_on_c, 9, 59, 0
11, 48360, Note_on_c, 9, 59, 68
11, 48366, Note_on_c, 9, 59, 0
11, 48440, Note_on_c, 9, 55, 68
11, 48542, Note_on_c, 9, 55, 0
11, 48600, Note_on_c, 9, 59, 51
11, 48649, Note_on_c, 9, 59, 0
11, 48680, Note_on_c, 9, 59, 43
11, 48691, Note_on_c, 9, 59, 0
11, 48720, Note_on_c, 9, 59, 55
11, 48797, Note_on_c, 9, 59, 0
11, 48840, Note_on_c, 9, 59, 68
11, 48912, Note_on_c, 9, 59, 0
11, 48960, Note_on_c, 9, 59, 77
11, 49032, Note_on_c, 9, 59, 0
11, 49080, Note_on_c, 9, 59, 86
11, 49143, Note_on_c, 9, 59, 0
11, 49200, Note_on_c, 9, 59, 59
11, 49250, Note_on_c, 9, 59, 0
11, 49280, Note_on_c, 9, 59, 59
11, 49294, Note_on_c, 9, 59, 0
11, 49320, Note_on_c, 9, 59, 59
11, 49372, Note_on_c, 9, 59, 0
11, 49400, Note_on_c, 9, 59, 43
11, 49412, Note_on_c, 9, 59, 0
11, 49440, Note_on_c, 9, 53, 55
11, 49440, Note_on_c, 9, 59, 27
11, 49463, Note_on_c, 9, 59, 0
11, 49530, Note_on_c, 9, 53, 0
11, 49560, Note_on_c, 9, 59, 51
11, 49560, Note_on_c, 9, 53, 51
11, 49612, Note_on_c, 9, 59, 0
11, 49640, Note_on_c, 9, 59, 35
11, 49645, Note_on_c, 9, 53, 0
11, 49647, Note_on_c, 9, 59, 0
11, 49680, Note_on_c, 9, 53, 43
11, 49680, Note_on_c, 9, 59, 35
11, 49742, Note_on_c, 9, 59, 0
11, 49757, Note_on_c, 9, 53, 0
11, 49800, Note_on_c, 9, 53, 43
11, 49800, Note_on_c, 9, 59, 43
11, 49813, Note_on_c, 9, 59, 0
11, 49880, Note_on_c, 9, 55, 68
11, 49888, Note_on_c, 9, 53, 0
11, 50025, Note_on_c, 9, 55, 0
11, 50040, Note_on_c, 9, 53, 59
11, 50040, Note_on_c, 9, 59, 26
11, 50062, Note_on_c, 9, 59, 0
11, 50129, Note_on_c, 9, 53, 0
11, 50160, Note_on_c, 9, 53, 51
11, 50160, Note_on_c, 9, 59, 11
11, 50166, Note_on_c, 9, 59, 0
11, 50241, Note_on_c, 9, 53, 0
11, 50280, Note_on_c, 9, 53, 51
11, 50280, Note_on_c, 9, 59, 21
11, 50297, Note_on_c, 9, 59, 0
11, 50351, Note_on_c, 9, 57, 68
11, 50377, Note_on_c, 9, 53, 0
11, 50400, Note_on_c, 9, 42, 77
11, 50400, Note_on_c, 9, 42, 77
11, 50420, Note_on_c, 9, 42, 0
11, 50440, Note_on_c, 9, 42, 47
11, 50463, Note_on_c, 9, 42, 0
11, 50469, Note_on_c, 9, 57, 0
11, 50479, Note_on_c, 9, 42, 0
11, 50480, Note_on_c, 9, 42, 55
11, 50500, Note_on_c, 9, 42, 0
11, 50520, Note_on_c, 9, 42, 77
11, 50520, Note_on_c, 9, 42, 39
11, 50520, Note_on_c, 9, 53, 51
11, 50545, Note_on_c, 9, 42, 0
11, 50560, Note_on_c, 9, 42, 43
11, 50567, Note_on_c, 9, 42, 0
11, 50583, Note_on_c, 9, 42, 0
11, 50600, Note_on_c, 9, 42, 43
11, 50600, Note_on_c, 9, 42, 55
11, 50607, Note_on_c, 9, 53, 0
11, 50626, Note_on_c, 9, 42, 0
11, 50635, Note_on_c, 9, 42, 0
11, 50640, Note_on_c, 9, 42, 68
11, 50640, Note_on_c, 9, 42, 35
11, 50640, Note_on_c, 9, 53, 39
11, 50665, Note_on_c, 9, 42, 0
11, 50673, Note_on_c, 9, 42, 0
11, 50680, Note_on_c, 9, 42, 51
11, 50700, Note_on_c, 9, 42, 0
11, 50720, Note_on_c, 9, 42, 39
11, 50720, Note_on_c, 9, 42, 39
11, 50733, Note_on_c, 9, 53, 0
11, 50742, Note_on_c, 9, 42, 0
11, 50751, Note_on_c, 9, 42, 0
11, 50760, Note_on_c, 9, 42, 86
11, 50760, Note_on_c, 9, 42, 47
11, 50760, Note_on_c, 9, 53, 59
11, 50787, Note_on_c, 9, 42, 0
11, 50800, Note_on_c, 9, 42, 39
11, 50806, Note_on_c, 9, 42, 0
11, 50820, Note_on_c, 9, 42, 0
11, 50822, Note_on_c, 9, 53, 0
11, 50840, Note_on_c, 9, 53, 39
11, 50840, Note_on_c, 9, 42, 55
11, 50840, Note_on_c, 9, 42, 68
11, 50862, Note_on_c, 9, 42, 0
11, 50864, Note_on_c, 9, 42, 0
11, 50865, Note_on_c, 9, 53, 0
11, 50880, Note_on_c, 9, 42, 59
11, 50880, Note_on_c, 9, 43, 35
11, 50880, Note_on_c, 9, 53, 47
11, 50898, Note_on_c, 9, 43, 0
11, 50907, Note_on_c, 9, 42, 0
11, 50920, Note_on_c, 9, 42, 43
11, 50939, Note_on_c, 9, 42, 0
11, 50960, Note_on_c, 9, 42, 59
11, 50960, Note_on_c, 9, 42, 43
11, 50966, Note_on_c, 9, 53, 0
11, 50978, Note_on_c, 9, 42, 0
11, 50985, Note_on_c, 9, 42, 0
11, 51000, Note_on_c, 9, 53, 68
11, 51000, Note_on_c, 9, 42, 55
11, 51000, Note_on_c, 9, 42, 86
11, 51027, Note_on_c, 9, 42, 0
11, 51033, Note_on_c, 9, 42, 0
11, 51040, Note_on_c, 9, 42, 35
11, 51058, Note_on_c, 9, 42, 0
11, 51080, Note_on_c, 9, 42, 55
11, 51080, Note_on_c, 9, 42, 59
11, 51090, Note_on_c, 9, 53, 0
11, 51102, Note_on_c, 9, 42, 0
11, 51120, Note_on_c, 9, 53, 43
11, 51120, Note_on_c, 9, 42, 55
11, 51123, Note_on_c, 9, 42, 0
11, 51142, Note_on_c, 9, 42, 0
11, 51160, Note_on_c, 9, 42, 51
11, 51178, Note_on_c, 9, 42, 0
11, 51186, Note_on_c, 9, 53, 0
11, 51200, Note_on_c, 9, 42, 51
11, 51200, Note_on_c, 9, 42, 43
11, 51200, Note_on_c, 9, 55, 68
11, 51220, Note_on_c, 9, 42, 0
11, 51222, Note_on_c, 9, 42, 0
11, 51240, Note_on_c, 9, 42, 77
11, 51240, Note_on_c, 9, 42, 77
11, 51262, Note_on_c, 9, 55, 0
11, 51269, Note_on_c, 9, 42, 0
11, 51280, Note_on_c, 9, 42, 27
11, 51280, Note_on_c, 9, 39, 23
11, 51291, Note_on_c, 9, 42, 0
11, 51294, Note_on_c, 9, 42, 0
11, 51299, Note_on_c, 9, 39, 0
11, 51320, Note_on_c, 9, 42, 55
11, 51320, Note_on_c, 9, 42, 59
11, 51320, Note_on_c, 9, 57, 59
11, 51340, Note_on_c, 9, 42, 0
11, 51345, Note_on_c, 9, 42, 0
11, 51360, Note_on_c, 9, 42, 51
11, 51360, Note_on_c, 9, 42, 55
11, 51395, Note_on_c, 9, 42, 0
11, 51399, Note_on_c, 9, 42, 0
11, 51432, Note_on_c, 9, 57, 0
11, 51440, Note_on_c, 9, 42, 59
11, 51462, Note_on_c, 9, 42, 0
11, 51480, Note_on_c, 9, 53, 55
11, 51480, Note_on_c, 9, 42, 68
11, 51547, Note_on_c, 9, 42, 0
11, 51560, Note_on_c, 9, 42, 47
11, 51570, Note_on_c, 9, 53, 0
11, 51578, Note_on_c, 9, 42, 0
11, 51600, Note_on_c, 9, 53, 43
11, 51600, Note_on_c, 9, 42, 43
11, 51631, Note_on_c, 9, 42, 0
11, 51640, Note_on_c, 9, 42, 35
11, 51652, Note_on_c, 9, 42, 0
11, 51680, Note_on_c, 9, 42, 55
11, 51690, Note_on_c, 9, 53, 0
11, 51709, Note_on_c, 9, 42, 0
11, 51720, Note_on_c, 9, 53, 59
11, 51720, Note_on_c, 9, 42, 77
11, 51747, Note_on_c, 9, 42, 0
11, 51760, Note_on_c, 9, 42, 11
11, 51771, Note_on_c, 9, 42, 0
11, 51800, Note_on_c, 9, 42, 55
11, 51807, Note_on_c, 9, 53, 0
11, 51818, Note_on_c, 9, 42, 0
11, 51840, Note_on_c, 9, 42, 51
11, 51840, Note_on_c, 9, 53, 35
11, 51862, Note_on_c, 9, 42, 0
11, 51880, Note_on_c, 9, 42, 43
11, 51896, Note_on_c, 9, 42, 0
11, 51920, Note_on_c, 9, 42, 26
11, 51927, Note_on_c, 9, 53, 0
11, 51942, Note_on_c, 9, 42, 0
11, 51960, Note_on_c, 9, 42, 86
11, 51960, Note_on_c, 9, 53, 68
11, 51982, Note_on_c, 9, 42, 0
11, 52000, Note_on_c, 9, 42, 22
11, 52015, Note_on_c, 9, 42, 0
11, 52038, Note_on_c, 9, 53, 0
11, 52040, Note_on_c, 9, 42, 51
11, 52058, Note_on_c, 9, 42, 0
11, 52080, Note_on_c, 9, 53, 43
11, 52080, Note_on_c, 9, 42, 47
11, 52101, Note_on_c, 9, 42, 0
11, 52120, Note_on_c, 9, 42, 39
11, 52138, Note_on_c, 9, 42, 0
11, 52160, Note_on_c, 9, 42, 35
11, 52179, Note_on_c, 9, 53, 0
11, 52183, Note_on_c, 9, 42, 0
11, 52200, Note_on_c, 9, 53, 59
11, 52200, Note_on_c, 9, 42, 77
11, 52229, Note_on_c, 9, 42, 0
11, 52240, Note_on_c, 9, 42, 20
11, 52255, Note_on_c, 9, 42, 0
11, 52273, Note_on_c, 9, 53, 0
11, 52280, Note_on_c, 9, 42, 35
11, 52300, Note_on_c, 9, 42, 0
11, 52320, Note_on_c, 9, 42, 68
11, 52320, Note_on_c, 9, 57, 55
11, 52368, Note_on_c, 9, 42, 0
11, 52400, Note_on_c, 9, 42, 43
11, 52416, Note_on_c, 9, 57, 0
11, 52420, Note_on_c, 9, 42, 0
11, 52440, Note_on_c, 9, 42, 68
11, 52503, Note_on_c, 9, 42, 0
11, 52520, Note_on_c, 9, 42, 51
11, 52540, Note_on_c, 9, 42, 0
11, 52560, Note_on_c, 9, 42, 59
11, 52560, Note_on_c, 9, 51, 43
11, 52625, Note_on_c, 9, 51, 0
11, 52629, Note_on_c, 9, 42, 0
11, 52640, Note_on_c, 9, 42, 68
11, 52666, Note_on_c, 9, 42, 0
11, 52680, Note_on_c, 9, 42, 68
11, 52680, Note_on_c, 9, 51, 47
11, 52754, Note_on_c, 9, 42, 0
11, 52757, Note_on_c, 9, 51, 0
11, 52760, Note_on_c, 9, 42, 43
11, 52781, Note_on_c, 9, 42, 0
11, 52800, Note_on_c, 9, 42, 31
11, 52800, Note_on_c, 9, 51, 35
11, 52840, Note_on_c, 9, 42, 0
11, 52879, Note_on_c, 9, 51, 0
11, 52880, Note_on_c, 9, 42, 27
11, 52900, Note_on_c, 9, 42, 0
11, 52920, Note_on_c, 9, 51, 51
11, 52920, Note_on_c, 9, 42, 68
11, 52994, Note_on_c, 9, 42, 0
11, 53000, Note_on_c, 9, 42, 59
11, 53008, Note_on_c, 9, 51, 0
11, 53022, Note_on_c, 9, 42, 0
11, 53040, Note_on_c, 9, 51, 35
11, 53040, Note_on_c, 9, 42, 27
11, 53070, Note_on_c, 9, 42, 0
11, 53080, Note_on_c, 9, 42, 11
11, 53088, Note_on_c, 9, 42, 0
11, 53120, Note_on_c, 9, 42, 47
11, 53132, Note_on_c, 9, 51, 0
11, 53150, Note_on_c, 9, 42, 0
11, 53160, Note_on_c, 9, 42, 68
11, 53160, Note_on_c, 9, 51, 55
11, 53179, Note_on_c, 9, 42, 0
11, 53200, Note_on_c, 9, 42, 43
11, 53212, Note_on_c, 9, 42, 0
11, 53232, Note_on_c, 9, 51, 0
11, 53240, Note_on_c, 9, 55, 47
11, 53240, Note_on_c, 9, 42, 55
11, 53258, Note_on_c, 9, 42, 0
11, 53280, Note_on_c, 9, 42, 68
11, 53280, Note_on_c, 9, 57, 39
11, 53291, Note_on_c, 9, 55, 0
11, 53347, Note_on_c, 9, 42, 0
11, 53360, Note_on_c, 9, 42, 68
11, 53372, Note_on_c, 9, 57, 0
11, 53378, Note_on_c, 9, 42, 0
11, 53400, Note_on_c, 9, 42, 59
11, 53400, Note_on_c, 9, 51, 47
11, 53462, Note_on_c, 9, 42, 0
11, 53480, Note_on_c, 9, 42, 68
11, 53489, Note_on_c, 9, 51, 0
11, 53502, Note_on_c, 9, 42, 0
11, 53520, Note_on_c, 9, 42, 43
11, 53520, Note_on_c, 9, 51, 43
11, 53592, Note_on_c, 9, 42, 0
11, 53597, Note_on_c, 9, 51, 0
11, 53600, Note_on_c, 9, 42, 77
11, 53623, Note_on_c, 9, 42, 0
11, 53640, Note_on_c, 9, 51, 59
11, 53640, Note_on_c, 9, 42, 43
11, 53714, Note_on_c, 9, 42, 0
11, 53720, Note_on_c, 9, 42, 68
11, 53722, Note_on_c, 9, 51, 0
11, 53741, Note_on_c, 9, 42, 0
11, 53760, Note_on_c, 9, 51, 35
11, 53760, Note_on_c, 9, 42, 43
11, 53829, Note_on_c, 9, 42, 0
11, 53840, Note_on_c, 9, 42, 68
11, 53844, Note_on_c, 9, 51, 0
11, 53861, Note_on_c, 9, 42, 0
11, 53880, Note_on_c, 9, 51, 51
11, 53880, Note_on_c, 9, 42, 68
11, 53946, Note_on_c, 9, 42, 0
11, 53960, Note_on_c, 9, 42, 55
11, 53963, Note_on_c, 9, 51, 0
11, 53976, Note_on_c, 9, 42, 0
11, 54000, Note_on_c, 9, 51, 35
11, 54000, Note_on_c, 9, 42, 47
11, 54078, Note_on_c, 9, 42, 0
11, 54080, Note_on_c, 9, 46, 86
11, 54081, Note_on_c, 9, 51, 0
11, 54116, Note_on_c, 9, 46, 0
11, 54120, Note_on_c, 9, 51, 59
11, 54120, Note_on_c, 9, 42, 27
11, 54148, Note_on_c, 9, 42, 0
11, 54181, Note_on_c, 9, 51, 0
11, 54200, Note_on_c, 9, 57, 55
11, 54200, Note_on_c, 9, 42, 68
11, 54227, Note_on_c, 9, 42, 0
11, 54240, Note_on_c, 9, 42, 47
11, 54240, Note_on_c, 9, 53, 51
11, 54241, Note_on_c, 9, 57, 0
11, 54267, Note_on_c, 9, 42, 0
11, 54280, Note_on_c, 9, 42, 22
11, 54289, Note_on_c, 9, 42, 0
11, 54311, Note_on_c, 9, 53, 0
11, 54320, Note_on_c, 9, 42, 18
11, 54339, Note_on_c, 9, 42, 0
11, 54360, Note_on_c, 9, 53, 43
11, 54360, Note_on_c, 9, 42, 77
11, 54389, Note_on_c, 9, 42, 0
11, 54400, Note_on_c, 9, 42, 35
11, 54415, Note_on_c, 9, 42, 0
11, 54440, Note_on_c, 9, 42, 43
11, 54449, Note_on_c, 9, 53, 0
11, 54462, Note_on_c, 9, 42, 0
11, 54480, Note_on_c, 9, 53, 51
11, 54480, Note_on_c, 9, 42, 43
11, 54503, Note_on_c, 9, 42, 0
11, 54520, Note_on_c, 9, 42, 47
11, 54542, Note_on_c, 9, 42, 0
11, 54557, Note_on_c, 9, 53, 0
11, 54560, Note_on_c, 9, 42, 27
11, 54577, Note_on_c, 9, 42, 0
11, 54600, Note_on_c, 9, 53, 51
11, 54600, Note_on_c, 9, 42, 77
11, 54634, Note_on_c, 9, 42, 0
11, 54680, Note_on_c, 9, 53, 0
11, 54680, Note_on_c, 9, 42, 59
11, 54694, Note_on_c, 9, 42, 0
11, 54720, Note_on_c, 9, 53, 43
11, 54720, Note_on_c, 9, 42, 55
11, 54747, Note_on_c, 9, 42, 0
11, 54800, Note_on_c, 9, 42, 27
11, 54803, Note_on_c, 9, 53, 0
11, 54820, Note_on_c, 9, 42, 0
11, 54840, Note_on_c, 9, 53, 55
11, 54840, Note_on_c, 9, 42, 86
11, 54909, Note_on_c, 9, 42, 0
11, 54919, Note_on_c, 9, 53, 0
11, 54920, Note_on_c, 9, 42, 68
11, 54945, Note_on_c, 9, 42, 0
11, 54960, Note_on_c, 9, 42, 51
11, 54960, Note_on_c, 9, 53, 51
11, 54985, Note_on_c, 9, 42, 0
11, 55000, Note_on_c, 9, 42, 35
11, 55016, Note_on_c, 9, 42, 0
11, 55040, Note_on_c, 9, 42, 35
11, 55051, Note_on_c, 9, 53, 0
11, 55070, Note_on_c, 9, 42, 0
11, 55080, Note_on_c, 9, 53, 68
11, 55080, Note_on_c, 9, 42, 86
11, 55137, Note_on_c, 9, 42, 0
11, 55150, Note_on_c, 9, 53, 0
11, 55160, Note_on_c, 9, 42, 51
11, 55182, Note_on_c, 9, 42, 0
11, 55200, Note_on_c, 9, 42, 47
11, 55200, Note_on_c, 9, 53, 51
11, 55227, Note_on_c, 9, 42, 0
11, 55240, Note_on_c, 9, 42, 22
11, 55249, Note_on_c, 9, 42, 0
11, 55271, Note_on_c, 9, 53, 0
11, 55280, Note_on_c, 9, 42, 18
11, 55299, Note_on_c, 9, 42, 0
11, 55320, Note_on_c, 9, 53, 43
11, 55320, Note_on_c, 9, 42, 77
11, 55349, Note_on_c, 9, 42, 0
11, 55360, Note_on_c, 9, 42, 35
11, 55375, Note_on_c, 9, 42, 0
11, 55400, Note_on_c, 9, 42, 43
11, 55409, Note_on_c, 9, 53, 0
11, 55422, Note_on_c, 9, 42, 0
11, 55440, Note_on_c, 9, 53, 51
11, 55440, Note_on_c, 9, 42, 43
11, 55463, Note_on_c, 9, 42, 0
11, 55480, Note_on_c, 9, 42, 47
11, 55502, Note_on_c, 9, 42, 0
11, 55517, Note_on_c, 9, 53, 0
11, 55520, Note_on_c, 9, 42, 27
11, 55537, Note_on_c, 9, 42, 0
11, 55560, Note_on_c, 9, 53, 51
11, 55560, Note_on_c, 9, 42, 77
11, 55594, Note_on_c, 9, 42, 0
11, 55640, Note_on_c, 9, 53, 0
11, 55640, Note_on_c, 9, 42, 59
11, 55654, Note_on_c, 9, 42, 0
11, 55680, Note_on_c, 9, 53, 43
11, 55680, Note_on_c, 9, 42, 55
11, 55707, Note_on_c, 9, 42, 0
11, 55760, Note_on_c, 9, 42, 27
11, 55763, Note_on_c, 9, 53, 0
11, 55780, Note_on_c, 9, 42, 0
11, 55800, Note_on_c, 9, 53, 55
11, 55800, Note_on_c, 9, 42, 86
11, 55869, Note_on_c, 9, 42, 0
11, 55879, Note_on_c, 9, 53, 0
11, 55880, Note_on_c, 9, 42, 68
11, 55905, Note_on_c, 9, 42, 0
11, 55920, Note_on_c, 9, 42, 51
11, 55920, Note_on_c, 9, 53, 51
11, 55945, Note_on_c, 9, 42, 0
11, 55960, Note_on_c, 9, 42, 35
11, 55976, Note_on_c, 9, 42, 0
11, 56000, Note_on_c, 9, 42, 35
11, 56011, Note_on_c, 9, 53, 0
11, 56030, Note_on_c, 9, 42, 0
11, 56040, Note_on_c, 9, 53, 68
11, 56040, Note_on_c, 9, 42, 86
11, 56097, Note_on_c, 9, 42, 0
11, 56110, Note_on_c, 9, 53, 0
11, 56120, Note_on_c, 9, 42, 51
11, 56142, Note_on_c, 9, 42, 0
11, 56158, Note_on_c, 9, 55, 39
11, 56158, Note_on_c, 9, 51, 47
11, 56158, Note_on_c, 9, 42, 68
11, 56210, Note_on_c, 9, 42, 0
11, 56228, Note_on_c, 9, 51, 0
11, 56238, Note_on_c, 9, 42, 77
11, 56245, Note_on_c, 9, 55, 0
11, 56266, Note_on_c, 9, 42, 0
11, 56278, Note_on_c, 9, 51, 59
11, 56278, Note_on_c, 9, 42, 86
11, 56323, Note_on_c, 9, 42, 0
11, 56358, Note_on_c, 9, 42, 59
11, 56365, Note_on_c, 9, 51, 0
11, 56382, Note_on_c, 9, 42, 0
11, 56398, Note_on_c, 9, 42, 51
11, 56398, Note_on_c, 9, 51, 55
11, 56450, Note_on_c, 9, 42, 0
11, 56478, Note_on_c, 9, 42, 68
11, 56486, Note_on_c, 9, 51, 0
11, 56509, Note_on_c, 9, 42, 0
11, 56518, Note_on_c, 9, 51, 68
11, 56518, Note_on_c, 9, 42, 77
11, 56573, Note_on_c, 9, 42, 0
11, 56598, Note_on_c, 9, 42, 68
11, 56606, Note_on_c, 9, 51, 0
11, 56621, Note_on_c, 9, 42, 0
11, 56638, Note_on_c, 9, 51, 51
11, 56638, Note_on_c, 9, 42, 59
11, 56665, Note_on_c, 9, 42, 0
11, 56678, Note_on_c, 9, 42, 43
11, 56692, Note_on_c, 9, 42, 0
11, 56718, Note_on_c, 9, 42, 55
11, 56724, Note_on_c, 9, 51, 0
11, 56745, Note_on_c, 9, 42, 0
11, 56758, Note_on_c, 9, 51, 68
11, 56758, Note_on_c, 9, 42, 68
11, 56815, Note_on_c, 9, 42, 0
11, 56823, Note_on_c, 9, 51, 0
11, 56838, Note_on_c, 9, 42, 59
11, 56838, Note_on_c, 9, 51, 11
11, 56839, Note_on_c, 9, 51, 0
11, 56863, Note_on_c, 9, 42, 0
11, 56878, Note_on_c, 9, 51, 55
11, 56878, Note_on_c, 9, 42, 59
11, 56946, Note_on_c, 9, 42, 0
11, 56958, Note_on_c, 9, 46, 86
11, 56968, Note_on_c, 9, 51, 0
11, 56990, Note_on_c, 9, 46, 0
11, 56998, Note_on_c, 9, 51, 59
11, 56998, Note_on_c, 9, 42, 51
11, 57021, Note_on_c, 9, 42, 0
11, 57078, Note_on_c, 9, 42, 68
11, 57090, Note_on_c, 9, 51, 0
11, 57108, Note_on_c, 9, 42, 0
11, 57118, Note_on_c, 9, 57, 51
11, 57118, Note_on_c, 9, 42, 11
11, 57120, Note_on_c, 9, 42, 47
11, 57120, Note_on_c, 9, 53, 51
11, 57134, Note_on_c, 9, 42, 0
11, 57147, Note_on_c, 9, 42, 0
11, 57160, Note_on_c, 9, 42, 22
11, 57169, Note_on_c, 9, 42, 0
11, 57191, Note_on_c, 9, 53, 0
11, 57195, Note_on_c, 9, 57, 0
11, 57200, Note_on_c, 9, 42, 18
11, 57219, Note_on_c, 9, 42, 0
11, 57240, Note_on_c, 9, 53, 43
11, 57240, Note_on_c, 9, 42, 77
11, 57269, Note_on_c, 9, 42, 0
11, 57280, Note_on_c, 9, 42, 35
11, 57295, Note_on_c, 9, 42, 0
11, 57320, Note_on_c, 9, 42, 43
11, 57329, Note_on_c, 9, 53, 0
11, 57342, Note_on_c, 9, 42, 0
11, 57360, Note_on_c, 9, 53, 51
11, 57360, Note_on_c, 9, 42, 43
11, 57383, Note_on_c, 9, 42, 0
11, 57400, Note_on_c, 9, 42, 47
11, 57422, Note_on_c, 9, 42, 0
11, 57437, Note_on_c, 9, 53, 0
11, 57440, Note_on_c, 9, 42, 27
11, 57457, Note_on_c, 9, 42, 0
11, 57480, Note_on_c, 9, 53, 51
11, 57480, Note_on_c, 9, 42, 77
11, 57514, Note_on_c, 9, 42, 0
11, 57560, Note_on_c, 9, 53, 0
11, 57560, Note_on_c, 9, 42, 59
11, 57574, Note_on_c, 9, 42, 0
11, 57600, Note_on_c, 9, 53, 43
11, 57600, Note_on_c, 9, 42, 55
11, 57627, Note_on_c, 9, 42, 0
11, 57680, Note_on_c, 9, 42, 27
11, 57683, Note_on_c, 9, 53, 0
11, 57700, Note_on_c, 9, 42, 0
11, 57720, Note_on_c, 9, 53, 55
11, 57720, Note_on_c, 9, 42, 86
11, 57789, Note_on_c, 9, 42, 0
11, 57799, Note_on_c, 9, 53, 0
11, 57800, Note_on_c, 9, 42, 68
11, 57825, Note_on_c, 9, 42, 0
11, 57840, Note_on_c, 9, 42, 51
11, 57840, Note_on_c, 9, 53, 51
11, 57865, Note_on_c, 9, 42, 0
11, 57880, Note_on_c, 9, 42, 35
11, 57896, Note_on_c, 9, 42, 0
11, 57920, Note_on_c, 9, 42, 35
11, 57931, Note_on_c, 9, 53, 0
11, 57950, Note_on_c, 9, 42, 0
11, 57960, Note_on_c, 9, 53, 68
11, 57960, Note_on_c, 9, 42, 86
11, 58017, Note_on_c, 9, 42, 0
11, 58030, Note_on_c, 9, 53, 0
11, 58040, Note_on_c, 9, 42, 51
11, 58062, Note_on_c, 9, 42, 0
11, 58080, Note_on_c, 9, 42, 47
11, 58080, Note_on_c, 9, 53, 51
11, 58107, Note_on_c, 9, 42, 0
11, 58120, Note_on_c, 9, 42, 22
11, 58129, Note_on_c, 9, 42, 0
11, 58151, Note_on_c, 9, 53, 0
11, 58160, Note_on_c, 9, 42, 18
11, 58179, Note_on_c, 9, 42, 0
11, 58200, Note_on_c, 9, 53, 43
11, 58200, Note_on_c, 9, 42, 77
11, 58229, Note_on_c, 9, 42, 0
11, 58240, Note_on_c, 9, 42, 35
11, 58255, Note_on_c, 9, 42, 0
11, 58280, Note_on_c, 9, 42, 43
11, 58289, Note_on_c, 9, 53, 0
11, 58302, Note_on_c, 9, 42, 0
11, 58320, Note_on_c, 9, 53, 51
11, 58320, Note_on_c, 9, 42, 43
11, 58343, Note_on_c, 9, 42, 0
11, 58360, Note_on_c, 9, 42, 47
11, 58382, Note_on_c, 9, 42, 0
11, 58397, Note_on_c, 9, 53, 0
11, 58400, Note_on_c, 9, 42, 27
11, 58417, Note_on_c, 9, 42, 0
11, 58440, Note_on_c, 9, 53, 51
11, 58440, Note_on_c, 9, 42, 77
11, 58474, Note_on_c, 9, 42, 0
11, 58520, Note_on_c, 9, 53, 0
11, 58520, Note_on_c, 9, 42, 59
11, 58534, Note_on_c, 9, 42, 0
11, 58560, Note_on_c, 9, 53, 43
11, 58560, Note_on_c, 9, 42, 55
11, 58587, Note_on_c, 9, 42, 0
11, 58640, Note_on_c, 9, 42, 27
11, 58643, Note_on_c, 9, 53, 0
11, 58660, Note_on_c, 9, 42, 0
11, 58680, Note_on_c, 9, 53, 55
11, 58680, Note_on_c, 9, 42, 86
11, 58749, Note_on_c, 9, 42, 0
11, 58759, Note_on_c, 9, 53, 0
11, 58760, Note_on_c, 9, 42, 68
11, 58785, Note_on_c, 9, 42, 0
11, 58800, Note_on_c, 9, 42, 51
11, 58800, Note_on_c, 9, 53, 51
11, 58825, Note_on_c, 9, 42, 0
11, 58840, Note_on_c, 9, 42, 35
11, 58856, Note_on_c, 9, 42, 0
11, 58880, Note_on_c, 9, 42, 35
11, 58891, Note_on_c, 9, 53, 0
11, 58910, Note_on_c, 9, 42, 0
11, 58920, Note_on_c, 9, 53, 68
11, 58920, Note_on_c, 9, 42, 86
11, 58977, Note_on_c, 9, 42, 0
11, 58990, Note_on_c, 9, 53, 0
11, 59000, Note_on_c, 9, 42, 51
11, 59022, Note_on_c, 9, 42, 0
11, 59038, Note_on_c, 9, 55, 39
11, 59038, Note_on_c, 9, 51, 47
11, 59038, Note_on_c, 9, 42, 68
11, 59090, Note_on_c, 9, 42, 0
11, 59108, Note_on_c, 9, 51, 0
11, 59118, Note_on_c, 9, 42, 77
11, 59125, Note_on_c, 9, 55, 0
11, 59146, Note_on_c, 9, 42, 0
11, 59158, Note_on_c, 9, 51, 59
11, 59158, Note_on_c, 9, 42, 86
11, 59203, Note_on_c, 9, 42, 0
11, 59238, Note_on_c, 9, 42, 59
11, 59245, Note_on_c, 9, 51, 0
11, 59262, Note_on_c, 9, 42, 0
11, 59278, Note_on_c, 9, 42, 51
11, 59278, Note_on_c, 9, 51, 55
11, 59330, Note_on_c, 9, 42, 0
11, 59358, Note_on_c, 9, 42, 68
11, 59366, Note_on_c, 9, 51, 0
11, 59389, Note_on_c, 9, 42, 0
11, 59398, Note_on_c, 9, 51, 68
11, 59398, Note_on_c, 9, 42, 77
11, 59453, Note_on_c, 9, 42, 0
11, 59478, Note_on_c, 9, 42, 68
11, 59486, Note_on_c, 9, 51, 0
11, 59501, Note_on_c, 9, 42, 0
11, 59518, Note_on_c, 9, 51, 51
11, 59518, Note_on_c, 9, 42, 59
11, 59545, Note_on_c, 9, 42, 0
11, 59558, Note_on_c, 9, 42, 43
11, 59572, Note_on_c, 9, 42, 0
11, 59598, Note_on_c, 9, 42, 55
11, 59604, Note_on_c, 9, 51, 0
11, 59625, Note_on_c, 9, 42, 0
11, 59638, Note_on_c, 9, 51, 68
11, 59638, Note_on_c, 9, 42, 68
11, 59695, Note_on_c, 9, 42, 0
11, 59703, Note_on_c, 9, 51, 0
11, 59718, Note_on_c, 9, 42, 59
11, 59718, Note_on_c, 9, 51, 11
11, 59719, Note_on_c, 9, 51, 0
11, 59743, Note_on_c, 9, 42, 0
11, 59758, Note_on_c, 9, 51, 55
11, 59758, Note_on_c, 9, 42, 59
11, 59826, Note_on_c, 9, 42, 0
11, 59838, Note_on_c, 9, 46, 86
11, 59848, Note_on_c, 9, 51, 0
11, 59870, Note_on_c, 9, 46, 0
11, 59878, Note_on_c, 9, 51, 59
11, 59878, Note_on_c, 9, 42, 51
11, 59901, Note_on_c, 9, 42, 0
11, 59958, Note_on_c, 9, 42, 68
11, 59970, Note_on_c, 9, 51, 0
11, 59988, Note_on_c, 9, 42, 0
11, 59998, Note_on_c, 9, 57, 51
11, 59998, Note_on_c, 9, 42, 11
11, 60000, Note_on_c, 9, 42, 47
11, 60000, Note_on_c, 9, 53, 51
11, 60014, Note_on_c, 9, 42, 0
11, 60027, Note_on_c, 9, 42, 0
11, 60040, Note_on_c, 9, 42, 22
11, 60049, Note_on_c, 9, 42, 0
11, 60071, Note_on_c, 9, 53, 0
11, 60075, Note_on_c, 9, 57, 0
11, 60080, Note_on_c, 9, 42, 18
11, 60099, Note_on_c, 9, 42, 0
11, 60120, Note_on_c, 9, 53, 43
11, 60120, Note_on_c, 9, 42, 77
11, 60149, Note_on_c, 9, 42, 0
11, 60160, Note_on_c, 9, 42, 35
11, 60175, Note_on_c, 9, 42, 0
11, 60200, Note_on_c, 9, 42, 43
11, 60209, Note_on_c, 9, 53, 0
11, 60222, Note_on_c, 9, 42, 0
11, 60240, Note_on_c, 9, 53, 51
11, 60240, Note_on_c, 9, 42, 43
11, 60263, Note_on_c, 9, 42, 0
11, 60280, Note_on_c, 9, 42, 47
11, 60302, Note_on_c, 9, 42, 0
11, 60317, Note_on_c, 9, 53, 0
11, 60320, Note_on_c, 9, 42, 27
11, 60337, Note_on_c, 9, 42, 0
11, 60360, Note_on_c, 9, 53, 51
11, 60360, Note_on_c, 9, 42, 77
11, 60394, Note_on_c, 9, 42, 0
11, 60440, Note_on_c, 9, 53, 0
11, 60440, Note_on_c, 9, 42, 59
11, 60454, Note_on_c, 9, 42, 0
11, 60480, Note_on_c, 9, 53, 43
11, 60480, Note_on_c, 9, 42, 55
11, 60507, Note_on_c, 9, 42, 0
11, 60560, Note_on_c, 9, 42, 27
11, 60563, Note_on_c, 9, 53, 0
11, 60580, Note_on_c, 9, 42, 0
11, 60600, Note_on_c, 9, 53, 55
11, 60600, Note_on_c, 9, 42, 86
11, 60669, Note_on_c, 9, 42, 0
11, 60679, Note_on_c, 9, 53, 0
11, 60680, Note_on_c, 9, 42, 68
11, 60705, Note_on_c, 9, 42, 0
11, 60720, Note_on_c, 9, 42, 51
11, 60720, Note_on_c, 9, 53, 51
11, 60745, Note_on_c, 9, 42, 0
11, 60760, Note_on_c, 9, 42, 35
11, 60776, Note_on_c, 9, 42, 0
11, 60800, Note_on_c, 9, 42, 35
11, 60811, Note_on_c, 9, 53, 0
11, 60830, Note_on_c, 9, 42, 0
11, 60840, Note_on_c, 9, 53, 68
11, 60840, Note_on_c, 9, 42, 86
11, 60897, Note_on_c, 9, 42, 0
11, 60910, Note_on_c, 9, 53, 0
11, 60920, Note_on_c, 9, 42, 51
11, 60942, Note_on_c, 9, 42, 0
11, 60960, Note_on_c, 9, 42, 47
11, 60960, Note_on_c, 9, 53, 51
11, 60987, Note_on_c, 9, 42, 0
11, 61000, Note_on_c, 9, 42, 22
11, 61009, Note_on_c, 9, 42, 0
11, 61031, Note_on_c, 9, 53, 0
11, 61040, Note_on_c, 9, 42, 18
11, 61059, Note_on_c, 9, 42, 0
11, 61080, Note_on_c, 9, 53, 43
11, 61080, Note_on_c, 9, 42, 77
11, 61109, Note_on_c, 9, 42, 0
11, 61120, Note_on_c, 9, 42, 35
11, 61135, Note_on_c, 9, 42, 0
11, 61160, Note_on_c, 9, 42, 43
11, 61169, Note_on_c, 9, 53, 0
11, 61182, Note_on_c, 9, 42, 0
11, 61200, Note_on_c, 9, 53, 51
11, 61200, Note_on_c, 9, 42, 43
11, 61223, Note_on_c, 9, 42, 0
11, 61240, Note_on_c, 9, 42, 47
11, 61262, Note_on_c, 9, 42, 0
11, 61277, Note_on_c, 9, 53, 0
11, 61280, Note_on_c, 9, 42, 27
11, 61297, Note_on_c, 9, 42, 0
11, 61320, Note_on_c, 9, 53, 51
11, 61320, Note_on_c, 9, 42, 77
11, 61354, Note_on_c, 9, 42, 0
11, 61400, Note_on_c, 9, 53, 0
11, 61400, Note_on_c, 9, 42, 59
11, 61414, Note_on_c, 9, 42, 0
11, 61440, Note_on_c, 9, 53, 43
11, 61440, Note_on_c, 9, 42, 55
11, 61467, Note_on_c, 9, 42, 0
11, 61520, Note_on_c, 9, 42, 27
11, 61523, Note_on_c, 9, 53, 0
11, 61540, Note_on_c, 9, 42, 0
11, 61560, Note_on_c, 9, 53, 55
11, 61560, Note_on_c, 9, 42, 86
11, 61629, Note_on_c, 9, 42, 0
11, 61639, Note_on_c, 9, 53, 0
11, 61640, Note_on_c, 9, 42, 68
11, 61665, Note_on_c, 9, 42, 0
11, 61680, Note_on_c, 9, 42, 51
11, 61680, Note_on_c, 9, 53, 51
11, 61705, Note_on_c, 9, 42, 0
11, 61720, Note_on_c, 9, 42, 35
11, 61736, Note_on_c, 9, 42, 0
11, 61760, Note_on_c, 9, 42, 35
11, 61771, Note_on_c, 9, 53, 0
11, 61790, Note_on_c, 9, 42, 0
11, 61800, Note_on_c, 9, 53, 68
11, 61800, Note_on_c, 9, 42, 86
11, 61857, Note_on_c, 9, 42, 0
11, 61870, Note_on_c, 9, 53, 0
11, 61880, Note_on_c, 9, 42, 51
11, 61902, Note_on_c, 9, 42, 0
11, 61918, Note_on_c, 9, 55, 39
11, 61918, Note_on_c, 9, 51, 47
11, 61918, Note_on_c, 9, 42, 68
11, 61970, Note_on_c, 9, 42, 0
11, 61988, Note_on_c, 9, 51, 0
11, 61998, Note_on_c, 9, 42, 77
11, 62005, Note_on_c, 9, 55, 0
11, 62026, Note_on_c, 9, 42, 0
11, 62038, Note_on_c, 9, 51, 59
11, 62038, Note_on_c, 9, 42, 86
11, 62083, Note_on_c, 9, 42, 0
11, 62118, Note_on_c, 9, 42, 59
11, 62125, Note_on_c, 9, 51, 0
11, 62142, Note_on_c, 9, 42, 0
11, 62158, Note_on_c, 9, 42, 51
11, 62158, Note_on_c, 9, 51, 55
11, 62210, Note_on_c, 9, 42, 0
11, 62238, Note_on_c, 9, 42, 68
11, 62246, Note_on_c, 9, 51, 0
11, 62269, Note_on_c, 9, 42, 0
11, 62278, Note_on_c, 9, 51, 68
11, 62278, Note_on_c, 9, 42, 77
11, 62333, Note_on_c, 9, 42, 0
11, 62358, Note_on_c, 9, 42, 68
11, 62366, Note_on_c, 9, 51, 0
11, 62381, Note_on_c, 9, 42, 0
11, 62398, Note_on_c, 9, 51, 51
11, 62398, Note_on_c, 9, 42, 59
11, 62425, Note_on_c, 9, 42, 0
11, 62438, Note_on_c, 9, 42, 43
11, 62452, Note_on_c, 9, 42, 0
11, 62478, Note_on_c, 9, 42, 55
11, 62484, Note_on_c, 9, 51, 0
11, 62505, Note_on_c, 9, 42, 0
11, 62518, Note_on_c, 9, 51, 68
11, 62518, Note_on_c, 9, 42, 68
11, 62575, Note_on_c, 9, 42, 0
11, 62583, Note_on_c, 9, 51, 0
11, 62598, Note_on_c, 9, 42, 59
11, 62598, Note_on_c, 9, 51, 11
11, 62599, Note_on_c, 9, 51, 0
11, 62623, Note_on_c, 9, 42, 0
11, 62638, Note_on_c, 9, 51, 55
11, 62638, Note_on_c, 9, 42, 59
11, 62706, Note_on_c, 9, 42, 0
11, 62718, Note_on_c, 9, 46, 86
11, 62728, Note_on_c, 9, 51, 0
11, 62750, Note_on_c, 9, 46, 0
11, 62758, Note_on_c, 9, 51, 59
11, 62758, Note_on_c, 9, 42, 51
11, 62781, Note_on_c, 9, 42, 0
11, 62838, Note_on_c, 9, 42, 68
11, 62850, Note_on_c, 9, 51, 0
11, 62868, Note_on_c, 9, 42, 0
11, 62878, Note_on_c, 9, 57, 51
11, 62878, Note_on_c, 9, 42, 11
11, 62880, Note_on_c, 9, 42, 47
11, 62880, Note_on_c, 9, 53, 51
11, 62894, Note_on_c, 9, 42, 0
11, 62907, Note_on_c, 9, 42, 0
11, 62920, Note_on_c, 9, 42, 22
11, 62929, Note_on_c, 9, 42, 0
11, 62951, Note_on_c, 9, 53, 0
11, 62955, Note_on_c, 9, 57, 0
11, 62960, Note_on_c, 9, 42, 18
11, 62979, Note_on_c, 9, 42, 0
11, 63000, Note_on_c, 9, 53, 43
11, 63000, Note_on_c, 9, 42, 77
11, 63029, Note_on_c, 9, 42, 0
11, 63040, Note_on_c, 9, 42, 35
11, 63055, Note_on_c, 9, 42, 0
11, 63080, Note_on_c, 9, 42, 43
11, 63089, Note_on_c, 9, 53, 0
11, 63102, Note_on_c, 9, 42, 0
11, 63120, Note_on_c, 9, 53, 51
11, 63120, Note_on_c, 9, 42, 43
11, 63143, Note_on_c, 9, 42, 0
11, 63160, Note_on_c, 9, 42, 47
11, 63182, Note_on_c, 9, 42, 0
11, 63197, Note_on_c, 9, 53, 0
11, 63200, Note_on_c, 9, 42, 27
11, 63217, Note_on_c, 9, 42, 0
11, 63240, Note_on_c, 9, 53, 51
11, 63240, Note_on_c, 9, 42, 77
11, 63274, Note_on_c, 9, 42, 0
11, 63320, Note_on_c, 9, 53, 0
11, 63320, Note_on_c, 9, 42, 59
11, 63334, Note_on_c, 9, 42, 0
11, 63360, Note_on_c, 9, 53, 43
11, 63360, Note_on_c, 9, 42, 55
11, 63387, Note_on_c, 9, 42, 0
11, 63440, Note_on_c, 9, 42, 27
11, 63443, Note_on_c, 9, 53, 0
11, 63460, Note_on_c, 9, 42, 0
11, 63480, Note_on_c, 9, 53, 55
11, 63480, Note_on_c, 9, 42, 86
11, 63549, Note_on_c, 9, 42, 0
11, 63559, Note_on_c, 9, 53, 0
11, 63560, Note_on_c, 9, 42, 68
11, 63585, Note_on_c, 9, 42, 0
11, 63600, Note_on_c, 9, 42, 51
11, 63600, Note_on_c, 9, 53, 51
11, 63625, Note_on_c, 9, 42, 0
11, 63640, Note_on_c, 9, 42, 35
11, 63656, Note_on_c, 9, 42, 0
11, 63680, Note_on_c, 9, 42, 35
11, 63691, Note_on_c, 9, 53, 0
11, 63710, Note_on_c, 9, 42, 0
11, 63720, Note_on_c, 9, 53, 68
11, 63720, Note_on_c, 9, 42, 86
11, 63777, Note_on_c, 9, 42, 0
11, 63790, Note_on_c, 9, 53, 0
11, 63800, Note_on_c, 9, 42, 51
11, 63822, Note_on_c, 9, 42, 0
11, 63840, Note_on_c, 9, 42, 47
11, 63840, Note_on_c, 9, 53, 51
11, 63867, Note_on_c, 9, 42, 0
11, 63880, Note_on_c, 9, 42, 22
11, 63889, Note_on_c, 9, 42, 0
11, 63911, Note_on_c, 9, 53, 0
11, 63920, Note_on_c, 9, 42, 18
11, 63939, Note_on_c, 9, 42, 0
11, 63960, Note_on_c, 9, 53, 43
11, 63960, Note_on_c, 9, 42, 77
11, 63989, Note_on_c, 9, 42, 0
11, 64000, Note_on_c, 9, 42, 35
11, 64015, Note_on_c, 9, 42, 0
11, 64040, Note_on_c, 9, 42, 43
11, 64049, Note_on_c, 9, 53, 0
11, 64062, Note_on_c, 9, 42, 0
11, 64080, Note_on_c, 9, 53, 51
11, 64080, Note_on_c, 9, 42, 43
11, 64103, Note_on_c, 9, 42, 0
11, 64120, Note_on_c, 9, 42, 47
11, 64142, Note_on_c, 9, 42, 0
11, 64157, Note_on_c, 9, 53, 0
11, 64160, Note_on_c, 9, 42, 27
11, 64177, Note_on_c, 9, 42, 0
11, 64200, Note_on_c, 9, 53, 51
11, 64200, Note_on_c, 9, 42, 77
11, 64234, Note_on_c, 9, 42, 0
11, 64280, Note_on_c, 9, 53, 0
11, 64280, Note_on_c, 9, 42, 59
11, 64294, Note_on_c, 9, 42, 0
11, 64320, Note_on_c, 9, 53, 43
11, 64320, Note_on_c, 9, 42, 55
11, 64347, Note_on_c, 9, 42, 0
11, 64400, Note_on_c, 9, 42, 27
11, 64403, Note_on_c, 9, 53, 0
11, 64420, Note_on_c, 9, 42, 0
11, 64440, Note_on_c, 9, 53, 55
11, 64440, Note_on_c, 9, 42, 86
11, 64509, Note_on_c, 9, 42, 0
11, 64519, Note_on_c, 9, 53, 0
11, 64520, Note_on_c, 9, 42, 68
11, 64545, Note_on_c, 9, 42, 0
11, 64560, Note_on_c, 9, 42, 51
11, 64560, Note_on_c, 9, 53, 51
11, 64585, Note_on_c, 9, 42, 0
11, 64600, Note_on_c, 9, 42, 35
11, 64616, Note_on_c, 9, 42, 0
11, 64640, Note_on_c, 9, 42, 35
11, 64651, Note_on_c, 9, 53, 0
11, 64670, Note_on_c, 9, 42, 0
11, 64680, Note_on_c, 9, 53, 68
11, 64680, Note_on_c, 9, 42, 86
11, 64737, Note_on_c, 9, 42, 0
11, 64750, Note_on_c, 9, 53, 0
11, 64760, Note_on_c, 9, 42, 51
11, 64782, Note_on_c, 9, 42, 0
11, 64798, Note_on_c, 9, 55, 39
11, 64798, Note_on_c, 9, 51, 47
11, 64798, Note_on_c, 9, 42, 68
11, 64850, Note_on_c, 9, 42, 0
11, 64868, Note_on_c, 9, 51, 0
11, 64878, Note_on_c, 9, 42, 77
11, 64885, Note_on_c, 9, 55, 0
11, 64906, Note_on_c, 9, 42, 0
11, 64918, Note_on_c, 9, 51, 59
11, 64918, Note_on_c, 9, 42, 86
11, 64963, Note_on_c, 9, 42, 0
11, 64998, Note_on_c, 9, 42, 59
11, 65005, Note_on_c, 9, 51, 0
11, 65022, Note_on_c, 9, 42, 0
11, 65038, Note_on_c, 9, 42, 51
11, 65038, Note_on_c, 9, 51, 55
11, 65090, Note_on_c, 9, 42, 0
11, 65118, Note_on_c, 9, 42, 68
11, 65126, Note_on_c, 9, 51, 0
11, 65149, Note_on_c, 9, 42, 0
11, 65158, Note_on_c, 9, 51, 68
11, 65158, Note_on_c, 9, 42, 77
11, 65213, Note_on_c, 9, 42, 0
11, 65238, Note_on_c, 9, 42, 68
11, 65246, Note_on_c, 9, 51, 0
11, 65261, Note_on_c, 9, 42, 0
11, 65278, Note_on_c, 9, 51, 51
11, 65278, Note_on_c, 9, 42, 59
11, 65305, Note_on_c, 9, 42, 0
11, 65318, Note_on_c, 9, 42, 43
11, 65332, Note_on_c, 9, 42, 0
11, 65358, Note_on_c, 9, 42, 55
11, 65364, Note_on_c, 9, 51, 0
11, 65385, Note_on_c, 9, 42, 0
11, 65398, Note_on_c, 9, 51, 68
11, 65398, Note_on_c, 9, 42, 68
11, 65455, Note_on_c, 9, 42, 0
11, 65463, Note_on_c, 9, 51, 0
11, 65478, Note_on_c, 9, 42, 59
11, 65478, Note_on_c, 9, 51, 11
11, 65479, Note_on_c, 9, 51, 0
11, 65503, Note_on_c, 9, 42, 0
11, 65518, Note_on_c, 9, 51, 55
11, 65518, Note_on_c, 9, 42, 59
11, 65586, Note_on_c, 9, 42, 0
11, 65598, Note_on_c, 9, 46, 86
11, 65608, Note_on_c, 9, 51, 0
11, 65630, Note_on_c, 9, 46, 0
11, 65638, Note_on_c, 9, 51, 59
11, 65638, Note_on_c, 9, 42, 51
11, 65661, Note_on_c, 9, 42, 0
11, 65718, Note_on_c, 9, 42, 68
11, 65730, Note_on_c, 9, 51, 0
11, 65748, Note_on_c, 9, 42, 0
11, 65758, Note_on_c, 9, 57, 51
11, 65758, Note_on_c, 9, 42, 11
11, 65760, Note_on_c, 9, 42, 47
11, 65760, Note_on_c, 9, 53, 51
11, 65774, Note_on_c, 9, 42, 0
11, 65787, Note_on_c, 9, 42, 0
11, 65800, Note_on_c, 9, 42, 22
11, 65809, Note_on_c, 9, 42, 0
11, 65831, Note_on_c, 9, 53, 0
11, 65835, Note_on_c, 9, 57, 0
11, 65840, Note_on_c, 9, 42, 18
11, 65859, Note_on_c, 9, 42, 0
11, 65880, Note_on_c, 9, 53, 43
11, 65880, Note_on_c, 9, 42, 77
11, 65909, Note_on_c, 9, 42, 0
11, 65920, Note_on_c, 9, 42, 35
11, 65935, Note_on_c, 9, 42, 0
11, 65960, Note_on_c, 9, 42, 43
11, 65969, Note_on_c, 9, 53, 0
11, 65982, Note_on_c, 9, 42, 0
11, 66000, Note_on_c, 9, 53, 51
11, 66000, Note_on_c, 9, 42, 43
11, 66023, Note_on_c, 9, 42, 0
11, 66040, Note_on_c, 9, 42, 47
11, 66062, Note_on_c, 9, 42, 0
11, 66077, Note_on_c, 9, 53, 0
11, 66080, Note_on_c, 9, 42, 27
11, 66097, Note_on_c, 9, 42, 0
11, 66120, Note_on_c, 9, 53, 51
11, 66120, Note_on_c, 9, 42, 77
11, 66154, Note_on_c, 9, 42, 0
11, 66200, Note_on_c, 9, 53, 0
11, 66200, Note_on_c, 9, 42, 59
11, 66214, Note_on_c, 9, 42, 0
11, 66240, Note_on_c, 9, 53, 43
11, 66240, Note_on_c, 9, 42, 55
11, 66267, Note_on_c, 9, 42, 0
11, 66320, Note_on_c, 9, 42, 27
11, 66323, Note_on_c, 9, 53, 0
11, 66340, Note_on_c, 9, 42, 0
11, 66360, Note_on_c, 9, 53, 55
11, 66360, Note_on_c, 9, 42, 86
11, 66429, Note_on_c, 9, 42, 0
11, 66439, Note_on_c, 9, 53, 0
11, 66440, Note_on_c, 9, 42, 68
11, 66465, Note_on_c, 9, 42, 0
11, 66480, Note_on_c, 9, 42, 51
11, 66480, Note_on_c, 9, 53, 51
11, 66505, Note_on_c, 9, 42, 0
11, 66520, Note_on_c, 9, 42, 35
11, 66536, Note_on_c, 9, 42, 0
11, 66560, Note_on_c, 9, 42, 35
11, 66571, Note_on_c, 9, 53, 0
11, 66590, Note_on_c, 9, 42, 0
11, 66600, Note_on_c, 9, 53, 68
11, 66600, Note_on_c, 9, 42, 86
11, 66657, Note_on_c, 9, 42, 0
11, 66670, Note_on_c, 9, 53, 0
11, 66680, Note_on_c, 9, 42, 51
11, 66702, Note_on_c, 9, 42, 0
11, 66720, Note_on_c, 9, 42, 47
11, 66720, Note_on_c, 9, 53, 51
11, 66747, Note_on_c, 9, 42, 0
11, 66760, Note_on_c, 9, 42, 22
11, 66769, Note_on_c, 9, 42, 0
11, 66791, Note_on_c, 9, 53, 0
11, 66800, Note_on_c, 9, 42, 18
11, 66819, Note_on_c, 9, 42, 0
11, 66840, Note_on_c, 9, 53, 43
11, 66840, Note_on_c, 9, 42, 77
11, 66869, Note_on_c, 9, 42, 0
11, 66880, Note_on_c, 9, 42, 35
11, 66895, Note_on_c, 9, 42, 0
11, 66920, Note_on_c, 9, 42, 43
11, 66929, Note_on_c, 9, 53, 0
11, 66942, Note_on_c, 9, 42, 0
11, 66960, Note_on_c, 9, 53, 51
11, 66960, Note_on_c, 9, 42, 43
11, 66983, Note_on_c, 9, 42, 0
11, 67000, Note_on_c, 9, 42, 47
11, 67022, Note_on_c, 9, 42, 0
11, 67037, Note_on_c, 9, 53, 0
11, 67040, Note_on_c, 9, 42, 27
11, 67057, Note_on_c, 9, 42, 0
11, 67080, Note_on_c, 9, 53, 51
11, 67080, Note_on_c, 9, 42, 77
11, 67114, Note_on_c, 9, 42, 0
11, 67160, Note_on_c, 9, 53, 0
11, 67160, Note_on_c, 9, 42, 59
11, 67174, Note_on_c, 9, 42, 0
11, 67200, Note_on_c, 9, 53, 43
11, 67200, Note_on_c, 9, 42, 55
11, 67227, Note_on_c, 9, 42, 0
11, 67280, Note_on_c, 9, 42, 27
11, 67283, Note_on_c, 9, 53, 0
11, 67300, Note_on_c, 9, 42, 0
11, 67320, Note_on_c, 9, 53, 55
11, 67320, Note_on_c, 9, 42, 86
11, 67389, Note_on_c, 9, 42, 0
11, 67399, Note_on_c, 9, 53, 0
11, 67400, Note_on_c, 9, 42, 68
11, 67425, Note_on_c, 9, 42, 0
11, 67440, Note_on_c, 9, 42, 51
11, 67440, Note_on_c, 9, 53, 51
11, 67465, Note_on_c, 9, 42, 0
11, 67480, Note_on_c, 9, 42, 35
11, 67496, Note_on_c, 9, 42, 0
11, 67520, Note_on_c, 9, 42, 35
11, 67531, Note_on_c, 9, 53, 0
11, 67550, Note_on_c, 9, 42, 0
11, 67560, Note_on_c, 9, 53, 68
11, 67560, Note_on_c, 9, 42, 86
11, 67617, Note_on_c, 9, 42, 0
11, 67630, Note_on_c, 9, 53, 0
11, 67640, Note_on_c, 9, 42, 51
11, 67662, Note_on_c, 9, 42, 0
11, 67678, Note_on_c, 9, 55, 39
11, 67678, Note_on_c, 9, 51, 47
11, 67678, Note_on_c, 9, 42, 68
11, 67730, Note_on_c, 9, 42, 0
11, 67748, Note_on_c, 9, 51, 0
11, 67758, Note_on_c, 9, 42, 77
11, 67765, Note_on_c, 9, 55, 0
11, 67786, Note_on_c, 9, 42, 0
11, 67798, Note_on_c, 9, 51, 59
11, 67798, Note_on_c, 9, 42, 86
11, 67843, Note_on_c, 9, 42, 0
11, 67878, Note_on_c, 9, 42, 59
11, 67885, Note_on_c, 9, 51, 0
11, 67902, Note_on_c, 9, 42, 0
11, 67918, Note_on_c, 9, 42, 51
11, 67918, Note_on_c, 9, 51, 55
11, 67970, Note_on_c, 9, 42, 0
11, 67998, Note_on_c, 9, 42, 68
11, 68006, Note_on_c, 9, 51, 0
11, 68029, Note_on_c, 9, 42, 0
11, 68038, Note_on_c, 9, 51, 68
11, 68038, Note_on_c, 9, 42, 77
11, 68093, Note_on_c, 9, 42, 0
11, 68118, Note_on_c, 9, 42, 68
11, 68126, Note_on_c, 9, 51, 0
11, 68141, Note_on_c, 9, 42, 0
11, 68158, Note_on_c, 9, 51, 51
11, 68158, Note_on_c, 9, 42, 59
11, 68185, Note_on_c, 9, 42, 0
11, 68198, Note_on_c, 9, 42, 43
11, 68212, Note_on_c, 9, 42, 0
11, 68238, Note_on_c, 9, 42, 55
11, 68244, Note_on_c, 9, 51, 0
11, 68265, Note_on_c, 9, 42, 0
11, 68278, Note_on_c, 9, 51, 68
11, 68278, Note_on_c, 9, 42, 68
11, 68335, Note_on_c, 9, 42, 0
11, 68343, Note_on_c, 9, 51, 0
11, 68358, Note_on_c, 9, 42, 59
11, 68358, Note_on_c, 9, 51, 11
11, 68359, Note_on_c, 9, 51, 0
11, 68383, Note_on_c, 9, 42, 0
11, 68398, Note_on_c, 9, 51, 55
11, 68398, Note_on_c, 9, 42, 59
11, 68466, Note_on_c, 9, 42, 0
11, 68478, Note_on_c, 9, 46, 86
11, 68488, Note_on_c, 9, 51, 0
11, 68510, Note_on_c, 9, 46, 0
11, 68518, Note_on_c, 9, 51, 59
11, 68518, Note_on_c, 9, 42, 51
11, 68541, Note_on_c, 9, 42, 0
11, 68598, Note_on_c, 9, 42, 68
11, 68610, Note_on_c, 9, 51, 0
11, 68628, Note_on_c, 9, 42, 0
11, 68638, Note_on_c, 9, 57, 51
11, 68638, Note_on_c, 9, 42, 11
11, 68640, Note_on_c, 9, 42, 47
11, 68640, Note_on_c, 9, 53, 51
11, 68654, Note_on_c, 9, 42, 0
11, 68667, Note_on_c, 9, 42, 0
11, 68680, Note_on_c, 9, 42, 22
11, 68689, Note_on_c, 9, 42, 0
11, 68711, Note_on_c, 9, 53, 0
11, 68715, Note_on_c, 9, 57, 0
11, 68720, Note_on_c, 9, 42, 18
11, 68739, Note_on_c, 9, 42, 0
11, 68760, Note_on_c, 9, 53, 43
11, 68760, Note_on_c, 9, 42, 77
11, 68789, Note_on_c, 9, 42, 0
11, 68800, Note_on_c, 9, 42, 35
11, 68815, Note_on_c, 9, 42, 0
11, 68840, Note_on_c, 9, 42, 43
11, 68849, Note_on_c, 9, 53, 0
11, 68862, Note_on_c, 9, 42, 0
11, 68880, Note_on_c, 9, 53, 51
11, 68880, Note_on_c, 9, 42, 43
11, 68903, Note_on_c, 9, 42, 0
11, 68920, Note_on_c, 9, 42, 47
11, 68942, Note_on_c, 9, 42, 0
11, 68957, Note_on_c, 9, 53, 0
11, 68960, Note_on_c, 9, 42, 27
11, 68977, Note_on_c, 9, 42, 0
11, 69000, Note_on_c, 9, 53, 51
11, 69000, Note_on_c, 9, 42, 77
11, 69034, Note_on_c, 9, 42, 0
11, 69080, Note_on_c, 9, 53, 0
11, 69080, Note_on_c, 9, 42, 59
11, 69094, Note_on_c, 9, 42, 0
11, 69120, Note_on_c, 9, 53, 43
11, 69120, Note_on_c, 9, 42, 55
11, 69147, Note_on_c, 9, 42, 0
11, 69200, Note_on_c, 9, 42, 27
11, 69203, Note_on_c, 9, 53, 0
11, 69220, Note_on_c, 9, 42, 0
11, 69240, Note_on_c, 9, 53, 55
11, 69240, Note_on_c, 9, 42, 86
11, 69309, Note_on_c, 9, 42, 0
11, 69319, Note_on_c, 9, 53, 0
11, 69320, Note_on_c, 9, 42, 68
11, 69345, Note_on_c, 9, 42, 0
11, 69360, Note_on_c, 9, 42, 51
11, 69360, Note_on_c, 9, 53, 51
11, 69385, Note_on_c, 9, 42, 0
11, 69400, Note_on_c, 9, 42, 35
11, 69416, Note_on_c, 9, 42, 0
11, 69440, Note_on_c, 9, 42, 35
11, 69451, Note_on_c, 9, 53, 0
11, 69470, Note_on_c, 9, 42, 0
11, 69480, Note_on_c, 9, 53, 68
11, 69480, Note_on_c, 9, 42, 86
11, 69537, Note_on_c, 9, 42, 0
11, 69550, Note_on_c, 9, 53, 0
11, 69560, Note_on_c, 9, 42, 51
11, 69582, Note_on_c, 9, 42, 0
11, 69600, Note_on_c, 9, 42, 47
11, 69600, Note_on_c, 9, 53, 51
11, 69627, Note_on_c, 9, 42, 0
11, 69640, Note_on_c, 9, 42, 22
11, 69649, Note_on_c, 9, 42, 0
11, 69671, Note_on_c, 9, 53, 0
11, 69680, Note_on_c, 9, 42, 18
11, 69699, Note_on_c, 9, 42, 0
11, 69720, Note_on_c, 9, 53, 43
11, 69720, Note_on_c, 9, 42, 77
11, 69749, Note_on_c, 9, 42, 0
11, 69760, Note_on_c, 9, 42, 35
11, 69775, Note_on_c, 9, 42, 0
11, 69800, Note_on_c, 9, 42, 43
11, 69809, Note_on_c, 9, 53, 0
11, 69822, Note_on_c, 9, 42, 0
11, 69840, Note_on_c, 9, 53, 51
11, 69840, Note_on_c, 9, 42, 43
11, 69863, Note_on_c, 9, 42, 0
11, 69880, Note_on_c, 9, 42, 47
11, 69902, Note_on_c, 9, 42, 0
11, 69917, Note_on_c, 9, 53, 0
11, 69920, Note_on_c, 9, 42, 27
11, 69937, Note_on_c, 9, 42, 0
11, 69960, Note_on_c, 9, 53, 51
11, 69960, Note_on_c, 9, 42, 77
11, 69994, Note_on_c, 9, 42, 0
11, 70040, Note_on_c, 9, 53, 0
11, 70040, Note_on_c, 9, 42, 59
11, 70054, Note_on_c, 9, 42, 0
11, 70080, Note_on_c, 9, 53, 43
11, 70080, Note_on_c, 9, 42, 55
11, 70107, Note_on_c, 9, 42, 0
11, 70160, Note_on_c, 9, 42, 27
11, 70163, Note_on_c, 9, 53, 0
11, 70180, Note_on_c, 9, 42, 0
11, 70200, Note_on_c, 9, 53, 55
11, 70200, Note_on_c, 9, 42, 86
11, 70269, Note_on_c, 9, 42, 0
11, 70279, Note_on_c, 9, 53, 0
11, 70280, Note_on_c, 9, 42, 68
11, 70305, Note_on_c, 9, 42, 0
11, 70320, Note_on_c, 9, 42, 51
11, 70320, Note_on_c, 9, 53, 51
11, 70345, Note_on_c, 9, 42, 0
11, 70360, Note_on_c, 9, 42, 35
11, 70376, Note_on_c, 9, 42, 0
11, 70400, Note_on_c, 9, 42, 35
11, 70411, Note_on_c, 9, 53, 0
11, 70430, Note_on_c, 9, 42, 0
11, 70440, Note_on_c, 9, 53, 68
11, 70440, Note_on_c, 9, 42, 86
11, 70497, Note_on_c, 9, 42, 0
11, 70510, Note_on_c, 9, 53, 0
11, 70520, Note_on_c, 9, 42, 51
11, 70542, Note_on_c, 9, 42, 0
11, 70558, Note_on_c, 9, 55, 39
11, 70558, Note_on_c, 9, 51, 47
11, 70558, Note_on_c, 9, 42, 68
11, 70610, Note_on_c, 9, 42, 0
11, 70628, Note_on_c, 9, 51, 0
11, 70638, Note_on_c, 9, 42, 77
11, 70645, Note_on_c, 9, 55, 0
11, 70666, Note_on_c, 9, 42, 0
11, 70678, Note_on_c, 9, 51, 59
11, 70678, Note_on_c, 9, 42, 86
11, 70723, Note_on_c, 9, 42, 0
11, 70758, Note_on_c, 9, 42, 59
11, 70765, Note_on_c, 9, 51, 0
11, 70782, Note_on_c, 9, 42, 0
11, 70798, Note_on_c, 9, 42, 51
11, 70798, Note_on_c, 9, 51, 55
11, 70850, Note_on_c, 9, 42, 0
11, 70878, Note_on_c, 9, 42, 68
11, 70886, Note_on_c, 9, 51, 0
11, 70909, Note_on_c, 9, 42, 0
11, 70918, Note_on_c, 9, 51, 68
11, 70918, Note_on_c, 9, 42, 77
11, 70973, Note_on_c, 9, 42, 0
11, 70998, Note_on_c, 9, 42, 68
11, 71006, Note_on_c, 9, 51, 0
11, 71021, Note_on_c, 9, 42, 0
11, 71038, Note_on_c, 9, 51, 51
11, 71038, Note_on_c, 9, 42, 59
11, 71065, Note_on_c, 9, 42, 0
11, 71078, Note_on_c, 9, 42, 43
11, 71092, Note_on_c, 9, 42, 0
11, 71118, Note_on_c, 9, 42, 55
11, 71124, Note_on_c, 9, 51, 0
11, 71145, Note_on_c, 9, 42, 0
11, 71158, Note_on_c, 9, 51, 68
11, 71158, Note_on_c, 9, 42, 68
11, 71215, Note_on_c, 9, 42, 0
11, 71223, Note_on_c, 9, 51, 0
11, 71238, Note_on_c, 9, 42, 59
11, 71238, Note_on_c, 9, 51, 11
11, 71239, Note_on_c, 9, 51, 0
11, 71263, Note_on_c, 9, 42, 0
11, 71278, Note_on_c, 9, 51, 55
11, 71278, Note_on_c, 9, 42, 59
11, 71346, Note_on_c, 9, 42, 0
11, 71358, Note_on_c, 9, 46, 86
11, 71368, Note_on_c, 9, 51, 0
11, 71390, Note_on_c, 9, 46, 0
11, 71398, Note_on_c, 9, 51, 59
11, 71398, Note_on_c, 9, 42, 51
11, 71421, Note_on_c, 9, 42, 0
11, 71478, Note_on_c, 9, 42, 68
11, 71490, Note_on_c, 9, 51, 0
11, 71508, Note_on_c, 9, 42, 0
11, 71518, Note_on_c, 9, 57, 51
11, 71518, Note_on_c, 9, 42, 11
11, 71520, Note_on_c, 9, 42, 47
11, 71520, Note_on_c, 9, 53, 51
11, 71534, Note_on_c, 9, 42, 0
11, 71547, Note_on_c, 9, 42, 0
11, 71560, Note_on_c, 9, 42, 22
11, 71569, Note_on_c, 9, 42, 0
11, 71591, Note_on_c, 9, 53, 0
11, 71595, Note_on_c, 9, 57, 0
11, 71600, Note_on_c, 9, 42, 18
11, 71619, Note_on_c, 9, 42, 0
11, 71640, Note_on_c, 9, 53, 43
11, 71640, Note_on_c, 9, 42, 77
11, 71669, Note_on_c, 9, 42, 0
11, 71680, Note_on_c, 9, 42, 35
11, 71695, Note_on_c, 9, 42, 0
11, 71720, Note_on_c, 9, 42, 43
11, 71729, Note_on_c, 9, 53, 0
11, 71742, Note_on_c, 9, 42, 0
11, 71760, Note_on_c, 9, 53, 51
11, 71760, Note_on_c, 9, 42, 43
11, 71783, Note_on_c, 9, 42, 0
11, 71800, Note_on_c, 9, 42, 47
11, 71822, Note_on_c, 9, 42, 0
11, 71837, Note_on_c, 9, 53, 0
11, 71840, Note_on_c, 9, 42, 27
11, 71857, Note_on_c, 9, 42, 0
11, 71880, Note_on_c, 9, 53, 51
11, 71880, Note_on_c, 9, 42, 77
11, 71914, Note_on_c, 9, 42, 0
11, 71960, Note_on_c, 9, 53, 0
11, 71960, Note_on_c, 9, 42, 59
11, 71974, Note_on_c, 9, 42, 0
11, 72000, Note_on_c, 9, 53, 43
11, 72000, Note_on_c, 9, 42, 55
11, 72027, Note_on_c, 9, 42, 0
11, 72080, Note_on_c, 9, 42, 27
11, 72083, Note_on_c, 9, 53, 0
11, 72100, Note_on_c, 9, 42, 0
11, 72120, Note_on_c, 9, 53, 55
11, 72120, Note_on_c, 9, 42, 86
11, 72189, Note_on_c, 9, 42, 0
11, 72199, Note_on_c, 9, 53, 0
11, 72200, Note_on_c, 9, 42, 68
11, 72225, Note_on_c, 9, 42, 0
11, 72240, Note_on_c, 9, 42, 51
11, 72240, Note_on_c, 9, 53, 51
11, 72265, Note_on_c, 9, 42, 0
11, 72280, Note_on_c, 9, 42, 35
11, 72296, Note_on_c, 9, 42, 0
11, 72320, Note_on_c, 9, 42, 35
11, 72331, Note_on_c, 9, 53, 0
11, 72350, Note_on_c, 9, 42, 0
11, 72360, Note_on_c, 9, 53, 68
11, 72360, Note_on_c, 9, 42, 86
11, 72417, Note_on_c, 9, 42, 0
11, 72430, Note_on_c, 9, 53, 0
11, 72440, Note_on_c, 9, 42, 51
11, 72462, Note_on_c, 9, 42, 0
11, 72480, Note_on_c, 9, 42, 47
11, 72480, Note_on_c, 9, 53, 51
11, 72507, Note_on_c, 9, 42, 0
11, 72520, Note_on_c, 9, 42, 22
11, 72529, Note_on_c, 9, 42, 0
11, 72551, Note_on_c, 9, 53, 0
11, 72560, Note_on_c, 9, 42, 18
11, 72579, Note_on_c, 9, 42, 0
11, 72600, Note_on_c, 9, 53, 43
11, 72600, Note_on_c, 9, 42, 77
11, 72629, Note_on_c, 9, 42, 0
11, 72640, Note_on_c, 9, 42, 35
11, 72655, Note_on_c, 9, 42, 0
11, 72680, Note_on_c, 9, 42, 43
11, 72689, Note_on_c, 9, 53, 0
11, 72702, Note_on_c, 9, 42, 0
11, 72720, Note_on_c, 9, 53, 51
11, 72720, Note_on_c, 9, 42, 43
11, 72743, Note_on_c, 9, 42, 0
11, 72760, Note_on_c, 9, 42, 47
11, 72782, Note_on_c, 9, 42, 0
11, 72797, Note_on_c, 9, 53, 0
11, 72800, Note_on_c, 9, 42, 27
11, 72817, Note_on_c, 9, 42, 0
11, 72840, Note_on_c, 9, 53, 51
11, 72840, Note_on_c, 9, 42, 77
11, 72874, Note_on_c, 9, 42, 0
11, 72920, Note_on_c, 9, 53, 0
11, 72920, Note_on_c, 9, 42, 59
11, 72934, Note_on_c, 9, 42, 0
11, 72960, Note_on_c, 9, 53, 43
11, 72960, Note_on_c, 9, 42, 55
11, 72987, Note_on_c, 9, 42, 0
11, 73040, Note_on_c, 9, 42, 27
11, 73043, Note_on_c, 9, 53, 0
11, 73060, Note_on_c, 9, 42, 0
11, 73080, Note_on_c, 9, 53, 55
11, 73080, Note_on_c, 9, 42, 86
11, 73149, Note_on_c, 9, 42, 0
11, 73159, Note_on_c, 9, 53, 0
11, 73160, Note_on_c, 9, 42, 68
11, 73185, Note_on_c, 9, 42, 0
11, 73200, Note_on_c, 9, 42, 51
11, 73200, Note_on_c, 9, 53, 51
11, 73225, Note_on_c, 9, 42, 0
11, 73240, Note_on_c, 9, 42, 35
11, 73256, Note_on_c, 9, 42, 0
11, 73280, Note_on_c, 9, 42, 35
11, 73291, Note_on_c, 9, 53, 0
11, 73310, Note_on_c, 9, 42, 0
11, 73320, Note_on_c, 9, 53, 68
11, 73320, Note_on_c, 9, 42, 86
11, 73377, Note_on_c, 9, 42, 0
11, 73390, Note_on_c, 9, 53, 0
11, 73400, Note_on_c, 9, 42, 51
11, 73422, Note_on_c, 9, 42, 0
11, 73438, Note_on_c, 9, 55, 39
11, 73438, Note_on_c, 9, 51, 47
11, 73438, Note_on_c, 9, 42, 68
11, 73490, Note_on_c, 9, 42, 0
11, 73508, Note_on_c, 9, 51, 0
11, 73518, Note_on_c, 9, 42, 77
11, 73525, Note_on_c, 9, 55, 0
11, 73546, Note_on_c, 9, 42, 0
11, 73558, Note_on_c, 9, 51, 59
11, 73558, Note_on_c, 9, 42, 86
11, 73603, Note_on_c, 9, 42, 0
11, 73638, Note_on_c, 9, 42, 59
11, 73645, Note_on_c, 9, 51, 0
11, 73662, Note_on_c, 9, 42, 0
11, 73678, Note_on_c, 9, 42, 51
11, 73678, Note_on_c, 9, 51, 55
11, 73730, Note_on_c, 9, 42, 0
11, 73758, Note_on_c, 9, 42, 68
11, 73766, Note_on_c, 9, 51, 0
11, 73789, Note_on_c, 9, 42, 0
11, 73798, Note_on_c, 9, 51, 68
11, 73798, Note_on_c, 9, 42, 77
11, 73853, Note_on_c, 9, 42, 0
11, 73878, Note_on_c, 9, 42, 68
11, 73886, Note_on_c, 9, 51, 0
11, 73901, Note_on_c, 9, 42, 0
11, 73918, Note_on_c, 9, 51, 51
11, 73918, Note_on_c, 9, 42, 59
11, 73945, Note_on_c, 9, 42, 0
11, 73958, Note_on_c, 9, 42, 43
11, 73972, Note_on_c, 9, 42, 0
11, 73998, Note_on_c, 9, 42, 55
11, 74004, Note_on_c, 9, 51, 0
11, 74025, Note_on_c, 9, 42, 0
11, 74038, Note_on_c, 9, 51, 68
11, 74038, Note_on_c, 9, 42, 68
11, 74095, Note_on_c, 9, 42, 0
11, 74103, Note_on_c, 9, 51, 0
11, 74118, Note_on_c, 9, 42, 59
11, 74118, Note_on_c, 9, 51, 11
11, 74119, Note_on_c, 9, 51, 0
11, 74143, Note_on_c, 9, 42, 0
11, 74158, Note_on_c, 9, 51, 55
11, 74158, Note_on_c, 9, 42, 59
11, 74226, Note_on_c, 9, 42, 0
11, 74238, Note_on_c, 9, 46, 86
11, 74248, Note_on_c, 9, 51, 0
11, 74270, Note_on_c, 9, 46, 0
11, 74278, Note_on_c, 9, 51, 59
11, 74278, Note_on_c, 9, 42, 51
11, 74301, Note_on_c, 9, 42, 0
11, 74358, Note_on_c, 9, 42, 68
11, 74370, Note_on_c, 9, 51, 0
11, 74388, Note_on_c, 9, 42, 0
11, 74396, Note_on_c, 9, 53, 68
11, 74398, Note_on_c, 9, 57, 51
11, 74398, Note_on_c, 9, 42, 11
11, 74400, Note_on_c, 9, 42, 47
11, 74400, Note_on_c, 9, 53, 51
11, 74414, Note_on_c, 9, 42, 0
11, 74427, Note_on_c, 9, 42, 0
11, 74440, Note_on_c, 9, 42, 22
11, 74449, Note_on_c, 9, 42, 0
11, 74470, Note_on_c, 9, 53, 0
11, 74471, Note_on_c, 9, 53, 0
11, 74475, Note_on_c, 9, 57, 0
11, 74480, Note_on_c, 9, 42, 18
11, 74499, Note_on_c, 9, 42, 0
11, 74517, Note_on_c, 9, 53, 59
11, 74520, Note_on_c, 9, 53, 43
11, 74520, Note_on_c, 9, 42, 77
11, 74549, Note_on_c, 9, 42, 0
11, 74560, Note_on_c, 9, 42, 35
11, 74575, Note_on_c, 9, 42, 0
11, 74600, Note_on_c, 9, 42, 43
11, 74609, Note_on_c, 9, 53, 0
11, 74622, Note_on_c, 9, 42, 0
11, 74622, Note_on_c, 9, 53, 0
11, 74640, Note_on_c, 9, 53, 51
11, 74640, Note_on_c, 9, 42, 43
11, 74643, Note_on_c, 9, 53, 68
11, 74663, Note_on_c, 9, 42, 0
11, 74680, Note_on_c, 9, 42, 47
11, 74702, Note_on_c, 9, 42, 0
11, 74717, Note_on_c, 9, 53, 0
11, 74720, Note_on_c, 9, 42, 27
11, 74735, Note_on_c, 9, 53, 0
11, 74737, Note_on_c, 9, 42, 0
11, 74758, Note_on_c, 9, 53, 86
11, 74760, Note_on_c, 9, 53, 51
11, 74760, Note_on_c, 9, 42, 77
11, 74794, Note_on_c, 9, 42, 0
11, 74822, Note_on_c, 9, 53, 0
11, 74840, Note_on_c, 9, 53, 0
11, 74840, Note_on_c, 9, 42, 59
11, 74845, Note_on_c, 9, 53, 59
11, 74854, Note_on_c, 9, 42, 0
11, 74863, Note_on_c, 9, 53, 0
11, 74877, Note_on_c, 9, 53, 86
11, 74880, Note_on_c, 9, 53, 43
11, 74880, Note_on_c, 9, 42, 55
11, 74907, Note_on_c, 9, 42, 0
11, 74960, Note_on_c, 9, 42, 27
11, 74963, Note_on_c, 9, 53, 0
11, 74970, Note_on_c, 9, 53, 0
11, 74980, Note_on_c, 9, 42, 0
11, 74995, Note_on_c, 9, 53, 68
11, 75000, Note_on_c, 9, 53, 55
11, 75000, Note_on_c, 9, 42, 86
11, 75069, Note_on_c, 9, 42, 0
11, 75079, Note_on_c, 9, 53, 0
11, 75080, Note_on_c, 9, 42, 68
11, 75090, Note_on_c, 9, 53, 0
11, 75105, Note_on_c, 9, 42, 0
11, 75117, Note_on_c, 9, 53, 59
11, 75120, Note_on_c, 9, 42, 51
11, 75120, Note_on_c, 9, 53, 51
11, 75145, Note_on_c, 9, 42, 0
11, 75160, Note_on_c, 9, 42, 35
11, 75176, Note_on_c, 9, 42, 0
11, 75182, Note_on_c, 9, 53, 0
11, 75200, Note_on_c, 9, 42, 35
11, 75202, Note_on_c, 9, 53, 51
11, 75211, Note_on_c, 9, 53, 0
11, 75222, Note_on_c, 9, 53, 0
11, 75230, Note_on_c, 9, 42, 0
11, 75240, Note_on_c, 9, 53, 68
11, 75240, Note_on_c, 9, 42, 86
11, 75240, Note_on_c, 9, 53, 86
11, 75297, Note_on_c, 9, 42, 0
11, 75305, Note_on_c, 9, 53, 0
11, 75310, Note_on_c, 9, 53, 0
11, 75320, Note_on_c, 9, 42, 51
11, 75325, Note_on_c, 9, 53, 39
11, 75339, Note_on_c, 9, 53, 0
11, 75342, Note_on_c, 9, 42, 0
11, 75360, Note_on_c, 9, 42, 47
11, 75360, Note_on_c, 9, 53, 51
11, 75361, Note_on_c, 9, 53, 51
11, 75387, Note_on_c, 9, 42, 0
11, 75400, Note_on_c, 9, 42, 22
11, 75409, Note_on_c, 9, 42, 0
11, 75431, Note_on_c, 9, 53, 0
11, 75440, Note_on_c, 9, 42, 18
11, 75444, Note_on_c, 9, 53, 0
11, 75459, Note_on_c, 9, 42, 0
11, 75478, Note_on_c, 9, 53, 68
11, 75480, Note_on_c, 9, 53, 43
11, 75480, Note_on_c, 9, 42, 77
11, 75509, Note_on_c, 9, 42, 0
11, 75520, Note_on_c, 9, 42, 35
11, 75535, Note_on_c, 9, 42, 0
11, 75536, Note_on_c, 9, 53, 0
11, 75560, Note_on_c, 9, 42, 43
11, 75565, Note_on_c, 9, 53, 39
11, 75569, Note_on_c, 9, 53, 0
11, 75578, Note_on_c, 9, 53, 0
11, 75582, Note_on_c, 9, 42, 0
11, 75599, Note_on_c, 9, 53, 51
11, 75600, Note_on_c, 9, 53, 51
11, 75600, Note_on_c, 9, 42, 43
11, 75623, Note_on_c, 9, 42, 0
11, 75640, Note_on_c, 9, 42, 47
11, 75662, Note_on_c, 9, 42, 0
11, 75677, Note_on_c, 9, 53, 0
11, 75680, Note_on_c, 9, 42, 27
11, 75689, Note_on_c, 9, 53, 0
11, 75697, Note_on_c, 9, 42, 0
11, 75718, Note_on_c, 9, 53, 77
11, 75720, Note_on_c, 9, 53, 51
11, 75720, Note_on_c, 9, 42, 77
11, 75754, Note_on_c, 9, 42, 0
11, 75800, Note_on_c, 9, 53, 0
11, 75800, Note_on_c, 9, 42, 59
11, 75813, Note_on_c, 9, 53, 0
11, 75814, Note_on_c, 9, 42, 0
11, 75837, Note_on_c, 9, 53, 59
11, 75840, Note_on_c, 9, 53, 43
11, 75840, Note_on_c, 9, 42, 55
11, 75867, Note_on_c, 9, 42, 0
11, 75920, Note_on_c, 9, 42, 27
11, 75923, Note_on_c, 9, 53, 0
11, 75930, Note_on_c, 9, 53, 0
11, 75940, Note_on_c, 9, 42, 0
11, 75958, Note_on_c, 9, 53, 77
11, 75960, Note_on_c, 9, 53, 55
11, 75960, Note_on_c, 9, 42, 86
11, 76017, Note_on_c, 9, 53, 0
11, 76029, Note_on_c, 9, 42, 0
11, 76039, Note_on_c, 9, 53, 0
11, 76040, Note_on_c, 9, 42, 68
11, 76041, Note_on_c, 9, 53, 39
11, 76061, Note_on_c, 9, 53, 0
11, 76065, Note_on_c, 9, 42, 0
11, 76075, Note_on_c, 9, 53, 59
11, 76080, Note_on_c, 9, 42, 51
11, 76080, Note_on_c, 9, 53, 51
11, 76105, Note_on_c, 9, 42, 0
11, 76110, Control_c, 9, 7, 124
11, 76120, Note_on_c, 9, 42, 35
11, 76136, Note_on_c, 9, 42, 0
11, 76138, Note_on_c, 9, 53, 0
11, 76160, Note_on_c, 9, 42, 35
11, 76171, Note_on_c, 9, 53, 0
11, 76190, Note_on_c, 9, 42, 0
11, 76196, Note_on_c, 9, 53, 86
11, 76200, Note_on_c, 9, 53, 68
11, 76200, Note_on_c, 9, 42, 86
11, 76209, Control_c, 9, 7, 120
11, 76251, Control_c, 9, 7, 117
11, 76257, Note_on_c, 9, 42, 0
11, 76270, Note_on_c, 9, 53, 0
11, 76280, Note_on_c, 9, 42, 51
11, 76293, Note_on_c, 9, 53, 0
11, 76302, Note_on_c, 9, 42, 0
11, 76318, Note_on_c, 9, 55, 39
11, 76318, Note_on_c, 9, 51, 47
11, 76318, Note_on_c, 9, 42, 68
11, 76318, Note_on_c, 9, 53, 55
11, 76370, Note_on_c, 9, 42, 0
11, 76388, Note_on_c, 9, 51, 0
11, 76398, Note_on_c, 9, 42, 77
11, 76405, Note_on_c, 9, 55, 0
11, 76409, Note_on_c, 9, 53, 0
11, 76426, Note_on_c, 9, 42, 0
11, 76437, Note_on_c, 9, 53, 68
11, 76438, Note_on_c, 9, 51, 59
11, 76438, Note_on_c, 9, 42, 86
11, 76483, Note_on_c, 9, 42, 0
11, 76499, Note_on_c, 9, 53, 0
11, 76518, Note_on_c, 9, 42, 59
11, 76522, Note_on_c, 9, 53, 51
11, 76525, Note_on_c, 9, 51, 0
11, 76542, Note_on_c, 9, 53, 0
11, 76542, Note_on_c, 9, 42, 0
11, 76558, Note_on_c, 9, 42, 51
11, 76558, Note_on_c, 9, 51, 55
11, 76558, Note_on_c, 9, 53, 55
11, 76610, Note_on_c, 9, 42, 0
11, 76638, Note_on_c, 9, 42, 68
11, 76646, Note_on_c, 9, 51, 0
11, 76656, Note_on_c, 9, 53, 0
11, 76669, Note_on_c, 9, 42, 0
11, 76677, Note_on_c, 9, 53, 77
11, 76678, Note_on_c, 9, 51, 68
11, 76678, Note_on_c, 9, 42, 77
11, 76733, Note_on_c, 9, 42, 0
11, 76758, Note_on_c, 9, 42, 68
11, 76766, Note_on_c, 9, 51, 0
11, 76769, Note_on_c, 9, 53, 0
11, 76781, Note_on_c, 9, 42, 0
11, 76791, Note_on_c, 9, 53, 55
11, 76798, Note_on_c, 9, 51, 51
11, 76798, Note_on_c, 9, 42, 59
11, 76825, Note_on_c, 9, 42, 0
11, 76838, Note_on_c, 9, 42, 43
11, 76852, Note_on_c, 9, 42, 0
11, 76878, Note_on_c, 9, 42, 55
11, 76883, Note_on_c, 9, 53, 0
11, 76884, Note_on_c, 9, 51, 0
11, 76905, Note_on_c, 9, 42, 0
11, 76906, Note_on_c, 9, 53, 68
11, 76918, Note_on_c, 9, 51, 68
11, 76918, Note_on_c, 9, 42, 68
11, 76964, Note_on_c, 9, 53, 0
11, 76975, Note_on_c, 9, 42, 0
11, 76983, Note_on_c, 9, 51, 0
11, 76993, Note_on_c, 9, 53, 39
11, 76998, Note_on_c, 9, 42, 59
11, 76998, Note_on_c, 9, 51, 11
11, 76999, Note_on_c, 9, 51, 0
11, 77007, Note_on_c, 9, 53, 0
11, 77023, Note_on_c, 9, 42, 0
11, 77031, Note_on_c, 9, 53, 47
11, 77038, Note_on_c, 9, 51, 55
11, 77038, Note_on_c, 9, 42, 59
11, 77076, Note_on_c, 9, 53, 0
11, 77106, Note_on_c, 9, 42, 0
11, 77112, Note_on_c, 9, 55, 77
11, 77118, Note_on_c, 9, 46, 86
11, 77128, Note_on_c, 9, 51, 0
11, 77148, Note_on_c, 9, 55, 0
11, 77150, Note_on_c, 9, 46, 0
11, 77158, Note_on_c, 9, 51, 59
11, 77158, Note_on_c, 9, 42, 51
11, 77181, Note_on_c, 9, 42, 0
11, 77238, Note_on_c, 9, 42, 68
11, 77250, Note_on_c, 9, 51, 0
11, 77268, Note_on_c, 9, 42, 0
11, 77276, Note_on_c, 9, 57, 68
11, 77278, Note_on_c, 9, 57, 51
11, 77278, Note_on_c, 9, 42, 11
11, 77280, Note_on_c, 9, 42, 47
11, 77280, Note_on_c, 9, 53, 51
11, 77294, Note_on_c, 9, 42, 0
11, 77307, Note_on_c, 9, 42, 0
11, 77320, Note_on_c, 9, 42, 22
11, 77329, Note_on_c, 9, 42, 0
11, 77351, Note_on_c, 9, 53, 0
11, 77355, Note_on_c, 9, 57, 0
11, 77360, Note_on_c, 9, 42, 18
11, 77362, Note_on_c, 9, 57, 0
11, 77379, Note_on_c, 9, 42, 0
11, 77400, Note_on_c, 9, 53, 43
11, 77400, Note_on_c, 9, 42, 77
11, 77400, Note_on_c, 9, 53, 22
11, 77429, Note_on_c, 9, 42, 0
11, 77440, Note_on_c, 9, 42, 35
11, 77455, Note_on_c, 9, 42, 0
11, 77467, Note_on_c, 9, 53, 0
11, 77480, Note_on_c, 9, 42, 43
11, 77489, Note_on_c, 9, 53, 0
11, 77502, Note_on_c, 9, 42, 0
11, 77510, Note_on_c, 9, 53, 51
11, 77520, Note_on_c, 9, 53, 51
11, 77520, Note_on_c, 9, 42, 43
11, 77543, Note_on_c, 9, 42, 0
11, 77560, Note_on_c, 9, 42, 47
11, 77582, Note_on_c, 9, 42, 0
11, 77593, Note_on_c, 9, 53, 0
11, 77597, Note_on_c, 9, 53, 0
11, 77600, Note_on_c, 9, 42, 27
11, 77617, Note_on_c, 9, 42, 0
11, 77629, Note_on_c, 9, 53, 55
11, 77640, Note_on_c, 9, 53, 51
11, 77640, Note_on_c, 9, 42, 77
11, 77674, Note_on_c, 9, 42, 0
11, 77719, Note_on_c, 9, 53, 0
11, 77720, Note_on_c, 9, 53, 0
11, 77720, Note_on_c, 9, 42, 59
11, 77734, Note_on_c, 9, 42, 0
11, 77754, Note_on_c, 9, 53, 43
11, 77760, Note_on_c, 9, 53, 43
11, 77760, Note_on_c, 9, 42, 55
11, 77787, Note_on_c, 9, 42, 0
11, 77840, Note_on_c, 9, 42, 27
11, 77843, Note_on_c, 9, 53, 0
11, 77844, Note_on_c, 9, 53, 0
11, 77860, Note_on_c, 9, 42, 0
11, 77874, Note_on_c, 9, 53, 59
11, 77880, Note_on_c, 9, 53, 55
11, 77880, Note_on_c, 9, 42, 86
11, 77949, Note_on_c, 9, 42, 0
11, 77959, Note_on_c, 9, 53, 0
11, 77960, Note_on_c, 9, 42, 68
11, 77970, Note_on_c, 9, 53, 0
11, 77985, Note_on_c, 9, 42, 0
11, 77999, Note_on_c, 9, 53, 43
11, 78000, Note_on_c, 9, 42, 51
11, 78000, Note_on_c, 9, 53, 51
11, 78025, Note_on_c, 9, 42, 0
11, 78040, Note_on_c, 9, 42, 35
11, 78056, Note_on_c, 9, 42, 0
11, 78067, Note_on_c, 9, 53, 0
11, 78080, Note_on_c, 9, 42, 35
11, 78083, Note_on_c, 9, 53, 43
11, 78091, Note_on_c, 9, 53, 0
11, 78100, Note_on_c, 9, 53, 0
11, 78110, Note_on_c, 9, 42, 0
11, 78118, Note_on_c, 9, 53, 68
11, 78120, Note_on_c, 9, 53, 68
11, 78120, Note_on_c, 9, 42, 86
11, 78177, Note_on_c, 9, 42, 0
11, 78188, Note_on_c, 9, 53, 0
11, 78190, Note_on_c, 9, 53, 0
11, 78200, Note_on_c, 9, 42, 51
11, 78204, Note_on_c, 9, 53, 15
11, 78210, Note_on_c, 9, 53, 0
11, 78222, Note_on_c, 9, 42, 0
11, 78235, Note_on_c, 9, 53, 51
11, 78240, Note_on_c, 9, 42, 47
11, 78240, Note_on_c, 9, 53, 51
11, 78267, Note_on_c, 9, 42, 0
11, 78280, Note_on_c, 9, 42, 22
11, 78289, Note_on_c, 9, 42, 0
11, 78311, Note_on_c, 9, 53, 0
11, 78318, Note_on_c, 9, 53, 0
11, 78320, Note_on_c, 9, 42, 18
11, 78339, Note_on_c, 9, 42, 0
11, 78354, Note_on_c, 9, 53, 59
11, 78360, Note_on_c, 9, 53, 43
11, 78360, Note_on_c, 9, 42, 77
11, 78389, Note_on_c, 9, 42, 0
11, 78400, Note_on_c, 9, 42, 35
11, 78415, Note_on_c, 9, 42, 0
11, 78421, Note_on_c, 9, 53, 0
11, 78440, Note_on_c, 9, 42, 43
11, 78449, Note_on_c, 9, 53, 0
11, 78462, Note_on_c, 9, 42, 0
11, 78476, Note_on_c, 9, 53, 26
11, 78480, Note_on_c, 9, 53, 51
11, 78480, Note_on_c, 9, 42, 43
11, 78503, Note_on_c, 9, 42, 0
11, 78520, Note_on_c, 9, 42, 47
11, 78534, Note_on_c, 9, 53, 0
11, 78542, Note_on_c, 9, 42, 0
11, 78556, Note_on_c, 9, 55, 77
11, 78557, Note_on_c, 9, 53, 0
11, 78560, Note_on_c, 9, 42, 27
11, 78577, Note_on_c, 9, 42, 0
11, 78599, Note_on_c, 9, 55, 0
11, 78600, Note_on_c, 9, 53, 51
11, 78600, Note_on_c, 9, 42, 77
11, 78601, Note_on_c, 9, 53, 11
11, 78623, Note_on_c, 9, 53, 0
11, 78634, Note_on_c, 9, 42, 0
11, 78680, Note_on_c, 9, 53, 0
11, 78680, Note_on_c, 9, 42, 59
11, 78694, Note_on_c, 9, 42, 0
11, 78709, Note_on_c, 9, 53, 47
11, 78720, Note_on_c, 9, 53, 43
11, 78720, Note_on_c, 9, 42, 55
11, 78747, Note_on_c, 9, 42, 0
11, 78800, Note_on_c, 9, 42, 27
11, 78801, Note_on_c, 9, 53, 0
11, 78803, Note_on_c, 9, 53, 0
11, 78820, Note_on_c, 9, 42, 0
11, 78832, Note_on_c, 9, 53, 51
11, 78840, Note_on_c, 9, 53, 55
11, 78840, Note_on_c, 9, 42, 86
11, 78895, Note_on_c, 9, 53, 0
11, 78909, Note_on_c, 9, 42, 0
11, 78919, Note_on_c, 9, 53, 0
11, 78920, Note_on_c, 9, 42, 68
11, 78945, Note_on_c, 9, 42, 0
11, 78960, Note_on_c, 9, 42, 51
11, 78960, Note_on_c, 9, 53, 51
11, 78960, Note_on_c, 9, 53, 27
11, 78985, Note_on_c, 9, 42, 0
11, 79000, Note_on_c, 9, 42, 35
11, 79016, Note_on_c, 9, 42, 0
11, 79036, Note_on_c, 9, 53, 0
11, 79040, Note_on_c, 9, 42, 35
11, 79051, Note_on_c, 9, 53, 0
11, 79066, Note_on_c, 9, 55, 55
11, 79070, Note_on_c, 9, 42, 0
11, 79080, Note_on_c, 9, 53, 68
11, 79080, Note_on_c, 9, 42, 86
11, 79113, Note_on_c, 9, 55, 0
11, 79137, Note_on_c, 9, 42, 0
11, 79150, Note_on_c, 9, 53, 0
11, 79160, Note_on_c, 9, 42, 51
11, 79182, Note_on_c, 9, 42, 0
11, 79198, Note_on_c, 9, 55, 39
11, 79198, Note_on_c, 9, 51, 47
11, 79198, Note_on_c, 9, 42, 68
11, 79200, Note_on_c, 9, 57, 55
11, 79250, Note_on_c, 9, 42, 0
11, 79268, Note_on_c, 9, 51, 0
11, 79278, Note_on_c, 9, 42, 77
11, 79279, Note_on_c, 9, 57, 0
11, 79285, Note_on_c, 9, 55, 0
11, 79306, Note_on_c, 9, 42, 0
11, 79313, Note_on_c, 9, 53, 55
11, 79318, Note_on_c, 9, 51, 59
11, 79318, Note_on_c, 9, 42, 86
11, 79363, Note_on_c, 9, 42, 0
11, 79398, Note_on_c, 9, 42, 59
11, 79405, Note_on_c, 9, 51, 0
11, 79405, Note_on_c, 9, 53, 0
11, 79422, Note_on_c, 9, 42, 0
11, 79437, Note_on_c, 9, 53, 43
11, 79438, Note_on_c, 9, 42, 51
11, 79438, Note_on_c, 9, 51, 55
11, 79490, Note_on_c, 9, 42, 0
11, 79518, Note_on_c, 9, 42, 68
11, 79526, Note_on_c, 9, 51, 0
11, 79526, Note_on_c, 9, 53, 0
11, 79549, Note_on_c, 9, 42, 0
11, 79556, Note_on_c, 9, 53, 68
11, 79558, Note_on_c, 9, 51, 68
11, 79558, Note_on_c, 9, 42, 77
11, 79613, Note_on_c, 9, 42, 0
11, 79619, Note_on_c, 9, 53, 0
11, 79638, Note_on_c, 9, 42, 68
11, 79643, Note_on_c, 9, 53, 43
11, 79646, Note_on_c, 9, 51, 0
11, 79658, Note_on_c, 9, 53, 0
11, 79661, Note_on_c, 9, 42, 0
11, 79678, Note_on_c, 9, 51, 51
11, 79678, Note_on_c, 9, 42, 59
11, 79681, Note_on_c, 9, 53, 25
11, 79705, Note_on_c, 9, 42, 0
11, 79718, Note_on_c, 9, 42, 43
11, 79732, Note_on_c, 9, 42, 0
11, 79735, Note_on_c, 9, 53, 0
11, 79758, Note_on_c, 9, 42, 55
11, 79764, Note_on_c, 9, 51, 0
11, 79764, Note_on_c, 9, 53, 55
11, 79775, Note_on_c, 9, 53, 0
11, 79785, Note_on_c, 9, 42, 0
11, 79798, Note_on_c, 9, 51, 68
11, 79798, Note_on_c, 9, 42, 68
11, 79798, Note_on_c, 9, 53, 59
11, 79855, Note_on_c, 9, 42, 0
11, 79858, Note_on_c, 9, 53, 0
11, 79863, Note_on_c, 9, 51, 0
11, 79876, Note_on_c, 9, 53, 43
11, 79878, Note_on_c, 9, 42, 59
11, 79878, Note_on_c, 9, 51, 11
11, 79879, Note_on_c, 9, 51, 0
11, 79890, Note_on_c, 9, 53, 0
11, 79903, Note_on_c, 9, 42, 0
11, 79918, Note_on_c, 9, 51, 55
11, 79918, Note_on_c, 9, 42, 59
11, 79979, Note_on_c, 9, 53, 51
11, 79979, Note_on_c, 9, 53, 0
11, 79986, Note_on_c, 9, 42, 0
11, 79995, Note_on_c, 9, 55, 77
11, 79998, Note_on_c, 9, 46, 86
11, 80008, Note_on_c, 9, 51, 0
11, 80030, Note_on_c, 9, 46, 0
11, 80034, Note_on_c, 9, 55, 0
11, 80038, Note_on_c, 9, 51, 59
11, 80038, Note_on_c, 9, 42, 51
11, 80061, Note_on_c, 9, 42, 0
11, 80118, Note_on_c, 9, 42, 68
11, 80130, Note_on_c, 9, 51, 0
11, 80148, Note_on_c, 9, 42, 0
11, 80157, Note_on_c, 9, 57, 77
11, 80158, Note_on_c, 9, 57, 51
11, 80158, Note_on_c, 9, 42, 11
11, 80174, Note_on_c, 9, 42, 0
11, 80213, Note_on_c, 9, 57, 0
11, 80235, Note_on_c, 9, 57, 0
11, 80235, End_track
12, 0, Start_track
12, 0, MIDI_port, 0
12, 0, Title_t, "hi hat"
12, 0, Program_c, 9, 0
12, 0, Control_c, 9, 7, 115
12, 0, Control_c, 9, 10, 64
12, 480, Note_on_c, 9, 42, 50
12, 502, Note_on_c, 9, 42, 0
12, 520, Note_on_c, 9, 42, 38
12, 541, Note_on_c, 9, 42, 0
12, 560, Note_on_c, 9, 42, 50
12, 580, Note_on_c, 9, 42, 0
12, 600, Note_on_c, 9, 42, 54
12, 619, Note_on_c, 9, 42, 0
12, 640, Note_on_c, 9, 42, 54
12, 660, Note_on_c, 9, 42, 0
12, 680, Note_on_c, 9, 42, 46
12, 702, Note_on_c, 9, 42, 0
12, 720, Note_on_c, 9, 42, 54
12, 742, Note_on_c, 9, 42, 0
12, 760, Note_on_c, 9, 42, 46
12, 782, Note_on_c, 9, 42, 0
12, 800, Note_on_c, 9, 42, 50
12, 816, Note_on_c, 9, 42, 0
12, 840, Note_on_c, 9, 42, 63
12, 864, Note_on_c, 9, 42, 0
12, 880, Note_on_c, 9, 42, 54
12, 898, Note_on_c, 9, 42, 0
12, 920, Note_on_c, 9, 42, 54
12, 946, Note_on_c, 9, 42, 0
12, 960, Note_on_c, 9, 42, 54
12, 982, Note_on_c, 9, 42, 0
12, 1000, Note_on_c, 9, 42, 50
12, 1023, Note_on_c, 9, 42, 0
12, 1040, Note_on_c, 9, 42, 50
12, 1061, Note_on_c, 9, 42, 0
12, 1080, Note_on_c, 9, 42, 50
12, 1104, Note_on_c, 9, 42, 0
12, 1120, Note_on_c, 9, 42, 50
12, 1144, Note_on_c, 9, 42, 0
12, 1160, Note_on_c, 9, 42, 50
12, 1185, Note_on_c, 9, 42, 0
12, 1200, Note_on_c, 9, 42, 50
12, 1224, Note_on_c, 9, 42, 0
12, 1240, Note_on_c, 9, 42, 46
12, 1262, Note_on_c, 9, 42, 0
12, 1280, Note_on_c, 9, 42, 38
12, 1303, Note_on_c, 9, 42, 0
12, 1320, Note_on_c, 9, 42, 46
12, 1347, Note_on_c, 9, 42, 0
12, 1360, Note_on_c, 9, 42, 30
12, 1382, Note_on_c, 9, 42, 0
12, 1400, Note_on_c, 9, 42, 38
12, 1421, Note_on_c, 9, 42, 0
12, 1440, Note_on_c, 9, 42, 46
12, 1461, Note_on_c, 9, 42, 0
12, 1480, Note_on_c, 9, 42, 22
12, 1502, Note_on_c, 9, 42, 0
12, 1520, Note_on_c, 9, 42, 30
12, 1543, Note_on_c, 9, 42, 0
12, 1560, Note_on_c, 9, 42, 38
12, 1583, Note_on_c, 9, 42, 0
12, 1600, Note_on_c, 9, 42, 38
12, 1619, Note_on_c, 9, 42, 0
12, 1640, Note_on_c, 9, 42, 46
12, 1659, Note_on_c, 9, 42, 0
12, 1680, Note_on_c, 9, 42, 38
12, 1702, Note_on_c, 9, 42, 0
12, 1720, Note_on_c, 9, 42, 42
12, 1742, Note_on_c, 9, 42, 0
12, 1760, Note_on_c, 9, 42, 38
12, 1782, Note_on_c, 9, 42, 0
12, 1800, Note_on_c, 9, 42, 54
12, 1825, Note_on_c, 9, 42, 0
12, 1840, Note_on_c, 9, 42, 50
12, 1861, Note_on_c, 9, 42, 0
12, 1880, Note_on_c, 9, 42, 50
12, 1906, Note_on_c, 9, 42, 0
12, 1920, Note_on_c, 9, 42, 54
12, 1942, Note_on_c, 9, 42, 0
12, 1960, Note_on_c, 9, 42, 42
12, 1979, Note_on_c, 9, 42, 0
12, 2000, Note_on_c, 9, 42, 34
12, 2020, Note_on_c, 9, 42, 0
12, 2040, Note_on_c, 9, 42, 54
12, 2059, Note_on_c, 9, 42, 0
12, 2080, Note_on_c, 9, 42, 42
12, 2102, Note_on_c, 9, 42, 0
12, 2120, Note_on_c, 9, 42, 54
12, 2143, Note_on_c, 9, 42, 0
12, 2160, Note_on_c, 9, 42, 54
12, 2184, Note_on_c, 9, 42, 0
12, 2200, Note_on_c, 9, 42, 54
12, 2222, Note_on_c, 9, 42, 0
12, 2240, Note_on_c, 9, 42, 50
12, 2266, Note_on_c, 9, 42, 0
12, 2280, Note_on_c, 9, 42, 54
12, 2304, Note_on_c, 9, 42, 0
12, 2320, Note_on_c, 9, 42, 54
12, 2340, Note_on_c, 9, 42, 0
12, 2360, Note_on_c, 9, 42, 72
12, 2380, Note_on_c, 9, 42, 0
12, 2400, Note_on_c, 9, 42, 50
12, 2422, Note_on_c, 9, 42, 0
12, 2440, Note_on_c, 9, 42, 38
12, 2461, Note_on_c, 9, 42, 0
12, 2480, Note_on_c, 9, 42, 50
12, 2500, Note_on_c, 9, 42, 0
12, 2520, Note_on_c, 9, 42, 54
12, 2539, Note_on_c, 9, 42, 0
12, 2560, Note_on_c, 9, 42, 54
12, 2580, Note_on_c, 9, 42, 0
12, 2600, Note_on_c, 9, 42, 46
12, 2622, Note_on_c, 9, 42, 0
12, 2640, Note_on_c, 9, 42, 54
12, 2662, Note_on_c, 9, 42, 0
12, 2680, Note_on_c, 9, 42, 46
12, 2702, Note_on_c, 9, 42, 0
12, 2720, Note_on_c, 9, 42, 50
12, 2736, Note_on_c, 9, 42, 0
12, 2760, Note_on_c, 9, 42, 63
12, 2784, Note_on_c, 9, 42, 0
12, 2800, Note_on_c, 9, 42, 54
12, 2818, Note_on_c, 9, 42, 0
12, 2840, Note_on_c, 9, 42, 54
12, 2866, Note_on_c, 9, 42, 0
12, 2880, Note_on_c, 9, 42, 54
12, 2902, Note_on_c, 9, 42, 0
12, 2920, Note_on_c, 9, 42, 50
12, 2943, Note_on_c, 9, 42, 0
12, 2960, Note_on_c, 9, 42, 50
12, 2981, Note_on_c, 9, 42, 0
12, 3000, Note_on_c, 9, 42, 50
12, 3024, Note_on_c, 9, 42, 0
12, 3040, Note_on_c, 9, 42, 50
12, 3064, Note_on_c, 9, 42, 0
12, 3080, Note_on_c, 9, 42, 50
12, 3105, Note_on_c, 9, 42, 0
12, 3120, Note_on_c, 9, 42, 50
12, 3144, Note_on_c, 9, 42, 0
12, 3160, Note_on_c, 9, 42, 46
12, 3182, Note_on_c, 9, 42, 0
12, 3200, Note_on_c, 9, 42, 38
12, 3223, Note_on_c, 9, 42, 0
12, 3240, Note_on_c, 9, 42, 46
12, 3267, Note_on_c, 9, 42, 0
12, 3280, Note_on_c, 9, 42, 30
12, 3302, Note_on_c, 9, 42, 0
12, 3320, Note_on_c, 9, 42, 38
12, 3341, Note_on_c, 9, 42, 0
12, 3360, Note_on_c, 9, 42, 46
12, 3381, Note_on_c, 9, 42, 0
12, 3400, Note_on_c, 9, 42, 22
12, 3422, Note_on_c, 9, 42, 0
12, 3440, Note_on_c, 9, 42, 30
12, 3463, Note_on_c, 9, 42, 0
12, 3480, Note_on_c, 9, 42, 38
12, 3503, Note_on_c, 9, 42, 0
12, 3520, Note_on_c, 9, 42, 38
12, 3539, Note_on_c, 9, 42, 0
12, 3560, Note_on_c, 9, 42, 46
12, 3579, Note_on_c, 9, 42, 0
12, 3600, Note_on_c, 9, 42, 38
12, 3622, Note_on_c, 9, 42, 0
12, 3640, Note_on_c, 9, 42, 42
12, 3662, Note_on_c, 9, 42, 0
12, 3680, Note_on_c, 9, 42, 38
12, 3702, Note_on_c, 9, 42, 0
12, 3720, Note_on_c, 9, 42, 54
12, 3745, Note_on_c, 9, 42, 0
12, 3760, Note_on_c, 9, 42, 50
12, 3781, Note_on_c, 9, 42, 0
12, 3800, Note_on_c, 9, 42, 50
12, 3826, Note_on_c, 9, 42, 0
12, 3840, Note_on_c, 9, 42, 54
12, 3862, Note_on_c, 9, 42, 0
12, 3880, Note_on_c, 9, 42, 42
12, 3899, Note_on_c, 9, 42, 0
12, 3920, Note_on_c, 9, 42, 34
12, 3940, Note_on_c, 9, 42, 0
12, 3960, Note_on_c, 9, 42, 54
12, 3979, Note_on_c, 9, 42, 0
12, 4000, Note_on_c, 9, 42, 42
12, 4022, Note_on_c, 9, 42, 0
12, 4040, Note_on_c, 9, 42, 54
12, 4063, Note_on_c, 9, 42, 0
12, 4080, Note_on_c, 9, 42, 54
12, 4104, Note_on_c, 9, 42, 0
12, 4120, Note_on_c, 9, 42, 54
12, 4142, Note_on_c, 9, 42, 0
12, 4160, Note_on_c, 9, 42, 50
12, 4186, Note_on_c, 9, 42, 0
12, 4200, Note_on_c, 9, 42, 54
12, 4224, Note_on_c, 9, 42, 0
12, 4240, Note_on_c, 9, 42, 54
12, 4260, Note_on_c, 9, 42, 0
12, 4280, Note_on_c, 9, 42, 72
12, 4300, Note_on_c, 9, 42, 0
12, 4320, Note_on_c, 9, 42, 50
12, 4342, Note_on_c, 9, 42, 0
12, 4360, Note_on_c, 9, 42, 38
12, 4381, Note_on_c, 9, 42, 0
12, 4400, Note_on_c, 9, 42, 50
12, 4420, Note_on_c, 9, 42, 0
12, 4440, Note_on_c, 9, 42, 54
12, 4459, Note_on_c, 9, 42, 0
12, 4480, Note_on_c, 9, 42, 54
12, 4500, Note_on_c, 9, 42, 0
12, 4520, Note_on_c, 9, 42, 46
12, 4542, Note_on_c, 9, 42, 0
12, 4560, Note_on_c, 9, 42, 54
12, 4582, Note_on_c, 9, 42, 0
12, 4600, Note_on_c, 9, 42, 46
12, 4622, Note_on_c, 9, 42, 0
12, 4640, Note_on_c, 9, 42, 50
12, 4656, Note_on_c, 9, 42, 0
12, 4680, Note_on_c, 9, 42, 63
12, 4704, Note_on_c, 9, 42, 0
12, 4720, Note_on_c, 9, 42, 54
12, 4738, Note_on_c, 9, 42, 0
12, 4760, Note_on_c, 9, 42, 54
12, 4786, Note_on_c, 9, 42, 0
12, 4800, Note_on_c, 9, 42, 54
12, 4822, Note_on_c, 9, 42, 0
12, 4840, Note_on_c, 9, 42, 50
12, 4863, Note_on_c, 9, 42, 0
12, 4880, Note_on_c, 9, 42, 50
12, 4901, Note_on_c, 9, 42, 0
12, 4920, Note_on_c, 9, 42, 50
12, 4944, Note_on_c, 9, 42, 0
12, 4960, Note_on_c, 9, 42, 50
12, 4984, Note_on_c, 9, 42, 0
12, 5000, Note_on_c, 9, 42, 50
12, 5025, Note_on_c, 9, 42, 0
12, 5040, Note_on_c, 9, 42, 50
12, 5064, Note_on_c, 9, 42, 0
12, 5080, Note_on_c, 9, 42, 46
12, 5102, Note_on_c, 9, 42, 0
12, 5120, Note_on_c, 9, 42, 38
12, 5143, Note_on_c, 9, 42, 0
12, 5160, Note_on_c, 9, 42, 46
12, 5187, Note_on_c, 9, 42, 0
12, 5200, Note_on_c, 9, 42, 30
12, 5222, Note_on_c, 9, 42, 0
12, 5240, Note_on_c, 9, 42, 38
12, 5261, Note_on_c, 9, 42, 0
12, 5280, Note_on_c, 9, 42, 46
12, 5301, Note_on_c, 9, 42, 0
12, 5320, Note_on_c, 9, 42, 22
12, 5342, Note_on_c, 9, 42, 0
12, 5360, Note_on_c, 9, 42, 30
12, 5383, Note_on_c, 9, 42, 0
12, 5400, Note_on_c, 9, 42, 38
12, 5423, Note_on_c, 9, 42, 0
12, 5440, Note_on_c, 9, 42, 38
12, 5459, Note_on_c, 9, 42, 0
12, 5480, Note_on_c, 9, 42, 46
12, 5499, Note_on_c, 9, 42, 0
12, 5520, Note_on_c, 9, 42, 38
12, 5542, Note_on_c, 9, 42, 0
12, 5560, Note_on_c, 9, 42, 42
12, 5582, Note_on_c, 9, 42, 0
12, 5600, Note_on_c, 9, 42, 38
12, 5622, Note_on_c, 9, 42, 0
12, 5640, Note_on_c, 9, 42, 54
12, 5665, Note_on_c, 9, 42, 0
12, 5680, Note_on_c, 9, 42, 50
12, 5701, Note_on_c, 9, 42, 0
12, 5720, Note_on_c, 9, 42, 50
12, 5746, Note_on_c, 9, 42, 0
12, 5760, Note_on_c, 9, 42, 54
12, 5782, Note_on_c, 9, 42, 0
12, 5800, Note_on_c, 9, 42, 42
12, 5819, Note_on_c, 9, 42, 0
12, 5840, Note_on_c, 9, 42, 34
12, 5860, Note_on_c, 9, 42, 0
12, 5880, Note_on_c, 9, 42, 54
12, 5899, Note_on_c, 9, 42, 0
12, 5920, Note_on_c, 9, 42, 42
12, 5942, Note_on_c, 9, 42, 0
12, 5960, Note_on_c, 9, 42, 54
12, 5983, Note_on_c, 9, 42, 0
12, 6000, Note_on_c, 9, 42, 54
12, 6024, Note_on_c, 9, 42, 0
12, 6040, Note_on_c, 9, 42, 54
12, 6062, Note_on_c, 9, 42, 0
12, 6080, Note_on_c, 9, 42, 50
12, 6106, Note_on_c, 9, 42, 0
12, 6120, Note_on_c, 9, 42, 54
12, 6144, Note_on_c, 9, 42, 0
12, 6160, Note_on_c, 9, 42, 54
12, 6180, Note_on_c, 9, 42, 0
12, 6200, Note_on_c, 9, 42, 72
12, 6220, Note_on_c, 9, 42, 0
12, 6240, Note_on_c, 9, 42, 50
12, 6262, Note_on_c, 9, 42, 0
12, 6280, Note_on_c, 9, 42, 38
12, 6301, Note_on_c, 9, 42, 0
12, 6320, Note_on_c, 9, 42, 50
12, 6340, Note_on_c, 9, 42, 0
12, 6360, Note_on_c, 9, 42, 54
12, 6379, Note_on_c, 9, 42, 0
12, 6400, Note_on_c, 9, 42, 54
12, 6420, Note_on_c, 9, 42, 0
12, 6440, Note_on_c, 9, 42, 46
12, 6462, Note_on_c, 9, 42, 0
12, 6480, Note_on_c, 9, 42, 54
12, 6502, Note_on_c, 9, 42, 0
12, 6520, Note_on_c, 9, 42, 46
12, 6542, Note_on_c, 9, 42, 0
12, 6560, Note_on_c, 9, 42, 50
12, 6576, Note_on_c, 9, 42, 0
12, 6600, Note_on_c, 9, 42, 63
12, 6624, Note_on_c, 9, 42, 0
12, 6640, Note_on_c, 9, 42, 54
12, 6658, Note_on_c, 9, 42, 0
12, 6680, Note_on_c, 9, 42, 54
12, 6706, Note_on_c, 9, 42, 0
12, 6720, Note_on_c, 9, 42, 54
12, 6742, Note_on_c, 9, 42, 0
12, 6760, Note_on_c, 9, 42, 50
12, 6783, Note_on_c, 9, 42, 0
12, 6800, Note_on_c, 9, 42, 50
12, 6821, Note_on_c, 9, 42, 0
12, 6840, Note_on_c, 9, 42, 50
12, 6864, Note_on_c, 9, 42, 0
12, 6880, Note_on_c, 9, 42, 50
12, 6904, Note_on_c, 9, 42, 0
12, 6920, Note_on_c, 9, 42, 50
12, 6945, Note_on_c, 9, 42, 0
12, 6960, Note_on_c, 9, 42, 50
12, 6984, Note_on_c, 9, 42, 0
12, 7000, Note_on_c, 9, 42, 46
12, 7022, Note_on_c, 9, 42, 0
12, 7040, Note_on_c, 9, 42, 38
12, 7063, Note_on_c, 9, 42, 0
12, 7080, Note_on_c, 9, 42, 46
12, 7107, Note_on_c, 9, 42, 0
12, 7120, Note_on_c, 9, 42, 30
12, 7142, Note_on_c, 9, 42, 0
12, 7160, Note_on_c, 9, 42, 38
12, 7181, Note_on_c, 9, 42, 0
12, 7200, Note_on_c, 9, 42, 46
12, 7221, Note_on_c, 9, 42, 0
12, 7240, Note_on_c, 9, 42, 22
12, 7262, Note_on_c, 9, 42, 0
12, 7280, Note_on_c, 9, 42, 30
12, 7303, Note_on_c, 9, 42, 0
12, 7320, Note_on_c, 9, 42, 38
12, 7343, Note_on_c, 9, 42, 0
12, 7360, Note_on_c, 9, 42, 38
12, 7379, Note_on_c, 9, 42, 0
12, 7400, Note_on_c, 9, 42, 46
12, 7419, Note_on_c, 9, 42, 0
12, 7440, Note_on_c, 9, 42, 38
12, 7462, Note_on_c, 9, 42, 0
12, 7480, Note_on_c, 9, 42, 42
12, 7502, Note_on_c, 9, 42, 0
12, 7520, Note_on_c, 9, 42, 38
12, 7542, Note_on_c, 9, 42, 0
12, 7560, Note_on_c, 9, 42, 54
12, 7585, Note_on_c, 9, 42, 0
12, 7600, Note_on_c, 9, 42, 50
12, 7621, Note_on_c, 9, 42, 0
12, 7640, Note_on_c, 9, 42, 50
12, 7666, Note_on_c, 9, 42, 0
12, 7680, Note_on_c, 9, 42, 54
12, 7702, Note_on_c, 9, 42, 0
12, 7720, Note_on_c, 9, 42, 42
12, 7739, Note_on_c, 9, 42, 0
12, 7760, Note_on_c, 9, 42, 34
12, 7780, Note_on_c, 9, 42, 0
12, 7800, Note_on_c, 9, 42, 54
12, 7819, Note_on_c, 9, 42, 0
12, 7840, Note_on_c, 9, 42, 42
12, 7862, Note_on_c, 9, 42, 0
12, 7880, Note_on_c, 9, 42, 54
12, 7903, Note_on_c, 9, 42, 0
12, 7920, Note_on_c, 9, 42, 54
12, 7944, Note_on_c, 9, 42, 0
12, 7960, Note_on_c, 9, 42, 54
12, 7982, Note_on_c, 9, 42, 0
12, 8000, Note_on_c, 9, 42, 50
12, 8026, Note_on_c, 9, 42, 0
12, 8040, Note_on_c, 9, 42, 54
12, 8064, Note_on_c, 9, 42, 0
12, 8080, Note_on_c, 9, 42, 54
12, 8100, Note_on_c, 9, 42, 0
12, 8120, Note_on_c, 9, 42, 72
12, 8140, Note_on_c, 9, 42, 0
12, 8160, Note_on_c, 9, 42, 50
12, 8182, Note_on_c, 9, 42, 0
12, 8200, Note_on_c, 9, 42, 38
12, 8221, Note_on_c, 9, 42, 0
12, 8240, Note_on_c, 9, 42, 50
12, 8260, Note_on_c, 9, 42, 0
12, 8280, Note_on_c, 9, 42, 54
12, 8299, Note_on_c, 9, 42, 0
12, 8320, Note_on_c, 9, 42, 54
12, 8340, Note_on_c, 9, 42, 0
12, 8360, Note_on_c, 9, 42, 46
12, 8382, Note_on_c, 9, 42, 0
12, 8400, Note_on_c, 9, 42, 54
12, 8422, Note_on_c, 9, 42, 0
12, 8440, Note_on_c, 9, 42, 46
12, 8462, Note_on_c, 9, 42, 0
12, 8480, Note_on_c, 9, 42, 50
12, 8496, Note_on_c, 9, 42, 0
12, 8520, Note_on_c, 9, 42, 63
12, 8544, Note_on_c, 9, 42, 0
12, 8560, Note_on_c, 9, 42, 54
12, 8578, Note_on_c, 9, 42, 0
12, 8600, Note_on_c, 9, 42, 54
12, 8626, Note_on_c, 9, 42, 0
12, 8640, Note_on_c, 9, 42, 54
12, 8662, Note_on_c, 9, 42, 0
12, 8680, Note_on_c, 9, 42, 50
12, 8703, Note_on_c, 9, 42, 0
12, 8720, Note_on_c, 9, 42, 50
12, 8741, Note_on_c, 9, 42, 0
12, 8760, Note_on_c, 9, 42, 50
12, 8784, Note_on_c, 9, 42, 0
12, 8800, Note_on_c, 9, 42, 50
12, 8824, Note_on_c, 9, 42, 0
12, 8840, Note_on_c, 9, 42, 50
12, 8865, Note_on_c, 9, 42, 0
12, 8880, Note_on_c, 9, 42, 50
12, 8904, Note_on_c, 9, 42, 0
12, 8920, Note_on_c, 9, 42, 46
12, 8942, Note_on_c, 9, 42, 0
12, 8960, Note_on_c, 9, 42, 38
12, 8983, Note_on_c, 9, 42, 0
12, 9000, Note_on_c, 9, 42, 46
12, 9027, Note_on_c, 9, 42, 0
12, 9040, Note_on_c, 9, 42, 30
12, 9062, Note_on_c, 9, 42, 0
12, 9080, Note_on_c, 9, 42, 38
12, 9101, Note_on_c, 9, 42, 0
12, 9200, Note_on_c, 9, 42, 46
12, 9223, Note_on_c, 9, 42, 0
12, 9240, Note_on_c, 9, 42, 26
12, 9269, Note_on_c, 9, 42, 0
12, 9320, Note_on_c, 9, 42, 50
12, 9407, Note_on_c, 9, 42, 0
12, 9440, Note_on_c, 9, 42, 54
12, 9463, Note_on_c, 9, 42, 0
12, 9480, Note_on_c, 9, 42, 38
12, 9499, Note_on_c, 9, 42, 0
12, 9520, Note_on_c, 9, 42, 38
12, 9543, Note_on_c, 9, 42, 0
12, 9560, Note_on_c, 9, 42, 26
12, 9582, Note_on_c, 9, 42, 0
12, 9600, Note_on_c, 9, 42, 46
12, 9641, Note_on_c, 9, 42, 0
12, 9680, Note_on_c, 9, 42, 21
12, 9691, Note_on_c, 9, 42, 0
12, 9720, Note_on_c, 9, 42, 34
12, 9771, Note_on_c, 9, 42, 0
12, 9800, Note_on_c, 9, 42, 21
12, 9827, Note_on_c, 9, 42, 0
12, 9840, Note_on_c, 9, 42, 42
12, 9889, Note_on_c, 9, 42, 0
12, 9920, Note_on_c, 9, 42, 54
12, 9955, Note_on_c, 9, 42, 0
12, 9960, Note_on_c, 9, 42, 30
12, 9978, Note_on_c, 9, 42, 0
12, 10000, Note_on_c, 9, 42, 16
12, 10069, Note_on_c, 9, 42, 0
12, 10080, Note_on_c, 9, 42, 50
12, 10119, Note_on_c, 9, 42, 0
12, 10160, Note_on_c, 9, 42, 42
12, 10179, Note_on_c, 9, 42, 0
12, 10200, Note_on_c, 9, 42, 34
12, 10261, Note_on_c, 9, 42, 0
12, 10280, Note_on_c, 9, 42, 63
12, 10305, Note_on_c, 9, 42, 0
12, 10320, Note_on_c, 9, 42, 22
12, 10378, Note_on_c, 9, 42, 0
12, 10400, Note_on_c, 9, 46, 54
12, 10431, Note_on_c, 9, 46, 0
12, 10440, Note_on_c, 9, 42, 34
12, 10473, Note_on_c, 9, 42, 0
12, 10520, Note_on_c, 9, 42, 38
12, 10601, Note_on_c, 9, 42, 0
12, 10640, Note_on_c, 9, 42, 63
12, 10666, Note_on_c, 9, 42, 0
12, 10680, Note_on_c, 9, 42, 38
12, 10738, Note_on_c, 9, 42, 0
12, 10760, Note_on_c, 9, 42, 63
12, 10787, Note_on_c, 9, 42, 0
12, 10800, Note_on_c, 9, 42, 22
12, 10824, Note_on_c, 9, 42, 0
12, 10840, Note_on_c, 9, 42, 38
12, 10857, Note_on_c, 9, 42, 0
12, 10880, Note_on_c, 9, 42, 46
12, 10900, Note_on_c, 9, 42, 0
12, 10920, Note_on_c, 9, 42, 54
12, 10966, Note_on_c, 9, 42, 0
12, 11000, Note_on_c, 9, 42, 50
12, 11034, Note_on_c, 9, 42, 0
12, 11040, Note_on_c, 9, 42, 19
12, 11062, Note_on_c, 9, 42, 0
12, 11080, Note_on_c, 9, 42, 22
12, 11103, Note_on_c, 9, 42, 0
12, 11120, Note_on_c, 9, 42, 50
12, 11135, Note_on_c, 9, 42, 0
12, 11160, Note_on_c, 9, 42, 63
12, 11215, Note_on_c, 9, 42, 0
12, 11240, Note_on_c, 9, 42, 34
12, 11259, Note_on_c, 9, 42, 0
12, 11280, Note_on_c, 9, 42, 34
12, 11334, Note_on_c, 9, 42, 0
12, 11360, Note_on_c, 9, 42, 63
12, 11386, Note_on_c, 9, 42, 0
12, 11400, Note_on_c, 9, 42, 63
12, 11454, Note_on_c, 9, 42, 0
12, 11480, Note_on_c, 9, 42, 38
12, 11502, Note_on_c, 9, 42, 0
12, 11520, Note_on_c, 9, 42, 42
12, 11558, Note_on_c, 9, 42, 0
12, 11600, Note_on_c, 9, 42, 46
12, 11620, Note_on_c, 9, 42, 0
12, 11640, Note_on_c, 9, 42, 20
12, 11667, Note_on_c, 9, 42, 0
12, 11680, Note_on_c, 9, 42, 26
12, 11697, Note_on_c, 9, 42, 0
12, 11720, Note_on_c, 9, 42, 34
12, 11743, Note_on_c, 9, 42, 0
12, 11760, Note_on_c, 9, 42, 46
12, 11801, Note_on_c, 9, 42, 0
12, 11840, Note_on_c, 9, 42, 50
12, 11869, Note_on_c, 9, 42, 0
12, 11880, Note_on_c, 9, 42, 42
12, 11922, Note_on_c, 9, 42, 0
12, 11960, Note_on_c, 9, 42, 72
12, 11992, Note_on_c, 9, 42, 0
12, 12000, Note_on_c, 9, 42, 38
12, 12043, Note_on_c, 9, 42, 0
12, 12080, Note_on_c, 9, 42, 50
12, 12116, Note_on_c, 9, 42, 0
12, 12120, Note_on_c, 9, 42, 20
12, 12175, Note_on_c, 9, 42, 0
12, 12200, Note_on_c, 9, 42, 63
12, 12296, Note_on_c, 9, 42, 0
12, 12320, Note_on_c, 9, 42, 50
12, 12349, Note_on_c, 9, 42, 0
12, 12360, Note_on_c, 9, 42, 50
12, 12379, Note_on_c, 9, 42, 0
12, 12400, Note_on_c, 9, 42, 38
12, 12422, Note_on_c, 9, 42, 0
12, 12440, Note_on_c, 9, 42, 30
12, 12455, Note_on_c, 9, 42, 0
12, 12480, Note_on_c, 9, 42, 54
12, 12536, Note_on_c, 9, 42, 0
12, 12560, Note_on_c, 9, 42, 38
12, 12575, Note_on_c, 9, 42, 0
12, 12600, Note_on_c, 9, 42, 50
12, 12642, Note_on_c, 9, 42, 0
12, 12680, Note_on_c, 9, 42, 38
12, 12693, Note_on_c, 9, 42, 0
12, 12720, Note_on_c, 9, 42, 21
12, 12780, Note_on_c, 9, 42, 0
12, 12800, Note_on_c, 9, 46, 72
12, 12824, Note_on_c, 9, 46, 0
12, 12840, Note_on_c, 9, 42, 6
12, 12843, Note_on_c, 9, 42, 0
12, 12920, Note_on_c, 9, 42, 63
12, 12950, Note_on_c, 9, 42, 0
12, 12960, Note_on_c, 9, 42, 7
12, 12975, Note_on_c, 9, 42, 0
12, 13000, Note_on_c, 9, 42, 26
12, 13015, Note_on_c, 9, 42, 0
12, 13040, Note_on_c, 9, 42, 22
12, 13056, Note_on_c, 9, 42, 0
12, 13080, Note_on_c, 9, 42, 54
12, 13119, Note_on_c, 9, 42, 0
12, 13160, Note_on_c, 9, 42, 54
12, 13180, Note_on_c, 9, 42, 0
12, 13200, Note_on_c, 9, 42, 54
12, 13258, Note_on_c, 9, 42, 0
12, 13280, Note_on_c, 9, 42, 21
12, 13295, Note_on_c, 9, 42, 0
12, 13320, Note_on_c, 9, 46, 63
12, 13381, Note_on_c, 9, 46, 0
12, 13400, Note_on_c, 9, 42, 63
12, 13414, Note_on_c, 9, 42, 0
12, 13440, Note_on_c, 9, 42, 22
12, 13454, Note_on_c, 9, 42, 0
12, 13520, Note_on_c, 9, 42, 38
12, 13534, Note_on_c, 9, 42, 0
12, 13560, Note_on_c, 9, 42, 50
12, 13616, Note_on_c, 9, 42, 0
12, 13640, Note_on_c, 9, 42, 50
12, 13655, Note_on_c, 9, 42, 0
12, 13680, Note_on_c, 9, 42, 50
12, 13741, Note_on_c, 9, 42, 0
12, 13760, Note_on_c, 9, 42, 38
12, 13777, Note_on_c, 9, 42, 0
12, 13800, Note_on_c, 9, 42, 54
12, 13853, Note_on_c, 9, 42, 0
12, 13880, Note_on_c, 9, 42, 63
12, 13900, Note_on_c, 9, 42, 0
12, 13920, Note_on_c, 9, 42, 46
12, 13956, Note_on_c, 9, 42, 0
12, 14000, Note_on_c, 9, 42, 50
12, 14015, Note_on_c, 9, 42, 0
12, 14040, Note_on_c, 9, 42, 34
12, 14082, Note_on_c, 9, 42, 0
12, 14120, Note_on_c, 9, 42, 63
12, 14140, Note_on_c, 9, 42, 0
12, 14160, Note_on_c, 9, 42, 38
12, 14202, Note_on_c, 9, 42, 0
12, 14240, Note_on_c, 9, 42, 63
12, 14258, Note_on_c, 9, 42, 0
12, 14280, Note_on_c, 9, 42, 54
12, 14332, Note_on_c, 9, 42, 0
12, 14360, Note_on_c, 9, 42, 54
12, 14437, Note_on_c, 9, 42, 0
12, 14480, Note_on_c, 9, 42, 54
12, 14502, Note_on_c, 9, 42, 0
12, 14520, Note_on_c, 9, 42, 38
12, 14573, Note_on_c, 9, 42, 0
12, 14600, Note_on_c, 9, 42, 54
12, 14659, Note_on_c, 9, 42, 0
12, 14680, Note_on_c, 9, 42, 38
12, 14697, Note_on_c, 9, 42, 0
12, 14720, Note_on_c, 9, 42, 30
12, 14733, Note_on_c, 9, 42, 0
12, 14760, Note_on_c, 9, 42, 54
12, 14805, Note_on_c, 9, 42, 0
12, 14840, Note_on_c, 9, 42, 54
12, 14912, Note_on_c, 9, 42, 0
12, 15000, Note_on_c, 9, 42, 54
12, 15055, Note_on_c, 9, 42, 0
12, 15080, Note_on_c, 9, 42, 22
12, 15106, Note_on_c, 9, 42, 0
12, 15120, Note_on_c, 9, 42, 38
12, 15143, Note_on_c, 9, 42, 0
12, 15160, Note_on_c, 9, 42, 38
12, 15179, Note_on_c, 9, 42, 0
12, 15200, Note_on_c, 9, 42, 54
12, 15220, Note_on_c, 9, 42, 0
12, 15240, Note_on_c, 9, 42, 81
12, 15275, Note_on_c, 9, 42, 0
12, 15320, Note_on_c, 9, 46, 72
12, 15350, Note_on_c, 9, 46, 0
12, 15360, Note_on_c, 9, 42, 30
12, 15377, Note_on_c, 9, 42, 0
12, 15440, Note_on_c, 9, 42, 21
12, 15453, Note_on_c, 9, 42, 0
12, 15480, Note_on_c, 9, 42, 26
12, 15525, Note_on_c, 9, 42, 0
12, 15560, Note_on_c, 9, 42, 54
12, 15583, Note_on_c, 9, 42, 0
12, 15600, Note_on_c, 9, 42, 38
12, 15643, Note_on_c, 9, 42, 0
12, 15680, Note_on_c, 9, 42, 42
12, 15695, Note_on_c, 9, 42, 0
12, 15720, Note_on_c, 9, 42, 42
12, 15773, Note_on_c, 9, 42, 0
12, 15800, Note_on_c, 9, 42, 54
12, 15831, Note_on_c, 9, 42, 0
12, 15840, Note_on_c, 9, 42, 26
12, 15885, Note_on_c, 9, 42, 0
12, 15920, Note_on_c, 9, 42, 54
12, 15943, Note_on_c, 9, 42, 0
12, 15960, Note_on_c, 9, 42, 38
12, 16008, Note_on_c, 9, 42, 0
12, 16040, Note_on_c, 9, 42, 50
12, 16066, Note_on_c, 9, 42, 0
12, 16080, Note_on_c, 9, 42, 34
12, 16102, Note_on_c, 9, 42, 0
12, 16120, Note_on_c, 9, 42, 13
12, 16134, Note_on_c, 9, 42, 0
12, 16160, Note_on_c, 9, 42, 38
12, 16178, Note_on_c, 9, 42, 0
12, 16200, Note_on_c, 9, 42, 63
12, 16250, Note_on_c, 9, 42, 0
12, 16280, Note_on_c, 9, 42, 50
12, 16304, Note_on_c, 9, 42, 0
12, 16320, Note_on_c, 9, 42, 34
12, 16378, Note_on_c, 9, 42, 0
12, 16400, Note_on_c, 9, 42, 50
12, 16429, Note_on_c, 9, 42, 0
12, 16440, Note_on_c, 9, 42, 54
12, 16495, Note_on_c, 9, 42, 0
12, 16520, Note_on_c, 9, 42, 46
12, 16583, Note_on_c, 9, 42, 0
12, 16600, Note_on_c, 9, 42, 30
12, 16620, Note_on_c, 9, 42, 0
12, 16640, Note_on_c, 9, 42, 26
12, 16661, Note_on_c, 9, 42, 0
12, 16680, Note_on_c, 9, 42, 63
12, 16731, Note_on_c, 9, 42, 0
12, 16760, Note_on_c, 9, 42, 54
12, 16788, Note_on_c, 9, 42, 0
12, 16800, Note_on_c, 9, 42, 30
12, 16853, Note_on_c, 9, 42, 0
12, 16880, Note_on_c, 9, 42, 63
12, 16909, Note_on_c, 9, 42, 0
12, 16920, Note_on_c, 9, 42, 30
12, 16977, Note_on_c, 9, 42, 0
12, 17000, Note_on_c, 9, 42, 63
12, 17088, Note_on_c, 9, 42, 0
12, 17120, Note_on_c, 9, 42, 81
12, 17153, Note_on_c, 9, 42, 0
12, 17160, Note_on_c, 9, 42, 26
12, 17184, Note_on_c, 9, 42, 0
12, 17240, Note_on_c, 9, 42, 72
12, 17351, Note_on_c, 9, 42, 0
12, 17360, Note_on_c, 9, 46, 63
12, 17400, Note_on_c, 9, 42, 26
12, 17409, Note_on_c, 9, 46, 0
12, 17465, Note_on_c, 9, 42, 0
12, 17480, Note_on_c, 9, 46, 54
12, 17520, Note_on_c, 9, 42, 11
12, 17555, Note_on_c, 9, 42, 0
12, 17559, Note_on_c, 9, 46, 0
12, 17600, Note_on_c, 9, 46, 46
12, 17640, Note_on_c, 9, 42, 30
12, 17652, Note_on_c, 9, 46, 0
12, 17681, Note_on_c, 9, 42, 0
12, 17720, Note_on_c, 9, 46, 42
12, 17738, Note_on_c, 9, 46, 0
12, 17760, Note_on_c, 9, 42, 42
12, 17800, Note_on_c, 9, 42, 0
12, 17840, Note_on_c, 9, 42, 21
12, 17862, Note_on_c, 9, 42, 0
12, 17880, Note_on_c, 9, 42, 46
12, 17906, Note_on_c, 9, 42, 0
12, 17960, Note_on_c, 9, 42, 50
12, 17978, Note_on_c, 9, 42, 0
12, 18000, Note_on_c, 9, 42, 42
12, 18022, Note_on_c, 9, 42, 0
12, 18040, Note_on_c, 9, 42, 10
12, 18066, Note_on_c, 9, 42, 0
12, 18080, Note_on_c, 9, 42, 30
12, 18095, Note_on_c, 9, 42, 0
12, 18120, Note_on_c, 9, 42, 46
12, 18172, Note_on_c, 9, 42, 0
12, 18200, Note_on_c, 9, 42, 54
12, 18223, Note_on_c, 9, 42, 0
12, 18240, Note_on_c, 9, 42, 22
12, 18265, Note_on_c, 9, 42, 0
12, 18280, Note_on_c, 9, 42, 34
12, 18304, Note_on_c, 9, 42, 0
12, 18320, Note_on_c, 9, 42, 42
12, 18332, Note_on_c, 9, 42, 0
12, 18360, Note_on_c, 9, 42, 54
12, 18406, Note_on_c, 9, 42, 0
12, 18440, Note_on_c, 9, 42, 46
12, 18462, Note_on_c, 9, 42, 0
12, 18480, Note_on_c, 9, 42, 22
12, 18525, Note_on_c, 9, 42, 0
12, 18560, Note_on_c, 9, 42, 42
12, 18589, Note_on_c, 9, 42, 0
12, 18600, Note_on_c, 9, 42, 38
12, 18656, Note_on_c, 9, 42, 0
12, 18680, Note_on_c, 9, 42, 54
12, 18754, Note_on_c, 9, 42, 0
12, 18800, Note_on_c, 9, 42, 54
12, 18822, Note_on_c, 9, 42, 0
12, 18840, Note_on_c, 9, 42, 38
12, 18891, Note_on_c, 9, 42, 0
12, 18920, Note_on_c, 9, 42, 54
12, 18944, Note_on_c, 9, 42, 0
12, 18960, Note_on_c, 9, 42, 34
12, 18978, Note_on_c, 9, 42, 0
12, 19000, Note_on_c, 9, 42, 34
12, 19025, Note_on_c, 9, 42, 0
12, 19040, Note_on_c, 9, 42, 42
12, 19058, Note_on_c, 9, 42, 0
12, 19080, Note_on_c, 9, 42, 50
12, 19141, Note_on_c, 9, 42, 0
12, 19160, Note_on_c, 9, 42, 38
12, 19171, Note_on_c, 9, 42, 0
12, 19200, Note_on_c, 9, 42, 50
12, 19265, Note_on_c, 9, 42, 0
12, 19280, Note_on_c, 9, 42, 50
12, 19294, Note_on_c, 9, 42, 0
12, 19320, Note_on_c, 9, 42, 46
12, 19371, Note_on_c, 9, 42, 0
12, 19400, Note_on_c, 9, 42, 38
12, 19418, Note_on_c, 9, 42, 0
12, 19440, Note_on_c, 9, 42, 50
12, 19512, Note_on_c, 9, 42, 0
12, 19520, Note_on_c, 9, 46, 54
12, 19560, Note_on_c, 9, 46, 0
12, 19560, Note_on_c, 9, 42, 16
12, 19572, Note_on_c, 9, 42, 0
12, 19640, Note_on_c, 9, 42, 46
12, 19667, Note_on_c, 9, 42, 0
12, 19680, Note_on_c, 9, 42, 15
12, 19694, Note_on_c, 9, 42, 0
12, 19720, Note_on_c, 9, 42, 26
12, 19738, Note_on_c, 9, 42, 0
12, 19760, Note_on_c, 9, 42, 30
12, 19771, Note_on_c, 9, 42, 0
12, 19800, Note_on_c, 9, 42, 46
12, 19847, Note_on_c, 9, 42, 0
12, 19880, Note_on_c, 9, 42, 46
12, 19889, Note_on_c, 9, 42, 0
12, 19920, Note_on_c, 9, 42, 34
12, 19966, Note_on_c, 9, 42, 0
12, 20000, Note_on_c, 9, 42, 63
12, 20016, Note_on_c, 9, 42, 0
12, 20040, Note_on_c, 9, 42, 50
12, 20098, Note_on_c, 9, 42, 0
12, 20120, Note_on_c, 9, 42, 54
12, 20138, Note_on_c, 9, 42, 0
12, 20160, Note_on_c, 9, 42, 50
12, 20194, Note_on_c, 9, 42, 0
12, 20200, Note_on_c, 9, 42, 6
12, 20215, Note_on_c, 9, 42, 0
12, 20240, Note_on_c, 9, 42, 34
12, 20259, Note_on_c, 9, 42, 0
12, 20280, Note_on_c, 9, 42, 30
12, 20322, Note_on_c, 9, 42, 0
12, 20360, Note_on_c, 9, 42, 81
12, 20389, Note_on_c, 9, 42, 0
12, 20400, Note_on_c, 9, 42, 30
12, 20428, Note_on_c, 9, 42, 0
12, 20440, Note_on_c, 9, 42, 42
12, 20462, Note_on_c, 9, 42, 0
12, 20480, Note_on_c, 9, 42, 38
12, 20498, Note_on_c, 9, 42, 0
12, 20520, Note_on_c, 9, 42, 63
12, 20575, Note_on_c, 9, 42, 0
12, 20600, Note_on_c, 9, 42, 63
12, 20622, Note_on_c, 9, 42, 0
12, 20640, Note_on_c, 9, 42, 19
12, 20678, Note_on_c, 9, 42, 0
12, 20720, Note_on_c, 9, 42, 54
12, 20741, Note_on_c, 9, 42, 0
12, 20760, Note_on_c, 9, 42, 6
12, 20814, Note_on_c, 9, 42, 0
12, 20840, Note_on_c, 9, 42, 54
12, 20921, Note_on_c, 9, 42, 0
12, 20960, Note_on_c, 9, 42, 72
12, 20985, Note_on_c, 9, 42, 0
12, 21000, Note_on_c, 9, 42, 46
12, 21047, Note_on_c, 9, 42, 0
12, 21080, Note_on_c, 9, 42, 63
12, 21102, Note_on_c, 9, 42, 0
12, 21120, Note_on_c, 9, 42, 38
12, 21143, Note_on_c, 9, 42, 0
12, 21160, Note_on_c, 9, 42, 21
12, 21176, Note_on_c, 9, 42, 0
12, 21200, Note_on_c, 9, 42, 38
12, 21216, Note_on_c, 9, 42, 0
12, 21240, Note_on_c, 9, 42, 63
12, 21301, Note_on_c, 9, 42, 0
12, 21320, Note_on_c, 9, 42, 30
12, 21345, Note_on_c, 9, 42, 0
12, 21360, Note_on_c, 9, 42, 63
12, 21423, Note_on_c, 9, 42, 0
12, 21440, Note_on_c, 9, 46, 54
12, 21470, Note_on_c, 9, 46, 0
12, 21480, Note_on_c, 9, 42, 42
12, 21492, Note_on_c, 9, 42, 0
12, 21560, Note_on_c, 9, 42, 46
12, 21583, Note_on_c, 9, 42, 0
12, 21600, Note_on_c, 9, 42, 38
12, 21621, Note_on_c, 9, 42, 0
12, 21640, Note_on_c, 9, 42, 38
12, 21657, Note_on_c, 9, 42, 0
12, 21680, Note_on_c, 9, 42, 34
12, 21697, Note_on_c, 9, 42, 0
12, 21720, Note_on_c, 9, 42, 50
12, 21771, Note_on_c, 9, 42, 0
12, 21800, Note_on_c, 9, 42, 50
12, 21814, Note_on_c, 9, 42, 0
12, 21840, Note_on_c, 9, 42, 26
12, 21881, Note_on_c, 9, 42, 0
12, 21920, Note_on_c, 9, 46, 54
12, 21952, Note_on_c, 9, 46, 0
12, 21960, Note_on_c, 9, 42, 42
12, 21976, Note_on_c, 9, 42, 0
12, 22040, Note_on_c, 9, 42, 38
12, 22058, Note_on_c, 9, 42, 0
12, 22080, Note_on_c, 9, 42, 22
12, 22101, Note_on_c, 9, 42, 0
12, 22120, Note_on_c, 9, 42, 22
12, 22136, Note_on_c, 9, 42, 0
12, 22160, Note_on_c, 9, 42, 38
12, 22181, Note_on_c, 9, 42, 0
12, 22200, Note_on_c, 9, 42, 54
12, 22261, Note_on_c, 9, 42, 0
12, 22280, Note_on_c, 9, 42, 38
12, 22300, Note_on_c, 9, 42, 0
12, 22320, Note_on_c, 9, 42, 30
12, 22374, Note_on_c, 9, 42, 0
12, 22400, Note_on_c, 9, 42, 30
12, 22418, Note_on_c, 9, 42, 0
12, 22440, Note_on_c, 9, 42, 54
12, 22483, Note_on_c, 9, 42, 0
12, 22520, Note_on_c, 9, 42, 54
12, 22533, Note_on_c, 9, 42, 0
12, 22560, Note_on_c, 9, 42, 22
12, 22606, Note_on_c, 9, 42, 0
12, 22640, Note_on_c, 9, 42, 63
12, 22658, Note_on_c, 9, 42, 0
12, 22680, Note_on_c, 9, 42, 22
12, 22736, Note_on_c, 9, 42, 0
12, 22760, Note_on_c, 9, 42, 72
12, 22781, Note_on_c, 9, 42, 0
12, 22800, Note_on_c, 9, 42, 42
12, 22840, Note_on_c, 9, 42, 0
12, 22880, Note_on_c, 9, 42, 50
12, 22907, Note_on_c, 9, 42, 0
12, 22920, Note_on_c, 9, 42, 42
12, 22973, Note_on_c, 9, 42, 0
12, 23000, Note_on_c, 9, 42, 72
12, 23027, Note_on_c, 9, 42, 0
12, 23040, Note_on_c, 9, 42, 20
12, 23058, Note_on_c, 9, 42, 0
12, 23080, Note_on_c, 9, 42, 30
12, 23104, Note_on_c, 9, 42, 0
12, 23120, Note_on_c, 9, 42, 30
12, 23139, Note_on_c, 9, 42, 0
12, 23160, Note_on_c, 9, 42, 81
12, 23216, Note_on_c, 9, 42, 0
12, 23240, Note_on_c, 9, 42, 63
12, 23269, Note_on_c, 9, 42, 0
12, 23280, Note_on_c, 9, 42, 34
12, 23323, Note_on_c, 9, 42, 0
12, 23360, Note_on_c, 9, 42, 38
12, 23378, Note_on_c, 9, 42, 0
12, 23400, Note_on_c, 9, 42, 50
12, 23442, Note_on_c, 9, 42, 0
12, 23480, Note_on_c, 9, 46, 72
12, 23504, Note_on_c, 9, 46, 0
12, 23520, Note_on_c, 9, 42, 22
12, 23527, Note_on_c, 9, 42, 0
12, 23600, Note_on_c, 9, 42, 42
12, 23616, Note_on_c, 9, 42, 0
12, 23640, Note_on_c, 9, 42, 50
12, 23694, Note_on_c, 9, 42, 0
12, 23720, Note_on_c, 9, 42, 22
12, 23725, Note_on_c, 9, 42, 0
12, 23760, Note_on_c, 9, 42, 38
12, 23811, Note_on_c, 9, 42, 0
12, 23840, Note_on_c, 9, 42, 50
12, 23855, Note_on_c, 9, 42, 0
12, 23880, Note_on_c, 9, 42, 54
12, 23906, Note_on_c, 9, 42, 0
12, 23960, Note_on_c, 9, 42, 63
12, 23980, Note_on_c, 9, 42, 0
12, 24000, Note_on_c, 9, 42, 34
12, 24017, Note_on_c, 9, 42, 0
12, 24040, Note_on_c, 9, 42, 20
12, 24076, Note_on_c, 9, 42, 0
12, 24080, Note_on_c, 9, 42, 38
12, 24100, Note_on_c, 9, 42, 0
12, 24120, Note_on_c, 9, 42, 54
12, 24179, Note_on_c, 9, 42, 0
12, 24200, Note_on_c, 9, 42, 50
12, 24207, Note_on_c, 9, 42, 0
12, 24240, Note_on_c, 9, 42, 54
12, 24301, Note_on_c, 9, 42, 0
12, 24320, Note_on_c, 9, 42, 42
12, 24325, Note_on_c, 9, 42, 0
12, 24360, Note_on_c, 9, 42, 38
12, 24419, Note_on_c, 9, 42, 0
12, 24440, Note_on_c, 9, 42, 72
12, 24454, Note_on_c, 9, 42, 0
12, 24480, Note_on_c, 9, 42, 26
12, 24547, Note_on_c, 9, 42, 0
12, 24560, Note_on_c, 9, 42, 63
12, 24574, Note_on_c, 9, 42, 0
12, 24600, Note_on_c, 9, 42, 46
12, 24663, Note_on_c, 9, 42, 0
12, 24680, Note_on_c, 9, 42, 54
12, 24703, Note_on_c, 9, 42, 0
12, 24720, Note_on_c, 9, 42, 17
12, 24776, Note_on_c, 9, 42, 0
12, 24800, Note_on_c, 9, 42, 54
12, 24821, Note_on_c, 9, 42, 0
12, 24840, Note_on_c, 9, 42, 46
12, 24905, Note_on_c, 9, 42, 0
12, 24920, Note_on_c, 9, 42, 54
12, 24945, Note_on_c, 9, 42, 0
12, 24960, Note_on_c, 9, 42, 30
12, 24987, Note_on_c, 9, 42, 0
12, 25000, Note_on_c, 9, 42, 38
12, 25023, Note_on_c, 9, 42, 0
12, 25040, Note_on_c, 9, 42, 42
12, 25060, Note_on_c, 9, 42, 0
12, 25080, Note_on_c, 9, 42, 63
12, 25140, Note_on_c, 9, 42, 0
12, 25160, Note_on_c, 9, 42, 42
12, 25190, Note_on_c, 9, 42, 0
12, 25200, Note_on_c, 9, 42, 46
12, 25252, Note_on_c, 9, 42, 0
12, 25280, Note_on_c, 9, 42, 63
12, 25312, Note_on_c, 9, 42, 0
12, 25320, Note_on_c, 9, 42, 26
12, 25371, Note_on_c, 9, 42, 0
12, 25400, Note_on_c, 9, 42, 46
12, 25476, Note_on_c, 9, 42, 0
12, 25520, Note_on_c, 9, 42, 54
12, 25545, Note_on_c, 9, 42, 0
12, 25560, Note_on_c, 9, 42, 38
12, 25619, Note_on_c, 9, 42, 0
12, 25640, Note_on_c, 9, 42, 54
12, 25716, Note_on_c, 9, 42, 0
12, 25760, Note_on_c, 9, 42, 63
12, 25862, Note_on_c, 9, 42, 0
12, 25880, Note_on_c, 9, 46, 54
12, 25919, Note_on_c, 9, 46, 0
12, 25920, Note_on_c, 9, 42, 22
12, 25969, Note_on_c, 9, 42, 0
12, 26000, Note_on_c, 9, 42, 63
12, 26028, Note_on_c, 9, 42, 0
12, 26040, Note_on_c, 9, 42, 34
12, 26109, Note_on_c, 9, 42, 0
12, 26120, Note_on_c, 9, 42, 63
12, 26147, Note_on_c, 9, 42, 0
12, 26160, Note_on_c, 9, 42, 42
12, 26232, Note_on_c, 9, 42, 0
12, 26240, Note_on_c, 9, 46, 63
12, 26280, Note_on_c, 9, 42, 17
12, 26282, Note_on_c, 9, 46, 0
12, 26299, Note_on_c, 9, 42, 0
12, 26360, Note_on_c, 9, 42, 63
12, 26388, Note_on_c, 9, 42, 0
12, 26400, Note_on_c, 9, 42, 38
12, 26434, Note_on_c, 9, 42, 0
12, 26440, Note_on_c, 9, 42, 18
12, 26461, Note_on_c, 9, 42, 0
12, 26480, Note_on_c, 9, 42, 54
12, 26504, Note_on_c, 9, 42, 0
12, 26520, Note_on_c, 9, 42, 54
12, 26572, Note_on_c, 9, 42, 0
12, 26600, Note_on_c, 9, 42, 42
12, 26632, Note_on_c, 9, 42, 0
12, 26640, Note_on_c, 9, 42, 46
12, 26699, Note_on_c, 9, 42, 0
12, 26720, Note_on_c, 9, 42, 63
12, 26742, Note_on_c, 9, 42, 0
12, 26760, Note_on_c, 9, 42, 46
12, 26818, Note_on_c, 9, 42, 0
12, 26840, Note_on_c, 9, 42, 38
12, 26874, Note_on_c, 9, 42, 0
12, 26880, Note_on_c, 9, 42, 22
12, 26896, Note_on_c, 9, 42, 0
12, 26920, Note_on_c, 9, 42, 46
12, 26949, Note_on_c, 9, 42, 0
12, 26960, Note_on_c, 9, 42, 30
12, 26973, Note_on_c, 9, 42, 0
12, 27000, Note_on_c, 9, 42, 63
12, 27062, Note_on_c, 9, 42, 0
12, 27080, Note_on_c, 9, 42, 50
12, 27108, Note_on_c, 9, 42, 0
12, 27120, Note_on_c, 9, 42, 34
12, 27180, Note_on_c, 9, 42, 0
12, 27200, Note_on_c, 9, 42, 63
12, 27290, Note_on_c, 9, 42, 0
12, 27320, Note_on_c, 9, 42, 63
12, 27394, Note_on_c, 9, 42, 0
12, 27440, Note_on_c, 9, 42, 38
12, 27469, Note_on_c, 9, 42, 0
12, 27480, Note_on_c, 9, 42, 42
12, 27515, Note_on_c, 9, 42, 0
12, 27560, Note_on_c, 9, 42, 54
12, 27592, Note_on_c, 9, 42, 0
12, 27600, Note_on_c, 9, 42, 21
12, 27622, Note_on_c, 9, 42, 0
12, 27640, Note_on_c, 9, 42, 26
12, 27662, Note_on_c, 9, 42, 0
12, 27680, Note_on_c, 9, 42, 38
12, 27700, Note_on_c, 9, 42, 0
12, 27720, Note_on_c, 9, 42, 46
12, 27768, Note_on_c, 9, 42, 0
12, 27800, Note_on_c, 9, 42, 42
12, 27825, Note_on_c, 9, 42, 0
12, 27840, Note_on_c, 9, 42, 38
12, 27890, Note_on_c, 9, 42, 0
12, 27920, Note_on_c, 9, 42, 63
12, 27940, Note_on_c, 9, 42, 0
12, 27960, Note_on_c, 9, 42, 42
12, 28027, Note_on_c, 9, 42, 0
12, 28040, Note_on_c, 9, 42, 63
12, 28061, Note_on_c, 9, 42, 0
12, 28080, Note_on_c, 9, 42, 63
12, 28147, Note_on_c, 9, 42, 0
12, 28160, Note_on_c, 9, 42, 46
12, 28181, Note_on_c, 9, 42, 0
12, 28200, Note_on_c, 9, 42, 50
12, 28238, Note_on_c, 9, 42, 0
12, 28280, Note_on_c, 9, 42, 81
12, 28353, Note_on_c, 9, 42, 0
12, 28400, Note_on_c, 9, 42, 46
12, 28411, Note_on_c, 9, 42, 0
12, 28440, Note_on_c, 9, 42, 46
12, 28494, Note_on_c, 9, 42, 0
12, 28520, Note_on_c, 9, 42, 54
12, 28543, Note_on_c, 9, 42, 0
12, 28560, Note_on_c, 9, 42, 50
12, 28618, Note_on_c, 9, 42, 0
12, 28640, Note_on_c, 9, 42, 63
12, 28719, Note_on_c, 9, 42, 0
12, 28760, Note_on_c, 9, 46, 46
12, 28793, Note_on_c, 9, 46, 0
12, 28800, Note_on_c, 9, 42, 30
12, 28822, Note_on_c, 9, 42, 0
12, 28880, Note_on_c, 9, 42, 42
12, 28896, Note_on_c, 9, 42, 0
12, 28920, Note_on_c, 9, 42, 15
12, 28967, Note_on_c, 9, 42, 0
12, 29000, Note_on_c, 9, 42, 54
12, 29022, Note_on_c, 9, 42, 0
12, 29040, Note_on_c, 9, 42, 30
12, 29087, Note_on_c, 9, 42, 0
12, 29120, Note_on_c, 9, 42, 63
12, 29142, Note_on_c, 9, 42, 0
12, 29160, Note_on_c, 9, 42, 46
12, 29180, Note_on_c, 9, 42, 0
12, 29200, Note_on_c, 9, 42, 17
12, 29216, Note_on_c, 9, 42, 0
12, 29240, Note_on_c, 9, 42, 46
12, 29262, Note_on_c, 9, 42, 0
12, 29280, Note_on_c, 9, 42, 46
12, 29338, Note_on_c, 9, 42, 0
12, 29360, Note_on_c, 9, 42, 30
12, 29377, Note_on_c, 9, 42, 0
12, 29400, Note_on_c, 9, 42, 26
12, 29447, Note_on_c, 9, 42, 0
12, 29480, Note_on_c, 9, 42, 63
12, 29503, Note_on_c, 9, 42, 0
12, 29520, Note_on_c, 9, 42, 22
12, 29575, Note_on_c, 9, 42, 0
12, 29600, Note_on_c, 9, 42, 63
12, 29627, Note_on_c, 9, 42, 0
12, 29640, Note_on_c, 9, 42, 42
12, 29691, Note_on_c, 9, 42, 0
12, 29720, Note_on_c, 9, 42, 54
12, 29742, Note_on_c, 9, 42, 0
12, 29760, Note_on_c, 9, 42, 22
12, 29784, Note_on_c, 9, 42, 0
12, 29800, Note_on_c, 9, 42, 38
12, 29829, Note_on_c, 9, 42, 0
12, 29840, Note_on_c, 9, 42, 38
12, 29857, Note_on_c, 9, 42, 0
12, 29880, Note_on_c, 9, 42, 63
12, 29940, Note_on_c, 9, 42, 0
12, 29960, Note_on_c, 9, 42, 50
12, 29979, Note_on_c, 9, 42, 0
12, 30000, Note_on_c, 9, 42, 50
12, 30062, Note_on_c, 9, 42, 0
12, 30080, Note_on_c, 9, 46, 63
12, 30116, Note_on_c, 9, 46, 0
12, 30120, Note_on_c, 9, 42, 6
12, 30121, Note_on_c, 9, 42, 0
12, 30200, Note_on_c, 9, 42, 54
12, 30213, Note_on_c, 9, 42, 0
12, 30240, Note_on_c, 9, 42, 22
12, 30255, Note_on_c, 9, 42, 0
12, 30280, Note_on_c, 9, 42, 30
12, 30296, Note_on_c, 9, 42, 0
12, 30320, Note_on_c, 9, 42, 50
12, 30335, Note_on_c, 9, 42, 0
12, 30360, Note_on_c, 9, 42, 63
12, 30409, Note_on_c, 9, 42, 0
12, 30440, Note_on_c, 9, 42, 50
12, 30456, Note_on_c, 9, 42, 0
12, 30480, Note_on_c, 9, 42, 34
12, 30526, Note_on_c, 9, 42, 0
12, 30560, Note_on_c, 9, 42, 50
12, 30576, Note_on_c, 9, 42, 0
12, 30600, Note_on_c, 9, 42, 46
12, 30649, Note_on_c, 9, 42, 0
12, 30680, Note_on_c, 9, 42, 46
12, 30705, Note_on_c, 9, 42, 0
12, 30720, Note_on_c, 9, 42, 30
12, 30738, Note_on_c, 9, 42, 0
12, 30760, Note_on_c, 9, 42, 19
12, 30780, Note_on_c, 9, 42, 0
12, 30800, Note_on_c, 9, 42, 38
12, 30811, Note_on_c, 9, 42, 0
12, 30840, Note_on_c, 9, 42, 54
12, 30885, Note_on_c, 9, 42, 0
12, 30920, Note_on_c, 9, 42, 26
12, 30934, Note_on_c, 9, 42, 0
12, 30960, Note_on_c, 9, 42, 46
12, 31019, Note_on_c, 9, 42, 0
12, 31040, Note_on_c, 9, 42, 42
12, 31062, Note_on_c, 9, 42, 0
12, 31080, Note_on_c, 9, 42, 63
12, 31121, Note_on_c, 9, 42, 0
12, 31160, Note_on_c, 9, 42, 46
12, 31186, Note_on_c, 9, 42, 0
12, 31200, Note_on_c, 9, 42, 38
12, 31229, Note_on_c, 9, 42, 0
12, 31240, Note_on_c, 9, 42, 38
12, 31261, Note_on_c, 9, 42, 0
12, 31280, Note_on_c, 9, 42, 54
12, 31299, Note_on_c, 9, 42, 0
12, 31320, Note_on_c, 9, 42, 46
12, 31369, Note_on_c, 9, 42, 0
12, 31400, Note_on_c, 9, 42, 72
12, 31429, Note_on_c, 9, 42, 0
12, 31440, Note_on_c, 9, 42, 46
12, 31480, Note_on_c, 9, 42, 0
12, 31520, Note_on_c, 9, 42, 63
12, 31548, Note_on_c, 9, 42, 0
12, 31560, Note_on_c, 9, 42, 34
12, 31620, Note_on_c, 9, 42, 0
12, 31640, Note_on_c, 9, 42, 63
12, 31669, Note_on_c, 9, 42, 0
12, 31680, Note_on_c, 9, 42, 30
12, 31700, Note_on_c, 9, 42, 0
12, 31720, Note_on_c, 9, 42, 34
12, 31745, Note_on_c, 9, 42, 0
12, 31760, Note_on_c, 9, 42, 34
12, 31773, Note_on_c, 9, 42, 0
12, 31800, Note_on_c, 9, 42, 72
12, 31855, Note_on_c, 9, 42, 0
12, 31880, Note_on_c, 9, 42, 54
12, 31897, Note_on_c, 9, 42, 0
12, 31920, Note_on_c, 9, 42, 46
12, 31986, Note_on_c, 9, 42, 0
12, 32000, Note_on_c, 9, 46, 63
12, 32023, Note_on_c, 9, 46, 0
12, 32040, Note_on_c, 9, 42, 34
12, 32054, Note_on_c, 9, 42, 0
12, 32120, Note_on_c, 9, 42, 46
12, 32143, Note_on_c, 9, 42, 0
12, 32160, Note_on_c, 9, 42, 42
12, 32185, Note_on_c, 9, 42, 0
12, 32200, Note_on_c, 9, 42, 26
12, 32219, Note_on_c, 9, 42, 0
12, 32240, Note_on_c, 9, 42, 38
12, 32256, Note_on_c, 9, 42, 0
12, 32280, Note_on_c, 9, 42, 54
12, 32332, Note_on_c, 9, 42, 0
12, 32360, Note_on_c, 9, 42, 38
12, 32378, Note_on_c, 9, 42, 0
12, 32400, Note_on_c, 9, 42, 50
12, 32459, Note_on_c, 9, 42, 0
12, 32480, Note_on_c, 9, 42, 54
12, 32498, Note_on_c, 9, 42, 0
12, 32520, Note_on_c, 9, 42, 72
12, 32576, Note_on_c, 9, 42, 0
12, 32600, Note_on_c, 9, 42, 63
12, 32673, Note_on_c, 9, 42, 0
12, 32720, Note_on_c, 9, 42, 19
12, 32726, Note_on_c, 9, 42, 0
12, 32760, Note_on_c, 9, 42, 63
12, 32811, Note_on_c, 9, 42, 0
12, 32840, Note_on_c, 9, 42, 50
12, 32851, Note_on_c, 9, 42, 0
12, 32880, Note_on_c, 9, 42, 63
12, 32900, Note_on_c, 9, 42, 0
12, 32920, Note_on_c, 9, 42, 42
12, 32939, Note_on_c, 9, 42, 0
12, 32960, Note_on_c, 9, 42, 46
12, 32967, Note_on_c, 9, 42, 0
12, 33000, Note_on_c, 9, 42, 63
12, 33047, Note_on_c, 9, 42, 0
12, 33080, Note_on_c, 9, 42, 63
12, 33105, Note_on_c, 9, 42, 0
12, 33120, Note_on_c, 9, 42, 21
12, 33144, Note_on_c, 9, 42, 0
12, 33200, Note_on_c, 9, 42, 54
12, 33218, Note_on_c, 9, 42, 0
12, 33240, Note_on_c, 9, 42, 63
12, 33280, Note_on_c, 9, 42, 0
12, 33320, Note_on_c, 9, 42, 81
12, 33353, Note_on_c, 9, 42, 0
12, 33360, Note_on_c, 9, 42, 6
12, 33388, Note_on_c, 9, 42, 0
12, 33440, Note_on_c, 9, 42, 63
12, 33476, Note_on_c, 9, 42, 0
12, 33480, Note_on_c, 9, 42, 46
12, 33516, Note_on_c, 9, 42, 0
12, 33560, Note_on_c, 9, 42, 72
12, 33600, Note_on_c, 9, 42, 0
12, 33600, Note_on_c, 9, 42, 38
12, 33633, Note_on_c, 9, 42, 0
12, 33680, Note_on_c, 9, 42, 63
12, 33754, Note_on_c, 9, 42, 0
12, 33800, Note_on_c, 9, 42, 63
12, 33835, Note_on_c, 9, 42, 0
12, 33840, Note_on_c, 9, 42, 22
12, 33857, Note_on_c, 9, 42, 0
12, 33920, Note_on_c, 9, 42, 46
12, 33947, Note_on_c, 9, 42, 0
12, 33960, Note_on_c, 9, 42, 42
12, 33995, Note_on_c, 9, 42, 0
12, 34040, Note_on_c, 9, 42, 63
12, 34071, Note_on_c, 9, 42, 0
12, 34080, Note_on_c, 9, 42, 17
12, 34110, Note_on_c, 9, 42, 0
12, 34160, Note_on_c, 9, 42, 63
12, 34241, Note_on_c, 9, 42, 0
12, 34280, Note_on_c, 9, 42, 72
12, 34356, Note_on_c, 9, 42, 0
12, 34400, Note_on_c, 9, 42, 81
12, 34474, Note_on_c, 9, 42, 0
12, 34520, Note_on_c, 9, 42, 63
12, 34551, Note_on_c, 9, 42, 0
12, 34560, Note_on_c, 9, 42, 38
12, 34584, Note_on_c, 9, 42, 0
12, 34600, Note_on_c, 9, 42, 54
12, 34624, Note_on_c, 9, 42, 0
12, 34640, Note_on_c, 9, 42, 54
12, 34662, Note_on_c, 9, 42, 0
12, 34680, Note_on_c, 9, 42, 63
12, 34728, Note_on_c, 9, 42, 0
12, 34760, Note_on_c, 9, 42, 54
12, 34779, Note_on_c, 9, 42, 0
12, 34800, Note_on_c, 9, 42, 54
12, 34851, Note_on_c, 9, 42, 0
12, 34880, Note_on_c, 9, 42, 42
12, 34900, Note_on_c, 9, 42, 0
12, 34920, Note_on_c, 9, 42, 63
12, 34956, Note_on_c, 9, 42, 0
12, 35000, Note_on_c, 9, 42, 72
12, 35029, Note_on_c, 9, 42, 0
12, 35040, Note_on_c, 9, 42, 50
12, 35074, Note_on_c, 9, 42, 0
12, 35120, Note_on_c, 9, 42, 46
12, 35140, Note_on_c, 9, 42, 0
12, 35160, Note_on_c, 9, 42, 46
12, 35205, Note_on_c, 9, 42, 0
12, 35240, Note_on_c, 9, 42, 50
12, 35275, Note_on_c, 9, 42, 0
12, 35280, Note_on_c, 9, 42, 42
12, 35313, Note_on_c, 9, 42, 0
12, 35360, Note_on_c, 9, 42, 63
12, 35385, Note_on_c, 9, 42, 0
12, 35400, Note_on_c, 9, 42, 34
12, 35422, Note_on_c, 9, 42, 0
12, 35440, Note_on_c, 9, 42, 22
12, 35463, Note_on_c, 9, 42, 0
12, 35480, Note_on_c, 9, 42, 42
12, 35502, Note_on_c, 9, 42, 0
12, 35520, Note_on_c, 9, 42, 63
12, 35542, Note_on_c, 9, 42, 0
12, 35600, Note_on_c, 9, 42, 50
12, 35621, Note_on_c, 9, 42, 0
12, 35640, Note_on_c, 9, 42, 50
12, 35664, Note_on_c, 9, 42, 0
12, 35680, Note_on_c, 9, 42, 50
12, 35704, Note_on_c, 9, 42, 0
12, 35720, Note_on_c, 9, 42, 50
12, 35745, Note_on_c, 9, 42, 0
12, 35760, Note_on_c, 9, 42, 50
12, 35784, Note_on_c, 9, 42, 0
12, 35800, Note_on_c, 9, 42, 46
12, 35822, Note_on_c, 9, 42, 0
12, 35840, Note_on_c, 9, 42, 38
12, 35863, Note_on_c, 9, 42, 0
12, 35880, Note_on_c, 9, 42, 46
12, 35907, Note_on_c, 9, 42, 0
12, 35920, Note_on_c, 9, 42, 30
12, 35942, Note_on_c, 9, 42, 0
12, 35960, Note_on_c, 9, 42, 38
12, 35981, Note_on_c, 9, 42, 0
12, 36000, Note_on_c, 9, 42, 50
12, 36022, Note_on_c, 9, 42, 0
12, 36040, Note_on_c, 9, 42, 38
12, 36061, Note_on_c, 9, 42, 0
12, 36080, Note_on_c, 9, 42, 50
12, 36100, Note_on_c, 9, 42, 0
12, 36120, Note_on_c, 9, 42, 54
12, 36139, Note_on_c, 9, 42, 0
12, 36160, Note_on_c, 9, 42, 54
12, 36180, Note_on_c, 9, 42, 0
12, 36200, Note_on_c, 9, 42, 46
12, 36222, Note_on_c, 9, 42, 0
12, 36240, Note_on_c, 9, 42, 54
12, 36262, Note_on_c, 9, 42, 0
12, 36280, Note_on_c, 9, 42, 46
12, 36302, Note_on_c, 9, 42, 0
12, 36320, Note_on_c, 9, 42, 50
12, 36336, Note_on_c, 9, 42, 0
12, 36360, Note_on_c, 9, 42, 63
12, 36384, Note_on_c, 9, 42, 0
12, 36400, Note_on_c, 9, 42, 54
12, 36418, Note_on_c, 9, 42, 0
12, 36440, Note_on_c, 9, 42, 54
12, 36466, Note_on_c, 9, 42, 0
12, 36480, Note_on_c, 9, 42, 54
12, 36502, Note_on_c, 9, 42, 0
12, 36520, Note_on_c, 9, 42, 50
12, 36543, Note_on_c, 9, 42, 0
12, 36560, Note_on_c, 9, 42, 50
12, 36581, Note_on_c, 9, 42, 0
12, 36600, Note_on_c, 9, 42, 50
12, 36624, Note_on_c, 9, 42, 0
12, 36640, Note_on_c, 9, 42, 50
12, 36664, Note_on_c, 9, 42, 0
12, 36680, Note_on_c, 9, 42, 50
12, 36705, Note_on_c, 9, 42, 0
12, 36720, Note_on_c, 9, 42, 50
12, 36744, Note_on_c, 9, 42, 0
12, 36760, Note_on_c, 9, 42, 46
12, 36782, Note_on_c, 9, 42, 0
12, 36800, Note_on_c, 9, 42, 38
12, 36823, Note_on_c, 9, 42, 0
12, 36840, Note_on_c, 9, 42, 46
12, 36867, Note_on_c, 9, 42, 0
12, 36880, Note_on_c, 9, 42, 30
12, 36902, Note_on_c, 9, 42, 0
12, 36920, Note_on_c, 9, 42, 38
12, 36941, Note_on_c, 9, 42, 0
12, 36960, Note_on_c, 9, 42, 46
12, 36981, Note_on_c, 9, 42, 0
12, 37000, Note_on_c, 9, 42, 22
12, 37022, Note_on_c, 9, 42, 0
12, 37040, Note_on_c, 9, 42, 30
12, 37063, Note_on_c, 9, 42, 0
12, 37080, Note_on_c, 9, 42, 38
12, 37103, Note_on_c, 9, 42, 0
12, 37120, Note_on_c, 9, 42, 38
12, 37139, Note_on_c, 9, 42, 0
12, 37160, Note_on_c, 9, 42, 46
12, 37179, Note_on_c, 9, 42, 0
12, 37200, Note_on_c, 9, 42, 38
12, 37222, Note_on_c, 9, 42, 0
12, 37240, Note_on_c, 9, 42, 42
12, 37262, Note_on_c, 9, 42, 0
12, 37280, Note_on_c, 9, 42, 38
12, 37302, Note_on_c, 9, 42, 0
12, 37320, Note_on_c, 9, 42, 54
12, 37345, Note_on_c, 9, 42, 0
12, 37360, Note_on_c, 9, 42, 50
12, 37381, Note_on_c, 9, 42, 0
12, 37400, Note_on_c, 9, 42, 50
12, 37426, Note_on_c, 9, 42, 0
12, 37440, Note_on_c, 9, 42, 50
12, 37462, Note_on_c, 9, 42, 0
12, 37480, Note_on_c, 9, 42, 38
12, 37501, Note_on_c, 9, 42, 0
12, 37520, Note_on_c, 9, 42, 50
12, 37540, Note_on_c, 9, 42, 0
12, 37560, Note_on_c, 9, 42, 54
12, 37579, Note_on_c, 9, 42, 0
12, 37600, Note_on_c, 9, 42, 54
12, 37620, Note_on_c, 9, 42, 0
12, 37640, Note_on_c, 9, 42, 46
12, 37662, Note_on_c, 9, 42, 0
12, 37680, Note_on_c, 9, 42, 54
12, 37702, Note_on_c, 9, 42, 0
12, 37720, Note_on_c, 9, 42, 46
12, 37742, Note_on_c, 9, 42, 0
12, 37760, Note_on_c, 9, 42, 50
12, 37776, Note_on_c, 9, 42, 0
12, 37800, Note_on_c, 9, 42, 63
12, 37824, Note_on_c, 9, 42, 0
12, 37840, Note_on_c, 9, 42, 54
12, 37858, Note_on_c, 9, 42, 0
12, 37880, Note_on_c, 9, 42, 54
12, 37906, Note_on_c, 9, 42, 0
12, 37920, Note_on_c, 9, 42, 54
12, 37942, Note_on_c, 9, 42, 0
12, 37960, Note_on_c, 9, 42, 50
12, 37983, Note_on_c, 9, 42, 0
12, 38000, Note_on_c, 9, 42, 50
12, 38021, Note_on_c, 9, 42, 0
12, 38040, Note_on_c, 9, 42, 50
12, 38064, Note_on_c, 9, 42, 0
12, 38080, Note_on_c, 9, 42, 50
12, 38104, Note_on_c, 9, 42, 0
12, 38120, Note_on_c, 9, 42, 50
12, 38145, Note_on_c, 9, 42, 0
12, 38160, Note_on_c, 9, 42, 50
12, 38184, Note_on_c, 9, 42, 0
12, 38200, Note_on_c, 9, 42, 46
12, 38222, Note_on_c, 9, 42, 0
12, 38240, Note_on_c, 9, 42, 38
12, 38263, Note_on_c, 9, 42, 0
12, 38280, Note_on_c, 9, 42, 46
12, 38307, Note_on_c, 9, 42, 0
12, 38320, Note_on_c, 9, 42, 30
12, 38342, Note_on_c, 9, 42, 0
12, 38360, Note_on_c, 9, 42, 38
12, 38381, Note_on_c, 9, 42, 0
12, 38400, Note_on_c, 9, 42, 46
12, 38421, Note_on_c, 9, 42, 0
12, 38440, Note_on_c, 9, 42, 22
12, 38462, Note_on_c, 9, 42, 0
12, 38480, Note_on_c, 9, 42, 30
12, 38503, Note_on_c, 9, 42, 0
12, 38520, Note_on_c, 9, 42, 38
12, 38543, Note_on_c, 9, 42, 0
12, 38560, Note_on_c, 9, 42, 38
12, 38579, Note_on_c, 9, 42, 0
12, 38600, Note_on_c, 9, 42, 46
12, 38619, Note_on_c, 9, 42, 0
12, 38640, Note_on_c, 9, 42, 38
12, 38662, Note_on_c, 9, 42, 0
12, 38680, Note_on_c, 9, 42, 42
12, 38702, Note_on_c, 9, 42, 0
12, 38760, Note_on_c, 9, 42, 54
12, 38785, Note_on_c, 9, 42, 0
12, 38800, Note_on_c, 9, 42, 50
12, 38821, Note_on_c, 9, 42, 0
12, 38840, Note_on_c, 9, 42, 50
12, 38866, Note_on_c, 9, 42, 0
12, 38880, Note_on_c, 9, 42, 54
12, 38902, Note_on_c, 9, 42, 0
12, 38920, Note_on_c, 9, 42, 42
12, 38939, Note_on_c, 9, 42, 0
12, 38960, Note_on_c, 9, 42, 34
12, 38980, Note_on_c, 9, 42, 0
12, 39000, Note_on_c, 9, 42, 54
12, 39019, Note_on_c, 9, 42, 0
12, 39040, Note_on_c, 9, 42, 42
12, 39062, Note_on_c, 9, 42, 0
12, 39080, Note_on_c, 9, 42, 54
12, 39103, Note_on_c, 9, 42, 0
12, 39120, Note_on_c, 9, 42, 54
12, 39144, Note_on_c, 9, 42, 0
12, 39160, Note_on_c, 9, 42, 54
12, 39182, Note_on_c, 9, 42, 0
12, 39200, Note_on_c, 9, 42, 50
12, 39226, Note_on_c, 9, 42, 0
12, 39240, Note_on_c, 9, 42, 54
12, 39264, Note_on_c, 9, 42, 0
12, 39280, Note_on_c, 9, 42, 54
12, 39300, Note_on_c, 9, 42, 0
12, 39320, Note_on_c, 9, 42, 72
12, 39340, Note_on_c, 9, 42, 0
12, 39360, Note_on_c, 9, 42, 54
12, 39382, Note_on_c, 9, 42, 0
12, 39400, Note_on_c, 9, 42, 50
12, 39423, Note_on_c, 9, 42, 0
12, 39440, Note_on_c, 9, 42, 50
12, 39461, Note_on_c, 9, 42, 0
12, 39480, Note_on_c, 9, 42, 50
12, 39504, Note_on_c, 9, 42, 0
12, 39520, Note_on_c, 9, 42, 50
12, 39544, Note_on_c, 9, 42, 0
12, 39560, Note_on_c, 9, 42, 50
12, 39585, Note_on_c, 9, 42, 0
12, 39600, Note_on_c, 9, 42, 50
12, 39624, Note_on_c, 9, 42, 0
12, 39640, Note_on_c, 9, 42, 46
12, 39662, Note_on_c, 9, 42, 0
12, 39680, Note_on_c, 9, 42, 38
12, 39703, Note_on_c, 9, 42, 0
12, 39720, Note_on_c, 9, 42, 46
12, 39747, Note_on_c, 9, 42, 0
12, 39760, Note_on_c, 9, 42, 30
12, 39782, Note_on_c, 9, 42, 0
12, 39800, Note_on_c, 9, 42, 38
12, 39821, Note_on_c, 9, 42, 0
12, 39840, Note_on_c, 9, 42, 46
12, 39861, Note_on_c, 9, 42, 0
12, 39880, Note_on_c, 9, 42, 22
12, 39902, Note_on_c, 9, 42, 0
12, 39920, Note_on_c, 9, 42, 30
12, 39943, Note_on_c, 9, 42, 0
12, 39960, Note_on_c, 9, 42, 38
12, 39983, Note_on_c, 9, 42, 0
12, 40000, Note_on_c, 9, 42, 38
12, 40019, Note_on_c, 9, 42, 0
12, 40040, Note_on_c, 9, 42, 46
12, 40059, Note_on_c, 9, 42, 0
12, 40080, Note_on_c, 9, 42, 38
12, 40102, Note_on_c, 9, 42, 0
12, 40120, Note_on_c, 9, 42, 42
12, 40142, Note_on_c, 9, 42, 0
12, 40160, Note_on_c, 9, 42, 38
12, 40182, Note_on_c, 9, 42, 0
12, 40200, Note_on_c, 9, 42, 54
12, 40225, Note_on_c, 9, 42, 0
12, 40240, Note_on_c, 9, 42, 50
12, 40261, Note_on_c, 9, 42, 0
12, 40280, Note_on_c, 9, 42, 50
12, 40306, Note_on_c, 9, 42, 0
12, 40320, Note_on_c, 9, 42, 54
12, 40342, Note_on_c, 9, 42, 0
12, 40360, Note_on_c, 9, 42, 42
12, 40379, Note_on_c, 9, 42, 0
12, 40400, Note_on_c, 9, 42, 34
12, 40420, Note_on_c, 9, 42, 0
12, 40440, Note_on_c, 9, 42, 54
12, 40459, Note_on_c, 9, 42, 0
12, 40480, Note_on_c, 9, 42, 42
12, 40502, Note_on_c, 9, 42, 0
12, 40520, Note_on_c, 9, 42, 54
12, 40543, Note_on_c, 9, 42, 0
12, 40560, Note_on_c, 9, 42, 54
12, 40584, Note_on_c, 9, 42, 0
12, 40600, Note_on_c, 9, 42, 54
12, 40622, Note_on_c, 9, 42, 0
12, 40640, Note_on_c, 9, 42, 50
12, 40666, Note_on_c, 9, 42, 0
12, 40680, Note_on_c, 9, 42, 54
12, 40704, Note_on_c, 9, 42, 0
12, 40720, Note_on_c, 9, 42, 54
12, 40740, Note_on_c, 9, 42, 0
12, 40760, Note_on_c, 9, 42, 72
12, 40780, Note_on_c, 9, 42, 0
12, 40800, Note_on_c, 9, 42, 50
12, 40822, Note_on_c, 9, 42, 0
12, 40840, Note_on_c, 9, 42, 38
12, 40861, Note_on_c, 9, 42, 0
12, 40880, Note_on_c, 9, 42, 50
12, 40900, Note_on_c, 9, 42, 0
12, 40920, Note_on_c, 9, 42, 54
12, 40939, Note_on_c, 9, 42, 0
12, 40960, Note_on_c, 9, 42, 54
12, 40980, Note_on_c, 9, 42, 0
12, 41000, Note_on_c, 9, 42, 46
12, 41022, Note_on_c, 9, 42, 0
12, 41040, Note_on_c, 9, 42, 54
12, 41062, Note_on_c, 9, 42, 0
12, 41080, Note_on_c, 9, 42, 46
12, 41102, Note_on_c, 9, 42, 0
12, 41120, Note_on_c, 9, 42, 50
12, 41136, Note_on_c, 9, 42, 0
12, 41160, Note_on_c, 9, 42, 63
12, 41184, Note_on_c, 9, 42, 0
12, 41200, Note_on_c, 9, 42, 54
12, 41218, Note_on_c, 9, 42, 0
12, 41240, Note_on_c, 9, 42, 54
12, 41266, Note_on_c, 9, 42, 0
12, 41280, Note_on_c, 9, 42, 54
12, 41302, Note_on_c, 9, 42, 0
12, 41320, Note_on_c, 9, 42, 50
12, 41343, Note_on_c, 9, 42, 0
12, 41360, Note_on_c, 9, 42, 50
12, 41381, Note_on_c, 9, 42, 0
12, 41400, Note_on_c, 9, 42, 50
12, 41424, Note_on_c, 9, 42, 0
12, 41440, Note_on_c, 9, 42, 50
12, 41464, Note_on_c, 9, 42, 0
12, 41480, Note_on_c, 9, 42, 50
12, 41505, Note_on_c, 9, 42, 0
12, 41520, Note_on_c, 9, 42, 50
12, 41544, Note_on_c, 9, 42, 0
12, 41560, Note_on_c, 9, 42, 46
12, 41582, Note_on_c, 9, 42, 0
12, 41600, Note_on_c, 9, 42, 38
12, 41623, Note_on_c, 9, 42, 0
12, 41640, Note_on_c, 9, 42, 46
12, 41667, Note_on_c, 9, 42, 0
12, 41680, Note_on_c, 9, 42, 30
12, 41702, Note_on_c, 9, 42, 0
12, 41720, Note_on_c, 9, 42, 38
12, 41741, Note_on_c, 9, 42, 0
12, 41760, Note_on_c, 9, 42, 46
12, 41781, Note_on_c, 9, 42, 0
12, 41800, Note_on_c, 9, 42, 22
12, 41822, Note_on_c, 9, 42, 0
12, 41840, Note_on_c, 9, 42, 30
12, 41863, Note_on_c, 9, 42, 0
12, 41880, Note_on_c, 9, 42, 38
12, 41903, Note_on_c, 9, 42, 0
12, 41920, Note_on_c, 9, 42, 38
12, 41939, Note_on_c, 9, 42, 0
12, 41960, Note_on_c, 9, 42, 46
12, 41979, Note_on_c, 9, 42, 0
12, 42000, Note_on_c, 9, 42, 38
12, 42022, Note_on_c, 9, 42, 0
12, 42040, Note_on_c, 9, 42, 42
12, 42062, Note_on_c, 9, 42, 0
12, 42080, Note_on_c, 9, 42, 38
12, 42102, Note_on_c, 9, 42, 0
12, 42120, Note_on_c, 9, 42, 54
12, 42145, Note_on_c, 9, 42, 0
12, 42160, Note_on_c, 9, 42, 50
12, 42181, Note_on_c, 9, 42, 0
12, 42200, Note_on_c, 9, 42, 50
12, 42226, Note_on_c, 9, 42, 0
12, 42240, Note_on_c, 9, 42, 54
12, 42262, Note_on_c, 9, 42, 0
12, 42280, Note_on_c, 9, 42, 42
12, 42299, Note_on_c, 9, 42, 0
12, 42320, Note_on_c, 9, 42, 34
12, 42340, Note_on_c, 9, 42, 0
12, 42360, Note_on_c, 9, 42, 54
12, 42379, Note_on_c, 9, 42, 0
12, 42400, Note_on_c, 9, 42, 42
12, 42422, Note_on_c, 9, 42, 0
12, 42440, Note_on_c, 9, 42, 54
12, 42463, Note_on_c, 9, 42, 0
12, 42480, Note_on_c, 9, 42, 54
12, 42504, Note_on_c, 9, 42, 0
12, 42520, Note_on_c, 9, 42, 54
12, 42542, Note_on_c, 9, 42, 0
12, 42560, Note_on_c, 9, 42, 50
12, 42586, Note_on_c, 9, 42, 0
12, 42600, Note_on_c, 9, 42, 54
12, 42624, Note_on_c, 9, 42, 0
12, 42640, Note_on_c, 9, 42, 54
12, 42660, Note_on_c, 9, 42, 0
12, 42680, Note_on_c, 9, 42, 72
12, 42700, Note_on_c, 9, 42, 0
12, 42720, Note_on_c, 9, 42, 50
12, 42742, Note_on_c, 9, 42, 0
12, 42760, Note_on_c, 9, 42, 38
12, 42781, Note_on_c, 9, 42, 0
12, 42800, Note_on_c, 9, 42, 50
12, 42820, Note_on_c, 9, 42, 0
12, 42840, Note_on_c, 9, 42, 54
12, 42859, Note_on_c, 9, 42, 0
12, 42880, Note_on_c, 9, 42, 54
12, 42900, Note_on_c, 9, 42, 0
12, 42920, Note_on_c, 9, 42, 46
12, 42942, Note_on_c, 9, 42, 0
12, 42960, Note_on_c, 9, 42, 54
12, 42982, Note_on_c, 9, 42, 0
12, 43000, Note_on_c, 9, 42, 46
12, 43022, Note_on_c, 9, 42, 0
12, 43040, Note_on_c, 9, 42, 50
12, 43056, Note_on_c, 9, 42, 0
12, 43080, Note_on_c, 9, 42, 63
12, 43104, Note_on_c, 9, 42, 0
12, 43120, Note_on_c, 9, 42, 54
12, 43138, Note_on_c, 9, 42, 0
12, 43160, Note_on_c, 9, 42, 54
12, 43186, Note_on_c, 9, 42, 0
12, 43200, Note_on_c, 9, 42, 54
12, 43222, Note_on_c, 9, 42, 0
12, 43240, Note_on_c, 9, 42, 50
12, 43263, Note_on_c, 9, 42, 0
12, 43280, Note_on_c, 9, 42, 50
12, 43301, Note_on_c, 9, 42, 0
12, 43320, Note_on_c, 9, 42, 50
12, 43344, Note_on_c, 9, 42, 0
12, 43360, Note_on_c, 9, 42, 50
12, 43384, Note_on_c, 9, 42, 0
12, 43400, Note_on_c, 9, 42, 50
12, 43425, Note_on_c, 9, 42, 0
12, 43440, Note_on_c, 9, 42, 50
12, 43464, Note_on_c, 9, 42, 0
12, 43480, Note_on_c, 9, 42, 46
12, 43502, Note_on_c, 9, 42, 0
12, 43520, Note_on_c, 9, 42, 38
12, 43543, Note_on_c, 9, 42, 0
12, 43560, Note_on_c, 9, 42, 46
12, 43587, Note_on_c, 9, 42, 0
12, 43600, Note_on_c, 9, 42, 30
12, 43622, Note_on_c, 9, 42, 0
12, 43640, Note_on_c, 9, 42, 38
12, 43661, Note_on_c, 9, 42, 0
12, 43680, Note_on_c, 9, 42, 50
12, 43702, Note_on_c, 9, 42, 0
12, 43760, Note_on_c, 9, 42, 46
12, 43774, Note_on_c, 9, 42, 0
12, 43800, Note_on_c, 9, 42, 18
12, 43843, Note_on_c, 9, 42, 0
12, 43880, Note_on_c, 9, 42, 38
12, 43900, Note_on_c, 9, 42, 0
12, 43920, Note_on_c, 9, 42, 46
12, 43969, Note_on_c, 9, 42, 0
12, 44000, Note_on_c, 9, 42, 54
12, 44031, Note_on_c, 9, 42, 0
12, 44040, Note_on_c, 9, 42, 63
12, 44097, Note_on_c, 9, 42, 0
12, 44120, Note_on_c, 9, 42, 42
12, 44136, Note_on_c, 9, 42, 0
12, 44160, Note_on_c, 9, 42, 50
12, 44180, Note_on_c, 9, 42, 0
12, 44200, Note_on_c, 9, 42, 16
12, 44220, Note_on_c, 9, 42, 0
12, 44240, Note_on_c, 9, 42, 42
12, 44260, Note_on_c, 9, 42, 0
12, 44280, Note_on_c, 9, 42, 50
12, 44332, Note_on_c, 9, 42, 0
12, 44360, Note_on_c, 9, 42, 54
12, 44376, Note_on_c, 9, 42, 0
12, 44400, Note_on_c, 9, 42, 34
12, 44449, Note_on_c, 9, 42, 0
12, 44480, Note_on_c, 9, 42, 63
12, 44501, Note_on_c, 9, 42, 0
12, 44520, Note_on_c, 9, 42, 63
12, 44579, Note_on_c, 9, 42, 0
12, 44600, Note_on_c, 9, 42, 63
12, 44627, Note_on_c, 9, 42, 0
12, 44640, Note_on_c, 9, 42, 26
12, 44665, Note_on_c, 9, 42, 0
12, 44680, Note_on_c, 9, 42, 38
12, 44707, Note_on_c, 9, 42, 0
12, 44720, Note_on_c, 9, 42, 46
12, 44737, Note_on_c, 9, 42, 0
12, 44760, Note_on_c, 9, 42, 63
12, 44793, Note_on_c, 9, 42, 0
12, 44800, Note_on_c, 9, 42, 18
12, 44817, Note_on_c, 9, 42, 0
12, 44840, Note_on_c, 9, 42, 50
12, 44860, Note_on_c, 9, 42, 0
12, 44880, Note_on_c, 9, 42, 50
12, 44929, Note_on_c, 9, 42, 0
12, 44960, Note_on_c, 9, 42, 54
12, 44975, Note_on_c, 9, 42, 0
12, 45000, Note_on_c, 9, 42, 54
12, 45058, Note_on_c, 9, 42, 0
12, 45080, Note_on_c, 9, 42, 22
12, 45091, Note_on_c, 9, 42, 0
12, 45120, Note_on_c, 9, 42, 46
12, 45172, Note_on_c, 9, 42, 0
12, 45200, Note_on_c, 9, 42, 54
12, 45211, Note_on_c, 9, 42, 0
12, 45240, Note_on_c, 9, 42, 46
12, 45292, Note_on_c, 9, 42, 0
12, 45320, Note_on_c, 9, 42, 54
12, 45331, Note_on_c, 9, 42, 0
12, 45360, Note_on_c, 9, 42, 46
12, 45416, Note_on_c, 9, 42, 0
12, 45440, Note_on_c, 9, 42, 81
12, 45476, Note_on_c, 9, 42, 0
12, 45480, Note_on_c, 9, 42, 42
12, 45510, Note_on_c, 9, 42, 0
12, 45560, Note_on_c, 9, 42, 63
12, 45593, Note_on_c, 9, 42, 0
12, 45600, Note_on_c, 9, 42, 22
12, 45615, Note_on_c, 9, 42, 0
12, 45640, Note_on_c, 9, 42, 38
12, 45662, Note_on_c, 9, 42, 0
12, 45680, Note_on_c, 9, 42, 50
12, 45700, Note_on_c, 9, 42, 0
12, 45720, Note_on_c, 9, 42, 63
12, 45770, Note_on_c, 9, 42, 0
12, 45800, Note_on_c, 9, 42, 38
12, 45823, Note_on_c, 9, 42, 0
12, 45840, Note_on_c, 9, 42, 22
12, 45880, Note_on_c, 9, 42, 0
12, 45920, Note_on_c, 9, 42, 63
12, 45947, Note_on_c, 9, 42, 0
12, 45960, Note_on_c, 9, 42, 54
12, 46028, Note_on_c, 9, 42, 0
12, 46040, Note_on_c, 9, 42, 63
12, 46067, Note_on_c, 9, 42, 0
12, 46080, Note_on_c, 9, 42, 46
12, 46102, Note_on_c, 9, 42, 0
12, 46120, Note_on_c, 9, 42, 30
12, 46140, Note_on_c, 9, 42, 0
12, 46160, Note_on_c, 9, 42, 54
12, 46178, Note_on_c, 9, 42, 0
12, 46200, Note_on_c, 9, 42, 63
12, 46252, Note_on_c, 9, 42, 0
12, 46280, Note_on_c, 9, 42, 46
12, 46298, Note_on_c, 9, 42, 0
12, 46320, Note_on_c, 9, 42, 38
12, 46374, Note_on_c, 9, 42, 0
12, 46400, Note_on_c, 9, 42, 46
12, 46423, Note_on_c, 9, 42, 0
12, 46440, Note_on_c, 9, 42, 54
12, 46489, Note_on_c, 9, 42, 0
12, 46520, Note_on_c, 9, 42, 50
12, 46545, Note_on_c, 9, 42, 0
12, 46560, Note_on_c, 9, 42, 46
12, 46585, Note_on_c, 9, 42, 0
12, 46600, Note_on_c, 9, 42, 50
12, 46618, Note_on_c, 9, 42, 0
12, 46640, Note_on_c, 9, 42, 22
12, 46651, Note_on_c, 9, 42, 0
12, 46680, Note_on_c, 9, 42, 46
12, 46723, Note_on_c, 9, 42, 0
12, 46760, Note_on_c, 9, 42, 46
12, 46771, Note_on_c, 9, 42, 0
12, 46800, Note_on_c, 9, 42, 46
12, 46872, Note_on_c, 9, 42, 0
12, 46880, Note_on_c, 9, 46, 63
12, 46918, Note_on_c, 9, 46, 0
12, 46920, Note_on_c, 9, 42, 34
12, 46942, Note_on_c, 9, 42, 0
12, 47000, Note_on_c, 9, 42, 50
12, 47017, Note_on_c, 9, 42, 0
12, 47040, Note_on_c, 9, 42, 22
12, 47110, Note_on_c, 9, 42, 0
12, 47120, Note_on_c, 9, 46, 72
12, 47149, Note_on_c, 9, 46, 0
12, 47160, Note_on_c, 9, 42, 21
12, 47195, Note_on_c, 9, 42, 0
12, 47240, Note_on_c, 9, 42, 50
12, 47258, Note_on_c, 9, 42, 0
12, 47280, Note_on_c, 9, 42, 46
12, 47337, Note_on_c, 9, 42, 0
12, 47360, Note_on_c, 9, 42, 81
12, 47394, Note_on_c, 9, 42, 0
12, 47400, Note_on_c, 9, 42, 30
12, 47434, Note_on_c, 9, 42, 0
12, 47480, Note_on_c, 9, 42, 81
12, 47507, Note_on_c, 9, 42, 0
12, 47520, Note_on_c, 9, 42, 22
12, 47540, Note_on_c, 9, 42, 0
12, 47600, Note_on_c, 9, 42, 54
12, 47620, Note_on_c, 9, 42, 0
12, 47640, Note_on_c, 9, 42, 54
12, 47694, Note_on_c, 9, 42, 0
12, 47720, Note_on_c, 9, 42, 54
12, 47736, Note_on_c, 9, 42, 0
12, 47760, Note_on_c, 9, 42, 42
12, 47785, Note_on_c, 9, 42, 0
12, 47800, Note_on_c, 9, 42, 17
12, 47811, Note_on_c, 9, 42, 0
12, 47840, Note_on_c, 9, 42, 46
12, 47864, Note_on_c, 9, 42, 0
12, 47880, Note_on_c, 9, 42, 50
12, 47925, Note_on_c, 9, 42, 0
12, 47960, Note_on_c, 9, 42, 63
12, 47985, Note_on_c, 9, 42, 0
12, 48000, Note_on_c, 9, 42, 26
12, 48027, Note_on_c, 9, 42, 0
12, 48080, Note_on_c, 9, 42, 21
12, 48104, Note_on_c, 9, 42, 0
12, 48120, Note_on_c, 9, 42, 46
12, 48180, Note_on_c, 9, 42, 0
12, 48200, Note_on_c, 9, 42, 72
12, 48225, Note_on_c, 9, 42, 0
12, 48240, Note_on_c, 9, 42, 63
12, 48262, Note_on_c, 9, 42, 0
12, 48280, Note_on_c, 9, 42, 54
12, 48299, Note_on_c, 9, 42, 0
12, 48320, Note_on_c, 9, 42, 30
12, 48333, Note_on_c, 9, 42, 0
12, 48360, Note_on_c, 9, 42, 63
12, 48407, Note_on_c, 9, 42, 0
12, 48440, Note_on_c, 9, 42, 63
12, 48458, Note_on_c, 9, 42, 0
12, 48480, Note_on_c, 9, 42, 38
12, 48537, Note_on_c, 9, 42, 0
12, 48560, Note_on_c, 9, 42, 63
12, 48590, Note_on_c, 9, 42, 0
12, 48600, Note_on_c, 9, 42, 22
12, 48655, Note_on_c, 9, 42, 0
12, 48680, Note_on_c, 9, 42, 81
12, 48707, Note_on_c, 9, 42, 0
12, 48720, Note_on_c, 9, 42, 38
12, 48740, Note_on_c, 9, 42, 0
12, 48760, Note_on_c, 9, 42, 38
12, 48778, Note_on_c, 9, 42, 0
12, 48800, Note_on_c, 9, 42, 63
12, 48820, Note_on_c, 9, 42, 0
12, 48840, Note_on_c, 9, 42, 63
12, 48899, Note_on_c, 9, 42, 0
12, 48920, Note_on_c, 9, 42, 72
12, 48938, Note_on_c, 9, 42, 0
12, 48960, Note_on_c, 9, 42, 63
12, 49022, Note_on_c, 9, 42, 0
12, 49040, Note_on_c, 9, 42, 63
12, 49058, Note_on_c, 9, 42, 0
12, 49080, Note_on_c, 9, 42, 63
12, 49141, Note_on_c, 9, 42, 0
12, 49160, Note_on_c, 9, 42, 38
12, 49186, Note_on_c, 9, 42, 0
12, 49200, Note_on_c, 9, 42, 54
12, 49223, Note_on_c, 9, 42, 0
12, 49240, Note_on_c, 9, 42, 50
12, 49254, Note_on_c, 9, 42, 0
12, 49280, Note_on_c, 9, 42, 38
12, 49292, Note_on_c, 9, 42, 0
12, 49320, Note_on_c, 9, 42, 54
12, 49336, Note_on_c, 9, 42, 0
12, 49360, Note_on_c, 9, 42, 38
12, 49378, Note_on_c, 9, 42, 0
12, 49400, Note_on_c, 9, 42, 54
12, 49419, Note_on_c, 9, 42, 0
12, 49440, Note_on_c, 9, 42, 63
12, 49485, Note_on_c, 9, 42, 0
12, 49520, Note_on_c, 9, 42, 30
12, 49533, Note_on_c, 9, 42, 0
12, 49560, Note_on_c, 9, 42, 26
12, 49613, Note_on_c, 9, 42, 0
12, 49640, Note_on_c, 9, 42, 42
12, 49653, Note_on_c, 9, 42, 0
12, 49680, Note_on_c, 9, 42, 46
12, 49717, Note_on_c, 9, 42, 0
12, 49760, Note_on_c, 9, 46, 63
12, 49800, Note_on_c, 9, 42, 42
12, 49802, Note_on_c, 9, 46, 0
12, 49817, Note_on_c, 9, 42, 0
12, 49880, Note_on_c, 9, 42, 50
12, 49898, Note_on_c, 9, 42, 0
12, 49920, Note_on_c, 9, 42, 38
12, 49938, Note_on_c, 9, 42, 0
12, 49960, Note_on_c, 9, 42, 26
12, 49977, Note_on_c, 9, 42, 0
12, 50000, Note_on_c, 9, 42, 63
12, 50018, Note_on_c, 9, 42, 0
12, 50040, Note_on_c, 9, 42, 63
12, 50099, Note_on_c, 9, 42, 0
12, 50120, Note_on_c, 9, 42, 46
12, 50133, Note_on_c, 9, 42, 0
12, 50160, Note_on_c, 9, 42, 63
12, 50214, Note_on_c, 9, 42, 0
12, 50240, Note_on_c, 9, 42, 54
12, 50252, Note_on_c, 9, 42, 0
12, 50280, Note_on_c, 9, 42, 54
12, 50316, Note_on_c, 9, 42, 0
12, 50360, Note_on_c, 9, 46, 72
12, 50383, Note_on_c, 9, 46, 0
12, 50400, Note_on_c, 9, 42, 26
12, 50418, Note_on_c, 9, 42, 0
12, 50480, Note_on_c, 9, 42, 63
12, 50498, Note_on_c, 9, 42, 0
12, 50520, Note_on_c, 9, 42, 46
12, 50536, Note_on_c, 9, 42, 0
12, 50560, Note_on_c, 9, 42, 22
12, 50571, Note_on_c, 9, 42, 0
12, 50600, Note_on_c, 9, 42, 50
12, 50614, Note_on_c, 9, 42, 0
12, 50640, Note_on_c, 9, 42, 54
12, 50665, Note_on_c, 9, 42, 0
12, 50680, Note_on_c, 9, 42, 34
12, 50700, Note_on_c, 9, 42, 0
12, 50720, Note_on_c, 9, 42, 34
12, 50736, Note_on_c, 9, 42, 0
12, 50760, Note_on_c, 9, 42, 54
12, 50791, Note_on_c, 9, 42, 0
12, 50800, Note_on_c, 9, 42, 18
12, 50808, Note_on_c, 9, 42, 0
12, 50840, Note_on_c, 9, 42, 38
12, 50858, Note_on_c, 9, 42, 0
12, 50880, Note_on_c, 9, 42, 6
12, 50886, Note_on_c, 9, 42, 0
12, 50920, Note_on_c, 9, 42, 20
12, 50929, Note_on_c, 9, 42, 0
12, 50960, Note_on_c, 9, 42, 21
12, 50974, Note_on_c, 9, 42, 0
12, 51000, Note_on_c, 9, 42, 26
12, 51011, Note_on_c, 9, 42, 0
12, 51080, Note_on_c, 9, 42, 17
12, 51089, Note_on_c, 9, 42, 0
12, 51120, Note_on_c, 9, 42, 38
12, 51138, Note_on_c, 9, 42, 0
12, 51200, Note_on_c, 9, 42, 34
12, 51216, Note_on_c, 9, 42, 0
12, 51240, Note_on_c, 9, 42, 50
12, 51263, Note_on_c, 9, 42, 0
12, 51280, Note_on_c, 9, 42, 30
12, 51296, Note_on_c, 9, 42, 0
12, 51320, Note_on_c, 9, 42, 20
12, 51333, Note_on_c, 9, 42, 0
12, 51360, Note_on_c, 9, 42, 54
12, 51415, Note_on_c, 9, 42, 0
12, 51440, Note_on_c, 9, 42, 46
12, 51449, Note_on_c, 9, 42, 0
12, 51480, Note_on_c, 9, 42, 63
12, 51533, Note_on_c, 9, 42, 0
12, 51560, Note_on_c, 9, 42, 50
12, 51578, Note_on_c, 9, 42, 0
12, 51600, Note_on_c, 9, 42, 50
12, 51656, Note_on_c, 9, 42, 0
12, 51680, Note_on_c, 9, 42, 50
12, 51696, Note_on_c, 9, 42, 0
12, 51720, Note_on_c, 9, 42, 63
12, 51763, Note_on_c, 9, 42, 0
12, 51800, Note_on_c, 9, 42, 63
12, 51865, Note_on_c, 9, 42, 0
12, 51920, Note_on_c, 9, 42, 54
12, 51934, Note_on_c, 9, 42, 0
12, 51960, Note_on_c, 9, 42, 21
12, 51988, Note_on_c, 9, 42, 0
12, 52000, Note_on_c, 9, 42, 18
12, 52012, Note_on_c, 9, 42, 0
12, 52040, Note_on_c, 9, 42, 38
12, 52057, Note_on_c, 9, 42, 0
12, 52080, Note_on_c, 9, 42, 46
12, 52123, Note_on_c, 9, 42, 0
12, 52160, Note_on_c, 9, 42, 42
12, 52169, Note_on_c, 9, 42, 0
12, 52200, Note_on_c, 9, 42, 46
12, 52240, Note_on_c, 9, 42, 0
12, 52280, Note_on_c, 9, 42, 72
12, 52304, Note_on_c, 9, 42, 0
12, 52320, Note_on_c, 9, 42, 30
12, 52344, Note_on_c, 9, 42, 0
12, 52400, Note_on_c, 9, 42, 63
12, 52417, Note_on_c, 9, 42, 0
12, 52440, Note_on_c, 9, 42, 50
12, 52489, Note_on_c, 9, 42, 0
12, 52520, Note_on_c, 9, 42, 63
12, 52542, Note_on_c, 9, 42, 0
12, 52560, Note_on_c, 9, 42, 22
12, 52581, Note_on_c, 9, 42, 0
12, 52600, Note_on_c, 9, 42, 26
12, 52626, Note_on_c, 9, 42, 0
12, 52640, Note_on_c, 9, 42, 21
12, 52655, Note_on_c, 9, 42, 0
12, 52680, Note_on_c, 9, 42, 54
12, 52723, Note_on_c, 9, 42, 0
12, 52760, Note_on_c, 9, 42, 30
12, 52779, Note_on_c, 9, 42, 0
12, 52800, Note_on_c, 9, 42, 50
12, 52857, Note_on_c, 9, 42, 0
12, 52880, Note_on_c, 9, 42, 46
12, 52898, Note_on_c, 9, 42, 0
12, 52920, Note_on_c, 9, 42, 34
12, 52968, Note_on_c, 9, 42, 0
12, 53000, Note_on_c, 9, 42, 34
12, 53024, Note_on_c, 9, 42, 0
12, 53040, Note_on_c, 9, 42, 38
12, 53086, Note_on_c, 9, 42, 0
12, 53120, Note_on_c, 9, 42, 72
12, 53202, Note_on_c, 9, 42, 0
12, 53240, Note_on_c, 9, 42, 63
12, 53310, Note_on_c, 9, 42, 0
12, 53360, Note_on_c, 9, 42, 50
12, 53387, Note_on_c, 9, 42, 0
12, 53400, Note_on_c, 9, 42, 30
12, 53443, Note_on_c, 9, 42, 0
12, 53480, Note_on_c, 9, 42, 54
12, 53513, Note_on_c, 9, 42, 0
12, 53520, Note_on_c, 9, 42, 18
12, 53553, Note_on_c, 9, 42, 0
12, 53600, Note_on_c, 9, 42, 63
12, 53676, Note_on_c, 9, 42, 0
12, 53720, Note_on_c, 9, 42, 63
12, 53752, Note_on_c, 9, 42, 0
12, 53760, Note_on_c, 9, 42, 30
12, 53786, Note_on_c, 9, 42, 0
12, 53800, Note_on_c, 9, 42, 54
12, 53822, Note_on_c, 9, 42, 0
12, 53840, Note_on_c, 9, 42, 50
12, 53859, Note_on_c, 9, 42, 0
12, 53880, Note_on_c, 9, 42, 54
12, 53936, Note_on_c, 9, 42, 0
12, 53960, Note_on_c, 9, 42, 63
12, 53978, Note_on_c, 9, 42, 0
12, 54000, Note_on_c, 9, 42, 54
12, 54051, Note_on_c, 9, 42, 0
12, 54080, Note_on_c, 9, 42, 72
12, 54095, Note_on_c, 9, 42, 0
12, 54120, Note_on_c, 9, 42, 63
12, 54141, Note_on_c, 9, 42, 0
12, 77170, Control_c, 9, 7, 124
12, 77268, Control_c, 9, 7, 120
12, 77355, Control_c, 9, 7, 117
12, 77355, End_track
13, 0, Start_track
13, 0, MIDI_port, 0
13, 0, Title_t, "piano lh"
13, 0, Control_c, 0, 0, 56
13, 0, Control_c, 0, 32, 0
13, 0, Program_c, 0, 0
13, 0, Control_c, 0, 7, 127
13, 0, Control_c, 0, 10, 64
13, 28271, Note_on_c, 0, 62, 56
13, 28271, Note_on_c, 0, 51, 64
13, 28273, Note_on_c, 0, 57, 60
13, 28351, Note_on_c, 0, 51, 0
13, 28362, Note_on_c, 0, 57, 0
13, 28365, Note_on_c, 0, 62, 0
13, 28517, Note_on_c, 0, 59, 52
13, 28517, Note_on_c, 0, 62, 48
13, 28519, Note_on_c, 0, 57, 48
13, 28521, Note_on_c, 0, 51, 48
13, 28521, Note_on_c, 0, 56, 40
13, 28535, Note_on_c, 0, 56, 0
13, 28657, Note_on_c, 0, 51, 0
13, 28668, Note_on_c, 0, 57, 0
13, 28668, Note_on_c, 0, 59, 0
13, 29229, Note_on_c, 0, 62, 0
13, 29229, Note_on_c, 0, 55, 60
13, 29231, Note_on_c, 0, 50, 52
13, 29231, Note_on_c, 0, 61, 40
13, 29270, Note_on_c, 0, 61, 0
13, 29278, Note_on_c, 0, 50, 0
13, 29281, Note_on_c, 0, 55, 0
13, 29283, Note_on_c, 0, 57, 32
13, 29283, Note_on_c, 0, 51, 29
13, 29353, Note_on_c, 0, 62, 64
13, 29379, Note_on_c, 0, 51, 0
13, 29381, Note_on_c, 0, 62, 0
13, 29391, Note_on_c, 0, 57, 0
13, 29831, Note_on_c, 0, 62, 56
13, 29831, Note_on_c, 0, 57, 64
13, 29833, Note_on_c, 0, 51, 73
13, 29845, Note_on_c, 0, 51, 0
13, 29847, Note_on_c, 0, 57, 0
13, 29849, Note_on_c, 0, 62, 0
13, 30074, Note_on_c, 0, 62, 60
13, 30074, Note_on_c, 0, 57, 73
13, 30074, Note_on_c, 0, 51, 64
13, 30087, Note_on_c, 0, 51, 0
13, 30091, Note_on_c, 0, 57, 0
13, 30091, Note_on_c, 0, 62, 0
13, 30199, Note_on_c, 0, 60, 91
13, 30199, Note_on_c, 0, 67, 82
13, 30201, Note_on_c, 0, 62, 73
13, 30203, Note_on_c, 0, 56, 82
13, 30203, Note_on_c, 0, 65, 73
13, 30352, Note_on_c, 0, 65, 0
13, 30352, Note_on_c, 0, 62, 0
13, 30352, Note_on_c, 0, 67, 0
13, 30354, Note_on_c, 0, 60, 0
13, 30354, Note_on_c, 0, 56, 0
13, 30675, Note_on_c, 0, 65, 82
13, 30677, Note_on_c, 0, 62, 73
13, 30677, Note_on_c, 0, 60, 60
13, 30679, Note_on_c, 0, 56, 73
13, 30832, Note_on_c, 0, 56, 0
13, 30836, Note_on_c, 0, 60, 0
13, 30838, Note_on_c, 0, 62, 0
13, 30840, Note_on_c, 0, 65, 0
13, 31160, Note_on_c, 0, 62, 82
13, 31160, Note_on_c, 0, 57, 64
13, 31160, Note_on_c, 0, 51, 91
13, 31293, Note_on_c, 0, 51, 0
13, 31295, Note_on_c, 0, 62, 0
13, 31302, Note_on_c, 0, 57, 0
13, 31636, Note_on_c, 0, 67, 64
13, 31638, Note_on_c, 0, 62, 73
13, 31638, Note_on_c, 0, 60, 82
13, 31640, Note_on_c, 0, 56, 91
13, 31753, Note_on_c, 0, 67, 0
13, 31755, Note_on_c, 0, 62, 0
13, 31759, Note_on_c, 0, 60, 0
13, 31763, Note_on_c, 0, 56, 0
13, 31867, Note_on_c, 0, 60, 73
13, 31869, Note_on_c, 0, 58, 73
13, 31869, Note_on_c, 0, 65, 82
13, 31869, Note_on_c, 0, 54, 82
13, 32008, Note_on_c, 0, 65, 0
13, 32014, Note_on_c, 0, 54, 0
13, 32014, Note_on_c, 0, 60, 0
13, 32017, Note_on_c, 0, 58, 0
13, 32109, Note_on_c, 0, 62, 91
13, 32111, Note_on_c, 0, 58, 91
13, 32112, Note_on_c, 0, 53, 82
13, 32112, Note_on_c, 0, 55, 82
13, 32129, Note_on_c, 0, 55, 0
13, 32144, Note_on_c, 0, 55, 16
13, 32156, Note_on_c, 0, 55, 0
13, 32162, Note_on_c, 0, 53, 0
13, 32166, Note_on_c, 0, 58, 0
13, 32167, Note_on_c, 0, 62, 0
13, 32714, Note_on_c, 0, 60, 91
13, 32714, Note_on_c, 0, 53, 82
13, 32714, Note_on_c, 0, 58, 91
13, 32714, Note_on_c, 0, 55, 82
13, 32727, Note_on_c, 0, 55, 0
13, 32727, Note_on_c, 0, 60, 0
13, 32727, Note_on_c, 0, 53, 0
13, 32727, Note_on_c, 0, 58, 0
13, 32961, Note_on_c, 0, 60, 82
13, 32961, Note_on_c, 0, 55, 73
13, 32962, Note_on_c, 0, 58, 73
13, 32968, Note_on_c, 0, 58, 0
13, 32970, Note_on_c, 0, 55, 0
13, 32970, Note_on_c, 0, 60, 0
13, 33555, Note_on_c, 0, 50, 82
13, 33555, Note_on_c, 0, 61, 91
13, 33557, Note_on_c, 0, 55, 73
13, 33615, Note_on_c, 0, 50, 0
13, 33615, Note_on_c, 0, 51, 30
13, 33617, Note_on_c, 0, 55, 0
13, 33619, Note_on_c, 0, 61, 0
13, 33619, Note_on_c, 0, 56, 31
13, 33621, Note_on_c, 0, 62, 16
13, 33630, Note_on_c, 0, 62, 0
13, 33630, Note_on_c, 0, 56, 0
13, 33666, Note_on_c, 0, 51, 0
13, 33679, Note_on_c, 0, 51, 44
13, 33681, Note_on_c, 0, 62, 52
13, 33681, Note_on_c, 0, 57, 56
13, 33702, Note_on_c, 0, 57, 0
13, 33703, Note_on_c, 0, 51, 0
13, 33705, Note_on_c, 0, 62, 0
13, 36050, Control_c, 0, 7, 107
13, 36110, Control_c, 0, 7, 110
13, 36115, Control_c, 0, 7, 114
13, 36125, Control_c, 0, 7, 117
13, 36130, Control_c, 0, 7, 121
13, 36139, Control_c, 0, 7, 124
13, 37928, Control_c, 0, 7, 125
13, 38040, Control_c, 0, 7, 127
13, 38040, End_track
14, 0, Start_track
14, 0, MIDI_port, 0
14, 0, Title_t, "piano solo"
14, 0, Control_c, 0, 0, 56
14, 0, Control_c, 0, 32, 0
14, 0, Program_c, 0, 0
14, 0, Control_c, 0, 7, 127
14, 0, Control_c, 0, 10, 64
14, 25371, Control_c, 0, 7, 124
14, 25459, Control_c, 0, 7, 120
14, 26005, Control_c, 0, 7, 117
14, 26477, Note_on_c, 0, 56, 76
14, 26479, Note_on_c, 0, 50, 84
14, 26594, Note_on_c, 0, 57, 52
14, 26598, Note_on_c, 0, 50, 0
14, 26598, Note_on_c, 0, 56, 0
14, 26598, Note_on_c, 0, 51, 60
14, 26632, Note_on_c, 0, 57, 0
14, 26634, Note_on_c, 0, 51, 0
14, 26718, Note_on_c, 0, 65, 120
14, 26754, Note_on_c, 0, 65, 0
14, 26763, Note_on_c, 0, 68, 93
14, 26832, Note_on_c, 0, 68, 0
14, 26833, Note_on_c, 0, 70, 111
14, 26876, Note_on_c, 0, 68, 84
14, 26882, Note_on_c, 0, 70, 0
14, 26913, Note_on_c, 0, 68, 0
14, 26920, Note_on_c, 0, 70, 51
14, 26936, Note_on_c, 0, 68, 72
14, 26947, Note_on_c, 0, 70, 0
14, 26954, Note_on_c, 0, 68, 0
14, 26958, Note_on_c, 0, 65, 93
14, 26975, Note_on_c, 0, 65, 0
14, 26980, Note_on_c, 0, 63, 84
14, 27070, Note_on_c, 0, 63, 0
14, 27075, Note_on_c, 0, 65, 72
14, 27120, Note_on_c, 0, 65, 0
14, 27194, Note_on_c, 0, 65, 120
14, 27234, Note_on_c, 0, 65, 0
14, 27241, Note_on_c, 0, 68, 93
14, 27304, Note_on_c, 0, 70, 52
14, 27305, Note_on_c, 0, 68, 0
14, 27334, Note_on_c, 0, 70, 0
14, 27334, Note_on_c, 0, 68, 76
14, 27351, Note_on_c, 0, 70, 76
14, 27355, Note_on_c, 0, 71, 93
14, 27373, Note_on_c, 0, 68, 0
14, 27381, Note_on_c, 0, 72, 64
14, 27392, Note_on_c, 0, 71, 0
14, 27394, Note_on_c, 0, 70, 0
14, 27435, Note_on_c, 0, 72, 0
14, 27437, Note_on_c, 0, 70, 64
14, 27480, Note_on_c, 0, 68, 68
14, 27498, Note_on_c, 0, 70, 0
14, 27552, Note_on_c, 0, 65, 68
14, 27556, Note_on_c, 0, 68, 0
14, 27587, Note_on_c, 0, 65, 0
14, 27587, Note_on_c, 0, 68, 93
14, 27607, Note_on_c, 0, 70, 80
14, 27616, Note_on_c, 0, 68, 0
14, 27637, Note_on_c, 0, 68, 68
14, 27641, Note_on_c, 0, 70, 0
14, 27659, Note_on_c, 0, 65, 84
14, 27661, Note_on_c, 0, 68, 0
14, 27675, Note_on_c, 0, 65, 0
14, 27690, Note_on_c, 0, 63, 68
14, 27708, Note_on_c, 0, 63, 0
14, 27717, Note_on_c, 0, 65, 76
14, 27788, Note_on_c, 0, 65, 0
14, 27789, Note_on_c, 0, 68, 64
14, 27802, Note_on_c, 0, 69, 72
14, 27804, Note_on_c, 0, 68, 0
14, 27876, Note_on_c, 0, 69, 0
14, 28131, Note_on_c, 0, 65, 36
14, 28148, Note_on_c, 0, 65, 0
14, 28161, Note_on_c, 0, 68, 76
14, 28182, Note_on_c, 0, 68, 0
14, 28197, Note_on_c, 0, 71, 111
14, 28235, Note_on_c, 0, 72, 72
14, 28246, Note_on_c, 0, 71, 0
14, 28258, Note_on_c, 0, 72, 0
14, 28274, Note_on_c, 0, 74, 68
14, 28559, Note_on_c, 0, 74, 0
14, 28622, Note_on_c, 0, 74, 68
14, 28640, Note_on_c, 0, 73, 56
14, 28649, Note_on_c, 0, 74, 0
14, 28655, Note_on_c, 0, 72, 93
14, 28660, Note_on_c, 0, 73, 0
14, 28675, Note_on_c, 0, 71, 93
14, 28687, Note_on_c, 0, 72, 0
14, 28761, Note_on_c, 0, 74, 50
14, 28783, Note_on_c, 0, 71, 0
14, 28790, Note_on_c, 0, 74, 0
14, 28806, Note_on_c, 0, 72, 43
14, 28877, Note_on_c, 0, 72, 0
14, 28877, Note_on_c, 0, 67, 111
14, 28913, Note_on_c, 0, 67, 0
14, 28922, Note_on_c, 0, 70, 84
14, 28994, Note_on_c, 0, 67, 68
14, 29008, Note_on_c, 0, 70, 0
14, 29012, Note_on_c, 0, 67, 0
14, 29027, Note_on_c, 0, 68, 93
14, 29040, Note_on_c, 0, 68, 0
14, 29041, Note_on_c, 0, 69, 37
14, 29115, Note_on_c, 0, 65, 56
14, 29117, Note_on_c, 0, 69, 0
14, 29160, Note_on_c, 0, 60, 64
14, 29162, Note_on_c, 0, 65, 0
14, 29227, Note_on_c, 0, 60, 0
14, 29231, Note_on_c, 0, 65, 111
14, 29299, Note_on_c, 0, 65, 0
14, 29335, Note_on_c, 0, 65, 56
14, 29361, Note_on_c, 0, 59, 84
14, 29363, Note_on_c, 0, 65, 0
14, 29384, Note_on_c, 0, 59, 0
14, 29399, Note_on_c, 0, 58, 111
14, 29474, Note_on_c, 0, 58, 0
14, 29476, Note_on_c, 0, 56, 80
14, 29516, Note_on_c, 0, 56, 0
14, 29531, Note_on_c, 0, 57, 56
14, 29588, Note_on_c, 0, 57, 0
14, 29592, Note_on_c, 0, 60, 84
14, 29646, Note_on_c, 0, 65, 93
14, 29648, Note_on_c, 0, 60, 0
14, 29693, Note_on_c, 0, 65, 0
14, 29709, Note_on_c, 0, 67, 111
14, 29756, Note_on_c, 0, 67, 0
14, 29771, Note_on_c, 0, 68, 93
14, 29824, Note_on_c, 0, 68, 0
14, 29833, Note_on_c, 0, 72, 93
14, 29868, Note_on_c, 0, 72, 0
14, 29888, Note_on_c, 0, 77, 111
14, 29944, Note_on_c, 0, 77, 0
14, 29951, Note_on_c, 0, 79, 93
14, 29998, Note_on_c, 0, 79, 0
14, 30009, Note_on_c, 0, 80, 84
14, 30070, Note_on_c, 0, 80, 0
14, 30072, Note_on_c, 0, 77, 102
14, 30120, Note_on_c, 0, 77, 0
14, 30122, Note_on_c, 0, 80, 76
14, 30179, Note_on_c, 0, 80, 0
14, 30191, Note_on_c, 0, 83, 102
14, 30207, Note_on_c, 0, 84, 84
14, 30218, Note_on_c, 0, 83, 0
14, 30287, Note_on_c, 0, 83, 60
14, 30290, Note_on_c, 0, 84, 0
14, 30303, Note_on_c, 0, 83, 0
14, 30307, Note_on_c, 0, 82, 52
14, 30325, Note_on_c, 0, 82, 0
14, 30325, Note_on_c, 0, 77, 111
14, 30337, Note_on_c, 0, 77, 0
14, 30350, Note_on_c, 0, 80, 84
14, 30422, Note_on_c, 0, 80, 0
14, 30437, Note_on_c, 0, 77, 80
14, 30516, Note_on_c, 0, 77, 0
14, 30676, Note_on_c, 0, 83, 111
14, 30682, Note_on_c, 0, 84, 102
14, 30695, Note_on_c, 0, 83, 0
14, 30748, Control_c, 0, 7, 120
14, 30765, Note_on_c, 0, 84, 0
14, 30767, Note_on_c, 0, 83, 64
14, 30787, Note_on_c, 0, 83, 0
14, 30789, Note_on_c, 0, 82, 68
14, 30801, Note_on_c, 0, 82, 0
14, 30801, Note_on_c, 0, 77, 102
14, 30814, Note_on_c, 0, 77, 0
14, 30830, Note_on_c, 0, 80, 93
14, 30908, Note_on_c, 0, 80, 0
14, 30915, Note_on_c, 0, 77, 76
14, 31057, Note_on_c, 0, 77, 0
14, 31160, Note_on_c, 0, 84, 120
14, 31252, Note_on_c, 0, 84, 0
14, 31273, Note_on_c, 0, 84, 68
14, 31292, Note_on_c, 0, 83, 80
14, 31294, Note_on_c, 0, 84, 0
14, 31303, Note_on_c, 0, 82, 80
14, 31312, Note_on_c, 0, 83, 0
14, 31315, Note_on_c, 0, 81, 102
14, 31324, Note_on_c, 0, 82, 0
14, 31386, Note_on_c, 0, 81, 0
14, 31398, Note_on_c, 0, 84, 76
14, 31498, Note_on_c, 0, 84, 0
14, 31514, Note_on_c, 0, 84, 84
14, 31528, Note_on_c, 0, 83, 93
14, 31537, Note_on_c, 0, 84, 0
14, 31543, Note_on_c, 0, 82, 102
14, 31548, Note_on_c, 0, 83, 0
14, 31566, Note_on_c, 0, 82, 0
14, 31566, Note_on_c, 0, 81, 84
14, 31622, Note_on_c, 0, 81, 0
14, 31646, Note_on_c, 0, 86, 120
14, 31745, Note_on_c, 0, 86, 0
14, 31758, Note_on_c, 0, 91, 120
14, 31801, Note_on_c, 0, 89, 84
14, 31806, Note_on_c, 0, 91, 0
14, 31860, Note_on_c, 0, 89, 0
14, 31872, Note_on_c, 0, 86, 93
14, 31900, Note_on_c, 0, 86, 0
14, 31922, Note_on_c, 0, 84, 68
14, 31985, Note_on_c, 0, 84, 0
14, 31989, Note_on_c, 0, 79, 120
14, 32030, Note_on_c, 0, 79, 0
14, 32034, Note_on_c, 0, 84, 84
14, 32108, Note_on_c, 0, 86, 80
14, 32119, Note_on_c, 0, 84, 0
14, 32131, Note_on_c, 0, 86, 0
14, 32135, Note_on_c, 0, 75, 76
14, 32160, Note_on_c, 0, 75, 0
14, 32162, Note_on_c, 0, 87, 102
14, 32179, Note_on_c, 0, 75, 111
14, 32180, Note_on_c, 0, 87, 0
14, 32193, Note_on_c, 0, 75, 0
14, 32202, Note_on_c, 0, 87, 102
14, 32217, Note_on_c, 0, 75, 93
14, 32220, Note_on_c, 0, 87, 0
14, 32231, Note_on_c, 0, 87, 102
14, 32269, Note_on_c, 0, 87, 0
14, 32269, Note_on_c, 0, 75, 0
14, 32271, Note_on_c, 0, 86, 102
14, 32280, Note_on_c, 0, 74, 80
14, 32280, Note_on_c, 0, 85, 36
14, 32282, Note_on_c, 0, 85, 0
14, 32372, Note_on_c, 0, 74, 0
14, 32385, Note_on_c, 0, 86, 0
14, 32394, Note_on_c, 0, 72, 80
14, 32394, Note_on_c, 0, 84, 93
14, 32430, Control_c, 0, 7, 123
14, 32435, Control_c, 0, 7, 127
14, 32457, Note_on_c, 0, 72, 0
14, 32459, Note_on_c, 0, 84, 0
14, 32465, Note_on_c, 0, 79, 120
14, 32508, Note_on_c, 0, 79, 0
14, 32527, Note_on_c, 0, 84, 93
14, 32577, Note_on_c, 0, 84, 0
14, 32593, Note_on_c, 0, 86, 84
14, 32628, Note_on_c, 0, 86, 0
14, 32639, Note_on_c, 0, 75, 76
14, 32651, Note_on_c, 0, 75, 0
14, 32659, Note_on_c, 0, 87, 84
14, 32659, Note_on_c, 0, 85, 80
14, 32668, Note_on_c, 0, 85, 0
14, 32670, Note_on_c, 0, 87, 0
14, 32677, Note_on_c, 0, 75, 64
14, 32684, Note_on_c, 0, 75, 0
14, 32697, Note_on_c, 0, 75, 80
14, 32697, Note_on_c, 0, 87, 93
14, 32731, Note_on_c, 0, 85, 60
14, 32733, Note_on_c, 0, 87, 0
14, 32735, Note_on_c, 0, 75, 0
14, 32740, Note_on_c, 0, 85, 0
14, 32748, Note_on_c, 0, 86, 102
14, 32748, Control_c, 0, 7, 124
14, 32750, Note_on_c, 0, 74, 111
14, 32802, Note_on_c, 0, 74, 0
14, 32824, Note_on_c, 0, 86, 0
14, 32826, Note_on_c, 0, 72, 93
14, 32828, Note_on_c, 0, 84, 84
14, 32842, Note_on_c, 0, 83, 36
14, 32844, Note_on_c, 0, 83, 0
14, 32866, Note_on_c, 0, 72, 0
14, 32873, Note_on_c, 0, 84, 0
14, 32879, Control_c, 0, 7, 120
14, 32884, Note_on_c, 0, 84, 80
14, 32884, Note_on_c, 0, 72, 84
14, 32936, Note_on_c, 0, 84, 0
14, 32949, Note_on_c, 0, 80, 111
14, 32965, Note_on_c, 0, 72, 0
14, 32988, Note_on_c, 0, 81, 76
14, 33003, Note_on_c, 0, 80, 0
14, 33048, Note_on_c, 0, 81, 0
14, 33070, Note_on_c, 0, 77, 111
14, 33282, Note_on_c, 0, 75, 60
14, 33293, Note_on_c, 0, 77, 0
14, 33298, Control_c, 0, 7, 117
14, 33320, Note_on_c, 0, 72, 68
14, 33333, Note_on_c, 0, 75, 0
14, 33344, Note_on_c, 0, 72, 0
14, 33358, Note_on_c, 0, 71, 127
14, 33387, Note_on_c, 0, 71, 0
14, 33434, Note_on_c, 0, 68, 64
14, 33463, Note_on_c, 0, 68, 0
14, 33478, Note_on_c, 0, 70, 84
14, 33490, Note_on_c, 0, 68, 36
14, 33490, Note_on_c, 0, 68, 0
14, 33500, Control_c, 0, 7, 113
14, 33516, Note_on_c, 0, 70, 0
14, 33521, Note_on_c, 0, 65, 68
14, 33542, Note_on_c, 0, 65, 0
14, 33563, Note_on_c, 0, 70, 80
14, 33570, Note_on_c, 0, 68, 51
14, 33582, Note_on_c, 0, 68, 0
14, 33602, Note_on_c, 0, 71, 68
14, 33613, Note_on_c, 0, 70, 0
14, 33626, Note_on_c, 0, 71, 0
14, 33644, Note_on_c, 0, 70, 42
14, 33657, Note_on_c, 0, 70, 0
14, 33657, Note_on_c, 0, 68, 68
14, 33675, Note_on_c, 0, 68, 0
14, 33687, Note_on_c, 0, 65, 68
14, 33704, Note_on_c, 0, 65, 0
14, 33718, Note_on_c, 0, 68, 52
14, 33800, Note_on_c, 0, 68, 0
14, 33803, Note_on_c, 0, 65, 80
14, 33902, Note_on_c, 0, 65, 0
14, 33955, Note_on_c, 0, 62, 102
14, 33957, Note_on_c, 0, 58, 80
14, 34011, Note_on_c, 0, 62, 0
14, 34025, Note_on_c, 0, 58, 0
14, 34038, Note_on_c, 0, 53, 36
14, 34040, Note_on_c, 0, 53, 0
14, 34072, Note_on_c, 0, 56, 80
14, 34078, Note_on_c, 0, 60, 76
14, 34092, Note_on_c, 0, 56, 0
14, 34109, Note_on_c, 0, 57, 38
14, 34140, Note_on_c, 0, 57, 0
14, 34168, Note_on_c, 0, 60, 0
14, 34435, Note_on_c, 0, 67, 102
14, 34435, Note_on_c, 0, 62, 93
14, 34437, Note_on_c, 0, 56, 102
14, 34500, Note_on_c, 0, 56, 0
14, 34500, Note_on_c, 0, 67, 0
14, 34504, Note_on_c, 0, 62, 0
14, 34563, Note_on_c, 0, 58, 42
14, 34574, Note_on_c, 0, 63, 52
14, 34580, Note_on_c, 0, 68, 37
14, 34643, Note_on_c, 0, 63, 0
14, 34645, Note_on_c, 0, 68, 0
14, 34645, Note_on_c, 0, 58, 0
14, 34676, Note_on_c, 0, 67, 84
14, 34678, Note_on_c, 0, 62, 80
14, 34680, Note_on_c, 0, 56, 93
14, 34757, Note_on_c, 0, 56, 0
14, 34757, Note_on_c, 0, 62, 0
14, 34763, Note_on_c, 0, 67, 0
14, 34799, Note_on_c, 0, 65, 64
14, 34799, Note_on_c, 0, 60, 52
14, 34802, Note_on_c, 0, 55, 51
14, 34848, Note_on_c, 0, 60, 0
14, 34851, Note_on_c, 0, 55, 0
14, 34882, Note_on_c, 0, 62, 72
14, 34882, Note_on_c, 0, 67, 76
14, 34884, Note_on_c, 0, 56, 93
14, 34887, Note_on_c, 0, 65, 0
14, 34908, Note_on_c, 0, 56, 0
14, 34908, Note_on_c, 0, 57, 80
14, 34924, Note_on_c, 0, 57, 0
14, 34933, Note_on_c, 0, 67, 0
14, 34933, Note_on_c, 0, 62, 0
14, 34992, Note_on_c, 0, 65, 72
14, 34994, Note_on_c, 0, 55, 68
14, 34998, Note_on_c, 0, 60, 49
14, 35063, Note_on_c, 0, 65, 0
14, 35070, Note_on_c, 0, 60, 0
14, 35076, Note_on_c, 0, 55, 0
14, 35445, Control_c, 0, 7, 110
14, 36760, Control_c, 0, 7, 111
14, 36801, Control_c, 0, 7, 117
14, 36823, Control_c, 0, 7, 121
14, 36840, Control_c, 0, 7, 124
14, 36971, Control_c, 0, 7, 127
14, 40567, Control_c, 0, 7, 106
14, 40610, Control_c, 0, 7, 109
14, 40615, Control_c, 0, 7, 113
14, 40630, Control_c, 0, 7, 116
14, 40712, Control_c, 0, 7, 120
14, 40757, Control_c, 0, 7, 123
14, 40974, Control_c, 0, 7, 127
14, 40974, End_track
15, 0, Start_track
15, 0, MIDI_port, 0
15, 0, Title_t, "percussion"
15, 0, Control_c, 9, 0, 62
15, 0, Control_c, 9, 32, 0
15, 0, Program_c, 9, 0
15, 0, Control_c, 9, 7, 115
15, 0, Control_c, 9, 10, 64
15, 54160, Note_on_c, 9, 61, 32
15, 54173, Note_on_c, 9, 61, 0
15, 54200, Note_on_c, 9, 61, 52
15, 54219, Note_on_c, 9, 61, 0
15, 54240, Note_on_c, 9, 61, 82
15, 54314, Note_on_c, 9, 61, 0
15, 54360, Note_on_c, 9, 62, 40
15, 54435, Note_on_c, 9, 62, 0
15, 54440, Note_on_c, 9, 61, 36
15, 54461, Note_on_c, 9, 61, 0
15, 54560, Note_on_c, 9, 62, 22
15, 54581, Note_on_c, 9, 62, 0
15, 54600, Note_on_c, 9, 61, 31
15, 54680, Note_on_c, 9, 62, 56
15, 54691, Note_on_c, 9, 61, 0
15, 54718, Note_on_c, 9, 62, 0
15, 54800, Note_on_c, 9, 62, 29
15, 54817, Note_on_c, 9, 62, 0
15, 54840, Note_on_c, 9, 61, 31
15, 54920, Note_on_c, 9, 62, 60
15, 54933, Note_on_c, 9, 61, 0
15, 54960, Note_on_c, 9, 62, 0
15, 55040, Note_on_c, 9, 62, 48
15, 55077, Note_on_c, 9, 62, 0
15, 55160, Note_on_c, 9, 62, 91
15, 55200, Note_on_c, 9, 62, 0
15, 55200, Note_on_c, 9, 61, 82
15, 55274, Note_on_c, 9, 61, 0
15, 55320, Note_on_c, 9, 62, 40
15, 55395, Note_on_c, 9, 62, 0
15, 55400, Note_on_c, 9, 61, 36
15, 55421, Note_on_c, 9, 61, 0
15, 55520, Note_on_c, 9, 62, 22
15, 55541, Note_on_c, 9, 62, 0
15, 55560, Note_on_c, 9, 61, 31
15, 55640, Note_on_c, 9, 62, 56
15, 55651, Note_on_c, 9, 61, 0
15, 55678, Note_on_c, 9, 62, 0
15, 55760, Note_on_c, 9, 62, 29
15, 55777, Note_on_c, 9, 62, 0
15, 55800, Note_on_c, 9, 61, 31
15, 55880, Note_on_c, 9, 62, 60
15, 55893, Note_on_c, 9, 61, 0
15, 55920, Note_on_c, 9, 62, 0
15, 56000, Note_on_c, 9, 62, 48
15, 56037, Note_on_c, 9, 62, 0
15, 56120, Note_on_c, 9, 62, 91
15, 56160, Note_on_c, 9, 62, 0
15, 56238, Note_on_c, 9, 62, 16
15, 56251, Note_on_c, 9, 62, 0
15, 56358, Note_on_c, 9, 62, 64
15, 56390, Note_on_c, 9, 62, 0
15, 56478, Note_on_c, 9, 62, 56
15, 56503, Note_on_c, 9, 62, 0
15, 56558, Note_on_c, 9, 61, 21
15, 56570, Note_on_c, 9, 61, 0
15, 56598, Note_on_c, 9, 61, 36
15, 56616, Note_on_c, 9, 61, 0
15, 56718, Note_on_c, 9, 61, 82
15, 56753, Note_on_c, 9, 61, 0
15, 56958, Note_on_c, 9, 62, 100
15, 56992, Note_on_c, 9, 62, 0
15, 57038, Note_on_c, 9, 62, 64
15, 57058, Note_on_c, 9, 62, 0
15, 57078, Note_on_c, 9, 61, 48
15, 57099, Note_on_c, 9, 61, 0
15, 57118, Note_on_c, 9, 72, 56
15, 57120, Note_on_c, 9, 61, 82
15, 57136, Note_on_c, 9, 72, 0
15, 57194, Note_on_c, 9, 61, 0
15, 57240, Note_on_c, 9, 62, 40
15, 57315, Note_on_c, 9, 62, 0
15, 57320, Note_on_c, 9, 61, 36
15, 57341, Note_on_c, 9, 61, 0
15, 57440, Note_on_c, 9, 62, 22
15, 57461, Note_on_c, 9, 62, 0
15, 57480, Note_on_c, 9, 61, 31
15, 57560, Note_on_c, 9, 62, 56
15, 57571, Note_on_c, 9, 61, 0
15, 57598, Note_on_c, 9, 62, 0
15, 57680, Note_on_c, 9, 62, 29
15, 57697, Note_on_c, 9, 62, 0
15, 57720, Note_on_c, 9, 61, 31
15, 57800, Note_on_c, 9, 62, 60
15, 57813, Note_on_c, 9, 61, 0
15, 57840, Note_on_c, 9, 62, 0
15, 57920, Note_on_c, 9, 62, 48
15, 57957, Note_on_c, 9, 62, 0
15, 58040, Note_on_c, 9, 62, 91
15, 58080, Note_on_c, 9, 62, 0
15, 58080, Note_on_c, 9, 61, 82
15, 58154, Note_on_c, 9, 61, 0
15, 58200, Note_on_c, 9, 62, 40
15, 58275, Note_on_c, 9, 62, 0
15, 58280, Note_on_c, 9, 61, 36
15, 58301, Note_on_c, 9, 61, 0
15, 58400, Note_on_c, 9, 62, 22
15, 58421, Note_on_c, 9, 62, 0
15, 58440, Note_on_c, 9, 61, 31
15, 58520, Note_on_c, 9, 62, 56
15, 58531, Note_on_c, 9, 61, 0
15, 58558, Note_on_c, 9, 62, 0
15, 58640, Note_on_c, 9, 62, 29
15, 58657, Note_on_c, 9, 62, 0
15, 58680, Note_on_c, 9, 61, 31
15, 58760, Note_on_c, 9, 62, 60
15, 58773, Note_on_c, 9, 61, 0
15, 58800, Note_on_c, 9, 62, 0
15, 58880, Note_on_c, 9, 62, 48
15, 58917, Note_on_c, 9, 62, 0
15, 59000, Note_on_c, 9, 62, 91
15, 59040, Note_on_c, 9, 62, 0
15, 59118, Note_on_c, 9, 62, 16
15, 59131, Note_on_c, 9, 62, 0
15, 59238, Note_on_c, 9, 62, 64
15, 59270, Note_on_c, 9, 62, 0
15, 59358, Note_on_c, 9, 62, 56
15, 59383, Note_on_c, 9, 62, 0
15, 59438, Note_on_c, 9, 61, 21
15, 59450, Note_on_c, 9, 61, 0
15, 59478, Note_on_c, 9, 61, 36
15, 59496, Note_on_c, 9, 61, 0
15, 59598, Note_on_c, 9, 61, 82
15, 59633, Note_on_c, 9, 61, 0
15, 59838, Note_on_c, 9, 62, 100
15, 59872, Note_on_c, 9, 62, 0
15, 59918, Note_on_c, 9, 62, 64
15, 59938, Note_on_c, 9, 62, 0
15, 59958, Note_on_c, 9, 61, 48
15, 59979, Note_on_c, 9, 61, 0
15, 59998, Note_on_c, 9, 72, 56
15, 60000, Note_on_c, 9, 61, 82
15, 60016, Note_on_c, 9, 72, 0
15, 60074, Note_on_c, 9, 61, 0
15, 60120, Note_on_c, 9, 62, 40
15, 60195, Note_on_c, 9, 62, 0
15, 60200, Note_on_c, 9, 61, 36
15, 60221, Note_on_c, 9, 61, 0
15, 60320, Note_on_c, 9, 62, 22
15, 60341, Note_on_c, 9, 62, 0
15, 60360, Note_on_c, 9, 61, 31
15, 60440, Note_on_c, 9, 62, 56
15, 60451, Note_on_c, 9, 61, 0
15, 60478, Note_on_c, 9, 62, 0
15, 60560, Note_on_c, 9, 62, 29
15, 60577, Note_on_c, 9, 62, 0
15, 60600, Note_on_c, 9, 61, 31
15, 60680, Note_on_c, 9, 62, 60
15, 60693, Note_on_c, 9, 61, 0
15, 60720, Note_on_c, 9, 62, 0
15, 60800, Note_on_c, 9, 62, 48
15, 60837, Note_on_c, 9, 62, 0
15, 60920, Note_on_c, 9, 62, 91
15, 60960, Note_on_c, 9, 62, 0
15, 60960, Note_on_c, 9, 61, 82
15, 61034, Note_on_c, 9, 61, 0
15, 61080, Note_on_c, 9, 62, 40
15, 61155, Note_on_c, 9, 62, 0
15, 61160, Note_on_c, 9, 61, 36
15, 61181, Note_on_c, 9, 61, 0
15, 61280, Note_on_c, 9, 62, 22
15, 61301, Note_on_c, 9, 62, 0
15, 61320, Note_on_c, 9, 61, 31
15, 61400, Note_on_c, 9, 62, 56
15, 61411, Note_on_c, 9, 61, 0
15, 61438, Note_on_c, 9, 62, 0
15, 61520, Note_on_c, 9, 62, 29
15, 61537, Note_on_c, 9, 62, 0
15, 61560, Note_on_c, 9, 61, 31
15, 61640, Note_on_c, 9, 62, 60
15, 61653, Note_on_c, 9, 61, 0
15, 61680, Note_on_c, 9, 62, 0
15, 61760, Note_on_c, 9, 62, 48
15, 61797, Note_on_c, 9, 62, 0
15, 61880, Note_on_c, 9, 62, 91
15, 61920, Note_on_c, 9, 62, 0
15, 61998, Note_on_c, 9, 62, 16
15, 62011, Note_on_c, 9, 62, 0
15, 62118, Note_on_c, 9, 62, 64
15, 62150, Note_on_c, 9, 62, 0
15, 62238, Note_on_c, 9, 62, 56
15, 62263, Note_on_c, 9, 62, 0
15, 62318, Note_on_c, 9, 61, 21
15, 62330, Note_on_c, 9, 61, 0
15, 62358, Note_on_c, 9, 61, 36
15, 62376, Note_on_c, 9, 61, 0
15, 62478, Note_on_c, 9, 61, 82
15, 62513, Note_on_c, 9, 61, 0
15, 62718, Note_on_c, 9, 62, 100
15, 62752, Note_on_c, 9, 62, 0
15, 62798, Note_on_c, 9, 62, 64
15, 62818, Note_on_c, 9, 62, 0
15, 62838, Note_on_c, 9, 61, 48
15, 62859, Note_on_c, 9, 61, 0
15, 62878, Note_on_c, 9, 72, 56
15, 62880, Note_on_c, 9, 61, 82
15, 62896, Note_on_c, 9, 72, 0
15, 62954, Note_on_c, 9, 61, 0
15, 63000, Note_on_c, 9, 62, 40
15, 63075, Note_on_c, 9, 62, 0
15, 63080, Note_on_c, 9, 61, 36
15, 63101, Note_on_c, 9, 61, 0
15, 63200, Note_on_c, 9, 62, 22
15, 63221, Note_on_c, 9, 62, 0
15, 63240, Note_on_c, 9, 61, 31
15, 63320, Note_on_c, 9, 62, 56
15, 63331, Note_on_c, 9, 61, 0
15, 63358, Note_on_c, 9, 62, 0
15, 63440, Note_on_c, 9, 62, 29
15, 63457, Note_on_c, 9, 62, 0
15, 63480, Note_on_c, 9, 61, 31
15, 63560, Note_on_c, 9, 62, 60
15, 63573, Note_on_c, 9, 61, 0
15, 63600, Note_on_c, 9, 62, 0
15, 63680, Note_on_c, 9, 62, 48
15, 63717, Note_on_c, 9, 62, 0
15, 63800, Note_on_c, 9, 62, 91
15, 63840, Note_on_c, 9, 62, 0
15, 63840, Note_on_c, 9, 61, 82
15, 63914, Note_on_c, 9, 61, 0
15, 63960, Note_on_c, 9, 62, 40
15, 64035, Note_on_c, 9, 62, 0
15, 64040, Note_on_c, 9, 61, 36
15, 64061, Note_on_c, 9, 61, 0
15, 64160, Note_on_c, 9, 62, 22
15, 64181, Note_on_c, 9, 62, 0
15, 64200, Note_on_c, 9, 61, 31
15, 64280, Note_on_c, 9, 62, 56
15, 64291, Note_on_c, 9, 61, 0
15, 64318, Note_on_c, 9, 62, 0
15, 64400, Note_on_c, 9, 62, 29
15, 64417, Note_on_c, 9, 62, 0
15, 64440, Note_on_c, 9, 61, 31
15, 64520, Note_on_c, 9, 62, 60
15, 64533, Note_on_c, 9, 61, 0
15, 64560, Note_on_c, 9, 62, 0
15, 64640, Note_on_c, 9, 62, 48
15, 64677, Note_on_c, 9, 62, 0
15, 64760, Note_on_c, 9, 62, 91
15, 64800, Note_on_c, 9, 62, 0
15, 64878, Note_on_c, 9, 62, 16
15, 64891, Note_on_c, 9, 62, 0
15, 64998, Note_on_c, 9, 62, 64
15, 65030, Note_on_c, 9, 62, 0
15, 65118, Note_on_c, 9, 62, 56
15, 65143, Note_on_c, 9, 62, 0
15, 65198, Note_on_c, 9, 61, 21
15, 65210, Note_on_c, 9, 61, 0
15, 65238, Note_on_c, 9, 61, 36
15, 65256, Note_on_c, 9, 61, 0
15, 65358, Note_on_c, 9, 61, 82
15, 65393, Note_on_c, 9, 61, 0
15, 65598, Note_on_c, 9, 62, 100
15, 65632, Note_on_c, 9, 62, 0
15, 65678, Note_on_c, 9, 62, 64
15, 65698, Note_on_c, 9, 62, 0
15, 65718, Note_on_c, 9, 61, 48
15, 65739, Note_on_c, 9, 61, 0
15, 65758, Note_on_c, 9, 72, 56
15, 65760, Note_on_c, 9, 61, 82
15, 65776, Note_on_c, 9, 72, 0
15, 65834, Note_on_c, 9, 61, 0
15, 65880, Note_on_c, 9, 62, 40
15, 65955, Note_on_c, 9, 62, 0
15, 65960, Note_on_c, 9, 61, 36
15, 65981, Note_on_c, 9, 61, 0
15, 66080, Note_on_c, 9, 62, 22
15, 66101, Note_on_c, 9, 62, 0
15, 66120, Note_on_c, 9, 61, 31
15, 66200, Note_on_c, 9, 62, 56
15, 66211, Note_on_c, 9, 61, 0
15, 66238, Note_on_c, 9, 62, 0
15, 66320, Note_on_c, 9, 62, 29
15, 66337, Note_on_c, 9, 62, 0
15, 66360, Note_on_c, 9, 61, 31
15, 66440, Note_on_c, 9, 62, 60
15, 66453, Note_on_c, 9, 61, 0
15, 66480, Note_on_c, 9, 62, 0
15, 66560, Note_on_c, 9, 62, 48
15, 66597, Note_on_c, 9, 62, 0
15, 66680, Note_on_c, 9, 62, 91
15, 66720, Note_on_c, 9, 62, 0
15, 66720, Note_on_c, 9, 61, 82
15, 66794, Note_on_c, 9, 61, 0
15, 66840, Note_on_c, 9, 62, 40
15, 66915, Note_on_c, 9, 62, 0
15, 66920, Note_on_c, 9, 61, 36
15, 66941, Note_on_c, 9, 61, 0
15, 67040, Note_on_c, 9, 62, 22
15, 67061, Note_on_c, 9, 62, 0
15, 67080, Note_on_c, 9, 61, 31
15, 67160, Note_on_c, 9, 62, 56
15, 67171, Note_on_c, 9, 61, 0
15, 67198, Note_on_c, 9, 62, 0
15, 67280, Note_on_c, 9, 62, 29
15, 67297, Note_on_c, 9, 62, 0
15, 67320, Note_on_c, 9, 61, 31
15, 67400, Note_on_c, 9, 62, 60
15, 67413, Note_on_c, 9, 61, 0
15, 67440, Note_on_c, 9, 62, 0
15, 67520, Note_on_c, 9, 62, 48
15, 67557, Note_on_c, 9, 62, 0
15, 67640, Note_on_c, 9, 62, 91
15, 67680, Note_on_c, 9, 62, 0
15, 67758, Note_on_c, 9, 62, 16
15, 67771, Note_on_c, 9, 62, 0
15, 67878, Note_on_c, 9, 62, 64
15, 67910, Note_on_c, 9, 62, 0
15, 67998, Note_on_c, 9, 62, 56
15, 68023, Note_on_c, 9, 62, 0
15, 68078, Note_on_c, 9, 61, 21
15, 68090, Note_on_c, 9, 61, 0
15, 68118, Note_on_c, 9, 61, 36
15, 68136, Note_on_c, 9, 61, 0
15, 68238, Note_on_c, 9, 61, 82
15, 68273, Note_on_c, 9, 61, 0
15, 68478, Note_on_c, 9, 62, 100
15, 68512, Note_on_c, 9, 62, 0
15, 68558, Note_on_c, 9, 62, 64
15, 68578, Note_on_c, 9, 62, 0
15, 68598, Note_on_c, 9, 61, 48
15, 68619, Note_on_c, 9, 61, 0
15, 68638, Note_on_c, 9, 72, 56
15, 68640, Note_on_c, 9, 61, 82
15, 68656, Note_on_c, 9, 72, 0
15, 68714, Note_on_c, 9, 61, 0
15, 68760, Note_on_c, 9, 62, 40
15, 68835, Note_on_c, 9, 62, 0
15, 68840, Note_on_c, 9, 61, 36
15, 68861, Note_on_c, 9, 61, 0
15, 68960, Note_on_c, 9, 62, 22
15, 68981, Note_on_c, 9, 62, 0
15, 69000, Note_on_c, 9, 61, 31
15, 69080, Note_on_c, 9, 62, 56
15, 69091, Note_on_c, 9, 61, 0
15, 69118, Note_on_c, 9, 62, 0
15, 69200, Note_on_c, 9, 62, 29
15, 69217, Note_on_c, 9, 62, 0
15, 69240, Note_on_c, 9, 61, 31
15, 69320, Note_on_c, 9, 62, 60
15, 69333, Note_on_c, 9, 61, 0
15, 69360, Note_on_c, 9, 62, 0
15, 69440, Note_on_c, 9, 62, 48
15, 69477, Note_on_c, 9, 62, 0
15, 69560, Note_on_c, 9, 62, 91
15, 69600, Note_on_c, 9, 62, 0
15, 69600, Note_on_c, 9, 61, 82
15, 69674, Note_on_c, 9, 61, 0
15, 69720, Note_on_c, 9, 62, 40
15, 69795, Note_on_c, 9, 62, 0
15, 69800, Note_on_c, 9, 61, 36
15, 69821, Note_on_c, 9, 61, 0
15, 69920, Note_on_c, 9, 62, 22
15, 69941, Note_on_c, 9, 62, 0
15, 69960, Note_on_c, 9, 61, 31
15, 70040, Note_on_c, 9, 62, 56
15, 70051, Note_on_c, 9, 61, 0
15, 70078, Note_on_c, 9, 62, 0
15, 70160, Note_on_c, 9, 62, 29
15, 70177, Note_on_c, 9, 62, 0
15, 70200, Note_on_c, 9, 61, 31
15, 70280, Note_on_c, 9, 62, 60
15, 70293, Note_on_c, 9, 61, 0
15, 70320, Note_on_c, 9, 62, 0
15, 70400, Note_on_c, 9, 62, 48
15, 70437, Note_on_c, 9, 62, 0
15, 70520, Note_on_c, 9, 62, 91
15, 70560, Note_on_c, 9, 62, 0
15, 70638, Note_on_c, 9, 62, 16
15, 70651, Note_on_c, 9, 62, 0
15, 70758, Note_on_c, 9, 62, 64
15, 70790, Note_on_c, 9, 62, 0
15, 70878, Note_on_c, 9, 62, 56
15, 70903, Note_on_c, 9, 62, 0
15, 70958, Note_on_c, 9, 61, 21
15, 70970, Note_on_c, 9, 61, 0
15, 70998, Note_on_c, 9, 61, 36
15, 71016, Note_on_c, 9, 61, 0
15, 71118, Note_on_c, 9, 61, 82
15, 71153, Note_on_c, 9, 61, 0
15, 71358, Note_on_c, 9, 62, 100
15, 71392, Note_on_c, 9, 62, 0
15, 71438, Note_on_c, 9, 62, 64
15, 71458, Note_on_c, 9, 62, 0
15, 71478, Note_on_c, 9, 61, 48
15, 71499, Note_on_c, 9, 61, 0
15, 71518, Note_on_c, 9, 72, 56
15, 71520, Note_on_c, 9, 61, 82
15, 71536, Note_on_c, 9, 72, 0
15, 71594, Note_on_c, 9, 61, 0
15, 71640, Note_on_c, 9, 62, 40
15, 71715, Note_on_c, 9, 62, 0
15, 71720, Note_on_c, 9, 61, 36
15, 71741, Note_on_c, 9, 61, 0
15, 71840, Note_on_c, 9, 62, 22
15, 71861, Note_on_c, 9, 62, 0
15, 71880, Note_on_c, 9, 61, 31
15, 71960, Note_on_c, 9, 62, 56
15, 71971, Note_on_c, 9, 61, 0
15, 71998, Note_on_c, 9, 62, 0
15, 72080, Note_on_c, 9, 62, 29
15, 72097, Note_on_c, 9, 62, 0
15, 72120, Note_on_c, 9, 61, 31
15, 72200, Note_on_c, 9, 62, 60
15, 72213, Note_on_c, 9, 61, 0
15, 72240, Note_on_c, 9, 62, 0
15, 72320, Note_on_c, 9, 62, 48
15, 72357, Note_on_c, 9, 62, 0
15, 72440, Note_on_c, 9, 62, 91
15, 72480, Note_on_c, 9, 62, 0
15, 72480, Note_on_c, 9, 61, 82
15, 72554, Note_on_c, 9, 61, 0
15, 72600, Note_on_c, 9, 62, 40
15, 72675, Note_on_c, 9, 62, 0
15, 72680, Note_on_c, 9, 61, 36
15, 72701, Note_on_c, 9, 61, 0
15, 72800, Note_on_c, 9, 62, 22
15, 72821, Note_on_c, 9, 62, 0
15, 72840, Note_on_c, 9, 61, 31
15, 72920, Note_on_c, 9, 62, 56
15, 72931, Note_on_c, 9, 61, 0
15, 72958, Note_on_c, 9, 62, 0
15, 73040, Note_on_c, 9, 62, 29
15, 73057, Note_on_c, 9, 62, 0
15, 73080, Note_on_c, 9, 61, 31
15, 73160, Note_on_c, 9, 62, 60
15, 73173, Note_on_c, 9, 61, 0
15, 73200, Note_on_c, 9, 62, 0
15, 73280, Note_on_c, 9, 62, 48
15, 73317, Note_on_c, 9, 62, 0
15, 73400, Note_on_c, 9, 62, 91
15, 73440, Note_on_c, 9, 62, 0
15, 73518, Note_on_c, 9, 62, 16
15, 73531, Note_on_c, 9, 62, 0
15, 73638, Note_on_c, 9, 62, 64
15, 73670, Note_on_c, 9, 62, 0
15, 73758, Note_on_c, 9, 62, 56
15, 73783, Note_on_c, 9, 62, 0
15, 73838, Note_on_c, 9, 61, 21
15, 73850, Note_on_c, 9, 61, 0
15, 73878, Note_on_c, 9, 61, 36
15, 73896, Note_on_c, 9, 61, 0
15, 73998, Note_on_c, 9, 61, 82
15, 74033, Note_on_c, 9, 61, 0
15, 74238, Note_on_c, 9, 62, 100
15, 74272, Note_on_c, 9, 62, 0
15, 74318, Note_on_c, 9, 62, 64
15, 74338, Note_on_c, 9, 62, 0
15, 74358, Note_on_c, 9, 61, 48
15, 74379, Note_on_c, 9, 61, 0
15, 74398, Note_on_c, 9, 72, 56
15, 74400, Note_on_c, 9, 61, 82
15, 74416, Note_on_c, 9, 72, 0
15, 74474, Note_on_c, 9, 61, 0
15, 74520, Note_on_c, 9, 62, 40
15, 74595, Note_on_c, 9, 62, 0
15, 74600, Note_on_c, 9, 61, 36
15, 74621, Note_on_c, 9, 61, 0
15, 74720, Note_on_c, 9, 62, 22
15, 74741, Note_on_c, 9, 62, 0
15, 74760, Note_on_c, 9, 61, 31
15, 74840, Note_on_c, 9, 62, 56
15, 74851, Note_on_c, 9, 61, 0
15, 74878, Note_on_c, 9, 62, 0
15, 74960, Note_on_c, 9, 62, 29
15, 74977, Note_on_c, 9, 62, 0
15, 75000, Note_on_c, 9, 61, 31
15, 75080, Note_on_c, 9, 62, 60
15, 75093, Note_on_c, 9, 61, 0
15, 75120, Note_on_c, 9, 62, 0
15, 75200, Note_on_c, 9, 62, 48
15, 75237, Note_on_c, 9, 62, 0
15, 75320, Note_on_c, 9, 62, 91
15, 75360, Note_on_c, 9, 62, 0
15, 75360, Note_on_c, 9, 61, 82
15, 75434, Note_on_c, 9, 61, 0
15, 75480, Note_on_c, 9, 62, 40
15, 75555, Note_on_c, 9, 62, 0
15, 75560, Note_on_c, 9, 61, 36
15, 75581, Note_on_c, 9, 61, 0
15, 75680, Note_on_c, 9, 62, 22
15, 75701, Note_on_c, 9, 62, 0
15, 75720, Note_on_c, 9, 61, 31
15, 75800, Note_on_c, 9, 62, 56
15, 75811, Note_on_c, 9, 61, 0
15, 75838, Note_on_c, 9, 62, 0
15, 75920, Note_on_c, 9, 62, 29
15, 75937, Note_on_c, 9, 62, 0
15, 75960, Note_on_c, 9, 61, 31
15, 76040, Note_on_c, 9, 62, 60
15, 76053, Note_on_c, 9, 61, 0
15, 76080, Note_on_c, 9, 62, 0
15, 76160, Note_on_c, 9, 62, 48
15, 76197, Note_on_c, 9, 62, 0
15, 76280, Note_on_c, 9, 62, 91
15, 76320, Note_on_c, 9, 62, 0
15, 76398, Note_on_c, 9, 62, 16
15, 76411, Note_on_c, 9, 62, 0
15, 76518, Note_on_c, 9, 62, 64
15, 76550, Note_on_c, 9, 62, 0
15, 76638, Note_on_c, 9, 62, 56
15, 76663, Note_on_c, 9, 62, 0
15, 76718, Note_on_c, 9, 61, 21
15, 76730, Note_on_c, 9, 61, 0
15, 76758, Note_on_c, 9, 61, 36
15, 76776, Note_on_c, 9, 61, 0
15, 76878, Note_on_c, 9, 61, 82
15, 76913, Note_on_c, 9, 61, 0
15, 77118, Note_on_c, 9, 62, 100
15, 77152, Note_on_c, 9, 62, 0
15, 77198, Note_on_c, 9, 62, 64
15, 77218, Note_on_c, 9, 62, 0
15, 77238, Note_on_c, 9, 61, 48
15, 77259, Note_on_c, 9, 61, 0
15, 77278, Note_on_c, 9, 72, 56
15, 77280, Note_on_c, 9, 61, 82
15, 77296, Note_on_c, 9, 72, 0
15, 77354, Note_on_c, 9, 61, 0
15, 77400, Note_on_c, 9, 62, 40
15, 77475, Note_on_c, 9, 62, 0
15, 77480, Note_on_c, 9, 61, 36
15, 77501, Note_on_c, 9, 61, 0
15, 77600, Note_on_c, 9, 62, 22
15, 77621, Note_on_c, 9, 62, 0
15, 77640, Note_on_c, 9, 61, 31
15, 77720, Note_on_c, 9, 62, 56
15, 77731, Note_on_c, 9, 61, 0
15, 77758, Note_on_c, 9, 62, 0
15, 77840, Note_on_c, 9, 62, 29
15, 77857, Note_on_c, 9, 62, 0
15, 77880, Note_on_c, 9, 61, 31
15, 77960, Note_on_c, 9, 62, 60
15, 77973, Note_on_c, 9, 61, 0
15, 78000, Note_on_c, 9, 62, 0
15, 78080, Note_on_c, 9, 62, 48
15, 78117, Note_on_c, 9, 62, 0
15, 78200, Note_on_c, 9, 62, 91
15, 78240, Note_on_c, 9, 62, 0
15, 78240, Note_on_c, 9, 61, 82
15, 78314, Note_on_c, 9, 61, 0
15, 78480, Note_on_c, 9, 72, 100
15, 78523, Note_on_c, 9, 72, 0
15, 79074, Note_on_c, 9, 72, 73
15, 79098, Note_on_c, 9, 72, 0
15, 80158, Note_on_c, 9, 72, 100
15, 80197, Note_on_c, 9, 72, 0
15, 80197, End_track
16, 0, Start_track
16, 0, MIDI_port, 0
16, 0, Title_t, "slap bass"
16, 0, Control_c, 15, 0, 56
16, 0, Control_c, 15, 32, 0
16, 0, Program_c, 15, 36
16, 0, Control_c, 15, 7, 70
16, 0, Control_c, 15, 10, 99
16, 0, Control_c, 15, 93, 78
16, 33891, Note_on_c, 15, 65, 40
16, 33920, Note_on_c, 15, 60, 56
16, 33931, Note_on_c, 15, 65, 0
16, 33944, Note_on_c, 15, 60, 0
16, 33958, Note_on_c, 15, 59, 100
16, 33987, Note_on_c, 15, 59, 0
16, 34005, Note_on_c, 15, 57, 36
16, 34030, Note_on_c, 15, 57, 0
16, 34030, Note_on_c, 15, 56, 56
16, 34061, Note_on_c, 15, 56, 0
16, 34077, Note_on_c, 15, 53, 73
16, 34099, Pitch_bend_c, 15, 8322
16, 34101, Pitch_bend_c, 15, 8452
16, 34103, Pitch_bend_c, 15, 8582
16, 34104, Pitch_bend_c, 15, 8712
16, 34104, Pitch_bend_c, 15, 8842
16, 34108, Pitch_bend_c, 15, 8972
16, 34110, Pitch_bend_c, 15, 8842
16, 34112, Pitch_bend_c, 15, 8712
16, 34114, Pitch_bend_c, 15, 8582
16, 34114, Pitch_bend_c, 15, 8322
16, 34116, Pitch_bend_c, 15, 8192
16, 34136, Pitch_bend_c, 15, 8322
16, 34136, Pitch_bend_c, 15, 8712
16, 34138, Pitch_bend_c, 15, 9102
16, 34140, Pitch_bend_c, 15, 9622
16, 34140, Pitch_bend_c, 15, 10142
16, 34141, Pitch_bend_c, 15, 10662
16, 34144, Pitch_bend_c, 15, 11052
16, 34144, Pitch_bend_c, 15, 11312
16, 34147, Pitch_bend_c, 15, 11442
16, 34149, Pitch_bend_c, 15, 11312
16, 34149, Pitch_bend_c, 15, 11052
16, 34151, Pitch_bend_c, 15, 10662
16, 34153, Pitch_bend_c, 15, 10272
16, 34153, Pitch_bend_c, 15, 9622
16, 34155, Pitch_bend_c, 15, 8972
16, 34157, Pitch_bend_c, 15, 8192
16, 34179, Pitch_bend_c, 15, 8452
16, 34180, Pitch_bend_c, 15, 8712
16, 34180, Pitch_bend_c, 15, 9102
16, 34183, Pitch_bend_c, 15, 9232
16, 34184, Pitch_bend_c, 15, 9362
16, 34188, Pitch_bend_c, 15, 9232
16, 34190, Pitch_bend_c, 15, 9102
16, 34192, Pitch_bend_c, 15, 8712
16, 34192, Pitch_bend_c, 15, 8452
16, 34194, Pitch_bend_c, 15, 8192
16, 34215, Pitch_bend_c, 15, 8322
16, 34217, Pitch_bend_c, 15, 8712
16, 34217, Pitch_bend_c, 15, 8972
16, 34219, Pitch_bend_c, 15, 9232
16, 34221, Pitch_bend_c, 15, 9492
16, 34221, Pitch_bend_c, 15, 9622
16, 34223, Pitch_bend_c, 15, 9752
16, 34225, Pitch_bend_c, 15, 9882
16, 34225, Pitch_bend_c, 15, 10012
16, 34234, Pitch_bend_c, 15, 9882
16, 34234, Pitch_bend_c, 15, 9752
16, 34236, Pitch_bend_c, 15, 9492
16, 34238, Pitch_bend_c, 15, 9232
16, 34238, Pitch_bend_c, 15, 8712
16, 34240, Pitch_bend_c, 15, 8192
16, 34262, Note_on_c, 15, 53, 0
16, 34265, Pitch_bend_c, 15, 8322
16, 34265, Pitch_bend_c, 15, 8582
16, 34267, Pitch_bend_c, 15, 8842
16, 34269, Pitch_bend_c, 15, 8972
16, 34269, Pitch_bend_c, 15, 9102
16, 34272, Pitch_bend_c, 15, 9362
16, 34273, Pitch_bend_c, 15, 9492
16, 34275, Pitch_bend_c, 15, 9622
16, 34277, Note_on_c, 15, 53, 91
16, 34283, Pitch_bend_c, 15, 9492
16, 34284, Note_on_c, 15, 53, 0
16, 34284, Pitch_bend_c, 15, 9232
16, 34284, Pitch_bend_c, 15, 8712
16, 34286, Pitch_bend_c, 15, 8192
16, 34358, Pitch_bend_c, 15, 8452
16, 34360, Pitch_bend_c, 15, 8582
16, 34360, Pitch_bend_c, 15, 8712
16, 34362, Pitch_bend_c, 15, 8842
16, 34364, Pitch_bend_c, 15, 8972
16, 34370, Pitch_bend_c, 15, 8842
16, 34373, Pitch_bend_c, 15, 8712
16, 34373, Pitch_bend_c, 15, 8582
16, 34375, Pitch_bend_c, 15, 8322
16, 34377, Pitch_bend_c, 15, 8192
16, 34404, Pitch_bend_c, 15, 8452
16, 34406, Pitch_bend_c, 15, 8582
16, 34408, Pitch_bend_c, 15, 8842
16, 34408, Pitch_bend_c, 15, 9102
16, 34410, Pitch_bend_c, 15, 9362
16, 34410, Pitch_bend_c, 15, 9622
16, 34414, Pitch_bend_c, 15, 9752
16, 34421, Pitch_bend_c, 15, 9622
16, 34423, Pitch_bend_c, 15, 9492
16, 34425, Pitch_bend_c, 15, 9232
16, 34425, Pitch_bend_c, 15, 8972
16, 34427, Pitch_bend_c, 15, 8582
16, 34429, Pitch_bend_c, 15, 8192
16, 34454, Pitch_bend_c, 15, 8452
16, 34456, Pitch_bend_c, 15, 8712
16, 34458, Pitch_bend_c, 15, 8972
16, 34458, Pitch_bend_c, 15, 9102
16, 34460, Pitch_bend_c, 15, 9362
16, 34460, Pitch_bend_c, 15, 9492
16, 34464, Pitch_bend_c, 15, 9622
16, 34471, Pitch_bend_c, 15, 9492
16, 34473, Pitch_bend_c, 15, 9362
16, 34473, Pitch_bend_c, 15, 9102
16, 34475, Pitch_bend_c, 15, 8712
16, 34475, Pitch_bend_c, 15, 8192
16, 34524, Note_on_c, 15, 48, 73
16, 34534, Note_on_c, 15, 48, 0
16, 34549, Note_on_c, 15, 50, 91
16, 34560, Note_on_c, 15, 50, 0
16, 34571, Note_on_c, 15, 53, 73
16, 34599, Note_on_c, 15, 53, 0
16, 34608, Note_on_c, 15, 50, 56
16, 34621, Note_on_c, 15, 50, 0
16, 34643, Note_on_c, 15, 56, 91
16, 34663, Pitch_bend_c, 15, 8452
16, 34663, Pitch_bend_c, 15, 8712
16, 34665, Pitch_bend_c, 15, 9102
16, 34667, Pitch_bend_c, 15, 9362
16, 34667, Pitch_bend_c, 15, 9622
16, 34668, Pitch_bend_c, 15, 9882
16, 34670, Pitch_bend_c, 15, 10012
16, 34670, Pitch_bend_c, 15, 10142
16, 34674, Pitch_bend_c, 15, 10272
16, 34678, Pitch_bend_c, 15, 10142
16, 34680, Pitch_bend_c, 15, 9882
16, 34682, Pitch_bend_c, 15, 9752
16, 34682, Pitch_bend_c, 15, 9362
16, 34684, Pitch_bend_c, 15, 8972
16, 34686, Pitch_bend_c, 15, 8452
16, 34686, Pitch_bend_c, 15, 8192
16, 34704, Pitch_bend_c, 15, 8452
16, 34705, Pitch_bend_c, 15, 8842
16, 34705, Pitch_bend_c, 15, 9232
16, 34708, Pitch_bend_c, 15, 9622
16, 34709, Pitch_bend_c, 15, 10142
16, 34709, Pitch_bend_c, 15, 10532
16, 34712, Pitch_bend_c, 15, 10922
16, 34714, Pitch_bend_c, 15, 11182
16, 34714, Pitch_bend_c, 15, 11442
16, 34716, Pitch_bend_c, 15, 11702
16, 34717, Pitch_bend_c, 15, 11832
16, 34726, Pitch_bend_c, 15, 11572
16, 34728, Pitch_bend_c, 15, 11442
16, 34729, Pitch_bend_c, 15, 11312
16, 34730, Pitch_bend_c, 15, 11052
16, 34732, Pitch_bend_c, 15, 10662
16, 34734, Pitch_bend_c, 15, 10272
16, 34734, Pitch_bend_c, 15, 9752
16, 34736, Pitch_bend_c, 15, 9102
16, 34738, Pitch_bend_c, 15, 8192
16, 34747, Pitch_bend_c, 15, 7808
16, 34747, Pitch_bend_c, 15, 7296
16, 34749, Pitch_bend_c, 15, 7168
16, 34751, Pitch_bend_c, 15, 7040
16, 34756, Pitch_bend_c, 15, 7168
16, 34756, Pitch_bend_c, 15, 7552
16, 34758, Pitch_bend_c, 15, 7936
16, 34762, Pitch_bend_c, 15, 8192
16, 34762, Note_on_c, 15, 50, 52
16, 34764, Note_on_c, 15, 56, 0
16, 34784, Note_on_c, 15, 50, 0
16, 34798, Note_on_c, 15, 53, 73
16, 34834, Note_on_c, 15, 53, 0
16, 34834, Note_on_c, 15, 50, 56
16, 34865, Note_on_c, 15, 50, 0
16, 34883, Note_on_c, 15, 52, 60
16, 34916, Note_on_c, 15, 52, 0
16, 34918, Note_on_c, 15, 48, 56
16, 34943, Note_on_c, 15, 48, 0
16, 34956, Note_on_c, 15, 49, 64
16, 34970, Note_on_c, 15, 46, 56
16, 34983, Note_on_c, 15, 49, 0
16, 35004, Note_on_c, 15, 46, 0
16, 35008, Note_on_c, 15, 41, 73
16, 35067, Note_on_c, 15, 41, 0
16, 36375, Control_c, 15, 7, 77
16, 36946, Control_c, 15, 7, 74
16, 37643, Note_on_c, 15, 70, 73
16, 37668, Pitch_bend_c, 15, 8322
16, 37668, Pitch_bend_c, 15, 8712
16, 37670, Pitch_bend_c, 15, 9232
16, 37672, Pitch_bend_c, 15, 9622
16, 37672, Pitch_bend_c, 15, 9882
16, 37674, Pitch_bend_c, 15, 10142
16, 37676, Pitch_bend_c, 15, 10402
16, 37676, Pitch_bend_c, 15, 10532
16, 37678, Pitch_bend_c, 15, 10662
16, 37680, Pitch_bend_c, 15, 10792
16, 37689, Pitch_bend_c, 15, 10532
16, 37689, Pitch_bend_c, 15, 10272
16, 37691, Pitch_bend_c, 15, 10012
16, 37692, Pitch_bend_c, 15, 9752
16, 37692, Pitch_bend_c, 15, 9362
16, 37695, Pitch_bend_c, 15, 8972
16, 37697, Note_on_c, 15, 70, 0
16, 37697, Pitch_bend_c, 15, 8452
16, 37697, Pitch_bend_c, 15, 8192
16, 37713, Note_on_c, 15, 68, 60
16, 37733, Pitch_bend_c, 15, 8322
16, 37735, Pitch_bend_c, 15, 8452
16, 37737, Pitch_bend_c, 15, 8582
16, 37737, Pitch_bend_c, 15, 8712
16, 37739, Pitch_bend_c, 15, 8972
16, 37740, Pitch_bend_c, 15, 9102
16, 37742, Pitch_bend_c, 15, 9232
16, 37742, Pitch_bend_c, 15, 9492
16, 37744, Pitch_bend_c, 15, 9622
16, 37746, Pitch_bend_c, 15, 9752
16, 37746, Pitch_bend_c, 15, 9882
16, 37750, Pitch_bend_c, 15, 10012
16, 37755, Pitch_bend_c, 15, 9882
16, 37755, Pitch_bend_c, 15, 9752
16, 37759, Pitch_bend_c, 15, 9492
16, 37761, Pitch_bend_c, 15, 9232
16, 37761, Pitch_bend_c, 15, 8972
16, 37763, Pitch_bend_c, 15, 8712
16, 37765, Pitch_bend_c, 15, 8322
16, 37765, Pitch_bend_c, 15, 8192
16, 37769, Note_on_c, 15, 68, 0
16, 37794, Note_on_c, 15, 65, 60
16, 37800, Pitch_bend_c, 15, 8322
16, 37801, Pitch_bend_c, 15, 8582
16, 37801, Pitch_bend_c, 15, 8842
16, 37803, Pitch_bend_c, 15, 9102
16, 37805, Pitch_bend_c, 15, 9232
16, 37805, Pitch_bend_c, 15, 9492
16, 37807, Pitch_bend_c, 15, 9622
16, 37816, Pitch_bend_c, 15, 9362
16, 37818, Pitch_bend_c, 15, 9102
16, 37818, Pitch_bend_c, 15, 8842
16, 37820, Pitch_bend_c, 15, 8322
16, 37822, Pitch_bend_c, 15, 8192
16, 37858, Note_on_c, 15, 65, 0
16, 37872, Pitch_bend_c, 15, 8322
16, 37874, Pitch_bend_c, 15, 8452
16, 37876, Note_on_c, 15, 65, 29
16, 37878, Pitch_bend_c, 15, 8582
16, 37878, Pitch_bend_c, 15, 8712
16, 37878, Pitch_bend_c, 15, 8972
16, 37880, Pitch_bend_c, 15, 9102
16, 37882, Pitch_bend_c, 15, 9232
16, 37889, Pitch_bend_c, 15, 9102
16, 37893, Pitch_bend_c, 15, 8842
16, 37893, Pitch_bend_c, 15, 8582
16, 37895, Pitch_bend_c, 15, 8452
16, 37895, Pitch_bend_c, 15, 8192
16, 37920, Pitch_bend_c, 15, 8452
16, 37922, Pitch_bend_c, 15, 8582
16, 37922, Pitch_bend_c, 15, 8842
16, 37924, Pitch_bend_c, 15, 9102
16, 37926, Pitch_bend_c, 15, 9362
16, 37926, Pitch_bend_c, 15, 9492
16, 37928, Pitch_bend_c, 15, 9622
16, 37937, Pitch_bend_c, 15, 9492
16, 37939, Pitch_bend_c, 15, 9232
16, 37941, Pitch_bend_c, 15, 8972
16, 37941, Pitch_bend_c, 15, 8712
16, 37943, Pitch_bend_c, 15, 8452
16, 37945, Pitch_bend_c, 15, 8192
16, 37959, Pitch_bend_c, 15, 8452
16, 37961, Pitch_bend_c, 15, 8582
16, 37963, Pitch_bend_c, 15, 8712
16, 37963, Pitch_bend_c, 15, 8972
16, 37965, Pitch_bend_c, 15, 9232
16, 37967, Pitch_bend_c, 15, 9492
16, 37967, Pitch_bend_c, 15, 9622
16, 37969, Pitch_bend_c, 15, 9882
16, 37969, Pitch_bend_c, 15, 10142
16, 37971, Pitch_bend_c, 15, 10402
16, 37973, Pitch_bend_c, 15, 10662
16, 37975, Pitch_bend_c, 15, 10792
16, 37977, Pitch_bend_c, 15, 10922
16, 37982, Pitch_bend_c, 15, 10792
16, 37984, Pitch_bend_c, 15, 10532
16, 37986, Pitch_bend_c, 15, 10272
16, 37988, Pitch_bend_c, 15, 9882
16, 37988, Pitch_bend_c, 15, 9492
16, 37990, Pitch_bend_c, 15, 8972
16, 37992, Pitch_bend_c, 15, 8452
16, 37992, Pitch_bend_c, 15, 8192
16, 38015, Pitch_bend_c, 15, 8452
16, 38017, Pitch_bend_c, 15, 8582
16, 38019, Pitch_bend_c, 15, 8842
16, 38019, Pitch_bend_c, 15, 9102
16, 38021, Pitch_bend_c, 15, 9492
16, 38023, Pitch_bend_c, 15, 9622
16, 38023, Pitch_bend_c, 15, 9752
16, 38027, Pitch_bend_c, 15, 9882
16, 38028, Pitch_bend_c, 15, 9752
16, 38030, Pitch_bend_c, 15, 9622
16, 38032, Pitch_bend_c, 15, 9362
16, 38032, Pitch_bend_c, 15, 8842
16, 38034, Pitch_bend_c, 15, 8322
16, 38034, Pitch_bend_c, 15, 8192
16, 38063, Pitch_bend_c, 15, 8322
16, 38065, Pitch_bend_c, 15, 8582
16, 38067, Pitch_bend_c, 15, 8712
16, 38069, Pitch_bend_c, 15, 8842
16, 38076, Pitch_bend_c, 15, 8972
16, 38078, Pitch_bend_c, 15, 8712
16, 38080, Pitch_bend_c, 15, 8452
16, 38082, Pitch_bend_c, 15, 8192
16, 38127, Note_on_c, 15, 65, 0
16, 38127, Note_on_c, 15, 68, 40
16, 38127, Pitch_bend_c, 15, 8452
16, 38129, Pitch_bend_c, 15, 8582
16, 38131, Pitch_bend_c, 15, 8842
16, 38131, Pitch_bend_c, 15, 8972
16, 38133, Pitch_bend_c, 15, 9232
16, 38135, Pitch_bend_c, 15, 9362
16, 38135, Pitch_bend_c, 15, 9492
16, 38136, Pitch_bend_c, 15, 9622
16, 38138, Pitch_bend_c, 15, 9752
16, 38138, Pitch_bend_c, 15, 9882
16, 38140, Pitch_bend_c, 15, 10142
16, 38142, Pitch_bend_c, 15, 10272
16, 38142, Pitch_bend_c, 15, 10532
16, 38144, Pitch_bend_c, 15, 10662
16, 38146, Pitch_bend_c, 15, 10922
16, 38146, Pitch_bend_c, 15, 11182
16, 38148, Pitch_bend_c, 15, 11442
16, 38148, Pitch_bend_c, 15, 11702
16, 38150, Pitch_bend_c, 15, 11962
16, 38152, Pitch_bend_c, 15, 12222
16, 38152, Pitch_bend_c, 15, 12482
16, 38154, Pitch_bend_c, 15, 12742
16, 38156, Pitch_bend_c, 15, 13002
16, 38156, Pitch_bend_c, 15, 13132
16, 38158, Pitch_bend_c, 15, 13392
16, 38160, Pitch_bend_c, 15, 13652
16, 38161, Pitch_bend_c, 15, 13782
16, 38161, Pitch_bend_c, 15, 13912
16, 38164, Pitch_bend_c, 15, 14042
16, 38164, Pitch_bend_c, 15, 14302
16, 38166, Pitch_bend_c, 15, 14432
16, 38168, Note_on_c, 15, 68, 0
16, 38168, Pitch_bend_c, 15, 14562
16, 38170, Pitch_bend_c, 15, 14692
16, 38172, Pitch_bend_c, 15, 14822
16, 38173, Pitch_bend_c, 15, 14952
16, 38177, Pitch_bend_c, 15, 15082
16, 38188, Pitch_bend_c, 15, 14952
16, 38188, Pitch_bend_c, 15, 14432
16, 38190, Pitch_bend_c, 15, 13132
16, 38192, Pitch_bend_c, 15, 11182
16, 38192, Pitch_bend_c, 15, 8452
16, 38194, Pitch_bend_c, 15, 8192
16, 38537, Control_c, 15, 7, 73
16, 38556, Note_on_c, 15, 59, 36
16, 38590, Note_on_c, 15, 60, 60
16, 38593, Note_on_c, 15, 59, 0
16, 38610, Note_on_c, 15, 60, 0
16, 38624, Note_on_c, 15, 65, 100
16, 38651, Note_on_c, 15, 65, 0
16, 38657, Note_on_c, 15, 60, 64
16, 38682, Note_on_c, 15, 60, 0
16, 38697, Note_on_c, 15, 59, 16
16, 38706, Note_on_c, 15, 59, 0
16, 38725, Note_on_c, 15, 58, 48
16, 38728, Control_c, 15, 7, 70
16, 38760, Note_on_c, 15, 58, 0
16, 38760, Note_on_c, 15, 56, 48
16, 38787, Note_on_c, 15, 56, 0
16, 38791, Note_on_c, 15, 53, 48
16, 38807, Note_on_c, 15, 53, 0
16, 38827, Note_on_c, 15, 58, 48
16, 38856, Note_on_c, 15, 58, 0
16, 38867, Note_on_c, 15, 56, 40
16, 38887, Note_on_c, 15, 56, 0
16, 38904, Note_on_c, 15, 56, 48
16, 38906, Pitch_bend_c, 15, 8322
16, 38908, Pitch_bend_c, 15, 8452
16, 38908, Pitch_bend_c, 15, 8582
16, 38910, Pitch_bend_c, 15, 8712
16, 38912, Pitch_bend_c, 15, 8842
16, 38914, Pitch_bend_c, 15, 9102
16, 38914, Pitch_bend_c, 15, 9232
16, 38916, Pitch_bend_c, 15, 9362
16, 38916, Pitch_bend_c, 15, 9492
16, 38918, Pitch_bend_c, 15, 9622
16, 38922, Pitch_bend_c, 15, 9752
16, 38922, Pitch_bend_c, 15, 9882
16, 38924, Pitch_bend_c, 15, 10012
16, 38924, Pitch_bend_c, 15, 10142
16, 38926, Pitch_bend_c, 15, 10272
16, 38928, Pitch_bend_c, 15, 10402
16, 38929, Pitch_bend_c, 15, 10662
16, 38931, Pitch_bend_c, 15, 10792
16, 38933, Pitch_bend_c, 15, 10922
16, 38935, Pitch_bend_c, 15, 11052
16, 38937, Pitch_bend_c, 15, 11312
16, 38939, Pitch_bend_c, 15, 11442
16, 38941, Pitch_bend_c, 15, 11572
16, 38941, Pitch_bend_c, 15, 11702
16, 38943, Pitch_bend_c, 15, 11962
16, 38945, Pitch_bend_c, 15, 12092
16, 38945, Pitch_bend_c, 15, 12352
16, 38947, Pitch_bend_c, 15, 12482
16, 38949, Pitch_bend_c, 15, 12742
16, 38949, Pitch_bend_c, 15, 13002
16, 38951, Pitch_bend_c, 15, 13132
16, 38952, Pitch_bend_c, 15, 13392
16, 38954, Pitch_bend_c, 15, 13522
16, 38954, Pitch_bend_c, 15, 13782
16, 38956, Pitch_bend_c, 15, 13912
16, 38958, Pitch_bend_c, 15, 14172
16, 38958, Pitch_bend_c, 15, 14302
16, 38960, Pitch_bend_c, 15, 14432
16, 38962, Pitch_bend_c, 15, 14692
16, 38962, Pitch_bend_c, 15, 14822
16, 38965, Pitch_bend_c, 15, 14952
16, 38967, Note_on_c, 15, 56, 0
16, 38967, Pitch_bend_c, 15, 15082
16, 38973, Pitch_bend_c, 15, 14692
16, 38977, Pitch_bend_c, 15, 13912
16, 38977, Pitch_bend_c, 15, 12742
16, 38979, Pitch_bend_c, 15, 11312
16, 38979, Pitch_bend_c, 15, 9882
16, 38981, Pitch_bend_c, 15, 8192
16, 39002, Note_on_c, 15, 53, 40
16, 39055, Note_on_c, 15, 53, 0
16, 39071, Pitch_bend_c, 15, 8322
16, 39075, Pitch_bend_c, 15, 8452
16, 39077, Pitch_bend_c, 15, 8712
16, 39078, Pitch_bend_c, 15, 8842
16, 39080, Pitch_bend_c, 15, 8972
16, 39082, Pitch_bend_c, 15, 9102
16, 39086, Note_on_c, 15, 53, 40
16, 39091, Pitch_bend_c, 15, 8972
16, 39091, Pitch_bend_c, 15, 8712
16, 39094, Pitch_bend_c, 15, 8452
16, 39094, Pitch_bend_c, 15, 8192
16, 39120, Pitch_bend_c, 15, 8582
16, 39120, Pitch_bend_c, 15, 8972
16, 39123, Pitch_bend_c, 15, 9232
16, 39124, Pitch_bend_c, 15, 9622
16, 39124, Pitch_bend_c, 15, 9882
16, 39126, Pitch_bend_c, 15, 10012
16, 39128, Pitch_bend_c, 15, 10272
16, 39128, Pitch_bend_c, 15, 10402
16, 39136, Pitch_bend_c, 15, 10142
16, 39136, Pitch_bend_c, 15, 9882
16, 39138, Pitch_bend_c, 15, 9492
16, 39140, Pitch_bend_c, 15, 9102
16, 39140, Pitch_bend_c, 15, 8582
16, 39142, Pitch_bend_c, 15, 8192
16, 39147, Note_on_c, 15, 53, 0
16, 39160, Pitch_bend_c, 15, 8322
16, 39161, Pitch_bend_c, 15, 8582
16, 39163, Pitch_bend_c, 15, 8842
16, 39163, Pitch_bend_c, 15, 9362
16, 39165, Pitch_bend_c, 15, 9622
16, 39165, Pitch_bend_c, 15, 9882
16, 39168, Pitch_bend_c, 15, 10012
16, 39169, Pitch_bend_c, 15, 9622
16, 39171, Pitch_bend_c, 15, 8842
16, 39171, Pitch_bend_c, 15, 8192
16, 40280, Note_on_c, 15, 53, 28
16, 40311, Note_on_c, 15, 53, 0
16, 40323, Note_on_c, 15, 56, 73
16, 40354, Note_on_c, 15, 58, 60
16, 40363, Note_on_c, 15, 56, 0
16, 40372, Note_on_c, 15, 58, 0
16, 40392, Note_on_c, 15, 58, 82
16, 40417, Pitch_bend_c, 15, 8322
16, 40419, Pitch_bend_c, 15, 8842
16, 40419, Pitch_bend_c, 15, 9362
16, 40421, Pitch_bend_c, 15, 9882
16, 40423, Pitch_bend_c, 15, 10402
16, 40423, Pitch_bend_c, 15, 10922
16, 40425, Pitch_bend_c, 15, 11442
16, 40425, Pitch_bend_c, 15, 11962
16, 40427, Pitch_bend_c, 15, 12352
16, 40429, Pitch_bend_c, 15, 12612
16, 40431, Pitch_bend_c, 15, 12872
16, 40431, Pitch_bend_c, 15, 13132
16, 40433, Pitch_bend_c, 15, 13262
16, 40435, Pitch_bend_c, 15, 13392
16, 40435, Pitch_bend_c, 15, 13522
16, 40437, Note_on_c, 15, 58, 0
16, 40444, Pitch_bend_c, 15, 13262
16, 40446, Pitch_bend_c, 15, 13132
16, 40448, Pitch_bend_c, 15, 13002
16, 40448, Pitch_bend_c, 15, 12872
16, 40450, Pitch_bend_c, 15, 12612
16, 40450, Pitch_bend_c, 15, 12352
16, 40452, Pitch_bend_c, 15, 11962
16, 40452, Pitch_bend_c, 15, 11572
16, 40455, Pitch_bend_c, 15, 11052
16, 40455, Pitch_bend_c, 15, 10402
16, 40457, Pitch_bend_c, 15, 9752
16, 40459, Pitch_bend_c, 15, 9232
16, 40459, Pitch_bend_c, 15, 8452
16, 40462, Note_on_c, 15, 58, 60
16, 40462, Pitch_bend_c, 15, 8192
16, 40476, Pitch_bend_c, 15, 8322
16, 40478, Pitch_bend_c, 15, 8582
16, 40478, Pitch_bend_c, 15, 8842
16, 40480, Pitch_bend_c, 15, 9102
16, 40482, Pitch_bend_c, 15, 9362
16, 40482, Pitch_bend_c, 15, 9492
16, 40484, Pitch_bend_c, 15, 9752
16, 40486, Pitch_bend_c, 15, 9882
16, 40486, Pitch_bend_c, 15, 10142
16, 40488, Pitch_bend_c, 15, 10272
16, 40491, Pitch_bend_c, 15, 10402
16, 40497, Pitch_bend_c, 15, 10142
16, 40499, Pitch_bend_c, 15, 10012
16, 40500, Pitch_bend_c, 15, 9752
16, 40502, Pitch_bend_c, 15, 9492
16, 40502, Pitch_bend_c, 15, 9232
16, 40504, Note_on_c, 15, 58, 0
16, 40504, Pitch_bend_c, 15, 8712
16, 40506, Pitch_bend_c, 15, 8322
16, 40506, Pitch_bend_c, 15, 8192
16, 40553, Note_on_c, 15, 56, 56
16, 40580, Pitch_bend_c, 15, 8452
16, 40580, Pitch_bend_c, 15, 8842
16, 40582, Pitch_bend_c, 15, 9102
16, 40584, Pitch_bend_c, 15, 9362
16, 40584, Pitch_bend_c, 15, 9492
16, 40586, Pitch_bend_c, 15, 9752
16, 40588, Pitch_bend_c, 15, 9882
16, 40590, Pitch_bend_c, 15, 10012
16, 40596, Pitch_bend_c, 15, 9882
16, 40597, Pitch_bend_c, 15, 9622
16, 40599, Pitch_bend_c, 15, 9362
16, 40601, Pitch_bend_c, 15, 9102
16, 40601, Pitch_bend_c, 15, 8712
16, 40603, Pitch_bend_c, 15, 8322
16, 40605, Pitch_bend_c, 15, 8192
16, 40628, Note_on_c, 15, 56, 0
16, 40630, Pitch_bend_c, 15, 8322
16, 40632, Pitch_bend_c, 15, 8452
16, 40632, Pitch_bend_c, 15, 8582
16, 40634, Pitch_bend_c, 15, 8712
16, 40636, Pitch_bend_c, 15, 8842
16, 40636, Pitch_bend_c, 15, 8972
16, 40644, Note_on_c, 15, 53, 60
16, 40645, Pitch_bend_c, 15, 8842
16, 40645, Pitch_bend_c, 15, 8582
16, 40647, Pitch_bend_c, 15, 8322
16, 40649, Pitch_bend_c, 15, 8192
16, 40678, Pitch_bend_c, 15, 8322
16, 40680, Pitch_bend_c, 15, 8712
16, 40682, Pitch_bend_c, 15, 9102
16, 40683, Pitch_bend_c, 15, 9492
16, 40685, Pitch_bend_c, 15, 9752
16, 40685, Pitch_bend_c, 15, 9882
16, 40687, Pitch_bend_c, 15, 10012
16, 40693, Pitch_bend_c, 15, 9752
16, 40695, Pitch_bend_c, 15, 9622
16, 40697, Pitch_bend_c, 15, 9362
16, 40697, Pitch_bend_c, 15, 8972
16, 40699, Pitch_bend_c, 15, 8452
16, 40701, Pitch_bend_c, 15, 8192
16, 40735, Note_on_c, 15, 53, 0
16, 40737, Note_on_c, 15, 51, 36
16, 40762, Note_on_c, 15, 51, 0
16, 40765, Note_on_c, 15, 48, 48
16, 40795, Note_on_c, 15, 48, 0
16, 40800, Note_on_c, 15, 51, 60
16, 40820, Note_on_c, 15, 51, 0
16, 40833, Note_on_c, 15, 53, 56
16, 40845, Pitch_bend_c, 15, 8322
16, 40852, Pitch_bend_c, 15, 8452
16, 40854, Pitch_bend_c, 15, 8582
16, 40856, Pitch_bend_c, 15, 8712
16, 40858, Pitch_bend_c, 15, 8842
16, 40860, Pitch_bend_c, 15, 8972
16, 40862, Pitch_bend_c, 15, 9102
16, 40866, Pitch_bend_c, 15, 9232
16, 40873, Pitch_bend_c, 15, 9102
16, 40875, Pitch_bend_c, 15, 8842
16, 40877, Pitch_bend_c, 15, 8582
16, 40877, Pitch_bend_c, 15, 8192
16, 40886, Note_on_c, 15, 53, 0
16, 41750, Note_on_c, 15, 41, 36
16, 41811, Note_on_c, 15, 41, 0
16, 41845, Note_on_c, 15, 41, 52
16, 41855, Note_on_c, 15, 41, 0
16, 42173, Note_on_c, 15, 53, 30
16, 42192, Note_on_c, 15, 53, 0
16, 42207, Note_on_c, 15, 48, 36
16, 42226, Note_on_c, 15, 48, 0
16, 42233, Note_on_c, 15, 51, 60
16, 42255, Note_on_c, 15, 51, 0
16, 42264, Note_on_c, 15, 56, 82
16, 42286, Note_on_c, 15, 56, 0
16, 42293, Note_on_c, 15, 58, 73
16, 42352, Pitch_bend_c, 15, 8322
16, 42354, Pitch_bend_c, 15, 8582
16, 42354, Pitch_bend_c, 15, 8712
16, 42356, Pitch_bend_c, 15, 8972
16, 42358, Pitch_bend_c, 15, 9232
16, 42358, Pitch_bend_c, 15, 9362
16, 42365, Pitch_bend_c, 15, 9232
16, 42365, Pitch_bend_c, 15, 9102
16, 42367, Pitch_bend_c, 15, 8972
16, 42367, Pitch_bend_c, 15, 8712
16, 42369, Pitch_bend_c, 15, 8452
16, 42371, Pitch_bend_c, 15, 8192
16, 42385, Pitch_bend_c, 15, 8452
16, 42387, Pitch_bend_c, 15, 8582
16, 42389, Pitch_bend_c, 15, 8842
16, 42389, Pitch_bend_c, 15, 9102
16, 42391, Pitch_bend_c, 15, 9362
16, 42393, Pitch_bend_c, 15, 9622
16, 42393, Pitch_bend_c, 15, 9752
16, 42395, Pitch_bend_c, 15, 9882
16, 42397, Pitch_bend_c, 15, 10012
16, 42405, Pitch_bend_c, 15, 9882
16, 42406, Pitch_bend_c, 15, 9752
16, 42408, Pitch_bend_c, 15, 9622
16, 42408, Pitch_bend_c, 15, 9492
16, 42410, Pitch_bend_c, 15, 9232
16, 42412, Pitch_bend_c, 15, 9102
16, 42412, Pitch_bend_c, 15, 8842
16, 42414, Pitch_bend_c, 15, 8452
16, 42416, Pitch_bend_c, 15, 8192
16, 42443, Note_on_c, 15, 56, 48
16, 42448, Note_on_c, 15, 58, 0
16, 42467, Note_on_c, 15, 56, 0
16, 42472, Note_on_c, 15, 53, 44
16, 42476, Note_on_c, 15, 48, 44
16, 42483, Note_on_c, 15, 53, 0
16, 42497, Note_on_c, 15, 48, 0
16, 42501, Note_on_c, 15, 53, 52
16, 42550, Pitch_bend_c, 15, 8322
16, 42550, Pitch_bend_c, 15, 8582
16, 42552, Pitch_bend_c, 15, 8972
16, 42552, Pitch_bend_c, 15, 9232
16, 42554, Pitch_bend_c, 15, 9492
16, 42556, Pitch_bend_c, 15, 9752
16, 42558, Pitch_bend_c, 15, 9882
16, 42563, Pitch_bend_c, 15, 9752
16, 42563, Pitch_bend_c, 15, 9622
16, 42565, Pitch_bend_c, 15, 9492
16, 42567, Pitch_bend_c, 15, 9232
16, 42567, Pitch_bend_c, 15, 8972
16, 42569, Pitch_bend_c, 15, 8582
16, 42571, Pitch_bend_c, 15, 8192
16, 42585, Note_on_c, 15, 53, 0
16, 42585, Pitch_bend_c, 15, 8582
16, 42587, Pitch_bend_c, 15, 8842
16, 42589, Pitch_bend_c, 15, 9102
16, 42589, Pitch_bend_c, 15, 9362
16, 42591, Pitch_bend_c, 15, 9622
16, 42593, Pitch_bend_c, 15, 9882
16, 42593, Pitch_bend_c, 15, 10142
16, 42595, Pitch_bend_c, 15, 10402
16, 42597, Pitch_bend_c, 15, 10792
16, 42599, Pitch_bend_c, 15, 10922
16, 42599, Pitch_bend_c, 15, 11182
16, 42600, Pitch_bend_c, 15, 11442
16, 42602, Pitch_bend_c, 15, 11572
16, 42602, Pitch_bend_c, 15, 11312
16, 42605, Pitch_bend_c, 15, 10012
16, 42606, Pitch_bend_c, 15, 8192
16, 42819, Note_on_c, 15, 53, 16
16, 42821, Note_on_c, 15, 53, 0
16, 42839, Note_on_c, 15, 62, 73
16, 42866, Pitch_bend_c, 15, 8322
16, 42868, Pitch_bend_c, 15, 8452
16, 42868, Pitch_bend_c, 15, 8712
16, 42870, Pitch_bend_c, 15, 8842
16, 42872, Pitch_bend_c, 15, 8972
16, 42874, Pitch_bend_c, 15, 9102
16, 42874, Pitch_bend_c, 15, 9232
16, 42885, Pitch_bend_c, 15, 9102
16, 42887, Pitch_bend_c, 15, 8972
16, 42888, Pitch_bend_c, 15, 8712
16, 42890, Pitch_bend_c, 15, 8582
16, 42892, Pitch_bend_c, 15, 8452
16, 42894, Pitch_bend_c, 15, 8192
16, 42898, Note_on_c, 15, 62, 0
16, 42921, Note_on_c, 15, 53, 44
16, 42941, Note_on_c, 15, 53, 0
16, 42965, Note_on_c, 15, 59, 73
16, 43031, Note_on_c, 15, 59, 0
16, 43031, Note_on_c, 15, 60, 56
16, 43058, Note_on_c, 15, 60, 0
16, 43082, Note_on_c, 15, 65, 100
16, 43115, Pitch_bend_c, 15, 8322
16, 43127, Pitch_bend_c, 15, 8192
16, 43131, Note_on_c, 15, 65, 0
16, 43151, Note_on_c, 15, 63, 91
16, 43170, Pitch_bend_c, 15, 8452
16, 43173, Pitch_bend_c, 15, 8582
16, 43173, Pitch_bend_c, 15, 8712
16, 43175, Pitch_bend_c, 15, 8842
16, 43175, Pitch_bend_c, 15, 8972
16, 43178, Pitch_bend_c, 15, 9102
16, 43184, Pitch_bend_c, 15, 8972
16, 43184, Pitch_bend_c, 15, 8842
16, 43186, Pitch_bend_c, 15, 8712
16, 43188, Pitch_bend_c, 15, 8582
16, 43188, Pitch_bend_c, 15, 8322
16, 43189, Pitch_bend_c, 15, 8192
16, 43200, Note_on_c, 15, 63, 0
16, 43210, Note_on_c, 15, 60, 64
16, 43224, Pitch_bend_c, 15, 8322
16, 43226, Pitch_bend_c, 15, 8452
16, 43226, Pitch_bend_c, 15, 8582
16, 43230, Pitch_bend_c, 15, 8712
16, 43235, Pitch_bend_c, 15, 8582
16, 43237, Pitch_bend_c, 15, 8452
16, 43237, Pitch_bend_c, 15, 8322
16, 43241, Pitch_bend_c, 15, 8192
16, 43262, Note_on_c, 15, 60, 0
16, 43275, Note_on_c, 15, 59, 91
16, 43311, Note_on_c, 15, 59, 0
16, 43322, Note_on_c, 15, 58, 82
16, 43392, Note_on_c, 15, 58, 0
16, 43396, Note_on_c, 15, 56, 52
16, 43428, Note_on_c, 15, 56, 0
16, 43438, Note_on_c, 15, 53, 100
16, 43468, Note_on_c, 15, 53, 0
16, 43476, Note_on_c, 15, 51, 48
16, 43504, Note_on_c, 15, 51, 0
16, 43517, Note_on_c, 15, 52, 60
16, 43548, Note_on_c, 15, 52, 0
16, 43555, Note_on_c, 15, 53, 73
16, 43566, Pitch_bend_c, 15, 8322
16, 43586, Pitch_bend_c, 15, 8192
16, 43597, Note_on_c, 15, 53, 0
16, 43602, Note_on_c, 15, 54, 56
16, 43617, Note_on_c, 15, 54, 0
16, 43645, Note_on_c, 15, 54, 91
16, 43675, Pitch_bend_c, 15, 8322
16, 43677, Pitch_bend_c, 15, 8582
16, 43677, Pitch_bend_c, 15, 8712
16, 43679, Pitch_bend_c, 15, 8842
16, 43680, Pitch_bend_c, 15, 9102
16, 43680, Pitch_bend_c, 15, 9232
16, 43684, Pitch_bend_c, 15, 9362
16, 43693, Pitch_bend_c, 15, 9102
16, 43697, Pitch_bend_c, 15, 8972
16, 43697, Pitch_bend_c, 15, 8842
16, 43697, Pitch_bend_c, 15, 8582
16, 43699, Pitch_bend_c, 15, 8192
16, 43724, Pitch_bend_c, 15, 8322
16, 43724, Pitch_bend_c, 15, 8582
16, 43726, Pitch_bend_c, 15, 8972
16, 43726, Pitch_bend_c, 15, 9232
16, 43728, Pitch_bend_c, 15, 9492
16, 43730, Pitch_bend_c, 15, 9622
16, 43732, Pitch_bend_c, 15, 9882
16, 43732, Pitch_bend_c, 15, 10012
16, 43734, Pitch_bend_c, 15, 10142
16, 43736, Pitch_bend_c, 15, 9622
16, 43736, Pitch_bend_c, 15, 8192
16, 43743, Note_on_c, 15, 54, 0
16, 43743, End_track
17, 0, Start_track
17, 0, MIDI_port, 0
17, 0, Title_t, "2 piece"
17, 0, Control_c, 11, 0, 56
17, 0, Control_c, 11, 32, 0
17, 0, Program_c, 11, 57
17, 0, Control_c, 11, 7, 79
17, 60107, Note_on_c, 11, 66, 60
17, 60111, Note_on_c, 11, 67, 82
17, 60117, Note_on_c, 11, 66, 0
17, 60192, Note_on_c, 11, 67, 0
17, 60197, Note_on_c, 11, 70, 64
17, 60232, Note_on_c, 11, 70, 0
17, 60232, Note_on_c, 11, 68, 73
17, 60318, Note_on_c, 11, 68, 0
17, 60320, Note_on_c, 11, 73, 91
17, 60346, Note_on_c, 11, 73, 0
17, 60482, Note_on_c, 11, 65, 100
17, 60549, Note_on_c, 11, 65, 0
17, 60560, Note_on_c, 11, 68, 64
17, 60587, Note_on_c, 11, 66, 64
17, 60596, Note_on_c, 11, 68, 0
17, 60668, Note_on_c, 11, 69, 60
17, 60673, Note_on_c, 11, 66, 0
17, 60680, Note_on_c, 11, 71, 100
17, 60688, Note_on_c, 11, 69, 0
17, 60735, Note_on_c, 11, 71, 0
17, 60840, Note_on_c, 11, 69, 82
17, 60910, Note_on_c, 11, 69, 0
17, 60926, Note_on_c, 11, 66, 82
17, 61308, Note_on_c, 11, 66, 0
17, 63000, Note_on_c, 11, 67, 82
17, 63072, Note_on_c, 11, 67, 0
17, 63077, Note_on_c, 11, 70, 48
17, 63113, Note_on_c, 11, 68, 44
17, 63119, Note_on_c, 11, 70, 0
17, 63194, Note_on_c, 11, 68, 0
17, 63198, Note_on_c, 11, 73, 91
17, 63224, Note_on_c, 11, 73, 0
17, 63362, Note_on_c, 11, 65, 60
17, 63431, Note_on_c, 11, 65, 0
17, 63445, Note_on_c, 11, 68, 64
17, 63478, Note_on_c, 11, 66, 56
17, 63481, Note_on_c, 11, 68, 0
17, 63557, Note_on_c, 11, 66, 0
17, 63559, Note_on_c, 11, 71, 82
17, 63597, Note_on_c, 11, 71, 0
17, 63718, Note_on_c, 11, 69, 64
17, 63737, Note_on_c, 11, 69, 0
17, 63750, Note_on_c, 11, 66, 56
17, 63770, Note_on_c, 11, 66, 0
17, 63797, Note_on_c, 11, 66, 52
17, 64044, Note_on_c, 11, 66, 0
17, 64607, Note_on_c, 11, 66, 56
17, 64638, Note_on_c, 11, 66, 0
17, 64640, Note_on_c, 11, 64, 73
17, 64661, Note_on_c, 11, 64, 0
17, 64676, Note_on_c, 11, 61, 73
17, 64705, Note_on_c, 11, 61, 0
17, 64707, Note_on_c, 11, 59, 64
17, 64730, Note_on_c, 11, 59, 0
17, 64746, Note_on_c, 11, 57, 73
17, 64776, Note_on_c, 11, 57, 0
17, 64793, Note_on_c, 11, 54, 73
17, 64848, Note_on_c, 11, 54, 0
17, 64874, Note_on_c, 11, 54, 82
17, 64896, Note_on_c, 11, 54, 0
17, 65879, Note_on_c, 11, 67, 91
17, 65951, Note_on_c, 11, 67, 0
17, 65954, Note_on_c, 11, 70, 56
17, 65994, Note_on_c, 11, 68, 48
17, 65996, Note_on_c, 11, 70, 0
17, 66075, Note_on_c, 11, 73, 82
17, 66079, Note_on_c, 11, 68, 0
17, 66104, Note_on_c, 11, 73, 0
17, 66241, Note_on_c, 11, 65, 64
17, 66304, Note_on_c, 11, 65, 0
17, 66326, Note_on_c, 11, 68, 73
17, 66364, Note_on_c, 11, 66, 60
17, 66366, Note_on_c, 11, 68, 0
17, 66429, Note_on_c, 11, 66, 0
17, 66442, Note_on_c, 11, 71, 82
17, 66478, Note_on_c, 11, 71, 0
17, 66591, Note_on_c, 11, 69, 64
17, 66665, Note_on_c, 11, 69, 0
17, 66681, Note_on_c, 11, 66, 52
17, 67241, Note_on_c, 11, 66, 0
17, 67272, Note_on_c, 11, 62, 16
17, 67273, Note_on_c, 11, 62, 0
17, 67277, Note_on_c, 11, 60, 16
17, 67281, Note_on_c, 11, 60, 0
17, 68755, Note_on_c, 11, 67, 82
17, 68820, Note_on_c, 11, 67, 0
17, 68840, Note_on_c, 11, 70, 60
17, 68883, Note_on_c, 11, 70, 0
17, 68883, Note_on_c, 11, 68, 36
17, 68963, Note_on_c, 11, 68, 0
17, 68963, Note_on_c, 11, 73, 82
17, 68988, Note_on_c, 11, 73, 0
17, 69121, Note_on_c, 11, 65, 52
17, 69177, Note_on_c, 11, 65, 0
17, 69204, Note_on_c, 11, 68, 40
17, 69208, Note_on_c, 11, 70, 36
17, 69219, Note_on_c, 11, 68, 0
17, 69253, Note_on_c, 11, 68, 64
17, 69255, Note_on_c, 11, 70, 0
17, 69295, Note_on_c, 11, 68, 0
17, 69325, Note_on_c, 11, 73, 40
17, 69329, Note_on_c, 11, 73, 0
17, 69333, Note_on_c, 11, 72, 40
17, 69342, Note_on_c, 11, 72, 0
17, 69468, Note_on_c, 11, 69, 73
17, 69531, Note_on_c, 11, 69, 0
17, 69556, Note_on_c, 11, 66, 56
17, 70064, Note_on_c, 11, 66, 0
17, 70098, Note_on_c, 11, 73, 16
17, 70102, Note_on_c, 11, 73, 0
17, 70127, Note_on_c, 11, 69, 16
17, 70149, Note_on_c, 11, 69, 0
17, 70154, Note_on_c, 11, 66, 40
17, 70185, Note_on_c, 11, 66, 0
17, 70198, Note_on_c, 11, 71, 82
17, 70234, Note_on_c, 11, 71, 0
17, 70237, Note_on_c, 11, 66, 40
17, 70259, Note_on_c, 11, 66, 0
17, 70277, Note_on_c, 11, 72, 64
17, 70317, Note_on_c, 11, 73, 32
17, 70322, Note_on_c, 11, 72, 0
17, 70342, Note_on_c, 11, 73, 0
17, 70357, Note_on_c, 11, 66, 44
17, 70384, Note_on_c, 11, 66, 0
17, 70397, Note_on_c, 11, 71, 64
17, 70429, Note_on_c, 11, 71, 0
17, 70433, Note_on_c, 11, 66, 64
17, 70467, Note_on_c, 11, 66, 0
17, 70478, Note_on_c, 11, 69, 48
17, 70511, Note_on_c, 11, 69, 0
17, 70516, Note_on_c, 11, 66, 48
17, 70547, Note_on_c, 11, 66, 0
17, 70561, Note_on_c, 11, 69, 56
17, 70596, Note_on_c, 11, 69, 0
17, 70599, Note_on_c, 11, 66, 48
17, 70622, Note_on_c, 11, 66, 0
17, 70641, Note_on_c, 11, 66, 56
17, 70662, Note_on_c, 11, 66, 0
17, 71001, Note_on_c, 11, 78, 91
17, 71001, Note_on_c, 11, 76, 24
17, 71004, Note_on_c, 11, 76, 0
17, 71084, Note_on_c, 11, 78, 0
17, 71152, Note_on_c, 11, 76, 73
17, 71221, Note_on_c, 11, 76, 0
17, 71233, Note_on_c, 11, 66, 40
17, 71254, Note_on_c, 11, 66, 0
17, 71326, Note_on_c, 11, 71, 16
17, 71340, Note_on_c, 11, 71, 0
17, 71360, Note_on_c, 11, 66, 52
17, 71385, Note_on_c, 11, 66, 0
17, 71400, Note_on_c, 11, 69, 64
17, 71439, Note_on_c, 11, 69, 0
17, 71632, Note_on_c, 11, 67, 91
17, 71695, Note_on_c, 11, 67, 0
17, 71710, Note_on_c, 11, 70, 48
17, 71748, Note_on_c, 11, 70, 0
17, 71751, Note_on_c, 11, 68, 48
17, 71838, Note_on_c, 11, 68, 0
17, 71838, Note_on_c, 11, 73, 91
17, 71861, Note_on_c, 11, 73, 0
17, 72000, Note_on_c, 11, 65, 52
17, 72061, Note_on_c, 11, 65, 0
17, 72077, Note_on_c, 11, 68, 64
17, 72115, Note_on_c, 11, 66, 73
17, 72117, Note_on_c, 11, 68, 0
17, 72169, Note_on_c, 11, 66, 0
17, 72200, Note_on_c, 11, 71, 82
17, 72234, Note_on_c, 11, 71, 0
17, 72357, Note_on_c, 11, 69, 100
17, 72389, Note_on_c, 11, 69, 0
17, 72442, Note_on_c, 11, 66, 36
17, 72600, Note_on_c, 11, 66, 0
17, 72836, Note_on_c, 11, 78, 40
17, 72851, Note_on_c, 11, 66, 21
17, 72903, Note_on_c, 11, 66, 0
17, 72903, Note_on_c, 11, 78, 0
17, 72924, Note_on_c, 11, 66, 91
17, 72926, Note_on_c, 11, 78, 100
17, 72946, Note_on_c, 11, 66, 0
17, 72950, Note_on_c, 11, 78, 0
17, 74510, Note_on_c, 11, 66, 91
17, 74514, Note_on_c, 11, 67, 82
17, 74523, Note_on_c, 11, 66, 0
17, 74590, Note_on_c, 11, 67, 0
17, 74597, Note_on_c, 11, 70, 91
17, 74624, Note_on_c, 11, 68, 91
17, 74626, Note_on_c, 11, 70, 0
17, 74716, Note_on_c, 11, 68, 0
17, 74716, Note_on_c, 11, 73, 91
17, 74745, Note_on_c, 11, 73, 0
17, 74880, Note_on_c, 11, 65, 91
17, 74945, Note_on_c, 11, 65, 0
17, 74960, Note_on_c, 11, 68, 82
17, 74994, Note_on_c, 11, 68, 0
17, 74994, Note_on_c, 11, 66, 73
17, 75075, Note_on_c, 11, 66, 0
17, 75079, Note_on_c, 11, 71, 91
17, 75119, Note_on_c, 11, 71, 0
17, 75230, Note_on_c, 11, 69, 73
17, 75297, Note_on_c, 11, 69, 0
17, 75321, Note_on_c, 11, 66, 52
17, 76186, Note_on_c, 11, 66, 0
17, 76199, Note_on_c, 11, 64, 73
17, 76237, Note_on_c, 11, 61, 56
17, 76238, Note_on_c, 11, 64, 0
17, 76262, Note_on_c, 11, 61, 0
17, 76271, Note_on_c, 11, 59, 60
17, 76300, Note_on_c, 11, 59, 0
17, 76318, Note_on_c, 11, 57, 56
17, 76354, Note_on_c, 11, 57, 0
17, 76401, Note_on_c, 11, 54, 82
17, 76425, Note_on_c, 11, 54, 0
17, 76673, Note_on_c, 11, 66, 73
17, 76709, Note_on_c, 11, 66, 0
17, 77391, Note_on_c, 11, 66, 91
17, 77399, Note_on_c, 11, 67, 82
17, 77408, Note_on_c, 11, 66, 0
17, 77471, Note_on_c, 11, 67, 0
17, 77479, Note_on_c, 11, 70, 82
17, 77512, Note_on_c, 11, 68, 64
17, 77516, Note_on_c, 11, 70, 0
17, 77601, Note_on_c, 11, 68, 0
17, 77602, Note_on_c, 11, 73, 91
17, 77628, Note_on_c, 11, 73, 0
17, 77761, Note_on_c, 11, 65, 73
17, 77828, Note_on_c, 11, 65, 0
17, 77843, Note_on_c, 11, 68, 82
17, 77873, Note_on_c, 11, 68, 0
17, 77873, Note_on_c, 11, 66, 82
17, 77960, Note_on_c, 11, 66, 0
17, 77960, Note_on_c, 11, 71, 91
17, 78001, Note_on_c, 11, 71, 0
17, 78109, Note_on_c, 11, 69, 52
17, 78189, Note_on_c, 11, 69, 0
17, 78201, Note_on_c, 11, 66, 48
17, 78563, Note_on_c, 11, 66, 0
17, 79074, Note_on_c, 11, 71, 91
17, 79119, Note_on_c, 11, 71, 0
17, 79199, Note_on_c, 11, 69, 56
17, 79219, Note_on_c, 11, 71, 60
17, 79230, Note_on_c, 11, 69, 0
17, 79248, Note_on_c, 11, 71, 0
17, 79298, Note_on_c, 11, 66, 60
17, 79327, Note_on_c, 11, 66, 0
17, 80110, Note_on_c, 11, 85, 91
17, 80110, Note_on_c, 11, 73, 82
17, 80186, Note_on_c, 11, 85, 0
17, 80187, Note_on_c, 11, 73, 0
17, 80187, End_track
18, 0, Start_track
18, 0, MIDI_port, 0
18, 0, Title_t, "drums"
18, 0, Control_c, 9, 0, 62
18, 0, Control_c, 9, 32, 0
18, 0, Program_c, 9, 0
18, 0, Control_c, 9, 7, 127
18, 0, Note_on_c, 9, 37, 63
18, 119, Note_on_c, 9, 37, 0
18, 120, Note_on_c, 9, 37, 63
18, 239, Note_on_c, 9, 37, 0
18, 240, Note_on_c, 9, 37, 63
18, 359, Note_on_c, 9, 37, 0
18, 360, Note_on_c, 9, 37, 63
18, 479, Note_on_c, 9, 37, 0
18, 600, Note_on_c, 9, 40, 56
18, 652, Note_on_c, 9, 40, 0
18, 680, Note_on_c, 9, 36, 73
18, 703, Note_on_c, 9, 36, 0
18, 800, Note_on_c, 9, 36, 60
18, 800, Note_on_c, 9, 36, 64
18, 807, Note_on_c, 9, 36, 0
18, 814, Note_on_c, 9, 36, 0
18, 840, Note_on_c, 9, 36, 52
18, 840, Note_on_c, 9, 40, 73
18, 858, Note_on_c, 9, 36, 0
18, 884, Note_on_c, 9, 40, 0
18, 960, Note_on_c, 9, 36, 60
18, 1005, Note_on_c, 9, 36, 0
18, 1080, Note_on_c, 9, 40, 64
18, 1125, Note_on_c, 9, 40, 0
18, 1160, Note_on_c, 9, 36, 56
18, 1195, Note_on_c, 9, 36, 0
18, 1280, Note_on_c, 9, 36, 48
18, 1302, Note_on_c, 9, 36, 0
18, 1320, Note_on_c, 9, 40, 56
18, 1352, Note_on_c, 9, 40, 0
18, 1360, Note_on_c, 9, 36, 60
18, 1394, Note_on_c, 9, 36, 0
18, 1440, Note_on_c, 9, 36, 56
18, 1482, Note_on_c, 9, 36, 0
18, 1559, Note_on_c, 9, 40, 64
18, 1617, Note_on_c, 9, 40, 0
18, 1637, Note_on_c, 9, 36, 56
18, 1668, Note_on_c, 9, 36, 0
18, 1764, Note_on_c, 9, 36, 36
18, 1776, Note_on_c, 9, 36, 0
18, 1802, Note_on_c, 9, 40, 60
18, 1859, Note_on_c, 9, 40, 0
18, 1887, Note_on_c, 9, 36, 16
18, 1889, Note_on_c, 9, 36, 0
18, 1922, Note_on_c, 9, 36, 48
18, 1990, Note_on_c, 9, 36, 0
18, 2044, Note_on_c, 9, 40, 73
18, 2104, Note_on_c, 9, 40, 0
18, 2122, Note_on_c, 9, 36, 48
18, 2158, Note_on_c, 9, 36, 0
18, 2243, Note_on_c, 9, 36, 48
18, 2257, Note_on_c, 9, 36, 0
18, 2282, Note_on_c, 9, 40, 56
18, 2316, Note_on_c, 9, 40, 0
18, 2320, Note_on_c, 9, 36, 56
18, 2333, Note_on_c, 9, 36, 0
18, 2400, Note_on_c, 9, 36, 60
18, 2436, Note_on_c, 9, 36, 0
18, 2513, Note_on_c, 9, 40, 64
18, 2568, Note_on_c, 9, 40, 0
18, 2598, Note_on_c, 9, 36, 60
18, 2620, Note_on_c, 9, 36, 0
18, 2724, Note_on_c, 9, 36, 40
18, 2735, Note_on_c, 9, 36, 0
18, 2757, Note_on_c, 9, 40, 82
18, 2795, Note_on_c, 9, 40, 0
18, 2840, Note_on_c, 9, 36, 48
18, 2854, Note_on_c, 9, 36, 0
18, 2874, Note_on_c, 9, 36, 60
18, 2932, Note_on_c, 9, 36, 0
18, 2997, Note_on_c, 9, 40, 60
18, 3049, Note_on_c, 9, 40, 0
18, 3074, Note_on_c, 9, 36, 60
18, 3107, Note_on_c, 9, 36, 0
18, 3202, Note_on_c, 9, 36, 30
18, 3215, Note_on_c, 9, 36, 0
18, 3237, Note_on_c, 9, 40, 64
18, 3292, Note_on_c, 9, 40, 0
18, 3352, Note_on_c, 9, 36, 56
18, 3406, Note_on_c, 9, 36, 0
18, 3474, Note_on_c, 9, 40, 73
18, 3548, Note_on_c, 9, 40, 0
18, 3557, Note_on_c, 9, 36, 32
18, 3577, Note_on_c, 9, 36, 0
18, 3678, Note_on_c, 9, 36, 48
18, 3698, Note_on_c, 9, 36, 0
18, 3716, Note_on_c, 9, 40, 60
18, 3745, Note_on_c, 9, 40, 0
18, 3752, Note_on_c, 9, 36, 48
18, 3767, Note_on_c, 9, 36, 0
18, 3803, Note_on_c, 9, 36, 16
18, 3806, Note_on_c, 9, 36, 0
18, 3835, Note_on_c, 9, 36, 60
18, 3880, Note_on_c, 9, 36, 0
18, 3960, Note_on_c, 9, 40, 64
18, 4025, Note_on_c, 9, 40, 0
18, 4039, Note_on_c, 9, 36, 48
18, 4066, Note_on_c, 9, 36, 0
18, 4165, Note_on_c, 9, 36, 32
18, 4183, Note_on_c, 9, 36, 0
18, 4201, Note_on_c, 9, 40, 64
18, 4237, Note_on_c, 9, 40, 0
18, 4239, Note_on_c, 9, 36, 56
18, 4266, Note_on_c, 9, 36, 0
18, 4319, Note_on_c, 9, 36, 56
18, 4377, Note_on_c, 9, 36, 0
18, 4441, Note_on_c, 9, 40, 73
18, 4506, Note_on_c, 9, 40, 0
18, 4517, Note_on_c, 9, 36, 48
18, 4549, Note_on_c, 9, 36, 0
18, 4642, Note_on_c, 9, 36, 31
18, 4654, Note_on_c, 9, 36, 0
18, 4683, Note_on_c, 9, 40, 73
18, 4735, Note_on_c, 9, 40, 0
18, 4753, Note_on_c, 9, 36, 40
18, 4766, Note_on_c, 9, 36, 0
18, 4797, Note_on_c, 9, 36, 52
18, 4842, Note_on_c, 9, 36, 0
18, 4912, Note_on_c, 9, 40, 64
18, 4982, Note_on_c, 9, 40, 0
18, 4995, Note_on_c, 9, 36, 52
18, 5011, Note_on_c, 9, 36, 0
18, 5112, Note_on_c, 9, 36, 48
18, 5154, Note_on_c, 9, 36, 0
18, 5158, Note_on_c, 9, 40, 73
18, 5188, Note_on_c, 9, 40, 0
18, 5199, Note_on_c, 9, 36, 36
18, 5211, Note_on_c, 9, 36, 0
18, 5244, Note_on_c, 9, 36, 21
18, 5251, Note_on_c, 9, 36, 0
18, 5282, Note_on_c, 9, 36, 64
18, 5338, Note_on_c, 9, 36, 0
18, 5403, Note_on_c, 9, 40, 64
18, 5462, Note_on_c, 9, 40, 0
18, 5481, Note_on_c, 9, 36, 44
18, 5509, Note_on_c, 9, 36, 0
18, 5603, Note_on_c, 9, 36, 48
18, 5614, Note_on_c, 9, 36, 0
18, 5637, Note_on_c, 9, 40, 64
18, 5704, Note_on_c, 9, 40, 0
18, 5724, Note_on_c, 9, 36, 16
18, 5724, Note_on_c, 9, 36, 0
18, 5760, Note_on_c, 9, 36, 56
18, 5823, Note_on_c, 9, 36, 0
18, 5875, Note_on_c, 9, 40, 73
18, 5933, Note_on_c, 9, 40, 0
18, 5956, Note_on_c, 9, 36, 30
18, 5975, Note_on_c, 9, 36, 0
18, 6074, Note_on_c, 9, 36, 60
18, 6081, Note_on_c, 9, 36, 0
18, 6086, Note_on_c, 9, 36, 60
18, 6094, Note_on_c, 9, 36, 0
18, 6099, Note_on_c, 9, 36, 60
18, 6116, Note_on_c, 9, 36, 0
18, 6118, Note_on_c, 9, 40, 64
18, 6152, Note_on_c, 9, 40, 0
18, 6235, Note_on_c, 9, 36, 56
18, 6271, Note_on_c, 9, 36, 0
18, 6348, Note_on_c, 9, 40, 82
18, 6395, Note_on_c, 9, 40, 0
18, 6435, Note_on_c, 9, 36, 44
18, 6447, Note_on_c, 9, 36, 0
18, 6469, Note_on_c, 9, 36, 48
18, 6507, Note_on_c, 9, 36, 0
18, 6593, Note_on_c, 9, 40, 82
18, 6646, Note_on_c, 9, 40, 0
18, 6718, Note_on_c, 9, 36, 27
18, 6734, Note_on_c, 9, 36, 0
18, 6839, Note_on_c, 9, 40, 64
18, 6909, Note_on_c, 9, 40, 0
18, 6922, Note_on_c, 9, 36, 28
18, 6938, Note_on_c, 9, 36, 0
18, 7044, Note_on_c, 9, 36, 40
18, 7060, Note_on_c, 9, 36, 0
18, 7082, Note_on_c, 9, 40, 91
18, 7134, Note_on_c, 9, 40, 0
18, 7163, Note_on_c, 9, 36, 52
18, 7194, Note_on_c, 9, 36, 0
18, 7278, Note_on_c, 9, 36, 52
18, 7289, Note_on_c, 9, 36, 0
18, 7315, Note_on_c, 9, 40, 73
18, 7389, Note_on_c, 9, 40, 0
18, 7398, Note_on_c, 9, 36, 31
18, 7408, Note_on_c, 9, 36, 0
18, 7438, Note_on_c, 9, 36, 40
18, 7486, Note_on_c, 9, 36, 0
18, 7560, Note_on_c, 9, 40, 82
18, 7621, Note_on_c, 9, 40, 0
18, 7759, Note_on_c, 9, 36, 52
18, 7768, Note_on_c, 9, 36, 0
18, 7801, Note_on_c, 9, 40, 91
18, 7870, Note_on_c, 9, 40, 0
18, 7879, Note_on_c, 9, 36, 40
18, 7899, Note_on_c, 9, 36, 0
18, 7999, Note_on_c, 9, 36, 73
18, 8033, Note_on_c, 9, 36, 0
18, 8039, Note_on_c, 9, 40, 91
18, 8066, Note_on_c, 9, 40, 0
18, 8079, Note_on_c, 9, 36, 52
18, 8090, Note_on_c, 9, 36, 0
18, 8119, Note_on_c, 9, 36, 48
18, 8128, Note_on_c, 9, 36, 0
18, 8160, Note_on_c, 9, 36, 82
18, 8200, Note_on_c, 9, 36, 0
18, 8281, Note_on_c, 9, 40, 82
18, 8344, Note_on_c, 9, 40, 0
18, 8359, Note_on_c, 9, 36, 36
18, 8379, Note_on_c, 9, 36, 0
18, 8482, Note_on_c, 9, 36, 16
18, 8482, Note_on_c, 9, 36, 0
18, 8521, Note_on_c, 9, 40, 91
18, 8592, Note_on_c, 9, 40, 0
18, 8601, Note_on_c, 9, 36, 52
18, 8620, Note_on_c, 9, 36, 0
18, 8757, Note_on_c, 9, 40, 82
18, 8796, Note_on_c, 9, 40, 0
18, 8959, Note_on_c, 9, 36, 64
18, 8971, Note_on_c, 9, 36, 0
18, 8998, Note_on_c, 9, 38, 82
18, 9072, Note_on_c, 9, 38, 0
18, 9118, Note_on_c, 9, 36, 64
18, 9161, Note_on_c, 9, 36, 0
18, 9239, Note_on_c, 9, 40, 91
18, 9312, Note_on_c, 9, 40, 0
18, 9319, Note_on_c, 9, 36, 32
18, 9328, Note_on_c, 9, 36, 0
18, 9358, Note_on_c, 9, 36, 36
18, 9416, Note_on_c, 9, 36, 0
18, 9478, Note_on_c, 9, 40, 82
18, 9552, Note_on_c, 9, 40, 0
18, 9561, Note_on_c, 9, 36, 16
18, 9569, Note_on_c, 9, 36, 0
18, 9598, Note_on_c, 9, 36, 60
18, 9637, Note_on_c, 9, 36, 0
18, 9718, Note_on_c, 9, 40, 91
18, 9789, Note_on_c, 9, 40, 0
18, 9800, Note_on_c, 9, 36, 16
18, 9802, Note_on_c, 9, 36, 0
18, 9838, Note_on_c, 9, 36, 40
18, 9881, Note_on_c, 9, 36, 0
18, 9919, Note_on_c, 9, 36, 16
18, 9923, Note_on_c, 9, 36, 0
18, 9958, Note_on_c, 9, 40, 82
18, 10024, Note_on_c, 9, 40, 0
18, 10038, Note_on_c, 9, 36, 64
18, 10081, Note_on_c, 9, 36, 0
18, 10159, Note_on_c, 9, 36, 48
18, 10168, Note_on_c, 9, 36, 0
18, 10197, Note_on_c, 9, 40, 82
18, 10277, Note_on_c, 9, 36, 52
18, 10278, Note_on_c, 9, 40, 0
18, 10288, Note_on_c, 9, 36, 0
18, 10317, Note_on_c, 9, 36, 60
18, 10378, Note_on_c, 9, 36, 0
18, 10439, Note_on_c, 9, 40, 91
18, 10507, Note_on_c, 9, 40, 0
18, 10521, Note_on_c, 9, 36, 44
18, 10531, Note_on_c, 9, 36, 0
18, 10561, Note_on_c, 9, 36, 48
18, 10606, Note_on_c, 9, 36, 0
18, 10681, Note_on_c, 9, 40, 91
18, 10751, Note_on_c, 9, 40, 0
18, 10759, Note_on_c, 9, 36, 56
18, 10784, Note_on_c, 9, 36, 0
18, 10881, Note_on_c, 9, 36, 48
18, 10897, Note_on_c, 9, 36, 0
18, 10919, Note_on_c, 9, 40, 82
18, 10956, Note_on_c, 9, 40, 0
18, 10959, Note_on_c, 9, 36, 82
18, 10970, Note_on_c, 9, 36, 0
18, 11000, Note_on_c, 9, 36, 60
18, 11083, Note_on_c, 9, 36, 0
18, 11158, Note_on_c, 9, 40, 82
18, 11225, Note_on_c, 9, 40, 0
18, 11238, Note_on_c, 9, 36, 48
18, 11251, Note_on_c, 9, 36, 0
18, 11278, Note_on_c, 9, 36, 36
18, 11305, Note_on_c, 9, 36, 0
18, 11398, Note_on_c, 9, 40, 91
18, 11470, Note_on_c, 9, 40, 0
18, 11481, Note_on_c, 9, 36, 27
18, 11492, Note_on_c, 9, 36, 0
18, 11518, Note_on_c, 9, 36, 56
18, 11581, Note_on_c, 9, 36, 0
18, 11638, Note_on_c, 9, 40, 64
18, 11710, Note_on_c, 9, 40, 0
18, 11718, Note_on_c, 9, 36, 56
18, 11747, Note_on_c, 9, 36, 0
18, 11839, Note_on_c, 9, 36, 48
18, 11872, Note_on_c, 9, 36, 0
18, 11878, Note_on_c, 9, 40, 82
18, 11914, Note_on_c, 9, 40, 0
18, 11921, Note_on_c, 9, 36, 16
18, 11928, Note_on_c, 9, 36, 0
18, 11959, Note_on_c, 9, 36, 40
18, 11970, Note_on_c, 9, 36, 0
18, 11999, Note_on_c, 9, 36, 56
18, 12040, Note_on_c, 9, 36, 0
18, 12121, Note_on_c, 9, 40, 82
18, 12174, Note_on_c, 9, 40, 0
18, 12201, Note_on_c, 9, 36, 48
18, 12214, Note_on_c, 9, 36, 0
18, 12242, Note_on_c, 9, 36, 30
18, 12260, Note_on_c, 9, 36, 0
18, 12361, Note_on_c, 9, 40, 82
18, 12429, Note_on_c, 9, 40, 0
18, 12441, Note_on_c, 9, 36, 48
18, 12452, Note_on_c, 9, 36, 0
18, 12480, Note_on_c, 9, 36, 44
18, 12529, Note_on_c, 9, 36, 0
18, 12599, Note_on_c, 9, 40, 91
18, 12674, Note_on_c, 9, 40, 0
18, 12678, Note_on_c, 9, 36, 48
18, 12693, Note_on_c, 9, 36, 0
18, 12719, Note_on_c, 9, 36, 36
18, 12753, Note_on_c, 9, 36, 0
18, 12798, Note_on_c, 9, 40, 82
18, 12836, Note_on_c, 9, 40, 0
18, 12839, Note_on_c, 9, 36, 44
18, 12850, Note_on_c, 9, 36, 0
18, 12919, Note_on_c, 9, 36, 82
18, 13024, Note_on_c, 9, 36, 0
18, 13079, Note_on_c, 9, 40, 91
18, 13147, Note_on_c, 9, 40, 0
18, 13158, Note_on_c, 9, 36, 30
18, 13169, Note_on_c, 9, 36, 0
18, 13198, Note_on_c, 9, 36, 36
18, 13227, Note_on_c, 9, 36, 0
18, 13280, Note_on_c, 9, 36, 16
18, 13289, Note_on_c, 9, 36, 0
18, 13318, Note_on_c, 9, 40, 73
18, 13349, Note_on_c, 9, 40, 0
18, 13399, Note_on_c, 9, 36, 73
18, 13464, Note_on_c, 9, 36, 0
18, 13521, Note_on_c, 9, 36, 36
18, 13530, Note_on_c, 9, 36, 0
18, 13559, Note_on_c, 9, 40, 64
18, 13638, Note_on_c, 9, 40, 0
18, 13641, Note_on_c, 9, 36, 27
18, 13647, Note_on_c, 9, 36, 0
18, 13681, Note_on_c, 9, 36, 16
18, 13685, Note_on_c, 9, 36, 0
18, 13759, Note_on_c, 9, 36, 48
18, 13799, Note_on_c, 9, 36, 0
18, 13799, Note_on_c, 9, 40, 73
18, 13828, Note_on_c, 9, 40, 0
18, 13839, Note_on_c, 9, 36, 52
18, 13848, Note_on_c, 9, 36, 0
18, 13879, Note_on_c, 9, 36, 64
18, 13951, Note_on_c, 9, 36, 0
18, 14038, Note_on_c, 9, 40, 91
18, 14099, Note_on_c, 9, 40, 0
18, 14117, Note_on_c, 9, 36, 48
18, 14140, Note_on_c, 9, 36, 0
18, 14238, Note_on_c, 9, 36, 26
18, 14247, Note_on_c, 9, 36, 0
18, 14278, Note_on_c, 9, 40, 73
18, 14345, Note_on_c, 9, 40, 0
18, 14358, Note_on_c, 9, 36, 52
18, 14391, Note_on_c, 9, 36, 0
18, 14518, Note_on_c, 9, 40, 82
18, 14587, Note_on_c, 9, 40, 0
18, 14598, Note_on_c, 9, 36, 52
18, 14634, Note_on_c, 9, 36, 0
18, 14718, Note_on_c, 9, 36, 52
18, 14729, Note_on_c, 9, 36, 0
18, 14758, Note_on_c, 9, 40, 73
18, 14781, Note_on_c, 9, 40, 0
18, 14838, Note_on_c, 9, 36, 82
18, 14942, Note_on_c, 9, 36, 0
18, 14999, Note_on_c, 9, 40, 91
18, 15070, Note_on_c, 9, 40, 0
18, 15081, Note_on_c, 9, 36, 28
18, 15096, Note_on_c, 9, 36, 0
18, 15118, Note_on_c, 9, 36, 44
18, 15228, Note_on_c, 9, 36, 0
18, 15239, Note_on_c, 9, 40, 48
18, 15252, Note_on_c, 9, 40, 0
18, 15318, Note_on_c, 9, 36, 82
18, 15376, Note_on_c, 9, 36, 0
18, 15441, Note_on_c, 9, 36, 48
18, 15454, Note_on_c, 9, 36, 0
18, 15479, Note_on_c, 9, 40, 73
18, 15552, Note_on_c, 9, 40, 0
18, 15558, Note_on_c, 9, 36, 48
18, 15567, Note_on_c, 9, 36, 0
18, 15598, Note_on_c, 9, 36, 60
18, 15647, Note_on_c, 9, 36, 0
18, 15679, Note_on_c, 9, 36, 44
18, 15692, Note_on_c, 9, 36, 0
18, 15719, Note_on_c, 9, 40, 91
18, 15757, Note_on_c, 9, 40, 0
18, 15759, Note_on_c, 9, 36, 52
18, 15768, Note_on_c, 9, 36, 0
18, 15798, Note_on_c, 9, 36, 64
18, 15879, Note_on_c, 9, 36, 0
18, 15958, Note_on_c, 9, 40, 82
18, 16024, Note_on_c, 9, 40, 0
18, 16038, Note_on_c, 9, 36, 44
18, 16061, Note_on_c, 9, 36, 0
18, 16159, Note_on_c, 9, 36, 52
18, 16170, Note_on_c, 9, 36, 0
18, 16199, Note_on_c, 9, 40, 82
18, 16259, Note_on_c, 9, 40, 0
18, 16439, Note_on_c, 9, 40, 82
18, 16502, Note_on_c, 9, 40, 0
18, 16519, Note_on_c, 9, 36, 52
18, 16533, Note_on_c, 9, 36, 0
18, 16639, Note_on_c, 9, 36, 60
18, 16643, Note_on_c, 9, 36, 64
18, 16650, Note_on_c, 9, 36, 0
18, 16659, Note_on_c, 9, 36, 0
18, 16679, Note_on_c, 9, 40, 91
18, 16717, Note_on_c, 9, 40, 0
18, 16799, Note_on_c, 9, 36, 56
18, 16845, Note_on_c, 9, 36, 0
18, 16919, Note_on_c, 9, 40, 73
18, 16986, Note_on_c, 9, 40, 0
18, 16999, Note_on_c, 9, 36, 56
18, 17032, Note_on_c, 9, 36, 0
18, 17121, Note_on_c, 9, 36, 52
18, 17130, Note_on_c, 9, 36, 0
18, 17159, Note_on_c, 9, 40, 100
18, 17229, Note_on_c, 9, 40, 0
18, 17238, Note_on_c, 9, 36, 32
18, 17275, Note_on_c, 9, 36, 0
18, 17359, Note_on_c, 9, 36, 44
18, 17374, Note_on_c, 9, 36, 0
18, 17398, Note_on_c, 9, 40, 91
18, 17473, Note_on_c, 9, 40, 0
18, 17478, Note_on_c, 9, 36, 73
18, 17503, Note_on_c, 9, 36, 0
18, 17598, Note_on_c, 9, 36, 56
18, 17626, Note_on_c, 9, 36, 0
18, 17638, Note_on_c, 9, 40, 73
18, 17666, Note_on_c, 9, 40, 0
18, 17677, Note_on_c, 9, 38, 73
18, 17685, Note_on_c, 9, 38, 0
18, 17717, Note_on_c, 9, 36, 60
18, 17791, Note_on_c, 9, 36, 0
18, 17879, Note_on_c, 9, 40, 91
18, 17945, Note_on_c, 9, 40, 0
18, 17959, Note_on_c, 9, 36, 40
18, 17968, Note_on_c, 9, 36, 0
18, 17999, Note_on_c, 9, 36, 26
18, 18017, Note_on_c, 9, 36, 0
18, 18118, Note_on_c, 9, 40, 82
18, 18185, Note_on_c, 9, 40, 0
18, 18239, Note_on_c, 9, 36, 16
18, 18243, Note_on_c, 9, 36, 0
18, 18358, Note_on_c, 9, 40, 73
18, 18407, Note_on_c, 9, 40, 0
18, 18597, Note_on_c, 9, 40, 73
18, 18670, Note_on_c, 9, 40, 0
18, 18677, Note_on_c, 9, 36, 60
18, 18702, Note_on_c, 9, 36, 0
18, 18717, Note_on_c, 9, 36, 56
18, 18726, Note_on_c, 9, 36, 0
18, 18838, Note_on_c, 9, 40, 73
18, 18909, Note_on_c, 9, 40, 0
18, 18919, Note_on_c, 9, 36, 36
18, 18932, Note_on_c, 9, 36, 0
18, 19042, Note_on_c, 9, 36, 16
18, 19042, Note_on_c, 9, 36, 0
18, 19079, Note_on_c, 9, 40, 91
18, 19144, Note_on_c, 9, 40, 0
18, 19281, Note_on_c, 9, 36, 31
18, 19284, Note_on_c, 9, 36, 0
18, 19319, Note_on_c, 9, 40, 82
18, 19388, Note_on_c, 9, 40, 0
18, 19398, Note_on_c, 9, 36, 56
18, 19408, Note_on_c, 9, 36, 0
18, 19439, Note_on_c, 9, 36, 64
18, 19449, Note_on_c, 9, 36, 0
18, 19559, Note_on_c, 9, 40, 91
18, 19611, Note_on_c, 9, 40, 0
18, 19640, Note_on_c, 9, 36, 64
18, 19694, Note_on_c, 9, 36, 0
18, 19799, Note_on_c, 9, 40, 82
18, 19874, Note_on_c, 9, 40, 0
18, 19880, Note_on_c, 9, 36, 52
18, 19894, Note_on_c, 9, 36, 0
18, 19919, Note_on_c, 9, 36, 28
18, 19935, Note_on_c, 9, 36, 0
18, 20039, Note_on_c, 9, 40, 73
18, 20116, Note_on_c, 9, 40, 0
18, 20159, Note_on_c, 9, 36, 30
18, 20175, Note_on_c, 9, 36, 0
18, 20278, Note_on_c, 9, 40, 82
18, 20355, Note_on_c, 9, 40, 0
18, 20361, Note_on_c, 9, 36, 21
18, 20370, Note_on_c, 9, 36, 0
18, 20481, Note_on_c, 9, 36, 52
18, 20517, Note_on_c, 9, 36, 0
18, 20521, Note_on_c, 9, 40, 64
18, 20556, Note_on_c, 9, 40, 0
18, 20559, Note_on_c, 9, 36, 44
18, 20572, Note_on_c, 9, 36, 0
18, 20601, Note_on_c, 9, 36, 16
18, 20603, Note_on_c, 9, 36, 0
18, 20642, Note_on_c, 9, 36, 44
18, 20657, Note_on_c, 9, 36, 0
18, 20759, Note_on_c, 9, 40, 91
18, 20820, Note_on_c, 9, 40, 0
18, 20842, Note_on_c, 9, 36, 16
18, 20848, Note_on_c, 9, 36, 0
18, 20879, Note_on_c, 9, 36, 40
18, 20899, Note_on_c, 9, 36, 0
18, 20998, Note_on_c, 9, 40, 73
18, 21067, Note_on_c, 9, 40, 0
18, 21079, Note_on_c, 9, 36, 44
18, 21088, Note_on_c, 9, 36, 0
18, 21119, Note_on_c, 9, 36, 23
18, 21130, Note_on_c, 9, 36, 0
18, 21202, Note_on_c, 9, 36, 16
18, 21208, Note_on_c, 9, 36, 0
18, 21239, Note_on_c, 9, 40, 91
18, 21314, Note_on_c, 9, 40, 0
18, 21321, Note_on_c, 9, 36, 29
18, 21326, Note_on_c, 9, 36, 0
18, 21359, Note_on_c, 9, 36, 32
18, 21434, Note_on_c, 9, 36, 0
18, 21438, Note_on_c, 9, 40, 91
18, 21479, Note_on_c, 9, 36, 32
18, 21482, Note_on_c, 9, 40, 0
18, 21490, Note_on_c, 9, 36, 0
18, 21559, Note_on_c, 9, 36, 73
18, 21662, Note_on_c, 9, 36, 0
18, 21719, Note_on_c, 9, 40, 91
18, 21785, Note_on_c, 9, 40, 0
18, 21799, Note_on_c, 9, 36, 48
18, 21812, Note_on_c, 9, 36, 0
18, 21839, Note_on_c, 9, 36, 29
18, 21866, Note_on_c, 9, 36, 0
18, 21921, Note_on_c, 9, 36, 31
18, 21928, Note_on_c, 9, 36, 0
18, 21957, Note_on_c, 9, 40, 64
18, 22029, Note_on_c, 9, 40, 0
18, 22038, Note_on_c, 9, 36, 73
18, 22121, Note_on_c, 9, 36, 0
18, 22198, Note_on_c, 9, 40, 82
18, 22279, Note_on_c, 9, 40, 0
18, 22279, Note_on_c, 9, 36, 48
18, 22312, Note_on_c, 9, 36, 0
18, 22402, Note_on_c, 9, 36, 16
18, 22402, Note_on_c, 9, 36, 0
18, 22439, Note_on_c, 9, 40, 91
18, 22474, Note_on_c, 9, 40, 0
18, 22479, Note_on_c, 9, 36, 56
18, 22489, Note_on_c, 9, 36, 0
18, 22518, Note_on_c, 9, 36, 56
18, 22589, Note_on_c, 9, 36, 0
18, 22678, Note_on_c, 9, 40, 91
18, 22744, Note_on_c, 9, 40, 0
18, 22758, Note_on_c, 9, 36, 48
18, 22792, Note_on_c, 9, 36, 0
18, 22878, Note_on_c, 9, 36, 44
18, 22892, Note_on_c, 9, 36, 0
18, 22918, Note_on_c, 9, 40, 91
18, 22990, Note_on_c, 9, 40, 0
18, 22998, Note_on_c, 9, 36, 48
18, 23011, Note_on_c, 9, 36, 0
18, 23037, Note_on_c, 9, 36, 44
18, 23057, Note_on_c, 9, 36, 0
18, 23119, Note_on_c, 9, 36, 44
18, 23157, Note_on_c, 9, 36, 0
18, 23158, Note_on_c, 9, 40, 82
18, 23234, Note_on_c, 9, 40, 0
18, 23238, Note_on_c, 9, 36, 52
18, 23271, Note_on_c, 9, 36, 0
18, 23358, Note_on_c, 9, 36, 44
18, 23387, Note_on_c, 9, 36, 0
18, 23398, Note_on_c, 9, 38, 82
18, 23432, Note_on_c, 9, 38, 0
18, 23438, Note_on_c, 9, 36, 52
18, 23450, Note_on_c, 9, 36, 0
18, 23477, Note_on_c, 9, 36, 44
18, 23490, Note_on_c, 9, 36, 0
18, 23518, Note_on_c, 9, 36, 64
18, 23593, Note_on_c, 9, 36, 0
18, 23639, Note_on_c, 9, 40, 82
18, 23713, Note_on_c, 9, 40, 0
18, 23721, Note_on_c, 9, 36, 16
18, 23722, Note_on_c, 9, 36, 0
18, 23758, Note_on_c, 9, 36, 28
18, 23786, Note_on_c, 9, 36, 0
18, 23839, Note_on_c, 9, 36, 30
18, 23846, Note_on_c, 9, 36, 0
18, 23878, Note_on_c, 9, 40, 82
18, 23941, Note_on_c, 9, 40, 0
18, 23958, Note_on_c, 9, 36, 82
18, 24021, Note_on_c, 9, 36, 0
18, 24079, Note_on_c, 9, 36, 48
18, 24088, Note_on_c, 9, 36, 0
18, 24118, Note_on_c, 9, 38, 73
18, 24193, Note_on_c, 9, 38, 0
18, 24198, Note_on_c, 9, 36, 31
18, 24208, Note_on_c, 9, 36, 0
18, 24238, Note_on_c, 9, 36, 28
18, 24251, Note_on_c, 9, 36, 0
18, 24321, Note_on_c, 9, 36, 48
18, 24328, Note_on_c, 9, 36, 0
18, 24358, Note_on_c, 9, 38, 82
18, 24422, Note_on_c, 9, 38, 0
18, 24439, Note_on_c, 9, 36, 64
18, 24509, Note_on_c, 9, 36, 0
18, 24599, Note_on_c, 9, 40, 73
18, 24669, Note_on_c, 9, 40, 0
18, 24680, Note_on_c, 9, 36, 27
18, 24689, Note_on_c, 9, 36, 0
18, 24838, Note_on_c, 9, 40, 91
18, 24910, Note_on_c, 9, 40, 0
18, 24919, Note_on_c, 9, 36, 29
18, 24926, Note_on_c, 9, 36, 0
18, 24958, Note_on_c, 9, 36, 16
18, 24962, Note_on_c, 9, 36, 0
18, 25078, Note_on_c, 9, 40, 82
18, 25146, Note_on_c, 9, 40, 0
18, 25282, Note_on_c, 9, 36, 21
18, 25290, Note_on_c, 9, 36, 0
18, 25319, Note_on_c, 9, 40, 64
18, 25355, Note_on_c, 9, 40, 0
18, 25361, Note_on_c, 9, 36, 52
18, 25372, Note_on_c, 9, 36, 0
18, 25398, Note_on_c, 9, 36, 48
18, 25410, Note_on_c, 9, 36, 0
18, 25438, Note_on_c, 9, 36, 64
18, 25495, Note_on_c, 9, 36, 0
18, 25561, Note_on_c, 9, 40, 91
18, 25623, Note_on_c, 9, 40, 0
18, 25638, Note_on_c, 9, 36, 52
18, 25657, Note_on_c, 9, 36, 0
18, 25761, Note_on_c, 9, 36, 40
18, 25770, Note_on_c, 9, 36, 0
18, 25799, Note_on_c, 9, 40, 91
18, 25862, Note_on_c, 9, 40, 0
18, 25878, Note_on_c, 9, 36, 44
18, 25894, Note_on_c, 9, 36, 0
18, 25999, Note_on_c, 9, 36, 52
18, 26008, Note_on_c, 9, 36, 0
18, 26039, Note_on_c, 9, 40, 91
18, 26115, Note_on_c, 9, 40, 0
18, 26119, Note_on_c, 9, 36, 28
18, 26127, Note_on_c, 9, 36, 0
18, 26159, Note_on_c, 9, 36, 30
18, 26170, Note_on_c, 9, 36, 0
18, 26238, Note_on_c, 9, 36, 82
18, 26279, Note_on_c, 9, 36, 0
18, 26281, Note_on_c, 9, 40, 91
18, 26304, Note_on_c, 9, 40, 0
18, 26358, Note_on_c, 9, 36, 64
18, 26429, Note_on_c, 9, 36, 0
18, 26520, Note_on_c, 9, 40, 64
18, 26602, Note_on_c, 9, 36, 52
18, 26605, Note_on_c, 9, 40, 0
18, 26622, Note_on_c, 9, 36, 0
18, 26722, Note_on_c, 9, 36, 40
18, 26741, Note_on_c, 9, 36, 0
18, 26760, Note_on_c, 9, 40, 64
18, 26839, Note_on_c, 9, 36, 36
18, 26840, Note_on_c, 9, 40, 0
18, 26851, Note_on_c, 9, 36, 0
18, 26878, Note_on_c, 9, 36, 44
18, 26912, Note_on_c, 9, 36, 0
18, 26998, Note_on_c, 9, 40, 73
18, 27072, Note_on_c, 9, 40, 0
18, 27078, Note_on_c, 9, 36, 48
18, 27097, Note_on_c, 9, 36, 0
18, 27199, Note_on_c, 9, 36, 48
18, 27222, Note_on_c, 9, 36, 0
18, 27238, Note_on_c, 9, 40, 60
18, 27314, Note_on_c, 9, 40, 0
18, 27318, Note_on_c, 9, 36, 52
18, 27361, Note_on_c, 9, 36, 0
18, 27478, Note_on_c, 9, 40, 56
18, 27558, Note_on_c, 9, 36, 60
18, 27559, Note_on_c, 9, 40, 0
18, 27589, Note_on_c, 9, 36, 0
18, 27716, Note_on_c, 9, 40, 48
18, 27798, Note_on_c, 9, 36, 32
18, 27806, Note_on_c, 9, 40, 0
18, 27809, Note_on_c, 9, 36, 0
18, 27838, Note_on_c, 9, 36, 36
18, 27860, Note_on_c, 9, 36, 0
18, 27958, Note_on_c, 9, 40, 73
18, 28039, Note_on_c, 9, 36, 29
18, 28043, Note_on_c, 9, 40, 0
18, 28050, Note_on_c, 9, 36, 0
18, 28078, Note_on_c, 9, 36, 36
18, 28100, Note_on_c, 9, 36, 0
18, 28198, Note_on_c, 9, 40, 64
18, 28278, Note_on_c, 9, 36, 73
18, 28281, Note_on_c, 9, 40, 0
18, 28344, Note_on_c, 9, 36, 0
18, 28439, Note_on_c, 9, 40, 82
18, 28518, Note_on_c, 9, 40, 0
18, 28518, Note_on_c, 9, 36, 48
18, 28550, Note_on_c, 9, 36, 0
18, 28642, Note_on_c, 9, 36, 44
18, 28658, Note_on_c, 9, 36, 0
18, 28678, Note_on_c, 9, 40, 64
18, 28761, Note_on_c, 9, 40, 0
18, 28761, Note_on_c, 9, 36, 16
18, 28763, Note_on_c, 9, 36, 0
18, 28798, Note_on_c, 9, 36, 56
18, 28846, Note_on_c, 9, 36, 0
18, 28879, Note_on_c, 9, 36, 30
18, 28888, Note_on_c, 9, 36, 0
18, 28918, Note_on_c, 9, 40, 64
18, 28998, Note_on_c, 9, 36, 32
18, 28999, Note_on_c, 9, 40, 0
18, 29011, Note_on_c, 9, 36, 0
18, 29036, Note_on_c, 9, 36, 32
18, 29054, Note_on_c, 9, 36, 0
18, 29157, Note_on_c, 9, 40, 73
18, 29237, Note_on_c, 9, 36, 56
18, 29242, Note_on_c, 9, 40, 0
18, 29280, Note_on_c, 9, 36, 0
18, 29361, Note_on_c, 9, 36, 16
18, 29363, Note_on_c, 9, 36, 0
18, 29398, Note_on_c, 9, 40, 60
18, 29478, Note_on_c, 9, 36, 56
18, 29481, Note_on_c, 9, 40, 0
18, 29502, Note_on_c, 9, 36, 0
18, 29638, Note_on_c, 9, 40, 73
18, 29712, Note_on_c, 9, 40, 0
18, 29718, Note_on_c, 9, 36, 56
18, 29738, Note_on_c, 9, 36, 0
18, 29839, Note_on_c, 9, 36, 48
18, 29856, Note_on_c, 9, 36, 0
18, 29878, Note_on_c, 9, 40, 91
18, 29958, Note_on_c, 9, 36, 52
18, 29963, Note_on_c, 9, 40, 0
18, 29974, Note_on_c, 9, 36, 0
18, 30078, Note_on_c, 9, 38, 64
18, 30089, Note_on_c, 9, 38, 0
18, 30118, Note_on_c, 9, 38, 82
18, 30194, Note_on_c, 9, 38, 0
18, 30197, Note_on_c, 9, 36, 64
18, 30269, Note_on_c, 9, 36, 0
18, 30358, Note_on_c, 9, 40, 82
18, 30438, Note_on_c, 9, 36, 48
18, 30439, Note_on_c, 9, 40, 0
18, 30459, Note_on_c, 9, 36, 0
18, 30561, Note_on_c, 9, 36, 52
18, 30584, Note_on_c, 9, 36, 0
18, 30598, Note_on_c, 9, 40, 91
18, 30667, Note_on_c, 9, 40, 0
18, 30679, Note_on_c, 9, 36, 44
18, 30737, Note_on_c, 9, 36, 0
18, 30839, Note_on_c, 9, 40, 82
18, 30921, Note_on_c, 9, 36, 32
18, 30923, Note_on_c, 9, 40, 0
18, 30933, Note_on_c, 9, 36, 0
18, 31041, Note_on_c, 9, 36, 26
18, 31064, Note_on_c, 9, 36, 0
18, 31079, Note_on_c, 9, 40, 82
18, 31119, Note_on_c, 9, 40, 0
18, 31119, Note_on_c, 9, 38, 48
18, 31139, Note_on_c, 9, 38, 0
18, 31159, Note_on_c, 9, 36, 28
18, 31170, Note_on_c, 9, 36, 0
18, 31198, Note_on_c, 9, 36, 44
18, 31245, Note_on_c, 9, 36, 0
18, 31318, Note_on_c, 9, 40, 73
18, 31387, Note_on_c, 9, 40, 0
18, 31398, Note_on_c, 9, 36, 52
18, 31430, Note_on_c, 9, 36, 0
18, 31558, Note_on_c, 9, 40, 73
18, 31638, Note_on_c, 9, 36, 48
18, 31641, Note_on_c, 9, 40, 0
18, 31661, Note_on_c, 9, 36, 0
18, 31762, Note_on_c, 9, 36, 30
18, 31775, Note_on_c, 9, 36, 0
18, 31799, Note_on_c, 9, 40, 73
18, 31878, Note_on_c, 9, 40, 0
18, 31878, Note_on_c, 9, 36, 30
18, 31893, Note_on_c, 9, 36, 0
18, 31918, Note_on_c, 9, 36, 26
18, 31931, Note_on_c, 9, 36, 0
18, 31998, Note_on_c, 9, 40, 48
18, 32008, Note_on_c, 9, 40, 0
18, 32038, Note_on_c, 9, 40, 73
18, 32111, Note_on_c, 9, 40, 0
18, 32117, Note_on_c, 9, 36, 60
18, 32180, Note_on_c, 9, 36, 0
18, 32277, Note_on_c, 9, 40, 82
18, 32373, Note_on_c, 9, 40, 0
18, 32397, Note_on_c, 9, 36, 19
18, 32404, Note_on_c, 9, 36, 0
18, 32478, Note_on_c, 9, 36, 48
18, 32494, Note_on_c, 9, 36, 0
18, 32517, Note_on_c, 9, 40, 91
18, 32593, Note_on_c, 9, 40, 0
18, 32597, Note_on_c, 9, 36, 16
18, 32601, Note_on_c, 9, 36, 0
18, 32636, Note_on_c, 9, 36, 29
18, 32653, Note_on_c, 9, 36, 0
18, 32757, Note_on_c, 9, 40, 91
18, 32839, Note_on_c, 9, 36, 16
18, 32839, Note_on_c, 9, 36, 0
18, 32841, Note_on_c, 9, 40, 0
18, 32877, Note_on_c, 9, 36, 40
18, 32893, Note_on_c, 9, 36, 0
18, 32959, Note_on_c, 9, 36, 32
18, 32984, Note_on_c, 9, 36, 0
18, 32998, Note_on_c, 9, 38, 91
18, 33039, Note_on_c, 9, 36, 48
18, 33047, Note_on_c, 9, 38, 0
18, 33053, Note_on_c, 9, 36, 0
18, 33078, Note_on_c, 9, 36, 48
18, 33095, Note_on_c, 9, 36, 0
18, 33117, Note_on_c, 9, 36, 56
18, 33146, Note_on_c, 9, 36, 0
18, 33238, Note_on_c, 9, 40, 91
18, 33312, Note_on_c, 9, 40, 0
18, 33318, Note_on_c, 9, 36, 36
18, 33342, Note_on_c, 9, 36, 0
18, 33438, Note_on_c, 9, 36, 36
18, 33443, Note_on_c, 9, 38, 60
18, 33462, Note_on_c, 9, 38, 0
18, 33472, Note_on_c, 9, 36, 0
18, 33479, Note_on_c, 9, 40, 60
18, 33543, Note_on_c, 9, 40, 0
18, 33598, Note_on_c, 9, 36, 27
18, 33618, Note_on_c, 9, 36, 0
18, 33718, Note_on_c, 9, 40, 82
18, 33799, Note_on_c, 9, 36, 16
18, 33801, Note_on_c, 9, 36, 0
18, 33801, Note_on_c, 9, 40, 0
18, 33838, Note_on_c, 9, 36, 30
18, 33860, Note_on_c, 9, 36, 0
18, 33918, Note_on_c, 9, 40, 60
18, 33940, Note_on_c, 9, 40, 0
18, 33958, Note_on_c, 9, 40, 60
18, 33998, Note_on_c, 9, 40, 0
18, 33999, Note_on_c, 9, 38, 29
18, 34017, Note_on_c, 9, 38, 0
18, 34037, Note_on_c, 9, 36, 52
18, 34054, Note_on_c, 9, 36, 0
18, 34078, Note_on_c, 9, 36, 48
18, 34103, Note_on_c, 9, 36, 0
18, 34198, Note_on_c, 9, 40, 73
18, 34274, Note_on_c, 9, 40, 0
18, 34278, Note_on_c, 9, 36, 32
18, 34295, Note_on_c, 9, 36, 0
18, 34400, Note_on_c, 9, 36, 36
18, 34409, Note_on_c, 9, 36, 0
18, 34438, Note_on_c, 9, 40, 73
18, 34519, Note_on_c, 9, 36, 30
18, 34522, Note_on_c, 9, 40, 0
18, 34532, Note_on_c, 9, 36, 0
18, 34641, Note_on_c, 9, 36, 30
18, 34650, Note_on_c, 9, 36, 0
18, 34678, Note_on_c, 9, 40, 73
18, 34758, Note_on_c, 9, 36, 48
18, 34762, Note_on_c, 9, 40, 0
18, 34767, Note_on_c, 9, 36, 0
18, 34881, Note_on_c, 9, 36, 16
18, 34884, Note_on_c, 9, 36, 0
18, 34917, Note_on_c, 9, 40, 64
18, 34998, Note_on_c, 9, 36, 82
18, 35002, Note_on_c, 9, 40, 0
18, 35089, Note_on_c, 9, 36, 0
18, 35161, Note_on_c, 9, 40, 64
18, 35239, Note_on_c, 9, 40, 0
18, 35241, Note_on_c, 9, 36, 56
18, 35272, Note_on_c, 9, 36, 0
18, 35399, Note_on_c, 9, 40, 64
18, 35480, Note_on_c, 9, 40, 0
18, 35519, Note_on_c, 9, 36, 60
18, 35589, Note_on_c, 9, 36, 0
18, 35641, Note_on_c, 9, 40, 64
18, 35719, Note_on_c, 9, 40, 0
18, 35721, Note_on_c, 9, 36, 48
18, 35742, Note_on_c, 9, 36, 0
18, 35882, Note_on_c, 9, 40, 82
18, 35922, Note_on_c, 9, 40, 0
18, 35922, Note_on_c, 9, 36, 31
18, 35932, Note_on_c, 9, 36, 0
18, 35960, Note_on_c, 9, 36, 40
18, 35971, Note_on_c, 9, 36, 0
18, 36000, Note_on_c, 9, 36, 52
18, 36027, Note_on_c, 9, 36, 0
18, 36120, Note_on_c, 9, 40, 73
18, 36194, Note_on_c, 9, 40, 0
18, 36200, Note_on_c, 9, 36, 44
18, 36216, Note_on_c, 9, 36, 0
18, 36322, Note_on_c, 9, 36, 16
18, 36322, Note_on_c, 9, 36, 0
18, 36359, Note_on_c, 9, 40, 73
18, 36397, Note_on_c, 9, 40, 0
18, 36398, Note_on_c, 9, 36, 73
18, 36427, Note_on_c, 9, 36, 0
18, 36482, Note_on_c, 9, 36, 31
18, 36498, Note_on_c, 9, 36, 0
18, 36601, Note_on_c, 9, 40, 64
18, 36677, Note_on_c, 9, 40, 0
18, 36681, Note_on_c, 9, 36, 36
18, 36694, Note_on_c, 9, 36, 0
18, 36801, Note_on_c, 9, 36, 60
18, 36817, Note_on_c, 9, 36, 0
18, 36839, Note_on_c, 9, 36, 30
18, 36842, Note_on_c, 9, 40, 48
18, 36846, Note_on_c, 9, 36, 0
18, 36916, Note_on_c, 9, 40, 0
18, 36959, Note_on_c, 9, 36, 56
18, 37001, Note_on_c, 9, 36, 0
18, 37079, Note_on_c, 9, 40, 82
18, 37149, Note_on_c, 9, 40, 0
18, 37159, Note_on_c, 9, 36, 30
18, 37174, Note_on_c, 9, 36, 0
18, 37281, Note_on_c, 9, 36, 29
18, 37290, Note_on_c, 9, 36, 0
18, 37318, Note_on_c, 9, 40, 73
18, 37388, Note_on_c, 9, 40, 0
18, 37559, Note_on_c, 9, 40, 64
18, 37640, Note_on_c, 9, 36, 40
18, 37641, Note_on_c, 9, 40, 0
18, 37664, Note_on_c, 9, 36, 0
18, 37762, Note_on_c, 9, 36, 24
18, 37775, Note_on_c, 9, 36, 0
18, 37799, Note_on_c, 9, 40, 73
18, 37878, Note_on_c, 9, 40, 0
18, 37878, Note_on_c, 9, 36, 27
18, 37891, Note_on_c, 9, 36, 0
18, 37918, Note_on_c, 9, 36, 44
18, 37967, Note_on_c, 9, 36, 0
18, 38037, Note_on_c, 9, 40, 64
18, 38055, Note_on_c, 9, 40, 0
18, 38122, Note_on_c, 9, 36, 31
18, 38160, Note_on_c, 9, 36, 0
18, 38245, Note_on_c, 9, 36, 16
18, 38249, Note_on_c, 9, 36, 0
18, 38280, Note_on_c, 9, 40, 73
18, 38356, Note_on_c, 9, 40, 0
18, 38519, Note_on_c, 9, 40, 60
18, 38596, Note_on_c, 9, 40, 0
18, 38598, Note_on_c, 9, 36, 27
18, 38609, Note_on_c, 9, 36, 0
18, 38756, Note_on_c, 9, 40, 60
18, 38842, Note_on_c, 9, 36, 16
18, 38844, Note_on_c, 9, 40, 0
18, 38845, Note_on_c, 9, 36, 0
18, 38877, Note_on_c, 9, 36, 32
18, 38934, Note_on_c, 9, 36, 0
18, 38998, Note_on_c, 9, 40, 82
18, 39078, Note_on_c, 9, 40, 0
18, 39078, Note_on_c, 9, 36, 48
18, 39114, Note_on_c, 9, 36, 0
18, 39201, Note_on_c, 9, 36, 40
18, 39228, Note_on_c, 9, 36, 0
18, 39239, Note_on_c, 9, 40, 73
18, 39281, Note_on_c, 9, 36, 44
18, 39286, Note_on_c, 9, 40, 0
18, 39298, Note_on_c, 9, 36, 0
18, 39319, Note_on_c, 9, 36, 48
18, 39334, Note_on_c, 9, 36, 0
18, 39360, Note_on_c, 9, 36, 48
18, 39387, Note_on_c, 9, 36, 0
18, 39480, Note_on_c, 9, 40, 64
18, 39558, Note_on_c, 9, 40, 0
18, 39560, Note_on_c, 9, 36, 48
18, 39585, Note_on_c, 9, 36, 0
18, 39719, Note_on_c, 9, 40, 64
18, 39796, Note_on_c, 9, 40, 0
18, 39798, Note_on_c, 9, 36, 40
18, 39811, Note_on_c, 9, 36, 0
18, 39836, Note_on_c, 9, 36, 44
18, 39860, Note_on_c, 9, 36, 0
18, 39955, Note_on_c, 9, 40, 82
18, 40022, Note_on_c, 9, 40, 0
18, 40036, Note_on_c, 9, 36, 48
18, 40069, Note_on_c, 9, 36, 0
18, 40163, Note_on_c, 9, 36, 16
18, 40169, Note_on_c, 9, 36, 0
18, 40198, Note_on_c, 9, 40, 64
18, 40278, Note_on_c, 9, 36, 44
18, 40279, Note_on_c, 9, 40, 0
18, 40290, Note_on_c, 9, 36, 0
18, 40316, Note_on_c, 9, 36, 40
18, 40341, Note_on_c, 9, 36, 0
18, 40438, Note_on_c, 9, 40, 73
18, 40510, Note_on_c, 9, 40, 0
18, 40516, Note_on_c, 9, 36, 52
18, 40558, Note_on_c, 9, 36, 0
18, 40642, Note_on_c, 9, 36, 16
18, 40642, Note_on_c, 9, 36, 0
18, 40676, Note_on_c, 9, 40, 64
18, 40757, Note_on_c, 9, 36, 30
18, 40764, Note_on_c, 9, 40, 0
18, 40769, Note_on_c, 9, 36, 0
18, 40795, Note_on_c, 9, 36, 56
18, 40845, Note_on_c, 9, 36, 0
18, 40915, Note_on_c, 9, 40, 91
18, 40989, Note_on_c, 9, 40, 0
18, 40996, Note_on_c, 9, 36, 44
18, 41012, Note_on_c, 9, 36, 0
18, 41036, Note_on_c, 9, 36, 48
18, 41068, Note_on_c, 9, 36, 0
18, 41157, Note_on_c, 9, 40, 91
18, 41229, Note_on_c, 9, 40, 0
18, 41239, Note_on_c, 9, 36, 40
18, 41252, Note_on_c, 9, 36, 0
18, 41276, Note_on_c, 9, 36, 48
18, 41309, Note_on_c, 9, 36, 0
18, 41398, Note_on_c, 9, 40, 91
18, 41475, Note_on_c, 9, 40, 0
18, 41478, Note_on_c, 9, 36, 36
18, 41493, Note_on_c, 9, 36, 0
18, 41598, Note_on_c, 9, 36, 48
18, 41632, Note_on_c, 9, 36, 0
18, 41637, Note_on_c, 9, 40, 91
18, 41677, Note_on_c, 9, 40, 0
18, 41682, Note_on_c, 9, 38, 16
18, 41687, Note_on_c, 9, 38, 0
18, 41718, Note_on_c, 9, 36, 44
18, 41733, Note_on_c, 9, 36, 0
18, 41757, Note_on_c, 9, 36, 48
18, 41790, Note_on_c, 9, 36, 0
18, 41881, Note_on_c, 9, 40, 82
18, 41952, Note_on_c, 9, 40, 0
18, 41959, Note_on_c, 9, 36, 48
18, 41982, Note_on_c, 9, 36, 0
18, 42083, Note_on_c, 9, 36, 60
18, 42110, Note_on_c, 9, 36, 0
18, 42123, Note_on_c, 9, 40, 91
18, 42197, Note_on_c, 9, 40, 0
18, 42201, Note_on_c, 9, 36, 56
18, 42222, Note_on_c, 9, 36, 0
18, 42323, Note_on_c, 9, 36, 56
18, 42344, Note_on_c, 9, 36, 0
18, 42359, Note_on_c, 9, 40, 100
18, 42441, Note_on_c, 9, 36, 40
18, 42442, Note_on_c, 9, 40, 0
18, 42450, Note_on_c, 9, 36, 0
18, 42478, Note_on_c, 9, 36, 60
18, 42495, Note_on_c, 9, 36, 0
18, 42563, Note_on_c, 9, 36, 64
18, 42593, Note_on_c, 9, 36, 0
18, 42602, Note_on_c, 9, 40, 82
18, 42634, Note_on_c, 9, 40, 0
18, 42644, Note_on_c, 9, 36, 40
18, 42655, Note_on_c, 9, 36, 0
18, 42681, Note_on_c, 9, 36, 60
18, 42696, Note_on_c, 9, 36, 0
18, 42723, Note_on_c, 9, 36, 91
18, 42789, Note_on_c, 9, 36, 0
18, 42842, Note_on_c, 9, 40, 82
18, 42912, Note_on_c, 9, 40, 0
18, 42918, Note_on_c, 9, 36, 29
18, 42931, Note_on_c, 9, 36, 0
18, 42958, Note_on_c, 9, 36, 48
18, 42976, Note_on_c, 9, 36, 0
18, 43040, Note_on_c, 9, 36, 40
18, 43061, Note_on_c, 9, 36, 0
18, 43078, Note_on_c, 9, 40, 100
18, 43154, Note_on_c, 9, 40, 0
18, 43157, Note_on_c, 9, 36, 52
18, 43175, Note_on_c, 9, 36, 0
18, 43200, Note_on_c, 9, 36, 48
18, 43225, Note_on_c, 9, 36, 0
18, 43282, Note_on_c, 9, 36, 52
18, 43307, Note_on_c, 9, 36, 0
18, 43322, Note_on_c, 9, 40, 91
18, 43362, Note_on_c, 9, 40, 0
18, 43362, Note_on_c, 9, 36, 56
18, 43378, Note_on_c, 9, 36, 0
18, 43402, Note_on_c, 9, 36, 56
18, 43416, Note_on_c, 9, 36, 0
18, 43440, Note_on_c, 9, 36, 48
18, 43464, Note_on_c, 9, 36, 0
18, 43483, Note_on_c, 9, 36, 52
18, 43501, Note_on_c, 9, 36, 0
18, 43520, Note_on_c, 9, 36, 64
18, 43538, Note_on_c, 9, 36, 0
18, 43558, Note_on_c, 9, 40, 73
18, 43596, Note_on_c, 9, 40, 0
18, 43596, Note_on_c, 9, 36, 48
18, 43613, Note_on_c, 9, 36, 0
18, 43636, Note_on_c, 9, 36, 64
18, 43649, Note_on_c, 9, 36, 0
18, 43677, Note_on_c, 9, 36, 82
18, 43720, Note_on_c, 9, 36, 0
18, 43800, Note_on_c, 9, 36, 56
18, 43801, Note_on_c, 9, 38, 73
18, 43833, Note_on_c, 9, 38, 0
18, 43836, Note_on_c, 9, 36, 0
18, 43922, Note_on_c, 9, 36, 32
18, 43951, Note_on_c, 9, 36, 0
18, 44038, Note_on_c, 9, 40, 82
18, 44039, Note_on_c, 9, 38, 60
18, 44087, Note_on_c, 9, 40, 0
18, 44119, Note_on_c, 9, 36, 32
18, 44120, Note_on_c, 9, 38, 0
18, 44130, Note_on_c, 9, 36, 0
18, 44156, Note_on_c, 9, 36, 52
18, 44221, Note_on_c, 9, 36, 0
18, 44276, Note_on_c, 9, 40, 64
18, 44351, Note_on_c, 9, 40, 0
18, 44358, Note_on_c, 9, 36, 27
18, 44365, Note_on_c, 9, 36, 0
18, 44396, Note_on_c, 9, 36, 32
18, 44410, Note_on_c, 9, 36, 0
18, 44479, Note_on_c, 9, 36, 64
18, 44505, Note_on_c, 9, 36, 0
18, 44519, Note_on_c, 9, 40, 82
18, 44559, Note_on_c, 9, 40, 0
18, 44596, Note_on_c, 9, 40, 73
18, 44638, Note_on_c, 9, 40, 0
18, 44755, Note_on_c, 9, 40, 73
18, 44837, Note_on_c, 9, 36, 32
18, 44840, Note_on_c, 9, 40, 0
18, 44848, Note_on_c, 9, 36, 0
18, 44875, Note_on_c, 9, 36, 44
18, 44906, Note_on_c, 9, 36, 0
18, 44999, Note_on_c, 9, 40, 91
18, 45071, Note_on_c, 9, 40, 0
18, 45078, Note_on_c, 9, 36, 40
18, 45089, Note_on_c, 9, 36, 0
18, 45116, Note_on_c, 9, 36, 48
18, 45142, Note_on_c, 9, 36, 0
18, 45205, Note_on_c, 9, 36, 16
18, 45209, Note_on_c, 9, 36, 0
18, 45242, Note_on_c, 9, 40, 73
18, 45321, Note_on_c, 9, 36, 40
18, 45322, Note_on_c, 9, 40, 0
18, 45332, Note_on_c, 9, 36, 0
18, 45358, Note_on_c, 9, 36, 56
18, 45378, Note_on_c, 9, 36, 0
18, 45442, Note_on_c, 9, 36, 21
18, 45456, Note_on_c, 9, 36, 0
18, 45480, Note_on_c, 9, 40, 91
18, 45518, Note_on_c, 9, 38, 60
18, 45521, Note_on_c, 9, 40, 0
18, 45539, Note_on_c, 9, 38, 0
18, 45558, Note_on_c, 9, 36, 64
18, 45647, Note_on_c, 9, 36, 0
18, 45719, Note_on_c, 9, 40, 91
18, 45793, Note_on_c, 9, 40, 0
18, 45798, Note_on_c, 9, 36, 32
18, 45811, Note_on_c, 9, 36, 0
18, 45835, Note_on_c, 9, 36, 44
18, 45873, Note_on_c, 9, 36, 0
18, 45959, Note_on_c, 9, 40, 82
18, 46031, Note_on_c, 9, 40, 0
18, 46042, Note_on_c, 9, 36, 31
18, 46055, Note_on_c, 9, 36, 0
18, 46077, Note_on_c, 9, 36, 56
18, 46128, Note_on_c, 9, 36, 0
18, 46197, Note_on_c, 9, 40, 91
18, 46267, Note_on_c, 9, 40, 0
18, 46278, Note_on_c, 9, 36, 31
18, 46290, Note_on_c, 9, 36, 0
18, 46315, Note_on_c, 9, 36, 52
18, 46342, Note_on_c, 9, 36, 0
18, 46402, Note_on_c, 9, 36, 30
18, 46418, Note_on_c, 9, 36, 0
18, 46439, Note_on_c, 9, 40, 91
18, 46482, Note_on_c, 9, 36, 40
18, 46483, Note_on_c, 9, 40, 0
18, 46493, Note_on_c, 9, 36, 0
18, 46519, Note_on_c, 9, 36, 48
18, 46530, Note_on_c, 9, 36, 0
18, 46557, Note_on_c, 9, 36, 73
18, 46622, Note_on_c, 9, 36, 0
18, 46676, Note_on_c, 9, 40, 73
18, 46745, Note_on_c, 9, 40, 0
18, 46758, Note_on_c, 9, 36, 40
18, 46773, Note_on_c, 9, 36, 0
18, 46796, Note_on_c, 9, 36, 44
18, 46827, Note_on_c, 9, 36, 0
18, 46881, Note_on_c, 9, 36, 31
18, 46889, Note_on_c, 9, 36, 0
18, 46919, Note_on_c, 9, 40, 91
18, 46996, Note_on_c, 9, 40, 0
18, 46998, Note_on_c, 9, 36, 36
18, 47009, Note_on_c, 9, 36, 0
18, 47039, Note_on_c, 9, 36, 36
18, 47058, Note_on_c, 9, 36, 0
18, 47121, Note_on_c, 9, 36, 48
18, 47137, Note_on_c, 9, 36, 0
18, 47158, Note_on_c, 9, 40, 91
18, 47237, Note_on_c, 9, 36, 40
18, 47243, Note_on_c, 9, 40, 0
18, 47252, Note_on_c, 9, 36, 0
18, 47278, Note_on_c, 9, 36, 48
18, 47341, Note_on_c, 9, 36, 0
18, 47358, Note_on_c, 9, 38, 82
18, 47398, Note_on_c, 9, 36, 52
18, 47409, Note_on_c, 9, 38, 0
18, 47420, Note_on_c, 9, 36, 0
18, 47481, Note_on_c, 9, 36, 73
18, 47576, Note_on_c, 9, 36, 0
18, 47639, Note_on_c, 9, 40, 73
18, 47710, Note_on_c, 9, 40, 0
18, 47757, Note_on_c, 9, 36, 40
18, 47773, Note_on_c, 9, 36, 0
18, 47842, Note_on_c, 9, 36, 56
18, 47860, Note_on_c, 9, 36, 0
18, 47879, Note_on_c, 9, 40, 100
18, 47915, Note_on_c, 9, 40, 0
18, 47921, Note_on_c, 9, 38, 32
18, 47932, Note_on_c, 9, 38, 0
18, 47958, Note_on_c, 9, 36, 48
18, 47971, Note_on_c, 9, 36, 0
18, 47995, Note_on_c, 9, 36, 56
18, 48024, Note_on_c, 9, 36, 0
18, 48119, Note_on_c, 9, 40, 73
18, 48195, Note_on_c, 9, 40, 0
18, 48237, Note_on_c, 9, 36, 44
18, 48255, Note_on_c, 9, 36, 0
18, 48321, Note_on_c, 9, 36, 48
18, 48343, Note_on_c, 9, 36, 0
18, 48358, Note_on_c, 9, 40, 91
18, 48398, Note_on_c, 9, 40, 0
18, 48402, Note_on_c, 9, 38, 16
18, 48406, Note_on_c, 9, 38, 0
18, 48444, Note_on_c, 9, 36, 73
18, 48522, Note_on_c, 9, 36, 0
18, 48598, Note_on_c, 9, 40, 91
18, 48666, Note_on_c, 9, 40, 0
18, 48677, Note_on_c, 9, 36, 60
18, 48702, Note_on_c, 9, 36, 0
18, 48798, Note_on_c, 9, 36, 73
18, 48831, Note_on_c, 9, 36, 0
18, 48839, Note_on_c, 9, 40, 91
18, 48905, Note_on_c, 9, 40, 0
18, 48917, Note_on_c, 9, 36, 60
18, 48948, Note_on_c, 9, 36, 0
18, 49037, Note_on_c, 9, 36, 52
18, 49045, Note_on_c, 9, 36, 0
18, 49076, Note_on_c, 9, 40, 91
18, 49152, Note_on_c, 9, 40, 0
18, 49155, Note_on_c, 9, 36, 64
18, 49187, Note_on_c, 9, 36, 0
18, 49276, Note_on_c, 9, 36, 64
18, 49308, Note_on_c, 9, 36, 0
18, 49315, Note_on_c, 9, 40, 91
18, 49375, Note_on_c, 9, 40, 0
18, 49434, Note_on_c, 9, 36, 73
18, 49491, Note_on_c, 9, 36, 0
18, 49557, Note_on_c, 9, 40, 91
18, 49638, Note_on_c, 9, 40, 0
18, 49641, Note_on_c, 9, 36, 16
18, 49643, Note_on_c, 9, 36, 0
18, 49676, Note_on_c, 9, 36, 60
18, 49705, Note_on_c, 9, 36, 0
18, 49718, Note_on_c, 9, 36, 31
18, 49741, Note_on_c, 9, 36, 0
18, 49795, Note_on_c, 9, 40, 91
18, 49860, Note_on_c, 9, 40, 0
18, 49875, Note_on_c, 9, 36, 91
18, 49934, Note_on_c, 9, 36, 0
18, 49997, Note_on_c, 9, 36, 40
18, 50006, Note_on_c, 9, 36, 0
18, 50035, Note_on_c, 9, 40, 91
18, 50114, Note_on_c, 9, 40, 0
18, 50114, Note_on_c, 9, 36, 32
18, 50128, Note_on_c, 9, 36, 0
18, 50157, Note_on_c, 9, 36, 16
18, 50159, Note_on_c, 9, 36, 0
18, 50238, Note_on_c, 9, 36, 73
18, 50258, Note_on_c, 9, 36, 0
18, 50277, Note_on_c, 9, 40, 91
18, 50345, Note_on_c, 9, 40, 0
18, 50355, Note_on_c, 9, 36, 91
18, 50436, Note_on_c, 9, 36, 0
18, 50517, Note_on_c, 9, 40, 91
18, 50593, Note_on_c, 9, 40, 0
18, 50598, Note_on_c, 9, 36, 56
18, 50622, Note_on_c, 9, 36, 0
18, 50722, Note_on_c, 9, 36, 52
18, 50732, Note_on_c, 9, 36, 0
18, 50760, Note_on_c, 9, 40, 91
18, 50833, Note_on_c, 9, 40, 0
18, 50839, Note_on_c, 9, 36, 64
18, 50871, Note_on_c, 9, 36, 0
18, 50961, Note_on_c, 9, 36, 82
18, 50984, Note_on_c, 9, 36, 0
18, 51000, Note_on_c, 9, 40, 100
18, 51073, Note_on_c, 9, 40, 0
18, 51078, Note_on_c, 9, 36, 82
18, 51098, Note_on_c, 9, 36, 0
18, 51199, Note_on_c, 9, 36, 52
18, 51231, Note_on_c, 9, 36, 0
18, 51238, Note_on_c, 9, 40, 91
18, 51278, Note_on_c, 9, 38, 48
18, 51283, Note_on_c, 9, 40, 0
18, 51295, Note_on_c, 9, 38, 0
18, 51315, Note_on_c, 9, 36, 64
18, 51330, Note_on_c, 9, 36, 0
18, 51356, Note_on_c, 9, 36, 82
18, 51420, Note_on_c, 9, 36, 0
18, 51477, Note_on_c, 9, 40, 91
18, 51551, Note_on_c, 9, 40, 0
18, 51556, Note_on_c, 9, 36, 40
18, 51569, Note_on_c, 9, 36, 0
18, 51595, Note_on_c, 9, 36, 40
18, 51621, Note_on_c, 9, 36, 0
18, 51679, Note_on_c, 9, 36, 36
18, 51688, Note_on_c, 9, 36, 0
18, 51717, Note_on_c, 9, 40, 91
18, 51789, Note_on_c, 9, 40, 0
18, 51797, Note_on_c, 9, 36, 91
18, 51859, Note_on_c, 9, 36, 0
18, 51958, Note_on_c, 9, 40, 82
18, 52033, Note_on_c, 9, 40, 0
18, 52038, Note_on_c, 9, 36, 31
18, 52052, Note_on_c, 9, 36, 0
18, 52082, Note_on_c, 9, 36, 16
18, 52088, Note_on_c, 9, 36, 0
18, 52159, Note_on_c, 9, 36, 44
18, 52174, Note_on_c, 9, 36, 0
18, 52198, Note_on_c, 9, 40, 82
18, 52275, Note_on_c, 9, 40, 0
18, 52278, Note_on_c, 9, 36, 60
18, 52325, Note_on_c, 9, 36, 0
18, 52440, Note_on_c, 9, 40, 91
18, 52516, Note_on_c, 9, 40, 0
18, 52521, Note_on_c, 9, 36, 48
18, 52535, Note_on_c, 9, 36, 0
18, 52608, Note_on_c, 9, 36, 36
18, 52633, Note_on_c, 9, 36, 0
18, 52643, Note_on_c, 9, 38, 44
18, 52660, Note_on_c, 9, 38, 0
18, 52681, Note_on_c, 9, 40, 100
18, 52751, Note_on_c, 9, 40, 0
18, 52760, Note_on_c, 9, 36, 44
18, 52776, Note_on_c, 9, 36, 0
18, 52799, Note_on_c, 9, 36, 52
18, 52828, Note_on_c, 9, 36, 0
18, 52918, Note_on_c, 9, 40, 91
18, 52997, Note_on_c, 9, 40, 0
18, 52999, Note_on_c, 9, 36, 32
18, 53012, Note_on_c, 9, 36, 0
18, 53119, Note_on_c, 9, 36, 44
18, 53139, Note_on_c, 9, 36, 0
18, 53158, Note_on_c, 9, 40, 82
18, 53198, Note_on_c, 9, 40, 0
18, 53199, Note_on_c, 9, 38, 26
18, 53212, Note_on_c, 9, 38, 0
18, 53236, Note_on_c, 9, 36, 48
18, 53245, Note_on_c, 9, 36, 0
18, 53276, Note_on_c, 9, 36, 64
18, 53345, Note_on_c, 9, 36, 0
18, 53396, Note_on_c, 9, 40, 91
18, 53462, Note_on_c, 9, 40, 0
18, 53472, Note_on_c, 9, 36, 56
18, 53494, Note_on_c, 9, 36, 0
18, 53594, Note_on_c, 9, 36, 40
18, 53605, Note_on_c, 9, 36, 0
18, 53634, Note_on_c, 9, 40, 100
18, 53714, Note_on_c, 9, 36, 32
18, 53717, Note_on_c, 9, 40, 0
18, 53727, Note_on_c, 9, 36, 0
18, 53756, Note_on_c, 9, 36, 36
18, 53784, Note_on_c, 9, 36, 0
18, 53837, Note_on_c, 9, 40, 73
18, 53856, Note_on_c, 9, 40, 0
18, 53875, Note_on_c, 9, 40, 64
18, 53953, Note_on_c, 9, 36, 26
18, 53963, Note_on_c, 9, 36, 0
18, 53992, Note_on_c, 9, 36, 48
18, 54028, Note_on_c, 9, 36, 0
18, 54034, Note_on_c, 9, 40, 0
18, 54037, Note_on_c, 9, 36, 16
18, 54039, Note_on_c, 9, 36, 0
18, 54074, Note_on_c, 9, 38, 91
18, 54113, Note_on_c, 9, 36, 56
18, 54119, Note_on_c, 9, 38, 0
18, 54131, Note_on_c, 9, 36, 0
18, 54238, Note_on_c, 9, 36, 91
18, 54303, Note_on_c, 9, 36, 0
18, 54358, Note_on_c, 9, 40, 73
18, 54439, Note_on_c, 9, 40, 0
18, 54440, Note_on_c, 9, 36, 31
18, 54451, Note_on_c, 9, 36, 0
18, 54479, Note_on_c, 9, 36, 32
18, 54492, Note_on_c, 9, 36, 0
18, 54598, Note_on_c, 9, 40, 91
18, 54666, Note_on_c, 9, 40, 0
18, 54677, Note_on_c, 9, 36, 64
18, 54728, Note_on_c, 9, 36, 0
18, 54802, Note_on_c, 9, 36, 48
18, 54810, Note_on_c, 9, 36, 0
18, 54839, Note_on_c, 9, 40, 91
18, 54920, Note_on_c, 9, 36, 52
18, 54924, Note_on_c, 9, 40, 0
18, 54931, Note_on_c, 9, 36, 0
18, 54960, Note_on_c, 9, 36, 64
18, 54983, Note_on_c, 9, 36, 0
18, 55042, Note_on_c, 9, 36, 44
18, 55050, Note_on_c, 9, 36, 0
18, 55080, Note_on_c, 9, 40, 91
18, 55145, Note_on_c, 9, 40, 0
18, 55198, Note_on_c, 9, 36, 64
18, 55241, Note_on_c, 9, 36, 0
18, 55318, Note_on_c, 9, 40, 82
18, 55397, Note_on_c, 9, 40, 0
18, 55399, Note_on_c, 9, 36, 64
18, 55424, Note_on_c, 9, 36, 0
18, 55559, Note_on_c, 9, 40, 64
18, 55635, Note_on_c, 9, 40, 0
18, 55644, Note_on_c, 9, 36, 16
18, 55646, Note_on_c, 9, 36, 0
18, 55678, Note_on_c, 9, 36, 60
18, 55713, Note_on_c, 9, 36, 0
18, 55760, Note_on_c, 9, 40, 52
18, 55769, Note_on_c, 9, 40, 0
18, 55799, Note_on_c, 9, 40, 73
18, 55877, Note_on_c, 9, 40, 0
18, 55878, Note_on_c, 9, 36, 56
18, 55898, Note_on_c, 9, 36, 0
18, 55997, Note_on_c, 9, 36, 56
18, 56012, Note_on_c, 9, 36, 0
18, 56037, Note_on_c, 9, 40, 91
18, 56075, Note_on_c, 9, 40, 0
18, 56078, Note_on_c, 9, 36, 48
18, 56089, Note_on_c, 9, 36, 0
18, 56117, Note_on_c, 9, 36, 60
18, 56126, Note_on_c, 9, 36, 0
18, 56156, Note_on_c, 9, 36, 91
18, 56194, Note_on_c, 9, 36, 0
18, 56276, Note_on_c, 9, 40, 91
18, 56350, Note_on_c, 9, 40, 0
18, 56356, Note_on_c, 9, 36, 60
18, 56370, Note_on_c, 9, 36, 0
18, 56480, Note_on_c, 9, 36, 91
18, 56514, Note_on_c, 9, 36, 0
18, 56519, Note_on_c, 9, 40, 64
18, 56584, Note_on_c, 9, 40, 0
18, 56638, Note_on_c, 9, 36, 48
18, 56647, Note_on_c, 9, 36, 0
18, 56718, Note_on_c, 9, 36, 73
18, 56747, Note_on_c, 9, 36, 0
18, 56757, Note_on_c, 9, 40, 100
18, 56836, Note_on_c, 9, 40, 0
18, 56836, Note_on_c, 9, 36, 48
18, 56843, Note_on_c, 9, 36, 0
18, 56875, Note_on_c, 9, 36, 64
18, 56886, Note_on_c, 9, 36, 0
18, 56956, Note_on_c, 9, 36, 82
18, 56971, Note_on_c, 9, 36, 0
18, 56995, Note_on_c, 9, 38, 100
18, 57043, Note_on_c, 9, 38, 0
18, 57118, Note_on_c, 9, 36, 82
18, 57179, Note_on_c, 9, 36, 0
18, 57237, Note_on_c, 9, 40, 100
18, 57316, Note_on_c, 9, 40, 0
18, 57323, Note_on_c, 9, 36, 16
18, 57323, Note_on_c, 9, 36, 0
18, 57360, Note_on_c, 9, 36, 44
18, 57370, Note_on_c, 9, 36, 0
18, 57438, Note_on_c, 9, 36, 60
18, 57451, Note_on_c, 9, 36, 0
18, 57477, Note_on_c, 9, 40, 82
18, 57549, Note_on_c, 9, 40, 0
18, 57557, Note_on_c, 9, 36, 91
18, 57603, Note_on_c, 9, 36, 0
18, 57716, Note_on_c, 9, 40, 82
18, 57798, Note_on_c, 9, 36, 56
18, 57799, Note_on_c, 9, 40, 0
18, 57808, Note_on_c, 9, 36, 0
18, 57839, Note_on_c, 9, 36, 48
18, 57848, Note_on_c, 9, 36, 0
18, 57922, Note_on_c, 9, 36, 56
18, 57931, Note_on_c, 9, 36, 0
18, 57961, Note_on_c, 9, 40, 91
18, 58037, Note_on_c, 9, 40, 0
18, 58039, Note_on_c, 9, 36, 56
18, 58049, Note_on_c, 9, 36, 0
18, 58163, Note_on_c, 9, 36, 29
18, 58169, Note_on_c, 9, 36, 0
18, 58198, Note_on_c, 9, 40, 82
18, 58279, Note_on_c, 9, 40, 0
18, 58281, Note_on_c, 9, 36, 52
18, 58294, Note_on_c, 9, 36, 0
18, 58403, Note_on_c, 9, 36, 44
18, 58409, Note_on_c, 9, 36, 0
18, 58439, Note_on_c, 9, 40, 73
18, 58518, Note_on_c, 9, 40, 0
18, 58644, Note_on_c, 9, 36, 40
18, 58654, Note_on_c, 9, 36, 0
18, 58681, Note_on_c, 9, 40, 91
18, 58750, Note_on_c, 9, 40, 0
18, 58760, Note_on_c, 9, 36, 16
18, 58762, Note_on_c, 9, 36, 0
18, 58886, Note_on_c, 9, 36, 73
18, 58886, Note_on_c, 9, 36, 0
18, 58918, Note_on_c, 9, 38, 91
18, 58956, Note_on_c, 9, 38, 0
18, 58999, Note_on_c, 9, 36, 48
18, 59010, Note_on_c, 9, 36, 0
18, 59038, Note_on_c, 9, 36, 82
18, 59104, Note_on_c, 9, 36, 0
18, 59159, Note_on_c, 9, 40, 73
18, 59232, Note_on_c, 9, 40, 0
18, 59239, Note_on_c, 9, 36, 60
18, 59251, Note_on_c, 9, 36, 0
18, 59359, Note_on_c, 9, 36, 91
18, 59373, Note_on_c, 9, 36, 0
18, 59396, Note_on_c, 9, 40, 100
18, 59476, Note_on_c, 9, 36, 32
18, 59479, Note_on_c, 9, 40, 0
18, 59487, Note_on_c, 9, 36, 0
18, 59518, Note_on_c, 9, 36, 16
18, 59520, Note_on_c, 9, 36, 0
18, 59599, Note_on_c, 9, 36, 73
18, 59631, Note_on_c, 9, 36, 0
18, 59639, Note_on_c, 9, 40, 91
18, 59673, Note_on_c, 9, 40, 0
18, 59679, Note_on_c, 9, 36, 60
18, 59690, Note_on_c, 9, 36, 0
18, 59717, Note_on_c, 9, 36, 60
18, 59734, Note_on_c, 9, 36, 0
18, 59756, Note_on_c, 9, 40, 82
18, 59788, Note_on_c, 9, 40, 0
18, 59798, Note_on_c, 9, 36, 60
18, 59809, Note_on_c, 9, 36, 0
18, 59837, Note_on_c, 9, 36, 82
18, 59860, Note_on_c, 9, 36, 0
18, 59877, Note_on_c, 9, 40, 100
18, 59913, Note_on_c, 9, 40, 0
18, 59918, Note_on_c, 9, 36, 64
18, 59927, Note_on_c, 9, 36, 0
18, 59956, Note_on_c, 9, 36, 60
18, 59963, Note_on_c, 9, 36, 0
18, 59999, Note_on_c, 9, 36, 40
18, 60062, Note_on_c, 9, 36, 0
18, 60116, Note_on_c, 9, 40, 91
18, 60195, Note_on_c, 9, 40, 0
18, 60197, Note_on_c, 9, 36, 52
18, 60209, Note_on_c, 9, 36, 0
18, 60319, Note_on_c, 9, 36, 60
18, 60330, Note_on_c, 9, 36, 0
18, 60358, Note_on_c, 9, 40, 73
18, 60435, Note_on_c, 9, 40, 0
18, 60440, Note_on_c, 9, 36, 82
18, 60456, Note_on_c, 9, 36, 0
18, 60559, Note_on_c, 9, 36, 60
18, 60570, Note_on_c, 9, 36, 0
18, 60599, Note_on_c, 9, 40, 100
18, 60679, Note_on_c, 9, 36, 60
18, 60680, Note_on_c, 9, 40, 0
18, 60694, Note_on_c, 9, 36, 0
18, 60764, Note_on_c, 9, 36, 73
18, 60786, Note_on_c, 9, 36, 0
18, 60799, Note_on_c, 9, 38, 73
18, 60817, Note_on_c, 9, 38, 0
18, 60838, Note_on_c, 9, 40, 91
18, 60910, Note_on_c, 9, 40, 0
18, 60957, Note_on_c, 9, 36, 64
18, 60982, Note_on_c, 9, 36, 0
18, 61078, Note_on_c, 9, 40, 91
18, 61150, Note_on_c, 9, 40, 0
18, 61160, Note_on_c, 9, 36, 44
18, 61168, Note_on_c, 9, 36, 0
18, 61318, Note_on_c, 9, 40, 91
18, 61389, Note_on_c, 9, 40, 0
18, 61401, Note_on_c, 9, 36, 30
18, 61408, Note_on_c, 9, 36, 0
18, 61441, Note_on_c, 9, 36, 82
18, 61470, Note_on_c, 9, 36, 0
18, 61558, Note_on_c, 9, 40, 100
18, 61632, Note_on_c, 9, 40, 0
18, 61638, Note_on_c, 9, 36, 48
18, 61649, Note_on_c, 9, 36, 0
18, 61722, Note_on_c, 9, 36, 56
18, 61745, Note_on_c, 9, 36, 0
18, 61757, Note_on_c, 9, 38, 56
18, 61773, Note_on_c, 9, 38, 0
18, 61796, Note_on_c, 9, 40, 91
18, 61870, Note_on_c, 9, 40, 0
18, 61874, Note_on_c, 9, 36, 56
18, 61884, Note_on_c, 9, 36, 0
18, 61916, Note_on_c, 9, 36, 73
18, 61943, Note_on_c, 9, 36, 0
18, 62037, Note_on_c, 9, 40, 91
18, 62107, Note_on_c, 9, 40, 0
18, 62117, Note_on_c, 9, 36, 60
18, 62128, Note_on_c, 9, 36, 0
18, 62240, Note_on_c, 9, 36, 91
18, 62265, Note_on_c, 9, 36, 0
18, 62277, Note_on_c, 9, 40, 82
18, 62351, Note_on_c, 9, 40, 0
18, 62358, Note_on_c, 9, 36, 16
18, 62360, Note_on_c, 9, 36, 0
18, 62396, Note_on_c, 9, 36, 27
18, 62407, Note_on_c, 9, 36, 0
18, 62480, Note_on_c, 9, 36, 91
18, 62508, Note_on_c, 9, 36, 0
18, 62519, Note_on_c, 9, 40, 82
18, 62547, Note_on_c, 9, 40, 0
18, 62559, Note_on_c, 9, 36, 52
18, 62568, Note_on_c, 9, 36, 0
18, 62597, Note_on_c, 9, 36, 52
18, 62607, Note_on_c, 9, 36, 0
18, 62637, Note_on_c, 9, 40, 82
18, 62670, Note_on_c, 9, 40, 0
18, 62677, Note_on_c, 9, 36, 56
18, 62690, Note_on_c, 9, 36, 0
18, 62717, Note_on_c, 9, 36, 73
18, 62742, Note_on_c, 9, 36, 0
18, 62756, Note_on_c, 9, 40, 100
18, 62787, Note_on_c, 9, 40, 0
18, 62877, Note_on_c, 9, 36, 100
18, 62913, Note_on_c, 9, 36, 0
18, 62998, Note_on_c, 9, 38, 73
18, 63058, Note_on_c, 9, 38, 0
18, 63081, Note_on_c, 9, 36, 60
18, 63101, Note_on_c, 9, 36, 0
18, 63240, Note_on_c, 9, 40, 82
18, 63308, Note_on_c, 9, 40, 0
18, 63362, Note_on_c, 9, 36, 16
18, 63362, Note_on_c, 9, 36, 0
18, 63482, Note_on_c, 9, 38, 100
18, 63539, Note_on_c, 9, 38, 0
18, 63563, Note_on_c, 9, 36, 16
18, 63567, Note_on_c, 9, 36, 0
18, 63681, Note_on_c, 9, 36, 60
18, 63692, Note_on_c, 9, 36, 0
18, 63720, Note_on_c, 9, 40, 100
18, 63805, Note_on_c, 9, 40, 0
18, 63841, Note_on_c, 9, 36, 56
18, 63858, Note_on_c, 9, 36, 0
18, 63958, Note_on_c, 9, 40, 100
18, 64030, Note_on_c, 9, 40, 0
18, 64042, Note_on_c, 9, 36, 25
18, 64052, Note_on_c, 9, 36, 0
18, 64197, Note_on_c, 9, 40, 91
18, 64275, Note_on_c, 9, 40, 0
18, 64315, Note_on_c, 9, 36, 36
18, 64332, Note_on_c, 9, 36, 0
18, 64438, Note_on_c, 9, 40, 100
18, 64509, Note_on_c, 9, 40, 0
18, 64516, Note_on_c, 9, 36, 44
18, 64530, Note_on_c, 9, 36, 0
18, 64559, Note_on_c, 9, 36, 16
18, 64559, Note_on_c, 9, 36, 0
18, 64639, Note_on_c, 9, 36, 91
18, 64667, Note_on_c, 9, 36, 0
18, 64678, Note_on_c, 9, 40, 91
18, 64716, Note_on_c, 9, 40, 0
18, 64719, Note_on_c, 9, 36, 48
18, 64730, Note_on_c, 9, 36, 0
18, 64802, Note_on_c, 9, 36, 73
18, 64867, Note_on_c, 9, 36, 0
18, 64916, Note_on_c, 9, 40, 91
18, 64988, Note_on_c, 9, 40, 0
18, 64995, Note_on_c, 9, 36, 73
18, 65011, Note_on_c, 9, 36, 0
18, 65116, Note_on_c, 9, 36, 64
18, 65126, Note_on_c, 9, 38, 64
18, 65135, Note_on_c, 9, 38, 0
18, 65136, Note_on_c, 9, 36, 0
18, 65156, Note_on_c, 9, 40, 91
18, 65156, Note_on_c, 9, 38, 27
18, 65190, Note_on_c, 9, 38, 0
18, 65223, Note_on_c, 9, 40, 0
18, 65236, Note_on_c, 9, 36, 32
18, 65243, Note_on_c, 9, 36, 0
18, 65273, Note_on_c, 9, 36, 44
18, 65290, Note_on_c, 9, 36, 0
18, 65357, Note_on_c, 9, 36, 64
18, 65370, Note_on_c, 9, 36, 0
18, 65395, Note_on_c, 9, 40, 100
18, 65444, Note_on_c, 9, 40, 0
18, 65480, Note_on_c, 9, 38, 16
18, 65487, Note_on_c, 9, 38, 0
18, 65517, Note_on_c, 9, 40, 91
18, 65557, Note_on_c, 9, 40, 0
18, 65599, Note_on_c, 9, 38, 31
18, 65608, Note_on_c, 9, 38, 0
18, 65638, Note_on_c, 9, 40, 100
18, 65699, Note_on_c, 9, 40, 0
18, 65756, Note_on_c, 9, 36, 73
18, 65777, Note_on_c, 9, 36, 0
18, 65879, Note_on_c, 9, 40, 100
18, 65949, Note_on_c, 9, 40, 0
18, 65957, Note_on_c, 9, 36, 40
18, 65967, Note_on_c, 9, 36, 0
18, 66116, Note_on_c, 9, 40, 82
18, 66152, Note_on_c, 9, 40, 0
18, 66201, Note_on_c, 9, 36, 32
18, 66210, Note_on_c, 9, 36, 0
18, 66238, Note_on_c, 9, 36, 91
18, 66289, Note_on_c, 9, 36, 0
18, 66356, Note_on_c, 9, 40, 91
18, 66428, Note_on_c, 9, 40, 0
18, 66436, Note_on_c, 9, 36, 31
18, 66447, Note_on_c, 9, 36, 0
18, 66475, Note_on_c, 9, 36, 40
18, 66486, Note_on_c, 9, 36, 0
18, 66562, Note_on_c, 9, 36, 64
18, 66572, Note_on_c, 9, 36, 0
18, 66600, Note_on_c, 9, 40, 91
18, 66632, Note_on_c, 9, 40, 0
18, 66720, Note_on_c, 9, 36, 48
18, 66736, Note_on_c, 9, 36, 0
18, 66837, Note_on_c, 9, 40, 91
18, 66903, Note_on_c, 9, 40, 0
18, 66918, Note_on_c, 9, 36, 48
18, 66939, Note_on_c, 9, 36, 0
18, 67039, Note_on_c, 9, 36, 26
18, 67045, Note_on_c, 9, 36, 0
18, 67078, Note_on_c, 9, 40, 82
18, 67153, Note_on_c, 9, 40, 0
18, 67162, Note_on_c, 9, 36, 16
18, 67164, Note_on_c, 9, 36, 0
18, 67198, Note_on_c, 9, 36, 56
18, 67223, Note_on_c, 9, 36, 0
18, 67278, Note_on_c, 9, 36, 60
18, 67290, Note_on_c, 9, 36, 0
18, 67318, Note_on_c, 9, 40, 91
18, 67393, Note_on_c, 9, 40, 0
18, 67397, Note_on_c, 9, 36, 60
18, 67410, Note_on_c, 9, 36, 0
18, 67484, Note_on_c, 9, 36, 52
18, 67503, Note_on_c, 9, 36, 0
18, 67517, Note_on_c, 9, 38, 64
18, 67539, Note_on_c, 9, 38, 0
18, 67558, Note_on_c, 9, 40, 91
18, 67628, Note_on_c, 9, 40, 0
18, 67641, Note_on_c, 9, 36, 16
18, 67641, Note_on_c, 9, 36, 0
18, 67678, Note_on_c, 9, 36, 82
18, 67737, Note_on_c, 9, 36, 0
18, 67797, Note_on_c, 9, 40, 91
18, 67873, Note_on_c, 9, 40, 0
18, 67876, Note_on_c, 9, 36, 73
18, 67899, Note_on_c, 9, 36, 0
18, 67995, Note_on_c, 9, 36, 73
18, 68004, Note_on_c, 9, 36, 0
18, 68035, Note_on_c, 9, 40, 73
18, 68109, Note_on_c, 9, 40, 0
18, 68112, Note_on_c, 9, 36, 73
18, 68121, Note_on_c, 9, 36, 0
18, 68208, Note_on_c, 9, 36, 64
18, 68213, Note_on_c, 9, 36, 0
18, 68236, Note_on_c, 9, 36, 31
18, 68244, Note_on_c, 9, 36, 52
18, 68244, Note_on_c, 9, 38, 64
18, 68249, Note_on_c, 9, 36, 0
18, 68259, Note_on_c, 9, 36, 0
18, 68262, Note_on_c, 9, 38, 0
18, 68277, Note_on_c, 9, 40, 91
18, 68345, Note_on_c, 9, 40, 0
18, 68354, Note_on_c, 9, 36, 73
18, 68371, Note_on_c, 9, 36, 0
18, 68476, Note_on_c, 9, 36, 60
18, 68485, Note_on_c, 9, 36, 0
18, 68516, Note_on_c, 9, 40, 100
18, 68547, Note_on_c, 9, 40, 0
18, 68638, Note_on_c, 9, 36, 91
18, 68690, Note_on_c, 9, 36, 0
18, 68761, Note_on_c, 9, 40, 82
18, 68819, Note_on_c, 9, 40, 0
18, 68838, Note_on_c, 9, 36, 73
18, 68857, Note_on_c, 9, 36, 0
18, 68956, Note_on_c, 9, 36, 56
18, 68965, Note_on_c, 9, 36, 0
18, 68966, Note_on_c, 9, 36, 64
18, 68984, Note_on_c, 9, 36, 0
18, 69002, Note_on_c, 9, 40, 91
18, 69093, Note_on_c, 9, 40, 0
18, 69122, Note_on_c, 9, 36, 73
18, 69155, Note_on_c, 9, 36, 0
18, 69238, Note_on_c, 9, 40, 82
18, 69287, Note_on_c, 9, 40, 0
18, 69479, Note_on_c, 9, 40, 91
18, 69502, Note_on_c, 9, 40, 0
18, 69517, Note_on_c, 9, 36, 56
18, 69526, Note_on_c, 9, 36, 0
18, 69721, Note_on_c, 9, 40, 73
18, 69765, Note_on_c, 9, 40, 0
18, 69801, Note_on_c, 9, 36, 44
18, 69812, Note_on_c, 9, 36, 0
18, 69957, Note_on_c, 9, 40, 82
18, 69993, Note_on_c, 9, 40, 0
18, 70042, Note_on_c, 9, 36, 16
18, 70044, Note_on_c, 9, 36, 0
18, 70080, Note_on_c, 9, 36, 73
18, 70111, Note_on_c, 9, 36, 0
18, 70160, Note_on_c, 9, 36, 82
18, 70200, Note_on_c, 9, 36, 0
18, 70202, Note_on_c, 9, 40, 100
18, 70267, Note_on_c, 9, 40, 0
18, 70279, Note_on_c, 9, 36, 73
18, 70342, Note_on_c, 9, 36, 0
18, 70404, Note_on_c, 9, 36, 48
18, 70414, Note_on_c, 9, 36, 0
18, 70440, Note_on_c, 9, 40, 91
18, 70508, Note_on_c, 9, 40, 0
18, 70559, Note_on_c, 9, 36, 44
18, 70609, Note_on_c, 9, 36, 0
18, 70679, Note_on_c, 9, 40, 73
18, 70692, Note_on_c, 9, 40, 0
18, 70759, Note_on_c, 9, 36, 48
18, 70770, Note_on_c, 9, 36, 0
18, 70876, Note_on_c, 9, 36, 91
18, 70914, Note_on_c, 9, 36, 0
18, 70916, Note_on_c, 9, 40, 82
18, 70981, Note_on_c, 9, 40, 0
18, 70996, Note_on_c, 9, 36, 36
18, 71007, Note_on_c, 9, 36, 0
18, 71037, Note_on_c, 9, 36, 60
18, 71092, Note_on_c, 9, 36, 0
18, 71118, Note_on_c, 9, 36, 82
18, 71158, Note_on_c, 9, 40, 91
18, 71169, Note_on_c, 9, 36, 0
18, 71235, Note_on_c, 9, 36, 48
18, 71236, Note_on_c, 9, 40, 0
18, 71245, Note_on_c, 9, 36, 0
18, 71276, Note_on_c, 9, 36, 64
18, 71310, Note_on_c, 9, 36, 0
18, 71357, Note_on_c, 9, 36, 52
18, 71368, Note_on_c, 9, 36, 0
18, 71396, Note_on_c, 9, 40, 100
18, 71430, Note_on_c, 9, 40, 0
18, 71517, Note_on_c, 9, 36, 91
18, 71563, Note_on_c, 9, 36, 0
18, 71638, Note_on_c, 9, 40, 73
18, 71705, Note_on_c, 9, 40, 0
18, 71717, Note_on_c, 9, 36, 64
18, 71736, Note_on_c, 9, 36, 0
18, 71845, Note_on_c, 9, 36, 73
18, 71862, Note_on_c, 9, 36, 0
18, 71876, Note_on_c, 9, 40, 82
18, 71963, Note_on_c, 9, 40, 0
18, 71998, Note_on_c, 9, 36, 73
18, 72032, Note_on_c, 9, 36, 0
18, 72118, Note_on_c, 9, 40, 91
18, 72161, Note_on_c, 9, 40, 0
18, 72199, Note_on_c, 9, 36, 48
18, 72211, Note_on_c, 9, 36, 0
18, 72321, Note_on_c, 9, 36, 64
18, 72328, Note_on_c, 9, 36, 0
18, 72359, Note_on_c, 9, 40, 100
18, 72385, Note_on_c, 9, 40, 0
18, 72399, Note_on_c, 9, 36, 64
18, 72408, Note_on_c, 9, 36, 0
18, 72482, Note_on_c, 9, 36, 73
18, 72535, Note_on_c, 9, 36, 0
18, 72601, Note_on_c, 9, 40, 82
18, 72659, Note_on_c, 9, 40, 0
18, 72681, Note_on_c, 9, 36, 52
18, 72714, Note_on_c, 9, 36, 0
18, 72804, Note_on_c, 9, 36, 36
18, 72813, Note_on_c, 9, 36, 0
18, 72843, Note_on_c, 9, 40, 73
18, 72909, Note_on_c, 9, 40, 0
18, 72923, Note_on_c, 9, 36, 16
18, 72925, Note_on_c, 9, 36, 0
18, 73043, Note_on_c, 9, 36, 44
18, 73054, Note_on_c, 9, 36, 0
18, 73082, Note_on_c, 9, 40, 91
18, 73147, Note_on_c, 9, 40, 0
18, 73159, Note_on_c, 9, 36, 44
18, 73170, Note_on_c, 9, 36, 0
18, 73280, Note_on_c, 9, 36, 60
18, 73289, Note_on_c, 9, 36, 0
18, 73318, Note_on_c, 9, 38, 100
18, 73397, Note_on_c, 9, 38, 0
18, 73398, Note_on_c, 9, 36, 44
18, 73407, Note_on_c, 9, 36, 0
18, 73440, Note_on_c, 9, 36, 82
18, 73522, Note_on_c, 9, 36, 0
18, 73560, Note_on_c, 9, 40, 91
18, 73630, Note_on_c, 9, 40, 0
18, 73639, Note_on_c, 9, 36, 56
18, 73659, Note_on_c, 9, 36, 0
18, 73758, Note_on_c, 9, 36, 64
18, 73767, Note_on_c, 9, 36, 0
18, 73796, Note_on_c, 9, 40, 100
18, 73855, Note_on_c, 9, 40, 0
18, 73881, Note_on_c, 9, 36, 16
18, 73884, Note_on_c, 9, 36, 0
18, 73919, Note_on_c, 9, 40, 16
18, 73920, Note_on_c, 9, 40, 0
18, 73957, Note_on_c, 9, 40, 27
18, 73975, Note_on_c, 9, 40, 0
18, 73997, Note_on_c, 9, 36, 73
18, 74026, Note_on_c, 9, 36, 0
18, 74036, Note_on_c, 9, 40, 60
18, 74047, Note_on_c, 9, 40, 0
18, 74075, Note_on_c, 9, 40, 48
18, 74091, Note_on_c, 9, 40, 0
18, 74115, Note_on_c, 9, 36, 56
18, 74135, Note_on_c, 9, 36, 0
18, 74153, Note_on_c, 9, 40, 82
18, 74169, Note_on_c, 9, 40, 0
18, 74193, Note_on_c, 9, 40, 32
18, 74211, Note_on_c, 9, 40, 0
18, 74233, Note_on_c, 9, 36, 60
18, 74256, Note_on_c, 9, 36, 0
18, 74272, Note_on_c, 9, 40, 91
18, 74321, Note_on_c, 9, 40, 0
18, 74352, Note_on_c, 9, 38, 64
18, 74359, Note_on_c, 9, 38, 0
18, 74392, Note_on_c, 9, 36, 91
18, 74435, Note_on_c, 9, 36, 0
18, 74515, Note_on_c, 9, 38, 73
18, 74596, Note_on_c, 9, 36, 40
18, 74600, Note_on_c, 9, 38, 0
18, 74609, Note_on_c, 9, 36, 0
18, 74759, Note_on_c, 9, 40, 73
18, 74838, Note_on_c, 9, 40, 0
18, 74877, Note_on_c, 9, 36, 73
18, 74897, Note_on_c, 9, 36, 0
18, 74998, Note_on_c, 9, 40, 91
18, 75057, Note_on_c, 9, 40, 0
18, 75078, Note_on_c, 9, 36, 56
18, 75094, Note_on_c, 9, 36, 0
18, 75197, Note_on_c, 9, 36, 64
18, 75205, Note_on_c, 9, 36, 73
18, 75206, Note_on_c, 9, 36, 0
18, 75227, Note_on_c, 9, 36, 0
18, 75241, Note_on_c, 9, 40, 91
18, 75335, Note_on_c, 9, 40, 0
18, 75358, Note_on_c, 9, 36, 60
18, 75379, Note_on_c, 9, 36, 0
18, 75478, Note_on_c, 9, 40, 100
18, 75545, Note_on_c, 9, 40, 0
18, 75559, Note_on_c, 9, 36, 52
18, 75588, Note_on_c, 9, 36, 0
18, 75683, Note_on_c, 9, 36, 32
18, 75694, Note_on_c, 9, 36, 0
18, 75719, Note_on_c, 9, 40, 91
18, 75791, Note_on_c, 9, 40, 0
18, 75840, Note_on_c, 9, 36, 40
18, 75861, Note_on_c, 9, 36, 0
18, 75957, Note_on_c, 9, 40, 91
18, 76017, Note_on_c, 9, 40, 0
18, 76048, Note_on_c, 9, 36, 48
18, 76061, Note_on_c, 9, 36, 0
18, 76158, Note_on_c, 9, 36, 40
18, 76165, Note_on_c, 9, 36, 0
18, 76196, Note_on_c, 9, 40, 91
18, 76277, Note_on_c, 9, 40, 0
18, 76281, Note_on_c, 9, 36, 26
18, 76288, Note_on_c, 9, 36, 0
18, 76318, Note_on_c, 9, 36, 52
18, 76363, Note_on_c, 9, 36, 0
18, 76438, Note_on_c, 9, 40, 91
18, 76514, Note_on_c, 9, 40, 0
18, 76520, Note_on_c, 9, 36, 44
18, 76532, Note_on_c, 9, 36, 0
18, 76639, Note_on_c, 9, 36, 73
18, 76673, Note_on_c, 9, 36, 0
18, 76676, Note_on_c, 9, 40, 73
18, 76754, Note_on_c, 9, 40, 0
18, 76761, Note_on_c, 9, 36, 16
18, 76765, Note_on_c, 9, 36, 0
18, 76877, Note_on_c, 9, 36, 56
18, 76900, Note_on_c, 9, 36, 0
18, 76915, Note_on_c, 9, 40, 91
18, 76993, Note_on_c, 9, 40, 0
18, 76996, Note_on_c, 9, 36, 48
18, 77007, Note_on_c, 9, 36, 0
18, 77036, Note_on_c, 9, 36, 48
18, 77045, Note_on_c, 9, 36, 0
18, 77079, Note_on_c, 9, 36, 16
18, 77081, Note_on_c, 9, 36, 0
18, 77117, Note_on_c, 9, 36, 44
18, 77130, Note_on_c, 9, 36, 0
18, 77155, Note_on_c, 9, 40, 91
18, 77191, Note_on_c, 9, 40, 0
18, 77196, Note_on_c, 9, 36, 60
18, 77209, Note_on_c, 9, 36, 0
18, 77236, Note_on_c, 9, 36, 40
18, 77244, Note_on_c, 9, 36, 0
18, 77276, Note_on_c, 9, 36, 91
18, 77325, Note_on_c, 9, 36, 0
18, 77398, Note_on_c, 9, 40, 91
18, 77468, Note_on_c, 9, 40, 0
18, 77476, Note_on_c, 9, 36, 40
18, 77487, Note_on_c, 9, 36, 0
18, 77597, Note_on_c, 9, 36, 44
18, 77605, Note_on_c, 9, 36, 0
18, 77636, Note_on_c, 9, 40, 82
18, 77690, Note_on_c, 9, 40, 0
18, 77759, Note_on_c, 9, 36, 82
18, 77792, Note_on_c, 9, 36, 0
18, 77877, Note_on_c, 9, 40, 91
18, 77944, Note_on_c, 9, 40, 0
18, 77956, Note_on_c, 9, 36, 44
18, 77967, Note_on_c, 9, 36, 0
18, 78080, Note_on_c, 9, 36, 44
18, 78087, Note_on_c, 9, 36, 0
18, 78119, Note_on_c, 9, 40, 91
18, 78157, Note_on_c, 9, 40, 0
18, 78159, Note_on_c, 9, 36, 60
18, 78170, Note_on_c, 9, 36, 0
18, 78198, Note_on_c, 9, 36, 64
18, 78211, Note_on_c, 9, 36, 0
18, 78235, Note_on_c, 9, 36, 73
18, 78271, Note_on_c, 9, 36, 0
18, 78356, Note_on_c, 9, 40, 91
18, 78425, Note_on_c, 9, 40, 0
18, 78437, Note_on_c, 9, 36, 36
18, 78454, Note_on_c, 9, 36, 0
18, 78561, Note_on_c, 9, 36, 36
18, 78568, Note_on_c, 9, 36, 0
18, 78597, Note_on_c, 9, 38, 73
18, 78678, Note_on_c, 9, 36, 40
18, 78686, Note_on_c, 9, 38, 0
18, 78693, Note_on_c, 9, 36, 0
18, 78718, Note_on_c, 9, 36, 24
18, 78734, Note_on_c, 9, 36, 0
18, 78840, Note_on_c, 9, 40, 82
18, 78917, Note_on_c, 9, 40, 0
18, 78917, Note_on_c, 9, 36, 36
18, 78932, Note_on_c, 9, 36, 0
18, 78999, Note_on_c, 9, 36, 31
18, 79009, Note_on_c, 9, 36, 0
18, 79038, Note_on_c, 9, 36, 60
18, 79060, Note_on_c, 9, 36, 0
18, 79077, Note_on_c, 9, 40, 100
18, 79117, Note_on_c, 9, 36, 48
18, 79126, Note_on_c, 9, 40, 0
18, 79133, Note_on_c, 9, 36, 0
18, 79158, Note_on_c, 9, 36, 44
18, 79167, Note_on_c, 9, 36, 0
18, 79198, Note_on_c, 9, 36, 91
18, 79245, Note_on_c, 9, 36, 0
18, 79319, Note_on_c, 9, 40, 91
18, 79399, Note_on_c, 9, 36, 48
18, 79400, Note_on_c, 9, 40, 0
18, 79414, Note_on_c, 9, 36, 0
18, 79518, Note_on_c, 9, 36, 82
18, 79536, Note_on_c, 9, 36, 0
18, 79558, Note_on_c, 9, 40, 91
18, 79639, Note_on_c, 9, 40, 0
18, 79639, Note_on_c, 9, 36, 52
18, 79659, Note_on_c, 9, 36, 0
18, 79679, Note_on_c, 9, 38, 91
18, 79707, Note_on_c, 9, 38, 0
18, 79719, Note_on_c, 9, 36, 40
18, 79730, Note_on_c, 9, 36, 0
18, 79761, Note_on_c, 9, 36, 40
18, 79774, Note_on_c, 9, 36, 0
18, 79800, Note_on_c, 9, 38, 73
18, 79842, Note_on_c, 9, 36, 52
18, 79845, Note_on_c, 9, 38, 0
18, 79857, Note_on_c, 9, 36, 0
18, 79882, Note_on_c, 9, 36, 60
18, 79899, Note_on_c, 9, 36, 0
18, 79921, Note_on_c, 9, 38, 82
18, 79959, Note_on_c, 9, 36, 60
18, 79962, Note_on_c, 9, 38, 0
18, 79973, Note_on_c, 9, 36, 0
18, 79999, Note_on_c, 9, 36, 56
18, 80020, Note_on_c, 9, 36, 0
18, 80039, Note_on_c, 9, 38, 91
18, 80078, Note_on_c, 9, 38, 0
18, 80079, Note_on_c, 9, 36, 56
18, 80090, Note_on_c, 9, 36, 0
18, 80118, Note_on_c, 9, 36, 73
18, 80134, Note_on_c, 9, 36, 0
18, 80156, Note_on_c, 9, 36, 100
18, 80217, Note_on_c, 9, 36, 0
18, 80217, End_track
0, 0, End_of_file
