0, 0, Header, 1, 10, 960
1, 0, Start_track
1, 0, Sequencer_specific, 44, 5, 15, 18, 3, 3, 127, 127, 0, 255, 1, 5, 32, 83, 112, 101, 97, 107, 101, 114, 115, 32, 40, 76, 111, 103, 105, 116, 101, 99, 104, 32, 71, 57, 51, 48, 32, 72, 101, 97, 100, 115, 101, 116, 41
1, 0, Tempo, 389610
1, 0, Sequencer_specific, 15, 5, 15, 28, 50, 48, 49, 51, 46, 49, 48, 46, 48, 49, 1, 3
1, 0, Sequencer_specific, 5, 5, 15, 9, 12, 0
1, 0, Sequencer_specific, 42, 5, 15, 45, 77, 105, 99, 114, 111, 115, 111, 102, 116, 32, 83, 97, 110, 115, 32, 83, 101, 114, 105, 102, 44, 56, 46, 50, 53, 44, 70, 97, 108, 115, 101, 44, 70, 97, 108, 115, 101, 44, 49
1, 0, Key_signature, 1, "minor"
1, 0, Time_signature, 4, 2, 24, 8
1, 0, End_track
2, 0, Start_track
2, 0, Title_t, "Soft karaoke"
2, 0, Text_t, "@KMIDI KARAOKE FILE"
2, 0, Text_t, "@IGenerated with Karakan version 6.2"
2, 0, End_track
3, 0, Start_track
3, 0, Title_t, "Words"
3, 0, Text_t, "@LENGL"
3, 0, Text_t, "@TBruno Mars - Runaway Baby(2010)"
3, 0, Text_t, "@TKAR by Geoffrey Carter 14th November 2013"
3, 6240, Text_t, "\\Ahh"
3, 7200, Text_t, " yes"
3, 11040, Text_t, "\\Chi"
3, 11280, Text_t, "ka"
3, 11520, Text_t, " ah!"
3, 17760, Text_t, "\\Well"
3, 18240, Text_t, " look"
3, 18720, Text_t, "y"
3, 19200, Text_t, " here"
3, 20160, Text_t, " look"
3, 20640, Text_t, "y"
3, 21120, Text_t, " here"
3, 22080, Text_t, "/Ah"
3, 23040, Text_t, " what"
3, 23520, Text_t, " do"
3, 24000, Text_t, " we"
3, 24480, Text_t, " have?"
3, 26400, Text_t, "/An"
3, 26880, Text_t, "oth"
3, 27360, Text_t, "er"
3, 27840, Text_t, " pret"
3, 28320, Text_t, "ty"
3, 28800, Text_t, " thang"
3, 29760, Text_t, "/read"
3, 30240, Text_t, "y"
3, 30720, Text_t, " for"
3, 31200, Text_t, " me"
3, 31680, Text_t, " to"
3, 32160, Text_t, " grab"
3, 34080, Text_t, "/But"
3, 34560, Text_t, " lit"
3, 35040, Text_t, "tle"
3, 35520, Text_t, " does"
3, 36000, Text_t, " she"
3, 36480, Text_t, " know"
3, 36960, Text_t, "/That"
3, 37440, Text_t, " I'm"
3, 37920, Text_t, " a"
3, 38400, Text_t, " wolf"
3, 38880, Text_t, " in"
3, 39360, Text_t, " sheep's"
3, 39840, Text_t, " cloth"
3, 40320, Text_t, "ing"
3, 40800, Text_t, "/'Cause"
3, 41280, Text_t, " at"
3, 41760, Text_t, " the"
3, 42240, Text_t, " end"
3, 43200, Text_t, " of"
3, 43680, Text_t, " the"
3, 44160, Text_t, " night"
3, 45120, Text_t, "/It"
3, 45600, Text_t, " is"
3, 46080, Text_t, " her"
3, 46560, Text_t, " I'll"
3, 47040, Text_t, " be"
3, 47520, Text_t, " hold"
3, 48000, Text_t, "ing"
3, 48480, Text_t, "/{I"
3, 48960, Text_t, " love"
3, 49440, Text_t, " you"
3, 49920, Text_t, " so..}"
3, 50880, Text_t, " Hey!"
3, 52320, Text_t, "\\{That's"
3, 52800, Text_t, " what"
3, 53280, Text_t, " you'll"
3, 53760, Text_t, " say}"
3, 54240, Text_t, "/That's"
3, 54720, Text_t, " what"
3, 55200, Text_t, " you'll"
3, 55680, Text_t, " say"
3, 56160, Text_t, "/{You'll"
3, 56640, Text_t, " tell"
3, 57120, Text_t, " me:}"
3, 57600, Text_t, "/{""Ba"
3, 58080, Text_t, "by"
3, 58560, Text_t, " ba"
3, 59040, Text_t, "by"
3, 59520, Text_t, " please"
3, 60000, Text_t, " don't"
3, 60480, Text_t, " go"
3, 60960, Text_t, " a"
3, 61440, Text_t, "way""}"
3, 61920, Text_t, "/Don't"
3, 62400, Text_t, " go"
3, 62880, Text_t, " a"
3, 63360, Text_t, "way"
3, 63840, Text_t, "/{But"
3, 64320, Text_t, " when"
3, 64800, Text_t, " I"
3, 65280, Text_t, " play}"
3, 65760, Text_t, "/But"
3, 66240, Text_t, " when"
3, 66720, Text_t, " I"
3, 67200, Text_t, " play"
3, 67680, Text_t, "/{I"
3, 68160, Text_t, " nev"
3, 68640, Text_t, "er"
3, 69120, Text_t, " stay}"
3, 69600, Text_t, "/I"
3, 70080, Text_t, " nev"
3, 70560, Text_t, "er"
3, 71040, Text_t, " stay"
3, 71520, Text_t, "/To"
3, 72000, Text_t, " ev"
3, 72480, Text_t, "ery"
3, 72960, Text_t, " girl"
3, 73920, Text_t, " that"
3, 74400, Text_t, " I"
3, 74880, Text_t, " meet,"
3, 75840, Text_t, " yeah.."
3, 76800, Text_t, "/This"
3, 77280, Text_t, " is"
3, 77760, Text_t, " what"
3, 78240, Text_t, " I"
3, 78720, Text_t, " say:"
3, 80640, Text_t, "\\Run"
3, 81600, Text_t, " run"
3, 82560, Text_t, " run"
3, 83040, Text_t, "a"
3, 83520, Text_t, "way"
3, 84480, Text_t, "/Run"
3, 84960, Text_t, "a"
3, 85440, Text_t, "way"
3, 86400, Text_t, " ba"
3, 86880, Text_t, "~"
3, 87360, Text_t, "by"
3, 87840, Text_t, "/Be"
3, 88320, Text_t, "fore"
3, 88800, Text_t, " I"
3, 89280, Text_t, " put"
3, 89760, Text_t, " my"
3, 90240, Text_t, " spell"
3, 90720, Text_t, " on"
3, 91200, Text_t, " yo"
3, 91680, Text_t, "u..."
3, 94560, Text_t, "/You"
3, 95040, Text_t, " bet"
3, 95520, Text_t, "ter"
3, 96000, Text_t, " get"
3, 96960, Text_t, " get"
3, 97920, Text_t, "/Get"
3, 98400, Text_t, " a"
3, 98880, Text_t, "way"
3, 99840, Text_t, " get"
3, 100320, Text_t, " a"
3, 100800, Text_t, "way"
3, 101760, Text_t, " dar"
3, 102240, Text_t, "~"
3, 102720, Text_t, "lin'"
3, 103200, Text_t, "/'Cause"
3, 103680, Text_t, " ev"
3, 104160, Text_t, "'ry"
3, 104640, Text_t, "thing"
3, 105120, Text_t, " you"
3, 105600, Text_t, " heard"
3, 106080, Text_t, " is"
3, 106560, Text_t, " tru"
3, 107040, Text_t, "e..."
3, 108960, Text_t, "/Your"
3, 109440, Text_t, " poor"
3, 109920, Text_t, " lit"
3, 110400, Text_t, "tle"
3, 110880, Text_t, " heart"
3, 112800, Text_t, "/Will"
3, 113280, Text_t, " end"
3, 113760, Text_t, " up"
3, 114240, Text_t, " a"
3, 114720, Text_t, "lone"
3, 117120, Text_t, "/'Cause"
3, 117600, Text_t, " Lor"
3, 118080, Text_t, "d"
3, 118560, Text_t, " knows"
3, 119520, Text_t, "/I'm"
3, 120480, Text_t, " a"
3, 120960, Text_t, " ro"
3, 121440, Text_t, "ll"
3, 121920, Text_t, "in'"
3, 122400, Text_t, " stone"
3, 124800, Text_t, "/So"
3, 125280, Text_t, " you"
3, 125760, Text_t, " bet"
3, 126240, Text_t, "ter"
3, 126720, Text_t, " run"
3, 127680, Text_t, " run"
3, 128640, Text_t, "/Run"
3, 129120, Text_t, "a"
3, 129600, Text_t, "way"
3, 130560, Text_t, " run"
3, 131040, Text_t, "a"
3, 131520, Text_t, "way"
3, 132480, Text_t, " ba"
3, 132960, Text_t, "~"
3, 133440, Text_t, "by..."
3, 139680, Text_t, "\\Uh.."
3, 144480, Text_t, "\\Ah"
3, 145440, Text_t, " yeah..."
3, 148320, Text_t, "\\Well"
3, 148800, Text_t, " let"
3, 149280, Text_t, " me"
3, 149760, Text_t, " think.."
3, 150720, Text_t, " let"
3, 151200, Text_t, " me"
3, 151680, Text_t, " think.."
3, 152640, Text_t, "/Ah.."
3, 153600, Text_t, " what"
3, 154080, Text_t, " should"
3, 154560, Text_t, " I"
3, 155040, Text_t, " do?"
3, 156000, Text_t, "/So"
3, 156480, Text_t, " man"
3, 156960, Text_t, "y"
3, 157440, Text_t, " ea"
3, 157920, Text_t, "ger"
3, 158400, Text_t, " young"
3, 159360, Text_t, " bun"
3, 159840, Text_t, "nies.."
3, 160320, Text_t, "/That"
3, 160800, Text_t, " I'd"
3, 161280, Text_t, " like"
3, 161760, Text_t, " to"
3, 162240, Text_t, " pur"
3, 162720, Text_t, "sue"
3, 164640, Text_t, "/Now"
3, 165120, Text_t, " e"
3, 165600, Text_t, "ven"
3, 166080, Text_t, " now"
3, 166560, Text_t, " they"
3, 167040, Text_t, " eat"
3, 167520, Text_t, "ing"
3, 168000, Text_t, "/out"
3, 168480, Text_t, " the"
3, 168960, Text_t, " palm"
3, 169440, Text_t, " of"
3, 169920, Text_t, " my"
3, 170400, Text_t, " hand"
3, 172320, Text_t, "/There's"
3, 172800, Text_t, " on"
3, 173280, Text_t, "ly"
3, 173760, Text_t, " one"
3, 174720, Text_t, " car"
3, 175200, Text_t, "rot"
3, 175680, Text_t, "/and"
3, 176160, Text_t, " they"
3, 176640, Text_t, " all"
3, 177120, Text_t, " got"
3, 177600, Text_t, "ta"
3, 178080, Text_t, " share"
3, 178560, Text_t, " it!"
3, 179040, Text_t, "\\I"
3, 179520, Text_t, " love"
3, 180000, Text_t, " you"
3, 180480, Text_t, " so.."
3, 181440, Text_t, " Hey!"
3, 182880, Text_t, "\\That's"
3, 183360, Text_t, " what"
3, 183840, Text_t, " you'll"
3, 184320, Text_t, " say"
3, 184800, Text_t, "/{That's"
3, 185280, Text_t, " what"
3, 185760, Text_t, " you'll"
3, 186240, Text_t, " say}"
3, 186720, Text_t, "/You'll"
3, 187200, Text_t, " tell"
3, 187680, Text_t, " me:"
3, 188160, Text_t, "/""Ba"
3, 188640, Text_t, "by"
3, 189120, Text_t, " ba"
3, 189600, Text_t, "by"
3, 190080, Text_t, " please"
3, 190560, Text_t, " don't"
3, 191040, Text_t, " go"
3, 191520, Text_t, " a"
3, 192000, Text_t, "way"""
3, 192480, Text_t, "/{Don't"
3, 192960, Text_t, " go"
3, 193440, Text_t, " a"
3, 193920, Text_t, "way}"
3, 194400, Text_t, "/But"
3, 194880, Text_t, " when"
3, 195360, Text_t, " I"
3, 195840, Text_t, " play"
3, 196320, Text_t, "/{But"
3, 196800, Text_t, " when"
3, 197280, Text_t, " I"
3, 197760, Text_t, " play}"
3, 198240, Text_t, "/I"
3, 198720, Text_t, " nev"
3, 199200, Text_t, "er"
3, 199680, Text_t, " stay"
3, 200160, Text_t, "/{I"
3, 200640, Text_t, " nev"
3, 201120, Text_t, "er"
3, 201600, Text_t, " stay}"
3, 202080, Text_t, "/To"
3, 202560, Text_t, " ev"
3, 203040, Text_t, "ery"
3, 203520, Text_t, " girl"
3, 204480, Text_t, " that"
3, 204960, Text_t, " I"
3, 205440, Text_t, " meet,"
3, 206400, Text_t, " yeah.."
3, 207360, Text_t, "/This"
3, 207840, Text_t, " is"
3, 208320, Text_t, " what"
3, 208800, Text_t, " I"
3, 209280, Text_t, " say:"
3, 211200, Text_t, "\\Run"
3, 212160, Text_t, " run"
3, 213120, Text_t, " run"
3, 213600, Text_t, "a"
3, 214080, Text_t, "way"
3, 215040, Text_t, "/Run"
3, 215520, Text_t, "a"
3, 216000, Text_t, "way"
3, 216960, Text_t, " ba"
3, 217440, Text_t, "~"
3, 217920, Text_t, "by"
3, 218400, Text_t, "/Be"
3, 218880, Text_t, "fore"
3, 219360, Text_t, " I"
3, 219840, Text_t, " put"
3, 220320, Text_t, " my"
3, 220800, Text_t, " spell"
3, 221280, Text_t, " on"
3, 221760, Text_t, " yo"
3, 222240, Text_t, "u.."
3, 225120, Text_t, "/You"
3, 225600, Text_t, " bet"
3, 226080, Text_t, "ter"
3, 226560, Text_t, " get"
3, 227520, Text_t, " get"
3, 228480, Text_t, "/Get"
3, 228960, Text_t, " a"
3, 229440, Text_t, "way"
3, 230400, Text_t, " get"
3, 230880, Text_t, " a"
3, 231360, Text_t, "way"
3, 232320, Text_t, " dar"
3, 232800, Text_t, "~"
3, 233280, Text_t, "lin'"
3, 233760, Text_t, "/'Cause"
3, 234240, Text_t, " ev"
3, 234720, Text_t, "'ry"
3, 235200, Text_t, "thing"
3, 235680, Text_t, " you"
3, 236160, Text_t, " heard"
3, 236640, Text_t, " is"
3, 237120, Text_t, " tru"
3, 237600, Text_t, "e.."
3, 239520, Text_t, "/Your"
3, 240000, Text_t, " poor"
3, 240480, Text_t, " lit"
3, 240960, Text_t, "tle"
3, 241440, Text_t, " heart"
3, 243360, Text_t, "/Will"
3, 243840, Text_t, " end"
3, 244320, Text_t, " up"
3, 244800, Text_t, " a"
3, 245280, Text_t, "lone"
3, 247680, Text_t, "/'Cause"
3, 248160, Text_t, " Lor"
3, 248640, Text_t, "d"
3, 249120, Text_t, " knows"
3, 250080, Text_t, "/I'm"
3, 251040, Text_t, " a"
3, 251520, Text_t, " ro"
3, 252000, Text_t, "ll"
3, 252480, Text_t, "in'"
3, 252960, Text_t, " stone"
3, 255360, Text_t, "/So"
3, 255840, Text_t, " you"
3, 256320, Text_t, " bet"
3, 256800, Text_t, "ter"
3, 257280, Text_t, " run"
3, 258240, Text_t, " run"
3, 259200, Text_t, "/Run"
3, 259680, Text_t, "a"
3, 260160, Text_t, "way"
3, 261120, Text_t, " run"
3, 261600, Text_t, "a"
3, 262080, Text_t, "way"
3, 263040, Text_t, " ba"
3, 263520, Text_t, "~"
3, 264000, Text_t, "by..."
3, 268320, Text_t, "\\Uh.."
3, 272160, Text_t, " Chi"
3, 272400, Text_t, "ka"
3, 272640, Text_t, " ah!"
3, 277920, Text_t, "\\See"
3, 278400, Text_t, " I"
3, 278880, Text_t, " ain't"
3, 279360, Text_t, " try"
3, 279600, Text_t, "in'"
3, 279840, Text_t, " to"
3, 280320, Text_t, " hurt"
3, 281280, Text_t, " you"
3, 282240, Text_t, " ba"
3, 282720, Text_t, "by"
3, 283680, Text_t, "/No.."
3, 284640, Text_t, " No.."
3, 285600, Text_t, " No.."
3, 286080, Text_t, "/I"
3, 286560, Text_t, " just"
3, 287040, Text_t, " wan"
3, 287520, Text_t, "na"
3, 288000, Text_t, " work"
3, 288960, Text_t, " you"
3, 289920, Text_t, " ba"
3, 290400, Text_t, "by"
3, 291360, Text_t, "/Yo.."
3, 292320, Text_t, " Yo.."
3, 293280, Text_t, "\\See"
3, 293760, Text_t, " I"
3, 294240, Text_t, " ain't"
3, 294720, Text_t, " try"
3, 294960, Text_t, "in'"
3, 295200, Text_t, " to"
3, 295680, Text_t, " hurt"
3, 296640, Text_t, " you"
3, 297600, Text_t, " ba"
3, 298080, Text_t, "by"
3, 299040, Text_t, "/No.."
3, 300000, Text_t, " No.."
3, 300960, Text_t, " No.."
3, 301440, Text_t, "/I"
3, 301920, Text_t, " just"
3, 302400, Text_t, " wan"
3, 302880, Text_t, "na"
3, 303360, Text_t, " work"
3, 304320, Text_t, " you"
3, 305280, Text_t, " ba"
3, 305760, Text_t, "by"
3, 306720, Text_t, "/If"
3, 307680, Text_t, " you"
3, 308640, Text_t, " scared"
3, 309600, Text_t, " you"
3, 310080, Text_t, " bet"
3, 310560, Text_t, "ter"
3, 311040, Text_t, " run"
3, 311520, Text_t, "/{You"
3, 312000, Text_t, " bet"
3, 312480, Text_t, "ter"
3, 312960, Text_t, " run}"
3, 313440, Text_t, "/You"
3, 313920, Text_t, " bet"
3, 314400, Text_t, "ter"
3, 314880, Text_t, " run"
3, 315360, Text_t, "/{You"
3, 315840, Text_t, " bet"
3, 316320, Text_t, "ter"
3, 316800, Text_t, " run}"
3, 317280, Text_t, "/You"
3, 317760, Text_t, " bet"
3, 318240, Text_t, "ter"
3, 318720, Text_t, " run"
3, 319200, Text_t, "/{You"
3, 319680, Text_t, " bet"
3, 320160, Text_t, "ter"
3, 320640, Text_t, " run}"
3, 321120, Text_t, "/You"
3, 321600, Text_t, " bet"
3, 322080, Text_t, "ter.."
3, 323040, Text_t, " you"
3, 323520, Text_t, " bet"
3, 324000, Text_t, "ter.."
3, 324960, Text_t, "/You"
3, 325440, Text_t, " bet"
3, 325920, Text_t, "ter..."
3, 326400, Text_t, "\\Run"
3, 327360, Text_t, " run"
3, 328320, Text_t, " run"
3, 328800, Text_t, "a"
3, 329280, Text_t, "way"
3, 330240, Text_t, "/Run"
3, 330720, Text_t, "a"
3, 331200, Text_t, "way"
3, 332160, Text_t, " ba"
3, 332640, Text_t, "~"
3, 333120, Text_t, "by"
3, 333600, Text_t, "/Be"
3, 334080, Text_t, "fore"
3, 334560, Text_t, " I"
3, 335040, Text_t, " put"
3, 335520, Text_t, " my"
3, 336000, Text_t, " spell"
3, 336480, Text_t, " on"
3, 336960, Text_t, " yo"
3, 337440, Text_t, "u.."
3, 340320, Text_t, "/You"
3, 340800, Text_t, " bet"
3, 341280, Text_t, "ter"
3, 341760, Text_t, " get"
3, 342720, Text_t, " get"
3, 343680, Text_t, "/Get"
3, 344160, Text_t, " a"
3, 344640, Text_t, "way"
3, 345600, Text_t, " get"
3, 346080, Text_t, " a"
3, 346560, Text_t, "way"
3, 347520, Text_t, " dar"
3, 348000, Text_t, "~"
3, 348480, Text_t, "lin'"
3, 348960, Text_t, "/'Cause"
3, 349440, Text_t, " ev"
3, 349920, Text_t, "'ry"
3, 350400, Text_t, "thing"
3, 350880, Text_t, " you"
3, 351360, Text_t, " heard"
3, 351840, Text_t, " is"
3, 352320, Text_t, " tru"
3, 352800, Text_t, "e.."
3, 354720, Text_t, "/Your"
3, 355200, Text_t, " poor"
3, 355680, Text_t, " lit"
3, 356160, Text_t, "tle"
3, 356640, Text_t, " heart"
3, 358560, Text_t, "/Will"
3, 359040, Text_t, " end"
3, 359520, Text_t, " up"
3, 360000, Text_t, " a"
3, 360480, Text_t, "lone"
3, 362880, Text_t, "/'Cause"
3, 363360, Text_t, " Lor"
3, 363840, Text_t, "d"
3, 364320, Text_t, " knows"
3, 365280, Text_t, "/I'm"
3, 366240, Text_t, " a"
3, 366720, Text_t, " ro"
3, 367200, Text_t, "ll"
3, 367680, Text_t, "in'"
3, 368160, Text_t, " stone"
3, 370560, Text_t, "/So"
3, 371040, Text_t, " you"
3, 371520, Text_t, " bet"
3, 372000, Text_t, "ter"
3, 372480, Text_t, " run"
3, 373440, Text_t, " run"
3, 374400, Text_t, "/Run"
3, 374880, Text_t, "a"
3, 375360, Text_t, "way"
3, 376320, Text_t, " run"
3, 376800, Text_t, "a"
3, 377280, Text_t, "way"
3, 378240, Text_t, " ba"
3, 378720, Text_t, "~"
3, 379200, Text_t, "by..."
3, 379200, End_track
4, 0, Start_track
4, 0, Control_c, 0, 10, 125
4, 0, Title_t, "Bruno Mars - Runaway Baby 2010"
4, 0, Sequencer_specific, 5, 5, 15, 9, 12, 64
4, 0, Sequencer_specific, 15, 5, 15, 6, 71, 101, 110, 101, 114, 97, 108, 32, 77, 73, 68, 73
4, 0, Key_signature, 1, "minor"
4, 0, Sequencer_specific, 4, 5, 15, 16, 0
4, 0, Program_c, 0, 82
4, 6240, Note_on_c, 0, 71, 1
4, 7200, Note_off_c, 0, 71, 0
4, 7200, Note_on_c, 0, 71, 1
4, 7680, Sequencer_specific, 6, 5, 15, 13, 71, 1, 0
4, 8640, Note_off_c, 0, 71, 0
4, 11040, Note_on_c, 0, 71, 1
4, 11280, Note_off_c, 0, 71, 0
4, 11280, Note_on_c, 0, 71, 1
4, 11520, Note_off_c, 0, 71, 0
4, 11520, Note_on_c, 0, 71, 1
4, 15360, Note_off_c, 0, 71, 0
4, 17760, Note_on_c, 0, 76, 89
4, 18240, Note_off_c, 0, 76, 0
4, 18240, Note_on_c, 0, 79, 89
4, 18720, Note_off_c, 0, 79, 0
4, 18720, Note_on_c, 0, 76, 89
4, 19200, Note_off_c, 0, 76, 0
4, 19200, Note_on_c, 0, 79, 89
4, 20160, Note_off_c, 0, 79, 0
4, 20160, Note_on_c, 0, 79, 89
4, 20640, Note_off_c, 0, 79, 0
4, 20640, Note_on_c, 0, 76, 89
4, 21120, Note_off_c, 0, 76, 0
4, 21120, Note_on_c, 0, 79, 89
4, 22080, Note_off_c, 0, 79, 0
4, 22080, Note_on_c, 0, 79, 89
4, 23040, Note_off_c, 0, 79, 0
4, 23040, Note_on_c, 0, 79, 89
4, 23520, Note_off_c, 0, 79, 0
4, 23520, Note_on_c, 0, 79, 89
4, 23520, Sequencer_specific, 5, 5, 15, 15, 0, 2
4, 24000, Note_off_c, 0, 79, 0
4, 24000, Note_on_c, 0, 79, 89
4, 24480, Note_off_c, 0, 79, 0
4, 24480, Note_on_c, 0, 74, 89
4, 24960, Sequencer_specific, 6, 5, 15, 13, 74, 89, 0
4, 25920, Note_off_c, 0, 74, 0
4, 26400, Note_on_c, 0, 76, 89
4, 26880, Note_off_c, 0, 76, 0
4, 26880, Note_on_c, 0, 79, 89
4, 27360, Note_off_c, 0, 79, 0
4, 27360, Note_on_c, 0, 79, 89
4, 27360, Sequencer_specific, 5, 5, 15, 15, 0, 2
4, 27840, Note_off_c, 0, 79, 0
4, 27840, Note_on_c, 0, 79, 89
4, 28320, Note_off_c, 0, 79, 0
4, 28320, Note_on_c, 0, 76, 89
4, 28800, Note_off_c, 0, 76, 0
4, 28800, Note_on_c, 0, 79, 89
4, 29760, Note_off_c, 0, 79, 0
4, 29760, Note_on_c, 0, 79, 89
4, 30240, Note_off_c, 0, 79, 0
4, 30240, Note_on_c, 0, 76, 89
4, 30720, Note_off_c, 0, 76, 0
4, 30720, Note_on_c, 0, 79, 89
4, 31200, Note_off_c, 0, 79, 0
4, 31200, Note_on_c, 0, 79, 89
4, 31200, Sequencer_specific, 5, 5, 15, 15, 0, 2
4, 31680, Note_off_c, 0, 79, 0
4, 31680, Note_on_c, 0, 79, 89
4, 32160, Note_off_c, 0, 79, 0
4, 32160, Note_on_c, 0, 74, 89
4, 32640, Sequencer_specific, 6, 5, 15, 13, 74, 89, 0
4, 33600, Note_off_c, 0, 74, 0
4, 34080, Note_on_c, 0, 76, 89
4, 34560, Note_off_c, 0, 76, 0
4, 34560, Note_on_c, 0, 79, 89
4, 35040, Note_off_c, 0, 79, 0
4, 35040, Note_on_c, 0, 79, 89
4, 35040, Sequencer_specific, 5, 5, 15, 15, 0, 2
4, 35520, Note_off_c, 0, 79, 0
4, 35520, Note_on_c, 0, 79, 89
4, 36000, Note_off_c, 0, 79, 0
4, 36000, Note_on_c, 0, 76, 89
4, 36480, Note_off_c, 0, 76, 0
4, 36480, Note_on_c, 0, 79, 89
4, 36960, Note_off_c, 0, 79, 0
4, 36960, Note_on_c, 0, 79, 89
4, 36960, Sequencer_specific, 5, 5, 15, 15, 0, 2
4, 37440, Note_off_c, 0, 79, 0
4, 37440, Note_on_c, 0, 79, 89
4, 37920, Note_off_c, 0, 79, 0
4, 37920, Note_on_c, 0, 76, 89
4, 38400, Note_off_c, 0, 76, 0
4, 38400, Note_on_c, 0, 79, 89
4, 38880, Note_off_c, 0, 79, 0
4, 38880, Note_on_c, 0, 79, 89
4, 38880, Sequencer_specific, 5, 5, 15, 15, 0, 2
4, 39360, Note_off_c, 0, 79, 0
4, 39360, Note_on_c, 0, 76, 89
4, 39840, Note_off_c, 0, 76, 0
4, 39840, Note_on_c, 0, 79, 89
4, 40320, Note_off_c, 0, 79, 0
4, 40320, Note_on_c, 0, 79, 89
4, 40800, Note_off_c, 0, 79, 0
4, 40800, Note_on_c, 0, 76, 89
4, 40800, Sequencer_specific, 5, 5, 15, 15, 0, 2
4, 41280, Note_off_c, 0, 76, 0
4, 41280, Note_on_c, 0, 79, 89
4, 41760, Note_off_c, 0, 79, 0
4, 41760, Note_on_c, 0, 76, 89
4, 42240, Note_off_c, 0, 76, 0
4, 42240, Note_on_c, 0, 79, 89
4, 43200, Note_off_c, 0, 79, 0
4, 43200, Note_on_c, 0, 79, 89
4, 43680, Note_off_c, 0, 79, 0
4, 43680, Note_on_c, 0, 76, 89
4, 44160, Note_off_c, 0, 76, 0
4, 44160, Note_on_c, 0, 79, 89
4, 45120, Note_off_c, 0, 79, 0
4, 45120, Note_on_c, 0, 79, 89
4, 45600, Note_off_c, 0, 79, 0
4, 45600, Note_on_c, 0, 76, 89
4, 46080, Note_off_c, 0, 76, 0
4, 46080, Note_on_c, 0, 79, 89
4, 46560, Note_off_c, 0, 79, 0
4, 46560, Note_on_c, 0, 79, 89
4, 46560, Sequencer_specific, 5, 5, 15, 15, 0, 2
4, 47040, Note_off_c, 0, 79, 0
4, 47040, Note_on_c, 0, 76, 89
4, 47520, Note_off_c, 0, 76, 0
4, 47520, Note_on_c, 0, 79, 89
4, 48000, Note_off_c, 0, 79, 0
4, 48000, Note_on_c, 0, 74, 89
4, 48480, Note_off_c, 0, 74, 0
4, 48480, Note_on_c, 0, 71, 89
4, 48480, Sequencer_specific, 5, 5, 15, 15, 0, 2
4, 48960, Note_off_c, 0, 71, 0
4, 48960, Note_on_c, 0, 74, 89
4, 49440, Note_off_c, 0, 74, 0
4, 49440, Note_on_c, 0, 75, 89
4, 49920, Note_off_c, 0, 75, 0
4, 49920, Note_on_c, 0, 76, 89
4, 50880, Note_off_c, 0, 76, 0
4, 50880, Note_on_c, 0, 71, 1
4, 51840, Note_off_c, 0, 71, 0
4, 52320, Note_on_c, 0, 76, 89
4, 52800, Note_off_c, 0, 76, 0
4, 52800, Note_on_c, 0, 79, 89
4, 53280, Note_off_c, 0, 79, 0
4, 53280, Note_on_c, 0, 80, 89
4, 53760, Note_off_c, 0, 80, 0
4, 53760, Note_on_c, 0, 81, 89
4, 54240, Note_off_c, 0, 81, 0
4, 54240, Note_on_c, 0, 71, 1
4, 54240, Sequencer_specific, 5, 5, 15, 15, 0, 2
4, 54720, Note_off_c, 0, 71, 0
4, 54720, Note_on_c, 0, 71, 1
4, 55200, Note_off_c, 0, 71, 0
4, 55200, Note_on_c, 0, 71, 1
4, 55680, Note_off_c, 0, 71, 0
4, 55680, Note_on_c, 0, 71, 1
4, 56160, Note_off_c, 0, 71, 0
4, 56160, Note_on_c, 0, 71, 89
4, 56160, Sequencer_specific, 5, 5, 15, 15, 0, 2
4, 56640, Note_off_c, 0, 71, 0
4, 56640, Note_on_c, 0, 74, 89
4, 57120, Note_off_c, 0, 74, 0
4, 57120, Note_on_c, 0, 75, 89
4, 57600, Note_off_c, 0, 75, 0
4, 57600, Note_on_c, 0, 76, 89
4, 58080, Note_off_c, 0, 76, 0
4, 58080, Note_on_c, 0, 76, 89
4, 58080, Sequencer_specific, 5, 5, 15, 15, 0, 2
4, 58560, Note_off_c, 0, 76, 0
4, 58560, Note_on_c, 0, 76, 89
4, 59040, Note_off_c, 0, 76, 0
4, 59040, Note_on_c, 0, 76, 89
4, 59520, Note_off_c, 0, 76, 0
4, 59520, Note_on_c, 0, 76, 89
4, 60000, Note_off_c, 0, 76, 0
4, 60000, Note_on_c, 0, 76, 89
4, 60000, Sequencer_specific, 5, 5, 15, 15, 0, 2
4, 60480, Note_off_c, 0, 76, 0
4, 60480, Note_on_c, 0, 79, 89
4, 60960, Note_off_c, 0, 79, 0
4, 60960, Note_on_c, 0, 80, 89
4, 61440, Note_off_c, 0, 80, 0
4, 61440, Note_on_c, 0, 81, 89
4, 61920, Note_off_c, 0, 81, 0
4, 61920, Note_on_c, 0, 71, 1
4, 61920, Sequencer_specific, 5, 5, 15, 15, 0, 2
4, 62400, Note_off_c, 0, 71, 0
4, 62400, Note_on_c, 0, 71, 1
4, 62880, Note_off_c, 0, 71, 0
4, 62880, Note_on_c, 0, 71, 1
4, 63360, Note_off_c, 0, 71, 0
4, 63360, Note_on_c, 0, 71, 1
4, 63840, Note_off_c, 0, 71, 0
4, 63840, Note_on_c, 0, 71, 89
4, 63840, Sequencer_specific, 5, 5, 15, 15, 0, 2
4, 64320, Note_off_c, 0, 71, 0
4, 64320, Note_on_c, 0, 74, 89
4, 64800, Note_off_c, 0, 74, 0
4, 64800, Note_on_c, 0, 75, 89
4, 65280, Note_off_c, 0, 75, 0
4, 65280, Note_on_c, 0, 76, 89
4, 65760, Note_off_c, 0, 76, 0
4, 65760, Note_on_c, 0, 71, 1
4, 65760, Sequencer_specific, 5, 5, 15, 15, 0, 2
4, 66240, Note_off_c, 0, 71, 0
4, 66240, Note_on_c, 0, 71, 1
4, 66720, Note_off_c, 0, 71, 0
4, 66720, Note_on_c, 0, 71, 1
4, 67200, Note_off_c, 0, 71, 0
4, 67200, Note_on_c, 0, 71, 1
4, 67680, Note_off_c, 0, 71, 0
4, 67680, Note_on_c, 0, 71, 89
4, 67680, Sequencer_specific, 5, 5, 15, 15, 0, 2
4, 68160, Note_off_c, 0, 71, 0
4, 68160, Note_on_c, 0, 76, 89
4, 68640, Note_off_c, 0, 76, 0
4, 68640, Note_on_c, 0, 80, 89
4, 69120, Note_off_c, 0, 80, 0
4, 69120, Note_on_c, 0, 81, 89
4, 69600, Note_off_c, 0, 81, 0
4, 69600, Note_on_c, 0, 71, 1
4, 69600, Sequencer_specific, 5, 5, 15, 15, 0, 2
4, 70080, Note_off_c, 0, 71, 0
4, 70080, Note_on_c, 0, 71, 1
4, 70560, Note_off_c, 0, 71, 0
4, 70560, Note_on_c, 0, 71, 1
4, 71040, Note_off_c, 0, 71, 0
4, 71040, Note_on_c, 0, 71, 1
4, 71520, Note_off_c, 0, 71, 0
4, 71520, Note_on_c, 0, 76, 89
4, 71520, Sequencer_specific, 5, 5, 15, 15, 0, 2
4, 72000, Note_off_c, 0, 76, 0
4, 72000, Note_on_c, 0, 79, 89
4, 72480, Note_off_c, 0, 79, 0
4, 72480, Note_on_c, 0, 76, 89
4, 72960, Note_off_c, 0, 76, 0
4, 72960, Note_on_c, 0, 79, 89
4, 73920, Note_off_c, 0, 79, 0
4, 73920, Note_on_c, 0, 79, 89
4, 74400, Note_off_c, 0, 79, 0
4, 74400, Note_on_c, 0, 76, 89
4, 74880, Note_off_c, 0, 76, 0
4, 74880, Note_on_c, 0, 79, 89
4, 75840, Note_off_c, 0, 79, 0
4, 75840, Note_on_c, 0, 79, 89
4, 76800, Note_off_c, 0, 79, 0
4, 76800, Note_on_c, 0, 79, 89
4, 77280, Note_off_c, 0, 79, 0
4, 77280, Note_on_c, 0, 76, 1
4, 77280, Sequencer_specific, 5, 5, 15, 15, 0, 2
4, 77760, Note_off_c, 0, 76, 0
4, 77760, Note_on_c, 0, 79, 1
4, 78240, Note_off_c, 0, 79, 0
4, 78240, Note_on_c, 0, 76, 1
4, 78720, Note_off_c, 0, 76, 0
4, 78720, Note_on_c, 0, 79, 89
4, 79680, Note_off_c, 0, 79, 0
4, 80640, Note_on_c, 0, 83, 89
4, 81600, Note_off_c, 0, 83, 0
4, 81600, Note_on_c, 0, 83, 89
4, 82560, Note_off_c, 0, 83, 0
4, 82560, Note_on_c, 0, 83, 89
4, 83040, Note_off_c, 0, 83, 0
4, 83040, Note_on_c, 0, 83, 89
4, 83520, Note_off_c, 0, 83, 0
4, 83520, Note_on_c, 0, 83, 89
4, 84480, Note_off_c, 0, 83, 0
4, 84480, Note_on_c, 0, 83, 89
4, 84960, Note_off_c, 0, 83, 0
4, 84960, Note_on_c, 0, 83, 89
4, 85440, Note_off_c, 0, 83, 0
4, 85440, Note_on_c, 0, 83, 89
4, 86400, Note_off_c, 0, 83, 0
4, 86400, Note_on_c, 0, 81, 89
4, 86880, Note_off_c, 0, 81, 0
4, 86880, Note_on_c, 0, 79, 89
4, 86880, Sequencer_specific, 5, 5, 15, 15, 0, 2
4, 87360, Note_off_c, 0, 79, 0
4, 87360, Note_on_c, 0, 76, 89
4, 87840, Note_off_c, 0, 76, 0
4, 87840, Note_on_c, 0, 76, 89
4, 88320, Note_off_c, 0, 76, 0
4, 88320, Note_on_c, 0, 83, 89
4, 88800, Note_off_c, 0, 83, 0
4, 88800, Note_on_c, 0, 83, 89
4, 88800, Sequencer_specific, 5, 5, 15, 15, 0, 2
4, 89280, Note_off_c, 0, 83, 0
4, 89280, Note_on_c, 0, 83, 89
4, 89760, Note_off_c, 0, 83, 0
4, 89760, Note_on_c, 0, 83, 89
4, 90240, Note_off_c, 0, 83, 0
4, 90240, Note_on_c, 0, 81, 89
4, 90720, Note_off_c, 0, 81, 0
4, 90720, Note_on_c, 0, 79, 89
4, 90720, Sequencer_specific, 5, 5, 15, 15, 0, 2
4, 91200, Note_off_c, 0, 79, 0
4, 91200, Note_on_c, 0, 83, 89
4, 91680, Note_off_c, 0, 83, 0
4, 91680, Note_on_c, 0, 81, 89
4, 92160, Sequencer_specific, 6, 5, 15, 13, 81, 89, 0
4, 94080, Note_off_c, 0, 81, 0
4, 94560, Note_on_c, 0, 76, 89
4, 95040, Note_off_c, 0, 76, 0
4, 95040, Note_on_c, 0, 79, 89
4, 95520, Note_off_c, 0, 79, 0
4, 95520, Note_on_c, 0, 81, 89
4, 96000, Note_off_c, 0, 81, 0
4, 96000, Note_on_c, 0, 83, 89
4, 96960, Note_off_c, 0, 83, 0
4, 96960, Note_on_c, 0, 83, 89
4, 97920, Note_off_c, 0, 83, 0
4, 97920, Note_on_c, 0, 83, 89
4, 98400, Note_off_c, 0, 83, 0
4, 98400, Note_on_c, 0, 83, 89
4, 98880, Note_off_c, 0, 83, 0
4, 98880, Note_on_c, 0, 83, 89
4, 99840, Note_off_c, 0, 83, 0
4, 99840, Note_on_c, 0, 83, 89
4, 100320, Note_off_c, 0, 83, 0
4, 100320, Note_on_c, 0, 83, 89
4, 100800, Note_off_c, 0, 83, 0
4, 100800, Note_on_c, 0, 83, 89
4, 101760, Note_off_c, 0, 83, 0
4, 101760, Note_on_c, 0, 81, 89
4, 102240, Note_off_c, 0, 81, 0
4, 102240, Note_on_c, 0, 79, 89
4, 102240, Sequencer_specific, 5, 5, 15, 15, 0, 2
4, 102720, Note_off_c, 0, 79, 0
4, 102720, Note_on_c, 0, 76, 89
4, 103200, Note_off_c, 0, 76, 0
4, 103200, Note_on_c, 0, 76, 89
4, 103680, Note_off_c, 0, 76, 0
4, 103680, Note_on_c, 0, 83, 89
4, 104160, Note_off_c, 0, 83, 0
4, 104160, Note_on_c, 0, 83, 89
4, 104160, Sequencer_specific, 5, 5, 15, 15, 0, 2
4, 104640, Note_off_c, 0, 83, 0
4, 104640, Note_on_c, 0, 83, 89
4, 105120, Note_off_c, 0, 83, 0
4, 105120, Note_on_c, 0, 83, 89
4, 105600, Note_off_c, 0, 83, 0
4, 105600, Note_on_c, 0, 81, 89
4, 106080, Note_off_c, 0, 81, 0
4, 106080, Note_on_c, 0, 79, 89
4, 106080, Sequencer_specific, 5, 5, 15, 15, 0, 2
4, 106560, Note_off_c, 0, 79, 0
4, 106560, Note_on_c, 0, 83, 89
4, 107040, Note_off_c, 0, 83, 0
4, 107040, Note_on_c, 0, 81, 89
4, 107520, Sequencer_specific, 6, 5, 15, 13, 81, 89, 0
4, 108480, Note_off_c, 0, 81, 0
4, 108960, Note_on_c, 0, 76, 89
4, 109440, Note_off_c, 0, 76, 0
4, 109440, Note_on_c, 0, 79, 89
4, 109920, Note_off_c, 0, 79, 0
4, 109920, Note_on_c, 0, 81, 89
4, 109920, Sequencer_specific, 5, 5, 15, 15, 0, 2
4, 110400, Note_off_c, 0, 81, 0
4, 110400, Note_on_c, 0, 79, 89
4, 110880, Note_off_c, 0, 79, 0
4, 110880, Note_on_c, 0, 83, 89
4, 111360, Sequencer_specific, 6, 5, 15, 13, 83, 89, 0
4, 112800, Note_off_c, 0, 83, 0
4, 112800, Note_on_c, 0, 83, 89
4, 113280, Note_off_c, 0, 83, 0
4, 113280, Note_on_c, 0, 83, 89
4, 113760, Note_off_c, 0, 83, 0
4, 113760, Note_on_c, 0, 81, 89
4, 113760, Sequencer_specific, 5, 5, 15, 15, 0, 2
4, 114240, Note_off_c, 0, 81, 0
4, 114240, Note_on_c, 0, 79, 89
4, 114720, Note_off_c, 0, 79, 0
4, 114720, Note_on_c, 0, 81, 89
4, 115200, Sequencer_specific, 6, 5, 15, 13, 81, 89, 0
4, 116640, Note_off_c, 0, 81, 0
4, 117120, Note_on_c, 0, 79, 89
4, 117600, Note_off_c, 0, 79, 0
4, 117600, Note_on_c, 0, 81, 89
4, 117600, Sequencer_specific, 5, 5, 15, 15, 0, 2
4, 118080, Note_off_c, 0, 81, 0
4, 118080, Note_on_c, 0, 79, 89
4, 118560, Note_off_c, 0, 79, 0
4, 118560, Note_on_c, 0, 83, 89
4, 119040, Sequencer_specific, 6, 5, 15, 13, 83, 89, 0
4, 119520, Note_off_c, 0, 83, 0
4, 119520, Note_on_c, 0, 83, 89
4, 120480, Note_off_c, 0, 83, 0
4, 120480, Note_on_c, 0, 83, 89
4, 120960, Note_off_c, 0, 83, 0
4, 120960, Note_on_c, 0, 83, 89
4, 121440, Note_off_c, 0, 83, 0
4, 121440, Note_on_c, 0, 81, 89
4, 121440, Sequencer_specific, 5, 5, 15, 15, 0, 2
4, 121920, Note_off_c, 0, 81, 0
4, 121920, Note_on_c, 0, 79, 89
4, 122400, Note_off_c, 0, 79, 0
4, 122400, Note_on_c, 0, 81, 89
4, 122880, Sequencer_specific, 6, 5, 15, 13, 81, 89, 0
4, 124320, Note_off_c, 0, 81, 0
4, 124800, Note_on_c, 0, 76, 89
4, 125280, Note_off_c, 0, 76, 0
4, 125280, Note_on_c, 0, 78, 89
4, 125280, Sequencer_specific, 5, 5, 15, 15, 0, 2
4, 125760, Note_off_c, 0, 78, 0
4, 125760, Note_on_c, 0, 79, 89
4, 126240, Note_off_c, 0, 79, 0
4, 126240, Note_on_c, 0, 81, 89
4, 126720, Note_off_c, 0, 81, 0
4, 126720, Note_on_c, 0, 83, 89
4, 127680, Note_off_c, 0, 83, 0
4, 127680, Note_on_c, 0, 83, 89
4, 128640, Note_off_c, 0, 83, 0
4, 128640, Note_on_c, 0, 83, 89
4, 129120, Note_off_c, 0, 83, 0
4, 129120, Note_on_c, 0, 83, 89
4, 129600, Note_off_c, 0, 83, 0
4, 129600, Note_on_c, 0, 83, 89
4, 130560, Note_off_c, 0, 83, 0
4, 130560, Note_on_c, 0, 83, 89
4, 131040, Note_off_c, 0, 83, 0
4, 131040, Note_on_c, 0, 83, 89
4, 131520, Note_off_c, 0, 83, 0
4, 131520, Note_on_c, 0, 83, 89
4, 132480, Note_off_c, 0, 83, 0
4, 132480, Note_on_c, 0, 81, 89
4, 132960, Note_off_c, 0, 81, 0
4, 132960, Note_on_c, 0, 79, 89
4, 133440, Note_off_c, 0, 79, 0
4, 133440, Note_on_c, 0, 76, 89
4, 134400, Note_off_c, 0, 76, 0
4, 139680, Note_on_c, 0, 74, 1
4, 139680, Sequencer_specific, 4, 5, 15, 15, 1
4, 140160, Sequencer_specific, 6, 5, 15, 13, 74, 1, 0
4, 140160, Sequencer_specific, 4, 5, 15, 15, 1
4, 141120, Note_off_c, 0, 74, 0
4, 144480, Note_on_c, 0, 71, 1
4, 144480, Sequencer_specific, 4, 5, 15, 15, 2
4, 145440, Note_off_c, 0, 71, 0
4, 145440, Note_on_c, 0, 71, 1
4, 145440, Sequencer_specific, 4, 5, 15, 15, 2
4, 145920, Sequencer_specific, 6, 5, 15, 13, 71, 1, 0
4, 146880, Note_off_c, 0, 71, 0
4, 148320, Note_on_c, 0, 76, 89
4, 148800, Note_off_c, 0, 76, 0
4, 148800, Note_on_c, 0, 79, 89
4, 149280, Note_off_c, 0, 79, 0
4, 149280, Note_on_c, 0, 76, 89
4, 149760, Note_off_c, 0, 76, 0
4, 149760, Note_on_c, 0, 79, 89
4, 150720, Note_off_c, 0, 79, 0
4, 150720, Note_on_c, 0, 79, 89
4, 151200, Note_off_c, 0, 79, 0
4, 151200, Note_on_c, 0, 76, 89
4, 151680, Note_off_c, 0, 76, 0
4, 151680, Note_on_c, 0, 79, 89
4, 152640, Note_off_c, 0, 79, 0
4, 152640, Note_on_c, 0, 79, 89
4, 153600, Note_off_c, 0, 79, 0
4, 153600, Note_on_c, 0, 79, 89
4, 154080, Note_off_c, 0, 79, 0
4, 154080, Note_on_c, 0, 79, 89
4, 154080, Sequencer_specific, 5, 5, 15, 15, 0, 2
4, 154560, Note_off_c, 0, 79, 0
4, 154560, Note_on_c, 0, 79, 89
4, 155040, Note_off_c, 0, 79, 0
4, 155040, Note_on_c, 0, 74, 89
4, 155520, Sequencer_specific, 6, 5, 15, 13, 74, 89, 0
4, 156000, Note_off_c, 0, 74, 0
4, 156000, Note_on_c, 0, 79, 89
4, 156000, Sequencer_specific, 5, 5, 15, 15, 0, 2
4, 156480, Note_off_c, 0, 79, 0
4, 156480, Note_on_c, 0, 79, 89
4, 156960, Note_off_c, 0, 79, 0
4, 156960, Note_on_c, 0, 79, 89
4, 157440, Note_off_c, 0, 79, 0
4, 157440, Note_on_c, 0, 79, 89
4, 157920, Note_off_c, 0, 79, 0
4, 157920, Note_on_c, 0, 79, 89
4, 158400, Note_off_c, 0, 79, 0
4, 158400, Note_on_c, 0, 79, 89
4, 159360, Note_off_c, 0, 79, 0
4, 159360, Note_on_c, 0, 79, 89
4, 159840, Note_off_c, 0, 79, 0
4, 159840, Note_on_c, 0, 79, 89
4, 159840, Sequencer_specific, 5, 5, 15, 15, 0, 2
4, 160320, Note_off_c, 0, 79, 0
4, 160320, Note_on_c, 0, 79, 89
4, 160800, Note_off_c, 0, 79, 0
4, 160800, Note_on_c, 0, 79, 89
4, 161280, Note_off_c, 0, 79, 0
4, 161280, Note_on_c, 0, 79, 89
4, 161760, Note_off_c, 0, 79, 0
4, 161760, Note_on_c, 0, 79, 89
4, 161760, Sequencer_specific, 5, 5, 15, 15, 0, 2
4, 162240, Note_off_c, 0, 79, 0
4, 162240, Note_on_c, 0, 79, 89
4, 162720, Note_off_c, 0, 79, 0
4, 162720, Note_on_c, 0, 76, 89
4, 163200, Sequencer_specific, 6, 5, 15, 13, 76, 89, 0
4, 164160, Note_off_c, 0, 76, 0
4, 164640, Note_on_c, 0, 79, 89
4, 165120, Note_off_c, 0, 79, 0
4, 165120, Note_on_c, 0, 79, 89
4, 165600, Note_off_c, 0, 79, 0
4, 165600, Note_on_c, 0, 79, 89
4, 165600, Sequencer_specific, 5, 5, 15, 15, 0, 2
4, 166080, Note_off_c, 0, 79, 0
4, 166080, Note_on_c, 0, 79, 89
4, 166560, Note_off_c, 0, 79, 0
4, 166560, Note_on_c, 0, 79, 89
4, 167040, Note_off_c, 0, 79, 0
4, 167040, Note_on_c, 0, 79, 89
4, 167520, Note_off_c, 0, 79, 0
4, 167520, Note_on_c, 0, 79, 89
4, 167520, Sequencer_specific, 5, 5, 15, 15, 0, 2
4, 168000, Note_off_c, 0, 79, 0
4, 168000, Note_on_c, 0, 79, 89
4, 168480, Note_off_c, 0, 79, 0
4, 168480, Note_on_c, 0, 76, 89
4, 168960, Note_off_c, 0, 76, 0
4, 168960, Note_on_c, 0, 79, 89
4, 169440, Note_off_c, 0, 79, 0
4, 169440, Note_on_c, 0, 79, 89
4, 169440, Sequencer_specific, 5, 5, 15, 15, 0, 2
4, 169920, Note_off_c, 0, 79, 0
4, 169920, Note_on_c, 0, 76, 89
4, 170400, Note_off_c, 0, 76, 0
4, 170400, Note_on_c, 0, 79, 89
4, 170880, Sequencer_specific, 6, 5, 15, 13, 79, 89, 0
4, 171840, Note_off_c, 0, 79, 0
4, 172320, Note_on_c, 0, 79, 89
4, 172800, Note_off_c, 0, 79, 0
4, 172800, Note_on_c, 0, 79, 89
4, 173280, Note_off_c, 0, 79, 0
4, 173280, Note_on_c, 0, 79, 89
4, 173760, Note_off_c, 0, 79, 0
4, 173760, Note_on_c, 0, 79, 89
4, 174720, Note_off_c, 0, 79, 0
4, 174720, Note_on_c, 0, 79, 89
4, 175200, Note_off_c, 0, 79, 0
4, 175200, Note_on_c, 0, 79, 89
4, 175200, Sequencer_specific, 5, 5, 15, 15, 0, 2
4, 175680, Note_off_c, 0, 79, 0
4, 175680, Note_on_c, 0, 79, 89
4, 176160, Note_off_c, 0, 79, 0
4, 176160, Note_on_c, 0, 79, 89
4, 176640, Note_off_c, 0, 79, 0
4, 176640, Note_on_c, 0, 79, 89
4, 177120, Note_off_c, 0, 79, 0
4, 177120, Note_on_c, 0, 79, 89
4, 177120, Sequencer_specific, 5, 5, 15, 15, 0, 2
4, 177600, Note_off_c, 0, 79, 0
4, 177600, Note_on_c, 0, 79, 89
4, 178080, Note_off_c, 0, 79, 0
4, 178080, Note_on_c, 0, 79, 89
4, 178560, Note_off_c, 0, 79, 0
4, 178560, Note_on_c, 0, 79, 89
4, 179040, Note_off_c, 0, 79, 0
4, 179040, Note_on_c, 0, 71, 89
4, 179040, Sequencer_specific, 5, 5, 15, 15, 0, 2
4, 179520, Note_off_c, 0, 71, 0
4, 179520, Note_on_c, 0, 74, 89
4, 180000, Note_off_c, 0, 74, 0
4, 180000, Note_on_c, 0, 75, 89
4, 180480, Note_off_c, 0, 75, 0
4, 180480, Note_on_c, 0, 76, 89
4, 181440, Note_off_c, 0, 76, 0
4, 181440, Note_on_c, 0, 71, 1
4, 182400, Note_off_c, 0, 71, 0
4, 182880, Note_on_c, 0, 76, 89
4, 183360, Note_off_c, 0, 76, 0
4, 183360, Note_on_c, 0, 79, 89
4, 183840, Note_off_c, 0, 79, 0
4, 183840, Note_on_c, 0, 80, 89
4, 184320, Note_off_c, 0, 80, 0
4, 184320, Note_on_c, 0, 81, 89
4, 184800, Note_off_c, 0, 81, 0
4, 184800, Note_on_c, 0, 71, 1
4, 184800, Sequencer_specific, 5, 5, 15, 15, 0, 2
4, 185280, Note_off_c, 0, 71, 0
4, 185280, Note_on_c, 0, 71, 1
4, 185760, Note_off_c, 0, 71, 0
4, 185760, Note_on_c, 0, 71, 1
4, 186240, Note_off_c, 0, 71, 0
4, 186240, Note_on_c, 0, 71, 1
4, 186720, Note_off_c, 0, 71, 0
4, 186720, Note_on_c, 0, 71, 89
4, 186720, Sequencer_specific, 5, 5, 15, 15, 0, 2
4, 187200, Note_off_c, 0, 71, 0
4, 187200, Note_on_c, 0, 74, 89
4, 187680, Note_off_c, 0, 74, 0
4, 187680, Note_on_c, 0, 75, 89
4, 188160, Note_off_c, 0, 75, 0
4, 188160, Note_on_c, 0, 76, 89
4, 188640, Note_off_c, 0, 76, 0
4, 188640, Note_on_c, 0, 76, 89
4, 188640, Sequencer_specific, 5, 5, 15, 15, 0, 2
4, 189120, Note_off_c, 0, 76, 0
4, 189120, Note_on_c, 0, 76, 89
4, 189600, Note_off_c, 0, 76, 0
4, 189600, Note_on_c, 0, 76, 89
4, 190080, Note_off_c, 0, 76, 0
4, 190080, Note_on_c, 0, 76, 89
4, 190560, Note_off_c, 0, 76, 0
4, 190560, Note_on_c, 0, 76, 89
4, 190560, Sequencer_specific, 5, 5, 15, 15, 0, 2
4, 191040, Note_off_c, 0, 76, 0
4, 191040, Note_on_c, 0, 79, 89
4, 191520, Note_off_c, 0, 79, 0
4, 191520, Note_on_c, 0, 80, 89
4, 192000, Note_off_c, 0, 80, 0
4, 192000, Note_on_c, 0, 81, 89
4, 192480, Note_off_c, 0, 81, 0
4, 192480, Note_on_c, 0, 71, 1
4, 192480, Sequencer_specific, 5, 5, 15, 15, 0, 2
4, 192960, Note_off_c, 0, 71, 0
4, 192960, Note_on_c, 0, 71, 1
4, 193440, Note_off_c, 0, 71, 0
4, 193440, Note_on_c, 0, 71, 1
4, 193920, Note_off_c, 0, 71, 0
4, 193920, Note_on_c, 0, 71, 1
4, 194400, Note_off_c, 0, 71, 0
4, 194400, Note_on_c, 0, 71, 89
4, 194400, Sequencer_specific, 5, 5, 15, 15, 0, 2
4, 194880, Note_off_c, 0, 71, 0
4, 194880, Note_on_c, 0, 74, 89
4, 195360, Note_off_c, 0, 74, 0
4, 195360, Note_on_c, 0, 75, 89
4, 195840, Note_off_c, 0, 75, 0
4, 195840, Note_on_c, 0, 76, 89
4, 196320, Note_off_c, 0, 76, 0
4, 196320, Note_on_c, 0, 71, 1
4, 196320, Sequencer_specific, 5, 5, 15, 15, 0, 2
4, 196800, Note_off_c, 0, 71, 0
4, 196800, Note_on_c, 0, 71, 1
4, 197280, Note_off_c, 0, 71, 0
4, 197280, Note_on_c, 0, 71, 1
4, 197760, Note_off_c, 0, 71, 0
4, 197760, Note_on_c, 0, 71, 1
4, 198240, Note_off_c, 0, 71, 0
4, 198240, Note_on_c, 0, 71, 89
4, 198240, Sequencer_specific, 5, 5, 15, 15, 0, 2
4, 198720, Note_off_c, 0, 71, 0
4, 198720, Note_on_c, 0, 76, 89
4, 199200, Note_off_c, 0, 76, 0
4, 199200, Note_on_c, 0, 80, 89
4, 199680, Note_off_c, 0, 80, 0
4, 199680, Note_on_c, 0, 81, 89
4, 200160, Note_off_c, 0, 81, 0
4, 200160, Note_on_c, 0, 71, 1
4, 200160, Sequencer_specific, 5, 5, 15, 15, 0, 2
4, 200640, Note_off_c, 0, 71, 0
4, 200640, Note_on_c, 0, 71, 1
4, 201120, Note_off_c, 0, 71, 0
4, 201120, Note_on_c, 0, 71, 1
4, 201600, Note_off_c, 0, 71, 0
4, 201600, Note_on_c, 0, 71, 1
4, 202080, Note_off_c, 0, 71, 0
4, 202080, Note_on_c, 0, 76, 89
4, 202080, Sequencer_specific, 5, 5, 15, 15, 0, 2
4, 202560, Note_off_c, 0, 76, 0
4, 202560, Note_on_c, 0, 79, 89
4, 203040, Note_off_c, 0, 79, 0
4, 203040, Note_on_c, 0, 76, 89
4, 203520, Note_off_c, 0, 76, 0
4, 203520, Note_on_c, 0, 79, 89
4, 204480, Note_off_c, 0, 79, 0
4, 204480, Note_on_c, 0, 79, 89
4, 204960, Note_off_c, 0, 79, 0
4, 204960, Note_on_c, 0, 76, 89
4, 205440, Note_off_c, 0, 76, 0
4, 205440, Note_on_c, 0, 79, 89
4, 206400, Note_off_c, 0, 79, 0
4, 206400, Note_on_c, 0, 79, 89
4, 207360, Note_off_c, 0, 79, 0
4, 207360, Note_on_c, 0, 79, 89
4, 207840, Note_off_c, 0, 79, 0
4, 207840, Note_on_c, 0, 76, 1
4, 207840, Sequencer_specific, 5, 5, 15, 15, 0, 2
4, 208320, Note_off_c, 0, 76, 0
4, 208320, Note_on_c, 0, 79, 1
4, 208800, Note_off_c, 0, 79, 0
4, 208800, Note_on_c, 0, 76, 1
4, 209280, Note_off_c, 0, 76, 0
4, 209280, Note_on_c, 0, 79, 89
4, 210240, Note_off_c, 0, 79, 0
4, 211200, Note_on_c, 0, 83, 89
4, 212160, Note_off_c, 0, 83, 0
4, 212160, Note_on_c, 0, 83, 89
4, 213120, Note_off_c, 0, 83, 0
4, 213120, Note_on_c, 0, 83, 89
4, 213600, Note_off_c, 0, 83, 0
4, 213600, Note_on_c, 0, 83, 89
4, 214080, Note_off_c, 0, 83, 0
4, 214080, Note_on_c, 0, 83, 89
4, 215040, Note_off_c, 0, 83, 0
4, 215040, Note_on_c, 0, 83, 89
4, 215520, Note_off_c, 0, 83, 0
4, 215520, Note_on_c, 0, 83, 89
4, 216000, Note_off_c, 0, 83, 0
4, 216000, Note_on_c, 0, 83, 89
4, 216960, Note_off_c, 0, 83, 0
4, 216960, Note_on_c, 0, 81, 89
4, 217440, Note_off_c, 0, 81, 0
4, 217440, Note_on_c, 0, 79, 89
4, 217440, Sequencer_specific, 5, 5, 15, 15, 0, 2
4, 217920, Note_off_c, 0, 79, 0
4, 217920, Note_on_c, 0, 76, 89
4, 218400, Note_off_c, 0, 76, 0
4, 218400, Note_on_c, 0, 76, 89
4, 218880, Note_off_c, 0, 76, 0
4, 218880, Note_on_c, 0, 83, 89
4, 219360, Note_off_c, 0, 83, 0
4, 219360, Note_on_c, 0, 83, 89
4, 219360, Sequencer_specific, 5, 5, 15, 15, 0, 2
4, 219840, Note_off_c, 0, 83, 0
4, 219840, Note_on_c, 0, 83, 89
4, 220320, Note_off_c, 0, 83, 0
4, 220320, Note_on_c, 0, 83, 89
4, 220800, Note_off_c, 0, 83, 0
4, 220800, Note_on_c, 0, 81, 89
4, 221280, Note_off_c, 0, 81, 0
4, 221280, Note_on_c, 0, 79, 89
4, 221280, Sequencer_specific, 5, 5, 15, 15, 0, 2
4, 221760, Note_off_c, 0, 79, 0
4, 221760, Note_on_c, 0, 83, 89
4, 222240, Note_off_c, 0, 83, 0
4, 222240, Note_on_c, 0, 81, 89
4, 222720, Sequencer_specific, 6, 5, 15, 13, 81, 89, 0
4, 224640, Note_off_c, 0, 81, 0
4, 225120, Note_on_c, 0, 76, 89
4, 225600, Note_off_c, 0, 76, 0
4, 225600, Note_on_c, 0, 79, 89
4, 226080, Note_off_c, 0, 79, 0
4, 226080, Note_on_c, 0, 81, 89
4, 226560, Note_off_c, 0, 81, 0
4, 226560, Note_on_c, 0, 83, 89
4, 227520, Note_off_c, 0, 83, 0
4, 227520, Note_on_c, 0, 83, 89
4, 228480, Note_off_c, 0, 83, 0
4, 228480, Note_on_c, 0, 83, 89
4, 228960, Note_off_c, 0, 83, 0
4, 228960, Note_on_c, 0, 83, 89
4, 229440, Note_off_c, 0, 83, 0
4, 229440, Note_on_c, 0, 83, 89
4, 230400, Note_off_c, 0, 83, 0
4, 230400, Note_on_c, 0, 83, 89
4, 230880, Note_off_c, 0, 83, 0
4, 230880, Note_on_c, 0, 83, 89
4, 231360, Note_off_c, 0, 83, 0
4, 231360, Note_on_c, 0, 83, 89
4, 232320, Note_off_c, 0, 83, 0
4, 232320, Note_on_c, 0, 81, 89
4, 232800, Note_off_c, 0, 81, 0
4, 232800, Note_on_c, 0, 79, 89
4, 232800, Sequencer_specific, 5, 5, 15, 15, 0, 2
4, 233280, Note_off_c, 0, 79, 0
4, 233280, Note_on_c, 0, 76, 89
4, 233760, Note_off_c, 0, 76, 0
4, 233760, Note_on_c, 0, 76, 89
4, 234240, Note_off_c, 0, 76, 0
4, 234240, Note_on_c, 0, 83, 89
4, 234720, Note_off_c, 0, 83, 0
4, 234720, Note_on_c, 0, 83, 89
4, 234720, Sequencer_specific, 5, 5, 15, 15, 0, 2
4, 235200, Note_off_c, 0, 83, 0
4, 235200, Note_on_c, 0, 83, 89
4, 235680, Note_off_c, 0, 83, 0
4, 235680, Note_on_c, 0, 83, 89
4, 236160, Note_off_c, 0, 83, 0
4, 236160, Note_on_c, 0, 81, 89
4, 236640, Note_off_c, 0, 81, 0
4, 236640, Note_on_c, 0, 79, 89
4, 236640, Sequencer_specific, 5, 5, 15, 15, 0, 2
4, 237120, Note_off_c, 0, 79, 0
4, 237120, Note_on_c, 0, 83, 89
4, 237600, Note_off_c, 0, 83, 0
4, 237600, Note_on_c, 0, 81, 89
4, 238080, Sequencer_specific, 6, 5, 15, 13, 81, 89, 0
4, 239040, Note_off_c, 0, 81, 0
4, 239520, Note_on_c, 0, 76, 89
4, 240000, Note_off_c, 0, 76, 0
4, 240000, Note_on_c, 0, 79, 89
4, 240480, Note_off_c, 0, 79, 0
4, 240480, Note_on_c, 0, 81, 89
4, 240480, Sequencer_specific, 5, 5, 15, 15, 0, 2
4, 240960, Note_off_c, 0, 81, 0
4, 240960, Note_on_c, 0, 79, 89
4, 241440, Note_off_c, 0, 79, 0
4, 241440, Note_on_c, 0, 83, 89
4, 241920, Sequencer_specific, 6, 5, 15, 13, 83, 89, 0
4, 243360, Note_off_c, 0, 83, 0
4, 243360, Note_on_c, 0, 83, 89
4, 243840, Note_off_c, 0, 83, 0
4, 243840, Note_on_c, 0, 83, 89
4, 244320, Note_off_c, 0, 83, 0
4, 244320, Note_on_c, 0, 81, 89
4, 244320, Sequencer_specific, 5, 5, 15, 15, 0, 2
4, 244800, Note_off_c, 0, 81, 0
4, 244800, Note_on_c, 0, 79, 89
4, 245280, Note_off_c, 0, 79, 0
4, 245280, Note_on_c, 0, 81, 89
4, 245760, Sequencer_specific, 6, 5, 15, 13, 81, 89, 0
4, 247200, Note_off_c, 0, 81, 0
4, 247680, Note_on_c, 0, 79, 89
4, 248160, Note_off_c, 0, 79, 0
4, 248160, Note_on_c, 0, 81, 89
4, 248160, Sequencer_specific, 5, 5, 15, 15, 0, 2
4, 248640, Note_off_c, 0, 81, 0
4, 248640, Note_on_c, 0, 79, 89
4, 249120, Note_off_c, 0, 79, 0
4, 249120, Note_on_c, 0, 83, 89
4, 249600, Sequencer_specific, 6, 5, 15, 13, 83, 89, 0
4, 250080, Note_off_c, 0, 83, 0
4, 250080, Note_on_c, 0, 83, 89
4, 251040, Note_off_c, 0, 83, 0
4, 251040, Note_on_c, 0, 83, 89
4, 251520, Note_off_c, 0, 83, 0
4, 251520, Note_on_c, 0, 83, 89
4, 252000, Note_off_c, 0, 83, 0
4, 252000, Note_on_c, 0, 81, 89
4, 252000, Sequencer_specific, 5, 5, 15, 15, 0, 2
4, 252480, Note_off_c, 0, 81, 0
4, 252480, Note_on_c, 0, 79, 89
4, 252960, Note_off_c, 0, 79, 0
4, 252960, Note_on_c, 0, 81, 89
4, 253440, Sequencer_specific, 6, 5, 15, 13, 81, 89, 0
4, 254880, Note_off_c, 0, 81, 0
4, 255360, Note_on_c, 0, 76, 89
4, 255840, Note_off_c, 0, 76, 0
4, 255840, Note_on_c, 0, 78, 89
4, 255840, Sequencer_specific, 5, 5, 15, 15, 0, 2
4, 256320, Note_off_c, 0, 78, 0
4, 256320, Note_on_c, 0, 79, 89
4, 256800, Note_off_c, 0, 79, 0
4, 256800, Note_on_c, 0, 81, 89
4, 257280, Note_off_c, 0, 81, 0
4, 257280, Note_on_c, 0, 83, 89
4, 258240, Note_off_c, 0, 83, 0
4, 258240, Note_on_c, 0, 83, 89
4, 259200, Note_off_c, 0, 83, 0
4, 259200, Note_on_c, 0, 83, 89
4, 259680, Note_off_c, 0, 83, 0
4, 259680, Note_on_c, 0, 83, 89
4, 260160, Note_off_c, 0, 83, 0
4, 260160, Note_on_c, 0, 83, 89
4, 261120, Note_off_c, 0, 83, 0
4, 261120, Note_on_c, 0, 83, 89
4, 261600, Note_off_c, 0, 83, 0
4, 261600, Note_on_c, 0, 83, 89
4, 262080, Note_off_c, 0, 83, 0
4, 262080, Note_on_c, 0, 83, 89
4, 263040, Note_off_c, 0, 83, 0
4, 263040, Note_on_c, 0, 81, 89
4, 263520, Note_off_c, 0, 81, 0
4, 263520, Note_on_c, 0, 79, 89
4, 264000, Note_off_c, 0, 79, 0
4, 264000, Note_on_c, 0, 76, 89
4, 264960, Note_off_c, 0, 76, 0
4, 268320, Note_on_c, 0, 67, 1
4, 268320, Sequencer_specific, 4, 5, 15, 15, 2
4, 268800, Sequencer_specific, 6, 5, 15, 13, 67, 1, 0
4, 268800, Sequencer_specific, 4, 5, 15, 15, 2
4, 269760, Note_off_c, 0, 67, 0
4, 272160, Note_on_c, 0, 67, 1
4, 272160, Sequencer_specific, 4, 5, 15, 15, 2
4, 272400, Note_off_c, 0, 67, 0
4, 272400, Note_on_c, 0, 67, 1
4, 272400, Sequencer_specific, 4, 5, 15, 15, 2
4, 272640, Note_off_c, 0, 67, 0
4, 272640, Note_on_c, 0, 67, 1
4, 276480, Note_off_c, 0, 67, 0
4, 277920, Note_on_c, 0, 71, 1
4, 278400, Note_off_c, 0, 71, 0
4, 278400, Note_on_c, 0, 71, 1
4, 278880, Note_off_c, 0, 71, 0
4, 278880, Note_on_c, 0, 71, 1
4, 279360, Note_off_c, 0, 71, 0
4, 279360, Note_on_c, 0, 71, 1
4, 279600, Note_off_c, 0, 71, 0
4, 279600, Note_on_c, 0, 71, 1
4, 279840, Note_off_c, 0, 71, 0
4, 279840, Note_on_c, 0, 71, 1
4, 280320, Note_off_c, 0, 71, 0
4, 280320, Note_on_c, 0, 71, 1
4, 281280, Note_off_c, 0, 71, 0
4, 281280, Note_on_c, 0, 71, 1
4, 282240, Note_off_c, 0, 71, 0
4, 282240, Note_on_c, 0, 71, 1
4, 282720, Note_off_c, 0, 71, 0
4, 282720, Note_on_c, 0, 71, 1
4, 283200, Note_off_c, 0, 71, 0
4, 283680, Note_on_c, 0, 71, 1
4, 284160, Note_off_c, 0, 71, 0
4, 284640, Note_on_c, 0, 71, 1
4, 285120, Note_off_c, 0, 71, 0
4, 285600, Note_on_c, 0, 71, 1
4, 286080, Note_off_c, 0, 71, 0
4, 286080, Note_on_c, 0, 71, 1
4, 286560, Note_off_c, 0, 71, 0
4, 286560, Note_on_c, 0, 71, 1
4, 286560, Sequencer_specific, 5, 5, 15, 15, 0, 2
4, 287040, Note_off_c, 0, 71, 0
4, 287040, Note_on_c, 0, 71, 1
4, 287520, Note_off_c, 0, 71, 0
4, 287520, Note_on_c, 0, 71, 1
4, 288000, Note_off_c, 0, 71, 0
4, 288000, Note_on_c, 0, 71, 1
4, 288960, Note_off_c, 0, 71, 0
4, 288960, Note_on_c, 0, 71, 1
4, 289920, Note_off_c, 0, 71, 0
4, 289920, Note_on_c, 0, 71, 1
4, 290400, Note_off_c, 0, 71, 0
4, 290400, Note_on_c, 0, 71, 1
4, 290880, Note_off_c, 0, 71, 0
4, 291360, Note_on_c, 0, 71, 1
4, 291840, Note_off_c, 0, 71, 0
4, 292320, Note_on_c, 0, 71, 1
4, 292800, Note_off_c, 0, 71, 0
4, 293280, Note_on_c, 0, 71, 1
4, 293760, Note_off_c, 0, 71, 0
4, 293760, Note_on_c, 0, 71, 1
4, 294240, Note_off_c, 0, 71, 0
4, 294240, Note_on_c, 0, 71, 1
4, 294720, Note_off_c, 0, 71, 0
4, 294720, Note_on_c, 0, 71, 1
4, 294960, Note_off_c, 0, 71, 0
4, 294960, Note_on_c, 0, 71, 1
4, 295200, Note_off_c, 0, 71, 0
4, 295200, Note_on_c, 0, 71, 1
4, 295680, Note_off_c, 0, 71, 0
4, 295680, Note_on_c, 0, 71, 1
4, 296640, Note_off_c, 0, 71, 0
4, 296640, Note_on_c, 0, 71, 1
4, 297600, Note_off_c, 0, 71, 0
4, 297600, Note_on_c, 0, 71, 1
4, 298080, Note_off_c, 0, 71, 0
4, 298080, Note_on_c, 0, 71, 1
4, 298560, Note_off_c, 0, 71, 0
4, 299040, Note_on_c, 0, 71, 1
4, 299520, Note_off_c, 0, 71, 0
4, 300000, Note_on_c, 0, 71, 1
4, 300480, Note_off_c, 0, 71, 0
4, 300960, Note_on_c, 0, 71, 1
4, 301440, Note_off_c, 0, 71, 0
4, 301440, Note_on_c, 0, 71, 1
4, 301920, Note_off_c, 0, 71, 0
4, 301920, Note_on_c, 0, 71, 1
4, 301920, Sequencer_specific, 5, 5, 15, 15, 0, 2
4, 302400, Note_off_c, 0, 71, 0
4, 302400, Note_on_c, 0, 71, 1
4, 302880, Note_off_c, 0, 71, 0
4, 302880, Note_on_c, 0, 71, 1
4, 303360, Note_off_c, 0, 71, 0
4, 303360, Note_on_c, 0, 71, 1
4, 304320, Note_off_c, 0, 71, 0
4, 304320, Note_on_c, 0, 71, 1
4, 305280, Note_off_c, 0, 71, 0
4, 305280, Note_on_c, 0, 71, 1
4, 305760, Note_off_c, 0, 71, 0
4, 305760, Note_on_c, 0, 71, 1
4, 306240, Note_off_c, 0, 71, 0
4, 306720, Note_on_c, 0, 71, 1
4, 307200, Note_off_c, 0, 71, 0
4, 307680, Note_on_c, 0, 71, 1
4, 308160, Note_off_c, 0, 71, 0
4, 308640, Note_on_c, 0, 71, 1
4, 309120, Sequencer_specific, 6, 5, 15, 13, 71, 1, 0
4, 309600, Note_off_c, 0, 71, 0
4, 309600, Note_on_c, 0, 71, 1
4, 309600, Sequencer_specific, 5, 5, 15, 15, 0, 2
4, 310080, Note_off_c, 0, 71, 0
4, 310080, Note_on_c, 0, 71, 1
4, 310560, Note_off_c, 0, 71, 0
4, 310560, Note_on_c, 0, 71, 1
4, 311040, Note_off_c, 0, 71, 0
4, 311040, Note_on_c, 0, 71, 1
4, 311520, Note_off_c, 0, 71, 0
4, 311520, Note_on_c, 0, 71, 1
4, 311520, Sequencer_specific, 5, 5, 15, 15, 0, 2
4, 312000, Note_off_c, 0, 71, 0
4, 312000, Note_on_c, 0, 71, 1
4, 312480, Note_off_c, 0, 71, 0
4, 312480, Note_on_c, 0, 71, 1
4, 312960, Note_off_c, 0, 71, 0
4, 312960, Note_on_c, 0, 71, 1
4, 313440, Note_off_c, 0, 71, 0
4, 313440, Note_on_c, 0, 71, 1
4, 313440, Sequencer_specific, 5, 5, 15, 15, 0, 2
4, 313920, Note_off_c, 0, 71, 0
4, 313920, Note_on_c, 0, 71, 1
4, 314400, Note_off_c, 0, 71, 0
4, 314400, Note_on_c, 0, 71, 1
4, 314880, Note_off_c, 0, 71, 0
4, 314880, Note_on_c, 0, 71, 1
4, 315360, Note_off_c, 0, 71, 0
4, 315360, Note_on_c, 0, 71, 1
4, 315360, Sequencer_specific, 5, 5, 15, 15, 0, 2
4, 315840, Note_off_c, 0, 71, 0
4, 315840, Note_on_c, 0, 71, 1
4, 316320, Note_off_c, 0, 71, 0
4, 316320, Note_on_c, 0, 71, 1
4, 316800, Note_off_c, 0, 71, 0
4, 316800, Note_on_c, 0, 71, 1
4, 317280, Note_off_c, 0, 71, 0
4, 317280, Note_on_c, 0, 71, 1
4, 317280, Sequencer_specific, 5, 5, 15, 15, 0, 2
4, 317760, Note_off_c, 0, 71, 0
4, 317760, Note_on_c, 0, 71, 1
4, 318240, Note_off_c, 0, 71, 0
4, 318240, Note_on_c, 0, 71, 1
4, 318720, Note_off_c, 0, 71, 0
4, 318720, Note_on_c, 0, 71, 1
4, 319200, Note_off_c, 0, 71, 0
4, 319200, Note_on_c, 0, 71, 1
4, 319200, Sequencer_specific, 5, 5, 15, 15, 0, 2
4, 319680, Note_off_c, 0, 71, 0
4, 319680, Note_on_c, 0, 71, 1
4, 320160, Note_off_c, 0, 71, 0
4, 320160, Note_on_c, 0, 71, 1
4, 320640, Note_off_c, 0, 71, 0
4, 320640, Note_on_c, 0, 71, 1
4, 321120, Note_off_c, 0, 71, 0
4, 321120, Note_on_c, 0, 71, 1
4, 321120, Sequencer_specific, 5, 5, 15, 15, 0, 2
4, 321600, Note_off_c, 0, 71, 0
4, 321600, Note_on_c, 0, 71, 1
4, 322080, Note_off_c, 0, 71, 0
4, 322080, Note_on_c, 0, 71, 1
4, 322560, Note_off_c, 0, 71, 0
4, 323040, Note_on_c, 0, 71, 1
4, 323520, Note_off_c, 0, 71, 0
4, 323520, Note_on_c, 0, 71, 1
4, 324000, Note_off_c, 0, 71, 0
4, 324000, Note_on_c, 0, 71, 1
4, 324480, Note_off_c, 0, 71, 0
4, 324960, Note_on_c, 0, 71, 1
4, 325440, Note_off_c, 0, 71, 0
4, 325440, Note_on_c, 0, 71, 1
4, 325920, Note_off_c, 0, 71, 0
4, 325920, Note_on_c, 0, 71, 1
4, 326400, Note_off_c, 0, 71, 0
4, 326400, Note_on_c, 0, 83, 89
4, 327360, Note_off_c, 0, 83, 0
4, 327360, Note_on_c, 0, 83, 89
4, 328320, Note_off_c, 0, 83, 0
4, 328320, Note_on_c, 0, 83, 89
4, 328800, Note_off_c, 0, 83, 0
4, 328800, Note_on_c, 0, 83, 89
4, 329280, Note_off_c, 0, 83, 0
4, 329280, Note_on_c, 0, 83, 89
4, 330240, Note_off_c, 0, 83, 0
4, 330240, Note_on_c, 0, 83, 89
4, 330720, Note_off_c, 0, 83, 0
4, 330720, Note_on_c, 0, 83, 89
4, 331200, Note_off_c, 0, 83, 0
4, 331200, Note_on_c, 0, 83, 89
4, 332160, Note_off_c, 0, 83, 0
4, 332160, Note_on_c, 0, 81, 89
4, 332640, Note_off_c, 0, 81, 0
4, 332640, Note_on_c, 0, 79, 89
4, 332640, Sequencer_specific, 5, 5, 15, 15, 0, 2
4, 333120, Note_off_c, 0, 79, 0
4, 333120, Note_on_c, 0, 76, 89
4, 333600, Note_off_c, 0, 76, 0
4, 333600, Note_on_c, 0, 76, 89
4, 334080, Note_off_c, 0, 76, 0
4, 334080, Note_on_c, 0, 83, 89
4, 334560, Note_off_c, 0, 83, 0
4, 334560, Note_on_c, 0, 83, 89
4, 334560, Sequencer_specific, 5, 5, 15, 15, 0, 2
4, 335040, Note_off_c, 0, 83, 0
4, 335040, Note_on_c, 0, 83, 89
4, 335520, Note_off_c, 0, 83, 0
4, 335520, Note_on_c, 0, 83, 89
4, 336000, Note_off_c, 0, 83, 0
4, 336000, Note_on_c, 0, 81, 89
4, 336480, Note_off_c, 0, 81, 0
4, 336480, Note_on_c, 0, 79, 89
4, 336480, Sequencer_specific, 5, 5, 15, 15, 0, 2
4, 336960, Note_off_c, 0, 79, 0
4, 336960, Note_on_c, 0, 83, 89
4, 337440, Note_off_c, 0, 83, 0
4, 337440, Note_on_c, 0, 81, 89
4, 337920, Sequencer_specific, 6, 5, 15, 13, 81, 89, 0
4, 339840, Note_off_c, 0, 81, 0
4, 340320, Note_on_c, 0, 76, 89
4, 340800, Note_off_c, 0, 76, 0
4, 340800, Note_on_c, 0, 79, 89
4, 341280, Note_off_c, 0, 79, 0
4, 341280, Note_on_c, 0, 81, 89
4, 341760, Note_off_c, 0, 81, 0
4, 341760, Note_on_c, 0, 83, 89
4, 342720, Note_off_c, 0, 83, 0
4, 342720, Note_on_c, 0, 83, 89
4, 343680, Note_off_c, 0, 83, 0
4, 343680, Note_on_c, 0, 83, 89
4, 344160, Note_off_c, 0, 83, 0
4, 344160, Note_on_c, 0, 83, 89
4, 344640, Note_off_c, 0, 83, 0
4, 344640, Note_on_c, 0, 83, 89
4, 345600, Note_off_c, 0, 83, 0
4, 345600, Note_on_c, 0, 83, 89
4, 346080, Note_off_c, 0, 83, 0
4, 346080, Note_on_c, 0, 83, 89
4, 346560, Note_off_c, 0, 83, 0
4, 346560, Note_on_c, 0, 83, 89
4, 347520, Note_off_c, 0, 83, 0
4, 347520, Note_on_c, 0, 81, 89
4, 348000, Note_off_c, 0, 81, 0
4, 348000, Note_on_c, 0, 79, 89
4, 348000, Sequencer_specific, 5, 5, 15, 15, 0, 2
4, 348480, Note_off_c, 0, 79, 0
4, 348480, Note_on_c, 0, 76, 89
4, 348960, Note_off_c, 0, 76, 0
4, 348960, Note_on_c, 0, 76, 89
4, 349440, Note_off_c, 0, 76, 0
4, 349440, Note_on_c, 0, 83, 89
4, 349920, Note_off_c, 0, 83, 0
4, 349920, Note_on_c, 0, 83, 89
4, 349920, Sequencer_specific, 5, 5, 15, 15, 0, 2
4, 350400, Note_off_c, 0, 83, 0
4, 350400, Note_on_c, 0, 83, 89
4, 350880, Note_off_c, 0, 83, 0
4, 350880, Note_on_c, 0, 83, 89
4, 351360, Note_off_c, 0, 83, 0
4, 351360, Note_on_c, 0, 81, 89
4, 351840, Note_off_c, 0, 81, 0
4, 351840, Note_on_c, 0, 79, 89
4, 351840, Sequencer_specific, 5, 5, 15, 15, 0, 2
4, 352320, Note_off_c, 0, 79, 0
4, 352320, Note_on_c, 0, 83, 89
4, 352800, Note_off_c, 0, 83, 0
4, 352800, Note_on_c, 0, 81, 89
4, 353280, Sequencer_specific, 6, 5, 15, 13, 81, 89, 0
4, 354240, Note_off_c, 0, 81, 0
4, 354720, Note_on_c, 0, 76, 89
4, 355200, Note_off_c, 0, 76, 0
4, 355200, Note_on_c, 0, 79, 89
4, 355680, Note_off_c, 0, 79, 0
4, 355680, Note_on_c, 0, 81, 89
4, 355680, Sequencer_specific, 5, 5, 15, 15, 0, 2
4, 356160, Note_off_c, 0, 81, 0
4, 356160, Note_on_c, 0, 79, 89
4, 356640, Note_off_c, 0, 79, 0
4, 356640, Note_on_c, 0, 83, 89
4, 357120, Sequencer_specific, 6, 5, 15, 13, 83, 89, 0
4, 358560, Note_off_c, 0, 83, 0
4, 358560, Note_on_c, 0, 83, 89
4, 359040, Note_off_c, 0, 83, 0
4, 359040, Note_on_c, 0, 83, 89
4, 359520, Note_off_c, 0, 83, 0
4, 359520, Note_on_c, 0, 81, 89
4, 359520, Sequencer_specific, 5, 5, 15, 15, 0, 2
4, 360000, Note_off_c, 0, 81, 0
4, 360000, Note_on_c, 0, 79, 89
4, 360480, Note_off_c, 0, 79, 0
4, 360480, Note_on_c, 0, 81, 89
4, 360960, Sequencer_specific, 6, 5, 15, 13, 81, 89, 0
4, 362400, Note_off_c, 0, 81, 0
4, 362880, Note_on_c, 0, 79, 89
4, 363360, Note_off_c, 0, 79, 0
4, 363360, Note_on_c, 0, 81, 89
4, 363360, Sequencer_specific, 5, 5, 15, 15, 0, 2
4, 363840, Note_off_c, 0, 81, 0
4, 363840, Note_on_c, 0, 79, 89
4, 364320, Note_off_c, 0, 79, 0
4, 364320, Note_on_c, 0, 83, 89
4, 364800, Sequencer_specific, 6, 5, 15, 13, 83, 89, 0
4, 365280, Note_off_c, 0, 83, 0
4, 365280, Note_on_c, 0, 83, 89
4, 366240, Note_off_c, 0, 83, 0
4, 366240, Note_on_c, 0, 83, 89
4, 366720, Note_off_c, 0, 83, 0
4, 366720, Note_on_c, 0, 83, 89
4, 367200, Note_off_c, 0, 83, 0
4, 367200, Note_on_c, 0, 81, 89
4, 367200, Sequencer_specific, 5, 5, 15, 15, 0, 2
4, 367680, Note_off_c, 0, 81, 0
4, 367680, Note_on_c, 0, 79, 89
4, 368160, Note_off_c, 0, 79, 0
4, 368160, Note_on_c, 0, 81, 89
4, 368640, Sequencer_specific, 6, 5, 15, 13, 81, 89, 0
4, 370080, Note_off_c, 0, 81, 0
4, 370560, Note_on_c, 0, 76, 89
4, 371040, Note_off_c, 0, 76, 0
4, 371040, Note_on_c, 0, 78, 89
4, 371040, Sequencer_specific, 5, 5, 15, 15, 0, 2
4, 371520, Note_off_c, 0, 78, 0
4, 371520, Note_on_c, 0, 79, 89
4, 372000, Note_off_c, 0, 79, 0
4, 372000, Note_on_c, 0, 81, 89
4, 372480, Note_off_c, 0, 81, 0
4, 372480, Note_on_c, 0, 83, 89
4, 373440, Note_off_c, 0, 83, 0
4, 373440, Note_on_c, 0, 83, 89
4, 374400, Note_off_c, 0, 83, 0
4, 374400, Note_on_c, 0, 83, 89
4, 374880, Note_off_c, 0, 83, 0
4, 374880, Note_on_c, 0, 83, 89
4, 375360, Note_off_c, 0, 83, 0
4, 375360, Note_on_c, 0, 83, 89
4, 376320, Note_off_c, 0, 83, 0
4, 376320, Note_on_c, 0, 83, 89
4, 376800, Note_off_c, 0, 83, 0
4, 376800, Note_on_c, 0, 83, 89
4, 377280, Note_off_c, 0, 83, 0
4, 377280, Note_on_c, 0, 83, 89
4, 378240, Note_off_c, 0, 83, 0
4, 378240, Note_on_c, 0, 81, 89
4, 378720, Note_off_c, 0, 81, 0
4, 378720, Note_on_c, 0, 79, 89
4, 379200, Note_off_c, 0, 79, 0
4, 379200, Note_on_c, 0, 76, 89
4, 380160, Note_off_c, 0, 76, 0
4, 384000, Sequencer_specific, 3, 5, 15, 10
4, 384000, End_track
5, 0, Start_track
5, 0, Title_t, "Words & Music by Bruno Mars, Ari Levine"
5, 0, Control_c, 1, 10, 118
5, 0, Sequencer_specific, 5, 5, 15, 9, 12, 64
5, 0, Sequencer_specific, 15, 5, 15, 6, 71, 101, 110, 101, 114, 97, 108, 32, 77, 73, 68, 73
5, 0, Sequencer_specific, 4, 5, 15, 16, 0
5, 0, Key_signature, 1, "minor"
5, 0, Program_c, 1, 80
5, 17760, Note_on_c, 1, 64, 89
5, 18240, Note_off_c, 1, 64, 0
5, 18240, Note_on_c, 1, 67, 89
5, 18720, Note_off_c, 1, 67, 0
5, 18720, Note_on_c, 1, 64, 89
5, 19200, Note_off_c, 1, 64, 0
5, 19200, Note_on_c, 1, 67, 89
5, 20160, Note_off_c, 1, 67, 0
5, 20160, Note_on_c, 1, 67, 89
5, 20640, Note_off_c, 1, 67, 0
5, 20640, Note_on_c, 1, 64, 89
5, 21120, Note_off_c, 1, 64, 0
5, 21120, Note_on_c, 1, 67, 89
5, 22080, Note_off_c, 1, 67, 0
5, 22080, Note_on_c, 1, 67, 89
5, 23040, Note_off_c, 1, 67, 0
5, 23040, Note_on_c, 1, 67, 89
5, 23520, Note_off_c, 1, 67, 0
5, 23520, Note_on_c, 1, 67, 89
5, 23520, Sequencer_specific, 5, 5, 15, 15, 0, 2
5, 24000, Note_off_c, 1, 67, 0
5, 24000, Note_on_c, 1, 67, 89
5, 24480, Note_off_c, 1, 67, 0
5, 24480, Note_on_c, 1, 62, 89
5, 24960, Sequencer_specific, 6, 5, 15, 13, 62, 89, 1
5, 25920, Note_off_c, 1, 62, 0
5, 26400, Note_on_c, 1, 64, 89
5, 26880, Note_off_c, 1, 64, 0
5, 26880, Note_on_c, 1, 67, 89
5, 27360, Note_off_c, 1, 67, 0
5, 27360, Note_on_c, 1, 67, 89
5, 27360, Sequencer_specific, 5, 5, 15, 15, 0, 2
5, 27840, Note_off_c, 1, 67, 0
5, 27840, Note_on_c, 1, 67, 89
5, 28320, Note_off_c, 1, 67, 0
5, 28320, Note_on_c, 1, 64, 89
5, 28800, Note_off_c, 1, 64, 0
5, 28800, Note_on_c, 1, 67, 89
5, 29760, Note_off_c, 1, 67, 0
5, 29760, Note_on_c, 1, 67, 89
5, 30240, Note_off_c, 1, 67, 0
5, 30240, Note_on_c, 1, 64, 89
5, 30720, Note_off_c, 1, 64, 0
5, 30720, Note_on_c, 1, 67, 89
5, 31200, Note_off_c, 1, 67, 0
5, 31200, Note_on_c, 1, 67, 89
5, 31200, Sequencer_specific, 5, 5, 15, 15, 0, 2
5, 31680, Note_off_c, 1, 67, 0
5, 31680, Note_on_c, 1, 67, 89
5, 32160, Note_off_c, 1, 67, 0
5, 32160, Note_on_c, 1, 62, 89
5, 32640, Sequencer_specific, 6, 5, 15, 13, 62, 89, 1
5, 33600, Note_off_c, 1, 62, 0
5, 34080, Note_on_c, 1, 64, 89
5, 34560, Note_off_c, 1, 64, 0
5, 34560, Note_on_c, 1, 67, 89
5, 35040, Note_off_c, 1, 67, 0
5, 35040, Note_on_c, 1, 67, 89
5, 35040, Sequencer_specific, 5, 5, 15, 15, 0, 2
5, 35520, Note_off_c, 1, 67, 0
5, 35520, Note_on_c, 1, 67, 89
5, 36000, Note_off_c, 1, 67, 0
5, 36000, Note_on_c, 1, 64, 89
5, 36480, Note_off_c, 1, 64, 0
5, 36480, Note_on_c, 1, 67, 89
5, 36960, Note_off_c, 1, 67, 0
5, 36960, Note_on_c, 1, 67, 89
5, 36960, Sequencer_specific, 5, 5, 15, 15, 0, 2
5, 37440, Note_off_c, 1, 67, 0
5, 37440, Note_on_c, 1, 67, 89
5, 37920, Note_off_c, 1, 67, 0
5, 37920, Note_on_c, 1, 64, 89
5, 38400, Note_off_c, 1, 64, 0
5, 38400, Note_on_c, 1, 67, 89
5, 38880, Note_off_c, 1, 67, 0
5, 38880, Note_on_c, 1, 67, 89
5, 38880, Sequencer_specific, 5, 5, 15, 15, 0, 2
5, 39360, Note_off_c, 1, 67, 0
5, 39360, Note_on_c, 1, 64, 89
5, 39840, Note_off_c, 1, 64, 0
5, 39840, Note_on_c, 1, 67, 89
5, 40320, Note_off_c, 1, 67, 0
5, 40320, Note_on_c, 1, 67, 89
5, 40800, Note_off_c, 1, 67, 0
5, 40800, Note_on_c, 1, 64, 89
5, 40800, Sequencer_specific, 5, 5, 15, 15, 0, 2
5, 41280, Note_off_c, 1, 64, 0
5, 41280, Note_on_c, 1, 67, 89
5, 41760, Note_off_c, 1, 67, 0
5, 41760, Note_on_c, 1, 64, 89
5, 42240, Note_off_c, 1, 64, 0
5, 42240, Note_on_c, 1, 67, 89
5, 43200, Note_off_c, 1, 67, 0
5, 43200, Note_on_c, 1, 67, 89
5, 43680, Note_off_c, 1, 67, 0
5, 43680, Note_on_c, 1, 64, 89
5, 44160, Note_off_c, 1, 64, 0
5, 44160, Note_on_c, 1, 67, 89
5, 45120, Note_off_c, 1, 67, 0
5, 45120, Note_on_c, 1, 67, 89
5, 45600, Note_off_c, 1, 67, 0
5, 45600, Note_on_c, 1, 64, 89
5, 46080, Note_off_c, 1, 64, 0
5, 46080, Note_on_c, 1, 67, 89
5, 46560, Note_off_c, 1, 67, 0
5, 46560, Note_on_c, 1, 67, 89
5, 46560, Sequencer_specific, 5, 5, 15, 15, 0, 2
5, 47040, Note_off_c, 1, 67, 0
5, 47040, Note_on_c, 1, 64, 89
5, 47520, Note_off_c, 1, 64, 0
5, 47520, Note_on_c, 1, 67, 89
5, 48000, Note_off_c, 1, 67, 0
5, 48000, Note_on_c, 1, 62, 89
5, 48480, Note_off_c, 1, 62, 0
5, 48480, Note_on_c, 1, 59, 89
5, 48480, Sequencer_specific, 5, 5, 15, 15, 0, 2
5, 48960, Note_off_c, 1, 59, 0
5, 48960, Note_on_c, 1, 62, 89
5, 49440, Note_off_c, 1, 62, 0
5, 49440, Note_on_c, 1, 63, 89
5, 49920, Note_off_c, 1, 63, 0
5, 49920, Note_on_c, 1, 64, 89
5, 50880, Note_off_c, 1, 64, 0
5, 50880, Note_on_c, 1, 64, 89
5, 51840, Note_off_c, 1, 64, 0
5, 51840, Note_on_c, 1, 62, 89
5, 52320, Note_off_c, 1, 62, 0
5, 52320, Note_on_c, 1, 64, 89
5, 52320, Sequencer_specific, 5, 5, 15, 15, 0, 2
5, 52800, Note_off_c, 1, 64, 0
5, 52800, Note_on_c, 1, 67, 89
5, 53280, Note_off_c, 1, 67, 0
5, 53280, Note_on_c, 1, 68, 89
5, 53760, Note_off_c, 1, 68, 0
5, 53760, Note_on_c, 1, 69, 89
5, 54720, Note_off_c, 1, 69, 0
5, 55200, Note_on_c, 1, 55, 89
5, 55680, Note_off_c, 1, 55, 0
5, 55680, Note_on_c, 1, 57, 89
5, 56160, Note_off_c, 1, 57, 0
5, 56160, Note_on_c, 1, 59, 89
5, 56160, Sequencer_specific, 5, 5, 15, 15, 0, 2
5, 56640, Note_off_c, 1, 59, 0
5, 56640, Note_on_c, 1, 62, 89
5, 57120, Note_off_c, 1, 62, 0
5, 57120, Note_on_c, 1, 63, 89
5, 57600, Note_off_c, 1, 63, 0
5, 57600, Note_on_c, 1, 64, 89
5, 58080, Note_off_c, 1, 64, 0
5, 58080, Note_on_c, 1, 64, 89
5, 58080, Sequencer_specific, 5, 5, 15, 15, 0, 2
5, 58560, Note_off_c, 1, 64, 0
5, 58560, Note_on_c, 1, 64, 89
5, 59040, Note_off_c, 1, 64, 0
5, 59040, Note_on_c, 1, 64, 89
5, 59520, Note_off_c, 1, 64, 0
5, 59520, Note_on_c, 1, 64, 89
5, 60000, Note_off_c, 1, 64, 0
5, 60000, Note_on_c, 1, 64, 89
5, 60000, Sequencer_specific, 5, 5, 15, 15, 0, 2
5, 60480, Note_off_c, 1, 64, 0
5, 60480, Note_on_c, 1, 67, 89
5, 60960, Note_off_c, 1, 67, 0
5, 60960, Note_on_c, 1, 68, 89
5, 61440, Note_off_c, 1, 68, 0
5, 61440, Note_on_c, 1, 69, 89
5, 62400, Note_off_c, 1, 69, 0
5, 62880, Note_on_c, 1, 55, 89
5, 62880, Sequencer_specific, 4, 5, 15, 15, 8
5, 63360, Note_off_c, 1, 55, 0
5, 63360, Note_on_c, 1, 57, 89
5, 63360, Sequencer_specific, 4, 5, 15, 15, 8
5, 63840, Note_off_c, 1, 57, 0
5, 63840, Note_on_c, 1, 59, 89
5, 63840, Sequencer_specific, 5, 5, 15, 15, 8, 2
5, 64320, Note_off_c, 1, 59, 0
5, 64320, Note_on_c, 1, 62, 89
5, 64800, Note_off_c, 1, 62, 0
5, 64800, Note_on_c, 1, 63, 89
5, 65280, Note_off_c, 1, 63, 0
5, 65280, Note_on_c, 1, 64, 89
5, 66240, Note_off_c, 1, 64, 0
5, 66240, Note_on_c, 1, 64, 89
5, 67200, Note_off_c, 1, 64, 0
5, 67200, Note_on_c, 1, 62, 89
5, 67680, Note_off_c, 1, 62, 0
5, 67680, Note_on_c, 1, 64, 89
5, 67680, Sequencer_specific, 5, 5, 15, 15, 0, 2
5, 68160, Note_off_c, 1, 64, 0
5, 68160, Note_on_c, 1, 67, 89
5, 68640, Note_off_c, 1, 67, 0
5, 68640, Note_on_c, 1, 68, 89
5, 69120, Note_off_c, 1, 68, 0
5, 69120, Note_on_c, 1, 69, 89
5, 70080, Note_off_c, 1, 69, 0
5, 70560, Note_on_c, 1, 55, 89
5, 70560, Sequencer_specific, 4, 5, 15, 15, 8
5, 71040, Note_off_c, 1, 55, 0
5, 71040, Note_on_c, 1, 57, 89
5, 71040, Sequencer_specific, 4, 5, 15, 15, 8
5, 71520, Note_off_c, 1, 57, 0
5, 71520, Note_on_c, 1, 64, 89
5, 71520, Sequencer_specific, 5, 5, 15, 15, 8, 2
5, 72000, Note_off_c, 1, 64, 0
5, 72000, Note_on_c, 1, 67, 89
5, 72480, Note_off_c, 1, 67, 0
5, 72480, Note_on_c, 1, 64, 89
5, 72960, Note_off_c, 1, 64, 0
5, 72960, Note_on_c, 1, 67, 89
5, 73920, Note_off_c, 1, 67, 0
5, 73920, Note_on_c, 1, 67, 89
5, 74400, Note_off_c, 1, 67, 0
5, 74400, Note_on_c, 1, 64, 89
5, 74880, Note_off_c, 1, 64, 0
5, 74880, Note_on_c, 1, 67, 89
5, 75840, Note_off_c, 1, 67, 0
5, 75840, Note_on_c, 1, 67, 89
5, 76800, Note_off_c, 1, 67, 0
5, 76800, Note_on_c, 1, 67, 89
5, 77280, Note_off_c, 1, 67, 0
5, 77280, Note_on_c, 1, 64, 89
5, 77280, Sequencer_specific, 5, 5, 15, 15, 0, 2
5, 77760, Note_off_c, 1, 64, 0
5, 77760, Note_on_c, 1, 67, 89
5, 78240, Note_off_c, 1, 67, 0
5, 78240, Note_on_c, 1, 64, 89
5, 78720, Note_off_c, 1, 64, 0
5, 78720, Note_on_c, 1, 67, 89
5, 79680, Note_off_c, 1, 67, 0
5, 80640, Note_on_c, 1, 71, 89
5, 80640, Note_on_c, 1, 67, 89
5, 81600, Note_off_c, 1, 67, 0
5, 81600, Note_off_c, 1, 71, 0
5, 81600, Note_on_c, 1, 71, 89
5, 81600, Note_on_c, 1, 67, 89
5, 82560, Note_off_c, 1, 67, 0
5, 82560, Note_off_c, 1, 71, 0
5, 82560, Note_on_c, 1, 71, 89
5, 82560, Note_on_c, 1, 67, 89
5, 83040, Note_off_c, 1, 67, 0
5, 83040, Note_off_c, 1, 71, 0
5, 83040, Note_on_c, 1, 71, 89
5, 83040, Note_on_c, 1, 67, 89
5, 83520, Note_off_c, 1, 67, 0
5, 83520, Note_off_c, 1, 71, 0
5, 83520, Note_on_c, 1, 71, 89
5, 83520, Note_on_c, 1, 67, 89
5, 84480, Note_off_c, 1, 67, 0
5, 84480, Note_off_c, 1, 71, 0
5, 84480, Note_on_c, 1, 71, 89
5, 84480, Note_on_c, 1, 67, 89
5, 84480, Note_on_c, 1, 62, 89
5, 84960, Note_off_c, 1, 62, 0
5, 84960, Note_off_c, 1, 67, 0
5, 84960, Note_off_c, 1, 71, 0
5, 84960, Note_on_c, 1, 71, 89
5, 84960, Note_on_c, 1, 67, 89
5, 85440, Note_off_c, 1, 67, 0
5, 85440, Note_off_c, 1, 71, 0
5, 85440, Note_on_c, 1, 71, 89
5, 85440, Note_on_c, 1, 67, 89
5, 86400, Note_off_c, 1, 67, 0
5, 86400, Note_off_c, 1, 71, 0
5, 86400, Note_on_c, 1, 69, 89
5, 86400, Note_on_c, 1, 66, 89
5, 86880, Note_off_c, 1, 66, 0
5, 86880, Note_off_c, 1, 69, 0
5, 86880, Note_on_c, 1, 64, 89
5, 86880, Sequencer_specific, 5, 5, 15, 15, 0, 2
5, 86880, Note_on_c, 1, 67, 89
5, 87360, Note_off_c, 1, 67, 0
5, 87360, Note_off_c, 1, 64, 0
5, 87360, Note_on_c, 1, 64, 89
5, 87840, Note_off_c, 1, 64, 0
5, 87840, Note_on_c, 1, 64, 89
5, 88320, Note_off_c, 1, 64, 0
5, 88320, Note_on_c, 1, 71, 89
5, 88320, Note_on_c, 1, 67, 89
5, 88800, Note_off_c, 1, 67, 0
5, 88800, Note_off_c, 1, 71, 0
5, 88800, Note_on_c, 1, 71, 89
5, 88800, Note_on_c, 1, 67, 89
5, 88800, Sequencer_specific, 5, 5, 15, 15, 0, 2
5, 89280, Note_off_c, 1, 67, 0
5, 89280, Note_off_c, 1, 71, 0
5, 89280, Note_on_c, 1, 71, 89
5, 89280, Note_on_c, 1, 67, 89
5, 89760, Note_off_c, 1, 67, 0
5, 89760, Note_off_c, 1, 71, 0
5, 89760, Note_on_c, 1, 71, 89
5, 89760, Note_on_c, 1, 67, 89
5, 90240, Note_off_c, 1, 67, 0
5, 90240, Note_off_c, 1, 71, 0
5, 90240, Note_on_c, 1, 66, 89
5, 90240, Note_on_c, 1, 69, 89
5, 90720, Note_off_c, 1, 69, 0
5, 90720, Note_off_c, 1, 66, 0
5, 90720, Note_on_c, 1, 64, 89
5, 90720, Sequencer_specific, 5, 5, 15, 15, 0, 2
5, 90720, Note_on_c, 1, 67, 89
5, 91200, Note_off_c, 1, 67, 0
5, 91200, Note_off_c, 1, 64, 0
5, 91200, Note_on_c, 1, 71, 89
5, 91200, Note_on_c, 1, 67, 89
5, 91680, Note_off_c, 1, 67, 0
5, 91680, Note_off_c, 1, 71, 0
5, 91680, Note_on_c, 1, 66, 89
5, 91680, Note_on_c, 1, 69, 89
5, 92160, Note_off_c, 1, 69, 0
5, 92160, Note_off_c, 1, 66, 0
5, 92640, Note_on_c, 1, 61, 89
5, 93120, Note_off_c, 1, 61, 0
5, 93600, Note_on_c, 1, 61, 89
5, 94080, Note_off_c, 1, 61, 0
5, 94080, Note_on_c, 1, 61, 89
5, 94560, Note_off_c, 1, 61, 0
5, 94560, Note_on_c, 1, 64, 89
5, 95040, Note_off_c, 1, 64, 0
5, 95040, Note_on_c, 1, 67, 89
5, 95520, Note_off_c, 1, 67, 0
5, 95520, Note_on_c, 1, 69, 89
5, 96000, Note_off_c, 1, 69, 0
5, 96000, Note_on_c, 1, 71, 89
5, 96000, Note_on_c, 1, 67, 89
5, 96960, Note_off_c, 1, 67, 0
5, 96960, Note_off_c, 1, 71, 0
5, 96960, Note_on_c, 1, 71, 89
5, 96960, Note_on_c, 1, 67, 89
5, 97920, Note_off_c, 1, 67, 0
5, 97920, Note_off_c, 1, 71, 0
5, 97920, Note_on_c, 1, 71, 89
5, 97920, Note_on_c, 1, 67, 89
5, 98400, Note_off_c, 1, 67, 0
5, 98400, Note_off_c, 1, 71, 0
5, 98400, Note_on_c, 1, 71, 89
5, 98400, Note_on_c, 1, 67, 89
5, 98880, Note_off_c, 1, 67, 0
5, 98880, Note_off_c, 1, 71, 0
5, 98880, Note_on_c, 1, 71, 89
5, 98880, Note_on_c, 1, 67, 89
5, 99840, Note_off_c, 1, 67, 0
5, 99840, Note_off_c, 1, 71, 0
5, 99840, Note_on_c, 1, 71, 89
5, 99840, Note_on_c, 1, 67, 89
5, 99840, Note_on_c, 1, 62, 89
5, 100320, Note_off_c, 1, 62, 0
5, 100320, Note_off_c, 1, 67, 0
5, 100320, Note_off_c, 1, 71, 0
5, 100320, Note_on_c, 1, 71, 89
5, 100320, Note_on_c, 1, 67, 89
5, 100800, Note_off_c, 1, 67, 0
5, 100800, Note_off_c, 1, 71, 0
5, 100800, Note_on_c, 1, 71, 89
5, 100800, Note_on_c, 1, 67, 89
5, 101760, Note_off_c, 1, 67, 0
5, 101760, Note_off_c, 1, 71, 0
5, 101760, Note_on_c, 1, 69, 89
5, 101760, Note_on_c, 1, 66, 89
5, 102240, Note_off_c, 1, 66, 0
5, 102240, Note_off_c, 1, 69, 0
5, 102240, Note_on_c, 1, 64, 89
5, 102240, Sequencer_specific, 5, 5, 15, 15, 0, 2
5, 102240, Note_on_c, 1, 67, 89
5, 102720, Note_off_c, 1, 67, 0
5, 102720, Note_off_c, 1, 64, 0
5, 102720, Note_on_c, 1, 64, 89
5, 103200, Note_off_c, 1, 64, 0
5, 103200, Note_on_c, 1, 64, 89
5, 103680, Note_off_c, 1, 64, 0
5, 103680, Note_on_c, 1, 71, 89
5, 103680, Note_on_c, 1, 67, 89
5, 104160, Note_off_c, 1, 67, 0
5, 104160, Note_off_c, 1, 71, 0
5, 104160, Note_on_c, 1, 71, 89
5, 104160, Note_on_c, 1, 67, 89
5, 104160, Sequencer_specific, 5, 5, 15, 15, 0, 2
5, 104640, Note_off_c, 1, 67, 0
5, 104640, Note_off_c, 1, 71, 0
5, 104640, Note_on_c, 1, 71, 89
5, 104640, Note_on_c, 1, 67, 89
5, 105120, Note_off_c, 1, 67, 0
5, 105120, Note_off_c, 1, 71, 0
5, 105120, Note_on_c, 1, 71, 89
5, 105120, Note_on_c, 1, 67, 89
5, 105600, Note_off_c, 1, 67, 0
5, 105600, Note_off_c, 1, 71, 0
5, 105600, Note_on_c, 1, 66, 89
5, 105600, Note_on_c, 1, 69, 89
5, 106080, Note_off_c, 1, 69, 0
5, 106080, Note_off_c, 1, 66, 0
5, 106080, Note_on_c, 1, 64, 89
5, 106080, Sequencer_specific, 5, 5, 15, 15, 0, 2
5, 106080, Note_on_c, 1, 67, 89
5, 106560, Note_off_c, 1, 67, 0
5, 106560, Note_off_c, 1, 64, 0
5, 106560, Note_on_c, 1, 71, 89
5, 106560, Note_on_c, 1, 67, 89
5, 107040, Note_off_c, 1, 67, 0
5, 107040, Note_off_c, 1, 71, 0
5, 107040, Note_on_c, 1, 66, 89
5, 107040, Note_on_c, 1, 69, 89
5, 107520, Sequencer_specific, 6, 5, 15, 13, 69, 89, 1
5, 107520, Sequencer_specific, 6, 5, 15, 13, 66, 89, 1
5, 108000, Note_off_c, 1, 66, 0
5, 108000, Note_off_c, 1, 69, 0
5, 108960, Note_on_c, 1, 64, 89
5, 109440, Note_off_c, 1, 64, 0
5, 109440, Note_on_c, 1, 67, 89
5, 109920, Note_off_c, 1, 67, 0
5, 109920, Note_on_c, 1, 69, 89
5, 109920, Sequencer_specific, 5, 5, 15, 15, 0, 2
5, 110400, Note_off_c, 1, 69, 0
5, 110400, Note_on_c, 1, 67, 89
5, 110880, Note_off_c, 1, 67, 0
5, 110880, Note_on_c, 1, 64, 89
5, 110880, Note_on_c, 1, 71, 89
5, 110880, Note_on_c, 1, 67, 89
5, 110880, Note_on_c, 1, 59, 89
5, 111360, Sequencer_specific, 6, 5, 15, 13, 71, 89, 1
5, 111360, Sequencer_specific, 6, 5, 15, 13, 67, 89, 1
5, 111360, Sequencer_specific, 6, 5, 15, 13, 64, 89, 1
5, 111360, Sequencer_specific, 6, 5, 15, 13, 59, 89, 1
5, 112800, Note_off_c, 1, 59, 0
5, 112800, Note_off_c, 1, 64, 0
5, 112800, Note_off_c, 1, 67, 0
5, 112800, Note_off_c, 1, 71, 0
5, 112800, Note_on_c, 1, 71, 89
5, 112800, Note_on_c, 1, 59, 89
5, 113280, Note_off_c, 1, 59, 0
5, 113280, Note_off_c, 1, 71, 0
5, 113280, Note_on_c, 1, 71, 89
5, 113280, Note_on_c, 1, 59, 89
5, 113760, Note_off_c, 1, 59, 0
5, 113760, Note_off_c, 1, 71, 0
5, 113760, Note_on_c, 1, 69, 89
5, 113760, Sequencer_specific, 5, 5, 15, 15, 0, 2
5, 114240, Note_off_c, 1, 69, 0
5, 114240, Note_on_c, 1, 67, 89
5, 114720, Note_off_c, 1, 67, 0
5, 114720, Note_on_c, 1, 69, 89
5, 114720, Note_on_c, 1, 66, 89
5, 114720, Note_on_c, 1, 63, 89
5, 114720, Note_on_c, 1, 57, 89
5, 115200, Sequencer_specific, 6, 5, 15, 13, 69, 89, 1
5, 115200, Sequencer_specific, 6, 5, 15, 13, 63, 89, 1
5, 115200, Sequencer_specific, 6, 5, 15, 13, 66, 89, 1
5, 115200, Sequencer_specific, 6, 5, 15, 13, 57, 89, 1
5, 117120, Note_off_c, 1, 57, 0
5, 117120, Note_off_c, 1, 63, 0
5, 117120, Note_off_c, 1, 66, 0
5, 117120, Note_off_c, 1, 69, 0
5, 117120, Note_on_c, 1, 67, 89
5, 117600, Note_off_c, 1, 67, 0
5, 117600, Note_on_c, 1, 69, 89
5, 117600, Sequencer_specific, 5, 5, 15, 15, 0, 2
5, 118080, Note_off_c, 1, 69, 0
5, 118080, Note_on_c, 1, 67, 89
5, 118560, Note_off_c, 1, 67, 0
5, 118560, Note_on_c, 1, 71, 89
5, 118560, Note_on_c, 1, 67, 89
5, 118560, Note_on_c, 1, 64, 89
5, 118560, Note_on_c, 1, 59, 89
5, 118560, Sequencer_specific, 4, 5, 15, 15, 8
5, 119040, Sequencer_specific, 6, 5, 15, 13, 71, 89, 1
5, 119040, Sequencer_specific, 6, 5, 15, 13, 67, 89, 1
5, 119040, Sequencer_specific, 6, 5, 15, 13, 64, 89, 1
5, 119040, Sequencer_specific, 6, 5, 15, 13, 59, 89, 1
5, 119520, Note_off_c, 1, 59, 0
5, 119520, Note_off_c, 1, 64, 0
5, 119520, Note_off_c, 1, 67, 0
5, 119520, Note_off_c, 1, 71, 0
5, 119520, Note_on_c, 1, 71, 89
5, 119520, Note_on_c, 1, 67, 89
5, 119520, Note_on_c, 1, 64, 89
5, 119520, Note_on_c, 1, 59, 89
5, 120480, Note_off_c, 1, 59, 0
5, 120480, Note_off_c, 1, 64, 0
5, 120480, Note_off_c, 1, 67, 0
5, 120480, Note_off_c, 1, 71, 0
5, 120480, Note_on_c, 1, 71, 89
5, 120480, Note_on_c, 1, 67, 89
5, 120480, Note_on_c, 1, 64, 89
5, 120480, Note_on_c, 1, 59, 89
5, 120480, Sequencer_specific, 4, 5, 15, 15, 8
5, 120960, Note_off_c, 1, 59, 0
5, 120960, Note_off_c, 1, 64, 0
5, 120960, Note_off_c, 1, 67, 0
5, 120960, Note_off_c, 1, 71, 0
5, 120960, Note_on_c, 1, 71, 89
5, 120960, Note_on_c, 1, 67, 89
5, 120960, Note_on_c, 1, 64, 89
5, 120960, Note_on_c, 1, 59, 89
5, 120960, Sequencer_specific, 4, 5, 15, 15, 8
5, 121440, Note_off_c, 1, 59, 0
5, 121440, Note_off_c, 1, 64, 0
5, 121440, Note_off_c, 1, 67, 0
5, 121440, Note_off_c, 1, 71, 0
5, 121440, Note_on_c, 1, 69, 89
5, 121920, Note_off_c, 1, 69, 0
5, 121920, Note_on_c, 1, 67, 89
5, 122400, Note_off_c, 1, 67, 0
5, 122400, Note_on_c, 1, 69, 89
5, 122400, Note_on_c, 1, 64, 89
5, 122400, Note_on_c, 1, 61, 89
5, 122880, Sequencer_specific, 6, 5, 15, 13, 69, 89, 1
5, 122880, Sequencer_specific, 6, 5, 15, 13, 64, 89, 1
5, 122880, Sequencer_specific, 6, 5, 15, 13, 61, 89, 1
5, 124800, Note_off_c, 1, 61, 0
5, 124800, Note_off_c, 1, 64, 0
5, 124800, Note_off_c, 1, 69, 0
5, 124800, Note_on_c, 1, 64, 89
5, 125280, Note_off_c, 1, 64, 0
5, 125280, Note_on_c, 1, 66, 89
5, 125280, Sequencer_specific, 5, 5, 15, 15, 0, 2
5, 125760, Note_off_c, 1, 66, 0
5, 125760, Note_on_c, 1, 67, 89
5, 126240, Note_off_c, 1, 67, 0
5, 126240, Note_on_c, 1, 69, 89
5, 126720, Note_off_c, 1, 69, 0
5, 126720, Note_on_c, 1, 71, 89
5, 126720, Note_on_c, 1, 67, 89
5, 126720, Note_on_c, 1, 64, 89
5, 126720, Note_on_c, 1, 59, 89
5, 127680, Note_off_c, 1, 59, 0
5, 127680, Note_off_c, 1, 64, 0
5, 127680, Note_off_c, 1, 67, 0
5, 127680, Note_off_c, 1, 71, 0
5, 127680, Note_on_c, 1, 71, 89
5, 127680, Note_on_c, 1, 67, 89
5, 127680, Note_on_c, 1, 64, 89
5, 127680, Note_on_c, 1, 59, 89
5, 127680, Sequencer_specific, 4, 5, 15, 15, 8
5, 128640, Note_off_c, 1, 59, 0
5, 128640, Note_off_c, 1, 64, 0
5, 128640, Note_off_c, 1, 67, 0
5, 128640, Note_off_c, 1, 71, 0
5, 128640, Note_on_c, 1, 71, 89
5, 128640, Note_on_c, 1, 67, 89
5, 128640, Note_on_c, 1, 64, 89
5, 128640, Note_on_c, 1, 59, 89
5, 128640, Sequencer_specific, 4, 5, 15, 15, 8
5, 129120, Note_off_c, 1, 59, 0
5, 129120, Note_off_c, 1, 64, 0
5, 129120, Note_off_c, 1, 67, 0
5, 129120, Note_off_c, 1, 71, 0
5, 129120, Note_on_c, 1, 71, 89
5, 129120, Note_on_c, 1, 67, 89
5, 129120, Note_on_c, 1, 64, 89
5, 129120, Note_on_c, 1, 59, 89
5, 129120, Sequencer_specific, 4, 5, 15, 15, 8
5, 129600, Note_off_c, 1, 59, 0
5, 129600, Note_off_c, 1, 64, 0
5, 129600, Note_off_c, 1, 67, 0
5, 129600, Note_off_c, 1, 71, 0
5, 129600, Note_on_c, 1, 71, 89
5, 129600, Note_on_c, 1, 67, 89
5, 129600, Note_on_c, 1, 64, 89
5, 129600, Note_on_c, 1, 59, 89
5, 129600, Sequencer_specific, 4, 5, 15, 15, 8
5, 130560, Note_off_c, 1, 59, 0
5, 130560, Note_off_c, 1, 64, 0
5, 130560, Note_off_c, 1, 67, 0
5, 130560, Note_off_c, 1, 71, 0
5, 130560, Note_on_c, 1, 71, 89
5, 130560, Note_on_c, 1, 66, 89
5, 130560, Note_on_c, 1, 59, 89
5, 130560, Note_on_c, 1, 63, 89
5, 131040, Note_off_c, 1, 63, 0
5, 131040, Note_off_c, 1, 59, 0
5, 131040, Note_off_c, 1, 66, 0
5, 131040, Note_off_c, 1, 71, 0
5, 131040, Note_on_c, 1, 71, 89
5, 131040, Note_on_c, 1, 59, 89
5, 131520, Note_off_c, 1, 59, 0
5, 131520, Note_off_c, 1, 71, 0
5, 131520, Note_on_c, 1, 71, 89
5, 131520, Note_on_c, 1, 59, 89
5, 132480, Note_off_c, 1, 59, 0
5, 132480, Note_off_c, 1, 71, 0
5, 132480, Note_on_c, 1, 69, 89
5, 132960, Note_off_c, 1, 69, 0
5, 132960, Note_on_c, 1, 67, 89
5, 133440, Note_off_c, 1, 67, 0
5, 133440, Note_on_c, 1, 64, 89
5, 134400, Note_off_c, 1, 64, 0
5, 148320, Note_on_c, 1, 64, 89
5, 148800, Note_off_c, 1, 64, 0
5, 148800, Note_on_c, 1, 67, 89
5, 149280, Note_off_c, 1, 67, 0
5, 149280, Note_on_c, 1, 64, 89
5, 149760, Note_off_c, 1, 64, 0
5, 149760, Note_on_c, 1, 67, 89
5, 150720, Note_off_c, 1, 67, 0
5, 150720, Note_on_c, 1, 67, 89
5, 151200, Note_off_c, 1, 67, 0
5, 151200, Note_on_c, 1, 64, 89
5, 151680, Note_off_c, 1, 64, 0
5, 151680, Note_on_c, 1, 67, 89
5, 152640, Note_off_c, 1, 67, 0
5, 152640, Note_on_c, 1, 67, 89
5, 153600, Note_off_c, 1, 67, 0
5, 153600, Note_on_c, 1, 67, 89
5, 154080, Note_off_c, 1, 67, 0
5, 154080, Note_on_c, 1, 67, 89
5, 154080, Sequencer_specific, 5, 5, 15, 15, 0, 2
5, 154560, Note_off_c, 1, 67, 0
5, 154560, Note_on_c, 1, 67, 89
5, 155040, Note_off_c, 1, 67, 0
5, 155040, Note_on_c, 1, 62, 89
5, 155520, Sequencer_specific, 6, 5, 15, 13, 62, 89, 1
5, 156000, Note_off_c, 1, 62, 0
5, 156000, Note_on_c, 1, 67, 89
5, 156000, Sequencer_specific, 5, 5, 15, 15, 0, 2
5, 156000, Note_on_c, 1, 62, 89
5, 156000, Note_on_c, 1, 59, 89
5, 156480, Note_off_c, 1, 59, 0
5, 156480, Note_off_c, 1, 62, 0
5, 156480, Note_off_c, 1, 67, 0
5, 156480, Note_on_c, 1, 67, 89
5, 156480, Note_on_c, 1, 62, 89
5, 156480, Note_on_c, 1, 59, 89
5, 156960, Note_off_c, 1, 59, 0
5, 156960, Note_off_c, 1, 62, 0
5, 156960, Note_off_c, 1, 67, 0
5, 156960, Note_on_c, 1, 62, 89
5, 156960, Note_on_c, 1, 59, 89
5, 156960, Note_on_c, 1, 67, 89
5, 157440, Note_off_c, 1, 67, 0
5, 157440, Note_off_c, 1, 59, 0
5, 157440, Note_off_c, 1, 62, 0
5, 157440, Note_on_c, 1, 67, 89
5, 157440, Note_on_c, 1, 62, 89
5, 157440, Note_on_c, 1, 59, 89
5, 157920, Note_off_c, 1, 59, 0
5, 157920, Note_off_c, 1, 62, 0
5, 157920, Note_off_c, 1, 67, 0
5, 157920, Note_on_c, 1, 67, 89
5, 158400, Note_off_c, 1, 67, 0
5, 158400, Note_on_c, 1, 67, 89
5, 159360, Note_off_c, 1, 67, 0
5, 159360, Note_on_c, 1, 67, 89
5, 159840, Note_off_c, 1, 67, 0
5, 159840, Note_on_c, 1, 67, 89
5, 159840, Sequencer_specific, 5, 5, 15, 15, 0, 2
5, 160320, Note_off_c, 1, 67, 0
5, 160320, Note_on_c, 1, 67, 89
5, 160800, Note_off_c, 1, 67, 0
5, 160800, Note_on_c, 1, 67, 89
5, 161280, Note_off_c, 1, 67, 0
5, 161280, Note_on_c, 1, 67, 89
5, 161760, Note_off_c, 1, 67, 0
5, 161760, Note_on_c, 1, 67, 89
5, 161760, Sequencer_specific, 5, 5, 15, 15, 0, 2
5, 162240, Note_off_c, 1, 67, 0
5, 162240, Note_on_c, 1, 67, 89
5, 162720, Note_off_c, 1, 67, 0
5, 162720, Note_on_c, 1, 62, 89
5, 163200, Sequencer_specific, 6, 5, 15, 13, 62, 89, 1
5, 163680, Note_off_c, 1, 62, 0
5, 163680, Note_on_c, 1, 67, 89
5, 163680, Sequencer_specific, 5, 5, 15, 15, 0, 2
5, 163680, Note_on_c, 1, 59, 89
5, 163680, Note_on_c, 1, 62, 89
5, 164160, Note_off_c, 1, 62, 0
5, 164160, Note_off_c, 1, 59, 0
5, 164160, Note_off_c, 1, 67, 0
5, 164640, Note_on_c, 1, 67, 89
5, 164640, Note_on_c, 1, 62, 89
5, 164640, Note_on_c, 1, 59, 89
5, 165120, Note_off_c, 1, 59, 0
5, 165120, Note_off_c, 1, 62, 0
5, 165120, Note_off_c, 1, 67, 0
5, 165120, Note_on_c, 1, 67, 89
5, 165600, Note_off_c, 1, 67, 0
5, 165600, Note_on_c, 1, 67, 89
5, 165600, Sequencer_specific, 5, 5, 15, 15, 0, 2
5, 166080, Note_off_c, 1, 67, 0
5, 166080, Note_on_c, 1, 67, 89
5, 166560, Note_off_c, 1, 67, 0
5, 166560, Note_on_c, 1, 67, 89
5, 167040, Note_off_c, 1, 67, 0
5, 167040, Note_on_c, 1, 67, 89
5, 167520, Note_off_c, 1, 67, 0
5, 167520, Note_on_c, 1, 67, 89
5, 167520, Sequencer_specific, 5, 5, 15, 15, 0, 2
5, 168000, Note_off_c, 1, 67, 0
5, 168000, Note_on_c, 1, 67, 89
5, 168480, Note_off_c, 1, 67, 0
5, 168480, Note_on_c, 1, 64, 89
5, 168960, Note_off_c, 1, 64, 0
5, 168960, Note_on_c, 1, 67, 89
5, 169440, Note_off_c, 1, 67, 0
5, 169440, Note_on_c, 1, 67, 89
5, 169440, Sequencer_specific, 5, 5, 15, 15, 0, 2
5, 169920, Note_off_c, 1, 67, 0
5, 169920, Note_on_c, 1, 64, 89
5, 170400, Note_off_c, 1, 64, 0
5, 170400, Note_on_c, 1, 67, 89
5, 170880, Sequencer_specific, 6, 5, 15, 13, 67, 89, 1
5, 171360, Note_off_c, 1, 67, 0
5, 171360, Note_on_c, 1, 67, 89
5, 171360, Note_on_c, 1, 62, 89
5, 171360, Note_on_c, 1, 59, 89
5, 171840, Note_off_c, 1, 59, 0
5, 171840, Note_off_c, 1, 62, 0
5, 171840, Note_off_c, 1, 67, 0
5, 172320, Note_on_c, 1, 67, 89
5, 172320, Note_on_c, 1, 62, 89
5, 172320, Note_on_c, 1, 59, 89
5, 172800, Note_off_c, 1, 59, 0
5, 172800, Note_off_c, 1, 62, 0
5, 172800, Note_off_c, 1, 67, 0
5, 172800, Note_on_c, 1, 67, 89
5, 173280, Note_off_c, 1, 67, 0
5, 173280, Note_on_c, 1, 67, 89
5, 173760, Note_off_c, 1, 67, 0
5, 173760, Note_on_c, 1, 67, 89
5, 174720, Note_off_c, 1, 67, 0
5, 174720, Note_on_c, 1, 67, 89
5, 175200, Note_off_c, 1, 67, 0
5, 175200, Note_on_c, 1, 67, 89
5, 175200, Sequencer_specific, 5, 5, 15, 15, 0, 2
5, 175680, Note_off_c, 1, 67, 0
5, 175680, Note_on_c, 1, 67, 89
5, 176160, Note_off_c, 1, 67, 0
5, 176160, Note_on_c, 1, 67, 89
5, 176640, Note_off_c, 1, 67, 0
5, 176640, Note_on_c, 1, 67, 89
5, 177120, Note_off_c, 1, 67, 0
5, 177120, Note_on_c, 1, 67, 89
5, 177120, Sequencer_specific, 5, 5, 15, 15, 0, 2
5, 177600, Note_off_c, 1, 67, 0
5, 177600, Note_on_c, 1, 67, 89
5, 178080, Note_off_c, 1, 67, 0
5, 178080, Note_on_c, 1, 67, 89
5, 178560, Note_off_c, 1, 67, 0
5, 178560, Note_on_c, 1, 67, 89
5, 179040, Note_off_c, 1, 67, 0
5, 179040, Note_on_c, 1, 59, 89
5, 179040, Sequencer_specific, 5, 5, 15, 15, 0, 2
5, 179520, Note_off_c, 1, 59, 0
5, 179520, Note_on_c, 1, 62, 89
5, 180000, Note_off_c, 1, 62, 0
5, 180000, Note_on_c, 1, 63, 89
5, 180480, Note_off_c, 1, 63, 0
5, 180480, Note_on_c, 1, 64, 89
5, 181440, Note_off_c, 1, 64, 0
5, 181440, Note_on_c, 1, 64, 89
5, 182400, Note_off_c, 1, 64, 0
5, 182400, Note_on_c, 1, 62, 89
5, 182880, Note_off_c, 1, 62, 0
5, 182880, Note_on_c, 1, 64, 89
5, 182880, Sequencer_specific, 5, 5, 15, 15, 0, 2
5, 183360, Note_off_c, 1, 64, 0
5, 183360, Note_on_c, 1, 67, 89
5, 183840, Note_off_c, 1, 67, 0
5, 183840, Note_on_c, 1, 68, 89
5, 184320, Note_off_c, 1, 68, 0
5, 184320, Note_on_c, 1, 69, 89
5, 185280, Note_off_c, 1, 69, 0
5, 185760, Note_on_c, 1, 55, 89
5, 185760, Sequencer_specific, 4, 5, 15, 15, 8
5, 186240, Note_off_c, 1, 55, 0
5, 186240, Note_on_c, 1, 57, 89
5, 186240, Sequencer_specific, 4, 5, 15, 15, 8
5, 186720, Note_off_c, 1, 57, 0
5, 186720, Note_on_c, 1, 59, 89
5, 186720, Sequencer_specific, 5, 5, 15, 15, 8, 2
5, 187200, Note_off_c, 1, 59, 0
5, 187200, Note_on_c, 1, 62, 89
5, 187680, Note_off_c, 1, 62, 0
5, 187680, Note_on_c, 1, 63, 89
5, 188160, Note_off_c, 1, 63, 0
5, 188160, Note_on_c, 1, 64, 89
5, 188640, Note_off_c, 1, 64, 0
5, 188640, Note_on_c, 1, 64, 89
5, 188640, Sequencer_specific, 5, 5, 15, 15, 0, 2
5, 189120, Note_off_c, 1, 64, 0
5, 189120, Note_on_c, 1, 64, 89
5, 189600, Note_off_c, 1, 64, 0
5, 189600, Note_on_c, 1, 64, 89
5, 190080, Note_off_c, 1, 64, 0
5, 190080, Note_on_c, 1, 64, 89
5, 190560, Note_off_c, 1, 64, 0
5, 190560, Note_on_c, 1, 64, 89
5, 190560, Sequencer_specific, 5, 5, 15, 15, 0, 2
5, 191040, Note_off_c, 1, 64, 0
5, 191040, Note_on_c, 1, 67, 89
5, 191520, Note_off_c, 1, 67, 0
5, 191520, Note_on_c, 1, 68, 89
5, 192000, Note_off_c, 1, 68, 0
5, 192000, Note_on_c, 1, 69, 89
5, 192960, Note_off_c, 1, 69, 0
5, 193440, Note_on_c, 1, 55, 89
5, 193440, Sequencer_specific, 4, 5, 15, 15, 8
5, 193920, Note_off_c, 1, 55, 0
5, 193920, Note_on_c, 1, 57, 89
5, 193920, Sequencer_specific, 4, 5, 15, 15, 8
5, 194400, Note_off_c, 1, 57, 0
5, 194400, Note_on_c, 1, 59, 89
5, 194400, Sequencer_specific, 5, 5, 15, 15, 8, 2
5, 194880, Note_off_c, 1, 59, 0
5, 194880, Note_on_c, 1, 62, 89
5, 195360, Note_off_c, 1, 62, 0
5, 195360, Note_on_c, 1, 63, 89
5, 195840, Note_off_c, 1, 63, 0
5, 195840, Note_on_c, 1, 64, 89
5, 196800, Note_off_c, 1, 64, 0
5, 196800, Note_on_c, 1, 64, 89
5, 197760, Note_off_c, 1, 64, 0
5, 197760, Note_on_c, 1, 62, 89
5, 198240, Note_off_c, 1, 62, 0
5, 198240, Note_on_c, 1, 64, 89
5, 198240, Sequencer_specific, 5, 5, 15, 15, 0, 2
5, 198720, Note_off_c, 1, 64, 0
5, 198720, Note_on_c, 1, 67, 89
5, 199200, Note_off_c, 1, 67, 0
5, 199200, Note_on_c, 1, 68, 89
5, 199680, Note_off_c, 1, 68, 0
5, 199680, Note_on_c, 1, 69, 89
5, 200640, Note_off_c, 1, 69, 0
5, 201120, Note_on_c, 1, 55, 89
5, 201120, Sequencer_specific, 4, 5, 15, 15, 8
5, 201600, Note_off_c, 1, 55, 0
5, 201600, Note_on_c, 1, 57, 89
5, 201600, Sequencer_specific, 4, 5, 15, 15, 8
5, 202080, Note_off_c, 1, 57, 0
5, 202080, Note_on_c, 1, 64, 89
5, 202080, Sequencer_specific, 5, 5, 15, 15, 8, 2
5, 202560, Note_off_c, 1, 64, 0
5, 202560, Note_on_c, 1, 67, 89
5, 203040, Note_off_c, 1, 67, 0
5, 203040, Note_on_c, 1, 64, 89
5, 203520, Note_off_c, 1, 64, 0
5, 203520, Note_on_c, 1, 67, 89
5, 204480, Note_off_c, 1, 67, 0
5, 204480, Note_on_c, 1, 67, 89
5, 204960, Note_off_c, 1, 67, 0
5, 204960, Note_on_c, 1, 64, 89
5, 205440, Note_off_c, 1, 64, 0
5, 205440, Note_on_c, 1, 67, 89
5, 206400, Note_off_c, 1, 67, 0
5, 206400, Note_on_c, 1, 67, 89
5, 207360, Note_off_c, 1, 67, 0
5, 207360, Note_on_c, 1, 67, 89
5, 207840, Note_off_c, 1, 67, 0
5, 207840, Note_on_c, 1, 64, 89
5, 207840, Sequencer_specific, 5, 5, 15, 15, 0, 2
5, 208320, Note_off_c, 1, 64, 0
5, 208320, Note_on_c, 1, 67, 89
5, 208800, Note_off_c, 1, 67, 0
5, 208800, Note_on_c, 1, 64, 89
5, 209280, Note_off_c, 1, 64, 0
5, 209280, Note_on_c, 1, 67, 89
5, 210240, Note_off_c, 1, 67, 0
5, 211200, Note_on_c, 1, 71, 89
5, 211200, Note_on_c, 1, 67, 89
5, 212160, Note_off_c, 1, 67, 0
5, 212160, Note_off_c, 1, 71, 0
5, 212160, Note_on_c, 1, 71, 89
5, 212160, Note_on_c, 1, 67, 89
5, 213120, Note_off_c, 1, 67, 0
5, 213120, Note_off_c, 1, 71, 0
5, 213120, Note_on_c, 1, 71, 89
5, 213120, Note_on_c, 1, 67, 89
5, 213600, Note_off_c, 1, 67, 0
5, 213600, Note_off_c, 1, 71, 0
5, 213600, Note_on_c, 1, 71, 89
5, 213600, Note_on_c, 1, 67, 89
5, 214080, Note_off_c, 1, 67, 0
5, 214080, Note_off_c, 1, 71, 0
5, 214080, Note_on_c, 1, 71, 89
5, 214080, Note_on_c, 1, 67, 89
5, 215040, Note_off_c, 1, 67, 0
5, 215040, Note_off_c, 1, 71, 0
5, 215040, Note_on_c, 1, 71, 89
5, 215040, Note_on_c, 1, 67, 89
5, 215040, Note_on_c, 1, 62, 89
5, 215520, Note_off_c, 1, 62, 0
5, 215520, Note_off_c, 1, 67, 0
5, 215520, Note_off_c, 1, 71, 0
5, 215520, Note_on_c, 1, 71, 89
5, 215520, Note_on_c, 1, 67, 89
5, 216000, Note_off_c, 1, 67, 0
5, 216000, Note_off_c, 1, 71, 0
5, 216000, Note_on_c, 1, 71, 89
5, 216000, Note_on_c, 1, 67, 89
5, 216960, Note_off_c, 1, 67, 0
5, 216960, Note_off_c, 1, 71, 0
5, 216960, Note_on_c, 1, 69, 89
5, 216960, Note_on_c, 1, 66, 89
5, 217440, Note_off_c, 1, 66, 0
5, 217440, Note_off_c, 1, 69, 0
5, 217440, Note_on_c, 1, 64, 89
5, 217440, Sequencer_specific, 5, 5, 15, 15, 0, 2
5, 217440, Note_on_c, 1, 67, 89
5, 217920, Note_off_c, 1, 67, 0
5, 217920, Note_off_c, 1, 64, 0
5, 217920, Note_on_c, 1, 64, 89
5, 218400, Note_off_c, 1, 64, 0
5, 218400, Note_on_c, 1, 64, 89
5, 218880, Note_off_c, 1, 64, 0
5, 218880, Note_on_c, 1, 71, 89
5, 218880, Note_on_c, 1, 67, 89
5, 219360, Note_off_c, 1, 67, 0
5, 219360, Note_off_c, 1, 71, 0
5, 219360, Note_on_c, 1, 71, 89
5, 219360, Note_on_c, 1, 67, 89
5, 219360, Sequencer_specific, 5, 5, 15, 15, 0, 2
5, 219840, Note_off_c, 1, 67, 0
5, 219840, Note_off_c, 1, 71, 0
5, 219840, Note_on_c, 1, 71, 89
5, 219840, Note_on_c, 1, 67, 89
5, 220320, Note_off_c, 1, 67, 0
5, 220320, Note_off_c, 1, 71, 0
5, 220320, Note_on_c, 1, 71, 89
5, 220320, Note_on_c, 1, 67, 89
5, 220800, Note_off_c, 1, 67, 0
5, 220800, Note_off_c, 1, 71, 0
5, 220800, Note_on_c, 1, 66, 89
5, 220800, Note_on_c, 1, 69, 89
5, 221280, Note_off_c, 1, 69, 0
5, 221280, Note_off_c, 1, 66, 0
5, 221280, Note_on_c, 1, 64, 89
5, 221280, Sequencer_specific, 5, 5, 15, 15, 0, 2
5, 221280, Note_on_c, 1, 67, 89
5, 221760, Note_off_c, 1, 67, 0
5, 221760, Note_off_c, 1, 64, 0
5, 221760, Note_on_c, 1, 71, 89
5, 221760, Note_on_c, 1, 67, 89
5, 222240, Note_off_c, 1, 67, 0
5, 222240, Note_off_c, 1, 71, 0
5, 222240, Note_on_c, 1, 66, 89
5, 222240, Note_on_c, 1, 69, 89
5, 222720, Note_off_c, 1, 69, 0
5, 222720, Note_off_c, 1, 66, 0
5, 223200, Note_on_c, 1, 61, 89
5, 223680, Note_off_c, 1, 61, 0
5, 224160, Note_on_c, 1, 61, 89
5, 224640, Note_off_c, 1, 61, 0
5, 224640, Note_on_c, 1, 61, 89
5, 225120, Note_off_c, 1, 61, 0
5, 225120, Note_on_c, 1, 64, 89
5, 225600, Note_off_c, 1, 64, 0
5, 225600, Note_on_c, 1, 67, 89
5, 226080, Note_off_c, 1, 67, 0
5, 226080, Note_on_c, 1, 69, 89
5, 226560, Note_off_c, 1, 69, 0
5, 226560, Note_on_c, 1, 71, 89
5, 226560, Note_on_c, 1, 67, 89
5, 227520, Note_off_c, 1, 67, 0
5, 227520, Note_off_c, 1, 71, 0
5, 227520, Note_on_c, 1, 71, 89
5, 227520, Note_on_c, 1, 67, 89
5, 228480, Note_off_c, 1, 67, 0
5, 228480, Note_off_c, 1, 71, 0
5, 228480, Note_on_c, 1, 71, 89
5, 228480, Note_on_c, 1, 67, 89
5, 228960, Note_off_c, 1, 67, 0
5, 228960, Note_off_c, 1, 71, 0
5, 228960, Note_on_c, 1, 71, 89
5, 228960, Note_on_c, 1, 67, 89
5, 229440, Note_off_c, 1, 67, 0
5, 229440, Note_off_c, 1, 71, 0
5, 229440, Note_on_c, 1, 71, 89
5, 229440, Note_on_c, 1, 67, 89
5, 230400, Note_off_c, 1, 67, 0
5, 230400, Note_off_c, 1, 71, 0
5, 230400, Note_on_c, 1, 71, 89
5, 230400, Note_on_c, 1, 67, 89
5, 230400, Note_on_c, 1, 62, 89
5, 230880, Note_off_c, 1, 62, 0
5, 230880, Note_off_c, 1, 67, 0
5, 230880, Note_off_c, 1, 71, 0
5, 230880, Note_on_c, 1, 71, 89
5, 230880, Note_on_c, 1, 67, 89
5, 231360, Note_off_c, 1, 67, 0
5, 231360, Note_off_c, 1, 71, 0
5, 231360, Note_on_c, 1, 71, 89
5, 231360, Note_on_c, 1, 67, 89
5, 232320, Note_off_c, 1, 67, 0
5, 232320, Note_off_c, 1, 71, 0
5, 232320, Note_on_c, 1, 69, 89
5, 232320, Note_on_c, 1, 66, 89
5, 232800, Note_off_c, 1, 66, 0
5, 232800, Note_off_c, 1, 69, 0
5, 232800, Note_on_c, 1, 64, 89
5, 232800, Sequencer_specific, 5, 5, 15, 15, 0, 2
5, 232800, Note_on_c, 1, 67, 89
5, 233280, Note_off_c, 1, 67, 0
5, 233280, Note_off_c, 1, 64, 0
5, 233280, Note_on_c, 1, 64, 89
5, 233760, Note_off_c, 1, 64, 0
5, 233760, Note_on_c, 1, 64, 89
5, 234240, Note_off_c, 1, 64, 0
5, 234240, Note_on_c, 1, 71, 89
5, 234240, Note_on_c, 1, 67, 89
5, 234720, Note_off_c, 1, 67, 0
5, 234720, Note_off_c, 1, 71, 0
5, 234720, Note_on_c, 1, 71, 89
5, 234720, Note_on_c, 1, 67, 89
5, 234720, Sequencer_specific, 5, 5, 15, 15, 0, 2
5, 235200, Note_off_c, 1, 67, 0
5, 235200, Note_off_c, 1, 71, 0
5, 235200, Note_on_c, 1, 71, 89
5, 235200, Note_on_c, 1, 67, 89
5, 235680, Note_off_c, 1, 67, 0
5, 235680, Note_off_c, 1, 71, 0
5, 235680, Note_on_c, 1, 71, 89
5, 235680, Note_on_c, 1, 67, 89
5, 236160, Note_off_c, 1, 67, 0
5, 236160, Note_off_c, 1, 71, 0
5, 236160, Note_on_c, 1, 66, 89
5, 236160, Note_on_c, 1, 69, 89
5, 236640, Note_off_c, 1, 69, 0
5, 236640, Note_off_c, 1, 66, 0
5, 236640, Note_on_c, 1, 64, 89
5, 236640, Sequencer_specific, 5, 5, 15, 15, 0, 2
5, 236640, Note_on_c, 1, 67, 89
5, 237120, Note_off_c, 1, 67, 0
5, 237120, Note_off_c, 1, 64, 0
5, 237120, Note_on_c, 1, 71, 89
5, 237120, Note_on_c, 1, 67, 89
5, 237600, Note_off_c, 1, 67, 0
5, 237600, Note_off_c, 1, 71, 0
5, 237600, Note_on_c, 1, 66, 89
5, 237600, Note_on_c, 1, 69, 89
5, 238080, Sequencer_specific, 6, 5, 15, 13, 69, 89, 1
5, 238080, Sequencer_specific, 6, 5, 15, 13, 66, 89, 1
5, 238560, Note_off_c, 1, 66, 0
5, 238560, Note_off_c, 1, 69, 0
5, 239520, Note_on_c, 1, 64, 89
5, 240000, Note_off_c, 1, 64, 0
5, 240000, Note_on_c, 1, 67, 89
5, 240480, Note_off_c, 1, 67, 0
5, 240480, Note_on_c, 1, 69, 89
5, 240480, Sequencer_specific, 5, 5, 15, 15, 0, 2
5, 240960, Note_off_c, 1, 69, 0
5, 240960, Note_on_c, 1, 67, 89
5, 241440, Note_off_c, 1, 67, 0
5, 241440, Note_on_c, 1, 64, 89
5, 241440, Note_on_c, 1, 71, 89
5, 241440, Note_on_c, 1, 67, 89
5, 241440, Note_on_c, 1, 59, 89
5, 241440, Sequencer_specific, 4, 5, 15, 15, 8
5, 241920, Sequencer_specific, 6, 5, 15, 13, 71, 89, 1
5, 241920, Sequencer_specific, 6, 5, 15, 13, 67, 89, 1
5, 241920, Sequencer_specific, 6, 5, 15, 13, 64, 89, 1
5, 241920, Sequencer_specific, 6, 5, 15, 13, 59, 89, 1
5, 241920, Sequencer_specific, 4, 5, 15, 15, 8
5, 243360, Note_off_c, 1, 59, 0
5, 243360, Note_off_c, 1, 64, 0
5, 243360, Note_off_c, 1, 67, 0
5, 243360, Note_off_c, 1, 71, 0
5, 243360, Note_on_c, 1, 71, 89
5, 243360, Note_on_c, 1, 59, 89
5, 243360, Sequencer_specific, 4, 5, 15, 15, 8
5, 243840, Note_off_c, 1, 59, 0
5, 243840, Note_off_c, 1, 71, 0
5, 243840, Note_on_c, 1, 71, 89
5, 243840, Note_on_c, 1, 59, 89
5, 243840, Sequencer_specific, 4, 5, 15, 15, 8
5, 244320, Note_off_c, 1, 59, 0
5, 244320, Note_off_c, 1, 71, 0
5, 244320, Note_on_c, 1, 69, 89
5, 244320, Sequencer_specific, 5, 5, 15, 15, 0, 2
5, 244800, Note_off_c, 1, 69, 0
5, 244800, Note_on_c, 1, 67, 89
5, 245280, Note_off_c, 1, 67, 0
5, 245280, Note_on_c, 1, 69, 89
5, 245280, Note_on_c, 1, 66, 89
5, 245280, Note_on_c, 1, 63, 89
5, 245280, Note_on_c, 1, 57, 89
5, 245280, Sequencer_specific, 4, 5, 15, 15, 8
5, 245760, Sequencer_specific, 6, 5, 15, 13, 69, 89, 1
5, 245760, Sequencer_specific, 6, 5, 15, 13, 63, 89, 1
5, 245760, Sequencer_specific, 6, 5, 15, 13, 66, 89, 1
5, 245760, Sequencer_specific, 6, 5, 15, 13, 57, 89, 1
5, 245760, Sequencer_specific, 4, 5, 15, 15, 8
5, 247680, Note_off_c, 1, 57, 0
5, 247680, Note_off_c, 1, 63, 0
5, 247680, Note_off_c, 1, 66, 0
5, 247680, Note_off_c, 1, 69, 0
5, 247680, Note_on_c, 1, 67, 89
5, 248160, Note_off_c, 1, 67, 0
5, 248160, Note_on_c, 1, 69, 89
5, 248160, Sequencer_specific, 5, 5, 15, 15, 0, 2
5, 248640, Note_off_c, 1, 69, 0
5, 248640, Note_on_c, 1, 67, 89
5, 249120, Note_off_c, 1, 67, 0
5, 249120, Note_on_c, 1, 71, 89
5, 249120, Note_on_c, 1, 67, 89
5, 249120, Note_on_c, 1, 64, 89
5, 249120, Note_on_c, 1, 59, 89
5, 249120, Sequencer_specific, 4, 5, 15, 15, 8
5, 249600, Sequencer_specific, 6, 5, 15, 13, 71, 89, 1
5, 249600, Sequencer_specific, 6, 5, 15, 13, 67, 89, 1
5, 249600, Sequencer_specific, 6, 5, 15, 13, 64, 89, 1
5, 249600, Sequencer_specific, 6, 5, 15, 13, 59, 89, 1
5, 249600, Sequencer_specific, 4, 5, 15, 15, 8
5, 250080, Note_off_c, 1, 59, 0
5, 250080, Note_off_c, 1, 64, 0
5, 250080, Note_off_c, 1, 67, 0
5, 250080, Note_off_c, 1, 71, 0
5, 250080, Note_on_c, 1, 71, 89
5, 250080, Note_on_c, 1, 67, 89
5, 250080, Note_on_c, 1, 64, 89
5, 250080, Note_on_c, 1, 59, 89
5, 250080, Sequencer_specific, 4, 5, 15, 15, 8
5, 251040, Note_off_c, 1, 59, 0
5, 251040, Note_off_c, 1, 64, 0
5, 251040, Note_off_c, 1, 67, 0
5, 251040, Note_off_c, 1, 71, 0
5, 251040, Note_on_c, 1, 71, 89
5, 251040, Note_on_c, 1, 67, 89
5, 251040, Note_on_c, 1, 64, 89
5, 251040, Note_on_c, 1, 59, 89
5, 251040, Sequencer_specific, 4, 5, 15, 15, 8
5, 251520, Note_off_c, 1, 59, 0
5, 251520, Note_off_c, 1, 64, 0
5, 251520, Note_off_c, 1, 67, 0
5, 251520, Note_off_c, 1, 71, 0
5, 251520, Note_on_c, 1, 71, 89
5, 251520, Note_on_c, 1, 67, 89
5, 251520, Note_on_c, 1, 64, 89
5, 251520, Note_on_c, 1, 59, 89
5, 251520, Sequencer_specific, 4, 5, 15, 15, 8
5, 252000, Note_off_c, 1, 59, 0
5, 252000, Note_off_c, 1, 64, 0
5, 252000, Note_off_c, 1, 67, 0
5, 252000, Note_off_c, 1, 71, 0
5, 252000, Note_on_c, 1, 69, 89
5, 252480, Note_off_c, 1, 69, 0
5, 252480, Note_on_c, 1, 67, 89
5, 252960, Note_off_c, 1, 67, 0
5, 252960, Note_on_c, 1, 69, 89
5, 252960, Note_on_c, 1, 64, 89
5, 252960, Note_on_c, 1, 61, 89
5, 253440, Sequencer_specific, 6, 5, 15, 13, 69, 89, 1
5, 253440, Sequencer_specific, 6, 5, 15, 13, 64, 89, 1
5, 253440, Sequencer_specific, 6, 5, 15, 13, 61, 89, 1
5, 255360, Note_off_c, 1, 61, 0
5, 255360, Note_off_c, 1, 64, 0
5, 255360, Note_off_c, 1, 69, 0
5, 255360, Note_on_c, 1, 64, 89
5, 255840, Note_off_c, 1, 64, 0
5, 255840, Note_on_c, 1, 66, 89
5, 255840, Sequencer_specific, 5, 5, 15, 15, 0, 2
5, 256320, Note_off_c, 1, 66, 0
5, 256320, Note_on_c, 1, 67, 89
5, 256800, Note_off_c, 1, 67, 0
5, 256800, Note_on_c, 1, 69, 89
5, 257280, Note_off_c, 1, 69, 0
5, 257280, Note_on_c, 1, 71, 89
5, 257280, Note_on_c, 1, 67, 89
5, 257280, Note_on_c, 1, 64, 89
5, 257280, Note_on_c, 1, 59, 89
5, 257280, Sequencer_specific, 4, 5, 15, 15, 8
5, 258240, Note_off_c, 1, 59, 0
5, 258240, Note_off_c, 1, 64, 0
5, 258240, Note_off_c, 1, 67, 0
5, 258240, Note_off_c, 1, 71, 0
5, 258240, Note_on_c, 1, 71, 89
5, 258240, Note_on_c, 1, 67, 89
5, 258240, Note_on_c, 1, 64, 89
5, 258240, Note_on_c, 1, 59, 89
5, 258240, Sequencer_specific, 4, 5, 15, 15, 8
5, 259200, Note_off_c, 1, 59, 0
5, 259200, Note_off_c, 1, 64, 0
5, 259200, Note_off_c, 1, 67, 0
5, 259200, Note_off_c, 1, 71, 0
5, 259200, Note_on_c, 1, 71, 89
5, 259200, Note_on_c, 1, 67, 89
5, 259200, Note_on_c, 1, 64, 89
5, 259200, Note_on_c, 1, 59, 89
5, 259200, Sequencer_specific, 4, 5, 15, 15, 8
5, 259680, Note_off_c, 1, 59, 0
5, 259680, Note_off_c, 1, 64, 0
5, 259680, Note_off_c, 1, 67, 0
5, 259680, Note_off_c, 1, 71, 0
5, 259680, Note_on_c, 1, 71, 89
5, 259680, Note_on_c, 1, 67, 89
5, 259680, Note_on_c, 1, 64, 89
5, 259680, Note_on_c, 1, 59, 89
5, 259680, Sequencer_specific, 4, 5, 15, 15, 8
5, 260160, Note_off_c, 1, 59, 0
5, 260160, Note_off_c, 1, 64, 0
5, 260160, Note_off_c, 1, 67, 0
5, 260160, Note_off_c, 1, 71, 0
5, 260160, Note_on_c, 1, 71, 89
5, 260160, Note_on_c, 1, 67, 89
5, 260160, Note_on_c, 1, 64, 89
5, 260160, Note_on_c, 1, 59, 89
5, 260160, Sequencer_specific, 4, 5, 15, 15, 8
5, 261120, Note_off_c, 1, 59, 0
5, 261120, Note_off_c, 1, 64, 0
5, 261120, Note_off_c, 1, 67, 0
5, 261120, Note_off_c, 1, 71, 0
5, 261120, Note_on_c, 1, 71, 89
5, 261120, Note_on_c, 1, 66, 89
5, 261120, Note_on_c, 1, 59, 89
5, 261120, Sequencer_specific, 4, 5, 15, 15, 8
5, 261120, Note_on_c, 1, 63, 89
5, 261600, Note_off_c, 1, 63, 0
5, 261600, Note_off_c, 1, 59, 0
5, 261600, Note_off_c, 1, 66, 0
5, 261600, Note_off_c, 1, 71, 0
5, 261600, Note_on_c, 1, 71, 89
5, 261600, Note_on_c, 1, 59, 89
5, 261600, Sequencer_specific, 4, 5, 15, 15, 8
5, 262080, Note_off_c, 1, 59, 0
5, 262080, Note_off_c, 1, 71, 0
5, 262080, Note_on_c, 1, 71, 89
5, 262080, Note_on_c, 1, 59, 89
5, 262080, Sequencer_specific, 4, 5, 15, 15, 8
5, 263040, Note_off_c, 1, 59, 0
5, 263040, Note_off_c, 1, 71, 0
5, 263040, Note_on_c, 1, 69, 89
5, 263520, Note_off_c, 1, 69, 0
5, 263520, Note_on_c, 1, 67, 89
5, 264000, Note_off_c, 1, 67, 0
5, 264000, Note_on_c, 1, 64, 89
5, 264960, Note_off_c, 1, 64, 0
5, 280320, Note_on_c, 1, 52, 89
5, 281280, Note_off_c, 1, 52, 0
5, 281280, Note_on_c, 1, 64, 89
5, 282240, Note_off_c, 1, 64, 0
5, 282240, Note_on_c, 1, 62, 89
5, 282720, Note_off_c, 1, 62, 0
5, 282720, Note_on_c, 1, 64, 89
5, 282720, Sequencer_specific, 5, 5, 15, 15, 0, 2
5, 283200, Note_off_c, 1, 64, 0
5, 283200, Note_on_c, 1, 59, 89
5, 283680, Note_off_c, 1, 59, 0
5, 283680, Note_on_c, 1, 57, 89
5, 284160, Note_off_c, 1, 57, 0
5, 284640, Note_on_c, 1, 57, 89
5, 285120, Note_off_c, 1, 57, 0
5, 285600, Note_on_c, 1, 55, 89
5, 286080, Note_off_c, 1, 55, 0
5, 286080, Note_on_c, 1, 57, 89
5, 286560, Note_off_c, 1, 57, 0
5, 286560, Note_on_c, 1, 59, 89
5, 286560, Sequencer_specific, 5, 5, 15, 15, 0, 2
5, 287040, Note_off_c, 1, 59, 0
5, 287040, Note_on_c, 1, 57, 89
5, 287040, Sequencer_specific, 4, 5, 15, 15, 8
5, 287520, Note_off_c, 1, 57, 0
5, 287520, Note_on_c, 1, 55, 89
5, 287520, Sequencer_specific, 4, 5, 15, 15, 8
5, 288000, Note_off_c, 1, 55, 0
5, 288000, Note_on_c, 1, 52, 89
5, 288000, Sequencer_specific, 4, 5, 15, 15, 8
5, 288960, Note_off_c, 1, 52, 0
5, 288960, Note_on_c, 1, 64, 89
5, 289920, Note_off_c, 1, 64, 0
5, 289920, Note_on_c, 1, 62, 89
5, 290400, Note_off_c, 1, 62, 0
5, 290400, Note_on_c, 1, 64, 89
5, 290400, Sequencer_specific, 5, 5, 15, 15, 0, 2
5, 290880, Note_off_c, 1, 64, 0
5, 290880, Note_on_c, 1, 59, 89
5, 290880, Sequencer_specific, 4, 5, 15, 15, 8
5, 291360, Note_off_c, 1, 59, 0
5, 291360, Note_on_c, 1, 57, 89
5, 291360, Sequencer_specific, 4, 5, 15, 15, 8
5, 291840, Note_off_c, 1, 57, 0
5, 292320, Note_on_c, 1, 57, 89
5, 292800, Note_off_c, 1, 57, 0
5, 293280, Note_on_c, 1, 55, 89
5, 293760, Note_off_c, 1, 55, 0
5, 293760, Note_on_c, 1, 57, 89
5, 294240, Note_off_c, 1, 57, 0
5, 295680, Note_on_c, 1, 76, 89
5, 296640, Note_off_c, 1, 76, 0
5, 296640, Note_on_c, 1, 83, 89
5, 297600, Note_off_c, 1, 83, 0
5, 297600, Note_on_c, 1, 81, 89
5, 298560, Note_off_c, 1, 81, 0
5, 298560, Note_on_c, 1, 79, 89
5, 299040, Note_off_c, 1, 79, 0
5, 299040, Note_on_c, 1, 76, 89
5, 299520, Sequencer_specific, 6, 5, 15, 13, 76, 89, 1
5, 300480, Note_off_c, 1, 76, 0
5, 300480, Note_on_c, 1, 83, 89
5, 301440, Note_off_c, 1, 83, 0
5, 301440, Note_on_c, 1, 81, 89
5, 302400, Note_off_c, 1, 81, 0
5, 302400, Note_on_c, 1, 79, 89
5, 303360, Note_off_c, 1, 79, 0
5, 303360, Note_on_c, 1, 76, 89
5, 304320, Note_off_c, 1, 76, 0
5, 304320, Note_on_c, 1, 83, 89
5, 305280, Note_off_c, 1, 83, 0
5, 305280, Note_on_c, 1, 81, 89
5, 306240, Note_off_c, 1, 81, 0
5, 306240, Note_on_c, 1, 79, 89
5, 306720, Note_off_c, 1, 79, 0
5, 306720, Note_on_c, 1, 76, 89
5, 307200, Sequencer_specific, 6, 5, 15, 13, 76, 89, 1
5, 308160, Note_off_c, 1, 76, 0
5, 308160, Note_on_c, 1, 83, 89
5, 309120, Note_off_c, 1, 83, 0
5, 309120, Note_on_c, 1, 81, 89
5, 310080, Note_off_c, 1, 81, 0
5, 310080, Note_on_c, 1, 79, 89
5, 311040, Note_off_c, 1, 79, 0
5, 311040, Note_on_c, 1, 76, 89
5, 312000, Note_off_c, 1, 76, 0
5, 312000, Note_on_c, 1, 83, 89
5, 312960, Note_off_c, 1, 83, 0
5, 312960, Note_on_c, 1, 81, 89
5, 313920, Note_off_c, 1, 81, 0
5, 313920, Note_on_c, 1, 79, 89
5, 314400, Note_off_c, 1, 79, 0
5, 314400, Note_on_c, 1, 76, 89
5, 314880, Sequencer_specific, 6, 5, 15, 13, 76, 89, 1
5, 315840, Note_off_c, 1, 76, 0
5, 315840, Note_on_c, 1, 83, 89
5, 316800, Note_off_c, 1, 83, 0
5, 316800, Note_on_c, 1, 81, 89
5, 317760, Note_off_c, 1, 81, 0
5, 317760, Note_on_c, 1, 79, 89
5, 318720, Note_off_c, 1, 79, 0
5, 318720, Note_on_c, 1, 76, 89
5, 319200, Note_off_c, 1, 76, 0
5, 319200, Note_on_c, 1, 83, 89
5, 319200, Sequencer_specific, 5, 5, 15, 15, 0, 2
5, 319680, Note_off_c, 1, 83, 0
5, 319680, Note_on_c, 1, 76, 89
5, 320160, Note_off_c, 1, 76, 0
5, 320160, Note_on_c, 1, 83, 89
5, 320640, Note_off_c, 1, 83, 0
5, 320640, Note_on_c, 1, 76, 89
5, 321120, Note_off_c, 1, 76, 0
5, 321120, Note_on_c, 1, 83, 89
5, 321120, Sequencer_specific, 5, 5, 15, 15, 0, 2
5, 321600, Note_off_c, 1, 83, 0
5, 321600, Note_on_c, 1, 76, 89
5, 322080, Note_off_c, 1, 76, 0
5, 322080, Note_on_c, 1, 83, 89
5, 322560, Note_off_c, 1, 83, 0
5, 322560, Note_on_c, 1, 76, 89
5, 322560, Note_on_c, 1, 88, 89
5, 326400, Note_off_c, 1, 88, 0
5, 326400, Note_off_c, 1, 76, 0
5, 326400, Note_on_c, 1, 71, 89
5, 326400, Note_on_c, 1, 67, 89
5, 327360, Note_off_c, 1, 67, 0
5, 327360, Note_off_c, 1, 71, 0
5, 327360, Note_on_c, 1, 71, 89
5, 327360, Note_on_c, 1, 67, 89
5, 328320, Note_off_c, 1, 67, 0
5, 328320, Note_off_c, 1, 71, 0
5, 328320, Note_on_c, 1, 71, 89
5, 328320, Note_on_c, 1, 67, 89
5, 328800, Note_off_c, 1, 67, 0
5, 328800, Note_off_c, 1, 71, 0
5, 328800, Note_on_c, 1, 71, 89
5, 328800, Note_on_c, 1, 67, 89
5, 329280, Note_off_c, 1, 67, 0
5, 329280, Note_off_c, 1, 71, 0
5, 329280, Note_on_c, 1, 71, 89
5, 329280, Note_on_c, 1, 67, 89
5, 330240, Note_off_c, 1, 67, 0
5, 330240, Note_off_c, 1, 71, 0
5, 330240, Note_on_c, 1, 71, 89
5, 330240, Note_on_c, 1, 67, 89
5, 330240, Note_on_c, 1, 62, 89
5, 330720, Note_off_c, 1, 62, 0
5, 330720, Note_off_c, 1, 67, 0
5, 330720, Note_off_c, 1, 71, 0
5, 330720, Note_on_c, 1, 71, 89
5, 330720, Note_on_c, 1, 67, 89
5, 331200, Note_off_c, 1, 67, 0
5, 331200, Note_off_c, 1, 71, 0
5, 331200, Note_on_c, 1, 71, 89
5, 331200, Note_on_c, 1, 67, 89
5, 332160, Note_off_c, 1, 67, 0
5, 332160, Note_off_c, 1, 71, 0
5, 332160, Note_on_c, 1, 69, 89
5, 332160, Note_on_c, 1, 66, 89
5, 332640, Note_off_c, 1, 66, 0
5, 332640, Note_off_c, 1, 69, 0
5, 332640, Note_on_c, 1, 64, 89
5, 332640, Sequencer_specific, 5, 5, 15, 15, 0, 2
5, 332640, Note_on_c, 1, 67, 89
5, 333120, Note_off_c, 1, 67, 0
5, 333120, Note_off_c, 1, 64, 0
5, 333120, Note_on_c, 1, 64, 89
5, 333600, Note_off_c, 1, 64, 0
5, 333600, Note_on_c, 1, 64, 89
5, 334080, Note_off_c, 1, 64, 0
5, 334080, Note_on_c, 1, 71, 89
5, 334080, Note_on_c, 1, 67, 89
5, 334560, Note_off_c, 1, 67, 0
5, 334560, Note_off_c, 1, 71, 0
5, 334560, Note_on_c, 1, 71, 89
5, 334560, Note_on_c, 1, 67, 89
5, 334560, Sequencer_specific, 5, 5, 15, 15, 0, 2
5, 335040, Note_off_c, 1, 67, 0
5, 335040, Note_off_c, 1, 71, 0
5, 335040, Note_on_c, 1, 71, 89
5, 335040, Note_on_c, 1, 67, 89
5, 335520, Note_off_c, 1, 67, 0
5, 335520, Note_off_c, 1, 71, 0
5, 335520, Note_on_c, 1, 71, 89
5, 335520, Note_on_c, 1, 67, 89
5, 336000, Note_off_c, 1, 67, 0
5, 336000, Note_off_c, 1, 71, 0
5, 336000, Note_on_c, 1, 66, 89
5, 336000, Note_on_c, 1, 69, 89
5, 336480, Note_off_c, 1, 69, 0
5, 336480, Note_off_c, 1, 66, 0
5, 336480, Note_on_c, 1, 64, 89
5, 336480, Sequencer_specific, 5, 5, 15, 15, 0, 2
5, 336480, Note_on_c, 1, 67, 89
5, 336960, Note_off_c, 1, 67, 0
5, 336960, Note_off_c, 1, 64, 0
5, 336960, Note_on_c, 1, 71, 89
5, 336960, Note_on_c, 1, 67, 89
5, 337440, Note_off_c, 1, 67, 0
5, 337440, Note_off_c, 1, 71, 0
5, 337440, Note_on_c, 1, 66, 89
5, 337440, Note_on_c, 1, 69, 89
5, 337920, Note_off_c, 1, 69, 0
5, 337920, Note_off_c, 1, 66, 0
5, 338400, Note_on_c, 1, 61, 89
5, 338880, Note_off_c, 1, 61, 0
5, 339360, Note_on_c, 1, 61, 89
5, 339840, Note_off_c, 1, 61, 0
5, 339840, Note_on_c, 1, 61, 89
5, 340320, Note_off_c, 1, 61, 0
5, 340320, Note_on_c, 1, 64, 89
5, 340800, Note_off_c, 1, 64, 0
5, 340800, Note_on_c, 1, 67, 89
5, 341280, Note_off_c, 1, 67, 0
5, 341280, Note_on_c, 1, 69, 89
5, 341760, Note_off_c, 1, 69, 0
5, 341760, Note_on_c, 1, 71, 89
5, 341760, Note_on_c, 1, 67, 89
5, 342720, Note_off_c, 1, 67, 0
5, 342720, Note_off_c, 1, 71, 0
5, 342720, Note_on_c, 1, 71, 89
5, 342720, Note_on_c, 1, 67, 89
5, 343680, Note_off_c, 1, 67, 0
5, 343680, Note_off_c, 1, 71, 0
5, 343680, Note_on_c, 1, 71, 89
5, 343680, Note_on_c, 1, 67, 89
5, 344160, Note_off_c, 1, 67, 0
5, 344160, Note_off_c, 1, 71, 0
5, 344160, Note_on_c, 1, 71, 89
5, 344160, Note_on_c, 1, 67, 89
5, 344640, Note_off_c, 1, 67, 0
5, 344640, Note_off_c, 1, 71, 0
5, 344640, Note_on_c, 1, 71, 89
5, 344640, Note_on_c, 1, 67, 89
5, 345600, Note_off_c, 1, 67, 0
5, 345600, Note_off_c, 1, 71, 0
5, 345600, Note_on_c, 1, 71, 89
5, 345600, Note_on_c, 1, 67, 89
5, 345600, Note_on_c, 1, 62, 89
5, 346080, Note_off_c, 1, 62, 0
5, 346080, Note_off_c, 1, 67, 0
5, 346080, Note_off_c, 1, 71, 0
5, 346080, Note_on_c, 1, 71, 89
5, 346080, Note_on_c, 1, 67, 89
5, 346560, Note_off_c, 1, 67, 0
5, 346560, Note_off_c, 1, 71, 0
5, 346560, Note_on_c, 1, 71, 89
5, 346560, Note_on_c, 1, 67, 89
5, 347520, Note_off_c, 1, 67, 0
5, 347520, Note_off_c, 1, 71, 0
5, 347520, Note_on_c, 1, 69, 89
5, 347520, Note_on_c, 1, 66, 89
5, 348000, Note_off_c, 1, 66, 0
5, 348000, Note_off_c, 1, 69, 0
5, 348000, Note_on_c, 1, 64, 89
5, 348000, Sequencer_specific, 5, 5, 15, 15, 0, 2
5, 348000, Note_on_c, 1, 67, 89
5, 348480, Note_off_c, 1, 67, 0
5, 348480, Note_off_c, 1, 64, 0
5, 348480, Note_on_c, 1, 64, 89
5, 348960, Note_off_c, 1, 64, 0
5, 348960, Note_on_c, 1, 64, 89
5, 349440, Note_off_c, 1, 64, 0
5, 349440, Note_on_c, 1, 71, 89
5, 349440, Note_on_c, 1, 67, 89
5, 349920, Note_off_c, 1, 67, 0
5, 349920, Note_off_c, 1, 71, 0
5, 349920, Note_on_c, 1, 71, 89
5, 349920, Note_on_c, 1, 67, 89
5, 349920, Sequencer_specific, 5, 5, 15, 15, 0, 2
5, 350400, Note_off_c, 1, 67, 0
5, 350400, Note_off_c, 1, 71, 0
5, 350400, Note_on_c, 1, 71, 89
5, 350400, Note_on_c, 1, 67, 89
5, 350880, Note_off_c, 1, 67, 0
5, 350880, Note_off_c, 1, 71, 0
5, 350880, Note_on_c, 1, 71, 89
5, 350880, Note_on_c, 1, 67, 89
5, 351360, Note_off_c, 1, 67, 0
5, 351360, Note_off_c, 1, 71, 0
5, 351360, Note_on_c, 1, 66, 89
5, 351360, Note_on_c, 1, 69, 89
5, 351840, Note_off_c, 1, 69, 0
5, 351840, Note_off_c, 1, 66, 0
5, 351840, Note_on_c, 1, 64, 89
5, 351840, Sequencer_specific, 5, 5, 15, 15, 0, 2
5, 351840, Note_on_c, 1, 67, 89
5, 352320, Note_off_c, 1, 67, 0
5, 352320, Note_off_c, 1, 64, 0
5, 352320, Note_on_c, 1, 71, 89
5, 352320, Note_on_c, 1, 67, 89
5, 352800, Note_off_c, 1, 67, 0
5, 352800, Note_off_c, 1, 71, 0
5, 352800, Note_on_c, 1, 66, 89
5, 352800, Note_on_c, 1, 69, 89
5, 353280, Sequencer_specific, 6, 5, 15, 13, 69, 89, 1
5, 353280, Sequencer_specific, 6, 5, 15, 13, 66, 89, 1
5, 353760, Note_off_c, 1, 66, 0
5, 353760, Note_off_c, 1, 69, 0
5, 354720, Note_on_c, 1, 64, 89
5, 355200, Note_off_c, 1, 64, 0
5, 355200, Note_on_c, 1, 67, 89
5, 355680, Note_off_c, 1, 67, 0
5, 355680, Note_on_c, 1, 69, 89
5, 355680, Sequencer_specific, 5, 5, 15, 15, 0, 2
5, 356160, Note_off_c, 1, 69, 0
5, 356160, Note_on_c, 1, 67, 89
5, 356640, Note_off_c, 1, 67, 0
5, 356640, Note_on_c, 1, 64, 89
5, 356640, Note_on_c, 1, 71, 89
5, 356640, Note_on_c, 1, 67, 89
5, 356640, Note_on_c, 1, 59, 89
5, 356640, Sequencer_specific, 4, 5, 15, 15, 8
5, 357120, Sequencer_specific, 6, 5, 15, 13, 71, 89, 1
5, 357120, Sequencer_specific, 6, 5, 15, 13, 67, 89, 1
5, 357120, Sequencer_specific, 6, 5, 15, 13, 64, 89, 1
5, 357120, Sequencer_specific, 6, 5, 15, 13, 59, 89, 1
5, 357120, Sequencer_specific, 4, 5, 15, 15, 8
5, 358560, Note_off_c, 1, 59, 0
5, 358560, Note_off_c, 1, 64, 0
5, 358560, Note_off_c, 1, 67, 0
5, 358560, Note_off_c, 1, 71, 0
5, 358560, Note_on_c, 1, 71, 89
5, 358560, Note_on_c, 1, 59, 89
5, 358560, Sequencer_specific, 4, 5, 15, 15, 8
5, 359040, Note_off_c, 1, 59, 0
5, 359040, Note_off_c, 1, 71, 0
5, 359040, Note_on_c, 1, 71, 89
5, 359040, Note_on_c, 1, 59, 89
5, 359040, Sequencer_specific, 4, 5, 15, 15, 8
5, 359520, Note_off_c, 1, 59, 0
5, 359520, Note_off_c, 1, 71, 0
5, 359520, Note_on_c, 1, 69, 89
5, 359520, Sequencer_specific, 5, 5, 15, 15, 0, 2
5, 360000, Note_off_c, 1, 69, 0
5, 360000, Note_on_c, 1, 67, 89
5, 360480, Note_off_c, 1, 67, 0
5, 360480, Note_on_c, 1, 69, 89
5, 360480, Note_on_c, 1, 66, 89
5, 360480, Note_on_c, 1, 63, 89
5, 360480, Note_on_c, 1, 57, 89
5, 360480, Sequencer_specific, 4, 5, 15, 15, 8
5, 360960, Sequencer_specific, 6, 5, 15, 13, 69, 89, 1
5, 360960, Sequencer_specific, 6, 5, 15, 13, 63, 89, 1
5, 360960, Sequencer_specific, 6, 5, 15, 13, 66, 89, 1
5, 360960, Sequencer_specific, 6, 5, 15, 13, 57, 89, 1
5, 360960, Sequencer_specific, 4, 5, 15, 15, 8
5, 362880, Note_off_c, 1, 57, 0
5, 362880, Note_off_c, 1, 63, 0
5, 362880, Note_off_c, 1, 66, 0
5, 362880, Note_off_c, 1, 69, 0
5, 362880, Note_on_c, 1, 67, 89
5, 363360, Note_off_c, 1, 67, 0
5, 363360, Note_on_c, 1, 69, 89
5, 363360, Sequencer_specific, 5, 5, 15, 15, 0, 2
5, 363840, Note_off_c, 1, 69, 0
5, 363840, Note_on_c, 1, 67, 89
5, 364320, Note_off_c, 1, 67, 0
5, 364320, Note_on_c, 1, 71, 89
5, 364320, Note_on_c, 1, 67, 89
5, 364320, Note_on_c, 1, 64, 89
5, 364320, Note_on_c, 1, 59, 89
5, 364320, Sequencer_specific, 4, 5, 15, 15, 8
5, 364800, Sequencer_specific, 6, 5, 15, 13, 71, 89, 1
5, 364800, Sequencer_specific, 6, 5, 15, 13, 67, 89, 1
5, 364800, Sequencer_specific, 6, 5, 15, 13, 64, 89, 1
5, 364800, Sequencer_specific, 6, 5, 15, 13, 59, 89, 1
5, 364800, Sequencer_specific, 4, 5, 15, 15, 8
5, 365280, Note_off_c, 1, 59, 0
5, 365280, Note_off_c, 1, 64, 0
5, 365280, Note_off_c, 1, 67, 0
5, 365280, Note_off_c, 1, 71, 0
5, 365280, Note_on_c, 1, 71, 89
5, 365280, Note_on_c, 1, 67, 89
5, 365280, Note_on_c, 1, 64, 89
5, 365280, Note_on_c, 1, 59, 89
5, 365280, Sequencer_specific, 4, 5, 15, 15, 8
5, 366240, Note_off_c, 1, 59, 0
5, 366240, Note_off_c, 1, 64, 0
5, 366240, Note_off_c, 1, 67, 0
5, 366240, Note_off_c, 1, 71, 0
5, 366240, Note_on_c, 1, 71, 89
5, 366240, Note_on_c, 1, 67, 89
5, 366240, Note_on_c, 1, 64, 89
5, 366240, Note_on_c, 1, 59, 89
5, 366240, Sequencer_specific, 4, 5, 15, 15, 8
5, 366720, Note_off_c, 1, 59, 0
5, 366720, Note_off_c, 1, 64, 0
5, 366720, Note_off_c, 1, 67, 0
5, 366720, Note_off_c, 1, 71, 0
5, 366720, Note_on_c, 1, 71, 89
5, 366720, Note_on_c, 1, 67, 89
5, 366720, Note_on_c, 1, 64, 89
5, 366720, Note_on_c, 1, 59, 89
5, 366720, Sequencer_specific, 4, 5, 15, 15, 8
5, 367200, Note_off_c, 1, 59, 0
5, 367200, Note_off_c, 1, 64, 0
5, 367200, Note_off_c, 1, 67, 0
5, 367200, Note_off_c, 1, 71, 0
5, 367200, Note_on_c, 1, 69, 89
5, 367680, Note_off_c, 1, 69, 0
5, 367680, Note_on_c, 1, 67, 89
5, 368160, Note_off_c, 1, 67, 0
5, 368160, Note_on_c, 1, 69, 89
5, 368160, Note_on_c, 1, 64, 89
5, 368160, Note_on_c, 1, 61, 89
5, 368640, Sequencer_specific, 6, 5, 15, 13, 69, 89, 1
5, 368640, Sequencer_specific, 6, 5, 15, 13, 64, 89, 1
5, 368640, Sequencer_specific, 6, 5, 15, 13, 61, 89, 1
5, 370560, Note_off_c, 1, 61, 0
5, 370560, Note_off_c, 1, 64, 0
5, 370560, Note_off_c, 1, 69, 0
5, 370560, Note_on_c, 1, 64, 89
5, 371040, Note_off_c, 1, 64, 0
5, 371040, Note_on_c, 1, 66, 89
5, 371040, Sequencer_specific, 5, 5, 15, 15, 0, 2
5, 371520, Note_off_c, 1, 66, 0
5, 371520, Note_on_c, 1, 67, 89
5, 372000, Note_off_c, 1, 67, 0
5, 372000, Note_on_c, 1, 69, 89
5, 372480, Note_off_c, 1, 69, 0
5, 372480, Note_on_c, 1, 71, 89
5, 372480, Note_on_c, 1, 67, 89
5, 372480, Note_on_c, 1, 64, 89
5, 372480, Note_on_c, 1, 59, 89
5, 372480, Sequencer_specific, 4, 5, 15, 15, 8
5, 373440, Note_off_c, 1, 59, 0
5, 373440, Note_off_c, 1, 64, 0
5, 373440, Note_off_c, 1, 67, 0
5, 373440, Note_off_c, 1, 71, 0
5, 373440, Note_on_c, 1, 71, 89
5, 373440, Note_on_c, 1, 67, 89
5, 373440, Note_on_c, 1, 64, 89
5, 373440, Note_on_c, 1, 59, 89
5, 373440, Sequencer_specific, 4, 5, 15, 15, 8
5, 374400, Note_off_c, 1, 59, 0
5, 374400, Note_off_c, 1, 64, 0
5, 374400, Note_off_c, 1, 67, 0
5, 374400, Note_off_c, 1, 71, 0
5, 374400, Note_on_c, 1, 71, 89
5, 374400, Note_on_c, 1, 67, 89
5, 374400, Note_on_c, 1, 64, 89
5, 374400, Note_on_c, 1, 59, 89
5, 374400, Sequencer_specific, 4, 5, 15, 15, 8
5, 374880, Note_off_c, 1, 59, 0
5, 374880, Note_off_c, 1, 64, 0
5, 374880, Note_off_c, 1, 67, 0
5, 374880, Note_off_c, 1, 71, 0
5, 374880, Note_on_c, 1, 71, 89
5, 374880, Note_on_c, 1, 67, 89
5, 374880, Note_on_c, 1, 64, 89
5, 374880, Note_on_c, 1, 59, 89
5, 374880, Sequencer_specific, 4, 5, 15, 15, 8
5, 375360, Note_off_c, 1, 59, 0
5, 375360, Note_off_c, 1, 64, 0
5, 375360, Note_off_c, 1, 67, 0
5, 375360, Note_off_c, 1, 71, 0
5, 375360, Note_on_c, 1, 71, 89
5, 375360, Note_on_c, 1, 67, 89
5, 375360, Note_on_c, 1, 64, 89
5, 375360, Note_on_c, 1, 59, 89
5, 375360, Sequencer_specific, 4, 5, 15, 15, 8
5, 376320, Note_off_c, 1, 59, 0
5, 376320, Note_off_c, 1, 64, 0
5, 376320, Note_off_c, 1, 67, 0
5, 376320, Note_off_c, 1, 71, 0
5, 376320, Note_on_c, 1, 71, 89
5, 376320, Note_on_c, 1, 66, 89
5, 376320, Note_on_c, 1, 59, 89
5, 376320, Sequencer_specific, 4, 5, 15, 15, 8
5, 376320, Note_on_c, 1, 63, 89
5, 376800, Note_off_c, 1, 63, 0
5, 376800, Note_off_c, 1, 59, 0
5, 376800, Note_off_c, 1, 66, 0
5, 376800, Note_off_c, 1, 71, 0
5, 376800, Note_on_c, 1, 71, 89
5, 376800, Note_on_c, 1, 59, 89
5, 376800, Sequencer_specific, 4, 5, 15, 15, 8
5, 377280, Note_off_c, 1, 59, 0
5, 377280, Note_off_c, 1, 71, 0
5, 377280, Note_on_c, 1, 71, 89
5, 377280, Note_on_c, 1, 59, 89
5, 377280, Sequencer_specific, 4, 5, 15, 15, 8
5, 378240, Note_off_c, 1, 59, 0
5, 378240, Note_off_c, 1, 71, 0
5, 378240, Note_on_c, 1, 69, 89
5, 378720, Note_off_c, 1, 69, 0
5, 378720, Note_on_c, 1, 67, 89
5, 379200, Note_off_c, 1, 67, 0
5, 379200, Note_on_c, 1, 64, 89
5, 380160, Note_off_c, 1, 64, 0
5, 384000, Sequencer_specific, 3, 5, 15, 10
5, 384000, End_track
6, 0, Start_track
6, 0, Control_c, 2, 10, 112
6, 0, Title_t, "Philip Lawrence & Christopher Steven Brown"
6, 0, Sequencer_specific, 5, 5, 15, 9, 12, 64
6, 0, Sequencer_specific, 15, 5, 15, 6, 71, 101, 110, 101, 114, 97, 108, 32, 77, 73, 68, 73
6, 0, Sequencer_specific, 4, 5, 15, 16, 1
6, 0, Key_signature, 1, "minor"
6, 0, Program_c, 2, 87
6, 3840, Note_on_c, 2, 40, 89
6, 4800, Note_off_c, 2, 40, 0
6, 4800, Note_on_c, 2, 52, 89
6, 5760, Note_off_c, 2, 52, 0
6, 5760, Note_on_c, 2, 50, 89
6, 6240, Note_off_c, 2, 50, 0
6, 6240, Note_on_c, 2, 52, 89
6, 6240, Sequencer_specific, 5, 5, 15, 15, 0, 2
6, 6720, Note_off_c, 2, 52, 0
6, 6720, Note_on_c, 2, 47, 89
6, 7200, Note_off_c, 2, 47, 0
6, 7200, Note_on_c, 2, 45, 89
6, 7680, Note_off_c, 2, 45, 0
6, 8160, Note_on_c, 2, 45, 89
6, 8640, Note_off_c, 2, 45, 0
6, 9120, Note_on_c, 2, 43, 89
6, 9600, Note_off_c, 2, 43, 0
6, 9600, Note_on_c, 2, 45, 89
6, 10080, Note_off_c, 2, 45, 0
6, 10080, Note_on_c, 2, 47, 89
6, 10080, Sequencer_specific, 5, 5, 15, 15, 0, 2
6, 10560, Note_off_c, 2, 47, 0
6, 10560, Note_on_c, 2, 45, 89
6, 11040, Note_off_c, 2, 45, 0
6, 11040, Note_on_c, 2, 43, 89
6, 11520, Note_off_c, 2, 43, 0
6, 11520, Note_on_c, 2, 40, 89
6, 12480, Note_off_c, 2, 40, 0
6, 12480, Note_on_c, 2, 52, 89
6, 13440, Note_off_c, 2, 52, 0
6, 13440, Note_on_c, 2, 50, 89
6, 13920, Note_off_c, 2, 50, 0
6, 13920, Note_on_c, 2, 52, 89
6, 13920, Sequencer_specific, 5, 5, 15, 15, 0, 2
6, 14400, Note_off_c, 2, 52, 0
6, 14400, Note_on_c, 2, 47, 89
6, 14880, Note_off_c, 2, 47, 0
6, 14880, Note_on_c, 2, 45, 89
6, 15360, Note_off_c, 2, 45, 0
6, 15840, Note_on_c, 2, 45, 89
6, 16320, Note_off_c, 2, 45, 0
6, 16800, Note_on_c, 2, 43, 89
6, 17280, Note_off_c, 2, 43, 0
6, 17280, Note_on_c, 2, 45, 89
6, 17760, Note_off_c, 2, 45, 0
6, 17760, Note_on_c, 2, 47, 89
6, 17760, Sequencer_specific, 5, 5, 15, 15, 0, 2
6, 18240, Note_off_c, 2, 47, 0
6, 18240, Note_on_c, 2, 45, 89
6, 18720, Note_off_c, 2, 45, 0
6, 18720, Note_on_c, 2, 43, 89
6, 19200, Note_off_c, 2, 43, 0
6, 19200, Note_on_c, 2, 40, 89
6, 20160, Note_off_c, 2, 40, 0
6, 20160, Note_on_c, 2, 52, 89
6, 21120, Note_off_c, 2, 52, 0
6, 21120, Note_on_c, 2, 50, 89
6, 21600, Note_off_c, 2, 50, 0
6, 21600, Note_on_c, 2, 52, 89
6, 21600, Sequencer_specific, 5, 5, 15, 15, 0, 2
6, 22080, Note_off_c, 2, 52, 0
6, 22080, Note_on_c, 2, 47, 89
6, 22560, Note_off_c, 2, 47, 0
6, 22560, Note_on_c, 2, 45, 89
6, 23040, Note_off_c, 2, 45, 0
6, 23520, Note_on_c, 2, 45, 89
6, 24000, Note_off_c, 2, 45, 0
6, 24480, Note_on_c, 2, 43, 89
6, 24960, Note_off_c, 2, 43, 0
6, 24960, Note_on_c, 2, 45, 89
6, 25440, Note_off_c, 2, 45, 0
6, 25440, Note_on_c, 2, 47, 89
6, 25440, Sequencer_specific, 5, 5, 15, 15, 0, 2
6, 25920, Note_off_c, 2, 47, 0
6, 25920, Note_on_c, 2, 45, 89
6, 26400, Note_off_c, 2, 45, 0
6, 26400, Note_on_c, 2, 43, 89
6, 26880, Note_off_c, 2, 43, 0
6, 26880, Note_on_c, 2, 40, 89
6, 27840, Note_off_c, 2, 40, 0
6, 27840, Note_on_c, 2, 52, 89
6, 28800, Note_off_c, 2, 52, 0
6, 28800, Note_on_c, 2, 50, 89
6, 29280, Note_off_c, 2, 50, 0
6, 29280, Note_on_c, 2, 52, 89
6, 29280, Sequencer_specific, 5, 5, 15, 15, 0, 2
6, 29760, Note_off_c, 2, 52, 0
6, 29760, Note_on_c, 2, 47, 89
6, 30240, Note_off_c, 2, 47, 0
6, 30240, Note_on_c, 2, 45, 89
6, 30720, Note_off_c, 2, 45, 0
6, 31200, Note_on_c, 2, 45, 89
6, 31680, Note_off_c, 2, 45, 0
6, 32160, Note_on_c, 2, 43, 89
6, 32640, Note_off_c, 2, 43, 0
6, 32640, Note_on_c, 2, 45, 89
6, 33120, Note_off_c, 2, 45, 0
6, 33120, Note_on_c, 2, 47, 89
6, 33120, Sequencer_specific, 5, 5, 15, 15, 0, 2
6, 33600, Note_off_c, 2, 47, 0
6, 33600, Note_on_c, 2, 45, 89
6, 34080, Note_off_c, 2, 45, 0
6, 34080, Note_on_c, 2, 43, 89
6, 34560, Note_off_c, 2, 43, 0
6, 34560, Note_on_c, 2, 40, 89
6, 35520, Note_off_c, 2, 40, 0
6, 35520, Note_on_c, 2, 52, 89
6, 36480, Note_off_c, 2, 52, 0
6, 36480, Note_on_c, 2, 50, 89
6, 36960, Note_off_c, 2, 50, 0
6, 36960, Note_on_c, 2, 52, 89
6, 36960, Sequencer_specific, 5, 5, 15, 15, 0, 2
6, 37440, Note_off_c, 2, 52, 0
6, 37440, Note_on_c, 2, 47, 89
6, 37920, Note_off_c, 2, 47, 0
6, 37920, Note_on_c, 2, 45, 89
6, 38400, Note_off_c, 2, 45, 0
6, 38880, Note_on_c, 2, 45, 89
6, 39360, Note_off_c, 2, 45, 0
6, 39840, Note_on_c, 2, 43, 89
6, 40320, Note_off_c, 2, 43, 0
6, 40320, Note_on_c, 2, 45, 89
6, 40800, Note_off_c, 2, 45, 0
6, 40800, Note_on_c, 2, 47, 89
6, 40800, Sequencer_specific, 5, 5, 15, 15, 0, 2
6, 41280, Note_off_c, 2, 47, 0
6, 41280, Note_on_c, 2, 45, 89
6, 41760, Note_off_c, 2, 45, 0
6, 41760, Note_on_c, 2, 43, 89
6, 42240, Note_off_c, 2, 43, 0
6, 42240, Note_on_c, 2, 40, 89
6, 43200, Note_off_c, 2, 40, 0
6, 43200, Note_on_c, 2, 52, 89
6, 44160, Note_off_c, 2, 52, 0
6, 44160, Note_on_c, 2, 50, 89
6, 44640, Note_off_c, 2, 50, 0
6, 44640, Note_on_c, 2, 52, 89
6, 44640, Sequencer_specific, 5, 5, 15, 15, 0, 2
6, 45120, Note_off_c, 2, 52, 0
6, 45120, Note_on_c, 2, 47, 89
6, 45600, Note_off_c, 2, 47, 0
6, 45600, Note_on_c, 2, 45, 89
6, 46080, Note_off_c, 2, 45, 0
6, 49920, Note_on_c, 2, 40, 89
6, 50880, Note_off_c, 2, 40, 0
6, 50880, Note_on_c, 2, 52, 89
6, 51840, Note_off_c, 2, 52, 0
6, 51840, Note_on_c, 2, 50, 89
6, 52320, Note_off_c, 2, 50, 0
6, 52320, Note_on_c, 2, 52, 89
6, 52320, Sequencer_specific, 5, 5, 15, 15, 0, 2
6, 52800, Note_off_c, 2, 52, 0
6, 52800, Note_on_c, 2, 47, 89
6, 53280, Note_off_c, 2, 47, 0
6, 53280, Note_on_c, 2, 45, 89
6, 53760, Note_off_c, 2, 45, 0
6, 54240, Note_on_c, 2, 45, 89
6, 54720, Note_off_c, 2, 45, 0
6, 55200, Note_on_c, 2, 43, 89
6, 55680, Note_off_c, 2, 43, 0
6, 55680, Note_on_c, 2, 45, 89
6, 56160, Note_off_c, 2, 45, 0
6, 56160, Note_on_c, 2, 47, 89
6, 56160, Sequencer_specific, 5, 5, 15, 15, 0, 2
6, 56640, Note_off_c, 2, 47, 0
6, 56640, Note_on_c, 2, 45, 89
6, 57120, Note_off_c, 2, 45, 0
6, 57120, Note_on_c, 2, 43, 89
6, 57600, Note_off_c, 2, 43, 0
6, 57600, Note_on_c, 2, 40, 89
6, 58560, Note_off_c, 2, 40, 0
6, 58560, Note_on_c, 2, 52, 89
6, 59520, Note_off_c, 2, 52, 0
6, 59520, Note_on_c, 2, 50, 89
6, 60000, Note_off_c, 2, 50, 0
6, 60000, Note_on_c, 2, 52, 89
6, 60000, Sequencer_specific, 5, 5, 15, 15, 0, 2
6, 60480, Note_off_c, 2, 52, 0
6, 60480, Note_on_c, 2, 47, 89
6, 60960, Note_off_c, 2, 47, 0
6, 60960, Note_on_c, 2, 45, 89
6, 61440, Note_off_c, 2, 45, 0
6, 61920, Note_on_c, 2, 45, 89
6, 62400, Note_off_c, 2, 45, 0
6, 62880, Note_on_c, 2, 43, 89
6, 63360, Note_off_c, 2, 43, 0
6, 63360, Note_on_c, 2, 45, 89
6, 63840, Note_off_c, 2, 45, 0
6, 63840, Note_on_c, 2, 47, 89
6, 63840, Sequencer_specific, 5, 5, 15, 15, 0, 2
6, 64320, Note_off_c, 2, 47, 0
6, 64320, Note_on_c, 2, 45, 89
6, 64800, Note_off_c, 2, 45, 0
6, 64800, Note_on_c, 2, 43, 89
6, 65280, Note_off_c, 2, 43, 0
6, 65280, Note_on_c, 2, 40, 89
6, 66240, Note_off_c, 2, 40, 0
6, 66240, Note_on_c, 2, 52, 89
6, 67200, Note_off_c, 2, 52, 0
6, 67200, Note_on_c, 2, 50, 89
6, 67680, Note_off_c, 2, 50, 0
6, 67680, Note_on_c, 2, 52, 89
6, 67680, Sequencer_specific, 5, 5, 15, 15, 0, 2
6, 68160, Note_off_c, 2, 52, 0
6, 68160, Note_on_c, 2, 47, 89
6, 68640, Note_off_c, 2, 47, 0
6, 68640, Note_on_c, 2, 45, 89
6, 69120, Note_off_c, 2, 45, 0
6, 69600, Note_on_c, 2, 45, 89
6, 70080, Note_off_c, 2, 45, 0
6, 70560, Note_on_c, 2, 43, 89
6, 71040, Note_off_c, 2, 43, 0
6, 71040, Note_on_c, 2, 45, 89
6, 71520, Note_off_c, 2, 45, 0
6, 71520, Note_on_c, 2, 47, 89
6, 71520, Sequencer_specific, 5, 5, 15, 15, 0, 2
6, 72000, Note_off_c, 2, 47, 0
6, 72000, Note_on_c, 2, 45, 89
6, 72480, Note_off_c, 2, 45, 0
6, 72480, Note_on_c, 2, 43, 89
6, 72960, Note_off_c, 2, 43, 0
6, 72960, Note_on_c, 2, 40, 89
6, 73920, Note_off_c, 2, 40, 0
6, 73920, Note_on_c, 2, 52, 89
6, 74880, Note_off_c, 2, 52, 0
6, 74880, Note_on_c, 2, 50, 89
6, 75360, Note_off_c, 2, 50, 0
6, 75360, Note_on_c, 2, 52, 89
6, 75360, Sequencer_specific, 5, 5, 15, 15, 0, 2
6, 75840, Note_off_c, 2, 52, 0
6, 75840, Note_on_c, 2, 47, 89
6, 76320, Note_off_c, 2, 47, 0
6, 76320, Note_on_c, 2, 45, 89
6, 76800, Note_off_c, 2, 45, 0
6, 80640, Note_on_c, 2, 55, 89
6, 80640, Sequencer_specific, 4, 5, 15, 15, 2
6, 80640, Note_on_c, 2, 48, 89
6, 80640, Sequencer_specific, 4, 5, 15, 15, 2
6, 81120, Note_off_c, 2, 48, 0
6, 81120, Note_off_c, 2, 55, 0
6, 81120, Note_on_c, 2, 55, 89
6, 81120, Sequencer_specific, 5, 5, 15, 15, 2, 2
6, 81120, Note_on_c, 2, 48, 89
6, 81120, Sequencer_specific, 4, 5, 15, 15, 2
6, 81600, Note_off_c, 2, 48, 0
6, 81600, Note_off_c, 2, 55, 0
6, 81600, Note_on_c, 2, 55, 89
6, 81600, Sequencer_specific, 4, 5, 15, 15, 2
6, 81600, Note_on_c, 2, 48, 89
6, 81600, Sequencer_specific, 4, 5, 15, 15, 2
6, 82080, Note_off_c, 2, 48, 0
6, 82080, Note_off_c, 2, 55, 0
6, 82080, Note_on_c, 2, 55, 89
6, 82080, Sequencer_specific, 4, 5, 15, 15, 2
6, 82080, Note_on_c, 2, 48, 89
6, 82080, Sequencer_specific, 4, 5, 15, 15, 2
6, 82560, Note_off_c, 2, 48, 0
6, 82560, Note_off_c, 2, 55, 0
6, 82560, Note_on_c, 2, 55, 89
6, 82560, Sequencer_specific, 4, 5, 15, 15, 2
6, 82560, Note_on_c, 2, 48, 89
6, 82560, Sequencer_specific, 4, 5, 15, 15, 2
6, 83040, Note_off_c, 2, 48, 0
6, 83040, Note_off_c, 2, 55, 0
6, 83040, Note_on_c, 2, 55, 89
6, 83040, Sequencer_specific, 5, 5, 15, 15, 2, 2
6, 83040, Note_on_c, 2, 48, 89
6, 83040, Sequencer_specific, 4, 5, 15, 15, 2
6, 83520, Note_off_c, 2, 48, 0
6, 83520, Note_off_c, 2, 55, 0
6, 83520, Note_on_c, 2, 55, 89
6, 83520, Sequencer_specific, 4, 5, 15, 15, 2
6, 83520, Note_on_c, 2, 48, 89
6, 83520, Sequencer_specific, 4, 5, 15, 15, 2
6, 84000, Note_off_c, 2, 48, 0
6, 84000, Note_off_c, 2, 55, 0
6, 84000, Note_on_c, 2, 55, 89
6, 84000, Sequencer_specific, 4, 5, 15, 15, 2
6, 84000, Note_on_c, 2, 48, 89
6, 84000, Sequencer_specific, 4, 5, 15, 15, 2
6, 84480, Note_off_c, 2, 48, 0
6, 84480, Note_off_c, 2, 55, 0
6, 84480, Note_on_c, 2, 54, 89
6, 84480, Sequencer_specific, 4, 5, 15, 15, 2
6, 84480, Note_on_c, 2, 47, 89
6, 84480, Sequencer_specific, 4, 5, 15, 15, 2
6, 84960, Note_off_c, 2, 47, 0
6, 84960, Note_off_c, 2, 54, 0
6, 84960, Note_on_c, 2, 54, 89
6, 84960, Sequencer_specific, 5, 5, 15, 15, 2, 2
6, 84960, Note_on_c, 2, 47, 89
6, 84960, Sequencer_specific, 4, 5, 15, 15, 2
6, 85440, Note_off_c, 2, 47, 0
6, 85440, Note_off_c, 2, 54, 0
6, 85440, Note_on_c, 2, 54, 89
6, 85440, Sequencer_specific, 4, 5, 15, 15, 2
6, 85440, Note_on_c, 2, 47, 89
6, 85440, Sequencer_specific, 4, 5, 15, 15, 2
6, 85920, Note_off_c, 2, 47, 0
6, 85920, Note_off_c, 2, 54, 0
6, 85920, Note_on_c, 2, 54, 89
6, 85920, Sequencer_specific, 4, 5, 15, 15, 2
6, 85920, Note_on_c, 2, 47, 89
6, 85920, Sequencer_specific, 4, 5, 15, 15, 2
6, 86400, Note_off_c, 2, 47, 0
6, 86400, Note_off_c, 2, 54, 0
6, 86400, Note_on_c, 2, 54, 89
6, 86400, Sequencer_specific, 4, 5, 15, 15, 2
6, 86400, Note_on_c, 2, 47, 89
6, 86400, Sequencer_specific, 4, 5, 15, 15, 2
6, 86880, Note_off_c, 2, 47, 0
6, 86880, Note_off_c, 2, 54, 0
6, 86880, Note_on_c, 2, 54, 89
6, 86880, Sequencer_specific, 5, 5, 15, 15, 2, 2
6, 86880, Note_on_c, 2, 47, 89
6, 86880, Sequencer_specific, 4, 5, 15, 15, 2
6, 87360, Note_off_c, 2, 47, 0
6, 87360, Note_off_c, 2, 54, 0
6, 87360, Note_on_c, 2, 54, 89
6, 87360, Sequencer_specific, 4, 5, 15, 15, 2
6, 87360, Note_on_c, 2, 47, 89
6, 87360, Sequencer_specific, 4, 5, 15, 15, 2
6, 87840, Note_off_c, 2, 47, 0
6, 87840, Note_off_c, 2, 54, 0
6, 87840, Note_on_c, 2, 54, 89
6, 87840, Sequencer_specific, 4, 5, 15, 15, 2
6, 87840, Note_on_c, 2, 47, 89
6, 87840, Sequencer_specific, 4, 5, 15, 15, 2
6, 88320, Note_off_c, 2, 47, 0
6, 88320, Note_off_c, 2, 54, 0
6, 88320, Note_on_c, 2, 47, 89
6, 88320, Note_on_c, 2, 40, 89
6, 88800, Note_off_c, 2, 40, 0
6, 88800, Note_off_c, 2, 47, 0
6, 88800, Note_on_c, 2, 47, 89
6, 88800, Note_on_c, 2, 40, 89
6, 88800, Sequencer_specific, 5, 5, 15, 15, 0, 2
6, 89280, Note_off_c, 2, 40, 0
6, 89280, Note_off_c, 2, 47, 0
6, 89280, Note_on_c, 2, 47, 89
6, 89280, Note_on_c, 2, 40, 89
6, 89760, Note_off_c, 2, 40, 0
6, 89760, Note_off_c, 2, 47, 0
6, 89760, Note_on_c, 2, 47, 89
6, 89760, Note_on_c, 2, 40, 89
6, 90240, Note_off_c, 2, 40, 0
6, 90240, Note_off_c, 2, 47, 0
6, 90240, Note_on_c, 2, 47, 89
6, 90240, Note_on_c, 2, 40, 89
6, 90720, Note_off_c, 2, 40, 0
6, 90720, Note_off_c, 2, 47, 0
6, 90720, Note_on_c, 2, 47, 89
6, 90720, Note_on_c, 2, 40, 89
6, 90720, Sequencer_specific, 5, 5, 15, 15, 0, 2
6, 91200, Note_off_c, 2, 40, 0
6, 91200, Note_off_c, 2, 47, 0
6, 91200, Note_on_c, 2, 47, 89
6, 91200, Note_on_c, 2, 40, 89
6, 91680, Note_off_c, 2, 40, 0
6, 91680, Note_off_c, 2, 47, 0
6, 91680, Note_on_c, 2, 52, 89
6, 91680, Note_on_c, 2, 45, 89
6, 92160, Note_off_c, 2, 45, 0
6, 92160, Note_off_c, 2, 52, 0
6, 92640, Note_on_c, 2, 52, 89
6, 92640, Note_on_c, 2, 45, 89
6, 93120, Note_off_c, 2, 45, 0
6, 93120, Note_off_c, 2, 52, 0
6, 93600, Note_on_c, 2, 52, 89
6, 93600, Note_on_c, 2, 45, 89
6, 94080, Note_off_c, 2, 45, 0
6, 94080, Note_off_c, 2, 52, 0
6, 94080, Note_on_c, 2, 52, 89
6, 94080, Note_on_c, 2, 45, 89
6, 95040, Note_off_c, 2, 45, 0
6, 95040, Note_off_c, 2, 52, 0
6, 95040, Note_on_c, 2, 52, 89
6, 95040, Note_on_c, 2, 45, 89
6, 96000, Note_off_c, 2, 45, 0
6, 96000, Note_off_c, 2, 52, 0
6, 96000, Note_on_c, 2, 55, 89
6, 96000, Sequencer_specific, 4, 5, 15, 15, 2
6, 96000, Note_on_c, 2, 48, 89
6, 96000, Sequencer_specific, 4, 5, 15, 15, 2
6, 96480, Note_off_c, 2, 48, 0
6, 96480, Note_off_c, 2, 55, 0
6, 96480, Note_on_c, 2, 55, 89
6, 96480, Sequencer_specific, 5, 5, 15, 15, 2, 2
6, 96480, Note_on_c, 2, 48, 89
6, 96480, Sequencer_specific, 4, 5, 15, 15, 2
6, 96960, Note_off_c, 2, 48, 0
6, 96960, Note_off_c, 2, 55, 0
6, 96960, Note_on_c, 2, 55, 89
6, 96960, Sequencer_specific, 4, 5, 15, 15, 2
6, 96960, Note_on_c, 2, 48, 89
6, 96960, Sequencer_specific, 4, 5, 15, 15, 2
6, 97440, Note_off_c, 2, 48, 0
6, 97440, Note_off_c, 2, 55, 0
6, 97440, Note_on_c, 2, 55, 89
6, 97440, Sequencer_specific, 4, 5, 15, 15, 2
6, 97440, Note_on_c, 2, 48, 89
6, 97440, Sequencer_specific, 4, 5, 15, 15, 2
6, 97920, Note_off_c, 2, 48, 0
6, 97920, Note_off_c, 2, 55, 0
6, 97920, Note_on_c, 2, 55, 89
6, 97920, Sequencer_specific, 4, 5, 15, 15, 2
6, 97920, Note_on_c, 2, 48, 89
6, 97920, Sequencer_specific, 4, 5, 15, 15, 2
6, 98400, Note_off_c, 2, 48, 0
6, 98400, Note_off_c, 2, 55, 0
6, 98400, Note_on_c, 2, 55, 89
6, 98400, Sequencer_specific, 5, 5, 15, 15, 2, 2
6, 98400, Note_on_c, 2, 48, 89
6, 98400, Sequencer_specific, 4, 5, 15, 15, 2
6, 98880, Note_off_c, 2, 48, 0
6, 98880, Note_off_c, 2, 55, 0
6, 98880, Note_on_c, 2, 55, 89
6, 98880, Sequencer_specific, 4, 5, 15, 15, 2
6, 98880, Note_on_c, 2, 48, 89
6, 98880, Sequencer_specific, 4, 5, 15, 15, 2
6, 99360, Note_off_c, 2, 48, 0
6, 99360, Note_off_c, 2, 55, 0
6, 99360, Note_on_c, 2, 55, 89
6, 99360, Sequencer_specific, 4, 5, 15, 15, 2
6, 99360, Note_on_c, 2, 48, 89
6, 99360, Sequencer_specific, 4, 5, 15, 15, 2
6, 99840, Note_off_c, 2, 48, 0
6, 99840, Note_off_c, 2, 55, 0
6, 99840, Note_on_c, 2, 54, 89
6, 99840, Sequencer_specific, 4, 5, 15, 15, 2
6, 99840, Note_on_c, 2, 47, 89
6, 99840, Sequencer_specific, 4, 5, 15, 15, 2
6, 100320, Note_off_c, 2, 47, 0
6, 100320, Note_off_c, 2, 54, 0
6, 100320, Note_on_c, 2, 54, 89
6, 100320, Sequencer_specific, 5, 5, 15, 15, 2, 2
6, 100320, Note_on_c, 2, 47, 89
6, 100320, Sequencer_specific, 4, 5, 15, 15, 2
6, 100800, Note_off_c, 2, 47, 0
6, 100800, Note_off_c, 2, 54, 0
6, 100800, Note_on_c, 2, 54, 89
6, 100800, Sequencer_specific, 4, 5, 15, 15, 2
6, 100800, Note_on_c, 2, 47, 89
6, 100800, Sequencer_specific, 4, 5, 15, 15, 2
6, 101280, Note_off_c, 2, 47, 0
6, 101280, Note_off_c, 2, 54, 0
6, 101280, Note_on_c, 2, 54, 89
6, 101280, Sequencer_specific, 4, 5, 15, 15, 2
6, 101280, Note_on_c, 2, 47, 89
6, 101280, Sequencer_specific, 4, 5, 15, 15, 2
6, 101760, Note_off_c, 2, 47, 0
6, 101760, Note_off_c, 2, 54, 0
6, 101760, Note_on_c, 2, 54, 89
6, 101760, Sequencer_specific, 4, 5, 15, 15, 2
6, 101760, Note_on_c, 2, 47, 89
6, 101760, Sequencer_specific, 4, 5, 15, 15, 2
6, 102240, Note_off_c, 2, 47, 0
6, 102240, Note_off_c, 2, 54, 0
6, 102240, Note_on_c, 2, 54, 89
6, 102240, Sequencer_specific, 5, 5, 15, 15, 2, 2
6, 102240, Note_on_c, 2, 47, 89
6, 102240, Sequencer_specific, 4, 5, 15, 15, 2
6, 102720, Note_off_c, 2, 47, 0
6, 102720, Note_off_c, 2, 54, 0
6, 102720, Note_on_c, 2, 54, 89
6, 102720, Sequencer_specific, 4, 5, 15, 15, 2
6, 102720, Note_on_c, 2, 47, 89
6, 102720, Sequencer_specific, 4, 5, 15, 15, 2
6, 103200, Note_off_c, 2, 47, 0
6, 103200, Note_off_c, 2, 54, 0
6, 103200, Note_on_c, 2, 54, 89
6, 103200, Sequencer_specific, 4, 5, 15, 15, 2
6, 103200, Note_on_c, 2, 47, 89
6, 103200, Sequencer_specific, 4, 5, 15, 15, 2
6, 103680, Note_off_c, 2, 47, 0
6, 103680, Note_off_c, 2, 54, 0
6, 103680, Note_on_c, 2, 47, 89
6, 103680, Note_on_c, 2, 40, 89
6, 104160, Note_off_c, 2, 40, 0
6, 104160, Note_off_c, 2, 47, 0
6, 104160, Note_on_c, 2, 47, 89
6, 104160, Note_on_c, 2, 40, 89
6, 104160, Sequencer_specific, 5, 5, 15, 15, 0, 2
6, 104640, Note_off_c, 2, 40, 0
6, 104640, Note_off_c, 2, 47, 0
6, 104640, Note_on_c, 2, 47, 89
6, 104640, Note_on_c, 2, 40, 89
6, 105120, Note_off_c, 2, 40, 0
6, 105120, Note_off_c, 2, 47, 0
6, 105120, Note_on_c, 2, 47, 89
6, 105120, Note_on_c, 2, 40, 89
6, 105600, Note_off_c, 2, 40, 0
6, 105600, Note_off_c, 2, 47, 0
6, 105600, Note_on_c, 2, 47, 89
6, 105600, Note_on_c, 2, 40, 89
6, 106080, Note_off_c, 2, 40, 0
6, 106080, Note_off_c, 2, 47, 0
6, 106080, Note_on_c, 2, 47, 89
6, 106080, Note_on_c, 2, 40, 89
6, 106080, Sequencer_specific, 5, 5, 15, 15, 0, 2
6, 106560, Note_off_c, 2, 40, 0
6, 106560, Note_off_c, 2, 47, 0
6, 106560, Note_on_c, 2, 47, 89
6, 106560, Note_on_c, 2, 40, 89
6, 107040, Note_off_c, 2, 40, 0
6, 107040, Note_off_c, 2, 47, 0
6, 107040, Note_on_c, 2, 52, 89
6, 107040, Note_on_c, 2, 45, 89
6, 107520, Note_off_c, 2, 45, 0
6, 107520, Note_off_c, 2, 52, 0
6, 108000, Note_on_c, 2, 52, 89
6, 108000, Note_on_c, 2, 45, 89
6, 108480, Note_off_c, 2, 45, 0
6, 108480, Note_off_c, 2, 52, 0
6, 108960, Note_on_c, 2, 52, 89
6, 108960, Note_on_c, 2, 45, 89
6, 109440, Note_off_c, 2, 45, 0
6, 109440, Note_off_c, 2, 52, 0
6, 109440, Note_on_c, 2, 52, 89
6, 109440, Note_on_c, 2, 45, 89
6, 110400, Note_off_c, 2, 45, 0
6, 110400, Note_off_c, 2, 52, 0
6, 110400, Note_on_c, 2, 52, 89
6, 110400, Note_on_c, 2, 45, 89
6, 111360, Note_off_c, 2, 45, 0
6, 111360, Note_off_c, 2, 52, 0
6, 111360, Note_on_c, 2, 55, 89
6, 111360, Sequencer_specific, 4, 5, 15, 15, 2
6, 111360, Note_on_c, 2, 48, 89
6, 111360, Sequencer_specific, 4, 5, 15, 15, 2
6, 111840, Note_off_c, 2, 48, 0
6, 111840, Note_off_c, 2, 55, 0
6, 111840, Note_on_c, 2, 55, 89
6, 111840, Sequencer_specific, 5, 5, 15, 15, 2, 2
6, 111840, Note_on_c, 2, 48, 89
6, 111840, Sequencer_specific, 4, 5, 15, 15, 2
6, 112320, Note_off_c, 2, 48, 0
6, 112320, Note_off_c, 2, 55, 0
6, 112320, Note_on_c, 2, 55, 89
6, 112320, Sequencer_specific, 4, 5, 15, 15, 2
6, 112320, Note_on_c, 2, 48, 89
6, 112320, Sequencer_specific, 4, 5, 15, 15, 2
6, 112800, Note_off_c, 2, 48, 0
6, 112800, Note_off_c, 2, 55, 0
6, 112800, Note_on_c, 2, 55, 89
6, 112800, Sequencer_specific, 4, 5, 15, 15, 2
6, 112800, Note_on_c, 2, 48, 89
6, 112800, Sequencer_specific, 4, 5, 15, 15, 2
6, 113280, Note_off_c, 2, 48, 0
6, 113280, Note_off_c, 2, 55, 0
6, 113280, Note_on_c, 2, 55, 89
6, 113280, Sequencer_specific, 4, 5, 15, 15, 2
6, 113280, Note_on_c, 2, 48, 89
6, 113280, Sequencer_specific, 4, 5, 15, 15, 2
6, 113760, Note_off_c, 2, 48, 0
6, 113760, Note_off_c, 2, 55, 0
6, 113760, Note_on_c, 2, 55, 89
6, 113760, Sequencer_specific, 5, 5, 15, 15, 2, 2
6, 113760, Note_on_c, 2, 48, 89
6, 113760, Sequencer_specific, 4, 5, 15, 15, 2
6, 114240, Note_off_c, 2, 48, 0
6, 114240, Note_off_c, 2, 55, 0
6, 114240, Note_on_c, 2, 55, 89
6, 114240, Sequencer_specific, 4, 5, 15, 15, 2
6, 114240, Note_on_c, 2, 48, 89
6, 114240, Sequencer_specific, 4, 5, 15, 15, 2
6, 114720, Note_off_c, 2, 48, 0
6, 114720, Note_off_c, 2, 55, 0
6, 114720, Note_on_c, 2, 55, 89
6, 114720, Sequencer_specific, 4, 5, 15, 15, 2
6, 114720, Note_on_c, 2, 48, 89
6, 114720, Sequencer_specific, 4, 5, 15, 15, 2
6, 115200, Note_off_c, 2, 48, 0
6, 115200, Note_off_c, 2, 55, 0
6, 115200, Note_on_c, 2, 54, 89
6, 115200, Sequencer_specific, 4, 5, 15, 15, 2
6, 115200, Note_on_c, 2, 47, 89
6, 115200, Sequencer_specific, 4, 5, 15, 15, 2
6, 115680, Note_off_c, 2, 47, 0
6, 115680, Note_off_c, 2, 54, 0
6, 115680, Note_on_c, 2, 54, 89
6, 115680, Sequencer_specific, 5, 5, 15, 15, 2, 2
6, 115680, Note_on_c, 2, 47, 89
6, 115680, Sequencer_specific, 4, 5, 15, 15, 2
6, 116160, Note_off_c, 2, 47, 0
6, 116160, Note_off_c, 2, 54, 0
6, 116160, Note_on_c, 2, 54, 89
6, 116160, Sequencer_specific, 4, 5, 15, 15, 2
6, 116160, Note_on_c, 2, 47, 89
6, 116160, Sequencer_specific, 4, 5, 15, 15, 2
6, 116640, Note_off_c, 2, 47, 0
6, 116640, Note_off_c, 2, 54, 0
6, 116640, Note_on_c, 2, 54, 89
6, 116640, Sequencer_specific, 4, 5, 15, 15, 2
6, 116640, Note_on_c, 2, 47, 89
6, 116640, Sequencer_specific, 4, 5, 15, 15, 2
6, 117120, Note_off_c, 2, 47, 0
6, 117120, Note_off_c, 2, 54, 0
6, 117120, Note_on_c, 2, 54, 89
6, 117120, Sequencer_specific, 4, 5, 15, 15, 2
6, 117120, Note_on_c, 2, 47, 89
6, 117120, Sequencer_specific, 4, 5, 15, 15, 2
6, 117600, Note_off_c, 2, 47, 0
6, 117600, Note_off_c, 2, 54, 0
6, 117600, Note_on_c, 2, 54, 89
6, 117600, Sequencer_specific, 5, 5, 15, 15, 2, 2
6, 117600, Note_on_c, 2, 47, 89
6, 117600, Sequencer_specific, 4, 5, 15, 15, 2
6, 118080, Note_off_c, 2, 47, 0
6, 118080, Note_off_c, 2, 54, 0
6, 118080, Note_on_c, 2, 54, 89
6, 118080, Sequencer_specific, 4, 5, 15, 15, 2
6, 118080, Note_on_c, 2, 47, 89
6, 118080, Sequencer_specific, 4, 5, 15, 15, 2
6, 118560, Note_off_c, 2, 47, 0
6, 118560, Note_off_c, 2, 54, 0
6, 118560, Note_on_c, 2, 54, 89
6, 118560, Sequencer_specific, 4, 5, 15, 15, 2
6, 118560, Note_on_c, 2, 47, 89
6, 118560, Sequencer_specific, 4, 5, 15, 15, 2
6, 119040, Note_off_c, 2, 47, 0
6, 119040, Note_off_c, 2, 54, 0
6, 119040, Note_on_c, 2, 47, 89
6, 119040, Note_on_c, 2, 40, 89
6, 119520, Note_off_c, 2, 40, 0
6, 119520, Note_off_c, 2, 47, 0
6, 119520, Note_on_c, 2, 47, 89
6, 119520, Note_on_c, 2, 40, 89
6, 119520, Sequencer_specific, 5, 5, 15, 15, 0, 2
6, 120000, Note_off_c, 2, 40, 0
6, 120000, Note_off_c, 2, 47, 0
6, 120000, Note_on_c, 2, 47, 89
6, 120000, Note_on_c, 2, 40, 89
6, 120480, Note_off_c, 2, 40, 0
6, 120480, Note_off_c, 2, 47, 0
6, 120480, Note_on_c, 2, 47, 89
6, 120480, Note_on_c, 2, 40, 89
6, 120960, Note_off_c, 2, 40, 0
6, 120960, Note_off_c, 2, 47, 0
6, 120960, Note_on_c, 2, 47, 89
6, 120960, Note_on_c, 2, 40, 89
6, 121440, Note_off_c, 2, 40, 0
6, 121440, Note_off_c, 2, 47, 0
6, 121440, Note_on_c, 2, 47, 89
6, 121440, Note_on_c, 2, 40, 89
6, 121440, Sequencer_specific, 5, 5, 15, 15, 0, 2
6, 121920, Note_off_c, 2, 40, 0
6, 121920, Note_off_c, 2, 47, 0
6, 121920, Note_on_c, 2, 47, 89
6, 121920, Note_on_c, 2, 40, 89
6, 122400, Note_off_c, 2, 40, 0
6, 122400, Note_off_c, 2, 47, 0
6, 122400, Note_on_c, 2, 52, 89
6, 122400, Note_on_c, 2, 45, 89
6, 122880, Note_off_c, 2, 45, 0
6, 122880, Note_off_c, 2, 52, 0
6, 123360, Note_on_c, 2, 52, 89
6, 123360, Note_on_c, 2, 45, 89
6, 123840, Note_off_c, 2, 45, 0
6, 123840, Note_off_c, 2, 52, 0
6, 124320, Note_on_c, 2, 52, 89
6, 124320, Note_on_c, 2, 45, 89
6, 124800, Note_off_c, 2, 45, 0
6, 124800, Note_off_c, 2, 52, 0
6, 124800, Note_on_c, 2, 52, 89
6, 124800, Note_on_c, 2, 45, 89
6, 125760, Note_off_c, 2, 45, 0
6, 125760, Note_off_c, 2, 52, 0
6, 125760, Note_on_c, 2, 52, 89
6, 125760, Note_on_c, 2, 45, 89
6, 126720, Note_off_c, 2, 45, 0
6, 126720, Note_off_c, 2, 52, 0
6, 126720, Note_on_c, 2, 55, 89
6, 126720, Sequencer_specific, 4, 5, 15, 15, 2
6, 126720, Note_on_c, 2, 48, 89
6, 126720, Sequencer_specific, 4, 5, 15, 15, 2
6, 127680, Note_off_c, 2, 48, 0
6, 127680, Note_off_c, 2, 55, 0
6, 127680, Note_on_c, 2, 55, 89
6, 127680, Sequencer_specific, 4, 5, 15, 15, 2
6, 127680, Note_on_c, 2, 48, 89
6, 127680, Sequencer_specific, 4, 5, 15, 15, 2
6, 128640, Note_off_c, 2, 48, 0
6, 128640, Note_off_c, 2, 55, 0
6, 128640, Note_on_c, 2, 55, 89
6, 128640, Sequencer_specific, 4, 5, 15, 15, 2
6, 128640, Note_on_c, 2, 48, 89
6, 128640, Sequencer_specific, 4, 5, 15, 15, 2
6, 129600, Note_off_c, 2, 48, 0
6, 129600, Note_off_c, 2, 55, 0
6, 129600, Note_on_c, 2, 55, 89
6, 129600, Sequencer_specific, 4, 5, 15, 15, 2
6, 129600, Note_on_c, 2, 48, 89
6, 129600, Sequencer_specific, 4, 5, 15, 15, 2
6, 130560, Note_off_c, 2, 48, 0
6, 130560, Note_off_c, 2, 55, 0
6, 130560, Note_on_c, 2, 54, 89
6, 130560, Note_on_c, 2, 47, 89
6, 131520, Note_off_c, 2, 47, 0
6, 131520, Note_off_c, 2, 54, 0
6, 134400, Note_on_c, 2, 40, 89
6, 135360, Note_off_c, 2, 40, 0
6, 135360, Note_on_c, 2, 52, 89
6, 136320, Note_off_c, 2, 52, 0
6, 136320, Note_on_c, 2, 50, 89
6, 136800, Note_off_c, 2, 50, 0
6, 136800, Note_on_c, 2, 52, 89
6, 136800, Sequencer_specific, 5, 5, 15, 15, 0, 2
6, 137280, Note_off_c, 2, 52, 0
6, 137280, Note_on_c, 2, 47, 89
6, 137760, Note_off_c, 2, 47, 0
6, 137760, Note_on_c, 2, 45, 89
6, 138240, Note_off_c, 2, 45, 0
6, 138720, Note_on_c, 2, 45, 89
6, 139200, Note_off_c, 2, 45, 0
6, 139680, Note_on_c, 2, 43, 89
6, 140160, Note_off_c, 2, 43, 0
6, 140160, Note_on_c, 2, 45, 89
6, 140640, Note_off_c, 2, 45, 0
6, 140640, Note_on_c, 2, 47, 89
6, 140640, Sequencer_specific, 5, 5, 15, 15, 0, 2
6, 141120, Note_off_c, 2, 47, 0
6, 141120, Note_on_c, 2, 45, 89
6, 141600, Note_off_c, 2, 45, 0
6, 141600, Note_on_c, 2, 43, 89
6, 142080, Note_off_c, 2, 43, 0
6, 142080, Note_on_c, 2, 40, 89
6, 143040, Note_off_c, 2, 40, 0
6, 143040, Note_on_c, 2, 52, 89
6, 144000, Note_off_c, 2, 52, 0
6, 144000, Note_on_c, 2, 50, 89
6, 144480, Note_off_c, 2, 50, 0
6, 144480, Note_on_c, 2, 52, 89
6, 144480, Sequencer_specific, 5, 5, 15, 15, 0, 2
6, 144960, Note_off_c, 2, 52, 0
6, 144960, Note_on_c, 2, 47, 89
6, 145440, Note_off_c, 2, 47, 0
6, 145440, Note_on_c, 2, 45, 89
6, 145920, Note_off_c, 2, 45, 0
6, 146400, Note_on_c, 2, 45, 89
6, 146880, Note_off_c, 2, 45, 0
6, 147360, Note_on_c, 2, 43, 89
6, 147840, Note_off_c, 2, 43, 0
6, 147840, Note_on_c, 2, 45, 89
6, 148320, Note_off_c, 2, 45, 0
6, 148320, Note_on_c, 2, 35, 89
6, 148320, Sequencer_specific, 5, 5, 15, 15, 0, 2
6, 148800, Note_off_c, 2, 35, 0
6, 148800, Note_on_c, 2, 38, 89
6, 149280, Note_off_c, 2, 38, 0
6, 149280, Note_on_c, 2, 39, 89
6, 149760, Note_off_c, 2, 39, 0
6, 149760, Note_on_c, 2, 40, 89
6, 150720, Note_off_c, 2, 40, 0
6, 152160, Note_on_c, 2, 40, 89
6, 152640, Note_off_c, 2, 40, 0
6, 152640, Note_on_c, 2, 43, 89
6, 153120, Note_off_c, 2, 43, 0
6, 153120, Note_on_c, 2, 43, 89
6, 153600, Note_off_c, 2, 43, 0
6, 153600, Note_on_c, 2, 45, 89
6, 154560, Note_off_c, 2, 45, 0
6, 156000, Note_on_c, 2, 35, 89
6, 156480, Note_off_c, 2, 35, 0
6, 156480, Note_on_c, 2, 38, 89
6, 156960, Note_off_c, 2, 38, 0
6, 156960, Note_on_c, 2, 39, 89
6, 157440, Note_off_c, 2, 39, 0
6, 157440, Note_on_c, 2, 40, 89
6, 158400, Note_off_c, 2, 40, 0
6, 159840, Note_on_c, 2, 40, 89
6, 160320, Note_off_c, 2, 40, 0
6, 160320, Note_on_c, 2, 43, 89
6, 160800, Note_off_c, 2, 43, 0
6, 160800, Note_on_c, 2, 43, 89
6, 161280, Note_off_c, 2, 43, 0
6, 161280, Note_on_c, 2, 45, 89
6, 162240, Note_off_c, 2, 45, 0
6, 162720, Note_on_c, 2, 35, 89
6, 163200, Note_off_c, 2, 35, 0
6, 163680, Note_on_c, 2, 35, 89
6, 164160, Note_off_c, 2, 35, 0
6, 164160, Note_on_c, 2, 38, 89
6, 164640, Note_off_c, 2, 38, 0
6, 164640, Note_on_c, 2, 39, 89
6, 165120, Note_off_c, 2, 39, 0
6, 165120, Note_on_c, 2, 40, 89
6, 166080, Note_off_c, 2, 40, 0
6, 167520, Note_on_c, 2, 40, 89
6, 168000, Note_off_c, 2, 40, 0
6, 168000, Note_on_c, 2, 43, 89
6, 168480, Note_off_c, 2, 43, 0
6, 168480, Note_on_c, 2, 43, 89
6, 168960, Note_off_c, 2, 43, 0
6, 168960, Note_on_c, 2, 45, 89
6, 169920, Note_off_c, 2, 45, 0
6, 170400, Note_on_c, 2, 35, 89
6, 170880, Note_off_c, 2, 35, 0
6, 171360, Note_on_c, 2, 35, 89
6, 171840, Note_off_c, 2, 35, 0
6, 171840, Note_on_c, 2, 38, 89
6, 172320, Note_off_c, 2, 38, 0
6, 172320, Note_on_c, 2, 39, 89
6, 172800, Note_off_c, 2, 39, 0
6, 172800, Note_on_c, 2, 40, 89
6, 173760, Note_off_c, 2, 40, 0
6, 175200, Note_on_c, 2, 40, 89
6, 175680, Note_off_c, 2, 40, 0
6, 175680, Note_on_c, 2, 43, 89
6, 176160, Note_off_c, 2, 43, 0
6, 176160, Note_on_c, 2, 43, 89
6, 176640, Note_off_c, 2, 43, 0
6, 176640, Note_on_c, 2, 45, 89
6, 177600, Note_off_c, 2, 45, 0
6, 180480, Note_on_c, 2, 40, 89
6, 181440, Note_off_c, 2, 40, 0
6, 181440, Note_on_c, 2, 52, 89
6, 182400, Note_off_c, 2, 52, 0
6, 182400, Note_on_c, 2, 50, 89
6, 182880, Note_off_c, 2, 50, 0
6, 182880, Note_on_c, 2, 52, 89
6, 182880, Sequencer_specific, 5, 5, 15, 15, 0, 2
6, 183360, Note_off_c, 2, 52, 0
6, 183360, Note_on_c, 2, 47, 89
6, 183840, Note_off_c, 2, 47, 0
6, 183840, Note_on_c, 2, 45, 89
6, 184320, Note_off_c, 2, 45, 0
6, 184800, Note_on_c, 2, 45, 89
6, 185280, Note_off_c, 2, 45, 0
6, 185760, Note_on_c, 2, 43, 89
6, 186240, Note_off_c, 2, 43, 0
6, 186240, Note_on_c, 2, 45, 89
6, 186720, Note_off_c, 2, 45, 0
6, 186720, Note_on_c, 2, 47, 89
6, 186720, Sequencer_specific, 5, 5, 15, 15, 0, 2
6, 187200, Note_off_c, 2, 47, 0
6, 187200, Note_on_c, 2, 45, 89
6, 187680, Note_off_c, 2, 45, 0
6, 187680, Note_on_c, 2, 43, 89
6, 188160, Note_off_c, 2, 43, 0
6, 188160, Note_on_c, 2, 40, 89
6, 189120, Note_off_c, 2, 40, 0
6, 189120, Note_on_c, 2, 52, 89
6, 190080, Note_off_c, 2, 52, 0
6, 190080, Note_on_c, 2, 50, 89
6, 190560, Note_off_c, 2, 50, 0
6, 190560, Note_on_c, 2, 52, 89
6, 190560, Sequencer_specific, 5, 5, 15, 15, 0, 2
6, 191040, Note_off_c, 2, 52, 0
6, 191040, Note_on_c, 2, 47, 89
6, 191520, Note_off_c, 2, 47, 0
6, 191520, Note_on_c, 2, 45, 89
6, 192000, Note_off_c, 2, 45, 0
6, 192480, Note_on_c, 2, 45, 89
6, 192960, Note_off_c, 2, 45, 0
6, 193440, Note_on_c, 2, 43, 89
6, 193920, Note_off_c, 2, 43, 0
6, 193920, Note_on_c, 2, 45, 89
6, 194400, Note_off_c, 2, 45, 0
6, 194400, Note_on_c, 2, 47, 89
6, 194400, Sequencer_specific, 5, 5, 15, 15, 0, 2
6, 194880, Note_off_c, 2, 47, 0
6, 194880, Note_on_c, 2, 45, 89
6, 195360, Note_off_c, 2, 45, 0
6, 195360, Note_on_c, 2, 43, 89
6, 195840, Note_off_c, 2, 43, 0
6, 195840, Note_on_c, 2, 40, 89
6, 196800, Note_off_c, 2, 40, 0
6, 196800, Note_on_c, 2, 52, 89
6, 197760, Note_off_c, 2, 52, 0
6, 197760, Note_on_c, 2, 50, 89
6, 198240, Note_off_c, 2, 50, 0
6, 198240, Note_on_c, 2, 52, 89
6, 198240, Sequencer_specific, 5, 5, 15, 15, 0, 2
6, 198720, Note_off_c, 2, 52, 0
6, 198720, Note_on_c, 2, 47, 89
6, 199200, Note_off_c, 2, 47, 0
6, 199200, Note_on_c, 2, 45, 89
6, 199680, Note_off_c, 2, 45, 0
6, 200160, Note_on_c, 2, 45, 89
6, 200640, Note_off_c, 2, 45, 0
6, 201120, Note_on_c, 2, 43, 89
6, 201600, Note_off_c, 2, 43, 0
6, 201600, Note_on_c, 2, 45, 89
6, 202080, Note_off_c, 2, 45, 0
6, 202080, Note_on_c, 2, 47, 89
6, 202080, Sequencer_specific, 5, 5, 15, 15, 0, 2
6, 202560, Note_off_c, 2, 47, 0
6, 202560, Note_on_c, 2, 45, 89
6, 203040, Note_off_c, 2, 45, 0
6, 203040, Note_on_c, 2, 43, 89
6, 203520, Note_off_c, 2, 43, 0
6, 203520, Note_on_c, 2, 40, 89
6, 204480, Note_off_c, 2, 40, 0
6, 204480, Note_on_c, 2, 52, 89
6, 205440, Note_off_c, 2, 52, 0
6, 205440, Note_on_c, 2, 50, 89
6, 205920, Note_off_c, 2, 50, 0
6, 205920, Note_on_c, 2, 52, 89
6, 205920, Sequencer_specific, 5, 5, 15, 15, 0, 2
6, 206400, Note_off_c, 2, 52, 0
6, 206400, Note_on_c, 2, 47, 89
6, 206880, Note_off_c, 2, 47, 0
6, 206880, Note_on_c, 2, 45, 89
6, 207360, Note_off_c, 2, 45, 0
6, 211200, Note_on_c, 2, 55, 89
6, 211200, Sequencer_specific, 4, 5, 15, 15, 2
6, 211200, Note_on_c, 2, 48, 89
6, 211200, Sequencer_specific, 4, 5, 15, 15, 2
6, 211680, Note_off_c, 2, 48, 0
6, 211680, Note_off_c, 2, 55, 0
6, 211680, Note_on_c, 2, 55, 89
6, 211680, Sequencer_specific, 5, 5, 15, 15, 2, 2
6, 211680, Note_on_c, 2, 48, 89
6, 211680, Sequencer_specific, 4, 5, 15, 15, 2
6, 212160, Note_off_c, 2, 48, 0
6, 212160, Note_off_c, 2, 55, 0
6, 212160, Note_on_c, 2, 55, 89
6, 212160, Sequencer_specific, 4, 5, 15, 15, 2
6, 212160, Note_on_c, 2, 48, 89
6, 212160, Sequencer_specific, 4, 5, 15, 15, 2
6, 212640, Note_off_c, 2, 48, 0
6, 212640, Note_off_c, 2, 55, 0
6, 212640, Note_on_c, 2, 55, 89
6, 212640, Sequencer_specific, 4, 5, 15, 15, 2
6, 212640, Note_on_c, 2, 48, 89
6, 212640, Sequencer_specific, 4, 5, 15, 15, 2
6, 213120, Note_off_c, 2, 48, 0
6, 213120, Note_off_c, 2, 55, 0
6, 213120, Note_on_c, 2, 55, 89
6, 213120, Sequencer_specific, 4, 5, 15, 15, 2
6, 213120, Note_on_c, 2, 48, 89
6, 213120, Sequencer_specific, 4, 5, 15, 15, 2
6, 213600, Note_off_c, 2, 48, 0
6, 213600, Note_off_c, 2, 55, 0
6, 213600, Note_on_c, 2, 55, 89
6, 213600, Sequencer_specific, 5, 5, 15, 15, 2, 2
6, 213600, Note_on_c, 2, 48, 89
6, 213600, Sequencer_specific, 4, 5, 15, 15, 2
6, 214080, Note_off_c, 2, 48, 0
6, 214080, Note_off_c, 2, 55, 0
6, 214080, Note_on_c, 2, 55, 89
6, 214080, Sequencer_specific, 4, 5, 15, 15, 2
6, 214080, Note_on_c, 2, 48, 89
6, 214080, Sequencer_specific, 4, 5, 15, 15, 2
6, 214560, Note_off_c, 2, 48, 0
6, 214560, Note_off_c, 2, 55, 0
6, 214560, Note_on_c, 2, 55, 89
6, 214560, Sequencer_specific, 4, 5, 15, 15, 2
6, 214560, Note_on_c, 2, 48, 89
6, 214560, Sequencer_specific, 4, 5, 15, 15, 2
6, 215040, Note_off_c, 2, 48, 0
6, 215040, Note_off_c, 2, 55, 0
6, 215040, Note_on_c, 2, 54, 89
6, 215040, Sequencer_specific, 4, 5, 15, 15, 2
6, 215040, Note_on_c, 2, 47, 89
6, 215040, Sequencer_specific, 4, 5, 15, 15, 2
6, 215520, Note_off_c, 2, 47, 0
6, 215520, Note_off_c, 2, 54, 0
6, 215520, Note_on_c, 2, 54, 89
6, 215520, Sequencer_specific, 5, 5, 15, 15, 2, 2
6, 215520, Note_on_c, 2, 47, 89
6, 215520, Sequencer_specific, 4, 5, 15, 15, 2
6, 216000, Note_off_c, 2, 47, 0
6, 216000, Note_off_c, 2, 54, 0
6, 216000, Note_on_c, 2, 54, 89
6, 216000, Sequencer_specific, 4, 5, 15, 15, 2
6, 216000, Note_on_c, 2, 47, 89
6, 216000, Sequencer_specific, 4, 5, 15, 15, 2
6, 216480, Note_off_c, 2, 47, 0
6, 216480, Note_off_c, 2, 54, 0
6, 216480, Note_on_c, 2, 54, 89
6, 216480, Sequencer_specific, 4, 5, 15, 15, 2
6, 216480, Note_on_c, 2, 47, 89
6, 216480, Sequencer_specific, 4, 5, 15, 15, 2
6, 216960, Note_off_c, 2, 47, 0
6, 216960, Note_off_c, 2, 54, 0
6, 216960, Note_on_c, 2, 54, 89
6, 216960, Sequencer_specific, 4, 5, 15, 15, 2
6, 216960, Note_on_c, 2, 47, 89
6, 216960, Sequencer_specific, 4, 5, 15, 15, 2
6, 217440, Note_off_c, 2, 47, 0
6, 217440, Note_off_c, 2, 54, 0
6, 217440, Note_on_c, 2, 54, 89
6, 217440, Sequencer_specific, 5, 5, 15, 15, 2, 2
6, 217440, Note_on_c, 2, 47, 89
6, 217440, Sequencer_specific, 4, 5, 15, 15, 2
6, 217920, Note_off_c, 2, 47, 0
6, 217920, Note_off_c, 2, 54, 0
6, 217920, Note_on_c, 2, 54, 89
6, 217920, Sequencer_specific, 4, 5, 15, 15, 2
6, 217920, Note_on_c, 2, 47, 89
6, 217920, Sequencer_specific, 4, 5, 15, 15, 2
6, 218400, Note_off_c, 2, 47, 0
6, 218400, Note_off_c, 2, 54, 0
6, 218400, Note_on_c, 2, 54, 89
6, 218400, Sequencer_specific, 4, 5, 15, 15, 2
6, 218400, Note_on_c, 2, 47, 89
6, 218400, Sequencer_specific, 4, 5, 15, 15, 2
6, 218880, Note_off_c, 2, 47, 0
6, 218880, Note_off_c, 2, 54, 0
6, 218880, Note_on_c, 2, 47, 89
6, 218880, Note_on_c, 2, 40, 89
6, 219360, Note_off_c, 2, 40, 0
6, 219360, Note_off_c, 2, 47, 0
6, 219360, Note_on_c, 2, 47, 89
6, 219360, Note_on_c, 2, 40, 89
6, 219360, Sequencer_specific, 5, 5, 15, 15, 0, 2
6, 219840, Note_off_c, 2, 40, 0
6, 219840, Note_off_c, 2, 47, 0
6, 219840, Note_on_c, 2, 47, 89
6, 219840, Note_on_c, 2, 40, 89
6, 220320, Note_off_c, 2, 40, 0
6, 220320, Note_off_c, 2, 47, 0
6, 220320, Note_on_c, 2, 47, 89
6, 220320, Note_on_c, 2, 40, 89
6, 220800, Note_off_c, 2, 40, 0
6, 220800, Note_off_c, 2, 47, 0
6, 220800, Note_on_c, 2, 47, 89
6, 220800, Note_on_c, 2, 40, 89
6, 221280, Note_off_c, 2, 40, 0
6, 221280, Note_off_c, 2, 47, 0
6, 221280, Note_on_c, 2, 47, 89
6, 221280, Note_on_c, 2, 40, 89
6, 221280, Sequencer_specific, 5, 5, 15, 15, 0, 2
6, 221760, Note_off_c, 2, 40, 0
6, 221760, Note_off_c, 2, 47, 0
6, 221760, Note_on_c, 2, 47, 89
6, 221760, Note_on_c, 2, 40, 89
6, 222240, Note_off_c, 2, 40, 0
6, 222240, Note_off_c, 2, 47, 0
6, 222240, Note_on_c, 2, 52, 89
6, 222240, Note_on_c, 2, 45, 89
6, 222720, Note_off_c, 2, 45, 0
6, 222720, Note_off_c, 2, 52, 0
6, 223200, Note_on_c, 2, 52, 89
6, 223200, Note_on_c, 2, 45, 89
6, 223680, Note_off_c, 2, 45, 0
6, 223680, Note_off_c, 2, 52, 0
6, 224160, Note_on_c, 2, 52, 89
6, 224160, Note_on_c, 2, 45, 89
6, 224640, Note_off_c, 2, 45, 0
6, 224640, Note_off_c, 2, 52, 0
6, 224640, Note_on_c, 2, 52, 89
6, 224640, Note_on_c, 2, 45, 89
6, 225600, Note_off_c, 2, 45, 0
6, 225600, Note_off_c, 2, 52, 0
6, 225600, Note_on_c, 2, 52, 89
6, 225600, Note_on_c, 2, 45, 89
6, 226560, Note_off_c, 2, 45, 0
6, 226560, Note_off_c, 2, 52, 0
6, 226560, Note_on_c, 2, 55, 89
6, 226560, Sequencer_specific, 4, 5, 15, 15, 2
6, 226560, Note_on_c, 2, 48, 89
6, 226560, Sequencer_specific, 4, 5, 15, 15, 2
6, 227040, Note_off_c, 2, 48, 0
6, 227040, Note_off_c, 2, 55, 0
6, 227040, Note_on_c, 2, 55, 89
6, 227040, Sequencer_specific, 5, 5, 15, 15, 2, 2
6, 227040, Note_on_c, 2, 48, 89
6, 227040, Sequencer_specific, 4, 5, 15, 15, 2
6, 227520, Note_off_c, 2, 48, 0
6, 227520, Note_off_c, 2, 55, 0
6, 227520, Note_on_c, 2, 55, 89
6, 227520, Sequencer_specific, 4, 5, 15, 15, 2
6, 227520, Note_on_c, 2, 48, 89
6, 227520, Sequencer_specific, 4, 5, 15, 15, 2
6, 228000, Note_off_c, 2, 48, 0
6, 228000, Note_off_c, 2, 55, 0
6, 228000, Note_on_c, 2, 55, 89
6, 228000, Sequencer_specific, 4, 5, 15, 15, 2
6, 228000, Note_on_c, 2, 48, 89
6, 228000, Sequencer_specific, 4, 5, 15, 15, 2
6, 228480, Note_off_c, 2, 48, 0
6, 228480, Note_off_c, 2, 55, 0
6, 228480, Note_on_c, 2, 55, 89
6, 228480, Sequencer_specific, 4, 5, 15, 15, 2
6, 228480, Note_on_c, 2, 48, 89
6, 228480, Sequencer_specific, 4, 5, 15, 15, 2
6, 228960, Note_off_c, 2, 48, 0
6, 228960, Note_off_c, 2, 55, 0
6, 228960, Note_on_c, 2, 55, 89
6, 228960, Sequencer_specific, 5, 5, 15, 15, 2, 2
6, 228960, Note_on_c, 2, 48, 89
6, 228960, Sequencer_specific, 4, 5, 15, 15, 2
6, 229440, Note_off_c, 2, 48, 0
6, 229440, Note_off_c, 2, 55, 0
6, 229440, Note_on_c, 2, 55, 89
6, 229440, Sequencer_specific, 4, 5, 15, 15, 2
6, 229440, Note_on_c, 2, 48, 89
6, 229440, Sequencer_specific, 4, 5, 15, 15, 2
6, 229920, Note_off_c, 2, 48, 0
6, 229920, Note_off_c, 2, 55, 0
6, 229920, Note_on_c, 2, 55, 89
6, 229920, Sequencer_specific, 4, 5, 15, 15, 2
6, 229920, Note_on_c, 2, 48, 89
6, 229920, Sequencer_specific, 4, 5, 15, 15, 2
6, 230400, Note_off_c, 2, 48, 0
6, 230400, Note_off_c, 2, 55, 0
6, 230400, Note_on_c, 2, 54, 89
6, 230400, Sequencer_specific, 4, 5, 15, 15, 2
6, 230400, Note_on_c, 2, 47, 89
6, 230400, Sequencer_specific, 4, 5, 15, 15, 2
6, 230880, Note_off_c, 2, 47, 0
6, 230880, Note_off_c, 2, 54, 0
6, 230880, Note_on_c, 2, 54, 89
6, 230880, Sequencer_specific, 5, 5, 15, 15, 2, 2
6, 230880, Note_on_c, 2, 47, 89
6, 230880, Sequencer_specific, 4, 5, 15, 15, 2
6, 231360, Note_off_c, 2, 47, 0
6, 231360, Note_off_c, 2, 54, 0
6, 231360, Note_on_c, 2, 54, 89
6, 231360, Sequencer_specific, 4, 5, 15, 15, 2
6, 231360, Note_on_c, 2, 47, 89
6, 231360, Sequencer_specific, 4, 5, 15, 15, 2
6, 231840, Note_off_c, 2, 47, 0
6, 231840, Note_off_c, 2, 54, 0
6, 231840, Note_on_c, 2, 54, 89
6, 231840, Sequencer_specific, 4, 5, 15, 15, 2
6, 231840, Note_on_c, 2, 47, 89
6, 231840, Sequencer_specific, 4, 5, 15, 15, 2
6, 232320, Note_off_c, 2, 47, 0
6, 232320, Note_off_c, 2, 54, 0
6, 232320, Note_on_c, 2, 54, 89
6, 232320, Sequencer_specific, 4, 5, 15, 15, 2
6, 232320, Note_on_c, 2, 47, 89
6, 232320, Sequencer_specific, 4, 5, 15, 15, 2
6, 232800, Note_off_c, 2, 47, 0
6, 232800, Note_off_c, 2, 54, 0
6, 232800, Note_on_c, 2, 54, 89
6, 232800, Sequencer_specific, 5, 5, 15, 15, 2, 2
6, 232800, Note_on_c, 2, 47, 89
6, 232800, Sequencer_specific, 4, 5, 15, 15, 2
6, 233280, Note_off_c, 2, 47, 0
6, 233280, Note_off_c, 2, 54, 0
6, 233280, Note_on_c, 2, 54, 89
6, 233280, Sequencer_specific, 4, 5, 15, 15, 2
6, 233280, Note_on_c, 2, 47, 89
6, 233280, Sequencer_specific, 4, 5, 15, 15, 2
6, 233760, Note_off_c, 2, 47, 0
6, 233760, Note_off_c, 2, 54, 0
6, 233760, Note_on_c, 2, 54, 89
6, 233760, Sequencer_specific, 4, 5, 15, 15, 2
6, 233760, Note_on_c, 2, 47, 89
6, 233760, Sequencer_specific, 4, 5, 15, 15, 2
6, 234240, Note_off_c, 2, 47, 0
6, 234240, Note_off_c, 2, 54, 0
6, 234240, Note_on_c, 2, 47, 89
6, 234240, Note_on_c, 2, 40, 89
6, 234720, Note_off_c, 2, 40, 0
6, 234720, Note_off_c, 2, 47, 0
6, 234720, Note_on_c, 2, 47, 89
6, 234720, Note_on_c, 2, 40, 89
6, 234720, Sequencer_specific, 5, 5, 15, 15, 0, 2
6, 235200, Note_off_c, 2, 40, 0
6, 235200, Note_off_c, 2, 47, 0
6, 235200, Note_on_c, 2, 47, 89
6, 235200, Note_on_c, 2, 40, 89
6, 235680, Note_off_c, 2, 40, 0
6, 235680, Note_off_c, 2, 47, 0
6, 235680, Note_on_c, 2, 47, 89
6, 235680, Note_on_c, 2, 40, 89
6, 236160, Note_off_c, 2, 40, 0
6, 236160, Note_off_c, 2, 47, 0
6, 236160, Note_on_c, 2, 47, 89
6, 236160, Note_on_c, 2, 40, 89
6, 236640, Note_off_c, 2, 40, 0
6, 236640, Note_off_c, 2, 47, 0
6, 236640, Note_on_c, 2, 47, 89
6, 236640, Note_on_c, 2, 40, 89
6, 236640, Sequencer_specific, 5, 5, 15, 15, 0, 2
6, 237120, Note_off_c, 2, 40, 0
6, 237120, Note_off_c, 2, 47, 0
6, 237120, Note_on_c, 2, 47, 89
6, 237120, Note_on_c, 2, 40, 89
6, 237600, Note_off_c, 2, 40, 0
6, 237600, Note_off_c, 2, 47, 0
6, 237600, Note_on_c, 2, 52, 89
6, 237600, Note_on_c, 2, 45, 89
6, 238080, Note_off_c, 2, 45, 0
6, 238080, Note_off_c, 2, 52, 0
6, 238560, Note_on_c, 2, 52, 89
6, 238560, Note_on_c, 2, 45, 89
6, 239040, Note_off_c, 2, 45, 0
6, 239040, Note_off_c, 2, 52, 0
6, 239520, Note_on_c, 2, 52, 89
6, 239520, Note_on_c, 2, 45, 89
6, 240000, Note_off_c, 2, 45, 0
6, 240000, Note_off_c, 2, 52, 0
6, 240000, Note_on_c, 2, 52, 89
6, 240000, Note_on_c, 2, 45, 89
6, 240960, Note_off_c, 2, 45, 0
6, 240960, Note_off_c, 2, 52, 0
6, 240960, Note_on_c, 2, 52, 89
6, 240960, Note_on_c, 2, 45, 89
6, 241920, Note_off_c, 2, 45, 0
6, 241920, Note_off_c, 2, 52, 0
6, 241920, Note_on_c, 2, 55, 89
6, 241920, Sequencer_specific, 4, 5, 15, 15, 2
6, 241920, Note_on_c, 2, 48, 89
6, 241920, Sequencer_specific, 4, 5, 15, 15, 2
6, 242400, Note_off_c, 2, 48, 0
6, 242400, Note_off_c, 2, 55, 0
6, 242400, Note_on_c, 2, 55, 89
6, 242400, Sequencer_specific, 5, 5, 15, 15, 2, 2
6, 242400, Note_on_c, 2, 48, 89
6, 242400, Sequencer_specific, 4, 5, 15, 15, 2
6, 242880, Note_off_c, 2, 48, 0
6, 242880, Note_off_c, 2, 55, 0
6, 242880, Note_on_c, 2, 55, 89
6, 242880, Sequencer_specific, 4, 5, 15, 15, 2
6, 242880, Note_on_c, 2, 48, 89
6, 242880, Sequencer_specific, 4, 5, 15, 15, 2
6, 243360, Note_off_c, 2, 48, 0
6, 243360, Note_off_c, 2, 55, 0
6, 243360, Note_on_c, 2, 55, 89
6, 243360, Sequencer_specific, 4, 5, 15, 15, 2
6, 243360, Note_on_c, 2, 48, 89
6, 243360, Sequencer_specific, 4, 5, 15, 15, 2
6, 243840, Note_off_c, 2, 48, 0
6, 243840, Note_off_c, 2, 55, 0
6, 243840, Note_on_c, 2, 55, 89
6, 243840, Sequencer_specific, 4, 5, 15, 15, 2
6, 243840, Note_on_c, 2, 48, 89
6, 243840, Sequencer_specific, 4, 5, 15, 15, 2
6, 244320, Note_off_c, 2, 48, 0
6, 244320, Note_off_c, 2, 55, 0
6, 244320, Note_on_c, 2, 55, 89
6, 244320, Sequencer_specific, 5, 5, 15, 15, 2, 2
6, 244320, Note_on_c, 2, 48, 89
6, 244320, Sequencer_specific, 4, 5, 15, 15, 2
6, 244800, Note_off_c, 2, 48, 0
6, 244800, Note_off_c, 2, 55, 0
6, 244800, Note_on_c, 2, 55, 89
6, 244800, Sequencer_specific, 4, 5, 15, 15, 2
6, 244800, Note_on_c, 2, 48, 89
6, 244800, Sequencer_specific, 4, 5, 15, 15, 2
6, 245280, Note_off_c, 2, 48, 0
6, 245280, Note_off_c, 2, 55, 0
6, 245280, Note_on_c, 2, 55, 89
6, 245280, Sequencer_specific, 4, 5, 15, 15, 2
6, 245280, Note_on_c, 2, 48, 89
6, 245280, Sequencer_specific, 4, 5, 15, 15, 2
6, 245760, Note_off_c, 2, 48, 0
6, 245760, Note_off_c, 2, 55, 0
6, 245760, Note_on_c, 2, 54, 89
6, 245760, Sequencer_specific, 4, 5, 15, 15, 2
6, 245760, Note_on_c, 2, 47, 89
6, 245760, Sequencer_specific, 4, 5, 15, 15, 2
6, 246240, Note_off_c, 2, 47, 0
6, 246240, Note_off_c, 2, 54, 0
6, 246240, Note_on_c, 2, 54, 89
6, 246240, Sequencer_specific, 5, 5, 15, 15, 2, 2
6, 246240, Note_on_c, 2, 47, 89
6, 246240, Sequencer_specific, 4, 5, 15, 15, 2
6, 246720, Note_off_c, 2, 47, 0
6, 246720, Note_off_c, 2, 54, 0
6, 246720, Note_on_c, 2, 54, 89
6, 246720, Sequencer_specific, 4, 5, 15, 15, 2
6, 246720, Note_on_c, 2, 47, 89
6, 246720, Sequencer_specific, 4, 5, 15, 15, 2
6, 247200, Note_off_c, 2, 47, 0
6, 247200, Note_off_c, 2, 54, 0
6, 247200, Note_on_c, 2, 54, 89
6, 247200, Sequencer_specific, 4, 5, 15, 15, 2
6, 247200, Note_on_c, 2, 47, 89
6, 247200, Sequencer_specific, 4, 5, 15, 15, 2
6, 247680, Note_off_c, 2, 47, 0
6, 247680, Note_off_c, 2, 54, 0
6, 247680, Note_on_c, 2, 54, 89
6, 247680, Sequencer_specific, 4, 5, 15, 15, 2
6, 247680, Note_on_c, 2, 47, 89
6, 247680, Sequencer_specific, 4, 5, 15, 15, 2
6, 248160, Note_off_c, 2, 47, 0
6, 248160, Note_off_c, 2, 54, 0
6, 248160, Note_on_c, 2, 54, 89
6, 248160, Sequencer_specific, 5, 5, 15, 15, 2, 2
6, 248160, Note_on_c, 2, 47, 89
6, 248160, Sequencer_specific, 4, 5, 15, 15, 2
6, 248640, Note_off_c, 2, 47, 0
6, 248640, Note_off_c, 2, 54, 0
6, 248640, Note_on_c, 2, 54, 89
6, 248640, Sequencer_specific, 4, 5, 15, 15, 2
6, 248640, Note_on_c, 2, 47, 89
6, 248640, Sequencer_specific, 4, 5, 15, 15, 2
6, 249120, Note_off_c, 2, 47, 0
6, 249120, Note_off_c, 2, 54, 0
6, 249120, Note_on_c, 2, 54, 89
6, 249120, Sequencer_specific, 4, 5, 15, 15, 2
6, 249120, Note_on_c, 2, 47, 89
6, 249120, Sequencer_specific, 4, 5, 15, 15, 2
6, 249600, Note_off_c, 2, 47, 0
6, 249600, Note_off_c, 2, 54, 0
6, 249600, Note_on_c, 2, 47, 89
6, 249600, Note_on_c, 2, 40, 89
6, 250080, Note_off_c, 2, 40, 0
6, 250080, Note_off_c, 2, 47, 0
6, 250080, Note_on_c, 2, 47, 89
6, 250080, Note_on_c, 2, 40, 89
6, 250080, Sequencer_specific, 5, 5, 15, 15, 0, 2
6, 250560, Note_off_c, 2, 40, 0
6, 250560, Note_off_c, 2, 47, 0
6, 250560, Note_on_c, 2, 47, 89
6, 250560, Note_on_c, 2, 40, 89
6, 251040, Note_off_c, 2, 40, 0
6, 251040, Note_off_c, 2, 47, 0
6, 251040, Note_on_c, 2, 47, 89
6, 251040, Note_on_c, 2, 40, 89
6, 251520, Note_off_c, 2, 40, 0
6, 251520, Note_off_c, 2, 47, 0
6, 251520, Note_on_c, 2, 47, 89
6, 251520, Note_on_c, 2, 40, 89
6, 252000, Note_off_c, 2, 40, 0
6, 252000, Note_off_c, 2, 47, 0
6, 252000, Note_on_c, 2, 47, 89
6, 252000, Note_on_c, 2, 40, 89
6, 252000, Sequencer_specific, 5, 5, 15, 15, 0, 2
6, 252480, Note_off_c, 2, 40, 0
6, 252480, Note_off_c, 2, 47, 0
6, 252480, Note_on_c, 2, 47, 89
6, 252480, Note_on_c, 2, 40, 89
6, 252960, Note_off_c, 2, 40, 0
6, 252960, Note_off_c, 2, 47, 0
6, 252960, Note_on_c, 2, 52, 89
6, 252960, Note_on_c, 2, 45, 89
6, 253440, Note_off_c, 2, 45, 0
6, 253440, Note_off_c, 2, 52, 0
6, 253920, Note_on_c, 2, 52, 89
6, 253920, Note_on_c, 2, 45, 89
6, 254400, Note_off_c, 2, 45, 0
6, 254400, Note_off_c, 2, 52, 0
6, 254880, Note_on_c, 2, 52, 89
6, 254880, Note_on_c, 2, 45, 89
6, 255360, Note_off_c, 2, 45, 0
6, 255360, Note_off_c, 2, 52, 0
6, 255360, Note_on_c, 2, 52, 89
6, 255360, Note_on_c, 2, 45, 89
6, 256320, Note_off_c, 2, 45, 0
6, 256320, Note_off_c, 2, 52, 0
6, 256320, Note_on_c, 2, 52, 89
6, 256320, Note_on_c, 2, 45, 89
6, 257280, Note_off_c, 2, 45, 0
6, 257280, Note_off_c, 2, 52, 0
6, 257280, Note_on_c, 2, 55, 89
6, 257280, Sequencer_specific, 4, 5, 15, 15, 2
6, 257280, Note_on_c, 2, 48, 89
6, 257280, Sequencer_specific, 4, 5, 15, 15, 2
6, 258240, Note_off_c, 2, 48, 0
6, 258240, Note_off_c, 2, 55, 0
6, 258240, Note_on_c, 2, 55, 89
6, 258240, Sequencer_specific, 4, 5, 15, 15, 2
6, 258240, Note_on_c, 2, 48, 89
6, 258240, Sequencer_specific, 4, 5, 15, 15, 2
6, 259200, Note_off_c, 2, 48, 0
6, 259200, Note_off_c, 2, 55, 0
6, 259200, Note_on_c, 2, 55, 89
6, 259200, Sequencer_specific, 4, 5, 15, 15, 2
6, 259200, Note_on_c, 2, 48, 89
6, 259200, Sequencer_specific, 4, 5, 15, 15, 2
6, 260160, Note_off_c, 2, 48, 0
6, 260160, Note_off_c, 2, 55, 0
6, 260160, Note_on_c, 2, 55, 89
6, 260160, Sequencer_specific, 4, 5, 15, 15, 2
6, 260160, Note_on_c, 2, 48, 89
6, 260160, Sequencer_specific, 4, 5, 15, 15, 2
6, 261120, Note_off_c, 2, 48, 0
6, 261120, Note_off_c, 2, 55, 0
6, 261120, Note_on_c, 2, 54, 89
6, 261120, Note_on_c, 2, 47, 89
6, 262080, Note_off_c, 2, 47, 0
6, 262080, Note_off_c, 2, 54, 0
6, 264960, Note_on_c, 2, 40, 89
6, 265920, Note_off_c, 2, 40, 0
6, 265920, Note_on_c, 2, 52, 89
6, 266880, Note_off_c, 2, 52, 0
6, 266880, Note_on_c, 2, 50, 89
6, 267360, Note_off_c, 2, 50, 0
6, 267360, Note_on_c, 2, 52, 89
6, 267360, Sequencer_specific, 5, 5, 15, 15, 0, 2
6, 267840, Note_off_c, 2, 52, 0
6, 267840, Note_on_c, 2, 47, 89
6, 268320, Note_off_c, 2, 47, 0
6, 268320, Note_on_c, 2, 45, 89
6, 268800, Note_off_c, 2, 45, 0
6, 269280, Note_on_c, 2, 45, 89
6, 269760, Note_off_c, 2, 45, 0
6, 270240, Note_on_c, 2, 43, 89
6, 270720, Note_off_c, 2, 43, 0
6, 270720, Note_on_c, 2, 45, 89
6, 271200, Note_off_c, 2, 45, 0
6, 271200, Note_on_c, 2, 47, 89
6, 271200, Sequencer_specific, 5, 5, 15, 15, 0, 2
6, 271680, Note_off_c, 2, 47, 0
6, 271680, Note_on_c, 2, 45, 89
6, 272160, Note_off_c, 2, 45, 0
6, 272160, Note_on_c, 2, 43, 89
6, 272640, Note_off_c, 2, 43, 0
6, 272640, Note_on_c, 2, 40, 89
6, 273600, Note_off_c, 2, 40, 0
6, 273600, Note_on_c, 2, 52, 89
6, 274560, Note_off_c, 2, 52, 0
6, 274560, Note_on_c, 2, 50, 89
6, 275040, Note_off_c, 2, 50, 0
6, 275040, Note_on_c, 2, 52, 89
6, 275040, Sequencer_specific, 5, 5, 15, 15, 0, 2
6, 275520, Note_off_c, 2, 52, 0
6, 275520, Note_on_c, 2, 47, 89
6, 276000, Note_off_c, 2, 47, 0
6, 276000, Note_on_c, 2, 45, 89
6, 276480, Note_off_c, 2, 45, 0
6, 276960, Note_on_c, 2, 45, 89
6, 277440, Note_off_c, 2, 45, 0
6, 277920, Note_on_c, 2, 43, 89
6, 278400, Note_off_c, 2, 43, 0
6, 278400, Note_on_c, 2, 45, 89
6, 278880, Note_off_c, 2, 45, 0
6, 278880, Note_on_c, 2, 47, 89
6, 278880, Sequencer_specific, 5, 5, 15, 15, 0, 2
6, 279360, Note_off_c, 2, 47, 0
6, 279360, Note_on_c, 2, 45, 89
6, 279840, Note_off_c, 2, 45, 0
6, 279840, Note_on_c, 2, 43, 89
6, 280320, Note_off_c, 2, 43, 0
6, 280320, Note_on_c, 2, 40, 89
6, 281280, Note_off_c, 2, 40, 0
6, 281280, Note_on_c, 2, 52, 89
6, 282240, Note_off_c, 2, 52, 0
6, 282240, Note_on_c, 2, 50, 89
6, 282720, Note_off_c, 2, 50, 0
6, 282720, Note_on_c, 2, 52, 89
6, 282720, Sequencer_specific, 5, 5, 15, 15, 0, 2
6, 283200, Note_off_c, 2, 52, 0
6, 283200, Note_on_c, 2, 47, 89
6, 283680, Note_off_c, 2, 47, 0
6, 283680, Note_on_c, 2, 45, 89
6, 284160, Note_off_c, 2, 45, 0
6, 284640, Note_on_c, 2, 45, 89
6, 285120, Note_off_c, 2, 45, 0
6, 285600, Note_on_c, 2, 43, 89
6, 286080, Note_off_c, 2, 43, 0
6, 286080, Note_on_c, 2, 45, 89
6, 286560, Note_off_c, 2, 45, 0
6, 286560, Note_on_c, 2, 47, 89
6, 286560, Sequencer_specific, 5, 5, 15, 15, 0, 2
6, 287040, Note_off_c, 2, 47, 0
6, 287040, Note_on_c, 2, 45, 89
6, 287520, Note_off_c, 2, 45, 0
6, 287520, Note_on_c, 2, 43, 89
6, 288000, Note_off_c, 2, 43, 0
6, 288000, Note_on_c, 2, 40, 89
6, 288960, Note_off_c, 2, 40, 0
6, 288960, Note_on_c, 2, 52, 89
6, 289920, Note_off_c, 2, 52, 0
6, 289920, Note_on_c, 2, 50, 89
6, 290400, Note_off_c, 2, 50, 0
6, 290400, Note_on_c, 2, 52, 89
6, 290400, Sequencer_specific, 5, 5, 15, 15, 0, 2
6, 290880, Note_off_c, 2, 52, 0
6, 290880, Note_on_c, 2, 47, 89
6, 291360, Note_off_c, 2, 47, 0
6, 291360, Note_on_c, 2, 45, 89
6, 291840, Note_off_c, 2, 45, 0
6, 292320, Note_on_c, 2, 45, 89
6, 292800, Note_off_c, 2, 45, 0
6, 293280, Note_on_c, 2, 43, 89
6, 293760, Note_off_c, 2, 43, 0
6, 293760, Note_on_c, 2, 45, 89
6, 294240, Note_off_c, 2, 45, 0
6, 294240, Note_on_c, 2, 47, 89
6, 294240, Sequencer_specific, 5, 5, 15, 15, 0, 2
6, 294720, Note_off_c, 2, 47, 0
6, 294720, Note_on_c, 2, 45, 89
6, 295200, Note_off_c, 2, 45, 0
6, 295200, Note_on_c, 2, 43, 89
6, 295680, Note_off_c, 2, 43, 0
6, 295680, Note_on_c, 2, 40, 89
6, 296640, Note_off_c, 2, 40, 0
6, 296640, Note_on_c, 2, 52, 89
6, 297600, Note_off_c, 2, 52, 0
6, 297600, Note_on_c, 2, 50, 89
6, 298080, Note_off_c, 2, 50, 0
6, 298080, Note_on_c, 2, 52, 89
6, 298080, Sequencer_specific, 5, 5, 15, 15, 0, 2
6, 298560, Note_off_c, 2, 52, 0
6, 298560, Note_on_c, 2, 47, 89
6, 299040, Note_off_c, 2, 47, 0
6, 299040, Note_on_c, 2, 45, 89
6, 299520, Note_off_c, 2, 45, 0
6, 300000, Note_on_c, 2, 45, 89
6, 300480, Note_off_c, 2, 45, 0
6, 300960, Note_on_c, 2, 43, 89
6, 301440, Note_off_c, 2, 43, 0
6, 301440, Note_on_c, 2, 45, 89
6, 301920, Note_off_c, 2, 45, 0
6, 301920, Note_on_c, 2, 47, 89
6, 301920, Sequencer_specific, 5, 5, 15, 15, 0, 2
6, 302400, Note_off_c, 2, 47, 0
6, 302400, Note_on_c, 2, 45, 89
6, 302880, Note_off_c, 2, 45, 0
6, 302880, Note_on_c, 2, 43, 89
6, 303360, Note_off_c, 2, 43, 0
6, 303360, Note_on_c, 2, 40, 89
6, 304320, Note_off_c, 2, 40, 0
6, 304320, Note_on_c, 2, 52, 89
6, 305280, Note_off_c, 2, 52, 0
6, 305280, Note_on_c, 2, 50, 89
6, 305760, Note_off_c, 2, 50, 0
6, 305760, Note_on_c, 2, 52, 89
6, 305760, Sequencer_specific, 5, 5, 15, 15, 0, 2
6, 306240, Note_off_c, 2, 52, 0
6, 306240, Note_on_c, 2, 47, 89
6, 306720, Note_off_c, 2, 47, 0
6, 306720, Note_on_c, 2, 45, 89
6, 307200, Note_off_c, 2, 45, 0
6, 307680, Note_on_c, 2, 45, 89
6, 308160, Note_off_c, 2, 45, 0
6, 308640, Note_on_c, 2, 43, 89
6, 309120, Note_off_c, 2, 43, 0
6, 309120, Note_on_c, 2, 45, 89
6, 309600, Note_off_c, 2, 45, 0
6, 309600, Note_on_c, 2, 47, 89
6, 309600, Sequencer_specific, 5, 5, 15, 15, 0, 2
6, 310080, Note_off_c, 2, 47, 0
6, 310080, Note_on_c, 2, 45, 89
6, 310560, Note_off_c, 2, 45, 0
6, 310560, Note_on_c, 2, 43, 89
6, 311040, Note_off_c, 2, 43, 0
6, 311040, Note_on_c, 2, 40, 89
6, 312000, Note_off_c, 2, 40, 0
6, 312000, Note_on_c, 2, 52, 89
6, 312960, Note_off_c, 2, 52, 0
6, 312960, Note_on_c, 2, 50, 89
6, 313440, Note_off_c, 2, 50, 0
6, 313440, Note_on_c, 2, 52, 89
6, 313440, Sequencer_specific, 5, 5, 15, 15, 0, 2
6, 313920, Note_off_c, 2, 52, 0
6, 313920, Note_on_c, 2, 47, 89
6, 314400, Note_off_c, 2, 47, 0
6, 314400, Note_on_c, 2, 45, 89
6, 314880, Note_off_c, 2, 45, 0
6, 315360, Note_on_c, 2, 45, 89
6, 315840, Note_off_c, 2, 45, 0
6, 316320, Note_on_c, 2, 43, 89
6, 316800, Note_off_c, 2, 43, 0
6, 316800, Note_on_c, 2, 45, 89
6, 317280, Note_off_c, 2, 45, 0
6, 317280, Note_on_c, 2, 47, 89
6, 317280, Sequencer_specific, 5, 5, 15, 15, 0, 2
6, 317760, Note_off_c, 2, 47, 0
6, 317760, Note_on_c, 2, 45, 89
6, 318240, Note_off_c, 2, 45, 0
6, 318240, Note_on_c, 2, 43, 89
6, 318720, Note_off_c, 2, 43, 0
6, 318720, Note_on_c, 2, 40, 89
6, 319680, Note_off_c, 2, 40, 0
6, 319680, Note_on_c, 2, 52, 89
6, 320640, Note_off_c, 2, 52, 0
6, 320640, Note_on_c, 2, 50, 89
6, 321120, Note_off_c, 2, 50, 0
6, 321120, Note_on_c, 2, 52, 89
6, 321120, Sequencer_specific, 5, 5, 15, 15, 0, 2
6, 321600, Note_off_c, 2, 52, 0
6, 321600, Note_on_c, 2, 47, 89
6, 322080, Note_off_c, 2, 47, 0
6, 322080, Note_on_c, 2, 45, 89
6, 322560, Note_off_c, 2, 45, 0
6, 326400, Note_on_c, 2, 55, 89
6, 326400, Sequencer_specific, 4, 5, 15, 15, 2
6, 326400, Note_on_c, 2, 48, 89
6, 326400, Sequencer_specific, 4, 5, 15, 15, 2
6, 326880, Note_off_c, 2, 48, 0
6, 326880, Note_off_c, 2, 55, 0
6, 326880, Note_on_c, 2, 55, 89
6, 326880, Sequencer_specific, 5, 5, 15, 15, 2, 2
6, 326880, Note_on_c, 2, 48, 89
6, 326880, Sequencer_specific, 4, 5, 15, 15, 2
6, 327360, Note_off_c, 2, 48, 0
6, 327360, Note_off_c, 2, 55, 0
6, 327360, Note_on_c, 2, 55, 89
6, 327360, Sequencer_specific, 4, 5, 15, 15, 2
6, 327360, Note_on_c, 2, 48, 89
6, 327360, Sequencer_specific, 4, 5, 15, 15, 2
6, 327840, Note_off_c, 2, 48, 0
6, 327840, Note_off_c, 2, 55, 0
6, 327840, Note_on_c, 2, 55, 89
6, 327840, Sequencer_specific, 4, 5, 15, 15, 2
6, 327840, Note_on_c, 2, 48, 89
6, 327840, Sequencer_specific, 4, 5, 15, 15, 2
6, 328320, Note_off_c, 2, 48, 0
6, 328320, Note_off_c, 2, 55, 0
6, 328320, Note_on_c, 2, 55, 89
6, 328320, Sequencer_specific, 4, 5, 15, 15, 2
6, 328320, Note_on_c, 2, 48, 89
6, 328320, Sequencer_specific, 4, 5, 15, 15, 2
6, 328800, Note_off_c, 2, 48, 0
6, 328800, Note_off_c, 2, 55, 0
6, 328800, Note_on_c, 2, 55, 89
6, 328800, Sequencer_specific, 5, 5, 15, 15, 2, 2
6, 328800, Note_on_c, 2, 48, 89
6, 328800, Sequencer_specific, 4, 5, 15, 15, 2
6, 329280, Note_off_c, 2, 48, 0
6, 329280, Note_off_c, 2, 55, 0
6, 329280, Note_on_c, 2, 55, 89
6, 329280, Sequencer_specific, 4, 5, 15, 15, 2
6, 329280, Note_on_c, 2, 48, 89
6, 329280, Sequencer_specific, 4, 5, 15, 15, 2
6, 329760, Note_off_c, 2, 48, 0
6, 329760, Note_off_c, 2, 55, 0
6, 329760, Note_on_c, 2, 55, 89
6, 329760, Sequencer_specific, 4, 5, 15, 15, 2
6, 329760, Note_on_c, 2, 48, 89
6, 329760, Sequencer_specific, 4, 5, 15, 15, 2
6, 330240, Note_off_c, 2, 48, 0
6, 330240, Note_off_c, 2, 55, 0
6, 330240, Note_on_c, 2, 54, 89
6, 330240, Sequencer_specific, 4, 5, 15, 15, 2
6, 330240, Note_on_c, 2, 47, 89
6, 330240, Sequencer_specific, 4, 5, 15, 15, 2
6, 330720, Note_off_c, 2, 47, 0
6, 330720, Note_off_c, 2, 54, 0
6, 330720, Note_on_c, 2, 54, 89
6, 330720, Sequencer_specific, 5, 5, 15, 15, 2, 2
6, 330720, Note_on_c, 2, 47, 89
6, 330720, Sequencer_specific, 4, 5, 15, 15, 2
6, 331200, Note_off_c, 2, 47, 0
6, 331200, Note_off_c, 2, 54, 0
6, 331200, Note_on_c, 2, 54, 89
6, 331200, Sequencer_specific, 4, 5, 15, 15, 2
6, 331200, Note_on_c, 2, 47, 89
6, 331200, Sequencer_specific, 4, 5, 15, 15, 2
6, 331680, Note_off_c, 2, 47, 0
6, 331680, Note_off_c, 2, 54, 0
6, 331680, Note_on_c, 2, 54, 89
6, 331680, Sequencer_specific, 4, 5, 15, 15, 2
6, 331680, Note_on_c, 2, 47, 89
6, 331680, Sequencer_specific, 4, 5, 15, 15, 2
6, 332160, Note_off_c, 2, 47, 0
6, 332160, Note_off_c, 2, 54, 0
6, 332160, Note_on_c, 2, 54, 89
6, 332160, Sequencer_specific, 4, 5, 15, 15, 2
6, 332160, Note_on_c, 2, 47, 89
6, 332160, Sequencer_specific, 4, 5, 15, 15, 2
6, 332640, Note_off_c, 2, 47, 0
6, 332640, Note_off_c, 2, 54, 0
6, 332640, Note_on_c, 2, 54, 89
6, 332640, Sequencer_specific, 5, 5, 15, 15, 2, 2
6, 332640, Note_on_c, 2, 47, 89
6, 332640, Sequencer_specific, 4, 5, 15, 15, 2
6, 333120, Note_off_c, 2, 47, 0
6, 333120, Note_off_c, 2, 54, 0
6, 333120, Note_on_c, 2, 54, 89
6, 333120, Sequencer_specific, 4, 5, 15, 15, 2
6, 333120, Note_on_c, 2, 47, 89
6, 333120, Sequencer_specific, 4, 5, 15, 15, 2
6, 333600, Note_off_c, 2, 47, 0
6, 333600, Note_off_c, 2, 54, 0
6, 333600, Note_on_c, 2, 54, 89
6, 333600, Sequencer_specific, 4, 5, 15, 15, 2
6, 333600, Note_on_c, 2, 47, 89
6, 333600, Sequencer_specific, 4, 5, 15, 15, 2
6, 334080, Note_off_c, 2, 47, 0
6, 334080, Note_off_c, 2, 54, 0
6, 334080, Note_on_c, 2, 47, 89
6, 334080, Note_on_c, 2, 40, 89
6, 334560, Note_off_c, 2, 40, 0
6, 334560, Note_off_c, 2, 47, 0
6, 334560, Note_on_c, 2, 47, 89
6, 334560, Note_on_c, 2, 40, 89
6, 334560, Sequencer_specific, 5, 5, 15, 15, 0, 2
6, 335040, Note_off_c, 2, 40, 0
6, 335040, Note_off_c, 2, 47, 0
6, 335040, Note_on_c, 2, 47, 89
6, 335040, Note_on_c, 2, 40, 89
6, 335520, Note_off_c, 2, 40, 0
6, 335520, Note_off_c, 2, 47, 0
6, 335520, Note_on_c, 2, 47, 89
6, 335520, Note_on_c, 2, 40, 89
6, 336000, Note_off_c, 2, 40, 0
6, 336000, Note_off_c, 2, 47, 0
6, 336000, Note_on_c, 2, 47, 89
6, 336000, Note_on_c, 2, 40, 89
6, 336480, Note_off_c, 2, 40, 0
6, 336480, Note_off_c, 2, 47, 0
6, 336480, Note_on_c, 2, 47, 89
6, 336480, Note_on_c, 2, 40, 89
6, 336480, Sequencer_specific, 5, 5, 15, 15, 0, 2
6, 336960, Note_off_c, 2, 40, 0
6, 336960, Note_off_c, 2, 47, 0
6, 336960, Note_on_c, 2, 47, 89
6, 336960, Note_on_c, 2, 40, 89
6, 337440, Note_off_c, 2, 40, 0
6, 337440, Note_off_c, 2, 47, 0
6, 337440, Note_on_c, 2, 52, 89
6, 337440, Note_on_c, 2, 45, 89
6, 337920, Note_off_c, 2, 45, 0
6, 337920, Note_off_c, 2, 52, 0
6, 338400, Note_on_c, 2, 52, 89
6, 338400, Note_on_c, 2, 45, 89
6, 338880, Note_off_c, 2, 45, 0
6, 338880, Note_off_c, 2, 52, 0
6, 339360, Note_on_c, 2, 52, 89
6, 339360, Note_on_c, 2, 45, 89
6, 339840, Note_off_c, 2, 45, 0
6, 339840, Note_off_c, 2, 52, 0
6, 339840, Note_on_c, 2, 52, 89
6, 339840, Note_on_c, 2, 45, 89
6, 340800, Note_off_c, 2, 45, 0
6, 340800, Note_off_c, 2, 52, 0
6, 340800, Note_on_c, 2, 52, 89
6, 340800, Note_on_c, 2, 45, 89
6, 341760, Note_off_c, 2, 45, 0
6, 341760, Note_off_c, 2, 52, 0
6, 341760, Note_on_c, 2, 55, 89
6, 341760, Sequencer_specific, 4, 5, 15, 15, 2
6, 341760, Note_on_c, 2, 48, 89
6, 341760, Sequencer_specific, 4, 5, 15, 15, 2
6, 342240, Note_off_c, 2, 48, 0
6, 342240, Note_off_c, 2, 55, 0
6, 342240, Note_on_c, 2, 55, 89
6, 342240, Sequencer_specific, 5, 5, 15, 15, 2, 2
6, 342240, Note_on_c, 2, 48, 89
6, 342240, Sequencer_specific, 4, 5, 15, 15, 2
6, 342720, Note_off_c, 2, 48, 0
6, 342720, Note_off_c, 2, 55, 0
6, 342720, Note_on_c, 2, 55, 89
6, 342720, Sequencer_specific, 4, 5, 15, 15, 2
6, 342720, Note_on_c, 2, 48, 89
6, 342720, Sequencer_specific, 4, 5, 15, 15, 2
6, 343200, Note_off_c, 2, 48, 0
6, 343200, Note_off_c, 2, 55, 0
6, 343200, Note_on_c, 2, 55, 89
6, 343200, Sequencer_specific, 4, 5, 15, 15, 2
6, 343200, Note_on_c, 2, 48, 89
6, 343200, Sequencer_specific, 4, 5, 15, 15, 2
6, 343680, Note_off_c, 2, 48, 0
6, 343680, Note_off_c, 2, 55, 0
6, 343680, Note_on_c, 2, 55, 89
6, 343680, Sequencer_specific, 4, 5, 15, 15, 2
6, 343680, Note_on_c, 2, 48, 89
6, 343680, Sequencer_specific, 4, 5, 15, 15, 2
6, 344160, Note_off_c, 2, 48, 0
6, 344160, Note_off_c, 2, 55, 0
6, 344160, Note_on_c, 2, 55, 89
6, 344160, Sequencer_specific, 5, 5, 15, 15, 2, 2
6, 344160, Note_on_c, 2, 48, 89
6, 344160, Sequencer_specific, 4, 5, 15, 15, 2
6, 344640, Note_off_c, 2, 48, 0
6, 344640, Note_off_c, 2, 55, 0
6, 344640, Note_on_c, 2, 55, 89
6, 344640, Sequencer_specific, 4, 5, 15, 15, 2
6, 344640, Note_on_c, 2, 48, 89
6, 344640, Sequencer_specific, 4, 5, 15, 15, 2
6, 345120, Note_off_c, 2, 48, 0
6, 345120, Note_off_c, 2, 55, 0
6, 345120, Note_on_c, 2, 55, 89
6, 345120, Sequencer_specific, 4, 5, 15, 15, 2
6, 345120, Note_on_c, 2, 48, 89
6, 345120, Sequencer_specific, 4, 5, 15, 15, 2
6, 345600, Note_off_c, 2, 48, 0
6, 345600, Note_off_c, 2, 55, 0
6, 345600, Note_on_c, 2, 54, 89
6, 345600, Sequencer_specific, 4, 5, 15, 15, 2
6, 345600, Note_on_c, 2, 47, 89
6, 345600, Sequencer_specific, 4, 5, 15, 15, 2
6, 346080, Note_off_c, 2, 47, 0
6, 346080, Note_off_c, 2, 54, 0
6, 346080, Note_on_c, 2, 54, 89
6, 346080, Sequencer_specific, 5, 5, 15, 15, 2, 2
6, 346080, Note_on_c, 2, 47, 89
6, 346080, Sequencer_specific, 4, 5, 15, 15, 2
6, 346560, Note_off_c, 2, 47, 0
6, 346560, Note_off_c, 2, 54, 0
6, 346560, Note_on_c, 2, 54, 89
6, 346560, Sequencer_specific, 4, 5, 15, 15, 2
6, 346560, Note_on_c, 2, 47, 89
6, 346560, Sequencer_specific, 4, 5, 15, 15, 2
6, 347040, Note_off_c, 2, 47, 0
6, 347040, Note_off_c, 2, 54, 0
6, 347040, Note_on_c, 2, 54, 89
6, 347040, Sequencer_specific, 4, 5, 15, 15, 2
6, 347040, Note_on_c, 2, 47, 89
6, 347040, Sequencer_specific, 4, 5, 15, 15, 2
6, 347520, Note_off_c, 2, 47, 0
6, 347520, Note_off_c, 2, 54, 0
6, 347520, Note_on_c, 2, 54, 89
6, 347520, Sequencer_specific, 4, 5, 15, 15, 2
6, 347520, Note_on_c, 2, 47, 89
6, 347520, Sequencer_specific, 4, 5, 15, 15, 2
6, 348000, Note_off_c, 2, 47, 0
6, 348000, Note_off_c, 2, 54, 0
6, 348000, Note_on_c, 2, 54, 89
6, 348000, Sequencer_specific, 5, 5, 15, 15, 2, 2
6, 348000, Note_on_c, 2, 47, 89
6, 348000, Sequencer_specific, 4, 5, 15, 15, 2
6, 348480, Note_off_c, 2, 47, 0
6, 348480, Note_off_c, 2, 54, 0
6, 348480, Note_on_c, 2, 54, 89
6, 348480, Sequencer_specific, 4, 5, 15, 15, 2
6, 348480, Note_on_c, 2, 47, 89
6, 348480, Sequencer_specific, 4, 5, 15, 15, 2
6, 348960, Note_off_c, 2, 47, 0
6, 348960, Note_off_c, 2, 54, 0
6, 348960, Note_on_c, 2, 54, 89
6, 348960, Sequencer_specific, 4, 5, 15, 15, 2
6, 348960, Note_on_c, 2, 47, 89
6, 348960, Sequencer_specific, 4, 5, 15, 15, 2
6, 349440, Note_off_c, 2, 47, 0
6, 349440, Note_off_c, 2, 54, 0
6, 349440, Note_on_c, 2, 47, 89
6, 349440, Note_on_c, 2, 40, 89
6, 349920, Note_off_c, 2, 40, 0
6, 349920, Note_off_c, 2, 47, 0
6, 349920, Note_on_c, 2, 47, 89
6, 349920, Note_on_c, 2, 40, 89
6, 349920, Sequencer_specific, 5, 5, 15, 15, 0, 2
6, 350400, Note_off_c, 2, 40, 0
6, 350400, Note_off_c, 2, 47, 0
6, 350400, Note_on_c, 2, 47, 89
6, 350400, Note_on_c, 2, 40, 89
6, 350880, Note_off_c, 2, 40, 0
6, 350880, Note_off_c, 2, 47, 0
6, 350880, Note_on_c, 2, 47, 89
6, 350880, Note_on_c, 2, 40, 89
6, 351360, Note_off_c, 2, 40, 0
6, 351360, Note_off_c, 2, 47, 0
6, 351360, Note_on_c, 2, 47, 89
6, 351360, Note_on_c, 2, 40, 89
6, 351840, Note_off_c, 2, 40, 0
6, 351840, Note_off_c, 2, 47, 0
6, 351840, Note_on_c, 2, 47, 89
6, 351840, Note_on_c, 2, 40, 89
6, 351840, Sequencer_specific, 5, 5, 15, 15, 0, 2
6, 352320, Note_off_c, 2, 40, 0
6, 352320, Note_off_c, 2, 47, 0
6, 352320, Note_on_c, 2, 47, 89
6, 352320, Note_on_c, 2, 40, 89
6, 352800, Note_off_c, 2, 40, 0
6, 352800, Note_off_c, 2, 47, 0
6, 352800, Note_on_c, 2, 52, 89
6, 352800, Note_on_c, 2, 45, 89
6, 353280, Note_off_c, 2, 45, 0
6, 353280, Note_off_c, 2, 52, 0
6, 353760, Note_on_c, 2, 52, 89
6, 353760, Note_on_c, 2, 45, 89
6, 354240, Note_off_c, 2, 45, 0
6, 354240, Note_off_c, 2, 52, 0
6, 354720, Note_on_c, 2, 52, 89
6, 354720, Note_on_c, 2, 45, 89
6, 355200, Note_off_c, 2, 45, 0
6, 355200, Note_off_c, 2, 52, 0
6, 355200, Note_on_c, 2, 52, 89
6, 355200, Note_on_c, 2, 45, 89
6, 356160, Note_off_c, 2, 45, 0
6, 356160, Note_off_c, 2, 52, 0
6, 356160, Note_on_c, 2, 52, 89
6, 356160, Note_on_c, 2, 45, 89
6, 357120, Note_off_c, 2, 45, 0
6, 357120, Note_off_c, 2, 52, 0
6, 357120, Note_on_c, 2, 55, 89
6, 357120, Sequencer_specific, 4, 5, 15, 15, 2
6, 357120, Note_on_c, 2, 48, 89
6, 357120, Sequencer_specific, 4, 5, 15, 15, 2
6, 357600, Note_off_c, 2, 48, 0
6, 357600, Note_off_c, 2, 55, 0
6, 357600, Note_on_c, 2, 55, 89
6, 357600, Sequencer_specific, 5, 5, 15, 15, 2, 2
6, 357600, Note_on_c, 2, 48, 89
6, 357600, Sequencer_specific, 4, 5, 15, 15, 2
6, 358080, Note_off_c, 2, 48, 0
6, 358080, Note_off_c, 2, 55, 0
6, 358080, Note_on_c, 2, 55, 89
6, 358080, Sequencer_specific, 4, 5, 15, 15, 2
6, 358080, Note_on_c, 2, 48, 89
6, 358080, Sequencer_specific, 4, 5, 15, 15, 2
6, 358560, Note_off_c, 2, 48, 0
6, 358560, Note_off_c, 2, 55, 0
6, 358560, Note_on_c, 2, 55, 89
6, 358560, Sequencer_specific, 4, 5, 15, 15, 2
6, 358560, Note_on_c, 2, 48, 89
6, 358560, Sequencer_specific, 4, 5, 15, 15, 2
6, 359040, Note_off_c, 2, 48, 0
6, 359040, Note_off_c, 2, 55, 0
6, 359040, Note_on_c, 2, 55, 89
6, 359040, Sequencer_specific, 4, 5, 15, 15, 2
6, 359040, Note_on_c, 2, 48, 89
6, 359040, Sequencer_specific, 4, 5, 15, 15, 2
6, 359520, Note_off_c, 2, 48, 0
6, 359520, Note_off_c, 2, 55, 0
6, 359520, Note_on_c, 2, 55, 89
6, 359520, Sequencer_specific, 5, 5, 15, 15, 2, 2
6, 359520, Note_on_c, 2, 48, 89
6, 359520, Sequencer_specific, 4, 5, 15, 15, 2
6, 360000, Note_off_c, 2, 48, 0
6, 360000, Note_off_c, 2, 55, 0
6, 360000, Note_on_c, 2, 55, 89
6, 360000, Sequencer_specific, 4, 5, 15, 15, 2
6, 360000, Note_on_c, 2, 48, 89
6, 360000, Sequencer_specific, 4, 5, 15, 15, 2
6, 360480, Note_off_c, 2, 48, 0
6, 360480, Note_off_c, 2, 55, 0
6, 360480, Note_on_c, 2, 55, 89
6, 360480, Sequencer_specific, 4, 5, 15, 15, 2
6, 360480, Note_on_c, 2, 48, 89
6, 360480, Sequencer_specific, 4, 5, 15, 15, 2
6, 360960, Note_off_c, 2, 48, 0
6, 360960, Note_off_c, 2, 55, 0
6, 360960, Note_on_c, 2, 54, 89
6, 360960, Sequencer_specific, 4, 5, 15, 15, 2
6, 360960, Note_on_c, 2, 47, 89
6, 360960, Sequencer_specific, 4, 5, 15, 15, 2
6, 361440, Note_off_c, 2, 47, 0
6, 361440, Note_off_c, 2, 54, 0
6, 361440, Note_on_c, 2, 54, 89
6, 361440, Sequencer_specific, 5, 5, 15, 15, 2, 2
6, 361440, Note_on_c, 2, 47, 89
6, 361440, Sequencer_specific, 4, 5, 15, 15, 2
6, 361920, Note_off_c, 2, 47, 0
6, 361920, Note_off_c, 2, 54, 0
6, 361920, Note_on_c, 2, 54, 89
6, 361920, Sequencer_specific, 4, 5, 15, 15, 2
6, 361920, Note_on_c, 2, 47, 89
6, 361920, Sequencer_specific, 4, 5, 15, 15, 2
6, 362400, Note_off_c, 2, 47, 0
6, 362400, Note_off_c, 2, 54, 0
6, 362400, Note_on_c, 2, 54, 89
6, 362400, Sequencer_specific, 4, 5, 15, 15, 2
6, 362400, Note_on_c, 2, 47, 89
6, 362400, Sequencer_specific, 4, 5, 15, 15, 2
6, 362880, Note_off_c, 2, 47, 0
6, 362880, Note_off_c, 2, 54, 0
6, 362880, Note_on_c, 2, 54, 89
6, 362880, Sequencer_specific, 4, 5, 15, 15, 2
6, 362880, Note_on_c, 2, 47, 89
6, 362880, Sequencer_specific, 4, 5, 15, 15, 2
6, 363360, Note_off_c, 2, 47, 0
6, 363360, Note_off_c, 2, 54, 0
6, 363360, Note_on_c, 2, 54, 89
6, 363360, Sequencer_specific, 5, 5, 15, 15, 2, 2
6, 363360, Note_on_c, 2, 47, 89
6, 363360, Sequencer_specific, 4, 5, 15, 15, 2
6, 363840, Note_off_c, 2, 47, 0
6, 363840, Note_off_c, 2, 54, 0
6, 363840, Note_on_c, 2, 54, 89
6, 363840, Sequencer_specific, 4, 5, 15, 15, 2
6, 363840, Note_on_c, 2, 47, 89
6, 363840, Sequencer_specific, 4, 5, 15, 15, 2
6, 364320, Note_off_c, 2, 47, 0
6, 364320, Note_off_c, 2, 54, 0
6, 364320, Note_on_c, 2, 54, 89
6, 364320, Sequencer_specific, 4, 5, 15, 15, 2
6, 364320, Note_on_c, 2, 47, 89
6, 364320, Sequencer_specific, 4, 5, 15, 15, 2
6, 364800, Note_off_c, 2, 47, 0
6, 364800, Note_off_c, 2, 54, 0
6, 364800, Note_on_c, 2, 47, 89
6, 364800, Note_on_c, 2, 40, 89
6, 365280, Note_off_c, 2, 40, 0
6, 365280, Note_off_c, 2, 47, 0
6, 365280, Note_on_c, 2, 47, 89
6, 365280, Note_on_c, 2, 40, 89
6, 365280, Sequencer_specific, 5, 5, 15, 15, 0, 2
6, 365760, Note_off_c, 2, 40, 0
6, 365760, Note_off_c, 2, 47, 0
6, 365760, Note_on_c, 2, 47, 89
6, 365760, Note_on_c, 2, 40, 89
6, 366240, Note_off_c, 2, 40, 0
6, 366240, Note_off_c, 2, 47, 0
6, 366240, Note_on_c, 2, 47, 89
6, 366240, Note_on_c, 2, 40, 89
6, 366720, Note_off_c, 2, 40, 0
6, 366720, Note_off_c, 2, 47, 0
6, 366720, Note_on_c, 2, 47, 89
6, 366720, Note_on_c, 2, 40, 89
6, 367200, Note_off_c, 2, 40, 0
6, 367200, Note_off_c, 2, 47, 0
6, 367200, Note_on_c, 2, 47, 89
6, 367200, Note_on_c, 2, 40, 89
6, 367200, Sequencer_specific, 5, 5, 15, 15, 0, 2
6, 367680, Note_off_c, 2, 40, 0
6, 367680, Note_off_c, 2, 47, 0
6, 367680, Note_on_c, 2, 47, 89
6, 367680, Note_on_c, 2, 40, 89
6, 368160, Note_off_c, 2, 40, 0
6, 368160, Note_off_c, 2, 47, 0
6, 368160, Note_on_c, 2, 52, 89
6, 368160, Note_on_c, 2, 45, 89
6, 368640, Note_off_c, 2, 45, 0
6, 368640, Note_off_c, 2, 52, 0
6, 369120, Note_on_c, 2, 52, 89
6, 369120, Note_on_c, 2, 45, 89
6, 369600, Note_off_c, 2, 45, 0
6, 369600, Note_off_c, 2, 52, 0
6, 370080, Note_on_c, 2, 52, 89
6, 370080, Note_on_c, 2, 45, 89
6, 370560, Note_off_c, 2, 45, 0
6, 370560, Note_off_c, 2, 52, 0
6, 370560, Note_on_c, 2, 52, 89
6, 370560, Note_on_c, 2, 45, 89
6, 371520, Note_off_c, 2, 45, 0
6, 371520, Note_off_c, 2, 52, 0
6, 371520, Note_on_c, 2, 52, 89
6, 371520, Note_on_c, 2, 45, 89
6, 372480, Note_off_c, 2, 45, 0
6, 372480, Note_off_c, 2, 52, 0
6, 372480, Note_on_c, 2, 55, 89
6, 372480, Sequencer_specific, 4, 5, 15, 15, 2
6, 372480, Note_on_c, 2, 48, 89
6, 372480, Sequencer_specific, 4, 5, 15, 15, 2
6, 373440, Note_off_c, 2, 48, 0
6, 373440, Note_off_c, 2, 55, 0
6, 373440, Note_on_c, 2, 55, 89
6, 373440, Sequencer_specific, 4, 5, 15, 15, 2
6, 373440, Note_on_c, 2, 48, 89
6, 373440, Sequencer_specific, 4, 5, 15, 15, 2
6, 374400, Note_off_c, 2, 48, 0
6, 374400, Note_off_c, 2, 55, 0
6, 374400, Note_on_c, 2, 55, 89
6, 374400, Sequencer_specific, 4, 5, 15, 15, 2
6, 374400, Note_on_c, 2, 48, 89
6, 374400, Sequencer_specific, 4, 5, 15, 15, 2
6, 375360, Note_off_c, 2, 48, 0
6, 375360, Note_off_c, 2, 55, 0
6, 375360, Note_on_c, 2, 55, 89
6, 375360, Sequencer_specific, 4, 5, 15, 15, 2
6, 375360, Note_on_c, 2, 48, 89
6, 375360, Sequencer_specific, 4, 5, 15, 15, 2
6, 376320, Note_off_c, 2, 48, 0
6, 376320, Note_off_c, 2, 55, 0
6, 376320, Note_on_c, 2, 54, 89
6, 376320, Sequencer_specific, 4, 5, 15, 15, 2
6, 376320, Note_on_c, 2, 47, 89
6, 376320, Sequencer_specific, 4, 5, 15, 15, 2
6, 377280, Note_off_c, 2, 47, 0
6, 377280, Note_off_c, 2, 54, 0
6, 378720, Note_on_c, 2, 35, 89
6, 379200, Note_off_c, 2, 35, 0
6, 379200, Note_on_c, 2, 38, 89
6, 379680, Note_off_c, 2, 38, 0
6, 379680, Note_on_c, 2, 39, 89
6, 380160, Note_off_c, 2, 39, 0
6, 380160, Sequencer_specific, 3, 5, 15, 10
6, 380160, Note_on_c, 2, 40, 89
6, 381120, Note_off_c, 2, 40, 0
6, 381120, End_track
7, 0, Start_track
7, 0, Sequencer_specific, 5, 5, 15, 9, 12, 64
7, 0, Control_c, 3, 10, 0
7, 0, Title_t, "From The Album ""Doo-Wops & Hooligans"""
7, 0, Program_c, 3, 73
7, 0, Sequencer_specific, 15, 5, 15, 6, 71, 101, 110, 101, 114, 97, 108, 32, 77, 73, 68, 73
7, 0, Key_signature, 1, "minor"
7, 0, Sequencer_specific, 4, 5, 15, 10, 1
7, 3840, Sequencer_specific, 3, 5, 15, 10
7, 6240, Note_on_c, 3, 71, 1
7, 7200, Note_off_c, 3, 71, 0
7, 7200, Note_on_c, 3, 71, 1
7, 7680, Sequencer_specific, 6, 5, 15, 13, 71, 1, 3
7, 8640, Note_off_c, 3, 71, 0
7, 11040, Note_on_c, 3, 71, 1
7, 11280, Note_off_c, 3, 71, 0
7, 11280, Note_on_c, 3, 71, 1
7, 11520, Note_off_c, 3, 71, 0
7, 11520, Note_on_c, 3, 71, 1
7, 15360, Note_off_c, 3, 71, 0
7, 17760, Note_on_c, 3, 76, 89
7, 18240, Note_off_c, 3, 76, 0
7, 18240, Note_on_c, 3, 79, 89
7, 18720, Note_off_c, 3, 79, 0
7, 18720, Note_on_c, 3, 76, 89
7, 19200, Note_off_c, 3, 76, 0
7, 19200, Note_on_c, 3, 79, 89
7, 20160, Note_off_c, 3, 79, 0
7, 20160, Note_on_c, 3, 79, 89
7, 20640, Note_off_c, 3, 79, 0
7, 20640, Note_on_c, 3, 76, 89
7, 21120, Note_off_c, 3, 76, 0
7, 21120, Note_on_c, 3, 79, 89
7, 22080, Note_off_c, 3, 79, 0
7, 22080, Note_on_c, 3, 79, 89
7, 23040, Note_off_c, 3, 79, 0
7, 23040, Note_on_c, 3, 79, 89
7, 23520, Note_off_c, 3, 79, 0
7, 23520, Note_on_c, 3, 79, 89
7, 23520, Sequencer_specific, 5, 5, 15, 15, 0, 2
7, 24000, Note_off_c, 3, 79, 0
7, 24000, Note_on_c, 3, 79, 89
7, 24480, Note_off_c, 3, 79, 0
7, 24480, Note_on_c, 3, 74, 89
7, 24960, Sequencer_specific, 6, 5, 15, 13, 74, 89, 3
7, 25920, Note_off_c, 3, 74, 0
7, 26400, Note_on_c, 3, 76, 89
7, 26880, Note_off_c, 3, 76, 0
7, 26880, Note_on_c, 3, 79, 89
7, 27360, Note_off_c, 3, 79, 0
7, 27360, Note_on_c, 3, 79, 89
7, 27360, Sequencer_specific, 5, 5, 15, 15, 0, 2
7, 27840, Note_off_c, 3, 79, 0
7, 27840, Note_on_c, 3, 79, 89
7, 28320, Note_off_c, 3, 79, 0
7, 28320, Note_on_c, 3, 76, 89
7, 28800, Note_off_c, 3, 76, 0
7, 28800, Note_on_c, 3, 79, 89
7, 29760, Note_off_c, 3, 79, 0
7, 29760, Note_on_c, 3, 79, 89
7, 30240, Note_off_c, 3, 79, 0
7, 30240, Note_on_c, 3, 76, 89
7, 30720, Note_off_c, 3, 76, 0
7, 30720, Note_on_c, 3, 79, 89
7, 31200, Note_off_c, 3, 79, 0
7, 31200, Note_on_c, 3, 79, 89
7, 31200, Sequencer_specific, 5, 5, 15, 15, 0, 2
7, 31680, Note_off_c, 3, 79, 0
7, 31680, Note_on_c, 3, 79, 89
7, 32160, Note_off_c, 3, 79, 0
7, 32160, Note_on_c, 3, 74, 89
7, 32640, Sequencer_specific, 6, 5, 15, 13, 74, 89, 3
7, 33600, Note_off_c, 3, 74, 0
7, 34080, Note_on_c, 3, 76, 89
7, 34560, Note_off_c, 3, 76, 0
7, 34560, Note_on_c, 3, 79, 89
7, 35040, Note_off_c, 3, 79, 0
7, 35040, Note_on_c, 3, 79, 89
7, 35040, Sequencer_specific, 5, 5, 15, 15, 0, 2
7, 35520, Note_off_c, 3, 79, 0
7, 35520, Note_on_c, 3, 79, 89
7, 36000, Note_off_c, 3, 79, 0
7, 36000, Note_on_c, 3, 76, 89
7, 36480, Note_off_c, 3, 76, 0
7, 36480, Note_on_c, 3, 79, 89
7, 36960, Note_off_c, 3, 79, 0
7, 36960, Note_on_c, 3, 79, 89
7, 36960, Sequencer_specific, 5, 5, 15, 15, 0, 2
7, 37440, Note_off_c, 3, 79, 0
7, 37440, Note_on_c, 3, 79, 89
7, 37920, Note_off_c, 3, 79, 0
7, 37920, Note_on_c, 3, 76, 89
7, 38400, Note_off_c, 3, 76, 0
7, 38400, Note_on_c, 3, 79, 89
7, 38880, Note_off_c, 3, 79, 0
7, 38880, Note_on_c, 3, 79, 89
7, 38880, Sequencer_specific, 5, 5, 15, 15, 0, 2
7, 39360, Note_off_c, 3, 79, 0
7, 39360, Note_on_c, 3, 76, 89
7, 39840, Note_off_c, 3, 76, 0
7, 39840, Note_on_c, 3, 79, 89
7, 40320, Note_off_c, 3, 79, 0
7, 40320, Note_on_c, 3, 79, 89
7, 40800, Note_off_c, 3, 79, 0
7, 40800, Note_on_c, 3, 76, 89
7, 40800, Sequencer_specific, 5, 5, 15, 15, 0, 2
7, 41280, Note_off_c, 3, 76, 0
7, 41280, Note_on_c, 3, 79, 89
7, 41760, Note_off_c, 3, 79, 0
7, 41760, Note_on_c, 3, 76, 89
7, 42240, Note_off_c, 3, 76, 0
7, 42240, Note_on_c, 3, 79, 89
7, 43200, Note_off_c, 3, 79, 0
7, 43200, Note_on_c, 3, 79, 89
7, 43680, Note_off_c, 3, 79, 0
7, 43680, Note_on_c, 3, 76, 89
7, 44160, Note_off_c, 3, 76, 0
7, 44160, Note_on_c, 3, 79, 89
7, 45120, Note_off_c, 3, 79, 0
7, 45120, Note_on_c, 3, 79, 89
7, 45600, Note_off_c, 3, 79, 0
7, 45600, Note_on_c, 3, 76, 89
7, 46080, Note_off_c, 3, 76, 0
7, 46080, Note_on_c, 3, 79, 89
7, 46560, Note_off_c, 3, 79, 0
7, 46560, Note_on_c, 3, 79, 89
7, 46560, Sequencer_specific, 5, 5, 15, 15, 0, 2
7, 47040, Note_off_c, 3, 79, 0
7, 47040, Note_on_c, 3, 76, 89
7, 47520, Note_off_c, 3, 76, 0
7, 47520, Note_on_c, 3, 79, 89
7, 48000, Note_off_c, 3, 79, 0
7, 48000, Note_on_c, 3, 74, 89
7, 48480, Note_off_c, 3, 74, 0
7, 48480, Note_on_c, 3, 71, 89
7, 48480, Sequencer_specific, 5, 5, 15, 15, 0, 2
7, 48960, Note_off_c, 3, 71, 0
7, 48960, Note_on_c, 3, 74, 89
7, 49440, Note_off_c, 3, 74, 0
7, 49440, Note_on_c, 3, 75, 89
7, 49920, Note_off_c, 3, 75, 0
7, 49920, Note_on_c, 3, 76, 89
7, 50880, Note_off_c, 3, 76, 0
7, 50880, Note_on_c, 3, 71, 1
7, 51840, Note_off_c, 3, 71, 0
7, 52320, Note_on_c, 3, 76, 89
7, 52800, Note_off_c, 3, 76, 0
7, 52800, Note_on_c, 3, 79, 89
7, 53280, Note_off_c, 3, 79, 0
7, 53280, Note_on_c, 3, 80, 89
7, 53760, Note_off_c, 3, 80, 0
7, 53760, Note_on_c, 3, 81, 89
7, 54240, Note_off_c, 3, 81, 0
7, 54240, Note_on_c, 3, 71, 1
7, 54240, Sequencer_specific, 5, 5, 15, 15, 0, 2
7, 54720, Note_off_c, 3, 71, 0
7, 54720, Note_on_c, 3, 71, 1
7, 55200, Note_off_c, 3, 71, 0
7, 55200, Note_on_c, 3, 71, 1
7, 55680, Note_off_c, 3, 71, 0
7, 55680, Note_on_c, 3, 71, 1
7, 56160, Note_off_c, 3, 71, 0
7, 56160, Note_on_c, 3, 71, 89
7, 56160, Sequencer_specific, 5, 5, 15, 15, 0, 2
7, 56640, Note_off_c, 3, 71, 0
7, 56640, Note_on_c, 3, 74, 89
7, 57120, Note_off_c, 3, 74, 0
7, 57120, Note_on_c, 3, 75, 89
7, 57600, Note_off_c, 3, 75, 0
7, 57600, Note_on_c, 3, 76, 89
7, 58080, Note_off_c, 3, 76, 0
7, 58080, Note_on_c, 3, 76, 89
7, 58080, Sequencer_specific, 5, 5, 15, 15, 0, 2
7, 58560, Note_off_c, 3, 76, 0
7, 58560, Note_on_c, 3, 76, 89
7, 59040, Note_off_c, 3, 76, 0
7, 59040, Note_on_c, 3, 76, 89
7, 59520, Note_off_c, 3, 76, 0
7, 59520, Note_on_c, 3, 76, 89
7, 60000, Note_off_c, 3, 76, 0
7, 60000, Note_on_c, 3, 76, 89
7, 60000, Sequencer_specific, 5, 5, 15, 15, 0, 2
7, 60480, Note_off_c, 3, 76, 0
7, 60480, Note_on_c, 3, 79, 89
7, 60960, Note_off_c, 3, 79, 0
7, 60960, Note_on_c, 3, 80, 89
7, 61440, Note_off_c, 3, 80, 0
7, 61440, Note_on_c, 3, 81, 89
7, 61920, Note_off_c, 3, 81, 0
7, 61920, Note_on_c, 3, 71, 1
7, 61920, Sequencer_specific, 5, 5, 15, 15, 0, 2
7, 62400, Note_off_c, 3, 71, 0
7, 62400, Note_on_c, 3, 71, 1
7, 62880, Note_off_c, 3, 71, 0
7, 62880, Note_on_c, 3, 71, 1
7, 63360, Note_off_c, 3, 71, 0
7, 63360, Note_on_c, 3, 71, 1
7, 63840, Note_off_c, 3, 71, 0
7, 63840, Note_on_c, 3, 71, 89
7, 63840, Sequencer_specific, 5, 5, 15, 15, 0, 2
7, 64320, Note_off_c, 3, 71, 0
7, 64320, Note_on_c, 3, 74, 89
7, 64800, Note_off_c, 3, 74, 0
7, 64800, Note_on_c, 3, 75, 89
7, 65280, Note_off_c, 3, 75, 0
7, 65280, Note_on_c, 3, 76, 89
7, 65760, Note_off_c, 3, 76, 0
7, 65760, Note_on_c, 3, 71, 1
7, 65760, Sequencer_specific, 5, 5, 15, 15, 0, 2
7, 66240, Note_off_c, 3, 71, 0
7, 66240, Note_on_c, 3, 71, 1
7, 66720, Note_off_c, 3, 71, 0
7, 66720, Note_on_c, 3, 71, 1
7, 67200, Note_off_c, 3, 71, 0
7, 67200, Note_on_c, 3, 71, 1
7, 67680, Note_off_c, 3, 71, 0
7, 67680, Note_on_c, 3, 71, 89
7, 67680, Sequencer_specific, 5, 5, 15, 15, 0, 2
7, 68160, Note_off_c, 3, 71, 0
7, 68160, Note_on_c, 3, 76, 89
7, 68640, Note_off_c, 3, 76, 0
7, 68640, Note_on_c, 3, 80, 89
7, 69120, Note_off_c, 3, 80, 0
7, 69120, Note_on_c, 3, 81, 89
7, 69600, Note_off_c, 3, 81, 0
7, 69600, Note_on_c, 3, 71, 1
7, 69600, Sequencer_specific, 5, 5, 15, 15, 0, 2
7, 70080, Note_off_c, 3, 71, 0
7, 70080, Note_on_c, 3, 71, 1
7, 70560, Note_off_c, 3, 71, 0
7, 70560, Note_on_c, 3, 71, 1
7, 71040, Note_off_c, 3, 71, 0
7, 71040, Note_on_c, 3, 71, 1
7, 71520, Note_off_c, 3, 71, 0
7, 71520, Note_on_c, 3, 76, 89
7, 71520, Sequencer_specific, 5, 5, 15, 15, 0, 2
7, 72000, Note_off_c, 3, 76, 0
7, 72000, Note_on_c, 3, 79, 89
7, 72480, Note_off_c, 3, 79, 0
7, 72480, Note_on_c, 3, 76, 89
7, 72960, Note_off_c, 3, 76, 0
7, 72960, Note_on_c, 3, 79, 89
7, 73920, Note_off_c, 3, 79, 0
7, 73920, Note_on_c, 3, 79, 89
7, 74400, Note_off_c, 3, 79, 0
7, 74400, Note_on_c, 3, 76, 89
7, 74880, Note_off_c, 3, 76, 0
7, 74880, Note_on_c, 3, 79, 89
7, 75840, Note_off_c, 3, 79, 0
7, 75840, Note_on_c, 3, 79, 89
7, 76800, Note_off_c, 3, 79, 0
7, 76800, Note_on_c, 3, 79, 89
7, 77280, Note_off_c, 3, 79, 0
7, 77280, Note_on_c, 3, 76, 1
7, 77280, Sequencer_specific, 5, 5, 15, 15, 0, 2
7, 77760, Note_off_c, 3, 76, 0
7, 77760, Note_on_c, 3, 79, 1
7, 78240, Note_off_c, 3, 79, 0
7, 78240, Note_on_c, 3, 76, 1
7, 78720, Note_off_c, 3, 76, 0
7, 78720, Note_on_c, 3, 79, 89
7, 79680, Note_off_c, 3, 79, 0
7, 80640, Note_on_c, 3, 83, 89
7, 81600, Note_off_c, 3, 83, 0
7, 81600, Note_on_c, 3, 83, 89
7, 82560, Note_off_c, 3, 83, 0
7, 82560, Note_on_c, 3, 83, 89
7, 83040, Note_off_c, 3, 83, 0
7, 83040, Note_on_c, 3, 83, 89
7, 83520, Note_off_c, 3, 83, 0
7, 83520, Note_on_c, 3, 83, 89
7, 84480, Note_off_c, 3, 83, 0
7, 84480, Note_on_c, 3, 83, 89
7, 84960, Note_off_c, 3, 83, 0
7, 84960, Note_on_c, 3, 83, 89
7, 85440, Note_off_c, 3, 83, 0
7, 85440, Note_on_c, 3, 83, 89
7, 86400, Note_off_c, 3, 83, 0
7, 86400, Note_on_c, 3, 81, 89
7, 86880, Note_off_c, 3, 81, 0
7, 86880, Note_on_c, 3, 79, 89
7, 86880, Sequencer_specific, 5, 5, 15, 15, 0, 2
7, 87360, Note_off_c, 3, 79, 0
7, 87360, Note_on_c, 3, 76, 89
7, 87840, Note_off_c, 3, 76, 0
7, 87840, Note_on_c, 3, 76, 89
7, 88320, Note_off_c, 3, 76, 0
7, 88320, Note_on_c, 3, 83, 89
7, 88800, Note_off_c, 3, 83, 0
7, 88800, Note_on_c, 3, 83, 89
7, 88800, Sequencer_specific, 5, 5, 15, 15, 0, 2
7, 89280, Note_off_c, 3, 83, 0
7, 89280, Note_on_c, 3, 83, 89
7, 89760, Note_off_c, 3, 83, 0
7, 89760, Note_on_c, 3, 83, 89
7, 90240, Note_off_c, 3, 83, 0
7, 90240, Note_on_c, 3, 81, 89
7, 90720, Note_off_c, 3, 81, 0
7, 90720, Note_on_c, 3, 79, 89
7, 90720, Sequencer_specific, 5, 5, 15, 15, 0, 2
7, 91200, Note_off_c, 3, 79, 0
7, 91200, Note_on_c, 3, 83, 89
7, 91680, Note_off_c, 3, 83, 0
7, 91680, Note_on_c, 3, 81, 89
7, 92160, Sequencer_specific, 6, 5, 15, 13, 81, 89, 3
7, 94080, Note_off_c, 3, 81, 0
7, 94560, Note_on_c, 3, 76, 89
7, 95040, Note_off_c, 3, 76, 0
7, 95040, Note_on_c, 3, 79, 89
7, 95520, Note_off_c, 3, 79, 0
7, 95520, Note_on_c, 3, 81, 89
7, 96000, Note_off_c, 3, 81, 0
7, 96000, Note_on_c, 3, 83, 89
7, 96960, Note_off_c, 3, 83, 0
7, 96960, Note_on_c, 3, 83, 89
7, 97920, Note_off_c, 3, 83, 0
7, 97920, Note_on_c, 3, 83, 89
7, 98400, Note_off_c, 3, 83, 0
7, 98400, Note_on_c, 3, 83, 89
7, 98880, Note_off_c, 3, 83, 0
7, 98880, Note_on_c, 3, 83, 89
7, 99840, Note_off_c, 3, 83, 0
7, 99840, Note_on_c, 3, 83, 89
7, 100320, Note_off_c, 3, 83, 0
7, 100320, Note_on_c, 3, 83, 89
7, 100800, Note_off_c, 3, 83, 0
7, 100800, Note_on_c, 3, 83, 89
7, 101760, Note_off_c, 3, 83, 0
7, 101760, Note_on_c, 3, 81, 89
7, 102240, Note_off_c, 3, 81, 0
7, 102240, Note_on_c, 3, 79, 89
7, 102240, Sequencer_specific, 5, 5, 15, 15, 0, 2
7, 102720, Note_off_c, 3, 79, 0
7, 102720, Note_on_c, 3, 76, 89
7, 103200, Note_off_c, 3, 76, 0
7, 103200, Note_on_c, 3, 76, 89
7, 103680, Note_off_c, 3, 76, 0
7, 103680, Note_on_c, 3, 83, 89
7, 104160, Note_off_c, 3, 83, 0
7, 104160, Note_on_c, 3, 83, 89
7, 104160, Sequencer_specific, 5, 5, 15, 15, 0, 2
7, 104640, Note_off_c, 3, 83, 0
7, 104640, Note_on_c, 3, 83, 89
7, 105120, Note_off_c, 3, 83, 0
7, 105120, Note_on_c, 3, 83, 89
7, 105600, Note_off_c, 3, 83, 0
7, 105600, Note_on_c, 3, 81, 89
7, 106080, Note_off_c, 3, 81, 0
7, 106080, Note_on_c, 3, 79, 89
7, 106080, Sequencer_specific, 5, 5, 15, 15, 0, 2
7, 106560, Note_off_c, 3, 79, 0
7, 106560, Note_on_c, 3, 83, 89
7, 107040, Note_off_c, 3, 83, 0
7, 107040, Note_on_c, 3, 81, 89
7, 107520, Sequencer_specific, 6, 5, 15, 13, 81, 89, 3
7, 108480, Note_off_c, 3, 81, 0
7, 108960, Note_on_c, 3, 76, 89
7, 109440, Note_off_c, 3, 76, 0
7, 109440, Note_on_c, 3, 79, 89
7, 109920, Note_off_c, 3, 79, 0
7, 109920, Note_on_c, 3, 81, 89
7, 109920, Sequencer_specific, 5, 5, 15, 15, 0, 2
7, 110400, Note_off_c, 3, 81, 0
7, 110400, Note_on_c, 3, 79, 89
7, 110880, Note_off_c, 3, 79, 0
7, 110880, Note_on_c, 3, 83, 89
7, 111360, Sequencer_specific, 6, 5, 15, 13, 83, 89, 3
7, 112800, Note_off_c, 3, 83, 0
7, 112800, Note_on_c, 3, 83, 89
7, 113280, Note_off_c, 3, 83, 0
7, 113280, Note_on_c, 3, 83, 89
7, 113760, Note_off_c, 3, 83, 0
7, 113760, Note_on_c, 3, 81, 89
7, 113760, Sequencer_specific, 5, 5, 15, 15, 0, 2
7, 114240, Note_off_c, 3, 81, 0
7, 114240, Note_on_c, 3, 79, 89
7, 114720, Note_off_c, 3, 79, 0
7, 114720, Note_on_c, 3, 81, 89
7, 115200, Sequencer_specific, 6, 5, 15, 13, 81, 89, 3
7, 116640, Note_off_c, 3, 81, 0
7, 117120, Note_on_c, 3, 79, 89
7, 117600, Note_off_c, 3, 79, 0
7, 117600, Note_on_c, 3, 81, 89
7, 117600, Sequencer_specific, 5, 5, 15, 15, 0, 2
7, 118080, Note_off_c, 3, 81, 0
7, 118080, Note_on_c, 3, 79, 89
7, 118560, Note_off_c, 3, 79, 0
7, 118560, Note_on_c, 3, 83, 89
7, 119040, Sequencer_specific, 6, 5, 15, 13, 83, 89, 3
7, 119520, Note_off_c, 3, 83, 0
7, 119520, Note_on_c, 3, 83, 89
7, 120480, Note_off_c, 3, 83, 0
7, 120480, Note_on_c, 3, 83, 89
7, 120960, Note_off_c, 3, 83, 0
7, 120960, Note_on_c, 3, 83, 89
7, 121440, Note_off_c, 3, 83, 0
7, 121440, Note_on_c, 3, 81, 89
7, 121440, Sequencer_specific, 5, 5, 15, 15, 0, 2
7, 121920, Note_off_c, 3, 81, 0
7, 121920, Note_on_c, 3, 79, 89
7, 122400, Note_off_c, 3, 79, 0
7, 122400, Note_on_c, 3, 81, 89
7, 122880, Sequencer_specific, 6, 5, 15, 13, 81, 89, 3
7, 124320, Note_off_c, 3, 81, 0
7, 124800, Note_on_c, 3, 76, 89
7, 125280, Note_off_c, 3, 76, 0
7, 125280, Note_on_c, 3, 78, 89
7, 125280, Sequencer_specific, 5, 5, 15, 15, 0, 2
7, 125760, Note_off_c, 3, 78, 0
7, 125760, Note_on_c, 3, 79, 89
7, 126240, Note_off_c, 3, 79, 0
7, 126240, Note_on_c, 3, 81, 89
7, 126720, Note_off_c, 3, 81, 0
7, 126720, Note_on_c, 3, 83, 89
7, 127680, Note_off_c, 3, 83, 0
7, 127680, Note_on_c, 3, 83, 89
7, 128640, Note_off_c, 3, 83, 0
7, 128640, Note_on_c, 3, 83, 89
7, 129120, Note_off_c, 3, 83, 0
7, 129120, Note_on_c, 3, 83, 89
7, 129600, Note_off_c, 3, 83, 0
7, 129600, Note_on_c, 3, 83, 89
7, 130560, Note_off_c, 3, 83, 0
7, 130560, Note_on_c, 3, 83, 89
7, 131040, Note_off_c, 3, 83, 0
7, 131040, Note_on_c, 3, 83, 89
7, 131520, Note_off_c, 3, 83, 0
7, 131520, Note_on_c, 3, 83, 89
7, 132480, Note_off_c, 3, 83, 0
7, 132480, Note_on_c, 3, 81, 89
7, 132960, Note_off_c, 3, 81, 0
7, 132960, Note_on_c, 3, 79, 89
7, 133440, Note_off_c, 3, 79, 0
7, 133440, Note_on_c, 3, 76, 89
7, 134400, Note_off_c, 3, 76, 0
7, 139680, Note_on_c, 3, 74, 1
7, 139680, Sequencer_specific, 4, 5, 15, 15, 1
7, 140160, Sequencer_specific, 6, 5, 15, 13, 74, 1, 3
7, 140160, Sequencer_specific, 4, 5, 15, 15, 1
7, 141120, Note_off_c, 3, 74, 0
7, 144480, Note_on_c, 3, 71, 1
7, 144480, Sequencer_specific, 4, 5, 15, 15, 2
7, 145440, Note_off_c, 3, 71, 0
7, 145440, Note_on_c, 3, 71, 1
7, 145440, Sequencer_specific, 4, 5, 15, 15, 2
7, 145920, Note_off_c, 3, 71, 0
7, 145920, Note_on_c, 3, 71, 1
7, 146880, Note_off_c, 3, 71, 0
7, 148320, Note_on_c, 3, 76, 89
7, 148800, Note_off_c, 3, 76, 0
7, 148800, Note_on_c, 3, 79, 89
7, 149280, Note_off_c, 3, 79, 0
7, 149280, Note_on_c, 3, 76, 89
7, 149760, Note_off_c, 3, 76, 0
7, 149760, Note_on_c, 3, 79, 89
7, 150720, Note_off_c, 3, 79, 0
7, 150720, Note_on_c, 3, 79, 89
7, 151200, Note_off_c, 3, 79, 0
7, 151200, Note_on_c, 3, 76, 89
7, 151680, Note_off_c, 3, 76, 0
7, 151680, Note_on_c, 3, 79, 89
7, 152640, Note_off_c, 3, 79, 0
7, 152640, Note_on_c, 3, 79, 89
7, 153600, Note_off_c, 3, 79, 0
7, 153600, Note_on_c, 3, 79, 89
7, 154080, Note_off_c, 3, 79, 0
7, 154080, Note_on_c, 3, 79, 89
7, 154080, Sequencer_specific, 5, 5, 15, 15, 0, 2
7, 154560, Note_off_c, 3, 79, 0
7, 154560, Note_on_c, 3, 79, 89
7, 155040, Note_off_c, 3, 79, 0
7, 155040, Note_on_c, 3, 74, 89
7, 155520, Sequencer_specific, 6, 5, 15, 13, 74, 89, 3
7, 156000, Note_off_c, 3, 74, 0
7, 156000, Note_on_c, 3, 79, 89
7, 156000, Sequencer_specific, 5, 5, 15, 15, 0, 2
7, 156480, Note_off_c, 3, 79, 0
7, 156480, Note_on_c, 3, 79, 89
7, 156960, Note_off_c, 3, 79, 0
7, 156960, Note_on_c, 3, 79, 89
7, 157440, Note_off_c, 3, 79, 0
7, 157440, Note_on_c, 3, 79, 89
7, 157920, Note_off_c, 3, 79, 0
7, 157920, Note_on_c, 3, 79, 89
7, 158400, Note_off_c, 3, 79, 0
7, 158400, Note_on_c, 3, 79, 89
7, 159360, Note_off_c, 3, 79, 0
7, 159360, Note_on_c, 3, 79, 89
7, 159840, Note_off_c, 3, 79, 0
7, 159840, Note_on_c, 3, 79, 89
7, 159840, Sequencer_specific, 5, 5, 15, 15, 0, 2
7, 160320, Note_off_c, 3, 79, 0
7, 160320, Note_on_c, 3, 79, 89
7, 160800, Note_off_c, 3, 79, 0
7, 160800, Note_on_c, 3, 79, 89
7, 161280, Note_off_c, 3, 79, 0
7, 161280, Note_on_c, 3, 79, 89
7, 161760, Note_off_c, 3, 79, 0
7, 161760, Note_on_c, 3, 79, 89
7, 161760, Sequencer_specific, 5, 5, 15, 15, 0, 2
7, 162240, Note_off_c, 3, 79, 0
7, 162240, Note_on_c, 3, 79, 89
7, 162720, Note_off_c, 3, 79, 0
7, 162720, Note_on_c, 3, 76, 89
7, 163200, Sequencer_specific, 6, 5, 15, 13, 76, 89, 3
7, 164160, Note_off_c, 3, 76, 0
7, 164640, Note_on_c, 3, 79, 89
7, 165120, Note_off_c, 3, 79, 0
7, 165120, Note_on_c, 3, 79, 89
7, 165600, Note_off_c, 3, 79, 0
7, 165600, Note_on_c, 3, 79, 89
7, 165600, Sequencer_specific, 5, 5, 15, 15, 0, 2
7, 166080, Note_off_c, 3, 79, 0
7, 166080, Note_on_c, 3, 79, 89
7, 166560, Note_off_c, 3, 79, 0
7, 166560, Note_on_c, 3, 79, 89
7, 167040, Note_off_c, 3, 79, 0
7, 167040, Note_on_c, 3, 79, 89
7, 167520, Note_off_c, 3, 79, 0
7, 167520, Note_on_c, 3, 79, 89
7, 167520, Sequencer_specific, 5, 5, 15, 15, 0, 2
7, 168000, Note_off_c, 3, 79, 0
7, 168000, Note_on_c, 3, 79, 89
7, 168480, Note_off_c, 3, 79, 0
7, 168480, Note_on_c, 3, 76, 89
7, 168960, Note_off_c, 3, 76, 0
7, 168960, Note_on_c, 3, 79, 89
7, 169440, Note_off_c, 3, 79, 0
7, 169440, Note_on_c, 3, 79, 89
7, 169440, Sequencer_specific, 5, 5, 15, 15, 0, 2
7, 169920, Note_off_c, 3, 79, 0
7, 169920, Note_on_c, 3, 76, 89
7, 170400, Note_off_c, 3, 76, 0
7, 170400, Note_on_c, 3, 79, 89
7, 170880, Sequencer_specific, 6, 5, 15, 13, 79, 89, 3
7, 171840, Note_off_c, 3, 79, 0
7, 172320, Note_on_c, 3, 79, 89
7, 172800, Note_off_c, 3, 79, 0
7, 172800, Note_on_c, 3, 79, 89
7, 173280, Note_off_c, 3, 79, 0
7, 173280, Note_on_c, 3, 79, 89
7, 173760, Note_off_c, 3, 79, 0
7, 173760, Note_on_c, 3, 79, 89
7, 174720, Note_off_c, 3, 79, 0
7, 174720, Note_on_c, 3, 79, 89
7, 175200, Note_off_c, 3, 79, 0
7, 175200, Note_on_c, 3, 79, 89
7, 175200, Sequencer_specific, 5, 5, 15, 15, 0, 2
7, 175680, Note_off_c, 3, 79, 0
7, 175680, Note_on_c, 3, 79, 89
7, 176160, Note_off_c, 3, 79, 0
7, 176160, Note_on_c, 3, 79, 89
7, 176640, Note_off_c, 3, 79, 0
7, 176640, Note_on_c, 3, 79, 89
7, 177120, Note_off_c, 3, 79, 0
7, 177120, Note_on_c, 3, 79, 89
7, 177120, Sequencer_specific, 5, 5, 15, 15, 0, 2
7, 177600, Note_off_c, 3, 79, 0
7, 177600, Note_on_c, 3, 79, 89
7, 178080, Note_off_c, 3, 79, 0
7, 178080, Note_on_c, 3, 79, 89
7, 178560, Note_off_c, 3, 79, 0
7, 178560, Note_on_c, 3, 79, 89
7, 179040, Note_off_c, 3, 79, 0
7, 179040, Note_on_c, 3, 71, 89
7, 179040, Sequencer_specific, 5, 5, 15, 15, 0, 2
7, 179520, Note_off_c, 3, 71, 0
7, 179520, Note_on_c, 3, 74, 89
7, 180000, Note_off_c, 3, 74, 0
7, 180000, Note_on_c, 3, 75, 89
7, 180480, Note_off_c, 3, 75, 0
7, 180480, Note_on_c, 3, 76, 89
7, 181440, Note_off_c, 3, 76, 0
7, 181440, Note_on_c, 3, 71, 1
7, 182400, Note_off_c, 3, 71, 0
7, 182880, Note_on_c, 3, 76, 89
7, 183360, Note_off_c, 3, 76, 0
7, 183360, Note_on_c, 3, 79, 89
7, 183840, Note_off_c, 3, 79, 0
7, 183840, Note_on_c, 3, 80, 89
7, 184320, Note_off_c, 3, 80, 0
7, 184320, Note_on_c, 3, 81, 89
7, 184800, Note_off_c, 3, 81, 0
7, 184800, Note_on_c, 3, 71, 1
7, 184800, Sequencer_specific, 5, 5, 15, 15, 0, 2
7, 185280, Note_off_c, 3, 71, 0
7, 185280, Note_on_c, 3, 71, 1
7, 185760, Note_off_c, 3, 71, 0
7, 185760, Note_on_c, 3, 71, 1
7, 186240, Note_off_c, 3, 71, 0
7, 186240, Note_on_c, 3, 71, 1
7, 186720, Note_off_c, 3, 71, 0
7, 186720, Note_on_c, 3, 71, 89
7, 186720, Sequencer_specific, 5, 5, 15, 15, 0, 2
7, 187200, Note_off_c, 3, 71, 0
7, 187200, Note_on_c, 3, 74, 89
7, 187680, Note_off_c, 3, 74, 0
7, 187680, Note_on_c, 3, 75, 89
7, 188160, Note_off_c, 3, 75, 0
7, 188160, Note_on_c, 3, 76, 89
7, 188640, Note_off_c, 3, 76, 0
7, 188640, Note_on_c, 3, 76, 89
7, 188640, Sequencer_specific, 5, 5, 15, 15, 0, 2
7, 189120, Note_off_c, 3, 76, 0
7, 189120, Note_on_c, 3, 76, 89
7, 189600, Note_off_c, 3, 76, 0
7, 189600, Note_on_c, 3, 76, 89
7, 190080, Note_off_c, 3, 76, 0
7, 190080, Note_on_c, 3, 76, 89
7, 190560, Note_off_c, 3, 76, 0
7, 190560, Note_on_c, 3, 76, 89
7, 190560, Sequencer_specific, 5, 5, 15, 15, 0, 2
7, 191040, Note_off_c, 3, 76, 0
7, 191040, Note_on_c, 3, 79, 89
7, 191520, Note_off_c, 3, 79, 0
7, 191520, Note_on_c, 3, 80, 89
7, 192000, Note_off_c, 3, 80, 0
7, 192000, Note_on_c, 3, 81, 89
7, 192480, Note_off_c, 3, 81, 0
7, 192480, Note_on_c, 3, 71, 1
7, 192480, Sequencer_specific, 5, 5, 15, 15, 0, 2
7, 192960, Note_off_c, 3, 71, 0
7, 192960, Note_on_c, 3, 71, 1
7, 193440, Note_off_c, 3, 71, 0
7, 193440, Note_on_c, 3, 71, 1
7, 193920, Note_off_c, 3, 71, 0
7, 193920, Note_on_c, 3, 71, 1
7, 194400, Note_off_c, 3, 71, 0
7, 194400, Note_on_c, 3, 71, 89
7, 194400, Sequencer_specific, 5, 5, 15, 15, 0, 2
7, 194880, Note_off_c, 3, 71, 0
7, 194880, Note_on_c, 3, 74, 89
7, 195360, Note_off_c, 3, 74, 0
7, 195360, Note_on_c, 3, 75, 89
7, 195840, Note_off_c, 3, 75, 0
7, 195840, Note_on_c, 3, 76, 89
7, 196320, Note_off_c, 3, 76, 0
7, 196320, Note_on_c, 3, 71, 1
7, 196320, Sequencer_specific, 5, 5, 15, 15, 0, 2
7, 196800, Note_off_c, 3, 71, 0
7, 196800, Note_on_c, 3, 71, 1
7, 197280, Note_off_c, 3, 71, 0
7, 197280, Note_on_c, 3, 71, 1
7, 197760, Note_off_c, 3, 71, 0
7, 197760, Note_on_c, 3, 71, 1
7, 198240, Note_off_c, 3, 71, 0
7, 198240, Note_on_c, 3, 71, 89
7, 198240, Sequencer_specific, 5, 5, 15, 15, 0, 2
7, 198720, Note_off_c, 3, 71, 0
7, 198720, Note_on_c, 3, 76, 89
7, 199200, Note_off_c, 3, 76, 0
7, 199200, Note_on_c, 3, 80, 89
7, 199680, Note_off_c, 3, 80, 0
7, 199680, Note_on_c, 3, 81, 89
7, 200160, Note_off_c, 3, 81, 0
7, 200160, Note_on_c, 3, 71, 1
7, 200160, Sequencer_specific, 5, 5, 15, 15, 0, 2
7, 200640, Note_off_c, 3, 71, 0
7, 200640, Note_on_c, 3, 71, 1
7, 201120, Note_off_c, 3, 71, 0
7, 201120, Note_on_c, 3, 71, 1
7, 201600, Note_off_c, 3, 71, 0
7, 201600, Note_on_c, 3, 71, 1
7, 202080, Note_off_c, 3, 71, 0
7, 202080, Note_on_c, 3, 76, 89
7, 202080, Sequencer_specific, 5, 5, 15, 15, 0, 2
7, 202560, Note_off_c, 3, 76, 0
7, 202560, Note_on_c, 3, 79, 89
7, 203040, Note_off_c, 3, 79, 0
7, 203040, Note_on_c, 3, 76, 89
7, 203520, Note_off_c, 3, 76, 0
7, 203520, Note_on_c, 3, 79, 89
7, 204480, Note_off_c, 3, 79, 0
7, 204480, Note_on_c, 3, 79, 89
7, 204960, Note_off_c, 3, 79, 0
7, 204960, Note_on_c, 3, 76, 89
7, 205440, Note_off_c, 3, 76, 0
7, 205440, Note_on_c, 3, 79, 89
7, 206400, Note_off_c, 3, 79, 0
7, 206400, Note_on_c, 3, 79, 89
7, 207360, Note_off_c, 3, 79, 0
7, 207360, Note_on_c, 3, 79, 89
7, 207840, Note_off_c, 3, 79, 0
7, 207840, Note_on_c, 3, 76, 1
7, 207840, Sequencer_specific, 5, 5, 15, 15, 0, 2
7, 208320, Note_off_c, 3, 76, 0
7, 208320, Note_on_c, 3, 79, 1
7, 208800, Note_off_c, 3, 79, 0
7, 208800, Note_on_c, 3, 76, 1
7, 209280, Note_off_c, 3, 76, 0
7, 209280, Note_on_c, 3, 79, 89
7, 210240, Note_off_c, 3, 79, 0
7, 211200, Note_on_c, 3, 83, 89
7, 212160, Note_off_c, 3, 83, 0
7, 212160, Note_on_c, 3, 83, 89
7, 213120, Note_off_c, 3, 83, 0
7, 213120, Note_on_c, 3, 83, 89
7, 213600, Note_off_c, 3, 83, 0
7, 213600, Note_on_c, 3, 83, 89
7, 214080, Note_off_c, 3, 83, 0
7, 214080, Note_on_c, 3, 83, 89
7, 215040, Note_off_c, 3, 83, 0
7, 215040, Note_on_c, 3, 83, 89
7, 215520, Note_off_c, 3, 83, 0
7, 215520, Note_on_c, 3, 83, 89
7, 216000, Note_off_c, 3, 83, 0
7, 216000, Note_on_c, 3, 83, 89
7, 216960, Note_off_c, 3, 83, 0
7, 216960, Note_on_c, 3, 81, 89
7, 217440, Note_off_c, 3, 81, 0
7, 217440, Note_on_c, 3, 79, 89
7, 217440, Sequencer_specific, 5, 5, 15, 15, 0, 2
7, 217920, Note_off_c, 3, 79, 0
7, 217920, Note_on_c, 3, 76, 89
7, 218400, Note_off_c, 3, 76, 0
7, 218400, Note_on_c, 3, 76, 89
7, 218880, Note_off_c, 3, 76, 0
7, 218880, Note_on_c, 3, 83, 89
7, 219360, Note_off_c, 3, 83, 0
7, 219360, Note_on_c, 3, 83, 89
7, 219360, Sequencer_specific, 5, 5, 15, 15, 0, 2
7, 219840, Note_off_c, 3, 83, 0
7, 219840, Note_on_c, 3, 83, 89
7, 220320, Note_off_c, 3, 83, 0
7, 220320, Note_on_c, 3, 83, 89
7, 220800, Note_off_c, 3, 83, 0
7, 220800, Note_on_c, 3, 81, 89
7, 221280, Note_off_c, 3, 81, 0
7, 221280, Note_on_c, 3, 79, 89
7, 221280, Sequencer_specific, 5, 5, 15, 15, 0, 2
7, 221760, Note_off_c, 3, 79, 0
7, 221760, Note_on_c, 3, 83, 89
7, 222240, Note_off_c, 3, 83, 0
7, 222240, Note_on_c, 3, 81, 89
7, 222720, Sequencer_specific, 6, 5, 15, 13, 81, 89, 3
7, 224640, Note_off_c, 3, 81, 0
7, 225120, Note_on_c, 3, 76, 89
7, 225600, Note_off_c, 3, 76, 0
7, 225600, Note_on_c, 3, 79, 89
7, 226080, Note_off_c, 3, 79, 0
7, 226080, Note_on_c, 3, 81, 89
7, 226560, Note_off_c, 3, 81, 0
7, 226560, Note_on_c, 3, 83, 89
7, 227520, Note_off_c, 3, 83, 0
7, 227520, Note_on_c, 3, 83, 89
7, 228480, Note_off_c, 3, 83, 0
7, 228480, Note_on_c, 3, 83, 89
7, 228960, Note_off_c, 3, 83, 0
7, 228960, Note_on_c, 3, 83, 89
7, 229440, Note_off_c, 3, 83, 0
7, 229440, Note_on_c, 3, 83, 89
7, 230400, Note_off_c, 3, 83, 0
7, 230400, Note_on_c, 3, 83, 89
7, 230880, Note_off_c, 3, 83, 0
7, 230880, Note_on_c, 3, 83, 89
7, 231360, Note_off_c, 3, 83, 0
7, 231360, Note_on_c, 3, 83, 89
7, 232320, Note_off_c, 3, 83, 0
7, 232320, Note_on_c, 3, 81, 89
7, 232800, Note_off_c, 3, 81, 0
7, 232800, Note_on_c, 3, 79, 89
7, 232800, Sequencer_specific, 5, 5, 15, 15, 0, 2
7, 233280, Note_off_c, 3, 79, 0
7, 233280, Note_on_c, 3, 76, 89
7, 233760, Note_off_c, 3, 76, 0
7, 233760, Note_on_c, 3, 76, 89
7, 234240, Note_off_c, 3, 76, 0
7, 234240, Note_on_c, 3, 83, 89
7, 234720, Note_off_c, 3, 83, 0
7, 234720, Note_on_c, 3, 83, 89
7, 234720, Sequencer_specific, 5, 5, 15, 15, 0, 2
7, 235200, Note_off_c, 3, 83, 0
7, 235200, Note_on_c, 3, 83, 89
7, 235680, Note_off_c, 3, 83, 0
7, 235680, Note_on_c, 3, 83, 89
7, 236160, Note_off_c, 3, 83, 0
7, 236160, Note_on_c, 3, 81, 89
7, 236640, Note_off_c, 3, 81, 0
7, 236640, Note_on_c, 3, 79, 89
7, 236640, Sequencer_specific, 5, 5, 15, 15, 0, 2
7, 237120, Note_off_c, 3, 79, 0
7, 237120, Note_on_c, 3, 83, 89
7, 237600, Note_off_c, 3, 83, 0
7, 237600, Note_on_c, 3, 81, 89
7, 238080, Sequencer_specific, 6, 5, 15, 13, 81, 89, 3
7, 239040, Note_off_c, 3, 81, 0
7, 239520, Note_on_c, 3, 76, 89
7, 240000, Note_off_c, 3, 76, 0
7, 240000, Note_on_c, 3, 79, 89
7, 240480, Note_off_c, 3, 79, 0
7, 240480, Note_on_c, 3, 81, 89
7, 240480, Sequencer_specific, 5, 5, 15, 15, 0, 2
7, 240960, Note_off_c, 3, 81, 0
7, 240960, Note_on_c, 3, 79, 89
7, 241440, Note_off_c, 3, 79, 0
7, 241440, Note_on_c, 3, 83, 89
7, 241920, Sequencer_specific, 6, 5, 15, 13, 83, 89, 3
7, 243360, Note_off_c, 3, 83, 0
7, 243360, Note_on_c, 3, 83, 89
7, 243840, Note_off_c, 3, 83, 0
7, 243840, Note_on_c, 3, 83, 89
7, 244320, Note_off_c, 3, 83, 0
7, 244320, Note_on_c, 3, 81, 89
7, 244320, Sequencer_specific, 5, 5, 15, 15, 0, 2
7, 244800, Note_off_c, 3, 81, 0
7, 244800, Note_on_c, 3, 79, 89
7, 245280, Note_off_c, 3, 79, 0
7, 245280, Note_on_c, 3, 81, 89
7, 245760, Sequencer_specific, 6, 5, 15, 13, 81, 89, 3
7, 247200, Note_off_c, 3, 81, 0
7, 247680, Note_on_c, 3, 79, 89
7, 248160, Note_off_c, 3, 79, 0
7, 248160, Note_on_c, 3, 81, 89
7, 248160, Sequencer_specific, 5, 5, 15, 15, 0, 2
7, 248640, Note_off_c, 3, 81, 0
7, 248640, Note_on_c, 3, 79, 89
7, 249120, Note_off_c, 3, 79, 0
7, 249120, Note_on_c, 3, 83, 89
7, 249600, Sequencer_specific, 6, 5, 15, 13, 83, 89, 3
7, 250080, Note_off_c, 3, 83, 0
7, 250080, Note_on_c, 3, 83, 89
7, 251040, Note_off_c, 3, 83, 0
7, 251040, Note_on_c, 3, 83, 89
7, 251520, Note_off_c, 3, 83, 0
7, 251520, Note_on_c, 3, 83, 89
7, 252000, Note_off_c, 3, 83, 0
7, 252000, Note_on_c, 3, 81, 89
7, 252000, Sequencer_specific, 5, 5, 15, 15, 0, 2
7, 252480, Note_off_c, 3, 81, 0
7, 252480, Note_on_c, 3, 79, 89
7, 252960, Note_off_c, 3, 79, 0
7, 252960, Note_on_c, 3, 81, 89
7, 253440, Sequencer_specific, 6, 5, 15, 13, 81, 89, 3
7, 254880, Note_off_c, 3, 81, 0
7, 255360, Note_on_c, 3, 76, 89
7, 255840, Note_off_c, 3, 76, 0
7, 255840, Note_on_c, 3, 78, 89
7, 255840, Sequencer_specific, 5, 5, 15, 15, 0, 2
7, 256320, Note_off_c, 3, 78, 0
7, 256320, Note_on_c, 3, 79, 89
7, 256800, Note_off_c, 3, 79, 0
7, 256800, Note_on_c, 3, 81, 89
7, 257280, Note_off_c, 3, 81, 0
7, 257280, Note_on_c, 3, 83, 89
7, 258240, Note_off_c, 3, 83, 0
7, 258240, Note_on_c, 3, 83, 89
7, 259200, Note_off_c, 3, 83, 0
7, 259200, Note_on_c, 3, 83, 89
7, 259680, Note_off_c, 3, 83, 0
7, 259680, Note_on_c, 3, 83, 89
7, 260160, Note_off_c, 3, 83, 0
7, 260160, Note_on_c, 3, 83, 89
7, 261120, Note_off_c, 3, 83, 0
7, 261120, Note_on_c, 3, 83, 89
7, 261600, Note_off_c, 3, 83, 0
7, 261600, Note_on_c, 3, 83, 89
7, 262080, Note_off_c, 3, 83, 0
7, 262080, Note_on_c, 3, 83, 89
7, 263040, Note_off_c, 3, 83, 0
7, 263040, Note_on_c, 3, 81, 89
7, 263520, Note_off_c, 3, 81, 0
7, 263520, Note_on_c, 3, 79, 89
7, 264000, Note_off_c, 3, 79, 0
7, 264000, Note_on_c, 3, 76, 89
7, 264960, Note_off_c, 3, 76, 0
7, 268320, Note_on_c, 3, 67, 1
7, 268320, Sequencer_specific, 4, 5, 15, 15, 2
7, 268800, Sequencer_specific, 6, 5, 15, 13, 67, 1, 3
7, 268800, Sequencer_specific, 4, 5, 15, 15, 2
7, 269760, Note_off_c, 3, 67, 0
7, 272160, Note_on_c, 3, 67, 1
7, 272160, Sequencer_specific, 4, 5, 15, 15, 2
7, 272400, Note_off_c, 3, 67, 0
7, 272400, Note_on_c, 3, 67, 1
7, 272400, Sequencer_specific, 4, 5, 15, 15, 2
7, 272640, Note_off_c, 3, 67, 0
7, 272640, Note_on_c, 3, 67, 1
7, 276480, Note_off_c, 3, 67, 0
7, 277920, Note_on_c, 3, 71, 1
7, 278400, Note_off_c, 3, 71, 0
7, 278400, Note_on_c, 3, 71, 1
7, 278880, Note_off_c, 3, 71, 0
7, 278880, Note_on_c, 3, 71, 1
7, 279360, Note_off_c, 3, 71, 0
7, 279360, Note_on_c, 3, 71, 1
7, 279600, Note_off_c, 3, 71, 0
7, 279600, Note_on_c, 3, 71, 1
7, 279840, Note_off_c, 3, 71, 0
7, 279840, Note_on_c, 3, 71, 1
7, 280320, Note_off_c, 3, 71, 0
7, 280320, Note_on_c, 3, 71, 1
7, 281280, Note_off_c, 3, 71, 0
7, 281280, Note_on_c, 3, 71, 1
7, 282240, Note_off_c, 3, 71, 0
7, 282240, Note_on_c, 3, 71, 1
7, 282720, Note_off_c, 3, 71, 0
7, 282720, Note_on_c, 3, 71, 1
7, 283200, Note_off_c, 3, 71, 0
7, 283680, Note_on_c, 3, 71, 1
7, 284160, Note_off_c, 3, 71, 0
7, 284640, Note_on_c, 3, 71, 1
7, 285120, Note_off_c, 3, 71, 0
7, 285600, Note_on_c, 3, 71, 1
7, 286080, Note_off_c, 3, 71, 0
7, 286080, Note_on_c, 3, 71, 1
7, 286560, Note_off_c, 3, 71, 0
7, 286560, Note_on_c, 3, 71, 1
7, 286560, Sequencer_specific, 5, 5, 15, 15, 0, 2
7, 287040, Note_off_c, 3, 71, 0
7, 287040, Note_on_c, 3, 71, 1
7, 287520, Note_off_c, 3, 71, 0
7, 287520, Note_on_c, 3, 71, 1
7, 288000, Note_off_c, 3, 71, 0
7, 288000, Note_on_c, 3, 71, 1
7, 288960, Note_off_c, 3, 71, 0
7, 288960, Note_on_c, 3, 71, 1
7, 289920, Note_off_c, 3, 71, 0
7, 289920, Note_on_c, 3, 71, 1
7, 290400, Note_off_c, 3, 71, 0
7, 290400, Note_on_c, 3, 71, 1
7, 290880, Note_off_c, 3, 71, 0
7, 291360, Note_on_c, 3, 71, 1
7, 291840, Note_off_c, 3, 71, 0
7, 292320, Note_on_c, 3, 71, 1
7, 292800, Note_off_c, 3, 71, 0
7, 293280, Note_on_c, 3, 71, 1
7, 293760, Note_off_c, 3, 71, 0
7, 293760, Note_on_c, 3, 71, 1
7, 294240, Note_off_c, 3, 71, 0
7, 294240, Note_on_c, 3, 71, 1
7, 294720, Note_off_c, 3, 71, 0
7, 294720, Note_on_c, 3, 71, 1
7, 294960, Note_off_c, 3, 71, 0
7, 294960, Note_on_c, 3, 71, 1
7, 295200, Note_off_c, 3, 71, 0
7, 295200, Note_on_c, 3, 71, 1
7, 295680, Note_off_c, 3, 71, 0
7, 295680, Note_on_c, 3, 71, 1
7, 296640, Note_off_c, 3, 71, 0
7, 296640, Note_on_c, 3, 71, 1
7, 297600, Note_off_c, 3, 71, 0
7, 297600, Note_on_c, 3, 71, 1
7, 298080, Note_off_c, 3, 71, 0
7, 298080, Note_on_c, 3, 71, 1
7, 298560, Note_off_c, 3, 71, 0
7, 299040, Note_on_c, 3, 71, 1
7, 299520, Note_off_c, 3, 71, 0
7, 300000, Note_on_c, 3, 71, 1
7, 300480, Note_off_c, 3, 71, 0
7, 300960, Note_on_c, 3, 71, 1
7, 301440, Note_off_c, 3, 71, 0
7, 301440, Note_on_c, 3, 71, 1
7, 301920, Note_off_c, 3, 71, 0
7, 301920, Note_on_c, 3, 71, 1
7, 301920, Sequencer_specific, 5, 5, 15, 15, 0, 2
7, 302400, Note_off_c, 3, 71, 0
7, 302400, Note_on_c, 3, 71, 1
7, 302880, Note_off_c, 3, 71, 0
7, 302880, Note_on_c, 3, 71, 1
7, 303360, Note_off_c, 3, 71, 0
7, 303360, Note_on_c, 3, 71, 1
7, 304320, Note_off_c, 3, 71, 0
7, 304320, Note_on_c, 3, 71, 1
7, 305280, Note_off_c, 3, 71, 0
7, 305280, Note_on_c, 3, 71, 1
7, 305760, Note_off_c, 3, 71, 0
7, 305760, Note_on_c, 3, 71, 1
7, 306240, Note_off_c, 3, 71, 0
7, 306720, Note_on_c, 3, 71, 1
7, 307200, Note_off_c, 3, 71, 0
7, 307680, Note_on_c, 3, 71, 1
7, 308160, Note_off_c, 3, 71, 0
7, 308640, Note_on_c, 3, 71, 1
7, 309120, Sequencer_specific, 6, 5, 15, 13, 71, 1, 3
7, 309600, Note_off_c, 3, 71, 0
7, 309600, Note_on_c, 3, 71, 1
7, 309600, Sequencer_specific, 5, 5, 15, 15, 0, 2
7, 310080, Note_off_c, 3, 71, 0
7, 310080, Note_on_c, 3, 71, 1
7, 310560, Note_off_c, 3, 71, 0
7, 310560, Note_on_c, 3, 71, 1
7, 311040, Note_off_c, 3, 71, 0
7, 311040, Note_on_c, 3, 71, 1
7, 311520, Note_off_c, 3, 71, 0
7, 311520, Note_on_c, 3, 71, 1
7, 311520, Sequencer_specific, 5, 5, 15, 15, 0, 2
7, 312000, Note_off_c, 3, 71, 0
7, 312000, Note_on_c, 3, 71, 1
7, 312480, Note_off_c, 3, 71, 0
7, 312480, Note_on_c, 3, 71, 1
7, 312960, Note_off_c, 3, 71, 0
7, 312960, Note_on_c, 3, 71, 1
7, 313440, Note_off_c, 3, 71, 0
7, 313440, Note_on_c, 3, 71, 1
7, 313440, Sequencer_specific, 5, 5, 15, 15, 0, 2
7, 313920, Note_off_c, 3, 71, 0
7, 313920, Note_on_c, 3, 71, 1
7, 314400, Note_off_c, 3, 71, 0
7, 314400, Note_on_c, 3, 71, 1
7, 314880, Note_off_c, 3, 71, 0
7, 314880, Note_on_c, 3, 71, 1
7, 315360, Note_off_c, 3, 71, 0
7, 315360, Note_on_c, 3, 71, 1
7, 315360, Sequencer_specific, 5, 5, 15, 15, 0, 2
7, 315840, Note_off_c, 3, 71, 0
7, 315840, Note_on_c, 3, 71, 1
7, 316320, Note_off_c, 3, 71, 0
7, 316320, Note_on_c, 3, 71, 1
7, 316800, Note_off_c, 3, 71, 0
7, 316800, Note_on_c, 3, 71, 1
7, 317280, Note_off_c, 3, 71, 0
7, 317280, Note_on_c, 3, 71, 1
7, 317280, Sequencer_specific, 5, 5, 15, 15, 0, 2
7, 317760, Note_off_c, 3, 71, 0
7, 317760, Note_on_c, 3, 71, 1
7, 318240, Note_off_c, 3, 71, 0
7, 318240, Note_on_c, 3, 71, 1
7, 318720, Note_off_c, 3, 71, 0
7, 318720, Note_on_c, 3, 71, 1
7, 319200, Note_off_c, 3, 71, 0
7, 319200, Note_on_c, 3, 71, 1
7, 319200, Sequencer_specific, 5, 5, 15, 15, 0, 2
7, 319680, Note_off_c, 3, 71, 0
7, 319680, Note_on_c, 3, 71, 1
7, 320160, Note_off_c, 3, 71, 0
7, 320160, Note_on_c, 3, 71, 1
7, 320640, Note_off_c, 3, 71, 0
7, 320640, Note_on_c, 3, 71, 1
7, 321120, Note_off_c, 3, 71, 0
7, 321120, Note_on_c, 3, 71, 1
7, 321120, Sequencer_specific, 5, 5, 15, 15, 0, 2
7, 321600, Note_off_c, 3, 71, 0
7, 321600, Note_on_c, 3, 71, 1
7, 322080, Note_off_c, 3, 71, 0
7, 322080, Note_on_c, 3, 71, 1
7, 322560, Note_off_c, 3, 71, 0
7, 323040, Note_on_c, 3, 71, 1
7, 323520, Note_off_c, 3, 71, 0
7, 323520, Note_on_c, 3, 71, 1
7, 324000, Note_off_c, 3, 71, 0
7, 324000, Note_on_c, 3, 71, 1
7, 324480, Note_off_c, 3, 71, 0
7, 324960, Note_on_c, 3, 71, 1
7, 325440, Note_off_c, 3, 71, 0
7, 325440, Note_on_c, 3, 71, 1
7, 325920, Note_off_c, 3, 71, 0
7, 325920, Note_on_c, 3, 71, 1
7, 326400, Note_off_c, 3, 71, 0
7, 326400, Note_on_c, 3, 83, 89
7, 327360, Note_off_c, 3, 83, 0
7, 327360, Note_on_c, 3, 83, 89
7, 328320, Note_off_c, 3, 83, 0
7, 328320, Note_on_c, 3, 83, 89
7, 328800, Note_off_c, 3, 83, 0
7, 328800, Note_on_c, 3, 83, 89
7, 329280, Note_off_c, 3, 83, 0
7, 329280, Note_on_c, 3, 83, 89
7, 330240, Note_off_c, 3, 83, 0
7, 330240, Note_on_c, 3, 83, 89
7, 330720, Note_off_c, 3, 83, 0
7, 330720, Note_on_c, 3, 83, 89
7, 331200, Note_off_c, 3, 83, 0
7, 331200, Note_on_c, 3, 83, 89
7, 332160, Note_off_c, 3, 83, 0
7, 332160, Note_on_c, 3, 81, 89
7, 332640, Note_off_c, 3, 81, 0
7, 332640, Note_on_c, 3, 79, 89
7, 332640, Sequencer_specific, 5, 5, 15, 15, 0, 2
7, 333120, Note_off_c, 3, 79, 0
7, 333120, Note_on_c, 3, 76, 89
7, 333600, Note_off_c, 3, 76, 0
7, 333600, Note_on_c, 3, 76, 89
7, 334080, Note_off_c, 3, 76, 0
7, 334080, Note_on_c, 3, 83, 89
7, 334560, Note_off_c, 3, 83, 0
7, 334560, Note_on_c, 3, 83, 89
7, 334560, Sequencer_specific, 5, 5, 15, 15, 0, 2
7, 335040, Note_off_c, 3, 83, 0
7, 335040, Note_on_c, 3, 83, 89
7, 335520, Note_off_c, 3, 83, 0
7, 335520, Note_on_c, 3, 83, 89
7, 336000, Note_off_c, 3, 83, 0
7, 336000, Note_on_c, 3, 81, 89
7, 336480, Note_off_c, 3, 81, 0
7, 336480, Note_on_c, 3, 79, 89
7, 336480, Sequencer_specific, 5, 5, 15, 15, 0, 2
7, 336960, Note_off_c, 3, 79, 0
7, 336960, Note_on_c, 3, 83, 89
7, 337440, Note_off_c, 3, 83, 0
7, 337440, Note_on_c, 3, 81, 89
7, 337920, Sequencer_specific, 6, 5, 15, 13, 81, 89, 3
7, 339840, Note_off_c, 3, 81, 0
7, 340320, Note_on_c, 3, 76, 89
7, 340800, Note_off_c, 3, 76, 0
7, 340800, Note_on_c, 3, 79, 89
7, 341280, Note_off_c, 3, 79, 0
7, 341280, Note_on_c, 3, 81, 89
7, 341760, Note_off_c, 3, 81, 0
7, 341760, Note_on_c, 3, 83, 89
7, 342720, Note_off_c, 3, 83, 0
7, 342720, Note_on_c, 3, 83, 89
7, 343680, Note_off_c, 3, 83, 0
7, 343680, Note_on_c, 3, 83, 89
7, 344160, Note_off_c, 3, 83, 0
7, 344160, Note_on_c, 3, 83, 89
7, 344640, Note_off_c, 3, 83, 0
7, 344640, Note_on_c, 3, 83, 89
7, 345600, Note_off_c, 3, 83, 0
7, 345600, Note_on_c, 3, 83, 89
7, 346080, Note_off_c, 3, 83, 0
7, 346080, Note_on_c, 3, 83, 89
7, 346560, Note_off_c, 3, 83, 0
7, 346560, Note_on_c, 3, 83, 89
7, 347520, Note_off_c, 3, 83, 0
7, 347520, Note_on_c, 3, 81, 89
7, 348000, Note_off_c, 3, 81, 0
7, 348000, Note_on_c, 3, 79, 89
7, 348000, Sequencer_specific, 5, 5, 15, 15, 0, 2
7, 348480, Note_off_c, 3, 79, 0
7, 348480, Note_on_c, 3, 76, 89
7, 348960, Note_off_c, 3, 76, 0
7, 348960, Note_on_c, 3, 76, 89
7, 349440, Note_off_c, 3, 76, 0
7, 349440, Note_on_c, 3, 83, 89
7, 349920, Note_off_c, 3, 83, 0
7, 349920, Note_on_c, 3, 83, 89
7, 349920, Sequencer_specific, 5, 5, 15, 15, 0, 2
7, 350400, Note_off_c, 3, 83, 0
7, 350400, Note_on_c, 3, 83, 89
7, 350880, Note_off_c, 3, 83, 0
7, 350880, Note_on_c, 3, 83, 89
7, 351360, Note_off_c, 3, 83, 0
7, 351360, Note_on_c, 3, 81, 89
7, 351840, Note_off_c, 3, 81, 0
7, 351840, Note_on_c, 3, 79, 89
7, 351840, Sequencer_specific, 5, 5, 15, 15, 0, 2
7, 352320, Note_off_c, 3, 79, 0
7, 352320, Note_on_c, 3, 83, 89
7, 352800, Note_off_c, 3, 83, 0
7, 352800, Note_on_c, 3, 81, 89
7, 353280, Sequencer_specific, 6, 5, 15, 13, 81, 89, 3
7, 354240, Note_off_c, 3, 81, 0
7, 354720, Note_on_c, 3, 76, 89
7, 355200, Note_off_c, 3, 76, 0
7, 355200, Note_on_c, 3, 79, 89
7, 355680, Note_off_c, 3, 79, 0
7, 355680, Note_on_c, 3, 81, 89
7, 355680, Sequencer_specific, 5, 5, 15, 15, 0, 2
7, 356160, Note_off_c, 3, 81, 0
7, 356160, Note_on_c, 3, 79, 89
7, 356640, Note_off_c, 3, 79, 0
7, 356640, Note_on_c, 3, 83, 89
7, 357120, Sequencer_specific, 6, 5, 15, 13, 83, 89, 3
7, 358560, Note_off_c, 3, 83, 0
7, 358560, Note_on_c, 3, 83, 89
7, 359040, Note_off_c, 3, 83, 0
7, 359040, Note_on_c, 3, 83, 89
7, 359520, Note_off_c, 3, 83, 0
7, 359520, Note_on_c, 3, 81, 89
7, 359520, Sequencer_specific, 5, 5, 15, 15, 0, 2
7, 360000, Note_off_c, 3, 81, 0
7, 360000, Note_on_c, 3, 79, 89
7, 360480, Note_off_c, 3, 79, 0
7, 360480, Note_on_c, 3, 81, 89
7, 360960, Sequencer_specific, 6, 5, 15, 13, 81, 89, 3
7, 362400, Note_off_c, 3, 81, 0
7, 362880, Note_on_c, 3, 79, 89
7, 363360, Note_off_c, 3, 79, 0
7, 363360, Note_on_c, 3, 81, 89
7, 363360, Sequencer_specific, 5, 5, 15, 15, 0, 2
7, 363840, Note_off_c, 3, 81, 0
7, 363840, Note_on_c, 3, 79, 89
7, 364320, Note_off_c, 3, 79, 0
7, 364320, Note_on_c, 3, 83, 89
7, 364800, Sequencer_specific, 6, 5, 15, 13, 83, 89, 3
7, 365280, Note_off_c, 3, 83, 0
7, 365280, Note_on_c, 3, 83, 89
7, 366240, Note_off_c, 3, 83, 0
7, 366240, Note_on_c, 3, 83, 89
7, 366720, Note_off_c, 3, 83, 0
7, 366720, Note_on_c, 3, 83, 89
7, 367200, Note_off_c, 3, 83, 0
7, 367200, Note_on_c, 3, 81, 89
7, 367200, Sequencer_specific, 5, 5, 15, 15, 0, 2
7, 367680, Note_off_c, 3, 81, 0
7, 367680, Note_on_c, 3, 79, 89
7, 368160, Note_off_c, 3, 79, 0
7, 368160, Note_on_c, 3, 81, 89
7, 368640, Sequencer_specific, 6, 5, 15, 13, 81, 89, 3
7, 370080, Note_off_c, 3, 81, 0
7, 370560, Note_on_c, 3, 76, 89
7, 371040, Note_off_c, 3, 76, 0
7, 371040, Note_on_c, 3, 78, 89
7, 371040, Sequencer_specific, 5, 5, 15, 15, 0, 2
7, 371520, Note_off_c, 3, 78, 0
7, 371520, Note_on_c, 3, 79, 89
7, 372000, Note_off_c, 3, 79, 0
7, 372000, Note_on_c, 3, 81, 89
7, 372480, Note_off_c, 3, 81, 0
7, 372480, Note_on_c, 3, 83, 89
7, 373440, Note_off_c, 3, 83, 0
7, 373440, Note_on_c, 3, 83, 89
7, 374400, Note_off_c, 3, 83, 0
7, 374400, Note_on_c, 3, 83, 89
7, 374880, Note_off_c, 3, 83, 0
7, 374880, Note_on_c, 3, 83, 89
7, 375360, Note_off_c, 3, 83, 0
7, 375360, Note_on_c, 3, 83, 89
7, 376320, Note_off_c, 3, 83, 0
7, 376320, Note_on_c, 3, 83, 89
7, 376800, Note_off_c, 3, 83, 0
7, 376800, Note_on_c, 3, 83, 89
7, 377280, Note_off_c, 3, 83, 0
7, 377280, Note_on_c, 3, 83, 89
7, 378240, Note_off_c, 3, 83, 0
7, 378240, Note_on_c, 3, 81, 89
7, 378720, Note_off_c, 3, 81, 0
7, 378720, Note_on_c, 3, 79, 89
7, 379200, Note_off_c, 3, 79, 0
7, 379200, Note_on_c, 3, 76, 89
7, 380160, Note_off_c, 3, 76, 0
7, 387840, Sequencer_specific, 3, 5, 15, 10
7, 387840, End_track
8, 0, Start_track
8, 0, Control_c, 4, 10, 12
8, 0, Title_t, "Sequenced by Geoffrey Carter 14th November 2013"
8, 0, Program_c, 4, 80
8, 0, Sequencer_specific, 5, 5, 15, 9, 12, 64
8, 0, Sequencer_specific, 15, 5, 15, 6, 71, 101, 110, 101, 114, 97, 108, 32, 77, 73, 68, 73
8, 0, Key_signature, 1, "minor"
8, 0, Sequencer_specific, 4, 5, 15, 10, 1
8, 17760, Note_on_c, 4, 64, 89
8, 18240, Note_off_c, 4, 64, 0
8, 18240, Note_on_c, 4, 67, 89
8, 18720, Note_off_c, 4, 67, 0
8, 18720, Note_on_c, 4, 64, 89
8, 19200, Note_off_c, 4, 64, 0
8, 19200, Note_on_c, 4, 67, 89
8, 20160, Note_off_c, 4, 67, 0
8, 20160, Note_on_c, 4, 67, 89
8, 20640, Note_off_c, 4, 67, 0
8, 20640, Note_on_c, 4, 64, 89
8, 21120, Note_off_c, 4, 64, 0
8, 21120, Note_on_c, 4, 67, 89
8, 22080, Note_off_c, 4, 67, 0
8, 22080, Note_on_c, 4, 67, 89
8, 23040, Note_off_c, 4, 67, 0
8, 23040, Note_on_c, 4, 67, 89
8, 23520, Note_off_c, 4, 67, 0
8, 23520, Note_on_c, 4, 67, 89
8, 23520, Sequencer_specific, 5, 5, 15, 15, 0, 2
8, 24000, Note_off_c, 4, 67, 0
8, 24000, Note_on_c, 4, 67, 89
8, 24480, Note_off_c, 4, 67, 0
8, 24480, Note_on_c, 4, 62, 89
8, 24960, Sequencer_specific, 6, 5, 15, 13, 62, 89, 4
8, 25920, Note_off_c, 4, 62, 0
8, 26400, Note_on_c, 4, 64, 89
8, 26880, Note_off_c, 4, 64, 0
8, 26880, Note_on_c, 4, 67, 89
8, 27360, Note_off_c, 4, 67, 0
8, 27360, Note_on_c, 4, 67, 89
8, 27360, Sequencer_specific, 5, 5, 15, 15, 0, 2
8, 27840, Note_off_c, 4, 67, 0
8, 27840, Note_on_c, 4, 67, 89
8, 28320, Note_off_c, 4, 67, 0
8, 28320, Note_on_c, 4, 64, 89
8, 28800, Note_off_c, 4, 64, 0
8, 28800, Note_on_c, 4, 67, 89
8, 29760, Note_off_c, 4, 67, 0
8, 29760, Note_on_c, 4, 67, 89
8, 30240, Note_off_c, 4, 67, 0
8, 30240, Note_on_c, 4, 64, 89
8, 30720, Note_off_c, 4, 64, 0
8, 30720, Note_on_c, 4, 67, 89
8, 31200, Note_off_c, 4, 67, 0
8, 31200, Note_on_c, 4, 67, 89
8, 31200, Sequencer_specific, 5, 5, 15, 15, 0, 2
8, 31680, Note_off_c, 4, 67, 0
8, 31680, Note_on_c, 4, 67, 89
8, 32160, Note_off_c, 4, 67, 0
8, 32160, Note_on_c, 4, 62, 89
8, 32640, Sequencer_specific, 6, 5, 15, 13, 62, 89, 4
8, 33600, Note_off_c, 4, 62, 0
8, 34080, Note_on_c, 4, 64, 89
8, 34560, Note_off_c, 4, 64, 0
8, 34560, Note_on_c, 4, 67, 89
8, 35040, Note_off_c, 4, 67, 0
8, 35040, Note_on_c, 4, 67, 89
8, 35040, Sequencer_specific, 5, 5, 15, 15, 0, 2
8, 35520, Note_off_c, 4, 67, 0
8, 35520, Note_on_c, 4, 67, 89
8, 36000, Note_off_c, 4, 67, 0
8, 36000, Note_on_c, 4, 64, 89
8, 36480, Note_off_c, 4, 64, 0
8, 36480, Note_on_c, 4, 67, 89
8, 36960, Note_off_c, 4, 67, 0
8, 36960, Note_on_c, 4, 67, 89
8, 36960, Sequencer_specific, 5, 5, 15, 15, 0, 2
8, 37440, Note_off_c, 4, 67, 0
8, 37440, Note_on_c, 4, 67, 89
8, 37920, Note_off_c, 4, 67, 0
8, 37920, Note_on_c, 4, 64, 89
8, 38400, Note_off_c, 4, 64, 0
8, 38400, Note_on_c, 4, 67, 89
8, 38880, Note_off_c, 4, 67, 0
8, 38880, Note_on_c, 4, 67, 89
8, 38880, Sequencer_specific, 5, 5, 15, 15, 0, 2
8, 39360, Note_off_c, 4, 67, 0
8, 39360, Note_on_c, 4, 64, 89
8, 39840, Note_off_c, 4, 64, 0
8, 39840, Note_on_c, 4, 67, 89
8, 40320, Note_off_c, 4, 67, 0
8, 40320, Note_on_c, 4, 67, 89
8, 40800, Note_off_c, 4, 67, 0
8, 40800, Note_on_c, 4, 64, 89
8, 40800, Sequencer_specific, 5, 5, 15, 15, 0, 2
8, 41280, Note_off_c, 4, 64, 0
8, 41280, Note_on_c, 4, 67, 89
8, 41760, Note_off_c, 4, 67, 0
8, 41760, Note_on_c, 4, 64, 89
8, 42240, Note_off_c, 4, 64, 0
8, 42240, Note_on_c, 4, 67, 89
8, 43200, Note_off_c, 4, 67, 0
8, 43200, Note_on_c, 4, 67, 89
8, 43680, Note_off_c, 4, 67, 0
8, 43680, Note_on_c, 4, 64, 89
8, 44160, Note_off_c, 4, 64, 0
8, 44160, Note_on_c, 4, 67, 89
8, 45120, Note_off_c, 4, 67, 0
8, 45120, Note_on_c, 4, 67, 89
8, 45600, Note_off_c, 4, 67, 0
8, 45600, Note_on_c, 4, 64, 89
8, 46080, Note_off_c, 4, 64, 0
8, 46080, Note_on_c, 4, 67, 89
8, 46560, Note_off_c, 4, 67, 0
8, 46560, Note_on_c, 4, 67, 89
8, 46560, Sequencer_specific, 5, 5, 15, 15, 0, 2
8, 47040, Note_off_c, 4, 67, 0
8, 47040, Note_on_c, 4, 64, 89
8, 47520, Note_off_c, 4, 64, 0
8, 47520, Note_on_c, 4, 67, 89
8, 48000, Note_off_c, 4, 67, 0
8, 48000, Note_on_c, 4, 62, 89
8, 48480, Note_off_c, 4, 62, 0
8, 48480, Note_on_c, 4, 59, 89
8, 48480, Sequencer_specific, 5, 5, 15, 15, 8, 2
8, 48960, Note_off_c, 4, 59, 0
8, 48960, Note_on_c, 4, 62, 89
8, 49440, Note_off_c, 4, 62, 0
8, 49440, Note_on_c, 4, 63, 89
8, 49920, Note_off_c, 4, 63, 0
8, 49920, Note_on_c, 4, 64, 89
8, 50880, Note_off_c, 4, 64, 0
8, 50880, Note_on_c, 4, 64, 89
8, 51840, Note_off_c, 4, 64, 0
8, 51840, Note_on_c, 4, 62, 89
8, 52320, Note_off_c, 4, 62, 0
8, 52320, Note_on_c, 4, 64, 89
8, 52320, Sequencer_specific, 5, 5, 15, 15, 0, 2
8, 52800, Note_off_c, 4, 64, 0
8, 52800, Note_on_c, 4, 67, 89
8, 53280, Note_off_c, 4, 67, 0
8, 53280, Note_on_c, 4, 68, 89
8, 53760, Note_off_c, 4, 68, 0
8, 53760, Note_on_c, 4, 69, 89
8, 54720, Note_off_c, 4, 69, 0
8, 55200, Note_on_c, 4, 55, 89
8, 55200, Sequencer_specific, 4, 5, 15, 15, 8
8, 55680, Note_off_c, 4, 55, 0
8, 55680, Note_on_c, 4, 57, 89
8, 55680, Sequencer_specific, 4, 5, 15, 15, 8
8, 56160, Note_off_c, 4, 57, 0
8, 56160, Note_on_c, 4, 59, 89
8, 56160, Sequencer_specific, 5, 5, 15, 15, 8, 2
8, 56640, Note_off_c, 4, 59, 0
8, 56640, Note_on_c, 4, 62, 89
8, 57120, Note_off_c, 4, 62, 0
8, 57120, Note_on_c, 4, 63, 89
8, 57600, Note_off_c, 4, 63, 0
8, 57600, Note_on_c, 4, 64, 89
8, 58080, Note_off_c, 4, 64, 0
8, 58080, Note_on_c, 4, 64, 89
8, 58080, Sequencer_specific, 5, 5, 15, 15, 0, 2
8, 58560, Note_off_c, 4, 64, 0
8, 58560, Note_on_c, 4, 64, 89
8, 59040, Note_off_c, 4, 64, 0
8, 59040, Note_on_c, 4, 64, 89
8, 59520, Note_off_c, 4, 64, 0
8, 59520, Note_on_c, 4, 64, 89
8, 60000, Note_off_c, 4, 64, 0
8, 60000, Note_on_c, 4, 64, 89
8, 60000, Sequencer_specific, 5, 5, 15, 15, 0, 2
8, 60480, Note_off_c, 4, 64, 0
8, 60480, Note_on_c, 4, 67, 89
8, 60960, Note_off_c, 4, 67, 0
8, 60960, Note_on_c, 4, 68, 89
8, 61440, Note_off_c, 4, 68, 0
8, 61440, Note_on_c, 4, 69, 89
8, 62400, Note_off_c, 4, 69, 0
8, 62880, Note_on_c, 4, 55, 89
8, 62880, Sequencer_specific, 4, 5, 15, 15, 8
8, 63360, Note_off_c, 4, 55, 0
8, 63360, Note_on_c, 4, 57, 89
8, 63360, Sequencer_specific, 4, 5, 15, 15, 8
8, 63840, Note_off_c, 4, 57, 0
8, 63840, Note_on_c, 4, 59, 89
8, 63840, Sequencer_specific, 5, 5, 15, 15, 8, 2
8, 64320, Note_off_c, 4, 59, 0
8, 64320, Note_on_c, 4, 62, 89
8, 64800, Note_off_c, 4, 62, 0
8, 64800, Note_on_c, 4, 63, 89
8, 65280, Note_off_c, 4, 63, 0
8, 65280, Note_on_c, 4, 64, 89
8, 66240, Note_off_c, 4, 64, 0
8, 66240, Note_on_c, 4, 64, 89
8, 67200, Note_off_c, 4, 64, 0
8, 67200, Note_on_c, 4, 62, 89
8, 67680, Note_off_c, 4, 62, 0
8, 67680, Note_on_c, 4, 64, 89
8, 67680, Sequencer_specific, 5, 5, 15, 15, 0, 2
8, 68160, Note_off_c, 4, 64, 0
8, 68160, Note_on_c, 4, 67, 89
8, 68640, Note_off_c, 4, 67, 0
8, 68640, Note_on_c, 4, 68, 89
8, 69120, Note_off_c, 4, 68, 0
8, 69120, Note_on_c, 4, 69, 89
8, 70080, Note_off_c, 4, 69, 0
8, 70560, Note_on_c, 4, 55, 89
8, 70560, Sequencer_specific, 4, 5, 15, 15, 8
8, 71040, Note_off_c, 4, 55, 0
8, 71040, Note_on_c, 4, 57, 89
8, 71040, Sequencer_specific, 4, 5, 15, 15, 8
8, 71520, Note_off_c, 4, 57, 0
8, 71520, Note_on_c, 4, 64, 89
8, 71520, Sequencer_specific, 5, 5, 15, 15, 8, 2
8, 72000, Note_off_c, 4, 64, 0
8, 72000, Note_on_c, 4, 67, 89
8, 72480, Note_off_c, 4, 67, 0
8, 72480, Note_on_c, 4, 64, 89
8, 72960, Note_off_c, 4, 64, 0
8, 72960, Note_on_c, 4, 67, 89
8, 73920, Note_off_c, 4, 67, 0
8, 73920, Note_on_c, 4, 67, 89
8, 74400, Note_off_c, 4, 67, 0
8, 74400, Note_on_c, 4, 64, 89
8, 74880, Note_off_c, 4, 64, 0
8, 74880, Note_on_c, 4, 67, 89
8, 75840, Note_off_c, 4, 67, 0
8, 75840, Note_on_c, 4, 67, 89
8, 76800, Note_off_c, 4, 67, 0
8, 76800, Note_on_c, 4, 67, 89
8, 77280, Note_off_c, 4, 67, 0
8, 77280, Note_on_c, 4, 64, 89
8, 77280, Sequencer_specific, 5, 5, 15, 15, 0, 2
8, 77760, Note_off_c, 4, 64, 0
8, 77760, Note_on_c, 4, 67, 89
8, 78240, Note_off_c, 4, 67, 0
8, 78240, Note_on_c, 4, 64, 89
8, 78720, Note_off_c, 4, 64, 0
8, 78720, Note_on_c, 4, 67, 89
8, 79680, Note_off_c, 4, 67, 0
8, 80640, Note_on_c, 4, 71, 89
8, 80640, Note_on_c, 4, 67, 89
8, 81600, Note_off_c, 4, 67, 0
8, 81600, Note_off_c, 4, 71, 0
8, 81600, Note_on_c, 4, 71, 89
8, 81600, Note_on_c, 4, 67, 89
8, 82560, Note_off_c, 4, 67, 0
8, 82560, Note_off_c, 4, 71, 0
8, 82560, Note_on_c, 4, 71, 89
8, 82560, Note_on_c, 4, 67, 89
8, 83040, Note_off_c, 4, 67, 0
8, 83040, Note_off_c, 4, 71, 0
8, 83040, Note_on_c, 4, 71, 89
8, 83040, Note_on_c, 4, 67, 89
8, 83520, Note_off_c, 4, 67, 0
8, 83520, Note_off_c, 4, 71, 0
8, 83520, Note_on_c, 4, 71, 89
8, 83520, Note_on_c, 4, 67, 89
8, 84480, Note_off_c, 4, 67, 0
8, 84480, Note_off_c, 4, 71, 0
8, 84480, Note_on_c, 4, 71, 89
8, 84480, Note_on_c, 4, 67, 89
8, 84480, Note_on_c, 4, 62, 89
8, 84960, Note_off_c, 4, 62, 0
8, 84960, Note_off_c, 4, 67, 0
8, 84960, Note_off_c, 4, 71, 0
8, 84960, Note_on_c, 4, 71, 89
8, 84960, Note_on_c, 4, 67, 89
8, 85440, Note_off_c, 4, 67, 0
8, 85440, Note_off_c, 4, 71, 0
8, 85440, Note_on_c, 4, 71, 89
8, 85440, Note_on_c, 4, 67, 89
8, 86400, Note_off_c, 4, 67, 0
8, 86400, Note_off_c, 4, 71, 0
8, 86400, Note_on_c, 4, 69, 89
8, 86400, Note_on_c, 4, 66, 89
8, 86880, Note_off_c, 4, 66, 0
8, 86880, Note_off_c, 4, 69, 0
8, 86880, Note_on_c, 4, 64, 89
8, 86880, Sequencer_specific, 5, 5, 15, 15, 0, 2
8, 86880, Note_on_c, 4, 67, 89
8, 87360, Note_off_c, 4, 67, 0
8, 87360, Note_off_c, 4, 64, 0
8, 87360, Note_on_c, 4, 64, 89
8, 87840, Note_off_c, 4, 64, 0
8, 87840, Note_on_c, 4, 64, 89
8, 88320, Note_off_c, 4, 64, 0
8, 88320, Note_on_c, 4, 71, 89
8, 88320, Note_on_c, 4, 67, 89
8, 88800, Note_off_c, 4, 67, 0
8, 88800, Note_off_c, 4, 71, 0
8, 88800, Note_on_c, 4, 71, 89
8, 88800, Note_on_c, 4, 67, 89
8, 88800, Sequencer_specific, 5, 5, 15, 15, 0, 2
8, 89280, Note_off_c, 4, 67, 0
8, 89280, Note_off_c, 4, 71, 0
8, 89280, Note_on_c, 4, 71, 89
8, 89280, Note_on_c, 4, 67, 89
8, 89760, Note_off_c, 4, 67, 0
8, 89760, Note_off_c, 4, 71, 0
8, 89760, Note_on_c, 4, 71, 89
8, 89760, Note_on_c, 4, 67, 89
8, 90240, Note_off_c, 4, 67, 0
8, 90240, Note_off_c, 4, 71, 0
8, 90240, Note_on_c, 4, 66, 89
8, 90240, Note_on_c, 4, 69, 89
8, 90720, Note_off_c, 4, 69, 0
8, 90720, Note_off_c, 4, 66, 0
8, 90720, Note_on_c, 4, 64, 89
8, 90720, Sequencer_specific, 5, 5, 15, 15, 0, 2
8, 90720, Note_on_c, 4, 67, 89
8, 91200, Note_off_c, 4, 67, 0
8, 91200, Note_off_c, 4, 64, 0
8, 91200, Note_on_c, 4, 71, 89
8, 91200, Note_on_c, 4, 67, 89
8, 91680, Note_off_c, 4, 67, 0
8, 91680, Note_off_c, 4, 71, 0
8, 91680, Note_on_c, 4, 66, 89
8, 91680, Note_on_c, 4, 69, 89
8, 92160, Note_off_c, 4, 69, 0
8, 92160, Note_off_c, 4, 66, 0
8, 92640, Note_on_c, 4, 61, 89
8, 93120, Note_off_c, 4, 61, 0
8, 93600, Note_on_c, 4, 61, 89
8, 94080, Note_off_c, 4, 61, 0
8, 94080, Note_on_c, 4, 61, 89
8, 94560, Note_off_c, 4, 61, 0
8, 94560, Note_on_c, 4, 64, 89
8, 95040, Note_off_c, 4, 64, 0
8, 95040, Note_on_c, 4, 67, 89
8, 95520, Note_off_c, 4, 67, 0
8, 95520, Note_on_c, 4, 69, 89
8, 96000, Note_off_c, 4, 69, 0
8, 96000, Note_on_c, 4, 71, 89
8, 96000, Note_on_c, 4, 67, 89
8, 96960, Note_off_c, 4, 67, 0
8, 96960, Note_off_c, 4, 71, 0
8, 96960, Note_on_c, 4, 71, 89
8, 96960, Note_on_c, 4, 67, 89
8, 97920, Note_off_c, 4, 67, 0
8, 97920, Note_off_c, 4, 71, 0
8, 97920, Note_on_c, 4, 71, 89
8, 97920, Note_on_c, 4, 67, 89
8, 98400, Note_off_c, 4, 67, 0
8, 98400, Note_off_c, 4, 71, 0
8, 98400, Note_on_c, 4, 71, 89
8, 98400, Note_on_c, 4, 67, 89
8, 98880, Note_off_c, 4, 67, 0
8, 98880, Note_off_c, 4, 71, 0
8, 98880, Note_on_c, 4, 71, 89
8, 98880, Note_on_c, 4, 67, 89
8, 99840, Note_off_c, 4, 67, 0
8, 99840, Note_off_c, 4, 71, 0
8, 99840, Note_on_c, 4, 71, 89
8, 99840, Note_on_c, 4, 67, 89
8, 99840, Note_on_c, 4, 62, 89
8, 100320, Note_off_c, 4, 62, 0
8, 100320, Note_off_c, 4, 67, 0
8, 100320, Note_off_c, 4, 71, 0
8, 100320, Note_on_c, 4, 71, 89
8, 100320, Note_on_c, 4, 67, 89
8, 100800, Note_off_c, 4, 67, 0
8, 100800, Note_off_c, 4, 71, 0
8, 100800, Note_on_c, 4, 71, 89
8, 100800, Note_on_c, 4, 67, 89
8, 101760, Note_off_c, 4, 67, 0
8, 101760, Note_off_c, 4, 71, 0
8, 101760, Note_on_c, 4, 69, 89
8, 101760, Note_on_c, 4, 66, 89
8, 102240, Note_off_c, 4, 66, 0
8, 102240, Note_off_c, 4, 69, 0
8, 102240, Note_on_c, 4, 64, 89
8, 102240, Sequencer_specific, 5, 5, 15, 15, 0, 2
8, 102240, Note_on_c, 4, 67, 89
8, 102720, Note_off_c, 4, 67, 0
8, 102720, Note_off_c, 4, 64, 0
8, 102720, Note_on_c, 4, 64, 89
8, 103200, Note_off_c, 4, 64, 0
8, 103200, Note_on_c, 4, 64, 89
8, 103680, Note_off_c, 4, 64, 0
8, 103680, Note_on_c, 4, 71, 89
8, 103680, Note_on_c, 4, 67, 89
8, 104160, Note_off_c, 4, 67, 0
8, 104160, Note_off_c, 4, 71, 0
8, 104160, Note_on_c, 4, 71, 89
8, 104160, Note_on_c, 4, 67, 89
8, 104160, Sequencer_specific, 5, 5, 15, 15, 0, 2
8, 104640, Note_off_c, 4, 67, 0
8, 104640, Note_off_c, 4, 71, 0
8, 104640, Note_on_c, 4, 71, 89
8, 104640, Note_on_c, 4, 67, 89
8, 105120, Note_off_c, 4, 67, 0
8, 105120, Note_off_c, 4, 71, 0
8, 105120, Note_on_c, 4, 71, 89
8, 105120, Note_on_c, 4, 67, 89
8, 105600, Note_off_c, 4, 67, 0
8, 105600, Note_off_c, 4, 71, 0
8, 105600, Note_on_c, 4, 66, 89
8, 105600, Note_on_c, 4, 69, 89
8, 106080, Note_off_c, 4, 69, 0
8, 106080, Note_off_c, 4, 66, 0
8, 106080, Note_on_c, 4, 64, 89
8, 106080, Sequencer_specific, 5, 5, 15, 15, 0, 2
8, 106080, Note_on_c, 4, 67, 89
8, 106560, Note_off_c, 4, 67, 0
8, 106560, Note_off_c, 4, 64, 0
8, 106560, Note_on_c, 4, 71, 89
8, 106560, Note_on_c, 4, 67, 89
8, 107040, Note_off_c, 4, 67, 0
8, 107040, Note_off_c, 4, 71, 0
8, 107040, Note_on_c, 4, 66, 89
8, 107040, Note_on_c, 4, 69, 89
8, 107520, Sequencer_specific, 6, 5, 15, 13, 69, 89, 4
8, 107520, Sequencer_specific, 6, 5, 15, 13, 66, 89, 4
8, 108000, Note_off_c, 4, 66, 0
8, 108000, Note_off_c, 4, 69, 0
8, 108960, Note_on_c, 4, 64, 89
8, 109440, Note_off_c, 4, 64, 0
8, 109440, Note_on_c, 4, 67, 89
8, 109920, Note_off_c, 4, 67, 0
8, 109920, Note_on_c, 4, 69, 89
8, 109920, Sequencer_specific, 5, 5, 15, 15, 0, 2
8, 110400, Note_off_c, 4, 69, 0
8, 110400, Note_on_c, 4, 67, 89
8, 110880, Note_off_c, 4, 67, 0
8, 110880, Note_on_c, 4, 64, 89
8, 110880, Note_on_c, 4, 71, 89
8, 110880, Note_on_c, 4, 67, 89
8, 110880, Note_on_c, 4, 59, 89
8, 110880, Sequencer_specific, 4, 5, 15, 15, 8
8, 111360, Sequencer_specific, 6, 5, 15, 13, 71, 89, 4
8, 111360, Sequencer_specific, 6, 5, 15, 13, 67, 89, 4
8, 111360, Sequencer_specific, 6, 5, 15, 13, 64, 89, 4
8, 111360, Sequencer_specific, 6, 5, 15, 13, 59, 89, 4
8, 111360, Sequencer_specific, 4, 5, 15, 15, 8
8, 112800, Note_off_c, 4, 59, 0
8, 112800, Note_off_c, 4, 64, 0
8, 112800, Note_off_c, 4, 67, 0
8, 112800, Note_off_c, 4, 71, 0
8, 112800, Note_on_c, 4, 71, 89
8, 112800, Note_on_c, 4, 59, 89
8, 112800, Sequencer_specific, 4, 5, 15, 15, 8
8, 113280, Note_off_c, 4, 59, 0
8, 113280, Note_off_c, 4, 71, 0
8, 113280, Note_on_c, 4, 71, 89
8, 113280, Note_on_c, 4, 59, 89
8, 113280, Sequencer_specific, 4, 5, 15, 15, 8
8, 113760, Note_off_c, 4, 59, 0
8, 113760, Note_off_c, 4, 71, 0
8, 113760, Note_on_c, 4, 69, 89
8, 113760, Sequencer_specific, 5, 5, 15, 15, 0, 2
8, 114240, Note_off_c, 4, 69, 0
8, 114240, Note_on_c, 4, 67, 89
8, 114720, Note_off_c, 4, 67, 0
8, 114720, Note_on_c, 4, 69, 89
8, 114720, Note_on_c, 4, 66, 89
8, 114720, Note_on_c, 4, 63, 89
8, 114720, Note_on_c, 4, 57, 89
8, 114720, Sequencer_specific, 4, 5, 15, 15, 8
8, 115200, Sequencer_specific, 6, 5, 15, 13, 69, 89, 4
8, 115200, Sequencer_specific, 6, 5, 15, 13, 63, 89, 4
8, 115200, Sequencer_specific, 6, 5, 15, 13, 66, 89, 4
8, 115200, Sequencer_specific, 6, 5, 15, 13, 57, 89, 4
8, 115200, Sequencer_specific, 4, 5, 15, 15, 8
8, 117120, Note_off_c, 4, 57, 0
8, 117120, Note_off_c, 4, 63, 0
8, 117120, Note_off_c, 4, 66, 0
8, 117120, Note_off_c, 4, 69, 0
8, 117120, Note_on_c, 4, 67, 89
8, 117600, Note_off_c, 4, 67, 0
8, 117600, Note_on_c, 4, 69, 89
8, 117600, Sequencer_specific, 5, 5, 15, 15, 0, 2
8, 118080, Note_off_c, 4, 69, 0
8, 118080, Note_on_c, 4, 67, 89
8, 118560, Note_off_c, 4, 67, 0
8, 118560, Note_on_c, 4, 71, 89
8, 118560, Note_on_c, 4, 67, 89
8, 118560, Note_on_c, 4, 64, 89
8, 118560, Note_on_c, 4, 59, 89
8, 118560, Sequencer_specific, 4, 5, 15, 15, 8
8, 119040, Sequencer_specific, 6, 5, 15, 13, 71, 89, 4
8, 119040, Sequencer_specific, 6, 5, 15, 13, 67, 89, 4
8, 119040, Sequencer_specific, 6, 5, 15, 13, 64, 89, 4
8, 119040, Sequencer_specific, 6, 5, 15, 13, 59, 89, 4
8, 119040, Sequencer_specific, 4, 5, 15, 15, 8
8, 119520, Note_off_c, 4, 59, 0
8, 119520, Note_off_c, 4, 64, 0
8, 119520, Note_off_c, 4, 67, 0
8, 119520, Note_off_c, 4, 71, 0
8, 119520, Note_on_c, 4, 71, 89
8, 119520, Note_on_c, 4, 67, 89
8, 119520, Note_on_c, 4, 64, 89
8, 119520, Note_on_c, 4, 59, 89
8, 119520, Sequencer_specific, 4, 5, 15, 15, 8
8, 120480, Note_off_c, 4, 59, 0
8, 120480, Note_off_c, 4, 64, 0
8, 120480, Note_off_c, 4, 67, 0
8, 120480, Note_off_c, 4, 71, 0
8, 120480, Note_on_c, 4, 71, 89
8, 120480, Note_on_c, 4, 67, 89
8, 120480, Note_on_c, 4, 64, 89
8, 120480, Note_on_c, 4, 59, 89
8, 120480, Sequencer_specific, 4, 5, 15, 15, 8
8, 120960, Note_off_c, 4, 59, 0
8, 120960, Note_off_c, 4, 64, 0
8, 120960, Note_off_c, 4, 67, 0
8, 120960, Note_off_c, 4, 71, 0
8, 120960, Note_on_c, 4, 71, 89
8, 120960, Note_on_c, 4, 67, 89
8, 120960, Note_on_c, 4, 64, 89
8, 120960, Note_on_c, 4, 59, 89
8, 120960, Sequencer_specific, 4, 5, 15, 15, 8
8, 121440, Note_off_c, 4, 59, 0
8, 121440, Note_off_c, 4, 64, 0
8, 121440, Note_off_c, 4, 67, 0
8, 121440, Note_off_c, 4, 71, 0
8, 121440, Note_on_c, 4, 69, 89
8, 121920, Note_off_c, 4, 69, 0
8, 121920, Note_on_c, 4, 67, 89
8, 122400, Note_off_c, 4, 67, 0
8, 122400, Note_on_c, 4, 69, 89
8, 122400, Note_on_c, 4, 64, 89
8, 122400, Note_on_c, 4, 61, 89
8, 122880, Sequencer_specific, 6, 5, 15, 13, 69, 89, 4
8, 122880, Sequencer_specific, 6, 5, 15, 13, 64, 89, 4
8, 122880, Sequencer_specific, 6, 5, 15, 13, 61, 89, 4
8, 124800, Note_off_c, 4, 61, 0
8, 124800, Note_off_c, 4, 64, 0
8, 124800, Note_off_c, 4, 69, 0
8, 124800, Note_on_c, 4, 64, 89
8, 125280, Note_off_c, 4, 64, 0
8, 125280, Note_on_c, 4, 66, 89
8, 125280, Sequencer_specific, 5, 5, 15, 15, 0, 2
8, 125760, Note_off_c, 4, 66, 0
8, 125760, Note_on_c, 4, 67, 89
8, 126240, Note_off_c, 4, 67, 0
8, 126240, Note_on_c, 4, 69, 89
8, 126720, Note_off_c, 4, 69, 0
8, 126720, Note_on_c, 4, 71, 89
8, 126720, Note_on_c, 4, 67, 89
8, 126720, Note_on_c, 4, 64, 89
8, 126720, Note_on_c, 4, 59, 89
8, 126720, Sequencer_specific, 4, 5, 15, 15, 8
8, 127680, Note_off_c, 4, 59, 0
8, 127680, Note_off_c, 4, 64, 0
8, 127680, Note_off_c, 4, 67, 0
8, 127680, Note_off_c, 4, 71, 0
8, 127680, Note_on_c, 4, 71, 89
8, 127680, Note_on_c, 4, 67, 89
8, 127680, Note_on_c, 4, 64, 89
8, 127680, Note_on_c, 4, 59, 89
8, 127680, Sequencer_specific, 4, 5, 15, 15, 8
8, 128640, Note_off_c, 4, 59, 0
8, 128640, Note_off_c, 4, 64, 0
8, 128640, Note_off_c, 4, 67, 0
8, 128640, Note_off_c, 4, 71, 0
8, 128640, Note_on_c, 4, 71, 89
8, 128640, Note_on_c, 4, 67, 89
8, 128640, Note_on_c, 4, 64, 89
8, 128640, Note_on_c, 4, 59, 89
8, 128640, Sequencer_specific, 4, 5, 15, 15, 8
8, 129120, Note_off_c, 4, 59, 0
8, 129120, Note_off_c, 4, 64, 0
8, 129120, Note_off_c, 4, 67, 0
8, 129120, Note_off_c, 4, 71, 0
8, 129120, Note_on_c, 4, 71, 89
8, 129120, Note_on_c, 4, 67, 89
8, 129120, Note_on_c, 4, 64, 89
8, 129120, Note_on_c, 4, 59, 89
8, 129120, Sequencer_specific, 4, 5, 15, 15, 8
8, 129600, Note_off_c, 4, 59, 0
8, 129600, Note_off_c, 4, 64, 0
8, 129600, Note_off_c, 4, 67, 0
8, 129600, Note_off_c, 4, 71, 0
8, 129600, Note_on_c, 4, 71, 89
8, 129600, Note_on_c, 4, 67, 89
8, 129600, Note_on_c, 4, 64, 89
8, 129600, Note_on_c, 4, 59, 89
8, 129600, Sequencer_specific, 4, 5, 15, 15, 8
8, 130560, Note_off_c, 4, 59, 0
8, 130560, Note_off_c, 4, 64, 0
8, 130560, Note_off_c, 4, 67, 0
8, 130560, Note_off_c, 4, 71, 0
8, 130560, Note_on_c, 4, 71, 89
8, 130560, Note_on_c, 4, 66, 89
8, 130560, Note_on_c, 4, 59, 89
8, 130560, Sequencer_specific, 4, 5, 15, 15, 8
8, 130560, Note_on_c, 4, 63, 89
8, 131040, Note_off_c, 4, 63, 0
8, 131040, Note_off_c, 4, 59, 0
8, 131040, Note_off_c, 4, 66, 0
8, 131040, Note_off_c, 4, 71, 0
8, 131040, Note_on_c, 4, 71, 89
8, 131040, Note_on_c, 4, 59, 89
8, 131040, Sequencer_specific, 4, 5, 15, 15, 8
8, 131520, Note_off_c, 4, 59, 0
8, 131520, Note_off_c, 4, 71, 0
8, 131520, Note_on_c, 4, 71, 89
8, 131520, Note_on_c, 4, 59, 89
8, 131520, Sequencer_specific, 4, 5, 15, 15, 8
8, 132480, Note_off_c, 4, 59, 0
8, 132480, Note_off_c, 4, 71, 0
8, 132480, Note_on_c, 4, 69, 89
8, 132960, Note_off_c, 4, 69, 0
8, 132960, Note_on_c, 4, 67, 89
8, 133440, Note_off_c, 4, 67, 0
8, 133440, Note_on_c, 4, 64, 89
8, 134400, Note_off_c, 4, 64, 0
8, 138240, Sequencer_specific, 3, 5, 15, 10
8, 148320, Note_on_c, 4, 64, 89
8, 148800, Note_off_c, 4, 64, 0
8, 148800, Note_on_c, 4, 67, 89
8, 149280, Note_off_c, 4, 67, 0
8, 149280, Note_on_c, 4, 64, 89
8, 149760, Note_off_c, 4, 64, 0
8, 149760, Note_on_c, 4, 67, 89
8, 150720, Note_off_c, 4, 67, 0
8, 150720, Note_on_c, 4, 67, 89
8, 151200, Note_off_c, 4, 67, 0
8, 151200, Note_on_c, 4, 64, 89
8, 151680, Note_off_c, 4, 64, 0
8, 151680, Note_on_c, 4, 67, 89
8, 152640, Note_off_c, 4, 67, 0
8, 152640, Note_on_c, 4, 67, 89
8, 153600, Note_off_c, 4, 67, 0
8, 153600, Note_on_c, 4, 67, 89
8, 154080, Note_off_c, 4, 67, 0
8, 154080, Note_on_c, 4, 67, 89
8, 154080, Sequencer_specific, 5, 5, 15, 15, 0, 2
8, 154560, Note_off_c, 4, 67, 0
8, 154560, Note_on_c, 4, 67, 89
8, 155040, Note_off_c, 4, 67, 0
8, 155040, Note_on_c, 4, 62, 89
8, 155520, Sequencer_specific, 6, 5, 15, 13, 62, 89, 4
8, 156000, Note_off_c, 4, 62, 0
8, 156000, Note_on_c, 4, 67, 89
8, 156000, Sequencer_specific, 5, 5, 15, 15, 0, 2
8, 156000, Note_on_c, 4, 62, 89
8, 156000, Note_on_c, 4, 59, 89
8, 156000, Sequencer_specific, 4, 5, 15, 15, 8
8, 156480, Note_off_c, 4, 59, 0
8, 156480, Note_off_c, 4, 62, 0
8, 156480, Note_off_c, 4, 67, 0
8, 156480, Note_on_c, 4, 67, 89
8, 156480, Note_on_c, 4, 62, 89
8, 156480, Note_on_c, 4, 59, 89
8, 156480, Sequencer_specific, 4, 5, 15, 15, 8
8, 156960, Note_off_c, 4, 59, 0
8, 156960, Note_off_c, 4, 62, 0
8, 156960, Note_off_c, 4, 67, 0
8, 156960, Note_on_c, 4, 62, 89
8, 156960, Note_on_c, 4, 59, 89
8, 156960, Sequencer_specific, 4, 5, 15, 15, 8
8, 156960, Note_on_c, 4, 67, 89
8, 157440, Note_off_c, 4, 67, 0
8, 157440, Note_off_c, 4, 59, 0
8, 157440, Note_off_c, 4, 62, 0
8, 157440, Note_on_c, 4, 67, 89
8, 157440, Note_on_c, 4, 62, 89
8, 157440, Note_on_c, 4, 59, 89
8, 157440, Sequencer_specific, 4, 5, 15, 15, 8
8, 157920, Note_off_c, 4, 59, 0
8, 157920, Note_off_c, 4, 62, 0
8, 157920, Note_off_c, 4, 67, 0
8, 157920, Note_on_c, 4, 67, 89
8, 158400, Note_off_c, 4, 67, 0
8, 158400, Note_on_c, 4, 67, 89
8, 159360, Note_off_c, 4, 67, 0
8, 159360, Note_on_c, 4, 67, 89
8, 159840, Note_off_c, 4, 67, 0
8, 159840, Note_on_c, 4, 67, 89
8, 159840, Sequencer_specific, 5, 5, 15, 15, 0, 2
8, 160320, Note_off_c, 4, 67, 0
8, 160320, Note_on_c, 4, 67, 89
8, 160800, Note_off_c, 4, 67, 0
8, 160800, Note_on_c, 4, 67, 89
8, 161280, Note_off_c, 4, 67, 0
8, 161280, Note_on_c, 4, 67, 89
8, 161760, Note_off_c, 4, 67, 0
8, 161760, Note_on_c, 4, 67, 89
8, 161760, Sequencer_specific, 5, 5, 15, 15, 0, 2
8, 162240, Note_off_c, 4, 67, 0
8, 162240, Note_on_c, 4, 67, 89
8, 162720, Note_off_c, 4, 67, 0
8, 162720, Note_on_c, 4, 62, 89
8, 163200, Sequencer_specific, 6, 5, 15, 13, 62, 89, 4
8, 163680, Note_off_c, 4, 62, 0
8, 163680, Note_on_c, 4, 67, 89
8, 163680, Sequencer_specific, 5, 5, 15, 15, 0, 2
8, 163680, Note_on_c, 4, 59, 89
8, 163680, Sequencer_specific, 4, 5, 15, 15, 8
8, 163680, Note_on_c, 4, 62, 89
8, 164160, Note_off_c, 4, 62, 0
8, 164160, Note_off_c, 4, 59, 0
8, 164160, Note_off_c, 4, 67, 0
8, 164640, Note_on_c, 4, 67, 89
8, 164640, Note_on_c, 4, 62, 89
8, 164640, Note_on_c, 4, 59, 89
8, 164640, Sequencer_specific, 4, 5, 15, 15, 8
8, 165120, Note_off_c, 4, 59, 0
8, 165120, Note_off_c, 4, 62, 0
8, 165120, Note_off_c, 4, 67, 0
8, 165120, Note_on_c, 4, 67, 89
8, 165600, Note_off_c, 4, 67, 0
8, 165600, Note_on_c, 4, 67, 89
8, 165600, Sequencer_specific, 5, 5, 15, 15, 0, 2
8, 166080, Note_off_c, 4, 67, 0
8, 166080, Note_on_c, 4, 67, 89
8, 166560, Note_off_c, 4, 67, 0
8, 166560, Note_on_c, 4, 67, 89
8, 167040, Note_off_c, 4, 67, 0
8, 167040, Note_on_c, 4, 67, 89
8, 167520, Note_off_c, 4, 67, 0
8, 167520, Note_on_c, 4, 67, 89
8, 167520, Sequencer_specific, 5, 5, 15, 15, 0, 2
8, 168000, Note_off_c, 4, 67, 0
8, 168000, Note_on_c, 4, 67, 89
8, 168480, Note_off_c, 4, 67, 0
8, 168480, Note_on_c, 4, 64, 89
8, 168960, Note_off_c, 4, 64, 0
8, 168960, Note_on_c, 4, 67, 89
8, 169440, Note_off_c, 4, 67, 0
8, 169440, Note_on_c, 4, 67, 89
8, 169440, Sequencer_specific, 5, 5, 15, 15, 0, 2
8, 169920, Note_off_c, 4, 67, 0
8, 169920, Note_on_c, 4, 64, 89
8, 170400, Note_off_c, 4, 64, 0
8, 170400, Note_on_c, 4, 67, 89
8, 170880, Sequencer_specific, 6, 5, 15, 13, 67, 89, 4
8, 171360, Note_off_c, 4, 67, 0
8, 171360, Note_on_c, 4, 67, 89
8, 171360, Note_on_c, 4, 62, 89
8, 171360, Note_on_c, 4, 59, 89
8, 171360, Sequencer_specific, 4, 5, 15, 15, 8
8, 171840, Note_off_c, 4, 59, 0
8, 171840, Note_off_c, 4, 62, 0
8, 171840, Note_off_c, 4, 67, 0
8, 172320, Note_on_c, 4, 67, 89
8, 172320, Note_on_c, 4, 62, 89
8, 172320, Note_on_c, 4, 59, 89
8, 172320, Sequencer_specific, 4, 5, 15, 15, 8
8, 172800, Note_off_c, 4, 59, 0
8, 172800, Note_off_c, 4, 62, 0
8, 172800, Note_off_c, 4, 67, 0
8, 172800, Note_on_c, 4, 67, 89
8, 173280, Note_off_c, 4, 67, 0
8, 173280, Note_on_c, 4, 67, 89
8, 173760, Note_off_c, 4, 67, 0
8, 173760, Note_on_c, 4, 67, 89
8, 174720, Note_off_c, 4, 67, 0
8, 174720, Note_on_c, 4, 67, 89
8, 175200, Note_off_c, 4, 67, 0
8, 175200, Note_on_c, 4, 67, 89
8, 175200, Sequencer_specific, 5, 5, 15, 15, 0, 2
8, 175680, Note_off_c, 4, 67, 0
8, 175680, Note_on_c, 4, 67, 89
8, 176160, Note_off_c, 4, 67, 0
8, 176160, Note_on_c, 4, 67, 89
8, 176640, Note_off_c, 4, 67, 0
8, 176640, Note_on_c, 4, 67, 89
8, 177120, Note_off_c, 4, 67, 0
8, 177120, Note_on_c, 4, 67, 89
8, 177120, Sequencer_specific, 5, 5, 15, 15, 0, 2
8, 177600, Note_off_c, 4, 67, 0
8, 177600, Note_on_c, 4, 67, 89
8, 178080, Note_off_c, 4, 67, 0
8, 178080, Note_on_c, 4, 67, 89
8, 178560, Note_off_c, 4, 67, 0
8, 178560, Note_on_c, 4, 67, 89
8, 179040, Note_off_c, 4, 67, 0
8, 179040, Note_on_c, 4, 59, 89
8, 179040, Sequencer_specific, 5, 5, 15, 15, 8, 2
8, 179520, Note_off_c, 4, 59, 0
8, 179520, Note_on_c, 4, 62, 89
8, 180000, Note_off_c, 4, 62, 0
8, 180000, Note_on_c, 4, 63, 89
8, 180480, Note_off_c, 4, 63, 0
8, 180480, Note_on_c, 4, 64, 89
8, 181440, Note_off_c, 4, 64, 0
8, 181440, Note_on_c, 4, 64, 89
8, 182400, Note_off_c, 4, 64, 0
8, 182400, Note_on_c, 4, 62, 89
8, 182880, Note_off_c, 4, 62, 0
8, 182880, Note_on_c, 4, 64, 89
8, 182880, Sequencer_specific, 5, 5, 15, 15, 0, 2
8, 183360, Note_off_c, 4, 64, 0
8, 183360, Note_on_c, 4, 67, 89
8, 183840, Note_off_c, 4, 67, 0
8, 183840, Note_on_c, 4, 68, 89
8, 184320, Note_off_c, 4, 68, 0
8, 184320, Note_on_c, 4, 69, 89
8, 185280, Note_off_c, 4, 69, 0
8, 185760, Note_on_c, 4, 55, 89
8, 185760, Sequencer_specific, 4, 5, 15, 15, 8
8, 186240, Note_off_c, 4, 55, 0
8, 186240, Note_on_c, 4, 57, 89
8, 186240, Sequencer_specific, 4, 5, 15, 15, 8
8, 186720, Note_off_c, 4, 57, 0
8, 186720, Note_on_c, 4, 59, 89
8, 186720, Sequencer_specific, 5, 5, 15, 15, 8, 2
8, 187200, Note_off_c, 4, 59, 0
8, 187200, Note_on_c, 4, 62, 89
8, 187680, Note_off_c, 4, 62, 0
8, 187680, Note_on_c, 4, 63, 89
8, 188160, Note_off_c, 4, 63, 0
8, 188160, Note_on_c, 4, 64, 89
8, 188640, Note_off_c, 4, 64, 0
8, 188640, Note_on_c, 4, 64, 89
8, 188640, Sequencer_specific, 5, 5, 15, 15, 0, 2
8, 189120, Note_off_c, 4, 64, 0
8, 189120, Note_on_c, 4, 64, 89
8, 189600, Note_off_c, 4, 64, 0
8, 189600, Note_on_c, 4, 64, 89
8, 190080, Note_off_c, 4, 64, 0
8, 190080, Note_on_c, 4, 64, 89
8, 190560, Note_off_c, 4, 64, 0
8, 190560, Note_on_c, 4, 64, 89
8, 190560, Sequencer_specific, 5, 5, 15, 15, 0, 2
8, 191040, Note_off_c, 4, 64, 0
8, 191040, Note_on_c, 4, 67, 89
8, 191520, Note_off_c, 4, 67, 0
8, 191520, Note_on_c, 4, 68, 89
8, 192000, Note_off_c, 4, 68, 0
8, 192000, Note_on_c, 4, 69, 89
8, 192960, Note_off_c, 4, 69, 0
8, 193440, Note_on_c, 4, 55, 89
8, 193440, Sequencer_specific, 4, 5, 15, 15, 8
8, 193920, Note_off_c, 4, 55, 0
8, 193920, Note_on_c, 4, 57, 89
8, 193920, Sequencer_specific, 4, 5, 15, 15, 8
8, 194400, Note_off_c, 4, 57, 0
8, 194400, Note_on_c, 4, 59, 89
8, 194400, Sequencer_specific, 5, 5, 15, 15, 8, 2
8, 194880, Note_off_c, 4, 59, 0
8, 194880, Note_on_c, 4, 62, 89
8, 195360, Note_off_c, 4, 62, 0
8, 195360, Note_on_c, 4, 63, 89
8, 195840, Note_off_c, 4, 63, 0
8, 195840, Note_on_c, 4, 64, 89
8, 196800, Note_off_c, 4, 64, 0
8, 196800, Note_on_c, 4, 64, 89
8, 197760, Note_off_c, 4, 64, 0
8, 197760, Note_on_c, 4, 62, 89
8, 198240, Note_off_c, 4, 62, 0
8, 198240, Note_on_c, 4, 64, 89
8, 198240, Sequencer_specific, 5, 5, 15, 15, 0, 2
8, 198720, Note_off_c, 4, 64, 0
8, 198720, Note_on_c, 4, 67, 89
8, 199200, Note_off_c, 4, 67, 0
8, 199200, Note_on_c, 4, 68, 89
8, 199680, Note_off_c, 4, 68, 0
8, 199680, Note_on_c, 4, 69, 89
8, 200640, Note_off_c, 4, 69, 0
8, 201120, Note_on_c, 4, 55, 89
8, 201120, Sequencer_specific, 4, 5, 15, 15, 8
8, 201600, Note_off_c, 4, 55, 0
8, 201600, Note_on_c, 4, 57, 89
8, 201600, Sequencer_specific, 4, 5, 15, 15, 8
8, 202080, Note_off_c, 4, 57, 0
8, 202080, Note_on_c, 4, 64, 89
8, 202080, Sequencer_specific, 5, 5, 15, 15, 8, 2
8, 202560, Note_off_c, 4, 64, 0
8, 202560, Note_on_c, 4, 67, 89
8, 203040, Note_off_c, 4, 67, 0
8, 203040, Note_on_c, 4, 64, 89
8, 203520, Note_off_c, 4, 64, 0
8, 203520, Note_on_c, 4, 67, 89
8, 204480, Note_off_c, 4, 67, 0
8, 204480, Note_on_c, 4, 67, 89
8, 204960, Note_off_c, 4, 67, 0
8, 204960, Note_on_c, 4, 64, 89
8, 205440, Note_off_c, 4, 64, 0
8, 205440, Note_on_c, 4, 67, 89
8, 206400, Note_off_c, 4, 67, 0
8, 206400, Note_on_c, 4, 67, 89
8, 207360, Note_off_c, 4, 67, 0
8, 207360, Note_on_c, 4, 67, 89
8, 207840, Note_off_c, 4, 67, 0
8, 207840, Note_on_c, 4, 64, 89
8, 207840, Sequencer_specific, 5, 5, 15, 15, 0, 2
8, 208320, Note_off_c, 4, 64, 0
8, 208320, Note_on_c, 4, 67, 89
8, 208800, Note_off_c, 4, 67, 0
8, 208800, Note_on_c, 4, 64, 89
8, 209280, Note_off_c, 4, 64, 0
8, 209280, Note_on_c, 4, 67, 89
8, 210240, Note_off_c, 4, 67, 0
8, 211200, Note_on_c, 4, 71, 89
8, 211200, Note_on_c, 4, 67, 89
8, 212160, Note_off_c, 4, 67, 0
8, 212160, Note_off_c, 4, 71, 0
8, 212160, Note_on_c, 4, 71, 89
8, 212160, Note_on_c, 4, 67, 89
8, 213120, Note_off_c, 4, 67, 0
8, 213120, Note_off_c, 4, 71, 0
8, 213120, Note_on_c, 4, 71, 89
8, 213120, Note_on_c, 4, 67, 89
8, 213600, Note_off_c, 4, 67, 0
8, 213600, Note_off_c, 4, 71, 0
8, 213600, Note_on_c, 4, 71, 89
8, 213600, Note_on_c, 4, 67, 89
8, 214080, Note_off_c, 4, 67, 0
8, 214080, Note_off_c, 4, 71, 0
8, 214080, Note_on_c, 4, 71, 89
8, 214080, Note_on_c, 4, 67, 89
8, 215040, Note_off_c, 4, 67, 0
8, 215040, Note_off_c, 4, 71, 0
8, 215040, Note_on_c, 4, 71, 89
8, 215040, Note_on_c, 4, 67, 89
8, 215040, Note_on_c, 4, 62, 89
8, 215520, Note_off_c, 4, 62, 0
8, 215520, Note_off_c, 4, 67, 0
8, 215520, Note_off_c, 4, 71, 0
8, 215520, Note_on_c, 4, 71, 89
8, 215520, Note_on_c, 4, 67, 89
8, 216000, Note_off_c, 4, 67, 0
8, 216000, Note_off_c, 4, 71, 0
8, 216000, Note_on_c, 4, 71, 89
8, 216000, Note_on_c, 4, 67, 89
8, 216960, Note_off_c, 4, 67, 0
8, 216960, Note_off_c, 4, 71, 0
8, 216960, Note_on_c, 4, 69, 89
8, 216960, Note_on_c, 4, 66, 89
8, 217440, Note_off_c, 4, 66, 0
8, 217440, Note_off_c, 4, 69, 0
8, 217440, Note_on_c, 4, 64, 89
8, 217440, Sequencer_specific, 5, 5, 15, 15, 0, 2
8, 217440, Note_on_c, 4, 67, 89
8, 217920, Note_off_c, 4, 67, 0
8, 217920, Note_off_c, 4, 64, 0
8, 217920, Note_on_c, 4, 64, 89
8, 218400, Note_off_c, 4, 64, 0
8, 218400, Note_on_c, 4, 64, 89
8, 218880, Note_off_c, 4, 64, 0
8, 218880, Note_on_c, 4, 71, 89
8, 218880, Note_on_c, 4, 67, 89
8, 219360, Note_off_c, 4, 67, 0
8, 219360, Note_off_c, 4, 71, 0
8, 219360, Note_on_c, 4, 71, 89
8, 219360, Note_on_c, 4, 67, 89
8, 219360, Sequencer_specific, 5, 5, 15, 15, 0, 2
8, 219840, Note_off_c, 4, 67, 0
8, 219840, Note_off_c, 4, 71, 0
8, 219840, Note_on_c, 4, 71, 89
8, 219840, Note_on_c, 4, 67, 89
8, 220320, Note_off_c, 4, 67, 0
8, 220320, Note_off_c, 4, 71, 0
8, 220320, Note_on_c, 4, 71, 89
8, 220320, Note_on_c, 4, 67, 89
8, 220800, Note_off_c, 4, 67, 0
8, 220800, Note_off_c, 4, 71, 0
8, 220800, Note_on_c, 4, 66, 89
8, 220800, Note_on_c, 4, 69, 89
8, 221280, Note_off_c, 4, 69, 0
8, 221280, Note_off_c, 4, 66, 0
8, 221280, Note_on_c, 4, 64, 89
8, 221280, Sequencer_specific, 5, 5, 15, 15, 0, 2
8, 221280, Note_on_c, 4, 67, 89
8, 221760, Note_off_c, 4, 67, 0
8, 221760, Note_off_c, 4, 64, 0
8, 221760, Note_on_c, 4, 71, 89
8, 221760, Note_on_c, 4, 67, 89
8, 222240, Note_off_c, 4, 67, 0
8, 222240, Note_off_c, 4, 71, 0
8, 222240, Note_on_c, 4, 66, 89
8, 222240, Note_on_c, 4, 69, 89
8, 222720, Note_off_c, 4, 69, 0
8, 222720, Note_off_c, 4, 66, 0
8, 223200, Note_on_c, 4, 61, 89
8, 223680, Note_off_c, 4, 61, 0
8, 224160, Note_on_c, 4, 61, 89
8, 224640, Note_off_c, 4, 61, 0
8, 224640, Note_on_c, 4, 61, 89
8, 225120, Note_off_c, 4, 61, 0
8, 225120, Note_on_c, 4, 64, 89
8, 225600, Note_off_c, 4, 64, 0
8, 225600, Note_on_c, 4, 67, 89
8, 226080, Note_off_c, 4, 67, 0
8, 226080, Note_on_c, 4, 69, 89
8, 226560, Note_off_c, 4, 69, 0
8, 226560, Note_on_c, 4, 71, 89
8, 226560, Note_on_c, 4, 67, 89
8, 227520, Note_off_c, 4, 67, 0
8, 227520, Note_off_c, 4, 71, 0
8, 227520, Note_on_c, 4, 71, 89
8, 227520, Note_on_c, 4, 67, 89
8, 228480, Note_off_c, 4, 67, 0
8, 228480, Note_off_c, 4, 71, 0
8, 228480, Note_on_c, 4, 71, 89
8, 228480, Note_on_c, 4, 67, 89
8, 228960, Note_off_c, 4, 67, 0
8, 228960, Note_off_c, 4, 71, 0
8, 228960, Note_on_c, 4, 71, 89
8, 228960, Note_on_c, 4, 67, 89
8, 229440, Note_off_c, 4, 67, 0
8, 229440, Note_off_c, 4, 71, 0
8, 229440, Note_on_c, 4, 71, 89
8, 229440, Note_on_c, 4, 67, 89
8, 230400, Note_off_c, 4, 67, 0
8, 230400, Note_off_c, 4, 71, 0
8, 230400, Note_on_c, 4, 71, 89
8, 230400, Note_on_c, 4, 67, 89
8, 230400, Note_on_c, 4, 62, 89
8, 230880, Note_off_c, 4, 62, 0
8, 230880, Note_off_c, 4, 67, 0
8, 230880, Note_off_c, 4, 71, 0
8, 230880, Note_on_c, 4, 71, 89
8, 230880, Note_on_c, 4, 67, 89
8, 231360, Note_off_c, 4, 67, 0
8, 231360, Note_off_c, 4, 71, 0
8, 231360, Note_on_c, 4, 71, 89
8, 231360, Note_on_c, 4, 67, 89
8, 232320, Note_off_c, 4, 67, 0
8, 232320, Note_off_c, 4, 71, 0
8, 232320, Note_on_c, 4, 69, 89
8, 232320, Note_on_c, 4, 66, 89
8, 232800, Note_off_c, 4, 66, 0
8, 232800, Note_off_c, 4, 69, 0
8, 232800, Note_on_c, 4, 64, 89
8, 232800, Sequencer_specific, 5, 5, 15, 15, 0, 2
8, 232800, Note_on_c, 4, 67, 89
8, 233280, Note_off_c, 4, 67, 0
8, 233280, Note_off_c, 4, 64, 0
8, 233280, Note_on_c, 4, 64, 89
8, 233760, Note_off_c, 4, 64, 0
8, 233760, Note_on_c, 4, 64, 89
8, 234240, Note_off_c, 4, 64, 0
8, 234240, Note_on_c, 4, 71, 89
8, 234240, Note_on_c, 4, 67, 89
8, 234720, Note_off_c, 4, 67, 0
8, 234720, Note_off_c, 4, 71, 0
8, 234720, Note_on_c, 4, 71, 89
8, 234720, Note_on_c, 4, 67, 89
8, 234720, Sequencer_specific, 5, 5, 15, 15, 0, 2
8, 235200, Note_off_c, 4, 67, 0
8, 235200, Note_off_c, 4, 71, 0
8, 235200, Note_on_c, 4, 71, 89
8, 235200, Note_on_c, 4, 67, 89
8, 235680, Note_off_c, 4, 67, 0
8, 235680, Note_off_c, 4, 71, 0
8, 235680, Note_on_c, 4, 71, 89
8, 235680, Note_on_c, 4, 67, 89
8, 236160, Note_off_c, 4, 67, 0
8, 236160, Note_off_c, 4, 71, 0
8, 236160, Note_on_c, 4, 66, 89
8, 236160, Note_on_c, 4, 69, 89
8, 236640, Note_off_c, 4, 69, 0
8, 236640, Note_off_c, 4, 66, 0
8, 236640, Note_on_c, 4, 64, 89
8, 236640, Sequencer_specific, 5, 5, 15, 15, 0, 2
8, 236640, Note_on_c, 4, 67, 89
8, 237120, Note_off_c, 4, 67, 0
8, 237120, Note_off_c, 4, 64, 0
8, 237120, Note_on_c, 4, 71, 89
8, 237120, Note_on_c, 4, 67, 89
8, 237600, Note_off_c, 4, 67, 0
8, 237600, Note_off_c, 4, 71, 0
8, 237600, Note_on_c, 4, 66, 89
8, 237600, Note_on_c, 4, 69, 89
8, 238080, Sequencer_specific, 6, 5, 15, 13, 69, 89, 4
8, 238080, Sequencer_specific, 6, 5, 15, 13, 66, 89, 4
8, 238560, Note_off_c, 4, 66, 0
8, 238560, Note_off_c, 4, 69, 0
8, 239520, Note_on_c, 4, 64, 89
8, 240000, Note_off_c, 4, 64, 0
8, 240000, Note_on_c, 4, 67, 89
8, 240480, Note_off_c, 4, 67, 0
8, 240480, Note_on_c, 4, 69, 89
8, 240480, Sequencer_specific, 5, 5, 15, 15, 0, 2
8, 240960, Note_off_c, 4, 69, 0
8, 240960, Note_on_c, 4, 67, 89
8, 241440, Note_off_c, 4, 67, 0
8, 241440, Note_on_c, 4, 64, 89
8, 241440, Note_on_c, 4, 71, 89
8, 241440, Note_on_c, 4, 67, 89
8, 241440, Note_on_c, 4, 59, 89
8, 241440, Sequencer_specific, 4, 5, 15, 15, 8
8, 241920, Sequencer_specific, 6, 5, 15, 13, 71, 89, 4
8, 241920, Sequencer_specific, 6, 5, 15, 13, 67, 89, 4
8, 241920, Sequencer_specific, 6, 5, 15, 13, 64, 89, 4
8, 241920, Sequencer_specific, 6, 5, 15, 13, 59, 89, 4
8, 241920, Sequencer_specific, 4, 5, 15, 15, 8
8, 243360, Note_off_c, 4, 59, 0
8, 243360, Note_off_c, 4, 64, 0
8, 243360, Note_off_c, 4, 67, 0
8, 243360, Note_off_c, 4, 71, 0
8, 243360, Note_on_c, 4, 71, 89
8, 243360, Note_on_c, 4, 59, 89
8, 243360, Sequencer_specific, 4, 5, 15, 15, 8
8, 243840, Note_off_c, 4, 59, 0
8, 243840, Note_off_c, 4, 71, 0
8, 243840, Note_on_c, 4, 71, 89
8, 243840, Note_on_c, 4, 59, 89
8, 243840, Sequencer_specific, 4, 5, 15, 15, 8
8, 244320, Note_off_c, 4, 59, 0
8, 244320, Note_off_c, 4, 71, 0
8, 244320, Note_on_c, 4, 69, 89
8, 244320, Sequencer_specific, 5, 5, 15, 15, 0, 2
8, 244800, Note_off_c, 4, 69, 0
8, 244800, Note_on_c, 4, 67, 89
8, 245280, Note_off_c, 4, 67, 0
8, 245280, Note_on_c, 4, 69, 89
8, 245280, Note_on_c, 4, 66, 89
8, 245280, Note_on_c, 4, 63, 89
8, 245280, Note_on_c, 4, 57, 89
8, 245280, Sequencer_specific, 4, 5, 15, 15, 8
8, 245760, Sequencer_specific, 6, 5, 15, 13, 69, 89, 4
8, 245760, Sequencer_specific, 6, 5, 15, 13, 63, 89, 4
8, 245760, Sequencer_specific, 6, 5, 15, 13, 66, 89, 4
8, 245760, Sequencer_specific, 6, 5, 15, 13, 57, 89, 4
8, 245760, Sequencer_specific, 4, 5, 15, 15, 8
8, 247680, Note_off_c, 4, 57, 0
8, 247680, Note_off_c, 4, 63, 0
8, 247680, Note_off_c, 4, 66, 0
8, 247680, Note_off_c, 4, 69, 0
8, 247680, Note_on_c, 4, 67, 89
8, 248160, Note_off_c, 4, 67, 0
8, 248160, Note_on_c, 4, 69, 89
8, 248160, Sequencer_specific, 5, 5, 15, 15, 0, 2
8, 248640, Note_off_c, 4, 69, 0
8, 248640, Note_on_c, 4, 67, 89
8, 249120, Note_off_c, 4, 67, 0
8, 249120, Note_on_c, 4, 71, 89
8, 249120, Note_on_c, 4, 67, 89
8, 249120, Note_on_c, 4, 64, 89
8, 249120, Note_on_c, 4, 59, 89
8, 249120, Sequencer_specific, 4, 5, 15, 15, 8
8, 249600, Sequencer_specific, 6, 5, 15, 13, 71, 89, 4
8, 249600, Sequencer_specific, 6, 5, 15, 13, 67, 89, 4
8, 249600, Sequencer_specific, 6, 5, 15, 13, 64, 89, 4
8, 249600, Sequencer_specific, 6, 5, 15, 13, 59, 89, 4
8, 249600, Sequencer_specific, 4, 5, 15, 15, 8
8, 250080, Note_off_c, 4, 59, 0
8, 250080, Note_off_c, 4, 64, 0
8, 250080, Note_off_c, 4, 67, 0
8, 250080, Note_off_c, 4, 71, 0
8, 250080, Note_on_c, 4, 71, 89
8, 250080, Note_on_c, 4, 67, 89
8, 250080, Note_on_c, 4, 64, 89
8, 250080, Note_on_c, 4, 59, 89
8, 250080, Sequencer_specific, 4, 5, 15, 15, 8
8, 251040, Note_off_c, 4, 59, 0
8, 251040, Note_off_c, 4, 64, 0
8, 251040, Note_off_c, 4, 67, 0
8, 251040, Note_off_c, 4, 71, 0
8, 251040, Note_on_c, 4, 71, 89
8, 251040, Note_on_c, 4, 67, 89
8, 251040, Note_on_c, 4, 64, 89
8, 251040, Note_on_c, 4, 59, 89
8, 251040, Sequencer_specific, 4, 5, 15, 15, 8
8, 251520, Note_off_c, 4, 59, 0
8, 251520, Note_off_c, 4, 64, 0
8, 251520, Note_off_c, 4, 67, 0
8, 251520, Note_off_c, 4, 71, 0
8, 251520, Note_on_c, 4, 71, 89
8, 251520, Note_on_c, 4, 67, 89
8, 251520, Note_on_c, 4, 64, 89
8, 251520, Note_on_c, 4, 59, 89
8, 251520, Sequencer_specific, 4, 5, 15, 15, 8
8, 252000, Note_off_c, 4, 59, 0
8, 252000, Note_off_c, 4, 64, 0
8, 252000, Note_off_c, 4, 67, 0
8, 252000, Note_off_c, 4, 71, 0
8, 252000, Note_on_c, 4, 69, 89
8, 252480, Note_off_c, 4, 69, 0
8, 252480, Note_on_c, 4, 67, 89
8, 252960, Note_off_c, 4, 67, 0
8, 252960, Note_on_c, 4, 69, 89
8, 252960, Note_on_c, 4, 64, 89
8, 252960, Note_on_c, 4, 61, 89
8, 253440, Sequencer_specific, 6, 5, 15, 13, 69, 89, 4
8, 253440, Sequencer_specific, 6, 5, 15, 13, 64, 89, 4
8, 253440, Sequencer_specific, 6, 5, 15, 13, 61, 89, 4
8, 255360, Note_off_c, 4, 61, 0
8, 255360, Note_off_c, 4, 64, 0
8, 255360, Note_off_c, 4, 69, 0
8, 255360, Note_on_c, 4, 64, 89
8, 255840, Note_off_c, 4, 64, 0
8, 255840, Note_on_c, 4, 66, 89
8, 255840, Sequencer_specific, 5, 5, 15, 15, 0, 2
8, 256320, Note_off_c, 4, 66, 0
8, 256320, Note_on_c, 4, 67, 89
8, 256800, Note_off_c, 4, 67, 0
8, 256800, Note_on_c, 4, 69, 89
8, 257280, Note_off_c, 4, 69, 0
8, 257280, Note_on_c, 4, 71, 89
8, 257280, Note_on_c, 4, 67, 89
8, 257280, Note_on_c, 4, 64, 89
8, 257280, Note_on_c, 4, 59, 89
8, 257280, Sequencer_specific, 4, 5, 15, 15, 8
8, 258240, Note_off_c, 4, 59, 0
8, 258240, Note_off_c, 4, 64, 0
8, 258240, Note_off_c, 4, 67, 0
8, 258240, Note_off_c, 4, 71, 0
8, 258240, Note_on_c, 4, 71, 89
8, 258240, Note_on_c, 4, 67, 89
8, 258240, Note_on_c, 4, 64, 89
8, 258240, Note_on_c, 4, 59, 89
8, 258240, Sequencer_specific, 4, 5, 15, 15, 8
8, 259200, Note_off_c, 4, 59, 0
8, 259200, Note_off_c, 4, 64, 0
8, 259200, Note_off_c, 4, 67, 0
8, 259200, Note_off_c, 4, 71, 0
8, 259200, Note_on_c, 4, 71, 89
8, 259200, Note_on_c, 4, 67, 89
8, 259200, Note_on_c, 4, 64, 89
8, 259200, Note_on_c, 4, 59, 89
8, 259200, Sequencer_specific, 4, 5, 15, 15, 8
8, 259680, Note_off_c, 4, 59, 0
8, 259680, Note_off_c, 4, 64, 0
8, 259680, Note_off_c, 4, 67, 0
8, 259680, Note_off_c, 4, 71, 0
8, 259680, Note_on_c, 4, 71, 89
8, 259680, Note_on_c, 4, 67, 89
8, 259680, Note_on_c, 4, 64, 89
8, 259680, Note_on_c, 4, 59, 89
8, 259680, Sequencer_specific, 4, 5, 15, 15, 8
8, 260160, Note_off_c, 4, 59, 0
8, 260160, Note_off_c, 4, 64, 0
8, 260160, Note_off_c, 4, 67, 0
8, 260160, Note_off_c, 4, 71, 0
8, 260160, Note_on_c, 4, 71, 89
8, 260160, Note_on_c, 4, 67, 89
8, 260160, Note_on_c, 4, 64, 89
8, 260160, Note_on_c, 4, 59, 89
8, 260160, Sequencer_specific, 4, 5, 15, 15, 8
8, 261120, Note_off_c, 4, 59, 0
8, 261120, Note_off_c, 4, 64, 0
8, 261120, Note_off_c, 4, 67, 0
8, 261120, Note_off_c, 4, 71, 0
8, 261120, Note_on_c, 4, 71, 89
8, 261120, Note_on_c, 4, 66, 89
8, 261120, Note_on_c, 4, 59, 89
8, 261120, Sequencer_specific, 4, 5, 15, 15, 8
8, 261120, Note_on_c, 4, 63, 89
8, 261600, Note_off_c, 4, 63, 0
8, 261600, Note_off_c, 4, 59, 0
8, 261600, Note_off_c, 4, 66, 0
8, 261600, Note_off_c, 4, 71, 0
8, 261600, Note_on_c, 4, 71, 89
8, 261600, Note_on_c, 4, 59, 89
8, 261600, Sequencer_specific, 4, 5, 15, 15, 8
8, 262080, Note_off_c, 4, 59, 0
8, 262080, Note_off_c, 4, 71, 0
8, 262080, Note_on_c, 4, 71, 89
8, 262080, Note_on_c, 4, 59, 89
8, 262080, Sequencer_specific, 4, 5, 15, 15, 8
8, 263040, Note_off_c, 4, 59, 0
8, 263040, Note_off_c, 4, 71, 0
8, 263040, Note_on_c, 4, 69, 89
8, 263520, Note_off_c, 4, 69, 0
8, 263520, Note_on_c, 4, 67, 89
8, 264000, Note_off_c, 4, 67, 0
8, 264000, Note_on_c, 4, 64, 89
8, 264960, Note_off_c, 4, 64, 0
8, 268800, Sequencer_specific, 3, 5, 15, 10
8, 280320, Note_on_c, 4, 52, 89
8, 280320, Sequencer_specific, 4, 5, 15, 15, 8
8, 281280, Note_off_c, 4, 52, 0
8, 281280, Note_on_c, 4, 64, 89
8, 282240, Note_off_c, 4, 64, 0
8, 282240, Note_on_c, 4, 62, 89
8, 282720, Note_off_c, 4, 62, 0
8, 282720, Note_on_c, 4, 64, 89
8, 282720, Sequencer_specific, 5, 5, 15, 15, 0, 2
8, 283200, Note_off_c, 4, 64, 0
8, 283200, Note_on_c, 4, 59, 89
8, 283200, Sequencer_specific, 4, 5, 15, 15, 8
8, 283680, Note_off_c, 4, 59, 0
8, 283680, Note_on_c, 4, 57, 89
8, 283680, Sequencer_specific, 4, 5, 15, 15, 8
8, 284160, Note_off_c, 4, 57, 0
8, 284640, Note_on_c, 4, 57, 89
8, 284640, Sequencer_specific, 4, 5, 15, 15, 8
8, 285120, Note_off_c, 4, 57, 0
8, 285600, Note_on_c, 4, 55, 89
8, 285600, Sequencer_specific, 4, 5, 15, 15, 8
8, 286080, Note_off_c, 4, 55, 0
8, 286080, Note_on_c, 4, 57, 89
8, 286080, Sequencer_specific, 4, 5, 15, 15, 8
8, 286560, Note_off_c, 4, 57, 0
8, 286560, Note_on_c, 4, 59, 89
8, 286560, Sequencer_specific, 5, 5, 15, 15, 8, 2
8, 287040, Note_off_c, 4, 59, 0
8, 287040, Note_on_c, 4, 57, 89
8, 287040, Sequencer_specific, 4, 5, 15, 15, 8
8, 287520, Note_off_c, 4, 57, 0
8, 287520, Note_on_c, 4, 55, 89
8, 287520, Sequencer_specific, 4, 5, 15, 15, 8
8, 288000, Note_off_c, 4, 55, 0
8, 288000, Note_on_c, 4, 52, 89
8, 288000, Sequencer_specific, 4, 5, 15, 15, 8
8, 288960, Note_off_c, 4, 52, 0
8, 288960, Note_on_c, 4, 64, 89
8, 289920, Note_off_c, 4, 64, 0
8, 289920, Note_on_c, 4, 62, 89
8, 290400, Note_off_c, 4, 62, 0
8, 290400, Note_on_c, 4, 64, 89
8, 290400, Sequencer_specific, 5, 5, 15, 15, 0, 2
8, 290880, Note_off_c, 4, 64, 0
8, 290880, Note_on_c, 4, 59, 89
8, 290880, Sequencer_specific, 4, 5, 15, 15, 8
8, 291360, Note_off_c, 4, 59, 0
8, 291360, Note_on_c, 4, 57, 89
8, 291360, Sequencer_specific, 4, 5, 15, 15, 8
8, 291840, Note_off_c, 4, 57, 0
8, 292320, Note_on_c, 4, 57, 89
8, 292320, Sequencer_specific, 4, 5, 15, 15, 8
8, 292800, Note_off_c, 4, 57, 0
8, 293280, Note_on_c, 4, 55, 89
8, 293280, Sequencer_specific, 4, 5, 15, 15, 8
8, 293760, Note_off_c, 4, 55, 0
8, 293760, Note_on_c, 4, 57, 89
8, 293760, Sequencer_specific, 4, 5, 15, 15, 8
8, 294240, Note_off_c, 4, 57, 0
8, 295680, Note_on_c, 4, 76, 89
8, 296640, Note_off_c, 4, 76, 0
8, 296640, Note_on_c, 4, 83, 89
8, 297600, Note_off_c, 4, 83, 0
8, 297600, Note_on_c, 4, 81, 89
8, 298560, Note_off_c, 4, 81, 0
8, 298560, Note_on_c, 4, 79, 89
8, 299040, Note_off_c, 4, 79, 0
8, 299040, Note_on_c, 4, 76, 89
8, 299520, Sequencer_specific, 6, 5, 15, 13, 76, 89, 4
8, 300480, Note_off_c, 4, 76, 0
8, 300480, Note_on_c, 4, 83, 89
8, 301440, Note_off_c, 4, 83, 0
8, 301440, Note_on_c, 4, 81, 89
8, 302400, Note_off_c, 4, 81, 0
8, 302400, Note_on_c, 4, 79, 89
8, 303360, Note_off_c, 4, 79, 0
8, 303360, Note_on_c, 4, 76, 89
8, 304320, Note_off_c, 4, 76, 0
8, 304320, Note_on_c, 4, 83, 89
8, 305280, Note_off_c, 4, 83, 0
8, 305280, Note_on_c, 4, 81, 89
8, 306240, Note_off_c, 4, 81, 0
8, 306240, Note_on_c, 4, 79, 89
8, 306720, Note_off_c, 4, 79, 0
8, 306720, Note_on_c, 4, 76, 89
8, 307200, Sequencer_specific, 6, 5, 15, 13, 76, 89, 4
8, 308160, Note_off_c, 4, 76, 0
8, 308160, Note_on_c, 4, 83, 89
8, 309120, Note_off_c, 4, 83, 0
8, 309120, Note_on_c, 4, 81, 89
8, 310080, Note_off_c, 4, 81, 0
8, 310080, Note_on_c, 4, 79, 89
8, 311040, Note_off_c, 4, 79, 0
8, 311040, Note_on_c, 4, 76, 89
8, 312000, Note_off_c, 4, 76, 0
8, 312000, Note_on_c, 4, 83, 89
8, 312960, Note_off_c, 4, 83, 0
8, 312960, Note_on_c, 4, 81, 89
8, 313920, Note_off_c, 4, 81, 0
8, 313920, Note_on_c, 4, 79, 89
8, 314400, Note_off_c, 4, 79, 0
8, 314400, Note_on_c, 4, 76, 89
8, 314880, Sequencer_specific, 6, 5, 15, 13, 76, 89, 4
8, 315840, Note_off_c, 4, 76, 0
8, 315840, Note_on_c, 4, 83, 89
8, 316800, Note_off_c, 4, 83, 0
8, 316800, Note_on_c, 4, 81, 89
8, 317760, Note_off_c, 4, 81, 0
8, 317760, Note_on_c, 4, 79, 89
8, 318720, Note_off_c, 4, 79, 0
8, 318720, Note_on_c, 4, 76, 89
8, 319200, Note_off_c, 4, 76, 0
8, 319200, Note_on_c, 4, 83, 89
8, 319200, Sequencer_specific, 5, 5, 15, 15, 0, 2
8, 319680, Note_off_c, 4, 83, 0
8, 319680, Note_on_c, 4, 76, 89
8, 320160, Note_off_c, 4, 76, 0
8, 320160, Note_on_c, 4, 83, 89
8, 320640, Note_off_c, 4, 83, 0
8, 320640, Note_on_c, 4, 76, 89
8, 321120, Note_off_c, 4, 76, 0
8, 321120, Note_on_c, 4, 83, 89
8, 321120, Sequencer_specific, 5, 5, 15, 15, 0, 2
8, 321600, Note_off_c, 4, 83, 0
8, 321600, Note_on_c, 4, 76, 89
8, 322080, Note_off_c, 4, 76, 0
8, 322080, Note_on_c, 4, 83, 89
8, 322560, Note_off_c, 4, 83, 0
8, 322560, Note_on_c, 4, 76, 89
8, 322560, Note_on_c, 4, 88, 89
8, 326400, Note_off_c, 4, 88, 0
8, 326400, Note_off_c, 4, 76, 0
8, 326400, Note_on_c, 4, 71, 89
8, 326400, Note_on_c, 4, 67, 89
8, 327360, Note_off_c, 4, 67, 0
8, 327360, Note_off_c, 4, 71, 0
8, 327360, Note_on_c, 4, 71, 89
8, 327360, Note_on_c, 4, 67, 89
8, 328320, Note_off_c, 4, 67, 0
8, 328320, Note_off_c, 4, 71, 0
8, 328320, Note_on_c, 4, 71, 89
8, 328320, Note_on_c, 4, 67, 89
8, 328800, Note_off_c, 4, 67, 0
8, 328800, Note_off_c, 4, 71, 0
8, 328800, Note_on_c, 4, 71, 89
8, 328800, Note_on_c, 4, 67, 89
8, 329280, Note_off_c, 4, 67, 0
8, 329280, Note_off_c, 4, 71, 0
8, 329280, Note_on_c, 4, 71, 89
8, 329280, Note_on_c, 4, 67, 89
8, 330240, Note_off_c, 4, 67, 0
8, 330240, Note_off_c, 4, 71, 0
8, 330240, Note_on_c, 4, 71, 89
8, 330240, Note_on_c, 4, 67, 89
8, 330240, Note_on_c, 4, 62, 89
8, 330720, Note_off_c, 4, 62, 0
8, 330720, Note_off_c, 4, 67, 0
8, 330720, Note_off_c, 4, 71, 0
8, 330720, Note_on_c, 4, 71, 89
8, 330720, Note_on_c, 4, 67, 89
8, 331200, Note_off_c, 4, 67, 0
8, 331200, Note_off_c, 4, 71, 0
8, 331200, Note_on_c, 4, 71, 89
8, 331200, Note_on_c, 4, 67, 89
8, 332160, Note_off_c, 4, 67, 0
8, 332160, Note_off_c, 4, 71, 0
8, 332160, Note_on_c, 4, 69, 89
8, 332160, Note_on_c, 4, 66, 89
8, 332640, Note_off_c, 4, 66, 0
8, 332640, Note_off_c, 4, 69, 0
8, 332640, Note_on_c, 4, 64, 89
8, 332640, Sequencer_specific, 5, 5, 15, 15, 0, 2
8, 332640, Note_on_c, 4, 67, 89
8, 333120, Note_off_c, 4, 67, 0
8, 333120, Note_off_c, 4, 64, 0
8, 333120, Note_on_c, 4, 64, 89
8, 333600, Note_off_c, 4, 64, 0
8, 333600, Note_on_c, 4, 64, 89
8, 334080, Note_off_c, 4, 64, 0
8, 334080, Note_on_c, 4, 71, 89
8, 334080, Note_on_c, 4, 67, 89
8, 334560, Note_off_c, 4, 67, 0
8, 334560, Note_off_c, 4, 71, 0
8, 334560, Note_on_c, 4, 71, 89
8, 334560, Note_on_c, 4, 67, 89
8, 334560, Sequencer_specific, 5, 5, 15, 15, 0, 2
8, 335040, Note_off_c, 4, 67, 0
8, 335040, Note_off_c, 4, 71, 0
8, 335040, Note_on_c, 4, 71, 89
8, 335040, Note_on_c, 4, 67, 89
8, 335520, Note_off_c, 4, 67, 0
8, 335520, Note_off_c, 4, 71, 0
8, 335520, Note_on_c, 4, 71, 89
8, 335520, Note_on_c, 4, 67, 89
8, 336000, Note_off_c, 4, 67, 0
8, 336000, Note_off_c, 4, 71, 0
8, 336000, Note_on_c, 4, 66, 89
8, 336000, Note_on_c, 4, 69, 89
8, 336480, Note_off_c, 4, 69, 0
8, 336480, Note_off_c, 4, 66, 0
8, 336480, Note_on_c, 4, 64, 89
8, 336480, Sequencer_specific, 5, 5, 15, 15, 0, 2
8, 336480, Note_on_c, 4, 67, 89
8, 336960, Note_off_c, 4, 67, 0
8, 336960, Note_off_c, 4, 64, 0
8, 336960, Note_on_c, 4, 71, 89
8, 336960, Note_on_c, 4, 67, 89
8, 337440, Note_off_c, 4, 67, 0
8, 337440, Note_off_c, 4, 71, 0
8, 337440, Note_on_c, 4, 66, 89
8, 337440, Note_on_c, 4, 69, 89
8, 337920, Note_off_c, 4, 69, 0
8, 337920, Note_off_c, 4, 66, 0
8, 338400, Note_on_c, 4, 61, 89
8, 338880, Note_off_c, 4, 61, 0
8, 339360, Note_on_c, 4, 61, 89
8, 339840, Note_off_c, 4, 61, 0
8, 339840, Note_on_c, 4, 61, 89
8, 340320, Note_off_c, 4, 61, 0
8, 340320, Note_on_c, 4, 64, 89
8, 340800, Note_off_c, 4, 64, 0
8, 340800, Note_on_c, 4, 67, 89
8, 341280, Note_off_c, 4, 67, 0
8, 341280, Note_on_c, 4, 69, 89
8, 341760, Note_off_c, 4, 69, 0
8, 341760, Note_on_c, 4, 71, 89
8, 341760, Note_on_c, 4, 67, 89
8, 342720, Note_off_c, 4, 67, 0
8, 342720, Note_off_c, 4, 71, 0
8, 342720, Note_on_c, 4, 71, 89
8, 342720, Note_on_c, 4, 67, 89
8, 343680, Note_off_c, 4, 67, 0
8, 343680, Note_off_c, 4, 71, 0
8, 343680, Note_on_c, 4, 71, 89
8, 343680, Note_on_c, 4, 67, 89
8, 344160, Note_off_c, 4, 67, 0
8, 344160, Note_off_c, 4, 71, 0
8, 344160, Note_on_c, 4, 71, 89
8, 344160, Note_on_c, 4, 67, 89
8, 344640, Note_off_c, 4, 67, 0
8, 344640, Note_off_c, 4, 71, 0
8, 344640, Note_on_c, 4, 71, 89
8, 344640, Note_on_c, 4, 67, 89
8, 345600, Note_off_c, 4, 67, 0
8, 345600, Note_off_c, 4, 71, 0
8, 345600, Note_on_c, 4, 71, 89
8, 345600, Note_on_c, 4, 67, 89
8, 345600, Note_on_c, 4, 62, 89
8, 346080, Note_off_c, 4, 62, 0
8, 346080, Note_off_c, 4, 67, 0
8, 346080, Note_off_c, 4, 71, 0
8, 346080, Note_on_c, 4, 71, 89
8, 346080, Note_on_c, 4, 67, 89
8, 346560, Note_off_c, 4, 67, 0
8, 346560, Note_off_c, 4, 71, 0
8, 346560, Note_on_c, 4, 71, 89
8, 346560, Note_on_c, 4, 67, 89
8, 347520, Note_off_c, 4, 67, 0
8, 347520, Note_off_c, 4, 71, 0
8, 347520, Note_on_c, 4, 69, 89
8, 347520, Note_on_c, 4, 66, 89
8, 348000, Note_off_c, 4, 66, 0
8, 348000, Note_off_c, 4, 69, 0
8, 348000, Note_on_c, 4, 64, 89
8, 348000, Sequencer_specific, 5, 5, 15, 15, 0, 2
8, 348000, Note_on_c, 4, 67, 89
8, 348480, Note_off_c, 4, 67, 0
8, 348480, Note_off_c, 4, 64, 0
8, 348480, Note_on_c, 4, 64, 89
8, 348960, Note_off_c, 4, 64, 0
8, 348960, Note_on_c, 4, 64, 89
8, 349440, Note_off_c, 4, 64, 0
8, 349440, Note_on_c, 4, 71, 89
8, 349440, Note_on_c, 4, 67, 89
8, 349920, Note_off_c, 4, 67, 0
8, 349920, Note_off_c, 4, 71, 0
8, 349920, Note_on_c, 4, 71, 89
8, 349920, Note_on_c, 4, 67, 89
8, 349920, Sequencer_specific, 5, 5, 15, 15, 0, 2
8, 350400, Note_off_c, 4, 67, 0
8, 350400, Note_off_c, 4, 71, 0
8, 350400, Note_on_c, 4, 71, 89
8, 350400, Note_on_c, 4, 67, 89
8, 350880, Note_off_c, 4, 67, 0
8, 350880, Note_off_c, 4, 71, 0
8, 350880, Note_on_c, 4, 71, 89
8, 350880, Note_on_c, 4, 67, 89
8, 351360, Note_off_c, 4, 67, 0
8, 351360, Note_off_c, 4, 71, 0
8, 351360, Note_on_c, 4, 66, 89
8, 351360, Note_on_c, 4, 69, 89
8, 351840, Note_off_c, 4, 69, 0
8, 351840, Note_off_c, 4, 66, 0
8, 351840, Note_on_c, 4, 64, 89
8, 351840, Sequencer_specific, 5, 5, 15, 15, 0, 2
8, 351840, Note_on_c, 4, 67, 89
8, 352320, Note_off_c, 4, 67, 0
8, 352320, Note_off_c, 4, 64, 0
8, 352320, Note_on_c, 4, 71, 89
8, 352320, Note_on_c, 4, 67, 89
8, 352800, Note_off_c, 4, 67, 0
8, 352800, Note_off_c, 4, 71, 0
8, 352800, Note_on_c, 4, 66, 89
8, 352800, Note_on_c, 4, 69, 89
8, 353280, Sequencer_specific, 6, 5, 15, 13, 69, 89, 4
8, 353280, Sequencer_specific, 6, 5, 15, 13, 66, 89, 4
8, 353760, Note_off_c, 4, 66, 0
8, 353760, Note_off_c, 4, 69, 0
8, 354720, Note_on_c, 4, 64, 89
8, 355200, Note_off_c, 4, 64, 0
8, 355200, Note_on_c, 4, 67, 89
8, 355680, Note_off_c, 4, 67, 0
8, 355680, Note_on_c, 4, 69, 89
8, 355680, Sequencer_specific, 5, 5, 15, 15, 0, 2
8, 356160, Note_off_c, 4, 69, 0
8, 356160, Note_on_c, 4, 67, 89
8, 356640, Note_off_c, 4, 67, 0
8, 356640, Note_on_c, 4, 64, 89
8, 356640, Note_on_c, 4, 71, 89
8, 356640, Note_on_c, 4, 67, 89
8, 356640, Note_on_c, 4, 59, 89
8, 356640, Sequencer_specific, 4, 5, 15, 15, 8
8, 357120, Sequencer_specific, 6, 5, 15, 13, 71, 89, 4
8, 357120, Sequencer_specific, 6, 5, 15, 13, 67, 89, 4
8, 357120, Sequencer_specific, 6, 5, 15, 13, 64, 89, 4
8, 357120, Sequencer_specific, 6, 5, 15, 13, 59, 89, 4
8, 357120, Sequencer_specific, 4, 5, 15, 15, 8
8, 358560, Note_off_c, 4, 59, 0
8, 358560, Note_off_c, 4, 64, 0
8, 358560, Note_off_c, 4, 67, 0
8, 358560, Note_off_c, 4, 71, 0
8, 358560, Note_on_c, 4, 71, 89
8, 358560, Note_on_c, 4, 59, 89
8, 358560, Sequencer_specific, 4, 5, 15, 15, 8
8, 359040, Note_off_c, 4, 59, 0
8, 359040, Note_off_c, 4, 71, 0
8, 359040, Note_on_c, 4, 71, 89
8, 359040, Note_on_c, 4, 59, 89
8, 359040, Sequencer_specific, 4, 5, 15, 15, 8
8, 359520, Note_off_c, 4, 59, 0
8, 359520, Note_off_c, 4, 71, 0
8, 359520, Note_on_c, 4, 69, 89
8, 359520, Sequencer_specific, 5, 5, 15, 15, 0, 2
8, 360000, Note_off_c, 4, 69, 0
8, 360000, Note_on_c, 4, 67, 89
8, 360480, Note_off_c, 4, 67, 0
8, 360480, Note_on_c, 4, 69, 89
8, 360480, Note_on_c, 4, 66, 89
8, 360480, Note_on_c, 4, 63, 89
8, 360480, Note_on_c, 4, 57, 89
8, 360480, Sequencer_specific, 4, 5, 15, 15, 8
8, 360960, Sequencer_specific, 6, 5, 15, 13, 69, 89, 4
8, 360960, Sequencer_specific, 6, 5, 15, 13, 63, 89, 4
8, 360960, Sequencer_specific, 6, 5, 15, 13, 66, 89, 4
8, 360960, Sequencer_specific, 6, 5, 15, 13, 57, 89, 4
8, 360960, Sequencer_specific, 4, 5, 15, 15, 8
8, 362880, Note_off_c, 4, 57, 0
8, 362880, Note_off_c, 4, 63, 0
8, 362880, Note_off_c, 4, 66, 0
8, 362880, Note_off_c, 4, 69, 0
8, 362880, Note_on_c, 4, 67, 89
8, 363360, Note_off_c, 4, 67, 0
8, 363360, Note_on_c, 4, 69, 89
8, 363360, Sequencer_specific, 5, 5, 15, 15, 0, 2
8, 363840, Note_off_c, 4, 69, 0
8, 363840, Note_on_c, 4, 67, 89
8, 364320, Note_off_c, 4, 67, 0
8, 364320, Note_on_c, 4, 71, 89
8, 364320, Note_on_c, 4, 67, 89
8, 364320, Note_on_c, 4, 64, 89
8, 364320, Note_on_c, 4, 59, 89
8, 364320, Sequencer_specific, 4, 5, 15, 15, 8
8, 364800, Sequencer_specific, 6, 5, 15, 13, 71, 89, 4
8, 364800, Sequencer_specific, 6, 5, 15, 13, 67, 89, 4
8, 364800, Sequencer_specific, 6, 5, 15, 13, 64, 89, 4
8, 364800, Sequencer_specific, 6, 5, 15, 13, 59, 89, 4
8, 364800, Sequencer_specific, 4, 5, 15, 15, 8
8, 365280, Note_off_c, 4, 59, 0
8, 365280, Note_off_c, 4, 64, 0
8, 365280, Note_off_c, 4, 67, 0
8, 365280, Note_off_c, 4, 71, 0
8, 365280, Note_on_c, 4, 71, 89
8, 365280, Note_on_c, 4, 67, 89
8, 365280, Note_on_c, 4, 64, 89
8, 365280, Note_on_c, 4, 59, 89
8, 365280, Sequencer_specific, 4, 5, 15, 15, 8
8, 366240, Note_off_c, 4, 59, 0
8, 366240, Note_off_c, 4, 64, 0
8, 366240, Note_off_c, 4, 67, 0
8, 366240, Note_off_c, 4, 71, 0
8, 366240, Note_on_c, 4, 71, 89
8, 366240, Note_on_c, 4, 67, 89
8, 366240, Note_on_c, 4, 64, 89
8, 366240, Note_on_c, 4, 59, 89
8, 366240, Sequencer_specific, 4, 5, 15, 15, 8
8, 366720, Note_off_c, 4, 59, 0
8, 366720, Note_off_c, 4, 64, 0
8, 366720, Note_off_c, 4, 67, 0
8, 366720, Note_off_c, 4, 71, 0
8, 366720, Note_on_c, 4, 71, 89
8, 366720, Note_on_c, 4, 67, 89
8, 366720, Note_on_c, 4, 64, 89
8, 366720, Note_on_c, 4, 59, 89
8, 366720, Sequencer_specific, 4, 5, 15, 15, 8
8, 367200, Note_off_c, 4, 59, 0
8, 367200, Note_off_c, 4, 64, 0
8, 367200, Note_off_c, 4, 67, 0
8, 367200, Note_off_c, 4, 71, 0
8, 367200, Note_on_c, 4, 69, 89
8, 367680, Note_off_c, 4, 69, 0
8, 367680, Note_on_c, 4, 67, 89
8, 368160, Note_off_c, 4, 67, 0
8, 368160, Note_on_c, 4, 69, 89
8, 368160, Note_on_c, 4, 64, 89
8, 368160, Note_on_c, 4, 61, 89
8, 368640, Sequencer_specific, 6, 5, 15, 13, 69, 89, 4
8, 368640, Sequencer_specific, 6, 5, 15, 13, 64, 89, 4
8, 368640, Sequencer_specific, 6, 5, 15, 13, 61, 89, 4
8, 370560, Note_off_c, 4, 61, 0
8, 370560, Note_off_c, 4, 64, 0
8, 370560, Note_off_c, 4, 69, 0
8, 370560, Note_on_c, 4, 64, 89
8, 371040, Note_off_c, 4, 64, 0
8, 371040, Note_on_c, 4, 66, 89
8, 371040, Sequencer_specific, 5, 5, 15, 15, 0, 2
8, 371520, Note_off_c, 4, 66, 0
8, 371520, Note_on_c, 4, 67, 89
8, 372000, Note_off_c, 4, 67, 0
8, 372000, Note_on_c, 4, 69, 89
8, 372480, Note_off_c, 4, 69, 0
8, 372480, Note_on_c, 4, 71, 89
8, 372480, Note_on_c, 4, 67, 89
8, 372480, Note_on_c, 4, 64, 89
8, 372480, Note_on_c, 4, 59, 89
8, 372480, Sequencer_specific, 4, 5, 15, 15, 8
8, 373440, Note_off_c, 4, 59, 0
8, 373440, Note_off_c, 4, 64, 0
8, 373440, Note_off_c, 4, 67, 0
8, 373440, Note_off_c, 4, 71, 0
8, 373440, Note_on_c, 4, 71, 89
8, 373440, Note_on_c, 4, 67, 89
8, 373440, Note_on_c, 4, 64, 89
8, 373440, Note_on_c, 4, 59, 89
8, 373440, Sequencer_specific, 4, 5, 15, 15, 8
8, 374400, Note_off_c, 4, 59, 0
8, 374400, Note_off_c, 4, 64, 0
8, 374400, Note_off_c, 4, 67, 0
8, 374400, Note_off_c, 4, 71, 0
8, 374400, Note_on_c, 4, 71, 89
8, 374400, Note_on_c, 4, 67, 89
8, 374400, Note_on_c, 4, 64, 89
8, 374400, Note_on_c, 4, 59, 89
8, 374400, Sequencer_specific, 4, 5, 15, 15, 8
8, 374880, Note_off_c, 4, 59, 0
8, 374880, Note_off_c, 4, 64, 0
8, 374880, Note_off_c, 4, 67, 0
8, 374880, Note_off_c, 4, 71, 0
8, 374880, Note_on_c, 4, 71, 89
8, 374880, Note_on_c, 4, 67, 89
8, 374880, Note_on_c, 4, 64, 89
8, 374880, Note_on_c, 4, 59, 89
8, 374880, Sequencer_specific, 4, 5, 15, 15, 8
8, 375360, Note_off_c, 4, 59, 0
8, 375360, Note_off_c, 4, 64, 0
8, 375360, Note_off_c, 4, 67, 0
8, 375360, Note_off_c, 4, 71, 0
8, 375360, Note_on_c, 4, 71, 89
8, 375360, Note_on_c, 4, 67, 89
8, 375360, Note_on_c, 4, 64, 89
8, 375360, Note_on_c, 4, 59, 89
8, 375360, Sequencer_specific, 4, 5, 15, 15, 8
8, 376320, Note_off_c, 4, 59, 0
8, 376320, Note_off_c, 4, 64, 0
8, 376320, Note_off_c, 4, 67, 0
8, 376320, Note_off_c, 4, 71, 0
8, 376320, Note_on_c, 4, 71, 89
8, 376320, Note_on_c, 4, 66, 89
8, 376320, Note_on_c, 4, 59, 89
8, 376320, Sequencer_specific, 4, 5, 15, 15, 8
8, 376320, Note_on_c, 4, 63, 89
8, 376800, Note_off_c, 4, 63, 0
8, 376800, Note_off_c, 4, 59, 0
8, 376800, Note_off_c, 4, 66, 0
8, 376800, Note_off_c, 4, 71, 0
8, 376800, Note_on_c, 4, 71, 89
8, 376800, Note_on_c, 4, 59, 89
8, 376800, Sequencer_specific, 4, 5, 15, 15, 8
8, 377280, Note_off_c, 4, 59, 0
8, 377280, Note_off_c, 4, 71, 0
8, 377280, Note_on_c, 4, 71, 89
8, 377280, Note_on_c, 4, 59, 89
8, 377280, Sequencer_specific, 4, 5, 15, 15, 8
8, 378240, Note_off_c, 4, 59, 0
8, 378240, Note_off_c, 4, 71, 0
8, 378240, Note_on_c, 4, 69, 89
8, 378720, Note_off_c, 4, 69, 0
8, 378720, Note_on_c, 4, 67, 89
8, 379200, Note_off_c, 4, 67, 0
8, 379200, Note_on_c, 4, 64, 89
8, 380160, Note_off_c, 4, 64, 0
8, 384000, Sequencer_specific, 3, 5, 15, 10
8, 384000, End_track
9, 0, Start_track
9, 0, Control_c, 5, 10, 22
9, 0, Title_t, "Lead 6 (Bass+Lead)"
9, 0, Program_c, 5, 87
9, 0, Sequencer_specific, 5, 5, 15, 9, 12, 64
9, 0, Sequencer_specific, 15, 5, 15, 6, 71, 101, 110, 101, 114, 97, 108, 32, 77, 73, 68, 73
9, 0, Key_signature, 1, "minor"
9, 0, Sequencer_specific, 4, 5, 15, 10, 1
9, 3840, Note_on_c, 5, 40, 89
9, 4800, Note_off_c, 5, 40, 0
9, 4800, Note_on_c, 5, 52, 89
9, 5760, Note_off_c, 5, 52, 0
9, 5760, Note_on_c, 5, 50, 89
9, 6240, Note_off_c, 5, 50, 0
9, 6240, Note_on_c, 5, 52, 89
9, 6240, Sequencer_specific, 5, 5, 15, 15, 0, 2
9, 6720, Note_off_c, 5, 52, 0
9, 6720, Note_on_c, 5, 47, 89
9, 7200, Note_off_c, 5, 47, 0
9, 7200, Note_on_c, 5, 45, 89
9, 7680, Note_off_c, 5, 45, 0
9, 8160, Note_on_c, 5, 45, 89
9, 8640, Note_off_c, 5, 45, 0
9, 9120, Note_on_c, 5, 43, 89
9, 9600, Note_off_c, 5, 43, 0
9, 9600, Note_on_c, 5, 45, 89
9, 10080, Note_off_c, 5, 45, 0
9, 10080, Note_on_c, 5, 47, 89
9, 10080, Sequencer_specific, 5, 5, 15, 15, 0, 2
9, 10560, Note_off_c, 5, 47, 0
9, 10560, Note_on_c, 5, 45, 89
9, 11040, Note_off_c, 5, 45, 0
9, 11040, Note_on_c, 5, 43, 89
9, 11520, Note_off_c, 5, 43, 0
9, 11520, Note_on_c, 5, 40, 89
9, 12480, Note_off_c, 5, 40, 0
9, 12480, Note_on_c, 5, 52, 89
9, 13440, Note_off_c, 5, 52, 0
9, 13440, Note_on_c, 5, 50, 89
9, 13920, Note_off_c, 5, 50, 0
9, 13920, Note_on_c, 5, 52, 89
9, 13920, Sequencer_specific, 5, 5, 15, 15, 0, 2
9, 14400, Note_off_c, 5, 52, 0
9, 14400, Note_on_c, 5, 47, 89
9, 14880, Note_off_c, 5, 47, 0
9, 14880, Note_on_c, 5, 45, 89
9, 15360, Note_off_c, 5, 45, 0
9, 15840, Note_on_c, 5, 45, 89
9, 16320, Note_off_c, 5, 45, 0
9, 16800, Note_on_c, 5, 43, 89
9, 17280, Note_off_c, 5, 43, 0
9, 17280, Note_on_c, 5, 45, 89
9, 17760, Note_off_c, 5, 45, 0
9, 17760, Note_on_c, 5, 47, 89
9, 17760, Sequencer_specific, 5, 5, 15, 15, 0, 2
9, 18240, Note_off_c, 5, 47, 0
9, 18240, Note_on_c, 5, 45, 89
9, 18720, Note_off_c, 5, 45, 0
9, 18720, Note_on_c, 5, 43, 89
9, 19200, Note_off_c, 5, 43, 0
9, 19200, Note_on_c, 5, 40, 89
9, 20160, Note_off_c, 5, 40, 0
9, 20160, Note_on_c, 5, 52, 89
9, 21120, Note_off_c, 5, 52, 0
9, 21120, Note_on_c, 5, 50, 89
9, 21600, Note_off_c, 5, 50, 0
9, 21600, Note_on_c, 5, 52, 89
9, 21600, Sequencer_specific, 5, 5, 15, 15, 0, 2
9, 22080, Note_off_c, 5, 52, 0
9, 22080, Note_on_c, 5, 47, 89
9, 22560, Note_off_c, 5, 47, 0
9, 22560, Note_on_c, 5, 45, 89
9, 23040, Note_off_c, 5, 45, 0
9, 23520, Note_on_c, 5, 45, 89
9, 24000, Note_off_c, 5, 45, 0
9, 24480, Note_on_c, 5, 43, 89
9, 24960, Note_off_c, 5, 43, 0
9, 24960, Note_on_c, 5, 45, 89
9, 25440, Note_off_c, 5, 45, 0
9, 25440, Note_on_c, 5, 47, 89
9, 25440, Sequencer_specific, 5, 5, 15, 15, 0, 2
9, 25920, Note_off_c, 5, 47, 0
9, 25920, Note_on_c, 5, 45, 89
9, 26400, Note_off_c, 5, 45, 0
9, 26400, Note_on_c, 5, 43, 89
9, 26880, Note_off_c, 5, 43, 0
9, 26880, Note_on_c, 5, 40, 89
9, 27840, Note_off_c, 5, 40, 0
9, 27840, Note_on_c, 5, 52, 89
9, 28800, Note_off_c, 5, 52, 0
9, 28800, Note_on_c, 5, 50, 89
9, 29280, Note_off_c, 5, 50, 0
9, 29280, Note_on_c, 5, 52, 89
9, 29280, Sequencer_specific, 5, 5, 15, 15, 0, 2
9, 29760, Note_off_c, 5, 52, 0
9, 29760, Note_on_c, 5, 47, 89
9, 30240, Note_off_c, 5, 47, 0
9, 30240, Note_on_c, 5, 45, 89
9, 30720, Note_off_c, 5, 45, 0
9, 31200, Note_on_c, 5, 45, 89
9, 31680, Note_off_c, 5, 45, 0
9, 32160, Note_on_c, 5, 43, 89
9, 32640, Note_off_c, 5, 43, 0
9, 32640, Note_on_c, 5, 45, 89
9, 33120, Note_off_c, 5, 45, 0
9, 33120, Note_on_c, 5, 47, 89
9, 33120, Sequencer_specific, 5, 5, 15, 15, 0, 2
9, 33600, Note_off_c, 5, 47, 0
9, 33600, Note_on_c, 5, 45, 89
9, 34080, Note_off_c, 5, 45, 0
9, 34080, Note_on_c, 5, 43, 89
9, 34560, Note_off_c, 5, 43, 0
9, 34560, Note_on_c, 5, 40, 89
9, 35520, Note_off_c, 5, 40, 0
9, 35520, Note_on_c, 5, 52, 89
9, 36480, Note_off_c, 5, 52, 0
9, 36480, Note_on_c, 5, 50, 89
9, 36960, Note_off_c, 5, 50, 0
9, 36960, Note_on_c, 5, 52, 89
9, 36960, Sequencer_specific, 5, 5, 15, 15, 0, 2
9, 37440, Note_off_c, 5, 52, 0
9, 37440, Note_on_c, 5, 47, 89
9, 37920, Note_off_c, 5, 47, 0
9, 37920, Note_on_c, 5, 45, 89
9, 38400, Note_off_c, 5, 45, 0
9, 38880, Note_on_c, 5, 45, 89
9, 39360, Note_off_c, 5, 45, 0
9, 39840, Note_on_c, 5, 43, 89
9, 40320, Note_off_c, 5, 43, 0
9, 40320, Note_on_c, 5, 45, 89
9, 40800, Note_off_c, 5, 45, 0
9, 40800, Note_on_c, 5, 47, 89
9, 40800, Sequencer_specific, 5, 5, 15, 15, 0, 2
9, 41280, Note_off_c, 5, 47, 0
9, 41280, Note_on_c, 5, 45, 89
9, 41760, Note_off_c, 5, 45, 0
9, 41760, Note_on_c, 5, 43, 89
9, 42240, Note_off_c, 5, 43, 0
9, 42240, Note_on_c, 5, 40, 89
9, 43200, Note_off_c, 5, 40, 0
9, 43200, Note_on_c, 5, 52, 89
9, 44160, Note_off_c, 5, 52, 0
9, 44160, Note_on_c, 5, 50, 89
9, 44640, Note_off_c, 5, 50, 0
9, 44640, Note_on_c, 5, 52, 89
9, 44640, Sequencer_specific, 5, 5, 15, 15, 0, 2
9, 45120, Note_off_c, 5, 52, 0
9, 45120, Note_on_c, 5, 47, 89
9, 45600, Note_off_c, 5, 47, 0
9, 45600, Note_on_c, 5, 45, 89
9, 46080, Note_off_c, 5, 45, 0
9, 49920, Note_on_c, 5, 40, 89
9, 50880, Note_off_c, 5, 40, 0
9, 50880, Note_on_c, 5, 52, 89
9, 51840, Note_off_c, 5, 52, 0
9, 51840, Note_on_c, 5, 50, 89
9, 52320, Note_off_c, 5, 50, 0
9, 52320, Note_on_c, 5, 52, 89
9, 52320, Sequencer_specific, 5, 5, 15, 15, 0, 2
9, 52800, Note_off_c, 5, 52, 0
9, 52800, Note_on_c, 5, 47, 89
9, 53280, Note_off_c, 5, 47, 0
9, 53280, Note_on_c, 5, 45, 89
9, 53760, Note_off_c, 5, 45, 0
9, 54240, Note_on_c, 5, 45, 89
9, 54720, Note_off_c, 5, 45, 0
9, 55200, Note_on_c, 5, 43, 89
9, 55680, Note_off_c, 5, 43, 0
9, 55680, Note_on_c, 5, 45, 89
9, 56160, Note_off_c, 5, 45, 0
9, 56160, Note_on_c, 5, 47, 89
9, 56160, Sequencer_specific, 5, 5, 15, 15, 0, 2
9, 56640, Note_off_c, 5, 47, 0
9, 56640, Note_on_c, 5, 45, 89
9, 57120, Note_off_c, 5, 45, 0
9, 57120, Note_on_c, 5, 43, 89
9, 57600, Note_off_c, 5, 43, 0
9, 57600, Note_on_c, 5, 40, 89
9, 58560, Note_off_c, 5, 40, 0
9, 58560, Note_on_c, 5, 52, 89
9, 59520, Note_off_c, 5, 52, 0
9, 59520, Note_on_c, 5, 50, 89
9, 60000, Note_off_c, 5, 50, 0
9, 60000, Note_on_c, 5, 52, 89
9, 60000, Sequencer_specific, 5, 5, 15, 15, 0, 2
9, 60480, Note_off_c, 5, 52, 0
9, 60480, Note_on_c, 5, 47, 89
9, 60960, Note_off_c, 5, 47, 0
9, 60960, Note_on_c, 5, 45, 89
9, 61440, Note_off_c, 5, 45, 0
9, 61920, Note_on_c, 5, 45, 89
9, 62400, Note_off_c, 5, 45, 0
9, 62880, Note_on_c, 5, 43, 89
9, 63360, Note_off_c, 5, 43, 0
9, 63360, Note_on_c, 5, 45, 89
9, 63840, Note_off_c, 5, 45, 0
9, 63840, Note_on_c, 5, 47, 89
9, 63840, Sequencer_specific, 5, 5, 15, 15, 0, 2
9, 64320, Note_off_c, 5, 47, 0
9, 64320, Note_on_c, 5, 45, 89
9, 64800, Note_off_c, 5, 45, 0
9, 64800, Note_on_c, 5, 43, 89
9, 65280, Note_off_c, 5, 43, 0
9, 65280, Note_on_c, 5, 40, 89
9, 66240, Note_off_c, 5, 40, 0
9, 66240, Note_on_c, 5, 52, 89
9, 67200, Note_off_c, 5, 52, 0
9, 67200, Note_on_c, 5, 50, 89
9, 67680, Note_off_c, 5, 50, 0
9, 67680, Note_on_c, 5, 52, 89
9, 67680, Sequencer_specific, 5, 5, 15, 15, 0, 2
9, 68160, Note_off_c, 5, 52, 0
9, 68160, Note_on_c, 5, 47, 89
9, 68640, Note_off_c, 5, 47, 0
9, 68640, Note_on_c, 5, 45, 89
9, 69120, Note_off_c, 5, 45, 0
9, 69600, Note_on_c, 5, 45, 89
9, 70080, Note_off_c, 5, 45, 0
9, 70560, Note_on_c, 5, 43, 89
9, 71040, Note_off_c, 5, 43, 0
9, 71040, Note_on_c, 5, 45, 89
9, 71520, Note_off_c, 5, 45, 0
9, 71520, Note_on_c, 5, 47, 89
9, 71520, Sequencer_specific, 5, 5, 15, 15, 0, 2
9, 72000, Note_off_c, 5, 47, 0
9, 72000, Note_on_c, 5, 45, 89
9, 72480, Note_off_c, 5, 45, 0
9, 72480, Note_on_c, 5, 43, 89
9, 72960, Note_off_c, 5, 43, 0
9, 72960, Note_on_c, 5, 40, 89
9, 73920, Note_off_c, 5, 40, 0
9, 73920, Note_on_c, 5, 52, 89
9, 74880, Note_off_c, 5, 52, 0
9, 74880, Note_on_c, 5, 50, 89
9, 75360, Note_off_c, 5, 50, 0
9, 75360, Note_on_c, 5, 52, 89
9, 75360, Sequencer_specific, 5, 5, 15, 15, 0, 2
9, 75840, Note_off_c, 5, 52, 0
9, 75840, Note_on_c, 5, 47, 89
9, 76320, Note_off_c, 5, 47, 0
9, 76320, Note_on_c, 5, 45, 89
9, 76800, Note_off_c, 5, 45, 0
9, 80640, Note_on_c, 5, 55, 89
9, 80640, Sequencer_specific, 4, 5, 15, 15, 2
9, 80640, Note_on_c, 5, 48, 89
9, 80640, Sequencer_specific, 4, 5, 15, 15, 2
9, 81120, Note_off_c, 5, 48, 0
9, 81120, Note_off_c, 5, 55, 0
9, 81120, Note_on_c, 5, 55, 89
9, 81120, Sequencer_specific, 5, 5, 15, 15, 2, 2
9, 81120, Note_on_c, 5, 48, 89
9, 81120, Sequencer_specific, 4, 5, 15, 15, 2
9, 81600, Note_off_c, 5, 48, 0
9, 81600, Note_off_c, 5, 55, 0
9, 81600, Note_on_c, 5, 55, 89
9, 81600, Sequencer_specific, 4, 5, 15, 15, 2
9, 81600, Note_on_c, 5, 48, 89
9, 81600, Sequencer_specific, 4, 5, 15, 15, 2
9, 82080, Note_off_c, 5, 48, 0
9, 82080, Note_off_c, 5, 55, 0
9, 82080, Note_on_c, 5, 55, 89
9, 82080, Sequencer_specific, 4, 5, 15, 15, 2
9, 82080, Note_on_c, 5, 48, 89
9, 82080, Sequencer_specific, 4, 5, 15, 15, 2
9, 82560, Note_off_c, 5, 48, 0
9, 82560, Note_off_c, 5, 55, 0
9, 82560, Note_on_c, 5, 55, 89
9, 82560, Sequencer_specific, 4, 5, 15, 15, 2
9, 82560, Note_on_c, 5, 48, 89
9, 82560, Sequencer_specific, 4, 5, 15, 15, 2
9, 83040, Note_off_c, 5, 48, 0
9, 83040, Note_off_c, 5, 55, 0
9, 83040, Note_on_c, 5, 55, 89
9, 83040, Sequencer_specific, 5, 5, 15, 15, 2, 2
9, 83040, Note_on_c, 5, 48, 89
9, 83040, Sequencer_specific, 4, 5, 15, 15, 2
9, 83520, Note_off_c, 5, 48, 0
9, 83520, Note_off_c, 5, 55, 0
9, 83520, Note_on_c, 5, 55, 89
9, 83520, Sequencer_specific, 4, 5, 15, 15, 2
9, 83520, Note_on_c, 5, 48, 89
9, 83520, Sequencer_specific, 4, 5, 15, 15, 2
9, 84000, Note_off_c, 5, 48, 0
9, 84000, Note_off_c, 5, 55, 0
9, 84000, Note_on_c, 5, 55, 89
9, 84000, Sequencer_specific, 4, 5, 15, 15, 2
9, 84000, Note_on_c, 5, 48, 89
9, 84000, Sequencer_specific, 4, 5, 15, 15, 2
9, 84480, Note_off_c, 5, 48, 0
9, 84480, Note_off_c, 5, 55, 0
9, 84480, Note_on_c, 5, 54, 89
9, 84480, Sequencer_specific, 4, 5, 15, 15, 2
9, 84480, Note_on_c, 5, 47, 89
9, 84480, Sequencer_specific, 4, 5, 15, 15, 2
9, 84960, Note_off_c, 5, 47, 0
9, 84960, Note_off_c, 5, 54, 0
9, 84960, Note_on_c, 5, 54, 89
9, 84960, Sequencer_specific, 5, 5, 15, 15, 2, 2
9, 84960, Note_on_c, 5, 47, 89
9, 84960, Sequencer_specific, 4, 5, 15, 15, 2
9, 85440, Note_off_c, 5, 47, 0
9, 85440, Note_off_c, 5, 54, 0
9, 85440, Note_on_c, 5, 54, 89
9, 85440, Sequencer_specific, 4, 5, 15, 15, 2
9, 85440, Note_on_c, 5, 47, 89
9, 85440, Sequencer_specific, 4, 5, 15, 15, 2
9, 85920, Note_off_c, 5, 47, 0
9, 85920, Note_off_c, 5, 54, 0
9, 85920, Note_on_c, 5, 54, 89
9, 85920, Sequencer_specific, 4, 5, 15, 15, 2
9, 85920, Note_on_c, 5, 47, 89
9, 85920, Sequencer_specific, 4, 5, 15, 15, 2
9, 86400, Note_off_c, 5, 47, 0
9, 86400, Note_off_c, 5, 54, 0
9, 86400, Note_on_c, 5, 54, 89
9, 86400, Sequencer_specific, 4, 5, 15, 15, 2
9, 86400, Note_on_c, 5, 47, 89
9, 86400, Sequencer_specific, 4, 5, 15, 15, 2
9, 86880, Note_off_c, 5, 47, 0
9, 86880, Note_off_c, 5, 54, 0
9, 86880, Note_on_c, 5, 54, 89
9, 86880, Sequencer_specific, 5, 5, 15, 15, 2, 2
9, 86880, Note_on_c, 5, 47, 89
9, 86880, Sequencer_specific, 4, 5, 15, 15, 2
9, 87360, Note_off_c, 5, 47, 0
9, 87360, Note_off_c, 5, 54, 0
9, 87360, Note_on_c, 5, 54, 89
9, 87360, Sequencer_specific, 4, 5, 15, 15, 2
9, 87360, Note_on_c, 5, 47, 89
9, 87360, Sequencer_specific, 4, 5, 15, 15, 2
9, 87840, Note_off_c, 5, 47, 0
9, 87840, Note_off_c, 5, 54, 0
9, 87840, Note_on_c, 5, 54, 89
9, 87840, Sequencer_specific, 4, 5, 15, 15, 2
9, 87840, Note_on_c, 5, 47, 89
9, 87840, Sequencer_specific, 4, 5, 15, 15, 2
9, 88320, Note_off_c, 5, 47, 0
9, 88320, Note_off_c, 5, 54, 0
9, 88320, Note_on_c, 5, 47, 89
9, 88320, Note_on_c, 5, 40, 89
9, 88800, Note_off_c, 5, 40, 0
9, 88800, Note_off_c, 5, 47, 0
9, 88800, Note_on_c, 5, 47, 89
9, 88800, Note_on_c, 5, 40, 89
9, 88800, Sequencer_specific, 5, 5, 15, 15, 0, 2
9, 89280, Note_off_c, 5, 40, 0
9, 89280, Note_off_c, 5, 47, 0
9, 89280, Note_on_c, 5, 47, 89
9, 89280, Note_on_c, 5, 40, 89
9, 89760, Note_off_c, 5, 40, 0
9, 89760, Note_off_c, 5, 47, 0
9, 89760, Note_on_c, 5, 47, 89
9, 89760, Note_on_c, 5, 40, 89
9, 90240, Note_off_c, 5, 40, 0
9, 90240, Note_off_c, 5, 47, 0
9, 90240, Note_on_c, 5, 47, 89
9, 90240, Note_on_c, 5, 40, 89
9, 90720, Note_off_c, 5, 40, 0
9, 90720, Note_off_c, 5, 47, 0
9, 90720, Note_on_c, 5, 47, 89
9, 90720, Note_on_c, 5, 40, 89
9, 90720, Sequencer_specific, 5, 5, 15, 15, 0, 2
9, 91200, Note_off_c, 5, 40, 0
9, 91200, Note_off_c, 5, 47, 0
9, 91200, Note_on_c, 5, 47, 89
9, 91200, Note_on_c, 5, 40, 89
9, 91680, Note_off_c, 5, 40, 0
9, 91680, Note_off_c, 5, 47, 0
9, 91680, Note_on_c, 5, 52, 89
9, 91680, Note_on_c, 5, 45, 89
9, 92160, Note_off_c, 5, 45, 0
9, 92160, Note_off_c, 5, 52, 0
9, 92640, Note_on_c, 5, 52, 89
9, 92640, Note_on_c, 5, 45, 89
9, 93120, Note_off_c, 5, 45, 0
9, 93120, Note_off_c, 5, 52, 0
9, 93600, Note_on_c, 5, 52, 89
9, 93600, Note_on_c, 5, 45, 89
9, 94080, Note_off_c, 5, 45, 0
9, 94080, Note_off_c, 5, 52, 0
9, 94080, Note_on_c, 5, 52, 89
9, 94080, Note_on_c, 5, 45, 89
9, 95040, Note_off_c, 5, 45, 0
9, 95040, Note_off_c, 5, 52, 0
9, 95040, Note_on_c, 5, 52, 89
9, 95040, Note_on_c, 5, 45, 89
9, 96000, Note_off_c, 5, 45, 0
9, 96000, Note_off_c, 5, 52, 0
9, 96000, Note_on_c, 5, 55, 89
9, 96000, Sequencer_specific, 4, 5, 15, 15, 2
9, 96000, Note_on_c, 5, 48, 89
9, 96000, Sequencer_specific, 4, 5, 15, 15, 2
9, 96480, Note_off_c, 5, 48, 0
9, 96480, Note_off_c, 5, 55, 0
9, 96480, Note_on_c, 5, 55, 89
9, 96480, Sequencer_specific, 5, 5, 15, 15, 2, 2
9, 96480, Note_on_c, 5, 48, 89
9, 96480, Sequencer_specific, 4, 5, 15, 15, 2
9, 96960, Note_off_c, 5, 48, 0
9, 96960, Note_off_c, 5, 55, 0
9, 96960, Note_on_c, 5, 55, 89
9, 96960, Sequencer_specific, 4, 5, 15, 15, 2
9, 96960, Note_on_c, 5, 48, 89
9, 96960, Sequencer_specific, 4, 5, 15, 15, 2
9, 97440, Note_off_c, 5, 48, 0
9, 97440, Note_off_c, 5, 55, 0
9, 97440, Note_on_c, 5, 55, 89
9, 97440, Sequencer_specific, 4, 5, 15, 15, 2
9, 97440, Note_on_c, 5, 48, 89
9, 97440, Sequencer_specific, 4, 5, 15, 15, 2
9, 97920, Note_off_c, 5, 48, 0
9, 97920, Note_off_c, 5, 55, 0
9, 97920, Note_on_c, 5, 55, 89
9, 97920, Sequencer_specific, 4, 5, 15, 15, 2
9, 97920, Note_on_c, 5, 48, 89
9, 97920, Sequencer_specific, 4, 5, 15, 15, 2
9, 98400, Note_off_c, 5, 48, 0
9, 98400, Note_off_c, 5, 55, 0
9, 98400, Note_on_c, 5, 55, 89
9, 98400, Sequencer_specific, 5, 5, 15, 15, 2, 2
9, 98400, Note_on_c, 5, 48, 89
9, 98400, Sequencer_specific, 4, 5, 15, 15, 2
9, 98880, Note_off_c, 5, 48, 0
9, 98880, Note_off_c, 5, 55, 0
9, 98880, Note_on_c, 5, 55, 89
9, 98880, Sequencer_specific, 4, 5, 15, 15, 2
9, 98880, Note_on_c, 5, 48, 89
9, 98880, Sequencer_specific, 4, 5, 15, 15, 2
9, 99360, Note_off_c, 5, 48, 0
9, 99360, Note_off_c, 5, 55, 0
9, 99360, Note_on_c, 5, 55, 89
9, 99360, Sequencer_specific, 4, 5, 15, 15, 2
9, 99360, Note_on_c, 5, 48, 89
9, 99360, Sequencer_specific, 4, 5, 15, 15, 2
9, 99840, Note_off_c, 5, 48, 0
9, 99840, Note_off_c, 5, 55, 0
9, 99840, Note_on_c, 5, 54, 89
9, 99840, Sequencer_specific, 4, 5, 15, 15, 2
9, 99840, Note_on_c, 5, 47, 89
9, 99840, Sequencer_specific, 4, 5, 15, 15, 2
9, 100320, Note_off_c, 5, 47, 0
9, 100320, Note_off_c, 5, 54, 0
9, 100320, Note_on_c, 5, 54, 89
9, 100320, Sequencer_specific, 5, 5, 15, 15, 2, 2
9, 100320, Note_on_c, 5, 47, 89
9, 100320, Sequencer_specific, 4, 5, 15, 15, 2
9, 100800, Note_off_c, 5, 47, 0
9, 100800, Note_off_c, 5, 54, 0
9, 100800, Note_on_c, 5, 54, 89
9, 100800, Sequencer_specific, 4, 5, 15, 15, 2
9, 100800, Note_on_c, 5, 47, 89
9, 100800, Sequencer_specific, 4, 5, 15, 15, 2
9, 101280, Note_off_c, 5, 47, 0
9, 101280, Note_off_c, 5, 54, 0
9, 101280, Note_on_c, 5, 54, 89
9, 101280, Sequencer_specific, 4, 5, 15, 15, 2
9, 101280, Note_on_c, 5, 47, 89
9, 101280, Sequencer_specific, 4, 5, 15, 15, 2
9, 101760, Note_off_c, 5, 47, 0
9, 101760, Note_off_c, 5, 54, 0
9, 101760, Note_on_c, 5, 54, 89
9, 101760, Sequencer_specific, 4, 5, 15, 15, 2
9, 101760, Note_on_c, 5, 47, 89
9, 101760, Sequencer_specific, 4, 5, 15, 15, 2
9, 102240, Note_off_c, 5, 47, 0
9, 102240, Note_off_c, 5, 54, 0
9, 102240, Note_on_c, 5, 54, 89
9, 102240, Sequencer_specific, 5, 5, 15, 15, 2, 2
9, 102240, Note_on_c, 5, 47, 89
9, 102240, Sequencer_specific, 4, 5, 15, 15, 2
9, 102720, Note_off_c, 5, 47, 0
9, 102720, Note_off_c, 5, 54, 0
9, 102720, Note_on_c, 5, 54, 89
9, 102720, Sequencer_specific, 4, 5, 15, 15, 2
9, 102720, Note_on_c, 5, 47, 89
9, 102720, Sequencer_specific, 4, 5, 15, 15, 2
9, 103200, Note_off_c, 5, 47, 0
9, 103200, Note_off_c, 5, 54, 0
9, 103200, Note_on_c, 5, 54, 89
9, 103200, Sequencer_specific, 4, 5, 15, 15, 2
9, 103200, Note_on_c, 5, 47, 89
9, 103200, Sequencer_specific, 4, 5, 15, 15, 2
9, 103680, Note_off_c, 5, 47, 0
9, 103680, Note_off_c, 5, 54, 0
9, 103680, Note_on_c, 5, 47, 89
9, 103680, Note_on_c, 5, 40, 89
9, 104160, Note_off_c, 5, 40, 0
9, 104160, Note_off_c, 5, 47, 0
9, 104160, Note_on_c, 5, 47, 89
9, 104160, Note_on_c, 5, 40, 89
9, 104160, Sequencer_specific, 5, 5, 15, 15, 0, 2
9, 104640, Note_off_c, 5, 40, 0
9, 104640, Note_off_c, 5, 47, 0
9, 104640, Note_on_c, 5, 47, 89
9, 104640, Note_on_c, 5, 40, 89
9, 105120, Note_off_c, 5, 40, 0
9, 105120, Note_off_c, 5, 47, 0
9, 105120, Note_on_c, 5, 47, 89
9, 105120, Note_on_c, 5, 40, 89
9, 105600, Note_off_c, 5, 40, 0
9, 105600, Note_off_c, 5, 47, 0
9, 105600, Note_on_c, 5, 47, 89
9, 105600, Note_on_c, 5, 40, 89
9, 106080, Note_off_c, 5, 40, 0
9, 106080, Note_off_c, 5, 47, 0
9, 106080, Note_on_c, 5, 47, 89
9, 106080, Note_on_c, 5, 40, 89
9, 106080, Sequencer_specific, 5, 5, 15, 15, 0, 2
9, 106560, Note_off_c, 5, 40, 0
9, 106560, Note_off_c, 5, 47, 0
9, 106560, Note_on_c, 5, 47, 89
9, 106560, Note_on_c, 5, 40, 89
9, 107040, Note_off_c, 5, 40, 0
9, 107040, Note_off_c, 5, 47, 0
9, 107040, Note_on_c, 5, 52, 89
9, 107040, Note_on_c, 5, 45, 89
9, 107520, Note_off_c, 5, 45, 0
9, 107520, Note_off_c, 5, 52, 0
9, 108000, Note_on_c, 5, 52, 89
9, 108000, Note_on_c, 5, 45, 89
9, 108480, Note_off_c, 5, 45, 0
9, 108480, Note_off_c, 5, 52, 0
9, 108960, Note_on_c, 5, 52, 89
9, 108960, Note_on_c, 5, 45, 89
9, 109440, Note_off_c, 5, 45, 0
9, 109440, Note_off_c, 5, 52, 0
9, 109440, Note_on_c, 5, 52, 89
9, 109440, Note_on_c, 5, 45, 89
9, 110400, Note_off_c, 5, 45, 0
9, 110400, Note_off_c, 5, 52, 0
9, 110400, Note_on_c, 5, 52, 89
9, 110400, Note_on_c, 5, 45, 89
9, 111360, Note_off_c, 5, 45, 0
9, 111360, Note_off_c, 5, 52, 0
9, 111360, Note_on_c, 5, 55, 89
9, 111360, Sequencer_specific, 4, 5, 15, 15, 2
9, 111360, Note_on_c, 5, 48, 89
9, 111360, Sequencer_specific, 4, 5, 15, 15, 2
9, 111840, Note_off_c, 5, 48, 0
9, 111840, Note_off_c, 5, 55, 0
9, 111840, Note_on_c, 5, 55, 89
9, 111840, Sequencer_specific, 5, 5, 15, 15, 2, 2
9, 111840, Note_on_c, 5, 48, 89
9, 111840, Sequencer_specific, 4, 5, 15, 15, 2
9, 112320, Note_off_c, 5, 48, 0
9, 112320, Note_off_c, 5, 55, 0
9, 112320, Note_on_c, 5, 55, 89
9, 112320, Sequencer_specific, 4, 5, 15, 15, 2
9, 112320, Note_on_c, 5, 48, 89
9, 112320, Sequencer_specific, 4, 5, 15, 15, 2
9, 112800, Note_off_c, 5, 48, 0
9, 112800, Note_off_c, 5, 55, 0
9, 112800, Note_on_c, 5, 55, 89
9, 112800, Sequencer_specific, 4, 5, 15, 15, 2
9, 112800, Note_on_c, 5, 48, 89
9, 112800, Sequencer_specific, 4, 5, 15, 15, 2
9, 113280, Note_off_c, 5, 48, 0
9, 113280, Note_off_c, 5, 55, 0
9, 113280, Note_on_c, 5, 55, 89
9, 113280, Sequencer_specific, 4, 5, 15, 15, 2
9, 113280, Note_on_c, 5, 48, 89
9, 113280, Sequencer_specific, 4, 5, 15, 15, 2
9, 113760, Note_off_c, 5, 48, 0
9, 113760, Note_off_c, 5, 55, 0
9, 113760, Note_on_c, 5, 55, 89
9, 113760, Sequencer_specific, 5, 5, 15, 15, 2, 2
9, 113760, Note_on_c, 5, 48, 89
9, 113760, Sequencer_specific, 4, 5, 15, 15, 2
9, 114240, Note_off_c, 5, 48, 0
9, 114240, Note_off_c, 5, 55, 0
9, 114240, Note_on_c, 5, 55, 89
9, 114240, Sequencer_specific, 4, 5, 15, 15, 2
9, 114240, Note_on_c, 5, 48, 89
9, 114240, Sequencer_specific, 4, 5, 15, 15, 2
9, 114720, Note_off_c, 5, 48, 0
9, 114720, Note_off_c, 5, 55, 0
9, 114720, Note_on_c, 5, 55, 89
9, 114720, Sequencer_specific, 4, 5, 15, 15, 2
9, 114720, Note_on_c, 5, 48, 89
9, 114720, Sequencer_specific, 4, 5, 15, 15, 2
9, 115200, Note_off_c, 5, 48, 0
9, 115200, Note_off_c, 5, 55, 0
9, 115200, Note_on_c, 5, 54, 89
9, 115200, Sequencer_specific, 4, 5, 15, 15, 2
9, 115200, Note_on_c, 5, 47, 89
9, 115200, Sequencer_specific, 4, 5, 15, 15, 2
9, 115680, Note_off_c, 5, 47, 0
9, 115680, Note_off_c, 5, 54, 0
9, 115680, Note_on_c, 5, 54, 89
9, 115680, Sequencer_specific, 5, 5, 15, 15, 2, 2
9, 115680, Note_on_c, 5, 47, 89
9, 115680, Sequencer_specific, 4, 5, 15, 15, 2
9, 116160, Note_off_c, 5, 47, 0
9, 116160, Note_off_c, 5, 54, 0
9, 116160, Note_on_c, 5, 54, 89
9, 116160, Sequencer_specific, 4, 5, 15, 15, 2
9, 116160, Note_on_c, 5, 47, 89
9, 116160, Sequencer_specific, 4, 5, 15, 15, 2
9, 116640, Note_off_c, 5, 47, 0
9, 116640, Note_off_c, 5, 54, 0
9, 116640, Note_on_c, 5, 54, 89
9, 116640, Sequencer_specific, 4, 5, 15, 15, 2
9, 116640, Note_on_c, 5, 47, 89
9, 116640, Sequencer_specific, 4, 5, 15, 15, 2
9, 117120, Note_off_c, 5, 47, 0
9, 117120, Note_off_c, 5, 54, 0
9, 117120, Note_on_c, 5, 54, 89
9, 117120, Sequencer_specific, 4, 5, 15, 15, 2
9, 117120, Note_on_c, 5, 47, 89
9, 117120, Sequencer_specific, 4, 5, 15, 15, 2
9, 117600, Note_off_c, 5, 47, 0
9, 117600, Note_off_c, 5, 54, 0
9, 117600, Note_on_c, 5, 54, 89
9, 117600, Sequencer_specific, 5, 5, 15, 15, 2, 2
9, 117600, Note_on_c, 5, 47, 89
9, 117600, Sequencer_specific, 4, 5, 15, 15, 2
9, 118080, Note_off_c, 5, 47, 0
9, 118080, Note_off_c, 5, 54, 0
9, 118080, Note_on_c, 5, 54, 89
9, 118080, Sequencer_specific, 4, 5, 15, 15, 2
9, 118080, Note_on_c, 5, 47, 89
9, 118080, Sequencer_specific, 4, 5, 15, 15, 2
9, 118560, Note_off_c, 5, 47, 0
9, 118560, Note_off_c, 5, 54, 0
9, 118560, Note_on_c, 5, 54, 89
9, 118560, Sequencer_specific, 4, 5, 15, 15, 2
9, 118560, Note_on_c, 5, 47, 89
9, 118560, Sequencer_specific, 4, 5, 15, 15, 2
9, 119040, Note_off_c, 5, 47, 0
9, 119040, Note_off_c, 5, 54, 0
9, 119040, Note_on_c, 5, 47, 89
9, 119040, Note_on_c, 5, 40, 89
9, 119520, Note_off_c, 5, 40, 0
9, 119520, Note_off_c, 5, 47, 0
9, 119520, Note_on_c, 5, 47, 89
9, 119520, Note_on_c, 5, 40, 89
9, 119520, Sequencer_specific, 5, 5, 15, 15, 0, 2
9, 120000, Note_off_c, 5, 40, 0
9, 120000, Note_off_c, 5, 47, 0
9, 120000, Note_on_c, 5, 47, 89
9, 120000, Note_on_c, 5, 40, 89
9, 120480, Note_off_c, 5, 40, 0
9, 120480, Note_off_c, 5, 47, 0
9, 120480, Note_on_c, 5, 47, 89
9, 120480, Note_on_c, 5, 40, 89
9, 120960, Note_off_c, 5, 40, 0
9, 120960, Note_off_c, 5, 47, 0
9, 120960, Note_on_c, 5, 47, 89
9, 120960, Note_on_c, 5, 40, 89
9, 121440, Note_off_c, 5, 40, 0
9, 121440, Note_off_c, 5, 47, 0
9, 121440, Note_on_c, 5, 47, 89
9, 121440, Note_on_c, 5, 40, 89
9, 121440, Sequencer_specific, 5, 5, 15, 15, 0, 2
9, 121920, Note_off_c, 5, 40, 0
9, 121920, Note_off_c, 5, 47, 0
9, 121920, Note_on_c, 5, 47, 89
9, 121920, Note_on_c, 5, 40, 89
9, 122400, Note_off_c, 5, 40, 0
9, 122400, Note_off_c, 5, 47, 0
9, 122400, Note_on_c, 5, 52, 89
9, 122400, Note_on_c, 5, 45, 89
9, 122880, Note_off_c, 5, 45, 0
9, 122880, Note_off_c, 5, 52, 0
9, 123360, Note_on_c, 5, 52, 89
9, 123360, Note_on_c, 5, 45, 89
9, 123840, Note_off_c, 5, 45, 0
9, 123840, Note_off_c, 5, 52, 0
9, 124320, Note_on_c, 5, 52, 89
9, 124320, Note_on_c, 5, 45, 89
9, 124800, Note_off_c, 5, 45, 0
9, 124800, Note_off_c, 5, 52, 0
9, 124800, Note_on_c, 5, 52, 89
9, 124800, Note_on_c, 5, 45, 89
9, 125760, Note_off_c, 5, 45, 0
9, 125760, Note_off_c, 5, 52, 0
9, 125760, Note_on_c, 5, 52, 89
9, 125760, Note_on_c, 5, 45, 89
9, 126720, Note_off_c, 5, 45, 0
9, 126720, Note_off_c, 5, 52, 0
9, 126720, Note_on_c, 5, 55, 89
9, 126720, Sequencer_specific, 4, 5, 15, 15, 2
9, 126720, Note_on_c, 5, 48, 89
9, 126720, Sequencer_specific, 4, 5, 15, 15, 2
9, 127680, Note_off_c, 5, 48, 0
9, 127680, Note_off_c, 5, 55, 0
9, 127680, Note_on_c, 5, 55, 89
9, 127680, Sequencer_specific, 4, 5, 15, 15, 2
9, 127680, Note_on_c, 5, 48, 89
9, 127680, Sequencer_specific, 4, 5, 15, 15, 2
9, 128640, Note_off_c, 5, 48, 0
9, 128640, Note_off_c, 5, 55, 0
9, 128640, Note_on_c, 5, 55, 89
9, 128640, Sequencer_specific, 4, 5, 15, 15, 2
9, 128640, Note_on_c, 5, 48, 89
9, 128640, Sequencer_specific, 4, 5, 15, 15, 2
9, 129600, Note_off_c, 5, 48, 0
9, 129600, Note_off_c, 5, 55, 0
9, 129600, Note_on_c, 5, 55, 89
9, 129600, Sequencer_specific, 4, 5, 15, 15, 2
9, 129600, Note_on_c, 5, 48, 89
9, 129600, Sequencer_specific, 4, 5, 15, 15, 2
9, 130560, Note_off_c, 5, 48, 0
9, 130560, Note_off_c, 5, 55, 0
9, 130560, Note_on_c, 5, 54, 89
9, 130560, Note_on_c, 5, 47, 89
9, 131520, Note_off_c, 5, 47, 0
9, 131520, Note_off_c, 5, 54, 0
9, 134400, Note_on_c, 5, 40, 89
9, 135360, Note_off_c, 5, 40, 0
9, 135360, Note_on_c, 5, 52, 89
9, 136320, Note_off_c, 5, 52, 0
9, 136320, Note_on_c, 5, 50, 89
9, 136800, Note_off_c, 5, 50, 0
9, 136800, Note_on_c, 5, 52, 89
9, 136800, Sequencer_specific, 5, 5, 15, 15, 0, 2
9, 137280, Note_off_c, 5, 52, 0
9, 137280, Note_on_c, 5, 47, 89
9, 137760, Note_off_c, 5, 47, 0
9, 137760, Note_on_c, 5, 45, 89
9, 138240, Note_off_c, 5, 45, 0
9, 138720, Note_on_c, 5, 45, 89
9, 139200, Note_off_c, 5, 45, 0
9, 139680, Note_on_c, 5, 43, 89
9, 140160, Note_off_c, 5, 43, 0
9, 140160, Note_on_c, 5, 45, 89
9, 140640, Note_off_c, 5, 45, 0
9, 140640, Note_on_c, 5, 47, 89
9, 140640, Sequencer_specific, 5, 5, 15, 15, 0, 2
9, 141120, Note_off_c, 5, 47, 0
9, 141120, Note_on_c, 5, 45, 89
9, 141600, Note_off_c, 5, 45, 0
9, 141600, Note_on_c, 5, 43, 89
9, 142080, Note_off_c, 5, 43, 0
9, 142080, Note_on_c, 5, 40, 89
9, 143040, Note_off_c, 5, 40, 0
9, 143040, Note_on_c, 5, 52, 89
9, 144000, Note_off_c, 5, 52, 0
9, 144000, Note_on_c, 5, 50, 89
9, 144480, Note_off_c, 5, 50, 0
9, 144480, Note_on_c, 5, 52, 89
9, 144480, Sequencer_specific, 5, 5, 15, 15, 0, 2
9, 144960, Note_off_c, 5, 52, 0
9, 144960, Note_on_c, 5, 47, 89
9, 145440, Note_off_c, 5, 47, 0
9, 145440, Note_on_c, 5, 45, 89
9, 145920, Note_off_c, 5, 45, 0
9, 146400, Note_on_c, 5, 45, 89
9, 146880, Note_off_c, 5, 45, 0
9, 147360, Note_on_c, 5, 43, 89
9, 147840, Note_off_c, 5, 43, 0
9, 147840, Note_on_c, 5, 45, 89
9, 148320, Note_off_c, 5, 45, 0
9, 148320, Note_on_c, 5, 35, 89
9, 148320, Sequencer_specific, 5, 5, 15, 15, 0, 2
9, 148800, Note_off_c, 5, 35, 0
9, 148800, Note_on_c, 5, 38, 89
9, 149280, Note_off_c, 5, 38, 0
9, 149280, Note_on_c, 5, 39, 89
9, 149760, Note_off_c, 5, 39, 0
9, 149760, Note_on_c, 5, 40, 89
9, 150720, Note_off_c, 5, 40, 0
9, 152160, Note_on_c, 5, 40, 89
9, 152640, Note_off_c, 5, 40, 0
9, 152640, Note_on_c, 5, 43, 89
9, 153120, Note_off_c, 5, 43, 0
9, 153120, Note_on_c, 5, 43, 89
9, 153600, Note_off_c, 5, 43, 0
9, 153600, Note_on_c, 5, 45, 89
9, 154560, Note_off_c, 5, 45, 0
9, 156000, Note_on_c, 5, 35, 89
9, 156480, Note_off_c, 5, 35, 0
9, 156480, Note_on_c, 5, 38, 89
9, 156960, Note_off_c, 5, 38, 0
9, 156960, Note_on_c, 5, 39, 89
9, 157440, Note_off_c, 5, 39, 0
9, 157440, Note_on_c, 5, 40, 89
9, 158400, Note_off_c, 5, 40, 0
9, 159840, Note_on_c, 5, 40, 89
9, 160320, Note_off_c, 5, 40, 0
9, 160320, Note_on_c, 5, 43, 89
9, 160800, Note_off_c, 5, 43, 0
9, 160800, Note_on_c, 5, 43, 89
9, 161280, Note_off_c, 5, 43, 0
9, 161280, Note_on_c, 5, 45, 89
9, 162240, Note_off_c, 5, 45, 0
9, 162720, Note_on_c, 5, 35, 89
9, 163200, Note_off_c, 5, 35, 0
9, 163680, Note_on_c, 5, 35, 89
9, 164160, Note_off_c, 5, 35, 0
9, 164160, Note_on_c, 5, 38, 89
9, 164640, Note_off_c, 5, 38, 0
9, 164640, Note_on_c, 5, 39, 89
9, 165120, Note_off_c, 5, 39, 0
9, 165120, Note_on_c, 5, 40, 89
9, 166080, Note_off_c, 5, 40, 0
9, 167520, Note_on_c, 5, 40, 89
9, 168000, Note_off_c, 5, 40, 0
9, 168000, Note_on_c, 5, 43, 89
9, 168480, Note_off_c, 5, 43, 0
9, 168480, Note_on_c, 5, 43, 89
9, 168960, Note_off_c, 5, 43, 0
9, 168960, Note_on_c, 5, 45, 89
9, 169920, Note_off_c, 5, 45, 0
9, 170400, Note_on_c, 5, 35, 89
9, 170880, Note_off_c, 5, 35, 0
9, 171360, Note_on_c, 5, 35, 89
9, 171840, Note_off_c, 5, 35, 0
9, 171840, Note_on_c, 5, 38, 89
9, 172320, Note_off_c, 5, 38, 0
9, 172320, Note_on_c, 5, 39, 89
9, 172800, Note_off_c, 5, 39, 0
9, 172800, Note_on_c, 5, 40, 89
9, 173760, Note_off_c, 5, 40, 0
9, 175200, Note_on_c, 5, 40, 89
9, 175680, Note_off_c, 5, 40, 0
9, 175680, Note_on_c, 5, 43, 89
9, 176160, Note_off_c, 5, 43, 0
9, 176160, Note_on_c, 5, 43, 89
9, 176640, Note_off_c, 5, 43, 0
9, 176640, Note_on_c, 5, 45, 89
9, 177600, Note_off_c, 5, 45, 0
9, 180480, Note_on_c, 5, 40, 89
9, 181440, Note_off_c, 5, 40, 0
9, 181440, Note_on_c, 5, 52, 89
9, 182400, Note_off_c, 5, 52, 0
9, 182400, Note_on_c, 5, 50, 89
9, 182880, Note_off_c, 5, 50, 0
9, 182880, Note_on_c, 5, 52, 89
9, 182880, Sequencer_specific, 5, 5, 15, 15, 0, 2
9, 183360, Note_off_c, 5, 52, 0
9, 183360, Note_on_c, 5, 47, 89
9, 183840, Note_off_c, 5, 47, 0
9, 183840, Note_on_c, 5, 45, 89
9, 184320, Note_off_c, 5, 45, 0
9, 184800, Note_on_c, 5, 45, 89
9, 185280, Note_off_c, 5, 45, 0
9, 185760, Note_on_c, 5, 43, 89
9, 186240, Note_off_c, 5, 43, 0
9, 186240, Note_on_c, 5, 45, 89
9, 186720, Note_off_c, 5, 45, 0
9, 186720, Note_on_c, 5, 47, 89
9, 186720, Sequencer_specific, 5, 5, 15, 15, 0, 2
9, 187200, Note_off_c, 5, 47, 0
9, 187200, Note_on_c, 5, 45, 89
9, 187680, Note_off_c, 5, 45, 0
9, 187680, Note_on_c, 5, 43, 89
9, 188160, Note_off_c, 5, 43, 0
9, 188160, Note_on_c, 5, 40, 89
9, 189120, Note_off_c, 5, 40, 0
9, 189120, Note_on_c, 5, 52, 89
9, 190080, Note_off_c, 5, 52, 0
9, 190080, Note_on_c, 5, 50, 89
9, 190560, Note_off_c, 5, 50, 0
9, 190560, Note_on_c, 5, 52, 89
9, 190560, Sequencer_specific, 5, 5, 15, 15, 0, 2
9, 191040, Note_off_c, 5, 52, 0
9, 191040, Note_on_c, 5, 47, 89
9, 191520, Note_off_c, 5, 47, 0
9, 191520, Note_on_c, 5, 45, 89
9, 192000, Note_off_c, 5, 45, 0
9, 192480, Note_on_c, 5, 45, 89
9, 192960, Note_off_c, 5, 45, 0
9, 193440, Note_on_c, 5, 43, 89
9, 193920, Note_off_c, 5, 43, 0
9, 193920, Note_on_c, 5, 45, 89
9, 194400, Note_off_c, 5, 45, 0
9, 194400, Note_on_c, 5, 47, 89
9, 194400, Sequencer_specific, 5, 5, 15, 15, 0, 2
9, 194880, Note_off_c, 5, 47, 0
9, 194880, Note_on_c, 5, 45, 89
9, 195360, Note_off_c, 5, 45, 0
9, 195360, Note_on_c, 5, 43, 89
9, 195840, Note_off_c, 5, 43, 0
9, 195840, Note_on_c, 5, 40, 89
9, 196800, Note_off_c, 5, 40, 0
9, 196800, Note_on_c, 5, 52, 89
9, 197760, Note_off_c, 5, 52, 0
9, 197760, Note_on_c, 5, 50, 89
9, 198240, Note_off_c, 5, 50, 0
9, 198240, Note_on_c, 5, 52, 89
9, 198240, Sequencer_specific, 5, 5, 15, 15, 0, 2
9, 198720, Note_off_c, 5, 52, 0
9, 198720, Note_on_c, 5, 47, 89
9, 199200, Note_off_c, 5, 47, 0
9, 199200, Note_on_c, 5, 45, 89
9, 199680, Note_off_c, 5, 45, 0
9, 200160, Note_on_c, 5, 45, 89
9, 200640, Note_off_c, 5, 45, 0
9, 201120, Note_on_c, 5, 43, 89
9, 201600, Note_off_c, 5, 43, 0
9, 201600, Note_on_c, 5, 45, 89
9, 202080, Note_off_c, 5, 45, 0
9, 202080, Note_on_c, 5, 47, 89
9, 202080, Sequencer_specific, 5, 5, 15, 15, 0, 2
9, 202560, Note_off_c, 5, 47, 0
9, 202560, Note_on_c, 5, 45, 89
9, 203040, Note_off_c, 5, 45, 0
9, 203040, Note_on_c, 5, 43, 89
9, 203520, Note_off_c, 5, 43, 0
9, 203520, Note_on_c, 5, 40, 89
9, 204480, Note_off_c, 5, 40, 0
9, 204480, Note_on_c, 5, 52, 89
9, 205440, Note_off_c, 5, 52, 0
9, 205440, Note_on_c, 5, 50, 89
9, 205920, Note_off_c, 5, 50, 0
9, 205920, Note_on_c, 5, 52, 89
9, 205920, Sequencer_specific, 5, 5, 15, 15, 0, 2
9, 206400, Note_off_c, 5, 52, 0
9, 206400, Note_on_c, 5, 47, 89
9, 206880, Note_off_c, 5, 47, 0
9, 206880, Note_on_c, 5, 45, 89
9, 207360, Note_off_c, 5, 45, 0
9, 211200, Note_on_c, 5, 55, 89
9, 211200, Sequencer_specific, 4, 5, 15, 15, 2
9, 211200, Note_on_c, 5, 48, 89
9, 211200, Sequencer_specific, 4, 5, 15, 15, 2
9, 211680, Note_off_c, 5, 48, 0
9, 211680, Note_off_c, 5, 55, 0
9, 211680, Note_on_c, 5, 55, 89
9, 211680, Sequencer_specific, 5, 5, 15, 15, 2, 2
9, 211680, Note_on_c, 5, 48, 89
9, 211680, Sequencer_specific, 4, 5, 15, 15, 2
9, 212160, Note_off_c, 5, 48, 0
9, 212160, Note_off_c, 5, 55, 0
9, 212160, Note_on_c, 5, 55, 89
9, 212160, Sequencer_specific, 4, 5, 15, 15, 2
9, 212160, Note_on_c, 5, 48, 89
9, 212160, Sequencer_specific, 4, 5, 15, 15, 2
9, 212640, Note_off_c, 5, 48, 0
9, 212640, Note_off_c, 5, 55, 0
9, 212640, Note_on_c, 5, 55, 89
9, 212640, Sequencer_specific, 4, 5, 15, 15, 2
9, 212640, Note_on_c, 5, 48, 89
9, 212640, Sequencer_specific, 4, 5, 15, 15, 2
9, 213120, Note_off_c, 5, 48, 0
9, 213120, Note_off_c, 5, 55, 0
9, 213120, Note_on_c, 5, 55, 89
9, 213120, Sequencer_specific, 4, 5, 15, 15, 2
9, 213120, Note_on_c, 5, 48, 89
9, 213120, Sequencer_specific, 4, 5, 15, 15, 2
9, 213600, Note_off_c, 5, 48, 0
9, 213600, Note_off_c, 5, 55, 0
9, 213600, Note_on_c, 5, 55, 89
9, 213600, Sequencer_specific, 5, 5, 15, 15, 2, 2
9, 213600, Note_on_c, 5, 48, 89
9, 213600, Sequencer_specific, 4, 5, 15, 15, 2
9, 214080, Note_off_c, 5, 48, 0
9, 214080, Note_off_c, 5, 55, 0
9, 214080, Note_on_c, 5, 55, 89
9, 214080, Sequencer_specific, 4, 5, 15, 15, 2
9, 214080, Note_on_c, 5, 48, 89
9, 214080, Sequencer_specific, 4, 5, 15, 15, 2
9, 214560, Note_off_c, 5, 48, 0
9, 214560, Note_off_c, 5, 55, 0
9, 214560, Note_on_c, 5, 55, 89
9, 214560, Sequencer_specific, 4, 5, 15, 15, 2
9, 214560, Note_on_c, 5, 48, 89
9, 214560, Sequencer_specific, 4, 5, 15, 15, 2
9, 215040, Note_off_c, 5, 48, 0
9, 215040, Note_off_c, 5, 55, 0
9, 215040, Note_on_c, 5, 54, 89
9, 215040, Sequencer_specific, 4, 5, 15, 15, 2
9, 215040, Note_on_c, 5, 47, 89
9, 215040, Sequencer_specific, 4, 5, 15, 15, 2
9, 215520, Note_off_c, 5, 47, 0
9, 215520, Note_off_c, 5, 54, 0
9, 215520, Note_on_c, 5, 54, 89
9, 215520, Sequencer_specific, 5, 5, 15, 15, 2, 2
9, 215520, Note_on_c, 5, 47, 89
9, 215520, Sequencer_specific, 4, 5, 15, 15, 2
9, 216000, Note_off_c, 5, 47, 0
9, 216000, Note_off_c, 5, 54, 0
9, 216000, Note_on_c, 5, 54, 89
9, 216000, Sequencer_specific, 4, 5, 15, 15, 2
9, 216000, Note_on_c, 5, 47, 89
9, 216000, Sequencer_specific, 4, 5, 15, 15, 2
9, 216480, Note_off_c, 5, 47, 0
9, 216480, Note_off_c, 5, 54, 0
9, 216480, Note_on_c, 5, 54, 89
9, 216480, Sequencer_specific, 4, 5, 15, 15, 2
9, 216480, Note_on_c, 5, 47, 89
9, 216480, Sequencer_specific, 4, 5, 15, 15, 2
9, 216960, Note_off_c, 5, 47, 0
9, 216960, Note_off_c, 5, 54, 0
9, 216960, Note_on_c, 5, 54, 89
9, 216960, Sequencer_specific, 4, 5, 15, 15, 2
9, 216960, Note_on_c, 5, 47, 89
9, 216960, Sequencer_specific, 4, 5, 15, 15, 2
9, 217440, Note_off_c, 5, 47, 0
9, 217440, Note_off_c, 5, 54, 0
9, 217440, Note_on_c, 5, 54, 89
9, 217440, Sequencer_specific, 5, 5, 15, 15, 2, 2
9, 217440, Note_on_c, 5, 47, 89
9, 217440, Sequencer_specific, 4, 5, 15, 15, 2
9, 217920, Note_off_c, 5, 47, 0
9, 217920, Note_off_c, 5, 54, 0
9, 217920, Note_on_c, 5, 54, 89
9, 217920, Sequencer_specific, 4, 5, 15, 15, 2
9, 217920, Note_on_c, 5, 47, 89
9, 217920, Sequencer_specific, 4, 5, 15, 15, 2
9, 218400, Note_off_c, 5, 47, 0
9, 218400, Note_off_c, 5, 54, 0
9, 218400, Note_on_c, 5, 54, 89
9, 218400, Sequencer_specific, 4, 5, 15, 15, 2
9, 218400, Note_on_c, 5, 47, 89
9, 218400, Sequencer_specific, 4, 5, 15, 15, 2
9, 218880, Note_off_c, 5, 47, 0
9, 218880, Note_off_c, 5, 54, 0
9, 218880, Note_on_c, 5, 47, 89
9, 218880, Note_on_c, 5, 40, 89
9, 219360, Note_off_c, 5, 40, 0
9, 219360, Note_off_c, 5, 47, 0
9, 219360, Note_on_c, 5, 47, 89
9, 219360, Note_on_c, 5, 40, 89
9, 219360, Sequencer_specific, 5, 5, 15, 15, 0, 2
9, 219840, Note_off_c, 5, 40, 0
9, 219840, Note_off_c, 5, 47, 0
9, 219840, Note_on_c, 5, 47, 89
9, 219840, Note_on_c, 5, 40, 89
9, 220320, Note_off_c, 5, 40, 0
9, 220320, Note_off_c, 5, 47, 0
9, 220320, Note_on_c, 5, 47, 89
9, 220320, Note_on_c, 5, 40, 89
9, 220800, Note_off_c, 5, 40, 0
9, 220800, Note_off_c, 5, 47, 0
9, 220800, Note_on_c, 5, 47, 89
9, 220800, Note_on_c, 5, 40, 89
9, 221280, Note_off_c, 5, 40, 0
9, 221280, Note_off_c, 5, 47, 0
9, 221280, Note_on_c, 5, 47, 89
9, 221280, Note_on_c, 5, 40, 89
9, 221280, Sequencer_specific, 5, 5, 15, 15, 0, 2
9, 221760, Note_off_c, 5, 40, 0
9, 221760, Note_off_c, 5, 47, 0
9, 221760, Note_on_c, 5, 47, 89
9, 221760, Note_on_c, 5, 40, 89
9, 222240, Note_off_c, 5, 40, 0
9, 222240, Note_off_c, 5, 47, 0
9, 222240, Note_on_c, 5, 52, 89
9, 222240, Note_on_c, 5, 45, 89
9, 222720, Note_off_c, 5, 45, 0
9, 222720, Note_off_c, 5, 52, 0
9, 223200, Note_on_c, 5, 52, 89
9, 223200, Note_on_c, 5, 45, 89
9, 223680, Note_off_c, 5, 45, 0
9, 223680, Note_off_c, 5, 52, 0
9, 224160, Note_on_c, 5, 52, 89
9, 224160, Note_on_c, 5, 45, 89
9, 224640, Note_off_c, 5, 45, 0
9, 224640, Note_off_c, 5, 52, 0
9, 224640, Note_on_c, 5, 52, 89
9, 224640, Note_on_c, 5, 45, 89
9, 225600, Note_off_c, 5, 45, 0
9, 225600, Note_off_c, 5, 52, 0
9, 225600, Note_on_c, 5, 52, 89
9, 225600, Note_on_c, 5, 45, 89
9, 226560, Note_off_c, 5, 45, 0
9, 226560, Note_off_c, 5, 52, 0
9, 226560, Note_on_c, 5, 55, 89
9, 226560, Sequencer_specific, 4, 5, 15, 15, 2
9, 226560, Note_on_c, 5, 48, 89
9, 226560, Sequencer_specific, 4, 5, 15, 15, 2
9, 227040, Note_off_c, 5, 48, 0
9, 227040, Note_off_c, 5, 55, 0
9, 227040, Note_on_c, 5, 55, 89
9, 227040, Sequencer_specific, 5, 5, 15, 15, 2, 2
9, 227040, Note_on_c, 5, 48, 89
9, 227040, Sequencer_specific, 4, 5, 15, 15, 2
9, 227520, Note_off_c, 5, 48, 0
9, 227520, Note_off_c, 5, 55, 0
9, 227520, Note_on_c, 5, 55, 89
9, 227520, Sequencer_specific, 4, 5, 15, 15, 2
9, 227520, Note_on_c, 5, 48, 89
9, 227520, Sequencer_specific, 4, 5, 15, 15, 2
9, 228000, Note_off_c, 5, 48, 0
9, 228000, Note_off_c, 5, 55, 0
9, 228000, Note_on_c, 5, 55, 89
9, 228000, Sequencer_specific, 4, 5, 15, 15, 2
9, 228000, Note_on_c, 5, 48, 89
9, 228000, Sequencer_specific, 4, 5, 15, 15, 2
9, 228480, Note_off_c, 5, 48, 0
9, 228480, Note_off_c, 5, 55, 0
9, 228480, Note_on_c, 5, 55, 89
9, 228480, Sequencer_specific, 4, 5, 15, 15, 2
9, 228480, Note_on_c, 5, 48, 89
9, 228480, Sequencer_specific, 4, 5, 15, 15, 2
9, 228960, Note_off_c, 5, 48, 0
9, 228960, Note_off_c, 5, 55, 0
9, 228960, Note_on_c, 5, 55, 89
9, 228960, Sequencer_specific, 5, 5, 15, 15, 2, 2
9, 228960, Note_on_c, 5, 48, 89
9, 228960, Sequencer_specific, 4, 5, 15, 15, 2
9, 229440, Note_off_c, 5, 48, 0
9, 229440, Note_off_c, 5, 55, 0
9, 229440, Note_on_c, 5, 55, 89
9, 229440, Sequencer_specific, 4, 5, 15, 15, 2
9, 229440, Note_on_c, 5, 48, 89
9, 229440, Sequencer_specific, 4, 5, 15, 15, 2
9, 229920, Note_off_c, 5, 48, 0
9, 229920, Note_off_c, 5, 55, 0
9, 229920, Note_on_c, 5, 55, 89
9, 229920, Sequencer_specific, 4, 5, 15, 15, 2
9, 229920, Note_on_c, 5, 48, 89
9, 229920, Sequencer_specific, 4, 5, 15, 15, 2
9, 230400, Note_off_c, 5, 48, 0
9, 230400, Note_off_c, 5, 55, 0
9, 230400, Note_on_c, 5, 54, 89
9, 230400, Sequencer_specific, 4, 5, 15, 15, 2
9, 230400, Note_on_c, 5, 47, 89
9, 230400, Sequencer_specific, 4, 5, 15, 15, 2
9, 230880, Note_off_c, 5, 47, 0
9, 230880, Note_off_c, 5, 54, 0
9, 230880, Note_on_c, 5, 54, 89
9, 230880, Sequencer_specific, 5, 5, 15, 15, 2, 2
9, 230880, Note_on_c, 5, 47, 89
9, 230880, Sequencer_specific, 4, 5, 15, 15, 2
9, 231360, Note_off_c, 5, 47, 0
9, 231360, Note_off_c, 5, 54, 0
9, 231360, Note_on_c, 5, 54, 89
9, 231360, Sequencer_specific, 4, 5, 15, 15, 2
9, 231360, Note_on_c, 5, 47, 89
9, 231360, Sequencer_specific, 4, 5, 15, 15, 2
9, 231840, Note_off_c, 5, 47, 0
9, 231840, Note_off_c, 5, 54, 0
9, 231840, Note_on_c, 5, 54, 89
9, 231840, Sequencer_specific, 4, 5, 15, 15, 2
9, 231840, Note_on_c, 5, 47, 89
9, 231840, Sequencer_specific, 4, 5, 15, 15, 2
9, 232320, Note_off_c, 5, 47, 0
9, 232320, Note_off_c, 5, 54, 0
9, 232320, Note_on_c, 5, 54, 89
9, 232320, Sequencer_specific, 4, 5, 15, 15, 2
9, 232320, Note_on_c, 5, 47, 89
9, 232320, Sequencer_specific, 4, 5, 15, 15, 2
9, 232800, Note_off_c, 5, 47, 0
9, 232800, Note_off_c, 5, 54, 0
9, 232800, Note_on_c, 5, 54, 89
9, 232800, Sequencer_specific, 5, 5, 15, 15, 2, 2
9, 232800, Note_on_c, 5, 47, 89
9, 232800, Sequencer_specific, 4, 5, 15, 15, 2
9, 233280, Note_off_c, 5, 47, 0
9, 233280, Note_off_c, 5, 54, 0
9, 233280, Note_on_c, 5, 54, 89
9, 233280, Sequencer_specific, 4, 5, 15, 15, 2
9, 233280, Note_on_c, 5, 47, 89
9, 233280, Sequencer_specific, 4, 5, 15, 15, 2
9, 233760, Note_off_c, 5, 47, 0
9, 233760, Note_off_c, 5, 54, 0
9, 233760, Note_on_c, 5, 54, 89
9, 233760, Sequencer_specific, 4, 5, 15, 15, 2
9, 233760, Note_on_c, 5, 47, 89
9, 233760, Sequencer_specific, 4, 5, 15, 15, 2
9, 234240, Note_off_c, 5, 47, 0
9, 234240, Note_off_c, 5, 54, 0
9, 234240, Note_on_c, 5, 47, 89
9, 234240, Note_on_c, 5, 40, 89
9, 234720, Note_off_c, 5, 40, 0
9, 234720, Note_off_c, 5, 47, 0
9, 234720, Note_on_c, 5, 47, 89
9, 234720, Note_on_c, 5, 40, 89
9, 234720, Sequencer_specific, 5, 5, 15, 15, 0, 2
9, 235200, Note_off_c, 5, 40, 0
9, 235200, Note_off_c, 5, 47, 0
9, 235200, Note_on_c, 5, 47, 89
9, 235200, Note_on_c, 5, 40, 89
9, 235680, Note_off_c, 5, 40, 0
9, 235680, Note_off_c, 5, 47, 0
9, 235680, Note_on_c, 5, 47, 89
9, 235680, Note_on_c, 5, 40, 89
9, 236160, Note_off_c, 5, 40, 0
9, 236160, Note_off_c, 5, 47, 0
9, 236160, Note_on_c, 5, 47, 89
9, 236160, Note_on_c, 5, 40, 89
9, 236640, Note_off_c, 5, 40, 0
9, 236640, Note_off_c, 5, 47, 0
9, 236640, Note_on_c, 5, 47, 89
9, 236640, Note_on_c, 5, 40, 89
9, 236640, Sequencer_specific, 5, 5, 15, 15, 0, 2
9, 237120, Note_off_c, 5, 40, 0
9, 237120, Note_off_c, 5, 47, 0
9, 237120, Note_on_c, 5, 47, 89
9, 237120, Note_on_c, 5, 40, 89
9, 237600, Note_off_c, 5, 40, 0
9, 237600, Note_off_c, 5, 47, 0
9, 237600, Note_on_c, 5, 52, 89
9, 237600, Note_on_c, 5, 45, 89
9, 238080, Note_off_c, 5, 45, 0
9, 238080, Note_off_c, 5, 52, 0
9, 238560, Note_on_c, 5, 52, 89
9, 238560, Note_on_c, 5, 45, 89
9, 239040, Note_off_c, 5, 45, 0
9, 239040, Note_off_c, 5, 52, 0
9, 239520, Note_on_c, 5, 52, 89
9, 239520, Note_on_c, 5, 45, 89
9, 240000, Note_off_c, 5, 45, 0
9, 240000, Note_off_c, 5, 52, 0
9, 240000, Note_on_c, 5, 52, 89
9, 240000, Note_on_c, 5, 45, 89
9, 240960, Note_off_c, 5, 45, 0
9, 240960, Note_off_c, 5, 52, 0
9, 240960, Note_on_c, 5, 52, 89
9, 240960, Note_on_c, 5, 45, 89
9, 241920, Note_off_c, 5, 45, 0
9, 241920, Note_off_c, 5, 52, 0
9, 241920, Note_on_c, 5, 55, 89
9, 241920, Sequencer_specific, 4, 5, 15, 15, 2
9, 241920, Note_on_c, 5, 48, 89
9, 241920, Sequencer_specific, 4, 5, 15, 15, 2
9, 242400, Note_off_c, 5, 48, 0
9, 242400, Note_off_c, 5, 55, 0
9, 242400, Note_on_c, 5, 55, 89
9, 242400, Sequencer_specific, 5, 5, 15, 15, 2, 2
9, 242400, Note_on_c, 5, 48, 89
9, 242400, Sequencer_specific, 4, 5, 15, 15, 2
9, 242880, Note_off_c, 5, 48, 0
9, 242880, Note_off_c, 5, 55, 0
9, 242880, Note_on_c, 5, 55, 89
9, 242880, Sequencer_specific, 4, 5, 15, 15, 2
9, 242880, Note_on_c, 5, 48, 89
9, 242880, Sequencer_specific, 4, 5, 15, 15, 2
9, 243360, Note_off_c, 5, 48, 0
9, 243360, Note_off_c, 5, 55, 0
9, 243360, Note_on_c, 5, 55, 89
9, 243360, Sequencer_specific, 4, 5, 15, 15, 2
9, 243360, Note_on_c, 5, 48, 89
9, 243360, Sequencer_specific, 4, 5, 15, 15, 2
9, 243840, Note_off_c, 5, 48, 0
9, 243840, Note_off_c, 5, 55, 0
9, 243840, Note_on_c, 5, 55, 89
9, 243840, Sequencer_specific, 4, 5, 15, 15, 2
9, 243840, Note_on_c, 5, 48, 89
9, 243840, Sequencer_specific, 4, 5, 15, 15, 2
9, 244320, Note_off_c, 5, 48, 0
9, 244320, Note_off_c, 5, 55, 0
9, 244320, Note_on_c, 5, 55, 89
9, 244320, Sequencer_specific, 5, 5, 15, 15, 2, 2
9, 244320, Note_on_c, 5, 48, 89
9, 244320, Sequencer_specific, 4, 5, 15, 15, 2
9, 244800, Note_off_c, 5, 48, 0
9, 244800, Note_off_c, 5, 55, 0
9, 244800, Note_on_c, 5, 55, 89
9, 244800, Sequencer_specific, 4, 5, 15, 15, 2
9, 244800, Note_on_c, 5, 48, 89
9, 244800, Sequencer_specific, 4, 5, 15, 15, 2
9, 245280, Note_off_c, 5, 48, 0
9, 245280, Note_off_c, 5, 55, 0
9, 245280, Note_on_c, 5, 55, 89
9, 245280, Sequencer_specific, 4, 5, 15, 15, 2
9, 245280, Note_on_c, 5, 48, 89
9, 245280, Sequencer_specific, 4, 5, 15, 15, 2
9, 245760, Note_off_c, 5, 48, 0
9, 245760, Note_off_c, 5, 55, 0
9, 245760, Note_on_c, 5, 54, 89
9, 245760, Sequencer_specific, 4, 5, 15, 15, 2
9, 245760, Note_on_c, 5, 47, 89
9, 245760, Sequencer_specific, 4, 5, 15, 15, 2
9, 246240, Note_off_c, 5, 47, 0
9, 246240, Note_off_c, 5, 54, 0
9, 246240, Note_on_c, 5, 54, 89
9, 246240, Sequencer_specific, 5, 5, 15, 15, 2, 2
9, 246240, Note_on_c, 5, 47, 89
9, 246240, Sequencer_specific, 4, 5, 15, 15, 2
9, 246720, Note_off_c, 5, 47, 0
9, 246720, Note_off_c, 5, 54, 0
9, 246720, Note_on_c, 5, 54, 89
9, 246720, Sequencer_specific, 4, 5, 15, 15, 2
9, 246720, Note_on_c, 5, 47, 89
9, 246720, Sequencer_specific, 4, 5, 15, 15, 2
9, 247200, Note_off_c, 5, 47, 0
9, 247200, Note_off_c, 5, 54, 0
9, 247200, Note_on_c, 5, 54, 89
9, 247200, Sequencer_specific, 4, 5, 15, 15, 2
9, 247200, Note_on_c, 5, 47, 89
9, 247200, Sequencer_specific, 4, 5, 15, 15, 2
9, 247680, Note_off_c, 5, 47, 0
9, 247680, Note_off_c, 5, 54, 0
9, 247680, Note_on_c, 5, 54, 89
9, 247680, Sequencer_specific, 4, 5, 15, 15, 2
9, 247680, Note_on_c, 5, 47, 89
9, 247680, Sequencer_specific, 4, 5, 15, 15, 2
9, 248160, Note_off_c, 5, 47, 0
9, 248160, Note_off_c, 5, 54, 0
9, 248160, Note_on_c, 5, 54, 89
9, 248160, Sequencer_specific, 5, 5, 15, 15, 2, 2
9, 248160, Note_on_c, 5, 47, 89
9, 248160, Sequencer_specific, 4, 5, 15, 15, 2
9, 248640, Note_off_c, 5, 47, 0
9, 248640, Note_off_c, 5, 54, 0
9, 248640, Note_on_c, 5, 54, 89
9, 248640, Sequencer_specific, 4, 5, 15, 15, 2
9, 248640, Note_on_c, 5, 47, 89
9, 248640, Sequencer_specific, 4, 5, 15, 15, 2
9, 249120, Note_off_c, 5, 47, 0
9, 249120, Note_off_c, 5, 54, 0
9, 249120, Note_on_c, 5, 54, 89
9, 249120, Sequencer_specific, 4, 5, 15, 15, 2
9, 249120, Note_on_c, 5, 47, 89
9, 249120, Sequencer_specific, 4, 5, 15, 15, 2
9, 249600, Note_off_c, 5, 47, 0
9, 249600, Note_off_c, 5, 54, 0
9, 249600, Note_on_c, 5, 47, 89
9, 249600, Note_on_c, 5, 40, 89
9, 250080, Note_off_c, 5, 40, 0
9, 250080, Note_off_c, 5, 47, 0
9, 250080, Note_on_c, 5, 47, 89
9, 250080, Note_on_c, 5, 40, 89
9, 250080, Sequencer_specific, 5, 5, 15, 15, 0, 2
9, 250560, Note_off_c, 5, 40, 0
9, 250560, Note_off_c, 5, 47, 0
9, 250560, Note_on_c, 5, 47, 89
9, 250560, Note_on_c, 5, 40, 89
9, 251040, Note_off_c, 5, 40, 0
9, 251040, Note_off_c, 5, 47, 0
9, 251040, Note_on_c, 5, 47, 89
9, 251040, Note_on_c, 5, 40, 89
9, 251520, Note_off_c, 5, 40, 0
9, 251520, Note_off_c, 5, 47, 0
9, 251520, Note_on_c, 5, 47, 89
9, 251520, Note_on_c, 5, 40, 89
9, 252000, Note_off_c, 5, 40, 0
9, 252000, Note_off_c, 5, 47, 0
9, 252000, Note_on_c, 5, 47, 89
9, 252000, Note_on_c, 5, 40, 89
9, 252000, Sequencer_specific, 5, 5, 15, 15, 0, 2
9, 252480, Note_off_c, 5, 40, 0
9, 252480, Note_off_c, 5, 47, 0
9, 252480, Note_on_c, 5, 47, 89
9, 252480, Note_on_c, 5, 40, 89
9, 252960, Note_off_c, 5, 40, 0
9, 252960, Note_off_c, 5, 47, 0
9, 252960, Note_on_c, 5, 52, 89
9, 252960, Note_on_c, 5, 45, 89
9, 253440, Note_off_c, 5, 45, 0
9, 253440, Note_off_c, 5, 52, 0
9, 253920, Note_on_c, 5, 52, 89
9, 253920, Note_on_c, 5, 45, 89
9, 254400, Note_off_c, 5, 45, 0
9, 254400, Note_off_c, 5, 52, 0
9, 254880, Note_on_c, 5, 52, 89
9, 254880, Note_on_c, 5, 45, 89
9, 255360, Note_off_c, 5, 45, 0
9, 255360, Note_off_c, 5, 52, 0
9, 255360, Note_on_c, 5, 52, 89
9, 255360, Note_on_c, 5, 45, 89
9, 256320, Note_off_c, 5, 45, 0
9, 256320, Note_off_c, 5, 52, 0
9, 256320, Note_on_c, 5, 52, 89
9, 256320, Note_on_c, 5, 45, 89
9, 257280, Note_off_c, 5, 45, 0
9, 257280, Note_off_c, 5, 52, 0
9, 257280, Note_on_c, 5, 55, 89
9, 257280, Sequencer_specific, 4, 5, 15, 15, 2
9, 257280, Note_on_c, 5, 48, 89
9, 257280, Sequencer_specific, 4, 5, 15, 15, 2
9, 258240, Note_off_c, 5, 48, 0
9, 258240, Note_off_c, 5, 55, 0
9, 258240, Note_on_c, 5, 55, 89
9, 258240, Sequencer_specific, 4, 5, 15, 15, 2
9, 258240, Note_on_c, 5, 48, 89
9, 258240, Sequencer_specific, 4, 5, 15, 15, 2
9, 259200, Note_off_c, 5, 48, 0
9, 259200, Note_off_c, 5, 55, 0
9, 259200, Note_on_c, 5, 55, 89
9, 259200, Sequencer_specific, 4, 5, 15, 15, 2
9, 259200, Note_on_c, 5, 48, 89
9, 259200, Sequencer_specific, 4, 5, 15, 15, 2
9, 260160, Note_off_c, 5, 48, 0
9, 260160, Note_off_c, 5, 55, 0
9, 260160, Note_on_c, 5, 55, 89
9, 260160, Sequencer_specific, 4, 5, 15, 15, 2
9, 260160, Note_on_c, 5, 48, 89
9, 260160, Sequencer_specific, 4, 5, 15, 15, 2
9, 261120, Note_off_c, 5, 48, 0
9, 261120, Note_off_c, 5, 55, 0
9, 261120, Note_on_c, 5, 54, 89
9, 261120, Note_on_c, 5, 47, 89
9, 262080, Note_off_c, 5, 47, 0
9, 262080, Note_off_c, 5, 54, 0
9, 264960, Note_on_c, 5, 40, 89
9, 265920, Note_off_c, 5, 40, 0
9, 265920, Note_on_c, 5, 52, 89
9, 266880, Note_off_c, 5, 52, 0
9, 266880, Note_on_c, 5, 50, 89
9, 267360, Note_off_c, 5, 50, 0
9, 267360, Note_on_c, 5, 52, 89
9, 267360, Sequencer_specific, 5, 5, 15, 15, 0, 2
9, 267840, Note_off_c, 5, 52, 0
9, 267840, Note_on_c, 5, 47, 89
9, 268320, Note_off_c, 5, 47, 0
9, 268320, Note_on_c, 5, 45, 89
9, 268800, Note_off_c, 5, 45, 0
9, 269280, Note_on_c, 5, 45, 89
9, 269760, Note_off_c, 5, 45, 0
9, 270240, Note_on_c, 5, 43, 89
9, 270720, Note_off_c, 5, 43, 0
9, 270720, Note_on_c, 5, 45, 89
9, 271200, Note_off_c, 5, 45, 0
9, 271200, Note_on_c, 5, 47, 89
9, 271200, Sequencer_specific, 5, 5, 15, 15, 0, 2
9, 271680, Note_off_c, 5, 47, 0
9, 271680, Note_on_c, 5, 45, 89
9, 272160, Note_off_c, 5, 45, 0
9, 272160, Note_on_c, 5, 43, 89
9, 272640, Note_off_c, 5, 43, 0
9, 272640, Note_on_c, 5, 40, 89
9, 273600, Note_off_c, 5, 40, 0
9, 273600, Note_on_c, 5, 52, 89
9, 274560, Note_off_c, 5, 52, 0
9, 274560, Note_on_c, 5, 50, 89
9, 275040, Note_off_c, 5, 50, 0
9, 275040, Note_on_c, 5, 52, 89
9, 275040, Sequencer_specific, 5, 5, 15, 15, 0, 2
9, 275520, Note_off_c, 5, 52, 0
9, 275520, Note_on_c, 5, 47, 89
9, 276000, Note_off_c, 5, 47, 0
9, 276000, Note_on_c, 5, 45, 89
9, 276480, Note_off_c, 5, 45, 0
9, 276960, Note_on_c, 5, 45, 89
9, 277440, Note_off_c, 5, 45, 0
9, 277920, Note_on_c, 5, 43, 89
9, 278400, Note_off_c, 5, 43, 0
9, 278400, Note_on_c, 5, 45, 89
9, 278880, Note_off_c, 5, 45, 0
9, 278880, Note_on_c, 5, 47, 89
9, 278880, Sequencer_specific, 5, 5, 15, 15, 0, 2
9, 279360, Note_off_c, 5, 47, 0
9, 279360, Note_on_c, 5, 45, 89
9, 279840, Note_off_c, 5, 45, 0
9, 279840, Note_on_c, 5, 43, 89
9, 280320, Note_off_c, 5, 43, 0
9, 280320, Note_on_c, 5, 40, 89
9, 281280, Note_off_c, 5, 40, 0
9, 281280, Note_on_c, 5, 52, 89
9, 282240, Note_off_c, 5, 52, 0
9, 282240, Note_on_c, 5, 50, 89
9, 282720, Note_off_c, 5, 50, 0
9, 282720, Note_on_c, 5, 52, 89
9, 282720, Sequencer_specific, 5, 5, 15, 15, 0, 2
9, 283200, Note_off_c, 5, 52, 0
9, 283200, Note_on_c, 5, 47, 89
9, 283680, Note_off_c, 5, 47, 0
9, 283680, Note_on_c, 5, 45, 89
9, 284160, Note_off_c, 5, 45, 0
9, 284640, Note_on_c, 5, 45, 89
9, 285120, Note_off_c, 5, 45, 0
9, 285600, Note_on_c, 5, 43, 89
9, 286080, Note_off_c, 5, 43, 0
9, 286080, Note_on_c, 5, 45, 89
9, 286560, Note_off_c, 5, 45, 0
9, 286560, Note_on_c, 5, 47, 89
9, 286560, Sequencer_specific, 5, 5, 15, 15, 0, 2
9, 287040, Note_off_c, 5, 47, 0
9, 287040, Note_on_c, 5, 45, 89
9, 287520, Note_off_c, 5, 45, 0
9, 287520, Note_on_c, 5, 43, 89
9, 288000, Note_off_c, 5, 43, 0
9, 288000, Note_on_c, 5, 40, 89
9, 288960, Note_off_c, 5, 40, 0
9, 288960, Note_on_c, 5, 52, 89
9, 289920, Note_off_c, 5, 52, 0
9, 289920, Note_on_c, 5, 50, 89
9, 290400, Note_off_c, 5, 50, 0
9, 290400, Note_on_c, 5, 52, 89
9, 290400, Sequencer_specific, 5, 5, 15, 15, 0, 2
9, 290880, Note_off_c, 5, 52, 0
9, 290880, Note_on_c, 5, 47, 89
9, 291360, Note_off_c, 5, 47, 0
9, 291360, Note_on_c, 5, 45, 89
9, 291840, Note_off_c, 5, 45, 0
9, 292320, Note_on_c, 5, 45, 89
9, 292800, Note_off_c, 5, 45, 0
9, 293280, Note_on_c, 5, 43, 89
9, 293760, Note_off_c, 5, 43, 0
9, 293760, Note_on_c, 5, 45, 89
9, 294240, Note_off_c, 5, 45, 0
9, 294240, Note_on_c, 5, 47, 89
9, 294240, Sequencer_specific, 5, 5, 15, 15, 0, 2
9, 294720, Note_off_c, 5, 47, 0
9, 294720, Note_on_c, 5, 45, 89
9, 295200, Note_off_c, 5, 45, 0
9, 295200, Note_on_c, 5, 43, 89
9, 295680, Note_off_c, 5, 43, 0
9, 295680, Note_on_c, 5, 40, 89
9, 296640, Note_off_c, 5, 40, 0
9, 296640, Note_on_c, 5, 52, 89
9, 297600, Note_off_c, 5, 52, 0
9, 297600, Note_on_c, 5, 50, 89
9, 298080, Note_off_c, 5, 50, 0
9, 298080, Note_on_c, 5, 52, 89
9, 298080, Sequencer_specific, 5, 5, 15, 15, 0, 2
9, 298560, Note_off_c, 5, 52, 0
9, 298560, Note_on_c, 5, 47, 89
9, 299040, Note_off_c, 5, 47, 0
9, 299040, Note_on_c, 5, 45, 89
9, 299520, Note_off_c, 5, 45, 0
9, 300000, Note_on_c, 5, 45, 89
9, 300480, Note_off_c, 5, 45, 0
9, 300960, Note_on_c, 5, 43, 89
9, 301440, Note_off_c, 5, 43, 0
9, 301440, Note_on_c, 5, 45, 89
9, 301920, Note_off_c, 5, 45, 0
9, 301920, Note_on_c, 5, 47, 89
9, 301920, Sequencer_specific, 5, 5, 15, 15, 0, 2
9, 302400, Note_off_c, 5, 47, 0
9, 302400, Note_on_c, 5, 45, 89
9, 302880, Note_off_c, 5, 45, 0
9, 302880, Note_on_c, 5, 43, 89
9, 303360, Note_off_c, 5, 43, 0
9, 303360, Note_on_c, 5, 40, 89
9, 304320, Note_off_c, 5, 40, 0
9, 304320, Note_on_c, 5, 52, 89
9, 305280, Note_off_c, 5, 52, 0
9, 305280, Note_on_c, 5, 50, 89
9, 305760, Note_off_c, 5, 50, 0
9, 305760, Note_on_c, 5, 52, 89
9, 305760, Sequencer_specific, 5, 5, 15, 15, 0, 2
9, 306240, Note_off_c, 5, 52, 0
9, 306240, Note_on_c, 5, 47, 89
9, 306720, Note_off_c, 5, 47, 0
9, 306720, Note_on_c, 5, 45, 89
9, 307200, Note_off_c, 5, 45, 0
9, 307680, Note_on_c, 5, 45, 89
9, 308160, Note_off_c, 5, 45, 0
9, 308640, Note_on_c, 5, 43, 89
9, 309120, Note_off_c, 5, 43, 0
9, 309120, Note_on_c, 5, 45, 89
9, 309600, Note_off_c, 5, 45, 0
9, 309600, Note_on_c, 5, 47, 89
9, 309600, Sequencer_specific, 5, 5, 15, 15, 0, 2
9, 310080, Note_off_c, 5, 47, 0
9, 310080, Note_on_c, 5, 45, 89
9, 310560, Note_off_c, 5, 45, 0
9, 310560, Note_on_c, 5, 43, 89
9, 311040, Note_off_c, 5, 43, 0
9, 311040, Note_on_c, 5, 40, 89
9, 312000, Note_off_c, 5, 40, 0
9, 312000, Note_on_c, 5, 52, 89
9, 312960, Note_off_c, 5, 52, 0
9, 312960, Note_on_c, 5, 50, 89
9, 313440, Note_off_c, 5, 50, 0
9, 313440, Note_on_c, 5, 52, 89
9, 313440, Sequencer_specific, 5, 5, 15, 15, 0, 2
9, 313920, Note_off_c, 5, 52, 0
9, 313920, Note_on_c, 5, 47, 89
9, 314400, Note_off_c, 5, 47, 0
9, 314400, Note_on_c, 5, 45, 89
9, 314880, Note_off_c, 5, 45, 0
9, 315360, Note_on_c, 5, 45, 89
9, 315840, Note_off_c, 5, 45, 0
9, 316320, Note_on_c, 5, 43, 89
9, 316800, Note_off_c, 5, 43, 0
9, 316800, Note_on_c, 5, 45, 89
9, 317280, Note_off_c, 5, 45, 0
9, 317280, Note_on_c, 5, 47, 89
9, 317280, Sequencer_specific, 5, 5, 15, 15, 0, 2
9, 317760, Note_off_c, 5, 47, 0
9, 317760, Note_on_c, 5, 45, 89
9, 318240, Note_off_c, 5, 45, 0
9, 318240, Note_on_c, 5, 43, 89
9, 318720, Note_off_c, 5, 43, 0
9, 318720, Note_on_c, 5, 40, 89
9, 319680, Note_off_c, 5, 40, 0
9, 319680, Note_on_c, 5, 52, 89
9, 320640, Note_off_c, 5, 52, 0
9, 320640, Note_on_c, 5, 50, 89
9, 321120, Note_off_c, 5, 50, 0
9, 321120, Note_on_c, 5, 52, 89
9, 321120, Sequencer_specific, 5, 5, 15, 15, 0, 2
9, 321600, Note_off_c, 5, 52, 0
9, 321600, Note_on_c, 5, 47, 89
9, 322080, Note_off_c, 5, 47, 0
9, 322080, Note_on_c, 5, 45, 89
9, 322560, Note_off_c, 5, 45, 0
9, 326400, Note_on_c, 5, 55, 89
9, 326400, Sequencer_specific, 4, 5, 15, 15, 2
9, 326400, Note_on_c, 5, 48, 89
9, 326400, Sequencer_specific, 4, 5, 15, 15, 2
9, 326880, Note_off_c, 5, 48, 0
9, 326880, Note_off_c, 5, 55, 0
9, 326880, Note_on_c, 5, 55, 89
9, 326880, Sequencer_specific, 5, 5, 15, 15, 2, 2
9, 326880, Note_on_c, 5, 48, 89
9, 326880, Sequencer_specific, 4, 5, 15, 15, 2
9, 327360, Note_off_c, 5, 48, 0
9, 327360, Note_off_c, 5, 55, 0
9, 327360, Note_on_c, 5, 55, 89
9, 327360, Sequencer_specific, 4, 5, 15, 15, 2
9, 327360, Note_on_c, 5, 48, 89
9, 327360, Sequencer_specific, 4, 5, 15, 15, 2
9, 327840, Note_off_c, 5, 48, 0
9, 327840, Note_off_c, 5, 55, 0
9, 327840, Note_on_c, 5, 55, 89
9, 327840, Sequencer_specific, 4, 5, 15, 15, 2
9, 327840, Note_on_c, 5, 48, 89
9, 327840, Sequencer_specific, 4, 5, 15, 15, 2
9, 328320, Note_off_c, 5, 48, 0
9, 328320, Note_off_c, 5, 55, 0
9, 328320, Note_on_c, 5, 55, 89
9, 328320, Sequencer_specific, 4, 5, 15, 15, 2
9, 328320, Note_on_c, 5, 48, 89
9, 328320, Sequencer_specific, 4, 5, 15, 15, 2
9, 328800, Note_off_c, 5, 48, 0
9, 328800, Note_off_c, 5, 55, 0
9, 328800, Note_on_c, 5, 55, 89
9, 328800, Sequencer_specific, 5, 5, 15, 15, 2, 2
9, 328800, Note_on_c, 5, 48, 89
9, 328800, Sequencer_specific, 4, 5, 15, 15, 2
9, 329280, Note_off_c, 5, 48, 0
9, 329280, Note_off_c, 5, 55, 0
9, 329280, Note_on_c, 5, 55, 89
9, 329280, Sequencer_specific, 4, 5, 15, 15, 2
9, 329280, Note_on_c, 5, 48, 89
9, 329280, Sequencer_specific, 4, 5, 15, 15, 2
9, 329760, Note_off_c, 5, 48, 0
9, 329760, Note_off_c, 5, 55, 0
9, 329760, Note_on_c, 5, 55, 89
9, 329760, Sequencer_specific, 4, 5, 15, 15, 2
9, 329760, Note_on_c, 5, 48, 89
9, 329760, Sequencer_specific, 4, 5, 15, 15, 2
9, 330240, Note_off_c, 5, 48, 0
9, 330240, Note_off_c, 5, 55, 0
9, 330240, Note_on_c, 5, 54, 89
9, 330240, Sequencer_specific, 4, 5, 15, 15, 2
9, 330240, Note_on_c, 5, 47, 89
9, 330240, Sequencer_specific, 4, 5, 15, 15, 2
9, 330720, Note_off_c, 5, 47, 0
9, 330720, Note_off_c, 5, 54, 0
9, 330720, Note_on_c, 5, 54, 89
9, 330720, Sequencer_specific, 5, 5, 15, 15, 2, 2
9, 330720, Note_on_c, 5, 47, 89
9, 330720, Sequencer_specific, 4, 5, 15, 15, 2
9, 331200, Note_off_c, 5, 47, 0
9, 331200, Note_off_c, 5, 54, 0
9, 331200, Note_on_c, 5, 54, 89
9, 331200, Sequencer_specific, 4, 5, 15, 15, 2
9, 331200, Note_on_c, 5, 47, 89
9, 331200, Sequencer_specific, 4, 5, 15, 15, 2
9, 331680, Note_off_c, 5, 47, 0
9, 331680, Note_off_c, 5, 54, 0
9, 331680, Note_on_c, 5, 54, 89
9, 331680, Sequencer_specific, 4, 5, 15, 15, 2
9, 331680, Note_on_c, 5, 47, 89
9, 331680, Sequencer_specific, 4, 5, 15, 15, 2
9, 332160, Note_off_c, 5, 47, 0
9, 332160, Note_off_c, 5, 54, 0
9, 332160, Note_on_c, 5, 54, 89
9, 332160, Sequencer_specific, 4, 5, 15, 15, 2
9, 332160, Note_on_c, 5, 47, 89
9, 332160, Sequencer_specific, 4, 5, 15, 15, 2
9, 332640, Note_off_c, 5, 47, 0
9, 332640, Note_off_c, 5, 54, 0
9, 332640, Note_on_c, 5, 54, 89
9, 332640, Sequencer_specific, 5, 5, 15, 15, 2, 2
9, 332640, Note_on_c, 5, 47, 89
9, 332640, Sequencer_specific, 4, 5, 15, 15, 2
9, 333120, Note_off_c, 5, 47, 0
9, 333120, Note_off_c, 5, 54, 0
9, 333120, Note_on_c, 5, 54, 89
9, 333120, Sequencer_specific, 4, 5, 15, 15, 2
9, 333120, Note_on_c, 5, 47, 89
9, 333120, Sequencer_specific, 4, 5, 15, 15, 2
9, 333600, Note_off_c, 5, 47, 0
9, 333600, Note_off_c, 5, 54, 0
9, 333600, Note_on_c, 5, 54, 89
9, 333600, Sequencer_specific, 4, 5, 15, 15, 2
9, 333600, Note_on_c, 5, 47, 89
9, 333600, Sequencer_specific, 4, 5, 15, 15, 2
9, 334080, Note_off_c, 5, 47, 0
9, 334080, Note_off_c, 5, 54, 0
9, 334080, Note_on_c, 5, 47, 89
9, 334080, Note_on_c, 5, 40, 89
9, 334560, Note_off_c, 5, 40, 0
9, 334560, Note_off_c, 5, 47, 0
9, 334560, Note_on_c, 5, 47, 89
9, 334560, Note_on_c, 5, 40, 89
9, 334560, Sequencer_specific, 5, 5, 15, 15, 0, 2
9, 335040, Note_off_c, 5, 40, 0
9, 335040, Note_off_c, 5, 47, 0
9, 335040, Note_on_c, 5, 47, 89
9, 335040, Note_on_c, 5, 40, 89
9, 335520, Note_off_c, 5, 40, 0
9, 335520, Note_off_c, 5, 47, 0
9, 335520, Note_on_c, 5, 47, 89
9, 335520, Note_on_c, 5, 40, 89
9, 336000, Note_off_c, 5, 40, 0
9, 336000, Note_off_c, 5, 47, 0
9, 336000, Note_on_c, 5, 47, 89
9, 336000, Note_on_c, 5, 40, 89
9, 336480, Note_off_c, 5, 40, 0
9, 336480, Note_off_c, 5, 47, 0
9, 336480, Note_on_c, 5, 47, 89
9, 336480, Note_on_c, 5, 40, 89
9, 336480, Sequencer_specific, 5, 5, 15, 15, 0, 2
9, 336960, Note_off_c, 5, 40, 0
9, 336960, Note_off_c, 5, 47, 0
9, 336960, Note_on_c, 5, 47, 89
9, 336960, Note_on_c, 5, 40, 89
9, 337440, Note_off_c, 5, 40, 0
9, 337440, Note_off_c, 5, 47, 0
9, 337440, Note_on_c, 5, 52, 89
9, 337440, Note_on_c, 5, 45, 89
9, 337920, Note_off_c, 5, 45, 0
9, 337920, Note_off_c, 5, 52, 0
9, 338400, Note_on_c, 5, 52, 89
9, 338400, Note_on_c, 5, 45, 89
9, 338880, Note_off_c, 5, 45, 0
9, 338880, Note_off_c, 5, 52, 0
9, 339360, Note_on_c, 5, 52, 89
9, 339360, Note_on_c, 5, 45, 89
9, 339840, Note_off_c, 5, 45, 0
9, 339840, Note_off_c, 5, 52, 0
9, 339840, Note_on_c, 5, 52, 89
9, 339840, Note_on_c, 5, 45, 89
9, 340800, Note_off_c, 5, 45, 0
9, 340800, Note_off_c, 5, 52, 0
9, 340800, Note_on_c, 5, 52, 89
9, 340800, Note_on_c, 5, 45, 89
9, 341760, Note_off_c, 5, 45, 0
9, 341760, Note_off_c, 5, 52, 0
9, 341760, Note_on_c, 5, 55, 89
9, 341760, Sequencer_specific, 4, 5, 15, 15, 2
9, 341760, Note_on_c, 5, 48, 89
9, 341760, Sequencer_specific, 4, 5, 15, 15, 2
9, 342240, Note_off_c, 5, 48, 0
9, 342240, Note_off_c, 5, 55, 0
9, 342240, Note_on_c, 5, 55, 89
9, 342240, Sequencer_specific, 5, 5, 15, 15, 2, 2
9, 342240, Note_on_c, 5, 48, 89
9, 342240, Sequencer_specific, 4, 5, 15, 15, 2
9, 342720, Note_off_c, 5, 48, 0
9, 342720, Note_off_c, 5, 55, 0
9, 342720, Note_on_c, 5, 55, 89
9, 342720, Sequencer_specific, 4, 5, 15, 15, 2
9, 342720, Note_on_c, 5, 48, 89
9, 342720, Sequencer_specific, 4, 5, 15, 15, 2
9, 343200, Note_off_c, 5, 48, 0
9, 343200, Note_off_c, 5, 55, 0
9, 343200, Note_on_c, 5, 55, 89
9, 343200, Sequencer_specific, 4, 5, 15, 15, 2
9, 343200, Note_on_c, 5, 48, 89
9, 343200, Sequencer_specific, 4, 5, 15, 15, 2
9, 343680, Note_off_c, 5, 48, 0
9, 343680, Note_off_c, 5, 55, 0
9, 343680, Note_on_c, 5, 55, 89
9, 343680, Sequencer_specific, 4, 5, 15, 15, 2
9, 343680, Note_on_c, 5, 48, 89
9, 343680, Sequencer_specific, 4, 5, 15, 15, 2
9, 344160, Note_off_c, 5, 48, 0
9, 344160, Note_off_c, 5, 55, 0
9, 344160, Note_on_c, 5, 55, 89
9, 344160, Sequencer_specific, 5, 5, 15, 15, 2, 2
9, 344160, Note_on_c, 5, 48, 89
9, 344160, Sequencer_specific, 4, 5, 15, 15, 2
9, 344640, Note_off_c, 5, 48, 0
9, 344640, Note_off_c, 5, 55, 0
9, 344640, Note_on_c, 5, 55, 89
9, 344640, Sequencer_specific, 4, 5, 15, 15, 2
9, 344640, Note_on_c, 5, 48, 89
9, 344640, Sequencer_specific, 4, 5, 15, 15, 2
9, 345120, Note_off_c, 5, 48, 0
9, 345120, Note_off_c, 5, 55, 0
9, 345120, Note_on_c, 5, 55, 89
9, 345120, Sequencer_specific, 4, 5, 15, 15, 2
9, 345120, Note_on_c, 5, 48, 89
9, 345120, Sequencer_specific, 4, 5, 15, 15, 2
9, 345600, Note_off_c, 5, 48, 0
9, 345600, Note_off_c, 5, 55, 0
9, 345600, Note_on_c, 5, 54, 89
9, 345600, Sequencer_specific, 4, 5, 15, 15, 2
9, 345600, Note_on_c, 5, 47, 89
9, 345600, Sequencer_specific, 4, 5, 15, 15, 2
9, 346080, Note_off_c, 5, 47, 0
9, 346080, Note_off_c, 5, 54, 0
9, 346080, Note_on_c, 5, 54, 89
9, 346080, Sequencer_specific, 5, 5, 15, 15, 2, 2
9, 346080, Note_on_c, 5, 47, 89
9, 346080, Sequencer_specific, 4, 5, 15, 15, 2
9, 346560, Note_off_c, 5, 47, 0
9, 346560, Note_off_c, 5, 54, 0
9, 346560, Note_on_c, 5, 54, 89
9, 346560, Sequencer_specific, 4, 5, 15, 15, 2
9, 346560, Note_on_c, 5, 47, 89
9, 346560, Sequencer_specific, 4, 5, 15, 15, 2
9, 347040, Note_off_c, 5, 47, 0
9, 347040, Note_off_c, 5, 54, 0
9, 347040, Note_on_c, 5, 54, 89
9, 347040, Sequencer_specific, 4, 5, 15, 15, 2
9, 347040, Note_on_c, 5, 47, 89
9, 347040, Sequencer_specific, 4, 5, 15, 15, 2
9, 347520, Note_off_c, 5, 47, 0
9, 347520, Note_off_c, 5, 54, 0
9, 347520, Note_on_c, 5, 54, 89
9, 347520, Sequencer_specific, 4, 5, 15, 15, 2
9, 347520, Note_on_c, 5, 47, 89
9, 347520, Sequencer_specific, 4, 5, 15, 15, 2
9, 348000, Note_off_c, 5, 47, 0
9, 348000, Note_off_c, 5, 54, 0
9, 348000, Note_on_c, 5, 54, 89
9, 348000, Sequencer_specific, 5, 5, 15, 15, 2, 2
9, 348000, Note_on_c, 5, 47, 89
9, 348000, Sequencer_specific, 4, 5, 15, 15, 2
9, 348480, Note_off_c, 5, 47, 0
9, 348480, Note_off_c, 5, 54, 0
9, 348480, Note_on_c, 5, 54, 89
9, 348480, Sequencer_specific, 4, 5, 15, 15, 2
9, 348480, Note_on_c, 5, 47, 89
9, 348480, Sequencer_specific, 4, 5, 15, 15, 2
9, 348960, Note_off_c, 5, 47, 0
9, 348960, Note_off_c, 5, 54, 0
9, 348960, Note_on_c, 5, 54, 89
9, 348960, Sequencer_specific, 4, 5, 15, 15, 2
9, 348960, Note_on_c, 5, 47, 89
9, 348960, Sequencer_specific, 4, 5, 15, 15, 2
9, 349440, Note_off_c, 5, 47, 0
9, 349440, Note_off_c, 5, 54, 0
9, 349440, Note_on_c, 5, 47, 89
9, 349440, Note_on_c, 5, 40, 89
9, 349920, Note_off_c, 5, 40, 0
9, 349920, Note_off_c, 5, 47, 0
9, 349920, Note_on_c, 5, 47, 89
9, 349920, Note_on_c, 5, 40, 89
9, 349920, Sequencer_specific, 5, 5, 15, 15, 0, 2
9, 350400, Note_off_c, 5, 40, 0
9, 350400, Note_off_c, 5, 47, 0
9, 350400, Note_on_c, 5, 47, 89
9, 350400, Note_on_c, 5, 40, 89
9, 350880, Note_off_c, 5, 40, 0
9, 350880, Note_off_c, 5, 47, 0
9, 350880, Note_on_c, 5, 47, 89
9, 350880, Note_on_c, 5, 40, 89
9, 351360, Note_off_c, 5, 40, 0
9, 351360, Note_off_c, 5, 47, 0
9, 351360, Note_on_c, 5, 47, 89
9, 351360, Note_on_c, 5, 40, 89
9, 351840, Note_off_c, 5, 40, 0
9, 351840, Note_off_c, 5, 47, 0
9, 351840, Note_on_c, 5, 47, 89
9, 351840, Note_on_c, 5, 40, 89
9, 351840, Sequencer_specific, 5, 5, 15, 15, 0, 2
9, 352320, Note_off_c, 5, 40, 0
9, 352320, Note_off_c, 5, 47, 0
9, 352320, Note_on_c, 5, 47, 89
9, 352320, Note_on_c, 5, 40, 89
9, 352800, Note_off_c, 5, 40, 0
9, 352800, Note_off_c, 5, 47, 0
9, 352800, Note_on_c, 5, 52, 89
9, 352800, Note_on_c, 5, 45, 89
9, 353280, Note_off_c, 5, 45, 0
9, 353280, Note_off_c, 5, 52, 0
9, 353760, Note_on_c, 5, 52, 89
9, 353760, Note_on_c, 5, 45, 89
9, 354240, Note_off_c, 5, 45, 0
9, 354240, Note_off_c, 5, 52, 0
9, 354720, Note_on_c, 5, 52, 89
9, 354720, Note_on_c, 5, 45, 89
9, 355200, Note_off_c, 5, 45, 0
9, 355200, Note_off_c, 5, 52, 0
9, 355200, Note_on_c, 5, 52, 89
9, 355200, Note_on_c, 5, 45, 89
9, 356160, Note_off_c, 5, 45, 0
9, 356160, Note_off_c, 5, 52, 0
9, 356160, Note_on_c, 5, 52, 89
9, 356160, Note_on_c, 5, 45, 89
9, 357120, Note_off_c, 5, 45, 0
9, 357120, Note_off_c, 5, 52, 0
9, 357120, Note_on_c, 5, 55, 89
9, 357120, Sequencer_specific, 4, 5, 15, 15, 2
9, 357120, Note_on_c, 5, 48, 89
9, 357120, Sequencer_specific, 4, 5, 15, 15, 2
9, 357600, Note_off_c, 5, 48, 0
9, 357600, Note_off_c, 5, 55, 0
9, 357600, Note_on_c, 5, 55, 89
9, 357600, Sequencer_specific, 5, 5, 15, 15, 2, 2
9, 357600, Note_on_c, 5, 48, 89
9, 357600, Sequencer_specific, 4, 5, 15, 15, 2
9, 358080, Note_off_c, 5, 48, 0
9, 358080, Note_off_c, 5, 55, 0
9, 358080, Note_on_c, 5, 55, 89
9, 358080, Sequencer_specific, 4, 5, 15, 15, 2
9, 358080, Note_on_c, 5, 48, 89
9, 358080, Sequencer_specific, 4, 5, 15, 15, 2
9, 358560, Note_off_c, 5, 48, 0
9, 358560, Note_off_c, 5, 55, 0
9, 358560, Note_on_c, 5, 55, 89
9, 358560, Sequencer_specific, 4, 5, 15, 15, 2
9, 358560, Note_on_c, 5, 48, 89
9, 358560, Sequencer_specific, 4, 5, 15, 15, 2
9, 359040, Note_off_c, 5, 48, 0
9, 359040, Note_off_c, 5, 55, 0
9, 359040, Note_on_c, 5, 55, 89
9, 359040, Sequencer_specific, 4, 5, 15, 15, 2
9, 359040, Note_on_c, 5, 48, 89
9, 359040, Sequencer_specific, 4, 5, 15, 15, 2
9, 359520, Note_off_c, 5, 48, 0
9, 359520, Note_off_c, 5, 55, 0
9, 359520, Note_on_c, 5, 55, 89
9, 359520, Sequencer_specific, 5, 5, 15, 15, 2, 2
9, 359520, Note_on_c, 5, 48, 89
9, 359520, Sequencer_specific, 4, 5, 15, 15, 2
9, 360000, Note_off_c, 5, 48, 0
9, 360000, Note_off_c, 5, 55, 0
9, 360000, Note_on_c, 5, 55, 89
9, 360000, Sequencer_specific, 4, 5, 15, 15, 2
9, 360000, Note_on_c, 5, 48, 89
9, 360000, Sequencer_specific, 4, 5, 15, 15, 2
9, 360480, Note_off_c, 5, 48, 0
9, 360480, Note_off_c, 5, 55, 0
9, 360480, Note_on_c, 5, 55, 89
9, 360480, Sequencer_specific, 4, 5, 15, 15, 2
9, 360480, Note_on_c, 5, 48, 89
9, 360480, Sequencer_specific, 4, 5, 15, 15, 2
9, 360960, Note_off_c, 5, 48, 0
9, 360960, Note_off_c, 5, 55, 0
9, 360960, Note_on_c, 5, 54, 89
9, 360960, Sequencer_specific, 4, 5, 15, 15, 2
9, 360960, Note_on_c, 5, 47, 89
9, 360960, Sequencer_specific, 4, 5, 15, 15, 2
9, 361440, Note_off_c, 5, 47, 0
9, 361440, Note_off_c, 5, 54, 0
9, 361440, Note_on_c, 5, 54, 89
9, 361440, Sequencer_specific, 5, 5, 15, 15, 2, 2
9, 361440, Note_on_c, 5, 47, 89
9, 361440, Sequencer_specific, 4, 5, 15, 15, 2
9, 361920, Note_off_c, 5, 47, 0
9, 361920, Note_off_c, 5, 54, 0
9, 361920, Note_on_c, 5, 54, 89
9, 361920, Sequencer_specific, 4, 5, 15, 15, 2
9, 361920, Note_on_c, 5, 47, 89
9, 361920, Sequencer_specific, 4, 5, 15, 15, 2
9, 362400, Note_off_c, 5, 47, 0
9, 362400, Note_off_c, 5, 54, 0
9, 362400, Note_on_c, 5, 54, 89
9, 362400, Sequencer_specific, 4, 5, 15, 15, 2
9, 362400, Note_on_c, 5, 47, 89
9, 362400, Sequencer_specific, 4, 5, 15, 15, 2
9, 362880, Note_off_c, 5, 47, 0
9, 362880, Note_off_c, 5, 54, 0
9, 362880, Note_on_c, 5, 54, 89
9, 362880, Sequencer_specific, 4, 5, 15, 15, 2
9, 362880, Note_on_c, 5, 47, 89
9, 362880, Sequencer_specific, 4, 5, 15, 15, 2
9, 363360, Note_off_c, 5, 47, 0
9, 363360, Note_off_c, 5, 54, 0
9, 363360, Note_on_c, 5, 54, 89
9, 363360, Sequencer_specific, 5, 5, 15, 15, 2, 2
9, 363360, Note_on_c, 5, 47, 89
9, 363360, Sequencer_specific, 4, 5, 15, 15, 2
9, 363840, Note_off_c, 5, 47, 0
9, 363840, Note_off_c, 5, 54, 0
9, 363840, Note_on_c, 5, 54, 89
9, 363840, Sequencer_specific, 4, 5, 15, 15, 2
9, 363840, Note_on_c, 5, 47, 89
9, 363840, Sequencer_specific, 4, 5, 15, 15, 2
9, 364320, Note_off_c, 5, 47, 0
9, 364320, Note_off_c, 5, 54, 0
9, 364320, Note_on_c, 5, 54, 89
9, 364320, Sequencer_specific, 4, 5, 15, 15, 2
9, 364320, Note_on_c, 5, 47, 89
9, 364320, Sequencer_specific, 4, 5, 15, 15, 2
9, 364800, Note_off_c, 5, 47, 0
9, 364800, Note_off_c, 5, 54, 0
9, 364800, Note_on_c, 5, 47, 89
9, 364800, Note_on_c, 5, 40, 89
9, 365280, Note_off_c, 5, 40, 0
9, 365280, Note_off_c, 5, 47, 0
9, 365280, Note_on_c, 5, 47, 89
9, 365280, Note_on_c, 5, 40, 89
9, 365280, Sequencer_specific, 5, 5, 15, 15, 0, 2
9, 365760, Note_off_c, 5, 40, 0
9, 365760, Note_off_c, 5, 47, 0
9, 365760, Note_on_c, 5, 47, 89
9, 365760, Note_on_c, 5, 40, 89
9, 366240, Note_off_c, 5, 40, 0
9, 366240, Note_off_c, 5, 47, 0
9, 366240, Note_on_c, 5, 47, 89
9, 366240, Note_on_c, 5, 40, 89
9, 366720, Note_off_c, 5, 40, 0
9, 366720, Note_off_c, 5, 47, 0
9, 366720, Note_on_c, 5, 47, 89
9, 366720, Note_on_c, 5, 40, 89
9, 367200, Note_off_c, 5, 40, 0
9, 367200, Note_off_c, 5, 47, 0
9, 367200, Note_on_c, 5, 47, 89
9, 367200, Note_on_c, 5, 40, 89
9, 367200, Sequencer_specific, 5, 5, 15, 15, 0, 2
9, 367680, Note_off_c, 5, 40, 0
9, 367680, Note_off_c, 5, 47, 0
9, 367680, Note_on_c, 5, 47, 89
9, 367680, Note_on_c, 5, 40, 89
9, 368160, Note_off_c, 5, 40, 0
9, 368160, Note_off_c, 5, 47, 0
9, 368160, Note_on_c, 5, 52, 89
9, 368160, Note_on_c, 5, 45, 89
9, 368640, Note_off_c, 5, 45, 0
9, 368640, Note_off_c, 5, 52, 0
9, 369120, Note_on_c, 5, 52, 89
9, 369120, Note_on_c, 5, 45, 89
9, 369600, Note_off_c, 5, 45, 0
9, 369600, Note_off_c, 5, 52, 0
9, 370080, Note_on_c, 5, 52, 89
9, 370080, Note_on_c, 5, 45, 89
9, 370560, Note_off_c, 5, 45, 0
9, 370560, Note_off_c, 5, 52, 0
9, 370560, Note_on_c, 5, 52, 89
9, 370560, Note_on_c, 5, 45, 89
9, 371520, Note_off_c, 5, 45, 0
9, 371520, Note_off_c, 5, 52, 0
9, 371520, Note_on_c, 5, 52, 89
9, 371520, Note_on_c, 5, 45, 89
9, 372480, Note_off_c, 5, 45, 0
9, 372480, Note_off_c, 5, 52, 0
9, 372480, Note_on_c, 5, 55, 89
9, 372480, Sequencer_specific, 4, 5, 15, 15, 2
9, 372480, Note_on_c, 5, 48, 89
9, 372480, Sequencer_specific, 4, 5, 15, 15, 2
9, 373440, Note_off_c, 5, 48, 0
9, 373440, Note_off_c, 5, 55, 0
9, 373440, Note_on_c, 5, 55, 89
9, 373440, Sequencer_specific, 4, 5, 15, 15, 2
9, 373440, Note_on_c, 5, 48, 89
9, 373440, Sequencer_specific, 4, 5, 15, 15, 2
9, 374400, Note_off_c, 5, 48, 0
9, 374400, Note_off_c, 5, 55, 0
9, 374400, Note_on_c, 5, 55, 89
9, 374400, Sequencer_specific, 4, 5, 15, 15, 2
9, 374400, Note_on_c, 5, 48, 89
9, 374400, Sequencer_specific, 4, 5, 15, 15, 2
9, 375360, Note_off_c, 5, 48, 0
9, 375360, Note_off_c, 5, 55, 0
9, 375360, Note_on_c, 5, 55, 89
9, 375360, Sequencer_specific, 4, 5, 15, 15, 2
9, 375360, Note_on_c, 5, 48, 89
9, 375360, Sequencer_specific, 4, 5, 15, 15, 2
9, 376320, Note_off_c, 5, 48, 0
9, 376320, Note_off_c, 5, 55, 0
9, 376320, Note_on_c, 5, 54, 89
9, 376320, Sequencer_specific, 4, 5, 15, 15, 2
9, 376320, Note_on_c, 5, 47, 89
9, 376320, Sequencer_specific, 4, 5, 15, 15, 2
9, 377280, Note_off_c, 5, 47, 0
9, 377280, Note_off_c, 5, 54, 0
9, 378720, Note_on_c, 5, 35, 89
9, 379200, Note_off_c, 5, 35, 0
9, 379200, Note_on_c, 5, 38, 89
9, 379680, Note_off_c, 5, 38, 0
9, 379680, Note_on_c, 5, 39, 89
9, 380160, Note_off_c, 5, 39, 0
9, 380160, Note_on_c, 5, 40, 89
9, 381120, Note_off_c, 5, 40, 0
9, 384000, Sequencer_specific, 3, 5, 15, 10
9, 384000, End_track
10, 0, Start_track
10, 0, Sequencer_specific, 5, 5, 15, 9, 76, 72
10, 0, Control_c, 9, 7, 125
10, 0, Sequencer_specific, 15, 5, 15, 6, 71, 101, 110, 101, 114, 97, 108, 32, 77, 73, 68, 73
10, 0, Key_signature, 1, "minor"
10, 0, Sequencer_specific, 4, 5, 15, 16, 25
10, 0, Program_c, 9, 82
10, 0, Title_t, "Percussion"
10, 0, Note_on_c, 9, 42, 89
10, 960, Note_off_c, 9, 42, 0
10, 960, Note_on_c, 9, 42, 89
10, 1920, Note_off_c, 9, 42, 0
10, 1920, Note_on_c, 9, 42, 89
10, 2880, Note_off_c, 9, 42, 0
10, 2880, Note_on_c, 9, 42, 89
10, 3840, Note_off_c, 9, 42, 0
10, 11520, Note_on_c, 9, 50, 89
10, 11520, Note_on_c, 9, 38, 72
10, 11520, Sequencer_specific, 4, 5, 15, 15, 8
10, 11520, Note_on_c, 9, 35, 72
10, 11520, Sequencer_specific, 4, 5, 15, 15, 8
10, 11760, Note_off_c, 9, 50, 0
10, 12000, Note_off_c, 9, 38, 64
10, 12000, Note_off_c, 9, 35, 64
10, 12000, Note_on_c, 9, 50, 89
10, 12000, Note_on_c, 9, 38, 64
10, 12000, Sequencer_specific, 4, 5, 15, 15, 8
10, 12240, Note_off_c, 9, 50, 0
10, 12240, Note_on_c, 9, 50, 89
10, 12480, Note_off_c, 9, 38, 64
10, 12480, Note_off_c, 9, 50, 0
10, 12480, Note_on_c, 9, 38, 88
10, 12480, Sequencer_specific, 4, 5, 15, 15, 8
10, 12720, Note_on_c, 9, 50, 89
10, 12960, Note_off_c, 9, 38, 64
10, 12960, Note_off_c, 9, 50, 0
10, 12960, Note_on_c, 9, 38, 64
10, 12960, Sequencer_specific, 4, 5, 15, 15, 8
10, 13200, Note_on_c, 9, 50, 89
10, 13200, Sequencer_specific, 5, 5, 15, 15, 0, 2
10, 13440, Note_off_c, 9, 38, 64
10, 13440, Note_off_c, 9, 50, 0
10, 13440, Note_on_c, 9, 50, 89
10, 13440, Note_on_c, 9, 38, 72
10, 13440, Sequencer_specific, 4, 5, 15, 15, 8
10, 13440, Note_on_c, 9, 35, 72
10, 13440, Sequencer_specific, 4, 5, 15, 15, 8
10, 13680, Note_off_c, 9, 50, 0
10, 13920, Note_off_c, 9, 38, 64
10, 13920, Note_off_c, 9, 35, 64
10, 13920, Note_on_c, 9, 50, 89
10, 13920, Note_on_c, 9, 37, 64
10, 13920, Sequencer_specific, 4, 5, 15, 15, 8
10, 14160, Note_off_c, 9, 50, 0
10, 14400, Note_off_c, 9, 37, 64
10, 14400, Note_on_c, 9, 50, 89
10, 14400, Note_on_c, 9, 38, 88
10, 14400, Sequencer_specific, 4, 5, 15, 15, 8
10, 14640, Note_off_c, 9, 50, 0
10, 14640, Note_on_c, 9, 50, 89
10, 14880, Note_off_c, 9, 38, 64
10, 14880, Note_off_c, 9, 50, 0
10, 14880, Note_on_c, 9, 38, 64
10, 14880, Sequencer_specific, 4, 5, 15, 15, 8
10, 15120, Note_on_c, 9, 50, 89
10, 15120, Sequencer_specific, 4, 5, 15, 15, 8
10, 15360, Note_off_c, 9, 38, 64
10, 15360, Note_off_c, 9, 50, 0
10, 15360, Note_on_c, 9, 38, 72
10, 15360, Sequencer_specific, 4, 5, 15, 15, 8
10, 15360, Note_on_c, 9, 35, 72
10, 15360, Sequencer_specific, 4, 5, 15, 15, 8
10, 15600, Note_on_c, 9, 50, 89
10, 15600, Sequencer_specific, 4, 5, 15, 15, 8
10, 15840, Note_off_c, 9, 38, 64
10, 15840, Note_off_c, 9, 35, 64
10, 15840, Note_off_c, 9, 50, 0
10, 15840, Note_on_c, 9, 50, 89
10, 15840, Sequencer_specific, 4, 5, 15, 15, 8
10, 15840, Note_on_c, 9, 38, 64
10, 15840, Sequencer_specific, 4, 5, 15, 15, 8
10, 16080, Note_off_c, 9, 50, 0
10, 16320, Note_off_c, 9, 38, 64
10, 16320, Note_on_c, 9, 50, 89
10, 16320, Sequencer_specific, 4, 5, 15, 15, 8
10, 16320, Note_on_c, 9, 38, 88
10, 16320, Sequencer_specific, 4, 5, 15, 15, 8
10, 16560, Note_off_c, 9, 50, 0
10, 16800, Note_off_c, 9, 38, 64
10, 16800, Note_on_c, 9, 50, 89
10, 16800, Sequencer_specific, 4, 5, 15, 15, 8
10, 16800, Note_on_c, 9, 38, 64
10, 16800, Sequencer_specific, 4, 5, 15, 15, 8
10, 17040, Note_off_c, 9, 50, 0
10, 17040, Note_on_c, 9, 50, 89
10, 17040, Sequencer_specific, 4, 5, 15, 15, 8
10, 17280, Note_off_c, 9, 38, 64
10, 17280, Note_off_c, 9, 50, 0
10, 17280, Note_on_c, 9, 37, 72
10, 17280, Sequencer_specific, 4, 5, 15, 15, 8
10, 17280, Note_on_c, 9, 35, 72
10, 17280, Sequencer_specific, 4, 5, 15, 15, 8
10, 17520, Note_on_c, 9, 50, 89
10, 17520, Sequencer_specific, 4, 5, 15, 15, 8
10, 17760, Note_off_c, 9, 37, 64
10, 17760, Note_off_c, 9, 35, 64
10, 17760, Note_off_c, 9, 50, 0
10, 17760, Note_on_c, 9, 38, 64
10, 17760, Sequencer_specific, 4, 5, 15, 15, 8
10, 18000, Note_on_c, 9, 50, 89
10, 18000, Sequencer_specific, 5, 5, 15, 15, 8, 2
10, 18240, Note_off_c, 9, 38, 64
10, 18240, Note_off_c, 9, 50, 0
10, 18240, Note_on_c, 9, 50, 89
10, 18240, Sequencer_specific, 4, 5, 15, 15, 8
10, 18240, Note_on_c, 9, 38, 88
10, 18240, Sequencer_specific, 4, 5, 15, 15, 8
10, 18480, Note_off_c, 9, 50, 0
10, 18720, Note_off_c, 9, 38, 64
10, 18720, Note_on_c, 9, 50, 89
10, 18720, Sequencer_specific, 4, 5, 15, 15, 8
10, 18720, Note_on_c, 9, 38, 64
10, 18720, Sequencer_specific, 4, 5, 15, 15, 8
10, 18960, Note_off_c, 9, 50, 0
10, 19200, Note_off_c, 9, 38, 64
10, 19200, Note_on_c, 9, 35, 88
10, 19200, Sequencer_specific, 4, 5, 15, 15, 8
10, 20160, Note_off_c, 9, 35, 64
10, 20160, Note_on_c, 9, 38, 80
10, 20160, Sequencer_specific, 4, 5, 15, 15, 8
10, 20160, Note_on_c, 9, 43, 80
10, 20160, Sequencer_specific, 4, 5, 15, 15, 8
10, 20640, Note_off_c, 9, 38, 64
10, 20640, Note_off_c, 9, 43, 64
10, 20640, Note_on_c, 9, 38, 80
10, 20640, Sequencer_specific, 4, 5, 15, 15, 8
10, 20640, Note_on_c, 9, 43, 80
10, 20640, Sequencer_specific, 4, 5, 15, 15, 8
10, 21120, Note_off_c, 9, 38, 64
10, 21120, Note_off_c, 9, 43, 64
10, 21120, Note_on_c, 9, 35, 88
10, 21120, Sequencer_specific, 4, 5, 15, 15, 8
10, 21600, Note_off_c, 9, 35, 64
10, 21600, Note_on_c, 9, 43, 72
10, 21600, Sequencer_specific, 4, 5, 15, 15, 8
10, 22080, Note_off_c, 9, 43, 64
10, 22080, Note_on_c, 9, 43, 80
10, 22080, Sequencer_specific, 4, 5, 15, 15, 8
10, 22080, Note_on_c, 9, 38, 80
10, 22080, Sequencer_specific, 4, 5, 15, 15, 8
10, 22560, Note_off_c, 9, 43, 64
10, 22560, Note_off_c, 9, 38, 64
10, 22560, Note_on_c, 9, 43, 72
10, 22560, Sequencer_specific, 4, 5, 15, 15, 8
10, 23040, Note_off_c, 9, 43, 64
10, 23040, Note_on_c, 9, 35, 88
10, 23040, Sequencer_specific, 4, 5, 15, 15, 8
10, 23520, Note_off_c, 9, 35, 64
10, 23520, Note_on_c, 9, 43, 72
10, 23520, Sequencer_specific, 4, 5, 15, 15, 8
10, 24000, Note_off_c, 9, 43, 64
10, 24000, Note_on_c, 9, 38, 80
10, 24000, Sequencer_specific, 4, 5, 15, 15, 8
10, 24000, Note_on_c, 9, 43, 80
10, 24000, Sequencer_specific, 4, 5, 15, 15, 8
10, 24480, Note_off_c, 9, 38, 64
10, 24480, Note_off_c, 9, 43, 64
10, 24480, Note_on_c, 9, 38, 80
10, 24480, Sequencer_specific, 4, 5, 15, 15, 8
10, 24480, Note_on_c, 9, 43, 80
10, 24480, Sequencer_specific, 4, 5, 15, 15, 8
10, 24960, Note_off_c, 9, 38, 64
10, 24960, Note_off_c, 9, 43, 64
10, 24960, Note_on_c, 9, 35, 88
10, 24960, Sequencer_specific, 4, 5, 15, 15, 8
10, 25440, Note_off_c, 9, 35, 64
10, 25440, Note_on_c, 9, 43, 72
10, 25440, Sequencer_specific, 4, 5, 15, 15, 8
10, 25920, Note_off_c, 9, 43, 64
10, 25920, Note_on_c, 9, 43, 80
10, 25920, Sequencer_specific, 4, 5, 15, 15, 8
10, 25920, Note_on_c, 9, 38, 80
10, 25920, Sequencer_specific, 4, 5, 15, 15, 8
10, 26400, Note_off_c, 9, 43, 64
10, 26400, Note_off_c, 9, 38, 64
10, 26400, Note_on_c, 9, 43, 72
10, 26400, Sequencer_specific, 4, 5, 15, 15, 8
10, 26880, Note_off_c, 9, 43, 64
10, 26880, Note_on_c, 9, 35, 88
10, 26880, Sequencer_specific, 4, 5, 15, 15, 8
10, 27840, Note_off_c, 9, 35, 64
10, 27840, Note_on_c, 9, 38, 80
10, 27840, Sequencer_specific, 4, 5, 15, 15, 8
10, 27840, Note_on_c, 9, 43, 80
10, 27840, Sequencer_specific, 4, 5, 15, 15, 8
10, 28320, Note_off_c, 9, 38, 64
10, 28320, Note_off_c, 9, 43, 64
10, 28320, Note_on_c, 9, 38, 80
10, 28320, Sequencer_specific, 4, 5, 15, 15, 8
10, 28320, Note_on_c, 9, 43, 80
10, 28320, Sequencer_specific, 4, 5, 15, 15, 8
10, 28800, Note_off_c, 9, 38, 64
10, 28800, Note_off_c, 9, 43, 64
10, 28800, Note_on_c, 9, 35, 88
10, 28800, Sequencer_specific, 4, 5, 15, 15, 8
10, 29280, Note_off_c, 9, 35, 64
10, 29280, Note_on_c, 9, 43, 72
10, 29280, Sequencer_specific, 4, 5, 15, 15, 8
10, 29760, Note_off_c, 9, 43, 64
10, 29760, Note_on_c, 9, 43, 80
10, 29760, Sequencer_specific, 4, 5, 15, 15, 8
10, 29760, Note_on_c, 9, 38, 80
10, 29760, Sequencer_specific, 4, 5, 15, 15, 8
10, 30240, Note_off_c, 9, 43, 64
10, 30240, Note_off_c, 9, 38, 64
10, 30240, Note_on_c, 9, 43, 72
10, 30240, Sequencer_specific, 4, 5, 15, 15, 8
10, 30720, Note_off_c, 9, 43, 64
10, 30720, Note_on_c, 9, 35, 88
10, 30720, Sequencer_specific, 4, 5, 15, 15, 8
10, 31200, Note_off_c, 9, 35, 64
10, 31200, Note_on_c, 9, 43, 72
10, 31200, Sequencer_specific, 4, 5, 15, 15, 8
10, 31680, Note_off_c, 9, 43, 64
10, 31680, Note_on_c, 9, 38, 80
10, 31680, Sequencer_specific, 4, 5, 15, 15, 8
10, 31680, Note_on_c, 9, 43, 80
10, 31680, Sequencer_specific, 4, 5, 15, 15, 8
10, 32160, Note_off_c, 9, 38, 64
10, 32160, Note_off_c, 9, 43, 64
10, 32160, Note_on_c, 9, 38, 80
10, 32160, Sequencer_specific, 4, 5, 15, 15, 8
10, 32160, Note_on_c, 9, 43, 80
10, 32160, Sequencer_specific, 4, 5, 15, 15, 8
10, 32640, Note_off_c, 9, 38, 64
10, 32640, Note_off_c, 9, 43, 64
10, 32640, Note_on_c, 9, 35, 88
10, 32640, Sequencer_specific, 4, 5, 15, 15, 8
10, 33120, Note_off_c, 9, 35, 64
10, 33120, Note_on_c, 9, 43, 72
10, 33120, Sequencer_specific, 4, 5, 15, 15, 8
10, 33600, Note_off_c, 9, 43, 64
10, 33600, Note_on_c, 9, 43, 80
10, 33600, Sequencer_specific, 4, 5, 15, 15, 8
10, 33600, Note_on_c, 9, 38, 80
10, 33600, Sequencer_specific, 4, 5, 15, 15, 8
10, 34080, Note_off_c, 9, 43, 64
10, 34080, Note_off_c, 9, 38, 64
10, 34080, Note_on_c, 9, 43, 72
10, 34080, Sequencer_specific, 4, 5, 15, 15, 8
10, 34560, Note_off_c, 9, 43, 64
10, 34560, Note_on_c, 9, 35, 88
10, 34560, Sequencer_specific, 4, 5, 15, 15, 8
10, 34560, Note_on_c, 9, 49, 88
10, 34560, Sequencer_specific, 4, 5, 15, 15, 8
10, 35520, Note_off_c, 9, 35, 64
10, 35520, Note_off_c, 9, 49, 64
10, 35520, Note_on_c, 9, 38, 80
10, 35520, Sequencer_specific, 4, 5, 15, 15, 8
10, 36000, Note_off_c, 9, 38, 64
10, 36000, Note_on_c, 9, 38, 80
10, 36000, Sequencer_specific, 4, 5, 15, 15, 8
10, 36000, Note_on_c, 9, 43, 80
10, 36000, Sequencer_specific, 4, 5, 15, 15, 8
10, 36480, Note_off_c, 9, 38, 64
10, 36480, Note_off_c, 9, 43, 64
10, 36480, Note_on_c, 9, 35, 88
10, 36480, Sequencer_specific, 4, 5, 15, 15, 8
10, 36960, Note_off_c, 9, 35, 64
10, 36960, Note_on_c, 9, 43, 72
10, 36960, Sequencer_specific, 4, 5, 15, 15, 8
10, 37440, Note_off_c, 9, 43, 64
10, 37440, Note_on_c, 9, 43, 80
10, 37440, Sequencer_specific, 4, 5, 15, 15, 8
10, 37440, Note_on_c, 9, 38, 80
10, 37440, Sequencer_specific, 4, 5, 15, 15, 8
10, 37920, Note_off_c, 9, 43, 64
10, 37920, Note_off_c, 9, 38, 64
10, 37920, Note_on_c, 9, 43, 72
10, 37920, Sequencer_specific, 4, 5, 15, 15, 8
10, 38400, Note_off_c, 9, 43, 64
10, 38400, Note_on_c, 9, 35, 88
10, 38400, Sequencer_specific, 4, 5, 15, 15, 8
10, 38880, Note_off_c, 9, 35, 64
10, 38880, Note_on_c, 9, 43, 72
10, 38880, Sequencer_specific, 4, 5, 15, 15, 8
10, 39360, Note_off_c, 9, 43, 64
10, 39360, Note_on_c, 9, 38, 80
10, 39360, Sequencer_specific, 4, 5, 15, 15, 8
10, 39840, Note_off_c, 9, 38, 64
10, 39840, Note_on_c, 9, 38, 80
10, 39840, Sequencer_specific, 4, 5, 15, 15, 8
10, 39840, Note_on_c, 9, 43, 80
10, 39840, Sequencer_specific, 4, 5, 15, 15, 8
10, 40320, Note_off_c, 9, 38, 64
10, 40320, Note_off_c, 9, 43, 64
10, 40320, Note_on_c, 9, 35, 88
10, 40320, Sequencer_specific, 4, 5, 15, 15, 8
10, 40800, Note_off_c, 9, 35, 64
10, 40800, Note_on_c, 9, 43, 72
10, 40800, Sequencer_specific, 4, 5, 15, 15, 8
10, 41280, Note_off_c, 9, 43, 64
10, 41280, Note_on_c, 9, 43, 80
10, 41280, Sequencer_specific, 4, 5, 15, 15, 8
10, 41280, Note_on_c, 9, 38, 80
10, 41280, Sequencer_specific, 4, 5, 15, 15, 8
10, 41760, Note_off_c, 9, 43, 64
10, 41760, Note_off_c, 9, 38, 64
10, 41760, Note_on_c, 9, 43, 72
10, 41760, Sequencer_specific, 4, 5, 15, 15, 8
10, 42240, Note_off_c, 9, 43, 64
10, 42240, Note_on_c, 9, 35, 88
10, 42240, Sequencer_specific, 4, 5, 15, 15, 8
10, 43200, Note_off_c, 9, 35, 64
10, 43200, Note_on_c, 9, 38, 80
10, 43200, Sequencer_specific, 4, 5, 15, 15, 8
10, 43680, Note_off_c, 9, 38, 64
10, 43680, Note_on_c, 9, 38, 80
10, 43680, Sequencer_specific, 4, 5, 15, 15, 8
10, 43680, Note_on_c, 9, 43, 80
10, 43680, Sequencer_specific, 4, 5, 15, 15, 8
10, 44160, Note_off_c, 9, 38, 64
10, 44160, Note_off_c, 9, 43, 64
10, 44160, Note_on_c, 9, 35, 88
10, 44160, Sequencer_specific, 4, 5, 15, 15, 8
10, 44640, Note_off_c, 9, 35, 64
10, 44640, Note_on_c, 9, 43, 72
10, 44640, Sequencer_specific, 4, 5, 15, 15, 8
10, 45120, Note_off_c, 9, 43, 64
10, 45120, Note_on_c, 9, 43, 80
10, 45120, Sequencer_specific, 4, 5, 15, 15, 8
10, 45120, Note_on_c, 9, 38, 80
10, 45120, Sequencer_specific, 4, 5, 15, 15, 8
10, 45600, Note_off_c, 9, 43, 64
10, 45600, Note_off_c, 9, 38, 64
10, 45600, Note_on_c, 9, 43, 72
10, 45600, Sequencer_specific, 4, 5, 15, 15, 8
10, 46080, Note_off_c, 9, 43, 64
10, 46080, Note_on_c, 9, 35, 88
10, 46080, Sequencer_specific, 4, 5, 15, 15, 8
10, 46560, Note_off_c, 9, 35, 64
10, 46560, Note_on_c, 9, 43, 72
10, 46560, Sequencer_specific, 4, 5, 15, 15, 8
10, 47040, Note_off_c, 9, 43, 64
10, 47040, Note_on_c, 9, 38, 80
10, 47040, Sequencer_specific, 4, 5, 15, 15, 8
10, 47520, Note_off_c, 9, 38, 64
10, 47520, Note_on_c, 9, 38, 80
10, 47520, Sequencer_specific, 4, 5, 15, 15, 8
10, 47520, Note_on_c, 9, 43, 80
10, 47520, Sequencer_specific, 4, 5, 15, 15, 8
10, 48000, Note_off_c, 9, 38, 64
10, 48000, Note_off_c, 9, 43, 64
10, 48000, Note_on_c, 9, 35, 88
10, 48000, Sequencer_specific, 4, 5, 15, 15, 8
10, 48480, Note_off_c, 9, 35, 64
10, 48480, Note_on_c, 9, 43, 72
10, 48480, Sequencer_specific, 4, 5, 15, 15, 8
10, 48960, Note_off_c, 9, 43, 64
10, 48960, Note_on_c, 9, 43, 80
10, 48960, Sequencer_specific, 4, 5, 15, 15, 8
10, 48960, Note_on_c, 9, 38, 80
10, 48960, Sequencer_specific, 4, 5, 15, 15, 8
10, 49440, Note_off_c, 9, 43, 64
10, 49440, Note_off_c, 9, 38, 64
10, 49440, Note_on_c, 9, 43, 72
10, 49440, Sequencer_specific, 4, 5, 15, 15, 8
10, 49920, Note_off_c, 9, 43, 64
10, 49920, Note_on_c, 9, 35, 88
10, 49920, Sequencer_specific, 4, 5, 15, 15, 8
10, 50880, Note_off_c, 9, 35, 64
10, 50880, Note_on_c, 9, 38, 80
10, 50880, Sequencer_specific, 4, 5, 15, 15, 8
10, 51360, Note_off_c, 9, 38, 64
10, 51360, Note_on_c, 9, 38, 80
10, 51360, Sequencer_specific, 4, 5, 15, 15, 8
10, 51360, Note_on_c, 9, 43, 80
10, 51360, Sequencer_specific, 4, 5, 15, 15, 8
10, 51840, Note_off_c, 9, 38, 64
10, 51840, Note_off_c, 9, 43, 64
10, 51840, Note_on_c, 9, 35, 88
10, 51840, Sequencer_specific, 4, 5, 15, 15, 8
10, 52320, Note_off_c, 9, 35, 64
10, 52320, Note_on_c, 9, 43, 72
10, 52320, Sequencer_specific, 4, 5, 15, 15, 8
10, 52800, Note_off_c, 9, 43, 64
10, 52800, Note_on_c, 9, 43, 80
10, 52800, Sequencer_specific, 4, 5, 15, 15, 8
10, 52800, Note_on_c, 9, 38, 80
10, 52800, Sequencer_specific, 4, 5, 15, 15, 8
10, 53280, Note_off_c, 9, 43, 64
10, 53280, Note_off_c, 9, 38, 64
10, 53280, Note_on_c, 9, 43, 72
10, 53280, Sequencer_specific, 4, 5, 15, 15, 8
10, 53760, Note_off_c, 9, 43, 64
10, 53760, Note_on_c, 9, 35, 88
10, 53760, Sequencer_specific, 4, 5, 15, 15, 8
10, 54240, Note_off_c, 9, 35, 64
10, 54240, Note_on_c, 9, 43, 72
10, 54240, Sequencer_specific, 4, 5, 15, 15, 8
10, 54720, Note_off_c, 9, 43, 64
10, 54720, Note_on_c, 9, 38, 80
10, 54720, Sequencer_specific, 4, 5, 15, 15, 8
10, 54720, Note_on_c, 9, 43, 80
10, 54720, Sequencer_specific, 4, 5, 15, 15, 8
10, 55200, Note_off_c, 9, 38, 64
10, 55200, Note_off_c, 9, 43, 64
10, 55200, Note_on_c, 9, 38, 80
10, 55200, Sequencer_specific, 4, 5, 15, 15, 8
10, 55200, Note_on_c, 9, 43, 80
10, 55200, Sequencer_specific, 4, 5, 15, 15, 8
10, 55680, Note_off_c, 9, 38, 64
10, 55680, Note_off_c, 9, 43, 64
10, 55680, Note_on_c, 9, 35, 88
10, 55680, Sequencer_specific, 4, 5, 15, 15, 8
10, 56160, Note_off_c, 9, 35, 64
10, 56160, Note_on_c, 9, 43, 72
10, 56160, Sequencer_specific, 4, 5, 15, 15, 8
10, 56640, Note_off_c, 9, 43, 64
10, 56640, Note_on_c, 9, 43, 80
10, 56640, Sequencer_specific, 4, 5, 15, 15, 8
10, 56640, Note_on_c, 9, 38, 80
10, 56640, Sequencer_specific, 4, 5, 15, 15, 8
10, 57120, Note_off_c, 9, 43, 64
10, 57120, Note_off_c, 9, 38, 64
10, 57120, Note_on_c, 9, 43, 72
10, 57120, Sequencer_specific, 4, 5, 15, 15, 8
10, 57600, Note_off_c, 9, 43, 64
10, 57600, Note_on_c, 9, 35, 88
10, 57600, Sequencer_specific, 4, 5, 15, 15, 8
10, 58560, Note_off_c, 9, 35, 64
10, 58560, Note_on_c, 9, 38, 80
10, 58560, Sequencer_specific, 4, 5, 15, 15, 8
10, 59040, Note_off_c, 9, 38, 64
10, 59040, Note_on_c, 9, 38, 80
10, 59040, Sequencer_specific, 4, 5, 15, 15, 8
10, 59040, Note_on_c, 9, 43, 80
10, 59040, Sequencer_specific, 4, 5, 15, 15, 8
10, 59520, Note_off_c, 9, 38, 64
10, 59520, Note_off_c, 9, 43, 64
10, 59520, Note_on_c, 9, 35, 88
10, 59520, Sequencer_specific, 4, 5, 15, 15, 8
10, 60000, Note_off_c, 9, 35, 64
10, 60000, Note_on_c, 9, 43, 72
10, 60000, Sequencer_specific, 4, 5, 15, 15, 8
10, 60480, Note_off_c, 9, 43, 64
10, 60480, Note_on_c, 9, 43, 80
10, 60480, Sequencer_specific, 4, 5, 15, 15, 8
10, 60480, Note_on_c, 9, 38, 80
10, 60480, Sequencer_specific, 4, 5, 15, 15, 8
10, 60960, Note_off_c, 9, 43, 64
10, 60960, Note_off_c, 9, 38, 64
10, 60960, Note_on_c, 9, 43, 72
10, 60960, Sequencer_specific, 4, 5, 15, 15, 8
10, 61440, Note_off_c, 9, 43, 64
10, 61440, Note_on_c, 9, 35, 88
10, 61440, Sequencer_specific, 4, 5, 15, 15, 8
10, 61920, Note_off_c, 9, 35, 64
10, 61920, Note_on_c, 9, 43, 72
10, 61920, Sequencer_specific, 4, 5, 15, 15, 8
10, 62400, Note_off_c, 9, 43, 64
10, 62400, Note_on_c, 9, 38, 80
10, 62400, Sequencer_specific, 4, 5, 15, 15, 8
10, 62400, Note_on_c, 9, 43, 80
10, 62400, Sequencer_specific, 4, 5, 15, 15, 8
10, 62880, Note_off_c, 9, 38, 64
10, 62880, Note_off_c, 9, 43, 64
10, 62880, Note_on_c, 9, 38, 80
10, 62880, Sequencer_specific, 4, 5, 15, 15, 8
10, 62880, Note_on_c, 9, 43, 80
10, 62880, Sequencer_specific, 4, 5, 15, 15, 8
10, 63360, Note_off_c, 9, 38, 64
10, 63360, Note_off_c, 9, 43, 64
10, 63360, Note_on_c, 9, 35, 88
10, 63360, Sequencer_specific, 4, 5, 15, 15, 8
10, 63840, Note_off_c, 9, 35, 64
10, 63840, Note_on_c, 9, 43, 72
10, 63840, Sequencer_specific, 4, 5, 15, 15, 8
10, 64320, Note_off_c, 9, 43, 64
10, 64320, Note_on_c, 9, 43, 80
10, 64320, Sequencer_specific, 4, 5, 15, 15, 8
10, 64320, Note_on_c, 9, 38, 80
10, 64320, Sequencer_specific, 4, 5, 15, 15, 8
10, 64800, Note_off_c, 9, 43, 64
10, 64800, Note_off_c, 9, 38, 64
10, 64800, Note_on_c, 9, 43, 72
10, 64800, Sequencer_specific, 4, 5, 15, 15, 8
10, 65280, Note_off_c, 9, 43, 64
10, 65280, Note_on_c, 9, 35, 88
10, 65280, Sequencer_specific, 4, 5, 15, 15, 8
10, 66240, Note_off_c, 9, 35, 64
10, 66240, Note_on_c, 9, 38, 80
10, 66240, Sequencer_specific, 4, 5, 15, 15, 8
10, 66240, Note_on_c, 9, 43, 80
10, 66240, Sequencer_specific, 4, 5, 15, 15, 8
10, 66720, Note_off_c, 9, 38, 64
10, 66720, Note_off_c, 9, 43, 64
10, 66720, Note_on_c, 9, 38, 80
10, 66720, Sequencer_specific, 4, 5, 15, 15, 8
10, 66720, Note_on_c, 9, 43, 80
10, 66720, Sequencer_specific, 4, 5, 15, 15, 8
10, 67200, Note_off_c, 9, 38, 64
10, 67200, Note_off_c, 9, 43, 64
10, 67200, Note_on_c, 9, 35, 88
10, 67200, Sequencer_specific, 4, 5, 15, 15, 8
10, 67680, Note_off_c, 9, 35, 64
10, 67680, Note_on_c, 9, 43, 72
10, 67680, Sequencer_specific, 4, 5, 15, 15, 8
10, 68160, Note_off_c, 9, 43, 64
10, 68160, Note_on_c, 9, 43, 80
10, 68160, Sequencer_specific, 4, 5, 15, 15, 8
10, 68160, Note_on_c, 9, 38, 80
10, 68160, Sequencer_specific, 4, 5, 15, 15, 8
10, 68640, Note_off_c, 9, 43, 64
10, 68640, Note_off_c, 9, 38, 64
10, 68640, Note_on_c, 9, 43, 72
10, 68640, Sequencer_specific, 4, 5, 15, 15, 8
10, 69120, Note_off_c, 9, 43, 64
10, 69120, Note_on_c, 9, 35, 88
10, 69120, Sequencer_specific, 4, 5, 15, 15, 8
10, 69600, Note_off_c, 9, 35, 64
10, 69600, Note_on_c, 9, 43, 72
10, 69600, Sequencer_specific, 4, 5, 15, 15, 8
10, 70080, Note_off_c, 9, 43, 64
10, 70080, Note_on_c, 9, 38, 80
10, 70080, Sequencer_specific, 4, 5, 15, 15, 8
10, 70080, Note_on_c, 9, 43, 80
10, 70080, Sequencer_specific, 4, 5, 15, 15, 8
10, 70560, Note_off_c, 9, 38, 64
10, 70560, Note_off_c, 9, 43, 64
10, 70560, Note_on_c, 9, 38, 80
10, 70560, Sequencer_specific, 4, 5, 15, 15, 8
10, 70560, Note_on_c, 9, 43, 80
10, 70560, Sequencer_specific, 4, 5, 15, 15, 8
10, 71040, Note_off_c, 9, 38, 64
10, 71040, Note_off_c, 9, 43, 64
10, 71040, Note_on_c, 9, 35, 88
10, 71040, Sequencer_specific, 4, 5, 15, 15, 8
10, 71520, Note_off_c, 9, 35, 64
10, 71520, Note_on_c, 9, 43, 72
10, 71520, Sequencer_specific, 4, 5, 15, 15, 8
10, 72000, Note_off_c, 9, 43, 64
10, 72000, Note_on_c, 9, 43, 80
10, 72000, Sequencer_specific, 4, 5, 15, 15, 8
10, 72000, Note_on_c, 9, 38, 80
10, 72000, Sequencer_specific, 4, 5, 15, 15, 8
10, 72480, Note_off_c, 9, 43, 64
10, 72480, Note_off_c, 9, 38, 64
10, 72480, Note_on_c, 9, 43, 72
10, 72480, Sequencer_specific, 4, 5, 15, 15, 8
10, 72960, Note_off_c, 9, 43, 64
10, 72960, Note_on_c, 9, 35, 88
10, 72960, Sequencer_specific, 4, 5, 15, 15, 8
10, 73920, Note_off_c, 9, 35, 64
10, 73920, Note_on_c, 9, 38, 80
10, 73920, Sequencer_specific, 4, 5, 15, 15, 8
10, 73920, Note_on_c, 9, 43, 80
10, 73920, Sequencer_specific, 4, 5, 15, 15, 8
10, 74400, Note_off_c, 9, 38, 64
10, 74400, Note_off_c, 9, 43, 64
10, 74400, Note_on_c, 9, 38, 80
10, 74400, Sequencer_specific, 4, 5, 15, 15, 8
10, 74400, Note_on_c, 9, 43, 80
10, 74400, Sequencer_specific, 4, 5, 15, 15, 8
10, 74880, Note_off_c, 9, 38, 64
10, 74880, Note_off_c, 9, 43, 64
10, 74880, Note_on_c, 9, 35, 88
10, 74880, Sequencer_specific, 4, 5, 15, 15, 8
10, 75360, Note_off_c, 9, 35, 64
10, 75360, Note_on_c, 9, 43, 72
10, 75360, Sequencer_specific, 4, 5, 15, 15, 8
10, 75840, Note_off_c, 9, 43, 64
10, 75840, Note_on_c, 9, 43, 80
10, 75840, Sequencer_specific, 4, 5, 15, 15, 8
10, 75840, Note_on_c, 9, 38, 80
10, 75840, Sequencer_specific, 4, 5, 15, 15, 8
10, 76320, Note_off_c, 9, 43, 64
10, 76320, Note_off_c, 9, 38, 64
10, 76320, Note_on_c, 9, 43, 72
10, 76320, Sequencer_specific, 4, 5, 15, 15, 8
10, 76800, Note_off_c, 9, 43, 64
10, 76800, Note_on_c, 9, 35, 88
10, 76800, Sequencer_specific, 4, 5, 15, 15, 8
10, 77280, Note_off_c, 9, 35, 64
10, 77280, Note_on_c, 9, 43, 72
10, 77280, Sequencer_specific, 4, 5, 15, 15, 8
10, 77760, Note_off_c, 9, 43, 64
10, 77760, Note_on_c, 9, 38, 80
10, 77760, Sequencer_specific, 4, 5, 15, 15, 8
10, 77760, Note_on_c, 9, 43, 80
10, 77760, Sequencer_specific, 4, 5, 15, 15, 8
10, 78240, Note_off_c, 9, 38, 64
10, 78240, Note_off_c, 9, 43, 64
10, 78240, Note_on_c, 9, 38, 80
10, 78240, Sequencer_specific, 4, 5, 15, 15, 8
10, 78240, Note_on_c, 9, 43, 80
10, 78240, Sequencer_specific, 4, 5, 15, 15, 8
10, 78720, Note_off_c, 9, 38, 64
10, 78720, Note_off_c, 9, 43, 64
10, 78720, Note_on_c, 9, 35, 88
10, 78720, Sequencer_specific, 4, 5, 15, 15, 8
10, 79200, Note_off_c, 9, 35, 64
10, 79200, Note_on_c, 9, 43, 72
10, 79200, Sequencer_specific, 4, 5, 15, 15, 8
10, 79680, Note_off_c, 9, 43, 64
10, 79680, Note_on_c, 9, 43, 80
10, 79680, Sequencer_specific, 4, 5, 15, 15, 8
10, 79680, Note_on_c, 9, 38, 80
10, 79680, Sequencer_specific, 4, 5, 15, 15, 8
10, 80160, Note_off_c, 9, 43, 64
10, 80160, Note_off_c, 9, 38, 64
10, 80160, Note_on_c, 9, 43, 72
10, 80160, Sequencer_specific, 4, 5, 15, 15, 8
10, 80640, Note_off_c, 9, 43, 64
10, 80640, Note_on_c, 9, 35, 88
10, 80640, Sequencer_specific, 4, 5, 15, 15, 8
10, 80640, Note_on_c, 9, 49, 88
10, 80640, Sequencer_specific, 4, 5, 15, 15, 8
10, 81600, Note_off_c, 9, 35, 64
10, 81600, Note_off_c, 9, 49, 64
10, 81600, Note_on_c, 9, 38, 80
10, 81600, Sequencer_specific, 4, 5, 15, 15, 8
10, 82080, Note_off_c, 9, 38, 64
10, 82080, Note_on_c, 9, 38, 80
10, 82080, Sequencer_specific, 4, 5, 15, 15, 8
10, 82080, Note_on_c, 9, 43, 80
10, 82080, Sequencer_specific, 4, 5, 15, 15, 8
10, 82560, Note_off_c, 9, 38, 64
10, 82560, Note_off_c, 9, 43, 64
10, 82560, Note_on_c, 9, 35, 88
10, 82560, Sequencer_specific, 4, 5, 15, 15, 8
10, 83040, Note_off_c, 9, 35, 64
10, 83040, Note_on_c, 9, 43, 72
10, 83040, Sequencer_specific, 4, 5, 15, 15, 8
10, 83520, Note_off_c, 9, 43, 64
10, 83520, Note_on_c, 9, 43, 80
10, 83520, Sequencer_specific, 4, 5, 15, 15, 8
10, 83520, Note_on_c, 9, 38, 80
10, 83520, Sequencer_specific, 4, 5, 15, 15, 8
10, 84000, Note_off_c, 9, 43, 64
10, 84000, Note_off_c, 9, 38, 64
10, 84000, Note_on_c, 9, 43, 72
10, 84000, Sequencer_specific, 4, 5, 15, 15, 8
10, 84480, Note_off_c, 9, 43, 64
10, 84480, Note_on_c, 9, 35, 88
10, 84480, Sequencer_specific, 4, 5, 15, 15, 8
10, 84960, Note_off_c, 9, 35, 64
10, 84960, Note_on_c, 9, 43, 72
10, 84960, Sequencer_specific, 4, 5, 15, 15, 8
10, 85440, Note_off_c, 9, 43, 64
10, 85440, Note_on_c, 9, 38, 80
10, 85440, Sequencer_specific, 4, 5, 15, 15, 8
10, 85920, Note_off_c, 9, 38, 64
10, 85920, Note_on_c, 9, 38, 80
10, 85920, Sequencer_specific, 4, 5, 15, 15, 8
10, 85920, Note_on_c, 9, 43, 80
10, 85920, Sequencer_specific, 4, 5, 15, 15, 8
10, 86400, Note_off_c, 9, 38, 64
10, 86400, Note_off_c, 9, 43, 64
10, 86400, Note_on_c, 9, 35, 88
10, 86400, Sequencer_specific, 4, 5, 15, 15, 8
10, 86880, Note_off_c, 9, 35, 64
10, 86880, Note_on_c, 9, 43, 72
10, 86880, Sequencer_specific, 4, 5, 15, 15, 8
10, 87360, Note_off_c, 9, 43, 64
10, 87360, Note_on_c, 9, 43, 80
10, 87360, Sequencer_specific, 4, 5, 15, 15, 8
10, 87360, Note_on_c, 9, 38, 80
10, 87360, Sequencer_specific, 4, 5, 15, 15, 8
10, 87840, Note_off_c, 9, 43, 64
10, 87840, Note_off_c, 9, 38, 64
10, 87840, Note_on_c, 9, 43, 72
10, 87840, Sequencer_specific, 4, 5, 15, 15, 8
10, 88320, Note_off_c, 9, 43, 64
10, 88320, Note_on_c, 9, 35, 88
10, 88320, Sequencer_specific, 4, 5, 15, 15, 8
10, 89280, Note_off_c, 9, 35, 64
10, 89280, Note_on_c, 9, 38, 80
10, 89280, Sequencer_specific, 4, 5, 15, 15, 8
10, 89760, Note_off_c, 9, 38, 64
10, 89760, Note_on_c, 9, 38, 80
10, 89760, Sequencer_specific, 4, 5, 15, 15, 8
10, 89760, Note_on_c, 9, 43, 80
10, 89760, Sequencer_specific, 4, 5, 15, 15, 8
10, 90240, Note_off_c, 9, 38, 64
10, 90240, Note_off_c, 9, 43, 64
10, 90240, Note_on_c, 9, 35, 88
10, 90240, Sequencer_specific, 4, 5, 15, 15, 8
10, 90720, Note_off_c, 9, 35, 64
10, 90720, Note_on_c, 9, 43, 72
10, 90720, Sequencer_specific, 4, 5, 15, 15, 8
10, 91200, Note_off_c, 9, 43, 64
10, 91200, Note_on_c, 9, 43, 80
10, 91200, Sequencer_specific, 4, 5, 15, 15, 8
10, 91200, Note_on_c, 9, 38, 80
10, 91200, Sequencer_specific, 4, 5, 15, 15, 8
10, 91680, Note_off_c, 9, 43, 64
10, 91680, Note_off_c, 9, 38, 64
10, 91680, Note_on_c, 9, 43, 72
10, 91680, Sequencer_specific, 4, 5, 15, 15, 8
10, 92160, Note_off_c, 9, 43, 64
10, 92160, Note_on_c, 9, 35, 88
10, 92160, Sequencer_specific, 4, 5, 15, 15, 8
10, 92640, Note_off_c, 9, 35, 64
10, 92640, Note_on_c, 9, 43, 72
10, 92640, Sequencer_specific, 4, 5, 15, 15, 8
10, 93120, Note_off_c, 9, 43, 64
10, 93120, Note_on_c, 9, 38, 80
10, 93120, Sequencer_specific, 4, 5, 15, 15, 8
10, 93600, Note_off_c, 9, 38, 64
10, 93600, Note_on_c, 9, 38, 80
10, 93600, Sequencer_specific, 4, 5, 15, 15, 8
10, 93600, Note_on_c, 9, 43, 80
10, 93600, Sequencer_specific, 4, 5, 15, 15, 8
10, 94080, Note_off_c, 9, 38, 64
10, 94080, Note_off_c, 9, 43, 64
10, 94080, Note_on_c, 9, 35, 88
10, 94080, Sequencer_specific, 4, 5, 15, 15, 8
10, 94560, Note_off_c, 9, 35, 64
10, 94560, Note_on_c, 9, 43, 72
10, 94560, Sequencer_specific, 4, 5, 15, 15, 8
10, 95040, Note_off_c, 9, 43, 64
10, 95040, Note_on_c, 9, 43, 80
10, 95040, Sequencer_specific, 4, 5, 15, 15, 8
10, 95040, Note_on_c, 9, 38, 80
10, 95040, Sequencer_specific, 4, 5, 15, 15, 8
10, 95520, Note_off_c, 9, 43, 64
10, 95520, Note_off_c, 9, 38, 64
10, 95520, Note_on_c, 9, 43, 72
10, 95520, Sequencer_specific, 4, 5, 15, 15, 8
10, 96000, Note_off_c, 9, 43, 64
10, 96000, Note_on_c, 9, 35, 88
10, 96000, Sequencer_specific, 4, 5, 15, 15, 8
10, 96960, Note_off_c, 9, 35, 64
10, 96960, Note_on_c, 9, 38, 80
10, 96960, Sequencer_specific, 4, 5, 15, 15, 8
10, 97440, Note_off_c, 9, 38, 64
10, 97440, Note_on_c, 9, 38, 80
10, 97440, Sequencer_specific, 4, 5, 15, 15, 8
10, 97440, Note_on_c, 9, 43, 80
10, 97440, Sequencer_specific, 4, 5, 15, 15, 8
10, 97920, Note_off_c, 9, 38, 64
10, 97920, Note_off_c, 9, 43, 64
10, 97920, Note_on_c, 9, 35, 88
10, 97920, Sequencer_specific, 4, 5, 15, 15, 8
10, 98400, Note_off_c, 9, 35, 64
10, 98400, Note_on_c, 9, 43, 72
10, 98400, Sequencer_specific, 4, 5, 15, 15, 8
10, 98880, Note_off_c, 9, 43, 64
10, 98880, Note_on_c, 9, 43, 80
10, 98880, Sequencer_specific, 4, 5, 15, 15, 8
10, 98880, Note_on_c, 9, 38, 80
10, 98880, Sequencer_specific, 4, 5, 15, 15, 8
10, 99360, Note_off_c, 9, 43, 64
10, 99360, Note_off_c, 9, 38, 64
10, 99360, Note_on_c, 9, 43, 72
10, 99360, Sequencer_specific, 4, 5, 15, 15, 8
10, 99840, Note_off_c, 9, 43, 64
10, 99840, Note_on_c, 9, 35, 88
10, 99840, Sequencer_specific, 4, 5, 15, 15, 8
10, 100320, Note_off_c, 9, 35, 64
10, 100320, Note_on_c, 9, 43, 72
10, 100320, Sequencer_specific, 4, 5, 15, 15, 8
10, 100800, Note_off_c, 9, 43, 64
10, 100800, Note_on_c, 9, 38, 80
10, 100800, Sequencer_specific, 4, 5, 15, 15, 8
10, 100800, Note_on_c, 9, 43, 80
10, 100800, Sequencer_specific, 4, 5, 15, 15, 8
10, 101280, Note_off_c, 9, 38, 64
10, 101280, Note_off_c, 9, 43, 64
10, 101280, Note_on_c, 9, 38, 80
10, 101280, Sequencer_specific, 4, 5, 15, 15, 8
10, 101280, Note_on_c, 9, 43, 80
10, 101280, Sequencer_specific, 4, 5, 15, 15, 8
10, 101760, Note_off_c, 9, 38, 64
10, 101760, Note_off_c, 9, 43, 64
10, 101760, Note_on_c, 9, 35, 88
10, 101760, Sequencer_specific, 4, 5, 15, 15, 8
10, 102240, Note_off_c, 9, 35, 64
10, 102240, Note_on_c, 9, 43, 72
10, 102240, Sequencer_specific, 4, 5, 15, 15, 8
10, 102720, Note_off_c, 9, 43, 64
10, 102720, Note_on_c, 9, 43, 80
10, 102720, Sequencer_specific, 4, 5, 15, 15, 8
10, 102720, Note_on_c, 9, 38, 80
10, 102720, Sequencer_specific, 4, 5, 15, 15, 8
10, 103200, Note_off_c, 9, 43, 64
10, 103200, Note_off_c, 9, 38, 64
10, 103200, Note_on_c, 9, 43, 72
10, 103200, Sequencer_specific, 4, 5, 15, 15, 8
10, 103680, Note_off_c, 9, 43, 64
10, 103680, Note_on_c, 9, 35, 88
10, 103680, Sequencer_specific, 4, 5, 15, 15, 8
10, 104640, Note_off_c, 9, 35, 64
10, 104640, Note_on_c, 9, 38, 80
10, 104640, Sequencer_specific, 4, 5, 15, 15, 8
10, 105120, Note_off_c, 9, 38, 64
10, 105120, Note_on_c, 9, 38, 80
10, 105120, Sequencer_specific, 4, 5, 15, 15, 8
10, 105120, Note_on_c, 9, 43, 80
10, 105120, Sequencer_specific, 4, 5, 15, 15, 8
10, 105600, Note_off_c, 9, 38, 64
10, 105600, Note_off_c, 9, 43, 64
10, 105600, Note_on_c, 9, 35, 88
10, 105600, Sequencer_specific, 4, 5, 15, 15, 8
10, 106080, Note_off_c, 9, 35, 64
10, 106080, Note_on_c, 9, 43, 72
10, 106080, Sequencer_specific, 4, 5, 15, 15, 8
10, 106560, Note_off_c, 9, 43, 64
10, 106560, Note_on_c, 9, 43, 80
10, 106560, Sequencer_specific, 4, 5, 15, 15, 8
10, 106560, Note_on_c, 9, 38, 80
10, 106560, Sequencer_specific, 4, 5, 15, 15, 8
10, 107040, Note_off_c, 9, 43, 64
10, 107040, Note_off_c, 9, 38, 64
10, 107040, Note_on_c, 9, 43, 72
10, 107040, Sequencer_specific, 4, 5, 15, 15, 8
10, 107520, Note_off_c, 9, 43, 64
10, 107520, Note_on_c, 9, 35, 88
10, 107520, Sequencer_specific, 4, 5, 15, 15, 8
10, 108000, Note_off_c, 9, 35, 64
10, 108000, Note_on_c, 9, 43, 72
10, 108000, Sequencer_specific, 4, 5, 15, 15, 8
10, 108480, Note_off_c, 9, 43, 64
10, 108480, Note_on_c, 9, 38, 80
10, 108480, Sequencer_specific, 4, 5, 15, 15, 8
10, 108480, Note_on_c, 9, 43, 80
10, 108480, Sequencer_specific, 4, 5, 15, 15, 8
10, 108960, Note_off_c, 9, 38, 64
10, 108960, Note_off_c, 9, 43, 64
10, 108960, Note_on_c, 9, 38, 80
10, 108960, Sequencer_specific, 4, 5, 15, 15, 8
10, 108960, Note_on_c, 9, 43, 80
10, 108960, Sequencer_specific, 4, 5, 15, 15, 8
10, 109440, Note_off_c, 9, 38, 64
10, 109440, Note_off_c, 9, 43, 64
10, 109440, Note_on_c, 9, 35, 88
10, 109440, Sequencer_specific, 4, 5, 15, 15, 8
10, 109920, Note_off_c, 9, 35, 64
10, 109920, Note_on_c, 9, 43, 72
10, 109920, Sequencer_specific, 4, 5, 15, 15, 8
10, 110400, Note_off_c, 9, 43, 64
10, 110400, Note_on_c, 9, 43, 80
10, 110400, Sequencer_specific, 4, 5, 15, 15, 8
10, 110400, Note_on_c, 9, 38, 80
10, 110400, Sequencer_specific, 4, 5, 15, 15, 8
10, 110880, Note_off_c, 9, 43, 64
10, 110880, Note_off_c, 9, 38, 64
10, 110880, Note_on_c, 9, 43, 72
10, 110880, Sequencer_specific, 4, 5, 15, 15, 8
10, 111360, Note_off_c, 9, 43, 64
10, 111360, Note_on_c, 9, 35, 88
10, 111360, Sequencer_specific, 4, 5, 15, 15, 8
10, 112320, Note_off_c, 9, 35, 64
10, 112320, Note_on_c, 9, 38, 80
10, 112320, Sequencer_specific, 4, 5, 15, 15, 8
10, 112320, Note_on_c, 9, 43, 80
10, 112320, Sequencer_specific, 4, 5, 15, 15, 8
10, 112800, Note_off_c, 9, 38, 64
10, 112800, Note_off_c, 9, 43, 64
10, 112800, Note_on_c, 9, 38, 80
10, 112800, Sequencer_specific, 4, 5, 15, 15, 8
10, 112800, Note_on_c, 9, 43, 80
10, 112800, Sequencer_specific, 4, 5, 15, 15, 8
10, 113280, Note_off_c, 9, 38, 64
10, 113280, Note_off_c, 9, 43, 64
10, 113280, Note_on_c, 9, 35, 88
10, 113280, Sequencer_specific, 4, 5, 15, 15, 8
10, 113760, Note_off_c, 9, 35, 64
10, 113760, Note_on_c, 9, 43, 72
10, 113760, Sequencer_specific, 4, 5, 15, 15, 8
10, 114240, Note_off_c, 9, 43, 64
10, 114240, Note_on_c, 9, 43, 80
10, 114240, Sequencer_specific, 4, 5, 15, 15, 8
10, 114240, Note_on_c, 9, 38, 80
10, 114240, Sequencer_specific, 4, 5, 15, 15, 8
10, 114720, Note_off_c, 9, 43, 64
10, 114720, Note_off_c, 9, 38, 64
10, 114720, Note_on_c, 9, 43, 72
10, 114720, Sequencer_specific, 4, 5, 15, 15, 8
10, 115200, Note_off_c, 9, 43, 64
10, 115200, Note_on_c, 9, 35, 88
10, 115200, Sequencer_specific, 4, 5, 15, 15, 8
10, 115680, Note_off_c, 9, 35, 64
10, 115680, Note_on_c, 9, 43, 72
10, 115680, Sequencer_specific, 4, 5, 15, 15, 8
10, 116160, Note_off_c, 9, 43, 64
10, 116160, Note_on_c, 9, 38, 80
10, 116160, Sequencer_specific, 4, 5, 15, 15, 8
10, 116160, Note_on_c, 9, 43, 80
10, 116160, Sequencer_specific, 4, 5, 15, 15, 8
10, 116640, Note_off_c, 9, 38, 64
10, 116640, Note_off_c, 9, 43, 64
10, 116640, Note_on_c, 9, 38, 80
10, 116640, Sequencer_specific, 4, 5, 15, 15, 8
10, 116640, Note_on_c, 9, 43, 80
10, 116640, Sequencer_specific, 4, 5, 15, 15, 8
10, 117120, Note_off_c, 9, 38, 64
10, 117120, Note_off_c, 9, 43, 64
10, 117120, Note_on_c, 9, 35, 88
10, 117120, Sequencer_specific, 4, 5, 15, 15, 8
10, 117600, Note_off_c, 9, 35, 64
10, 117600, Note_on_c, 9, 43, 72
10, 117600, Sequencer_specific, 4, 5, 15, 15, 8
10, 118080, Note_off_c, 9, 43, 64
10, 118080, Note_on_c, 9, 43, 80
10, 118080, Sequencer_specific, 4, 5, 15, 15, 8
10, 118080, Note_on_c, 9, 38, 80
10, 118080, Sequencer_specific, 4, 5, 15, 15, 8
10, 118560, Note_off_c, 9, 43, 64
10, 118560, Note_off_c, 9, 38, 64
10, 118560, Note_on_c, 9, 43, 72
10, 118560, Sequencer_specific, 4, 5, 15, 15, 8
10, 119040, Note_off_c, 9, 43, 64
10, 119040, Note_on_c, 9, 35, 88
10, 119040, Sequencer_specific, 4, 5, 15, 15, 8
10, 120000, Note_off_c, 9, 35, 64
10, 120000, Note_on_c, 9, 38, 80
10, 120000, Sequencer_specific, 4, 5, 15, 15, 8
10, 120000, Note_on_c, 9, 43, 80
10, 120000, Sequencer_specific, 4, 5, 15, 15, 8
10, 120480, Note_off_c, 9, 38, 64
10, 120480, Note_off_c, 9, 43, 64
10, 120480, Note_on_c, 9, 38, 80
10, 120480, Sequencer_specific, 4, 5, 15, 15, 8
10, 120480, Note_on_c, 9, 43, 80
10, 120480, Sequencer_specific, 4, 5, 15, 15, 8
10, 120960, Note_off_c, 9, 38, 64
10, 120960, Note_off_c, 9, 43, 64
10, 120960, Note_on_c, 9, 35, 88
10, 120960, Sequencer_specific, 4, 5, 15, 15, 8
10, 121440, Note_off_c, 9, 35, 64
10, 121440, Note_on_c, 9, 43, 72
10, 121440, Sequencer_specific, 4, 5, 15, 15, 8
10, 121920, Note_off_c, 9, 43, 64
10, 121920, Note_on_c, 9, 43, 80
10, 121920, Sequencer_specific, 4, 5, 15, 15, 8
10, 121920, Note_on_c, 9, 38, 80
10, 121920, Sequencer_specific, 4, 5, 15, 15, 8
10, 122400, Note_off_c, 9, 43, 64
10, 122400, Note_off_c, 9, 38, 64
10, 122400, Note_on_c, 9, 43, 72
10, 122400, Sequencer_specific, 4, 5, 15, 15, 8
10, 122880, Note_off_c, 9, 43, 64
10, 122880, Note_on_c, 9, 35, 88
10, 122880, Sequencer_specific, 4, 5, 15, 15, 8
10, 123360, Note_off_c, 9, 35, 64
10, 123360, Note_on_c, 9, 43, 72
10, 123360, Sequencer_specific, 4, 5, 15, 15, 8
10, 123840, Note_off_c, 9, 43, 64
10, 123840, Note_on_c, 9, 38, 80
10, 123840, Sequencer_specific, 4, 5, 15, 15, 8
10, 123840, Note_on_c, 9, 43, 80
10, 123840, Sequencer_specific, 4, 5, 15, 15, 8
10, 124320, Note_off_c, 9, 38, 64
10, 124320, Note_off_c, 9, 43, 64
10, 124320, Note_on_c, 9, 38, 80
10, 124320, Sequencer_specific, 4, 5, 15, 15, 8
10, 124320, Note_on_c, 9, 43, 80
10, 124320, Sequencer_specific, 4, 5, 15, 15, 8
10, 124800, Note_off_c, 9, 38, 64
10, 124800, Note_off_c, 9, 43, 64
10, 124800, Note_on_c, 9, 35, 88
10, 124800, Sequencer_specific, 4, 5, 15, 15, 8
10, 125280, Note_off_c, 9, 35, 64
10, 125280, Note_on_c, 9, 43, 72
10, 125280, Sequencer_specific, 4, 5, 15, 15, 8
10, 125760, Note_off_c, 9, 43, 64
10, 125760, Note_on_c, 9, 43, 80
10, 125760, Sequencer_specific, 4, 5, 15, 15, 8
10, 125760, Note_on_c, 9, 38, 80
10, 125760, Sequencer_specific, 4, 5, 15, 15, 8
10, 126240, Note_off_c, 9, 43, 64
10, 126240, Note_off_c, 9, 38, 64
10, 126240, Note_on_c, 9, 43, 72
10, 126240, Sequencer_specific, 4, 5, 15, 15, 8
10, 126720, Note_off_c, 9, 43, 64
10, 126720, Note_on_c, 9, 35, 88
10, 126720, Sequencer_specific, 4, 5, 15, 15, 8
10, 126720, Note_on_c, 9, 49, 88
10, 126720, Sequencer_specific, 4, 5, 15, 15, 8
10, 127680, Note_off_c, 9, 35, 64
10, 127680, Note_off_c, 9, 49, 64
10, 127680, Note_on_c, 9, 38, 80
10, 127680, Sequencer_specific, 4, 5, 15, 15, 8
10, 128160, Note_off_c, 9, 38, 64
10, 128160, Note_on_c, 9, 38, 80
10, 128160, Sequencer_specific, 4, 5, 15, 15, 8
10, 128160, Note_on_c, 9, 43, 80
10, 128160, Sequencer_specific, 4, 5, 15, 15, 8
10, 128640, Note_off_c, 9, 38, 64
10, 128640, Note_off_c, 9, 43, 64
10, 128640, Note_on_c, 9, 35, 88
10, 128640, Sequencer_specific, 4, 5, 15, 15, 8
10, 129120, Note_off_c, 9, 35, 64
10, 129120, Note_on_c, 9, 43, 72
10, 129120, Sequencer_specific, 4, 5, 15, 15, 8
10, 129600, Note_off_c, 9, 43, 64
10, 129600, Note_on_c, 9, 43, 80
10, 129600, Sequencer_specific, 4, 5, 15, 15, 8
10, 129600, Note_on_c, 9, 38, 80
10, 129600, Sequencer_specific, 4, 5, 15, 15, 8
10, 130080, Note_off_c, 9, 43, 64
10, 130080, Note_off_c, 9, 38, 64
10, 130080, Note_on_c, 9, 43, 72
10, 130080, Sequencer_specific, 4, 5, 15, 15, 8
10, 130560, Note_off_c, 9, 43, 64
10, 130560, Note_on_c, 9, 35, 88
10, 130560, Sequencer_specific, 4, 5, 15, 15, 8
10, 131040, Note_off_c, 9, 35, 64
10, 131040, Note_on_c, 9, 43, 72
10, 131040, Sequencer_specific, 4, 5, 15, 15, 8
10, 131520, Note_off_c, 9, 43, 64
10, 131520, Note_on_c, 9, 38, 80
10, 131520, Sequencer_specific, 4, 5, 15, 15, 8
10, 132000, Note_off_c, 9, 38, 64
10, 132000, Note_on_c, 9, 38, 80
10, 132000, Sequencer_specific, 4, 5, 15, 15, 8
10, 132000, Note_on_c, 9, 43, 80
10, 132000, Sequencer_specific, 4, 5, 15, 15, 8
10, 132480, Note_off_c, 9, 38, 64
10, 132480, Note_off_c, 9, 43, 64
10, 132480, Note_on_c, 9, 35, 88
10, 132480, Sequencer_specific, 4, 5, 15, 15, 8
10, 132960, Note_off_c, 9, 35, 64
10, 132960, Note_on_c, 9, 43, 72
10, 132960, Sequencer_specific, 4, 5, 15, 15, 8
10, 133440, Note_off_c, 9, 43, 64
10, 133440, Note_on_c, 9, 43, 80
10, 133440, Sequencer_specific, 4, 5, 15, 15, 8
10, 133440, Note_on_c, 9, 38, 80
10, 133440, Sequencer_specific, 4, 5, 15, 15, 8
10, 133920, Note_off_c, 9, 43, 64
10, 133920, Note_off_c, 9, 38, 64
10, 133920, Note_on_c, 9, 43, 72
10, 133920, Sequencer_specific, 4, 5, 15, 15, 8
10, 134400, Note_off_c, 9, 43, 64
10, 134400, Note_on_c, 9, 50, 89
10, 134400, Sequencer_specific, 4, 5, 15, 15, 8
10, 134400, Note_on_c, 9, 38, 72
10, 134400, Sequencer_specific, 4, 5, 15, 15, 8
10, 134400, Note_on_c, 9, 35, 72
10, 134400, Sequencer_specific, 4, 5, 15, 15, 8
10, 134640, Note_off_c, 9, 50, 0
10, 134880, Note_off_c, 9, 38, 64
10, 134880, Note_off_c, 9, 35, 64
10, 134880, Note_on_c, 9, 50, 89
10, 134880, Sequencer_specific, 4, 5, 15, 15, 8
10, 134880, Note_on_c, 9, 38, 64
10, 134880, Sequencer_specific, 4, 5, 15, 15, 8
10, 135120, Note_off_c, 9, 50, 0
10, 135120, Note_on_c, 9, 50, 89
10, 135120, Sequencer_specific, 4, 5, 15, 15, 8
10, 135360, Note_off_c, 9, 38, 64
10, 135360, Note_off_c, 9, 50, 0
10, 135360, Note_on_c, 9, 38, 88
10, 135360, Sequencer_specific, 4, 5, 15, 15, 8
10, 135600, Note_on_c, 9, 50, 89
10, 135600, Sequencer_specific, 4, 5, 15, 15, 8
10, 135840, Note_off_c, 9, 38, 64
10, 135840, Note_off_c, 9, 50, 0
10, 135840, Note_on_c, 9, 38, 64
10, 135840, Sequencer_specific, 4, 5, 15, 15, 8
10, 136080, Note_on_c, 9, 50, 89
10, 136080, Sequencer_specific, 5, 5, 15, 15, 8, 2
10, 136320, Note_off_c, 9, 38, 64
10, 136320, Note_off_c, 9, 50, 0
10, 136320, Note_on_c, 9, 50, 89
10, 136320, Sequencer_specific, 4, 5, 15, 15, 8
10, 136320, Note_on_c, 9, 38, 72
10, 136320, Sequencer_specific, 4, 5, 15, 15, 8
10, 136320, Note_on_c, 9, 35, 72
10, 136320, Sequencer_specific, 4, 5, 15, 15, 8
10, 136560, Note_off_c, 9, 50, 0
10, 136800, Note_off_c, 9, 38, 64
10, 136800, Note_off_c, 9, 35, 64
10, 136800, Note_on_c, 9, 50, 89
10, 136800, Sequencer_specific, 4, 5, 15, 15, 8
10, 136800, Note_on_c, 9, 37, 64
10, 136800, Sequencer_specific, 4, 5, 15, 15, 8
10, 137040, Note_off_c, 9, 50, 0
10, 137280, Note_off_c, 9, 37, 64
10, 137280, Note_on_c, 9, 50, 89
10, 137280, Sequencer_specific, 4, 5, 15, 15, 8
10, 137280, Note_on_c, 9, 38, 88
10, 137280, Sequencer_specific, 4, 5, 15, 15, 8
10, 137520, Note_off_c, 9, 50, 0
10, 137520, Note_on_c, 9, 50, 89
10, 137520, Sequencer_specific, 4, 5, 15, 15, 8
10, 137760, Note_off_c, 9, 38, 64
10, 137760, Note_off_c, 9, 50, 0
10, 137760, Note_on_c, 9, 38, 64
10, 137760, Sequencer_specific, 4, 5, 15, 15, 8
10, 138000, Note_on_c, 9, 50, 89
10, 138000, Sequencer_specific, 4, 5, 15, 15, 8
10, 138240, Note_off_c, 9, 38, 64
10, 138240, Note_off_c, 9, 50, 0
10, 138240, Note_on_c, 9, 38, 72
10, 138240, Sequencer_specific, 4, 5, 15, 15, 8
10, 138240, Note_on_c, 9, 35, 72
10, 138240, Sequencer_specific, 4, 5, 15, 15, 8
10, 138480, Note_on_c, 9, 50, 89
10, 138480, Sequencer_specific, 4, 5, 15, 15, 8
10, 138720, Note_off_c, 9, 38, 64
10, 138720, Note_off_c, 9, 35, 64
10, 138720, Note_off_c, 9, 50, 0
10, 138720, Note_on_c, 9, 50, 89
10, 138720, Sequencer_specific, 4, 5, 15, 15, 8
10, 138720, Note_on_c, 9, 38, 64
10, 138720, Sequencer_specific, 4, 5, 15, 15, 8
10, 138960, Note_off_c, 9, 50, 0
10, 139200, Note_off_c, 9, 38, 64
10, 139200, Note_on_c, 9, 50, 89
10, 139200, Sequencer_specific, 4, 5, 15, 15, 8
10, 139200, Note_on_c, 9, 38, 88
10, 139200, Sequencer_specific, 4, 5, 15, 15, 8
10, 139440, Note_off_c, 9, 50, 0
10, 139680, Note_off_c, 9, 38, 64
10, 139680, Note_on_c, 9, 50, 89
10, 139680, Sequencer_specific, 4, 5, 15, 15, 8
10, 139680, Note_on_c, 9, 38, 64
10, 139680, Sequencer_specific, 4, 5, 15, 15, 8
10, 139920, Note_off_c, 9, 50, 0
10, 139920, Note_on_c, 9, 50, 89
10, 139920, Sequencer_specific, 4, 5, 15, 15, 8
10, 140160, Note_off_c, 9, 38, 64
10, 140160, Note_off_c, 9, 50, 0
10, 140160, Note_on_c, 9, 37, 72
10, 140160, Sequencer_specific, 4, 5, 15, 15, 8
10, 140160, Note_on_c, 9, 35, 72
10, 140160, Sequencer_specific, 4, 5, 15, 15, 8
10, 140400, Note_on_c, 9, 50, 89
10, 140400, Sequencer_specific, 4, 5, 15, 15, 8
10, 140640, Note_off_c, 9, 37, 64
10, 140640, Note_off_c, 9, 35, 64
10, 140640, Note_off_c, 9, 50, 0
10, 140640, Note_on_c, 9, 38, 64
10, 140640, Sequencer_specific, 4, 5, 15, 15, 8
10, 140880, Note_on_c, 9, 50, 89
10, 140880, Sequencer_specific, 5, 5, 15, 15, 8, 2
10, 141120, Note_off_c, 9, 38, 64
10, 141120, Note_off_c, 9, 50, 0
10, 141120, Note_on_c, 9, 50, 89
10, 141120, Sequencer_specific, 4, 5, 15, 15, 8
10, 141120, Note_on_c, 9, 38, 88
10, 141120, Sequencer_specific, 4, 5, 15, 15, 8
10, 141360, Note_off_c, 9, 50, 0
10, 141600, Note_off_c, 9, 38, 64
10, 141600, Note_on_c, 9, 50, 89
10, 141600, Sequencer_specific, 4, 5, 15, 15, 8
10, 141600, Note_on_c, 9, 38, 64
10, 141600, Sequencer_specific, 4, 5, 15, 15, 8
10, 141840, Note_off_c, 9, 50, 0
10, 142080, Note_off_c, 9, 38, 64
10, 142080, Note_on_c, 9, 50, 89
10, 142080, Sequencer_specific, 4, 5, 15, 15, 8
10, 142080, Note_on_c, 9, 38, 72
10, 142080, Sequencer_specific, 4, 5, 15, 15, 8
10, 142080, Note_on_c, 9, 35, 72
10, 142080, Sequencer_specific, 4, 5, 15, 15, 8
10, 142320, Note_off_c, 9, 50, 0
10, 142560, Note_off_c, 9, 38, 64
10, 142560, Note_off_c, 9, 35, 64
10, 142560, Note_on_c, 9, 50, 89
10, 142560, Sequencer_specific, 4, 5, 15, 15, 8
10, 142560, Note_on_c, 9, 38, 64
10, 142560, Sequencer_specific, 4, 5, 15, 15, 8
10, 142800, Note_off_c, 9, 50, 0
10, 142800, Note_on_c, 9, 50, 89
10, 142800, Sequencer_specific, 4, 5, 15, 15, 8
10, 143040, Note_off_c, 9, 38, 64
10, 143040, Note_off_c, 9, 50, 0
10, 143040, Note_on_c, 9, 38, 88
10, 143040, Sequencer_specific, 4, 5, 15, 15, 8
10, 143280, Note_on_c, 9, 50, 89
10, 143280, Sequencer_specific, 4, 5, 15, 15, 8
10, 143520, Note_off_c, 9, 38, 64
10, 143520, Note_off_c, 9, 50, 0
10, 143520, Note_on_c, 9, 38, 64
10, 143520, Sequencer_specific, 4, 5, 15, 15, 8
10, 143760, Note_on_c, 9, 50, 89
10, 143760, Sequencer_specific, 5, 5, 15, 15, 8, 2
10, 144000, Note_off_c, 9, 38, 64
10, 144000, Note_off_c, 9, 50, 0
10, 144000, Note_on_c, 9, 50, 89
10, 144000, Sequencer_specific, 4, 5, 15, 15, 8
10, 144000, Note_on_c, 9, 38, 72
10, 144000, Sequencer_specific, 4, 5, 15, 15, 8
10, 144000, Note_on_c, 9, 35, 72
10, 144000, Sequencer_specific, 4, 5, 15, 15, 8
10, 144240, Note_off_c, 9, 50, 0
10, 144480, Note_off_c, 9, 38, 64
10, 144480, Note_off_c, 9, 35, 64
10, 144480, Note_on_c, 9, 50, 89
10, 144480, Sequencer_specific, 4, 5, 15, 15, 8
10, 144480, Note_on_c, 9, 37, 64
10, 144480, Sequencer_specific, 4, 5, 15, 15, 8
10, 144720, Note_off_c, 9, 50, 0
10, 144960, Note_off_c, 9, 37, 64
10, 144960, Note_on_c, 9, 50, 89
10, 144960, Sequencer_specific, 4, 5, 15, 15, 8
10, 144960, Note_on_c, 9, 38, 88
10, 144960, Sequencer_specific, 4, 5, 15, 15, 8
10, 145200, Note_off_c, 9, 50, 0
10, 145200, Note_on_c, 9, 50, 89
10, 145200, Sequencer_specific, 4, 5, 15, 15, 8
10, 145440, Note_off_c, 9, 38, 64
10, 145440, Note_off_c, 9, 50, 0
10, 145440, Note_on_c, 9, 38, 64
10, 145440, Sequencer_specific, 4, 5, 15, 15, 8
10, 145680, Note_on_c, 9, 50, 89
10, 145680, Sequencer_specific, 4, 5, 15, 15, 8
10, 145920, Note_off_c, 9, 38, 64
10, 145920, Note_off_c, 9, 50, 0
10, 145920, Note_on_c, 9, 38, 72
10, 145920, Sequencer_specific, 4, 5, 15, 15, 8
10, 145920, Note_on_c, 9, 35, 72
10, 145920, Sequencer_specific, 4, 5, 15, 15, 8
10, 146160, Note_on_c, 9, 50, 89
10, 146160, Sequencer_specific, 4, 5, 15, 15, 8
10, 146400, Note_off_c, 9, 38, 64
10, 146400, Note_off_c, 9, 35, 64
10, 146400, Note_off_c, 9, 50, 0
10, 146400, Note_on_c, 9, 50, 89
10, 146400, Sequencer_specific, 4, 5, 15, 15, 8
10, 146400, Note_on_c, 9, 38, 64
10, 146400, Sequencer_specific, 4, 5, 15, 15, 8
10, 146640, Note_off_c, 9, 50, 0
10, 146880, Note_off_c, 9, 38, 64
10, 146880, Note_on_c, 9, 50, 89
10, 146880, Sequencer_specific, 4, 5, 15, 15, 8
10, 146880, Note_on_c, 9, 38, 88
10, 146880, Sequencer_specific, 4, 5, 15, 15, 8
10, 147120, Note_off_c, 9, 50, 0
10, 147360, Note_off_c, 9, 38, 64
10, 147360, Note_on_c, 9, 50, 89
10, 147360, Sequencer_specific, 4, 5, 15, 15, 8
10, 147360, Note_on_c, 9, 38, 64
10, 147360, Sequencer_specific, 4, 5, 15, 15, 8
10, 147600, Note_off_c, 9, 50, 0
10, 147600, Note_on_c, 9, 50, 89
10, 147600, Sequencer_specific, 4, 5, 15, 15, 8
10, 147840, Note_off_c, 9, 38, 64
10, 147840, Note_off_c, 9, 50, 0
10, 147840, Note_on_c, 9, 37, 72
10, 147840, Sequencer_specific, 4, 5, 15, 15, 8
10, 147840, Note_on_c, 9, 35, 72
10, 147840, Sequencer_specific, 4, 5, 15, 15, 8
10, 148080, Note_on_c, 9, 50, 89
10, 148080, Sequencer_specific, 4, 5, 15, 15, 8
10, 148320, Note_off_c, 9, 37, 64
10, 148320, Note_off_c, 9, 35, 64
10, 148320, Note_off_c, 9, 50, 0
10, 148320, Note_on_c, 9, 38, 64
10, 148320, Sequencer_specific, 4, 5, 15, 15, 8
10, 148560, Note_on_c, 9, 50, 89
10, 148560, Sequencer_specific, 5, 5, 15, 15, 8, 2
10, 148800, Note_off_c, 9, 38, 64
10, 148800, Note_off_c, 9, 50, 0
10, 148800, Note_on_c, 9, 50, 89
10, 148800, Sequencer_specific, 4, 5, 15, 15, 8
10, 148800, Note_on_c, 9, 38, 88
10, 148800, Sequencer_specific, 4, 5, 15, 15, 8
10, 149040, Note_off_c, 9, 50, 0
10, 149280, Note_off_c, 9, 38, 64
10, 149280, Note_on_c, 9, 50, 89
10, 149280, Sequencer_specific, 4, 5, 15, 15, 8
10, 149280, Note_on_c, 9, 38, 64
10, 149280, Sequencer_specific, 4, 5, 15, 15, 8
10, 149520, Note_off_c, 9, 50, 0
10, 149760, Note_off_c, 9, 38, 64
10, 149760, Note_on_c, 9, 35, 88
10, 149760, Sequencer_specific, 4, 5, 15, 15, 8
10, 150720, Note_off_c, 9, 35, 64
10, 150720, Note_on_c, 9, 38, 80
10, 150720, Sequencer_specific, 4, 5, 15, 15, 8
10, 150720, Note_on_c, 9, 43, 80
10, 150720, Sequencer_specific, 4, 5, 15, 15, 8
10, 151200, Note_off_c, 9, 38, 64
10, 151200, Note_off_c, 9, 43, 64
10, 151200, Note_on_c, 9, 38, 80
10, 151200, Sequencer_specific, 4, 5, 15, 15, 8
10, 151200, Note_on_c, 9, 43, 80
10, 151200, Sequencer_specific, 4, 5, 15, 15, 8
10, 151680, Note_off_c, 9, 38, 64
10, 151680, Note_off_c, 9, 43, 64
10, 151680, Note_on_c, 9, 35, 88
10, 151680, Sequencer_specific, 4, 5, 15, 15, 8
10, 152160, Note_off_c, 9, 35, 64
10, 152160, Note_on_c, 9, 43, 72
10, 152160, Sequencer_specific, 4, 5, 15, 15, 8
10, 152640, Note_off_c, 9, 43, 64
10, 152640, Note_on_c, 9, 43, 80
10, 152640, Sequencer_specific, 4, 5, 15, 15, 8
10, 152640, Note_on_c, 9, 38, 80
10, 152640, Sequencer_specific, 4, 5, 15, 15, 8
10, 153120, Note_off_c, 9, 43, 64
10, 153120, Note_off_c, 9, 38, 64
10, 153120, Note_on_c, 9, 43, 72
10, 153120, Sequencer_specific, 4, 5, 15, 15, 8
10, 153600, Note_off_c, 9, 43, 64
10, 153600, Note_on_c, 9, 35, 88
10, 153600, Sequencer_specific, 4, 5, 15, 15, 8
10, 154080, Note_off_c, 9, 35, 64
10, 154080, Note_on_c, 9, 43, 72
10, 154080, Sequencer_specific, 4, 5, 15, 15, 8
10, 154560, Note_off_c, 9, 43, 64
10, 154560, Note_on_c, 9, 38, 80
10, 154560, Sequencer_specific, 4, 5, 15, 15, 8
10, 154560, Note_on_c, 9, 43, 80
10, 154560, Sequencer_specific, 4, 5, 15, 15, 8
10, 155040, Note_off_c, 9, 38, 64
10, 155040, Note_off_c, 9, 43, 64
10, 155040, Note_on_c, 9, 38, 80
10, 155040, Sequencer_specific, 4, 5, 15, 15, 8
10, 155040, Note_on_c, 9, 43, 80
10, 155040, Sequencer_specific, 4, 5, 15, 15, 8
10, 155520, Note_off_c, 9, 38, 64
10, 155520, Note_off_c, 9, 43, 64
10, 155520, Note_on_c, 9, 35, 88
10, 155520, Sequencer_specific, 4, 5, 15, 15, 8
10, 156000, Note_off_c, 9, 35, 64
10, 156000, Note_on_c, 9, 43, 72
10, 156000, Sequencer_specific, 4, 5, 15, 15, 8
10, 156480, Note_off_c, 9, 43, 64
10, 156480, Note_on_c, 9, 43, 80
10, 156480, Sequencer_specific, 4, 5, 15, 15, 8
10, 156480, Note_on_c, 9, 38, 80
10, 156480, Sequencer_specific, 4, 5, 15, 15, 8
10, 156960, Note_off_c, 9, 43, 64
10, 156960, Note_off_c, 9, 38, 64
10, 156960, Note_on_c, 9, 43, 72
10, 156960, Sequencer_specific, 4, 5, 15, 15, 8
10, 157440, Note_off_c, 9, 43, 64
10, 157440, Note_on_c, 9, 35, 88
10, 157440, Sequencer_specific, 4, 5, 15, 15, 8
10, 158400, Note_off_c, 9, 35, 64
10, 158400, Note_on_c, 9, 38, 80
10, 158400, Sequencer_specific, 4, 5, 15, 15, 8
10, 158400, Note_on_c, 9, 43, 80
10, 158400, Sequencer_specific, 4, 5, 15, 15, 8
10, 158880, Note_off_c, 9, 38, 64
10, 158880, Note_off_c, 9, 43, 64
10, 158880, Note_on_c, 9, 38, 80
10, 158880, Sequencer_specific, 4, 5, 15, 15, 8
10, 158880, Note_on_c, 9, 43, 80
10, 158880, Sequencer_specific, 4, 5, 15, 15, 8
10, 159360, Note_off_c, 9, 38, 64
10, 159360, Note_off_c, 9, 43, 64
10, 159360, Note_on_c, 9, 35, 88
10, 159360, Sequencer_specific, 4, 5, 15, 15, 8
10, 159840, Note_off_c, 9, 35, 64
10, 159840, Note_on_c, 9, 43, 72
10, 159840, Sequencer_specific, 4, 5, 15, 15, 8
10, 160320, Note_off_c, 9, 43, 64
10, 160320, Note_on_c, 9, 43, 80
10, 160320, Sequencer_specific, 4, 5, 15, 15, 8
10, 160320, Note_on_c, 9, 38, 80
10, 160320, Sequencer_specific, 4, 5, 15, 15, 8
10, 160800, Note_off_c, 9, 43, 64
10, 160800, Note_off_c, 9, 38, 64
10, 160800, Note_on_c, 9, 43, 72
10, 160800, Sequencer_specific, 4, 5, 15, 15, 8
10, 161280, Note_off_c, 9, 43, 64
10, 161280, Note_on_c, 9, 35, 88
10, 161280, Sequencer_specific, 4, 5, 15, 15, 8
10, 161760, Note_off_c, 9, 35, 64
10, 161760, Note_on_c, 9, 43, 72
10, 161760, Sequencer_specific, 4, 5, 15, 15, 8
10, 162240, Note_off_c, 9, 43, 64
10, 162240, Note_on_c, 9, 38, 80
10, 162240, Sequencer_specific, 4, 5, 15, 15, 8
10, 162240, Note_on_c, 9, 43, 80
10, 162240, Sequencer_specific, 4, 5, 15, 15, 8
10, 162720, Note_off_c, 9, 38, 64
10, 162720, Note_off_c, 9, 43, 64
10, 162720, Note_on_c, 9, 38, 80
10, 162720, Sequencer_specific, 4, 5, 15, 15, 8
10, 162720, Note_on_c, 9, 43, 80
10, 162720, Sequencer_specific, 4, 5, 15, 15, 8
10, 163200, Note_off_c, 9, 38, 64
10, 163200, Note_off_c, 9, 43, 64
10, 163200, Note_on_c, 9, 35, 88
10, 163200, Sequencer_specific, 4, 5, 15, 15, 8
10, 163680, Note_off_c, 9, 35, 64
10, 163680, Note_on_c, 9, 43, 72
10, 163680, Sequencer_specific, 4, 5, 15, 15, 8
10, 164160, Note_off_c, 9, 43, 64
10, 164160, Note_on_c, 9, 43, 80
10, 164160, Sequencer_specific, 4, 5, 15, 15, 8
10, 164160, Note_on_c, 9, 38, 80
10, 164160, Sequencer_specific, 4, 5, 15, 15, 8
10, 164640, Note_off_c, 9, 43, 64
10, 164640, Note_off_c, 9, 38, 64
10, 164640, Note_on_c, 9, 43, 72
10, 164640, Sequencer_specific, 4, 5, 15, 15, 8
10, 165120, Note_off_c, 9, 43, 64
10, 165120, Note_on_c, 9, 35, 88
10, 165120, Sequencer_specific, 4, 5, 15, 15, 8
10, 165120, Note_on_c, 9, 49, 88
10, 165120, Sequencer_specific, 4, 5, 15, 15, 8
10, 166080, Note_off_c, 9, 35, 64
10, 166080, Note_off_c, 9, 49, 64
10, 166080, Note_on_c, 9, 38, 80
10, 166080, Sequencer_specific, 4, 5, 15, 15, 8
10, 166560, Note_off_c, 9, 38, 64
10, 166560, Note_on_c, 9, 38, 80
10, 166560, Sequencer_specific, 4, 5, 15, 15, 8
10, 166560, Note_on_c, 9, 43, 80
10, 166560, Sequencer_specific, 4, 5, 15, 15, 8
10, 167040, Note_off_c, 9, 38, 64
10, 167040, Note_off_c, 9, 43, 64
10, 167040, Note_on_c, 9, 35, 88
10, 167040, Sequencer_specific, 4, 5, 15, 15, 8
10, 167520, Note_off_c, 9, 35, 64
10, 167520, Note_on_c, 9, 43, 72
10, 167520, Sequencer_specific, 4, 5, 15, 15, 8
10, 168000, Note_off_c, 9, 43, 64
10, 168000, Note_on_c, 9, 43, 80
10, 168000, Sequencer_specific, 4, 5, 15, 15, 8
10, 168000, Note_on_c, 9, 38, 80
10, 168000, Sequencer_specific, 4, 5, 15, 15, 8
10, 168480, Note_off_c, 9, 43, 64
10, 168480, Note_off_c, 9, 38, 64
10, 168480, Note_on_c, 9, 43, 72
10, 168480, Sequencer_specific, 4, 5, 15, 15, 8
10, 168960, Note_off_c, 9, 43, 64
10, 168960, Note_on_c, 9, 35, 88
10, 168960, Sequencer_specific, 4, 5, 15, 15, 8
10, 169440, Note_off_c, 9, 35, 64
10, 169440, Note_on_c, 9, 43, 72
10, 169440, Sequencer_specific, 4, 5, 15, 15, 8
10, 169920, Note_off_c, 9, 43, 64
10, 169920, Note_on_c, 9, 38, 80
10, 169920, Sequencer_specific, 4, 5, 15, 15, 8
10, 170400, Note_off_c, 9, 38, 64
10, 170400, Note_on_c, 9, 38, 80
10, 170400, Sequencer_specific, 4, 5, 15, 15, 8
10, 170400, Note_on_c, 9, 43, 80
10, 170400, Sequencer_specific, 4, 5, 15, 15, 8
10, 170880, Note_off_c, 9, 38, 64
10, 170880, Note_off_c, 9, 43, 64
10, 170880, Note_on_c, 9, 35, 88
10, 170880, Sequencer_specific, 4, 5, 15, 15, 8
10, 171360, Note_off_c, 9, 35, 64
10, 171360, Note_on_c, 9, 43, 72
10, 171360, Sequencer_specific, 4, 5, 15, 15, 8
10, 171840, Note_off_c, 9, 43, 64
10, 171840, Note_on_c, 9, 43, 80
10, 171840, Sequencer_specific, 4, 5, 15, 15, 8
10, 171840, Note_on_c, 9, 38, 80
10, 171840, Sequencer_specific, 4, 5, 15, 15, 8
10, 172320, Note_off_c, 9, 43, 64
10, 172320, Note_off_c, 9, 38, 64
10, 172320, Note_on_c, 9, 43, 72
10, 172320, Sequencer_specific, 4, 5, 15, 15, 8
10, 172800, Note_off_c, 9, 43, 64
10, 172800, Note_on_c, 9, 35, 88
10, 172800, Sequencer_specific, 4, 5, 15, 15, 8
10, 173760, Note_off_c, 9, 35, 64
10, 173760, Note_on_c, 9, 38, 80
10, 173760, Sequencer_specific, 4, 5, 15, 15, 8
10, 174240, Note_off_c, 9, 38, 64
10, 174240, Note_on_c, 9, 38, 80
10, 174240, Sequencer_specific, 4, 5, 15, 15, 8
10, 174240, Note_on_c, 9, 43, 80
10, 174240, Sequencer_specific, 4, 5, 15, 15, 8
10, 174720, Note_off_c, 9, 38, 64
10, 174720, Note_off_c, 9, 43, 64
10, 174720, Note_on_c, 9, 35, 88
10, 174720, Sequencer_specific, 4, 5, 15, 15, 8
10, 175200, Note_off_c, 9, 35, 64
10, 175200, Note_on_c, 9, 43, 72
10, 175200, Sequencer_specific, 4, 5, 15, 15, 8
10, 175680, Note_off_c, 9, 43, 64
10, 175680, Note_on_c, 9, 43, 80
10, 175680, Sequencer_specific, 4, 5, 15, 15, 8
10, 175680, Note_on_c, 9, 38, 80
10, 175680, Sequencer_specific, 4, 5, 15, 15, 8
10, 176160, Note_off_c, 9, 43, 64
10, 176160, Note_off_c, 9, 38, 64
10, 176160, Note_on_c, 9, 43, 72
10, 176160, Sequencer_specific, 4, 5, 15, 15, 8
10, 176640, Note_off_c, 9, 43, 64
10, 176640, Note_on_c, 9, 35, 88
10, 176640, Sequencer_specific, 4, 5, 15, 15, 8
10, 177120, Note_off_c, 9, 35, 64
10, 177120, Note_on_c, 9, 43, 72
10, 177120, Sequencer_specific, 4, 5, 15, 15, 8
10, 177600, Note_off_c, 9, 43, 64
10, 177600, Note_on_c, 9, 38, 80
10, 177600, Sequencer_specific, 4, 5, 15, 15, 8
10, 178080, Note_off_c, 9, 38, 64
10, 178080, Note_on_c, 9, 38, 80
10, 178080, Sequencer_specific, 4, 5, 15, 15, 8
10, 178080, Note_on_c, 9, 43, 80
10, 178080, Sequencer_specific, 4, 5, 15, 15, 8
10, 178560, Note_off_c, 9, 38, 64
10, 178560, Note_off_c, 9, 43, 64
10, 178560, Note_on_c, 9, 35, 88
10, 178560, Sequencer_specific, 4, 5, 15, 15, 8
10, 179040, Note_off_c, 9, 35, 64
10, 179040, Note_on_c, 9, 43, 72
10, 179040, Sequencer_specific, 4, 5, 15, 15, 8
10, 179520, Note_off_c, 9, 43, 64
10, 179520, Note_on_c, 9, 43, 80
10, 179520, Sequencer_specific, 4, 5, 15, 15, 8
10, 179520, Note_on_c, 9, 38, 80
10, 179520, Sequencer_specific, 4, 5, 15, 15, 8
10, 180000, Note_off_c, 9, 43, 64
10, 180000, Note_off_c, 9, 38, 64
10, 180000, Note_on_c, 9, 43, 72
10, 180000, Sequencer_specific, 4, 5, 15, 15, 8
10, 180480, Note_off_c, 9, 43, 64
10, 180480, Note_on_c, 9, 35, 88
10, 180480, Sequencer_specific, 4, 5, 15, 15, 8
10, 181440, Note_off_c, 9, 35, 64
10, 181440, Note_on_c, 9, 38, 80
10, 181440, Sequencer_specific, 4, 5, 15, 15, 8
10, 181920, Note_off_c, 9, 38, 64
10, 181920, Note_on_c, 9, 38, 80
10, 181920, Sequencer_specific, 4, 5, 15, 15, 8
10, 181920, Note_on_c, 9, 43, 80
10, 181920, Sequencer_specific, 4, 5, 15, 15, 8
10, 182400, Note_off_c, 9, 38, 64
10, 182400, Note_off_c, 9, 43, 64
10, 182400, Note_on_c, 9, 35, 88
10, 182400, Sequencer_specific, 4, 5, 15, 15, 8
10, 182880, Note_off_c, 9, 35, 64
10, 182880, Note_on_c, 9, 43, 72
10, 182880, Sequencer_specific, 4, 5, 15, 15, 8
10, 183360, Note_off_c, 9, 43, 64
10, 183360, Note_on_c, 9, 43, 80
10, 183360, Sequencer_specific, 4, 5, 15, 15, 8
10, 183360, Note_on_c, 9, 38, 80
10, 183360, Sequencer_specific, 4, 5, 15, 15, 8
10, 183840, Note_off_c, 9, 43, 64
10, 183840, Note_off_c, 9, 38, 64
10, 183840, Note_on_c, 9, 43, 72
10, 183840, Sequencer_specific, 4, 5, 15, 15, 8
10, 184320, Note_off_c, 9, 43, 64
10, 184320, Note_on_c, 9, 35, 88
10, 184320, Sequencer_specific, 4, 5, 15, 15, 8
10, 184800, Note_off_c, 9, 35, 64
10, 184800, Note_on_c, 9, 43, 72
10, 184800, Sequencer_specific, 4, 5, 15, 15, 8
10, 185280, Note_off_c, 9, 43, 64
10, 185280, Note_on_c, 9, 38, 80
10, 185280, Sequencer_specific, 4, 5, 15, 15, 8
10, 185280, Note_on_c, 9, 43, 80
10, 185280, Sequencer_specific, 4, 5, 15, 15, 8
10, 185760, Note_off_c, 9, 38, 64
10, 185760, Note_off_c, 9, 43, 64
10, 185760, Note_on_c, 9, 38, 80
10, 185760, Sequencer_specific, 4, 5, 15, 15, 8
10, 185760, Note_on_c, 9, 43, 80
10, 185760, Sequencer_specific, 4, 5, 15, 15, 8
10, 186240, Note_off_c, 9, 38, 64
10, 186240, Note_off_c, 9, 43, 64
10, 186240, Note_on_c, 9, 35, 88
10, 186240, Sequencer_specific, 4, 5, 15, 15, 8
10, 186720, Note_off_c, 9, 35, 64
10, 186720, Note_on_c, 9, 43, 72
10, 186720, Sequencer_specific, 4, 5, 15, 15, 8
10, 187200, Note_off_c, 9, 43, 64
10, 187200, Note_on_c, 9, 43, 80
10, 187200, Sequencer_specific, 4, 5, 15, 15, 8
10, 187200, Note_on_c, 9, 38, 80
10, 187200, Sequencer_specific, 4, 5, 15, 15, 8
10, 187680, Note_off_c, 9, 43, 64
10, 187680, Note_off_c, 9, 38, 64
10, 187680, Note_on_c, 9, 43, 72
10, 187680, Sequencer_specific, 4, 5, 15, 15, 8
10, 188160, Note_off_c, 9, 43, 64
10, 188160, Note_on_c, 9, 35, 88
10, 188160, Sequencer_specific, 4, 5, 15, 15, 8
10, 189120, Note_off_c, 9, 35, 64
10, 189120, Note_on_c, 9, 38, 80
10, 189120, Sequencer_specific, 4, 5, 15, 15, 8
10, 189600, Note_off_c, 9, 38, 64
10, 189600, Note_on_c, 9, 38, 80
10, 189600, Sequencer_specific, 4, 5, 15, 15, 8
10, 189600, Note_on_c, 9, 43, 80
10, 189600, Sequencer_specific, 4, 5, 15, 15, 8
10, 190080, Note_off_c, 9, 38, 64
10, 190080, Note_off_c, 9, 43, 64
10, 190080, Note_on_c, 9, 35, 88
10, 190080, Sequencer_specific, 4, 5, 15, 15, 8
10, 190560, Note_off_c, 9, 35, 64
10, 190560, Note_on_c, 9, 43, 72
10, 190560, Sequencer_specific, 4, 5, 15, 15, 8
10, 191040, Note_off_c, 9, 43, 64
10, 191040, Note_on_c, 9, 43, 80
10, 191040, Sequencer_specific, 4, 5, 15, 15, 8
10, 191040, Note_on_c, 9, 38, 80
10, 191040, Sequencer_specific, 4, 5, 15, 15, 8
10, 191520, Note_off_c, 9, 43, 64
10, 191520, Note_off_c, 9, 38, 64
10, 191520, Note_on_c, 9, 43, 72
10, 191520, Sequencer_specific, 4, 5, 15, 15, 8
10, 192000, Note_off_c, 9, 43, 64
10, 192000, Note_on_c, 9, 35, 88
10, 192000, Sequencer_specific, 4, 5, 15, 15, 8
10, 192480, Note_off_c, 9, 35, 64
10, 192480, Note_on_c, 9, 43, 72
10, 192480, Sequencer_specific, 4, 5, 15, 15, 8
10, 192960, Note_off_c, 9, 43, 64
10, 192960, Note_on_c, 9, 38, 80
10, 192960, Sequencer_specific, 4, 5, 15, 15, 8
10, 192960, Note_on_c, 9, 43, 80
10, 192960, Sequencer_specific, 4, 5, 15, 15, 8
10, 193440, Note_off_c, 9, 38, 64
10, 193440, Note_off_c, 9, 43, 64
10, 193440, Note_on_c, 9, 38, 80
10, 193440, Sequencer_specific, 4, 5, 15, 15, 8
10, 193440, Note_on_c, 9, 43, 80
10, 193440, Sequencer_specific, 4, 5, 15, 15, 8
10, 193920, Note_off_c, 9, 38, 64
10, 193920, Note_off_c, 9, 43, 64
10, 193920, Note_on_c, 9, 35, 88
10, 193920, Sequencer_specific, 4, 5, 15, 15, 8
10, 194400, Note_off_c, 9, 35, 64
10, 194400, Note_on_c, 9, 43, 72
10, 194400, Sequencer_specific, 4, 5, 15, 15, 8
10, 194880, Note_off_c, 9, 43, 64
10, 194880, Note_on_c, 9, 43, 80
10, 194880, Sequencer_specific, 4, 5, 15, 15, 8
10, 194880, Note_on_c, 9, 38, 80
10, 194880, Sequencer_specific, 4, 5, 15, 15, 8
10, 195360, Note_off_c, 9, 43, 64
10, 195360, Note_off_c, 9, 38, 64
10, 195360, Note_on_c, 9, 43, 72
10, 195360, Sequencer_specific, 4, 5, 15, 15, 8
10, 195840, Note_off_c, 9, 43, 64
10, 195840, Note_on_c, 9, 35, 88
10, 195840, Sequencer_specific, 4, 5, 15, 15, 8
10, 196800, Note_off_c, 9, 35, 64
10, 196800, Note_on_c, 9, 38, 80
10, 196800, Sequencer_specific, 4, 5, 15, 15, 8
10, 196800, Note_on_c, 9, 43, 80
10, 196800, Sequencer_specific, 4, 5, 15, 15, 8
10, 197280, Note_off_c, 9, 38, 64
10, 197280, Note_off_c, 9, 43, 64
10, 197280, Note_on_c, 9, 38, 80
10, 197280, Sequencer_specific, 4, 5, 15, 15, 8
10, 197280, Note_on_c, 9, 43, 80
10, 197280, Sequencer_specific, 4, 5, 15, 15, 8
10, 197760, Note_off_c, 9, 38, 64
10, 197760, Note_off_c, 9, 43, 64
10, 197760, Note_on_c, 9, 35, 88
10, 197760, Sequencer_specific, 4, 5, 15, 15, 8
10, 198240, Note_off_c, 9, 35, 64
10, 198240, Note_on_c, 9, 43, 72
10, 198240, Sequencer_specific, 4, 5, 15, 15, 8
10, 198720, Note_off_c, 9, 43, 64
10, 198720, Note_on_c, 9, 43, 80
10, 198720, Sequencer_specific, 4, 5, 15, 15, 8
10, 198720, Note_on_c, 9, 38, 80
10, 198720, Sequencer_specific, 4, 5, 15, 15, 8
10, 199200, Note_off_c, 9, 43, 64
10, 199200, Note_off_c, 9, 38, 64
10, 199200, Note_on_c, 9, 43, 72
10, 199200, Sequencer_specific, 4, 5, 15, 15, 8
10, 199680, Note_off_c, 9, 43, 64
10, 199680, Note_on_c, 9, 35, 88
10, 199680, Sequencer_specific, 4, 5, 15, 15, 8
10, 200160, Note_off_c, 9, 35, 64
10, 200160, Note_on_c, 9, 43, 72
10, 200160, Sequencer_specific, 4, 5, 15, 15, 8
10, 200640, Note_off_c, 9, 43, 64
10, 200640, Note_on_c, 9, 38, 80
10, 200640, Sequencer_specific, 4, 5, 15, 15, 8
10, 200640, Note_on_c, 9, 43, 80
10, 200640, Sequencer_specific, 4, 5, 15, 15, 8
10, 201120, Note_off_c, 9, 38, 64
10, 201120, Note_off_c, 9, 43, 64
10, 201120, Note_on_c, 9, 38, 80
10, 201120, Sequencer_specific, 4, 5, 15, 15, 8
10, 201120, Note_on_c, 9, 43, 80
10, 201120, Sequencer_specific, 4, 5, 15, 15, 8
10, 201600, Note_off_c, 9, 38, 64
10, 201600, Note_off_c, 9, 43, 64
10, 201600, Note_on_c, 9, 35, 88
10, 201600, Sequencer_specific, 4, 5, 15, 15, 8
10, 202080, Note_off_c, 9, 35, 64
10, 202080, Note_on_c, 9, 43, 72
10, 202080, Sequencer_specific, 4, 5, 15, 15, 8
10, 202560, Note_off_c, 9, 43, 64
10, 202560, Note_on_c, 9, 43, 80
10, 202560, Sequencer_specific, 4, 5, 15, 15, 8
10, 202560, Note_on_c, 9, 38, 80
10, 202560, Sequencer_specific, 4, 5, 15, 15, 8
10, 203040, Note_off_c, 9, 43, 64
10, 203040, Note_off_c, 9, 38, 64
10, 203040, Note_on_c, 9, 43, 72
10, 203040, Sequencer_specific, 4, 5, 15, 15, 8
10, 203520, Note_off_c, 9, 43, 64
10, 203520, Note_on_c, 9, 35, 88
10, 203520, Sequencer_specific, 4, 5, 15, 15, 8
10, 204480, Note_off_c, 9, 35, 64
10, 204480, Note_on_c, 9, 38, 80
10, 204480, Sequencer_specific, 4, 5, 15, 15, 8
10, 204480, Note_on_c, 9, 43, 80
10, 204480, Sequencer_specific, 4, 5, 15, 15, 8
10, 204960, Note_off_c, 9, 38, 64
10, 204960, Note_off_c, 9, 43, 64
10, 204960, Note_on_c, 9, 38, 80
10, 204960, Sequencer_specific, 4, 5, 15, 15, 8
10, 204960, Note_on_c, 9, 43, 80
10, 204960, Sequencer_specific, 4, 5, 15, 15, 8
10, 205440, Note_off_c, 9, 38, 64
10, 205440, Note_off_c, 9, 43, 64
10, 205440, Note_on_c, 9, 35, 88
10, 205440, Sequencer_specific, 4, 5, 15, 15, 8
10, 205920, Note_off_c, 9, 35, 64
10, 205920, Note_on_c, 9, 43, 72
10, 205920, Sequencer_specific, 4, 5, 15, 15, 8
10, 206400, Note_off_c, 9, 43, 64
10, 206400, Note_on_c, 9, 43, 80
10, 206400, Sequencer_specific, 4, 5, 15, 15, 8
10, 206400, Note_on_c, 9, 38, 80
10, 206400, Sequencer_specific, 4, 5, 15, 15, 8
10, 206880, Note_off_c, 9, 43, 64
10, 206880, Note_off_c, 9, 38, 64
10, 206880, Note_on_c, 9, 43, 72
10, 206880, Sequencer_specific, 4, 5, 15, 15, 8
10, 207360, Note_off_c, 9, 43, 64
10, 207360, Note_on_c, 9, 35, 88
10, 207360, Sequencer_specific, 4, 5, 15, 15, 8
10, 207840, Note_off_c, 9, 35, 64
10, 207840, Note_on_c, 9, 43, 72
10, 207840, Sequencer_specific, 4, 5, 15, 15, 8
10, 208320, Note_off_c, 9, 43, 64
10, 208320, Note_on_c, 9, 38, 80
10, 208320, Sequencer_specific, 4, 5, 15, 15, 8
10, 208320, Note_on_c, 9, 43, 80
10, 208320, Sequencer_specific, 4, 5, 15, 15, 8
10, 208800, Note_off_c, 9, 38, 64
10, 208800, Note_off_c, 9, 43, 64
10, 208800, Note_on_c, 9, 38, 80
10, 208800, Sequencer_specific, 4, 5, 15, 15, 8
10, 208800, Note_on_c, 9, 43, 80
10, 208800, Sequencer_specific, 4, 5, 15, 15, 8
10, 209280, Note_off_c, 9, 38, 64
10, 209280, Note_off_c, 9, 43, 64
10, 209280, Note_on_c, 9, 35, 88
10, 209280, Sequencer_specific, 4, 5, 15, 15, 8
10, 209760, Note_off_c, 9, 35, 64
10, 209760, Note_on_c, 9, 43, 72
10, 209760, Sequencer_specific, 4, 5, 15, 15, 8
10, 210240, Note_off_c, 9, 43, 64
10, 210240, Note_on_c, 9, 43, 80
10, 210240, Sequencer_specific, 4, 5, 15, 15, 8
10, 210240, Note_on_c, 9, 38, 80
10, 210240, Sequencer_specific, 4, 5, 15, 15, 8
10, 210720, Note_off_c, 9, 43, 64
10, 210720, Note_off_c, 9, 38, 64
10, 210720, Note_on_c, 9, 43, 72
10, 210720, Sequencer_specific, 4, 5, 15, 15, 8
10, 211200, Note_off_c, 9, 43, 64
10, 211200, Note_on_c, 9, 35, 88
10, 211200, Sequencer_specific, 4, 5, 15, 15, 8
10, 211200, Note_on_c, 9, 49, 88
10, 211200, Sequencer_specific, 4, 5, 15, 15, 8
10, 212160, Note_off_c, 9, 35, 64
10, 212160, Note_off_c, 9, 49, 64
10, 212160, Note_on_c, 9, 38, 80
10, 212160, Sequencer_specific, 4, 5, 15, 15, 8
10, 212640, Note_off_c, 9, 38, 64
10, 212640, Note_on_c, 9, 38, 80
10, 212640, Sequencer_specific, 4, 5, 15, 15, 8
10, 212640, Note_on_c, 9, 43, 80
10, 212640, Sequencer_specific, 4, 5, 15, 15, 8
10, 213120, Note_off_c, 9, 38, 64
10, 213120, Note_off_c, 9, 43, 64
10, 213120, Note_on_c, 9, 35, 88
10, 213120, Sequencer_specific, 4, 5, 15, 15, 8
10, 213600, Note_off_c, 9, 35, 64
10, 213600, Note_on_c, 9, 43, 72
10, 213600, Sequencer_specific, 4, 5, 15, 15, 8
10, 214080, Note_off_c, 9, 43, 64
10, 214080, Note_on_c, 9, 43, 80
10, 214080, Sequencer_specific, 4, 5, 15, 15, 8
10, 214080, Note_on_c, 9, 38, 80
10, 214080, Sequencer_specific, 4, 5, 15, 15, 8
10, 214560, Note_off_c, 9, 43, 64
10, 214560, Note_off_c, 9, 38, 64
10, 214560, Note_on_c, 9, 43, 72
10, 214560, Sequencer_specific, 4, 5, 15, 15, 8
10, 215040, Note_off_c, 9, 43, 64
10, 215040, Note_on_c, 9, 35, 88
10, 215040, Sequencer_specific, 4, 5, 15, 15, 8
10, 215520, Note_off_c, 9, 35, 64
10, 215520, Note_on_c, 9, 43, 72
10, 215520, Sequencer_specific, 4, 5, 15, 15, 8
10, 216000, Note_off_c, 9, 43, 64
10, 216000, Note_on_c, 9, 38, 80
10, 216000, Sequencer_specific, 4, 5, 15, 15, 8
10, 216480, Note_off_c, 9, 38, 64
10, 216480, Note_on_c, 9, 38, 80
10, 216480, Sequencer_specific, 4, 5, 15, 15, 8
10, 216480, Note_on_c, 9, 43, 80
10, 216480, Sequencer_specific, 4, 5, 15, 15, 8
10, 216960, Note_off_c, 9, 38, 64
10, 216960, Note_off_c, 9, 43, 64
10, 216960, Note_on_c, 9, 35, 88
10, 216960, Sequencer_specific, 4, 5, 15, 15, 8
10, 217440, Note_off_c, 9, 35, 64
10, 217440, Note_on_c, 9, 43, 72
10, 217440, Sequencer_specific, 4, 5, 15, 15, 8
10, 217920, Note_off_c, 9, 43, 64
10, 217920, Note_on_c, 9, 43, 80
10, 217920, Sequencer_specific, 4, 5, 15, 15, 8
10, 217920, Note_on_c, 9, 38, 80
10, 217920, Sequencer_specific, 4, 5, 15, 15, 8
10, 218400, Note_off_c, 9, 43, 64
10, 218400, Note_off_c, 9, 38, 64
10, 218400, Note_on_c, 9, 43, 72
10, 218400, Sequencer_specific, 4, 5, 15, 15, 8
10, 218880, Note_off_c, 9, 43, 64
10, 218880, Note_on_c, 9, 35, 88
10, 218880, Sequencer_specific, 4, 5, 15, 15, 8
10, 219840, Note_off_c, 9, 35, 64
10, 219840, Note_on_c, 9, 38, 80
10, 219840, Sequencer_specific, 4, 5, 15, 15, 8
10, 220320, Note_off_c, 9, 38, 64
10, 220320, Note_on_c, 9, 38, 80
10, 220320, Sequencer_specific, 4, 5, 15, 15, 8
10, 220320, Note_on_c, 9, 43, 80
10, 220320, Sequencer_specific, 4, 5, 15, 15, 8
10, 220800, Note_off_c, 9, 38, 64
10, 220800, Note_off_c, 9, 43, 64
10, 220800, Note_on_c, 9, 35, 88
10, 220800, Sequencer_specific, 4, 5, 15, 15, 8
10, 221280, Note_off_c, 9, 35, 64
10, 221280, Note_on_c, 9, 43, 72
10, 221280, Sequencer_specific, 4, 5, 15, 15, 8
10, 221760, Note_off_c, 9, 43, 64
10, 221760, Note_on_c, 9, 43, 80
10, 221760, Sequencer_specific, 4, 5, 15, 15, 8
10, 221760, Note_on_c, 9, 38, 80
10, 221760, Sequencer_specific, 4, 5, 15, 15, 8
10, 222240, Note_off_c, 9, 43, 64
10, 222240, Note_off_c, 9, 38, 64
10, 222240, Note_on_c, 9, 43, 72
10, 222240, Sequencer_specific, 4, 5, 15, 15, 8
10, 222720, Note_off_c, 9, 43, 64
10, 222720, Note_on_c, 9, 35, 88
10, 222720, Sequencer_specific, 4, 5, 15, 15, 8
10, 223200, Note_off_c, 9, 35, 64
10, 223200, Note_on_c, 9, 43, 72
10, 223200, Sequencer_specific, 4, 5, 15, 15, 8
10, 223680, Note_off_c, 9, 43, 64
10, 223680, Note_on_c, 9, 38, 80
10, 223680, Sequencer_specific, 4, 5, 15, 15, 8
10, 224160, Note_off_c, 9, 38, 64
10, 224160, Note_on_c, 9, 38, 80
10, 224160, Sequencer_specific, 4, 5, 15, 15, 8
10, 224160, Note_on_c, 9, 43, 80
10, 224160, Sequencer_specific, 4, 5, 15, 15, 8
10, 224640, Note_off_c, 9, 38, 64
10, 224640, Note_off_c, 9, 43, 64
10, 224640, Note_on_c, 9, 35, 88
10, 224640, Sequencer_specific, 4, 5, 15, 15, 8
10, 225120, Note_off_c, 9, 35, 64
10, 225120, Note_on_c, 9, 43, 72
10, 225120, Sequencer_specific, 4, 5, 15, 15, 8
10, 225600, Note_off_c, 9, 43, 64
10, 225600, Note_on_c, 9, 43, 80
10, 225600, Sequencer_specific, 4, 5, 15, 15, 8
10, 225600, Note_on_c, 9, 38, 80
10, 225600, Sequencer_specific, 4, 5, 15, 15, 8
10, 226080, Note_off_c, 9, 43, 64
10, 226080, Note_off_c, 9, 38, 64
10, 226080, Note_on_c, 9, 43, 72
10, 226080, Sequencer_specific, 4, 5, 15, 15, 8
10, 226560, Note_off_c, 9, 43, 64
10, 226560, Note_on_c, 9, 35, 88
10, 226560, Sequencer_specific, 4, 5, 15, 15, 8
10, 227520, Note_off_c, 9, 35, 64
10, 227520, Note_on_c, 9, 38, 80
10, 227520, Sequencer_specific, 4, 5, 15, 15, 8
10, 228000, Note_off_c, 9, 38, 64
10, 228000, Note_on_c, 9, 38, 80
10, 228000, Sequencer_specific, 4, 5, 15, 15, 8
10, 228000, Note_on_c, 9, 43, 80
10, 228000, Sequencer_specific, 4, 5, 15, 15, 8
10, 228480, Note_off_c, 9, 38, 64
10, 228480, Note_off_c, 9, 43, 64
10, 228480, Note_on_c, 9, 35, 88
10, 228480, Sequencer_specific, 4, 5, 15, 15, 8
10, 228960, Note_off_c, 9, 35, 64
10, 228960, Note_on_c, 9, 43, 72
10, 228960, Sequencer_specific, 4, 5, 15, 15, 8
10, 229440, Note_off_c, 9, 43, 64
10, 229440, Note_on_c, 9, 43, 80
10, 229440, Sequencer_specific, 4, 5, 15, 15, 8
10, 229440, Note_on_c, 9, 38, 80
10, 229440, Sequencer_specific, 4, 5, 15, 15, 8
10, 229920, Note_off_c, 9, 43, 64
10, 229920, Note_off_c, 9, 38, 64
10, 229920, Note_on_c, 9, 43, 72
10, 229920, Sequencer_specific, 4, 5, 15, 15, 8
10, 230400, Note_off_c, 9, 43, 64
10, 230400, Note_on_c, 9, 35, 88
10, 230400, Sequencer_specific, 4, 5, 15, 15, 8
10, 230880, Note_off_c, 9, 35, 64
10, 230880, Note_on_c, 9, 43, 72
10, 230880, Sequencer_specific, 4, 5, 15, 15, 8
10, 231360, Note_off_c, 9, 43, 64
10, 231360, Note_on_c, 9, 38, 80
10, 231360, Sequencer_specific, 4, 5, 15, 15, 8
10, 231360, Note_on_c, 9, 43, 80
10, 231360, Sequencer_specific, 4, 5, 15, 15, 8
10, 231840, Note_off_c, 9, 38, 64
10, 231840, Note_off_c, 9, 43, 64
10, 231840, Note_on_c, 9, 38, 80
10, 231840, Sequencer_specific, 4, 5, 15, 15, 8
10, 231840, Note_on_c, 9, 43, 80
10, 231840, Sequencer_specific, 4, 5, 15, 15, 8
10, 232320, Note_off_c, 9, 38, 64
10, 232320, Note_off_c, 9, 43, 64
10, 232320, Note_on_c, 9, 35, 88
10, 232320, Sequencer_specific, 4, 5, 15, 15, 8
10, 232800, Note_off_c, 9, 35, 64
10, 232800, Note_on_c, 9, 43, 72
10, 232800, Sequencer_specific, 4, 5, 15, 15, 8
10, 233280, Note_off_c, 9, 43, 64
10, 233280, Note_on_c, 9, 43, 80
10, 233280, Sequencer_specific, 4, 5, 15, 15, 8
10, 233280, Note_on_c, 9, 38, 80
10, 233280, Sequencer_specific, 4, 5, 15, 15, 8
10, 233760, Note_off_c, 9, 43, 64
10, 233760, Note_off_c, 9, 38, 64
10, 233760, Note_on_c, 9, 43, 72
10, 233760, Sequencer_specific, 4, 5, 15, 15, 8
10, 234240, Note_off_c, 9, 43, 64
10, 234240, Note_on_c, 9, 35, 88
10, 234240, Sequencer_specific, 4, 5, 15, 15, 8
10, 235200, Note_off_c, 9, 35, 64
10, 235200, Note_on_c, 9, 38, 80
10, 235200, Sequencer_specific, 4, 5, 15, 15, 8
10, 235680, Note_off_c, 9, 38, 64
10, 235680, Note_on_c, 9, 38, 80
10, 235680, Sequencer_specific, 4, 5, 15, 15, 8
10, 235680, Note_on_c, 9, 43, 80
10, 235680, Sequencer_specific, 4, 5, 15, 15, 8
10, 236160, Note_off_c, 9, 38, 64
10, 236160, Note_off_c, 9, 43, 64
10, 236160, Note_on_c, 9, 35, 88
10, 236160, Sequencer_specific, 4, 5, 15, 15, 8
10, 236640, Note_off_c, 9, 35, 64
10, 236640, Note_on_c, 9, 43, 72
10, 236640, Sequencer_specific, 4, 5, 15, 15, 8
10, 237120, Note_off_c, 9, 43, 64
10, 237120, Note_on_c, 9, 43, 80
10, 237120, Sequencer_specific, 4, 5, 15, 15, 8
10, 237120, Note_on_c, 9, 38, 80
10, 237120, Sequencer_specific, 4, 5, 15, 15, 8
10, 237600, Note_off_c, 9, 43, 64
10, 237600, Note_off_c, 9, 38, 64
10, 237600, Note_on_c, 9, 43, 72
10, 237600, Sequencer_specific, 4, 5, 15, 15, 8
10, 238080, Note_off_c, 9, 43, 64
10, 238080, Note_on_c, 9, 35, 88
10, 238080, Sequencer_specific, 4, 5, 15, 15, 8
10, 238560, Note_off_c, 9, 35, 64
10, 238560, Note_on_c, 9, 43, 72
10, 238560, Sequencer_specific, 4, 5, 15, 15, 8
10, 239040, Note_off_c, 9, 43, 64
10, 239040, Note_on_c, 9, 38, 80
10, 239040, Sequencer_specific, 4, 5, 15, 15, 8
10, 239040, Note_on_c, 9, 43, 80
10, 239040, Sequencer_specific, 4, 5, 15, 15, 8
10, 239520, Note_off_c, 9, 38, 64
10, 239520, Note_off_c, 9, 43, 64
10, 239520, Note_on_c, 9, 38, 80
10, 239520, Sequencer_specific, 4, 5, 15, 15, 8
10, 239520, Note_on_c, 9, 43, 80
10, 239520, Sequencer_specific, 4, 5, 15, 15, 8
10, 240000, Note_off_c, 9, 38, 64
10, 240000, Note_off_c, 9, 43, 64
10, 240000, Note_on_c, 9, 35, 88
10, 240000, Sequencer_specific, 4, 5, 15, 15, 8
10, 240480, Note_off_c, 9, 35, 64
10, 240480, Note_on_c, 9, 43, 72
10, 240480, Sequencer_specific, 4, 5, 15, 15, 8
10, 240960, Note_off_c, 9, 43, 64
10, 240960, Note_on_c, 9, 43, 80
10, 240960, Sequencer_specific, 4, 5, 15, 15, 8
10, 240960, Note_on_c, 9, 38, 80
10, 240960, Sequencer_specific, 4, 5, 15, 15, 8
10, 241440, Note_off_c, 9, 43, 64
10, 241440, Note_off_c, 9, 38, 64
10, 241440, Note_on_c, 9, 43, 72
10, 241440, Sequencer_specific, 4, 5, 15, 15, 8
10, 241920, Note_off_c, 9, 43, 64
10, 241920, Note_on_c, 9, 35, 88
10, 241920, Sequencer_specific, 4, 5, 15, 15, 8
10, 242880, Note_off_c, 9, 35, 64
10, 242880, Note_on_c, 9, 38, 80
10, 242880, Sequencer_specific, 4, 5, 15, 15, 8
10, 242880, Note_on_c, 9, 43, 80
10, 242880, Sequencer_specific, 4, 5, 15, 15, 8
10, 243360, Note_off_c, 9, 38, 64
10, 243360, Note_off_c, 9, 43, 64
10, 243360, Note_on_c, 9, 38, 80
10, 243360, Sequencer_specific, 4, 5, 15, 15, 8
10, 243360, Note_on_c, 9, 43, 80
10, 243360, Sequencer_specific, 4, 5, 15, 15, 8
10, 243840, Note_off_c, 9, 38, 64
10, 243840, Note_off_c, 9, 43, 64
10, 243840, Note_on_c, 9, 35, 88
10, 243840, Sequencer_specific, 4, 5, 15, 15, 8
10, 244320, Note_off_c, 9, 35, 64
10, 244320, Note_on_c, 9, 43, 72
10, 244320, Sequencer_specific, 4, 5, 15, 15, 8
10, 244800, Note_off_c, 9, 43, 64
10, 244800, Note_on_c, 9, 43, 80
10, 244800, Sequencer_specific, 4, 5, 15, 15, 8
10, 244800, Note_on_c, 9, 38, 80
10, 244800, Sequencer_specific, 4, 5, 15, 15, 8
10, 245280, Note_off_c, 9, 43, 64
10, 245280, Note_off_c, 9, 38, 64
10, 245280, Note_on_c, 9, 43, 72
10, 245280, Sequencer_specific, 4, 5, 15, 15, 8
10, 245760, Note_off_c, 9, 43, 64
10, 245760, Note_on_c, 9, 35, 88
10, 245760, Sequencer_specific, 4, 5, 15, 15, 8
10, 246240, Note_off_c, 9, 35, 64
10, 246240, Note_on_c, 9, 43, 72
10, 246240, Sequencer_specific, 4, 5, 15, 15, 8
10, 246720, Note_off_c, 9, 43, 64
10, 246720, Note_on_c, 9, 38, 80
10, 246720, Sequencer_specific, 4, 5, 15, 15, 8
10, 246720, Note_on_c, 9, 43, 80
10, 246720, Sequencer_specific, 4, 5, 15, 15, 8
10, 247200, Note_off_c, 9, 38, 64
10, 247200, Note_off_c, 9, 43, 64
10, 247200, Note_on_c, 9, 38, 80
10, 247200, Sequencer_specific, 4, 5, 15, 15, 8
10, 247200, Note_on_c, 9, 43, 80
10, 247200, Sequencer_specific, 4, 5, 15, 15, 8
10, 247680, Note_off_c, 9, 38, 64
10, 247680, Note_off_c, 9, 43, 64
10, 247680, Note_on_c, 9, 35, 88
10, 247680, Sequencer_specific, 4, 5, 15, 15, 8
10, 248160, Note_off_c, 9, 35, 64
10, 248160, Note_on_c, 9, 43, 72
10, 248160, Sequencer_specific, 4, 5, 15, 15, 8
10, 248640, Note_off_c, 9, 43, 64
10, 248640, Note_on_c, 9, 43, 80
10, 248640, Sequencer_specific, 4, 5, 15, 15, 8
10, 248640, Note_on_c, 9, 38, 80
10, 248640, Sequencer_specific, 4, 5, 15, 15, 8
10, 249120, Note_off_c, 9, 43, 64
10, 249120, Note_off_c, 9, 38, 64
10, 249120, Note_on_c, 9, 43, 72
10, 249120, Sequencer_specific, 4, 5, 15, 15, 8
10, 249600, Note_off_c, 9, 43, 64
10, 249600, Note_on_c, 9, 35, 88
10, 249600, Sequencer_specific, 4, 5, 15, 15, 8
10, 250560, Note_off_c, 9, 35, 64
10, 250560, Note_on_c, 9, 38, 80
10, 250560, Sequencer_specific, 4, 5, 15, 15, 8
10, 250560, Note_on_c, 9, 43, 80
10, 250560, Sequencer_specific, 4, 5, 15, 15, 8
10, 251040, Note_off_c, 9, 38, 64
10, 251040, Note_off_c, 9, 43, 64
10, 251040, Note_on_c, 9, 38, 80
10, 251040, Sequencer_specific, 4, 5, 15, 15, 8
10, 251040, Note_on_c, 9, 43, 80
10, 251040, Sequencer_specific, 4, 5, 15, 15, 8
10, 251520, Note_off_c, 9, 38, 64
10, 251520, Note_off_c, 9, 43, 64
10, 251520, Note_on_c, 9, 35, 88
10, 251520, Sequencer_specific, 4, 5, 15, 15, 8
10, 252000, Note_off_c, 9, 35, 64
10, 252000, Note_on_c, 9, 43, 72
10, 252000, Sequencer_specific, 4, 5, 15, 15, 8
10, 252480, Note_off_c, 9, 43, 64
10, 252480, Note_on_c, 9, 43, 80
10, 252480, Sequencer_specific, 4, 5, 15, 15, 8
10, 252480, Note_on_c, 9, 38, 80
10, 252480, Sequencer_specific, 4, 5, 15, 15, 8
10, 252960, Note_off_c, 9, 43, 64
10, 252960, Note_off_c, 9, 38, 64
10, 252960, Note_on_c, 9, 43, 72
10, 252960, Sequencer_specific, 4, 5, 15, 15, 8
10, 253440, Note_off_c, 9, 43, 64
10, 253440, Note_on_c, 9, 35, 88
10, 253440, Sequencer_specific, 4, 5, 15, 15, 8
10, 253920, Note_off_c, 9, 35, 64
10, 253920, Note_on_c, 9, 43, 72
10, 253920, Sequencer_specific, 4, 5, 15, 15, 8
10, 254400, Note_off_c, 9, 43, 64
10, 254400, Note_on_c, 9, 38, 80
10, 254400, Sequencer_specific, 4, 5, 15, 15, 8
10, 254400, Note_on_c, 9, 43, 80
10, 254400, Sequencer_specific, 4, 5, 15, 15, 8
10, 254880, Note_off_c, 9, 38, 64
10, 254880, Note_off_c, 9, 43, 64
10, 254880, Note_on_c, 9, 38, 80
10, 254880, Sequencer_specific, 4, 5, 15, 15, 8
10, 254880, Note_on_c, 9, 43, 80
10, 254880, Sequencer_specific, 4, 5, 15, 15, 8
10, 255360, Note_off_c, 9, 38, 64
10, 255360, Note_off_c, 9, 43, 64
10, 255360, Note_on_c, 9, 35, 88
10, 255360, Sequencer_specific, 4, 5, 15, 15, 8
10, 255840, Note_off_c, 9, 35, 64
10, 255840, Note_on_c, 9, 43, 72
10, 255840, Sequencer_specific, 4, 5, 15, 15, 8
10, 256320, Note_off_c, 9, 43, 64
10, 256320, Note_on_c, 9, 43, 80
10, 256320, Sequencer_specific, 4, 5, 15, 15, 8
10, 256320, Note_on_c, 9, 38, 80
10, 256320, Sequencer_specific, 4, 5, 15, 15, 8
10, 256800, Note_off_c, 9, 43, 64
10, 256800, Note_off_c, 9, 38, 64
10, 256800, Note_on_c, 9, 43, 72
10, 256800, Sequencer_specific, 4, 5, 15, 15, 8
10, 257280, Note_off_c, 9, 43, 64
10, 257280, Note_on_c, 9, 35, 88
10, 257280, Sequencer_specific, 4, 5, 15, 15, 8
10, 257280, Note_on_c, 9, 49, 88
10, 257280, Sequencer_specific, 4, 5, 15, 15, 8
10, 258240, Note_off_c, 9, 35, 64
10, 258240, Note_off_c, 9, 49, 64
10, 258240, Note_on_c, 9, 38, 80
10, 258240, Sequencer_specific, 4, 5, 15, 15, 8
10, 258720, Note_off_c, 9, 38, 64
10, 258720, Note_on_c, 9, 38, 80
10, 258720, Sequencer_specific, 4, 5, 15, 15, 8
10, 258720, Note_on_c, 9, 43, 80
10, 258720, Sequencer_specific, 4, 5, 15, 15, 8
10, 259200, Note_off_c, 9, 38, 64
10, 259200, Note_off_c, 9, 43, 64
10, 259200, Note_on_c, 9, 35, 88
10, 259200, Sequencer_specific, 4, 5, 15, 15, 8
10, 259680, Note_off_c, 9, 35, 64
10, 259680, Note_on_c, 9, 43, 72
10, 259680, Sequencer_specific, 4, 5, 15, 15, 8
10, 260160, Note_off_c, 9, 43, 64
10, 260160, Note_on_c, 9, 43, 80
10, 260160, Sequencer_specific, 4, 5, 15, 15, 8
10, 260160, Note_on_c, 9, 38, 80
10, 260160, Sequencer_specific, 4, 5, 15, 15, 8
10, 260640, Note_off_c, 9, 43, 64
10, 260640, Note_off_c, 9, 38, 64
10, 260640, Note_on_c, 9, 43, 72
10, 260640, Sequencer_specific, 4, 5, 15, 15, 8
10, 261120, Note_off_c, 9, 43, 64
10, 261120, Note_on_c, 9, 35, 88
10, 261120, Sequencer_specific, 4, 5, 15, 15, 8
10, 261600, Note_off_c, 9, 35, 64
10, 261600, Note_on_c, 9, 43, 72
10, 261600, Sequencer_specific, 4, 5, 15, 15, 8
10, 262080, Note_off_c, 9, 43, 64
10, 262080, Note_on_c, 9, 38, 80
10, 262080, Sequencer_specific, 4, 5, 15, 15, 8
10, 262560, Note_off_c, 9, 38, 64
10, 262560, Note_on_c, 9, 38, 80
10, 262560, Sequencer_specific, 4, 5, 15, 15, 8
10, 262560, Note_on_c, 9, 43, 80
10, 262560, Sequencer_specific, 4, 5, 15, 15, 8
10, 263040, Note_off_c, 9, 38, 64
10, 263040, Note_off_c, 9, 43, 64
10, 263040, Note_on_c, 9, 35, 88
10, 263040, Sequencer_specific, 4, 5, 15, 15, 8
10, 263520, Note_off_c, 9, 35, 64
10, 263520, Note_on_c, 9, 43, 72
10, 263520, Sequencer_specific, 4, 5, 15, 15, 8
10, 264000, Note_off_c, 9, 43, 64
10, 264000, Note_on_c, 9, 43, 80
10, 264000, Sequencer_specific, 4, 5, 15, 15, 8
10, 264000, Note_on_c, 9, 38, 80
10, 264000, Sequencer_specific, 4, 5, 15, 15, 8
10, 264480, Note_off_c, 9, 43, 64
10, 264480, Note_off_c, 9, 38, 64
10, 264480, Note_on_c, 9, 43, 72
10, 264480, Sequencer_specific, 4, 5, 15, 15, 8
10, 264960, Note_off_c, 9, 43, 64
10, 264960, Note_on_c, 9, 50, 89
10, 264960, Sequencer_specific, 4, 5, 15, 15, 8
10, 264960, Note_on_c, 9, 38, 72
10, 264960, Sequencer_specific, 4, 5, 15, 15, 8
10, 264960, Note_on_c, 9, 35, 72
10, 264960, Sequencer_specific, 4, 5, 15, 15, 8
10, 265200, Note_off_c, 9, 50, 0
10, 265440, Note_off_c, 9, 38, 64
10, 265440, Note_off_c, 9, 35, 64
10, 265440, Note_on_c, 9, 50, 89
10, 265440, Sequencer_specific, 4, 5, 15, 15, 8
10, 265440, Note_on_c, 9, 38, 64
10, 265440, Sequencer_specific, 4, 5, 15, 15, 8
10, 265680, Note_off_c, 9, 50, 0
10, 265680, Note_on_c, 9, 50, 89
10, 265680, Sequencer_specific, 4, 5, 15, 15, 8
10, 265920, Note_off_c, 9, 38, 64
10, 265920, Note_off_c, 9, 50, 0
10, 265920, Note_on_c, 9, 38, 88
10, 265920, Sequencer_specific, 4, 5, 15, 15, 8
10, 266160, Note_on_c, 9, 50, 89
10, 266160, Sequencer_specific, 4, 5, 15, 15, 8
10, 266400, Note_off_c, 9, 38, 64
10, 266400, Note_off_c, 9, 50, 0
10, 266400, Note_on_c, 9, 38, 64
10, 266400, Sequencer_specific, 4, 5, 15, 15, 8
10, 266640, Note_on_c, 9, 50, 89
10, 266640, Sequencer_specific, 5, 5, 15, 15, 8, 2
10, 266880, Note_off_c, 9, 38, 64
10, 266880, Note_off_c, 9, 50, 0
10, 266880, Note_on_c, 9, 50, 89
10, 266880, Sequencer_specific, 4, 5, 15, 15, 8
10, 266880, Note_on_c, 9, 38, 72
10, 266880, Sequencer_specific, 4, 5, 15, 15, 8
10, 266880, Note_on_c, 9, 35, 72
10, 266880, Sequencer_specific, 4, 5, 15, 15, 8
10, 267120, Note_off_c, 9, 50, 0
10, 267360, Note_off_c, 9, 38, 64
10, 267360, Note_off_c, 9, 35, 64
10, 267360, Note_on_c, 9, 50, 89
10, 267360, Sequencer_specific, 4, 5, 15, 15, 8
10, 267360, Note_on_c, 9, 37, 64
10, 267360, Sequencer_specific, 4, 5, 15, 15, 8
10, 267600, Note_off_c, 9, 50, 0
10, 267840, Note_off_c, 9, 37, 64
10, 267840, Note_on_c, 9, 50, 89
10, 267840, Sequencer_specific, 4, 5, 15, 15, 8
10, 267840, Note_on_c, 9, 38, 88
10, 267840, Sequencer_specific, 4, 5, 15, 15, 8
10, 268080, Note_off_c, 9, 50, 0
10, 268080, Note_on_c, 9, 50, 89
10, 268080, Sequencer_specific, 4, 5, 15, 15, 8
10, 268320, Note_off_c, 9, 38, 64
10, 268320, Note_off_c, 9, 50, 0
10, 268320, Note_on_c, 9, 38, 64
10, 268320, Sequencer_specific, 4, 5, 15, 15, 8
10, 268560, Note_on_c, 9, 50, 89
10, 268560, Sequencer_specific, 4, 5, 15, 15, 8
10, 268800, Note_off_c, 9, 38, 64
10, 268800, Note_off_c, 9, 50, 0
10, 268800, Note_on_c, 9, 38, 72
10, 268800, Sequencer_specific, 4, 5, 15, 15, 8
10, 268800, Note_on_c, 9, 35, 72
10, 268800, Sequencer_specific, 4, 5, 15, 15, 8
10, 269040, Note_on_c, 9, 50, 89
10, 269040, Sequencer_specific, 4, 5, 15, 15, 8
10, 269280, Note_off_c, 9, 38, 64
10, 269280, Note_off_c, 9, 35, 64
10, 269280, Note_off_c, 9, 50, 0
10, 269280, Note_on_c, 9, 50, 89
10, 269280, Sequencer_specific, 4, 5, 15, 15, 8
10, 269280, Note_on_c, 9, 38, 64
10, 269280, Sequencer_specific, 4, 5, 15, 15, 8
10, 269520, Note_off_c, 9, 50, 0
10, 269760, Note_off_c, 9, 38, 64
10, 269760, Note_on_c, 9, 50, 89
10, 269760, Sequencer_specific, 4, 5, 15, 15, 8
10, 269760, Note_on_c, 9, 38, 88
10, 269760, Sequencer_specific, 4, 5, 15, 15, 8
10, 270000, Note_off_c, 9, 50, 0
10, 270240, Note_off_c, 9, 38, 64
10, 270240, Note_on_c, 9, 50, 89
10, 270240, Sequencer_specific, 4, 5, 15, 15, 8
10, 270240, Note_on_c, 9, 38, 64
10, 270240, Sequencer_specific, 4, 5, 15, 15, 8
10, 270480, Note_off_c, 9, 50, 0
10, 270480, Note_on_c, 9, 50, 89
10, 270480, Sequencer_specific, 4, 5, 15, 15, 8
10, 270720, Note_off_c, 9, 38, 64
10, 270720, Note_off_c, 9, 50, 0
10, 270720, Note_on_c, 9, 37, 72
10, 270720, Sequencer_specific, 4, 5, 15, 15, 8
10, 270720, Note_on_c, 9, 35, 72
10, 270720, Sequencer_specific, 4, 5, 15, 15, 8
10, 270960, Note_on_c, 9, 50, 89
10, 270960, Sequencer_specific, 4, 5, 15, 15, 8
10, 271200, Note_off_c, 9, 37, 64
10, 271200, Note_off_c, 9, 35, 64
10, 271200, Note_off_c, 9, 50, 0
10, 271200, Note_on_c, 9, 38, 64
10, 271200, Sequencer_specific, 4, 5, 15, 15, 8
10, 271440, Note_on_c, 9, 50, 89
10, 271440, Sequencer_specific, 5, 5, 15, 15, 8, 2
10, 271680, Note_off_c, 9, 38, 64
10, 271680, Note_off_c, 9, 50, 0
10, 271680, Note_on_c, 9, 50, 89
10, 271680, Sequencer_specific, 4, 5, 15, 15, 8
10, 271680, Note_on_c, 9, 38, 88
10, 271680, Sequencer_specific, 4, 5, 15, 15, 8
10, 271920, Note_off_c, 9, 50, 0
10, 272160, Note_off_c, 9, 38, 64
10, 272160, Note_on_c, 9, 50, 89
10, 272160, Sequencer_specific, 4, 5, 15, 15, 8
10, 272160, Note_on_c, 9, 38, 64
10, 272160, Sequencer_specific, 4, 5, 15, 15, 8
10, 272400, Note_off_c, 9, 50, 0
10, 272640, Note_off_c, 9, 38, 64
10, 272640, Note_on_c, 9, 38, 72
10, 272640, Sequencer_specific, 4, 5, 15, 15, 8
10, 272640, Note_on_c, 9, 35, 72
10, 272640, Sequencer_specific, 4, 5, 15, 15, 8
10, 272880, Note_on_c, 9, 50, 89
10, 272880, Sequencer_specific, 4, 5, 15, 15, 8
10, 273120, Note_off_c, 9, 38, 64
10, 273120, Note_off_c, 9, 35, 64
10, 273120, Note_off_c, 9, 50, 0
10, 273120, Note_on_c, 9, 50, 89
10, 273120, Sequencer_specific, 4, 5, 15, 15, 8
10, 273120, Note_on_c, 9, 38, 64
10, 273120, Sequencer_specific, 4, 5, 15, 15, 8
10, 273360, Note_off_c, 9, 50, 0
10, 273600, Note_off_c, 9, 38, 64
10, 273600, Note_on_c, 9, 50, 89
10, 273600, Sequencer_specific, 4, 5, 15, 15, 8
10, 273600, Note_on_c, 9, 38, 88
10, 273600, Sequencer_specific, 4, 5, 15, 15, 8
10, 273840, Note_off_c, 9, 50, 0
10, 274080, Note_off_c, 9, 38, 64
10, 274080, Note_on_c, 9, 50, 89
10, 274080, Sequencer_specific, 4, 5, 15, 15, 8
10, 274080, Note_on_c, 9, 38, 64
10, 274080, Sequencer_specific, 4, 5, 15, 15, 8
10, 274320, Note_off_c, 9, 50, 0
10, 274320, Note_on_c, 9, 50, 89
10, 274320, Sequencer_specific, 4, 5, 15, 15, 8
10, 274560, Note_off_c, 9, 38, 64
10, 274560, Note_off_c, 9, 50, 0
10, 274560, Note_on_c, 9, 37, 72
10, 274560, Sequencer_specific, 4, 5, 15, 15, 8
10, 274560, Note_on_c, 9, 35, 72
10, 274560, Sequencer_specific, 4, 5, 15, 15, 8
10, 274800, Note_on_c, 9, 50, 89
10, 274800, Sequencer_specific, 4, 5, 15, 15, 8
10, 275040, Note_off_c, 9, 37, 64
10, 275040, Note_off_c, 9, 35, 64
10, 275040, Note_off_c, 9, 50, 0
10, 275040, Note_on_c, 9, 38, 64
10, 275040, Sequencer_specific, 4, 5, 15, 15, 8
10, 275280, Note_on_c, 9, 50, 89
10, 275280, Sequencer_specific, 5, 5, 15, 15, 8, 2
10, 275520, Note_off_c, 9, 38, 64
10, 275520, Note_off_c, 9, 50, 0
10, 275520, Note_on_c, 9, 50, 89
10, 275520, Sequencer_specific, 4, 5, 15, 15, 8
10, 275520, Note_on_c, 9, 38, 88
10, 275520, Sequencer_specific, 4, 5, 15, 15, 8
10, 275760, Note_off_c, 9, 50, 0
10, 276000, Note_off_c, 9, 38, 64
10, 276000, Note_on_c, 9, 50, 89
10, 276000, Sequencer_specific, 4, 5, 15, 15, 8
10, 276000, Note_on_c, 9, 38, 64
10, 276000, Sequencer_specific, 4, 5, 15, 15, 8
10, 276240, Note_off_c, 9, 50, 0
10, 276480, Note_off_c, 9, 38, 64
10, 276480, Note_on_c, 9, 38, 72
10, 276480, Sequencer_specific, 4, 5, 15, 15, 8
10, 276480, Note_on_c, 9, 35, 72
10, 276480, Sequencer_specific, 4, 5, 15, 15, 8
10, 276960, Note_off_c, 9, 38, 64
10, 276960, Note_off_c, 9, 35, 64
10, 276960, Note_on_c, 9, 38, 64
10, 276960, Sequencer_specific, 4, 5, 15, 15, 8
10, 277440, Note_off_c, 9, 38, 64
10, 277440, Note_on_c, 9, 38, 88
10, 277440, Sequencer_specific, 4, 5, 15, 15, 8
10, 277920, Note_off_c, 9, 38, 64
10, 277920, Note_on_c, 9, 38, 64
10, 277920, Sequencer_specific, 4, 5, 15, 15, 8
10, 278400, Note_off_c, 9, 38, 64
10, 278400, Note_on_c, 9, 38, 72
10, 278400, Sequencer_specific, 4, 5, 15, 15, 8
10, 278400, Note_on_c, 9, 35, 72
10, 278400, Sequencer_specific, 4, 5, 15, 15, 8
10, 278880, Note_off_c, 9, 38, 64
10, 278880, Note_off_c, 9, 35, 64
10, 278880, Note_on_c, 9, 37, 64
10, 278880, Sequencer_specific, 4, 5, 15, 15, 8
10, 279360, Note_off_c, 9, 37, 64
10, 279360, Note_on_c, 9, 38, 88
10, 279360, Sequencer_specific, 4, 5, 15, 15, 8
10, 279840, Note_off_c, 9, 38, 64
10, 279840, Note_on_c, 9, 38, 64
10, 279840, Sequencer_specific, 4, 5, 15, 15, 8
10, 280320, Note_off_c, 9, 38, 64
10, 280320, Note_on_c, 9, 38, 72
10, 280320, Sequencer_specific, 4, 5, 15, 15, 8
10, 280320, Note_on_c, 9, 35, 72
10, 280320, Sequencer_specific, 4, 5, 15, 15, 8
10, 280800, Note_off_c, 9, 38, 64
10, 280800, Note_off_c, 9, 35, 64
10, 280800, Note_on_c, 9, 38, 64
10, 280800, Sequencer_specific, 4, 5, 15, 15, 8
10, 281280, Note_off_c, 9, 38, 64
10, 281280, Note_on_c, 9, 38, 88
10, 281280, Sequencer_specific, 4, 5, 15, 15, 8
10, 281760, Note_off_c, 9, 38, 64
10, 281760, Note_on_c, 9, 38, 64
10, 281760, Sequencer_specific, 4, 5, 15, 15, 8
10, 282240, Note_off_c, 9, 38, 64
10, 282240, Note_on_c, 9, 37, 72
10, 282240, Sequencer_specific, 4, 5, 15, 15, 8
10, 282240, Note_on_c, 9, 35, 72
10, 282240, Sequencer_specific, 4, 5, 15, 15, 8
10, 282720, Note_off_c, 9, 37, 64
10, 282720, Note_off_c, 9, 35, 64
10, 282720, Note_on_c, 9, 38, 64
10, 282720, Sequencer_specific, 4, 5, 15, 15, 8
10, 283200, Note_off_c, 9, 38, 64
10, 283200, Note_on_c, 9, 38, 88
10, 283200, Sequencer_specific, 4, 5, 15, 15, 8
10, 283680, Note_off_c, 9, 38, 64
10, 283680, Note_on_c, 9, 38, 64
10, 283680, Sequencer_specific, 4, 5, 15, 15, 8
10, 284160, Note_off_c, 9, 38, 64
10, 284160, Note_on_c, 9, 38, 72
10, 284160, Sequencer_specific, 4, 5, 15, 15, 8
10, 284160, Note_on_c, 9, 35, 72
10, 284160, Sequencer_specific, 4, 5, 15, 15, 8
10, 284640, Note_off_c, 9, 38, 64
10, 284640, Note_off_c, 9, 35, 64
10, 284640, Note_on_c, 9, 38, 64
10, 284640, Sequencer_specific, 4, 5, 15, 15, 8
10, 285120, Note_off_c, 9, 38, 64
10, 285120, Note_on_c, 9, 38, 88
10, 285120, Sequencer_specific, 4, 5, 15, 15, 8
10, 285600, Note_off_c, 9, 38, 64
10, 285600, Note_on_c, 9, 38, 64
10, 285600, Sequencer_specific, 4, 5, 15, 15, 8
10, 286080, Note_off_c, 9, 38, 64
10, 286080, Note_on_c, 9, 38, 72
10, 286080, Sequencer_specific, 4, 5, 15, 15, 8
10, 286080, Note_on_c, 9, 35, 72
10, 286080, Sequencer_specific, 4, 5, 15, 15, 8
10, 286560, Note_off_c, 9, 38, 64
10, 286560, Note_off_c, 9, 35, 64
10, 286560, Note_on_c, 9, 38, 64
10, 286560, Sequencer_specific, 4, 5, 15, 15, 8
10, 287040, Note_off_c, 9, 38, 64
10, 287040, Note_on_c, 9, 38, 88
10, 287040, Sequencer_specific, 4, 5, 15, 15, 8
10, 287520, Note_off_c, 9, 38, 64
10, 287520, Note_on_c, 9, 38, 64
10, 287520, Sequencer_specific, 4, 5, 15, 15, 8
10, 288000, Note_off_c, 9, 38, 64
10, 288000, Note_on_c, 9, 37, 72
10, 288000, Sequencer_specific, 4, 5, 15, 15, 8
10, 288000, Note_on_c, 9, 35, 72
10, 288000, Sequencer_specific, 4, 5, 15, 15, 8
10, 288480, Note_off_c, 9, 37, 64
10, 288480, Note_off_c, 9, 35, 64
10, 288480, Note_on_c, 9, 38, 64
10, 288480, Sequencer_specific, 4, 5, 15, 15, 8
10, 288960, Note_off_c, 9, 38, 64
10, 288960, Note_on_c, 9, 38, 88
10, 288960, Sequencer_specific, 4, 5, 15, 15, 8
10, 289440, Note_off_c, 9, 38, 64
10, 289440, Note_on_c, 9, 38, 64
10, 289440, Sequencer_specific, 4, 5, 15, 15, 8
10, 289920, Note_off_c, 9, 38, 64
10, 289920, Note_on_c, 9, 38, 72
10, 289920, Sequencer_specific, 4, 5, 15, 15, 8
10, 289920, Note_on_c, 9, 35, 72
10, 289920, Sequencer_specific, 4, 5, 15, 15, 8
10, 290400, Note_off_c, 9, 38, 64
10, 290400, Note_off_c, 9, 35, 64
10, 290400, Note_on_c, 9, 38, 64
10, 290400, Sequencer_specific, 4, 5, 15, 15, 8
10, 290880, Note_off_c, 9, 38, 64
10, 290880, Note_on_c, 9, 38, 88
10, 290880, Sequencer_specific, 4, 5, 15, 15, 8
10, 291360, Note_off_c, 9, 38, 64
10, 291360, Note_on_c, 9, 38, 64
10, 291360, Sequencer_specific, 4, 5, 15, 15, 8
10, 291840, Note_off_c, 9, 38, 64
10, 291840, Note_on_c, 9, 38, 72
10, 291840, Sequencer_specific, 4, 5, 15, 15, 8
10, 291840, Note_on_c, 9, 35, 72
10, 291840, Sequencer_specific, 4, 5, 15, 15, 8
10, 292320, Note_off_c, 9, 38, 64
10, 292320, Note_off_c, 9, 35, 64
10, 292320, Note_on_c, 9, 38, 64
10, 292320, Sequencer_specific, 4, 5, 15, 15, 8
10, 292800, Note_off_c, 9, 38, 64
10, 292800, Note_on_c, 9, 38, 88
10, 292800, Sequencer_specific, 4, 5, 15, 15, 8
10, 293280, Note_off_c, 9, 38, 64
10, 293280, Note_on_c, 9, 38, 64
10, 293280, Sequencer_specific, 4, 5, 15, 15, 8
10, 293760, Note_off_c, 9, 38, 64
10, 293760, Note_on_c, 9, 38, 72
10, 293760, Sequencer_specific, 4, 5, 15, 15, 8
10, 293760, Note_on_c, 9, 35, 72
10, 293760, Sequencer_specific, 4, 5, 15, 15, 8
10, 294240, Note_off_c, 9, 38, 64
10, 294240, Note_off_c, 9, 35, 64
10, 294240, Note_on_c, 9, 37, 64
10, 294240, Sequencer_specific, 4, 5, 15, 15, 8
10, 294720, Note_off_c, 9, 37, 64
10, 294720, Note_on_c, 9, 38, 88
10, 294720, Sequencer_specific, 4, 5, 15, 15, 8
10, 295200, Note_off_c, 9, 38, 64
10, 295200, Note_on_c, 9, 38, 64
10, 295200, Sequencer_specific, 4, 5, 15, 15, 8
10, 295680, Note_off_c, 9, 38, 64
10, 295680, Note_on_c, 9, 38, 72
10, 295680, Sequencer_specific, 4, 5, 15, 15, 8
10, 295680, Note_on_c, 9, 35, 72
10, 295680, Sequencer_specific, 4, 5, 15, 15, 8
10, 296160, Note_off_c, 9, 38, 64
10, 296160, Note_off_c, 9, 35, 64
10, 296160, Note_on_c, 9, 38, 64
10, 296160, Sequencer_specific, 4, 5, 15, 15, 8
10, 296640, Note_off_c, 9, 38, 64
10, 296640, Note_on_c, 9, 38, 88
10, 296640, Sequencer_specific, 4, 5, 15, 15, 8
10, 297120, Note_off_c, 9, 38, 64
10, 297120, Note_on_c, 9, 38, 64
10, 297120, Sequencer_specific, 4, 5, 15, 15, 8
10, 297600, Note_off_c, 9, 38, 64
10, 297600, Note_on_c, 9, 37, 72
10, 297600, Sequencer_specific, 4, 5, 15, 15, 8
10, 297600, Note_on_c, 9, 35, 72
10, 297600, Sequencer_specific, 4, 5, 15, 15, 8
10, 298080, Note_off_c, 9, 37, 64
10, 298080, Note_off_c, 9, 35, 64
10, 298080, Note_on_c, 9, 38, 64
10, 298080, Sequencer_specific, 4, 5, 15, 15, 8
10, 298560, Note_off_c, 9, 38, 64
10, 298560, Note_on_c, 9, 38, 88
10, 298560, Sequencer_specific, 4, 5, 15, 15, 8
10, 299040, Note_off_c, 9, 38, 64
10, 299040, Note_on_c, 9, 38, 64
10, 299040, Sequencer_specific, 4, 5, 15, 15, 8
10, 299520, Note_off_c, 9, 38, 64
10, 299520, Note_on_c, 9, 38, 72
10, 299520, Sequencer_specific, 4, 5, 15, 15, 8
10, 299520, Note_on_c, 9, 35, 72
10, 299520, Sequencer_specific, 4, 5, 15, 15, 8
10, 300000, Note_off_c, 9, 38, 64
10, 300000, Note_off_c, 9, 35, 64
10, 300000, Note_on_c, 9, 38, 64
10, 300000, Sequencer_specific, 4, 5, 15, 15, 8
10, 300480, Note_off_c, 9, 38, 64
10, 300480, Note_on_c, 9, 38, 88
10, 300480, Sequencer_specific, 4, 5, 15, 15, 8
10, 300960, Note_off_c, 9, 38, 64
10, 300960, Note_on_c, 9, 38, 64
10, 300960, Sequencer_specific, 4, 5, 15, 15, 8
10, 301440, Note_off_c, 9, 38, 64
10, 301440, Note_on_c, 9, 38, 72
10, 301440, Sequencer_specific, 4, 5, 15, 15, 8
10, 301440, Note_on_c, 9, 35, 72
10, 301440, Sequencer_specific, 4, 5, 15, 15, 8
10, 301920, Note_off_c, 9, 38, 64
10, 301920, Note_off_c, 9, 35, 64
10, 301920, Note_on_c, 9, 38, 64
10, 301920, Sequencer_specific, 4, 5, 15, 15, 8
10, 302400, Note_off_c, 9, 38, 64
10, 302400, Note_on_c, 9, 38, 88
10, 302400, Sequencer_specific, 4, 5, 15, 15, 8
10, 302880, Note_off_c, 9, 38, 64
10, 302880, Note_on_c, 9, 38, 64
10, 302880, Sequencer_specific, 4, 5, 15, 15, 8
10, 303360, Note_off_c, 9, 38, 64
10, 303360, Note_on_c, 9, 37, 72
10, 303360, Sequencer_specific, 4, 5, 15, 15, 8
10, 303360, Note_on_c, 9, 35, 72
10, 303360, Sequencer_specific, 4, 5, 15, 15, 8
10, 303840, Note_off_c, 9, 37, 64
10, 303840, Note_off_c, 9, 35, 64
10, 303840, Note_on_c, 9, 38, 64
10, 303840, Sequencer_specific, 4, 5, 15, 15, 8
10, 304320, Note_off_c, 9, 38, 64
10, 304320, Note_on_c, 9, 38, 88
10, 304320, Sequencer_specific, 4, 5, 15, 15, 8
10, 304800, Note_off_c, 9, 38, 64
10, 304800, Note_on_c, 9, 38, 64
10, 304800, Sequencer_specific, 4, 5, 15, 15, 8
10, 305280, Note_off_c, 9, 38, 64
10, 305280, Note_on_c, 9, 38, 72
10, 305280, Sequencer_specific, 4, 5, 15, 15, 8
10, 305280, Note_on_c, 9, 35, 72
10, 305280, Sequencer_specific, 4, 5, 15, 15, 8
10, 305760, Note_off_c, 9, 38, 64
10, 305760, Note_off_c, 9, 35, 64
10, 305760, Note_on_c, 9, 38, 64
10, 305760, Sequencer_specific, 4, 5, 15, 15, 8
10, 306240, Note_off_c, 9, 38, 64
10, 306240, Note_on_c, 9, 38, 88
10, 306240, Sequencer_specific, 4, 5, 15, 15, 8
10, 306720, Note_off_c, 9, 38, 64
10, 306720, Note_on_c, 9, 38, 64
10, 306720, Sequencer_specific, 4, 5, 15, 15, 8
10, 307200, Note_off_c, 9, 38, 64
10, 307200, Note_on_c, 9, 38, 72
10, 307200, Sequencer_specific, 4, 5, 15, 15, 8
10, 307200, Note_on_c, 9, 35, 72
10, 307200, Sequencer_specific, 4, 5, 15, 15, 8
10, 307680, Note_off_c, 9, 38, 64
10, 307680, Note_off_c, 9, 35, 64
10, 307680, Note_on_c, 9, 38, 64
10, 307680, Sequencer_specific, 4, 5, 15, 15, 8
10, 308160, Note_off_c, 9, 38, 64
10, 308160, Note_on_c, 9, 38, 88
10, 308160, Sequencer_specific, 4, 5, 15, 15, 8
10, 308640, Note_off_c, 9, 38, 64
10, 308640, Note_on_c, 9, 38, 64
10, 308640, Sequencer_specific, 4, 5, 15, 15, 8
10, 309120, Note_off_c, 9, 38, 64
10, 309120, Note_on_c, 9, 38, 72
10, 309120, Sequencer_specific, 4, 5, 15, 15, 8
10, 309120, Note_on_c, 9, 35, 72
10, 309120, Sequencer_specific, 4, 5, 15, 15, 8
10, 309600, Note_off_c, 9, 38, 64
10, 309600, Note_off_c, 9, 35, 64
10, 309600, Note_on_c, 9, 38, 64
10, 309600, Sequencer_specific, 4, 5, 15, 15, 8
10, 310080, Note_off_c, 9, 38, 64
10, 310080, Note_on_c, 9, 38, 88
10, 310080, Sequencer_specific, 4, 5, 15, 15, 8
10, 310560, Note_off_c, 9, 38, 64
10, 310560, Note_on_c, 9, 38, 64
10, 310560, Sequencer_specific, 4, 5, 15, 15, 8
10, 311040, Note_off_c, 9, 38, 64
10, 311040, Note_on_c, 9, 38, 72
10, 311040, Sequencer_specific, 4, 5, 15, 15, 8
10, 311040, Note_on_c, 9, 35, 72
10, 311040, Sequencer_specific, 4, 5, 15, 15, 8
10, 311520, Note_off_c, 9, 38, 64
10, 311520, Note_off_c, 9, 35, 64
10, 311520, Note_on_c, 9, 38, 64
10, 311520, Sequencer_specific, 4, 5, 15, 15, 8
10, 312000, Note_off_c, 9, 38, 64
10, 312000, Note_on_c, 9, 38, 88
10, 312000, Sequencer_specific, 4, 5, 15, 15, 8
10, 312480, Note_off_c, 9, 38, 64
10, 312480, Note_on_c, 9, 38, 64
10, 312480, Sequencer_specific, 4, 5, 15, 15, 8
10, 312960, Note_off_c, 9, 38, 64
10, 312960, Note_on_c, 9, 38, 72
10, 312960, Sequencer_specific, 4, 5, 15, 15, 8
10, 312960, Note_on_c, 9, 35, 72
10, 312960, Sequencer_specific, 4, 5, 15, 15, 8
10, 313440, Note_off_c, 9, 38, 64
10, 313440, Note_off_c, 9, 35, 64
10, 313440, Note_on_c, 9, 38, 64
10, 313440, Sequencer_specific, 4, 5, 15, 15, 8
10, 313920, Note_off_c, 9, 38, 64
10, 313920, Note_on_c, 9, 38, 88
10, 313920, Sequencer_specific, 4, 5, 15, 15, 8
10, 314400, Note_off_c, 9, 38, 64
10, 314400, Note_on_c, 9, 38, 64
10, 314400, Sequencer_specific, 4, 5, 15, 15, 8
10, 314880, Note_off_c, 9, 38, 64
10, 314880, Note_on_c, 9, 38, 72
10, 314880, Sequencer_specific, 4, 5, 15, 15, 8
10, 314880, Note_on_c, 9, 35, 72
10, 314880, Sequencer_specific, 4, 5, 15, 15, 8
10, 315360, Note_off_c, 9, 38, 64
10, 315360, Note_off_c, 9, 35, 64
10, 315360, Note_on_c, 9, 38, 64
10, 315360, Sequencer_specific, 4, 5, 15, 15, 8
10, 315840, Note_off_c, 9, 38, 64
10, 315840, Note_on_c, 9, 38, 88
10, 315840, Sequencer_specific, 4, 5, 15, 15, 8
10, 316320, Note_off_c, 9, 38, 64
10, 316320, Note_on_c, 9, 38, 64
10, 316320, Sequencer_specific, 4, 5, 15, 15, 8
10, 316800, Note_off_c, 9, 38, 64
10, 316800, Note_on_c, 9, 38, 72
10, 316800, Sequencer_specific, 4, 5, 15, 15, 8
10, 316800, Note_on_c, 9, 35, 72
10, 316800, Sequencer_specific, 4, 5, 15, 15, 8
10, 317280, Note_off_c, 9, 38, 64
10, 317280, Note_off_c, 9, 35, 64
10, 317280, Note_on_c, 9, 38, 64
10, 317280, Sequencer_specific, 4, 5, 15, 15, 8
10, 317760, Note_off_c, 9, 38, 64
10, 317760, Note_on_c, 9, 38, 88
10, 317760, Sequencer_specific, 4, 5, 15, 15, 8
10, 318240, Note_off_c, 9, 38, 64
10, 318240, Note_on_c, 9, 38, 64
10, 318240, Sequencer_specific, 4, 5, 15, 15, 8
10, 318720, Note_off_c, 9, 38, 64
10, 318720, Note_on_c, 9, 38, 72
10, 318720, Sequencer_specific, 4, 5, 15, 15, 8
10, 318720, Note_on_c, 9, 35, 72
10, 318720, Sequencer_specific, 4, 5, 15, 15, 8
10, 319200, Note_off_c, 9, 38, 64
10, 319200, Note_off_c, 9, 35, 64
10, 319200, Note_on_c, 9, 38, 64
10, 319200, Sequencer_specific, 4, 5, 15, 15, 8
10, 319680, Note_off_c, 9, 38, 64
10, 319680, Note_on_c, 9, 38, 88
10, 319680, Sequencer_specific, 4, 5, 15, 15, 8
10, 320160, Note_off_c, 9, 38, 64
10, 320160, Note_on_c, 9, 38, 64
10, 320160, Sequencer_specific, 4, 5, 15, 15, 8
10, 320640, Note_off_c, 9, 38, 64
10, 320640, Note_on_c, 9, 38, 72
10, 320640, Sequencer_specific, 4, 5, 15, 15, 8
10, 320640, Note_on_c, 9, 35, 72
10, 320640, Sequencer_specific, 4, 5, 15, 15, 8
10, 321120, Note_off_c, 9, 38, 64
10, 321120, Note_off_c, 9, 35, 64
10, 321120, Note_on_c, 9, 38, 64
10, 321120, Sequencer_specific, 4, 5, 15, 15, 8
10, 321600, Note_off_c, 9, 38, 64
10, 321600, Note_on_c, 9, 38, 88
10, 321600, Sequencer_specific, 4, 5, 15, 15, 8
10, 322080, Note_off_c, 9, 38, 64
10, 322080, Note_on_c, 9, 38, 64
10, 322080, Sequencer_specific, 4, 5, 15, 15, 8
10, 322560, Note_off_c, 9, 38, 64
10, 322560, Note_on_c, 9, 38, 72
10, 322560, Sequencer_specific, 4, 5, 15, 15, 8
10, 322560, Note_on_c, 9, 35, 72
10, 322560, Sequencer_specific, 4, 5, 15, 15, 8
10, 323040, Note_off_c, 9, 38, 64
10, 323040, Note_off_c, 9, 35, 64
10, 323040, Note_on_c, 9, 38, 64
10, 323040, Sequencer_specific, 4, 5, 15, 15, 8
10, 323520, Note_off_c, 9, 38, 64
10, 323520, Note_on_c, 9, 38, 88
10, 323520, Sequencer_specific, 4, 5, 15, 15, 8
10, 324000, Note_off_c, 9, 38, 64
10, 324000, Note_on_c, 9, 38, 64
10, 324000, Sequencer_specific, 4, 5, 15, 15, 8
10, 324480, Note_off_c, 9, 38, 64
10, 324480, Note_on_c, 9, 38, 72
10, 324480, Sequencer_specific, 4, 5, 15, 15, 8
10, 324480, Note_on_c, 9, 35, 72
10, 324480, Sequencer_specific, 4, 5, 15, 15, 8
10, 324960, Note_off_c, 9, 38, 64
10, 324960, Note_off_c, 9, 35, 64
10, 324960, Note_on_c, 9, 38, 64
10, 324960, Sequencer_specific, 4, 5, 15, 15, 8
10, 325440, Note_off_c, 9, 38, 64
10, 325440, Note_on_c, 9, 38, 88
10, 325440, Sequencer_specific, 4, 5, 15, 15, 8
10, 325920, Note_off_c, 9, 38, 64
10, 325920, Note_on_c, 9, 38, 64
10, 325920, Sequencer_specific, 4, 5, 15, 15, 8
10, 326400, Note_off_c, 9, 38, 64
10, 326400, Note_on_c, 9, 35, 88
10, 326400, Sequencer_specific, 4, 5, 15, 15, 8
10, 327360, Note_off_c, 9, 35, 64
10, 327360, Note_on_c, 9, 38, 80
10, 327360, Sequencer_specific, 4, 5, 15, 15, 8
10, 327360, Note_on_c, 9, 43, 80
10, 327360, Sequencer_specific, 4, 5, 15, 15, 8
10, 327840, Note_off_c, 9, 38, 64
10, 327840, Note_off_c, 9, 43, 64
10, 327840, Note_on_c, 9, 38, 80
10, 327840, Sequencer_specific, 4, 5, 15, 15, 8
10, 327840, Note_on_c, 9, 43, 80
10, 327840, Sequencer_specific, 4, 5, 15, 15, 8
10, 328320, Note_off_c, 9, 38, 64
10, 328320, Note_off_c, 9, 43, 64
10, 328320, Note_on_c, 9, 35, 88
10, 328320, Sequencer_specific, 4, 5, 15, 15, 8
10, 328800, Note_off_c, 9, 35, 64
10, 328800, Note_on_c, 9, 43, 72
10, 328800, Sequencer_specific, 4, 5, 15, 15, 8
10, 329280, Note_off_c, 9, 43, 64
10, 329280, Note_on_c, 9, 43, 80
10, 329280, Sequencer_specific, 4, 5, 15, 15, 8
10, 329280, Note_on_c, 9, 38, 80
10, 329280, Sequencer_specific, 4, 5, 15, 15, 8
10, 329760, Note_off_c, 9, 43, 64
10, 329760, Note_off_c, 9, 38, 64
10, 329760, Note_on_c, 9, 43, 72
10, 329760, Sequencer_specific, 4, 5, 15, 15, 8
10, 330240, Note_off_c, 9, 43, 64
10, 330240, Note_on_c, 9, 35, 88
10, 330240, Sequencer_specific, 4, 5, 15, 15, 8
10, 330720, Note_off_c, 9, 35, 64
10, 330720, Note_on_c, 9, 43, 72
10, 330720, Sequencer_specific, 4, 5, 15, 15, 8
10, 331200, Note_off_c, 9, 43, 64
10, 331200, Note_on_c, 9, 38, 80
10, 331200, Sequencer_specific, 4, 5, 15, 15, 8
10, 331200, Note_on_c, 9, 43, 80
10, 331200, Sequencer_specific, 4, 5, 15, 15, 8
10, 331680, Note_off_c, 9, 38, 64
10, 331680, Note_off_c, 9, 43, 64
10, 331680, Note_on_c, 9, 38, 80
10, 331680, Sequencer_specific, 4, 5, 15, 15, 8
10, 331680, Note_on_c, 9, 43, 80
10, 331680, Sequencer_specific, 4, 5, 15, 15, 8
10, 332160, Note_off_c, 9, 38, 64
10, 332160, Note_off_c, 9, 43, 64
10, 332160, Note_on_c, 9, 35, 88
10, 332160, Sequencer_specific, 4, 5, 15, 15, 8
10, 332640, Note_off_c, 9, 35, 64
10, 332640, Note_on_c, 9, 43, 72
10, 332640, Sequencer_specific, 4, 5, 15, 15, 8
10, 333120, Note_off_c, 9, 43, 64
10, 333120, Note_on_c, 9, 43, 80
10, 333120, Sequencer_specific, 4, 5, 15, 15, 8
10, 333120, Note_on_c, 9, 38, 80
10, 333120, Sequencer_specific, 4, 5, 15, 15, 8
10, 333600, Note_off_c, 9, 43, 64
10, 333600, Note_off_c, 9, 38, 64
10, 333600, Note_on_c, 9, 43, 72
10, 333600, Sequencer_specific, 4, 5, 15, 15, 8
10, 334080, Note_off_c, 9, 43, 64
10, 334080, Note_on_c, 9, 35, 88
10, 334080, Sequencer_specific, 4, 5, 15, 15, 8
10, 335040, Note_off_c, 9, 35, 64
10, 335040, Note_on_c, 9, 38, 80
10, 335040, Sequencer_specific, 4, 5, 15, 15, 8
10, 335040, Note_on_c, 9, 43, 80
10, 335040, Sequencer_specific, 4, 5, 15, 15, 8
10, 335520, Note_off_c, 9, 38, 64
10, 335520, Note_off_c, 9, 43, 64
10, 335520, Note_on_c, 9, 38, 80
10, 335520, Sequencer_specific, 4, 5, 15, 15, 8
10, 335520, Note_on_c, 9, 43, 80
10, 335520, Sequencer_specific, 4, 5, 15, 15, 8
10, 336000, Note_off_c, 9, 38, 64
10, 336000, Note_off_c, 9, 43, 64
10, 336000, Note_on_c, 9, 35, 88
10, 336000, Sequencer_specific, 4, 5, 15, 15, 8
10, 336480, Note_off_c, 9, 35, 64
10, 336480, Note_on_c, 9, 43, 72
10, 336480, Sequencer_specific, 4, 5, 15, 15, 8
10, 336960, Note_off_c, 9, 43, 64
10, 336960, Note_on_c, 9, 43, 80
10, 336960, Sequencer_specific, 4, 5, 15, 15, 8
10, 336960, Note_on_c, 9, 38, 80
10, 336960, Sequencer_specific, 4, 5, 15, 15, 8
10, 337440, Note_off_c, 9, 43, 64
10, 337440, Note_off_c, 9, 38, 64
10, 337440, Note_on_c, 9, 43, 72
10, 337440, Sequencer_specific, 4, 5, 15, 15, 8
10, 337920, Note_off_c, 9, 43, 64
10, 337920, Note_on_c, 9, 35, 88
10, 337920, Sequencer_specific, 4, 5, 15, 15, 8
10, 338400, Note_off_c, 9, 35, 64
10, 338400, Note_on_c, 9, 43, 72
10, 338400, Sequencer_specific, 4, 5, 15, 15, 8
10, 338880, Note_off_c, 9, 43, 64
10, 338880, Note_on_c, 9, 38, 80
10, 338880, Sequencer_specific, 4, 5, 15, 15, 8
10, 338880, Note_on_c, 9, 43, 80
10, 338880, Sequencer_specific, 4, 5, 15, 15, 8
10, 339360, Note_off_c, 9, 38, 64
10, 339360, Note_off_c, 9, 43, 64
10, 339360, Note_on_c, 9, 38, 80
10, 339360, Sequencer_specific, 4, 5, 15, 15, 8
10, 339360, Note_on_c, 9, 43, 80
10, 339360, Sequencer_specific, 4, 5, 15, 15, 8
10, 339840, Note_off_c, 9, 38, 64
10, 339840, Note_off_c, 9, 43, 64
10, 339840, Note_on_c, 9, 35, 88
10, 339840, Sequencer_specific, 4, 5, 15, 15, 8
10, 340320, Note_off_c, 9, 35, 64
10, 340320, Note_on_c, 9, 43, 72
10, 340320, Sequencer_specific, 4, 5, 15, 15, 8
10, 340800, Note_off_c, 9, 43, 64
10, 340800, Note_on_c, 9, 43, 80
10, 340800, Sequencer_specific, 4, 5, 15, 15, 8
10, 340800, Note_on_c, 9, 38, 80
10, 340800, Sequencer_specific, 4, 5, 15, 15, 8
10, 341280, Note_off_c, 9, 43, 64
10, 341280, Note_off_c, 9, 38, 64
10, 341280, Note_on_c, 9, 43, 72
10, 341280, Sequencer_specific, 4, 5, 15, 15, 8
10, 341760, Note_off_c, 9, 43, 64
10, 341760, Note_on_c, 9, 35, 88
10, 341760, Sequencer_specific, 4, 5, 15, 15, 8
10, 341760, Note_on_c, 9, 49, 88
10, 341760, Sequencer_specific, 4, 5, 15, 15, 8
10, 342720, Note_off_c, 9, 35, 64
10, 342720, Note_off_c, 9, 49, 64
10, 342720, Note_on_c, 9, 38, 80
10, 342720, Sequencer_specific, 4, 5, 15, 15, 8
10, 343200, Note_off_c, 9, 38, 64
10, 343200, Note_on_c, 9, 38, 80
10, 343200, Sequencer_specific, 4, 5, 15, 15, 8
10, 343200, Note_on_c, 9, 43, 80
10, 343200, Sequencer_specific, 4, 5, 15, 15, 8
10, 343680, Note_off_c, 9, 38, 64
10, 343680, Note_off_c, 9, 43, 64
10, 343680, Note_on_c, 9, 35, 88
10, 343680, Sequencer_specific, 4, 5, 15, 15, 8
10, 344160, Note_off_c, 9, 35, 64
10, 344160, Note_on_c, 9, 43, 72
10, 344160, Sequencer_specific, 4, 5, 15, 15, 8
10, 344640, Note_off_c, 9, 43, 64
10, 344640, Note_on_c, 9, 43, 80
10, 344640, Sequencer_specific, 4, 5, 15, 15, 8
10, 344640, Note_on_c, 9, 38, 80
10, 344640, Sequencer_specific, 4, 5, 15, 15, 8
10, 345120, Note_off_c, 9, 43, 64
10, 345120, Note_off_c, 9, 38, 64
10, 345120, Note_on_c, 9, 43, 72
10, 345120, Sequencer_specific, 4, 5, 15, 15, 8
10, 345600, Note_off_c, 9, 43, 64
10, 345600, Note_on_c, 9, 35, 88
10, 345600, Sequencer_specific, 4, 5, 15, 15, 8
10, 346080, Note_off_c, 9, 35, 64
10, 346080, Note_on_c, 9, 43, 72
10, 346080, Sequencer_specific, 4, 5, 15, 15, 8
10, 346560, Note_off_c, 9, 43, 64
10, 346560, Note_on_c, 9, 38, 80
10, 346560, Sequencer_specific, 4, 5, 15, 15, 8
10, 347040, Note_off_c, 9, 38, 64
10, 347040, Note_on_c, 9, 38, 80
10, 347040, Sequencer_specific, 4, 5, 15, 15, 8
10, 347040, Note_on_c, 9, 43, 80
10, 347040, Sequencer_specific, 4, 5, 15, 15, 8
10, 347520, Note_off_c, 9, 38, 64
10, 347520, Note_off_c, 9, 43, 64
10, 347520, Note_on_c, 9, 35, 88
10, 347520, Sequencer_specific, 4, 5, 15, 15, 8
10, 348000, Note_off_c, 9, 35, 64
10, 348000, Note_on_c, 9, 43, 72
10, 348000, Sequencer_specific, 4, 5, 15, 15, 8
10, 348480, Note_off_c, 9, 43, 64
10, 348480, Note_on_c, 9, 43, 80
10, 348480, Sequencer_specific, 4, 5, 15, 15, 8
10, 348480, Note_on_c, 9, 38, 80
10, 348480, Sequencer_specific, 4, 5, 15, 15, 8
10, 348960, Note_off_c, 9, 43, 64
10, 348960, Note_off_c, 9, 38, 64
10, 348960, Note_on_c, 9, 43, 72
10, 348960, Sequencer_specific, 4, 5, 15, 15, 8
10, 349440, Note_off_c, 9, 43, 64
10, 349440, Note_on_c, 9, 35, 88
10, 349440, Sequencer_specific, 4, 5, 15, 15, 8
10, 350400, Note_off_c, 9, 35, 64
10, 350400, Note_on_c, 9, 38, 80
10, 350400, Sequencer_specific, 4, 5, 15, 15, 8
10, 350880, Note_off_c, 9, 38, 64
10, 350880, Note_on_c, 9, 38, 80
10, 350880, Sequencer_specific, 4, 5, 15, 15, 8
10, 350880, Note_on_c, 9, 43, 80
10, 350880, Sequencer_specific, 4, 5, 15, 15, 8
10, 351360, Note_off_c, 9, 38, 64
10, 351360, Note_off_c, 9, 43, 64
10, 351360, Note_on_c, 9, 35, 88
10, 351360, Sequencer_specific, 4, 5, 15, 15, 8
10, 351840, Note_off_c, 9, 35, 64
10, 351840, Note_on_c, 9, 43, 72
10, 351840, Sequencer_specific, 4, 5, 15, 15, 8
10, 352320, Note_off_c, 9, 43, 64
10, 352320, Note_on_c, 9, 43, 80
10, 352320, Sequencer_specific, 4, 5, 15, 15, 8
10, 352320, Note_on_c, 9, 38, 80
10, 352320, Sequencer_specific, 4, 5, 15, 15, 8
10, 352800, Note_off_c, 9, 43, 64
10, 352800, Note_off_c, 9, 38, 64
10, 352800, Note_on_c, 9, 43, 72
10, 352800, Sequencer_specific, 4, 5, 15, 15, 8
10, 353280, Note_off_c, 9, 43, 64
10, 353280, Note_on_c, 9, 35, 88
10, 353280, Sequencer_specific, 4, 5, 15, 15, 8
10, 353760, Note_off_c, 9, 35, 64
10, 353760, Note_on_c, 9, 43, 72
10, 353760, Sequencer_specific, 4, 5, 15, 15, 8
10, 354240, Note_off_c, 9, 43, 64
10, 354240, Note_on_c, 9, 38, 80
10, 354240, Sequencer_specific, 4, 5, 15, 15, 8
10, 354720, Note_off_c, 9, 38, 64
10, 354720, Note_on_c, 9, 38, 80
10, 354720, Sequencer_specific, 4, 5, 15, 15, 8
10, 354720, Note_on_c, 9, 43, 80
10, 354720, Sequencer_specific, 4, 5, 15, 15, 8
10, 355200, Note_off_c, 9, 38, 64
10, 355200, Note_off_c, 9, 43, 64
10, 355200, Note_on_c, 9, 35, 88
10, 355200, Sequencer_specific, 4, 5, 15, 15, 8
10, 355680, Note_off_c, 9, 35, 64
10, 355680, Note_on_c, 9, 43, 72
10, 355680, Sequencer_specific, 4, 5, 15, 15, 8
10, 356160, Note_off_c, 9, 43, 64
10, 356160, Note_on_c, 9, 43, 80
10, 356160, Sequencer_specific, 4, 5, 15, 15, 8
10, 356160, Note_on_c, 9, 38, 80
10, 356160, Sequencer_specific, 4, 5, 15, 15, 8
10, 356640, Note_off_c, 9, 43, 64
10, 356640, Note_off_c, 9, 38, 64
10, 356640, Note_on_c, 9, 43, 72
10, 356640, Sequencer_specific, 4, 5, 15, 15, 8
10, 357120, Note_off_c, 9, 43, 64
10, 357120, Note_on_c, 9, 35, 88
10, 357120, Sequencer_specific, 4, 5, 15, 15, 8
10, 358080, Note_off_c, 9, 35, 64
10, 358080, Note_on_c, 9, 38, 80
10, 358080, Sequencer_specific, 4, 5, 15, 15, 8
10, 358560, Note_off_c, 9, 38, 64
10, 358560, Note_on_c, 9, 38, 80
10, 358560, Sequencer_specific, 4, 5, 15, 15, 8
10, 358560, Note_on_c, 9, 43, 80
10, 358560, Sequencer_specific, 4, 5, 15, 15, 8
10, 359040, Note_off_c, 9, 38, 64
10, 359040, Note_off_c, 9, 43, 64
10, 359040, Note_on_c, 9, 35, 88
10, 359040, Sequencer_specific, 4, 5, 15, 15, 8
10, 359520, Note_off_c, 9, 35, 64
10, 359520, Note_on_c, 9, 43, 72
10, 359520, Sequencer_specific, 4, 5, 15, 15, 8
10, 360000, Note_off_c, 9, 43, 64
10, 360000, Note_on_c, 9, 43, 80
10, 360000, Sequencer_specific, 4, 5, 15, 15, 8
10, 360000, Note_on_c, 9, 38, 80
10, 360000, Sequencer_specific, 4, 5, 15, 15, 8
10, 360480, Note_off_c, 9, 43, 64
10, 360480, Note_off_c, 9, 38, 64
10, 360480, Note_on_c, 9, 43, 72
10, 360480, Sequencer_specific, 4, 5, 15, 15, 8
10, 360960, Note_off_c, 9, 43, 64
10, 360960, Note_on_c, 9, 35, 88
10, 360960, Sequencer_specific, 4, 5, 15, 15, 8
10, 361440, Note_off_c, 9, 35, 64
10, 361440, Note_on_c, 9, 43, 72
10, 361440, Sequencer_specific, 4, 5, 15, 15, 8
10, 361920, Note_off_c, 9, 43, 64
10, 361920, Note_on_c, 9, 38, 80
10, 361920, Sequencer_specific, 4, 5, 15, 15, 8
10, 361920, Note_on_c, 9, 43, 80
10, 361920, Sequencer_specific, 4, 5, 15, 15, 8
10, 362400, Note_off_c, 9, 38, 64
10, 362400, Note_off_c, 9, 43, 64
10, 362400, Note_on_c, 9, 38, 80
10, 362400, Sequencer_specific, 4, 5, 15, 15, 8
10, 362400, Note_on_c, 9, 43, 80
10, 362400, Sequencer_specific, 4, 5, 15, 15, 8
10, 362880, Note_off_c, 9, 38, 64
10, 362880, Note_off_c, 9, 43, 64
10, 362880, Note_on_c, 9, 35, 88
10, 362880, Sequencer_specific, 4, 5, 15, 15, 8
10, 363360, Note_off_c, 9, 35, 64
10, 363360, Note_on_c, 9, 43, 72
10, 363360, Sequencer_specific, 4, 5, 15, 15, 8
10, 363840, Note_off_c, 9, 43, 64
10, 363840, Note_on_c, 9, 43, 80
10, 363840, Sequencer_specific, 4, 5, 15, 15, 8
10, 363840, Note_on_c, 9, 38, 80
10, 363840, Sequencer_specific, 4, 5, 15, 15, 8
10, 364320, Note_off_c, 9, 43, 64
10, 364320, Note_off_c, 9, 38, 64
10, 364320, Note_on_c, 9, 43, 72
10, 364320, Sequencer_specific, 4, 5, 15, 15, 8
10, 364800, Note_off_c, 9, 43, 64
10, 364800, Note_on_c, 9, 35, 88
10, 364800, Sequencer_specific, 4, 5, 15, 15, 8
10, 365760, Note_off_c, 9, 35, 64
10, 365760, Note_on_c, 9, 38, 80
10, 365760, Sequencer_specific, 4, 5, 15, 15, 8
10, 366240, Note_off_c, 9, 38, 64
10, 366240, Note_on_c, 9, 38, 80
10, 366240, Sequencer_specific, 4, 5, 15, 15, 8
10, 366240, Note_on_c, 9, 43, 80
10, 366240, Sequencer_specific, 4, 5, 15, 15, 8
10, 366720, Note_off_c, 9, 38, 64
10, 366720, Note_off_c, 9, 43, 64
10, 366720, Note_on_c, 9, 35, 88
10, 366720, Sequencer_specific, 4, 5, 15, 15, 8
10, 367200, Note_off_c, 9, 35, 64
10, 367200, Note_on_c, 9, 43, 72
10, 367200, Sequencer_specific, 4, 5, 15, 15, 8
10, 367680, Note_off_c, 9, 43, 64
10, 367680, Note_on_c, 9, 43, 80
10, 367680, Sequencer_specific, 4, 5, 15, 15, 8
10, 367680, Note_on_c, 9, 38, 80
10, 367680, Sequencer_specific, 4, 5, 15, 15, 8
10, 368160, Note_off_c, 9, 43, 64
10, 368160, Note_off_c, 9, 38, 64
10, 368160, Note_on_c, 9, 43, 72
10, 368160, Sequencer_specific, 4, 5, 15, 15, 8
10, 368640, Note_off_c, 9, 43, 64
10, 368640, Note_on_c, 9, 35, 88
10, 368640, Sequencer_specific, 4, 5, 15, 15, 8
10, 369120, Note_off_c, 9, 35, 64
10, 369120, Note_on_c, 9, 43, 72
10, 369120, Sequencer_specific, 4, 5, 15, 15, 8
10, 369600, Note_off_c, 9, 43, 64
10, 369600, Note_on_c, 9, 38, 80
10, 369600, Sequencer_specific, 4, 5, 15, 15, 8
10, 369600, Note_on_c, 9, 43, 80
10, 369600, Sequencer_specific, 4, 5, 15, 15, 8
10, 370080, Note_off_c, 9, 38, 64
10, 370080, Note_off_c, 9, 43, 64
10, 370080, Note_on_c, 9, 38, 80
10, 370080, Sequencer_specific, 4, 5, 15, 15, 8
10, 370080, Note_on_c, 9, 43, 80
10, 370080, Sequencer_specific, 4, 5, 15, 15, 8
10, 370560, Note_off_c, 9, 38, 64
10, 370560, Note_off_c, 9, 43, 64
10, 370560, Note_on_c, 9, 35, 88
10, 370560, Sequencer_specific, 4, 5, 15, 15, 8
10, 371040, Note_off_c, 9, 35, 64
10, 371040, Note_on_c, 9, 43, 72
10, 371040, Sequencer_specific, 4, 5, 15, 15, 8
10, 371520, Note_off_c, 9, 43, 64
10, 371520, Note_on_c, 9, 43, 80
10, 371520, Sequencer_specific, 4, 5, 15, 15, 8
10, 371520, Note_on_c, 9, 38, 80
10, 371520, Sequencer_specific, 4, 5, 15, 15, 8
10, 372000, Note_off_c, 9, 43, 64
10, 372000, Note_off_c, 9, 38, 64
10, 372000, Note_on_c, 9, 43, 72
10, 372000, Sequencer_specific, 4, 5, 15, 15, 8
10, 372480, Note_off_c, 9, 43, 64
10, 372480, Note_on_c, 9, 35, 88
10, 372480, Sequencer_specific, 4, 5, 15, 15, 8
10, 373440, Note_off_c, 9, 35, 64
10, 373440, Note_on_c, 9, 38, 80
10, 373440, Sequencer_specific, 4, 5, 15, 15, 8
10, 373440, Note_on_c, 9, 43, 80
10, 373440, Sequencer_specific, 4, 5, 15, 15, 8
10, 373920, Note_off_c, 9, 38, 64
10, 373920, Note_off_c, 9, 43, 64
10, 373920, Note_on_c, 9, 38, 80
10, 373920, Sequencer_specific, 4, 5, 15, 15, 8
10, 373920, Note_on_c, 9, 43, 80
10, 373920, Sequencer_specific, 4, 5, 15, 15, 8
10, 374400, Note_off_c, 9, 38, 64
10, 374400, Note_off_c, 9, 43, 64
10, 374400, Note_on_c, 9, 35, 88
10, 374400, Sequencer_specific, 4, 5, 15, 15, 8
10, 374880, Note_off_c, 9, 35, 64
10, 374880, Note_on_c, 9, 43, 72
10, 374880, Sequencer_specific, 4, 5, 15, 15, 8
10, 375360, Note_off_c, 9, 43, 64
10, 375360, Note_on_c, 9, 43, 80
10, 375360, Sequencer_specific, 4, 5, 15, 15, 8
10, 375360, Note_on_c, 9, 38, 80
10, 375360, Sequencer_specific, 4, 5, 15, 15, 8
10, 375840, Note_off_c, 9, 43, 64
10, 375840, Note_off_c, 9, 38, 64
10, 375840, Note_on_c, 9, 43, 72
10, 375840, Sequencer_specific, 4, 5, 15, 15, 8
10, 376320, Note_off_c, 9, 43, 64
10, 376320, Note_on_c, 9, 35, 88
10, 376320, Sequencer_specific, 4, 5, 15, 15, 8
10, 376800, Note_off_c, 9, 35, 64
10, 376800, Note_on_c, 9, 43, 72
10, 376800, Sequencer_specific, 4, 5, 15, 15, 8
10, 377280, Note_off_c, 9, 43, 64
10, 377280, Note_on_c, 9, 38, 80
10, 377280, Sequencer_specific, 4, 5, 15, 15, 8
10, 377280, Note_on_c, 9, 43, 80
10, 377280, Sequencer_specific, 4, 5, 15, 15, 8
10, 377760, Note_off_c, 9, 38, 64
10, 377760, Note_off_c, 9, 43, 64
10, 377760, Note_on_c, 9, 38, 80
10, 377760, Sequencer_specific, 4, 5, 15, 15, 8
10, 377760, Note_on_c, 9, 43, 80
10, 377760, Sequencer_specific, 4, 5, 15, 15, 8
10, 378240, Note_off_c, 9, 38, 64
10, 378240, Note_off_c, 9, 43, 64
10, 378240, Note_on_c, 9, 35, 88
10, 378240, Sequencer_specific, 4, 5, 15, 15, 8
10, 378720, Note_off_c, 9, 35, 64
10, 378720, Note_on_c, 9, 43, 72
10, 378720, Sequencer_specific, 4, 5, 15, 15, 8
10, 379200, Note_off_c, 9, 43, 64
10, 379200, Note_on_c, 9, 43, 80
10, 379200, Sequencer_specific, 4, 5, 15, 15, 8
10, 379200, Note_on_c, 9, 38, 80
10, 379200, Sequencer_specific, 4, 5, 15, 15, 8
10, 379680, Note_off_c, 9, 43, 64
10, 379680, Note_off_c, 9, 38, 64
10, 379680, Note_on_c, 9, 43, 72
10, 379680, Sequencer_specific, 4, 5, 15, 15, 8
10, 380160, Note_off_c, 9, 43, 64
10, 380160, Note_on_c, 9, 35, 88
10, 380160, Sequencer_specific, 4, 5, 15, 15, 8
10, 380160, Note_on_c, 9, 49, 88
10, 380160, Sequencer_specific, 4, 5, 15, 15, 8
10, 381120, Note_off_c, 9, 35, 64
10, 381120, Note_off_c, 9, 49, 64
10, 381120, End_track
0, 0, End_of_file
